0, 0, Header, 0, 1, 480
1, 0, Start_track
1, 0, Title_t, "Prelude Opus 32 No. 13"
1, 0, Copyright_t, "Copyright © 2008 by Bernd Krueger"
1, 0, Text_t, "Serge Rachmaninoff"
1, 0, Text_t, "Erstellt: 9.1.2008\012"
1, 0, Text_t, "Update: 23.12.2012\012"
1, 0, Text_t, "Dauer: 4:18 Minuten\012"
1, 0, Time_signature, 4, 2, 24, 8
1, 0, Key_signature, -5, "major"
1, 0, Tempo, 1448576
1, 0, Marker_t, "Grave"
1, 0, Program_c, 0, 0
1, 0, Note_on_c, 0, 53, 40
1, 0, Note_on_c, 0, 56, 40
1, 0, Note_on_c, 0, 65, 59
1, 0, Program_c, 0, 0
1, 0, Note_on_c, 0, 37, 31
1, 0, Note_on_c, 0, 44, 31
1, 0, Note_on_c, 0, 49, 37
1, 0, Program_c, 0, 0
1, 43, Control_c, 0, 64, 127
1, 357, Note_on_c, 0, 49, 0
1, 357, Note_on_c, 0, 56, 0
1, 357, Note_on_c, 0, 65, 0
1, 357, Note_on_c, 0, 53, 0
1, 357, Note_on_c, 0, 44, 0
1, 357, Note_on_c, 0, 37, 0
1, 360, Note_on_c, 0, 56, 35
1, 360, Note_on_c, 0, 61, 35
1, 360, Note_on_c, 0, 68, 53
1, 360, Note_on_c, 0, 41, 28
1, 360, Note_on_c, 0, 49, 28
1, 360, Note_on_c, 0, 53, 28
1, 474, Note_on_c, 0, 53, 0
1, 474, Note_on_c, 0, 61, 0
1, 474, Note_on_c, 0, 68, 0
1, 474, Note_on_c, 0, 56, 0
1, 474, Note_on_c, 0, 49, 0
1, 474, Note_on_c, 0, 41, 0
1, 480, Tempo, 1448576
1, 480, Note_on_c, 0, 61, 43
1, 480, Note_on_c, 0, 65, 43
1, 480, Note_on_c, 0, 73, 64
1, 480, Note_on_c, 0, 44, 34
1, 480, Note_on_c, 0, 49, 34
1, 480, Note_on_c, 0, 53, 34
1, 480, Note_on_c, 0, 56, 40
1, 720, Tempo, 1278772
1, 960, Tempo, 1431298
1, 960, Note_on_c, 0, 46, 42
1, 960, Note_on_c, 0, 58, 63
1, 972, Control_c, 0, 64, 0
1, 1080, Control_c, 0, 64, 127
1, 1440, Note_on_c, 0, 58, 0
1, 1440, Note_on_c, 0, 46, 0
1, 1678, Note_on_c, 0, 56, 0
1, 1680, Note_on_c, 0, 49, 0
1, 1680, Note_on_c, 0, 65, 0
1, 1680, Note_on_c, 0, 73, 0
1, 1680, Note_on_c, 0, 44, 0
1, 1680, Note_on_c, 0, 53, 0
1, 1680, Note_on_c, 0, 61, 0
1, 1680, Note_on_c, 0, 56, 36
1, 1680, Note_on_c, 0, 60, 36
1, 1680, Note_on_c, 0, 68, 55
1, 1680, Note_on_c, 0, 42, 29
1, 1680, Note_on_c, 0, 44, 29
1, 1680, Note_on_c, 0, 51, 29
1, 1680, Note_on_c, 0, 54, 35
1, 1800, Tempo, 1278772
1, 1908, Note_on_c, 0, 54, 0
1, 1908, Note_on_c, 0, 44, 0
1, 1908, Note_on_c, 0, 60, 0
1, 1908, Note_on_c, 0, 68, 0
1, 1908, Note_on_c, 0, 56, 0
1, 1908, Note_on_c, 0, 51, 0
1, 1908, Note_on_c, 0, 42, 0
1, 1920, Tempo, 1414427
1, 1920, Note_on_c, 0, 56, 40
1, 1920, Note_on_c, 0, 61, 59
1, 1920, Note_on_c, 0, 49, 31
1, 1920, Note_on_c, 0, 41, 31
1, 1920, Note_on_c, 0, 44, 31
1, 1920, Note_on_c, 0, 53, 37
1, 1920, Control_c, 0, 64, 0
1, 2061, Control_c, 0, 64, 127
1, 2277, Note_on_c, 0, 53, 0
1, 2277, Note_on_c, 0, 61, 0
1, 2277, Note_on_c, 0, 49, 0
1, 2277, Note_on_c, 0, 56, 0
1, 2277, Note_on_c, 0, 44, 0
1, 2277, Note_on_c, 0, 41, 0
1, 2280, Note_on_c, 0, 60, 35
1, 2280, Note_on_c, 0, 56, 35
1, 2280, Note_on_c, 0, 63, 35
1, 2280, Note_on_c, 0, 68, 53
1, 2280, Note_on_c, 0, 39, 28
1, 2280, Note_on_c, 0, 44, 28
1, 2280, Note_on_c, 0, 54, 28
1, 2400, Note_on_c, 0, 54, 0
1, 2400, Note_on_c, 0, 39, 0
1, 2400, Note_on_c, 0, 56, 0
1, 2400, Note_on_c, 0, 63, 0
1, 2400, Note_on_c, 0, 60, 0
1, 2400, Note_on_c, 0, 44, 0
1, 2400, Note_on_c, 0, 68, 0
1, 2400, Note_on_c, 0, 68, 43
1, 2400, Note_on_c, 0, 61, 43
1, 2400, Note_on_c, 0, 65, 43
1, 2400, Note_on_c, 0, 73, 64
1, 2400, Note_on_c, 0, 37, 34
1, 2400, Note_on_c, 0, 44, 34
1, 2400, Note_on_c, 0, 53, 40
1, 2409, Control_c, 0, 64, 0
1, 2513, Control_c, 0, 64, 127
1, 2640, Tempo, 1306620
1, 2880, Tempo, 1414427
1, 2880, Note_on_c, 0, 46, 42
1, 2880, Note_on_c, 0, 58, 63
1, 2892, Control_c, 0, 64, 0
1, 3014, Control_c, 0, 64, 127
1, 3360, Note_on_c, 0, 58, 0
1, 3360, Note_on_c, 0, 46, 0
1, 3600, Note_on_c, 0, 68, 0
1, 3600, Note_on_c, 0, 37, 0
1, 3600, Note_on_c, 0, 61, 0
1, 3600, Note_on_c, 0, 65, 0
1, 3600, Note_on_c, 0, 53, 0
1, 3600, Note_on_c, 0, 44, 0
1, 3600, Note_on_c, 0, 73, 0
1, 3600, Note_on_c, 0, 56, 31
1, 3600, Note_on_c, 0, 63, 31
1, 3600, Note_on_c, 0, 68, 46
1, 3600, Note_on_c, 0, 36, 24
1, 3600, Note_on_c, 0, 44, 24
1, 3600, Note_on_c, 0, 51, 29
1, 3720, Tempo, 1252087
1, 3840, Tempo, 1414427
1, 3840, Note_on_c, 0, 51, 0
1, 3840, Note_on_c, 0, 63, 0
1, 3840, Note_on_c, 0, 68, 0
1, 3840, Note_on_c, 0, 56, 0
1, 3840, Note_on_c, 0, 44, 0
1, 3840, Note_on_c, 0, 36, 0
1, 3840, Note_on_c, 0, 53, 33
1, 3840, Note_on_c, 0, 58, 33
1, 3840, Note_on_c, 0, 61, 51
1, 3840, Note_on_c, 0, 34, 27
1, 3840, Note_on_c, 0, 41, 27
1, 3840, Note_on_c, 0, 49, 32
1, 3840, Control_c, 0, 64, 0
1, 3900, Control_c, 0, 64, 127
1, 4200, Tempo, 1822600
1, 4200, Note_on_c, 0, 49, 0
1, 4200, Note_on_c, 0, 58, 0
1, 4200, Note_on_c, 0, 61, 0
1, 4200, Note_on_c, 0, 53, 0
1, 4200, Note_on_c, 0, 41, 0
1, 4200, Note_on_c, 0, 34, 0
1, 4200, Note_on_c, 0, 60, 32
1, 4200, Note_on_c, 0, 53, 32
1, 4200, Note_on_c, 0, 65, 49
1, 4200, Note_on_c, 0, 32, 25
1, 4200, Note_on_c, 0, 44, 25
1, 4260, Note_on_c, 0, 53, 0
1, 4260, Note_on_c, 0, 60, 0
1, 4260, Note_on_c, 0, 53, 37
1, 4260, Note_on_c, 0, 61, 37
1, 4278, Control_c, 0, 64, 0
1, 4313, Control_c, 0, 64, 127
1, 4320, Tempo, 1397950
1, 4320, Note_on_c, 0, 32, 0
1, 4320, Note_on_c, 0, 44, 0
1, 4320, Note_on_c, 0, 65, 0
1, 4320, Note_on_c, 0, 70, 56
1, 4320, Note_on_c, 0, 31, 29
1, 4320, Note_on_c, 0, 43, 35
1, 4560, Tempo, 1239157
1, 4800, Tempo, 1381852
1, 4800, Note_on_c, 0, 46, 37
1, 4800, Note_on_c, 0, 58, 56
1, 4809, Control_c, 0, 64, 0
1, 4874, Control_c, 0, 64, 127
1, 5280, Note_on_c, 0, 58, 0
1, 5280, Note_on_c, 0, 46, 0
1, 5520, Note_on_c, 0, 53, 0
1, 5520, Note_on_c, 0, 70, 0
1, 5520, Note_on_c, 0, 61, 0
1, 5520, Note_on_c, 0, 43, 0
1, 5520, Note_on_c, 0, 31, 0
1, 5520, Note_on_c, 0, 60, 31
1, 5520, Note_on_c, 0, 56, 31
1, 5520, Note_on_c, 0, 63, 31
1, 5520, Note_on_c, 0, 68, 46
1, 5520, Note_on_c, 0, 30, 24
1, 5520, Note_on_c, 0, 42, 29
1, 5640, Tempo, 1265289
1, 5758, Note_on_c, 0, 42, 0
1, 5758, Note_on_c, 0, 56, 0
1, 5758, Note_on_c, 0, 63, 0
1, 5758, Note_on_c, 0, 60, 0
1, 5758, Note_on_c, 0, 30, 0
1, 5758, Note_on_c, 0, 68, 0
1, 5760, Tempo, 1431298
1, 5760, Note_on_c, 0, 53, 34
1, 5760, Note_on_c, 0, 48, 34
1, 5760, Note_on_c, 0, 56, 52
1, 5760, Note_on_c, 0, 29, 27
1, 5760, Note_on_c, 0, 41, 32
1, 5760, Control_c, 0, 64, 0
1, 5806, Control_c, 0, 64, 127
1, 6120, Tempo, 1226492
1, 6120, Note_on_c, 0, 41, 0
1, 6120, Note_on_c, 0, 56, 0
1, 6120, Note_on_c, 0, 53, 0
1, 6120, Note_on_c, 0, 48, 0
1, 6120, Note_on_c, 0, 29, 0
1, 6120, Note_on_c, 0, 58, 34
1, 6120, Note_on_c, 0, 54, 34
1, 6120, Note_on_c, 0, 61, 51
1, 6120, Note_on_c, 0, 27, 27
1, 6120, Note_on_c, 0, 39, 27
1, 6240, Tempo, 1397950
1, 6240, Note_on_c, 0, 39, 0
1, 6240, Note_on_c, 0, 61, 0
1, 6240, Note_on_c, 0, 58, 0
1, 6240, Note_on_c, 0, 54, 0
1, 6240, Note_on_c, 0, 27, 0
1, 6240, Note_on_c, 0, 56, 40
1, 6240, Note_on_c, 0, 63, 40
1, 6240, Note_on_c, 0, 66, 59
1, 6240, Note_on_c, 0, 24, 31
1, 6240, Note_on_c, 0, 36, 37
1, 6249, Control_c, 0, 64, 0
1, 6318, Control_c, 0, 64, 127
1, 6480, Tempo, 1321004
1, 6720, Tempo, 1381852
1, 6720, Note_on_c, 0, 46, 35
1, 6720, Note_on_c, 0, 58, 52
1, 6731, Control_c, 0, 64, 0
1, 6780, Control_c, 0, 64, 127
1, 7200, Note_on_c, 0, 58, 0
1, 7200, Note_on_c, 0, 46, 0
1, 7520, Tempo, 1603421
1, 7520, Note_on_c, 0, 63, 0
1, 7520, Note_on_c, 0, 66, 0
1, 7520, Note_on_c, 0, 56, 0
1, 7520, Note_on_c, 0, 36, 0
1, 7520, Note_on_c, 0, 24, 0
1, 7520, Note_on_c, 0, 56, 32
1, 7520, Note_on_c, 0, 58, 32
1, 7520, Note_on_c, 0, 65, 49
1, 7520, Note_on_c, 0, 26, 20
1, 7520, Note_on_c, 0, 38, 24
1, 7680, Tempo, 1448576
1, 7680, Note_on_c, 0, 38, 0
1, 7680, Note_on_c, 0, 56, 0
1, 7680, Note_on_c, 0, 26, 0
1, 7680, Note_on_c, 0, 55, 36
1, 7680, Note_on_c, 0, 27, 28
1, 7680, Note_on_c, 0, 39, 32
1, 7680, Control_c, 0, 64, 0
1, 7733, Control_c, 0, 64, 127
1, 8000, Tempo, 1366120
1, 8000, Note_on_c, 0, 39, 0
1, 8000, Note_on_c, 0, 55, 0
1, 8000, Note_on_c, 0, 58, 0
1, 8000, Note_on_c, 0, 65, 0
1, 8000, Note_on_c, 0, 27, 0
1, 8000, Note_on_c, 0, 63, 40
1, 8000, Note_on_c, 0, 58, 27
1, 8000, Note_on_c, 0, 54, 27
1, 8000, Note_on_c, 0, 29, 20
1, 8000, Note_on_c, 0, 41, 24
1, 8160, Tempo, 1431298
1, 8160, Note_on_c, 0, 41, 0
1, 8160, Note_on_c, 0, 29, 0
1, 8160, Note_on_c, 0, 30, 23
1, 8160, Note_on_c, 0, 42, 28
1, 8177, Control_c, 0, 64, 0
1, 8234, Control_c, 0, 64, 127
1, 8480, Tempo, 1541624
1, 8480, Note_on_c, 0, 42, 0
1, 8480, Note_on_c, 0, 63, 0
1, 8480, Note_on_c, 0, 54, 0
1, 8480, Note_on_c, 0, 58, 0
1, 8480, Note_on_c, 0, 30, 0
1, 8480, Note_on_c, 0, 53, 27
1, 8480, Note_on_c, 0, 58, 27
1, 8480, Note_on_c, 0, 61, 40
1, 8480, Note_on_c, 0, 31, 20
1, 8480, Note_on_c, 0, 43, 24
1, 8640, Tempo, 1350743
1, 8640, Note_on_c, 0, 43, 0
1, 8640, Note_on_c, 0, 61, 0
1, 8640, Note_on_c, 0, 53, 0
1, 8640, Note_on_c, 0, 58, 0
1, 8640, Note_on_c, 0, 31, 0
1, 8640, Note_on_c, 0, 51, 24
1, 8640, Note_on_c, 0, 56, 24
1, 8640, Note_on_c, 0, 60, 36
1, 8640, Note_on_c, 0, 32, 22
1, 8640, Note_on_c, 0, 44, 27
1, 8654, Control_c, 0, 64, 0
1, 8718, Control_c, 0, 64, 127
1, 8960, Tempo, 1448576
1, 8960, Note_on_c, 0, 44, 0
1, 8960, Note_on_c, 0, 32, 0
1, 8960, Note_on_c, 0, 46, 33
1, 9120, Tempo, 1414427
1, 9120, Note_on_c, 0, 46, 0
1, 9120, Note_on_c, 0, 48, 39
1, 9133, Control_c, 0, 64, 0
1, 9178, Tempo, 1431298
1, 9216, Tempo, 1448576
1, 9274, Tempo, 1466276
1, 9280, Note_on_c, 0, 48, 0
1, 9280, Note_on_c, 0, 46, 40
1, 9312, Tempo, 1484414
1, 9370, Tempo, 1503006
1, 9408, Tempo, 1522070
1, 9440, Note_on_c, 0, 46, 0
1, 9440, Note_on_c, 0, 44, 43
1, 9466, Tempo, 1541624
1, 9504, Tempo, 1561687
1, 9562, Tempo, 1582278
1, 9600, Tempo, 1448576
1, 9600, Note_on_c, 0, 44, 0
1, 9600, Note_on_c, 0, 51, 0
1, 9600, Note_on_c, 0, 56, 0
1, 9600, Note_on_c, 0, 60, 0
1, 9600, Note_on_c, 0, 54, 33
1, 9600, Note_on_c, 0, 61, 50
1, 9600, Note_on_c, 0, 46, 26
1, 9600, Note_on_c, 0, 49, 32
1, 9643, Control_c, 0, 64, 127
1, 9957, Note_on_c, 0, 49, 0
1, 9957, Note_on_c, 0, 54, 0
1, 9957, Note_on_c, 0, 61, 0
1, 9957, Note_on_c, 0, 46, 0
1, 9960, Note_on_c, 0, 61, 29
1, 9960, Note_on_c, 0, 65, 29
1, 9960, Note_on_c, 0, 68, 45
1, 9960, Note_on_c, 0, 44, 23
1, 9960, Note_on_c, 0, 53, 23
1, 9960, Note_on_c, 0, 56, 23
1, 10080, Tempo, 1448576
1, 10080, Note_on_c, 0, 56, 0
1, 10080, Note_on_c, 0, 65, 0
1, 10080, Note_on_c, 0, 68, 0
1, 10080, Note_on_c, 0, 61, 0
1, 10080, Note_on_c, 0, 53, 0
1, 10080, Note_on_c, 0, 44, 0
1, 10080, Note_on_c, 0, 63, 38
1, 10080, Note_on_c, 0, 66, 38
1, 10080, Note_on_c, 0, 73, 57
1, 10080, Note_on_c, 0, 42, 30
1, 10080, Note_on_c, 0, 51, 30
1, 10080, Note_on_c, 0, 58, 36
1, 10090, Control_c, 0, 64, 0
1, 10172, Control_c, 0, 64, 127
1, 10320, Tempo, 1278772
1, 10560, Tempo, 1431298
1, 10560, Note_on_c, 0, 49, 37
1, 10560, Note_on_c, 0, 61, 56
1, 10572, Control_c, 0, 64, 0
1, 10680, Control_c, 0, 64, 127
1, 11040, Note_on_c, 0, 61, 0
1, 11040, Note_on_c, 0, 49, 0
1, 11278, Note_on_c, 0, 58, 0
1, 11280, Note_on_c, 0, 66, 0
1, 11280, Note_on_c, 0, 73, 0
1, 11280, Note_on_c, 0, 42, 0
1, 11280, Note_on_c, 0, 51, 0
1, 11280, Note_on_c, 0, 63, 0
1, 11280, Note_on_c, 0, 60, 32
1, 11280, Note_on_c, 0, 68, 49
1, 11280, Note_on_c, 0, 44, 26
1, 11280, Note_on_c, 0, 53, 26
1, 11280, Note_on_c, 0, 56, 31
1, 11400, Tempo, 1278772
1, 11520, Tempo, 1414427
1, 11520, Note_on_c, 0, 56, 0
1, 11520, Note_on_c, 0, 44, 0
1, 11520, Note_on_c, 0, 60, 0
1, 11520, Note_on_c, 0, 68, 0
1, 11520, Note_on_c, 0, 53, 0
1, 11520, Note_on_c, 0, 61, 56
1, 11520, Note_on_c, 0, 51, 29
1, 11520, Note_on_c, 0, 46, 29
1, 11520, Note_on_c, 0, 54, 36
1, 11520, Control_c, 0, 64, 0
1, 11661, Control_c, 0, 64, 127
1, 11877, Note_on_c, 0, 54, 0
1, 11877, Note_on_c, 0, 61, 0
1, 11877, Note_on_c, 0, 51, 0
1, 11877, Note_on_c, 0, 46, 0
1, 11880, Note_on_c, 0, 61, 33
1, 11880, Note_on_c, 0, 65, 33
1, 11880, Note_on_c, 0, 68, 40
1, 11880, Note_on_c, 0, 56, 26
1, 11880, Note_on_c, 0, 44, 26
1, 11880, Note_on_c, 0, 53, 26
1, 12000, Note_on_c, 0, 53, 0
1, 12000, Note_on_c, 0, 65, 0
1, 12000, Note_on_c, 0, 68, 0
1, 12000, Note_on_c, 0, 61, 0
1, 12000, Note_on_c, 0, 44, 0
1, 12000, Note_on_c, 0, 56, 0
1, 12000, Note_on_c, 0, 66, 38
1, 12000, Note_on_c, 0, 63, 38
1, 12000, Note_on_c, 0, 73, 57
1, 12000, Note_on_c, 0, 42, 30
1, 12000, Note_on_c, 0, 49, 30
1, 12000, Note_on_c, 0, 58, 36
1, 12009, Control_c, 0, 64, 0
1, 12113, Control_c, 0, 64, 127
1, 12240, Tempo, 1306620
1, 12480, Tempo, 1414427
1, 12480, Note_on_c, 0, 49, 37
1, 12480, Note_on_c, 0, 61, 56
1, 12492, Control_c, 0, 64, 0
1, 12614, Control_c, 0, 64, 127
1, 12960, Note_on_c, 0, 61, 0
1, 12960, Note_on_c, 0, 49, 0
1, 13200, Note_on_c, 0, 49, 0
1, 13200, Note_on_c, 0, 63, 0
1, 13200, Note_on_c, 0, 73, 0
1, 13200, Note_on_c, 0, 42, 0
1, 13200, Note_on_c, 0, 58, 0
1, 13200, Note_on_c, 0, 66, 0
1, 13200, Note_on_c, 0, 60, 31
1, 13200, Note_on_c, 0, 68, 46
1, 13200, Note_on_c, 0, 39, 24
1, 13200, Note_on_c, 0, 44, 24
1, 13200, Note_on_c, 0, 54, 29
1, 13320, Tempo, 1252087
1, 13440, Tempo, 1414427
1, 13440, Note_on_c, 0, 54, 0
1, 13440, Note_on_c, 0, 39, 0
1, 13440, Note_on_c, 0, 60, 0
1, 13440, Note_on_c, 0, 68, 0
1, 13440, Note_on_c, 0, 44, 0
1, 13440, Note_on_c, 0, 56, 32
1, 13440, Note_on_c, 0, 61, 48
1, 13440, Note_on_c, 0, 41, 25
1, 13440, Note_on_c, 0, 49, 30
1, 13440, Control_c, 0, 64, 0
1, 13500, Control_c, 0, 64, 127
1, 13800, Tempo, 1670379
1, 13800, Note_on_c, 0, 49, 0
1, 13800, Note_on_c, 0, 56, 0
1, 13800, Note_on_c, 0, 61, 0
1, 13800, Note_on_c, 0, 41, 0
1, 13800, Note_on_c, 0, 57, 32
1, 13800, Note_on_c, 0, 65, 49
1, 13800, Note_on_c, 0, 42, 25
1, 13800, Note_on_c, 0, 49, 25
1, 13878, Control_c, 0, 64, 0
1, 13913, Control_c, 0, 64, 127
1, 13920, Tempo, 1397950
1, 13920, Note_on_c, 0, 49, 0
1, 13920, Note_on_c, 0, 57, 0
1, 13920, Note_on_c, 0, 65, 0
1, 13920, Note_on_c, 0, 42, 0
1, 13920, Note_on_c, 0, 58, 37
1, 13920, Note_on_c, 0, 64, 37
1, 13920, Note_on_c, 0, 70, 56
1, 13920, Note_on_c, 0, 36, 29
1, 13920, Note_on_c, 0, 43, 29
1, 13920, Note_on_c, 0, 52, 35
1, 14160, Tempo, 1239157
1, 14400, Tempo, 1381852
1, 14400, Note_on_c, 0, 49, 29
1, 14400, Note_on_c, 0, 61, 44
1, 14409, Control_c, 0, 64, 0
1, 14474, Control_c, 0, 64, 127
1, 14880, Note_on_c, 0, 61, 0
1, 14880, Note_on_c, 0, 49, 0
1, 15120, Note_on_c, 0, 43, 0
1, 15120, Note_on_c, 0, 64, 0
1, 15120, Note_on_c, 0, 70, 0
1, 15120, Note_on_c, 0, 36, 0
1, 15120, Note_on_c, 0, 52, 0
1, 15120, Note_on_c, 0, 58, 0
1, 15120, Note_on_c, 0, 59, 28
1, 15120, Note_on_c, 0, 56, 28
1, 15120, Note_on_c, 0, 65, 28
1, 15120, Note_on_c, 0, 68, 41
1, 15120, Note_on_c, 0, 47, 21
1, 15120, Note_on_c, 0, 38, 21
1, 15120, Note_on_c, 0, 53, 26
1, 15240, Tempo, 1265289
1, 15360, Tempo, 1103144
1, 15840, Tempo, 1414427
1, 15840, Note_on_c, 0, 53, 0
1, 15840, Note_on_c, 0, 47, 0
1, 15840, Note_on_c, 0, 56, 0
1, 15840, Note_on_c, 0, 65, 0
1, 15840, Note_on_c, 0, 59, 0
1, 15840, Note_on_c, 0, 38, 0
1, 15840, Note_on_c, 0, 68, 0
1, 15840, Note_on_c, 0, 54, 27
1, 15840, Note_on_c, 0, 58, 41
1, 15840, Note_on_c, 0, 39, 26
1, 15840, Note_on_c, 0, 46, 31
1, 15849, Control_c, 0, 64, 0
1, 15918, Control_c, 0, 64, 127
1, 16160, Note_on_c, 0, 46, 0
1, 16160, Note_on_c, 0, 54, 0
1, 16160, Note_on_c, 0, 58, 0
1, 16160, Note_on_c, 0, 39, 0
1, 16160, Note_on_c, 0, 56, 36
1, 16160, Note_on_c, 0, 61, 45
1, 16160, Note_on_c, 0, 46, 23
1, 16160, Note_on_c, 0, 41, 23
1, 16160, Note_on_c, 0, 49, 28
1, 16200, Tempo, 1582278
1, 16320, Tempo, 1397950
1, 16320, Note_on_c, 0, 49, 0
1, 16320, Note_on_c, 0, 61, 0
1, 16320, Note_on_c, 0, 56, 0
1, 16320, Note_on_c, 0, 41, 0
1, 16320, Note_on_c, 0, 58, 36
1, 16320, Note_on_c, 0, 66, 53
1, 16320, Note_on_c, 0, 42, 28
1, 16320, Note_on_c, 0, 51, 33
1, 16331, Control_c, 0, 64, 0
1, 16380, Control_c, 0, 64, 127
1, 16560, Tempo, 1239157
1, 16800, Tempo, 1381852
1, 17120, Tempo, 1582278
1, 17120, Note_on_c, 0, 51, 0
1, 17120, Note_on_c, 0, 66, 0
1, 17120, Note_on_c, 0, 46, 0
1, 17120, Note_on_c, 0, 58, 0
1, 17120, Note_on_c, 0, 42, 0
1, 17120, Note_on_c, 0, 58, 27
1, 17120, Note_on_c, 0, 61, 41
1, 17120, Note_on_c, 0, 51, 28
1, 17120, Note_on_c, 0, 43, 18
1, 17280, Tempo, 1381852
1, 17280, Note_on_c, 0, 43, 0
1, 17280, Note_on_c, 0, 58, 0
1, 17280, Note_on_c, 0, 61, 0
1, 17280, Note_on_c, 0, 51, 0
1, 17280, Note_on_c, 0, 58, 41
1, 17280, Note_on_c, 0, 60, 49
1, 17280, Note_on_c, 0, 43, 31
1, 17280, Note_on_c, 0, 51, 37
1, 17280, Control_c, 0, 64, 0
1, 17333, Control_c, 0, 64, 127
1, 17600, Tempo, 1381852
1, 17760, Tempo, 1431298
1, 17760, Note_on_c, 0, 43, 0
1, 17760, Note_on_c, 0, 58, 0
1, 17760, Note_on_c, 0, 56, 41
1, 17760, Note_on_c, 0, 44, 34
1, 17777, Control_c, 0, 64, 0
1, 17834, Control_c, 0, 64, 127
1, 18080, Tempo, 1541624
1, 18720, Note_on_c, 0, 56, 0
1, 18720, Note_on_c, 0, 54, 33
1, 19104, Tempo, 1561687
1, 19162, Tempo, 1582278
1, 19200, Tempo, 1001335
1, 19200, Note_on_c, 0, 54, 0
1, 19200, Note_on_c, 0, 44, 0
1, 19200, Note_on_c, 0, 60, 0
1, 19200, Note_on_c, 0, 51, 0
1, 19200, Note_on_c, 0, 53, 32
1, 19200, Note_on_c, 0, 58, 32
1, 19200, Note_on_c, 0, 61, 41
1, 19200, Note_on_c, 0, 34, 27
1, 19200, Control_c, 0, 64, 0
1, 19274, Control_c, 0, 64, 127
1, 19440, Note_on_c, 0, 65, 32
1, 19520, Note_on_c, 0, 65, 0
1, 19520, Note_on_c, 0, 73, 38
1, 19600, Note_on_c, 0, 73, 0
1, 19680, Tempo, 1001335
1, 19680, Note_on_c, 0, 73, 40
1, 19920, Tempo, 938673
1, 19920, Note_on_c, 0, 73, 0
1, 19920, Note_on_c, 0, 68, 34
1, 20000, Note_on_c, 0, 68, 0
1, 20000, Note_on_c, 0, 73, 37
1, 20040, Tempo, 1054111
1, 20080, Note_on_c, 0, 73, 0
1, 20160, Tempo, 1009761
1, 20160, Note_on_c, 0, 73, 40
1, 20400, Tempo, 938673
1, 20400, Note_on_c, 0, 73, 0
1, 20400, Note_on_c, 0, 68, 32
1, 20480, Note_on_c, 0, 68, 0
1, 20480, Note_on_c, 0, 73, 38
1, 20520, Tempo, 1044932
1, 20560, Note_on_c, 0, 73, 0
1, 20640, Tempo, 1009761
1, 20640, Note_on_c, 0, 34, 0
1, 20640, Note_on_c, 0, 53, 0
1, 20640, Note_on_c, 0, 58, 0
1, 20640, Note_on_c, 0, 61, 0
1, 20640, Note_on_c, 0, 73, 40
1, 20880, Tempo, 946074
1, 20880, Note_on_c, 0, 73, 0
1, 20880, Note_on_c, 0, 68, 34
1, 20960, Note_on_c, 0, 68, 0
1, 20960, Note_on_c, 0, 65, 27
1, 20960, Note_on_c, 0, 70, 27
1, 20960, Note_on_c, 0, 73, 40
1, 20960, Note_on_c, 0, 61, 25
1, 20960, Note_on_c, 0, 58, 25
1, 21000, Tempo, 1072961
1, 21040, Note_on_c, 0, 58, 0
1, 21040, Note_on_c, 0, 73, 0
1, 21040, Note_on_c, 0, 65, 0
1, 21040, Note_on_c, 0, 70, 0
1, 21040, Note_on_c, 0, 61, 0
1, 21120, Tempo, 1018330
1, 21120, Note_on_c, 0, 65, 22
1, 21120, Note_on_c, 0, 70, 22
1, 21120, Note_on_c, 0, 73, 40
1, 21120, Note_on_c, 0, 58, 25
1, 21120, Note_on_c, 0, 61, 21
1, 21127, Control_c, 0, 64, 0
1, 21198, Control_c, 0, 64, 127
1, 21360, Tempo, 946074
1, 21360, Note_on_c, 0, 58, 0
1, 21360, Note_on_c, 0, 73, 0
1, 21360, Note_on_c, 0, 75, 31
1, 21360, Note_on_c, 0, 56, 21
1, 21440, Note_on_c, 0, 56, 0
1, 21440, Note_on_c, 0, 65, 0
1, 21440, Note_on_c, 0, 61, 0
1, 21440, Note_on_c, 0, 70, 0
1, 21440, Note_on_c, 0, 75, 0
1, 21440, Note_on_c, 0, 65, 21
1, 21440, Note_on_c, 0, 70, 21
1, 21440, Note_on_c, 0, 73, 38
1, 21440, Note_on_c, 0, 58, 25
1, 21440, Note_on_c, 0, 61, 21
1, 21480, Tempo, 1082642
1, 21520, Note_on_c, 0, 61, 0
1, 21520, Note_on_c, 0, 73, 0
1, 21520, Note_on_c, 0, 65, 0
1, 21520, Note_on_c, 0, 70, 0
1, 21520, Note_on_c, 0, 58, 0
1, 21600, Tempo, 1009761
1, 21600, Note_on_c, 0, 65, 22
1, 21600, Note_on_c, 0, 70, 22
1, 21600, Note_on_c, 0, 73, 40
1, 21600, Note_on_c, 0, 58, 27
1, 21600, Note_on_c, 0, 61, 21
1, 22090, Control_c, 0, 64, 0
1, 22154, Control_c, 0, 64, 127
1, 22320, Tempo, 946074
1, 22320, Note_on_c, 0, 58, 0
1, 22320, Note_on_c, 0, 73, 0
1, 22320, Note_on_c, 0, 75, 31
1, 22320, Note_on_c, 0, 54, 21
1, 22400, Note_on_c, 0, 54, 0
1, 22400, Note_on_c, 0, 65, 0
1, 22400, Note_on_c, 0, 61, 0
1, 22400, Note_on_c, 0, 70, 0
1, 22400, Note_on_c, 0, 75, 0
1, 22400, Note_on_c, 0, 65, 21
1, 22400, Note_on_c, 0, 70, 21
1, 22400, Note_on_c, 0, 73, 38
1, 22400, Note_on_c, 0, 58, 21
1, 22400, Note_on_c, 0, 56, 25
1, 22400, Note_on_c, 0, 61, 21
1, 22440, Tempo, 1063453
1, 22480, Note_on_c, 0, 61, 0
1, 22480, Note_on_c, 0, 70, 0
1, 22480, Note_on_c, 0, 73, 0
1, 22480, Note_on_c, 0, 65, 0
1, 22480, Note_on_c, 0, 56, 0
1, 22480, Note_on_c, 0, 58, 0
1, 22560, Tempo, 1018330
1, 22560, Note_on_c, 0, 65, 22
1, 22560, Note_on_c, 0, 70, 22
1, 22560, Note_on_c, 0, 73, 40
1, 22560, Note_on_c, 0, 58, 21
1, 22560, Note_on_c, 0, 56, 25
1, 22560, Note_on_c, 0, 61, 21
1, 22567, Control_c, 0, 64, 0
1, 22624, Control_c, 0, 64, 127
1, 22800, Tempo, 946074
1, 22800, Note_on_c, 0, 56, 0
1, 22800, Note_on_c, 0, 73, 0
1, 22800, Note_on_c, 0, 75, 31
1, 22800, Note_on_c, 0, 53, 21
1, 22880, Note_on_c, 0, 53, 0
1, 22880, Note_on_c, 0, 61, 0
1, 22880, Note_on_c, 0, 70, 0
1, 22880, Note_on_c, 0, 65, 0
1, 22880, Note_on_c, 0, 75, 0
1, 22880, Note_on_c, 0, 58, 0
1, 22880, Note_on_c, 0, 66, 21
1, 22880, Note_on_c, 0, 70, 21
1, 22880, Note_on_c, 0, 72, 38
1, 22880, Note_on_c, 0, 58, 21
1, 22880, Note_on_c, 0, 54, 25
1, 22880, Note_on_c, 0, 63, 21
1, 22920, Tempo, 1082642
1, 22960, Note_on_c, 0, 63, 0
1, 22960, Note_on_c, 0, 70, 0
1, 22960, Note_on_c, 0, 72, 0
1, 22960, Note_on_c, 0, 66, 0
1, 22960, Note_on_c, 0, 54, 0
1, 22960, Note_on_c, 0, 58, 0
1, 23040, Tempo, 968992
1, 23040, Note_on_c, 0, 66, 22
1, 23040, Note_on_c, 0, 70, 22
1, 23040, Note_on_c, 0, 72, 40
1, 23040, Note_on_c, 0, 54, 25
1, 23040, Note_on_c, 0, 58, 21
1, 23040, Note_on_c, 0, 63, 21
1, 23047, Control_c, 0, 64, 0
1, 23118, Control_c, 0, 64, 127
1, 23280, Tempo, 910194
1, 23280, Note_on_c, 0, 63, 0
1, 23280, Note_on_c, 0, 54, 0
1, 23280, Note_on_c, 0, 72, 0
1, 23280, Note_on_c, 0, 58, 0
1, 23280, Note_on_c, 0, 82, 43
1, 23280, Note_on_c, 0, 49, 21
1, 23360, Note_on_c, 0, 82, 0
1, 23360, Note_on_c, 0, 70, 0
1, 23360, Note_on_c, 0, 66, 0
1, 23360, Note_on_c, 0, 70, 38
1, 23360, Note_on_c, 0, 53, 25
1, 23360, Note_on_c, 0, 58, 21
1, 23360, Note_on_c, 0, 65, 21
1, 23400, Tempo, 1044932
1, 23440, Note_on_c, 0, 65, 0
1, 23440, Note_on_c, 0, 53, 0
1, 23440, Note_on_c, 0, 49, 0
1, 23440, Note_on_c, 0, 70, 0
1, 23440, Note_on_c, 0, 58, 0
1, 23520, Tempo, 976880
1, 23520, Note_on_c, 0, 70, 22
1, 23520, Note_on_c, 0, 72, 40
1, 23520, Note_on_c, 0, 54, 25
1, 23520, Note_on_c, 0, 58, 21
1, 23520, Note_on_c, 0, 63, 21
1, 23527, Control_c, 0, 64, 0
1, 23598, Control_c, 0, 64, 127
1, 23760, Tempo, 910194
1, 23760, Note_on_c, 0, 63, 0
1, 23760, Note_on_c, 0, 54, 0
1, 23760, Note_on_c, 0, 58, 0
1, 23760, Note_on_c, 0, 72, 0
1, 23760, Note_on_c, 0, 75, 43
1, 23760, Note_on_c, 0, 56, 21
1, 23840, Note_on_c, 0, 75, 0
1, 23840, Note_on_c, 0, 70, 0
1, 23840, Note_on_c, 0, 70, 21
1, 23840, Note_on_c, 0, 73, 38
1, 23840, Note_on_c, 0, 58, 25
1, 23840, Note_on_c, 0, 61, 21
1, 23840, Note_on_c, 0, 65, 21
1, 23880, Tempo, 1018330
1, 23920, Note_on_c, 0, 65, 0
1, 23920, Note_on_c, 0, 70, 0
1, 23920, Note_on_c, 0, 73, 0
1, 23920, Note_on_c, 0, 56, 0
1, 23920, Note_on_c, 0, 61, 0
1, 23920, Note_on_c, 0, 58, 0
1, 24000, Tempo, 961230
1, 24000, Note_on_c, 0, 70, 22
1, 24000, Note_on_c, 0, 72, 40
1, 24000, Note_on_c, 0, 54, 25
1, 24000, Note_on_c, 0, 58, 21
1, 24000, Note_on_c, 0, 63, 21
1, 24007, Control_c, 0, 64, 0
1, 24078, Control_c, 0, 64, 127
1, 24240, Tempo, 883392
1, 24240, Note_on_c, 0, 63, 0
1, 24240, Note_on_c, 0, 54, 0
1, 24240, Note_on_c, 0, 58, 0
1, 24240, Note_on_c, 0, 72, 0
1, 24240, Note_on_c, 0, 82, 43
1, 24240, Note_on_c, 0, 49, 21
1, 24320, Note_on_c, 0, 82, 0
1, 24320, Note_on_c, 0, 70, 0
1, 24320, Note_on_c, 0, 70, 30
1, 24320, Note_on_c, 0, 53, 25
1, 24320, Note_on_c, 0, 58, 21
1, 24320, Note_on_c, 0, 65, 21
1, 24360, Tempo, 984898
1, 24400, Note_on_c, 0, 65, 0
1, 24400, Note_on_c, 0, 53, 0
1, 24400, Note_on_c, 0, 49, 0
1, 24400, Note_on_c, 0, 70, 0
1, 24400, Note_on_c, 0, 58, 0
1, 24480, Tempo, 938673
1, 24480, Note_on_c, 0, 70, 22
1, 24480, Note_on_c, 0, 72, 40
1, 24480, Note_on_c, 0, 54, 25
1, 24480, Note_on_c, 0, 58, 21
1, 24480, Note_on_c, 0, 63, 21
1, 24487, Control_c, 0, 64, 0
1, 24558, Control_c, 0, 64, 127
1, 24720, Tempo, 883392
1, 24720, Note_on_c, 0, 63, 0
1, 24720, Note_on_c, 0, 54, 0
1, 24720, Note_on_c, 0, 58, 0
1, 24720, Note_on_c, 0, 72, 0
1, 24720, Note_on_c, 0, 73, 43
1, 24720, Note_on_c, 0, 55, 21
1, 24800, Note_on_c, 0, 73, 0
1, 24800, Note_on_c, 0, 70, 0
1, 24800, Note_on_c, 0, 68, 21
1, 24800, Note_on_c, 0, 72, 38
1, 24800, Note_on_c, 0, 56, 25
1, 24800, Note_on_c, 0, 60, 21
1, 24800, Note_on_c, 0, 63, 21
1, 24840, Tempo, 993049
1, 24880, Note_on_c, 0, 63, 0
1, 24880, Note_on_c, 0, 68, 0
1, 24880, Note_on_c, 0, 72, 0
1, 24880, Note_on_c, 0, 56, 0
1, 24880, Note_on_c, 0, 60, 0
1, 24960, Tempo, 946074
1, 24960, Note_on_c, 0, 55, 0
1, 24960, Note_on_c, 0, 68, 17
1, 24960, Note_on_c, 0, 70, 40
1, 24960, Note_on_c, 0, 53, 20
1, 24960, Note_on_c, 0, 56, 16
1, 24960, Note_on_c, 0, 61, 16
1, 24967, Control_c, 0, 64, 0
1, 25038, Control_c, 0, 64, 127
1, 25200, Tempo, 896593
1, 25200, Note_on_c, 0, 61, 0
1, 25200, Note_on_c, 0, 53, 0
1, 25200, Note_on_c, 0, 56, 0
1, 25200, Note_on_c, 0, 70, 0
1, 25200, Note_on_c, 0, 80, 43
1, 25200, Note_on_c, 0, 48, 16
1, 25280, Note_on_c, 0, 80, 0
1, 25280, Note_on_c, 0, 68, 0
1, 25280, Note_on_c, 0, 68, 38
1, 25280, Note_on_c, 0, 51, 20
1, 25280, Note_on_c, 0, 56, 16
1, 25280, Note_on_c, 0, 63, 16
1, 25320, Tempo, 1001335
1, 25360, Note_on_c, 0, 63, 0
1, 25360, Note_on_c, 0, 51, 0
1, 25360, Note_on_c, 0, 48, 0
1, 25360, Note_on_c, 0, 68, 0
1, 25360, Note_on_c, 0, 56, 0
1, 25440, Tempo, 931388
1, 25440, Note_on_c, 0, 66, 17
1, 25440, Note_on_c, 0, 70, 40
1, 25440, Note_on_c, 0, 51, 20
1, 25440, Note_on_c, 0, 54, 16
1, 25440, Note_on_c, 0, 61, 16
1, 25447, Control_c, 0, 64, 0
1, 25518, Control_c, 0, 64, 127
1, 25680, Tempo, 883392
1, 25680, Note_on_c, 0, 61, 0
1, 25680, Note_on_c, 0, 51, 0
1, 25680, Note_on_c, 0, 54, 0
1, 25680, Note_on_c, 0, 70, 0
1, 25680, Note_on_c, 0, 72, 43
1, 25680, Note_on_c, 0, 53, 16
1, 25760, Note_on_c, 0, 72, 0
1, 25760, Note_on_c, 0, 66, 0
1, 25760, Note_on_c, 0, 66, 16
1, 25760, Note_on_c, 0, 70, 38
1, 25760, Note_on_c, 0, 54, 16
1, 25760, Note_on_c, 0, 61, 16
1, 25800, Tempo, 1018330
1, 25840, Note_on_c, 0, 61, 0
1, 25840, Note_on_c, 0, 70, 0
1, 25840, Note_on_c, 0, 53, 0
1, 25840, Note_on_c, 0, 66, 0
1, 25840, Note_on_c, 0, 54, 0
1, 25920, Tempo, 953592
1, 25920, Note_on_c, 0, 66, 17
1, 25920, Note_on_c, 0, 68, 40
1, 25920, Note_on_c, 0, 51, 20
1, 25920, Note_on_c, 0, 54, 16
1, 25920, Note_on_c, 0, 60, 16
1, 25927, Control_c, 0, 64, 0
1, 25998, Control_c, 0, 64, 127
1, 26160, Tempo, 910194
1, 26160, Note_on_c, 0, 60, 0
1, 26160, Note_on_c, 0, 51, 0
1, 26160, Note_on_c, 0, 54, 0
1, 26160, Note_on_c, 0, 68, 0
1, 26160, Note_on_c, 0, 78, 43
1, 26160, Note_on_c, 0, 46, 16
1, 26240, Note_on_c, 0, 78, 0
1, 26240, Note_on_c, 0, 66, 0
1, 26240, Note_on_c, 0, 66, 38
1, 26240, Note_on_c, 0, 49, 20
1, 26240, Note_on_c, 0, 54, 16
1, 26240, Note_on_c, 0, 61, 16
1, 26280, Tempo, 1009761
1, 26320, Note_on_c, 0, 61, 0
1, 26320, Note_on_c, 0, 49, 0
1, 26320, Note_on_c, 0, 46, 0
1, 26320, Note_on_c, 0, 66, 0
1, 26320, Note_on_c, 0, 54, 0
1, 26400, Tempo, 961230
1, 26400, Note_on_c, 0, 66, 17
1, 26400, Note_on_c, 0, 68, 40
1, 26400, Note_on_c, 0, 51, 20
1, 26400, Note_on_c, 0, 54, 16
1, 26400, Note_on_c, 0, 60, 16
1, 26407, Control_c, 0, 64, 0
1, 26478, Control_c, 0, 64, 127
1, 26640, Tempo, 883392
1, 26640, Note_on_c, 0, 60, 0
1, 26640, Note_on_c, 0, 51, 0
1, 26640, Note_on_c, 0, 54, 0
1, 26640, Note_on_c, 0, 68, 0
1, 26640, Note_on_c, 0, 77, 43
1, 26640, Note_on_c, 0, 47, 16
1, 26720, Note_on_c, 0, 77, 0
1, 26720, Note_on_c, 0, 66, 0
1, 26720, Note_on_c, 0, 65, 16
1, 26720, Note_on_c, 0, 67, 38
1, 26720, Note_on_c, 0, 53, 20
1, 26720, Note_on_c, 0, 55, 16
1, 26720, Note_on_c, 0, 62, 16
1, 26760, Tempo, 1009761
1, 26800, Note_on_c, 0, 62, 0
1, 26800, Note_on_c, 0, 65, 0
1, 26800, Note_on_c, 0, 67, 0
1, 26800, Note_on_c, 0, 53, 0
1, 26800, Note_on_c, 0, 55, 0
1, 26880, Tempo, 961230
1, 26880, Note_on_c, 0, 62, 22
1, 26880, Note_on_c, 0, 65, 22
1, 26880, Note_on_c, 0, 67, 34
1, 26880, Note_on_c, 0, 55, 21
1, 26887, Control_c, 0, 64, 0
1, 26958, Control_c, 0, 64, 127
1, 27040, Note_on_c, 0, 47, 0
1, 27120, Tempo, 883392
1, 27120, Note_on_c, 0, 46, 21
1, 27200, Note_on_c, 0, 67, 0
1, 27200, Note_on_c, 0, 55, 0
1, 27200, Note_on_c, 0, 62, 0
1, 27200, Note_on_c, 0, 65, 0
1, 27200, Note_on_c, 0, 54, 25
1, 27200, Note_on_c, 0, 63, 25
1, 27200, Note_on_c, 0, 66, 32
1, 27200, Note_on_c, 0, 39, 21
1, 27240, Tempo, 1027046
1, 27280, Note_on_c, 0, 39, 0
1, 27280, Note_on_c, 0, 63, 0
1, 27280, Note_on_c, 0, 46, 0
1, 27280, Note_on_c, 0, 54, 0
1, 27280, Note_on_c, 0, 66, 0
1, 27360, Tempo, 946074
1, 27360, Note_on_c, 0, 54, 22
1, 27360, Note_on_c, 0, 63, 28
1, 27360, Note_on_c, 0, 66, 34
1, 27360, Note_on_c, 0, 39, 25
1, 27367, Control_c, 0, 64, 0
1, 27438, Control_c, 0, 64, 127
1, 27600, Tempo, 876937
1, 27600, Note_on_c, 0, 39, 0
1, 27600, Note_on_c, 0, 54, 0
1, 27600, Note_on_c, 0, 63, 0
1, 27600, Note_on_c, 0, 66, 0
1, 27600, Note_on_c, 0, 75, 43
1, 27600, Note_on_c, 0, 45, 21
1, 27680, Note_on_c, 0, 75, 0
1, 27680, Note_on_c, 0, 63, 21
1, 27680, Note_on_c, 0, 65, 38
1, 27680, Note_on_c, 0, 53, 23
1, 27680, Note_on_c, 0, 51, 25
1, 27680, Note_on_c, 0, 60, 21
1, 27720, Tempo, 1001335
1, 27760, Note_on_c, 0, 60, 0
1, 27760, Note_on_c, 0, 63, 0
1, 27760, Note_on_c, 0, 65, 0
1, 27760, Note_on_c, 0, 53, 0
1, 27760, Note_on_c, 0, 51, 0
1, 27840, Tempo, 953592
1, 27840, Note_on_c, 0, 60, 22
1, 27840, Note_on_c, 0, 63, 22
1, 27840, Note_on_c, 0, 65, 34
1, 27840, Note_on_c, 0, 53, 21
1, 27847, Control_c, 0, 64, 0
1, 27918, Control_c, 0, 64, 127
1, 28000, Note_on_c, 0, 45, 0
1, 28080, Tempo, 883392
1, 28080, Note_on_c, 0, 44, 21
1, 28160, Note_on_c, 0, 65, 0
1, 28160, Note_on_c, 0, 53, 0
1, 28160, Note_on_c, 0, 60, 0
1, 28160, Note_on_c, 0, 63, 0
1, 28160, Note_on_c, 0, 52, 25
1, 28160, Note_on_c, 0, 61, 32
1, 28160, Note_on_c, 0, 64, 32
1, 28160, Note_on_c, 0, 37, 21
1, 28200, Tempo, 993049
1, 28240, Note_on_c, 0, 37, 0
1, 28240, Note_on_c, 0, 61, 0
1, 28240, Note_on_c, 0, 64, 0
1, 28240, Note_on_c, 0, 52, 0
1, 28320, Tempo, 946074
1, 28320, Note_on_c, 0, 52, 22
1, 28320, Note_on_c, 0, 61, 28
1, 28320, Note_on_c, 0, 64, 34
1, 28320, Note_on_c, 0, 37, 25
1, 28327, Control_c, 0, 64, 0
1, 28398, Control_c, 0, 64, 127
1, 28480, Note_on_c, 0, 44, 0
1, 28560, Tempo, 896593
1, 28560, Note_on_c, 0, 64, 0
1, 28560, Note_on_c, 0, 52, 0
1, 28560, Note_on_c, 0, 61, 0
1, 28560, Note_on_c, 0, 37, 0
1, 28560, Note_on_c, 0, 73, 43
1, 28560, Note_on_c, 0, 43, 21
1, 28640, Note_on_c, 0, 73, 0
1, 28640, Note_on_c, 0, 61, 21
1, 28640, Note_on_c, 0, 63, 38
1, 28640, Note_on_c, 0, 51, 24
1, 28640, Note_on_c, 0, 49, 25
1, 28640, Note_on_c, 0, 58, 21
1, 28680, Tempo, 1044932
1, 28720, Note_on_c, 0, 58, 0
1, 28720, Note_on_c, 0, 61, 0
1, 28720, Note_on_c, 0, 63, 0
1, 28720, Note_on_c, 0, 51, 0
1, 28720, Note_on_c, 0, 49, 0
1, 28800, Tempo, 1092498
1, 28800, Note_on_c, 0, 43, 0
1, 28800, Note_on_c, 0, 58, 22
1, 28800, Note_on_c, 0, 61, 22
1, 28800, Note_on_c, 0, 63, 34
1, 28800, Note_on_c, 0, 43, 20
1, 28800, Note_on_c, 0, 51, 21
1, 28849, Control_c, 0, 64, 0
1, 28932, Control_c, 0, 64, 127
1, 29520, Tempo, 984898
1, 29520, Note_on_c, 0, 51, 0
1, 29520, Note_on_c, 0, 63, 0
1, 29520, Note_on_c, 0, 58, 0
1, 29520, Note_on_c, 0, 61, 0
1, 29520, Note_on_c, 0, 43, 0
1, 29520, Note_on_c, 0, 70, 32
1, 29520, Note_on_c, 0, 49, 21
1, 29600, Note_on_c, 0, 49, 0
1, 29600, Note_on_c, 0, 70, 0
1, 29600, Note_on_c, 0, 58, 27
1, 29600, Note_on_c, 0, 62, 27
1, 29600, Note_on_c, 0, 43, 21
1, 29600, Note_on_c, 0, 50, 21
1, 29610, Control_c, 0, 64, 0
1, 29640, Tempo, 1155624
1, 29652, Control_c, 0, 64, 127
1, 29680, Note_on_c, 0, 50, 0
1, 29680, Note_on_c, 0, 58, 0
1, 29680, Note_on_c, 0, 62, 0
1, 29680, Note_on_c, 0, 43, 0
1, 29760, Note_on_c, 0, 58, 24
1, 29760, Note_on_c, 0, 62, 34
1, 29760, Note_on_c, 0, 43, 18
1, 29760, Note_on_c, 0, 50, 21
1, 30720, Time_signature, 2, 2, 24, 8
1, 31040, Tempo, 1035912
1, 31040, Note_on_c, 0, 50, 0
1, 31040, Note_on_c, 0, 58, 0
1, 31040, Note_on_c, 0, 62, 0
1, 31040, Note_on_c, 0, 43, 0
1, 31040, Note_on_c, 0, 58, 27
1, 31040, Note_on_c, 0, 61, 34
1, 31040, Note_on_c, 0, 43, 21
1, 31040, Note_on_c, 0, 51, 32
1, 31040, Note_on_c, 0, 46, 25
1, 31080, Tempo, 1144601
1, 31120, Note_on_c, 0, 46, 0
1, 31120, Note_on_c, 0, 43, 0
1, 31120, Note_on_c, 0, 58, 0
1, 31120, Note_on_c, 0, 61, 0
1, 31120, Note_on_c, 0, 51, 0
1, 31200, Tempo, 1112760
1, 31200, Note_on_c, 0, 58, 22
1, 31200, Note_on_c, 0, 61, 34
1, 31200, Note_on_c, 0, 51, 21
1, 31200, Note_on_c, 0, 43, 25
1, 31200, Note_on_c, 0, 46, 21
1, 31207, Control_c, 0, 64, 0
1, 31278, Control_c, 0, 64, 127
1, 31440, Tempo, 1054111
1, 31440, Note_on_c, 0, 43, 0
1, 31440, Note_on_c, 0, 61, 0
1, 31440, Note_on_c, 0, 60, 30
1, 31440, Note_on_c, 0, 42, 21
1, 31520, Note_on_c, 0, 42, 0
1, 31520, Note_on_c, 0, 58, 0
1, 31520, Note_on_c, 0, 46, 0
1, 31520, Note_on_c, 0, 51, 0
1, 31520, Note_on_c, 0, 60, 0
1, 31520, Note_on_c, 0, 58, 21
1, 31520, Note_on_c, 0, 61, 34
1, 31520, Note_on_c, 0, 52, 21
1, 31520, Note_on_c, 0, 43, 21
1, 31520, Note_on_c, 0, 46, 21
1, 31560, Tempo, 1190004
1, 31600, Note_on_c, 0, 46, 0
1, 31600, Note_on_c, 0, 52, 0
1, 31600, Note_on_c, 0, 58, 0
1, 31600, Note_on_c, 0, 61, 0
1, 31600, Note_on_c, 0, 43, 0
1, 31680, Time_signature, 4, 2, 24, 8
1, 31680, Tempo, 1448576
1, 31680, Note_on_c, 0, 56, 33
1, 31680, Note_on_c, 0, 65, 50
1, 31680, Note_on_c, 0, 44, 26
1, 31680, Note_on_c, 0, 53, 31
1, 31690, Control_c, 0, 64, 0
1, 31843, Control_c, 0, 64, 127
1, 32040, Note_on_c, 0, 53, 0
1, 32040, Note_on_c, 0, 56, 0
1, 32040, Note_on_c, 0, 65, 0
1, 32040, Note_on_c, 0, 44, 0
1, 32040, Note_on_c, 0, 63, 29
1, 32040, Note_on_c, 0, 60, 29
1, 32040, Note_on_c, 0, 68, 45
1, 32040, Note_on_c, 0, 42, 19
1, 32040, Note_on_c, 0, 51, 19
1, 32040, Note_on_c, 0, 56, 23
1, 32160, Tempo, 1448576
1, 32160, Note_on_c, 0, 56, 0
1, 32160, Note_on_c, 0, 60, 0
1, 32160, Note_on_c, 0, 68, 0
1, 32160, Note_on_c, 0, 63, 0
1, 32160, Note_on_c, 0, 51, 0
1, 32160, Note_on_c, 0, 42, 0
1, 32160, Note_on_c, 0, 68, 36
1, 32160, Note_on_c, 0, 61, 36
1, 32160, Note_on_c, 0, 73, 54
1, 32160, Note_on_c, 0, 41, 28
1, 32160, Note_on_c, 0, 49, 28
1, 32160, Note_on_c, 0, 56, 34
1, 32173, Control_c, 0, 64, 0
1, 32273, Control_c, 0, 64, 127
1, 32400, Tempo, 1278772
1, 32640, Tempo, 1431298
1, 32640, Note_on_c, 0, 46, 36
1, 32640, Note_on_c, 0, 58, 53
1, 32652, Control_c, 0, 64, 0
1, 32760, Control_c, 0, 64, 127
1, 33120, Note_on_c, 0, 58, 0
1, 33120, Note_on_c, 0, 46, 0
1, 33358, Note_on_c, 0, 56, 0
1, 33360, Note_on_c, 0, 61, 0
1, 33360, Note_on_c, 0, 73, 0
1, 33360, Note_on_c, 0, 41, 0
1, 33360, Note_on_c, 0, 49, 0
1, 33360, Note_on_c, 0, 68, 0
1, 33360, Note_on_c, 0, 56, 31
1, 33360, Note_on_c, 0, 60, 31
1, 33360, Note_on_c, 0, 68, 46
1, 33360, Note_on_c, 0, 42, 24
1, 33360, Note_on_c, 0, 44, 24
1, 33360, Note_on_c, 0, 51, 24
1, 33360, Note_on_c, 0, 54, 29
1, 33480, Tempo, 1278772
1, 33598, Note_on_c, 0, 54, 0
1, 33598, Note_on_c, 0, 44, 0
1, 33598, Note_on_c, 0, 60, 0
1, 33598, Note_on_c, 0, 68, 0
1, 33598, Note_on_c, 0, 56, 0
1, 33598, Note_on_c, 0, 51, 0
1, 33598, Note_on_c, 0, 42, 0
1, 33600, Tempo, 1414427
1, 33600, Note_on_c, 0, 58, 33
1, 33600, Note_on_c, 0, 56, 33
1, 33600, Note_on_c, 0, 61, 40
1, 33600, Note_on_c, 0, 49, 26
1, 33600, Note_on_c, 0, 41, 26
1, 33600, Note_on_c, 0, 44, 26
1, 33600, Note_on_c, 0, 53, 31
1, 33600, Control_c, 0, 64, 0
1, 33741, Control_c, 0, 64, 127
1, 33957, Note_on_c, 0, 53, 0
1, 33957, Note_on_c, 0, 41, 0
1, 33957, Note_on_c, 0, 56, 0
1, 33957, Note_on_c, 0, 61, 0
1, 33957, Note_on_c, 0, 58, 0
1, 33957, Note_on_c, 0, 44, 0
1, 33957, Note_on_c, 0, 49, 0
1, 33960, Note_on_c, 0, 60, 29
1, 33960, Note_on_c, 0, 56, 29
1, 33960, Note_on_c, 0, 63, 29
1, 33960, Note_on_c, 0, 68, 45
1, 33960, Note_on_c, 0, 39, 23
1, 33960, Note_on_c, 0, 44, 23
1, 33960, Note_on_c, 0, 54, 23
1, 34080, Note_on_c, 0, 54, 0
1, 34080, Note_on_c, 0, 39, 0
1, 34080, Note_on_c, 0, 56, 0
1, 34080, Note_on_c, 0, 63, 0
1, 34080, Note_on_c, 0, 60, 0
1, 34080, Note_on_c, 0, 44, 0
1, 34080, Note_on_c, 0, 68, 0
1, 34080, Note_on_c, 0, 68, 36
1, 34080, Note_on_c, 0, 61, 36
1, 34080, Note_on_c, 0, 65, 36
1, 34080, Note_on_c, 0, 73, 54
1, 34080, Note_on_c, 0, 37, 28
1, 34080, Note_on_c, 0, 44, 28
1, 34080, Note_on_c, 0, 53, 34
1, 34089, Control_c, 0, 64, 0
1, 34193, Control_c, 0, 64, 127
1, 34320, Tempo, 1306620
1, 34560, Tempo, 1414427
1, 34560, Note_on_c, 0, 46, 36
1, 34560, Note_on_c, 0, 58, 53
1, 34572, Control_c, 0, 64, 0
1, 34694, Control_c, 0, 64, 127
1, 35040, Note_on_c, 0, 58, 0
1, 35040, Note_on_c, 0, 46, 0
1, 35280, Note_on_c, 0, 68, 0
1, 35280, Note_on_c, 0, 37, 0
1, 35280, Note_on_c, 0, 61, 0
1, 35280, Note_on_c, 0, 65, 0
1, 35280, Note_on_c, 0, 53, 0
1, 35280, Note_on_c, 0, 44, 0
1, 35280, Note_on_c, 0, 73, 0
1, 35280, Note_on_c, 0, 56, 31
1, 35280, Note_on_c, 0, 63, 31
1, 35280, Note_on_c, 0, 68, 46
1, 35280, Note_on_c, 0, 36, 24
1, 35280, Note_on_c, 0, 41, 24
1, 35280, Note_on_c, 0, 51, 29
1, 35400, Tempo, 1252087
1, 35520, Tempo, 1414427
1, 35520, Note_on_c, 0, 51, 0
1, 35520, Note_on_c, 0, 63, 0
1, 35520, Note_on_c, 0, 68, 0
1, 35520, Note_on_c, 0, 56, 0
1, 35520, Note_on_c, 0, 41, 0
1, 35520, Note_on_c, 0, 36, 0
1, 35520, Note_on_c, 0, 53, 33
1, 35520, Note_on_c, 0, 58, 33
1, 35520, Note_on_c, 0, 61, 51
1, 35520, Note_on_c, 0, 34, 27
1, 35520, Note_on_c, 0, 49, 32
1, 35520, Control_c, 0, 64, 0
1, 35580, Control_c, 0, 64, 127
1, 35880, Tempo, 1822600
1, 35880, Note_on_c, 0, 49, 0
1, 35880, Note_on_c, 0, 61, 0
1, 35880, Note_on_c, 0, 53, 0
1, 35880, Note_on_c, 0, 58, 0
1, 35880, Note_on_c, 0, 34, 0
1, 35880, Note_on_c, 0, 60, 41
1, 35880, Note_on_c, 0, 53, 32
1, 35880, Note_on_c, 0, 65, 49
1, 35880, Note_on_c, 0, 32, 25
1, 35880, Note_on_c, 0, 44, 25
1, 35940, Note_on_c, 0, 53, 0
1, 35940, Note_on_c, 0, 60, 0
1, 35940, Note_on_c, 0, 58, 37
1, 35940, Note_on_c, 0, 52, 37
1, 35940, Note_on_c, 0, 61, 37
1, 35958, Control_c, 0, 64, 0
1, 35993, Control_c, 0, 64, 127
1, 36000, Tempo, 1397950
1, 36000, Note_on_c, 0, 32, 0
1, 36000, Note_on_c, 0, 44, 0
1, 36000, Note_on_c, 0, 65, 0
1, 36000, Note_on_c, 0, 70, 56
1, 36000, Note_on_c, 0, 31, 29
1, 36000, Note_on_c, 0, 43, 35
1, 36240, Tempo, 1306620
1, 36480, Tempo, 1503006
1, 36480, Note_on_c, 0, 43, 0
1, 36480, Note_on_c, 0, 52, 0
1, 36480, Note_on_c, 0, 61, 0
1, 36480, Note_on_c, 0, 58, 0
1, 36480, Note_on_c, 0, 31, 0
1, 36480, Note_on_c, 0, 53, 24
1, 36480, Note_on_c, 0, 58, 24
1, 36480, Note_on_c, 0, 62, 28
1, 36480, Note_on_c, 0, 30, 20
1, 36480, Note_on_c, 0, 42, 24
1, 36489, Control_c, 0, 64, 0
1, 36491, Tempo, 1522070
1, 36548, Tempo, 1541624
1, 36554, Control_c, 0, 64, 127
1, 36587, Tempo, 1561687
1, 36640, Note_on_c, 0, 42, 0
1, 36640, Note_on_c, 0, 30, 0
1, 36640, Note_on_c, 0, 29, 19
1, 36640, Note_on_c, 0, 41, 24
1, 36644, Tempo, 1582278
1, 36683, Tempo, 1603421
1, 36720, Note_on_c, 0, 53, 0
1, 36720, Note_on_c, 0, 62, 0
1, 36720, Note_on_c, 0, 54, 23
1, 36720, Note_on_c, 0, 63, 34
1, 36721, Tempo, 1625135
1, 36779, Tempo, 1647446
1, 36800, Note_on_c, 0, 29, 0
1, 36800, Note_on_c, 0, 41, 0
1, 36800, Note_on_c, 0, 27, 19
1, 36800, Note_on_c, 0, 39, 23
1, 36817, Tempo, 1670379
1, 36875, Tempo, 1693958
1, 36913, Tempo, 1718213
1, 36952, Tempo, 1743173
1, 36960, Note_on_c, 0, 39, 0
1, 36960, Note_on_c, 0, 58, 0
1, 36960, Note_on_c, 0, 54, 0
1, 36960, Note_on_c, 0, 27, 0
1, 36960, Note_on_c, 0, 68, 33
1, 36960, Note_on_c, 0, 54, 26
1, 36960, Note_on_c, 0, 61, 26
1, 36960, Note_on_c, 0, 32, 16
1, 36960, Note_on_c, 0, 44, 20
1, 36974, Control_c, 0, 64, 0
1, 37049, Control_c, 0, 64, 127
1, 37200, Note_on_c, 0, 61, 0
1, 37200, Note_on_c, 0, 70, 0
1, 37200, Note_on_c, 0, 60, 25
1, 37421, Tempo, 1001335
1, 37440, Key_signature, 3, "major"
1, 37440, Marker_t, "Meno mosso"
1, 37440, Note_on_c, 0, 60, 0
1, 37440, Note_on_c, 0, 44, 0
1, 37440, Note_on_c, 0, 54, 0
1, 37440, Note_on_c, 0, 63, 0
1, 37440, Note_on_c, 0, 68, 0
1, 37440, Note_on_c, 0, 32, 0
1, 37440, Note_on_c, 0, 40, 24
1, 37440, Control_c, 0, 64, 0
1, 37504, Control_c, 0, 64, 127
1, 37520, Note_on_c, 0, 49, 20
1, 37555, Tempo, 993049
1, 37600, Note_on_c, 0, 49, 0
1, 37600, Note_on_c, 0, 33, 20
1, 37680, Note_on_c, 0, 33, 0
1, 37680, Note_on_c, 0, 49, 18
1, 37690, Tempo, 984898
1, 37760, Note_on_c, 0, 49, 0
1, 37760, Note_on_c, 0, 33, 20
1, 37824, Tempo, 976880
1, 37840, Note_on_c, 0, 33, 0
1, 37840, Note_on_c, 0, 49, 18
1, 37920, Note_on_c, 0, 49, 0
1, 37920, Note_on_c, 0, 40, 0
1, 37920, Note_on_c, 0, 61, 40
1, 37920, Note_on_c, 0, 40, 24
1, 37959, Tempo, 968992
1, 38000, Note_on_c, 0, 49, 20
1, 38080, Note_on_c, 0, 49, 0
1, 38080, Note_on_c, 0, 33, 20
1, 38093, Tempo, 961230
1, 38160, Note_on_c, 0, 33, 0
1, 38160, Note_on_c, 0, 49, 18
1, 38227, Tempo, 953592
1, 38240, Note_on_c, 0, 49, 0
1, 38240, Note_on_c, 0, 33, 20
1, 38280, Tempo, 1112760
1, 38320, Note_on_c, 0, 33, 0
1, 38320, Note_on_c, 0, 49, 18
1, 38381, Tempo, 993049
1, 38400, Note_on_c, 0, 49, 0
1, 38400, Note_on_c, 0, 40, 0
1, 38400, Note_on_c, 0, 61, 0
1, 38400, Note_on_c, 0, 76, 47
1, 38400, Note_on_c, 0, 40, 24
1, 38477, Tempo, 984898
1, 38480, Note_on_c, 0, 49, 21
1, 38560, Note_on_c, 0, 49, 0
1, 38560, Note_on_c, 0, 33, 21
1, 38573, Tempo, 976880
1, 38640, Note_on_c, 0, 33, 0
1, 38640, Note_on_c, 0, 49, 22
1, 38650, Tempo, 968992
1, 38720, Note_on_c, 0, 49, 0
1, 38720, Note_on_c, 0, 33, 23
1, 38746, Tempo, 961230
1, 38800, Note_on_c, 0, 33, 0
1, 38800, Note_on_c, 0, 49, 24
1, 38823, Tempo, 953592
1, 38861, Tempo, 961230
1, 38880, Note_on_c, 0, 49, 0
1, 38880, Note_on_c, 0, 40, 0
1, 38880, Note_on_c, 0, 40, 29
1, 38960, Note_on_c, 0, 49, 25
1, 39015, Tempo, 968992
1, 39040, Note_on_c, 0, 49, 0
1, 39040, Note_on_c, 0, 33, 24
1, 39120, Note_on_c, 0, 33, 0
1, 39120, Note_on_c, 0, 49, 24
1, 39168, Tempo, 976880
1, 39200, Note_on_c, 0, 49, 0
1, 39200, Note_on_c, 0, 33, 23
1, 39280, Note_on_c, 0, 33, 0
1, 39280, Note_on_c, 0, 49, 22
1, 39303, Tempo, 984898
1, 39360, Note_on_c, 0, 49, 0
1, 39360, Note_on_c, 0, 40, 0
1, 39360, Note_on_c, 0, 40, 28
1, 39374, Control_c, 0, 64, 0
1, 39413, Control_c, 0, 64, 127
1, 39440, Note_on_c, 0, 49, 20
1, 39520, Note_on_c, 0, 49, 0
1, 39520, Note_on_c, 0, 33, 20
1, 39600, Note_on_c, 0, 33, 0
1, 39600, Note_on_c, 0, 49, 18
1, 39680, Note_on_c, 0, 49, 0
1, 39680, Note_on_c, 0, 76, 0
1, 39680, Note_on_c, 0, 75, 43
1, 39680, Note_on_c, 0, 33, 20
1, 39760, Note_on_c, 0, 33, 0
1, 39760, Note_on_c, 0, 49, 18
1, 39840, Note_on_c, 0, 49, 0
1, 39840, Note_on_c, 0, 40, 0
1, 39840, Note_on_c, 0, 40, 24
1, 39920, Note_on_c, 0, 49, 20
1, 40000, Note_on_c, 0, 49, 0
1, 40000, Note_on_c, 0, 75, 0
1, 40000, Note_on_c, 0, 74, 41
1, 40000, Note_on_c, 0, 33, 20
1, 40080, Note_on_c, 0, 33, 0
1, 40080, Note_on_c, 0, 49, 18
1, 40160, Note_on_c, 0, 49, 0
1, 40160, Note_on_c, 0, 33, 20
1, 40240, Note_on_c, 0, 33, 0
1, 40240, Note_on_c, 0, 49, 18
1, 40320, Tempo, 993049
1, 40320, Note_on_c, 0, 49, 0
1, 40320, Note_on_c, 0, 74, 0
1, 40320, Note_on_c, 0, 40, 0
1, 40320, Note_on_c, 0, 73, 39
1, 40320, Note_on_c, 0, 40, 27
1, 40331, Control_c, 0, 64, 0
1, 40359, Tempo, 984898
1, 40384, Control_c, 0, 64, 127
1, 40397, Tempo, 976880
1, 40400, Note_on_c, 0, 49, 22
1, 40416, Tempo, 968992
1, 40455, Tempo, 961230
1, 40474, Tempo, 953592
1, 40480, Note_on_c, 0, 49, 0
1, 40480, Note_on_c, 0, 33, 23
1, 40512, Tempo, 946074
1, 40531, Tempo, 931388
1, 40560, Note_on_c, 0, 33, 0
1, 40560, Note_on_c, 0, 49, 24
1, 40570, Tempo, 938673
1, 40608, Tempo, 946074
1, 40640, Note_on_c, 0, 49, 0
1, 40640, Note_on_c, 0, 73, 0
1, 40640, Note_on_c, 0, 64, 40
1, 40640, Note_on_c, 0, 33, 25
1, 40647, Tempo, 953592
1, 40685, Tempo, 961230
1, 40720, Note_on_c, 0, 33, 0
1, 40720, Note_on_c, 0, 49, 26
1, 40723, Tempo, 968992
1, 40781, Tempo, 1018330
1, 40800, Note_on_c, 0, 49, 0
1, 40800, Note_on_c, 0, 40, 0
1, 40800, Note_on_c, 0, 41, 39
1, 40807, Control_c, 0, 64, 0
1, 40867, Control_c, 0, 64, 127
1, 40880, Note_on_c, 0, 49, 24
1, 40960, Note_on_c, 0, 49, 0
1, 40960, Note_on_c, 0, 64, 0
1, 40960, Note_on_c, 0, 63, 35
1, 40960, Note_on_c, 0, 33, 24
1, 41040, Note_on_c, 0, 33, 0
1, 41040, Note_on_c, 0, 49, 24
1, 41120, Note_on_c, 0, 49, 0
1, 41120, Note_on_c, 0, 63, 0
1, 41120, Note_on_c, 0, 62, 35
1, 41120, Note_on_c, 0, 33, 24
1, 41200, Note_on_c, 0, 33, 0
1, 41200, Note_on_c, 0, 49, 21
1, 41280, Tempo, 1001335
1, 41280, Note_on_c, 0, 49, 0
1, 41280, Note_on_c, 0, 62, 0
1, 41280, Note_on_c, 0, 41, 0
1, 41280, Note_on_c, 0, 61, 40
1, 41280, Note_on_c, 0, 40, 24
1, 41280, Control_c, 0, 64, 0
1, 41337, Control_c, 0, 64, 127
1, 41360, Note_on_c, 0, 49, 20
1, 41440, Note_on_c, 0, 49, 0
1, 41440, Note_on_c, 0, 33, 20
1, 41520, Tempo, 1054111
1, 41520, Note_on_c, 0, 33, 0
1, 41520, Note_on_c, 0, 49, 18
1, 41598, Note_on_c, 0, 49, 0
1, 41600, Note_on_c, 0, 61, 0
1, 41600, Note_on_c, 0, 49, 46
1, 41600, Note_on_c, 0, 33, 20
1, 41678, Note_on_c, 0, 49, 0
1, 41680, Note_on_c, 0, 33, 0
1, 41680, Note_on_c, 0, 49, 18
1, 41760, Tempo, 1001335
1, 41760, Note_on_c, 0, 49, 0
1, 41760, Note_on_c, 0, 40, 0
1, 41760, Note_on_c, 0, 80, 58
1, 41760, Note_on_c, 0, 39, 28
1, 41779, Tempo, 993049
1, 41818, Tempo, 984898
1, 41840, Note_on_c, 0, 49, 23
1, 41856, Tempo, 976880
1, 41895, Tempo, 968992
1, 41914, Tempo, 961230
1, 41920, Note_on_c, 0, 49, 0
1, 41920, Note_on_c, 0, 33, 23
1, 42000, Note_on_c, 0, 33, 0
1, 42000, Note_on_c, 0, 49, 23
1, 42029, Tempo, 953592
1, 42048, Tempo, 961230
1, 42067, Tempo, 976880
1, 42080, Note_on_c, 0, 49, 0
1, 42080, Note_on_c, 0, 56, 44
1, 42080, Note_on_c, 0, 33, 23
1, 42087, Tempo, 993049
1, 42106, Tempo, 1009761
1, 42125, Tempo, 1027046
1, 42144, Tempo, 1044932
1, 42160, Note_on_c, 0, 33, 0
1, 42160, Note_on_c, 0, 49, 20
1, 42163, Tempo, 1063453
1, 42240, Tempo, 993049
1, 42240, Note_on_c, 0, 49, 0
1, 42240, Note_on_c, 0, 56, 0
1, 42240, Note_on_c, 0, 39, 0
1, 42240, Note_on_c, 0, 61, 54
1, 42240, Note_on_c, 0, 40, 28
1, 42259, Tempo, 1001335
1, 42276, Control_c, 0, 64, 0
1, 42320, Note_on_c, 0, 49, 23
1, 42328, Control_c, 0, 64, 127
1, 42336, Tempo, 993049
1, 42394, Tempo, 984898
1, 42400, Note_on_c, 0, 49, 0
1, 42400, Note_on_c, 0, 33, 24
1, 42451, Tempo, 976880
1, 42480, Note_on_c, 0, 33, 0
1, 42480, Note_on_c, 0, 49, 25
1, 42509, Tempo, 968992
1, 42560, Note_on_c, 0, 49, 0
1, 42560, Note_on_c, 0, 80, 0
1, 42560, Note_on_c, 0, 76, 45
1, 42560, Note_on_c, 0, 33, 27
1, 42567, Tempo, 961230
1, 42624, Tempo, 953592
1, 42640, Note_on_c, 0, 33, 0
1, 42640, Note_on_c, 0, 49, 28
1, 42720, Tempo, 984898
1, 42720, Note_on_c, 0, 49, 0
1, 42720, Note_on_c, 0, 40, 0
1, 42720, Note_on_c, 0, 41, 33
1, 42739, Tempo, 946074
1, 42800, Note_on_c, 0, 49, 25
1, 42816, Tempo, 953592
1, 42874, Tempo, 961230
1, 42880, Note_on_c, 0, 49, 0
1, 42880, Note_on_c, 0, 76, 0
1, 42880, Note_on_c, 0, 75, 40
1, 42880, Note_on_c, 0, 33, 25
1, 42951, Tempo, 968992
1, 42960, Note_on_c, 0, 33, 0
1, 42960, Note_on_c, 0, 49, 25
1, 43008, Tempo, 976880
1, 43040, Note_on_c, 0, 49, 0
1, 43040, Note_on_c, 0, 75, 0
1, 43040, Note_on_c, 0, 74, 40
1, 43040, Note_on_c, 0, 33, 25
1, 43085, Tempo, 984898
1, 43120, Note_on_c, 0, 33, 0
1, 43120, Note_on_c, 0, 49, 22
1, 43143, Tempo, 993049
1, 43162, Tempo, 984898
1, 43200, Note_on_c, 0, 49, 0
1, 43200, Note_on_c, 0, 74, 0
1, 43200, Note_on_c, 0, 41, 0
1, 43200, Note_on_c, 0, 73, 52
1, 43200, Note_on_c, 0, 40, 27
1, 43219, Tempo, 976880
1, 43225, Control_c, 0, 64, 0
1, 43260, Control_c, 0, 64, 127
1, 43277, Tempo, 968992
1, 43280, Note_on_c, 0, 49, 20
1, 43335, Tempo, 961230
1, 43360, Note_on_c, 0, 49, 0
1, 43360, Note_on_c, 0, 33, 20
1, 43392, Tempo, 953592
1, 43431, Tempo, 946074
1, 43440, Note_on_c, 0, 33, 0
1, 43440, Note_on_c, 0, 49, 18
1, 43520, Note_on_c, 0, 49, 0
1, 43520, Note_on_c, 0, 61, 0
1, 43520, Note_on_c, 0, 73, 0
1, 43520, Note_on_c, 0, 64, 54
1, 43520, Note_on_c, 0, 33, 20
1, 43560, Tempo, 1035912
1, 43600, Note_on_c, 0, 33, 0
1, 43600, Note_on_c, 0, 49, 18
1, 43678, Note_on_c, 0, 49, 0
1, 43680, Tempo, 993049
1, 43680, Note_on_c, 0, 40, 0
1, 43680, Note_on_c, 0, 49, 45
1, 43680, Note_on_c, 0, 39, 24
1, 43699, Control_c, 0, 64, 0
1, 43758, Note_on_c, 0, 49, 0
1, 43760, Note_on_c, 0, 49, 20
1, 43776, Control_c, 0, 64, 127
1, 43840, Note_on_c, 0, 49, 0
1, 43840, Note_on_c, 0, 64, 0
1, 43840, Note_on_c, 0, 63, 48
1, 43840, Note_on_c, 0, 33, 20
1, 43920, Note_on_c, 0, 33, 0
1, 43920, Note_on_c, 0, 49, 18
1, 44000, Note_on_c, 0, 49, 0
1, 44000, Note_on_c, 0, 63, 0
1, 44000, Note_on_c, 0, 62, 48
1, 44000, Note_on_c, 0, 33, 20
1, 44080, Note_on_c, 0, 33, 0
1, 44080, Note_on_c, 0, 49, 18
1, 44160, Tempo, 984898
1, 44160, Note_on_c, 0, 49, 0
1, 44160, Note_on_c, 0, 62, 0
1, 44160, Note_on_c, 0, 39, 0
1, 44160, Note_on_c, 0, 61, 52
1, 44160, Note_on_c, 0, 40, 27
1, 44240, Note_on_c, 0, 49, 23
1, 44280, Tempo, 1044932
1, 44315, Note_on_c, 0, 61, 0
1, 44320, Note_on_c, 0, 49, 0
1, 44320, Note_on_c, 0, 55, 47
1, 44320, Note_on_c, 0, 33, 23
1, 44400, Note_on_c, 0, 33, 0
1, 44400, Note_on_c, 0, 49, 23
1, 44480, Note_on_c, 0, 49, 0
1, 44480, Note_on_c, 0, 55, 0
1, 44480, Note_on_c, 0, 61, 49
1, 44480, Note_on_c, 0, 33, 23
1, 44520, Tempo, 924214
1, 44560, Note_on_c, 0, 33, 0
1, 44560, Note_on_c, 0, 49, 21
1, 44621, Tempo, 976880
1, 44640, Note_on_c, 0, 49, 0
1, 44640, Note_on_c, 0, 61, 0
1, 44640, Note_on_c, 0, 40, 0
1, 44640, Note_on_c, 0, 67, 52
1, 44640, Note_on_c, 0, 39, 27
1, 44720, Note_on_c, 0, 49, 21
1, 44775, Tempo, 968992
1, 44800, Note_on_c, 0, 49, 0
1, 44800, Note_on_c, 0, 85, 65
1, 44800, Note_on_c, 0, 33, 21
1, 44880, Note_on_c, 0, 33, 0
1, 44880, Note_on_c, 0, 49, 21
1, 44928, Tempo, 961230
1, 44960, Note_on_c, 0, 49, 0
1, 44960, Note_on_c, 0, 33, 21
1, 45040, Note_on_c, 0, 33, 0
1, 45040, Note_on_c, 0, 49, 18
1, 45063, Tempo, 946074
1, 45120, Note_on_c, 0, 49, 0
1, 45120, Note_on_c, 0, 39, 0
1, 45120, Note_on_c, 0, 40, 31
1, 45134, Control_c, 0, 64, 0
1, 45139, Tempo, 953592
1, 45184, Control_c, 0, 64, 127
1, 45200, Note_on_c, 0, 49, 21
1, 45216, Tempo, 961230
1, 45280, Note_on_c, 0, 49, 0
1, 45280, Note_on_c, 0, 85, 0
1, 45280, Note_on_c, 0, 81, 61
1, 45280, Note_on_c, 0, 33, 21
1, 45293, Tempo, 968992
1, 45351, Tempo, 976880
1, 45360, Note_on_c, 0, 33, 0
1, 45360, Note_on_c, 0, 49, 21
1, 45427, Tempo, 984898
1, 45440, Note_on_c, 0, 49, 0
1, 45440, Note_on_c, 0, 81, 0
1, 45440, Note_on_c, 0, 80, 65
1, 45440, Note_on_c, 0, 33, 21
1, 45504, Tempo, 993049
1, 45520, Note_on_c, 0, 33, 0
1, 45520, Note_on_c, 0, 49, 18
1, 45562, Tempo, 1001335
1, 45598, Note_on_c, 0, 49, 0
1, 45600, Tempo, 968992
1, 45600, Note_on_c, 0, 80, 0
1, 45600, Note_on_c, 0, 40, 0
1, 45600, Note_on_c, 0, 79, 69
1, 45600, Note_on_c, 0, 41, 28
1, 45680, Note_on_c, 0, 49, 20
1, 45760, Note_on_c, 0, 49, 0
1, 45760, Note_on_c, 0, 67, 0
1, 45760, Note_on_c, 0, 61, 52
1, 45760, Note_on_c, 0, 33, 20
1, 45840, Note_on_c, 0, 33, 0
1, 45840, Note_on_c, 0, 49, 20
1, 45920, Note_on_c, 0, 49, 0
1, 45920, Note_on_c, 0, 61, 0
1, 45920, Note_on_c, 0, 79, 0
1, 45920, Note_on_c, 0, 67, 62
1, 45920, Note_on_c, 0, 73, 62
1, 45920, Note_on_c, 0, 33, 20
1, 46000, Note_on_c, 0, 33, 0
1, 46000, Note_on_c, 0, 49, 20
1, 46080, Tempo, 953592
1, 46080, Note_on_c, 0, 49, 0
1, 46080, Note_on_c, 0, 73, 0
1, 46080, Note_on_c, 0, 67, 0
1, 46080, Note_on_c, 0, 41, 0
1, 46080, Note_on_c, 0, 88, 68
1, 46080, Note_on_c, 0, 73, 68
1, 46080, Note_on_c, 0, 40, 28
1, 46096, Control_c, 0, 64, 0
1, 46158, Control_c, 0, 64, 127
1, 46160, Note_on_c, 0, 49, 22
1, 46240, Note_on_c, 0, 49, 0
1, 46240, Note_on_c, 0, 73, 0
1, 46240, Note_on_c, 0, 67, 56
1, 46240, Note_on_c, 0, 33, 22
1, 46320, Note_on_c, 0, 33, 0
1, 46320, Note_on_c, 0, 49, 22
1, 46400, Note_on_c, 0, 49, 0
1, 46400, Note_on_c, 0, 67, 0
1, 46400, Note_on_c, 0, 73, 60
1, 46400, Note_on_c, 0, 33, 22
1, 46480, Note_on_c, 0, 33, 0
1, 46480, Note_on_c, 0, 49, 22
1, 46560, Note_on_c, 0, 49, 0
1, 46560, Note_on_c, 0, 73, 0
1, 46560, Note_on_c, 0, 40, 0
1, 46560, Note_on_c, 0, 79, 59
1, 46560, Note_on_c, 0, 39, 30
1, 46640, Note_on_c, 0, 49, 22
1, 46680, Note_on_c, 0, 88, 0
1, 46680, Note_on_c, 0, 87, 63
1, 46720, Note_on_c, 0, 49, 0
1, 46720, Note_on_c, 0, 33, 22
1, 46733, Tempo, 931388
1, 46771, Tempo, 938673
1, 46791, Tempo, 946074
1, 46800, Note_on_c, 0, 33, 0
1, 46800, Note_on_c, 0, 87, 0
1, 46800, Note_on_c, 0, 86, 67
1, 46800, Note_on_c, 0, 49, 22
1, 46810, Tempo, 953592
1, 46829, Tempo, 961230
1, 46848, Tempo, 968992
1, 46867, Tempo, 976880
1, 46880, Note_on_c, 0, 49, 0
1, 46880, Note_on_c, 0, 33, 22
1, 46887, Tempo, 984898
1, 46906, Tempo, 993049
1, 46920, Note_on_c, 0, 86, 0
1, 46920, Note_on_c, 0, 85, 68
1, 46925, Tempo, 1001335
1, 46944, Tempo, 1009761
1, 46960, Note_on_c, 0, 33, 0
1, 46960, Note_on_c, 0, 49, 22
1, 46963, Tempo, 1018330
1, 47040, Tempo, 968992
1, 47040, Note_on_c, 0, 49, 0
1, 47040, Note_on_c, 0, 85, 0
1, 47040, Note_on_c, 0, 39, 0
1, 47040, Note_on_c, 0, 91, 77
1, 47040, Note_on_c, 0, 40, 32
1, 47052, Control_c, 0, 64, 0
1, 47106, Control_c, 0, 64, 127
1, 47120, Note_on_c, 0, 49, 23
1, 47200, Note_on_c, 0, 49, 0
1, 47200, Note_on_c, 0, 79, 0
1, 47200, Note_on_c, 0, 73, 64
1, 47200, Note_on_c, 0, 33, 23
1, 47280, Note_on_c, 0, 33, 0
1, 47280, Note_on_c, 0, 49, 23
1, 47360, Note_on_c, 0, 49, 0
1, 47360, Note_on_c, 0, 73, 0
1, 47360, Note_on_c, 0, 91, 0
1, 47360, Note_on_c, 0, 91, 70
1, 47360, Note_on_c, 0, 79, 70
1, 47360, Note_on_c, 0, 33, 23
1, 47440, Note_on_c, 0, 33, 0
1, 47440, Note_on_c, 0, 49, 24
1, 47518, Note_on_c, 0, 49, 0
1, 47520, Tempo, 961230
1, 47520, Note_on_c, 0, 79, 0
1, 47520, Note_on_c, 0, 40, 0
1, 47520, Note_on_c, 0, 85, 64
1, 47520, Note_on_c, 0, 41, 31
1, 47600, Note_on_c, 0, 49, 20
1, 47680, Note_on_c, 0, 49, 0
1, 47680, Note_on_c, 0, 33, 22
1, 47760, Note_on_c, 0, 33, 0
1, 47760, Note_on_c, 0, 49, 22
1, 47840, Note_on_c, 0, 49, 0
1, 47840, Note_on_c, 0, 91, 0
1, 47840, Note_on_c, 0, 91, 66
1, 47840, Note_on_c, 0, 33, 22
1, 47920, Note_on_c, 0, 33, 0
1, 47920, Note_on_c, 0, 49, 22
1, 48000, Tempo, 946074
1, 48000, Note_on_c, 0, 49, 0
1, 48000, Note_on_c, 0, 41, 0
1, 48000, Note_on_c, 0, 85, 0
1, 48000, Note_on_c, 0, 73, 64
1, 48000, Note_on_c, 0, 40, 28
1, 48011, Control_c, 0, 64, 0
1, 48057, Control_c, 0, 64, 127
1, 48080, Note_on_c, 0, 49, 24
1, 48160, Note_on_c, 0, 49, 0
1, 48160, Note_on_c, 0, 91, 0
1, 48160, Note_on_c, 0, 91, 64
1, 48160, Note_on_c, 0, 33, 24
1, 48240, Note_on_c, 0, 33, 0
1, 48240, Note_on_c, 0, 49, 24
1, 48320, Note_on_c, 0, 49, 0
1, 48320, Note_on_c, 0, 73, 0
1, 48320, Note_on_c, 0, 79, 64
1, 48320, Note_on_c, 0, 33, 24
1, 48400, Note_on_c, 0, 33, 0
1, 48400, Note_on_c, 0, 49, 24
1, 48440, Tempo, 953592
1, 48480, Note_on_c, 0, 49, 0
1, 48480, Note_on_c, 0, 79, 0
1, 48480, Note_on_c, 0, 91, 0
1, 48480, Note_on_c, 0, 40, 0
1, 48480, Note_on_c, 0, 92, 68
1, 48480, Note_on_c, 0, 85, 68
1, 48480, Note_on_c, 0, 39, 32
1, 48482, Tempo, 1190004
1, 48489, Tempo, 1178319
1, 48495, Tempo, 1166861
1, 48501, Tempo, 1155624
1, 48507, Tempo, 1144601
1, 48513, Tempo, 1123175
1, 48519, Tempo, 1112760
1, 48520, Note_on_c, 0, 92, 0
1, 48520, Note_on_c, 0, 91, 59
1, 48525, Tempo, 1102536
1, 48531, Tempo, 1092498
1, 48537, Tempo, 1082642
1, 48543, Tempo, 1063453
1, 48549, Tempo, 1054111
1, 48555, Tempo, 1044932
1, 48560, Note_on_c, 0, 91, 0
1, 48560, Note_on_c, 0, 49, 24
1, 48561, Note_on_c, 0, 92, 61
1, 48561, Tempo, 1035912
1, 48567, Tempo, 1027046
1, 48574, Tempo, 1009761
1, 48580, Tempo, 1001335
1, 48586, Tempo, 993049
1, 48592, Tempo, 961230
1, 48601, Note_on_c, 0, 92, 0
1, 48601, Note_on_c, 0, 91, 63
1, 48604, Tempo, 953592
1, 48610, Tempo, 946074
1, 48622, Tempo, 938673
1, 48628, Tempo, 931388
1, 48640, Note_on_c, 0, 49, 0
1, 48640, Note_on_c, 0, 33, 24
1, 48641, Note_on_c, 0, 91, 0
1, 48641, Note_on_c, 0, 92, 65
1, 48681, Note_on_c, 0, 92, 0
1, 48681, Note_on_c, 0, 91, 68
1, 48720, Note_on_c, 0, 33, 0
1, 48720, Note_on_c, 0, 49, 24
1, 48721, Note_on_c, 0, 91, 0
1, 48721, Note_on_c, 0, 92, 70
1, 48761, Note_on_c, 0, 92, 0
1, 48762, Note_on_c, 0, 91, 75
1, 48777, Tempo, 931388
1, 48796, Tempo, 938673
1, 48800, Note_on_c, 0, 49, 0
1, 48800, Note_on_c, 0, 33, 24
1, 48802, Note_on_c, 0, 91, 0
1, 48802, Note_on_c, 0, 92, 70
1, 48815, Tempo, 953592
1, 48835, Tempo, 961230
1, 48842, Note_on_c, 0, 92, 0
1, 48842, Note_on_c, 0, 91, 75
1, 48854, Tempo, 976880
1, 48873, Tempo, 984898
1, 48880, Note_on_c, 0, 33, 0
1, 48880, Note_on_c, 0, 49, 24
1, 48882, Note_on_c, 0, 91, 0
1, 48882, Note_on_c, 0, 90, 70
1, 48892, Tempo, 1001335
1, 48911, Tempo, 1009761
1, 48922, Note_on_c, 0, 90, 0
1, 48922, Note_on_c, 0, 91, 75
1, 48931, Tempo, 1027046
1, 48960, Key_signature, -5, "major"
1, 48960, Note_on_c, 0, 49, 0
1, 48960, Note_on_c, 0, 85, 0
1, 48960, Note_on_c, 0, 39, 0
1, 48960, Note_on_c, 0, 92, 94
1, 48960, Note_on_c, 0, 40, 40
1, 48960, Control_c, 0, 64, 0
1, 48962, Note_on_c, 0, 91, 0
1, 49020, Control_c, 0, 64, 127
1, 49040, Note_on_c, 0, 49, 29
1, 49120, Note_on_c, 0, 49, 0
1, 49120, Note_on_c, 0, 34, 29
1, 49200, Tempo, 931388
1, 49200, Note_on_c, 0, 34, 0
1, 49200, Note_on_c, 0, 92, 0
1, 49200, Note_on_c, 0, 56, 74
1, 49200, Note_on_c, 0, 49, 29
1, 49280, Note_on_c, 0, 49, 0
1, 49280, Note_on_c, 0, 34, 29
1, 49360, Note_on_c, 0, 34, 0
1, 49360, Note_on_c, 0, 49, 30
1, 49438, Note_on_c, 0, 49, 0
1, 49440, Tempo, 902256
1, 49440, Note_on_c, 0, 40, 0
1, 49440, Note_on_c, 0, 41, 39
1, 49449, Control_c, 0, 64, 0
1, 49509, Control_c, 0, 64, 127
1, 49520, Note_on_c, 0, 50, 25
1, 49600, Note_on_c, 0, 50, 0
1, 49600, Note_on_c, 0, 35, 28
1, 49660, Note_on_c, 0, 35, 0
1, 49680, Note_on_c, 0, 56, 0
1, 49680, Note_on_c, 0, 62, 58
1, 49680, Note_on_c, 0, 50, 28
1, 49760, Note_on_c, 0, 50, 0
1, 49760, Note_on_c, 0, 56, 59
1, 49760, Note_on_c, 0, 68, 65
1, 49760, Note_on_c, 0, 35, 28
1, 49840, Note_on_c, 0, 35, 0
1, 49840, Note_on_c, 0, 50, 28
1, 49920, Note_on_c, 0, 50, 0
1, 49920, Note_on_c, 0, 41, 0
1, 49920, Note_on_c, 0, 42, 36
1, 49929, Control_c, 0, 64, 0
1, 49983, Control_c, 0, 64, 127
1, 50000, Note_on_c, 0, 51, 30
1, 50080, Note_on_c, 0, 51, 0
1, 50080, Note_on_c, 0, 36, 30
1, 50160, Note_on_c, 0, 36, 0
1, 50160, Note_on_c, 0, 62, 0
1, 50160, Note_on_c, 0, 68, 0
1, 50160, Note_on_c, 0, 56, 0
1, 50160, Note_on_c, 0, 56, 55
1, 50160, Note_on_c, 0, 63, 65
1, 50160, Note_on_c, 0, 68, 65
1, 50160, Note_on_c, 0, 51, 30
1, 50240, Note_on_c, 0, 51, 0
1, 50240, Note_on_c, 0, 36, 30
1, 50320, Note_on_c, 0, 36, 0
1, 50320, Note_on_c, 0, 51, 30
1, 50400, Note_on_c, 0, 51, 0
1, 50400, Note_on_c, 0, 42, 0
1, 50400, Note_on_c, 0, 44, 40
1, 50400, Control_c, 0, 64, 0
1, 50440, Control_c, 0, 64, 127
1, 50480, Note_on_c, 0, 52, 30
1, 50520, Note_on_c, 0, 63, 0
1, 50520, Note_on_c, 0, 64, 64
1, 50560, Note_on_c, 0, 52, 0
1, 50560, Note_on_c, 0, 37, 30
1, 50640, Tempo, 765111
1, 50640, Note_on_c, 0, 37, 0
1, 50640, Note_on_c, 0, 68, 0
1, 50640, Note_on_c, 0, 56, 0
1, 50640, Note_on_c, 0, 66, 62
1, 50640, Note_on_c, 0, 75, 62
1, 50640, Note_on_c, 0, 78, 73
1, 50640, Note_on_c, 0, 52, 30
1, 50720, Note_on_c, 0, 52, 0
1, 50720, Note_on_c, 0, 37, 30
1, 50760, Tempo, 946074
1, 50760, Note_on_c, 0, 75, 0
1, 50760, Note_on_c, 0, 66, 0
1, 50760, Note_on_c, 0, 78, 0
1, 50760, Note_on_c, 0, 67, 68
1, 50760, Note_on_c, 0, 76, 68
1, 50760, Note_on_c, 0, 79, 80
1, 50800, Note_on_c, 0, 37, 0
1, 50800, Note_on_c, 0, 52, 30
1, 50866, Control_c, 0, 64, 0
1, 50880, Tempo, 968992
1, 50880, Note_on_c, 0, 52, 0
1, 50880, Note_on_c, 0, 79, 0
1, 50880, Note_on_c, 0, 67, 0
1, 50880, Note_on_c, 0, 64, 0
1, 50880, Note_on_c, 0, 44, 0
1, 50880, Note_on_c, 0, 76, 0
1, 50880, Note_on_c, 0, 68, 71
1, 50880, Note_on_c, 0, 77, 71
1, 50880, Note_on_c, 0, 80, 84
1, 50880, Note_on_c, 0, 46, 44
1, 50926, Control_c, 0, 64, 127
1, 50960, Note_on_c, 0, 53, 32
1, 51040, Note_on_c, 0, 53, 0
1, 51040, Note_on_c, 0, 38, 32
1, 51060, Note_on_c, 0, 65, 63
1, 51100, Note_on_c, 0, 38, 0
1, 51120, Tempo, 869565
1, 51120, Note_on_c, 0, 77, 0
1, 51120, Note_on_c, 0, 80, 0
1, 51120, Note_on_c, 0, 68, 0
1, 51120, Note_on_c, 0, 65, 0
1, 51120, Note_on_c, 0, 56, 78
1, 51120, Note_on_c, 0, 53, 32
1, 51200, Note_on_c, 0, 53, 0
1, 51200, Note_on_c, 0, 38, 32
1, 51280, Note_on_c, 0, 38, 0
1, 51280, Note_on_c, 0, 53, 34
1, 51358, Note_on_c, 0, 53, 0
1, 51360, Tempo, 851064
1, 51360, Note_on_c, 0, 46, 0
1, 51360, Note_on_c, 0, 47, 44
1, 51371, Control_c, 0, 64, 0
1, 51400, Control_c, 0, 64, 127
1, 51440, Note_on_c, 0, 54, 29
1, 51520, Note_on_c, 0, 54, 0
1, 51520, Note_on_c, 0, 39, 32
1, 51600, Note_on_c, 0, 39, 0
1, 51600, Note_on_c, 0, 56, 0
1, 51600, Note_on_c, 0, 59, 59
1, 51600, Note_on_c, 0, 54, 32
1, 51680, Note_on_c, 0, 54, 0
1, 51680, Note_on_c, 0, 56, 67
1, 51680, Note_on_c, 0, 68, 70
1, 51680, Note_on_c, 0, 39, 33
1, 51760, Note_on_c, 0, 39, 0
1, 51760, Note_on_c, 0, 54, 33
1, 51840, Tempo, 833333
1, 51840, Note_on_c, 0, 54, 0
1, 51840, Note_on_c, 0, 47, 0
1, 51840, Note_on_c, 0, 48, 43
1, 51846, Control_c, 0, 64, 0
1, 51903, Control_c, 0, 64, 127
1, 51920, Note_on_c, 0, 55, 36
1, 52000, Note_on_c, 0, 55, 0
1, 52000, Note_on_c, 0, 40, 36
1, 52080, Note_on_c, 0, 40, 0
1, 52080, Note_on_c, 0, 59, 0
1, 52080, Note_on_c, 0, 68, 0
1, 52080, Note_on_c, 0, 56, 0
1, 52080, Note_on_c, 0, 56, 55
1, 52080, Note_on_c, 0, 60, 65
1, 52080, Note_on_c, 0, 68, 65
1, 52080, Note_on_c, 0, 55, 36
1, 52160, Note_on_c, 0, 55, 0
1, 52160, Note_on_c, 0, 40, 36
1, 52240, Note_on_c, 0, 40, 0
1, 52240, Note_on_c, 0, 55, 37
1, 52320, Tempo, 816327
1, 52320, Note_on_c, 0, 55, 0
1, 52320, Note_on_c, 0, 48, 0
1, 52320, Note_on_c, 0, 49, 50
1, 52329, Control_c, 0, 64, 0
1, 52400, Note_on_c, 0, 56, 37
1, 52409, Control_c, 0, 64, 127
1, 52440, Note_on_c, 0, 60, 0
1, 52440, Note_on_c, 0, 61, 64
1, 52480, Note_on_c, 0, 56, 0
1, 52480, Note_on_c, 0, 41, 37
1, 52560, Tempo, 755477
1, 52560, Note_on_c, 0, 41, 0
1, 52560, Note_on_c, 0, 68, 0
1, 52560, Note_on_c, 0, 56, 0
1, 52560, Note_on_c, 0, 66, 62
1, 52560, Note_on_c, 0, 75, 62
1, 52560, Note_on_c, 0, 78, 73
1, 52560, Note_on_c, 0, 56, 38
1, 52640, Note_on_c, 0, 56, 0
1, 52640, Note_on_c, 0, 41, 38
1, 52680, Tempo, 858124
1, 52680, Note_on_c, 0, 75, 0
1, 52680, Note_on_c, 0, 66, 0
1, 52680, Note_on_c, 0, 78, 0
1, 52680, Note_on_c, 0, 67, 68
1, 52680, Note_on_c, 0, 76, 68
1, 52680, Note_on_c, 0, 79, 80
1, 52720, Note_on_c, 0, 41, 0
1, 52720, Note_on_c, 0, 56, 38
1, 52800, Tempo, 805369
1, 52800, Note_on_c, 0, 56, 0
1, 52800, Note_on_c, 0, 79, 0
1, 52800, Note_on_c, 0, 67, 0
1, 52800, Note_on_c, 0, 61, 0
1, 52800, Note_on_c, 0, 49, 0
1, 52800, Note_on_c, 0, 76, 0
1, 52800, Note_on_c, 0, 68, 84
1, 52800, Note_on_c, 0, 77, 84
1, 52800, Note_on_c, 0, 80, 84
1, 52800, Note_on_c, 0, 49, 48
1, 52800, Note_on_c, 0, 61, 54
1, 52819, Control_c, 0, 64, 0
1, 52850, Control_c, 0, 64, 127
1, 52960, Note_on_c, 0, 61, 0
1, 52960, Note_on_c, 0, 80, 0
1, 52960, Note_on_c, 0, 68, 0
1, 52960, Note_on_c, 0, 77, 0
1, 52960, Note_on_c, 0, 49, 0
1, 52960, Note_on_c, 0, 66, 65
1, 52960, Note_on_c, 0, 73, 77
1, 52960, Note_on_c, 0, 56, 51
1, 53040, Note_on_c, 0, 56, 0
1, 53040, Note_on_c, 0, 73, 0
1, 53040, Note_on_c, 0, 66, 0
1, 53040, Note_on_c, 0, 67, 64
1, 53040, Note_on_c, 0, 77, 67
1, 53040, Note_on_c, 0, 79, 81
1, 53040, Note_on_c, 0, 61, 43
1, 53120, Note_on_c, 0, 61, 0
1, 53120, Note_on_c, 0, 68, 43
1, 53192, Note_on_c, 0, 68, 0
1, 53200, Note_on_c, 0, 68, 43
1, 53272, Note_on_c, 0, 68, 0
1, 53280, Note_on_c, 0, 73, 68
1, 53286, Control_c, 0, 64, 0
1, 53320, Control_c, 0, 64, 127
1, 53360, Note_on_c, 0, 67, 0
1, 53360, Note_on_c, 0, 79, 0
1, 53360, Note_on_c, 0, 77, 0
1, 53360, Note_on_c, 0, 72, 71
1, 53440, Note_on_c, 0, 72, 0
1, 53440, Note_on_c, 0, 73, 0
1, 53440, Note_on_c, 0, 73, 72
1, 53440, Note_on_c, 0, 49, 41
1, 53520, Note_on_c, 0, 49, 0
1, 53520, Note_on_c, 0, 73, 0
1, 53520, Note_on_c, 0, 79, 81
1, 53520, Note_on_c, 0, 77, 72
1, 53520, Note_on_c, 0, 56, 44
1, 53600, Note_on_c, 0, 56, 0
1, 53600, Note_on_c, 0, 77, 0
1, 53600, Note_on_c, 0, 79, 0
1, 53600, Note_on_c, 0, 68, 71
1, 53600, Note_on_c, 0, 49, 40
1, 53680, Note_on_c, 0, 49, 0
1, 53680, Note_on_c, 0, 68, 0
1, 53680, Note_on_c, 0, 80, 71
1, 53680, Note_on_c, 0, 73, 71
1, 53680, Note_on_c, 0, 56, 48
1, 53760, Tempo, 876937
1, 53760, Note_on_c, 0, 56, 0
1, 53760, Note_on_c, 0, 61, 59
1, 53777, Control_c, 0, 64, 0
1, 53812, Control_c, 0, 64, 127
1, 53920, Note_on_c, 0, 61, 0
1, 53920, Note_on_c, 0, 73, 0
1, 53920, Note_on_c, 0, 80, 0
1, 53920, Note_on_c, 0, 66, 80
1, 53920, Note_on_c, 0, 73, 80
1, 53920, Note_on_c, 0, 57, 53
1, 53998, Note_on_c, 0, 73, 0
1, 54000, Tempo, 794702
1, 54000, Note_on_c, 0, 57, 0
1, 54000, Note_on_c, 0, 66, 0
1, 54000, Note_on_c, 0, 68, 67
1, 54000, Note_on_c, 0, 78, 71
1, 54000, Note_on_c, 0, 80, 85
1, 54000, Note_on_c, 0, 49, 45
1, 54080, Note_on_c, 0, 49, 0
1, 54080, Note_on_c, 0, 57, 45
1, 54158, Note_on_c, 0, 68, 0
1, 54160, Note_on_c, 0, 57, 0
1, 54160, Note_on_c, 0, 68, 58
1, 54160, Note_on_c, 0, 49, 46
1, 54240, Note_on_c, 0, 49, 0
1, 54240, Note_on_c, 0, 68, 0
1, 54240, Note_on_c, 0, 42, 57
1, 54240, Note_on_c, 0, 73, 68
1, 54246, Control_c, 0, 64, 0
1, 54277, Control_c, 0, 64, 127
1, 54320, Note_on_c, 0, 80, 0
1, 54320, Note_on_c, 0, 78, 0
1, 54320, Note_on_c, 0, 72, 70
1, 54400, Note_on_c, 0, 72, 0
1, 54400, Note_on_c, 0, 42, 0
1, 54400, Note_on_c, 0, 73, 0
1, 54400, Note_on_c, 0, 73, 75
1, 54400, Note_on_c, 0, 49, 43
1, 54480, Note_on_c, 0, 49, 0
1, 54480, Note_on_c, 0, 73, 0
1, 54480, Note_on_c, 0, 80, 85
1, 54480, Note_on_c, 0, 78, 75
1, 54480, Note_on_c, 0, 57, 46
1, 54560, Note_on_c, 0, 57, 0
1, 54560, Note_on_c, 0, 78, 0
1, 54560, Note_on_c, 0, 80, 0
1, 54560, Note_on_c, 0, 69, 75
1, 54560, Note_on_c, 0, 49, 42
1, 54640, Note_on_c, 0, 49, 0
1, 54640, Note_on_c, 0, 69, 0
1, 54640, Note_on_c, 0, 81, 75
1, 54640, Note_on_c, 0, 73, 75
1, 54640, Note_on_c, 0, 57, 54
1, 54720, Tempo, 845070
1, 54720, Note_on_c, 0, 57, 0
1, 54720, Note_on_c, 0, 61, 62
1, 54725, Control_c, 0, 64, 0
1, 54775, Control_c, 0, 64, 127
1, 54880, Note_on_c, 0, 61, 0
1, 54880, Note_on_c, 0, 73, 0
1, 54880, Note_on_c, 0, 81, 0
1, 54880, Note_on_c, 0, 68, 84
1, 54880, Note_on_c, 0, 73, 84
1, 54880, Note_on_c, 0, 53, 56
1, 54958, Note_on_c, 0, 73, 0
1, 54960, Tempo, 779221
1, 54960, Note_on_c, 0, 53, 0
1, 54960, Note_on_c, 0, 68, 0
1, 54960, Note_on_c, 0, 69, 71
1, 54960, Note_on_c, 0, 77, 74
1, 54960, Note_on_c, 0, 81, 89
1, 54960, Note_on_c, 0, 49, 47
1, 55040, Note_on_c, 0, 49, 0
1, 55040, Note_on_c, 0, 53, 47
1, 55118, Note_on_c, 0, 69, 0
1, 55120, Note_on_c, 0, 53, 0
1, 55120, Note_on_c, 0, 65, 59
1, 55120, Note_on_c, 0, 49, 48
1, 55200, Note_on_c, 0, 49, 0
1, 55200, Note_on_c, 0, 65, 0
1, 55200, Note_on_c, 0, 44, 60
1, 55200, Note_on_c, 0, 73, 69
1, 55208, Control_c, 0, 64, 0
1, 55263, Control_c, 0, 64, 127
1, 55280, Note_on_c, 0, 81, 0
1, 55280, Note_on_c, 0, 77, 0
1, 55280, Note_on_c, 0, 72, 69
1, 55360, Note_on_c, 0, 72, 0
1, 55360, Note_on_c, 0, 44, 0
1, 55360, Note_on_c, 0, 73, 0
1, 55360, Note_on_c, 0, 73, 79
1, 55360, Note_on_c, 0, 53, 45
1, 55440, Note_on_c, 0, 53, 0
1, 55440, Note_on_c, 0, 73, 0
1, 55440, Note_on_c, 0, 81, 89
1, 55440, Note_on_c, 0, 77, 79
1, 55440, Note_on_c, 0, 61, 48
1, 55520, Note_on_c, 0, 61, 0
1, 55520, Note_on_c, 0, 77, 0
1, 55520, Note_on_c, 0, 81, 0
1, 55520, Note_on_c, 0, 70, 78
1, 55520, Note_on_c, 0, 53, 44
1, 55600, Note_on_c, 0, 53, 0
1, 55600, Note_on_c, 0, 70, 0
1, 55600, Note_on_c, 0, 82, 78
1, 55600, Note_on_c, 0, 73, 78
1, 55600, Note_on_c, 0, 61, 61
1, 55680, Tempo, 851064
1, 55680, Note_on_c, 0, 61, 0
1, 55680, Note_on_c, 0, 65, 70
1, 55691, Control_c, 0, 64, 0
1, 55755, Control_c, 0, 64, 127
1, 55840, Note_on_c, 0, 65, 0
1, 55840, Note_on_c, 0, 73, 0
1, 55840, Note_on_c, 0, 82, 0
1, 55840, Note_on_c, 0, 68, 88
1, 55840, Note_on_c, 0, 73, 88
1, 55840, Note_on_c, 0, 61, 58
1, 55918, Note_on_c, 0, 73, 0
1, 55920, Tempo, 779221
1, 55920, Note_on_c, 0, 61, 0
1, 55920, Note_on_c, 0, 68, 0
1, 55920, Note_on_c, 0, 69, 74
1, 55920, Note_on_c, 0, 77, 77
1, 55920, Note_on_c, 0, 81, 93
1, 55920, Note_on_c, 0, 53, 49
1, 56000, Note_on_c, 0, 53, 0
1, 56000, Note_on_c, 0, 61, 49
1, 56078, Note_on_c, 0, 69, 0
1, 56080, Note_on_c, 0, 61, 0
1, 56080, Note_on_c, 0, 65, 66
1, 56080, Note_on_c, 0, 49, 50
1, 56160, Note_on_c, 0, 49, 0
1, 56160, Note_on_c, 0, 65, 0
1, 56160, Note_on_c, 0, 45, 63
1, 56160, Note_on_c, 0, 73, 77
1, 56172, Control_c, 0, 64, 0
1, 56235, Control_c, 0, 64, 127
1, 56240, Note_on_c, 0, 81, 0
1, 56240, Note_on_c, 0, 77, 0
1, 56240, Note_on_c, 0, 72, 76
1, 56320, Note_on_c, 0, 72, 0
1, 56320, Note_on_c, 0, 45, 0
1, 56320, Note_on_c, 0, 73, 0
1, 56320, Note_on_c, 0, 73, 80
1, 56320, Note_on_c, 0, 53, 47
1, 56400, Tempo, 852031
1, 56400, Note_on_c, 0, 53, 0
1, 56400, Note_on_c, 0, 73, 0
1, 56400, Note_on_c, 0, 81, 93
1, 56400, Note_on_c, 0, 77, 82
1, 56400, Note_on_c, 0, 61, 50
1, 56480, Note_on_c, 0, 61, 0
1, 56480, Note_on_c, 0, 77, 0
1, 56480, Note_on_c, 0, 81, 0
1, 56480, Note_on_c, 0, 70, 82
1, 56480, Note_on_c, 0, 53, 46
1, 56520, Tempo, 984898
1, 56560, Note_on_c, 0, 53, 0
1, 56560, Note_on_c, 0, 70, 0
1, 56560, Note_on_c, 0, 82, 82
1, 56560, Note_on_c, 0, 73, 82
1, 56560, Note_on_c, 0, 61, 46
1, 56640, Tempo, 723589
1, 56640, Marker_t, "piu vivo"
1, 56640, Note_on_c, 0, 61, 0
1, 56640, Note_on_c, 0, 73, 0
1, 56640, Note_on_c, 0, 82, 0
1, 56640, Note_on_c, 0, 34, 56
1, 56640, Note_on_c, 0, 46, 66
1, 56640, Control_c, 0, 64, 0
1, 56703, Control_c, 0, 64, 127
1, 56760, Tempo, 1350743
1, 56760, Note_on_c, 0, 46, 0
1, 56760, Note_on_c, 0, 34, 0
1, 56760, Note_on_c, 0, 62, 78
1, 56760, Note_on_c, 0, 68, 78
1, 56760, Note_on_c, 0, 74, 92
1, 56760, Note_on_c, 0, 56, 78
1, 56760, Note_on_c, 0, 53, 65
1, 56877, Tempo, 662983
1, 56880, Note_on_c, 0, 53, 0
1, 56880, Note_on_c, 0, 74, 0
1, 56880, Note_on_c, 0, 62, 0
1, 56880, Note_on_c, 0, 68, 0
1, 56880, Note_on_c, 0, 56, 0
1, 56880, Note_on_c, 0, 82, 60
1, 56922, Tempo, 659341
1, 56949, Control_c, 0, 64, 0
1, 56952, Tempo, 655738
1, 56960, Note_on_c, 0, 75, 40
1, 56982, Tempo, 652174
1, 57012, Tempo, 648649
1, 57014, Control_c, 0, 64, 127
1, 57040, Note_on_c, 0, 75, 0
1, 57040, Note_on_c, 0, 74, 40
1, 57042, Tempo, 645161
1, 57072, Tempo, 641711
1, 57100, Note_on_c, 0, 74, 0
1, 57102, Tempo, 638298
1, 57120, Note_on_c, 0, 66, 48
1, 57147, Tempo, 641711
1, 57177, Tempo, 645161
1, 57200, Note_on_c, 0, 69, 37
1, 57222, Tempo, 648649
1, 57252, Tempo, 652174
1, 57280, Note_on_c, 0, 69, 0
1, 57280, Note_on_c, 0, 75, 37
1, 57297, Tempo, 655738
1, 57327, Tempo, 659341
1, 57357, Tempo, 662983
1, 57360, Tempo, 662983
1, 57360, Note_on_c, 0, 75, 0
1, 57360, Note_on_c, 0, 82, 0
1, 57360, Note_on_c, 0, 81, 55
1, 57370, Control_c, 0, 64, 0
1, 57424, Control_c, 0, 64, 127
1, 57440, Note_on_c, 0, 77, 37
1, 57480, Note_on_c, 0, 66, 0
1, 57480, Note_on_c, 0, 65, 36
1, 57520, Note_on_c, 0, 77, 0
1, 57520, Note_on_c, 0, 75, 37
1, 57600, Note_on_c, 0, 75, 0
1, 57600, Note_on_c, 0, 65, 0
1, 57600, Note_on_c, 0, 81, 0
1, 57600, Note_on_c, 0, 58, 44
1, 57680, Note_on_c, 0, 68, 36
1, 57720, Note_on_c, 0, 65, 37
1, 57760, Note_on_c, 0, 68, 0
1, 57760, Note_on_c, 0, 74, 37
1, 57807, Tempo, 655738
1, 57840, Note_on_c, 0, 74, 0
1, 57840, Note_on_c, 0, 81, 60
1, 57854, Control_c, 0, 64, 0
1, 57867, Tempo, 652174
1, 57920, Note_on_c, 0, 75, 36
1, 57921, Control_c, 0, 64, 127
1, 57927, Tempo, 648649
1, 57987, Tempo, 645161
1, 58000, Note_on_c, 0, 75, 0
1, 58000, Note_on_c, 0, 74, 36
1, 58047, Tempo, 641711
1, 58080, Note_on_c, 0, 74, 0
1, 58080, Note_on_c, 0, 65, 0
1, 58080, Note_on_c, 0, 58, 0
1, 58080, Note_on_c, 0, 66, 48
1, 58092, Tempo, 634921
1, 58137, Tempo, 638298
1, 58160, Note_on_c, 0, 69, 37
1, 58167, Tempo, 641711
1, 58212, Tempo, 645161
1, 58240, Note_on_c, 0, 69, 0
1, 58240, Note_on_c, 0, 75, 37
1, 58242, Tempo, 648649
1, 58272, Tempo, 652174
1, 58317, Tempo, 655738
1, 58320, Note_on_c, 0, 75, 0
1, 58320, Note_on_c, 0, 81, 0
1, 58320, Note_on_c, 0, 82, 55
1, 58330, Control_c, 0, 64, 0
1, 58347, Tempo, 659341
1, 58377, Tempo, 662983
1, 58384, Control_c, 0, 64, 127
1, 58400, Note_on_c, 0, 77, 37
1, 58440, Note_on_c, 0, 66, 0
1, 58440, Note_on_c, 0, 65, 36
1, 58480, Note_on_c, 0, 77, 0
1, 58480, Note_on_c, 0, 75, 37
1, 58560, Note_on_c, 0, 75, 0
1, 58560, Note_on_c, 0, 65, 0
1, 58560, Note_on_c, 0, 82, 0
1, 58560, Note_on_c, 0, 58, 35
1, 58640, Note_on_c, 0, 68, 36
1, 58680, Note_on_c, 0, 65, 29
1, 58720, Note_on_c, 0, 68, 0
1, 58720, Note_on_c, 0, 74, 37
1, 58797, Tempo, 659341
1, 58800, Note_on_c, 0, 74, 0
1, 58800, Note_on_c, 0, 82, 60
1, 58814, Control_c, 0, 64, 0
1, 58842, Tempo, 655738
1, 58880, Note_on_c, 0, 75, 36
1, 58881, Control_c, 0, 64, 127
1, 58887, Tempo, 652174
1, 58932, Tempo, 648649
1, 58960, Note_on_c, 0, 75, 0
1, 58960, Note_on_c, 0, 74, 36
1, 58977, Tempo, 645161
1, 59022, Tempo, 641711
1, 59037, Tempo, 634921
1, 59040, Note_on_c, 0, 74, 0
1, 59040, Note_on_c, 0, 65, 0
1, 59040, Note_on_c, 0, 58, 0
1, 59040, Note_on_c, 0, 66, 38
1, 59082, Tempo, 638298
1, 59120, Note_on_c, 0, 69, 29
1, 59127, Tempo, 641711
1, 59172, Tempo, 645161
1, 59200, Note_on_c, 0, 69, 0
1, 59200, Note_on_c, 0, 75, 29
1, 59217, Tempo, 648649
1, 59262, Tempo, 652174
1, 59280, Note_on_c, 0, 75, 0
1, 59280, Note_on_c, 0, 82, 0
1, 59280, Note_on_c, 0, 83, 55
1, 59294, Control_c, 0, 64, 0
1, 59307, Tempo, 655738
1, 59337, Tempo, 659341
1, 59352, Control_c, 0, 64, 127
1, 59360, Note_on_c, 0, 77, 37
1, 59400, Note_on_c, 0, 66, 0
1, 59400, Note_on_c, 0, 65, 28
1, 59440, Note_on_c, 0, 77, 0
1, 59440, Note_on_c, 0, 75, 37
1, 59520, Note_on_c, 0, 75, 0
1, 59520, Note_on_c, 0, 65, 0
1, 59520, Note_on_c, 0, 83, 0
1, 59520, Note_on_c, 0, 58, 35
1, 59600, Note_on_c, 0, 68, 36
1, 59640, Note_on_c, 0, 65, 29
1, 59680, Note_on_c, 0, 68, 0
1, 59680, Note_on_c, 0, 74, 37
1, 59682, Tempo, 655738
1, 59727, Tempo, 652174
1, 59760, Note_on_c, 0, 74, 0
1, 59760, Note_on_c, 0, 83, 60
1, 59772, Tempo, 648649
1, 59774, Control_c, 0, 64, 0
1, 59802, Tempo, 645161
1, 59840, Note_on_c, 0, 75, 36
1, 59841, Control_c, 0, 64, 127
1, 59847, Tempo, 641711
1, 59892, Tempo, 638298
1, 59920, Note_on_c, 0, 75, 0
1, 59920, Note_on_c, 0, 74, 36
1, 59922, Tempo, 634921
1, 59967, Tempo, 631579
1, 59982, Tempo, 621762
1, 60000, Note_on_c, 0, 74, 0
1, 60000, Note_on_c, 0, 65, 0
1, 60000, Note_on_c, 0, 58, 0
1, 60000, Note_on_c, 0, 66, 38
1, 60042, Tempo, 625000
1, 60080, Note_on_c, 0, 69, 29
1, 60102, Tempo, 628272
1, 60160, Note_on_c, 0, 69, 0
1, 60160, Note_on_c, 0, 75, 29
1, 60162, Tempo, 631579
1, 60222, Tempo, 634921
1, 60240, Note_on_c, 0, 75, 0
1, 60240, Note_on_c, 0, 83, 0
1, 60240, Note_on_c, 0, 84, 55
1, 60254, Control_c, 0, 64, 0
1, 60282, Tempo, 638298
1, 60312, Control_c, 0, 64, 127
1, 60312, Tempo, 641711
1, 60320, Note_on_c, 0, 77, 37
1, 60360, Note_on_c, 0, 66, 0
1, 60360, Note_on_c, 0, 65, 28
1, 60400, Note_on_c, 0, 77, 0
1, 60400, Note_on_c, 0, 75, 37
1, 60462, Tempo, 648649
1, 60480, Time_signature, 6, 2, 24, 8
1, 60480, Note_on_c, 0, 75, 0
1, 60480, Note_on_c, 0, 65, 0
1, 60480, Note_on_c, 0, 84, 0
1, 60480, Note_on_c, 0, 58, 35
1, 60560, Note_on_c, 0, 72, 36
1, 60600, Note_on_c, 0, 66, 29
1, 60640, Note_on_c, 0, 72, 0
1, 60640, Note_on_c, 0, 75, 37
1, 60717, Tempo, 634921
1, 60720, Note_on_c, 0, 75, 0
1, 60720, Note_on_c, 0, 84, 64
1, 60734, Control_c, 0, 64, 0
1, 60800, Note_on_c, 0, 80, 36
1, 60801, Control_c, 0, 64, 127
1, 60807, Tempo, 631579
1, 60880, Note_on_c, 0, 80, 0
1, 60880, Note_on_c, 0, 78, 36
1, 60882, Tempo, 628272
1, 60942, Tempo, 621762
1, 60960, Note_on_c, 0, 78, 0
1, 60960, Note_on_c, 0, 66, 0
1, 60960, Note_on_c, 0, 58, 0
1, 60960, Note_on_c, 0, 68, 38
1, 60972, Tempo, 618557
1, 61017, Tempo, 621762
1, 61040, Note_on_c, 0, 73, 36
1, 61047, Tempo, 625000
1, 61080, Note_on_c, 0, 70, 29
1, 61092, Tempo, 628272
1, 61120, Note_on_c, 0, 73, 0
1, 61120, Note_on_c, 0, 78, 36
1, 61122, Tempo, 631579
1, 61152, Tempo, 634921
1, 61197, Tempo, 638298
1, 61200, Note_on_c, 0, 78, 0
1, 61200, Note_on_c, 0, 84, 0
1, 61200, Note_on_c, 0, 85, 59
1, 61214, Control_c, 0, 64, 0
1, 61227, Tempo, 641711
1, 61257, Tempo, 645161
1, 61272, Control_c, 0, 64, 127
1, 61272, Tempo, 645161
1, 61280, Note_on_c, 0, 83, 37
1, 61320, Note_on_c, 0, 68, 0
1, 61320, Note_on_c, 0, 66, 28
1, 61360, Note_on_c, 0, 83, 0
1, 61360, Note_on_c, 0, 82, 37
1, 61440, Tempo, 674157
1, 61440, Note_on_c, 0, 82, 0
1, 61440, Note_on_c, 0, 66, 0
1, 61440, Note_on_c, 0, 85, 0
1, 61440, Note_on_c, 0, 70, 0
1, 61440, Note_on_c, 0, 58, 35
1, 61520, Note_on_c, 0, 73, 36
1, 61560, Note_on_c, 0, 66, 29
1, 61600, Note_on_c, 0, 73, 0
1, 61600, Note_on_c, 0, 78, 37
1, 61671, Tempo, 638298
1, 61680, Note_on_c, 0, 78, 0
1, 61680, Note_on_c, 0, 85, 63
1, 61694, Control_c, 0, 64, 0
1, 61709, Tempo, 634921
1, 61748, Tempo, 631579
1, 61760, Note_on_c, 0, 80, 43
1, 61761, Control_c, 0, 64, 127
1, 61786, Tempo, 628272
1, 61825, Tempo, 625000
1, 61840, Note_on_c, 0, 80, 0
1, 61840, Note_on_c, 0, 78, 37
1, 61844, Tempo, 621762
1, 61882, Tempo, 618557
1, 61920, Note_on_c, 0, 78, 0
1, 61920, Note_on_c, 0, 66, 0
1, 61920, Note_on_c, 0, 58, 0
1, 61920, Note_on_c, 0, 68, 39
1, 61921, Tempo, 615385
1, 61959, Tempo, 612245
1, 61978, Tempo, 609137
1, 62000, Note_on_c, 0, 74, 37
1, 62022, Tempo, 621762
1, 62036, Tempo, 612245
1, 62040, Note_on_c, 0, 71, 30
1, 62080, Note_on_c, 0, 74, 0
1, 62080, Note_on_c, 0, 78, 39
1, 62093, Tempo, 615385
1, 62132, Tempo, 618557
1, 62160, Note_on_c, 0, 78, 0
1, 62160, Note_on_c, 0, 85, 0
1, 62160, Note_on_c, 0, 86, 63
1, 62170, Tempo, 621762
1, 62174, Control_c, 0, 64, 0
1, 62209, Tempo, 625000
1, 62232, Control_c, 0, 64, 127
1, 62240, Note_on_c, 0, 83, 40
1, 62247, Tempo, 628272
1, 62280, Note_on_c, 0, 68, 0
1, 62280, Note_on_c, 0, 66, 29
1, 62285, Tempo, 631579
1, 62320, Note_on_c, 0, 83, 0
1, 62320, Note_on_c, 0, 82, 40
1, 62324, Tempo, 634921
1, 62400, Note_on_c, 0, 82, 0
1, 62400, Note_on_c, 0, 66, 0
1, 62400, Note_on_c, 0, 86, 0
1, 62400, Note_on_c, 0, 71, 0
1, 62400, Note_on_c, 0, 58, 36
1, 62480, Note_on_c, 0, 74, 37
1, 62520, Note_on_c, 0, 66, 30
1, 62560, Note_on_c, 0, 74, 0
1, 62560, Note_on_c, 0, 78, 38
1, 62622, Tempo, 634921
1, 62631, Tempo, 628272
1, 62640, Note_on_c, 0, 78, 0
1, 62640, Note_on_c, 0, 86, 65
1, 62654, Control_c, 0, 64, 0
1, 62669, Tempo, 625000
1, 62689, Tempo, 621762
1, 62708, Tempo, 618557
1, 62720, Note_on_c, 0, 80, 37
1, 62721, Control_c, 0, 64, 127
1, 62746, Tempo, 615385
1, 62765, Tempo, 612245
1, 62785, Tempo, 609137
1, 62800, Note_on_c, 0, 80, 0
1, 62800, Note_on_c, 0, 78, 37
1, 62823, Tempo, 606061
1, 62842, Tempo, 603015
1, 62861, Tempo, 591133
1, 62880, Note_on_c, 0, 78, 0
1, 62880, Note_on_c, 0, 66, 0
1, 62880, Note_on_c, 0, 58, 0
1, 62880, Note_on_c, 0, 68, 40
1, 62900, Tempo, 594059
1, 62938, Tempo, 597015
1, 62957, Tempo, 600000
1, 62960, Note_on_c, 0, 75, 38
1, 62996, Tempo, 603015
1, 63000, Note_on_c, 0, 71, 31
1, 63015, Tempo, 606061
1, 63040, Note_on_c, 0, 75, 0
1, 63040, Note_on_c, 0, 78, 38
1, 63053, Tempo, 609137
1, 63073, Tempo, 612245
1, 63111, Tempo, 615385
1, 63120, Note_on_c, 0, 78, 0
1, 63120, Note_on_c, 0, 86, 0
1, 63120, Note_on_c, 0, 87, 64
1, 63130, Tempo, 618557
1, 63134, Control_c, 0, 64, 0
1, 63192, Control_c, 0, 64, 127
1, 63200, Note_on_c, 0, 83, 39
1, 63240, Note_on_c, 0, 68, 0
1, 63240, Note_on_c, 0, 66, 30
1, 63280, Note_on_c, 0, 83, 0
1, 63280, Note_on_c, 0, 82, 39
1, 63341, Tempo, 615385
1, 63360, Time_signature, 4, 2, 24, 8
1, 63360, Note_on_c, 0, 82, 0
1, 63360, Note_on_c, 0, 66, 0
1, 63360, Note_on_c, 0, 87, 0
1, 63360, Note_on_c, 0, 71, 0
1, 63360, Note_on_c, 0, 63, 31
1, 63360, Note_on_c, 0, 58, 37
1, 63380, Tempo, 612245
1, 63418, Tempo, 609137
1, 63437, Tempo, 606061
1, 63440, Note_on_c, 0, 75, 38
1, 63476, Tempo, 603015
1, 63480, Note_on_c, 0, 63, 0
1, 63480, Note_on_c, 0, 67, 31
1, 63514, Tempo, 600000
1, 63520, Note_on_c, 0, 75, 0
1, 63520, Note_on_c, 0, 79, 39
1, 63533, Tempo, 597015
1, 63572, Tempo, 594059
1, 63600, Note_on_c, 0, 79, 0
1, 63600, Note_on_c, 0, 67, 0
1, 63600, Note_on_c, 0, 87, 71
1, 63600, Note_on_c, 0, 73, 31
1, 63610, Tempo, 591133
1, 63614, Control_c, 0, 64, 0
1, 63629, Tempo, 588235
1, 63668, Tempo, 585366
1, 63680, Note_on_c, 0, 80, 38
1, 63681, Control_c, 0, 64, 127
1, 63706, Tempo, 576923
1, 63760, Note_on_c, 0, 80, 0
1, 63760, Note_on_c, 0, 79, 38
1, 63764, Tempo, 579710
1, 63802, Tempo, 582524
1, 63840, Note_on_c, 0, 79, 0
1, 63840, Note_on_c, 0, 73, 0
1, 63840, Note_on_c, 0, 58, 0
1, 63840, Note_on_c, 0, 68, 40
1, 63841, Tempo, 585366
1, 63898, Tempo, 588235
1, 63920, Note_on_c, 0, 74, 38
1, 63937, Tempo, 591133
1, 63960, Note_on_c, 0, 71, 31
1, 63975, Tempo, 594059
1, 64000, Note_on_c, 0, 74, 0
1, 64000, Note_on_c, 0, 76, 38
1, 64033, Tempo, 597015
1, 64071, Tempo, 600000
1, 64080, Note_on_c, 0, 76, 0
1, 64080, Note_on_c, 0, 87, 0
1, 64080, Note_on_c, 0, 86, 70
1, 64094, Control_c, 0, 64, 0
1, 64109, Tempo, 603015
1, 64148, Tempo, 606061
1, 64152, Control_c, 0, 64, 127
1, 64160, Note_on_c, 0, 83, 40
1, 64200, Note_on_c, 0, 68, 0
1, 64200, Note_on_c, 0, 66, 31
1, 64240, Note_on_c, 0, 83, 0
1, 64240, Note_on_c, 0, 82, 40
1, 64320, Note_on_c, 0, 82, 0
1, 64320, Note_on_c, 0, 66, 0
1, 64320, Note_on_c, 0, 86, 0
1, 64320, Note_on_c, 0, 71, 0
1, 64320, Note_on_c, 0, 63, 32
1, 64320, Note_on_c, 0, 58, 37
1, 64400, Note_on_c, 0, 73, 39
1, 64440, Note_on_c, 0, 63, 0
1, 64440, Note_on_c, 0, 67, 32
1, 64480, Note_on_c, 0, 73, 0
1, 64480, Note_on_c, 0, 79, 40
1, 64513, Tempo, 603015
1, 64560, Note_on_c, 0, 79, 0
1, 64560, Note_on_c, 0, 67, 0
1, 64560, Note_on_c, 0, 86, 75
1, 64560, Note_on_c, 0, 73, 32
1, 64570, Tempo, 600000
1, 64574, Control_c, 0, 64, 0
1, 64609, Tempo, 597015
1, 64640, Note_on_c, 0, 80, 39
1, 64641, Control_c, 0, 64, 127
1, 64666, Tempo, 594059
1, 64705, Tempo, 591133
1, 64720, Note_on_c, 0, 80, 0
1, 64720, Note_on_c, 0, 79, 39
1, 64762, Tempo, 588235
1, 64800, Note_on_c, 0, 79, 0
1, 64800, Note_on_c, 0, 73, 0
1, 64800, Note_on_c, 0, 58, 0
1, 64800, Note_on_c, 0, 68, 41
1, 64801, Tempo, 585366
1, 64858, Tempo, 582524
1, 64880, Note_on_c, 0, 75, 39
1, 64897, Tempo, 579710
1, 64920, Note_on_c, 0, 71, 32
1, 64954, Tempo, 576923
1, 64960, Note_on_c, 0, 75, 0
1, 64960, Note_on_c, 0, 76, 39
1, 64993, Tempo, 574163
1, 65022, Tempo, 582524
1, 65040, Note_on_c, 0, 76, 0
1, 65040, Note_on_c, 0, 86, 0
1, 65040, Note_on_c, 0, 87, 72
1, 65052, Tempo, 585366
1, 65054, Control_c, 0, 64, 0
1, 65082, Tempo, 588235
1, 65112, Control_c, 0, 64, 127
1, 65112, Tempo, 591133
1, 65120, Note_on_c, 0, 83, 41
1, 65142, Tempo, 594059
1, 65160, Note_on_c, 0, 68, 0
1, 65160, Note_on_c, 0, 66, 31
1, 65172, Tempo, 597015
1, 65200, Note_on_c, 0, 83, 0
1, 65200, Note_on_c, 0, 82, 41
1, 65202, Tempo, 600000
1, 65232, Tempo, 603015
1, 65262, Tempo, 606061
1, 65280, Note_on_c, 0, 82, 0
1, 65280, Note_on_c, 0, 66, 0
1, 65280, Note_on_c, 0, 87, 0
1, 65280, Note_on_c, 0, 71, 0
1, 65280, Note_on_c, 0, 63, 32
1, 65280, Note_on_c, 0, 58, 38
1, 65360, Note_on_c, 0, 75, 40
1, 65400, Note_on_c, 0, 63, 0
1, 65400, Note_on_c, 0, 67, 32
1, 65440, Note_on_c, 0, 75, 0
1, 65440, Note_on_c, 0, 79, 41
1, 65502, Tempo, 600000
1, 65520, Note_on_c, 0, 79, 0
1, 65520, Note_on_c, 0, 67, 0
1, 65520, Note_on_c, 0, 87, 80
1, 65520, Note_on_c, 0, 73, 32
1, 65532, Tempo, 597015
1, 65534, Control_c, 0, 64, 0
1, 65562, Tempo, 594059
1, 65592, Tempo, 591133
1, 65600, Note_on_c, 0, 80, 40
1, 65601, Control_c, 0, 64, 127
1, 65607, Tempo, 588235
1, 65637, Tempo, 585366
1, 65667, Tempo, 582524
1, 65680, Note_on_c, 0, 80, 0
1, 65680, Note_on_c, 0, 79, 40
1, 65682, Tempo, 579710
1, 65712, Tempo, 576923
1, 65742, Tempo, 574163
1, 65757, Tempo, 571429
1, 65760, Note_on_c, 0, 79, 0
1, 65760, Note_on_c, 0, 73, 0
1, 65760, Note_on_c, 0, 58, 0
1, 65760, Note_on_c, 0, 68, 43
1, 65787, Tempo, 574163
1, 65817, Tempo, 576923
1, 65840, Note_on_c, 0, 76, 40
1, 65847, Tempo, 579710
1, 65862, Tempo, 582524
1, 65880, Note_on_c, 0, 71, 32
1, 65892, Tempo, 585366
1, 65920, Note_on_c, 0, 76, 0
1, 65920, Note_on_c, 0, 80, 40
1, 65922, Tempo, 588235
1, 65952, Tempo, 591133
1, 65967, Tempo, 594059
1, 66000, Note_on_c, 0, 80, 0
1, 66000, Note_on_c, 0, 71, 0
1, 66000, Note_on_c, 0, 87, 0
1, 66000, Note_on_c, 0, 88, 77
1, 66000, Note_on_c, 0, 74, 32
1, 66012, Tempo, 588235
1, 66014, Control_c, 0, 64, 0
1, 66042, Tempo, 591133
1, 66072, Control_c, 0, 64, 127
1, 66080, Note_on_c, 0, 83, 41
1, 66120, Note_on_c, 0, 68, 0
1, 66120, Note_on_c, 0, 66, 32
1, 66160, Note_on_c, 0, 83, 0
1, 66160, Note_on_c, 0, 82, 42
1, 66240, Note_on_c, 0, 82, 0
1, 66240, Note_on_c, 0, 66, 0
1, 66240, Note_on_c, 0, 74, 0
1, 66240, Note_on_c, 0, 88, 0
1, 66240, Note_on_c, 0, 63, 33
1, 66240, Note_on_c, 0, 58, 40
1, 66320, Note_on_c, 0, 76, 41
1, 66360, Note_on_c, 0, 63, 0
1, 66360, Note_on_c, 0, 67, 33
1, 66400, Note_on_c, 0, 76, 0
1, 66400, Note_on_c, 0, 79, 42
1, 66447, Tempo, 591133
1, 66477, Tempo, 588235
1, 66480, Note_on_c, 0, 79, 0
1, 66480, Note_on_c, 0, 67, 0
1, 66480, Note_on_c, 0, 88, 81
1, 66480, Note_on_c, 0, 73, 33
1, 66494, Control_c, 0, 64, 0
1, 66507, Tempo, 585366
1, 66522, Tempo, 582524
1, 66552, Tempo, 579710
1, 66560, Note_on_c, 0, 80, 41
1, 66561, Control_c, 0, 64, 127
1, 66582, Tempo, 576923
1, 66597, Tempo, 574163
1, 66627, Tempo, 571429
1, 66640, Note_on_c, 0, 80, 0
1, 66640, Note_on_c, 0, 79, 41
1, 66657, Tempo, 568720
1, 66672, Tempo, 566038
1, 66702, Tempo, 563380
1, 66717, Tempo, 555556
1, 66720, Note_on_c, 0, 79, 0
1, 66720, Note_on_c, 0, 73, 0
1, 66720, Note_on_c, 0, 58, 0
1, 66720, Note_on_c, 0, 68, 44
1, 66747, Tempo, 558140
1, 66777, Tempo, 560748
1, 66800, Note_on_c, 0, 77, 41
1, 66807, Tempo, 563380
1, 66837, Tempo, 566038
1, 66840, Note_on_c, 0, 71, 33
1, 66852, Tempo, 568720
1, 66880, Note_on_c, 0, 77, 0
1, 66880, Note_on_c, 0, 80, 41
1, 66882, Tempo, 571429
1, 66912, Tempo, 574163
1, 66942, Tempo, 576923
1, 66957, Tempo, 579710
1, 66960, Note_on_c, 0, 80, 0
1, 66960, Note_on_c, 0, 71, 0
1, 66960, Note_on_c, 0, 88, 0
1, 66960, Note_on_c, 0, 89, 80
1, 66960, Note_on_c, 0, 74, 33
1, 66974, Control_c, 0, 64, 0
1, 67002, Tempo, 576923
1, 67032, Control_c, 0, 64, 127
1, 67040, Note_on_c, 0, 83, 42
1, 67080, Note_on_c, 0, 68, 0
1, 67080, Note_on_c, 0, 66, 32
1, 67120, Note_on_c, 0, 83, 0
1, 67120, Note_on_c, 0, 82, 42
1, 67200, Time_signature, 6, 2, 24, 8
1, 67200, Note_on_c, 0, 82, 0
1, 67200, Note_on_c, 0, 66, 0
1, 67200, Note_on_c, 0, 74, 0
1, 67200, Note_on_c, 0, 89, 0
1, 67200, Note_on_c, 0, 61, 40
1, 67200, Note_on_c, 0, 66, 33
1, 67200, Note_on_c, 0, 58, 40
1, 67280, Note_on_c, 0, 77, 41
1, 67320, Note_on_c, 0, 66, 0
1, 67320, Note_on_c, 0, 73, 34
1, 67360, Note_on_c, 0, 77, 0
1, 67360, Note_on_c, 0, 80, 43
1, 67377, Tempo, 576923
1, 67437, Tempo, 574163
1, 67440, Note_on_c, 0, 80, 0
1, 67440, Note_on_c, 0, 89, 86
1, 67454, Control_c, 0, 64, 0
1, 67482, Tempo, 571429
1, 67520, Note_on_c, 0, 82, 42
1, 67521, Control_c, 0, 64, 127
1, 67527, Tempo, 568720
1, 67587, Tempo, 566038
1, 67600, Note_on_c, 0, 82, 0
1, 67600, Note_on_c, 0, 80, 42
1, 67632, Tempo, 563380
1, 67677, Tempo, 558140
1, 67680, Note_on_c, 0, 80, 0
1, 67680, Note_on_c, 0, 73, 0
1, 67680, Note_on_c, 0, 61, 0
1, 67680, Note_on_c, 0, 58, 0
1, 67680, Note_on_c, 0, 75, 46
1, 67680, Note_on_c, 0, 66, 46
1, 67722, Tempo, 560748
1, 67752, Tempo, 563380
1, 67760, Note_on_c, 0, 78, 42
1, 67797, Tempo, 566038
1, 67800, Note_on_c, 0, 70, 36
1, 67827, Tempo, 568720
1, 67840, Note_on_c, 0, 78, 0
1, 67840, Note_on_c, 0, 82, 42
1, 67872, Tempo, 571429
1, 67902, Tempo, 574163
1, 67920, Note_on_c, 0, 82, 0
1, 67920, Note_on_c, 0, 89, 0
1, 67920, Note_on_c, 0, 90, 80
1, 67932, Tempo, 576923
1, 67934, Control_c, 0, 64, 0
1, 67992, Control_c, 0, 64, 127
1, 68000, Note_on_c, 0, 83, 43
1, 68040, Note_on_c, 0, 75, 0
1, 68040, Note_on_c, 0, 66, 0
1, 68040, Note_on_c, 0, 73, 35
1, 68080, Note_on_c, 0, 83, 0
1, 68080, Note_on_c, 0, 82, 43
1, 68160, Note_on_c, 0, 82, 0
1, 68160, Note_on_c, 0, 73, 0
1, 68160, Note_on_c, 0, 90, 0
1, 68160, Note_on_c, 0, 70, 0
1, 68160, Note_on_c, 0, 63, 44
1, 68160, Note_on_c, 0, 66, 37
1, 68160, Note_on_c, 0, 58, 44
1, 68240, Note_on_c, 0, 78, 42
1, 68280, Note_on_c, 0, 66, 0
1, 68280, Note_on_c, 0, 75, 38
1, 68320, Note_on_c, 0, 78, 0
1, 68320, Note_on_c, 0, 83, 44
1, 68367, Tempo, 560748
1, 68382, Tempo, 574163
1, 68400, Note_on_c, 0, 83, 0
1, 68400, Note_on_c, 0, 90, 86
1, 68414, Control_c, 0, 64, 0
1, 68427, Tempo, 571429
1, 68472, Tempo, 568720
1, 68480, Note_on_c, 0, 85, 42
1, 68481, Control_c, 0, 64, 127
1, 68517, Tempo, 566038
1, 68560, Note_on_c, 0, 85, 0
1, 68560, Note_on_c, 0, 83, 43
1, 68562, Tempo, 563380
1, 68607, Tempo, 560748
1, 68637, Tempo, 552995
1, 68640, Note_on_c, 0, 83, 0
1, 68640, Note_on_c, 0, 75, 0
1, 68640, Note_on_c, 0, 63, 0
1, 68640, Note_on_c, 0, 58, 0
1, 68640, Note_on_c, 0, 77, 51
1, 68640, Note_on_c, 0, 68, 51
1, 68667, Tempo, 555556
1, 68697, Tempo, 558140
1, 68720, Note_on_c, 0, 80, 43
1, 68727, Tempo, 560748
1, 68757, Tempo, 563380
1, 68760, Note_on_c, 0, 71, 39
1, 68787, Tempo, 566038
1, 68800, Note_on_c, 0, 80, 0
1, 68800, Note_on_c, 0, 85, 43
1, 68817, Tempo, 568720
1, 68847, Tempo, 571429
1, 68877, Tempo, 574163
1, 68880, Note_on_c, 0, 85, 0
1, 68880, Note_on_c, 0, 90, 0
1, 68880, Note_on_c, 0, 92, 83
1, 68894, Control_c, 0, 64, 0
1, 68952, Control_c, 0, 64, 127
1, 68960, Note_on_c, 0, 87, 44
1, 69000, Note_on_c, 0, 77, 0
1, 69000, Note_on_c, 0, 68, 0
1, 69000, Note_on_c, 0, 75, 39
1, 69040, Note_on_c, 0, 87, 0
1, 69040, Note_on_c, 0, 85, 44
1, 69120, Note_on_c, 0, 85, 0
1, 69120, Note_on_c, 0, 75, 0
1, 69120, Note_on_c, 0, 92, 0
1, 69120, Note_on_c, 0, 71, 0
1, 69120, Note_on_c, 0, 65, 49
1, 69120, Note_on_c, 0, 68, 40
1, 69120, Note_on_c, 0, 58, 49
1, 69200, Note_on_c, 0, 80, 43
1, 69240, Note_on_c, 0, 68, 0
1, 69240, Note_on_c, 0, 77, 41
1, 69280, Note_on_c, 0, 80, 0
1, 69280, Note_on_c, 0, 83, 44
1, 69312, Tempo, 571429
1, 69360, Note_on_c, 0, 83, 0
1, 69360, Note_on_c, 0, 92, 83
1, 69372, Tempo, 568720
1, 69374, Control_c, 0, 64, 0
1, 69417, Tempo, 566038
1, 69440, Note_on_c, 0, 89, 43
1, 69441, Control_c, 0, 64, 127
1, 69462, Tempo, 563380
1, 69520, Note_on_c, 0, 89, 0
1, 69520, Note_on_c, 0, 87, 43
1, 69522, Tempo, 560748
1, 69567, Tempo, 558140
1, 69582, Tempo, 555556
1, 69600, Note_on_c, 0, 87, 0
1, 69600, Note_on_c, 0, 77, 0
1, 69600, Note_on_c, 0, 65, 0
1, 69600, Note_on_c, 0, 58, 0
1, 69600, Note_on_c, 0, 78, 55
1, 69600, Note_on_c, 0, 69, 55
1, 69612, Tempo, 558140
1, 69627, Tempo, 560748
1, 69657, Tempo, 563380
1, 69672, Tempo, 566038
1, 69680, Note_on_c, 0, 81, 43
1, 69687, Tempo, 568720
1, 69717, Tempo, 571429
1, 69720, Note_on_c, 0, 72, 43
1, 69732, Tempo, 574163
1, 69747, Tempo, 576923
1, 69760, Note_on_c, 0, 81, 0
1, 69760, Note_on_c, 0, 87, 44
1, 69777, Tempo, 579710
1, 69792, Tempo, 582524
1, 69807, Tempo, 585366
1, 69837, Tempo, 535714
1, 69840, Note_on_c, 0, 87, 0
1, 69840, Note_on_c, 0, 92, 0
1, 69840, Note_on_c, 0, 93, 79
1, 69852, Tempo, 538117
1, 69854, Control_c, 0, 64, 0
1, 69882, Tempo, 540541
1, 69912, Control_c, 0, 64, 127
1, 69912, Tempo, 542986
1, 69920, Note_on_c, 0, 89, 45
1, 69942, Tempo, 545455
1, 69957, Tempo, 547945
1, 69960, Note_on_c, 0, 78, 0
1, 69960, Note_on_c, 0, 69, 0
1, 69960, Note_on_c, 0, 77, 43
1, 69987, Tempo, 550459
1, 70000, Note_on_c, 0, 89, 0
1, 70000, Note_on_c, 0, 87, 45
1, 70017, Tempo, 552995
1, 70047, Tempo, 555556
1, 70062, Tempo, 558140
1, 70080, Time_signature, 4, 2, 24, 8
1, 70080, Key_signature, 4, "major"
1, 70080, Note_on_c, 0, 87, 0
1, 70080, Note_on_c, 0, 77, 0
1, 70080, Note_on_c, 0, 93, 0
1, 70080, Note_on_c, 0, 72, 0
1, 70080, Note_on_c, 0, 70, 79
1, 70091, Control_c, 0, 64, 0
1, 70120, Control_c, 0, 64, 127
1, 70160, Note_on_c, 0, 85, 74
1, 70200, Note_on_c, 0, 76, 56
1, 70240, Note_on_c, 0, 85, 0
1, 70240, Note_on_c, 0, 86, 71
1, 70320, Note_on_c, 0, 86, 0
1, 70320, Note_on_c, 0, 76, 0
1, 70320, Note_on_c, 0, 89, 76
1, 70320, Note_on_c, 0, 82, 56
1, 70400, Note_on_c, 0, 89, 0
1, 70400, Note_on_c, 0, 94, 81
1, 70440, Tempo, 618557
1, 70440, Note_on_c, 0, 82, 0
1, 70440, Note_on_c, 0, 77, 56
1, 70480, Note_on_c, 0, 94, 0
1, 70480, Note_on_c, 0, 101, 86
1, 70560, Tempo, 555556
1, 70560, Note_on_c, 0, 101, 0
1, 70560, Note_on_c, 0, 77, 0
1, 70560, Note_on_c, 0, 70, 0
1, 70560, Note_on_c, 0, 67, 74
1, 70560, Control_c, 0, 64, 0
1, 70609, Control_c, 0, 64, 127
1, 70640, Note_on_c, 0, 84, 56
1, 70680, Note_on_c, 0, 75, 48
1, 70720, Note_on_c, 0, 84, 0
1, 70720, Note_on_c, 0, 85, 56
1, 70800, Note_on_c, 0, 85, 0
1, 70800, Note_on_c, 0, 75, 0
1, 70800, Note_on_c, 0, 93, 75
1, 70800, Note_on_c, 0, 88, 65
1, 70800, Note_on_c, 0, 76, 48
1, 70880, Note_on_c, 0, 88, 0
1, 70880, Note_on_c, 0, 93, 0
1, 70880, Note_on_c, 0, 81, 56
1, 70920, Tempo, 594059
1, 70920, Note_on_c, 0, 76, 0
1, 70920, Note_on_c, 0, 75, 48
1, 70960, Note_on_c, 0, 81, 0
1, 70960, Note_on_c, 0, 85, 57
1, 71040, Tempo, 552995
1, 71040, Note_on_c, 0, 85, 0
1, 71040, Note_on_c, 0, 75, 0
1, 71040, Note_on_c, 0, 67, 0
1, 71040, Note_on_c, 0, 66, 74
1, 71050, Control_c, 0, 64, 0
1, 71095, Control_c, 0, 64, 127
1, 71120, Note_on_c, 0, 83, 56
1, 71160, Note_on_c, 0, 74, 52
1, 71200, Note_on_c, 0, 83, 0
1, 71200, Note_on_c, 0, 84, 56
1, 71280, Note_on_c, 0, 84, 0
1, 71280, Note_on_c, 0, 74, 0
1, 71280, Note_on_c, 0, 92, 75
1, 71280, Note_on_c, 0, 87, 65
1, 71280, Note_on_c, 0, 75, 52
1, 71360, Note_on_c, 0, 87, 0
1, 71360, Note_on_c, 0, 92, 0
1, 71360, Note_on_c, 0, 80, 56
1, 71400, Tempo, 588235
1, 71400, Note_on_c, 0, 75, 0
1, 71400, Note_on_c, 0, 72, 53
1, 71440, Note_on_c, 0, 80, 0
1, 71440, Note_on_c, 0, 84, 56
1, 71520, Tempo, 555556
1, 71520, Note_on_c, 0, 84, 0
1, 71520, Note_on_c, 0, 72, 0
1, 71520, Note_on_c, 0, 66, 0
1, 71520, Note_on_c, 0, 56, 69
1, 71520, Note_on_c, 0, 65, 74
1, 71530, Control_c, 0, 64, 0
1, 71580, Control_c, 0, 64, 127
1, 71600, Note_on_c, 0, 71, 54
1, 71640, Note_on_c, 0, 69, 52
1, 71680, Note_on_c, 0, 71, 0
1, 71680, Note_on_c, 0, 77, 56
1, 71760, Note_on_c, 0, 77, 0
1, 71760, Note_on_c, 0, 69, 0
1, 71760, Note_on_c, 0, 85, 75
1, 71760, Note_on_c, 0, 74, 52
1, 71840, Note_on_c, 0, 85, 0
1, 71840, Note_on_c, 0, 78, 55
1, 71880, Tempo, 606061
1, 71880, Note_on_c, 0, 74, 0
1, 71880, Note_on_c, 0, 68, 53
1, 71920, Note_on_c, 0, 78, 0
1, 71920, Note_on_c, 0, 77, 55
1, 72000, Tempo, 552995
1, 72000, Note_on_c, 0, 77, 0
1, 72000, Note_on_c, 0, 68, 0
1, 72000, Note_on_c, 0, 65, 0
1, 72000, Note_on_c, 0, 56, 0
1, 72000, Note_on_c, 0, 64, 74
1, 72007, Control_c, 0, 64, 0
1, 72037, Control_c, 0, 64, 127
1, 72080, Note_on_c, 0, 71, 55
1, 72120, Note_on_c, 0, 67, 49
1, 72160, Note_on_c, 0, 71, 0
1, 72160, Note_on_c, 0, 72, 56
1, 72240, Note_on_c, 0, 72, 0
1, 72240, Note_on_c, 0, 67, 0
1, 72240, Note_on_c, 0, 76, 65
1, 72240, Note_on_c, 0, 82, 75
1, 72240, Note_on_c, 0, 73, 49
1, 72320, Note_on_c, 0, 82, 0
1, 72320, Note_on_c, 0, 76, 0
1, 72320, Note_on_c, 0, 69, 56
1, 72360, Tempo, 597015
1, 72400, Note_on_c, 0, 69, 0
1, 72400, Note_on_c, 0, 76, 56
1, 72480, Tempo, 558140
1, 72480, Note_on_c, 0, 76, 0
1, 72480, Note_on_c, 0, 64, 0
1, 72480, Note_on_c, 0, 73, 0
1, 72480, Note_on_c, 0, 56, 69
1, 72480, Note_on_c, 0, 63, 74
1, 72487, Control_c, 0, 64, 0
1, 72520, Control_c, 0, 64, 127
1, 72560, Note_on_c, 0, 70, 56
1, 72600, Note_on_c, 0, 66, 52
1, 72640, Note_on_c, 0, 70, 0
1, 72640, Note_on_c, 0, 71, 57
1, 72720, Note_on_c, 0, 71, 0
1, 72720, Note_on_c, 0, 66, 0
1, 72720, Note_on_c, 0, 75, 65
1, 72720, Note_on_c, 0, 80, 75
1, 72720, Note_on_c, 0, 72, 52
1, 72800, Note_on_c, 0, 80, 0
1, 72800, Note_on_c, 0, 75, 0
1, 72800, Note_on_c, 0, 68, 55
1, 72840, Tempo, 600000
1, 72880, Note_on_c, 0, 68, 0
1, 72880, Note_on_c, 0, 75, 65
1, 72960, Tempo, 547945
1, 72960, Note_on_c, 0, 75, 0
1, 72960, Note_on_c, 0, 56, 0
1, 72960, Note_on_c, 0, 63, 0
1, 72960, Note_on_c, 0, 72, 0
1, 72960, Note_on_c, 0, 54, 69
1, 72960, Note_on_c, 0, 57, 69
1, 72960, Note_on_c, 0, 62, 74
1, 72969, Control_c, 0, 64, 0
1, 73026, Control_c, 0, 64, 127
1, 73040, Note_on_c, 0, 73, 62
1, 73040, Note_on_c, 0, 69, 62
1, 73120, Note_on_c, 0, 69, 0
1, 73120, Note_on_c, 0, 73, 0
1, 73120, Note_on_c, 0, 68, 54
1, 73200, Note_on_c, 0, 68, 0
1, 73200, Note_on_c, 0, 54, 0
1, 73200, Note_on_c, 0, 66, 54
1, 73200, Note_on_c, 0, 44, 49
1, 73280, Note_on_c, 0, 66, 0
1, 73280, Note_on_c, 0, 64, 54
1, 73320, Tempo, 603015
1, 73360, Note_on_c, 0, 64, 0
1, 73360, Note_on_c, 0, 62, 53
1, 73440, Tempo, 545455
1, 73440, Note_on_c, 0, 62, 0
1, 73440, Note_on_c, 0, 57, 0
1, 73440, Note_on_c, 0, 62, 0
1, 73440, Note_on_c, 0, 44, 0
1, 73440, Note_on_c, 0, 53, 69
1, 73440, Note_on_c, 0, 61, 74
1, 73452, Control_c, 0, 64, 0
1, 73506, Control_c, 0, 64, 127
1, 73520, Note_on_c, 0, 60, 52
1, 73600, Note_on_c, 0, 60, 0
1, 73600, Note_on_c, 0, 61, 52
1, 73680, Note_on_c, 0, 61, 0
1, 73680, Note_on_c, 0, 65, 53
1, 73680, Note_on_c, 0, 69, 63
1, 73680, Note_on_c, 0, 44, 51
1, 73760, Note_on_c, 0, 69, 0
1, 73760, Note_on_c, 0, 65, 0
1, 73760, Note_on_c, 0, 57, 49
1, 73800, Tempo, 591133
1, 73840, Note_on_c, 0, 57, 0
1, 73840, Note_on_c, 0, 61, 50
1, 73920, Tempo, 545455
1, 73920, Note_on_c, 0, 61, 0
1, 73920, Note_on_c, 0, 53, 0
1, 73920, Note_on_c, 0, 61, 0
1, 73920, Note_on_c, 0, 44, 0
1, 73920, Note_on_c, 0, 52, 65
1, 73920, Note_on_c, 0, 59, 74
1, 73925, Control_c, 0, 64, 0
1, 73966, Control_c, 0, 64, 127
1, 74000, Note_on_c, 0, 62, 51
1, 74080, Note_on_c, 0, 62, 0
1, 74080, Note_on_c, 0, 63, 51
1, 74160, Note_on_c, 0, 63, 0
1, 74160, Note_on_c, 0, 64, 53
1, 74160, Note_on_c, 0, 68, 63
1, 74160, Note_on_c, 0, 44, 52
1, 74240, Note_on_c, 0, 68, 0
1, 74240, Note_on_c, 0, 64, 0
1, 74240, Note_on_c, 0, 63, 49
1, 74280, Tempo, 585366
1, 74320, Note_on_c, 0, 63, 0
1, 74320, Note_on_c, 0, 62, 50
1, 74400, Tempo, 542986
1, 74400, Note_on_c, 0, 62, 0
1, 74400, Note_on_c, 0, 52, 0
1, 74400, Note_on_c, 0, 59, 0
1, 74400, Note_on_c, 0, 44, 0
1, 74400, Note_on_c, 0, 51, 69
1, 74400, Note_on_c, 0, 58, 73
1, 74412, Control_c, 0, 64, 0
1, 74440, Control_c, 0, 64, 127
1, 74480, Note_on_c, 0, 54, 51
1, 74560, Note_on_c, 0, 54, 0
1, 74560, Note_on_c, 0, 55, 51
1, 74640, Note_on_c, 0, 55, 0
1, 74640, Note_on_c, 0, 61, 63
1, 74640, Note_on_c, 0, 32, 52
1, 74720, Note_on_c, 0, 61, 0
1, 74720, Note_on_c, 0, 55, 50
1, 74760, Tempo, 585366
1, 74800, Note_on_c, 0, 55, 0
1, 74800, Note_on_c, 0, 54, 50
1, 74880, Tempo, 545455
1, 74880, Note_on_c, 0, 54, 0
1, 74880, Note_on_c, 0, 51, 0
1, 74880, Note_on_c, 0, 58, 0
1, 74880, Note_on_c, 0, 32, 0
1, 74880, Note_on_c, 0, 45, 69
1, 74880, Note_on_c, 0, 49, 66
1, 74880, Note_on_c, 0, 57, 77
1, 74893, Control_c, 0, 64, 0
1, 74955, Control_c, 0, 64, 127
1, 74960, Note_on_c, 0, 53, 50
1, 75040, Note_on_c, 0, 53, 0
1, 75040, Note_on_c, 0, 54, 50
1, 75120, Note_on_c, 0, 54, 0
1, 75120, Note_on_c, 0, 45, 0
1, 75120, Note_on_c, 0, 61, 63
1, 75120, Note_on_c, 0, 32, 51
1, 75200, Note_on_c, 0, 61, 0
1, 75200, Note_on_c, 0, 56, 48
1, 75240, Tempo, 582524
1, 75280, Note_on_c, 0, 56, 0
1, 75280, Note_on_c, 0, 54, 48
1, 75360, Tempo, 542986
1, 75360, Note_on_c, 0, 54, 0
1, 75360, Note_on_c, 0, 49, 0
1, 75360, Note_on_c, 0, 57, 0
1, 75360, Note_on_c, 0, 32, 0
1, 75360, Note_on_c, 0, 44, 69
1, 75360, Note_on_c, 0, 49, 65
1, 75360, Note_on_c, 0, 56, 79
1, 75365, Control_c, 0, 64, 0
1, 75420, Control_c, 0, 64, 127
1, 75440, Note_on_c, 0, 51, 50
1, 75520, Note_on_c, 0, 51, 0
1, 75520, Note_on_c, 0, 52, 50
1, 75600, Note_on_c, 0, 52, 0
1, 75600, Note_on_c, 0, 44, 0
1, 75600, Note_on_c, 0, 59, 63
1, 75600, Note_on_c, 0, 32, 51
1, 75680, Note_on_c, 0, 59, 0
1, 75680, Note_on_c, 0, 54, 47
1, 75720, Tempo, 585366
1, 75760, Note_on_c, 0, 54, 0
1, 75760, Note_on_c, 0, 52, 47
1, 75840, Tempo, 597015
1, 75840, Note_on_c, 0, 52, 0
1, 75840, Note_on_c, 0, 49, 0
1, 75840, Note_on_c, 0, 56, 0
1, 75840, Note_on_c, 0, 32, 0
1, 75840, Note_on_c, 0, 33, 74
1, 75840, Note_on_c, 0, 45, 83
1, 75840, Note_on_c, 0, 49, 74
1, 75840, Control_c, 0, 64, 0
1, 75943, Control_c, 0, 64, 127
1, 76160, Note_on_c, 0, 49, 0
1, 76160, Note_on_c, 0, 54, 55
1, 76160, Note_on_c, 0, 61, 65
1, 76160, Note_on_c, 0, 42, 37
1, 76160, Note_on_c, 0, 49, 37
1, 76160, Note_on_c, 0, 51, 44
1, 76304, Note_on_c, 0, 51, 0
1, 76304, Note_on_c, 0, 42, 0
1, 76304, Note_on_c, 0, 61, 0
1, 76304, Note_on_c, 0, 54, 0
1, 76304, Note_on_c, 0, 49, 0
1, 76320, Note_on_c, 0, 54, 62
1, 76320, Note_on_c, 0, 61, 74
1, 76320, Note_on_c, 0, 42, 45
1, 76320, Note_on_c, 0, 49, 45
1, 76320, Note_on_c, 0, 51, 53
1, 76464, Note_on_c, 0, 51, 0
1, 76464, Note_on_c, 0, 42, 0
1, 76464, Note_on_c, 0, 61, 0
1, 76464, Note_on_c, 0, 54, 0
1, 76464, Note_on_c, 0, 49, 0
1, 76480, Note_on_c, 0, 61, 56
1, 76480, Note_on_c, 0, 63, 67
1, 76480, Note_on_c, 0, 45, 35
1, 76480, Note_on_c, 0, 49, 35
1, 76480, Note_on_c, 0, 54, 42
1, 76624, Note_on_c, 0, 54, 0
1, 76624, Note_on_c, 0, 45, 0
1, 76624, Note_on_c, 0, 63, 0
1, 76624, Note_on_c, 0, 61, 0
1, 76624, Note_on_c, 0, 49, 0
1, 76640, Note_on_c, 0, 61, 56
1, 76640, Note_on_c, 0, 63, 67
1, 76640, Note_on_c, 0, 45, 35
1, 76640, Note_on_c, 0, 49, 35
1, 76640, Note_on_c, 0, 54, 42
1, 76784, Note_on_c, 0, 54, 0
1, 76784, Note_on_c, 0, 45, 0
1, 76784, Note_on_c, 0, 63, 0
1, 76784, Note_on_c, 0, 61, 0
1, 76784, Note_on_c, 0, 49, 0
1, 76800, Tempo, 600060
1, 76800, Note_on_c, 0, 61, 62
1, 76800, Note_on_c, 0, 63, 74
1, 76800, Note_on_c, 0, 45, 45
1, 76800, Note_on_c, 0, 49, 45
1, 76800, Note_on_c, 0, 54, 53
1, 76812, Control_c, 0, 64, 0
1, 76903, Control_c, 0, 64, 127
1, 76944, Note_on_c, 0, 54, 0
1, 76944, Note_on_c, 0, 63, 0
1, 76944, Note_on_c, 0, 61, 0
1, 76944, Note_on_c, 0, 45, 0
1, 76960, Note_on_c, 0, 63, 56
1, 76960, Note_on_c, 0, 66, 66
1, 76960, Note_on_c, 0, 51, 39
1, 76960, Note_on_c, 0, 54, 39
1, 76960, Note_on_c, 0, 61, 46
1, 77104, Note_on_c, 0, 61, 0
1, 77104, Note_on_c, 0, 54, 0
1, 77104, Note_on_c, 0, 66, 0
1, 77104, Note_on_c, 0, 63, 0
1, 77104, Note_on_c, 0, 51, 0
1, 77120, Note_on_c, 0, 63, 56
1, 77120, Note_on_c, 0, 66, 66
1, 77120, Note_on_c, 0, 51, 39
1, 77120, Note_on_c, 0, 54, 39
1, 77120, Note_on_c, 0, 61, 46
1, 77264, Note_on_c, 0, 61, 0
1, 77264, Note_on_c, 0, 54, 0
1, 77264, Note_on_c, 0, 66, 0
1, 77264, Note_on_c, 0, 63, 0
1, 77264, Note_on_c, 0, 51, 0
1, 77280, Note_on_c, 0, 61, 62
1, 77280, Note_on_c, 0, 66, 74
1, 77280, Note_on_c, 0, 51, 45
1, 77280, Note_on_c, 0, 54, 45
1, 77280, Note_on_c, 0, 61, 53
1, 77424, Note_on_c, 0, 61, 0
1, 77424, Note_on_c, 0, 54, 0
1, 77424, Note_on_c, 0, 66, 0
1, 77424, Note_on_c, 0, 61, 0
1, 77424, Note_on_c, 0, 51, 0
1, 77440, Note_on_c, 0, 66, 56
1, 77440, Note_on_c, 0, 73, 67
1, 77440, Note_on_c, 0, 54, 39
1, 77440, Note_on_c, 0, 61, 39
1, 77440, Note_on_c, 0, 63, 46
1, 77584, Note_on_c, 0, 63, 0
1, 77584, Note_on_c, 0, 61, 0
1, 77584, Note_on_c, 0, 73, 0
1, 77584, Note_on_c, 0, 66, 0
1, 77584, Note_on_c, 0, 54, 0
1, 77600, Note_on_c, 0, 66, 56
1, 77600, Note_on_c, 0, 73, 67
1, 77600, Note_on_c, 0, 54, 39
1, 77600, Note_on_c, 0, 61, 39
1, 77600, Note_on_c, 0, 63, 46
1, 77664, Note_on_c, 0, 49, 0
1, 77744, Note_on_c, 0, 63, 0
1, 77744, Note_on_c, 0, 54, 0
1, 77744, Note_on_c, 0, 73, 0
1, 77744, Note_on_c, 0, 66, 0
1, 77744, Note_on_c, 0, 61, 0
1, 77760, Tempo, 628338
1, 77760, Note_on_c, 0, 33, 0
1, 77760, Note_on_c, 0, 45, 0
1, 77760, Note_on_c, 0, 73, 76
1, 77760, Note_on_c, 0, 61, 62
1, 77760, Note_on_c, 0, 63, 62
1, 77760, Note_on_c, 0, 66, 74
1, 77760, Note_on_c, 0, 32, 65
1, 77760, Note_on_c, 0, 44, 75
1, 77760, Control_c, 0, 64, 0
1, 77831, Control_c, 0, 64, 127
1, 77904, Note_on_c, 0, 66, 0
1, 77904, Note_on_c, 0, 63, 0
1, 77904, Note_on_c, 0, 61, 0
1, 77920, Note_on_c, 0, 63, 56
1, 77920, Note_on_c, 0, 66, 66
1, 77920, Note_on_c, 0, 51, 39
1, 77920, Note_on_c, 0, 54, 39
1, 77920, Note_on_c, 0, 61, 46
1, 78064, Note_on_c, 0, 61, 0
1, 78064, Note_on_c, 0, 54, 0
1, 78064, Note_on_c, 0, 66, 0
1, 78064, Note_on_c, 0, 63, 0
1, 78064, Note_on_c, 0, 51, 0
1, 78080, Note_on_c, 0, 73, 0
1, 78080, Note_on_c, 0, 75, 77
1, 78080, Note_on_c, 0, 66, 56
1, 78080, Note_on_c, 0, 73, 66
1, 78080, Note_on_c, 0, 54, 39
1, 78080, Note_on_c, 0, 61, 39
1, 78080, Note_on_c, 0, 63, 46
1, 78224, Note_on_c, 0, 63, 0
1, 78224, Note_on_c, 0, 61, 0
1, 78224, Note_on_c, 0, 66, 0
1, 78224, Note_on_c, 0, 54, 0
1, 78240, Tempo, 655738
1, 78240, Note_on_c, 0, 75, 0
1, 78240, Note_on_c, 0, 73, 0
1, 78240, Note_on_c, 0, 80, 82
1, 78240, Note_on_c, 0, 73, 62
1, 78240, Note_on_c, 0, 66, 62
1, 78240, Note_on_c, 0, 75, 67
1, 78240, Note_on_c, 0, 58, 42
1, 78240, Note_on_c, 0, 61, 45
1, 78240, Note_on_c, 0, 70, 62
1, 78384, Note_on_c, 0, 61, 0
1, 78384, Note_on_c, 0, 75, 0
1, 78384, Note_on_c, 0, 73, 0
1, 78384, Note_on_c, 0, 66, 0
1, 78400, Note_on_c, 0, 73, 62
1, 78400, Note_on_c, 0, 66, 56
1, 78400, Note_on_c, 0, 75, 67
1, 78400, Note_on_c, 0, 54, 39
1, 78400, Note_on_c, 0, 61, 39
1, 78400, Note_on_c, 0, 63, 46
1, 78544, Note_on_c, 0, 63, 0
1, 78544, Note_on_c, 0, 75, 0
1, 78544, Note_on_c, 0, 61, 0
1, 78544, Note_on_c, 0, 66, 0
1, 78544, Note_on_c, 0, 54, 0
1, 78544, Note_on_c, 0, 73, 0
1, 78560, Note_on_c, 0, 73, 62
1, 78560, Note_on_c, 0, 66, 56
1, 78560, Note_on_c, 0, 75, 67
1, 78560, Note_on_c, 0, 54, 39
1, 78560, Note_on_c, 0, 61, 39
1, 78560, Note_on_c, 0, 63, 46
1, 78690, Tempo, 641780
1, 78696, Tempo, 674157
1, 78704, Note_on_c, 0, 63, 0
1, 78704, Note_on_c, 0, 75, 0
1, 78704, Note_on_c, 0, 61, 0
1, 78704, Note_on_c, 0, 66, 0
1, 78704, Note_on_c, 0, 54, 0
1, 78704, Note_on_c, 0, 73, 0
1, 78720, Note_on_c, 0, 44, 0
1, 78720, Note_on_c, 0, 32, 0
1, 78720, Note_on_c, 0, 66, 62
1, 78720, Note_on_c, 0, 72, 62
1, 78720, Note_on_c, 0, 75, 74
1, 78720, Note_on_c, 0, 32, 67
1, 78720, Note_on_c, 0, 44, 75
1, 78733, Control_c, 0, 64, 0
1, 78734, Tempo, 677966
1, 78773, Tempo, 681818
1, 78811, Tempo, 685714
1, 78844, Control_c, 0, 64, 127
1, 78849, Tempo, 689655
1, 78864, Note_on_c, 0, 44, 0
1, 78864, Note_on_c, 0, 75, 0
1, 78864, Note_on_c, 0, 66, 0
1, 78864, Note_on_c, 0, 72, 0
1, 78869, Tempo, 693642
1, 78880, Note_on_c, 0, 66, 55
1, 78880, Note_on_c, 0, 72, 56
1, 78880, Note_on_c, 0, 75, 66
1, 78880, Note_on_c, 0, 44, 39
1, 78880, Note_on_c, 0, 54, 39
1, 78880, Note_on_c, 0, 60, 46
1, 78907, Tempo, 697674
1, 78945, Tempo, 701754
1, 78984, Tempo, 705882
1, 79003, Tempo, 710059
1, 79024, Note_on_c, 0, 60, 0
1, 79024, Note_on_c, 0, 54, 0
1, 79024, Note_on_c, 0, 75, 0
1, 79024, Note_on_c, 0, 72, 0
1, 79024, Note_on_c, 0, 66, 0
1, 79040, Note_on_c, 0, 66, 54
1, 79040, Note_on_c, 0, 72, 56
1, 79040, Note_on_c, 0, 75, 66
1, 79040, Note_on_c, 0, 54, 39
1, 79040, Note_on_c, 0, 60, 39
1, 79040, Note_on_c, 0, 63, 46
1, 79041, Tempo, 714286
1, 79080, Tempo, 718563
1, 79118, Tempo, 722892
1, 79137, Tempo, 727273
1, 79176, Tempo, 731707
1, 79184, Note_on_c, 0, 63, 0
1, 79184, Note_on_c, 0, 60, 0
1, 79184, Note_on_c, 0, 54, 0
1, 79200, Note_on_c, 0, 66, 0
1, 79200, Note_on_c, 0, 70, 0
1, 79200, Note_on_c, 0, 58, 0
1, 79200, Note_on_c, 0, 56, 56
1, 79200, Note_on_c, 0, 68, 77
1, 79214, Tempo, 736196
1, 79253, Tempo, 740741
1, 79272, Tempo, 745342
1, 79310, Tempo, 750000
1, 79349, Tempo, 754717
1, 79360, Note_on_c, 0, 75, 0
1, 79360, Note_on_c, 0, 72, 0
1, 79360, Note_on_c, 0, 66, 54
1, 79360, Note_on_c, 0, 72, 56
1, 79360, Note_on_c, 0, 75, 67
1, 79360, Note_on_c, 0, 54, 39
1, 79360, Note_on_c, 0, 60, 39
1, 79360, Note_on_c, 0, 63, 46
1, 79387, Tempo, 759494
1, 79406, Tempo, 764331
1, 79445, Tempo, 769231
1, 79483, Tempo, 774194
1, 79504, Note_on_c, 0, 63, 0
1, 79504, Note_on_c, 0, 75, 0
1, 79504, Note_on_c, 0, 60, 0
1, 79504, Note_on_c, 0, 72, 0
1, 79504, Note_on_c, 0, 54, 0
1, 79504, Note_on_c, 0, 66, 0
1, 79520, Note_on_c, 0, 66, 54
1, 79520, Note_on_c, 0, 72, 56
1, 79520, Note_on_c, 0, 75, 67
1, 79520, Note_on_c, 0, 54, 39
1, 79520, Note_on_c, 0, 60, 39
1, 79520, Note_on_c, 0, 63, 46
1, 79521, Tempo, 779221
1, 79541, Tempo, 784314
1, 79579, Tempo, 789474
1, 79617, Tempo, 794702
1, 79656, Tempo, 800000
1, 79664, Note_on_c, 0, 63, 0
1, 79664, Note_on_c, 0, 75, 0
1, 79664, Note_on_c, 0, 60, 0
1, 79664, Note_on_c, 0, 72, 0
1, 79664, Note_on_c, 0, 54, 0
1, 79664, Note_on_c, 0, 66, 0
1, 79675, Tempo, 805369
1, 79680, Key_signature, -5, "major"
1, 79680, Tempo, 1224740
1, 79680, Marker_t, "Grave"
1, 79680, Note_on_c, 0, 56, 0
1, 79680, Note_on_c, 0, 80, 0
1, 79680, Note_on_c, 0, 44, 0
1, 79680, Note_on_c, 0, 68, 0
1, 79680, Note_on_c, 0, 32, 0
1, 79680, Note_on_c, 0, 53, 67
1, 79680, Note_on_c, 0, 61, 79
1, 79680, Note_on_c, 0, 25, 47
1, 79680, Note_on_c, 0, 37, 59
1, 79680, Control_c, 0, 64, 0
1, 79723, Control_c, 0, 64, 127
1, 79840, Note_on_c, 0, 37, 0
1, 79840, Note_on_c, 0, 25, 0
1, 79840, Note_on_c, 0, 53, 0
1, 79840, Note_on_c, 0, 53, 48
1, 79840, Note_on_c, 0, 44, 31
1, 79840, Note_on_c, 0, 49, 38
1, 79920, Note_on_c, 0, 49, 0
1, 79920, Note_on_c, 0, 44, 0
1, 79920, Note_on_c, 0, 53, 0
1, 79920, Note_on_c, 0, 65, 48
1, 79920, Note_on_c, 0, 56, 44
1, 80000, Note_on_c, 0, 56, 0
1, 80000, Note_on_c, 0, 65, 0
1, 80000, Note_on_c, 0, 63, 48
1, 80000, Note_on_c, 0, 51, 31
1, 80000, Note_on_c, 0, 56, 38
1, 80040, Tempo, 1062135
1, 80040, Note_on_c, 0, 61, 0
1, 80040, Note_on_c, 0, 68, 80
1, 80080, Note_on_c, 0, 63, 0
1, 80080, Note_on_c, 0, 56, 0
1, 80080, Note_on_c, 0, 51, 0
1, 80080, Note_on_c, 0, 65, 48
1, 80080, Note_on_c, 0, 53, 51
1, 80160, Tempo, 1200240
1, 80160, Note_on_c, 0, 53, 0
1, 80160, Note_on_c, 0, 65, 0
1, 80160, Note_on_c, 0, 68, 0
1, 80160, Note_on_c, 0, 68, 67
1, 80160, Note_on_c, 0, 65, 67
1, 80160, Note_on_c, 0, 73, 81
1, 80160, Note_on_c, 0, 53, 57
1, 80160, Note_on_c, 0, 56, 57
1, 80160, Note_on_c, 0, 61, 68
1, 80320, Note_on_c, 0, 61, 0
1, 80320, Note_on_c, 0, 53, 0
1, 80320, Note_on_c, 0, 56, 0
1, 80320, Note_on_c, 0, 25, 47
1, 80320, Note_on_c, 0, 37, 56
1, 80392, Note_on_c, 0, 37, 0
1, 80392, Note_on_c, 0, 25, 0
1, 80400, Tempo, 1071620
1, 80400, Note_on_c, 0, 25, 50
1, 80400, Note_on_c, 0, 37, 60
1, 80480, Note_on_c, 0, 37, 0
1, 80480, Note_on_c, 0, 25, 0
1, 80480, Note_on_c, 0, 32, 53
1, 80480, Note_on_c, 0, 44, 63
1, 80520, Note_on_c, 0, 68, 0
1, 80520, Note_on_c, 0, 65, 0
1, 80520, Note_on_c, 0, 56, 52
1, 80520, Note_on_c, 0, 61, 52
1, 80520, Note_on_c, 0, 65, 62
1, 80560, Note_on_c, 0, 44, 0
1, 80560, Note_on_c, 0, 32, 0
1, 80560, Note_on_c, 0, 37, 56
1, 80560, Note_on_c, 0, 49, 66
1, 80639, Note_on_c, 0, 56, 0
1, 80639, Note_on_c, 0, 61, 0
1, 80639, Note_on_c, 0, 65, 0
1, 80640, Tempo, 1143075
1, 80640, Note_on_c, 0, 49, 0
1, 80640, Note_on_c, 0, 37, 0
1, 80640, Note_on_c, 0, 60, 59
1, 80640, Note_on_c, 0, 61, 59
1, 80640, Note_on_c, 0, 68, 77
1, 80640, Note_on_c, 0, 37, 79
1, 80640, Note_on_c, 0, 49, 79
1, 80652, Control_c, 0, 64, 0
1, 80720, Note_on_c, 0, 49, 0
1, 80720, Note_on_c, 0, 41, 58
1, 80760, Control_c, 0, 64, 127
1, 80800, Note_on_c, 0, 41, 0
1, 80800, Note_on_c, 0, 42, 58
1, 80878, Note_on_c, 0, 68, 0
1, 80878, Note_on_c, 0, 61, 0
1, 80878, Note_on_c, 0, 60, 0
1, 80880, Note_on_c, 0, 42, 0
1, 80880, Note_on_c, 0, 59, 52
1, 80880, Note_on_c, 0, 61, 52
1, 80880, Note_on_c, 0, 67, 68
1, 80880, Note_on_c, 0, 43, 59
1, 80960, Note_on_c, 0, 43, 0
1, 80960, Note_on_c, 0, 44, 60
1, 81000, Tempo, 1154068
1, 81040, Note_on_c, 0, 44, 0
1, 81040, Note_on_c, 0, 45, 60
1, 81118, Note_on_c, 0, 67, 0
1, 81118, Note_on_c, 0, 59, 0
1, 81118, Note_on_c, 0, 61, 0
1, 81120, Tempo, 1121705
1, 81120, Note_on_c, 0, 45, 0
1, 81120, Note_on_c, 0, 73, 0
1, 81120, Note_on_c, 0, 58, 56
1, 81120, Note_on_c, 0, 61, 56
1, 81120, Note_on_c, 0, 66, 72
1, 81120, Note_on_c, 0, 68, 66
1, 81120, Note_on_c, 0, 46, 61
1, 81132, Control_c, 0, 64, 0
1, 81163, Control_c, 0, 64, 127
1, 81200, Note_on_c, 0, 46, 0
1, 81200, Note_on_c, 0, 47, 61
1, 81280, Note_on_c, 0, 47, 0
1, 81280, Note_on_c, 0, 48, 62
1, 81358, Note_on_c, 0, 66, 0
1, 81358, Note_on_c, 0, 61, 0
1, 81358, Note_on_c, 0, 58, 0
1, 81360, Note_on_c, 0, 48, 0
1, 81360, Note_on_c, 0, 57, 49
1, 81360, Note_on_c, 0, 61, 49
1, 81360, Note_on_c, 0, 65, 64
1, 81360, Note_on_c, 0, 45, 53
1, 81360, Note_on_c, 0, 49, 63
1, 81440, Note_on_c, 0, 49, 0
1, 81440, Note_on_c, 0, 45, 0
1, 81440, Note_on_c, 0, 53, 63
1, 81480, Tempo, 1318971
1, 81520, Note_on_c, 0, 53, 0
1, 81520, Note_on_c, 0, 32, 59
1, 81598, Note_on_c, 0, 65, 0
1, 81598, Note_on_c, 0, 57, 0
1, 81598, Note_on_c, 0, 61, 0
1, 81600, Tempo, 1200240
1, 81600, Note_on_c, 0, 37, 0
1, 81600, Note_on_c, 0, 68, 0
1, 81600, Note_on_c, 0, 32, 0
1, 81600, Note_on_c, 0, 53, 67
1, 81600, Note_on_c, 0, 61, 79
1, 81600, Note_on_c, 0, 25, 47
1, 81600, Note_on_c, 0, 37, 59
1, 81600, Control_c, 0, 64, 0
1, 81643, Control_c, 0, 64, 127
1, 81760, Note_on_c, 0, 37, 0
1, 81760, Note_on_c, 0, 25, 0
1, 81760, Note_on_c, 0, 53, 0
1, 81760, Note_on_c, 0, 53, 48
1, 81760, Note_on_c, 0, 44, 31
1, 81760, Note_on_c, 0, 49, 38
1, 81840, Note_on_c, 0, 49, 0
1, 81840, Note_on_c, 0, 44, 0
1, 81840, Note_on_c, 0, 53, 0
1, 81840, Note_on_c, 0, 65, 48
1, 81840, Note_on_c, 0, 56, 44
1, 81920, Note_on_c, 0, 56, 0
1, 81920, Note_on_c, 0, 65, 0
1, 81920, Note_on_c, 0, 63, 48
1, 81920, Note_on_c, 0, 51, 31
1, 81920, Note_on_c, 0, 56, 38
1, 81960, Tempo, 1091107
1, 81960, Note_on_c, 0, 61, 0
1, 81960, Note_on_c, 0, 68, 80
1, 82000, Note_on_c, 0, 63, 0
1, 82000, Note_on_c, 0, 56, 0
1, 82000, Note_on_c, 0, 51, 0
1, 82000, Note_on_c, 0, 65, 48
1, 82000, Note_on_c, 0, 53, 51
1, 82080, Tempo, 1188354
1, 82080, Note_on_c, 0, 53, 0
1, 82080, Note_on_c, 0, 65, 0
1, 82080, Note_on_c, 0, 68, 0
1, 82080, Note_on_c, 0, 68, 67
1, 82080, Note_on_c, 0, 65, 67
1, 82080, Note_on_c, 0, 73, 81
1, 82080, Note_on_c, 0, 53, 57
1, 82080, Note_on_c, 0, 56, 57
1, 82080, Note_on_c, 0, 61, 68
1, 82240, Note_on_c, 0, 61, 0
1, 82240, Note_on_c, 0, 53, 0
1, 82240, Note_on_c, 0, 56, 0
1, 82240, Note_on_c, 0, 25, 47
1, 82240, Note_on_c, 0, 37, 56
1, 82312, Note_on_c, 0, 37, 0
1, 82312, Note_on_c, 0, 25, 0
1, 82320, Tempo, 1091107
1, 82320, Note_on_c, 0, 25, 50
1, 82320, Note_on_c, 0, 37, 60
1, 82400, Note_on_c, 0, 37, 0
1, 82400, Note_on_c, 0, 25, 0
1, 82400, Note_on_c, 0, 32, 53
1, 82400, Note_on_c, 0, 44, 63
1, 82440, Note_on_c, 0, 68, 0
1, 82440, Note_on_c, 0, 65, 0
1, 82440, Note_on_c, 0, 56, 52
1, 82440, Note_on_c, 0, 61, 52
1, 82440, Note_on_c, 0, 65, 62
1, 82480, Note_on_c, 0, 44, 0
1, 82480, Note_on_c, 0, 32, 0
1, 82480, Note_on_c, 0, 37, 56
1, 82480, Note_on_c, 0, 49, 66
1, 82559, Note_on_c, 0, 56, 0
1, 82559, Note_on_c, 0, 61, 0
1, 82559, Note_on_c, 0, 65, 0
1, 82560, Tempo, 1143075
1, 82560, Note_on_c, 0, 49, 0
1, 82560, Note_on_c, 0, 37, 0
1, 82560, Note_on_c, 0, 60, 59
1, 82560, Note_on_c, 0, 61, 59
1, 82560, Note_on_c, 0, 68, 77
1, 82560, Note_on_c, 0, 37, 79
1, 82560, Note_on_c, 0, 49, 79
1, 82572, Control_c, 0, 64, 0
1, 82640, Note_on_c, 0, 49, 0
1, 82640, Note_on_c, 0, 41, 58
1, 82680, Control_c, 0, 64, 127
1, 82720, Note_on_c, 0, 41, 0
1, 82720, Note_on_c, 0, 42, 58
1, 82798, Note_on_c, 0, 68, 0
1, 82798, Note_on_c, 0, 61, 0
1, 82798, Note_on_c, 0, 60, 0
1, 82800, Note_on_c, 0, 42, 0
1, 82800, Note_on_c, 0, 59, 52
1, 82800, Note_on_c, 0, 61, 52
1, 82800, Note_on_c, 0, 67, 68
1, 82800, Note_on_c, 0, 43, 59
1, 82880, Note_on_c, 0, 43, 0
1, 82880, Note_on_c, 0, 44, 60
1, 82960, Note_on_c, 0, 44, 0
1, 82960, Note_on_c, 0, 45, 60
1, 83038, Note_on_c, 0, 67, 0
1, 83038, Note_on_c, 0, 59, 0
1, 83038, Note_on_c, 0, 61, 0
1, 83040, Tempo, 1143075
1, 83040, Note_on_c, 0, 45, 0
1, 83040, Note_on_c, 0, 73, 0
1, 83040, Note_on_c, 0, 58, 56
1, 83040, Note_on_c, 0, 61, 56
1, 83040, Note_on_c, 0, 66, 72
1, 83040, Note_on_c, 0, 68, 66
1, 83040, Note_on_c, 0, 46, 61
1, 83051, Control_c, 0, 64, 0
1, 83088, Control_c, 0, 64, 127
1, 83120, Note_on_c, 0, 46, 0
1, 83120, Note_on_c, 0, 47, 61
1, 83200, Note_on_c, 0, 47, 0
1, 83200, Note_on_c, 0, 48, 62
1, 83278, Note_on_c, 0, 66, 0
1, 83278, Note_on_c, 0, 61, 0
1, 83278, Note_on_c, 0, 58, 0
1, 83280, Note_on_c, 0, 48, 0
1, 83280, Note_on_c, 0, 57, 49
1, 83280, Note_on_c, 0, 61, 49
1, 83280, Note_on_c, 0, 65, 64
1, 83280, Note_on_c, 0, 45, 53
1, 83280, Note_on_c, 0, 49, 63
1, 83360, Note_on_c, 0, 49, 0
1, 83360, Note_on_c, 0, 45, 0
1, 83360, Note_on_c, 0, 53, 63
1, 83400, Tempo, 1318971
1, 83440, Note_on_c, 0, 53, 0
1, 83440, Note_on_c, 0, 32, 59
1, 83518, Note_on_c, 0, 65, 0
1, 83518, Note_on_c, 0, 57, 0
1, 83518, Note_on_c, 0, 61, 0
1, 83520, Tempo, 1200240
1, 83520, Note_on_c, 0, 37, 0
1, 83520, Note_on_c, 0, 68, 0
1, 83520, Note_on_c, 0, 32, 0
1, 83520, Note_on_c, 0, 53, 67
1, 83520, Note_on_c, 0, 61, 79
1, 83520, Note_on_c, 0, 25, 47
1, 83520, Note_on_c, 0, 37, 59
1, 83520, Control_c, 0, 64, 0
1, 83563, Control_c, 0, 64, 127
1, 83680, Note_on_c, 0, 37, 0
1, 83680, Note_on_c, 0, 25, 0
1, 83680, Note_on_c, 0, 53, 0
1, 83680, Note_on_c, 0, 53, 48
1, 83680, Note_on_c, 0, 44, 31
1, 83680, Note_on_c, 0, 49, 38
1, 83760, Note_on_c, 0, 49, 0
1, 83760, Note_on_c, 0, 44, 0
1, 83760, Note_on_c, 0, 53, 0
1, 83760, Note_on_c, 0, 65, 48
1, 83760, Note_on_c, 0, 56, 44
1, 83840, Note_on_c, 0, 56, 0
1, 83840, Note_on_c, 0, 65, 0
1, 83840, Note_on_c, 0, 63, 48
1, 83840, Note_on_c, 0, 51, 31
1, 83840, Note_on_c, 0, 56, 38
1, 83880, Tempo, 1091107
1, 83880, Note_on_c, 0, 61, 0
1, 83880, Note_on_c, 0, 68, 80
1, 83920, Note_on_c, 0, 63, 0
1, 83920, Note_on_c, 0, 56, 0
1, 83920, Note_on_c, 0, 51, 0
1, 83920, Note_on_c, 0, 65, 48
1, 83920, Note_on_c, 0, 53, 51
1, 84000, Tempo, 1188354
1, 84000, Note_on_c, 0, 53, 0
1, 84000, Note_on_c, 0, 65, 0
1, 84000, Note_on_c, 0, 68, 0
1, 84000, Note_on_c, 0, 68, 67
1, 84000, Note_on_c, 0, 65, 67
1, 84000, Note_on_c, 0, 77, 81
1, 84000, Note_on_c, 0, 53, 57
1, 84000, Note_on_c, 0, 61, 68
1, 84160, Note_on_c, 0, 61, 0
1, 84160, Note_on_c, 0, 53, 0
1, 84160, Note_on_c, 0, 32, 47
1, 84160, Note_on_c, 0, 44, 56
1, 84232, Note_on_c, 0, 44, 0
1, 84232, Note_on_c, 0, 32, 0
1, 84240, Tempo, 1091107
1, 84240, Note_on_c, 0, 32, 50
1, 84240, Note_on_c, 0, 44, 60
1, 84320, Note_on_c, 0, 44, 0
1, 84320, Note_on_c, 0, 32, 0
1, 84320, Note_on_c, 0, 49, 63
1, 84320, Note_on_c, 0, 37, 53
1, 84360, Note_on_c, 0, 68, 0
1, 84360, Note_on_c, 0, 65, 0
1, 84360, Note_on_c, 0, 56, 52
1, 84360, Note_on_c, 0, 65, 52
1, 84360, Note_on_c, 0, 68, 62
1, 84400, Note_on_c, 0, 49, 0
1, 84400, Note_on_c, 0, 37, 0
1, 84400, Note_on_c, 0, 44, 56
1, 84400, Note_on_c, 0, 56, 66
1, 84479, Note_on_c, 0, 65, 0
1, 84479, Note_on_c, 0, 56, 0
1, 84479, Note_on_c, 0, 68, 0
1, 84480, Tempo, 1132289
1, 84480, Note_on_c, 0, 56, 0
1, 84480, Note_on_c, 0, 44, 0
1, 84480, Note_on_c, 0, 61, 59
1, 84480, Note_on_c, 0, 65, 59
1, 84480, Note_on_c, 0, 73, 77
1, 84480, Note_on_c, 0, 44, 79
1, 84480, Note_on_c, 0, 56, 79
1, 84492, Control_c, 0, 64, 0
1, 84600, Control_c, 0, 64, 127
1, 84640, Note_on_c, 0, 56, 0
1, 84640, Note_on_c, 0, 52, 58
1, 84718, Note_on_c, 0, 61, 0
1, 84718, Note_on_c, 0, 65, 0
1, 84718, Note_on_c, 0, 73, 0
1, 84720, Note_on_c, 0, 52, 0
1, 84720, Note_on_c, 0, 64, 52
1, 84720, Note_on_c, 0, 65, 52
1, 84720, Note_on_c, 0, 72, 68
1, 84720, Note_on_c, 0, 53, 59
1, 84800, Note_on_c, 0, 53, 0
1, 84800, Note_on_c, 0, 54, 60
1, 84880, Note_on_c, 0, 54, 0
1, 84880, Note_on_c, 0, 55, 60
1, 84958, Note_on_c, 0, 72, 0
1, 84958, Note_on_c, 0, 64, 0
1, 84958, Note_on_c, 0, 65, 0
1, 84960, Tempo, 1121705
1, 84960, Note_on_c, 0, 77, 0
1, 84960, Note_on_c, 0, 44, 0
1, 84960, Note_on_c, 0, 55, 0
1, 84960, Note_on_c, 0, 63, 56
1, 84960, Note_on_c, 0, 65, 56
1, 84960, Note_on_c, 0, 71, 72
1, 84960, Note_on_c, 0, 73, 66
1, 84960, Note_on_c, 0, 47, 72
1, 84960, Note_on_c, 0, 56, 61
1, 84971, Control_c, 0, 64, 0
1, 85008, Control_c, 0, 64, 127
1, 85040, Note_on_c, 0, 56, 0
1, 85040, Note_on_c, 0, 57, 61
1, 85120, Note_on_c, 0, 57, 0
1, 85120, Note_on_c, 0, 58, 62
1, 85198, Note_on_c, 0, 71, 0
1, 85198, Note_on_c, 0, 63, 0
1, 85198, Note_on_c, 0, 65, 0
1, 85200, Note_on_c, 0, 58, 0
1, 85200, Note_on_c, 0, 47, 0
1, 85200, Note_on_c, 0, 62, 49
1, 85200, Note_on_c, 0, 65, 49
1, 85200, Note_on_c, 0, 70, 64
1, 85200, Note_on_c, 0, 53, 72
1, 85200, Note_on_c, 0, 59, 63
1, 85280, Note_on_c, 0, 59, 0
1, 85280, Note_on_c, 0, 60, 63
1, 85320, Tempo, 1276867
1, 85360, Note_on_c, 0, 60, 0
1, 85360, Note_on_c, 0, 61, 59
1, 85438, Note_on_c, 0, 70, 0
1, 85438, Note_on_c, 0, 65, 0
1, 85438, Note_on_c, 0, 62, 0
1, 85440, Tempo, 1200240
1, 85440, Note_on_c, 0, 73, 0
1, 85440, Note_on_c, 0, 53, 0
1, 85440, Note_on_c, 0, 61, 0
1, 85440, Note_on_c, 0, 54, 67
1, 85440, Note_on_c, 0, 58, 67
1, 85440, Note_on_c, 0, 66, 79
1, 85440, Note_on_c, 0, 25, 47
1, 85440, Note_on_c, 0, 37, 59
1, 85440, Control_c, 0, 64, 0
1, 85483, Control_c, 0, 64, 127
1, 85600, Note_on_c, 0, 37, 0
1, 85600, Note_on_c, 0, 58, 0
1, 85600, Note_on_c, 0, 25, 0
1, 85600, Note_on_c, 0, 61, 48
1, 85600, Note_on_c, 0, 66, 48
1, 85600, Note_on_c, 0, 46, 31
1, 85600, Note_on_c, 0, 54, 38
1, 85620, Note_on_c, 0, 54, 0
1, 85660, Note_on_c, 0, 61, 0
1, 85680, Note_on_c, 0, 66, 0
1, 85680, Note_on_c, 0, 46, 0
1, 85680, Note_on_c, 0, 54, 0
1, 85680, Note_on_c, 0, 73, 48
1, 85680, Note_on_c, 0, 61, 44
1, 85760, Note_on_c, 0, 61, 0
1, 85760, Note_on_c, 0, 73, 0
1, 85760, Note_on_c, 0, 68, 48
1, 85760, Note_on_c, 0, 61, 38
1, 85760, Note_on_c, 0, 56, 31
1, 85800, Tempo, 1091107
1, 85800, Note_on_c, 0, 66, 0
1, 85800, Note_on_c, 0, 73, 85
1, 85840, Note_on_c, 0, 68, 0
1, 85840, Note_on_c, 0, 56, 0
1, 85840, Note_on_c, 0, 61, 0
1, 85840, Note_on_c, 0, 70, 48
1, 85840, Note_on_c, 0, 58, 51
1, 85920, Tempo, 1188354
1, 85920, Note_on_c, 0, 58, 0
1, 85920, Note_on_c, 0, 70, 0
1, 85920, Note_on_c, 0, 73, 0
1, 85920, Note_on_c, 0, 73, 67
1, 85920, Note_on_c, 0, 70, 67
1, 85920, Note_on_c, 0, 82, 81
1, 85920, Note_on_c, 0, 61, 57
1, 85920, Note_on_c, 0, 58, 57
1, 85920, Note_on_c, 0, 66, 68
1, 86080, Note_on_c, 0, 66, 0
1, 86080, Note_on_c, 0, 61, 0
1, 86080, Note_on_c, 0, 58, 0
1, 86080, Note_on_c, 0, 37, 47
1, 86080, Note_on_c, 0, 49, 56
1, 86152, Note_on_c, 0, 49, 0
1, 86152, Note_on_c, 0, 37, 0
1, 86160, Tempo, 1091107
1, 86160, Note_on_c, 0, 37, 50
1, 86160, Note_on_c, 0, 49, 60
1, 86240, Note_on_c, 0, 49, 0
1, 86240, Note_on_c, 0, 37, 0
1, 86240, Note_on_c, 0, 42, 53
1, 86240, Note_on_c, 0, 54, 63
1, 86280, Note_on_c, 0, 73, 0
1, 86280, Note_on_c, 0, 70, 0
1, 86280, Note_on_c, 0, 61, 52
1, 86280, Note_on_c, 0, 70, 52
1, 86280, Note_on_c, 0, 73, 62
1, 86320, Note_on_c, 0, 54, 0
1, 86320, Note_on_c, 0, 42, 0
1, 86320, Note_on_c, 0, 49, 56
1, 86320, Note_on_c, 0, 61, 66
1, 86399, Note_on_c, 0, 61, 0
1, 86399, Note_on_c, 0, 70, 0
1, 86399, Note_on_c, 0, 73, 0
1, 86400, Tempo, 1132289
1, 86400, Note_on_c, 0, 61, 0
1, 86400, Note_on_c, 0, 49, 0
1, 86400, Note_on_c, 0, 68, 59
1, 86400, Note_on_c, 0, 65, 59
1, 86400, Note_on_c, 0, 70, 59
1, 86400, Note_on_c, 0, 77, 77
1, 86400, Note_on_c, 0, 49, 79
1, 86400, Note_on_c, 0, 61, 79
1, 86412, Control_c, 0, 64, 0
1, 86520, Control_c, 0, 64, 127
1, 86560, Note_on_c, 0, 61, 0
1, 86560, Note_on_c, 0, 49, 0
1, 86560, Note_on_c, 0, 44, 58
1, 86638, Note_on_c, 0, 68, 0
1, 86638, Note_on_c, 0, 70, 0
1, 86638, Note_on_c, 0, 65, 0
1, 86638, Note_on_c, 0, 77, 0
1, 86640, Note_on_c, 0, 44, 0
1, 86640, Note_on_c, 0, 67, 52
1, 86640, Note_on_c, 0, 70, 52
1, 86640, Note_on_c, 0, 76, 68
1, 86640, Note_on_c, 0, 37, 72
1, 86640, Note_on_c, 0, 46, 59
1, 86720, Note_on_c, 0, 46, 0
1, 86720, Note_on_c, 0, 48, 60
1, 86800, Note_on_c, 0, 48, 0
1, 86800, Note_on_c, 0, 49, 60
1, 86878, Note_on_c, 0, 76, 0
1, 86878, Note_on_c, 0, 70, 0
1, 86878, Note_on_c, 0, 67, 0
1, 86880, Tempo, 1121705
1, 86880, Note_on_c, 0, 82, 0
1, 86880, Note_on_c, 0, 37, 0
1, 86880, Note_on_c, 0, 49, 0
1, 86880, Note_on_c, 0, 66, 56
1, 86880, Note_on_c, 0, 70, 56
1, 86880, Note_on_c, 0, 75, 72
1, 86880, Note_on_c, 0, 80, 64
1, 86880, Note_on_c, 0, 46, 72
1, 86880, Note_on_c, 0, 51, 61
1, 86891, Control_c, 0, 64, 0
1, 86928, Control_c, 0, 64, 127
1, 86960, Note_on_c, 0, 51, 0
1, 86960, Note_on_c, 0, 53, 61
1, 87040, Note_on_c, 0, 53, 0
1, 87040, Note_on_c, 0, 54, 62
1, 87118, Note_on_c, 0, 75, 0
1, 87118, Note_on_c, 0, 66, 0
1, 87118, Note_on_c, 0, 70, 0
1, 87120, Note_on_c, 0, 54, 0
1, 87120, Note_on_c, 0, 46, 0
1, 87120, Note_on_c, 0, 66, 49
1, 87120, Note_on_c, 0, 68, 49
1, 87120, Note_on_c, 0, 74, 64
1, 87120, Note_on_c, 0, 47, 72
1, 87120, Note_on_c, 0, 50, 72
1, 87120, Note_on_c, 0, 56, 63
1, 87200, Note_on_c, 0, 56, 0
1, 87200, Note_on_c, 0, 57, 63
1, 87240, Tempo, 1276867
1, 87280, Note_on_c, 0, 57, 0
1, 87280, Note_on_c, 0, 59, 59
1, 87358, Note_on_c, 0, 74, 0
1, 87358, Note_on_c, 0, 68, 0
1, 87358, Note_on_c, 0, 66, 0
1, 87360, Tempo, 1200240
1, 87360, Note_on_c, 0, 47, 0
1, 87360, Note_on_c, 0, 80, 0
1, 87360, Note_on_c, 0, 50, 0
1, 87360, Note_on_c, 0, 59, 0
1, 87360, Note_on_c, 0, 61, 67
1, 87360, Note_on_c, 0, 65, 67
1, 87360, Note_on_c, 0, 73, 79
1, 87360, Note_on_c, 0, 25, 47
1, 87360, Note_on_c, 0, 37, 59
1, 87360, Control_c, 0, 64, 0
1, 87403, Control_c, 0, 64, 127
1, 87520, Note_on_c, 0, 37, 0
1, 87520, Note_on_c, 0, 65, 0
1, 87520, Note_on_c, 0, 61, 0
1, 87520, Note_on_c, 0, 25, 0
1, 87520, Note_on_c, 0, 61, 48
1, 87520, Note_on_c, 0, 65, 48
1, 87520, Note_on_c, 0, 44, 31
1, 87520, Note_on_c, 0, 49, 31
1, 87520, Note_on_c, 0, 56, 38
1, 87580, Note_on_c, 0, 61, 0
1, 87592, Note_on_c, 0, 49, 0
1, 87592, Note_on_c, 0, 44, 0
1, 87592, Note_on_c, 0, 56, 0
1, 87600, Note_on_c, 0, 65, 0
1, 87600, Note_on_c, 0, 73, 48
1, 87600, Note_on_c, 0, 44, 44
1, 87600, Note_on_c, 0, 49, 44
1, 87600, Note_on_c, 0, 56, 44
1, 87680, Note_on_c, 0, 56, 0
1, 87680, Note_on_c, 0, 44, 0
1, 87680, Note_on_c, 0, 49, 0
1, 87680, Note_on_c, 0, 73, 0
1, 87680, Note_on_c, 0, 75, 48
1, 87680, Note_on_c, 0, 51, 44
1, 87680, Note_on_c, 0, 63, 38
1, 87680, Note_on_c, 0, 56, 31
1, 87720, Tempo, 1091107
1, 87720, Note_on_c, 0, 73, 0
1, 87720, Note_on_c, 0, 68, 74
1, 87720, Note_on_c, 0, 80, 85
1, 87760, Note_on_c, 0, 63, 0
1, 87760, Note_on_c, 0, 56, 0
1, 87760, Note_on_c, 0, 75, 0
1, 87760, Note_on_c, 0, 51, 0
1, 87760, Note_on_c, 0, 77, 48
1, 87760, Note_on_c, 0, 53, 44
1, 87760, Note_on_c, 0, 65, 51
1, 87840, Tempo, 1188354
1, 87840, Note_on_c, 0, 65, 0
1, 87840, Note_on_c, 0, 77, 0
1, 87840, Note_on_c, 0, 68, 0
1, 87840, Note_on_c, 0, 80, 0
1, 87840, Note_on_c, 0, 53, 0
1, 87840, Note_on_c, 0, 77, 67
1, 87840, Note_on_c, 0, 73, 67
1, 87840, Note_on_c, 0, 85, 81
1, 87840, Note_on_c, 0, 56, 57
1, 87840, Note_on_c, 0, 53, 57
1, 87840, Note_on_c, 0, 65, 68
1, 88000, Note_on_c, 0, 65, 0
1, 88000, Note_on_c, 0, 56, 0
1, 88000, Note_on_c, 0, 53, 0
1, 88000, Note_on_c, 0, 37, 56
1, 88080, Tempo, 1091107
1, 88080, Note_on_c, 0, 37, 0
1, 88080, Note_on_c, 0, 44, 60
1, 88160, Note_on_c, 0, 44, 0
1, 88160, Note_on_c, 0, 53, 63
1, 88200, Note_on_c, 0, 77, 0
1, 88200, Note_on_c, 0, 73, 0
1, 88200, Note_on_c, 0, 65, 52
1, 88200, Note_on_c, 0, 68, 52
1, 88200, Note_on_c, 0, 73, 52
1, 88200, Note_on_c, 0, 77, 62
1, 88240, Note_on_c, 0, 53, 0
1, 88240, Note_on_c, 0, 56, 66
1, 88318, Note_on_c, 0, 65, 0
1, 88318, Note_on_c, 0, 73, 0
1, 88318, Note_on_c, 0, 68, 0
1, 88318, Note_on_c, 0, 77, 0
1, 88319, Note_on_c, 0, 56, 0
1, 88320, Tempo, 1132289
1, 88320, Note_on_c, 0, 72, 59
1, 88320, Note_on_c, 0, 68, 59
1, 88320, Note_on_c, 0, 73, 59
1, 88320, Note_on_c, 0, 80, 77
1, 88320, Note_on_c, 0, 53, 67
1, 88320, Note_on_c, 0, 56, 68
1, 88320, Note_on_c, 0, 60, 79
1, 88332, Control_c, 0, 64, 0
1, 88384, Control_c, 0, 64, 127
1, 88480, Note_on_c, 0, 60, 0
1, 88480, Note_on_c, 0, 56, 0
1, 88480, Note_on_c, 0, 53, 0
1, 88480, Note_on_c, 0, 44, 70
1, 88558, Note_on_c, 0, 72, 0
1, 88558, Note_on_c, 0, 73, 0
1, 88558, Note_on_c, 0, 68, 0
1, 88558, Note_on_c, 0, 80, 0
1, 88560, Note_on_c, 0, 44, 0
1, 88560, Note_on_c, 0, 67, 52
1, 88560, Note_on_c, 0, 71, 52
1, 88560, Note_on_c, 0, 73, 52
1, 88560, Note_on_c, 0, 79, 68
1, 88560, Note_on_c, 0, 45, 53
1, 88560, Note_on_c, 0, 49, 53
1, 88560, Note_on_c, 0, 53, 54
1, 88560, Note_on_c, 0, 59, 63
1, 88571, Control_c, 0, 64, 0
1, 88648, Control_c, 0, 64, 127
1, 88720, Note_on_c, 0, 59, 0
1, 88720, Note_on_c, 0, 53, 0
1, 88720, Note_on_c, 0, 49, 0
1, 88720, Note_on_c, 0, 45, 0
1, 88720, Note_on_c, 0, 37, 70
1, 88798, Note_on_c, 0, 67, 0
1, 88798, Note_on_c, 0, 73, 0
1, 88798, Note_on_c, 0, 71, 0
1, 88798, Note_on_c, 0, 79, 0
1, 88800, Tempo, 1121705
1, 88800, Note_on_c, 0, 85, 0
1, 88800, Note_on_c, 0, 37, 0
1, 88800, Note_on_c, 0, 70, 56
1, 88800, Note_on_c, 0, 66, 56
1, 88800, Note_on_c, 0, 73, 56
1, 88800, Note_on_c, 0, 78, 72
1, 88800, Note_on_c, 0, 80, 64
1, 88800, Note_on_c, 0, 46, 53
1, 88800, Note_on_c, 0, 49, 53
1, 88800, Note_on_c, 0, 54, 54
1, 88800, Note_on_c, 0, 58, 63
1, 88811, Control_c, 0, 64, 0
1, 88848, Control_c, 0, 64, 127
1, 88960, Note_on_c, 0, 58, 0
1, 88960, Note_on_c, 0, 54, 0
1, 88960, Note_on_c, 0, 49, 0
1, 88960, Note_on_c, 0, 46, 0
1, 88960, Note_on_c, 0, 37, 70
1, 89038, Note_on_c, 0, 66, 0
1, 89038, Note_on_c, 0, 70, 0
1, 89038, Note_on_c, 0, 73, 0
1, 89038, Note_on_c, 0, 78, 0
1, 89040, Note_on_c, 0, 37, 0
1, 89040, Note_on_c, 0, 69, 49
1, 89040, Note_on_c, 0, 65, 49
1, 89040, Note_on_c, 0, 73, 49
1, 89040, Note_on_c, 0, 77, 64
1, 89040, Note_on_c, 0, 48, 53
1, 89040, Note_on_c, 0, 53, 54
1, 89040, Note_on_c, 0, 57, 63
1, 89050, Control_c, 0, 64, 0
1, 89100, Control_c, 0, 64, 127
1, 89160, Tempo, 1276867
1, 89200, Note_on_c, 0, 57, 0
1, 89200, Note_on_c, 0, 53, 0
1, 89200, Note_on_c, 0, 48, 0
1, 89200, Note_on_c, 0, 37, 70
1, 89278, Note_on_c, 0, 69, 0
1, 89278, Note_on_c, 0, 73, 0
1, 89278, Note_on_c, 0, 65, 0
1, 89278, Note_on_c, 0, 77, 0
1, 89280, Tempo, 1200240
1, 89280, Note_on_c, 0, 80, 0
1, 89280, Note_on_c, 0, 37, 0
1, 89280, Note_on_c, 0, 61, 67
1, 89280, Note_on_c, 0, 65, 67
1, 89280, Note_on_c, 0, 73, 79
1, 89280, Note_on_c, 0, 25, 47
1, 89280, Note_on_c, 0, 37, 59
1, 89280, Control_c, 0, 64, 0
1, 89323, Control_c, 0, 64, 127
1, 89440, Note_on_c, 0, 37, 0
1, 89440, Note_on_c, 0, 65, 0
1, 89440, Note_on_c, 0, 25, 0
1, 89440, Note_on_c, 0, 65, 48
1, 89440, Note_on_c, 0, 68, 48
1, 89440, Note_on_c, 0, 44, 31
1, 89440, Note_on_c, 0, 49, 31
1, 89440, Note_on_c, 0, 56, 38
1, 89460, Note_on_c, 0, 61, 0
1, 89500, Note_on_c, 0, 65, 0
1, 89512, Note_on_c, 0, 49, 0
1, 89512, Note_on_c, 0, 44, 0
1, 89512, Note_on_c, 0, 56, 0
1, 89520, Note_on_c, 0, 68, 0
1, 89520, Note_on_c, 0, 77, 48
1, 89520, Note_on_c, 0, 44, 44
1, 89520, Note_on_c, 0, 49, 44
1, 89520, Note_on_c, 0, 56, 44
1, 89600, Note_on_c, 0, 56, 0
1, 89600, Note_on_c, 0, 44, 0
1, 89600, Note_on_c, 0, 49, 0
1, 89600, Note_on_c, 0, 77, 0
1, 89600, Note_on_c, 0, 75, 48
1, 89600, Note_on_c, 0, 51, 44
1, 89600, Note_on_c, 0, 63, 38
1, 89600, Note_on_c, 0, 56, 31
1, 89640, Tempo, 1091107
1, 89640, Note_on_c, 0, 73, 0
1, 89640, Note_on_c, 0, 68, 76
1, 89640, Note_on_c, 0, 80, 85
1, 89680, Note_on_c, 0, 63, 0
1, 89680, Note_on_c, 0, 56, 0
1, 89680, Note_on_c, 0, 75, 0
1, 89680, Note_on_c, 0, 51, 0
1, 89680, Note_on_c, 0, 77, 48
1, 89680, Note_on_c, 0, 53, 44
1, 89680, Note_on_c, 0, 65, 51
1, 89760, Tempo, 1188354
1, 89760, Note_on_c, 0, 65, 0
1, 89760, Note_on_c, 0, 77, 0
1, 89760, Note_on_c, 0, 68, 0
1, 89760, Note_on_c, 0, 80, 0
1, 89760, Note_on_c, 0, 53, 0
1, 89760, Note_on_c, 0, 77, 67
1, 89760, Note_on_c, 0, 73, 67
1, 89760, Note_on_c, 0, 85, 81
1, 89760, Note_on_c, 0, 56, 57
1, 89760, Note_on_c, 0, 53, 57
1, 89760, Note_on_c, 0, 65, 68
1, 89920, Note_on_c, 0, 65, 0
1, 89920, Note_on_c, 0, 56, 0
1, 89920, Note_on_c, 0, 53, 0
1, 89920, Note_on_c, 0, 37, 56
1, 90000, Tempo, 1091107
1, 90000, Note_on_c, 0, 37, 0
1, 90000, Note_on_c, 0, 44, 60
1, 90080, Note_on_c, 0, 44, 0
1, 90080, Note_on_c, 0, 53, 63
1, 90120, Note_on_c, 0, 77, 0
1, 90120, Note_on_c, 0, 73, 0
1, 90120, Note_on_c, 0, 65, 52
1, 90120, Note_on_c, 0, 68, 52
1, 90120, Note_on_c, 0, 73, 52
1, 90120, Note_on_c, 0, 77, 62
1, 90160, Note_on_c, 0, 53, 0
1, 90160, Note_on_c, 0, 56, 66
1, 90238, Note_on_c, 0, 65, 0
1, 90238, Note_on_c, 0, 73, 0
1, 90238, Note_on_c, 0, 68, 0
1, 90238, Note_on_c, 0, 77, 0
1, 90239, Note_on_c, 0, 56, 0
1, 90240, Tempo, 1132289
1, 90240, Note_on_c, 0, 75, 59
1, 90240, Note_on_c, 0, 71, 59
1, 90240, Note_on_c, 0, 77, 59
1, 90240, Note_on_c, 0, 83, 77
1, 90240, Note_on_c, 0, 53, 67
1, 90240, Note_on_c, 0, 56, 68
1, 90240, Note_on_c, 0, 63, 79
1, 90252, Control_c, 0, 64, 0
1, 90304, Control_c, 0, 64, 127
1, 90400, Note_on_c, 0, 63, 0
1, 90400, Note_on_c, 0, 56, 0
1, 90400, Note_on_c, 0, 53, 0
1, 90400, Note_on_c, 0, 44, 70
1, 90478, Note_on_c, 0, 75, 0
1, 90478, Note_on_c, 0, 77, 0
1, 90478, Note_on_c, 0, 71, 0
1, 90478, Note_on_c, 0, 83, 0
1, 90480, Note_on_c, 0, 44, 0
1, 90480, Note_on_c, 0, 70, 52
1, 90480, Note_on_c, 0, 74, 52
1, 90480, Note_on_c, 0, 77, 52
1, 90480, Note_on_c, 0, 82, 68
1, 90480, Note_on_c, 0, 53, 54
1, 90480, Note_on_c, 0, 62, 63
1, 90491, Control_c, 0, 64, 0
1, 90568, Control_c, 0, 64, 127
1, 90640, Note_on_c, 0, 62, 0
1, 90640, Note_on_c, 0, 53, 0
1, 90640, Note_on_c, 0, 37, 70
1, 90718, Note_on_c, 0, 70, 0
1, 90718, Note_on_c, 0, 77, 0
1, 90718, Note_on_c, 0, 74, 0
1, 90718, Note_on_c, 0, 82, 0
1, 90720, Tempo, 1121705
1, 90720, Note_on_c, 0, 85, 0
1, 90720, Note_on_c, 0, 37, 0
1, 90720, Note_on_c, 0, 73, 56
1, 90720, Note_on_c, 0, 69, 56
1, 90720, Note_on_c, 0, 77, 56
1, 90720, Note_on_c, 0, 81, 72
1, 90720, Note_on_c, 0, 85, 64
1, 90720, Note_on_c, 0, 53, 54
1, 90720, Note_on_c, 0, 61, 63
1, 90731, Control_c, 0, 64, 0
1, 90768, Control_c, 0, 64, 127
1, 90880, Note_on_c, 0, 61, 0
1, 90880, Note_on_c, 0, 53, 0
1, 90880, Note_on_c, 0, 44, 70
1, 90958, Note_on_c, 0, 69, 0
1, 90958, Note_on_c, 0, 77, 0
1, 90958, Note_on_c, 0, 73, 0
1, 90958, Note_on_c, 0, 81, 0
1, 90960, Note_on_c, 0, 44, 0
1, 90960, Note_on_c, 0, 73, 49
1, 90960, Note_on_c, 0, 68, 49
1, 90960, Note_on_c, 0, 77, 49
1, 90960, Note_on_c, 0, 80, 64
1, 90960, Note_on_c, 0, 53, 53
1, 90960, Note_on_c, 0, 59, 54
1, 90960, Note_on_c, 0, 61, 63
1, 90970, Control_c, 0, 64, 0
1, 91020, Control_c, 0, 64, 127
1, 91080, Tempo, 1276867
1, 91120, Note_on_c, 0, 61, 0
1, 91120, Note_on_c, 0, 59, 0
1, 91120, Note_on_c, 0, 53, 0
1, 91120, Note_on_c, 0, 49, 70
1, 91198, Note_on_c, 0, 73, 0
1, 91198, Note_on_c, 0, 77, 0
1, 91198, Note_on_c, 0, 68, 0
1, 91198, Note_on_c, 0, 80, 0
1, 91200, Tempo, 1200240
1, 91200, Note_on_c, 0, 85, 0
1, 91200, Note_on_c, 0, 49, 0
1, 91200, Note_on_c, 0, 66, 67
1, 91200, Note_on_c, 0, 70, 67
1, 91200, Note_on_c, 0, 73, 67
1, 91200, Note_on_c, 0, 78, 79
1, 91200, Note_on_c, 0, 25, 47
1, 91200, Note_on_c, 0, 37, 59
1, 91200, Control_c, 0, 64, 0
1, 91243, Control_c, 0, 64, 127
1, 91360, Note_on_c, 0, 37, 0
1, 91360, Note_on_c, 0, 70, 0
1, 91360, Note_on_c, 0, 66, 0
1, 91360, Note_on_c, 0, 73, 0
1, 91360, Note_on_c, 0, 25, 0
1, 91360, Note_on_c, 0, 66, 48
1, 91360, Note_on_c, 0, 73, 48
1, 91360, Note_on_c, 0, 42, 31
1, 91360, Note_on_c, 0, 54, 38
1, 91420, Note_on_c, 0, 66, 0
1, 91440, Note_on_c, 0, 42, 0
1, 91440, Note_on_c, 0, 54, 0
1, 91440, Note_on_c, 0, 73, 0
1, 91440, Note_on_c, 0, 78, 48
1, 91440, Note_on_c, 0, 61, 44
1, 91520, Note_on_c, 0, 61, 0
1, 91520, Note_on_c, 0, 78, 0
1, 91520, Note_on_c, 0, 80, 48
1, 91520, Note_on_c, 0, 56, 44
1, 91520, Note_on_c, 0, 68, 38
1, 91520, Note_on_c, 0, 61, 31
1, 91560, Tempo, 1091107
1, 91560, Note_on_c, 0, 78, 0
1, 91560, Note_on_c, 0, 73, 76
1, 91560, Note_on_c, 0, 85, 85
1, 91600, Note_on_c, 0, 68, 0
1, 91600, Note_on_c, 0, 61, 0
1, 91600, Note_on_c, 0, 80, 0
1, 91600, Note_on_c, 0, 56, 0
1, 91600, Note_on_c, 0, 82, 48
1, 91600, Note_on_c, 0, 58, 44
1, 91600, Note_on_c, 0, 70, 51
1, 91672, Note_on_c, 0, 70, 0
1, 91672, Note_on_c, 0, 58, 0
1, 91680, Tempo, 1188354
1, 91680, Note_on_c, 0, 73, 0
1, 91680, Note_on_c, 0, 85, 0
1, 91680, Note_on_c, 0, 82, 0
1, 91680, Note_on_c, 0, 78, 67
1, 91680, Note_on_c, 0, 85, 67
1, 91680, Note_on_c, 0, 82, 67
1, 91680, Note_on_c, 0, 90, 81
1, 91680, Note_on_c, 0, 58, 57
1, 91680, Note_on_c, 0, 66, 57
1, 91680, Note_on_c, 0, 61, 57
1, 91680, Note_on_c, 0, 70, 68
1, 91840, Note_on_c, 0, 70, 0
1, 91840, Note_on_c, 0, 61, 0
1, 91840, Note_on_c, 0, 66, 0
1, 91840, Note_on_c, 0, 46, 56
1, 91860, Note_on_c, 0, 58, 0
1, 91920, Tempo, 1091107
1, 91920, Note_on_c, 0, 46, 0
1, 91920, Note_on_c, 0, 54, 60
1, 92000, Note_on_c, 0, 54, 0
1, 92000, Note_on_c, 0, 61, 63
1, 92040, Note_on_c, 0, 82, 0
1, 92040, Note_on_c, 0, 78, 0
1, 92040, Note_on_c, 0, 85, 0
1, 92040, Note_on_c, 0, 70, 52
1, 92040, Note_on_c, 0, 73, 52
1, 92040, Note_on_c, 0, 78, 52
1, 92040, Note_on_c, 0, 82, 62
1, 92072, Note_on_c, 0, 61, 0
1, 92080, Note_on_c, 0, 61, 66
1, 92159, Note_on_c, 0, 70, 0
1, 92159, Note_on_c, 0, 78, 0
1, 92159, Note_on_c, 0, 73, 0
1, 92159, Note_on_c, 0, 82, 0
1, 92160, Tempo, 1132289
1, 92160, Note_on_c, 0, 77, 59
1, 92160, Note_on_c, 0, 73, 59
1, 92160, Note_on_c, 0, 78, 59
1, 92160, Note_on_c, 0, 85, 77
1, 92160, Note_on_c, 0, 54, 67
1, 92160, Note_on_c, 0, 58, 67
1, 92160, Note_on_c, 0, 65, 79
1, 92172, Control_c, 0, 64, 0
1, 92224, Control_c, 0, 64, 127
1, 92320, Note_on_c, 0, 65, 0
1, 92320, Note_on_c, 0, 58, 0
1, 92320, Note_on_c, 0, 54, 0
1, 92320, Note_on_c, 0, 61, 0
1, 92320, Note_on_c, 0, 49, 70
1, 92398, Note_on_c, 0, 77, 0
1, 92398, Note_on_c, 0, 78, 0
1, 92398, Note_on_c, 0, 73, 0
1, 92398, Note_on_c, 0, 85, 0
1, 92400, Note_on_c, 0, 49, 0
1, 92400, Note_on_c, 0, 72, 52
1, 92400, Note_on_c, 0, 76, 52
1, 92400, Note_on_c, 0, 78, 52
1, 92400, Note_on_c, 0, 84, 68
1, 92400, Note_on_c, 0, 54, 54
1, 92400, Note_on_c, 0, 58, 54
1, 92400, Note_on_c, 0, 64, 63
1, 92411, Control_c, 0, 64, 0
1, 92488, Control_c, 0, 64, 127
1, 92560, Note_on_c, 0, 64, 0
1, 92560, Note_on_c, 0, 58, 0
1, 92560, Note_on_c, 0, 54, 0
1, 92560, Note_on_c, 0, 46, 70
1, 92638, Note_on_c, 0, 72, 0
1, 92638, Note_on_c, 0, 78, 0
1, 92638, Note_on_c, 0, 76, 0
1, 92638, Note_on_c, 0, 84, 0
1, 92640, Tempo, 1121705
1, 92640, Note_on_c, 0, 90, 0
1, 92640, Note_on_c, 0, 46, 0
1, 92640, Note_on_c, 0, 75, 56
1, 92640, Note_on_c, 0, 71, 56
1, 92640, Note_on_c, 0, 78, 56
1, 92640, Note_on_c, 0, 83, 72
1, 92640, Note_on_c, 0, 85, 64
1, 92640, Note_on_c, 0, 54, 54
1, 92640, Note_on_c, 0, 58, 54
1, 92640, Note_on_c, 0, 63, 63
1, 92651, Control_c, 0, 64, 0
1, 92688, Control_c, 0, 64, 127
1, 92800, Note_on_c, 0, 63, 0
1, 92800, Note_on_c, 0, 58, 0
1, 92800, Note_on_c, 0, 54, 0
1, 92800, Note_on_c, 0, 42, 70
1, 92878, Note_on_c, 0, 71, 0
1, 92878, Note_on_c, 0, 75, 0
1, 92878, Note_on_c, 0, 78, 0
1, 92878, Note_on_c, 0, 83, 0
1, 92880, Note_on_c, 0, 42, 0
1, 92880, Note_on_c, 0, 74, 49
1, 92880, Note_on_c, 0, 70, 49
1, 92880, Note_on_c, 0, 78, 49
1, 92880, Note_on_c, 0, 82, 64
1, 92880, Note_on_c, 0, 54, 53
1, 92880, Note_on_c, 0, 58, 54
1, 92880, Note_on_c, 0, 62, 63
1, 92890, Control_c, 0, 64, 0
1, 92940, Control_c, 0, 64, 127
1, 93000, Tempo, 1276867
1, 93040, Note_on_c, 0, 62, 0
1, 93040, Note_on_c, 0, 58, 0
1, 93040, Note_on_c, 0, 54, 0
1, 93040, Note_on_c, 0, 37, 81
1, 93118, Note_on_c, 0, 74, 0
1, 93118, Note_on_c, 0, 78, 0
1, 93118, Note_on_c, 0, 70, 0
1, 93118, Note_on_c, 0, 82, 0
1, 93120, Tempo, 1200240
1, 93120, Note_on_c, 0, 85, 0
1, 93120, Note_on_c, 0, 69, 73
1, 93120, Note_on_c, 0, 73, 73
1, 93120, Note_on_c, 0, 76, 73
1, 93120, Note_on_c, 0, 81, 86
1, 93120, Note_on_c, 0, 25, 47
1, 93120, Control_c, 0, 64, 0
1, 93163, Control_c, 0, 64, 127
1, 93280, Note_on_c, 0, 25, 0
1, 93280, Note_on_c, 0, 69, 0
1, 93280, Note_on_c, 0, 73, 0
1, 93280, Note_on_c, 0, 37, 0
1, 93280, Note_on_c, 0, 76, 0
1, 93280, Note_on_c, 0, 69, 48
1, 93280, Note_on_c, 0, 73, 48
1, 93280, Note_on_c, 0, 52, 31
1, 93280, Note_on_c, 0, 45, 31
1, 93280, Note_on_c, 0, 57, 38
1, 93340, Note_on_c, 0, 69, 0
1, 93352, Note_on_c, 0, 45, 0
1, 93352, Note_on_c, 0, 52, 0
1, 93352, Note_on_c, 0, 57, 0
1, 93360, Note_on_c, 0, 73, 0
1, 93360, Note_on_c, 0, 81, 48
1, 93360, Note_on_c, 0, 45, 39
1, 93360, Note_on_c, 0, 52, 40
1, 93360, Note_on_c, 0, 57, 44
1, 93440, Note_on_c, 0, 57, 0
1, 93440, Note_on_c, 0, 45, 0
1, 93440, Note_on_c, 0, 52, 0
1, 93440, Note_on_c, 0, 81, 0
1, 93440, Note_on_c, 0, 83, 48
1, 93440, Note_on_c, 0, 56, 44
1, 93440, Note_on_c, 0, 68, 38
1, 93440, Note_on_c, 0, 61, 31
1, 93480, Tempo, 1091107
1, 93480, Note_on_c, 0, 81, 0
1, 93480, Note_on_c, 0, 76, 76
1, 93480, Note_on_c, 0, 88, 85
1, 93520, Note_on_c, 0, 68, 0
1, 93520, Note_on_c, 0, 61, 0
1, 93520, Note_on_c, 0, 83, 0
1, 93520, Note_on_c, 0, 56, 0
1, 93520, Note_on_c, 0, 85, 48
1, 93520, Note_on_c, 0, 57, 44
1, 93520, Note_on_c, 0, 69, 51
1, 93600, Tempo, 1188354
1, 93600, Note_on_c, 0, 69, 0
1, 93600, Note_on_c, 0, 85, 0
1, 93600, Note_on_c, 0, 76, 0
1, 93600, Note_on_c, 0, 88, 0
1, 93600, Note_on_c, 0, 57, 0
1, 93600, Note_on_c, 0, 81, 67
1, 93600, Note_on_c, 0, 88, 67
1, 93600, Note_on_c, 0, 85, 67
1, 93600, Note_on_c, 0, 93, 81
1, 93600, Note_on_c, 0, 57, 57
1, 93600, Note_on_c, 0, 64, 57
1, 93600, Note_on_c, 0, 61, 57
1, 93600, Note_on_c, 0, 69, 68
1, 93760, Note_on_c, 0, 69, 0
1, 93760, Note_on_c, 0, 61, 0
1, 93760, Note_on_c, 0, 64, 0
1, 93760, Note_on_c, 0, 37, 52
1, 93760, Note_on_c, 0, 45, 56
1, 93780, Note_on_c, 0, 57, 0
1, 93840, Tempo, 1091107
1, 93840, Note_on_c, 0, 37, 0
1, 93840, Note_on_c, 0, 45, 0
1, 93840, Note_on_c, 0, 52, 60
1, 93920, Note_on_c, 0, 52, 0
1, 93920, Note_on_c, 0, 57, 63
1, 93960, Note_on_c, 0, 85, 0
1, 93960, Note_on_c, 0, 81, 0
1, 93960, Note_on_c, 0, 88, 0
1, 93960, Note_on_c, 0, 73, 52
1, 93960, Note_on_c, 0, 81, 52
1, 93960, Note_on_c, 0, 85, 62
1, 94000, Note_on_c, 0, 57, 0
1, 94000, Note_on_c, 0, 61, 66
1, 94079, Note_on_c, 0, 81, 0
1, 94079, Note_on_c, 0, 85, 0
1, 94079, Note_on_c, 0, 73, 0
1, 94080, Tempo, 1132289
1, 94080, Note_on_c, 0, 76, 59
1, 94080, Note_on_c, 0, 81, 59
1, 94080, Note_on_c, 0, 88, 77
1, 94080, Note_on_c, 0, 56, 50
1, 94080, Note_on_c, 0, 57, 67
1, 94080, Note_on_c, 0, 68, 79
1, 94092, Control_c, 0, 64, 0
1, 94144, Control_c, 0, 64, 127
1, 94240, Note_on_c, 0, 68, 0
1, 94240, Note_on_c, 0, 57, 0
1, 94240, Note_on_c, 0, 61, 0
1, 94240, Note_on_c, 0, 56, 0
1, 94240, Note_on_c, 0, 52, 70
1, 94318, Note_on_c, 0, 81, 0
1, 94318, Note_on_c, 0, 88, 0
1, 94318, Note_on_c, 0, 76, 0
1, 94320, Note_on_c, 0, 52, 0
1, 94320, Note_on_c, 0, 75, 52
1, 94320, Note_on_c, 0, 81, 52
1, 94320, Note_on_c, 0, 87, 68
1, 94320, Note_on_c, 0, 61, 54
1, 94320, Note_on_c, 0, 55, 54
1, 94320, Note_on_c, 0, 57, 54
1, 94320, Note_on_c, 0, 67, 63
1, 94331, Control_c, 0, 64, 0
1, 94408, Control_c, 0, 64, 127
1, 94480, Note_on_c, 0, 67, 0
1, 94480, Note_on_c, 0, 57, 0
1, 94480, Note_on_c, 0, 61, 0
1, 94480, Note_on_c, 0, 55, 0
1, 94480, Note_on_c, 0, 49, 70
1, 94558, Note_on_c, 0, 81, 0
1, 94558, Note_on_c, 0, 87, 0
1, 94558, Note_on_c, 0, 75, 0
1, 94560, Tempo, 1121705
1, 94560, Note_on_c, 0, 93, 0
1, 94560, Note_on_c, 0, 49, 0
1, 94560, Note_on_c, 0, 74, 56
1, 94560, Note_on_c, 0, 80, 56
1, 94560, Note_on_c, 0, 86, 72
1, 94560, Note_on_c, 0, 92, 71
1, 94560, Note_on_c, 0, 56, 54
1, 94560, Note_on_c, 0, 54, 54
1, 94560, Note_on_c, 0, 59, 54
1, 94560, Note_on_c, 0, 66, 63
1, 94571, Control_c, 0, 64, 0
1, 94608, Control_c, 0, 64, 127
1, 94720, Note_on_c, 0, 66, 0
1, 94720, Note_on_c, 0, 59, 0
1, 94720, Note_on_c, 0, 56, 0
1, 94720, Note_on_c, 0, 54, 0
1, 94720, Note_on_c, 0, 44, 70
1, 94798, Note_on_c, 0, 74, 0
1, 94798, Note_on_c, 0, 86, 0
1, 94798, Note_on_c, 0, 80, 0
1, 94800, Note_on_c, 0, 44, 0
1, 94800, Note_on_c, 0, 78, 49
1, 94800, Note_on_c, 0, 73, 49
1, 94800, Note_on_c, 0, 80, 49
1, 94800, Note_on_c, 0, 85, 64
1, 94800, Note_on_c, 0, 56, 53
1, 94800, Note_on_c, 0, 54, 53
1, 94800, Note_on_c, 0, 59, 54
1, 94800, Note_on_c, 0, 66, 63
1, 94810, Control_c, 0, 64, 0
1, 94860, Control_c, 0, 64, 127
1, 94919, Note_on_c, 0, 66, 0
1, 94919, Note_on_c, 0, 80, 0
1, 94919, Note_on_c, 0, 59, 0
1, 94919, Note_on_c, 0, 85, 0
1, 94919, Note_on_c, 0, 78, 0
1, 94919, Note_on_c, 0, 73, 0
1, 94919, Note_on_c, 0, 54, 0
1, 94919, Note_on_c, 0, 56, 0
1, 94920, Tempo, 1276867
1, 94920, Note_on_c, 0, 84, 62
1, 94920, Note_on_c, 0, 80, 47
1, 94920, Note_on_c, 0, 78, 47
1, 94920, Note_on_c, 0, 72, 47
1, 94920, Note_on_c, 0, 54, 51
1, 94920, Note_on_c, 0, 56, 51
1, 94920, Note_on_c, 0, 60, 52
1, 94920, Note_on_c, 0, 66, 61
1, 95039, Note_on_c, 0, 66, 0
1, 95039, Note_on_c, 0, 78, 0
1, 95039, Note_on_c, 0, 60, 0
1, 95039, Note_on_c, 0, 72, 0
1, 95039, Note_on_c, 0, 84, 0
1, 95039, Note_on_c, 0, 80, 0
1, 95039, Note_on_c, 0, 56, 0
1, 95039, Note_on_c, 0, 54, 0
1, 95040, Tempo, 1200240
1, 95040, Note_on_c, 0, 92, 0
1, 95040, Note_on_c, 0, 25, 72
1, 95040, Note_on_c, 0, 37, 85
1, 95040, Control_c, 0, 64, 0
1, 95083, Control_c, 0, 64, 127
1, 95200, Note_on_c, 0, 37, 0
1, 95200, Note_on_c, 0, 25, 0
1, 95200, Note_on_c, 0, 44, 47
1, 95200, Note_on_c, 0, 53, 56
1, 95280, Tempo, 1072961
1, 95280, Note_on_c, 0, 53, 0
1, 95280, Note_on_c, 0, 44, 0
1, 95280, Note_on_c, 0, 53, 60
1, 95280, Note_on_c, 0, 56, 60
1, 95280, Note_on_c, 0, 65, 71
1, 95360, Note_on_c, 0, 73, 48
1, 95360, Note_on_c, 0, 77, 48
1, 95360, Note_on_c, 0, 85, 48
1, 95360, Note_on_c, 0, 80, 48
1, 95432, Note_on_c, 0, 80, 0
1, 95432, Note_on_c, 0, 77, 0
1, 95432, Note_on_c, 0, 73, 0
1, 95432, Note_on_c, 0, 85, 0
1, 95440, Note_on_c, 0, 53, 0
1, 95440, Note_on_c, 0, 65, 0
1, 95440, Note_on_c, 0, 56, 0
1, 95440, Note_on_c, 0, 80, 48
1, 95440, Note_on_c, 0, 73, 48
1, 95440, Note_on_c, 0, 77, 48
1, 95440, Note_on_c, 0, 85, 48
1, 95440, Note_on_c, 0, 53, 63
1, 95512, Note_on_c, 0, 85, 0
1, 95512, Note_on_c, 0, 77, 0
1, 95512, Note_on_c, 0, 80, 0
1, 95512, Note_on_c, 0, 73, 0
1, 95520, Tempo, 1054111
1, 95520, Note_on_c, 0, 53, 0
1, 95520, Note_on_c, 0, 56, 63
1, 95520, Note_on_c, 0, 63, 63
1, 95520, Note_on_c, 0, 65, 75
1, 95600, Note_on_c, 0, 77, 48
1, 95600, Note_on_c, 0, 72, 48
1, 95600, Note_on_c, 0, 75, 48
1, 95600, Note_on_c, 0, 84, 48
1, 95672, Note_on_c, 0, 84, 0
1, 95672, Note_on_c, 0, 72, 0
1, 95672, Note_on_c, 0, 77, 0
1, 95672, Note_on_c, 0, 75, 0
1, 95680, Note_on_c, 0, 56, 0
1, 95680, Note_on_c, 0, 65, 0
1, 95680, Note_on_c, 0, 63, 0
1, 95680, Note_on_c, 0, 77, 48
1, 95680, Note_on_c, 0, 75, 48
1, 95680, Note_on_c, 0, 84, 48
1, 95680, Note_on_c, 0, 72, 48
1, 95680, Note_on_c, 0, 53, 64
1, 95752, Note_on_c, 0, 72, 0
1, 95752, Note_on_c, 0, 84, 0
1, 95752, Note_on_c, 0, 77, 0
1, 95752, Note_on_c, 0, 75, 0
1, 95760, Tempo, 1035912
1, 95760, Note_on_c, 0, 53, 0
1, 95760, Note_on_c, 0, 56, 62
1, 95760, Note_on_c, 0, 62, 62
1, 95760, Note_on_c, 0, 65, 73
1, 95840, Note_on_c, 0, 71, 48
1, 95840, Note_on_c, 0, 74, 48
1, 95840, Note_on_c, 0, 83, 48
1, 95840, Note_on_c, 0, 77, 48
1, 95880, Tempo, 1214083
1, 95912, Note_on_c, 0, 77, 0
1, 95912, Note_on_c, 0, 74, 0
1, 95912, Note_on_c, 0, 71, 0
1, 95912, Note_on_c, 0, 83, 0
1, 95920, Note_on_c, 0, 56, 0
1, 95920, Note_on_c, 0, 65, 0
1, 95920, Note_on_c, 0, 62, 0
1, 95920, Note_on_c, 0, 77, 48
1, 95920, Note_on_c, 0, 83, 48
1, 95920, Note_on_c, 0, 71, 48
1, 95920, Note_on_c, 0, 74, 48
1, 95920, Note_on_c, 0, 44, 56
1, 95920, Note_on_c, 0, 55, 67
1, 95992, Note_on_c, 0, 74, 0
1, 95992, Note_on_c, 0, 71, 0
1, 95992, Note_on_c, 0, 77, 0
1, 95992, Note_on_c, 0, 83, 0
1, 96000, Tempo, 1112760
1, 96000, Note_on_c, 0, 55, 0
1, 96000, Note_on_c, 0, 44, 0
1, 96000, Note_on_c, 0, 94, 79
1, 96000, Note_on_c, 0, 89, 67
1, 96000, Note_on_c, 0, 85, 67
1, 96000, Note_on_c, 0, 82, 67
1, 96000, Note_on_c, 0, 65, 56
1, 96000, Note_on_c, 0, 58, 56
1, 96000, Note_on_c, 0, 61, 56
1, 96000, Note_on_c, 0, 70, 67
1, 96012, Control_c, 0, 64, 0
1, 96064, Control_c, 0, 64, 127
1, 96079, Note_on_c, 0, 82, 0
1, 96080, Note_on_c, 0, 70, 48
1, 96080, Note_on_c, 0, 73, 48
1, 96080, Note_on_c, 0, 82, 48
1, 96080, Note_on_c, 0, 77, 48
1, 96152, Note_on_c, 0, 77, 0
1, 96152, Note_on_c, 0, 70, 0
1, 96152, Note_on_c, 0, 82, 0
1, 96152, Note_on_c, 0, 73, 0
1, 96160, Note_on_c, 0, 65, 0
1, 96160, Note_on_c, 0, 58, 0
1, 96160, Note_on_c, 0, 70, 0
1, 96160, Note_on_c, 0, 61, 0
1, 96160, Note_on_c, 0, 77, 48
1, 96160, Note_on_c, 0, 70, 48
1, 96160, Note_on_c, 0, 73, 48
1, 96160, Note_on_c, 0, 82, 48
1, 96160, Note_on_c, 0, 56, 61
1, 96232, Note_on_c, 0, 82, 0
1, 96232, Note_on_c, 0, 77, 0
1, 96232, Note_on_c, 0, 70, 0
1, 96232, Note_on_c, 0, 73, 0
1, 96240, Tempo, 1072961
1, 96240, Note_on_c, 0, 56, 0
1, 96240, Note_on_c, 0, 61, 59
1, 96240, Note_on_c, 0, 65, 70
1, 96320, Note_on_c, 0, 68, 48
1, 96320, Note_on_c, 0, 73, 48
1, 96320, Note_on_c, 0, 80, 48
1, 96320, Note_on_c, 0, 77, 48
1, 96392, Note_on_c, 0, 77, 0
1, 96392, Note_on_c, 0, 80, 0
1, 96392, Note_on_c, 0, 73, 0
1, 96392, Note_on_c, 0, 68, 0
1, 96400, Note_on_c, 0, 61, 0
1, 96400, Note_on_c, 0, 65, 0
1, 96400, Note_on_c, 0, 77, 48
1, 96400, Note_on_c, 0, 68, 48
1, 96400, Note_on_c, 0, 73, 48
1, 96400, Note_on_c, 0, 80, 48
1, 96400, Note_on_c, 0, 58, 59
1, 96472, Note_on_c, 0, 80, 0
1, 96472, Note_on_c, 0, 77, 0
1, 96472, Note_on_c, 0, 68, 0
1, 96472, Note_on_c, 0, 73, 0
1, 96480, Tempo, 1054111
1, 96480, Note_on_c, 0, 58, 0
1, 96480, Note_on_c, 0, 61, 60
1, 96480, Note_on_c, 0, 65, 71
1, 96491, Control_c, 0, 64, 0
1, 96528, Control_c, 0, 64, 127
1, 96560, Note_on_c, 0, 67, 48
1, 96560, Note_on_c, 0, 73, 48
1, 96560, Note_on_c, 0, 79, 48
1, 96560, Note_on_c, 0, 77, 48
1, 96600, Tempo, 1018330
1, 96632, Note_on_c, 0, 77, 0
1, 96632, Note_on_c, 0, 79, 0
1, 96632, Note_on_c, 0, 73, 0
1, 96632, Note_on_c, 0, 67, 0
1, 96640, Note_on_c, 0, 61, 0
1, 96640, Note_on_c, 0, 65, 0
1, 96640, Note_on_c, 0, 77, 48
1, 96640, Note_on_c, 0, 67, 48
1, 96640, Note_on_c, 0, 73, 48
1, 96640, Note_on_c, 0, 79, 48
1, 96640, Note_on_c, 0, 44, 49
1, 96640, Note_on_c, 0, 54, 60
1, 96712, Note_on_c, 0, 79, 0
1, 96712, Note_on_c, 0, 77, 0
1, 96712, Note_on_c, 0, 73, 0
1, 96712, Note_on_c, 0, 67, 0
1, 96720, Note_on_c, 0, 85, 0
1, 96720, Note_on_c, 0, 94, 0
1, 96720, Note_on_c, 0, 54, 0
1, 96720, Note_on_c, 0, 89, 0
1, 96720, Note_on_c, 0, 44, 0
1, 96720, Note_on_c, 0, 92, 79
1, 96720, Note_on_c, 0, 87, 67
1, 96720, Note_on_c, 0, 84, 67
1, 96720, Note_on_c, 0, 80, 67
1, 96720, Note_on_c, 0, 56, 45
1, 96720, Note_on_c, 0, 60, 45
1, 96720, Note_on_c, 0, 63, 45
1, 96720, Note_on_c, 0, 68, 53
1, 96730, Control_c, 0, 64, 0
1, 96780, Control_c, 0, 64, 127
1, 96800, Note_on_c, 0, 66, 48
1, 96800, Note_on_c, 0, 72, 48
1, 96800, Note_on_c, 0, 78, 48
1, 96800, Note_on_c, 0, 75, 48
1, 96840, Tempo, 1112760
1, 96872, Note_on_c, 0, 75, 0
1, 96872, Note_on_c, 0, 72, 0
1, 96872, Note_on_c, 0, 66, 0
1, 96872, Note_on_c, 0, 78, 0
1, 96880, Note_on_c, 0, 63, 0
1, 96880, Note_on_c, 0, 68, 0
1, 96880, Note_on_c, 0, 56, 0
1, 96880, Note_on_c, 0, 60, 0
1, 96880, Note_on_c, 0, 75, 48
1, 96880, Note_on_c, 0, 66, 48
1, 96880, Note_on_c, 0, 72, 48
1, 96880, Note_on_c, 0, 78, 48
1, 96880, Note_on_c, 0, 25, 63
1, 96880, Note_on_c, 0, 37, 70
1, 96940, Note_on_c, 0, 25, 0
1, 96952, Note_on_c, 0, 78, 0
1, 96952, Note_on_c, 0, 72, 0
1, 96952, Note_on_c, 0, 66, 0
1, 96952, Note_on_c, 0, 75, 0
1, 96960, Tempo, 1082642
1, 96960, Note_on_c, 0, 84, 0
1, 96960, Note_on_c, 0, 37, 0
1, 96960, Note_on_c, 0, 92, 0
1, 96960, Note_on_c, 0, 87, 0
1, 96960, Note_on_c, 0, 80, 0
1, 96960, Note_on_c, 0, 73, 67
1, 96960, Note_on_c, 0, 77, 67
1, 96960, Note_on_c, 0, 80, 67
1, 96960, Note_on_c, 0, 85, 79
1, 96960, Note_on_c, 0, 44, 66
1, 96960, Note_on_c, 0, 53, 66
1, 96960, Note_on_c, 0, 61, 78
1, 96960, Control_c, 0, 64, 0
1, 97003, Control_c, 0, 64, 127
1, 97038, Note_on_c, 0, 77, 0
1, 97038, Note_on_c, 0, 73, 0
1, 97040, Note_on_c, 0, 68, 40
1, 97040, Note_on_c, 0, 77, 48
1, 97040, Note_on_c, 0, 73, 40
1, 97040, Note_on_c, 0, 65, 40
1, 97112, Note_on_c, 0, 65, 0
1, 97112, Note_on_c, 0, 73, 0
1, 97112, Note_on_c, 0, 77, 0
1, 97112, Note_on_c, 0, 68, 0
1, 97120, Note_on_c, 0, 61, 0
1, 97120, Note_on_c, 0, 44, 0
1, 97120, Note_on_c, 0, 53, 0
1, 97120, Note_on_c, 0, 73, 40
1, 97120, Note_on_c, 0, 68, 40
1, 97120, Note_on_c, 0, 77, 48
1, 97120, Note_on_c, 0, 65, 40
1, 97120, Note_on_c, 0, 53, 56
1, 97192, Note_on_c, 0, 65, 0
1, 97192, Note_on_c, 0, 68, 0
1, 97192, Note_on_c, 0, 73, 0
1, 97192, Note_on_c, 0, 77, 0
1, 97200, Tempo, 1054111
1, 97200, Note_on_c, 0, 53, 0
1, 97200, Note_on_c, 0, 56, 60
1, 97200, Note_on_c, 0, 65, 71
1, 97280, Note_on_c, 0, 85, 48
1, 97280, Note_on_c, 0, 73, 40
1, 97280, Note_on_c, 0, 77, 40
1, 97280, Note_on_c, 0, 80, 40
1, 97352, Note_on_c, 0, 80, 0
1, 97352, Note_on_c, 0, 77, 0
1, 97352, Note_on_c, 0, 85, 0
1, 97352, Note_on_c, 0, 73, 0
1, 97360, Note_on_c, 0, 56, 0
1, 97360, Note_on_c, 0, 65, 0
1, 97360, Note_on_c, 0, 85, 48
1, 97360, Note_on_c, 0, 80, 40
1, 97360, Note_on_c, 0, 73, 40
1, 97360, Note_on_c, 0, 77, 40
1, 97360, Note_on_c, 0, 53, 63
1, 97432, Note_on_c, 0, 77, 0
1, 97432, Note_on_c, 0, 80, 0
1, 97432, Note_on_c, 0, 85, 0
1, 97432, Note_on_c, 0, 73, 0
1, 97440, Tempo, 1054111
1, 97440, Note_on_c, 0, 80, 0
1, 97440, Note_on_c, 0, 53, 0
1, 97440, Note_on_c, 0, 85, 0
1, 97440, Note_on_c, 0, 56, 63
1, 97440, Note_on_c, 0, 63, 75
1, 97440, Note_on_c, 0, 65, 75
1, 97520, Note_on_c, 0, 77, 40
1, 97520, Note_on_c, 0, 72, 40
1, 97520, Note_on_c, 0, 75, 40
1, 97520, Note_on_c, 0, 84, 48
1, 97592, Note_on_c, 0, 84, 0
1, 97592, Note_on_c, 0, 72, 0
1, 97592, Note_on_c, 0, 77, 0
1, 97592, Note_on_c, 0, 75, 0
1, 97600, Note_on_c, 0, 56, 0
1, 97600, Note_on_c, 0, 65, 0
1, 97600, Note_on_c, 0, 63, 0
1, 97600, Note_on_c, 0, 77, 40
1, 97600, Note_on_c, 0, 75, 40
1, 97600, Note_on_c, 0, 84, 48
1, 97600, Note_on_c, 0, 72, 40
1, 97600, Note_on_c, 0, 53, 64
1, 97672, Note_on_c, 0, 72, 0
1, 97672, Note_on_c, 0, 84, 0
1, 97672, Note_on_c, 0, 77, 0
1, 97672, Note_on_c, 0, 75, 0
1, 97680, Tempo, 1035912
1, 97680, Note_on_c, 0, 53, 0
1, 97680, Note_on_c, 0, 56, 62
1, 97680, Note_on_c, 0, 62, 73
1, 97680, Note_on_c, 0, 65, 73
1, 97760, Note_on_c, 0, 71, 40
1, 97760, Note_on_c, 0, 74, 40
1, 97760, Note_on_c, 0, 83, 48
1, 97760, Note_on_c, 0, 77, 40
1, 97800, Tempo, 1252087
1, 97832, Note_on_c, 0, 77, 0
1, 97832, Note_on_c, 0, 74, 0
1, 97832, Note_on_c, 0, 71, 0
1, 97832, Note_on_c, 0, 83, 0
1, 97840, Note_on_c, 0, 56, 0
1, 97840, Note_on_c, 0, 65, 0
1, 97840, Note_on_c, 0, 62, 0
1, 97840, Note_on_c, 0, 77, 40
1, 97840, Note_on_c, 0, 83, 48
1, 97840, Note_on_c, 0, 71, 40
1, 97840, Note_on_c, 0, 74, 40
1, 97840, Note_on_c, 0, 44, 67
1, 97840, Note_on_c, 0, 55, 67
1, 97912, Note_on_c, 0, 74, 0
1, 97912, Note_on_c, 0, 71, 0
1, 97912, Note_on_c, 0, 77, 0
1, 97912, Note_on_c, 0, 83, 0
1, 97920, Tempo, 1112760
1, 97920, Note_on_c, 0, 55, 0
1, 97920, Note_on_c, 0, 44, 0
1, 97920, Note_on_c, 0, 94, 79
1, 97920, Note_on_c, 0, 89, 67
1, 97920, Note_on_c, 0, 85, 67
1, 97920, Note_on_c, 0, 82, 67
1, 97920, Note_on_c, 0, 65, 56
1, 97920, Note_on_c, 0, 58, 56
1, 97920, Note_on_c, 0, 61, 56
1, 97920, Note_on_c, 0, 70, 67
1, 97932, Control_c, 0, 64, 0
1, 97984, Control_c, 0, 64, 127
1, 97991, Note_on_c, 0, 82, 0
1, 98000, Note_on_c, 0, 70, 40
1, 98000, Note_on_c, 0, 73, 40
1, 98000, Note_on_c, 0, 82, 48
1, 98000, Note_on_c, 0, 77, 40
1, 98072, Note_on_c, 0, 77, 0
1, 98072, Note_on_c, 0, 70, 0
1, 98072, Note_on_c, 0, 82, 0
1, 98072, Note_on_c, 0, 73, 0
1, 98080, Note_on_c, 0, 65, 0
1, 98080, Note_on_c, 0, 58, 0
1, 98080, Note_on_c, 0, 70, 0
1, 98080, Note_on_c, 0, 61, 0
1, 98080, Note_on_c, 0, 77, 40
1, 98080, Note_on_c, 0, 70, 40
1, 98080, Note_on_c, 0, 73, 40
1, 98080, Note_on_c, 0, 82, 48
1, 98080, Note_on_c, 0, 56, 61
1, 98152, Note_on_c, 0, 82, 0
1, 98152, Note_on_c, 0, 77, 0
1, 98152, Note_on_c, 0, 70, 0
1, 98152, Note_on_c, 0, 73, 0
1, 98160, Tempo, 1072961
1, 98160, Note_on_c, 0, 56, 0
1, 98160, Note_on_c, 0, 61, 70
1, 98160, Note_on_c, 0, 65, 70
1, 98240, Note_on_c, 0, 68, 40
1, 98240, Note_on_c, 0, 73, 40
1, 98240, Note_on_c, 0, 80, 48
1, 98240, Note_on_c, 0, 77, 40
1, 98312, Note_on_c, 0, 77, 0
1, 98312, Note_on_c, 0, 80, 0
1, 98312, Note_on_c, 0, 73, 0
1, 98312, Note_on_c, 0, 68, 0
1, 98320, Note_on_c, 0, 61, 0
1, 98320, Note_on_c, 0, 65, 0
1, 98320, Note_on_c, 0, 77, 40
1, 98320, Note_on_c, 0, 68, 40
1, 98320, Note_on_c, 0, 73, 40
1, 98320, Note_on_c, 0, 80, 48
1, 98320, Note_on_c, 0, 58, 59
1, 98392, Note_on_c, 0, 80, 0
1, 98392, Note_on_c, 0, 77, 0
1, 98392, Note_on_c, 0, 68, 0
1, 98392, Note_on_c, 0, 73, 0
1, 98400, Tempo, 1054111
1, 98400, Note_on_c, 0, 58, 0
1, 98400, Note_on_c, 0, 58, 71
1, 98400, Note_on_c, 0, 61, 71
1, 98411, Control_c, 0, 64, 0
1, 98448, Control_c, 0, 64, 127
1, 98480, Note_on_c, 0, 67, 40
1, 98480, Note_on_c, 0, 73, 40
1, 98480, Note_on_c, 0, 79, 48
1, 98480, Note_on_c, 0, 77, 48
1, 98520, Tempo, 1018330
1, 98552, Note_on_c, 0, 77, 0
1, 98552, Note_on_c, 0, 79, 0
1, 98552, Note_on_c, 0, 73, 0
1, 98552, Note_on_c, 0, 67, 0
1, 98560, Note_on_c, 0, 58, 0
1, 98560, Note_on_c, 0, 61, 0
1, 98560, Note_on_c, 0, 77, 48
1, 98560, Note_on_c, 0, 67, 40
1, 98560, Note_on_c, 0, 73, 40
1, 98560, Note_on_c, 0, 79, 48
1, 98560, Note_on_c, 0, 44, 55
1, 98560, Note_on_c, 0, 54, 65
1, 98632, Note_on_c, 0, 79, 0
1, 98632, Note_on_c, 0, 77, 0
1, 98632, Note_on_c, 0, 73, 0
1, 98632, Note_on_c, 0, 67, 0
1, 98640, Note_on_c, 0, 85, 0
1, 98640, Note_on_c, 0, 94, 0
1, 98640, Note_on_c, 0, 54, 0
1, 98640, Note_on_c, 0, 89, 0
1, 98640, Note_on_c, 0, 44, 0
1, 98640, Note_on_c, 0, 92, 79
1, 98640, Note_on_c, 0, 87, 67
1, 98640, Note_on_c, 0, 84, 67
1, 98640, Note_on_c, 0, 80, 67
1, 98640, Note_on_c, 0, 56, 45
1, 98640, Note_on_c, 0, 60, 45
1, 98640, Note_on_c, 0, 63, 45
1, 98640, Note_on_c, 0, 68, 53
1, 98650, Control_c, 0, 64, 0
1, 98700, Control_c, 0, 64, 127
1, 98720, Note_on_c, 0, 66, 48
1, 98720, Note_on_c, 0, 72, 48
1, 98720, Note_on_c, 0, 78, 48
1, 98720, Note_on_c, 0, 75, 48
1, 98760, Tempo, 1112760
1, 98792, Note_on_c, 0, 75, 0
1, 98792, Note_on_c, 0, 72, 0
1, 98792, Note_on_c, 0, 66, 0
1, 98792, Note_on_c, 0, 78, 0
1, 98800, Note_on_c, 0, 63, 0
1, 98800, Note_on_c, 0, 68, 0
1, 98800, Note_on_c, 0, 56, 0
1, 98800, Note_on_c, 0, 60, 0
1, 98800, Note_on_c, 0, 75, 48
1, 98800, Note_on_c, 0, 66, 48
1, 98800, Note_on_c, 0, 72, 48
1, 98800, Note_on_c, 0, 78, 48
1, 98800, Note_on_c, 0, 25, 63
1, 98800, Note_on_c, 0, 37, 70
1, 98872, Note_on_c, 0, 78, 0
1, 98872, Note_on_c, 0, 72, 0
1, 98872, Note_on_c, 0, 66, 0
1, 98872, Note_on_c, 0, 75, 0
1, 98880, Note_on_c, 0, 80, 0
1, 98880, Note_on_c, 0, 84, 0
1, 98880, Note_on_c, 0, 37, 0
1, 98880, Note_on_c, 0, 25, 0
1, 98880, Note_on_c, 0, 87, 0
1, 98880, Note_on_c, 0, 92, 0
1, 98880, Note_on_c, 0, 85, 89
1, 98880, Note_on_c, 0, 80, 75
1, 98880, Note_on_c, 0, 77, 75
1, 98880, Note_on_c, 0, 73, 89
1, 98880, Note_on_c, 0, 44, 57
1, 98880, Note_on_c, 0, 53, 57
1, 98880, Note_on_c, 0, 61, 68
1, 98880, Control_c, 0, 64, 0
1, 98920, Control_c, 0, 64, 127
1, 98960, Note_on_c, 0, 77, 0
1, 98960, Note_on_c, 0, 85, 0
1, 98960, Note_on_c, 0, 80, 0
1, 98960, Note_on_c, 0, 77, 62
1, 98960, Note_on_c, 0, 85, 62
1, 99040, Note_on_c, 0, 85, 0
1, 99040, Note_on_c, 0, 77, 0
1, 99040, Note_on_c, 0, 80, 62
1, 99040, Note_on_c, 0, 89, 62
1, 99120, Tempo, 1001335
1, 99120, Note_on_c, 0, 89, 0
1, 99120, Note_on_c, 0, 73, 0
1, 99120, Note_on_c, 0, 80, 0
1, 99120, Note_on_c, 0, 89, 62
1, 99120, Note_on_c, 0, 84, 76
1, 99120, Note_on_c, 0, 96, 76
1, 99200, Note_on_c, 0, 89, 0
1, 99200, Note_on_c, 0, 87, 62
1, 99240, Note_on_c, 0, 61, 0
1, 99240, Note_on_c, 0, 53, 0
1, 99240, Note_on_c, 0, 44, 0
1, 99240, Note_on_c, 0, 65, 59
1, 99280, Note_on_c, 0, 87, 0
1, 99280, Note_on_c, 0, 89, 62
1, 99360, Note_on_c, 0, 89, 0
1, 99360, Note_on_c, 0, 96, 0
1, 99360, Note_on_c, 0, 84, 0
1, 99360, Note_on_c, 0, 85, 62
1, 99360, Note_on_c, 0, 89, 62
1, 99360, Note_on_c, 0, 101, 92
1, 99360, Note_on_c, 0, 73, 71
1, 99375, Control_c, 0, 64, 0
1, 99412, Control_c, 0, 64, 127
1, 99440, Note_on_c, 0, 89, 0
1, 99440, Note_on_c, 0, 85, 0
1, 99440, Note_on_c, 0, 80, 62
1, 99480, Note_on_c, 0, 56, 57
1, 99520, Note_on_c, 0, 80, 0
1, 99520, Note_on_c, 0, 89, 62
1, 99600, Note_on_c, 0, 89, 0
1, 99600, Note_on_c, 0, 101, 0
1, 99600, Note_on_c, 0, 85, 62
1, 99600, Note_on_c, 0, 92, 70
1, 99680, Note_on_c, 0, 85, 0
1, 99680, Note_on_c, 0, 77, 62
1, 99720, Tempo, 1121495
1, 99720, Note_on_c, 0, 73, 0
1, 99720, Note_on_c, 0, 72, 59
1, 99760, Note_on_c, 0, 77, 0
1, 99760, Note_on_c, 0, 80, 62
1, 99840, Tempo, 1000000
1, 99840, Note_on_c, 0, 80, 0
1, 99840, Note_on_c, 0, 72, 0
1, 99840, Note_on_c, 0, 56, 0
1, 99840, Note_on_c, 0, 65, 0
1, 99840, Note_on_c, 0, 92, 0
1, 99840, Note_on_c, 0, 84, 62
1, 99840, Note_on_c, 0, 88, 62
1, 99840, Note_on_c, 0, 96, 91
1, 99840, Note_on_c, 0, 56, 56
1, 99840, Note_on_c, 0, 60, 56
1, 99840, Note_on_c, 0, 64, 67
1, 99855, Control_c, 0, 64, 0
1, 99903, Control_c, 0, 64, 127
1, 99920, Note_on_c, 0, 88, 0
1, 99920, Note_on_c, 0, 84, 0
1, 99920, Note_on_c, 0, 84, 62
1, 99960, Note_on_c, 0, 37, 54
1, 99960, Note_on_c, 0, 44, 54
1, 100000, Note_on_c, 0, 84, 0
1, 100000, Note_on_c, 0, 88, 62
1, 100080, Note_on_c, 0, 88, 0
1, 100080, Note_on_c, 0, 44, 0
1, 100080, Note_on_c, 0, 96, 0
1, 100080, Note_on_c, 0, 37, 0
1, 100080, Note_on_c, 0, 84, 62
1, 100080, Note_on_c, 0, 91, 78
1, 100080, Note_on_c, 0, 52, 58
1, 100160, Note_on_c, 0, 84, 0
1, 100160, Note_on_c, 0, 76, 62
1, 100200, Tempo, 1100917
1, 100200, Note_on_c, 0, 52, 0
1, 100200, Note_on_c, 0, 55, 61
1, 100240, Note_on_c, 0, 76, 0
1, 100240, Note_on_c, 0, 79, 62
1, 100320, Tempo, 1008403
1, 100320, Note_on_c, 0, 79, 0
1, 100320, Note_on_c, 0, 55, 0
1, 100320, Note_on_c, 0, 56, 0
1, 100320, Note_on_c, 0, 60, 0
1, 100320, Note_on_c, 0, 64, 0
1, 100320, Note_on_c, 0, 91, 0
1, 100320, Note_on_c, 0, 82, 62
1, 100320, Note_on_c, 0, 87, 62
1, 100320, Note_on_c, 0, 94, 93
1, 100320, Note_on_c, 0, 60, 59
1, 100320, Note_on_c, 0, 63, 59
1, 100320, Note_on_c, 0, 72, 67
1, 100331, Control_c, 0, 64, 0
1, 100366, Control_c, 0, 64, 127
1, 100400, Note_on_c, 0, 87, 0
1, 100400, Note_on_c, 0, 82, 0
1, 100400, Note_on_c, 0, 82, 62
1, 100440, Note_on_c, 0, 54, 59
1, 100480, Note_on_c, 0, 82, 0
1, 100480, Note_on_c, 0, 87, 62
1, 100560, Note_on_c, 0, 87, 0
1, 100560, Note_on_c, 0, 94, 0
1, 100560, Note_on_c, 0, 82, 62
1, 100560, Note_on_c, 0, 90, 77
1, 100640, Note_on_c, 0, 82, 0
1, 100640, Note_on_c, 0, 75, 62
1, 100680, Tempo, 1142857
1, 100680, Note_on_c, 0, 72, 0
1, 100680, Note_on_c, 0, 63, 0
1, 100680, Note_on_c, 0, 70, 61
1, 100720, Note_on_c, 0, 75, 0
1, 100720, Note_on_c, 0, 78, 62
1, 100800, Tempo, 1000000
1, 100800, Note_on_c, 0, 78, 0
1, 100800, Note_on_c, 0, 70, 0
1, 100800, Note_on_c, 0, 60, 0
1, 100800, Note_on_c, 0, 54, 0
1, 100800, Note_on_c, 0, 90, 0
1, 100800, Note_on_c, 0, 82, 62
1, 100800, Note_on_c, 0, 86, 62
1, 100800, Note_on_c, 0, 94, 91
1, 100800, Note_on_c, 0, 53, 56
1, 100800, Note_on_c, 0, 59, 56
1, 100800, Note_on_c, 0, 62, 67
1, 100815, Control_c, 0, 64, 0
1, 100863, Control_c, 0, 64, 127
1, 100880, Note_on_c, 0, 86, 0
1, 100880, Note_on_c, 0, 82, 0
1, 100880, Note_on_c, 0, 82, 62
1, 100920, Note_on_c, 0, 37, 54
1, 100920, Note_on_c, 0, 44, 54
1, 100960, Note_on_c, 0, 82, 0
1, 100960, Note_on_c, 0, 86, 62
1, 101040, Note_on_c, 0, 86, 0
1, 101040, Note_on_c, 0, 44, 0
1, 101040, Note_on_c, 0, 94, 0
1, 101040, Note_on_c, 0, 37, 0
1, 101040, Note_on_c, 0, 82, 62
1, 101040, Note_on_c, 0, 89, 78
1, 101040, Note_on_c, 0, 53, 58
1, 101120, Note_on_c, 0, 82, 0
1, 101120, Note_on_c, 0, 74, 62
1, 101160, Tempo, 1071429
1, 101160, Note_on_c, 0, 53, 0
1, 101160, Note_on_c, 0, 59, 61
1, 101200, Note_on_c, 0, 74, 0
1, 101200, Note_on_c, 0, 82, 62
1, 101280, Tempo, 1000000
1, 101280, Note_on_c, 0, 82, 0
1, 101280, Note_on_c, 0, 62, 0
1, 101280, Note_on_c, 0, 53, 0
1, 101280, Note_on_c, 0, 59, 0
1, 101280, Note_on_c, 0, 89, 0
1, 101280, Note_on_c, 0, 80, 62
1, 101280, Note_on_c, 0, 85, 62
1, 101280, Note_on_c, 0, 92, 93
1, 101280, Note_on_c, 0, 61, 59
1, 101280, Note_on_c, 0, 65, 59
1, 101280, Note_on_c, 0, 70, 67
1, 101291, Control_c, 0, 64, 0
1, 101331, Control_c, 0, 64, 127
1, 101360, Note_on_c, 0, 85, 0
1, 101360, Note_on_c, 0, 80, 0
1, 101360, Note_on_c, 0, 80, 62
1, 101400, Note_on_c, 0, 59, 0
1, 101400, Note_on_c, 0, 49, 59
1, 101440, Note_on_c, 0, 80, 0
1, 101440, Note_on_c, 0, 82, 62
1, 101520, Note_on_c, 0, 82, 0
1, 101520, Note_on_c, 0, 92, 0
1, 101520, Note_on_c, 0, 80, 62
1, 101520, Note_on_c, 0, 85, 77
1, 101600, Note_on_c, 0, 80, 0
1, 101600, Note_on_c, 0, 73, 62
1, 101640, Tempo, 1071429
1, 101640, Note_on_c, 0, 65, 0
1, 101640, Note_on_c, 0, 70, 0
1, 101640, Note_on_c, 0, 68, 61
1, 101680, Note_on_c, 0, 73, 0
1, 101680, Note_on_c, 0, 80, 62
1, 101760, Tempo, 1000000
1, 101760, Note_on_c, 0, 80, 0
1, 101760, Note_on_c, 0, 68, 0
1, 101760, Note_on_c, 0, 49, 0
1, 101760, Note_on_c, 0, 61, 0
1, 101760, Note_on_c, 0, 85, 0
1, 101760, Note_on_c, 0, 77, 62
1, 101760, Note_on_c, 0, 82, 62
1, 101760, Note_on_c, 0, 89, 91
1, 101760, Note_on_c, 0, 55, 56
1, 101760, Note_on_c, 0, 58, 67
1, 101775, Control_c, 0, 64, 0
1, 101823, Control_c, 0, 64, 127
1, 101840, Note_on_c, 0, 82, 0
1, 101840, Note_on_c, 0, 77, 0
1, 101840, Note_on_c, 0, 77, 62
1, 101880, Note_on_c, 0, 37, 54
1, 101920, Note_on_c, 0, 77, 0
1, 101920, Note_on_c, 0, 79, 62
1, 102000, Note_on_c, 0, 79, 0
1, 102000, Note_on_c, 0, 37, 0
1, 102000, Note_on_c, 0, 89, 0
1, 102000, Note_on_c, 0, 77, 62
1, 102000, Note_on_c, 0, 82, 78
1, 102000, Note_on_c, 0, 46, 58
1, 102080, Note_on_c, 0, 77, 0
1, 102080, Note_on_c, 0, 70, 62
1, 102120, Tempo, 1100917
1, 102120, Note_on_c, 0, 46, 0
1, 102120, Note_on_c, 0, 54, 61
1, 102160, Note_on_c, 0, 70, 0
1, 102160, Note_on_c, 0, 77, 62
1, 102240, Tempo, 991736
1, 102240, Note_on_c, 0, 77, 0
1, 102240, Note_on_c, 0, 54, 0
1, 102240, Note_on_c, 0, 58, 0
1, 102240, Note_on_c, 0, 55, 0
1, 102240, Note_on_c, 0, 82, 0
1, 102240, Note_on_c, 0, 77, 62
1, 102240, Note_on_c, 0, 84, 62
1, 102240, Note_on_c, 0, 89, 93
1, 102240, Note_on_c, 0, 54, 61
1, 102240, Note_on_c, 0, 56, 59
1, 102240, Note_on_c, 0, 60, 59
1, 102240, Note_on_c, 0, 68, 67
1, 102252, Control_c, 0, 64, 0
1, 102293, Control_c, 0, 64, 127
1, 102320, Note_on_c, 0, 84, 0
1, 102320, Note_on_c, 0, 77, 0
1, 102320, Note_on_c, 0, 77, 62
1, 102360, Note_on_c, 0, 54, 0
1, 102360, Note_on_c, 0, 44, 59
1, 102400, Note_on_c, 0, 77, 0
1, 102400, Note_on_c, 0, 78, 62
1, 102480, Note_on_c, 0, 78, 0
1, 102480, Note_on_c, 0, 89, 0
1, 102480, Note_on_c, 0, 77, 62
1, 102480, Note_on_c, 0, 84, 77
1, 102560, Note_on_c, 0, 77, 0
1, 102560, Note_on_c, 0, 72, 62
1, 102600, Tempo, 1100917
1, 102600, Note_on_c, 0, 60, 0
1, 102600, Note_on_c, 0, 68, 0
1, 102600, Note_on_c, 0, 66, 61
1, 102640, Note_on_c, 0, 72, 0
1, 102640, Note_on_c, 0, 77, 62
1, 102720, Tempo, 1000000
1, 102720, Note_on_c, 0, 77, 0
1, 102720, Note_on_c, 0, 66, 0
1, 102720, Note_on_c, 0, 56, 0
1, 102720, Note_on_c, 0, 44, 0
1, 102720, Note_on_c, 0, 84, 0
1, 102720, Note_on_c, 0, 75, 62
1, 102720, Note_on_c, 0, 80, 62
1, 102720, Note_on_c, 0, 87, 91
1, 102720, Note_on_c, 0, 53, 56
1, 102720, Note_on_c, 0, 56, 67
1, 102735, Control_c, 0, 64, 0
1, 102783, Control_c, 0, 64, 127
1, 102800, Note_on_c, 0, 80, 0
1, 102800, Note_on_c, 0, 75, 0
1, 102800, Note_on_c, 0, 75, 62
1, 102840, Note_on_c, 0, 44, 54
1, 102840, Note_on_c, 0, 37, 54
1, 102880, Note_on_c, 0, 75, 0
1, 102880, Note_on_c, 0, 77, 61
1, 102960, Note_on_c, 0, 77, 0
1, 102960, Note_on_c, 0, 37, 0
1, 102960, Note_on_c, 0, 87, 0
1, 102960, Note_on_c, 0, 44, 0
1, 102960, Note_on_c, 0, 75, 61
1, 102960, Note_on_c, 0, 80, 77
1, 102960, Note_on_c, 0, 53, 57
1, 103040, Note_on_c, 0, 75, 0
1, 103040, Note_on_c, 0, 68, 60
1, 103080, Tempo, 1111111
1, 103080, Note_on_c, 0, 53, 0
1, 103080, Note_on_c, 0, 56, 59
1, 103120, Note_on_c, 0, 68, 0
1, 103120, Note_on_c, 0, 75, 60
1, 103200, Tempo, 991736
1, 103200, Note_on_c, 0, 75, 0
1, 103200, Note_on_c, 0, 53, 0
1, 103200, Note_on_c, 0, 80, 0
1, 103200, Note_on_c, 0, 56, 0
1, 103200, Note_on_c, 0, 73, 60
1, 103200, Note_on_c, 0, 77, 60
1, 103200, Note_on_c, 0, 85, 90
1, 103200, Note_on_c, 0, 61, 57
1, 103200, Note_on_c, 0, 65, 64
1, 103207, Control_c, 0, 64, 0
1, 103252, Control_c, 0, 64, 127
1, 103280, Note_on_c, 0, 77, 0
1, 103280, Note_on_c, 0, 76, 60
1, 103320, Note_on_c, 0, 56, 0
1, 103320, Note_on_c, 0, 44, 57
1, 103360, Note_on_c, 0, 76, 0
1, 103360, Note_on_c, 0, 77, 59
1, 103440, Note_on_c, 0, 77, 0
1, 103440, Note_on_c, 0, 73, 0
1, 103440, Note_on_c, 0, 85, 0
1, 103440, Note_on_c, 0, 73, 59
1, 103440, Note_on_c, 0, 80, 73
1, 103520, Note_on_c, 0, 73, 0
1, 103520, Note_on_c, 0, 68, 58
1, 103560, Tempo, 1090909
1, 103560, Note_on_c, 0, 65, 0
1, 103560, Note_on_c, 0, 61, 0
1, 103560, Note_on_c, 0, 64, 57
1, 103600, Note_on_c, 0, 68, 0
1, 103600, Note_on_c, 0, 73, 58
1, 103680, Tempo, 991736
1, 103680, Note_on_c, 0, 73, 0
1, 103680, Note_on_c, 0, 44, 0
1, 103680, Note_on_c, 0, 80, 0
1, 103680, Note_on_c, 0, 72, 58
1, 103680, Note_on_c, 0, 75, 58
1, 103680, Note_on_c, 0, 84, 85
1, 103680, Note_on_c, 0, 55, 52
1, 103695, Control_c, 0, 64, 0
1, 103743, Control_c, 0, 64, 127
1, 103760, Note_on_c, 0, 75, 0
1, 103760, Note_on_c, 0, 75, 58
1, 103800, Note_on_c, 0, 37, 50
1, 103840, Note_on_c, 0, 75, 0
1, 103840, Note_on_c, 0, 76, 57
1, 103920, Note_on_c, 0, 76, 0
1, 103920, Note_on_c, 0, 37, 0
1, 103920, Note_on_c, 0, 84, 0
1, 103920, Note_on_c, 0, 72, 0
1, 103920, Note_on_c, 0, 72, 57
1, 103920, Note_on_c, 0, 79, 72
1, 103920, Note_on_c, 0, 44, 53
1, 104000, Note_on_c, 0, 72, 0
1, 104000, Note_on_c, 0, 67, 57
1, 104040, Tempo, 1111111
1, 104040, Note_on_c, 0, 44, 0
1, 104040, Note_on_c, 0, 55, 56
1, 104080, Note_on_c, 0, 67, 0
1, 104080, Note_on_c, 0, 72, 57
1, 104160, Tempo, 991736
1, 104160, Note_on_c, 0, 72, 0
1, 104160, Note_on_c, 0, 55, 0
1, 104160, Note_on_c, 0, 79, 0
1, 104160, Note_on_c, 0, 64, 0
1, 104160, Note_on_c, 0, 71, 56
1, 104160, Note_on_c, 0, 75, 56
1, 104160, Note_on_c, 0, 83, 84
1, 104160, Note_on_c, 0, 59, 53
1, 104160, Note_on_c, 0, 63, 60
1, 104169, Control_c, 0, 64, 0
1, 104215, Control_c, 0, 64, 127
1, 104240, Note_on_c, 0, 75, 0
1, 104240, Note_on_c, 0, 74, 56
1, 104280, Note_on_c, 0, 55, 0
1, 104280, Note_on_c, 0, 54, 49
1, 104320, Note_on_c, 0, 74, 0
1, 104320, Note_on_c, 0, 75, 55
1, 104400, Note_on_c, 0, 75, 0
1, 104400, Note_on_c, 0, 54, 0
1, 104400, Note_on_c, 0, 71, 0
1, 104400, Note_on_c, 0, 83, 0
1, 104400, Note_on_c, 0, 71, 55
1, 104400, Note_on_c, 0, 78, 69
1, 104400, Note_on_c, 0, 44, 53
1, 104480, Note_on_c, 0, 71, 0
1, 104480, Note_on_c, 0, 66, 55
1, 104520, Tempo, 1100917
1, 104520, Note_on_c, 0, 59, 0
1, 104520, Note_on_c, 0, 63, 0
1, 104520, Note_on_c, 0, 62, 54
1, 104560, Note_on_c, 0, 66, 0
1, 104560, Note_on_c, 0, 71, 55
1, 104640, Tempo, 991736
1, 104640, Note_on_c, 0, 71, 0
1, 104640, Note_on_c, 0, 78, 0
1, 104640, Note_on_c, 0, 44, 0
1, 104640, Note_on_c, 0, 71, 54
1, 104640, Note_on_c, 0, 74, 54
1, 104640, Note_on_c, 0, 83, 80
1, 104640, Note_on_c, 0, 53, 49
1, 104655, Control_c, 0, 64, 0
1, 104703, Control_c, 0, 64, 127
1, 104720, Note_on_c, 0, 74, 0
1, 104720, Note_on_c, 0, 73, 53
1, 104760, Note_on_c, 0, 37, 46
1, 104800, Note_on_c, 0, 73, 0
1, 104800, Note_on_c, 0, 74, 53
1, 104880, Note_on_c, 0, 74, 0
1, 104880, Note_on_c, 0, 37, 0
1, 104880, Note_on_c, 0, 83, 0
1, 104880, Note_on_c, 0, 71, 0
1, 104880, Note_on_c, 0, 71, 53
1, 104880, Note_on_c, 0, 77, 67
1, 104880, Note_on_c, 0, 44, 49
1, 104960, Note_on_c, 0, 71, 0
1, 104960, Note_on_c, 0, 65, 53
1, 105000, Tempo, 1081081
1, 105000, Note_on_c, 0, 44, 0
1, 105000, Note_on_c, 0, 53, 52
1, 105040, Note_on_c, 0, 65, 0
1, 105040, Note_on_c, 0, 71, 52
1, 105120, Tempo, 991736
1, 105120, Note_on_c, 0, 71, 0
1, 105120, Note_on_c, 0, 53, 0
1, 105120, Note_on_c, 0, 77, 0
1, 105120, Note_on_c, 0, 62, 0
1, 105120, Note_on_c, 0, 70, 52
1, 105120, Note_on_c, 0, 73, 52
1, 105120, Note_on_c, 0, 82, 79
1, 105120, Note_on_c, 0, 61, 56
1, 105129, Control_c, 0, 64, 0
1, 105156, Control_c, 0, 64, 127
1, 105200, Note_on_c, 0, 73, 0
1, 105200, Note_on_c, 0, 70, 0
1, 105200, Note_on_c, 0, 72, 52
1, 105240, Note_on_c, 0, 49, 46
1, 105280, Note_on_c, 0, 72, 0
1, 105280, Note_on_c, 0, 71, 52
1, 105360, Note_on_c, 0, 71, 0
1, 105360, Note_on_c, 0, 82, 0
1, 105360, Note_on_c, 0, 53, 0
1, 105360, Note_on_c, 0, 70, 51
1, 105360, Note_on_c, 0, 73, 63
1, 105440, Note_on_c, 0, 70, 0
1, 105440, Note_on_c, 0, 61, 51
1, 105480, Tempo, 1111111
1, 105480, Note_on_c, 0, 49, 0
1, 105480, Note_on_c, 0, 61, 0
1, 105480, Note_on_c, 0, 59, 50
1, 105520, Note_on_c, 0, 61, 0
1, 105520, Note_on_c, 0, 70, 50
1, 105600, Tempo, 991736
1, 105600, Note_on_c, 0, 70, 0
1, 105600, Note_on_c, 0, 59, 0
1, 105600, Note_on_c, 0, 73, 0
1, 105600, Note_on_c, 0, 68, 50
1, 105600, Note_on_c, 0, 73, 50
1, 105600, Note_on_c, 0, 80, 74
1, 105600, Note_on_c, 0, 42, 45
1, 105600, Note_on_c, 0, 49, 50
1, 105615, Control_c, 0, 64, 0
1, 105663, Control_c, 0, 64, 127
1, 105680, Note_on_c, 0, 73, 0
1, 105680, Note_on_c, 0, 68, 0
1, 105680, Note_on_c, 0, 68, 50
1, 105720, Note_on_c, 0, 30, 43
1, 105760, Note_on_c, 0, 68, 0
1, 105760, Note_on_c, 0, 70, 50
1, 105840, Note_on_c, 0, 70, 0
1, 105840, Note_on_c, 0, 30, 0
1, 105840, Note_on_c, 0, 80, 0
1, 105840, Note_on_c, 0, 68, 49
1, 105840, Note_on_c, 0, 73, 62
1, 105840, Note_on_c, 0, 49, 46
1, 105920, Note_on_c, 0, 68, 0
1, 105920, Note_on_c, 0, 61, 49
1, 105960, Tempo, 1100917
1, 105960, Note_on_c, 0, 49, 0
1, 105960, Note_on_c, 0, 58, 48
1, 106000, Note_on_c, 0, 61, 0
1, 106000, Note_on_c, 0, 70, 48
1, 106080, Tempo, 991736
1, 106080, Note_on_c, 0, 70, 0
1, 106080, Note_on_c, 0, 58, 0
1, 106080, Note_on_c, 0, 49, 0
1, 106080, Note_on_c, 0, 42, 0
1, 106080, Note_on_c, 0, 73, 0
1, 106080, Note_on_c, 0, 65, 48
1, 106080, Note_on_c, 0, 68, 48
1, 106080, Note_on_c, 0, 77, 73
1, 106080, Note_on_c, 0, 56, 52
1, 106080, Note_on_c, 0, 54, 52
1, 106100, Control_c, 0, 64, 0
1, 106143, Control_c, 0, 64, 127
1, 106160, Note_on_c, 0, 68, 0
1, 106160, Note_on_c, 0, 65, 0
1, 106160, Note_on_c, 0, 67, 48
1, 106200, Note_on_c, 0, 32, 42
1, 106240, Note_on_c, 0, 67, 0
1, 106240, Note_on_c, 0, 66, 48
1, 106320, Note_on_c, 0, 77, 0
1, 106320, Note_on_c, 0, 68, 59
1, 106400, Note_on_c, 0, 66, 0
1, 106400, Note_on_c, 0, 54, 47
1, 106440, Tempo, 1176471
1, 106440, Note_on_c, 0, 54, 0
1, 106440, Note_on_c, 0, 56, 0
1, 106440, Note_on_c, 0, 56, 46
1, 106480, Note_on_c, 0, 54, 0
1, 106480, Note_on_c, 0, 60, 47
1, 106560, Tempo, 991736
1, 106560, Note_on_c, 0, 60, 0
1, 106560, Note_on_c, 0, 56, 0
1, 106560, Note_on_c, 0, 68, 0
1, 106560, Note_on_c, 0, 32, 0
1, 106560, Note_on_c, 0, 65, 62
1, 106560, Note_on_c, 0, 61, 62
1, 106560, Note_on_c, 0, 73, 73
1, 106560, Note_on_c, 0, 37, 39
1, 106560, Note_on_c, 0, 44, 46
1, 106560, Control_c, 0, 64, 0
1, 106610, Control_c, 0, 64, 127
1, 106720, Note_on_c, 0, 44, 0
1, 106720, Note_on_c, 0, 37, 0
1, 106720, Note_on_c, 0, 53, 58
1, 106720, Note_on_c, 0, 44, 39
1, 106800, Note_on_c, 0, 44, 0
1, 106800, Note_on_c, 0, 53, 0
1, 106800, Note_on_c, 0, 56, 58
1, 106800, Note_on_c, 0, 49, 41
1, 106880, Note_on_c, 0, 49, 0
1, 106880, Note_on_c, 0, 56, 0
1, 106880, Note_on_c, 0, 51, 59
1, 106880, Note_on_c, 0, 37, 33
1, 106880, Note_on_c, 0, 44, 39
1, 106920, Tempo, 1100917
1, 106920, Note_on_c, 0, 65, 0
1, 106920, Note_on_c, 0, 73, 0
1, 106920, Note_on_c, 0, 61, 0
1, 106920, Note_on_c, 0, 56, 69
1, 106960, Note_on_c, 0, 51, 0
1, 106960, Note_on_c, 0, 44, 0
1, 106960, Note_on_c, 0, 37, 0
1, 106960, Note_on_c, 0, 53, 58
1, 106960, Note_on_c, 0, 49, 39
1, 107040, Tempo, 991736
1, 107040, Note_on_c, 0, 49, 0
1, 107040, Note_on_c, 0, 53, 0
1, 107040, Note_on_c, 0, 56, 0
1, 107040, Note_on_c, 0, 56, 62
1, 107040, Note_on_c, 0, 53, 62
1, 107040, Note_on_c, 0, 61, 73
1, 107040, Note_on_c, 0, 37, 37
1, 107040, Note_on_c, 0, 44, 44
1, 107053, Control_c, 0, 64, 0
1, 107107, Control_c, 0, 64, 127
1, 107200, Note_on_c, 0, 44, 0
1, 107200, Note_on_c, 0, 53, 0
1, 107200, Note_on_c, 0, 56, 0
1, 107200, Note_on_c, 0, 37, 0
1, 107200, Note_on_c, 0, 53, 55
1, 107200, Note_on_c, 0, 44, 38
1, 107200, Note_on_c, 0, 49, 38
1, 107280, Note_on_c, 0, 49, 0
1, 107280, Note_on_c, 0, 44, 0
1, 107280, Note_on_c, 0, 53, 0
1, 107280, Note_on_c, 0, 65, 64
1, 107280, Note_on_c, 0, 56, 38
1, 107360, Note_on_c, 0, 56, 0
1, 107360, Note_on_c, 0, 65, 0
1, 107360, Note_on_c, 0, 63, 64
1, 107360, Note_on_c, 0, 51, 29
1, 107360, Note_on_c, 0, 56, 35
1, 107400, Tempo, 1100917
1, 107400, Note_on_c, 0, 61, 0
1, 107400, Note_on_c, 0, 68, 79
1, 107440, Note_on_c, 0, 63, 0
1, 107440, Note_on_c, 0, 56, 0
1, 107440, Note_on_c, 0, 51, 0
1, 107440, Note_on_c, 0, 65, 68
1, 107440, Note_on_c, 0, 53, 35
1, 107480, Note_on_c, 0, 25, 65
1, 107480, Note_on_c, 0, 37, 65
1, 107505, Tempo, 1121495
1, 107520, Tempo, 1100917
1, 107520, Note_on_c, 0, 53, 0
1, 107520, Note_on_c, 0, 68, 0
1, 107520, Note_on_c, 0, 65, 0
1, 107520, Note_on_c, 0, 61, 72
1, 107520, Note_on_c, 0, 69, 72
1, 107520, Note_on_c, 0, 73, 85
1, 107520, Note_on_c, 0, 45, 44
1, 107520, Note_on_c, 0, 52, 44
1, 107520, Note_on_c, 0, 57, 52
1, 107533, Control_c, 0, 64, 0
1, 107580, Tempo, 1052632
1, 107597, Control_c, 0, 64, 127
1, 107670, Tempo, 1043478
1, 107680, Note_on_c, 0, 64, 55
1, 107680, Note_on_c, 0, 69, 55
1, 107680, Note_on_c, 0, 76, 64
1, 107680, Note_on_c, 0, 42, 37
1, 107680, Note_on_c, 0, 49, 37
1, 107680, Note_on_c, 0, 54, 44
1, 107720, Note_on_c, 0, 25, 0
1, 107720, Note_on_c, 0, 37, 0
1, 107740, Note_on_c, 0, 76, 0
1, 107760, Tempo, 1034483
1, 107760, Note_on_c, 0, 64, 0
1, 107760, Note_on_c, 0, 69, 0
1, 107760, Note_on_c, 0, 54, 0
1, 107760, Note_on_c, 0, 42, 0
1, 107760, Note_on_c, 0, 49, 0
1, 107760, Note_on_c, 0, 64, 56
1, 107760, Note_on_c, 0, 69, 56
1, 107760, Note_on_c, 0, 76, 66
1, 107760, Note_on_c, 0, 42, 37
1, 107760, Note_on_c, 0, 49, 37
1, 107760, Note_on_c, 0, 54, 44
1, 107824, Note_on_c, 0, 54, 0
1, 107824, Note_on_c, 0, 42, 0
1, 107824, Note_on_c, 0, 69, 0
1, 107824, Note_on_c, 0, 64, 0
1, 107824, Note_on_c, 0, 76, 0
1, 107824, Note_on_c, 0, 49, 0
1, 107840, Note_on_c, 0, 63, 60
1, 107840, Note_on_c, 0, 69, 60
1, 107840, Note_on_c, 0, 75, 71
1, 107840, Note_on_c, 0, 43, 41
1, 107840, Note_on_c, 0, 49, 41
1, 107840, Note_on_c, 0, 55, 49
1, 107845, Control_c, 0, 64, 0
1, 107850, Tempo, 1025641
1, 107895, Control_c, 0, 64, 127
1, 107904, Note_on_c, 0, 55, 0
1, 107904, Note_on_c, 0, 43, 0
1, 107904, Note_on_c, 0, 69, 0
1, 107904, Note_on_c, 0, 63, 0
1, 107904, Note_on_c, 0, 75, 0
1, 107904, Note_on_c, 0, 49, 0
1, 107920, Note_on_c, 0, 63, 56
1, 107920, Note_on_c, 0, 69, 56
1, 107920, Note_on_c, 0, 75, 66
1, 107920, Note_on_c, 0, 43, 37
1, 107920, Note_on_c, 0, 49, 37
1, 107920, Note_on_c, 0, 55, 44
1, 107940, Tempo, 1016949
1, 107984, Note_on_c, 0, 55, 0
1, 107984, Note_on_c, 0, 43, 0
1, 107984, Note_on_c, 0, 69, 0
1, 107984, Note_on_c, 0, 63, 0
1, 107984, Note_on_c, 0, 75, 0
1, 107984, Note_on_c, 0, 49, 0
1, 108000, Note_on_c, 0, 63, 56
1, 108000, Note_on_c, 0, 69, 56
1, 108000, Note_on_c, 0, 75, 66
1, 108000, Note_on_c, 0, 43, 37
1, 108000, Note_on_c, 0, 49, 37
1, 108000, Note_on_c, 0, 55, 44
1, 108030, Tempo, 1008403
1, 108064, Note_on_c, 0, 55, 0
1, 108064, Note_on_c, 0, 43, 0
1, 108064, Note_on_c, 0, 69, 0
1, 108064, Note_on_c, 0, 63, 0
1, 108064, Note_on_c, 0, 75, 0
1, 108064, Note_on_c, 0, 49, 0
1, 108080, Note_on_c, 0, 62, 61
1, 108080, Note_on_c, 0, 69, 61
1, 108080, Note_on_c, 0, 74, 72
1, 108080, Note_on_c, 0, 44, 41
1, 108080, Note_on_c, 0, 49, 41
1, 108080, Note_on_c, 0, 56, 49
1, 108084, Control_c, 0, 64, 0
1, 108120, Tempo, 1000000
1, 108129, Control_c, 0, 64, 127
1, 108144, Note_on_c, 0, 56, 0
1, 108144, Note_on_c, 0, 74, 0
1, 108144, Note_on_c, 0, 62, 0
1, 108144, Note_on_c, 0, 69, 0
1, 108144, Note_on_c, 0, 44, 0
1, 108144, Note_on_c, 0, 49, 0
1, 108160, Note_on_c, 0, 62, 56
1, 108160, Note_on_c, 0, 69, 56
1, 108160, Note_on_c, 0, 74, 66
1, 108160, Note_on_c, 0, 44, 36
1, 108160, Note_on_c, 0, 49, 36
1, 108160, Note_on_c, 0, 56, 42
1, 108210, Tempo, 991736
1, 108224, Note_on_c, 0, 56, 0
1, 108224, Note_on_c, 0, 44, 0
1, 108224, Note_on_c, 0, 69, 0
1, 108224, Note_on_c, 0, 62, 0
1, 108224, Note_on_c, 0, 74, 0
1, 108224, Note_on_c, 0, 49, 0
1, 108240, Note_on_c, 0, 62, 56
1, 108240, Note_on_c, 0, 69, 56
1, 108240, Note_on_c, 0, 74, 66
1, 108240, Note_on_c, 0, 44, 36
1, 108240, Note_on_c, 0, 49, 36
1, 108240, Note_on_c, 0, 56, 42
1, 108300, Tempo, 983607
1, 108304, Note_on_c, 0, 56, 0
1, 108304, Note_on_c, 0, 44, 0
1, 108304, Note_on_c, 0, 69, 0
1, 108304, Note_on_c, 0, 62, 0
1, 108304, Note_on_c, 0, 74, 0
1, 108304, Note_on_c, 0, 49, 0
1, 108320, Note_on_c, 0, 61, 61
1, 108320, Note_on_c, 0, 69, 61
1, 108320, Note_on_c, 0, 73, 72
1, 108320, Note_on_c, 0, 45, 41
1, 108320, Note_on_c, 0, 49, 41
1, 108320, Note_on_c, 0, 57, 49
1, 108332, Control_c, 0, 64, 0
1, 108375, Control_c, 0, 64, 127
1, 108384, Note_on_c, 0, 57, 0
1, 108384, Note_on_c, 0, 45, 0
1, 108384, Note_on_c, 0, 69, 0
1, 108384, Note_on_c, 0, 61, 0
1, 108384, Note_on_c, 0, 73, 0
1, 108384, Note_on_c, 0, 49, 0
1, 108390, Tempo, 975610
1, 108400, Tempo, 1348315
1, 108400, Note_on_c, 0, 61, 56
1, 108400, Note_on_c, 0, 69, 56
1, 108400, Note_on_c, 0, 73, 66
1, 108400, Note_on_c, 0, 45, 37
1, 108400, Note_on_c, 0, 49, 37
1, 108400, Note_on_c, 0, 57, 44
1, 108440, Note_on_c, 0, 25, 71
1, 108440, Note_on_c, 0, 37, 71
1, 108464, Note_on_c, 0, 57, 0
1, 108464, Note_on_c, 0, 45, 0
1, 108464, Note_on_c, 0, 61, 0
1, 108464, Note_on_c, 0, 73, 0
1, 108464, Note_on_c, 0, 69, 0
1, 108464, Note_on_c, 0, 49, 0
1, 108480, Tempo, 1121495
1, 108480, Note_on_c, 0, 45, 0
1, 108480, Note_on_c, 0, 52, 0
1, 108480, Note_on_c, 0, 69, 0
1, 108480, Note_on_c, 0, 57, 0
1, 108480, Note_on_c, 0, 73, 0
1, 108480, Note_on_c, 0, 61, 0
1, 108480, Note_on_c, 0, 64, 79
1, 108480, Note_on_c, 0, 61, 79
1, 108480, Note_on_c, 0, 68, 79
1, 108480, Note_on_c, 0, 73, 93
1, 108480, Note_on_c, 0, 46, 48
1, 108480, Note_on_c, 0, 52, 48
1, 108480, Note_on_c, 0, 58, 57
1, 108491, Control_c, 0, 64, 0
1, 108528, Control_c, 0, 64, 127
1, 108555, Tempo, 1034483
1, 108640, Note_on_c, 0, 73, 60
1, 108640, Note_on_c, 0, 76, 60
1, 108640, Note_on_c, 0, 80, 60
1, 108640, Note_on_c, 0, 85, 70
1, 108640, Note_on_c, 0, 49, 40
1, 108640, Note_on_c, 0, 56, 40
1, 108640, Note_on_c, 0, 61, 48
1, 108645, Tempo, 1025641
1, 108680, Note_on_c, 0, 25, 0
1, 108680, Note_on_c, 0, 37, 0
1, 108700, Note_on_c, 0, 85, 0
1, 108720, Tempo, 1016949
1, 108720, Note_on_c, 0, 61, 0
1, 108720, Note_on_c, 0, 76, 0
1, 108720, Note_on_c, 0, 73, 0
1, 108720, Note_on_c, 0, 49, 0
1, 108720, Note_on_c, 0, 80, 0
1, 108720, Note_on_c, 0, 56, 0
1, 108720, Note_on_c, 0, 73, 61
1, 108720, Note_on_c, 0, 76, 61
1, 108720, Note_on_c, 0, 80, 61
1, 108720, Note_on_c, 0, 85, 72
1, 108720, Note_on_c, 0, 49, 40
1, 108720, Note_on_c, 0, 56, 40
1, 108720, Note_on_c, 0, 61, 48
1, 108780, Note_on_c, 0, 61, 0
1, 108780, Note_on_c, 0, 80, 0
1, 108780, Note_on_c, 0, 76, 0
1, 108780, Note_on_c, 0, 73, 0
1, 108780, Note_on_c, 0, 56, 0
1, 108780, Note_on_c, 0, 85, 0
1, 108780, Note_on_c, 0, 49, 0
1, 108795, Tempo, 1008403
1, 108800, Note_on_c, 0, 72, 61
1, 108800, Note_on_c, 0, 76, 66
1, 108800, Note_on_c, 0, 80, 66
1, 108800, Note_on_c, 0, 84, 78
1, 108800, Note_on_c, 0, 50, 45
1, 108800, Note_on_c, 0, 56, 45
1, 108800, Note_on_c, 0, 62, 53
1, 108810, Control_c, 0, 64, 0
1, 108855, Control_c, 0, 64, 127
1, 108860, Note_on_c, 0, 62, 0
1, 108860, Note_on_c, 0, 80, 0
1, 108860, Note_on_c, 0, 76, 0
1, 108860, Note_on_c, 0, 72, 0
1, 108860, Note_on_c, 0, 56, 0
1, 108860, Note_on_c, 0, 84, 0
1, 108860, Note_on_c, 0, 50, 0
1, 108870, Tempo, 1000000
1, 108880, Note_on_c, 0, 72, 61
1, 108880, Note_on_c, 0, 76, 61
1, 108880, Note_on_c, 0, 80, 61
1, 108880, Note_on_c, 0, 84, 72
1, 108880, Note_on_c, 0, 50, 40
1, 108880, Note_on_c, 0, 56, 40
1, 108880, Note_on_c, 0, 62, 48
1, 108940, Note_on_c, 0, 62, 0
1, 108940, Note_on_c, 0, 80, 0
1, 108940, Note_on_c, 0, 76, 0
1, 108940, Note_on_c, 0, 72, 0
1, 108940, Note_on_c, 0, 56, 0
1, 108940, Note_on_c, 0, 84, 0
1, 108940, Note_on_c, 0, 50, 0
1, 108960, Tempo, 991736
1, 108960, Note_on_c, 0, 72, 61
1, 108960, Note_on_c, 0, 76, 61
1, 108960, Note_on_c, 0, 80, 61
1, 108960, Note_on_c, 0, 84, 72
1, 108960, Note_on_c, 0, 50, 40
1, 108960, Note_on_c, 0, 56, 40
1, 108960, Note_on_c, 0, 62, 48
1, 109020, Note_on_c, 0, 62, 0
1, 109020, Note_on_c, 0, 80, 0
1, 109020, Note_on_c, 0, 76, 0
1, 109020, Note_on_c, 0, 72, 0
1, 109020, Note_on_c, 0, 56, 0
1, 109020, Note_on_c, 0, 84, 0
1, 109020, Note_on_c, 0, 50, 0
1, 109035, Tempo, 983607
1, 109040, Note_on_c, 0, 71, 61
1, 109040, Note_on_c, 0, 76, 67
1, 109040, Note_on_c, 0, 80, 67
1, 109040, Note_on_c, 0, 83, 79
1, 109040, Note_on_c, 0, 51, 45
1, 109040, Note_on_c, 0, 56, 45
1, 109040, Note_on_c, 0, 63, 53
1, 109045, Control_c, 0, 64, 0
1, 109082, Control_c, 0, 64, 127
1, 109100, Note_on_c, 0, 63, 0
1, 109100, Note_on_c, 0, 80, 0
1, 109100, Note_on_c, 0, 76, 0
1, 109100, Note_on_c, 0, 71, 0
1, 109100, Note_on_c, 0, 56, 0
1, 109100, Note_on_c, 0, 83, 0
1, 109100, Note_on_c, 0, 51, 0
1, 109110, Tempo, 975610
1, 109120, Note_on_c, 0, 71, 61
1, 109120, Note_on_c, 0, 76, 61
1, 109120, Note_on_c, 0, 80, 61
1, 109120, Note_on_c, 0, 83, 72
1, 109120, Note_on_c, 0, 51, 39
1, 109120, Note_on_c, 0, 56, 39
1, 109120, Note_on_c, 0, 63, 46
1, 109180, Note_on_c, 0, 63, 0
1, 109180, Note_on_c, 0, 80, 0
1, 109180, Note_on_c, 0, 76, 0
1, 109180, Note_on_c, 0, 71, 0
1, 109180, Note_on_c, 0, 56, 0
1, 109180, Note_on_c, 0, 83, 0
1, 109180, Note_on_c, 0, 51, 0
1, 109185, Tempo, 967742
1, 109200, Note_on_c, 0, 71, 61
1, 109200, Note_on_c, 0, 76, 61
1, 109200, Note_on_c, 0, 80, 61
1, 109200, Note_on_c, 0, 83, 72
1, 109200, Note_on_c, 0, 51, 39
1, 109200, Note_on_c, 0, 56, 39
1, 109200, Note_on_c, 0, 63, 46
1, 109260, Tempo, 960000
1, 109260, Note_on_c, 0, 63, 0
1, 109260, Note_on_c, 0, 80, 0
1, 109260, Note_on_c, 0, 76, 0
1, 109260, Note_on_c, 0, 71, 0
1, 109260, Note_on_c, 0, 56, 0
1, 109260, Note_on_c, 0, 83, 0
1, 109260, Note_on_c, 0, 51, 0
1, 109280, Tempo, 960000
1, 109280, Note_on_c, 0, 70, 61
1, 109280, Note_on_c, 0, 76, 67
1, 109280, Note_on_c, 0, 80, 67
1, 109280, Note_on_c, 0, 82, 79
1, 109280, Note_on_c, 0, 52, 45
1, 109280, Note_on_c, 0, 56, 45
1, 109280, Note_on_c, 0, 64, 53
1, 109289, Control_c, 0, 64, 0
1, 109322, Control_c, 0, 64, 127
1, 109340, Note_on_c, 0, 64, 0
1, 109340, Note_on_c, 0, 80, 0
1, 109340, Note_on_c, 0, 76, 0
1, 109340, Note_on_c, 0, 70, 0
1, 109340, Note_on_c, 0, 56, 0
1, 109340, Note_on_c, 0, 82, 0
1, 109340, Note_on_c, 0, 52, 0
1, 109360, Tempo, 1304348
1, 109360, Note_on_c, 0, 70, 61
1, 109360, Note_on_c, 0, 76, 61
1, 109360, Note_on_c, 0, 80, 61
1, 109360, Note_on_c, 0, 82, 72
1, 109360, Note_on_c, 0, 52, 40
1, 109360, Note_on_c, 0, 56, 40
1, 109360, Note_on_c, 0, 64, 48
1, 109400, Note_on_c, 0, 25, 78
1, 109400, Note_on_c, 0, 37, 78
1, 109403, Control_c, 0, 64, 0
1, 109420, Note_on_c, 0, 64, 0
1, 109420, Note_on_c, 0, 80, 0
1, 109420, Note_on_c, 0, 76, 0
1, 109420, Note_on_c, 0, 70, 0
1, 109420, Note_on_c, 0, 56, 0
1, 109420, Note_on_c, 0, 82, 0
1, 109420, Note_on_c, 0, 52, 0
1, 109438, Control_c, 0, 64, 127
1, 109440, Tempo, 1100917
1, 109440, Note_on_c, 0, 64, 0
1, 109440, Note_on_c, 0, 46, 0
1, 109440, Note_on_c, 0, 58, 0
1, 109440, Note_on_c, 0, 52, 0
1, 109440, Note_on_c, 0, 61, 0
1, 109440, Note_on_c, 0, 73, 0
1, 109440, Note_on_c, 0, 68, 0
1, 109440, Note_on_c, 0, 63, 86
1, 109440, Note_on_c, 0, 61, 86
1, 109440, Note_on_c, 0, 66, 86
1, 109440, Note_on_c, 0, 73, 102
1, 109440, Note_on_c, 0, 54, 52
1, 109440, Note_on_c, 0, 49, 52
1, 109440, Note_on_c, 0, 45, 52
1, 109440, Note_on_c, 0, 51, 52
1, 109440, Note_on_c, 0, 57, 62
1, 109530, Tempo, 983607
1, 109600, Note_on_c, 0, 81, 62
1, 109600, Note_on_c, 0, 85, 62
1, 109600, Note_on_c, 0, 87, 62
1, 109600, Note_on_c, 0, 93, 73
1, 109600, Note_on_c, 0, 54, 42
1, 109600, Note_on_c, 0, 61, 42
1, 109600, Note_on_c, 0, 63, 42
1, 109600, Note_on_c, 0, 66, 50
1, 109645, Note_on_c, 0, 93, 0
1, 109650, Note_on_c, 0, 37, 0
1, 109650, Note_on_c, 0, 25, 0
1, 109660, Note_on_c, 0, 61, 0
1, 109660, Note_on_c, 0, 66, 0
1, 109660, Note_on_c, 0, 85, 0
1, 109660, Note_on_c, 0, 54, 0
1, 109660, Note_on_c, 0, 63, 0
1, 109660, Note_on_c, 0, 81, 0
1, 109660, Note_on_c, 0, 87, 0
1, 109680, Note_on_c, 0, 81, 64
1, 109680, Note_on_c, 0, 85, 64
1, 109680, Note_on_c, 0, 87, 64
1, 109680, Note_on_c, 0, 93, 75
1, 109680, Note_on_c, 0, 54, 42
1, 109680, Note_on_c, 0, 61, 42
1, 109680, Note_on_c, 0, 63, 42
1, 109680, Note_on_c, 0, 66, 50
1, 109740, Note_on_c, 0, 66, 0
1, 109740, Note_on_c, 0, 63, 0
1, 109740, Note_on_c, 0, 61, 0
1, 109740, Note_on_c, 0, 87, 0
1, 109740, Note_on_c, 0, 81, 0
1, 109740, Note_on_c, 0, 54, 0
1, 109740, Note_on_c, 0, 85, 0
1, 109740, Note_on_c, 0, 93, 0
1, 109760, Note_on_c, 0, 80, 65
1, 109760, Note_on_c, 0, 85, 70
1, 109760, Note_on_c, 0, 87, 70
1, 109760, Note_on_c, 0, 92, 83
1, 109760, Note_on_c, 0, 55, 43
1, 109760, Note_on_c, 0, 61, 48
1, 109760, Note_on_c, 0, 63, 48
1, 109760, Note_on_c, 0, 67, 57
1, 109769, Control_c, 0, 64, 0
1, 109809, Control_c, 0, 64, 127
1, 109820, Note_on_c, 0, 67, 0
1, 109820, Note_on_c, 0, 63, 0
1, 109820, Note_on_c, 0, 61, 0
1, 109820, Note_on_c, 0, 87, 0
1, 109820, Note_on_c, 0, 80, 0
1, 109820, Note_on_c, 0, 55, 0
1, 109820, Note_on_c, 0, 85, 0
1, 109820, Note_on_c, 0, 92, 0
1, 109840, Note_on_c, 0, 80, 65
1, 109840, Note_on_c, 0, 85, 65
1, 109840, Note_on_c, 0, 87, 65
1, 109840, Note_on_c, 0, 92, 77
1, 109840, Note_on_c, 0, 55, 43
1, 109840, Note_on_c, 0, 61, 43
1, 109840, Note_on_c, 0, 63, 43
1, 109840, Note_on_c, 0, 67, 51
1, 109900, Note_on_c, 0, 67, 0
1, 109900, Note_on_c, 0, 63, 0
1, 109900, Note_on_c, 0, 61, 0
1, 109900, Note_on_c, 0, 87, 0
1, 109900, Note_on_c, 0, 80, 0
1, 109900, Note_on_c, 0, 55, 0
1, 109900, Note_on_c, 0, 85, 0
1, 109900, Note_on_c, 0, 92, 0
1, 109905, Tempo, 983607
1, 109920, Note_on_c, 0, 80, 66
1, 109920, Note_on_c, 0, 85, 66
1, 109920, Note_on_c, 0, 87, 66
1, 109920, Note_on_c, 0, 92, 78
1, 109920, Note_on_c, 0, 55, 44
1, 109920, Note_on_c, 0, 61, 44
1, 109920, Note_on_c, 0, 63, 44
1, 109920, Note_on_c, 0, 67, 52
1, 109950, Tempo, 991736
1, 109980, Tempo, 1000000
1, 109980, Note_on_c, 0, 67, 0
1, 109980, Note_on_c, 0, 63, 0
1, 109980, Note_on_c, 0, 61, 0
1, 109980, Note_on_c, 0, 87, 0
1, 109980, Note_on_c, 0, 80, 0
1, 109980, Note_on_c, 0, 55, 0
1, 109980, Note_on_c, 0, 85, 0
1, 109980, Note_on_c, 0, 92, 0
1, 110000, Note_on_c, 0, 79, 67
1, 110000, Note_on_c, 0, 85, 73
1, 110000, Note_on_c, 0, 87, 73
1, 110000, Note_on_c, 0, 91, 87
1, 110000, Note_on_c, 0, 56, 44
1, 110000, Note_on_c, 0, 61, 50
1, 110000, Note_on_c, 0, 63, 50
1, 110000, Note_on_c, 0, 68, 59
1, 110009, Control_c, 0, 64, 0
1, 110010, Tempo, 1008403
1, 110042, Control_c, 0, 64, 127
1, 110055, Tempo, 1016949
1, 110060, Note_on_c, 0, 68, 0
1, 110060, Note_on_c, 0, 63, 0
1, 110060, Note_on_c, 0, 61, 0
1, 110060, Note_on_c, 0, 87, 0
1, 110060, Note_on_c, 0, 79, 0
1, 110060, Note_on_c, 0, 56, 0
1, 110060, Note_on_c, 0, 85, 0
1, 110060, Note_on_c, 0, 91, 0
1, 110080, Note_on_c, 0, 79, 68
1, 110080, Note_on_c, 0, 85, 68
1, 110080, Note_on_c, 0, 87, 68
1, 110080, Note_on_c, 0, 91, 80
1, 110080, Note_on_c, 0, 56, 45
1, 110080, Note_on_c, 0, 61, 44
1, 110080, Note_on_c, 0, 63, 44
1, 110080, Note_on_c, 0, 68, 52
1, 110085, Tempo, 1025641
1, 110115, Tempo, 1034483
1, 110140, Note_on_c, 0, 68, 0
1, 110140, Note_on_c, 0, 63, 0
1, 110140, Note_on_c, 0, 61, 0
1, 110140, Note_on_c, 0, 87, 0
1, 110140, Note_on_c, 0, 79, 0
1, 110140, Note_on_c, 0, 56, 0
1, 110140, Note_on_c, 0, 85, 0
1, 110140, Note_on_c, 0, 91, 0
1, 110145, Tempo, 1043478
1, 110160, Note_on_c, 0, 79, 68
1, 110160, Note_on_c, 0, 85, 68
1, 110160, Note_on_c, 0, 87, 68
1, 110160, Note_on_c, 0, 91, 81
1, 110160, Note_on_c, 0, 56, 45
1, 110160, Note_on_c, 0, 61, 44
1, 110160, Note_on_c, 0, 63, 44
1, 110160, Note_on_c, 0, 68, 52
1, 110190, Tempo, 1052632
1, 110220, Tempo, 1061947
1, 110220, Note_on_c, 0, 68, 0
1, 110220, Note_on_c, 0, 63, 0
1, 110220, Note_on_c, 0, 61, 0
1, 110220, Note_on_c, 0, 87, 0
1, 110220, Note_on_c, 0, 79, 0
1, 110220, Note_on_c, 0, 56, 0
1, 110220, Note_on_c, 0, 85, 0
1, 110220, Note_on_c, 0, 91, 0
1, 110240, Note_on_c, 0, 78, 69
1, 110240, Note_on_c, 0, 85, 76
1, 110240, Note_on_c, 0, 87, 76
1, 110240, Note_on_c, 0, 90, 90
1, 110240, Note_on_c, 0, 57, 46
1, 110240, Note_on_c, 0, 61, 52
1, 110240, Note_on_c, 0, 63, 52
1, 110240, Note_on_c, 0, 69, 61
1, 110249, Control_c, 0, 64, 0
1, 110250, Tempo, 1071429
1, 110280, Tempo, 1081081
1, 110280, Control_c, 0, 64, 127
1, 110295, Tempo, 1081081
1, 110300, Note_on_c, 0, 69, 0
1, 110300, Note_on_c, 0, 63, 0
1, 110300, Note_on_c, 0, 61, 0
1, 110300, Note_on_c, 0, 87, 0
1, 110300, Note_on_c, 0, 78, 0
1, 110300, Note_on_c, 0, 57, 0
1, 110300, Note_on_c, 0, 85, 0
1, 110300, Note_on_c, 0, 90, 0
1, 110320, Tempo, 1250000
1, 110320, Note_on_c, 0, 78, 70
1, 110320, Note_on_c, 0, 85, 70
1, 110320, Note_on_c, 0, 87, 70
1, 110320, Note_on_c, 0, 90, 82
1, 110320, Note_on_c, 0, 57, 46
1, 110320, Note_on_c, 0, 61, 46
1, 110320, Note_on_c, 0, 63, 46
1, 110320, Note_on_c, 0, 69, 55
1, 110360, Note_on_c, 0, 37, 78
1, 110360, Note_on_c, 0, 25, 78
1, 110380, Note_on_c, 0, 69, 0
1, 110380, Note_on_c, 0, 63, 0
1, 110380, Note_on_c, 0, 61, 0
1, 110380, Note_on_c, 0, 78, 0
1, 110380, Note_on_c, 0, 57, 0
1, 110380, Note_on_c, 0, 87, 0
1, 110380, Note_on_c, 0, 85, 0
1, 110380, Note_on_c, 0, 90, 0
1, 110400, Tempo, 1027573
1, 110400, Note_on_c, 0, 45, 0
1, 110400, Note_on_c, 0, 54, 0
1, 110400, Note_on_c, 0, 57, 0
1, 110400, Note_on_c, 0, 73, 0
1, 110400, Note_on_c, 0, 61, 0
1, 110400, Note_on_c, 0, 63, 0
1, 110400, Note_on_c, 0, 49, 0
1, 110400, Note_on_c, 0, 66, 0
1, 110400, Note_on_c, 0, 51, 0
1, 110400, Note_on_c, 0, 61, 86
1, 110400, Note_on_c, 0, 65, 86
1, 110400, Note_on_c, 0, 68, 86
1, 110400, Note_on_c, 0, 73, 102
1, 110400, Note_on_c, 0, 44, 52
1, 110400, Note_on_c, 0, 49, 52
1, 110400, Note_on_c, 0, 53, 52
1, 110400, Note_on_c, 0, 56, 62
1, 110400, Control_c, 0, 64, 0
1, 110464, Control_c, 0, 64, 127
1, 110560, Tempo, 903751
1, 110560, Note_on_c, 0, 97, 73
1, 110560, Note_on_c, 0, 85, 62
1, 110560, Note_on_c, 0, 73, 51
1, 110560, Note_on_c, 0, 61, 43
1, 110600, Note_on_c, 0, 25, 0
1, 110600, Note_on_c, 0, 37, 0
1, 110620, Note_on_c, 0, 97, 0
1, 110620, Note_on_c, 0, 61, 0
1, 110620, Note_on_c, 0, 85, 0
1, 110620, Note_on_c, 0, 73, 0
1, 110640, Note_on_c, 0, 85, 68
1, 110640, Note_on_c, 0, 97, 81
1, 110640, Note_on_c, 0, 89, 68
1, 110640, Note_on_c, 0, 61, 47
1, 110640, Note_on_c, 0, 73, 56
1, 110640, Note_on_c, 0, 65, 47
1, 110700, Note_on_c, 0, 65, 0
1, 110700, Note_on_c, 0, 97, 0
1, 110700, Note_on_c, 0, 85, 0
1, 110700, Note_on_c, 0, 73, 0
1, 110700, Note_on_c, 0, 89, 0
1, 110700, Note_on_c, 0, 61, 0
1, 110720, Note_on_c, 0, 92, 76
1, 110720, Note_on_c, 0, 80, 64
1, 110720, Note_on_c, 0, 68, 53
1, 110720, Note_on_c, 0, 56, 44
1, 110780, Note_on_c, 0, 56, 0
1, 110780, Note_on_c, 0, 80, 0
1, 110780, Note_on_c, 0, 92, 0
1, 110780, Note_on_c, 0, 68, 0
1, 110800, Tempo, 910609
1, 110800, Note_on_c, 0, 92, 76
1, 110800, Note_on_c, 0, 80, 64
1, 110800, Note_on_c, 0, 68, 53
1, 110800, Note_on_c, 0, 56, 44
1, 110860, Note_on_c, 0, 56, 0
1, 110860, Note_on_c, 0, 80, 0
1, 110860, Note_on_c, 0, 92, 0
1, 110860, Note_on_c, 0, 68, 0
1, 110880, Tempo, 877321
1, 110880, Note_on_c, 0, 80, 68
1, 110880, Note_on_c, 0, 89, 68
1, 110880, Note_on_c, 0, 92, 81
1, 110880, Note_on_c, 0, 61, 47
1, 110880, Note_on_c, 0, 56, 47
1, 110880, Note_on_c, 0, 65, 47
1, 110880, Note_on_c, 0, 68, 56
1, 110940, Note_on_c, 0, 68, 0
1, 110940, Note_on_c, 0, 61, 0
1, 110940, Note_on_c, 0, 89, 0
1, 110940, Note_on_c, 0, 80, 0
1, 110940, Note_on_c, 0, 65, 0
1, 110940, Note_on_c, 0, 92, 0
1, 110940, Note_on_c, 0, 56, 0
1, 110960, Note_on_c, 0, 94, 73
1, 110960, Note_on_c, 0, 82, 62
1, 110960, Note_on_c, 0, 70, 51
1, 110960, Note_on_c, 0, 58, 43
1, 111020, Note_on_c, 0, 58, 0
1, 111020, Note_on_c, 0, 82, 0
1, 111020, Note_on_c, 0, 94, 0
1, 111020, Note_on_c, 0, 70, 0
1, 111040, Tempo, 931822
1, 111040, Note_on_c, 0, 82, 62
1, 111040, Note_on_c, 0, 94, 73
1, 111040, Note_on_c, 0, 58, 43
1, 111040, Note_on_c, 0, 70, 51
1, 111100, Note_on_c, 0, 70, 0
1, 111100, Note_on_c, 0, 94, 0
1, 111100, Note_on_c, 0, 82, 0
1, 111100, Note_on_c, 0, 58, 0
1, 111120, Tempo, 877321
1, 111120, Note_on_c, 0, 82, 68
1, 111120, Note_on_c, 0, 89, 68
1, 111120, Note_on_c, 0, 94, 81
1, 111120, Note_on_c, 0, 61, 47
1, 111120, Note_on_c, 0, 58, 47
1, 111120, Note_on_c, 0, 65, 47
1, 111120, Note_on_c, 0, 70, 56
1, 111180, Note_on_c, 0, 70, 0
1, 111180, Note_on_c, 0, 61, 0
1, 111180, Note_on_c, 0, 89, 0
1, 111180, Note_on_c, 0, 82, 0
1, 111180, Note_on_c, 0, 65, 0
1, 111180, Note_on_c, 0, 94, 0
1, 111180, Note_on_c, 0, 58, 0
1, 111200, Note_on_c, 0, 77, 63
1, 111200, Note_on_c, 0, 89, 75
1, 111200, Note_on_c, 0, 53, 44
1, 111200, Note_on_c, 0, 65, 52
1, 111260, Note_on_c, 0, 65, 0
1, 111260, Note_on_c, 0, 89, 0
1, 111260, Note_on_c, 0, 77, 0
1, 111260, Note_on_c, 0, 53, 0
1, 111280, Note_on_c, 0, 77, 63
1, 111280, Note_on_c, 0, 89, 75
1, 111280, Note_on_c, 0, 53, 44
1, 111280, Note_on_c, 0, 65, 52
1, 111340, Note_on_c, 0, 65, 0
1, 111340, Note_on_c, 0, 89, 0
1, 111340, Note_on_c, 0, 77, 0
1, 111340, Note_on_c, 0, 53, 0
1, 111360, Tempo, 870954
1, 111360, Note_on_c, 0, 56, 0
1, 111360, Note_on_c, 0, 65, 0
1, 111360, Note_on_c, 0, 61, 0
1, 111360, Note_on_c, 0, 68, 0
1, 111360, Note_on_c, 0, 73, 0
1, 111360, Note_on_c, 0, 53, 0
1, 111360, Note_on_c, 0, 49, 0
1, 111360, Note_on_c, 0, 44, 0
1, 111360, Note_on_c, 0, 89, 81
1, 111360, Note_on_c, 0, 85, 68
1, 111360, Note_on_c, 0, 77, 68
1, 111360, Note_on_c, 0, 58, 47
1, 111360, Note_on_c, 0, 65, 56
1, 111360, Note_on_c, 0, 61, 47
1, 111360, Note_on_c, 0, 53, 47
1, 111420, Note_on_c, 0, 53, 0
1, 111420, Note_on_c, 0, 65, 0
1, 111420, Note_on_c, 0, 85, 0
1, 111420, Note_on_c, 0, 77, 0
1, 111420, Note_on_c, 0, 89, 0
1, 111420, Note_on_c, 0, 61, 0
1, 111420, Note_on_c, 0, 58, 0
1, 111440, Note_on_c, 0, 92, 74
1, 111440, Note_on_c, 0, 80, 62
1, 111440, Note_on_c, 0, 68, 51
1, 111440, Note_on_c, 0, 56, 43
1, 111500, Note_on_c, 0, 56, 0
1, 111500, Note_on_c, 0, 92, 0
1, 111500, Note_on_c, 0, 80, 0
1, 111500, Note_on_c, 0, 68, 0
1, 111520, Note_on_c, 0, 85, 74
1, 111520, Note_on_c, 0, 73, 62
1, 111520, Note_on_c, 0, 61, 51
1, 111520, Note_on_c, 0, 49, 43
1, 111580, Note_on_c, 0, 49, 0
1, 111580, Note_on_c, 0, 85, 0
1, 111580, Note_on_c, 0, 73, 0
1, 111580, Note_on_c, 0, 61, 0
1, 111600, Tempo, 852394
1, 111600, Note_on_c, 0, 85, 81
1, 111600, Note_on_c, 0, 80, 68
1, 111600, Note_on_c, 0, 73, 68
1, 111600, Note_on_c, 0, 61, 56
1, 111600, Note_on_c, 0, 56, 47
1, 111600, Note_on_c, 0, 49, 47
1, 111660, Note_on_c, 0, 49, 0
1, 111660, Note_on_c, 0, 80, 0
1, 111660, Note_on_c, 0, 73, 0
1, 111660, Note_on_c, 0, 85, 0
1, 111660, Note_on_c, 0, 56, 0
1, 111660, Note_on_c, 0, 61, 0
1, 111680, Note_on_c, 0, 92, 75
1, 111680, Note_on_c, 0, 80, 63
1, 111680, Note_on_c, 0, 68, 52
1, 111680, Note_on_c, 0, 56, 44
1, 111740, Note_on_c, 0, 56, 0
1, 111740, Note_on_c, 0, 92, 0
1, 111740, Note_on_c, 0, 80, 0
1, 111740, Note_on_c, 0, 68, 0
1, 111760, Tempo, 917571
1, 111760, Note_on_c, 0, 82, 75
1, 111760, Note_on_c, 0, 70, 63
1, 111760, Note_on_c, 0, 58, 52
1, 111760, Note_on_c, 0, 46, 44
1, 111820, Note_on_c, 0, 46, 0
1, 111820, Note_on_c, 0, 82, 0
1, 111820, Note_on_c, 0, 70, 0
1, 111820, Note_on_c, 0, 58, 0
1, 111840, Tempo, 846382
1, 111840, Note_on_c, 0, 82, 81
1, 111840, Note_on_c, 0, 77, 68
1, 111840, Note_on_c, 0, 70, 68
1, 111840, Note_on_c, 0, 58, 56
1, 111840, Note_on_c, 0, 53, 47
1, 111840, Note_on_c, 0, 46, 47
1, 111900, Note_on_c, 0, 46, 0
1, 111900, Note_on_c, 0, 77, 0
1, 111900, Note_on_c, 0, 70, 0
1, 111900, Note_on_c, 0, 82, 0
1, 111900, Note_on_c, 0, 53, 0
1, 111900, Note_on_c, 0, 58, 0
1, 111920, Note_on_c, 0, 85, 74
1, 111920, Note_on_c, 0, 73, 62
1, 111920, Note_on_c, 0, 61, 51
1, 111920, Note_on_c, 0, 49, 43
1, 111980, Note_on_c, 0, 49, 0
1, 111980, Note_on_c, 0, 85, 0
1, 111980, Note_on_c, 0, 73, 0
1, 111980, Note_on_c, 0, 61, 0
1, 112000, Note_on_c, 0, 80, 74
1, 112000, Note_on_c, 0, 68, 62
1, 112000, Note_on_c, 0, 56, 51
1, 112000, Note_on_c, 0, 44, 43
1, 112060, Note_on_c, 0, 44, 0
1, 112060, Note_on_c, 0, 80, 0
1, 112060, Note_on_c, 0, 68, 0
1, 112060, Note_on_c, 0, 56, 0
1, 112080, Note_on_c, 0, 80, 81
1, 112080, Note_on_c, 0, 77, 68
1, 112080, Note_on_c, 0, 68, 68
1, 112080, Note_on_c, 0, 56, 56
1, 112080, Note_on_c, 0, 53, 47
1, 112080, Note_on_c, 0, 44, 47
1, 112140, Note_on_c, 0, 44, 0
1, 112140, Note_on_c, 0, 77, 0
1, 112140, Note_on_c, 0, 68, 0
1, 112140, Note_on_c, 0, 80, 0
1, 112140, Note_on_c, 0, 53, 0
1, 112140, Note_on_c, 0, 56, 0
1, 112160, Note_on_c, 0, 82, 73
1, 112160, Note_on_c, 0, 70, 62
1, 112160, Note_on_c, 0, 58, 51
1, 112160, Note_on_c, 0, 46, 43
1, 112220, Note_on_c, 0, 46, 0
1, 112220, Note_on_c, 0, 82, 0
1, 112220, Note_on_c, 0, 70, 0
1, 112220, Note_on_c, 0, 58, 0
1, 112240, Tempo, 903751
1, 112240, Note_on_c, 0, 77, 73
1, 112240, Note_on_c, 0, 65, 62
1, 112240, Note_on_c, 0, 53, 51
1, 112240, Note_on_c, 0, 41, 43
1, 112300, Note_on_c, 0, 41, 0
1, 112300, Note_on_c, 0, 77, 0
1, 112300, Note_on_c, 0, 65, 0
1, 112300, Note_on_c, 0, 53, 0
1, 112320, Time_signature, 2, 2, 24, 8
1, 112320, Tempo, 877321
1, 112320, Note_on_c, 0, 77, 81
1, 112320, Note_on_c, 0, 73, 68
1, 112320, Note_on_c, 0, 65, 68
1, 112320, Note_on_c, 0, 46, 47
1, 112320, Note_on_c, 0, 53, 56
1, 112320, Note_on_c, 0, 49, 47
1, 112320, Note_on_c, 0, 41, 47
1, 112380, Note_on_c, 0, 41, 0
1, 112380, Note_on_c, 0, 53, 0
1, 112380, Note_on_c, 0, 73, 0
1, 112380, Note_on_c, 0, 65, 0
1, 112380, Note_on_c, 0, 77, 0
1, 112380, Note_on_c, 0, 49, 0
1, 112380, Note_on_c, 0, 46, 0
1, 112400, Note_on_c, 0, 80, 74
1, 112400, Note_on_c, 0, 68, 62
1, 112400, Note_on_c, 0, 56, 51
1, 112400, Note_on_c, 0, 44, 43
1, 112460, Note_on_c, 0, 44, 0
1, 112460, Note_on_c, 0, 80, 0
1, 112460, Note_on_c, 0, 68, 0
1, 112460, Note_on_c, 0, 56, 0
1, 112480, Note_on_c, 0, 73, 74
1, 112480, Note_on_c, 0, 61, 62
1, 112480, Note_on_c, 0, 49, 51
1, 112480, Note_on_c, 0, 37, 43
1, 112540, Note_on_c, 0, 37, 0
1, 112540, Note_on_c, 0, 73, 0
1, 112540, Note_on_c, 0, 61, 0
1, 112540, Note_on_c, 0, 49, 0
1, 112560, Tempo, 896995
1, 112560, Note_on_c, 0, 73, 81
1, 112560, Note_on_c, 0, 68, 68
1, 112560, Note_on_c, 0, 61, 68
1, 112560, Note_on_c, 0, 49, 56
1, 112560, Note_on_c, 0, 44, 47
1, 112560, Note_on_c, 0, 37, 47
1, 112620, Note_on_c, 0, 37, 0
1, 112620, Note_on_c, 0, 68, 0
1, 112620, Note_on_c, 0, 61, 0
1, 112620, Note_on_c, 0, 73, 0
1, 112620, Note_on_c, 0, 44, 0
1, 112620, Note_on_c, 0, 49, 0
1, 112640, Note_on_c, 0, 77, 73
1, 112640, Note_on_c, 0, 65, 62
1, 112640, Note_on_c, 0, 53, 51
1, 112640, Note_on_c, 0, 41, 43
1, 112700, Note_on_c, 0, 41, 0
1, 112700, Note_on_c, 0, 77, 0
1, 112700, Note_on_c, 0, 65, 0
1, 112700, Note_on_c, 0, 53, 0
1, 112720, Note_on_c, 0, 70, 73
1, 112720, Note_on_c, 0, 58, 62
1, 112720, Note_on_c, 0, 46, 51
1, 112720, Note_on_c, 0, 34, 43
1, 112780, Note_on_c, 0, 34, 0
1, 112780, Note_on_c, 0, 70, 0
1, 112780, Note_on_c, 0, 58, 0
1, 112780, Note_on_c, 0, 46, 0
1, 112800, Tempo, 924642
1, 112800, Note_on_c, 0, 70, 81
1, 112800, Note_on_c, 0, 65, 68
1, 112800, Note_on_c, 0, 58, 68
1, 112800, Note_on_c, 0, 41, 47
1, 112800, Note_on_c, 0, 46, 56
1, 112800, Note_on_c, 0, 34, 47
1, 112860, Note_on_c, 0, 34, 0
1, 112860, Note_on_c, 0, 65, 0
1, 112860, Note_on_c, 0, 58, 0
1, 112860, Note_on_c, 0, 70, 0
1, 112860, Note_on_c, 0, 46, 0
1, 112860, Note_on_c, 0, 41, 0
1, 112880, Note_on_c, 0, 73, 74
1, 112880, Note_on_c, 0, 61, 62
1, 112880, Note_on_c, 0, 49, 51
1, 112880, Note_on_c, 0, 37, 43
1, 112940, Note_on_c, 0, 37, 0
1, 112940, Note_on_c, 0, 73, 0
1, 112940, Note_on_c, 0, 61, 0
1, 112940, Note_on_c, 0, 49, 0
1, 112960, Note_on_c, 0, 68, 74
1, 112960, Note_on_c, 0, 56, 62
1, 112960, Note_on_c, 0, 44, 51
1, 112960, Note_on_c, 0, 32, 43
1, 113020, Note_on_c, 0, 32, 0
1, 113020, Note_on_c, 0, 68, 0
1, 113020, Note_on_c, 0, 56, 0
1, 113020, Note_on_c, 0, 44, 0
1, 113040, Tempo, 946522
1, 113040, Note_on_c, 0, 70, 81
1, 113040, Note_on_c, 0, 58, 68
1, 113040, Note_on_c, 0, 46, 56
1, 113040, Note_on_c, 0, 34, 47
1, 113052, Tempo, 954047
1, 113067, Tempo, 961693
1, 113082, Tempo, 969462
1, 113097, Tempo, 985383
1, 113100, Note_on_c, 0, 34, 0
1, 113100, Note_on_c, 0, 70, 0
1, 113100, Note_on_c, 0, 58, 0
1, 113100, Note_on_c, 0, 46, 0
1, 113112, Tempo, 993542
1, 113120, Note_on_c, 0, 65, 73
1, 113120, Note_on_c, 0, 53, 62
1, 113120, Note_on_c, 0, 41, 51
1, 113120, Note_on_c, 0, 29, 43
1, 113127, Tempo, 1010271
1, 113142, Tempo, 1018849
1, 113157, Tempo, 1036448
1, 113172, Tempo, 1045478
1, 113180, Note_on_c, 0, 29, 0
1, 113180, Note_on_c, 0, 65, 0
1, 113180, Note_on_c, 0, 53, 0
1, 113180, Note_on_c, 0, 41, 0
1, 113187, Tempo, 1054667
1, 113200, Note_on_c, 0, 68, 73
1, 113200, Note_on_c, 0, 56, 62
1, 113200, Note_on_c, 0, 44, 51
1, 113200, Note_on_c, 0, 32, 43
1, 113202, Tempo, 1073537
1, 113217, Tempo, 1083228
1, 113232, Tempo, 1103144
1, 113247, Tempo, 1113379
1, 113260, Note_on_c, 0, 32, 0
1, 113260, Note_on_c, 0, 68, 0
1, 113260, Note_on_c, 0, 56, 0
1, 113260, Note_on_c, 0, 44, 0
1, 113262, Tempo, 1134430
1, 113280, Time_signature, 4, 2, 24, 8
1, 113280, Tempo, 1001837
1, 113280, Note_on_c, 0, 49, 78
1, 113280, Note_on_c, 0, 61, 92
1, 113280, Note_on_c, 0, 25, 58
1, 113280, Note_on_c, 0, 37, 69
1, 113280, Control_c, 0, 64, 0
1, 113340, Control_c, 0, 64, 127
1, 113440, Note_on_c, 0, 37, 0
1, 113440, Note_on_c, 0, 49, 0
1, 113440, Note_on_c, 0, 61, 0
1, 113440, Note_on_c, 0, 25, 0
1, 113440, Note_on_c, 0, 65, 66
1, 113440, Note_on_c, 0, 68, 66
1, 113440, Note_on_c, 0, 73, 66
1, 113440, Note_on_c, 0, 80, 83
1, 113440, Note_on_c, 0, 44, 49
1, 113440, Note_on_c, 0, 49, 49
1, 113440, Note_on_c, 0, 56, 62
1, 113442, Note_on_c, 0, 77, 66
1, 113442, Note_on_c, 0, 53, 49
1, 113512, Note_on_c, 0, 56, 0
1, 113512, Note_on_c, 0, 80, 0
1, 113512, Note_on_c, 0, 65, 0
1, 113512, Note_on_c, 0, 44, 0
1, 113512, Note_on_c, 0, 68, 0
1, 113512, Note_on_c, 0, 73, 0
1, 113512, Note_on_c, 0, 49, 0
1, 113514, Note_on_c, 0, 53, 0
1, 113514, Note_on_c, 0, 77, 0
1, 113520, Tempo, 917571
1, 113520, Note_on_c, 0, 73, 70
1, 113520, Note_on_c, 0, 77, 70
1, 113520, Note_on_c, 0, 80, 70
1, 113520, Note_on_c, 0, 85, 88
1, 113520, Note_on_c, 0, 56, 52
1, 113520, Note_on_c, 0, 49, 52
1, 113520, Note_on_c, 0, 53, 52
1, 113520, Note_on_c, 0, 61, 52
1, 113520, Note_on_c, 0, 65, 66
1, 114000, Tempo, 1001837
1, 114000, Note_on_c, 0, 65, 0
1, 114000, Note_on_c, 0, 85, 0
1, 114000, Note_on_c, 0, 73, 0
1, 114000, Note_on_c, 0, 56, 0
1, 114000, Note_on_c, 0, 77, 0
1, 114000, Note_on_c, 0, 80, 0
1, 114000, Note_on_c, 0, 53, 0
1, 114000, Note_on_c, 0, 49, 0
1, 114000, Note_on_c, 0, 61, 0
1, 114000, Note_on_c, 0, 65, 70
1, 114000, Note_on_c, 0, 68, 70
1, 114000, Note_on_c, 0, 73, 70
1, 114000, Note_on_c, 0, 77, 70
1, 114000, Note_on_c, 0, 80, 89
1, 114000, Note_on_c, 0, 44, 52
1, 114000, Note_on_c, 0, 49, 52
1, 114000, Note_on_c, 0, 53, 52
1, 114000, Note_on_c, 0, 56, 66
1, 114160, Note_on_c, 0, 56, 0
1, 114160, Note_on_c, 0, 77, 0
1, 114160, Note_on_c, 0, 65, 0
1, 114160, Note_on_c, 0, 80, 0
1, 114160, Note_on_c, 0, 68, 0
1, 114160, Note_on_c, 0, 73, 0
1, 114160, Note_on_c, 0, 49, 0
1, 114160, Note_on_c, 0, 44, 0
1, 114160, Note_on_c, 0, 53, 0
1, 114160, Note_on_c, 0, 56, 90
1, 114160, Note_on_c, 0, 32, 67
1, 114240, Note_on_c, 0, 32, 0
1, 114240, Note_on_c, 0, 56, 0
1, 114240, Note_on_c, 0, 49, 78
1, 114240, Note_on_c, 0, 61, 92
1, 114240, Note_on_c, 0, 25, 58
1, 114240, Note_on_c, 0, 37, 69
1, 114400, Note_on_c, 0, 37, 0
1, 114400, Note_on_c, 0, 49, 0
1, 114400, Note_on_c, 0, 61, 0
1, 114400, Note_on_c, 0, 25, 0
1, 114400, Note_on_c, 0, 65, 66
1, 114400, Note_on_c, 0, 68, 66
1, 114400, Note_on_c, 0, 73, 66
1, 114400, Note_on_c, 0, 80, 83
1, 114400, Note_on_c, 0, 44, 49
1, 114400, Note_on_c, 0, 49, 49
1, 114400, Note_on_c, 0, 56, 62
1, 114402, Note_on_c, 0, 77, 66
1, 114402, Note_on_c, 0, 53, 49
1, 114472, Note_on_c, 0, 56, 0
1, 114472, Note_on_c, 0, 80, 0
1, 114472, Note_on_c, 0, 65, 0
1, 114472, Note_on_c, 0, 44, 0
1, 114472, Note_on_c, 0, 68, 0
1, 114472, Note_on_c, 0, 73, 0
1, 114472, Note_on_c, 0, 49, 0
1, 114474, Note_on_c, 0, 53, 0
1, 114474, Note_on_c, 0, 77, 0
1, 114480, Tempo, 931822
1, 114480, Note_on_c, 0, 73, 70
1, 114480, Note_on_c, 0, 77, 70
1, 114480, Note_on_c, 0, 80, 70
1, 114480, Note_on_c, 0, 85, 88
1, 114480, Note_on_c, 0, 56, 52
1, 114480, Note_on_c, 0, 49, 52
1, 114480, Note_on_c, 0, 53, 52
1, 114480, Note_on_c, 0, 61, 52
1, 114480, Note_on_c, 0, 65, 66
1, 114960, Tempo, 1010271
1, 114960, Note_on_c, 0, 65, 0
1, 114960, Note_on_c, 0, 85, 0
1, 114960, Note_on_c, 0, 73, 0
1, 114960, Note_on_c, 0, 56, 0
1, 114960, Note_on_c, 0, 77, 0
1, 114960, Note_on_c, 0, 80, 0
1, 114960, Note_on_c, 0, 53, 0
1, 114960, Note_on_c, 0, 49, 0
1, 114960, Note_on_c, 0, 61, 0
1, 114960, Note_on_c, 0, 65, 70
1, 114960, Note_on_c, 0, 68, 70
1, 114960, Note_on_c, 0, 73, 70
1, 114960, Note_on_c, 0, 77, 70
1, 114960, Note_on_c, 0, 80, 89
1, 114960, Note_on_c, 0, 44, 52
1, 114960, Note_on_c, 0, 49, 52
1, 114960, Note_on_c, 0, 53, 52
1, 114960, Note_on_c, 0, 56, 66
1, 115120, Note_on_c, 0, 56, 0
1, 115120, Note_on_c, 0, 77, 0
1, 115120, Note_on_c, 0, 65, 0
1, 115120, Note_on_c, 0, 80, 0
1, 115120, Note_on_c, 0, 68, 0
1, 115120, Note_on_c, 0, 73, 0
1, 115120, Note_on_c, 0, 49, 0
1, 115120, Note_on_c, 0, 44, 0
1, 115120, Note_on_c, 0, 53, 0
1, 115120, Note_on_c, 0, 56, 90
1, 115120, Note_on_c, 0, 32, 67
1, 115200, Note_on_c, 0, 32, 0
1, 115200, Note_on_c, 0, 56, 0
1, 115200, Note_on_c, 0, 49, 78
1, 115200, Note_on_c, 0, 61, 92
1, 115200, Note_on_c, 0, 25, 58
1, 115200, Note_on_c, 0, 37, 69
1, 115360, Note_on_c, 0, 37, 0
1, 115360, Note_on_c, 0, 49, 0
1, 115360, Note_on_c, 0, 61, 0
1, 115360, Note_on_c, 0, 25, 0
1, 115360, Note_on_c, 0, 65, 66
1, 115360, Note_on_c, 0, 68, 66
1, 115360, Note_on_c, 0, 73, 66
1, 115360, Note_on_c, 0, 80, 83
1, 115360, Note_on_c, 0, 44, 49
1, 115360, Note_on_c, 0, 49, 49
1, 115360, Note_on_c, 0, 56, 62
1, 115362, Note_on_c, 0, 77, 66
1, 115362, Note_on_c, 0, 53, 49
1, 115432, Note_on_c, 0, 56, 0
1, 115432, Note_on_c, 0, 80, 0
1, 115432, Note_on_c, 0, 65, 0
1, 115432, Note_on_c, 0, 44, 0
1, 115432, Note_on_c, 0, 68, 0
1, 115432, Note_on_c, 0, 73, 0
1, 115432, Note_on_c, 0, 49, 0
1, 115434, Note_on_c, 0, 53, 0
1, 115434, Note_on_c, 0, 77, 0
1, 115440, Tempo, 946522
1, 115440, Note_on_c, 0, 73, 70
1, 115440, Note_on_c, 0, 77, 70
1, 115440, Note_on_c, 0, 80, 70
1, 115440, Note_on_c, 0, 85, 88
1, 115440, Note_on_c, 0, 56, 52
1, 115440, Note_on_c, 0, 49, 52
1, 115440, Note_on_c, 0, 53, 52
1, 115440, Note_on_c, 0, 61, 52
1, 115440, Note_on_c, 0, 65, 66
1, 115680, Tempo, 1036448
1, 115920, Note_on_c, 0, 65, 0
1, 115920, Note_on_c, 0, 61, 0
1, 115920, Note_on_c, 0, 53, 0
1, 115920, Note_on_c, 0, 56, 0
1, 115920, Note_on_c, 0, 49, 0
1, 115920, Note_on_c, 0, 25, 72
1, 115920, Note_on_c, 0, 37, 82
1, 116160, Note_on_c, 0, 37, 0
1, 116160, Note_on_c, 0, 77, 0
1, 116160, Note_on_c, 0, 73, 0
1, 116160, Note_on_c, 0, 85, 0
1, 116160, Note_on_c, 0, 25, 0
1, 116160, Note_on_c, 0, 80, 0
1, 116160, Note_on_c, 0, 73, 77
1, 116160, Note_on_c, 0, 77, 77
1, 116160, Note_on_c, 0, 80, 77
1, 116160, Note_on_c, 0, 85, 96
1, 116160, Note_on_c, 0, 56, 57
1, 116160, Note_on_c, 0, 44, 57
1, 116160, Note_on_c, 0, 53, 57
1, 116160, Note_on_c, 0, 61, 72
1, 116880, Tempo, 1123806
1, 116880, Note_on_c, 0, 61, 0
1, 116880, Note_on_c, 0, 53, 0
1, 116880, Note_on_c, 0, 56, 0
1, 116880, Note_on_c, 0, 44, 0
1, 116880, Note_on_c, 0, 25, 79
1, 116880, Note_on_c, 0, 37, 90
1, 117120, Tempo, 1695394
1, 117120, Note_on_c, 0, 37, 0
1, 117120, Note_on_c, 0, 77, 0
1, 117120, Note_on_c, 0, 73, 0
1, 117120, Note_on_c, 0, 85, 0
1, 117120, Note_on_c, 0, 25, 0
1, 117120, Note_on_c, 0, 80, 0
1, 117120, Note_on_c, 0, 73, 77
1, 117120, Note_on_c, 0, 77, 77
1, 117120, Note_on_c, 0, 80, 77
1, 117120, Note_on_c, 0, 85, 96
1, 117120, Note_on_c, 0, 44, 57
1, 117120, Note_on_c, 0, 53, 57
1, 117120, Note_on_c, 0, 56, 57
1, 117120, Note_on_c, 0, 61, 72
1, 117360, Tempo, 1001837
1, 117360, Note_on_c, 0, 49, 58
1, 117405, Tempo, 1010271
1, 117414, Note_on_c, 0, 49, 0
1, 117414, Note_on_c, 0, 53, 60
1, 117435, Tempo, 1018849
1, 117465, Tempo, 1027573
1, 117467, Note_on_c, 0, 53, 0
1, 117467, Note_on_c, 0, 56, 62
1, 117495, Tempo, 1036448
1, 117520, Note_on_c, 0, 61, 64
1, 117521, Note_on_c, 0, 56, 0
1, 117525, Tempo, 1045478
1, 117555, Tempo, 1054667
1, 117574, Note_on_c, 0, 61, 0
1, 117574, Note_on_c, 0, 65, 66
1, 117585, Tempo, 1064018
1, 117627, Note_on_c, 0, 65, 0
1, 117627, Note_on_c, 0, 68, 68
1, 117630, Tempo, 1073537
1, 117660, Tempo, 1083228
1, 117681, Note_on_c, 0, 68, 0
1, 117681, Note_on_c, 0, 73, 70
1, 117690, Tempo, 1093095
1, 117720, Tempo, 1103144
1, 117734, Note_on_c, 0, 73, 0
1, 117734, Note_on_c, 0, 77, 72
1, 117750, Tempo, 1113379
1, 117780, Tempo, 1123806
1, 117787, Note_on_c, 0, 80, 74
1, 117788, Note_on_c, 0, 77, 0
1, 117810, Tempo, 1134430
1, 117840, Note_on_c, 0, 61, 0
1, 117840, Note_on_c, 0, 85, 0
1, 117840, Note_on_c, 0, 80, 0
1, 117840, Note_on_c, 0, 44, 0
1, 117840, Note_on_c, 0, 77, 0
1, 117840, Note_on_c, 0, 56, 0
1, 117840, Note_on_c, 0, 73, 0
1, 117840, Note_on_c, 0, 53, 0
1, 117840, Note_on_c, 0, 92, 87
1, 117840, Note_on_c, 0, 85, 73
1, 117841, Note_on_c, 0, 80, 0
1, 117960, Tempo, 1351656
1, 118080, Tempo, 1351656
1, 118080, Note_on_c, 0, 85, 0
1, 118080, Note_on_c, 0, 92, 0
1, 118080, Note_on_c, 0, 65, 59
1, 118080, Note_on_c, 0, 68, 59
1, 118080, Note_on_c, 0, 73, 70
1, 118080, Note_on_c, 0, 77, 70
1, 118080, Note_on_c, 0, 80, 88
1, 118080, Note_on_c, 0, 92, 86
1, 118080, Note_on_c, 0, 85, 73
1, 119040, Note_on_c, 0, 85, 0
1, 119040, Note_on_c, 0, 80, 0
1, 119040, Note_on_c, 0, 68, 0
1, 119040, Note_on_c, 0, 73, 0
1, 119040, Note_on_c, 0, 65, 0
1, 119040, Note_on_c, 0, 92, 0
1, 119040, Note_on_c, 0, 77, 0
1, 120000, Control_c, 0, 64, 0
1, 120000, End_track
0, 0, End_of_file
