0, 0, Header, 0, 1, 480
1, 0, Start_track
1, 0, Title_t, "Rachmaninoff: Etudes-Tableux Opus 33, Nr. 8"
1, 0, Title_t, "Grave"
1, 0, Copyright_t, "Copyright © 2013 by Bernd Krueger"
1, 0, Text_t, "Bernd Krueger"
1, 0, Text_t, "Erstellt: 25.3.2013\012"
1, 0, Text_t, "Dauer: 2:25\012"
1, 0, Time_signature, 4, 2, 24, 8
1, 0, Key_signature, 4, "major"
1, 0, Tempo, 943693
1, 0, Program_c, 0, 0
1, 0, Note_on_c, 0, 61, 95
1, 0, Program_c, 0, 0
1, 0, Note_on_c, 0, 49, 90
1, 0, Note_on_c, 0, 37, 77
1, 0, Program_c, 0, 0
1, 92, Control_c, 0, 64, 127
1, 473, Note_on_c, 0, 52, 69
1, 477, Note_on_c, 0, 64, 82
1, 480, Note_on_c, 0, 73, 98
1, 480, Note_on_c, 0, 68, 82
1, 480, Note_on_c, 0, 56, 69
1, 900, Note_on_c, 0, 37, 0
1, 900, Note_on_c, 0, 61, 0
1, 900, Note_on_c, 0, 49, 0
1, 900, Note_on_c, 0, 51, 92
1, 900, Note_on_c, 0, 39, 79
1, 900, Note_on_c, 0, 27, 66
1, 953, Note_on_c, 0, 52, 0
1, 957, Note_on_c, 0, 64, 0
1, 960, Tempo, 1042028
1, 960, Note_on_c, 0, 51, 0
1, 960, Note_on_c, 0, 68, 0
1, 960, Note_on_c, 0, 73, 0
1, 960, Note_on_c, 0, 27, 0
1, 960, Note_on_c, 0, 39, 0
1, 960, Note_on_c, 0, 56, 0
1, 960, Note_on_c, 0, 55, 98
1, 960, Note_on_c, 0, 43, 88
1, 960, Note_on_c, 0, 31, 74
1, 978, Control_c, 0, 64, 0
1, 1094, Control_c, 0, 64, 127
1, 1200, Note_on_c, 0, 73, 75
1, 1200, Note_on_c, 0, 71, 75
1, 1200, Note_on_c, 0, 76, 90
1, 1200, Note_on_c, 0, 64, 75
1, 1200, Note_on_c, 0, 61, 84
1, 1200, Note_on_c, 0, 59, 70
1, 1200, Note_on_c, 0, 52, 70
1, 1200, Note_on_c, 0, 49, 70
1, 1440, Note_on_c, 0, 49, 0
1, 1440, Note_on_c, 0, 61, 0
1, 1440, Note_on_c, 0, 31, 0
1, 1440, Note_on_c, 0, 73, 0
1, 1440, Note_on_c, 0, 55, 0
1, 1440, Note_on_c, 0, 71, 0
1, 1440, Note_on_c, 0, 43, 0
1, 1440, Note_on_c, 0, 59, 0
1, 1440, Note_on_c, 0, 64, 0
1, 1440, Note_on_c, 0, 76, 0
1, 1440, Note_on_c, 0, 52, 0
1, 1454, Control_c, 0, 64, 0
1, 1920, Tempo, 943693
1, 1920, Note_on_c, 0, 66, 95
1, 1920, Note_on_c, 0, 54, 90
1, 1920, Note_on_c, 0, 42, 77
1, 2012, Control_c, 0, 64, 127
1, 2400, Note_on_c, 0, 78, 98
1, 2400, Note_on_c, 0, 73, 82
1, 2400, Note_on_c, 0, 69, 82
1, 2400, Note_on_c, 0, 57, 69
1, 2400, Note_on_c, 0, 61, 69
1, 2820, Note_on_c, 0, 42, 0
1, 2820, Note_on_c, 0, 66, 0
1, 2820, Note_on_c, 0, 54, 0
1, 2820, Note_on_c, 0, 56, 92
1, 2820, Note_on_c, 0, 44, 79
1, 2820, Note_on_c, 0, 32, 66
1, 2880, Tempo, 1042028
1, 2880, Note_on_c, 0, 32, 0
1, 2880, Note_on_c, 0, 61, 0
1, 2880, Note_on_c, 0, 69, 0
1, 2880, Note_on_c, 0, 57, 0
1, 2880, Note_on_c, 0, 73, 0
1, 2880, Note_on_c, 0, 78, 0
1, 2880, Note_on_c, 0, 56, 0
1, 2880, Note_on_c, 0, 44, 0
1, 2880, Note_on_c, 0, 60, 98
1, 2880, Note_on_c, 0, 48, 88
1, 2880, Note_on_c, 0, 36, 74
1, 2898, Control_c, 0, 64, 0
1, 3014, Control_c, 0, 64, 127
1, 3120, Note_on_c, 0, 78, 75
1, 3120, Note_on_c, 0, 76, 75
1, 3120, Note_on_c, 0, 81, 90
1, 3120, Note_on_c, 0, 69, 75
1, 3120, Note_on_c, 0, 66, 84
1, 3120, Note_on_c, 0, 64, 70
1, 3120, Note_on_c, 0, 57, 70
1, 3120, Note_on_c, 0, 54, 70
1, 3360, Note_on_c, 0, 54, 0
1, 3360, Note_on_c, 0, 66, 0
1, 3360, Note_on_c, 0, 36, 0
1, 3360, Note_on_c, 0, 78, 0
1, 3360, Note_on_c, 0, 60, 0
1, 3360, Note_on_c, 0, 76, 0
1, 3360, Note_on_c, 0, 48, 0
1, 3360, Note_on_c, 0, 64, 0
1, 3360, Note_on_c, 0, 69, 0
1, 3360, Note_on_c, 0, 81, 0
1, 3360, Note_on_c, 0, 57, 0
1, 3374, Control_c, 0, 64, 0
1, 3840, Tempo, 1111317
1, 3840, Note_on_c, 0, 76, 95
1, 3840, Note_on_c, 0, 52, 95
1, 3840, Note_on_c, 0, 64, 95
1, 3956, Control_c, 0, 64, 127
1, 4320, Note_on_c, 0, 80, 76
1, 4320, Note_on_c, 0, 82, 91
1, 4320, Note_on_c, 0, 73, 76
1, 4320, Note_on_c, 0, 70, 76
1, 4320, Note_on_c, 0, 58, 67
1, 4320, Note_on_c, 0, 56, 67
1, 4320, Note_on_c, 0, 61, 67
1, 4320, Note_on_c, 0, 68, 78
1, 4800, Note_on_c, 0, 68, 0
1, 4800, Note_on_c, 0, 58, 0
1, 4800, Note_on_c, 0, 64, 0
1, 4800, Note_on_c, 0, 80, 0
1, 4800, Note_on_c, 0, 76, 0
1, 4800, Note_on_c, 0, 82, 0
1, 4800, Note_on_c, 0, 52, 0
1, 4800, Note_on_c, 0, 56, 0
1, 4800, Note_on_c, 0, 70, 0
1, 4800, Note_on_c, 0, 73, 0
1, 4800, Note_on_c, 0, 61, 0
1, 4800, Note_on_c, 0, 63, 95
1, 4800, Note_on_c, 0, 75, 95
1, 4800, Note_on_c, 0, 39, 95
1, 4800, Note_on_c, 0, 51, 95
1, 4819, Control_c, 0, 64, 0
1, 5049, Control_c, 0, 64, 127
1, 5280, Tempo, 1212366
1, 5280, Note_on_c, 0, 80, 76
1, 5280, Note_on_c, 0, 78, 76
1, 5280, Note_on_c, 0, 84, 90
1, 5280, Note_on_c, 0, 72, 76
1, 5280, Note_on_c, 0, 60, 69
1, 5280, Note_on_c, 0, 56, 69
1, 5280, Note_on_c, 0, 54, 69
1, 5280, Note_on_c, 0, 66, 82
1, 5760, Note_on_c, 0, 66, 0
1, 5760, Note_on_c, 0, 75, 0
1, 5760, Note_on_c, 0, 72, 0
1, 5760, Note_on_c, 0, 39, 0
1, 5760, Note_on_c, 0, 51, 0
1, 5760, Note_on_c, 0, 63, 0
1, 5760, Note_on_c, 0, 80, 0
1, 5760, Note_on_c, 0, 78, 0
1, 5760, Note_on_c, 0, 60, 0
1, 5760, Note_on_c, 0, 84, 0
1, 5760, Note_on_c, 0, 54, 0
1, 5760, Note_on_c, 0, 56, 0
1, 5760, Note_on_c, 0, 61, 95
1, 5760, Note_on_c, 0, 73, 95
1, 5760, Note_on_c, 0, 37, 95
1, 5760, Note_on_c, 0, 49, 95
1, 5777, Control_c, 0, 64, 0
1, 5901, Control_c, 0, 64, 127
1, 6000, Note_on_c, 0, 73, 0
1, 6000, Note_on_c, 0, 76, 80
1, 6000, Note_on_c, 0, 80, 80
1, 6000, Note_on_c, 0, 85, 96
1, 6000, Note_on_c, 0, 73, 80
1, 6000, Note_on_c, 0, 56, 72
1, 6000, Note_on_c, 0, 52, 72
1, 6000, Note_on_c, 0, 61, 72
1, 6000, Note_on_c, 0, 64, 86
1, 6720, Tempo, 969462
1, 6720, Note_on_c, 0, 64, 0
1, 6720, Note_on_c, 0, 56, 0
1, 6720, Note_on_c, 0, 61, 0
1, 6720, Note_on_c, 0, 76, 0
1, 6720, Note_on_c, 0, 49, 0
1, 6720, Note_on_c, 0, 80, 0
1, 6720, Note_on_c, 0, 37, 0
1, 6720, Note_on_c, 0, 52, 0
1, 6720, Note_on_c, 0, 73, 0
1, 6720, Note_on_c, 0, 85, 0
1, 6720, Note_on_c, 0, 61, 0
1, 7080, Note_on_c, 0, 37, 77
1, 7080, Note_on_c, 0, 25, 77
1, 7120, Tempo, 1029336
1, 7150, Tempo, 1011975
1, 7200, Note_on_c, 0, 25, 0
1, 7200, Note_on_c, 0, 37, 0
1, 7200, Note_on_c, 0, 56, 87
1, 7200, Note_on_c, 0, 44, 87
1, 7280, Note_on_c, 0, 44, 0
1, 7280, Note_on_c, 0, 56, 0
1, 7280, Note_on_c, 0, 49, 63
1, 7301, Tempo, 1003512
1, 7360, Note_on_c, 0, 49, 0
1, 7360, Note_on_c, 0, 44, 69
1, 7428, Tempo, 995190
1, 7440, Note_on_c, 0, 44, 0
1, 7440, Note_on_c, 0, 37, 69
1, 7520, Note_on_c, 0, 37, 0
1, 7520, Note_on_c, 0, 25, 62
1, 7554, Tempo, 987004
1, 7600, Note_on_c, 0, 25, 0
1, 7600, Note_on_c, 0, 44, 69
1, 7680, Tempo, 978953
1, 7680, Note_on_c, 0, 44, 0
1, 7680, Note_on_c, 0, 64, 81
1, 7680, Note_on_c, 0, 52, 69
1, 7680, Note_on_c, 0, 56, 80
1, 7680, Control_c, 0, 64, 0
1, 7747, Control_c, 0, 64, 127
1, 7760, Note_on_c, 0, 56, 0
1, 7760, Note_on_c, 0, 49, 63
1, 7840, Note_on_c, 0, 49, 0
1, 7840, Note_on_c, 0, 44, 68
1, 7920, Note_on_c, 0, 44, 0
1, 7920, Note_on_c, 0, 37, 69
1, 8000, Note_on_c, 0, 37, 0
1, 8000, Note_on_c, 0, 25, 62
1, 8080, Note_on_c, 0, 25, 0
1, 8080, Note_on_c, 0, 44, 72
1, 8084, Tempo, 971031
1, 8135, Tempo, 978953
1, 8160, Note_on_c, 0, 44, 0
1, 8160, Note_on_c, 0, 52, 0
1, 8160, Note_on_c, 0, 64, 0
1, 8160, Note_on_c, 0, 64, 86
1, 8160, Note_on_c, 0, 52, 73
1, 8160, Note_on_c, 0, 56, 85
1, 8176, Control_c, 0, 64, 0
1, 8186, Tempo, 971031
1, 8236, Tempo, 963236
1, 8240, Note_on_c, 0, 56, 0
1, 8240, Note_on_c, 0, 49, 67
1, 8266, Control_c, 0, 64, 127
1, 8287, Tempo, 955566
1, 8312, Tempo, 948017
1, 8320, Note_on_c, 0, 49, 0
1, 8320, Note_on_c, 0, 44, 74
1, 8362, Tempo, 940586
1, 8400, Note_on_c, 0, 44, 0
1, 8400, Note_on_c, 0, 37, 75
1, 8413, Tempo, 933271
1, 8438, Tempo, 926069
1, 8480, Note_on_c, 0, 37, 0
1, 8480, Note_on_c, 0, 25, 66
1, 8489, Tempo, 918977
1, 8539, Tempo, 911993
1, 8560, Note_on_c, 0, 25, 0
1, 8560, Note_on_c, 0, 44, 77
1, 8564, Tempo, 898338
1, 8640, Note_on_c, 0, 44, 0
1, 8640, Note_on_c, 0, 52, 0
1, 8640, Note_on_c, 0, 64, 0
1, 8640, Note_on_c, 0, 64, 83
1, 8640, Note_on_c, 0, 52, 71
1, 8640, Note_on_c, 0, 56, 83
1, 8648, Control_c, 0, 64, 0
1, 8697, Control_c, 0, 64, 127
1, 8720, Note_on_c, 0, 56, 0
1, 8720, Note_on_c, 0, 49, 64
1, 8800, Note_on_c, 0, 49, 0
1, 8800, Note_on_c, 0, 44, 67
1, 8880, Tempo, 971031
1, 8880, Note_on_c, 0, 44, 0
1, 8880, Note_on_c, 0, 37, 68
1, 8960, Note_on_c, 0, 37, 0
1, 8960, Note_on_c, 0, 25, 58
1, 9040, Note_on_c, 0, 25, 0
1, 9040, Note_on_c, 0, 44, 65
1, 9120, Tempo, 987004
1, 9120, Note_on_c, 0, 44, 0
1, 9120, Note_on_c, 0, 52, 0
1, 9120, Note_on_c, 0, 64, 0
1, 9120, Note_on_c, 0, 64, 77
1, 9120, Note_on_c, 0, 52, 64
1, 9120, Note_on_c, 0, 56, 76
1, 9136, Control_c, 0, 64, 0
1, 9191, Control_c, 0, 64, 127
1, 9200, Note_on_c, 0, 56, 0
1, 9200, Note_on_c, 0, 49, 58
1, 9280, Note_on_c, 0, 49, 0
1, 9280, Note_on_c, 0, 44, 63
1, 9360, Note_on_c, 0, 44, 0
1, 9360, Note_on_c, 0, 37, 61
1, 9440, Tempo, 1125915
1, 9440, Note_on_c, 0, 37, 0
1, 9440, Note_on_c, 0, 25, 54
1, 9520, Note_on_c, 0, 25, 0
1, 9520, Note_on_c, 0, 44, 59
1, 9600, Tempo, 1020582
1, 9600, Note_on_c, 0, 44, 0
1, 9600, Note_on_c, 0, 52, 0
1, 9600, Note_on_c, 0, 64, 0
1, 9600, Note_on_c, 0, 61, 68
1, 9600, Note_on_c, 0, 56, 58
1, 9600, Note_on_c, 0, 49, 68
1, 9606, Control_c, 0, 64, 0
1, 9653, Control_c, 0, 64, 127
1, 9680, Note_on_c, 0, 44, 39
1, 9760, Note_on_c, 0, 44, 0
1, 9760, Note_on_c, 0, 65, 44
1, 9760, Note_on_c, 0, 69, 44
1, 9760, Note_on_c, 0, 77, 52
1, 9760, Note_on_c, 0, 37, 43
1, 9763, Control_c, 0, 64, 0
1, 9780, Control_c, 0, 64, 127
1, 9840, Note_on_c, 0, 37, 0
1, 9840, Note_on_c, 0, 69, 0
1, 9840, Note_on_c, 0, 65, 0
1, 9840, Note_on_c, 0, 77, 0
1, 9840, Note_on_c, 0, 64, 44
1, 9840, Note_on_c, 0, 73, 44
1, 9840, Note_on_c, 0, 76, 53
1, 9840, Note_on_c, 0, 25, 44
1, 9848, Control_c, 0, 64, 0
1, 9877, Control_c, 0, 64, 127
1, 9920, Note_on_c, 0, 25, 0
1, 9920, Note_on_c, 0, 37, 39
1, 10000, Note_on_c, 0, 37, 0
1, 10000, Note_on_c, 0, 44, 45
1, 10080, Tempo, 978953
1, 10080, Note_on_c, 0, 44, 0
1, 10080, Note_on_c, 0, 49, 0
1, 10080, Note_on_c, 0, 56, 50
1, 10106, Tempo, 971031
1, 10156, Tempo, 1029336
1, 10160, Note_on_c, 0, 56, 0
1, 10160, Note_on_c, 0, 49, 44
1, 10240, Note_on_c, 0, 49, 0
1, 10240, Note_on_c, 0, 73, 0
1, 10240, Note_on_c, 0, 64, 0
1, 10240, Note_on_c, 0, 76, 0
1, 10240, Note_on_c, 0, 65, 49
1, 10240, Note_on_c, 0, 69, 49
1, 10240, Note_on_c, 0, 77, 58
1, 10240, Note_on_c, 0, 44, 48
1, 10255, Control_c, 0, 64, 0
1, 10257, Tempo, 1020582
1, 10283, Control_c, 0, 64, 127
1, 10320, Note_on_c, 0, 44, 0
1, 10320, Note_on_c, 0, 69, 0
1, 10320, Note_on_c, 0, 65, 0
1, 10320, Note_on_c, 0, 77, 0
1, 10320, Note_on_c, 0, 64, 51
1, 10320, Note_on_c, 0, 73, 51
1, 10320, Note_on_c, 0, 76, 61
1, 10320, Note_on_c, 0, 37, 49
1, 10330, Control_c, 0, 64, 0
1, 10333, Tempo, 1011975
1, 10355, Control_c, 0, 64, 127
1, 10400, Note_on_c, 0, 37, 0
1, 10400, Note_on_c, 0, 25, 43
1, 10434, Tempo, 1003512
1, 10480, Note_on_c, 0, 25, 0
1, 10480, Note_on_c, 0, 44, 50
1, 10510, Tempo, 995190
1, 10560, Note_on_c, 0, 44, 0
1, 10560, Note_on_c, 0, 61, 0
1, 10560, Note_on_c, 0, 56, 0
1, 10560, Note_on_c, 0, 56, 55
1, 10611, Tempo, 987004
1, 10640, Note_on_c, 0, 56, 0
1, 10640, Note_on_c, 0, 49, 47
1, 10687, Tempo, 978953
1, 10720, Note_on_c, 0, 49, 0
1, 10720, Note_on_c, 0, 73, 0
1, 10720, Note_on_c, 0, 76, 0
1, 10720, Note_on_c, 0, 64, 0
1, 10720, Note_on_c, 0, 65, 55
1, 10720, Note_on_c, 0, 69, 55
1, 10720, Note_on_c, 0, 77, 66
1, 10720, Note_on_c, 0, 44, 52
1, 10737, Control_c, 0, 64, 0
1, 10757, Control_c, 0, 64, 127
1, 10762, Tempo, 971031
1, 10800, Note_on_c, 0, 44, 0
1, 10800, Note_on_c, 0, 65, 0
1, 10800, Note_on_c, 0, 69, 0
1, 10800, Note_on_c, 0, 77, 0
1, 10800, Note_on_c, 0, 64, 57
1, 10800, Note_on_c, 0, 73, 57
1, 10800, Note_on_c, 0, 76, 68
1, 10800, Note_on_c, 0, 37, 52
1, 10815, Control_c, 0, 64, 0
1, 10849, Control_c, 0, 64, 127
1, 10863, Tempo, 963236
1, 10880, Note_on_c, 0, 37, 0
1, 10880, Note_on_c, 0, 25, 47
1, 10939, Tempo, 955566
1, 10960, Note_on_c, 0, 25, 0
1, 10960, Note_on_c, 0, 44, 55
1, 11040, Tempo, 948017
1, 11040, Note_on_c, 0, 44, 0
1, 11040, Note_on_c, 0, 56, 58
1, 11116, Tempo, 940586
1, 11120, Note_on_c, 0, 56, 0
1, 11120, Note_on_c, 0, 49, 51
1, 11192, Tempo, 933271
1, 11200, Note_on_c, 0, 49, 0
1, 11200, Note_on_c, 0, 64, 0
1, 11200, Note_on_c, 0, 73, 0
1, 11200, Note_on_c, 0, 76, 0
1, 11200, Note_on_c, 0, 65, 61
1, 11200, Note_on_c, 0, 69, 61
1, 11200, Note_on_c, 0, 77, 73
1, 11200, Note_on_c, 0, 44, 55
1, 11212, Control_c, 0, 64, 0
1, 11240, Control_c, 0, 64, 127
1, 11280, Note_on_c, 0, 44, 0
1, 11280, Note_on_c, 0, 65, 0
1, 11280, Note_on_c, 0, 69, 0
1, 11280, Note_on_c, 0, 77, 0
1, 11280, Note_on_c, 0, 64, 63
1, 11280, Note_on_c, 0, 73, 63
1, 11280, Note_on_c, 0, 76, 75
1, 11280, Note_on_c, 0, 37, 57
1, 11295, Control_c, 0, 64, 0
1, 11318, Tempo, 926069
1, 11326, Control_c, 0, 64, 127
1, 11360, Note_on_c, 0, 37, 0
1, 11360, Note_on_c, 0, 25, 50
1, 11440, Note_on_c, 0, 25, 0
1, 11440, Note_on_c, 0, 44, 58
1, 11470, Tempo, 918977
1, 11509, Tempo, 891663
1, 11520, Note_on_c, 0, 44, 0
1, 11520, Note_on_c, 0, 56, 64
1, 11560, Tempo, 885086
1, 11600, Note_on_c, 0, 56, 0
1, 11600, Note_on_c, 0, 49, 54
1, 11610, Tempo, 878606
1, 11640, Note_on_c, 0, 76, 0
1, 11640, Note_on_c, 0, 64, 0
1, 11640, Note_on_c, 0, 73, 0
1, 11640, Note_on_c, 0, 65, 67
1, 11640, Note_on_c, 0, 69, 67
1, 11640, Note_on_c, 0, 77, 81
1, 11654, Control_c, 0, 64, 0
1, 11661, Tempo, 872220
1, 11680, Note_on_c, 0, 49, 0
1, 11680, Note_on_c, 0, 44, 59
1, 11690, Control_c, 0, 64, 127
1, 11711, Tempo, 865926
1, 11736, Tempo, 859722
1, 11760, Note_on_c, 0, 44, 0
1, 11760, Note_on_c, 0, 77, 0
1, 11760, Note_on_c, 0, 69, 0
1, 11760, Note_on_c, 0, 65, 0
1, 11760, Note_on_c, 0, 64, 68
1, 11760, Note_on_c, 0, 73, 68
1, 11760, Note_on_c, 0, 76, 81
1, 11760, Note_on_c, 0, 37, 60
1, 11767, Control_c, 0, 64, 0
1, 11787, Tempo, 853606
1, 11788, Control_c, 0, 64, 127
1, 11837, Tempo, 847577
1, 11840, Note_on_c, 0, 37, 0
1, 11840, Note_on_c, 0, 25, 54
1, 11880, Note_on_c, 0, 64, 0
1, 11880, Note_on_c, 0, 76, 0
1, 11880, Note_on_c, 0, 73, 0
1, 11880, Note_on_c, 0, 65, 72
1, 11880, Note_on_c, 0, 69, 72
1, 11880, Note_on_c, 0, 77, 84
1, 11888, Tempo, 841633
1, 11892, Control_c, 0, 64, 0
1, 11913, Tempo, 835771
1, 11920, Note_on_c, 0, 25, 0
1, 11920, Note_on_c, 0, 44, 62
1, 11926, Control_c, 0, 64, 127
1, 11964, Tempo, 829990
1, 12000, Note_on_c, 0, 44, 0
1, 12000, Note_on_c, 0, 77, 0
1, 12000, Note_on_c, 0, 69, 0
1, 12000, Note_on_c, 0, 65, 0
1, 12000, Note_on_c, 0, 64, 72
1, 12000, Note_on_c, 0, 73, 72
1, 12000, Note_on_c, 0, 76, 86
1, 12000, Note_on_c, 0, 56, 65
1, 12014, Tempo, 824289
1, 12015, Control_c, 0, 64, 0
1, 12043, Control_c, 0, 64, 127
1, 12065, Tempo, 818666
1, 12080, Note_on_c, 0, 56, 0
1, 12080, Note_on_c, 0, 49, 58
1, 12115, Tempo, 813118
1, 12120, Note_on_c, 0, 64, 0
1, 12120, Note_on_c, 0, 76, 0
1, 12120, Note_on_c, 0, 73, 0
1, 12120, Note_on_c, 0, 65, 74
1, 12120, Note_on_c, 0, 69, 74
1, 12120, Note_on_c, 0, 77, 87
1, 12132, Control_c, 0, 64, 0
1, 12141, Tempo, 807646
1, 12160, Note_on_c, 0, 49, 0
1, 12160, Note_on_c, 0, 44, 64
1, 12166, Control_c, 0, 64, 127
1, 12191, Tempo, 802246
1, 12240, Note_on_c, 0, 44, 0
1, 12240, Note_on_c, 0, 77, 0
1, 12240, Note_on_c, 0, 69, 0
1, 12240, Note_on_c, 0, 65, 0
1, 12240, Note_on_c, 0, 64, 75
1, 12240, Note_on_c, 0, 73, 75
1, 12240, Note_on_c, 0, 76, 90
1, 12240, Note_on_c, 0, 37, 64
1, 12242, Tempo, 796919
1, 12249, Control_c, 0, 64, 0
1, 12279, Control_c, 0, 64, 127
1, 12292, Tempo, 791661
1, 12317, Tempo, 786473
1, 12320, Note_on_c, 0, 37, 0
1, 12320, Note_on_c, 0, 25, 58
1, 12360, Note_on_c, 0, 64, 0
1, 12360, Note_on_c, 0, 76, 0
1, 12360, Note_on_c, 0, 73, 0
1, 12360, Note_on_c, 0, 65, 76
1, 12360, Note_on_c, 0, 69, 76
1, 12360, Note_on_c, 0, 77, 91
1, 12367, Control_c, 0, 64, 0
1, 12399, Control_c, 0, 64, 127
1, 12400, Note_on_c, 0, 25, 0
1, 12400, Note_on_c, 0, 44, 65
1, 12444, Tempo, 796919
1, 12480, Note_on_c, 0, 44, 0
1, 12480, Note_on_c, 0, 77, 0
1, 12480, Note_on_c, 0, 69, 0
1, 12480, Note_on_c, 0, 65, 0
1, 12480, Note_on_c, 0, 64, 78
1, 12480, Note_on_c, 0, 73, 78
1, 12480, Note_on_c, 0, 76, 92
1, 12480, Note_on_c, 0, 56, 70
1, 12494, Control_c, 0, 64, 0
1, 12516, Control_c, 0, 64, 127
1, 12520, Tempo, 802246
1, 12560, Note_on_c, 0, 56, 0
1, 12560, Note_on_c, 0, 49, 61
1, 12600, Note_on_c, 0, 64, 0
1, 12600, Note_on_c, 0, 76, 0
1, 12600, Note_on_c, 0, 73, 0
1, 12600, Note_on_c, 0, 65, 81
1, 12600, Note_on_c, 0, 69, 81
1, 12600, Note_on_c, 0, 77, 95
1, 12611, Control_c, 0, 64, 0
1, 12639, Control_c, 0, 64, 127
1, 12640, Note_on_c, 0, 49, 0
1, 12640, Note_on_c, 0, 44, 67
1, 12646, Tempo, 807646
1, 12720, Note_on_c, 0, 44, 0
1, 12720, Note_on_c, 0, 77, 0
1, 12720, Note_on_c, 0, 69, 0
1, 12720, Note_on_c, 0, 65, 0
1, 12720, Note_on_c, 0, 64, 81
1, 12720, Note_on_c, 0, 73, 81
1, 12720, Note_on_c, 0, 76, 96
1, 12720, Note_on_c, 0, 37, 68
1, 12734, Control_c, 0, 64, 0
1, 12763, Control_c, 0, 64, 127
1, 12772, Tempo, 813118
1, 12783, Tempo, 865926
1, 12800, Note_on_c, 0, 37, 0
1, 12800, Note_on_c, 0, 25, 60
1, 12840, Tempo, 1095090
1, 12840, Note_on_c, 0, 64, 0
1, 12840, Note_on_c, 0, 76, 0
1, 12840, Note_on_c, 0, 73, 0
1, 12840, Note_on_c, 0, 65, 83
1, 12840, Note_on_c, 0, 69, 83
1, 12840, Note_on_c, 0, 77, 99
1, 12852, Control_c, 0, 64, 0
1, 12879, Control_c, 0, 64, 127
1, 12880, Note_on_c, 0, 25, 0
1, 12880, Note_on_c, 0, 44, 68
1, 12960, Note_on_c, 0, 44, 0
1, 12960, Note_on_c, 0, 77, 0
1, 12960, Note_on_c, 0, 69, 0
1, 12960, Note_on_c, 0, 65, 0
1, 12960, Note_on_c, 0, 64, 96
1, 12960, Note_on_c, 0, 73, 96
1, 12960, Note_on_c, 0, 76, 114
1, 12960, Note_on_c, 0, 56, 85
1, 12960, Note_on_c, 0, 52, 71
1, 12960, Note_on_c, 0, 49, 71
1, 12969, Control_c, 0, 64, 0
1, 13010, Control_c, 0, 64, 127
1, 13080, Tempo, 835771
1, 13147, Control_c, 0, 64, 0
1, 13200, Note_on_c, 0, 49, 0
1, 13200, Note_on_c, 0, 73, 0
1, 13200, Note_on_c, 0, 76, 0
1, 13200, Note_on_c, 0, 64, 0
1, 13200, Note_on_c, 0, 52, 0
1, 13200, Note_on_c, 0, 56, 0
1, 13440, Tempo, 483131
1, 15360, Tempo, 943693
1, 15360, Note_on_c, 0, 64, 95
1, 15360, Note_on_c, 0, 52, 90
1, 15360, Note_on_c, 0, 40, 77
1, 15452, Control_c, 0, 64, 127
1, 15780, Note_on_c, 0, 73, 80
1, 15780, Note_on_c, 0, 68, 80
1, 15780, Note_on_c, 0, 61, 68
1, 15780, Note_on_c, 0, 56, 63
1, 15780, Note_on_c, 0, 49, 53
1, 15840, Note_on_c, 0, 49, 0
1, 15840, Note_on_c, 0, 56, 0
1, 15840, Note_on_c, 0, 68, 0
1, 15840, Note_on_c, 0, 73, 0
1, 15840, Note_on_c, 0, 61, 0
1, 15840, Note_on_c, 0, 61, 82
1, 15840, Note_on_c, 0, 73, 98
1, 15840, Note_on_c, 0, 68, 82
1, 15840, Note_on_c, 0, 56, 82
1, 16200, Note_on_c, 0, 64, 0
1, 16200, Note_on_c, 0, 52, 0
1, 16200, Note_on_c, 0, 40, 0
1, 16200, Note_on_c, 0, 53, 80
1, 16200, Note_on_c, 0, 41, 68
1, 16240, Note_on_c, 0, 41, 0
1, 16240, Note_on_c, 0, 53, 0
1, 16240, Note_on_c, 0, 54, 85
1, 16240, Note_on_c, 0, 42, 72
1, 16280, Note_on_c, 0, 42, 0
1, 16280, Note_on_c, 0, 54, 0
1, 16280, Note_on_c, 0, 56, 86
1, 16280, Note_on_c, 0, 44, 76
1, 16320, Tempo, 1042028
1, 16320, Note_on_c, 0, 44, 0
1, 16320, Note_on_c, 0, 68, 0
1, 16320, Note_on_c, 0, 56, 0
1, 16320, Note_on_c, 0, 61, 0
1, 16320, Note_on_c, 0, 56, 0
1, 16320, Note_on_c, 0, 73, 0
1, 16320, Note_on_c, 0, 57, 98
1, 16320, Note_on_c, 0, 45, 88
1, 16320, Note_on_c, 0, 33, 74
1, 16338, Control_c, 0, 64, 0
1, 16454, Control_c, 0, 64, 127
1, 16560, Note_on_c, 0, 81, 75
1, 16560, Note_on_c, 0, 76, 75
1, 16560, Note_on_c, 0, 85, 90
1, 16560, Note_on_c, 0, 73, 75
1, 16560, Note_on_c, 0, 64, 84
1, 16560, Note_on_c, 0, 61, 70
1, 16560, Note_on_c, 0, 57, 70
1, 16560, Note_on_c, 0, 52, 70
1, 16800, Note_on_c, 0, 52, 0
1, 16800, Note_on_c, 0, 64, 0
1, 16800, Note_on_c, 0, 33, 0
1, 16800, Note_on_c, 0, 81, 0
1, 16800, Note_on_c, 0, 57, 0
1, 16800, Note_on_c, 0, 76, 0
1, 16800, Note_on_c, 0, 45, 0
1, 16800, Note_on_c, 0, 61, 0
1, 16800, Note_on_c, 0, 73, 0
1, 16800, Note_on_c, 0, 85, 0
1, 16800, Note_on_c, 0, 57, 0
1, 16814, Control_c, 0, 64, 0
1, 17280, Tempo, 943693
1, 17280, Note_on_c, 0, 61, 84
1, 17280, Note_on_c, 0, 73, 95
1, 17280, Note_on_c, 0, 49, 90
1, 17372, Control_c, 0, 64, 127
1, 17700, Note_on_c, 0, 76, 80
1, 17700, Note_on_c, 0, 69, 80
1, 17700, Note_on_c, 0, 64, 68
1, 17700, Note_on_c, 0, 57, 63
1, 17700, Note_on_c, 0, 52, 53
1, 17760, Note_on_c, 0, 52, 0
1, 17760, Note_on_c, 0, 57, 0
1, 17760, Note_on_c, 0, 69, 0
1, 17760, Note_on_c, 0, 76, 0
1, 17760, Note_on_c, 0, 64, 0
1, 17760, Note_on_c, 0, 64, 82
1, 17760, Note_on_c, 0, 76, 98
1, 17760, Note_on_c, 0, 69, 82
1, 17760, Note_on_c, 0, 52, 69
1, 17760, Note_on_c, 0, 57, 82
1, 17760, Note_on_c, 0, 49, 69
1, 18120, Note_on_c, 0, 61, 0
1, 18120, Note_on_c, 0, 73, 0
1, 18120, Note_on_c, 0, 49, 0
1, 18120, Note_on_c, 0, 63, 80
1, 18120, Note_on_c, 0, 51, 68
1, 18160, Note_on_c, 0, 51, 0
1, 18160, Note_on_c, 0, 63, 0
1, 18160, Note_on_c, 0, 64, 85
1, 18160, Note_on_c, 0, 52, 72
1, 18200, Note_on_c, 0, 52, 0
1, 18200, Note_on_c, 0, 64, 0
1, 18200, Note_on_c, 0, 66, 86
1, 18200, Note_on_c, 0, 54, 76
1, 18240, Tempo, 1042028
1, 18240, Note_on_c, 0, 54, 0
1, 18240, Note_on_c, 0, 49, 0
1, 18240, Note_on_c, 0, 64, 0
1, 18240, Note_on_c, 0, 69, 0
1, 18240, Note_on_c, 0, 76, 0
1, 18240, Note_on_c, 0, 57, 0
1, 18240, Note_on_c, 0, 52, 0
1, 18240, Note_on_c, 0, 66, 0
1, 18240, Note_on_c, 0, 67, 98
1, 18240, Note_on_c, 0, 55, 88
1, 18240, Note_on_c, 0, 43, 74
1, 18258, Control_c, 0, 64, 0
1, 18374, Control_c, 0, 64, 127
1, 18480, Note_on_c, 0, 85, 75
1, 18480, Note_on_c, 0, 83, 75
1, 18480, Note_on_c, 0, 88, 90
1, 18480, Note_on_c, 0, 76, 75
1, 18480, Note_on_c, 0, 71, 84
1, 18480, Note_on_c, 0, 64, 70
1, 18480, Note_on_c, 0, 61, 70
1, 18720, Note_on_c, 0, 61, 0
1, 18720, Note_on_c, 0, 43, 0
1, 18720, Note_on_c, 0, 85, 0
1, 18720, Note_on_c, 0, 67, 0
1, 18720, Note_on_c, 0, 83, 0
1, 18720, Note_on_c, 0, 55, 0
1, 18720, Note_on_c, 0, 71, 0
1, 18720, Note_on_c, 0, 76, 0
1, 18720, Note_on_c, 0, 88, 0
1, 18720, Note_on_c, 0, 64, 0
1, 18742, Control_c, 0, 64, 0
1, 19080, Note_on_c, 0, 71, 77
1, 19080, Note_on_c, 0, 47, 72
1, 19080, Note_on_c, 0, 59, 72
1, 19120, Note_on_c, 0, 59, 0
1, 19120, Note_on_c, 0, 47, 0
1, 19120, Note_on_c, 0, 71, 0
1, 19120, Note_on_c, 0, 76, 79
1, 19120, Note_on_c, 0, 64, 78
1, 19160, Note_on_c, 0, 64, 0
1, 19160, Note_on_c, 0, 76, 0
1, 19160, Note_on_c, 0, 79, 80
1, 19160, Note_on_c, 0, 67, 80
1, 19200, Tempo, 1111317
1, 19200, Note_on_c, 0, 67, 0
1, 19200, Note_on_c, 0, 79, 0
1, 19200, Note_on_c, 0, 83, 95
1, 19200, Note_on_c, 0, 59, 95
1, 19200, Note_on_c, 0, 71, 95
1, 19316, Control_c, 0, 64, 127
1, 19680, Note_on_c, 0, 89, 91
1, 19680, Note_on_c, 0, 87, 76
1, 19680, Note_on_c, 0, 80, 76
1, 19680, Note_on_c, 0, 77, 76
1, 19680, Note_on_c, 0, 65, 67
1, 19680, Note_on_c, 0, 63, 67
1, 19680, Note_on_c, 0, 68, 67
1, 19680, Note_on_c, 0, 75, 78
1, 20160, Note_on_c, 0, 75, 0
1, 20160, Note_on_c, 0, 65, 0
1, 20160, Note_on_c, 0, 71, 0
1, 20160, Note_on_c, 0, 89, 0
1, 20160, Note_on_c, 0, 83, 0
1, 20160, Note_on_c, 0, 87, 0
1, 20160, Note_on_c, 0, 59, 0
1, 20160, Note_on_c, 0, 63, 0
1, 20160, Note_on_c, 0, 77, 0
1, 20160, Note_on_c, 0, 80, 0
1, 20160, Note_on_c, 0, 68, 0
1, 20160, Note_on_c, 0, 82, 95
1, 20160, Note_on_c, 0, 58, 95
1, 20160, Note_on_c, 0, 70, 95
1, 20179, Control_c, 0, 64, 0
1, 20409, Control_c, 0, 64, 127
1, 20640, Tempo, 1212366
1, 20640, Note_on_c, 0, 87, 76
1, 20640, Note_on_c, 0, 85, 76
1, 20640, Note_on_c, 0, 91, 90
1, 20640, Note_on_c, 0, 79, 76
1, 20640, Note_on_c, 0, 61, 69
1, 20640, Note_on_c, 0, 67, 69
1, 20640, Note_on_c, 0, 63, 69
1, 20640, Note_on_c, 0, 73, 82
1, 21120, Note_on_c, 0, 73, 0
1, 21120, Note_on_c, 0, 61, 0
1, 21120, Note_on_c, 0, 70, 0
1, 21120, Note_on_c, 0, 87, 0
1, 21120, Note_on_c, 0, 82, 0
1, 21120, Note_on_c, 0, 85, 0
1, 21120, Note_on_c, 0, 58, 0
1, 21120, Note_on_c, 0, 67, 0
1, 21120, Note_on_c, 0, 79, 0
1, 21120, Note_on_c, 0, 91, 0
1, 21120, Note_on_c, 0, 63, 0
1, 21120, Note_on_c, 0, 68, 87
1, 21120, Note_on_c, 0, 75, 87
1, 21120, Note_on_c, 0, 80, 95
1, 21120, Note_on_c, 0, 56, 87
1, 21120, Note_on_c, 0, 63, 87
1, 21120, Note_on_c, 0, 71, 95
1, 21137, Control_c, 0, 64, 0
1, 21261, Control_c, 0, 64, 127
1, 21350, Note_on_c, 0, 80, 0
1, 21360, Note_on_c, 0, 80, 84
1, 21360, Note_on_c, 0, 87, 84
1, 21360, Note_on_c, 0, 92, 101
1, 21360, Note_on_c, 0, 68, 75
1, 21360, Note_on_c, 0, 75, 75
1, 21360, Note_on_c, 0, 83, 90
1, 22080, Note_on_c, 0, 71, 0
1, 22560, Note_on_c, 0, 68, 0
1, 22560, Note_on_c, 0, 56, 0
1, 22560, Note_on_c, 0, 63, 0
1, 22560, Note_on_c, 0, 68, 0
1, 22560, Note_on_c, 0, 80, 0
1, 22560, Note_on_c, 0, 75, 0
1, 22560, Note_on_c, 0, 75, 0
1, 22560, Note_on_c, 0, 92, 0
1, 22560, Note_on_c, 0, 87, 0
1, 22560, Note_on_c, 0, 83, 0
1, 22588, Control_c, 0, 64, 0
1, 22680, Tempo, 1015057
1, 22680, Note_on_c, 0, 88, 84
1, 22680, Note_on_c, 0, 76, 71
1, 22688, Tempo, 1025816
1, 22720, Tempo, 1017122
1, 22740, Note_on_c, 0, 76, 0
1, 22740, Note_on_c, 0, 88, 0
1, 22740, Note_on_c, 0, 87, 76
1, 22740, Note_on_c, 0, 75, 64
1, 22752, Tempo, 1008573
1, 22784, Tempo, 1000167
1, 22800, Note_on_c, 0, 75, 0
1, 22800, Note_on_c, 0, 87, 0
1, 22800, Note_on_c, 0, 85, 78
1, 22800, Note_on_c, 0, 73, 66
1, 22816, Tempo, 991899
1, 22848, Tempo, 983768
1, 22860, Note_on_c, 0, 73, 0
1, 22860, Note_on_c, 0, 85, 0
1, 22860, Note_on_c, 0, 83, 75
1, 22860, Note_on_c, 0, 71, 63
1, 22880, Tempo, 975768
1, 22896, Tempo, 967898
1, 22920, Note_on_c, 0, 71, 0
1, 22920, Note_on_c, 0, 83, 0
1, 22920, Note_on_c, 0, 82, 81
1, 22920, Note_on_c, 0, 70, 68
1, 22928, Tempo, 960154
1, 22960, Tempo, 952532
1, 22980, Note_on_c, 0, 70, 0
1, 22980, Note_on_c, 0, 82, 0
1, 22980, Note_on_c, 0, 80, 73
1, 22980, Note_on_c, 0, 68, 62
1, 22992, Tempo, 945031
1, 23024, Tempo, 937647
1, 23040, Note_on_c, 0, 68, 0
1, 23040, Note_on_c, 0, 80, 0
1, 23040, Note_on_c, 0, 79, 76
1, 23040, Note_on_c, 0, 67, 64
1, 23056, Tempo, 930377
1, 23072, Tempo, 923219
1, 23100, Tempo, 1182266
1, 23100, Note_on_c, 0, 67, 0
1, 23100, Note_on_c, 0, 79, 0
1, 23100, Note_on_c, 0, 80, 74
1, 23100, Note_on_c, 0, 68, 62
1, 23160, Tempo, 1015057
1, 23160, Note_on_c, 0, 68, 0
1, 23160, Note_on_c, 0, 80, 0
1, 23160, Note_on_c, 0, 88, 84
1, 23160, Note_on_c, 0, 76, 71
1, 23170, Tempo, 1116695
1, 23180, Tempo, 1104362
1, 23184, Tempo, 975768
1, 23200, Tempo, 967898
1, 23216, Tempo, 960154
1, 23220, Note_on_c, 0, 76, 0
1, 23220, Note_on_c, 0, 88, 0
1, 23220, Note_on_c, 0, 87, 76
1, 23220, Note_on_c, 0, 75, 64
1, 23232, Tempo, 952532
1, 23248, Tempo, 945031
1, 23264, Tempo, 937647
1, 23280, Tempo, 930377
1, 23280, Note_on_c, 0, 75, 0
1, 23280, Note_on_c, 0, 87, 0
1, 23280, Note_on_c, 0, 85, 77
1, 23280, Note_on_c, 0, 73, 65
1, 23296, Tempo, 923219
1, 23312, Tempo, 916170
1, 23328, Tempo, 909229
1, 23340, Note_on_c, 0, 73, 0
1, 23340, Note_on_c, 0, 85, 0
1, 23340, Note_on_c, 0, 83, 71
1, 23340, Note_on_c, 0, 71, 60
1, 23344, Tempo, 902391
1, 23360, Tempo, 895656
1, 23376, Tempo, 889021
1, 23392, Tempo, 882483
1, 23400, Note_on_c, 0, 71, 0
1, 23400, Note_on_c, 0, 83, 0
1, 23400, Note_on_c, 0, 82, 81
1, 23400, Note_on_c, 0, 70, 68
1, 23408, Tempo, 869691
1, 23450, Tempo, 866301
1, 23460, Note_on_c, 0, 70, 0
1, 23460, Note_on_c, 0, 82, 0
1, 23460, Note_on_c, 0, 80, 81
1, 23460, Note_on_c, 0, 68, 68
1, 23500, Control_c, 0, 64, 127
1, 23520, Note_on_c, 0, 68, 0
1, 23520, Note_on_c, 0, 80, 0
1, 23520, Note_on_c, 0, 78, 81
1, 23520, Note_on_c, 0, 66, 68
1, 23530, Tempo, 858861
1, 23580, Note_on_c, 0, 66, 0
1, 23580, Note_on_c, 0, 78, 0
1, 23580, Note_on_c, 0, 76, 79
1, 23580, Note_on_c, 0, 64, 67
1, 23600, Tempo, 851547
1, 23640, Note_on_c, 0, 64, 0
1, 23640, Note_on_c, 0, 76, 0
1, 23640, Note_on_c, 0, 75, 78
1, 23640, Note_on_c, 0, 63, 66
1, 23680, Tempo, 844476
1, 23700, Note_on_c, 0, 63, 0
1, 23700, Note_on_c, 0, 75, 0
1, 23700, Note_on_c, 0, 73, 77
1, 23700, Note_on_c, 0, 61, 65
1, 23750, Tempo, 837404
1, 23760, Note_on_c, 0, 61, 0
1, 23760, Note_on_c, 0, 73, 0
1, 23760, Note_on_c, 0, 71, 77
1, 23760, Note_on_c, 0, 59, 65
1, 23820, Tempo, 830450
1, 23820, Note_on_c, 0, 59, 0
1, 23820, Note_on_c, 0, 71, 0
1, 23820, Note_on_c, 0, 70, 76
1, 23820, Note_on_c, 0, 58, 64
1, 23880, Note_on_c, 0, 58, 0
1, 23880, Note_on_c, 0, 70, 0
1, 23880, Note_on_c, 0, 69, 73
1, 23880, Note_on_c, 0, 57, 62
1, 23900, Tempo, 823723
1, 23940, Note_on_c, 0, 57, 0
1, 23940, Note_on_c, 0, 69, 0
1, 23940, Note_on_c, 0, 68, 71
1, 23940, Note_on_c, 0, 56, 60
1, 23970, Tempo, 816993
1, 24000, Note_on_c, 0, 56, 0
1, 24000, Note_on_c, 0, 68, 0
1, 24000, Note_on_c, 0, 67, 69
1, 24000, Note_on_c, 0, 55, 58
1, 24040, Tempo, 810373
1, 24050, Tempo, 851547
1, 24060, Tempo, 1004857
1, 24060, Note_on_c, 0, 55, 0
1, 24060, Note_on_c, 0, 67, 0
1, 24060, Note_on_c, 0, 68, 71
1, 24060, Note_on_c, 0, 56, 60
1, 24120, Tempo, 1004857
1, 24120, Note_on_c, 0, 56, 0
1, 24120, Note_on_c, 0, 68, 0
1, 24120, Note_on_c, 0, 76, 83
1, 24120, Note_on_c, 0, 64, 70
1, 24132, Control_c, 0, 64, 0
1, 24140, Tempo, 797554
1, 24180, Note_on_c, 0, 64, 0
1, 24180, Note_on_c, 0, 76, 0
1, 24180, Note_on_c, 0, 75, 80
1, 24180, Note_on_c, 0, 63, 68
1, 24180, Control_c, 0, 64, 127
1, 24240, Tempo, 791244
1, 24240, Note_on_c, 0, 63, 0
1, 24240, Note_on_c, 0, 75, 0
1, 24240, Note_on_c, 0, 73, 78
1, 24240, Note_on_c, 0, 61, 66
1, 24300, Note_on_c, 0, 61, 0
1, 24300, Note_on_c, 0, 73, 0
1, 24300, Note_on_c, 0, 71, 78
1, 24300, Note_on_c, 0, 59, 66
1, 24330, Tempo, 785032
1, 24360, Note_on_c, 0, 59, 0
1, 24360, Note_on_c, 0, 71, 0
1, 24360, Note_on_c, 0, 70, 76
1, 24360, Note_on_c, 0, 58, 64
1, 24420, Note_on_c, 0, 58, 0
1, 24420, Note_on_c, 0, 70, 0
1, 24420, Note_on_c, 0, 68, 73
1, 24420, Note_on_c, 0, 56, 62
1, 24430, Tempo, 778917
1, 24480, Note_on_c, 0, 56, 0
1, 24480, Note_on_c, 0, 68, 0
1, 24480, Note_on_c, 0, 66, 73
1, 24480, Note_on_c, 0, 54, 62
1, 24520, Tempo, 772997
1, 24540, Note_on_c, 0, 54, 0
1, 24540, Note_on_c, 0, 66, 0
1, 24540, Note_on_c, 0, 64, 70
1, 24540, Note_on_c, 0, 52, 59
1, 24600, Note_on_c, 0, 52, 0
1, 24600, Note_on_c, 0, 64, 0
1, 24600, Note_on_c, 0, 63, 72
1, 24600, Note_on_c, 0, 51, 61
1, 24620, Tempo, 767067
1, 24660, Note_on_c, 0, 51, 0
1, 24660, Note_on_c, 0, 63, 0
1, 24660, Note_on_c, 0, 61, 72
1, 24660, Note_on_c, 0, 49, 61
1, 24710, Tempo, 761228
1, 24720, Note_on_c, 0, 49, 0
1, 24720, Note_on_c, 0, 61, 0
1, 24720, Note_on_c, 0, 59, 72
1, 24720, Note_on_c, 0, 47, 61
1, 24780, Note_on_c, 0, 47, 0
1, 24780, Note_on_c, 0, 59, 0
1, 24780, Note_on_c, 0, 58, 72
1, 24780, Note_on_c, 0, 46, 61
1, 24810, Tempo, 755572
1, 24840, Note_on_c, 0, 46, 0
1, 24840, Note_on_c, 0, 58, 0
1, 24840, Note_on_c, 0, 57, 71
1, 24840, Note_on_c, 0, 45, 60
1, 24900, Tempo, 749906
1, 24900, Note_on_c, 0, 45, 0
1, 24900, Note_on_c, 0, 57, 0
1, 24900, Note_on_c, 0, 56, 70
1, 24900, Note_on_c, 0, 44, 59
1, 24960, Note_on_c, 0, 44, 0
1, 24960, Note_on_c, 0, 56, 0
1, 24960, Note_on_c, 0, 55, 70
1, 24960, Note_on_c, 0, 43, 59
1, 24990, Tempo, 744325
1, 25010, Tempo, 772997
1, 25020, Tempo, 939114
1, 25020, Note_on_c, 0, 43, 0
1, 25020, Note_on_c, 0, 55, 0
1, 25020, Note_on_c, 0, 56, 70
1, 25020, Note_on_c, 0, 44, 59
1, 25080, Tempo, 1015057
1, 25080, Note_on_c, 0, 44, 0
1, 25080, Note_on_c, 0, 56, 0
1, 25080, Note_on_c, 0, 64, 72
1, 25080, Note_on_c, 0, 52, 61
1, 25086, Control_c, 0, 64, 0
1, 25090, Tempo, 837404
1, 25100, Tempo, 767067
1, 25112, Control_c, 0, 64, 127
1, 25130, Tempo, 761228
1, 25140, Note_on_c, 0, 52, 0
1, 25140, Note_on_c, 0, 64, 0
1, 25140, Note_on_c, 0, 63, 69
1, 25140, Note_on_c, 0, 51, 58
1, 25160, Tempo, 755572
1, 25180, Tempo, 749906
1, 25200, Note_on_c, 0, 51, 0
1, 25200, Note_on_c, 0, 63, 0
1, 25200, Note_on_c, 0, 61, 68
1, 25200, Note_on_c, 0, 49, 57
1, 25210, Tempo, 744325
1, 25240, Tempo, 738825
1, 25260, Tempo, 733496
1, 25260, Note_on_c, 0, 49, 0
1, 25260, Note_on_c, 0, 61, 0
1, 25260, Note_on_c, 0, 59, 64
1, 25260, Note_on_c, 0, 47, 54
1, 25290, Tempo, 728155
1, 25320, Tempo, 722892
1, 25320, Note_on_c, 0, 47, 0
1, 25320, Note_on_c, 0, 59, 0
1, 25320, Note_on_c, 0, 53, 62
1, 25320, Note_on_c, 0, 41, 52
1, 25340, Tempo, 717703
1, 25360, Tempo, 797554
1, 25380, Tempo, 889284
1, 25380, Note_on_c, 0, 41, 0
1, 25380, Note_on_c, 0, 53, 0
1, 25380, Note_on_c, 0, 54, 62
1, 25380, Note_on_c, 0, 42, 52
1, 25440, Note_on_c, 0, 42, 0
1, 25440, Note_on_c, 0, 54, 0
1, 25440, Note_on_c, 0, 62, 72
1, 25440, Note_on_c, 0, 50, 61
1, 25448, Control_c, 0, 64, 0
1, 25460, Tempo, 738825
1, 25486, Control_c, 0, 64, 127
1, 25500, Note_on_c, 0, 50, 0
1, 25500, Note_on_c, 0, 62, 0
1, 25500, Note_on_c, 0, 61, 68
1, 25500, Note_on_c, 0, 49, 57
1, 25560, Note_on_c, 0, 49, 0
1, 25560, Note_on_c, 0, 61, 0
1, 25560, Note_on_c, 0, 59, 66
1, 25560, Note_on_c, 0, 47, 56
1, 25620, Note_on_c, 0, 47, 0
1, 25620, Note_on_c, 0, 59, 0
1, 25620, Note_on_c, 0, 57, 63
1, 25620, Note_on_c, 0, 45, 53
1, 25680, Note_on_c, 0, 45, 0
1, 25680, Note_on_c, 0, 57, 0
1, 25680, Note_on_c, 0, 52, 62
1, 25680, Note_on_c, 0, 40, 52
1, 25730, Tempo, 733496
1, 25740, Tempo, 897263
1, 25740, Note_on_c, 0, 40, 0
1, 25740, Note_on_c, 0, 52, 0
1, 25740, Note_on_c, 0, 54, 61
1, 25740, Note_on_c, 0, 42, 51
1, 25800, Tempo, 803859
1, 25800, Note_on_c, 0, 42, 0
1, 25800, Note_on_c, 0, 54, 0
1, 25800, Note_on_c, 0, 61, 71
1, 25800, Note_on_c, 0, 49, 60
1, 25806, Control_c, 0, 64, 0
1, 25810, Tempo, 733496
1, 25840, Control_c, 0, 64, 127
1, 25860, Note_on_c, 0, 49, 0
1, 25860, Note_on_c, 0, 61, 0
1, 25860, Note_on_c, 0, 59, 68
1, 25860, Note_on_c, 0, 47, 57
1, 25920, Note_on_c, 0, 47, 0
1, 25920, Note_on_c, 0, 59, 0
1, 25920, Note_on_c, 0, 57, 69
1, 25920, Note_on_c, 0, 45, 58
1, 25940, Tempo, 744325
1, 25980, Note_on_c, 0, 45, 0
1, 25980, Note_on_c, 0, 57, 0
1, 25980, Note_on_c, 0, 56, 66
1, 25980, Note_on_c, 0, 44, 56
1, 26030, Tempo, 749906
1, 26040, Note_on_c, 0, 44, 0
1, 26040, Note_on_c, 0, 56, 0
1, 26040, Note_on_c, 0, 54, 65
1, 26040, Note_on_c, 0, 42, 55
1, 26100, Note_on_c, 0, 42, 0
1, 26100, Note_on_c, 0, 54, 0
1, 26100, Note_on_c, 0, 52, 63
1, 26100, Note_on_c, 0, 40, 53
1, 26120, Tempo, 755572
1, 26160, Note_on_c, 0, 40, 0
1, 26160, Note_on_c, 0, 52, 0
1, 26160, Note_on_c, 0, 50, 61
1, 26160, Note_on_c, 0, 38, 51
1, 26200, Tempo, 761228
1, 26220, Tempo, 905250
1, 26220, Note_on_c, 0, 38, 0
1, 26220, Note_on_c, 0, 50, 0
1, 26220, Note_on_c, 0, 51, 59
1, 26220, Note_on_c, 0, 39, 50
1, 26280, Note_on_c, 0, 39, 0
1, 26280, Note_on_c, 0, 51, 0
1, 26280, Note_on_c, 0, 59, 70
1, 26280, Note_on_c, 0, 47, 59
1, 26290, Tempo, 778917
1, 26297, Control_c, 0, 64, 0
1, 26320, Tempo, 772997
1, 26337, Control_c, 0, 64, 127
1, 26340, Note_on_c, 0, 47, 0
1, 26340, Note_on_c, 0, 59, 0
1, 26340, Note_on_c, 0, 58, 70
1, 26340, Note_on_c, 0, 46, 59
1, 26350, Tempo, 767067
1, 26380, Tempo, 761228
1, 26400, Tempo, 755572
1, 26400, Note_on_c, 0, 46, 0
1, 26400, Note_on_c, 0, 58, 0
1, 26400, Note_on_c, 0, 56, 68
1, 26400, Note_on_c, 0, 44, 57
1, 26430, Tempo, 749906
1, 26460, Tempo, 744325
1, 26460, Note_on_c, 0, 44, 0
1, 26460, Note_on_c, 0, 56, 0
1, 26460, Note_on_c, 0, 54, 66
1, 26460, Note_on_c, 0, 42, 56
1, 26490, Tempo, 738825
1, 26510, Tempo, 728155
1, 26520, Tempo, 733496
1, 26520, Note_on_c, 0, 42, 0
1, 26520, Note_on_c, 0, 54, 0
1, 26520, Note_on_c, 0, 52, 66
1, 26520, Note_on_c, 0, 40, 56
1, 26530, Tempo, 744325
1, 26540, Tempo, 755572
1, 26550, Tempo, 761228
1, 26560, Tempo, 772997
1, 26570, Tempo, 785032
1, 26580, Note_on_c, 0, 40, 0
1, 26580, Note_on_c, 0, 52, 0
1, 26580, Note_on_c, 0, 51, 66
1, 26580, Note_on_c, 0, 39, 56
1, 26590, Tempo, 816993
1, 26600, Tempo, 823723
1, 26620, Tempo, 830450
1, 26630, Tempo, 837404
1, 26640, Note_on_c, 0, 39, 0
1, 26640, Note_on_c, 0, 51, 0
1, 26640, Note_on_c, 0, 49, 66
1, 26640, Note_on_c, 0, 37, 56
1, 26650, Tempo, 844476
1, 26660, Tempo, 851547
1, 26670, Tempo, 858861
1, 26690, Tempo, 866301
1, 26700, Tempo, 873871
1, 26700, Note_on_c, 0, 37, 0
1, 26700, Note_on_c, 0, 49, 0
1, 26700, Note_on_c, 0, 47, 66
1, 26700, Note_on_c, 0, 35, 56
1, 26720, Tempo, 881446
1, 26730, Tempo, 889284
1, 26750, Tempo, 897263
1, 26760, Tempo, 905250
1, 26760, Note_on_c, 0, 35, 0
1, 26760, Note_on_c, 0, 47, 0
1, 26760, Note_on_c, 0, 46, 66
1, 26760, Note_on_c, 0, 34, 56
1, 26770, Tempo, 913520
1, 26790, Tempo, 921942
1, 26800, Tempo, 930521
1, 26820, Tempo, 939114
1, 26820, Note_on_c, 0, 34, 0
1, 26820, Note_on_c, 0, 46, 0
1, 26820, Note_on_c, 0, 45, 66
1, 26820, Note_on_c, 0, 33, 56
1, 26830, Tempo, 948017
1, 26850, Tempo, 957090
1, 26860, Tempo, 966339
1, 26870, Tempo, 975610
1, 26880, Tempo, 975610
1, 26880, Note_on_c, 0, 33, 0
1, 26880, Note_on_c, 0, 45, 0
1, 26880, Note_on_c, 0, 44, 95
1, 26880, Note_on_c, 0, 32, 80
1, 26880, Control_c, 0, 64, 0
1, 26944, Control_c, 0, 64, 127
1, 27240, Note_on_c, 0, 51, 77
1, 27360, Tempo, 1011975
1, 27360, Note_on_c, 0, 51, 0
1, 27360, Note_on_c, 0, 63, 87
1, 27440, Note_on_c, 0, 63, 0
1, 27440, Note_on_c, 0, 56, 63
1, 27461, Tempo, 1003512
1, 27520, Note_on_c, 0, 56, 0
1, 27520, Note_on_c, 0, 51, 69
1, 27588, Tempo, 995190
1, 27600, Note_on_c, 0, 51, 0
1, 27600, Note_on_c, 0, 44, 69
1, 27680, Note_on_c, 0, 44, 0
1, 27680, Note_on_c, 0, 32, 62
1, 27714, Tempo, 987004
1, 27760, Note_on_c, 0, 32, 0
1, 27760, Note_on_c, 0, 51, 69
1, 27833, Tempo, 1011975
1, 27833, Note_on_c, 0, 63, 87
1, 27840, Note_on_c, 0, 51, 0
1, 27913, Note_on_c, 0, 63, 0
1, 27913, Note_on_c, 0, 56, 63
1, 27934, Tempo, 1003512
1, 27993, Note_on_c, 0, 56, 0
1, 27993, Note_on_c, 0, 51, 69
1, 28061, Tempo, 995190
1, 28073, Note_on_c, 0, 51, 0
1, 28073, Note_on_c, 0, 44, 69
1, 28153, Note_on_c, 0, 44, 0
1, 28153, Note_on_c, 0, 32, 62
1, 28187, Tempo, 987004
1, 28233, Note_on_c, 0, 32, 0
1, 28233, Note_on_c, 0, 51, 69
1, 28313, Note_on_c, 0, 51, 0
1, 28320, Note_on_c, 0, 63, 87
1, 28400, Note_on_c, 0, 63, 0
1, 28400, Note_on_c, 0, 56, 63
1, 28421, Tempo, 1003512
1, 28480, Note_on_c, 0, 56, 0
1, 28480, Note_on_c, 0, 51, 69
1, 28548, Tempo, 995190
1, 28560, Note_on_c, 0, 51, 0
1, 28560, Note_on_c, 0, 44, 69
1, 28640, Note_on_c, 0, 44, 0
1, 28640, Note_on_c, 0, 32, 62
1, 28674, Tempo, 987004
1, 28720, Note_on_c, 0, 32, 0
1, 28720, Note_on_c, 0, 51, 69
1, 28800, Tempo, 978953
1, 28800, Note_on_c, 0, 51, 0
1, 28800, Note_on_c, 0, 32, 0
1, 28800, Note_on_c, 0, 44, 0
1, 28800, Note_on_c, 0, 71, 81
1, 28800, Note_on_c, 0, 59, 69
1, 28800, Note_on_c, 0, 63, 80
1, 28800, Control_c, 0, 64, 0
1, 28867, Control_c, 0, 64, 127
1, 28880, Note_on_c, 0, 63, 0
1, 28880, Note_on_c, 0, 56, 63
1, 28960, Note_on_c, 0, 56, 0
1, 28960, Note_on_c, 0, 51, 69
1, 29040, Note_on_c, 0, 51, 0
1, 29040, Note_on_c, 0, 44, 70
1, 29120, Note_on_c, 0, 44, 0
1, 29120, Note_on_c, 0, 32, 63
1, 29200, Note_on_c, 0, 32, 0
1, 29200, Note_on_c, 0, 51, 73
1, 29204, Tempo, 971031
1, 29255, Tempo, 978953
1, 29280, Note_on_c, 0, 51, 0
1, 29280, Note_on_c, 0, 59, 0
1, 29280, Note_on_c, 0, 71, 0
1, 29280, Note_on_c, 0, 71, 87
1, 29280, Note_on_c, 0, 59, 75
1, 29280, Note_on_c, 0, 63, 86
1, 29296, Control_c, 0, 64, 0
1, 29306, Tempo, 971031
1, 29356, Tempo, 963236
1, 29360, Note_on_c, 0, 63, 0
1, 29360, Note_on_c, 0, 56, 69
1, 29386, Control_c, 0, 64, 127
1, 29407, Tempo, 955566
1, 29432, Tempo, 948017
1, 29440, Note_on_c, 0, 56, 0
1, 29440, Note_on_c, 0, 51, 76
1, 29482, Tempo, 940586
1, 29520, Note_on_c, 0, 51, 0
1, 29520, Note_on_c, 0, 44, 77
1, 29533, Tempo, 933271
1, 29558, Tempo, 926069
1, 29600, Note_on_c, 0, 44, 0
1, 29600, Note_on_c, 0, 32, 69
1, 29609, Tempo, 918977
1, 29659, Tempo, 911993
1, 29680, Note_on_c, 0, 32, 0
1, 29680, Note_on_c, 0, 51, 79
1, 29684, Tempo, 898338
1, 29760, Note_on_c, 0, 51, 0
1, 29760, Note_on_c, 0, 59, 0
1, 29760, Note_on_c, 0, 71, 0
1, 29760, Note_on_c, 0, 71, 86
1, 29760, Note_on_c, 0, 59, 73
1, 29760, Note_on_c, 0, 63, 86
1, 29768, Control_c, 0, 64, 0
1, 29817, Control_c, 0, 64, 127
1, 29840, Note_on_c, 0, 63, 0
1, 29840, Note_on_c, 0, 56, 66
1, 29920, Note_on_c, 0, 56, 0
1, 29920, Note_on_c, 0, 51, 70
1, 30000, Tempo, 971031
1, 30000, Note_on_c, 0, 51, 0
1, 30000, Note_on_c, 0, 44, 71
1, 30080, Note_on_c, 0, 44, 0
1, 30080, Note_on_c, 0, 32, 61
1, 30160, Note_on_c, 0, 32, 0
1, 30160, Note_on_c, 0, 51, 69
1, 30240, Tempo, 987004
1, 30240, Note_on_c, 0, 51, 0
1, 30240, Note_on_c, 0, 59, 0
1, 30240, Note_on_c, 0, 71, 0
1, 30240, Note_on_c, 0, 71, 81
1, 30240, Note_on_c, 0, 59, 68
1, 30240, Note_on_c, 0, 63, 80
1, 30256, Control_c, 0, 64, 0
1, 30311, Control_c, 0, 64, 127
1, 30320, Note_on_c, 0, 63, 0
1, 30320, Note_on_c, 0, 56, 61
1, 30400, Note_on_c, 0, 56, 0
1, 30400, Note_on_c, 0, 51, 67
1, 30480, Note_on_c, 0, 51, 0
1, 30480, Note_on_c, 0, 44, 65
1, 30560, Tempo, 1125915
1, 30560, Note_on_c, 0, 44, 0
1, 30560, Note_on_c, 0, 32, 57
1, 30640, Note_on_c, 0, 32, 0
1, 30640, Note_on_c, 0, 51, 63
1, 30720, Tempo, 1020582
1, 30720, Note_on_c, 0, 51, 0
1, 30720, Note_on_c, 0, 59, 0
1, 30720, Note_on_c, 0, 71, 0
1, 30720, Note_on_c, 0, 68, 73
1, 30720, Note_on_c, 0, 63, 62
1, 30720, Note_on_c, 0, 56, 73
1, 30726, Control_c, 0, 64, 0
1, 30773, Control_c, 0, 64, 127
1, 30800, Note_on_c, 0, 51, 39
1, 30880, Note_on_c, 0, 51, 0
1, 30880, Note_on_c, 0, 72, 44
1, 30880, Note_on_c, 0, 76, 44
1, 30880, Note_on_c, 0, 84, 52
1, 30880, Note_on_c, 0, 44, 43
1, 30883, Control_c, 0, 64, 0
1, 30900, Control_c, 0, 64, 127
1, 30960, Note_on_c, 0, 44, 0
1, 30960, Note_on_c, 0, 76, 0
1, 30960, Note_on_c, 0, 72, 0
1, 30960, Note_on_c, 0, 84, 0
1, 30960, Note_on_c, 0, 71, 44
1, 30960, Note_on_c, 0, 80, 44
1, 30960, Note_on_c, 0, 83, 53
1, 30960, Note_on_c, 0, 32, 44
1, 30968, Control_c, 0, 64, 0
1, 30997, Control_c, 0, 64, 127
1, 31040, Note_on_c, 0, 32, 0
1, 31040, Note_on_c, 0, 44, 39
1, 31120, Note_on_c, 0, 44, 0
1, 31120, Note_on_c, 0, 51, 45
1, 31200, Tempo, 978953
1, 31200, Note_on_c, 0, 51, 0
1, 31200, Note_on_c, 0, 56, 0
1, 31200, Note_on_c, 0, 63, 50
1, 31226, Tempo, 971031
1, 31276, Tempo, 1029336
1, 31280, Note_on_c, 0, 63, 0
1, 31280, Note_on_c, 0, 56, 44
1, 31360, Note_on_c, 0, 56, 0
1, 31360, Note_on_c, 0, 80, 0
1, 31360, Note_on_c, 0, 71, 0
1, 31360, Note_on_c, 0, 83, 0
1, 31360, Note_on_c, 0, 72, 49
1, 31360, Note_on_c, 0, 76, 49
1, 31360, Note_on_c, 0, 84, 58
1, 31360, Note_on_c, 0, 51, 48
1, 31375, Control_c, 0, 64, 0
1, 31377, Tempo, 1020582
1, 31403, Control_c, 0, 64, 127
1, 31440, Note_on_c, 0, 51, 0
1, 31440, Note_on_c, 0, 76, 0
1, 31440, Note_on_c, 0, 72, 0
1, 31440, Note_on_c, 0, 84, 0
1, 31440, Note_on_c, 0, 71, 51
1, 31440, Note_on_c, 0, 80, 51
1, 31440, Note_on_c, 0, 83, 61
1, 31440, Note_on_c, 0, 44, 49
1, 31450, Control_c, 0, 64, 0
1, 31453, Tempo, 1011975
1, 31475, Control_c, 0, 64, 127
1, 31520, Note_on_c, 0, 44, 0
1, 31520, Note_on_c, 0, 32, 43
1, 31554, Tempo, 1003512
1, 31600, Note_on_c, 0, 32, 0
1, 31600, Note_on_c, 0, 51, 50
1, 31630, Tempo, 995190
1, 31680, Note_on_c, 0, 51, 0
1, 31680, Note_on_c, 0, 68, 0
1, 31680, Note_on_c, 0, 63, 0
1, 31680, Note_on_c, 0, 63, 55
1, 31731, Tempo, 987004
1, 31760, Note_on_c, 0, 63, 0
1, 31760, Note_on_c, 0, 56, 47
1, 31807, Tempo, 978953
1, 31840, Note_on_c, 0, 56, 0
1, 31840, Note_on_c, 0, 80, 0
1, 31840, Note_on_c, 0, 83, 0
1, 31840, Note_on_c, 0, 71, 0
1, 31840, Note_on_c, 0, 72, 55
1, 31840, Note_on_c, 0, 76, 55
1, 31840, Note_on_c, 0, 84, 66
1, 31840, Note_on_c, 0, 51, 52
1, 31857, Control_c, 0, 64, 0
1, 31877, Control_c, 0, 64, 127
1, 31882, Tempo, 971031
1, 31920, Note_on_c, 0, 51, 0
1, 31920, Note_on_c, 0, 72, 0
1, 31920, Note_on_c, 0, 76, 0
1, 31920, Note_on_c, 0, 84, 0
1, 31920, Note_on_c, 0, 71, 57
1, 31920, Note_on_c, 0, 80, 57
1, 31920, Note_on_c, 0, 83, 68
1, 31920, Note_on_c, 0, 44, 52
1, 31935, Control_c, 0, 64, 0
1, 31969, Control_c, 0, 64, 127
1, 31983, Tempo, 963236
1, 32000, Note_on_c, 0, 44, 0
1, 32000, Note_on_c, 0, 32, 47
1, 32059, Tempo, 955566
1, 32080, Note_on_c, 0, 32, 0
1, 32080, Note_on_c, 0, 51, 55
1, 32160, Tempo, 948017
1, 32160, Note_on_c, 0, 51, 0
1, 32160, Note_on_c, 0, 63, 58
1, 32236, Tempo, 940586
1, 32240, Note_on_c, 0, 63, 0
1, 32240, Note_on_c, 0, 56, 51
1, 32312, Tempo, 933271
1, 32320, Note_on_c, 0, 56, 0
1, 32320, Note_on_c, 0, 71, 0
1, 32320, Note_on_c, 0, 80, 0
1, 32320, Note_on_c, 0, 83, 0
1, 32320, Note_on_c, 0, 72, 61
1, 32320, Note_on_c, 0, 76, 61
1, 32320, Note_on_c, 0, 84, 73
1, 32320, Note_on_c, 0, 51, 55
1, 32332, Control_c, 0, 64, 0
1, 32360, Control_c, 0, 64, 127
1, 32400, Note_on_c, 0, 51, 0
1, 32400, Note_on_c, 0, 72, 0
1, 32400, Note_on_c, 0, 76, 0
1, 32400, Note_on_c, 0, 84, 0
1, 32400, Note_on_c, 0, 71, 63
1, 32400, Note_on_c, 0, 80, 63
1, 32400, Note_on_c, 0, 83, 75
1, 32400, Note_on_c, 0, 44, 57
1, 32415, Control_c, 0, 64, 0
1, 32438, Tempo, 926069
1, 32446, Control_c, 0, 64, 127
1, 32480, Note_on_c, 0, 44, 0
1, 32480, Note_on_c, 0, 32, 50
1, 32560, Note_on_c, 0, 32, 0
1, 32560, Note_on_c, 0, 51, 58
1, 32590, Tempo, 918977
1, 32629, Tempo, 891663
1, 32640, Note_on_c, 0, 51, 0
1, 32640, Note_on_c, 0, 63, 64
1, 32680, Tempo, 885086
1, 32720, Note_on_c, 0, 63, 0
1, 32720, Note_on_c, 0, 56, 54
1, 32730, Tempo, 878606
1, 32760, Note_on_c, 0, 83, 0
1, 32760, Note_on_c, 0, 71, 0
1, 32760, Note_on_c, 0, 80, 0
1, 32760, Note_on_c, 0, 72, 67
1, 32760, Note_on_c, 0, 76, 67
1, 32760, Note_on_c, 0, 84, 81
1, 32774, Control_c, 0, 64, 0
1, 32781, Tempo, 872220
1, 32800, Note_on_c, 0, 56, 0
1, 32800, Note_on_c, 0, 51, 59
1, 32810, Control_c, 0, 64, 127
1, 32831, Tempo, 865926
1, 32856, Tempo, 859722
1, 32880, Note_on_c, 0, 51, 0
1, 32880, Note_on_c, 0, 84, 0
1, 32880, Note_on_c, 0, 76, 0
1, 32880, Note_on_c, 0, 72, 0
1, 32880, Note_on_c, 0, 71, 68
1, 32880, Note_on_c, 0, 80, 68
1, 32880, Note_on_c, 0, 83, 81
1, 32880, Note_on_c, 0, 44, 60
1, 32887, Control_c, 0, 64, 0
1, 32907, Tempo, 853606
1, 32908, Control_c, 0, 64, 127
1, 32957, Tempo, 847577
1, 32960, Note_on_c, 0, 44, 0
1, 32960, Note_on_c, 0, 32, 54
1, 33000, Note_on_c, 0, 71, 0
1, 33000, Note_on_c, 0, 83, 0
1, 33000, Note_on_c, 0, 80, 0
1, 33000, Note_on_c, 0, 72, 72
1, 33000, Note_on_c, 0, 76, 72
1, 33000, Note_on_c, 0, 84, 84
1, 33008, Tempo, 841633
1, 33012, Control_c, 0, 64, 0
1, 33033, Tempo, 835771
1, 33040, Note_on_c, 0, 32, 0
1, 33040, Note_on_c, 0, 51, 62
1, 33046, Control_c, 0, 64, 127
1, 33084, Tempo, 829990
1, 33120, Note_on_c, 0, 51, 0
1, 33120, Note_on_c, 0, 84, 0
1, 33120, Note_on_c, 0, 76, 0
1, 33120, Note_on_c, 0, 72, 0
1, 33120, Note_on_c, 0, 71, 72
1, 33120, Note_on_c, 0, 80, 72
1, 33120, Note_on_c, 0, 83, 86
1, 33120, Note_on_c, 0, 63, 65
1, 33134, Tempo, 824289
1, 33135, Control_c, 0, 64, 0
1, 33163, Control_c, 0, 64, 127
1, 33185, Tempo, 818666
1, 33200, Note_on_c, 0, 63, 0
1, 33200, Note_on_c, 0, 56, 58
1, 33235, Tempo, 813118
1, 33240, Note_on_c, 0, 71, 0
1, 33240, Note_on_c, 0, 83, 0
1, 33240, Note_on_c, 0, 80, 0
1, 33240, Note_on_c, 0, 72, 74
1, 33240, Note_on_c, 0, 76, 74
1, 33240, Note_on_c, 0, 84, 87
1, 33252, Control_c, 0, 64, 0
1, 33261, Tempo, 807646
1, 33280, Note_on_c, 0, 56, 0
1, 33280, Note_on_c, 0, 51, 64
1, 33286, Control_c, 0, 64, 127
1, 33311, Tempo, 802246
1, 33360, Note_on_c, 0, 51, 0
1, 33360, Note_on_c, 0, 84, 0
1, 33360, Note_on_c, 0, 76, 0
1, 33360, Note_on_c, 0, 72, 0
1, 33360, Note_on_c, 0, 71, 75
1, 33360, Note_on_c, 0, 80, 75
1, 33360, Note_on_c, 0, 83, 90
1, 33360, Note_on_c, 0, 44, 64
1, 33362, Tempo, 796919
1, 33369, Control_c, 0, 64, 0
1, 33399, Control_c, 0, 64, 127
1, 33412, Tempo, 791661
1, 33437, Tempo, 786473
1, 33440, Note_on_c, 0, 44, 0
1, 33440, Note_on_c, 0, 32, 58
1, 33480, Note_on_c, 0, 71, 0
1, 33480, Note_on_c, 0, 83, 0
1, 33480, Note_on_c, 0, 80, 0
1, 33480, Note_on_c, 0, 72, 76
1, 33480, Note_on_c, 0, 76, 76
1, 33480, Note_on_c, 0, 84, 91
1, 33487, Control_c, 0, 64, 0
1, 33519, Control_c, 0, 64, 127
1, 33520, Note_on_c, 0, 32, 0
1, 33520, Note_on_c, 0, 51, 64
1, 33564, Tempo, 796919
1, 33600, Note_on_c, 0, 51, 0
1, 33600, Note_on_c, 0, 84, 0
1, 33600, Note_on_c, 0, 76, 0
1, 33600, Note_on_c, 0, 72, 0
1, 33600, Note_on_c, 0, 71, 78
1, 33600, Note_on_c, 0, 80, 78
1, 33600, Note_on_c, 0, 83, 92
1, 33600, Note_on_c, 0, 63, 70
1, 33614, Control_c, 0, 64, 0
1, 33636, Control_c, 0, 64, 127
1, 33640, Tempo, 802246
1, 33680, Note_on_c, 0, 63, 0
1, 33680, Note_on_c, 0, 56, 61
1, 33720, Note_on_c, 0, 71, 0
1, 33720, Note_on_c, 0, 83, 0
1, 33720, Note_on_c, 0, 80, 0
1, 33720, Note_on_c, 0, 72, 81
1, 33720, Note_on_c, 0, 76, 81
1, 33720, Note_on_c, 0, 84, 95
1, 33731, Control_c, 0, 64, 0
1, 33759, Control_c, 0, 64, 127
1, 33760, Note_on_c, 0, 56, 0
1, 33760, Note_on_c, 0, 51, 67
1, 33766, Tempo, 807646
1, 33840, Note_on_c, 0, 51, 0
1, 33840, Note_on_c, 0, 84, 0
1, 33840, Note_on_c, 0, 76, 0
1, 33840, Note_on_c, 0, 72, 0
1, 33840, Note_on_c, 0, 71, 81
1, 33840, Note_on_c, 0, 80, 81
1, 33840, Note_on_c, 0, 83, 96
1, 33840, Note_on_c, 0, 44, 68
1, 33854, Control_c, 0, 64, 0
1, 33883, Control_c, 0, 64, 127
1, 33892, Tempo, 813118
1, 33903, Tempo, 865926
1, 33920, Note_on_c, 0, 44, 0
1, 33920, Note_on_c, 0, 32, 60
1, 33960, Tempo, 1095090
1, 33960, Note_on_c, 0, 71, 0
1, 33960, Note_on_c, 0, 83, 0
1, 33960, Note_on_c, 0, 80, 0
1, 33960, Note_on_c, 0, 72, 83
1, 33960, Note_on_c, 0, 76, 83
1, 33960, Note_on_c, 0, 84, 99
1, 33972, Control_c, 0, 64, 0
1, 33999, Control_c, 0, 64, 127
1, 34000, Note_on_c, 0, 32, 0
1, 34000, Note_on_c, 0, 51, 68
1, 34080, Note_on_c, 0, 51, 0
1, 34080, Note_on_c, 0, 84, 0
1, 34080, Note_on_c, 0, 76, 0
1, 34080, Note_on_c, 0, 72, 0
1, 34080, Note_on_c, 0, 71, 96
1, 34080, Note_on_c, 0, 80, 96
1, 34080, Note_on_c, 0, 83, 114
1, 34080, Note_on_c, 0, 63, 85
1, 34080, Note_on_c, 0, 59, 71
1, 34080, Note_on_c, 0, 56, 71
1, 34089, Control_c, 0, 64, 0
1, 34130, Control_c, 0, 64, 127
1, 34200, Tempo, 835771
1, 34267, Control_c, 0, 64, 0
1, 34320, Note_on_c, 0, 56, 0
1, 34320, Note_on_c, 0, 80, 0
1, 34320, Note_on_c, 0, 83, 0
1, 34320, Note_on_c, 0, 71, 0
1, 34320, Note_on_c, 0, 59, 0
1, 34320, Note_on_c, 0, 63, 0
1, 34560, Time_signature, 2, 2, 24, 8
1, 34560, Note_on_c, 0, 68, 81
1, 34562, Tempo, 807646
1, 34578, Tempo, 747291
1, 34592, Control_c, 0, 64, 127
1, 34626, Tempo, 742666
1, 34629, Note_on_c, 0, 68, 0
1, 34629, Note_on_c, 0, 70, 82
1, 34658, Tempo, 738098
1, 34690, Tempo, 733586
1, 34697, Note_on_c, 0, 70, 0
1, 34697, Note_on_c, 0, 71, 83
1, 34722, Tempo, 729129
1, 34754, Tempo, 724725
1, 34765, Note_on_c, 0, 73, 83
1, 34766, Note_on_c, 0, 71, 0
1, 34786, Tempo, 720375
1, 34818, Tempo, 716076
1, 34834, Note_on_c, 0, 73, 0
1, 34834, Note_on_c, 0, 75, 85
1, 34850, Tempo, 711828
1, 34882, Tempo, 707631
1, 34902, Note_on_c, 0, 75, 0
1, 34902, Note_on_c, 0, 77, 87
1, 34914, Tempo, 703482
1, 34946, Tempo, 699382
1, 34971, Note_on_c, 0, 77, 0
1, 34971, Note_on_c, 0, 79, 89
1, 34978, Tempo, 695330
1, 35010, Tempo, 691324
1, 35039, Note_on_c, 0, 79, 0
1, 35039, Note_on_c, 0, 80, 91
1, 35042, Tempo, 687364
1, 35074, Tempo, 683449
1, 35106, Tempo, 679579
1, 35107, Note_on_c, 0, 82, 92
1, 35108, Note_on_c, 0, 80, 0
1, 35138, Tempo, 675752
1, 35170, Tempo, 671968
1, 35176, Note_on_c, 0, 82, 0
1, 35176, Note_on_c, 0, 83, 93
1, 35202, Tempo, 668226
1, 35234, Tempo, 664525
1, 35244, Note_on_c, 0, 83, 0
1, 35244, Note_on_c, 0, 85, 94
1, 35266, Tempo, 660866
1, 35298, Tempo, 657246
1, 35313, Note_on_c, 0, 85, 0
1, 35313, Note_on_c, 0, 87, 95
1, 35330, Tempo, 653666
1, 35362, Tempo, 650125
1, 35381, Note_on_c, 0, 87, 0
1, 35381, Note_on_c, 0, 89, 97
1, 35394, Tempo, 646621
1, 35410, Tempo, 679579
1, 35426, Tempo, 720375
1, 35442, Tempo, 766381
1, 35449, Note_on_c, 0, 91, 99
1, 35450, Note_on_c, 0, 89, 0
1, 35458, Tempo, 818666
1, 35474, Tempo, 878606
1, 35490, Tempo, 948017
1, 35520, Time_signature, 3, 2, 24, 8
1, 35520, Tempo, 891663
1, 35520, Note_on_c, 0, 91, 0
1, 35520, Note_on_c, 0, 92, 106
1, 35520, Note_on_c, 0, 40, 78
1, 35520, Note_on_c, 0, 33, 66
1, 35520, Control_c, 0, 64, 0
1, 35580, Control_c, 0, 64, 127
1, 35680, Tempo, 847577
1, 35680, Note_on_c, 0, 33, 0
1, 35680, Note_on_c, 0, 40, 0
1, 35680, Note_on_c, 0, 49, 71
1, 35680, Note_on_c, 0, 40, 60
1, 35760, Note_on_c, 0, 40, 0
1, 35760, Note_on_c, 0, 49, 0
1, 35760, Note_on_c, 0, 92, 0
1, 35760, Note_on_c, 0, 52, 78
1, 35920, Tempo, 807646
1, 35920, Note_on_c, 0, 52, 0
1, 35920, Note_on_c, 0, 85, 81
1, 35920, Note_on_c, 0, 49, 60
1, 35920, Note_on_c, 0, 52, 71
1, 36000, Tempo, 891663
1, 36000, Note_on_c, 0, 52, 0
1, 36000, Note_on_c, 0, 49, 0
1, 36000, Note_on_c, 0, 85, 0
1, 36000, Note_on_c, 0, 80, 90
1, 36000, Note_on_c, 0, 61, 78
1, 36160, Tempo, 853606
1, 36160, Note_on_c, 0, 61, 0
1, 36160, Note_on_c, 0, 52, 59
1, 36160, Note_on_c, 0, 61, 70
1, 36240, Note_on_c, 0, 61, 0
1, 36240, Note_on_c, 0, 52, 0
1, 36240, Note_on_c, 0, 64, 78
1, 36400, Tempo, 813118
1, 36400, Note_on_c, 0, 64, 0
1, 36400, Note_on_c, 0, 61, 59
1, 36400, Note_on_c, 0, 64, 70
1, 36480, Tempo, 891663
1, 36480, Note_on_c, 0, 64, 0
1, 36480, Note_on_c, 0, 61, 0
1, 36480, Note_on_c, 0, 69, 84
1, 36640, Tempo, 847577
1, 36640, Note_on_c, 0, 69, 0
1, 36640, Note_on_c, 0, 52, 58
1, 36640, Note_on_c, 0, 61, 69
1, 36720, Note_on_c, 0, 61, 0
1, 36720, Note_on_c, 0, 52, 0
1, 36720, Note_on_c, 0, 64, 77
1, 36800, Note_on_c, 0, 64, 0
1, 36800, Note_on_c, 0, 61, 70
1, 36880, Tempo, 813118
1, 36880, Note_on_c, 0, 61, 0
1, 36880, Note_on_c, 0, 52, 70
1, 36900, Note_on_c, 0, 80, 0
1, 36900, Note_on_c, 0, 80, 64
1, 36900, Note_on_c, 0, 75, 64
1, 36900, Note_on_c, 0, 87, 76
1, 36918, Control_c, 0, 64, 0
1, 36960, Tempo, 885086
1, 36960, Note_on_c, 0, 87, 0
1, 36960, Note_on_c, 0, 75, 0
1, 36960, Note_on_c, 0, 80, 0
1, 36960, Note_on_c, 0, 80, 75
1, 36960, Note_on_c, 0, 85, 89
1, 36960, Note_on_c, 0, 73, 75
1, 36960, Note_on_c, 0, 58, 68
1, 36960, Note_on_c, 0, 61, 68
1, 36960, Note_on_c, 0, 68, 80
1, 36960, Control_c, 0, 64, 127
1, 37120, Tempo, 813118
1, 37120, Note_on_c, 0, 59, 64
1, 37120, Note_on_c, 0, 55, 54
1, 37120, Note_on_c, 0, 50, 62
1, 37125, Control_c, 0, 64, 0
1, 37155, Control_c, 0, 64, 127
1, 37200, Tempo, 918977
1, 37200, Note_on_c, 0, 50, 0
1, 37200, Note_on_c, 0, 55, 0
1, 37200, Note_on_c, 0, 59, 0
1, 37200, Note_on_c, 0, 56, 59
1, 37200, Note_on_c, 0, 58, 71
1, 37200, Note_on_c, 0, 46, 59
1, 37200, Note_on_c, 0, 49, 71
1, 37209, Control_c, 0, 64, 0
1, 37266, Control_c, 0, 64, 127
1, 37280, Tempo, 878606
1, 37360, Note_on_c, 0, 49, 0
1, 37360, Note_on_c, 0, 56, 0
1, 37360, Note_on_c, 0, 46, 0
1, 37360, Note_on_c, 0, 58, 0
1, 37360, Note_on_c, 0, 40, 66
1, 37440, Note_on_c, 0, 40, 0
1, 37440, Note_on_c, 0, 56, 76
1, 37600, Tempo, 813118
1, 37600, Note_on_c, 0, 56, 0
1, 37600, Note_on_c, 0, 71, 60
1, 37600, Note_on_c, 0, 67, 51
1, 37600, Note_on_c, 0, 62, 59
1, 37617, Control_c, 0, 64, 0
1, 37643, Control_c, 0, 64, 127
1, 37680, Tempo, 918977
1, 37680, Note_on_c, 0, 62, 0
1, 37680, Note_on_c, 0, 67, 0
1, 37680, Note_on_c, 0, 71, 0
1, 37680, Note_on_c, 0, 70, 69
1, 37680, Note_on_c, 0, 68, 58
1, 37680, Note_on_c, 0, 58, 59
1, 37680, Note_on_c, 0, 61, 71
1, 37692, Control_c, 0, 64, 0
1, 37755, Control_c, 0, 64, 127
1, 37840, Tempo, 878606
1, 37840, Note_on_c, 0, 61, 0
1, 37840, Note_on_c, 0, 70, 0
1, 37840, Note_on_c, 0, 58, 0
1, 37840, Note_on_c, 0, 68, 0
1, 37840, Note_on_c, 0, 52, 68
1, 37920, Note_on_c, 0, 52, 0
1, 37920, Note_on_c, 0, 68, 0
1, 37920, Note_on_c, 0, 58, 0
1, 37920, Note_on_c, 0, 80, 0
1, 37920, Note_on_c, 0, 85, 0
1, 37920, Note_on_c, 0, 52, 0
1, 37920, Note_on_c, 0, 61, 0
1, 37920, Note_on_c, 0, 73, 0
1, 37920, Note_on_c, 0, 68, 76
1, 38080, Tempo, 813118
1, 38080, Note_on_c, 0, 68, 0
1, 38080, Note_on_c, 0, 83, 69
1, 38080, Note_on_c, 0, 79, 58
1, 38080, Note_on_c, 0, 74, 68
1, 38115, Control_c, 0, 64, 0
1, 38152, Control_c, 0, 64, 127
1, 38160, Tempo, 911993
1, 38160, Note_on_c, 0, 74, 0
1, 38160, Note_on_c, 0, 79, 0
1, 38160, Note_on_c, 0, 83, 0
1, 38160, Note_on_c, 0, 80, 63
1, 38160, Note_on_c, 0, 82, 75
1, 38160, Note_on_c, 0, 70, 63
1, 38160, Note_on_c, 0, 73, 75
1, 38175, Control_c, 0, 64, 0
1, 38209, Control_c, 0, 64, 127
1, 38240, Tempo, 878606
1, 38320, Note_on_c, 0, 73, 0
1, 38320, Note_on_c, 0, 80, 0
1, 38320, Note_on_c, 0, 82, 0
1, 38320, Note_on_c, 0, 70, 0
1, 38320, Note_on_c, 0, 64, 70
1, 38338, Control_c, 0, 64, 0
1, 38400, Tempo, 891663
1, 38400, Note_on_c, 0, 64, 0
1, 38400, Note_on_c, 0, 80, 106
1, 38400, Note_on_c, 0, 40, 78
1, 38400, Note_on_c, 0, 33, 66
1, 38400, Control_c, 0, 64, 0
1, 38460, Control_c, 0, 64, 127
1, 38560, Tempo, 847577
1, 38560, Note_on_c, 0, 33, 0
1, 38560, Note_on_c, 0, 40, 0
1, 38560, Note_on_c, 0, 80, 0
1, 38560, Note_on_c, 0, 97, 81
1, 38560, Note_on_c, 0, 92, 68
1, 38560, Note_on_c, 0, 85, 68
1, 38560, Note_on_c, 0, 49, 71
1, 38560, Note_on_c, 0, 40, 60
1, 38640, Note_on_c, 0, 40, 0
1, 38640, Note_on_c, 0, 85, 0
1, 38640, Note_on_c, 0, 97, 0
1, 38640, Note_on_c, 0, 92, 0
1, 38640, Note_on_c, 0, 49, 0
1, 38640, Note_on_c, 0, 92, 90
1, 38640, Note_on_c, 0, 85, 76
1, 38640, Note_on_c, 0, 80, 76
1, 38640, Note_on_c, 0, 52, 78
1, 38800, Tempo, 807646
1, 38800, Note_on_c, 0, 52, 0
1, 38800, Note_on_c, 0, 49, 60
1, 38800, Note_on_c, 0, 52, 71
1, 38880, Tempo, 891663
1, 38880, Note_on_c, 0, 52, 0
1, 38880, Note_on_c, 0, 49, 0
1, 38880, Note_on_c, 0, 61, 78
1, 39040, Tempo, 853606
1, 39040, Note_on_c, 0, 61, 0
1, 39040, Note_on_c, 0, 92, 0
1, 39040, Note_on_c, 0, 85, 0
1, 39040, Note_on_c, 0, 80, 0
1, 39040, Note_on_c, 0, 80, 81
1, 39040, Note_on_c, 0, 73, 68
1, 39040, Note_on_c, 0, 85, 81
1, 39040, Note_on_c, 0, 52, 59
1, 39040, Note_on_c, 0, 61, 70
1, 39120, Note_on_c, 0, 61, 0
1, 39120, Note_on_c, 0, 85, 0
1, 39120, Note_on_c, 0, 80, 0
1, 39120, Note_on_c, 0, 73, 0
1, 39120, Note_on_c, 0, 52, 0
1, 39120, Note_on_c, 0, 68, 76
1, 39120, Note_on_c, 0, 73, 76
1, 39120, Note_on_c, 0, 80, 90
1, 39120, Note_on_c, 0, 64, 78
1, 39280, Tempo, 813118
1, 39280, Note_on_c, 0, 64, 0
1, 39280, Note_on_c, 0, 61, 59
1, 39280, Note_on_c, 0, 64, 70
1, 39360, Tempo, 911993
1, 39360, Note_on_c, 0, 64, 0
1, 39360, Note_on_c, 0, 61, 0
1, 39360, Note_on_c, 0, 73, 84
1, 39480, Tempo, 948017
1, 39480, Note_on_c, 0, 80, 0
1, 39480, Note_on_c, 0, 68, 0
1, 39480, Note_on_c, 0, 73, 0
1, 39480, Note_on_c, 0, 75, 60
1, 39480, Note_on_c, 0, 80, 60
1, 39480, Note_on_c, 0, 87, 71
1, 39520, Note_on_c, 0, 73, 0
1, 39520, Note_on_c, 0, 52, 49
1, 39520, Note_on_c, 0, 61, 58
1, 39600, Note_on_c, 0, 61, 0
1, 39600, Note_on_c, 0, 75, 0
1, 39600, Note_on_c, 0, 87, 0
1, 39600, Note_on_c, 0, 80, 0
1, 39600, Note_on_c, 0, 52, 0
1, 39600, Note_on_c, 0, 75, 58
1, 39600, Note_on_c, 0, 80, 58
1, 39600, Note_on_c, 0, 87, 69
1, 39600, Note_on_c, 0, 64, 65
1, 39680, Note_on_c, 0, 64, 0
1, 39680, Note_on_c, 0, 61, 59
1, 39720, Tempo, 1105176
1, 39720, Note_on_c, 0, 75, 0
1, 39720, Note_on_c, 0, 87, 0
1, 39720, Note_on_c, 0, 80, 0
1, 39720, Note_on_c, 0, 85, 81
1, 39720, Note_on_c, 0, 80, 68
1, 39720, Note_on_c, 0, 73, 68
1, 39760, Note_on_c, 0, 61, 0
1, 39760, Note_on_c, 0, 52, 59
1, 39840, Tempo, 885086
1, 39840, Note_on_c, 0, 85, 0
1, 39840, Note_on_c, 0, 73, 0
1, 39840, Note_on_c, 0, 80, 0
1, 39840, Note_on_c, 0, 80, 75
1, 39840, Note_on_c, 0, 85, 89
1, 39840, Note_on_c, 0, 73, 75
1, 39840, Note_on_c, 0, 58, 68
1, 39840, Note_on_c, 0, 61, 68
1, 39840, Note_on_c, 0, 68, 80
1, 39843, Control_c, 0, 64, 0
1, 39880, Control_c, 0, 64, 127
1, 40000, Tempo, 813118
1, 40000, Note_on_c, 0, 59, 64
1, 40000, Note_on_c, 0, 55, 54
1, 40000, Note_on_c, 0, 50, 62
1, 40005, Control_c, 0, 64, 0
1, 40035, Control_c, 0, 64, 127
1, 40080, Tempo, 918977
1, 40080, Note_on_c, 0, 50, 0
1, 40080, Note_on_c, 0, 55, 0
1, 40080, Note_on_c, 0, 59, 0
1, 40080, Note_on_c, 0, 56, 59
1, 40080, Note_on_c, 0, 58, 71
1, 40080, Note_on_c, 0, 46, 59
1, 40080, Note_on_c, 0, 49, 71
1, 40089, Control_c, 0, 64, 0
1, 40146, Control_c, 0, 64, 127
1, 40160, Tempo, 878606
1, 40240, Note_on_c, 0, 49, 0
1, 40240, Note_on_c, 0, 56, 0
1, 40240, Note_on_c, 0, 46, 0
1, 40240, Note_on_c, 0, 58, 0
1, 40240, Note_on_c, 0, 40, 66
1, 40320, Note_on_c, 0, 40, 0
1, 40320, Note_on_c, 0, 56, 76
1, 40480, Tempo, 813118
1, 40480, Note_on_c, 0, 56, 0
1, 40480, Note_on_c, 0, 71, 60
1, 40480, Note_on_c, 0, 67, 51
1, 40480, Note_on_c, 0, 62, 59
1, 40497, Control_c, 0, 64, 0
1, 40523, Control_c, 0, 64, 127
1, 40560, Tempo, 918977
1, 40560, Note_on_c, 0, 62, 0
1, 40560, Note_on_c, 0, 67, 0
1, 40560, Note_on_c, 0, 71, 0
1, 40560, Note_on_c, 0, 70, 69
1, 40560, Note_on_c, 0, 68, 58
1, 40560, Note_on_c, 0, 58, 59
1, 40560, Note_on_c, 0, 61, 71
1, 40572, Control_c, 0, 64, 0
1, 40635, Control_c, 0, 64, 127
1, 40720, Tempo, 878606
1, 40720, Note_on_c, 0, 61, 0
1, 40720, Note_on_c, 0, 70, 0
1, 40720, Note_on_c, 0, 58, 0
1, 40720, Note_on_c, 0, 68, 0
1, 40720, Note_on_c, 0, 52, 68
1, 40800, Note_on_c, 0, 52, 0
1, 40800, Note_on_c, 0, 68, 0
1, 40800, Note_on_c, 0, 58, 0
1, 40800, Note_on_c, 0, 80, 0
1, 40800, Note_on_c, 0, 85, 0
1, 40800, Note_on_c, 0, 52, 0
1, 40800, Note_on_c, 0, 61, 0
1, 40800, Note_on_c, 0, 73, 0
1, 40800, Note_on_c, 0, 68, 76
1, 40960, Tempo, 813118
1, 40960, Note_on_c, 0, 68, 0
1, 40960, Note_on_c, 0, 83, 69
1, 40960, Note_on_c, 0, 79, 58
1, 40960, Note_on_c, 0, 74, 68
1, 40995, Control_c, 0, 64, 0
1, 41032, Control_c, 0, 64, 127
1, 41040, Tempo, 911993
1, 41040, Note_on_c, 0, 74, 0
1, 41040, Note_on_c, 0, 79, 0
1, 41040, Note_on_c, 0, 83, 0
1, 41040, Note_on_c, 0, 80, 63
1, 41040, Note_on_c, 0, 82, 75
1, 41040, Note_on_c, 0, 70, 63
1, 41040, Note_on_c, 0, 73, 75
1, 41055, Control_c, 0, 64, 0
1, 41089, Control_c, 0, 64, 127
1, 41120, Tempo, 878606
1, 41200, Note_on_c, 0, 73, 0
1, 41200, Note_on_c, 0, 80, 0
1, 41200, Note_on_c, 0, 82, 0
1, 41200, Note_on_c, 0, 70, 0
1, 41200, Note_on_c, 0, 64, 70
1, 41218, Control_c, 0, 64, 0
1, 41280, Tempo, 891663
1, 41280, Note_on_c, 0, 64, 0
1, 41280, Note_on_c, 0, 80, 87
1, 41280, Note_on_c, 0, 40, 78
1, 41280, Note_on_c, 0, 33, 66
1, 41305, Control_c, 0, 64, 127
1, 41440, Tempo, 847577
1, 41440, Note_on_c, 0, 33, 0
1, 41440, Note_on_c, 0, 40, 0
1, 41440, Note_on_c, 0, 49, 60
1, 41440, Note_on_c, 0, 40, 51
1, 41520, Note_on_c, 0, 40, 0
1, 41520, Note_on_c, 0, 49, 0
1, 41520, Note_on_c, 0, 80, 0
1, 41520, Note_on_c, 0, 80, 80
1, 41520, Note_on_c, 0, 85, 80
1, 41520, Note_on_c, 0, 92, 95
1, 41520, Note_on_c, 0, 52, 66
1, 41680, Tempo, 807646
1, 41680, Note_on_c, 0, 52, 0
1, 41680, Note_on_c, 0, 49, 51
1, 41680, Note_on_c, 0, 52, 60
1, 41760, Tempo, 891663
1, 41760, Note_on_c, 0, 52, 0
1, 41760, Note_on_c, 0, 49, 0
1, 41760, Note_on_c, 0, 61, 66
1, 41920, Tempo, 853606
1, 41920, Note_on_c, 0, 61, 0
1, 41920, Note_on_c, 0, 52, 50
1, 41920, Note_on_c, 0, 61, 59
1, 42000, Note_on_c, 0, 61, 0
1, 42000, Note_on_c, 0, 80, 0
1, 42000, Note_on_c, 0, 92, 0
1, 42000, Note_on_c, 0, 85, 0
1, 42000, Note_on_c, 0, 52, 0
1, 42000, Note_on_c, 0, 80, 68
1, 42000, Note_on_c, 0, 85, 68
1, 42000, Note_on_c, 0, 92, 80
1, 42000, Note_on_c, 0, 64, 66
1, 42160, Tempo, 813118
1, 42160, Note_on_c, 0, 64, 0
1, 42160, Note_on_c, 0, 56, 50
1, 42160, Note_on_c, 0, 61, 59
1, 42240, Tempo, 911993
1, 42240, Note_on_c, 0, 61, 0
1, 42240, Note_on_c, 0, 56, 0
1, 42240, Note_on_c, 0, 68, 71
1, 42360, Tempo, 948017
1, 42360, Note_on_c, 0, 92, 0
1, 42360, Note_on_c, 0, 80, 0
1, 42360, Note_on_c, 0, 85, 0
1, 42360, Note_on_c, 0, 80, 72
1, 42360, Note_on_c, 0, 85, 72
1, 42360, Note_on_c, 0, 92, 85
1, 42400, Note_on_c, 0, 68, 0
1, 42400, Note_on_c, 0, 52, 49
1, 42400, Note_on_c, 0, 61, 58
1, 42480, Note_on_c, 0, 61, 0
1, 42480, Note_on_c, 0, 80, 0
1, 42480, Note_on_c, 0, 92, 0
1, 42480, Note_on_c, 0, 85, 0
1, 42480, Note_on_c, 0, 52, 0
1, 42480, Note_on_c, 0, 80, 73
1, 42480, Note_on_c, 0, 85, 73
1, 42480, Note_on_c, 0, 92, 86
1, 42480, Note_on_c, 0, 64, 65
1, 42600, Tempo, 963236
1, 42640, Note_on_c, 0, 64, 0
1, 42640, Note_on_c, 0, 32, 50
1, 42640, Note_on_c, 0, 40, 59
1, 42720, Tempo, 891663
1, 42720, Note_on_c, 0, 40, 0
1, 42720, Note_on_c, 0, 32, 0
1, 42720, Note_on_c, 0, 44, 66
1, 42880, Tempo, 847577
1, 42880, Note_on_c, 0, 44, 0
1, 42880, Note_on_c, 0, 49, 61
1, 42880, Note_on_c, 0, 40, 51
1, 42960, Note_on_c, 0, 40, 0
1, 42960, Note_on_c, 0, 80, 0
1, 42960, Note_on_c, 0, 92, 0
1, 42960, Note_on_c, 0, 85, 0
1, 42960, Note_on_c, 0, 49, 0
1, 42960, Note_on_c, 0, 80, 79
1, 42960, Note_on_c, 0, 85, 79
1, 42960, Note_on_c, 0, 92, 93
1, 42960, Note_on_c, 0, 52, 67
1, 43120, Tempo, 807646
1, 43120, Note_on_c, 0, 52, 0
1, 43120, Note_on_c, 0, 49, 53
1, 43120, Note_on_c, 0, 52, 63
1, 43200, Tempo, 891663
1, 43200, Note_on_c, 0, 52, 0
1, 43200, Note_on_c, 0, 80, 0
1, 43200, Note_on_c, 0, 92, 0
1, 43200, Note_on_c, 0, 85, 0
1, 43200, Note_on_c, 0, 49, 0
1, 43200, Note_on_c, 0, 80, 80
1, 43200, Note_on_c, 0, 85, 80
1, 43200, Note_on_c, 0, 92, 95
1, 43200, Note_on_c, 0, 61, 69
1, 43360, Tempo, 853606
1, 43360, Note_on_c, 0, 61, 0
1, 43360, Note_on_c, 0, 80, 0
1, 43360, Note_on_c, 0, 85, 0
1, 43360, Note_on_c, 0, 92, 0
1, 43360, Note_on_c, 0, 80, 84
1, 43360, Note_on_c, 0, 85, 84
1, 43360, Note_on_c, 0, 92, 99
1, 43360, Note_on_c, 0, 52, 53
1, 43360, Note_on_c, 0, 61, 63
1, 43440, Note_on_c, 0, 61, 0
1, 43440, Note_on_c, 0, 52, 0
1, 43440, Note_on_c, 0, 64, 71
1, 43520, Note_on_c, 0, 80, 0
1, 43520, Note_on_c, 0, 92, 0
1, 43520, Note_on_c, 0, 85, 0
1, 43520, Note_on_c, 0, 80, 85
1, 43520, Note_on_c, 0, 85, 85
1, 43520, Note_on_c, 0, 92, 100
1, 43570, Tempo, 824289
1, 43600, Note_on_c, 0, 64, 0
1, 43600, Note_on_c, 0, 57, 55
1, 43600, Note_on_c, 0, 61, 65
1, 43618, Tempo, 818666
1, 43666, Tempo, 813118
1, 43679, Tempo, 797978
1, 43680, Note_on_c, 0, 61, 0
1, 43680, Note_on_c, 0, 80, 0
1, 43680, Note_on_c, 0, 92, 0
1, 43680, Note_on_c, 0, 85, 0
1, 43680, Note_on_c, 0, 57, 0
1, 43680, Note_on_c, 0, 80, 86
1, 43680, Note_on_c, 0, 85, 86
1, 43680, Note_on_c, 0, 92, 102
1, 43680, Note_on_c, 0, 69, 79
1, 43699, Tempo, 792707
1, 43719, Tempo, 787505
1, 43739, Tempo, 782371
1, 43759, Tempo, 777303
1, 43779, Tempo, 772300
1, 43799, Tempo, 762486
1, 43800, Note_on_c, 0, 92, 0
1, 43800, Note_on_c, 0, 80, 0
1, 43800, Note_on_c, 0, 85, 0
1, 43800, Note_on_c, 0, 80, 88
1, 43800, Note_on_c, 0, 85, 88
1, 43800, Note_on_c, 0, 92, 104
1, 43819, Tempo, 757671
1, 43840, Note_on_c, 0, 69, 0
1, 43840, Note_on_c, 0, 61, 68
1, 43840, Note_on_c, 0, 52, 57
1, 43859, Tempo, 752918
1, 43879, Tempo, 748223
1, 43899, Tempo, 743587
1, 43920, Note_on_c, 0, 52, 0
1, 43920, Note_on_c, 0, 80, 0
1, 43920, Note_on_c, 0, 92, 0
1, 43920, Note_on_c, 0, 85, 0
1, 43920, Note_on_c, 0, 61, 0
1, 43920, Note_on_c, 0, 80, 89
1, 43920, Note_on_c, 0, 85, 89
1, 43920, Note_on_c, 0, 92, 105
1, 43920, Note_on_c, 0, 64, 75
1, 43939, Tempo, 739007
1, 43959, Tempo, 734484
1, 43979, Tempo, 730016
1, 44040, Tempo, 905114
1, 44040, Note_on_c, 0, 92, 0
1, 44040, Note_on_c, 0, 80, 0
1, 44040, Note_on_c, 0, 85, 0
1, 44040, Note_on_c, 0, 92, 107
1, 44040, Note_on_c, 0, 85, 90
1, 44040, Note_on_c, 0, 80, 90
1, 44080, Note_on_c, 0, 64, 0
1, 44080, Note_on_c, 0, 33, 58
1, 44080, Note_on_c, 0, 40, 69
1, 44160, Time_signature, 4, 2, 24, 8
1, 44160, Tempo, 891663
1, 44160, Note_on_c, 0, 40, 0
1, 44160, Note_on_c, 0, 92, 0
1, 44160, Note_on_c, 0, 80, 0
1, 44160, Note_on_c, 0, 85, 0
1, 44160, Note_on_c, 0, 33, 0
1, 44160, Note_on_c, 0, 80, 90
1, 44160, Note_on_c, 0, 85, 90
1, 44160, Note_on_c, 0, 92, 107
1, 44160, Note_on_c, 0, 42, 66
1, 44160, Control_c, 0, 64, 0
1, 44197, Control_c, 0, 64, 127
1, 44280, Note_on_c, 0, 92, 0
1, 44280, Note_on_c, 0, 80, 0
1, 44280, Note_on_c, 0, 85, 0
1, 44280, Note_on_c, 0, 87, 99
1, 44280, Note_on_c, 0, 80, 84
1, 44280, Note_on_c, 0, 75, 84
1, 44320, Tempo, 847577
1, 44320, Note_on_c, 0, 42, 0
1, 44320, Note_on_c, 0, 42, 61
1, 44400, Note_on_c, 0, 42, 0
1, 44400, Note_on_c, 0, 75, 0
1, 44400, Note_on_c, 0, 80, 0
1, 44400, Note_on_c, 0, 87, 0
1, 44400, Note_on_c, 0, 87, 99
1, 44400, Note_on_c, 0, 80, 84
1, 44400, Note_on_c, 0, 75, 84
1, 44400, Note_on_c, 0, 58, 67
1, 44400, Note_on_c, 0, 52, 67
1, 44520, Note_on_c, 0, 75, 0
1, 44520, Note_on_c, 0, 87, 0
1, 44520, Note_on_c, 0, 80, 0
1, 44520, Note_on_c, 0, 73, 80
1, 44520, Note_on_c, 0, 80, 80
1, 44520, Note_on_c, 0, 85, 95
1, 44560, Tempo, 807646
1, 44560, Note_on_c, 0, 58, 0
1, 44560, Note_on_c, 0, 52, 0
1, 44560, Note_on_c, 0, 52, 63
1, 44640, Tempo, 891663
1, 44640, Note_on_c, 0, 52, 0
1, 44640, Note_on_c, 0, 85, 0
1, 44640, Note_on_c, 0, 73, 0
1, 44640, Note_on_c, 0, 80, 0
1, 44640, Note_on_c, 0, 73, 89
1, 44640, Note_on_c, 0, 80, 89
1, 44640, Note_on_c, 0, 85, 105
1, 44640, Note_on_c, 0, 58, 64
1, 44640, Note_on_c, 0, 64, 69
1, 44760, Note_on_c, 0, 85, 0
1, 44760, Note_on_c, 0, 73, 0
1, 44760, Note_on_c, 0, 80, 0
1, 44760, Note_on_c, 0, 68, 79
1, 44760, Note_on_c, 0, 75, 79
1, 44760, Note_on_c, 0, 80, 93
1, 44766, Control_c, 0, 64, 0
1, 44800, Tempo, 853606
1, 44800, Note_on_c, 0, 58, 0
1, 44800, Note_on_c, 0, 64, 0
1, 44800, Note_on_c, 0, 58, 63
1, 44809, Control_c, 0, 64, 127
1, 44880, Tempo, 807646
1, 44880, Note_on_c, 0, 58, 0
1, 44880, Note_on_c, 0, 80, 0
1, 44880, Note_on_c, 0, 68, 0
1, 44880, Note_on_c, 0, 75, 0
1, 44880, Note_on_c, 0, 68, 79
1, 44880, Note_on_c, 0, 75, 79
1, 44880, Note_on_c, 0, 80, 93
1, 44880, Note_on_c, 0, 64, 67
1, 44880, Note_on_c, 0, 70, 71
1, 45000, Note_on_c, 0, 80, 0
1, 45000, Note_on_c, 0, 68, 0
1, 45000, Note_on_c, 0, 75, 0
1, 45000, Note_on_c, 0, 63, 77
1, 45000, Note_on_c, 0, 68, 77
1, 45000, Note_on_c, 0, 75, 91
1, 45010, Tempo, 824289
1, 45040, Note_on_c, 0, 64, 0
1, 45040, Note_on_c, 0, 70, 0
1, 45040, Note_on_c, 0, 52, 65
1, 45048, Tempo, 791661
1, 45112, Tempo, 786473
1, 45120, Note_on_c, 0, 52, 0
1, 45120, Note_on_c, 0, 75, 0
1, 45120, Note_on_c, 0, 63, 0
1, 45120, Note_on_c, 0, 68, 0
1, 45120, Note_on_c, 0, 63, 77
1, 45120, Note_on_c, 0, 68, 77
1, 45120, Note_on_c, 0, 75, 91
1, 45120, Note_on_c, 0, 58, 74
1, 45120, Note_on_c, 0, 64, 79
1, 45160, Tempo, 781352
1, 45224, Tempo, 776297
1, 45240, Tempo, 766381
1, 45240, Note_on_c, 0, 75, 0
1, 45240, Note_on_c, 0, 63, 0
1, 45240, Note_on_c, 0, 68, 0
1, 45240, Note_on_c, 0, 73, 87
1, 45240, Note_on_c, 0, 68, 73
1, 45240, Note_on_c, 0, 61, 73
1, 45243, Control_c, 0, 64, 0
1, 45280, Note_on_c, 0, 58, 0
1, 45280, Note_on_c, 0, 64, 0
1, 45280, Note_on_c, 0, 42, 68
1, 45283, Control_c, 0, 64, 127
1, 45360, Note_on_c, 0, 42, 0
1, 45360, Note_on_c, 0, 61, 0
1, 45360, Note_on_c, 0, 73, 0
1, 45360, Note_on_c, 0, 68, 0
1, 45360, Note_on_c, 0, 73, 87
1, 45360, Note_on_c, 0, 68, 73
1, 45360, Note_on_c, 0, 61, 73
1, 45360, Note_on_c, 0, 52, 75
1, 45360, Note_on_c, 0, 58, 75
1, 45448, Tempo, 761518
1, 45480, Note_on_c, 0, 61, 0
1, 45480, Note_on_c, 0, 73, 0
1, 45480, Note_on_c, 0, 68, 0
1, 45480, Note_on_c, 0, 68, 81
1, 45480, Note_on_c, 0, 61, 68
1, 45480, Note_on_c, 0, 56, 68
1, 45600, Note_on_c, 0, 56, 0
1, 45600, Note_on_c, 0, 68, 0
1, 45600, Note_on_c, 0, 61, 0
1, 45600, Note_on_c, 0, 68, 81
1, 45600, Note_on_c, 0, 61, 68
1, 45600, Note_on_c, 0, 56, 68
1, 45656, Tempo, 756716
1, 45720, Note_on_c, 0, 56, 0
1, 45720, Note_on_c, 0, 68, 0
1, 45720, Note_on_c, 0, 61, 0
1, 45720, Note_on_c, 0, 51, 66
1, 45720, Note_on_c, 0, 56, 66
1, 45720, Note_on_c, 0, 63, 78
1, 45729, Control_c, 0, 64, 0
1, 45752, Control_c, 0, 64, 127
1, 45840, Note_on_c, 0, 63, 0
1, 45840, Note_on_c, 0, 51, 0
1, 45840, Note_on_c, 0, 58, 0
1, 45840, Note_on_c, 0, 52, 0
1, 45840, Note_on_c, 0, 56, 0
1, 45840, Note_on_c, 0, 51, 66
1, 45840, Note_on_c, 0, 56, 66
1, 45840, Note_on_c, 0, 63, 78
1, 45840, Note_on_c, 0, 42, 69
1, 45864, Tempo, 751974
1, 45896, Tempo, 747291
1, 45912, Tempo, 756716
1, 45920, Note_on_c, 0, 42, 0
1, 45920, Note_on_c, 0, 52, 79
1, 45928, Tempo, 771307
1, 45944, Tempo, 781352
1, 45960, Tempo, 796919
1, 45960, Tempo, 1065909
1, 45960, Note_on_c, 0, 51, 0
1, 45960, Note_on_c, 0, 63, 0
1, 45960, Note_on_c, 0, 56, 0
1, 45960, Note_on_c, 0, 61, 75
1, 45960, Note_on_c, 0, 56, 63
1, 45960, Note_on_c, 0, 49, 63
1, 45974, Control_c, 0, 64, 0
1, 46020, Note_on_c, 0, 49, 0
1, 46020, Note_on_c, 0, 56, 0
1, 46020, Note_on_c, 0, 61, 0
1, 46020, Note_on_c, 0, 60, 78
1, 46020, Note_on_c, 0, 48, 66
1, 46080, Time_signature, 3, 2, 24, 8
1, 46080, Tempo, 829990
1, 46080, Note_on_c, 0, 48, 0
1, 46080, Note_on_c, 0, 60, 0
1, 46080, Note_on_c, 0, 52, 0
1, 46080, Note_on_c, 0, 59, 89
1, 46080, Note_on_c, 0, 56, 75
1, 46080, Note_on_c, 0, 47, 75
1, 46080, Note_on_c, 0, 28, 65
1, 46080, Note_on_c, 0, 40, 69
1, 46155, Control_c, 0, 64, 127
1, 46160, Note_on_c, 0, 47, 72
1, 46240, Tempo, 847577
1, 46240, Note_on_c, 0, 47, 0
1, 46240, Note_on_c, 0, 56, 75
1, 46320, Note_on_c, 0, 56, 0
1, 46320, Note_on_c, 0, 59, 78
1, 46400, Note_on_c, 0, 59, 0
1, 46400, Note_on_c, 0, 56, 69
1, 46480, Tempo, 807646
1, 46480, Note_on_c, 0, 56, 0
1, 46480, Note_on_c, 0, 93, 81
1, 46480, Note_on_c, 0, 84, 68
1, 46480, Note_on_c, 0, 81, 68
1, 46480, Note_on_c, 0, 64, 69
1, 46560, Tempo, 891663
1, 46560, Note_on_c, 0, 64, 0
1, 46560, Note_on_c, 0, 81, 0
1, 46560, Note_on_c, 0, 84, 0
1, 46560, Note_on_c, 0, 93, 0
1, 46560, Note_on_c, 0, 92, 90
1, 46560, Note_on_c, 0, 88, 76
1, 46560, Note_on_c, 0, 80, 76
1, 46575, Control_c, 0, 64, 0
1, 46603, Control_c, 0, 64, 127
1, 46640, Note_on_c, 0, 76, 69
1, 46720, Tempo, 853606
1, 46720, Note_on_c, 0, 76, 0
1, 46720, Note_on_c, 0, 68, 69
1, 46800, Note_on_c, 0, 68, 0
1, 46800, Note_on_c, 0, 71, 78
1, 46880, Note_on_c, 0, 71, 0
1, 46880, Note_on_c, 0, 64, 69
1, 46960, Tempo, 813118
1, 46960, Note_on_c, 0, 64, 0
1, 46960, Note_on_c, 0, 80, 0
1, 46960, Note_on_c, 0, 88, 0
1, 46960, Note_on_c, 0, 92, 0
1, 46960, Note_on_c, 0, 72, 81
1, 46960, Note_on_c, 0, 69, 68
1, 46960, Note_on_c, 0, 81, 81
1, 46960, Note_on_c, 0, 59, 66
1, 47040, Tempo, 865926
1, 47040, Note_on_c, 0, 59, 0
1, 47040, Note_on_c, 0, 81, 0
1, 47040, Note_on_c, 0, 69, 0
1, 47040, Note_on_c, 0, 72, 0
1, 47040, Note_on_c, 0, 68, 76
1, 47040, Note_on_c, 0, 76, 76
1, 47040, Note_on_c, 0, 80, 90
1, 47052, Control_c, 0, 64, 0
1, 47092, Control_c, 0, 64, 127
1, 47120, Note_on_c, 0, 52, 69
1, 47160, Tempo, 948017
1, 47200, Tempo, 891663
1, 47200, Note_on_c, 0, 52, 0
1, 47200, Note_on_c, 0, 47, 69
1, 47280, Note_on_c, 0, 47, 0
1, 47280, Note_on_c, 0, 40, 77
1, 47360, Note_on_c, 0, 40, 0
1, 47360, Note_on_c, 0, 80, 0
1, 47360, Note_on_c, 0, 76, 0
1, 47360, Note_on_c, 0, 68, 0
1, 47360, Note_on_c, 0, 46, 58
1, 47360, Note_on_c, 0, 58, 69
1, 47360, Note_on_c, 0, 40, 69
1, 47440, Note_on_c, 0, 40, 0
1, 47440, Note_on_c, 0, 58, 0
1, 47440, Note_on_c, 0, 46, 0
1, 47440, Note_on_c, 0, 57, 81
1, 47440, Note_on_c, 0, 45, 68
1, 47440, Note_on_c, 0, 28, 69
1, 47520, Tempo, 829990
1, 47520, Note_on_c, 0, 28, 0
1, 47520, Note_on_c, 0, 28, 0
1, 47520, Note_on_c, 0, 56, 0
1, 47520, Note_on_c, 0, 40, 0
1, 47520, Note_on_c, 0, 47, 0
1, 47520, Note_on_c, 0, 59, 0
1, 47520, Note_on_c, 0, 57, 0
1, 47520, Note_on_c, 0, 45, 0
1, 47520, Note_on_c, 0, 44, 70
1, 47520, Note_on_c, 0, 56, 84
1, 47520, Note_on_c, 0, 54, 70
1, 47520, Note_on_c, 0, 48, 70
1, 47520, Note_on_c, 0, 27, 65
1, 47520, Note_on_c, 0, 39, 69
1, 47520, Control_c, 0, 64, 0
1, 47595, Control_c, 0, 64, 127
1, 47600, Note_on_c, 0, 44, 72
1, 47680, Tempo, 847577
1, 47680, Note_on_c, 0, 44, 0
1, 47680, Note_on_c, 0, 54, 75
1, 47760, Note_on_c, 0, 54, 0
1, 47760, Note_on_c, 0, 60, 78
1, 47840, Note_on_c, 0, 60, 0
1, 47840, Note_on_c, 0, 56, 69
1, 47920, Tempo, 807646
1, 47920, Note_on_c, 0, 56, 0
1, 47920, Note_on_c, 0, 81, 81
1, 47920, Note_on_c, 0, 78, 68
1, 47920, Note_on_c, 0, 69, 68
1, 47920, Note_on_c, 0, 66, 69
1, 48000, Tempo, 891663
1, 48000, Note_on_c, 0, 66, 0
1, 48000, Note_on_c, 0, 69, 0
1, 48000, Note_on_c, 0, 81, 0
1, 48000, Note_on_c, 0, 78, 0
1, 48000, Note_on_c, 0, 80, 90
1, 48000, Note_on_c, 0, 72, 76
1, 48000, Note_on_c, 0, 68, 76
1, 48015, Control_c, 0, 64, 0
1, 48043, Control_c, 0, 64, 127
1, 48080, Note_on_c, 0, 78, 69
1, 48160, Tempo, 853606
1, 48160, Note_on_c, 0, 78, 0
1, 48160, Note_on_c, 0, 68, 69
1, 48240, Note_on_c, 0, 68, 0
1, 48240, Note_on_c, 0, 72, 78
1, 48320, Note_on_c, 0, 72, 0
1, 48320, Note_on_c, 0, 66, 69
1, 48400, Tempo, 813118
1, 48400, Note_on_c, 0, 66, 0
1, 48400, Note_on_c, 0, 68, 0
1, 48400, Note_on_c, 0, 80, 0
1, 48400, Note_on_c, 0, 72, 0
1, 48400, Note_on_c, 0, 90, 81
1, 48400, Note_on_c, 0, 81, 68
1, 48400, Note_on_c, 0, 93, 81
1, 48400, Note_on_c, 0, 56, 66
1, 48480, Tempo, 911993
1, 48480, Note_on_c, 0, 56, 0
1, 48480, Note_on_c, 0, 93, 0
1, 48480, Note_on_c, 0, 90, 0
1, 48480, Note_on_c, 0, 81, 0
1, 48480, Note_on_c, 0, 80, 76
1, 48480, Note_on_c, 0, 84, 76
1, 48480, Note_on_c, 0, 92, 90
1, 48492, Control_c, 0, 64, 0
1, 48532, Control_c, 0, 64, 127
1, 48560, Note_on_c, 0, 54, 69
1, 48600, Tempo, 948017
1, 48640, Tempo, 911993
1, 48640, Note_on_c, 0, 54, 0
1, 48640, Note_on_c, 0, 44, 69
1, 48720, Note_on_c, 0, 44, 0
1, 48720, Note_on_c, 0, 44, 77
1, 48800, Note_on_c, 0, 44, 0
1, 48800, Note_on_c, 0, 80, 0
1, 48800, Note_on_c, 0, 84, 0
1, 48800, Note_on_c, 0, 92, 0
1, 48800, Note_on_c, 0, 42, 58
1, 48800, Note_on_c, 0, 54, 69
1, 48800, Note_on_c, 0, 32, 69
1, 48880, Tempo, 978953
1, 48880, Note_on_c, 0, 32, 0
1, 48880, Note_on_c, 0, 54, 0
1, 48880, Note_on_c, 0, 42, 0
1, 48880, Note_on_c, 0, 53, 81
1, 48880, Note_on_c, 0, 41, 68
1, 48960, Tempo, 878606
1, 48960, Note_on_c, 0, 41, 0
1, 48960, Note_on_c, 0, 44, 0
1, 48960, Note_on_c, 0, 39, 0
1, 48960, Note_on_c, 0, 56, 0
1, 48960, Note_on_c, 0, 48, 0
1, 48960, Note_on_c, 0, 54, 0
1, 48960, Note_on_c, 0, 27, 0
1, 48960, Note_on_c, 0, 53, 0
1, 48960, Note_on_c, 0, 40, 69
1, 48960, Note_on_c, 0, 52, 73
1, 48960, Note_on_c, 0, 25, 69
1, 48960, Note_on_c, 0, 37, 69
1, 48974, Control_c, 0, 64, 0
1, 49000, Control_c, 0, 64, 127
1, 49200, Note_on_c, 0, 37, 0
1, 49200, Note_on_c, 0, 25, 0
1, 49200, Note_on_c, 0, 37, 64
1, 49280, Note_on_c, 0, 37, 0
1, 49280, Note_on_c, 0, 44, 64
1, 49360, Note_on_c, 0, 44, 0
1, 49360, Note_on_c, 0, 49, 64
1, 49440, Tempo, 898338
1, 49440, Note_on_c, 0, 49, 0
1, 49440, Note_on_c, 0, 52, 0
1, 49440, Note_on_c, 0, 40, 0
1, 49440, Note_on_c, 0, 64, 73
1, 49440, Note_on_c, 0, 56, 71
1, 49520, Note_on_c, 0, 56, 0
1, 49520, Note_on_c, 0, 49, 63
1, 49600, Note_on_c, 0, 49, 0
1, 49600, Note_on_c, 0, 44, 63
1, 49680, Note_on_c, 0, 44, 0
1, 49680, Note_on_c, 0, 37, 62
1, 49760, Note_on_c, 0, 37, 0
1, 49760, Note_on_c, 0, 25, 62
1, 49840, Note_on_c, 0, 25, 0
1, 49840, Note_on_c, 0, 44, 62
1, 49920, Note_on_c, 0, 44, 0
1, 49920, Note_on_c, 0, 56, 69
1, 50000, Note_on_c, 0, 56, 0
1, 50000, Note_on_c, 0, 49, 62
1, 50080, Note_on_c, 0, 49, 0
1, 50080, Note_on_c, 0, 44, 62
1, 50160, Note_on_c, 0, 44, 0
1, 50160, Note_on_c, 0, 37, 69
1, 50240, Tempo, 918977
1, 50240, Note_on_c, 0, 37, 0
1, 50240, Note_on_c, 0, 25, 62
1, 50320, Note_on_c, 0, 25, 0
1, 50320, Note_on_c, 0, 64, 0
1, 50320, Note_on_c, 0, 63, 68
1, 50320, Note_on_c, 0, 43, 63
1, 50326, Control_c, 0, 64, 0
1, 50346, Note_on_c, 0, 63, 0
1, 50346, Note_on_c, 0, 61, 70
1, 50372, Note_on_c, 0, 61, 0
1, 50372, Note_on_c, 0, 59, 72
1, 50400, Tempo, 878606
1, 50400, Note_on_c, 0, 59, 0
1, 50400, Note_on_c, 0, 43, 0
1, 50400, Note_on_c, 0, 58, 78
1, 50400, Note_on_c, 0, 55, 69
1, 50437, Control_c, 0, 64, 127
1, 50480, Note_on_c, 0, 55, 0
1, 50480, Note_on_c, 0, 49, 61
1, 50560, Tempo, 829990
1, 50560, Note_on_c, 0, 49, 0
1, 50560, Note_on_c, 0, 47, 73
1, 50560, Note_on_c, 0, 43, 61
1, 50632, Control_c, 0, 64, 0
1, 50640, Tempo, 872220
1, 50640, Note_on_c, 0, 43, 0
1, 50640, Note_on_c, 0, 47, 0
1, 50640, Note_on_c, 0, 46, 87
1, 50640, Note_on_c, 0, 37, 68
1, 50666, Control_c, 0, 64, 127
1, 50720, Note_on_c, 0, 37, 0
1, 50720, Note_on_c, 0, 25, 62
1, 50800, Note_on_c, 0, 25, 0
1, 50800, Note_on_c, 0, 43, 59
1, 50880, Note_on_c, 0, 43, 0
1, 50880, Note_on_c, 0, 55, 69
1, 50960, Note_on_c, 0, 55, 0
1, 50960, Note_on_c, 0, 49, 62
1, 51040, Note_on_c, 0, 49, 0
1, 51040, Note_on_c, 0, 43, 62
1, 51120, Note_on_c, 0, 43, 0
1, 51120, Note_on_c, 0, 46, 0
1, 51120, Note_on_c, 0, 34, 88
1, 51120, Note_on_c, 0, 37, 69
1, 51200, Note_on_c, 0, 37, 0
1, 51200, Note_on_c, 0, 25, 64
1, 51280, Note_on_c, 0, 25, 0
1, 51280, Note_on_c, 0, 43, 65
1, 51360, Note_on_c, 0, 43, 0
1, 51360, Note_on_c, 0, 55, 69
1, 51440, Note_on_c, 0, 55, 0
1, 51440, Note_on_c, 0, 49, 63
1, 51520, Tempo, 829990
1, 51520, Note_on_c, 0, 49, 0
1, 51520, Note_on_c, 0, 34, 0
1, 51520, Note_on_c, 0, 47, 73
1, 51520, Note_on_c, 0, 43, 63
1, 51600, Tempo, 872220
1, 51600, Note_on_c, 0, 43, 0
1, 51600, Note_on_c, 0, 47, 0
1, 51600, Note_on_c, 0, 46, 83
1, 51600, Note_on_c, 0, 37, 69
1, 51603, Control_c, 0, 64, 0
1, 51646, Control_c, 0, 64, 127
1, 51680, Note_on_c, 0, 37, 0
1, 51680, Note_on_c, 0, 25, 61
1, 51760, Note_on_c, 0, 25, 0
1, 51760, Note_on_c, 0, 54, 62
1, 51760, Note_on_c, 0, 42, 61
1, 51800, Note_on_c, 0, 54, 0
1, 51800, Note_on_c, 0, 57, 70
1, 51840, Note_on_c, 0, 57, 0
1, 51840, Note_on_c, 0, 42, 0
1, 51840, Note_on_c, 0, 46, 0
1, 51840, Note_on_c, 0, 58, 0
1, 51840, Note_on_c, 0, 69, 81
1, 51840, Note_on_c, 0, 54, 69
1, 51843, Control_c, 0, 64, 0
1, 51903, Control_c, 0, 64, 127
1, 51920, Note_on_c, 0, 54, 0
1, 51920, Note_on_c, 0, 45, 62
1, 52000, Note_on_c, 0, 45, 0
1, 52000, Note_on_c, 0, 42, 62
1, 52080, Note_on_c, 0, 42, 0
1, 52080, Note_on_c, 0, 37, 64
1, 52160, Note_on_c, 0, 37, 0
1, 52160, Note_on_c, 0, 25, 59
1, 52240, Note_on_c, 0, 25, 0
1, 52240, Note_on_c, 0, 42, 59
1, 52320, Note_on_c, 0, 42, 0
1, 52320, Note_on_c, 0, 54, 69
1, 52400, Note_on_c, 0, 54, 0
1, 52400, Note_on_c, 0, 45, 62
1, 52480, Note_on_c, 0, 45, 0
1, 52480, Note_on_c, 0, 42, 58
1, 52560, Note_on_c, 0, 42, 0
1, 52560, Note_on_c, 0, 37, 68
1, 52640, Note_on_c, 0, 37, 0
1, 52640, Note_on_c, 0, 25, 59
1, 52720, Note_on_c, 0, 25, 0
1, 52720, Note_on_c, 0, 42, 59
1, 52800, Note_on_c, 0, 42, 0
1, 52800, Note_on_c, 0, 54, 69
1, 52880, Note_on_c, 0, 54, 0
1, 52880, Note_on_c, 0, 45, 59
1, 52960, Note_on_c, 0, 45, 0
1, 52960, Note_on_c, 0, 42, 59
1, 53040, Note_on_c, 0, 42, 0
1, 53040, Note_on_c, 0, 37, 65
1, 53120, Tempo, 933271
1, 53120, Note_on_c, 0, 37, 0
1, 53120, Note_on_c, 0, 25, 59
1, 53165, Control_c, 0, 64, 0
1, 53200, Note_on_c, 0, 25, 0
1, 53200, Note_on_c, 0, 69, 0
1, 53200, Note_on_c, 0, 68, 68
1, 53200, Note_on_c, 0, 43, 59
1, 53226, Note_on_c, 0, 68, 0
1, 53226, Note_on_c, 0, 66, 70
1, 53252, Note_on_c, 0, 66, 0
1, 53252, Note_on_c, 0, 64, 72
1, 53280, Tempo, 872220
1, 53280, Note_on_c, 0, 64, 0
1, 53280, Note_on_c, 0, 43, 0
1, 53280, Note_on_c, 0, 63, 78
1, 53280, Note_on_c, 0, 55, 69
1, 53297, Control_c, 0, 64, 127
1, 53360, Note_on_c, 0, 55, 0
1, 53360, Note_on_c, 0, 45, 58
1, 53440, Tempo, 818666
1, 53440, Note_on_c, 0, 45, 0
1, 53440, Note_on_c, 0, 52, 73
1, 53440, Note_on_c, 0, 43, 58
1, 53520, Tempo, 865926
1, 53520, Note_on_c, 0, 43, 0
1, 53520, Note_on_c, 0, 52, 0
1, 53520, Note_on_c, 0, 51, 87
1, 53520, Note_on_c, 0, 37, 65
1, 53523, Control_c, 0, 64, 0
1, 53560, Control_c, 0, 64, 127
1, 53600, Note_on_c, 0, 37, 0
1, 53600, Note_on_c, 0, 25, 56
1, 53680, Note_on_c, 0, 25, 0
1, 53680, Note_on_c, 0, 43, 56
1, 53760, Note_on_c, 0, 43, 0
1, 53760, Note_on_c, 0, 55, 70
1, 53840, Note_on_c, 0, 55, 0
1, 53840, Note_on_c, 0, 45, 58
1, 53920, Tempo, 818666
1, 53920, Note_on_c, 0, 45, 0
1, 53920, Note_on_c, 0, 51, 0
1, 53920, Note_on_c, 0, 40, 73
1, 53920, Note_on_c, 0, 43, 55
1, 54000, Tempo, 865926
1, 54000, Note_on_c, 0, 43, 0
1, 54000, Note_on_c, 0, 40, 0
1, 54000, Note_on_c, 0, 39, 88
1, 54000, Note_on_c, 0, 37, 62
1, 54009, Control_c, 0, 64, 0
1, 54043, Control_c, 0, 64, 127
1, 54080, Note_on_c, 0, 37, 0
1, 54080, Note_on_c, 0, 25, 53
1, 54160, Note_on_c, 0, 25, 0
1, 54160, Note_on_c, 0, 43, 53
1, 54240, Note_on_c, 0, 43, 0
1, 54240, Note_on_c, 0, 55, 69
1, 54320, Note_on_c, 0, 55, 0
1, 54320, Note_on_c, 0, 45, 57
1, 54400, Tempo, 813118
1, 54400, Note_on_c, 0, 45, 0
1, 54400, Note_on_c, 0, 39, 0
1, 54400, Note_on_c, 0, 52, 73
1, 54400, Note_on_c, 0, 43, 57
1, 54480, Tempo, 859722
1, 54480, Note_on_c, 0, 43, 0
1, 54480, Note_on_c, 0, 52, 0
1, 54480, Note_on_c, 0, 51, 83
1, 54480, Note_on_c, 0, 37, 63
1, 54486, Control_c, 0, 64, 0
1, 54512, Control_c, 0, 64, 127
1, 54560, Note_on_c, 0, 37, 0
1, 54560, Note_on_c, 0, 25, 55
1, 54630, Note_on_c, 0, 56, 73
1, 54640, Note_on_c, 0, 25, 0
1, 54640, Note_on_c, 0, 44, 55
1, 54660, Note_on_c, 0, 56, 0
1, 54660, Note_on_c, 0, 61, 76
1, 54690, Note_on_c, 0, 61, 0
1, 54690, Note_on_c, 0, 64, 77
1, 54720, Tempo, 859722
1, 54720, Note_on_c, 0, 64, 0
1, 54720, Note_on_c, 0, 63, 0
1, 54720, Note_on_c, 0, 51, 0
1, 54720, Note_on_c, 0, 44, 0
1, 54720, Note_on_c, 0, 76, 82
1, 54720, Note_on_c, 0, 56, 69
1, 54733, Control_c, 0, 64, 0
1, 54775, Control_c, 0, 64, 127
1, 54800, Note_on_c, 0, 56, 0
1, 54800, Note_on_c, 0, 49, 58
1, 54880, Note_on_c, 0, 49, 0
1, 54880, Note_on_c, 0, 44, 58
1, 54902, Tempo, 848776
1, 54960, Note_on_c, 0, 44, 0
1, 54960, Note_on_c, 0, 37, 65
1, 55022, Tempo, 842815
1, 55040, Note_on_c, 0, 37, 0
1, 55040, Note_on_c, 0, 25, 56
1, 55120, Note_on_c, 0, 25, 0
1, 55120, Note_on_c, 0, 44, 56
1, 55142, Tempo, 836937
1, 55200, Note_on_c, 0, 44, 0
1, 55200, Note_on_c, 0, 56, 69
1, 55262, Tempo, 831140
1, 55280, Note_on_c, 0, 56, 0
1, 55280, Note_on_c, 0, 49, 58
1, 55360, Note_on_c, 0, 49, 0
1, 55360, Note_on_c, 0, 44, 58
1, 55440, Note_on_c, 0, 44, 0
1, 55440, Note_on_c, 0, 37, 63
1, 55520, Note_on_c, 0, 37, 0
1, 55520, Note_on_c, 0, 25, 57
1, 55600, Note_on_c, 0, 25, 0
1, 55600, Note_on_c, 0, 44, 57
1, 55622, Tempo, 836937
1, 55680, Note_on_c, 0, 44, 0
1, 55680, Note_on_c, 0, 56, 69
1, 55760, Note_on_c, 0, 56, 0
1, 55760, Note_on_c, 0, 49, 59
1, 55840, Note_on_c, 0, 49, 0
1, 55840, Note_on_c, 0, 44, 59
1, 55920, Tempo, 859722
1, 55920, Note_on_c, 0, 44, 0
1, 55920, Note_on_c, 0, 37, 64
1, 56000, Note_on_c, 0, 37, 0
1, 56000, Note_on_c, 0, 25, 59
1, 56080, Tempo, 1047303
1, 56080, Note_on_c, 0, 25, 0
1, 56080, Note_on_c, 0, 76, 0
1, 56080, Note_on_c, 0, 75, 61
1, 56080, Note_on_c, 0, 46, 59
1, 56086, Control_c, 0, 64, 0
1, 56096, Note_on_c, 0, 75, 0
1, 56096, Note_on_c, 0, 73, 63
1, 56112, Note_on_c, 0, 73, 0
1, 56113, Note_on_c, 0, 71, 64
1, 56129, Note_on_c, 0, 71, 0
1, 56129, Note_on_c, 0, 70, 67
1, 56145, Note_on_c, 0, 70, 0
1, 56145, Note_on_c, 0, 68, 71
1, 56160, Tempo, 853606
1, 56160, Note_on_c, 0, 68, 0
1, 56160, Note_on_c, 0, 46, 0
1, 56160, Note_on_c, 0, 67, 78
1, 56160, Note_on_c, 0, 58, 69
1, 56160, Control_c, 0, 64, 127
1, 56240, Note_on_c, 0, 58, 0
1, 56240, Note_on_c, 0, 49, 59
1, 56320, Tempo, 791661
1, 56320, Note_on_c, 0, 49, 0
1, 56320, Note_on_c, 0, 56, 73
1, 56320, Note_on_c, 0, 46, 59
1, 56400, Tempo, 859722
1, 56400, Note_on_c, 0, 46, 0
1, 56400, Note_on_c, 0, 56, 0
1, 56400, Note_on_c, 0, 55, 87
1, 56400, Note_on_c, 0, 37, 64
1, 56403, Control_c, 0, 64, 0
1, 56437, Control_c, 0, 64, 127
1, 56480, Note_on_c, 0, 37, 0
1, 56480, Note_on_c, 0, 25, 58
1, 56560, Note_on_c, 0, 25, 0
1, 56560, Note_on_c, 0, 46, 58
1, 56640, Note_on_c, 0, 46, 0
1, 56640, Note_on_c, 0, 58, 69
1, 56720, Note_on_c, 0, 58, 0
1, 56720, Note_on_c, 0, 49, 58
1, 56800, Tempo, 796919
1, 56800, Note_on_c, 0, 49, 0
1, 56800, Note_on_c, 0, 55, 0
1, 56800, Note_on_c, 0, 44, 73
1, 56800, Note_on_c, 0, 46, 58
1, 56880, Tempo, 853606
1, 56880, Note_on_c, 0, 46, 0
1, 56880, Note_on_c, 0, 44, 0
1, 56880, Note_on_c, 0, 43, 88
1, 56880, Note_on_c, 0, 37, 63
1, 56883, Control_c, 0, 64, 0
1, 56929, Control_c, 0, 64, 127
1, 56960, Note_on_c, 0, 37, 0
1, 56960, Note_on_c, 0, 25, 57
1, 57040, Note_on_c, 0, 25, 0
1, 57040, Note_on_c, 0, 46, 57
1, 57120, Note_on_c, 0, 46, 0
1, 57120, Note_on_c, 0, 58, 69
1, 57200, Note_on_c, 0, 58, 0
1, 57200, Note_on_c, 0, 49, 58
1, 57280, Tempo, 791661
1, 57280, Note_on_c, 0, 49, 0
1, 57280, Note_on_c, 0, 43, 0
1, 57280, Note_on_c, 0, 56, 73
1, 57280, Note_on_c, 0, 46, 58
1, 57360, Tempo, 853606
1, 57360, Note_on_c, 0, 46, 0
1, 57360, Note_on_c, 0, 56, 0
1, 57360, Note_on_c, 0, 55, 83
1, 57360, Note_on_c, 0, 37, 63
1, 57366, Control_c, 0, 64, 0
1, 57412, Control_c, 0, 64, 127
1, 57440, Note_on_c, 0, 37, 0
1, 57440, Note_on_c, 0, 25, 58
1, 57510, Note_on_c, 0, 59, 73
1, 57520, Note_on_c, 0, 25, 0
1, 57520, Note_on_c, 0, 47, 58
1, 57540, Note_on_c, 0, 59, 0
1, 57540, Note_on_c, 0, 64, 76
1, 57570, Note_on_c, 0, 64, 0
1, 57570, Note_on_c, 0, 67, 77
1, 57600, Time_signature, 4, 2, 24, 8
1, 57600, Tempo, 847577
1, 57600, Note_on_c, 0, 67, 0
1, 57600, Note_on_c, 0, 67, 0
1, 57600, Note_on_c, 0, 55, 0
1, 57600, Note_on_c, 0, 47, 0
1, 57600, Note_on_c, 0, 79, 91
1, 57600, Note_on_c, 0, 59, 69
1, 57611, Control_c, 0, 64, 0
1, 57643, Control_c, 0, 64, 127
1, 57658, Tempo, 835771
1, 57680, Note_on_c, 0, 59, 0
1, 57680, Note_on_c, 0, 52, 62
1, 57760, Note_on_c, 0, 52, 0
1, 57760, Note_on_c, 0, 47, 62
1, 57818, Tempo, 829990
1, 57840, Note_on_c, 0, 47, 0
1, 57840, Note_on_c, 0, 47, 71
1, 57920, Note_on_c, 0, 47, 0
1, 57920, Note_on_c, 0, 37, 63
1, 57962, Tempo, 824289
1, 58000, Note_on_c, 0, 37, 0
1, 58000, Note_on_c, 0, 47, 64
1, 58080, Note_on_c, 0, 47, 0
1, 58080, Note_on_c, 0, 59, 78
1, 58106, Tempo, 818666
1, 58160, Note_on_c, 0, 59, 0
1, 58160, Note_on_c, 0, 52, 67
1, 58240, Note_on_c, 0, 52, 0
1, 58240, Note_on_c, 0, 47, 67
1, 58266, Tempo, 813118
1, 58320, Note_on_c, 0, 47, 0
1, 58320, Note_on_c, 0, 47, 74
1, 58400, Note_on_c, 0, 47, 0
1, 58400, Note_on_c, 0, 37, 69
1, 58410, Tempo, 807646
1, 58480, Note_on_c, 0, 37, 0
1, 58480, Note_on_c, 0, 48, 69
1, 58554, Tempo, 802246
1, 58560, Note_on_c, 0, 48, 0
1, 58560, Note_on_c, 0, 79, 0
1, 58560, Note_on_c, 0, 78, 90
1, 58560, Note_on_c, 0, 60, 81
1, 58569, Control_c, 0, 64, 0
1, 58600, Control_c, 0, 64, 127
1, 58640, Note_on_c, 0, 60, 0
1, 58640, Note_on_c, 0, 51, 72
1, 58720, Note_on_c, 0, 51, 0
1, 58720, Note_on_c, 0, 48, 73
1, 58800, Note_on_c, 0, 48, 0
1, 58800, Note_on_c, 0, 48, 83
1, 58880, Note_on_c, 0, 48, 0
1, 58880, Note_on_c, 0, 37, 74
1, 58960, Note_on_c, 0, 37, 0
1, 58960, Note_on_c, 0, 48, 74
1, 58986, Tempo, 796919
1, 59040, Note_on_c, 0, 48, 0
1, 59040, Note_on_c, 0, 60, 84
1, 59050, Tempo, 802246
1, 59114, Tempo, 807646
1, 59120, Note_on_c, 0, 60, 0
1, 59120, Note_on_c, 0, 51, 74
1, 59162, Tempo, 813118
1, 59200, Note_on_c, 0, 51, 0
1, 59200, Note_on_c, 0, 48, 75
1, 59226, Tempo, 818666
1, 59274, Tempo, 824289
1, 59280, Note_on_c, 0, 48, 0
1, 59280, Note_on_c, 0, 48, 80
1, 59338, Tempo, 829990
1, 59360, Note_on_c, 0, 48, 0
1, 59360, Note_on_c, 0, 37, 73
1, 59386, Tempo, 835771
1, 59440, Note_on_c, 0, 37, 0
1, 59440, Note_on_c, 0, 47, 73
1, 59450, Tempo, 841633
1, 59498, Tempo, 847577
1, 59520, Tempo, 911993
1, 59520, Note_on_c, 0, 47, 0
1, 59520, Note_on_c, 0, 78, 0
1, 59520, Note_on_c, 0, 77, 104
1, 59520, Note_on_c, 0, 61, 82
1, 59536, Control_c, 0, 64, 0
1, 59553, Control_c, 0, 64, 127
1, 59600, Note_on_c, 0, 61, 0
1, 59600, Note_on_c, 0, 53, 68
1, 59640, Tempo, 1097093
1, 59680, Note_on_c, 0, 53, 0
1, 59680, Note_on_c, 0, 47, 68
1, 59760, Tempo, 899685
1, 59760, Note_on_c, 0, 47, 0
1, 59760, Note_on_c, 0, 69, 96
1, 59760, Note_on_c, 0, 57, 96
1, 59760, Note_on_c, 0, 37, 76
1, 59840, Note_on_c, 0, 37, 0
1, 59840, Note_on_c, 0, 25, 68
1, 59880, Tempo, 878606
1, 59920, Note_on_c, 0, 25, 0
1, 59920, Note_on_c, 0, 47, 68
1, 59940, Note_on_c, 0, 77, 0
1, 59940, Note_on_c, 0, 78, 92
1, 60000, Tempo, 948017
1, 60000, Note_on_c, 0, 78, 0
1, 60000, Note_on_c, 0, 47, 0
1, 60000, Note_on_c, 0, 77, 103
1, 60000, Note_on_c, 0, 61, 82
1, 60007, Control_c, 0, 64, 0
1, 60054, Control_c, 0, 64, 127
1, 60080, Note_on_c, 0, 61, 0
1, 60080, Note_on_c, 0, 53, 68
1, 60160, Note_on_c, 0, 53, 0
1, 60160, Note_on_c, 0, 47, 68
1, 60240, Note_on_c, 0, 47, 0
1, 60240, Note_on_c, 0, 37, 76
1, 60320, Note_on_c, 0, 37, 0
1, 60320, Note_on_c, 0, 25, 68
1, 60400, Note_on_c, 0, 25, 0
1, 60400, Note_on_c, 0, 47, 68
1, 60480, Tempo, 963236
1, 60480, Note_on_c, 0, 47, 0
1, 60480, Note_on_c, 0, 61, 82
1, 60492, Control_c, 0, 64, 0
1, 60522, Control_c, 0, 64, 127
1, 60560, Note_on_c, 0, 61, 0
1, 60560, Note_on_c, 0, 53, 68
1, 60640, Note_on_c, 0, 53, 0
1, 60640, Note_on_c, 0, 47, 68
1, 60720, Tempo, 1040042
1, 60720, Note_on_c, 0, 47, 0
1, 60720, Note_on_c, 0, 69, 0
1, 60720, Note_on_c, 0, 57, 0
1, 60720, Note_on_c, 0, 56, 92
1, 60720, Note_on_c, 0, 68, 92
1, 60720, Note_on_c, 0, 37, 76
1, 60800, Note_on_c, 0, 37, 0
1, 60800, Note_on_c, 0, 25, 68
1, 60840, Tempo, 867177
1, 60880, Note_on_c, 0, 25, 0
1, 60880, Note_on_c, 0, 83, 82
1, 60880, Note_on_c, 0, 47, 68
1, 60900, Note_on_c, 0, 83, 0
1, 60900, Note_on_c, 0, 77, 0
1, 60900, Note_on_c, 0, 81, 85
1, 60920, Note_on_c, 0, 81, 0
1, 60920, Note_on_c, 0, 80, 87
1, 60940, Note_on_c, 0, 80, 0
1, 60940, Note_on_c, 0, 78, 92
1, 60960, Tempo, 955566
1, 60960, Note_on_c, 0, 78, 0
1, 60960, Note_on_c, 0, 47, 0
1, 60960, Note_on_c, 0, 77, 94
1, 60960, Note_on_c, 0, 61, 82
1, 60976, Control_c, 0, 64, 0
1, 61002, Control_c, 0, 64, 127
1, 61040, Note_on_c, 0, 61, 0
1, 61040, Note_on_c, 0, 53, 68
1, 61120, Note_on_c, 0, 53, 0
1, 61120, Note_on_c, 0, 47, 68
1, 61200, Tempo, 1031105
1, 61200, Note_on_c, 0, 47, 0
1, 61200, Note_on_c, 0, 56, 0
1, 61200, Note_on_c, 0, 68, 0
1, 61200, Note_on_c, 0, 55, 98
1, 61200, Note_on_c, 0, 67, 98
1, 61200, Note_on_c, 0, 37, 76
1, 61280, Note_on_c, 0, 37, 0
1, 61280, Note_on_c, 0, 25, 68
1, 61320, Tempo, 879894
1, 61360, Note_on_c, 0, 25, 0
1, 61360, Note_on_c, 0, 76, 85
1, 61360, Note_on_c, 0, 49, 68
1, 61380, Note_on_c, 0, 77, 0
1, 61385, Note_on_c, 0, 76, 0
1, 61385, Note_on_c, 0, 75, 91
1, 61410, Note_on_c, 0, 75, 0
1, 61410, Note_on_c, 0, 74, 94
1, 61440, Tempo, 911993
1, 61440, Note_on_c, 0, 74, 0
1, 61440, Note_on_c, 0, 55, 0
1, 61440, Note_on_c, 0, 67, 0
1, 61440, Note_on_c, 0, 49, 0
1, 61440, Note_on_c, 0, 73, 104
1, 61440, Note_on_c, 0, 61, 82
1, 61440, Control_c, 0, 64, 0
1, 61495, Control_c, 0, 64, 127
1, 61520, Note_on_c, 0, 61, 0
1, 61520, Note_on_c, 0, 55, 68
1, 61560, Tempo, 1128032
1, 61600, Note_on_c, 0, 55, 0
1, 61600, Note_on_c, 0, 45, 68
1, 61680, Tempo, 913381
1, 61680, Note_on_c, 0, 45, 0
1, 61680, Note_on_c, 0, 57, 96
1, 61680, Note_on_c, 0, 69, 96
1, 61680, Note_on_c, 0, 37, 76
1, 61760, Note_on_c, 0, 37, 0
1, 61760, Note_on_c, 0, 25, 68
1, 61800, Tempo, 878606
1, 61840, Note_on_c, 0, 25, 0
1, 61840, Note_on_c, 0, 49, 68
1, 61860, Note_on_c, 0, 73, 0
1, 61860, Note_on_c, 0, 74, 92
1, 61920, Tempo, 948017
1, 61920, Note_on_c, 0, 74, 0
1, 61920, Note_on_c, 0, 49, 0
1, 61920, Note_on_c, 0, 73, 103
1, 61920, Note_on_c, 0, 61, 82
1, 61931, Control_c, 0, 64, 0
1, 61951, Control_c, 0, 64, 127
1, 62000, Note_on_c, 0, 61, 0
1, 62000, Note_on_c, 0, 55, 68
1, 62080, Note_on_c, 0, 55, 0
1, 62080, Note_on_c, 0, 45, 68
1, 62160, Note_on_c, 0, 45, 0
1, 62160, Note_on_c, 0, 37, 76
1, 62240, Note_on_c, 0, 37, 0
1, 62240, Note_on_c, 0, 25, 68
1, 62320, Note_on_c, 0, 25, 0
1, 62320, Note_on_c, 0, 49, 68
1, 62400, Tempo, 963236
1, 62400, Note_on_c, 0, 49, 0
1, 62400, Note_on_c, 0, 61, 82
1, 62411, Control_c, 0, 64, 0
1, 62434, Control_c, 0, 64, 127
1, 62480, Note_on_c, 0, 61, 0
1, 62480, Note_on_c, 0, 55, 68
1, 62560, Note_on_c, 0, 55, 0
1, 62560, Note_on_c, 0, 45, 68
1, 62640, Tempo, 1040042
1, 62640, Note_on_c, 0, 45, 0
1, 62640, Note_on_c, 0, 57, 0
1, 62640, Note_on_c, 0, 69, 0
1, 62640, Note_on_c, 0, 68, 92
1, 62640, Note_on_c, 0, 56, 92
1, 62640, Note_on_c, 0, 37, 76
1, 62720, Note_on_c, 0, 37, 0
1, 62720, Note_on_c, 0, 25, 68
1, 62760, Tempo, 879894
1, 62800, Note_on_c, 0, 25, 0
1, 62800, Note_on_c, 0, 80, 82
1, 62800, Note_on_c, 0, 49, 68
1, 62820, Note_on_c, 0, 80, 0
1, 62820, Note_on_c, 0, 73, 0
1, 62820, Note_on_c, 0, 77, 85
1, 62840, Note_on_c, 0, 77, 0
1, 62840, Note_on_c, 0, 76, 87
1, 62860, Note_on_c, 0, 76, 0
1, 62860, Note_on_c, 0, 74, 92
1, 62880, Tempo, 955566
1, 62880, Note_on_c, 0, 74, 0
1, 62880, Note_on_c, 0, 49, 0
1, 62880, Note_on_c, 0, 73, 94
1, 62880, Note_on_c, 0, 61, 82
1, 62898, Control_c, 0, 64, 0
1, 62921, Control_c, 0, 64, 127
1, 62960, Note_on_c, 0, 61, 0
1, 62960, Note_on_c, 0, 55, 68
1, 63040, Note_on_c, 0, 55, 0
1, 63040, Note_on_c, 0, 45, 68
1, 63120, Note_on_c, 0, 45, 0
1, 63120, Note_on_c, 0, 68, 0
1, 63120, Note_on_c, 0, 56, 0
1, 63120, Note_on_c, 0, 63, 98
1, 63120, Note_on_c, 0, 51, 98
1, 63120, Note_on_c, 0, 37, 76
1, 63200, Note_on_c, 0, 37, 0
1, 63200, Note_on_c, 0, 25, 68
1, 63240, Tempo, 892990
1, 63280, Note_on_c, 0, 25, 0
1, 63280, Note_on_c, 0, 74, 82
1, 63280, Note_on_c, 0, 46, 68
1, 63300, Note_on_c, 0, 74, 0
1, 63300, Note_on_c, 0, 73, 0
1, 63300, Note_on_c, 0, 73, 85
1, 63320, Note_on_c, 0, 73, 0
1, 63320, Note_on_c, 0, 72, 87
1, 63340, Note_on_c, 0, 72, 0
1, 63340, Note_on_c, 0, 71, 92
1, 63360, Tempo, 911993
1, 63360, Note_on_c, 0, 71, 0
1, 63360, Note_on_c, 0, 46, 0
1, 63360, Note_on_c, 0, 51, 0
1, 63360, Note_on_c, 0, 63, 0
1, 63360, Note_on_c, 0, 70, 104
1, 63360, Note_on_c, 0, 58, 82
1, 63368, Control_c, 0, 64, 0
1, 63419, Control_c, 0, 64, 127
1, 63440, Note_on_c, 0, 58, 0
1, 63440, Note_on_c, 0, 52, 68
1, 63480, Tempo, 1172104
1, 63520, Note_on_c, 0, 52, 0
1, 63520, Note_on_c, 0, 42, 68
1, 63600, Tempo, 906481
1, 63600, Note_on_c, 0, 42, 0
1, 63600, Note_on_c, 0, 50, 96
1, 63600, Note_on_c, 0, 62, 96
1, 63600, Note_on_c, 0, 37, 76
1, 63680, Note_on_c, 0, 37, 0
1, 63680, Note_on_c, 0, 25, 68
1, 63720, Tempo, 878606
1, 63760, Note_on_c, 0, 25, 0
1, 63760, Note_on_c, 0, 46, 68
1, 63780, Note_on_c, 0, 70, 0
1, 63780, Note_on_c, 0, 71, 92
1, 63840, Tempo, 948017
1, 63840, Note_on_c, 0, 71, 0
1, 63840, Note_on_c, 0, 46, 0
1, 63840, Note_on_c, 0, 70, 103
1, 63840, Note_on_c, 0, 58, 82
1, 63854, Control_c, 0, 64, 0
1, 63878, Control_c, 0, 64, 127
1, 63920, Note_on_c, 0, 58, 0
1, 63920, Note_on_c, 0, 52, 68
1, 64000, Note_on_c, 0, 52, 0
1, 64000, Note_on_c, 0, 42, 68
1, 64080, Note_on_c, 0, 42, 0
1, 64080, Note_on_c, 0, 37, 76
1, 64160, Note_on_c, 0, 37, 0
1, 64160, Note_on_c, 0, 25, 68
1, 64240, Note_on_c, 0, 25, 0
1, 64240, Note_on_c, 0, 46, 68
1, 64320, Tempo, 963236
1, 64320, Note_on_c, 0, 46, 0
1, 64320, Note_on_c, 0, 58, 82
1, 64332, Control_c, 0, 64, 0
1, 64353, Control_c, 0, 64, 127
1, 64400, Note_on_c, 0, 58, 0
1, 64400, Note_on_c, 0, 52, 68
1, 64480, Note_on_c, 0, 52, 0
1, 64480, Note_on_c, 0, 42, 68
1, 64560, Note_on_c, 0, 42, 0
1, 64560, Note_on_c, 0, 50, 0
1, 64560, Note_on_c, 0, 62, 0
1, 64560, Note_on_c, 0, 49, 92
1, 64560, Note_on_c, 0, 61, 92
1, 64560, Note_on_c, 0, 37, 76
1, 64640, Note_on_c, 0, 37, 0
1, 64640, Note_on_c, 0, 25, 68
1, 64680, Tempo, 879894
1, 64720, Note_on_c, 0, 25, 0
1, 64720, Note_on_c, 0, 76, 82
1, 64720, Note_on_c, 0, 46, 68
1, 64740, Note_on_c, 0, 76, 0
1, 64740, Note_on_c, 0, 70, 0
1, 64740, Note_on_c, 0, 74, 85
1, 64760, Note_on_c, 0, 74, 0
1, 64760, Note_on_c, 0, 73, 87
1, 64780, Note_on_c, 0, 73, 0
1, 64780, Note_on_c, 0, 71, 92
1, 64800, Tempo, 955566
1, 64800, Note_on_c, 0, 71, 0
1, 64800, Note_on_c, 0, 46, 0
1, 64800, Note_on_c, 0, 70, 94
1, 64800, Note_on_c, 0, 58, 82
1, 64812, Control_c, 0, 64, 0
1, 64838, Control_c, 0, 64, 127
1, 64880, Note_on_c, 0, 58, 0
1, 64880, Note_on_c, 0, 52, 68
1, 64960, Note_on_c, 0, 52, 0
1, 64960, Note_on_c, 0, 42, 68
1, 65040, Note_on_c, 0, 42, 0
1, 65040, Note_on_c, 0, 49, 0
1, 65040, Note_on_c, 0, 61, 0
1, 65040, Note_on_c, 0, 48, 98
1, 65040, Note_on_c, 0, 60, 98
1, 65040, Note_on_c, 0, 37, 76
1, 65120, Note_on_c, 0, 37, 0
1, 65120, Note_on_c, 0, 25, 68
1, 65160, Tempo, 899685
1, 65200, Note_on_c, 0, 25, 0
1, 65200, Note_on_c, 0, 71, 82
1, 65200, Note_on_c, 0, 43, 68
1, 65220, Note_on_c, 0, 71, 0
1, 65220, Note_on_c, 0, 70, 0
1, 65220, Note_on_c, 0, 70, 85
1, 65240, Note_on_c, 0, 70, 0
1, 65240, Note_on_c, 0, 69, 87
1, 65260, Note_on_c, 0, 69, 0
1, 65260, Note_on_c, 0, 68, 92
1, 65280, Tempo, 948017
1, 65280, Note_on_c, 0, 68, 0
1, 65280, Note_on_c, 0, 43, 0
1, 65280, Note_on_c, 0, 60, 0
1, 65280, Note_on_c, 0, 48, 0
1, 65280, Note_on_c, 0, 67, 94
1, 65280, Note_on_c, 0, 55, 82
1, 65280, Control_c, 0, 64, 0
1, 65335, Control_c, 0, 64, 127
1, 65360, Note_on_c, 0, 49, 68
1, 65440, Note_on_c, 0, 49, 0
1, 65440, Note_on_c, 0, 43, 68
1, 65520, Note_on_c, 0, 43, 0
1, 65520, Note_on_c, 0, 55, 0
1, 65520, Note_on_c, 0, 47, 91
1, 65520, Note_on_c, 0, 59, 96
1, 65520, Note_on_c, 0, 37, 76
1, 65600, Note_on_c, 0, 37, 0
1, 65600, Note_on_c, 0, 25, 68
1, 65680, Tempo, 891663
1, 65680, Note_on_c, 0, 25, 0
1, 65680, Note_on_c, 0, 73, 82
1, 65680, Note_on_c, 0, 43, 68
1, 65700, Note_on_c, 0, 73, 0
1, 65700, Note_on_c, 0, 67, 0
1, 65700, Note_on_c, 0, 71, 85
1, 65720, Note_on_c, 0, 71, 0
1, 65720, Note_on_c, 0, 70, 87
1, 65740, Note_on_c, 0, 70, 0
1, 65740, Note_on_c, 0, 68, 92
1, 65760, Tempo, 948017
1, 65760, Note_on_c, 0, 68, 0
1, 65760, Note_on_c, 0, 43, 0
1, 65760, Note_on_c, 0, 67, 103
1, 65760, Note_on_c, 0, 55, 82
1, 65771, Control_c, 0, 64, 0
1, 65788, Control_c, 0, 64, 127
1, 65840, Note_on_c, 0, 55, 0
1, 65840, Note_on_c, 0, 49, 68
1, 65920, Note_on_c, 0, 49, 0
1, 65920, Note_on_c, 0, 43, 68
1, 66000, Note_on_c, 0, 43, 0
1, 66000, Note_on_c, 0, 37, 76
1, 66080, Note_on_c, 0, 37, 0
1, 66080, Note_on_c, 0, 25, 68
1, 66160, Note_on_c, 0, 25, 0
1, 66160, Note_on_c, 0, 43, 68
1, 66240, Tempo, 955566
1, 66240, Note_on_c, 0, 43, 0
1, 66240, Note_on_c, 0, 59, 0
1, 66240, Note_on_c, 0, 47, 0
1, 66240, Note_on_c, 0, 58, 84
1, 66240, Note_on_c, 0, 46, 73
1, 66240, Note_on_c, 0, 55, 82
1, 66256, Control_c, 0, 64, 0
1, 66271, Control_c, 0, 64, 127
1, 66320, Note_on_c, 0, 55, 0
1, 66320, Note_on_c, 0, 46, 0
1, 66320, Note_on_c, 0, 49, 68
1, 66400, Tempo, 1193080
1, 66400, Note_on_c, 0, 49, 0
1, 66400, Note_on_c, 0, 61, 82
1, 66400, Note_on_c, 0, 43, 68
1, 66420, Note_on_c, 0, 61, 0
1, 66420, Note_on_c, 0, 67, 0
1, 66420, Note_on_c, 0, 63, 85
1, 66440, Note_on_c, 0, 63, 0
1, 66440, Note_on_c, 0, 64, 87
1, 66460, Note_on_c, 0, 64, 0
1, 66460, Note_on_c, 0, 66, 92
1, 66480, Tempo, 955566
1, 66480, Note_on_c, 0, 66, 0
1, 66480, Note_on_c, 0, 43, 0
1, 66480, Note_on_c, 0, 67, 100
1, 66480, Note_on_c, 0, 37, 76
1, 66498, Control_c, 0, 64, 0
1, 66518, Control_c, 0, 64, 127
1, 66560, Note_on_c, 0, 37, 0
1, 66560, Note_on_c, 0, 25, 68
1, 66640, Note_on_c, 0, 25, 0
1, 66640, Note_on_c, 0, 43, 68
1, 66720, Tempo, 995190
1, 66720, Note_on_c, 0, 43, 0
1, 66720, Note_on_c, 0, 58, 0
1, 66720, Note_on_c, 0, 57, 91
1, 66720, Note_on_c, 0, 45, 73
1, 66720, Note_on_c, 0, 55, 82
1, 66727, Control_c, 0, 64, 0
1, 66751, Control_c, 0, 64, 127
1, 66800, Note_on_c, 0, 55, 0
1, 66800, Note_on_c, 0, 45, 0
1, 66800, Note_on_c, 0, 49, 68
1, 66880, Note_on_c, 0, 49, 0
1, 66880, Note_on_c, 0, 43, 68
1, 66960, Note_on_c, 0, 43, 0
1, 66960, Note_on_c, 0, 37, 76
1, 67040, Note_on_c, 0, 37, 0
1, 67040, Note_on_c, 0, 25, 68
1, 67080, Tempo, 1333630
1, 67120, Tempo, 1296176
1, 67120, Note_on_c, 0, 25, 0
1, 67120, Note_on_c, 0, 67, 0
1, 67120, Note_on_c, 0, 66, 68
1, 67120, Note_on_c, 0, 56, 68
1, 67120, Note_on_c, 0, 44, 68
1, 67140, Tempo, 1463772
1, 67160, Note_on_c, 0, 44, 0
1, 67160, Note_on_c, 0, 56, 0
1, 67160, Note_on_c, 0, 66, 0
1, 67160, Note_on_c, 0, 65, 68
1, 67160, Note_on_c, 0, 43, 68
1, 67160, Note_on_c, 0, 55, 68
1, 67200, Tempo, 1000167
1, 67200, Note_on_c, 0, 55, 0
1, 67200, Note_on_c, 0, 57, 0
1, 67200, Note_on_c, 0, 65, 0
1, 67200, Note_on_c, 0, 43, 0
1, 67200, Note_on_c, 0, 57, 68
1, 67200, Note_on_c, 0, 61, 68
1, 67200, Note_on_c, 0, 64, 80
1, 67200, Note_on_c, 0, 42, 77
1, 67200, Note_on_c, 0, 54, 82
1, 67208, Control_c, 0, 64, 0
1, 67240, Control_c, 0, 64, 127
1, 67280, Note_on_c, 0, 54, 0
1, 67280, Note_on_c, 0, 42, 0
1, 67280, Note_on_c, 0, 49, 68
1, 67360, Note_on_c, 0, 49, 0
1, 67360, Note_on_c, 0, 42, 68
1, 67440, Note_on_c, 0, 42, 0
1, 67440, Note_on_c, 0, 37, 76
1, 67520, Note_on_c, 0, 37, 0
1, 67520, Note_on_c, 0, 25, 68
1, 67600, Note_on_c, 0, 25, 0
1, 67600, Note_on_c, 0, 42, 68
1, 67680, Note_on_c, 0, 42, 0
1, 67680, Note_on_c, 0, 64, 0
1, 67680, Note_on_c, 0, 61, 0
1, 67680, Note_on_c, 0, 57, 0
1, 67680, Note_on_c, 0, 64, 73
1, 67680, Note_on_c, 0, 61, 62
1, 67680, Note_on_c, 0, 52, 62
1, 67680, Note_on_c, 0, 57, 62
1, 67680, Note_on_c, 0, 54, 82
1, 67692, Control_c, 0, 64, 0
1, 67729, Control_c, 0, 64, 127
1, 67760, Note_on_c, 0, 54, 0
1, 67760, Note_on_c, 0, 49, 68
1, 67840, Note_on_c, 0, 49, 0
1, 67840, Note_on_c, 0, 42, 68
1, 67920, Note_on_c, 0, 42, 0
1, 67920, Note_on_c, 0, 37, 76
1, 68000, Note_on_c, 0, 37, 0
1, 68000, Note_on_c, 0, 25, 68
1, 68080, Note_on_c, 0, 25, 0
1, 68080, Note_on_c, 0, 43, 68
1, 68100, Tempo, 1154068
1, 68160, Tempo, 1000167
1, 68160, Note_on_c, 0, 43, 0
1, 68160, Note_on_c, 0, 57, 0
1, 68160, Note_on_c, 0, 64, 0
1, 68160, Note_on_c, 0, 61, 0
1, 68160, Note_on_c, 0, 52, 0
1, 68160, Note_on_c, 0, 64, 79
1, 68160, Note_on_c, 0, 57, 67
1, 68160, Note_on_c, 0, 60, 67
1, 68160, Note_on_c, 0, 52, 67
1, 68160, Note_on_c, 0, 55, 82
1, 68175, Control_c, 0, 64, 0
1, 68209, Control_c, 0, 64, 127
1, 68240, Note_on_c, 0, 55, 0
1, 68240, Note_on_c, 0, 48, 68
1, 68320, Note_on_c, 0, 48, 0
1, 68320, Note_on_c, 0, 43, 68
1, 68400, Note_on_c, 0, 43, 0
1, 68400, Note_on_c, 0, 37, 76
1, 68480, Note_on_c, 0, 37, 0
1, 68480, Note_on_c, 0, 25, 68
1, 68560, Note_on_c, 0, 25, 0
1, 68560, Note_on_c, 0, 43, 68
1, 68640, Note_on_c, 0, 43, 0
1, 68640, Note_on_c, 0, 52, 0
1, 68640, Note_on_c, 0, 64, 0
1, 68640, Note_on_c, 0, 57, 0
1, 68640, Note_on_c, 0, 60, 0
1, 68640, Note_on_c, 0, 64, 80
1, 68640, Note_on_c, 0, 57, 68
1, 68640, Note_on_c, 0, 60, 68
1, 68640, Note_on_c, 0, 52, 68
1, 68640, Note_on_c, 0, 55, 82
1, 68658, Control_c, 0, 64, 0
1, 68686, Control_c, 0, 64, 127
1, 68720, Note_on_c, 0, 55, 0
1, 68720, Note_on_c, 0, 49, 68
1, 68800, Note_on_c, 0, 49, 0
1, 68800, Note_on_c, 0, 43, 68
1, 68880, Note_on_c, 0, 43, 0
1, 68880, Note_on_c, 0, 37, 76
1, 68960, Note_on_c, 0, 37, 0
1, 68960, Note_on_c, 0, 25, 68
1, 69040, Note_on_c, 0, 25, 0
1, 69040, Note_on_c, 0, 44, 68
1, 69060, Tempo, 1176701
1, 69120, Tempo, 1020582
1, 69120, Note_on_c, 0, 44, 0
1, 69120, Note_on_c, 0, 52, 0
1, 69120, Note_on_c, 0, 64, 0
1, 69120, Note_on_c, 0, 57, 0
1, 69120, Note_on_c, 0, 60, 0
1, 69120, Note_on_c, 0, 52, 80
1, 69120, Note_on_c, 0, 61, 80
1, 69120, Note_on_c, 0, 56, 65
1, 69120, Control_c, 0, 64, 0
1, 69155, Control_c, 0, 64, 127
1, 69200, Note_on_c, 0, 56, 0
1, 69200, Note_on_c, 0, 49, 55
1, 69280, Note_on_c, 0, 49, 0
1, 69280, Note_on_c, 0, 65, 61
1, 69280, Note_on_c, 0, 69, 61
1, 69280, Note_on_c, 0, 77, 61
1, 69280, Note_on_c, 0, 44, 55
1, 69283, Control_c, 0, 64, 0
1, 69295, Note_on_c, 0, 61, 0
1, 69295, Note_on_c, 0, 52, 0
1, 69312, Control_c, 0, 64, 127
1, 69360, Note_on_c, 0, 77, 0
1, 69360, Note_on_c, 0, 69, 0
1, 69360, Note_on_c, 0, 44, 0
1, 69360, Note_on_c, 0, 65, 0
1, 69360, Note_on_c, 0, 64, 67
1, 69360, Note_on_c, 0, 73, 67
1, 69360, Note_on_c, 0, 76, 67
1, 69360, Note_on_c, 0, 37, 63
1, 69366, Control_c, 0, 64, 0
1, 69412, Control_c, 0, 64, 127
1, 69440, Note_on_c, 0, 37, 0
1, 69440, Note_on_c, 0, 25, 57
1, 69480, Note_on_c, 0, 61, 72
1, 69507, Note_on_c, 0, 61, 0
1, 69520, Tempo, 885086
1, 69520, Note_on_c, 0, 25, 0
1, 69520, Note_on_c, 0, 44, 58
1, 69540, Tempo, 736287
1, 69540, Note_on_c, 0, 61, 72
1, 69567, Note_on_c, 0, 61, 0
1, 69600, Tempo, 978953
1, 69600, Note_on_c, 0, 76, 0
1, 69600, Note_on_c, 0, 64, 0
1, 69600, Note_on_c, 0, 73, 0
1, 69600, Note_on_c, 0, 44, 0
1, 69600, Note_on_c, 0, 61, 81
1, 69600, Note_on_c, 0, 56, 71
1, 69626, Tempo, 971031
1, 69676, Tempo, 1029336
1, 69680, Note_on_c, 0, 56, 0
1, 69680, Note_on_c, 0, 49, 59
1, 69760, Note_on_c, 0, 49, 0
1, 69760, Note_on_c, 0, 77, 62
1, 69760, Note_on_c, 0, 69, 62
1, 69760, Note_on_c, 0, 65, 62
1, 69760, Note_on_c, 0, 44, 61
1, 69775, Note_on_c, 0, 61, 0
1, 69775, Control_c, 0, 64, 0
1, 69777, Tempo, 1020582
1, 69809, Control_c, 0, 64, 127
1, 69840, Note_on_c, 0, 65, 0
1, 69840, Note_on_c, 0, 77, 0
1, 69840, Note_on_c, 0, 69, 0
1, 69840, Note_on_c, 0, 44, 0
1, 69840, Note_on_c, 0, 76, 69
1, 69840, Note_on_c, 0, 73, 69
1, 69840, Note_on_c, 0, 64, 69
1, 69840, Note_on_c, 0, 37, 69
1, 69853, Tempo, 1011975
1, 69920, Note_on_c, 0, 37, 0
1, 69920, Note_on_c, 0, 25, 62
1, 69954, Tempo, 1003512
1, 69960, Note_on_c, 0, 61, 76
1, 69987, Note_on_c, 0, 61, 0
1, 70000, Tempo, 878606
1, 70000, Note_on_c, 0, 25, 0
1, 70000, Note_on_c, 0, 44, 63
1, 70020, Tempo, 731797
1, 70020, Note_on_c, 0, 61, 76
1, 70047, Note_on_c, 0, 61, 0
1, 70080, Tempo, 995190
1, 70080, Note_on_c, 0, 64, 0
1, 70080, Note_on_c, 0, 76, 0
1, 70080, Note_on_c, 0, 73, 0
1, 70080, Note_on_c, 0, 44, 0
1, 70080, Note_on_c, 0, 61, 88
1, 70080, Note_on_c, 0, 56, 77
1, 70131, Tempo, 987004
1, 70160, Note_on_c, 0, 56, 0
1, 70160, Note_on_c, 0, 49, 65
1, 70207, Tempo, 978953
1, 70240, Note_on_c, 0, 49, 0
1, 70240, Note_on_c, 0, 77, 70
1, 70240, Note_on_c, 0, 69, 70
1, 70240, Note_on_c, 0, 65, 70
1, 70240, Note_on_c, 0, 44, 65
1, 70246, Control_c, 0, 64, 0
1, 70255, Note_on_c, 0, 61, 0
1, 70266, Control_c, 0, 64, 127
1, 70282, Tempo, 971031
1, 70320, Note_on_c, 0, 65, 0
1, 70320, Note_on_c, 0, 77, 0
1, 70320, Note_on_c, 0, 69, 0
1, 70320, Note_on_c, 0, 44, 0
1, 70320, Note_on_c, 0, 76, 77
1, 70320, Note_on_c, 0, 73, 77
1, 70320, Note_on_c, 0, 64, 77
1, 70320, Note_on_c, 0, 37, 74
1, 70329, Control_c, 0, 64, 0
1, 70363, Control_c, 0, 64, 127
1, 70383, Tempo, 963236
1, 70400, Note_on_c, 0, 37, 0
1, 70400, Note_on_c, 0, 25, 68
1, 70440, Note_on_c, 0, 61, 85
1, 70459, Tempo, 955566
1, 70467, Note_on_c, 0, 61, 0
1, 70480, Tempo, 853606
1, 70480, Note_on_c, 0, 25, 0
1, 70480, Note_on_c, 0, 44, 68
1, 70500, Tempo, 718649
1, 70500, Note_on_c, 0, 61, 85
1, 70527, Note_on_c, 0, 61, 0
1, 70560, Tempo, 948017
1, 70560, Note_on_c, 0, 64, 0
1, 70560, Note_on_c, 0, 76, 0
1, 70560, Note_on_c, 0, 73, 0
1, 70560, Note_on_c, 0, 44, 0
1, 70560, Note_on_c, 0, 61, 104
1, 70560, Note_on_c, 0, 56, 83
1, 70626, Tempo, 933271
1, 70640, Note_on_c, 0, 56, 0
1, 70640, Note_on_c, 0, 49, 70
1, 70720, Note_on_c, 0, 49, 0
1, 70720, Note_on_c, 0, 77, 73
1, 70720, Note_on_c, 0, 69, 73
1, 70720, Note_on_c, 0, 65, 73
1, 70720, Note_on_c, 0, 44, 70
1, 70730, Control_c, 0, 64, 0
1, 70735, Note_on_c, 0, 61, 0
1, 70763, Control_c, 0, 64, 127
1, 70770, Tempo, 926069
1, 70800, Note_on_c, 0, 65, 0
1, 70800, Note_on_c, 0, 77, 0
1, 70800, Note_on_c, 0, 69, 0
1, 70800, Note_on_c, 0, 44, 0
1, 70800, Note_on_c, 0, 64, 86
1, 70800, Note_on_c, 0, 73, 86
1, 70800, Note_on_c, 0, 76, 86
1, 70800, Note_on_c, 0, 37, 80
1, 70880, Note_on_c, 0, 37, 0
1, 70880, Note_on_c, 0, 25, 72
1, 70898, Tempo, 918977
1, 70960, Note_on_c, 0, 25, 0
1, 71010, Tempo, 891663
1, 71040, Note_on_c, 0, 76, 0
1, 71040, Note_on_c, 0, 73, 0
1, 71040, Note_on_c, 0, 64, 0
1, 71040, Note_on_c, 0, 61, 86
1, 71040, Control_c, 0, 64, 0
1, 71090, Tempo, 885086
1, 71160, Note_on_c, 0, 77, 70
1, 71160, Note_on_c, 0, 73, 59
1, 71160, Note_on_c, 0, 69, 59
1, 71160, Note_on_c, 0, 57, 55
1, 71160, Note_on_c, 0, 61, 55
1, 71160, Note_on_c, 0, 65, 65
1, 71170, Tempo, 878606
1, 71234, Tempo, 872220
1, 71280, Note_on_c, 0, 65, 0
1, 71280, Note_on_c, 0, 57, 0
1, 71280, Note_on_c, 0, 77, 0
1, 71280, Note_on_c, 0, 73, 0
1, 71280, Note_on_c, 0, 69, 0
1, 71280, Note_on_c, 0, 61, 0
1, 71280, Note_on_c, 0, 76, 71
1, 71280, Note_on_c, 0, 73, 60
1, 71280, Note_on_c, 0, 68, 60
1, 71280, Note_on_c, 0, 64, 65
1, 71280, Note_on_c, 0, 61, 55
1, 71280, Note_on_c, 0, 56, 55
1, 71314, Tempo, 865926
1, 71337, Control_c, 0, 64, 127
1, 71394, Tempo, 859722
1, 71400, Note_on_c, 0, 56, 0
1, 71400, Note_on_c, 0, 64, 0
1, 71400, Note_on_c, 0, 76, 0
1, 71400, Note_on_c, 0, 73, 0
1, 71400, Note_on_c, 0, 68, 0
1, 71400, Note_on_c, 0, 61, 0
1, 71400, Note_on_c, 0, 77, 72
1, 71400, Note_on_c, 0, 73, 61
1, 71400, Note_on_c, 0, 69, 61
1, 71400, Note_on_c, 0, 57, 55
1, 71400, Note_on_c, 0, 61, 55
1, 71400, Note_on_c, 0, 65, 65
1, 71458, Tempo, 853606
1, 71520, Note_on_c, 0, 65, 0
1, 71520, Note_on_c, 0, 57, 0
1, 71520, Note_on_c, 0, 77, 0
1, 71520, Note_on_c, 0, 73, 0
1, 71520, Note_on_c, 0, 69, 0
1, 71520, Note_on_c, 0, 61, 0
1, 71520, Note_on_c, 0, 76, 72
1, 71520, Note_on_c, 0, 73, 61
1, 71520, Note_on_c, 0, 68, 61
1, 71520, Note_on_c, 0, 64, 65
1, 71520, Note_on_c, 0, 61, 55
1, 71520, Note_on_c, 0, 56, 55
1, 71538, Tempo, 847577
1, 71543, Control_c, 0, 64, 0
1, 71617, Control_c, 0, 64, 127
1, 71618, Tempo, 841633
1, 71640, Note_on_c, 0, 56, 0
1, 71640, Note_on_c, 0, 64, 0
1, 71640, Note_on_c, 0, 76, 0
1, 71640, Note_on_c, 0, 73, 0
1, 71640, Note_on_c, 0, 68, 0
1, 71640, Note_on_c, 0, 61, 0
1, 71640, Note_on_c, 0, 77, 72
1, 71640, Note_on_c, 0, 73, 61
1, 71640, Note_on_c, 0, 69, 61
1, 71640, Note_on_c, 0, 65, 65
1, 71640, Note_on_c, 0, 61, 55
1, 71640, Note_on_c, 0, 57, 55
1, 71682, Tempo, 835771
1, 71760, Note_on_c, 0, 57, 0
1, 71760, Note_on_c, 0, 65, 0
1, 71760, Note_on_c, 0, 77, 0
1, 71760, Note_on_c, 0, 73, 0
1, 71760, Note_on_c, 0, 69, 0
1, 71760, Note_on_c, 0, 61, 0
1, 71760, Note_on_c, 0, 76, 72
1, 71760, Note_on_c, 0, 73, 61
1, 71760, Note_on_c, 0, 68, 61
1, 71760, Note_on_c, 0, 64, 68
1, 71760, Note_on_c, 0, 61, 57
1, 71760, Note_on_c, 0, 56, 57
1, 71762, Tempo, 829990
1, 71764, Control_c, 0, 64, 0
1, 71817, Control_c, 0, 64, 127
1, 71826, Tempo, 824289
1, 71880, Note_on_c, 0, 56, 0
1, 71880, Note_on_c, 0, 64, 0
1, 71880, Note_on_c, 0, 76, 0
1, 71880, Note_on_c, 0, 73, 0
1, 71880, Note_on_c, 0, 68, 0
1, 71880, Note_on_c, 0, 61, 0
1, 71880, Note_on_c, 0, 77, 72
1, 71880, Note_on_c, 0, 73, 61
1, 71880, Note_on_c, 0, 69, 61
1, 71880, Note_on_c, 0, 65, 69
1, 71880, Note_on_c, 0, 61, 58
1, 71880, Note_on_c, 0, 57, 58
1, 72000, Tempo, 895656
1, 72000, Note_on_c, 0, 57, 0
1, 72000, Note_on_c, 0, 65, 0
1, 72000, Note_on_c, 0, 77, 0
1, 72000, Note_on_c, 0, 73, 0
1, 72000, Note_on_c, 0, 69, 0
1, 72000, Note_on_c, 0, 61, 0
1, 72000, Note_on_c, 0, 76, 72
1, 72000, Note_on_c, 0, 73, 61
1, 72000, Note_on_c, 0, 68, 61
1, 72000, Note_on_c, 0, 56, 59
1, 72000, Note_on_c, 0, 61, 59
1, 72000, Note_on_c, 0, 64, 70
1, 72009, Control_c, 0, 64, 0
1, 72097, Control_c, 0, 64, 127
1, 72120, Note_on_c, 0, 64, 0
1, 72120, Note_on_c, 0, 56, 0
1, 72120, Note_on_c, 0, 76, 0
1, 72120, Note_on_c, 0, 73, 0
1, 72120, Note_on_c, 0, 68, 0
1, 72120, Note_on_c, 0, 61, 0
1, 72120, Note_on_c, 0, 89, 76
1, 72120, Note_on_c, 0, 77, 64
1, 72120, Note_on_c, 0, 81, 64
1, 72120, Note_on_c, 0, 57, 74
1, 72120, Note_on_c, 0, 49, 62
1, 72120, Note_on_c, 0, 45, 62
1, 72160, Tempo, 824289
1, 72240, Tempo, 824289
1, 72240, Note_on_c, 0, 45, 0
1, 72240, Note_on_c, 0, 57, 0
1, 72240, Note_on_c, 0, 89, 0
1, 72240, Note_on_c, 0, 77, 0
1, 72240, Note_on_c, 0, 81, 0
1, 72240, Note_on_c, 0, 49, 0
1, 72240, Note_on_c, 0, 76, 62
1, 72240, Note_on_c, 0, 85, 62
1, 72240, Note_on_c, 0, 88, 74
1, 72240, Note_on_c, 0, 56, 75
1, 72240, Note_on_c, 0, 49, 63
1, 72240, Note_on_c, 0, 44, 63
1, 72253, Control_c, 0, 64, 0
1, 72320, Control_c, 0, 64, 127
1, 72360, Note_on_c, 0, 44, 0
1, 72360, Note_on_c, 0, 56, 0
1, 72360, Note_on_c, 0, 76, 0
1, 72360, Note_on_c, 0, 85, 0
1, 72360, Note_on_c, 0, 88, 0
1, 72360, Note_on_c, 0, 49, 0
1, 72360, Note_on_c, 0, 81, 63
1, 72360, Note_on_c, 0, 77, 63
1, 72360, Note_on_c, 0, 89, 75
1, 72360, Note_on_c, 0, 57, 76
1, 72360, Note_on_c, 0, 49, 64
1, 72360, Note_on_c, 0, 45, 64
1, 72480, Note_on_c, 0, 45, 0
1, 72480, Note_on_c, 0, 57, 0
1, 72480, Note_on_c, 0, 81, 0
1, 72480, Note_on_c, 0, 77, 0
1, 72480, Note_on_c, 0, 89, 0
1, 72480, Note_on_c, 0, 49, 0
1, 72480, Note_on_c, 0, 76, 66
1, 72480, Note_on_c, 0, 85, 66
1, 72480, Note_on_c, 0, 88, 78
1, 72480, Note_on_c, 0, 56, 77
1, 72480, Note_on_c, 0, 49, 65
1, 72480, Note_on_c, 0, 44, 65
1, 72494, Control_c, 0, 64, 0
1, 72577, Control_c, 0, 64, 127
1, 72600, Note_on_c, 0, 44, 0
1, 72600, Note_on_c, 0, 56, 0
1, 72600, Note_on_c, 0, 76, 0
1, 72600, Note_on_c, 0, 85, 0
1, 72600, Note_on_c, 0, 88, 0
1, 72600, Note_on_c, 0, 49, 0
1, 72600, Note_on_c, 0, 81, 70
1, 72600, Note_on_c, 0, 77, 70
1, 72600, Note_on_c, 0, 89, 83
1, 72600, Note_on_c, 0, 57, 77
1, 72600, Note_on_c, 0, 49, 65
1, 72600, Note_on_c, 0, 45, 65
1, 72640, Tempo, 847577
1, 72720, Note_on_c, 0, 45, 0
1, 72720, Note_on_c, 0, 57, 0
1, 72720, Note_on_c, 0, 81, 0
1, 72720, Note_on_c, 0, 77, 0
1, 72720, Note_on_c, 0, 89, 0
1, 72720, Note_on_c, 0, 49, 0
1, 72720, Note_on_c, 0, 88, 84
1, 72720, Note_on_c, 0, 85, 71
1, 72720, Note_on_c, 0, 76, 71
1, 72720, Note_on_c, 0, 56, 77
1, 72720, Note_on_c, 0, 49, 65
1, 72720, Note_on_c, 0, 44, 65
1, 72735, Control_c, 0, 64, 0
1, 72800, Tempo, 905114
1, 72806, Control_c, 0, 64, 127
1, 72840, Note_on_c, 0, 44, 0
1, 72840, Note_on_c, 0, 56, 0
1, 72840, Note_on_c, 0, 88, 0
1, 72840, Note_on_c, 0, 85, 0
1, 72840, Note_on_c, 0, 76, 0
1, 72840, Note_on_c, 0, 49, 0
1, 72840, Note_on_c, 0, 89, 86
1, 72840, Note_on_c, 0, 77, 73
1, 72840, Note_on_c, 0, 81, 73
1, 72840, Note_on_c, 0, 57, 77
1, 72840, Note_on_c, 0, 49, 65
1, 72840, Note_on_c, 0, 45, 65
1, 72960, Tempo, 829990
1, 72960, Note_on_c, 0, 45, 0
1, 72960, Note_on_c, 0, 57, 0
1, 72960, Note_on_c, 0, 89, 0
1, 72960, Note_on_c, 0, 77, 0
1, 72960, Note_on_c, 0, 61, 0
1, 72960, Note_on_c, 0, 49, 0
1, 72960, Note_on_c, 0, 81, 0
1, 72960, Note_on_c, 0, 37, 104
1, 72960, Note_on_c, 0, 25, 104
1, 72962, Control_c, 0, 64, 0
1, 72978, Tempo, 898338
1, 73048, Control_c, 0, 64, 127
1, 73058, Tempo, 891663
1, 73080, Note_on_c, 0, 76, 65
1, 73080, Note_on_c, 0, 80, 65
1, 73080, Note_on_c, 0, 85, 65
1, 73080, Note_on_c, 0, 88, 77
1, 73080, Note_on_c, 0, 44, 57
1, 73080, Note_on_c, 0, 56, 68
1, 73080, Note_on_c, 0, 52, 57
1, 73080, Note_on_c, 0, 49, 57
1, 73122, Tempo, 885086
1, 73186, Tempo, 878606
1, 73200, Note_on_c, 0, 49, 0
1, 73200, Note_on_c, 0, 76, 0
1, 73200, Note_on_c, 0, 80, 0
1, 73200, Note_on_c, 0, 52, 0
1, 73200, Note_on_c, 0, 85, 0
1, 73200, Note_on_c, 0, 44, 0
1, 73200, Note_on_c, 0, 56, 0
1, 73200, Note_on_c, 0, 88, 0
1, 73200, Note_on_c, 0, 76, 70
1, 73200, Note_on_c, 0, 80, 70
1, 73200, Note_on_c, 0, 85, 70
1, 73200, Note_on_c, 0, 88, 82
1, 73200, Note_on_c, 0, 64, 70
1, 73200, Note_on_c, 0, 61, 58
1, 73200, Note_on_c, 0, 56, 58
1, 73200, Note_on_c, 0, 52, 58
1, 73250, Tempo, 872220
1, 73314, Tempo, 865926
1, 73320, Note_on_c, 0, 52, 0
1, 73320, Note_on_c, 0, 76, 0
1, 73320, Note_on_c, 0, 80, 0
1, 73320, Note_on_c, 0, 56, 0
1, 73320, Note_on_c, 0, 85, 0
1, 73320, Note_on_c, 0, 64, 0
1, 73320, Note_on_c, 0, 61, 0
1, 73320, Note_on_c, 0, 88, 0
1, 73320, Note_on_c, 0, 88, 88
1, 73320, Note_on_c, 0, 85, 74
1, 73320, Note_on_c, 0, 80, 74
1, 73320, Note_on_c, 0, 76, 74
1, 73320, Note_on_c, 0, 52, 63
1, 73320, Note_on_c, 0, 56, 63
1, 73320, Note_on_c, 0, 61, 63
1, 73320, Note_on_c, 0, 64, 74
1, 73378, Tempo, 859722
1, 73440, Note_on_c, 0, 64, 0
1, 73440, Note_on_c, 0, 88, 0
1, 73440, Note_on_c, 0, 85, 0
1, 73440, Note_on_c, 0, 61, 0
1, 73440, Note_on_c, 0, 80, 0
1, 73440, Note_on_c, 0, 52, 0
1, 73440, Note_on_c, 0, 56, 0
1, 73440, Note_on_c, 0, 76, 0
1, 73440, Note_on_c, 0, 76, 79
1, 73440, Note_on_c, 0, 80, 79
1, 73440, Note_on_c, 0, 85, 79
1, 73440, Note_on_c, 0, 88, 93
1, 73440, Note_on_c, 0, 52, 64
1, 73440, Note_on_c, 0, 56, 64
1, 73440, Note_on_c, 0, 61, 64
1, 73440, Note_on_c, 0, 64, 77
1, 73442, Tempo, 853606
1, 73506, Tempo, 847577
1, 73520, Note_on_c, 0, 64, 0
1, 73520, Note_on_c, 0, 76, 0
1, 73520, Note_on_c, 0, 80, 0
1, 73520, Note_on_c, 0, 61, 0
1, 73520, Note_on_c, 0, 85, 0
1, 73520, Note_on_c, 0, 52, 0
1, 73520, Note_on_c, 0, 56, 0
1, 73520, Note_on_c, 0, 88, 0
1, 73520, Note_on_c, 0, 76, 82
1, 73520, Note_on_c, 0, 80, 82
1, 73520, Note_on_c, 0, 85, 82
1, 73520, Note_on_c, 0, 88, 97
1, 73520, Note_on_c, 0, 52, 67
1, 73520, Note_on_c, 0, 56, 67
1, 73520, Note_on_c, 0, 61, 67
1, 73520, Note_on_c, 0, 64, 80
1, 73570, Tempo, 841633
1, 73600, Note_on_c, 0, 64, 0
1, 73600, Note_on_c, 0, 76, 0
1, 73600, Note_on_c, 0, 80, 0
1, 73600, Note_on_c, 0, 61, 0
1, 73600, Note_on_c, 0, 85, 0
1, 73600, Note_on_c, 0, 52, 0
1, 73600, Note_on_c, 0, 56, 0
1, 73600, Note_on_c, 0, 88, 0
1, 73600, Note_on_c, 0, 76, 85
1, 73600, Note_on_c, 0, 80, 85
1, 73600, Note_on_c, 0, 85, 85
1, 73600, Note_on_c, 0, 88, 101
1, 73600, Note_on_c, 0, 52, 70
1, 73600, Note_on_c, 0, 56, 70
1, 73600, Note_on_c, 0, 61, 70
1, 73600, Note_on_c, 0, 64, 82
1, 73634, Tempo, 835771
1, 73680, Note_on_c, 0, 64, 0
1, 73680, Note_on_c, 0, 76, 0
1, 73680, Note_on_c, 0, 80, 0
1, 73680, Note_on_c, 0, 61, 0
1, 73680, Note_on_c, 0, 85, 0
1, 73680, Note_on_c, 0, 52, 0
1, 73680, Note_on_c, 0, 56, 0
1, 73680, Note_on_c, 0, 88, 0
1, 73680, Note_on_c, 0, 76, 86
1, 73680, Note_on_c, 0, 80, 86
1, 73680, Note_on_c, 0, 85, 86
1, 73680, Note_on_c, 0, 88, 102
1, 73680, Note_on_c, 0, 52, 73
1, 73680, Note_on_c, 0, 56, 73
1, 73680, Note_on_c, 0, 61, 73
1, 73680, Note_on_c, 0, 64, 87
1, 73760, Note_on_c, 0, 64, 0
1, 73760, Note_on_c, 0, 76, 0
1, 73760, Note_on_c, 0, 80, 0
1, 73760, Note_on_c, 0, 61, 0
1, 73760, Note_on_c, 0, 85, 0
1, 73760, Note_on_c, 0, 52, 0
1, 73760, Note_on_c, 0, 56, 0
1, 73760, Note_on_c, 0, 88, 0
1, 73760, Note_on_c, 0, 76, 90
1, 73760, Note_on_c, 0, 80, 90
1, 73760, Note_on_c, 0, 85, 90
1, 73760, Note_on_c, 0, 88, 106
1, 73760, Note_on_c, 0, 52, 78
1, 73760, Note_on_c, 0, 56, 78
1, 73760, Note_on_c, 0, 61, 78
1, 73760, Note_on_c, 0, 64, 92
1, 73840, Tempo, 1435750
1, 73840, Note_on_c, 0, 64, 0
1, 73840, Note_on_c, 0, 76, 0
1, 73840, Note_on_c, 0, 80, 0
1, 73840, Note_on_c, 0, 61, 0
1, 73840, Note_on_c, 0, 85, 0
1, 73840, Note_on_c, 0, 52, 0
1, 73840, Note_on_c, 0, 56, 0
1, 73840, Note_on_c, 0, 88, 0
1, 73840, Note_on_c, 0, 76, 93
1, 73840, Note_on_c, 0, 80, 93
1, 73840, Note_on_c, 0, 85, 93
1, 73840, Note_on_c, 0, 88, 111
1, 73840, Note_on_c, 0, 52, 80
1, 73840, Note_on_c, 0, 56, 80
1, 73840, Note_on_c, 0, 61, 80
1, 73840, Note_on_c, 0, 64, 95
1, 73920, Tempo, 829990
1, 73920, Note_on_c, 0, 64, 0
1, 73920, Note_on_c, 0, 76, 0
1, 73920, Note_on_c, 0, 80, 0
1, 73920, Note_on_c, 0, 61, 0
1, 73920, Note_on_c, 0, 85, 0
1, 73920, Note_on_c, 0, 52, 0
1, 73920, Note_on_c, 0, 56, 0
1, 73920, Note_on_c, 0, 88, 0
1, 73920, Note_on_c, 0, 85, 111
1, 73920, Note_on_c, 0, 97, 127
1, 73920, Note_on_c, 0, 61, 94
1, 73920, Note_on_c, 0, 73, 113
1, 74880, Note_on_c, 0, 73, 0
1, 74880, Note_on_c, 0, 37, 0
1, 74880, Note_on_c, 0, 85, 0
1, 74880, Note_on_c, 0, 25, 0
1, 74880, Note_on_c, 0, 61, 0
1, 74880, Note_on_c, 0, 97, 0
1, 76054, Control_c, 0, 64, 0
1, 76054, End_track
0, 0, End_of_file
