0, 0, Header, 0, 1, 480
1, 0, Start_track
1, 0, Title_t, "Rachmaninoff: Prelude Opus 23 Nr. 7"
1, 0, Copyright_t, "Copyright © 2013 by Bernd Krueger"
1, 0, Text_t, "Bernd Krueger"
1, 0, Text_t, "Allegro"
1, 0, Text_t, "Erstellt: 28.1.2013\012"
1, 0, Text_t, "Dauer: 2:13 Minuten\012"
1, 0, Time_signature, 4, 2, 24, 8
1, 0, Key_signature, -3, "major"
1, 0, Tempo, 332963
1, 0, Program_c, 0, 0
1, 0, Note_on_c, 0, 60, 42
1, 0, Program_c, 0, 0
1, 0, Program_c, 0, 0
1, 60, Control_c, 0, 64, 127
1, 120, Note_on_c, 0, 60, 0
1, 120, Note_on_c, 0, 63, 35
1, 240, Note_on_c, 0, 63, 0
1, 240, Note_on_c, 0, 66, 39
1, 360, Note_on_c, 0, 66, 0
1, 360, Note_on_c, 0, 67, 34
1, 480, Note_on_c, 0, 67, 0
1, 480, Note_on_c, 0, 68, 46
1, 600, Note_on_c, 0, 68, 0
1, 600, Note_on_c, 0, 67, 42
1, 720, Note_on_c, 0, 67, 0
1, 720, Note_on_c, 0, 66, 45
1, 840, Tempo, 355661
1, 840, Note_on_c, 0, 66, 0
1, 840, Note_on_c, 0, 67, 49
1, 960, Tempo, 332963
1, 960, Note_on_c, 0, 67, 0
1, 960, Note_on_c, 0, 75, 71
1, 960, Note_on_c, 0, 36, 73
1, 968, Control_c, 0, 64, 0
1, 1063, Control_c, 0, 64, 127
1, 1080, Note_on_c, 0, 74, 39
1, 1200, Note_on_c, 0, 74, 0
1, 1200, Note_on_c, 0, 72, 45
1, 1320, Note_on_c, 0, 72, 0
1, 1320, Note_on_c, 0, 67, 35
1, 1421, Tempo, 332963
1, 1440, Note_on_c, 0, 67, 0
1, 1440, Note_on_c, 0, 75, 0
1, 1440, Note_on_c, 0, 68, 42
1, 1498, Tempo, 333890
1, 1560, Note_on_c, 0, 68, 0
1, 1560, Note_on_c, 0, 67, 32
1, 1575, Tempo, 334821
1, 1651, Tempo, 335758
1, 1680, Note_on_c, 0, 67, 0
1, 1680, Note_on_c, 0, 66, 37
1, 1728, Tempo, 336700
1, 1800, Note_on_c, 0, 66, 0
1, 1800, Note_on_c, 0, 67, 32
1, 1805, Tempo, 337648
1, 1863, Tempo, 338600
1, 1901, Tempo, 337648
1, 1920, Note_on_c, 0, 67, 0
1, 1920, Note_on_c, 0, 59, 42
1, 1933, Control_c, 0, 64, 0
1, 1977, Control_c, 0, 64, 127
1, 2040, Note_on_c, 0, 59, 0
1, 2040, Note_on_c, 0, 63, 34
1, 2055, Tempo, 336700
1, 2160, Note_on_c, 0, 63, 0
1, 2160, Note_on_c, 0, 66, 38
1, 2189, Tempo, 335758
1, 2280, Note_on_c, 0, 66, 0
1, 2280, Note_on_c, 0, 67, 34
1, 2323, Tempo, 334821
1, 2400, Note_on_c, 0, 67, 0
1, 2400, Note_on_c, 0, 68, 46
1, 2458, Tempo, 333890
1, 2520, Note_on_c, 0, 68, 0
1, 2520, Note_on_c, 0, 67, 42
1, 2592, Tempo, 332963
1, 2640, Note_on_c, 0, 67, 0
1, 2640, Note_on_c, 0, 66, 45
1, 2727, Tempo, 332042
1, 2760, Tempo, 354610
1, 2760, Note_on_c, 0, 66, 0
1, 2760, Note_on_c, 0, 67, 49
1, 2880, Tempo, 333890
1, 2880, Note_on_c, 0, 67, 0
1, 2880, Note_on_c, 0, 75, 72
1, 2919, Tempo, 332042
1, 3000, Note_on_c, 0, 72, 39
1, 3053, Tempo, 332963
1, 3120, Note_on_c, 0, 72, 0
1, 3120, Note_on_c, 0, 71, 45
1, 3187, Tempo, 333890
1, 3240, Note_on_c, 0, 71, 0
1, 3240, Note_on_c, 0, 67, 37
1, 3322, Tempo, 334821
1, 3360, Note_on_c, 0, 67, 0
1, 3360, Note_on_c, 0, 75, 0
1, 3360, Note_on_c, 0, 68, 40
1, 3456, Tempo, 335758
1, 3480, Note_on_c, 0, 68, 0
1, 3480, Note_on_c, 0, 67, 33
1, 3591, Tempo, 336700
1, 3600, Note_on_c, 0, 67, 0
1, 3600, Note_on_c, 0, 66, 39
1, 3720, Note_on_c, 0, 66, 0
1, 3720, Note_on_c, 0, 67, 33
1, 3725, Tempo, 337648
1, 3840, Note_on_c, 0, 67, 0
1, 3840, Note_on_c, 0, 58, 42
1, 3849, Control_c, 0, 64, 0
1, 3859, Tempo, 338600
1, 3915, Control_c, 0, 64, 127
1, 3960, Note_on_c, 0, 58, 0
1, 3960, Note_on_c, 0, 63, 34
1, 3975, Tempo, 337648
1, 4080, Note_on_c, 0, 63, 0
1, 4080, Note_on_c, 0, 66, 39
1, 4090, Tempo, 336700
1, 4200, Note_on_c, 0, 66, 0
1, 4200, Note_on_c, 0, 67, 34
1, 4205, Tempo, 335758
1, 4320, Tempo, 334821
1, 4320, Note_on_c, 0, 67, 0
1, 4320, Note_on_c, 0, 68, 46
1, 4435, Tempo, 333890
1, 4440, Note_on_c, 0, 68, 0
1, 4440, Note_on_c, 0, 67, 42
1, 4551, Tempo, 332963
1, 4560, Note_on_c, 0, 67, 0
1, 4560, Note_on_c, 0, 66, 45
1, 4647, Tempo, 332042
1, 4680, Tempo, 351494
1, 4680, Note_on_c, 0, 66, 0
1, 4680, Note_on_c, 0, 67, 49
1, 4800, Tempo, 333890
1, 4800, Note_on_c, 0, 67, 0
1, 4800, Note_on_c, 0, 75, 67
1, 4839, Tempo, 330215
1, 4920, Note_on_c, 0, 71, 39
1, 4954, Tempo, 331126
1, 5040, Note_on_c, 0, 71, 0
1, 5040, Note_on_c, 0, 70, 42
1, 5069, Tempo, 332042
1, 5160, Note_on_c, 0, 70, 0
1, 5160, Note_on_c, 0, 67, 34
1, 5184, Tempo, 332963
1, 5280, Tempo, 333890
1, 5280, Note_on_c, 0, 67, 0
1, 5280, Note_on_c, 0, 75, 0
1, 5280, Note_on_c, 0, 68, 42
1, 5395, Tempo, 334821
1, 5400, Note_on_c, 0, 68, 0
1, 5400, Note_on_c, 0, 67, 33
1, 5511, Tempo, 335758
1, 5520, Note_on_c, 0, 67, 0
1, 5520, Note_on_c, 0, 66, 38
1, 5626, Tempo, 336700
1, 5640, Note_on_c, 0, 66, 0
1, 5640, Note_on_c, 0, 67, 34
1, 5722, Tempo, 337648
1, 5760, Note_on_c, 0, 67, 0
1, 5760, Note_on_c, 0, 36, 0
1, 5760, Note_on_c, 0, 58, 42
1, 5773, Control_c, 0, 64, 0
1, 5829, Control_c, 0, 64, 127
1, 5875, Tempo, 336700
1, 5880, Note_on_c, 0, 58, 0
1, 5880, Note_on_c, 0, 63, 35
1, 6000, Note_on_c, 0, 63, 0
1, 6000, Note_on_c, 0, 66, 39
1, 6010, Tempo, 335758
1, 6120, Note_on_c, 0, 66, 0
1, 6120, Note_on_c, 0, 67, 34
1, 6163, Tempo, 334821
1, 6240, Note_on_c, 0, 67, 0
1, 6240, Note_on_c, 0, 68, 46
1, 6298, Tempo, 333890
1, 6360, Note_on_c, 0, 68, 0
1, 6360, Note_on_c, 0, 67, 42
1, 6451, Tempo, 332963
1, 6480, Note_on_c, 0, 67, 0
1, 6480, Note_on_c, 0, 66, 45
1, 6586, Tempo, 332042
1, 6600, Tempo, 353565
1, 6600, Note_on_c, 0, 66, 0
1, 6600, Note_on_c, 0, 67, 49
1, 6720, Tempo, 332042
1, 6720, Note_on_c, 0, 67, 0
1, 6720, Note_on_c, 0, 74, 66
1, 6840, Note_on_c, 0, 72, 39
1, 6912, Tempo, 332963
1, 6960, Note_on_c, 0, 72, 0
1, 6960, Note_on_c, 0, 70, 45
1, 7080, Note_on_c, 0, 70, 0
1, 7080, Note_on_c, 0, 67, 34
1, 7085, Tempo, 333890
1, 7200, Note_on_c, 0, 67, 0
1, 7200, Note_on_c, 0, 74, 0
1, 7200, Note_on_c, 0, 68, 42
1, 7258, Tempo, 334821
1, 7320, Note_on_c, 0, 68, 0
1, 7320, Note_on_c, 0, 67, 33
1, 7431, Tempo, 335758
1, 7440, Note_on_c, 0, 67, 0
1, 7440, Note_on_c, 0, 66, 38
1, 7450, Tempo, 336700
1, 7469, Tempo, 337648
1, 7488, Tempo, 338600
1, 7507, Tempo, 339559
1, 7527, Tempo, 340522
1, 7546, Tempo, 341491
1, 7560, Note_on_c, 0, 66, 0
1, 7560, Note_on_c, 0, 67, 33
1, 7565, Tempo, 342466
1, 7584, Tempo, 343446
1, 7603, Tempo, 345423
1, 7661, Tempo, 337648
1, 7680, Note_on_c, 0, 67, 0
1, 7680, Note_on_c, 0, 58, 47
1, 7692, Control_c, 0, 64, 0
1, 7749, Control_c, 0, 64, 127
1, 7795, Tempo, 336700
1, 7800, Note_on_c, 0, 58, 0
1, 7800, Note_on_c, 0, 61, 39
1, 7911, Tempo, 335758
1, 7920, Note_on_c, 0, 61, 0
1, 7920, Note_on_c, 0, 64, 46
1, 8026, Tempo, 334821
1, 8040, Note_on_c, 0, 64, 0
1, 8040, Note_on_c, 0, 65, 41
1, 8141, Tempo, 333890
1, 8160, Note_on_c, 0, 65, 0
1, 8160, Note_on_c, 0, 66, 50
1, 8256, Tempo, 332963
1, 8280, Note_on_c, 0, 66, 0
1, 8280, Note_on_c, 0, 65, 50
1, 8371, Tempo, 332042
1, 8400, Note_on_c, 0, 65, 0
1, 8400, Note_on_c, 0, 64, 53
1, 8487, Tempo, 331126
1, 8520, Tempo, 352526
1, 8520, Note_on_c, 0, 64, 0
1, 8520, Note_on_c, 0, 65, 58
1, 8640, Tempo, 333890
1, 8640, Note_on_c, 0, 65, 0
1, 8640, Note_on_c, 0, 73, 73
1, 8640, Note_on_c, 0, 36, 87
1, 8679, Tempo, 331126
1, 8760, Note_on_c, 0, 72, 46
1, 8871, Tempo, 332042
1, 8880, Note_on_c, 0, 72, 0
1, 8880, Note_on_c, 0, 70, 53
1, 9000, Note_on_c, 0, 70, 0
1, 9000, Note_on_c, 0, 65, 42
1, 9063, Tempo, 332963
1, 9120, Note_on_c, 0, 65, 0
1, 9120, Note_on_c, 0, 73, 0
1, 9120, Note_on_c, 0, 66, 50
1, 9235, Tempo, 333890
1, 9240, Note_on_c, 0, 66, 0
1, 9240, Note_on_c, 0, 65, 38
1, 9360, Note_on_c, 0, 65, 0
1, 9360, Note_on_c, 0, 64, 44
1, 9427, Tempo, 334821
1, 9480, Note_on_c, 0, 64, 0
1, 9480, Note_on_c, 0, 65, 38
1, 9600, Tempo, 335758
1, 9600, Note_on_c, 0, 65, 0
1, 9600, Note_on_c, 0, 57, 50
1, 9611, Control_c, 0, 64, 0
1, 9663, Control_c, 0, 64, 127
1, 9720, Note_on_c, 0, 57, 0
1, 9720, Note_on_c, 0, 61, 40
1, 9792, Tempo, 334821
1, 9840, Note_on_c, 0, 61, 0
1, 9840, Note_on_c, 0, 64, 45
1, 9960, Note_on_c, 0, 64, 0
1, 9960, Note_on_c, 0, 65, 40
1, 9984, Tempo, 333890
1, 10080, Note_on_c, 0, 65, 0
1, 10080, Note_on_c, 0, 66, 55
1, 10176, Tempo, 332963
1, 10200, Note_on_c, 0, 66, 0
1, 10200, Note_on_c, 0, 65, 50
1, 10320, Note_on_c, 0, 65, 0
1, 10320, Note_on_c, 0, 64, 53
1, 10368, Tempo, 332042
1, 10440, Tempo, 351494
1, 10440, Note_on_c, 0, 64, 0
1, 10440, Note_on_c, 0, 65, 58
1, 10560, Tempo, 332963
1, 10560, Note_on_c, 0, 65, 0
1, 10560, Note_on_c, 0, 73, 77
1, 10680, Note_on_c, 0, 70, 47
1, 10771, Tempo, 333890
1, 10800, Note_on_c, 0, 70, 0
1, 10800, Note_on_c, 0, 69, 54
1, 10920, Note_on_c, 0, 69, 0
1, 10920, Note_on_c, 0, 65, 44
1, 10963, Tempo, 334821
1, 11040, Note_on_c, 0, 65, 0
1, 11040, Note_on_c, 0, 73, 0
1, 11040, Note_on_c, 0, 66, 48
1, 11160, Note_on_c, 0, 66, 0
1, 11160, Note_on_c, 0, 65, 39
1, 11175, Tempo, 335758
1, 11280, Note_on_c, 0, 65, 0
1, 11280, Note_on_c, 0, 64, 46
1, 11367, Tempo, 336700
1, 11386, Tempo, 337648
1, 11400, Note_on_c, 0, 64, 0
1, 11400, Note_on_c, 0, 65, 39
1, 11405, Tempo, 338600
1, 11424, Tempo, 339559
1, 11443, Tempo, 340522
1, 11463, Tempo, 342466
1, 11520, Tempo, 337648
1, 11520, Note_on_c, 0, 65, 0
1, 11520, Note_on_c, 0, 56, 42
1, 11531, Control_c, 0, 64, 0
1, 11600, Control_c, 0, 64, 127
1, 11640, Note_on_c, 0, 56, 0
1, 11640, Note_on_c, 0, 61, 34
1, 11693, Tempo, 336700
1, 11760, Note_on_c, 0, 61, 0
1, 11760, Note_on_c, 0, 64, 39
1, 11847, Tempo, 335758
1, 11880, Note_on_c, 0, 64, 0
1, 11880, Note_on_c, 0, 65, 34
1, 12000, Note_on_c, 0, 65, 0
1, 12000, Note_on_c, 0, 66, 46
1, 12019, Tempo, 334821
1, 12120, Note_on_c, 0, 66, 0
1, 12120, Note_on_c, 0, 65, 42
1, 12173, Tempo, 333890
1, 12240, Note_on_c, 0, 65, 0
1, 12240, Note_on_c, 0, 64, 45
1, 12327, Tempo, 332963
1, 12360, Tempo, 350467
1, 12360, Note_on_c, 0, 64, 0
1, 12360, Note_on_c, 0, 65, 49
1, 12480, Tempo, 333890
1, 12480, Note_on_c, 0, 65, 0
1, 12480, Note_on_c, 0, 73, 68
1, 12538, Tempo, 332963
1, 12600, Note_on_c, 0, 69, 39
1, 12711, Tempo, 333890
1, 12720, Note_on_c, 0, 69, 0
1, 12720, Note_on_c, 0, 68, 42
1, 12840, Note_on_c, 0, 68, 0
1, 12840, Note_on_c, 0, 65, 34
1, 12883, Tempo, 334821
1, 12960, Note_on_c, 0, 65, 0
1, 12960, Note_on_c, 0, 73, 0
1, 12960, Note_on_c, 0, 66, 42
1, 13056, Tempo, 335758
1, 13080, Note_on_c, 0, 66, 0
1, 13080, Note_on_c, 0, 65, 33
1, 13200, Note_on_c, 0, 65, 0
1, 13200, Note_on_c, 0, 64, 38
1, 13229, Tempo, 336700
1, 13320, Note_on_c, 0, 64, 0
1, 13320, Note_on_c, 0, 65, 34
1, 13402, Tempo, 337648
1, 13440, Note_on_c, 0, 65, 0
1, 13440, Note_on_c, 0, 36, 0
1, 13440, Note_on_c, 0, 56, 42
1, 13452, Control_c, 0, 64, 0
1, 13500, Control_c, 0, 64, 127
1, 13560, Note_on_c, 0, 56, 0
1, 13560, Note_on_c, 0, 60, 35
1, 13575, Tempo, 336700
1, 13680, Note_on_c, 0, 60, 0
1, 13680, Note_on_c, 0, 64, 39
1, 13728, Tempo, 335758
1, 13800, Note_on_c, 0, 64, 0
1, 13800, Note_on_c, 0, 65, 34
1, 13901, Tempo, 334821
1, 13920, Note_on_c, 0, 65, 0
1, 13920, Note_on_c, 0, 67, 46
1, 14040, Note_on_c, 0, 67, 0
1, 14040, Note_on_c, 0, 65, 42
1, 14055, Tempo, 333890
1, 14160, Note_on_c, 0, 65, 0
1, 14160, Note_on_c, 0, 64, 45
1, 14208, Tempo, 332963
1, 14280, Tempo, 349447
1, 14280, Note_on_c, 0, 64, 0
1, 14280, Note_on_c, 0, 65, 49
1, 14400, Tempo, 333890
1, 14400, Note_on_c, 0, 65, 0
1, 14400, Note_on_c, 0, 72, 67
1, 14520, Note_on_c, 0, 70, 39
1, 14640, Note_on_c, 0, 70, 0
1, 14640, Note_on_c, 0, 68, 45
1, 14760, Note_on_c, 0, 68, 0
1, 14760, Note_on_c, 0, 65, 34
1, 14880, Note_on_c, 0, 65, 0
1, 14880, Note_on_c, 0, 72, 0
1, 14880, Note_on_c, 0, 67, 42
1, 15000, Note_on_c, 0, 67, 0
1, 15000, Note_on_c, 0, 65, 33
1, 15120, Note_on_c, 0, 65, 0
1, 15120, Note_on_c, 0, 64, 38
1, 15240, Note_on_c, 0, 64, 0
1, 15240, Note_on_c, 0, 65, 33
1, 15360, Tempo, 332963
1, 15360, Note_on_c, 0, 65, 0
1, 15360, Note_on_c, 0, 56, 42
1, 15372, Control_c, 0, 64, 0
1, 15446, Control_c, 0, 64, 127
1, 15480, Note_on_c, 0, 56, 0
1, 15480, Note_on_c, 0, 59, 35
1, 15600, Note_on_c, 0, 59, 0
1, 15600, Note_on_c, 0, 61, 39
1, 15720, Note_on_c, 0, 61, 0
1, 15720, Note_on_c, 0, 62, 34
1, 15840, Note_on_c, 0, 62, 0
1, 15840, Note_on_c, 0, 63, 46
1, 15960, Note_on_c, 0, 63, 0
1, 15960, Note_on_c, 0, 62, 42
1, 16080, Note_on_c, 0, 62, 0
1, 16080, Note_on_c, 0, 61, 45
1, 16200, Tempo, 355661
1, 16200, Note_on_c, 0, 61, 0
1, 16200, Note_on_c, 0, 62, 49
1, 16320, Tempo, 332963
1, 16320, Note_on_c, 0, 62, 0
1, 16320, Note_on_c, 0, 71, 66
1, 16320, Note_on_c, 0, 36, 71
1, 16440, Note_on_c, 0, 67, 39
1, 16560, Note_on_c, 0, 67, 0
1, 16560, Note_on_c, 0, 65, 45
1, 16680, Note_on_c, 0, 65, 0
1, 16680, Note_on_c, 0, 62, 35
1, 16781, Tempo, 332963
1, 16800, Note_on_c, 0, 62, 0
1, 16800, Note_on_c, 0, 71, 0
1, 16800, Note_on_c, 0, 63, 42
1, 16858, Tempo, 333890
1, 16920, Note_on_c, 0, 63, 0
1, 16920, Note_on_c, 0, 62, 32
1, 16935, Tempo, 334821
1, 17011, Tempo, 335758
1, 17040, Note_on_c, 0, 62, 0
1, 17040, Note_on_c, 0, 61, 37
1, 17088, Tempo, 336700
1, 17160, Note_on_c, 0, 61, 0
1, 17160, Note_on_c, 0, 62, 32
1, 17165, Tempo, 337648
1, 17223, Tempo, 338600
1, 17261, Tempo, 337648
1, 17280, Note_on_c, 0, 62, 0
1, 17280, Note_on_c, 0, 36, 0
1, 17280, Note_on_c, 0, 55, 42
1, 17301, Tempo, 344432
1, 17378, Tempo, 343446
1, 17400, Note_on_c, 0, 55, 0
1, 17400, Note_on_c, 0, 62, 38
1, 17455, Tempo, 342466
1, 17520, Note_on_c, 0, 62, 0
1, 17520, Note_on_c, 0, 65, 47
1, 17532, Tempo, 337648
1, 17551, Tempo, 338600
1, 17570, Tempo, 339559
1, 17589, Tempo, 341491
1, 17609, Tempo, 342466
1, 17628, Tempo, 344432
1, 17640, Note_on_c, 0, 65, 0
1, 17640, Note_on_c, 0, 71, 55
1, 17647, Tempo, 345423
1, 17666, Tempo, 346420
1, 17685, Tempo, 348432
1, 17705, Tempo, 349447
1, 17724, Tempo, 351494
1, 17760, Tempo, 340522
1, 17760, Note_on_c, 0, 71, 0
1, 17760, Note_on_c, 0, 79, 71
1, 17777, Control_c, 0, 64, 0
1, 17801, Tempo, 337648
1, 17840, Control_c, 0, 64, 127
1, 17880, Note_on_c, 0, 72, 41
1, 18000, Note_on_c, 0, 72, 0
1, 18000, Note_on_c, 0, 71, 49
1, 18120, Note_on_c, 0, 71, 0
1, 18120, Note_on_c, 0, 67, 43
1, 18240, Note_on_c, 0, 67, 0
1, 18240, Note_on_c, 0, 65, 38
1, 18360, Note_on_c, 0, 65, 0
1, 18360, Note_on_c, 0, 63, 34
1, 18480, Note_on_c, 0, 63, 0
1, 18480, Note_on_c, 0, 67, 33
1, 18600, Note_on_c, 0, 67, 0
1, 18600, Note_on_c, 0, 68, 26
1, 18626, Tempo, 341491
1, 18703, Tempo, 342466
1, 18720, Note_on_c, 0, 68, 0
1, 18720, Note_on_c, 0, 79, 0
1, 18720, Note_on_c, 0, 80, 60
1, 18720, Note_on_c, 0, 72, 33
1, 18736, Control_c, 0, 64, 0
1, 18806, Control_c, 0, 64, 127
1, 18840, Note_on_c, 0, 71, 31
1, 18960, Note_on_c, 0, 71, 0
1, 18960, Note_on_c, 0, 72, 0
1, 18960, Note_on_c, 0, 72, 42
1, 19080, Note_on_c, 0, 72, 0
1, 19080, Note_on_c, 0, 75, 34
1, 19200, Tempo, 332963
1, 19200, Note_on_c, 0, 75, 0
1, 19200, Note_on_c, 0, 80, 0
1, 19200, Note_on_c, 0, 56, 42
1, 19212, Control_c, 0, 64, 0
1, 19286, Control_c, 0, 64, 127
1, 19320, Note_on_c, 0, 56, 0
1, 19320, Note_on_c, 0, 59, 35
1, 19440, Note_on_c, 0, 59, 0
1, 19440, Note_on_c, 0, 61, 39
1, 19560, Note_on_c, 0, 61, 0
1, 19560, Note_on_c, 0, 62, 34
1, 19680, Note_on_c, 0, 62, 0
1, 19680, Note_on_c, 0, 63, 46
1, 19800, Note_on_c, 0, 63, 0
1, 19800, Note_on_c, 0, 62, 42
1, 19920, Note_on_c, 0, 62, 0
1, 19920, Note_on_c, 0, 61, 45
1, 20040, Tempo, 355661
1, 20040, Note_on_c, 0, 61, 0
1, 20040, Note_on_c, 0, 62, 49
1, 20160, Tempo, 332963
1, 20160, Note_on_c, 0, 62, 0
1, 20160, Note_on_c, 0, 71, 66
1, 20160, Note_on_c, 0, 36, 54
1, 20280, Note_on_c, 0, 67, 39
1, 20400, Note_on_c, 0, 67, 0
1, 20400, Note_on_c, 0, 65, 45
1, 20520, Note_on_c, 0, 65, 0
1, 20520, Note_on_c, 0, 62, 35
1, 20621, Tempo, 332963
1, 20640, Note_on_c, 0, 62, 0
1, 20640, Note_on_c, 0, 71, 0
1, 20640, Note_on_c, 0, 63, 42
1, 20698, Tempo, 333890
1, 20760, Note_on_c, 0, 63, 0
1, 20760, Note_on_c, 0, 62, 32
1, 20775, Tempo, 334821
1, 20851, Tempo, 335758
1, 20880, Note_on_c, 0, 62, 0
1, 20880, Note_on_c, 0, 61, 37
1, 20928, Tempo, 336700
1, 21000, Note_on_c, 0, 61, 0
1, 21000, Note_on_c, 0, 62, 32
1, 21005, Tempo, 337648
1, 21063, Tempo, 338600
1, 21101, Tempo, 337648
1, 21120, Note_on_c, 0, 62, 0
1, 21120, Note_on_c, 0, 36, 0
1, 21120, Note_on_c, 0, 55, 42
1, 21141, Tempo, 344432
1, 21218, Tempo, 343446
1, 21240, Note_on_c, 0, 55, 0
1, 21240, Note_on_c, 0, 62, 38
1, 21295, Tempo, 342466
1, 21360, Note_on_c, 0, 62, 0
1, 21360, Note_on_c, 0, 65, 47
1, 21372, Tempo, 337648
1, 21391, Tempo, 338600
1, 21410, Tempo, 339559
1, 21429, Tempo, 341491
1, 21449, Tempo, 342466
1, 21468, Tempo, 344432
1, 21480, Note_on_c, 0, 65, 0
1, 21480, Note_on_c, 0, 71, 55
1, 21487, Tempo, 345423
1, 21506, Tempo, 346420
1, 21525, Tempo, 348432
1, 21545, Tempo, 349447
1, 21564, Tempo, 351494
1, 21600, Tempo, 340522
1, 21600, Note_on_c, 0, 71, 0
1, 21600, Note_on_c, 0, 79, 70
1, 21617, Control_c, 0, 64, 0
1, 21641, Tempo, 337648
1, 21680, Control_c, 0, 64, 127
1, 21720, Note_on_c, 0, 72, 41
1, 21840, Note_on_c, 0, 72, 0
1, 21840, Note_on_c, 0, 71, 49
1, 21960, Note_on_c, 0, 71, 0
1, 21960, Note_on_c, 0, 67, 43
1, 22080, Note_on_c, 0, 67, 0
1, 22080, Note_on_c, 0, 65, 38
1, 22200, Note_on_c, 0, 65, 0
1, 22200, Note_on_c, 0, 63, 34
1, 22320, Note_on_c, 0, 63, 0
1, 22320, Note_on_c, 0, 67, 33
1, 22440, Note_on_c, 0, 67, 0
1, 22440, Note_on_c, 0, 68, 26
1, 22466, Tempo, 341491
1, 22543, Tempo, 342466
1, 22560, Note_on_c, 0, 68, 0
1, 22560, Note_on_c, 0, 79, 0
1, 22560, Note_on_c, 0, 80, 56
1, 22560, Note_on_c, 0, 72, 33
1, 22576, Control_c, 0, 64, 0
1, 22646, Control_c, 0, 64, 127
1, 22680, Note_on_c, 0, 71, 31
1, 22737, Tempo, 343446
1, 22775, Tempo, 344432
1, 22794, Tempo, 345423
1, 22800, Note_on_c, 0, 71, 0
1, 22800, Note_on_c, 0, 72, 0
1, 22800, Note_on_c, 0, 72, 42
1, 22813, Tempo, 346420
1, 22833, Tempo, 347423
1, 22871, Tempo, 348432
1, 22890, Tempo, 349447
1, 22909, Tempo, 350467
1, 22920, Note_on_c, 0, 72, 0
1, 22920, Note_on_c, 0, 75, 34
1, 22929, Tempo, 351494
1, 22967, Tempo, 352526
1, 22986, Tempo, 353565
1, 23005, Tempo, 354610
1, 23025, Tempo, 355661
1, 23040, Tempo, 352526
1, 23040, Note_on_c, 0, 80, 0
1, 23040, Note_on_c, 0, 79, 56
1, 23040, Note_on_c, 0, 41, 30
1, 23040, Control_c, 0, 64, 0
1, 23063, Tempo, 368777
1, 23082, Tempo, 367647
1, 23101, Tempo, 366524
1, 23121, Tempo, 365408
1, 23132, Control_c, 0, 64, 127
1, 23140, Tempo, 364299
1, 23159, Tempo, 363196
1, 23160, Note_on_c, 0, 41, 0
1, 23160, Note_on_c, 0, 49, 25
1, 23178, Tempo, 362100
1, 23197, Tempo, 361011
1, 23217, Tempo, 359928
1, 23236, Tempo, 358852
1, 23255, Tempo, 357782
1, 23274, Tempo, 356718
1, 23280, Note_on_c, 0, 49, 0
1, 23280, Note_on_c, 0, 56, 26
1, 23293, Tempo, 355661
1, 23313, Tempo, 354610
1, 23332, Tempo, 353565
1, 23351, Tempo, 352526
1, 23370, Tempo, 351494
1, 23389, Tempo, 349447
1, 23400, Note_on_c, 0, 56, 0
1, 23400, Note_on_c, 0, 61, 27
1, 23520, Note_on_c, 0, 61, 0
1, 23520, Note_on_c, 0, 67, 30
1, 23640, Note_on_c, 0, 67, 0
1, 23640, Note_on_c, 0, 68, 28
1, 23760, Note_on_c, 0, 68, 0
1, 23760, Note_on_c, 0, 72, 28
1, 23877, Note_on_c, 0, 75, 0
1, 23880, Note_on_c, 0, 72, 0
1, 23880, Note_on_c, 0, 75, 35
1, 24000, Tempo, 342466
1, 24000, Note_on_c, 0, 75, 0
1, 24000, Note_on_c, 0, 79, 0
1, 24000, Note_on_c, 0, 77, 45
1, 24000, Note_on_c, 0, 73, 45
1, 24009, Control_c, 0, 64, 0
1, 24106, Control_c, 0, 64, 127
1, 24157, Tempo, 343446
1, 24160, Note_on_c, 0, 68, 32
1, 24320, Note_on_c, 0, 68, 0
1, 24320, Note_on_c, 0, 65, 32
1, 24330, Tempo, 344432
1, 24480, Note_on_c, 0, 65, 0
1, 24480, Note_on_c, 0, 68, 31
1, 24484, Tempo, 345423
1, 24580, Tempo, 346420
1, 24640, Note_on_c, 0, 68, 0
1, 24640, Note_on_c, 0, 61, 26
1, 24676, Tempo, 347423
1, 24772, Tempo, 348432
1, 24800, Note_on_c, 0, 61, 0
1, 24800, Note_on_c, 0, 56, 26
1, 24868, Tempo, 349447
1, 24945, Tempo, 350467
1, 24960, Tempo, 352526
1, 24960, Note_on_c, 0, 56, 0
1, 24960, Note_on_c, 0, 73, 0
1, 24960, Note_on_c, 0, 77, 0
1, 24960, Note_on_c, 0, 69, 41
1, 24960, Note_on_c, 0, 73, 48
1, 24960, Note_on_c, 0, 42, 30
1, 24960, Control_c, 0, 64, 0
1, 24964, Tempo, 356718
1, 25021, Tempo, 355661
1, 25052, Control_c, 0, 64, 127
1, 25060, Tempo, 354610
1, 25098, Tempo, 353565
1, 25120, Note_on_c, 0, 42, 0
1, 25120, Note_on_c, 0, 51, 25
1, 25137, Tempo, 352526
1, 25194, Tempo, 351494
1, 25233, Tempo, 350467
1, 25271, Tempo, 349447
1, 25280, Note_on_c, 0, 51, 0
1, 25280, Note_on_c, 0, 57, 26
1, 25309, Tempo, 348432
1, 25348, Tempo, 347423
1, 25440, Note_on_c, 0, 57, 0
1, 25440, Note_on_c, 0, 61, 35
1, 25560, Note_on_c, 0, 61, 0
1, 25560, Note_on_c, 0, 63, 32
1, 25680, Note_on_c, 0, 63, 0
1, 25680, Note_on_c, 0, 66, 32
1, 25800, Note_on_c, 0, 66, 0
1, 25800, Note_on_c, 0, 69, 31
1, 25920, Tempo, 342466
1, 25920, Note_on_c, 0, 69, 0
1, 25920, Note_on_c, 0, 73, 0
1, 25920, Note_on_c, 0, 69, 0
1, 25920, Note_on_c, 0, 72, 40
1, 25920, Note_on_c, 0, 68, 40
1, 25929, Control_c, 0, 64, 0
1, 26026, Control_c, 0, 64, 127
1, 26077, Tempo, 343446
1, 26080, Note_on_c, 0, 63, 28
1, 26240, Note_on_c, 0, 63, 0
1, 26240, Note_on_c, 0, 60, 28
1, 26250, Tempo, 344432
1, 26400, Note_on_c, 0, 60, 0
1, 26400, Note_on_c, 0, 63, 27
1, 26404, Tempo, 345423
1, 26500, Tempo, 346420
1, 26560, Note_on_c, 0, 63, 0
1, 26560, Note_on_c, 0, 57, 22
1, 26596, Tempo, 347423
1, 26673, Tempo, 346420
1, 26711, Tempo, 347423
1, 26720, Note_on_c, 0, 57, 0
1, 26720, Note_on_c, 0, 51, 22
1, 26750, Tempo, 348432
1, 26788, Tempo, 349447
1, 26827, Tempo, 350467
1, 26865, Tempo, 351494
1, 26880, Note_on_c, 0, 51, 0
1, 26880, Note_on_c, 0, 68, 0
1, 26880, Note_on_c, 0, 72, 0
1, 26880, Note_on_c, 0, 68, 36
1, 26880, Note_on_c, 0, 72, 36
1, 26880, Note_on_c, 0, 43, 22
1, 26880, Control_c, 0, 64, 0
1, 26903, Tempo, 359928
1, 26999, Tempo, 358852
1, 27000, Note_on_c, 0, 43, 0
1, 27000, Note_on_c, 0, 53, 22
1, 27000, Control_c, 0, 64, 127
1, 27095, Tempo, 357782
1, 27120, Note_on_c, 0, 53, 0
1, 27120, Note_on_c, 0, 60, 24
1, 27191, Tempo, 356718
1, 27240, Note_on_c, 0, 60, 0
1, 27240, Note_on_c, 0, 62, 25
1, 27287, Tempo, 355661
1, 27360, Note_on_c, 0, 62, 0
1, 27360, Note_on_c, 0, 63, 27
1, 27383, Tempo, 354610
1, 27479, Tempo, 353565
1, 27480, Note_on_c, 0, 63, 0
1, 27480, Note_on_c, 0, 62, 25
1, 27575, Tempo, 352526
1, 27600, Note_on_c, 0, 62, 0
1, 27600, Note_on_c, 0, 60, 25
1, 27720, Note_on_c, 0, 60, 0
1, 27720, Note_on_c, 0, 62, 22
1, 27840, Note_on_c, 0, 62, 0
1, 27840, Note_on_c, 0, 68, 0
1, 27840, Note_on_c, 0, 68, 32
1, 27902, Tempo, 349447
1, 27960, Note_on_c, 0, 67, 27
1, 27998, Tempo, 350467
1, 28075, Tempo, 351494
1, 28080, Note_on_c, 0, 67, 0
1, 28080, Note_on_c, 0, 65, 27
1, 28171, Tempo, 352526
1, 28200, Note_on_c, 0, 65, 0
1, 28200, Note_on_c, 0, 60, 28
1, 28247, Tempo, 353565
1, 28320, Note_on_c, 0, 60, 0
1, 28320, Note_on_c, 0, 62, 23
1, 28343, Tempo, 354610
1, 28420, Tempo, 355661
1, 28440, Note_on_c, 0, 62, 0
1, 28440, Note_on_c, 0, 60, 20
1, 28516, Tempo, 356718
1, 28560, Note_on_c, 0, 60, 0
1, 28560, Note_on_c, 0, 59, 22
1, 28593, Tempo, 357782
1, 28680, Note_on_c, 0, 59, 0
1, 28680, Note_on_c, 0, 60, 22
1, 28689, Tempo, 358852
1, 28766, Tempo, 359928
1, 28800, Tempo, 351494
1, 28800, Note_on_c, 0, 60, 0
1, 28800, Note_on_c, 0, 68, 0
1, 28800, Note_on_c, 0, 72, 0
1, 28800, Note_on_c, 0, 67, 36
1, 28800, Note_on_c, 0, 71, 36
1, 28800, Note_on_c, 0, 43, 22
1, 28804, Tempo, 365408
1, 28812, Control_c, 0, 64, 0
1, 28900, Tempo, 364299
1, 28920, Note_on_c, 0, 43, 0
1, 28920, Note_on_c, 0, 53, 22
1, 28920, Control_c, 0, 64, 127
1, 28977, Tempo, 363196
1, 29040, Note_on_c, 0, 53, 0
1, 29040, Note_on_c, 0, 59, 23
1, 29054, Tempo, 362100
1, 29131, Tempo, 361011
1, 29160, Note_on_c, 0, 59, 0
1, 29160, Note_on_c, 0, 62, 23
1, 29207, Tempo, 359928
1, 29280, Note_on_c, 0, 62, 0
1, 29280, Note_on_c, 0, 63, 25
1, 29284, Tempo, 358852
1, 29361, Tempo, 357782
1, 29400, Note_on_c, 0, 63, 0
1, 29400, Note_on_c, 0, 62, 22
1, 29438, Tempo, 356718
1, 29515, Tempo, 355661
1, 29520, Note_on_c, 0, 62, 0
1, 29520, Note_on_c, 0, 61, 22
1, 29591, Tempo, 354610
1, 29640, Note_on_c, 0, 61, 0
1, 29640, Note_on_c, 0, 62, 20
1, 29668, Tempo, 353565
1, 29745, Tempo, 352526
1, 29760, Note_on_c, 0, 62, 0
1, 29760, Note_on_c, 0, 67, 0
1, 29760, Note_on_c, 0, 67, 28
1, 29822, Tempo, 353565
1, 29837, Tempo, 351886
1, 29876, Tempo, 352920
1, 29880, Note_on_c, 0, 65, 23
1, 29914, Tempo, 353961
1, 29952, Tempo, 355009
1, 29991, Tempo, 356062
1, 30000, Note_on_c, 0, 65, 0
1, 30000, Note_on_c, 0, 62, 22
1, 30029, Tempo, 357122
1, 30048, Tempo, 358188
1, 30087, Tempo, 359260
1, 30120, Note_on_c, 0, 62, 0
1, 30120, Note_on_c, 0, 59, 23
1, 30125, Tempo, 360339
1, 30164, Tempo, 361424
1, 30202, Tempo, 362516
1, 30240, Tempo, 363614
1, 30240, Note_on_c, 0, 59, 0
1, 30240, Note_on_c, 0, 60, 22
1, 30260, Tempo, 364719
1, 30279, Tempo, 365831
1, 30298, Tempo, 368076
1, 30317, Tempo, 369208
1, 30336, Tempo, 371494
1, 30356, Tempo, 372648
1, 30360, Note_on_c, 0, 60, 0
1, 30360, Note_on_c, 0, 59, 19
1, 30375, Tempo, 374977
1, 30394, Tempo, 376152
1, 30413, Tempo, 378525
1, 30432, Tempo, 379723
1, 30452, Tempo, 382141
1, 30471, Tempo, 383362
1, 30480, Note_on_c, 0, 59, 0
1, 30480, Note_on_c, 0, 58, 21
1, 30490, Tempo, 385827
1, 30509, Tempo, 383362
1, 30528, Tempo, 384591
1, 30548, Tempo, 387072
1, 30567, Tempo, 389585
1, 30586, Tempo, 392131
1, 30600, Note_on_c, 0, 58, 0
1, 30600, Note_on_c, 0, 59, 20
1, 30605, Tempo, 393417
1, 30624, Tempo, 396013
1, 30644, Tempo, 398645
1, 30663, Tempo, 401311
1, 30682, Tempo, 404013
1, 30686, Tempo, 387847
1, 30700, Tempo, 378525
1, 30720, Note_on_c, 0, 59, 0
1, 30720, Note_on_c, 0, 67, 0
1, 30720, Note_on_c, 0, 71, 0
1, 30720, Note_on_c, 0, 60, 37
1, 30720, Note_on_c, 0, 72, 45
1, 30720, Note_on_c, 0, 84, 56
1, 30720, Control_c, 0, 64, 0
1, 30780, Control_c, 0, 64, 127
1, 30800, Tempo, 377335
1, 30840, Note_on_c, 0, 60, 0
1, 30840, Note_on_c, 0, 63, 31
1, 30900, Tempo, 376152
1, 30960, Note_on_c, 0, 63, 0
1, 30960, Note_on_c, 0, 66, 35
1, 31000, Tempo, 374977
1, 31080, Tempo, 373808
1, 31080, Note_on_c, 0, 66, 0
1, 31080, Note_on_c, 0, 67, 30
1, 31180, Tempo, 372648
1, 31200, Note_on_c, 0, 67, 0
1, 31200, Note_on_c, 0, 68, 41
1, 31280, Tempo, 371494
1, 31320, Note_on_c, 0, 68, 0
1, 31320, Note_on_c, 0, 67, 37
1, 31380, Tempo, 370348
1, 31440, Note_on_c, 0, 67, 0
1, 31440, Note_on_c, 0, 66, 40
1, 31460, Tempo, 369208
1, 31560, Tempo, 355661
1, 31560, Note_on_c, 0, 66, 0
1, 31560, Note_on_c, 0, 67, 44
1, 31680, Tempo, 349447
1, 31680, Note_on_c, 0, 67, 0
1, 31680, Note_on_c, 0, 72, 0
1, 31680, Note_on_c, 0, 75, 71
1, 31680, Note_on_c, 0, 24, 46
1, 31680, Note_on_c, 0, 36, 58
1, 31800, Note_on_c, 0, 74, 35
1, 31920, Note_on_c, 0, 74, 0
1, 31920, Note_on_c, 0, 72, 40
1, 32040, Tempo, 346801
1, 32040, Note_on_c, 0, 72, 0
1, 32040, Note_on_c, 0, 67, 31
1, 32100, Tempo, 347806
1, 32160, Tempo, 348817
1, 32160, Note_on_c, 0, 67, 0
1, 32160, Note_on_c, 0, 75, 0
1, 32160, Note_on_c, 0, 68, 37
1, 32200, Tempo, 349834
1, 32260, Tempo, 350857
1, 32280, Note_on_c, 0, 68, 0
1, 32280, Note_on_c, 0, 67, 28
1, 32320, Tempo, 351886
1, 32360, Tempo, 352920
1, 32400, Note_on_c, 0, 67, 0
1, 32400, Note_on_c, 0, 66, 33
1, 32420, Tempo, 353961
1, 32480, Tempo, 355009
1, 32520, Tempo, 356062
1, 32520, Note_on_c, 0, 66, 0
1, 32520, Note_on_c, 0, 67, 28
1, 32580, Tempo, 357122
1, 32620, Tempo, 358188
1, 32625, Tempo, 354610
1, 32640, Note_on_c, 0, 67, 0
1, 32640, Note_on_c, 0, 84, 0
1, 32640, Note_on_c, 0, 59, 37
1, 32640, Note_on_c, 0, 71, 55
1, 32640, Note_on_c, 0, 83, 69
1, 32653, Control_c, 0, 64, 0
1, 32697, Control_c, 0, 64, 127
1, 32702, Tempo, 353565
1, 32760, Note_on_c, 0, 59, 0
1, 32760, Note_on_c, 0, 63, 30
1, 32779, Tempo, 352526
1, 32836, Tempo, 351494
1, 32880, Note_on_c, 0, 63, 0
1, 32880, Note_on_c, 0, 66, 34
1, 32913, Tempo, 350467
1, 32990, Tempo, 349447
1, 33000, Note_on_c, 0, 66, 0
1, 33000, Note_on_c, 0, 67, 30
1, 33047, Tempo, 348432
1, 33120, Note_on_c, 0, 67, 0
1, 33120, Note_on_c, 0, 68, 41
1, 33124, Tempo, 347423
1, 33201, Tempo, 346420
1, 33240, Note_on_c, 0, 68, 0
1, 33240, Note_on_c, 0, 67, 37
1, 33259, Tempo, 345423
1, 33335, Tempo, 344432
1, 33360, Note_on_c, 0, 67, 0
1, 33360, Note_on_c, 0, 66, 40
1, 33412, Tempo, 343446
1, 33470, Tempo, 342466
1, 33474, Tempo, 338600
1, 33480, Tempo, 354610
1, 33480, Note_on_c, 0, 66, 0
1, 33480, Note_on_c, 0, 67, 49
1, 33600, Tempo, 333890
1, 33600, Note_on_c, 0, 67, 0
1, 33600, Note_on_c, 0, 71, 0
1, 33600, Note_on_c, 0, 75, 72
1, 33609, Tempo, 334821
1, 33623, Tempo, 336700
1, 33700, Tempo, 337648
1, 33720, Note_on_c, 0, 72, 35
1, 33758, Tempo, 338600
1, 33815, Tempo, 339559
1, 33840, Note_on_c, 0, 72, 0
1, 33840, Note_on_c, 0, 71, 40
1, 33873, Tempo, 340522
1, 33931, Tempo, 341491
1, 33960, Note_on_c, 0, 71, 0
1, 33960, Note_on_c, 0, 67, 33
1, 33988, Tempo, 342466
1, 34046, Tempo, 343446
1, 34080, Note_on_c, 0, 67, 0
1, 34080, Note_on_c, 0, 75, 0
1, 34080, Note_on_c, 0, 68, 36
1, 34103, Tempo, 344432
1, 34161, Tempo, 345423
1, 34200, Note_on_c, 0, 68, 0
1, 34200, Note_on_c, 0, 67, 29
1, 34219, Tempo, 346420
1, 34276, Tempo, 347423
1, 34320, Note_on_c, 0, 67, 0
1, 34320, Note_on_c, 0, 66, 35
1, 34334, Tempo, 348432
1, 34391, Tempo, 349447
1, 34440, Note_on_c, 0, 66, 0
1, 34440, Note_on_c, 0, 67, 29
1, 34449, Tempo, 350467
1, 34507, Tempo, 351494
1, 34545, Tempo, 349447
1, 34560, Note_on_c, 0, 67, 0
1, 34560, Note_on_c, 0, 58, 37
1, 34569, Control_c, 0, 64, 0
1, 34635, Control_c, 0, 64, 127
1, 34660, Tempo, 348432
1, 34680, Note_on_c, 0, 58, 0
1, 34680, Note_on_c, 0, 63, 30
1, 34756, Tempo, 347423
1, 34800, Note_on_c, 0, 63, 0
1, 34800, Note_on_c, 0, 66, 35
1, 34852, Tempo, 346420
1, 34920, Note_on_c, 0, 66, 0
1, 34920, Note_on_c, 0, 67, 30
1, 34948, Tempo, 345423
1, 35040, Note_on_c, 0, 67, 0
1, 35040, Note_on_c, 0, 68, 41
1, 35044, Tempo, 344432
1, 35140, Tempo, 343446
1, 35160, Note_on_c, 0, 68, 0
1, 35160, Note_on_c, 0, 67, 37
1, 35236, Tempo, 342466
1, 35280, Note_on_c, 0, 67, 0
1, 35280, Note_on_c, 0, 66, 40
1, 35332, Tempo, 341491
1, 35375, Tempo, 338600
1, 35400, Tempo, 351494
1, 35400, Note_on_c, 0, 66, 0
1, 35400, Note_on_c, 0, 67, 44
1, 35520, Tempo, 333890
1, 35520, Note_on_c, 0, 67, 0
1, 35520, Note_on_c, 0, 83, 0
1, 35520, Note_on_c, 0, 75, 67
1, 35520, Note_on_c, 0, 82, 68
1, 35520, Note_on_c, 0, 70, 54
1, 35559, Tempo, 330215
1, 35560, Tempo, 342838
1, 35620, Tempo, 343820
1, 35640, Note_on_c, 0, 71, 35
1, 35680, Tempo, 344808
1, 35740, Tempo, 345801
1, 35750, Note_on_c, 0, 70, 0
1, 35760, Note_on_c, 0, 71, 0
1, 35760, Note_on_c, 0, 70, 37
1, 35800, Tempo, 346801
1, 35840, Tempo, 347806
1, 35880, Note_on_c, 0, 70, 0
1, 35880, Note_on_c, 0, 67, 30
1, 35900, Tempo, 348817
1, 35960, Tempo, 349834
1, 36000, Note_on_c, 0, 67, 0
1, 36000, Note_on_c, 0, 75, 0
1, 36000, Note_on_c, 0, 68, 37
1, 36020, Tempo, 350857
1, 36080, Tempo, 351886
1, 36120, Tempo, 352920
1, 36120, Note_on_c, 0, 68, 0
1, 36120, Note_on_c, 0, 67, 29
1, 36180, Tempo, 353961
1, 36240, Tempo, 355009
1, 36240, Note_on_c, 0, 67, 0
1, 36240, Note_on_c, 0, 66, 34
1, 36300, Tempo, 356062
1, 36360, Tempo, 357122
1, 36360, Note_on_c, 0, 66, 0
1, 36360, Note_on_c, 0, 67, 30
1, 36400, Tempo, 353961
1, 36480, Note_on_c, 0, 67, 0
1, 36480, Note_on_c, 0, 36, 0
1, 36480, Note_on_c, 0, 24, 0
1, 36480, Note_on_c, 0, 82, 0
1, 36480, Note_on_c, 0, 58, 37
1, 36480, Note_on_c, 0, 87, 72
1, 36480, Note_on_c, 0, 75, 57
1, 36493, Control_c, 0, 64, 0
1, 36520, Tempo, 352920
1, 36549, Control_c, 0, 64, 127
1, 36600, Note_on_c, 0, 58, 0
1, 36600, Note_on_c, 0, 63, 31
1, 36620, Tempo, 351886
1, 36720, Tempo, 350857
1, 36720, Note_on_c, 0, 63, 0
1, 36720, Note_on_c, 0, 66, 35
1, 36820, Tempo, 349834
1, 36840, Note_on_c, 0, 66, 0
1, 36840, Note_on_c, 0, 67, 30
1, 36940, Tempo, 348817
1, 36960, Note_on_c, 0, 67, 0
1, 36960, Note_on_c, 0, 68, 41
1, 37040, Tempo, 347806
1, 37080, Note_on_c, 0, 68, 0
1, 37080, Note_on_c, 0, 67, 37
1, 37140, Tempo, 346801
1, 37200, Note_on_c, 0, 67, 0
1, 37200, Note_on_c, 0, 66, 40
1, 37240, Tempo, 345801
1, 37320, Note_on_c, 0, 66, 0
1, 37320, Note_on_c, 0, 67, 44
1, 37340, Tempo, 344808
1, 37440, Tempo, 332042
1, 37440, Note_on_c, 0, 67, 0
1, 37440, Note_on_c, 0, 75, 0
1, 37440, Note_on_c, 0, 87, 0
1, 37440, Note_on_c, 0, 74, 66
1, 37440, Note_on_c, 0, 86, 69
1, 37449, Tempo, 337648
1, 37560, Note_on_c, 0, 72, 35
1, 37680, Note_on_c, 0, 72, 0
1, 37680, Note_on_c, 0, 70, 40
1, 37794, Tempo, 338600
1, 37800, Note_on_c, 0, 70, 0
1, 37800, Note_on_c, 0, 67, 30
1, 37920, Note_on_c, 0, 67, 0
1, 37920, Note_on_c, 0, 68, 37
1, 38040, Note_on_c, 0, 68, 0
1, 38040, Note_on_c, 0, 67, 29
1, 38121, Tempo, 339559
1, 38159, Tempo, 340522
1, 38160, Note_on_c, 0, 67, 0
1, 38160, Note_on_c, 0, 66, 34
1, 38178, Tempo, 341491
1, 38198, Tempo, 342466
1, 38236, Tempo, 343446
1, 38255, Tempo, 344432
1, 38274, Tempo, 345423
1, 38280, Note_on_c, 0, 66, 0
1, 38280, Note_on_c, 0, 67, 29
1, 38294, Tempo, 346420
1, 38332, Tempo, 347423
1, 38351, Tempo, 348432
1, 38370, Tempo, 349447
1, 38390, Tempo, 346420
1, 38400, Note_on_c, 0, 67, 0
1, 38400, Note_on_c, 0, 86, 0
1, 38400, Note_on_c, 0, 74, 0
1, 38400, Note_on_c, 0, 58, 42
1, 38400, Note_on_c, 0, 82, 67
1, 38400, Note_on_c, 0, 70, 54
1, 38412, Control_c, 0, 64, 0
1, 38420, Tempo, 349834
1, 38469, Control_c, 0, 64, 127
1, 38520, Tempo, 348817
1, 38520, Note_on_c, 0, 58, 0
1, 38520, Note_on_c, 0, 61, 35
1, 38620, Tempo, 347806
1, 38640, Note_on_c, 0, 61, 0
1, 38640, Note_on_c, 0, 64, 41
1, 38720, Tempo, 346801
1, 38760, Note_on_c, 0, 64, 0
1, 38760, Note_on_c, 0, 65, 36
1, 38820, Tempo, 345801
1, 38880, Note_on_c, 0, 65, 0
1, 38880, Note_on_c, 0, 66, 45
1, 38920, Tempo, 344808
1, 39000, Note_on_c, 0, 66, 0
1, 39000, Note_on_c, 0, 65, 45
1, 39020, Tempo, 343820
1, 39120, Tempo, 342838
1, 39120, Note_on_c, 0, 65, 0
1, 39120, Note_on_c, 0, 64, 47
1, 39220, Tempo, 341861
1, 39240, Tempo, 352526
1, 39240, Note_on_c, 0, 64, 0
1, 39240, Note_on_c, 0, 65, 52
1, 39360, Tempo, 333890
1, 39360, Note_on_c, 0, 65, 0
1, 39360, Note_on_c, 0, 70, 0
1, 39360, Note_on_c, 0, 73, 73
1, 39360, Note_on_c, 0, 24, 49
1, 39360, Note_on_c, 0, 36, 69
1, 39369, Tempo, 335758
1, 39420, Tempo, 336116
1, 39480, Note_on_c, 0, 72, 41
1, 39520, Tempo, 337060
1, 39600, Note_on_c, 0, 72, 0
1, 39600, Note_on_c, 0, 70, 47
1, 39620, Tempo, 338009
1, 39720, Tempo, 338964
1, 39720, Note_on_c, 0, 70, 0
1, 39720, Note_on_c, 0, 65, 37
1, 39820, Tempo, 339924
1, 39840, Note_on_c, 0, 65, 0
1, 39840, Note_on_c, 0, 73, 0
1, 39840, Note_on_c, 0, 66, 45
1, 39920, Tempo, 340890
1, 39960, Note_on_c, 0, 66, 0
1, 39960, Note_on_c, 0, 65, 34
1, 40020, Tempo, 341861
1, 40080, Note_on_c, 0, 65, 0
1, 40080, Note_on_c, 0, 64, 39
1, 40120, Tempo, 342838
1, 40200, Note_on_c, 0, 64, 0
1, 40200, Note_on_c, 0, 65, 34
1, 40220, Tempo, 343820
1, 40300, Tempo, 344808
1, 40310, Tempo, 343446
1, 40320, Note_on_c, 0, 65, 0
1, 40320, Note_on_c, 0, 82, 0
1, 40320, Note_on_c, 0, 57, 45
1, 40320, Note_on_c, 0, 81, 80
1, 40320, Note_on_c, 0, 69, 64
1, 40331, Control_c, 0, 64, 0
1, 40383, Control_c, 0, 64, 127
1, 40440, Note_on_c, 0, 57, 0
1, 40440, Note_on_c, 0, 61, 36
1, 40463, Tempo, 342466
1, 40560, Note_on_c, 0, 61, 0
1, 40560, Note_on_c, 0, 64, 40
1, 40598, Tempo, 341491
1, 40680, Note_on_c, 0, 64, 0
1, 40680, Note_on_c, 0, 65, 36
1, 40732, Tempo, 340522
1, 40800, Note_on_c, 0, 65, 0
1, 40800, Note_on_c, 0, 66, 49
1, 40866, Tempo, 339559
1, 40920, Note_on_c, 0, 66, 0
1, 40920, Note_on_c, 0, 65, 45
1, 41001, Tempo, 338600
1, 41040, Note_on_c, 0, 65, 0
1, 41040, Note_on_c, 0, 64, 47
1, 41135, Tempo, 337648
1, 41160, Tempo, 351494
1, 41160, Note_on_c, 0, 64, 0
1, 41160, Note_on_c, 0, 65, 52
1, 41280, Tempo, 332963
1, 41280, Note_on_c, 0, 65, 0
1, 41280, Note_on_c, 0, 69, 0
1, 41280, Note_on_c, 0, 73, 77
1, 41400, Note_on_c, 0, 70, 42
1, 41491, Tempo, 333890
1, 41520, Note_on_c, 0, 70, 0
1, 41520, Note_on_c, 0, 69, 48
1, 41640, Note_on_c, 0, 69, 0
1, 41640, Note_on_c, 0, 65, 39
1, 41683, Tempo, 334821
1, 41760, Note_on_c, 0, 65, 0
1, 41760, Note_on_c, 0, 73, 0
1, 41760, Note_on_c, 0, 66, 43
1, 41880, Note_on_c, 0, 66, 0
1, 41880, Note_on_c, 0, 65, 35
1, 41895, Tempo, 335758
1, 42000, Note_on_c, 0, 65, 0
1, 42000, Note_on_c, 0, 64, 41
1, 42087, Tempo, 336700
1, 42106, Tempo, 337648
1, 42120, Note_on_c, 0, 64, 0
1, 42120, Note_on_c, 0, 65, 35
1, 42125, Tempo, 338600
1, 42144, Tempo, 339559
1, 42163, Tempo, 340522
1, 42183, Tempo, 342466
1, 42240, Tempo, 337648
1, 42240, Note_on_c, 0, 65, 0
1, 42240, Note_on_c, 0, 56, 37
1, 42251, Control_c, 0, 64, 0
1, 42268, Tempo, 342466
1, 42320, Control_c, 0, 64, 127
1, 42360, Note_on_c, 0, 56, 0
1, 42360, Note_on_c, 0, 61, 30
1, 42422, Tempo, 341491
1, 42480, Note_on_c, 0, 61, 0
1, 42480, Note_on_c, 0, 64, 35
1, 42575, Tempo, 340522
1, 42600, Note_on_c, 0, 64, 0
1, 42600, Note_on_c, 0, 65, 30
1, 42720, Note_on_c, 0, 65, 0
1, 42720, Note_on_c, 0, 66, 41
1, 42729, Tempo, 339559
1, 42840, Note_on_c, 0, 66, 0
1, 42840, Note_on_c, 0, 65, 37
1, 42882, Tempo, 338600
1, 42960, Note_on_c, 0, 65, 0
1, 42960, Note_on_c, 0, 64, 40
1, 43036, Tempo, 337648
1, 43047, Tempo, 332963
1, 43080, Tempo, 350467
1, 43080, Note_on_c, 0, 64, 0
1, 43080, Note_on_c, 0, 65, 44
1, 43200, Tempo, 339924
1, 43200, Note_on_c, 0, 65, 0
1, 43200, Note_on_c, 0, 81, 0
1, 43200, Note_on_c, 0, 73, 68
1, 43200, Note_on_c, 0, 80, 71
1, 43200, Note_on_c, 0, 68, 56
1, 43260, Tempo, 340890
1, 43320, Tempo, 341861
1, 43320, Note_on_c, 0, 69, 35
1, 43380, Tempo, 342838
1, 43430, Note_on_c, 0, 68, 0
1, 43440, Tempo, 343820
1, 43440, Note_on_c, 0, 69, 0
1, 43440, Note_on_c, 0, 68, 37
1, 43500, Tempo, 344808
1, 43560, Tempo, 345801
1, 43560, Note_on_c, 0, 68, 0
1, 43560, Note_on_c, 0, 65, 30
1, 43620, Tempo, 346801
1, 43680, Tempo, 347806
1, 43680, Note_on_c, 0, 65, 0
1, 43680, Note_on_c, 0, 73, 0
1, 43680, Note_on_c, 0, 66, 37
1, 43780, Tempo, 348817
1, 43800, Note_on_c, 0, 66, 0
1, 43800, Note_on_c, 0, 65, 29
1, 43860, Tempo, 349834
1, 43920, Note_on_c, 0, 65, 0
1, 43920, Note_on_c, 0, 64, 34
1, 43940, Tempo, 350857
1, 44020, Tempo, 351886
1, 44040, Note_on_c, 0, 64, 0
1, 44040, Note_on_c, 0, 65, 30
1, 44100, Tempo, 352920
1, 44160, Note_on_c, 0, 65, 0
1, 44160, Note_on_c, 0, 36, 0
1, 44160, Note_on_c, 0, 24, 0
1, 44160, Note_on_c, 0, 80, 0
1, 44160, Note_on_c, 0, 56, 37
1, 44160, Note_on_c, 0, 85, 77
1, 44160, Note_on_c, 0, 73, 61
1, 44172, Control_c, 0, 64, 0
1, 44180, Tempo, 353961
1, 44220, Control_c, 0, 64, 127
1, 44280, Tempo, 352920
1, 44280, Note_on_c, 0, 56, 0
1, 44280, Note_on_c, 0, 60, 31
1, 44380, Tempo, 351886
1, 44400, Note_on_c, 0, 60, 0
1, 44400, Note_on_c, 0, 64, 35
1, 44480, Tempo, 350857
1, 44520, Note_on_c, 0, 64, 0
1, 44520, Note_on_c, 0, 65, 30
1, 44580, Tempo, 349834
1, 44640, Note_on_c, 0, 65, 0
1, 44640, Note_on_c, 0, 67, 41
1, 44680, Tempo, 348817
1, 44760, Note_on_c, 0, 67, 0
1, 44760, Note_on_c, 0, 65, 37
1, 44780, Tempo, 347806
1, 44880, Tempo, 346801
1, 44880, Note_on_c, 0, 65, 0
1, 44880, Note_on_c, 0, 64, 40
1, 44960, Tempo, 358188
1, 44975, Tempo, 341491
1, 45000, Tempo, 357122
1, 45000, Note_on_c, 0, 64, 0
1, 45000, Note_on_c, 0, 65, 44
1, 45120, Tempo, 333890
1, 45120, Note_on_c, 0, 65, 0
1, 45120, Note_on_c, 0, 73, 0
1, 45120, Note_on_c, 0, 85, 0
1, 45120, Note_on_c, 0, 72, 65
1, 45120, Note_on_c, 0, 84, 68
1, 45129, Tempo, 339559
1, 45240, Note_on_c, 0, 70, 35
1, 45360, Note_on_c, 0, 70, 0
1, 45360, Note_on_c, 0, 68, 40
1, 45480, Note_on_c, 0, 68, 0
1, 45480, Note_on_c, 0, 65, 30
1, 45600, Note_on_c, 0, 65, 0
1, 45600, Note_on_c, 0, 67, 37
1, 45720, Note_on_c, 0, 67, 0
1, 45720, Note_on_c, 0, 65, 29
1, 45840, Note_on_c, 0, 65, 0
1, 45840, Note_on_c, 0, 64, 34
1, 45960, Note_on_c, 0, 64, 0
1, 45960, Note_on_c, 0, 65, 29
1, 46050, Tempo, 340522
1, 46080, Note_on_c, 0, 65, 0
1, 46080, Note_on_c, 0, 84, 0
1, 46080, Note_on_c, 0, 72, 0
1, 46080, Note_on_c, 0, 56, 37
1, 46080, Note_on_c, 0, 80, 71
1, 46080, Note_on_c, 0, 68, 56
1, 46092, Control_c, 0, 64, 0
1, 46166, Control_c, 0, 64, 127
1, 46200, Note_on_c, 0, 56, 0
1, 46200, Note_on_c, 0, 59, 31
1, 46319, Tempo, 339559
1, 46320, Note_on_c, 0, 59, 0
1, 46320, Note_on_c, 0, 61, 35
1, 46440, Note_on_c, 0, 61, 0
1, 46440, Note_on_c, 0, 62, 30
1, 46560, Note_on_c, 0, 62, 0
1, 46560, Note_on_c, 0, 63, 41
1, 46588, Tempo, 338600
1, 46680, Note_on_c, 0, 63, 0
1, 46680, Note_on_c, 0, 62, 37
1, 46800, Note_on_c, 0, 62, 0
1, 46800, Note_on_c, 0, 61, 40
1, 46838, Tempo, 337648
1, 46920, Tempo, 355661
1, 46920, Note_on_c, 0, 61, 0
1, 46920, Note_on_c, 0, 62, 44
1, 47040, Tempo, 332963
1, 47040, Note_on_c, 0, 62, 0
1, 47040, Note_on_c, 0, 71, 66
1, 47040, Note_on_c, 0, 36, 71
1, 47068, Tempo, 336700
1, 47160, Note_on_c, 0, 67, 35
1, 47280, Note_on_c, 0, 67, 0
1, 47280, Note_on_c, 0, 65, 40
1, 47337, Tempo, 337648
1, 47400, Note_on_c, 0, 65, 0
1, 47400, Note_on_c, 0, 62, 31
1, 47520, Note_on_c, 0, 62, 0
1, 47520, Note_on_c, 0, 71, 0
1, 47520, Note_on_c, 0, 63, 37
1, 47586, Tempo, 338600
1, 47640, Note_on_c, 0, 63, 0
1, 47640, Note_on_c, 0, 62, 28
1, 47682, Tempo, 339559
1, 47760, Note_on_c, 0, 62, 0
1, 47760, Note_on_c, 0, 61, 33
1, 47778, Tempo, 340522
1, 47855, Tempo, 341491
1, 47880, Note_on_c, 0, 61, 0
1, 47880, Note_on_c, 0, 62, 28
1, 47951, Tempo, 342466
1, 48000, Note_on_c, 0, 62, 0
1, 48000, Note_on_c, 0, 80, 0
1, 48000, Note_on_c, 0, 68, 0
1, 48000, Note_on_c, 0, 36, 0
1, 48000, Note_on_c, 0, 55, 42
1, 48028, Tempo, 343446
1, 48098, Tempo, 343446
1, 48120, Note_on_c, 0, 55, 0
1, 48120, Note_on_c, 0, 62, 38
1, 48175, Tempo, 342466
1, 48240, Note_on_c, 0, 62, 0
1, 48240, Note_on_c, 0, 65, 47
1, 48252, Tempo, 337648
1, 48271, Tempo, 338600
1, 48290, Tempo, 339559
1, 48309, Tempo, 341491
1, 48329, Tempo, 342466
1, 48348, Tempo, 344432
1, 48360, Note_on_c, 0, 65, 0
1, 48360, Note_on_c, 0, 71, 55
1, 48367, Tempo, 345423
1, 48386, Tempo, 346420
1, 48405, Tempo, 348432
1, 48425, Tempo, 349447
1, 48444, Tempo, 351494
1, 48480, Tempo, 340522
1, 48480, Note_on_c, 0, 71, 0
1, 48480, Note_on_c, 0, 79, 72
1, 48497, Control_c, 0, 64, 0
1, 48521, Tempo, 337648
1, 48560, Control_c, 0, 64, 127
1, 48600, Note_on_c, 0, 72, 41
1, 48720, Note_on_c, 0, 72, 0
1, 48720, Note_on_c, 0, 71, 49
1, 48840, Note_on_c, 0, 71, 0
1, 48840, Note_on_c, 0, 67, 43
1, 48960, Note_on_c, 0, 67, 0
1, 48960, Note_on_c, 0, 65, 38
1, 49080, Note_on_c, 0, 65, 0
1, 49080, Note_on_c, 0, 63, 34
1, 49200, Note_on_c, 0, 63, 0
1, 49200, Note_on_c, 0, 67, 33
1, 49320, Note_on_c, 0, 67, 0
1, 49320, Note_on_c, 0, 68, 26
1, 49346, Tempo, 341491
1, 49423, Tempo, 342466
1, 49440, Note_on_c, 0, 68, 0
1, 49440, Note_on_c, 0, 79, 0
1, 49440, Note_on_c, 0, 80, 61
1, 49440, Note_on_c, 0, 72, 33
1, 49456, Control_c, 0, 64, 0
1, 49526, Control_c, 0, 64, 127
1, 49560, Note_on_c, 0, 71, 31
1, 49680, Note_on_c, 0, 71, 0
1, 49680, Note_on_c, 0, 72, 0
1, 49680, Note_on_c, 0, 72, 42
1, 49800, Note_on_c, 0, 72, 0
1, 49800, Note_on_c, 0, 75, 34
1, 49917, Note_on_c, 0, 80, 0
1, 49920, Tempo, 339559
1, 49920, Note_on_c, 0, 75, 0
1, 49920, Note_on_c, 0, 56, 37
1, 49920, Note_on_c, 0, 80, 72
1, 49920, Note_on_c, 0, 68, 56
1, 49932, Control_c, 0, 64, 0
1, 50006, Control_c, 0, 64, 127
1, 50040, Note_on_c, 0, 56, 0
1, 50040, Note_on_c, 0, 59, 31
1, 50160, Note_on_c, 0, 59, 0
1, 50160, Note_on_c, 0, 61, 35
1, 50280, Note_on_c, 0, 61, 0
1, 50280, Note_on_c, 0, 62, 30
1, 50400, Note_on_c, 0, 62, 0
1, 50400, Note_on_c, 0, 63, 41
1, 50520, Note_on_c, 0, 63, 0
1, 50520, Note_on_c, 0, 62, 37
1, 50640, Note_on_c, 0, 62, 0
1, 50640, Note_on_c, 0, 61, 40
1, 50760, Tempo, 355661
1, 50760, Note_on_c, 0, 61, 0
1, 50760, Note_on_c, 0, 62, 44
1, 50880, Tempo, 340522
1, 50880, Note_on_c, 0, 62, 0
1, 50880, Note_on_c, 0, 71, 66
1, 50880, Note_on_c, 0, 36, 54
1, 51000, Note_on_c, 0, 67, 35
1, 51120, Note_on_c, 0, 67, 0
1, 51120, Note_on_c, 0, 65, 40
1, 51240, Note_on_c, 0, 65, 0
1, 51240, Note_on_c, 0, 62, 31
1, 51341, Tempo, 332963
1, 51360, Note_on_c, 0, 62, 0
1, 51360, Note_on_c, 0, 71, 0
1, 51360, Note_on_c, 0, 63, 37
1, 51393, Tempo, 336700
1, 51450, Tempo, 337648
1, 51480, Note_on_c, 0, 63, 0
1, 51480, Note_on_c, 0, 62, 28
1, 51508, Tempo, 338600
1, 51565, Tempo, 339559
1, 51600, Note_on_c, 0, 62, 0
1, 51600, Note_on_c, 0, 61, 33
1, 51623, Tempo, 340522
1, 51681, Tempo, 341491
1, 51720, Note_on_c, 0, 61, 0
1, 51720, Note_on_c, 0, 62, 28
1, 51738, Tempo, 342466
1, 51796, Tempo, 343446
1, 51834, Tempo, 344432
1, 51840, Note_on_c, 0, 62, 0
1, 51840, Note_on_c, 0, 80, 0
1, 51840, Note_on_c, 0, 68, 0
1, 51840, Note_on_c, 0, 36, 0
1, 51840, Note_on_c, 0, 55, 42
1, 51861, Tempo, 344432
1, 51938, Tempo, 343446
1, 51960, Note_on_c, 0, 55, 0
1, 51960, Note_on_c, 0, 62, 38
1, 52015, Tempo, 342466
1, 52080, Note_on_c, 0, 62, 0
1, 52080, Note_on_c, 0, 65, 47
1, 52092, Tempo, 337648
1, 52111, Tempo, 338600
1, 52130, Tempo, 339559
1, 52149, Tempo, 341491
1, 52169, Tempo, 342466
1, 52188, Tempo, 344432
1, 52200, Note_on_c, 0, 65, 0
1, 52200, Note_on_c, 0, 71, 55
1, 52207, Tempo, 345423
1, 52226, Tempo, 346420
1, 52245, Tempo, 348432
1, 52265, Tempo, 349447
1, 52284, Tempo, 351494
1, 52320, Tempo, 340522
1, 52320, Note_on_c, 0, 71, 0
1, 52320, Note_on_c, 0, 79, 66
1, 52337, Control_c, 0, 64, 0
1, 52361, Tempo, 337648
1, 52400, Control_c, 0, 64, 127
1, 52440, Note_on_c, 0, 72, 41
1, 52560, Note_on_c, 0, 72, 0
1, 52560, Note_on_c, 0, 71, 49
1, 52680, Note_on_c, 0, 71, 0
1, 52680, Note_on_c, 0, 67, 43
1, 52800, Note_on_c, 0, 67, 0
1, 52800, Note_on_c, 0, 65, 38
1, 52920, Note_on_c, 0, 65, 0
1, 52920, Note_on_c, 0, 63, 34
1, 53040, Note_on_c, 0, 63, 0
1, 53040, Note_on_c, 0, 67, 33
1, 53160, Note_on_c, 0, 67, 0
1, 53160, Note_on_c, 0, 68, 26
1, 53186, Tempo, 341491
1, 53263, Tempo, 342466
1, 53280, Note_on_c, 0, 68, 0
1, 53280, Note_on_c, 0, 79, 0
1, 53280, Note_on_c, 0, 80, 56
1, 53280, Note_on_c, 0, 72, 33
1, 53296, Control_c, 0, 64, 0
1, 53366, Control_c, 0, 64, 127
1, 53400, Note_on_c, 0, 71, 31
1, 53457, Tempo, 343446
1, 53495, Tempo, 344432
1, 53514, Tempo, 345423
1, 53520, Note_on_c, 0, 71, 0
1, 53520, Note_on_c, 0, 72, 0
1, 53520, Note_on_c, 0, 72, 42
1, 53533, Tempo, 346420
1, 53553, Tempo, 347423
1, 53591, Tempo, 348432
1, 53610, Tempo, 349447
1, 53629, Tempo, 350467
1, 53640, Note_on_c, 0, 72, 0
1, 53640, Note_on_c, 0, 75, 34
1, 53649, Tempo, 351494
1, 53687, Tempo, 352526
1, 53706, Tempo, 353565
1, 53725, Tempo, 354610
1, 53745, Tempo, 355661
1, 53760, Note_on_c, 0, 75, 0
1, 53760, Note_on_c, 0, 80, 0
1, 53760, Note_on_c, 0, 85, 74
1, 53760, Note_on_c, 0, 80, 62
1, 53760, Note_on_c, 0, 73, 62
1, 53760, Note_on_c, 0, 41, 54
1, 53760, Control_c, 0, 64, 0
1, 53823, Control_c, 0, 64, 127
1, 53880, Note_on_c, 0, 41, 0
1, 53880, Note_on_c, 0, 49, 42
1, 53922, Tempo, 342466
1, 54000, Note_on_c, 0, 49, 0
1, 54000, Note_on_c, 0, 56, 42
1, 54120, Note_on_c, 0, 56, 0
1, 54120, Note_on_c, 0, 60, 42
1, 54240, Note_on_c, 0, 60, 0
1, 54240, Note_on_c, 0, 63, 49
1, 54360, Note_on_c, 0, 63, 0
1, 54360, Note_on_c, 0, 61, 42
1, 54480, Note_on_c, 0, 61, 0
1, 54480, Note_on_c, 0, 60, 42
1, 54600, Tempo, 357782
1, 54600, Note_on_c, 0, 60, 0
1, 54600, Note_on_c, 0, 61, 42
1, 54720, Tempo, 342466
1, 54720, Note_on_c, 0, 61, 0
1, 54720, Note_on_c, 0, 65, 49
1, 54840, Note_on_c, 0, 65, 0
1, 54840, Note_on_c, 0, 56, 42
1, 54960, Note_on_c, 0, 56, 0
1, 54960, Note_on_c, 0, 61, 42
1, 55080, Note_on_c, 0, 61, 0
1, 55080, Note_on_c, 0, 65, 42
1, 55182, Tempo, 343446
1, 55200, Note_on_c, 0, 65, 0
1, 55200, Note_on_c, 0, 68, 48
1, 55262, Tempo, 344432
1, 55320, Note_on_c, 0, 68, 0
1, 55320, Note_on_c, 0, 70, 42
1, 55342, Tempo, 345423
1, 55422, Tempo, 346420
1, 55440, Note_on_c, 0, 70, 0
1, 55440, Note_on_c, 0, 72, 44
1, 55502, Tempo, 347423
1, 55550, Note_on_c, 0, 73, 0
1, 55560, Note_on_c, 0, 72, 0
1, 55560, Note_on_c, 0, 73, 46
1, 55582, Tempo, 348432
1, 55662, Tempo, 349447
1, 55680, Tempo, 355661
1, 55680, Note_on_c, 0, 73, 0
1, 55680, Note_on_c, 0, 80, 0
1, 55680, Note_on_c, 0, 85, 0
1, 55680, Note_on_c, 0, 72, 58
1, 55680, Note_on_c, 0, 84, 70
1, 55680, Note_on_c, 0, 81, 58
1, 55680, Note_on_c, 0, 75, 58
1, 55680, Note_on_c, 0, 42, 51
1, 55689, Control_c, 0, 64, 0
1, 55755, Control_c, 0, 64, 127
1, 55800, Note_on_c, 0, 42, 0
1, 55800, Note_on_c, 0, 51, 39
1, 55842, Tempo, 342466
1, 55920, Note_on_c, 0, 51, 0
1, 55920, Note_on_c, 0, 57, 39
1, 56040, Note_on_c, 0, 57, 0
1, 56040, Note_on_c, 0, 60, 39
1, 56160, Note_on_c, 0, 60, 0
1, 56160, Note_on_c, 0, 62, 45
1, 56280, Note_on_c, 0, 62, 0
1, 56280, Note_on_c, 0, 60, 38
1, 56400, Note_on_c, 0, 60, 0
1, 56400, Note_on_c, 0, 59, 37
1, 56520, Tempo, 357782
1, 56520, Note_on_c, 0, 59, 0
1, 56520, Note_on_c, 0, 60, 37
1, 56640, Tempo, 342466
1, 56640, Note_on_c, 0, 60, 0
1, 56640, Note_on_c, 0, 63, 43
1, 56760, Note_on_c, 0, 63, 0
1, 56760, Note_on_c, 0, 57, 36
1, 56880, Note_on_c, 0, 57, 0
1, 56880, Note_on_c, 0, 60, 36
1, 57000, Note_on_c, 0, 60, 0
1, 57000, Note_on_c, 0, 63, 35
1, 57102, Tempo, 343446
1, 57120, Note_on_c, 0, 63, 0
1, 57120, Note_on_c, 0, 69, 40
1, 57182, Tempo, 344432
1, 57240, Note_on_c, 0, 69, 0
1, 57240, Note_on_c, 0, 71, 34
1, 57262, Tempo, 345423
1, 57342, Tempo, 346420
1, 57350, Note_on_c, 0, 72, 0
1, 57350, Note_on_c, 0, 75, 0
1, 57360, Note_on_c, 0, 71, 0
1, 57360, Note_on_c, 0, 72, 36
1, 57422, Tempo, 347423
1, 57480, Note_on_c, 0, 72, 0
1, 57480, Note_on_c, 0, 75, 37
1, 57502, Tempo, 348432
1, 57582, Tempo, 349447
1, 57600, Tempo, 351494
1, 57600, Note_on_c, 0, 75, 0
1, 57600, Note_on_c, 0, 81, 0
1, 57600, Note_on_c, 0, 84, 0
1, 57600, Note_on_c, 0, 72, 57
1, 57600, Note_on_c, 0, 68, 57
1, 57600, Note_on_c, 0, 43, 29
1, 57600, Control_c, 0, 64, 0
1, 57623, Tempo, 359928
1, 57719, Tempo, 358852
1, 57720, Note_on_c, 0, 43, 0
1, 57720, Note_on_c, 0, 53, 29
1, 57720, Control_c, 0, 64, 127
1, 57815, Tempo, 357782
1, 57840, Note_on_c, 0, 53, 0
1, 57840, Note_on_c, 0, 56, 31
1, 57911, Tempo, 356718
1, 57960, Note_on_c, 0, 56, 0
1, 57960, Note_on_c, 0, 60, 33
1, 58007, Tempo, 355661
1, 58080, Note_on_c, 0, 60, 0
1, 58080, Note_on_c, 0, 63, 35
1, 58103, Tempo, 354610
1, 58199, Tempo, 353565
1, 58200, Note_on_c, 0, 63, 0
1, 58200, Note_on_c, 0, 62, 33
1, 58295, Tempo, 352526
1, 58320, Note_on_c, 0, 62, 0
1, 58320, Note_on_c, 0, 61, 33
1, 58440, Note_on_c, 0, 61, 0
1, 58440, Note_on_c, 0, 62, 29
1, 58560, Note_on_c, 0, 62, 0
1, 58560, Note_on_c, 0, 68, 0
1, 58560, Note_on_c, 0, 72, 0
1, 58560, Note_on_c, 0, 71, 50
1, 58560, Note_on_c, 0, 67, 50
1, 58560, Note_on_c, 0, 55, 29
1, 58560, Control_c, 0, 64, 0
1, 58622, Tempo, 349447
1, 58680, Note_on_c, 0, 55, 0
1, 58680, Note_on_c, 0, 62, 29
1, 58680, Control_c, 0, 64, 127
1, 58718, Tempo, 350467
1, 58795, Tempo, 351494
1, 58800, Note_on_c, 0, 62, 0
1, 58800, Note_on_c, 0, 65, 31
1, 58891, Tempo, 352526
1, 58920, Note_on_c, 0, 65, 0
1, 58920, Note_on_c, 0, 66, 33
1, 58967, Tempo, 353565
1, 59040, Note_on_c, 0, 66, 0
1, 59040, Note_on_c, 0, 68, 35
1, 59063, Tempo, 354610
1, 59140, Tempo, 355661
1, 59160, Note_on_c, 0, 68, 0
1, 59160, Note_on_c, 0, 67, 33
1, 59236, Tempo, 356718
1, 59280, Note_on_c, 0, 67, 0
1, 59280, Note_on_c, 0, 66, 33
1, 59313, Tempo, 357782
1, 59400, Note_on_c, 0, 66, 0
1, 59400, Note_on_c, 0, 67, 29
1, 59409, Tempo, 358852
1, 59486, Tempo, 359928
1, 59520, Tempo, 346420
1, 59520, Note_on_c, 0, 67, 0
1, 59520, Note_on_c, 0, 67, 0
1, 59520, Note_on_c, 0, 71, 0
1, 59520, Note_on_c, 0, 63, 57
1, 59520, Note_on_c, 0, 72, 57
1, 59520, Note_on_c, 0, 48, 29
1, 59582, Tempo, 344432
1, 59627, Control_c, 0, 64, 0
1, 59640, Note_on_c, 0, 48, 0
1, 59640, Note_on_c, 0, 55, 29
1, 59718, Control_c, 0, 64, 127
1, 59760, Note_on_c, 0, 55, 0
1, 59760, Note_on_c, 0, 60, 29
1, 59880, Note_on_c, 0, 60, 0
1, 59880, Note_on_c, 0, 62, 25
1, 60000, Note_on_c, 0, 62, 0
1, 60000, Note_on_c, 0, 63, 37
1, 60120, Note_on_c, 0, 63, 0
1, 60120, Note_on_c, 0, 67, 41
1, 60240, Note_on_c, 0, 67, 0
1, 60240, Note_on_c, 0, 74, 48
1, 60342, Tempo, 343446
1, 60360, Tempo, 354610
1, 60360, Note_on_c, 0, 74, 0
1, 60360, Note_on_c, 0, 72, 50
1, 60480, Tempo, 346420
1, 60480, Note_on_c, 0, 72, 0
1, 60480, Note_on_c, 0, 72, 0
1, 60480, Note_on_c, 0, 63, 0
1, 60480, Note_on_c, 0, 75, 46
1, 60542, Tempo, 342466
1, 60600, Note_on_c, 0, 75, 0
1, 60600, Note_on_c, 0, 72, 29
1, 60720, Note_on_c, 0, 72, 0
1, 60720, Note_on_c, 0, 67, 32
1, 60722, Tempo, 343446
1, 60840, Note_on_c, 0, 67, 0
1, 60840, Note_on_c, 0, 63, 29
1, 60902, Tempo, 344432
1, 60960, Note_on_c, 0, 63, 0
1, 60960, Note_on_c, 0, 60, 34
1, 61062, Tempo, 345423
1, 61080, Note_on_c, 0, 60, 0
1, 61080, Note_on_c, 0, 55, 26
1, 61200, Note_on_c, 0, 55, 0
1, 61200, Note_on_c, 0, 51, 29
1, 61242, Tempo, 346420
1, 61320, Note_on_c, 0, 51, 0
1, 61320, Note_on_c, 0, 48, 26
1, 61402, Tempo, 347423
1, 61440, Note_on_c, 0, 48, 0
1, 61440, Note_on_c, 0, 43, 32
1, 61442, Tempo, 346420
1, 61456, Control_c, 0, 64, 0
1, 61492, Control_c, 0, 64, 127
1, 61560, Note_on_c, 0, 43, 0
1, 61560, Note_on_c, 0, 50, 32
1, 61562, Tempo, 345423
1, 61680, Note_on_c, 0, 50, 0
1, 61680, Note_on_c, 0, 59, 35
1, 61682, Tempo, 344432
1, 61782, Tempo, 343446
1, 61800, Note_on_c, 0, 59, 0
1, 61800, Note_on_c, 0, 60, 40
1, 61920, Note_on_c, 0, 60, 0
1, 61920, Note_on_c, 0, 61, 44
1, 62040, Note_on_c, 0, 61, 0
1, 62040, Note_on_c, 0, 62, 49
1, 62160, Note_on_c, 0, 62, 0
1, 62160, Note_on_c, 0, 63, 54
1, 62280, Note_on_c, 0, 63, 0
1, 62280, Note_on_c, 0, 64, 61
1, 62400, Note_on_c, 0, 64, 0
1, 62400, Note_on_c, 0, 65, 61
1, 62417, Control_c, 0, 64, 0
1, 62475, Control_c, 0, 64, 127
1, 62520, Note_on_c, 0, 68, 31
1, 62640, Note_on_c, 0, 68, 0
1, 62640, Note_on_c, 0, 71, 38
1, 62760, Note_on_c, 0, 71, 0
1, 62760, Note_on_c, 0, 74, 32
1, 62880, Note_on_c, 0, 74, 0
1, 62880, Note_on_c, 0, 75, 40
1, 62962, Tempo, 342466
1, 63000, Note_on_c, 0, 75, 0
1, 63000, Note_on_c, 0, 80, 47
1, 63022, Tempo, 343446
1, 63082, Tempo, 344432
1, 63120, Note_on_c, 0, 80, 0
1, 63120, Note_on_c, 0, 74, 43
1, 63122, Tempo, 345423
1, 63182, Tempo, 346420
1, 63240, Note_on_c, 0, 74, 0
1, 63240, Note_on_c, 0, 71, 29
1, 63242, Tempo, 347423
1, 63282, Tempo, 348432
1, 63360, Tempo, 344432
1, 63360, Note_on_c, 0, 71, 0
1, 63360, Note_on_c, 0, 65, 0
1, 63360, Note_on_c, 0, 63, 53
1, 63360, Control_c, 0, 64, 0
1, 63402, Tempo, 346420
1, 63429, Control_c, 0, 64, 127
1, 63462, Tempo, 345423
1, 63480, Note_on_c, 0, 67, 29
1, 63522, Tempo, 344432
1, 63582, Tempo, 343446
1, 63600, Note_on_c, 0, 67, 0
1, 63600, Note_on_c, 0, 70, 29
1, 63642, Tempo, 342466
1, 63702, Tempo, 341491
1, 63720, Note_on_c, 0, 70, 0
1, 63720, Note_on_c, 0, 71, 30
1, 63762, Tempo, 340522
1, 63822, Tempo, 339559
1, 63840, Note_on_c, 0, 71, 0
1, 63840, Note_on_c, 0, 74, 35
1, 63859, Tempo, 339559
1, 63960, Note_on_c, 0, 74, 0
1, 63960, Note_on_c, 0, 79, 43
1, 63979, Tempo, 340522
1, 64079, Tempo, 341491
1, 64080, Note_on_c, 0, 79, 0
1, 64080, Note_on_c, 0, 72, 29
1, 64179, Tempo, 342466
1, 64200, Note_on_c, 0, 72, 0
1, 64200, Note_on_c, 0, 67, 29
1, 64279, Tempo, 343446
1, 64282, Tempo, 347423
1, 64320, Note_on_c, 0, 67, 0
1, 64320, Note_on_c, 0, 63, 0
1, 64320, Note_on_c, 0, 62, 47
1, 64334, Control_c, 0, 64, 0
1, 64342, Tempo, 343446
1, 64400, Control_c, 0, 64, 127
1, 64440, Note_on_c, 0, 65, 29
1, 64502, Tempo, 342466
1, 64560, Note_on_c, 0, 65, 0
1, 64560, Note_on_c, 0, 72, 32
1, 64642, Tempo, 341491
1, 64680, Note_on_c, 0, 72, 0
1, 64680, Note_on_c, 0, 71, 36
1, 64782, Tempo, 340522
1, 64800, Note_on_c, 0, 71, 0
1, 64800, Note_on_c, 0, 68, 38
1, 64842, Tempo, 341491
1, 64902, Tempo, 342466
1, 64920, Note_on_c, 0, 68, 0
1, 64920, Note_on_c, 0, 67, 42
1, 64962, Tempo, 343446
1, 65022, Tempo, 344432
1, 65040, Note_on_c, 0, 67, 0
1, 65040, Note_on_c, 0, 71, 34
1, 65082, Tempo, 345423
1, 65142, Tempo, 346420
1, 65160, Note_on_c, 0, 71, 0
1, 65160, Note_on_c, 0, 77, 35
1, 65202, Tempo, 347423
1, 65262, Tempo, 348432
1, 65280, Note_on_c, 0, 77, 0
1, 65280, Note_on_c, 0, 62, 0
1, 65280, Note_on_c, 0, 60, 51
1, 65282, Tempo, 344432
1, 65288, Control_c, 0, 64, 0
1, 65360, Control_c, 0, 64, 127
1, 65400, Note_on_c, 0, 63, 31
1, 65402, Tempo, 344432
1, 65520, Note_on_c, 0, 63, 0
1, 65520, Note_on_c, 0, 66, 39
1, 65542, Tempo, 343446
1, 65640, Note_on_c, 0, 66, 0
1, 65640, Note_on_c, 0, 67, 44
1, 65682, Tempo, 342466
1, 65760, Note_on_c, 0, 67, 0
1, 65760, Note_on_c, 0, 75, 53
1, 65802, Tempo, 341491
1, 65880, Note_on_c, 0, 72, 29
1, 65922, Tempo, 342466
1, 65979, Tempo, 341491
1, 66000, Note_on_c, 0, 72, 0
1, 66000, Note_on_c, 0, 70, 31
1, 66119, Tempo, 342466
1, 66120, Note_on_c, 0, 70, 0
1, 66120, Note_on_c, 0, 67, 30
1, 66240, Note_on_c, 0, 67, 0
1, 66240, Note_on_c, 0, 75, 0
1, 66240, Note_on_c, 0, 60, 0
1, 66240, Note_on_c, 0, 58, 47
1, 66253, Control_c, 0, 64, 0
1, 66259, Tempo, 343446
1, 66322, Tempo, 344432
1, 66326, Control_c, 0, 64, 127
1, 66360, Note_on_c, 0, 62, 37
1, 66480, Note_on_c, 0, 62, 0
1, 66480, Note_on_c, 0, 66, 41
1, 66502, Tempo, 343446
1, 66600, Note_on_c, 0, 66, 0
1, 66600, Note_on_c, 0, 67, 46
1, 66662, Tempo, 342466
1, 66720, Note_on_c, 0, 67, 0
1, 66720, Note_on_c, 0, 74, 53
1, 66802, Tempo, 343446
1, 66840, Note_on_c, 0, 70, 29
1, 66922, Tempo, 344432
1, 66960, Note_on_c, 0, 70, 0
1, 66960, Note_on_c, 0, 68, 29
1, 67062, Tempo, 345423
1, 67080, Note_on_c, 0, 68, 0
1, 67080, Note_on_c, 0, 67, 29
1, 67182, Tempo, 346420
1, 67200, Note_on_c, 0, 67, 0
1, 67200, Note_on_c, 0, 74, 0
1, 67200, Note_on_c, 0, 58, 0
1, 67200, Note_on_c, 0, 56, 51
1, 67216, Control_c, 0, 64, 0
1, 67242, Tempo, 340522
1, 67320, Note_on_c, 0, 60, 29
1, 67320, Control_c, 0, 64, 127
1, 67440, Note_on_c, 0, 60, 0
1, 67440, Note_on_c, 0, 63, 33
1, 67560, Note_on_c, 0, 63, 0
1, 67560, Note_on_c, 0, 72, 29
1, 67680, Note_on_c, 0, 72, 0
1, 67680, Note_on_c, 0, 56, 0
1, 67680, Note_on_c, 0, 55, 52
1, 67682, Tempo, 343446
1, 67690, Control_c, 0, 64, 0
1, 67702, Tempo, 346420
1, 67766, Control_c, 0, 64, 127
1, 67800, Note_on_c, 0, 58, 29
1, 67920, Note_on_c, 0, 58, 0
1, 67920, Note_on_c, 0, 60, 34
1, 67962, Tempo, 345423
1, 68040, Note_on_c, 0, 60, 0
1, 68040, Note_on_c, 0, 61, 29
1, 68160, Note_on_c, 0, 61, 0
1, 68160, Note_on_c, 0, 62, 38
1, 68202, Tempo, 344432
1, 68280, Note_on_c, 0, 62, 0
1, 68280, Note_on_c, 0, 65, 29
1, 68362, Tempo, 345423
1, 68400, Note_on_c, 0, 65, 0
1, 68400, Note_on_c, 0, 70, 32
1, 68520, Note_on_c, 0, 70, 0
1, 68520, Note_on_c, 0, 64, 29
1, 68522, Tempo, 346420
1, 68640, Note_on_c, 0, 64, 0
1, 68640, Note_on_c, 0, 55, 0
1, 68640, Note_on_c, 0, 53, 47
1, 68651, Control_c, 0, 64, 0
1, 68662, Tempo, 347423
1, 68703, Control_c, 0, 64, 127
1, 68760, Note_on_c, 0, 56, 29
1, 68880, Note_on_c, 0, 56, 0
1, 68880, Note_on_c, 0, 60, 34
1, 69000, Note_on_c, 0, 60, 0
1, 69000, Note_on_c, 0, 68, 29
1, 69060, Note_on_c, 0, 68, 0
1, 69060, Note_on_c, 0, 51, 39
1, 69090, Note_on_c, 0, 60, 43
1, 69120, Tempo, 347423
1, 69120, Note_on_c, 0, 53, 0
1, 69120, Note_on_c, 0, 67, 47
1, 69120, Note_on_c, 0, 31, 32
1, 69120, Note_on_c, 0, 43, 42
1, 69122, Tempo, 346420
1, 69136, Control_c, 0, 64, 0
1, 69172, Control_c, 0, 64, 127
1, 69242, Tempo, 345423
1, 69360, Note_on_c, 0, 53, 35
1, 69362, Tempo, 344432
1, 69462, Tempo, 343446
1, 69480, Note_on_c, 0, 53, 0
1, 69480, Note_on_c, 0, 54, 40
1, 69600, Note_on_c, 0, 54, 0
1, 69600, Note_on_c, 0, 67, 0
1, 69600, Note_on_c, 0, 51, 0
1, 69600, Note_on_c, 0, 60, 0
1, 69600, Note_on_c, 0, 55, 44
1, 69720, Note_on_c, 0, 55, 0
1, 69720, Note_on_c, 0, 57, 49
1, 69840, Note_on_c, 0, 57, 0
1, 69840, Note_on_c, 0, 59, 54
1, 69960, Note_on_c, 0, 59, 0
1, 69960, Note_on_c, 0, 60, 61
1, 70080, Note_on_c, 0, 60, 0
1, 70080, Note_on_c, 0, 62, 61
1, 70097, Control_c, 0, 64, 0
1, 70155, Control_c, 0, 64, 127
1, 70200, Note_on_c, 0, 65, 31
1, 70320, Note_on_c, 0, 65, 0
1, 70320, Note_on_c, 0, 67, 38
1, 70440, Note_on_c, 0, 67, 0
1, 70440, Note_on_c, 0, 71, 32
1, 70560, Note_on_c, 0, 71, 0
1, 70560, Note_on_c, 0, 72, 40
1, 70642, Tempo, 342466
1, 70680, Note_on_c, 0, 72, 0
1, 70680, Note_on_c, 0, 77, 46
1, 70800, Note_on_c, 0, 77, 0
1, 70800, Note_on_c, 0, 71, 40
1, 70920, Note_on_c, 0, 71, 0
1, 70920, Note_on_c, 0, 67, 29
1, 70962, Tempo, 348432
1, 71040, Tempo, 344432
1, 71040, Note_on_c, 0, 67, 0
1, 71040, Note_on_c, 0, 43, 0
1, 71040, Note_on_c, 0, 31, 0
1, 71040, Note_on_c, 0, 62, 0
1, 71040, Note_on_c, 0, 60, 53
1, 71040, Control_c, 0, 64, 0
1, 71082, Tempo, 346420
1, 71109, Control_c, 0, 64, 127
1, 71142, Tempo, 345423
1, 71160, Note_on_c, 0, 63, 29
1, 71202, Tempo, 344432
1, 71262, Tempo, 343446
1, 71280, Note_on_c, 0, 63, 0
1, 71280, Note_on_c, 0, 66, 29
1, 71322, Tempo, 342466
1, 71382, Tempo, 341491
1, 71400, Note_on_c, 0, 66, 0
1, 71400, Note_on_c, 0, 67, 30
1, 71442, Tempo, 340522
1, 71502, Tempo, 339559
1, 71520, Note_on_c, 0, 67, 0
1, 71520, Note_on_c, 0, 70, 35
1, 71562, Tempo, 340522
1, 71622, Tempo, 341491
1, 71640, Note_on_c, 0, 70, 0
1, 71640, Note_on_c, 0, 75, 43
1, 71682, Tempo, 342466
1, 71742, Tempo, 343446
1, 71760, Note_on_c, 0, 75, 0
1, 71760, Note_on_c, 0, 68, 29
1, 71802, Tempo, 344432
1, 71862, Tempo, 345423
1, 71880, Note_on_c, 0, 68, 0
1, 71880, Note_on_c, 0, 63, 29
1, 71922, Tempo, 346420
1, 71962, Tempo, 347423
1, 72000, Note_on_c, 0, 63, 0
1, 72000, Note_on_c, 0, 60, 0
1, 72000, Note_on_c, 0, 58, 47
1, 72014, Control_c, 0, 64, 0
1, 72022, Tempo, 343446
1, 72080, Control_c, 0, 64, 127
1, 72120, Note_on_c, 0, 62, 29
1, 72182, Tempo, 342466
1, 72240, Note_on_c, 0, 62, 0
1, 72240, Note_on_c, 0, 68, 32
1, 72322, Tempo, 341491
1, 72360, Note_on_c, 0, 68, 0
1, 72360, Note_on_c, 0, 67, 36
1, 72462, Tempo, 340522
1, 72480, Note_on_c, 0, 67, 0
1, 72480, Note_on_c, 0, 65, 38
1, 72522, Tempo, 341491
1, 72582, Tempo, 342466
1, 72600, Note_on_c, 0, 65, 0
1, 72600, Note_on_c, 0, 63, 42
1, 72642, Tempo, 343446
1, 72702, Tempo, 344432
1, 72720, Note_on_c, 0, 63, 0
1, 72720, Note_on_c, 0, 67, 34
1, 72762, Tempo, 345423
1, 72822, Tempo, 346420
1, 72840, Note_on_c, 0, 67, 0
1, 72840, Note_on_c, 0, 74, 35
1, 72882, Tempo, 347423
1, 72942, Tempo, 348432
1, 72960, Note_on_c, 0, 74, 0
1, 72960, Note_on_c, 0, 58, 0
1, 72960, Note_on_c, 0, 56, 51
1, 72962, Tempo, 344432
1, 72968, Control_c, 0, 64, 0
1, 73040, Control_c, 0, 64, 127
1, 73080, Note_on_c, 0, 60, 31
1, 73082, Tempo, 344432
1, 73200, Note_on_c, 0, 60, 0
1, 73200, Note_on_c, 0, 62, 39
1, 73222, Tempo, 343446
1, 73320, Note_on_c, 0, 62, 0
1, 73320, Note_on_c, 0, 63, 44
1, 73362, Tempo, 342466
1, 73440, Note_on_c, 0, 63, 0
1, 73440, Note_on_c, 0, 72, 52
1, 73482, Tempo, 341491
1, 73560, Note_on_c, 0, 68, 29
1, 73602, Tempo, 342466
1, 73680, Note_on_c, 0, 68, 0
1, 73680, Note_on_c, 0, 65, 31
1, 73702, Tempo, 343446
1, 73800, Note_on_c, 0, 65, 0
1, 73800, Note_on_c, 0, 63, 30
1, 73822, Tempo, 344432
1, 73920, Note_on_c, 0, 63, 0
1, 73920, Note_on_c, 0, 72, 0
1, 73920, Note_on_c, 0, 56, 0
1, 73920, Note_on_c, 0, 55, 47
1, 73922, Tempo, 345423
1, 73933, Control_c, 0, 64, 0
1, 74002, Tempo, 344432
1, 74006, Control_c, 0, 64, 127
1, 74040, Note_on_c, 0, 58, 37
1, 74160, Note_on_c, 0, 58, 0
1, 74160, Note_on_c, 0, 62, 41
1, 74182, Tempo, 343446
1, 74280, Note_on_c, 0, 62, 0
1, 74280, Note_on_c, 0, 63, 46
1, 74342, Tempo, 342466
1, 74400, Note_on_c, 0, 63, 0
1, 74400, Note_on_c, 0, 70, 53
1, 74482, Tempo, 343446
1, 74520, Note_on_c, 0, 67, 29
1, 74602, Tempo, 344432
1, 74640, Note_on_c, 0, 67, 0
1, 74640, Note_on_c, 0, 65, 29
1, 74742, Tempo, 345423
1, 74760, Note_on_c, 0, 65, 0
1, 74760, Note_on_c, 0, 63, 29
1, 74862, Tempo, 346420
1, 74880, Note_on_c, 0, 63, 0
1, 74880, Note_on_c, 0, 70, 0
1, 74880, Note_on_c, 0, 55, 0
1, 74880, Note_on_c, 0, 53, 51
1, 74896, Control_c, 0, 64, 0
1, 74922, Tempo, 340522
1, 75000, Note_on_c, 0, 56, 29
1, 75000, Control_c, 0, 64, 127
1, 75120, Note_on_c, 0, 56, 0
1, 75120, Note_on_c, 0, 60, 33
1, 75240, Note_on_c, 0, 60, 0
1, 75240, Note_on_c, 0, 68, 29
1, 75360, Note_on_c, 0, 68, 0
1, 75360, Note_on_c, 0, 53, 0
1, 75360, Note_on_c, 0, 51, 52
1, 75362, Tempo, 343446
1, 75370, Control_c, 0, 64, 0
1, 75382, Tempo, 346420
1, 75446, Control_c, 0, 64, 127
1, 75480, Note_on_c, 0, 55, 29
1, 75600, Note_on_c, 0, 55, 0
1, 75600, Note_on_c, 0, 57, 34
1, 75642, Tempo, 345423
1, 75720, Note_on_c, 0, 57, 0
1, 75720, Note_on_c, 0, 58, 29
1, 75840, Note_on_c, 0, 58, 0
1, 75840, Note_on_c, 0, 59, 38
1, 75882, Tempo, 344432
1, 75960, Note_on_c, 0, 59, 0
1, 75960, Note_on_c, 0, 62, 29
1, 76042, Tempo, 345423
1, 76080, Note_on_c, 0, 62, 0
1, 76080, Note_on_c, 0, 67, 32
1, 76200, Note_on_c, 0, 67, 0
1, 76200, Note_on_c, 0, 60, 29
1, 76202, Tempo, 346420
1, 76320, Note_on_c, 0, 60, 0
1, 76320, Note_on_c, 0, 51, 0
1, 76320, Note_on_c, 0, 49, 47
1, 76331, Control_c, 0, 64, 0
1, 76342, Tempo, 347423
1, 76383, Control_c, 0, 64, 127
1, 76440, Note_on_c, 0, 55, 29
1, 76560, Note_on_c, 0, 55, 0
1, 76560, Note_on_c, 0, 58, 34
1, 76680, Note_on_c, 0, 58, 0
1, 76680, Note_on_c, 0, 64, 29
1, 76740, Tempo, 347423
1, 76740, Note_on_c, 0, 64, 0
1, 76740, Note_on_c, 0, 48, 37
1, 76770, Note_on_c, 0, 56, 42
1, 76800, Tempo, 347423
1, 76800, Note_on_c, 0, 49, 0
1, 76800, Note_on_c, 0, 65, 47
1, 76800, Note_on_c, 0, 29, 32
1, 76800, Note_on_c, 0, 41, 42
1, 76802, Tempo, 346420
1, 76816, Control_c, 0, 64, 0
1, 76852, Control_c, 0, 64, 127
1, 76922, Tempo, 345423
1, 77040, Note_on_c, 0, 50, 38
1, 77042, Tempo, 344432
1, 77142, Tempo, 343446
1, 77160, Note_on_c, 0, 50, 0
1, 77160, Note_on_c, 0, 52, 43
1, 77280, Note_on_c, 0, 52, 0
1, 77280, Note_on_c, 0, 65, 0
1, 77280, Note_on_c, 0, 48, 0
1, 77280, Note_on_c, 0, 56, 0
1, 77280, Note_on_c, 0, 53, 46
1, 77400, Note_on_c, 0, 53, 0
1, 77400, Note_on_c, 0, 55, 48
1, 77520, Note_on_c, 0, 55, 0
1, 77520, Note_on_c, 0, 56, 49
1, 77640, Note_on_c, 0, 56, 0
1, 77640, Note_on_c, 0, 57, 50
1, 77760, Note_on_c, 0, 57, 0
1, 77760, Note_on_c, 0, 58, 58
1, 77777, Control_c, 0, 64, 0
1, 77835, Control_c, 0, 64, 127
1, 77880, Note_on_c, 0, 61, 31
1, 78000, Note_on_c, 0, 61, 0
1, 78000, Note_on_c, 0, 64, 38
1, 78120, Note_on_c, 0, 64, 0
1, 78120, Note_on_c, 0, 67, 32
1, 78240, Note_on_c, 0, 67, 0
1, 78240, Note_on_c, 0, 68, 40
1, 78322, Tempo, 342466
1, 78360, Note_on_c, 0, 68, 0
1, 78360, Note_on_c, 0, 73, 50
1, 78480, Note_on_c, 0, 73, 0
1, 78480, Note_on_c, 0, 58, 0
1, 78480, Note_on_c, 0, 67, 43
1, 78480, Note_on_c, 0, 60, 47
1, 78600, Note_on_c, 0, 67, 0
1, 78600, Note_on_c, 0, 64, 29
1, 78720, Tempo, 341491
1, 78720, Note_on_c, 0, 64, 0
1, 78720, Note_on_c, 0, 60, 0
1, 78720, Note_on_c, 0, 29, 0
1, 78720, Note_on_c, 0, 41, 0
1, 78720, Note_on_c, 0, 56, 53
1, 78720, Control_c, 0, 64, 0
1, 78789, Control_c, 0, 64, 127
1, 78840, Note_on_c, 0, 60, 29
1, 78960, Note_on_c, 0, 60, 0
1, 78960, Note_on_c, 0, 63, 29
1, 79080, Note_on_c, 0, 63, 0
1, 79080, Note_on_c, 0, 64, 30
1, 79200, Note_on_c, 0, 64, 0
1, 79200, Note_on_c, 0, 67, 35
1, 79242, Tempo, 340522
1, 79302, Tempo, 341491
1, 79320, Note_on_c, 0, 67, 0
1, 79320, Note_on_c, 0, 72, 43
1, 79362, Tempo, 342466
1, 79440, Note_on_c, 0, 72, 0
1, 79440, Note_on_c, 0, 65, 29
1, 79560, Note_on_c, 0, 65, 0
1, 79560, Note_on_c, 0, 60, 29
1, 79680, Note_on_c, 0, 60, 0
1, 79680, Note_on_c, 0, 56, 0
1, 79680, Note_on_c, 0, 55, 47
1, 79694, Control_c, 0, 64, 0
1, 79760, Control_c, 0, 64, 127
1, 79800, Note_on_c, 0, 58, 29
1, 79920, Note_on_c, 0, 58, 0
1, 79920, Note_on_c, 0, 65, 32
1, 80040, Note_on_c, 0, 65, 0
1, 80040, Note_on_c, 0, 64, 36
1, 80160, Note_on_c, 0, 64, 0
1, 80160, Note_on_c, 0, 61, 38
1, 80202, Tempo, 341491
1, 80262, Tempo, 342466
1, 80280, Note_on_c, 0, 61, 0
1, 80280, Note_on_c, 0, 60, 42
1, 80322, Tempo, 343446
1, 80382, Tempo, 344432
1, 80400, Note_on_c, 0, 60, 0
1, 80400, Note_on_c, 0, 64, 34
1, 80442, Tempo, 345423
1, 80502, Tempo, 346420
1, 80520, Note_on_c, 0, 64, 0
1, 80520, Note_on_c, 0, 70, 35
1, 80562, Tempo, 347423
1, 80622, Tempo, 348432
1, 80640, Note_on_c, 0, 70, 0
1, 80640, Note_on_c, 0, 55, 0
1, 80640, Note_on_c, 0, 53, 51
1, 80642, Tempo, 344432
1, 80648, Control_c, 0, 64, 0
1, 80720, Control_c, 0, 64, 127
1, 80760, Note_on_c, 0, 56, 33
1, 80762, Tempo, 344432
1, 80880, Note_on_c, 0, 56, 0
1, 80880, Note_on_c, 0, 59, 36
1, 80902, Tempo, 343446
1, 81000, Note_on_c, 0, 59, 0
1, 81000, Note_on_c, 0, 60, 35
1, 81042, Tempo, 342466
1, 81120, Note_on_c, 0, 60, 0
1, 81120, Note_on_c, 0, 68, 42
1, 81162, Tempo, 341491
1, 81240, Note_on_c, 0, 65, 29
1, 81282, Tempo, 342466
1, 81360, Note_on_c, 0, 65, 0
1, 81360, Note_on_c, 0, 61, 31
1, 81382, Tempo, 343446
1, 81480, Note_on_c, 0, 61, 0
1, 81480, Note_on_c, 0, 60, 30
1, 81502, Tempo, 344432
1, 81600, Note_on_c, 0, 60, 0
1, 81600, Note_on_c, 0, 68, 0
1, 81600, Note_on_c, 0, 53, 0
1, 81600, Note_on_c, 0, 51, 47
1, 81602, Tempo, 345423
1, 81613, Control_c, 0, 64, 0
1, 81682, Tempo, 344432
1, 81686, Control_c, 0, 64, 127
1, 81720, Note_on_c, 0, 55, 34
1, 81840, Note_on_c, 0, 55, 0
1, 81840, Note_on_c, 0, 59, 37
1, 81862, Tempo, 343446
1, 81960, Note_on_c, 0, 59, 0
1, 81960, Note_on_c, 0, 60, 33
1, 82022, Tempo, 342466
1, 82080, Note_on_c, 0, 60, 0
1, 82080, Note_on_c, 0, 67, 41
1, 82162, Tempo, 343446
1, 82200, Note_on_c, 0, 63, 29
1, 82282, Tempo, 344432
1, 82320, Note_on_c, 0, 63, 0
1, 82320, Note_on_c, 0, 62, 29
1, 82422, Tempo, 345423
1, 82440, Note_on_c, 0, 62, 0
1, 82440, Note_on_c, 0, 60, 29
1, 82522, Tempo, 346420
1, 82560, Tempo, 351494
1, 82560, Note_on_c, 0, 60, 0
1, 82560, Note_on_c, 0, 67, 0
1, 82560, Note_on_c, 0, 51, 0
1, 82560, Note_on_c, 0, 50, 51
1, 82576, Control_c, 0, 64, 0
1, 82622, Tempo, 347423
1, 82680, Note_on_c, 0, 53, 29
1, 82680, Control_c, 0, 64, 127
1, 82702, Tempo, 348432
1, 82800, Note_on_c, 0, 53, 0
1, 82800, Note_on_c, 0, 56, 33
1, 82802, Tempo, 349447
1, 82882, Tempo, 350467
1, 82920, Note_on_c, 0, 56, 0
1, 82920, Note_on_c, 0, 65, 29
1, 83040, Note_on_c, 0, 65, 0
1, 83040, Note_on_c, 0, 50, 0
1, 83040, Note_on_c, 0, 48, 58
1, 83050, Control_c, 0, 64, 0
1, 83126, Control_c, 0, 64, 127
1, 83160, Note_on_c, 0, 51, 29
1, 83280, Note_on_c, 0, 51, 0
1, 83280, Note_on_c, 0, 53, 34
1, 83400, Note_on_c, 0, 53, 0
1, 83400, Note_on_c, 0, 54, 29
1, 83520, Note_on_c, 0, 54, 0
1, 83520, Note_on_c, 0, 55, 38
1, 83640, Note_on_c, 0, 55, 0
1, 83640, Note_on_c, 0, 58, 29
1, 83722, Tempo, 345423
1, 83760, Tempo, 352526
1, 83760, Note_on_c, 0, 58, 0
1, 83760, Note_on_c, 0, 63, 35
1, 83880, Note_on_c, 0, 63, 0
1, 83880, Note_on_c, 0, 56, 29
1, 84000, Note_on_c, 0, 56, 0
1, 84000, Note_on_c, 0, 48, 0
1, 84000, Note_on_c, 0, 44, 68
1, 84011, Control_c, 0, 64, 0
1, 84063, Control_c, 0, 64, 127
1, 84120, Note_on_c, 0, 48, 33
1, 84240, Note_on_c, 0, 48, 0
1, 84240, Note_on_c, 0, 53, 43
1, 84360, Note_on_c, 0, 53, 0
1, 84360, Note_on_c, 0, 60, 34
1, 84480, Tempo, 350467
1, 84480, Note_on_c, 0, 60, 0
1, 84480, Note_on_c, 0, 44, 0
1, 84480, Note_on_c, 0, 47, 90
1, 84480, Note_on_c, 0, 29, 74
1, 84480, Note_on_c, 0, 41, 74
1, 84480, Control_c, 0, 64, 0
1, 84537, Control_c, 0, 64, 127
1, 84694, Tempo, 346420
1, 84720, Note_on_c, 0, 50, 40
1, 84754, Tempo, 345423
1, 84814, Tempo, 344432
1, 84840, Note_on_c, 0, 50, 0
1, 84840, Note_on_c, 0, 56, 41
1, 84874, Tempo, 343446
1, 84934, Tempo, 342466
1, 84960, Note_on_c, 0, 56, 0
1, 84960, Note_on_c, 0, 58, 44
1, 84974, Tempo, 341491
1, 85034, Tempo, 340522
1, 85080, Note_on_c, 0, 58, 0
1, 85080, Note_on_c, 0, 59, 53
1, 85094, Tempo, 339559
1, 85154, Tempo, 338600
1, 85194, Tempo, 337648
1, 85200, Note_on_c, 0, 59, 0
1, 85200, Note_on_c, 0, 62, 55
1, 85320, Note_on_c, 0, 62, 0
1, 85320, Note_on_c, 0, 68, 56
1, 85440, Note_on_c, 0, 68, 0
1, 85440, Note_on_c, 0, 74, 71
1, 85560, Note_on_c, 0, 68, 58
1, 85680, Note_on_c, 0, 68, 0
1, 85680, Note_on_c, 0, 62, 57
1, 85734, Tempo, 336700
1, 85794, Tempo, 337648
1, 85800, Note_on_c, 0, 62, 0
1, 85800, Note_on_c, 0, 58, 57
1, 85834, Tempo, 338600
1, 85894, Tempo, 339559
1, 85920, Note_on_c, 0, 58, 0
1, 85920, Note_on_c, 0, 59, 57
1, 85934, Tempo, 340522
1, 85974, Tempo, 341491
1, 86034, Tempo, 342466
1, 86040, Note_on_c, 0, 59, 0
1, 86040, Note_on_c, 0, 56, 55
1, 86074, Tempo, 343446
1, 86134, Tempo, 344432
1, 86160, Note_on_c, 0, 56, 0
1, 86160, Note_on_c, 0, 50, 48
1, 86174, Tempo, 345423
1, 86214, Tempo, 346420
1, 86274, Tempo, 347423
1, 86280, Tempo, 371058
1, 86280, Note_on_c, 0, 50, 0
1, 86280, Note_on_c, 0, 41, 48
1, 86400, Tempo, 350467
1, 86400, Note_on_c, 0, 41, 0
1, 86400, Note_on_c, 0, 41, 0
1, 86400, Note_on_c, 0, 47, 0
1, 86400, Note_on_c, 0, 29, 0
1, 86400, Note_on_c, 0, 74, 0
1, 86400, Note_on_c, 0, 48, 90
1, 86400, Note_on_c, 0, 30, 74
1, 86400, Note_on_c, 0, 42, 74
1, 86400, Control_c, 0, 64, 0
1, 86457, Control_c, 0, 64, 127
1, 86614, Tempo, 346420
1, 86640, Note_on_c, 0, 51, 40
1, 86674, Tempo, 345423
1, 86734, Tempo, 344432
1, 86760, Note_on_c, 0, 51, 0
1, 86760, Note_on_c, 0, 57, 41
1, 86794, Tempo, 343446
1, 86854, Tempo, 342466
1, 86880, Note_on_c, 0, 57, 0
1, 86880, Note_on_c, 0, 59, 44
1, 86894, Tempo, 341491
1, 86954, Tempo, 340522
1, 87000, Note_on_c, 0, 59, 0
1, 87000, Note_on_c, 0, 60, 54
1, 87014, Tempo, 339559
1, 87074, Tempo, 338600
1, 87114, Tempo, 337648
1, 87120, Note_on_c, 0, 60, 0
1, 87120, Note_on_c, 0, 63, 58
1, 87240, Note_on_c, 0, 63, 0
1, 87240, Note_on_c, 0, 69, 61
1, 87360, Note_on_c, 0, 69, 0
1, 87360, Note_on_c, 0, 75, 71
1, 87480, Note_on_c, 0, 69, 57
1, 87600, Note_on_c, 0, 69, 0
1, 87600, Note_on_c, 0, 63, 56
1, 87654, Tempo, 336700
1, 87714, Tempo, 337648
1, 87720, Note_on_c, 0, 63, 0
1, 87720, Note_on_c, 0, 59, 53
1, 87754, Tempo, 338600
1, 87814, Tempo, 339559
1, 87840, Note_on_c, 0, 59, 0
1, 87840, Note_on_c, 0, 60, 48
1, 87854, Tempo, 340522
1, 87894, Tempo, 341491
1, 87954, Tempo, 342466
1, 87960, Note_on_c, 0, 60, 0
1, 87960, Note_on_c, 0, 57, 48
1, 87994, Tempo, 343446
1, 88054, Tempo, 344432
1, 88080, Note_on_c, 0, 57, 0
1, 88080, Note_on_c, 0, 51, 48
1, 88094, Tempo, 345423
1, 88134, Tempo, 346420
1, 88200, Tempo, 373367
1, 88200, Note_on_c, 0, 51, 0
1, 88200, Note_on_c, 0, 41, 48
1, 88320, Tempo, 350467
1, 88320, Note_on_c, 0, 41, 0
1, 88320, Note_on_c, 0, 42, 0
1, 88320, Note_on_c, 0, 48, 0
1, 88320, Note_on_c, 0, 30, 0
1, 88320, Note_on_c, 0, 75, 0
1, 88320, Note_on_c, 0, 50, 90
1, 88320, Note_on_c, 0, 31, 74
1, 88320, Note_on_c, 0, 43, 74
1, 88320, Control_c, 0, 64, 0
1, 88377, Control_c, 0, 64, 127
1, 88534, Tempo, 346420
1, 88560, Note_on_c, 0, 53, 40
1, 88594, Tempo, 345423
1, 88654, Tempo, 344432
1, 88680, Note_on_c, 0, 53, 0
1, 88680, Note_on_c, 0, 58, 41
1, 88714, Tempo, 343446
1, 88774, Tempo, 342466
1, 88800, Note_on_c, 0, 58, 0
1, 88800, Note_on_c, 0, 59, 44
1, 88814, Tempo, 341491
1, 88874, Tempo, 340522
1, 88920, Note_on_c, 0, 59, 0
1, 88920, Note_on_c, 0, 61, 55
1, 88934, Tempo, 339559
1, 88994, Tempo, 338600
1, 89034, Tempo, 337648
1, 89040, Note_on_c, 0, 61, 0
1, 89040, Note_on_c, 0, 62, 59
1, 89160, Note_on_c, 0, 62, 0
1, 89160, Note_on_c, 0, 65, 62
1, 89280, Note_on_c, 0, 65, 0
1, 89280, Note_on_c, 0, 71, 73
1, 89400, Note_on_c, 0, 65, 58
1, 89520, Note_on_c, 0, 65, 0
1, 89520, Note_on_c, 0, 62, 58
1, 89574, Tempo, 336700
1, 89634, Tempo, 337648
1, 89640, Note_on_c, 0, 62, 0
1, 89640, Note_on_c, 0, 60, 55
1, 89674, Tempo, 338600
1, 89734, Tempo, 339559
1, 89742, Tempo, 346420
1, 89760, Note_on_c, 0, 60, 0
1, 89760, Note_on_c, 0, 43, 0
1, 89760, Note_on_c, 0, 31, 0
1, 89760, Note_on_c, 0, 62, 49
1, 89760, Note_on_c, 0, 32, 61
1, 89760, Note_on_c, 0, 44, 79
1, 89802, Tempo, 347423
1, 89862, Tempo, 348432
1, 89880, Note_on_c, 0, 62, 0
1, 89880, Note_on_c, 0, 59, 50
1, 89922, Tempo, 349447
1, 89982, Tempo, 350467
1, 90000, Note_on_c, 0, 59, 0
1, 90000, Note_on_c, 0, 53, 50
1, 90042, Tempo, 351494
1, 90102, Tempo, 352526
1, 90120, Tempo, 373367
1, 90120, Note_on_c, 0, 53, 0
1, 90120, Note_on_c, 0, 50, 50
1, 90240, Tempo, 350467
1, 90240, Note_on_c, 0, 50, 0
1, 90240, Note_on_c, 0, 44, 0
1, 90240, Note_on_c, 0, 71, 0
1, 90240, Note_on_c, 0, 50, 0
1, 90240, Note_on_c, 0, 32, 0
1, 90240, Note_on_c, 0, 51, 95
1, 90240, Note_on_c, 0, 33, 78
1, 90240, Note_on_c, 0, 45, 78
1, 90240, Control_c, 0, 64, 0
1, 90297, Control_c, 0, 64, 127
1, 90454, Tempo, 346420
1, 90480, Note_on_c, 0, 54, 42
1, 90514, Tempo, 345423
1, 90574, Tempo, 344432
1, 90600, Note_on_c, 0, 54, 0
1, 90600, Note_on_c, 0, 59, 43
1, 90634, Tempo, 343446
1, 90694, Tempo, 342466
1, 90720, Note_on_c, 0, 59, 0
1, 90720, Note_on_c, 0, 60, 47
1, 90734, Tempo, 341491
1, 90794, Tempo, 340522
1, 90840, Note_on_c, 0, 60, 0
1, 90840, Note_on_c, 0, 62, 58
1, 90854, Tempo, 339559
1, 90914, Tempo, 338600
1, 90954, Tempo, 337648
1, 90960, Note_on_c, 0, 62, 0
1, 90960, Note_on_c, 0, 63, 63
1, 91080, Note_on_c, 0, 63, 0
1, 91080, Note_on_c, 0, 66, 66
1, 91200, Note_on_c, 0, 66, 0
1, 91200, Note_on_c, 0, 72, 77
1, 91320, Note_on_c, 0, 66, 62
1, 91440, Note_on_c, 0, 66, 0
1, 91440, Note_on_c, 0, 63, 61
1, 91494, Tempo, 336700
1, 91554, Tempo, 337648
1, 91560, Note_on_c, 0, 63, 0
1, 91560, Note_on_c, 0, 62, 58
1, 91594, Tempo, 338600
1, 91654, Tempo, 339924
1, 91674, Tempo, 340890
1, 91680, Note_on_c, 0, 62, 0
1, 91680, Note_on_c, 0, 63, 53
1, 91694, Tempo, 341861
1, 91714, Tempo, 342838
1, 91734, Tempo, 344808
1, 91754, Tempo, 345801
1, 91774, Tempo, 346801
1, 91794, Tempo, 348817
1, 91800, Note_on_c, 0, 63, 0
1, 91800, Note_on_c, 0, 60, 53
1, 91814, Tempo, 349834
1, 91834, Tempo, 350857
1, 91854, Tempo, 352920
1, 91874, Tempo, 353961
1, 91894, Tempo, 355009
1, 91914, Tempo, 357122
1, 91920, Note_on_c, 0, 60, 0
1, 91920, Note_on_c, 0, 54, 53
1, 91934, Tempo, 358188
1, 91954, Tempo, 359260
1, 91974, Tempo, 361424
1, 92040, Tempo, 612182
1, 92040, Note_on_c, 0, 54, 0
1, 92040, Note_on_c, 0, 51, 53
1, 92160, Tempo, 349447
1, 92160, Note_on_c, 0, 51, 0
1, 92160, Note_on_c, 0, 45, 0
1, 92160, Note_on_c, 0, 51, 0
1, 92160, Note_on_c, 0, 33, 0
1, 92160, Note_on_c, 0, 72, 0
1, 92160, Note_on_c, 0, 27, 83
1, 92160, Note_on_c, 0, 39, 83
1, 92160, Note_on_c, 0, 55, 102
1, 92160, Control_c, 0, 64, 0
1, 92280, Note_on_c, 0, 46, 48
1, 92280, Control_c, 0, 64, 127
1, 92400, Note_on_c, 0, 46, 0
1, 92400, Note_on_c, 0, 55, 0
1, 92400, Note_on_c, 0, 51, 52
1, 92422, Tempo, 346420
1, 92520, Note_on_c, 0, 51, 0
1, 92520, Note_on_c, 0, 55, 55
1, 92542, Tempo, 345423
1, 92640, Note_on_c, 0, 55, 0
1, 92640, Note_on_c, 0, 67, 49
1, 92640, Note_on_c, 0, 58, 60
1, 92662, Tempo, 344432
1, 92760, Note_on_c, 0, 58, 0
1, 92760, Note_on_c, 0, 67, 0
1, 92760, Note_on_c, 0, 70, 53
1, 92760, Note_on_c, 0, 63, 64
1, 92762, Tempo, 343446
1, 92880, Note_on_c, 0, 63, 0
1, 92880, Note_on_c, 0, 70, 0
1, 92880, Note_on_c, 0, 75, 57
1, 92880, Note_on_c, 0, 67, 68
1, 92882, Tempo, 342466
1, 93000, Note_on_c, 0, 75, 0
1, 93000, Note_on_c, 0, 79, 61
1, 93002, Tempo, 341491
1, 93102, Tempo, 340522
1, 93120, Tempo, 343446
1, 93120, Note_on_c, 0, 79, 0
1, 93120, Note_on_c, 0, 67, 0
1, 93120, Note_on_c, 0, 91, 64
1, 93182, Tempo, 339559
1, 93222, Tempo, 340522
1, 93240, Note_on_c, 0, 91, 0
1, 93240, Note_on_c, 0, 87, 57
1, 93262, Tempo, 341491
1, 93302, Tempo, 342466
1, 93322, Tempo, 343446
1, 93360, Note_on_c, 0, 87, 0
1, 93360, Note_on_c, 0, 82, 56
1, 93360, Note_on_c, 0, 75, 42
1, 93362, Tempo, 344432
1, 93402, Tempo, 345423
1, 93422, Tempo, 345423
1, 93442, Tempo, 348432
1, 93462, Tempo, 350467
1, 93480, Note_on_c, 0, 75, 0
1, 93480, Note_on_c, 0, 82, 0
1, 93480, Note_on_c, 0, 79, 56
1, 93480, Note_on_c, 0, 77, 40
1, 93482, Tempo, 353565
1, 93502, Tempo, 356718
1, 93522, Tempo, 359928
1, 93542, Tempo, 364299
1, 93562, Tempo, 369914
1, 93600, Note_on_c, 0, 77, 0
1, 93600, Note_on_c, 0, 79, 0
1, 93600, Note_on_c, 0, 75, 50
1, 93600, Note_on_c, 0, 70, 50
1, 93600, Note_on_c, 0, 78, 50
1, 93602, Tempo, 350467
1, 93605, Control_c, 0, 64, 0
1, 93642, Tempo, 349447
1, 93666, Control_c, 0, 64, 127
1, 93702, Tempo, 348432
1, 93720, Note_on_c, 0, 78, 0
1, 93720, Note_on_c, 0, 75, 0
1, 93720, Note_on_c, 0, 70, 0
1, 93720, Note_on_c, 0, 79, 41
1, 93742, Tempo, 347423
1, 93782, Tempo, 346420
1, 93840, Note_on_c, 0, 79, 0
1, 93840, Note_on_c, 0, 78, 49
1, 93840, Note_on_c, 0, 81, 49
1, 93842, Tempo, 345423
1, 93882, Tempo, 344432
1, 93922, Tempo, 343446
1, 93960, Note_on_c, 0, 81, 0
1, 93960, Note_on_c, 0, 78, 0
1, 93960, Note_on_c, 0, 82, 41
1, 93960, Note_on_c, 0, 79, 41
1, 93982, Tempo, 342466
1, 94022, Tempo, 341491
1, 94062, Tempo, 340522
1, 94080, Note_on_c, 0, 79, 0
1, 94080, Note_on_c, 0, 27, 0
1, 94080, Note_on_c, 0, 39, 0
1, 94080, Note_on_c, 0, 82, 0
1, 94080, Note_on_c, 0, 87, 58
1, 94122, Tempo, 341491
1, 94182, Tempo, 342466
1, 94200, Note_on_c, 0, 87, 0
1, 94200, Note_on_c, 0, 82, 43
1, 94242, Tempo, 343446
1, 94282, Tempo, 344432
1, 94320, Note_on_c, 0, 82, 0
1, 94320, Note_on_c, 0, 79, 53
1, 94320, Note_on_c, 0, 70, 45
1, 94342, Tempo, 345423
1, 94402, Tempo, 346420
1, 94440, Note_on_c, 0, 70, 0
1, 94440, Note_on_c, 0, 79, 0
1, 94440, Note_on_c, 0, 75, 46
1, 94440, Note_on_c, 0, 72, 39
1, 94442, Tempo, 347423
1, 94560, Note_on_c, 0, 72, 0
1, 94560, Note_on_c, 0, 75, 0
1, 94560, Note_on_c, 0, 70, 51
1, 94560, Note_on_c, 0, 67, 51
1, 94560, Note_on_c, 0, 74, 51
1, 94562, Tempo, 348432
1, 94591, Control_c, 0, 64, 0
1, 94642, Tempo, 347423
1, 94645, Control_c, 0, 64, 127
1, 94680, Note_on_c, 0, 74, 0
1, 94680, Note_on_c, 0, 67, 0
1, 94680, Note_on_c, 0, 70, 0
1, 94680, Note_on_c, 0, 75, 42
1, 94722, Tempo, 346420
1, 94782, Tempo, 345423
1, 94800, Note_on_c, 0, 75, 0
1, 94800, Note_on_c, 0, 74, 49
1, 94800, Note_on_c, 0, 78, 49
1, 94862, Tempo, 344432
1, 94920, Note_on_c, 0, 78, 0
1, 94920, Note_on_c, 0, 74, 0
1, 94920, Note_on_c, 0, 79, 41
1, 94920, Note_on_c, 0, 75, 41
1, 94942, Tempo, 343446
1, 95002, Tempo, 342466
1, 95040, Note_on_c, 0, 75, 0
1, 95040, Note_on_c, 0, 79, 0
1, 95040, Note_on_c, 0, 82, 58
1, 95082, Tempo, 343446
1, 95142, Tempo, 344432
1, 95160, Note_on_c, 0, 82, 0
1, 95160, Note_on_c, 0, 79, 43
1, 95202, Tempo, 345423
1, 95262, Tempo, 346420
1, 95280, Note_on_c, 0, 79, 0
1, 95280, Note_on_c, 0, 75, 53
1, 95280, Note_on_c, 0, 67, 45
1, 95322, Tempo, 347423
1, 95342, Tempo, 347423
1, 95362, Tempo, 348432
1, 95382, Tempo, 350467
1, 95400, Note_on_c, 0, 67, 0
1, 95400, Note_on_c, 0, 75, 0
1, 95400, Note_on_c, 0, 70, 46
1, 95400, Note_on_c, 0, 68, 40
1, 95402, Tempo, 352526
1, 95422, Tempo, 353565
1, 95442, Tempo, 355661
1, 95462, Tempo, 357782
1, 95482, Tempo, 359928
1, 95502, Tempo, 350467
1, 95520, Note_on_c, 0, 68, 0
1, 95520, Note_on_c, 0, 70, 0
1, 95520, Note_on_c, 0, 67, 51
1, 95520, Note_on_c, 0, 63, 51
1, 95520, Note_on_c, 0, 69, 51
1, 95522, Tempo, 349447
1, 95544, Control_c, 0, 64, 0
1, 95575, Control_c, 0, 64, 127
1, 95582, Tempo, 348432
1, 95640, Note_on_c, 0, 69, 0
1, 95640, Note_on_c, 0, 63, 0
1, 95640, Note_on_c, 0, 67, 0
1, 95640, Note_on_c, 0, 70, 42
1, 95642, Tempo, 347423
1, 95702, Tempo, 346420
1, 95742, Tempo, 345423
1, 95760, Note_on_c, 0, 70, 0
1, 95760, Note_on_c, 0, 71, 49
1, 95760, Note_on_c, 0, 74, 49
1, 95802, Tempo, 344432
1, 95862, Tempo, 343446
1, 95880, Note_on_c, 0, 74, 0
1, 95880, Note_on_c, 0, 71, 0
1, 95880, Note_on_c, 0, 75, 41
1, 95880, Note_on_c, 0, 70, 41
1, 95922, Tempo, 342466
1, 95962, Tempo, 341491
1, 95982, Tempo, 341491
1, 96000, Note_on_c, 0, 70, 0
1, 96000, Note_on_c, 0, 75, 0
1, 96000, Note_on_c, 0, 79, 58
1, 96042, Tempo, 342466
1, 96102, Tempo, 343446
1, 96120, Note_on_c, 0, 79, 0
1, 96120, Note_on_c, 0, 75, 43
1, 96142, Tempo, 344432
1, 96202, Tempo, 345423
1, 96240, Note_on_c, 0, 75, 0
1, 96240, Note_on_c, 0, 70, 53
1, 96240, Note_on_c, 0, 63, 48
1, 96242, Tempo, 346420
1, 96302, Tempo, 347423
1, 96342, Tempo, 348432
1, 96360, Note_on_c, 0, 63, 0
1, 96360, Note_on_c, 0, 70, 0
1, 96360, Note_on_c, 0, 67, 46
1, 96360, Note_on_c, 0, 65, 41
1, 96402, Tempo, 349447
1, 96422, Tempo, 351494
1, 96442, Tempo, 354610
1, 96462, Tempo, 358852
1, 96480, Note_on_c, 0, 65, 0
1, 96480, Note_on_c, 0, 67, 0
1, 96480, Note_on_c, 0, 63, 50
1, 96480, Note_on_c, 0, 58, 50
1, 96480, Note_on_c, 0, 66, 50
1, 96482, Tempo, 363196
1, 96493, Control_c, 0, 64, 0
1, 96534, Control_c, 0, 64, 127
1, 96542, Tempo, 351494
1, 96600, Note_on_c, 0, 66, 0
1, 96600, Note_on_c, 0, 58, 0
1, 96600, Note_on_c, 0, 63, 0
1, 96600, Note_on_c, 0, 67, 43
1, 96602, Tempo, 350467
1, 96642, Tempo, 349447
1, 96702, Tempo, 348432
1, 96720, Note_on_c, 0, 67, 0
1, 96720, Note_on_c, 0, 66, 49
1, 96720, Note_on_c, 0, 69, 49
1, 96742, Tempo, 347423
1, 96802, Tempo, 346420
1, 96840, Note_on_c, 0, 69, 0
1, 96840, Note_on_c, 0, 66, 0
1, 96840, Note_on_c, 0, 70, 41
1, 96840, Note_on_c, 0, 67, 41
1, 96842, Tempo, 345423
1, 96902, Tempo, 344432
1, 96942, Tempo, 342466
1, 96960, Note_on_c, 0, 67, 0
1, 96960, Note_on_c, 0, 70, 0
1, 96960, Note_on_c, 0, 75, 58
1, 97002, Tempo, 343446
1, 97042, Tempo, 344432
1, 97080, Note_on_c, 0, 75, 0
1, 97080, Note_on_c, 0, 70, 43
1, 97082, Tempo, 345423
1, 97122, Tempo, 346420
1, 97162, Tempo, 347423
1, 97200, Note_on_c, 0, 70, 0
1, 97200, Note_on_c, 0, 67, 53
1, 97200, Note_on_c, 0, 58, 47
1, 97222, Tempo, 348432
1, 97262, Tempo, 349447
1, 97302, Tempo, 350467
1, 97320, Note_on_c, 0, 58, 0
1, 97320, Note_on_c, 0, 67, 0
1, 97320, Note_on_c, 0, 63, 46
1, 97320, Note_on_c, 0, 60, 41
1, 97342, Tempo, 351494
1, 97362, Tempo, 352526
1, 97422, Tempo, 351494
1, 97440, Note_on_c, 0, 60, 0
1, 97440, Note_on_c, 0, 63, 0
1, 97440, Note_on_c, 0, 58, 52
1, 97440, Note_on_c, 0, 55, 52
1, 97440, Note_on_c, 0, 62, 52
1, 97451, Control_c, 0, 64, 0
1, 97482, Tempo, 350467
1, 97515, Control_c, 0, 64, 127
1, 97542, Tempo, 349447
1, 97560, Note_on_c, 0, 62, 0
1, 97560, Note_on_c, 0, 55, 0
1, 97560, Note_on_c, 0, 58, 0
1, 97560, Note_on_c, 0, 63, 42
1, 97602, Tempo, 348432
1, 97662, Tempo, 347423
1, 97680, Note_on_c, 0, 63, 0
1, 97680, Note_on_c, 0, 66, 49
1, 97722, Tempo, 346420
1, 97782, Tempo, 345423
1, 97800, Note_on_c, 0, 66, 0
1, 97800, Note_on_c, 0, 67, 41
1, 97842, Tempo, 344432
1, 97882, Tempo, 343446
1, 97920, Tempo, 367647
1, 97920, Note_on_c, 0, 67, 0
1, 97920, Note_on_c, 0, 59, 78
1, 97920, Note_on_c, 0, 31, 77
1, 97920, Note_on_c, 0, 43, 83
1, 97920, Control_c, 0, 64, 0
1, 97966, Control_c, 0, 64, 127
1, 97982, Tempo, 349447
1, 98040, Note_on_c, 0, 63, 52
1, 98102, Tempo, 348432
1, 98160, Note_on_c, 0, 63, 0
1, 98160, Note_on_c, 0, 66, 52
1, 98160, Note_on_c, 0, 53, 50
1, 98202, Tempo, 347423
1, 98280, Note_on_c, 0, 66, 0
1, 98280, Note_on_c, 0, 67, 50
1, 98322, Tempo, 346420
1, 98400, Note_on_c, 0, 67, 0
1, 98400, Note_on_c, 0, 53, 0
1, 98400, Note_on_c, 0, 68, 52
1, 98400, Note_on_c, 0, 59, 52
1, 98422, Tempo, 345423
1, 98520, Note_on_c, 0, 68, 0
1, 98520, Note_on_c, 0, 67, 55
1, 98522, Tempo, 344432
1, 98640, Note_on_c, 0, 67, 0
1, 98640, Note_on_c, 0, 59, 0
1, 98640, Note_on_c, 0, 66, 57
1, 98640, Note_on_c, 0, 63, 49
1, 98642, Tempo, 343446
1, 98742, Tempo, 342466
1, 98760, Note_on_c, 0, 66, 0
1, 98760, Note_on_c, 0, 67, 58
1, 98842, Tempo, 340522
1, 98880, Note_on_c, 0, 67, 0
1, 98880, Note_on_c, 0, 63, 0
1, 98880, Note_on_c, 0, 79, 62
1, 98880, Note_on_c, 0, 65, 62
1, 98942, Tempo, 342466
1, 98982, Tempo, 343446
1, 99000, Note_on_c, 0, 79, 0
1, 99000, Note_on_c, 0, 75, 46
1, 99002, Tempo, 344432
1, 99022, Tempo, 345423
1, 99042, Tempo, 346420
1, 99062, Tempo, 347423
1, 99102, Tempo, 348432
1, 99120, Note_on_c, 0, 75, 0
1, 99120, Note_on_c, 0, 65, 0
1, 99120, Note_on_c, 0, 71, 52
1, 99120, Note_on_c, 0, 63, 50
1, 99122, Tempo, 349447
1, 99142, Tempo, 350467
1, 99162, Tempo, 351494
1, 99182, Tempo, 352526
1, 99222, Tempo, 353565
1, 99240, Note_on_c, 0, 71, 0
1, 99240, Note_on_c, 0, 67, 46
1, 99242, Tempo, 354610
1, 99262, Tempo, 355661
1, 99282, Tempo, 356718
1, 99302, Tempo, 357782
1, 99322, Tempo, 358852
1, 99342, Tempo, 359928
1, 99360, Note_on_c, 0, 67, 0
1, 99360, Note_on_c, 0, 63, 0
1, 99360, Note_on_c, 0, 68, 52
1, 99360, Note_on_c, 0, 59, 52
1, 99362, Tempo, 361011
1, 99382, Tempo, 363196
1, 99402, Tempo, 364299
1, 99422, Tempo, 366524
1, 99442, Tempo, 367647
1, 99462, Tempo, 369914
1, 99480, Note_on_c, 0, 68, 0
1, 99480, Note_on_c, 0, 67, 46
1, 99482, Tempo, 371058
1, 99502, Tempo, 373367
1, 99522, Tempo, 374532
1, 99542, Tempo, 376884
1, 99562, Tempo, 378072
1, 99582, Tempo, 380469
1, 99600, Note_on_c, 0, 67, 0
1, 99600, Note_on_c, 0, 59, 0
1, 99600, Note_on_c, 0, 66, 49
1, 99600, Note_on_c, 0, 55, 50
1, 99602, Tempo, 372208
1, 99622, Tempo, 385356
1, 99642, Tempo, 399467
1, 99662, Tempo, 399467
1, 99720, Tempo, 634921
1, 99720, Note_on_c, 0, 66, 0
1, 99720, Note_on_c, 0, 67, 46
1, 99840, Tempo, 367647
1, 99840, Note_on_c, 0, 67, 0
1, 99840, Note_on_c, 0, 55, 0
1, 99840, Note_on_c, 0, 43, 0
1, 99840, Note_on_c, 0, 31, 0
1, 99840, Note_on_c, 0, 59, 0
1, 99840, Note_on_c, 0, 48, 74
1, 99840, Note_on_c, 0, 60, 78
1, 99840, Note_on_c, 0, 36, 83
1, 99842, Tempo, 365408
1, 99846, Note_on_c, 0, 24, 77
1, 99847, Control_c, 0, 64, 0
1, 99862, Tempo, 364299
1, 99882, Tempo, 363196
1, 99902, Tempo, 362100
1, 99922, Tempo, 361011
1, 99942, Tempo, 359928
1, 99943, Control_c, 0, 64, 127
1, 99960, Note_on_c, 0, 63, 52
1, 99962, Tempo, 358852
1, 99982, Tempo, 357782
1, 100002, Tempo, 356718
1, 100022, Tempo, 355661
1, 100042, Tempo, 354610
1, 100062, Tempo, 353565
1, 100080, Note_on_c, 0, 63, 0
1, 100080, Note_on_c, 0, 66, 52
1, 100080, Note_on_c, 0, 43, 50
1, 100082, Tempo, 352526
1, 100102, Tempo, 351494
1, 100122, Tempo, 350467
1, 100142, Tempo, 349447
1, 100162, Tempo, 348432
1, 100182, Tempo, 347423
1, 100200, Note_on_c, 0, 66, 0
1, 100200, Note_on_c, 0, 67, 50
1, 100202, Tempo, 346420
1, 100242, Tempo, 346420
1, 100320, Note_on_c, 0, 67, 0
1, 100320, Note_on_c, 0, 43, 0
1, 100320, Note_on_c, 0, 68, 52
1, 100320, Note_on_c, 0, 51, 52
1, 100342, Tempo, 345423
1, 100440, Note_on_c, 0, 68, 0
1, 100440, Note_on_c, 0, 67, 55
1, 100442, Tempo, 344432
1, 100560, Note_on_c, 0, 67, 0
1, 100560, Note_on_c, 0, 51, 0
1, 100560, Note_on_c, 0, 66, 57
1, 100560, Note_on_c, 0, 55, 49
1, 100562, Tempo, 343446
1, 100662, Tempo, 342466
1, 100680, Note_on_c, 0, 66, 0
1, 100680, Note_on_c, 0, 67, 58
1, 100762, Tempo, 340522
1, 100800, Note_on_c, 0, 67, 0
1, 100800, Note_on_c, 0, 55, 0
1, 100800, Note_on_c, 0, 75, 62
1, 100800, Note_on_c, 0, 63, 62
1, 100920, Note_on_c, 0, 75, 0
1, 100920, Note_on_c, 0, 74, 46
1, 100942, Tempo, 341491
1, 101040, Note_on_c, 0, 74, 0
1, 101040, Note_on_c, 0, 63, 0
1, 101040, Note_on_c, 0, 72, 52
1, 101040, Note_on_c, 0, 55, 50
1, 101102, Tempo, 342466
1, 101160, Note_on_c, 0, 72, 0
1, 101160, Note_on_c, 0, 67, 46
1, 101262, Tempo, 343446
1, 101280, Note_on_c, 0, 67, 0
1, 101280, Note_on_c, 0, 55, 0
1, 101280, Note_on_c, 0, 68, 52
1, 101280, Note_on_c, 0, 51, 52
1, 101302, Tempo, 343446
1, 101322, Tempo, 344432
1, 101342, Tempo, 345423
1, 101362, Tempo, 347423
1, 101382, Tempo, 348432
1, 101400, Note_on_c, 0, 68, 0
1, 101400, Note_on_c, 0, 67, 46
1, 101402, Tempo, 349447
1, 101422, Tempo, 351494
1, 101442, Tempo, 352526
1, 101462, Tempo, 353565
1, 101482, Tempo, 355661
1, 101502, Tempo, 356718
1, 101520, Note_on_c, 0, 67, 0
1, 101520, Note_on_c, 0, 51, 0
1, 101520, Note_on_c, 0, 66, 49
1, 101520, Note_on_c, 0, 48, 50
1, 101522, Tempo, 357782
1, 101542, Tempo, 359928
1, 101562, Tempo, 361011
1, 101582, Tempo, 362100
1, 101602, Tempo, 364299
1, 101622, Tempo, 365408
1, 101640, Note_on_c, 0, 66, 0
1, 101640, Note_on_c, 0, 67, 46
1, 101642, Tempo, 366524
1, 101662, Tempo, 368777
1, 101682, Tempo, 369914
1, 101702, Tempo, 371058
1, 101722, Tempo, 373367
1, 101760, Tempo, 367647
1, 101760, Note_on_c, 0, 67, 0
1, 101760, Note_on_c, 0, 48, 0
1, 101760, Note_on_c, 0, 36, 0
1, 101760, Note_on_c, 0, 48, 0
1, 101760, Note_on_c, 0, 60, 0
1, 101760, Note_on_c, 0, 55, 78
1, 101760, Note_on_c, 0, 31, 77
1, 101760, Note_on_c, 0, 43, 83
1, 101762, Tempo, 365408
1, 101766, Note_on_c, 0, 24, 0
1, 101767, Control_c, 0, 64, 0
1, 101782, Tempo, 364299
1, 101802, Tempo, 363196
1, 101822, Tempo, 362100
1, 101842, Tempo, 361011
1, 101862, Tempo, 359928
1, 101863, Control_c, 0, 64, 127
1, 101880, Note_on_c, 0, 59, 52
1, 101882, Tempo, 358852
1, 101902, Tempo, 357782
1, 101922, Tempo, 356718
1, 101942, Tempo, 355661
1, 101962, Tempo, 354610
1, 101982, Tempo, 353565
1, 102000, Note_on_c, 0, 59, 0
1, 102000, Note_on_c, 0, 63, 52
1, 102000, Note_on_c, 0, 51, 50
1, 102002, Tempo, 352526
1, 102022, Tempo, 351494
1, 102042, Tempo, 350467
1, 102062, Tempo, 349447
1, 102082, Tempo, 348432
1, 102102, Tempo, 347423
1, 102120, Note_on_c, 0, 63, 0
1, 102120, Note_on_c, 0, 67, 50
1, 102122, Tempo, 346420
1, 102162, Tempo, 346420
1, 102240, Note_on_c, 0, 67, 0
1, 102240, Note_on_c, 0, 51, 0
1, 102240, Note_on_c, 0, 68, 52
1, 102240, Note_on_c, 0, 55, 52
1, 102262, Tempo, 345423
1, 102360, Note_on_c, 0, 68, 0
1, 102360, Note_on_c, 0, 67, 55
1, 102362, Tempo, 344432
1, 102480, Note_on_c, 0, 67, 0
1, 102480, Note_on_c, 0, 55, 0
1, 102480, Note_on_c, 0, 66, 57
1, 102480, Note_on_c, 0, 59, 49
1, 102482, Tempo, 343446
1, 102582, Tempo, 342466
1, 102600, Note_on_c, 0, 66, 0
1, 102600, Note_on_c, 0, 67, 58
1, 102682, Tempo, 340522
1, 102720, Note_on_c, 0, 67, 0
1, 102720, Note_on_c, 0, 59, 0
1, 102720, Note_on_c, 0, 75, 62
1, 102720, Note_on_c, 0, 63, 62
1, 102840, Note_on_c, 0, 75, 0
1, 102840, Note_on_c, 0, 72, 46
1, 102862, Tempo, 341491
1, 102960, Note_on_c, 0, 72, 0
1, 102960, Note_on_c, 0, 63, 0
1, 102960, Note_on_c, 0, 71, 52
1, 102960, Note_on_c, 0, 55, 50
1, 103022, Tempo, 342466
1, 103080, Note_on_c, 0, 71, 0
1, 103080, Note_on_c, 0, 67, 46
1, 103182, Tempo, 343446
1, 103200, Note_on_c, 0, 67, 0
1, 103200, Note_on_c, 0, 55, 0
1, 103200, Note_on_c, 0, 68, 52
1, 103200, Note_on_c, 0, 51, 52
1, 103242, Tempo, 341297
1, 103282, Tempo, 342270
1, 103302, Tempo, 343249
1, 103320, Note_on_c, 0, 68, 0
1, 103320, Note_on_c, 0, 67, 46
1, 103342, Tempo, 344234
1, 103362, Tempo, 345224
1, 103382, Tempo, 346220
1, 103422, Tempo, 347222
1, 103440, Note_on_c, 0, 67, 0
1, 103440, Note_on_c, 0, 51, 0
1, 103440, Note_on_c, 0, 66, 49
1, 103440, Note_on_c, 0, 47, 50
1, 103442, Tempo, 348230
1, 103482, Tempo, 349243
1, 103522, Tempo, 351288
1, 103550, Note_on_c, 0, 55, 0
1, 103560, Tempo, 722892
1, 103560, Note_on_c, 0, 66, 0
1, 103560, Note_on_c, 0, 55, 78
1, 103560, Note_on_c, 0, 67, 46
1, 103680, Tempo, 367647
1, 103680, Note_on_c, 0, 67, 0
1, 103680, Note_on_c, 0, 47, 0
1, 103680, Note_on_c, 0, 43, 0
1, 103680, Note_on_c, 0, 31, 0
1, 103680, Note_on_c, 0, 63, 78
1, 103680, Note_on_c, 0, 27, 77
1, 103680, Note_on_c, 0, 39, 83
1, 103682, Tempo, 365408
1, 103687, Control_c, 0, 64, 0
1, 103702, Tempo, 364299
1, 103722, Tempo, 363196
1, 103742, Tempo, 362100
1, 103762, Tempo, 361011
1, 103782, Tempo, 359928
1, 103783, Control_c, 0, 64, 127
1, 103802, Tempo, 358852
1, 103822, Tempo, 357782
1, 103842, Tempo, 356718
1, 103862, Tempo, 355661
1, 103882, Tempo, 354610
1, 103902, Tempo, 353565
1, 103920, Note_on_c, 0, 46, 50
1, 103922, Tempo, 352526
1, 103942, Tempo, 351494
1, 103962, Tempo, 350467
1, 103982, Tempo, 349447
1, 104002, Tempo, 348432
1, 104022, Tempo, 347423
1, 104040, Note_on_c, 0, 67, 50
1, 104042, Tempo, 346420
1, 104082, Tempo, 346420
1, 104160, Note_on_c, 0, 67, 0
1, 104160, Note_on_c, 0, 46, 0
1, 104160, Note_on_c, 0, 68, 52
1, 104160, Note_on_c, 0, 55, 52
1, 104182, Tempo, 345423
1, 104280, Note_on_c, 0, 68, 0
1, 104280, Note_on_c, 0, 67, 55
1, 104282, Tempo, 344432
1, 104400, Note_on_c, 0, 67, 0
1, 104400, Note_on_c, 0, 55, 0
1, 104400, Note_on_c, 0, 66, 57
1, 104400, Note_on_c, 0, 58, 49
1, 104402, Tempo, 343446
1, 104502, Tempo, 342466
1, 104520, Note_on_c, 0, 66, 0
1, 104520, Note_on_c, 0, 67, 58
1, 104602, Tempo, 340522
1, 104640, Note_on_c, 0, 67, 0
1, 104640, Note_on_c, 0, 58, 0
1, 104640, Note_on_c, 0, 75, 62
1, 104640, Note_on_c, 0, 63, 62
1, 104760, Note_on_c, 0, 75, 0
1, 104760, Note_on_c, 0, 71, 46
1, 104782, Tempo, 341491
1, 104880, Note_on_c, 0, 71, 0
1, 104880, Note_on_c, 0, 63, 0
1, 104880, Note_on_c, 0, 70, 52
1, 104880, Note_on_c, 0, 58, 50
1, 104942, Tempo, 342466
1, 105000, Note_on_c, 0, 70, 0
1, 105000, Note_on_c, 0, 67, 46
1, 105102, Tempo, 343446
1, 105120, Note_on_c, 0, 67, 0
1, 105120, Note_on_c, 0, 58, 0
1, 105120, Note_on_c, 0, 68, 52
1, 105120, Note_on_c, 0, 55, 52
1, 105240, Note_on_c, 0, 68, 0
1, 105240, Note_on_c, 0, 67, 46
1, 105282, Tempo, 344432
1, 105360, Note_on_c, 0, 67, 0
1, 105360, Note_on_c, 0, 55, 0
1, 105360, Note_on_c, 0, 66, 49
1, 105360, Note_on_c, 0, 51, 50
1, 105480, Tempo, 579654
1, 105480, Note_on_c, 0, 66, 0
1, 105480, Note_on_c, 0, 67, 46
1, 105600, Tempo, 367647
1, 105600, Note_on_c, 0, 67, 0
1, 105600, Note_on_c, 0, 51, 0
1, 105600, Note_on_c, 0, 27, 0
1, 105600, Note_on_c, 0, 55, 0
1, 105600, Note_on_c, 0, 63, 0
1, 105600, Note_on_c, 0, 39, 0
1, 105600, Note_on_c, 0, 58, 54
1, 105600, Note_on_c, 0, 46, 56
1, 105600, Note_on_c, 0, 34, 56
1, 105602, Tempo, 365408
1, 105607, Control_c, 0, 64, 0
1, 105622, Tempo, 364299
1, 105642, Tempo, 363196
1, 105662, Tempo, 362100
1, 105682, Tempo, 361011
1, 105702, Tempo, 359928
1, 105703, Control_c, 0, 64, 127
1, 105722, Tempo, 358852
1, 105742, Tempo, 357782
1, 105762, Tempo, 356718
1, 105782, Tempo, 355661
1, 105802, Tempo, 354610
1, 105822, Tempo, 353565
1, 105840, Note_on_c, 0, 62, 37
1, 105840, Note_on_c, 0, 50, 37
1, 105842, Tempo, 352526
1, 105862, Tempo, 351494
1, 105882, Tempo, 350467
1, 105902, Tempo, 349447
1, 105922, Tempo, 348432
1, 105942, Tempo, 347423
1, 105960, Note_on_c, 0, 62, 0
1, 105960, Note_on_c, 0, 67, 36
1, 105962, Tempo, 346420
1, 106002, Tempo, 346420
1, 106080, Note_on_c, 0, 67, 0
1, 106080, Note_on_c, 0, 50, 0
1, 106080, Note_on_c, 0, 68, 38
1, 106080, Note_on_c, 0, 55, 38
1, 106102, Tempo, 345423
1, 106200, Note_on_c, 0, 68, 0
1, 106200, Note_on_c, 0, 67, 40
1, 106202, Tempo, 344432
1, 106320, Note_on_c, 0, 67, 0
1, 106320, Note_on_c, 0, 55, 0
1, 106320, Note_on_c, 0, 66, 41
1, 106320, Note_on_c, 0, 58, 35
1, 106322, Tempo, 343446
1, 106422, Tempo, 342466
1, 106440, Note_on_c, 0, 66, 0
1, 106440, Note_on_c, 0, 67, 41
1, 106522, Tempo, 340522
1, 106560, Note_on_c, 0, 67, 0
1, 106560, Note_on_c, 0, 58, 0
1, 106560, Note_on_c, 0, 74, 44
1, 106560, Note_on_c, 0, 62, 44
1, 106680, Note_on_c, 0, 74, 0
1, 106680, Note_on_c, 0, 72, 32
1, 106702, Tempo, 341491
1, 106800, Note_on_c, 0, 72, 0
1, 106800, Note_on_c, 0, 62, 0
1, 106800, Note_on_c, 0, 70, 37
1, 106800, Note_on_c, 0, 58, 35
1, 106862, Tempo, 342466
1, 106920, Note_on_c, 0, 70, 0
1, 106920, Note_on_c, 0, 67, 32
1, 107022, Tempo, 343446
1, 107040, Note_on_c, 0, 67, 0
1, 107040, Note_on_c, 0, 58, 0
1, 107040, Note_on_c, 0, 68, 37
1, 107040, Note_on_c, 0, 55, 37
1, 107160, Note_on_c, 0, 68, 0
1, 107160, Note_on_c, 0, 67, 31
1, 107202, Tempo, 344432
1, 107280, Note_on_c, 0, 67, 0
1, 107280, Note_on_c, 0, 55, 0
1, 107280, Note_on_c, 0, 66, 33
1, 107280, Note_on_c, 0, 50, 34
1, 107362, Tempo, 345423
1, 107400, Note_on_c, 0, 66, 0
1, 107400, Note_on_c, 0, 67, 31
1, 107520, Tempo, 367647
1, 107520, Note_on_c, 0, 67, 0
1, 107520, Note_on_c, 0, 50, 0
1, 107520, Note_on_c, 0, 34, 0
1, 107520, Note_on_c, 0, 46, 0
1, 107520, Note_on_c, 0, 46, 45
1, 107520, Note_on_c, 0, 34, 47
1, 107520, Note_on_c, 0, 22, 47
1, 107522, Tempo, 365408
1, 107527, Control_c, 0, 64, 0
1, 107542, Tempo, 364299
1, 107562, Tempo, 363196
1, 107582, Tempo, 362100
1, 107602, Tempo, 361011
1, 107622, Tempo, 359928
1, 107623, Control_c, 0, 64, 127
1, 107640, Note_on_c, 0, 61, 28
1, 107642, Tempo, 358852
1, 107662, Tempo, 357782
1, 107682, Tempo, 356718
1, 107702, Tempo, 355661
1, 107722, Tempo, 354610
1, 107742, Tempo, 353565
1, 107760, Note_on_c, 0, 61, 0
1, 107760, Note_on_c, 0, 64, 28
1, 107760, Note_on_c, 0, 41, 31
1, 107762, Tempo, 352526
1, 107782, Tempo, 351494
1, 107802, Tempo, 350467
1, 107822, Tempo, 349447
1, 107842, Tempo, 348432
1, 107862, Tempo, 347423
1, 107880, Note_on_c, 0, 64, 0
1, 107880, Note_on_c, 0, 65, 28
1, 107882, Tempo, 346420
1, 107922, Tempo, 346420
1, 108000, Note_on_c, 0, 65, 0
1, 108000, Note_on_c, 0, 41, 0
1, 108000, Note_on_c, 0, 66, 29
1, 108000, Note_on_c, 0, 49, 33
1, 108022, Tempo, 345423
1, 108120, Note_on_c, 0, 66, 0
1, 108120, Note_on_c, 0, 65, 30
1, 108122, Tempo, 344432
1, 108240, Note_on_c, 0, 65, 0
1, 108240, Note_on_c, 0, 49, 0
1, 108240, Note_on_c, 0, 64, 31
1, 108240, Note_on_c, 0, 53, 30
1, 108242, Tempo, 343446
1, 108342, Tempo, 342466
1, 108360, Note_on_c, 0, 64, 0
1, 108360, Note_on_c, 0, 65, 32
1, 108442, Tempo, 340522
1, 108480, Note_on_c, 0, 65, 0
1, 108480, Note_on_c, 0, 53, 0
1, 108480, Note_on_c, 0, 73, 34
1, 108480, Note_on_c, 0, 61, 39
1, 108600, Note_on_c, 0, 73, 0
1, 108600, Note_on_c, 0, 72, 28
1, 108622, Tempo, 341491
1, 108720, Note_on_c, 0, 72, 0
1, 108720, Note_on_c, 0, 61, 0
1, 108720, Note_on_c, 0, 70, 33
1, 108720, Note_on_c, 0, 53, 31
1, 108782, Tempo, 342466
1, 108840, Note_on_c, 0, 70, 0
1, 108840, Note_on_c, 0, 65, 28
1, 108942, Tempo, 343446
1, 108960, Note_on_c, 0, 65, 0
1, 108960, Note_on_c, 0, 53, 0
1, 108960, Note_on_c, 0, 66, 33
1, 108960, Note_on_c, 0, 49, 33
1, 109080, Note_on_c, 0, 66, 0
1, 109080, Note_on_c, 0, 65, 28
1, 109122, Tempo, 344432
1, 109200, Note_on_c, 0, 65, 0
1, 109200, Note_on_c, 0, 49, 0
1, 109200, Note_on_c, 0, 64, 30
1, 109200, Note_on_c, 0, 46, 31
1, 109282, Tempo, 345423
1, 109320, Note_on_c, 0, 64, 0
1, 109320, Note_on_c, 0, 65, 28
1, 109440, Tempo, 367647
1, 109440, Note_on_c, 0, 65, 0
1, 109440, Note_on_c, 0, 46, 0
1, 109440, Note_on_c, 0, 22, 0
1, 109440, Note_on_c, 0, 58, 0
1, 109440, Note_on_c, 0, 46, 0
1, 109440, Note_on_c, 0, 34, 0
1, 109440, Note_on_c, 0, 53, 45
1, 109440, Note_on_c, 0, 41, 47
1, 109440, Note_on_c, 0, 29, 47
1, 109442, Tempo, 365408
1, 109447, Control_c, 0, 64, 0
1, 109462, Tempo, 364299
1, 109482, Tempo, 363196
1, 109502, Tempo, 362100
1, 109522, Tempo, 361011
1, 109542, Tempo, 359928
1, 109543, Control_c, 0, 64, 127
1, 109560, Note_on_c, 0, 57, 28
1, 109562, Tempo, 358852
1, 109582, Tempo, 357782
1, 109602, Tempo, 356718
1, 109622, Tempo, 355661
1, 109642, Tempo, 354610
1, 109662, Tempo, 353565
1, 109680, Note_on_c, 0, 57, 0
1, 109680, Note_on_c, 0, 61, 28
1, 109680, Note_on_c, 0, 49, 31
1, 109682, Tempo, 352526
1, 109702, Tempo, 351494
1, 109722, Tempo, 350467
1, 109742, Tempo, 349447
1, 109762, Tempo, 348432
1, 109782, Tempo, 347423
1, 109800, Note_on_c, 0, 61, 0
1, 109800, Note_on_c, 0, 65, 28
1, 109802, Tempo, 346420
1, 109842, Tempo, 346420
1, 109920, Note_on_c, 0, 65, 0
1, 109920, Note_on_c, 0, 49, 0
1, 109920, Note_on_c, 0, 66, 29
1, 109920, Note_on_c, 0, 53, 33
1, 109942, Tempo, 345423
1, 110040, Note_on_c, 0, 66, 0
1, 110040, Note_on_c, 0, 65, 30
1, 110042, Tempo, 344432
1, 110160, Note_on_c, 0, 65, 0
1, 110160, Note_on_c, 0, 53, 0
1, 110160, Note_on_c, 0, 64, 31
1, 110160, Note_on_c, 0, 57, 30
1, 110162, Tempo, 343446
1, 110262, Tempo, 342466
1, 110280, Note_on_c, 0, 64, 0
1, 110280, Note_on_c, 0, 65, 32
1, 110362, Tempo, 340522
1, 110400, Note_on_c, 0, 65, 0
1, 110400, Note_on_c, 0, 57, 0
1, 110400, Note_on_c, 0, 73, 34
1, 110400, Note_on_c, 0, 61, 39
1, 110520, Note_on_c, 0, 73, 0
1, 110520, Note_on_c, 0, 70, 28
1, 110542, Tempo, 341491
1, 110640, Note_on_c, 0, 70, 0
1, 110640, Note_on_c, 0, 61, 0
1, 110640, Note_on_c, 0, 69, 33
1, 110640, Note_on_c, 0, 53, 31
1, 110702, Tempo, 342466
1, 110760, Note_on_c, 0, 69, 0
1, 110760, Note_on_c, 0, 65, 28
1, 110862, Tempo, 343446
1, 110880, Note_on_c, 0, 65, 0
1, 110880, Note_on_c, 0, 53, 0
1, 110880, Note_on_c, 0, 66, 33
1, 110880, Note_on_c, 0, 51, 33
1, 111000, Note_on_c, 0, 66, 0
1, 111000, Note_on_c, 0, 65, 28
1, 111042, Tempo, 344432
1, 111120, Note_on_c, 0, 65, 0
1, 111120, Note_on_c, 0, 51, 0
1, 111120, Note_on_c, 0, 64, 30
1, 111120, Note_on_c, 0, 45, 31
1, 111202, Tempo, 345423
1, 111230, Note_on_c, 0, 53, 0
1, 111240, Note_on_c, 0, 64, 0
1, 111240, Note_on_c, 0, 53, 45
1, 111240, Note_on_c, 0, 65, 28
1, 111360, Tempo, 367647
1, 111360, Note_on_c, 0, 65, 0
1, 111360, Note_on_c, 0, 45, 0
1, 111360, Note_on_c, 0, 41, 0
1, 111360, Note_on_c, 0, 29, 0
1, 111360, Note_on_c, 0, 61, 45
1, 111360, Note_on_c, 0, 37, 47
1, 111360, Note_on_c, 0, 25, 47
1, 111362, Tempo, 365408
1, 111367, Control_c, 0, 64, 0
1, 111382, Tempo, 364299
1, 111402, Tempo, 363196
1, 111422, Tempo, 362100
1, 111442, Tempo, 361011
1, 111462, Tempo, 359928
1, 111463, Control_c, 0, 64, 127
1, 111482, Tempo, 358852
1, 111502, Tempo, 357782
1, 111522, Tempo, 356718
1, 111542, Tempo, 355661
1, 111562, Tempo, 354610
1, 111582, Tempo, 353565
1, 111600, Note_on_c, 0, 44, 31
1, 111602, Tempo, 352526
1, 111622, Tempo, 351494
1, 111642, Tempo, 350467
1, 111662, Tempo, 349447
1, 111682, Tempo, 348432
1, 111702, Tempo, 347423
1, 111720, Note_on_c, 0, 65, 28
1, 111722, Tempo, 346420
1, 111762, Tempo, 346420
1, 111840, Note_on_c, 0, 65, 0
1, 111840, Note_on_c, 0, 44, 0
1, 111840, Note_on_c, 0, 66, 29
1, 111840, Note_on_c, 0, 53, 33
1, 111862, Tempo, 345423
1, 111960, Note_on_c, 0, 66, 0
1, 111960, Note_on_c, 0, 65, 30
1, 111962, Tempo, 344432
1, 112080, Note_on_c, 0, 65, 0
1, 112080, Note_on_c, 0, 53, 0
1, 112080, Note_on_c, 0, 64, 31
1, 112080, Note_on_c, 0, 56, 30
1, 112082, Tempo, 343446
1, 112182, Tempo, 342466
1, 112200, Note_on_c, 0, 64, 0
1, 112200, Note_on_c, 0, 65, 32
1, 112282, Tempo, 340522
1, 112320, Note_on_c, 0, 65, 0
1, 112320, Note_on_c, 0, 56, 0
1, 112320, Note_on_c, 0, 73, 34
1, 112320, Note_on_c, 0, 61, 39
1, 112440, Note_on_c, 0, 73, 0
1, 112440, Note_on_c, 0, 69, 28
1, 112462, Tempo, 341491
1, 112560, Note_on_c, 0, 69, 0
1, 112560, Note_on_c, 0, 61, 0
1, 112560, Note_on_c, 0, 68, 33
1, 112560, Note_on_c, 0, 56, 31
1, 112622, Tempo, 342466
1, 112680, Note_on_c, 0, 68, 0
1, 112680, Note_on_c, 0, 65, 28
1, 112782, Tempo, 343446
1, 112800, Note_on_c, 0, 65, 0
1, 112800, Note_on_c, 0, 56, 0
1, 112800, Note_on_c, 0, 66, 33
1, 112800, Note_on_c, 0, 53, 33
1, 112920, Note_on_c, 0, 66, 0
1, 112920, Note_on_c, 0, 65, 28
1, 112962, Tempo, 344432
1, 113040, Note_on_c, 0, 65, 0
1, 113040, Note_on_c, 0, 53, 0
1, 113040, Note_on_c, 0, 64, 30
1, 113040, Note_on_c, 0, 50, 31
1, 113122, Tempo, 345423
1, 113160, Note_on_c, 0, 64, 0
1, 113160, Note_on_c, 0, 65, 28
1, 113280, Tempo, 367647
1, 113280, Note_on_c, 0, 65, 0
1, 113280, Note_on_c, 0, 50, 0
1, 113280, Note_on_c, 0, 37, 0
1, 113280, Note_on_c, 0, 53, 0
1, 113280, Note_on_c, 0, 61, 0
1, 113280, Note_on_c, 0, 25, 0
1, 113280, Note_on_c, 0, 56, 45
1, 113280, Note_on_c, 0, 44, 47
1, 113280, Note_on_c, 0, 32, 47
1, 113282, Tempo, 365408
1, 113287, Control_c, 0, 64, 0
1, 113302, Tempo, 364299
1, 113322, Tempo, 363196
1, 113342, Tempo, 362100
1, 113362, Tempo, 361011
1, 113382, Tempo, 359928
1, 113383, Control_c, 0, 64, 127
1, 113402, Tempo, 358852
1, 113422, Tempo, 357782
1, 113442, Tempo, 356718
1, 113462, Tempo, 355661
1, 113482, Tempo, 354610
1, 113502, Tempo, 353565
1, 113520, Note_on_c, 0, 60, 28
1, 113520, Note_on_c, 0, 48, 31
1, 113522, Tempo, 352526
1, 113542, Tempo, 351494
1, 113562, Tempo, 350467
1, 113582, Tempo, 349447
1, 113602, Tempo, 348432
1, 113622, Tempo, 347423
1, 113640, Note_on_c, 0, 60, 0
1, 113640, Note_on_c, 0, 65, 28
1, 113642, Tempo, 346420
1, 113682, Tempo, 346420
1, 113760, Note_on_c, 0, 65, 0
1, 113760, Note_on_c, 0, 48, 0
1, 113760, Note_on_c, 0, 67, 29
1, 113760, Note_on_c, 0, 53, 33
1, 113782, Tempo, 345423
1, 113880, Note_on_c, 0, 67, 0
1, 113880, Note_on_c, 0, 65, 30
1, 113882, Tempo, 344432
1, 114000, Note_on_c, 0, 65, 0
1, 114000, Note_on_c, 0, 53, 0
1, 114000, Note_on_c, 0, 64, 31
1, 114000, Note_on_c, 0, 56, 30
1, 114002, Tempo, 343446
1, 114102, Tempo, 342466
1, 114120, Note_on_c, 0, 64, 0
1, 114120, Note_on_c, 0, 65, 32
1, 114202, Tempo, 340522
1, 114240, Note_on_c, 0, 65, 0
1, 114240, Note_on_c, 0, 56, 0
1, 114240, Note_on_c, 0, 72, 34
1, 114240, Note_on_c, 0, 60, 39
1, 114360, Note_on_c, 0, 72, 0
1, 114360, Note_on_c, 0, 70, 28
1, 114382, Tempo, 341491
1, 114480, Note_on_c, 0, 70, 0
1, 114480, Note_on_c, 0, 60, 0
1, 114480, Note_on_c, 0, 68, 33
1, 114480, Note_on_c, 0, 56, 31
1, 114542, Tempo, 342466
1, 114600, Note_on_c, 0, 68, 0
1, 114600, Note_on_c, 0, 65, 28
1, 114702, Tempo, 343446
1, 114720, Note_on_c, 0, 65, 0
1, 114720, Note_on_c, 0, 56, 0
1, 114720, Note_on_c, 0, 67, 33
1, 114720, Note_on_c, 0, 53, 33
1, 114840, Note_on_c, 0, 67, 0
1, 114840, Note_on_c, 0, 65, 28
1, 114882, Tempo, 344432
1, 114960, Note_on_c, 0, 65, 0
1, 114960, Note_on_c, 0, 53, 0
1, 114960, Note_on_c, 0, 64, 30
1, 114960, Note_on_c, 0, 48, 31
1, 115042, Tempo, 345423
1, 115080, Note_on_c, 0, 64, 0
1, 115080, Note_on_c, 0, 65, 28
1, 115200, Tempo, 367647
1, 115200, Note_on_c, 0, 65, 0
1, 115200, Note_on_c, 0, 48, 0
1, 115200, Note_on_c, 0, 56, 0
1, 115200, Note_on_c, 0, 44, 0
1, 115200, Note_on_c, 0, 32, 0
1, 115200, Note_on_c, 0, 56, 45
1, 115200, Note_on_c, 0, 43, 47
1, 115200, Note_on_c, 0, 31, 47
1, 115202, Tempo, 365408
1, 115207, Control_c, 0, 64, 0
1, 115222, Tempo, 364299
1, 115242, Tempo, 363196
1, 115262, Tempo, 362100
1, 115282, Tempo, 361011
1, 115302, Tempo, 359928
1, 115303, Control_c, 0, 64, 127
1, 115320, Note_on_c, 0, 59, 28
1, 115322, Tempo, 358852
1, 115342, Tempo, 357782
1, 115362, Tempo, 356718
1, 115382, Tempo, 355661
1, 115402, Tempo, 354610
1, 115422, Tempo, 353565
1, 115440, Note_on_c, 0, 59, 0
1, 115440, Note_on_c, 0, 61, 28
1, 115440, Note_on_c, 0, 53, 52
1, 115442, Tempo, 352526
1, 115462, Tempo, 351494
1, 115482, Tempo, 350467
1, 115502, Tempo, 349447
1, 115522, Tempo, 348432
1, 115542, Tempo, 347423
1, 115560, Note_on_c, 0, 61, 0
1, 115560, Note_on_c, 0, 62, 28
1, 115562, Tempo, 346420
1, 115602, Tempo, 346420
1, 115680, Note_on_c, 0, 62, 0
1, 115680, Note_on_c, 0, 63, 29
1, 115702, Tempo, 345423
1, 115800, Note_on_c, 0, 63, 0
1, 115800, Note_on_c, 0, 62, 30
1, 115802, Tempo, 344432
1, 115920, Note_on_c, 0, 62, 0
1, 115920, Note_on_c, 0, 53, 0
1, 115920, Note_on_c, 0, 61, 31
1, 115920, Note_on_c, 0, 56, 50
1, 115922, Tempo, 343446
1, 116022, Tempo, 342466
1, 116040, Note_on_c, 0, 61, 0
1, 116040, Note_on_c, 0, 62, 32
1, 116122, Tempo, 340522
1, 116160, Note_on_c, 0, 62, 0
1, 116160, Note_on_c, 0, 71, 40
1, 116280, Note_on_c, 0, 67, 28
1, 116302, Tempo, 341491
1, 116400, Note_on_c, 0, 67, 0
1, 116400, Note_on_c, 0, 56, 0
1, 116400, Note_on_c, 0, 65, 38
1, 116400, Note_on_c, 0, 59, 54
1, 116462, Tempo, 342466
1, 116520, Note_on_c, 0, 65, 0
1, 116520, Note_on_c, 0, 62, 32
1, 116622, Tempo, 343446
1, 116640, Note_on_c, 0, 62, 0
1, 116640, Note_on_c, 0, 71, 0
1, 116640, Note_on_c, 0, 63, 39
1, 116760, Note_on_c, 0, 63, 0
1, 116760, Note_on_c, 0, 62, 32
1, 116802, Tempo, 344432
1, 116880, Note_on_c, 0, 62, 0
1, 116880, Note_on_c, 0, 59, 0
1, 116880, Note_on_c, 0, 61, 38
1, 116880, Note_on_c, 0, 65, 58
1, 116962, Tempo, 345423
1, 117000, Note_on_c, 0, 61, 0
1, 117000, Note_on_c, 0, 62, 28
1, 117120, Tempo, 337648
1, 117120, Note_on_c, 0, 62, 0
1, 117120, Note_on_c, 0, 65, 0
1, 117120, Note_on_c, 0, 43, 0
1, 117120, Note_on_c, 0, 31, 0
1, 117120, Note_on_c, 0, 56, 0
1, 117120, Note_on_c, 0, 55, 65
1, 117141, Tempo, 344432
1, 117218, Tempo, 343446
1, 117240, Note_on_c, 0, 55, 0
1, 117240, Note_on_c, 0, 62, 38
1, 117295, Tempo, 342466
1, 117360, Note_on_c, 0, 62, 0
1, 117360, Note_on_c, 0, 65, 47
1, 117372, Tempo, 337648
1, 117391, Tempo, 338600
1, 117410, Tempo, 339559
1, 117429, Tempo, 341491
1, 117449, Tempo, 342466
1, 117468, Tempo, 344432
1, 117480, Note_on_c, 0, 65, 0
1, 117480, Note_on_c, 0, 71, 55
1, 117487, Tempo, 345423
1, 117506, Tempo, 346420
1, 117525, Tempo, 348432
1, 117545, Tempo, 349447
1, 117564, Tempo, 351494
1, 117600, Tempo, 340522
1, 117600, Note_on_c, 0, 71, 0
1, 117600, Note_on_c, 0, 79, 70
1, 117617, Control_c, 0, 64, 0
1, 117641, Tempo, 337648
1, 117680, Control_c, 0, 64, 127
1, 117720, Note_on_c, 0, 72, 41
1, 117840, Note_on_c, 0, 72, 0
1, 117840, Note_on_c, 0, 71, 49
1, 117960, Note_on_c, 0, 71, 0
1, 117960, Note_on_c, 0, 67, 43
1, 118080, Note_on_c, 0, 67, 0
1, 118080, Note_on_c, 0, 65, 38
1, 118200, Note_on_c, 0, 65, 0
1, 118200, Note_on_c, 0, 63, 34
1, 118320, Note_on_c, 0, 63, 0
1, 118320, Note_on_c, 0, 67, 33
1, 118440, Note_on_c, 0, 67, 0
1, 118440, Note_on_c, 0, 68, 26
1, 118466, Tempo, 341491
1, 118543, Tempo, 342466
1, 118560, Note_on_c, 0, 68, 0
1, 118560, Note_on_c, 0, 79, 0
1, 118560, Note_on_c, 0, 80, 56
1, 118560, Note_on_c, 0, 72, 33
1, 118576, Control_c, 0, 64, 0
1, 118646, Control_c, 0, 64, 127
1, 118680, Note_on_c, 0, 71, 31
1, 118737, Tempo, 343446
1, 118775, Tempo, 344432
1, 118794, Tempo, 345423
1, 118800, Note_on_c, 0, 71, 0
1, 118800, Note_on_c, 0, 72, 0
1, 118800, Note_on_c, 0, 72, 42
1, 118813, Tempo, 346420
1, 118833, Tempo, 347423
1, 118871, Tempo, 348432
1, 118890, Tempo, 349447
1, 118909, Tempo, 350467
1, 118920, Note_on_c, 0, 72, 0
1, 118920, Note_on_c, 0, 75, 34
1, 118929, Tempo, 351494
1, 118967, Tempo, 352526
1, 118986, Tempo, 353565
1, 119005, Tempo, 354610
1, 119025, Tempo, 355661
1, 119040, Tempo, 367647
1, 119040, Note_on_c, 0, 75, 0
1, 119040, Note_on_c, 0, 80, 0
1, 119040, Note_on_c, 0, 56, 54
1, 119040, Note_on_c, 0, 43, 65
1, 119040, Note_on_c, 0, 31, 65
1, 119042, Tempo, 365408
1, 119047, Control_c, 0, 64, 0
1, 119062, Tempo, 364299
1, 119082, Tempo, 363196
1, 119102, Tempo, 362100
1, 119122, Tempo, 361011
1, 119142, Tempo, 359928
1, 119143, Control_c, 0, 64, 127
1, 119162, Tempo, 358852
1, 119182, Tempo, 357782
1, 119202, Tempo, 356718
1, 119222, Tempo, 355661
1, 119242, Tempo, 354610
1, 119262, Tempo, 353565
1, 119280, Note_on_c, 0, 59, 33
1, 119280, Note_on_c, 0, 53, 62
1, 119282, Tempo, 352526
1, 119302, Tempo, 351494
1, 119322, Tempo, 350467
1, 119342, Tempo, 349447
1, 119362, Tempo, 348432
1, 119382, Tempo, 347423
1, 119400, Note_on_c, 0, 59, 0
1, 119400, Note_on_c, 0, 62, 34
1, 119402, Tempo, 346420
1, 119442, Tempo, 346420
1, 119520, Note_on_c, 0, 62, 0
1, 119520, Note_on_c, 0, 63, 35
1, 119542, Tempo, 345423
1, 119640, Note_on_c, 0, 63, 0
1, 119640, Note_on_c, 0, 62, 37
1, 119642, Tempo, 344432
1, 119760, Note_on_c, 0, 62, 0
1, 119760, Note_on_c, 0, 53, 0
1, 119760, Note_on_c, 0, 61, 38
1, 119760, Note_on_c, 0, 56, 62
1, 119762, Tempo, 343446
1, 119862, Tempo, 342466
1, 119880, Note_on_c, 0, 61, 0
1, 119880, Note_on_c, 0, 62, 40
1, 119962, Tempo, 340522
1, 120000, Note_on_c, 0, 62, 0
1, 120000, Note_on_c, 0, 71, 50
1, 120120, Note_on_c, 0, 67, 35
1, 120142, Tempo, 341491
1, 120240, Note_on_c, 0, 67, 0
1, 120240, Note_on_c, 0, 56, 0
1, 120240, Note_on_c, 0, 65, 49
1, 120240, Note_on_c, 0, 59, 69
1, 120302, Tempo, 342466
1, 120360, Note_on_c, 0, 65, 0
1, 120360, Note_on_c, 0, 62, 41
1, 120462, Tempo, 343446
1, 120480, Note_on_c, 0, 62, 0
1, 120480, Note_on_c, 0, 71, 0
1, 120480, Note_on_c, 0, 63, 51
1, 120600, Note_on_c, 0, 63, 0
1, 120600, Note_on_c, 0, 62, 42
1, 120642, Tempo, 344432
1, 120720, Note_on_c, 0, 62, 0
1, 120720, Note_on_c, 0, 59, 0
1, 120720, Note_on_c, 0, 61, 50
1, 120720, Note_on_c, 0, 65, 77
1, 120802, Tempo, 345423
1, 120840, Note_on_c, 0, 61, 0
1, 120840, Note_on_c, 0, 62, 37
1, 120960, Tempo, 337648
1, 120960, Note_on_c, 0, 62, 0
1, 120960, Note_on_c, 0, 65, 0
1, 120960, Note_on_c, 0, 43, 0
1, 120960, Note_on_c, 0, 56, 0
1, 120960, Note_on_c, 0, 31, 0
1, 120960, Note_on_c, 0, 55, 82
1, 120981, Tempo, 344432
1, 121058, Tempo, 343446
1, 121080, Note_on_c, 0, 55, 0
1, 121080, Note_on_c, 0, 61, 51
1, 121135, Tempo, 342466
1, 121200, Note_on_c, 0, 61, 0
1, 121200, Note_on_c, 0, 65, 64
1, 121212, Tempo, 337648
1, 121231, Tempo, 338600
1, 121250, Tempo, 339559
1, 121269, Tempo, 341491
1, 121289, Tempo, 342466
1, 121308, Tempo, 344432
1, 121320, Note_on_c, 0, 65, 0
1, 121320, Note_on_c, 0, 70, 75
1, 121327, Tempo, 345423
1, 121346, Tempo, 346420
1, 121365, Tempo, 348432
1, 121385, Tempo, 349447
1, 121404, Tempo, 351494
1, 121440, Tempo, 340522
1, 121440, Note_on_c, 0, 70, 0
1, 121440, Note_on_c, 0, 82, 77
1, 121457, Control_c, 0, 64, 0
1, 121481, Tempo, 337648
1, 121520, Control_c, 0, 64, 127
1, 121560, Note_on_c, 0, 75, 55
1, 121680, Note_on_c, 0, 75, 0
1, 121680, Note_on_c, 0, 73, 66
1, 121800, Note_on_c, 0, 73, 0
1, 121800, Note_on_c, 0, 70, 58
1, 121920, Note_on_c, 0, 70, 0
1, 121920, Note_on_c, 0, 68, 51
1, 122040, Note_on_c, 0, 68, 0
1, 122040, Note_on_c, 0, 67, 45
1, 122160, Note_on_c, 0, 67, 0
1, 122160, Note_on_c, 0, 70, 44
1, 122280, Note_on_c, 0, 70, 0
1, 122280, Note_on_c, 0, 72, 35
1, 122306, Tempo, 341491
1, 122383, Tempo, 342466
1, 122400, Note_on_c, 0, 72, 0
1, 122400, Note_on_c, 0, 82, 0
1, 122400, Note_on_c, 0, 84, 75
1, 122400, Note_on_c, 0, 76, 44
1, 122416, Control_c, 0, 64, 0
1, 122486, Control_c, 0, 64, 127
1, 122520, Note_on_c, 0, 75, 41
1, 122577, Tempo, 343446
1, 122615, Tempo, 344432
1, 122634, Tempo, 345423
1, 122640, Note_on_c, 0, 75, 0
1, 122640, Note_on_c, 0, 76, 0
1, 122640, Note_on_c, 0, 76, 56
1, 122653, Tempo, 346420
1, 122673, Tempo, 347423
1, 122711, Tempo, 348432
1, 122730, Tempo, 349447
1, 122749, Tempo, 350467
1, 122760, Tempo, 401311
1, 122760, Note_on_c, 0, 76, 0
1, 122760, Note_on_c, 0, 79, 45
1, 122865, Tempo, 355661
1, 122880, Note_on_c, 0, 79, 0
1, 122880, Note_on_c, 0, 84, 0
1, 122880, Note_on_c, 0, 73, 50
1, 122880, Note_on_c, 0, 77, 50
1, 122880, Note_on_c, 0, 85, 59
1, 122880, Note_on_c, 0, 80, 50
1, 122880, Note_on_c, 0, 41, 60
1, 122880, Note_on_c, 0, 29, 60
1, 122880, Control_c, 0, 64, 0
1, 122989, Control_c, 0, 64, 127
1, 123000, Note_on_c, 0, 29, 0
1, 123000, Note_on_c, 0, 41, 0
1, 123000, Note_on_c, 0, 49, 50
1, 123002, Tempo, 346420
1, 123082, Tempo, 345423
1, 123120, Note_on_c, 0, 49, 0
1, 123120, Note_on_c, 0, 56, 51
1, 123162, Tempo, 344432
1, 123240, Note_on_c, 0, 56, 0
1, 123240, Note_on_c, 0, 60, 48
1, 123242, Tempo, 343446
1, 123322, Tempo, 342466
1, 123360, Note_on_c, 0, 60, 0
1, 123360, Note_on_c, 0, 63, 56
1, 123402, Tempo, 341491
1, 123462, Tempo, 340522
1, 123480, Note_on_c, 0, 63, 0
1, 123480, Note_on_c, 0, 61, 50
1, 123600, Note_on_c, 0, 61, 0
1, 123600, Note_on_c, 0, 60, 50
1, 123720, Tempo, 375704
1, 123720, Note_on_c, 0, 60, 0
1, 123720, Note_on_c, 0, 61, 50
1, 123840, Note_on_c, 0, 61, 0
1, 123840, Note_on_c, 0, 65, 57
1, 123842, Tempo, 335758
1, 123882, Tempo, 336700
1, 123960, Note_on_c, 0, 65, 0
1, 123960, Note_on_c, 0, 56, 49
1, 124080, Note_on_c, 0, 56, 0
1, 124080, Note_on_c, 0, 61, 49
1, 124200, Note_on_c, 0, 61, 0
1, 124200, Note_on_c, 0, 65, 49
1, 124320, Note_on_c, 0, 65, 0
1, 124320, Note_on_c, 0, 68, 57
1, 124322, Tempo, 337648
1, 124440, Note_on_c, 0, 68, 0
1, 124440, Note_on_c, 0, 70, 49
1, 124560, Note_on_c, 0, 70, 0
1, 124560, Note_on_c, 0, 72, 51
1, 124680, Tempo, 372208
1, 124680, Note_on_c, 0, 72, 0
1, 124680, Note_on_c, 0, 73, 47
1, 124762, Tempo, 338600
1, 124777, Control_c, 0, 64, 0
1, 124800, Tempo, 338600
1, 124800, Note_on_c, 0, 73, 0
1, 124800, Note_on_c, 0, 80, 0
1, 124800, Note_on_c, 0, 73, 0
1, 124800, Note_on_c, 0, 77, 0
1, 124800, Note_on_c, 0, 85, 0
1, 124800, Note_on_c, 0, 75, 57
1, 124843, Control_c, 0, 64, 127
1, 124920, Note_on_c, 0, 75, 0
1, 124920, Note_on_c, 0, 73, 47
1, 125040, Note_on_c, 0, 73, 0
1, 125040, Note_on_c, 0, 72, 49
1, 125160, Tempo, 379267
1, 125160, Note_on_c, 0, 72, 0
1, 125160, Note_on_c, 0, 73, 46
1, 125280, Tempo, 347423
1, 125280, Note_on_c, 0, 73, 0
1, 125280, Note_on_c, 0, 77, 53
1, 125400, Note_on_c, 0, 77, 0
1, 125400, Note_on_c, 0, 68, 45
1, 125520, Note_on_c, 0, 68, 0
1, 125520, Note_on_c, 0, 73, 47
1, 125640, Note_on_c, 0, 73, 0
1, 125640, Note_on_c, 0, 77, 43
1, 125760, Tempo, 352526
1, 125760, Note_on_c, 0, 77, 0
1, 125760, Note_on_c, 0, 80, 51
1, 125762, Tempo, 376648
1, 125802, Tempo, 377834
1, 125822, Tempo, 379027
1, 125842, Tempo, 380228
1, 125862, Tempo, 381437
1, 125880, Note_on_c, 0, 80, 0
1, 125880, Note_on_c, 0, 79, 41
1, 125902, Tempo, 382653
1, 125922, Tempo, 383877
1, 125942, Tempo, 385109
1, 125962, Tempo, 386349
1, 126000, Note_on_c, 0, 79, 0
1, 126000, Note_on_c, 0, 80, 46
1, 126002, Tempo, 387597
1, 126022, Tempo, 388853
1, 126042, Tempo, 390117
1, 126062, Tempo, 391389
1, 126102, Tempo, 392670
1, 126120, Note_on_c, 0, 80, 0
1, 126120, Note_on_c, 0, 82, 40
1, 126122, Tempo, 393959
1, 126150, Note_on_c, 0, 66, 29
1, 126180, Note_on_c, 0, 72, 29
1, 126210, Note_on_c, 0, 75, 29
1, 126222, Tempo, 493868
1, 126240, Note_on_c, 0, 82, 0
1, 126240, Note_on_c, 0, 84, 50
1, 126240, Note_on_c, 0, 81, 35
1, 126262, Tempo, 495909
1, 126282, Tempo, 497967
1, 126302, Tempo, 500042
1, 126342, Tempo, 502134
1, 126360, Note_on_c, 0, 84, 0
1, 126360, Note_on_c, 0, 86, 38
1, 126362, Tempo, 504244
1, 126382, Tempo, 506372
1, 126422, Tempo, 508518
1, 126442, Tempo, 510682
1, 126480, Tempo, 685793
1, 126480, Note_on_c, 0, 86, 0
1, 126480, Note_on_c, 0, 87, 38
1, 126600, Tempo, 4002668
1, 126600, Note_on_c, 0, 87, 0
1, 126600, Note_on_c, 0, 96, 58
1, 126660, Tempo, 7500000
1, 126690, Note_on_c, 0, 96, 0
1, 126690, Note_on_c, 0, 81, 0
1, 126690, Note_on_c, 0, 75, 0
1, 126690, Note_on_c, 0, 72, 0
1, 126690, Note_on_c, 0, 66, 0
1, 126690, Control_c, 0, 64, 0
1, 126720, Tempo, 351494
1, 126720, Note_on_c, 0, 68, 36
1, 126720, Note_on_c, 0, 72, 36
1, 126720, Note_on_c, 0, 31, 27
1, 126720, Note_on_c, 0, 43, 27
1, 126743, Tempo, 359928
1, 126839, Tempo, 358852
1, 126935, Tempo, 357782
1, 126960, Note_on_c, 0, 62, 29
1, 126960, Note_on_c, 0, 53, 27
1, 127031, Tempo, 356718
1, 127080, Note_on_c, 0, 63, 30
1, 127104, Note_on_c, 0, 62, 0
1, 127127, Tempo, 355661
1, 127200, Note_on_c, 0, 53, 0
1, 127200, Note_on_c, 0, 67, 32
1, 127200, Note_on_c, 0, 56, 27
1, 127223, Tempo, 354610
1, 127224, Note_on_c, 0, 63, 0
1, 127319, Tempo, 353565
1, 127320, Note_on_c, 0, 65, 30
1, 127344, Note_on_c, 0, 67, 0
1, 127415, Tempo, 352526
1, 127440, Note_on_c, 0, 56, 0
1, 127440, Note_on_c, 0, 63, 30
1, 127440, Note_on_c, 0, 59, 27
1, 127464, Note_on_c, 0, 65, 0
1, 127560, Note_on_c, 0, 65, 27
1, 127584, Note_on_c, 0, 63, 0
1, 127680, Note_on_c, 0, 59, 0
1, 127680, Note_on_c, 0, 68, 0
1, 127680, Note_on_c, 0, 65, 0
1, 127680, Note_on_c, 0, 68, 32
1, 127680, Note_on_c, 0, 60, 27
1, 127742, Tempo, 349447
1, 127800, Note_on_c, 0, 67, 27
1, 127838, Tempo, 350467
1, 127915, Tempo, 351494
1, 127920, Note_on_c, 0, 60, 0
1, 127920, Note_on_c, 0, 65, 27
1, 127920, Note_on_c, 0, 56, 27
1, 127944, Note_on_c, 0, 67, 0
1, 128011, Tempo, 352526
1, 128040, Note_on_c, 0, 67, 28
1, 128064, Note_on_c, 0, 65, 0
1, 128087, Tempo, 353565
1, 128160, Note_on_c, 0, 65, 28
1, 128183, Tempo, 354610
1, 128184, Note_on_c, 0, 67, 0
1, 128260, Tempo, 355661
1, 128280, Note_on_c, 0, 63, 24
1, 128304, Note_on_c, 0, 65, 0
1, 128356, Tempo, 356718
1, 128400, Note_on_c, 0, 56, 0
1, 128400, Note_on_c, 0, 62, 27
1, 128400, Note_on_c, 0, 53, 27
1, 128424, Note_on_c, 0, 63, 0
1, 128433, Tempo, 357782
1, 128520, Note_on_c, 0, 63, 26
1, 128529, Tempo, 358852
1, 128544, Note_on_c, 0, 62, 0
1, 128606, Tempo, 359928
1, 128640, Tempo, 351494
1, 128640, Note_on_c, 0, 53, 0
1, 128640, Note_on_c, 0, 43, 0
1, 128640, Note_on_c, 0, 72, 0
1, 128640, Note_on_c, 0, 31, 0
1, 128640, Note_on_c, 0, 63, 0
1, 128640, Note_on_c, 0, 68, 0
1, 128640, Note_on_c, 0, 67, 28
1, 128640, Note_on_c, 0, 71, 28
1, 128640, Note_on_c, 0, 43, 21
1, 128654, Control_c, 0, 64, 0
1, 128662, Tempo, 363614
1, 128762, Tempo, 362516
1, 128862, Tempo, 361424
1, 128880, Note_on_c, 0, 62, 23
1, 128880, Note_on_c, 0, 53, 21
1, 128962, Tempo, 360339
1, 129000, Note_on_c, 0, 63, 24
1, 129024, Note_on_c, 0, 62, 0
1, 129062, Tempo, 359260
1, 129120, Note_on_c, 0, 53, 0
1, 129120, Note_on_c, 0, 65, 25
1, 129120, Note_on_c, 0, 55, 21
1, 129144, Note_on_c, 0, 63, 0
1, 129162, Tempo, 358188
1, 129240, Note_on_c, 0, 63, 24
1, 129262, Tempo, 357122
1, 129264, Note_on_c, 0, 65, 0
1, 129360, Note_on_c, 0, 55, 0
1, 129360, Note_on_c, 0, 62, 24
1, 129360, Note_on_c, 0, 58, 21
1, 129362, Tempo, 356062
1, 129384, Note_on_c, 0, 63, 0
1, 129462, Tempo, 355009
1, 129480, Note_on_c, 0, 63, 21
1, 129504, Note_on_c, 0, 62, 0
1, 129542, Tempo, 353961
1, 129582, Tempo, 355009
1, 129600, Note_on_c, 0, 58, 0
1, 129600, Note_on_c, 0, 67, 0
1, 129600, Note_on_c, 0, 63, 0
1, 129600, Note_on_c, 0, 67, 25
1, 129600, Note_on_c, 0, 59, 21
1, 129622, Tempo, 356062
1, 129662, Tempo, 357122
1, 129682, Tempo, 358188
1, 129720, Note_on_c, 0, 65, 21
1, 129722, Tempo, 359260
1, 129762, Tempo, 360339
1, 129802, Tempo, 361424
1, 129822, Tempo, 362516
1, 129840, Note_on_c, 0, 59, 0
1, 129840, Note_on_c, 0, 63, 21
1, 129840, Note_on_c, 0, 55, 21
1, 129862, Tempo, 363614
1, 129864, Note_on_c, 0, 65, 0
1, 129902, Tempo, 364719
1, 129942, Tempo, 365831
1, 129960, Note_on_c, 0, 65, 22
1, 129962, Tempo, 366950
1, 129984, Note_on_c, 0, 63, 0
1, 130002, Tempo, 368076
1, 130042, Tempo, 369208
1, 130080, Note_on_c, 0, 63, 22
1, 130082, Tempo, 370348
1, 130102, Tempo, 371494
1, 130104, Note_on_c, 0, 65, 0
1, 130122, Tempo, 372648
1, 130142, Tempo, 374977
1, 130162, Tempo, 376152
1, 130182, Tempo, 376199
1, 130200, Note_on_c, 0, 62, 19
1, 130202, Tempo, 379771
1, 130222, Tempo, 384640
1, 130224, Note_on_c, 0, 63, 0
1, 130242, Tempo, 389636
1, 130262, Tempo, 394763
1, 130282, Tempo, 400027
1, 130302, Tempo, 405433
1, 130320, Note_on_c, 0, 59, 21
1, 130322, Tempo, 410987
1, 130342, Tempo, 416696
1, 130344, Note_on_c, 0, 62, 0
1, 130362, Tempo, 422565
1, 130382, Tempo, 427077
1, 130402, Tempo, 433244
1, 130422, Tempo, 439593
1, 130440, Note_on_c, 0, 62, 20
1, 130442, Tempo, 446130
1, 130462, Tempo, 452864
1, 130464, Note_on_c, 0, 59, 0
1, 130482, Tempo, 459805
1, 130502, Tempo, 466962
1, 130522, Tempo, 474346
1, 130542, Tempo, 481966
1, 130560, Note_on_c, 0, 55, 0
1, 130560, Note_on_c, 0, 67, 0
1, 130560, Note_on_c, 0, 43, 0
1, 130560, Note_on_c, 0, 62, 0
1, 130560, Note_on_c, 0, 71, 0
1, 130560, Note_on_c, 0, 60, 28
1, 130560, Note_on_c, 0, 48, 19
1, 130560, Note_on_c, 0, 55, 24
1, 130560, Control_c, 0, 64, 0
1, 130562, Tempo, 442772
1, 130582, Tempo, 451094
1, 130646, Control_c, 0, 64, 127
1, 130680, Note_on_c, 0, 60, 0
1, 130680, Note_on_c, 0, 63, 28
1, 130800, Note_on_c, 0, 63, 0
1, 130800, Note_on_c, 0, 66, 28
1, 130920, Note_on_c, 0, 66, 0
1, 130920, Note_on_c, 0, 67, 33
1, 131040, Tempo, 385827
1, 131040, Note_on_c, 0, 67, 0
1, 131040, Note_on_c, 0, 55, 0
1, 131040, Note_on_c, 0, 48, 0
1, 131040, Note_on_c, 0, 71, 33
1, 131160, Tempo, 370348
1, 131160, Note_on_c, 0, 75, 28
1, 131280, Tempo, 356062
1, 131280, Note_on_c, 0, 75, 0
1, 131280, Note_on_c, 0, 71, 0
1, 131280, Note_on_c, 0, 78, 28
1, 131280, Note_on_c, 0, 72, 25
1, 131302, Tempo, 365831
1, 131342, Tempo, 364719
1, 131382, Tempo, 363614
1, 131400, Note_on_c, 0, 78, 0
1, 131400, Note_on_c, 0, 79, 28
1, 131422, Tempo, 362516
1, 131462, Tempo, 361424
1, 131482, Tempo, 360339
1, 131520, Note_on_c, 0, 79, 0
1, 131520, Note_on_c, 0, 72, 0
1, 131520, Note_on_c, 0, 80, 34
1, 131520, Note_on_c, 0, 60, 30
1, 131522, Tempo, 359260
1, 131549, Control_c, 0, 64, 0
1, 131562, Tempo, 358188
1, 131602, Tempo, 357122
1, 131640, Note_on_c, 0, 80, 0
1, 131640, Note_on_c, 0, 79, 28
1, 131640, Control_c, 0, 64, 127
1, 131642, Tempo, 359260
1, 131662, Tempo, 355009
1, 131760, Note_on_c, 0, 79, 0
1, 131760, Note_on_c, 0, 78, 28
1, 131760, Note_on_c, 0, 63, 24
1, 131880, Tempo, 390854
1, 131880, Note_on_c, 0, 78, 0
1, 131880, Note_on_c, 0, 79, 31
1, 132000, Tempo, 355009
1, 132000, Note_on_c, 0, 79, 0
1, 132000, Note_on_c, 0, 63, 0
1, 132000, Note_on_c, 0, 60, 0
1, 132000, Note_on_c, 0, 87, 42
1, 132000, Note_on_c, 0, 66, 29
1, 132120, Note_on_c, 0, 87, 0
1, 132120, Note_on_c, 0, 86, 30
1, 132240, Note_on_c, 0, 86, 0
1, 132240, Note_on_c, 0, 66, 0
1, 132240, Note_on_c, 0, 84, 37
1, 132240, Note_on_c, 0, 67, 24
1, 132360, Tempo, 388324
1, 132360, Note_on_c, 0, 84, 0
1, 132360, Note_on_c, 0, 79, 33
1, 132480, Tempo, 353961
1, 132480, Note_on_c, 0, 79, 0
1, 132480, Note_on_c, 0, 67, 0
1, 132480, Note_on_c, 0, 80, 36
1, 132480, Note_on_c, 0, 63, 31
1, 132491, Control_c, 0, 64, 0
1, 132577, Control_c, 0, 64, 127
1, 132600, Note_on_c, 0, 80, 0
1, 132600, Note_on_c, 0, 79, 28
1, 132720, Note_on_c, 0, 79, 0
1, 132720, Note_on_c, 0, 78, 33
1, 132720, Note_on_c, 0, 67, 28
1, 132840, Tempo, 404013
1, 132840, Note_on_c, 0, 78, 0
1, 132840, Note_on_c, 0, 79, 28
1, 132960, Tempo, 385827
1, 132960, Note_on_c, 0, 79, 0
1, 132960, Note_on_c, 0, 67, 0
1, 132960, Note_on_c, 0, 63, 0
1, 132960, Note_on_c, 0, 70, 33
1, 132962, Tempo, 368076
1, 133042, Tempo, 366950
1, 133080, Note_on_c, 0, 75, 28
1, 133102, Tempo, 365831
1, 133182, Tempo, 364719
1, 133200, Note_on_c, 0, 75, 0
1, 133200, Note_on_c, 0, 70, 0
1, 133200, Note_on_c, 0, 78, 28
1, 133200, Note_on_c, 0, 71, 25
1, 133242, Tempo, 363614
1, 133320, Note_on_c, 0, 78, 0
1, 133320, Note_on_c, 0, 79, 28
1, 133322, Tempo, 362516
1, 133382, Tempo, 361424
1, 133402, Tempo, 360339
1, 133440, Note_on_c, 0, 79, 0
1, 133440, Note_on_c, 0, 71, 0
1, 133440, Note_on_c, 0, 80, 34
1, 133440, Note_on_c, 0, 55, 30
1, 133440, Note_on_c, 0, 59, 30
1, 133442, Tempo, 359260
1, 133451, Control_c, 0, 64, 0
1, 133482, Tempo, 358188
1, 133515, Control_c, 0, 64, 127
1, 133522, Tempo, 357122
1, 133560, Note_on_c, 0, 80, 0
1, 133560, Note_on_c, 0, 79, 28
1, 133562, Tempo, 359260
1, 133582, Tempo, 355009
1, 133680, Note_on_c, 0, 79, 0
1, 133680, Note_on_c, 0, 59, 0
1, 133680, Note_on_c, 0, 78, 28
1, 133680, Note_on_c, 0, 63, 24
1, 133800, Tempo, 390854
1, 133800, Note_on_c, 0, 78, 0
1, 133800, Note_on_c, 0, 79, 31
1, 133920, Tempo, 355009
1, 133920, Note_on_c, 0, 79, 0
1, 133920, Note_on_c, 0, 63, 0
1, 133920, Note_on_c, 0, 55, 0
1, 133920, Note_on_c, 0, 87, 42
1, 133920, Note_on_c, 0, 66, 29
1, 134040, Note_on_c, 0, 87, 0
1, 134040, Note_on_c, 0, 86, 30
1, 134160, Note_on_c, 0, 86, 0
1, 134160, Note_on_c, 0, 66, 0
1, 134160, Note_on_c, 0, 83, 37
1, 134160, Note_on_c, 0, 67, 24
1, 134280, Tempo, 388324
1, 134280, Note_on_c, 0, 83, 0
1, 134280, Note_on_c, 0, 79, 33
1, 134400, Tempo, 353961
1, 134400, Note_on_c, 0, 79, 0
1, 134400, Note_on_c, 0, 67, 0
1, 134400, Note_on_c, 0, 80, 36
1, 134400, Note_on_c, 0, 63, 31
1, 134409, Control_c, 0, 64, 0
1, 134486, Control_c, 0, 64, 127
1, 134520, Note_on_c, 0, 80, 0
1, 134520, Note_on_c, 0, 79, 28
1, 134640, Note_on_c, 0, 79, 0
1, 134640, Note_on_c, 0, 78, 33
1, 134640, Note_on_c, 0, 67, 28
1, 134760, Note_on_c, 0, 78, 0
1, 134760, Note_on_c, 0, 79, 28
1, 134880, Tempo, 385827
1, 134880, Note_on_c, 0, 79, 0
1, 134880, Note_on_c, 0, 67, 0
1, 134880, Note_on_c, 0, 63, 0
1, 134880, Note_on_c, 0, 69, 33
1, 134882, Tempo, 368076
1, 134962, Tempo, 366950
1, 135000, Note_on_c, 0, 75, 28
1, 135022, Tempo, 365831
1, 135102, Tempo, 364719
1, 135120, Note_on_c, 0, 75, 0
1, 135120, Note_on_c, 0, 69, 0
1, 135120, Note_on_c, 0, 78, 28
1, 135120, Note_on_c, 0, 70, 25
1, 135162, Tempo, 363614
1, 135240, Note_on_c, 0, 78, 0
1, 135240, Note_on_c, 0, 79, 28
1, 135242, Tempo, 362516
1, 135302, Tempo, 361424
1, 135322, Tempo, 360339
1, 135360, Note_on_c, 0, 79, 0
1, 135360, Note_on_c, 0, 70, 0
1, 135360, Note_on_c, 0, 80, 34
1, 135360, Note_on_c, 0, 51, 30
1, 135360, Note_on_c, 0, 58, 30
1, 135362, Tempo, 359260
1, 135372, Control_c, 0, 64, 0
1, 135402, Tempo, 358188
1, 135442, Tempo, 357122
1, 135452, Control_c, 0, 64, 127
1, 135480, Note_on_c, 0, 80, 0
1, 135480, Note_on_c, 0, 79, 28
1, 135482, Tempo, 359260
1, 135502, Tempo, 355009
1, 135600, Note_on_c, 0, 79, 0
1, 135600, Note_on_c, 0, 58, 0
1, 135600, Note_on_c, 0, 78, 28
1, 135600, Note_on_c, 0, 62, 24
1, 135720, Tempo, 390854
1, 135720, Note_on_c, 0, 78, 0
1, 135720, Note_on_c, 0, 79, 31
1, 135840, Tempo, 355009
1, 135840, Note_on_c, 0, 79, 0
1, 135840, Note_on_c, 0, 62, 0
1, 135840, Note_on_c, 0, 51, 0
1, 135840, Note_on_c, 0, 87, 42
1, 135840, Note_on_c, 0, 63, 29
1, 135875, Control_c, 0, 64, 0
1, 135955, Control_c, 0, 64, 127
1, 135960, Note_on_c, 0, 87, 0
1, 135960, Note_on_c, 0, 83, 30
1, 136080, Note_on_c, 0, 83, 0
1, 136080, Note_on_c, 0, 63, 0
1, 136080, Note_on_c, 0, 82, 37
1, 136080, Note_on_c, 0, 67, 24
1, 136200, Tempo, 388324
1, 136200, Note_on_c, 0, 82, 0
1, 136200, Note_on_c, 0, 79, 33
1, 136320, Tempo, 353961
1, 136320, Note_on_c, 0, 79, 0
1, 136320, Note_on_c, 0, 67, 0
1, 136320, Note_on_c, 0, 79, 36
1, 136320, Note_on_c, 0, 56, 31
1, 136320, Note_on_c, 0, 53, 31
1, 136320, Control_c, 0, 64, 0
1, 136389, Control_c, 0, 64, 127
1, 136440, Note_on_c, 0, 79, 0
1, 136440, Note_on_c, 0, 77, 28
1, 136560, Note_on_c, 0, 77, 0
1, 136560, Note_on_c, 0, 56, 0
1, 136560, Note_on_c, 0, 76, 33
1, 136560, Note_on_c, 0, 60, 28
1, 136680, Note_on_c, 0, 76, 0
1, 136680, Note_on_c, 0, 77, 28
1, 136800, Tempo, 355009
1, 136800, Note_on_c, 0, 77, 0
1, 136800, Note_on_c, 0, 60, 0
1, 136800, Note_on_c, 0, 53, 0
1, 136800, Note_on_c, 0, 86, 42
1, 136800, Note_on_c, 0, 62, 29
1, 136809, Control_c, 0, 64, 0
1, 136869, Control_c, 0, 64, 127
1, 136920, Note_on_c, 0, 86, 0
1, 136920, Note_on_c, 0, 82, 30
1, 137040, Note_on_c, 0, 82, 0
1, 137040, Note_on_c, 0, 62, 0
1, 137040, Note_on_c, 0, 80, 37
1, 137040, Note_on_c, 0, 68, 24
1, 137160, Tempo, 388324
1, 137160, Note_on_c, 0, 80, 0
1, 137160, Note_on_c, 0, 77, 33
1, 137280, Tempo, 353961
1, 137280, Note_on_c, 0, 77, 0
1, 137280, Note_on_c, 0, 68, 0
1, 137280, Note_on_c, 0, 75, 36
1, 137280, Note_on_c, 0, 55, 31
1, 137303, Control_c, 0, 64, 0
1, 137366, Control_c, 0, 64, 127
1, 137400, Note_on_c, 0, 75, 0
1, 137400, Note_on_c, 0, 74, 28
1, 137520, Note_on_c, 0, 74, 0
1, 137520, Note_on_c, 0, 73, 33
1, 137520, Note_on_c, 0, 59, 28
1, 137640, Note_on_c, 0, 73, 0
1, 137640, Note_on_c, 0, 74, 28
1, 137760, Tempo, 355009
1, 137760, Note_on_c, 0, 74, 0
1, 137760, Note_on_c, 0, 59, 0
1, 137760, Note_on_c, 0, 55, 0
1, 137760, Note_on_c, 0, 83, 42
1, 137760, Note_on_c, 0, 62, 29
1, 137772, Control_c, 0, 64, 0
1, 137852, Control_c, 0, 64, 127
1, 137880, Note_on_c, 0, 83, 0
1, 137880, Note_on_c, 0, 79, 30
1, 138000, Note_on_c, 0, 79, 0
1, 138000, Note_on_c, 0, 62, 0
1, 138000, Note_on_c, 0, 77, 37
1, 138000, Note_on_c, 0, 67, 24
1, 138120, Tempo, 388324
1, 138120, Note_on_c, 0, 77, 0
1, 138120, Note_on_c, 0, 74, 33
1, 138240, Tempo, 353961
1, 138240, Note_on_c, 0, 74, 0
1, 138240, Note_on_c, 0, 72, 36
1, 138240, Control_c, 0, 64, 0
1, 138315, Control_c, 0, 64, 127
1, 138360, Note_on_c, 0, 72, 0
1, 138360, Note_on_c, 0, 74, 28
1, 138480, Note_on_c, 0, 74, 0
1, 138480, Note_on_c, 0, 67, 0
1, 138480, Note_on_c, 0, 71, 33
1, 138480, Note_on_c, 0, 65, 28
1, 138600, Note_on_c, 0, 71, 0
1, 138600, Note_on_c, 0, 68, 28
1, 138720, Tempo, 385827
1, 138720, Note_on_c, 0, 68, 0
1, 138720, Note_on_c, 0, 65, 0
1, 138720, Note_on_c, 0, 67, 36
1, 138720, Note_on_c, 0, 63, 33
1, 138722, Tempo, 368076
1, 138802, Tempo, 366950
1, 138840, Note_on_c, 0, 67, 0
1, 138840, Note_on_c, 0, 72, 28
1, 138862, Tempo, 365831
1, 138942, Tempo, 364719
1, 138960, Note_on_c, 0, 72, 0
1, 138960, Note_on_c, 0, 63, 0
1, 138960, Note_on_c, 0, 74, 28
1, 138960, Note_on_c, 0, 62, 25
1, 139002, Tempo, 363614
1, 139080, Note_on_c, 0, 74, 0
1, 139080, Note_on_c, 0, 75, 28
1, 139082, Tempo, 362516
1, 139142, Tempo, 361424
1, 139162, Tempo, 360339
1, 139200, Note_on_c, 0, 75, 0
1, 139200, Note_on_c, 0, 62, 0
1, 139200, Note_on_c, 0, 77, 34
1, 139200, Note_on_c, 0, 55, 30
1, 139202, Tempo, 359260
1, 139212, Control_c, 0, 64, 0
1, 139242, Tempo, 358188
1, 139282, Tempo, 357122
1, 139292, Control_c, 0, 64, 127
1, 139320, Note_on_c, 0, 77, 0
1, 139320, Note_on_c, 0, 75, 28
1, 139322, Tempo, 359260
1, 139342, Tempo, 355009
1, 139440, Note_on_c, 0, 75, 0
1, 139440, Note_on_c, 0, 74, 28
1, 139440, Note_on_c, 0, 60, 24
1, 139560, Tempo, 390854
1, 139560, Note_on_c, 0, 74, 0
1, 139560, Note_on_c, 0, 75, 31
1, 139680, Tempo, 355009
1, 139680, Note_on_c, 0, 75, 0
1, 139680, Note_on_c, 0, 60, 0
1, 139680, Note_on_c, 0, 55, 0
1, 139680, Note_on_c, 0, 84, 42
1, 139680, Note_on_c, 0, 62, 29
1, 139800, Note_on_c, 0, 84, 0
1, 139800, Note_on_c, 0, 80, 30
1, 139920, Note_on_c, 0, 80, 0
1, 139920, Note_on_c, 0, 62, 0
1, 139920, Note_on_c, 0, 79, 37
1, 139920, Note_on_c, 0, 63, 24
1, 140040, Tempo, 388324
1, 140040, Note_on_c, 0, 79, 0
1, 140040, Note_on_c, 0, 75, 33
1, 140100, Note_on_c, 0, 63, 0
1, 140100, Note_on_c, 0, 48, 31
1, 140130, Note_on_c, 0, 55, 31
1, 140160, Tempo, 353961
1, 140160, Note_on_c, 0, 75, 0
1, 140160, Note_on_c, 0, 77, 36
1, 140160, Note_on_c, 0, 60, 31
1, 140160, Control_c, 0, 64, 0
1, 140229, Control_c, 0, 64, 127
1, 140280, Note_on_c, 0, 77, 0
1, 140280, Note_on_c, 0, 75, 28
1, 140400, Note_on_c, 0, 75, 0
1, 140400, Note_on_c, 0, 60, 0
1, 140400, Note_on_c, 0, 74, 33
1, 140400, Note_on_c, 0, 63, 28
1, 140520, Note_on_c, 0, 74, 0
1, 140520, Note_on_c, 0, 75, 28
1, 140640, Tempo, 385827
1, 140640, Note_on_c, 0, 75, 0
1, 140640, Note_on_c, 0, 63, 0
1, 140640, Note_on_c, 0, 55, 0
1, 140640, Note_on_c, 0, 48, 0
1, 140640, Note_on_c, 0, 66, 33
1, 140642, Tempo, 368076
1, 140722, Tempo, 366950
1, 140760, Note_on_c, 0, 71, 28
1, 140782, Tempo, 365831
1, 140862, Tempo, 364719
1, 140880, Note_on_c, 0, 71, 0
1, 140880, Note_on_c, 0, 66, 0
1, 140880, Note_on_c, 0, 74, 28
1, 140880, Note_on_c, 0, 67, 25
1, 140922, Tempo, 363614
1, 141000, Note_on_c, 0, 74, 0
1, 141000, Note_on_c, 0, 75, 28
1, 141002, Tempo, 362516
1, 141062, Tempo, 361424
1, 141082, Tempo, 360339
1, 141120, Note_on_c, 0, 75, 0
1, 141120, Note_on_c, 0, 67, 0
1, 141120, Note_on_c, 0, 77, 34
1, 141120, Note_on_c, 0, 55, 30
1, 141122, Tempo, 359260
1, 141132, Control_c, 0, 64, 0
1, 141162, Tempo, 358188
1, 141202, Tempo, 357122
1, 141212, Control_c, 0, 64, 127
1, 141240, Note_on_c, 0, 77, 0
1, 141240, Note_on_c, 0, 75, 28
1, 141242, Tempo, 359260
1, 141262, Tempo, 355009
1, 141360, Note_on_c, 0, 75, 0
1, 141360, Note_on_c, 0, 74, 28
1, 141360, Note_on_c, 0, 59, 24
1, 141480, Tempo, 390854
1, 141480, Note_on_c, 0, 74, 0
1, 141480, Note_on_c, 0, 75, 31
1, 141600, Tempo, 355009
1, 141600, Note_on_c, 0, 75, 0
1, 141600, Note_on_c, 0, 59, 0
1, 141600, Note_on_c, 0, 55, 0
1, 141600, Note_on_c, 0, 83, 42
1, 141600, Note_on_c, 0, 62, 29
1, 141720, Note_on_c, 0, 83, 0
1, 141720, Note_on_c, 0, 80, 30
1, 141840, Note_on_c, 0, 80, 0
1, 141840, Note_on_c, 0, 62, 0
1, 141840, Note_on_c, 0, 79, 37
1, 141840, Note_on_c, 0, 63, 24
1, 141960, Tempo, 388324
1, 141960, Note_on_c, 0, 79, 0
1, 141960, Note_on_c, 0, 75, 33
1, 142020, Note_on_c, 0, 63, 0
1, 142020, Note_on_c, 0, 43, 31
1, 142050, Note_on_c, 0, 51, 31
1, 142080, Tempo, 353961
1, 142080, Note_on_c, 0, 75, 0
1, 142080, Note_on_c, 0, 77, 36
1, 142080, Note_on_c, 0, 59, 31
1, 142080, Control_c, 0, 64, 0
1, 142149, Control_c, 0, 64, 127
1, 142200, Note_on_c, 0, 77, 0
1, 142200, Note_on_c, 0, 75, 28
1, 142320, Note_on_c, 0, 75, 0
1, 142320, Note_on_c, 0, 74, 33
1, 142320, Note_on_c, 0, 63, 28
1, 142440, Note_on_c, 0, 74, 0
1, 142440, Note_on_c, 0, 75, 28
1, 142560, Tempo, 385827
1, 142560, Note_on_c, 0, 75, 0
1, 142560, Note_on_c, 0, 63, 0
1, 142560, Note_on_c, 0, 43, 0
1, 142560, Note_on_c, 0, 51, 0
1, 142560, Note_on_c, 0, 59, 0
1, 142560, Note_on_c, 0, 66, 33
1, 142562, Tempo, 368076
1, 142642, Tempo, 366950
1, 142680, Note_on_c, 0, 70, 28
1, 142702, Tempo, 365831
1, 142782, Tempo, 364719
1, 142800, Note_on_c, 0, 70, 0
1, 142800, Note_on_c, 0, 66, 0
1, 142800, Note_on_c, 0, 74, 28
1, 142800, Note_on_c, 0, 67, 25
1, 142842, Tempo, 363614
1, 142920, Note_on_c, 0, 74, 0
1, 142920, Note_on_c, 0, 75, 28
1, 142922, Tempo, 362516
1, 142980, Note_on_c, 0, 67, 0
1, 142980, Note_on_c, 0, 39, 31
1, 142982, Tempo, 361424
1, 143002, Tempo, 360339
1, 143010, Note_on_c, 0, 46, 31
1, 143040, Note_on_c, 0, 75, 0
1, 143040, Note_on_c, 0, 77, 34
1, 143040, Note_on_c, 0, 55, 30
1, 143042, Tempo, 359260
1, 143052, Control_c, 0, 64, 0
1, 143082, Tempo, 358188
1, 143122, Tempo, 357122
1, 143132, Control_c, 0, 64, 127
1, 143160, Note_on_c, 0, 77, 0
1, 143160, Note_on_c, 0, 75, 28
1, 143162, Tempo, 359260
1, 143182, Tempo, 355009
1, 143280, Note_on_c, 0, 75, 0
1, 143280, Note_on_c, 0, 74, 28
1, 143280, Note_on_c, 0, 58, 24
1, 143400, Tempo, 390854
1, 143400, Note_on_c, 0, 74, 0
1, 143400, Note_on_c, 0, 75, 31
1, 143520, Tempo, 355009
1, 143520, Note_on_c, 0, 75, 0
1, 143520, Note_on_c, 0, 58, 0
1, 143520, Note_on_c, 0, 39, 0
1, 143520, Note_on_c, 0, 46, 0
1, 143520, Note_on_c, 0, 55, 0
1, 143520, Note_on_c, 0, 82, 42
1, 143520, Note_on_c, 0, 62, 29
1, 143640, Note_on_c, 0, 82, 0
1, 143640, Note_on_c, 0, 79, 30
1, 143760, Note_on_c, 0, 79, 0
1, 143760, Note_on_c, 0, 62, 0
1, 143760, Note_on_c, 0, 77, 37
1, 143760, Note_on_c, 0, 63, 24
1, 143880, Tempo, 388324
1, 143880, Note_on_c, 0, 77, 0
1, 143880, Note_on_c, 0, 75, 33
1, 143940, Note_on_c, 0, 63, 0
1, 143940, Note_on_c, 0, 41, 31
1, 143970, Note_on_c, 0, 48, 31
1, 143980, Note_on_c, 0, 75, 0
1, 144000, Tempo, 353961
1, 144000, Note_on_c, 0, 75, 36
1, 144000, Note_on_c, 0, 56, 31
1, 144000, Control_c, 0, 64, 0
1, 144069, Control_c, 0, 64, 127
1, 144120, Note_on_c, 0, 75, 0
1, 144120, Note_on_c, 0, 74, 28
1, 144240, Note_on_c, 0, 74, 0
1, 144240, Note_on_c, 0, 73, 33
1, 144240, Note_on_c, 0, 59, 28
1, 144360, Note_on_c, 0, 73, 0
1, 144360, Note_on_c, 0, 74, 28
1, 144480, Tempo, 385827
1, 144480, Note_on_c, 0, 74, 0
1, 144480, Note_on_c, 0, 59, 0
1, 144480, Note_on_c, 0, 41, 0
1, 144480, Note_on_c, 0, 48, 0
1, 144480, Note_on_c, 0, 56, 0
1, 144480, Note_on_c, 0, 80, 42
1, 144480, Note_on_c, 0, 60, 33
1, 144482, Tempo, 368076
1, 144494, Control_c, 0, 64, 0
1, 144555, Control_c, 0, 64, 127
1, 144562, Tempo, 366950
1, 144600, Note_on_c, 0, 80, 0
1, 144600, Note_on_c, 0, 77, 28
1, 144622, Tempo, 365831
1, 144702, Tempo, 364719
1, 144720, Note_on_c, 0, 77, 0
1, 144720, Note_on_c, 0, 60, 0
1, 144720, Note_on_c, 0, 75, 28
1, 144720, Note_on_c, 0, 62, 25
1, 144762, Tempo, 363614
1, 144840, Note_on_c, 0, 75, 0
1, 144840, Note_on_c, 0, 72, 28
1, 144842, Tempo, 362516
1, 144902, Tempo, 361424
1, 144922, Tempo, 360339
1, 144940, Note_on_c, 0, 72, 0
1, 144960, Note_on_c, 0, 62, 0
1, 144960, Note_on_c, 0, 72, 34
1, 144960, Note_on_c, 0, 43, 31
1, 144960, Note_on_c, 0, 50, 31
1, 144960, Note_on_c, 0, 55, 30
1, 144962, Tempo, 359260
1, 144972, Control_c, 0, 64, 0
1, 145002, Tempo, 358188
1, 145042, Tempo, 357122
1, 145052, Control_c, 0, 64, 127
1, 145080, Note_on_c, 0, 72, 0
1, 145080, Note_on_c, 0, 71, 28
1, 145082, Tempo, 359260
1, 145102, Tempo, 355009
1, 145200, Note_on_c, 0, 71, 0
1, 145200, Note_on_c, 0, 55, 0
1, 145200, Note_on_c, 0, 50, 0
1, 145200, Note_on_c, 0, 43, 0
1, 145200, Note_on_c, 0, 70, 28
1, 145200, Note_on_c, 0, 62, 24
1, 145320, Tempo, 390854
1, 145320, Note_on_c, 0, 70, 0
1, 145320, Note_on_c, 0, 71, 31
1, 145440, Tempo, 355009
1, 145440, Note_on_c, 0, 71, 0
1, 145440, Note_on_c, 0, 79, 42
1, 145457, Control_c, 0, 64, 0
1, 145549, Control_c, 0, 64, 127
1, 145560, Note_on_c, 0, 79, 0
1, 145560, Note_on_c, 0, 77, 30
1, 145680, Note_on_c, 0, 77, 0
1, 145680, Note_on_c, 0, 62, 0
1, 145680, Note_on_c, 0, 74, 37
1, 145680, Note_on_c, 0, 67, 24
1, 145800, Tempo, 388324
1, 145800, Note_on_c, 0, 74, 0
1, 145800, Note_on_c, 0, 71, 33
1, 145920, Tempo, 370348
1, 145920, Note_on_c, 0, 71, 0
1, 145920, Note_on_c, 0, 67, 0
1, 145920, Note_on_c, 0, 68, 37
1, 146040, Note_on_c, 0, 68, 0
1, 146040, Note_on_c, 0, 67, 32
1, 146160, Note_on_c, 0, 67, 0
1, 146160, Note_on_c, 0, 65, 34
1, 146280, Note_on_c, 0, 65, 0
1, 146280, Note_on_c, 0, 62, 29
1, 146400, Note_on_c, 0, 62, 0
1, 146400, Note_on_c, 0, 55, 31
1, 146409, Control_c, 0, 64, 0
1, 146520, Tempo, 368076
1, 146520, Note_on_c, 0, 55, 0
1, 146520, Note_on_c, 0, 60, 35
1, 146588, Tempo, 364719
1, 146640, Note_on_c, 0, 60, 0
1, 146640, Note_on_c, 0, 62, 37
1, 146668, Tempo, 363614
1, 146728, Tempo, 362516
1, 146760, Note_on_c, 0, 62, 0
1, 146760, Note_on_c, 0, 63, 32
1, 146788, Tempo, 361424
1, 146868, Tempo, 360339
1, 146880, Note_on_c, 0, 63, 0
1, 146880, Note_on_c, 0, 65, 38
1, 146908, Control_c, 0, 64, 127
1, 146928, Tempo, 359260
1, 146988, Tempo, 358188
1, 147000, Note_on_c, 0, 65, 0
1, 147000, Note_on_c, 0, 63, 33
1, 147120, Note_on_c, 0, 63, 0
1, 147120, Note_on_c, 0, 62, 33
1, 147120, Note_on_c, 0, 60, 29
1, 147240, Tempo, 383362
1, 147240, Note_on_c, 0, 62, 0
1, 147240, Note_on_c, 0, 63, 37
1, 147360, Tempo, 358188
1, 147360, Note_on_c, 0, 63, 0
1, 147360, Note_on_c, 0, 60, 0
1, 147360, Note_on_c, 0, 72, 42
1, 147360, Note_on_c, 0, 56, 30
1, 147480, Note_on_c, 0, 72, 0
1, 147480, Note_on_c, 0, 68, 35
1, 147600, Note_on_c, 0, 68, 0
1, 147600, Note_on_c, 0, 56, 0
1, 147600, Note_on_c, 0, 65, 37
1, 147600, Note_on_c, 0, 51, 24
1, 147720, Tempo, 379723
1, 147720, Note_on_c, 0, 65, 0
1, 147720, Note_on_c, 0, 62, 34
1, 147840, Tempo, 358188
1, 147840, Note_on_c, 0, 62, 0
1, 147840, Note_on_c, 0, 51, 0
1, 147840, Note_on_c, 0, 65, 37
1, 147840, Note_on_c, 0, 44, 35
1, 147960, Note_on_c, 0, 65, 0
1, 147960, Note_on_c, 0, 63, 34
1, 148080, Note_on_c, 0, 63, 0
1, 148080, Note_on_c, 0, 44, 0
1, 148080, Note_on_c, 0, 62, 36
1, 148080, Note_on_c, 0, 51, 29
1, 148200, Note_on_c, 0, 62, 0
1, 148200, Note_on_c, 0, 63, 32
1, 148320, Tempo, 370348
1, 148320, Note_on_c, 0, 63, 0
1, 148320, Note_on_c, 0, 60, 32
1, 148344, Control_c, 0, 64, 0
1, 148440, Tempo, 368076
1, 148440, Note_on_c, 0, 60, 0
1, 148440, Note_on_c, 0, 63, 36
1, 148508, Tempo, 364719
1, 148560, Note_on_c, 0, 63, 0
1, 148560, Note_on_c, 0, 51, 0
1, 148560, Note_on_c, 0, 65, 38
1, 148560, Note_on_c, 0, 56, 25
1, 148588, Tempo, 363614
1, 148648, Tempo, 362516
1, 148680, Note_on_c, 0, 65, 0
1, 148680, Note_on_c, 0, 67, 33
1, 148708, Tempo, 361424
1, 148788, Tempo, 360339
1, 148800, Note_on_c, 0, 67, 0
1, 148800, Note_on_c, 0, 56, 0
1, 148800, Note_on_c, 0, 70, 39
1, 148800, Note_on_c, 0, 60, 31
1, 148843, Control_c, 0, 64, 127
1, 148848, Tempo, 359260
1, 148908, Tempo, 358188
1, 148920, Note_on_c, 0, 70, 0
1, 148920, Note_on_c, 0, 68, 34
1, 149040, Note_on_c, 0, 68, 0
1, 149040, Note_on_c, 0, 60, 0
1, 149040, Note_on_c, 0, 67, 34
1, 149040, Note_on_c, 0, 58, 30
1, 149160, Tempo, 383362
1, 149160, Note_on_c, 0, 67, 0
1, 149160, Note_on_c, 0, 68, 38
1, 149280, Tempo, 358188
1, 149280, Note_on_c, 0, 68, 0
1, 149280, Note_on_c, 0, 58, 0
1, 149280, Note_on_c, 0, 77, 44
1, 149280, Note_on_c, 0, 56, 31
1, 149400, Note_on_c, 0, 77, 0
1, 149400, Note_on_c, 0, 72, 36
1, 149520, Note_on_c, 0, 72, 0
1, 149520, Note_on_c, 0, 56, 0
1, 149520, Note_on_c, 0, 70, 38
1, 149520, Note_on_c, 0, 53, 25
1, 149640, Tempo, 379723
1, 149640, Note_on_c, 0, 70, 0
1, 149640, Note_on_c, 0, 67, 35
1, 149760, Tempo, 358188
1, 149760, Note_on_c, 0, 67, 0
1, 149760, Note_on_c, 0, 53, 0
1, 149760, Note_on_c, 0, 70, 38
1, 149760, Note_on_c, 0, 41, 36
1, 149760, Note_on_c, 0, 48, 36
1, 149880, Note_on_c, 0, 70, 0
1, 149880, Note_on_c, 0, 68, 35
1, 150000, Note_on_c, 0, 68, 0
1, 150000, Note_on_c, 0, 48, 0
1, 150000, Note_on_c, 0, 41, 0
1, 150000, Note_on_c, 0, 67, 35
1, 150000, Note_on_c, 0, 53, 30
1, 150120, Note_on_c, 0, 67, 0
1, 150120, Note_on_c, 0, 68, 33
1, 150240, Tempo, 370348
1, 150240, Note_on_c, 0, 68, 0
1, 150240, Note_on_c, 0, 53, 0
1, 150240, Note_on_c, 0, 56, 34
1, 150248, Control_c, 0, 64, 0
1, 150332, Control_c, 0, 64, 127
1, 150360, Tempo, 368076
1, 150360, Note_on_c, 0, 65, 39
1, 150428, Tempo, 364719
1, 150480, Note_on_c, 0, 65, 0
1, 150480, Note_on_c, 0, 56, 0
1, 150480, Note_on_c, 0, 68, 41
1, 150480, Note_on_c, 0, 60, 27
1, 150508, Tempo, 363614
1, 150568, Tempo, 362516
1, 150600, Note_on_c, 0, 68, 0
1, 150600, Note_on_c, 0, 72, 36
1, 150628, Tempo, 361424
1, 150708, Tempo, 360339
1, 150720, Note_on_c, 0, 72, 0
1, 150720, Note_on_c, 0, 60, 0
1, 150720, Note_on_c, 0, 75, 42
1, 150720, Note_on_c, 0, 65, 34
1, 150768, Tempo, 359260
1, 150828, Tempo, 358188
1, 150840, Note_on_c, 0, 75, 0
1, 150840, Note_on_c, 0, 73, 37
1, 150960, Note_on_c, 0, 73, 0
1, 150960, Note_on_c, 0, 65, 0
1, 150960, Note_on_c, 0, 72, 37
1, 150960, Note_on_c, 0, 63, 33
1, 151080, Tempo, 383362
1, 151080, Note_on_c, 0, 72, 0
1, 151080, Note_on_c, 0, 73, 41
1, 151200, Tempo, 358188
1, 151200, Note_on_c, 0, 73, 0
1, 151200, Note_on_c, 0, 63, 0
1, 151200, Note_on_c, 0, 80, 48
1, 151200, Note_on_c, 0, 61, 34
1, 151320, Note_on_c, 0, 80, 0
1, 151320, Note_on_c, 0, 77, 39
1, 151440, Note_on_c, 0, 77, 0
1, 151440, Note_on_c, 0, 61, 0
1, 151440, Note_on_c, 0, 75, 41
1, 151440, Note_on_c, 0, 53, 27
1, 151560, Tempo, 379723
1, 151560, Note_on_c, 0, 75, 0
1, 151560, Note_on_c, 0, 72, 38
1, 151680, Tempo, 358188
1, 151680, Note_on_c, 0, 72, 0
1, 151680, Note_on_c, 0, 53, 0
1, 151680, Note_on_c, 0, 75, 41
1, 151680, Note_on_c, 0, 37, 39
1, 151680, Note_on_c, 0, 44, 39
1, 151800, Note_on_c, 0, 75, 0
1, 151800, Note_on_c, 0, 73, 38
1, 151920, Note_on_c, 0, 73, 0
1, 151920, Note_on_c, 0, 44, 0
1, 151920, Note_on_c, 0, 37, 0
1, 151920, Note_on_c, 0, 72, 38
1, 151920, Note_on_c, 0, 53, 33
1, 152040, Note_on_c, 0, 72, 0
1, 152040, Note_on_c, 0, 73, 36
1, 152160, Tempo, 370348
1, 152160, Note_on_c, 0, 73, 0
1, 152160, Note_on_c, 0, 53, 0
1, 152160, Note_on_c, 0, 56, 37
1, 152181, Control_c, 0, 64, 0
1, 152246, Control_c, 0, 64, 127
1, 152280, Tempo, 368076
1, 152280, Note_on_c, 0, 68, 42
1, 152348, Tempo, 364719
1, 152400, Note_on_c, 0, 68, 0
1, 152400, Note_on_c, 0, 56, 0
1, 152400, Note_on_c, 0, 73, 45
1, 152400, Note_on_c, 0, 61, 29
1, 152428, Tempo, 363614
1, 152488, Tempo, 362516
1, 152520, Note_on_c, 0, 73, 0
1, 152520, Note_on_c, 0, 77, 39
1, 152548, Tempo, 361424
1, 152628, Tempo, 360339
1, 152640, Note_on_c, 0, 77, 0
1, 152640, Note_on_c, 0, 61, 0
1, 152640, Note_on_c, 0, 80, 46
1, 152640, Note_on_c, 0, 60, 37
1, 152688, Tempo, 359260
1, 152748, Tempo, 358188
1, 152760, Note_on_c, 0, 80, 0
1, 152760, Note_on_c, 0, 79, 40
1, 152880, Note_on_c, 0, 79, 0
1, 152880, Note_on_c, 0, 60, 0
1, 152880, Note_on_c, 0, 78, 40
1, 152880, Note_on_c, 0, 59, 36
1, 153000, Tempo, 383362
1, 153000, Note_on_c, 0, 78, 0
1, 153000, Note_on_c, 0, 79, 45
1, 153120, Tempo, 358188
1, 153120, Note_on_c, 0, 79, 0
1, 153120, Note_on_c, 0, 59, 0
1, 153120, Note_on_c, 0, 86, 52
1, 153120, Note_on_c, 0, 53, 37
1, 153240, Note_on_c, 0, 86, 0
1, 153240, Note_on_c, 0, 83, 42
1, 153360, Note_on_c, 0, 83, 0
1, 153360, Note_on_c, 0, 53, 0
1, 153360, Note_on_c, 0, 79, 45
1, 153360, Note_on_c, 0, 43, 29
1, 153480, Tempo, 379723
1, 153480, Note_on_c, 0, 79, 0
1, 153480, Note_on_c, 0, 77, 41
1, 153600, Tempo, 358188
1, 153600, Note_on_c, 0, 77, 0
1, 153600, Note_on_c, 0, 43, 0
1, 153600, Note_on_c, 0, 82, 52
1, 153600, Note_on_c, 0, 31, 42
1, 153720, Note_on_c, 0, 82, 0
1, 153720, Note_on_c, 0, 80, 41
1, 153840, Note_on_c, 0, 80, 0
1, 153840, Note_on_c, 0, 31, 0
1, 153840, Note_on_c, 0, 79, 41
1, 153840, Note_on_c, 0, 43, 36
1, 153960, Note_on_c, 0, 79, 0
1, 153960, Note_on_c, 0, 80, 39
1, 154080, Note_on_c, 0, 80, 0
1, 154080, Note_on_c, 0, 43, 0
1, 154087, Note_on_c, 0, 89, 52
1, 154104, Control_c, 0, 64, 0
1, 154172, Control_c, 0, 64, 127
1, 154200, Note_on_c, 0, 84, 45
1, 154207, Note_on_c, 0, 89, 0
1, 154320, Note_on_c, 0, 84, 0
1, 154320, Note_on_c, 0, 83, 49
1, 154320, Note_on_c, 0, 50, 39
1, 154440, Tempo, 380928
1, 154440, Note_on_c, 0, 83, 0
1, 154440, Note_on_c, 0, 79, 49
1, 154560, Tempo, 358188
1, 154560, Note_on_c, 0, 79, 0
1, 154560, Note_on_c, 0, 50, 0
1, 154560, Note_on_c, 0, 84, 57
1, 154560, Note_on_c, 0, 53, 50
1, 154680, Note_on_c, 0, 84, 0
1, 154680, Note_on_c, 0, 83, 50
1, 154800, Note_on_c, 0, 83, 0
1, 154800, Note_on_c, 0, 53, 0
1, 154800, Note_on_c, 0, 82, 50
1, 154800, Note_on_c, 0, 62, 39
1, 154920, Note_on_c, 0, 82, 0
1, 154920, Note_on_c, 0, 83, 50
1, 155040, Note_on_c, 0, 83, 0
1, 155040, Note_on_c, 0, 62, 0
1, 155040, Note_on_c, 0, 91, 57
1, 155046, Control_c, 0, 64, 0
1, 155120, Control_c, 0, 64, 127
1, 155160, Note_on_c, 0, 91, 0
1, 155160, Note_on_c, 0, 89, 50
1, 155280, Note_on_c, 0, 89, 0
1, 155280, Note_on_c, 0, 86, 55
1, 155280, Note_on_c, 0, 59, 42
1, 155400, Tempo, 380928
1, 155400, Note_on_c, 0, 86, 0
1, 155400, Note_on_c, 0, 83, 55
1, 155520, Tempo, 359260
1, 155520, Note_on_c, 0, 83, 0
1, 155520, Note_on_c, 0, 59, 0
1, 155520, Note_on_c, 0, 87, 62
1, 155520, Note_on_c, 0, 65, 53
1, 155640, Note_on_c, 0, 87, 0
1, 155640, Note_on_c, 0, 86, 55
1, 155760, Note_on_c, 0, 86, 0
1, 155760, Note_on_c, 0, 65, 0
1, 155760, Note_on_c, 0, 85, 55
1, 155760, Note_on_c, 0, 71, 42
1, 155880, Note_on_c, 0, 85, 0
1, 155880, Note_on_c, 0, 86, 55
1, 156000, Note_on_c, 0, 86, 0
1, 156000, Note_on_c, 0, 71, 0
1, 156000, Note_on_c, 0, 92, 62
1, 156000, Control_c, 0, 64, 0
1, 156046, Control_c, 0, 64, 127
1, 156120, Note_on_c, 0, 92, 0
1, 156120, Note_on_c, 0, 89, 55
1, 156240, Note_on_c, 0, 89, 0
1, 156240, Note_on_c, 0, 86, 55
1, 156240, Note_on_c, 0, 65, 42
1, 156360, Tempo, 379723
1, 156360, Note_on_c, 0, 86, 0
1, 156360, Note_on_c, 0, 83, 55
1, 156480, Tempo, 358188
1, 156480, Note_on_c, 0, 83, 0
1, 156480, Note_on_c, 0, 65, 0
1, 156480, Note_on_c, 0, 93, 66
1, 156480, Note_on_c, 0, 71, 53
1, 156600, Note_on_c, 0, 93, 0
1, 156600, Note_on_c, 0, 89, 55
1, 156720, Note_on_c, 0, 89, 0
1, 156720, Note_on_c, 0, 71, 0
1, 156720, Note_on_c, 0, 86, 55
1, 156720, Note_on_c, 0, 77, 42
1, 156840, Note_on_c, 0, 86, 0
1, 156840, Note_on_c, 0, 83, 55
1, 156960, Note_on_c, 0, 83, 0
1, 156960, Note_on_c, 0, 77, 0
1, 156960, Note_on_c, 0, 94, 69
1, 156963, Control_c, 0, 64, 0
1, 157029, Control_c, 0, 64, 127
1, 157080, Note_on_c, 0, 94, 0
1, 157080, Note_on_c, 0, 91, 62
1, 157200, Note_on_c, 0, 91, 0
1, 157200, Note_on_c, 0, 86, 62
1, 157200, Note_on_c, 0, 59, 53
1, 157200, Note_on_c, 0, 62, 53
1, 157320, Note_on_c, 0, 86, 0
1, 157320, Note_on_c, 0, 83, 62
1, 157394, Tempo, 360339
1, 157414, Tempo, 357122
1, 157440, Note_on_c, 0, 83, 0
1, 157440, Note_on_c, 0, 62, 0
1, 157440, Note_on_c, 0, 59, 0
1, 157440, Note_on_c, 0, 91, 71
1, 157440, Note_on_c, 0, 71, 64
1, 157440, Note_on_c, 0, 67, 54
1, 157440, Control_c, 0, 64, 0
1, 157520, Control_c, 0, 64, 127
1, 157560, Note_on_c, 0, 91, 0
1, 157560, Note_on_c, 0, 95, 56
1, 157634, Tempo, 358188
1, 157680, Note_on_c, 0, 95, 0
1, 157680, Note_on_c, 0, 67, 0
1, 157680, Note_on_c, 0, 71, 0
1, 157680, Note_on_c, 0, 86, 56
1, 157680, Note_on_c, 0, 59, 53
1, 157680, Note_on_c, 0, 62, 53
1, 157800, Note_on_c, 0, 86, 0
1, 157800, Note_on_c, 0, 83, 56
1, 157834, Tempo, 359260
1, 157920, Note_on_c, 0, 83, 0
1, 157920, Note_on_c, 0, 62, 0
1, 157920, Note_on_c, 0, 59, 0
1, 157920, Note_on_c, 0, 91, 76
1, 157920, Note_on_c, 0, 71, 63
1, 157920, Note_on_c, 0, 67, 53
1, 158034, Tempo, 360339
1, 158040, Note_on_c, 0, 91, 0
1, 158040, Note_on_c, 0, 95, 59
1, 158160, Note_on_c, 0, 95, 0
1, 158160, Note_on_c, 0, 67, 0
1, 158160, Note_on_c, 0, 71, 0
1, 158160, Note_on_c, 0, 87, 59
1, 158160, Note_on_c, 0, 60, 53
1, 158160, Note_on_c, 0, 63, 53
1, 158234, Tempo, 361424
1, 158280, Note_on_c, 0, 87, 0
1, 158280, Note_on_c, 0, 84, 59
1, 158400, Note_on_c, 0, 84, 0
1, 158400, Note_on_c, 0, 63, 0
1, 158400, Note_on_c, 0, 60, 0
1, 158400, Note_on_c, 0, 91, 78
1, 158400, Note_on_c, 0, 71, 61
1, 158400, Note_on_c, 0, 67, 51
1, 158434, Tempo, 362516
1, 158454, Tempo, 362516
1, 158520, Note_on_c, 0, 91, 0
1, 158520, Note_on_c, 0, 95, 59
1, 158640, Note_on_c, 0, 95, 0
1, 158640, Note_on_c, 0, 67, 0
1, 158640, Note_on_c, 0, 71, 0
1, 158640, Note_on_c, 0, 88, 59
1, 158640, Note_on_c, 0, 61, 53
1, 158640, Note_on_c, 0, 64, 53
1, 158760, Note_on_c, 0, 88, 0
1, 158760, Note_on_c, 0, 85, 59
1, 158880, Note_on_c, 0, 85, 0
1, 158880, Note_on_c, 0, 64, 0
1, 158880, Note_on_c, 0, 61, 0
1, 158880, Note_on_c, 0, 91, 76
1, 158880, Note_on_c, 0, 67, 54
1, 158880, Note_on_c, 0, 71, 64
1, 158934, Tempo, 363614
1, 159000, Note_on_c, 0, 91, 0
1, 159000, Note_on_c, 0, 95, 58
1, 159120, Note_on_c, 0, 95, 0
1, 159120, Note_on_c, 0, 71, 0
1, 159120, Note_on_c, 0, 67, 0
1, 159120, Note_on_c, 0, 89, 58
1, 159120, Note_on_c, 0, 62, 53
1, 159120, Note_on_c, 0, 65, 53
1, 159240, Note_on_c, 0, 89, 0
1, 159240, Note_on_c, 0, 86, 58
1, 159354, Tempo, 364719
1, 159360, Note_on_c, 0, 86, 0
1, 159360, Note_on_c, 0, 65, 0
1, 159360, Note_on_c, 0, 62, 0
1, 159360, Note_on_c, 0, 91, 77
1, 159360, Note_on_c, 0, 71, 63
1, 159360, Note_on_c, 0, 67, 53
1, 159370, Control_c, 0, 64, 0
1, 159423, Control_c, 0, 64, 127
1, 159480, Note_on_c, 0, 91, 0
1, 159480, Note_on_c, 0, 95, 65
1, 159594, Tempo, 365831
1, 159600, Note_on_c, 0, 95, 0
1, 159600, Note_on_c, 0, 67, 0
1, 159600, Note_on_c, 0, 71, 0
1, 159600, Note_on_c, 0, 92, 65
1, 159600, Note_on_c, 0, 63, 45
1, 159600, Note_on_c, 0, 68, 53
1, 159720, Note_on_c, 0, 92, 0
1, 159720, Note_on_c, 0, 87, 65
1, 159814, Tempo, 366950
1, 159840, Note_on_c, 0, 87, 0
1, 159840, Note_on_c, 0, 68, 0
1, 159840, Note_on_c, 0, 63, 0
1, 159840, Note_on_c, 0, 91, 76
1, 159840, Note_on_c, 0, 71, 64
1, 159840, Note_on_c, 0, 67, 54
1, 159960, Note_on_c, 0, 91, 0
1, 159960, Note_on_c, 0, 95, 63
1, 160034, Tempo, 368076
1, 160080, Note_on_c, 0, 95, 0
1, 160080, Note_on_c, 0, 67, 0
1, 160080, Note_on_c, 0, 71, 0
1, 160080, Note_on_c, 0, 92, 64
1, 160080, Note_on_c, 0, 64, 45
1, 160080, Note_on_c, 0, 68, 53
1, 160200, Note_on_c, 0, 92, 0
1, 160200, Note_on_c, 0, 88, 64
1, 160254, Tempo, 369208
1, 160314, Tempo, 369208
1, 160320, Note_on_c, 0, 88, 0
1, 160320, Note_on_c, 0, 68, 0
1, 160320, Note_on_c, 0, 64, 0
1, 160320, Note_on_c, 0, 91, 81
1, 160320, Note_on_c, 0, 71, 64
1, 160320, Note_on_c, 0, 67, 54
1, 160334, Tempo, 370348
1, 160354, Tempo, 371494
1, 160374, Tempo, 372648
1, 160394, Tempo, 373808
1, 160414, Tempo, 374977
1, 160434, Tempo, 376152
1, 160440, Note_on_c, 0, 91, 0
1, 160440, Note_on_c, 0, 95, 69
1, 160454, Tempo, 377335
1, 160474, Tempo, 378525
1, 160494, Tempo, 379723
1, 160514, Tempo, 380928
1, 160534, Tempo, 382141
1, 160554, Tempo, 383362
1, 160560, Note_on_c, 0, 95, 0
1, 160560, Note_on_c, 0, 67, 0
1, 160560, Note_on_c, 0, 71, 0
1, 160560, Note_on_c, 0, 92, 67
1, 160560, Note_on_c, 0, 65, 45
1, 160560, Note_on_c, 0, 68, 53
1, 160574, Tempo, 385827
1, 160594, Tempo, 390854
1, 160614, Tempo, 397325
1, 160634, Tempo, 404013
1, 160654, Tempo, 410931
1, 160674, Tempo, 418089
1, 160680, Note_on_c, 0, 92, 0
1, 160680, Note_on_c, 0, 89, 69
1, 160694, Tempo, 425502
1, 160714, Tempo, 433182
1, 160734, Tempo, 441144
1, 160800, Tempo, 666741
1, 160800, Note_on_c, 0, 89, 0
1, 160800, Note_on_c, 0, 68, 0
1, 160800, Note_on_c, 0, 65, 0
1, 160800, Note_on_c, 0, 96, 95
1, 160800, Note_on_c, 0, 36, 85
1, 160800, Note_on_c, 0, 24, 72
1, 160806, Control_c, 0, 64, 0
1, 160869, Control_c, 0, 64, 127
1, 160920, Tempo, 375023
1, 160920, Note_on_c, 0, 96, 0
1, 160920, Note_on_c, 0, 92, 70
1, 161040, Note_on_c, 0, 92, 0
1, 161040, Note_on_c, 0, 91, 70
1, 161160, Tempo, 401311
1, 161160, Note_on_c, 0, 91, 0
1, 161160, Note_on_c, 0, 84, 70
1, 161280, Tempo, 370348
1, 161280, Note_on_c, 0, 84, 0
1, 161280, Note_on_c, 0, 24, 0
1, 161280, Note_on_c, 0, 36, 0
1, 161280, Note_on_c, 0, 88, 84
1, 161280, Note_on_c, 0, 58, 65
1, 161280, Note_on_c, 0, 64, 65
1, 161280, Note_on_c, 0, 72, 77
1, 161400, Note_on_c, 0, 88, 0
1, 161400, Note_on_c, 0, 85, 68
1, 161520, Note_on_c, 0, 85, 0
1, 161520, Note_on_c, 0, 82, 68
1, 161640, Note_on_c, 0, 82, 0
1, 161640, Note_on_c, 0, 79, 68
1, 161760, Tempo, 362516
1, 161760, Note_on_c, 0, 79, 0
1, 161760, Note_on_c, 0, 84, 79
1, 161880, Note_on_c, 0, 84, 0
1, 161880, Note_on_c, 0, 80, 68
1, 162000, Note_on_c, 0, 80, 0
1, 162000, Note_on_c, 0, 79, 68
1, 162120, Tempo, 357122
1, 162120, Note_on_c, 0, 79, 0
1, 162120, Note_on_c, 0, 72, 68
1, 162240, Tempo, 356062
1, 162240, Note_on_c, 0, 72, 0
1, 162240, Note_on_c, 0, 76, 78
1, 162360, Note_on_c, 0, 76, 0
1, 162360, Note_on_c, 0, 73, 65
1, 162480, Note_on_c, 0, 73, 0
1, 162480, Note_on_c, 0, 70, 65
1, 162600, Note_on_c, 0, 70, 0
1, 162600, Note_on_c, 0, 67, 65
1, 162720, Tempo, 348817
1, 162720, Note_on_c, 0, 67, 0
1, 162720, Note_on_c, 0, 68, 75
1, 162840, Note_on_c, 0, 68, 0
1, 162840, Note_on_c, 0, 72, 66
1, 162960, Note_on_c, 0, 72, 0
1, 162960, Note_on_c, 0, 67, 66
1, 163080, Tempo, 362516
1, 163080, Note_on_c, 0, 67, 0
1, 163080, Note_on_c, 0, 60, 66
1, 163200, Tempo, 347806
1, 163200, Note_on_c, 0, 60, 0
1, 163200, Note_on_c, 0, 72, 0
1, 163200, Note_on_c, 0, 64, 0
1, 163200, Note_on_c, 0, 58, 0
1, 163200, Note_on_c, 0, 61, 75
1, 163200, Control_c, 0, 64, 0
1, 163320, Note_on_c, 0, 64, 59
1, 163344, Note_on_c, 0, 61, 0
1, 163440, Note_on_c, 0, 58, 59
1, 163464, Note_on_c, 0, 64, 0
1, 163560, Tempo, 365831
1, 163560, Note_on_c, 0, 55, 59
1, 163584, Note_on_c, 0, 58, 0
1, 163680, Tempo, 347806
1, 163680, Note_on_c, 0, 55, 0
1, 163680, Note_on_c, 0, 56, 69
1, 163800, Note_on_c, 0, 60, 56
1, 163824, Note_on_c, 0, 56, 0
1, 163920, Note_on_c, 0, 55, 56
1, 163944, Note_on_c, 0, 60, 0
1, 164040, Tempo, 366950
1, 164040, Note_on_c, 0, 48, 56
1, 164064, Note_on_c, 0, 55, 0
1, 164160, Tempo, 348817
1, 164160, Note_on_c, 0, 48, 0
1, 164160, Note_on_c, 0, 49, 71
1, 164280, Note_on_c, 0, 52, 57
1, 164304, Note_on_c, 0, 49, 0
1, 164400, Note_on_c, 0, 46, 56
1, 164424, Note_on_c, 0, 52, 0
1, 164520, Tempo, 360339
1, 164520, Note_on_c, 0, 43, 56
1, 164544, Note_on_c, 0, 46, 0
1, 164640, Tempo, 349834
1, 164640, Note_on_c, 0, 43, 0
1, 164640, Note_on_c, 0, 44, 71
1, 164760, Note_on_c, 0, 48, 61
1, 164784, Note_on_c, 0, 44, 0
1, 164880, Note_on_c, 0, 43, 61
1, 164904, Note_on_c, 0, 48, 0
1, 165000, Tempo, 399973
1, 165000, Note_on_c, 0, 36, 62
1, 165024, Note_on_c, 0, 43, 0
1, 165120, Tempo, 348817
1, 165120, Note_on_c, 0, 36, 0
1, 165120, Note_on_c, 0, 24, 87
1, 165129, Control_c, 0, 64, 0
1, 165360, Control_c, 0, 64, 127
1, 166080, Note_on_c, 0, 24, 0
1, 166080, Note_on_c, 0, 72, 82
1, 166080, Note_on_c, 0, 69, 82
1, 166080, Note_on_c, 0, 63, 69
1, 166080, Note_on_c, 0, 60, 69
1, 166080, Note_on_c, 0, 57, 72
1, 166080, Note_on_c, 0, 51, 63
1, 166080, Note_on_c, 0, 42, 63
1, 168000, Note_on_c, 0, 42, 0
1, 168000, Note_on_c, 0, 57, 0
1, 168000, Note_on_c, 0, 69, 0
1, 168000, Note_on_c, 0, 63, 0
1, 168000, Note_on_c, 0, 72, 0
1, 168000, Note_on_c, 0, 51, 0
1, 168000, Note_on_c, 0, 60, 0
1, 168000, Note_on_c, 0, 62, 77
1, 168000, Note_on_c, 0, 60, 65
1, 168000, Note_on_c, 0, 56, 65
1, 168000, Note_on_c, 0, 50, 63
1, 168000, Note_on_c, 0, 48, 53
1, 168000, Note_on_c, 0, 41, 53
1, 168010, Control_c, 0, 64, 0
1, 168294, Control_c, 0, 64, 127
1, 168960, Note_on_c, 0, 41, 0
1, 168960, Note_on_c, 0, 60, 0
1, 168960, Note_on_c, 0, 56, 0
1, 168960, Note_on_c, 0, 62, 0
1, 168960, Note_on_c, 0, 48, 0
1, 168960, Note_on_c, 0, 50, 0
1, 168960, Note_on_c, 0, 67, 78
1, 168960, Note_on_c, 0, 60, 66
1, 168960, Note_on_c, 0, 55, 78
1, 168960, Note_on_c, 0, 40, 45
1, 168960, Note_on_c, 0, 43, 45
1, 168960, Note_on_c, 0, 48, 63
1, 168966, Control_c, 0, 64, 0
1, 169051, Control_c, 0, 64, 127
1, 169440, Tempo, 362516
1, 169680, Note_on_c, 0, 48, 0
1, 169680, Note_on_c, 0, 60, 0
1, 169680, Note_on_c, 0, 55, 0
1, 169680, Note_on_c, 0, 67, 0
1, 169680, Note_on_c, 0, 43, 0
1, 169680, Note_on_c, 0, 40, 0
1, 169680, Note_on_c, 0, 56, 79
1, 169680, Note_on_c, 0, 54, 67
1, 169680, Note_on_c, 0, 48, 69
1, 169680, Note_on_c, 0, 42, 58
1, 169680, Note_on_c, 0, 39, 58
1, 169920, Tempo, 364719
1, 169920, Note_on_c, 0, 39, 0
1, 169920, Note_on_c, 0, 48, 0
1, 169920, Note_on_c, 0, 56, 0
1, 169920, Note_on_c, 0, 54, 0
1, 169920, Note_on_c, 0, 42, 0
1, 169920, Note_on_c, 0, 60, 84
1, 169920, Note_on_c, 0, 53, 71
1, 169920, Note_on_c, 0, 48, 71
1, 169920, Note_on_c, 0, 41, 60
1, 169920, Note_on_c, 0, 38, 60
1, 169934, Control_c, 0, 64, 0
1, 170232, Control_c, 0, 64, 127
1, 171840, Note_on_c, 0, 38, 0
1, 171840, Note_on_c, 0, 48, 0
1, 171840, Note_on_c, 0, 60, 0
1, 171840, Note_on_c, 0, 53, 0
1, 171840, Note_on_c, 0, 41, 0
1, 171840, Note_on_c, 0, 55, 84
1, 171840, Note_on_c, 0, 53, 71
1, 171840, Note_on_c, 0, 47, 71
1, 171840, Note_on_c, 0, 43, 67
1, 171840, Note_on_c, 0, 38, 56
1, 171840, Note_on_c, 0, 31, 56
1, 171860, Control_c, 0, 64, 0
1, 171960, Tempo, 400027
1, 172187, Control_c, 0, 64, 127
1, 172320, Tempo, 404068
1, 172800, Tempo, 727361
1, 172800, Note_on_c, 0, 31, 0
1, 172800, Note_on_c, 0, 53, 0
1, 172800, Note_on_c, 0, 47, 0
1, 172800, Note_on_c, 0, 55, 0
1, 172800, Note_on_c, 0, 38, 0
1, 172800, Note_on_c, 0, 43, 0
1, 172800, Note_on_c, 0, 48, 102
1, 172800, Note_on_c, 0, 24, 64
1, 172800, Note_on_c, 0, 36, 76
1, 172810, Control_c, 0, 64, 0
1, 173147, Control_c, 0, 64, 127
1, 173280, Note_on_c, 0, 72, 76
1, 173280, Note_on_c, 0, 76, 76
1, 173280, Note_on_c, 0, 79, 76
1, 173280, Note_on_c, 0, 84, 90
1, 173280, Note_on_c, 0, 64, 73
1, 173280, Note_on_c, 0, 60, 62
1, 173280, Note_on_c, 0, 55, 62
1, 173280, Note_on_c, 0, 52, 62
1, 174720, Note_on_c, 0, 52, 0
1, 174720, Note_on_c, 0, 64, 0
1, 174720, Note_on_c, 0, 36, 0
1, 174720, Note_on_c, 0, 72, 0
1, 174720, Note_on_c, 0, 48, 0
1, 174720, Note_on_c, 0, 76, 0
1, 174720, Note_on_c, 0, 24, 0
1, 174720, Note_on_c, 0, 60, 0
1, 174720, Note_on_c, 0, 84, 0
1, 174720, Note_on_c, 0, 79, 0
1, 174720, Note_on_c, 0, 55, 0
1, 176240, Control_c, 0, 64, 0
1, 176240, End_track
0, 0, End_of_file
