0, 0, Header, 0, 1, 480
1, 0, Start_track
1, 0, Title_t, "Rachmaninoff: Etudes-Tableux Opus 33, Nr. 5"
1, 0, Title_t, "Non allegro - Presto"
1, 0, Copyright_t, "Copyright © 2013 by Bernd Krueger"
1, 0, Text_t, "Bernd Krueger"
1, 0, Text_t, "Erstellt: 12.2.2013\012"
1, 0, Text_t, "Dauer: 1:33 Minuten\012"
1, 0, Time_signature, 9, 3, 12, 8
1, 0, Key_signature, -6, "major"
1, 0, Tempo, 988468
1, 0, Program_c, 0, 0
1, 0, Note_on_c, 0, 78, 39
1, 0, Note_on_c, 0, 75, 33
1, 0, Program_c, 0, 0
1, 0, Program_c, 0, 0
1, 0, Control_c, 0, 64, 127
1, 720, Note_on_c, 0, 75, 0
1, 720, Note_on_c, 0, 78, 0
1, 720, Note_on_c, 0, 72, 34
1, 720, Note_on_c, 0, 69, 28
1, 736, Control_c, 0, 64, 0
1, 900, Control_c, 0, 64, 127
1, 1440, Note_on_c, 0, 69, 0
1, 1440, Note_on_c, 0, 72, 0
1, 1440, Note_on_c, 0, 62, 36
1, 1440, Note_on_c, 0, 58, 30
1, 1451, Control_c, 0, 64, 0
1, 1620, Control_c, 0, 64, 127
1, 2160, Tempo, 1086957
1, 2160, Note_on_c, 0, 58, 0
1, 2160, Note_on_c, 0, 62, 0
1, 2160, Note_on_c, 0, 54, 28
1, 2160, Note_on_c, 0, 51, 23
1, 2179, Control_c, 0, 64, 0
1, 2316, Control_c, 0, 64, 127
1, 2400, Note_on_c, 0, 39, 18
1, 2400, Note_on_c, 0, 46, 21
1, 4320, Time_signature, 12, 3, 12, 8
1, 4320, Tempo, 677507
1, 4320, Note_on_c, 0, 46, 0
1, 4320, Note_on_c, 0, 54, 0
1, 4320, Note_on_c, 0, 51, 0
1, 4320, Note_on_c, 0, 39, 0
1, 4320, Note_on_c, 0, 58, 37
1, 4320, Control_c, 0, 64, 0
1, 4359, Tempo, 673325
1, 4378, Tempo, 669195
1, 4397, Tempo, 665188
1, 4400, Note_on_c, 0, 58, 0
1, 4400, Note_on_c, 0, 59, 42
1, 4435, Tempo, 661157
1, 4455, Tempo, 657246
1, 4474, Tempo, 653310
1, 4480, Note_on_c, 0, 59, 0
1, 4480, Note_on_c, 0, 57, 43
1, 4493, Tempo, 649421
1, 4531, Tempo, 645647
1, 4551, Tempo, 641849
1, 4560, Note_on_c, 0, 57, 0
1, 4560, Note_on_c, 0, 58, 48
1, 4570, Tempo, 638162
1, 4589, Tempo, 634451
1, 4627, Tempo, 630782
1, 4640, Note_on_c, 0, 58, 0
1, 4640, Note_on_c, 0, 63, 49
1, 4647, Tempo, 627221
1, 4666, Tempo, 623636
1, 4685, Tempo, 620155
1, 4720, Note_on_c, 0, 63, 0
1, 4720, Note_on_c, 0, 61, 47
1, 4723, Tempo, 606428
1, 4743, Tempo, 603136
1, 4762, Tempo, 599820
1, 4781, Tempo, 596540
1, 4800, Tempo, 593354
1, 4800, Note_on_c, 0, 61, 0
1, 4800, Note_on_c, 0, 62, 54
1, 4819, Tempo, 587027
1, 4839, Tempo, 583885
1, 4858, Tempo, 580776
1, 4877, Tempo, 577756
1, 4880, Note_on_c, 0, 62, 0
1, 4880, Note_on_c, 0, 63, 57
1, 4896, Tempo, 571755
1, 4915, Tempo, 568774
1, 4935, Tempo, 565824
1, 4954, Tempo, 562957
1, 4960, Note_on_c, 0, 63, 0
1, 4960, Note_on_c, 0, 66, 51
1, 4973, Tempo, 557258
1, 4992, Tempo, 554426
1, 5011, Tempo, 551623
1, 5031, Tempo, 548898
1, 5040, Note_on_c, 0, 66, 0
1, 5040, Note_on_c, 0, 67, 63
1, 5050, Tempo, 543478
1, 5069, Tempo, 540784
1, 5088, Tempo, 538117
1, 5107, Tempo, 535523
1, 5120, Note_on_c, 0, 67, 0
1, 5120, Note_on_c, 0, 70, 64
1, 5127, Tempo, 530316
1, 5146, Tempo, 527797
1, 5165, Tempo, 525256
1, 5184, Tempo, 522785
1, 5200, Note_on_c, 0, 70, 0
1, 5200, Note_on_c, 0, 68, 59
1, 5203, Tempo, 517822
1, 5223, Tempo, 515420
1, 5242, Tempo, 512996
1, 5261, Tempo, 510638
1, 5280, Tempo, 505902
1, 5280, Note_on_c, 0, 68, 0
1, 5280, Note_on_c, 0, 71, 69
1, 5299, Tempo, 503609
1, 5319, Tempo, 490116
1, 5360, Note_on_c, 0, 71, 0
1, 5360, Note_on_c, 0, 74, 71
1, 5376, Tempo, 487964
1, 5415, Tempo, 485791
1, 5440, Note_on_c, 0, 74, 0
1, 5440, Note_on_c, 0, 75, 75
1, 5453, Tempo, 483637
1, 5491, Tempo, 481541
1, 5520, Note_on_c, 0, 75, 0
1, 5520, Note_on_c, 0, 78, 75
1, 5530, Tempo, 479425
1, 5568, Tempo, 477365
1, 5600, Note_on_c, 0, 78, 0
1, 5600, Note_on_c, 0, 75, 80
1, 5680, Note_on_c, 0, 75, 0
1, 5680, Note_on_c, 0, 74, 74
1, 5760, Note_on_c, 0, 74, 0
1, 5760, Note_on_c, 0, 77, 92
1, 5760, Note_on_c, 0, 78, 89
1, 5760, Note_on_c, 0, 66, 89
1, 5772, Control_c, 0, 64, 0
1, 5826, Control_c, 0, 64, 127
1, 5840, Tempo, 475285
1, 5840, Note_on_c, 0, 77, 0
1, 5840, Note_on_c, 0, 74, 81
1, 5920, Note_on_c, 0, 74, 0
1, 5920, Note_on_c, 0, 73, 75
1, 6000, Note_on_c, 0, 73, 0
1, 6000, Note_on_c, 0, 76, 87
1, 6080, Note_on_c, 0, 76, 0
1, 6080, Note_on_c, 0, 73, 75
1, 6087, Tempo, 473223
1, 6160, Note_on_c, 0, 73, 0
1, 6160, Note_on_c, 0, 72, 69
1, 6221, Tempo, 475285
1, 6240, Note_on_c, 0, 72, 0
1, 6240, Note_on_c, 0, 75, 81
1, 6320, Note_on_c, 0, 75, 0
1, 6320, Note_on_c, 0, 72, 75
1, 6336, Tempo, 477365
1, 6400, Note_on_c, 0, 72, 0
1, 6400, Note_on_c, 0, 71, 71
1, 6451, Tempo, 479425
1, 6480, Note_on_c, 0, 71, 0
1, 6480, Note_on_c, 0, 70, 78
1, 6560, Note_on_c, 0, 70, 0
1, 6560, Note_on_c, 0, 71, 75
1, 6586, Tempo, 481541
1, 6640, Note_on_c, 0, 71, 0
1, 6640, Note_on_c, 0, 69, 70
1, 6701, Tempo, 483637
1, 6720, Note_on_c, 0, 69, 0
1, 6720, Note_on_c, 0, 75, 78
1, 6800, Note_on_c, 0, 75, 0
1, 6800, Note_on_c, 0, 70, 71
1, 6816, Tempo, 485791
1, 6880, Note_on_c, 0, 70, 0
1, 6880, Note_on_c, 0, 65, 64
1, 6951, Tempo, 487964
1, 6960, Note_on_c, 0, 65, 0
1, 6960, Note_on_c, 0, 66, 75
1, 7040, Note_on_c, 0, 66, 0
1, 7040, Note_on_c, 0, 63, 71
1, 7066, Tempo, 490116
1, 7120, Note_on_c, 0, 63, 0
1, 7120, Note_on_c, 0, 65, 66
1, 7181, Tempo, 492328
1, 7200, Note_on_c, 0, 65, 0
1, 7200, Note_on_c, 0, 66, 0
1, 7200, Note_on_c, 0, 78, 0
1, 7200, Note_on_c, 0, 62, 77
1, 7200, Note_on_c, 0, 54, 85
1, 7200, Note_on_c, 0, 66, 93
1, 7200, Control_c, 0, 64, 0
1, 7240, Control_c, 0, 64, 127
1, 7280, Note_on_c, 0, 62, 0
1, 7280, Note_on_c, 0, 61, 74
1, 7360, Note_on_c, 0, 61, 0
1, 7360, Note_on_c, 0, 64, 70
1, 7440, Note_on_c, 0, 64, 0
1, 7440, Note_on_c, 0, 61, 63
1, 7520, Note_on_c, 0, 61, 0
1, 7520, Note_on_c, 0, 60, 58
1, 7600, Note_on_c, 0, 60, 0
1, 7600, Note_on_c, 0, 63, 56
1, 7680, Note_on_c, 0, 63, 0
1, 7680, Note_on_c, 0, 60, 60
1, 7760, Note_on_c, 0, 60, 0
1, 7760, Note_on_c, 0, 59, 52
1, 7840, Note_on_c, 0, 59, 0
1, 7840, Note_on_c, 0, 62, 50
1, 7920, Note_on_c, 0, 62, 0
1, 7920, Note_on_c, 0, 59, 50
1, 8000, Note_on_c, 0, 59, 0
1, 8000, Note_on_c, 0, 58, 49
1, 8080, Note_on_c, 0, 58, 0
1, 8080, Note_on_c, 0, 61, 48
1, 8160, Note_on_c, 0, 61, 0
1, 8160, Note_on_c, 0, 66, 0
1, 8160, Note_on_c, 0, 54, 0
1, 8160, Note_on_c, 0, 57, 56
1, 8160, Note_on_c, 0, 34, 71
1, 8160, Note_on_c, 0, 46, 78
1, 8165, Control_c, 0, 64, 0
1, 8197, Control_c, 0, 64, 127
1, 8240, Note_on_c, 0, 57, 0
1, 8240, Note_on_c, 0, 60, 46
1, 8320, Note_on_c, 0, 60, 0
1, 8320, Note_on_c, 0, 56, 44
1, 8400, Note_on_c, 0, 56, 0
1, 8400, Note_on_c, 0, 59, 43
1, 8480, Note_on_c, 0, 59, 0
1, 8480, Note_on_c, 0, 55, 40
1, 8560, Note_on_c, 0, 55, 0
1, 8560, Note_on_c, 0, 58, 36
1, 8640, Note_on_c, 0, 58, 0
1, 8640, Note_on_c, 0, 54, 41
1, 8720, Note_on_c, 0, 54, 0
1, 8720, Note_on_c, 0, 53, 35
1, 8800, Note_on_c, 0, 53, 0
1, 8800, Note_on_c, 0, 56, 35
1, 8880, Note_on_c, 0, 56, 0
1, 8880, Note_on_c, 0, 54, 41
1, 8960, Note_on_c, 0, 54, 0
1, 8960, Note_on_c, 0, 52, 36
1, 9040, Note_on_c, 0, 52, 0
1, 9040, Note_on_c, 0, 56, 36
1, 9120, Tempo, 490116
1, 9120, Note_on_c, 0, 56, 0
1, 9120, Note_on_c, 0, 54, 40
1, 9124, Control_c, 0, 64, 0
1, 9200, Note_on_c, 0, 54, 0
1, 9200, Note_on_c, 0, 51, 35
1, 9216, Tempo, 492328
1, 9280, Note_on_c, 0, 51, 0
1, 9280, Note_on_c, 0, 56, 34
1, 9312, Tempo, 494519
1, 9360, Note_on_c, 0, 56, 0
1, 9360, Note_on_c, 0, 54, 39
1, 9408, Tempo, 496771
1, 9440, Note_on_c, 0, 54, 0
1, 9440, Note_on_c, 0, 53, 34
1, 9504, Tempo, 499043
1, 9520, Note_on_c, 0, 53, 0
1, 9520, Note_on_c, 0, 46, 32
1, 9600, Tempo, 501295
1, 9600, Note_on_c, 0, 46, 0
1, 9600, Note_on_c, 0, 58, 37
1, 9680, Note_on_c, 0, 58, 0
1, 9680, Note_on_c, 0, 54, 37
1, 9696, Tempo, 503609
1, 9760, Note_on_c, 0, 54, 0
1, 9760, Note_on_c, 0, 56, 33
1, 9792, Tempo, 505902
1, 9840, Note_on_c, 0, 56, 0
1, 9840, Note_on_c, 0, 57, 37
1, 9888, Tempo, 508259
1, 9920, Note_on_c, 0, 57, 0
1, 9920, Note_on_c, 0, 59, 34
1, 9984, Tempo, 510638
1, 10000, Note_on_c, 0, 59, 0
1, 10000, Note_on_c, 0, 58, 34
1, 10080, Tempo, 510638
1, 10080, Note_on_c, 0, 58, 0
1, 10080, Note_on_c, 0, 46, 0
1, 10080, Note_on_c, 0, 34, 0
1, 10080, Note_on_c, 0, 65, 31
1, 10157, Tempo, 508259
1, 10160, Note_on_c, 0, 65, 0
1, 10160, Note_on_c, 0, 59, 34
1, 10234, Tempo, 505902
1, 10240, Note_on_c, 0, 59, 0
1, 10240, Note_on_c, 0, 57, 35
1, 10291, Tempo, 503609
1, 10320, Note_on_c, 0, 57, 0
1, 10320, Note_on_c, 0, 58, 40
1, 10368, Tempo, 501295
1, 10400, Note_on_c, 0, 58, 0
1, 10400, Note_on_c, 0, 63, 42
1, 10426, Tempo, 499043
1, 10480, Note_on_c, 0, 63, 0
1, 10480, Note_on_c, 0, 61, 40
1, 10503, Tempo, 496771
1, 10560, Tempo, 494519
1, 10560, Note_on_c, 0, 61, 0
1, 10560, Note_on_c, 0, 62, 48
1, 10637, Tempo, 492328
1, 10640, Note_on_c, 0, 62, 0
1, 10640, Note_on_c, 0, 63, 50
1, 10714, Tempo, 490116
1, 10720, Note_on_c, 0, 63, 0
1, 10720, Note_on_c, 0, 66, 47
1, 10771, Tempo, 487964
1, 10800, Note_on_c, 0, 66, 0
1, 10800, Note_on_c, 0, 67, 57
1, 10848, Tempo, 485791
1, 10880, Note_on_c, 0, 67, 0
1, 10880, Note_on_c, 0, 70, 59
1, 10906, Tempo, 483637
1, 10960, Note_on_c, 0, 70, 0
1, 10960, Note_on_c, 0, 68, 56
1, 10983, Tempo, 481541
1, 11040, Tempo, 479425
1, 11040, Note_on_c, 0, 68, 0
1, 11040, Note_on_c, 0, 71, 65
1, 11059, Tempo, 503609
1, 11079, Tempo, 490116
1, 11120, Note_on_c, 0, 71, 0
1, 11120, Note_on_c, 0, 74, 70
1, 11136, Tempo, 487964
1, 11175, Tempo, 485791
1, 11200, Note_on_c, 0, 74, 0
1, 11200, Note_on_c, 0, 75, 74
1, 11213, Tempo, 483637
1, 11251, Tempo, 481541
1, 11280, Note_on_c, 0, 75, 0
1, 11280, Note_on_c, 0, 78, 77
1, 11290, Tempo, 479425
1, 11328, Tempo, 477365
1, 11360, Note_on_c, 0, 78, 0
1, 11360, Note_on_c, 0, 75, 80
1, 11440, Note_on_c, 0, 75, 0
1, 11440, Note_on_c, 0, 74, 75
1, 11520, Note_on_c, 0, 74, 0
1, 11520, Note_on_c, 0, 77, 92
1, 11520, Note_on_c, 0, 90, 100
1, 11520, Control_c, 0, 64, 0
1, 11580, Note_on_c, 0, 90, 0
1, 11600, Tempo, 475285
1, 11600, Note_on_c, 0, 77, 0
1, 11600, Note_on_c, 0, 74, 81
1, 11680, Note_on_c, 0, 74, 0
1, 11680, Note_on_c, 0, 73, 75
1, 11760, Note_on_c, 0, 73, 0
1, 11760, Note_on_c, 0, 76, 87
1, 11760, Note_on_c, 0, 78, 87
1, 11820, Note_on_c, 0, 78, 0
1, 11840, Note_on_c, 0, 76, 0
1, 11840, Note_on_c, 0, 73, 75
1, 11920, Note_on_c, 0, 73, 0
1, 11920, Note_on_c, 0, 72, 69
1, 12000, Tempo, 492328
1, 12000, Note_on_c, 0, 72, 0
1, 12000, Note_on_c, 0, 75, 81
1, 12000, Note_on_c, 0, 72, 85
1, 12060, Note_on_c, 0, 72, 0
1, 12080, Note_on_c, 0, 75, 0
1, 12080, Note_on_c, 0, 72, 75
1, 12160, Note_on_c, 0, 72, 0
1, 12160, Note_on_c, 0, 71, 71
1, 12240, Tempo, 471217
1, 12240, Note_on_c, 0, 71, 0
1, 12240, Note_on_c, 0, 70, 89
1, 12240, Note_on_c, 0, 78, 98
1, 12300, Note_on_c, 0, 78, 0
1, 12320, Note_on_c, 0, 70, 0
1, 12320, Note_on_c, 0, 71, 75
1, 12400, Note_on_c, 0, 71, 0
1, 12400, Note_on_c, 0, 69, 70
1, 12480, Note_on_c, 0, 69, 0
1, 12480, Note_on_c, 0, 75, 88
1, 12480, Note_on_c, 0, 63, 81
1, 12540, Note_on_c, 0, 63, 0
1, 12560, Note_on_c, 0, 75, 0
1, 12560, Note_on_c, 0, 70, 74
1, 12640, Note_on_c, 0, 70, 0
1, 12640, Note_on_c, 0, 65, 64
1, 12720, Tempo, 515420
1, 12720, Note_on_c, 0, 65, 0
1, 12720, Note_on_c, 0, 66, 81
1, 12800, Note_on_c, 0, 66, 0
1, 12800, Note_on_c, 0, 63, 72
1, 12880, Note_on_c, 0, 63, 0
1, 12880, Note_on_c, 0, 65, 66
1, 12960, Tempo, 473223
1, 12960, Note_on_c, 0, 65, 0
1, 12960, Note_on_c, 0, 62, 77
1, 12960, Note_on_c, 0, 66, 92
1, 12960, Note_on_c, 0, 54, 92
1, 13040, Note_on_c, 0, 62, 0
1, 13040, Note_on_c, 0, 61, 75
1, 13120, Note_on_c, 0, 61, 0
1, 13120, Note_on_c, 0, 64, 71
1, 13200, Note_on_c, 0, 64, 0
1, 13200, Note_on_c, 0, 54, 0
1, 13200, Note_on_c, 0, 66, 0
1, 13200, Note_on_c, 0, 61, 65
1, 13200, Note_on_c, 0, 57, 74
1, 13200, Note_on_c, 0, 45, 74
1, 13280, Note_on_c, 0, 61, 0
1, 13280, Note_on_c, 0, 60, 60
1, 13360, Note_on_c, 0, 60, 0
1, 13360, Note_on_c, 0, 63, 59
1, 13440, Tempo, 499043
1, 13440, Note_on_c, 0, 63, 0
1, 13440, Note_on_c, 0, 45, 0
1, 13440, Note_on_c, 0, 57, 0
1, 13440, Note_on_c, 0, 60, 71
1, 13520, Note_on_c, 0, 60, 0
1, 13520, Note_on_c, 0, 59, 57
1, 13600, Note_on_c, 0, 59, 0
1, 13600, Note_on_c, 0, 62, 55
1, 13680, Tempo, 471217
1, 13680, Note_on_c, 0, 62, 0
1, 13680, Note_on_c, 0, 59, 64
1, 13680, Note_on_c, 0, 37, 86
1, 13680, Note_on_c, 0, 49, 86
1, 13760, Note_on_c, 0, 59, 0
1, 13760, Note_on_c, 0, 58, 55
1, 13840, Note_on_c, 0, 58, 0
1, 13840, Note_on_c, 0, 61, 55
1, 13920, Note_on_c, 0, 61, 0
1, 13920, Note_on_c, 0, 49, 0
1, 13920, Note_on_c, 0, 37, 0
1, 13920, Note_on_c, 0, 58, 66
1, 13920, Note_on_c, 0, 42, 70
1, 13920, Note_on_c, 0, 30, 70
1, 14000, Note_on_c, 0, 58, 0
1, 14000, Note_on_c, 0, 57, 49
1, 14080, Note_on_c, 0, 57, 0
1, 14080, Note_on_c, 0, 61, 49
1, 14160, Note_on_c, 0, 61, 0
1, 14160, Note_on_c, 0, 30, 0
1, 14160, Note_on_c, 0, 42, 0
1, 14160, Note_on_c, 0, 57, 63
1, 14240, Note_on_c, 0, 57, 0
1, 14240, Note_on_c, 0, 56, 52
1, 14320, Note_on_c, 0, 56, 0
1, 14320, Note_on_c, 0, 57, 51
1, 14400, Note_on_c, 0, 57, 0
1, 14400, Note_on_c, 0, 58, 51
1, 14480, Note_on_c, 0, 58, 0
1, 14480, Note_on_c, 0, 59, 46
1, 14560, Note_on_c, 0, 59, 0
1, 14560, Note_on_c, 0, 57, 43
1, 14640, Note_on_c, 0, 57, 0
1, 14640, Note_on_c, 0, 58, 49
1, 14640, Note_on_c, 0, 61, 64
1, 14640, Note_on_c, 0, 66, 64
1, 14640, Note_on_c, 0, 73, 64
1, 14720, Note_on_c, 0, 58, 0
1, 14720, Note_on_c, 0, 59, 42
1, 14800, Note_on_c, 0, 59, 0
1, 14800, Note_on_c, 0, 56, 40
1, 14823, Tempo, 471217
1, 14880, Note_on_c, 0, 56, 0
1, 14880, Note_on_c, 0, 58, 47
1, 14960, Note_on_c, 0, 58, 0
1, 14960, Note_on_c, 0, 59, 40
1, 15034, Tempo, 473223
1, 15040, Note_on_c, 0, 59, 0
1, 15040, Note_on_c, 0, 49, 40
1, 15120, Note_on_c, 0, 49, 0
1, 15120, Note_on_c, 0, 54, 43
1, 15200, Note_on_c, 0, 54, 0
1, 15200, Note_on_c, 0, 58, 37
1, 15226, Tempo, 475285
1, 15280, Note_on_c, 0, 58, 0
1, 15280, Note_on_c, 0, 61, 36
1, 15360, Note_on_c, 0, 61, 0
1, 15360, Note_on_c, 0, 61, 0
1, 15360, Note_on_c, 0, 66, 0
1, 15360, Note_on_c, 0, 73, 0
1, 15360, Note_on_c, 0, 63, 41
1, 15437, Tempo, 477365
1, 15440, Note_on_c, 0, 63, 0
1, 15440, Note_on_c, 0, 65, 35
1, 15520, Note_on_c, 0, 65, 0
1, 15520, Note_on_c, 0, 66, 33
1, 15600, Note_on_c, 0, 66, 0
1, 15600, Note_on_c, 0, 68, 39
1, 15629, Tempo, 479425
1, 15680, Note_on_c, 0, 68, 0
1, 15680, Note_on_c, 0, 70, 37
1, 15760, Note_on_c, 0, 70, 0
1, 15760, Note_on_c, 0, 71, 33
1, 15821, Tempo, 481541
1, 15840, Time_signature, 6, 3, 12, 8
1, 15840, Note_on_c, 0, 71, 0
1, 15840, Note_on_c, 0, 73, 36
1, 15840, Control_c, 0, 64, 127
1, 15920, Note_on_c, 0, 73, 0
1, 15920, Note_on_c, 0, 75, 32
1, 15936, Tempo, 485791
1, 15975, Tempo, 487964
1, 16000, Note_on_c, 0, 75, 0
1, 16000, Note_on_c, 0, 77, 32
1, 16013, Tempo, 490116
1, 16051, Tempo, 492328
1, 16080, Note_on_c, 0, 77, 0
1, 16080, Note_on_c, 0, 78, 35
1, 16090, Tempo, 494519
1, 16109, Tempo, 496771
1, 16147, Tempo, 499043
1, 16160, Note_on_c, 0, 78, 0
1, 16160, Note_on_c, 0, 80, 32
1, 16186, Tempo, 501295
1, 16224, Tempo, 503609
1, 16240, Note_on_c, 0, 80, 0
1, 16240, Note_on_c, 0, 81, 32
1, 16263, Tempo, 505902
1, 16282, Tempo, 508259
1, 16320, Tempo, 522785
1, 16320, Note_on_c, 0, 81, 0
1, 16320, Note_on_c, 0, 82, 38
1, 16320, Note_on_c, 0, 89, 45
1, 16320, Note_on_c, 0, 86, 45
1, 16329, Control_c, 0, 64, 0
1, 16357, Control_c, 0, 64, 127
1, 16400, Note_on_c, 0, 82, 0
1, 16400, Note_on_c, 0, 77, 32
1, 16480, Note_on_c, 0, 77, 0
1, 16480, Note_on_c, 0, 73, 30
1, 16560, Note_on_c, 0, 73, 0
1, 16560, Note_on_c, 0, 86, 0
1, 16560, Note_on_c, 0, 89, 0
1, 16560, Note_on_c, 0, 77, 30
1, 16560, Note_on_c, 0, 87, 41
1, 16560, Note_on_c, 0, 94, 41
1, 16640, Note_on_c, 0, 77, 0
1, 16640, Note_on_c, 0, 78, 31
1, 16720, Note_on_c, 0, 78, 0
1, 16720, Note_on_c, 0, 80, 31
1, 16800, Note_on_c, 0, 80, 0
1, 16800, Note_on_c, 0, 94, 0
1, 16800, Note_on_c, 0, 87, 0
1, 16800, Note_on_c, 0, 82, 35
1, 16800, Note_on_c, 0, 89, 45
1, 16800, Note_on_c, 0, 86, 45
1, 16880, Note_on_c, 0, 82, 0
1, 16880, Note_on_c, 0, 77, 32
1, 16960, Note_on_c, 0, 77, 0
1, 16960, Note_on_c, 0, 70, 32
1, 17040, Tempo, 551623
1, 17040, Note_on_c, 0, 70, 0
1, 17040, Note_on_c, 0, 86, 0
1, 17040, Note_on_c, 0, 89, 0
1, 17040, Note_on_c, 0, 77, 31
1, 17040, Note_on_c, 0, 87, 40
1, 17040, Note_on_c, 0, 94, 40
1, 17120, Note_on_c, 0, 77, 0
1, 17120, Note_on_c, 0, 78, 33
1, 17200, Note_on_c, 0, 78, 0
1, 17200, Note_on_c, 0, 80, 34
1, 17280, Time_signature, 12, 3, 12, 8
1, 17280, Tempo, 1062135
1, 17280, Note_on_c, 0, 80, 0
1, 17280, Note_on_c, 0, 94, 0
1, 17280, Note_on_c, 0, 87, 0
1, 17280, Note_on_c, 0, 82, 37
1, 17280, Note_on_c, 0, 89, 45
1, 17280, Note_on_c, 0, 86, 45
1, 17297, Control_c, 0, 64, 0
1, 17520, Tempo, 513611
1, 17520, Note_on_c, 0, 86, 0
1, 17520, Note_on_c, 0, 89, 0
1, 17520, Note_on_c, 0, 82, 0
1, 17520, Note_on_c, 0, 50, 64
1, 17520, Note_on_c, 0, 22, 85
1, 17520, Note_on_c, 0, 34, 85
1, 17549, Control_c, 0, 64, 127
1, 17600, Note_on_c, 0, 50, 0
1, 17600, Note_on_c, 0, 56, 67
1, 17680, Note_on_c, 0, 56, 0
1, 17680, Note_on_c, 0, 58, 68
1, 17760, Tempo, 494560
1, 17760, Note_on_c, 0, 58, 0
1, 17760, Note_on_c, 0, 62, 72
1, 17840, Note_on_c, 0, 62, 0
1, 17840, Note_on_c, 0, 68, 73
1, 17920, Note_on_c, 0, 68, 0
1, 17920, Note_on_c, 0, 70, 75
1, 18000, Tempo, 486539
1, 18000, Note_on_c, 0, 70, 0
1, 18000, Note_on_c, 0, 34, 0
1, 18000, Note_on_c, 0, 22, 0
1, 18000, Note_on_c, 0, 75, 84
1, 18000, Note_on_c, 0, 63, 84
1, 18000, Note_on_c, 0, 35, 86
1, 18000, Note_on_c, 0, 47, 86
1, 18013, Control_c, 0, 64, 0
1, 18038, Control_c, 0, 64, 127
1, 18080, Note_on_c, 0, 63, 0
1, 18080, Note_on_c, 0, 75, 0
1, 18080, Note_on_c, 0, 68, 71
1, 18160, Note_on_c, 0, 68, 0
1, 18160, Note_on_c, 0, 67, 70
1, 18240, Note_on_c, 0, 67, 0
1, 18240, Note_on_c, 0, 66, 71
1, 18240, Note_on_c, 0, 68, 71
1, 18320, Note_on_c, 0, 68, 0
1, 18320, Note_on_c, 0, 66, 0
1, 18320, Note_on_c, 0, 65, 60
1, 18400, Note_on_c, 0, 65, 0
1, 18400, Note_on_c, 0, 64, 60
1, 18445, Tempo, 484574
1, 18480, Note_on_c, 0, 64, 0
1, 18480, Note_on_c, 0, 63, 65
1, 18488, Control_c, 0, 64, 0
1, 18503, Tempo, 486539
1, 18518, Control_c, 0, 64, 127
1, 18560, Note_on_c, 0, 63, 0
1, 18560, Note_on_c, 0, 58, 57
1, 18561, Tempo, 488520
1, 18618, Tempo, 490517
1, 18640, Note_on_c, 0, 58, 0
1, 18640, Note_on_c, 0, 56, 57
1, 18676, Tempo, 492530
1, 18714, Tempo, 494560
1, 18720, Note_on_c, 0, 56, 0
1, 18720, Note_on_c, 0, 55, 65
1, 18772, Tempo, 496607
1, 18800, Note_on_c, 0, 55, 0
1, 18800, Note_on_c, 0, 54, 58
1, 18829, Tempo, 498670
1, 18880, Tempo, 674233
1, 18880, Note_on_c, 0, 54, 0
1, 18880, Note_on_c, 0, 53, 58
1, 18945, Tempo, 502849
1, 18960, Tempo, 517286
1, 18960, Note_on_c, 0, 53, 0
1, 18960, Note_on_c, 0, 35, 0
1, 18960, Note_on_c, 0, 47, 0
1, 18960, Note_on_c, 0, 37, 85
1, 18960, Note_on_c, 0, 49, 85
1, 18970, Control_c, 0, 64, 0
1, 18989, Control_c, 0, 64, 127
1, 19040, Note_on_c, 0, 59, 67
1, 19120, Note_on_c, 0, 59, 0
1, 19120, Note_on_c, 0, 64, 68
1, 19200, Tempo, 494560
1, 19200, Note_on_c, 0, 64, 0
1, 19200, Note_on_c, 0, 65, 72
1, 19280, Note_on_c, 0, 65, 0
1, 19280, Note_on_c, 0, 71, 73
1, 19360, Note_on_c, 0, 71, 0
1, 19360, Note_on_c, 0, 73, 75
1, 19440, Tempo, 486539
1, 19440, Note_on_c, 0, 73, 0
1, 19440, Note_on_c, 0, 49, 0
1, 19440, Note_on_c, 0, 37, 0
1, 19440, Note_on_c, 0, 78, 86
1, 19440, Note_on_c, 0, 66, 86
1, 19440, Note_on_c, 0, 50, 90
1, 19440, Note_on_c, 0, 62, 90
1, 19453, Control_c, 0, 64, 0
1, 19478, Control_c, 0, 64, 127
1, 19520, Note_on_c, 0, 66, 0
1, 19520, Note_on_c, 0, 78, 0
1, 19520, Note_on_c, 0, 73, 71
1, 19600, Note_on_c, 0, 73, 0
1, 19600, Note_on_c, 0, 71, 70
1, 19680, Note_on_c, 0, 71, 0
1, 19680, Note_on_c, 0, 69, 71
1, 19760, Note_on_c, 0, 69, 0
1, 19760, Note_on_c, 0, 68, 60
1, 19840, Note_on_c, 0, 68, 0
1, 19840, Note_on_c, 0, 67, 60
1, 19885, Tempo, 484574
1, 19904, Tempo, 487845
1, 19916, Tempo, 489836
1, 19920, Note_on_c, 0, 67, 0
1, 19920, Note_on_c, 0, 66, 65
1, 19928, Tempo, 491844
1, 19928, Control_c, 0, 64, 0
1, 19940, Tempo, 493868
1, 19952, Tempo, 495909
1, 19958, Control_c, 0, 64, 127
1, 19964, Tempo, 497967
1, 19976, Tempo, 500042
1, 19988, Tempo, 502134
1, 20000, Tempo, 504244
1, 20000, Note_on_c, 0, 66, 0
1, 20000, Note_on_c, 0, 65, 57
1, 20012, Tempo, 506372
1, 20024, Tempo, 508518
1, 20036, Tempo, 510682
1, 20048, Tempo, 512864
1, 20060, Tempo, 517286
1, 20080, Tempo, 876040
1, 20080, Note_on_c, 0, 65, 0
1, 20080, Note_on_c, 0, 64, 57
1, 20154, Tempo, 494560
1, 20160, Tempo, 827472
1, 20160, Note_on_c, 0, 64, 0
1, 20160, Note_on_c, 0, 50, 0
1, 20160, Note_on_c, 0, 62, 0
1, 20160, Note_on_c, 0, 63, 87
1, 20160, Note_on_c, 0, 51, 87
1, 20220, Control_c, 0, 64, 0
1, 20240, Tempo, 844951
1, 20280, Note_on_c, 0, 51, 0
1, 20280, Note_on_c, 0, 63, 0
1, 20400, Tempo, 480038
1, 20400, Note_on_c, 0, 99, 72
1, 20400, Note_on_c, 0, 79, 36
1, 20400, Note_on_c, 0, 82, 43
1, 20400, Note_on_c, 0, 75, 36
1, 20400, Note_on_c, 0, 70, 36
1, 20425, Control_c, 0, 64, 127
1, 20480, Note_on_c, 0, 99, 0
1, 20480, Note_on_c, 0, 87, 49
1, 20520, Note_on_c, 0, 75, 0
1, 20520, Note_on_c, 0, 70, 0
1, 20520, Note_on_c, 0, 79, 0
1, 20520, Note_on_c, 0, 82, 0
1, 20560, Note_on_c, 0, 87, 0
1, 20560, Note_on_c, 0, 99, 40
1, 20640, Tempo, 504244
1, 20640, Note_on_c, 0, 99, 0
1, 20640, Note_on_c, 0, 97, 63
1, 20640, Note_on_c, 0, 71, 28
1, 20640, Note_on_c, 0, 76, 28
1, 20640, Note_on_c, 0, 80, 28
1, 20640, Note_on_c, 0, 83, 34
1, 20659, Control_c, 0, 64, 0
1, 20679, Control_c, 0, 64, 127
1, 20720, Note_on_c, 0, 97, 0
1, 20720, Note_on_c, 0, 85, 40
1, 20760, Note_on_c, 0, 80, 0
1, 20760, Note_on_c, 0, 83, 0
1, 20760, Note_on_c, 0, 71, 0
1, 20760, Note_on_c, 0, 76, 0
1, 20800, Note_on_c, 0, 85, 0
1, 20800, Note_on_c, 0, 97, 47
1, 20880, Tempo, 480038
1, 20880, Note_on_c, 0, 97, 0
1, 20880, Note_on_c, 0, 99, 64
1, 20880, Note_on_c, 0, 63, 30
1, 20889, Control_c, 0, 64, 0
1, 20916, Control_c, 0, 64, 127
1, 20960, Note_on_c, 0, 99, 0
1, 20960, Note_on_c, 0, 87, 48
1, 21000, Note_on_c, 0, 63, 0
1, 21040, Note_on_c, 0, 87, 0
1, 21040, Note_on_c, 0, 99, 48
1, 21120, Tempo, 521785
1, 21120, Note_on_c, 0, 99, 0
1, 21120, Note_on_c, 0, 87, 64
1, 21120, Note_on_c, 0, 80, 45
1, 21120, Note_on_c, 0, 76, 38
1, 21120, Note_on_c, 0, 73, 38
1, 21120, Note_on_c, 0, 68, 38
1, 21129, Control_c, 0, 64, 0
1, 21240, Note_on_c, 0, 68, 0
1, 21240, Note_on_c, 0, 76, 0
1, 21240, Note_on_c, 0, 87, 0
1, 21240, Note_on_c, 0, 80, 0
1, 21240, Note_on_c, 0, 73, 0
1, 21360, Tempo, 489836
1, 21360, Note_on_c, 0, 97, 59
1, 21360, Note_on_c, 0, 70, 28
1, 21360, Note_on_c, 0, 75, 28
1, 21360, Note_on_c, 0, 78, 28
1, 21360, Note_on_c, 0, 82, 34
1, 21378, Control_c, 0, 64, 127
1, 21440, Note_on_c, 0, 97, 0
1, 21440, Note_on_c, 0, 85, 45
1, 21480, Note_on_c, 0, 78, 0
1, 21480, Note_on_c, 0, 82, 0
1, 21480, Note_on_c, 0, 70, 0
1, 21480, Note_on_c, 0, 75, 0
1, 21520, Note_on_c, 0, 85, 0
1, 21520, Note_on_c, 0, 97, 45
1, 21600, Tempo, 474346
1, 21600, Note_on_c, 0, 97, 0
1, 21600, Note_on_c, 0, 99, 69
1, 21600, Note_on_c, 0, 63, 30
1, 21604, Control_c, 0, 64, 0
1, 21646, Control_c, 0, 64, 127
1, 21680, Note_on_c, 0, 99, 0
1, 21680, Note_on_c, 0, 87, 46
1, 21720, Note_on_c, 0, 63, 0
1, 21760, Note_on_c, 0, 87, 0
1, 21760, Note_on_c, 0, 99, 40
1, 21840, Tempo, 517286
1, 21840, Note_on_c, 0, 99, 0
1, 21840, Note_on_c, 0, 87, 57
1, 21840, Note_on_c, 0, 78, 45
1, 21840, Note_on_c, 0, 75, 38
1, 21840, Note_on_c, 0, 71, 38
1, 21840, Note_on_c, 0, 66, 38
1, 21851, Control_c, 0, 64, 0
1, 21960, Note_on_c, 0, 66, 0
1, 21960, Note_on_c, 0, 75, 0
1, 21960, Note_on_c, 0, 87, 0
1, 21960, Note_on_c, 0, 78, 0
1, 21960, Note_on_c, 0, 71, 0
1, 22080, Tempo, 485869
1, 22080, Note_on_c, 0, 97, 68
1, 22080, Note_on_c, 0, 68, 28
1, 22080, Note_on_c, 0, 73, 28
1, 22080, Note_on_c, 0, 76, 28
1, 22080, Note_on_c, 0, 80, 34
1, 22123, Control_c, 0, 64, 127
1, 22160, Note_on_c, 0, 97, 0
1, 22160, Note_on_c, 0, 85, 45
1, 22200, Note_on_c, 0, 76, 0
1, 22200, Note_on_c, 0, 80, 0
1, 22200, Note_on_c, 0, 68, 0
1, 22200, Note_on_c, 0, 73, 0
1, 22240, Note_on_c, 0, 85, 0
1, 22240, Note_on_c, 0, 97, 45
1, 22320, Tempo, 470625
1, 22320, Note_on_c, 0, 97, 0
1, 22320, Note_on_c, 0, 99, 71
1, 22320, Note_on_c, 0, 63, 33
1, 22345, Control_c, 0, 64, 0
1, 22384, Control_c, 0, 64, 127
1, 22400, Note_on_c, 0, 99, 0
1, 22400, Note_on_c, 0, 87, 46
1, 22440, Note_on_c, 0, 63, 0
1, 22480, Note_on_c, 0, 87, 0
1, 22480, Note_on_c, 0, 99, 46
1, 22560, Tempo, 493868
1, 22560, Note_on_c, 0, 99, 0
1, 22560, Note_on_c, 0, 87, 57
1, 22560, Note_on_c, 0, 64, 39
1, 22560, Note_on_c, 0, 68, 33
1, 22560, Note_on_c, 0, 71, 33
1, 22560, Note_on_c, 0, 76, 39
1, 22577, Control_c, 0, 64, 0
1, 22680, Note_on_c, 0, 76, 0
1, 22680, Note_on_c, 0, 68, 0
1, 22680, Note_on_c, 0, 87, 0
1, 22680, Note_on_c, 0, 64, 0
1, 22680, Note_on_c, 0, 71, 0
1, 22800, Note_on_c, 0, 63, 62
1, 22800, Note_on_c, 0, 78, 34
1, 22800, Note_on_c, 0, 75, 23
1, 22800, Note_on_c, 0, 70, 23
1, 22800, Note_on_c, 0, 66, 23
1, 22839, Control_c, 0, 64, 127
1, 22880, Note_on_c, 0, 63, 0
1, 22880, Note_on_c, 0, 61, 65
1, 22920, Note_on_c, 0, 70, 0
1, 22920, Note_on_c, 0, 66, 0
1, 22920, Note_on_c, 0, 78, 0
1, 22920, Note_on_c, 0, 75, 0
1, 22960, Note_on_c, 0, 61, 0
1, 22960, Note_on_c, 0, 59, 67
1, 23040, Tempo, 483910
1, 23040, Note_on_c, 0, 59, 0
1, 23040, Note_on_c, 0, 58, 66
1, 23056, Tempo, 489836
1, 23120, Note_on_c, 0, 58, 0
1, 23120, Note_on_c, 0, 59, 56
1, 23200, Tempo, 487845
1, 23200, Note_on_c, 0, 59, 0
1, 23200, Note_on_c, 0, 57, 57
1, 23280, Note_on_c, 0, 57, 0
1, 23280, Note_on_c, 0, 58, 64
1, 23280, Note_on_c, 0, 54, 85
1, 23297, Control_c, 0, 64, 0
1, 23344, Tempo, 485869
1, 23355, Control_c, 0, 64, 127
1, 23360, Note_on_c, 0, 58, 0
1, 23360, Note_on_c, 0, 63, 59
1, 23440, Note_on_c, 0, 63, 0
1, 23440, Note_on_c, 0, 61, 60
1, 23488, Tempo, 483910
1, 23520, Note_on_c, 0, 61, 0
1, 23520, Note_on_c, 0, 54, 0
1, 23520, Note_on_c, 0, 62, 68
1, 23520, Note_on_c, 0, 47, 77
1, 23600, Note_on_c, 0, 62, 0
1, 23600, Note_on_c, 0, 63, 60
1, 23632, Tempo, 481966
1, 23680, Note_on_c, 0, 63, 0
1, 23680, Note_on_c, 0, 66, 60
1, 23760, Note_on_c, 0, 66, 0
1, 23760, Note_on_c, 0, 47, 0
1, 23760, Note_on_c, 0, 67, 69
1, 23760, Note_on_c, 0, 38, 86
1, 23768, Control_c, 0, 64, 0
1, 23776, Tempo, 480038
1, 23820, Control_c, 0, 64, 127
1, 23840, Note_on_c, 0, 67, 0
1, 23840, Note_on_c, 0, 70, 61
1, 23920, Note_on_c, 0, 70, 0
1, 23920, Note_on_c, 0, 68, 62
1, 24000, Note_on_c, 0, 68, 0
1, 24000, Note_on_c, 0, 38, 0
1, 24000, Note_on_c, 0, 71, 72
1, 24000, Note_on_c, 0, 42, 76
1, 24080, Note_on_c, 0, 71, 0
1, 24080, Note_on_c, 0, 74, 63
1, 24160, Note_on_c, 0, 74, 0
1, 24160, Note_on_c, 0, 75, 64
1, 24240, Note_on_c, 0, 75, 0
1, 24240, Note_on_c, 0, 42, 0
1, 24240, Note_on_c, 0, 78, 79
1, 24240, Note_on_c, 0, 33, 89
1, 24246, Control_c, 0, 64, 0
1, 24283, Control_c, 0, 64, 127
1, 24320, Note_on_c, 0, 78, 0
1, 24320, Note_on_c, 0, 75, 65
1, 24400, Note_on_c, 0, 75, 0
1, 24400, Note_on_c, 0, 74, 66
1, 24480, Tempo, 504244
1, 24480, Note_on_c, 0, 74, 0
1, 24480, Note_on_c, 0, 33, 0
1, 24480, Note_on_c, 0, 77, 86
1, 24480, Note_on_c, 0, 27, 80
1, 24480, Note_on_c, 0, 39, 80
1, 24491, Control_c, 0, 64, 0
1, 24543, Control_c, 0, 64, 127
1, 24560, Note_on_c, 0, 77, 0
1, 24560, Note_on_c, 0, 74, 67
1, 24640, Note_on_c, 0, 74, 0
1, 24640, Note_on_c, 0, 73, 67
1, 24720, Tempo, 483910
1, 24720, Note_on_c, 0, 73, 0
1, 24720, Note_on_c, 0, 76, 78
1, 24720, Note_on_c, 0, 45, 94
1, 24720, Note_on_c, 0, 57, 94
1, 24800, Note_on_c, 0, 76, 0
1, 24800, Note_on_c, 0, 73, 67
1, 24880, Note_on_c, 0, 73, 0
1, 24880, Note_on_c, 0, 72, 67
1, 24960, Tempo, 502134
1, 24960, Note_on_c, 0, 72, 0
1, 24960, Note_on_c, 0, 75, 79
1, 25040, Note_on_c, 0, 75, 0
1, 25040, Note_on_c, 0, 72, 67
1, 25120, Note_on_c, 0, 72, 0
1, 25120, Note_on_c, 0, 71, 67
1, 25200, Note_on_c, 0, 71, 0
1, 25200, Note_on_c, 0, 57, 0
1, 25200, Note_on_c, 0, 45, 0
1, 25200, Note_on_c, 0, 70, 78
1, 25200, Note_on_c, 0, 54, 97
1, 25200, Note_on_c, 0, 66, 97
1, 25243, Control_c, 0, 64, 0
1, 25269, Control_c, 0, 64, 127
1, 25280, Note_on_c, 0, 70, 0
1, 25280, Note_on_c, 0, 71, 67
1, 25360, Note_on_c, 0, 71, 0
1, 25360, Note_on_c, 0, 69, 67
1, 25440, Tempo, 493868
1, 25440, Note_on_c, 0, 69, 0
1, 25440, Note_on_c, 0, 75, 77
1, 25520, Note_on_c, 0, 75, 0
1, 25520, Note_on_c, 0, 70, 67
1, 25600, Note_on_c, 0, 70, 0
1, 25600, Note_on_c, 0, 65, 67
1, 25680, Note_on_c, 0, 65, 0
1, 25680, Note_on_c, 0, 66, 0
1, 25680, Note_on_c, 0, 66, 66
1, 25760, Note_on_c, 0, 66, 0
1, 25760, Note_on_c, 0, 58, 60
1, 25840, Note_on_c, 0, 58, 0
1, 25840, Note_on_c, 0, 51, 60
1, 25920, Note_on_c, 0, 27, 0
1, 25920, Note_on_c, 0, 54, 0
1, 25920, Note_on_c, 0, 39, 0
1, 25920, Note_on_c, 0, 77, 64
1, 25920, Note_on_c, 0, 67, 54
1, 25920, Note_on_c, 0, 59, 64
1, 25926, Control_c, 0, 64, 0
1, 25952, Control_c, 0, 64, 127
1, 26000, Note_on_c, 0, 67, 0
1, 26000, Note_on_c, 0, 73, 45
1, 26080, Note_on_c, 0, 73, 0
1, 26080, Note_on_c, 0, 72, 45
1, 26160, Note_on_c, 0, 72, 0
1, 26160, Note_on_c, 0, 59, 0
1, 26160, Note_on_c, 0, 71, 53
1, 26160, Note_on_c, 0, 60, 64
1, 26240, Note_on_c, 0, 71, 0
1, 26240, Note_on_c, 0, 72, 47
1, 26320, Note_on_c, 0, 72, 0
1, 26320, Note_on_c, 0, 73, 47
1, 26368, Tempo, 491844
1, 26400, Note_on_c, 0, 73, 0
1, 26400, Note_on_c, 0, 60, 0
1, 26400, Note_on_c, 0, 69, 53
1, 26400, Note_on_c, 0, 61, 60
1, 26480, Note_on_c, 0, 69, 0
1, 26480, Note_on_c, 0, 70, 47
1, 26536, Tempo, 493868
1, 26560, Note_on_c, 0, 70, 0
1, 26560, Note_on_c, 0, 73, 47
1, 26640, Note_on_c, 0, 73, 0
1, 26640, Note_on_c, 0, 61, 0
1, 26640, Note_on_c, 0, 67, 53
1, 26640, Note_on_c, 0, 62, 60
1, 26704, Tempo, 495909
1, 26720, Note_on_c, 0, 67, 0
1, 26720, Note_on_c, 0, 68, 47
1, 26800, Note_on_c, 0, 68, 0
1, 26800, Note_on_c, 0, 71, 47
1, 26872, Tempo, 497967
1, 26880, Note_on_c, 0, 71, 0
1, 26880, Note_on_c, 0, 51, 0
1, 26880, Note_on_c, 0, 77, 0
1, 26880, Note_on_c, 0, 62, 0
1, 26880, Note_on_c, 0, 80, 73
1, 26880, Note_on_c, 0, 83, 77
1, 26880, Note_on_c, 0, 59, 62
1, 26880, Note_on_c, 0, 63, 52
1, 26905, Control_c, 0, 64, 0
1, 26952, Control_c, 0, 64, 127
1, 26960, Note_on_c, 0, 63, 0
1, 26960, Note_on_c, 0, 65, 48
1, 27040, Tempo, 500042
1, 27040, Note_on_c, 0, 65, 0
1, 27040, Note_on_c, 0, 67, 49
1, 27120, Note_on_c, 0, 67, 0
1, 27120, Note_on_c, 0, 80, 0
1, 27120, Note_on_c, 0, 83, 0
1, 27120, Note_on_c, 0, 75, 67
1, 27120, Note_on_c, 0, 68, 55
1, 27200, Note_on_c, 0, 68, 0
1, 27200, Note_on_c, 0, 70, 49
1, 27208, Tempo, 502134
1, 27280, Note_on_c, 0, 70, 0
1, 27280, Note_on_c, 0, 71, 49
1, 27346, Control_c, 0, 64, 0
1, 27352, Tempo, 504244
1, 27360, Note_on_c, 0, 71, 0
1, 27360, Note_on_c, 0, 75, 0
1, 27360, Note_on_c, 0, 65, 58
1, 27360, Note_on_c, 0, 74, 69
1, 27360, Note_on_c, 0, 56, 62
1, 27360, Note_on_c, 0, 51, 62
1, 27392, Control_c, 0, 64, 127
1, 27440, Note_on_c, 0, 65, 0
1, 27440, Note_on_c, 0, 71, 51
1, 27520, Note_on_c, 0, 71, 0
1, 27520, Note_on_c, 0, 70, 50
1, 27600, Note_on_c, 0, 70, 0
1, 27600, Note_on_c, 0, 56, 0
1, 27600, Note_on_c, 0, 69, 50
1, 27600, Note_on_c, 0, 58, 58
1, 27680, Note_on_c, 0, 69, 0
1, 27680, Note_on_c, 0, 70, 46
1, 27760, Note_on_c, 0, 70, 0
1, 27760, Note_on_c, 0, 71, 45
1, 27840, Tempo, 491844
1, 27840, Note_on_c, 0, 71, 0
1, 27840, Note_on_c, 0, 59, 0
1, 27840, Note_on_c, 0, 58, 0
1, 27840, Note_on_c, 0, 67, 47
1, 27840, Note_on_c, 0, 59, 55
1, 27920, Note_on_c, 0, 67, 0
1, 27920, Note_on_c, 0, 68, 42
1, 28000, Note_on_c, 0, 68, 0
1, 28000, Note_on_c, 0, 71, 41
1, 28080, Note_on_c, 0, 71, 0
1, 28080, Note_on_c, 0, 59, 0
1, 28080, Note_on_c, 0, 64, 45
1, 28080, Note_on_c, 0, 62, 52
1, 28160, Note_on_c, 0, 64, 0
1, 28160, Note_on_c, 0, 65, 39
1, 28240, Note_on_c, 0, 65, 0
1, 28240, Note_on_c, 0, 68, 38
1, 28320, Note_on_c, 0, 62, 0
1, 28320, Note_on_c, 0, 51, 0
1, 28320, Note_on_c, 0, 74, 0
1, 28320, Note_on_c, 0, 75, 65
1, 28320, Note_on_c, 0, 59, 49
1, 28320, Note_on_c, 0, 63, 49
1, 28335, Control_c, 0, 64, 0
1, 28363, Control_c, 0, 64, 127
1, 28400, Note_on_c, 0, 63, 0
1, 28400, Note_on_c, 0, 64, 48
1, 28480, Note_on_c, 0, 64, 0
1, 28480, Note_on_c, 0, 65, 47
1, 28560, Note_on_c, 0, 65, 0
1, 28560, Note_on_c, 0, 68, 0
1, 28560, Note_on_c, 0, 69, 40
1, 28560, Note_on_c, 0, 66, 46
1, 28640, Note_on_c, 0, 66, 0
1, 28640, Note_on_c, 0, 68, 45
1, 28720, Note_on_c, 0, 68, 0
1, 28720, Note_on_c, 0, 69, 44
1, 28800, Note_on_c, 0, 69, 0
1, 28800, Note_on_c, 0, 75, 0
1, 28800, Note_on_c, 0, 59, 0
1, 28800, Note_on_c, 0, 69, 0
1, 28800, Note_on_c, 0, 70, 45
1, 28800, Note_on_c, 0, 58, 39
1, 28800, Note_on_c, 0, 63, 39
1, 28800, Note_on_c, 0, 66, 46
1, 28803, Control_c, 0, 64, 0
1, 28837, Control_c, 0, 64, 127
1, 28880, Note_on_c, 0, 70, 0
1, 28880, Note_on_c, 0, 67, 41
1, 28960, Note_on_c, 0, 67, 0
1, 28960, Note_on_c, 0, 68, 41
1, 29040, Note_on_c, 0, 68, 0
1, 29040, Note_on_c, 0, 58, 0
1, 29040, Note_on_c, 0, 63, 0
1, 29040, Note_on_c, 0, 66, 0
1, 29040, Note_on_c, 0, 69, 45
1, 29120, Note_on_c, 0, 69, 0
1, 29120, Note_on_c, 0, 70, 42
1, 29200, Note_on_c, 0, 70, 0
1, 29200, Note_on_c, 0, 71, 42
1, 29280, Tempo, 531020
1, 29280, Note_on_c, 0, 71, 0
1, 29280, Note_on_c, 0, 75, 55
1, 29280, Note_on_c, 0, 72, 45
1, 29280, Note_on_c, 0, 67, 38
1, 29280, Note_on_c, 0, 63, 38
1, 29289, Control_c, 0, 64, 0
1, 29360, Note_on_c, 0, 73, 45
1, 29400, Note_on_c, 0, 63, 0
1, 29400, Note_on_c, 0, 67, 0
1, 29400, Note_on_c, 0, 75, 0
1, 29400, Note_on_c, 0, 72, 0
1, 29440, Note_on_c, 0, 73, 0
1, 29440, Note_on_c, 0, 74, 45
1, 29520, Tempo, 491844
1, 29520, Note_on_c, 0, 74, 0
1, 29520, Note_on_c, 0, 75, 45
1, 29520, Note_on_c, 0, 77, 63
1, 29520, Note_on_c, 0, 71, 45
1, 29520, Note_on_c, 0, 68, 38
1, 29520, Note_on_c, 0, 63, 38
1, 29520, Note_on_c, 0, 58, 38
1, 29600, Note_on_c, 0, 75, 0
1, 29600, Note_on_c, 0, 69, 45
1, 29640, Note_on_c, 0, 71, 0
1, 29640, Note_on_c, 0, 63, 0
1, 29640, Note_on_c, 0, 68, 0
1, 29640, Note_on_c, 0, 77, 0
1, 29640, Note_on_c, 0, 58, 0
1, 29680, Note_on_c, 0, 69, 0
1, 29680, Note_on_c, 0, 70, 45
1, 29760, Tempo, 493868
1, 29760, Note_on_c, 0, 70, 0
1, 29760, Note_on_c, 0, 71, 45
1, 29789, Control_c, 0, 64, 127
1, 29840, Note_on_c, 0, 71, 0
1, 29840, Note_on_c, 0, 72, 42
1, 29920, Note_on_c, 0, 72, 0
1, 29920, Note_on_c, 0, 73, 42
1, 30000, Tempo, 515066
1, 30000, Note_on_c, 0, 73, 0
1, 30000, Note_on_c, 0, 79, 55
1, 30000, Note_on_c, 0, 72, 45
1, 30000, Note_on_c, 0, 67, 38
1, 30000, Note_on_c, 0, 64, 38
1, 30015, Control_c, 0, 64, 0
1, 30080, Note_on_c, 0, 73, 41
1, 30120, Note_on_c, 0, 64, 0
1, 30120, Note_on_c, 0, 67, 0
1, 30120, Note_on_c, 0, 79, 0
1, 30120, Note_on_c, 0, 72, 0
1, 30160, Note_on_c, 0, 73, 0
1, 30160, Note_on_c, 0, 74, 41
1, 30240, Tempo, 493868
1, 30240, Note_on_c, 0, 74, 0
1, 30240, Note_on_c, 0, 75, 45
1, 30240, Note_on_c, 0, 80, 64
1, 30240, Note_on_c, 0, 71, 47
1, 30240, Note_on_c, 0, 68, 39
1, 30240, Note_on_c, 0, 63, 39
1, 30240, Note_on_c, 0, 58, 39
1, 30320, Note_on_c, 0, 75, 0
1, 30320, Note_on_c, 0, 71, 45
1, 30360, Note_on_c, 0, 71, 0
1, 30360, Note_on_c, 0, 63, 0
1, 30360, Note_on_c, 0, 68, 0
1, 30360, Note_on_c, 0, 80, 0
1, 30360, Note_on_c, 0, 58, 0
1, 30400, Note_on_c, 0, 71, 0
1, 30400, Note_on_c, 0, 73, 45
1, 30480, Tempo, 502134
1, 30480, Note_on_c, 0, 73, 0
1, 30480, Note_on_c, 0, 75, 45
1, 30523, Control_c, 0, 64, 127
1, 30560, Note_on_c, 0, 75, 0
1, 30560, Note_on_c, 0, 76, 42
1, 30640, Note_on_c, 0, 76, 0
1, 30640, Note_on_c, 0, 77, 42
1, 30720, Tempo, 508518
1, 30720, Note_on_c, 0, 77, 0
1, 30720, Note_on_c, 0, 78, 45
1, 30720, Note_on_c, 0, 81, 55
1, 30720, Note_on_c, 0, 63, 34
1, 30720, Note_on_c, 0, 69, 34
1, 30720, Note_on_c, 0, 72, 41
1, 30728, Control_c, 0, 64, 0
1, 30800, Note_on_c, 0, 78, 0
1, 30800, Note_on_c, 0, 77, 42
1, 30810, Note_on_c, 0, 69, 0
1, 30810, Note_on_c, 0, 72, 0
1, 30810, Note_on_c, 0, 81, 0
1, 30810, Note_on_c, 0, 63, 0
1, 30880, Note_on_c, 0, 77, 0
1, 30880, Note_on_c, 0, 78, 42
1, 30915, Control_c, 0, 64, 127
1, 30960, Tempo, 519526
1, 30960, Note_on_c, 0, 82, 61
1, 30960, Note_on_c, 0, 58, 39
1, 30960, Note_on_c, 0, 63, 39
1, 30960, Note_on_c, 0, 67, 39
1, 30960, Note_on_c, 0, 70, 46
1, 30989, Control_c, 0, 64, 0
1, 31040, Note_on_c, 0, 78, 0
1, 31040, Note_on_c, 0, 77, 42
1, 31050, Note_on_c, 0, 58, 0
1, 31050, Note_on_c, 0, 67, 0
1, 31050, Note_on_c, 0, 63, 0
1, 31050, Note_on_c, 0, 82, 0
1, 31050, Note_on_c, 0, 70, 0
1, 31103, Control_c, 0, 64, 127
1, 31120, Note_on_c, 0, 77, 0
1, 31120, Note_on_c, 0, 78, 41
1, 31200, Tempo, 538165
1, 31200, Note_on_c, 0, 78, 0
1, 31200, Note_on_c, 0, 79, 45
1, 31200, Note_on_c, 0, 84, 58
1, 31200, Note_on_c, 0, 63, 36
1, 31200, Note_on_c, 0, 69, 36
1, 31200, Note_on_c, 0, 72, 43
1, 31206, Control_c, 0, 64, 0
1, 31280, Note_on_c, 0, 79, 0
1, 31280, Note_on_c, 0, 80, 42
1, 31290, Note_on_c, 0, 69, 0
1, 31290, Note_on_c, 0, 72, 0
1, 31290, Note_on_c, 0, 84, 0
1, 31290, Note_on_c, 0, 63, 0
1, 31335, Control_c, 0, 64, 127
1, 31360, Note_on_c, 0, 80, 0
1, 31360, Note_on_c, 0, 81, 42
1, 31440, Tempo, 588293
1, 31440, Note_on_c, 0, 81, 0
1, 31440, Note_on_c, 0, 82, 45
1, 31440, Note_on_c, 0, 86, 60
1, 31440, Note_on_c, 0, 58, 39
1, 31440, Note_on_c, 0, 62, 39
1, 31440, Note_on_c, 0, 70, 46
1, 31449, Control_c, 0, 64, 0
1, 31520, Note_on_c, 0, 82, 0
1, 31520, Note_on_c, 0, 80, 40
1, 31530, Note_on_c, 0, 62, 0
1, 31530, Note_on_c, 0, 70, 0
1, 31530, Note_on_c, 0, 86, 0
1, 31530, Note_on_c, 0, 58, 0
1, 31586, Control_c, 0, 64, 127
1, 31600, Note_on_c, 0, 80, 0
1, 31600, Note_on_c, 0, 78, 40
1, 31680, Tempo, 727361
1, 31680, Note_on_c, 0, 87, 66
1, 31680, Note_on_c, 0, 75, 52
1, 31680, Note_on_c, 0, 70, 44
1, 31680, Note_on_c, 0, 63, 44
1, 31680, Control_c, 0, 64, 0
1, 31920, Tempo, 500042
1, 31920, Note_on_c, 0, 63, 0
1, 31920, Note_on_c, 0, 75, 0
1, 31920, Note_on_c, 0, 78, 0
1, 31920, Note_on_c, 0, 87, 0
1, 31920, Note_on_c, 0, 70, 0
1, 31920, Note_on_c, 0, 83, 49
1, 31920, Note_on_c, 0, 87, 49
1, 31923, Tempo, 489836
1, 31955, Control_c, 0, 64, 127
1, 31980, Note_on_c, 0, 87, 0
1, 32000, Note_on_c, 0, 83, 0
1, 32000, Note_on_c, 0, 79, 43
1, 32040, Note_on_c, 0, 75, 41
1, 32080, Note_on_c, 0, 79, 0
1, 32080, Note_on_c, 0, 74, 43
1, 32091, Tempo, 491844
1, 32100, Note_on_c, 0, 75, 0
1, 32160, Note_on_c, 0, 74, 0
1, 32160, Note_on_c, 0, 82, 49
1, 32160, Note_on_c, 0, 87, 49
1, 32220, Note_on_c, 0, 87, 0
1, 32235, Tempo, 493868
1, 32240, Note_on_c, 0, 82, 0
1, 32240, Note_on_c, 0, 78, 42
1, 32280, Note_on_c, 0, 75, 42
1, 32320, Note_on_c, 0, 78, 0
1, 32320, Note_on_c, 0, 73, 42
1, 32340, Note_on_c, 0, 75, 0
1, 32379, Tempo, 495909
1, 32400, Note_on_c, 0, 73, 0
1, 32400, Note_on_c, 0, 81, 49
1, 32400, Note_on_c, 0, 87, 49
1, 32460, Note_on_c, 0, 87, 0
1, 32480, Note_on_c, 0, 81, 0
1, 32480, Note_on_c, 0, 77, 43
1, 32520, Note_on_c, 0, 75, 41
1, 32523, Tempo, 497967
1, 32560, Note_on_c, 0, 77, 0
1, 32560, Note_on_c, 0, 72, 43
1, 32580, Note_on_c, 0, 75, 0
1, 32640, Note_on_c, 0, 72, 0
1, 32640, Note_on_c, 0, 80, 49
1, 32640, Note_on_c, 0, 87, 49
1, 32667, Tempo, 500042
1, 32700, Note_on_c, 0, 87, 0
1, 32720, Note_on_c, 0, 80, 0
1, 32720, Note_on_c, 0, 76, 42
1, 32760, Note_on_c, 0, 75, 40
1, 32800, Note_on_c, 0, 76, 0
1, 32800, Note_on_c, 0, 71, 42
1, 32811, Tempo, 502134
1, 32820, Note_on_c, 0, 75, 0
1, 32880, Note_on_c, 0, 71, 0
1, 32880, Note_on_c, 0, 79, 49
1, 32880, Note_on_c, 0, 87, 49
1, 32940, Note_on_c, 0, 87, 0
1, 32955, Tempo, 504244
1, 32960, Note_on_c, 0, 79, 0
1, 32960, Note_on_c, 0, 71, 43
1, 33000, Note_on_c, 0, 75, 42
1, 33040, Note_on_c, 0, 71, 0
1, 33040, Note_on_c, 0, 69, 43
1, 33060, Note_on_c, 0, 75, 0
1, 33120, Tempo, 508518
1, 33120, Note_on_c, 0, 69, 0
1, 33120, Note_on_c, 0, 78, 49
1, 33120, Note_on_c, 0, 87, 49
1, 33180, Note_on_c, 0, 87, 0
1, 33200, Note_on_c, 0, 78, 0
1, 33200, Note_on_c, 0, 73, 42
1, 33240, Note_on_c, 0, 75, 41
1, 33280, Tempo, 574218
1, 33280, Note_on_c, 0, 73, 0
1, 33280, Note_on_c, 0, 66, 42
1, 33300, Note_on_c, 0, 75, 0
1, 33353, Tempo, 493868
1, 33360, Note_on_c, 0, 66, 0
1, 33360, Note_on_c, 0, 71, 49
1, 33360, Note_on_c, 0, 75, 49
1, 33377, Control_c, 0, 64, 0
1, 33417, Control_c, 0, 64, 127
1, 33420, Note_on_c, 0, 75, 0
1, 33440, Note_on_c, 0, 71, 0
1, 33440, Note_on_c, 0, 67, 44
1, 33473, Tempo, 495909
1, 33480, Note_on_c, 0, 63, 40
1, 33520, Note_on_c, 0, 67, 0
1, 33520, Note_on_c, 0, 62, 44
1, 33540, Note_on_c, 0, 63, 0
1, 33593, Tempo, 497967
1, 33600, Note_on_c, 0, 62, 0
1, 33600, Note_on_c, 0, 70, 49
1, 33600, Note_on_c, 0, 75, 49
1, 33660, Note_on_c, 0, 75, 0
1, 33680, Note_on_c, 0, 70, 0
1, 33680, Note_on_c, 0, 66, 42
1, 33713, Tempo, 500042
1, 33720, Note_on_c, 0, 63, 42
1, 33760, Note_on_c, 0, 66, 0
1, 33760, Note_on_c, 0, 61, 42
1, 33780, Note_on_c, 0, 63, 0
1, 33833, Tempo, 502134
1, 33840, Note_on_c, 0, 61, 0
1, 33840, Note_on_c, 0, 69, 49
1, 33840, Note_on_c, 0, 75, 49
1, 33900, Note_on_c, 0, 75, 0
1, 33920, Note_on_c, 0, 69, 0
1, 33920, Note_on_c, 0, 65, 40
1, 33938, Tempo, 504244
1, 33960, Note_on_c, 0, 63, 42
1, 34000, Note_on_c, 0, 65, 0
1, 34000, Note_on_c, 0, 60, 40
1, 34020, Note_on_c, 0, 63, 0
1, 34058, Tempo, 506372
1, 34080, Note_on_c, 0, 60, 0
1, 34080, Note_on_c, 0, 68, 50
1, 34080, Note_on_c, 0, 75, 49
1, 34140, Note_on_c, 0, 75, 0
1, 34160, Note_on_c, 0, 68, 0
1, 34160, Note_on_c, 0, 64, 44
1, 34178, Tempo, 508518
1, 34200, Note_on_c, 0, 63, 44
1, 34240, Note_on_c, 0, 64, 0
1, 34240, Note_on_c, 0, 59, 44
1, 34260, Note_on_c, 0, 63, 0
1, 34298, Tempo, 510682
1, 34320, Note_on_c, 0, 59, 0
1, 34320, Note_on_c, 0, 67, 50
1, 34320, Note_on_c, 0, 75, 49
1, 34380, Note_on_c, 0, 75, 0
1, 34400, Note_on_c, 0, 67, 0
1, 34400, Note_on_c, 0, 59, 43
1, 34418, Tempo, 512864
1, 34440, Note_on_c, 0, 63, 43
1, 34480, Note_on_c, 0, 59, 0
1, 34480, Note_on_c, 0, 57, 43
1, 34500, Note_on_c, 0, 63, 0
1, 34523, Tempo, 515066
1, 34560, Note_on_c, 0, 57, 0
1, 34560, Note_on_c, 0, 66, 50
1, 34560, Note_on_c, 0, 75, 49
1, 34620, Note_on_c, 0, 75, 0
1, 34640, Note_on_c, 0, 66, 0
1, 34640, Note_on_c, 0, 58, 42
1, 34680, Note_on_c, 0, 63, 41
1, 34720, Tempo, 659413
1, 34720, Note_on_c, 0, 58, 0
1, 34720, Note_on_c, 0, 51, 44
1, 34740, Note_on_c, 0, 63, 0
1, 34800, Tempo, 543036
1, 34800, Note_on_c, 0, 51, 0
1, 34800, Note_on_c, 0, 63, 73
1, 35040, Tempo, 487845
1, 35040, Note_on_c, 0, 63, 0
1, 35040, Note_on_c, 0, 67, 50
1, 35040, Note_on_c, 0, 75, 48
1, 35054, Control_c, 0, 64, 0
1, 35083, Control_c, 0, 64, 127
1, 35100, Note_on_c, 0, 75, 0
1, 35120, Note_on_c, 0, 67, 0
1, 35120, Note_on_c, 0, 59, 43
1, 35160, Note_on_c, 0, 63, 43
1, 35200, Note_on_c, 0, 59, 0
1, 35200, Note_on_c, 0, 57, 43
1, 35220, Note_on_c, 0, 63, 0
1, 35280, Tempo, 504244
1, 35280, Note_on_c, 0, 57, 0
1, 35280, Note_on_c, 0, 66, 50
1, 35280, Note_on_c, 0, 75, 48
1, 35340, Note_on_c, 0, 75, 0
1, 35360, Note_on_c, 0, 66, 0
1, 35360, Note_on_c, 0, 58, 46
1, 35400, Note_on_c, 0, 63, 41
1, 35440, Tempo, 666741
1, 35440, Note_on_c, 0, 58, 0
1, 35440, Note_on_c, 0, 51, 46
1, 35460, Note_on_c, 0, 63, 0
1, 35520, Tempo, 531020
1, 35520, Note_on_c, 0, 51, 0
1, 35520, Note_on_c, 0, 63, 71
1, 35760, Tempo, 489836
1, 35760, Note_on_c, 0, 63, 0
1, 35760, Note_on_c, 0, 67, 50
1, 35760, Note_on_c, 0, 75, 49
1, 35768, Control_c, 0, 64, 0
1, 35820, Note_on_c, 0, 75, 0
1, 35820, Control_c, 0, 64, 127
1, 35840, Note_on_c, 0, 67, 0
1, 35840, Note_on_c, 0, 59, 46
1, 35880, Note_on_c, 0, 63, 42
1, 35920, Note_on_c, 0, 59, 0
1, 35920, Note_on_c, 0, 57, 46
1, 35940, Note_on_c, 0, 63, 0
1, 36000, Tempo, 515066
1, 36000, Note_on_c, 0, 57, 0
1, 36000, Note_on_c, 0, 66, 50
1, 36000, Note_on_c, 0, 75, 49
1, 36060, Note_on_c, 0, 75, 0
1, 36080, Note_on_c, 0, 66, 0
1, 36080, Note_on_c, 0, 58, 46
1, 36120, Note_on_c, 0, 63, 42
1, 36160, Tempo, 794597
1, 36160, Note_on_c, 0, 58, 0
1, 36160, Note_on_c, 0, 51, 47
1, 36180, Note_on_c, 0, 63, 0
1, 36240, Tempo, 547895
1, 36240, Note_on_c, 0, 51, 0
1, 36240, Note_on_c, 0, 63, 100
1, 36240, Note_on_c, 0, 39, 67
1, 36240, Note_on_c, 0, 51, 80
1, 36249, Control_c, 0, 64, 0
1, 36480, Tempo, 560695
1, 36480, Note_on_c, 0, 51, 0
1, 36480, Note_on_c, 0, 39, 0
1, 36480, Note_on_c, 0, 59, 86
1, 36480, Note_on_c, 0, 47, 73
1, 36480, Note_on_c, 0, 35, 62
1, 36720, Tempo, 582468
1, 36720, Note_on_c, 0, 35, 0
1, 36720, Note_on_c, 0, 47, 0
1, 36720, Note_on_c, 0, 59, 0
1, 36720, Note_on_c, 0, 56, 97
1, 36720, Note_on_c, 0, 32, 67
1, 36720, Note_on_c, 0, 44, 80
1, 36951, Tempo, 599940
1, 36960, Note_on_c, 0, 44, 0
1, 36960, Note_on_c, 0, 63, 0
1, 36960, Note_on_c, 0, 56, 0
1, 36960, Note_on_c, 0, 32, 0
1, 36960, Note_on_c, 0, 53, 80
1, 36960, Note_on_c, 0, 41, 79
1, 36960, Note_on_c, 0, 29, 66
1, 36971, Tempo, 596956
1, 37009, Tempo, 599940
1, 37028, Tempo, 602954
1, 37047, Tempo, 605999
1, 37067, Tempo, 609075
1, 37080, Note_on_c, 0, 29, 0
1, 37080, Note_on_c, 0, 41, 0
1, 37080, Note_on_c, 0, 53, 0
1, 37080, Note_on_c, 0, 51, 86
1, 37080, Note_on_c, 0, 39, 82
1, 37080, Note_on_c, 0, 27, 70
1, 37105, Tempo, 612182
1, 37124, Tempo, 615322
1, 37143, Tempo, 618493
1, 37163, Tempo, 621697
1, 37182, Tempo, 624935
1, 37200, Note_on_c, 0, 27, 0
1, 37200, Note_on_c, 0, 39, 0
1, 37200, Note_on_c, 0, 51, 0
1, 37200, Note_on_c, 0, 50, 90
1, 37200, Note_on_c, 0, 38, 88
1, 37200, Note_on_c, 0, 26, 74
1, 37220, Tempo, 628206
1, 37239, Tempo, 631512
1, 37259, Tempo, 634853
1, 37278, Tempo, 638230
1, 37297, Tempo, 641643
1, 37316, Tempo, 655666
1, 37320, Note_on_c, 0, 26, 0
1, 37320, Note_on_c, 0, 38, 0
1, 37320, Note_on_c, 0, 50, 0
1, 37320, Note_on_c, 0, 48, 93
1, 37320, Note_on_c, 0, 36, 90
1, 37320, Note_on_c, 0, 24, 77
1, 37360, Tempo, 685793
1, 37440, Tempo, 555607
1, 37440, Note_on_c, 0, 24, 0
1, 37440, Note_on_c, 0, 36, 0
1, 37440, Note_on_c, 0, 48, 0
1, 37440, Note_on_c, 0, 46, 98
1, 37440, Note_on_c, 0, 34, 95
1, 37440, Note_on_c, 0, 22, 80
1, 37680, Tempo, 504244
1, 37680, Note_on_c, 0, 46, 0
1, 37680, Note_on_c, 0, 38, 63
1, 37706, Tempo, 510682
1, 37723, Control_c, 0, 64, 127
1, 37760, Note_on_c, 0, 38, 0
1, 37760, Note_on_c, 0, 44, 64
1, 37782, Tempo, 508518
1, 37840, Tempo, 506372
1, 37840, Note_on_c, 0, 44, 0
1, 37840, Note_on_c, 0, 46, 65
1, 37917, Tempo, 504244
1, 37920, Note_on_c, 0, 46, 0
1, 37920, Note_on_c, 0, 50, 67
1, 37974, Tempo, 502134
1, 38000, Note_on_c, 0, 50, 0
1, 38000, Note_on_c, 0, 56, 68
1, 38032, Tempo, 500042
1, 38080, Note_on_c, 0, 56, 0
1, 38080, Note_on_c, 0, 58, 73
1, 38160, Note_on_c, 0, 58, 0
1, 38160, Note_on_c, 0, 22, 0
1, 38160, Note_on_c, 0, 34, 0
1, 38160, Note_on_c, 0, 63, 80
1, 38160, Note_on_c, 0, 51, 80
1, 38160, Note_on_c, 0, 44, 73
1, 38160, Note_on_c, 0, 35, 49
1, 38160, Note_on_c, 0, 39, 49
1, 38160, Note_on_c, 0, 47, 62
1, 38240, Note_on_c, 0, 51, 0
1, 38240, Note_on_c, 0, 63, 0
1, 38240, Note_on_c, 0, 56, 76
1, 38320, Note_on_c, 0, 56, 0
1, 38320, Note_on_c, 0, 55, 69
1, 38358, Tempo, 497967
1, 38400, Note_on_c, 0, 55, 0
1, 38400, Note_on_c, 0, 44, 0
1, 38400, Note_on_c, 0, 54, 65
1, 38400, Note_on_c, 0, 43, 69
1, 38435, Tempo, 500042
1, 38480, Note_on_c, 0, 54, 0
1, 38480, Note_on_c, 0, 53, 63
1, 38493, Tempo, 502134
1, 38550, Tempo, 504244
1, 38560, Note_on_c, 0, 53, 0
1, 38560, Note_on_c, 0, 52, 65
1, 38627, Tempo, 506372
1, 38640, Note_on_c, 0, 52, 0
1, 38640, Note_on_c, 0, 43, 0
1, 38640, Note_on_c, 0, 51, 64
1, 38640, Note_on_c, 0, 42, 62
1, 38685, Tempo, 508518
1, 38720, Note_on_c, 0, 51, 0
1, 38720, Note_on_c, 0, 46, 62
1, 38742, Tempo, 510682
1, 38800, Tempo, 538165
1, 38800, Note_on_c, 0, 46, 0
1, 38800, Note_on_c, 0, 44, 61
1, 38880, Tempo, 497967
1, 38880, Note_on_c, 0, 44, 0
1, 38880, Note_on_c, 0, 47, 0
1, 38880, Note_on_c, 0, 35, 0
1, 38880, Note_on_c, 0, 39, 0
1, 38880, Note_on_c, 0, 42, 0
1, 38880, Note_on_c, 0, 43, 61
1, 38880, Note_on_c, 0, 25, 87
1, 38880, Note_on_c, 0, 37, 95
1, 38886, Control_c, 0, 64, 0
1, 38960, Note_on_c, 0, 43, 0
1, 38960, Note_on_c, 0, 42, 58
1, 39040, Note_on_c, 0, 42, 0
1, 39040, Note_on_c, 0, 41, 59
1, 39120, Tempo, 504244
1, 39120, Note_on_c, 0, 41, 0
1, 39146, Tempo, 510682
1, 39200, Note_on_c, 0, 47, 64
1, 39222, Tempo, 508518
1, 39223, Control_c, 0, 64, 127
1, 39280, Tempo, 506372
1, 39280, Note_on_c, 0, 47, 0
1, 39280, Note_on_c, 0, 49, 65
1, 39357, Tempo, 504244
1, 39360, Note_on_c, 0, 49, 0
1, 39360, Note_on_c, 0, 53, 67
1, 39414, Tempo, 502134
1, 39440, Note_on_c, 0, 53, 0
1, 39440, Note_on_c, 0, 59, 68
1, 39472, Tempo, 500042
1, 39520, Note_on_c, 0, 59, 0
1, 39520, Note_on_c, 0, 61, 73
1, 39600, Note_on_c, 0, 61, 0
1, 39600, Note_on_c, 0, 37, 0
1, 39600, Note_on_c, 0, 25, 0
1, 39600, Note_on_c, 0, 66, 80
1, 39600, Note_on_c, 0, 54, 80
1, 39600, Note_on_c, 0, 47, 73
1, 39600, Note_on_c, 0, 38, 62
1, 39600, Note_on_c, 0, 42, 62
1, 39600, Note_on_c, 0, 50, 62
1, 39680, Note_on_c, 0, 54, 0
1, 39680, Note_on_c, 0, 66, 0
1, 39680, Note_on_c, 0, 61, 77
1, 39760, Note_on_c, 0, 61, 0
1, 39760, Note_on_c, 0, 59, 74
1, 39798, Tempo, 497967
1, 39840, Note_on_c, 0, 59, 0
1, 39840, Note_on_c, 0, 47, 0
1, 39840, Note_on_c, 0, 57, 73
1, 39840, Note_on_c, 0, 45, 69
1, 39875, Tempo, 500042
1, 39920, Note_on_c, 0, 57, 0
1, 39920, Note_on_c, 0, 56, 72
1, 39933, Tempo, 502134
1, 39990, Tempo, 504244
1, 40000, Note_on_c, 0, 56, 0
1, 40000, Note_on_c, 0, 55, 72
1, 40067, Tempo, 506372
1, 40080, Note_on_c, 0, 55, 0
1, 40080, Note_on_c, 0, 45, 0
1, 40080, Note_on_c, 0, 54, 71
1, 40080, Note_on_c, 0, 44, 62
1, 40125, Tempo, 508518
1, 40160, Note_on_c, 0, 54, 0
1, 40160, Note_on_c, 0, 53, 70
1, 40182, Tempo, 510682
1, 40240, Tempo, 538165
1, 40240, Note_on_c, 0, 53, 0
1, 40240, Note_on_c, 0, 52, 70
1, 40320, Tempo, 497967
1, 40320, Note_on_c, 0, 52, 0
1, 40320, Note_on_c, 0, 50, 0
1, 40320, Note_on_c, 0, 38, 0
1, 40320, Note_on_c, 0, 42, 0
1, 40320, Note_on_c, 0, 44, 0
1, 40320, Note_on_c, 0, 43, 76
1, 40320, Note_on_c, 0, 39, 76
1, 40320, Note_on_c, 0, 51, 83
1, 40331, Control_c, 0, 64, 0
1, 40400, Tempo, 510682
1, 40422, Tempo, 508518
1, 40480, Tempo, 506372
1, 40480, Note_on_c, 0, 54, 61
1, 40557, Tempo, 504244
1, 40560, Note_on_c, 0, 54, 0
1, 40560, Note_on_c, 0, 55, 61
1, 40603, Control_c, 0, 64, 127
1, 40614, Tempo, 502134
1, 40640, Note_on_c, 0, 55, 0
1, 40640, Note_on_c, 0, 61, 61
1, 40672, Tempo, 500042
1, 40720, Note_on_c, 0, 61, 0
1, 40720, Note_on_c, 0, 63, 64
1, 40800, Note_on_c, 0, 63, 0
1, 40800, Note_on_c, 0, 67, 67
1, 40800, Note_on_c, 0, 55, 68
1, 40800, Note_on_c, 0, 51, 62
1, 40800, Note_on_c, 0, 63, 87
1, 40880, Note_on_c, 0, 67, 0
1, 40880, Note_on_c, 0, 73, 70
1, 40960, Tempo, 543036
1, 40960, Note_on_c, 0, 73, 0
1, 40960, Note_on_c, 0, 75, 75
1, 41040, Note_on_c, 0, 75, 0
1, 41040, Note_on_c, 0, 51, 0
1, 41040, Note_on_c, 0, 39, 0
1, 41040, Note_on_c, 0, 51, 0
1, 41040, Note_on_c, 0, 43, 0
1, 41040, Note_on_c, 0, 63, 0
1, 41040, Note_on_c, 0, 55, 0
1, 41040, Note_on_c, 0, 80, 80
1, 41040, Note_on_c, 0, 68, 80
1, 41040, Note_on_c, 0, 52, 52
1, 41040, Note_on_c, 0, 61, 72
1, 41040, Note_on_c, 0, 64, 92
1, 41040, Note_on_c, 0, 56, 55
1, 41075, Tempo, 500042
1, 41104, Tempo, 495909
1, 41120, Note_on_c, 0, 68, 0
1, 41120, Note_on_c, 0, 80, 0
1, 41120, Note_on_c, 0, 73, 77
1, 41162, Tempo, 497967
1, 41200, Tempo, 500042
1, 41200, Note_on_c, 0, 73, 0
1, 41200, Note_on_c, 0, 72, 71
1, 41238, Tempo, 502134
1, 41280, Note_on_c, 0, 72, 0
1, 41280, Note_on_c, 0, 56, 0
1, 41280, Note_on_c, 0, 71, 73
1, 41280, Note_on_c, 0, 57, 62
1, 41296, Tempo, 504244
1, 41334, Tempo, 506372
1, 41360, Note_on_c, 0, 71, 0
1, 41360, Note_on_c, 0, 70, 72
1, 41373, Tempo, 508518
1, 41430, Tempo, 510682
1, 41440, Note_on_c, 0, 70, 0
1, 41440, Note_on_c, 0, 69, 72
1, 41469, Tempo, 512864
1, 41507, Tempo, 515066
1, 41520, Note_on_c, 0, 69, 0
1, 41520, Note_on_c, 0, 57, 0
1, 41520, Note_on_c, 0, 68, 71
1, 41520, Note_on_c, 0, 58, 62
1, 41565, Tempo, 517286
1, 41600, Note_on_c, 0, 68, 0
1, 41600, Note_on_c, 0, 67, 70
1, 41603, Tempo, 519526
1, 41642, Tempo, 521785
1, 41680, Tempo, 563433
1, 41680, Note_on_c, 0, 67, 0
1, 41680, Note_on_c, 0, 66, 70
1, 41760, Tempo, 504244
1, 41760, Note_on_c, 0, 66, 0
1, 41760, Note_on_c, 0, 52, 0
1, 41760, Note_on_c, 0, 61, 0
1, 41760, Note_on_c, 0, 64, 0
1, 41760, Note_on_c, 0, 58, 0
1, 41760, Note_on_c, 0, 53, 76
1, 41760, Note_on_c, 0, 57, 76
1, 41760, Note_on_c, 0, 63, 76
1, 41760, Note_on_c, 0, 60, 76
1, 41760, Note_on_c, 0, 65, 83
1, 41775, Control_c, 0, 64, 0
1, 41840, Tempo, 502134
1, 41840, Note_on_c, 0, 69, 68
1, 41849, Control_c, 0, 64, 127
1, 41920, Tempo, 500042
1, 41920, Note_on_c, 0, 69, 0
1, 41920, Note_on_c, 0, 75, 70
1, 42000, Note_on_c, 0, 75, 0
1, 42000, Note_on_c, 0, 77, 72
1, 42080, Tempo, 497967
1, 42080, Note_on_c, 0, 77, 0
1, 42080, Note_on_c, 0, 81, 73
1, 42160, Tempo, 493868
1, 42160, Note_on_c, 0, 81, 0
1, 42160, Note_on_c, 0, 87, 78
1, 42240, Note_on_c, 0, 87, 0
1, 42240, Note_on_c, 0, 57, 0
1, 42240, Note_on_c, 0, 63, 0
1, 42240, Note_on_c, 0, 53, 0
1, 42240, Note_on_c, 0, 65, 0
1, 42240, Note_on_c, 0, 60, 0
1, 42240, Note_on_c, 0, 93, 81
1, 42240, Note_on_c, 0, 81, 81
1, 42240, Note_on_c, 0, 65, 62
1, 42240, Note_on_c, 0, 69, 62
1, 42240, Note_on_c, 0, 72, 73
1, 42240, Note_on_c, 0, 77, 87
1, 42240, Note_on_c, 0, 75, 73
1, 42320, Tempo, 491844
1, 42320, Note_on_c, 0, 81, 0
1, 42320, Note_on_c, 0, 93, 0
1, 42320, Note_on_c, 0, 89, 84
1, 42400, Tempo, 489836
1, 42400, Note_on_c, 0, 89, 0
1, 42400, Note_on_c, 0, 87, 86
1, 42480, Note_on_c, 0, 87, 0
1, 42480, Note_on_c, 0, 65, 0
1, 42480, Note_on_c, 0, 72, 0
1, 42480, Note_on_c, 0, 69, 0
1, 42480, Note_on_c, 0, 75, 0
1, 42480, Note_on_c, 0, 77, 0
1, 42480, Note_on_c, 0, 94, 85
1, 42480, Note_on_c, 0, 82, 85
1, 42480, Note_on_c, 0, 66, 66
1, 42480, Note_on_c, 0, 70, 66
1, 42480, Note_on_c, 0, 72, 78
1, 42480, Note_on_c, 0, 75, 78
1, 42480, Note_on_c, 0, 78, 92
1, 42504, Control_c, 0, 64, 0
1, 42560, Note_on_c, 0, 82, 0
1, 42560, Note_on_c, 0, 94, 0
1, 42560, Note_on_c, 0, 89, 78
1, 42575, Control_c, 0, 64, 127
1, 42640, Note_on_c, 0, 89, 0
1, 42640, Note_on_c, 0, 87, 81
1, 42720, Tempo, 489836
1, 42720, Note_on_c, 0, 87, 0
1, 42720, Note_on_c, 0, 73, 81
1, 42800, Note_on_c, 0, 73, 0
1, 42800, Note_on_c, 0, 84, 81
1, 42880, Note_on_c, 0, 84, 0
1, 42880, Note_on_c, 0, 87, 81
1, 42960, Tempo, 493868
1, 42960, Note_on_c, 0, 87, 0
1, 42960, Note_on_c, 0, 94, 80
1, 43040, Note_on_c, 0, 94, 0
1, 43040, Note_on_c, 0, 96, 80
1, 43120, Tempo, 547995
1, 43120, Note_on_c, 0, 96, 0
1, 43120, Note_on_c, 0, 99, 79
1, 43200, Tempo, 504244
1, 43200, Note_on_c, 0, 99, 0
1, 43200, Note_on_c, 0, 66, 0
1, 43200, Note_on_c, 0, 72, 0
1, 43200, Note_on_c, 0, 70, 0
1, 43200, Note_on_c, 0, 78, 0
1, 43200, Note_on_c, 0, 75, 0
1, 43200, Note_on_c, 0, 106, 89
1, 43200, Note_on_c, 0, 94, 89
1, 43200, Note_on_c, 0, 58, 76
1, 43200, Note_on_c, 0, 70, 83
1, 43440, Tempo, 480038
1, 43440, Note_on_c, 0, 70, 0
1, 43440, Note_on_c, 0, 106, 0
1, 43440, Note_on_c, 0, 94, 0
1, 43440, Note_on_c, 0, 58, 0
1, 43440, Note_on_c, 0, 106, 72
1, 43440, Note_on_c, 0, 74, 36
1, 43440, Note_on_c, 0, 77, 43
1, 43440, Note_on_c, 0, 70, 36
1, 43440, Note_on_c, 0, 65, 36
1, 43457, Control_c, 0, 64, 0
1, 43492, Control_c, 0, 64, 127
1, 43520, Note_on_c, 0, 106, 0
1, 43520, Note_on_c, 0, 94, 49
1, 43560, Note_on_c, 0, 70, 0
1, 43560, Note_on_c, 0, 65, 0
1, 43560, Note_on_c, 0, 74, 0
1, 43560, Note_on_c, 0, 77, 0
1, 43600, Note_on_c, 0, 94, 0
1, 43600, Note_on_c, 0, 106, 40
1, 43680, Tempo, 504244
1, 43680, Note_on_c, 0, 106, 0
1, 43680, Note_on_c, 0, 104, 63
1, 43680, Note_on_c, 0, 66, 28
1, 43680, Note_on_c, 0, 71, 28
1, 43680, Note_on_c, 0, 75, 28
1, 43680, Note_on_c, 0, 78, 34
1, 43691, Control_c, 0, 64, 0
1, 43715, Control_c, 0, 64, 127
1, 43760, Note_on_c, 0, 104, 0
1, 43760, Note_on_c, 0, 92, 40
1, 43800, Note_on_c, 0, 75, 0
1, 43800, Note_on_c, 0, 78, 0
1, 43800, Note_on_c, 0, 66, 0
1, 43800, Note_on_c, 0, 71, 0
1, 43840, Note_on_c, 0, 92, 0
1, 43840, Note_on_c, 0, 104, 50
1, 43920, Tempo, 480038
1, 43920, Note_on_c, 0, 104, 0
1, 43920, Note_on_c, 0, 106, 60
1, 43920, Note_on_c, 0, 58, 30
1, 43929, Control_c, 0, 64, 0
1, 43956, Control_c, 0, 64, 127
1, 44000, Note_on_c, 0, 106, 0
1, 44000, Note_on_c, 0, 94, 48
1, 44040, Note_on_c, 0, 58, 0
1, 44080, Note_on_c, 0, 94, 0
1, 44080, Note_on_c, 0, 106, 48
1, 44160, Tempo, 521785
1, 44160, Note_on_c, 0, 106, 0
1, 44160, Note_on_c, 0, 94, 64
1, 44160, Note_on_c, 0, 75, 45
1, 44160, Note_on_c, 0, 71, 38
1, 44160, Note_on_c, 0, 68, 38
1, 44160, Note_on_c, 0, 63, 38
1, 44169, Control_c, 0, 64, 0
1, 44280, Note_on_c, 0, 63, 0
1, 44280, Note_on_c, 0, 71, 0
1, 44280, Note_on_c, 0, 94, 0
1, 44280, Note_on_c, 0, 75, 0
1, 44280, Note_on_c, 0, 68, 0
1, 44400, Tempo, 489836
1, 44400, Note_on_c, 0, 104, 59
1, 44400, Note_on_c, 0, 65, 28
1, 44400, Note_on_c, 0, 70, 28
1, 44400, Note_on_c, 0, 73, 28
1, 44400, Note_on_c, 0, 77, 34
1, 44418, Control_c, 0, 64, 127
1, 44480, Note_on_c, 0, 104, 0
1, 44480, Note_on_c, 0, 92, 45
1, 44520, Note_on_c, 0, 73, 0
1, 44520, Note_on_c, 0, 77, 0
1, 44520, Note_on_c, 0, 65, 0
1, 44520, Note_on_c, 0, 70, 0
1, 44560, Note_on_c, 0, 92, 0
1, 44560, Note_on_c, 0, 104, 45
1, 44640, Tempo, 474346
1, 44640, Note_on_c, 0, 104, 0
1, 44640, Note_on_c, 0, 106, 69
1, 44640, Note_on_c, 0, 58, 30
1, 44644, Control_c, 0, 64, 0
1, 44686, Control_c, 0, 64, 127
1, 44720, Note_on_c, 0, 106, 0
1, 44720, Note_on_c, 0, 94, 46
1, 44760, Note_on_c, 0, 58, 0
1, 44800, Note_on_c, 0, 94, 0
1, 44800, Note_on_c, 0, 106, 40
1, 44880, Tempo, 517286
1, 44880, Note_on_c, 0, 106, 0
1, 44880, Note_on_c, 0, 94, 57
1, 44880, Note_on_c, 0, 73, 45
1, 44880, Note_on_c, 0, 70, 38
1, 44880, Note_on_c, 0, 66, 38
1, 44880, Note_on_c, 0, 61, 38
1, 44891, Control_c, 0, 64, 0
1, 45000, Note_on_c, 0, 61, 0
1, 45000, Note_on_c, 0, 70, 0
1, 45000, Note_on_c, 0, 94, 0
1, 45000, Note_on_c, 0, 73, 0
1, 45000, Note_on_c, 0, 66, 0
1, 45120, Tempo, 485869
1, 45120, Note_on_c, 0, 104, 68
1, 45120, Note_on_c, 0, 63, 28
1, 45120, Note_on_c, 0, 68, 28
1, 45120, Note_on_c, 0, 71, 28
1, 45120, Note_on_c, 0, 75, 34
1, 45163, Control_c, 0, 64, 127
1, 45200, Note_on_c, 0, 104, 0
1, 45200, Note_on_c, 0, 92, 45
1, 45240, Note_on_c, 0, 71, 0
1, 45240, Note_on_c, 0, 75, 0
1, 45240, Note_on_c, 0, 63, 0
1, 45240, Note_on_c, 0, 68, 0
1, 45280, Note_on_c, 0, 92, 0
1, 45280, Note_on_c, 0, 104, 45
1, 45360, Tempo, 470625
1, 45360, Note_on_c, 0, 104, 0
1, 45360, Note_on_c, 0, 106, 71
1, 45360, Note_on_c, 0, 58, 33
1, 45385, Control_c, 0, 64, 0
1, 45424, Control_c, 0, 64, 127
1, 45440, Note_on_c, 0, 106, 0
1, 45440, Note_on_c, 0, 94, 46
1, 45480, Note_on_c, 0, 58, 0
1, 45520, Note_on_c, 0, 94, 0
1, 45520, Note_on_c, 0, 106, 46
1, 45600, Tempo, 493868
1, 45600, Note_on_c, 0, 106, 0
1, 45600, Note_on_c, 0, 94, 57
1, 45600, Note_on_c, 0, 59, 39
1, 45600, Note_on_c, 0, 63, 33
1, 45600, Note_on_c, 0, 66, 33
1, 45600, Note_on_c, 0, 71, 39
1, 45617, Control_c, 0, 64, 0
1, 45720, Note_on_c, 0, 71, 0
1, 45720, Note_on_c, 0, 63, 0
1, 45720, Note_on_c, 0, 94, 0
1, 45720, Note_on_c, 0, 59, 0
1, 45720, Note_on_c, 0, 66, 0
1, 45840, Note_on_c, 0, 61, 54
1, 45840, Note_on_c, 0, 73, 34
1, 45840, Note_on_c, 0, 70, 23
1, 45840, Note_on_c, 0, 65, 23
1, 45879, Control_c, 0, 64, 127
1, 45920, Note_on_c, 0, 61, 0
1, 45920, Note_on_c, 0, 60, 57
1, 45960, Note_on_c, 0, 73, 0
1, 45960, Note_on_c, 0, 65, 0
1, 45960, Note_on_c, 0, 70, 0
1, 46000, Note_on_c, 0, 60, 0
1, 46000, Note_on_c, 0, 59, 58
1, 46080, Tempo, 483910
1, 46080, Note_on_c, 0, 59, 0
1, 46080, Note_on_c, 0, 58, 56
1, 46080, Control_c, 0, 64, 0
1, 46096, Tempo, 489836
1, 46112, Control_c, 0, 64, 127
1, 46160, Note_on_c, 0, 58, 0
1, 46160, Note_on_c, 0, 59, 47
1, 46240, Tempo, 487845
1, 46240, Note_on_c, 0, 59, 0
1, 46240, Note_on_c, 0, 57, 48
1, 46320, Note_on_c, 0, 57, 0
1, 46320, Note_on_c, 0, 58, 55
1, 46384, Tempo, 485869
1, 46400, Note_on_c, 0, 58, 0
1, 46400, Note_on_c, 0, 63, 50
1, 46480, Note_on_c, 0, 63, 0
1, 46480, Note_on_c, 0, 61, 52
1, 46528, Tempo, 483910
1, 46560, Note_on_c, 0, 61, 0
1, 46560, Note_on_c, 0, 62, 59
1, 46560, Note_on_c, 0, 47, 45
1, 46560, Note_on_c, 0, 50, 62
1, 46640, Note_on_c, 0, 62, 0
1, 46640, Note_on_c, 0, 63, 49
1, 46672, Tempo, 481966
1, 46720, Note_on_c, 0, 63, 0
1, 46720, Note_on_c, 0, 66, 50
1, 46800, Note_on_c, 0, 66, 0
1, 46800, Note_on_c, 0, 50, 0
1, 46800, Note_on_c, 0, 47, 0
1, 46800, Note_on_c, 0, 67, 60
1, 46800, Note_on_c, 0, 46, 45
1, 46800, Note_on_c, 0, 51, 62
1, 46808, Control_c, 0, 64, 0
1, 46816, Tempo, 480038
1, 46860, Control_c, 0, 64, 127
1, 46880, Note_on_c, 0, 67, 0
1, 46880, Note_on_c, 0, 70, 51
1, 46960, Note_on_c, 0, 70, 0
1, 46960, Note_on_c, 0, 68, 52
1, 47040, Note_on_c, 0, 68, 0
1, 47040, Note_on_c, 0, 51, 0
1, 47040, Note_on_c, 0, 46, 0
1, 47040, Note_on_c, 0, 71, 64
1, 47040, Note_on_c, 0, 53, 66
1, 47040, Note_on_c, 0, 45, 49
1, 47120, Note_on_c, 0, 71, 0
1, 47120, Note_on_c, 0, 74, 53
1, 47200, Tempo, 621826
1, 47200, Note_on_c, 0, 74, 0
1, 47200, Note_on_c, 0, 75, 53
1, 47280, Tempo, 487845
1, 47280, Note_on_c, 0, 75, 0
1, 47280, Note_on_c, 0, 45, 0
1, 47280, Note_on_c, 0, 53, 0
1, 47280, Note_on_c, 0, 78, 63
1, 47280, Note_on_c, 0, 54, 94
1, 47280, Note_on_c, 0, 46, 62
1, 47286, Control_c, 0, 64, 0
1, 47323, Control_c, 0, 64, 127
1, 47330, Tempo, 481966
1, 47360, Note_on_c, 0, 78, 0
1, 47360, Note_on_c, 0, 75, 55
1, 47440, Note_on_c, 0, 75, 0
1, 47440, Note_on_c, 0, 74, 55
1, 47520, Note_on_c, 0, 74, 0
1, 47520, Note_on_c, 0, 77, 66
1, 47520, Note_on_c, 0, 39, 57
1, 47520, Note_on_c, 0, 27, 48
1, 47522, Tempo, 483910
1, 47600, Note_on_c, 0, 77, 0
1, 47600, Note_on_c, 0, 74, 53
1, 47680, Note_on_c, 0, 74, 0
1, 47680, Note_on_c, 0, 73, 53
1, 47760, Tempo, 472478
1, 47760, Note_on_c, 0, 73, 0
1, 47760, Note_on_c, 0, 54, 0
1, 47760, Note_on_c, 0, 46, 0
1, 47760, Note_on_c, 0, 76, 65
1, 47760, Note_on_c, 0, 56, 67
1, 47760, Note_on_c, 0, 52, 50
1, 47840, Note_on_c, 0, 76, 0
1, 47840, Note_on_c, 0, 73, 53
1, 47920, Note_on_c, 0, 73, 0
1, 47920, Note_on_c, 0, 72, 53
1, 48000, Note_on_c, 0, 72, 0
1, 48000, Note_on_c, 0, 56, 0
1, 48000, Note_on_c, 0, 52, 0
1, 48000, Note_on_c, 0, 75, 66
1, 48000, Note_on_c, 0, 51, 51
1, 48000, Note_on_c, 0, 57, 70
1, 48002, Tempo, 461574
1, 48021, Tempo, 466962
1, 48080, Note_on_c, 0, 75, 0
1, 48080, Note_on_c, 0, 70, 57
1, 48117, Tempo, 468787
1, 48160, Note_on_c, 0, 70, 0
1, 48160, Note_on_c, 0, 71, 57
1, 48194, Tempo, 470625
1, 48240, Note_on_c, 0, 71, 0
1, 48240, Note_on_c, 0, 51, 0
1, 48240, Note_on_c, 0, 27, 0
1, 48240, Note_on_c, 0, 39, 0
1, 48240, Note_on_c, 0, 57, 0
1, 48240, Note_on_c, 0, 74, 67
1, 48240, Note_on_c, 0, 50, 52
1, 48240, Note_on_c, 0, 58, 71
1, 48271, Tempo, 472478
1, 48283, Control_c, 0, 64, 0
1, 48309, Control_c, 0, 64, 127
1, 48320, Note_on_c, 0, 74, 0
1, 48320, Note_on_c, 0, 75, 58
1, 48348, Tempo, 474346
1, 48400, Note_on_c, 0, 75, 0
1, 48400, Note_on_c, 0, 78, 59
1, 48425, Tempo, 476228
1, 48480, Note_on_c, 0, 78, 0
1, 48480, Note_on_c, 0, 58, 0
1, 48480, Note_on_c, 0, 50, 0
1, 48480, Note_on_c, 0, 79, 73
1, 48480, Note_on_c, 0, 49, 53
1, 48480, Note_on_c, 0, 53, 53
1, 48480, Note_on_c, 0, 59, 72
1, 48521, Tempo, 478126
1, 48560, Note_on_c, 0, 79, 0
1, 48560, Note_on_c, 0, 82, 60
1, 48597, Tempo, 480038
1, 48640, Note_on_c, 0, 82, 0
1, 48640, Note_on_c, 0, 80, 61
1, 48674, Tempo, 481966
1, 48720, Note_on_c, 0, 80, 0
1, 48720, Note_on_c, 0, 49, 0
1, 48720, Note_on_c, 0, 53, 0
1, 48720, Note_on_c, 0, 59, 0
1, 48720, Note_on_c, 0, 83, 70
1, 48720, Note_on_c, 0, 47, 55
1, 48720, Note_on_c, 0, 55, 55
1, 48720, Note_on_c, 0, 61, 74
1, 48751, Tempo, 483910
1, 48800, Note_on_c, 0, 83, 0
1, 48800, Note_on_c, 0, 80, 63
1, 48828, Tempo, 485869
1, 48880, Tempo, 621826
1, 48880, Note_on_c, 0, 80, 0
1, 48880, Note_on_c, 0, 79, 63
1, 48960, Tempo, 487845
1, 48960, Note_on_c, 0, 79, 0
1, 48960, Note_on_c, 0, 47, 0
1, 48960, Note_on_c, 0, 55, 0
1, 48960, Note_on_c, 0, 61, 0
1, 48960, Note_on_c, 0, 82, 79
1, 48960, Note_on_c, 0, 46, 72
1, 48960, Note_on_c, 0, 56, 72
1, 48960, Note_on_c, 0, 62, 97
1, 48967, Control_c, 0, 64, 0
1, 48997, Control_c, 0, 64, 127
1, 49040, Note_on_c, 0, 82, 0
1, 49040, Note_on_c, 0, 79, 70
1, 49120, Note_on_c, 0, 79, 0
1, 49120, Note_on_c, 0, 78, 66
1, 49200, Note_on_c, 0, 78, 0
1, 49200, Note_on_c, 0, 81, 78
1, 49200, Note_on_c, 0, 39, 69
1, 49200, Note_on_c, 0, 27, 58
1, 49280, Note_on_c, 0, 81, 0
1, 49280, Note_on_c, 0, 78, 67
1, 49360, Note_on_c, 0, 78, 0
1, 49360, Note_on_c, 0, 77, 67
1, 49404, Tempo, 485869
1, 49440, Note_on_c, 0, 77, 0
1, 49440, Note_on_c, 0, 46, 0
1, 49440, Note_on_c, 0, 62, 0
1, 49440, Note_on_c, 0, 56, 0
1, 49440, Note_on_c, 0, 80, 78
1, 49440, Note_on_c, 0, 63, 82
1, 49440, Note_on_c, 0, 59, 61
1, 49455, Control_c, 0, 64, 0
1, 49497, Control_c, 0, 64, 127
1, 49520, Note_on_c, 0, 80, 0
1, 49520, Note_on_c, 0, 75, 69
1, 49557, Tempo, 483910
1, 49600, Note_on_c, 0, 75, 0
1, 49600, Note_on_c, 0, 76, 69
1, 49680, Note_on_c, 0, 76, 0
1, 49680, Note_on_c, 0, 63, 0
1, 49680, Note_on_c, 0, 59, 0
1, 49680, Note_on_c, 0, 79, 70
1, 49680, Note_on_c, 0, 64, 86
1, 49680, Note_on_c, 0, 61, 63
1, 49680, Note_on_c, 0, 58, 63
1, 49711, Tempo, 481966
1, 49760, Note_on_c, 0, 79, 0
1, 49760, Note_on_c, 0, 80, 63
1, 49840, Note_on_c, 0, 80, 0
1, 49840, Note_on_c, 0, 83, 63
1, 49865, Tempo, 480038
1, 49920, Note_on_c, 0, 83, 0
1, 49920, Note_on_c, 0, 27, 0
1, 49920, Note_on_c, 0, 64, 0
1, 49920, Note_on_c, 0, 39, 0
1, 49920, Note_on_c, 0, 58, 0
1, 49920, Note_on_c, 0, 61, 0
1, 49920, Note_on_c, 0, 84, 71
1, 49920, Note_on_c, 0, 65, 89
1, 49920, Note_on_c, 0, 60, 66
1, 49920, Note_on_c, 0, 57, 66
1, 50000, Note_on_c, 0, 84, 0
1, 50000, Note_on_c, 0, 87, 63
1, 50018, Tempo, 478126
1, 50080, Note_on_c, 0, 87, 0
1, 50080, Note_on_c, 0, 85, 64
1, 50160, Note_on_c, 0, 85, 0
1, 50160, Note_on_c, 0, 65, 0
1, 50160, Note_on_c, 0, 60, 0
1, 50160, Note_on_c, 0, 57, 0
1, 50160, Note_on_c, 0, 88, 73
1, 50160, Note_on_c, 0, 66, 94
1, 50160, Note_on_c, 0, 59, 69
1, 50160, Note_on_c, 0, 56, 69
1, 50172, Tempo, 476228
1, 50240, Note_on_c, 0, 88, 0
1, 50240, Note_on_c, 0, 85, 66
1, 50320, Note_on_c, 0, 85, 0
1, 50320, Note_on_c, 0, 84, 66
1, 50325, Tempo, 474346
1, 50400, Note_on_c, 0, 84, 0
1, 50400, Note_on_c, 0, 66, 0
1, 50400, Note_on_c, 0, 59, 0
1, 50400, Note_on_c, 0, 56, 0
1, 50400, Note_on_c, 0, 87, 74
1, 50400, Note_on_c, 0, 67, 96
1, 50400, Note_on_c, 0, 58, 71
1, 50400, Note_on_c, 0, 55, 71
1, 50413, Control_c, 0, 64, 0
1, 50463, Control_c, 0, 64, 127
1, 50479, Tempo, 472478
1, 50480, Note_on_c, 0, 87, 0
1, 50480, Note_on_c, 0, 84, 68
1, 50560, Note_on_c, 0, 84, 0
1, 50560, Note_on_c, 0, 83, 68
1, 50633, Tempo, 470625
1, 50640, Note_on_c, 0, 83, 0
1, 50640, Note_on_c, 0, 67, 0
1, 50640, Note_on_c, 0, 55, 0
1, 50640, Note_on_c, 0, 86, 76
1, 50640, Note_on_c, 0, 68, 101
1, 50640, Note_on_c, 0, 54, 74
1, 50720, Note_on_c, 0, 86, 0
1, 50720, Note_on_c, 0, 82, 70
1, 50767, Tempo, 468787
1, 50800, Tempo, 531020
1, 50800, Note_on_c, 0, 82, 0
1, 50800, Note_on_c, 0, 86, 70
1, 50880, Tempo, 466962
1, 50880, Note_on_c, 0, 86, 0
1, 50880, Note_on_c, 0, 58, 0
1, 50880, Note_on_c, 0, 68, 0
1, 50880, Note_on_c, 0, 54, 0
1, 50880, Note_on_c, 0, 78, 73
1, 50880, Note_on_c, 0, 90, 87
1, 50880, Note_on_c, 0, 69, 102
1, 50880, Note_on_c, 0, 63, 75
1, 50880, Note_on_c, 0, 60, 75
1, 50880, Note_on_c, 0, 57, 75
1, 50880, Note_on_c, 0, 53, 75
1, 50960, Tempo, 463356
1, 50960, Note_on_c, 0, 90, 0
1, 50960, Note_on_c, 0, 78, 0
1, 50960, Note_on_c, 0, 87, 70
1, 51040, Note_on_c, 0, 87, 0
1, 51040, Note_on_c, 0, 86, 72
1, 51093, Tempo, 502050
1, 51120, Note_on_c, 0, 86, 0
1, 51120, Note_on_c, 0, 69, 0
1, 51120, Note_on_c, 0, 60, 0
1, 51120, Note_on_c, 0, 63, 0
1, 51120, Note_on_c, 0, 53, 0
1, 51120, Note_on_c, 0, 57, 0
1, 51120, Note_on_c, 0, 77, 78
1, 51120, Note_on_c, 0, 89, 92
1, 51120, Note_on_c, 0, 39, 83
1, 51120, Note_on_c, 0, 27, 70
1, 51133, Control_c, 0, 64, 0
1, 51170, Tempo, 504159
1, 51180, Control_c, 0, 64, 127
1, 51200, Note_on_c, 0, 89, 0
1, 51200, Note_on_c, 0, 77, 0
1, 51200, Note_on_c, 0, 86, 72
1, 51247, Tempo, 506286
1, 51280, Note_on_c, 0, 86, 0
1, 51280, Note_on_c, 0, 85, 72
1, 51324, Tempo, 508431
1, 51360, Note_on_c, 0, 85, 0
1, 51360, Note_on_c, 0, 76, 80
1, 51360, Note_on_c, 0, 88, 95
1, 51401, Tempo, 510595
1, 51440, Note_on_c, 0, 88, 0
1, 51440, Note_on_c, 0, 76, 0
1, 51440, Note_on_c, 0, 85, 73
1, 51458, Tempo, 512777
1, 51520, Note_on_c, 0, 85, 0
1, 51520, Note_on_c, 0, 84, 74
1, 51535, Tempo, 514977
1, 51600, Note_on_c, 0, 84, 0
1, 51600, Note_on_c, 0, 75, 82
1, 51600, Note_on_c, 0, 87, 97
1, 51600, Note_on_c, 0, 70, 78
1, 51600, Note_on_c, 0, 63, 66
1, 51600, Note_on_c, 0, 58, 66
1, 51600, Note_on_c, 0, 54, 66
1, 51612, Tempo, 517197
1, 51680, Note_on_c, 0, 87, 0
1, 51680, Note_on_c, 0, 75, 0
1, 51680, Note_on_c, 0, 83, 75
1, 51689, Tempo, 519436
1, 51746, Tempo, 521694
1, 51760, Tempo, 550509
1, 51760, Note_on_c, 0, 83, 0
1, 51760, Note_on_c, 0, 82, 76
1, 51840, Tempo, 468787
1, 51840, Note_on_c, 0, 82, 0
1, 51840, Note_on_c, 0, 63, 0
1, 51840, Note_on_c, 0, 39, 0
1, 51840, Note_on_c, 0, 70, 0
1, 51840, Note_on_c, 0, 54, 0
1, 51840, Note_on_c, 0, 58, 0
1, 51840, Note_on_c, 0, 27, 0
1, 51840, Note_on_c, 0, 76, 95
1, 51840, Note_on_c, 0, 88, 104
1, 51840, Note_on_c, 0, 71, 92
1, 51840, Note_on_c, 0, 67, 78
1, 51840, Note_on_c, 0, 64, 78
1, 51840, Note_on_c, 0, 61, 78
1, 51840, Note_on_c, 0, 59, 78
1, 51852, Control_c, 0, 64, 0
1, 51920, Note_on_c, 0, 85, 68
1, 51920, Control_c, 0, 64, 127
1, 51946, Tempo, 451162
1, 51954, Tempo, 470551
1, 52000, Note_on_c, 0, 85, 0
1, 52000, Note_on_c, 0, 84, 69
1, 52080, Note_on_c, 0, 84, 0
1, 52080, Note_on_c, 0, 83, 71
1, 52127, Tempo, 472404
1, 52160, Note_on_c, 0, 83, 0
1, 52160, Note_on_c, 0, 82, 70
1, 52240, Note_on_c, 0, 82, 0
1, 52240, Note_on_c, 0, 81, 72
1, 52300, Tempo, 474271
1, 52320, Note_on_c, 0, 81, 0
1, 52320, Note_on_c, 0, 80, 72
1, 52400, Note_on_c, 0, 80, 0
1, 52400, Note_on_c, 0, 79, 72
1, 52453, Tempo, 476153
1, 52457, Tempo, 478050
1, 52480, Tempo, 618493
1, 52480, Note_on_c, 0, 79, 0
1, 52480, Note_on_c, 0, 78, 69
1, 52560, Tempo, 466962
1, 52560, Note_on_c, 0, 78, 0
1, 52560, Note_on_c, 0, 67, 0
1, 52560, Note_on_c, 0, 64, 0
1, 52560, Note_on_c, 0, 88, 0
1, 52560, Note_on_c, 0, 71, 0
1, 52560, Note_on_c, 0, 59, 0
1, 52560, Note_on_c, 0, 61, 0
1, 52560, Note_on_c, 0, 76, 0
1, 52560, Note_on_c, 0, 77, 90
1, 52560, Note_on_c, 0, 89, 104
1, 52560, Note_on_c, 0, 50, 78
1, 52560, Note_on_c, 0, 53, 78
1, 52560, Note_on_c, 0, 56, 78
1, 52560, Note_on_c, 0, 59, 78
1, 52560, Note_on_c, 0, 62, 92
1, 52571, Control_c, 0, 64, 0
1, 52572, Tempo, 466890
1, 52609, Control_c, 0, 64, 127
1, 52610, Tempo, 468713
1, 52640, Note_on_c, 0, 83, 81
1, 52649, Tempo, 470551
1, 52687, Tempo, 472404
1, 52706, Tempo, 474271
1, 52720, Note_on_c, 0, 83, 0
1, 52720, Note_on_c, 0, 88, 81
1, 52745, Tempo, 476153
1, 52783, Tempo, 478050
1, 52800, Note_on_c, 0, 88, 0
1, 52800, Note_on_c, 0, 89, 94
1, 52800, Note_on_c, 0, 27, 78
1, 52800, Note_on_c, 0, 39, 78
1, 52802, Tempo, 479962
1, 52841, Tempo, 481889
1, 52879, Tempo, 483832
1, 52880, Note_on_c, 0, 89, 0
1, 52880, Note_on_c, 0, 95, 87
1, 52917, Tempo, 485791
1, 52937, Tempo, 487765
1, 52960, Note_on_c, 0, 95, 0
1, 52960, Note_on_c, 0, 100, 91
1, 52975, Tempo, 489756
1, 53013, Tempo, 491763
1, 53033, Tempo, 493787
1, 53040, Tempo, 487845
1, 53040, Note_on_c, 0, 100, 0
1, 53040, Note_on_c, 0, 101, 96
1, 53120, Note_on_c, 0, 101, 0
1, 53120, Note_on_c, 0, 95, 89
1, 53200, Tempo, 1153624
1, 53200, Note_on_c, 0, 95, 0
1, 53200, Note_on_c, 0, 89, 81
1, 53280, Tempo, 468787
1, 53280, Note_on_c, 0, 89, 0
1, 53280, Note_on_c, 0, 39, 0
1, 53280, Note_on_c, 0, 77, 0
1, 53280, Note_on_c, 0, 62, 0
1, 53280, Note_on_c, 0, 56, 0
1, 53280, Note_on_c, 0, 89, 0
1, 53280, Note_on_c, 0, 50, 0
1, 53280, Note_on_c, 0, 53, 0
1, 53280, Note_on_c, 0, 59, 0
1, 53280, Note_on_c, 0, 27, 0
1, 53280, Note_on_c, 0, 74, 95
1, 53280, Note_on_c, 0, 86, 104
1, 53280, Note_on_c, 0, 66, 92
1, 53280, Note_on_c, 0, 62, 78
1, 53280, Note_on_c, 0, 59, 78
1, 53280, Note_on_c, 0, 56, 78
1, 53280, Note_on_c, 0, 54, 78
1, 53292, Control_c, 0, 64, 0
1, 53298, Tempo, 478050
1, 53360, Note_on_c, 0, 83, 68
1, 53360, Control_c, 0, 64, 127
1, 53375, Tempo, 479962
1, 53432, Tempo, 481889
1, 53440, Note_on_c, 0, 83, 0
1, 53440, Note_on_c, 0, 82, 68
1, 53490, Tempo, 483832
1, 53520, Note_on_c, 0, 82, 0
1, 53520, Note_on_c, 0, 81, 68
1, 53548, Tempo, 485791
1, 53600, Note_on_c, 0, 81, 0
1, 53600, Note_on_c, 0, 80, 70
1, 53605, Tempo, 487765
1, 53663, Tempo, 489756
1, 53680, Note_on_c, 0, 80, 0
1, 53680, Note_on_c, 0, 79, 70
1, 53720, Tempo, 491763
1, 53760, Note_on_c, 0, 79, 0
1, 53760, Note_on_c, 0, 78, 70
1, 53778, Tempo, 493787
1, 53836, Tempo, 495827
1, 53839, Tempo, 491763
1, 53840, Note_on_c, 0, 78, 0
1, 53840, Note_on_c, 0, 77, 70
1, 53877, Tempo, 493787
1, 53916, Tempo, 495827
1, 53920, Tempo, 609075
1, 53920, Note_on_c, 0, 77, 0
1, 53920, Note_on_c, 0, 76, 76
1, 54000, Tempo, 466962
1, 54000, Note_on_c, 0, 76, 0
1, 54000, Note_on_c, 0, 62, 0
1, 54000, Note_on_c, 0, 59, 0
1, 54000, Note_on_c, 0, 86, 0
1, 54000, Note_on_c, 0, 66, 0
1, 54000, Note_on_c, 0, 54, 0
1, 54000, Note_on_c, 0, 56, 0
1, 54000, Note_on_c, 0, 74, 0
1, 54000, Note_on_c, 0, 75, 90
1, 54000, Note_on_c, 0, 87, 104
1, 54000, Note_on_c, 0, 45, 78
1, 54000, Note_on_c, 0, 48, 78
1, 54000, Note_on_c, 0, 51, 78
1, 54000, Note_on_c, 0, 54, 78
1, 54000, Note_on_c, 0, 57, 92
1, 54011, Control_c, 0, 64, 0
1, 54049, Control_c, 0, 64, 127
1, 54080, Note_on_c, 0, 78, 81
1, 54127, Tempo, 472404
1, 54146, Tempo, 474271
1, 54160, Note_on_c, 0, 78, 0
1, 54160, Note_on_c, 0, 83, 81
1, 54165, Tempo, 476153
1, 54185, Tempo, 478050
1, 54204, Tempo, 479962
1, 54223, Tempo, 481889
1, 54240, Note_on_c, 0, 83, 0
1, 54240, Note_on_c, 0, 84, 93
1, 54240, Note_on_c, 0, 27, 78
1, 54240, Note_on_c, 0, 39, 78
1, 54242, Tempo, 483832
1, 54261, Tempo, 485791
1, 54281, Tempo, 487765
1, 54300, Tempo, 489756
1, 54319, Tempo, 491763
1, 54320, Note_on_c, 0, 84, 0
1, 54320, Note_on_c, 0, 90, 85
1, 54338, Tempo, 493787
1, 54357, Tempo, 495827
1, 54377, Tempo, 497884
1, 54396, Tempo, 499958
1, 54400, Note_on_c, 0, 90, 0
1, 54400, Note_on_c, 0, 95, 101
1, 54415, Tempo, 502050
1, 54434, Tempo, 504159
1, 54480, Note_on_c, 0, 95, 0
1, 54480, Note_on_c, 0, 96, 103
1, 54560, Note_on_c, 0, 96, 0
1, 54560, Note_on_c, 0, 90, 89
1, 54640, Tempo, 1290045
1, 54640, Note_on_c, 0, 90, 0
1, 54640, Note_on_c, 0, 84, 81
1, 54720, Time_signature, 6, 3, 12, 8
1, 54720, Tempo, 519436
1, 54720, Note_on_c, 0, 84, 0
1, 54720, Note_on_c, 0, 39, 0
1, 54720, Note_on_c, 0, 75, 0
1, 54720, Note_on_c, 0, 57, 0
1, 54720, Note_on_c, 0, 51, 0
1, 54720, Note_on_c, 0, 87, 0
1, 54720, Note_on_c, 0, 45, 0
1, 54720, Note_on_c, 0, 48, 0
1, 54720, Note_on_c, 0, 54, 0
1, 54720, Note_on_c, 0, 27, 0
1, 54720, Note_on_c, 0, 82, 70
1, 54720, Note_on_c, 0, 70, 70
1, 54720, Note_on_c, 0, 63, 80
1, 54720, Note_on_c, 0, 54, 68
1, 54720, Note_on_c, 0, 51, 68
1, 54730, Control_c, 0, 64, 0
1, 54760, Control_c, 0, 64, 127
1, 54800, Note_on_c, 0, 70, 0
1, 54800, Note_on_c, 0, 78, 65
1, 54880, Note_on_c, 0, 78, 0
1, 54880, Note_on_c, 0, 70, 64
1, 54960, Note_on_c, 0, 70, 0
1, 54960, Note_on_c, 0, 54, 0
1, 54960, Note_on_c, 0, 51, 0
1, 54960, Note_on_c, 0, 63, 0
1, 54960, Note_on_c, 0, 50, 65
1, 54960, Note_on_c, 0, 53, 65
1, 54960, Note_on_c, 0, 62, 77
1, 54963, Control_c, 0, 64, 0
1, 55003, Control_c, 0, 64, 127
1, 55040, Note_on_c, 0, 69, 60
1, 55120, Note_on_c, 0, 69, 0
1, 55120, Note_on_c, 0, 70, 58
1, 55200, Note_on_c, 0, 70, 0
1, 55200, Note_on_c, 0, 62, 0
1, 55200, Note_on_c, 0, 82, 0
1, 55200, Note_on_c, 0, 50, 0
1, 55200, Note_on_c, 0, 53, 0
1, 55200, Note_on_c, 0, 71, 64
1, 55200, Note_on_c, 0, 52, 58
1, 55200, Note_on_c, 0, 49, 58
1, 55200, Note_on_c, 0, 61, 70
1, 55206, Control_c, 0, 64, 0
1, 55221, Tempo, 531020
1, 55272, Control_c, 0, 64, 127
1, 55280, Note_on_c, 0, 76, 58
1, 55337, Tempo, 531020
1, 55360, Note_on_c, 0, 76, 0
1, 55360, Note_on_c, 0, 83, 58
1, 55375, Tempo, 533381
1, 55394, Tempo, 535762
1, 55413, Tempo, 538165
1, 55433, Tempo, 540589
1, 55440, Note_on_c, 0, 83, 0
1, 55440, Note_on_c, 0, 61, 0
1, 55440, Note_on_c, 0, 71, 0
1, 55440, Note_on_c, 0, 52, 0
1, 55440, Note_on_c, 0, 49, 0
1, 55440, Note_on_c, 0, 79, 62
1, 55440, Note_on_c, 0, 52, 57
1, 55440, Note_on_c, 0, 48, 57
1, 55440, Note_on_c, 0, 60, 68
1, 55452, Tempo, 543036
1, 55457, Control_c, 0, 64, 0
1, 55490, Tempo, 545504
1, 55509, Control_c, 0, 64, 127
1, 55509, Tempo, 547995
1, 55520, Note_on_c, 0, 76, 56
1, 55529, Tempo, 550509
1, 55548, Tempo, 553046
1, 55567, Tempo, 555607
1, 55586, Tempo, 558191
1, 55600, Note_on_c, 0, 76, 0
1, 55600, Note_on_c, 0, 67, 55
1, 55625, Tempo, 560800
1, 55644, Tempo, 563433
1, 55663, Tempo, 566091
1, 55680, Note_on_c, 0, 67, 0
1, 55680, Note_on_c, 0, 52, 0
1, 55680, Note_on_c, 0, 51, 66
1, 55682, Tempo, 568774
1, 55701, Tempo, 571483
1, 55740, Tempo, 574218
1, 55759, Tempo, 576979
1, 55760, Note_on_c, 0, 66, 51
1, 55778, Tempo, 579766
1, 55797, Tempo, 582581
1, 55817, Tempo, 585423
1, 55836, Tempo, 588293
1, 55840, Note_on_c, 0, 66, 0
1, 55840, Note_on_c, 0, 67, 50
1, 55920, Note_on_c, 0, 67, 0
1, 55920, Note_on_c, 0, 79, 0
1, 55920, Note_on_c, 0, 60, 0
1, 55920, Note_on_c, 0, 48, 0
1, 55920, Note_on_c, 0, 68, 55
1, 55920, Note_on_c, 0, 47, 53
1, 55920, Note_on_c, 0, 59, 63
1, 56000, Note_on_c, 0, 75, 50
1, 56080, Note_on_c, 0, 75, 0
1, 56080, Note_on_c, 0, 80, 49
1, 56160, Time_signature, 12, 3, 12, 8
1, 56160, Tempo, 491844
1, 56160, Note_on_c, 0, 80, 0
1, 56160, Note_on_c, 0, 59, 0
1, 56160, Note_on_c, 0, 51, 0
1, 56160, Note_on_c, 0, 68, 0
1, 56160, Note_on_c, 0, 47, 0
1, 56160, Note_on_c, 0, 46, 39
1, 56160, Note_on_c, 0, 51, 39
1, 56160, Note_on_c, 0, 54, 39
1, 56160, Note_on_c, 0, 58, 46
1, 56189, Control_c, 0, 64, 0
1, 56197, Control_c, 0, 64, 127
1, 56240, Note_on_c, 0, 66, 41
1, 56320, Note_on_c, 0, 66, 0
1, 56320, Note_on_c, 0, 68, 41
1, 56400, Note_on_c, 0, 68, 0
1, 56400, Note_on_c, 0, 58, 0
1, 56400, Note_on_c, 0, 46, 0
1, 56400, Note_on_c, 0, 51, 0
1, 56400, Note_on_c, 0, 54, 0
1, 56400, Note_on_c, 0, 69, 45
1, 56480, Note_on_c, 0, 69, 0
1, 56480, Note_on_c, 0, 70, 42
1, 56560, Note_on_c, 0, 70, 0
1, 56560, Note_on_c, 0, 71, 42
1, 56640, Tempo, 531020
1, 56640, Note_on_c, 0, 71, 0
1, 56640, Note_on_c, 0, 75, 55
1, 56640, Note_on_c, 0, 72, 45
1, 56640, Note_on_c, 0, 67, 38
1, 56640, Note_on_c, 0, 63, 38
1, 56649, Control_c, 0, 64, 0
1, 56720, Note_on_c, 0, 73, 45
1, 56760, Tempo, 474271
1, 56760, Note_on_c, 0, 63, 0
1, 56760, Note_on_c, 0, 67, 0
1, 56760, Note_on_c, 0, 75, 0
1, 56760, Note_on_c, 0, 72, 0
1, 56800, Tempo, 474271
1, 56800, Note_on_c, 0, 73, 0
1, 56800, Note_on_c, 0, 74, 45
1, 56880, Tempo, 485791
1, 56880, Note_on_c, 0, 74, 0
1, 56880, Note_on_c, 0, 75, 45
1, 56880, Note_on_c, 0, 77, 63
1, 56880, Note_on_c, 0, 71, 45
1, 56880, Note_on_c, 0, 68, 38
1, 56880, Note_on_c, 0, 63, 38
1, 56880, Note_on_c, 0, 58, 38
1, 56960, Note_on_c, 0, 75, 0
1, 56960, Note_on_c, 0, 69, 45
1, 57000, Note_on_c, 0, 71, 0
1, 57000, Note_on_c, 0, 63, 0
1, 57000, Note_on_c, 0, 68, 0
1, 57000, Note_on_c, 0, 77, 0
1, 57000, Note_on_c, 0, 58, 0
1, 57040, Note_on_c, 0, 69, 0
1, 57040, Note_on_c, 0, 70, 45
1, 57120, Tempo, 493868
1, 57120, Note_on_c, 0, 70, 0
1, 57120, Note_on_c, 0, 71, 45
1, 57149, Control_c, 0, 64, 127
1, 57200, Note_on_c, 0, 71, 0
1, 57200, Note_on_c, 0, 72, 42
1, 57280, Note_on_c, 0, 72, 0
1, 57280, Note_on_c, 0, 73, 42
1, 57360, Tempo, 515066
1, 57360, Note_on_c, 0, 73, 0
1, 57360, Note_on_c, 0, 79, 55
1, 57360, Note_on_c, 0, 72, 45
1, 57360, Note_on_c, 0, 67, 38
1, 57360, Note_on_c, 0, 64, 38
1, 57375, Control_c, 0, 64, 0
1, 57440, Note_on_c, 0, 73, 41
1, 57480, Note_on_c, 0, 64, 0
1, 57480, Note_on_c, 0, 67, 0
1, 57480, Note_on_c, 0, 79, 0
1, 57480, Note_on_c, 0, 72, 0
1, 57520, Note_on_c, 0, 73, 0
1, 57520, Note_on_c, 0, 74, 41
1, 57600, Tempo, 493868
1, 57600, Note_on_c, 0, 74, 0
1, 57600, Note_on_c, 0, 75, 45
1, 57600, Note_on_c, 0, 80, 64
1, 57600, Note_on_c, 0, 71, 47
1, 57600, Note_on_c, 0, 68, 39
1, 57600, Note_on_c, 0, 63, 39
1, 57600, Note_on_c, 0, 58, 39
1, 57680, Note_on_c, 0, 75, 0
1, 57680, Note_on_c, 0, 71, 45
1, 57720, Note_on_c, 0, 71, 0
1, 57720, Note_on_c, 0, 63, 0
1, 57720, Note_on_c, 0, 68, 0
1, 57720, Note_on_c, 0, 80, 0
1, 57720, Note_on_c, 0, 58, 0
1, 57760, Note_on_c, 0, 71, 0
1, 57760, Note_on_c, 0, 73, 45
1, 57840, Tempo, 502134
1, 57840, Note_on_c, 0, 73, 0
1, 57840, Note_on_c, 0, 75, 45
1, 57883, Control_c, 0, 64, 127
1, 57920, Note_on_c, 0, 75, 0
1, 57920, Note_on_c, 0, 76, 42
1, 58000, Note_on_c, 0, 76, 0
1, 58000, Note_on_c, 0, 77, 42
1, 58080, Tempo, 535666
1, 58080, Note_on_c, 0, 77, 0
1, 58080, Note_on_c, 0, 78, 45
1, 58080, Note_on_c, 0, 81, 55
1, 58080, Note_on_c, 0, 63, 34
1, 58080, Note_on_c, 0, 69, 34
1, 58080, Note_on_c, 0, 72, 41
1, 58088, Control_c, 0, 64, 0
1, 58160, Note_on_c, 0, 78, 0
1, 58160, Note_on_c, 0, 77, 42
1, 58170, Note_on_c, 0, 69, 0
1, 58170, Note_on_c, 0, 72, 0
1, 58170, Note_on_c, 0, 81, 0
1, 58170, Note_on_c, 0, 63, 0
1, 58240, Note_on_c, 0, 77, 0
1, 58240, Note_on_c, 0, 78, 42
1, 58275, Control_c, 0, 64, 127
1, 58320, Tempo, 555504
1, 58320, Note_on_c, 0, 82, 61
1, 58320, Note_on_c, 0, 58, 39
1, 58320, Note_on_c, 0, 63, 39
1, 58320, Note_on_c, 0, 67, 39
1, 58320, Note_on_c, 0, 70, 46
1, 58349, Control_c, 0, 64, 0
1, 58400, Note_on_c, 0, 78, 0
1, 58400, Note_on_c, 0, 77, 42
1, 58410, Note_on_c, 0, 58, 0
1, 58410, Note_on_c, 0, 67, 0
1, 58410, Note_on_c, 0, 63, 0
1, 58410, Note_on_c, 0, 82, 0
1, 58410, Note_on_c, 0, 70, 0
1, 58463, Control_c, 0, 64, 127
1, 58480, Note_on_c, 0, 77, 0
1, 58480, Note_on_c, 0, 78, 41
1, 58560, Tempo, 582468
1, 58560, Note_on_c, 0, 78, 0
1, 58560, Note_on_c, 0, 79, 45
1, 58560, Note_on_c, 0, 84, 58
1, 58560, Note_on_c, 0, 63, 36
1, 58560, Note_on_c, 0, 69, 36
1, 58560, Note_on_c, 0, 72, 43
1, 58566, Control_c, 0, 64, 0
1, 58640, Note_on_c, 0, 79, 0
1, 58640, Note_on_c, 0, 80, 42
1, 58650, Note_on_c, 0, 69, 0
1, 58650, Note_on_c, 0, 72, 0
1, 58650, Note_on_c, 0, 84, 0
1, 58650, Note_on_c, 0, 63, 0
1, 58695, Control_c, 0, 64, 127
1, 58720, Note_on_c, 0, 80, 0
1, 58720, Note_on_c, 0, 81, 42
1, 58800, Tempo, 621697
1, 58800, Note_on_c, 0, 81, 0
1, 58800, Note_on_c, 0, 82, 45
1, 58800, Note_on_c, 0, 86, 60
1, 58800, Note_on_c, 0, 58, 39
1, 58800, Note_on_c, 0, 62, 39
1, 58800, Note_on_c, 0, 70, 46
1, 58809, Control_c, 0, 64, 0
1, 58880, Note_on_c, 0, 82, 0
1, 58880, Note_on_c, 0, 80, 40
1, 58890, Note_on_c, 0, 62, 0
1, 58890, Note_on_c, 0, 70, 0
1, 58890, Note_on_c, 0, 86, 0
1, 58890, Note_on_c, 0, 58, 0
1, 58946, Control_c, 0, 64, 127
1, 58960, Note_on_c, 0, 80, 0
1, 58960, Note_on_c, 0, 78, 40
1, 59040, Tempo, 727361
1, 59040, Note_on_c, 0, 87, 66
1, 59040, Note_on_c, 0, 75, 52
1, 59040, Note_on_c, 0, 70, 44
1, 59040, Note_on_c, 0, 63, 44
1, 59040, Control_c, 0, 64, 0
1, 59200, Note_on_c, 0, 82, 44
1, 59217, Control_c, 0, 64, 127
1, 59252, Tempo, 563327
1, 59253, Tempo, 615322
1, 59280, Note_on_c, 0, 82, 0
1, 59280, Note_on_c, 0, 87, 0
1, 59280, Note_on_c, 0, 75, 0
1, 59280, Note_on_c, 0, 78, 0
1, 59280, Note_on_c, 0, 63, 0
1, 59280, Note_on_c, 0, 70, 0
1, 59280, Note_on_c, 0, 87, 53
1, 59280, Note_on_c, 0, 27, 46
1, 59280, Note_on_c, 0, 39, 46
1, 59292, Tempo, 612182
1, 59311, Tempo, 609075
1, 59330, Tempo, 605999
1, 59360, Note_on_c, 0, 87, 0
1, 59360, Note_on_c, 0, 90, 44
1, 59369, Tempo, 602954
1, 59388, Tempo, 599940
1, 59407, Tempo, 596956
1, 59426, Tempo, 594001
1, 59440, Note_on_c, 0, 90, 0
1, 59440, Note_on_c, 0, 94, 44
1, 59465, Tempo, 591075
1, 59484, Tempo, 588178
1, 59503, Tempo, 585309
1, 59520, Note_on_c, 0, 94, 0
1, 59520, Note_on_c, 0, 99, 53
1, 59520, Note_on_c, 0, 44, 44
1, 59541, Tempo, 582468
1, 59561, Tempo, 579654
1, 59580, Tempo, 576868
1, 59599, Tempo, 574108
1, 59600, Note_on_c, 0, 99, 0
1, 59600, Note_on_c, 0, 91, 44
1, 59637, Tempo, 571374
1, 59657, Tempo, 568666
1, 59676, Tempo, 565984
1, 59680, Note_on_c, 0, 91, 0
1, 59680, Note_on_c, 0, 90, 44
1, 59714, Tempo, 563327
1, 59733, Tempo, 560695
1, 59753, Tempo, 558088
1, 59760, Note_on_c, 0, 90, 0
1, 59760, Note_on_c, 0, 44, 0
1, 59760, Note_on_c, 0, 27, 0
1, 59760, Note_on_c, 0, 98, 52
1, 59760, Note_on_c, 0, 45, 51
1, 59768, Control_c, 0, 64, 0
1, 59772, Tempo, 555504
1, 59800, Control_c, 0, 64, 127
1, 59810, Tempo, 552944
1, 59829, Tempo, 550408
1, 59840, Note_on_c, 0, 98, 0
1, 59840, Note_on_c, 0, 90, 45
1, 59849, Tempo, 547895
1, 59868, Tempo, 545405
1, 59904, Tempo, 542937
1, 59920, Note_on_c, 0, 90, 0
1, 59920, Note_on_c, 0, 89, 45
1, 60000, Tempo, 540492
1, 60000, Note_on_c, 0, 89, 0
1, 60000, Note_on_c, 0, 97, 54
1, 60077, Tempo, 538068
1, 60080, Note_on_c, 0, 97, 0
1, 60080, Note_on_c, 0, 89, 45
1, 60160, Note_on_c, 0, 89, 0
1, 60160, Note_on_c, 0, 88, 46
1, 60173, Tempo, 535666
1, 60240, Note_on_c, 0, 88, 0
1, 60240, Note_on_c, 0, 45, 0
1, 60240, Note_on_c, 0, 96, 53
1, 60240, Note_on_c, 0, 46, 51
1, 60250, Tempo, 533286
1, 60320, Note_on_c, 0, 96, 0
1, 60320, Note_on_c, 0, 88, 46
1, 60327, Tempo, 533286
1, 60384, Tempo, 530926
1, 60400, Note_on_c, 0, 88, 0
1, 60400, Note_on_c, 0, 87, 46
1, 60442, Tempo, 528588
1, 60480, Note_on_c, 0, 87, 0
1, 60480, Note_on_c, 0, 46, 0
1, 60480, Note_on_c, 0, 78, 54
1, 60480, Note_on_c, 0, 48, 57
1, 60491, Control_c, 0, 64, 0
1, 60500, Tempo, 526270
1, 60532, Control_c, 0, 64, 127
1, 60557, Tempo, 523972
1, 60560, Note_on_c, 0, 78, 0
1, 60560, Note_on_c, 0, 81, 47
1, 60615, Tempo, 521694
1, 60640, Note_on_c, 0, 81, 0
1, 60640, Note_on_c, 0, 82, 47
1, 60672, Tempo, 519436
1, 60720, Note_on_c, 0, 82, 0
1, 60720, Note_on_c, 0, 39, 0
1, 60720, Note_on_c, 0, 86, 57
1, 60720, Note_on_c, 0, 27, 47
1, 60720, Note_on_c, 0, 39, 47
1, 60730, Tempo, 517197
1, 60788, Tempo, 514977
1, 60800, Note_on_c, 0, 86, 0
1, 60800, Note_on_c, 0, 87, 47
1, 60880, Note_on_c, 0, 87, 0
1, 60880, Note_on_c, 0, 90, 47
1, 60960, Note_on_c, 0, 90, 0
1, 60960, Note_on_c, 0, 48, 0
1, 60960, Note_on_c, 0, 94, 58
1, 60960, Note_on_c, 0, 50, 52
1, 60960, Note_on_c, 0, 39, 52
1, 61040, Note_on_c, 0, 94, 0
1, 61040, Note_on_c, 0, 86, 48
1, 61120, Note_on_c, 0, 86, 0
1, 61120, Note_on_c, 0, 85, 48
1, 61200, Note_on_c, 0, 85, 0
1, 61200, Note_on_c, 0, 50, 0
1, 61200, Note_on_c, 0, 39, 0
1, 61200, Note_on_c, 0, 27, 0
1, 61200, Note_on_c, 0, 93, 59
1, 61200, Note_on_c, 0, 51, 59
1, 61217, Control_c, 0, 64, 0
1, 61260, Control_c, 0, 64, 127
1, 61280, Note_on_c, 0, 93, 0
1, 61280, Note_on_c, 0, 85, 49
1, 61360, Note_on_c, 0, 85, 0
1, 61360, Note_on_c, 0, 84, 49
1, 61440, Note_on_c, 0, 84, 0
1, 61440, Note_on_c, 0, 92, 61
1, 61520, Note_on_c, 0, 92, 0
1, 61520, Note_on_c, 0, 84, 49
1, 61600, Note_on_c, 0, 84, 0
1, 61600, Note_on_c, 0, 83, 50
1, 61680, Note_on_c, 0, 83, 0
1, 61680, Note_on_c, 0, 51, 0
1, 61680, Note_on_c, 0, 91, 60
1, 61680, Note_on_c, 0, 53, 55
1, 61760, Note_on_c, 0, 91, 0
1, 61760, Note_on_c, 0, 83, 50
1, 61840, Tempo, 594001
1, 61840, Note_on_c, 0, 83, 0
1, 61840, Note_on_c, 0, 82, 50
1, 61920, Tempo, 530926
1, 61920, Note_on_c, 0, 82, 0
1, 61920, Note_on_c, 0, 53, 0
1, 61920, Note_on_c, 0, 39, 0
1, 61920, Note_on_c, 0, 72, 61
1, 61920, Note_on_c, 0, 54, 60
1, 61920, Note_on_c, 0, 48, 51
1, 61920, Note_on_c, 0, 45, 51
1, 61920, Control_c, 0, 64, 0
1, 61960, Control_c, 0, 64, 127
1, 61997, Tempo, 528588
1, 62000, Note_on_c, 0, 72, 0
1, 62000, Note_on_c, 0, 75, 54
1, 62074, Tempo, 526270
1, 62080, Note_on_c, 0, 75, 0
1, 62080, Note_on_c, 0, 78, 56
1, 62151, Tempo, 523972
1, 62160, Note_on_c, 0, 78, 0
1, 62160, Note_on_c, 0, 54, 0
1, 62160, Note_on_c, 0, 48, 0
1, 62160, Note_on_c, 0, 45, 0
1, 62160, Note_on_c, 0, 80, 62
1, 62160, Note_on_c, 0, 27, 53
1, 62160, Note_on_c, 0, 39, 53
1, 62208, Tempo, 521694
1, 62240, Note_on_c, 0, 80, 0
1, 62240, Note_on_c, 0, 81, 51
1, 62285, Tempo, 519436
1, 62320, Note_on_c, 0, 81, 0
1, 62320, Note_on_c, 0, 84, 51
1, 62362, Tempo, 517197
1, 62400, Note_on_c, 0, 84, 0
1, 62400, Note_on_c, 0, 87, 62
1, 62400, Note_on_c, 0, 53, 43
1, 62400, Note_on_c, 0, 56, 51
1, 62439, Tempo, 514977
1, 62480, Note_on_c, 0, 87, 0
1, 62480, Note_on_c, 0, 79, 52
1, 62496, Tempo, 512777
1, 62560, Note_on_c, 0, 79, 0
1, 62560, Note_on_c, 0, 78, 52
1, 62640, Note_on_c, 0, 78, 0
1, 62640, Note_on_c, 0, 53, 0
1, 62640, Note_on_c, 0, 27, 0
1, 62640, Note_on_c, 0, 39, 0
1, 62640, Note_on_c, 0, 56, 0
1, 62640, Note_on_c, 0, 86, 61
1, 62640, Note_on_c, 0, 48, 50
1, 62640, Note_on_c, 0, 51, 50
1, 62640, Note_on_c, 0, 57, 60
1, 62648, Control_c, 0, 64, 0
1, 62680, Control_c, 0, 64, 127
1, 62720, Note_on_c, 0, 86, 0
1, 62720, Note_on_c, 0, 78, 52
1, 62800, Note_on_c, 0, 78, 0
1, 62800, Note_on_c, 0, 77, 53
1, 62880, Note_on_c, 0, 77, 0
1, 62880, Note_on_c, 0, 85, 62
1, 62960, Note_on_c, 0, 85, 0
1, 62960, Note_on_c, 0, 77, 53
1, 63040, Note_on_c, 0, 77, 0
1, 63040, Note_on_c, 0, 76, 53
1, 63120, Note_on_c, 0, 76, 0
1, 63120, Note_on_c, 0, 57, 0
1, 63120, Note_on_c, 0, 51, 0
1, 63120, Note_on_c, 0, 48, 0
1, 63120, Note_on_c, 0, 84, 62
1, 63120, Note_on_c, 0, 54, 50
1, 63120, Note_on_c, 0, 58, 60
1, 63200, Note_on_c, 0, 84, 0
1, 63200, Note_on_c, 0, 76, 54
1, 63280, Note_on_c, 0, 76, 0
1, 63280, Note_on_c, 0, 75, 54
1, 63360, Note_on_c, 0, 75, 0
1, 63360, Note_on_c, 0, 58, 0
1, 63360, Note_on_c, 0, 66, 78
1, 63360, Note_on_c, 0, 51, 69
1, 63360, Note_on_c, 0, 60, 69
1, 63371, Control_c, 0, 64, 0
1, 63412, Control_c, 0, 64, 127
1, 63440, Note_on_c, 0, 66, 0
1, 63440, Note_on_c, 0, 69, 54
1, 63520, Note_on_c, 0, 69, 0
1, 63520, Note_on_c, 0, 70, 54
1, 63533, Tempo, 517197
1, 63600, Note_on_c, 0, 70, 0
1, 63600, Note_on_c, 0, 74, 64
1, 63600, Note_on_c, 0, 39, 53
1, 63629, Tempo, 519436
1, 63680, Note_on_c, 0, 74, 0
1, 63680, Note_on_c, 0, 75, 52
1, 63725, Tempo, 521694
1, 63760, Note_on_c, 0, 75, 0
1, 63760, Note_on_c, 0, 78, 51
1, 63821, Tempo, 523972
1, 63840, Note_on_c, 0, 78, 0
1, 63840, Note_on_c, 0, 54, 0
1, 63840, Note_on_c, 0, 60, 0
1, 63840, Note_on_c, 0, 51, 0
1, 63840, Note_on_c, 0, 82, 62
1, 63840, Note_on_c, 0, 58, 46
1, 63840, Note_on_c, 0, 62, 56
1, 63917, Tempo, 526270
1, 63920, Note_on_c, 0, 82, 0
1, 63920, Note_on_c, 0, 74, 51
1, 64000, Note_on_c, 0, 74, 0
1, 64000, Note_on_c, 0, 73, 50
1, 64013, Tempo, 528588
1, 64080, Note_on_c, 0, 73, 0
1, 64080, Note_on_c, 0, 39, 0
1, 64080, Note_on_c, 0, 58, 0
1, 64080, Note_on_c, 0, 62, 0
1, 64080, Note_on_c, 0, 81, 61
1, 64080, Note_on_c, 0, 54, 50
1, 64080, Note_on_c, 0, 57, 50
1, 64080, Note_on_c, 0, 63, 61
1, 64097, Control_c, 0, 64, 0
1, 64109, Tempo, 530926
1, 64140, Control_c, 0, 64, 127
1, 64160, Note_on_c, 0, 81, 0
1, 64160, Note_on_c, 0, 73, 48
1, 64186, Tempo, 533286
1, 64240, Note_on_c, 0, 73, 0
1, 64240, Note_on_c, 0, 72, 48
1, 64282, Tempo, 535666
1, 64320, Note_on_c, 0, 72, 0
1, 64320, Note_on_c, 0, 80, 58
1, 64378, Tempo, 538068
1, 64400, Note_on_c, 0, 80, 0
1, 64400, Note_on_c, 0, 72, 47
1, 64474, Tempo, 540492
1, 64480, Note_on_c, 0, 72, 0
1, 64480, Note_on_c, 0, 71, 46
1, 64560, Note_on_c, 0, 71, 0
1, 64560, Note_on_c, 0, 63, 0
1, 64560, Note_on_c, 0, 57, 0
1, 64560, Note_on_c, 0, 54, 0
1, 64560, Note_on_c, 0, 79, 55
1, 64560, Note_on_c, 0, 62, 42
1, 64560, Note_on_c, 0, 65, 50
1, 64570, Tempo, 542937
1, 64640, Note_on_c, 0, 79, 0
1, 64640, Note_on_c, 0, 71, 45
1, 64666, Tempo, 545405
1, 64720, Note_on_c, 0, 71, 0
1, 64720, Note_on_c, 0, 70, 44
1, 64743, Tempo, 547895
1, 64800, Tempo, 628206
1, 64800, Note_on_c, 0, 70, 0
1, 64800, Note_on_c, 0, 65, 0
1, 64800, Note_on_c, 0, 62, 0
1, 64800, Note_on_c, 0, 78, 55
1, 64800, Note_on_c, 0, 66, 61
1, 64800, Note_on_c, 0, 63, 51
1, 64800, Note_on_c, 0, 58, 51
1, 64807, Control_c, 0, 64, 0
1, 64871, Control_c, 0, 64, 127
1, 64880, Note_on_c, 0, 78, 0
1, 64880, Note_on_c, 0, 70, 51
1, 64960, Note_on_c, 0, 70, 0
1, 64960, Note_on_c, 0, 75, 51
1, 65040, Tempo, 500042
1, 65040, Note_on_c, 0, 75, 0
1, 65040, Note_on_c, 0, 66, 0
1, 65040, Note_on_c, 0, 63, 0
1, 65040, Note_on_c, 0, 58, 0
1, 65040, Note_on_c, 0, 83, 49
1, 65040, Note_on_c, 0, 87, 49
1, 65043, Tempo, 489836
1, 65048, Control_c, 0, 64, 0
1, 65100, Note_on_c, 0, 87, 0
1, 65109, Control_c, 0, 64, 127
1, 65120, Note_on_c, 0, 83, 0
1, 65120, Note_on_c, 0, 79, 43
1, 65160, Note_on_c, 0, 75, 41
1, 65200, Note_on_c, 0, 79, 0
1, 65200, Note_on_c, 0, 74, 43
1, 65211, Tempo, 491844
1, 65220, Note_on_c, 0, 75, 0
1, 65280, Note_on_c, 0, 74, 0
1, 65280, Note_on_c, 0, 82, 49
1, 65280, Note_on_c, 0, 87, 49
1, 65340, Note_on_c, 0, 87, 0
1, 65355, Tempo, 493868
1, 65360, Note_on_c, 0, 82, 0
1, 65360, Note_on_c, 0, 78, 42
1, 65400, Note_on_c, 0, 75, 42
1, 65440, Note_on_c, 0, 78, 0
1, 65440, Note_on_c, 0, 73, 42
1, 65460, Note_on_c, 0, 75, 0
1, 65499, Tempo, 495909
1, 65520, Note_on_c, 0, 73, 0
1, 65520, Note_on_c, 0, 81, 49
1, 65520, Note_on_c, 0, 87, 49
1, 65580, Note_on_c, 0, 87, 0
1, 65600, Note_on_c, 0, 81, 0
1, 65600, Note_on_c, 0, 77, 43
1, 65640, Note_on_c, 0, 75, 41
1, 65643, Tempo, 497967
1, 65680, Note_on_c, 0, 77, 0
1, 65680, Note_on_c, 0, 72, 43
1, 65700, Note_on_c, 0, 75, 0
1, 65760, Note_on_c, 0, 72, 0
1, 65760, Note_on_c, 0, 80, 49
1, 65760, Note_on_c, 0, 87, 49
1, 65787, Tempo, 500042
1, 65820, Note_on_c, 0, 87, 0
1, 65840, Note_on_c, 0, 80, 0
1, 65840, Note_on_c, 0, 76, 42
1, 65880, Note_on_c, 0, 75, 40
1, 65920, Note_on_c, 0, 76, 0
1, 65920, Note_on_c, 0, 71, 42
1, 65931, Tempo, 502134
1, 65940, Note_on_c, 0, 75, 0
1, 66000, Note_on_c, 0, 71, 0
1, 66000, Note_on_c, 0, 79, 49
1, 66000, Note_on_c, 0, 87, 49
1, 66060, Note_on_c, 0, 87, 0
1, 66075, Tempo, 504244
1, 66080, Note_on_c, 0, 79, 0
1, 66080, Note_on_c, 0, 71, 43
1, 66120, Note_on_c, 0, 75, 42
1, 66160, Note_on_c, 0, 71, 0
1, 66160, Note_on_c, 0, 69, 43
1, 66180, Note_on_c, 0, 75, 0
1, 66240, Tempo, 508518
1, 66240, Note_on_c, 0, 69, 0
1, 66240, Note_on_c, 0, 78, 49
1, 66240, Note_on_c, 0, 87, 49
1, 66300, Note_on_c, 0, 87, 0
1, 66320, Note_on_c, 0, 78, 0
1, 66320, Note_on_c, 0, 73, 42
1, 66360, Note_on_c, 0, 75, 41
1, 66400, Tempo, 574218
1, 66400, Note_on_c, 0, 73, 0
1, 66400, Note_on_c, 0, 66, 42
1, 66420, Note_on_c, 0, 75, 0
1, 66473, Tempo, 493868
1, 66480, Note_on_c, 0, 66, 0
1, 66480, Note_on_c, 0, 71, 49
1, 66480, Note_on_c, 0, 75, 49
1, 66497, Control_c, 0, 64, 0
1, 66537, Control_c, 0, 64, 127
1, 66540, Note_on_c, 0, 75, 0
1, 66560, Note_on_c, 0, 71, 0
1, 66560, Note_on_c, 0, 67, 44
1, 66593, Tempo, 495909
1, 66600, Note_on_c, 0, 63, 40
1, 66640, Note_on_c, 0, 67, 0
1, 66640, Note_on_c, 0, 62, 44
1, 66660, Note_on_c, 0, 63, 0
1, 66713, Tempo, 497967
1, 66720, Note_on_c, 0, 62, 0
1, 66720, Note_on_c, 0, 70, 49
1, 66720, Note_on_c, 0, 75, 49
1, 66780, Note_on_c, 0, 75, 0
1, 66800, Note_on_c, 0, 70, 0
1, 66800, Note_on_c, 0, 66, 42
1, 66833, Tempo, 500042
1, 66840, Note_on_c, 0, 63, 42
1, 66880, Note_on_c, 0, 66, 0
1, 66880, Note_on_c, 0, 61, 42
1, 66900, Note_on_c, 0, 63, 0
1, 66953, Tempo, 502134
1, 66960, Note_on_c, 0, 61, 0
1, 66960, Note_on_c, 0, 69, 49
1, 66960, Note_on_c, 0, 75, 49
1, 67020, Note_on_c, 0, 75, 0
1, 67040, Note_on_c, 0, 69, 0
1, 67040, Note_on_c, 0, 65, 40
1, 67058, Tempo, 504244
1, 67080, Note_on_c, 0, 63, 42
1, 67120, Note_on_c, 0, 65, 0
1, 67120, Note_on_c, 0, 60, 40
1, 67140, Note_on_c, 0, 63, 0
1, 67178, Tempo, 506372
1, 67200, Note_on_c, 0, 60, 0
1, 67200, Note_on_c, 0, 68, 50
1, 67200, Note_on_c, 0, 75, 49
1, 67260, Note_on_c, 0, 75, 0
1, 67280, Note_on_c, 0, 68, 0
1, 67280, Note_on_c, 0, 64, 44
1, 67298, Tempo, 508518
1, 67320, Note_on_c, 0, 63, 44
1, 67360, Note_on_c, 0, 64, 0
1, 67360, Note_on_c, 0, 59, 44
1, 67380, Note_on_c, 0, 63, 0
1, 67418, Tempo, 510682
1, 67440, Note_on_c, 0, 59, 0
1, 67440, Note_on_c, 0, 67, 50
1, 67440, Note_on_c, 0, 75, 49
1, 67500, Note_on_c, 0, 75, 0
1, 67520, Note_on_c, 0, 67, 0
1, 67520, Note_on_c, 0, 59, 43
1, 67538, Tempo, 512864
1, 67560, Note_on_c, 0, 63, 43
1, 67600, Note_on_c, 0, 59, 0
1, 67600, Note_on_c, 0, 57, 43
1, 67620, Note_on_c, 0, 63, 0
1, 67643, Tempo, 515066
1, 67680, Note_on_c, 0, 57, 0
1, 67680, Note_on_c, 0, 66, 50
1, 67680, Note_on_c, 0, 75, 49
1, 67740, Note_on_c, 0, 75, 0
1, 67760, Note_on_c, 0, 66, 0
1, 67760, Note_on_c, 0, 58, 42
1, 67840, Note_on_c, 0, 58, 0
1, 67840, Note_on_c, 0, 46, 42
1, 67840, Note_on_c, 0, 39, 42
1, 67896, Control_c, 0, 64, 0
1, 67920, Note_on_c, 0, 39, 0
1, 67920, Note_on_c, 0, 46, 0
1, 67920, Note_on_c, 0, 51, 38
1, 67930, Control_c, 0, 64, 127
1, 67960, Note_on_c, 0, 51, 0
1, 67960, Note_on_c, 0, 54, 38
1, 68000, Note_on_c, 0, 54, 0
1, 68001, Note_on_c, 0, 57, 39
1, 68041, Note_on_c, 0, 57, 0
1, 68041, Note_on_c, 0, 58, 40
1, 68081, Note_on_c, 0, 58, 0
1, 68081, Note_on_c, 0, 62, 40
1, 68120, Note_on_c, 0, 63, 42
1, 68121, Note_on_c, 0, 62, 0
1, 68160, Note_on_c, 0, 63, 0
1, 68160, Note_on_c, 0, 66, 42
1, 68240, Tempo, 510682
1, 68240, Note_on_c, 0, 66, 0
1, 68240, Note_on_c, 0, 65, 38
1, 68320, Note_on_c, 0, 65, 0
1, 68320, Note_on_c, 0, 70, 38
1, 68400, Note_on_c, 0, 70, 0
1, 68400, Note_on_c, 0, 58, 42
1, 68400, Note_on_c, 0, 66, 42
1, 68400, Note_on_c, 0, 63, 42
1, 68417, Control_c, 0, 64, 0
1, 68455, Control_c, 0, 64, 127
1, 68480, Note_on_c, 0, 63, 0
1, 68480, Note_on_c, 0, 66, 0
1, 68480, Note_on_c, 0, 58, 0
1, 68480, Note_on_c, 0, 68, 37
1, 68560, Note_on_c, 0, 68, 0
1, 68560, Note_on_c, 0, 69, 38
1, 68570, Tempo, 504244
1, 68640, Note_on_c, 0, 69, 0
1, 68640, Note_on_c, 0, 70, 42
1, 68660, Tempo, 502134
1, 68720, Note_on_c, 0, 70, 0
1, 68720, Note_on_c, 0, 74, 39
1, 68750, Tempo, 500042
1, 68800, Note_on_c, 0, 74, 0
1, 68800, Note_on_c, 0, 75, 39
1, 68840, Tempo, 497967
1, 68880, Note_on_c, 0, 75, 0
1, 68880, Note_on_c, 0, 78, 42
1, 68930, Tempo, 495909
1, 68960, Note_on_c, 0, 78, 0
1, 68960, Note_on_c, 0, 77, 40
1, 69020, Tempo, 493868
1, 69040, Note_on_c, 0, 77, 0
1, 69040, Note_on_c, 0, 82, 40
1, 69110, Tempo, 491844
1, 69120, Note_on_c, 0, 82, 0
1, 69120, Note_on_c, 0, 70, 42
1, 69120, Note_on_c, 0, 75, 42
1, 69120, Note_on_c, 0, 78, 42
1, 69200, Tempo, 489836
1, 69200, Note_on_c, 0, 78, 0
1, 69200, Note_on_c, 0, 75, 0
1, 69200, Note_on_c, 0, 70, 0
1, 69200, Note_on_c, 0, 80, 38
1, 69280, Note_on_c, 0, 80, 0
1, 69280, Note_on_c, 0, 81, 38
1, 69360, Note_on_c, 0, 81, 0
1, 69360, Note_on_c, 0, 82, 42
1, 69440, Note_on_c, 0, 82, 0
1, 69440, Note_on_c, 0, 86, 38
1, 69520, Note_on_c, 0, 86, 0
1, 69520, Note_on_c, 0, 87, 38
1, 69600, Note_on_c, 0, 87, 0
1, 69600, Note_on_c, 0, 90, 42
1, 69680, Note_on_c, 0, 90, 0
1, 69680, Note_on_c, 0, 89, 40
1, 69760, Note_on_c, 0, 89, 0
1, 69760, Note_on_c, 0, 94, 40
1, 69840, Note_on_c, 0, 94, 0
1, 69840, Note_on_c, 0, 90, 42
1, 69840, Note_on_c, 0, 87, 42
1, 69840, Note_on_c, 0, 82, 42
1, 69863, Control_c, 0, 64, 0
1, 69888, Control_c, 0, 64, 127
1, 69920, Note_on_c, 0, 90, 0
1, 69920, Note_on_c, 0, 91, 44
1, 70000, Note_on_c, 0, 91, 0
1, 70000, Note_on_c, 0, 92, 47
1, 70080, Note_on_c, 0, 92, 0
1, 70080, Note_on_c, 0, 82, 0
1, 70080, Note_on_c, 0, 87, 0
1, 70080, Note_on_c, 0, 93, 48
1, 70080, Note_on_c, 0, 91, 42
1, 70080, Note_on_c, 0, 88, 42
1, 70160, Note_on_c, 0, 93, 0
1, 70160, Note_on_c, 0, 94, 50
1, 70190, Tempo, 487845
1, 70220, Tempo, 489836
1, 70240, Note_on_c, 0, 94, 0
1, 70240, Note_on_c, 0, 95, 53
1, 70250, Tempo, 493868
1, 70280, Tempo, 497967
1, 70310, Tempo, 502134
1, 70320, Note_on_c, 0, 95, 0
1, 70320, Note_on_c, 0, 88, 0
1, 70320, Note_on_c, 0, 91, 0
1, 70320, Note_on_c, 0, 96, 54
1, 70320, Note_on_c, 0, 89, 45
1, 70320, Note_on_c, 0, 92, 45
1, 70340, Tempo, 506372
1, 70370, Tempo, 508518
1, 70400, Tempo, 512864
1, 70400, Note_on_c, 0, 96, 0
1, 70400, Note_on_c, 0, 97, 55
1, 70430, Tempo, 517286
1, 70460, Tempo, 521785
1, 70480, Note_on_c, 0, 97, 0
1, 70480, Note_on_c, 0, 98, 56
1, 70490, Tempo, 526362
1, 70560, Time_signature, 6, 3, 12, 8
1, 70560, Tempo, 510682
1, 70560, Note_on_c, 0, 98, 0
1, 70560, Note_on_c, 0, 92, 0
1, 70560, Note_on_c, 0, 89, 0
1, 70560, Note_on_c, 0, 99, 65
1, 70560, Note_on_c, 0, 87, 48
1, 70560, Note_on_c, 0, 90, 48
1, 70560, Note_on_c, 0, 94, 48
1, 70800, Note_on_c, 0, 94, 0
1, 70800, Note_on_c, 0, 99, 0
1, 70800, Note_on_c, 0, 87, 0
1, 70800, Note_on_c, 0, 90, 0
1, 70800, Note_on_c, 0, 90, 57
1, 70800, Note_on_c, 0, 87, 57
1, 70815, Control_c, 0, 64, 0
1, 70880, Tempo, 533381
1, 70920, Note_on_c, 0, 87, 0
1, 70920, Note_on_c, 0, 90, 0
1, 71040, Note_on_c, 0, 78, 53
1, 71040, Note_on_c, 0, 75, 53
1, 71160, Note_on_c, 0, 75, 0
1, 71160, Note_on_c, 0, 78, 0
1, 71280, Tempo, 588293
1, 71280, Note_on_c, 0, 72, 44
1, 71280, Note_on_c, 0, 69, 44
1, 71400, Note_on_c, 0, 69, 0
1, 71400, Note_on_c, 0, 72, 0
1, 71520, Tempo, 681896
1, 71520, Note_on_c, 0, 60, 40
1, 71520, Note_on_c, 0, 57, 40
1, 71640, Note_on_c, 0, 57, 0
1, 71640, Note_on_c, 0, 60, 0
1, 71760, Tempo, 863434
1, 71760, Note_on_c, 0, 50, 34
1, 71760, Note_on_c, 0, 46, 34
1, 71880, Note_on_c, 0, 46, 0
1, 71880, Note_on_c, 0, 50, 0
1, 72000, Time_signature, 12, 3, 12, 8
1, 72000, Tempo, 967898
1, 72000, Note_on_c, 0, 42, 34
1, 72000, Note_on_c, 0, 39, 34
1, 72240, Tempo, 1081276
1, 72240, Note_on_c, 0, 27, 34
1, 72720, Tempo, 736287
1, 72720, Note_on_c, 0, 46, 54
1, 72760, Control_c, 0, 64, 127
1, 72800, Note_on_c, 0, 46, 0
1, 72800, Note_on_c, 0, 47, 48
1, 72880, Note_on_c, 0, 47, 0
1, 72880, Note_on_c, 0, 45, 46
1, 72960, Note_on_c, 0, 45, 0
1, 72960, Note_on_c, 0, 46, 54
1, 72975, Control_c, 0, 64, 0
1, 73200, Note_on_c, 0, 46, 0
1, 73440, Note_on_c, 0, 46, 46
1, 73460, Control_c, 0, 64, 127
1, 73520, Tempo, 784416
1, 73520, Note_on_c, 0, 46, 0
1, 73520, Note_on_c, 0, 47, 40
1, 73600, Note_on_c, 0, 47, 0
1, 73600, Note_on_c, 0, 45, 41
1, 73680, Note_on_c, 0, 45, 0
1, 73680, Note_on_c, 0, 46, 47
1, 73697, Control_c, 0, 64, 0
1, 73920, Note_on_c, 0, 46, 0
1, 74560, Tempo, 833449
1, 74640, Note_on_c, 0, 46, 34
1, 74720, Note_on_c, 0, 47, 32
1, 74736, Note_on_c, 0, 46, 0
1, 74800, Note_on_c, 0, 45, 31
1, 74816, Note_on_c, 0, 47, 0
1, 74880, Tempo, 876040
1, 74880, Note_on_c, 0, 46, 35
1, 74896, Note_on_c, 0, 45, 0
1, 74960, Note_on_c, 0, 47, 31
1, 74976, Note_on_c, 0, 46, 0
1, 75040, Tempo, 967898
1, 75040, Note_on_c, 0, 45, 31
1, 75056, Note_on_c, 0, 47, 0
1, 75120, Tempo, 991899
1, 75120, Note_on_c, 0, 46, 41
1, 75136, Note_on_c, 0, 45, 0
1, 75360, Note_on_c, 0, 46, 0
1, 76320, Note_on_c, 0, 46, 32
1, 76355, Control_c, 0, 64, 127
1, 77520, Note_on_c, 0, 27, 0
1, 77760, Note_on_c, 0, 42, 0
1, 77760, Note_on_c, 0, 39, 0
1, 77760, Note_on_c, 0, 46, 0
1, 79280, Control_c, 0, 64, 0
1, 79280, End_track
0, 0, End_of_file
