0, 0, Header, 0, 1, 480
1, 0, Start_track
1, 0, Title_t, "Etüde Opus 10 No. 5"
1, 0, Title_t, "Schwarze-Tasten-Etüde"
1, 0, Copyright_t, "Copyright © 1999 von Bernd Krüger."
1, 0, Text_t, "Chopin"
1, 0, Text_t, "Vivace"
1, 0, Text_t, "Fertiggestellt am 30.3.99\012"
1, 0, Text_t, "Update am 1.4.99\012"
1, 0, Text_t, "Update am 21.4.99\012"
1, 0, Text_t, "Normierung: 23.12.2002\012"
1, 0, Text_t, "Update am 4.3.2014\012"
1, 0, Text_t, "Dauer: 1:31\012"
1, 0, Time_signature, 2, 2, 24, 8
1, 0, Key_signature, -6, "major"
1, 0, Tempo, 517241
1, 0, Marker_t, "Vivace"
1, 0, Program_c, 0, 0
1, 0, Control_c, 0, 7, 100
1, 0, Control_c, 0, 10, 64
1, 0, Control_c, 0, 91, 127
1, 0, Control_c, 0, 64, 0
1, 0, Program_c, 0, 0
1, 0, Control_c, 0, 7, 100
1, 0, Control_c, 0, 10, 64
1, 0, Control_c, 0, 91, 127
1, 0, Control_c, 0, 64, 0
1, 0, Control_c, 0, 91, 127
1, 0, Control_c, 0, 64, 0
1, 0, Text_t, "bdca426d104a26ac9dcb070447587523"
1, 1, Note_on_c, 0, 90, 99
1, 1, Note_on_c, 0, 54, 75
1, 1, Note_on_c, 0, 61, 75
1, 1, Note_on_c, 0, 58, 75
1, 1, Note_on_c, 0, 66, 89
1, 80, Note_on_c, 0, 94, 76
1, 81, Note_on_c, 0, 90, 0
1, 91, Note_on_c, 0, 66, 0
1, 91, Note_on_c, 0, 58, 0
1, 91, Note_on_c, 0, 54, 0
1, 91, Note_on_c, 0, 61, 0
1, 160, Note_on_c, 0, 94, 0
1, 160, Note_on_c, 0, 85, 69
1, 240, Note_on_c, 0, 85, 0
1, 240, Note_on_c, 0, 90, 93
1, 240, Note_on_c, 0, 54, 71
1, 240, Note_on_c, 0, 63, 71
1, 240, Note_on_c, 0, 59, 71
1, 240, Note_on_c, 0, 66, 84
1, 320, Note_on_c, 0, 90, 0
1, 320, Note_on_c, 0, 87, 79
1, 330, Note_on_c, 0, 59, 0
1, 330, Note_on_c, 0, 66, 0
1, 330, Note_on_c, 0, 54, 0
1, 330, Note_on_c, 0, 63, 0
1, 400, Note_on_c, 0, 87, 0
1, 400, Note_on_c, 0, 90, 73
1, 480, Note_on_c, 0, 90, 0
1, 480, Note_on_c, 0, 85, 92
1, 480, Note_on_c, 0, 54, 75
1, 480, Note_on_c, 0, 61, 75
1, 480, Note_on_c, 0, 58, 75
1, 480, Note_on_c, 0, 66, 89
1, 560, Note_on_c, 0, 85, 0
1, 560, Note_on_c, 0, 90, 78
1, 570, Note_on_c, 0, 58, 0
1, 570, Note_on_c, 0, 66, 0
1, 570, Note_on_c, 0, 54, 0
1, 570, Note_on_c, 0, 61, 0
1, 640, Note_on_c, 0, 90, 0
1, 640, Note_on_c, 0, 82, 71
1, 720, Note_on_c, 0, 82, 0
1, 720, Note_on_c, 0, 85, 84
1, 800, Note_on_c, 0, 85, 0
1, 800, Note_on_c, 0, 78, 72
1, 880, Note_on_c, 0, 78, 0
1, 880, Note_on_c, 0, 82, 68
1, 960, Note_on_c, 0, 82, 0
1, 960, Note_on_c, 0, 78, 74
1, 960, Note_on_c, 0, 42, 48
1, 960, Note_on_c, 0, 54, 57
1, 1002, Control_c, 0, 64, 127
1, 1040, Note_on_c, 0, 78, 0
1, 1040, Note_on_c, 0, 82, 64
1, 1050, Note_on_c, 0, 54, 0
1, 1050, Note_on_c, 0, 42, 0
1, 1120, Note_on_c, 0, 82, 0
1, 1120, Note_on_c, 0, 73, 58
1, 1200, Note_on_c, 0, 73, 0
1, 1200, Note_on_c, 0, 78, 71
1, 1200, Note_on_c, 0, 66, 55
1, 1200, Note_on_c, 0, 63, 46
1, 1200, Note_on_c, 0, 59, 46
1, 1280, Note_on_c, 0, 78, 0
1, 1280, Note_on_c, 0, 75, 63
1, 1290, Note_on_c, 0, 66, 0
1, 1290, Note_on_c, 0, 59, 0
1, 1290, Note_on_c, 0, 63, 0
1, 1360, Note_on_c, 0, 75, 0
1, 1360, Note_on_c, 0, 78, 57
1, 1440, Note_on_c, 0, 78, 0
1, 1440, Note_on_c, 0, 73, 69
1, 1440, Note_on_c, 0, 66, 57
1, 1440, Note_on_c, 0, 61, 48
1, 1440, Note_on_c, 0, 58, 48
1, 1451, Control_c, 0, 64, 0
1, 1520, Note_on_c, 0, 73, 0
1, 1520, Note_on_c, 0, 78, 56
1, 1530, Note_on_c, 0, 66, 0
1, 1530, Note_on_c, 0, 58, 0
1, 1530, Note_on_c, 0, 61, 0
1, 1600, Note_on_c, 0, 78, 0
1, 1600, Note_on_c, 0, 70, 56
1, 1680, Note_on_c, 0, 70, 0
1, 1680, Note_on_c, 0, 73, 67
1, 1760, Note_on_c, 0, 73, 0
1, 1760, Note_on_c, 0, 66, 55
1, 1840, Note_on_c, 0, 66, 0
1, 1840, Note_on_c, 0, 70, 53
1, 1920, Note_on_c, 0, 70, 0
1, 1920, Note_on_c, 0, 61, 74
1, 1920, Note_on_c, 0, 37, 47
1, 1920, Note_on_c, 0, 49, 56
1, 1970, Control_c, 0, 64, 127
1, 2000, Note_on_c, 0, 61, 0
1, 2000, Note_on_c, 0, 73, 69
1, 2010, Note_on_c, 0, 49, 0
1, 2010, Note_on_c, 0, 37, 0
1, 2080, Note_on_c, 0, 73, 0
1, 2080, Note_on_c, 0, 68, 63
1, 2160, Note_on_c, 0, 68, 0
1, 2160, Note_on_c, 0, 73, 75
1, 2160, Note_on_c, 0, 65, 60
1, 2160, Note_on_c, 0, 61, 50
1, 2160, Note_on_c, 0, 56, 50
1, 2167, Control_c, 0, 64, 0
1, 2240, Note_on_c, 0, 73, 0
1, 2240, Note_on_c, 0, 68, 67
1, 2250, Note_on_c, 0, 65, 0
1, 2250, Note_on_c, 0, 56, 0
1, 2250, Note_on_c, 0, 61, 0
1, 2320, Note_on_c, 0, 68, 0
1, 2320, Note_on_c, 0, 80, 61
1, 2400, Note_on_c, 0, 80, 0
1, 2400, Note_on_c, 0, 68, 75
1, 2400, Note_on_c, 0, 63, 63
1, 2400, Note_on_c, 0, 59, 53
1, 2400, Note_on_c, 0, 56, 53
1, 2439, Control_c, 0, 64, 127
1, 2480, Note_on_c, 0, 68, 0
1, 2480, Note_on_c, 0, 80, 68
1, 2490, Note_on_c, 0, 63, 0
1, 2490, Note_on_c, 0, 56, 0
1, 2490, Note_on_c, 0, 59, 0
1, 2560, Note_on_c, 0, 80, 0
1, 2560, Note_on_c, 0, 75, 61
1, 2640, Note_on_c, 0, 75, 0
1, 2640, Note_on_c, 0, 80, 81
1, 2640, Note_on_c, 0, 44, 68
1, 2720, Note_on_c, 0, 80, 0
1, 2720, Note_on_c, 0, 75, 74
1, 2730, Note_on_c, 0, 44, 0
1, 2800, Note_on_c, 0, 75, 0
1, 2800, Note_on_c, 0, 87, 70
1, 2880, Note_on_c, 0, 87, 0
1, 2880, Note_on_c, 0, 75, 82
1, 2880, Control_c, 0, 64, 0
1, 2880, Note_on_c, 0, 49, 70
1, 2937, Control_c, 0, 64, 127
1, 2960, Note_on_c, 0, 75, 0
1, 2960, Note_on_c, 0, 87, 73
1, 3040, Note_on_c, 0, 87, 0
1, 3040, Note_on_c, 0, 80, 68
1, 3120, Note_on_c, 0, 80, 0
1, 3120, Note_on_c, 0, 87, 86
1, 3120, Note_on_c, 0, 63, 73
1, 3120, Note_on_c, 0, 59, 62
1, 3120, Note_on_c, 0, 56, 62
1, 3124, Control_c, 0, 64, 0
1, 3200, Note_on_c, 0, 87, 0
1, 3200, Note_on_c, 0, 80, 69
1, 3280, Note_on_c, 0, 80, 0
1, 3280, Note_on_c, 0, 92, 67
1, 3360, Tempo, 530973
1, 3360, Note_on_c, 0, 92, 0
1, 3360, Note_on_c, 0, 59, 0
1, 3360, Note_on_c, 0, 56, 0
1, 3360, Note_on_c, 0, 63, 0
1, 3360, Note_on_c, 0, 80, 89
1, 3360, Note_on_c, 0, 61, 78
1, 3360, Note_on_c, 0, 59, 64
1, 3360, Note_on_c, 0, 56, 64
1, 3395, Control_c, 0, 64, 127
1, 3440, Note_on_c, 0, 80, 0
1, 3440, Note_on_c, 0, 92, 77
1, 3520, Note_on_c, 0, 92, 0
1, 3520, Note_on_c, 0, 85, 75
1, 3600, Note_on_c, 0, 85, 0
1, 3600, Note_on_c, 0, 59, 0
1, 3600, Note_on_c, 0, 49, 0
1, 3600, Note_on_c, 0, 61, 0
1, 3600, Note_on_c, 0, 56, 0
1, 3600, Note_on_c, 0, 92, 92
1, 3680, Note_on_c, 0, 92, 0
1, 3680, Note_on_c, 0, 85, 83
1, 3760, Note_on_c, 0, 85, 0
1, 3760, Note_on_c, 0, 97, 78
1, 3840, Tempo, 517241
1, 3840, Note_on_c, 0, 97, 0
1, 3840, Note_on_c, 0, 90, 96
1, 3840, Control_c, 0, 64, 0
1, 3840, Note_on_c, 0, 58, 73
1, 3840, Note_on_c, 0, 66, 87
1, 3840, Note_on_c, 0, 61, 73
1, 3840, Note_on_c, 0, 54, 73
1, 3920, Note_on_c, 0, 90, 0
1, 3920, Note_on_c, 0, 94, 78
1, 3930, Note_on_c, 0, 61, 0
1, 3930, Note_on_c, 0, 54, 0
1, 3930, Note_on_c, 0, 58, 0
1, 3930, Note_on_c, 0, 66, 0
1, 4000, Note_on_c, 0, 94, 0
1, 4000, Note_on_c, 0, 85, 75
1, 4080, Note_on_c, 0, 85, 0
1, 4080, Note_on_c, 0, 90, 95
1, 4080, Note_on_c, 0, 66, 82
1, 4080, Note_on_c, 0, 63, 69
1, 4080, Note_on_c, 0, 59, 69
1, 4080, Note_on_c, 0, 54, 69
1, 4160, Note_on_c, 0, 90, 0
1, 4160, Note_on_c, 0, 87, 77
1, 4170, Note_on_c, 0, 59, 0
1, 4170, Note_on_c, 0, 54, 0
1, 4170, Note_on_c, 0, 66, 0
1, 4170, Note_on_c, 0, 63, 0
1, 4240, Note_on_c, 0, 87, 0
1, 4240, Note_on_c, 0, 90, 74
1, 4320, Note_on_c, 0, 90, 0
1, 4320, Note_on_c, 0, 85, 95
1, 4320, Note_on_c, 0, 66, 87
1, 4320, Note_on_c, 0, 61, 73
1, 4320, Note_on_c, 0, 58, 73
1, 4320, Note_on_c, 0, 54, 73
1, 4400, Note_on_c, 0, 85, 0
1, 4400, Note_on_c, 0, 90, 76
1, 4410, Note_on_c, 0, 58, 0
1, 4410, Note_on_c, 0, 54, 0
1, 4410, Note_on_c, 0, 66, 0
1, 4410, Note_on_c, 0, 61, 0
1, 4480, Note_on_c, 0, 90, 0
1, 4480, Note_on_c, 0, 82, 74
1, 4560, Note_on_c, 0, 82, 0
1, 4560, Note_on_c, 0, 85, 85
1, 4640, Note_on_c, 0, 85, 0
1, 4640, Note_on_c, 0, 78, 75
1, 4720, Note_on_c, 0, 78, 0
1, 4720, Note_on_c, 0, 82, 70
1, 4800, Note_on_c, 0, 82, 0
1, 4800, Note_on_c, 0, 78, 74
1, 4800, Note_on_c, 0, 42, 47
1, 4800, Note_on_c, 0, 54, 56
1, 4836, Control_c, 0, 64, 127
1, 4880, Note_on_c, 0, 78, 0
1, 4880, Note_on_c, 0, 82, 69
1, 4890, Note_on_c, 0, 54, 0
1, 4890, Note_on_c, 0, 42, 0
1, 4960, Note_on_c, 0, 82, 0
1, 4960, Note_on_c, 0, 73, 65
1, 5040, Note_on_c, 0, 73, 0
1, 5040, Note_on_c, 0, 78, 74
1, 5040, Note_on_c, 0, 66, 48
1, 5040, Note_on_c, 0, 63, 40
1, 5040, Note_on_c, 0, 59, 40
1, 5120, Note_on_c, 0, 78, 0
1, 5120, Note_on_c, 0, 75, 69
1, 5130, Note_on_c, 0, 66, 0
1, 5130, Note_on_c, 0, 59, 0
1, 5130, Note_on_c, 0, 63, 0
1, 5200, Note_on_c, 0, 75, 0
1, 5200, Note_on_c, 0, 78, 66
1, 5280, Note_on_c, 0, 78, 0
1, 5280, Note_on_c, 0, 73, 74
1, 5280, Note_on_c, 0, 66, 57
1, 5280, Note_on_c, 0, 61, 48
1, 5280, Note_on_c, 0, 58, 48
1, 5284, Control_c, 0, 64, 0
1, 5360, Note_on_c, 0, 73, 0
1, 5360, Note_on_c, 0, 78, 67
1, 5370, Note_on_c, 0, 66, 0
1, 5370, Note_on_c, 0, 58, 0
1, 5370, Note_on_c, 0, 61, 0
1, 5440, Note_on_c, 0, 78, 0
1, 5440, Note_on_c, 0, 70, 70
1, 5520, Note_on_c, 0, 70, 0
1, 5520, Note_on_c, 0, 73, 74
1, 5600, Note_on_c, 0, 73, 0
1, 5600, Note_on_c, 0, 66, 65
1, 5680, Note_on_c, 0, 66, 0
1, 5680, Note_on_c, 0, 70, 68
1, 5760, Note_on_c, 0, 70, 0
1, 5760, Note_on_c, 0, 63, 77
1, 5760, Note_on_c, 0, 47, 66
1, 5840, Note_on_c, 0, 63, 0
1, 5840, Note_on_c, 0, 75, 69
1, 5920, Note_on_c, 0, 75, 0
1, 5920, Note_on_c, 0, 68, 66
1, 6000, Note_on_c, 0, 68, 0
1, 6000, Note_on_c, 0, 47, 0
1, 6000, Note_on_c, 0, 75, 77
1, 6000, Note_on_c, 0, 63, 71
1, 6000, Note_on_c, 0, 56, 60
1, 6080, Note_on_c, 0, 75, 0
1, 6080, Note_on_c, 0, 68, 67
1, 6160, Note_on_c, 0, 68, 0
1, 6160, Note_on_c, 0, 80, 71
1, 6240, Note_on_c, 0, 80, 0
1, 6240, Note_on_c, 0, 75, 77
1, 6320, Note_on_c, 0, 75, 0
1, 6320, Note_on_c, 0, 80, 74
1, 6400, Note_on_c, 0, 80, 0
1, 6400, Note_on_c, 0, 75, 70
1, 6480, Tempo, 538117
1, 6480, Note_on_c, 0, 75, 0
1, 6480, Note_on_c, 0, 56, 0
1, 6480, Note_on_c, 0, 63, 0
1, 6480, Note_on_c, 0, 87, 82
1, 6480, Note_on_c, 0, 47, 64
1, 6560, Note_on_c, 0, 87, 0
1, 6560, Note_on_c, 0, 80, 73
1, 6640, Note_on_c, 0, 80, 0
1, 6640, Note_on_c, 0, 92, 75
1, 6690, Note_on_c, 0, 47, 0
1, 6690, Note_on_c, 0, 46, 57
1, 6705, Note_on_c, 0, 53, 59
1, 6720, Note_on_c, 0, 92, 0
1, 6720, Note_on_c, 0, 82, 88
1, 6720, Note_on_c, 0, 62, 77
1, 6756, Control_c, 0, 64, 127
1, 6800, Note_on_c, 0, 82, 0
1, 6800, Note_on_c, 0, 94, 78
1, 6880, Note_on_c, 0, 94, 0
1, 6880, Note_on_c, 0, 82, 70
1, 6930, Note_on_c, 0, 62, 0
1, 6930, Note_on_c, 0, 46, 0
1, 6930, Note_on_c, 0, 53, 0
1, 6930, Note_on_c, 0, 58, 56
1, 6945, Note_on_c, 0, 65, 56
1, 6960, Note_on_c, 0, 82, 0
1, 6960, Note_on_c, 0, 94, 81
1, 6960, Note_on_c, 0, 74, 71
1, 7040, Note_on_c, 0, 94, 0
1, 7040, Note_on_c, 0, 82, 75
1, 7120, Note_on_c, 0, 82, 0
1, 7120, Note_on_c, 0, 94, 70
1, 7200, Tempo, 560748
1, 7200, Note_on_c, 0, 94, 0
1, 7200, Note_on_c, 0, 58, 0
1, 7200, Note_on_c, 0, 65, 0
1, 7200, Note_on_c, 0, 74, 0
1, 7200, Note_on_c, 0, 82, 68
1, 7207, Control_c, 0, 64, 0
1, 7280, Note_on_c, 0, 82, 0
1, 7280, Note_on_c, 0, 94, 62
1, 7360, Note_on_c, 0, 94, 0
1, 7360, Note_on_c, 0, 82, 53
1, 7440, Note_on_c, 0, 82, 0
1, 7440, Note_on_c, 0, 94, 59
1, 7520, Note_on_c, 0, 94, 0
1, 7520, Note_on_c, 0, 82, 53
1, 7600, Note_on_c, 0, 82, 0
1, 7600, Note_on_c, 0, 94, 45
1, 7680, Tempo, 530973
1, 7680, Note_on_c, 0, 94, 0
1, 7680, Control_c, 0, 91, 127
1, 7680, Control_c, 0, 64, 0
1, 7680, Control_c, 0, 91, 127
1, 7680, Control_c, 0, 64, 0
1, 7681, Note_on_c, 0, 90, 96
1, 7681, Note_on_c, 0, 66, 86
1, 7681, Note_on_c, 0, 61, 72
1, 7681, Note_on_c, 0, 58, 72
1, 7681, Note_on_c, 0, 54, 72
1, 7760, Note_on_c, 0, 94, 73
1, 7761, Note_on_c, 0, 90, 0
1, 7771, Note_on_c, 0, 54, 0
1, 7771, Note_on_c, 0, 58, 0
1, 7771, Note_on_c, 0, 66, 0
1, 7771, Note_on_c, 0, 61, 0
1, 7840, Note_on_c, 0, 94, 0
1, 7840, Note_on_c, 0, 85, 67
1, 7920, Tempo, 517241
1, 7920, Note_on_c, 0, 85, 0
1, 7920, Note_on_c, 0, 90, 90
1, 7920, Note_on_c, 0, 66, 77
1, 7920, Note_on_c, 0, 63, 64
1, 7920, Note_on_c, 0, 59, 64
1, 7920, Note_on_c, 0, 54, 64
1, 8000, Note_on_c, 0, 90, 0
1, 8000, Note_on_c, 0, 87, 67
1, 8010, Note_on_c, 0, 59, 0
1, 8010, Note_on_c, 0, 54, 0
1, 8010, Note_on_c, 0, 66, 0
1, 8010, Note_on_c, 0, 63, 0
1, 8080, Note_on_c, 0, 87, 0
1, 8080, Note_on_c, 0, 90, 59
1, 8160, Note_on_c, 0, 90, 0
1, 8160, Note_on_c, 0, 85, 93
1, 8160, Note_on_c, 0, 66, 86
1, 8160, Note_on_c, 0, 61, 72
1, 8160, Note_on_c, 0, 58, 72
1, 8160, Note_on_c, 0, 54, 72
1, 8240, Note_on_c, 0, 85, 0
1, 8240, Note_on_c, 0, 90, 68
1, 8250, Note_on_c, 0, 58, 0
1, 8250, Note_on_c, 0, 54, 0
1, 8250, Note_on_c, 0, 66, 0
1, 8250, Note_on_c, 0, 61, 0
1, 8320, Note_on_c, 0, 90, 0
1, 8320, Note_on_c, 0, 82, 66
1, 8400, Note_on_c, 0, 82, 0
1, 8400, Note_on_c, 0, 85, 84
1, 8480, Note_on_c, 0, 85, 0
1, 8480, Note_on_c, 0, 78, 66
1, 8560, Note_on_c, 0, 78, 0
1, 8560, Note_on_c, 0, 82, 63
1, 8640, Note_on_c, 0, 82, 0
1, 8640, Note_on_c, 0, 78, 74
1, 8640, Note_on_c, 0, 54, 56
1, 8640, Note_on_c, 0, 42, 56
1, 8683, Control_c, 0, 64, 127
1, 8720, Note_on_c, 0, 78, 0
1, 8720, Note_on_c, 0, 82, 66
1, 8730, Note_on_c, 0, 42, 0
1, 8730, Note_on_c, 0, 54, 0
1, 8800, Note_on_c, 0, 82, 0
1, 8800, Note_on_c, 0, 73, 63
1, 8880, Note_on_c, 0, 73, 0
1, 8880, Note_on_c, 0, 78, 68
1, 8880, Note_on_c, 0, 66, 48
1, 8880, Note_on_c, 0, 63, 40
1, 8880, Note_on_c, 0, 59, 40
1, 8960, Note_on_c, 0, 78, 0
1, 8960, Note_on_c, 0, 75, 65
1, 8970, Note_on_c, 0, 66, 0
1, 8970, Note_on_c, 0, 59, 0
1, 8970, Note_on_c, 0, 63, 0
1, 9040, Note_on_c, 0, 75, 0
1, 9040, Note_on_c, 0, 78, 62
1, 9120, Note_on_c, 0, 78, 0
1, 9120, Note_on_c, 0, 73, 74
1, 9120, Note_on_c, 0, 66, 56
1, 9120, Note_on_c, 0, 61, 47
1, 9120, Note_on_c, 0, 58, 47
1, 9124, Control_c, 0, 64, 0
1, 9200, Note_on_c, 0, 73, 0
1, 9200, Note_on_c, 0, 78, 65
1, 9210, Note_on_c, 0, 66, 0
1, 9210, Note_on_c, 0, 58, 0
1, 9210, Note_on_c, 0, 61, 0
1, 9280, Note_on_c, 0, 78, 0
1, 9280, Note_on_c, 0, 70, 61
1, 9360, Note_on_c, 0, 70, 0
1, 9360, Note_on_c, 0, 73, 74
1, 9440, Note_on_c, 0, 73, 0
1, 9440, Note_on_c, 0, 66, 67
1, 9520, Note_on_c, 0, 66, 0
1, 9520, Note_on_c, 0, 70, 65
1, 9600, Note_on_c, 0, 70, 0
1, 9600, Note_on_c, 0, 61, 74
1, 9600, Note_on_c, 0, 37, 51
1, 9600, Note_on_c, 0, 49, 61
1, 9632, Control_c, 0, 64, 127
1, 9680, Note_on_c, 0, 61, 0
1, 9680, Note_on_c, 0, 73, 71
1, 9690, Note_on_c, 0, 49, 0
1, 9690, Note_on_c, 0, 37, 0
1, 9760, Note_on_c, 0, 73, 0
1, 9760, Note_on_c, 0, 68, 67
1, 9840, Note_on_c, 0, 68, 0
1, 9840, Note_on_c, 0, 73, 75
1, 9840, Note_on_c, 0, 65, 61
1, 9840, Note_on_c, 0, 61, 51
1, 9840, Note_on_c, 0, 56, 51
1, 9844, Control_c, 0, 64, 0
1, 9920, Note_on_c, 0, 73, 0
1, 9920, Note_on_c, 0, 68, 70
1, 9930, Note_on_c, 0, 65, 0
1, 9930, Note_on_c, 0, 56, 0
1, 9930, Note_on_c, 0, 61, 0
1, 10000, Note_on_c, 0, 68, 0
1, 10000, Note_on_c, 0, 80, 65
1, 10080, Note_on_c, 0, 80, 0
1, 10080, Note_on_c, 0, 68, 72
1, 10080, Note_on_c, 0, 63, 62
1, 10080, Note_on_c, 0, 59, 52
1, 10080, Note_on_c, 0, 56, 52
1, 10112, Control_c, 0, 64, 127
1, 10160, Note_on_c, 0, 68, 0
1, 10160, Note_on_c, 0, 80, 70
1, 10170, Note_on_c, 0, 63, 0
1, 10170, Note_on_c, 0, 56, 0
1, 10170, Note_on_c, 0, 59, 0
1, 10240, Note_on_c, 0, 80, 0
1, 10240, Note_on_c, 0, 75, 67
1, 10320, Note_on_c, 0, 75, 0
1, 10320, Note_on_c, 0, 80, 78
1, 10320, Note_on_c, 0, 44, 66
1, 10400, Note_on_c, 0, 80, 0
1, 10400, Note_on_c, 0, 75, 74
1, 10410, Note_on_c, 0, 44, 0
1, 10480, Note_on_c, 0, 75, 0
1, 10480, Note_on_c, 0, 87, 72
1, 10560, Note_on_c, 0, 87, 0
1, 10560, Note_on_c, 0, 75, 82
1, 10560, Note_on_c, 0, 49, 70
1, 10563, Control_c, 0, 64, 0
1, 10617, Control_c, 0, 64, 127
1, 10640, Note_on_c, 0, 75, 0
1, 10640, Note_on_c, 0, 87, 78
1, 10720, Note_on_c, 0, 87, 0
1, 10720, Note_on_c, 0, 80, 78
1, 10800, Note_on_c, 0, 80, 0
1, 10800, Note_on_c, 0, 87, 80
1, 10800, Note_on_c, 0, 63, 73
1, 10800, Note_on_c, 0, 59, 62
1, 10800, Note_on_c, 0, 56, 62
1, 10808, Control_c, 0, 64, 0
1, 10880, Note_on_c, 0, 87, 0
1, 10880, Note_on_c, 0, 80, 77
1, 10960, Note_on_c, 0, 80, 0
1, 10960, Note_on_c, 0, 92, 73
1, 11040, Tempo, 526316
1, 11040, Note_on_c, 0, 92, 0
1, 11040, Note_on_c, 0, 59, 0
1, 11040, Note_on_c, 0, 56, 0
1, 11040, Note_on_c, 0, 63, 0
1, 11040, Note_on_c, 0, 80, 88
1, 11040, Note_on_c, 0, 61, 78
1, 11040, Note_on_c, 0, 59, 64
1, 11040, Note_on_c, 0, 56, 64
1, 11079, Control_c, 0, 64, 127
1, 11120, Note_on_c, 0, 80, 0
1, 11120, Note_on_c, 0, 92, 81
1, 11200, Note_on_c, 0, 92, 0
1, 11200, Note_on_c, 0, 85, 73
1, 11280, Note_on_c, 0, 85, 0
1, 11280, Note_on_c, 0, 59, 0
1, 11280, Note_on_c, 0, 49, 0
1, 11280, Note_on_c, 0, 61, 0
1, 11280, Note_on_c, 0, 56, 0
1, 11280, Note_on_c, 0, 92, 92
1, 11360, Note_on_c, 0, 92, 0
1, 11360, Note_on_c, 0, 85, 83
1, 11440, Note_on_c, 0, 85, 0
1, 11440, Note_on_c, 0, 97, 83
1, 11520, Tempo, 517241
1, 11520, Note_on_c, 0, 97, 0
1, 11520, Note_on_c, 0, 90, 98
1, 11520, Control_c, 0, 64, 0
1, 11520, Note_on_c, 0, 66, 87
1, 11520, Note_on_c, 0, 58, 73
1, 11520, Note_on_c, 0, 61, 73
1, 11520, Note_on_c, 0, 54, 73
1, 11600, Note_on_c, 0, 90, 0
1, 11600, Note_on_c, 0, 94, 74
1, 11610, Note_on_c, 0, 61, 0
1, 11610, Note_on_c, 0, 54, 0
1, 11610, Note_on_c, 0, 66, 0
1, 11610, Note_on_c, 0, 58, 0
1, 11680, Note_on_c, 0, 94, 0
1, 11680, Note_on_c, 0, 85, 70
1, 11760, Note_on_c, 0, 85, 0
1, 11760, Note_on_c, 0, 90, 93
1, 11760, Note_on_c, 0, 54, 69
1, 11760, Note_on_c, 0, 63, 69
1, 11760, Note_on_c, 0, 59, 69
1, 11760, Note_on_c, 0, 66, 81
1, 11840, Note_on_c, 0, 90, 0
1, 11840, Note_on_c, 0, 87, 72
1, 11850, Note_on_c, 0, 59, 0
1, 11850, Note_on_c, 0, 66, 0
1, 11850, Note_on_c, 0, 54, 0
1, 11850, Note_on_c, 0, 63, 0
1, 11920, Note_on_c, 0, 87, 0
1, 11920, Note_on_c, 0, 90, 73
1, 12000, Note_on_c, 0, 90, 0
1, 12000, Note_on_c, 0, 85, 96
1, 12000, Note_on_c, 0, 54, 73
1, 12000, Note_on_c, 0, 61, 73
1, 12000, Note_on_c, 0, 58, 73
1, 12000, Note_on_c, 0, 66, 87
1, 12080, Note_on_c, 0, 85, 0
1, 12080, Note_on_c, 0, 90, 75
1, 12090, Note_on_c, 0, 58, 0
1, 12090, Note_on_c, 0, 66, 0
1, 12090, Note_on_c, 0, 54, 0
1, 12090, Note_on_c, 0, 61, 0
1, 12160, Note_on_c, 0, 90, 0
1, 12160, Note_on_c, 0, 82, 68
1, 12240, Note_on_c, 0, 82, 0
1, 12240, Note_on_c, 0, 85, 84
1, 12320, Note_on_c, 0, 85, 0
1, 12320, Note_on_c, 0, 78, 69
1, 12400, Note_on_c, 0, 78, 0
1, 12400, Note_on_c, 0, 82, 64
1, 12480, Note_on_c, 0, 82, 0
1, 12480, Note_on_c, 0, 78, 74
1, 12480, Note_on_c, 0, 42, 47
1, 12480, Note_on_c, 0, 54, 56
1, 12530, Control_c, 0, 64, 127
1, 12560, Note_on_c, 0, 78, 0
1, 12560, Note_on_c, 0, 82, 68
1, 12570, Note_on_c, 0, 54, 0
1, 12570, Note_on_c, 0, 42, 0
1, 12640, Note_on_c, 0, 82, 0
1, 12640, Note_on_c, 0, 73, 62
1, 12720, Note_on_c, 0, 73, 0
1, 12720, Note_on_c, 0, 78, 71
1, 12720, Note_on_c, 0, 59, 42
1, 12720, Note_on_c, 0, 66, 50
1, 12720, Note_on_c, 0, 63, 42
1, 12800, Note_on_c, 0, 78, 0
1, 12800, Note_on_c, 0, 75, 65
1, 12810, Note_on_c, 0, 59, 0
1, 12810, Note_on_c, 0, 63, 0
1, 12810, Note_on_c, 0, 66, 0
1, 12880, Note_on_c, 0, 75, 0
1, 12880, Note_on_c, 0, 78, 67
1, 12960, Note_on_c, 0, 78, 0
1, 12960, Note_on_c, 0, 73, 74
1, 12960, Note_on_c, 0, 66, 56
1, 12960, Note_on_c, 0, 61, 47
1, 12960, Note_on_c, 0, 58, 47
1, 12966, Control_c, 0, 64, 0
1, 13040, Note_on_c, 0, 73, 0
1, 13040, Note_on_c, 0, 78, 65
1, 13050, Note_on_c, 0, 66, 0
1, 13050, Note_on_c, 0, 58, 0
1, 13050, Note_on_c, 0, 61, 0
1, 13120, Note_on_c, 0, 78, 0
1, 13120, Note_on_c, 0, 70, 59
1, 13200, Note_on_c, 0, 70, 0
1, 13200, Note_on_c, 0, 73, 74
1, 13280, Note_on_c, 0, 73, 0
1, 13280, Note_on_c, 0, 66, 65
1, 13360, Note_on_c, 0, 66, 0
1, 13360, Note_on_c, 0, 70, 59
1, 13440, Note_on_c, 0, 70, 0
1, 13440, Note_on_c, 0, 63, 77
1, 13440, Note_on_c, 0, 48, 62
1, 13479, Control_c, 0, 64, 127
1, 13520, Note_on_c, 0, 63, 0
1, 13520, Note_on_c, 0, 75, 74
1, 13560, Note_on_c, 0, 48, 0
1, 13600, Note_on_c, 0, 75, 0
1, 13600, Note_on_c, 0, 68, 67
1, 13680, Note_on_c, 0, 68, 0
1, 13680, Note_on_c, 0, 75, 77
1, 13680, Note_on_c, 0, 66, 68
1, 13680, Note_on_c, 0, 56, 56
1, 13760, Note_on_c, 0, 75, 0
1, 13760, Note_on_c, 0, 68, 67
1, 13840, Note_on_c, 0, 68, 0
1, 13840, Note_on_c, 0, 80, 70
1, 13920, Note_on_c, 0, 80, 0
1, 13920, Note_on_c, 0, 75, 75
1, 14000, Note_on_c, 0, 75, 0
1, 14000, Note_on_c, 0, 80, 71
1, 14080, Note_on_c, 0, 80, 0
1, 14080, Note_on_c, 0, 75, 67
1, 14160, Tempo, 533333
1, 14160, Note_on_c, 0, 75, 0
1, 14160, Note_on_c, 0, 56, 0
1, 14160, Note_on_c, 0, 66, 0
1, 14160, Note_on_c, 0, 87, 82
1, 14160, Note_on_c, 0, 44, 64
1, 14240, Note_on_c, 0, 87, 0
1, 14240, Note_on_c, 0, 80, 79
1, 14280, Note_on_c, 0, 44, 0
1, 14320, Note_on_c, 0, 80, 0
1, 14320, Note_on_c, 0, 87, 74
1, 14400, Note_on_c, 0, 87, 0
1, 14400, Note_on_c, 0, 75, 85
1, 14400, Note_on_c, 0, 49, 78
1, 14403, Control_c, 0, 64, 0
1, 14450, Control_c, 0, 64, 127
1, 14480, Note_on_c, 0, 75, 0
1, 14480, Note_on_c, 0, 87, 74
1, 14520, Note_on_c, 0, 49, 0
1, 14560, Note_on_c, 0, 87, 0
1, 14560, Note_on_c, 0, 80, 71
1, 14640, Note_on_c, 0, 80, 0
1, 14640, Note_on_c, 0, 87, 88
1, 14640, Note_on_c, 0, 65, 71
1, 14640, Note_on_c, 0, 56, 60
1, 14720, Note_on_c, 0, 87, 0
1, 14720, Note_on_c, 0, 73, 76
1, 14760, Note_on_c, 0, 56, 0
1, 14760, Note_on_c, 0, 65, 0
1, 14800, Note_on_c, 0, 73, 0
1, 14800, Note_on_c, 0, 85, 72
1, 14880, Tempo, 555556
1, 14880, Note_on_c, 0, 85, 0
1, 14880, Note_on_c, 0, 80, 81
1, 14960, Note_on_c, 0, 80, 0
1, 14960, Note_on_c, 0, 85, 73
1, 15040, Note_on_c, 0, 85, 0
1, 15040, Note_on_c, 0, 80, 67
1, 15120, Note_on_c, 0, 80, 0
1, 15120, Note_on_c, 0, 92, 70
1, 15200, Note_on_c, 0, 92, 0
1, 15200, Note_on_c, 0, 85, 66
1, 15280, Note_on_c, 0, 85, 0
1, 15280, Note_on_c, 0, 97, 64
1, 15360, Tempo, 528634
1, 15360, Note_on_c, 0, 97, 0
1, 15360, Note_on_c, 0, 92, 72
1, 15360, Control_c, 0, 64, 0
1, 15360, Note_on_c, 0, 60, 52
1, 15360, Note_on_c, 0, 68, 62
1, 15360, Note_on_c, 0, 66, 52
1, 15440, Note_on_c, 0, 92, 0
1, 15440, Note_on_c, 0, 94, 67
1, 15520, Note_on_c, 0, 94, 0
1, 15520, Note_on_c, 0, 92, 61
1, 15600, Tempo, 524017
1, 15600, Note_on_c, 0, 92, 0
1, 15600, Note_on_c, 0, 60, 0
1, 15600, Note_on_c, 0, 68, 0
1, 15600, Note_on_c, 0, 66, 0
1, 15600, Note_on_c, 0, 87, 72
1, 15600, Note_on_c, 0, 56, 50
1, 15600, Note_on_c, 0, 68, 60
1, 15600, Note_on_c, 0, 66, 50
1, 15680, Note_on_c, 0, 87, 0
1, 15680, Note_on_c, 0, 99, 67
1, 15760, Note_on_c, 0, 99, 0
1, 15760, Note_on_c, 0, 87, 58
1, 15840, Tempo, 512821
1, 15840, Note_on_c, 0, 87, 0
1, 15840, Note_on_c, 0, 56, 0
1, 15840, Note_on_c, 0, 68, 0
1, 15840, Note_on_c, 0, 66, 0
1, 15840, Note_on_c, 0, 85, 78
1, 15840, Note_on_c, 0, 61, 56
1, 15840, Note_on_c, 0, 65, 56
1, 15840, Note_on_c, 0, 70, 68
1, 15920, Note_on_c, 0, 85, 0
1, 15920, Note_on_c, 0, 87, 74
1, 16000, Note_on_c, 0, 87, 0
1, 16000, Note_on_c, 0, 85, 68
1, 16080, Tempo, 517241
1, 16080, Note_on_c, 0, 85, 0
1, 16080, Note_on_c, 0, 61, 0
1, 16080, Note_on_c, 0, 65, 0
1, 16080, Note_on_c, 0, 70, 0
1, 16080, Note_on_c, 0, 80, 75
1, 16080, Note_on_c, 0, 56, 48
1, 16080, Note_on_c, 0, 65, 48
1, 16080, Note_on_c, 0, 68, 59
1, 16160, Note_on_c, 0, 80, 0
1, 16160, Note_on_c, 0, 92, 71
1, 16240, Note_on_c, 0, 92, 0
1, 16240, Note_on_c, 0, 80, 66
1, 16320, Tempo, 528634
1, 16320, Note_on_c, 0, 80, 0
1, 16320, Note_on_c, 0, 56, 0
1, 16320, Note_on_c, 0, 65, 0
1, 16320, Note_on_c, 0, 68, 0
1, 16320, Note_on_c, 0, 80, 72
1, 16320, Note_on_c, 0, 60, 52
1, 16320, Note_on_c, 0, 66, 52
1, 16320, Note_on_c, 0, 70, 62
1, 16400, Note_on_c, 0, 80, 0
1, 16400, Note_on_c, 0, 82, 67
1, 16480, Note_on_c, 0, 82, 0
1, 16480, Note_on_c, 0, 80, 65
1, 16560, Tempo, 510638
1, 16560, Note_on_c, 0, 80, 0
1, 16560, Note_on_c, 0, 60, 0
1, 16560, Note_on_c, 0, 66, 0
1, 16560, Note_on_c, 0, 70, 0
1, 16560, Note_on_c, 0, 75, 72
1, 16560, Note_on_c, 0, 56, 48
1, 16560, Note_on_c, 0, 68, 59
1, 16560, Note_on_c, 0, 66, 59
1, 16640, Note_on_c, 0, 75, 0
1, 16640, Note_on_c, 0, 87, 67
1, 16720, Note_on_c, 0, 87, 0
1, 16720, Note_on_c, 0, 75, 67
1, 16800, Tempo, 517241
1, 16800, Note_on_c, 0, 75, 0
1, 16800, Note_on_c, 0, 56, 0
1, 16800, Note_on_c, 0, 68, 0
1, 16800, Note_on_c, 0, 66, 0
1, 16800, Note_on_c, 0, 73, 75
1, 16800, Note_on_c, 0, 61, 56
1, 16800, Note_on_c, 0, 65, 68
1, 16880, Note_on_c, 0, 73, 0
1, 16880, Note_on_c, 0, 75, 68
1, 16960, Note_on_c, 0, 75, 0
1, 16960, Note_on_c, 0, 73, 67
1, 17040, Note_on_c, 0, 73, 0
1, 17040, Note_on_c, 0, 65, 0
1, 17040, Note_on_c, 0, 61, 0
1, 17040, Note_on_c, 0, 68, 72
1, 17040, Note_on_c, 0, 56, 60
1, 17280, Note_on_c, 0, 56, 0
1, 17280, Note_on_c, 0, 48, 62
1, 17319, Control_c, 0, 64, 127
1, 17360, Note_on_c, 0, 68, 0
1, 17360, Note_on_c, 0, 75, 70
1, 17400, Note_on_c, 0, 48, 0
1, 17440, Note_on_c, 0, 75, 0
1, 17440, Note_on_c, 0, 80, 67
1, 17520, Tempo, 528634
1, 17520, Note_on_c, 0, 80, 0
1, 17520, Note_on_c, 0, 82, 74
1, 17520, Note_on_c, 0, 66, 68
1, 17520, Note_on_c, 0, 63, 56
1, 17520, Note_on_c, 0, 56, 56
1, 17531, Control_c, 0, 64, 0
1, 17600, Note_on_c, 0, 82, 0
1, 17600, Note_on_c, 0, 80, 70
1, 17640, Note_on_c, 0, 66, 0
1, 17640, Note_on_c, 0, 56, 0
1, 17640, Note_on_c, 0, 63, 0
1, 17680, Note_on_c, 0, 80, 0
1, 17680, Note_on_c, 0, 75, 67
1, 17760, Tempo, 512821
1, 17760, Note_on_c, 0, 75, 0
1, 17760, Note_on_c, 0, 73, 71
1, 17760, Note_on_c, 0, 65, 63
1, 17760, Note_on_c, 0, 61, 53
1, 17760, Note_on_c, 0, 56, 53
1, 17778, Control_c, 0, 64, 127
1, 17840, Note_on_c, 0, 73, 0
1, 17840, Note_on_c, 0, 80, 73
1, 17880, Note_on_c, 0, 65, 0
1, 17880, Note_on_c, 0, 56, 0
1, 17880, Note_on_c, 0, 61, 0
1, 17920, Note_on_c, 0, 80, 0
1, 17920, Note_on_c, 0, 85, 72
1, 18000, Note_on_c, 0, 85, 0
1, 18000, Note_on_c, 0, 87, 74
1, 18000, Note_on_c, 0, 49, 62
1, 18080, Note_on_c, 0, 87, 0
1, 18080, Note_on_c, 0, 85, 69
1, 18120, Note_on_c, 0, 49, 0
1, 18160, Note_on_c, 0, 85, 0
1, 18160, Note_on_c, 0, 82, 67
1, 18184, Control_c, 0, 64, 0
1, 18240, Note_on_c, 0, 82, 0
1, 18240, Note_on_c, 0, 80, 72
1, 18240, Note_on_c, 0, 44, 62
1, 18290, Control_c, 0, 64, 127
1, 18320, Note_on_c, 0, 80, 0
1, 18320, Note_on_c, 0, 87, 69
1, 18360, Note_on_c, 0, 44, 0
1, 18400, Note_on_c, 0, 87, 0
1, 18400, Note_on_c, 0, 92, 67
1, 18480, Note_on_c, 0, 92, 0
1, 18480, Note_on_c, 0, 94, 72
1, 18480, Note_on_c, 0, 66, 57
1, 18480, Note_on_c, 0, 60, 48
1, 18480, Note_on_c, 0, 56, 48
1, 18515, Control_c, 0, 64, 0
1, 18560, Note_on_c, 0, 94, 0
1, 18560, Note_on_c, 0, 92, 64
1, 18600, Note_on_c, 0, 66, 0
1, 18600, Note_on_c, 0, 56, 0
1, 18600, Note_on_c, 0, 60, 0
1, 18640, Note_on_c, 0, 92, 0
1, 18640, Note_on_c, 0, 87, 59
1, 18720, Note_on_c, 0, 87, 0
1, 18720, Note_on_c, 0, 85, 77
1, 18720, Note_on_c, 0, 37, 62
1, 18738, Control_c, 0, 64, 127
1, 18800, Note_on_c, 0, 85, 0
1, 18800, Note_on_c, 0, 92, 73
1, 18840, Note_on_c, 0, 37, 0
1, 18880, Note_on_c, 0, 92, 0
1, 18880, Note_on_c, 0, 97, 68
1, 18960, Note_on_c, 0, 97, 0
1, 18960, Note_on_c, 0, 99, 72
1, 18960, Note_on_c, 0, 65, 60
1, 18960, Note_on_c, 0, 61, 50
1, 18960, Note_on_c, 0, 56, 50
1, 19040, Note_on_c, 0, 99, 0
1, 19040, Note_on_c, 0, 97, 68
1, 19080, Note_on_c, 0, 65, 0
1, 19080, Note_on_c, 0, 56, 0
1, 19080, Note_on_c, 0, 61, 0
1, 19120, Note_on_c, 0, 97, 0
1, 19120, Note_on_c, 0, 94, 68
1, 19200, Tempo, 526316
1, 19200, Note_on_c, 0, 94, 0
1, 19200, Note_on_c, 0, 92, 72
1, 19200, Control_c, 0, 64, 0
1, 19200, Note_on_c, 0, 44, 62
1, 19243, Control_c, 0, 64, 127
1, 19280, Note_on_c, 0, 92, 0
1, 19280, Note_on_c, 0, 94, 69
1, 19360, Note_on_c, 0, 94, 0
1, 19360, Note_on_c, 0, 92, 63
1, 19440, Note_on_c, 0, 92, 0
1, 19440, Note_on_c, 0, 44, 0
1, 19440, Note_on_c, 0, 87, 72
1, 19440, Note_on_c, 0, 60, 50
1, 19440, Note_on_c, 0, 68, 60
1, 19440, Note_on_c, 0, 66, 50
1, 19520, Note_on_c, 0, 87, 0
1, 19520, Note_on_c, 0, 99, 67
1, 19600, Note_on_c, 0, 99, 0
1, 19600, Note_on_c, 0, 87, 72
1, 19680, Tempo, 517241
1, 19680, Note_on_c, 0, 87, 0
1, 19680, Note_on_c, 0, 60, 0
1, 19680, Note_on_c, 0, 68, 0
1, 19680, Note_on_c, 0, 66, 0
1, 19680, Note_on_c, 0, 85, 81
1, 19680, Note_on_c, 0, 61, 56
1, 19680, Note_on_c, 0, 65, 56
1, 19680, Note_on_c, 0, 70, 68
1, 19691, Control_c, 0, 64, 0
1, 19760, Note_on_c, 0, 85, 0
1, 19760, Note_on_c, 0, 87, 73
1, 19840, Note_on_c, 0, 87, 0
1, 19840, Note_on_c, 0, 85, 67
1, 19920, Note_on_c, 0, 85, 0
1, 19920, Note_on_c, 0, 61, 0
1, 19920, Note_on_c, 0, 65, 0
1, 19920, Note_on_c, 0, 70, 0
1, 19920, Note_on_c, 0, 80, 77
1, 19920, Note_on_c, 0, 56, 50
1, 19920, Note_on_c, 0, 65, 50
1, 19920, Note_on_c, 0, 68, 60
1, 20000, Note_on_c, 0, 80, 0
1, 20000, Note_on_c, 0, 92, 75
1, 20080, Note_on_c, 0, 92, 0
1, 20080, Note_on_c, 0, 80, 67
1, 20160, Note_on_c, 0, 80, 0
1, 20160, Note_on_c, 0, 56, 0
1, 20160, Note_on_c, 0, 65, 0
1, 20160, Note_on_c, 0, 68, 0
1, 20160, Note_on_c, 0, 80, 79
1, 20160, Note_on_c, 0, 60, 56
1, 20160, Note_on_c, 0, 66, 56
1, 20160, Note_on_c, 0, 70, 68
1, 20240, Note_on_c, 0, 80, 0
1, 20240, Note_on_c, 0, 82, 70
1, 20320, Note_on_c, 0, 82, 0
1, 20320, Note_on_c, 0, 80, 65
1, 20400, Note_on_c, 0, 80, 0
1, 20400, Note_on_c, 0, 60, 0
1, 20400, Note_on_c, 0, 66, 0
1, 20400, Note_on_c, 0, 70, 0
1, 20400, Note_on_c, 0, 75, 73
1, 20400, Note_on_c, 0, 56, 52
1, 20400, Note_on_c, 0, 68, 62
1, 20400, Note_on_c, 0, 66, 52
1, 20480, Note_on_c, 0, 75, 0
1, 20480, Note_on_c, 0, 87, 68
1, 20560, Note_on_c, 0, 87, 0
1, 20560, Note_on_c, 0, 75, 65
1, 20640, Note_on_c, 0, 75, 0
1, 20640, Note_on_c, 0, 56, 0
1, 20640, Note_on_c, 0, 68, 0
1, 20640, Note_on_c, 0, 66, 0
1, 20640, Note_on_c, 0, 73, 75
1, 20640, Note_on_c, 0, 61, 55
1, 20640, Note_on_c, 0, 65, 64
1, 20720, Note_on_c, 0, 73, 0
1, 20720, Note_on_c, 0, 75, 69
1, 20800, Note_on_c, 0, 75, 0
1, 20800, Note_on_c, 0, 73, 63
1, 20880, Tempo, 535714
1, 20880, Note_on_c, 0, 73, 0
1, 20880, Note_on_c, 0, 65, 0
1, 20880, Note_on_c, 0, 61, 0
1, 20880, Note_on_c, 0, 68, 75
1, 20880, Note_on_c, 0, 56, 62
1, 21120, Tempo, 524017
1, 21120, Note_on_c, 0, 56, 0
1, 21120, Note_on_c, 0, 48, 68
1, 21156, Control_c, 0, 64, 127
1, 21200, Note_on_c, 0, 68, 0
1, 21200, Note_on_c, 0, 80, 67
1, 21240, Note_on_c, 0, 48, 0
1, 21280, Note_on_c, 0, 80, 0
1, 21280, Note_on_c, 0, 78, 64
1, 21360, Note_on_c, 0, 78, 0
1, 21360, Note_on_c, 0, 80, 75
1, 21360, Note_on_c, 0, 66, 62
1, 21360, Note_on_c, 0, 63, 52
1, 21366, Note_on_c, 0, 56, 52
1, 21440, Note_on_c, 0, 80, 0
1, 21440, Note_on_c, 0, 78, 68
1, 21480, Note_on_c, 0, 66, 0
1, 21480, Note_on_c, 0, 63, 0
1, 21486, Note_on_c, 0, 56, 0
1, 21520, Note_on_c, 0, 78, 0
1, 21520, Note_on_c, 0, 80, 65
1, 21600, Tempo, 517241
1, 21600, Note_on_c, 0, 80, 0
1, 21600, Note_on_c, 0, 90, 82
1, 21680, Note_on_c, 0, 90, 0
1, 21680, Note_on_c, 0, 80, 71
1, 21760, Note_on_c, 0, 80, 0
1, 21760, Note_on_c, 0, 78, 65
1, 21840, Note_on_c, 0, 78, 0
1, 21840, Note_on_c, 0, 80, 74
1, 21840, Note_on_c, 0, 36, 70
1, 21920, Note_on_c, 0, 80, 0
1, 21920, Note_on_c, 0, 78, 67
1, 22000, Note_on_c, 0, 78, 0
1, 22000, Note_on_c, 0, 80, 64
1, 22080, Tempo, 528634
1, 22080, Note_on_c, 0, 80, 0
1, 22080, Note_on_c, 0, 36, 0
1, 22080, Note_on_c, 0, 68, 64
1, 22080, Note_on_c, 0, 48, 72
1, 22160, Note_on_c, 0, 68, 0
1, 22160, Note_on_c, 0, 80, 68
1, 22200, Note_on_c, 0, 48, 0
1, 22240, Note_on_c, 0, 80, 0
1, 22240, Note_on_c, 0, 78, 63
1, 22320, Tempo, 519481
1, 22320, Note_on_c, 0, 78, 0
1, 22320, Note_on_c, 0, 80, 71
1, 22320, Note_on_c, 0, 63, 57
1, 22320, Note_on_c, 0, 56, 57
1, 22320, Note_on_c, 0, 66, 69
1, 22400, Note_on_c, 0, 80, 0
1, 22400, Note_on_c, 0, 78, 65
1, 22440, Note_on_c, 0, 63, 0
1, 22440, Note_on_c, 0, 66, 0
1, 22440, Note_on_c, 0, 56, 0
1, 22480, Note_on_c, 0, 78, 0
1, 22480, Note_on_c, 0, 80, 62
1, 22560, Note_on_c, 0, 80, 0
1, 22560, Note_on_c, 0, 90, 81
1, 22640, Note_on_c, 0, 90, 0
1, 22640, Note_on_c, 0, 80, 67
1, 22720, Note_on_c, 0, 80, 0
1, 22720, Note_on_c, 0, 78, 63
1, 22800, Tempo, 533333
1, 22800, Note_on_c, 0, 78, 0
1, 22800, Note_on_c, 0, 80, 69
1, 22800, Note_on_c, 0, 36, 59
1, 22800, Note_on_c, 0, 48, 70
1, 22880, Note_on_c, 0, 80, 0
1, 22880, Note_on_c, 0, 78, 67
1, 22960, Note_on_c, 0, 78, 0
1, 22960, Note_on_c, 0, 80, 64
1, 23040, Tempo, 533333
1, 23040, Note_on_c, 0, 80, 0
1, 23040, Note_on_c, 0, 48, 0
1, 23040, Note_on_c, 0, 36, 0
1, 23040, Note_on_c, 0, 70, 70
1, 23040, Note_on_c, 0, 37, 63
1, 23040, Note_on_c, 0, 49, 77
1, 23044, Control_c, 0, 64, 0
1, 23111, Control_c, 0, 64, 127
1, 23120, Note_on_c, 0, 70, 0
1, 23120, Note_on_c, 0, 82, 74
1, 23160, Note_on_c, 0, 49, 0
1, 23160, Note_on_c, 0, 37, 0
1, 23200, Note_on_c, 0, 82, 0
1, 23200, Note_on_c, 0, 78, 66
1, 23280, Tempo, 524017
1, 23280, Note_on_c, 0, 78, 0
1, 23280, Note_on_c, 0, 82, 74
1, 23280, Note_on_c, 0, 66, 73
1, 23280, Note_on_c, 0, 61, 62
1, 23280, Note_on_c, 0, 58, 62
1, 23360, Note_on_c, 0, 82, 0
1, 23360, Note_on_c, 0, 78, 70
1, 23440, Note_on_c, 0, 78, 0
1, 23440, Note_on_c, 0, 82, 66
1, 23520, Note_on_c, 0, 82, 0
1, 23520, Note_on_c, 0, 66, 0
1, 23520, Note_on_c, 0, 61, 0
1, 23520, Note_on_c, 0, 58, 0
1, 23520, Note_on_c, 0, 90, 83
1, 23520, Note_on_c, 0, 36, 62
1, 23520, Note_on_c, 0, 48, 73
1, 23523, Control_c, 0, 64, 0
1, 23600, Note_on_c, 0, 90, 0
1, 23600, Note_on_c, 0, 82, 71
1, 23680, Note_on_c, 0, 82, 0
1, 23680, Note_on_c, 0, 78, 68
1, 23760, Note_on_c, 0, 78, 0
1, 23760, Note_on_c, 0, 48, 0
1, 23760, Note_on_c, 0, 36, 0
1, 23760, Note_on_c, 0, 82, 77
1, 23760, Note_on_c, 0, 37, 61
1, 23760, Note_on_c, 0, 49, 72
1, 23840, Note_on_c, 0, 82, 0
1, 23840, Note_on_c, 0, 78, 72
1, 23920, Note_on_c, 0, 78, 0
1, 23920, Note_on_c, 0, 82, 67
1, 24000, Note_on_c, 0, 82, 0
1, 24000, Note_on_c, 0, 49, 0
1, 24000, Note_on_c, 0, 37, 0
1, 24000, Note_on_c, 0, 70, 73
1, 24000, Note_on_c, 0, 38, 69
1, 24000, Note_on_c, 0, 50, 81
1, 24036, Control_c, 0, 64, 127
1, 24080, Note_on_c, 0, 70, 0
1, 24080, Note_on_c, 0, 82, 75
1, 24160, Note_on_c, 0, 82, 0
1, 24160, Note_on_c, 0, 78, 72
1, 24240, Note_on_c, 0, 78, 0
1, 24240, Note_on_c, 0, 50, 0
1, 24240, Note_on_c, 0, 38, 0
1, 24240, Note_on_c, 0, 82, 78
1, 24240, Note_on_c, 0, 66, 77
1, 24240, Note_on_c, 0, 58, 63
1, 24320, Note_on_c, 0, 82, 0
1, 24320, Note_on_c, 0, 78, 72
1, 24400, Note_on_c, 0, 78, 0
1, 24400, Note_on_c, 0, 82, 67
1, 24480, Note_on_c, 0, 82, 0
1, 24480, Note_on_c, 0, 58, 0
1, 24480, Note_on_c, 0, 66, 0
1, 24480, Note_on_c, 0, 90, 85
1, 24480, Note_on_c, 0, 37, 64
1, 24480, Note_on_c, 0, 49, 78
1, 24494, Control_c, 0, 64, 0
1, 24560, Note_on_c, 0, 90, 0
1, 24560, Note_on_c, 0, 82, 74
1, 24640, Note_on_c, 0, 82, 0
1, 24640, Note_on_c, 0, 78, 71
1, 24720, Note_on_c, 0, 78, 0
1, 24720, Note_on_c, 0, 49, 0
1, 24720, Note_on_c, 0, 37, 0
1, 24720, Note_on_c, 0, 82, 80
1, 24720, Note_on_c, 0, 38, 63
1, 24720, Note_on_c, 0, 50, 75
1, 24800, Note_on_c, 0, 82, 0
1, 24800, Note_on_c, 0, 78, 77
1, 24880, Note_on_c, 0, 78, 0
1, 24880, Note_on_c, 0, 82, 74
1, 24960, Tempo, 530973
1, 24960, Note_on_c, 0, 82, 0
1, 24960, Note_on_c, 0, 50, 0
1, 24960, Note_on_c, 0, 38, 0
1, 24960, Note_on_c, 0, 78, 80
1, 24960, Note_on_c, 0, 39, 70
1, 24960, Note_on_c, 0, 51, 82
1, 25010, Control_c, 0, 64, 127
1, 25040, Note_on_c, 0, 78, 0
1, 25040, Note_on_c, 0, 82, 77
1, 25120, Note_on_c, 0, 82, 0
1, 25120, Note_on_c, 0, 78, 78
1, 25200, Note_on_c, 0, 78, 0
1, 25200, Note_on_c, 0, 51, 0
1, 25200, Note_on_c, 0, 39, 0
1, 25200, Note_on_c, 0, 94, 87
1, 25200, Note_on_c, 0, 66, 80
1, 25200, Note_on_c, 0, 58, 68
1, 25260, Note_on_c, 0, 94, 0
1, 25280, Note_on_c, 0, 82, 76
1, 25360, Note_on_c, 0, 82, 0
1, 25360, Note_on_c, 0, 78, 70
1, 25440, Tempo, 524017
1, 25440, Note_on_c, 0, 78, 0
1, 25440, Note_on_c, 0, 92, 89
1, 25500, Note_on_c, 0, 92, 0
1, 25520, Note_on_c, 0, 82, 70
1, 25600, Note_on_c, 0, 82, 0
1, 25600, Note_on_c, 0, 78, 73
1, 25680, Note_on_c, 0, 78, 0
1, 25680, Note_on_c, 0, 58, 0
1, 25680, Note_on_c, 0, 66, 0
1, 25680, Note_on_c, 0, 90, 89
1, 25680, Note_on_c, 0, 39, 69
1, 25680, Note_on_c, 0, 51, 81
1, 25740, Note_on_c, 0, 90, 0
1, 25760, Note_on_c, 0, 82, 78
1, 25840, Note_on_c, 0, 82, 0
1, 25840, Note_on_c, 0, 78, 73
1, 25920, Note_on_c, 0, 78, 0
1, 25920, Note_on_c, 0, 51, 0
1, 25920, Note_on_c, 0, 39, 0
1, 25920, Note_on_c, 0, 85, 80
1, 25920, Note_on_c, 0, 40, 73
1, 25920, Note_on_c, 0, 52, 88
1, 25927, Control_c, 0, 64, 0
1, 25994, Control_c, 0, 64, 127
1, 26000, Note_on_c, 0, 85, 0
1, 26000, Note_on_c, 0, 82, 73
1, 26080, Note_on_c, 0, 82, 0
1, 26080, Note_on_c, 0, 78, 76
1, 26160, Note_on_c, 0, 78, 0
1, 26160, Note_on_c, 0, 52, 0
1, 26160, Note_on_c, 0, 40, 0
1, 26160, Note_on_c, 0, 94, 90
1, 26160, Note_on_c, 0, 66, 84
1, 26160, Note_on_c, 0, 58, 70
1, 26220, Note_on_c, 0, 94, 0
1, 26240, Note_on_c, 0, 82, 76
1, 26320, Note_on_c, 0, 82, 0
1, 26320, Note_on_c, 0, 78, 79
1, 26400, Note_on_c, 0, 78, 0
1, 26400, Note_on_c, 0, 92, 94
1, 26460, Note_on_c, 0, 92, 0
1, 26480, Note_on_c, 0, 82, 77
1, 26560, Note_on_c, 0, 82, 0
1, 26560, Note_on_c, 0, 78, 76
1, 26640, Note_on_c, 0, 78, 0
1, 26640, Note_on_c, 0, 58, 0
1, 26640, Note_on_c, 0, 66, 0
1, 26640, Note_on_c, 0, 90, 95
1, 26640, Note_on_c, 0, 40, 71
1, 26640, Note_on_c, 0, 52, 85
1, 26700, Note_on_c, 0, 90, 0
1, 26720, Note_on_c, 0, 82, 76
1, 26800, Note_on_c, 0, 82, 0
1, 26800, Note_on_c, 0, 78, 79
1, 26880, Note_on_c, 0, 78, 0
1, 26880, Note_on_c, 0, 52, 0
1, 26880, Note_on_c, 0, 40, 0
1, 26880, Note_on_c, 0, 73, 87
1, 26880, Note_on_c, 0, 41, 78
1, 26880, Note_on_c, 0, 53, 91
1, 26889, Control_c, 0, 64, 0
1, 26926, Control_c, 0, 64, 127
1, 26960, Note_on_c, 0, 73, 0
1, 26960, Note_on_c, 0, 85, 78
1, 27000, Note_on_c, 0, 53, 0
1, 27000, Note_on_c, 0, 41, 0
1, 27040, Note_on_c, 0, 85, 0
1, 27040, Note_on_c, 0, 82, 75
1, 27120, Note_on_c, 0, 82, 0
1, 27120, Note_on_c, 0, 85, 88
1, 27120, Note_on_c, 0, 65, 88
1, 27120, Note_on_c, 0, 61, 73
1, 27120, Note_on_c, 0, 58, 73
1, 27200, Note_on_c, 0, 85, 0
1, 27200, Note_on_c, 0, 85, 75
1, 27280, Note_on_c, 0, 85, 0
1, 27280, Note_on_c, 0, 97, 80
1, 27360, Note_on_c, 0, 97, 0
1, 27360, Note_on_c, 0, 65, 0
1, 27360, Note_on_c, 0, 61, 0
1, 27360, Note_on_c, 0, 58, 0
1, 27360, Note_on_c, 0, 94, 94
1, 27360, Note_on_c, 0, 40, 77
1, 27360, Note_on_c, 0, 52, 90
1, 27367, Control_c, 0, 64, 0
1, 27440, Note_on_c, 0, 94, 0
1, 27440, Note_on_c, 0, 97, 77
1, 27520, Note_on_c, 0, 97, 0
1, 27520, Note_on_c, 0, 85, 76
1, 27600, Note_on_c, 0, 85, 0
1, 27600, Note_on_c, 0, 52, 0
1, 27600, Note_on_c, 0, 40, 0
1, 27600, Note_on_c, 0, 85, 89
1, 27600, Note_on_c, 0, 41, 77
1, 27600, Note_on_c, 0, 53, 90
1, 27680, Note_on_c, 0, 85, 0
1, 27680, Note_on_c, 0, 82, 77
1, 27760, Note_on_c, 0, 82, 0
1, 27760, Note_on_c, 0, 85, 82
1, 27840, Note_on_c, 0, 85, 0
1, 27840, Note_on_c, 0, 53, 0
1, 27840, Note_on_c, 0, 41, 0
1, 27840, Note_on_c, 0, 73, 89
1, 27840, Note_on_c, 0, 42, 82
1, 27840, Note_on_c, 0, 54, 97
1, 27875, Control_c, 0, 64, 127
1, 27920, Note_on_c, 0, 73, 0
1, 27920, Note_on_c, 0, 85, 85
1, 27960, Note_on_c, 0, 54, 0
1, 27960, Note_on_c, 0, 42, 0
1, 28000, Note_on_c, 0, 85, 0
1, 28000, Note_on_c, 0, 82, 81
1, 28080, Note_on_c, 0, 82, 0
1, 28080, Note_on_c, 0, 85, 90
1, 28080, Note_on_c, 0, 61, 79
1, 28080, Note_on_c, 0, 64, 94
1, 28080, Note_on_c, 0, 58, 79
1, 28160, Note_on_c, 0, 85, 0
1, 28160, Note_on_c, 0, 85, 85
1, 28200, Note_on_c, 0, 61, 0
1, 28200, Note_on_c, 0, 58, 0
1, 28200, Note_on_c, 0, 64, 0
1, 28240, Note_on_c, 0, 85, 0
1, 28240, Note_on_c, 0, 97, 85
1, 28320, Note_on_c, 0, 97, 0
1, 28320, Note_on_c, 0, 94, 101
1, 28320, Note_on_c, 0, 41, 80
1, 28320, Note_on_c, 0, 53, 95
1, 28341, Control_c, 0, 64, 0
1, 28400, Note_on_c, 0, 94, 0
1, 28400, Note_on_c, 0, 97, 86
1, 28480, Note_on_c, 0, 97, 0
1, 28480, Note_on_c, 0, 85, 84
1, 28560, Note_on_c, 0, 85, 0
1, 28560, Note_on_c, 0, 53, 0
1, 28560, Note_on_c, 0, 41, 0
1, 28560, Note_on_c, 0, 85, 93
1, 28560, Note_on_c, 0, 42, 78
1, 28560, Note_on_c, 0, 54, 91
1, 28640, Note_on_c, 0, 85, 0
1, 28640, Note_on_c, 0, 82, 85
1, 28720, Note_on_c, 0, 82, 0
1, 28720, Note_on_c, 0, 85, 80
1, 28800, Tempo, 533333
1, 28800, Note_on_c, 0, 85, 0
1, 28800, Note_on_c, 0, 54, 0
1, 28800, Note_on_c, 0, 42, 0
1, 28800, Note_on_c, 0, 73, 94
1, 28800, Note_on_c, 0, 43, 89
1, 28800, Note_on_c, 0, 55, 105
1, 28856, Control_c, 0, 64, 127
1, 28880, Note_on_c, 0, 73, 0
1, 28880, Note_on_c, 0, 85, 85
1, 28960, Note_on_c, 0, 85, 0
1, 28960, Note_on_c, 0, 82, 81
1, 29040, Note_on_c, 0, 82, 0
1, 29040, Note_on_c, 0, 55, 0
1, 29040, Note_on_c, 0, 43, 0
1, 29040, Note_on_c, 0, 85, 94
1, 29040, Note_on_c, 0, 64, 96
1, 29040, Note_on_c, 0, 61, 81
1, 29040, Note_on_c, 0, 55, 81
1, 29120, Note_on_c, 0, 85, 0
1, 29120, Note_on_c, 0, 85, 84
1, 29200, Note_on_c, 0, 85, 0
1, 29200, Note_on_c, 0, 97, 80
1, 29280, Note_on_c, 0, 97, 0
1, 29280, Note_on_c, 0, 64, 0
1, 29280, Note_on_c, 0, 61, 0
1, 29280, Note_on_c, 0, 55, 0
1, 29280, Note_on_c, 0, 92, 95
1, 29280, Note_on_c, 0, 44, 81
1, 29280, Note_on_c, 0, 56, 96
1, 29286, Control_c, 0, 64, 0
1, 29340, Control_c, 0, 64, 127
1, 29360, Note_on_c, 0, 92, 0
1, 29360, Note_on_c, 0, 97, 85
1, 29440, Note_on_c, 0, 97, 0
1, 29440, Note_on_c, 0, 85, 83
1, 29520, Note_on_c, 0, 85, 0
1, 29520, Note_on_c, 0, 56, 0
1, 29520, Note_on_c, 0, 44, 0
1, 29520, Note_on_c, 0, 85, 95
1, 29520, Note_on_c, 0, 65, 96
1, 29520, Note_on_c, 0, 61, 81
1, 29520, Note_on_c, 0, 56, 81
1, 29600, Note_on_c, 0, 85, 0
1, 29600, Note_on_c, 0, 80, 90
1, 29680, Note_on_c, 0, 80, 0
1, 29680, Note_on_c, 0, 85, 86
1, 29760, Tempo, 550459
1, 29760, Note_on_c, 0, 85, 0
1, 29760, Note_on_c, 0, 65, 0
1, 29760, Note_on_c, 0, 61, 0
1, 29760, Note_on_c, 0, 56, 0
1, 29760, Note_on_c, 0, 73, 97
1, 29760, Note_on_c, 0, 45, 86
1, 29760, Note_on_c, 0, 57, 103
1, 29768, Control_c, 0, 64, 0
1, 29820, Control_c, 0, 64, 127
1, 29840, Note_on_c, 0, 73, 0
1, 29840, Note_on_c, 0, 85, 90
1, 29920, Note_on_c, 0, 85, 0
1, 29920, Note_on_c, 0, 78, 85
1, 30000, Note_on_c, 0, 78, 0
1, 30000, Note_on_c, 0, 57, 0
1, 30000, Note_on_c, 0, 45, 0
1, 30000, Note_on_c, 0, 85, 93
1, 30000, Note_on_c, 0, 66, 94
1, 30000, Note_on_c, 0, 63, 79
1, 30000, Note_on_c, 0, 57, 79
1, 30080, Note_on_c, 0, 85, 0
1, 30080, Note_on_c, 0, 73, 87
1, 30160, Note_on_c, 0, 73, 0
1, 30160, Note_on_c, 0, 73, 84
1, 30240, Note_on_c, 0, 73, 0
1, 30240, Note_on_c, 0, 66, 0
1, 30240, Note_on_c, 0, 63, 0
1, 30240, Note_on_c, 0, 57, 0
1, 30240, Note_on_c, 0, 66, 95
1, 30320, Note_on_c, 0, 66, 0
1, 30320, Note_on_c, 0, 73, 90
1, 30400, Note_on_c, 0, 73, 0
1, 30400, Note_on_c, 0, 61, 85
1, 30480, Tempo, 585366
1, 30480, Note_on_c, 0, 61, 0
1, 30480, Note_on_c, 0, 61, 100
1, 30480, Note_on_c, 0, 33, 89
1, 30480, Note_on_c, 0, 45, 106
1, 30560, Note_on_c, 0, 61, 0
1, 30560, Note_on_c, 0, 54, 89
1, 30640, Note_on_c, 0, 54, 0
1, 30640, Note_on_c, 0, 61, 85
1, 30720, Tempo, 530973
1, 30720, Note_on_c, 0, 61, 0
1, 30720, Note_on_c, 0, 45, 0
1, 30720, Note_on_c, 0, 33, 0
1, 30720, Note_on_c, 0, 51, 74
1, 30720, Note_on_c, 0, 32, 89
1, 30720, Note_on_c, 0, 44, 106
1, 30729, Control_c, 0, 64, 0
1, 30794, Control_c, 0, 64, 127
1, 30800, Note_on_c, 0, 51, 0
1, 30800, Note_on_c, 0, 54, 71
1, 30880, Note_on_c, 0, 54, 0
1, 30880, Note_on_c, 0, 61, 72
1, 30960, Note_on_c, 0, 61, 0
1, 30960, Note_on_c, 0, 63, 77
1, 31040, Note_on_c, 0, 63, 0
1, 31040, Note_on_c, 0, 54, 70
1, 31120, Note_on_c, 0, 54, 0
1, 31120, Note_on_c, 0, 61, 72
1, 31200, Note_on_c, 0, 61, 0
1, 31200, Note_on_c, 0, 63, 81
1, 31280, Note_on_c, 0, 63, 0
1, 31280, Note_on_c, 0, 66, 78
1, 31360, Note_on_c, 0, 66, 0
1, 31360, Note_on_c, 0, 61, 75
1, 31440, Note_on_c, 0, 61, 0
1, 31440, Note_on_c, 0, 63, 83
1, 31520, Note_on_c, 0, 63, 0
1, 31520, Note_on_c, 0, 66, 77
1, 31600, Note_on_c, 0, 66, 0
1, 31600, Note_on_c, 0, 73, 73
1, 31680, Note_on_c, 0, 73, 0
1, 31680, Note_on_c, 0, 44, 0
1, 31680, Note_on_c, 0, 32, 0
1, 31680, Note_on_c, 0, 63, 87
1, 31760, Note_on_c, 0, 63, 0
1, 31760, Note_on_c, 0, 66, 80
1, 31840, Note_on_c, 0, 66, 0
1, 31840, Note_on_c, 0, 73, 77
1, 31920, Note_on_c, 0, 73, 0
1, 31920, Note_on_c, 0, 75, 89
1, 32000, Note_on_c, 0, 75, 0
1, 32000, Note_on_c, 0, 66, 78
1, 32080, Note_on_c, 0, 66, 0
1, 32080, Note_on_c, 0, 73, 75
1, 32160, Tempo, 550459
1, 32160, Note_on_c, 0, 73, 0
1, 32160, Note_on_c, 0, 75, 89
1, 32160, Note_on_c, 0, 66, 100
1, 32160, Note_on_c, 0, 61, 83
1, 32160, Note_on_c, 0, 56, 83
1, 32240, Note_on_c, 0, 75, 0
1, 32240, Note_on_c, 0, 78, 78
1, 32320, Note_on_c, 0, 78, 0
1, 32320, Note_on_c, 0, 73, 76
1, 32400, Note_on_c, 0, 73, 0
1, 32400, Note_on_c, 0, 75, 89
1, 32480, Note_on_c, 0, 75, 0
1, 32480, Note_on_c, 0, 85, 78
1, 32520, Note_on_c, 0, 56, 0
1, 32520, Note_on_c, 0, 66, 0
1, 32520, Note_on_c, 0, 61, 0
1, 32520, Note_on_c, 0, 66, 92
1, 32520, Note_on_c, 0, 61, 77
1, 32520, Note_on_c, 0, 56, 77
1, 32560, Note_on_c, 0, 85, 0
1, 32560, Note_on_c, 0, 78, 75
1, 32640, Tempo, 530973
1, 32640, Note_on_c, 0, 78, 0
1, 32640, Note_on_c, 0, 56, 0
1, 32640, Note_on_c, 0, 61, 0
1, 32640, Note_on_c, 0, 66, 0
1, 32640, Note_on_c, 0, 75, 89
1, 32640, Note_on_c, 0, 56, 83
1, 32640, Note_on_c, 0, 66, 100
1, 32640, Note_on_c, 0, 61, 83
1, 32720, Note_on_c, 0, 75, 0
1, 32720, Note_on_c, 0, 78, 81
1, 32800, Note_on_c, 0, 78, 0
1, 32800, Note_on_c, 0, 87, 86
1, 32880, Note_on_c, 0, 87, 0
1, 32880, Note_on_c, 0, 85, 85
1, 32960, Note_on_c, 0, 85, 0
1, 32960, Note_on_c, 0, 78, 78
1, 33040, Note_on_c, 0, 78, 0
1, 33040, Note_on_c, 0, 75, 84
1, 33120, Note_on_c, 0, 75, 0
1, 33120, Note_on_c, 0, 85, 81
1, 33200, Note_on_c, 0, 85, 0
1, 33200, Note_on_c, 0, 78, 76
1, 33280, Note_on_c, 0, 78, 0
1, 33280, Note_on_c, 0, 75, 71
1, 33360, Note_on_c, 0, 75, 0
1, 33360, Note_on_c, 0, 73, 78
1, 33440, Note_on_c, 0, 73, 0
1, 33440, Note_on_c, 0, 78, 71
1, 33520, Note_on_c, 0, 78, 0
1, 33520, Note_on_c, 0, 75, 75
1, 33600, Note_on_c, 0, 75, 0
1, 33600, Note_on_c, 0, 61, 0
1, 33600, Note_on_c, 0, 66, 0
1, 33600, Note_on_c, 0, 56, 0
1, 33600, Note_on_c, 0, 73, 74
1, 33680, Note_on_c, 0, 73, 0
1, 33680, Note_on_c, 0, 66, 69
1, 33760, Note_on_c, 0, 66, 0
1, 33760, Note_on_c, 0, 75, 72
1, 33840, Note_on_c, 0, 75, 0
1, 33840, Note_on_c, 0, 73, 71
1, 33920, Note_on_c, 0, 73, 0
1, 33920, Note_on_c, 0, 66, 66
1, 34000, Note_on_c, 0, 66, 0
1, 34000, Note_on_c, 0, 63, 69
1, 34080, Tempo, 550459
1, 34080, Note_on_c, 0, 63, 0
1, 34080, Note_on_c, 0, 73, 67
1, 34160, Note_on_c, 0, 73, 0
1, 34160, Note_on_c, 0, 66, 61
1, 34240, Note_on_c, 0, 66, 0
1, 34240, Note_on_c, 0, 63, 65
1, 34320, Note_on_c, 0, 63, 0
1, 34320, Note_on_c, 0, 61, 64
1, 34400, Note_on_c, 0, 61, 0
1, 34400, Note_on_c, 0, 66, 59
1, 34480, Note_on_c, 0, 66, 0
1, 34480, Note_on_c, 0, 63, 62
1, 34560, Tempo, 530973
1, 34560, Note_on_c, 0, 63, 0
1, 34560, Note_on_c, 0, 56, 52
1, 34560, Note_on_c, 0, 32, 52
1, 34560, Note_on_c, 0, 44, 62
1, 34567, Control_c, 0, 64, 0
1, 34631, Control_c, 0, 64, 127
1, 34640, Note_on_c, 0, 56, 0
1, 34640, Note_on_c, 0, 63, 54
1, 34720, Note_on_c, 0, 63, 0
1, 34720, Note_on_c, 0, 66, 54
1, 34800, Note_on_c, 0, 66, 0
1, 34800, Note_on_c, 0, 68, 56
1, 34880, Note_on_c, 0, 68, 0
1, 34880, Note_on_c, 0, 63, 56
1, 34960, Note_on_c, 0, 63, 0
1, 34960, Note_on_c, 0, 66, 54
1, 35040, Note_on_c, 0, 66, 0
1, 35040, Note_on_c, 0, 68, 58
1, 35120, Note_on_c, 0, 68, 0
1, 35120, Note_on_c, 0, 75, 58
1, 35200, Note_on_c, 0, 75, 0
1, 35200, Note_on_c, 0, 66, 56
1, 35280, Note_on_c, 0, 66, 0
1, 35280, Note_on_c, 0, 68, 60
1, 35360, Note_on_c, 0, 68, 0
1, 35360, Note_on_c, 0, 75, 60
1, 35440, Note_on_c, 0, 75, 0
1, 35440, Note_on_c, 0, 78, 58
1, 35520, Note_on_c, 0, 78, 0
1, 35520, Note_on_c, 0, 44, 0
1, 35520, Note_on_c, 0, 32, 0
1, 35520, Note_on_c, 0, 68, 62
1, 35600, Note_on_c, 0, 68, 0
1, 35600, Note_on_c, 0, 75, 58
1, 35680, Note_on_c, 0, 75, 0
1, 35680, Note_on_c, 0, 78, 62
1, 35760, Note_on_c, 0, 78, 0
1, 35760, Note_on_c, 0, 80, 62
1, 35840, Note_on_c, 0, 80, 0
1, 35840, Note_on_c, 0, 75, 54
1, 35920, Note_on_c, 0, 75, 0
1, 35920, Note_on_c, 0, 78, 58
1, 36000, Note_on_c, 0, 78, 0
1, 36000, Note_on_c, 0, 80, 62
1, 36000, Note_on_c, 0, 56, 52
1, 36000, Note_on_c, 0, 66, 52
1, 36000, Note_on_c, 0, 60, 52
1, 36000, Note_on_c, 0, 68, 62
1, 36080, Note_on_c, 0, 80, 0
1, 36080, Note_on_c, 0, 87, 65
1, 36160, Note_on_c, 0, 87, 0
1, 36160, Note_on_c, 0, 78, 60
1, 36240, Note_on_c, 0, 78, 0
1, 36240, Note_on_c, 0, 80, 62
1, 36320, Note_on_c, 0, 80, 0
1, 36320, Note_on_c, 0, 90, 58
1, 36360, Note_on_c, 0, 68, 0
1, 36360, Note_on_c, 0, 60, 0
1, 36360, Note_on_c, 0, 56, 0
1, 36360, Note_on_c, 0, 66, 0
1, 36360, Note_on_c, 0, 68, 57
1, 36360, Note_on_c, 0, 66, 48
1, 36360, Note_on_c, 0, 60, 48
1, 36360, Note_on_c, 0, 56, 48
1, 36400, Note_on_c, 0, 90, 0
1, 36400, Note_on_c, 0, 87, 59
1, 36480, Note_on_c, 0, 87, 0
1, 36480, Note_on_c, 0, 56, 0
1, 36480, Note_on_c, 0, 68, 0
1, 36480, Note_on_c, 0, 66, 0
1, 36480, Note_on_c, 0, 60, 0
1, 36480, Note_on_c, 0, 80, 59
1, 36480, Note_on_c, 0, 68, 62
1, 36480, Note_on_c, 0, 66, 52
1, 36480, Note_on_c, 0, 60, 52
1, 36480, Note_on_c, 0, 56, 52
1, 36560, Note_on_c, 0, 80, 0
1, 36560, Note_on_c, 0, 78, 59
1, 36640, Note_on_c, 0, 78, 0
1, 36640, Note_on_c, 0, 87, 58
1, 36720, Note_on_c, 0, 87, 0
1, 36720, Note_on_c, 0, 80, 58
1, 36800, Note_on_c, 0, 80, 0
1, 36800, Note_on_c, 0, 78, 57
1, 36880, Note_on_c, 0, 78, 0
1, 36880, Note_on_c, 0, 75, 56
1, 36960, Note_on_c, 0, 75, 0
1, 36960, Note_on_c, 0, 80, 56
1, 37040, Note_on_c, 0, 80, 0
1, 37040, Note_on_c, 0, 78, 56
1, 37120, Note_on_c, 0, 78, 0
1, 37120, Note_on_c, 0, 75, 54
1, 37200, Note_on_c, 0, 75, 0
1, 37200, Note_on_c, 0, 68, 54
1, 37280, Note_on_c, 0, 68, 0
1, 37280, Note_on_c, 0, 78, 52
1, 37360, Note_on_c, 0, 78, 0
1, 37360, Note_on_c, 0, 75, 52
1, 37440, Tempo, 528634
1, 37440, Note_on_c, 0, 75, 0
1, 37440, Note_on_c, 0, 56, 0
1, 37440, Note_on_c, 0, 68, 0
1, 37440, Note_on_c, 0, 66, 0
1, 37440, Note_on_c, 0, 60, 0
1, 37440, Note_on_c, 0, 68, 52
1, 37520, Note_on_c, 0, 68, 0
1, 37520, Note_on_c, 0, 66, 51
1, 37560, Tempo, 530973
1, 37600, Note_on_c, 0, 66, 0
1, 37600, Note_on_c, 0, 75, 51
1, 37680, Tempo, 533333
1, 37680, Note_on_c, 0, 75, 0
1, 37680, Note_on_c, 0, 68, 50
1, 37760, Note_on_c, 0, 68, 0
1, 37760, Note_on_c, 0, 66, 49
1, 37800, Tempo, 535714
1, 37840, Note_on_c, 0, 66, 0
1, 37840, Note_on_c, 0, 63, 49
1, 37920, Tempo, 538117
1, 37920, Note_on_c, 0, 63, 0
1, 37920, Note_on_c, 0, 68, 48
1, 38000, Tempo, 540541
1, 38000, Note_on_c, 0, 68, 0
1, 38000, Note_on_c, 0, 66, 48
1, 38040, Tempo, 542986
1, 38080, Tempo, 545455
1, 38080, Note_on_c, 0, 66, 0
1, 38080, Note_on_c, 0, 63, 48
1, 38120, Tempo, 547945
1, 38160, Note_on_c, 0, 63, 0
1, 38160, Note_on_c, 0, 56, 46
1, 38200, Tempo, 550459
1, 38240, Tempo, 552995
1, 38240, Note_on_c, 0, 56, 0
1, 38240, Note_on_c, 0, 66, 46
1, 38280, Tempo, 555556
1, 38320, Tempo, 558140
1, 38320, Note_on_c, 0, 66, 0
1, 38320, Note_on_c, 0, 63, 44
1, 38400, Tempo, 582016
1, 38400, Note_on_c, 0, 63, 0
1, 38400, Note_on_c, 0, 61, 65
1, 38400, Note_on_c, 0, 37, 63
1, 38403, Control_c, 0, 64, 0
1, 38478, Control_c, 0, 64, 127
1, 38480, Note_on_c, 0, 61, 0
1, 38480, Note_on_c, 0, 73, 59
1, 38520, Note_on_c, 0, 37, 0
1, 38560, Note_on_c, 0, 73, 0
1, 38560, Note_on_c, 0, 68, 55
1, 38640, Note_on_c, 0, 68, 0
1, 38640, Note_on_c, 0, 73, 65
1, 38720, Note_on_c, 0, 73, 0
1, 38720, Note_on_c, 0, 65, 59
1, 38800, Note_on_c, 0, 65, 0
1, 38800, Note_on_c, 0, 80, 58
1, 38880, Tempo, 530035
1, 38880, Note_on_c, 0, 80, 0
1, 38880, Note_on_c, 0, 73, 70
1, 38880, Note_on_c, 0, 65, 70
1, 38880, Note_on_c, 0, 56, 59
1, 38884, Control_c, 0, 64, 0
1, 38947, Control_c, 0, 64, 127
1, 38960, Note_on_c, 0, 73, 0
1, 38960, Note_on_c, 0, 80, 66
1, 39040, Note_on_c, 0, 80, 0
1, 39040, Note_on_c, 0, 68, 66
1, 39120, Note_on_c, 0, 68, 0
1, 39120, Note_on_c, 0, 73, 70
1, 39200, Note_on_c, 0, 73, 0
1, 39200, Note_on_c, 0, 68, 66
1, 39280, Note_on_c, 0, 68, 0
1, 39280, Note_on_c, 0, 73, 62
1, 39360, Note_on_c, 0, 73, 0
1, 39360, Note_on_c, 0, 61, 65
1, 39440, Note_on_c, 0, 61, 0
1, 39440, Note_on_c, 0, 73, 63
1, 39520, Note_on_c, 0, 73, 0
1, 39520, Note_on_c, 0, 68, 58
1, 39600, Note_on_c, 0, 68, 0
1, 39600, Note_on_c, 0, 73, 65
1, 39680, Note_on_c, 0, 73, 0
1, 39680, Note_on_c, 0, 68, 63
1, 39760, Note_on_c, 0, 68, 0
1, 39760, Note_on_c, 0, 80, 57
1, 39840, Tempo, 539714
1, 39840, Note_on_c, 0, 80, 0
1, 39840, Note_on_c, 0, 56, 0
1, 39840, Note_on_c, 0, 65, 0
1, 39840, Note_on_c, 0, 73, 65
1, 39840, Control_c, 0, 64, 0
1, 39840, Note_on_c, 0, 64, 63
1, 39840, Note_on_c, 0, 55, 53
1, 39883, Control_c, 0, 64, 127
1, 39920, Note_on_c, 0, 73, 0
1, 39920, Note_on_c, 0, 80, 59
1, 40000, Note_on_c, 0, 80, 0
1, 40000, Note_on_c, 0, 68, 55
1, 40080, Note_on_c, 0, 68, 0
1, 40080, Note_on_c, 0, 73, 65
1, 40160, Note_on_c, 0, 73, 0
1, 40160, Note_on_c, 0, 68, 63
1, 40200, Note_on_c, 0, 55, 0
1, 40200, Note_on_c, 0, 64, 0
1, 40200, Note_on_c, 0, 65, 63
1, 40200, Note_on_c, 0, 56, 53
1, 40240, Note_on_c, 0, 68, 0
1, 40240, Note_on_c, 0, 73, 58
1, 40320, Tempo, 557414
1, 40320, Note_on_c, 0, 73, 0
1, 40320, Note_on_c, 0, 56, 0
1, 40320, Note_on_c, 0, 65, 0
1, 40320, Note_on_c, 0, 61, 65
1, 40320, Control_c, 0, 64, 0
1, 40320, Note_on_c, 0, 49, 63
1, 40377, Control_c, 0, 64, 127
1, 40400, Note_on_c, 0, 61, 0
1, 40400, Note_on_c, 0, 73, 58
1, 40440, Note_on_c, 0, 49, 0
1, 40480, Note_on_c, 0, 73, 0
1, 40480, Note_on_c, 0, 68, 56
1, 40560, Note_on_c, 0, 68, 0
1, 40560, Note_on_c, 0, 73, 65
1, 40640, Note_on_c, 0, 73, 0
1, 40640, Note_on_c, 0, 73, 58
1, 40720, Note_on_c, 0, 73, 0
1, 40720, Note_on_c, 0, 85, 55
1, 40800, Tempo, 530035
1, 40800, Note_on_c, 0, 85, 0
1, 40800, Note_on_c, 0, 80, 71
1, 40800, Note_on_c, 0, 65, 72
1, 40800, Note_on_c, 0, 56, 61
1, 40814, Control_c, 0, 64, 0
1, 40878, Control_c, 0, 64, 127
1, 40880, Note_on_c, 0, 80, 0
1, 40880, Note_on_c, 0, 85, 64
1, 40960, Note_on_c, 0, 85, 0
1, 40960, Note_on_c, 0, 73, 62
1, 41040, Note_on_c, 0, 73, 0
1, 41040, Note_on_c, 0, 73, 71
1, 41120, Note_on_c, 0, 73, 0
1, 41120, Note_on_c, 0, 68, 67
1, 41200, Note_on_c, 0, 68, 0
1, 41200, Note_on_c, 0, 73, 62
1, 41280, Note_on_c, 0, 73, 0
1, 41280, Note_on_c, 0, 68, 65
1, 41360, Note_on_c, 0, 68, 0
1, 41360, Note_on_c, 0, 80, 59
1, 41440, Note_on_c, 0, 80, 0
1, 41440, Note_on_c, 0, 73, 54
1, 41520, Note_on_c, 0, 73, 0
1, 41520, Note_on_c, 0, 80, 65
1, 41600, Note_on_c, 0, 80, 0
1, 41600, Note_on_c, 0, 80, 58
1, 41680, Note_on_c, 0, 80, 0
1, 41680, Note_on_c, 0, 92, 59
1, 41760, Tempo, 542152
1, 41760, Note_on_c, 0, 92, 0
1, 41760, Note_on_c, 0, 56, 0
1, 41760, Note_on_c, 0, 65, 0
1, 41760, Note_on_c, 0, 85, 65
1, 41760, Note_on_c, 0, 64, 75
1, 41760, Note_on_c, 0, 55, 63
1, 41764, Control_c, 0, 64, 0
1, 41831, Control_c, 0, 64, 127
1, 41840, Note_on_c, 0, 85, 0
1, 41840, Note_on_c, 0, 92, 57
1, 41920, Note_on_c, 0, 92, 0
1, 41920, Note_on_c, 0, 80, 60
1, 42000, Note_on_c, 0, 80, 0
1, 42000, Note_on_c, 0, 80, 65
1, 42080, Note_on_c, 0, 80, 0
1, 42080, Note_on_c, 0, 73, 63
1, 42120, Note_on_c, 0, 55, 0
1, 42120, Note_on_c, 0, 64, 0
1, 42120, Note_on_c, 0, 56, 57
1, 42120, Note_on_c, 0, 65, 69
1, 42160, Note_on_c, 0, 73, 0
1, 42160, Note_on_c, 0, 80, 56
1, 42240, Tempo, 552995
1, 42240, Note_on_c, 0, 80, 0
1, 42240, Note_on_c, 0, 65, 0
1, 42240, Note_on_c, 0, 56, 0
1, 42240, Note_on_c, 0, 73, 65
1, 42240, Control_c, 0, 64, 0
1, 42240, Note_on_c, 0, 53, 77
1, 42290, Control_c, 0, 64, 127
1, 42320, Note_on_c, 0, 73, 0
1, 42320, Note_on_c, 0, 75, 62
1, 42360, Note_on_c, 0, 53, 0
1, 42400, Note_on_c, 0, 75, 0
1, 42400, Note_on_c, 0, 73, 57
1, 42480, Tempo, 530973
1, 42480, Note_on_c, 0, 73, 0
1, 42480, Note_on_c, 0, 87, 64
1, 42480, Note_on_c, 0, 65, 63
1, 42480, Note_on_c, 0, 56, 53
1, 42480, Note_on_c, 0, 61, 53
1, 42484, Control_c, 0, 64, 0
1, 42530, Control_c, 0, 64, 127
1, 42560, Note_on_c, 0, 87, 0
1, 42560, Note_on_c, 0, 85, 61
1, 42640, Note_on_c, 0, 85, 0
1, 42640, Note_on_c, 0, 99, 61
1, 42720, Tempo, 542986
1, 42720, Note_on_c, 0, 99, 0
1, 42720, Note_on_c, 0, 65, 0
1, 42720, Note_on_c, 0, 56, 0
1, 42720, Note_on_c, 0, 61, 0
1, 42720, Note_on_c, 0, 97, 73
1, 42720, Note_on_c, 0, 57, 59
1, 42720, Note_on_c, 0, 61, 59
1, 42720, Note_on_c, 0, 66, 70
1, 42800, Note_on_c, 0, 97, 0
1, 42800, Note_on_c, 0, 99, 65
1, 42880, Note_on_c, 0, 99, 0
1, 42880, Note_on_c, 0, 97, 66
1, 42960, Tempo, 568128
1, 42960, Note_on_c, 0, 97, 0
1, 42960, Note_on_c, 0, 57, 0
1, 42960, Note_on_c, 0, 61, 0
1, 42960, Note_on_c, 0, 66, 0
1, 42960, Note_on_c, 0, 85, 80
1, 42960, Note_on_c, 0, 58, 62
1, 42960, Note_on_c, 0, 61, 62
1, 42960, Note_on_c, 0, 67, 75
1, 43040, Note_on_c, 0, 85, 0
1, 43040, Note_on_c, 0, 87, 75
1, 43120, Note_on_c, 0, 87, 0
1, 43120, Note_on_c, 0, 85, 70
1, 43200, Tempo, 549702
1, 43200, Note_on_c, 0, 85, 0
1, 43200, Note_on_c, 0, 58, 0
1, 43200, Note_on_c, 0, 61, 0
1, 43200, Note_on_c, 0, 67, 0
1, 43200, Note_on_c, 0, 73, 81
1, 43200, Note_on_c, 0, 59, 70
1, 43200, Note_on_c, 0, 61, 70
1, 43200, Note_on_c, 0, 68, 84
1, 43205, Control_c, 0, 64, 0
1, 43264, Control_c, 0, 64, 127
1, 43280, Note_on_c, 0, 73, 0
1, 43280, Note_on_c, 0, 75, 77
1, 43360, Note_on_c, 0, 75, 0
1, 43360, Note_on_c, 0, 73, 73
1, 43440, Note_on_c, 0, 73, 0
1, 43440, Note_on_c, 0, 87, 78
1, 43520, Note_on_c, 0, 87, 0
1, 43520, Note_on_c, 0, 85, 70
1, 43600, Note_on_c, 0, 85, 0
1, 43600, Note_on_c, 0, 99, 74
1, 43680, Tempo, 539714
1, 43680, Note_on_c, 0, 99, 0
1, 43680, Note_on_c, 0, 68, 0
1, 43680, Note_on_c, 0, 61, 0
1, 43680, Note_on_c, 0, 59, 0
1, 43680, Note_on_c, 0, 97, 73
1, 43680, Note_on_c, 0, 58, 64
1, 43680, Note_on_c, 0, 61, 64
1, 43680, Note_on_c, 0, 67, 77
1, 43691, Control_c, 0, 64, 0
1, 43744, Control_c, 0, 64, 127
1, 43760, Note_on_c, 0, 97, 0
1, 43760, Note_on_c, 0, 99, 70
1, 43840, Note_on_c, 0, 99, 0
1, 43840, Note_on_c, 0, 97, 66
1, 43920, Tempo, 549702
1, 43920, Note_on_c, 0, 97, 0
1, 43920, Note_on_c, 0, 58, 0
1, 43920, Note_on_c, 0, 61, 0
1, 43920, Note_on_c, 0, 67, 0
1, 43920, Note_on_c, 0, 85, 70
1, 43920, Note_on_c, 0, 57, 61
1, 43920, Note_on_c, 0, 61, 61
1, 43920, Note_on_c, 0, 66, 72
1, 44000, Note_on_c, 0, 85, 0
1, 44000, Note_on_c, 0, 87, 67
1, 44080, Note_on_c, 0, 87, 0
1, 44080, Note_on_c, 0, 85, 66
1, 44160, Tempo, 560067
1, 44160, Note_on_c, 0, 85, 0
1, 44160, Note_on_c, 0, 57, 0
1, 44160, Note_on_c, 0, 61, 0
1, 44160, Note_on_c, 0, 66, 0
1, 44160, Note_on_c, 0, 97, 65
1, 44160, Note_on_c, 0, 56, 57
1, 44160, Note_on_c, 0, 61, 57
1, 44160, Note_on_c, 0, 65, 69
1, 44240, Note_on_c, 0, 97, 0
1, 44240, Note_on_c, 0, 99, 65
1, 44280, Note_on_c, 0, 56, 0
1, 44280, Note_on_c, 0, 65, 0
1, 44280, Note_on_c, 0, 61, 0
1, 44320, Note_on_c, 0, 99, 0
1, 44320, Note_on_c, 0, 97, 62
1, 44400, Tempo, 547146
1, 44400, Note_on_c, 0, 97, 0
1, 44400, Note_on_c, 0, 85, 66
1, 44400, Note_on_c, 0, 49, 63
1, 44480, Note_on_c, 0, 85, 0
1, 44480, Note_on_c, 0, 87, 69
1, 44520, Note_on_c, 0, 49, 0
1, 44560, Note_on_c, 0, 87, 0
1, 44560, Note_on_c, 0, 85, 65
1, 44640, Tempo, 560067
1, 44640, Note_on_c, 0, 85, 0
1, 44640, Note_on_c, 0, 97, 71
1, 44640, Note_on_c, 0, 59, 56
1, 44640, Note_on_c, 0, 61, 56
1, 44640, Note_on_c, 0, 65, 56
1, 44640, Note_on_c, 0, 68, 66
1, 44651, Control_c, 0, 64, 0
1, 44714, Control_c, 0, 64, 127
1, 44720, Note_on_c, 0, 97, 0
1, 44720, Note_on_c, 0, 99, 68
1, 44800, Note_on_c, 0, 99, 0
1, 44800, Note_on_c, 0, 97, 72
1, 44880, Tempo, 574163
1, 44880, Note_on_c, 0, 97, 0
1, 44880, Note_on_c, 0, 68, 0
1, 44880, Note_on_c, 0, 85, 75
1, 44880, Note_on_c, 0, 70, 71
1, 44960, Note_on_c, 0, 85, 0
1, 44960, Note_on_c, 0, 87, 72
1, 45040, Note_on_c, 0, 87, 0
1, 45040, Note_on_c, 0, 85, 68
1, 45120, Tempo, 576369
1, 45120, Note_on_c, 0, 85, 0
1, 45120, Note_on_c, 0, 59, 0
1, 45120, Note_on_c, 0, 65, 0
1, 45120, Note_on_c, 0, 61, 0
1, 45120, Note_on_c, 0, 70, 0
1, 45120, Note_on_c, 0, 97, 79
1, 45120, Note_on_c, 0, 59, 64
1, 45120, Note_on_c, 0, 61, 64
1, 45120, Note_on_c, 0, 65, 64
1, 45120, Note_on_c, 0, 71, 77
1, 45200, Note_on_c, 0, 97, 0
1, 45200, Note_on_c, 0, 99, 75
1, 45280, Note_on_c, 0, 99, 0
1, 45280, Note_on_c, 0, 97, 70
1, 45360, Note_on_c, 0, 97, 0
1, 45360, Note_on_c, 0, 85, 74
1, 45440, Note_on_c, 0, 85, 0
1, 45440, Note_on_c, 0, 87, 69
1, 45520, Note_on_c, 0, 87, 0
1, 45520, Note_on_c, 0, 85, 68
1, 45600, Note_on_c, 0, 85, 0
1, 45600, Note_on_c, 0, 71, 0
1, 45600, Note_on_c, 0, 97, 71
1, 45600, Note_on_c, 0, 70, 72
1, 45618, Control_c, 0, 64, 0
1, 45671, Control_c, 0, 64, 127
1, 45680, Note_on_c, 0, 97, 0
1, 45680, Note_on_c, 0, 99, 67
1, 45760, Note_on_c, 0, 99, 0
1, 45760, Note_on_c, 0, 97, 64
1, 45840, Tempo, 615195
1, 45840, Note_on_c, 0, 97, 0
1, 45840, Note_on_c, 0, 70, 0
1, 45840, Note_on_c, 0, 85, 67
1, 45840, Note_on_c, 0, 68, 71
1, 45920, Note_on_c, 0, 85, 0
1, 45920, Note_on_c, 0, 87, 66
1, 46000, Note_on_c, 0, 87, 0
1, 46000, Note_on_c, 0, 85, 65
1, 46041, Tempo, 621762
1, 46080, Tempo, 538117
1, 46080, Note_on_c, 0, 85, 0
1, 46080, Note_on_c, 0, 65, 0
1, 46080, Note_on_c, 0, 59, 0
1, 46080, Note_on_c, 0, 61, 0
1, 46080, Note_on_c, 0, 68, 0
1, 46080, Control_c, 0, 91, 127
1, 46080, Control_c, 0, 91, 127
1, 46080, Control_c, 0, 64, 0
1, 46081, Note_on_c, 0, 90, 96
1, 46081, Note_on_c, 0, 54, 73
1, 46081, Note_on_c, 0, 66, 87
1, 46081, Note_on_c, 0, 61, 73
1, 46081, Note_on_c, 0, 58, 73
1, 46160, Note_on_c, 0, 94, 70
1, 46161, Note_on_c, 0, 90, 0
1, 46171, Note_on_c, 0, 58, 0
1, 46171, Note_on_c, 0, 61, 0
1, 46171, Note_on_c, 0, 54, 0
1, 46171, Note_on_c, 0, 66, 0
1, 46240, Note_on_c, 0, 94, 0
1, 46240, Note_on_c, 0, 85, 70
1, 46320, Tempo, 517241
1, 46320, Note_on_c, 0, 85, 0
1, 46320, Note_on_c, 0, 90, 92
1, 46320, Note_on_c, 0, 63, 70
1, 46320, Note_on_c, 0, 59, 70
1, 46320, Note_on_c, 0, 54, 70
1, 46320, Note_on_c, 0, 66, 83
1, 46400, Note_on_c, 0, 90, 0
1, 46400, Note_on_c, 0, 87, 74
1, 46410, Note_on_c, 0, 54, 0
1, 46410, Note_on_c, 0, 66, 0
1, 46410, Note_on_c, 0, 63, 0
1, 46410, Note_on_c, 0, 59, 0
1, 46480, Note_on_c, 0, 87, 0
1, 46480, Note_on_c, 0, 90, 70
1, 46560, Note_on_c, 0, 90, 0
1, 46560, Note_on_c, 0, 85, 97
1, 46560, Note_on_c, 0, 61, 73
1, 46560, Note_on_c, 0, 66, 87
1, 46560, Note_on_c, 0, 58, 73
1, 46560, Note_on_c, 0, 54, 73
1, 46640, Note_on_c, 0, 85, 0
1, 46640, Note_on_c, 0, 90, 74
1, 46650, Note_on_c, 0, 58, 0
1, 46650, Note_on_c, 0, 54, 0
1, 46650, Note_on_c, 0, 61, 0
1, 46650, Note_on_c, 0, 66, 0
1, 46720, Note_on_c, 0, 90, 0
1, 46720, Note_on_c, 0, 82, 71
1, 46800, Note_on_c, 0, 82, 0
1, 46800, Note_on_c, 0, 85, 84
1, 46880, Note_on_c, 0, 85, 0
1, 46880, Note_on_c, 0, 78, 73
1, 46960, Note_on_c, 0, 78, 0
1, 46960, Note_on_c, 0, 82, 70
1, 47040, Note_on_c, 0, 82, 0
1, 47040, Note_on_c, 0, 78, 74
1, 47040, Note_on_c, 0, 42, 47
1, 47040, Note_on_c, 0, 54, 56
1, 47083, Control_c, 0, 64, 127
1, 47120, Note_on_c, 0, 78, 0
1, 47120, Note_on_c, 0, 82, 69
1, 47130, Note_on_c, 0, 54, 0
1, 47130, Note_on_c, 0, 42, 0
1, 47200, Note_on_c, 0, 82, 0
1, 47200, Note_on_c, 0, 73, 66
1, 47280, Note_on_c, 0, 73, 0
1, 47280, Note_on_c, 0, 78, 69
1, 47280, Note_on_c, 0, 66, 51
1, 47280, Note_on_c, 0, 63, 42
1, 47280, Note_on_c, 0, 59, 42
1, 47360, Note_on_c, 0, 78, 0
1, 47360, Note_on_c, 0, 75, 66
1, 47370, Note_on_c, 0, 66, 0
1, 47370, Note_on_c, 0, 59, 0
1, 47370, Note_on_c, 0, 63, 0
1, 47440, Note_on_c, 0, 75, 0
1, 47440, Note_on_c, 0, 78, 63
1, 47520, Note_on_c, 0, 78, 0
1, 47520, Note_on_c, 0, 73, 74
1, 47520, Note_on_c, 0, 66, 56
1, 47520, Note_on_c, 0, 61, 47
1, 47520, Note_on_c, 0, 58, 47
1, 47531, Control_c, 0, 64, 0
1, 47600, Note_on_c, 0, 73, 0
1, 47600, Note_on_c, 0, 78, 68
1, 47610, Note_on_c, 0, 66, 0
1, 47610, Note_on_c, 0, 58, 0
1, 47610, Note_on_c, 0, 61, 0
1, 47680, Note_on_c, 0, 78, 0
1, 47680, Note_on_c, 0, 70, 63
1, 47760, Note_on_c, 0, 70, 0
1, 47760, Note_on_c, 0, 73, 74
1, 47840, Note_on_c, 0, 73, 0
1, 47840, Note_on_c, 0, 66, 64
1, 47920, Note_on_c, 0, 66, 0
1, 47920, Note_on_c, 0, 70, 61
1, 48000, Note_on_c, 0, 70, 0
1, 48000, Note_on_c, 0, 61, 74
1, 48000, Note_on_c, 0, 37, 48
1, 48000, Note_on_c, 0, 49, 59
1, 48014, Control_c, 0, 64, 127
1, 48080, Note_on_c, 0, 61, 0
1, 48080, Note_on_c, 0, 73, 72
1, 48090, Note_on_c, 0, 49, 0
1, 48090, Note_on_c, 0, 37, 0
1, 48160, Note_on_c, 0, 73, 0
1, 48160, Note_on_c, 0, 68, 67
1, 48240, Note_on_c, 0, 68, 0
1, 48240, Note_on_c, 0, 73, 75
1, 48240, Note_on_c, 0, 61, 48
1, 48240, Note_on_c, 0, 65, 59
1, 48240, Note_on_c, 0, 56, 48
1, 48244, Control_c, 0, 64, 0
1, 48320, Note_on_c, 0, 73, 0
1, 48320, Note_on_c, 0, 68, 66
1, 48330, Note_on_c, 0, 61, 0
1, 48330, Note_on_c, 0, 56, 0
1, 48330, Note_on_c, 0, 65, 0
1, 48400, Note_on_c, 0, 68, 0
1, 48400, Note_on_c, 0, 80, 67
1, 48480, Note_on_c, 0, 80, 0
1, 48480, Note_on_c, 0, 68, 72
1, 48480, Note_on_c, 0, 59, 50
1, 48480, Note_on_c, 0, 63, 60
1, 48480, Note_on_c, 0, 56, 50
1, 48484, Control_c, 0, 64, 127
1, 48560, Note_on_c, 0, 68, 0
1, 48560, Note_on_c, 0, 80, 73
1, 48570, Note_on_c, 0, 59, 0
1, 48570, Note_on_c, 0, 56, 0
1, 48570, Note_on_c, 0, 63, 0
1, 48640, Note_on_c, 0, 80, 0
1, 48640, Note_on_c, 0, 75, 71
1, 48720, Note_on_c, 0, 75, 0
1, 48720, Note_on_c, 0, 80, 78
1, 48720, Note_on_c, 0, 44, 62
1, 48800, Note_on_c, 0, 80, 0
1, 48800, Note_on_c, 0, 75, 76
1, 48810, Note_on_c, 0, 44, 0
1, 48880, Note_on_c, 0, 75, 0
1, 48880, Note_on_c, 0, 87, 72
1, 48960, Note_on_c, 0, 87, 0
1, 48960, Note_on_c, 0, 75, 82
1, 48960, Control_c, 0, 64, 0
1, 48960, Note_on_c, 0, 49, 66
1, 49017, Control_c, 0, 64, 127
1, 49040, Note_on_c, 0, 75, 0
1, 49040, Note_on_c, 0, 87, 77
1, 49120, Note_on_c, 0, 87, 0
1, 49120, Note_on_c, 0, 80, 72
1, 49200, Note_on_c, 0, 80, 0
1, 49200, Note_on_c, 0, 87, 86
1, 49200, Note_on_c, 0, 63, 70
1, 49200, Note_on_c, 0, 59, 59
1, 49200, Note_on_c, 0, 56, 59
1, 49204, Control_c, 0, 64, 0
1, 49280, Note_on_c, 0, 87, 0
1, 49280, Note_on_c, 0, 80, 74
1, 49360, Note_on_c, 0, 80, 0
1, 49360, Note_on_c, 0, 92, 75
1, 49440, Tempo, 530973
1, 49440, Note_on_c, 0, 92, 0
1, 49440, Note_on_c, 0, 59, 0
1, 49440, Note_on_c, 0, 56, 0
1, 49440, Note_on_c, 0, 63, 0
1, 49440, Note_on_c, 0, 80, 88
1, 49440, Note_on_c, 0, 61, 73
1, 49440, Note_on_c, 0, 59, 62
1, 49440, Note_on_c, 0, 56, 62
1, 49475, Control_c, 0, 64, 127
1, 49520, Note_on_c, 0, 80, 0
1, 49520, Note_on_c, 0, 92, 81
1, 49600, Note_on_c, 0, 92, 0
1, 49600, Note_on_c, 0, 85, 77
1, 49680, Note_on_c, 0, 85, 0
1, 49680, Note_on_c, 0, 59, 0
1, 49680, Note_on_c, 0, 49, 0
1, 49680, Note_on_c, 0, 61, 0
1, 49680, Note_on_c, 0, 56, 0
1, 49680, Note_on_c, 0, 92, 89
1, 49760, Note_on_c, 0, 92, 0
1, 49760, Note_on_c, 0, 85, 85
1, 49840, Note_on_c, 0, 85, 0
1, 49840, Note_on_c, 0, 97, 83
1, 49920, Tempo, 517241
1, 49920, Note_on_c, 0, 97, 0
1, 49920, Note_on_c, 0, 90, 97
1, 49920, Control_c, 0, 64, 0
1, 49920, Note_on_c, 0, 54, 73
1, 49920, Note_on_c, 0, 58, 73
1, 49920, Note_on_c, 0, 61, 73
1, 49920, Note_on_c, 0, 66, 87
1, 50000, Note_on_c, 0, 90, 0
1, 50000, Note_on_c, 0, 94, 74
1, 50010, Note_on_c, 0, 61, 0
1, 50010, Note_on_c, 0, 66, 0
1, 50010, Note_on_c, 0, 54, 0
1, 50010, Note_on_c, 0, 58, 0
1, 50080, Note_on_c, 0, 94, 0
1, 50080, Note_on_c, 0, 85, 71
1, 50160, Note_on_c, 0, 85, 0
1, 50160, Note_on_c, 0, 90, 94
1, 50160, Note_on_c, 0, 66, 82
1, 50160, Note_on_c, 0, 63, 69
1, 50160, Note_on_c, 0, 59, 69
1, 50160, Note_on_c, 0, 54, 69
1, 50240, Note_on_c, 0, 90, 0
1, 50240, Note_on_c, 0, 87, 75
1, 50250, Note_on_c, 0, 59, 0
1, 50250, Note_on_c, 0, 54, 0
1, 50250, Note_on_c, 0, 66, 0
1, 50250, Note_on_c, 0, 63, 0
1, 50320, Note_on_c, 0, 87, 0
1, 50320, Note_on_c, 0, 90, 73
1, 50400, Note_on_c, 0, 90, 0
1, 50400, Note_on_c, 0, 85, 95
1, 50400, Note_on_c, 0, 61, 73
1, 50400, Note_on_c, 0, 66, 87
1, 50400, Note_on_c, 0, 58, 73
1, 50400, Note_on_c, 0, 54, 73
1, 50480, Note_on_c, 0, 85, 0
1, 50480, Note_on_c, 0, 90, 76
1, 50490, Note_on_c, 0, 58, 0
1, 50490, Note_on_c, 0, 54, 0
1, 50490, Note_on_c, 0, 61, 0
1, 50490, Note_on_c, 0, 66, 0
1, 50560, Note_on_c, 0, 90, 0
1, 50560, Note_on_c, 0, 82, 73
1, 50640, Note_on_c, 0, 82, 0
1, 50640, Note_on_c, 0, 85, 86
1, 50720, Note_on_c, 0, 85, 0
1, 50720, Note_on_c, 0, 78, 77
1, 50800, Note_on_c, 0, 78, 0
1, 50800, Note_on_c, 0, 82, 73
1, 50880, Note_on_c, 0, 82, 0
1, 50880, Note_on_c, 0, 78, 74
1, 50880, Note_on_c, 0, 42, 48
1, 50880, Note_on_c, 0, 54, 59
1, 50926, Control_c, 0, 64, 127
1, 50960, Note_on_c, 0, 78, 0
1, 50960, Note_on_c, 0, 82, 66
1, 50970, Note_on_c, 0, 54, 0
1, 50970, Note_on_c, 0, 42, 0
1, 51040, Note_on_c, 0, 82, 0
1, 51040, Note_on_c, 0, 73, 64
1, 51120, Note_on_c, 0, 73, 0
1, 51120, Note_on_c, 0, 78, 70
1, 51120, Note_on_c, 0, 66, 55
1, 51120, Note_on_c, 0, 63, 46
1, 51120, Note_on_c, 0, 59, 46
1, 51200, Note_on_c, 0, 78, 0
1, 51200, Note_on_c, 0, 75, 67
1, 51210, Note_on_c, 0, 66, 0
1, 51210, Note_on_c, 0, 59, 0
1, 51210, Note_on_c, 0, 63, 0
1, 51280, Note_on_c, 0, 75, 0
1, 51280, Note_on_c, 0, 78, 67
1, 51360, Note_on_c, 0, 78, 0
1, 51360, Note_on_c, 0, 73, 74
1, 51360, Note_on_c, 0, 66, 59
1, 51360, Note_on_c, 0, 61, 48
1, 51360, Note_on_c, 0, 58, 48
1, 51371, Control_c, 0, 64, 0
1, 51440, Note_on_c, 0, 73, 0
1, 51440, Note_on_c, 0, 78, 62
1, 51450, Note_on_c, 0, 66, 0
1, 51450, Note_on_c, 0, 58, 0
1, 51450, Note_on_c, 0, 61, 0
1, 51520, Note_on_c, 0, 78, 0
1, 51520, Note_on_c, 0, 70, 55
1, 51600, Note_on_c, 0, 70, 0
1, 51600, Note_on_c, 0, 73, 74
1, 51680, Note_on_c, 0, 73, 0
1, 51680, Note_on_c, 0, 66, 64
1, 51760, Note_on_c, 0, 66, 0
1, 51760, Note_on_c, 0, 70, 60
1, 51840, Note_on_c, 0, 70, 0
1, 51840, Note_on_c, 0, 63, 74
1, 51840, Note_on_c, 0, 47, 66
1, 51883, Control_c, 0, 64, 127
1, 51920, Note_on_c, 0, 63, 0
1, 51920, Note_on_c, 0, 75, 71
1, 51960, Note_on_c, 0, 47, 0
1, 52000, Note_on_c, 0, 75, 0
1, 52000, Note_on_c, 0, 68, 67
1, 52080, Note_on_c, 0, 68, 0
1, 52080, Note_on_c, 0, 75, 74
1, 52080, Note_on_c, 0, 63, 66
1, 52080, Note_on_c, 0, 56, 56
1, 52160, Note_on_c, 0, 75, 0
1, 52160, Note_on_c, 0, 68, 72
1, 52240, Note_on_c, 0, 68, 0
1, 52240, Note_on_c, 0, 80, 67
1, 52320, Tempo, 530973
1, 52320, Note_on_c, 0, 80, 0
1, 52320, Note_on_c, 0, 56, 0
1, 52320, Note_on_c, 0, 63, 0
1, 52320, Note_on_c, 0, 70, 74
1, 52320, Note_on_c, 0, 53, 59
1, 52320, Note_on_c, 0, 58, 59
1, 52320, Note_on_c, 0, 62, 70
1, 52335, Control_c, 0, 64, 0
1, 52391, Control_c, 0, 64, 127
1, 52400, Note_on_c, 0, 70, 0
1, 52400, Note_on_c, 0, 82, 85
1, 52480, Note_on_c, 0, 82, 0
1, 52480, Note_on_c, 0, 70, 72
1, 52560, Note_on_c, 0, 70, 0
1, 52560, Note_on_c, 0, 53, 0
1, 52560, Note_on_c, 0, 58, 0
1, 52560, Note_on_c, 0, 62, 0
1, 52560, Note_on_c, 0, 82, 74
1, 52560, Note_on_c, 0, 46, 66
1, 52640, Note_on_c, 0, 82, 0
1, 52640, Note_on_c, 0, 70, 70
1, 52720, Note_on_c, 0, 70, 0
1, 52720, Note_on_c, 0, 82, 66
1, 52800, Tempo, 550459
1, 52800, Note_on_c, 0, 82, 0
1, 52800, Note_on_c, 0, 46, 0
1, 52800, Note_on_c, 0, 75, 74
1, 52800, Note_on_c, 0, 47, 66
1, 52806, Control_c, 0, 64, 0
1, 52867, Control_c, 0, 64, 127
1, 52880, Note_on_c, 0, 75, 0
1, 52880, Note_on_c, 0, 87, 70
1, 52920, Note_on_c, 0, 47, 0
1, 52960, Note_on_c, 0, 87, 0
1, 52960, Note_on_c, 0, 80, 70
1, 53040, Note_on_c, 0, 80, 0
1, 53040, Note_on_c, 0, 87, 71
1, 53040, Note_on_c, 0, 63, 66
1, 53040, Note_on_c, 0, 56, 56
1, 53120, Note_on_c, 0, 87, 0
1, 53120, Note_on_c, 0, 80, 69
1, 53200, Note_on_c, 0, 80, 0
1, 53200, Note_on_c, 0, 92, 69
1, 53280, Tempo, 552995
1, 53280, Note_on_c, 0, 92, 0
1, 53280, Note_on_c, 0, 56, 0
1, 53280, Note_on_c, 0, 63, 0
1, 53280, Note_on_c, 0, 82, 72
1, 53280, Note_on_c, 0, 53, 62
1, 53280, Note_on_c, 0, 58, 62
1, 53280, Note_on_c, 0, 62, 73
1, 53291, Control_c, 0, 64, 0
1, 53320, Tempo, 555556
1, 53351, Control_c, 0, 64, 127
1, 53360, Tempo, 560748
1, 53360, Note_on_c, 0, 82, 0
1, 53360, Note_on_c, 0, 94, 79
1, 53400, Tempo, 566038
1, 53440, Tempo, 571429
1, 53440, Note_on_c, 0, 94, 0
1, 53440, Note_on_c, 0, 82, 69
1, 53480, Tempo, 576923
1, 53520, Tempo, 579710
1, 53520, Note_on_c, 0, 82, 0
1, 53520, Note_on_c, 0, 53, 0
1, 53520, Note_on_c, 0, 58, 0
1, 53520, Note_on_c, 0, 62, 0
1, 53520, Note_on_c, 0, 94, 72
1, 53520, Note_on_c, 0, 46, 69
1, 53560, Tempo, 585366
1, 53600, Tempo, 591133
1, 53600, Note_on_c, 0, 94, 0
1, 53600, Note_on_c, 0, 82, 72
1, 53640, Tempo, 597015
1, 53640, Note_on_c, 0, 46, 0
1, 53680, Tempo, 603015
1, 53680, Note_on_c, 0, 82, 0
1, 53680, Note_on_c, 0, 94, 70
1, 53720, Tempo, 609137
1, 53760, Tempo, 530973
1, 53760, Note_on_c, 0, 94, 0
1, 53760, Note_on_c, 0, 82, 74
1, 53760, Note_on_c, 0, 47, 80
1, 53767, Control_c, 0, 64, 0
1, 53813, Control_c, 0, 64, 127
1, 53840, Note_on_c, 0, 82, 0
1, 53840, Note_on_c, 0, 94, 72
1, 53880, Note_on_c, 0, 47, 0
1, 53920, Note_on_c, 0, 94, 0
1, 53920, Note_on_c, 0, 87, 72
1, 54000, Tempo, 517241
1, 54000, Note_on_c, 0, 87, 0
1, 54000, Note_on_c, 0, 94, 74
1, 54000, Note_on_c, 0, 68, 69
1, 54000, Note_on_c, 0, 59, 57
1, 54000, Note_on_c, 0, 63, 57
1, 54080, Note_on_c, 0, 94, 0
1, 54080, Note_on_c, 0, 80, 69
1, 54120, Note_on_c, 0, 68, 0
1, 54120, Note_on_c, 0, 63, 0
1, 54120, Note_on_c, 0, 59, 0
1, 54160, Note_on_c, 0, 80, 0
1, 54160, Note_on_c, 0, 92, 67
1, 54240, Note_on_c, 0, 92, 0
1, 54240, Note_on_c, 0, 80, 75
1, 54240, Control_c, 0, 64, 0
1, 54240, Note_on_c, 0, 49, 82
1, 54283, Control_c, 0, 64, 127
1, 54320, Note_on_c, 0, 80, 0
1, 54320, Note_on_c, 0, 92, 73
1, 54360, Note_on_c, 0, 49, 0
1, 54400, Note_on_c, 0, 92, 0
1, 54400, Note_on_c, 0, 85, 70
1, 54480, Note_on_c, 0, 85, 0
1, 54480, Note_on_c, 0, 92, 77
1, 54480, Note_on_c, 0, 66, 66
1, 54480, Note_on_c, 0, 61, 56
1, 54480, Note_on_c, 0, 58, 56
1, 54560, Note_on_c, 0, 92, 0
1, 54560, Note_on_c, 0, 78, 69
1, 54600, Note_on_c, 0, 66, 0
1, 54600, Note_on_c, 0, 58, 0
1, 54600, Note_on_c, 0, 61, 0
1, 54640, Note_on_c, 0, 78, 0
1, 54640, Note_on_c, 0, 90, 70
1, 54720, Note_on_c, 0, 90, 0
1, 54720, Note_on_c, 0, 73, 77
1, 54720, Note_on_c, 0, 47, 84
1, 54728, Control_c, 0, 64, 0
1, 54791, Control_c, 0, 64, 127
1, 54800, Note_on_c, 0, 73, 0
1, 54800, Note_on_c, 0, 85, 72
1, 54840, Note_on_c, 0, 47, 0
1, 54880, Note_on_c, 0, 85, 0
1, 54880, Note_on_c, 0, 80, 69
1, 54960, Note_on_c, 0, 80, 0
1, 54960, Note_on_c, 0, 85, 78
1, 54960, Note_on_c, 0, 59, 60
1, 54960, Note_on_c, 0, 65, 60
1, 54960, Note_on_c, 0, 61, 60
1, 54960, Note_on_c, 0, 68, 71
1, 55040, Note_on_c, 0, 85, 0
1, 55040, Note_on_c, 0, 80, 72
1, 55080, Note_on_c, 0, 61, 0
1, 55080, Note_on_c, 0, 68, 0
1, 55080, Note_on_c, 0, 59, 0
1, 55080, Note_on_c, 0, 65, 0
1, 55120, Note_on_c, 0, 80, 0
1, 55120, Note_on_c, 0, 92, 75
1, 55186, Control_c, 0, 64, 0
1, 55200, Note_on_c, 0, 92, 0
1, 55200, Note_on_c, 0, 78, 78
1, 55200, Note_on_c, 0, 46, 86
1, 55232, Control_c, 0, 64, 127
1, 55280, Note_on_c, 0, 78, 0
1, 55280, Note_on_c, 0, 90, 74
1, 55320, Note_on_c, 0, 46, 0
1, 55360, Note_on_c, 0, 90, 0
1, 55360, Note_on_c, 0, 85, 72
1, 55440, Note_on_c, 0, 85, 0
1, 55440, Note_on_c, 0, 90, 80
1, 55440, Note_on_c, 0, 61, 60
1, 55440, Note_on_c, 0, 70, 71
1, 55440, Note_on_c, 0, 58, 60
1, 55440, Note_on_c, 0, 66, 60
1, 55520, Note_on_c, 0, 90, 0
1, 55520, Note_on_c, 0, 85, 74
1, 55560, Note_on_c, 0, 58, 0
1, 55560, Note_on_c, 0, 66, 0
1, 55560, Note_on_c, 0, 61, 0
1, 55560, Note_on_c, 0, 70, 0
1, 55600, Note_on_c, 0, 85, 0
1, 55600, Note_on_c, 0, 97, 78
1, 55680, Tempo, 530973
1, 55680, Note_on_c, 0, 97, 0
1, 55680, Note_on_c, 0, 82, 80
1, 55680, Note_on_c, 0, 47, 88
1, 55687, Control_c, 0, 64, 0
1, 55747, Control_c, 0, 64, 127
1, 55760, Note_on_c, 0, 82, 0
1, 55760, Note_on_c, 0, 94, 74
1, 55800, Note_on_c, 0, 47, 0
1, 55840, Note_on_c, 0, 94, 0
1, 55840, Note_on_c, 0, 87, 71
1, 55920, Tempo, 517241
1, 55920, Note_on_c, 0, 87, 0
1, 55920, Note_on_c, 0, 94, 81
1, 55920, Note_on_c, 0, 68, 73
1, 55920, Note_on_c, 0, 63, 62
1, 55920, Note_on_c, 0, 59, 62
1, 56000, Note_on_c, 0, 94, 0
1, 56000, Note_on_c, 0, 80, 79
1, 56040, Note_on_c, 0, 68, 0
1, 56040, Note_on_c, 0, 59, 0
1, 56040, Note_on_c, 0, 63, 0
1, 56080, Note_on_c, 0, 80, 0
1, 56080, Note_on_c, 0, 92, 76
1, 56160, Note_on_c, 0, 92, 0
1, 56160, Note_on_c, 0, 80, 82
1, 56160, Note_on_c, 0, 49, 89
1, 56167, Control_c, 0, 64, 0
1, 56206, Control_c, 0, 64, 127
1, 56240, Note_on_c, 0, 80, 0
1, 56240, Note_on_c, 0, 92, 76
1, 56280, Note_on_c, 0, 49, 0
1, 56320, Note_on_c, 0, 92, 0
1, 56320, Note_on_c, 0, 85, 73
1, 56400, Note_on_c, 0, 85, 0
1, 56400, Note_on_c, 0, 92, 82
1, 56400, Note_on_c, 0, 66, 73
1, 56400, Note_on_c, 0, 61, 62
1, 56400, Note_on_c, 0, 58, 62
1, 56480, Note_on_c, 0, 92, 0
1, 56480, Note_on_c, 0, 78, 74
1, 56520, Note_on_c, 0, 66, 0
1, 56520, Note_on_c, 0, 58, 0
1, 56520, Note_on_c, 0, 61, 0
1, 56560, Note_on_c, 0, 78, 0
1, 56560, Note_on_c, 0, 90, 70
1, 56640, Note_on_c, 0, 90, 0
1, 56640, Note_on_c, 0, 73, 83
1, 56640, Note_on_c, 0, 47, 91
1, 56650, Control_c, 0, 64, 0
1, 56679, Control_c, 0, 64, 127
1, 56720, Note_on_c, 0, 73, 0
1, 56720, Note_on_c, 0, 85, 74
1, 56760, Note_on_c, 0, 47, 0
1, 56800, Note_on_c, 0, 85, 0
1, 56800, Note_on_c, 0, 80, 71
1, 56880, Note_on_c, 0, 80, 0
1, 56880, Note_on_c, 0, 85, 83
1, 56880, Note_on_c, 0, 59, 63
1, 56880, Note_on_c, 0, 65, 63
1, 56880, Note_on_c, 0, 61, 63
1, 56880, Note_on_c, 0, 68, 75
1, 56960, Note_on_c, 0, 85, 0
1, 56960, Note_on_c, 0, 80, 76
1, 57000, Note_on_c, 0, 61, 0
1, 57000, Note_on_c, 0, 68, 0
1, 57000, Note_on_c, 0, 59, 0
1, 57000, Note_on_c, 0, 65, 0
1, 57040, Note_on_c, 0, 80, 0
1, 57040, Note_on_c, 0, 92, 82
1, 57120, Note_on_c, 0, 92, 0
1, 57120, Note_on_c, 0, 78, 86
1, 57120, Note_on_c, 0, 46, 94
1, 57129, Control_c, 0, 64, 0
1, 57191, Control_c, 0, 64, 127
1, 57200, Note_on_c, 0, 78, 0
1, 57200, Note_on_c, 0, 90, 76
1, 57240, Note_on_c, 0, 46, 0
1, 57280, Note_on_c, 0, 90, 0
1, 57280, Note_on_c, 0, 85, 73
1, 57360, Note_on_c, 0, 85, 0
1, 57360, Note_on_c, 0, 90, 87
1, 57360, Note_on_c, 0, 58, 63
1, 57360, Note_on_c, 0, 66, 63
1, 57360, Note_on_c, 0, 61, 63
1, 57360, Note_on_c, 0, 70, 75
1, 57440, Note_on_c, 0, 90, 0
1, 57440, Note_on_c, 0, 85, 79
1, 57480, Note_on_c, 0, 61, 0
1, 57480, Note_on_c, 0, 70, 0
1, 57480, Note_on_c, 0, 58, 0
1, 57480, Note_on_c, 0, 66, 0
1, 57520, Note_on_c, 0, 85, 0
1, 57520, Note_on_c, 0, 97, 75
1, 57600, Tempo, 542986
1, 57600, Note_on_c, 0, 97, 0
1, 57600, Note_on_c, 0, 82, 83
1, 57600, Note_on_c, 0, 47, 94
1, 57606, Control_c, 0, 64, 0
1, 57680, Note_on_c, 0, 82, 0
1, 57680, Note_on_c, 0, 94, 74
1, 57681, Control_c, 0, 64, 127
1, 57760, Note_on_c, 0, 94, 0
1, 57760, Note_on_c, 0, 87, 75
1, 57840, Tempo, 526316
1, 57840, Note_on_c, 0, 87, 0
1, 57840, Note_on_c, 0, 47, 0
1, 57840, Note_on_c, 0, 94, 86
1, 57840, Note_on_c, 0, 63, 70
1, 57840, Note_on_c, 0, 56, 70
1, 57840, Note_on_c, 0, 68, 82
1, 57920, Note_on_c, 0, 94, 0
1, 57920, Note_on_c, 0, 80, 77
1, 58000, Note_on_c, 0, 80, 0
1, 58000, Note_on_c, 0, 92, 74
1, 58080, Note_on_c, 0, 92, 0
1, 58080, Note_on_c, 0, 82, 87
1, 58160, Note_on_c, 0, 82, 0
1, 58160, Note_on_c, 0, 94, 80
1, 58240, Note_on_c, 0, 94, 0
1, 58240, Note_on_c, 0, 87, 74
1, 58320, Note_on_c, 0, 87, 0
1, 58320, Note_on_c, 0, 68, 0
1, 58320, Note_on_c, 0, 56, 0
1, 58320, Note_on_c, 0, 63, 0
1, 58320, Note_on_c, 0, 94, 84
1, 58320, Note_on_c, 0, 47, 94
1, 58400, Note_on_c, 0, 94, 0
1, 58400, Note_on_c, 0, 80, 78
1, 58480, Note_on_c, 0, 80, 0
1, 58480, Note_on_c, 0, 92, 74
1, 58560, Tempo, 540541
1, 58560, Note_on_c, 0, 92, 0
1, 58560, Note_on_c, 0, 47, 0
1, 58560, Note_on_c, 0, 82, 92
1, 58560, Note_on_c, 0, 48, 104
1, 58567, Control_c, 0, 64, 0
1, 58624, Control_c, 0, 64, 127
1, 58640, Note_on_c, 0, 82, 0
1, 58640, Note_on_c, 0, 94, 85
1, 58720, Note_on_c, 0, 94, 0
1, 58720, Note_on_c, 0, 87, 81
1, 58800, Tempo, 526316
1, 58800, Note_on_c, 0, 87, 0
1, 58800, Note_on_c, 0, 48, 0
1, 58800, Note_on_c, 0, 94, 93
1, 58800, Note_on_c, 0, 68, 85
1, 58800, Note_on_c, 0, 63, 71
1, 58800, Note_on_c, 0, 66, 71
1, 58800, Note_on_c, 0, 56, 71
1, 58880, Note_on_c, 0, 94, 0
1, 58880, Note_on_c, 0, 80, 85
1, 58960, Note_on_c, 0, 80, 0
1, 58960, Note_on_c, 0, 92, 90
1, 59040, Note_on_c, 0, 92, 0
1, 59040, Note_on_c, 0, 82, 94
1, 59120, Note_on_c, 0, 82, 0
1, 59120, Note_on_c, 0, 94, 86
1, 59200, Note_on_c, 0, 94, 0
1, 59200, Note_on_c, 0, 87, 83
1, 59280, Tempo, 535714
1, 59280, Note_on_c, 0, 87, 0
1, 59280, Note_on_c, 0, 56, 0
1, 59280, Note_on_c, 0, 68, 0
1, 59280, Note_on_c, 0, 63, 0
1, 59280, Note_on_c, 0, 66, 0
1, 59280, Note_on_c, 0, 94, 97
1, 59280, Note_on_c, 0, 48, 100
1, 59360, Note_on_c, 0, 94, 0
1, 59360, Note_on_c, 0, 80, 80
1, 59440, Note_on_c, 0, 80, 0
1, 59440, Note_on_c, 0, 92, 88
1, 59520, Note_on_c, 0, 92, 0
1, 59520, Note_on_c, 0, 48, 0
1, 59520, Note_on_c, 0, 85, 98
1, 59520, Note_on_c, 0, 49, 106
1, 59526, Control_c, 0, 64, 0
1, 59584, Control_c, 0, 64, 127
1, 59600, Note_on_c, 0, 85, 0
1, 59600, Note_on_c, 0, 94, 90
1, 59680, Note_on_c, 0, 94, 0
1, 59680, Note_on_c, 0, 80, 87
1, 59760, Note_on_c, 0, 80, 0
1, 59760, Note_on_c, 0, 49, 0
1, 59760, Note_on_c, 0, 92, 100
1, 59840, Note_on_c, 0, 92, 0
1, 59840, Note_on_c, 0, 85, 90
1, 59920, Note_on_c, 0, 85, 0
1, 59920, Note_on_c, 0, 94, 92
1, 60000, Tempo, 547945
1, 60000, Note_on_c, 0, 94, 0
1, 60000, Note_on_c, 0, 80, 103
1, 60000, Note_on_c, 0, 61, 77
1, 60000, Note_on_c, 0, 66, 77
1, 60000, Note_on_c, 0, 56, 77
1, 60000, Note_on_c, 0, 68, 92
1, 60080, Note_on_c, 0, 80, 0
1, 60080, Note_on_c, 0, 92, 93
1, 60160, Note_on_c, 0, 92, 0
1, 60160, Note_on_c, 0, 85, 86
1, 60240, Note_on_c, 0, 85, 0
1, 60240, Note_on_c, 0, 94, 94
1, 60320, Note_on_c, 0, 94, 0
1, 60320, Note_on_c, 0, 80, 90
1, 60400, Note_on_c, 0, 80, 0
1, 60400, Note_on_c, 0, 92, 86
1, 60480, Tempo, 547945
1, 60480, Note_on_c, 0, 92, 0
1, 60480, Note_on_c, 0, 68, 0
1, 60480, Note_on_c, 0, 61, 0
1, 60480, Note_on_c, 0, 66, 0
1, 60480, Note_on_c, 0, 56, 0
1, 60480, Note_on_c, 0, 85, 96
1, 60480, Note_on_c, 0, 73, 94
1, 60480, Note_on_c, 0, 66, 79
1, 60480, Note_on_c, 0, 68, 79
1, 60485, Control_c, 0, 64, 0
1, 60530, Control_c, 0, 64, 127
1, 60560, Note_on_c, 0, 85, 0
1, 60560, Note_on_c, 0, 94, 91
1, 60640, Note_on_c, 0, 94, 0
1, 60640, Note_on_c, 0, 80, 85
1, 60720, Note_on_c, 0, 80, 0
1, 60720, Note_on_c, 0, 92, 89
1, 60800, Note_on_c, 0, 92, 0
1, 60800, Note_on_c, 0, 85, 82
1, 60880, Note_on_c, 0, 85, 0
1, 60880, Note_on_c, 0, 94, 75
1, 60960, Tempo, 521739
1, 60960, Note_on_c, 0, 94, 0
1, 60960, Note_on_c, 0, 68, 0
1, 60960, Note_on_c, 0, 66, 0
1, 60960, Note_on_c, 0, 73, 0
1, 60960, Note_on_c, 0, 80, 85
1, 61000, Tempo, 547945
1, 61040, Tempo, 552995
1, 61040, Note_on_c, 0, 80, 0
1, 61040, Note_on_c, 0, 92, 77
1, 61080, Tempo, 558140
1, 61120, Tempo, 563380
1, 61120, Note_on_c, 0, 92, 0
1, 61120, Note_on_c, 0, 85, 71
1, 61160, Tempo, 571429
1, 61200, Tempo, 576923
1, 61200, Note_on_c, 0, 85, 0
1, 61200, Note_on_c, 0, 94, 75
1, 61240, Tempo, 582524
1, 61280, Tempo, 591133
1, 61280, Note_on_c, 0, 94, 0
1, 61280, Note_on_c, 0, 80, 68
1, 61320, Tempo, 597015
1, 61360, Tempo, 603015
1, 61360, Note_on_c, 0, 80, 0
1, 61360, Note_on_c, 0, 92, 64
1, 61391, Control_c, 0, 64, 0
1, 61400, Tempo, 1481481
1, 61400, Note_on_c, 0, 37, 47
1, 61410, Note_on_c, 0, 37, 0
1, 61410, Note_on_c, 0, 49, 47
1, 61420, Note_on_c, 0, 56, 47
1, 61430, Note_on_c, 0, 61, 47
1, 61440, Tempo, 1000000
1, 61440, Note_on_c, 0, 92, 0
1, 61440, Note_on_c, 0, 99, 57
1, 61440, Note_on_c, 0, 66, 56
1, 61520, Note_on_c, 0, 99, 0
1, 61540, Tempo, 689655
1, 61560, Tempo, 631579
1, 61560, Note_on_c, 0, 97, 57
1, 61580, Tempo, 628272
1, 61600, Tempo, 625000
1, 61600, Note_on_c, 0, 97, 0
1, 61600, Note_on_c, 0, 94, 52
1, 61620, Tempo, 618557
1, 61640, Tempo, 615385
1, 61660, Tempo, 612245
1, 61680, Tempo, 606061
1, 61680, Note_on_c, 0, 94, 0
1, 61680, Note_on_c, 0, 92, 57
1, 61700, Tempo, 603015
1, 61720, Tempo, 600000
1, 61740, Tempo, 594059
1, 61760, Tempo, 591133
1, 61760, Note_on_c, 0, 92, 0
1, 61760, Note_on_c, 0, 90, 57
1, 61780, Tempo, 588235
1, 61800, Tempo, 582524
1, 61820, Tempo, 579710
1, 61840, Tempo, 576923
1, 61840, Note_on_c, 0, 90, 0
1, 61840, Note_on_c, 0, 87, 54
1, 61860, Tempo, 571429
1, 61880, Tempo, 568720
1, 61900, Tempo, 566038
1, 61920, Tempo, 560748
1, 61920, Note_on_c, 0, 87, 0
1, 61920, Note_on_c, 0, 85, 57
1, 61940, Tempo, 555556
1, 61980, Tempo, 558140
1, 62000, Tempo, 560748
1, 62000, Note_on_c, 0, 85, 0
1, 62000, Note_on_c, 0, 82, 57
1, 62040, Tempo, 563380
1, 62060, Tempo, 566038
1, 62080, Tempo, 568720
1, 62080, Note_on_c, 0, 82, 0
1, 62080, Note_on_c, 0, 80, 53
1, 62120, Tempo, 571429
1, 62140, Tempo, 574163
1, 62160, Tempo, 576923
1, 62160, Note_on_c, 0, 80, 0
1, 62160, Note_on_c, 0, 78, 57
1, 62200, Tempo, 579710
1, 62220, Tempo, 582524
1, 62240, Tempo, 585366
1, 62240, Note_on_c, 0, 78, 0
1, 62240, Note_on_c, 0, 75, 57
1, 62280, Tempo, 588235
1, 62300, Tempo, 591133
1, 62320, Tempo, 594059
1, 62320, Note_on_c, 0, 75, 0
1, 62320, Note_on_c, 0, 73, 54
1, 62340, Tempo, 794702
1, 62388, Tempo, 769231
1, 62400, Tempo, 571429
1, 62400, Note_on_c, 0, 73, 0
1, 62400, Note_on_c, 0, 66, 0
1, 62400, Note_on_c, 0, 61, 0
1, 62400, Note_on_c, 0, 56, 0
1, 62400, Note_on_c, 0, 49, 0
1, 62400, Note_on_c, 0, 68, 65
1, 62400, Note_on_c, 0, 49, 30
1, 62400, Note_on_c, 0, 59, 30
1, 62400, Note_on_c, 0, 66, 56
1, 62400, Note_on_c, 0, 49, 56
1, 62400, Note_on_c, 0, 63, 47
1, 62400, Note_on_c, 0, 56, 30
1, 62880, Note_on_c, 0, 63, 0
1, 62880, Note_on_c, 0, 68, 0
1, 62880, Note_on_c, 0, 66, 0
1, 62880, Note_on_c, 0, 70, 69
1, 62880, Note_on_c, 0, 65, 56
1, 62880, Note_on_c, 0, 61, 47
1, 63240, Note_on_c, 0, 70, 0
1, 63240, Note_on_c, 0, 68, 64
1, 63360, Tempo, 517241
1, 63360, Note_on_c, 0, 68, 0
1, 63360, Note_on_c, 0, 61, 0
1, 63360, Note_on_c, 0, 59, 0
1, 63360, Note_on_c, 0, 56, 0
1, 63360, Note_on_c, 0, 49, 0
1, 63360, Note_on_c, 0, 65, 0
1, 63360, Note_on_c, 0, 49, 0
1, 63360, Note_on_c, 0, 66, 71
1, 63360, Note_on_c, 0, 54, 48
1, 63360, Note_on_c, 0, 58, 48
1, 63360, Note_on_c, 0, 66, 59
1, 63600, Note_on_c, 0, 66, 0
1, 63600, Note_on_c, 0, 58, 0
1, 63600, Note_on_c, 0, 61, 44
1, 63840, Note_on_c, 0, 61, 0
1, 63840, Note_on_c, 0, 66, 0
1, 63840, Note_on_c, 0, 92, 63
1, 63840, Note_on_c, 0, 59, 50
1, 63840, Note_on_c, 0, 68, 60
1, 63920, Note_on_c, 0, 92, 0
1, 63920, Note_on_c, 0, 94, 53
1, 64000, Note_on_c, 0, 94, 0
1, 64000, Note_on_c, 0, 92, 57
1, 64080, Note_on_c, 0, 92, 0
1, 64080, Note_on_c, 0, 68, 0
1, 64080, Note_on_c, 0, 59, 0
1, 64080, Note_on_c, 0, 85, 59
1, 64080, Note_on_c, 0, 56, 44
1, 64080, Note_on_c, 0, 65, 52
1, 64160, Note_on_c, 0, 85, 0
1, 64160, Note_on_c, 0, 97, 59
1, 64240, Note_on_c, 0, 97, 0
1, 64240, Note_on_c, 0, 85, 54
1, 64320, Note_on_c, 0, 85, 0
1, 64320, Note_on_c, 0, 54, 0
1, 64320, Note_on_c, 0, 56, 0
1, 64320, Note_on_c, 0, 65, 0
1, 64320, Note_on_c, 0, 85, 63
1, 64320, Note_on_c, 0, 66, 60
1, 64320, Note_on_c, 0, 58, 50
1, 64320, Note_on_c, 0, 54, 50
1, 64400, Note_on_c, 0, 85, 0
1, 64400, Note_on_c, 0, 87, 63
1, 64480, Note_on_c, 0, 87, 0
1, 64480, Note_on_c, 0, 85, 63
1, 64560, Note_on_c, 0, 85, 0
1, 64560, Note_on_c, 0, 66, 0
1, 64560, Note_on_c, 0, 58, 0
1, 64560, Note_on_c, 0, 78, 58
1, 64560, Note_on_c, 0, 61, 42
1, 64640, Note_on_c, 0, 78, 0
1, 64640, Note_on_c, 0, 90, 55
1, 64720, Note_on_c, 0, 90, 0
1, 64720, Note_on_c, 0, 78, 58
1, 64800, Note_on_c, 0, 78, 0
1, 64800, Note_on_c, 0, 61, 0
1, 64800, Note_on_c, 0, 80, 63
1, 64800, Note_on_c, 0, 59, 50
1, 64800, Note_on_c, 0, 68, 60
1, 64880, Note_on_c, 0, 80, 0
1, 64880, Note_on_c, 0, 82, 54
1, 64960, Note_on_c, 0, 82, 0
1, 64960, Note_on_c, 0, 80, 56
1, 65040, Note_on_c, 0, 80, 0
1, 65040, Note_on_c, 0, 68, 0
1, 65040, Note_on_c, 0, 59, 0
1, 65040, Note_on_c, 0, 73, 78
1, 65040, Note_on_c, 0, 65, 51
1, 65040, Note_on_c, 0, 56, 42
1, 65280, Tempo, 528634
1, 65280, Note_on_c, 0, 56, 0
1, 65280, Note_on_c, 0, 65, 0
1, 65280, Note_on_c, 0, 54, 0
1, 65280, Note_on_c, 0, 54, 53
1, 65280, Note_on_c, 0, 66, 63
1, 65280, Note_on_c, 0, 58, 53
1, 65360, Note_on_c, 0, 73, 0
1, 65360, Note_on_c, 0, 78, 62
1, 65440, Note_on_c, 0, 78, 0
1, 65440, Note_on_c, 0, 80, 57
1, 65520, Note_on_c, 0, 80, 0
1, 65520, Note_on_c, 0, 54, 0
1, 65520, Note_on_c, 0, 66, 0
1, 65520, Note_on_c, 0, 58, 0
1, 65520, Note_on_c, 0, 82, 66
1, 65600, Note_on_c, 0, 82, 0
1, 65600, Note_on_c, 0, 80, 64
1, 65680, Note_on_c, 0, 80, 0
1, 65680, Note_on_c, 0, 78, 57
1, 65760, Tempo, 517241
1, 65760, Note_on_c, 0, 78, 0
1, 65760, Note_on_c, 0, 73, 62
1, 65760, Note_on_c, 0, 63, 63
1, 65760, Note_on_c, 0, 53, 53
1, 65760, Note_on_c, 0, 59, 53
1, 65840, Note_on_c, 0, 73, 0
1, 65840, Note_on_c, 0, 80, 64
1, 65920, Note_on_c, 0, 80, 0
1, 65920, Note_on_c, 0, 85, 61
1, 66000, Tempo, 526316
1, 66000, Note_on_c, 0, 85, 0
1, 66000, Note_on_c, 0, 63, 0
1, 66000, Note_on_c, 0, 53, 0
1, 66000, Note_on_c, 0, 59, 0
1, 66000, Note_on_c, 0, 87, 67
1, 66000, Note_on_c, 0, 49, 48
1, 66000, Note_on_c, 0, 61, 57
1, 66080, Note_on_c, 0, 87, 0
1, 66080, Note_on_c, 0, 85, 65
1, 66160, Note_on_c, 0, 85, 0
1, 66160, Note_on_c, 0, 80, 59
1, 66240, Tempo, 512821
1, 66240, Note_on_c, 0, 80, 0
1, 66240, Note_on_c, 0, 61, 0
1, 66240, Note_on_c, 0, 49, 0
1, 66240, Note_on_c, 0, 78, 66
1, 66240, Note_on_c, 0, 63, 66
1, 66240, Note_on_c, 0, 58, 56
1, 66240, Note_on_c, 0, 54, 56
1, 66320, Note_on_c, 0, 78, 0
1, 66320, Note_on_c, 0, 85, 63
1, 66400, Note_on_c, 0, 85, 0
1, 66400, Note_on_c, 0, 90, 59
1, 66480, Tempo, 526316
1, 66480, Note_on_c, 0, 90, 0
1, 66480, Note_on_c, 0, 63, 0
1, 66480, Note_on_c, 0, 58, 0
1, 66480, Note_on_c, 0, 54, 0
1, 66480, Note_on_c, 0, 92, 64
1, 66480, Note_on_c, 0, 49, 48
1, 66480, Note_on_c, 0, 61, 59
1, 66560, Note_on_c, 0, 92, 0
1, 66560, Note_on_c, 0, 90, 64
1, 66640, Note_on_c, 0, 90, 0
1, 66640, Note_on_c, 0, 87, 57
1, 66720, Tempo, 512821
1, 66720, Note_on_c, 0, 87, 0
1, 66720, Note_on_c, 0, 61, 0
1, 66720, Note_on_c, 0, 49, 0
1, 66720, Note_on_c, 0, 85, 70
1, 66720, Note_on_c, 0, 59, 56
1, 66720, Note_on_c, 0, 53, 56
1, 66720, Note_on_c, 0, 63, 68
1, 66800, Note_on_c, 0, 85, 0
1, 66800, Note_on_c, 0, 92, 67
1, 66880, Note_on_c, 0, 92, 0
1, 66880, Note_on_c, 0, 97, 65
1, 66960, Tempo, 526316
1, 66960, Note_on_c, 0, 97, 0
1, 66960, Note_on_c, 0, 59, 0
1, 66960, Note_on_c, 0, 53, 0
1, 66960, Note_on_c, 0, 63, 0
1, 66960, Note_on_c, 0, 99, 74
1, 66960, Note_on_c, 0, 61, 62
1, 66960, Note_on_c, 0, 49, 52
1, 67040, Note_on_c, 0, 99, 0
1, 67040, Note_on_c, 0, 97, 67
1, 67120, Note_on_c, 0, 97, 0
1, 67120, Note_on_c, 0, 92, 62
1, 67200, Tempo, 517241
1, 67200, Note_on_c, 0, 92, 0
1, 67200, Note_on_c, 0, 49, 0
1, 67200, Note_on_c, 0, 61, 0
1, 67200, Note_on_c, 0, 90, 62
1, 67200, Note_on_c, 0, 66, 59
1, 67200, Note_on_c, 0, 54, 48
1, 67200, Note_on_c, 0, 58, 48
1, 67280, Note_on_c, 0, 90, 0
1, 67280, Note_on_c, 0, 92, 57
1, 67360, Note_on_c, 0, 92, 0
1, 67360, Note_on_c, 0, 90, 56
1, 67440, Note_on_c, 0, 90, 0
1, 67440, Note_on_c, 0, 66, 0
1, 67440, Note_on_c, 0, 58, 0
1, 67440, Note_on_c, 0, 85, 63
1, 67440, Note_on_c, 0, 61, 45
1, 67520, Note_on_c, 0, 85, 0
1, 67520, Note_on_c, 0, 97, 59
1, 67600, Note_on_c, 0, 97, 0
1, 67600, Note_on_c, 0, 85, 59
1, 67680, Note_on_c, 0, 85, 0
1, 67680, Note_on_c, 0, 61, 0
1, 67680, Note_on_c, 0, 85, 63
1, 67680, Note_on_c, 0, 68, 60
1, 67680, Note_on_c, 0, 59, 50
1, 67760, Note_on_c, 0, 85, 0
1, 67760, Note_on_c, 0, 87, 60
1, 67840, Note_on_c, 0, 87, 0
1, 67840, Note_on_c, 0, 85, 57
1, 67920, Note_on_c, 0, 85, 0
1, 67920, Note_on_c, 0, 59, 0
1, 67920, Note_on_c, 0, 68, 0
1, 67920, Note_on_c, 0, 80, 59
1, 67920, Note_on_c, 0, 56, 46
1, 67920, Note_on_c, 0, 65, 55
1, 68000, Note_on_c, 0, 80, 0
1, 68000, Note_on_c, 0, 92, 59
1, 68080, Note_on_c, 0, 92, 0
1, 68080, Note_on_c, 0, 80, 59
1, 68160, Note_on_c, 0, 80, 0
1, 68160, Note_on_c, 0, 54, 0
1, 68160, Note_on_c, 0, 56, 0
1, 68160, Note_on_c, 0, 65, 0
1, 68160, Note_on_c, 0, 80, 63
1, 68160, Note_on_c, 0, 58, 51
1, 68160, Note_on_c, 0, 66, 61
1, 68160, Note_on_c, 0, 54, 51
1, 68240, Note_on_c, 0, 80, 0
1, 68240, Note_on_c, 0, 82, 59
1, 68320, Note_on_c, 0, 82, 0
1, 68320, Note_on_c, 0, 80, 55
1, 68400, Tempo, 528634
1, 68400, Note_on_c, 0, 80, 0
1, 68400, Note_on_c, 0, 58, 0
1, 68400, Note_on_c, 0, 66, 0
1, 68400, Note_on_c, 0, 78, 58
1, 68400, Note_on_c, 0, 61, 46
1, 68480, Note_on_c, 0, 78, 0
1, 68480, Note_on_c, 0, 90, 58
1, 68560, Note_on_c, 0, 90, 0
1, 68560, Note_on_c, 0, 78, 55
1, 68640, Tempo, 517241
1, 68640, Note_on_c, 0, 78, 0
1, 68640, Note_on_c, 0, 61, 0
1, 68640, Note_on_c, 0, 73, 63
1, 68640, Note_on_c, 0, 59, 51
1, 68640, Note_on_c, 0, 68, 61
1, 68880, Note_on_c, 0, 68, 0
1, 68880, Note_on_c, 0, 59, 0
1, 68880, Note_on_c, 0, 56, 47
1, 68880, Note_on_c, 0, 65, 56
1, 69120, Note_on_c, 0, 65, 0
1, 69120, Note_on_c, 0, 56, 0
1, 69120, Note_on_c, 0, 54, 0
1, 69120, Note_on_c, 0, 58, 55
1, 69120, Note_on_c, 0, 66, 64
1, 69120, Note_on_c, 0, 54, 55
1, 69200, Note_on_c, 0, 73, 0
1, 69200, Note_on_c, 0, 78, 64
1, 69280, Note_on_c, 0, 78, 0
1, 69280, Note_on_c, 0, 80, 62
1, 69360, Tempo, 526316
1, 69360, Note_on_c, 0, 80, 0
1, 69360, Note_on_c, 0, 58, 0
1, 69360, Note_on_c, 0, 66, 0
1, 69360, Note_on_c, 0, 54, 0
1, 69360, Note_on_c, 0, 82, 70
1, 69360, Note_on_c, 0, 61, 59
1, 69440, Note_on_c, 0, 82, 0
1, 69440, Note_on_c, 0, 80, 64
1, 69520, Note_on_c, 0, 80, 0
1, 69520, Note_on_c, 0, 78, 61
1, 69600, Tempo, 512821
1, 69600, Note_on_c, 0, 78, 0
1, 69600, Note_on_c, 0, 61, 0
1, 69600, Note_on_c, 0, 73, 69
1, 69600, Note_on_c, 0, 63, 70
1, 69600, Note_on_c, 0, 59, 59
1, 69600, Note_on_c, 0, 53, 59
1, 69680, Note_on_c, 0, 73, 0
1, 69680, Note_on_c, 0, 80, 66
1, 69760, Note_on_c, 0, 80, 0
1, 69760, Note_on_c, 0, 85, 64
1, 69840, Tempo, 524017
1, 69840, Note_on_c, 0, 85, 0
1, 69840, Note_on_c, 0, 63, 0
1, 69840, Note_on_c, 0, 59, 0
1, 69840, Note_on_c, 0, 53, 0
1, 69840, Note_on_c, 0, 87, 73
1, 69840, Note_on_c, 0, 49, 53
1, 69840, Note_on_c, 0, 61, 63
1, 69920, Note_on_c, 0, 87, 0
1, 69920, Note_on_c, 0, 85, 67
1, 70000, Note_on_c, 0, 85, 0
1, 70000, Note_on_c, 0, 80, 65
1, 70080, Tempo, 512821
1, 70080, Note_on_c, 0, 80, 0
1, 70080, Note_on_c, 0, 61, 0
1, 70080, Note_on_c, 0, 49, 0
1, 70080, Note_on_c, 0, 78, 74
1, 70080, Note_on_c, 0, 54, 66
1, 70080, Note_on_c, 0, 63, 79
1, 70080, Note_on_c, 0, 58, 66
1, 70160, Note_on_c, 0, 78, 0
1, 70160, Note_on_c, 0, 85, 71
1, 70240, Note_on_c, 0, 85, 0
1, 70240, Note_on_c, 0, 90, 70
1, 70320, Tempo, 524017
1, 70320, Note_on_c, 0, 90, 0
1, 70320, Note_on_c, 0, 54, 0
1, 70320, Note_on_c, 0, 63, 0
1, 70320, Note_on_c, 0, 58, 0
1, 70320, Note_on_c, 0, 92, 76
1, 70320, Note_on_c, 0, 61, 72
1, 70320, Note_on_c, 0, 49, 61
1, 70400, Note_on_c, 0, 92, 0
1, 70400, Note_on_c, 0, 90, 70
1, 70480, Note_on_c, 0, 90, 0
1, 70480, Note_on_c, 0, 85, 70
1, 70560, Tempo, 517241
1, 70560, Note_on_c, 0, 85, 0
1, 70560, Note_on_c, 0, 49, 0
1, 70560, Note_on_c, 0, 61, 0
1, 70560, Note_on_c, 0, 80, 79
1, 70560, Note_on_c, 0, 53, 70
1, 70560, Note_on_c, 0, 59, 70
1, 70560, Note_on_c, 0, 63, 84
1, 70640, Note_on_c, 0, 80, 0
1, 70640, Note_on_c, 0, 85, 81
1, 70720, Note_on_c, 0, 85, 0
1, 70720, Note_on_c, 0, 92, 78
1, 70800, Note_on_c, 0, 92, 0
1, 70800, Note_on_c, 0, 53, 0
1, 70800, Note_on_c, 0, 59, 0
1, 70800, Note_on_c, 0, 63, 0
1, 70800, Note_on_c, 0, 94, 86
1, 70800, Note_on_c, 0, 61, 81
1, 70800, Note_on_c, 0, 49, 69
1, 70880, Note_on_c, 0, 94, 0
1, 70880, Note_on_c, 0, 92, 78
1, 70960, Note_on_c, 0, 92, 0
1, 70960, Note_on_c, 0, 85, 74
1, 71010, Note_on_c, 0, 49, 0
1, 71010, Note_on_c, 0, 61, 0
1, 71010, Note_on_c, 0, 54, 68
1, 71025, Note_on_c, 0, 61, 70
1, 71040, Tempo, 530973
1, 71040, Note_on_c, 0, 85, 0
1, 71040, Note_on_c, 0, 94, 87
1, 71040, Note_on_c, 0, 70, 90
1, 71120, Note_on_c, 0, 94, 0
1, 71120, Note_on_c, 0, 85, 77
1, 71200, Note_on_c, 0, 85, 0
1, 71200, Note_on_c, 0, 92, 71
1, 71280, Note_on_c, 0, 92, 0
1, 71280, Note_on_c, 0, 82, 83
1, 71360, Note_on_c, 0, 82, 0
1, 71360, Note_on_c, 0, 92, 78
1, 71440, Note_on_c, 0, 92, 0
1, 71440, Note_on_c, 0, 85, 70
1, 71520, Tempo, 521739
1, 71520, Note_on_c, 0, 85, 0
1, 71520, Note_on_c, 0, 70, 0
1, 71520, Note_on_c, 0, 61, 0
1, 71520, Note_on_c, 0, 54, 0
1, 71520, Note_on_c, 0, 90, 83
1, 71600, Note_on_c, 0, 90, 0
1, 71600, Note_on_c, 0, 82, 76
1, 71680, Note_on_c, 0, 82, 0
1, 71680, Note_on_c, 0, 87, 72
1, 71760, Note_on_c, 0, 87, 0
1, 71760, Note_on_c, 0, 80, 83
1, 71760, Note_on_c, 0, 49, 79
1, 71760, Note_on_c, 0, 59, 79
1, 71760, Note_on_c, 0, 56, 79
1, 71760, Note_on_c, 0, 65, 94
1, 71840, Note_on_c, 0, 80, 0
1, 71840, Note_on_c, 0, 85, 76
1, 71920, Note_on_c, 0, 85, 0
1, 71920, Note_on_c, 0, 73, 72
1, 72000, Note_on_c, 0, 73, 0
1, 72000, Note_on_c, 0, 56, 0
1, 72000, Note_on_c, 0, 49, 0
1, 72000, Note_on_c, 0, 59, 0
1, 72000, Note_on_c, 0, 65, 0
1, 72000, Note_on_c, 0, 82, 83
1, 72000, Note_on_c, 0, 54, 77
1, 72000, Note_on_c, 0, 58, 77
1, 72000, Note_on_c, 0, 66, 90
1, 72080, Note_on_c, 0, 82, 0
1, 72080, Note_on_c, 0, 73, 78
1, 72160, Note_on_c, 0, 73, 0
1, 72160, Note_on_c, 0, 80, 74
1, 72240, Note_on_c, 0, 80, 0
1, 72240, Note_on_c, 0, 70, 83
1, 72320, Note_on_c, 0, 70, 0
1, 72320, Note_on_c, 0, 80, 72
1, 72400, Note_on_c, 0, 80, 0
1, 72400, Note_on_c, 0, 73, 72
1, 72480, Note_on_c, 0, 73, 0
1, 72480, Note_on_c, 0, 66, 0
1, 72480, Note_on_c, 0, 58, 0
1, 72480, Note_on_c, 0, 54, 0
1, 72480, Note_on_c, 0, 78, 83
1, 72560, Note_on_c, 0, 78, 0
1, 72560, Note_on_c, 0, 70, 78
1, 72640, Note_on_c, 0, 70, 0
1, 72640, Note_on_c, 0, 75, 74
1, 72720, Note_on_c, 0, 75, 0
1, 72720, Note_on_c, 0, 68, 83
1, 72720, Note_on_c, 0, 37, 78
1, 72720, Note_on_c, 0, 47, 78
1, 72720, Note_on_c, 0, 53, 93
1, 72800, Note_on_c, 0, 68, 0
1, 72800, Note_on_c, 0, 73, 77
1, 72880, Note_on_c, 0, 73, 0
1, 72880, Note_on_c, 0, 61, 76
1, 72960, Note_on_c, 0, 61, 0
1, 72960, Note_on_c, 0, 37, 0
1, 72960, Note_on_c, 0, 47, 0
1, 72960, Note_on_c, 0, 53, 0
1, 72960, Note_on_c, 0, 70, 87
1, 72960, Note_on_c, 0, 42, 75
1, 72960, Note_on_c, 0, 46, 75
1, 72960, Note_on_c, 0, 54, 89
1, 73040, Note_on_c, 0, 70, 0
1, 73040, Note_on_c, 0, 61, 82
1, 73120, Note_on_c, 0, 61, 0
1, 73120, Note_on_c, 0, 68, 77
1, 73200, Note_on_c, 0, 68, 0
1, 73200, Note_on_c, 0, 58, 88
1, 73280, Note_on_c, 0, 58, 0
1, 73280, Note_on_c, 0, 68, 77
1, 73360, Note_on_c, 0, 68, 0
1, 73360, Note_on_c, 0, 61, 81
1, 73440, Note_on_c, 0, 61, 0
1, 73440, Note_on_c, 0, 54, 0
1, 73440, Note_on_c, 0, 46, 0
1, 73440, Note_on_c, 0, 42, 0
1, 73440, Note_on_c, 0, 66, 93
1, 73520, Note_on_c, 0, 66, 0
1, 73520, Note_on_c, 0, 58, 87
1, 73600, Note_on_c, 0, 58, 0
1, 73600, Note_on_c, 0, 63, 86
1, 73680, Note_on_c, 0, 63, 0
1, 73680, Note_on_c, 0, 56, 97
1, 73680, Note_on_c, 0, 37, 80
1, 73760, Note_on_c, 0, 56, 0
1, 73760, Note_on_c, 0, 61, 91
1, 73840, Note_on_c, 0, 61, 0
1, 73840, Note_on_c, 0, 49, 88
1, 73920, Note_on_c, 0, 49, 0
1, 73920, Note_on_c, 0, 37, 0
1, 73920, Note_on_c, 0, 58, 101
1, 73920, Note_on_c, 0, 30, 71
1, 73920, Note_on_c, 0, 42, 85
1, 74000, Note_on_c, 0, 58, 0
1, 74000, Note_on_c, 0, 54, 92
1, 74080, Note_on_c, 0, 54, 0
1, 74080, Note_on_c, 0, 63, 87
1, 74160, Note_on_c, 0, 63, 0
1, 74160, Note_on_c, 0, 42, 0
1, 74160, Note_on_c, 0, 30, 0
1, 74160, Note_on_c, 0, 49, 101
1, 74160, Note_on_c, 0, 25, 68
1, 74160, Note_on_c, 0, 37, 80
1, 74240, Note_on_c, 0, 49, 0
1, 74240, Note_on_c, 0, 61, 92
1, 74320, Note_on_c, 0, 61, 0
1, 74320, Note_on_c, 0, 56, 86
1, 74400, Note_on_c, 0, 56, 0
1, 74400, Note_on_c, 0, 37, 0
1, 74400, Note_on_c, 0, 25, 0
1, 74400, Note_on_c, 0, 58, 101
1, 74400, Note_on_c, 0, 30, 71
1, 74400, Note_on_c, 0, 42, 85
1, 74480, Note_on_c, 0, 58, 0
1, 74480, Note_on_c, 0, 54, 93
1, 74560, Note_on_c, 0, 54, 0
1, 74560, Note_on_c, 0, 63, 89
1, 74640, Note_on_c, 0, 63, 0
1, 74640, Note_on_c, 0, 42, 0
1, 74640, Note_on_c, 0, 30, 0
1, 74640, Note_on_c, 0, 49, 101
1, 74640, Note_on_c, 0, 25, 68
1, 74640, Note_on_c, 0, 37, 80
1, 74720, Note_on_c, 0, 49, 0
1, 74720, Note_on_c, 0, 61, 93
1, 74800, Note_on_c, 0, 61, 0
1, 74800, Note_on_c, 0, 56, 89
1, 74880, Tempo, 530973
1, 74880, Note_on_c, 0, 56, 0
1, 74880, Note_on_c, 0, 37, 0
1, 74880, Note_on_c, 0, 25, 0
1, 74880, Note_on_c, 0, 58, 101
1, 74880, Note_on_c, 0, 30, 71
1, 74880, Note_on_c, 0, 42, 85
1, 75120, Tempo, 521739
1, 75120, Note_on_c, 0, 42, 0
1, 75120, Note_on_c, 0, 30, 0
1, 75120, Note_on_c, 0, 58, 0
1, 75120, Note_on_c, 0, 54, 48
1, 75120, Note_on_c, 0, 58, 60
1, 75200, Note_on_c, 0, 58, 0
1, 75200, Note_on_c, 0, 54, 0
1, 75200, Note_on_c, 0, 56, 59
1, 75280, Note_on_c, 0, 56, 0
1, 75280, Note_on_c, 0, 54, 54
1, 75360, Note_on_c, 0, 54, 0
1, 75360, Note_on_c, 0, 66, 63
1, 75360, Note_on_c, 0, 63, 50
1, 75440, Note_on_c, 0, 63, 0
1, 75440, Note_on_c, 0, 66, 0
1, 75440, Note_on_c, 0, 61, 60
1, 75520, Note_on_c, 0, 61, 0
1, 75520, Note_on_c, 0, 58, 56
1, 75600, Note_on_c, 0, 58, 0
1, 75600, Note_on_c, 0, 70, 64
1, 75600, Note_on_c, 0, 66, 50
1, 75600, Note_on_c, 0, 42, 53
1, 75680, Note_on_c, 0, 42, 0
1, 75680, Note_on_c, 0, 66, 0
1, 75680, Note_on_c, 0, 70, 0
1, 75680, Note_on_c, 0, 63, 62
1, 75680, Note_on_c, 0, 49, 48
1, 75760, Note_on_c, 0, 49, 0
1, 75760, Note_on_c, 0, 63, 0
1, 75760, Note_on_c, 0, 61, 58
1, 75760, Note_on_c, 0, 58, 46
1, 75840, Note_on_c, 0, 58, 0
1, 75840, Note_on_c, 0, 61, 0
1, 75840, Note_on_c, 0, 70, 52
1, 75840, Note_on_c, 0, 73, 66
1, 75840, Note_on_c, 0, 42, 56
1, 75920, Note_on_c, 0, 42, 0
1, 75920, Note_on_c, 0, 73, 0
1, 75920, Note_on_c, 0, 70, 0
1, 75920, Note_on_c, 0, 68, 64
1, 75920, Note_on_c, 0, 49, 51
1, 76000, Note_on_c, 0, 49, 0
1, 76000, Note_on_c, 0, 68, 0
1, 76000, Note_on_c, 0, 66, 58
1, 76000, Note_on_c, 0, 58, 49
1, 76080, Note_on_c, 0, 58, 0
1, 76080, Note_on_c, 0, 66, 0
1, 76080, Note_on_c, 0, 78, 69
1, 76080, Note_on_c, 0, 75, 55
1, 76080, Note_on_c, 0, 46, 57
1, 76160, Note_on_c, 0, 46, 0
1, 76160, Note_on_c, 0, 75, 0
1, 76160, Note_on_c, 0, 78, 0
1, 76160, Note_on_c, 0, 73, 59
1, 76160, Note_on_c, 0, 54, 52
1, 76240, Note_on_c, 0, 54, 0
1, 76240, Note_on_c, 0, 73, 0
1, 76240, Note_on_c, 0, 70, 59
1, 76240, Note_on_c, 0, 61, 49
1, 76320, Note_on_c, 0, 61, 0
1, 76320, Note_on_c, 0, 70, 0
1, 76320, Note_on_c, 0, 82, 70
1, 76320, Note_on_c, 0, 78, 55
1, 76320, Note_on_c, 0, 49, 59
1, 76400, Note_on_c, 0, 49, 0
1, 76400, Note_on_c, 0, 78, 0
1, 76400, Note_on_c, 0, 82, 0
1, 76400, Note_on_c, 0, 75, 65
1, 76400, Note_on_c, 0, 58, 52
1, 76480, Note_on_c, 0, 58, 0
1, 76480, Note_on_c, 0, 75, 0
1, 76480, Note_on_c, 0, 73, 64
1, 76480, Note_on_c, 0, 66, 51
1, 76560, Note_on_c, 0, 66, 0
1, 76560, Note_on_c, 0, 73, 0
1, 76560, Note_on_c, 0, 85, 71
1, 76560, Note_on_c, 0, 82, 56
1, 76560, Note_on_c, 0, 54, 61
1, 76640, Note_on_c, 0, 54, 0
1, 76640, Note_on_c, 0, 82, 0
1, 76640, Note_on_c, 0, 85, 0
1, 76640, Note_on_c, 0, 80, 67
1, 76640, Note_on_c, 0, 61, 54
1, 76720, Note_on_c, 0, 61, 0
1, 76720, Note_on_c, 0, 80, 0
1, 76720, Note_on_c, 0, 78, 67
1, 76720, Note_on_c, 0, 70, 51
1, 76800, Tempo, 519481
1, 76800, Note_on_c, 0, 70, 0
1, 76800, Note_on_c, 0, 78, 0
1, 76800, Note_on_c, 0, 90, 73
1, 76800, Note_on_c, 0, 87, 58
1, 76800, Note_on_c, 0, 58, 61
1, 76880, Note_on_c, 0, 58, 0
1, 76880, Note_on_c, 0, 87, 0
1, 76880, Note_on_c, 0, 90, 0
1, 76880, Note_on_c, 0, 85, 67
1, 76880, Note_on_c, 0, 66, 56
1, 76960, Note_on_c, 0, 66, 0
1, 76960, Note_on_c, 0, 85, 0
1, 76960, Note_on_c, 0, 82, 65
1, 76960, Note_on_c, 0, 73, 54
1, 77040, Note_on_c, 0, 73, 0
1, 77040, Note_on_c, 0, 82, 0
1, 77040, Note_on_c, 0, 94, 75
1, 77040, Note_on_c, 0, 90, 59
1, 77040, Note_on_c, 0, 61, 65
1, 77120, Tempo, 521739
1, 77120, Note_on_c, 0, 61, 0
1, 77120, Note_on_c, 0, 90, 0
1, 77120, Note_on_c, 0, 94, 0
1, 77120, Note_on_c, 0, 87, 69
1, 77120, Note_on_c, 0, 70, 58
1, 77200, Note_on_c, 0, 70, 0
1, 77200, Note_on_c, 0, 87, 0
1, 77200, Note_on_c, 0, 85, 66
1, 77200, Note_on_c, 0, 78, 56
1, 77280, Note_on_c, 0, 78, 0
1, 77280, Note_on_c, 0, 85, 0
1, 77280, Note_on_c, 0, 90, 78
1, 77280, Note_on_c, 0, 87, 62
1, 77280, Note_on_c, 0, 66, 67
1, 77360, Note_on_c, 0, 66, 0
1, 77360, Note_on_c, 0, 87, 0
1, 77360, Note_on_c, 0, 90, 0
1, 77360, Note_on_c, 0, 85, 70
1, 77360, Note_on_c, 0, 70, 59
1, 77440, Tempo, 524017
1, 77440, Note_on_c, 0, 70, 0
1, 77440, Note_on_c, 0, 85, 0
1, 77440, Note_on_c, 0, 82, 69
1, 77440, Note_on_c, 0, 78, 58
1, 77520, Note_on_c, 0, 78, 0
1, 77520, Note_on_c, 0, 82, 0
1, 77520, Note_on_c, 0, 94, 78
1, 77520, Note_on_c, 0, 90, 62
1, 77520, Note_on_c, 0, 61, 68
1, 77600, Note_on_c, 0, 61, 0
1, 77600, Note_on_c, 0, 90, 0
1, 77600, Note_on_c, 0, 94, 0
1, 77600, Note_on_c, 0, 87, 71
1, 77600, Note_on_c, 0, 70, 60
1, 77680, Note_on_c, 0, 70, 0
1, 77680, Note_on_c, 0, 87, 0
1, 77680, Note_on_c, 0, 85, 70
1, 77680, Note_on_c, 0, 78, 59
1, 77760, Tempo, 526316
1, 77760, Note_on_c, 0, 78, 0
1, 77760, Note_on_c, 0, 85, 0
1, 77760, Note_on_c, 0, 90, 81
1, 77760, Note_on_c, 0, 87, 64
1, 77760, Note_on_c, 0, 66, 72
1, 77840, Note_on_c, 0, 66, 0
1, 77840, Note_on_c, 0, 87, 0
1, 77840, Note_on_c, 0, 90, 0
1, 77840, Note_on_c, 0, 85, 74
1, 77840, Note_on_c, 0, 70, 61
1, 77920, Note_on_c, 0, 70, 0
1, 77920, Note_on_c, 0, 85, 0
1, 77920, Note_on_c, 0, 82, 73
1, 77920, Note_on_c, 0, 78, 59
1, 78000, Note_on_c, 0, 78, 0
1, 78000, Note_on_c, 0, 82, 0
1, 78000, Note_on_c, 0, 94, 81
1, 78000, Note_on_c, 0, 90, 64
1, 78000, Note_on_c, 0, 61, 72
1, 78080, Tempo, 528634
1, 78080, Note_on_c, 0, 61, 0
1, 78080, Note_on_c, 0, 90, 0
1, 78080, Note_on_c, 0, 94, 0
1, 78080, Note_on_c, 0, 87, 75
1, 78080, Note_on_c, 0, 70, 65
1, 78160, Note_on_c, 0, 70, 0
1, 78160, Note_on_c, 0, 87, 0
1, 78160, Note_on_c, 0, 85, 74
1, 78160, Note_on_c, 0, 78, 63
1, 78240, Note_on_c, 0, 78, 0
1, 78240, Note_on_c, 0, 85, 0
1, 78240, Note_on_c, 0, 90, 82
1, 78240, Note_on_c, 0, 87, 65
1, 78240, Note_on_c, 0, 66, 73
1, 78320, Note_on_c, 0, 66, 0
1, 78320, Note_on_c, 0, 87, 0
1, 78320, Note_on_c, 0, 90, 0
1, 78320, Note_on_c, 0, 85, 75
1, 78320, Note_on_c, 0, 70, 67
1, 78400, Tempo, 530973
1, 78400, Note_on_c, 0, 70, 0
1, 78400, Note_on_c, 0, 85, 0
1, 78400, Note_on_c, 0, 82, 75
1, 78400, Note_on_c, 0, 78, 66
1, 78480, Note_on_c, 0, 78, 0
1, 78480, Note_on_c, 0, 82, 0
1, 78480, Note_on_c, 0, 94, 85
1, 78480, Note_on_c, 0, 90, 67
1, 78480, Note_on_c, 0, 61, 75
1, 78560, Note_on_c, 0, 61, 0
1, 78560, Note_on_c, 0, 90, 0
1, 78560, Note_on_c, 0, 94, 0
1, 78560, Note_on_c, 0, 87, 77
1, 78560, Note_on_c, 0, 70, 69
1, 78640, Note_on_c, 0, 70, 0
1, 78640, Note_on_c, 0, 87, 0
1, 78640, Note_on_c, 0, 85, 75
1, 78640, Note_on_c, 0, 78, 69
1, 78720, Tempo, 779221
1, 78720, Note_on_c, 0, 78, 0
1, 78720, Note_on_c, 0, 85, 0
1, 78720, Note_on_c, 0, 82, 89
1, 78720, Note_on_c, 0, 90, 89
1, 78720, Note_on_c, 0, 66, 81
1, 78800, Note_on_c, 0, 66, 0
1, 78800, Note_on_c, 0, 90, 0
1, 78800, Note_on_c, 0, 82, 0
1, 78820, Tempo, 600000
1, 78880, Tempo, 603015
1, 78880, Note_on_c, 0, 78, 94
1, 78880, Note_on_c, 0, 90, 94
1, 78880, Note_on_c, 0, 54, 87
1, 78880, Note_on_c, 0, 66, 87
1, 78940, Tempo, 606061
1, 78960, Note_on_c, 0, 66, 0
1, 78960, Note_on_c, 0, 78, 0
1, 78960, Note_on_c, 0, 90, 0
1, 78960, Note_on_c, 0, 54, 0
1, 78960, Note_on_c, 0, 87, 94
1, 78960, Note_on_c, 0, 75, 94
1, 78960, Note_on_c, 0, 63, 83
1, 78960, Note_on_c, 0, 51, 83
1, 79000, Tempo, 609137
1, 79020, Note_on_c, 0, 51, 0
1, 79020, Note_on_c, 0, 87, 0
1, 79020, Note_on_c, 0, 75, 0
1, 79020, Note_on_c, 0, 63, 0
1, 79040, Note_on_c, 0, 85, 95
1, 79040, Note_on_c, 0, 73, 95
1, 79040, Note_on_c, 0, 61, 85
1, 79040, Note_on_c, 0, 49, 85
1, 79060, Tempo, 612245
1, 79100, Tempo, 615385
1, 79100, Note_on_c, 0, 49, 0
1, 79100, Note_on_c, 0, 85, 0
1, 79100, Note_on_c, 0, 73, 0
1, 79100, Note_on_c, 0, 61, 0
1, 79120, Note_on_c, 0, 82, 96
1, 79120, Note_on_c, 0, 70, 96
1, 79120, Note_on_c, 0, 58, 86
1, 79120, Note_on_c, 0, 46, 86
1, 79160, Tempo, 618557
1, 79180, Note_on_c, 0, 46, 0
1, 79180, Note_on_c, 0, 82, 0
1, 79180, Note_on_c, 0, 70, 0
1, 79180, Note_on_c, 0, 58, 0
1, 79200, Note_on_c, 0, 80, 97
1, 79200, Note_on_c, 0, 68, 97
1, 79200, Note_on_c, 0, 56, 86
1, 79200, Note_on_c, 0, 44, 86
1, 79220, Tempo, 621762
1, 79260, Note_on_c, 0, 44, 0
1, 79260, Note_on_c, 0, 80, 0
1, 79260, Note_on_c, 0, 68, 0
1, 79260, Note_on_c, 0, 56, 0
1, 79280, Tempo, 625000
1, 79280, Note_on_c, 0, 78, 98
1, 79280, Note_on_c, 0, 66, 98
1, 79280, Note_on_c, 0, 54, 87
1, 79280, Note_on_c, 0, 42, 87
1, 79340, Tempo, 628272
1, 79340, Note_on_c, 0, 42, 0
1, 79340, Note_on_c, 0, 78, 0
1, 79340, Note_on_c, 0, 66, 0
1, 79340, Note_on_c, 0, 54, 0
1, 79360, Note_on_c, 0, 75, 98
1, 79360, Note_on_c, 0, 63, 98
1, 79360, Note_on_c, 0, 51, 88
1, 79360, Note_on_c, 0, 39, 88
1, 79380, Tempo, 631579
1, 79420, Note_on_c, 0, 39, 0
1, 79420, Note_on_c, 0, 75, 0
1, 79420, Note_on_c, 0, 63, 0
1, 79420, Note_on_c, 0, 51, 0
1, 79440, Tempo, 634921
1, 79440, Note_on_c, 0, 73, 100
1, 79440, Note_on_c, 0, 61, 100
1, 79440, Note_on_c, 0, 37, 89
1, 79440, Note_on_c, 0, 49, 89
1, 79500, Tempo, 638298
1, 79500, Note_on_c, 0, 49, 0
1, 79500, Note_on_c, 0, 73, 0
1, 79500, Note_on_c, 0, 61, 0
1, 79500, Note_on_c, 0, 37, 0
1, 79520, Note_on_c, 0, 70, 101
1, 79520, Note_on_c, 0, 58, 101
1, 79520, Note_on_c, 0, 34, 89
1, 79520, Note_on_c, 0, 46, 89
1, 79560, Tempo, 641711
1, 79580, Note_on_c, 0, 46, 0
1, 79580, Note_on_c, 0, 70, 0
1, 79580, Note_on_c, 0, 58, 0
1, 79580, Note_on_c, 0, 34, 0
1, 79600, Note_on_c, 0, 68, 103
1, 79600, Note_on_c, 0, 56, 103
1, 79600, Note_on_c, 0, 32, 92
1, 79600, Note_on_c, 0, 44, 92
1, 79620, Tempo, 645161
1, 79660, Tempo, 648649
1, 79660, Note_on_c, 0, 44, 0
1, 79660, Note_on_c, 0, 68, 0
1, 79660, Note_on_c, 0, 56, 0
1, 79660, Note_on_c, 0, 32, 0
1, 79680, Tempo, 701754
1, 79680, Note_on_c, 0, 54, 111
1, 79680, Note_on_c, 0, 66, 111
1, 79680, Note_on_c, 0, 30, 99
1, 79680, Note_on_c, 0, 42, 99
1, 79800, Note_on_c, 0, 42, 0
1, 79800, Note_on_c, 0, 54, 0
1, 79800, Note_on_c, 0, 66, 0
1, 79800, Note_on_c, 0, 30, 0
1, 79807, Control_c, 0, 64, 127
1, 80128, Tempo, 1463415
1, 80130, Note_on_c, 0, 54, 93
1, 80145, Note_on_c, 0, 61, 98
1, 80160, Tempo, 789474
1, 80160, Note_on_c, 0, 94, 118
1, 80160, Note_on_c, 0, 90, 108
1, 80160, Note_on_c, 0, 85, 108
1, 80160, Note_on_c, 0, 82, 108
1, 80160, Note_on_c, 0, 70, 108
1, 80610, Note_on_c, 0, 54, 0
1, 80640, Note_on_c, 0, 82, 0
1, 80640, Note_on_c, 0, 94, 0
1, 80640, Note_on_c, 0, 90, 0
1, 80640, Note_on_c, 0, 61, 0
1, 80640, Note_on_c, 0, 70, 0
1, 80640, Note_on_c, 0, 85, 0
1, 80640, Note_on_c, 0, 54, 112
1, 80640, Note_on_c, 0, 30, 102
1, 80640, Note_on_c, 0, 42, 102
1, 81600, Marker_t, "Fine"
1, 81600, Note_on_c, 0, 42, 0
1, 81600, Note_on_c, 0, 30, 0
1, 81600, Note_on_c, 0, 54, 0
1, 81600, Control_c, 0, 64, 0
1, 81600, End_track
0, 0, End_of_file
