0, 0, Header, 0, 1, 480
1, 0, Start_track
1, 0, Title_t, "Chopin Ballade in G minor Opus 32"
1, 0, Copyright_t, "Copyright © 2003 by Bernd Krueger "
1, 0, Text_t, "Frederic Chopin"
1, 0, Text_t, "Largo - Moderato"
1, 0, Text_t, "Fertiggestellt am 27.4.2003\012"
1, 0, Text_t, "Überarbeitet am 19.6.2003\012"
1, 0, Text_t, "Überarbeitet am 31.10.2010\012"
1, 0, Text_t, "Update am 15.2.2014\012"
1, 0, Text_t, "Dauer: 9:02 Minuten\012"
1, 0, SMPTE_offset, 96, 0, 3, 0, 0
1, 0, Time_signature, 4, 2, 24, 8
1, 0, Key_signature, -2, "major"
1, 0, Tempo, 869187
1, 0, Marker_t, "Largo"
1, 0, Program_c, 0, 0
1, 0, Control_c, 0, 7, 100
1, 0, Control_c, 0, 10, 64
1, 0, Control_c, 0, 91, 127
1, 0, Program_c, 0, 0
1, 0, Control_c, 0, 7, 100
1, 0, Control_c, 0, 10, 64
1, 0, Control_c, 0, 64, 0
1, 1, Note_on_c, 0, 48, 90
1, 1, Note_on_c, 0, 36, 74
1, 1200, Tempo, 815883
1, 1200, Note_on_c, 0, 36, 0
1, 1200, Note_on_c, 0, 48, 0
1, 1200, Note_on_c, 0, 51, 79
1, 1200, Note_on_c, 0, 39, 66
1, 1440, Tempo, 779221
1, 1440, Note_on_c, 0, 39, 0
1, 1440, Note_on_c, 0, 51, 0
1, 1440, Note_on_c, 0, 56, 83
1, 1440, Note_on_c, 0, 44, 70
1, 1680, Tempo, 810811
1, 1680, Note_on_c, 0, 44, 0
1, 1680, Note_on_c, 0, 56, 0
1, 1680, Note_on_c, 0, 58, 76
1, 1680, Note_on_c, 0, 46, 64
1, 1920, Tempo, 774194
1, 1920, Note_on_c, 0, 46, 0
1, 1920, Note_on_c, 0, 58, 0
1, 1920, Note_on_c, 0, 60, 83
1, 1920, Note_on_c, 0, 48, 70
1, 2160, Tempo, 784314
1, 2160, Note_on_c, 0, 48, 0
1, 2160, Note_on_c, 0, 60, 0
1, 2160, Note_on_c, 0, 56, 75
1, 2160, Note_on_c, 0, 44, 63
1, 2320, Tempo, 779221
1, 2400, Tempo, 764331
1, 2400, Note_on_c, 0, 44, 0
1, 2400, Note_on_c, 0, 56, 0
1, 2400, Note_on_c, 0, 63, 76
1, 2400, Note_on_c, 0, 51, 63
1, 2640, Tempo, 769231
1, 2640, Note_on_c, 0, 51, 0
1, 2640, Note_on_c, 0, 63, 0
1, 2640, Note_on_c, 0, 70, 72
1, 2640, Note_on_c, 0, 58, 55
1, 2880, Tempo, 784314
1, 2880, Note_on_c, 0, 58, 0
1, 2880, Note_on_c, 0, 70, 0
1, 2880, Note_on_c, 0, 72, 73
1, 2880, Note_on_c, 0, 60, 58
1, 3120, Tempo, 800000
1, 3120, Note_on_c, 0, 60, 0
1, 3120, Note_on_c, 0, 72, 0
1, 3120, Note_on_c, 0, 68, 68
1, 3120, Note_on_c, 0, 56, 54
1, 3360, Tempo, 794702
1, 3360, Note_on_c, 0, 56, 0
1, 3360, Note_on_c, 0, 68, 0
1, 3360, Note_on_c, 0, 75, 76
1, 3360, Note_on_c, 0, 63, 62
1, 3600, Tempo, 791661
1, 3600, Note_on_c, 0, 63, 0
1, 3600, Note_on_c, 0, 75, 0
1, 3600, Note_on_c, 0, 82, 68
1, 3600, Note_on_c, 0, 70, 54
1, 3640, Tempo, 774194
1, 3840, Tempo, 831255
1, 3840, Note_on_c, 0, 70, 0
1, 3840, Note_on_c, 0, 82, 0
1, 3840, Note_on_c, 0, 84, 69
1, 3840, Note_on_c, 0, 72, 57
1, 4080, Tempo, 869565
1, 4080, Note_on_c, 0, 72, 0
1, 4080, Note_on_c, 0, 84, 0
1, 4080, Note_on_c, 0, 79, 58
1, 4080, Note_on_c, 0, 67, 48
1, 4320, Tempo, 882353
1, 4320, Note_on_c, 0, 67, 0
1, 4320, Note_on_c, 0, 79, 0
1, 4320, Note_on_c, 0, 82, 59
1, 4320, Note_on_c, 0, 70, 53
1, 4560, Tempo, 1016949
1, 4560, Note_on_c, 0, 70, 0
1, 4560, Note_on_c, 0, 82, 0
1, 4560, Note_on_c, 0, 80, 53
1, 4560, Note_on_c, 0, 68, 35
1, 4760, Tempo, 1111111
1, 4800, Note_on_c, 0, 68, 0
1, 4800, Note_on_c, 0, 80, 0
1, 4800, Note_on_c, 0, 79, 49
1, 4800, Note_on_c, 0, 67, 32
1, 5280, Tempo, 1142857
1, 5280, Note_on_c, 0, 67, 0
1, 5280, Note_on_c, 0, 79, 0
1, 5280, Note_on_c, 0, 78, 44
1, 5280, Note_on_c, 0, 66, 27
1, 5520, Note_on_c, 0, 66, 0
1, 5520, Note_on_c, 0, 78, 0
1, 6000, Tempo, 875018
1, 6000, Note_on_c, 0, 78, 40
1, 6000, Note_on_c, 0, 66, 34
1, 6240, Tempo, 841751
1, 6240, Note_on_c, 0, 66, 0
1, 6240, Note_on_c, 0, 78, 0
1, 6240, Note_on_c, 0, 79, 44
1, 6240, Note_on_c, 0, 67, 37
1, 6480, Tempo, 810811
1, 6480, Note_on_c, 0, 67, 0
1, 6480, Note_on_c, 0, 79, 0
1, 6480, Note_on_c, 0, 78, 41
1, 6480, Note_on_c, 0, 66, 34
1, 6720, Tempo, 839161
1, 6720, Note_on_c, 0, 66, 0
1, 6720, Note_on_c, 0, 78, 0
1, 6720, Note_on_c, 0, 77, 44
1, 6720, Note_on_c, 0, 65, 37
1, 6920, Tempo, 909091
1, 6960, Note_on_c, 0, 65, 0
1, 6960, Note_on_c, 0, 77, 0
1, 6960, Note_on_c, 0, 78, 41
1, 6960, Note_on_c, 0, 66, 34
1, 7040, Tempo, 983607
1, 7200, Tempo, 895522
1, 7200, Note_on_c, 0, 66, 0
1, 7200, Note_on_c, 0, 78, 0
1, 7200, Note_on_c, 0, 81, 45
1, 7200, Note_on_c, 0, 69, 38
1, 7360, Tempo, 937500
1, 7360, Note_on_c, 0, 69, 0
1, 7360, Note_on_c, 0, 81, 0
1, 7360, Note_on_c, 0, 79, 41
1, 7360, Note_on_c, 0, 67, 34
1, 7520, Note_on_c, 0, 67, 0
1, 7520, Note_on_c, 0, 79, 0
1, 7520, Note_on_c, 0, 75, 44
1, 7520, Note_on_c, 0, 63, 37
1, 7680, Tempo, 991736
1, 7680, Note_on_c, 0, 63, 0
1, 7680, Note_on_c, 0, 75, 0
1, 7680, Note_on_c, 0, 75, 43
1, 7680, Note_on_c, 0, 63, 36
1, 7920, Tempo, 991736
1, 8000, Tempo, 1081081
1, 8040, Note_on_c, 0, 63, 0
1, 8040, Note_on_c, 0, 75, 0
1, 8040, Note_on_c, 0, 74, 39
1, 8040, Note_on_c, 0, 62, 33
1, 8160, Tempo, 1061947
1, 8160, Note_on_c, 0, 62, 0
1, 8160, Note_on_c, 0, 74, 0
1, 8160, Note_on_c, 0, 77, 40
1, 8160, Note_on_c, 0, 65, 34
1, 8320, Tempo, 1165049
1, 8320, Note_on_c, 0, 65, 0
1, 8320, Note_on_c, 0, 77, 0
1, 8320, Note_on_c, 0, 75, 39
1, 8320, Note_on_c, 0, 63, 33
1, 8480, Tempo, 1333333
1, 8480, Note_on_c, 0, 63, 0
1, 8480, Note_on_c, 0, 75, 0
1, 8480, Note_on_c, 0, 74, 33
1, 8480, Note_on_c, 0, 62, 26
1, 8624, Note_on_c, 0, 62, 0
1, 8624, Note_on_c, 0, 74, 0
1, 8640, Tempo, 1023018
1, 8640, Note_on_c, 0, 74, 31
1, 8640, Note_on_c, 0, 62, 24
1, 9120, Note_on_c, 0, 62, 0
1, 9120, Note_on_c, 0, 74, 0
1, 10560, Note_on_c, 0, 72, 43
1, 10560, Note_on_c, 0, 55, 42
1, 10560, Note_on_c, 0, 51, 42
1, 10560, Note_on_c, 0, 60, 42
1, 11280, Tempo, 826105
1, 11280, Note_on_c, 0, 72, 0
1, 11280, Note_on_c, 0, 67, 46
1, 11520, Tempo, 711153
1, 11520, Note_on_c, 0, 67, 0
1, 11520, Note_on_c, 0, 60, 0
1, 11520, Note_on_c, 0, 51, 0
1, 11520, Note_on_c, 0, 55, 0
1, 11520, Note_on_c, 0, 50, 44
1, 11540, Tempo, 714286
1, 11560, Tempo, 722892
1, 11580, Tempo, 736196
1, 11600, Tempo, 750000
1, 11640, Note_on_c, 0, 55, 48
1, 11700, Tempo, 1043478
1, 11760, Note_on_c, 0, 70, 62
1, 11760, Note_on_c, 0, 63, 56
1, 11800, Tempo, 852515
1, 11840, Tempo, 880799
1, 11920, Tempo, 983607
1, 12480, Tempo, 819672
1, 13440, Time_signature, 6, 2, 24, 8
1, 13440, Tempo, 738825
1, 13440, Marker_t, "Moderato"
1, 13440, Note_on_c, 0, 63, 0
1, 13440, Note_on_c, 0, 50, 0
1, 13440, Note_on_c, 0, 55, 0
1, 14857, Control_c, 0, 64, 127
1, 14880, Tempo, 666667
1, 14880, Note_on_c, 0, 38, 46
1, 15120, Note_on_c, 0, 38, 0
1, 15120, Note_on_c, 0, 60, 48
1, 15360, Tempo, 588235
1, 15360, Note_on_c, 0, 62, 44
1, 15600, Note_on_c, 0, 70, 0
1, 15600, Note_on_c, 0, 66, 44
1, 15840, Tempo, 560748
1, 15840, Note_on_c, 0, 66, 0
1, 15840, Note_on_c, 0, 70, 49
1, 16080, Note_on_c, 0, 70, 0
1, 16080, Note_on_c, 0, 69, 47
1, 16320, Tempo, 535714
1, 16320, Note_on_c, 0, 69, 0
1, 16320, Note_on_c, 0, 62, 0
1, 16320, Note_on_c, 0, 60, 0
1, 16320, Note_on_c, 0, 67, 44
1, 16327, Control_c, 0, 64, 0
1, 16800, Tempo, 521739
1, 16800, Note_on_c, 0, 58, 28
1, 16800, Note_on_c, 0, 62, 33
1, 16800, Note_on_c, 0, 43, 27
1, 17275, Note_on_c, 0, 43, 0
1, 17275, Note_on_c, 0, 62, 0
1, 17275, Note_on_c, 0, 58, 0
1, 17280, Tempo, 558140
1, 17280, Note_on_c, 0, 58, 28
1, 17280, Note_on_c, 0, 62, 33
1, 17280, Note_on_c, 0, 43, 27
1, 17755, Note_on_c, 0, 43, 0
1, 17755, Note_on_c, 0, 62, 0
1, 17755, Note_on_c, 0, 58, 0
1, 17760, Tempo, 526316
1, 17760, Note_on_c, 0, 67, 0
1, 17760, Note_on_c, 0, 74, 47
1, 18240, Tempo, 530973
1, 18240, Note_on_c, 0, 62, 28
1, 18240, Note_on_c, 0, 67, 33
1, 18240, Note_on_c, 0, 58, 25
1, 18715, Note_on_c, 0, 58, 0
1, 18715, Note_on_c, 0, 67, 0
1, 18715, Note_on_c, 0, 62, 0
1, 18720, Tempo, 528634
1, 18720, Note_on_c, 0, 62, 28
1, 18720, Note_on_c, 0, 67, 33
1, 18720, Note_on_c, 0, 58, 25
1, 19195, Note_on_c, 0, 58, 0
1, 19195, Note_on_c, 0, 67, 0
1, 19195, Note_on_c, 0, 62, 0
1, 19200, Tempo, 550459
1, 19200, Note_on_c, 0, 74, 0
1, 19200, Note_on_c, 0, 72, 47
1, 19680, Tempo, 528634
1, 19680, Note_on_c, 0, 60, 22
1, 19680, Note_on_c, 0, 63, 23
1, 19680, Note_on_c, 0, 67, 28
1, 19680, Note_on_c, 0, 57, 22
1, 20155, Note_on_c, 0, 57, 0
1, 20155, Note_on_c, 0, 63, 0
1, 20155, Note_on_c, 0, 67, 0
1, 20155, Note_on_c, 0, 60, 0
1, 20160, Note_on_c, 0, 60, 22
1, 20160, Note_on_c, 0, 63, 23
1, 20160, Note_on_c, 0, 67, 28
1, 20160, Note_on_c, 0, 57, 22
1, 20635, Note_on_c, 0, 57, 0
1, 20635, Note_on_c, 0, 63, 0
1, 20635, Note_on_c, 0, 67, 0
1, 20635, Note_on_c, 0, 60, 0
1, 20640, Tempo, 579710
1, 20640, Note_on_c, 0, 72, 0
1, 20880, Note_on_c, 0, 60, 48
1, 20926, Control_c, 0, 64, 127
1, 21120, Tempo, 568720
1, 21120, Note_on_c, 0, 62, 44
1, 21120, Note_on_c, 0, 38, 46
1, 21360, Note_on_c, 0, 38, 0
1, 21360, Note_on_c, 0, 66, 44
1, 21600, Tempo, 560748
1, 21600, Note_on_c, 0, 66, 0
1, 21600, Note_on_c, 0, 70, 49
1, 21600, Note_on_c, 0, 38, 46
1, 21840, Note_on_c, 0, 38, 0
1, 21840, Note_on_c, 0, 70, 0
1, 21840, Note_on_c, 0, 69, 47
1, 22080, Tempo, 528634
1, 22080, Note_on_c, 0, 69, 0
1, 22080, Note_on_c, 0, 62, 0
1, 22080, Note_on_c, 0, 60, 0
1, 22080, Note_on_c, 0, 67, 44
1, 22088, Control_c, 0, 64, 0
1, 22560, Tempo, 517241
1, 22560, Note_on_c, 0, 58, 28
1, 22560, Note_on_c, 0, 62, 33
1, 22560, Note_on_c, 0, 43, 27
1, 23035, Note_on_c, 0, 43, 0
1, 23035, Note_on_c, 0, 62, 0
1, 23035, Note_on_c, 0, 58, 0
1, 23040, Tempo, 558140
1, 23040, Note_on_c, 0, 58, 28
1, 23040, Note_on_c, 0, 62, 33
1, 23040, Note_on_c, 0, 43, 27
1, 23515, Note_on_c, 0, 43, 0
1, 23515, Note_on_c, 0, 62, 0
1, 23515, Note_on_c, 0, 58, 0
1, 23520, Tempo, 530973
1, 23520, Note_on_c, 0, 67, 0
1, 23520, Note_on_c, 0, 64, 44
1, 24000, Tempo, 545455
1, 24000, Note_on_c, 0, 57, 28
1, 24000, Note_on_c, 0, 55, 28
1, 24000, Note_on_c, 0, 61, 33
1, 24000, Note_on_c, 0, 45, 25
1, 24040, Tempo, 533333
1, 24475, Note_on_c, 0, 45, 0
1, 24475, Note_on_c, 0, 55, 0
1, 24475, Note_on_c, 0, 61, 0
1, 24475, Note_on_c, 0, 57, 0
1, 24480, Tempo, 558140
1, 24480, Note_on_c, 0, 57, 28
1, 24480, Note_on_c, 0, 55, 28
1, 24480, Note_on_c, 0, 61, 33
1, 24480, Note_on_c, 0, 45, 25
1, 24955, Note_on_c, 0, 45, 0
1, 24955, Note_on_c, 0, 55, 0
1, 24955, Note_on_c, 0, 61, 0
1, 24955, Note_on_c, 0, 57, 0
1, 24960, Tempo, 574163
1, 24960, Note_on_c, 0, 64, 0
1, 24960, Note_on_c, 0, 66, 44
1, 25440, Tempo, 545455
1, 25440, Note_on_c, 0, 54, 20
1, 25440, Note_on_c, 0, 57, 23
1, 25440, Note_on_c, 0, 62, 28
1, 25440, Note_on_c, 0, 38, 19
1, 25480, Tempo, 558140
1, 25915, Note_on_c, 0, 38, 0
1, 25915, Note_on_c, 0, 57, 0
1, 25915, Note_on_c, 0, 62, 0
1, 25915, Note_on_c, 0, 54, 0
1, 25920, Note_on_c, 0, 54, 20
1, 25920, Note_on_c, 0, 57, 23
1, 25920, Note_on_c, 0, 62, 28
1, 25920, Note_on_c, 0, 38, 19
1, 26395, Note_on_c, 0, 38, 0
1, 26395, Note_on_c, 0, 57, 0
1, 26395, Note_on_c, 0, 62, 0
1, 26395, Note_on_c, 0, 54, 0
1, 26400, Tempo, 579710
1, 26400, Note_on_c, 0, 66, 0
1, 26640, Note_on_c, 0, 60, 48
1, 26760, Control_c, 0, 64, 127
1, 26880, Tempo, 568720
1, 26880, Note_on_c, 0, 62, 44
1, 26880, Note_on_c, 0, 50, 46
1, 27120, Note_on_c, 0, 66, 44
1, 27355, Note_on_c, 0, 50, 0
1, 27360, Tempo, 560748
1, 27360, Note_on_c, 0, 66, 0
1, 27360, Note_on_c, 0, 70, 49
1, 27360, Note_on_c, 0, 50, 46
1, 27600, Note_on_c, 0, 70, 0
1, 27600, Note_on_c, 0, 69, 47
1, 27835, Note_on_c, 0, 50, 0
1, 27840, Tempo, 545455
1, 27840, Note_on_c, 0, 60, 0
1, 27840, Note_on_c, 0, 62, 0
1, 27840, Note_on_c, 0, 69, 0
1, 27840, Note_on_c, 0, 67, 44
1, 27845, Control_c, 0, 64, 0
1, 28320, Tempo, 526316
1, 28320, Note_on_c, 0, 58, 28
1, 28320, Note_on_c, 0, 62, 33
1, 28320, Note_on_c, 0, 43, 27
1, 28795, Note_on_c, 0, 43, 0
1, 28795, Note_on_c, 0, 62, 0
1, 28795, Note_on_c, 0, 58, 0
1, 28800, Tempo, 558140
1, 28800, Note_on_c, 0, 58, 28
1, 28800, Note_on_c, 0, 62, 33
1, 28800, Note_on_c, 0, 43, 27
1, 29275, Note_on_c, 0, 43, 0
1, 29275, Note_on_c, 0, 62, 0
1, 29275, Note_on_c, 0, 58, 0
1, 29280, Tempo, 530973
1, 29280, Note_on_c, 0, 67, 0
1, 29280, Note_on_c, 0, 79, 53
1, 29760, Tempo, 501379
1, 29760, Note_on_c, 0, 70, 28
1, 29760, Note_on_c, 0, 67, 28
1, 29760, Note_on_c, 0, 73, 33
1, 29760, Note_on_c, 0, 64, 25
1, 30235, Note_on_c, 0, 64, 0
1, 30235, Note_on_c, 0, 67, 0
1, 30235, Note_on_c, 0, 73, 0
1, 30235, Note_on_c, 0, 70, 0
1, 30240, Tempo, 542986
1, 30240, Note_on_c, 0, 70, 28
1, 30240, Note_on_c, 0, 67, 28
1, 30240, Note_on_c, 0, 73, 33
1, 30240, Note_on_c, 0, 64, 25
1, 30715, Note_on_c, 0, 64, 0
1, 30715, Note_on_c, 0, 67, 0
1, 30715, Note_on_c, 0, 73, 0
1, 30715, Note_on_c, 0, 70, 0
1, 30720, Tempo, 528634
1, 30720, Note_on_c, 0, 79, 0
1, 30720, Note_on_c, 0, 77, 50
1, 31200, Tempo, 506800
1, 31200, Note_on_c, 0, 70, 29
1, 31200, Note_on_c, 0, 72, 34
1, 31200, Note_on_c, 0, 65, 28
1, 31320, Tempo, 504075
1, 31675, Note_on_c, 0, 65, 0
1, 31675, Note_on_c, 0, 72, 0
1, 31675, Note_on_c, 0, 70, 0
1, 31680, Tempo, 520879
1, 31680, Note_on_c, 0, 70, 29
1, 31680, Note_on_c, 0, 72, 35
1, 31680, Note_on_c, 0, 65, 28
1, 32155, Note_on_c, 0, 65, 0
1, 32155, Note_on_c, 0, 72, 0
1, 32155, Note_on_c, 0, 70, 0
1, 32160, Tempo, 579710
1, 32160, Note_on_c, 0, 77, 0
1, 32160, Note_on_c, 0, 63, 48
1, 32340, Control_c, 0, 64, 127
1, 32400, Note_on_c, 0, 65, 48
1, 32640, Tempo, 568720
1, 32640, Note_on_c, 0, 65, 0
1, 32640, Note_on_c, 0, 69, 44
1, 32640, Note_on_c, 0, 41, 46
1, 32880, Note_on_c, 0, 75, 46
1, 33115, Note_on_c, 0, 41, 0
1, 33120, Tempo, 560748
1, 33120, Note_on_c, 0, 75, 0
1, 33120, Note_on_c, 0, 74, 51
1, 33120, Note_on_c, 0, 41, 46
1, 33360, Note_on_c, 0, 74, 0
1, 33480, Note_on_c, 0, 73, 49
1, 33485, Control_c, 0, 64, 0
1, 33590, Note_on_c, 0, 73, 0
1, 33595, Note_on_c, 0, 41, 0
1, 33600, Tempo, 545455
1, 33600, Note_on_c, 0, 69, 0
1, 33600, Note_on_c, 0, 63, 0
1, 33600, Note_on_c, 0, 73, 46
1, 34080, Tempo, 515154
1, 34080, Note_on_c, 0, 63, 20
1, 34080, Note_on_c, 0, 65, 23
1, 34080, Note_on_c, 0, 69, 28
1, 34080, Note_on_c, 0, 46, 19
1, 34555, Note_on_c, 0, 46, 0
1, 34555, Note_on_c, 0, 65, 0
1, 34555, Note_on_c, 0, 69, 0
1, 34555, Note_on_c, 0, 63, 0
1, 34560, Tempo, 558140
1, 34560, Note_on_c, 0, 63, 20
1, 34560, Note_on_c, 0, 65, 23
1, 34560, Note_on_c, 0, 69, 28
1, 34560, Note_on_c, 0, 46, 19
1, 35035, Note_on_c, 0, 46, 0
1, 35035, Note_on_c, 0, 65, 0
1, 35035, Note_on_c, 0, 69, 0
1, 35035, Note_on_c, 0, 63, 0
1, 35040, Tempo, 545455
1, 35040, Note_on_c, 0, 73, 0
1, 35040, Note_on_c, 0, 74, 46
1, 35520, Tempo, 519481
1, 35520, Note_on_c, 0, 65, 23
1, 35520, Note_on_c, 0, 62, 19
1, 35520, Note_on_c, 0, 70, 28
1, 35520, Note_on_c, 0, 58, 21
1, 35995, Note_on_c, 0, 58, 0
1, 35995, Note_on_c, 0, 62, 0
1, 35995, Note_on_c, 0, 70, 0
1, 35995, Note_on_c, 0, 65, 0
1, 36000, Tempo, 545455
1, 36000, Note_on_c, 0, 65, 23
1, 36000, Note_on_c, 0, 62, 18
1, 36000, Note_on_c, 0, 70, 28
1, 36000, Note_on_c, 0, 58, 21
1, 36475, Note_on_c, 0, 58, 0
1, 36475, Note_on_c, 0, 62, 0
1, 36475, Note_on_c, 0, 70, 0
1, 36475, Note_on_c, 0, 65, 0
1, 36480, Tempo, 558140
1, 36480, Note_on_c, 0, 74, 0
1, 36480, Note_on_c, 0, 72, 47
1, 36960, Tempo, 545455
1, 36960, Note_on_c, 0, 63, 28
1, 36960, Note_on_c, 0, 67, 33
1, 36960, Note_on_c, 0, 57, 27
1, 37435, Note_on_c, 0, 57, 0
1, 37435, Note_on_c, 0, 67, 0
1, 37435, Note_on_c, 0, 63, 0
1, 37440, Note_on_c, 0, 63, 28
1, 37440, Note_on_c, 0, 67, 34
1, 37440, Note_on_c, 0, 57, 27
1, 37915, Note_on_c, 0, 57, 0
1, 37915, Note_on_c, 0, 67, 0
1, 37915, Note_on_c, 0, 63, 0
1, 37920, Tempo, 579710
1, 37920, Note_on_c, 0, 72, 0
1, 38160, Note_on_c, 0, 60, 48
1, 38240, Control_c, 0, 64, 127
1, 38400, Tempo, 568720
1, 38400, Note_on_c, 0, 62, 44
1, 38400, Note_on_c, 0, 38, 46
1, 38640, Note_on_c, 0, 66, 44
1, 38875, Note_on_c, 0, 38, 0
1, 38880, Tempo, 560748
1, 38880, Note_on_c, 0, 66, 0
1, 38880, Note_on_c, 0, 70, 49
1, 38880, Note_on_c, 0, 38, 46
1, 39120, Note_on_c, 0, 70, 0
1, 39120, Note_on_c, 0, 69, 47
1, 39355, Note_on_c, 0, 38, 0
1, 39360, Tempo, 545455
1, 39360, Note_on_c, 0, 60, 0
1, 39360, Note_on_c, 0, 62, 0
1, 39360, Note_on_c, 0, 69, 0
1, 39360, Note_on_c, 0, 67, 44
1, 39368, Control_c, 0, 64, 0
1, 39840, Tempo, 517241
1, 39840, Note_on_c, 0, 58, 28
1, 39840, Note_on_c, 0, 62, 33
1, 39840, Note_on_c, 0, 43, 27
1, 40315, Note_on_c, 0, 43, 0
1, 40315, Note_on_c, 0, 62, 0
1, 40315, Note_on_c, 0, 58, 0
1, 40320, Tempo, 558140
1, 40320, Note_on_c, 0, 58, 28
1, 40320, Note_on_c, 0, 62, 33
1, 40320, Note_on_c, 0, 43, 27
1, 40795, Note_on_c, 0, 43, 0
1, 40795, Note_on_c, 0, 62, 0
1, 40795, Note_on_c, 0, 58, 0
1, 40800, Tempo, 545455
1, 40800, Note_on_c, 0, 67, 0
1, 40800, Note_on_c, 0, 74, 47
1, 41280, Tempo, 515021
1, 41280, Note_on_c, 0, 62, 28
1, 41280, Note_on_c, 0, 67, 33
1, 41280, Note_on_c, 0, 58, 25
1, 41755, Note_on_c, 0, 58, 0
1, 41755, Note_on_c, 0, 67, 0
1, 41755, Note_on_c, 0, 62, 0
1, 41760, Tempo, 545455
1, 41760, Note_on_c, 0, 62, 28
1, 41760, Note_on_c, 0, 67, 33
1, 41760, Note_on_c, 0, 58, 25
1, 42235, Note_on_c, 0, 58, 0
1, 42235, Note_on_c, 0, 67, 0
1, 42235, Note_on_c, 0, 62, 0
1, 42240, Tempo, 550459
1, 42240, Note_on_c, 0, 74, 0
1, 42240, Note_on_c, 0, 72, 47
1, 42720, Tempo, 528634
1, 42720, Note_on_c, 0, 60, 23
1, 42720, Note_on_c, 0, 63, 23
1, 42720, Note_on_c, 0, 67, 28
1, 42720, Note_on_c, 0, 57, 22
1, 43195, Note_on_c, 0, 57, 0
1, 43195, Note_on_c, 0, 63, 0
1, 43195, Note_on_c, 0, 67, 0
1, 43195, Note_on_c, 0, 60, 0
1, 43200, Tempo, 542986
1, 43200, Note_on_c, 0, 60, 23
1, 43200, Note_on_c, 0, 63, 23
1, 43200, Note_on_c, 0, 67, 28
1, 43200, Note_on_c, 0, 57, 22
1, 43675, Note_on_c, 0, 57, 0
1, 43675, Note_on_c, 0, 63, 0
1, 43675, Note_on_c, 0, 67, 0
1, 43675, Note_on_c, 0, 60, 0
1, 43680, Tempo, 579710
1, 43680, Note_on_c, 0, 72, 0
1, 43920, Note_on_c, 0, 60, 48
1, 43966, Control_c, 0, 64, 127
1, 44160, Tempo, 568720
1, 44160, Note_on_c, 0, 62, 44
1, 44160, Note_on_c, 0, 38, 46
1, 44400, Note_on_c, 0, 66, 44
1, 44635, Note_on_c, 0, 38, 0
1, 44640, Tempo, 560748
1, 44640, Note_on_c, 0, 66, 0
1, 44640, Note_on_c, 0, 70, 49
1, 44640, Note_on_c, 0, 38, 46
1, 44880, Note_on_c, 0, 70, 0
1, 44880, Note_on_c, 0, 69, 47
1, 45115, Note_on_c, 0, 38, 0
1, 45120, Tempo, 533333
1, 45120, Note_on_c, 0, 60, 0
1, 45120, Note_on_c, 0, 62, 0
1, 45120, Note_on_c, 0, 69, 0
1, 45120, Note_on_c, 0, 67, 44
1, 45125, Control_c, 0, 64, 0
1, 45600, Note_on_c, 0, 58, 28
1, 45600, Note_on_c, 0, 62, 33
1, 45600, Note_on_c, 0, 43, 27
1, 46075, Note_on_c, 0, 43, 0
1, 46075, Note_on_c, 0, 62, 0
1, 46075, Note_on_c, 0, 58, 0
1, 46080, Tempo, 558140
1, 46080, Note_on_c, 0, 58, 28
1, 46080, Note_on_c, 0, 62, 33
1, 46080, Note_on_c, 0, 43, 27
1, 46555, Note_on_c, 0, 43, 0
1, 46555, Note_on_c, 0, 62, 0
1, 46555, Note_on_c, 0, 58, 0
1, 46560, Tempo, 545455
1, 46560, Note_on_c, 0, 67, 0
1, 46560, Note_on_c, 0, 64, 44
1, 47040, Tempo, 535714
1, 47040, Note_on_c, 0, 57, 23
1, 47040, Note_on_c, 0, 55, 23
1, 47040, Note_on_c, 0, 61, 28
1, 47040, Note_on_c, 0, 45, 21
1, 47515, Note_on_c, 0, 45, 0
1, 47515, Note_on_c, 0, 55, 0
1, 47515, Note_on_c, 0, 61, 0
1, 47515, Note_on_c, 0, 57, 0
1, 47520, Tempo, 547945
1, 47520, Note_on_c, 0, 57, 23
1, 47520, Note_on_c, 0, 55, 23
1, 47520, Note_on_c, 0, 61, 28
1, 47520, Note_on_c, 0, 45, 21
1, 47995, Note_on_c, 0, 45, 0
1, 47995, Note_on_c, 0, 55, 0
1, 47995, Note_on_c, 0, 61, 0
1, 47995, Note_on_c, 0, 57, 0
1, 48000, Tempo, 558140
1, 48000, Note_on_c, 0, 64, 0
1, 48000, Note_on_c, 0, 66, 44
1, 48480, Tempo, 545455
1, 48480, Note_on_c, 0, 54, 17
1, 48480, Note_on_c, 0, 57, 19
1, 48480, Note_on_c, 0, 62, 23
1, 48480, Note_on_c, 0, 38, 17
1, 48955, Note_on_c, 0, 38, 0
1, 48955, Note_on_c, 0, 57, 0
1, 48955, Note_on_c, 0, 62, 0
1, 48955, Note_on_c, 0, 54, 0
1, 48960, Note_on_c, 0, 54, 17
1, 48960, Note_on_c, 0, 57, 19
1, 48960, Note_on_c, 0, 62, 23
1, 48960, Note_on_c, 0, 38, 17
1, 49435, Note_on_c, 0, 38, 0
1, 49435, Note_on_c, 0, 57, 0
1, 49435, Note_on_c, 0, 62, 0
1, 49435, Note_on_c, 0, 54, 0
1, 49440, Tempo, 579710
1, 49440, Note_on_c, 0, 66, 0
1, 49680, Note_on_c, 0, 60, 48
1, 49878, Control_c, 0, 64, 127
1, 49920, Tempo, 568720
1, 49920, Note_on_c, 0, 62, 44
1, 49920, Note_on_c, 0, 50, 46
1, 50160, Note_on_c, 0, 66, 44
1, 50395, Note_on_c, 0, 50, 0
1, 50400, Tempo, 560748
1, 50400, Note_on_c, 0, 66, 0
1, 50400, Note_on_c, 0, 70, 49
1, 50400, Note_on_c, 0, 50, 46
1, 50640, Note_on_c, 0, 70, 0
1, 50640, Note_on_c, 0, 69, 47
1, 50875, Note_on_c, 0, 50, 0
1, 50880, Tempo, 545455
1, 50880, Note_on_c, 0, 60, 0
1, 50880, Note_on_c, 0, 62, 0
1, 50880, Note_on_c, 0, 69, 0
1, 50880, Note_on_c, 0, 67, 44
1, 50885, Control_c, 0, 64, 0
1, 51145, Control_c, 0, 64, 127
1, 51360, Tempo, 528634
1, 51360, Note_on_c, 0, 62, 28
1, 51360, Note_on_c, 0, 59, 28
1, 51360, Note_on_c, 0, 65, 33
1, 51360, Note_on_c, 0, 55, 27
1, 51835, Note_on_c, 0, 55, 0
1, 51835, Note_on_c, 0, 59, 0
1, 51835, Note_on_c, 0, 65, 0
1, 51835, Note_on_c, 0, 62, 0
1, 51840, Tempo, 558140
1, 51840, Note_on_c, 0, 62, 28
1, 51840, Note_on_c, 0, 59, 28
1, 51840, Note_on_c, 0, 65, 33
1, 51840, Note_on_c, 0, 55, 27
1, 52315, Note_on_c, 0, 55, 0
1, 52315, Note_on_c, 0, 59, 0
1, 52315, Note_on_c, 0, 65, 0
1, 52315, Note_on_c, 0, 62, 0
1, 52320, Tempo, 545455
1, 52320, Note_on_c, 0, 67, 0
1, 52320, Note_on_c, 0, 79, 58
1, 52335, Control_c, 0, 64, 0
1, 52800, Tempo, 501379
1, 52800, Note_on_c, 0, 65, 28
1, 52800, Note_on_c, 0, 71, 31
1, 52800, Note_on_c, 0, 67, 31
1, 52800, Note_on_c, 0, 74, 36
1, 52800, Note_on_c, 0, 43, 28
1, 52933, Control_c, 0, 64, 127
1, 53275, Note_on_c, 0, 43, 0
1, 53275, Note_on_c, 0, 65, 0
1, 53275, Note_on_c, 0, 71, 0
1, 53275, Note_on_c, 0, 67, 0
1, 53275, Note_on_c, 0, 74, 0
1, 53280, Tempo, 524017
1, 53280, Note_on_c, 0, 65, 32
1, 53280, Note_on_c, 0, 71, 32
1, 53280, Note_on_c, 0, 67, 28
1, 53280, Note_on_c, 0, 74, 37
1, 53280, Note_on_c, 0, 43, 28
1, 53755, Note_on_c, 0, 43, 0
1, 53755, Note_on_c, 0, 65, 0
1, 53755, Note_on_c, 0, 71, 0
1, 53755, Note_on_c, 0, 67, 0
1, 53755, Note_on_c, 0, 74, 0
1, 53760, Tempo, 517241
1, 53760, Note_on_c, 0, 79, 0
1, 53760, Note_on_c, 0, 79, 62
1, 53771, Control_c, 0, 64, 0
1, 54160, Control_c, 0, 64, 127
1, 54240, Tempo, 488321
1, 54240, Note_on_c, 0, 67, 33
1, 54240, Note_on_c, 0, 72, 33
1, 54240, Note_on_c, 0, 75, 39
1, 54240, Note_on_c, 0, 48, 32
1, 54240, Note_on_c, 0, 36, 35
1, 54360, Tempo, 488321
1, 54715, Note_on_c, 0, 36, 0
1, 54715, Note_on_c, 0, 67, 0
1, 54715, Note_on_c, 0, 72, 0
1, 54715, Note_on_c, 0, 75, 0
1, 54720, Tempo, 504075
1, 54720, Note_on_c, 0, 67, 34
1, 54720, Note_on_c, 0, 72, 34
1, 54720, Note_on_c, 0, 75, 40
1, 54720, Note_on_c, 0, 55, 43
1, 55195, Note_on_c, 0, 55, 0
1, 55195, Note_on_c, 0, 72, 0
1, 55195, Note_on_c, 0, 67, 0
1, 55195, Note_on_c, 0, 75, 0
1, 55200, Tempo, 508431
1, 55200, Note_on_c, 0, 48, 0
1, 55200, Note_on_c, 0, 79, 0
1, 55200, Note_on_c, 0, 74, 66
1, 55210, Control_c, 0, 64, 0
1, 55320, Tempo, 496073
1, 55493, Control_c, 0, 64, 127
1, 55560, Tempo, 480808
1, 55680, Tempo, 485791
1, 55680, Note_on_c, 0, 62, 35
1, 55680, Note_on_c, 0, 67, 41
1, 55680, Note_on_c, 0, 50, 31
1, 55680, Note_on_c, 0, 38, 34
1, 56155, Note_on_c, 0, 38, 0
1, 56155, Note_on_c, 0, 67, 0
1, 56155, Note_on_c, 0, 62, 0
1, 56160, Tempo, 504075
1, 56160, Note_on_c, 0, 62, 36
1, 56160, Note_on_c, 0, 67, 42
1, 56160, Note_on_c, 0, 55, 44
1, 56635, Note_on_c, 0, 55, 0
1, 56635, Note_on_c, 0, 62, 0
1, 56635, Note_on_c, 0, 67, 0
1, 56640, Tempo, 498712
1, 56640, Note_on_c, 0, 74, 0
1, 56640, Note_on_c, 0, 50, 0
1, 56640, Note_on_c, 0, 72, 58
1, 56654, Control_c, 0, 64, 0
1, 57120, Tempo, 485791
1, 57120, Note_on_c, 0, 60, 35
1, 57120, Note_on_c, 0, 67, 41
1, 57120, Note_on_c, 0, 51, 33
1, 57120, Note_on_c, 0, 39, 36
1, 57253, Control_c, 0, 64, 127
1, 57595, Note_on_c, 0, 39, 0
1, 57595, Note_on_c, 0, 67, 0
1, 57595, Note_on_c, 0, 60, 0
1, 57600, Tempo, 512821
1, 57600, Note_on_c, 0, 60, 34
1, 57600, Note_on_c, 0, 67, 40
1, 57600, Note_on_c, 0, 55, 43
1, 57720, Tempo, 506800
1, 58075, Note_on_c, 0, 55, 0
1, 58075, Note_on_c, 0, 60, 0
1, 58075, Note_on_c, 0, 67, 0
1, 58080, Tempo, 510638
1, 58080, Note_on_c, 0, 72, 0
1, 58080, Note_on_c, 0, 51, 0
1, 58080, Note_on_c, 0, 67, 62
1, 58090, Control_c, 0, 64, 0
1, 58373, Control_c, 0, 64, 127
1, 58560, Tempo, 485791
1, 58560, Note_on_c, 0, 58, 31
1, 58560, Note_on_c, 0, 62, 37
1, 58560, Note_on_c, 0, 50, 28
1, 58560, Note_on_c, 0, 38, 31
1, 59035, Note_on_c, 0, 38, 0
1, 59035, Note_on_c, 0, 62, 0
1, 59035, Note_on_c, 0, 58, 0
1, 59040, Tempo, 501379
1, 59040, Note_on_c, 0, 58, 30
1, 59040, Note_on_c, 0, 62, 36
1, 59040, Note_on_c, 0, 55, 36
1, 59515, Note_on_c, 0, 55, 0
1, 59515, Note_on_c, 0, 58, 0
1, 59515, Note_on_c, 0, 62, 0
1, 59520, Tempo, 483871
1, 59520, Note_on_c, 0, 67, 0
1, 59520, Note_on_c, 0, 50, 0
1, 59520, Note_on_c, 0, 79, 62
1, 59520, Note_on_c, 0, 47, 52
1, 59520, Control_c, 0, 64, 0
1, 59760, Note_on_c, 0, 47, 0
1, 59760, Note_on_c, 0, 48, 42
1, 60000, Tempo, 465152
1, 60000, Note_on_c, 0, 48, 0
1, 60000, Note_on_c, 0, 67, 33
1, 60000, Note_on_c, 0, 72, 33
1, 60000, Note_on_c, 0, 75, 39
1, 60000, Note_on_c, 0, 50, 42
1, 60092, Control_c, 0, 64, 127
1, 60240, Note_on_c, 0, 50, 0
1, 60240, Note_on_c, 0, 48, 42
1, 60475, Note_on_c, 0, 72, 0
1, 60475, Note_on_c, 0, 75, 0
1, 60475, Note_on_c, 0, 67, 0
1, 60480, Tempo, 475210
1, 60480, Note_on_c, 0, 48, 0
1, 60480, Note_on_c, 0, 67, 34
1, 60480, Note_on_c, 0, 72, 34
1, 60480, Note_on_c, 0, 75, 40
1, 60480, Note_on_c, 0, 55, 51
1, 60491, Control_c, 0, 64, 0
1, 60955, Note_on_c, 0, 75, 0
1, 60955, Note_on_c, 0, 72, 0
1, 60955, Note_on_c, 0, 67, 0
1, 60960, Tempo, 485830
1, 60960, Note_on_c, 0, 79, 0
1, 60960, Note_on_c, 0, 55, 0
1, 60960, Note_on_c, 0, 74, 59
1, 60960, Note_on_c, 0, 49, 53
1, 61200, Note_on_c, 0, 49, 0
1, 61200, Note_on_c, 0, 50, 43
1, 61440, Tempo, 463249
1, 61440, Note_on_c, 0, 50, 0
1, 61440, Note_on_c, 0, 62, 35
1, 61440, Note_on_c, 0, 67, 41
1, 61440, Note_on_c, 0, 51, 47
1, 61525, Control_c, 0, 64, 127
1, 61680, Note_on_c, 0, 51, 0
1, 61680, Note_on_c, 0, 50, 42
1, 61880, Tempo, 481541
1, 61915, Note_on_c, 0, 67, 0
1, 61915, Note_on_c, 0, 62, 0
1, 61920, Tempo, 477327
1, 61920, Note_on_c, 0, 50, 0
1, 61920, Note_on_c, 0, 62, 36
1, 61920, Note_on_c, 0, 67, 42
1, 61920, Note_on_c, 0, 55, 52
1, 61931, Control_c, 0, 64, 0
1, 62395, Note_on_c, 0, 67, 0
1, 62395, Note_on_c, 0, 62, 0
1, 62400, Tempo, 466454
1, 62400, Note_on_c, 0, 74, 0
1, 62400, Note_on_c, 0, 55, 0
1, 62400, Note_on_c, 0, 72, 64
1, 62400, Note_on_c, 0, 50, 57
1, 62640, Note_on_c, 0, 50, 0
1, 62640, Note_on_c, 0, 51, 48
1, 62880, Tempo, 457352
1, 62880, Note_on_c, 0, 51, 0
1, 62880, Note_on_c, 0, 60, 35
1, 62880, Note_on_c, 0, 67, 41
1, 62880, Note_on_c, 0, 53, 48
1, 63120, Note_on_c, 0, 53, 0
1, 63120, Note_on_c, 0, 51, 48
1, 63355, Note_on_c, 0, 67, 0
1, 63355, Note_on_c, 0, 60, 0
1, 63360, Tempo, 510595
1, 63360, Note_on_c, 0, 51, 0
1, 63360, Note_on_c, 0, 60, 34
1, 63360, Note_on_c, 0, 67, 40
1, 63360, Note_on_c, 0, 55, 54
1, 63720, Note_on_c, 0, 55, 0
1, 63720, Note_on_c, 0, 51, 36
1, 63724, Note_on_c, 0, 51, 0
1, 63760, Note_on_c, 0, 52, 36
1, 63800, Tempo, 503609
1, 63800, Note_on_c, 0, 52, 0
1, 63800, Note_on_c, 0, 53, 35
1, 63835, Note_on_c, 0, 67, 0
1, 63835, Note_on_c, 0, 60, 0
1, 63840, Note_on_c, 0, 72, 0
1, 63840, Note_on_c, 0, 53, 0
1, 63840, Note_on_c, 0, 67, 62
1, 63840, Note_on_c, 0, 52, 35
1, 63855, Control_c, 0, 64, 127
1, 63880, Tempo, 501295
1, 63900, Note_on_c, 0, 52, 0
1, 63900, Note_on_c, 0, 53, 36
1, 63920, Tempo, 499002
1, 63960, Tempo, 496771
1, 63960, Note_on_c, 0, 53, 0
1, 63960, Note_on_c, 0, 52, 36
1, 64000, Tempo, 494519
1, 64020, Note_on_c, 0, 52, 0
1, 64020, Note_on_c, 0, 53, 37
1, 64040, Tempo, 492328
1, 64080, Tempo, 490076
1, 64080, Note_on_c, 0, 53, 0
1, 64080, Note_on_c, 0, 52, 37
1, 64120, Tempo, 487924
1, 64140, Note_on_c, 0, 52, 0
1, 64140, Note_on_c, 0, 53, 38
1, 64160, Tempo, 485751
1, 64200, Tempo, 483637
1, 64200, Note_on_c, 0, 53, 0
1, 64200, Note_on_c, 0, 52, 38
1, 64240, Tempo, 481541
1, 64260, Note_on_c, 0, 52, 0
1, 64260, Note_on_c, 0, 53, 39
1, 64280, Tempo, 479386
1, 64320, Note_on_c, 0, 53, 0
1, 64320, Note_on_c, 0, 58, 31
1, 64320, Note_on_c, 0, 61, 37
1, 64320, Note_on_c, 0, 52, 39
1, 64380, Note_on_c, 0, 52, 0
1, 64380, Note_on_c, 0, 53, 39
1, 64440, Note_on_c, 0, 53, 0
1, 64440, Note_on_c, 0, 52, 40
1, 64480, Tempo, 479386
1, 64500, Note_on_c, 0, 52, 0
1, 64500, Note_on_c, 0, 53, 40
1, 64560, Note_on_c, 0, 53, 0
1, 64560, Note_on_c, 0, 52, 42
1, 64600, Tempo, 481541
1, 64620, Note_on_c, 0, 52, 0
1, 64620, Note_on_c, 0, 53, 42
1, 64680, Tempo, 483637
1, 64680, Note_on_c, 0, 53, 0
1, 64680, Note_on_c, 0, 52, 43
1, 64700, Tempo, 499002
1, 64720, Tempo, 481541
1, 64740, Note_on_c, 0, 52, 0
1, 64740, Note_on_c, 0, 53, 43
1, 64760, Tempo, 483637
1, 64795, Note_on_c, 0, 61, 0
1, 64795, Note_on_c, 0, 58, 0
1, 64800, Tempo, 487924
1, 64800, Note_on_c, 0, 53, 0
1, 64800, Note_on_c, 0, 58, 30
1, 64800, Note_on_c, 0, 61, 36
1, 64800, Note_on_c, 0, 52, 44
1, 64840, Tempo, 490076
1, 64860, Note_on_c, 0, 52, 0
1, 64860, Note_on_c, 0, 53, 44
1, 64880, Tempo, 494519
1, 64920, Tempo, 496771
1, 64920, Note_on_c, 0, 53, 0
1, 64920, Note_on_c, 0, 52, 46
1, 64960, Tempo, 501295
1, 64980, Note_on_c, 0, 52, 0
1, 64980, Note_on_c, 0, 53, 46
1, 65000, Tempo, 503609
1, 65040, Tempo, 508259
1, 65040, Note_on_c, 0, 53, 0
1, 65040, Note_on_c, 0, 52, 47
1, 65080, Tempo, 510595
1, 65100, Note_on_c, 0, 52, 0
1, 65100, Note_on_c, 0, 51, 47
1, 65120, Tempo, 515420
1, 65140, Tempo, 522739
1, 65190, Note_on_c, 0, 51, 0
1, 65190, Note_on_c, 0, 52, 48
1, 65275, Note_on_c, 0, 61, 0
1, 65275, Note_on_c, 0, 58, 0
1, 65280, Tempo, 485830
1, 65280, Note_on_c, 0, 67, 0
1, 65280, Note_on_c, 0, 52, 0
1, 65280, Note_on_c, 0, 65, 57
1, 65280, Note_on_c, 0, 53, 55
1, 65289, Control_c, 0, 64, 0
1, 65577, Control_c, 0, 64, 127
1, 65760, Tempo, 469153
1, 65760, Note_on_c, 0, 58, 35
1, 65760, Note_on_c, 0, 62, 42
1, 66235, Note_on_c, 0, 62, 0
1, 66235, Note_on_c, 0, 58, 0
1, 66240, Tempo, 494519
1, 66240, Note_on_c, 0, 58, 35
1, 66240, Note_on_c, 0, 62, 42
1, 66715, Note_on_c, 0, 62, 0
1, 66715, Note_on_c, 0, 58, 0
1, 66720, Tempo, 479386
1, 66720, Note_on_c, 0, 65, 0
1, 66720, Note_on_c, 0, 74, 60
1, 66725, Control_c, 0, 64, 0
1, 67200, Tempo, 469153
1, 67200, Note_on_c, 0, 53, 0
1, 67200, Note_on_c, 0, 65, 38
1, 67200, Note_on_c, 0, 62, 38
1, 67200, Note_on_c, 0, 70, 45
1, 67200, Note_on_c, 0, 40, 37
1, 67200, Note_on_c, 0, 52, 46
1, 67675, Note_on_c, 0, 70, 0
1, 67675, Note_on_c, 0, 62, 0
1, 67675, Note_on_c, 0, 65, 0
1, 67680, Note_on_c, 0, 52, 0
1, 67680, Note_on_c, 0, 40, 0
1, 67680, Note_on_c, 0, 65, 38
1, 67680, Note_on_c, 0, 62, 38
1, 67680, Note_on_c, 0, 70, 45
1, 67680, Note_on_c, 0, 41, 37
1, 67680, Note_on_c, 0, 53, 46
1, 68155, Note_on_c, 0, 70, 0
1, 68155, Note_on_c, 0, 62, 0
1, 68155, Note_on_c, 0, 65, 0
1, 68160, Tempo, 459594
1, 68160, Note_on_c, 0, 53, 0
1, 68160, Note_on_c, 0, 41, 0
1, 68160, Note_on_c, 0, 63, 51
1, 68160, Note_on_c, 0, 69, 51
1, 68160, Note_on_c, 0, 42, 42
1, 68160, Note_on_c, 0, 54, 51
1, 68280, Tempo, 459594
1, 68580, Note_on_c, 0, 74, 0
1, 68580, Note_on_c, 0, 74, 55
1, 68640, Tempo, 438116
1, 68640, Note_on_c, 0, 74, 0
1, 68640, Note_on_c, 0, 63, 0
1, 68640, Note_on_c, 0, 69, 0
1, 68640, Note_on_c, 0, 63, 48
1, 68640, Note_on_c, 0, 69, 48
1, 68640, Note_on_c, 0, 72, 62
1, 69120, Tempo, 444346
1, 69120, Note_on_c, 0, 72, 0
1, 69120, Note_on_c, 0, 63, 0
1, 69120, Note_on_c, 0, 69, 0
1, 69120, Note_on_c, 0, 63, 45
1, 69120, Note_on_c, 0, 69, 45
1, 69120, Note_on_c, 0, 71, 58
1, 69600, Tempo, 461858
1, 69600, Note_on_c, 0, 71, 0
1, 69600, Note_on_c, 0, 63, 0
1, 69600, Note_on_c, 0, 69, 0
1, 69600, Note_on_c, 0, 63, 50
1, 69600, Note_on_c, 0, 69, 50
1, 69600, Note_on_c, 0, 72, 65
1, 70080, Note_on_c, 0, 72, 0
1, 70080, Note_on_c, 0, 63, 0
1, 70080, Note_on_c, 0, 54, 0
1, 70080, Note_on_c, 0, 42, 0
1, 70080, Note_on_c, 0, 69, 0
1, 70080, Note_on_c, 0, 63, 49
1, 70080, Note_on_c, 0, 69, 49
1, 70080, Note_on_c, 0, 74, 64
1, 70080, Note_on_c, 0, 41, 34
1, 70080, Note_on_c, 0, 53, 40
1, 70120, Tempo, 478088
1, 70560, Tempo, 483637
1, 70560, Note_on_c, 0, 53, 0
1, 70560, Note_on_c, 0, 74, 0
1, 70560, Note_on_c, 0, 63, 0
1, 70560, Note_on_c, 0, 69, 0
1, 70560, Note_on_c, 0, 41, 0
1, 70560, Note_on_c, 0, 63, 51
1, 70560, Note_on_c, 0, 69, 51
1, 70560, Note_on_c, 0, 75, 66
1, 70560, Note_on_c, 0, 42, 37
1, 70560, Note_on_c, 0, 54, 44
1, 71040, Note_on_c, 0, 54, 0
1, 71040, Note_on_c, 0, 75, 0
1, 71040, Note_on_c, 0, 63, 0
1, 71040, Note_on_c, 0, 69, 0
1, 71040, Note_on_c, 0, 42, 0
1, 71040, Note_on_c, 0, 75, 71
1, 71040, Note_on_c, 0, 43, 40
1, 71040, Note_on_c, 0, 55, 48
1, 71055, Control_c, 0, 64, 0
1, 71413, Control_c, 0, 64, 127
1, 71520, Tempo, 467144
1, 71520, Note_on_c, 0, 63, 49
1, 71520, Note_on_c, 0, 70, 49
1, 72000, Tempo, 478088
1, 72000, Note_on_c, 0, 70, 0
1, 72000, Note_on_c, 0, 63, 0
1, 72000, Note_on_c, 0, 63, 49
1, 72000, Note_on_c, 0, 70, 49
1, 72480, Tempo, 466926
1, 72480, Note_on_c, 0, 70, 0
1, 72480, Note_on_c, 0, 75, 0
1, 72480, Note_on_c, 0, 63, 0
1, 72480, Note_on_c, 0, 62, 43
1, 72480, Note_on_c, 0, 70, 43
1, 72480, Note_on_c, 0, 74, 56
1, 72495, Control_c, 0, 64, 0
1, 72907, Control_c, 0, 64, 127
1, 72960, Note_on_c, 0, 70, 0
1, 72960, Note_on_c, 0, 62, 0
1, 72960, Note_on_c, 0, 62, 43
1, 72960, Note_on_c, 0, 70, 43
1, 73440, Tempo, 483637
1, 73440, Note_on_c, 0, 70, 0
1, 73440, Note_on_c, 0, 62, 0
1, 73440, Note_on_c, 0, 62, 43
1, 73440, Note_on_c, 0, 70, 43
1, 73920, Tempo, 466454
1, 73920, Note_on_c, 0, 70, 0
1, 73920, Note_on_c, 0, 74, 0
1, 73920, Note_on_c, 0, 43, 0
1, 73920, Note_on_c, 0, 55, 0
1, 73920, Note_on_c, 0, 62, 0
1, 73920, Note_on_c, 0, 60, 51
1, 73920, Note_on_c, 0, 66, 51
1, 73920, Control_c, 0, 64, 0
1, 73920, Note_on_c, 0, 38, 32
1, 73920, Note_on_c, 0, 50, 38
1, 74340, Note_on_c, 0, 70, 50
1, 74400, Tempo, 446462
1, 74400, Note_on_c, 0, 70, 0
1, 74400, Note_on_c, 0, 60, 0
1, 74400, Note_on_c, 0, 66, 0
1, 74400, Note_on_c, 0, 60, 48
1, 74400, Note_on_c, 0, 66, 48
1, 74400, Note_on_c, 0, 69, 57
1, 74880, Tempo, 457352
1, 74880, Note_on_c, 0, 69, 0
1, 74880, Note_on_c, 0, 60, 0
1, 74880, Note_on_c, 0, 66, 0
1, 74880, Note_on_c, 0, 60, 43
1, 74880, Note_on_c, 0, 66, 43
1, 74880, Note_on_c, 0, 68, 54
1, 75360, Tempo, 466454
1, 75360, Note_on_c, 0, 68, 0
1, 75360, Note_on_c, 0, 60, 0
1, 75360, Note_on_c, 0, 66, 0
1, 75360, Note_on_c, 0, 60, 48
1, 75360, Note_on_c, 0, 66, 48
1, 75360, Note_on_c, 0, 69, 57
1, 75840, Tempo, 455512
1, 75840, Note_on_c, 0, 69, 0
1, 75840, Note_on_c, 0, 60, 0
1, 75840, Note_on_c, 0, 66, 0
1, 75840, Note_on_c, 0, 60, 47
1, 75840, Note_on_c, 0, 66, 47
1, 75840, Note_on_c, 0, 70, 56
1, 76320, Tempo, 490076
1, 76320, Note_on_c, 0, 70, 0
1, 76320, Note_on_c, 0, 60, 0
1, 76320, Note_on_c, 0, 66, 0
1, 76320, Note_on_c, 0, 60, 49
1, 76320, Note_on_c, 0, 66, 49
1, 76320, Note_on_c, 0, 72, 58
1, 76800, Note_on_c, 0, 72, 0
1, 76800, Note_on_c, 0, 60, 0
1, 76800, Note_on_c, 0, 50, 0
1, 76800, Note_on_c, 0, 38, 0
1, 76800, Note_on_c, 0, 66, 0
1, 76800, Note_on_c, 0, 72, 67
1, 76800, Note_on_c, 0, 39, 33
1, 76800, Note_on_c, 0, 51, 39
1, 76806, Control_c, 0, 64, 0
1, 77040, Control_c, 0, 64, 127
1, 77280, Tempo, 465152
1, 77280, Note_on_c, 0, 60, 49
1, 77280, Note_on_c, 0, 67, 49
1, 77760, Note_on_c, 0, 67, 0
1, 77760, Note_on_c, 0, 60, 0
1, 77760, Note_on_c, 0, 60, 49
1, 77760, Note_on_c, 0, 67, 49
1, 78240, Note_on_c, 0, 67, 0
1, 78240, Note_on_c, 0, 72, 0
1, 78240, Note_on_c, 0, 60, 0
1, 78240, Note_on_c, 0, 58, 43
1, 78240, Note_on_c, 0, 67, 43
1, 78240, Note_on_c, 0, 70, 51
1, 78255, Control_c, 0, 64, 0
1, 78614, Control_c, 0, 64, 127
1, 78720, Note_on_c, 0, 67, 0
1, 78720, Note_on_c, 0, 58, 0
1, 78720, Note_on_c, 0, 58, 43
1, 78720, Note_on_c, 0, 67, 43
1, 79200, Tempo, 483637
1, 79200, Note_on_c, 0, 67, 0
1, 79200, Note_on_c, 0, 58, 0
1, 79200, Note_on_c, 0, 58, 43
1, 79200, Note_on_c, 0, 67, 43
1, 79680, Note_on_c, 0, 67, 0
1, 79680, Note_on_c, 0, 70, 0
1, 79680, Note_on_c, 0, 39, 0
1, 79680, Note_on_c, 0, 51, 0
1, 79680, Note_on_c, 0, 58, 0
1, 79680, Note_on_c, 0, 63, 50
1, 79680, Note_on_c, 0, 67, 50
1, 79680, Note_on_c, 0, 69, 56
1, 79680, Note_on_c, 0, 36, 39
1, 79680, Note_on_c, 0, 48, 39
1, 79686, Control_c, 0, 64, 0
1, 79726, Control_c, 0, 64, 127
1, 80160, Tempo, 469153
1, 80160, Note_on_c, 0, 67, 0
1, 80160, Note_on_c, 0, 63, 0
1, 80160, Note_on_c, 0, 63, 50
1, 80160, Note_on_c, 0, 67, 50
1, 80640, Note_on_c, 0, 67, 0
1, 80640, Note_on_c, 0, 63, 0
1, 80640, Note_on_c, 0, 63, 50
1, 80640, Note_on_c, 0, 67, 50
1, 81080, Tempo, 473223
1, 81120, Note_on_c, 0, 67, 0
1, 81120, Note_on_c, 0, 48, 0
1, 81120, Note_on_c, 0, 36, 0
1, 81120, Note_on_c, 0, 69, 0
1, 81120, Note_on_c, 0, 63, 0
1, 81120, Note_on_c, 0, 62, 42
1, 81120, Note_on_c, 0, 66, 42
1, 81120, Note_on_c, 0, 69, 51
1, 81120, Note_on_c, 0, 38, 33
1, 81120, Note_on_c, 0, 50, 39
1, 81133, Control_c, 0, 64, 0
1, 81160, Tempo, 475210
1, 81200, Tempo, 477327
1, 81209, Control_c, 0, 64, 127
1, 81240, Tempo, 479386
1, 81280, Tempo, 481541
1, 81320, Tempo, 483637
1, 81400, Tempo, 485751
1, 81440, Tempo, 487924
1, 81480, Tempo, 490076
1, 81520, Tempo, 492328
1, 81560, Tempo, 494519
1, 81600, Note_on_c, 0, 66, 0
1, 81600, Note_on_c, 0, 62, 0
1, 81600, Note_on_c, 0, 62, 42
1, 81600, Note_on_c, 0, 66, 42
1, 81640, Tempo, 496771
1, 81680, Tempo, 499002
1, 81720, Tempo, 501295
1, 81760, Tempo, 503609
1, 81800, Tempo, 505902
1, 81880, Tempo, 508259
1, 81920, Tempo, 510595
1, 81960, Tempo, 513040
1, 82000, Tempo, 515420
1, 82040, Tempo, 517866
1, 82080, Tempo, 520291
1, 82080, Note_on_c, 0, 66, 0
1, 82080, Note_on_c, 0, 62, 0
1, 82080, Note_on_c, 0, 62, 42
1, 82080, Note_on_c, 0, 66, 42
1, 82320, Tempo, 789889
1, 82320, Note_on_c, 0, 69, 0
1, 82320, Note_on_c, 0, 69, 51
1, 82440, Tempo, 496771
1, 82440, Note_on_c, 0, 69, 0
1, 82440, Note_on_c, 0, 57, 51
1, 82452, Control_c, 0, 64, 0
1, 82495, Control_c, 0, 64, 127
1, 82500, Note_on_c, 0, 64, 51
1, 82560, Tempo, 472441
1, 82560, Note_on_c, 0, 66, 0
1, 82560, Note_on_c, 0, 62, 0
1, 82560, Note_on_c, 0, 50, 0
1, 82560, Note_on_c, 0, 38, 0
1, 82560, Note_on_c, 0, 69, 51
1, 82560, Note_on_c, 0, 37, 33
1, 82560, Note_on_c, 0, 49, 39
1, 83040, Note_on_c, 0, 49, 0
1, 83040, Note_on_c, 0, 64, 0
1, 83040, Note_on_c, 0, 57, 0
1, 83040, Note_on_c, 0, 37, 0
1, 83040, Note_on_c, 0, 52, 30
1, 83040, Note_on_c, 0, 57, 30
1, 83040, Note_on_c, 0, 64, 36
1, 83515, Note_on_c, 0, 64, 0
1, 83515, Note_on_c, 0, 57, 0
1, 83515, Note_on_c, 0, 52, 0
1, 83520, Note_on_c, 0, 52, 28
1, 83520, Note_on_c, 0, 57, 28
1, 83520, Note_on_c, 0, 64, 34
1, 83995, Note_on_c, 0, 64, 0
1, 83995, Note_on_c, 0, 57, 0
1, 83995, Note_on_c, 0, 52, 0
1, 84000, Note_on_c, 0, 52, 28
1, 84000, Note_on_c, 0, 57, 28
1, 84000, Note_on_c, 0, 64, 34
1, 84475, Note_on_c, 0, 64, 0
1, 84475, Note_on_c, 0, 57, 0
1, 84475, Note_on_c, 0, 52, 0
1, 84480, Note_on_c, 0, 52, 28
1, 84480, Note_on_c, 0, 57, 28
1, 84480, Note_on_c, 0, 64, 34
1, 84955, Note_on_c, 0, 64, 0
1, 84955, Note_on_c, 0, 57, 0
1, 84955, Note_on_c, 0, 52, 0
1, 84960, Note_on_c, 0, 69, 0
1, 84960, Note_on_c, 0, 69, 66
1, 84960, Note_on_c, 0, 52, 29
1, 84960, Note_on_c, 0, 57, 29
1, 84960, Note_on_c, 0, 64, 35
1, 85435, Note_on_c, 0, 64, 0
1, 85435, Note_on_c, 0, 57, 0
1, 85435, Note_on_c, 0, 52, 0
1, 85440, Tempo, 526316
1, 85440, Note_on_c, 0, 36, 36
1, 85440, Note_on_c, 0, 48, 42
1, 85446, Control_c, 0, 64, 0
1, 85492, Control_c, 0, 64, 127
1, 85560, Note_on_c, 0, 69, 0
1, 85560, Note_on_c, 0, 70, 56
1, 85680, Note_on_c, 0, 70, 0
1, 85680, Note_on_c, 0, 69, 56
1, 85800, Note_on_c, 0, 69, 0
1, 85800, Note_on_c, 0, 68, 57
1, 85920, Tempo, 500000
1, 85920, Note_on_c, 0, 68, 0
1, 85920, Note_on_c, 0, 48, 0
1, 85920, Note_on_c, 0, 36, 0
1, 85920, Note_on_c, 0, 69, 58
1, 85920, Note_on_c, 0, 53, 33
1, 85920, Note_on_c, 0, 57, 33
1, 85920, Note_on_c, 0, 63, 33
1, 85920, Note_on_c, 0, 65, 39
1, 86040, Note_on_c, 0, 69, 0
1, 86040, Note_on_c, 0, 79, 60
1, 86160, Tempo, 497925
1, 86160, Note_on_c, 0, 79, 0
1, 86160, Note_on_c, 0, 76, 61
1, 86280, Note_on_c, 0, 76, 0
1, 86280, Note_on_c, 0, 77, 62
1, 86395, Note_on_c, 0, 63, 0
1, 86395, Note_on_c, 0, 65, 0
1, 86395, Note_on_c, 0, 53, 0
1, 86395, Note_on_c, 0, 57, 0
1, 86400, Tempo, 495868
1, 86400, Note_on_c, 0, 77, 0
1, 86400, Note_on_c, 0, 77, 63
1, 86400, Note_on_c, 0, 53, 33
1, 86400, Note_on_c, 0, 57, 33
1, 86400, Note_on_c, 0, 63, 33
1, 86400, Note_on_c, 0, 65, 39
1, 86520, Note_on_c, 0, 77, 0
1, 86520, Note_on_c, 0, 91, 64
1, 86640, Tempo, 493827
1, 86640, Note_on_c, 0, 91, 0
1, 86640, Note_on_c, 0, 89, 66
1, 86760, Note_on_c, 0, 89, 0
1, 86760, Note_on_c, 0, 88, 66
1, 86875, Note_on_c, 0, 63, 0
1, 86875, Note_on_c, 0, 65, 0
1, 86875, Note_on_c, 0, 53, 0
1, 86875, Note_on_c, 0, 57, 0
1, 86880, Tempo, 491803
1, 86880, Note_on_c, 0, 88, 0
1, 86880, Note_on_c, 0, 87, 67
1, 86880, Note_on_c, 0, 53, 33
1, 86880, Note_on_c, 0, 57, 33
1, 86880, Note_on_c, 0, 63, 33
1, 86880, Note_on_c, 0, 65, 39
1, 86960, Note_on_c, 0, 87, 0
1, 86960, Note_on_c, 0, 84, 58
1, 87040, Note_on_c, 0, 84, 0
1, 87040, Note_on_c, 0, 81, 58
1, 87120, Tempo, 489796
1, 87120, Note_on_c, 0, 81, 0
1, 87120, Note_on_c, 0, 82, 62
1, 87200, Note_on_c, 0, 82, 0
1, 87200, Note_on_c, 0, 86, 58
1, 87280, Note_on_c, 0, 86, 0
1, 87280, Note_on_c, 0, 84, 58
1, 87320, Tempo, 487805
1, 87355, Note_on_c, 0, 63, 0
1, 87355, Note_on_c, 0, 65, 0
1, 87355, Note_on_c, 0, 53, 0
1, 87355, Note_on_c, 0, 57, 0
1, 87360, Tempo, 489796
1, 87360, Note_on_c, 0, 84, 0
1, 87360, Note_on_c, 0, 82, 66
1, 87360, Note_on_c, 0, 53, 33
1, 87360, Note_on_c, 0, 57, 33
1, 87360, Note_on_c, 0, 63, 33
1, 87360, Note_on_c, 0, 65, 39
1, 87440, Tempo, 491803
1, 87440, Note_on_c, 0, 82, 0
1, 87440, Note_on_c, 0, 79, 58
1, 87520, Tempo, 493827
1, 87520, Note_on_c, 0, 79, 0
1, 87520, Note_on_c, 0, 77, 58
1, 87560, Tempo, 495868
1, 87600, Note_on_c, 0, 77, 0
1, 87600, Note_on_c, 0, 74, 62
1, 87640, Tempo, 497925
1, 87680, Tempo, 497925
1, 87680, Note_on_c, 0, 74, 0
1, 87680, Note_on_c, 0, 75, 58
1, 87688, Tempo, 504202
1, 87692, Tempo, 506329
1, 87700, Tempo, 508475
1, 87704, Tempo, 510638
1, 87708, Tempo, 515021
1, 87716, Tempo, 517241
1, 87720, Tempo, 519481
1, 87728, Tempo, 521739
1, 87732, Tempo, 526316
1, 87740, Tempo, 528634
1, 87744, Tempo, 530973
1, 87748, Tempo, 535714
1, 87756, Tempo, 538117
1, 87760, Tempo, 540541
1, 87760, Note_on_c, 0, 75, 0
1, 87760, Note_on_c, 0, 76, 58
1, 87768, Tempo, 542986
1, 87772, Tempo, 547945
1, 87780, Tempo, 550459
1, 87784, Tempo, 552995
1, 87788, Tempo, 558140
1, 87796, Tempo, 560748
1, 87800, Tempo, 563380
1, 87808, Tempo, 566038
1, 87812, Tempo, 571429
1, 87820, Tempo, 574163
1, 87824, Tempo, 576923
1, 87828, Tempo, 582524
1, 87835, Note_on_c, 0, 63, 0
1, 87835, Note_on_c, 0, 65, 0
1, 87835, Note_on_c, 0, 53, 0
1, 87835, Note_on_c, 0, 57, 0
1, 87840, Tempo, 563380
1, 87840, Note_on_c, 0, 76, 0
1, 87840, Note_on_c, 0, 77, 63
1, 87840, Note_on_c, 0, 53, 33
1, 87840, Note_on_c, 0, 57, 33
1, 87840, Note_on_c, 0, 63, 33
1, 87840, Note_on_c, 0, 65, 39
1, 87851, Control_c, 0, 64, 0
1, 87868, Tempo, 566038
1, 87900, Tempo, 568720
1, 87920, Tempo, 571429
1, 87920, Note_on_c, 0, 77, 0
1, 87920, Note_on_c, 0, 78, 58
1, 87948, Tempo, 574163
1, 87968, Tempo, 576923
1, 87980, Tempo, 552995
1, 88000, Note_on_c, 0, 78, 0
1, 88000, Note_on_c, 0, 81, 58
1, 88020, Tempo, 555556
1, 88040, Tempo, 558140
1, 88080, Tempo, 560748
1, 88080, Note_on_c, 0, 81, 0
1, 88080, Note_on_c, 0, 79, 58
1, 88100, Tempo, 563380
1, 88140, Tempo, 566038
1, 88160, Tempo, 568720
1, 88160, Note_on_c, 0, 79, 0
1, 88160, Note_on_c, 0, 77, 56
1, 88200, Tempo, 571429
1, 88220, Tempo, 574163
1, 88240, Tempo, 576923
1, 88240, Note_on_c, 0, 77, 0
1, 88240, Note_on_c, 0, 75, 56
1, 88260, Tempo, 615385
1, 88280, Tempo, 659341
1, 88300, Tempo, 714286
1, 88304, Tempo, 582524
1, 88315, Note_on_c, 0, 63, 0
1, 88315, Note_on_c, 0, 65, 0
1, 88315, Note_on_c, 0, 53, 0
1, 88315, Note_on_c, 0, 57, 0
1, 88320, Tempo, 519481
1, 88320, Note_on_c, 0, 75, 0
1, 88320, Note_on_c, 0, 73, 64
1, 88320, Note_on_c, 0, 34, 38
1, 88320, Note_on_c, 0, 46, 45
1, 88400, Control_c, 0, 64, 127
1, 88560, Note_on_c, 0, 73, 0
1, 88800, Tempo, 500000
1, 88800, Note_on_c, 0, 46, 0
1, 88800, Note_on_c, 0, 34, 0
1, 88800, Note_on_c, 0, 74, 66
1, 88800, Note_on_c, 0, 50, 31
1, 88800, Note_on_c, 0, 53, 31
1, 88800, Note_on_c, 0, 58, 39
1, 89280, Note_on_c, 0, 58, 0
1, 89280, Note_on_c, 0, 53, 0
1, 89280, Note_on_c, 0, 50, 0
1, 89280, Note_on_c, 0, 53, 33
1, 89280, Note_on_c, 0, 58, 33
1, 89280, Note_on_c, 0, 62, 39
1, 89760, Tempo, 530973
1, 89760, Note_on_c, 0, 62, 0
1, 89760, Note_on_c, 0, 58, 0
1, 89760, Note_on_c, 0, 53, 0
1, 89760, Note_on_c, 0, 39, 40
1, 89775, Control_c, 0, 64, 0
1, 90000, Control_c, 0, 64, 127
1, 90240, Tempo, 495868
1, 90240, Note_on_c, 0, 39, 0
1, 90240, Note_on_c, 0, 74, 0
1, 90240, Note_on_c, 0, 72, 56
1, 90240, Note_on_c, 0, 51, 31
1, 90240, Note_on_c, 0, 55, 31
1, 90240, Note_on_c, 0, 60, 37
1, 90720, Tempo, 521739
1, 90720, Note_on_c, 0, 60, 0
1, 90720, Note_on_c, 0, 72, 0
1, 90720, Note_on_c, 0, 51, 0
1, 90720, Note_on_c, 0, 55, 0
1, 90720, Note_on_c, 0, 67, 57
1, 90720, Note_on_c, 0, 55, 31
1, 90720, Note_on_c, 0, 60, 31
1, 90720, Note_on_c, 0, 63, 37
1, 91200, Tempo, 540541
1, 91200, Note_on_c, 0, 63, 0
1, 91200, Note_on_c, 0, 67, 0
1, 91200, Note_on_c, 0, 55, 0
1, 91200, Note_on_c, 0, 60, 0
1, 91200, Note_on_c, 0, 70, 62
1, 91200, Note_on_c, 0, 38, 42
1, 91204, Control_c, 0, 64, 0
1, 91382, Control_c, 0, 64, 127
1, 91680, Tempo, 517241
1, 91680, Note_on_c, 0, 38, 0
1, 91680, Note_on_c, 0, 55, 29
1, 91680, Note_on_c, 0, 58, 29
1, 91680, Note_on_c, 0, 63, 35
1, 92160, Tempo, 528634
1, 92160, Note_on_c, 0, 63, 0
1, 92160, Note_on_c, 0, 58, 0
1, 92160, Note_on_c, 0, 55, 0
1, 92160, Note_on_c, 0, 62, 35
1, 92160, Note_on_c, 0, 58, 29
1, 92160, Note_on_c, 0, 55, 29
1, 92640, Note_on_c, 0, 55, 0
1, 92640, Note_on_c, 0, 70, 0
1, 92640, Note_on_c, 0, 66, 53
1, 92640, Note_on_c, 0, 50, 39
1, 92655, Control_c, 0, 64, 0
1, 93120, Tempo, 540541
1, 93120, Note_on_c, 0, 58, 0
1, 93120, Note_on_c, 0, 62, 0
1, 93120, Note_on_c, 0, 61, 35
1, 93120, Note_on_c, 0, 58, 29
1, 93600, Tempo, 576923
1, 93600, Note_on_c, 0, 58, 0
1, 93600, Note_on_c, 0, 61, 0
1, 93600, Note_on_c, 0, 57, 30
1, 93600, Note_on_c, 0, 60, 36
1, 94080, Tempo, 555556
1, 94080, Marker_t, "a tempo"
1, 94080, Note_on_c, 0, 60, 0
1, 94080, Note_on_c, 0, 50, 0
1, 94080, Note_on_c, 0, 66, 0
1, 94080, Note_on_c, 0, 57, 0
1, 94080, Note_on_c, 0, 67, 47
1, 94080, Note_on_c, 0, 43, 36
1, 94252, Control_c, 0, 64, 127
1, 94320, Note_on_c, 0, 43, 0
1, 94560, Tempo, 528634
1, 94560, Note_on_c, 0, 67, 0
1, 94560, Note_on_c, 0, 70, 28
1, 94560, Note_on_c, 0, 82, 50
1, 94560, Note_on_c, 0, 65, 28
1, 94560, Note_on_c, 0, 58, 19
1, 94560, Note_on_c, 0, 55, 19
1, 94800, Tempo, 508475
1, 94800, Note_on_c, 0, 82, 0
1, 94800, Note_on_c, 0, 70, 0
1, 94800, Note_on_c, 0, 74, 45
1, 94920, Tempo, 466926
1, 95040, Note_on_c, 0, 74, 0
1, 95040, Note_on_c, 0, 65, 0
1, 95040, Note_on_c, 0, 77, 48
1, 95040, Note_on_c, 0, 63, 29
1, 95056, Control_c, 0, 64, 0
1, 95180, Tempo, 508475
1, 95280, Note_on_c, 0, 77, 0
1, 95280, Note_on_c, 0, 75, 45
1, 95520, Tempo, 530973
1, 95520, Note_on_c, 0, 55, 0
1, 95520, Note_on_c, 0, 63, 0
1, 95520, Note_on_c, 0, 58, 0
1, 95520, Note_on_c, 0, 42, 38
1, 95634, Control_c, 0, 64, 127
1, 95760, Note_on_c, 0, 42, 0
1, 96000, Tempo, 519481
1, 96000, Note_on_c, 0, 75, 0
1, 96000, Note_on_c, 0, 69, 31
1, 96000, Note_on_c, 0, 81, 50
1, 96000, Note_on_c, 0, 63, 28
1, 96000, Note_on_c, 0, 54, 19
1, 96000, Note_on_c, 0, 57, 19
1, 96240, Tempo, 493827
1, 96240, Note_on_c, 0, 81, 0
1, 96240, Note_on_c, 0, 69, 0
1, 96240, Note_on_c, 0, 73, 44
1, 96360, Tempo, 451128
1, 96480, Note_on_c, 0, 73, 0
1, 96480, Note_on_c, 0, 63, 0
1, 96480, Note_on_c, 0, 75, 49
1, 96480, Note_on_c, 0, 62, 29
1, 96495, Control_c, 0, 64, 0
1, 96600, Tempo, 493827
1, 96720, Tempo, 517241
1, 96720, Note_on_c, 0, 75, 0
1, 96720, Note_on_c, 0, 74, 45
1, 96960, Tempo, 495868
1, 96960, Note_on_c, 0, 57, 0
1, 96960, Note_on_c, 0, 62, 0
1, 96960, Note_on_c, 0, 54, 0
1, 96960, Note_on_c, 0, 43, 38
1, 97006, Control_c, 0, 64, 127
1, 97200, Tempo, 481928
1, 97200, Note_on_c, 0, 43, 0
1, 97440, Tempo, 472441
1, 97440, Note_on_c, 0, 74, 0
1, 97440, Note_on_c, 0, 70, 30
1, 97440, Note_on_c, 0, 82, 50
1, 97440, Note_on_c, 0, 65, 30
1, 97440, Note_on_c, 0, 58, 20
1, 97440, Note_on_c, 0, 55, 20
1, 97680, Tempo, 457352
1, 97680, Note_on_c, 0, 82, 0
1, 97680, Note_on_c, 0, 70, 0
1, 97680, Note_on_c, 0, 74, 48
1, 97800, Tempo, 436364
1, 97920, Note_on_c, 0, 74, 0
1, 97920, Note_on_c, 0, 65, 0
1, 97920, Note_on_c, 0, 77, 50
1, 97920, Note_on_c, 0, 63, 30
1, 97936, Control_c, 0, 64, 0
1, 98040, Tempo, 472441
1, 98160, Tempo, 485830
1, 98160, Note_on_c, 0, 77, 0
1, 98160, Note_on_c, 0, 75, 47
1, 98400, Tempo, 472441
1, 98400, Note_on_c, 0, 55, 0
1, 98400, Note_on_c, 0, 63, 0
1, 98400, Note_on_c, 0, 58, 0
1, 98400, Note_on_c, 0, 41, 40
1, 98514, Control_c, 0, 64, 127
1, 98640, Tempo, 458015
1, 98640, Note_on_c, 0, 41, 0
1, 98880, Tempo, 449438
1, 98880, Note_on_c, 0, 75, 0
1, 98880, Note_on_c, 0, 68, 32
1, 98880, Note_on_c, 0, 80, 51
1, 98880, Note_on_c, 0, 59, 20
1, 98880, Note_on_c, 0, 63, 30
1, 98880, Note_on_c, 0, 53, 20
1, 98880, Note_on_c, 0, 56, 20
1, 99120, Tempo, 444346
1, 99120, Note_on_c, 0, 80, 0
1, 99120, Note_on_c, 0, 68, 0
1, 99120, Note_on_c, 0, 73, 47
1, 99240, Tempo, 425532
1, 99360, Note_on_c, 0, 73, 0
1, 99360, Note_on_c, 0, 63, 0
1, 99360, Note_on_c, 0, 75, 52
1, 99360, Note_on_c, 0, 62, 30
1, 99376, Control_c, 0, 64, 0
1, 99480, Tempo, 447761
1, 99600, Tempo, 463320
1, 99600, Note_on_c, 0, 75, 0
1, 99600, Note_on_c, 0, 74, 47
1, 99840, Tempo, 447761
1, 99840, Note_on_c, 0, 59, 0
1, 99840, Note_on_c, 0, 62, 0
1, 99840, Note_on_c, 0, 53, 0
1, 99840, Note_on_c, 0, 56, 0
1, 99840, Note_on_c, 0, 39, 41
1, 99932, Control_c, 0, 64, 127
1, 100080, Note_on_c, 0, 39, 0
1, 100320, Tempo, 427046
1, 100320, Note_on_c, 0, 74, 0
1, 100320, Note_on_c, 0, 67, 32
1, 100320, Note_on_c, 0, 79, 53
1, 100320, Note_on_c, 0, 62, 32
1, 100320, Note_on_c, 0, 55, 21
1, 100320, Note_on_c, 0, 51, 21
1, 100560, Note_on_c, 0, 79, 0
1, 100560, Note_on_c, 0, 67, 0
1, 100560, Note_on_c, 0, 71, 50
1, 100680, Tempo, 405405
1, 100800, Note_on_c, 0, 71, 0
1, 100800, Note_on_c, 0, 62, 0
1, 100800, Note_on_c, 0, 74, 53
1, 100800, Note_on_c, 0, 60, 32
1, 100816, Control_c, 0, 64, 0
1, 100920, Tempo, 427046
1, 101040, Tempo, 444444
1, 101040, Note_on_c, 0, 74, 0
1, 101040, Note_on_c, 0, 72, 49
1, 101280, Tempo, 424028
1, 101280, Note_on_c, 0, 51, 0
1, 101280, Note_on_c, 0, 60, 0
1, 101280, Note_on_c, 0, 55, 0
1, 101280, Note_on_c, 0, 36, 42
1, 101394, Control_c, 0, 64, 127
1, 101520, Tempo, 408163
1, 101520, Note_on_c, 0, 36, 0
1, 101760, Note_on_c, 0, 72, 0
1, 101760, Note_on_c, 0, 60, 41
1, 101760, Note_on_c, 0, 72, 54
1, 101760, Note_on_c, 0, 58, 31
1, 101760, Note_on_c, 0, 51, 26
1, 102000, Note_on_c, 0, 72, 0
1, 102000, Note_on_c, 0, 60, 0
1, 102000, Note_on_c, 0, 68, 49
1, 102120, Tempo, 388350
1, 102240, Note_on_c, 0, 68, 0
1, 102240, Note_on_c, 0, 58, 0
1, 102240, Note_on_c, 0, 70, 55
1, 102240, Note_on_c, 0, 57, 32
1, 102256, Control_c, 0, 64, 0
1, 102360, Tempo, 408163
1, 102480, Tempo, 422535
1, 102480, Note_on_c, 0, 70, 0
1, 102480, Note_on_c, 0, 69, 49
1, 102720, Tempo, 401338
1, 102720, Note_on_c, 0, 57, 0
1, 102720, Note_on_c, 0, 51, 0
1, 102720, Note_on_c, 0, 38, 43
1, 102857, Control_c, 0, 64, 127
1, 102960, Note_on_c, 0, 38, 0
1, 103200, Tempo, 385852
1, 103200, Note_on_c, 0, 69, 0
1, 103200, Note_on_c, 0, 63, 43
1, 103200, Note_on_c, 0, 75, 55
1, 103200, Note_on_c, 0, 55, 33
1, 103200, Note_on_c, 0, 60, 28
1, 103200, Note_on_c, 0, 50, 28
1, 103440, Note_on_c, 0, 75, 0
1, 103440, Note_on_c, 0, 63, 0
1, 103440, Note_on_c, 0, 71, 53
1, 103560, Tempo, 375000
1, 103680, Tempo, 394737
1, 103680, Note_on_c, 0, 71, 0
1, 103680, Note_on_c, 0, 55, 0
1, 103680, Note_on_c, 0, 74, 56
1, 103680, Note_on_c, 0, 54, 33
1, 103696, Control_c, 0, 64, 0
1, 103920, Tempo, 405405
1, 103920, Note_on_c, 0, 74, 0
1, 103920, Note_on_c, 0, 72, 52
1, 104160, Tempo, 392157
1, 104160, Note_on_c, 0, 50, 0
1, 104160, Note_on_c, 0, 54, 0
1, 104160, Note_on_c, 0, 60, 0
1, 104160, Note_on_c, 0, 38, 44
1, 104274, Control_c, 0, 64, 127
1, 104400, Note_on_c, 0, 38, 0
1, 104640, Tempo, 377358
1, 104640, Note_on_c, 0, 72, 0
1, 104640, Note_on_c, 0, 63, 48
1, 104640, Note_on_c, 0, 67, 57
1, 104640, Note_on_c, 0, 57, 37
1, 104880, Note_on_c, 0, 63, 0
1, 104880, Note_on_c, 0, 62, 51
1, 105120, Tempo, 390879
1, 105120, Note_on_c, 0, 62, 0
1, 105120, Note_on_c, 0, 57, 0
1, 105120, Note_on_c, 0, 67, 0
1, 105120, Note_on_c, 0, 61, 52
1, 105120, Note_on_c, 0, 66, 47
1, 105120, Note_on_c, 0, 69, 57
1, 105120, Note_on_c, 0, 50, 38
1, 105136, Control_c, 0, 64, 0
1, 105360, Note_on_c, 0, 61, 0
1, 105360, Note_on_c, 0, 60, 52
1, 105400, Tempo, 383387
1, 105600, Tempo, 353982
1, 105600, Note_on_c, 0, 60, 0
1, 105600, Note_on_c, 0, 50, 0
1, 105600, Note_on_c, 0, 69, 0
1, 105600, Note_on_c, 0, 66, 0
1, 105600, Note_on_c, 0, 58, 60
1, 105600, Note_on_c, 0, 67, 60
1, 105600, Note_on_c, 0, 70, 71
1, 105600, Note_on_c, 0, 55, 59
1, 105600, Note_on_c, 0, 43, 59
1, 105691, Control_c, 0, 64, 127
1, 105840, Note_on_c, 0, 43, 0
1, 105840, Note_on_c, 0, 55, 0
1, 106080, Note_on_c, 0, 58, 0
1, 106080, Note_on_c, 0, 67, 0
1, 106080, Note_on_c, 0, 70, 0
1, 106080, Note_on_c, 0, 70, 52
1, 106080, Note_on_c, 0, 82, 71
1, 106080, Note_on_c, 0, 65, 43
1, 106080, Note_on_c, 0, 55, 36
1, 106100, Tempo, 350877
1, 106140, Tempo, 349854
1, 106180, Tempo, 348837
1, 106200, Tempo, 347826
1, 106240, Tempo, 346821
1, 106260, Tempo, 345821
1, 106300, Tempo, 344828
1, 106320, Note_on_c, 0, 74, 67
1, 106340, Tempo, 343840
1, 106360, Tempo, 342857
1, 106400, Tempo, 341880
1, 106420, Tempo, 340909
1, 106440, Tempo, 328767
1, 106560, Tempo, 338983
1, 106560, Note_on_c, 0, 74, 0
1, 106560, Note_on_c, 0, 65, 0
1, 106560, Note_on_c, 0, 77, 71
1, 106560, Note_on_c, 0, 58, 36
1, 106560, Note_on_c, 0, 63, 43
1, 106576, Control_c, 0, 64, 0
1, 106680, Tempo, 351906
1, 106800, Tempo, 340909
1, 106800, Note_on_c, 0, 77, 0
1, 106800, Note_on_c, 0, 75, 66
1, 106840, Tempo, 345821
1, 107040, Tempo, 347826
1, 107040, Note_on_c, 0, 82, 0
1, 107040, Note_on_c, 0, 58, 0
1, 107040, Note_on_c, 0, 70, 0
1, 107040, Note_on_c, 0, 55, 0
1, 107040, Note_on_c, 0, 63, 0
1, 107040, Note_on_c, 0, 54, 62
1, 107040, Note_on_c, 0, 42, 62
1, 107060, Tempo, 345821
1, 107154, Control_c, 0, 64, 127
1, 107280, Note_on_c, 0, 42, 0
1, 107280, Note_on_c, 0, 54, 0
1, 107500, Tempo, 343840
1, 107520, Tempo, 339943
1, 107520, Note_on_c, 0, 75, 0
1, 107520, Note_on_c, 0, 69, 57
1, 107520, Note_on_c, 0, 81, 71
1, 107520, Note_on_c, 0, 63, 41
1, 107520, Note_on_c, 0, 54, 35
1, 107560, Tempo, 338983
1, 107580, Tempo, 338028
1, 107620, Tempo, 337079
1, 107640, Tempo, 336134
1, 107680, Tempo, 335196
1, 107700, Tempo, 334262
1, 107720, Tempo, 333333
1, 107760, Tempo, 332410
1, 107760, Note_on_c, 0, 73, 65
1, 107780, Tempo, 331492
1, 107820, Tempo, 330579
1, 107840, Tempo, 329670
1, 107860, Tempo, 328767
1, 107880, Tempo, 320000
1, 108000, Tempo, 329670
1, 108000, Note_on_c, 0, 73, 0
1, 108000, Note_on_c, 0, 63, 0
1, 108000, Note_on_c, 0, 75, 72
1, 108000, Note_on_c, 0, 57, 35
1, 108000, Note_on_c, 0, 62, 42
1, 108015, Control_c, 0, 64, 0
1, 108120, Tempo, 336134
1, 108240, Tempo, 331492
1, 108240, Note_on_c, 0, 75, 0
1, 108240, Note_on_c, 0, 74, 66
1, 108480, Tempo, 327869
1, 108480, Note_on_c, 0, 81, 0
1, 108480, Note_on_c, 0, 57, 0
1, 108480, Note_on_c, 0, 69, 0
1, 108480, Note_on_c, 0, 54, 0
1, 108480, Note_on_c, 0, 62, 0
1, 108480, Note_on_c, 0, 55, 61
1, 108480, Note_on_c, 0, 43, 61
1, 108674, Control_c, 0, 64, 127
1, 108720, Note_on_c, 0, 43, 0
1, 108720, Note_on_c, 0, 55, 0
1, 108960, Tempo, 327869
1, 108960, Note_on_c, 0, 74, 0
1, 108960, Note_on_c, 0, 70, 56
1, 108960, Note_on_c, 0, 82, 72
1, 108960, Note_on_c, 0, 65, 44
1, 108960, Note_on_c, 0, 55, 36
1, 108980, Tempo, 324324
1, 109020, Tempo, 323450
1, 109060, Tempo, 322581
1, 109100, Tempo, 321716
1, 109140, Tempo, 320856
1, 109160, Tempo, 320000
1, 109200, Tempo, 319149
1, 109200, Note_on_c, 0, 74, 69
1, 109240, Tempo, 318302
1, 109280, Tempo, 317460
1, 109300, Tempo, 316623
1, 109320, Tempo, 304569
1, 109440, Tempo, 312500
1, 109440, Note_on_c, 0, 74, 0
1, 109440, Note_on_c, 0, 65, 0
1, 109440, Note_on_c, 0, 77, 73
1, 109440, Note_on_c, 0, 58, 37
1, 109440, Note_on_c, 0, 63, 44
1, 109456, Control_c, 0, 64, 0
1, 109560, Tempo, 321716
1, 109680, Tempo, 318302
1, 109680, Note_on_c, 0, 77, 0
1, 109680, Note_on_c, 0, 75, 67
1, 109920, Tempo, 310078
1, 109920, Note_on_c, 0, 75, 0
1, 109920, Note_on_c, 0, 63, 0
1, 109920, Note_on_c, 0, 70, 0
1, 109920, Note_on_c, 0, 55, 0
1, 109920, Note_on_c, 0, 82, 0
1, 109920, Note_on_c, 0, 58, 0
1, 109920, Note_on_c, 0, 53, 63
1, 109920, Note_on_c, 0, 41, 63
1, 110034, Control_c, 0, 64, 127
1, 110160, Note_on_c, 0, 41, 0
1, 110160, Note_on_c, 0, 53, 0
1, 110400, Tempo, 306122
1, 110400, Note_on_c, 0, 68, 57
1, 110400, Note_on_c, 0, 80, 74
1, 110400, Note_on_c, 0, 63, 43
1, 110400, Note_on_c, 0, 53, 36
1, 110460, Tempo, 305344
1, 110520, Tempo, 304569
1, 110580, Tempo, 303797
1, 110640, Tempo, 303030
1, 110640, Note_on_c, 0, 73, 67
1, 110700, Tempo, 302267
1, 110740, Tempo, 301508
1, 110760, Tempo, 295567
1, 110880, Note_on_c, 0, 73, 0
1, 110880, Note_on_c, 0, 63, 0
1, 110880, Note_on_c, 0, 75, 74
1, 110880, Note_on_c, 0, 56, 36
1, 110880, Note_on_c, 0, 59, 36
1, 110880, Note_on_c, 0, 62, 43
1, 110895, Control_c, 0, 64, 0
1, 111000, Tempo, 302267
1, 111120, Tempo, 306122
1, 111120, Note_on_c, 0, 75, 0
1, 111120, Note_on_c, 0, 74, 67
1, 111360, Tempo, 296296
1, 111360, Note_on_c, 0, 74, 0
1, 111360, Note_on_c, 0, 62, 0
1, 111360, Note_on_c, 0, 80, 0
1, 111360, Note_on_c, 0, 68, 0
1, 111360, Note_on_c, 0, 53, 0
1, 111360, Note_on_c, 0, 59, 0
1, 111360, Note_on_c, 0, 56, 0
1, 111360, Note_on_c, 0, 51, 62
1, 111360, Note_on_c, 0, 39, 62
1, 111451, Control_c, 0, 64, 127
1, 111600, Note_on_c, 0, 39, 0
1, 111600, Note_on_c, 0, 51, 0
1, 111840, Tempo, 295567
1, 111840, Note_on_c, 0, 67, 57
1, 111840, Note_on_c, 0, 79, 75
1, 111840, Note_on_c, 0, 62, 45
1, 111840, Note_on_c, 0, 51, 38
1, 111900, Tempo, 294840
1, 111960, Tempo, 294118
1, 112020, Tempo, 293399
1, 112080, Tempo, 292683
1, 112080, Note_on_c, 0, 71, 71
1, 112140, Tempo, 291971
1, 112180, Tempo, 291262
1, 112200, Tempo, 287770
1, 112320, Note_on_c, 0, 71, 0
1, 112320, Note_on_c, 0, 62, 0
1, 112320, Note_on_c, 0, 74, 75
1, 112320, Note_on_c, 0, 55, 38
1, 112320, Note_on_c, 0, 60, 45
1, 112336, Control_c, 0, 64, 0
1, 112440, Tempo, 290557
1, 112560, Note_on_c, 0, 74, 0
1, 112560, Note_on_c, 0, 72, 70
1, 112800, Tempo, 289855
1, 112800, Note_on_c, 0, 72, 0
1, 112800, Note_on_c, 0, 60, 0
1, 112800, Note_on_c, 0, 67, 0
1, 112800, Note_on_c, 0, 51, 0
1, 112800, Note_on_c, 0, 79, 0
1, 112800, Note_on_c, 0, 55, 0
1, 112800, Note_on_c, 0, 48, 66
1, 112800, Note_on_c, 0, 36, 66
1, 112960, Control_c, 0, 64, 127
1, 113040, Note_on_c, 0, 36, 0
1, 113040, Note_on_c, 0, 48, 0
1, 113280, Tempo, 284360
1, 113280, Note_on_c, 0, 60, 57
1, 113280, Note_on_c, 0, 72, 75
1, 113280, Note_on_c, 0, 58, 44
1, 113280, Note_on_c, 0, 48, 37
1, 113520, Note_on_c, 0, 68, 69
1, 113640, Tempo, 281030
1, 113680, Tempo, 277778
1, 113760, Note_on_c, 0, 68, 0
1, 113760, Note_on_c, 0, 58, 0
1, 113760, Note_on_c, 0, 70, 76
1, 113760, Note_on_c, 0, 51, 37
1, 113760, Note_on_c, 0, 57, 44
1, 113775, Control_c, 0, 64, 0
1, 113880, Tempo, 284360
1, 114000, Note_on_c, 0, 70, 0
1, 114000, Note_on_c, 0, 69, 69
1, 114240, Tempo, 282353
1, 114240, Note_on_c, 0, 69, 0
1, 114240, Note_on_c, 0, 57, 0
1, 114240, Note_on_c, 0, 60, 0
1, 114240, Note_on_c, 0, 48, 0
1, 114240, Note_on_c, 0, 72, 0
1, 114240, Note_on_c, 0, 51, 0
1, 114240, Note_on_c, 0, 38, 64
1, 114389, Control_c, 0, 64, 127
1, 114480, Note_on_c, 0, 38, 0
1, 114720, Tempo, 283688
1, 114720, Note_on_c, 0, 63, 59
1, 114720, Note_on_c, 0, 75, 76
1, 114720, Note_on_c, 0, 45, 46
1, 114720, Note_on_c, 0, 55, 46
1, 114760, Tempo, 278422
1, 114960, Note_on_c, 0, 71, 73
1, 115080, Tempo, 271493
1, 115200, Note_on_c, 0, 71, 0
1, 115200, Note_on_c, 0, 45, 0
1, 115200, Note_on_c, 0, 55, 0
1, 115200, Note_on_c, 0, 74, 77
1, 115200, Note_on_c, 0, 48, 39
1, 115200, Note_on_c, 0, 54, 47
1, 115216, Control_c, 0, 64, 0
1, 115320, Tempo, 277136
1, 115440, Note_on_c, 0, 74, 0
1, 115440, Note_on_c, 0, 72, 71
1, 115680, Tempo, 275229
1, 115680, Note_on_c, 0, 72, 0
1, 115680, Note_on_c, 0, 54, 0
1, 115680, Note_on_c, 0, 63, 0
1, 115680, Note_on_c, 0, 75, 0
1, 115680, Note_on_c, 0, 48, 0
1, 115680, Note_on_c, 0, 38, 67
1, 115794, Control_c, 0, 64, 127
1, 115920, Note_on_c, 0, 38, 0
1, 116160, Tempo, 272727
1, 116160, Note_on_c, 0, 54, 78
1, 116160, Note_on_c, 0, 66, 78
1, 116160, Note_on_c, 0, 45, 51
1, 116160, Note_on_c, 0, 51, 51
1, 116400, Note_on_c, 0, 61, 71
1, 116520, Tempo, 266075
1, 116640, Note_on_c, 0, 61, 0
1, 116640, Note_on_c, 0, 45, 0
1, 116640, Note_on_c, 0, 51, 0
1, 116640, Note_on_c, 0, 63, 71
1, 116640, Note_on_c, 0, 48, 51
1, 116640, Note_on_c, 0, 50, 51
1, 116655, Control_c, 0, 64, 0
1, 116760, Tempo, 276498
1, 116880, Note_on_c, 0, 63, 0
1, 116880, Note_on_c, 0, 62, 71
1, 117120, Time_signature, 6, 3, 12, 8
1, 117120, Tempo, 442804
1, 117120, Note_on_c, 0, 62, 0
1, 117120, Note_on_c, 0, 54, 0
1, 117120, Note_on_c, 0, 48, 0
1, 117120, Note_on_c, 0, 66, 0
1, 117120, Note_on_c, 0, 67, 79
1, 117120, Note_on_c, 0, 58, 67
1, 117120, Note_on_c, 0, 43, 51
1, 117360, Tempo, 428571
1, 117360, Note_on_c, 0, 43, 0
1, 117360, Note_on_c, 0, 50, 0
1, 117360, Note_on_c, 0, 67, 0
1, 117360, Note_on_c, 0, 58, 0
1, 117360, Note_on_c, 0, 60, 78
1, 117360, Note_on_c, 0, 55, 53
1, 117360, Note_on_c, 0, 31, 32
1, 117360, Note_on_c, 0, 43, 38
1, 117480, Note_on_c, 0, 55, 0
1, 117480, Note_on_c, 0, 60, 0
1, 117480, Note_on_c, 0, 58, 65
1, 117600, Note_on_c, 0, 58, 0
1, 117600, Note_on_c, 0, 31, 0
1, 117600, Note_on_c, 0, 43, 0
1, 117600, Note_on_c, 0, 57, 64
1, 117720, Note_on_c, 0, 57, 0
1, 117720, Note_on_c, 0, 55, 65
1, 117840, Tempo, 439560
1, 117840, Note_on_c, 0, 55, 0
1, 117840, Note_on_c, 0, 58, 77
1, 117840, Note_on_c, 0, 67, 77
1, 117840, Note_on_c, 0, 50, 51
1, 117840, Note_on_c, 0, 43, 38
1, 118080, Tempo, 428571
1, 118080, Note_on_c, 0, 43, 0
1, 118080, Note_on_c, 0, 58, 0
1, 118080, Note_on_c, 0, 67, 0
1, 118080, Note_on_c, 0, 50, 0
1, 118080, Note_on_c, 0, 60, 77
1, 118080, Note_on_c, 0, 55, 52
1, 118080, Note_on_c, 0, 43, 32
1, 118080, Note_on_c, 0, 51, 43
1, 118200, Note_on_c, 0, 51, 0
1, 118200, Note_on_c, 0, 60, 0
1, 118200, Note_on_c, 0, 55, 0
1, 118200, Note_on_c, 0, 58, 64
1, 118200, Note_on_c, 0, 50, 45
1, 118320, Note_on_c, 0, 50, 0
1, 118320, Note_on_c, 0, 58, 0
1, 118320, Note_on_c, 0, 57, 64
1, 118440, Note_on_c, 0, 57, 0
1, 118440, Note_on_c, 0, 55, 63
1, 118560, Tempo, 436364
1, 118560, Note_on_c, 0, 55, 0
1, 118560, Note_on_c, 0, 43, 0
1, 118560, Note_on_c, 0, 65, 69
1, 118560, Note_on_c, 0, 48, 43
1, 118560, Note_on_c, 0, 43, 43
1, 118560, Note_on_c, 0, 51, 51
1, 118606, Control_c, 0, 64, 127
1, 118680, Note_on_c, 0, 65, 0
1, 118680, Note_on_c, 0, 60, 52
1, 118800, Note_on_c, 0, 60, 0
1, 118800, Note_on_c, 0, 63, 54
1, 118800, Note_on_c, 0, 57, 49
1, 118920, Tempo, 428571
1, 118920, Note_on_c, 0, 63, 0
1, 118920, Note_on_c, 0, 54, 55
1, 119040, Note_on_c, 0, 54, 0
1, 119040, Note_on_c, 0, 60, 57
1, 119160, Note_on_c, 0, 60, 0
1, 119160, Note_on_c, 0, 63, 58
1, 119280, Tempo, 427046
1, 119280, Note_on_c, 0, 63, 0
1, 119280, Note_on_c, 0, 66, 60
1, 119360, Tempo, 425532
1, 119400, Note_on_c, 0, 66, 0
1, 119400, Note_on_c, 0, 72, 62
1, 119440, Tempo, 424028
1, 119500, Tempo, 422535
1, 119520, Note_on_c, 0, 72, 0
1, 119520, Note_on_c, 0, 57, 0
1, 119520, Note_on_c, 0, 48, 0
1, 119520, Note_on_c, 0, 43, 0
1, 119520, Note_on_c, 0, 51, 0
1, 119520, Note_on_c, 0, 77, 63
1, 119520, Note_on_c, 0, 43, 43
1, 119520, Note_on_c, 0, 55, 51
1, 119531, Control_c, 0, 64, 0
1, 119580, Tempo, 424028
1, 119640, Tempo, 425532
1, 119640, Note_on_c, 0, 77, 0
1, 119640, Note_on_c, 0, 75, 65
1, 119700, Tempo, 427046
1, 119760, Tempo, 428571
1, 119760, Note_on_c, 0, 75, 0
1, 119760, Note_on_c, 0, 55, 0
1, 119760, Note_on_c, 0, 43, 0
1, 119760, Note_on_c, 0, 74, 67
1, 119760, Note_on_c, 0, 63, 55
1, 119760, Note_on_c, 0, 51, 46
1, 119820, Tempo, 430108
1, 119880, Tempo, 431655
1, 119880, Note_on_c, 0, 74, 0
1, 119880, Note_on_c, 0, 72, 68
1, 120000, Tempo, 442804
1, 120000, Note_on_c, 0, 72, 0
1, 120000, Note_on_c, 0, 51, 0
1, 120000, Note_on_c, 0, 63, 0
1, 120000, Note_on_c, 0, 79, 79
1, 120000, Note_on_c, 0, 70, 67
1, 120000, Note_on_c, 0, 50, 46
1, 120000, Note_on_c, 0, 62, 51
1, 120120, Note_on_c, 0, 62, 0
1, 120120, Note_on_c, 0, 79, 0
1, 120120, Note_on_c, 0, 70, 0
1, 120120, Note_on_c, 0, 50, 0
1, 120240, Tempo, 428571
1, 120240, Note_on_c, 0, 67, 53
1, 120240, Note_on_c, 0, 72, 78
1, 120240, Note_on_c, 0, 43, 32
1, 120240, Note_on_c, 0, 55, 38
1, 120360, Note_on_c, 0, 72, 0
1, 120360, Note_on_c, 0, 67, 0
1, 120360, Note_on_c, 0, 70, 65
1, 120480, Note_on_c, 0, 70, 0
1, 120480, Note_on_c, 0, 69, 64
1, 120600, Note_on_c, 0, 69, 0
1, 120600, Note_on_c, 0, 67, 65
1, 120720, Tempo, 439560
1, 120720, Note_on_c, 0, 67, 0
1, 120720, Note_on_c, 0, 43, 0
1, 120720, Note_on_c, 0, 55, 0
1, 120720, Note_on_c, 0, 70, 69
1, 120720, Note_on_c, 0, 79, 77
1, 120720, Note_on_c, 0, 62, 45
1, 120720, Note_on_c, 0, 55, 38
1, 120960, Tempo, 428571
1, 120960, Note_on_c, 0, 55, 0
1, 120960, Note_on_c, 0, 70, 0
1, 120960, Note_on_c, 0, 79, 0
1, 120960, Note_on_c, 0, 62, 0
1, 120960, Note_on_c, 0, 72, 77
1, 120960, Note_on_c, 0, 67, 52
1, 120960, Note_on_c, 0, 55, 32
1, 120960, Note_on_c, 0, 63, 43
1, 121080, Note_on_c, 0, 63, 0
1, 121080, Note_on_c, 0, 72, 0
1, 121080, Note_on_c, 0, 67, 0
1, 121080, Note_on_c, 0, 70, 64
1, 121080, Note_on_c, 0, 62, 45
1, 121200, Note_on_c, 0, 62, 0
1, 121200, Note_on_c, 0, 70, 0
1, 121200, Note_on_c, 0, 69, 64
1, 121320, Note_on_c, 0, 69, 0
1, 121320, Note_on_c, 0, 67, 63
1, 121440, Tempo, 436364
1, 121440, Note_on_c, 0, 67, 0
1, 121440, Note_on_c, 0, 55, 0
1, 121440, Note_on_c, 0, 77, 69
1, 121440, Note_on_c, 0, 60, 43
1, 121440, Note_on_c, 0, 55, 43
1, 121440, Note_on_c, 0, 63, 51
1, 121503, Control_c, 0, 64, 127
1, 121560, Note_on_c, 0, 77, 0
1, 121560, Note_on_c, 0, 72, 52
1, 121680, Note_on_c, 0, 72, 0
1, 121680, Note_on_c, 0, 75, 54
1, 121680, Note_on_c, 0, 69, 49
1, 121800, Tempo, 428571
1, 121800, Note_on_c, 0, 75, 0
1, 121800, Note_on_c, 0, 66, 55
1, 121920, Note_on_c, 0, 66, 0
1, 121920, Note_on_c, 0, 72, 57
1, 122040, Note_on_c, 0, 72, 0
1, 122040, Note_on_c, 0, 75, 58
1, 122160, Tempo, 427046
1, 122160, Note_on_c, 0, 75, 0
1, 122160, Note_on_c, 0, 78, 60
1, 122240, Tempo, 425532
1, 122280, Note_on_c, 0, 78, 0
1, 122280, Note_on_c, 0, 84, 62
1, 122320, Tempo, 424028
1, 122380, Tempo, 422535
1, 122400, Note_on_c, 0, 84, 0
1, 122400, Note_on_c, 0, 69, 0
1, 122400, Note_on_c, 0, 60, 0
1, 122400, Note_on_c, 0, 55, 0
1, 122400, Note_on_c, 0, 63, 0
1, 122400, Note_on_c, 0, 89, 63
1, 122400, Note_on_c, 0, 55, 43
1, 122400, Note_on_c, 0, 67, 51
1, 122410, Control_c, 0, 64, 0
1, 122460, Tempo, 424028
1, 122520, Tempo, 425532
1, 122520, Note_on_c, 0, 89, 0
1, 122520, Note_on_c, 0, 87, 65
1, 122580, Tempo, 427046
1, 122640, Tempo, 428571
1, 122640, Note_on_c, 0, 87, 0
1, 122640, Note_on_c, 0, 67, 0
1, 122640, Note_on_c, 0, 55, 0
1, 122640, Note_on_c, 0, 86, 67
1, 122640, Note_on_c, 0, 75, 55
1, 122640, Note_on_c, 0, 63, 46
1, 122700, Tempo, 430108
1, 122760, Tempo, 431655
1, 122760, Note_on_c, 0, 86, 0
1, 122760, Note_on_c, 0, 84, 68
1, 122880, Tempo, 442804
1, 122880, Note_on_c, 0, 84, 0
1, 122880, Note_on_c, 0, 63, 0
1, 122880, Note_on_c, 0, 75, 0
1, 122880, Note_on_c, 0, 91, 76
1, 122880, Note_on_c, 0, 82, 64
1, 122880, Note_on_c, 0, 67, 55
1, 122880, Note_on_c, 0, 74, 55
1, 123000, Note_on_c, 0, 74, 0
1, 123000, Note_on_c, 0, 91, 0
1, 123000, Note_on_c, 0, 82, 0
1, 123000, Note_on_c, 0, 67, 0
1, 123240, Tempo, 430108
1, 123240, Note_on_c, 0, 91, 63
1, 123240, Note_on_c, 0, 96, 75
1, 123360, Note_on_c, 0, 96, 0
1, 123360, Note_on_c, 0, 91, 0
1, 123360, Note_on_c, 0, 94, 68
1, 123480, Note_on_c, 0, 94, 0
1, 123480, Note_on_c, 0, 86, 68
1, 123600, Note_on_c, 0, 86, 0
1, 123600, Note_on_c, 0, 94, 73
1, 123600, Note_on_c, 0, 90, 62
1, 123600, Note_on_c, 0, 75, 66
1, 123600, Note_on_c, 0, 63, 38
1, 123600, Note_on_c, 0, 66, 38
1, 123600, Note_on_c, 0, 69, 48
1, 123620, Tempo, 425532
1, 123703, Control_c, 0, 64, 127
1, 123720, Note_on_c, 0, 90, 0
1, 123720, Note_on_c, 0, 94, 0
1, 123720, Note_on_c, 0, 93, 67
1, 123740, Tempo, 424028
1, 123840, Note_on_c, 0, 93, 0
1, 123840, Note_on_c, 0, 75, 0
1, 123840, Note_on_c, 0, 63, 0
1, 123840, Note_on_c, 0, 69, 0
1, 123840, Note_on_c, 0, 66, 0
1, 123840, Note_on_c, 0, 86, 66
1, 123840, Note_on_c, 0, 74, 52
1, 123860, Tempo, 422535
1, 123920, Tempo, 424028
1, 123960, Tempo, 425532
1, 123960, Note_on_c, 0, 86, 0
1, 123960, Note_on_c, 0, 78, 60
1, 123960, Note_on_c, 0, 82, 71
1, 124020, Tempo, 427046
1, 124060, Tempo, 428571
1, 124080, Note_on_c, 0, 82, 0
1, 124080, Note_on_c, 0, 78, 0
1, 124080, Note_on_c, 0, 74, 0
1, 124080, Note_on_c, 0, 81, 64
1, 124080, Note_on_c, 0, 62, 52
1, 124200, Note_on_c, 0, 81, 0
1, 124200, Note_on_c, 0, 74, 64
1, 124320, Tempo, 441176
1, 124320, Note_on_c, 0, 74, 0
1, 124320, Note_on_c, 0, 62, 0
1, 124320, Note_on_c, 0, 84, 66
1, 124320, Note_on_c, 0, 79, 56
1, 124320, Note_on_c, 0, 55, 55
1, 124331, Control_c, 0, 64, 0
1, 124412, Control_c, 0, 64, 127
1, 124440, Note_on_c, 0, 55, 0
1, 124440, Note_on_c, 0, 79, 0
1, 124440, Note_on_c, 0, 84, 0
1, 124440, Note_on_c, 0, 82, 60
1, 124560, Tempo, 451128
1, 124560, Note_on_c, 0, 82, 0
1, 124560, Note_on_c, 0, 86, 60
1, 124560, Note_on_c, 0, 62, 51
1, 124680, Tempo, 430108
1, 124680, Note_on_c, 0, 86, 0
1, 124680, Note_on_c, 0, 91, 62
1, 124680, Note_on_c, 0, 96, 74
1, 124800, Note_on_c, 0, 96, 0
1, 124800, Note_on_c, 0, 91, 0
1, 124800, Note_on_c, 0, 94, 68
1, 124800, Note_on_c, 0, 74, 51
1, 124840, Tempo, 422535
1, 124920, Note_on_c, 0, 94, 0
1, 124920, Note_on_c, 0, 86, 69
1, 125040, Note_on_c, 0, 86, 0
1, 125040, Note_on_c, 0, 74, 0
1, 125040, Note_on_c, 0, 62, 0
1, 125040, Note_on_c, 0, 94, 71
1, 125040, Note_on_c, 0, 90, 60
1, 125040, Note_on_c, 0, 66, 38
1, 125040, Note_on_c, 0, 63, 38
1, 125040, Note_on_c, 0, 75, 66
1, 125040, Note_on_c, 0, 69, 48
1, 125055, Control_c, 0, 64, 0
1, 125160, Note_on_c, 0, 90, 0
1, 125160, Note_on_c, 0, 94, 0
1, 125160, Note_on_c, 0, 93, 64
1, 125160, Control_c, 0, 64, 127
1, 125200, Tempo, 421053
1, 125240, Tempo, 422535
1, 125280, Note_on_c, 0, 93, 0
1, 125280, Note_on_c, 0, 66, 0
1, 125280, Note_on_c, 0, 63, 0
1, 125280, Note_on_c, 0, 69, 0
1, 125280, Note_on_c, 0, 75, 0
1, 125280, Note_on_c, 0, 86, 63
1, 125280, Note_on_c, 0, 74, 50
1, 125300, Tempo, 421053
1, 125360, Tempo, 422535
1, 125400, Note_on_c, 0, 86, 0
1, 125400, Note_on_c, 0, 78, 56
1, 125400, Note_on_c, 0, 82, 66
1, 125420, Tempo, 424028
1, 125480, Tempo, 425532
1, 125520, Tempo, 427046
1, 125520, Note_on_c, 0, 82, 0
1, 125520, Note_on_c, 0, 78, 0
1, 125520, Note_on_c, 0, 74, 0
1, 125520, Note_on_c, 0, 81, 60
1, 125520, Note_on_c, 0, 62, 53
1, 125640, Note_on_c, 0, 81, 0
1, 125640, Note_on_c, 0, 74, 60
1, 125760, Tempo, 441176
1, 125760, Note_on_c, 0, 74, 0
1, 125760, Note_on_c, 0, 62, 0
1, 125760, Note_on_c, 0, 79, 56
1, 125760, Note_on_c, 0, 84, 66
1, 125760, Note_on_c, 0, 55, 55
1, 125765, Control_c, 0, 64, 0
1, 125773, Control_c, 0, 64, 0
1, 125857, Control_c, 0, 64, 127
1, 125880, Note_on_c, 0, 84, 0
1, 125880, Note_on_c, 0, 79, 0
1, 125880, Note_on_c, 0, 82, 60
1, 126000, Tempo, 451128
1, 126000, Note_on_c, 0, 82, 0
1, 126000, Note_on_c, 0, 55, 0
1, 126000, Note_on_c, 0, 86, 60
1, 126120, Tempo, 430108
1, 126120, Note_on_c, 0, 86, 0
1, 126120, Note_on_c, 0, 91, 62
1, 126120, Note_on_c, 0, 96, 74
1, 126220, Tempo, 425532
1, 126240, Note_on_c, 0, 96, 0
1, 126240, Note_on_c, 0, 91, 0
1, 126240, Note_on_c, 0, 94, 68
1, 126240, Note_on_c, 0, 50, 51
1, 126360, Note_on_c, 0, 94, 0
1, 126360, Note_on_c, 0, 86, 69
1, 126480, Note_on_c, 0, 86, 0
1, 126480, Note_on_c, 0, 50, 0
1, 126480, Note_on_c, 0, 94, 71
1, 126480, Note_on_c, 0, 90, 60
1, 126480, Note_on_c, 0, 54, 38
1, 126480, Note_on_c, 0, 63, 66
1, 126480, Note_on_c, 0, 57, 48
1, 126480, Note_on_c, 0, 51, 38
1, 126496, Control_c, 0, 64, 0
1, 126600, Note_on_c, 0, 90, 0
1, 126600, Note_on_c, 0, 94, 0
1, 126600, Note_on_c, 0, 93, 64
1, 126600, Control_c, 0, 64, 127
1, 126700, Tempo, 425532
1, 126720, Note_on_c, 0, 93, 0
1, 126720, Note_on_c, 0, 54, 0
1, 126720, Note_on_c, 0, 63, 0
1, 126720, Note_on_c, 0, 51, 0
1, 126720, Note_on_c, 0, 57, 0
1, 126720, Note_on_c, 0, 86, 63
1, 126720, Note_on_c, 0, 62, 50
1, 126820, Tempo, 427046
1, 126840, Note_on_c, 0, 86, 0
1, 126840, Note_on_c, 0, 78, 56
1, 126840, Note_on_c, 0, 82, 66
1, 126920, Tempo, 428571
1, 126960, Note_on_c, 0, 82, 0
1, 126960, Note_on_c, 0, 78, 0
1, 126960, Note_on_c, 0, 62, 0
1, 126960, Note_on_c, 0, 81, 60
1, 126960, Note_on_c, 0, 50, 53
1, 127080, Note_on_c, 0, 81, 0
1, 127080, Note_on_c, 0, 74, 60
1, 127200, Tempo, 441176
1, 127200, Note_on_c, 0, 74, 0
1, 127200, Note_on_c, 0, 50, 0
1, 127200, Note_on_c, 0, 72, 59
1, 127200, Note_on_c, 0, 67, 50
1, 127200, Note_on_c, 0, 43, 49
1, 127207, Control_c, 0, 64, 0
1, 127309, Control_c, 0, 64, 127
1, 127320, Note_on_c, 0, 43, 0
1, 127320, Note_on_c, 0, 67, 0
1, 127320, Note_on_c, 0, 72, 0
1, 127320, Note_on_c, 0, 70, 54
1, 127440, Tempo, 451128
1, 127440, Note_on_c, 0, 70, 0
1, 127440, Note_on_c, 0, 74, 54
1, 127440, Note_on_c, 0, 50, 45
1, 127560, Tempo, 430108
1, 127560, Note_on_c, 0, 74, 0
1, 127560, Note_on_c, 0, 84, 66
1, 127560, Note_on_c, 0, 79, 55
1, 127680, Note_on_c, 0, 79, 0
1, 127680, Note_on_c, 0, 84, 0
1, 127680, Note_on_c, 0, 82, 61
1, 127680, Note_on_c, 0, 62, 45
1, 127800, Note_on_c, 0, 82, 0
1, 127800, Note_on_c, 0, 74, 62
1, 127920, Tempo, 430108
1, 127920, Note_on_c, 0, 74, 0
1, 127920, Note_on_c, 0, 62, 0
1, 127920, Note_on_c, 0, 50, 0
1, 127920, Note_on_c, 0, 82, 63
1, 127920, Note_on_c, 0, 78, 54
1, 127920, Note_on_c, 0, 63, 57
1, 127920, Note_on_c, 0, 51, 34
1, 127920, Note_on_c, 0, 54, 34
1, 127920, Note_on_c, 0, 57, 42
1, 127936, Control_c, 0, 64, 0
1, 128006, Control_c, 0, 64, 127
1, 128020, Tempo, 428571
1, 128040, Note_on_c, 0, 78, 0
1, 128040, Note_on_c, 0, 82, 0
1, 128040, Note_on_c, 0, 81, 57
1, 128100, Tempo, 427046
1, 128160, Note_on_c, 0, 81, 0
1, 128160, Note_on_c, 0, 63, 0
1, 128160, Note_on_c, 0, 51, 0
1, 128160, Note_on_c, 0, 57, 0
1, 128160, Note_on_c, 0, 54, 0
1, 128160, Note_on_c, 0, 74, 56
1, 128160, Note_on_c, 0, 62, 45
1, 128180, Tempo, 425532
1, 128240, Tempo, 427046
1, 128280, Tempo, 428571
1, 128280, Note_on_c, 0, 74, 0
1, 128280, Note_on_c, 0, 70, 59
1, 128280, Note_on_c, 0, 66, 50
1, 128340, Tempo, 430108
1, 128380, Tempo, 431655
1, 128400, Note_on_c, 0, 66, 0
1, 128400, Note_on_c, 0, 70, 0
1, 128400, Note_on_c, 0, 62, 0
1, 128400, Note_on_c, 0, 69, 54
1, 128400, Note_on_c, 0, 50, 47
1, 128520, Note_on_c, 0, 69, 0
1, 128520, Note_on_c, 0, 62, 54
1, 128640, Tempo, 441176
1, 128640, Note_on_c, 0, 62, 0
1, 128640, Note_on_c, 0, 50, 0
1, 128640, Note_on_c, 0, 72, 59
1, 128640, Note_on_c, 0, 67, 50
1, 128640, Note_on_c, 0, 43, 58
1, 128645, Control_c, 0, 64, 0
1, 128746, Control_c, 0, 64, 127
1, 128760, Note_on_c, 0, 67, 0
1, 128760, Note_on_c, 0, 72, 0
1, 128760, Note_on_c, 0, 70, 54
1, 128880, Tempo, 451128
1, 128880, Note_on_c, 0, 70, 0
1, 128880, Note_on_c, 0, 43, 0
1, 128880, Note_on_c, 0, 74, 54
1, 128880, Note_on_c, 0, 58, 45
1, 128880, Note_on_c, 0, 50, 45
1, 129000, Tempo, 430108
1, 129000, Note_on_c, 0, 74, 0
1, 129000, Note_on_c, 0, 84, 59
1, 129000, Note_on_c, 0, 79, 49
1, 129120, Note_on_c, 0, 79, 0
1, 129120, Note_on_c, 0, 58, 0
1, 129120, Note_on_c, 0, 50, 0
1, 129120, Note_on_c, 0, 84, 0
1, 129120, Note_on_c, 0, 82, 54
1, 129240, Tempo, 444444
1, 129240, Note_on_c, 0, 82, 0
1, 129240, Note_on_c, 0, 74, 55
1, 129360, Tempo, 430108
1, 129360, Note_on_c, 0, 74, 0
1, 129360, Note_on_c, 0, 81, 56
1, 129360, Note_on_c, 0, 74, 48
1, 129360, Note_on_c, 0, 37, 46
1, 129360, Note_on_c, 0, 49, 58
1, 129375, Control_c, 0, 64, 0
1, 129480, Note_on_c, 0, 74, 0
1, 129480, Note_on_c, 0, 81, 0
1, 129480, Note_on_c, 0, 79, 51
1, 129600, Note_on_c, 0, 79, 0
1, 129600, Note_on_c, 0, 37, 0
1, 129600, Note_on_c, 0, 49, 0
1, 129600, Note_on_c, 0, 70, 50
1, 129600, Note_on_c, 0, 38, 39
1, 129600, Note_on_c, 0, 50, 45
1, 129720, Note_on_c, 0, 70, 0
1, 129720, Note_on_c, 0, 75, 53
1, 129720, Note_on_c, 0, 70, 45
1, 129840, Note_on_c, 0, 70, 0
1, 129840, Note_on_c, 0, 38, 0
1, 129840, Note_on_c, 0, 50, 0
1, 129840, Note_on_c, 0, 75, 0
1, 129840, Note_on_c, 0, 74, 48
1, 129960, Note_on_c, 0, 74, 0
1, 129960, Note_on_c, 0, 67, 48
1, 130080, Tempo, 441176
1, 130080, Note_on_c, 0, 67, 0
1, 130080, Note_on_c, 0, 72, 45
1, 130080, Note_on_c, 0, 67, 38
1, 130080, Note_on_c, 0, 43, 49
1, 130080, Note_on_c, 0, 31, 49
1, 130087, Control_c, 0, 64, 0
1, 130200, Note_on_c, 0, 67, 0
1, 130200, Note_on_c, 0, 72, 0
1, 130200, Note_on_c, 0, 70, 40
1, 130214, Control_c, 0, 64, 127
1, 130320, Tempo, 451128
1, 130320, Note_on_c, 0, 70, 0
1, 130320, Note_on_c, 0, 43, 0
1, 130320, Note_on_c, 0, 31, 0
1, 130320, Note_on_c, 0, 62, 40
1, 130320, Note_on_c, 0, 46, 38
1, 130440, Tempo, 430108
1, 130440, Note_on_c, 0, 62, 0
1, 130440, Note_on_c, 0, 62, 41
1, 130440, Note_on_c, 0, 69, 50
1, 130560, Note_on_c, 0, 69, 0
1, 130560, Note_on_c, 0, 62, 0
1, 130560, Note_on_c, 0, 46, 0
1, 130560, Note_on_c, 0, 67, 45
1, 130680, Tempo, 446097
1, 130680, Note_on_c, 0, 67, 0
1, 130680, Note_on_c, 0, 58, 46
1, 130800, Tempo, 430108
1, 130800, Note_on_c, 0, 58, 0
1, 130800, Note_on_c, 0, 63, 47
1, 130800, Note_on_c, 0, 58, 40
1, 130800, Note_on_c, 0, 37, 49
1, 130815, Control_c, 0, 64, 0
1, 130920, Note_on_c, 0, 58, 0
1, 130920, Note_on_c, 0, 63, 0
1, 130920, Note_on_c, 0, 62, 43
1, 131040, Note_on_c, 0, 62, 0
1, 131040, Note_on_c, 0, 37, 0
1, 131040, Note_on_c, 0, 55, 42
1, 131040, Note_on_c, 0, 38, 38
1, 131160, Note_on_c, 0, 55, 0
1, 131160, Note_on_c, 0, 55, 38
1, 131160, Note_on_c, 0, 60, 45
1, 131280, Note_on_c, 0, 60, 0
1, 131280, Note_on_c, 0, 55, 0
1, 131280, Note_on_c, 0, 38, 0
1, 131280, Note_on_c, 0, 58, 40
1, 131400, Tempo, 437956
1, 131400, Note_on_c, 0, 58, 0
1, 131400, Note_on_c, 0, 50, 40
1, 131520, Tempo, 441176
1, 131520, Note_on_c, 0, 50, 0
1, 131520, Note_on_c, 0, 55, 45
1, 131520, Note_on_c, 0, 60, 53
1, 131520, Note_on_c, 0, 43, 49
1, 131520, Note_on_c, 0, 31, 49
1, 131560, Control_c, 0, 64, 127
1, 131640, Note_on_c, 0, 60, 0
1, 131640, Note_on_c, 0, 55, 0
1, 131640, Note_on_c, 0, 58, 48
1, 131760, Tempo, 451128
1, 131760, Note_on_c, 0, 58, 0
1, 131760, Note_on_c, 0, 43, 0
1, 131760, Note_on_c, 0, 31, 0
1, 131760, Note_on_c, 0, 50, 48
1, 131880, Tempo, 430108
1, 131880, Note_on_c, 0, 50, 0
1, 131880, Note_on_c, 0, 55, 46
1, 131880, Note_on_c, 0, 62, 55
1, 132000, Note_on_c, 0, 62, 0
1, 132000, Note_on_c, 0, 55, 0
1, 132000, Note_on_c, 0, 60, 50
1, 132000, Note_on_c, 0, 36, 45
1, 132011, Control_c, 0, 64, 0
1, 132120, Tempo, 446097
1, 132120, Note_on_c, 0, 60, 0
1, 132120, Note_on_c, 0, 51, 51
1, 132240, Tempo, 430108
1, 132240, Note_on_c, 0, 51, 0
1, 132240, Note_on_c, 0, 36, 0
1, 132240, Note_on_c, 0, 55, 45
1, 132240, Note_on_c, 0, 60, 54
1, 132240, Note_on_c, 0, 31, 49
1, 132240, Note_on_c, 0, 43, 49
1, 132311, Control_c, 0, 64, 127
1, 132360, Note_on_c, 0, 60, 0
1, 132360, Note_on_c, 0, 55, 0
1, 132360, Note_on_c, 0, 58, 50
1, 132480, Note_on_c, 0, 58, 0
1, 132480, Note_on_c, 0, 31, 0
1, 132480, Note_on_c, 0, 43, 0
1, 132480, Note_on_c, 0, 50, 50
1, 132600, Note_on_c, 0, 50, 0
1, 132600, Note_on_c, 0, 55, 45
1, 132600, Note_on_c, 0, 62, 53
1, 132720, Note_on_c, 0, 62, 0
1, 132720, Note_on_c, 0, 55, 0
1, 132720, Note_on_c, 0, 60, 48
1, 132720, Note_on_c, 0, 36, 45
1, 132735, Control_c, 0, 64, 0
1, 132840, Tempo, 442804
1, 132840, Note_on_c, 0, 60, 0
1, 132840, Note_on_c, 0, 51, 48
1, 132960, Tempo, 441176
1, 132960, Note_on_c, 0, 51, 0
1, 132960, Note_on_c, 0, 36, 0
1, 132960, Note_on_c, 0, 55, 45
1, 132960, Note_on_c, 0, 60, 53
1, 132960, Note_on_c, 0, 31, 49
1, 132960, Note_on_c, 0, 43, 49
1, 133000, Control_c, 0, 64, 127
1, 133080, Note_on_c, 0, 60, 0
1, 133080, Note_on_c, 0, 55, 0
1, 133080, Note_on_c, 0, 58, 48
1, 133200, Tempo, 451128
1, 133200, Note_on_c, 0, 58, 0
1, 133200, Note_on_c, 0, 31, 0
1, 133200, Note_on_c, 0, 43, 0
1, 133200, Note_on_c, 0, 50, 48
1, 133320, Tempo, 430108
1, 133320, Note_on_c, 0, 50, 0
1, 133320, Note_on_c, 0, 62, 55
1, 133320, Note_on_c, 0, 55, 46
1, 133440, Note_on_c, 0, 55, 0
1, 133440, Note_on_c, 0, 62, 0
1, 133440, Note_on_c, 0, 60, 50
1, 133440, Note_on_c, 0, 36, 45
1, 133454, Control_c, 0, 64, 0
1, 133560, Tempo, 446097
1, 133560, Note_on_c, 0, 60, 0
1, 133560, Note_on_c, 0, 51, 51
1, 133680, Tempo, 430108
1, 133680, Note_on_c, 0, 51, 0
1, 133680, Note_on_c, 0, 36, 0
1, 133680, Note_on_c, 0, 55, 45
1, 133680, Note_on_c, 0, 60, 54
1, 133680, Note_on_c, 0, 43, 49
1, 133680, Note_on_c, 0, 31, 49
1, 133751, Control_c, 0, 64, 127
1, 133800, Note_on_c, 0, 60, 0
1, 133800, Note_on_c, 0, 55, 0
1, 133800, Note_on_c, 0, 58, 50
1, 133920, Note_on_c, 0, 58, 0
1, 133920, Note_on_c, 0, 43, 0
1, 133920, Note_on_c, 0, 31, 0
1, 133920, Note_on_c, 0, 50, 50
1, 134040, Note_on_c, 0, 50, 0
1, 134040, Note_on_c, 0, 62, 53
1, 134040, Note_on_c, 0, 55, 45
1, 134160, Note_on_c, 0, 55, 0
1, 134160, Note_on_c, 0, 62, 0
1, 134160, Note_on_c, 0, 60, 48
1, 134160, Note_on_c, 0, 36, 45
1, 134171, Control_c, 0, 64, 0
1, 134280, Tempo, 442804
1, 134280, Note_on_c, 0, 60, 0
1, 134280, Note_on_c, 0, 51, 48
1, 134400, Tempo, 463320
1, 134400, Note_on_c, 0, 51, 0
1, 134400, Note_on_c, 0, 36, 0
1, 134400, Note_on_c, 0, 55, 50
1, 134400, Note_on_c, 0, 31, 41
1, 134400, Note_on_c, 0, 43, 49
1, 134460, Tempo, 461538
1, 134513, Control_c, 0, 64, 127
1, 134520, Tempo, 459770
1, 134520, Note_on_c, 0, 55, 0
1, 134520, Note_on_c, 0, 62, 51
1, 134560, Tempo, 458015
1, 134620, Tempo, 456274
1, 134640, Note_on_c, 0, 62, 0
1, 134640, Note_on_c, 0, 58, 52
1, 134660, Tempo, 454545
1, 134720, Tempo, 452830
1, 134760, Tempo, 451128
1, 134760, Note_on_c, 0, 58, 0
1, 134760, Note_on_c, 0, 62, 53
1, 134820, Tempo, 449438
1, 134880, Tempo, 447761
1, 134880, Note_on_c, 0, 62, 0
1, 134880, Note_on_c, 0, 67, 55
1, 134920, Tempo, 446097
1, 134980, Tempo, 444444
1, 135000, Note_on_c, 0, 67, 0
1, 135000, Note_on_c, 0, 70, 56
1, 135020, Tempo, 442804
1, 135080, Tempo, 441176
1, 135120, Tempo, 439560
1, 135120, Note_on_c, 0, 70, 0
1, 135120, Note_on_c, 0, 43, 0
1, 135120, Note_on_c, 0, 31, 0
1, 135120, Note_on_c, 0, 74, 57
1, 135180, Tempo, 441176
1, 135220, Tempo, 442804
1, 135240, Note_on_c, 0, 74, 0
1, 135240, Note_on_c, 0, 79, 58
1, 135260, Tempo, 444444
1, 135320, Tempo, 446097
1, 135360, Tempo, 447761
1, 135360, Note_on_c, 0, 79, 0
1, 135360, Note_on_c, 0, 82, 59
1, 135360, Note_on_c, 0, 62, 48
1, 135360, Note_on_c, 0, 67, 57
1, 135400, Tempo, 449438
1, 135460, Tempo, 451128
1, 135480, Note_on_c, 0, 82, 0
1, 135480, Note_on_c, 0, 86, 61
1, 135500, Tempo, 452830
1, 135540, Tempo, 454545
1, 135580, Tempo, 456274
1, 135580, Note_on_c, 0, 67, 0
1, 135580, Note_on_c, 0, 62, 0
1, 135600, Tempo, 474308
1, 135600, Note_on_c, 0, 86, 0
1, 135600, Note_on_c, 0, 91, 62
1, 135600, Note_on_c, 0, 62, 53
1, 135600, Note_on_c, 0, 55, 45
1, 135720, Note_on_c, 0, 91, 0
1, 135720, Note_on_c, 0, 98, 63
1, 135820, Note_on_c, 0, 55, 0
1, 135820, Note_on_c, 0, 62, 0
1, 135840, Tempo, 469410
1, 135840, Note_on_c, 0, 98, 0
1, 135840, Note_on_c, 0, 94, 63
1, 135840, Note_on_c, 0, 62, 48
1, 135840, Note_on_c, 0, 67, 57
1, 135860, Tempo, 466926
1, 135920, Tempo, 465116
1, 135960, Note_on_c, 0, 94, 0
1, 135960, Note_on_c, 0, 98, 60
1, 135980, Tempo, 463320
1, 136040, Tempo, 461538
1, 136080, Note_on_c, 0, 98, 0
1, 136080, Note_on_c, 0, 91, 59
1, 136100, Tempo, 459770
1, 136160, Tempo, 458015
1, 136200, Note_on_c, 0, 91, 0
1, 136200, Note_on_c, 0, 86, 58
1, 136220, Tempo, 456274
1, 136280, Tempo, 454545
1, 136320, Note_on_c, 0, 86, 0
1, 136320, Note_on_c, 0, 67, 0
1, 136320, Note_on_c, 0, 62, 0
1, 136320, Note_on_c, 0, 82, 58
1, 136340, Tempo, 452830
1, 136400, Tempo, 451128
1, 136440, Note_on_c, 0, 82, 0
1, 136440, Note_on_c, 0, 79, 57
1, 136460, Tempo, 449438
1, 136520, Tempo, 447761
1, 136560, Tempo, 446097
1, 136560, Note_on_c, 0, 79, 0
1, 136560, Note_on_c, 0, 74, 56
1, 136620, Tempo, 447761
1, 136660, Tempo, 449438
1, 136680, Note_on_c, 0, 74, 0
1, 136680, Note_on_c, 0, 70, 56
1, 136720, Tempo, 451128
1, 136760, Tempo, 452830
1, 136800, Tempo, 454545
1, 136800, Note_on_c, 0, 70, 0
1, 136800, Note_on_c, 0, 67, 55
1, 136860, Tempo, 456274
1, 136900, Tempo, 458015
1, 136920, Note_on_c, 0, 67, 0
1, 136920, Note_on_c, 0, 62, 54
1, 136960, Tempo, 459770
1, 137000, Tempo, 461538
1, 137040, Tempo, 495868
1, 137040, Note_on_c, 0, 62, 0
1, 137040, Note_on_c, 0, 58, 53
1, 137040, Note_on_c, 0, 38, 49
1, 137054, Control_c, 0, 64, 0
1, 137160, Note_on_c, 0, 58, 0
1, 137160, Note_on_c, 0, 50, 53
1, 137160, Control_c, 0, 64, 127
1, 137280, Note_on_c, 0, 50, 0
1, 137280, Note_on_c, 0, 38, 0
1, 137280, Note_on_c, 0, 55, 49
1, 137280, Note_on_c, 0, 31, 44
1, 137280, Note_on_c, 0, 43, 52
1, 137294, Control_c, 0, 64, 0
1, 137300, Tempo, 476417
1, 137351, Control_c, 0, 64, 127
1, 137360, Tempo, 474646
1, 137400, Note_on_c, 0, 55, 0
1, 137400, Note_on_c, 0, 62, 50
1, 137420, Tempo, 472888
1, 137480, Tempo, 471143
1, 137520, Note_on_c, 0, 62, 0
1, 137520, Note_on_c, 0, 58, 52
1, 137540, Tempo, 469410
1, 137600, Tempo, 467727
1, 137640, Tempo, 466019
1, 137640, Note_on_c, 0, 58, 0
1, 137640, Note_on_c, 0, 62, 54
1, 137700, Tempo, 464324
1, 137760, Tempo, 462642
1, 137760, Note_on_c, 0, 62, 0
1, 137760, Note_on_c, 0, 67, 55
1, 137820, Tempo, 460971
1, 137880, Tempo, 459348
1, 137880, Note_on_c, 0, 67, 0
1, 137880, Note_on_c, 0, 74, 57
1, 137920, Tempo, 457701
1, 137980, Tempo, 459348
1, 138000, Tempo, 459348
1, 138000, Note_on_c, 0, 74, 0
1, 138000, Note_on_c, 0, 70, 57
1, 138020, Tempo, 460971
1, 138040, Tempo, 462642
1, 138060, Tempo, 466019
1, 138080, Tempo, 467727
1, 138100, Tempo, 469410
1, 138120, Tempo, 472888
1, 138120, Note_on_c, 0, 70, 0
1, 138120, Note_on_c, 0, 74, 56
1, 138140, Tempo, 474646
1, 138160, Tempo, 476417
1, 138180, Tempo, 479962
1, 138200, Tempo, 481773
1, 138220, Tempo, 483598
1, 138240, Tempo, 487290
1, 138240, Note_on_c, 0, 74, 0
1, 138240, Note_on_c, 0, 67, 54
1, 138260, Tempo, 489157
1, 138280, Tempo, 490998
1, 138300, Tempo, 494805
1, 138320, Tempo, 496730
1, 138340, Tempo, 498670
1, 138360, Tempo, 502555
1, 138360, Note_on_c, 0, 67, 0
1, 138360, Note_on_c, 0, 62, 53
1, 138380, Tempo, 504541
1, 138400, Tempo, 506543
1, 138420, Tempo, 510595
1, 138440, Tempo, 512601
1, 138460, Tempo, 516751
1, 138480, Tempo, 517241
1, 138480, Note_on_c, 0, 62, 0
1, 138480, Note_on_c, 0, 43, 0
1, 138480, Note_on_c, 0, 31, 0
1, 138480, Note_on_c, 0, 58, 51
1, 138480, Note_on_c, 0, 38, 47
1, 138496, Control_c, 0, 64, 0
1, 138579, Control_c, 0, 64, 127
1, 138600, Note_on_c, 0, 58, 0
1, 138600, Note_on_c, 0, 50, 49
1, 138720, Tempo, 481773
1, 138720, Note_on_c, 0, 50, 0
1, 138720, Note_on_c, 0, 38, 0
1, 138720, Note_on_c, 0, 54, 49
1, 138720, Note_on_c, 0, 30, 44
1, 138720, Note_on_c, 0, 42, 52
1, 138731, Control_c, 0, 64, 0
1, 138780, Tempo, 479962
1, 138812, Control_c, 0, 64, 127
1, 138840, Tempo, 478202
1, 138840, Note_on_c, 0, 54, 0
1, 138840, Note_on_c, 0, 62, 50
1, 138880, Tempo, 476417
1, 138940, Tempo, 474646
1, 138960, Note_on_c, 0, 62, 0
1, 138960, Note_on_c, 0, 58, 52
1, 139000, Tempo, 472888
1, 139040, Tempo, 471143
1, 139080, Note_on_c, 0, 58, 0
1, 139080, Note_on_c, 0, 62, 54
1, 139100, Tempo, 469410
1, 139160, Tempo, 467727
1, 139200, Tempo, 464324
1, 139200, Note_on_c, 0, 62, 0
1, 139200, Note_on_c, 0, 66, 55
1, 139220, Tempo, 467727
1, 139260, Tempo, 469410
1, 139280, Tempo, 471143
1, 139320, Tempo, 472888
1, 139320, Note_on_c, 0, 66, 0
1, 139320, Note_on_c, 0, 74, 57
1, 139340, Tempo, 474646
1, 139380, Tempo, 476417
1, 139400, Tempo, 478202
1, 139440, Tempo, 479962
1, 139440, Note_on_c, 0, 74, 0
1, 139440, Note_on_c, 0, 70, 57
1, 139460, Tempo, 481773
1, 139500, Tempo, 483598
1, 139520, Tempo, 485437
1, 139560, Tempo, 487290
1, 139560, Note_on_c, 0, 70, 0
1, 139560, Note_on_c, 0, 74, 56
1, 139580, Tempo, 489157
1, 139620, Tempo, 490998
1, 139640, Tempo, 492894
1, 139680, Tempo, 494805
1, 139680, Note_on_c, 0, 74, 0
1, 139680, Note_on_c, 0, 66, 54
1, 139700, Tempo, 496730
1, 139740, Tempo, 498670
1, 139760, Tempo, 500584
1, 139800, Tempo, 502555
1, 139800, Note_on_c, 0, 66, 0
1, 139800, Note_on_c, 0, 62, 53
1, 139820, Tempo, 504541
1, 139860, Tempo, 506543
1, 139880, Tempo, 508561
1, 139900, Tempo, 510595
1, 139920, Tempo, 519481
1, 139920, Note_on_c, 0, 62, 0
1, 139920, Note_on_c, 0, 42, 0
1, 139920, Note_on_c, 0, 30, 0
1, 139920, Note_on_c, 0, 58, 51
1, 139920, Note_on_c, 0, 38, 47
1, 139936, Control_c, 0, 64, 0
1, 140000, Control_c, 0, 64, 127
1, 140040, Note_on_c, 0, 58, 0
1, 140040, Note_on_c, 0, 50, 49
1, 140160, Tempo, 474646
1, 140160, Note_on_c, 0, 50, 0
1, 140160, Note_on_c, 0, 38, 0
1, 140160, Note_on_c, 0, 55, 50
1, 140160, Note_on_c, 0, 43, 49
1, 140160, Note_on_c, 0, 31, 41
1, 140168, Control_c, 0, 64, 0
1, 140180, Tempo, 471143
1, 140260, Tempo, 469410
1, 140266, Control_c, 0, 64, 127
1, 140280, Note_on_c, 0, 55, 0
1, 140280, Note_on_c, 0, 62, 51
1, 140320, Tempo, 467727
1, 140400, Tempo, 466019
1, 140400, Note_on_c, 0, 62, 0
1, 140400, Note_on_c, 0, 58, 52
1, 140460, Tempo, 464324
1, 140520, Tempo, 462642
1, 140520, Note_on_c, 0, 58, 0
1, 140520, Note_on_c, 0, 62, 53
1, 140600, Tempo, 460971
1, 140640, Note_on_c, 0, 62, 0
1, 140640, Note_on_c, 0, 67, 55
1, 140660, Tempo, 459348
1, 140740, Tempo, 457701
1, 140760, Note_on_c, 0, 67, 0
1, 140760, Note_on_c, 0, 70, 56
1, 140800, Tempo, 456066
1, 140860, Tempo, 451230
1, 140880, Note_on_c, 0, 70, 0
1, 140880, Note_on_c, 0, 31, 0
1, 140880, Note_on_c, 0, 43, 0
1, 140880, Note_on_c, 0, 74, 57
1, 140920, Tempo, 452830
1, 140980, Tempo, 454442
1, 141000, Note_on_c, 0, 74, 0
1, 141000, Note_on_c, 0, 79, 58
1, 141040, Tempo, 456066
1, 141100, Tempo, 457701
1, 141120, Note_on_c, 0, 79, 0
1, 141120, Note_on_c, 0, 82, 59
1, 141120, Note_on_c, 0, 55, 57
1, 141120, Note_on_c, 0, 50, 48
1, 141140, Tempo, 459348
1, 141200, Tempo, 460971
1, 141240, Note_on_c, 0, 82, 0
1, 141240, Note_on_c, 0, 86, 61
1, 141260, Tempo, 462642
1, 141320, Tempo, 464324
1, 141340, Note_on_c, 0, 50, 0
1, 141340, Note_on_c, 0, 55, 0
1, 141360, Tempo, 478202
1, 141360, Note_on_c, 0, 86, 0
1, 141360, Note_on_c, 0, 91, 62
1, 141360, Note_on_c, 0, 43, 45
1, 141360, Note_on_c, 0, 50, 53
1, 141480, Note_on_c, 0, 91, 0
1, 141480, Note_on_c, 0, 98, 63
1, 141580, Note_on_c, 0, 50, 0
1, 141580, Note_on_c, 0, 43, 0
1, 141600, Tempo, 469410
1, 141600, Note_on_c, 0, 98, 0
1, 141600, Note_on_c, 0, 94, 63
1, 141600, Note_on_c, 0, 50, 48
1, 141600, Note_on_c, 0, 55, 57
1, 141680, Tempo, 467727
1, 141720, Note_on_c, 0, 94, 0
1, 141720, Note_on_c, 0, 98, 60
1, 141760, Tempo, 466019
1, 141840, Tempo, 464324
1, 141840, Note_on_c, 0, 98, 0
1, 141840, Note_on_c, 0, 91, 59
1, 141920, Tempo, 462642
1, 141960, Note_on_c, 0, 91, 0
1, 141960, Note_on_c, 0, 86, 58
1, 141980, Tempo, 460971
1, 142060, Tempo, 459348
1, 142080, Note_on_c, 0, 86, 0
1, 142080, Note_on_c, 0, 55, 0
1, 142080, Note_on_c, 0, 50, 0
1, 142080, Note_on_c, 0, 82, 58
1, 142140, Tempo, 457701
1, 142200, Note_on_c, 0, 82, 0
1, 142200, Note_on_c, 0, 79, 57
1, 142220, Tempo, 456066
1, 142280, Tempo, 454442
1, 142300, Tempo, 456066
1, 142320, Note_on_c, 0, 79, 0
1, 142320, Note_on_c, 0, 74, 56
1, 142340, Tempo, 457701
1, 142360, Tempo, 459348
1, 142380, Tempo, 460971
1, 142400, Tempo, 462642
1, 142420, Tempo, 464324
1, 142440, Tempo, 466019
1, 142440, Note_on_c, 0, 74, 0
1, 142440, Note_on_c, 0, 70, 56
1, 142460, Tempo, 467727
1, 142480, Tempo, 469410
1, 142500, Tempo, 471143
1, 142520, Tempo, 472888
1, 142540, Tempo, 474646
1, 142560, Tempo, 476417
1, 142560, Note_on_c, 0, 70, 0
1, 142560, Note_on_c, 0, 67, 55
1, 142580, Tempo, 478202
1, 142600, Tempo, 479962
1, 142620, Tempo, 481773
1, 142640, Tempo, 483598
1, 142660, Tempo, 485437
1, 142680, Tempo, 487290
1, 142680, Note_on_c, 0, 67, 0
1, 142680, Note_on_c, 0, 62, 54
1, 142700, Tempo, 489157
1, 142720, Tempo, 490998
1, 142740, Tempo, 492894
1, 142760, Tempo, 494805
1, 142780, Tempo, 464324
1, 142800, Tempo, 533998
1, 142800, Note_on_c, 0, 62, 0
1, 142800, Note_on_c, 0, 58, 53
1, 142800, Note_on_c, 0, 38, 49
1, 142815, Control_c, 0, 64, 0
1, 142920, Note_on_c, 0, 58, 0
1, 142920, Note_on_c, 0, 50, 53
1, 142934, Control_c, 0, 64, 127
1, 143040, Tempo, 494805
1, 143040, Note_on_c, 0, 50, 0
1, 143040, Note_on_c, 0, 38, 0
1, 143040, Note_on_c, 0, 54, 49
1, 143040, Note_on_c, 0, 42, 52
1, 143040, Note_on_c, 0, 30, 44
1, 143049, Control_c, 0, 64, 0
1, 143100, Tempo, 492894
1, 143140, Tempo, 490998
1, 143143, Control_c, 0, 64, 127
1, 143160, Note_on_c, 0, 54, 0
1, 143160, Note_on_c, 0, 62, 50
1, 143180, Tempo, 489157
1, 143220, Tempo, 487290
1, 143280, Tempo, 485437
1, 143280, Note_on_c, 0, 62, 0
1, 143280, Note_on_c, 0, 58, 52
1, 143320, Tempo, 483598
1, 143360, Tempo, 481773
1, 143400, Tempo, 479962
1, 143400, Note_on_c, 0, 58, 0
1, 143400, Note_on_c, 0, 62, 54
1, 143460, Tempo, 478202
1, 143500, Tempo, 476417
1, 143520, Note_on_c, 0, 62, 0
1, 143520, Note_on_c, 0, 66, 55
1, 143540, Tempo, 474646
1, 143580, Tempo, 472888
1, 143640, Tempo, 471143
1, 143640, Note_on_c, 0, 66, 0
1, 143640, Note_on_c, 0, 74, 57
1, 143680, Tempo, 469410
1, 143720, Tempo, 467727
1, 143760, Tempo, 467727
1, 143760, Note_on_c, 0, 74, 0
1, 143760, Note_on_c, 0, 70, 57
1, 143780, Tempo, 469410
1, 143800, Tempo, 471143
1, 143820, Tempo, 472888
1, 143840, Tempo, 474646
1, 143860, Tempo, 476417
1, 143880, Tempo, 478202
1, 143880, Note_on_c, 0, 70, 0
1, 143880, Note_on_c, 0, 74, 56
1, 143900, Tempo, 479962
1, 143920, Tempo, 481773
1, 143940, Tempo, 483598
1, 143960, Tempo, 485437
1, 143980, Tempo, 487290
1, 144000, Tempo, 489157
1, 144000, Note_on_c, 0, 74, 0
1, 144000, Note_on_c, 0, 66, 54
1, 144020, Tempo, 490998
1, 144040, Tempo, 492894
1, 144060, Tempo, 494805
1, 144080, Tempo, 496730
1, 144100, Tempo, 498670
1, 144120, Tempo, 500584
1, 144120, Note_on_c, 0, 66, 0
1, 144120, Note_on_c, 0, 62, 53
1, 144140, Tempo, 502555
1, 144160, Tempo, 504541
1, 144180, Tempo, 506543
1, 144200, Tempo, 508561
1, 144220, Tempo, 512601
1, 144240, Tempo, 572137
1, 144240, Note_on_c, 0, 62, 0
1, 144240, Note_on_c, 0, 30, 0
1, 144240, Note_on_c, 0, 42, 0
1, 144240, Note_on_c, 0, 58, 51
1, 144240, Note_on_c, 0, 38, 47
1, 144253, Control_c, 0, 64, 0
1, 144332, Control_c, 0, 64, 127
1, 144360, Note_on_c, 0, 58, 0
1, 144360, Note_on_c, 0, 50, 49
1, 144480, Tempo, 518852
1, 144480, Note_on_c, 0, 50, 0
1, 144480, Note_on_c, 0, 38, 0
1, 144480, Note_on_c, 0, 53, 49
1, 144480, Note_on_c, 0, 41, 52
1, 144480, Note_on_c, 0, 29, 44
1, 144495, Control_c, 0, 64, 0
1, 144520, Tempo, 516751
1, 144560, Tempo, 514668
1, 144600, Tempo, 512601
1, 144600, Note_on_c, 0, 53, 0
1, 144600, Note_on_c, 0, 62, 50
1, 144614, Control_c, 0, 64, 127
1, 144640, Tempo, 510595
1, 144680, Tempo, 508561
1, 144720, Tempo, 506543
1, 144720, Note_on_c, 0, 62, 0
1, 144720, Note_on_c, 0, 58, 52
1, 144740, Tempo, 504541
1, 144780, Tempo, 502555
1, 144820, Tempo, 500584
1, 144840, Note_on_c, 0, 58, 0
1, 144840, Note_on_c, 0, 62, 54
1, 144860, Tempo, 498670
1, 144900, Tempo, 496730
1, 144940, Tempo, 494805
1, 144960, Tempo, 492894
1, 144960, Note_on_c, 0, 62, 0
1, 144960, Note_on_c, 0, 65, 55
1, 145000, Tempo, 494805
1, 145040, Tempo, 496730
1, 145080, Tempo, 498670
1, 145080, Note_on_c, 0, 65, 0
1, 145080, Note_on_c, 0, 74, 57
1, 145100, Tempo, 500584
1, 145140, Tempo, 502555
1, 145180, Tempo, 504541
1, 145200, Note_on_c, 0, 74, 0
1, 145200, Note_on_c, 0, 70, 57
1, 145220, Tempo, 506543
1, 145240, Tempo, 508561
1, 145280, Tempo, 510595
1, 145320, Tempo, 512601
1, 145320, Note_on_c, 0, 70, 0
1, 145320, Note_on_c, 0, 74, 56
1, 145360, Tempo, 514668
1, 145380, Tempo, 516751
1, 145420, Tempo, 518852
1, 145440, Note_on_c, 0, 74, 0
1, 145440, Note_on_c, 0, 65, 54
1, 145460, Tempo, 520969
1, 145500, Tempo, 523058
1, 145520, Tempo, 525210
1, 145560, Tempo, 527380
1, 145560, Note_on_c, 0, 65, 0
1, 145560, Note_on_c, 0, 62, 53
1, 145600, Tempo, 529568
1, 145640, Tempo, 531773
1, 145660, Tempo, 533998
1, 145680, Tempo, 628206
1, 145680, Note_on_c, 0, 62, 0
1, 145680, Note_on_c, 0, 41, 0
1, 145680, Note_on_c, 0, 58, 51
1, 145680, Note_on_c, 0, 43, 47
1, 145696, Control_c, 0, 64, 0
1, 145800, Note_on_c, 0, 58, 0
1, 145800, Note_on_c, 0, 50, 49
1, 145800, Control_c, 0, 64, 127
1, 145900, Tempo, 547645
1, 145920, Note_on_c, 0, 50, 0
1, 145920, Note_on_c, 0, 43, 0
1, 145920, Note_on_c, 0, 53, 50
1, 145920, Note_on_c, 0, 45, 49
1, 145935, Control_c, 0, 64, 0
1, 146000, Tempo, 545355
1, 146033, Control_c, 0, 64, 127
1, 146040, Note_on_c, 0, 53, 0
1, 146040, Note_on_c, 0, 60, 51
1, 146080, Tempo, 543036
1, 146160, Tempo, 540735
1, 146160, Note_on_c, 0, 60, 0
1, 146160, Note_on_c, 0, 57, 52
1, 146240, Tempo, 538455
1, 146280, Note_on_c, 0, 57, 0
1, 146280, Note_on_c, 0, 60, 53
1, 146340, Tempo, 536193
1, 146400, Note_on_c, 0, 60, 0
1, 146400, Note_on_c, 0, 45, 0
1, 146400, Note_on_c, 0, 29, 0
1, 146400, Note_on_c, 0, 65, 55
1, 146420, Tempo, 533998
1, 146500, Tempo, 531773
1, 146520, Note_on_c, 0, 65, 0
1, 146520, Note_on_c, 0, 69, 56
1, 146580, Tempo, 529568
1, 146640, Note_on_c, 0, 69, 0
1, 146640, Note_on_c, 0, 72, 57
1, 146660, Tempo, 527380
1, 146680, Tempo, 529568
1, 146700, Tempo, 531773
1, 146720, Tempo, 536193
1, 146740, Tempo, 538455
1, 146760, Tempo, 540735
1, 146760, Note_on_c, 0, 72, 0
1, 146760, Note_on_c, 0, 77, 58
1, 146780, Tempo, 545355
1, 146800, Tempo, 547645
1, 146820, Tempo, 550005
1, 146840, Tempo, 554785
1, 146860, Tempo, 557207
1, 146880, Tempo, 559649
1, 146880, Note_on_c, 0, 77, 0
1, 146880, Note_on_c, 0, 81, 59
1, 146880, Note_on_c, 0, 60, 44
1, 146880, Note_on_c, 0, 65, 52
1, 146900, Tempo, 564546
1, 146920, Tempo, 567054
1, 146940, Tempo, 569584
1, 146960, Tempo, 574713
1, 146980, Tempo, 577256
1, 147000, Tempo, 579878
1, 147000, Note_on_c, 0, 81, 0
1, 147000, Note_on_c, 0, 84, 61
1, 147020, Tempo, 585195
1, 147040, Tempo, 587889
1, 147060, Tempo, 590551
1, 147080, Tempo, 596066
1, 147100, Tempo, 598862
1, 147100, Note_on_c, 0, 65, 0
1, 147100, Note_on_c, 0, 60, 0
1, 147120, Tempo, 604534
1, 147120, Note_on_c, 0, 84, 0
1, 147120, Note_on_c, 0, 89, 62
1, 147120, Note_on_c, 0, 60, 44
1, 147120, Note_on_c, 0, 53, 36
1, 147240, Note_on_c, 0, 89, 0
1, 147240, Note_on_c, 0, 93, 63
1, 147340, Note_on_c, 0, 53, 0
1, 147340, Note_on_c, 0, 60, 0
1, 147360, Tempo, 542986
1, 147360, Note_on_c, 0, 93, 0
1, 147360, Note_on_c, 0, 101, 63
1, 147360, Note_on_c, 0, 65, 52
1, 147360, Note_on_c, 0, 60, 44
1, 147600, Note_on_c, 0, 101, 0
1, 148560, Tempo, 655738
1, 148560, Note_on_c, 0, 60, 0
1, 148560, Note_on_c, 0, 65, 0
1, 148560, Note_on_c, 0, 53, 35
1, 148560, Note_on_c, 0, 60, 41
1, 148800, Note_on_c, 0, 60, 0
1, 148800, Note_on_c, 0, 53, 0
1, 148800, Note_on_c, 0, 65, 46
1, 148800, Note_on_c, 0, 60, 39
1, 148940, Tempo, 621762
1, 149020, Tempo, 618557
1, 149040, Tempo, 641711
1, 149080, Tempo, 645161
1, 149120, Tempo, 648649
1, 149160, Tempo, 652174
1, 149200, Tempo, 655738
1, 149240, Tempo, 659341
1, 149280, Tempo, 662983
1, 149320, Tempo, 666667
1, 149360, Tempo, 670391
1, 149400, Tempo, 674157
1, 149440, Tempo, 677966
1, 149480, Tempo, 681818
1, 149520, Tempo, 685714
1, 149560, Tempo, 689655
1, 149600, Tempo, 693642
1, 149640, Tempo, 697674
1, 149680, Tempo, 701754
1, 149700, Tempo, 705882
1, 149740, Tempo, 710059
1, 149780, Tempo, 714286
1, 149820, Tempo, 718563
1, 149860, Tempo, 722892
1, 149900, Tempo, 727273
1, 149940, Tempo, 731707
1, 149980, Tempo, 736196
1, 150000, Note_on_c, 0, 60, 0
1, 150000, Note_on_c, 0, 65, 0
1, 150000, Note_on_c, 0, 53, 31
1, 150000, Note_on_c, 0, 60, 36
1, 150020, Tempo, 740741
1, 150060, Tempo, 745342
1, 150100, Tempo, 750000
1, 150140, Tempo, 754717
1, 150180, Tempo, 759494
1, 150220, Tempo, 764331
1, 150240, Note_on_c, 0, 60, 0
1, 150240, Note_on_c, 0, 53, 0
1, 150240, Note_on_c, 0, 60, 34
1, 150240, Note_on_c, 0, 65, 40
1, 150260, Tempo, 769231
1, 150300, Tempo, 774194
1, 150340, Tempo, 779221
1, 150360, Tempo, 784314
1, 150400, Tempo, 789474
1, 150440, Tempo, 794702
1, 150480, Tempo, 800000
1, 150520, Tempo, 805369
1, 150560, Tempo, 810811
1, 150600, Tempo, 816327
1, 150640, Tempo, 821918
1, 150680, Tempo, 827586
1, 150720, Tempo, 833333
1, 150720, Note_on_c, 0, 65, 0
1, 150720, Note_on_c, 0, 60, 0
1, 150720, Note_on_c, 0, 53, 28
1, 150720, Note_on_c, 0, 60, 34
1, 150760, Tempo, 839161
1, 150800, Tempo, 845070
1, 150840, Tempo, 851064
1, 150880, Tempo, 857143
1, 150920, Tempo, 863309
1, 150960, Tempo, 869565
1, 150960, Note_on_c, 0, 60, 0
1, 150960, Note_on_c, 0, 53, 0
1, 150960, Note_on_c, 0, 65, 37
1, 150960, Note_on_c, 0, 60, 31
1, 151000, Tempo, 875912
1, 151020, Tempo, 882353
1, 151060, Tempo, 888889
1, 151100, Tempo, 895522
1, 151140, Tempo, 902256
1, 151180, Tempo, 909091
1, 151200, Note_on_c, 0, 60, 0
1, 151200, Note_on_c, 0, 65, 0
1, 151200, Note_on_c, 0, 53, 30
1, 151200, Note_on_c, 0, 60, 36
1, 151220, Tempo, 916031
1, 151260, Tempo, 923077
1, 151300, Tempo, 930233
1, 151340, Tempo, 937500
1, 151380, Tempo, 944882
1, 151420, Tempo, 952381
1, 151430, Note_on_c, 0, 60, 0
1, 151430, Note_on_c, 0, 53, 0
1, 151440, Note_on_c, 0, 60, 30
1, 151440, Note_on_c, 0, 65, 36
1, 151455, Control_c, 0, 64, 0
1, 151460, Tempo, 960000
1, 151500, Tempo, 967742
1, 151540, Tempo, 975610
1, 151580, Tempo, 983607
1, 151620, Tempo, 991736
1, 151640, Tempo, 1000000
1, 151660, Tempo, 923077
1, 151680, Time_signature, 6, 2, 24, 8
1, 151680, Tempo, 474834
1, 151680, Marker_t, "meno mosso"
1, 151680, Note_on_c, 0, 34, 36
1, 151794, Control_c, 0, 64, 127
1, 152160, Tempo, 412740
1, 152160, Note_on_c, 0, 34, 0
1, 152160, Note_on_c, 0, 46, 29
1, 152640, Note_on_c, 0, 46, 0
1, 152640, Note_on_c, 0, 56, 29
1, 153120, Tempo, 402928
1, 153120, Note_on_c, 0, 56, 0
1, 153120, Note_on_c, 0, 65, 0
1, 153120, Note_on_c, 0, 60, 0
1, 153120, Note_on_c, 0, 62, 34
1, 153120, Note_on_c, 0, 67, 42
1, 153120, Note_on_c, 0, 53, 31
1, 153133, Control_c, 0, 64, 0
1, 153486, Control_c, 0, 64, 127
1, 153600, Tempo, 390650
1, 153600, Note_on_c, 0, 53, 0
1, 153600, Note_on_c, 0, 60, 31
1, 154080, Tempo, 395335
1, 154080, Note_on_c, 0, 60, 0
1, 154080, Note_on_c, 0, 67, 0
1, 154080, Note_on_c, 0, 67, 37
1, 154080, Note_on_c, 0, 58, 31
1, 154560, Note_on_c, 0, 58, 0
1, 154560, Note_on_c, 0, 67, 0
1, 154560, Note_on_c, 0, 62, 0
1, 154560, Note_on_c, 0, 63, 42
1, 154560, Note_on_c, 0, 39, 36
1, 154569, Control_c, 0, 64, 0
1, 154843, Control_c, 0, 64, 127
1, 155040, Tempo, 388023
1, 155040, Note_on_c, 0, 39, 0
1, 155040, Note_on_c, 0, 46, 27
1, 155520, Note_on_c, 0, 46, 0
1, 155520, Note_on_c, 0, 51, 26
1, 156000, Tempo, 384246
1, 156000, Note_on_c, 0, 51, 0
1, 156000, Note_on_c, 0, 55, 32
1, 156480, Tempo, 379579
1, 156480, Note_on_c, 0, 55, 0
1, 156480, Note_on_c, 0, 63, 0
1, 156480, Note_on_c, 0, 75, 50
1, 156480, Note_on_c, 0, 58, 31
1, 156960, Tempo, 398327
1, 156960, Note_on_c, 0, 58, 0
1, 156960, Note_on_c, 0, 63, 31
1, 157200, Tempo, 414022
1, 157200, Note_on_c, 0, 75, 0
1, 157200, Note_on_c, 0, 74, 40
1, 157440, Tempo, 395335
1, 157440, Note_on_c, 0, 74, 0
1, 157440, Note_on_c, 0, 63, 0
1, 157440, Note_on_c, 0, 67, 33
1, 157440, Note_on_c, 0, 72, 49
1, 157440, Note_on_c, 0, 60, 33
1, 157449, Control_c, 0, 64, 0
1, 157787, Control_c, 0, 64, 127
1, 157920, Tempo, 389459
1, 157920, Note_on_c, 0, 60, 0
1, 157920, Note_on_c, 0, 63, 30
1, 158400, Tempo, 382677
1, 158400, Note_on_c, 0, 63, 0
1, 158400, Note_on_c, 0, 53, 25
1, 158880, Tempo, 401365
1, 158880, Note_on_c, 0, 53, 0
1, 158880, Note_on_c, 0, 72, 0
1, 158880, Note_on_c, 0, 67, 0
1, 158880, Note_on_c, 0, 74, 48
1, 158880, Note_on_c, 0, 69, 37
1, 158880, Note_on_c, 0, 63, 33
1, 158893, Control_c, 0, 64, 0
1, 159227, Control_c, 0, 64, 127
1, 159360, Tempo, 385827
1, 159360, Note_on_c, 0, 63, 0
1, 159360, Note_on_c, 0, 67, 30
1, 159480, Tempo, 384246
1, 159840, Tempo, 402928
1, 159840, Note_on_c, 0, 67, 0
1, 159840, Note_on_c, 0, 74, 0
1, 159840, Note_on_c, 0, 74, 37
1, 159840, Note_on_c, 0, 65, 30
1, 160320, Note_on_c, 0, 65, 0
1, 160320, Note_on_c, 0, 74, 0
1, 160320, Note_on_c, 0, 69, 0
1, 160320, Note_on_c, 0, 70, 40
1, 160320, Note_on_c, 0, 46, 36
1, 160320, Control_c, 0, 64, 0
1, 160587, Control_c, 0, 64, 127
1, 160800, Tempo, 393882
1, 160800, Note_on_c, 0, 46, 0
1, 160800, Note_on_c, 0, 53, 29
1, 161280, Note_on_c, 0, 53, 0
1, 161280, Note_on_c, 0, 58, 29
1, 161760, Note_on_c, 0, 58, 0
1, 161760, Note_on_c, 0, 70, 0
1, 161760, Note_on_c, 0, 82, 60
1, 161760, Note_on_c, 0, 62, 32
1, 162240, Tempo, 390905
1, 162240, Note_on_c, 0, 62, 0
1, 162240, Note_on_c, 0, 65, 32
1, 162360, Tempo, 385827
1, 162720, Tempo, 413024
1, 162720, Note_on_c, 0, 65, 0
1, 162720, Note_on_c, 0, 82, 0
1, 162720, Note_on_c, 0, 82, 56
1, 162720, Note_on_c, 0, 70, 32
1, 163200, Tempo, 396825
1, 163200, Note_on_c, 0, 70, 0
1, 163200, Note_on_c, 0, 82, 0
1, 163200, Note_on_c, 0, 82, 59
1, 163200, Note_on_c, 0, 60, 36
1, 163200, Control_c, 0, 64, 0
1, 163406, Control_c, 0, 64, 127
1, 163680, Tempo, 389029
1, 163680, Note_on_c, 0, 60, 0
1, 163680, Note_on_c, 0, 63, 30
1, 164160, Tempo, 407553
1, 164160, Note_on_c, 0, 63, 0
1, 164160, Note_on_c, 0, 82, 0
1, 164160, Note_on_c, 0, 80, 55
1, 164160, Note_on_c, 0, 53, 30
1, 164173, Control_c, 0, 64, 0
1, 164614, Note_on_c, 0, 80, 0
1, 164640, Tempo, 384246
1, 164640, Note_on_c, 0, 53, 0
1, 164640, Note_on_c, 0, 80, 59
1, 164640, Note_on_c, 0, 58, 33
1, 164760, Tempo, 379579
1, 164869, Control_c, 0, 64, 127
1, 165120, Note_on_c, 0, 58, 0
1, 165120, Note_on_c, 0, 80, 0
1, 165120, Note_on_c, 0, 79, 56
1, 165120, Note_on_c, 0, 62, 26
1, 165240, Tempo, 390650
1, 165600, Tempo, 414852
1, 165600, Note_on_c, 0, 62, 0
1, 165600, Note_on_c, 0, 79, 0
1, 165600, Note_on_c, 0, 78, 55
1, 165600, Note_on_c, 0, 68, 28
1, 166060, Note_on_c, 0, 78, 0
1, 166080, Tempo, 395335
1, 166080, Note_on_c, 0, 68, 0
1, 166080, Note_on_c, 0, 78, 58
1, 166080, Note_on_c, 0, 58, 36
1, 166088, Control_c, 0, 64, 0
1, 166377, Control_c, 0, 64, 127
1, 166560, Note_on_c, 0, 58, 0
1, 166560, Note_on_c, 0, 62, 29
1, 167040, Note_on_c, 0, 62, 0
1, 167040, Note_on_c, 0, 78, 0
1, 167040, Note_on_c, 0, 79, 56
1, 167040, Note_on_c, 0, 51, 29
1, 167520, Tempo, 406009
1, 167520, Note_on_c, 0, 51, 0
1, 167520, Note_on_c, 0, 56, 28
1, 167534, Control_c, 0, 64, 0
1, 167704, Control_c, 0, 64, 127
1, 168000, Tempo, 393882
1, 168000, Note_on_c, 0, 56, 0
1, 168000, Note_on_c, 0, 79, 0
1, 168000, Note_on_c, 0, 80, 62
1, 168000, Note_on_c, 0, 60, 29
1, 168480, Tempo, 390650
1, 168480, Note_on_c, 0, 60, 0
1, 168480, Note_on_c, 0, 67, 29
1, 168720, Tempo, 410790
1, 168720, Note_on_c, 0, 80, 0
1, 168720, Note_on_c, 0, 75, 56
1, 168960, Tempo, 401365
1, 168960, Note_on_c, 0, 75, 0
1, 168960, Note_on_c, 0, 67, 0
1, 168960, Note_on_c, 0, 79, 59
1, 168960, Note_on_c, 0, 56, 36
1, 168965, Control_c, 0, 64, 0
1, 169144, Control_c, 0, 64, 127
1, 169440, Tempo, 392413
1, 169440, Note_on_c, 0, 56, 0
1, 169440, Note_on_c, 0, 60, 31
1, 169920, Note_on_c, 0, 60, 0
1, 169920, Note_on_c, 0, 79, 0
1, 169920, Note_on_c, 0, 77, 50
1, 169920, Note_on_c, 0, 50, 32
1, 170400, Note_on_c, 0, 50, 0
1, 170400, Note_on_c, 0, 55, 30
1, 170407, Control_c, 0, 64, 0
1, 170640, Tempo, 407553
1, 170654, Control_c, 0, 64, 127
1, 170880, Tempo, 392413
1, 170880, Note_on_c, 0, 55, 0
1, 170880, Note_on_c, 0, 77, 0
1, 170880, Note_on_c, 0, 79, 59
1, 170880, Note_on_c, 0, 59, 36
1, 171360, Note_on_c, 0, 59, 0
1, 171360, Note_on_c, 0, 65, 30
1, 171600, Tempo, 404422
1, 171600, Note_on_c, 0, 79, 0
1, 171600, Note_on_c, 0, 74, 53
1, 171840, Tempo, 381122
1, 171840, Note_on_c, 0, 74, 0
1, 171840, Note_on_c, 0, 65, 0
1, 171840, Note_on_c, 0, 77, 59
1, 171840, Note_on_c, 0, 55, 36
1, 171846, Control_c, 0, 64, 0
1, 171918, Control_c, 0, 64, 127
1, 172320, Tempo, 390650
1, 172320, Note_on_c, 0, 55, 0
1, 172320, Note_on_c, 0, 77, 0
1, 172320, Note_on_c, 0, 75, 55
1, 172320, Note_on_c, 0, 60, 31
1, 172800, Note_on_c, 0, 60, 0
1, 172800, Note_on_c, 0, 75, 0
1, 172800, Note_on_c, 0, 74, 55
1, 172800, Note_on_c, 0, 48, 31
1, 173280, Note_on_c, 0, 48, 0
1, 173280, Note_on_c, 0, 74, 0
1, 173280, Note_on_c, 0, 72, 55
1, 173280, Note_on_c, 0, 53, 33
1, 173290, Control_c, 0, 64, 0
1, 173358, Control_c, 0, 64, 127
1, 173440, Note_on_c, 0, 72, 0
1, 173440, Note_on_c, 0, 74, 50
1, 173600, Note_on_c, 0, 74, 0
1, 173600, Note_on_c, 0, 72, 50
1, 173760, Tempo, 390905
1, 173760, Note_on_c, 0, 72, 0
1, 173760, Note_on_c, 0, 53, 0
1, 173760, Note_on_c, 0, 71, 53
1, 173760, Note_on_c, 0, 57, 33
1, 173840, Tempo, 392413
1, 173920, Tempo, 393882
1, 173960, Tempo, 395335
1, 174000, Note_on_c, 0, 71, 0
1, 174000, Note_on_c, 0, 72, 50
1, 174040, Tempo, 396825
1, 174120, Tempo, 398327
1, 174160, Tempo, 399840
1, 174240, Tempo, 401365
1, 174240, Note_on_c, 0, 72, 0
1, 174240, Note_on_c, 0, 57, 0
1, 174240, Note_on_c, 0, 74, 50
1, 174240, Note_on_c, 0, 63, 33
1, 174320, Tempo, 402928
1, 174360, Tempo, 404422
1, 174440, Tempo, 406009
1, 174480, Note_on_c, 0, 74, 0
1, 174480, Note_on_c, 0, 75, 50
1, 174520, Tempo, 407553
1, 174560, Tempo, 409165
1, 174660, Note_on_c, 0, 75, 0
1, 174660, Note_on_c, 0, 60, 30
1, 174720, Tempo, 406009
1, 174720, Note_on_c, 0, 63, 0
1, 174720, Note_on_c, 0, 65, 36
1, 174720, Note_on_c, 0, 53, 36
1, 174725, Control_c, 0, 64, 0
1, 175086, Control_c, 0, 64, 127
1, 175200, Note_on_c, 0, 53, 0
1, 175200, Note_on_c, 0, 56, 29
1, 175680, Note_on_c, 0, 56, 0
1, 175680, Note_on_c, 0, 46, 29
1, 176160, Tempo, 402928
1, 176160, Note_on_c, 0, 46, 0
1, 176160, Note_on_c, 0, 65, 0
1, 176160, Note_on_c, 0, 60, 0
1, 176160, Note_on_c, 0, 62, 34
1, 176160, Note_on_c, 0, 67, 42
1, 176160, Note_on_c, 0, 56, 31
1, 176173, Control_c, 0, 64, 0
1, 176480, Control_c, 0, 64, 127
1, 176640, Tempo, 385183
1, 176640, Note_on_c, 0, 56, 0
1, 176640, Note_on_c, 0, 60, 31
1, 177120, Tempo, 395335
1, 177120, Note_on_c, 0, 60, 0
1, 177120, Note_on_c, 0, 67, 0
1, 177120, Note_on_c, 0, 67, 37
1, 177120, Note_on_c, 0, 58, 31
1, 177600, Note_on_c, 0, 58, 0
1, 177600, Note_on_c, 0, 67, 0
1, 177600, Note_on_c, 0, 62, 0
1, 177600, Note_on_c, 0, 63, 42
1, 177600, Note_on_c, 0, 39, 36
1, 177606, Control_c, 0, 64, 0
1, 177840, Control_c, 0, 64, 127
1, 178080, Tempo, 388023
1, 178080, Note_on_c, 0, 39, 0
1, 178080, Note_on_c, 0, 46, 30
1, 178560, Note_on_c, 0, 46, 0
1, 178560, Note_on_c, 0, 51, 27
1, 179040, Tempo, 396825
1, 179040, Note_on_c, 0, 51, 0
1, 179040, Note_on_c, 0, 55, 31
1, 179520, Tempo, 381122
1, 179520, Note_on_c, 0, 55, 0
1, 179520, Note_on_c, 0, 63, 0
1, 179520, Note_on_c, 0, 75, 55
1, 179520, Note_on_c, 0, 58, 31
1, 179640, Tempo, 379579
1, 180000, Tempo, 398327
1, 180000, Note_on_c, 0, 58, 0
1, 180000, Note_on_c, 0, 63, 28
1, 180240, Tempo, 414022
1, 180240, Note_on_c, 0, 75, 0
1, 180240, Note_on_c, 0, 74, 44
1, 180480, Tempo, 395335
1, 180480, Note_on_c, 0, 74, 0
1, 180480, Note_on_c, 0, 63, 0
1, 180480, Note_on_c, 0, 67, 34
1, 180480, Note_on_c, 0, 72, 53
1, 180480, Note_on_c, 0, 60, 30
1, 180489, Control_c, 0, 64, 0
1, 180827, Control_c, 0, 64, 127
1, 180960, Tempo, 389459
1, 180960, Note_on_c, 0, 60, 0
1, 180960, Note_on_c, 0, 63, 30
1, 181440, Note_on_c, 0, 63, 0
1, 181440, Note_on_c, 0, 53, 25
1, 181920, Tempo, 401365
1, 181920, Note_on_c, 0, 53, 0
1, 181920, Note_on_c, 0, 72, 0
1, 181920, Note_on_c, 0, 67, 0
1, 181920, Note_on_c, 0, 69, 40
1, 181920, Note_on_c, 0, 74, 52
1, 181920, Note_on_c, 0, 63, 33
1, 181933, Control_c, 0, 64, 0
1, 182267, Control_c, 0, 64, 127
1, 182400, Tempo, 382677
1, 182400, Note_on_c, 0, 63, 0
1, 182400, Note_on_c, 0, 67, 30
1, 182870, Note_on_c, 0, 74, 0
1, 182880, Tempo, 402928
1, 182880, Note_on_c, 0, 67, 0
1, 182880, Note_on_c, 0, 74, 47
1, 182880, Note_on_c, 0, 65, 30
1, 183360, Note_on_c, 0, 65, 0
1, 183360, Note_on_c, 0, 74, 0
1, 183360, Note_on_c, 0, 69, 0
1, 183360, Note_on_c, 0, 70, 49
1, 183360, Note_on_c, 0, 46, 36
1, 183366, Control_c, 0, 64, 0
1, 183787, Control_c, 0, 64, 127
1, 183840, Tempo, 393882
1, 183840, Note_on_c, 0, 46, 0
1, 183840, Note_on_c, 0, 53, 32
1, 184320, Note_on_c, 0, 53, 0
1, 184320, Note_on_c, 0, 58, 32
1, 184800, Tempo, 404176
1, 184800, Note_on_c, 0, 58, 0
1, 184800, Note_on_c, 0, 70, 0
1, 184800, Note_on_c, 0, 82, 66
1, 184800, Note_on_c, 0, 62, 34
1, 185280, Tempo, 397298
1, 185280, Note_on_c, 0, 62, 0
1, 185280, Note_on_c, 0, 65, 37
1, 185750, Note_on_c, 0, 82, 0
1, 185760, Tempo, 475926
1, 185760, Note_on_c, 0, 65, 0
1, 185760, Note_on_c, 0, 82, 60
1, 185760, Note_on_c, 0, 70, 42
1, 186220, Note_on_c, 0, 82, 0
1, 186240, Tempo, 396825
1, 186240, Note_on_c, 0, 70, 0
1, 186240, Note_on_c, 0, 82, 68
1, 186240, Note_on_c, 0, 36, 44
1, 186247, Control_c, 0, 64, 0
1, 186515, Control_c, 0, 64, 127
1, 186720, Note_on_c, 0, 36, 0
1, 186720, Note_on_c, 0, 64, 30
1, 187200, Tempo, 407553
1, 187200, Note_on_c, 0, 64, 0
1, 187200, Note_on_c, 0, 58, 26
1, 187680, Tempo, 396825
1, 187680, Note_on_c, 0, 58, 0
1, 187680, Note_on_c, 0, 82, 0
1, 187680, Note_on_c, 0, 72, 61
1, 187680, Note_on_c, 0, 55, 30
1, 187695, Control_c, 0, 64, 0
1, 188000, Control_c, 0, 64, 127
1, 188160, Note_on_c, 0, 64, 27
1, 188640, Tempo, 423221
1, 188640, Note_on_c, 0, 64, 0
1, 188640, Note_on_c, 0, 72, 0
1, 188640, Note_on_c, 0, 74, 55
1, 188640, Note_on_c, 0, 58, 27
1, 189120, Tempo, 401391
1, 189120, Note_on_c, 0, 58, 0
1, 189120, Note_on_c, 0, 74, 0
1, 189120, Note_on_c, 0, 55, 0
1, 189120, Note_on_c, 0, 75, 60
1, 189120, Note_on_c, 0, 53, 36
1, 189131, Control_c, 0, 64, 0
1, 189212, Control_c, 0, 64, 127
1, 189280, Note_on_c, 0, 75, 0
1, 189280, Note_on_c, 0, 77, 53
1, 189440, Note_on_c, 0, 77, 0
1, 189440, Note_on_c, 0, 75, 53
1, 189600, Tempo, 411297
1, 189600, Note_on_c, 0, 75, 0
1, 189600, Note_on_c, 0, 74, 52
1, 189600, Note_on_c, 0, 63, 31
1, 190080, Note_on_c, 0, 63, 0
1, 190080, Note_on_c, 0, 74, 0
1, 190080, Note_on_c, 0, 75, 55
1, 190080, Note_on_c, 0, 57, 31
1, 190560, Tempo, 424749
1, 190560, Note_on_c, 0, 57, 0
1, 190560, Note_on_c, 0, 75, 0
1, 190560, Note_on_c, 0, 53, 0
1, 190560, Note_on_c, 0, 79, 56
1, 190560, Note_on_c, 0, 46, 36
1, 190575, Control_c, 0, 64, 0
1, 190737, Control_c, 0, 64, 127
1, 191034, Note_on_c, 0, 79, 0
1, 191040, Tempo, 407000
1, 191040, Note_on_c, 0, 46, 0
1, 191040, Note_on_c, 0, 79, 61
1, 191040, Note_on_c, 0, 62, 31
1, 191520, Tempo, 452728
1, 191520, Note_on_c, 0, 62, 0
1, 191520, Note_on_c, 0, 56, 31
1, 191680, Note_on_c, 0, 79, 0
1, 191680, Note_on_c, 0, 77, 48
1, 191840, Tempo, 514580
1, 191840, Note_on_c, 0, 77, 0
1, 191840, Note_on_c, 0, 75, 48
1, 191887, Control_c, 0, 64, 0
1, 191980, Note_on_c, 0, 75, 0
1, 192000, Tempo, 517598
1, 192000, Note_on_c, 0, 56, 0
1, 192000, Note_on_c, 0, 75, 50
1, 192000, Note_on_c, 0, 39, 38
1, 192148, Control_c, 0, 64, 127
1, 192240, Tempo, 497925
1, 192240, Note_on_c, 0, 39, 0
1, 192240, Note_on_c, 0, 46, 26
1, 192480, Tempo, 481928
1, 192480, Note_on_c, 0, 46, 0
1, 192480, Note_on_c, 0, 55, 31
1, 192720, Note_on_c, 0, 55, 0
1, 192720, Note_on_c, 0, 51, 27
1, 192960, Tempo, 481928
1, 192960, Note_on_c, 0, 51, 0
1, 192960, Note_on_c, 0, 58, 31
1, 193200, Note_on_c, 0, 58, 0
1, 193200, Note_on_c, 0, 55, 27
1, 193440, Note_on_c, 0, 55, 0
1, 193440, Note_on_c, 0, 75, 0
1, 193440, Note_on_c, 0, 63, 32
1, 193920, Tempo, 491803
1, 193920, Note_on_c, 0, 63, 0
1, 193920, Note_on_c, 0, 67, 36
1, 194160, Note_on_c, 0, 67, 0
1, 194160, Note_on_c, 0, 68, 34
1, 194400, Tempo, 470736
1, 194400, Note_on_c, 0, 68, 0
1, 194400, Note_on_c, 0, 70, 37
1, 194409, Control_c, 0, 64, 0
1, 194492, Control_c, 0, 64, 127
1, 194560, Note_on_c, 0, 70, 0
1, 194560, Note_on_c, 0, 74, 34
1, 194720, Tempo, 532056
1, 194720, Note_on_c, 0, 74, 0
1, 194720, Note_on_c, 0, 72, 34
1, 194880, Tempo, 486736
1, 194880, Note_on_c, 0, 72, 0
1, 194880, Note_on_c, 0, 70, 42
1, 194880, Note_on_c, 0, 39, 32
1, 194895, Control_c, 0, 64, 0
1, 195050, Control_c, 0, 64, 127
1, 195120, Tempo, 478088
1, 195120, Note_on_c, 0, 39, 0
1, 195120, Note_on_c, 0, 46, 22
1, 195360, Note_on_c, 0, 46, 0
1, 195360, Note_on_c, 0, 55, 26
1, 195600, Note_on_c, 0, 55, 0
1, 195600, Note_on_c, 0, 51, 22
1, 195840, Note_on_c, 0, 51, 0
1, 195840, Note_on_c, 0, 58, 26
1, 196080, Note_on_c, 0, 58, 0
1, 196080, Note_on_c, 0, 55, 22
1, 196320, Tempo, 478088
1, 196320, Note_on_c, 0, 55, 0
1, 196320, Note_on_c, 0, 70, 0
1, 196320, Note_on_c, 0, 63, 27
1, 196800, Tempo, 485830
1, 196800, Note_on_c, 0, 63, 0
1, 196800, Note_on_c, 0, 67, 36
1, 197040, Note_on_c, 0, 67, 0
1, 197040, Note_on_c, 0, 68, 34
1, 197280, Note_on_c, 0, 68, 0
1, 197280, Note_on_c, 0, 70, 37
1, 197295, Control_c, 0, 64, 0
1, 197320, Tempo, 470736
1, 197440, Note_on_c, 0, 70, 0
1, 197440, Note_on_c, 0, 74, 34
1, 197443, Control_c, 0, 64, 127
1, 197600, Tempo, 532056
1, 197600, Note_on_c, 0, 74, 0
1, 197600, Note_on_c, 0, 72, 34
1, 197760, Tempo, 486736
1, 197760, Note_on_c, 0, 72, 0
1, 197760, Note_on_c, 0, 70, 42
1, 197760, Note_on_c, 0, 39, 32
1, 197770, Control_c, 0, 64, 0
1, 197944, Control_c, 0, 64, 127
1, 198000, Tempo, 478088
1, 198000, Note_on_c, 0, 39, 0
1, 198000, Note_on_c, 0, 46, 22
1, 198240, Note_on_c, 0, 46, 0
1, 198240, Note_on_c, 0, 56, 26
1, 198480, Note_on_c, 0, 56, 0
1, 198480, Note_on_c, 0, 53, 22
1, 198720, Note_on_c, 0, 53, 0
1, 198720, Note_on_c, 0, 58, 26
1, 198960, Note_on_c, 0, 58, 0
1, 198960, Note_on_c, 0, 56, 22
1, 199200, Note_on_c, 0, 56, 0
1, 199200, Note_on_c, 0, 70, 0
1, 199200, Note_on_c, 0, 62, 27
1, 199680, Tempo, 485830
1, 199680, Note_on_c, 0, 62, 0
1, 199680, Note_on_c, 0, 65, 36
1, 199920, Note_on_c, 0, 65, 0
1, 199920, Note_on_c, 0, 68, 34
1, 200160, Note_on_c, 0, 68, 0
1, 200160, Note_on_c, 0, 70, 37
1, 200175, Control_c, 0, 64, 0
1, 200200, Tempo, 470736
1, 200259, Control_c, 0, 64, 127
1, 200320, Note_on_c, 0, 70, 0
1, 200320, Note_on_c, 0, 74, 34
1, 200480, Tempo, 532056
1, 200480, Note_on_c, 0, 74, 0
1, 200480, Note_on_c, 0, 72, 34
1, 200640, Tempo, 486736
1, 200640, Note_on_c, 0, 72, 0
1, 200640, Note_on_c, 0, 70, 42
1, 200640, Note_on_c, 0, 39, 32
1, 200655, Control_c, 0, 64, 0
1, 200791, Control_c, 0, 64, 127
1, 200880, Note_on_c, 0, 39, 0
1, 200880, Note_on_c, 0, 46, 25
1, 201120, Tempo, 503863
1, 201120, Note_on_c, 0, 46, 0
1, 201120, Note_on_c, 0, 55, 28
1, 201280, Note_on_c, 0, 70, 0
1, 201280, Note_on_c, 0, 61, 34
1, 201360, Tempo, 486736
1, 201440, Note_on_c, 0, 63, 34
1, 201600, Tempo, 501714
1, 201600, Note_on_c, 0, 63, 0
1, 201600, Note_on_c, 0, 55, 0
1, 201600, Note_on_c, 0, 67, 39
1, 201607, Control_c, 0, 64, 0
1, 201649, Control_c, 0, 64, 127
1, 201760, Note_on_c, 0, 67, 0
1, 201760, Note_on_c, 0, 61, 0
1, 201760, Note_on_c, 0, 72, 34
1, 201920, Note_on_c, 0, 72, 0
1, 201920, Note_on_c, 0, 70, 35
1, 202080, Tempo, 484692
1, 202080, Note_on_c, 0, 70, 0
1, 202080, Note_on_c, 0, 68, 38
1, 202080, Note_on_c, 0, 39, 32
1, 202091, Control_c, 0, 64, 0
1, 202169, Control_c, 0, 64, 127
1, 202320, Note_on_c, 0, 39, 0
1, 202320, Note_on_c, 0, 51, 25
1, 202560, Note_on_c, 0, 51, 0
1, 202560, Note_on_c, 0, 56, 29
1, 202800, Note_on_c, 0, 68, 0
1, 202800, Note_on_c, 0, 59, 37
1, 203040, Note_on_c, 0, 56, 0
1, 203040, Note_on_c, 0, 63, 38
1, 203056, Control_c, 0, 64, 0
1, 203080, Tempo, 470736
1, 203135, Control_c, 0, 64, 127
1, 203280, Note_on_c, 0, 63, 0
1, 203280, Note_on_c, 0, 59, 0
1, 203280, Note_on_c, 0, 65, 35
1, 203360, Tempo, 532056
1, 203520, Tempo, 508388
1, 203520, Note_on_c, 0, 65, 0
1, 203520, Note_on_c, 0, 67, 46
1, 203520, Note_on_c, 0, 39, 32
1, 203600, Control_c, 0, 64, 0
1, 203760, Note_on_c, 0, 39, 0
1, 203760, Note_on_c, 0, 46, 22
1, 203840, Control_c, 0, 64, 127
1, 204000, Tempo, 483871
1, 204000, Note_on_c, 0, 46, 0
1, 204000, Note_on_c, 0, 55, 26
1, 204240, Note_on_c, 0, 55, 0
1, 204240, Note_on_c, 0, 51, 22
1, 204480, Note_on_c, 0, 51, 0
1, 204480, Note_on_c, 0, 58, 26
1, 204720, Note_on_c, 0, 58, 0
1, 204720, Note_on_c, 0, 55, 22
1, 204960, Tempo, 493827
1, 204960, Note_on_c, 0, 55, 0
1, 204960, Note_on_c, 0, 67, 0
1, 204960, Note_on_c, 0, 63, 27
1, 205440, Note_on_c, 0, 63, 0
1, 205440, Note_on_c, 0, 67, 36
1, 205680, Note_on_c, 0, 67, 0
1, 205680, Note_on_c, 0, 68, 34
1, 205920, Tempo, 470736
1, 205920, Note_on_c, 0, 68, 0
1, 205920, Note_on_c, 0, 70, 37
1, 205924, Control_c, 0, 64, 0
1, 206026, Control_c, 0, 64, 127
1, 206080, Note_on_c, 0, 70, 0
1, 206080, Note_on_c, 0, 74, 34
1, 206240, Tempo, 532056
1, 206240, Note_on_c, 0, 74, 0
1, 206240, Note_on_c, 0, 72, 34
1, 206400, Tempo, 478088
1, 206400, Note_on_c, 0, 72, 0
1, 206400, Note_on_c, 0, 70, 42
1, 206400, Note_on_c, 0, 39, 32
1, 206413, Control_c, 0, 64, 0
1, 206584, Control_c, 0, 64, 127
1, 206640, Tempo, 512821
1, 206640, Note_on_c, 0, 39, 0
1, 206640, Note_on_c, 0, 46, 22
1, 206880, Tempo, 485830
1, 206880, Note_on_c, 0, 46, 0
1, 206880, Note_on_c, 0, 70, 0
1, 206880, Note_on_c, 0, 82, 51
1, 206880, Note_on_c, 0, 55, 26
1, 207120, Note_on_c, 0, 55, 0
1, 207120, Note_on_c, 0, 51, 22
1, 207360, Note_on_c, 0, 51, 0
1, 207360, Note_on_c, 0, 58, 26
1, 207600, Note_on_c, 0, 58, 0
1, 207600, Note_on_c, 0, 55, 22
1, 207840, Note_on_c, 0, 55, 0
1, 207840, Note_on_c, 0, 63, 27
1, 207880, Tempo, 470588
1, 208320, Tempo, 485830
1, 208320, Note_on_c, 0, 63, 0
1, 208320, Note_on_c, 0, 82, 0
1, 208480, Note_on_c, 0, 67, 36
1, 208640, Note_on_c, 0, 67, 0
1, 208640, Note_on_c, 0, 68, 34
1, 208800, Note_on_c, 0, 68, 0
1, 208800, Note_on_c, 0, 70, 37
1, 208815, Control_c, 0, 64, 0
1, 208840, Tempo, 470736
1, 208899, Control_c, 0, 64, 127
1, 208960, Note_on_c, 0, 70, 0
1, 208960, Note_on_c, 0, 74, 34
1, 209120, Tempo, 532056
1, 209120, Note_on_c, 0, 74, 0
1, 209120, Note_on_c, 0, 72, 34
1, 209280, Tempo, 474308
1, 209280, Note_on_c, 0, 72, 0
1, 209280, Note_on_c, 0, 70, 42
1, 209280, Note_on_c, 0, 39, 32
1, 209290, Control_c, 0, 64, 0
1, 209456, Control_c, 0, 64, 127
1, 209520, Tempo, 515021
1, 209520, Note_on_c, 0, 39, 0
1, 209520, Note_on_c, 0, 46, 22
1, 209760, Tempo, 483871
1, 209760, Note_on_c, 0, 46, 0
1, 209760, Note_on_c, 0, 70, 0
1, 209760, Note_on_c, 0, 82, 50
1, 209760, Note_on_c, 0, 56, 26
1, 210000, Note_on_c, 0, 56, 0
1, 210000, Note_on_c, 0, 53, 22
1, 210240, Note_on_c, 0, 53, 0
1, 210240, Note_on_c, 0, 58, 26
1, 210480, Note_on_c, 0, 58, 0
1, 210480, Note_on_c, 0, 56, 22
1, 210720, Tempo, 472441
1, 210720, Note_on_c, 0, 56, 0
1, 210720, Note_on_c, 0, 62, 27
1, 211200, Tempo, 483871
1, 211200, Note_on_c, 0, 62, 0
1, 211200, Note_on_c, 0, 82, 0
1, 211360, Note_on_c, 0, 65, 36
1, 211520, Note_on_c, 0, 65, 0
1, 211520, Note_on_c, 0, 68, 34
1, 211680, Note_on_c, 0, 68, 0
1, 211680, Note_on_c, 0, 70, 37
1, 211695, Control_c, 0, 64, 0
1, 211720, Tempo, 470736
1, 211779, Control_c, 0, 64, 127
1, 211840, Note_on_c, 0, 70, 0
1, 211840, Note_on_c, 0, 74, 34
1, 212000, Tempo, 532056
1, 212000, Note_on_c, 0, 74, 0
1, 212000, Note_on_c, 0, 72, 34
1, 212160, Tempo, 486736
1, 212160, Note_on_c, 0, 72, 0
1, 212160, Note_on_c, 0, 70, 42
1, 212160, Note_on_c, 0, 39, 32
1, 212240, Control_c, 0, 64, 0
1, 212317, Control_c, 0, 64, 127
1, 212400, Note_on_c, 0, 39, 0
1, 212400, Note_on_c, 0, 46, 25
1, 212640, Tempo, 503863
1, 212640, Note_on_c, 0, 46, 0
1, 212640, Note_on_c, 0, 55, 28
1, 212800, Note_on_c, 0, 70, 0
1, 212800, Note_on_c, 0, 61, 34
1, 212880, Tempo, 486736
1, 212960, Note_on_c, 0, 63, 34
1, 213120, Tempo, 501714
1, 213120, Note_on_c, 0, 63, 0
1, 213120, Note_on_c, 0, 55, 0
1, 213120, Note_on_c, 0, 67, 39
1, 213130, Control_c, 0, 64, 0
1, 213183, Control_c, 0, 64, 127
1, 213280, Note_on_c, 0, 67, 0
1, 213280, Note_on_c, 0, 61, 0
1, 213280, Note_on_c, 0, 72, 34
1, 213440, Note_on_c, 0, 72, 0
1, 213440, Note_on_c, 0, 70, 35
1, 213600, Tempo, 484692
1, 213600, Note_on_c, 0, 70, 0
1, 213600, Note_on_c, 0, 68, 38
1, 213600, Note_on_c, 0, 39, 32
1, 213600, Control_c, 0, 64, 0
1, 213649, Control_c, 0, 64, 127
1, 213840, Note_on_c, 0, 39, 0
1, 213840, Note_on_c, 0, 51, 25
1, 214080, Note_on_c, 0, 51, 0
1, 214080, Note_on_c, 0, 56, 29
1, 214320, Note_on_c, 0, 68, 0
1, 214320, Note_on_c, 0, 59, 37
1, 214560, Note_on_c, 0, 56, 0
1, 214560, Note_on_c, 0, 63, 38
1, 214571, Control_c, 0, 64, 0
1, 214600, Tempo, 470736
1, 214646, Control_c, 0, 64, 127
1, 214800, Note_on_c, 0, 63, 0
1, 214800, Note_on_c, 0, 59, 0
1, 214800, Note_on_c, 0, 65, 35
1, 214880, Tempo, 532056
1, 215040, Tempo, 508388
1, 215040, Note_on_c, 0, 65, 0
1, 215040, Note_on_c, 0, 67, 46
1, 215040, Control_c, 0, 64, 0
1, 215040, Note_on_c, 0, 39, 32
1, 215153, Control_c, 0, 64, 127
1, 215280, Note_on_c, 0, 39, 0
1, 215280, Note_on_c, 0, 46, 22
1, 215520, Tempo, 487805
1, 215520, Note_on_c, 0, 46, 0
1, 215520, Note_on_c, 0, 55, 26
1, 215760, Note_on_c, 0, 55, 0
1, 215760, Note_on_c, 0, 51, 22
1, 216000, Note_on_c, 0, 51, 0
1, 216000, Note_on_c, 0, 58, 26
1, 216240, Note_on_c, 0, 58, 0
1, 216240, Note_on_c, 0, 55, 22
1, 216480, Tempo, 493827
1, 216480, Note_on_c, 0, 55, 0
1, 216480, Note_on_c, 0, 63, 27
1, 216720, Note_on_c, 0, 67, 0
1, 216720, Note_on_c, 0, 67, 34
1, 216960, Note_on_c, 0, 67, 0
1, 216960, Note_on_c, 0, 63, 0
1, 216960, Note_on_c, 0, 70, 36
1, 217200, Note_on_c, 0, 70, 0
1, 217200, Note_on_c, 0, 79, 37
1, 217440, Tempo, 470736
1, 217440, Note_on_c, 0, 79, 0
1, 217440, Note_on_c, 0, 77, 40
1, 217680, Note_on_c, 0, 77, 0
1, 217680, Note_on_c, 0, 75, 37
1, 217760, Tempo, 532056
1, 217920, Tempo, 508388
1, 217920, Note_on_c, 0, 75, 0
1, 217920, Note_on_c, 0, 74, 46
1, 217920, Note_on_c, 0, 43, 32
1, 217927, Control_c, 0, 64, 0
1, 218104, Control_c, 0, 64, 127
1, 218160, Note_on_c, 0, 43, 0
1, 218160, Note_on_c, 0, 50, 22
1, 218400, Tempo, 495172
1, 218400, Note_on_c, 0, 50, 0
1, 218400, Note_on_c, 0, 58, 26
1, 218640, Note_on_c, 0, 58, 0
1, 218640, Note_on_c, 0, 55, 22
1, 218880, Note_on_c, 0, 55, 0
1, 218880, Note_on_c, 0, 62, 26
1, 219120, Note_on_c, 0, 62, 0
1, 219120, Note_on_c, 0, 58, 22
1, 219360, Note_on_c, 0, 58, 0
1, 219360, Note_on_c, 0, 67, 27
1, 219600, Note_on_c, 0, 74, 0
1, 219600, Note_on_c, 0, 70, 34
1, 219840, Note_on_c, 0, 70, 0
1, 219840, Note_on_c, 0, 67, 0
1, 219840, Note_on_c, 0, 74, 36
1, 220080, Note_on_c, 0, 74, 0
1, 220080, Note_on_c, 0, 82, 37
1, 220320, Tempo, 470736
1, 220320, Note_on_c, 0, 82, 0
1, 220320, Note_on_c, 0, 74, 40
1, 220560, Note_on_c, 0, 74, 0
1, 220560, Note_on_c, 0, 75, 37
1, 220640, Tempo, 532056
1, 220800, Tempo, 508388
1, 220800, Note_on_c, 0, 75, 0
1, 220800, Note_on_c, 0, 76, 46
1, 220800, Note_on_c, 0, 46, 32
1, 220815, Control_c, 0, 64, 0
1, 220984, Control_c, 0, 64, 127
1, 221040, Note_on_c, 0, 46, 0
1, 221040, Note_on_c, 0, 53, 22
1, 221280, Tempo, 495172
1, 221280, Note_on_c, 0, 53, 0
1, 221280, Note_on_c, 0, 76, 0
1, 221280, Note_on_c, 0, 77, 46
1, 221280, Note_on_c, 0, 62, 26
1, 221520, Note_on_c, 0, 62, 0
1, 221520, Note_on_c, 0, 58, 22
1, 221760, Note_on_c, 0, 58, 0
1, 221760, Note_on_c, 0, 65, 26
1, 222000, Note_on_c, 0, 65, 0
1, 222000, Note_on_c, 0, 62, 22
1, 222240, Note_on_c, 0, 62, 0
1, 222240, Note_on_c, 0, 70, 27
1, 222480, Tempo, 512952
1, 222480, Note_on_c, 0, 77, 0
1, 222480, Note_on_c, 0, 74, 39
1, 222720, Note_on_c, 0, 74, 0
1, 222720, Note_on_c, 0, 70, 0
1, 222720, Note_on_c, 0, 77, 43
1, 222960, Note_on_c, 0, 77, 0
1, 222960, Note_on_c, 0, 86, 50
1, 223200, Tempo, 495172
1, 223200, Note_on_c, 0, 86, 0
1, 223200, Note_on_c, 0, 84, 46
1, 223440, Note_on_c, 0, 84, 0
1, 223440, Note_on_c, 0, 82, 41
1, 223520, Tempo, 532056
1, 223680, Note_on_c, 0, 82, 0
1, 223680, Note_on_c, 0, 80, 45
1, 223680, Note_on_c, 0, 50, 31
1, 223692, Control_c, 0, 64, 0
1, 223715, Control_c, 0, 64, 127
1, 223920, Note_on_c, 0, 50, 0
1, 223920, Note_on_c, 0, 80, 0
1, 223920, Note_on_c, 0, 81, 40
1, 223920, Note_on_c, 0, 57, 26
1, 224160, Note_on_c, 0, 57, 0
1, 224160, Note_on_c, 0, 81, 0
1, 224160, Note_on_c, 0, 89, 51
1, 224160, Note_on_c, 0, 65, 31
1, 224400, Note_on_c, 0, 65, 0
1, 224400, Note_on_c, 0, 89, 0
1, 224400, Note_on_c, 0, 88, 46
1, 224400, Note_on_c, 0, 62, 26
1, 224640, Note_on_c, 0, 62, 0
1, 224640, Note_on_c, 0, 88, 0
1, 224640, Note_on_c, 0, 86, 45
1, 224640, Note_on_c, 0, 69, 31
1, 224880, Note_on_c, 0, 69, 0
1, 224880, Note_on_c, 0, 86, 0
1, 224880, Note_on_c, 0, 81, 40
1, 224880, Note_on_c, 0, 65, 26
1, 225120, Tempo, 532056
1, 225120, Note_on_c, 0, 65, 0
1, 225120, Note_on_c, 0, 81, 0
1, 225120, Note_on_c, 0, 74, 40
1, 225240, Tempo, 534474
1, 225320, Tempo, 537009
1, 225360, Note_on_c, 0, 74, 0
1, 225360, Note_on_c, 0, 69, 36
1, 225400, Tempo, 539520
1, 225520, Tempo, 542103
1, 225600, Tempo, 544712
1, 225600, Note_on_c, 0, 69, 0
1, 225600, Note_on_c, 0, 65, 39
1, 225680, Tempo, 547345
1, 225760, Tempo, 549954
1, 225840, Note_on_c, 0, 65, 0
1, 225840, Note_on_c, 0, 62, 34
1, 225880, Tempo, 552588
1, 225960, Tempo, 555298
1, 226080, Tempo, 653666
1, 226080, Note_on_c, 0, 62, 0
1, 226080, Note_on_c, 0, 64, 39
1, 226094, Control_c, 0, 64, 0
1, 226260, Note_on_c, 0, 64, 0
1, 226260, Note_on_c, 0, 67, 31
1, 226320, Note_on_c, 0, 67, 0
1, 226320, Note_on_c, 0, 65, 36
1, 226560, Note_on_c, 0, 65, 0
1, 226560, Note_on_c, 0, 52, 28
1, 226907, Control_c, 0, 64, 127
1, 227040, Note_on_c, 0, 40, 25
1, 227520, Note_on_c, 0, 40, 0
1, 227520, Note_on_c, 0, 40, 25
1, 228000, Tempo, 630186
1, 228000, Note_on_c, 0, 40, 0
1, 228000, Note_on_c, 0, 52, 0
1, 228240, Note_on_c, 0, 62, 38
1, 228480, Tempo, 556070
1, 228480, Note_on_c, 0, 64, 37
1, 228480, Note_on_c, 0, 40, 39
1, 228720, Note_on_c, 0, 40, 0
1, 228720, Note_on_c, 0, 68, 37
1, 228960, Tempo, 530082
1, 228960, Note_on_c, 0, 68, 0
1, 228960, Note_on_c, 0, 72, 41
1, 228960, Note_on_c, 0, 40, 39
1, 229200, Note_on_c, 0, 40, 0
1, 229200, Note_on_c, 0, 72, 0
1, 229200, Note_on_c, 0, 71, 39
1, 229440, Tempo, 506415
1, 229440, Note_on_c, 0, 71, 0
1, 229440, Note_on_c, 0, 64, 0
1, 229440, Note_on_c, 0, 62, 0
1, 229440, Note_on_c, 0, 69, 37
1, 229446, Control_c, 0, 64, 0
1, 229715, Control_c, 0, 64, 127
1, 229920, Tempo, 493218
1, 229920, Note_on_c, 0, 60, 23
1, 229920, Note_on_c, 0, 64, 28
1, 229920, Note_on_c, 0, 40, 22
1, 230395, Note_on_c, 0, 40, 0
1, 230395, Note_on_c, 0, 64, 0
1, 230395, Note_on_c, 0, 60, 0
1, 230400, Tempo, 527612
1, 230400, Note_on_c, 0, 60, 23
1, 230400, Note_on_c, 0, 64, 28
1, 230400, Note_on_c, 0, 40, 22
1, 230875, Note_on_c, 0, 40, 0
1, 230875, Note_on_c, 0, 64, 0
1, 230875, Note_on_c, 0, 60, 0
1, 230880, Tempo, 497512
1, 230880, Note_on_c, 0, 69, 0
1, 230880, Note_on_c, 0, 76, 41
1, 230880, Note_on_c, 0, 64, 34
1, 231360, Tempo, 501924
1, 231360, Note_on_c, 0, 69, 28
1, 231360, Note_on_c, 0, 52, 21
1, 231360, Note_on_c, 0, 57, 21
1, 231835, Note_on_c, 0, 57, 0
1, 231835, Note_on_c, 0, 69, 0
1, 231835, Note_on_c, 0, 52, 0
1, 231840, Tempo, 499709
1, 231840, Note_on_c, 0, 69, 28
1, 231840, Note_on_c, 0, 57, 21
1, 231840, Note_on_c, 0, 52, 21
1, 232315, Note_on_c, 0, 52, 0
1, 232315, Note_on_c, 0, 69, 0
1, 232315, Note_on_c, 0, 57, 0
1, 232320, Tempo, 520336
1, 232320, Note_on_c, 0, 64, 0
1, 232320, Note_on_c, 0, 76, 0
1, 232320, Note_on_c, 0, 74, 39
1, 232320, Note_on_c, 0, 62, 34
1, 232329, Control_c, 0, 64, 0
1, 232549, Control_c, 0, 64, 127
1, 232800, Tempo, 499709
1, 232800, Note_on_c, 0, 69, 28
1, 232800, Note_on_c, 0, 65, 23
1, 232800, Note_on_c, 0, 57, 22
1, 232800, Note_on_c, 0, 52, 22
1, 233275, Note_on_c, 0, 52, 0
1, 233275, Note_on_c, 0, 65, 0
1, 233275, Note_on_c, 0, 69, 0
1, 233275, Note_on_c, 0, 57, 0
1, 233280, Note_on_c, 0, 65, 23
1, 233280, Note_on_c, 0, 69, 28
1, 233280, Note_on_c, 0, 52, 22
1, 233280, Note_on_c, 0, 57, 22
1, 233755, Note_on_c, 0, 57, 0
1, 233755, Note_on_c, 0, 69, 0
1, 233755, Note_on_c, 0, 65, 0
1, 233755, Note_on_c, 0, 52, 0
1, 233760, Tempo, 547995
1, 233760, Note_on_c, 0, 62, 0
1, 233760, Note_on_c, 0, 74, 0
1, 233760, Control_c, 0, 64, 0
1, 234000, Note_on_c, 0, 62, 40
1, 234046, Control_c, 0, 64, 127
1, 234240, Tempo, 537634
1, 234240, Note_on_c, 0, 64, 37
1, 234240, Note_on_c, 0, 40, 39
1, 234480, Note_on_c, 0, 40, 0
1, 234480, Note_on_c, 0, 68, 37
1, 234720, Tempo, 509251
1, 234720, Note_on_c, 0, 68, 0
1, 234720, Note_on_c, 0, 72, 41
1, 234720, Note_on_c, 0, 40, 39
1, 234960, Tempo, 529381
1, 234960, Note_on_c, 0, 40, 0
1, 234960, Note_on_c, 0, 72, 0
1, 234960, Note_on_c, 0, 71, 39
1, 235200, Tempo, 499709
1, 235200, Note_on_c, 0, 71, 0
1, 235200, Note_on_c, 0, 64, 0
1, 235200, Note_on_c, 0, 62, 0
1, 235200, Note_on_c, 0, 69, 37
1, 235206, Control_c, 0, 64, 0
1, 235543, Control_c, 0, 64, 127
1, 235680, Tempo, 488958
1, 235680, Note_on_c, 0, 60, 23
1, 235680, Note_on_c, 0, 64, 28
1, 235680, Note_on_c, 0, 40, 22
1, 236155, Note_on_c, 0, 40, 0
1, 236155, Note_on_c, 0, 64, 0
1, 236155, Note_on_c, 0, 60, 0
1, 236160, Tempo, 527612
1, 236160, Note_on_c, 0, 60, 23
1, 236160, Note_on_c, 0, 64, 28
1, 236160, Note_on_c, 0, 40, 22
1, 236635, Note_on_c, 0, 40, 0
1, 236635, Note_on_c, 0, 64, 0
1, 236635, Note_on_c, 0, 60, 0
1, 236640, Tempo, 501924
1, 236640, Note_on_c, 0, 69, 0
1, 236640, Note_on_c, 0, 66, 37
1, 236640, Note_on_c, 0, 54, 31
1, 236656, Control_c, 0, 64, 0
1, 236869, Control_c, 0, 64, 127
1, 237120, Tempo, 515597
1, 237120, Note_on_c, 0, 64, 28
1, 237120, Note_on_c, 0, 57, 23
1, 237120, Note_on_c, 0, 60, 23
1, 237120, Note_on_c, 0, 40, 21
1, 237160, Tempo, 504159
1, 237595, Note_on_c, 0, 40, 0
1, 237595, Note_on_c, 0, 57, 0
1, 237595, Note_on_c, 0, 64, 0
1, 237595, Note_on_c, 0, 60, 0
1, 237600, Tempo, 527612
1, 237600, Note_on_c, 0, 64, 28
1, 237600, Note_on_c, 0, 57, 23
1, 237600, Note_on_c, 0, 60, 23
1, 237600, Note_on_c, 0, 40, 21
1, 238075, Note_on_c, 0, 40, 0
1, 238075, Note_on_c, 0, 57, 0
1, 238075, Note_on_c, 0, 64, 0
1, 238075, Note_on_c, 0, 60, 0
1, 238080, Tempo, 542741
1, 238080, Note_on_c, 0, 54, 0
1, 238080, Note_on_c, 0, 66, 0
1, 238080, Note_on_c, 0, 68, 37
1, 238080, Note_on_c, 0, 56, 31
1, 238086, Control_c, 0, 64, 0
1, 238240, Control_c, 0, 64, 127
1, 238560, Tempo, 515597
1, 238560, Note_on_c, 0, 59, 19
1, 238560, Note_on_c, 0, 64, 23
1, 238560, Note_on_c, 0, 40, 16
1, 238600, Tempo, 527612
1, 239035, Note_on_c, 0, 40, 0
1, 239035, Note_on_c, 0, 59, 0
1, 239035, Note_on_c, 0, 64, 0
1, 239040, Note_on_c, 0, 59, 19
1, 239040, Note_on_c, 0, 64, 23
1, 239040, Note_on_c, 0, 40, 16
1, 239515, Note_on_c, 0, 40, 0
1, 239515, Note_on_c, 0, 59, 0
1, 239515, Note_on_c, 0, 64, 0
1, 239520, Tempo, 547995
1, 239520, Note_on_c, 0, 56, 0
1, 239520, Note_on_c, 0, 68, 0
1, 239532, Control_c, 0, 64, 0
1, 239760, Note_on_c, 0, 62, 40
1, 239806, Control_c, 0, 64, 127
1, 240000, Tempo, 537634
1, 240000, Note_on_c, 0, 64, 37
1, 240000, Note_on_c, 0, 40, 39
1, 240240, Note_on_c, 0, 68, 37
1, 240475, Note_on_c, 0, 40, 0
1, 240480, Tempo, 495786
1, 240480, Note_on_c, 0, 68, 0
1, 240480, Note_on_c, 0, 72, 41
1, 240480, Note_on_c, 0, 40, 39
1, 240720, Tempo, 532387
1, 240720, Note_on_c, 0, 72, 0
1, 240720, Note_on_c, 0, 71, 39
1, 240955, Note_on_c, 0, 40, 0
1, 240960, Tempo, 515597
1, 240960, Note_on_c, 0, 62, 0
1, 240960, Note_on_c, 0, 64, 0
1, 240960, Note_on_c, 0, 71, 0
1, 240960, Note_on_c, 0, 69, 37
1, 240968, Control_c, 0, 64, 0
1, 241440, Tempo, 488043
1, 241440, Note_on_c, 0, 60, 23
1, 241440, Note_on_c, 0, 64, 28
1, 241440, Note_on_c, 0, 40, 22
1, 241554, Control_c, 0, 64, 127
1, 241915, Note_on_c, 0, 40, 0
1, 241915, Note_on_c, 0, 64, 0
1, 241915, Note_on_c, 0, 60, 0
1, 241920, Tempo, 527612
1, 241920, Note_on_c, 0, 60, 23
1, 241920, Note_on_c, 0, 64, 28
1, 241920, Note_on_c, 0, 40, 22
1, 242395, Note_on_c, 0, 40, 0
1, 242395, Note_on_c, 0, 64, 0
1, 242395, Note_on_c, 0, 60, 0
1, 242400, Tempo, 491803
1, 242400, Note_on_c, 0, 69, 0
1, 242400, Note_on_c, 0, 76, 53
1, 242400, Note_on_c, 0, 64, 41
1, 242880, Tempo, 466200
1, 242880, Note_on_c, 0, 72, 32
1, 242880, Note_on_c, 0, 69, 26
1, 242880, Note_on_c, 0, 60, 24
1, 242880, Note_on_c, 0, 52, 19
1, 242880, Note_on_c, 0, 57, 19
1, 243355, Note_on_c, 0, 57, 0
1, 243355, Note_on_c, 0, 60, 0
1, 243355, Note_on_c, 0, 69, 0
1, 243355, Note_on_c, 0, 72, 0
1, 243355, Note_on_c, 0, 52, 0
1, 243360, Tempo, 517241
1, 243360, Note_on_c, 0, 69, 26
1, 243360, Note_on_c, 0, 72, 32
1, 243360, Note_on_c, 0, 52, 19
1, 243360, Note_on_c, 0, 60, 24
1, 243360, Note_on_c, 0, 57, 19
1, 243835, Note_on_c, 0, 57, 0
1, 243835, Note_on_c, 0, 52, 0
1, 243835, Note_on_c, 0, 72, 0
1, 243835, Note_on_c, 0, 69, 0
1, 243835, Note_on_c, 0, 60, 0
1, 243840, Tempo, 502092
1, 243840, Note_on_c, 0, 64, 0
1, 243840, Note_on_c, 0, 76, 0
1, 243840, Note_on_c, 0, 78, 53
1, 243840, Note_on_c, 0, 66, 41
1, 244320, Note_on_c, 0, 64, 26
1, 244320, Note_on_c, 0, 69, 26
1, 244320, Note_on_c, 0, 72, 32
1, 244320, Note_on_c, 0, 52, 19
1, 244320, Note_on_c, 0, 60, 24
1, 244320, Note_on_c, 0, 57, 19
1, 244440, Tempo, 461609
1, 244795, Note_on_c, 0, 57, 0
1, 244795, Note_on_c, 0, 60, 0
1, 244795, Note_on_c, 0, 72, 0
1, 244795, Note_on_c, 0, 69, 0
1, 244795, Note_on_c, 0, 64, 0
1, 244795, Note_on_c, 0, 52, 0
1, 244800, Note_on_c, 0, 69, 26
1, 244800, Note_on_c, 0, 72, 32
1, 244800, Note_on_c, 0, 64, 26
1, 244800, Note_on_c, 0, 60, 24
1, 244800, Note_on_c, 0, 52, 19
1, 244800, Note_on_c, 0, 57, 19
1, 244920, Tempo, 475662
1, 245275, Note_on_c, 0, 57, 0
1, 245275, Note_on_c, 0, 52, 0
1, 245275, Note_on_c, 0, 64, 0
1, 245275, Note_on_c, 0, 72, 0
1, 245275, Note_on_c, 0, 69, 0
1, 245275, Note_on_c, 0, 60, 0
1, 245280, Tempo, 533333
1, 245280, Note_on_c, 0, 66, 0
1, 245280, Note_on_c, 0, 78, 0
1, 245296, Control_c, 0, 64, 0
1, 245520, Note_on_c, 0, 60, 40
1, 245566, Control_c, 0, 64, 127
1, 245760, Tempo, 521739
1, 245760, Note_on_c, 0, 64, 37
1, 245760, Note_on_c, 0, 40, 39
1, 246000, Note_on_c, 0, 68, 37
1, 246235, Note_on_c, 0, 40, 0
1, 246240, Tempo, 495786
1, 246240, Note_on_c, 0, 68, 0
1, 246240, Note_on_c, 0, 71, 41
1, 246240, Note_on_c, 0, 40, 39
1, 246480, Tempo, 506500
1, 246480, Note_on_c, 0, 71, 0
1, 246480, Note_on_c, 0, 69, 39
1, 246715, Note_on_c, 0, 40, 0
1, 246720, Tempo, 515597
1, 246720, Note_on_c, 0, 60, 0
1, 246720, Note_on_c, 0, 64, 0
1, 246720, Note_on_c, 0, 69, 0
1, 246720, Note_on_c, 0, 69, 37
1, 246726, Control_c, 0, 64, 0
1, 247200, Tempo, 497512
1, 247200, Note_on_c, 0, 64, 28
1, 247200, Note_on_c, 0, 60, 23
1, 247200, Note_on_c, 0, 40, 22
1, 247314, Control_c, 0, 64, 127
1, 247675, Note_on_c, 0, 40, 0
1, 247675, Note_on_c, 0, 60, 0
1, 247675, Note_on_c, 0, 64, 0
1, 247680, Tempo, 527612
1, 247680, Note_on_c, 0, 60, 23
1, 247680, Note_on_c, 0, 64, 28
1, 247680, Note_on_c, 0, 40, 22
1, 248155, Note_on_c, 0, 40, 0
1, 248155, Note_on_c, 0, 64, 0
1, 248155, Note_on_c, 0, 60, 0
1, 248160, Tempo, 489796
1, 248160, Note_on_c, 0, 69, 0
1, 248160, Note_on_c, 0, 78, 55
1, 248160, Note_on_c, 0, 66, 45
1, 248640, Tempo, 468530
1, 248640, Note_on_c, 0, 64, 28
1, 248640, Note_on_c, 0, 69, 28
1, 248640, Note_on_c, 0, 72, 34
1, 248640, Note_on_c, 0, 52, 21
1, 248640, Note_on_c, 0, 60, 26
1, 248640, Note_on_c, 0, 57, 21
1, 248760, Tempo, 470884
1, 249115, Note_on_c, 0, 57, 0
1, 249115, Note_on_c, 0, 60, 0
1, 249115, Note_on_c, 0, 72, 0
1, 249115, Note_on_c, 0, 69, 0
1, 249115, Note_on_c, 0, 64, 0
1, 249115, Note_on_c, 0, 52, 0
1, 249120, Tempo, 513303
1, 249120, Note_on_c, 0, 64, 28
1, 249120, Note_on_c, 0, 69, 28
1, 249120, Note_on_c, 0, 72, 36
1, 249120, Note_on_c, 0, 57, 21
1, 249120, Note_on_c, 0, 52, 21
1, 249120, Note_on_c, 0, 60, 26
1, 249595, Note_on_c, 0, 60, 0
1, 249595, Note_on_c, 0, 52, 0
1, 249595, Note_on_c, 0, 72, 0
1, 249595, Note_on_c, 0, 69, 0
1, 249595, Note_on_c, 0, 64, 0
1, 249595, Note_on_c, 0, 57, 0
1, 249600, Tempo, 497925
1, 249600, Note_on_c, 0, 66, 0
1, 249600, Note_on_c, 0, 78, 0
1, 249600, Note_on_c, 0, 80, 58
1, 249600, Note_on_c, 0, 68, 47
1, 249606, Control_c, 0, 64, 0
1, 249812, Control_c, 0, 64, 127
1, 250080, Tempo, 489796
1, 250080, Note_on_c, 0, 69, 30
1, 250080, Note_on_c, 0, 72, 30
1, 250080, Note_on_c, 0, 75, 36
1, 250080, Note_on_c, 0, 52, 21
1, 250080, Note_on_c, 0, 60, 28
1, 250080, Note_on_c, 0, 57, 21
1, 250200, Tempo, 468530
1, 250555, Note_on_c, 0, 57, 0
1, 250555, Note_on_c, 0, 60, 0
1, 250555, Note_on_c, 0, 75, 0
1, 250555, Note_on_c, 0, 72, 0
1, 250555, Note_on_c, 0, 69, 0
1, 250555, Note_on_c, 0, 52, 0
1, 250560, Tempo, 488043
1, 250560, Note_on_c, 0, 75, 37
1, 250560, Note_on_c, 0, 72, 30
1, 250560, Note_on_c, 0, 69, 30
1, 250560, Note_on_c, 0, 57, 21
1, 250560, Note_on_c, 0, 52, 21
1, 250560, Note_on_c, 0, 60, 28
1, 251035, Note_on_c, 0, 60, 0
1, 251035, Note_on_c, 0, 52, 0
1, 251035, Note_on_c, 0, 69, 0
1, 251035, Note_on_c, 0, 72, 0
1, 251035, Note_on_c, 0, 75, 0
1, 251035, Note_on_c, 0, 57, 0
1, 251040, Tempo, 501924
1, 251040, Note_on_c, 0, 68, 0
1, 251040, Note_on_c, 0, 80, 0
1, 251040, Note_on_c, 0, 78, 62
1, 251040, Note_on_c, 0, 66, 50
1, 251050, Control_c, 0, 64, 0
1, 251322, Control_c, 0, 64, 127
1, 251520, Tempo, 478088
1, 251520, Note_on_c, 0, 69, 31
1, 251520, Note_on_c, 0, 75, 39
1, 251520, Note_on_c, 0, 72, 31
1, 251520, Note_on_c, 0, 57, 23
1, 251520, Note_on_c, 0, 52, 23
1, 251520, Note_on_c, 0, 60, 28
1, 252000, Tempo, 513303
1, 252000, Note_on_c, 0, 60, 0
1, 252000, Note_on_c, 0, 78, 0
1, 252000, Note_on_c, 0, 72, 0
1, 252000, Note_on_c, 0, 66, 0
1, 252000, Note_on_c, 0, 69, 0
1, 252000, Note_on_c, 0, 75, 0
1, 252000, Note_on_c, 0, 57, 0
1, 252000, Note_on_c, 0, 52, 0
1, 252240, Note_on_c, 0, 80, 65
1, 252240, Note_on_c, 0, 68, 53
1, 252247, Control_c, 0, 64, 0
1, 252460, Note_on_c, 0, 68, 0
1, 252460, Note_on_c, 0, 80, 0
1, 252480, Tempo, 500000
1, 252480, Note_on_c, 0, 80, 66
1, 252480, Note_on_c, 0, 68, 53
1, 252520, Tempo, 481928
1, 252629, Control_c, 0, 64, 127
1, 252960, Tempo, 483871
1, 252960, Note_on_c, 0, 75, 45
1, 252960, Note_on_c, 0, 72, 35
1, 252960, Note_on_c, 0, 69, 35
1, 252960, Note_on_c, 0, 52, 25
1, 252960, Note_on_c, 0, 60, 32
1, 252960, Note_on_c, 0, 57, 25
1, 253000, Tempo, 472441
1, 253080, Tempo, 463894
1, 253435, Note_on_c, 0, 57, 0
1, 253435, Note_on_c, 0, 60, 0
1, 253435, Note_on_c, 0, 69, 0
1, 253435, Note_on_c, 0, 72, 0
1, 253435, Note_on_c, 0, 75, 0
1, 253435, Note_on_c, 0, 52, 0
1, 253440, Tempo, 481928
1, 253440, Note_on_c, 0, 75, 45
1, 253440, Note_on_c, 0, 72, 35
1, 253440, Note_on_c, 0, 69, 35
1, 253440, Note_on_c, 0, 52, 26
1, 253440, Note_on_c, 0, 60, 33
1, 253440, Note_on_c, 0, 57, 26
1, 253480, Tempo, 483871
1, 253915, Note_on_c, 0, 57, 0
1, 253915, Note_on_c, 0, 60, 0
1, 253915, Note_on_c, 0, 69, 0
1, 253915, Note_on_c, 0, 72, 0
1, 253915, Note_on_c, 0, 75, 0
1, 253915, Note_on_c, 0, 52, 0
1, 253920, Tempo, 501924
1, 253920, Note_on_c, 0, 68, 0
1, 253920, Note_on_c, 0, 80, 0
1, 253920, Note_on_c, 0, 78, 69
1, 253920, Note_on_c, 0, 66, 57
1, 253931, Control_c, 0, 64, 0
1, 254202, Control_c, 0, 64, 127
1, 254400, Tempo, 463320
1, 254400, Note_on_c, 0, 69, 38
1, 254400, Note_on_c, 0, 72, 38
1, 254400, Note_on_c, 0, 75, 47
1, 254400, Note_on_c, 0, 60, 34
1, 254400, Note_on_c, 0, 52, 27
1, 254400, Note_on_c, 0, 57, 27
1, 254880, Tempo, 489796
1, 254880, Note_on_c, 0, 57, 0
1, 254880, Note_on_c, 0, 78, 0
1, 254880, Note_on_c, 0, 75, 0
1, 254880, Note_on_c, 0, 66, 0
1, 254880, Note_on_c, 0, 69, 0
1, 254880, Note_on_c, 0, 72, 0
1, 254880, Note_on_c, 0, 60, 0
1, 254880, Note_on_c, 0, 52, 0
1, 255120, Note_on_c, 0, 80, 71
1, 255120, Note_on_c, 0, 68, 59
1, 255126, Control_c, 0, 64, 0
1, 255340, Note_on_c, 0, 68, 0
1, 255340, Note_on_c, 0, 80, 0
1, 255360, Tempo, 468750
1, 255360, Note_on_c, 0, 80, 74
1, 255360, Note_on_c, 0, 68, 59
1, 255509, Control_c, 0, 64, 127
1, 255840, Tempo, 446229
1, 255840, Note_on_c, 0, 75, 50
1, 255840, Note_on_c, 0, 72, 39
1, 255840, Note_on_c, 0, 69, 39
1, 255840, Note_on_c, 0, 52, 29
1, 255840, Note_on_c, 0, 57, 29
1, 255840, Note_on_c, 0, 60, 36
1, 256315, Note_on_c, 0, 60, 0
1, 256315, Note_on_c, 0, 57, 0
1, 256315, Note_on_c, 0, 69, 0
1, 256315, Note_on_c, 0, 72, 0
1, 256315, Note_on_c, 0, 75, 0
1, 256315, Note_on_c, 0, 52, 0
1, 256320, Tempo, 468750
1, 256320, Note_on_c, 0, 75, 50
1, 256320, Note_on_c, 0, 72, 40
1, 256320, Note_on_c, 0, 69, 40
1, 256320, Note_on_c, 0, 52, 29
1, 256320, Note_on_c, 0, 60, 37
1, 256320, Note_on_c, 0, 57, 29
1, 256795, Note_on_c, 0, 57, 0
1, 256795, Note_on_c, 0, 60, 0
1, 256795, Note_on_c, 0, 69, 0
1, 256795, Note_on_c, 0, 72, 0
1, 256795, Note_on_c, 0, 75, 0
1, 256795, Note_on_c, 0, 52, 0
1, 256800, Tempo, 481928
1, 256800, Note_on_c, 0, 68, 0
1, 256800, Note_on_c, 0, 80, 0
1, 256800, Note_on_c, 0, 78, 81
1, 256800, Note_on_c, 0, 66, 65
1, 256811, Control_c, 0, 64, 0
1, 257082, Control_c, 0, 64, 127
1, 257280, Tempo, 444115
1, 257280, Note_on_c, 0, 75, 53
1, 257280, Note_on_c, 0, 69, 42
1, 257280, Note_on_c, 0, 72, 42
1, 257280, Note_on_c, 0, 57, 31
1, 257280, Note_on_c, 0, 52, 31
1, 257280, Note_on_c, 0, 60, 39
1, 257760, Tempo, 470588
1, 257760, Note_on_c, 0, 60, 0
1, 257760, Note_on_c, 0, 78, 0
1, 257760, Note_on_c, 0, 72, 0
1, 257760, Note_on_c, 0, 66, 0
1, 257760, Note_on_c, 0, 75, 0
1, 257760, Note_on_c, 0, 69, 0
1, 257760, Note_on_c, 0, 57, 0
1, 257760, Note_on_c, 0, 52, 0
1, 258000, Note_on_c, 0, 80, 77
1, 258000, Note_on_c, 0, 68, 61
1, 258240, Tempo, 442804
1, 258240, Note_on_c, 0, 68, 0
1, 258240, Note_on_c, 0, 80, 0
1, 258240, Note_on_c, 0, 81, 78
1, 258240, Note_on_c, 0, 69, 63
1, 258245, Control_c, 0, 64, 0
1, 258389, Control_c, 0, 64, 127
1, 258720, Tempo, 419580
1, 258720, Note_on_c, 0, 78, 57
1, 258720, Note_on_c, 0, 72, 47
1, 258720, Note_on_c, 0, 75, 47
1, 258720, Note_on_c, 0, 57, 34
1, 258720, Note_on_c, 0, 52, 34
1, 258720, Note_on_c, 0, 60, 41
1, 259195, Note_on_c, 0, 60, 0
1, 259195, Note_on_c, 0, 52, 0
1, 259195, Note_on_c, 0, 75, 0
1, 259195, Note_on_c, 0, 72, 0
1, 259195, Note_on_c, 0, 78, 0
1, 259195, Note_on_c, 0, 57, 0
1, 259200, Note_on_c, 0, 78, 59
1, 259200, Note_on_c, 0, 75, 48
1, 259200, Note_on_c, 0, 72, 48
1, 259200, Note_on_c, 0, 60, 46
1, 259200, Note_on_c, 0, 52, 34
1, 259200, Note_on_c, 0, 57, 34
1, 259675, Note_on_c, 0, 57, 0
1, 259675, Note_on_c, 0, 52, 0
1, 259675, Note_on_c, 0, 72, 0
1, 259675, Note_on_c, 0, 75, 0
1, 259675, Note_on_c, 0, 78, 0
1, 259675, Note_on_c, 0, 60, 0
1, 259680, Tempo, 436364
1, 259680, Note_on_c, 0, 69, 0
1, 259680, Note_on_c, 0, 81, 0
1, 259680, Note_on_c, 0, 80, 94
1, 259680, Note_on_c, 0, 68, 74
1, 259688, Control_c, 0, 64, 0
1, 259962, Control_c, 0, 64, 127
1, 260160, Tempo, 406780
1, 260160, Note_on_c, 0, 78, 63
1, 260160, Note_on_c, 0, 75, 50
1, 260160, Note_on_c, 0, 72, 50
1, 260160, Note_on_c, 0, 57, 35
1, 260160, Note_on_c, 0, 52, 35
1, 260160, Note_on_c, 0, 60, 46
1, 260460, Note_on_c, 0, 60, 0
1, 260460, Note_on_c, 0, 52, 0
1, 260460, Note_on_c, 0, 68, 0
1, 260460, Note_on_c, 0, 57, 0
1, 260460, Note_on_c, 0, 52, 35
1, 260520, Note_on_c, 0, 57, 36
1, 260580, Note_on_c, 0, 60, 46
1, 260635, Note_on_c, 0, 75, 0
1, 260635, Note_on_c, 0, 72, 0
1, 260635, Note_on_c, 0, 78, 0
1, 260640, Tempo, 441176
1, 260640, Note_on_c, 0, 80, 0
1, 260640, Note_on_c, 0, 75, 50
1, 260640, Note_on_c, 0, 72, 50
1, 260640, Note_on_c, 0, 78, 61
1, 260640, Note_on_c, 0, 81, 100
1, 260640, Note_on_c, 0, 69, 80
1, 261115, Note_on_c, 0, 81, 0
1, 261115, Note_on_c, 0, 75, 0
1, 261115, Note_on_c, 0, 72, 0
1, 261115, Note_on_c, 0, 78, 0
1, 261120, Tempo, 387097
1, 261120, Note_on_c, 0, 60, 0
1, 261120, Note_on_c, 0, 69, 0
1, 261120, Note_on_c, 0, 57, 0
1, 261120, Note_on_c, 0, 52, 0
1, 261120, Note_on_c, 0, 71, 82
1, 261120, Note_on_c, 0, 74, 82
1, 261120, Note_on_c, 0, 83, 99
1, 261120, Note_on_c, 0, 80, 82
1, 261120, Note_on_c, 0, 76, 82
1, 261120, Note_on_c, 0, 28, 70
1, 261120, Note_on_c, 0, 40, 84
1, 261124, Control_c, 0, 64, 0
1, 261451, Control_c, 0, 64, 127
1, 261600, Tempo, 361446
1, 261600, Note_on_c, 0, 40, 0
1, 261600, Note_on_c, 0, 28, 0
1, 261600, Note_on_c, 0, 52, 61
1, 261600, Note_on_c, 0, 62, 72
1, 261600, Note_on_c, 0, 56, 61
1, 262080, Note_on_c, 0, 56, 0
1, 262080, Note_on_c, 0, 62, 0
1, 262080, Note_on_c, 0, 52, 0
1, 262080, Note_on_c, 0, 62, 61
1, 262080, Note_on_c, 0, 64, 73
1, 262080, Note_on_c, 0, 56, 61
1, 262560, Tempo, 372671
1, 262560, Note_on_c, 0, 56, 0
1, 262560, Note_on_c, 0, 80, 0
1, 262560, Note_on_c, 0, 76, 0
1, 262560, Note_on_c, 0, 74, 0
1, 262560, Note_on_c, 0, 83, 0
1, 262560, Note_on_c, 0, 71, 0
1, 262560, Note_on_c, 0, 62, 0
1, 262560, Note_on_c, 0, 64, 0
1, 262560, Note_on_c, 0, 76, 81
1, 262560, Note_on_c, 0, 74, 81
1, 262560, Note_on_c, 0, 80, 81
1, 262560, Note_on_c, 0, 85, 96
1, 262560, Note_on_c, 0, 68, 84
1, 262560, Note_on_c, 0, 59, 70
1, 262560, Note_on_c, 0, 62, 70
1, 263040, Tempo, 348918
1, 263040, Note_on_c, 0, 62, 0
1, 263040, Note_on_c, 0, 68, 0
1, 263040, Note_on_c, 0, 59, 0
1, 263040, Note_on_c, 0, 64, 72
1, 263040, Note_on_c, 0, 56, 61
1, 263040, Note_on_c, 0, 62, 61
1, 263520, Note_on_c, 0, 62, 0
1, 263520, Note_on_c, 0, 64, 0
1, 263520, Note_on_c, 0, 74, 0
1, 263520, Note_on_c, 0, 85, 0
1, 263520, Note_on_c, 0, 76, 0
1, 263520, Note_on_c, 0, 56, 0
1, 263520, Note_on_c, 0, 80, 0
1, 263520, Note_on_c, 0, 74, 77
1, 263520, Note_on_c, 0, 76, 77
1, 263520, Note_on_c, 0, 80, 77
1, 263520, Note_on_c, 0, 85, 91
1, 263520, Note_on_c, 0, 62, 73
1, 263520, Note_on_c, 0, 52, 61
1, 263520, Note_on_c, 0, 56, 61
1, 264000, Tempo, 348837
1, 264000, Note_on_c, 0, 56, 0
1, 264000, Note_on_c, 0, 62, 0
1, 264000, Note_on_c, 0, 76, 0
1, 264000, Note_on_c, 0, 80, 0
1, 264000, Note_on_c, 0, 74, 0
1, 264000, Note_on_c, 0, 52, 0
1, 264000, Note_on_c, 0, 85, 0
1, 264000, Note_on_c, 0, 81, 96
1, 264000, Note_on_c, 0, 73, 81
1, 264000, Note_on_c, 0, 69, 81
1, 264000, Note_on_c, 0, 45, 84
1, 264000, Note_on_c, 0, 33, 70
1, 264010, Control_c, 0, 64, 0
1, 264320, Control_c, 0, 64, 127
1, 264480, Tempo, 350201
1, 264480, Note_on_c, 0, 33, 0
1, 264480, Note_on_c, 0, 45, 0
1, 264480, Note_on_c, 0, 52, 61
1, 264480, Note_on_c, 0, 61, 73
1, 264960, Note_on_c, 0, 61, 0
1, 264960, Note_on_c, 0, 52, 0
1, 264960, Note_on_c, 0, 57, 62
1, 264960, Note_on_c, 0, 64, 74
1, 265440, Tempo, 359238
1, 265440, Note_on_c, 0, 64, 0
1, 265440, Note_on_c, 0, 69, 0
1, 265440, Note_on_c, 0, 81, 0
1, 265440, Note_on_c, 0, 73, 0
1, 265440, Note_on_c, 0, 57, 0
1, 265440, Note_on_c, 0, 81, 89
1, 265440, Note_on_c, 0, 85, 89
1, 265440, Note_on_c, 0, 93, 105
1, 265440, Note_on_c, 0, 61, 70
1, 265440, Note_on_c, 0, 69, 84
1, 265920, Tempo, 346460
1, 265920, Note_on_c, 0, 69, 0
1, 265920, Note_on_c, 0, 61, 0
1, 265920, Note_on_c, 0, 64, 73
1, 265920, Note_on_c, 0, 57, 61
1, 266400, Note_on_c, 0, 57, 0
1, 266400, Note_on_c, 0, 81, 0
1, 266400, Note_on_c, 0, 93, 0
1, 266400, Note_on_c, 0, 85, 0
1, 266400, Note_on_c, 0, 64, 0
1, 266400, Note_on_c, 0, 80, 85
1, 266400, Note_on_c, 0, 85, 85
1, 266400, Note_on_c, 0, 92, 101
1, 266400, Note_on_c, 0, 61, 73
1, 266400, Note_on_c, 0, 52, 61
1, 266880, Note_on_c, 0, 52, 0
1, 266880, Note_on_c, 0, 92, 0
1, 266880, Note_on_c, 0, 80, 0
1, 266880, Note_on_c, 0, 85, 0
1, 266880, Note_on_c, 0, 61, 0
1, 266880, Note_on_c, 0, 78, 85
1, 266880, Note_on_c, 0, 85, 89
1, 266880, Note_on_c, 0, 90, 103
1, 266880, Note_on_c, 0, 47, 84
1, 266880, Note_on_c, 0, 35, 70
1, 266888, Control_c, 0, 64, 0
1, 266920, Tempo, 355303
1, 267155, Control_c, 0, 64, 127
1, 267360, Tempo, 343840
1, 267360, Note_on_c, 0, 35, 0
1, 267360, Note_on_c, 0, 47, 0
1, 267360, Note_on_c, 0, 59, 73
1, 267360, Note_on_c, 0, 54, 61
1, 267840, Tempo, 346821
1, 267840, Note_on_c, 0, 54, 0
1, 267840, Note_on_c, 0, 59, 0
1, 267840, Note_on_c, 0, 63, 73
1, 267840, Note_on_c, 0, 57, 61
1, 268320, Tempo, 357910
1, 268320, Note_on_c, 0, 57, 0
1, 268320, Note_on_c, 0, 90, 0
1, 268320, Note_on_c, 0, 78, 0
1, 268320, Note_on_c, 0, 85, 0
1, 268320, Note_on_c, 0, 63, 0
1, 268320, Note_on_c, 0, 83, 86
1, 268320, Note_on_c, 0, 87, 86
1, 268320, Note_on_c, 0, 92, 102
1, 268320, Note_on_c, 0, 66, 84
1, 268320, Note_on_c, 0, 59, 70
1, 268800, Note_on_c, 0, 59, 0
1, 268800, Note_on_c, 0, 66, 0
1, 268800, Note_on_c, 0, 57, 61
1, 268800, Note_on_c, 0, 63, 72
1, 268840, Tempo, 345821
1, 269280, Note_on_c, 0, 63, 0
1, 269280, Note_on_c, 0, 83, 0
1, 269280, Note_on_c, 0, 92, 0
1, 269280, Note_on_c, 0, 87, 0
1, 269280, Note_on_c, 0, 57, 0
1, 269280, Note_on_c, 0, 92, 93
1, 269280, Note_on_c, 0, 87, 79
1, 269280, Note_on_c, 0, 81, 79
1, 269280, Note_on_c, 0, 59, 72
1, 269280, Note_on_c, 0, 54, 61
1, 269320, Tempo, 348837
1, 269760, Tempo, 356591
1, 269760, Note_on_c, 0, 54, 0
1, 269760, Note_on_c, 0, 81, 0
1, 269760, Note_on_c, 0, 92, 0
1, 269760, Note_on_c, 0, 87, 0
1, 269760, Note_on_c, 0, 59, 0
1, 269760, Note_on_c, 0, 88, 103
1, 269760, Note_on_c, 0, 80, 88
1, 269760, Note_on_c, 0, 76, 88
1, 269760, Note_on_c, 0, 52, 84
1, 269760, Note_on_c, 0, 40, 70
1, 269766, Control_c, 0, 64, 0
1, 270057, Control_c, 0, 64, 127
1, 270240, Tempo, 342857
1, 270240, Note_on_c, 0, 40, 0
1, 270240, Note_on_c, 0, 52, 0
1, 270240, Note_on_c, 0, 52, 62
1, 270240, Note_on_c, 0, 59, 74
1, 270720, Tempo, 345821
1, 270720, Note_on_c, 0, 59, 0
1, 270720, Note_on_c, 0, 52, 0
1, 270720, Note_on_c, 0, 56, 62
1, 270720, Note_on_c, 0, 64, 74
1, 271200, Tempo, 357910
1, 271200, Note_on_c, 0, 64, 0
1, 271200, Note_on_c, 0, 76, 0
1, 271200, Note_on_c, 0, 88, 0
1, 271200, Note_on_c, 0, 80, 0
1, 271200, Note_on_c, 0, 56, 0
1, 271200, Note_on_c, 0, 88, 113
1, 271200, Note_on_c, 0, 76, 96
1, 271200, Note_on_c, 0, 68, 84
1, 271200, Note_on_c, 0, 59, 70
1, 271680, Tempo, 345224
1, 271680, Note_on_c, 0, 59, 0
1, 271680, Note_on_c, 0, 68, 0
1, 271680, Note_on_c, 0, 56, 62
1, 271680, Note_on_c, 0, 64, 74
1, 272160, Note_on_c, 0, 64, 0
1, 272160, Note_on_c, 0, 88, 0
1, 272160, Note_on_c, 0, 76, 0
1, 272160, Note_on_c, 0, 56, 0
1, 272160, Note_on_c, 0, 76, 96
1, 272160, Note_on_c, 0, 88, 113
1, 272160, Note_on_c, 0, 59, 74
1, 272160, Note_on_c, 0, 52, 62
1, 272640, Tempo, 354003
1, 272640, Note_on_c, 0, 52, 0
1, 272640, Note_on_c, 0, 76, 0
1, 272640, Note_on_c, 0, 88, 0
1, 272640, Note_on_c, 0, 59, 0
1, 272640, Note_on_c, 0, 81, 86
1, 272640, Note_on_c, 0, 76, 94
1, 272640, Note_on_c, 0, 88, 113
1, 272640, Control_c, 0, 64, 0
1, 272640, Note_on_c, 0, 42, 70
1, 272640, Note_on_c, 0, 54, 84
1, 272648, Control_c, 0, 64, 0
1, 272937, Control_c, 0, 64, 127
1, 273120, Tempo, 344828
1, 273120, Note_on_c, 0, 54, 0
1, 273120, Note_on_c, 0, 42, 0
1, 273120, Note_on_c, 0, 54, 62
1, 273120, Note_on_c, 0, 62, 74
1, 273600, Tempo, 346821
1, 273600, Note_on_c, 0, 62, 0
1, 273600, Note_on_c, 0, 88, 0
1, 273600, Note_on_c, 0, 54, 0
1, 273600, Note_on_c, 0, 76, 0
1, 273600, Note_on_c, 0, 74, 82
1, 273600, Note_on_c, 0, 86, 97
1, 273600, Note_on_c, 0, 69, 74
1, 273600, Note_on_c, 0, 57, 62
1, 274080, Tempo, 354003
1, 274080, Note_on_c, 0, 57, 0
1, 274080, Note_on_c, 0, 86, 0
1, 274080, Note_on_c, 0, 81, 0
1, 274080, Note_on_c, 0, 74, 0
1, 274080, Note_on_c, 0, 69, 0
1, 274080, Note_on_c, 0, 86, 95
1, 274080, Note_on_c, 0, 74, 81
1, 274080, Note_on_c, 0, 35, 70
1, 274080, Note_on_c, 0, 47, 84
1, 274094, Control_c, 0, 64, 0
1, 274207, Control_c, 0, 64, 127
1, 274240, Note_on_c, 0, 74, 0
1, 274240, Note_on_c, 0, 86, 0
1, 274240, Note_on_c, 0, 76, 79
1, 274240, Note_on_c, 0, 88, 93
1, 274400, Note_on_c, 0, 88, 0
1, 274400, Note_on_c, 0, 76, 0
1, 274400, Note_on_c, 0, 74, 75
1, 274400, Note_on_c, 0, 86, 90
1, 274560, Tempo, 347685
1, 274560, Note_on_c, 0, 86, 0
1, 274560, Note_on_c, 0, 47, 0
1, 274560, Note_on_c, 0, 35, 0
1, 274560, Note_on_c, 0, 74, 0
1, 274560, Note_on_c, 0, 73, 82
1, 274560, Note_on_c, 0, 85, 97
1, 274560, Note_on_c, 0, 54, 62
1, 274560, Note_on_c, 0, 62, 74
1, 274800, Note_on_c, 0, 85, 0
1, 274800, Note_on_c, 0, 73, 0
1, 274800, Note_on_c, 0, 86, 93
1, 274800, Note_on_c, 0, 74, 79
1, 274840, Tempo, 348837
1, 275040, Note_on_c, 0, 74, 0
1, 275040, Note_on_c, 0, 86, 0
1, 275040, Note_on_c, 0, 54, 0
1, 275040, Note_on_c, 0, 90, 97
1, 275040, Note_on_c, 0, 78, 82
1, 275040, Note_on_c, 0, 69, 74
1, 275040, Note_on_c, 0, 59, 62
1, 275280, Tempo, 356083
1, 275280, Note_on_c, 0, 78, 0
1, 275280, Note_on_c, 0, 90, 0
1, 275280, Note_on_c, 0, 88, 92
1, 275280, Note_on_c, 0, 76, 78
1, 275520, Tempo, 354003
1, 275520, Note_on_c, 0, 76, 0
1, 275520, Note_on_c, 0, 62, 0
1, 275520, Note_on_c, 0, 59, 0
1, 275520, Note_on_c, 0, 69, 0
1, 275520, Note_on_c, 0, 88, 0
1, 275520, Note_on_c, 0, 74, 94
1, 275520, Note_on_c, 0, 80, 86
1, 275520, Note_on_c, 0, 86, 113
1, 275520, Control_c, 0, 64, 0
1, 275520, Note_on_c, 0, 52, 84
1, 275520, Note_on_c, 0, 40, 70
1, 275520, Control_c, 0, 64, 0
1, 275817, Control_c, 0, 64, 127
1, 276000, Tempo, 343840
1, 276000, Note_on_c, 0, 40, 0
1, 276000, Note_on_c, 0, 52, 0
1, 276000, Note_on_c, 0, 52, 62
1, 276000, Note_on_c, 0, 61, 74
1, 276480, Tempo, 346821
1, 276480, Note_on_c, 0, 61, 0
1, 276480, Note_on_c, 0, 86, 0
1, 276480, Note_on_c, 0, 52, 0
1, 276480, Note_on_c, 0, 74, 0
1, 276480, Note_on_c, 0, 73, 82
1, 276480, Note_on_c, 0, 85, 97
1, 276480, Note_on_c, 0, 56, 62
1, 276480, Note_on_c, 0, 68, 74
1, 276960, Tempo, 354003
1, 276960, Note_on_c, 0, 68, 0
1, 276960, Note_on_c, 0, 85, 0
1, 276960, Note_on_c, 0, 80, 0
1, 276960, Note_on_c, 0, 73, 0
1, 276960, Note_on_c, 0, 56, 0
1, 276960, Note_on_c, 0, 85, 95
1, 276960, Note_on_c, 0, 73, 81
1, 276960, Note_on_c, 0, 45, 84
1, 276960, Note_on_c, 0, 33, 70
1, 276975, Control_c, 0, 64, 0
1, 277087, Control_c, 0, 64, 127
1, 277120, Note_on_c, 0, 73, 0
1, 277120, Note_on_c, 0, 85, 0
1, 277120, Note_on_c, 0, 74, 79
1, 277120, Note_on_c, 0, 86, 93
1, 277280, Note_on_c, 0, 86, 0
1, 277280, Note_on_c, 0, 74, 0
1, 277280, Note_on_c, 0, 73, 75
1, 277280, Note_on_c, 0, 85, 90
1, 277440, Tempo, 347685
1, 277440, Note_on_c, 0, 85, 0
1, 277440, Note_on_c, 0, 33, 0
1, 277440, Note_on_c, 0, 45, 0
1, 277440, Note_on_c, 0, 73, 0
1, 277440, Note_on_c, 0, 72, 82
1, 277440, Note_on_c, 0, 84, 97
1, 277440, Note_on_c, 0, 61, 74
1, 277440, Note_on_c, 0, 52, 62
1, 277680, Tempo, 349854
1, 277680, Note_on_c, 0, 84, 0
1, 277680, Note_on_c, 0, 72, 0
1, 277680, Note_on_c, 0, 85, 93
1, 277680, Note_on_c, 0, 73, 79
1, 277920, Note_on_c, 0, 73, 0
1, 277920, Note_on_c, 0, 85, 0
1, 277920, Note_on_c, 0, 52, 0
1, 277920, Note_on_c, 0, 76, 82
1, 277920, Note_on_c, 0, 88, 97
1, 277920, Note_on_c, 0, 68, 74
1, 277920, Note_on_c, 0, 57, 62
1, 278160, Note_on_c, 0, 88, 0
1, 278160, Note_on_c, 0, 76, 0
1, 278160, Note_on_c, 0, 74, 78
1, 278160, Note_on_c, 0, 86, 92
1, 278400, Tempo, 354003
1, 278400, Note_on_c, 0, 86, 0
1, 278400, Note_on_c, 0, 61, 0
1, 278400, Note_on_c, 0, 57, 0
1, 278400, Note_on_c, 0, 68, 0
1, 278400, Note_on_c, 0, 74, 0
1, 278400, Note_on_c, 0, 78, 86
1, 278400, Note_on_c, 0, 73, 94
1, 278400, Note_on_c, 0, 85, 110
1, 278400, Note_on_c, 0, 38, 70
1, 278400, Note_on_c, 0, 50, 84
1, 278400, Control_c, 0, 64, 0
1, 278406, Control_c, 0, 64, 0
1, 278697, Control_c, 0, 64, 127
1, 278880, Tempo, 347685
1, 278880, Note_on_c, 0, 50, 0
1, 278880, Note_on_c, 0, 85, 0
1, 278880, Note_on_c, 0, 38, 0
1, 278880, Note_on_c, 0, 73, 0
1, 278880, Note_on_c, 0, 71, 82
1, 278880, Note_on_c, 0, 83, 97
1, 278880, Note_on_c, 0, 50, 62
1, 278880, Note_on_c, 0, 59, 74
1, 279360, Note_on_c, 0, 59, 0
1, 279360, Note_on_c, 0, 50, 0
1, 279360, Note_on_c, 0, 54, 62
1, 279360, Note_on_c, 0, 66, 74
1, 279600, Note_on_c, 0, 83, 0
1, 279600, Note_on_c, 0, 71, 0
1, 279600, Note_on_c, 0, 70, 82
1, 279600, Note_on_c, 0, 82, 97
1, 279840, Tempo, 354003
1, 279840, Note_on_c, 0, 82, 0
1, 279840, Note_on_c, 0, 78, 0
1, 279840, Note_on_c, 0, 66, 0
1, 279840, Note_on_c, 0, 54, 0
1, 279840, Note_on_c, 0, 70, 0
1, 279840, Note_on_c, 0, 83, 97
1, 279840, Note_on_c, 0, 71, 82
1, 279840, Note_on_c, 0, 77, 86
1, 279840, Note_on_c, 0, 37, 70
1, 279840, Note_on_c, 0, 49, 84
1, 279851, Control_c, 0, 64, 0
1, 279967, Control_c, 0, 64, 127
1, 280200, Note_on_c, 0, 71, 0
1, 280200, Note_on_c, 0, 83, 0
1, 280200, Note_on_c, 0, 72, 79
1, 280200, Note_on_c, 0, 84, 93
1, 280320, Tempo, 347685
1, 280320, Note_on_c, 0, 37, 0
1, 280320, Note_on_c, 0, 49, 0
1, 280320, Note_on_c, 0, 61, 74
1, 280320, Note_on_c, 0, 56, 62
1, 280560, Note_on_c, 0, 72, 0
1, 280560, Note_on_c, 0, 84, 0
1, 280560, Note_on_c, 0, 85, 97
1, 280560, Note_on_c, 0, 73, 82
1, 280800, Note_on_c, 0, 61, 0
1, 280800, Note_on_c, 0, 56, 0
1, 280800, Note_on_c, 0, 65, 74
1, 280800, Note_on_c, 0, 59, 62
1, 280920, Note_on_c, 0, 85, 0
1, 280920, Note_on_c, 0, 73, 0
1, 280920, Note_on_c, 0, 68, 78
1, 280920, Note_on_c, 0, 80, 92
1, 281280, Tempo, 354003
1, 281280, Note_on_c, 0, 80, 0
1, 281280, Note_on_c, 0, 65, 0
1, 281280, Note_on_c, 0, 59, 0
1, 281280, Note_on_c, 0, 77, 0
1, 281280, Note_on_c, 0, 68, 0
1, 281280, Note_on_c, 0, 73, 77
1, 281280, Note_on_c, 0, 78, 81
1, 281280, Note_on_c, 0, 71, 94
1, 281280, Note_on_c, 0, 83, 113
1, 281280, Note_on_c, 0, 42, 84
1, 281280, Control_c, 0, 64, 0
1, 281280, Note_on_c, 0, 30, 70
1, 281290, Control_c, 0, 64, 0
1, 281577, Control_c, 0, 64, 127
1, 281760, Tempo, 347685
1, 281760, Note_on_c, 0, 30, 0
1, 281760, Note_on_c, 0, 83, 0
1, 281760, Note_on_c, 0, 71, 0
1, 281760, Note_on_c, 0, 42, 0
1, 281760, Note_on_c, 0, 81, 97
1, 281760, Note_on_c, 0, 69, 82
1, 281760, Note_on_c, 0, 54, 62
1, 281760, Note_on_c, 0, 61, 74
1, 282240, Note_on_c, 0, 61, 0
1, 282240, Note_on_c, 0, 78, 0
1, 282240, Note_on_c, 0, 73, 0
1, 282240, Note_on_c, 0, 57, 62
1, 282240, Note_on_c, 0, 66, 74
1, 282480, Note_on_c, 0, 81, 0
1, 282480, Note_on_c, 0, 80, 97
1, 282600, Note_on_c, 0, 80, 0
1, 282600, Note_on_c, 0, 78, 80
1, 282660, Note_on_c, 0, 78, 0
1, 282660, Note_on_c, 0, 80, 79
1, 282720, Tempo, 354003
1, 282720, Note_on_c, 0, 80, 0
1, 282720, Note_on_c, 0, 66, 0
1, 282720, Note_on_c, 0, 69, 0
1, 282720, Note_on_c, 0, 54, 0
1, 282720, Note_on_c, 0, 57, 0
1, 282720, Note_on_c, 0, 69, 82
1, 282720, Note_on_c, 0, 78, 97
1, 282720, Note_on_c, 0, 75, 82
1, 282720, Note_on_c, 0, 71, 82
1, 282720, Note_on_c, 0, 35, 70
1, 282720, Note_on_c, 0, 47, 84
1, 282733, Control_c, 0, 64, 0
1, 282847, Control_c, 0, 64, 127
1, 283200, Tempo, 347685
1, 283200, Note_on_c, 0, 47, 0
1, 283200, Note_on_c, 0, 78, 0
1, 283200, Note_on_c, 0, 75, 0
1, 283200, Note_on_c, 0, 69, 0
1, 283200, Note_on_c, 0, 35, 0
1, 283200, Note_on_c, 0, 71, 0
1, 283200, Note_on_c, 0, 69, 71
1, 283200, Note_on_c, 0, 77, 84
1, 283200, Note_on_c, 0, 75, 71
1, 283200, Note_on_c, 0, 71, 71
1, 283200, Note_on_c, 0, 59, 74
1, 283200, Note_on_c, 0, 53, 62
1, 283420, Note_on_c, 0, 71, 0
1, 283420, Note_on_c, 0, 75, 0
1, 283420, Note_on_c, 0, 69, 0
1, 283420, Note_on_c, 0, 77, 0
1, 283440, Note_on_c, 0, 71, 74
1, 283440, Note_on_c, 0, 69, 74
1, 283440, Note_on_c, 0, 75, 74
1, 283440, Note_on_c, 0, 78, 88
1, 283660, Note_on_c, 0, 78, 0
1, 283660, Note_on_c, 0, 69, 0
1, 283660, Note_on_c, 0, 71, 0
1, 283660, Note_on_c, 0, 75, 0
1, 283680, Note_on_c, 0, 59, 0
1, 283680, Note_on_c, 0, 69, 77
1, 283680, Note_on_c, 0, 71, 77
1, 283680, Note_on_c, 0, 75, 77
1, 283680, Note_on_c, 0, 80, 91
1, 283680, Note_on_c, 0, 63, 74
1, 283680, Note_on_c, 0, 57, 62
1, 283900, Note_on_c, 0, 80, 0
1, 283900, Note_on_c, 0, 75, 0
1, 283900, Note_on_c, 0, 71, 0
1, 283900, Note_on_c, 0, 69, 0
1, 283920, Note_on_c, 0, 71, 80
1, 283920, Note_on_c, 0, 75, 80
1, 283920, Note_on_c, 0, 69, 80
1, 283920, Note_on_c, 0, 81, 94
1, 284140, Note_on_c, 0, 81, 0
1, 284140, Note_on_c, 0, 75, 0
1, 284140, Note_on_c, 0, 71, 0
1, 284140, Note_on_c, 0, 69, 0
1, 284160, Tempo, 351906
1, 284160, Note_on_c, 0, 63, 0
1, 284160, Note_on_c, 0, 53, 0
1, 284160, Note_on_c, 0, 57, 0
1, 284160, Note_on_c, 0, 68, 82
1, 284160, Note_on_c, 0, 64, 82
1, 284160, Note_on_c, 0, 62, 82
1, 284160, Note_on_c, 0, 71, 99
1, 284160, Note_on_c, 0, 40, 84
1, 284160, Note_on_c, 0, 28, 70
1, 284168, Control_c, 0, 64, 0
1, 284457, Control_c, 0, 64, 127
1, 284640, Tempo, 338028
1, 284640, Note_on_c, 0, 28, 0
1, 284640, Note_on_c, 0, 40, 0
1, 284640, Note_on_c, 0, 56, 72
1, 284640, Note_on_c, 0, 47, 61
1, 285120, Note_on_c, 0, 47, 0
1, 285120, Note_on_c, 0, 56, 0
1, 285120, Note_on_c, 0, 59, 73
1, 285120, Note_on_c, 0, 52, 61
1, 285600, Tempo, 353982
1, 285600, Note_on_c, 0, 52, 0
1, 285600, Note_on_c, 0, 64, 0
1, 285600, Note_on_c, 0, 62, 0
1, 285600, Note_on_c, 0, 68, 0
1, 285600, Note_on_c, 0, 59, 0
1, 285600, Note_on_c, 0, 71, 0
1, 285600, Note_on_c, 0, 73, 81
1, 285600, Note_on_c, 0, 76, 96
1, 285600, Note_on_c, 0, 64, 81
1, 285600, Note_on_c, 0, 68, 81
1, 285600, Note_on_c, 0, 56, 70
1, 285600, Note_on_c, 0, 62, 84
1, 286080, Tempo, 326087
1, 286080, Note_on_c, 0, 62, 0
1, 286080, Note_on_c, 0, 56, 0
1, 286080, Note_on_c, 0, 59, 72
1, 286080, Note_on_c, 0, 52, 61
1, 286560, Note_on_c, 0, 52, 0
1, 286560, Note_on_c, 0, 76, 0
1, 286560, Note_on_c, 0, 68, 0
1, 286560, Note_on_c, 0, 73, 0
1, 286560, Note_on_c, 0, 59, 0
1, 286560, Note_on_c, 0, 64, 0
1, 286560, Note_on_c, 0, 62, 77
1, 286560, Note_on_c, 0, 76, 91
1, 286560, Note_on_c, 0, 64, 77
1, 286560, Note_on_c, 0, 68, 77
1, 286560, Note_on_c, 0, 73, 77
1, 286560, Note_on_c, 0, 47, 61
1, 286560, Note_on_c, 0, 56, 73
1, 287040, Note_on_c, 0, 56, 0
1, 287040, Note_on_c, 0, 73, 0
1, 287040, Note_on_c, 0, 76, 0
1, 287040, Note_on_c, 0, 64, 0
1, 287040, Note_on_c, 0, 62, 0
1, 287040, Note_on_c, 0, 47, 0
1, 287040, Note_on_c, 0, 68, 0
1, 287040, Note_on_c, 0, 61, 81
1, 287040, Note_on_c, 0, 57, 81
1, 287040, Note_on_c, 0, 69, 96
1, 287040, Note_on_c, 0, 33, 70
1, 287040, Note_on_c, 0, 45, 84
1, 287047, Control_c, 0, 64, 0
1, 287360, Control_c, 0, 64, 127
1, 287520, Tempo, 331492
1, 287520, Note_on_c, 0, 45, 0
1, 287520, Note_on_c, 0, 69, 0
1, 287520, Note_on_c, 0, 61, 0
1, 287520, Note_on_c, 0, 57, 0
1, 287520, Note_on_c, 0, 33, 0
1, 287520, Note_on_c, 0, 52, 61
1, 287520, Note_on_c, 0, 61, 73
1, 288000, Note_on_c, 0, 61, 0
1, 288000, Note_on_c, 0, 52, 0
1, 288000, Note_on_c, 0, 73, 81
1, 288000, Note_on_c, 0, 69, 81
1, 288000, Note_on_c, 0, 81, 96
1, 288000, Note_on_c, 0, 57, 62
1, 288000, Note_on_c, 0, 64, 74
1, 288480, Tempo, 325221
1, 288480, Note_on_c, 0, 64, 0
1, 288480, Note_on_c, 0, 81, 0
1, 288480, Note_on_c, 0, 73, 0
1, 288480, Note_on_c, 0, 69, 0
1, 288480, Note_on_c, 0, 57, 0
1, 288480, Note_on_c, 0, 93, 105
1, 288480, Note_on_c, 0, 81, 89
1, 288480, Note_on_c, 0, 85, 89
1, 288480, Note_on_c, 0, 61, 70
1, 288480, Note_on_c, 0, 69, 84
1, 288960, Tempo, 320000
1, 288960, Note_on_c, 0, 69, 0
1, 288960, Note_on_c, 0, 61, 0
1, 288960, Note_on_c, 0, 64, 73
1, 288960, Note_on_c, 0, 57, 61
1, 289440, Note_on_c, 0, 57, 0
1, 289440, Note_on_c, 0, 93, 0
1, 289440, Note_on_c, 0, 85, 0
1, 289440, Note_on_c, 0, 81, 0
1, 289440, Note_on_c, 0, 64, 0
1, 289440, Note_on_c, 0, 92, 101
1, 289440, Note_on_c, 0, 85, 85
1, 289440, Note_on_c, 0, 80, 85
1, 289440, Note_on_c, 0, 61, 73
1, 289440, Note_on_c, 0, 52, 61
1, 289920, Tempo, 327869
1, 289920, Note_on_c, 0, 52, 0
1, 289920, Note_on_c, 0, 80, 0
1, 289920, Note_on_c, 0, 92, 0
1, 289920, Note_on_c, 0, 85, 0
1, 289920, Note_on_c, 0, 61, 0
1, 289920, Note_on_c, 0, 85, 89
1, 289920, Note_on_c, 0, 78, 87
1, 289920, Note_on_c, 0, 90, 103
1, 289920, Note_on_c, 0, 35, 70
1, 289920, Note_on_c, 0, 47, 84
1, 289927, Control_c, 0, 64, 0
1, 290149, Control_c, 0, 64, 127
1, 290400, Tempo, 320856
1, 290400, Note_on_c, 0, 47, 0
1, 290400, Note_on_c, 0, 35, 0
1, 290400, Note_on_c, 0, 59, 73
1, 290400, Note_on_c, 0, 54, 61
1, 290880, Note_on_c, 0, 54, 0
1, 290880, Note_on_c, 0, 59, 0
1, 290880, Note_on_c, 0, 63, 73
1, 290880, Note_on_c, 0, 57, 61
1, 291360, Tempo, 330579
1, 291360, Note_on_c, 0, 57, 0
1, 291360, Note_on_c, 0, 90, 0
1, 291360, Note_on_c, 0, 85, 0
1, 291360, Note_on_c, 0, 78, 0
1, 291360, Note_on_c, 0, 63, 0
1, 291360, Note_on_c, 0, 92, 102
1, 291360, Note_on_c, 0, 87, 86
1, 291360, Note_on_c, 0, 83, 86
1, 291360, Note_on_c, 0, 59, 70
1, 291360, Note_on_c, 0, 66, 84
1, 291840, Tempo, 322581
1, 291840, Note_on_c, 0, 66, 0
1, 291840, Note_on_c, 0, 59, 0
1, 291840, Note_on_c, 0, 57, 61
1, 291840, Note_on_c, 0, 63, 72
1, 292320, Note_on_c, 0, 63, 0
1, 292320, Note_on_c, 0, 92, 0
1, 292320, Note_on_c, 0, 83, 0
1, 292320, Note_on_c, 0, 87, 0
1, 292320, Note_on_c, 0, 57, 0
1, 292320, Note_on_c, 0, 92, 93
1, 292320, Note_on_c, 0, 87, 79
1, 292320, Note_on_c, 0, 81, 79
1, 292320, Note_on_c, 0, 59, 72
1, 292320, Note_on_c, 0, 54, 61
1, 292800, Tempo, 328767
1, 292800, Note_on_c, 0, 54, 0
1, 292800, Note_on_c, 0, 81, 0
1, 292800, Note_on_c, 0, 92, 0
1, 292800, Note_on_c, 0, 87, 0
1, 292800, Note_on_c, 0, 59, 0
1, 292800, Note_on_c, 0, 80, 88
1, 292800, Note_on_c, 0, 76, 88
1, 292800, Note_on_c, 0, 88, 103
1, 292800, Note_on_c, 0, 52, 84
1, 292800, Note_on_c, 0, 40, 70
1, 292809, Control_c, 0, 64, 0
1, 293097, Control_c, 0, 64, 127
1, 293280, Tempo, 319149
1, 293280, Note_on_c, 0, 40, 0
1, 293280, Note_on_c, 0, 52, 0
1, 293280, Note_on_c, 0, 52, 62
1, 293280, Note_on_c, 0, 59, 74
1, 293760, Note_on_c, 0, 59, 0
1, 293760, Note_on_c, 0, 52, 0
1, 293760, Note_on_c, 0, 56, 62
1, 293760, Note_on_c, 0, 64, 74
1, 294240, Tempo, 324009
1, 294240, Note_on_c, 0, 64, 0
1, 294240, Note_on_c, 0, 88, 0
1, 294240, Note_on_c, 0, 80, 0
1, 294240, Note_on_c, 0, 76, 0
1, 294240, Note_on_c, 0, 56, 0
1, 294240, Note_on_c, 0, 88, 89
1, 294240, Note_on_c, 0, 100, 104
1, 294240, Note_on_c, 0, 59, 70
1, 294240, Note_on_c, 0, 68, 84
1, 294720, Tempo, 312533
1, 294720, Note_on_c, 0, 68, 0
1, 294720, Note_on_c, 0, 59, 0
1, 294720, Note_on_c, 0, 56, 62
1, 294720, Note_on_c, 0, 64, 74
1, 295200, Note_on_c, 0, 64, 0
1, 295200, Note_on_c, 0, 56, 0
1, 295200, Note_on_c, 0, 59, 74
1, 295200, Note_on_c, 0, 52, 62
1, 295560, Tempo, 361642
1, 295560, Note_on_c, 0, 100, 0
1, 295560, Note_on_c, 0, 88, 0
1, 295560, Note_on_c, 0, 88, 89
1, 295560, Note_on_c, 0, 100, 104
1, 295680, Tempo, 320496
1, 295680, Note_on_c, 0, 100, 0
1, 295680, Note_on_c, 0, 52, 0
1, 295680, Note_on_c, 0, 59, 0
1, 295680, Note_on_c, 0, 88, 0
1, 295680, Note_on_c, 0, 88, 87
1, 295680, Note_on_c, 0, 100, 104
1, 295680, Control_c, 0, 64, 0
1, 295680, Control_c, 0, 64, 0
1, 295680, Note_on_c, 0, 52, 84
1, 295680, Note_on_c, 0, 40, 70
1, 295920, Note_on_c, 0, 100, 0
1, 295920, Note_on_c, 0, 88, 0
1, 295977, Control_c, 0, 64, 127
1, 296160, Tempo, 314762
1, 296160, Note_on_c, 0, 52, 0
1, 296160, Note_on_c, 0, 40, 0
1, 296160, Note_on_c, 0, 58, 74
1, 296160, Note_on_c, 0, 52, 62
1, 296640, Note_on_c, 0, 52, 0
1, 296640, Note_on_c, 0, 58, 0
1, 296640, Note_on_c, 0, 61, 74
1, 296640, Note_on_c, 0, 54, 62
1, 297120, Tempo, 320496
1, 297120, Note_on_c, 0, 54, 0
1, 297120, Note_on_c, 0, 61, 0
1, 297120, Note_on_c, 0, 66, 80
1, 297120, Note_on_c, 0, 78, 94
1, 297120, Note_on_c, 0, 58, 70
1, 297120, Note_on_c, 0, 64, 84
1, 297600, Tempo, 310881
1, 297600, Note_on_c, 0, 64, 0
1, 297600, Note_on_c, 0, 58, 0
1, 297600, Note_on_c, 0, 54, 62
1, 297600, Note_on_c, 0, 61, 74
1, 298080, Tempo, 314136
1, 298080, Note_on_c, 0, 61, 0
1, 298080, Note_on_c, 0, 54, 0
1, 298080, Note_on_c, 0, 52, 62
1, 298080, Note_on_c, 0, 58, 74
1, 298560, Tempo, 320496
1, 298560, Note_on_c, 0, 58, 0
1, 298560, Note_on_c, 0, 52, 0
1, 298560, Control_c, 0, 64, 0
1, 298560, Note_on_c, 0, 28, 70
1, 298560, Note_on_c, 0, 40, 84
1, 298560, Control_c, 0, 64, 0
1, 298857, Control_c, 0, 64, 127
1, 299020, Tempo, 315989
1, 299040, Note_on_c, 0, 40, 0
1, 299040, Note_on_c, 0, 66, 0
1, 299040, Note_on_c, 0, 78, 0
1, 299040, Note_on_c, 0, 28, 0
1, 299040, Note_on_c, 0, 78, 79
1, 299040, Note_on_c, 0, 66, 67
1, 299040, Note_on_c, 0, 52, 62
1, 299040, Note_on_c, 0, 58, 74
1, 299160, Note_on_c, 0, 66, 0
1, 299160, Note_on_c, 0, 78, 0
1, 299160, Note_on_c, 0, 68, 67
1, 299160, Note_on_c, 0, 80, 79
1, 299280, Note_on_c, 0, 80, 0
1, 299280, Note_on_c, 0, 68, 0
1, 299280, Note_on_c, 0, 66, 70
1, 299280, Note_on_c, 0, 78, 83
1, 299520, Note_on_c, 0, 78, 0
1, 299520, Note_on_c, 0, 58, 0
1, 299520, Note_on_c, 0, 52, 0
1, 299520, Note_on_c, 0, 66, 0
1, 299520, Note_on_c, 0, 65, 64
1, 299520, Note_on_c, 0, 77, 77
1, 299520, Note_on_c, 0, 54, 62
1, 299520, Note_on_c, 0, 61, 74
1, 299540, Tempo, 314994
1, 299760, Note_on_c, 0, 77, 0
1, 299760, Note_on_c, 0, 65, 0
1, 299760, Note_on_c, 0, 66, 67
1, 299760, Note_on_c, 0, 78, 79
1, 300000, Note_on_c, 0, 78, 0
1, 300000, Note_on_c, 0, 61, 0
1, 300000, Note_on_c, 0, 54, 0
1, 300000, Note_on_c, 0, 66, 0
1, 300000, Note_on_c, 0, 68, 68
1, 300000, Note_on_c, 0, 80, 81
1, 300000, Note_on_c, 0, 64, 84
1, 300000, Note_on_c, 0, 58, 70
1, 300017, Control_c, 0, 64, 0
1, 300020, Tempo, 313972
1, 300127, Control_c, 0, 64, 127
1, 300240, Note_on_c, 0, 80, 0
1, 300240, Note_on_c, 0, 68, 0
1, 300240, Note_on_c, 0, 70, 71
1, 300240, Note_on_c, 0, 82, 84
1, 300480, Note_on_c, 0, 82, 0
1, 300480, Note_on_c, 0, 58, 0
1, 300480, Note_on_c, 0, 64, 0
1, 300480, Note_on_c, 0, 70, 0
1, 300480, Note_on_c, 0, 71, 73
1, 300480, Note_on_c, 0, 83, 86
1, 300480, Note_on_c, 0, 61, 74
1, 300480, Note_on_c, 0, 54, 62
1, 300500, Tempo, 312973
1, 300540, Tempo, 312973
1, 300620, Tempo, 313972
1, 300660, Tempo, 314994
1, 300700, Tempo, 315989
1, 300720, Note_on_c, 0, 83, 0
1, 300720, Note_on_c, 0, 71, 0
1, 300720, Note_on_c, 0, 73, 74
1, 300720, Note_on_c, 0, 85, 89
1, 300740, Tempo, 317041
1, 300780, Tempo, 318049
1, 300820, Tempo, 319115
1, 300860, Tempo, 320137
1, 300900, Tempo, 321216
1, 300940, Tempo, 322251
1, 300960, Note_on_c, 0, 85, 0
1, 300960, Note_on_c, 0, 54, 0
1, 300960, Note_on_c, 0, 61, 0
1, 300960, Note_on_c, 0, 73, 0
1, 300960, Note_on_c, 0, 86, 91
1, 300960, Note_on_c, 0, 74, 77
1, 300960, Note_on_c, 0, 52, 62
1, 300960, Note_on_c, 0, 58, 74
1, 301020, Tempo, 323346
1, 301060, Tempo, 324394
1, 301100, Tempo, 325503
1, 301140, Tempo, 326566
1, 301180, Tempo, 327690
1, 301200, Note_on_c, 0, 74, 0
1, 301200, Note_on_c, 0, 86, 0
1, 301200, Note_on_c, 0, 76, 80
1, 301200, Note_on_c, 0, 88, 94
1, 301220, Tempo, 328767
1, 301260, Tempo, 329888
1, 301300, Tempo, 330998
1, 301340, Tempo, 332116
1, 301440, Tempo, 320496
1, 301440, Note_on_c, 0, 88, 0
1, 301440, Note_on_c, 0, 58, 0
1, 301440, Note_on_c, 0, 52, 0
1, 301440, Note_on_c, 0, 76, 0
1, 301440, Note_on_c, 0, 78, 94
1, 301440, Note_on_c, 0, 90, 113
1, 301440, Note_on_c, 0, 40, 70
1, 301440, Control_c, 0, 64, 0
1, 301440, Note_on_c, 0, 52, 84
1, 301444, Control_c, 0, 64, 0
1, 301589, Control_c, 0, 64, 127
1, 301680, Note_on_c, 0, 90, 0
1, 301680, Note_on_c, 0, 78, 0
1, 301920, Tempo, 314762
1, 301920, Note_on_c, 0, 40, 0
1, 301920, Note_on_c, 0, 52, 0
1, 301920, Note_on_c, 0, 52, 62
1, 301920, Note_on_c, 0, 60, 74
1, 302400, Note_on_c, 0, 60, 0
1, 302400, Note_on_c, 0, 52, 0
1, 302400, Note_on_c, 0, 56, 62
1, 302400, Note_on_c, 0, 63, 74
1, 302880, Tempo, 320496
1, 302880, Note_on_c, 0, 63, 0
1, 302880, Note_on_c, 0, 56, 0
1, 302880, Note_on_c, 0, 68, 80
1, 302880, Note_on_c, 0, 80, 94
1, 302880, Note_on_c, 0, 66, 84
1, 302880, Note_on_c, 0, 60, 70
1, 303360, Tempo, 314762
1, 303360, Note_on_c, 0, 60, 0
1, 303360, Note_on_c, 0, 66, 0
1, 303360, Note_on_c, 0, 56, 62
1, 303360, Note_on_c, 0, 63, 74
1, 303840, Note_on_c, 0, 63, 0
1, 303840, Note_on_c, 0, 68, 0
1, 303840, Note_on_c, 0, 80, 0
1, 303840, Note_on_c, 0, 56, 0
1, 303840, Note_on_c, 0, 80, 94
1, 303840, Note_on_c, 0, 68, 80
1, 303840, Note_on_c, 0, 52, 62
1, 303840, Note_on_c, 0, 60, 74
1, 304320, Tempo, 320496
1, 304320, Note_on_c, 0, 60, 0
1, 304320, Note_on_c, 0, 80, 0
1, 304320, Note_on_c, 0, 68, 0
1, 304320, Note_on_c, 0, 52, 0
1, 304320, Note_on_c, 0, 68, 79
1, 304320, Note_on_c, 0, 40, 84
1, 304320, Note_on_c, 0, 28, 70
1, 304320, Control_c, 0, 64, 0
1, 304326, Control_c, 0, 64, 0
1, 304434, Control_c, 0, 64, 127
1, 304560, Note_on_c, 0, 80, 74
1, 304780, Tempo, 315989
1, 304800, Note_on_c, 0, 80, 0
1, 304800, Note_on_c, 0, 28, 0
1, 304800, Note_on_c, 0, 40, 0
1, 304800, Note_on_c, 0, 81, 79
1, 304800, Note_on_c, 0, 52, 62
1, 304800, Note_on_c, 0, 59, 74
1, 305040, Note_on_c, 0, 81, 0
1, 305040, Note_on_c, 0, 80, 74
1, 305280, Note_on_c, 0, 80, 0
1, 305280, Note_on_c, 0, 59, 0
1, 305280, Note_on_c, 0, 52, 0
1, 305280, Note_on_c, 0, 68, 0
1, 305280, Note_on_c, 0, 67, 64
1, 305280, Note_on_c, 0, 79, 77
1, 305280, Note_on_c, 0, 56, 62
1, 305280, Note_on_c, 0, 63, 74
1, 305300, Tempo, 314994
1, 305520, Note_on_c, 0, 79, 0
1, 305520, Note_on_c, 0, 67, 0
1, 305520, Note_on_c, 0, 68, 67
1, 305520, Note_on_c, 0, 80, 79
1, 305760, Note_on_c, 0, 80, 0
1, 305760, Note_on_c, 0, 63, 0
1, 305760, Note_on_c, 0, 56, 0
1, 305760, Note_on_c, 0, 68, 0
1, 305760, Note_on_c, 0, 70, 68
1, 305760, Note_on_c, 0, 82, 81
1, 305760, Note_on_c, 0, 60, 70
1, 305760, Note_on_c, 0, 66, 84
1, 305767, Control_c, 0, 64, 0
1, 305780, Tempo, 313972
1, 305966, Control_c, 0, 64, 127
1, 306000, Note_on_c, 0, 82, 0
1, 306000, Note_on_c, 0, 70, 0
1, 306000, Note_on_c, 0, 72, 71
1, 306000, Note_on_c, 0, 84, 84
1, 306240, Note_on_c, 0, 84, 0
1, 306240, Note_on_c, 0, 66, 0
1, 306240, Note_on_c, 0, 60, 0
1, 306240, Note_on_c, 0, 72, 0
1, 306240, Note_on_c, 0, 73, 73
1, 306240, Note_on_c, 0, 85, 86
1, 306240, Note_on_c, 0, 63, 74
1, 306240, Note_on_c, 0, 56, 62
1, 306260, Tempo, 312973
1, 306300, Tempo, 312973
1, 306380, Tempo, 313972
1, 306420, Tempo, 314994
1, 306460, Tempo, 315989
1, 306480, Note_on_c, 0, 85, 0
1, 306480, Note_on_c, 0, 73, 0
1, 306480, Note_on_c, 0, 75, 74
1, 306480, Note_on_c, 0, 87, 89
1, 306500, Tempo, 317041
1, 306540, Tempo, 318049
1, 306580, Tempo, 319115
1, 306620, Tempo, 320137
1, 306660, Tempo, 321216
1, 306700, Tempo, 322251
1, 306720, Note_on_c, 0, 87, 0
1, 306720, Note_on_c, 0, 56, 0
1, 306720, Note_on_c, 0, 63, 0
1, 306720, Note_on_c, 0, 75, 0
1, 306720, Note_on_c, 0, 76, 77
1, 306720, Note_on_c, 0, 88, 91
1, 306720, Note_on_c, 0, 60, 74
1, 306720, Note_on_c, 0, 52, 62
1, 306780, Tempo, 323346
1, 306820, Tempo, 324394
1, 306860, Tempo, 325503
1, 306900, Tempo, 326566
1, 306940, Tempo, 327690
1, 306960, Note_on_c, 0, 88, 0
1, 306960, Note_on_c, 0, 76, 0
1, 306960, Note_on_c, 0, 90, 94
1, 306960, Note_on_c, 0, 78, 80
1, 306980, Tempo, 328767
1, 307020, Tempo, 329888
1, 307060, Tempo, 330998
1, 307100, Tempo, 332116
1, 307200, Tempo, 320496
1, 307200, Note_on_c, 0, 78, 0
1, 307200, Note_on_c, 0, 52, 0
1, 307200, Note_on_c, 0, 60, 0
1, 307200, Note_on_c, 0, 90, 0
1, 307200, Note_on_c, 0, 80, 94
1, 307200, Note_on_c, 0, 92, 113
1, 307200, Note_on_c, 0, 40, 70
1, 307200, Control_c, 0, 64, 0
1, 307200, Note_on_c, 0, 52, 84
1, 307206, Control_c, 0, 64, 0
1, 307440, Note_on_c, 0, 92, 0
1, 307440, Note_on_c, 0, 80, 0
1, 307497, Control_c, 0, 64, 127
1, 307680, Tempo, 314762
1, 307680, Note_on_c, 0, 40, 0
1, 307680, Note_on_c, 0, 52, 0
1, 307680, Note_on_c, 0, 52, 74
1, 307680, Note_on_c, 0, 61, 62
1, 308160, Note_on_c, 0, 61, 0
1, 308160, Note_on_c, 0, 52, 0
1, 308160, Note_on_c, 0, 56, 62
1, 308160, Note_on_c, 0, 64, 74
1, 308640, Tempo, 320496
1, 308640, Note_on_c, 0, 64, 0
1, 308640, Note_on_c, 0, 56, 0
1, 308640, Note_on_c, 0, 68, 80
1, 308640, Note_on_c, 0, 80, 94
1, 308640, Note_on_c, 0, 39, 70
1, 308640, Note_on_c, 0, 51, 84
1, 308647, Control_c, 0, 64, 0
1, 308892, Control_c, 0, 64, 127
1, 309120, Tempo, 314762
1, 309120, Note_on_c, 0, 51, 0
1, 309120, Note_on_c, 0, 39, 0
1, 309120, Note_on_c, 0, 51, 62
1, 309120, Note_on_c, 0, 59, 74
1, 309600, Note_on_c, 0, 59, 0
1, 309600, Note_on_c, 0, 68, 0
1, 309600, Note_on_c, 0, 80, 0
1, 309600, Note_on_c, 0, 51, 0
1, 309600, Note_on_c, 0, 68, 80
1, 309600, Note_on_c, 0, 80, 94
1, 309600, Note_on_c, 0, 63, 74
1, 309600, Note_on_c, 0, 56, 62
1, 310080, Tempo, 320496
1, 310080, Note_on_c, 0, 56, 0
1, 310080, Note_on_c, 0, 68, 0
1, 310080, Note_on_c, 0, 80, 0
1, 310080, Note_on_c, 0, 63, 0
1, 310080, Note_on_c, 0, 80, 80
1, 310080, Note_on_c, 0, 68, 68
1, 310080, Note_on_c, 0, 37, 70
1, 310080, Note_on_c, 0, 49, 84
1, 310080, Control_c, 0, 64, 0
1, 310084, Control_c, 0, 64, 0
1, 310200, Note_on_c, 0, 68, 0
1, 310200, Note_on_c, 0, 80, 0
1, 310200, Note_on_c, 0, 70, 62
1, 310200, Note_on_c, 0, 82, 74
1, 310320, Note_on_c, 0, 82, 0
1, 310320, Note_on_c, 0, 70, 0
1, 310320, Note_on_c, 0, 68, 62
1, 310320, Note_on_c, 0, 80, 74
1, 310360, Control_c, 0, 64, 127
1, 310540, Tempo, 315989
1, 310560, Note_on_c, 0, 80, 0
1, 310560, Note_on_c, 0, 49, 0
1, 310560, Note_on_c, 0, 37, 0
1, 310560, Note_on_c, 0, 68, 0
1, 310560, Note_on_c, 0, 67, 64
1, 310560, Note_on_c, 0, 79, 77
1, 310560, Note_on_c, 0, 56, 74
1, 310560, Note_on_c, 0, 49, 62
1, 310800, Note_on_c, 0, 79, 0
1, 310800, Note_on_c, 0, 67, 0
1, 310800, Note_on_c, 0, 68, 67
1, 310800, Note_on_c, 0, 80, 79
1, 311040, Note_on_c, 0, 80, 0
1, 311040, Note_on_c, 0, 49, 0
1, 311040, Note_on_c, 0, 56, 0
1, 311040, Note_on_c, 0, 68, 0
1, 311040, Note_on_c, 0, 82, 82
1, 311040, Note_on_c, 0, 70, 69
1, 311040, Note_on_c, 0, 61, 75
1, 311040, Note_on_c, 0, 52, 63
1, 311060, Tempo, 314994
1, 311280, Note_on_c, 0, 70, 0
1, 311280, Note_on_c, 0, 82, 0
1, 311280, Note_on_c, 0, 71, 72
1, 311280, Note_on_c, 0, 83, 86
1, 311520, Note_on_c, 0, 83, 0
1, 311520, Note_on_c, 0, 52, 0
1, 311520, Note_on_c, 0, 61, 0
1, 311520, Note_on_c, 0, 71, 0
1, 311520, Note_on_c, 0, 73, 75
1, 311520, Note_on_c, 0, 85, 90
1, 311520, Note_on_c, 0, 32, 72
1, 311520, Note_on_c, 0, 44, 88
1, 311530, Control_c, 0, 64, 0
1, 311540, Tempo, 313972
1, 311647, Control_c, 0, 64, 127
1, 311760, Note_on_c, 0, 85, 0
1, 311760, Note_on_c, 0, 73, 0
1, 311760, Note_on_c, 0, 75, 78
1, 311760, Note_on_c, 0, 87, 93
1, 312000, Note_on_c, 0, 87, 0
1, 312000, Note_on_c, 0, 44, 0
1, 312000, Note_on_c, 0, 32, 0
1, 312000, Note_on_c, 0, 75, 0
1, 312000, Note_on_c, 0, 89, 95
1, 312000, Note_on_c, 0, 77, 81
1, 312000, Note_on_c, 0, 47, 66
1, 312000, Note_on_c, 0, 56, 79
1, 312020, Tempo, 312973
1, 312060, Tempo, 312973
1, 312140, Tempo, 313972
1, 312180, Tempo, 314994
1, 312220, Tempo, 315989
1, 312240, Note_on_c, 0, 77, 0
1, 312240, Note_on_c, 0, 89, 0
1, 312240, Note_on_c, 0, 79, 85
1, 312240, Note_on_c, 0, 91, 101
1, 312260, Tempo, 317041
1, 312300, Tempo, 318049
1, 312340, Tempo, 319115
1, 312380, Tempo, 320137
1, 312420, Tempo, 321216
1, 312460, Tempo, 322251
1, 312480, Note_on_c, 0, 91, 0
1, 312480, Note_on_c, 0, 56, 0
1, 312480, Note_on_c, 0, 47, 0
1, 312480, Note_on_c, 0, 79, 0
1, 312480, Note_on_c, 0, 80, 85
1, 312480, Note_on_c, 0, 92, 101
1, 312480, Note_on_c, 0, 51, 67
1, 312480, Note_on_c, 0, 59, 80
1, 312540, Tempo, 323346
1, 312580, Tempo, 324394
1, 312620, Tempo, 325503
1, 312660, Tempo, 326566
1, 312700, Tempo, 327690
1, 312720, Note_on_c, 0, 92, 0
1, 312720, Note_on_c, 0, 80, 0
1, 312720, Note_on_c, 0, 82, 86
1, 312720, Note_on_c, 0, 94, 102
1, 312740, Tempo, 328767
1, 312780, Tempo, 329888
1, 312820, Tempo, 330998
1, 312860, Tempo, 332116
1, 312960, Time_signature, 6, 3, 12, 8
1, 312960, Tempo, 750000
1, 312960, Note_on_c, 0, 94, 0
1, 312960, Note_on_c, 0, 59, 0
1, 312960, Note_on_c, 0, 51, 0
1, 312960, Note_on_c, 0, 82, 0
1, 312960, Note_on_c, 0, 83, 94
1, 312960, Note_on_c, 0, 95, 112
1, 312960, Note_on_c, 0, 41, 88
1, 312960, Note_on_c, 0, 29, 72
1, 312971, Control_c, 0, 64, 0
1, 313080, Note_on_c, 0, 95, 0
1, 313080, Note_on_c, 0, 83, 0
1, 313109, Control_c, 0, 64, 127
1, 313200, Tempo, 430108
1, 313200, Note_on_c, 0, 41, 0
1, 313200, Note_on_c, 0, 29, 0
1, 313200, Note_on_c, 0, 92, 85
1, 313200, Note_on_c, 0, 95, 85
1, 313320, Tempo, 428571
1, 313320, Note_on_c, 0, 95, 0
1, 313320, Note_on_c, 0, 92, 0
1, 313320, Note_on_c, 0, 89, 79
1, 313440, Tempo, 427046
1, 313440, Note_on_c, 0, 89, 0
1, 313440, Note_on_c, 0, 87, 78
1, 313560, Tempo, 425532
1, 313560, Note_on_c, 0, 87, 0
1, 313560, Note_on_c, 0, 83, 77
1, 313590, Note_on_c, 0, 53, 52
1, 313620, Note_on_c, 0, 59, 54
1, 313640, Tempo, 424028
1, 313650, Note_on_c, 0, 63, 56
1, 313680, Note_on_c, 0, 83, 0
1, 313680, Note_on_c, 0, 80, 80
1, 313680, Note_on_c, 0, 83, 80
1, 313680, Note_on_c, 0, 68, 59
1, 313760, Tempo, 422535
1, 313800, Note_on_c, 0, 83, 0
1, 313800, Note_on_c, 0, 80, 0
1, 313800, Note_on_c, 0, 77, 78
1, 313880, Tempo, 421053
1, 313920, Note_on_c, 0, 77, 0
1, 313920, Note_on_c, 0, 75, 73
1, 314000, Tempo, 419580
1, 314040, Note_on_c, 0, 75, 0
1, 314040, Note_on_c, 0, 71, 73
1, 314080, Tempo, 418118
1, 314160, Note_on_c, 0, 71, 0
1, 314160, Note_on_c, 0, 59, 0
1, 314160, Note_on_c, 0, 63, 0
1, 314160, Note_on_c, 0, 68, 0
1, 314160, Note_on_c, 0, 53, 0
1, 314160, Note_on_c, 0, 71, 74
1, 314160, Note_on_c, 0, 68, 74
1, 314200, Tempo, 416667
1, 314280, Note_on_c, 0, 68, 0
1, 314280, Note_on_c, 0, 71, 0
1, 314280, Note_on_c, 0, 65, 64
1, 314320, Tempo, 415225
1, 314360, Tempo, 415225
1, 314400, Note_on_c, 0, 65, 0
1, 314400, Note_on_c, 0, 63, 64
1, 314520, Note_on_c, 0, 63, 0
1, 314520, Note_on_c, 0, 59, 63
1, 314640, Tempo, 416667
1, 314640, Note_on_c, 0, 59, 0
1, 314640, Note_on_c, 0, 56, 69
1, 314640, Note_on_c, 0, 59, 69
1, 314760, Note_on_c, 0, 59, 0
1, 314760, Note_on_c, 0, 56, 0
1, 314760, Note_on_c, 0, 53, 61
1, 314880, Note_on_c, 0, 53, 0
1, 314880, Note_on_c, 0, 51, 60
1, 314920, Tempo, 418118
1, 315000, Note_on_c, 0, 51, 0
1, 315000, Note_on_c, 0, 47, 60
1, 315120, Note_on_c, 0, 47, 0
1, 315120, Note_on_c, 0, 59, 60
1, 315120, Note_on_c, 0, 56, 60
1, 315200, Tempo, 419580
1, 315240, Note_on_c, 0, 56, 0
1, 315240, Note_on_c, 0, 59, 0
1, 315240, Note_on_c, 0, 53, 62
1, 315360, Note_on_c, 0, 53, 0
1, 315360, Note_on_c, 0, 51, 52
1, 315480, Tempo, 421053
1, 315480, Note_on_c, 0, 51, 0
1, 315480, Note_on_c, 0, 47, 52
1, 315600, Note_on_c, 0, 47, 0
1, 315600, Note_on_c, 0, 56, 52
1, 315600, Note_on_c, 0, 59, 52
1, 315608, Control_c, 0, 64, 0
1, 315720, Note_on_c, 0, 56, 0
1, 315720, Note_on_c, 0, 53, 51
1, 315760, Tempo, 422535
1, 315840, Tempo, 393443
1, 315840, Note_on_c, 0, 53, 0
1, 315840, Note_on_c, 0, 59, 0
1, 315840, Note_on_c, 0, 58, 52
1, 315840, Note_on_c, 0, 34, 44
1, 315960, Tempo, 392157
1, 315960, Note_on_c, 0, 56, 48
1, 315970, Note_on_c, 0, 58, 0
1, 316040, Tempo, 390879
1, 316080, Note_on_c, 0, 34, 0
1, 316080, Note_on_c, 0, 59, 52
1, 316080, Note_on_c, 0, 50, 34
1, 316090, Note_on_c, 0, 56, 0
1, 316120, Tempo, 389610
1, 316200, Tempo, 388350
1, 316200, Note_on_c, 0, 53, 47
1, 316210, Note_on_c, 0, 59, 0
1, 316280, Tempo, 387097
1, 316320, Note_on_c, 0, 50, 0
1, 316320, Note_on_c, 0, 58, 47
1, 316330, Note_on_c, 0, 53, 0
1, 316360, Tempo, 385852
1, 316440, Tempo, 384615
1, 316440, Note_on_c, 0, 56, 47
1, 316450, Note_on_c, 0, 58, 0
1, 316520, Tempo, 383387
1, 316560, Tempo, 401338
1, 316560, Note_on_c, 0, 59, 52
1, 316560, Note_on_c, 0, 34, 44
1, 316570, Note_on_c, 0, 56, 0
1, 316680, Note_on_c, 0, 53, 47
1, 316690, Note_on_c, 0, 59, 0
1, 316800, Tempo, 383387
1, 316800, Note_on_c, 0, 34, 0
1, 316800, Note_on_c, 0, 58, 52
1, 316800, Note_on_c, 0, 50, 34
1, 316810, Note_on_c, 0, 53, 0
1, 316920, Note_on_c, 0, 56, 47
1, 316930, Note_on_c, 0, 58, 0
1, 317040, Note_on_c, 0, 50, 0
1, 317040, Note_on_c, 0, 59, 47
1, 317050, Note_on_c, 0, 56, 0
1, 317160, Note_on_c, 0, 53, 47
1, 317170, Note_on_c, 0, 59, 0
1, 317280, Tempo, 396040
1, 317280, Note_on_c, 0, 58, 52
1, 317280, Note_on_c, 0, 34, 46
1, 317290, Note_on_c, 0, 53, 0
1, 317400, Note_on_c, 0, 56, 48
1, 317410, Note_on_c, 0, 58, 0
1, 317520, Tempo, 380952
1, 317520, Note_on_c, 0, 34, 0
1, 317520, Note_on_c, 0, 59, 52
1, 317520, Note_on_c, 0, 50, 34
1, 317530, Note_on_c, 0, 56, 0
1, 317640, Note_on_c, 0, 53, 47
1, 317650, Note_on_c, 0, 59, 0
1, 317760, Note_on_c, 0, 50, 0
1, 317760, Note_on_c, 0, 58, 47
1, 317770, Note_on_c, 0, 53, 0
1, 317880, Note_on_c, 0, 56, 47
1, 317890, Note_on_c, 0, 58, 0
1, 318000, Tempo, 385852
1, 318000, Note_on_c, 0, 59, 52
1, 318000, Note_on_c, 0, 34, 48
1, 318010, Note_on_c, 0, 56, 0
1, 318120, Note_on_c, 0, 53, 47
1, 318130, Note_on_c, 0, 59, 0
1, 318240, Tempo, 375000
1, 318240, Note_on_c, 0, 34, 0
1, 318240, Note_on_c, 0, 58, 52
1, 318240, Note_on_c, 0, 50, 34
1, 318250, Note_on_c, 0, 53, 0
1, 318360, Note_on_c, 0, 56, 47
1, 318370, Note_on_c, 0, 58, 0
1, 318480, Note_on_c, 0, 50, 0
1, 318480, Note_on_c, 0, 59, 47
1, 318490, Note_on_c, 0, 56, 0
1, 318600, Note_on_c, 0, 53, 47
1, 318610, Note_on_c, 0, 59, 0
1, 318720, Tempo, 385852
1, 318720, Note_on_c, 0, 58, 52
1, 318720, Note_on_c, 0, 50, 49
1, 318730, Note_on_c, 0, 53, 0
1, 318840, Note_on_c, 0, 56, 48
1, 318850, Note_on_c, 0, 58, 0
1, 318960, Tempo, 375000
1, 318960, Note_on_c, 0, 50, 0
1, 318960, Note_on_c, 0, 59, 53
1, 318960, Note_on_c, 0, 65, 34
1, 318970, Note_on_c, 0, 56, 0
1, 319080, Note_on_c, 0, 53, 48
1, 319090, Note_on_c, 0, 59, 0
1, 319200, Note_on_c, 0, 65, 0
1, 319200, Note_on_c, 0, 58, 48
1, 319210, Note_on_c, 0, 53, 0
1, 319320, Note_on_c, 0, 56, 49
1, 319330, Note_on_c, 0, 58, 0
1, 319440, Tempo, 384615
1, 319440, Note_on_c, 0, 59, 55
1, 319440, Note_on_c, 0, 50, 52
1, 319450, Note_on_c, 0, 56, 0
1, 319560, Note_on_c, 0, 53, 50
1, 319570, Note_on_c, 0, 59, 0
1, 319680, Tempo, 375000
1, 319680, Note_on_c, 0, 50, 0
1, 319680, Note_on_c, 0, 58, 56
1, 319680, Note_on_c, 0, 65, 36
1, 319690, Note_on_c, 0, 53, 0
1, 319800, Note_on_c, 0, 56, 51
1, 319810, Note_on_c, 0, 58, 0
1, 319920, Note_on_c, 0, 65, 0
1, 319920, Note_on_c, 0, 59, 51
1, 319930, Note_on_c, 0, 56, 0
1, 320040, Note_on_c, 0, 53, 52
1, 320050, Note_on_c, 0, 59, 0
1, 320160, Tempo, 387097
1, 320160, Note_on_c, 0, 58, 58
1, 320160, Note_on_c, 0, 50, 53
1, 320170, Note_on_c, 0, 53, 0
1, 320280, Note_on_c, 0, 56, 54
1, 320290, Note_on_c, 0, 58, 0
1, 320400, Tempo, 375000
1, 320400, Note_on_c, 0, 50, 0
1, 320400, Note_on_c, 0, 59, 59
1, 320400, Note_on_c, 0, 65, 38
1, 320410, Note_on_c, 0, 56, 0
1, 320520, Note_on_c, 0, 53, 54
1, 320530, Note_on_c, 0, 59, 0
1, 320640, Note_on_c, 0, 65, 0
1, 320640, Note_on_c, 0, 58, 54
1, 320650, Note_on_c, 0, 53, 0
1, 320760, Note_on_c, 0, 56, 54
1, 320770, Note_on_c, 0, 58, 0
1, 320880, Tempo, 388350
1, 320880, Note_on_c, 0, 59, 61
1, 320880, Note_on_c, 0, 50, 55
1, 320890, Note_on_c, 0, 56, 0
1, 321000, Note_on_c, 0, 53, 55
1, 321010, Note_on_c, 0, 59, 0
1, 321120, Tempo, 375000
1, 321120, Note_on_c, 0, 50, 0
1, 321120, Note_on_c, 0, 58, 62
1, 321120, Note_on_c, 0, 65, 40
1, 321130, Note_on_c, 0, 53, 0
1, 321240, Note_on_c, 0, 56, 56
1, 321250, Note_on_c, 0, 58, 0
1, 321360, Note_on_c, 0, 65, 0
1, 321360, Note_on_c, 0, 59, 57
1, 321370, Note_on_c, 0, 56, 0
1, 321480, Note_on_c, 0, 53, 57
1, 321490, Note_on_c, 0, 59, 0
1, 321600, Note_on_c, 0, 58, 65
1, 321600, Note_on_c, 0, 34, 50
1, 321610, Note_on_c, 0, 53, 0
1, 321640, Tempo, 375000
1, 321669, Control_c, 0, 64, 127
1, 321840, Note_on_c, 0, 34, 0
1, 321840, Note_on_c, 0, 58, 0
1, 321840, Note_on_c, 0, 58, 65
1, 321960, Note_on_c, 0, 62, 56
1, 321970, Note_on_c, 0, 58, 0
1, 322080, Note_on_c, 0, 59, 65
1, 322090, Note_on_c, 0, 62, 0
1, 322091, Control_c, 0, 64, 0
1, 322200, Note_on_c, 0, 62, 58
1, 322210, Note_on_c, 0, 59, 0
1, 322320, Note_on_c, 0, 61, 65
1, 322320, Note_on_c, 0, 56, 45
1, 322320, Note_on_c, 0, 53, 37
1, 322320, Note_on_c, 0, 46, 37
1, 322330, Note_on_c, 0, 62, 0
1, 322360, Tempo, 373832
1, 322440, Note_on_c, 0, 65, 58
1, 322450, Note_on_c, 0, 61, 0
1, 322560, Note_on_c, 0, 46, 0
1, 322560, Note_on_c, 0, 53, 0
1, 322560, Note_on_c, 0, 56, 0
1, 322560, Note_on_c, 0, 62, 65
1, 322570, Note_on_c, 0, 65, 0
1, 322680, Note_on_c, 0, 68, 58
1, 322690, Note_on_c, 0, 62, 0
1, 322800, Note_on_c, 0, 64, 65
1, 322810, Note_on_c, 0, 68, 0
1, 322920, Note_on_c, 0, 68, 58
1, 322930, Note_on_c, 0, 64, 0
1, 323040, Tempo, 372671
1, 323040, Note_on_c, 0, 65, 65
1, 323040, Note_on_c, 0, 53, 37
1, 323040, Note_on_c, 0, 62, 45
1, 323040, Note_on_c, 0, 56, 37
1, 323050, Note_on_c, 0, 68, 0
1, 323160, Note_on_c, 0, 71, 58
1, 323170, Note_on_c, 0, 65, 0
1, 323240, Tempo, 371517
1, 323280, Note_on_c, 0, 56, 0
1, 323280, Note_on_c, 0, 62, 0
1, 323280, Note_on_c, 0, 53, 0
1, 323280, Note_on_c, 0, 67, 65
1, 323290, Note_on_c, 0, 71, 0
1, 323400, Note_on_c, 0, 71, 58
1, 323410, Note_on_c, 0, 67, 0
1, 323440, Tempo, 370370
1, 323520, Note_on_c, 0, 68, 64
1, 323530, Note_on_c, 0, 71, 0
1, 323640, Tempo, 369231
1, 323640, Note_on_c, 0, 74, 57
1, 323650, Note_on_c, 0, 68, 0
1, 323760, Note_on_c, 0, 70, 63
1, 323760, Note_on_c, 0, 62, 36
1, 323760, Note_on_c, 0, 56, 36
1, 323760, Note_on_c, 0, 65, 44
1, 323770, Note_on_c, 0, 74, 0
1, 323840, Tempo, 368098
1, 323880, Note_on_c, 0, 74, 56
1, 323890, Note_on_c, 0, 70, 0
1, 324000, Note_on_c, 0, 65, 0
1, 324000, Note_on_c, 0, 56, 0
1, 324000, Note_on_c, 0, 62, 0
1, 324000, Note_on_c, 0, 71, 63
1, 324010, Note_on_c, 0, 74, 0
1, 324040, Tempo, 366972
1, 324120, Note_on_c, 0, 74, 57
1, 324130, Note_on_c, 0, 71, 0
1, 324240, Tempo, 365854
1, 324240, Note_on_c, 0, 73, 62
1, 324250, Note_on_c, 0, 74, 0
1, 324360, Note_on_c, 0, 77, 56
1, 324370, Note_on_c, 0, 73, 0
1, 324440, Tempo, 363636
1, 324480, Note_on_c, 0, 74, 62
1, 324480, Note_on_c, 0, 68, 43
1, 324480, Note_on_c, 0, 58, 36
1, 324480, Note_on_c, 0, 65, 36
1, 324490, Note_on_c, 0, 77, 0
1, 324600, Note_on_c, 0, 80, 56
1, 324610, Note_on_c, 0, 74, 0
1, 324720, Note_on_c, 0, 65, 0
1, 324720, Note_on_c, 0, 58, 0
1, 324720, Note_on_c, 0, 68, 0
1, 324720, Note_on_c, 0, 76, 62
1, 324730, Note_on_c, 0, 80, 0
1, 324840, Note_on_c, 0, 80, 55
1, 324850, Note_on_c, 0, 76, 0
1, 324920, Tempo, 364742
1, 324960, Note_on_c, 0, 77, 61
1, 324970, Note_on_c, 0, 80, 0
1, 325080, Note_on_c, 0, 83, 55
1, 325090, Note_on_c, 0, 77, 0
1, 325200, Note_on_c, 0, 79, 61
1, 325200, Note_on_c, 0, 65, 35
1, 325200, Note_on_c, 0, 68, 35
1, 325200, Note_on_c, 0, 74, 42
1, 325210, Note_on_c, 0, 83, 0
1, 325320, Note_on_c, 0, 83, 54
1, 325330, Note_on_c, 0, 79, 0
1, 325400, Tempo, 365854
1, 325440, Note_on_c, 0, 74, 0
1, 325440, Note_on_c, 0, 68, 0
1, 325440, Note_on_c, 0, 65, 0
1, 325440, Note_on_c, 0, 80, 60
1, 325450, Note_on_c, 0, 83, 0
1, 325520, Tempo, 366972
1, 325560, Note_on_c, 0, 86, 54
1, 325570, Note_on_c, 0, 80, 0
1, 325640, Tempo, 368098
1, 325680, Note_on_c, 0, 82, 60
1, 325690, Note_on_c, 0, 86, 0
1, 325760, Tempo, 369231
1, 325800, Note_on_c, 0, 86, 54
1, 325810, Note_on_c, 0, 82, 0
1, 325880, Tempo, 370370
1, 325920, Tempo, 369231
1, 325920, Note_on_c, 0, 83, 59
1, 325920, Note_on_c, 0, 68, 39
1, 325920, Note_on_c, 0, 74, 39
1, 325920, Note_on_c, 0, 77, 46
1, 325930, Note_on_c, 0, 86, 0
1, 326040, Note_on_c, 0, 86, 52
1, 326050, Note_on_c, 0, 83, 0
1, 326120, Tempo, 370370
1, 326160, Note_on_c, 0, 77, 0
1, 326160, Note_on_c, 0, 74, 0
1, 326160, Note_on_c, 0, 68, 0
1, 326160, Note_on_c, 0, 85, 59
1, 326170, Note_on_c, 0, 86, 0
1, 326280, Note_on_c, 0, 89, 53
1, 326290, Note_on_c, 0, 85, 0
1, 326320, Tempo, 371517
1, 326400, Note_on_c, 0, 86, 59
1, 326410, Note_on_c, 0, 89, 0
1, 326520, Tempo, 372671
1, 326520, Note_on_c, 0, 92, 54
1, 326530, Note_on_c, 0, 86, 0
1, 326640, Note_on_c, 0, 88, 58
1, 326640, Note_on_c, 0, 80, 45
1, 326640, Note_on_c, 0, 77, 38
1, 326640, Note_on_c, 0, 70, 38
1, 326650, Note_on_c, 0, 92, 0
1, 326720, Tempo, 373832
1, 326760, Note_on_c, 0, 92, 54
1, 326770, Note_on_c, 0, 88, 0
1, 326880, Note_on_c, 0, 70, 0
1, 326880, Note_on_c, 0, 77, 0
1, 326880, Note_on_c, 0, 80, 0
1, 326880, Note_on_c, 0, 89, 58
1, 326890, Note_on_c, 0, 92, 0
1, 326920, Tempo, 375000
1, 327000, Note_on_c, 0, 95, 53
1, 327010, Note_on_c, 0, 89, 0
1, 327120, Tempo, 376176
1, 327120, Note_on_c, 0, 91, 57
1, 327130, Note_on_c, 0, 95, 0
1, 327240, Note_on_c, 0, 95, 54
1, 327250, Note_on_c, 0, 91, 0
1, 327280, Tempo, 377358
1, 327360, Tempo, 375000
1, 327360, Note_on_c, 0, 94, 57
1, 327360, Note_on_c, 0, 77, 37
1, 327360, Note_on_c, 0, 80, 37
1, 327360, Note_on_c, 0, 86, 44
1, 327370, Note_on_c, 0, 95, 0
1, 327380, Tempo, 373832
1, 327440, Tempo, 372671
1, 327480, Note_on_c, 0, 92, 51
1, 327490, Note_on_c, 0, 94, 0
1, 327540, Tempo, 377358
1, 327600, Note_on_c, 0, 95, 57
1, 327610, Note_on_c, 0, 92, 0
1, 327620, Tempo, 376176
1, 327640, Tempo, 373832
1, 327660, Tempo, 371517
1, 327680, Tempo, 376176
1, 327700, Tempo, 377358
1, 327720, Note_on_c, 0, 89, 51
1, 327730, Note_on_c, 0, 95, 0
1, 327820, Tempo, 375000
1, 327840, Tempo, 372671
1, 327840, Note_on_c, 0, 94, 57
1, 327850, Note_on_c, 0, 89, 0
1, 327860, Tempo, 371517
1, 327940, Tempo, 375000
1, 327960, Tempo, 376176
1, 327960, Note_on_c, 0, 92, 51
1, 327970, Note_on_c, 0, 94, 0
1, 327980, Tempo, 377358
1, 328040, Tempo, 376176
1, 328060, Tempo, 375000
1, 328080, Tempo, 372671
1, 328080, Note_on_c, 0, 96, 57
1, 328090, Note_on_c, 0, 92, 0
1, 328100, Tempo, 371517
1, 328140, Tempo, 372671
1, 328160, Tempo, 373832
1, 328180, Tempo, 375000
1, 328200, Tempo, 376176
1, 328200, Note_on_c, 0, 89, 50
1, 328210, Note_on_c, 0, 96, 0
1, 328220, Tempo, 377358
1, 328300, Tempo, 375000
1, 328320, Tempo, 373832
1, 328320, Note_on_c, 0, 94, 57
1, 328330, Note_on_c, 0, 89, 0
1, 328360, Tempo, 372671
1, 328400, Tempo, 371517
1, 328440, Tempo, 372671
1, 328440, Note_on_c, 0, 92, 52
1, 328450, Note_on_c, 0, 94, 0
1, 328460, Tempo, 376176
1, 328500, Tempo, 373832
1, 328520, Tempo, 372671
1, 328540, Tempo, 371517
1, 328560, Tempo, 370370
1, 328560, Note_on_c, 0, 97, 60
1, 328570, Note_on_c, 0, 92, 0
1, 328580, Tempo, 369231
1, 328660, Tempo, 371517
1, 328680, Tempo, 373832
1, 328680, Note_on_c, 0, 89, 51
1, 328690, Note_on_c, 0, 97, 0
1, 328700, Tempo, 375000
1, 328720, Tempo, 376176
1, 328760, Tempo, 377358
1, 328800, Tempo, 376176
1, 328800, Note_on_c, 0, 94, 61
1, 328810, Note_on_c, 0, 89, 0
1, 328820, Tempo, 373832
1, 328860, Tempo, 372671
1, 328920, Tempo, 371517
1, 328920, Note_on_c, 0, 92, 51
1, 328930, Note_on_c, 0, 94, 0
1, 328960, Tempo, 372671
1, 328980, Tempo, 375000
1, 329020, Tempo, 377358
1, 329040, Note_on_c, 0, 98, 63
1, 329050, Note_on_c, 0, 92, 0
1, 329120, Tempo, 376176
1, 329140, Tempo, 373832
1, 329160, Note_on_c, 0, 89, 51
1, 329170, Note_on_c, 0, 98, 0
1, 329180, Tempo, 372671
1, 329200, Tempo, 371517
1, 329220, Tempo, 370370
1, 329240, Tempo, 371517
1, 329260, Tempo, 372671
1, 329280, Tempo, 373832
1, 329280, Note_on_c, 0, 94, 57
1, 329290, Note_on_c, 0, 89, 0
1, 329300, Tempo, 376176
1, 329340, Tempo, 377358
1, 329400, Tempo, 376176
1, 329400, Note_on_c, 0, 92, 52
1, 329410, Note_on_c, 0, 94, 0
1, 329440, Tempo, 373832
1, 329460, Tempo, 372671
1, 329480, Tempo, 371517
1, 329500, Tempo, 369231
1, 329520, Note_on_c, 0, 86, 0
1, 329520, Note_on_c, 0, 80, 0
1, 329520, Note_on_c, 0, 77, 0
1, 329520, Note_on_c, 0, 99, 63
1, 329520, Note_on_c, 0, 84, 44
1, 329520, Note_on_c, 0, 75, 37
1, 329520, Note_on_c, 0, 80, 37
1, 329530, Note_on_c, 0, 92, 0
1, 329580, Tempo, 371517
1, 329600, Tempo, 372671
1, 329620, Tempo, 375000
1, 329640, Note_on_c, 0, 89, 52
1, 329650, Note_on_c, 0, 99, 0
1, 329680, Tempo, 376176
1, 329700, Tempo, 377358
1, 329720, Tempo, 376176
1, 329740, Tempo, 375000
1, 329760, Tempo, 373832
1, 329760, Note_on_c, 0, 94, 61
1, 329770, Note_on_c, 0, 89, 0
1, 329780, Tempo, 371517
1, 329840, Tempo, 372671
1, 329860, Tempo, 380952
1, 329880, Note_on_c, 0, 92, 52
1, 329890, Note_on_c, 0, 94, 0
1, 329960, Tempo, 378549
1, 329980, Tempo, 377358
1, 330000, Tempo, 376176
1, 330000, Note_on_c, 0, 100, 59
1, 330010, Note_on_c, 0, 92, 0
1, 330020, Tempo, 375000
1, 330040, Tempo, 373832
1, 330080, Tempo, 371517
1, 330100, Tempo, 369231
1, 330120, Note_on_c, 0, 89, 51
1, 330130, Note_on_c, 0, 100, 0
1, 330140, Tempo, 368098
1, 330160, Tempo, 366972
1, 330180, Tempo, 368098
1, 330200, Tempo, 371517
1, 330220, Tempo, 372671
1, 330240, Tempo, 375000
1, 330240, Note_on_c, 0, 80, 0
1, 330240, Note_on_c, 0, 75, 0
1, 330240, Note_on_c, 0, 84, 0
1, 330240, Note_on_c, 0, 101, 63
1, 330240, Note_on_c, 0, 75, 37
1, 330240, Note_on_c, 0, 84, 44
1, 330240, Note_on_c, 0, 80, 37
1, 330250, Note_on_c, 0, 89, 0
1, 330260, Tempo, 376176
1, 330360, Note_on_c, 0, 98, 51
1, 330370, Note_on_c, 0, 101, 0
1, 330480, Note_on_c, 0, 97, 52
1, 330490, Note_on_c, 0, 98, 0
1, 330520, Tempo, 373832
1, 330540, Tempo, 371517
1, 330580, Tempo, 372671
1, 330600, Tempo, 376176
1, 330600, Note_on_c, 0, 100, 52
1, 330610, Note_on_c, 0, 97, 0
1, 330620, Tempo, 377358
1, 330680, Tempo, 376176
1, 330700, Tempo, 375000
1, 330720, Tempo, 372671
1, 330720, Note_on_c, 0, 99, 57
1, 330730, Note_on_c, 0, 100, 0
1, 330780, Tempo, 373832
1, 330800, Tempo, 375000
1, 330840, Tempo, 376176
1, 330840, Note_on_c, 0, 96, 53
1, 330850, Note_on_c, 0, 99, 0
1, 330880, Tempo, 375000
1, 330900, Tempo, 373832
1, 330920, Tempo, 372671
1, 330940, Tempo, 371517
1, 330960, Tempo, 370370
1, 330960, Note_on_c, 0, 84, 0
1, 330960, Note_on_c, 0, 75, 0
1, 330960, Note_on_c, 0, 95, 57
1, 330960, Note_on_c, 0, 74, 37
1, 330960, Note_on_c, 0, 82, 44
1, 330970, Note_on_c, 0, 96, 0
1, 330980, Tempo, 369231
1, 331000, Tempo, 368098
1, 331040, Tempo, 371517
1, 331060, Tempo, 373832
1, 331080, Tempo, 376176
1, 331080, Note_on_c, 0, 98, 52
1, 331090, Note_on_c, 0, 95, 0
1, 331100, Tempo, 377358
1, 331120, Tempo, 378549
1, 331160, Tempo, 377358
1, 331180, Tempo, 376176
1, 331200, Tempo, 373832
1, 331200, Note_on_c, 0, 82, 0
1, 331200, Note_on_c, 0, 80, 0
1, 331200, Note_on_c, 0, 74, 0
1, 331200, Note_on_c, 0, 97, 52
1, 331210, Note_on_c, 0, 98, 0
1, 331220, Tempo, 372671
1, 331240, Tempo, 373832
1, 331260, Tempo, 376176
1, 331280, Tempo, 377358
1, 331320, Note_on_c, 0, 94, 52
1, 331330, Note_on_c, 0, 97, 0
1, 331340, Tempo, 376176
1, 331360, Tempo, 375000
1, 331400, Tempo, 372671
1, 331420, Tempo, 371517
1, 331440, Tempo, 369231
1, 331440, Note_on_c, 0, 93, 57
1, 331450, Note_on_c, 0, 94, 0
1, 331480, Tempo, 370370
1, 331520, Tempo, 372671
1, 331540, Tempo, 375000
1, 331560, Tempo, 376176
1, 331560, Note_on_c, 0, 96, 52
1, 331570, Note_on_c, 0, 93, 0
1, 331600, Tempo, 377358
1, 331660, Tempo, 376176
1, 331680, Tempo, 372671
1, 331680, Note_on_c, 0, 95, 57
1, 331690, Note_on_c, 0, 96, 0
1, 331700, Tempo, 371517
1, 331720, Tempo, 370370
1, 331740, Tempo, 368098
1, 331760, Tempo, 366972
1, 331800, Tempo, 369231
1, 331800, Note_on_c, 0, 92, 52
1, 331810, Note_on_c, 0, 95, 0
1, 331820, Tempo, 371517
1, 331840, Tempo, 372671
1, 331860, Tempo, 373832
1, 331880, Tempo, 375000
1, 331900, Tempo, 376176
1, 331920, Tempo, 375000
1, 331920, Note_on_c, 0, 91, 52
1, 331930, Note_on_c, 0, 92, 0
1, 331940, Tempo, 372671
1, 331980, Tempo, 371517
1, 332020, Tempo, 373832
1, 332040, Tempo, 375000
1, 332040, Note_on_c, 0, 94, 53
1, 332050, Note_on_c, 0, 91, 0
1, 332060, Tempo, 376176
1, 332080, Tempo, 378549
1, 332120, Tempo, 377358
1, 332140, Tempo, 375000
1, 332160, Tempo, 372671
1, 332160, Note_on_c, 0, 92, 57
1, 332170, Note_on_c, 0, 94, 0
1, 332200, Tempo, 371517
1, 332220, Tempo, 370370
1, 332240, Tempo, 369231
1, 332280, Tempo, 371517
1, 332280, Note_on_c, 0, 89, 55
1, 332290, Note_on_c, 0, 92, 0
1, 332300, Tempo, 372671
1, 332320, Tempo, 375000
1, 332360, Tempo, 376176
1, 332380, Tempo, 375000
1, 332400, Tempo, 373832
1, 332400, Note_on_c, 0, 86, 57
1, 332410, Note_on_c, 0, 89, 0
1, 332420, Tempo, 372671
1, 332460, Tempo, 370370
1, 332480, Tempo, 368098
1, 332500, Tempo, 366972
1, 332520, Tempo, 368098
1, 332520, Note_on_c, 0, 82, 52
1, 332530, Note_on_c, 0, 86, 0
1, 332540, Tempo, 370370
1, 332580, Tempo, 371517
1, 332620, Tempo, 373832
1, 332640, Tempo, 375000
1, 332640, Note_on_c, 0, 81, 52
1, 332650, Note_on_c, 0, 82, 0
1, 332660, Tempo, 376176
1, 332680, Tempo, 377358
1, 332700, Tempo, 376176
1, 332720, Tempo, 375000
1, 332740, Tempo, 373832
1, 332760, Tempo, 372671
1, 332760, Note_on_c, 0, 82, 52
1, 332770, Note_on_c, 0, 81, 0
1, 332800, Tempo, 371517
1, 332840, Tempo, 372671
1, 332860, Tempo, 375000
1, 332880, Tempo, 376176
1, 332880, Note_on_c, 0, 80, 57
1, 332890, Note_on_c, 0, 82, 0
1, 332900, Tempo, 377358
1, 332960, Tempo, 376176
1, 332980, Tempo, 375000
1, 333000, Tempo, 372671
1, 333000, Note_on_c, 0, 82, 52
1, 333010, Note_on_c, 0, 80, 0
1, 333120, Tempo, 401338
1, 333120, Note_on_c, 0, 78, 56
1, 333120, Note_on_c, 0, 51, 42
1, 333130, Note_on_c, 0, 82, 0
1, 333200, Tempo, 381291
1, 333240, Note_on_c, 0, 51, 0
1, 333240, Note_on_c, 0, 79, 48
1, 333250, Note_on_c, 0, 78, 0
1, 333349, Control_c, 0, 64, 127
1, 333360, Tempo, 367512
1, 333360, Note_on_c, 0, 91, 47
1, 333360, Note_on_c, 0, 63, 28
1, 333360, Note_on_c, 0, 67, 28
1, 333360, Note_on_c, 0, 72, 48
1, 333370, Note_on_c, 0, 79, 0
1, 333480, Note_on_c, 0, 86, 47
1, 333490, Note_on_c, 0, 91, 0
1, 333600, Tempo, 397219
1, 333600, Note_on_c, 0, 72, 0
1, 333600, Note_on_c, 0, 87, 51
1, 333600, Note_on_c, 0, 70, 35
1, 333610, Note_on_c, 0, 86, 0
1, 333615, Control_c, 0, 64, 0
1, 333720, Note_on_c, 0, 83, 44
1, 333730, Note_on_c, 0, 87, 0
1, 333800, Tempo, 376176
1, 333840, Note_on_c, 0, 70, 0
1, 333840, Note_on_c, 0, 67, 0
1, 333840, Note_on_c, 0, 63, 0
1, 333840, Note_on_c, 0, 84, 49
1, 333840, Note_on_c, 0, 46, 41
1, 333850, Note_on_c, 0, 83, 0
1, 333960, Note_on_c, 0, 46, 0
1, 333960, Note_on_c, 0, 79, 46
1, 333970, Note_on_c, 0, 84, 0
1, 334080, Tempo, 379747
1, 334080, Note_on_c, 0, 82, 50
1, 334080, Note_on_c, 0, 62, 23
1, 334080, Note_on_c, 0, 68, 27
1, 334080, Note_on_c, 0, 57, 33
1, 334090, Note_on_c, 0, 79, 0
1, 334097, Control_c, 0, 64, 127
1, 334200, Note_on_c, 0, 80, 48
1, 334210, Note_on_c, 0, 82, 0
1, 334320, Tempo, 395857
1, 334320, Note_on_c, 0, 57, 0
1, 334320, Note_on_c, 0, 79, 47
1, 334320, Note_on_c, 0, 58, 33
1, 334328, Control_c, 0, 64, 0
1, 334330, Note_on_c, 0, 80, 0
1, 334440, Note_on_c, 0, 77, 48
1, 334450, Note_on_c, 0, 79, 0
1, 334560, Tempo, 381291
1, 334560, Note_on_c, 0, 58, 0
1, 334560, Note_on_c, 0, 68, 0
1, 334560, Note_on_c, 0, 62, 0
1, 334560, Note_on_c, 0, 77, 0
1, 334560, Note_on_c, 0, 78, 52
1, 334560, Note_on_c, 0, 51, 42
1, 334680, Note_on_c, 0, 51, 0
1, 334680, Note_on_c, 0, 79, 45
1, 334690, Note_on_c, 0, 78, 0
1, 334800, Tempo, 366077
1, 334800, Note_on_c, 0, 91, 47
1, 334800, Note_on_c, 0, 67, 28
1, 334800, Note_on_c, 0, 63, 28
1, 334800, Note_on_c, 0, 72, 48
1, 334810, Note_on_c, 0, 79, 0
1, 334812, Control_c, 0, 64, 127
1, 334920, Note_on_c, 0, 86, 45
1, 334930, Note_on_c, 0, 91, 0
1, 335040, Tempo, 397219
1, 335040, Note_on_c, 0, 72, 0
1, 335040, Note_on_c, 0, 87, 50
1, 335040, Note_on_c, 0, 70, 35
1, 335050, Note_on_c, 0, 86, 0
1, 335050, Control_c, 0, 64, 0
1, 335160, Note_on_c, 0, 83, 45
1, 335170, Note_on_c, 0, 87, 0
1, 335280, Tempo, 381291
1, 335280, Note_on_c, 0, 70, 0
1, 335280, Note_on_c, 0, 63, 0
1, 335280, Note_on_c, 0, 67, 0
1, 335280, Note_on_c, 0, 84, 49
1, 335280, Note_on_c, 0, 46, 41
1, 335290, Note_on_c, 0, 83, 0
1, 335300, Tempo, 376176
1, 335400, Note_on_c, 0, 46, 0
1, 335400, Note_on_c, 0, 79, 46
1, 335410, Note_on_c, 0, 84, 0
1, 335520, Tempo, 380952
1, 335520, Note_on_c, 0, 82, 48
1, 335520, Note_on_c, 0, 62, 23
1, 335520, Note_on_c, 0, 57, 33
1, 335520, Note_on_c, 0, 68, 27
1, 335530, Note_on_c, 0, 79, 0
1, 335549, Control_c, 0, 64, 127
1, 335640, Note_on_c, 0, 80, 48
1, 335650, Note_on_c, 0, 82, 0
1, 335760, Tempo, 395857
1, 335760, Note_on_c, 0, 57, 0
1, 335760, Note_on_c, 0, 79, 47
1, 335760, Note_on_c, 0, 58, 33
1, 335766, Control_c, 0, 64, 0
1, 335770, Note_on_c, 0, 80, 0
1, 335880, Note_on_c, 0, 77, 48
1, 335890, Note_on_c, 0, 79, 0
1, 336000, Tempo, 381291
1, 336000, Note_on_c, 0, 58, 0
1, 336000, Note_on_c, 0, 68, 0
1, 336000, Note_on_c, 0, 62, 0
1, 336000, Note_on_c, 0, 77, 0
1, 336000, Note_on_c, 0, 78, 52
1, 336000, Note_on_c, 0, 51, 42
1, 336120, Note_on_c, 0, 51, 0
1, 336120, Note_on_c, 0, 79, 45
1, 336130, Note_on_c, 0, 78, 0
1, 336240, Tempo, 383387
1, 336240, Note_on_c, 0, 91, 47
1, 336240, Note_on_c, 0, 58, 28
1, 336240, Note_on_c, 0, 63, 28
1, 336240, Note_on_c, 0, 68, 48
1, 336250, Note_on_c, 0, 79, 0
1, 336255, Control_c, 0, 64, 127
1, 336360, Note_on_c, 0, 86, 46
1, 336370, Note_on_c, 0, 91, 0
1, 336480, Tempo, 397219
1, 336480, Note_on_c, 0, 68, 0
1, 336480, Note_on_c, 0, 87, 52
1, 336480, Note_on_c, 0, 67, 36
1, 336490, Note_on_c, 0, 86, 0
1, 336494, Control_c, 0, 64, 0
1, 336600, Note_on_c, 0, 83, 47
1, 336610, Note_on_c, 0, 87, 0
1, 336720, Tempo, 381291
1, 336720, Note_on_c, 0, 67, 0
1, 336720, Note_on_c, 0, 63, 0
1, 336720, Note_on_c, 0, 58, 0
1, 336720, Note_on_c, 0, 84, 52
1, 336720, Note_on_c, 0, 44, 43
1, 336730, Note_on_c, 0, 83, 0
1, 336840, Note_on_c, 0, 44, 0
1, 336840, Note_on_c, 0, 79, 49
1, 336850, Note_on_c, 0, 84, 0
1, 336960, Note_on_c, 0, 82, 52
1, 336960, Note_on_c, 0, 60, 29
1, 336960, Note_on_c, 0, 67, 50
1, 336960, Note_on_c, 0, 56, 29
1, 336970, Note_on_c, 0, 79, 0
1, 336975, Control_c, 0, 64, 127
1, 337080, Note_on_c, 0, 80, 53
1, 337090, Note_on_c, 0, 82, 0
1, 337200, Tempo, 395857
1, 337200, Note_on_c, 0, 67, 0
1, 337200, Note_on_c, 0, 79, 52
1, 337200, Note_on_c, 0, 65, 37
1, 337210, Note_on_c, 0, 80, 0
1, 337211, Control_c, 0, 64, 0
1, 337320, Note_on_c, 0, 77, 54
1, 337330, Note_on_c, 0, 79, 0
1, 337440, Tempo, 386449
1, 337440, Note_on_c, 0, 65, 0
1, 337440, Note_on_c, 0, 56, 0
1, 337440, Note_on_c, 0, 60, 0
1, 337440, Note_on_c, 0, 77, 0
1, 337440, Note_on_c, 0, 75, 64
1, 337440, Note_on_c, 0, 46, 45
1, 337480, Control_c, 0, 64, 127
1, 337560, Note_on_c, 0, 46, 0
1, 337560, Note_on_c, 0, 81, 49
1, 337680, Note_on_c, 0, 81, 0
1, 337680, Note_on_c, 0, 75, 0
1, 337680, Note_on_c, 0, 77, 48
1, 337680, Note_on_c, 0, 63, 50
1, 337680, Note_on_c, 0, 53, 29
1, 337680, Note_on_c, 0, 56, 29
1, 337800, Note_on_c, 0, 77, 0
1, 337800, Note_on_c, 0, 74, 58
1, 337920, Tempo, 384615
1, 337920, Note_on_c, 0, 63, 0
1, 337920, Note_on_c, 0, 81, 48
1, 337920, Note_on_c, 0, 62, 36
1, 338040, Note_on_c, 0, 81, 0
1, 338040, Note_on_c, 0, 74, 0
1, 338040, Note_on_c, 0, 77, 48
1, 338120, Tempo, 385852
1, 338160, Note_on_c, 0, 77, 0
1, 338160, Note_on_c, 0, 62, 0
1, 338160, Note_on_c, 0, 53, 0
1, 338160, Note_on_c, 0, 56, 0
1, 338160, Note_on_c, 0, 72, 56
1, 338160, Note_on_c, 0, 46, 41
1, 338175, Control_c, 0, 64, 0
1, 338280, Tempo, 387097
1, 338280, Note_on_c, 0, 46, 0
1, 338280, Note_on_c, 0, 81, 48
1, 338280, Control_c, 0, 64, 127
1, 338400, Note_on_c, 0, 81, 0
1, 338400, Note_on_c, 0, 72, 0
1, 338400, Note_on_c, 0, 77, 48
1, 338400, Note_on_c, 0, 53, 27
1, 338400, Note_on_c, 0, 56, 27
1, 338400, Note_on_c, 0, 60, 46
1, 338440, Tempo, 388350
1, 338520, Note_on_c, 0, 77, 0
1, 338520, Note_on_c, 0, 70, 54
1, 338600, Tempo, 389610
1, 338640, Tempo, 395857
1, 338640, Note_on_c, 0, 60, 0
1, 338640, Note_on_c, 0, 81, 47
1, 338640, Note_on_c, 0, 58, 34
1, 338760, Note_on_c, 0, 81, 0
1, 338760, Note_on_c, 0, 70, 0
1, 338760, Note_on_c, 0, 77, 47
1, 338880, Tempo, 402685
1, 338880, Note_on_c, 0, 77, 0
1, 338880, Note_on_c, 0, 58, 0
1, 338880, Note_on_c, 0, 56, 0
1, 338880, Note_on_c, 0, 53, 0
1, 338880, Note_on_c, 0, 78, 56
1, 338880, Note_on_c, 0, 51, 42
1, 338880, Control_c, 0, 64, 0
1, 338893, Control_c, 0, 64, 0
1, 338960, Tempo, 384615
1, 339000, Note_on_c, 0, 51, 0
1, 339000, Note_on_c, 0, 79, 48
1, 339010, Note_on_c, 0, 78, 0
1, 339120, Tempo, 367512
1, 339120, Note_on_c, 0, 91, 47
1, 339120, Note_on_c, 0, 63, 28
1, 339120, Note_on_c, 0, 67, 28
1, 339120, Note_on_c, 0, 72, 48
1, 339130, Note_on_c, 0, 79, 0
1, 339172, Control_c, 0, 64, 127
1, 339240, Note_on_c, 0, 86, 47
1, 339250, Note_on_c, 0, 91, 0
1, 339360, Tempo, 397219
1, 339360, Note_on_c, 0, 72, 0
1, 339360, Note_on_c, 0, 87, 51
1, 339360, Note_on_c, 0, 70, 35
1, 339370, Note_on_c, 0, 86, 0
1, 339370, Control_c, 0, 64, 0
1, 339480, Note_on_c, 0, 83, 44
1, 339490, Note_on_c, 0, 87, 0
1, 339600, Tempo, 381291
1, 339600, Note_on_c, 0, 70, 0
1, 339600, Note_on_c, 0, 67, 0
1, 339600, Note_on_c, 0, 63, 0
1, 339600, Note_on_c, 0, 84, 51
1, 339600, Note_on_c, 0, 46, 41
1, 339610, Note_on_c, 0, 83, 0
1, 339620, Tempo, 377358
1, 339720, Note_on_c, 0, 46, 0
1, 339720, Note_on_c, 0, 79, 46
1, 339730, Note_on_c, 0, 84, 0
1, 339840, Tempo, 380952
1, 339840, Note_on_c, 0, 82, 50
1, 339840, Note_on_c, 0, 57, 33
1, 339840, Note_on_c, 0, 68, 27
1, 339840, Note_on_c, 0, 62, 23
1, 339850, Note_on_c, 0, 79, 0
1, 339903, Control_c, 0, 64, 127
1, 339960, Note_on_c, 0, 80, 48
1, 339970, Note_on_c, 0, 82, 0
1, 340080, Tempo, 395857
1, 340080, Note_on_c, 0, 57, 0
1, 340080, Note_on_c, 0, 79, 47
1, 340080, Note_on_c, 0, 58, 33
1, 340090, Note_on_c, 0, 80, 0
1, 340090, Control_c, 0, 64, 0
1, 340200, Note_on_c, 0, 77, 48
1, 340210, Note_on_c, 0, 79, 0
1, 340320, Tempo, 381291
1, 340320, Note_on_c, 0, 58, 0
1, 340320, Note_on_c, 0, 68, 0
1, 340320, Note_on_c, 0, 62, 0
1, 340320, Note_on_c, 0, 77, 0
1, 340320, Note_on_c, 0, 78, 52
1, 340320, Note_on_c, 0, 51, 42
1, 340440, Note_on_c, 0, 51, 0
1, 340440, Note_on_c, 0, 79, 45
1, 340450, Note_on_c, 0, 78, 0
1, 340560, Tempo, 366077
1, 340560, Note_on_c, 0, 91, 47
1, 340560, Note_on_c, 0, 72, 48
1, 340560, Note_on_c, 0, 63, 28
1, 340560, Note_on_c, 0, 67, 28
1, 340570, Note_on_c, 0, 79, 0
1, 340629, Control_c, 0, 64, 127
1, 340680, Note_on_c, 0, 86, 45
1, 340690, Note_on_c, 0, 91, 0
1, 340800, Tempo, 397219
1, 340800, Note_on_c, 0, 72, 0
1, 340800, Note_on_c, 0, 87, 50
1, 340800, Note_on_c, 0, 70, 35
1, 340810, Note_on_c, 0, 86, 0
1, 340811, Control_c, 0, 64, 0
1, 340920, Note_on_c, 0, 83, 45
1, 340930, Note_on_c, 0, 87, 0
1, 341040, Tempo, 381291
1, 341040, Note_on_c, 0, 70, 0
1, 341040, Note_on_c, 0, 63, 0
1, 341040, Note_on_c, 0, 67, 0
1, 341040, Note_on_c, 0, 84, 49
1, 341040, Note_on_c, 0, 46, 41
1, 341050, Note_on_c, 0, 83, 0
1, 341160, Note_on_c, 0, 46, 0
1, 341160, Note_on_c, 0, 79, 46
1, 341170, Note_on_c, 0, 84, 0
1, 341280, Note_on_c, 0, 82, 48
1, 341280, Note_on_c, 0, 62, 23
1, 341280, Note_on_c, 0, 68, 27
1, 341280, Note_on_c, 0, 57, 33
1, 341290, Note_on_c, 0, 79, 0
1, 341355, Control_c, 0, 64, 127
1, 341400, Note_on_c, 0, 80, 48
1, 341410, Note_on_c, 0, 82, 0
1, 341520, Tempo, 395857
1, 341520, Note_on_c, 0, 57, 0
1, 341520, Note_on_c, 0, 79, 47
1, 341520, Note_on_c, 0, 58, 33
1, 341527, Control_c, 0, 64, 0
1, 341530, Note_on_c, 0, 80, 0
1, 341640, Note_on_c, 0, 77, 48
1, 341650, Note_on_c, 0, 79, 0
1, 341760, Tempo, 387097
1, 341760, Note_on_c, 0, 58, 0
1, 341760, Note_on_c, 0, 68, 0
1, 341760, Note_on_c, 0, 62, 0
1, 341760, Note_on_c, 0, 77, 0
1, 341760, Note_on_c, 0, 78, 52
1, 341760, Note_on_c, 0, 51, 42
1, 341880, Note_on_c, 0, 51, 0
1, 341880, Note_on_c, 0, 79, 45
1, 341890, Note_on_c, 0, 78, 0
1, 342000, Tempo, 376176
1, 342000, Note_on_c, 0, 91, 47
1, 342000, Note_on_c, 0, 67, 28
1, 342000, Note_on_c, 0, 77, 48
1, 342000, Note_on_c, 0, 70, 28
1, 342010, Note_on_c, 0, 79, 0
1, 342069, Control_c, 0, 64, 127
1, 342120, Note_on_c, 0, 86, 46
1, 342130, Note_on_c, 0, 91, 0
1, 342240, Tempo, 397219
1, 342240, Note_on_c, 0, 77, 0
1, 342240, Note_on_c, 0, 87, 52
1, 342240, Note_on_c, 0, 75, 36
1, 342250, Note_on_c, 0, 86, 0
1, 342251, Control_c, 0, 64, 0
1, 342360, Note_on_c, 0, 83, 47
1, 342370, Note_on_c, 0, 87, 0
1, 342480, Tempo, 381291
1, 342480, Note_on_c, 0, 75, 0
1, 342480, Note_on_c, 0, 70, 0
1, 342480, Note_on_c, 0, 67, 0
1, 342480, Note_on_c, 0, 84, 52
1, 342480, Note_on_c, 0, 44, 43
1, 342490, Note_on_c, 0, 83, 0
1, 342600, Note_on_c, 0, 44, 0
1, 342600, Note_on_c, 0, 79, 49
1, 342610, Note_on_c, 0, 84, 0
1, 342720, Note_on_c, 0, 82, 52
1, 342720, Note_on_c, 0, 67, 50
1, 342720, Note_on_c, 0, 60, 29
1, 342720, Note_on_c, 0, 56, 29
1, 342730, Note_on_c, 0, 79, 0
1, 342789, Control_c, 0, 64, 127
1, 342840, Note_on_c, 0, 80, 53
1, 342850, Note_on_c, 0, 82, 0
1, 342960, Tempo, 395857
1, 342960, Note_on_c, 0, 67, 0
1, 342960, Note_on_c, 0, 79, 52
1, 342960, Note_on_c, 0, 65, 37
1, 342970, Note_on_c, 0, 80, 0
1, 342974, Control_c, 0, 64, 0
1, 343080, Note_on_c, 0, 77, 54
1, 343090, Note_on_c, 0, 79, 0
1, 343200, Tempo, 386449
1, 343200, Note_on_c, 0, 65, 0
1, 343200, Note_on_c, 0, 60, 0
1, 343200, Note_on_c, 0, 56, 0
1, 343200, Note_on_c, 0, 77, 0
1, 343200, Note_on_c, 0, 76, 56
1, 343200, Note_on_c, 0, 46, 48
1, 343213, Control_c, 0, 64, 0
1, 343240, Control_c, 0, 64, 127
1, 343320, Note_on_c, 0, 76, 0
1, 343320, Note_on_c, 0, 75, 56
1, 343440, Note_on_c, 0, 75, 0
1, 343440, Note_on_c, 0, 46, 0
1, 343440, Note_on_c, 0, 74, 55
1, 343560, Note_on_c, 0, 74, 0
1, 343560, Note_on_c, 0, 73, 54
1, 343680, Note_on_c, 0, 73, 0
1, 343680, Note_on_c, 0, 72, 52
1, 343680, Note_on_c, 0, 62, 38
1, 343680, Note_on_c, 0, 56, 38
1, 343680, Note_on_c, 0, 53, 38
1, 343800, Note_on_c, 0, 72, 0
1, 343800, Note_on_c, 0, 71, 51
1, 343920, Note_on_c, 0, 71, 0
1, 343920, Note_on_c, 0, 53, 0
1, 343920, Note_on_c, 0, 56, 0
1, 343920, Note_on_c, 0, 62, 0
1, 343920, Note_on_c, 0, 70, 50
1, 343920, Note_on_c, 0, 56, 38
1, 343920, Note_on_c, 0, 53, 38
1, 343920, Note_on_c, 0, 62, 38
1, 343935, Control_c, 0, 64, 0
1, 344040, Note_on_c, 0, 70, 0
1, 344040, Note_on_c, 0, 69, 49
1, 344040, Control_c, 0, 64, 127
1, 344160, Note_on_c, 0, 69, 0
1, 344160, Note_on_c, 0, 62, 0
1, 344160, Note_on_c, 0, 53, 0
1, 344160, Note_on_c, 0, 56, 0
1, 344160, Note_on_c, 0, 72, 50
1, 344160, Note_on_c, 0, 53, 38
1, 344160, Note_on_c, 0, 56, 38
1, 344160, Note_on_c, 0, 62, 38
1, 344280, Note_on_c, 0, 72, 0
1, 344280, Note_on_c, 0, 70, 50
1, 344400, Tempo, 395857
1, 344400, Note_on_c, 0, 70, 0
1, 344400, Note_on_c, 0, 62, 0
1, 344400, Note_on_c, 0, 56, 0
1, 344400, Note_on_c, 0, 53, 0
1, 344400, Note_on_c, 0, 69, 48
1, 344400, Note_on_c, 0, 56, 38
1, 344400, Note_on_c, 0, 62, 38
1, 344400, Note_on_c, 0, 53, 38
1, 344520, Note_on_c, 0, 69, 0
1, 344520, Note_on_c, 0, 68, 48
1, 344600, Tempo, 386449
1, 344640, Tempo, 386449
1, 344640, Note_on_c, 0, 68, 0
1, 344640, Note_on_c, 0, 53, 0
1, 344640, Note_on_c, 0, 62, 0
1, 344640, Note_on_c, 0, 56, 0
1, 344640, Note_on_c, 0, 67, 49
1, 344640, Note_on_c, 0, 58, 49
1, 344640, Note_on_c, 0, 61, 58
1, 344640, Note_on_c, 0, 51, 49
1, 344646, Control_c, 0, 64, 0
1, 344760, Note_on_c, 0, 68, 49
1, 344770, Note_on_c, 0, 67, 0
1, 344820, Tempo, 385159
1, 344880, Note_on_c, 0, 51, 0
1, 344880, Note_on_c, 0, 58, 0
1, 344880, Note_on_c, 0, 61, 0
1, 344880, Note_on_c, 0, 69, 50
1, 344890, Note_on_c, 0, 68, 0
1, 344980, Tempo, 383853
1, 345000, Note_on_c, 0, 70, 52
1, 345000, Note_on_c, 0, 51, 49
1, 345000, Note_on_c, 0, 39, 41
1, 345010, Note_on_c, 0, 69, 0
1, 345120, Note_on_c, 0, 39, 0
1, 345120, Note_on_c, 0, 51, 0
1, 345120, Note_on_c, 0, 72, 52
1, 345120, Note_on_c, 0, 51, 50
1, 345120, Note_on_c, 0, 39, 41
1, 345130, Note_on_c, 0, 70, 0
1, 345140, Tempo, 382555
1, 345240, Note_on_c, 0, 39, 0
1, 345240, Note_on_c, 0, 51, 0
1, 345240, Note_on_c, 0, 70, 53
1, 345250, Note_on_c, 0, 72, 0
1, 345280, Tempo, 383853
1, 345360, Note_on_c, 0, 68, 52
1, 345360, Note_on_c, 0, 56, 42
1, 345360, Note_on_c, 0, 60, 51
1, 345370, Note_on_c, 0, 70, 0
1, 345420, Tempo, 385159
1, 345480, Note_on_c, 0, 60, 0
1, 345480, Note_on_c, 0, 56, 0
1, 345480, Note_on_c, 0, 70, 53
1, 345490, Note_on_c, 0, 68, 0
1, 345560, Tempo, 386449
1, 345600, Note_on_c, 0, 71, 56
1, 345600, Note_on_c, 0, 43, 42
1, 345600, Note_on_c, 0, 55, 51
1, 345610, Note_on_c, 0, 70, 0
1, 345700, Tempo, 387772
1, 345720, Note_on_c, 0, 55, 0
1, 345720, Note_on_c, 0, 43, 0
1, 345720, Note_on_c, 0, 72, 58
1, 345730, Note_on_c, 0, 71, 0
1, 345820, Tempo, 389080
1, 345840, Tempo, 405707
1, 345840, Note_on_c, 0, 73, 59
1, 345840, Note_on_c, 0, 42, 44
1, 345840, Note_on_c, 0, 54, 52
1, 345850, Note_on_c, 0, 72, 0
1, 345960, Note_on_c, 0, 54, 0
1, 345960, Note_on_c, 0, 42, 0
1, 345960, Note_on_c, 0, 72, 57
1, 345970, Note_on_c, 0, 73, 0
1, 346080, Tempo, 387772
1, 346080, Note_on_c, 0, 72, 0
1, 346080, Note_on_c, 0, 69, 49
1, 346080, Note_on_c, 0, 57, 49
1, 346080, Note_on_c, 0, 63, 58
1, 346100, Tempo, 387772
1, 346200, Note_on_c, 0, 70, 49
1, 346210, Note_on_c, 0, 69, 0
1, 346220, Tempo, 386449
1, 346320, Tempo, 385159
1, 346320, Note_on_c, 0, 57, 0
1, 346320, Note_on_c, 0, 63, 0
1, 346320, Note_on_c, 0, 71, 50
1, 346330, Note_on_c, 0, 70, 0
1, 346440, Tempo, 383853
1, 346440, Note_on_c, 0, 72, 52
1, 346440, Note_on_c, 0, 53, 49
1, 346440, Note_on_c, 0, 41, 41
1, 346450, Note_on_c, 0, 71, 0
1, 346540, Tempo, 382555
1, 346560, Note_on_c, 0, 41, 0
1, 346560, Note_on_c, 0, 53, 0
1, 346560, Note_on_c, 0, 74, 52
1, 346560, Note_on_c, 0, 41, 41
1, 346560, Note_on_c, 0, 53, 50
1, 346570, Note_on_c, 0, 72, 0
1, 346660, Tempo, 383853
1, 346680, Note_on_c, 0, 53, 0
1, 346680, Note_on_c, 0, 41, 0
1, 346680, Note_on_c, 0, 72, 53
1, 346690, Note_on_c, 0, 74, 0
1, 346780, Tempo, 385159
1, 346800, Note_on_c, 0, 70, 52
1, 346800, Note_on_c, 0, 62, 51
1, 346800, Note_on_c, 0, 58, 42
1, 346810, Note_on_c, 0, 72, 0
1, 346900, Tempo, 386449
1, 346920, Note_on_c, 0, 58, 0
1, 346920, Note_on_c, 0, 62, 0
1, 346920, Note_on_c, 0, 72, 53
1, 346930, Note_on_c, 0, 70, 0
1, 347020, Tempo, 387772
1, 347040, Note_on_c, 0, 73, 56
1, 347040, Note_on_c, 0, 45, 42
1, 347040, Note_on_c, 0, 57, 51
1, 347050, Note_on_c, 0, 72, 0
1, 347140, Tempo, 389080
1, 347160, Note_on_c, 0, 57, 0
1, 347160, Note_on_c, 0, 45, 0
1, 347160, Note_on_c, 0, 74, 58
1, 347170, Note_on_c, 0, 73, 0
1, 347240, Tempo, 390422
1, 347280, Tempo, 402847
1, 347280, Note_on_c, 0, 75, 59
1, 347280, Note_on_c, 0, 44, 44
1, 347280, Note_on_c, 0, 56, 52
1, 347290, Note_on_c, 0, 74, 0
1, 347400, Note_on_c, 0, 56, 0
1, 347400, Note_on_c, 0, 44, 0
1, 347400, Note_on_c, 0, 74, 57
1, 347410, Note_on_c, 0, 75, 0
1, 347520, Tempo, 389080
1, 347520, Note_on_c, 0, 71, 49
1, 347520, Note_on_c, 0, 59, 49
1, 347520, Note_on_c, 0, 65, 58
1, 347530, Note_on_c, 0, 74, 0
1, 347640, Note_on_c, 0, 72, 49
1, 347650, Note_on_c, 0, 71, 0
1, 347680, Tempo, 387772
1, 347760, Note_on_c, 0, 65, 0
1, 347760, Note_on_c, 0, 59, 0
1, 347760, Note_on_c, 0, 73, 50
1, 347770, Note_on_c, 0, 72, 0
1, 347840, Tempo, 386449
1, 347880, Note_on_c, 0, 74, 52
1, 347880, Note_on_c, 0, 43, 41
1, 347880, Note_on_c, 0, 55, 49
1, 347890, Note_on_c, 0, 73, 0
1, 348000, Tempo, 385159
1, 348000, Note_on_c, 0, 55, 0
1, 348000, Note_on_c, 0, 43, 0
1, 348000, Note_on_c, 0, 75, 52
1, 348000, Note_on_c, 0, 43, 41
1, 348000, Note_on_c, 0, 55, 50
1, 348010, Note_on_c, 0, 74, 0
1, 348120, Note_on_c, 0, 55, 0
1, 348120, Note_on_c, 0, 43, 0
1, 348120, Note_on_c, 0, 74, 53
1, 348130, Note_on_c, 0, 75, 0
1, 348160, Tempo, 383853
1, 348240, Note_on_c, 0, 72, 52
1, 348240, Note_on_c, 0, 63, 51
1, 348240, Note_on_c, 0, 60, 42
1, 348250, Note_on_c, 0, 74, 0
1, 348260, Tempo, 385159
1, 348340, Tempo, 386449
1, 348360, Note_on_c, 0, 60, 0
1, 348360, Note_on_c, 0, 63, 0
1, 348360, Note_on_c, 0, 73, 53
1, 348370, Note_on_c, 0, 72, 0
1, 348420, Tempo, 387772
1, 348480, Note_on_c, 0, 74, 56
1, 348480, Note_on_c, 0, 48, 51
1, 348480, Note_on_c, 0, 36, 42
1, 348490, Note_on_c, 0, 73, 0
1, 348520, Tempo, 389080
1, 348600, Tempo, 390422
1, 348600, Note_on_c, 0, 75, 58
1, 348610, Note_on_c, 0, 74, 0
1, 348680, Tempo, 391773
1, 348720, Tempo, 398618
1, 348720, Note_on_c, 0, 36, 0
1, 348720, Note_on_c, 0, 48, 0
1, 348720, Note_on_c, 0, 76, 59
1, 348730, Note_on_c, 0, 75, 0
1, 348840, Note_on_c, 0, 77, 57
1, 348850, Note_on_c, 0, 76, 0
1, 348960, Tempo, 386449
1, 348960, Note_on_c, 0, 79, 65
1, 348960, Note_on_c, 0, 56, 46
1, 348960, Note_on_c, 0, 63, 53
1, 348970, Note_on_c, 0, 77, 0
1, 349080, Note_on_c, 0, 77, 64
1, 349090, Note_on_c, 0, 79, 0
1, 349200, Note_on_c, 0, 63, 0
1, 349200, Note_on_c, 0, 56, 0
1, 349200, Note_on_c, 0, 76, 62
1, 349200, Note_on_c, 0, 47, 62
1, 349210, Note_on_c, 0, 77, 0
1, 349320, Note_on_c, 0, 75, 61
1, 349330, Note_on_c, 0, 76, 0
1, 349440, Tempo, 400000
1, 349440, Note_on_c, 0, 47, 0
1, 349440, Note_on_c, 0, 74, 58
1, 349450, Note_on_c, 0, 75, 0
1, 349560, Note_on_c, 0, 73, 56
1, 349570, Note_on_c, 0, 74, 0
1, 349680, Tempo, 386449
1, 349680, Note_on_c, 0, 72, 55
1, 349680, Note_on_c, 0, 56, 42
1, 349680, Note_on_c, 0, 62, 51
1, 349690, Note_on_c, 0, 73, 0
1, 349800, Note_on_c, 0, 71, 53
1, 349810, Note_on_c, 0, 72, 0
1, 349920, Note_on_c, 0, 62, 0
1, 349920, Note_on_c, 0, 56, 0
1, 349920, Note_on_c, 0, 70, 54
1, 349920, Note_on_c, 0, 46, 60
1, 349930, Note_on_c, 0, 71, 0
1, 350040, Note_on_c, 0, 69, 54
1, 350050, Note_on_c, 0, 70, 0
1, 350160, Tempo, 395857
1, 350160, Note_on_c, 0, 46, 0
1, 350160, Note_on_c, 0, 70, 51
1, 350170, Note_on_c, 0, 69, 0
1, 350280, Note_on_c, 0, 68, 50
1, 350290, Note_on_c, 0, 70, 0
1, 350360, Tempo, 386449
1, 350400, Tempo, 385852
1, 350400, Note_on_c, 0, 67, 53
1, 350400, Note_on_c, 0, 51, 37
1, 350400, Note_on_c, 0, 39, 31
1, 350400, Control_c, 0, 64, 0
1, 350410, Note_on_c, 0, 68, 0
1, 350457, Control_c, 0, 64, 127
1, 350640, Note_on_c, 0, 67, 0
1, 350640, Note_on_c, 0, 51, 0
1, 350640, Note_on_c, 0, 39, 0
1, 350640, Note_on_c, 0, 58, 53
1, 350640, Note_on_c, 0, 43, 31
1, 350640, Note_on_c, 0, 55, 37
1, 350760, Note_on_c, 0, 58, 0
1, 350760, Note_on_c, 0, 70, 49
1, 350880, Note_on_c, 0, 70, 0
1, 350880, Note_on_c, 0, 55, 0
1, 350880, Note_on_c, 0, 43, 0
1, 350880, Note_on_c, 0, 62, 54
1, 350880, Note_on_c, 0, 56, 38
1, 350880, Note_on_c, 0, 44, 32
1, 350887, Control_c, 0, 64, 0
1, 350977, Control_c, 0, 64, 127
1, 351000, Note_on_c, 0, 62, 0
1, 351000, Note_on_c, 0, 71, 50
1, 351120, Tempo, 384615
1, 351120, Note_on_c, 0, 71, 0
1, 351120, Note_on_c, 0, 44, 0
1, 351120, Note_on_c, 0, 56, 0
1, 351120, Note_on_c, 0, 58, 55
1, 351120, Note_on_c, 0, 55, 46
1, 351120, Note_on_c, 0, 43, 38
1, 351240, Note_on_c, 0, 58, 0
1, 351240, Note_on_c, 0, 70, 51
1, 351360, Note_on_c, 0, 70, 0
1, 351360, Note_on_c, 0, 43, 0
1, 351360, Note_on_c, 0, 55, 0
1, 351360, Note_on_c, 0, 63, 60
1, 351360, Note_on_c, 0, 39, 33
1, 351360, Note_on_c, 0, 51, 39
1, 351376, Control_c, 0, 64, 0
1, 351440, Control_c, 0, 64, 127
1, 351480, Note_on_c, 0, 67, 54
1, 351600, Note_on_c, 0, 67, 0
1, 351600, Note_on_c, 0, 63, 0
1, 351600, Note_on_c, 0, 39, 0
1, 351600, Note_on_c, 0, 51, 0
1, 351600, Note_on_c, 0, 64, 63
1, 351600, Note_on_c, 0, 46, 34
1, 351600, Note_on_c, 0, 58, 41
1, 351720, Note_on_c, 0, 73, 53
1, 351840, Tempo, 383387
1, 351840, Note_on_c, 0, 73, 0
1, 351840, Note_on_c, 0, 64, 0
1, 351840, Note_on_c, 0, 46, 0
1, 351840, Note_on_c, 0, 58, 0
1, 351840, Note_on_c, 0, 60, 59
1, 351840, Note_on_c, 0, 45, 39
1, 351840, Note_on_c, 0, 57, 49
1, 351847, Control_c, 0, 64, 0
1, 351909, Control_c, 0, 64, 127
1, 351960, Note_on_c, 0, 60, 0
1, 351960, Note_on_c, 0, 72, 52
1, 352080, Note_on_c, 0, 72, 0
1, 352080, Note_on_c, 0, 57, 0
1, 352080, Note_on_c, 0, 45, 0
1, 352080, Note_on_c, 0, 65, 66
1, 352080, Note_on_c, 0, 41, 36
1, 352080, Note_on_c, 0, 53, 44
1, 352200, Note_on_c, 0, 69, 52
1, 352320, Note_on_c, 0, 69, 0
1, 352320, Note_on_c, 0, 65, 0
1, 352320, Note_on_c, 0, 41, 0
1, 352320, Note_on_c, 0, 53, 0
1, 352320, Note_on_c, 0, 64, 61
1, 352320, Note_on_c, 0, 46, 45
1, 352320, Note_on_c, 0, 58, 45
1, 352334, Control_c, 0, 64, 0
1, 352400, Control_c, 0, 64, 127
1, 352440, Note_on_c, 0, 64, 0
1, 352440, Note_on_c, 0, 73, 55
1, 352560, Tempo, 382166
1, 352560, Note_on_c, 0, 73, 0
1, 352560, Note_on_c, 0, 58, 0
1, 352560, Note_on_c, 0, 46, 0
1, 352560, Note_on_c, 0, 60, 63
1, 352560, Note_on_c, 0, 45, 44
1, 352560, Note_on_c, 0, 57, 53
1, 352680, Note_on_c, 0, 60, 0
1, 352680, Note_on_c, 0, 72, 56
1, 352800, Note_on_c, 0, 72, 0
1, 352800, Note_on_c, 0, 57, 0
1, 352800, Note_on_c, 0, 45, 0
1, 352800, Note_on_c, 0, 65, 70
1, 352800, Note_on_c, 0, 41, 38
1, 352800, Note_on_c, 0, 53, 47
1, 352817, Control_c, 0, 64, 0
1, 352909, Control_c, 0, 64, 127
1, 352920, Note_on_c, 0, 69, 61
1, 353040, Note_on_c, 0, 69, 0
1, 353040, Note_on_c, 0, 65, 0
1, 353040, Note_on_c, 0, 41, 0
1, 353040, Note_on_c, 0, 53, 0
1, 353040, Note_on_c, 0, 66, 68
1, 353040, Note_on_c, 0, 60, 49
1, 353040, Note_on_c, 0, 48, 39
1, 353160, Note_on_c, 0, 75, 61
1, 353240, Tempo, 380952
1, 353280, Note_on_c, 0, 75, 0
1, 353280, Note_on_c, 0, 66, 0
1, 353280, Note_on_c, 0, 60, 0
1, 353280, Note_on_c, 0, 48, 0
1, 353280, Note_on_c, 0, 62, 70
1, 353280, Note_on_c, 0, 59, 59
1, 353280, Note_on_c, 0, 47, 52
1, 353280, Control_c, 0, 64, 0
1, 353337, Control_c, 0, 64, 127
1, 353400, Note_on_c, 0, 62, 0
1, 353400, Note_on_c, 0, 74, 61
1, 353520, Note_on_c, 0, 74, 0
1, 353520, Note_on_c, 0, 47, 0
1, 353520, Note_on_c, 0, 59, 0
1, 353520, Note_on_c, 0, 67, 75
1, 353520, Note_on_c, 0, 43, 43
1, 353520, Note_on_c, 0, 55, 52
1, 353640, Note_on_c, 0, 71, 67
1, 353760, Note_on_c, 0, 71, 0
1, 353760, Note_on_c, 0, 67, 0
1, 353760, Note_on_c, 0, 43, 0
1, 353760, Note_on_c, 0, 55, 0
1, 353760, Note_on_c, 0, 66, 76
1, 353760, Note_on_c, 0, 60, 53
1, 353760, Note_on_c, 0, 48, 43
1, 353789, Control_c, 0, 64, 0
1, 353852, Control_c, 0, 64, 127
1, 353880, Note_on_c, 0, 75, 68
1, 354000, Note_on_c, 0, 75, 0
1, 354000, Note_on_c, 0, 66, 0
1, 354000, Note_on_c, 0, 60, 0
1, 354000, Note_on_c, 0, 48, 0
1, 354000, Note_on_c, 0, 62, 75
1, 354000, Note_on_c, 0, 59, 63
1, 354000, Note_on_c, 0, 47, 54
1, 354120, Note_on_c, 0, 62, 0
1, 354120, Note_on_c, 0, 74, 68
1, 354240, Note_on_c, 0, 74, 0
1, 354240, Note_on_c, 0, 47, 0
1, 354240, Note_on_c, 0, 59, 0
1, 354240, Note_on_c, 0, 67, 80
1, 354240, Note_on_c, 0, 55, 55
1, 354240, Note_on_c, 0, 43, 46
1, 354257, Control_c, 0, 64, 0
1, 354303, Control_c, 0, 64, 127
1, 354360, Note_on_c, 0, 70, 69
1, 354480, Note_on_c, 0, 70, 0
1, 354480, Note_on_c, 0, 67, 0
1, 354480, Note_on_c, 0, 55, 0
1, 354480, Note_on_c, 0, 43, 0
1, 354480, Note_on_c, 0, 68, 80
1, 354480, Note_on_c, 0, 62, 55
1, 354480, Note_on_c, 0, 50, 47
1, 354600, Note_on_c, 0, 77, 71
1, 354640, Tempo, 382166
1, 354720, Tempo, 379747
1, 354720, Note_on_c, 0, 77, 0
1, 354720, Note_on_c, 0, 68, 0
1, 354720, Note_on_c, 0, 62, 0
1, 354720, Note_on_c, 0, 50, 0
1, 354720, Note_on_c, 0, 64, 80
1, 354720, Note_on_c, 0, 49, 56
1, 354720, Note_on_c, 0, 61, 68
1, 354730, Control_c, 0, 64, 0
1, 354766, Control_c, 0, 64, 127
1, 354840, Tempo, 380952
1, 354840, Note_on_c, 0, 64, 0
1, 354840, Note_on_c, 0, 76, 75
1, 354920, Tempo, 382166
1, 354960, Note_on_c, 0, 76, 0
1, 354960, Note_on_c, 0, 61, 0
1, 354960, Note_on_c, 0, 49, 0
1, 354960, Note_on_c, 0, 69, 86
1, 354960, Note_on_c, 0, 45, 48
1, 354960, Note_on_c, 0, 57, 57
1, 355000, Tempo, 383387
1, 355080, Note_on_c, 0, 73, 73
1, 355120, Tempo, 384615
1, 355200, Tempo, 385852
1, 355200, Note_on_c, 0, 73, 0
1, 355200, Note_on_c, 0, 69, 0
1, 355200, Note_on_c, 0, 45, 0
1, 355200, Note_on_c, 0, 57, 0
1, 355200, Note_on_c, 0, 70, 89
1, 355200, Note_on_c, 0, 52, 62
1, 355200, Note_on_c, 0, 64, 75
1, 355211, Control_c, 0, 64, 0
1, 355257, Control_c, 0, 64, 127
1, 355280, Tempo, 387097
1, 355320, Note_on_c, 0, 79, 76
1, 355400, Tempo, 388350
1, 355440, Note_on_c, 0, 79, 0
1, 355440, Note_on_c, 0, 70, 0
1, 355440, Note_on_c, 0, 52, 0
1, 355440, Note_on_c, 0, 64, 0
1, 355440, Note_on_c, 0, 66, 89
1, 355440, Note_on_c, 0, 51, 50
1, 355440, Note_on_c, 0, 63, 59
1, 355480, Tempo, 389610
1, 355560, Tempo, 390879
1, 355560, Note_on_c, 0, 66, 0
1, 355560, Note_on_c, 0, 78, 79
1, 355640, Tempo, 392157
1, 355680, Tempo, 392157
1, 355680, Note_on_c, 0, 78, 0
1, 355680, Note_on_c, 0, 63, 0
1, 355680, Note_on_c, 0, 51, 0
1, 355680, Note_on_c, 0, 71, 91
1, 355680, Note_on_c, 0, 47, 60
1, 355680, Note_on_c, 0, 59, 74
1, 355697, Control_c, 0, 64, 0
1, 355700, Tempo, 393443
1, 355720, Tempo, 396040
1, 355740, Tempo, 398671
1, 355754, Control_c, 0, 64, 127
1, 355760, Tempo, 401338
1, 355780, Tempo, 404040
1, 355800, Tempo, 405405
1, 355800, Note_on_c, 0, 75, 82
1, 355820, Tempo, 408163
1, 355840, Tempo, 410959
1, 355860, Tempo, 413793
1, 355880, Tempo, 416667
1, 355900, Tempo, 419580
1, 355920, Tempo, 421053
1, 355920, Note_on_c, 0, 75, 0
1, 355920, Note_on_c, 0, 71, 0
1, 355920, Note_on_c, 0, 47, 0
1, 355920, Note_on_c, 0, 59, 0
1, 355920, Note_on_c, 0, 72, 93
1, 355920, Note_on_c, 0, 50, 53
1, 355920, Note_on_c, 0, 62, 62
1, 355940, Tempo, 424028
1, 355960, Tempo, 427046
1, 355980, Tempo, 430108
1, 356000, Tempo, 433213
1, 356020, Tempo, 436364
1, 356040, Tempo, 437956
1, 356040, Note_on_c, 0, 81, 85
1, 356060, Tempo, 441176
1, 356080, Tempo, 444444
1, 356100, Tempo, 447761
1, 356120, Tempo, 451128
1, 356140, Tempo, 454545
1, 356160, Tempo, 542986
1, 356160, Note_on_c, 0, 62, 0
1, 356160, Note_on_c, 0, 72, 0
1, 356160, Note_on_c, 0, 50, 0
1, 356160, Note_on_c, 0, 73, 82
1, 356160, Note_on_c, 0, 85, 98
1, 356160, Note_on_c, 0, 78, 82
1, 356160, Note_on_c, 0, 37, 61
1, 356160, Control_c, 0, 64, 0
1, 356160, Note_on_c, 0, 49, 73
1, 356400, Tempo, 396013
1, 356400, Note_on_c, 0, 49, 0
1, 356400, Note_on_c, 0, 73, 0
1, 356400, Note_on_c, 0, 85, 0
1, 356400, Note_on_c, 0, 81, 0
1, 356400, Note_on_c, 0, 37, 0
1, 356400, Note_on_c, 0, 78, 0
1, 356400, Note_on_c, 0, 72, 64
1, 356400, Control_c, 0, 64, 127
1, 356520, Note_on_c, 0, 72, 0
1, 356520, Note_on_c, 0, 73, 64
1, 356520, Note_on_c, 0, 61, 44
1, 356520, Note_on_c, 0, 57, 44
1, 356520, Note_on_c, 0, 69, 53
1, 356520, Note_on_c, 0, 66, 53
1, 356560, Tempo, 394633
1, 356640, Note_on_c, 0, 66, 0
1, 356640, Note_on_c, 0, 57, 0
1, 356640, Note_on_c, 0, 73, 0
1, 356640, Note_on_c, 0, 61, 0
1, 356640, Note_on_c, 0, 69, 0
1, 356640, Note_on_c, 0, 75, 65
1, 356640, Note_on_c, 0, 69, 55
1, 356640, Note_on_c, 0, 66, 55
1, 356640, Note_on_c, 0, 61, 46
1, 356640, Note_on_c, 0, 57, 46
1, 356700, Tempo, 393236
1, 356760, Note_on_c, 0, 75, 0
1, 356760, Note_on_c, 0, 77, 66
1, 356860, Tempo, 391875
1, 356880, Note_on_c, 0, 77, 0
1, 356880, Note_on_c, 0, 57, 0
1, 356880, Note_on_c, 0, 69, 0
1, 356880, Note_on_c, 0, 66, 0
1, 356880, Note_on_c, 0, 61, 0
1, 356880, Note_on_c, 0, 78, 67
1, 356880, Note_on_c, 0, 66, 56
1, 356880, Note_on_c, 0, 69, 56
1, 356880, Note_on_c, 0, 57, 47
1, 356880, Note_on_c, 0, 61, 47
1, 357000, Tempo, 390523
1, 357000, Note_on_c, 0, 78, 0
1, 357000, Note_on_c, 0, 80, 67
1, 357120, Note_on_c, 0, 80, 0
1, 357120, Note_on_c, 0, 61, 0
1, 357120, Note_on_c, 0, 66, 0
1, 357120, Note_on_c, 0, 69, 0
1, 357120, Note_on_c, 0, 57, 0
1, 357120, Note_on_c, 0, 81, 68
1, 357120, Note_on_c, 0, 69, 58
1, 357120, Note_on_c, 0, 61, 49
1, 357120, Note_on_c, 0, 57, 49
1, 357120, Note_on_c, 0, 66, 58
1, 357140, Tempo, 389156
1, 357240, Note_on_c, 0, 81, 0
1, 357240, Note_on_c, 0, 83, 69
1, 357300, Tempo, 387822
1, 357360, Note_on_c, 0, 83, 0
1, 357360, Note_on_c, 0, 66, 0
1, 357360, Note_on_c, 0, 69, 0
1, 357360, Note_on_c, 0, 61, 0
1, 357360, Note_on_c, 0, 57, 0
1, 357360, Note_on_c, 0, 85, 70
1, 357360, Note_on_c, 0, 57, 50
1, 357360, Note_on_c, 0, 66, 59
1, 357360, Note_on_c, 0, 69, 59
1, 357360, Note_on_c, 0, 61, 50
1, 357440, Tempo, 386498
1, 357480, Note_on_c, 0, 85, 0
1, 357480, Note_on_c, 0, 87, 71
1, 357600, Tempo, 385159
1, 357600, Note_on_c, 0, 87, 0
1, 357600, Note_on_c, 0, 61, 0
1, 357600, Note_on_c, 0, 57, 0
1, 357600, Note_on_c, 0, 66, 0
1, 357600, Note_on_c, 0, 69, 0
1, 357600, Note_on_c, 0, 89, 71
1, 357600, Note_on_c, 0, 57, 60
1, 357600, Note_on_c, 0, 69, 72
1, 357600, Note_on_c, 0, 61, 60
1, 357600, Note_on_c, 0, 66, 72
1, 357720, Note_on_c, 0, 89, 0
1, 357720, Note_on_c, 0, 90, 72
1, 357740, Tempo, 383853
1, 357840, Note_on_c, 0, 90, 0
1, 357840, Note_on_c, 0, 92, 73
1, 357880, Tempo, 382555
1, 357960, Note_on_c, 0, 92, 0
1, 357960, Note_on_c, 0, 93, 74
1, 358040, Tempo, 381243
1, 358080, Note_on_c, 0, 93, 0
1, 358080, Note_on_c, 0, 90, 75
1, 358180, Tempo, 379963
1, 358200, Note_on_c, 0, 90, 0
1, 358200, Note_on_c, 0, 85, 75
1, 358260, Tempo, 377406
1, 358320, Note_on_c, 0, 85, 0
1, 358320, Note_on_c, 0, 66, 0
1, 358320, Note_on_c, 0, 57, 0
1, 358320, Note_on_c, 0, 69, 0
1, 358320, Note_on_c, 0, 61, 0
1, 358320, Note_on_c, 0, 81, 76
1, 358340, Tempo, 378692
1, 358400, Tempo, 379963
1, 358440, Note_on_c, 0, 81, 0
1, 358440, Note_on_c, 0, 78, 76
1, 358460, Tempo, 381243
1, 358520, Tempo, 382555
1, 358560, Note_on_c, 0, 78, 0
1, 358560, Note_on_c, 0, 73, 74
1, 358600, Tempo, 383853
1, 358660, Tempo, 385159
1, 358680, Note_on_c, 0, 73, 0
1, 358680, Note_on_c, 0, 69, 72
1, 358720, Tempo, 386498
1, 358780, Tempo, 387822
1, 358800, Tempo, 411975
1, 358800, Note_on_c, 0, 69, 0
1, 358800, Note_on_c, 0, 66, 71
1, 358800, Note_on_c, 0, 37, 58
1, 358800, Note_on_c, 0, 49, 69
1, 358920, Note_on_c, 0, 66, 0
1, 358920, Note_on_c, 0, 61, 69
1, 359040, Tempo, 403117
1, 359040, Note_on_c, 0, 61, 0
1, 359040, Note_on_c, 0, 49, 0
1, 359040, Note_on_c, 0, 37, 0
1, 359040, Note_on_c, 0, 57, 66
1, 359040, Note_on_c, 0, 48, 86
1, 359040, Note_on_c, 0, 36, 73
1, 359052, Control_c, 0, 64, 0
1, 359060, Tempo, 394633
1, 359103, Control_c, 0, 64, 127
1, 359160, Note_on_c, 0, 57, 0
1, 359160, Note_on_c, 0, 66, 67
1, 359180, Tempo, 393236
1, 359280, Tempo, 391875
1, 359280, Note_on_c, 0, 66, 0
1, 359280, Note_on_c, 0, 36, 0
1, 359280, Note_on_c, 0, 48, 0
1, 359280, Note_on_c, 0, 63, 68
1, 359380, Tempo, 390523
1, 359400, Note_on_c, 0, 63, 0
1, 359400, Note_on_c, 0, 69, 69
1, 359400, Note_on_c, 0, 54, 45
1, 359400, Note_on_c, 0, 63, 53
1, 359400, Note_on_c, 0, 57, 45
1, 359500, Tempo, 389156
1, 359510, Note_on_c, 0, 69, 0
1, 359520, Note_on_c, 0, 54, 0
1, 359520, Note_on_c, 0, 63, 0
1, 359520, Note_on_c, 0, 57, 0
1, 359520, Note_on_c, 0, 69, 70
1, 359520, Note_on_c, 0, 63, 55
1, 359520, Note_on_c, 0, 54, 47
1, 359520, Note_on_c, 0, 57, 47
1, 359600, Tempo, 387822
1, 359640, Note_on_c, 0, 69, 0
1, 359640, Note_on_c, 0, 78, 72
1, 359700, Tempo, 386498
1, 359760, Note_on_c, 0, 78, 0
1, 359760, Note_on_c, 0, 57, 0
1, 359760, Note_on_c, 0, 54, 0
1, 359760, Note_on_c, 0, 63, 0
1, 359760, Note_on_c, 0, 75, 73
1, 359760, Note_on_c, 0, 54, 54
1, 359760, Note_on_c, 0, 57, 54
1, 359760, Note_on_c, 0, 63, 65
1, 359800, Tempo, 385159
1, 359880, Note_on_c, 0, 75, 0
1, 359880, Note_on_c, 0, 81, 74
1, 359920, Tempo, 383853
1, 359990, Note_on_c, 0, 81, 0
1, 360000, Note_on_c, 0, 63, 0
1, 360000, Note_on_c, 0, 57, 0
1, 360000, Note_on_c, 0, 54, 0
1, 360000, Note_on_c, 0, 81, 75
1, 360020, Tempo, 382555
1, 360120, Tempo, 381243
1, 360120, Note_on_c, 0, 81, 0
1, 360120, Note_on_c, 0, 90, 76
1, 360220, Tempo, 379963
1, 360240, Tempo, 398830
1, 360240, Note_on_c, 0, 90, 0
1, 360240, Note_on_c, 0, 87, 77
1, 360240, Note_on_c, 0, 36, 60
1, 360240, Note_on_c, 0, 48, 72
1, 360360, Note_on_c, 0, 87, 0
1, 360360, Note_on_c, 0, 93, 79
1, 360460, Tempo, 378692
1, 360480, Note_on_c, 0, 93, 0
1, 360480, Note_on_c, 0, 48, 0
1, 360480, Note_on_c, 0, 36, 0
1, 360480, Note_on_c, 0, 90, 80
1, 360480, Note_on_c, 0, 35, 74
1, 360480, Note_on_c, 0, 47, 88
1, 360491, Control_c, 0, 64, 0
1, 360535, Control_c, 0, 64, 127
1, 360600, Note_on_c, 0, 90, 0
1, 360600, Note_on_c, 0, 93, 78
1, 360620, Tempo, 379963
1, 360720, Note_on_c, 0, 93, 0
1, 360720, Note_on_c, 0, 47, 0
1, 360720, Note_on_c, 0, 35, 0
1, 360720, Note_on_c, 0, 87, 77
1, 360760, Tempo, 381243
1, 360840, Note_on_c, 0, 87, 0
1, 360840, Note_on_c, 0, 81, 76
1, 360840, Note_on_c, 0, 63, 59
1, 360840, Note_on_c, 0, 54, 50
1, 360840, Note_on_c, 0, 57, 50
1, 360920, Tempo, 382555
1, 360960, Note_on_c, 0, 57, 0
1, 360960, Note_on_c, 0, 81, 0
1, 360960, Note_on_c, 0, 63, 0
1, 360960, Note_on_c, 0, 54, 0
1, 360960, Note_on_c, 0, 78, 75
1, 360960, Note_on_c, 0, 63, 58
1, 360960, Note_on_c, 0, 54, 49
1, 360960, Note_on_c, 0, 57, 49
1, 361060, Tempo, 383853
1, 361080, Note_on_c, 0, 78, 0
1, 361080, Note_on_c, 0, 81, 75
1, 361200, Note_on_c, 0, 81, 0
1, 361200, Note_on_c, 0, 57, 0
1, 361200, Note_on_c, 0, 54, 0
1, 361200, Note_on_c, 0, 63, 0
1, 361200, Note_on_c, 0, 75, 74
1, 361200, Note_on_c, 0, 57, 48
1, 361200, Note_on_c, 0, 54, 48
1, 361200, Note_on_c, 0, 63, 57
1, 361220, Tempo, 385159
1, 361320, Note_on_c, 0, 75, 0
1, 361320, Note_on_c, 0, 69, 73
1, 361360, Tempo, 386498
1, 361440, Note_on_c, 0, 69, 0
1, 361440, Note_on_c, 0, 63, 0
1, 361440, Note_on_c, 0, 54, 0
1, 361440, Note_on_c, 0, 57, 0
1, 361440, Note_on_c, 0, 66, 72
1, 361520, Tempo, 387822
1, 361560, Note_on_c, 0, 66, 0
1, 361560, Note_on_c, 0, 69, 72
1, 361660, Tempo, 389156
1, 361680, Tempo, 411975
1, 361680, Note_on_c, 0, 69, 0
1, 361680, Note_on_c, 0, 63, 71
1, 361680, Note_on_c, 0, 47, 72
1, 361680, Note_on_c, 0, 35, 60
1, 361800, Tempo, 529381
1, 361800, Note_on_c, 0, 63, 0
1, 361800, Note_on_c, 0, 57, 70
1, 361920, Tempo, 378692
1, 361920, Note_on_c, 0, 57, 0
1, 361920, Note_on_c, 0, 35, 0
1, 361920, Note_on_c, 0, 47, 0
1, 361920, Note_on_c, 0, 70, 71
1, 361920, Note_on_c, 0, 58, 71
1, 361920, Note_on_c, 0, 67, 71
1, 361920, Note_on_c, 0, 63, 71
1, 361920, Note_on_c, 0, 46, 88
1, 361920, Note_on_c, 0, 34, 74
1, 361929, Control_c, 0, 64, 0
1, 362000, Control_c, 0, 64, 127
1, 362143, Control_c, 0, 64, 0
1, 362160, Note_on_c, 0, 34, 0
1, 362160, Note_on_c, 0, 58, 0
1, 362160, Note_on_c, 0, 67, 0
1, 362160, Note_on_c, 0, 70, 0
1, 362160, Note_on_c, 0, 46, 0
1, 362160, Note_on_c, 0, 63, 0
1, 362160, Note_on_c, 0, 57, 46
1, 362280, Note_on_c, 0, 58, 46
1, 362290, Note_on_c, 0, 57, 0
1, 362400, Note_on_c, 0, 60, 47
1, 362410, Note_on_c, 0, 58, 0
1, 362520, Note_on_c, 0, 62, 47
1, 362530, Note_on_c, 0, 60, 0
1, 362640, Note_on_c, 0, 63, 48
1, 362650, Note_on_c, 0, 62, 0
1, 362760, Note_on_c, 0, 64, 49
1, 362770, Note_on_c, 0, 63, 0
1, 362880, Tempo, 385159
1, 362880, Note_on_c, 0, 67, 49
1, 362880, Note_on_c, 0, 63, 44
1, 362880, Note_on_c, 0, 57, 44
1, 362880, Note_on_c, 0, 60, 44
1, 362890, Note_on_c, 0, 64, 0
1, 363000, Note_on_c, 0, 65, 50
1, 363010, Note_on_c, 0, 67, 0
1, 363120, Note_on_c, 0, 60, 0
1, 363120, Note_on_c, 0, 57, 0
1, 363120, Note_on_c, 0, 63, 0
1, 363120, Note_on_c, 0, 67, 50
1, 363120, Note_on_c, 0, 58, 43
1, 363120, Note_on_c, 0, 62, 43
1, 363120, Note_on_c, 0, 56, 43
1, 363130, Note_on_c, 0, 65, 0
1, 363240, Note_on_c, 0, 65, 51
1, 363250, Note_on_c, 0, 67, 0
1, 363360, Tempo, 378692
1, 363360, Note_on_c, 0, 56, 0
1, 363360, Note_on_c, 0, 62, 0
1, 363360, Note_on_c, 0, 58, 0
1, 363360, Note_on_c, 0, 72, 52
1, 363360, Note_on_c, 0, 58, 47
1, 363360, Note_on_c, 0, 55, 47
1, 363360, Note_on_c, 0, 63, 47
1, 363370, Note_on_c, 0, 65, 0
1, 363480, Note_on_c, 0, 70, 52
1, 363490, Note_on_c, 0, 72, 0
1, 363600, Note_on_c, 0, 63, 0
1, 363600, Note_on_c, 0, 55, 0
1, 363600, Note_on_c, 0, 58, 0
1, 363600, Note_on_c, 0, 69, 53
1, 363610, Note_on_c, 0, 70, 0
1, 363720, Note_on_c, 0, 70, 53
1, 363730, Note_on_c, 0, 69, 0
1, 363840, Note_on_c, 0, 72, 54
1, 363850, Note_on_c, 0, 70, 0
1, 363960, Note_on_c, 0, 74, 54
1, 363970, Note_on_c, 0, 72, 0
1, 364080, Note_on_c, 0, 75, 55
1, 364090, Note_on_c, 0, 74, 0
1, 364200, Note_on_c, 0, 76, 56
1, 364210, Note_on_c, 0, 75, 0
1, 364320, Tempo, 386498
1, 364320, Note_on_c, 0, 79, 56
1, 364320, Note_on_c, 0, 69, 46
1, 364320, Note_on_c, 0, 72, 46
1, 364320, Note_on_c, 0, 75, 46
1, 364330, Note_on_c, 0, 76, 0
1, 364440, Note_on_c, 0, 77, 57
1, 364450, Note_on_c, 0, 79, 0
1, 364560, Note_on_c, 0, 75, 0
1, 364560, Note_on_c, 0, 72, 0
1, 364560, Note_on_c, 0, 69, 0
1, 364560, Note_on_c, 0, 79, 57
1, 364560, Note_on_c, 0, 70, 46
1, 364560, Note_on_c, 0, 74, 46
1, 364560, Note_on_c, 0, 68, 46
1, 364570, Note_on_c, 0, 77, 0
1, 364680, Note_on_c, 0, 77, 58
1, 364690, Note_on_c, 0, 79, 0
1, 364800, Tempo, 377406
1, 364800, Note_on_c, 0, 68, 0
1, 364800, Note_on_c, 0, 74, 0
1, 364800, Note_on_c, 0, 70, 0
1, 364800, Note_on_c, 0, 84, 59
1, 364800, Note_on_c, 0, 67, 46
1, 364800, Note_on_c, 0, 75, 46
1, 364800, Note_on_c, 0, 70, 46
1, 364810, Note_on_c, 0, 77, 0
1, 364920, Note_on_c, 0, 82, 59
1, 364930, Note_on_c, 0, 84, 0
1, 365040, Note_on_c, 0, 70, 0
1, 365040, Note_on_c, 0, 75, 0
1, 365040, Note_on_c, 0, 67, 0
1, 365040, Note_on_c, 0, 81, 60
1, 365050, Note_on_c, 0, 82, 0
1, 365160, Note_on_c, 0, 82, 60
1, 365170, Note_on_c, 0, 81, 0
1, 365280, Note_on_c, 0, 84, 61
1, 365290, Note_on_c, 0, 82, 0
1, 365400, Note_on_c, 0, 86, 61
1, 365410, Note_on_c, 0, 84, 0
1, 365520, Note_on_c, 0, 87, 62
1, 365530, Note_on_c, 0, 86, 0
1, 365640, Note_on_c, 0, 88, 63
1, 365650, Note_on_c, 0, 87, 0
1, 365760, Tempo, 383853
1, 365760, Note_on_c, 0, 91, 63
1, 365760, Note_on_c, 0, 87, 56
1, 365760, Note_on_c, 0, 81, 56
1, 365760, Note_on_c, 0, 84, 56
1, 365770, Note_on_c, 0, 88, 0
1, 365880, Note_on_c, 0, 89, 64
1, 365890, Note_on_c, 0, 91, 0
1, 366000, Note_on_c, 0, 84, 0
1, 366000, Note_on_c, 0, 81, 0
1, 366000, Note_on_c, 0, 87, 0
1, 366000, Note_on_c, 0, 91, 64
1, 366000, Note_on_c, 0, 82, 56
1, 366000, Note_on_c, 0, 80, 56
1, 366000, Note_on_c, 0, 86, 56
1, 366010, Note_on_c, 0, 89, 0
1, 366120, Note_on_c, 0, 89, 65
1, 366130, Note_on_c, 0, 91, 0
1, 366240, Tempo, 377406
1, 366240, Note_on_c, 0, 86, 0
1, 366240, Note_on_c, 0, 80, 0
1, 366240, Note_on_c, 0, 82, 0
1, 366240, Note_on_c, 0, 94, 66
1, 366240, Note_on_c, 0, 82, 57
1, 366240, Note_on_c, 0, 79, 57
1, 366240, Note_on_c, 0, 87, 57
1, 366250, Note_on_c, 0, 89, 0
1, 366480, Note_on_c, 0, 79, 0
1, 366480, Note_on_c, 0, 94, 0
1, 366480, Note_on_c, 0, 82, 0
1, 366480, Note_on_c, 0, 87, 0
1, 366480, Note_on_c, 0, 81, 64
1, 366600, Note_on_c, 0, 82, 65
1, 366610, Note_on_c, 0, 81, 0
1, 366720, Note_on_c, 0, 84, 65
1, 366730, Note_on_c, 0, 82, 0
1, 366840, Note_on_c, 0, 86, 66
1, 366850, Note_on_c, 0, 84, 0
1, 366960, Note_on_c, 0, 87, 67
1, 366970, Note_on_c, 0, 86, 0
1, 367080, Note_on_c, 0, 88, 68
1, 367090, Note_on_c, 0, 87, 0
1, 367200, Tempo, 393236
1, 367200, Note_on_c, 0, 91, 71
1, 367200, Note_on_c, 0, 81, 58
1, 367200, Note_on_c, 0, 84, 58
1, 367200, Note_on_c, 0, 87, 58
1, 367210, Note_on_c, 0, 88, 0
1, 367240, Tempo, 383853
1, 367320, Note_on_c, 0, 89, 68
1, 367330, Note_on_c, 0, 91, 0
1, 367440, Tempo, 393236
1, 367440, Note_on_c, 0, 87, 0
1, 367440, Note_on_c, 0, 84, 0
1, 367440, Note_on_c, 0, 81, 0
1, 367440, Note_on_c, 0, 91, 71
1, 367440, Note_on_c, 0, 82, 58
1, 367440, Note_on_c, 0, 80, 58
1, 367440, Note_on_c, 0, 86, 58
1, 367450, Note_on_c, 0, 89, 0
1, 367560, Note_on_c, 0, 89, 68
1, 367570, Note_on_c, 0, 91, 0
1, 367680, Tempo, 385159
1, 367680, Note_on_c, 0, 86, 0
1, 367680, Note_on_c, 0, 80, 0
1, 367680, Note_on_c, 0, 82, 0
1, 367680, Note_on_c, 0, 94, 68
1, 367680, Note_on_c, 0, 82, 59
1, 367680, Note_on_c, 0, 87, 59
1, 367680, Note_on_c, 0, 79, 59
1, 367690, Note_on_c, 0, 89, 0
1, 367800, Note_on_c, 0, 94, 0
1, 367920, Note_on_c, 0, 87, 0
1, 367920, Note_on_c, 0, 82, 0
1, 367920, Note_on_c, 0, 79, 0
1, 368340, Note_on_c, 0, 89, 77
1, 368380, Tempo, 369959
1, 368400, Note_on_c, 0, 89, 0
1, 368400, Note_on_c, 0, 101, 89
1, 368400, Note_on_c, 0, 69, 72
1, 368400, Note_on_c, 0, 60, 72
1, 368400, Note_on_c, 0, 63, 72
1, 368400, Note_on_c, 0, 65, 72
1, 368442, Control_c, 0, 64, 127
1, 368520, Note_on_c, 0, 101, 0
1, 368520, Note_on_c, 0, 100, 84
1, 368600, Tempo, 371172
1, 368640, Note_on_c, 0, 100, 0
1, 368640, Note_on_c, 0, 65, 0
1, 368640, Note_on_c, 0, 69, 0
1, 368640, Note_on_c, 0, 60, 0
1, 368640, Note_on_c, 0, 63, 0
1, 368640, Note_on_c, 0, 99, 83
1, 368760, Note_on_c, 0, 99, 0
1, 368760, Note_on_c, 0, 98, 82
1, 368820, Tempo, 372416
1, 368880, Note_on_c, 0, 98, 0
1, 368880, Note_on_c, 0, 96, 81
1, 369000, Note_on_c, 0, 96, 0
1, 369000, Note_on_c, 0, 94, 79
1, 369040, Tempo, 373646
1, 369120, Note_on_c, 0, 94, 0
1, 369120, Note_on_c, 0, 93, 78
1, 369240, Note_on_c, 0, 93, 0
1, 369240, Note_on_c, 0, 91, 77
1, 369260, Tempo, 374883
1, 369360, Note_on_c, 0, 91, 0
1, 369360, Note_on_c, 0, 89, 76
1, 369460, Tempo, 376152
1, 369480, Note_on_c, 0, 89, 0
1, 369480, Note_on_c, 0, 88, 75
1, 369600, Note_on_c, 0, 88, 0
1, 369600, Note_on_c, 0, 87, 74
1, 369680, Tempo, 377406
1, 369720, Note_on_c, 0, 87, 0
1, 369720, Note_on_c, 0, 86, 73
1, 369840, Note_on_c, 0, 86, 0
1, 369840, Note_on_c, 0, 84, 72
1, 369854, Control_c, 0, 64, 0
1, 369900, Tempo, 378692
1, 369903, Control_c, 0, 64, 127
1, 369960, Note_on_c, 0, 84, 0
1, 369960, Note_on_c, 0, 82, 71
1, 370080, Note_on_c, 0, 82, 0
1, 370080, Note_on_c, 0, 81, 70
1, 370120, Tempo, 379963
1, 370200, Note_on_c, 0, 81, 0
1, 370200, Note_on_c, 0, 79, 69
1, 370320, Note_on_c, 0, 79, 0
1, 370320, Note_on_c, 0, 77, 68
1, 370340, Tempo, 381243
1, 370440, Note_on_c, 0, 77, 0
1, 370440, Note_on_c, 0, 76, 67
1, 370470, Note_on_c, 0, 47, 69
1, 370500, Note_on_c, 0, 51, 73
1, 370530, Note_on_c, 0, 56, 77
1, 370540, Tempo, 382555
1, 370560, Tempo, 379963
1, 370560, Note_on_c, 0, 76, 0
1, 370560, Note_on_c, 0, 75, 66
1, 370560, Note_on_c, 0, 63, 80
1, 370573, Control_c, 0, 64, 0
1, 370645, Control_c, 0, 64, 127
1, 370680, Note_on_c, 0, 75, 0
1, 370680, Note_on_c, 0, 73, 65
1, 370720, Tempo, 378692
1, 370800, Note_on_c, 0, 73, 0
1, 370800, Note_on_c, 0, 63, 0
1, 370800, Note_on_c, 0, 56, 0
1, 370800, Note_on_c, 0, 51, 0
1, 370800, Note_on_c, 0, 47, 0
1, 370800, Note_on_c, 0, 71, 64
1, 370860, Tempo, 377406
1, 370920, Note_on_c, 0, 71, 0
1, 370920, Note_on_c, 0, 70, 63
1, 371020, Tempo, 376152
1, 371040, Note_on_c, 0, 70, 0
1, 371040, Note_on_c, 0, 68, 62
1, 371160, Tempo, 374883
1, 371160, Note_on_c, 0, 68, 0
1, 371160, Note_on_c, 0, 66, 61
1, 371280, Note_on_c, 0, 66, 0
1, 371280, Note_on_c, 0, 65, 60
1, 371298, Control_c, 0, 64, 0
1, 371300, Tempo, 373646
1, 371333, Control_c, 0, 64, 127
1, 371400, Note_on_c, 0, 65, 0
1, 371400, Note_on_c, 0, 63, 59
1, 371520, Note_on_c, 0, 63, 0
1, 371520, Note_on_c, 0, 61, 58
1, 371640, Note_on_c, 0, 61, 0
1, 371640, Note_on_c, 0, 59, 57
1, 371760, Note_on_c, 0, 59, 0
1, 371760, Note_on_c, 0, 58, 56
1, 371880, Note_on_c, 0, 58, 0
1, 371880, Note_on_c, 0, 56, 55
1, 371980, Tempo, 374883
1, 372000, Tempo, 372416
1, 372000, Note_on_c, 0, 56, 0
1, 372000, Note_on_c, 0, 54, 57
1, 372000, Note_on_c, 0, 35, 91
1, 372006, Control_c, 0, 64, 0
1, 372040, Tempo, 373646
1, 372080, Tempo, 376152
1, 372086, Control_c, 0, 64, 127
1, 372120, Tempo, 377406
1, 372120, Note_on_c, 0, 54, 0
1, 372120, Note_on_c, 0, 53, 59
1, 372160, Tempo, 379963
1, 372200, Tempo, 381243
1, 372240, Tempo, 383853
1, 372240, Note_on_c, 0, 53, 0
1, 372240, Note_on_c, 0, 35, 0
1, 372240, Note_on_c, 0, 51, 62
1, 372280, Tempo, 385159
1, 372320, Tempo, 387822
1, 372360, Tempo, 390523
1, 372360, Note_on_c, 0, 51, 0
1, 372360, Note_on_c, 0, 49, 64
1, 372400, Tempo, 391875
1, 372440, Tempo, 394633
1, 372480, Tempo, 396013
1, 372480, Note_on_c, 0, 49, 0
1, 372480, Note_on_c, 0, 47, 66
1, 372520, Tempo, 398830
1, 372560, Tempo, 400240
1, 372600, Tempo, 403117
1, 372600, Note_on_c, 0, 47, 0
1, 372600, Note_on_c, 0, 46, 68
1, 372640, Tempo, 404558
1, 372680, Tempo, 407498
1, 372720, Tempo, 410481
1, 372720, Note_on_c, 0, 46, 0
1, 372720, Note_on_c, 0, 44, 70
1, 372760, Tempo, 411975
1, 372800, Tempo, 415024
1, 372840, Tempo, 416551
1, 372840, Note_on_c, 0, 44, 0
1, 372840, Note_on_c, 0, 42, 72
1, 372880, Tempo, 419668
1, 372920, Tempo, 421230
1, 372960, Tempo, 424418
1, 372960, Note_on_c, 0, 42, 0
1, 372960, Note_on_c, 0, 41, 75
1, 373000, Tempo, 426015
1, 373040, Tempo, 429277
1, 373080, Tempo, 432557
1, 373080, Note_on_c, 0, 41, 0
1, 373080, Note_on_c, 0, 39, 77
1, 373120, Tempo, 434248
1, 373160, Tempo, 437637
1, 373200, Tempo, 439335
1, 373200, Note_on_c, 0, 39, 0
1, 373200, Note_on_c, 0, 37, 79
1, 373240, Tempo, 442804
1, 373280, Tempo, 444543
1, 373320, Tempo, 448096
1, 373320, Note_on_c, 0, 37, 0
1, 373320, Note_on_c, 0, 35, 81
1, 373360, Tempo, 451671
1, 373400, Tempo, 391875
1, 373440, Time_signature, 6, 2, 24, 8
1, 373440, Tempo, 321768
1, 373440, Note_on_c, 0, 35, 0
1, 373440, Note_on_c, 0, 34, 80
1, 373444, Control_c, 0, 64, 0
1, 373638, Control_c, 0, 64, 127
1, 373680, Note_on_c, 0, 34, 0
1, 373680, Note_on_c, 0, 41, 55
1, 373880, Tempo, 291262
1, 373920, Note_on_c, 0, 41, 0
1, 373920, Note_on_c, 0, 46, 55
1, 373960, Tempo, 290557
1, 374040, Tempo, 289855
1, 374120, Tempo, 289157
1, 374160, Tempo, 288462
1, 374160, Note_on_c, 0, 46, 0
1, 374160, Note_on_c, 0, 50, 55
1, 374400, Note_on_c, 0, 50, 0
1, 374400, Note_on_c, 0, 46, 55
1, 374440, Tempo, 287081
1, 374520, Tempo, 287770
1, 374600, Tempo, 288462
1, 374640, Note_on_c, 0, 46, 0
1, 374640, Note_on_c, 0, 41, 55
1, 374680, Tempo, 289157
1, 374760, Tempo, 289855
1, 374840, Tempo, 290557
1, 374880, Tempo, 294406
1, 374880, Note_on_c, 0, 41, 0
1, 374880, Note_on_c, 0, 67, 78
1, 374880, Note_on_c, 0, 62, 66
1, 374880, Note_on_c, 0, 58, 66
1, 374880, Note_on_c, 0, 34, 66
1, 375120, Note_on_c, 0, 34, 0
1, 375120, Note_on_c, 0, 41, 55
1, 375360, Tempo, 285470
1, 375360, Note_on_c, 0, 41, 0
1, 375360, Note_on_c, 0, 46, 55
1, 375600, Note_on_c, 0, 46, 0
1, 375600, Note_on_c, 0, 53, 55
1, 375840, Tempo, 288850
1, 375840, Note_on_c, 0, 53, 0
1, 375840, Note_on_c, 0, 58, 0
1, 375840, Note_on_c, 0, 62, 0
1, 375840, Note_on_c, 0, 67, 0
1, 375840, Note_on_c, 0, 62, 61
1, 375840, Note_on_c, 0, 56, 61
1, 375840, Note_on_c, 0, 67, 73
1, 375840, Note_on_c, 0, 46, 55
1, 376080, Note_on_c, 0, 46, 0
1, 376080, Note_on_c, 0, 41, 55
1, 376320, Tempo, 287081
1, 376320, Note_on_c, 0, 41, 0
1, 376320, Note_on_c, 0, 67, 0
1, 376320, Note_on_c, 0, 56, 0
1, 376320, Note_on_c, 0, 62, 0
1, 376320, Note_on_c, 0, 55, 65
1, 376320, Note_on_c, 0, 63, 76
1, 376320, Control_c, 0, 64, 0
1, 376320, Note_on_c, 0, 39, 60
1, 376461, Control_c, 0, 64, 127
1, 376480, Tempo, 286396
1, 376560, Note_on_c, 0, 39, 0
1, 376560, Note_on_c, 0, 46, 54
1, 376600, Tempo, 285714
1, 376720, Tempo, 285036
1, 376800, Tempo, 287081
1, 376800, Note_on_c, 0, 46, 0
1, 376800, Note_on_c, 0, 63, 0
1, 376800, Note_on_c, 0, 55, 0
1, 376800, Note_on_c, 0, 51, 54
1, 376920, Tempo, 287770
1, 377040, Tempo, 288462
1, 377040, Note_on_c, 0, 51, 0
1, 377040, Note_on_c, 0, 55, 54
1, 377160, Tempo, 289157
1, 377240, Tempo, 289855
1, 377280, Tempo, 286396
1, 377280, Note_on_c, 0, 55, 0
1, 377280, Note_on_c, 0, 63, 66
1, 377280, Note_on_c, 0, 67, 66
1, 377280, Note_on_c, 0, 75, 78
1, 377280, Note_on_c, 0, 51, 54
1, 377360, Tempo, 285714
1, 377440, Tempo, 285036
1, 377520, Tempo, 284360
1, 377520, Note_on_c, 0, 51, 0
1, 377520, Note_on_c, 0, 46, 53
1, 377600, Tempo, 283688
1, 377680, Tempo, 283019
1, 377760, Tempo, 282353
1, 377760, Note_on_c, 0, 46, 0
1, 377760, Note_on_c, 0, 39, 60
1, 377840, Tempo, 283019
1, 377920, Tempo, 283688
1, 378000, Tempo, 284360
1, 378000, Note_on_c, 0, 39, 0
1, 378000, Note_on_c, 0, 48, 53
1, 378080, Tempo, 285036
1, 378160, Tempo, 285714
1, 378200, Tempo, 286396
1, 378240, Tempo, 285660
1, 378240, Note_on_c, 0, 48, 0
1, 378240, Note_on_c, 0, 51, 53
1, 378480, Note_on_c, 0, 51, 0
1, 378480, Note_on_c, 0, 58, 53
1, 378720, Tempo, 290093
1, 378720, Note_on_c, 0, 58, 0
1, 378720, Note_on_c, 0, 75, 0
1, 378720, Note_on_c, 0, 67, 0
1, 378720, Note_on_c, 0, 63, 0
1, 378720, Note_on_c, 0, 74, 73
1, 378720, Note_on_c, 0, 70, 61
1, 378720, Note_on_c, 0, 63, 61
1, 378720, Note_on_c, 0, 51, 53
1, 378960, Note_on_c, 0, 51, 0
1, 378960, Note_on_c, 0, 48, 53
1, 379200, Tempo, 285660
1, 379200, Note_on_c, 0, 48, 0
1, 379200, Note_on_c, 0, 63, 0
1, 379200, Note_on_c, 0, 70, 0
1, 379200, Note_on_c, 0, 74, 0
1, 379200, Note_on_c, 0, 63, 65
1, 379200, Note_on_c, 0, 70, 65
1, 379200, Note_on_c, 0, 72, 77
1, 379200, Note_on_c, 0, 41, 60
1, 379208, Control_c, 0, 64, 0
1, 379355, Control_c, 0, 64, 127
1, 379440, Note_on_c, 0, 41, 0
1, 379440, Note_on_c, 0, 48, 52
1, 379680, Tempo, 284589
1, 379680, Note_on_c, 0, 48, 0
1, 379680, Note_on_c, 0, 51, 52
1, 379720, Tempo, 284360
1, 379840, Tempo, 283688
1, 379920, Tempo, 283019
1, 379920, Note_on_c, 0, 51, 0
1, 379920, Note_on_c, 0, 58, 53
1, 380040, Tempo, 282353
1, 380120, Tempo, 281690
1, 380160, Note_on_c, 0, 58, 0
1, 380160, Note_on_c, 0, 51, 53
1, 380240, Tempo, 282353
1, 380320, Tempo, 283019
1, 380400, Note_on_c, 0, 51, 0
1, 380400, Note_on_c, 0, 48, 53
1, 380440, Tempo, 283688
1, 380520, Tempo, 284360
1, 380600, Tempo, 285036
1, 380640, Tempo, 288600
1, 380640, Note_on_c, 0, 48, 0
1, 380640, Note_on_c, 0, 72, 0
1, 380640, Note_on_c, 0, 70, 0
1, 380640, Note_on_c, 0, 63, 0
1, 380640, Note_on_c, 0, 65, 67
1, 380640, Note_on_c, 0, 74, 79
1, 380640, Note_on_c, 0, 69, 67
1, 380640, Note_on_c, 0, 41, 60
1, 380653, Control_c, 0, 64, 0
1, 380838, Control_c, 0, 64, 127
1, 380880, Note_on_c, 0, 41, 0
1, 380880, Note_on_c, 0, 48, 53
1, 381120, Tempo, 284589
1, 381120, Note_on_c, 0, 48, 0
1, 381120, Note_on_c, 0, 51, 53
1, 381360, Note_on_c, 0, 51, 0
1, 381360, Note_on_c, 0, 57, 54
1, 381600, Tempo, 294406
1, 381600, Note_on_c, 0, 57, 0
1, 381600, Note_on_c, 0, 69, 0
1, 381600, Note_on_c, 0, 74, 0
1, 381600, Note_on_c, 0, 65, 0
1, 381600, Note_on_c, 0, 63, 63
1, 381600, Note_on_c, 0, 69, 63
1, 381600, Note_on_c, 0, 74, 74
1, 381600, Note_on_c, 0, 51, 54
1, 381840, Note_on_c, 0, 51, 0
1, 381840, Note_on_c, 0, 48, 54
1, 382040, Tempo, 288462
1, 382080, Note_on_c, 0, 48, 0
1, 382080, Note_on_c, 0, 74, 0
1, 382080, Note_on_c, 0, 69, 0
1, 382080, Note_on_c, 0, 63, 0
1, 382080, Note_on_c, 0, 62, 59
1, 382080, Note_on_c, 0, 70, 71
1, 382080, Note_on_c, 0, 46, 59
1, 382095, Control_c, 0, 64, 0
1, 382240, Tempo, 287770
1, 382320, Note_on_c, 0, 46, 0
1, 382320, Note_on_c, 0, 53, 51
1, 382376, Control_c, 0, 64, 127
1, 382400, Tempo, 287081
1, 382560, Tempo, 286396
1, 382560, Note_on_c, 0, 53, 0
1, 382560, Note_on_c, 0, 70, 0
1, 382560, Note_on_c, 0, 62, 0
1, 382560, Note_on_c, 0, 58, 51
1, 382760, Tempo, 285714
1, 382800, Note_on_c, 0, 58, 0
1, 382800, Note_on_c, 0, 62, 51
1, 382920, Tempo, 285036
1, 383040, Note_on_c, 0, 62, 0
1, 383040, Note_on_c, 0, 58, 51
1, 383080, Tempo, 284360
1, 383280, Tempo, 285036
1, 383280, Note_on_c, 0, 58, 0
1, 383280, Note_on_c, 0, 53, 51
1, 383440, Tempo, 285714
1, 383520, Note_on_c, 0, 53, 0
1, 383520, Note_on_c, 0, 70, 64
1, 383520, Note_on_c, 0, 82, 75
1, 383520, Note_on_c, 0, 46, 54
1, 383640, Tempo, 286396
1, 383760, Note_on_c, 0, 46, 0
1, 383760, Note_on_c, 0, 53, 51
1, 383800, Tempo, 287081
1, 383960, Tempo, 287770
1, 384000, Tempo, 284927
1, 384000, Note_on_c, 0, 53, 0
1, 384000, Note_on_c, 0, 58, 51
1, 384240, Note_on_c, 0, 58, 0
1, 384240, Note_on_c, 0, 65, 51
1, 384480, Tempo, 288600
1, 384480, Note_on_c, 0, 65, 0
1, 384480, Note_on_c, 0, 82, 0
1, 384480, Note_on_c, 0, 70, 0
1, 384480, Note_on_c, 0, 71, 65
1, 384480, Note_on_c, 0, 83, 77
1, 384480, Note_on_c, 0, 58, 51
1, 384720, Note_on_c, 0, 58, 0
1, 384720, Note_on_c, 0, 53, 51
1, 384960, Tempo, 288462
1, 384960, Note_on_c, 0, 53, 0
1, 384960, Note_on_c, 0, 83, 0
1, 384960, Note_on_c, 0, 71, 0
1, 384960, Note_on_c, 0, 72, 65
1, 384960, Note_on_c, 0, 84, 77
1, 384960, Note_on_c, 0, 46, 58
1, 384975, Control_c, 0, 64, 0
1, 385012, Control_c, 0, 64, 127
1, 385023, Tempo, 285741
1, 385089, Tempo, 284873
1, 385133, Tempo, 284010
1, 385140, Note_on_c, 0, 84, 0
1, 385140, Note_on_c, 0, 72, 0
1, 385176, Tempo, 283152
1, 385200, Note_on_c, 0, 46, 0
1, 385200, Note_on_c, 0, 55, 47
1, 385220, Tempo, 282300
1, 385248, Note_on_c, 0, 85, 72
1, 385248, Note_on_c, 0, 82, 60
1, 385263, Tempo, 281452
1, 385307, Tempo, 280610
1, 385351, Tempo, 279772
1, 385394, Tempo, 278940
1, 385428, Note_on_c, 0, 82, 0
1, 385428, Note_on_c, 0, 85, 0
1, 385438, Tempo, 277290
1, 385440, Note_on_c, 0, 55, 0
1, 385440, Note_on_c, 0, 60, 48
1, 385503, Tempo, 278113
1, 385536, Note_on_c, 0, 76, 61
1, 385536, Note_on_c, 0, 84, 73
1, 385569, Tempo, 278940
1, 385634, Tempo, 279772
1, 385678, Tempo, 280610
1, 385680, Note_on_c, 0, 60, 0
1, 385680, Note_on_c, 0, 64, 50
1, 385716, Note_on_c, 0, 84, 0
1, 385716, Note_on_c, 0, 76, 0
1, 385743, Tempo, 281452
1, 385809, Tempo, 282300
1, 385824, Note_on_c, 0, 82, 63
1, 385824, Note_on_c, 0, 83, 74
1, 385853, Tempo, 283152
1, 385920, Tempo, 290093
1, 385920, Note_on_c, 0, 64, 0
1, 385920, Note_on_c, 0, 60, 51
1, 386004, Note_on_c, 0, 83, 0
1, 386004, Note_on_c, 0, 82, 0
1, 386112, Note_on_c, 0, 76, 67
1, 386112, Note_on_c, 0, 84, 79
1, 386160, Tempo, 279942
1, 386160, Note_on_c, 0, 60, 0
1, 386160, Note_on_c, 0, 55, 53
1, 386280, Note_on_c, 0, 84, 0
1, 386280, Note_on_c, 0, 76, 0
1, 386280, Note_on_c, 0, 80, 57
1, 386280, Note_on_c, 0, 84, 69
1, 386400, Tempo, 288600
1, 386400, Note_on_c, 0, 84, 0
1, 386400, Note_on_c, 0, 80, 0
1, 386400, Note_on_c, 0, 55, 0
1, 386400, Note_on_c, 0, 80, 73
1, 386400, Note_on_c, 0, 92, 87
1, 386400, Note_on_c, 0, 46, 54
1, 386407, Control_c, 0, 64, 0
1, 386442, Control_c, 0, 64, 127
1, 386640, Note_on_c, 0, 46, 0
1, 386640, Note_on_c, 0, 92, 0
1, 386640, Note_on_c, 0, 80, 0
1, 386640, Note_on_c, 0, 56, 51
1, 386860, Tempo, 282353
1, 386880, Note_on_c, 0, 56, 0
1, 386880, Note_on_c, 0, 60, 51
1, 387120, Note_on_c, 0, 60, 0
1, 387120, Note_on_c, 0, 65, 51
1, 387360, Note_on_c, 0, 65, 0
1, 387360, Note_on_c, 0, 60, 51
1, 387600, Tempo, 291262
1, 387600, Note_on_c, 0, 60, 0
1, 387600, Note_on_c, 0, 84, 81
1, 387600, Note_on_c, 0, 75, 69
1, 387600, Note_on_c, 0, 56, 51
1, 387800, Tempo, 287770
1, 387838, Tempo, 284010
1, 387840, Note_on_c, 0, 56, 0
1, 387840, Note_on_c, 0, 75, 0
1, 387840, Note_on_c, 0, 84, 0
1, 387840, Note_on_c, 0, 74, 65
1, 387840, Note_on_c, 0, 82, 77
1, 387840, Note_on_c, 0, 46, 58
1, 387855, Control_c, 0, 64, 0
1, 387892, Control_c, 0, 64, 127
1, 387947, Tempo, 283152
1, 388020, Note_on_c, 0, 82, 0
1, 388020, Note_on_c, 0, 74, 0
1, 388034, Tempo, 282300
1, 388080, Note_on_c, 0, 46, 0
1, 388080, Note_on_c, 0, 53, 47
1, 388122, Tempo, 281452
1, 388128, Note_on_c, 0, 80, 60
1, 388128, Note_on_c, 0, 84, 72
1, 388209, Tempo, 280610
1, 388296, Tempo, 279772
1, 388308, Note_on_c, 0, 84, 0
1, 388308, Note_on_c, 0, 80, 0
1, 388320, Note_on_c, 0, 53, 0
1, 388320, Note_on_c, 0, 56, 48
1, 388383, Tempo, 278940
1, 388416, Note_on_c, 0, 82, 73
1, 388416, Note_on_c, 0, 74, 61
1, 388449, Tempo, 279772
1, 388514, Tempo, 280610
1, 388558, Tempo, 281452
1, 388560, Note_on_c, 0, 56, 0
1, 388560, Note_on_c, 0, 62, 50
1, 388596, Note_on_c, 0, 74, 0
1, 388596, Note_on_c, 0, 82, 0
1, 388623, Tempo, 282300
1, 388689, Tempo, 283152
1, 388704, Note_on_c, 0, 81, 74
1, 388704, Note_on_c, 0, 80, 63
1, 388733, Tempo, 284010
1, 388760, Tempo, 286396
1, 388800, Tempo, 290853
1, 388800, Note_on_c, 0, 62, 0
1, 388800, Note_on_c, 0, 56, 51
1, 388884, Note_on_c, 0, 80, 0
1, 388884, Note_on_c, 0, 81, 0
1, 388992, Note_on_c, 0, 82, 79
1, 388992, Note_on_c, 0, 74, 67
1, 389040, Tempo, 280636
1, 389040, Note_on_c, 0, 56, 0
1, 389040, Note_on_c, 0, 53, 53
1, 389160, Note_on_c, 0, 74, 0
1, 389160, Note_on_c, 0, 82, 0
1, 389160, Note_on_c, 0, 82, 69
1, 389160, Note_on_c, 0, 79, 57
1, 389280, Tempo, 288600
1, 389280, Note_on_c, 0, 79, 0
1, 389280, Note_on_c, 0, 82, 0
1, 389280, Note_on_c, 0, 53, 0
1, 389280, Note_on_c, 0, 79, 73
1, 389280, Note_on_c, 0, 91, 87
1, 389280, Note_on_c, 0, 46, 54
1, 389289, Control_c, 0, 64, 0
1, 389322, Control_c, 0, 64, 127
1, 389520, Note_on_c, 0, 46, 0
1, 389520, Note_on_c, 0, 91, 0
1, 389520, Note_on_c, 0, 79, 0
1, 389520, Note_on_c, 0, 51, 51
1, 389740, Tempo, 283688
1, 389760, Note_on_c, 0, 51, 0
1, 389760, Note_on_c, 0, 55, 51
1, 390000, Note_on_c, 0, 55, 0
1, 390000, Note_on_c, 0, 63, 51
1, 390240, Note_on_c, 0, 63, 0
1, 390240, Note_on_c, 0, 55, 51
1, 390480, Tempo, 291262
1, 390480, Note_on_c, 0, 55, 0
1, 390480, Note_on_c, 0, 74, 69
1, 390480, Note_on_c, 0, 82, 81
1, 390480, Note_on_c, 0, 51, 51
1, 390720, Tempo, 288600
1, 390720, Note_on_c, 0, 51, 0
1, 390720, Note_on_c, 0, 82, 0
1, 390720, Note_on_c, 0, 74, 0
1, 390720, Note_on_c, 0, 72, 65
1, 390720, Note_on_c, 0, 80, 77
1, 390720, Note_on_c, 0, 46, 58
1, 390735, Control_c, 0, 64, 0
1, 390772, Control_c, 0, 64, 127
1, 390900, Note_on_c, 0, 80, 0
1, 390900, Note_on_c, 0, 72, 0
1, 390960, Note_on_c, 0, 46, 0
1, 390960, Note_on_c, 0, 51, 47
1, 391008, Note_on_c, 0, 75, 60
1, 391008, Note_on_c, 0, 82, 72
1, 391188, Note_on_c, 0, 82, 0
1, 391188, Note_on_c, 0, 75, 0
1, 391200, Tempo, 285660
1, 391200, Note_on_c, 0, 51, 0
1, 391200, Note_on_c, 0, 56, 48
1, 391296, Note_on_c, 0, 72, 61
1, 391296, Note_on_c, 0, 80, 73
1, 391440, Tempo, 289855
1, 391440, Note_on_c, 0, 56, 0
1, 391440, Note_on_c, 0, 60, 50
1, 391476, Note_on_c, 0, 80, 0
1, 391476, Note_on_c, 0, 72, 0
1, 391584, Note_on_c, 0, 75, 63
1, 391584, Note_on_c, 0, 79, 74
1, 391680, Tempo, 317460
1, 391680, Note_on_c, 0, 60, 0
1, 391680, Note_on_c, 0, 56, 51
1, 391764, Note_on_c, 0, 79, 0
1, 391764, Note_on_c, 0, 75, 0
1, 391872, Note_on_c, 0, 80, 79
1, 391872, Note_on_c, 0, 72, 67
1, 391920, Tempo, 281347
1, 391920, Note_on_c, 0, 56, 0
1, 391920, Note_on_c, 0, 51, 53
1, 392040, Note_on_c, 0, 72, 0
1, 392040, Note_on_c, 0, 80, 0
1, 392040, Note_on_c, 0, 77, 57
1, 392040, Note_on_c, 0, 80, 69
1, 392160, Tempo, 288600
1, 392160, Note_on_c, 0, 80, 0
1, 392160, Note_on_c, 0, 77, 0
1, 392160, Note_on_c, 0, 51, 0
1, 392160, Note_on_c, 0, 89, 87
1, 392160, Note_on_c, 0, 77, 73
1, 392160, Note_on_c, 0, 46, 54
1, 392166, Control_c, 0, 64, 0
1, 392202, Control_c, 0, 64, 127
1, 392400, Note_on_c, 0, 46, 0
1, 392400, Note_on_c, 0, 77, 0
1, 392400, Note_on_c, 0, 89, 0
1, 392400, Note_on_c, 0, 53, 51
1, 392640, Tempo, 285036
1, 392640, Note_on_c, 0, 53, 0
1, 392640, Note_on_c, 0, 56, 51
1, 392880, Note_on_c, 0, 56, 0
1, 392880, Note_on_c, 0, 62, 51
1, 393120, Tempo, 291602
1, 393120, Note_on_c, 0, 62, 0
1, 393120, Note_on_c, 0, 80, 78
1, 393120, Note_on_c, 0, 77, 78
1, 393120, Note_on_c, 0, 56, 51
1, 393360, Note_on_c, 0, 56, 0
1, 393360, Note_on_c, 0, 53, 51
1, 393600, Note_on_c, 0, 53, 0
1, 393600, Note_on_c, 0, 77, 0
1, 393600, Note_on_c, 0, 80, 0
1, 393600, Note_on_c, 0, 79, 78
1, 393600, Note_on_c, 0, 77, 66
1, 393600, Note_on_c, 0, 47, 54
1, 393616, Control_c, 0, 64, 0
1, 393703, Control_c, 0, 64, 127
1, 393840, Note_on_c, 0, 47, 0
1, 393840, Note_on_c, 0, 53, 48
1, 393960, Note_on_c, 0, 77, 0
1, 393960, Note_on_c, 0, 79, 0
1, 393960, Note_on_c, 0, 82, 71
1, 394080, Tempo, 288600
1, 394080, Note_on_c, 0, 82, 0
1, 394080, Note_on_c, 0, 53, 0
1, 394080, Note_on_c, 0, 77, 69
1, 394080, Note_on_c, 0, 80, 81
1, 394080, Note_on_c, 0, 55, 48
1, 394320, Note_on_c, 0, 55, 0
1, 394320, Note_on_c, 0, 62, 48
1, 394560, Note_on_c, 0, 62, 0
1, 394560, Note_on_c, 0, 55, 48
1, 394800, Note_on_c, 0, 55, 0
1, 394800, Note_on_c, 0, 80, 0
1, 394800, Note_on_c, 0, 77, 0
1, 394800, Note_on_c, 0, 79, 75
1, 394800, Note_on_c, 0, 77, 64
1, 394800, Note_on_c, 0, 53, 48
1, 395040, Note_on_c, 0, 53, 0
1, 395040, Note_on_c, 0, 77, 0
1, 395040, Note_on_c, 0, 79, 0
1, 395040, Note_on_c, 0, 75, 63
1, 395040, Note_on_c, 0, 79, 74
1, 395040, Note_on_c, 0, 48, 54
1, 395048, Control_c, 0, 64, 0
1, 395109, Control_c, 0, 64, 127
1, 395280, Note_on_c, 0, 48, 0
1, 395280, Note_on_c, 0, 51, 46
1, 395500, Note_on_c, 0, 79, 0
1, 395500, Note_on_c, 0, 75, 0
1, 395520, Tempo, 291602
1, 395520, Note_on_c, 0, 51, 0
1, 395520, Note_on_c, 0, 75, 67
1, 395520, Note_on_c, 0, 80, 79
1, 395520, Note_on_c, 0, 55, 48
1, 395760, Note_on_c, 0, 55, 0
1, 395760, Note_on_c, 0, 63, 51
1, 395980, Note_on_c, 0, 80, 0
1, 395980, Note_on_c, 0, 75, 0
1, 396000, Note_on_c, 0, 63, 0
1, 396000, Note_on_c, 0, 81, 84
1, 396000, Note_on_c, 0, 75, 71
1, 396000, Note_on_c, 0, 54, 53
1, 396240, Note_on_c, 0, 54, 0
1, 396240, Note_on_c, 0, 51, 49
1, 396460, Note_on_c, 0, 75, 0
1, 396460, Note_on_c, 0, 81, 0
1, 396480, Tempo, 321768
1, 396480, Note_on_c, 0, 51, 0
1, 396480, Note_on_c, 0, 68, 71
1, 396480, Note_on_c, 0, 70, 71
1, 396480, Note_on_c, 0, 77, 71
1, 396480, Note_on_c, 0, 82, 84
1, 396480, Note_on_c, 0, 50, 80
1, 396480, Control_c, 0, 64, 0
1, 396635, Control_c, 0, 64, 127
1, 396720, Note_on_c, 0, 50, 0
1, 396720, Note_on_c, 0, 56, 55
1, 396960, Tempo, 291971
1, 396960, Note_on_c, 0, 56, 0
1, 396960, Note_on_c, 0, 58, 55
1, 397040, Tempo, 291262
1, 397120, Tempo, 290557
1, 397200, Tempo, 289855
1, 397200, Note_on_c, 0, 58, 0
1, 397200, Note_on_c, 0, 65, 55
1, 397280, Tempo, 289157
1, 397360, Tempo, 288462
1, 397440, Tempo, 287770
1, 397440, Note_on_c, 0, 65, 0
1, 397440, Note_on_c, 0, 58, 55
1, 397480, Tempo, 287081
1, 397560, Tempo, 287770
1, 397640, Tempo, 288462
1, 397680, Note_on_c, 0, 58, 0
1, 397680, Note_on_c, 0, 56, 55
1, 397720, Tempo, 289157
1, 397800, Tempo, 289855
1, 397880, Tempo, 290557
1, 397920, Tempo, 294406
1, 397920, Note_on_c, 0, 56, 0
1, 397920, Note_on_c, 0, 82, 0
1, 397920, Note_on_c, 0, 68, 0
1, 397920, Note_on_c, 0, 70, 0
1, 397920, Note_on_c, 0, 77, 0
1, 397920, Note_on_c, 0, 68, 66
1, 397920, Note_on_c, 0, 70, 66
1, 397920, Note_on_c, 0, 74, 66
1, 397920, Note_on_c, 0, 79, 66
1, 397920, Note_on_c, 0, 82, 78
1, 397920, Note_on_c, 0, 46, 66
1, 397927, Control_c, 0, 64, 0
1, 398034, Control_c, 0, 64, 127
1, 398160, Note_on_c, 0, 46, 0
1, 398160, Note_on_c, 0, 53, 55
1, 398400, Tempo, 285470
1, 398400, Note_on_c, 0, 53, 0
1, 398400, Note_on_c, 0, 58, 55
1, 398640, Note_on_c, 0, 58, 0
1, 398640, Note_on_c, 0, 62, 55
1, 398880, Tempo, 288850
1, 398880, Note_on_c, 0, 62, 0
1, 398880, Note_on_c, 0, 82, 0
1, 398880, Note_on_c, 0, 74, 0
1, 398880, Note_on_c, 0, 68, 0
1, 398880, Note_on_c, 0, 70, 0
1, 398880, Note_on_c, 0, 79, 0
1, 398880, Note_on_c, 0, 68, 61
1, 398880, Note_on_c, 0, 79, 61
1, 398880, Note_on_c, 0, 82, 73
1, 398880, Note_on_c, 0, 70, 61
1, 398880, Note_on_c, 0, 74, 61
1, 398880, Note_on_c, 0, 58, 55
1, 399120, Note_on_c, 0, 58, 0
1, 399120, Note_on_c, 0, 53, 55
1, 399360, Note_on_c, 0, 53, 0
1, 399360, Note_on_c, 0, 74, 0
1, 399360, Note_on_c, 0, 82, 0
1, 399360, Note_on_c, 0, 68, 0
1, 399360, Note_on_c, 0, 79, 0
1, 399360, Note_on_c, 0, 70, 0
1, 399360, Note_on_c, 0, 67, 65
1, 399360, Note_on_c, 0, 75, 76
1, 399360, Note_on_c, 0, 39, 60
1, 399368, Control_c, 0, 64, 0
1, 399530, Control_c, 0, 64, 127
1, 399600, Note_on_c, 0, 39, 0
1, 399600, Note_on_c, 0, 46, 54
1, 399840, Tempo, 290093
1, 399840, Note_on_c, 0, 46, 0
1, 399840, Note_on_c, 0, 75, 0
1, 399840, Note_on_c, 0, 67, 0
1, 399840, Note_on_c, 0, 51, 54
1, 400080, Note_on_c, 0, 51, 0
1, 400080, Note_on_c, 0, 55, 54
1, 400320, Tempo, 287853
1, 400320, Note_on_c, 0, 55, 0
1, 400320, Note_on_c, 0, 58, 54
1, 400560, Note_on_c, 0, 58, 0
1, 400560, Note_on_c, 0, 63, 53
1, 400800, Tempo, 284927
1, 400800, Note_on_c, 0, 63, 0
1, 400800, Note_on_c, 0, 79, 72
1, 400800, Note_on_c, 0, 87, 86
1, 400800, Note_on_c, 0, 75, 72
1, 400800, Note_on_c, 0, 67, 60
1, 401040, Note_on_c, 0, 67, 0
1, 401040, Note_on_c, 0, 63, 53
1, 401280, Tempo, 285660
1, 401280, Note_on_c, 0, 63, 0
1, 401280, Note_on_c, 0, 58, 53
1, 401520, Note_on_c, 0, 58, 0
1, 401520, Note_on_c, 0, 55, 53
1, 401760, Tempo, 290093
1, 401760, Note_on_c, 0, 55, 0
1, 401760, Note_on_c, 0, 75, 0
1, 401760, Note_on_c, 0, 87, 0
1, 401760, Note_on_c, 0, 79, 0
1, 401760, Note_on_c, 0, 86, 80
1, 401760, Note_on_c, 0, 82, 67
1, 401760, Note_on_c, 0, 75, 67
1, 401760, Note_on_c, 0, 51, 53
1, 402000, Note_on_c, 0, 51, 0
1, 402000, Note_on_c, 0, 46, 53
1, 402240, Tempo, 285660
1, 402240, Note_on_c, 0, 46, 0
1, 402240, Note_on_c, 0, 75, 0
1, 402240, Note_on_c, 0, 82, 0
1, 402240, Note_on_c, 0, 86, 0
1, 402240, Note_on_c, 0, 82, 71
1, 402240, Note_on_c, 0, 75, 71
1, 402240, Note_on_c, 0, 84, 85
1, 402240, Note_on_c, 0, 41, 60
1, 402248, Control_c, 0, 64, 0
1, 402395, Control_c, 0, 64, 127
1, 402480, Note_on_c, 0, 41, 0
1, 402480, Note_on_c, 0, 48, 52
1, 402720, Tempo, 284589
1, 402720, Note_on_c, 0, 48, 0
1, 402720, Note_on_c, 0, 51, 52
1, 402960, Note_on_c, 0, 51, 0
1, 402960, Note_on_c, 0, 58, 53
1, 403200, Note_on_c, 0, 58, 0
1, 403200, Note_on_c, 0, 51, 53
1, 403440, Note_on_c, 0, 51, 0
1, 403440, Note_on_c, 0, 48, 53
1, 403680, Tempo, 288600
1, 403680, Note_on_c, 0, 48, 0
1, 403680, Note_on_c, 0, 84, 0
1, 403680, Note_on_c, 0, 75, 0
1, 403680, Note_on_c, 0, 82, 0
1, 403680, Note_on_c, 0, 86, 87
1, 403680, Note_on_c, 0, 81, 73
1, 403680, Note_on_c, 0, 77, 73
1, 403680, Note_on_c, 0, 41, 60
1, 403693, Control_c, 0, 64, 0
1, 403878, Control_c, 0, 64, 127
1, 403920, Note_on_c, 0, 41, 0
1, 403920, Note_on_c, 0, 48, 53
1, 404160, Tempo, 284589
1, 404160, Note_on_c, 0, 48, 0
1, 404160, Note_on_c, 0, 51, 53
1, 404400, Note_on_c, 0, 51, 0
1, 404400, Note_on_c, 0, 57, 54
1, 404640, Tempo, 294406
1, 404640, Note_on_c, 0, 57, 0
1, 404640, Note_on_c, 0, 77, 0
1, 404640, Note_on_c, 0, 81, 0
1, 404640, Note_on_c, 0, 86, 0
1, 404640, Note_on_c, 0, 86, 81
1, 404640, Note_on_c, 0, 81, 69
1, 404640, Note_on_c, 0, 75, 69
1, 404640, Note_on_c, 0, 51, 54
1, 404880, Note_on_c, 0, 51, 0
1, 404880, Note_on_c, 0, 48, 54
1, 405120, Tempo, 288600
1, 405120, Note_on_c, 0, 48, 0
1, 405120, Note_on_c, 0, 75, 0
1, 405120, Note_on_c, 0, 81, 0
1, 405120, Note_on_c, 0, 86, 0
1, 405120, Note_on_c, 0, 74, 65
1, 405120, Note_on_c, 0, 82, 77
1, 405120, Note_on_c, 0, 34, 59
1, 405126, Control_c, 0, 64, 0
1, 405261, Control_c, 0, 64, 127
1, 405360, Note_on_c, 0, 34, 0
1, 405360, Note_on_c, 0, 46, 53
1, 405600, Note_on_c, 0, 46, 0
1, 405600, Note_on_c, 0, 82, 0
1, 405600, Note_on_c, 0, 74, 0
1, 405600, Note_on_c, 0, 53, 55
1, 405840, Note_on_c, 0, 53, 0
1, 405840, Note_on_c, 0, 58, 57
1, 406080, Note_on_c, 0, 58, 0
1, 406080, Note_on_c, 0, 62, 58
1, 406320, Note_on_c, 0, 62, 0
1, 406320, Note_on_c, 0, 65, 60
1, 406560, Tempo, 295567
1, 406560, Note_on_c, 0, 65, 0
1, 406560, Note_on_c, 0, 82, 78
1, 406560, Note_on_c, 0, 94, 94
1, 406560, Note_on_c, 0, 74, 61
1, 406800, Note_on_c, 0, 74, 0
1, 406800, Note_on_c, 0, 70, 59
1, 407040, Note_on_c, 0, 70, 0
1, 407040, Note_on_c, 0, 65, 57
1, 407280, Note_on_c, 0, 65, 0
1, 407280, Note_on_c, 0, 62, 55
1, 407520, Tempo, 313316
1, 407520, Note_on_c, 0, 62, 0
1, 407520, Note_on_c, 0, 94, 0
1, 407520, Note_on_c, 0, 82, 0
1, 407520, Note_on_c, 0, 58, 53
1, 407760, Note_on_c, 0, 58, 0
1, 407760, Note_on_c, 0, 82, 74
1, 407760, Note_on_c, 0, 94, 88
1, 407760, Note_on_c, 0, 53, 51
1, 407762, Control_c, 0, 64, 0
1, 407990, Note_on_c, 0, 94, 0
1, 407990, Note_on_c, 0, 82, 0
1, 408000, Tempo, 305344
1, 408000, Note_on_c, 0, 53, 0
1, 408000, Note_on_c, 0, 82, 78
1, 408000, Note_on_c, 0, 94, 94
1, 408000, Note_on_c, 0, 46, 57
1, 408137, Control_c, 0, 64, 127
1, 408240, Note_on_c, 0, 46, 0
1, 408240, Note_on_c, 0, 52, 49
1, 408480, Note_on_c, 0, 52, 0
1, 408480, Note_on_c, 0, 55, 49
1, 408720, Note_on_c, 0, 55, 0
1, 408720, Note_on_c, 0, 60, 49
1, 408960, Note_on_c, 0, 60, 0
1, 408960, Note_on_c, 0, 94, 0
1, 408960, Note_on_c, 0, 82, 0
1, 408960, Note_on_c, 0, 55, 49
1, 409200, Note_on_c, 0, 55, 0
1, 409200, Note_on_c, 0, 52, 49
1, 409440, Note_on_c, 0, 52, 0
1, 409440, Note_on_c, 0, 60, 65
1, 409440, Note_on_c, 0, 72, 77
1, 409440, Note_on_c, 0, 46, 47
1, 409443, Tempo, 304290
1, 409574, Tempo, 303306
1, 409680, Note_on_c, 0, 46, 0
1, 409680, Note_on_c, 0, 52, 47
1, 409683, Tempo, 302328
1, 409814, Tempo, 301356
1, 409920, Note_on_c, 0, 52, 0
1, 409920, Note_on_c, 0, 60, 0
1, 409920, Note_on_c, 0, 55, 53
1, 409923, Tempo, 300391
1, 410098, Tempo, 301356
1, 410160, Note_on_c, 0, 55, 0
1, 410160, Note_on_c, 0, 60, 47
1, 410273, Tempo, 302328
1, 410400, Note_on_c, 0, 60, 0
1, 410400, Note_on_c, 0, 72, 0
1, 410400, Note_on_c, 0, 62, 61
1, 410400, Note_on_c, 0, 74, 73
1, 410400, Note_on_c, 0, 55, 47
1, 410425, Tempo, 303306
1, 410640, Tempo, 318302
1, 410640, Note_on_c, 0, 55, 0
1, 410640, Note_on_c, 0, 52, 47
1, 410880, Tempo, 337079
1, 410880, Note_on_c, 0, 52, 0
1, 410880, Note_on_c, 0, 74, 0
1, 410880, Note_on_c, 0, 62, 0
1, 410880, Note_on_c, 0, 63, 57
1, 410880, Note_on_c, 0, 75, 69
1, 410880, Note_on_c, 0, 46, 55
1, 410892, Control_c, 0, 64, 0
1, 410965, Control_c, 0, 64, 127
1, 410970, Note_on_c, 0, 75, 0
1, 410970, Note_on_c, 0, 77, 69
1, 411060, Note_on_c, 0, 77, 0
1, 411060, Note_on_c, 0, 75, 69
1, 411120, Tempo, 310881
1, 411120, Note_on_c, 0, 46, 0
1, 411120, Note_on_c, 0, 53, 46
1, 411240, Note_on_c, 0, 75, 0
1, 411240, Note_on_c, 0, 63, 0
1, 411240, Note_on_c, 0, 62, 53
1, 411240, Note_on_c, 0, 74, 64
1, 411360, Note_on_c, 0, 53, 0
1, 411360, Note_on_c, 0, 57, 46
1, 411600, Note_on_c, 0, 57, 0
1, 411600, Note_on_c, 0, 74, 0
1, 411600, Note_on_c, 0, 62, 0
1, 411600, Note_on_c, 0, 63, 53
1, 411600, Note_on_c, 0, 75, 64
1, 411600, Note_on_c, 0, 60, 46
1, 411840, Note_on_c, 0, 60, 0
1, 411840, Note_on_c, 0, 57, 47
1, 411960, Note_on_c, 0, 75, 0
1, 411960, Note_on_c, 0, 63, 0
1, 411960, Note_on_c, 0, 79, 64
1, 411960, Note_on_c, 0, 67, 53
1, 411960, Note_on_c, 0, 74, 53
1, 412080, Tempo, 325203
1, 412080, Note_on_c, 0, 57, 0
1, 412080, Note_on_c, 0, 53, 47
1, 412320, Tempo, 346821
1, 412320, Note_on_c, 0, 53, 0
1, 412320, Note_on_c, 0, 74, 0
1, 412320, Note_on_c, 0, 67, 0
1, 412320, Note_on_c, 0, 79, 0
1, 412320, Note_on_c, 0, 74, 60
1, 412320, Note_on_c, 0, 68, 66
1, 412320, Note_on_c, 0, 79, 72
1, 412320, Note_on_c, 0, 46, 52
1, 412332, Control_c, 0, 64, 0
1, 412412, Control_c, 0, 64, 127
1, 412560, Note_on_c, 0, 46, 0
1, 412560, Note_on_c, 0, 53, 47
1, 412800, Note_on_c, 0, 53, 0
1, 412800, Note_on_c, 0, 68, 0
1, 412800, Note_on_c, 0, 70, 66
1, 412800, Note_on_c, 0, 56, 47
1, 413040, Note_on_c, 0, 56, 0
1, 413040, Note_on_c, 0, 62, 47
1, 413280, Tempo, 428571
1, 413280, Note_on_c, 0, 62, 0
1, 413280, Note_on_c, 0, 70, 0
1, 413280, Note_on_c, 0, 74, 0
1, 413280, Note_on_c, 0, 68, 61
1, 413280, Note_on_c, 0, 56, 47
1, 413440, Note_on_c, 0, 79, 0
1, 413440, Note_on_c, 0, 77, 61
1, 413520, Note_on_c, 0, 56, 0
1, 413520, Note_on_c, 0, 53, 47
1, 413600, Note_on_c, 0, 77, 0
1, 413600, Note_on_c, 0, 75, 61
1, 413740, Tempo, 478088
1, 413740, Note_on_c, 0, 75, 0
1, 413760, Note_on_c, 0, 53, 0
1, 413760, Note_on_c, 0, 68, 0
1, 413760, Note_on_c, 0, 67, 68
1, 413760, Note_on_c, 0, 75, 68
1, 413760, Note_on_c, 0, 39, 57
1, 413777, Control_c, 0, 64, 0
1, 413820, Tempo, 476190
1, 413894, Control_c, 0, 64, 127
1, 413900, Tempo, 474308
1, 413940, Tempo, 472441
1, 414000, Note_on_c, 0, 39, 0
1, 414000, Note_on_c, 0, 46, 40
1, 414020, Tempo, 470588
1, 414060, Tempo, 468750
1, 414140, Tempo, 466926
1, 414180, Tempo, 465116
1, 414200, Tempo, 466926
1, 414240, Tempo, 465116
1, 414240, Note_on_c, 0, 46, 0
1, 414240, Note_on_c, 0, 51, 48
1, 414280, Tempo, 463320
1, 414320, Tempo, 461538
1, 414360, Tempo, 459770
1, 414400, Tempo, 458015
1, 414440, Tempo, 456274
1, 414480, Tempo, 454545
1, 414480, Note_on_c, 0, 51, 0
1, 414480, Note_on_c, 0, 55, 42
1, 414520, Tempo, 452830
1, 414560, Tempo, 451128
1, 414600, Tempo, 449438
1, 414640, Tempo, 447761
1, 414680, Tempo, 446097
1, 414720, Tempo, 442804
1, 414720, Note_on_c, 0, 55, 0
1, 414720, Note_on_c, 0, 51, 54
1, 414760, Tempo, 444444
1, 414800, Tempo, 447761
1, 414840, Tempo, 451128
1, 414880, Tempo, 454545
1, 414920, Tempo, 456274
1, 414960, Tempo, 459770
1, 414960, Note_on_c, 0, 51, 0
1, 414960, Note_on_c, 0, 46, 50
1, 415000, Tempo, 463320
1, 415040, Tempo, 466926
1, 415080, Tempo, 470588
1, 415120, Tempo, 472441
1, 415200, Tempo, 461538
1, 415200, Note_on_c, 0, 46, 0
1, 415200, Note_on_c, 0, 75, 0
1, 415200, Note_on_c, 0, 67, 0
1, 415200, Note_on_c, 0, 39, 55
1, 415440, Note_on_c, 0, 39, 0
1, 415440, Note_on_c, 0, 46, 45
1, 415640, Tempo, 442804
1, 415680, Note_on_c, 0, 46, 0
1, 415680, Note_on_c, 0, 51, 45
1, 415720, Tempo, 441176
1, 415800, Tempo, 439560
1, 415840, Tempo, 437956
1, 415840, Note_on_c, 0, 67, 61
1, 415920, Tempo, 436364
1, 415920, Note_on_c, 0, 51, 0
1, 415920, Note_on_c, 0, 58, 45
1, 416000, Tempo, 434783
1, 416000, Note_on_c, 0, 67, 0
1, 416000, Note_on_c, 0, 68, 57
1, 416040, Tempo, 433213
1, 416120, Tempo, 431655
1, 416160, Tempo, 430108
1, 416160, Note_on_c, 0, 68, 0
1, 416160, Note_on_c, 0, 58, 0
1, 416160, Note_on_c, 0, 70, 63
1, 416160, Note_on_c, 0, 51, 45
1, 416175, Control_c, 0, 64, 0
1, 416287, Control_c, 0, 64, 127
1, 416320, Note_on_c, 0, 70, 0
1, 416320, Note_on_c, 0, 74, 68
1, 416400, Note_on_c, 0, 51, 0
1, 416400, Note_on_c, 0, 46, 45
1, 416480, Tempo, 494193
1, 416480, Note_on_c, 0, 74, 0
1, 416480, Note_on_c, 0, 72, 63
1, 416640, Tempo, 470588
1, 416640, Note_on_c, 0, 72, 0
1, 416640, Note_on_c, 0, 46, 0
1, 416640, Note_on_c, 0, 70, 70
1, 416640, Note_on_c, 0, 39, 50
1, 416660, Tempo, 472441
1, 416720, Control_c, 0, 64, 0
1, 416740, Tempo, 470588
1, 416820, Tempo, 468750
1, 416824, Control_c, 0, 64, 127
1, 416860, Tempo, 466926
1, 416880, Note_on_c, 0, 39, 0
1, 416880, Note_on_c, 0, 46, 37
1, 416940, Tempo, 465116
1, 416980, Tempo, 463320
1, 417120, Tempo, 461538
1, 417120, Note_on_c, 0, 46, 0
1, 417120, Note_on_c, 0, 51, 51
1, 417200, Tempo, 459770
1, 417240, Tempo, 458015
1, 417280, Tempo, 456274
1, 417320, Tempo, 454545
1, 417360, Tempo, 452830
1, 417360, Note_on_c, 0, 51, 0
1, 417360, Note_on_c, 0, 55, 46
1, 417400, Tempo, 451128
1, 417440, Tempo, 449438
1, 417480, Tempo, 447761
1, 417520, Tempo, 446097
1, 417560, Tempo, 444444
1, 417600, Tempo, 442804
1, 417600, Note_on_c, 0, 55, 0
1, 417600, Note_on_c, 0, 51, 55
1, 417640, Tempo, 444444
1, 417680, Tempo, 446097
1, 417720, Tempo, 449438
1, 417760, Tempo, 451128
1, 417800, Tempo, 454545
1, 417840, Tempo, 456274
1, 417840, Note_on_c, 0, 51, 0
1, 417840, Note_on_c, 0, 46, 49
1, 417880, Tempo, 459770
1, 417920, Tempo, 461538
1, 417960, Tempo, 465116
1, 418000, Tempo, 466926
1, 418040, Tempo, 470588
1, 418080, Tempo, 451128
1, 418080, Note_on_c, 0, 46, 0
1, 418080, Note_on_c, 0, 70, 0
1, 418080, Note_on_c, 0, 39, 50
1, 418320, Note_on_c, 0, 39, 0
1, 418320, Note_on_c, 0, 46, 40
1, 418520, Tempo, 441176
1, 418560, Note_on_c, 0, 46, 0
1, 418560, Note_on_c, 0, 51, 40
1, 418600, Tempo, 439560
1, 418680, Tempo, 437956
1, 418720, Note_on_c, 0, 67, 57
1, 418760, Tempo, 436364
1, 418800, Note_on_c, 0, 51, 0
1, 418800, Note_on_c, 0, 58, 40
1, 418840, Tempo, 434783
1, 418880, Note_on_c, 0, 67, 0
1, 418880, Note_on_c, 0, 68, 60
1, 418920, Tempo, 433213
1, 419040, Note_on_c, 0, 68, 0
1, 419040, Note_on_c, 0, 58, 0
1, 419040, Note_on_c, 0, 70, 65
1, 419040, Note_on_c, 0, 51, 40
1, 419075, Control_c, 0, 64, 0
1, 419139, Control_c, 0, 64, 127
1, 419200, Note_on_c, 0, 70, 0
1, 419200, Note_on_c, 0, 74, 68
1, 419280, Note_on_c, 0, 51, 0
1, 419280, Note_on_c, 0, 46, 40
1, 419360, Tempo, 494193
1, 419360, Note_on_c, 0, 74, 0
1, 419360, Note_on_c, 0, 72, 61
1, 419520, Tempo, 463320
1, 419520, Note_on_c, 0, 72, 0
1, 419520, Note_on_c, 0, 46, 0
1, 419520, Note_on_c, 0, 70, 70
1, 419520, Note_on_c, 0, 39, 54
1, 419600, Control_c, 0, 64, 0
1, 419689, Control_c, 0, 64, 127
1, 419760, Note_on_c, 0, 39, 0
1, 419760, Note_on_c, 0, 46, 37
1, 419880, Tempo, 461538
1, 420000, Tempo, 459770
1, 420000, Note_on_c, 0, 46, 0
1, 420000, Note_on_c, 0, 50, 47
1, 420080, Tempo, 458015
1, 420160, Tempo, 456274
1, 420240, Tempo, 454545
1, 420240, Note_on_c, 0, 50, 0
1, 420240, Note_on_c, 0, 56, 37
1, 420320, Tempo, 452830
1, 420400, Tempo, 451128
1, 420480, Tempo, 449438
1, 420480, Note_on_c, 0, 56, 0
1, 420480, Note_on_c, 0, 50, 50
1, 420520, Tempo, 451128
1, 420560, Tempo, 452830
1, 420600, Tempo, 454545
1, 420640, Tempo, 456274
1, 420680, Tempo, 458015
1, 420720, Tempo, 459770
1, 420720, Note_on_c, 0, 50, 0
1, 420720, Note_on_c, 0, 46, 46
1, 420760, Tempo, 461538
1, 420800, Tempo, 463320
1, 420840, Tempo, 465116
1, 420880, Tempo, 466926
1, 420920, Tempo, 470588
1, 420960, Note_on_c, 0, 46, 0
1, 420960, Note_on_c, 0, 70, 0
1, 420960, Note_on_c, 0, 39, 47
1, 421000, Tempo, 454545
1, 421200, Note_on_c, 0, 39, 0
1, 421200, Note_on_c, 0, 46, 40
1, 421440, Tempo, 446097
1, 421440, Note_on_c, 0, 46, 0
1, 421440, Note_on_c, 0, 50, 40
1, 421520, Tempo, 444444
1, 421600, Tempo, 442804
1, 421600, Note_on_c, 0, 65, 54
1, 421680, Tempo, 441176
1, 421680, Note_on_c, 0, 50, 0
1, 421680, Note_on_c, 0, 58, 40
1, 421760, Tempo, 439560
1, 421760, Note_on_c, 0, 65, 0
1, 421760, Note_on_c, 0, 68, 59
1, 421840, Tempo, 437956
1, 421920, Tempo, 436364
1, 421920, Note_on_c, 0, 68, 0
1, 421920, Note_on_c, 0, 58, 0
1, 421920, Note_on_c, 0, 70, 64
1, 421920, Note_on_c, 0, 50, 40
1, 421935, Control_c, 0, 64, 0
1, 421960, Tempo, 437222
1, 422019, Control_c, 0, 64, 127
1, 422080, Note_on_c, 0, 70, 0
1, 422080, Note_on_c, 0, 74, 68
1, 422160, Note_on_c, 0, 50, 0
1, 422160, Note_on_c, 0, 46, 40
1, 422240, Tempo, 494193
1, 422240, Note_on_c, 0, 74, 0
1, 422240, Note_on_c, 0, 72, 63
1, 422400, Tempo, 459770
1, 422400, Note_on_c, 0, 72, 0
1, 422400, Note_on_c, 0, 46, 0
1, 422400, Note_on_c, 0, 70, 70
1, 422400, Note_on_c, 0, 39, 54
1, 422416, Control_c, 0, 64, 0
1, 422509, Control_c, 0, 64, 127
1, 422640, Note_on_c, 0, 39, 0
1, 422640, Note_on_c, 0, 46, 42
1, 422880, Tempo, 480000
1, 422880, Note_on_c, 0, 46, 0
1, 422880, Note_on_c, 0, 70, 0
1, 422880, Note_on_c, 0, 51, 49
1, 423040, Note_on_c, 0, 61, 57
1, 423120, Tempo, 461538
1, 423120, Note_on_c, 0, 51, 0
1, 423120, Note_on_c, 0, 55, 42
1, 423200, Note_on_c, 0, 63, 56
1, 423360, Tempo, 480000
1, 423360, Note_on_c, 0, 63, 0
1, 423360, Note_on_c, 0, 55, 0
1, 423360, Note_on_c, 0, 67, 60
1, 423360, Note_on_c, 0, 51, 42
1, 423520, Note_on_c, 0, 67, 0
1, 423520, Note_on_c, 0, 61, 0
1, 423520, Note_on_c, 0, 72, 65
1, 423600, Note_on_c, 0, 51, 0
1, 423600, Note_on_c, 0, 46, 42
1, 423680, Note_on_c, 0, 72, 0
1, 423680, Note_on_c, 0, 70, 59
1, 423840, Tempo, 458015
1, 423840, Note_on_c, 0, 70, 0
1, 423840, Note_on_c, 0, 46, 0
1, 423840, Note_on_c, 0, 68, 65
1, 423840, Note_on_c, 0, 39, 46
1, 423845, Control_c, 0, 64, 0
1, 423949, Control_c, 0, 64, 127
1, 424080, Note_on_c, 0, 39, 0
1, 424080, Note_on_c, 0, 47, 42
1, 424320, Note_on_c, 0, 47, 0
1, 424320, Note_on_c, 0, 51, 42
1, 424560, Note_on_c, 0, 51, 0
1, 424560, Note_on_c, 0, 68, 0
1, 424560, Note_on_c, 0, 59, 60
1, 424560, Note_on_c, 0, 56, 42
1, 424800, Note_on_c, 0, 56, 0
1, 424800, Note_on_c, 0, 63, 62
1, 424800, Note_on_c, 0, 51, 42
1, 424840, Tempo, 437222
1, 425040, Note_on_c, 0, 51, 0
1, 425040, Note_on_c, 0, 63, 0
1, 425040, Note_on_c, 0, 59, 0
1, 425040, Note_on_c, 0, 65, 57
1, 425040, Note_on_c, 0, 47, 42
1, 425120, Tempo, 494193
1, 425260, Tempo, 480000
1, 425280, Note_on_c, 0, 47, 0
1, 425280, Note_on_c, 0, 65, 0
1, 425280, Note_on_c, 0, 67, 70
1, 425280, Note_on_c, 0, 39, 54
1, 425295, Control_c, 0, 64, 0
1, 425340, Tempo, 478088
1, 425420, Tempo, 476190
1, 425435, Control_c, 0, 64, 127
1, 425500, Tempo, 474308
1, 425520, Note_on_c, 0, 39, 0
1, 425520, Note_on_c, 0, 46, 37
1, 425540, Tempo, 472441
1, 425620, Tempo, 470588
1, 425700, Tempo, 468750
1, 425740, Tempo, 466926
1, 425760, Tempo, 468750
1, 425760, Note_on_c, 0, 46, 0
1, 425760, Note_on_c, 0, 67, 0
1, 425760, Note_on_c, 0, 51, 44
1, 425800, Tempo, 465116
1, 425840, Tempo, 463320
1, 425880, Tempo, 461538
1, 425920, Tempo, 459770
1, 425960, Tempo, 458015
1, 426000, Tempo, 456274
1, 426000, Note_on_c, 0, 51, 0
1, 426000, Note_on_c, 0, 55, 37
1, 426040, Tempo, 454545
1, 426080, Tempo, 452830
1, 426120, Tempo, 451128
1, 426160, Tempo, 449438
1, 426200, Tempo, 447761
1, 426240, Tempo, 446097
1, 426240, Note_on_c, 0, 55, 0
1, 426240, Note_on_c, 0, 51, 44
1, 426280, Tempo, 444444
1, 426320, Tempo, 446097
1, 426360, Tempo, 447761
1, 426400, Tempo, 451128
1, 426440, Tempo, 452830
1, 426480, Tempo, 456274
1, 426480, Note_on_c, 0, 51, 0
1, 426480, Note_on_c, 0, 46, 37
1, 426520, Tempo, 458015
1, 426560, Tempo, 461538
1, 426600, Tempo, 463320
1, 426640, Tempo, 466926
1, 426680, Tempo, 468750
1, 426720, Tempo, 472441
1, 426720, Note_on_c, 0, 46, 0
1, 426720, Note_on_c, 0, 39, 47
1, 426960, Note_on_c, 0, 39, 0
1, 426960, Note_on_c, 0, 46, 37
1, 427160, Tempo, 461538
1, 427200, Tempo, 459770
1, 427200, Note_on_c, 0, 46, 0
1, 427200, Note_on_c, 0, 51, 37
1, 427240, Tempo, 458015
1, 427280, Tempo, 456274
1, 427320, Tempo, 454545
1, 427360, Tempo, 452830
1, 427360, Note_on_c, 0, 67, 61
1, 427400, Tempo, 451128
1, 427440, Tempo, 449438
1, 427440, Note_on_c, 0, 51, 0
1, 427440, Note_on_c, 0, 58, 37
1, 427480, Tempo, 447761
1, 427520, Tempo, 446097
1, 427520, Note_on_c, 0, 67, 0
1, 427520, Note_on_c, 0, 68, 58
1, 427560, Tempo, 444444
1, 427600, Tempo, 442804
1, 427640, Tempo, 441176
1, 427680, Tempo, 437222
1, 427680, Note_on_c, 0, 68, 0
1, 427680, Note_on_c, 0, 58, 0
1, 427680, Note_on_c, 0, 70, 64
1, 427680, Note_on_c, 0, 51, 37
1, 427689, Control_c, 0, 64, 0
1, 427786, Control_c, 0, 64, 127
1, 427840, Note_on_c, 0, 70, 0
1, 427840, Note_on_c, 0, 74, 68
1, 427920, Note_on_c, 0, 51, 0
1, 427920, Note_on_c, 0, 46, 37
1, 428000, Tempo, 494193
1, 428000, Note_on_c, 0, 74, 0
1, 428000, Note_on_c, 0, 72, 58
1, 428160, Tempo, 517241
1, 428160, Note_on_c, 0, 72, 0
1, 428160, Note_on_c, 0, 46, 0
1, 428160, Note_on_c, 0, 70, 72
1, 428160, Note_on_c, 0, 39, 54
1, 428170, Control_c, 0, 64, 0
1, 428280, Note_on_c, 0, 70, 0
1, 428294, Control_c, 0, 64, 127
1, 428400, Note_on_c, 0, 39, 0
1, 428400, Note_on_c, 0, 82, 72
1, 428400, Note_on_c, 0, 46, 37
1, 428520, Note_on_c, 0, 82, 0
1, 428600, Tempo, 472441
1, 428620, Tempo, 483871
1, 428640, Note_on_c, 0, 46, 0
1, 428640, Note_on_c, 0, 94, 87
1, 428640, Note_on_c, 0, 51, 44
1, 428660, Tempo, 481928
1, 428700, Tempo, 480000
1, 428740, Tempo, 476190
1, 428780, Tempo, 474308
1, 428820, Tempo, 470588
1, 428860, Tempo, 468750
1, 428880, Note_on_c, 0, 51, 0
1, 428880, Note_on_c, 0, 94, 0
1, 428880, Note_on_c, 0, 55, 37
1, 428900, Tempo, 466926
1, 428940, Tempo, 463320
1, 428980, Tempo, 461538
1, 429020, Tempo, 458015
1, 429040, Tempo, 456274
1, 429080, Tempo, 454545
1, 429120, Tempo, 456274
1, 429120, Note_on_c, 0, 55, 0
1, 429120, Note_on_c, 0, 51, 44
1, 429160, Tempo, 458015
1, 429200, Tempo, 459770
1, 429240, Tempo, 461538
1, 429280, Tempo, 463320
1, 429320, Tempo, 465116
1, 429360, Tempo, 466926
1, 429360, Note_on_c, 0, 51, 0
1, 429360, Note_on_c, 0, 46, 37
1, 429400, Tempo, 468750
1, 429440, Tempo, 470588
1, 429480, Tempo, 472441
1, 429520, Tempo, 474308
1, 429560, Tempo, 476190
1, 429600, Tempo, 458015
1, 429600, Note_on_c, 0, 46, 0
1, 429600, Note_on_c, 0, 39, 41
1, 429840, Note_on_c, 0, 39, 0
1, 429840, Note_on_c, 0, 46, 29
1, 430080, Tempo, 454545
1, 430080, Note_on_c, 0, 46, 0
1, 430080, Note_on_c, 0, 51, 29
1, 430160, Tempo, 452830
1, 430200, Tempo, 451128
1, 430240, Tempo, 449438
1, 430240, Note_on_c, 0, 67, 38
1, 430280, Tempo, 447761
1, 430320, Note_on_c, 0, 51, 0
1, 430320, Note_on_c, 0, 58, 29
1, 430360, Tempo, 446097
1, 430400, Tempo, 444444
1, 430400, Note_on_c, 0, 67, 0
1, 430400, Note_on_c, 0, 68, 42
1, 430440, Tempo, 442804
1, 430480, Tempo, 441176
1, 430520, Tempo, 439560
1, 430560, Note_on_c, 0, 68, 0
1, 430560, Note_on_c, 0, 58, 0
1, 430560, Note_on_c, 0, 70, 46
1, 430560, Note_on_c, 0, 51, 29
1, 430575, Control_c, 0, 64, 0
1, 430600, Tempo, 437222
1, 430659, Control_c, 0, 64, 127
1, 430720, Note_on_c, 0, 70, 0
1, 430720, Note_on_c, 0, 74, 50
1, 430800, Note_on_c, 0, 51, 0
1, 430800, Note_on_c, 0, 46, 29
1, 430880, Tempo, 494193
1, 430880, Note_on_c, 0, 74, 0
1, 430880, Note_on_c, 0, 72, 45
1, 431040, Tempo, 519481
1, 431040, Note_on_c, 0, 72, 0
1, 431040, Note_on_c, 0, 46, 0
1, 431040, Note_on_c, 0, 70, 56
1, 431040, Note_on_c, 0, 39, 43
1, 431054, Control_c, 0, 64, 0
1, 431160, Note_on_c, 0, 70, 0
1, 431174, Control_c, 0, 64, 127
1, 431280, Note_on_c, 0, 39, 0
1, 431280, Note_on_c, 0, 82, 56
1, 431280, Note_on_c, 0, 46, 29
1, 431400, Note_on_c, 0, 82, 0
1, 431500, Tempo, 481928
1, 431520, Note_on_c, 0, 46, 0
1, 431520, Note_on_c, 0, 94, 67
1, 431520, Note_on_c, 0, 50, 35
1, 431540, Tempo, 480000
1, 431580, Tempo, 478088
1, 431620, Tempo, 474308
1, 431660, Tempo, 472441
1, 431700, Tempo, 468750
1, 431740, Tempo, 466926
1, 431760, Note_on_c, 0, 50, 0
1, 431760, Note_on_c, 0, 94, 0
1, 431760, Note_on_c, 0, 56, 29
1, 431780, Tempo, 465116
1, 431820, Tempo, 461538
1, 431860, Tempo, 459770
1, 431900, Tempo, 456274
1, 431940, Tempo, 454545
1, 431980, Tempo, 451128
1, 432000, Tempo, 447761
1, 432000, Note_on_c, 0, 56, 0
1, 432000, Note_on_c, 0, 50, 35
1, 432040, Tempo, 449438
1, 432080, Tempo, 451128
1, 432120, Tempo, 454545
1, 432160, Tempo, 456274
1, 432200, Tempo, 458015
1, 432240, Tempo, 461538
1, 432240, Note_on_c, 0, 50, 0
1, 432240, Note_on_c, 0, 46, 29
1, 432280, Tempo, 463320
1, 432320, Tempo, 465116
1, 432360, Tempo, 468750
1, 432400, Tempo, 470588
1, 432440, Tempo, 474308
1, 432480, Note_on_c, 0, 46, 0
1, 432480, Note_on_c, 0, 39, 37
1, 432520, Tempo, 459770
1, 432720, Note_on_c, 0, 39, 0
1, 432720, Note_on_c, 0, 46, 29
1, 432960, Tempo, 454545
1, 432960, Note_on_c, 0, 46, 0
1, 432960, Note_on_c, 0, 50, 29
1, 433040, Tempo, 452830
1, 433120, Tempo, 451128
1, 433120, Note_on_c, 0, 65, 39
1, 433160, Tempo, 449438
1, 433200, Note_on_c, 0, 50, 0
1, 433200, Note_on_c, 0, 58, 29
1, 433240, Tempo, 447761
1, 433280, Tempo, 446097
1, 433280, Note_on_c, 0, 65, 0
1, 433280, Note_on_c, 0, 68, 42
1, 433360, Tempo, 444444
1, 433400, Tempo, 442804
1, 433440, Note_on_c, 0, 68, 0
1, 433440, Note_on_c, 0, 58, 0
1, 433440, Note_on_c, 0, 70, 45
1, 433440, Note_on_c, 0, 50, 29
1, 433455, Control_c, 0, 64, 0
1, 433480, Tempo, 437222
1, 433539, Control_c, 0, 64, 127
1, 433600, Note_on_c, 0, 70, 0
1, 433600, Note_on_c, 0, 74, 48
1, 433680, Note_on_c, 0, 50, 0
1, 433680, Note_on_c, 0, 46, 29
1, 433760, Tempo, 494193
1, 433760, Note_on_c, 0, 74, 0
1, 433760, Note_on_c, 0, 72, 45
1, 433920, Tempo, 458015
1, 433920, Note_on_c, 0, 72, 0
1, 433920, Note_on_c, 0, 46, 0
1, 433920, Note_on_c, 0, 70, 56
1, 433920, Note_on_c, 0, 39, 43
1, 433938, Control_c, 0, 64, 0
1, 434040, Control_c, 0, 64, 127
1, 434160, Note_on_c, 0, 39, 0
1, 434160, Note_on_c, 0, 46, 33
1, 434400, Tempo, 485830
1, 434400, Note_on_c, 0, 46, 0
1, 434400, Note_on_c, 0, 51, 33
1, 434560, Note_on_c, 0, 70, 0
1, 434560, Note_on_c, 0, 61, 39
1, 434640, Tempo, 461538
1, 434640, Note_on_c, 0, 51, 0
1, 434640, Note_on_c, 0, 55, 33
1, 434720, Note_on_c, 0, 63, 43
1, 434880, Tempo, 487805
1, 434880, Note_on_c, 0, 63, 0
1, 434880, Note_on_c, 0, 55, 0
1, 434880, Note_on_c, 0, 67, 46
1, 434880, Note_on_c, 0, 51, 33
1, 435040, Note_on_c, 0, 67, 0
1, 435040, Note_on_c, 0, 61, 0
1, 435040, Note_on_c, 0, 72, 50
1, 435120, Note_on_c, 0, 51, 0
1, 435120, Note_on_c, 0, 46, 33
1, 435200, Note_on_c, 0, 72, 0
1, 435200, Note_on_c, 0, 70, 46
1, 435360, Tempo, 461538
1, 435360, Note_on_c, 0, 70, 0
1, 435360, Note_on_c, 0, 46, 0
1, 435360, Note_on_c, 0, 68, 51
1, 435360, Note_on_c, 0, 39, 38
1, 435365, Control_c, 0, 64, 0
1, 435409, Control_c, 0, 64, 127
1, 435600, Note_on_c, 0, 39, 0
1, 435600, Note_on_c, 0, 47, 33
1, 435840, Note_on_c, 0, 47, 0
1, 435840, Note_on_c, 0, 51, 33
1, 436080, Note_on_c, 0, 51, 0
1, 436080, Note_on_c, 0, 68, 0
1, 436080, Note_on_c, 0, 59, 49
1, 436080, Note_on_c, 0, 56, 33
1, 436320, Note_on_c, 0, 56, 0
1, 436320, Note_on_c, 0, 63, 51
1, 436320, Note_on_c, 0, 51, 33
1, 436360, Tempo, 446097
1, 436560, Note_on_c, 0, 51, 0
1, 436560, Note_on_c, 0, 63, 0
1, 436560, Note_on_c, 0, 59, 0
1, 436560, Note_on_c, 0, 65, 46
1, 436560, Note_on_c, 0, 47, 33
1, 436640, Tempo, 494193
1, 436800, Tempo, 478088
1, 436800, Note_on_c, 0, 47, 0
1, 436800, Note_on_c, 0, 65, 0
1, 436800, Note_on_c, 0, 67, 62
1, 436800, Note_on_c, 0, 39, 43
1, 436807, Control_c, 0, 64, 0
1, 436984, Control_c, 0, 64, 127
1, 437040, Note_on_c, 0, 39, 0
1, 437040, Note_on_c, 0, 46, 29
1, 437280, Tempo, 463320
1, 437280, Note_on_c, 0, 46, 0
1, 437280, Note_on_c, 0, 51, 35
1, 437520, Note_on_c, 0, 51, 0
1, 437520, Note_on_c, 0, 55, 29
1, 437760, Note_on_c, 0, 55, 0
1, 437760, Note_on_c, 0, 51, 35
1, 438000, Note_on_c, 0, 51, 0
1, 438000, Note_on_c, 0, 46, 29
1, 438240, Tempo, 493827
1, 438240, Note_on_c, 0, 46, 0
1, 438240, Note_on_c, 0, 39, 41
1, 438480, Note_on_c, 0, 39, 0
1, 438480, Note_on_c, 0, 67, 0
1, 438480, Note_on_c, 0, 67, 51
1, 438480, Note_on_c, 0, 46, 33
1, 438720, Note_on_c, 0, 46, 0
1, 438720, Note_on_c, 0, 67, 0
1, 438720, Note_on_c, 0, 70, 54
1, 438720, Note_on_c, 0, 51, 33
1, 438960, Note_on_c, 0, 51, 0
1, 438960, Note_on_c, 0, 70, 0
1, 438960, Note_on_c, 0, 79, 55
1, 438960, Note_on_c, 0, 58, 33
1, 439200, Tempo, 470736
1, 439200, Note_on_c, 0, 58, 0
1, 439200, Note_on_c, 0, 79, 0
1, 439200, Note_on_c, 0, 77, 60
1, 439200, Note_on_c, 0, 51, 33
1, 439440, Note_on_c, 0, 51, 0
1, 439440, Note_on_c, 0, 77, 0
1, 439440, Note_on_c, 0, 75, 55
1, 439440, Note_on_c, 0, 46, 33
1, 439520, Tempo, 532056
1, 439680, Tempo, 495868
1, 439680, Note_on_c, 0, 46, 0
1, 439680, Note_on_c, 0, 75, 0
1, 439680, Note_on_c, 0, 70, 66
1, 439680, Note_on_c, 0, 39, 45
1, 439685, Control_c, 0, 64, 0
1, 439793, Control_c, 0, 64, 127
1, 439920, Note_on_c, 0, 39, 0
1, 439920, Note_on_c, 0, 46, 33
1, 440160, Tempo, 481928
1, 440160, Note_on_c, 0, 46, 0
1, 440160, Note_on_c, 0, 51, 35
1, 440400, Note_on_c, 0, 51, 0
1, 440400, Note_on_c, 0, 55, 35
1, 440640, Note_on_c, 0, 55, 0
1, 440640, Note_on_c, 0, 51, 35
1, 440880, Note_on_c, 0, 51, 0
1, 440880, Note_on_c, 0, 46, 33
1, 441120, Tempo, 493827
1, 441120, Note_on_c, 0, 46, 0
1, 441120, Note_on_c, 0, 39, 41
1, 441360, Note_on_c, 0, 39, 0
1, 441360, Note_on_c, 0, 70, 0
1, 441360, Note_on_c, 0, 67, 51
1, 441360, Note_on_c, 0, 46, 33
1, 441600, Note_on_c, 0, 46, 0
1, 441600, Note_on_c, 0, 67, 0
1, 441600, Note_on_c, 0, 70, 54
1, 441600, Note_on_c, 0, 51, 33
1, 441840, Note_on_c, 0, 51, 0
1, 441840, Note_on_c, 0, 70, 0
1, 441840, Note_on_c, 0, 79, 55
1, 441840, Note_on_c, 0, 58, 33
1, 442080, Tempo, 470736
1, 442080, Note_on_c, 0, 58, 0
1, 442080, Note_on_c, 0, 79, 0
1, 442080, Note_on_c, 0, 77, 60
1, 442080, Note_on_c, 0, 51, 26
1, 442320, Note_on_c, 0, 51, 0
1, 442320, Note_on_c, 0, 77, 0
1, 442320, Note_on_c, 0, 75, 55
1, 442320, Note_on_c, 0, 46, 25
1, 442400, Tempo, 532056
1, 442560, Note_on_c, 0, 46, 0
1, 442560, Note_on_c, 0, 75, 0
1, 442560, Note_on_c, 0, 74, 66
1, 442560, Note_on_c, 0, 43, 48
1, 442564, Control_c, 0, 64, 0
1, 442716, Control_c, 0, 64, 127
1, 442800, Note_on_c, 0, 43, 0
1, 442800, Note_on_c, 0, 50, 33
1, 443040, Tempo, 495172
1, 443040, Note_on_c, 0, 50, 0
1, 443040, Note_on_c, 0, 55, 31
1, 443280, Note_on_c, 0, 55, 0
1, 443280, Note_on_c, 0, 58, 34
1, 443520, Note_on_c, 0, 58, 0
1, 443520, Note_on_c, 0, 62, 37
1, 443760, Note_on_c, 0, 62, 0
1, 443760, Note_on_c, 0, 58, 40
1, 444000, Tempo, 506329
1, 444000, Note_on_c, 0, 58, 0
1, 444000, Note_on_c, 0, 67, 45
1, 444240, Note_on_c, 0, 67, 0
1, 444240, Note_on_c, 0, 74, 0
1, 444240, Note_on_c, 0, 70, 51
1, 444240, Note_on_c, 0, 62, 40
1, 444480, Note_on_c, 0, 62, 0
1, 444480, Note_on_c, 0, 70, 0
1, 444480, Note_on_c, 0, 74, 54
1, 444480, Note_on_c, 0, 58, 39
1, 444720, Note_on_c, 0, 58, 0
1, 444720, Note_on_c, 0, 74, 0
1, 444720, Note_on_c, 0, 82, 55
1, 444720, Note_on_c, 0, 55, 38
1, 444960, Tempo, 487805
1, 444960, Note_on_c, 0, 55, 0
1, 444960, Note_on_c, 0, 82, 0
1, 444960, Note_on_c, 0, 81, 60
1, 444960, Note_on_c, 0, 50, 37
1, 445200, Note_on_c, 0, 50, 0
1, 445200, Note_on_c, 0, 81, 0
1, 445200, Note_on_c, 0, 79, 55
1, 445200, Note_on_c, 0, 43, 35
1, 445280, Tempo, 532056
1, 445440, Note_on_c, 0, 43, 0
1, 445440, Note_on_c, 0, 79, 0
1, 445440, Note_on_c, 0, 74, 69
1, 445440, Note_on_c, 0, 31, 42
1, 445449, Control_c, 0, 64, 0
1, 445624, Control_c, 0, 64, 127
1, 445680, Note_on_c, 0, 31, 0
1, 445680, Note_on_c, 0, 43, 32
1, 445920, Tempo, 495172
1, 445920, Note_on_c, 0, 43, 0
1, 445920, Note_on_c, 0, 50, 34
1, 446160, Note_on_c, 0, 50, 0
1, 446160, Note_on_c, 0, 55, 37
1, 446400, Note_on_c, 0, 55, 0
1, 446400, Note_on_c, 0, 58, 39
1, 446640, Note_on_c, 0, 58, 0
1, 446640, Note_on_c, 0, 62, 41
1, 446880, Tempo, 506329
1, 446880, Note_on_c, 0, 62, 0
1, 446880, Note_on_c, 0, 70, 42
1, 447120, Note_on_c, 0, 70, 0
1, 447120, Note_on_c, 0, 74, 0
1, 447120, Note_on_c, 0, 70, 51
1, 447120, Note_on_c, 0, 67, 41
1, 447360, Note_on_c, 0, 67, 0
1, 447360, Note_on_c, 0, 70, 0
1, 447360, Note_on_c, 0, 74, 54
1, 447360, Note_on_c, 0, 62, 39
1, 447600, Note_on_c, 0, 62, 0
1, 447600, Note_on_c, 0, 74, 0
1, 447600, Note_on_c, 0, 82, 55
1, 447600, Note_on_c, 0, 58, 38
1, 447840, Tempo, 493827
1, 447840, Note_on_c, 0, 58, 0
1, 447840, Note_on_c, 0, 82, 0
1, 447840, Note_on_c, 0, 81, 60
1, 447840, Note_on_c, 0, 55, 36
1, 448080, Note_on_c, 0, 55, 0
1, 448080, Note_on_c, 0, 81, 0
1, 448080, Note_on_c, 0, 79, 55
1, 448080, Note_on_c, 0, 50, 35
1, 448160, Tempo, 532056
1, 448320, Tempo, 535714
1, 448320, Note_on_c, 0, 50, 0
1, 448320, Note_on_c, 0, 79, 0
1, 448320, Note_on_c, 0, 74, 59
1, 448320, Note_on_c, 0, 43, 37
1, 448335, Control_c, 0, 64, 0
1, 448475, Control_c, 0, 64, 127
1, 448560, Note_on_c, 0, 43, 0
1, 448560, Note_on_c, 0, 74, 0
1, 448560, Note_on_c, 0, 70, 55
1, 448560, Note_on_c, 0, 50, 33
1, 448800, Tempo, 528634
1, 448800, Note_on_c, 0, 50, 0
1, 448800, Note_on_c, 0, 70, 0
1, 448800, Note_on_c, 0, 74, 54
1, 448800, Note_on_c, 0, 62, 33
1, 449040, Note_on_c, 0, 74, 0
1, 449040, Note_on_c, 0, 82, 53
1, 449280, Note_on_c, 0, 82, 0
1, 449280, Note_on_c, 0, 62, 0
1, 449280, Note_on_c, 0, 81, 56
1, 449520, Note_on_c, 0, 81, 0
1, 449520, Note_on_c, 0, 79, 51
1, 449760, Note_on_c, 0, 79, 0
1, 449760, Note_on_c, 0, 74, 56
1, 449775, Control_c, 0, 64, 0
1, 450000, Note_on_c, 0, 74, 0
1, 450000, Note_on_c, 0, 70, 51
1, 450240, Note_on_c, 0, 70, 0
1, 450240, Note_on_c, 0, 74, 51
1, 450480, Note_on_c, 0, 74, 0
1, 450480, Note_on_c, 0, 82, 54
1, 450720, Note_on_c, 0, 82, 0
1, 450720, Note_on_c, 0, 81, 50
1, 450960, Note_on_c, 0, 81, 0
1, 450960, Note_on_c, 0, 79, 49
1, 451200, Tempo, 552995
1, 451200, Note_on_c, 0, 79, 0
1, 451200, Note_on_c, 0, 74, 48
1, 451440, Note_on_c, 0, 74, 0
1, 451440, Note_on_c, 0, 81, 45
1, 451680, Tempo, 530973
1, 451680, Note_on_c, 0, 81, 0
1, 451680, Note_on_c, 0, 84, 52
1, 451720, Tempo, 542986
1, 451840, Tempo, 545455
1, 451920, Tempo, 547945
1, 451920, Note_on_c, 0, 84, 0
1, 451920, Note_on_c, 0, 82, 47
1, 452000, Tempo, 550459
1, 452080, Tempo, 552995
1, 452160, Tempo, 555556
1, 452160, Note_on_c, 0, 82, 0
1, 452160, Note_on_c, 0, 79, 50
1, 452280, Tempo, 558140
1, 452360, Tempo, 560748
1, 452400, Note_on_c, 0, 79, 0
1, 452400, Note_on_c, 0, 75, 46
1, 452440, Tempo, 563380
1, 452520, Tempo, 566038
1, 452600, Tempo, 568720
1, 452640, Note_on_c, 0, 75, 0
1, 452640, Note_on_c, 0, 70, 45
1, 452720, Tempo, 571429
1, 452800, Tempo, 574163
1, 452880, Tempo, 576923
1, 452880, Note_on_c, 0, 70, 0
1, 452880, Note_on_c, 0, 67, 45
1, 452960, Tempo, 579710
1, 453040, Tempo, 582524
1, 453120, Tempo, 585366
1, 453120, Note_on_c, 0, 67, 0
1, 453120, Note_on_c, 0, 60, 43
1, 453240, Tempo, 588235
1, 453320, Tempo, 591133
1, 453360, Note_on_c, 0, 60, 0
1, 453360, Note_on_c, 0, 62, 42
1, 453400, Tempo, 594059
1, 453480, Tempo, 597015
1, 453560, Tempo, 600000
1, 453600, Note_on_c, 0, 62, 0
1, 453600, Note_on_c, 0, 65, 41
1, 453680, Tempo, 603015
1, 453760, Tempo, 606061
1, 453840, Tempo, 609137
1, 453840, Note_on_c, 0, 65, 0
1, 453840, Note_on_c, 0, 63, 39
1, 453920, Tempo, 612245
1, 454000, Tempo, 615385
1, 454080, Tempo, 600000
1, 454080, Note_on_c, 0, 63, 0
1, 454080, Note_on_c, 0, 50, 28
1, 454427, Control_c, 0, 64, 127
1, 454560, Note_on_c, 0, 38, 25
1, 455035, Note_on_c, 0, 38, 0
1, 455040, Note_on_c, 0, 38, 25
1, 455515, Note_on_c, 0, 38, 0
1, 455520, Tempo, 630186
1, 455520, Note_on_c, 0, 50, 0
1, 455760, Note_on_c, 0, 60, 38
1, 456000, Tempo, 556070
1, 456000, Note_on_c, 0, 62, 37
1, 456000, Note_on_c, 0, 38, 39
1, 456240, Note_on_c, 0, 66, 37
1, 456475, Note_on_c, 0, 38, 0
1, 456480, Tempo, 530082
1, 456480, Note_on_c, 0, 66, 0
1, 456480, Note_on_c, 0, 70, 41
1, 456480, Note_on_c, 0, 38, 39
1, 456720, Note_on_c, 0, 70, 0
1, 456720, Note_on_c, 0, 69, 39
1, 456955, Note_on_c, 0, 38, 0
1, 456960, Tempo, 506415
1, 456960, Note_on_c, 0, 60, 0
1, 456960, Note_on_c, 0, 62, 0
1, 456960, Note_on_c, 0, 69, 0
1, 456960, Note_on_c, 0, 67, 37
1, 456974, Control_c, 0, 64, 0
1, 457189, Control_c, 0, 64, 127
1, 457440, Tempo, 493218
1, 457440, Note_on_c, 0, 62, 28
1, 457440, Note_on_c, 0, 58, 23
1, 457440, Note_on_c, 0, 38, 22
1, 457915, Note_on_c, 0, 38, 0
1, 457915, Note_on_c, 0, 58, 0
1, 457915, Note_on_c, 0, 62, 0
1, 457920, Tempo, 527612
1, 457920, Note_on_c, 0, 58, 23
1, 457920, Note_on_c, 0, 62, 28
1, 457920, Note_on_c, 0, 38, 22
1, 458395, Note_on_c, 0, 38, 0
1, 458395, Note_on_c, 0, 62, 0
1, 458395, Note_on_c, 0, 58, 0
1, 458400, Tempo, 497512
1, 458400, Note_on_c, 0, 67, 0
1, 458400, Note_on_c, 0, 74, 41
1, 458400, Note_on_c, 0, 62, 34
1, 458880, Tempo, 501924
1, 458880, Note_on_c, 0, 67, 28
1, 458880, Note_on_c, 0, 50, 21
1, 458880, Note_on_c, 0, 55, 21
1, 459355, Note_on_c, 0, 55, 0
1, 459355, Note_on_c, 0, 67, 0
1, 459355, Note_on_c, 0, 50, 0
1, 459360, Tempo, 529381
1, 459360, Note_on_c, 0, 67, 28
1, 459360, Note_on_c, 0, 55, 21
1, 459360, Note_on_c, 0, 50, 21
1, 459835, Note_on_c, 0, 50, 0
1, 459835, Note_on_c, 0, 67, 0
1, 459835, Note_on_c, 0, 55, 0
1, 459840, Tempo, 557724
1, 459840, Note_on_c, 0, 62, 0
1, 459840, Note_on_c, 0, 74, 0
1, 459840, Note_on_c, 0, 72, 39
1, 459840, Note_on_c, 0, 60, 34
1, 459849, Control_c, 0, 64, 0
1, 460092, Control_c, 0, 64, 127
1, 460320, Tempo, 585594
1, 460320, Note_on_c, 0, 67, 28
1, 460320, Note_on_c, 0, 63, 23
1, 460320, Note_on_c, 0, 55, 22
1, 460320, Note_on_c, 0, 50, 22
1, 460795, Note_on_c, 0, 50, 0
1, 460795, Note_on_c, 0, 63, 0
1, 460795, Note_on_c, 0, 67, 0
1, 460795, Note_on_c, 0, 55, 0
1, 460800, Tempo, 557724
1, 460800, Note_on_c, 0, 67, 28
1, 460800, Note_on_c, 0, 63, 23
1, 460800, Note_on_c, 0, 50, 22
1, 460800, Note_on_c, 0, 55, 22
1, 461275, Note_on_c, 0, 55, 0
1, 461275, Note_on_c, 0, 63, 0
1, 461275, Note_on_c, 0, 67, 0
1, 461275, Note_on_c, 0, 50, 0
1, 461280, Tempo, 547995
1, 461280, Note_on_c, 0, 60, 0
1, 461280, Note_on_c, 0, 72, 0
1, 461297, Control_c, 0, 64, 0
1, 461520, Note_on_c, 0, 60, 40
1, 461566, Control_c, 0, 64, 127
1, 461760, Tempo, 537634
1, 461760, Note_on_c, 0, 62, 37
1, 461760, Note_on_c, 0, 38, 39
1, 462000, Note_on_c, 0, 66, 37
1, 462235, Note_on_c, 0, 38, 0
1, 462240, Tempo, 530082
1, 462240, Note_on_c, 0, 66, 0
1, 462240, Note_on_c, 0, 70, 41
1, 462240, Note_on_c, 0, 38, 39
1, 462480, Note_on_c, 0, 70, 0
1, 462480, Note_on_c, 0, 69, 39
1, 462715, Note_on_c, 0, 38, 0
1, 462720, Tempo, 499709
1, 462720, Note_on_c, 0, 60, 0
1, 462720, Note_on_c, 0, 62, 0
1, 462720, Note_on_c, 0, 69, 0
1, 462720, Note_on_c, 0, 67, 37
1, 462726, Control_c, 0, 64, 0
1, 463063, Control_c, 0, 64, 127
1, 463200, Tempo, 488958
1, 463200, Note_on_c, 0, 62, 28
1, 463200, Note_on_c, 0, 58, 23
1, 463200, Note_on_c, 0, 38, 22
1, 463675, Note_on_c, 0, 38, 0
1, 463675, Note_on_c, 0, 58, 0
1, 463675, Note_on_c, 0, 62, 0
1, 463680, Tempo, 527612
1, 463680, Note_on_c, 0, 58, 23
1, 463680, Note_on_c, 0, 62, 28
1, 463680, Note_on_c, 0, 38, 22
1, 464155, Note_on_c, 0, 38, 0
1, 464155, Note_on_c, 0, 62, 0
1, 464155, Note_on_c, 0, 58, 0
1, 464160, Tempo, 501924
1, 464160, Note_on_c, 0, 67, 0
1, 464160, Note_on_c, 0, 64, 37
1, 464176, Control_c, 0, 64, 0
1, 464389, Control_c, 0, 64, 127
1, 464640, Tempo, 515597
1, 464640, Note_on_c, 0, 57, 23
1, 464640, Note_on_c, 0, 55, 23
1, 464640, Note_on_c, 0, 61, 28
1, 464640, Note_on_c, 0, 38, 21
1, 464680, Tempo, 504159
1, 465115, Note_on_c, 0, 38, 0
1, 465115, Note_on_c, 0, 55, 0
1, 465115, Note_on_c, 0, 61, 0
1, 465115, Note_on_c, 0, 57, 0
1, 465120, Tempo, 527612
1, 465120, Note_on_c, 0, 57, 23
1, 465120, Note_on_c, 0, 61, 28
1, 465120, Note_on_c, 0, 55, 23
1, 465120, Note_on_c, 0, 38, 21
1, 465595, Note_on_c, 0, 38, 0
1, 465595, Note_on_c, 0, 61, 0
1, 465595, Note_on_c, 0, 55, 0
1, 465595, Note_on_c, 0, 57, 0
1, 465600, Tempo, 542741
1, 465600, Note_on_c, 0, 64, 0
1, 465600, Note_on_c, 0, 66, 37
1, 465606, Control_c, 0, 64, 0
1, 465760, Control_c, 0, 64, 127
1, 466080, Tempo, 515597
1, 466080, Note_on_c, 0, 62, 23
1, 466080, Note_on_c, 0, 57, 19
1, 466080, Note_on_c, 0, 54, 19
1, 466080, Note_on_c, 0, 38, 16
1, 466120, Tempo, 527612
1, 466555, Note_on_c, 0, 38, 0
1, 466555, Note_on_c, 0, 57, 0
1, 466555, Note_on_c, 0, 54, 0
1, 466555, Note_on_c, 0, 62, 0
1, 466560, Note_on_c, 0, 54, 19
1, 466560, Note_on_c, 0, 57, 19
1, 466560, Note_on_c, 0, 62, 23
1, 466560, Note_on_c, 0, 38, 16
1, 467035, Note_on_c, 0, 38, 0
1, 467035, Note_on_c, 0, 57, 0
1, 467035, Note_on_c, 0, 62, 0
1, 467035, Note_on_c, 0, 54, 0
1, 467040, Tempo, 547995
1, 467040, Note_on_c, 0, 66, 0
1, 467054, Control_c, 0, 64, 0
1, 467280, Note_on_c, 0, 60, 40
1, 467326, Control_c, 0, 64, 127
1, 467520, Tempo, 537634
1, 467520, Note_on_c, 0, 62, 37
1, 467520, Note_on_c, 0, 38, 39
1, 467760, Note_on_c, 0, 66, 37
1, 467995, Note_on_c, 0, 38, 0
1, 468000, Tempo, 530082
1, 468000, Note_on_c, 0, 66, 0
1, 468000, Note_on_c, 0, 70, 41
1, 468000, Note_on_c, 0, 38, 39
1, 468240, Note_on_c, 0, 70, 0
1, 468240, Note_on_c, 0, 69, 39
1, 468475, Note_on_c, 0, 38, 0
1, 468480, Tempo, 515597
1, 468480, Note_on_c, 0, 60, 0
1, 468480, Note_on_c, 0, 62, 0
1, 468480, Note_on_c, 0, 69, 0
1, 468480, Note_on_c, 0, 67, 37
1, 468488, Control_c, 0, 64, 0
1, 468853, Control_c, 0, 64, 127
1, 468960, Tempo, 497512
1, 468960, Note_on_c, 0, 58, 23
1, 468960, Note_on_c, 0, 62, 28
1, 468960, Note_on_c, 0, 38, 22
1, 469435, Note_on_c, 0, 38, 0
1, 469435, Note_on_c, 0, 62, 0
1, 469435, Note_on_c, 0, 58, 0
1, 469440, Tempo, 527612
1, 469440, Note_on_c, 0, 58, 23
1, 469440, Note_on_c, 0, 62, 28
1, 469440, Note_on_c, 0, 38, 22
1, 469915, Note_on_c, 0, 38, 0
1, 469915, Note_on_c, 0, 62, 0
1, 469915, Note_on_c, 0, 58, 0
1, 469920, Tempo, 483871
1, 469920, Note_on_c, 0, 67, 0
1, 469920, Note_on_c, 0, 74, 58
1, 469920, Note_on_c, 0, 62, 43
1, 470400, Tempo, 459348
1, 470400, Note_on_c, 0, 67, 29
1, 470400, Note_on_c, 0, 70, 36
1, 470400, Note_on_c, 0, 55, 21
1, 470400, Note_on_c, 0, 58, 27
1, 470400, Note_on_c, 0, 50, 21
1, 470875, Note_on_c, 0, 50, 0
1, 470875, Note_on_c, 0, 55, 0
1, 470875, Note_on_c, 0, 70, 0
1, 470875, Note_on_c, 0, 67, 0
1, 470875, Note_on_c, 0, 58, 0
1, 470880, Tempo, 517241
1, 470880, Note_on_c, 0, 67, 29
1, 470880, Note_on_c, 0, 70, 36
1, 470880, Note_on_c, 0, 58, 27
1, 470880, Note_on_c, 0, 55, 21
1, 470880, Note_on_c, 0, 50, 21
1, 471355, Note_on_c, 0, 50, 0
1, 471355, Note_on_c, 0, 58, 0
1, 471355, Note_on_c, 0, 70, 0
1, 471355, Note_on_c, 0, 67, 0
1, 471355, Note_on_c, 0, 55, 0
1, 471360, Tempo, 502092
1, 471360, Note_on_c, 0, 62, 0
1, 471360, Note_on_c, 0, 74, 0
1, 471360, Note_on_c, 0, 76, 59
1, 471360, Note_on_c, 0, 64, 45
1, 471366, Control_c, 0, 64, 0
1, 471486, Control_c, 0, 64, 127
1, 471840, Tempo, 475662
1, 471840, Note_on_c, 0, 67, 29
1, 471840, Note_on_c, 0, 70, 36
1, 471840, Note_on_c, 0, 58, 27
1, 471840, Note_on_c, 0, 50, 21
1, 471840, Note_on_c, 0, 55, 21
1, 472315, Note_on_c, 0, 55, 0
1, 472315, Note_on_c, 0, 58, 0
1, 472315, Note_on_c, 0, 70, 0
1, 472315, Note_on_c, 0, 67, 0
1, 472315, Note_on_c, 0, 50, 0
1, 472320, Tempo, 502092
1, 472320, Note_on_c, 0, 67, 29
1, 472320, Note_on_c, 0, 70, 36
1, 472320, Note_on_c, 0, 55, 21
1, 472320, Note_on_c, 0, 50, 21
1, 472320, Note_on_c, 0, 58, 27
1, 472789, Control_c, 0, 64, 0
1, 472795, Note_on_c, 0, 58, 0
1, 472795, Note_on_c, 0, 55, 0
1, 472795, Note_on_c, 0, 70, 0
1, 472795, Note_on_c, 0, 67, 0
1, 472795, Note_on_c, 0, 50, 0
1, 472800, Tempo, 533333
1, 472800, Note_on_c, 0, 64, 0
1, 472800, Note_on_c, 0, 76, 0
1, 473040, Note_on_c, 0, 58, 40
1, 473086, Control_c, 0, 64, 127
1, 473280, Tempo, 521739
1, 473280, Note_on_c, 0, 61, 37
1, 473280, Note_on_c, 0, 38, 39
1, 473520, Note_on_c, 0, 64, 37
1, 473755, Note_on_c, 0, 38, 0
1, 473760, Tempo, 510638
1, 473760, Note_on_c, 0, 64, 0
1, 473760, Note_on_c, 0, 69, 41
1, 473760, Note_on_c, 0, 38, 39
1, 474000, Note_on_c, 0, 69, 0
1, 474000, Note_on_c, 0, 67, 39
1, 474235, Note_on_c, 0, 38, 0
1, 474240, Tempo, 515597
1, 474240, Note_on_c, 0, 58, 0
1, 474240, Note_on_c, 0, 61, 0
1, 474240, Note_on_c, 0, 67, 0
1, 474240, Note_on_c, 0, 67, 37
1, 474252, Control_c, 0, 64, 0
1, 474720, Tempo, 489796
1, 474720, Note_on_c, 0, 61, 27
1, 474720, Note_on_c, 0, 58, 27
1, 474720, Note_on_c, 0, 64, 33
1, 474720, Note_on_c, 0, 38, 26
1, 474834, Control_c, 0, 64, 127
1, 475195, Note_on_c, 0, 38, 0
1, 475195, Note_on_c, 0, 58, 0
1, 475195, Note_on_c, 0, 64, 0
1, 475195, Note_on_c, 0, 61, 0
1, 475200, Tempo, 527612
1, 475200, Note_on_c, 0, 58, 27
1, 475200, Note_on_c, 0, 64, 33
1, 475200, Note_on_c, 0, 61, 27
1, 475200, Note_on_c, 0, 38, 26
1, 475675, Note_on_c, 0, 38, 0
1, 475675, Note_on_c, 0, 64, 0
1, 475675, Note_on_c, 0, 61, 0
1, 475675, Note_on_c, 0, 58, 0
1, 475680, Tempo, 489796
1, 475680, Note_on_c, 0, 67, 0
1, 475680, Note_on_c, 0, 76, 62
1, 475680, Note_on_c, 0, 64, 48
1, 476160, Tempo, 459348
1, 476160, Note_on_c, 0, 73, 39
1, 476160, Note_on_c, 0, 70, 32
1, 476160, Note_on_c, 0, 67, 32
1, 476160, Note_on_c, 0, 58, 29
1, 476160, Note_on_c, 0, 55, 24
1, 476160, Note_on_c, 0, 50, 24
1, 476635, Note_on_c, 0, 50, 0
1, 476635, Note_on_c, 0, 55, 0
1, 476635, Note_on_c, 0, 67, 0
1, 476635, Note_on_c, 0, 70, 0
1, 476635, Note_on_c, 0, 73, 0
1, 476635, Note_on_c, 0, 58, 0
1, 476640, Tempo, 513303
1, 476640, Note_on_c, 0, 73, 41
1, 476640, Note_on_c, 0, 70, 32
1, 476640, Note_on_c, 0, 67, 32
1, 476640, Note_on_c, 0, 55, 24
1, 476640, Note_on_c, 0, 50, 24
1, 476640, Note_on_c, 0, 58, 29
1, 477115, Note_on_c, 0, 58, 0
1, 477115, Note_on_c, 0, 50, 0
1, 477115, Note_on_c, 0, 67, 0
1, 477115, Note_on_c, 0, 70, 0
1, 477115, Note_on_c, 0, 73, 0
1, 477115, Note_on_c, 0, 55, 0
1, 477120, Tempo, 497925
1, 477120, Note_on_c, 0, 64, 0
1, 477120, Note_on_c, 0, 76, 0
1, 477120, Note_on_c, 0, 78, 64
1, 477120, Note_on_c, 0, 66, 52
1, 477128, Control_c, 0, 64, 0
1, 477269, Control_c, 0, 64, 127
1, 477600, Tempo, 459348
1, 477600, Note_on_c, 0, 67, 35
1, 477600, Note_on_c, 0, 70, 35
1, 477600, Note_on_c, 0, 73, 41
1, 477600, Note_on_c, 0, 58, 32
1, 477600, Note_on_c, 0, 50, 24
1, 477600, Note_on_c, 0, 55, 24
1, 477720, Tempo, 457108
1, 478075, Note_on_c, 0, 55, 0
1, 478075, Note_on_c, 0, 50, 0
1, 478075, Note_on_c, 0, 73, 0
1, 478075, Note_on_c, 0, 70, 0
1, 478075, Note_on_c, 0, 67, 0
1, 478075, Note_on_c, 0, 58, 0
1, 478080, Tempo, 478088
1, 478080, Note_on_c, 0, 67, 35
1, 478080, Note_on_c, 0, 70, 35
1, 478080, Note_on_c, 0, 73, 43
1, 478080, Note_on_c, 0, 55, 24
1, 478080, Note_on_c, 0, 58, 32
1, 478080, Note_on_c, 0, 50, 24
1, 478555, Note_on_c, 0, 50, 0
1, 478555, Note_on_c, 0, 58, 0
1, 478555, Note_on_c, 0, 73, 0
1, 478555, Note_on_c, 0, 70, 0
1, 478555, Note_on_c, 0, 67, 0
1, 478555, Note_on_c, 0, 55, 0
1, 478560, Tempo, 501924
1, 478560, Note_on_c, 0, 66, 0
1, 478560, Note_on_c, 0, 78, 0
1, 478560, Note_on_c, 0, 76, 63
1, 478560, Note_on_c, 0, 64, 51
1, 478571, Control_c, 0, 64, 0
1, 478842, Control_c, 0, 64, 127
1, 479040, Tempo, 466926
1, 479040, Note_on_c, 0, 73, 44
1, 479040, Note_on_c, 0, 70, 36
1, 479040, Note_on_c, 0, 67, 36
1, 479040, Note_on_c, 0, 55, 26
1, 479040, Note_on_c, 0, 58, 32
1, 479040, Note_on_c, 0, 50, 26
1, 479515, Note_on_c, 0, 50, 0
1, 479515, Note_on_c, 0, 58, 0
1, 479515, Note_on_c, 0, 67, 0
1, 479515, Note_on_c, 0, 70, 0
1, 479515, Note_on_c, 0, 73, 0
1, 479515, Note_on_c, 0, 55, 0
1, 479520, Tempo, 513303
1, 479520, Note_on_c, 0, 76, 0
1, 479520, Note_on_c, 0, 64, 0
1, 479760, Note_on_c, 0, 78, 67
1, 479760, Note_on_c, 0, 66, 53
1, 479774, Control_c, 0, 64, 0
1, 479980, Note_on_c, 0, 66, 0
1, 479980, Note_on_c, 0, 78, 0
1, 480000, Tempo, 500000
1, 480000, Note_on_c, 0, 78, 67
1, 480000, Note_on_c, 0, 66, 53
1, 480149, Control_c, 0, 64, 127
1, 480480, Tempo, 457108
1, 480480, Note_on_c, 0, 73, 47
1, 480480, Note_on_c, 0, 67, 37
1, 480480, Note_on_c, 0, 70, 37
1, 480480, Note_on_c, 0, 50, 26
1, 480480, Note_on_c, 0, 55, 26
1, 480480, Note_on_c, 0, 58, 35
1, 480955, Note_on_c, 0, 58, 0
1, 480955, Note_on_c, 0, 55, 0
1, 480955, Note_on_c, 0, 70, 0
1, 480955, Note_on_c, 0, 67, 0
1, 480955, Note_on_c, 0, 73, 0
1, 480955, Note_on_c, 0, 50, 0
1, 480960, Note_on_c, 0, 70, 37
1, 480960, Note_on_c, 0, 67, 37
1, 480960, Note_on_c, 0, 73, 47
1, 480960, Note_on_c, 0, 55, 27
1, 480960, Note_on_c, 0, 58, 36
1, 480960, Note_on_c, 0, 50, 27
1, 481000, Tempo, 481928
1, 481080, Tempo, 470884
1, 481435, Note_on_c, 0, 50, 0
1, 481435, Note_on_c, 0, 58, 0
1, 481435, Note_on_c, 0, 73, 0
1, 481435, Note_on_c, 0, 67, 0
1, 481435, Note_on_c, 0, 70, 0
1, 481435, Note_on_c, 0, 55, 0
1, 481440, Tempo, 501924
1, 481440, Note_on_c, 0, 66, 0
1, 481440, Note_on_c, 0, 78, 0
1, 481440, Note_on_c, 0, 76, 73
1, 481440, Note_on_c, 0, 64, 56
1, 481453, Control_c, 0, 64, 0
1, 481722, Control_c, 0, 64, 127
1, 481920, Tempo, 456274
1, 481920, Note_on_c, 0, 67, 40
1, 481920, Note_on_c, 0, 70, 40
1, 481920, Note_on_c, 0, 73, 50
1, 481920, Note_on_c, 0, 50, 27
1, 481920, Note_on_c, 0, 58, 36
1, 481920, Note_on_c, 0, 55, 27
1, 482400, Tempo, 470884
1, 482400, Note_on_c, 0, 55, 0
1, 482400, Note_on_c, 0, 76, 0
1, 482400, Note_on_c, 0, 73, 0
1, 482400, Note_on_c, 0, 64, 0
1, 482400, Note_on_c, 0, 67, 0
1, 482400, Note_on_c, 0, 70, 0
1, 482400, Note_on_c, 0, 50, 0
1, 482400, Note_on_c, 0, 58, 0
1, 482640, Note_on_c, 0, 78, 73
1, 482640, Note_on_c, 0, 66, 56
1, 482650, Control_c, 0, 64, 0
1, 482860, Note_on_c, 0, 66, 0
1, 482860, Note_on_c, 0, 78, 0
1, 482880, Tempo, 459348
1, 482880, Note_on_c, 0, 78, 73
1, 482880, Note_on_c, 0, 66, 56
1, 483029, Control_c, 0, 64, 127
1, 483360, Tempo, 444444
1, 483360, Note_on_c, 0, 73, 52
1, 483360, Note_on_c, 0, 70, 41
1, 483360, Note_on_c, 0, 67, 41
1, 483360, Note_on_c, 0, 58, 37
1, 483360, Note_on_c, 0, 55, 29
1, 483360, Note_on_c, 0, 50, 29
1, 483835, Note_on_c, 0, 50, 0
1, 483835, Note_on_c, 0, 55, 0
1, 483835, Note_on_c, 0, 67, 0
1, 483835, Note_on_c, 0, 70, 0
1, 483835, Note_on_c, 0, 73, 0
1, 483835, Note_on_c, 0, 58, 0
1, 483840, Tempo, 463320
1, 483840, Note_on_c, 0, 70, 43
1, 483840, Note_on_c, 0, 67, 43
1, 483840, Note_on_c, 0, 73, 52
1, 483840, Note_on_c, 0, 50, 29
1, 483840, Note_on_c, 0, 55, 29
1, 483840, Note_on_c, 0, 58, 39
1, 484315, Note_on_c, 0, 58, 0
1, 484315, Note_on_c, 0, 55, 0
1, 484315, Note_on_c, 0, 73, 0
1, 484315, Note_on_c, 0, 67, 0
1, 484315, Note_on_c, 0, 70, 0
1, 484315, Note_on_c, 0, 50, 0
1, 484320, Tempo, 475662
1, 484320, Note_on_c, 0, 66, 0
1, 484320, Note_on_c, 0, 78, 0
1, 484320, Note_on_c, 0, 76, 75
1, 484320, Note_on_c, 0, 64, 60
1, 484335, Control_c, 0, 64, 0
1, 484602, Control_c, 0, 64, 127
1, 484800, Tempo, 442804
1, 484800, Note_on_c, 0, 67, 47
1, 484800, Note_on_c, 0, 70, 47
1, 484800, Note_on_c, 0, 73, 59
1, 484800, Note_on_c, 0, 55, 35
1, 484800, Note_on_c, 0, 58, 44
1, 484800, Note_on_c, 0, 50, 35
1, 485280, Tempo, 470588
1, 485280, Note_on_c, 0, 50, 0
1, 485280, Note_on_c, 0, 76, 0
1, 485280, Note_on_c, 0, 73, 0
1, 485280, Note_on_c, 0, 64, 0
1, 485280, Note_on_c, 0, 67, 0
1, 485280, Note_on_c, 0, 70, 0
1, 485280, Note_on_c, 0, 55, 0
1, 485280, Note_on_c, 0, 58, 0
1, 485520, Note_on_c, 0, 78, 77
1, 485520, Note_on_c, 0, 66, 66
1, 485760, Tempo, 442804
1, 485760, Note_on_c, 0, 66, 0
1, 485760, Note_on_c, 0, 78, 0
1, 485760, Note_on_c, 0, 81, 80
1, 485760, Note_on_c, 0, 69, 69
1, 485765, Control_c, 0, 64, 0
1, 485975, Control_c, 0, 64, 127
1, 486240, Tempo, 424028
1, 486240, Note_on_c, 0, 73, 58
1, 486240, Note_on_c, 0, 70, 58
1, 486240, Note_on_c, 0, 76, 72
1, 486240, Note_on_c, 0, 64, 52
1, 486240, Note_on_c, 0, 58, 42
1, 486240, Note_on_c, 0, 61, 42
1, 486715, Note_on_c, 0, 61, 0
1, 486715, Note_on_c, 0, 58, 0
1, 486715, Note_on_c, 0, 76, 0
1, 486715, Note_on_c, 0, 70, 0
1, 486715, Note_on_c, 0, 73, 0
1, 486715, Note_on_c, 0, 64, 0
1, 486720, Note_on_c, 0, 76, 73
1, 486720, Note_on_c, 0, 73, 58
1, 486720, Note_on_c, 0, 70, 58
1, 486720, Note_on_c, 0, 58, 42
1, 486720, Note_on_c, 0, 64, 55
1, 486720, Note_on_c, 0, 61, 42
1, 487195, Note_on_c, 0, 61, 0
1, 487195, Note_on_c, 0, 64, 0
1, 487195, Note_on_c, 0, 70, 0
1, 487195, Note_on_c, 0, 73, 0
1, 487195, Note_on_c, 0, 76, 0
1, 487195, Note_on_c, 0, 58, 0
1, 487200, Tempo, 442804
1, 487200, Note_on_c, 0, 69, 0
1, 487200, Note_on_c, 0, 81, 0
1, 487200, Note_on_c, 0, 79, 85
1, 487200, Note_on_c, 0, 67, 68
1, 487215, Control_c, 0, 64, 0
1, 487482, Control_c, 0, 64, 127
1, 487680, Tempo, 413793
1, 487680, Note_on_c, 0, 70, 62
1, 487680, Note_on_c, 0, 76, 79
1, 487680, Note_on_c, 0, 73, 62
1, 487680, Note_on_c, 0, 64, 57
1, 487680, Note_on_c, 0, 58, 45
1, 487680, Note_on_c, 0, 61, 45
1, 488160, Tempo, 493827
1, 488160, Note_on_c, 0, 61, 0
1, 488160, Note_on_c, 0, 79, 0
1, 488160, Note_on_c, 0, 73, 0
1, 488160, Note_on_c, 0, 67, 0
1, 488160, Note_on_c, 0, 70, 0
1, 488160, Note_on_c, 0, 76, 0
1, 488160, Note_on_c, 0, 64, 0
1, 488160, Note_on_c, 0, 58, 0
1, 488160, Note_on_c, 0, 81, 93
1, 488160, Note_on_c, 0, 69, 75
1, 488640, Tempo, 449438
1, 488640, Note_on_c, 0, 69, 0
1, 488640, Note_on_c, 0, 81, 0
1, 488640, Note_on_c, 0, 74, 86
1, 488640, Note_on_c, 0, 70, 86
1, 488640, Note_on_c, 0, 82, 101
1, 488640, Note_on_c, 0, 26, 70
1, 488640, Note_on_c, 0, 38, 82
1, 488645, Control_c, 0, 64, 0
1, 488746, Control_c, 0, 64, 127
1, 489120, Note_on_c, 0, 38, 0
1, 489120, Note_on_c, 0, 82, 0
1, 489120, Note_on_c, 0, 74, 0
1, 489120, Note_on_c, 0, 70, 0
1, 489120, Note_on_c, 0, 26, 0
1, 489120, Note_on_c, 0, 50, 56
1, 489120, Note_on_c, 0, 58, 66
1, 489360, Tempo, 481928
1, 489360, Note_on_c, 0, 86, 80
1, 489360, Note_on_c, 0, 94, 95
1, 489580, Note_on_c, 0, 94, 0
1, 489580, Note_on_c, 0, 86, 0
1, 489600, Tempo, 466926
1, 489600, Note_on_c, 0, 58, 0
1, 489600, Note_on_c, 0, 50, 0
1, 489600, Note_on_c, 0, 96, 101
1, 489600, Note_on_c, 0, 87, 86
1, 489600, Note_on_c, 0, 62, 66
1, 489600, Note_on_c, 0, 55, 56
1, 489820, Note_on_c, 0, 87, 0
1, 489820, Note_on_c, 0, 96, 0
1, 489840, Tempo, 451128
1, 489840, Note_on_c, 0, 86, 80
1, 489840, Note_on_c, 0, 94, 95
1, 490060, Note_on_c, 0, 94, 0
1, 490060, Note_on_c, 0, 86, 0
1, 490080, Tempo, 444444
1, 490080, Note_on_c, 0, 62, 0
1, 490080, Note_on_c, 0, 55, 0
1, 490080, Note_on_c, 0, 93, 97
1, 490080, Note_on_c, 0, 84, 82
1, 490080, Note_on_c, 0, 58, 56
1, 490080, Note_on_c, 0, 67, 66
1, 490300, Note_on_c, 0, 84, 0
1, 490300, Note_on_c, 0, 93, 0
1, 490320, Note_on_c, 0, 82, 80
1, 490320, Note_on_c, 0, 91, 95
1, 490540, Note_on_c, 0, 91, 0
1, 490540, Note_on_c, 0, 82, 0
1, 490560, Note_on_c, 0, 58, 0
1, 490560, Note_on_c, 0, 67, 0
1, 490560, Note_on_c, 0, 81, 80
1, 490560, Note_on_c, 0, 90, 94
1, 490560, Note_on_c, 0, 55, 56
1, 490560, Note_on_c, 0, 62, 66
1, 490780, Note_on_c, 0, 90, 0
1, 490780, Note_on_c, 0, 81, 0
1, 490800, Note_on_c, 0, 82, 79
1, 490800, Note_on_c, 0, 91, 93
1, 491020, Note_on_c, 0, 91, 0
1, 491020, Note_on_c, 0, 82, 0
1, 491040, Tempo, 447761
1, 491040, Note_on_c, 0, 55, 0
1, 491040, Note_on_c, 0, 62, 0
1, 491040, Note_on_c, 0, 89, 93
1, 491040, Note_on_c, 0, 81, 79
1, 491040, Note_on_c, 0, 58, 79
1, 491040, Note_on_c, 0, 50, 67
1, 491047, Control_c, 0, 64, 0
1, 491260, Note_on_c, 0, 81, 0
1, 491260, Note_on_c, 0, 89, 0
1, 491400, Tempo, 456274
1, 491400, Note_on_c, 0, 87, 92
1, 491400, Note_on_c, 0, 79, 78
1, 491490, Note_on_c, 0, 79, 0
1, 491490, Note_on_c, 0, 87, 0
1, 491520, Tempo, 442804
1, 491520, Note_on_c, 0, 58, 0
1, 491520, Note_on_c, 0, 50, 0
1, 491520, Note_on_c, 0, 87, 91
1, 491520, Note_on_c, 0, 79, 77
1, 491520, Note_on_c, 0, 26, 56
1, 491520, Note_on_c, 0, 38, 66
1, 491571, Control_c, 0, 64, 127
1, 491740, Note_on_c, 0, 79, 0
1, 491740, Note_on_c, 0, 87, 0
1, 491760, Note_on_c, 0, 86, 90
1, 491760, Note_on_c, 0, 78, 75
1, 491980, Note_on_c, 0, 78, 0
1, 491980, Note_on_c, 0, 86, 0
1, 492000, Note_on_c, 0, 26, 0
1, 492000, Note_on_c, 0, 38, 0
1, 492000, Note_on_c, 0, 84, 89
1, 492000, Note_on_c, 0, 75, 74
1, 492000, Note_on_c, 0, 50, 56
1, 492000, Note_on_c, 0, 60, 66
1, 492000, Note_on_c, 0, 54, 56
1, 492220, Note_on_c, 0, 75, 0
1, 492220, Note_on_c, 0, 84, 0
1, 492240, Note_on_c, 0, 74, 73
1, 492240, Note_on_c, 0, 82, 86
1, 492460, Note_on_c, 0, 82, 0
1, 492460, Note_on_c, 0, 74, 0
1, 492480, Note_on_c, 0, 54, 0
1, 492480, Note_on_c, 0, 50, 0
1, 492480, Note_on_c, 0, 60, 0
1, 492480, Note_on_c, 0, 81, 85
1, 492480, Note_on_c, 0, 72, 72
1, 492480, Note_on_c, 0, 62, 59
1, 492480, Note_on_c, 0, 54, 49
1, 492480, Note_on_c, 0, 60, 49
1, 492700, Note_on_c, 0, 72, 0
1, 492700, Note_on_c, 0, 81, 0
1, 492720, Tempo, 465116
1, 492720, Note_on_c, 0, 79, 83
1, 492720, Note_on_c, 0, 70, 70
1, 492940, Note_on_c, 0, 70, 0
1, 492940, Note_on_c, 0, 79, 0
1, 492960, Tempo, 483871
1, 492960, Note_on_c, 0, 60, 0
1, 492960, Note_on_c, 0, 62, 0
1, 492960, Note_on_c, 0, 54, 0
1, 492960, Note_on_c, 0, 69, 72
1, 492960, Note_on_c, 0, 78, 85
1, 492960, Note_on_c, 0, 60, 55
1, 492960, Note_on_c, 0, 66, 64
1, 492974, Control_c, 0, 64, 0
1, 493100, Note_on_c, 0, 78, 0
1, 493100, Note_on_c, 0, 69, 0
1, 493120, Note_on_c, 0, 75, 85
1, 493120, Note_on_c, 0, 72, 72
1, 493260, Note_on_c, 0, 72, 0
1, 493260, Note_on_c, 0, 75, 0
1, 493280, Note_on_c, 0, 74, 86
1, 493280, Note_on_c, 0, 72, 73
1, 493400, Tempo, 512821
1, 493420, Note_on_c, 0, 72, 0
1, 493420, Note_on_c, 0, 74, 0
1, 493440, Tempo, 600000
1, 493440, Note_on_c, 0, 60, 0
1, 493440, Note_on_c, 0, 66, 0
1, 493440, Note_on_c, 0, 74, 88
1, 493440, Note_on_c, 0, 71, 74
1, 493440, Note_on_c, 0, 60, 58
1, 493440, Note_on_c, 0, 54, 58
1, 493440, Note_on_c, 0, 62, 69
1, 493520, Tempo, 603015
1, 493530, Note_on_c, 0, 71, 0
1, 493530, Note_on_c, 0, 74, 0
1, 493536, Note_on_c, 0, 74, 88
1, 493536, Note_on_c, 0, 70, 74
1, 493560, Tempo, 606061
1, 493600, Tempo, 609137
1, 493626, Note_on_c, 0, 70, 0
1, 493626, Note_on_c, 0, 74, 0
1, 493632, Note_on_c, 0, 74, 88
1, 493632, Note_on_c, 0, 69, 74
1, 493640, Tempo, 612245
1, 493720, Tempo, 615385
1, 493722, Note_on_c, 0, 69, 0
1, 493722, Note_on_c, 0, 74, 0
1, 493728, Note_on_c, 0, 74, 89
1, 493728, Note_on_c, 0, 68, 74
1, 493760, Tempo, 618557
1, 493800, Tempo, 621762
1, 493818, Note_on_c, 0, 68, 0
1, 493818, Note_on_c, 0, 74, 0
1, 493824, Note_on_c, 0, 69, 74
1, 493824, Note_on_c, 0, 74, 89
1, 493840, Tempo, 625000
1, 493880, Tempo, 615385
1, 493914, Note_on_c, 0, 74, 0
1, 493914, Note_on_c, 0, 69, 0
1, 493920, Note_on_c, 0, 54, 0
1, 493920, Note_on_c, 0, 60, 0
1, 493920, Note_on_c, 0, 62, 0
1, 493920, Note_on_c, 0, 70, 75
1, 493920, Note_on_c, 0, 74, 90
1, 493920, Note_on_c, 0, 50, 61
1, 493920, Note_on_c, 0, 54, 61
1, 493920, Note_on_c, 0, 60, 73
1, 493960, Tempo, 618557
1, 494020, Note_on_c, 0, 74, 0
1, 494020, Note_on_c, 0, 70, 0
1, 494040, Tempo, 621762
1, 494040, Note_on_c, 0, 69, 75
1, 494040, Note_on_c, 0, 74, 90
1, 494120, Tempo, 625000
1, 494140, Note_on_c, 0, 74, 0
1, 494140, Note_on_c, 0, 69, 0
1, 494160, Tempo, 628272
1, 494160, Note_on_c, 0, 72, 77
1, 494160, Note_on_c, 0, 74, 91
1, 494240, Tempo, 631579
1, 494260, Note_on_c, 0, 74, 0
1, 494260, Note_on_c, 0, 72, 0
1, 494280, Note_on_c, 0, 74, 91
1, 494280, Note_on_c, 0, 70, 77
1, 494320, Tempo, 634921
1, 494360, Tempo, 638298
1, 494380, Note_on_c, 0, 70, 0
1, 494380, Note_on_c, 0, 74, 0
1, 494400, Time_signature, 4, 3, 12, 8
1, 494400, Tempo, 503990
1, 494400, Note_on_c, 0, 60, 0
1, 494400, Note_on_c, 0, 50, 0
1, 494400, Note_on_c, 0, 54, 0
1, 494400, Note_on_c, 0, 67, 85
1, 494400, Note_on_c, 0, 74, 91
1, 494400, Note_on_c, 0, 43, 73
1, 494400, Note_on_c, 0, 31, 73
1, 494457, Control_c, 0, 64, 127
1, 494500, Note_on_c, 0, 74, 0
1, 494500, Note_on_c, 0, 67, 0
1, 494640, Tempo, 483014
1, 494640, Note_on_c, 0, 43, 0
1, 494640, Note_on_c, 0, 31, 0
1, 494640, Note_on_c, 0, 86, 73
1, 494640, Note_on_c, 0, 91, 73
1, 494640, Note_on_c, 0, 94, 87
1, 494740, Note_on_c, 0, 94, 0
1, 494740, Note_on_c, 0, 91, 0
1, 494740, Note_on_c, 0, 86, 0
1, 494760, Note_on_c, 0, 81, 76
1, 494860, Note_on_c, 0, 81, 0
1, 494880, Note_on_c, 0, 62, 55
1, 494880, Note_on_c, 0, 67, 66
1, 494880, Note_on_c, 0, 58, 55
1, 495000, Tempo, 487805
1, 495000, Note_on_c, 0, 86, 67
1, 495000, Note_on_c, 0, 91, 79
1, 495000, Note_on_c, 0, 82, 67
1, 495100, Note_on_c, 0, 82, 0
1, 495100, Note_on_c, 0, 86, 0
1, 495100, Note_on_c, 0, 91, 0
1, 495120, Tempo, 481928
1, 495120, Note_on_c, 0, 62, 0
1, 495120, Note_on_c, 0, 58, 0
1, 495120, Note_on_c, 0, 67, 0
1, 495120, Note_on_c, 0, 91, 87
1, 495120, Note_on_c, 0, 86, 73
1, 495120, Note_on_c, 0, 82, 73
1, 495120, Note_on_c, 0, 46, 53
1, 495220, Note_on_c, 0, 82, 0
1, 495220, Note_on_c, 0, 91, 0
1, 495220, Note_on_c, 0, 86, 0
1, 495240, Note_on_c, 0, 46, 0
1, 495240, Note_on_c, 0, 78, 75
1, 495250, Control_c, 0, 64, 0
1, 495340, Note_on_c, 0, 78, 0
1, 495360, Note_on_c, 0, 67, 64
1, 495360, Note_on_c, 0, 58, 53
1, 495360, Note_on_c, 0, 62, 53
1, 495366, Control_c, 0, 64, 127
1, 495480, Tempo, 491803
1, 495480, Note_on_c, 0, 79, 67
1, 495480, Note_on_c, 0, 82, 67
1, 495480, Note_on_c, 0, 86, 79
1, 495580, Note_on_c, 0, 86, 0
1, 495580, Note_on_c, 0, 79, 0
1, 495580, Note_on_c, 0, 82, 0
1, 495600, Tempo, 481928
1, 495600, Note_on_c, 0, 67, 0
1, 495600, Note_on_c, 0, 62, 0
1, 495600, Note_on_c, 0, 58, 0
1, 495600, Note_on_c, 0, 82, 73
1, 495600, Note_on_c, 0, 79, 73
1, 495600, Note_on_c, 0, 86, 87
1, 495600, Note_on_c, 0, 50, 57
1, 495700, Note_on_c, 0, 86, 0
1, 495700, Note_on_c, 0, 82, 0
1, 495700, Note_on_c, 0, 79, 0
1, 495720, Note_on_c, 0, 50, 0
1, 495720, Note_on_c, 0, 73, 78
1, 495730, Control_c, 0, 64, 0
1, 495820, Note_on_c, 0, 73, 0
1, 495840, Note_on_c, 0, 67, 64
1, 495840, Note_on_c, 0, 62, 53
1, 495840, Note_on_c, 0, 58, 53
1, 495886, Control_c, 0, 64, 127
1, 495960, Note_on_c, 0, 82, 78
1, 495960, Note_on_c, 0, 79, 66
1, 495960, Note_on_c, 0, 74, 66
1, 495980, Tempo, 489796
1, 496060, Note_on_c, 0, 74, 0
1, 496060, Note_on_c, 0, 82, 0
1, 496060, Note_on_c, 0, 79, 0
1, 496080, Tempo, 481928
1, 496080, Note_on_c, 0, 67, 0
1, 496080, Note_on_c, 0, 58, 0
1, 496080, Note_on_c, 0, 62, 0
1, 496080, Note_on_c, 0, 74, 73
1, 496080, Note_on_c, 0, 79, 73
1, 496080, Note_on_c, 0, 82, 87
1, 496080, Note_on_c, 0, 55, 54
1, 496180, Note_on_c, 0, 82, 0
1, 496180, Note_on_c, 0, 74, 0
1, 496180, Note_on_c, 0, 79, 0
1, 496200, Note_on_c, 0, 55, 0
1, 496200, Note_on_c, 0, 70, 75
1, 496210, Control_c, 0, 64, 0
1, 496300, Note_on_c, 0, 70, 0
1, 496320, Note_on_c, 0, 63, 53
1, 496320, Note_on_c, 0, 60, 53
1, 496320, Note_on_c, 0, 57, 53
1, 496320, Note_on_c, 0, 67, 64
1, 496337, Control_c, 0, 64, 127
1, 496440, Tempo, 487805
1, 496440, Note_on_c, 0, 84, 78
1, 496440, Note_on_c, 0, 79, 66
1, 496440, Note_on_c, 0, 75, 66
1, 496540, Note_on_c, 0, 75, 0
1, 496540, Note_on_c, 0, 84, 0
1, 496540, Note_on_c, 0, 79, 0
1, 496560, Tempo, 481928
1, 496560, Note_on_c, 0, 57, 0
1, 496560, Note_on_c, 0, 63, 0
1, 496560, Note_on_c, 0, 60, 0
1, 496560, Note_on_c, 0, 67, 0
1, 496560, Note_on_c, 0, 84, 87
1, 496560, Note_on_c, 0, 79, 73
1, 496560, Note_on_c, 0, 75, 73
1, 496560, Note_on_c, 0, 45, 55
1, 496660, Note_on_c, 0, 75, 0
1, 496660, Note_on_c, 0, 84, 0
1, 496660, Note_on_c, 0, 79, 0
1, 496680, Note_on_c, 0, 45, 0
1, 496680, Note_on_c, 0, 74, 75
1, 496687, Control_c, 0, 64, 0
1, 496780, Note_on_c, 0, 74, 0
1, 496800, Note_on_c, 0, 73, 75
1, 496800, Note_on_c, 0, 60, 53
1, 496800, Note_on_c, 0, 67, 64
1, 496800, Note_on_c, 0, 63, 53
1, 496823, Control_c, 0, 64, 127
1, 496900, Note_on_c, 0, 73, 0
1, 496920, Tempo, 487805
1, 496920, Note_on_c, 0, 72, 75
1, 497020, Note_on_c, 0, 72, 0
1, 497040, Tempo, 481928
1, 497040, Note_on_c, 0, 63, 0
1, 497040, Note_on_c, 0, 67, 0
1, 497040, Note_on_c, 0, 60, 0
1, 497040, Note_on_c, 0, 79, 73
1, 497040, Note_on_c, 0, 84, 87
1, 497040, Note_on_c, 0, 75, 73
1, 497040, Note_on_c, 0, 57, 55
1, 497140, Note_on_c, 0, 75, 0
1, 497140, Note_on_c, 0, 79, 0
1, 497140, Note_on_c, 0, 84, 0
1, 497160, Note_on_c, 0, 57, 0
1, 497160, Note_on_c, 0, 74, 74
1, 497170, Control_c, 0, 64, 0
1, 497260, Note_on_c, 0, 74, 0
1, 497280, Tempo, 481039
1, 497280, Note_on_c, 0, 73, 76
1, 497280, Note_on_c, 0, 66, 64
1, 497280, Note_on_c, 0, 62, 53
1, 497280, Note_on_c, 0, 60, 53
1, 497297, Control_c, 0, 64, 127
1, 497380, Tempo, 483014
1, 497380, Note_on_c, 0, 73, 0
1, 497400, Note_on_c, 0, 72, 76
1, 497480, Tempo, 485044
1, 497500, Note_on_c, 0, 72, 0
1, 497520, Note_on_c, 0, 60, 0
1, 497520, Note_on_c, 0, 62, 0
1, 497520, Note_on_c, 0, 66, 0
1, 497520, Note_on_c, 0, 75, 73
1, 497520, Note_on_c, 0, 78, 73
1, 497520, Note_on_c, 0, 84, 87
1, 497520, Note_on_c, 0, 50, 56
1, 497580, Tempo, 487092
1, 497620, Note_on_c, 0, 84, 0
1, 497620, Note_on_c, 0, 75, 0
1, 497620, Note_on_c, 0, 78, 0
1, 497640, Note_on_c, 0, 50, 0
1, 497640, Note_on_c, 0, 74, 76
1, 497644, Control_c, 0, 64, 0
1, 497680, Tempo, 489157
1, 497740, Note_on_c, 0, 74, 0
1, 497760, Note_on_c, 0, 73, 76
1, 497760, Note_on_c, 0, 60, 53
1, 497760, Note_on_c, 0, 66, 63
1, 497760, Note_on_c, 0, 62, 53
1, 497780, Tempo, 491159
1, 497781, Control_c, 0, 64, 127
1, 497860, Note_on_c, 0, 73, 0
1, 497880, Tempo, 493259
1, 497880, Note_on_c, 0, 72, 76
1, 497980, Tempo, 495417
1, 497980, Note_on_c, 0, 72, 0
1, 498000, Note_on_c, 0, 62, 0
1, 498000, Note_on_c, 0, 66, 0
1, 498000, Note_on_c, 0, 60, 0
1, 498000, Note_on_c, 0, 74, 73
1, 498000, Note_on_c, 0, 78, 73
1, 498000, Note_on_c, 0, 81, 87
1, 498000, Note_on_c, 0, 57, 56
1, 498080, Tempo, 497471
1, 498100, Note_on_c, 0, 81, 0
1, 498100, Note_on_c, 0, 74, 0
1, 498100, Note_on_c, 0, 78, 0
1, 498120, Note_on_c, 0, 57, 0
1, 498120, Note_on_c, 0, 72, 76
1, 498132, Control_c, 0, 64, 0
1, 498180, Tempo, 499584
1, 498220, Note_on_c, 0, 72, 0
1, 498240, Tempo, 506116
1, 498240, Note_on_c, 0, 79, 73
1, 498240, Note_on_c, 0, 82, 87
1, 498240, Note_on_c, 0, 70, 73
1, 498240, Note_on_c, 0, 74, 73
1, 498240, Note_on_c, 0, 55, 55
1, 498240, Note_on_c, 0, 62, 55
1, 498240, Note_on_c, 0, 67, 66
1, 498297, Control_c, 0, 64, 127
1, 498480, Tempo, 487092
1, 498480, Note_on_c, 0, 67, 0
1, 498480, Note_on_c, 0, 55, 0
1, 498480, Note_on_c, 0, 82, 0
1, 498480, Note_on_c, 0, 70, 0
1, 498480, Note_on_c, 0, 79, 0
1, 498480, Note_on_c, 0, 62, 0
1, 498480, Note_on_c, 0, 74, 0
1, 498480, Note_on_c, 0, 86, 73
1, 498480, Note_on_c, 0, 94, 87
1, 498480, Note_on_c, 0, 91, 73
1, 498480, Note_on_c, 0, 43, 53
1, 498580, Note_on_c, 0, 91, 0
1, 498580, Note_on_c, 0, 86, 0
1, 498580, Note_on_c, 0, 94, 0
1, 498600, Note_on_c, 0, 43, 0
1, 498600, Note_on_c, 0, 81, 76
1, 498700, Note_on_c, 0, 81, 0
1, 498720, Note_on_c, 0, 62, 55
1, 498720, Note_on_c, 0, 67, 66
1, 498720, Note_on_c, 0, 58, 55
1, 498840, Tempo, 493827
1, 498840, Note_on_c, 0, 82, 67
1, 498840, Note_on_c, 0, 91, 79
1, 498840, Note_on_c, 0, 86, 67
1, 498940, Note_on_c, 0, 86, 0
1, 498940, Note_on_c, 0, 82, 0
1, 498940, Note_on_c, 0, 91, 0
1, 498960, Tempo, 485830
1, 498960, Note_on_c, 0, 62, 0
1, 498960, Note_on_c, 0, 58, 0
1, 498960, Note_on_c, 0, 67, 0
1, 498960, Note_on_c, 0, 91, 87
1, 498960, Note_on_c, 0, 82, 73
1, 498960, Note_on_c, 0, 86, 73
1, 498960, Note_on_c, 0, 46, 53
1, 499060, Note_on_c, 0, 86, 0
1, 499060, Note_on_c, 0, 91, 0
1, 499060, Note_on_c, 0, 82, 0
1, 499080, Note_on_c, 0, 46, 0
1, 499080, Note_on_c, 0, 78, 75
1, 499090, Control_c, 0, 64, 0
1, 499180, Note_on_c, 0, 78, 0
1, 499200, Note_on_c, 0, 58, 53
1, 499200, Note_on_c, 0, 67, 64
1, 499200, Note_on_c, 0, 62, 53
1, 499234, Control_c, 0, 64, 127
1, 499320, Tempo, 491803
1, 499320, Note_on_c, 0, 79, 67
1, 499320, Note_on_c, 0, 82, 67
1, 499320, Note_on_c, 0, 86, 79
1, 499420, Note_on_c, 0, 86, 0
1, 499420, Note_on_c, 0, 79, 0
1, 499420, Note_on_c, 0, 82, 0
1, 499440, Tempo, 485830
1, 499440, Note_on_c, 0, 58, 0
1, 499440, Note_on_c, 0, 62, 0
1, 499440, Note_on_c, 0, 67, 0
1, 499440, Note_on_c, 0, 79, 73
1, 499440, Note_on_c, 0, 82, 73
1, 499440, Note_on_c, 0, 86, 87
1, 499440, Note_on_c, 0, 50, 57
1, 499540, Note_on_c, 0, 86, 0
1, 499540, Note_on_c, 0, 79, 0
1, 499540, Note_on_c, 0, 82, 0
1, 499560, Note_on_c, 0, 50, 0
1, 499560, Note_on_c, 0, 73, 78
1, 499568, Control_c, 0, 64, 0
1, 499660, Note_on_c, 0, 73, 0
1, 499680, Note_on_c, 0, 67, 64
1, 499680, Note_on_c, 0, 62, 53
1, 499680, Note_on_c, 0, 58, 53
1, 499726, Control_c, 0, 64, 127
1, 499800, Tempo, 495868
1, 499800, Note_on_c, 0, 82, 78
1, 499800, Note_on_c, 0, 79, 66
1, 499800, Note_on_c, 0, 74, 66
1, 499900, Note_on_c, 0, 74, 0
1, 499900, Note_on_c, 0, 82, 0
1, 499900, Note_on_c, 0, 79, 0
1, 499920, Tempo, 485830
1, 499920, Note_on_c, 0, 67, 0
1, 499920, Note_on_c, 0, 58, 0
1, 499920, Note_on_c, 0, 62, 0
1, 499920, Note_on_c, 0, 74, 73
1, 499920, Note_on_c, 0, 79, 73
1, 499920, Note_on_c, 0, 82, 87
1, 499920, Note_on_c, 0, 55, 54
1, 500020, Note_on_c, 0, 82, 0
1, 500020, Note_on_c, 0, 74, 0
1, 500020, Note_on_c, 0, 79, 0
1, 500040, Note_on_c, 0, 55, 0
1, 500040, Note_on_c, 0, 70, 75
1, 500045, Control_c, 0, 64, 0
1, 500140, Note_on_c, 0, 70, 0
1, 500160, Note_on_c, 0, 63, 53
1, 500160, Note_on_c, 0, 60, 53
1, 500160, Note_on_c, 0, 57, 53
1, 500160, Note_on_c, 0, 67, 64
1, 500177, Control_c, 0, 64, 127
1, 500280, Tempo, 495868
1, 500280, Note_on_c, 0, 79, 66
1, 500280, Note_on_c, 0, 75, 66
1, 500280, Note_on_c, 0, 84, 78
1, 500380, Note_on_c, 0, 84, 0
1, 500380, Note_on_c, 0, 79, 0
1, 500380, Note_on_c, 0, 75, 0
1, 500400, Tempo, 487092
1, 500400, Note_on_c, 0, 57, 0
1, 500400, Note_on_c, 0, 63, 0
1, 500400, Note_on_c, 0, 60, 0
1, 500400, Note_on_c, 0, 67, 0
1, 500400, Note_on_c, 0, 84, 87
1, 500400, Note_on_c, 0, 79, 73
1, 500400, Note_on_c, 0, 75, 73
1, 500400, Note_on_c, 0, 45, 55
1, 500500, Note_on_c, 0, 75, 0
1, 500500, Note_on_c, 0, 84, 0
1, 500500, Note_on_c, 0, 79, 0
1, 500520, Note_on_c, 0, 45, 0
1, 500520, Note_on_c, 0, 74, 75
1, 500527, Control_c, 0, 64, 0
1, 500620, Note_on_c, 0, 74, 0
1, 500640, Note_on_c, 0, 73, 75
1, 500640, Note_on_c, 0, 67, 64
1, 500640, Note_on_c, 0, 63, 53
1, 500640, Note_on_c, 0, 60, 53
1, 500663, Control_c, 0, 64, 127
1, 500740, Note_on_c, 0, 73, 0
1, 500760, Note_on_c, 0, 72, 75
1, 500860, Note_on_c, 0, 72, 0
1, 500880, Note_on_c, 0, 60, 0
1, 500880, Note_on_c, 0, 63, 0
1, 500880, Note_on_c, 0, 67, 0
1, 500880, Note_on_c, 0, 75, 73
1, 500880, Note_on_c, 0, 79, 73
1, 500880, Note_on_c, 0, 84, 87
1, 500880, Note_on_c, 0, 57, 55
1, 500980, Note_on_c, 0, 84, 0
1, 500980, Note_on_c, 0, 75, 0
1, 500980, Note_on_c, 0, 79, 0
1, 501000, Note_on_c, 0, 57, 0
1, 501000, Note_on_c, 0, 74, 74
1, 501012, Control_c, 0, 64, 0
1, 501100, Note_on_c, 0, 74, 0
1, 501120, Note_on_c, 0, 73, 76
1, 501120, Note_on_c, 0, 62, 53
1, 501120, Note_on_c, 0, 66, 64
1, 501120, Note_on_c, 0, 60, 53
1, 501137, Control_c, 0, 64, 127
1, 501220, Note_on_c, 0, 73, 0
1, 501240, Note_on_c, 0, 72, 76
1, 501340, Note_on_c, 0, 72, 0
1, 501360, Note_on_c, 0, 60, 0
1, 501360, Note_on_c, 0, 66, 0
1, 501360, Note_on_c, 0, 62, 0
1, 501360, Note_on_c, 0, 84, 87
1, 501360, Note_on_c, 0, 78, 73
1, 501360, Note_on_c, 0, 75, 73
1, 501360, Note_on_c, 0, 50, 56
1, 501380, Tempo, 487092
1, 501440, Tempo, 489157
1, 501460, Note_on_c, 0, 75, 0
1, 501460, Note_on_c, 0, 84, 0
1, 501460, Note_on_c, 0, 78, 0
1, 501480, Note_on_c, 0, 50, 0
1, 501480, Note_on_c, 0, 74, 76
1, 501485, Control_c, 0, 64, 0
1, 501500, Tempo, 491159
1, 501560, Tempo, 493259
1, 501580, Note_on_c, 0, 74, 0
1, 501600, Tempo, 495417
1, 501600, Note_on_c, 0, 73, 76
1, 501600, Note_on_c, 0, 62, 53
1, 501600, Note_on_c, 0, 60, 53
1, 501600, Note_on_c, 0, 66, 63
1, 501621, Control_c, 0, 64, 127
1, 501660, Tempo, 497471
1, 501700, Note_on_c, 0, 73, 0
1, 501720, Tempo, 499584
1, 501720, Note_on_c, 0, 72, 76
1, 501760, Tempo, 501756
1, 501820, Tempo, 503990
1, 501820, Note_on_c, 0, 72, 0
1, 501840, Note_on_c, 0, 66, 0
1, 501840, Note_on_c, 0, 60, 0
1, 501840, Note_on_c, 0, 62, 0
1, 501840, Note_on_c, 0, 81, 87
1, 501840, Note_on_c, 0, 78, 73
1, 501840, Note_on_c, 0, 74, 73
1, 501840, Note_on_c, 0, 57, 56
1, 501880, Tempo, 506116
1, 501920, Tempo, 508345
1, 501940, Note_on_c, 0, 74, 0
1, 501940, Note_on_c, 0, 81, 0
1, 501940, Note_on_c, 0, 78, 0
1, 501960, Note_on_c, 0, 57, 0
1, 501960, Note_on_c, 0, 72, 76
1, 501965, Control_c, 0, 64, 0
1, 501980, Tempo, 510595
1, 502040, Tempo, 512864
1, 502060, Note_on_c, 0, 72, 0
1, 502080, Tempo, 563380
1, 502080, Note_on_c, 0, 74, 73
1, 502080, Note_on_c, 0, 70, 73
1, 502080, Note_on_c, 0, 79, 73
1, 502080, Note_on_c, 0, 82, 87
1, 502080, Note_on_c, 0, 62, 53
1, 502080, Note_on_c, 0, 55, 53
1, 502080, Note_on_c, 0, 67, 63
1, 502320, Tempo, 495417
1, 502320, Note_on_c, 0, 67, 0
1, 502320, Note_on_c, 0, 62, 0
1, 502320, Note_on_c, 0, 70, 0
1, 502320, Note_on_c, 0, 79, 0
1, 502320, Note_on_c, 0, 74, 0
1, 502320, Note_on_c, 0, 55, 0
1, 502320, Note_on_c, 0, 82, 0
1, 502320, Note_on_c, 0, 80, 70
1, 502320, Control_c, 0, 64, 127
1, 502320, Note_on_c, 0, 48, 65
1, 502440, Note_on_c, 0, 80, 0
1, 502440, Note_on_c, 0, 92, 72
1, 502440, Note_on_c, 0, 87, 60
1, 502560, Note_on_c, 0, 87, 0
1, 502560, Note_on_c, 0, 92, 0
1, 502560, Note_on_c, 0, 80, 72
1, 502680, Note_on_c, 0, 80, 0
1, 502680, Note_on_c, 0, 75, 63
1, 502680, Note_on_c, 0, 80, 75
1, 502800, Note_on_c, 0, 80, 0
1, 502800, Note_on_c, 0, 75, 0
1, 502800, Note_on_c, 0, 67, 77
1, 502800, Note_on_c, 0, 56, 47
1, 502800, Note_on_c, 0, 63, 56
1, 502812, Control_c, 0, 64, 0
1, 502920, Note_on_c, 0, 79, 77
1, 502920, Note_on_c, 0, 75, 65
1, 503040, Tempo, 483014
1, 503040, Note_on_c, 0, 75, 0
1, 503040, Note_on_c, 0, 67, 0
1, 503040, Note_on_c, 0, 56, 0
1, 503040, Note_on_c, 0, 48, 0
1, 503040, Note_on_c, 0, 79, 0
1, 503040, Note_on_c, 0, 63, 0
1, 503040, Note_on_c, 0, 66, 87
1, 503040, Note_on_c, 0, 50, 63
1, 503097, Control_c, 0, 64, 127
1, 503160, Note_on_c, 0, 50, 0
1, 503160, Note_on_c, 0, 69, 65
1, 503160, Note_on_c, 0, 78, 77
1, 503280, Note_on_c, 0, 78, 0
1, 503280, Note_on_c, 0, 69, 0
1, 503280, Note_on_c, 0, 66, 0
1, 503280, Note_on_c, 0, 78, 77
1, 503280, Note_on_c, 0, 57, 48
1, 503280, Note_on_c, 0, 62, 57
1, 503280, Note_on_c, 0, 60, 48
1, 503400, Note_on_c, 0, 78, 0
1, 503400, Note_on_c, 0, 90, 77
1, 503400, Note_on_c, 0, 81, 65
1, 503520, Note_on_c, 0, 81, 0
1, 503520, Note_on_c, 0, 57, 0
1, 503520, Note_on_c, 0, 60, 0
1, 503520, Note_on_c, 0, 62, 0
1, 503520, Note_on_c, 0, 90, 0
1, 503520, Note_on_c, 0, 79, 87
1, 503520, Note_on_c, 0, 43, 63
1, 503535, Control_c, 0, 64, 0
1, 503600, Control_c, 0, 64, 127
1, 503640, Note_on_c, 0, 43, 0
1, 503640, Note_on_c, 0, 91, 75
1, 503640, Note_on_c, 0, 82, 64
1, 503760, Tempo, 550459
1, 503760, Note_on_c, 0, 82, 0
1, 503760, Note_on_c, 0, 91, 0
1, 503760, Note_on_c, 0, 79, 0
1, 503760, Note_on_c, 0, 79, 75
1, 503760, Note_on_c, 0, 58, 47
1, 503760, Note_on_c, 0, 55, 47
1, 503760, Note_on_c, 0, 62, 55
1, 503880, Note_on_c, 0, 79, 0
1, 503880, Note_on_c, 0, 70, 64
1, 503880, Note_on_c, 0, 79, 75
1, 504000, Tempo, 502092
1, 504000, Note_on_c, 0, 79, 0
1, 504000, Note_on_c, 0, 58, 0
1, 504000, Note_on_c, 0, 62, 0
1, 504000, Note_on_c, 0, 55, 0
1, 504000, Note_on_c, 0, 70, 0
1, 504000, Note_on_c, 0, 68, 77
1, 504000, Note_on_c, 0, 48, 65
1, 504000, Control_c, 0, 64, 0
1, 504057, Control_c, 0, 64, 127
1, 504120, Note_on_c, 0, 80, 72
1, 504120, Note_on_c, 0, 75, 60
1, 504240, Tempo, 497471
1, 504240, Note_on_c, 0, 75, 0
1, 504240, Note_on_c, 0, 80, 0
1, 504240, Note_on_c, 0, 68, 0
1, 504240, Note_on_c, 0, 80, 74
1, 504240, Note_on_c, 0, 63, 53
1, 504240, Note_on_c, 0, 56, 44
1, 504360, Note_on_c, 0, 87, 65
1, 504360, Note_on_c, 0, 92, 76
1, 504480, Note_on_c, 0, 92, 0
1, 504480, Note_on_c, 0, 80, 0
1, 504480, Note_on_c, 0, 87, 0
1, 504480, Note_on_c, 0, 80, 76
1, 504600, Note_on_c, 0, 80, 0
1, 504600, Note_on_c, 0, 80, 78
1, 504600, Note_on_c, 0, 75, 65
1, 504720, Note_on_c, 0, 75, 0
1, 504720, Note_on_c, 0, 63, 0
1, 504720, Note_on_c, 0, 80, 0
1, 504720, Note_on_c, 0, 56, 0
1, 504720, Note_on_c, 0, 67, 77
1, 504720, Note_on_c, 0, 56, 47
1, 504720, Note_on_c, 0, 63, 56
1, 504734, Control_c, 0, 64, 0
1, 504840, Note_on_c, 0, 79, 77
1, 504840, Note_on_c, 0, 75, 65
1, 504960, Tempo, 485044
1, 504960, Note_on_c, 0, 75, 0
1, 504960, Note_on_c, 0, 67, 0
1, 504960, Note_on_c, 0, 56, 0
1, 504960, Note_on_c, 0, 48, 0
1, 504960, Note_on_c, 0, 79, 0
1, 504960, Note_on_c, 0, 63, 0
1, 504960, Note_on_c, 0, 66, 87
1, 504960, Note_on_c, 0, 50, 63
1, 505011, Control_c, 0, 64, 127
1, 505080, Note_on_c, 0, 50, 0
1, 505080, Note_on_c, 0, 78, 77
1, 505080, Note_on_c, 0, 69, 65
1, 505200, Note_on_c, 0, 69, 0
1, 505200, Note_on_c, 0, 78, 0
1, 505200, Note_on_c, 0, 66, 0
1, 505200, Note_on_c, 0, 78, 77
1, 505200, Note_on_c, 0, 62, 57
1, 505200, Note_on_c, 0, 60, 48
1, 505200, Note_on_c, 0, 57, 48
1, 505320, Note_on_c, 0, 78, 0
1, 505320, Note_on_c, 0, 81, 65
1, 505320, Note_on_c, 0, 90, 77
1, 505440, Note_on_c, 0, 90, 0
1, 505440, Note_on_c, 0, 62, 0
1, 505440, Note_on_c, 0, 57, 0
1, 505440, Note_on_c, 0, 60, 0
1, 505440, Note_on_c, 0, 81, 0
1, 505440, Note_on_c, 0, 79, 87
1, 505440, Note_on_c, 0, 43, 63
1, 505456, Control_c, 0, 64, 0
1, 505549, Control_c, 0, 64, 127
1, 505560, Note_on_c, 0, 43, 0
1, 505560, Note_on_c, 0, 91, 75
1, 505560, Note_on_c, 0, 82, 64
1, 505680, Tempo, 506116
1, 505680, Note_on_c, 0, 82, 0
1, 505680, Note_on_c, 0, 91, 0
1, 505680, Note_on_c, 0, 79, 0
1, 505680, Note_on_c, 0, 79, 75
1, 505680, Note_on_c, 0, 58, 47
1, 505680, Note_on_c, 0, 55, 47
1, 505680, Note_on_c, 0, 62, 55
1, 505800, Note_on_c, 0, 79, 0
1, 505800, Note_on_c, 0, 70, 64
1, 505800, Note_on_c, 0, 79, 75
1, 505920, Note_on_c, 0, 79, 0
1, 505920, Note_on_c, 0, 58, 0
1, 505920, Note_on_c, 0, 62, 0
1, 505920, Note_on_c, 0, 55, 0
1, 505920, Note_on_c, 0, 70, 0
1, 505920, Note_on_c, 0, 65, 77
1, 505920, Note_on_c, 0, 47, 65
1, 505927, Control_c, 0, 64, 0
1, 505977, Control_c, 0, 64, 127
1, 506040, Note_on_c, 0, 47, 0
1, 506040, Note_on_c, 0, 77, 71
1, 506040, Note_on_c, 0, 68, 59
1, 506060, Tempo, 487092
1, 506160, Note_on_c, 0, 68, 0
1, 506160, Note_on_c, 0, 77, 0
1, 506160, Note_on_c, 0, 65, 0
1, 506160, Note_on_c, 0, 77, 70
1, 506160, Note_on_c, 0, 56, 43
1, 506160, Note_on_c, 0, 53, 43
1, 506160, Note_on_c, 0, 62, 51
1, 506280, Note_on_c, 0, 77, 0
1, 506280, Note_on_c, 0, 80, 59
1, 506280, Note_on_c, 0, 89, 71
1, 506400, Note_on_c, 0, 89, 0
1, 506400, Note_on_c, 0, 56, 0
1, 506400, Note_on_c, 0, 62, 0
1, 506400, Note_on_c, 0, 53, 0
1, 506400, Note_on_c, 0, 80, 0
1, 506400, Note_on_c, 0, 77, 68
1, 506400, Note_on_c, 0, 48, 60
1, 506411, Control_c, 0, 64, 0
1, 506463, Control_c, 0, 64, 127
1, 506520, Note_on_c, 0, 77, 0
1, 506520, Note_on_c, 0, 68, 66
1, 506520, Note_on_c, 0, 75, 77
1, 506640, Note_on_c, 0, 75, 0
1, 506640, Note_on_c, 0, 68, 0
1, 506640, Note_on_c, 0, 63, 69
1, 506640, Note_on_c, 0, 56, 42
1, 506640, Note_on_c, 0, 51, 42
1, 506640, Note_on_c, 0, 60, 50
1, 506760, Note_on_c, 0, 68, 57
1, 506760, Note_on_c, 0, 75, 69
1, 506880, Note_on_c, 0, 75, 0
1, 506880, Note_on_c, 0, 60, 0
1, 506880, Note_on_c, 0, 63, 0
1, 506880, Note_on_c, 0, 56, 0
1, 506880, Note_on_c, 0, 48, 0
1, 506880, Note_on_c, 0, 68, 0
1, 506880, Note_on_c, 0, 51, 0
1, 506880, Note_on_c, 0, 62, 77
1, 506880, Note_on_c, 0, 50, 56
1, 506886, Control_c, 0, 64, 0
1, 506983, Control_c, 0, 64, 127
1, 507000, Note_on_c, 0, 68, 57
1, 507000, Note_on_c, 0, 74, 69
1, 507120, Note_on_c, 0, 74, 0
1, 507120, Note_on_c, 0, 68, 0
1, 507120, Note_on_c, 0, 62, 0
1, 507120, Note_on_c, 0, 74, 69
1, 507120, Note_on_c, 0, 56, 43
1, 507120, Note_on_c, 0, 53, 43
1, 507120, Note_on_c, 0, 59, 51
1, 507240, Note_on_c, 0, 74, 0
1, 507240, Note_on_c, 0, 86, 69
1, 507240, Note_on_c, 0, 80, 57
1, 507360, Note_on_c, 0, 80, 0
1, 507360, Note_on_c, 0, 56, 0
1, 507360, Note_on_c, 0, 59, 0
1, 507360, Note_on_c, 0, 50, 0
1, 507360, Note_on_c, 0, 86, 0
1, 507360, Note_on_c, 0, 53, 0
1, 507360, Note_on_c, 0, 74, 77
1, 507360, Note_on_c, 0, 51, 56
1, 507376, Control_c, 0, 64, 0
1, 507480, Note_on_c, 0, 74, 0
1, 507480, Note_on_c, 0, 72, 67
1, 507480, Note_on_c, 0, 68, 56
1, 507497, Control_c, 0, 64, 127
1, 507600, Note_on_c, 0, 68, 0
1, 507600, Note_on_c, 0, 72, 0
1, 507600, Note_on_c, 0, 60, 67
1, 507600, Note_on_c, 0, 56, 49
1, 507720, Tempo, 515110
1, 507720, Note_on_c, 0, 60, 0
1, 507720, Note_on_c, 0, 68, 56
1, 507720, Note_on_c, 0, 72, 67
1, 507840, Tempo, 487092
1, 507840, Note_on_c, 0, 72, 0
1, 507840, Note_on_c, 0, 51, 0
1, 507840, Note_on_c, 0, 56, 0
1, 507840, Note_on_c, 0, 68, 0
1, 507840, Note_on_c, 0, 60, 77
1, 507840, Control_c, 0, 64, 0
1, 507840, Note_on_c, 0, 42, 56
1, 507891, Control_c, 0, 64, 127
1, 507960, Note_on_c, 0, 42, 0
1, 507960, Note_on_c, 0, 72, 69
1, 507960, Note_on_c, 0, 63, 57
1, 508080, Note_on_c, 0, 63, 0
1, 508080, Note_on_c, 0, 72, 0
1, 508080, Note_on_c, 0, 60, 0
1, 508080, Note_on_c, 0, 72, 69
1, 508080, Note_on_c, 0, 60, 43
1, 508080, Note_on_c, 0, 54, 43
1, 508080, Note_on_c, 0, 63, 51
1, 508200, Note_on_c, 0, 84, 69
1, 508200, Note_on_c, 0, 75, 57
1, 508320, Note_on_c, 0, 75, 0
1, 508320, Note_on_c, 0, 60, 0
1, 508320, Note_on_c, 0, 54, 0
1, 508320, Note_on_c, 0, 72, 0
1, 508320, Note_on_c, 0, 84, 0
1, 508320, Note_on_c, 0, 63, 0
1, 508320, Note_on_c, 0, 72, 77
1, 508320, Note_on_c, 0, 55, 43
1, 508320, Note_on_c, 0, 62, 53
1, 508320, Note_on_c, 0, 58, 43
1, 508335, Control_c, 0, 64, 0
1, 508440, Note_on_c, 0, 75, 56
1, 508440, Note_on_c, 0, 84, 67
1, 508560, Note_on_c, 0, 84, 0
1, 508560, Note_on_c, 0, 55, 0
1, 508560, Note_on_c, 0, 62, 0
1, 508560, Note_on_c, 0, 72, 0
1, 508560, Note_on_c, 0, 75, 0
1, 508560, Note_on_c, 0, 58, 0
1, 508560, Note_on_c, 0, 70, 67
1, 508560, Note_on_c, 0, 43, 56
1, 508680, Note_on_c, 0, 43, 0
1, 508680, Note_on_c, 0, 74, 56
1, 508680, Note_on_c, 0, 82, 67
1, 508800, Tempo, 487092
1, 508800, Note_on_c, 0, 82, 0
1, 508800, Note_on_c, 0, 74, 0
1, 508800, Note_on_c, 0, 70, 0
1, 508800, Note_on_c, 0, 70, 77
1, 508800, Note_on_c, 0, 48, 56
1, 508800, Control_c, 0, 64, 0
1, 508851, Control_c, 0, 64, 127
1, 508920, Tempo, 489157
1, 508920, Note_on_c, 0, 48, 0
1, 508920, Note_on_c, 0, 82, 69
1, 508920, Note_on_c, 0, 74, 57
1, 509040, Tempo, 491159
1, 509040, Note_on_c, 0, 74, 0
1, 509040, Note_on_c, 0, 82, 0
1, 509040, Note_on_c, 0, 70, 0
1, 509040, Note_on_c, 0, 69, 69
1, 509040, Note_on_c, 0, 67, 51
1, 509040, Note_on_c, 0, 57, 43
1, 509040, Note_on_c, 0, 63, 43
1, 509160, Tempo, 493259
1, 509160, Note_on_c, 0, 72, 57
1, 509160, Note_on_c, 0, 81, 69
1, 509278, Note_on_c, 0, 67, 0
1, 509280, Tempo, 495417
1, 509280, Note_on_c, 0, 57, 0
1, 509280, Note_on_c, 0, 63, 0
1, 509280, Note_on_c, 0, 69, 0
1, 509280, Note_on_c, 0, 81, 0
1, 509280, Note_on_c, 0, 72, 0
1, 509280, Note_on_c, 0, 67, 77
1, 509280, Note_on_c, 0, 50, 56
1, 509309, Control_c, 0, 64, 0
1, 509400, Tempo, 497471
1, 509400, Note_on_c, 0, 79, 67
1, 509400, Note_on_c, 0, 70, 56
1, 509520, Tempo, 499584
1, 509520, Note_on_c, 0, 70, 0
1, 509520, Note_on_c, 0, 79, 0
1, 509520, Note_on_c, 0, 67, 0
1, 509520, Note_on_c, 0, 66, 67
1, 509520, Note_on_c, 0, 57, 43
1, 509520, Note_on_c, 0, 60, 43
1, 509520, Note_on_c, 0, 62, 51
1, 509640, Tempo, 501756
1, 509640, Note_on_c, 0, 69, 56
1, 509640, Note_on_c, 0, 78, 67
1, 509760, Tempo, 552995
1, 509760, Note_on_c, 0, 78, 0
1, 509760, Note_on_c, 0, 62, 0
1, 509760, Note_on_c, 0, 66, 0
1, 509760, Note_on_c, 0, 57, 0
1, 509760, Note_on_c, 0, 50, 0
1, 509760, Note_on_c, 0, 69, 0
1, 509760, Note_on_c, 0, 60, 0
1, 509760, Note_on_c, 0, 79, 87
1, 509760, Note_on_c, 0, 67, 73
1, 509760, Note_on_c, 0, 70, 73
1, 509760, Note_on_c, 0, 55, 53
1, 509760, Note_on_c, 0, 62, 63
1, 509760, Control_c, 0, 64, 0
1, 509766, Note_on_c, 0, 58, 53
1, 509811, Control_c, 0, 64, 127
1, 509880, Note_on_c, 0, 62, 0
1, 509880, Note_on_c, 0, 55, 0
1, 509880, Note_on_c, 0, 70, 0
1, 509880, Note_on_c, 0, 79, 0
1, 509880, Note_on_c, 0, 67, 0
1, 509886, Note_on_c, 0, 58, 0
1, 510000, Tempo, 495417
1, 510000, Note_on_c, 0, 80, 70
1, 510000, Note_on_c, 0, 48, 65
1, 510120, Note_on_c, 0, 92, 72
1, 510120, Note_on_c, 0, 87, 60
1, 510240, Note_on_c, 0, 87, 0
1, 510240, Note_on_c, 0, 92, 0
1, 510240, Note_on_c, 0, 80, 0
1, 510240, Note_on_c, 0, 80, 72
1, 510360, Note_on_c, 0, 80, 0
1, 510360, Note_on_c, 0, 75, 63
1, 510360, Note_on_c, 0, 80, 75
1, 510480, Note_on_c, 0, 80, 0
1, 510480, Note_on_c, 0, 75, 0
1, 510480, Note_on_c, 0, 67, 77
1, 510480, Note_on_c, 0, 56, 47
1, 510480, Note_on_c, 0, 63, 56
1, 510491, Control_c, 0, 64, 0
1, 510600, Note_on_c, 0, 75, 65
1, 510600, Note_on_c, 0, 79, 77
1, 510720, Tempo, 483014
1, 510720, Note_on_c, 0, 79, 0
1, 510720, Note_on_c, 0, 67, 0
1, 510720, Note_on_c, 0, 56, 0
1, 510720, Note_on_c, 0, 48, 0
1, 510720, Note_on_c, 0, 75, 0
1, 510720, Note_on_c, 0, 63, 0
1, 510720, Note_on_c, 0, 66, 87
1, 510720, Note_on_c, 0, 50, 63
1, 510766, Control_c, 0, 64, 127
1, 510840, Note_on_c, 0, 50, 0
1, 510840, Note_on_c, 0, 78, 77
1, 510840, Note_on_c, 0, 69, 65
1, 510960, Note_on_c, 0, 69, 0
1, 510960, Note_on_c, 0, 78, 0
1, 510960, Note_on_c, 0, 66, 0
1, 510960, Note_on_c, 0, 78, 77
1, 510960, Note_on_c, 0, 62, 57
1, 510960, Note_on_c, 0, 57, 48
1, 510960, Note_on_c, 0, 60, 48
1, 511080, Note_on_c, 0, 78, 0
1, 511080, Note_on_c, 0, 90, 77
1, 511080, Note_on_c, 0, 81, 65
1, 511200, Note_on_c, 0, 81, 0
1, 511200, Note_on_c, 0, 62, 0
1, 511200, Note_on_c, 0, 60, 0
1, 511200, Note_on_c, 0, 57, 0
1, 511200, Note_on_c, 0, 90, 0
1, 511200, Note_on_c, 0, 79, 87
1, 511200, Note_on_c, 0, 43, 63
1, 511216, Control_c, 0, 64, 0
1, 511320, Note_on_c, 0, 43, 0
1, 511320, Note_on_c, 0, 82, 64
1, 511320, Note_on_c, 0, 91, 75
1, 511326, Control_c, 0, 64, 127
1, 511440, Tempo, 540541
1, 511440, Note_on_c, 0, 91, 0
1, 511440, Note_on_c, 0, 82, 0
1, 511440, Note_on_c, 0, 79, 0
1, 511440, Note_on_c, 0, 79, 75
1, 511440, Note_on_c, 0, 58, 47
1, 511440, Note_on_c, 0, 55, 47
1, 511440, Note_on_c, 0, 62, 55
1, 511560, Note_on_c, 0, 79, 0
1, 511560, Note_on_c, 0, 70, 64
1, 511560, Note_on_c, 0, 79, 75
1, 511680, Tempo, 506329
1, 511680, Note_on_c, 0, 79, 0
1, 511680, Note_on_c, 0, 58, 0
1, 511680, Note_on_c, 0, 62, 0
1, 511680, Note_on_c, 0, 55, 0
1, 511680, Note_on_c, 0, 70, 0
1, 511680, Note_on_c, 0, 68, 77
1, 511680, Note_on_c, 0, 48, 65
1, 511680, Control_c, 0, 64, 0
1, 511772, Control_c, 0, 64, 127
1, 511800, Note_on_c, 0, 75, 60
1, 511800, Note_on_c, 0, 80, 72
1, 511920, Tempo, 497471
1, 511920, Note_on_c, 0, 80, 0
1, 511920, Note_on_c, 0, 75, 0
1, 511920, Note_on_c, 0, 68, 0
1, 511920, Note_on_c, 0, 80, 74
1, 511920, Note_on_c, 0, 56, 44
1, 511920, Note_on_c, 0, 63, 53
1, 512040, Note_on_c, 0, 92, 76
1, 512040, Note_on_c, 0, 87, 65
1, 512155, Control_c, 0, 64, 0
1, 512160, Note_on_c, 0, 87, 0
1, 512160, Note_on_c, 0, 80, 0
1, 512160, Note_on_c, 0, 92, 0
1, 512160, Note_on_c, 0, 80, 76
1, 512160, Note_on_c, 0, 50, 72
1, 512280, Note_on_c, 0, 80, 0
1, 512280, Note_on_c, 0, 75, 65
1, 512280, Note_on_c, 0, 80, 78
1, 512400, Note_on_c, 0, 80, 0
1, 512400, Note_on_c, 0, 50, 0
1, 512400, Note_on_c, 0, 75, 0
1, 512400, Note_on_c, 0, 67, 77
1, 512400, Note_on_c, 0, 51, 72
1, 512520, Note_on_c, 0, 79, 77
1, 512520, Note_on_c, 0, 72, 65
1, 512640, Tempo, 485044
1, 512640, Note_on_c, 0, 72, 0
1, 512640, Note_on_c, 0, 51, 0
1, 512640, Note_on_c, 0, 48, 0
1, 512640, Note_on_c, 0, 56, 0
1, 512640, Note_on_c, 0, 63, 0
1, 512640, Note_on_c, 0, 79, 0
1, 512640, Note_on_c, 0, 67, 0
1, 512640, Note_on_c, 0, 66, 87
1, 512640, Note_on_c, 0, 50, 63
1, 512646, Control_c, 0, 64, 0
1, 512732, Control_c, 0, 64, 127
1, 512760, Note_on_c, 0, 50, 0
1, 512760, Note_on_c, 0, 69, 65
1, 512760, Note_on_c, 0, 78, 77
1, 512880, Note_on_c, 0, 78, 0
1, 512880, Note_on_c, 0, 69, 0
1, 512880, Note_on_c, 0, 66, 0
1, 512880, Note_on_c, 0, 78, 77
1, 512880, Note_on_c, 0, 62, 57
1, 512880, Note_on_c, 0, 57, 48
1, 512880, Note_on_c, 0, 60, 48
1, 513000, Note_on_c, 0, 78, 0
1, 513000, Note_on_c, 0, 81, 65
1, 513000, Note_on_c, 0, 90, 77
1, 513120, Note_on_c, 0, 90, 0
1, 513120, Note_on_c, 0, 62, 0
1, 513120, Note_on_c, 0, 60, 0
1, 513120, Note_on_c, 0, 57, 0
1, 513120, Note_on_c, 0, 81, 0
1, 513120, Note_on_c, 0, 79, 87
1, 513120, Note_on_c, 0, 43, 63
1, 513135, Control_c, 0, 64, 0
1, 513235, Control_c, 0, 64, 127
1, 513240, Note_on_c, 0, 43, 0
1, 513240, Note_on_c, 0, 91, 75
1, 513240, Note_on_c, 0, 82, 64
1, 513360, Tempo, 506116
1, 513360, Note_on_c, 0, 82, 0
1, 513360, Note_on_c, 0, 91, 0
1, 513360, Note_on_c, 0, 79, 0
1, 513360, Note_on_c, 0, 79, 75
1, 513360, Note_on_c, 0, 62, 55
1, 513360, Note_on_c, 0, 55, 47
1, 513360, Note_on_c, 0, 58, 47
1, 513480, Note_on_c, 0, 79, 0
1, 513480, Note_on_c, 0, 70, 64
1, 513480, Note_on_c, 0, 79, 75
1, 513600, Note_on_c, 0, 79, 0
1, 513600, Note_on_c, 0, 62, 0
1, 513600, Note_on_c, 0, 58, 0
1, 513600, Note_on_c, 0, 55, 0
1, 513600, Note_on_c, 0, 70, 0
1, 513600, Note_on_c, 0, 65, 77
1, 513600, Note_on_c, 0, 47, 65
1, 513600, Note_on_c, 0, 35, 54
1, 513605, Control_c, 0, 64, 0
1, 513657, Control_c, 0, 64, 127
1, 513720, Note_on_c, 0, 35, 0
1, 513720, Note_on_c, 0, 47, 0
1, 513720, Note_on_c, 0, 68, 59
1, 513720, Note_on_c, 0, 77, 71
1, 513740, Tempo, 487092
1, 513840, Note_on_c, 0, 77, 0
1, 513840, Note_on_c, 0, 68, 0
1, 513840, Note_on_c, 0, 65, 0
1, 513840, Note_on_c, 0, 77, 70
1, 513840, Note_on_c, 0, 53, 43
1, 513840, Note_on_c, 0, 62, 51
1, 513840, Note_on_c, 0, 56, 43
1, 513960, Note_on_c, 0, 77, 0
1, 513960, Note_on_c, 0, 80, 59
1, 513960, Note_on_c, 0, 89, 71
1, 514080, Note_on_c, 0, 89, 0
1, 514080, Note_on_c, 0, 53, 0
1, 514080, Note_on_c, 0, 56, 0
1, 514080, Note_on_c, 0, 62, 0
1, 514080, Note_on_c, 0, 80, 0
1, 514080, Note_on_c, 0, 77, 68
1, 514080, Note_on_c, 0, 48, 60
1, 514080, Note_on_c, 0, 36, 51
1, 514096, Control_c, 0, 64, 0
1, 514155, Control_c, 0, 64, 127
1, 514200, Note_on_c, 0, 36, 0
1, 514200, Note_on_c, 0, 48, 0
1, 514200, Note_on_c, 0, 77, 0
1, 514200, Note_on_c, 0, 67, 66
1, 514200, Note_on_c, 0, 75, 77
1, 514320, Note_on_c, 0, 75, 0
1, 514320, Note_on_c, 0, 67, 0
1, 514320, Note_on_c, 0, 63, 69
1, 514320, Note_on_c, 0, 60, 50
1, 514320, Note_on_c, 0, 51, 42
1, 514320, Note_on_c, 0, 55, 42
1, 514440, Note_on_c, 0, 67, 57
1, 514440, Note_on_c, 0, 75, 69
1, 514560, Tempo, 512208
1, 514560, Note_on_c, 0, 75, 0
1, 514560, Note_on_c, 0, 60, 0
1, 514560, Note_on_c, 0, 51, 0
1, 514560, Note_on_c, 0, 63, 0
1, 514560, Note_on_c, 0, 67, 0
1, 514560, Note_on_c, 0, 55, 0
1, 514560, Note_on_c, 0, 62, 77
1, 514560, Note_on_c, 0, 38, 54
1, 514560, Note_on_c, 0, 50, 65
1, 514569, Control_c, 0, 64, 0
1, 514657, Control_c, 0, 64, 127
1, 514680, Note_on_c, 0, 50, 0
1, 514680, Note_on_c, 0, 38, 0
1, 514680, Note_on_c, 0, 66, 59
1, 514680, Note_on_c, 0, 74, 71
1, 514700, Tempo, 487092
1, 514800, Note_on_c, 0, 74, 0
1, 514800, Note_on_c, 0, 66, 0
1, 514800, Note_on_c, 0, 62, 0
1, 514800, Note_on_c, 0, 74, 70
1, 514800, Note_on_c, 0, 54, 43
1, 514800, Note_on_c, 0, 57, 51
1, 514920, Note_on_c, 0, 74, 0
1, 514920, Note_on_c, 0, 78, 59
1, 514920, Note_on_c, 0, 86, 71
1, 515040, Note_on_c, 0, 86, 0
1, 515040, Note_on_c, 0, 54, 0
1, 515040, Note_on_c, 0, 57, 0
1, 515040, Note_on_c, 0, 78, 0
1, 515040, Note_on_c, 0, 74, 68
1, 515040, Note_on_c, 0, 40, 51
1, 515040, Note_on_c, 0, 52, 60
1, 515057, Control_c, 0, 64, 0
1, 515115, Control_c, 0, 64, 127
1, 515160, Note_on_c, 0, 52, 0
1, 515160, Note_on_c, 0, 40, 0
1, 515160, Note_on_c, 0, 74, 0
1, 515160, Note_on_c, 0, 73, 77
1, 515160, Note_on_c, 0, 64, 66
1, 515280, Note_on_c, 0, 64, 0
1, 515280, Note_on_c, 0, 73, 0
1, 515280, Note_on_c, 0, 61, 69
1, 515280, Note_on_c, 0, 58, 50
1, 515280, Note_on_c, 0, 55, 42
1, 515400, Note_on_c, 0, 73, 69
1, 515400, Note_on_c, 0, 64, 57
1, 515520, Tempo, 505860
1, 515520, Note_on_c, 0, 64, 0
1, 515520, Note_on_c, 0, 55, 0
1, 515520, Note_on_c, 0, 61, 0
1, 515520, Note_on_c, 0, 58, 0
1, 515520, Note_on_c, 0, 73, 0
1, 515520, Note_on_c, 0, 60, 77
1, 515520, Note_on_c, 0, 54, 65
1, 515520, Note_on_c, 0, 42, 54
1, 515520, Control_c, 0, 64, 0
1, 515577, Control_c, 0, 64, 127
1, 515640, Note_on_c, 0, 42, 0
1, 515640, Note_on_c, 0, 54, 0
1, 515640, Note_on_c, 0, 63, 59
1, 515640, Note_on_c, 0, 72, 71
1, 515660, Tempo, 487092
1, 515760, Note_on_c, 0, 72, 0
1, 515760, Note_on_c, 0, 63, 0
1, 515760, Note_on_c, 0, 60, 0
1, 515760, Note_on_c, 0, 72, 70
1, 515760, Note_on_c, 0, 60, 43
1, 515760, Note_on_c, 0, 63, 51
1, 515760, Note_on_c, 0, 54, 43
1, 515880, Note_on_c, 0, 75, 59
1, 515880, Note_on_c, 0, 84, 71
1, 516000, Note_on_c, 0, 84, 0
1, 516000, Note_on_c, 0, 60, 0
1, 516000, Note_on_c, 0, 63, 0
1, 516000, Note_on_c, 0, 72, 0
1, 516000, Note_on_c, 0, 75, 0
1, 516000, Note_on_c, 0, 54, 0
1, 516000, Note_on_c, 0, 71, 68
1, 516000, Note_on_c, 0, 55, 43
1, 516000, Note_on_c, 0, 60, 43
1, 516000, Note_on_c, 0, 63, 51
1, 516015, Control_c, 0, 64, 0
1, 516120, Note_on_c, 0, 83, 73
1, 516120, Note_on_c, 0, 75, 64
1, 516240, Note_on_c, 0, 75, 0
1, 516240, Note_on_c, 0, 55, 0
1, 516240, Note_on_c, 0, 60, 0
1, 516240, Note_on_c, 0, 71, 0
1, 516240, Note_on_c, 0, 83, 0
1, 516240, Note_on_c, 0, 63, 0
1, 516240, Note_on_c, 0, 72, 70
1, 516240, Note_on_c, 0, 43, 48
1, 516240, Note_on_c, 0, 55, 58
1, 516360, Note_on_c, 0, 55, 0
1, 516360, Note_on_c, 0, 43, 0
1, 516360, Note_on_c, 0, 84, 70
1, 516360, Note_on_c, 0, 75, 58
1, 516480, Tempo, 507958
1, 516480, Note_on_c, 0, 75, 0
1, 516480, Note_on_c, 0, 84, 0
1, 516480, Note_on_c, 0, 72, 0
1, 516480, Note_on_c, 0, 72, 79
1, 516480, Note_on_c, 0, 44, 55
1, 516480, Note_on_c, 0, 56, 66
1, 516488, Control_c, 0, 64, 0
1, 516537, Control_c, 0, 64, 127
1, 516600, Note_on_c, 0, 56, 0
1, 516600, Note_on_c, 0, 44, 0
1, 516600, Note_on_c, 0, 84, 73
1, 516600, Note_on_c, 0, 75, 61
1, 516620, Tempo, 487092
1, 516720, Note_on_c, 0, 75, 0
1, 516720, Note_on_c, 0, 84, 0
1, 516720, Note_on_c, 0, 72, 0
1, 516720, Note_on_c, 0, 75, 72
1, 516720, Note_on_c, 0, 63, 44
1, 516720, Note_on_c, 0, 67, 52
1, 516720, Note_on_c, 0, 56, 44
1, 516840, Note_on_c, 0, 78, 61
1, 516840, Note_on_c, 0, 87, 74
1, 516960, Note_on_c, 0, 87, 0
1, 516960, Note_on_c, 0, 63, 0
1, 516960, Note_on_c, 0, 67, 0
1, 516960, Note_on_c, 0, 75, 0
1, 516960, Note_on_c, 0, 78, 0
1, 516960, Note_on_c, 0, 56, 0
1, 516960, Note_on_c, 0, 74, 71
1, 516960, Note_on_c, 0, 57, 45
1, 516960, Note_on_c, 0, 67, 53
1, 516960, Note_on_c, 0, 63, 45
1, 516976, Control_c, 0, 64, 0
1, 517080, Note_on_c, 0, 78, 69
1, 517080, Note_on_c, 0, 86, 81
1, 517200, Note_on_c, 0, 86, 0
1, 517200, Note_on_c, 0, 57, 0
1, 517200, Note_on_c, 0, 67, 0
1, 517200, Note_on_c, 0, 74, 0
1, 517200, Note_on_c, 0, 78, 0
1, 517200, Note_on_c, 0, 63, 0
1, 517200, Note_on_c, 0, 75, 72
1, 517200, Note_on_c, 0, 45, 50
1, 517200, Note_on_c, 0, 57, 60
1, 517320, Note_on_c, 0, 57, 0
1, 517320, Note_on_c, 0, 45, 0
1, 517320, Note_on_c, 0, 78, 60
1, 517320, Note_on_c, 0, 87, 73
1, 517440, Tempo, 507958
1, 517440, Note_on_c, 0, 87, 0
1, 517440, Note_on_c, 0, 78, 0
1, 517440, Note_on_c, 0, 75, 0
1, 517440, Note_on_c, 0, 75, 82
1, 517440, Note_on_c, 0, 58, 69
1, 517440, Note_on_c, 0, 46, 57
1, 517440, Control_c, 0, 64, 0
1, 517497, Control_c, 0, 64, 127
1, 517560, Note_on_c, 0, 46, 0
1, 517560, Note_on_c, 0, 58, 0
1, 517560, Note_on_c, 0, 78, 63
1, 517560, Note_on_c, 0, 87, 75
1, 517580, Tempo, 487092
1, 517680, Note_on_c, 0, 87, 0
1, 517680, Note_on_c, 0, 78, 0
1, 517680, Note_on_c, 0, 75, 0
1, 517680, Note_on_c, 0, 78, 75
1, 517680, Note_on_c, 0, 63, 46
1, 517680, Note_on_c, 0, 58, 46
1, 517680, Note_on_c, 0, 66, 54
1, 517800, Note_on_c, 0, 82, 64
1, 517800, Note_on_c, 0, 90, 76
1, 517920, Note_on_c, 0, 90, 0
1, 517920, Note_on_c, 0, 63, 0
1, 517920, Note_on_c, 0, 58, 0
1, 517920, Note_on_c, 0, 78, 0
1, 517920, Note_on_c, 0, 82, 0
1, 517920, Note_on_c, 0, 66, 0
1, 517920, Note_on_c, 0, 77, 73
1, 517920, Note_on_c, 0, 69, 55
1, 517920, Note_on_c, 0, 59, 46
1, 517920, Note_on_c, 0, 63, 46
1, 517931, Control_c, 0, 64, 0
1, 518007, Control_c, 0, 64, 127
1, 518040, Note_on_c, 0, 89, 84
1, 518040, Note_on_c, 0, 80, 71
1, 518160, Note_on_c, 0, 80, 0
1, 518160, Note_on_c, 0, 69, 0
1, 518160, Note_on_c, 0, 59, 0
1, 518160, Note_on_c, 0, 77, 0
1, 518160, Note_on_c, 0, 89, 0
1, 518160, Note_on_c, 0, 63, 0
1, 518160, Note_on_c, 0, 78, 75
1, 518160, Note_on_c, 0, 47, 52
1, 518160, Note_on_c, 0, 59, 63
1, 518280, Note_on_c, 0, 59, 0
1, 518280, Note_on_c, 0, 47, 0
1, 518280, Note_on_c, 0, 90, 75
1, 518280, Note_on_c, 0, 81, 63
1, 518400, Tempo, 507958
1, 518400, Note_on_c, 0, 81, 0
1, 518400, Note_on_c, 0, 90, 0
1, 518400, Note_on_c, 0, 78, 0
1, 518400, Note_on_c, 0, 78, 86
1, 518400, Note_on_c, 0, 48, 59
1, 518400, Note_on_c, 0, 60, 71
1, 518408, Control_c, 0, 64, 0
1, 518457, Control_c, 0, 64, 127
1, 518520, Note_on_c, 0, 60, 0
1, 518520, Note_on_c, 0, 48, 0
1, 518520, Note_on_c, 0, 81, 66
1, 518520, Note_on_c, 0, 90, 78
1, 518540, Tempo, 487092
1, 518640, Note_on_c, 0, 90, 0
1, 518640, Note_on_c, 0, 81, 0
1, 518640, Note_on_c, 0, 78, 0
1, 518640, Note_on_c, 0, 81, 78
1, 518640, Note_on_c, 0, 66, 47
1, 518640, Note_on_c, 0, 62, 47
1, 518640, Note_on_c, 0, 60, 47
1, 518640, Note_on_c, 0, 69, 56
1, 518760, Note_on_c, 0, 93, 79
1, 518760, Note_on_c, 0, 84, 66
1, 518880, Note_on_c, 0, 84, 0
1, 518880, Note_on_c, 0, 81, 0
1, 518880, Note_on_c, 0, 93, 0
1, 518880, Note_on_c, 0, 82, 76
1, 518896, Control_c, 0, 64, 0
1, 518983, Control_c, 0, 64, 127
1, 519000, Note_on_c, 0, 94, 87
1, 519000, Note_on_c, 0, 86, 74
1, 519120, Note_on_c, 0, 86, 0
1, 519120, Note_on_c, 0, 82, 0
1, 519120, Note_on_c, 0, 62, 0
1, 519120, Note_on_c, 0, 69, 0
1, 519120, Note_on_c, 0, 66, 0
1, 519120, Note_on_c, 0, 94, 0
1, 519120, Note_on_c, 0, 60, 0
1, 519120, Note_on_c, 0, 84, 78
1, 519120, Note_on_c, 0, 60, 57
1, 519120, Note_on_c, 0, 66, 48
1, 519120, Note_on_c, 0, 62, 57
1, 519120, Note_on_c, 0, 69, 57
1, 519240, Tempo, 522967
1, 519240, Note_on_c, 0, 96, 78
1, 519240, Note_on_c, 0, 87, 65
1, 519360, Tempo, 507958
1, 519360, Note_on_c, 0, 87, 0
1, 519360, Note_on_c, 0, 69, 0
1, 519360, Note_on_c, 0, 60, 0
1, 519360, Note_on_c, 0, 66, 0
1, 519360, Note_on_c, 0, 84, 0
1, 519360, Note_on_c, 0, 96, 0
1, 519360, Note_on_c, 0, 62, 0
1, 519360, Note_on_c, 0, 84, 89
1, 519360, Note_on_c, 0, 58, 74
1, 519360, Note_on_c, 0, 46, 61
1, 519368, Control_c, 0, 64, 0
1, 519459, Control_c, 0, 64, 127
1, 519480, Tempo, 491803
1, 519480, Note_on_c, 0, 46, 0
1, 519480, Note_on_c, 0, 58, 0
1, 519480, Note_on_c, 0, 87, 68
1, 519480, Note_on_c, 0, 96, 81
1, 519600, Note_on_c, 0, 96, 0
1, 519600, Note_on_c, 0, 87, 0
1, 519600, Note_on_c, 0, 84, 0
1, 519600, Note_on_c, 0, 82, 80
1, 519600, Note_on_c, 0, 55, 49
1, 519600, Note_on_c, 0, 62, 49
1, 519600, Note_on_c, 0, 67, 58
1, 519720, Note_on_c, 0, 86, 68
1, 519720, Note_on_c, 0, 94, 81
1, 519840, Note_on_c, 0, 94, 0
1, 519840, Note_on_c, 0, 55, 0
1, 519840, Note_on_c, 0, 62, 0
1, 519840, Note_on_c, 0, 82, 0
1, 519840, Note_on_c, 0, 86, 0
1, 519840, Note_on_c, 0, 67, 0
1, 519840, Note_on_c, 0, 82, 77
1, 519840, Note_on_c, 0, 48, 54
1, 519840, Note_on_c, 0, 60, 66
1, 519854, Control_c, 0, 64, 0
1, 519953, Control_c, 0, 64, 127
1, 519960, Note_on_c, 0, 60, 0
1, 519960, Note_on_c, 0, 48, 0
1, 519960, Note_on_c, 0, 86, 75
1, 519960, Note_on_c, 0, 94, 89
1, 520080, Note_on_c, 0, 94, 0
1, 520080, Note_on_c, 0, 86, 0
1, 520080, Note_on_c, 0, 82, 0
1, 520080, Note_on_c, 0, 81, 78
1, 520080, Note_on_c, 0, 57, 54
1, 520080, Note_on_c, 0, 67, 66
1, 520080, Note_on_c, 0, 63, 54
1, 520200, Note_on_c, 0, 93, 78
1, 520200, Note_on_c, 0, 84, 66
1, 520320, Tempo, 525210
1, 520320, Note_on_c, 0, 84, 0
1, 520320, Note_on_c, 0, 57, 0
1, 520320, Note_on_c, 0, 67, 0
1, 520320, Note_on_c, 0, 81, 0
1, 520320, Note_on_c, 0, 93, 0
1, 520320, Note_on_c, 0, 63, 0
1, 520320, Note_on_c, 0, 81, 89
1, 520320, Note_on_c, 0, 62, 74
1, 520320, Note_on_c, 0, 50, 61
1, 520328, Control_c, 0, 64, 0
1, 520377, Control_c, 0, 64, 127
1, 520440, Tempo, 493787
1, 520440, Note_on_c, 0, 50, 0
1, 520440, Note_on_c, 0, 62, 0
1, 520440, Note_on_c, 0, 93, 81
1, 520440, Note_on_c, 0, 84, 68
1, 520560, Note_on_c, 0, 84, 0
1, 520560, Note_on_c, 0, 93, 0
1, 520560, Note_on_c, 0, 81, 0
1, 520560, Note_on_c, 0, 79, 80
1, 520560, Note_on_c, 0, 70, 58
1, 520560, Note_on_c, 0, 67, 49
1, 520560, Note_on_c, 0, 62, 49
1, 520680, Note_on_c, 0, 82, 68
1, 520680, Note_on_c, 0, 91, 81
1, 520800, Note_on_c, 0, 91, 0
1, 520800, Note_on_c, 0, 70, 0
1, 520800, Note_on_c, 0, 67, 0
1, 520800, Note_on_c, 0, 79, 0
1, 520800, Note_on_c, 0, 82, 0
1, 520800, Note_on_c, 0, 62, 0
1, 520800, Note_on_c, 0, 79, 77
1, 520800, Note_on_c, 0, 48, 54
1, 520800, Note_on_c, 0, 60, 66
1, 520810, Control_c, 0, 64, 0
1, 520897, Control_c, 0, 64, 127
1, 520920, Note_on_c, 0, 60, 0
1, 520920, Note_on_c, 0, 48, 0
1, 520920, Note_on_c, 0, 82, 75
1, 520920, Note_on_c, 0, 91, 89
1, 521040, Note_on_c, 0, 91, 0
1, 521040, Note_on_c, 0, 82, 0
1, 521040, Note_on_c, 0, 79, 0
1, 521040, Note_on_c, 0, 74, 78
1, 521040, Note_on_c, 0, 66, 54
1, 521040, Note_on_c, 0, 69, 66
1, 521040, Note_on_c, 0, 62, 54
1, 521040, Note_on_c, 0, 60, 54
1, 521160, Tempo, 518627
1, 521160, Note_on_c, 0, 78, 66
1, 521160, Note_on_c, 0, 86, 78
1, 521280, Tempo, 527426
1, 521280, Note_on_c, 0, 86, 0
1, 521280, Note_on_c, 0, 60, 0
1, 521280, Note_on_c, 0, 66, 0
1, 521280, Note_on_c, 0, 69, 0
1, 521280, Note_on_c, 0, 74, 0
1, 521280, Note_on_c, 0, 78, 0
1, 521280, Note_on_c, 0, 62, 0
1, 521280, Note_on_c, 0, 46, 52
1, 521280, Note_on_c, 0, 58, 61
1, 521291, Control_c, 0, 64, 0
1, 521337, Control_c, 0, 64, 127
1, 521400, Tempo, 497760
1, 521400, Note_on_c, 0, 58, 0
1, 521400, Note_on_c, 0, 46, 0
1, 521400, Note_on_c, 0, 82, 77
1, 521520, Note_on_c, 0, 82, 0
1, 521520, Note_on_c, 0, 86, 71
1, 521520, Note_on_c, 0, 94, 84
1, 521520, Note_on_c, 0, 62, 46
1, 521520, Note_on_c, 0, 55, 46
1, 521520, Note_on_c, 0, 67, 54
1, 521640, Note_on_c, 0, 94, 0
1, 521640, Note_on_c, 0, 86, 0
1, 521640, Note_on_c, 0, 82, 80
1, 521760, Note_on_c, 0, 82, 0
1, 521760, Note_on_c, 0, 67, 0
1, 521760, Note_on_c, 0, 62, 0
1, 521760, Note_on_c, 0, 55, 0
1, 521760, Note_on_c, 0, 94, 82
1, 521760, Note_on_c, 0, 85, 70
1, 521760, Note_on_c, 0, 60, 58
1, 521760, Note_on_c, 0, 48, 48
1, 521770, Control_c, 0, 64, 0
1, 521852, Control_c, 0, 64, 127
1, 521880, Note_on_c, 0, 48, 0
1, 521880, Note_on_c, 0, 94, 0
1, 521880, Note_on_c, 0, 85, 0
1, 521880, Note_on_c, 0, 60, 0
1, 521880, Note_on_c, 0, 82, 79
1, 522000, Note_on_c, 0, 82, 0
1, 522000, Note_on_c, 0, 93, 85
1, 522000, Note_on_c, 0, 84, 72
1, 522000, Note_on_c, 0, 57, 48
1, 522000, Note_on_c, 0, 63, 48
1, 522000, Note_on_c, 0, 67, 57
1, 522120, Note_on_c, 0, 84, 0
1, 522120, Note_on_c, 0, 93, 0
1, 522120, Note_on_c, 0, 81, 81
1, 522240, Tempo, 525210
1, 522240, Note_on_c, 0, 81, 0
1, 522240, Note_on_c, 0, 67, 0
1, 522240, Note_on_c, 0, 57, 0
1, 522240, Note_on_c, 0, 63, 0
1, 522240, Note_on_c, 0, 93, 88
1, 522240, Note_on_c, 0, 84, 74
1, 522240, Note_on_c, 0, 50, 56
1, 522240, Note_on_c, 0, 62, 68
1, 522248, Control_c, 0, 64, 0
1, 522297, Control_c, 0, 64, 127
1, 522360, Tempo, 499750
1, 522360, Note_on_c, 0, 62, 0
1, 522360, Note_on_c, 0, 93, 0
1, 522360, Note_on_c, 0, 84, 0
1, 522360, Note_on_c, 0, 50, 0
1, 522360, Note_on_c, 0, 81, 79
1, 522480, Note_on_c, 0, 81, 0
1, 522480, Note_on_c, 0, 82, 74
1, 522480, Note_on_c, 0, 91, 87
1, 522480, Note_on_c, 0, 67, 49
1, 522480, Note_on_c, 0, 70, 58
1, 522480, Note_on_c, 0, 62, 49
1, 522600, Note_on_c, 0, 91, 0
1, 522600, Note_on_c, 0, 82, 0
1, 522600, Note_on_c, 0, 79, 80
1, 522720, Note_on_c, 0, 79, 0
1, 522720, Note_on_c, 0, 62, 0
1, 522720, Note_on_c, 0, 67, 0
1, 522720, Note_on_c, 0, 70, 0
1, 522720, Note_on_c, 0, 82, 75
1, 522720, Note_on_c, 0, 91, 89
1, 522720, Note_on_c, 0, 48, 51
1, 522720, Note_on_c, 0, 60, 60
1, 522735, Control_c, 0, 64, 0
1, 522817, Control_c, 0, 64, 127
1, 522840, Note_on_c, 0, 60, 0
1, 522840, Note_on_c, 0, 82, 0
1, 522840, Note_on_c, 0, 91, 0
1, 522840, Note_on_c, 0, 48, 0
1, 522840, Note_on_c, 0, 79, 79
1, 522960, Note_on_c, 0, 79, 0
1, 522960, Note_on_c, 0, 86, 89
1, 522960, Note_on_c, 0, 78, 75
1, 522960, Note_on_c, 0, 62, 49
1, 522960, Note_on_c, 0, 69, 49
1, 522960, Note_on_c, 0, 66, 49
1, 522960, Note_on_c, 0, 60, 49
1, 523080, Tempo, 527426
1, 523080, Note_on_c, 0, 78, 0
1, 523080, Note_on_c, 0, 86, 0
1, 523080, Note_on_c, 0, 74, 81
1, 523200, Note_on_c, 0, 74, 0
1, 523200, Note_on_c, 0, 62, 0
1, 523200, Note_on_c, 0, 69, 0
1, 523200, Note_on_c, 0, 60, 0
1, 523200, Note_on_c, 0, 66, 0
1, 523200, Note_on_c, 0, 58, 87
1, 523200, Note_on_c, 0, 46, 73
1, 523211, Control_c, 0, 64, 0
1, 523320, Tempo, 493787
1, 523320, Note_on_c, 0, 46, 0
1, 523320, Note_on_c, 0, 58, 0
1, 523320, Note_on_c, 0, 86, 87
1, 523320, Control_c, 0, 64, 127
1, 523440, Note_on_c, 0, 86, 0
1, 523440, Note_on_c, 0, 91, 80
1, 523440, Note_on_c, 0, 94, 80
1, 523440, Note_on_c, 0, 98, 95
1, 523560, Note_on_c, 0, 98, 0
1, 523560, Note_on_c, 0, 94, 0
1, 523560, Note_on_c, 0, 91, 0
1, 523560, Note_on_c, 0, 86, 86
1, 523680, Note_on_c, 0, 86, 0
1, 523680, Note_on_c, 0, 82, 73
1, 523680, Note_on_c, 0, 86, 86
1, 523680, Note_on_c, 0, 79, 73
1, 523800, Note_on_c, 0, 79, 0
1, 523800, Note_on_c, 0, 86, 0
1, 523800, Note_on_c, 0, 82, 0
1, 523800, Note_on_c, 0, 74, 78
1, 523920, Note_on_c, 0, 74, 0
1, 523920, Note_on_c, 0, 86, 88
1, 523920, Note_on_c, 0, 82, 74
1, 523920, Note_on_c, 0, 79, 74
1, 524040, Tempo, 527426
1, 524040, Note_on_c, 0, 79, 0
1, 524040, Note_on_c, 0, 82, 0
1, 524040, Note_on_c, 0, 86, 0
1, 524040, Note_on_c, 0, 74, 78
1, 524160, Tempo, 495786
1, 524160, Note_on_c, 0, 74, 0
1, 524160, Note_on_c, 0, 70, 69
1, 524160, Note_on_c, 0, 74, 81
1, 524160, Note_on_c, 0, 67, 69
1, 524280, Note_on_c, 0, 67, 0
1, 524280, Note_on_c, 0, 74, 0
1, 524280, Note_on_c, 0, 70, 0
1, 524280, Note_on_c, 0, 62, 77
1, 524400, Note_on_c, 0, 62, 0
1, 524400, Note_on_c, 0, 67, 70
1, 524400, Note_on_c, 0, 70, 70
1, 524400, Note_on_c, 0, 74, 82
1, 524520, Note_on_c, 0, 74, 0
1, 524520, Note_on_c, 0, 70, 0
1, 524520, Note_on_c, 0, 67, 0
1, 524520, Note_on_c, 0, 62, 76
1, 524640, Note_on_c, 0, 62, 0
1, 524640, Note_on_c, 0, 62, 82
1, 524640, Note_on_c, 0, 58, 70
1, 524640, Note_on_c, 0, 55, 70
1, 524760, Note_on_c, 0, 55, 0
1, 524760, Note_on_c, 0, 58, 0
1, 524760, Note_on_c, 0, 62, 0
1, 524760, Note_on_c, 0, 50, 74
1, 524880, Note_on_c, 0, 50, 0
1, 524880, Note_on_c, 0, 58, 70
1, 524880, Note_on_c, 0, 62, 82
1, 524880, Note_on_c, 0, 55, 70
1, 525000, Tempo, 522967
1, 525000, Note_on_c, 0, 55, 0
1, 525000, Note_on_c, 0, 62, 0
1, 525000, Note_on_c, 0, 58, 0
1, 525000, Note_on_c, 0, 50, 64
1, 525120, Tempo, 514271
1, 525120, Note_on_c, 0, 50, 0
1, 525120, Note_on_c, 0, 42, 93
1, 525120, Note_on_c, 0, 30, 78
1, 525120, Control_c, 0, 64, 0
1, 525140, Tempo, 512208
1, 525160, Tempo, 514271
1, 525240, Tempo, 516440
1, 525240, Note_on_c, 0, 30, 0
1, 525240, Note_on_c, 0, 42, 0
1, 525240, Note_on_c, 0, 43, 81
1, 525240, Note_on_c, 0, 31, 69
1, 525320, Tempo, 518627
1, 525360, Note_on_c, 0, 31, 0
1, 525360, Note_on_c, 0, 43, 0
1, 525360, Note_on_c, 0, 64, 90
1, 525360, Note_on_c, 0, 58, 75
1, 525360, Note_on_c, 0, 55, 75
1, 525400, Tempo, 520788
1, 525460, Tempo, 522967
1, 525480, Note_on_c, 0, 55, 0
1, 525480, Note_on_c, 0, 58, 0
1, 525480, Note_on_c, 0, 64, 0
1, 525480, Note_on_c, 0, 50, 77
1, 525540, Tempo, 525210
1, 525600, Note_on_c, 0, 50, 0
1, 525600, Note_on_c, 0, 37, 78
1, 525600, Note_on_c, 0, 49, 93
1, 525620, Tempo, 527426
1, 525700, Tempo, 529708
1, 525720, Note_on_c, 0, 49, 0
1, 525720, Note_on_c, 0, 37, 0
1, 525720, Note_on_c, 0, 38, 72
1, 525720, Note_on_c, 0, 50, 85
1, 525760, Tempo, 531962
1, 525840, Tempo, 534283
1, 525840, Note_on_c, 0, 50, 0
1, 525840, Note_on_c, 0, 38, 0
1, 525840, Note_on_c, 0, 55, 75
1, 525840, Note_on_c, 0, 58, 75
1, 525840, Note_on_c, 0, 64, 90
1, 525920, Tempo, 536577
1, 525960, Note_on_c, 0, 64, 0
1, 525960, Note_on_c, 0, 58, 0
1, 525960, Note_on_c, 0, 55, 0
1, 525960, Note_on_c, 0, 50, 81
1, 526000, Tempo, 538938
1, 526060, Tempo, 541272
1, 526080, Tempo, 538938
1, 526080, Note_on_c, 0, 50, 0
1, 526080, Control_c, 0, 64, 0
1, 526080, Note_on_c, 0, 42, 93
1, 526080, Note_on_c, 0, 30, 78
1, 526100, Tempo, 538938
1, 526160, Tempo, 541272
1, 526200, Tempo, 543626
1, 526200, Note_on_c, 0, 30, 0
1, 526200, Note_on_c, 0, 42, 0
1, 526200, Note_on_c, 0, 43, 81
1, 526200, Note_on_c, 0, 31, 69
1, 526240, Tempo, 546001
1, 526300, Tempo, 548396
1, 526320, Note_on_c, 0, 31, 0
1, 526320, Note_on_c, 0, 43, 0
1, 526320, Note_on_c, 0, 58, 75
1, 526320, Note_on_c, 0, 55, 75
1, 526320, Note_on_c, 0, 64, 90
1, 526340, Tempo, 550863
1, 526380, Tempo, 553301
1, 526440, Tempo, 555813
1, 526440, Note_on_c, 0, 64, 0
1, 526440, Note_on_c, 0, 55, 0
1, 526440, Note_on_c, 0, 58, 0
1, 526440, Note_on_c, 0, 50, 77
1, 526480, Tempo, 558295
1, 526520, Tempo, 560800
1, 526540, Tempo, 563380
1, 526560, Tempo, 568559
1, 526560, Note_on_c, 0, 50, 0
1, 526560, Note_on_c, 0, 49, 93
1, 526560, Note_on_c, 0, 37, 78
1, 526580, Tempo, 571157
1, 526600, Tempo, 576535
1, 526620, Tempo, 579151
1, 526640, Tempo, 584681
1, 526660, Tempo, 587487
1, 526680, Tempo, 593061
1, 526680, Note_on_c, 0, 37, 0
1, 526680, Note_on_c, 0, 49, 0
1, 526680, Note_on_c, 0, 50, 85
1, 526680, Note_on_c, 0, 38, 72
1, 526700, Tempo, 595948
1, 526720, Tempo, 601685
1, 526740, Tempo, 607656
1, 526760, Tempo, 610625
1, 526780, Tempo, 616650
1, 526800, Tempo, 619707
1, 526800, Note_on_c, 0, 38, 0
1, 526800, Note_on_c, 0, 50, 0
1, 526800, Note_on_c, 0, 58, 75
1, 526800, Note_on_c, 0, 55, 75
1, 526800, Note_on_c, 0, 64, 90
1, 526820, Tempo, 625978
1, 526840, Tempo, 629129
1, 526860, Tempo, 635661
1, 526880, Tempo, 638910
1, 526900, Tempo, 645578
1, 526920, Tempo, 652316
1, 526920, Note_on_c, 0, 64, 0
1, 526920, Note_on_c, 0, 55, 0
1, 526920, Note_on_c, 0, 58, 0
1, 526920, Note_on_c, 0, 50, 81
1, 526940, Tempo, 784519
1, 527040, Tempo, 759494
1, 527040, Note_on_c, 0, 50, 0
1, 527040, Note_on_c, 0, 38, 97
1, 527040, Note_on_c, 0, 26, 81
1, 527520, Tempo, 547945
1, 527520, Note_on_c, 0, 26, 0
1, 527520, Note_on_c, 0, 38, 0
1, 527520, Note_on_c, 0, 55, 54
1, 527537, Control_c, 0, 64, 127
1, 527540, Tempo, 545455
1, 527560, Tempo, 542986
1, 527580, Tempo, 540541
1, 527600, Tempo, 538117
1, 527600, Note_on_c, 0, 55, 0
1, 527600, Note_on_c, 0, 56, 54
1, 527660, Tempo, 540541
1, 527680, Tempo, 545455
1, 527680, Note_on_c, 0, 56, 0
1, 527680, Note_on_c, 0, 57, 55
1, 527700, Tempo, 550459
1, 527760, Note_on_c, 0, 57, 0
1, 527760, Note_on_c, 0, 58, 55
1, 527780, Tempo, 547945
1, 527800, Tempo, 545455
1, 527820, Tempo, 542986
1, 527840, Note_on_c, 0, 58, 0
1, 527840, Note_on_c, 0, 59, 56
1, 527860, Tempo, 540541
1, 527900, Tempo, 538117
1, 527920, Tempo, 535714
1, 527920, Note_on_c, 0, 59, 0
1, 527920, Note_on_c, 0, 60, 56
1, 527960, Tempo, 542986
1, 527980, Tempo, 545455
1, 528000, Tempo, 550459
1, 528000, Note_on_c, 0, 60, 0
1, 528000, Note_on_c, 0, 61, 56
1, 528020, Tempo, 552995
1, 528080, Note_on_c, 0, 61, 0
1, 528080, Note_on_c, 0, 62, 57
1, 528100, Tempo, 550459
1, 528120, Tempo, 547945
1, 528160, Tempo, 545455
1, 528160, Note_on_c, 0, 62, 0
1, 528160, Note_on_c, 0, 63, 57
1, 528180, Tempo, 540541
1, 528220, Tempo, 538117
1, 528240, Note_on_c, 0, 63, 0
1, 528240, Note_on_c, 0, 64, 58
1, 528260, Tempo, 540541
1, 528280, Tempo, 545455
1, 528300, Tempo, 550459
1, 528320, Note_on_c, 0, 64, 0
1, 528320, Note_on_c, 0, 65, 58
1, 528380, Tempo, 545455
1, 528400, Tempo, 542986
1, 528400, Note_on_c, 0, 65, 0
1, 528400, Note_on_c, 0, 66, 58
1, 528420, Tempo, 540541
1, 528440, Tempo, 535714
1, 528480, Note_on_c, 0, 66, 0
1, 528480, Note_on_c, 0, 67, 59
1, 528480, Note_on_c, 0, 64, 69
1, 528480, Note_on_c, 0, 61, 69
1, 528480, Note_on_c, 0, 58, 69
1, 528480, Note_on_c, 0, 55, 69
1, 528500, Tempo, 538117
1, 528540, Tempo, 542986
1, 528560, Tempo, 547945
1, 528560, Note_on_c, 0, 67, 0
1, 528560, Note_on_c, 0, 68, 59
1, 528640, Tempo, 545455
1, 528640, Note_on_c, 0, 68, 0
1, 528640, Note_on_c, 0, 69, 60
1, 528660, Tempo, 542986
1, 528680, Tempo, 540541
1, 528700, Tempo, 538117
1, 528720, Tempo, 535714
1, 528720, Note_on_c, 0, 69, 0
1, 528720, Note_on_c, 0, 70, 60
1, 528740, Tempo, 533333
1, 528760, Tempo, 538117
1, 528780, Tempo, 542986
1, 528800, Tempo, 545455
1, 528800, Note_on_c, 0, 70, 0
1, 528800, Note_on_c, 0, 71, 60
1, 528840, Tempo, 547945
1, 528840, Note_on_c, 0, 55, 0
1, 528840, Note_on_c, 0, 58, 0
1, 528840, Note_on_c, 0, 64, 0
1, 528840, Note_on_c, 0, 61, 0
1, 528840, Note_on_c, 0, 58, 62
1, 528840, Note_on_c, 0, 55, 62
1, 528840, Note_on_c, 0, 64, 62
1, 528840, Note_on_c, 0, 61, 62
1, 528880, Note_on_c, 0, 71, 0
1, 528880, Note_on_c, 0, 72, 61
1, 528900, Tempo, 545455
1, 528920, Tempo, 542986
1, 528940, Tempo, 540541
1, 528960, Tempo, 538117
1, 528960, Note_on_c, 0, 72, 0
1, 528960, Note_on_c, 0, 61, 0
1, 528960, Note_on_c, 0, 58, 0
1, 528960, Note_on_c, 0, 55, 0
1, 528960, Note_on_c, 0, 64, 0
1, 528960, Note_on_c, 0, 73, 61
1, 528960, Note_on_c, 0, 66, 69
1, 528960, Note_on_c, 0, 58, 69
1, 528960, Note_on_c, 0, 55, 69
1, 528960, Note_on_c, 0, 61, 69
1, 528968, Control_c, 0, 64, 0
1, 528994, Control_c, 0, 64, 127
1, 529040, Note_on_c, 0, 73, 0
1, 529040, Note_on_c, 0, 74, 63
1, 529060, Tempo, 542986
1, 529080, Tempo, 550459
1, 529120, Note_on_c, 0, 74, 0
1, 529120, Note_on_c, 0, 75, 63
1, 529160, Tempo, 547945
1, 529180, Tempo, 545455
1, 529200, Tempo, 542986
1, 529200, Note_on_c, 0, 75, 0
1, 529200, Note_on_c, 0, 76, 64
1, 529220, Tempo, 538117
1, 529240, Tempo, 540541
1, 529260, Tempo, 542986
1, 529280, Tempo, 545455
1, 529280, Note_on_c, 0, 76, 0
1, 529280, Note_on_c, 0, 77, 64
1, 529300, Tempo, 550459
1, 529360, Note_on_c, 0, 77, 0
1, 529360, Note_on_c, 0, 78, 64
1, 529380, Tempo, 547945
1, 529400, Tempo, 545455
1, 529440, Tempo, 540541
1, 529440, Note_on_c, 0, 78, 0
1, 529440, Note_on_c, 0, 61, 0
1, 529440, Note_on_c, 0, 66, 0
1, 529440, Note_on_c, 0, 58, 0
1, 529440, Note_on_c, 0, 55, 0
1, 529440, Note_on_c, 0, 79, 65
1, 529440, Note_on_c, 0, 61, 69
1, 529440, Note_on_c, 0, 55, 69
1, 529440, Note_on_c, 0, 58, 69
1, 529440, Note_on_c, 0, 64, 69
1, 529451, Control_c, 0, 64, 0
1, 529460, Tempo, 538117
1, 529489, Control_c, 0, 64, 127
1, 529520, Note_on_c, 0, 79, 0
1, 529520, Note_on_c, 0, 80, 65
1, 529540, Tempo, 540541
1, 529560, Tempo, 542986
1, 529580, Tempo, 545455
1, 529600, Tempo, 547945
1, 529600, Note_on_c, 0, 80, 0
1, 529600, Note_on_c, 0, 81, 66
1, 529680, Tempo, 542986
1, 529680, Note_on_c, 0, 81, 0
1, 529680, Note_on_c, 0, 82, 66
1, 529720, Tempo, 540541
1, 529740, Tempo, 538117
1, 529760, Note_on_c, 0, 82, 0
1, 529760, Note_on_c, 0, 83, 66
1, 529800, Tempo, 540541
1, 529800, Note_on_c, 0, 64, 0
1, 529800, Note_on_c, 0, 58, 0
1, 529800, Note_on_c, 0, 61, 0
1, 529800, Note_on_c, 0, 55, 0
1, 529800, Note_on_c, 0, 64, 62
1, 529800, Note_on_c, 0, 61, 62
1, 529800, Note_on_c, 0, 55, 62
1, 529800, Note_on_c, 0, 58, 62
1, 529820, Tempo, 542986
1, 529840, Tempo, 545455
1, 529840, Note_on_c, 0, 83, 0
1, 529840, Note_on_c, 0, 84, 67
1, 529860, Tempo, 547945
1, 529920, Tempo, 542986
1, 529920, Note_on_c, 0, 84, 0
1, 529920, Note_on_c, 0, 58, 0
1, 529920, Note_on_c, 0, 64, 0
1, 529920, Note_on_c, 0, 61, 0
1, 529920, Note_on_c, 0, 55, 0
1, 529920, Note_on_c, 0, 85, 67
1, 529920, Note_on_c, 0, 58, 69
1, 529920, Note_on_c, 0, 61, 69
1, 529920, Note_on_c, 0, 55, 69
1, 529920, Note_on_c, 0, 66, 69
1, 529929, Control_c, 0, 64, 0
1, 529960, Tempo, 540541
1, 529963, Control_c, 0, 64, 127
1, 530000, Note_on_c, 0, 85, 0
1, 530000, Note_on_c, 0, 86, 68
1, 530020, Tempo, 538117
1, 530080, Tempo, 535714
1, 530080, Note_on_c, 0, 86, 0
1, 530080, Note_on_c, 0, 87, 68
1, 530140, Tempo, 538117
1, 530160, Tempo, 540541
1, 530160, Note_on_c, 0, 87, 0
1, 530160, Note_on_c, 0, 88, 68
1, 530180, Tempo, 545455
1, 530200, Tempo, 547945
1, 530240, Tempo, 545455
1, 530240, Note_on_c, 0, 88, 0
1, 530240, Note_on_c, 0, 89, 69
1, 530260, Tempo, 542986
1, 530280, Tempo, 540541
1, 530300, Tempo, 538117
1, 530320, Note_on_c, 0, 89, 0
1, 530320, Note_on_c, 0, 90, 69
1, 530340, Tempo, 535714
1, 530360, Tempo, 538117
1, 530380, Tempo, 540541
1, 530400, Tempo, 545455
1, 530400, Note_on_c, 0, 90, 0
1, 530400, Note_on_c, 0, 66, 0
1, 530400, Note_on_c, 0, 58, 0
1, 530400, Note_on_c, 0, 61, 0
1, 530400, Note_on_c, 0, 55, 0
1, 530400, Note_on_c, 0, 91, 70
1, 530400, Note_on_c, 0, 61, 69
1, 530400, Note_on_c, 0, 55, 69
1, 530400, Note_on_c, 0, 58, 69
1, 530400, Note_on_c, 0, 64, 69
1, 530411, Control_c, 0, 64, 0
1, 530420, Tempo, 550459
1, 530443, Control_c, 0, 64, 127
1, 530480, Note_on_c, 0, 91, 0
1, 530480, Note_on_c, 0, 92, 70
1, 530500, Tempo, 547945
1, 530520, Tempo, 545455
1, 530540, Tempo, 542986
1, 530560, Tempo, 540541
1, 530560, Note_on_c, 0, 92, 0
1, 530560, Note_on_c, 0, 93, 70
1, 530580, Tempo, 538117
1, 530620, Tempo, 542986
1, 530640, Tempo, 547945
1, 530640, Note_on_c, 0, 93, 0
1, 530640, Note_on_c, 0, 94, 71
1, 530700, Note_on_c, 0, 58, 0
1, 530700, Note_on_c, 0, 64, 0
1, 530700, Note_on_c, 0, 61, 0
1, 530700, Note_on_c, 0, 55, 0
1, 530700, Note_on_c, 0, 50, 67
1, 530720, Note_on_c, 0, 94, 0
1, 530720, Note_on_c, 0, 95, 71
1, 530760, Note_on_c, 0, 57, 68
1, 530780, Tempo, 545455
1, 530800, Tempo, 542986
1, 530800, Note_on_c, 0, 95, 0
1, 530800, Note_on_c, 0, 97, 72
1, 530820, Note_on_c, 0, 60, 70
1, 530880, Time_signature, 15, 4, 6, 8
1, 530880, Tempo, 400000
1, 530880, Note_on_c, 0, 97, 0
1, 530880, Note_on_c, 0, 99, 88
1, 530880, Note_on_c, 0, 67, 78
1, 530888, Control_c, 0, 64, 0
1, 530949, Control_c, 0, 64, 127
1, 531000, Tempo, 368098
1, 531000, Note_on_c, 0, 99, 0
1, 531000, Note_on_c, 0, 98, 80
1, 531112, Tempo, 360360
1, 531120, Note_on_c, 0, 98, 0
1, 531120, Note_on_c, 0, 101, 80
1, 531124, Tempo, 359281
1, 531140, Tempo, 358209
1, 531152, Tempo, 357143
1, 531204, Tempo, 358209
1, 531220, Tempo, 361446
1, 531232, Tempo, 362538
1, 531240, Note_on_c, 0, 101, 0
1, 531240, Note_on_c, 0, 99, 81
1, 531260, Tempo, 360360
1, 531284, Tempo, 359281
1, 531312, Tempo, 357143
1, 531340, Tempo, 356083
1, 531352, Tempo, 358209
1, 531360, Note_on_c, 0, 99, 0
1, 531360, Note_on_c, 0, 98, 79
1, 531364, Tempo, 359281
1, 531380, Tempo, 360360
1, 531392, Tempo, 361446
1, 531420, Tempo, 360360
1, 531444, Tempo, 359281
1, 531480, Note_on_c, 0, 98, 0
1, 531480, Note_on_c, 0, 96, 79
1, 531484, Tempo, 358209
1, 531512, Tempo, 357143
1, 531524, Tempo, 359281
1, 531540, Tempo, 360360
1, 531552, Tempo, 361446
1, 531592, Tempo, 360360
1, 531600, Note_on_c, 0, 96, 0
1, 531600, Note_on_c, 0, 95, 79
1, 531604, Tempo, 359281
1, 531620, Tempo, 358209
1, 531660, Tempo, 357143
1, 531672, Tempo, 358209
1, 531684, Tempo, 360360
1, 531700, Tempo, 361446
1, 531720, Note_on_c, 0, 95, 0
1, 531720, Note_on_c, 0, 98, 79
1, 531724, Tempo, 360360
1, 531740, Tempo, 359281
1, 531764, Tempo, 357143
1, 531780, Tempo, 356083
1, 531792, Tempo, 360360
1, 531832, Tempo, 361446
1, 531840, Note_on_c, 0, 98, 0
1, 531840, Note_on_c, 0, 96, 79
1, 531872, Tempo, 360360
1, 531884, Tempo, 358209
1, 531912, Tempo, 357143
1, 531940, Tempo, 358209
1, 531952, Tempo, 360360
1, 531960, Note_on_c, 0, 96, 0
1, 531960, Note_on_c, 0, 94, 79
1, 531964, Tempo, 361446
1, 531992, Tempo, 360360
1, 532020, Tempo, 358209
1, 532060, Tempo, 357143
1, 532080, Note_on_c, 0, 94, 0
1, 532080, Note_on_c, 0, 93, 79
1, 532084, Tempo, 359281
1, 532100, Tempo, 361446
1, 532140, Tempo, 360360
1, 532152, Tempo, 359281
1, 532164, Tempo, 357143
1, 532200, Note_on_c, 0, 93, 0
1, 532200, Note_on_c, 0, 91, 79
1, 532244, Tempo, 358209
1, 532272, Tempo, 359281
1, 532300, Tempo, 356083
1, 532320, Note_on_c, 0, 91, 0
1, 532320, Note_on_c, 0, 90, 79
1, 532352, Tempo, 358209
1, 532392, Tempo, 357143
1, 532420, Tempo, 355030
1, 532440, Note_on_c, 0, 90, 0
1, 532440, Note_on_c, 0, 93, 79
1, 532444, Tempo, 356083
1, 532460, Tempo, 358209
1, 532484, Tempo, 359281
1, 532512, Tempo, 358209
1, 532552, Tempo, 357143
1, 532560, Note_on_c, 0, 93, 0
1, 532560, Note_on_c, 0, 91, 79
1, 532564, Tempo, 356083
1, 532580, Tempo, 355030
1, 532620, Tempo, 356083
1, 532632, Tempo, 352941
1, 532644, Tempo, 353982
1, 532680, Time_signature, 14, 4, 6, 8
1, 532680, Tempo, 353982
1, 532680, Note_on_c, 0, 91, 0
1, 532680, Note_on_c, 0, 90, 84
1, 532688, Control_c, 0, 64, 0
1, 532749, Control_c, 0, 64, 127
1, 532760, Tempo, 352941
1, 532800, Note_on_c, 0, 90, 0
1, 532800, Note_on_c, 0, 87, 80
1, 532820, Tempo, 351906
1, 532880, Tempo, 350877
1, 532920, Note_on_c, 0, 87, 0
1, 532920, Note_on_c, 0, 86, 80
1, 532940, Tempo, 349854
1, 533020, Tempo, 348837
1, 533040, Note_on_c, 0, 86, 0
1, 533040, Note_on_c, 0, 87, 80
1, 533080, Tempo, 347826
1, 533140, Tempo, 346821
1, 533160, Note_on_c, 0, 87, 0
1, 533160, Note_on_c, 0, 86, 79
1, 533200, Tempo, 345821
1, 533280, Tempo, 344828
1, 533280, Note_on_c, 0, 86, 0
1, 533280, Note_on_c, 0, 89, 79
1, 533340, Tempo, 343840
1, 533400, Tempo, 342857
1, 533400, Note_on_c, 0, 89, 0
1, 533400, Note_on_c, 0, 87, 79
1, 533460, Tempo, 341880
1, 533520, Tempo, 340909
1, 533520, Note_on_c, 0, 87, 0
1, 533520, Note_on_c, 0, 86, 78
1, 533640, Note_on_c, 0, 86, 0
1, 533640, Note_on_c, 0, 84, 77
1, 533760, Note_on_c, 0, 84, 0
1, 533760, Note_on_c, 0, 83, 77
1, 533880, Note_on_c, 0, 83, 0
1, 533880, Note_on_c, 0, 86, 76
1, 533900, Tempo, 339943
1, 534000, Note_on_c, 0, 86, 0
1, 534000, Note_on_c, 0, 84, 76
1, 534120, Note_on_c, 0, 84, 0
1, 534120, Note_on_c, 0, 82, 75
1, 534240, Note_on_c, 0, 82, 0
1, 534240, Note_on_c, 0, 81, 75
1, 534280, Tempo, 338983
1, 534360, Time_signature, 19, 4, 6, 8
1, 534360, Note_on_c, 0, 81, 0
1, 534360, Note_on_c, 0, 67, 0
1, 534360, Note_on_c, 0, 79, 75
1, 534360, Note_on_c, 0, 66, 80
1, 534365, Control_c, 0, 64, 0
1, 534380, Tempo, 338983
1, 534400, Tempo, 338028
1, 534440, Control_c, 0, 64, 127
1, 534480, Note_on_c, 0, 79, 0
1, 534480, Note_on_c, 0, 78, 75
1, 534520, Tempo, 339943
1, 534580, Tempo, 338983
1, 534600, Tempo, 338028
1, 534600, Note_on_c, 0, 78, 0
1, 534600, Note_on_c, 0, 81, 75
1, 534620, Tempo, 337079
1, 534640, Tempo, 336134
1, 534660, Tempo, 335196
1, 534700, Tempo, 334262
1, 534720, Tempo, 338028
1, 534720, Note_on_c, 0, 81, 0
1, 534720, Note_on_c, 0, 79, 75
1, 534740, Tempo, 339943
1, 534820, Tempo, 338983
1, 534840, Note_on_c, 0, 79, 0
1, 534840, Note_on_c, 0, 78, 75
1, 534860, Tempo, 338028
1, 534880, Tempo, 337079
1, 534900, Tempo, 336134
1, 534920, Tempo, 335196
1, 534960, Tempo, 336134
1, 534960, Note_on_c, 0, 78, 0
1, 534960, Note_on_c, 0, 75, 75
1, 534980, Tempo, 337079
1, 535000, Tempo, 338028
1, 535020, Tempo, 339943
1, 535040, Tempo, 340909
1, 535080, Note_on_c, 0, 75, 0
1, 535080, Note_on_c, 0, 74, 75
1, 535100, Tempo, 339943
1, 535120, Tempo, 338028
1, 535140, Tempo, 336134
1, 535180, Tempo, 335196
1, 535200, Tempo, 336134
1, 535200, Note_on_c, 0, 74, 0
1, 535200, Note_on_c, 0, 75, 74
1, 535220, Tempo, 337079
1, 535240, Tempo, 338028
1, 535260, Tempo, 339943
1, 535280, Tempo, 341880
1, 535320, Note_on_c, 0, 75, 0
1, 535320, Note_on_c, 0, 74, 74
1, 535340, Tempo, 340909
1, 535360, Tempo, 338983
1, 535380, Tempo, 337079
1, 535400, Control_c, 0, 64, 0
1, 535440, Note_on_c, 0, 74, 0
1, 535440, Note_on_c, 0, 77, 74
1, 535460, Tempo, 338028
1, 535480, Tempo, 338983
1, 535500, Tempo, 341880
1, 535540, Tempo, 339943
1, 535560, Tempo, 338983
1, 535560, Note_on_c, 0, 77, 0
1, 535560, Note_on_c, 0, 75, 74
1, 535580, Tempo, 338028
1, 535600, Tempo, 337079
1, 535620, Tempo, 336134
1, 535680, Tempo, 337079
1, 535680, Note_on_c, 0, 75, 0
1, 535680, Note_on_c, 0, 74, 74
1, 535700, Tempo, 338028
1, 535740, Tempo, 338983
1, 535800, Note_on_c, 0, 74, 0
1, 535800, Note_on_c, 0, 72, 74
1, 535840, Tempo, 336134
1, 535880, Tempo, 335196
1, 535920, Tempo, 336134
1, 535920, Note_on_c, 0, 72, 0
1, 535920, Note_on_c, 0, 71, 74
1, 535940, Tempo, 338028
1, 536000, Tempo, 343840
1, 536020, Tempo, 344828
1, 536040, Note_on_c, 0, 71, 0
1, 536040, Note_on_c, 0, 74, 73
1, 536060, Tempo, 341880
1, 536080, Tempo, 338983
1, 536100, Tempo, 337079
1, 536120, Tempo, 336134
1, 536160, Tempo, 337079
1, 536160, Note_on_c, 0, 74, 0
1, 536160, Note_on_c, 0, 72, 73
1, 536180, Tempo, 338028
1, 536200, Tempo, 338983
1, 536220, Tempo, 339943
1, 536260, Tempo, 338983
1, 536280, Note_on_c, 0, 72, 0
1, 536280, Note_on_c, 0, 70, 73
1, 536300, Tempo, 338028
1, 536340, Tempo, 337079
1, 536360, Tempo, 335196
1, 536380, Tempo, 336134
1, 536400, Tempo, 337079
1, 536400, Note_on_c, 0, 70, 0
1, 536400, Note_on_c, 0, 69, 73
1, 536420, Tempo, 338028
1, 536440, Tempo, 338983
1, 536480, Tempo, 339943
1, 536520, Tempo, 338983
1, 536520, Note_on_c, 0, 69, 0
1, 536520, Note_on_c, 0, 67, 73
1, 536540, Tempo, 338028
1, 536560, Tempo, 337079
1, 536580, Tempo, 338028
1, 536638, Note_on_c, 0, 66, 0
1, 536640, Time_signature, 20, 4, 6, 8
1, 536640, Note_on_c, 0, 60, 0
1, 536640, Note_on_c, 0, 50, 0
1, 536640, Note_on_c, 0, 57, 0
1, 536640, Note_on_c, 0, 67, 0
1, 536640, Note_on_c, 0, 66, 74
1, 536760, Note_on_c, 0, 66, 0
1, 536760, Note_on_c, 0, 63, 75
1, 536800, Tempo, 337079
1, 536880, Tempo, 336134
1, 536880, Note_on_c, 0, 63, 0
1, 536880, Note_on_c, 0, 62, 76
1, 536960, Tempo, 335196
1, 537000, Note_on_c, 0, 62, 0
1, 537000, Note_on_c, 0, 60, 76
1, 537040, Tempo, 334262
1, 537120, Tempo, 333333
1, 537120, Note_on_c, 0, 60, 0
1, 537120, Note_on_c, 0, 58, 76
1, 537200, Tempo, 332410
1, 537240, Note_on_c, 0, 58, 0
1, 537240, Note_on_c, 0, 57, 79
1, 537280, Tempo, 331492
1, 537360, Tempo, 330579
1, 537360, Note_on_c, 0, 57, 0
1, 537360, Note_on_c, 0, 55, 81
1, 537440, Tempo, 329670
1, 537480, Note_on_c, 0, 55, 0
1, 537480, Note_on_c, 0, 54, 83
1, 537520, Tempo, 328767
1, 537600, Tempo, 327869
1, 537600, Note_on_c, 0, 54, 0
1, 537600, Note_on_c, 0, 51, 84
1, 537680, Tempo, 326975
1, 537720, Note_on_c, 0, 51, 0
1, 537720, Note_on_c, 0, 50, 84
1, 537760, Tempo, 326087
1, 537840, Tempo, 325203
1, 537840, Note_on_c, 0, 50, 0
1, 537840, Note_on_c, 0, 48, 85
1, 537900, Tempo, 326087
1, 537960, Tempo, 326975
1, 537960, Note_on_c, 0, 48, 0
1, 537960, Note_on_c, 0, 46, 86
1, 538000, Tempo, 327869
1, 538060, Tempo, 328767
1, 538080, Note_on_c, 0, 46, 0
1, 538080, Note_on_c, 0, 45, 88
1, 538120, Tempo, 329670
1, 538160, Tempo, 330579
1, 538200, Note_on_c, 0, 45, 0
1, 538200, Note_on_c, 0, 43, 89
1, 538220, Tempo, 331492
1, 538280, Tempo, 332410
1, 538320, Tempo, 333333
1, 538320, Note_on_c, 0, 43, 0
1, 538320, Note_on_c, 0, 42, 91
1, 538380, Tempo, 334262
1, 538440, Tempo, 335196
1, 538440, Note_on_c, 0, 42, 0
1, 538440, Note_on_c, 0, 39, 93
1, 538480, Tempo, 336134
1, 538540, Tempo, 337079
1, 538560, Note_on_c, 0, 39, 0
1, 538560, Note_on_c, 0, 38, 94
1, 538600, Tempo, 338028
1, 538640, Tempo, 338983
1, 538680, Note_on_c, 0, 38, 0
1, 538680, Note_on_c, 0, 36, 94
1, 538700, Tempo, 339943
1, 538760, Tempo, 340909
1, 538800, Tempo, 341880
1, 538800, Note_on_c, 0, 36, 0
1, 538800, Note_on_c, 0, 34, 95
1, 538860, Tempo, 342857
1, 538920, Tempo, 343840
1, 538920, Note_on_c, 0, 34, 0
1, 538920, Note_on_c, 0, 33, 97
1, 538960, Tempo, 344828
1, 539020, Tempo, 345821
1, 539040, Time_signature, 4, 3, 12, 8
1, 539040, Note_on_c, 0, 33, 0
1, 539040, Note_on_c, 0, 31, 115
1, 539060, Tempo, 346821
1, 540000, Time_signature, 21, 4, 6, 8
1, 540020, Tempo, 340909
1, 540120, Note_on_c, 0, 31, 0
1, 540120, Note_on_c, 0, 45, 75
1, 540120, Note_on_c, 0, 33, 65
1, 540140, Tempo, 339943
1, 540240, Tempo, 338983
1, 540240, Note_on_c, 0, 33, 0
1, 540240, Note_on_c, 0, 45, 0
1, 540240, Note_on_c, 0, 46, 75
1, 540240, Note_on_c, 0, 34, 65
1, 540360, Tempo, 338028
1, 540360, Note_on_c, 0, 34, 0
1, 540360, Note_on_c, 0, 46, 0
1, 540360, Note_on_c, 0, 48, 76
1, 540360, Note_on_c, 0, 36, 66
1, 540460, Tempo, 337079
1, 540480, Note_on_c, 0, 36, 0
1, 540480, Note_on_c, 0, 48, 0
1, 540480, Note_on_c, 0, 50, 77
1, 540480, Note_on_c, 0, 38, 67
1, 540580, Tempo, 336134
1, 540600, Note_on_c, 0, 38, 0
1, 540600, Note_on_c, 0, 50, 0
1, 540600, Note_on_c, 0, 52, 77
1, 540600, Note_on_c, 0, 40, 67
1, 540680, Tempo, 335196
1, 540720, Note_on_c, 0, 40, 0
1, 540720, Note_on_c, 0, 52, 0
1, 540720, Note_on_c, 0, 54, 78
1, 540720, Note_on_c, 0, 42, 68
1, 540800, Tempo, 334262
1, 540840, Note_on_c, 0, 42, 0
1, 540840, Note_on_c, 0, 54, 0
1, 540840, Note_on_c, 0, 55, 78
1, 540840, Note_on_c, 0, 43, 68
1, 540900, Tempo, 333333
1, 540960, Note_on_c, 0, 43, 0
1, 540960, Note_on_c, 0, 55, 0
1, 540960, Note_on_c, 0, 57, 79
1, 540960, Note_on_c, 0, 45, 69
1, 541000, Tempo, 332410
1, 541080, Note_on_c, 0, 45, 0
1, 541080, Note_on_c, 0, 57, 0
1, 541080, Note_on_c, 0, 58, 80
1, 541080, Note_on_c, 0, 46, 69
1, 541097, Control_c, 0, 64, 0
1, 541143, Control_c, 0, 64, 127
1, 541200, Note_on_c, 0, 46, 0
1, 541200, Note_on_c, 0, 58, 0
1, 541200, Note_on_c, 0, 60, 80
1, 541200, Note_on_c, 0, 48, 70
1, 541320, Note_on_c, 0, 48, 0
1, 541320, Note_on_c, 0, 60, 0
1, 541320, Note_on_c, 0, 62, 81
1, 541320, Note_on_c, 0, 50, 70
1, 541440, Note_on_c, 0, 50, 0
1, 541440, Note_on_c, 0, 62, 0
1, 541440, Note_on_c, 0, 64, 81
1, 541440, Note_on_c, 0, 52, 71
1, 541560, Tempo, 332410
1, 541560, Note_on_c, 0, 52, 0
1, 541560, Note_on_c, 0, 64, 0
1, 541560, Note_on_c, 0, 66, 82
1, 541560, Note_on_c, 0, 54, 72
1, 541620, Tempo, 333333
1, 541680, Tempo, 334262
1, 541680, Note_on_c, 0, 54, 0
1, 541680, Note_on_c, 0, 66, 0
1, 541680, Note_on_c, 0, 67, 83
1, 541680, Note_on_c, 0, 55, 72
1, 541720, Tempo, 335196
1, 541780, Tempo, 336134
1, 541800, Note_on_c, 0, 55, 0
1, 541800, Note_on_c, 0, 67, 0
1, 541800, Note_on_c, 0, 69, 83
1, 541800, Note_on_c, 0, 57, 73
1, 541840, Tempo, 337079
1, 541880, Tempo, 338028
1, 541920, Note_on_c, 0, 57, 0
1, 541920, Note_on_c, 0, 69, 0
1, 541920, Note_on_c, 0, 70, 84
1, 541920, Note_on_c, 0, 58, 73
1, 541940, Tempo, 338983
1, 542000, Tempo, 339943
1, 542040, Tempo, 340909
1, 542040, Note_on_c, 0, 58, 0
1, 542040, Note_on_c, 0, 70, 0
1, 542040, Note_on_c, 0, 72, 84
1, 542040, Note_on_c, 0, 60, 74
1, 542100, Tempo, 341880
1, 542160, Tempo, 342857
1, 542160, Note_on_c, 0, 60, 0
1, 542160, Note_on_c, 0, 72, 0
1, 542160, Note_on_c, 0, 74, 85
1, 542160, Note_on_c, 0, 62, 74
1, 542200, Tempo, 343840
1, 542260, Tempo, 344828
1, 542280, Note_on_c, 0, 62, 0
1, 542280, Note_on_c, 0, 74, 0
1, 542280, Note_on_c, 0, 76, 86
1, 542280, Note_on_c, 0, 64, 75
1, 542320, Tempo, 345821
1, 542360, Tempo, 346821
1, 542400, Note_on_c, 0, 64, 0
1, 542400, Note_on_c, 0, 76, 0
1, 542400, Note_on_c, 0, 78, 86
1, 542400, Note_on_c, 0, 66, 76
1, 542420, Tempo, 347826
1, 542480, Tempo, 348837
1, 542520, Time_signature, 4, 3, 12, 8
1, 542520, Tempo, 1500000
1, 542520, Note_on_c, 0, 66, 0
1, 542520, Note_on_c, 0, 78, 0
1, 542520, Note_on_c, 0, 79, 89
1, 542520, Note_on_c, 0, 67, 83
1, 542520, Control_c, 0, 64, 0
1, 542640, Note_on_c, 0, 67, 0
1, 542640, Note_on_c, 0, 79, 0
1, 543000, Tempo, 1578947
1, 543000, Note_on_c, 0, 50, 31
1, 543000, Note_on_c, 0, 43, 26
1, 543000, Note_on_c, 0, 31, 26
1, 543000, Note_on_c, 0, 55, 31
1, 543000, Note_on_c, 0, 58, 38
1, 543064, Control_c, 0, 64, 127
1, 543360, Note_on_c, 0, 58, 0
1, 543360, Note_on_c, 0, 31, 0
1, 543360, Note_on_c, 0, 50, 0
1, 543360, Note_on_c, 0, 43, 0
1, 543360, Note_on_c, 0, 55, 0
1, 543360, Note_on_c, 0, 31, 26
1, 543360, Note_on_c, 0, 55, 31
1, 543360, Note_on_c, 0, 58, 38
1, 543360, Note_on_c, 0, 43, 26
1, 543360, Note_on_c, 0, 50, 31
1, 543480, Note_on_c, 0, 50, 0
1, 543480, Note_on_c, 0, 58, 0
1, 543480, Note_on_c, 0, 31, 0
1, 543480, Note_on_c, 0, 55, 0
1, 543480, Note_on_c, 0, 43, 0
1, 543480, Note_on_c, 0, 31, 26
1, 543480, Note_on_c, 0, 43, 26
1, 543480, Note_on_c, 0, 55, 31
1, 543480, Note_on_c, 0, 58, 38
1, 543480, Note_on_c, 0, 50, 31
1, 543720, Tempo, 1304348
1, 543918, Control_c, 0, 64, 0
1, 543960, Tempo, 1445783
1, 543960, Note_on_c, 0, 50, 0
1, 543960, Note_on_c, 0, 55, 0
1, 543960, Note_on_c, 0, 31, 0
1, 543960, Note_on_c, 0, 43, 0
1, 543960, Note_on_c, 0, 58, 0
1, 544040, Note_on_c, 0, 50, 84
1, 544040, Note_on_c, 0, 38, 75
1, 544080, Tempo, 1333333
1, 544120, Note_on_c, 0, 38, 0
1, 544120, Note_on_c, 0, 50, 0
1, 544120, Note_on_c, 0, 43, 71
1, 544120, Note_on_c, 0, 55, 80
1, 544200, Tempo, 1348315
1, 544200, Note_on_c, 0, 55, 0
1, 544200, Note_on_c, 0, 43, 0
1, 544200, Note_on_c, 0, 45, 77
1, 544200, Note_on_c, 0, 57, 85
1, 544280, Tempo, 1276596
1, 544280, Note_on_c, 0, 57, 0
1, 544280, Note_on_c, 0, 45, 0
1, 544280, Note_on_c, 0, 48, 79
1, 544280, Note_on_c, 0, 60, 89
1, 544360, Tempo, 1363636
1, 544360, Note_on_c, 0, 60, 0
1, 544360, Note_on_c, 0, 48, 0
1, 544360, Note_on_c, 0, 46, 74
1, 544360, Note_on_c, 0, 58, 83
1, 544430, Note_on_c, 0, 58, 0
1, 544430, Note_on_c, 0, 46, 0
1, 544440, Tempo, 1200000
1, 544440, Note_on_c, 0, 46, 82
1, 544440, Note_on_c, 0, 58, 92
1, 544560, Note_on_c, 0, 58, 0
1, 544560, Note_on_c, 0, 46, 0
1, 544920, Note_on_c, 0, 46, 85
1, 544920, Note_on_c, 0, 31, 79
1, 545380, Tempo, 347826
1, 545400, Time_signature, 28, 4, 6, 8
1, 545520, Note_on_c, 0, 31, 0
1, 545520, Note_on_c, 0, 46, 0
1, 545520, Note_on_c, 0, 48, 71
1, 545520, Note_on_c, 0, 33, 52
1, 545580, Tempo, 346821
1, 545640, Note_on_c, 0, 33, 0
1, 545640, Note_on_c, 0, 48, 0
1, 545640, Note_on_c, 0, 50, 71
1, 545640, Note_on_c, 0, 34, 52
1, 545760, Tempo, 345821
1, 545760, Note_on_c, 0, 34, 0
1, 545760, Note_on_c, 0, 50, 0
1, 545760, Note_on_c, 0, 52, 71
1, 545760, Note_on_c, 0, 36, 53
1, 545880, Note_on_c, 0, 36, 0
1, 545880, Note_on_c, 0, 52, 0
1, 545880, Note_on_c, 0, 54, 72
1, 545880, Note_on_c, 0, 38, 53
1, 545960, Tempo, 344828
1, 546000, Note_on_c, 0, 38, 0
1, 546000, Note_on_c, 0, 54, 0
1, 546000, Note_on_c, 0, 55, 72
1, 546000, Note_on_c, 0, 40, 54
1, 546057, Control_c, 0, 64, 127
1, 546120, Note_on_c, 0, 40, 0
1, 546120, Note_on_c, 0, 55, 0
1, 546120, Note_on_c, 0, 57, 72
1, 546120, Note_on_c, 0, 42, 54
1, 546140, Tempo, 343840
1, 546240, Note_on_c, 0, 42, 0
1, 546240, Note_on_c, 0, 57, 0
1, 546240, Note_on_c, 0, 58, 73
1, 546240, Note_on_c, 0, 43, 55
1, 546340, Tempo, 342857
1, 546360, Note_on_c, 0, 43, 0
1, 546360, Note_on_c, 0, 58, 0
1, 546360, Note_on_c, 0, 60, 73
1, 546360, Note_on_c, 0, 45, 55
1, 546480, Note_on_c, 0, 45, 0
1, 546480, Note_on_c, 0, 60, 0
1, 546480, Note_on_c, 0, 62, 73
1, 546480, Note_on_c, 0, 46, 56
1, 546520, Tempo, 341880
1, 546600, Note_on_c, 0, 46, 0
1, 546600, Note_on_c, 0, 62, 0
1, 546600, Note_on_c, 0, 64, 74
1, 546600, Note_on_c, 0, 48, 56
1, 546700, Tempo, 340909
1, 546720, Note_on_c, 0, 48, 0
1, 546720, Note_on_c, 0, 64, 0
1, 546720, Note_on_c, 0, 66, 74
1, 546720, Note_on_c, 0, 50, 57
1, 546840, Note_on_c, 0, 50, 0
1, 546840, Note_on_c, 0, 66, 0
1, 546840, Note_on_c, 0, 67, 74
1, 546840, Note_on_c, 0, 52, 57
1, 546900, Tempo, 339943
1, 546960, Note_on_c, 0, 52, 0
1, 546960, Note_on_c, 0, 67, 0
1, 546960, Note_on_c, 0, 69, 75
1, 546960, Note_on_c, 0, 54, 58
1, 547080, Tempo, 338983
1, 547080, Note_on_c, 0, 54, 0
1, 547080, Note_on_c, 0, 69, 0
1, 547080, Note_on_c, 0, 70, 75
1, 547080, Note_on_c, 0, 55, 58
1, 547200, Note_on_c, 0, 55, 0
1, 547200, Note_on_c, 0, 70, 0
1, 547200, Note_on_c, 0, 72, 75
1, 547200, Note_on_c, 0, 57, 59
1, 547280, Tempo, 338028
1, 547320, Note_on_c, 0, 57, 0
1, 547320, Note_on_c, 0, 72, 0
1, 547320, Note_on_c, 0, 74, 76
1, 547320, Note_on_c, 0, 58, 60
1, 547440, Note_on_c, 0, 58, 0
1, 547440, Note_on_c, 0, 74, 0
1, 547440, Note_on_c, 0, 76, 76
1, 547440, Note_on_c, 0, 60, 60
1, 547460, Tempo, 337079
1, 547560, Note_on_c, 0, 60, 0
1, 547560, Note_on_c, 0, 76, 0
1, 547560, Note_on_c, 0, 78, 76
1, 547560, Note_on_c, 0, 62, 61
1, 547640, Tempo, 336134
1, 547680, Note_on_c, 0, 62, 0
1, 547680, Note_on_c, 0, 78, 0
1, 547680, Note_on_c, 0, 79, 77
1, 547680, Note_on_c, 0, 64, 61
1, 547720, Tempo, 334262
1, 547800, Note_on_c, 0, 64, 0
1, 547800, Note_on_c, 0, 79, 0
1, 547800, Note_on_c, 0, 81, 77
1, 547800, Note_on_c, 0, 66, 62
1, 547840, Tempo, 335196
1, 547920, Note_on_c, 0, 66, 0
1, 547920, Note_on_c, 0, 81, 0
1, 547920, Note_on_c, 0, 82, 77
1, 547920, Note_on_c, 0, 67, 62
1, 547940, Tempo, 336134
1, 548040, Tempo, 337079
1, 548040, Note_on_c, 0, 67, 0
1, 548040, Note_on_c, 0, 82, 0
1, 548040, Note_on_c, 0, 84, 78
1, 548040, Note_on_c, 0, 69, 63
1, 548140, Tempo, 338028
1, 548160, Note_on_c, 0, 69, 0
1, 548160, Note_on_c, 0, 84, 0
1, 548160, Note_on_c, 0, 86, 78
1, 548160, Note_on_c, 0, 70, 63
1, 548240, Tempo, 338983
1, 548280, Note_on_c, 0, 70, 0
1, 548280, Note_on_c, 0, 86, 0
1, 548280, Note_on_c, 0, 88, 78
1, 548280, Note_on_c, 0, 72, 64
1, 548340, Tempo, 339943
1, 548400, Note_on_c, 0, 72, 0
1, 548400, Note_on_c, 0, 88, 0
1, 548400, Note_on_c, 0, 90, 79
1, 548400, Note_on_c, 0, 74, 64
1, 548440, Tempo, 340909
1, 548520, Note_on_c, 0, 74, 0
1, 548520, Note_on_c, 0, 90, 0
1, 548520, Note_on_c, 0, 91, 79
1, 548520, Note_on_c, 0, 76, 65
1, 548540, Tempo, 341880
1, 548640, Tempo, 342857
1, 548640, Note_on_c, 0, 76, 0
1, 548640, Note_on_c, 0, 91, 0
1, 548640, Note_on_c, 0, 93, 79
1, 548640, Note_on_c, 0, 78, 65
1, 548731, Control_c, 0, 64, 0
1, 548740, Tempo, 343840
1, 548760, Time_signature, 4, 3, 12, 8
1, 548760, Tempo, 1200000
1, 548760, Note_on_c, 0, 78, 0
1, 548760, Note_on_c, 0, 93, 0
1, 548760, Note_on_c, 0, 94, 87
1, 548760, Note_on_c, 0, 79, 70
1, 548880, Note_on_c, 0, 79, 0
1, 548880, Note_on_c, 0, 94, 0
1, 549240, Tempo, 1445783
1, 549240, Note_on_c, 0, 50, 37
1, 549240, Note_on_c, 0, 62, 45
1, 549240, Note_on_c, 0, 58, 37
1, 549240, Note_on_c, 0, 55, 37
1, 549240, Note_on_c, 0, 43, 26
1, 549240, Note_on_c, 0, 31, 26
1, 549247, Control_c, 0, 64, 127
1, 549600, Note_on_c, 0, 31, 0
1, 549600, Note_on_c, 0, 62, 0
1, 549600, Note_on_c, 0, 58, 0
1, 549600, Note_on_c, 0, 50, 0
1, 549600, Note_on_c, 0, 43, 0
1, 549600, Note_on_c, 0, 55, 0
1, 549600, Note_on_c, 0, 50, 37
1, 549600, Note_on_c, 0, 62, 45
1, 549600, Note_on_c, 0, 58, 37
1, 549600, Note_on_c, 0, 55, 37
1, 549600, Note_on_c, 0, 31, 26
1, 549600, Note_on_c, 0, 43, 26
1, 549720, Note_on_c, 0, 43, 0
1, 549720, Note_on_c, 0, 62, 0
1, 549720, Note_on_c, 0, 58, 0
1, 549720, Note_on_c, 0, 50, 0
1, 549720, Note_on_c, 0, 31, 0
1, 549720, Note_on_c, 0, 55, 0
1, 549720, Note_on_c, 0, 55, 37
1, 549720, Note_on_c, 0, 50, 37
1, 549720, Note_on_c, 0, 58, 37
1, 549720, Note_on_c, 0, 62, 45
1, 549720, Note_on_c, 0, 31, 26
1, 549720, Note_on_c, 0, 43, 26
1, 549960, Tempo, 1290323
1, 550151, Control_c, 0, 64, 0
1, 550200, Tempo, 1428571
1, 550200, Note_on_c, 0, 43, 0
1, 550200, Note_on_c, 0, 50, 0
1, 550200, Note_on_c, 0, 58, 0
1, 550200, Note_on_c, 0, 55, 0
1, 550200, Note_on_c, 0, 31, 0
1, 550200, Note_on_c, 0, 62, 0
1, 550280, Note_on_c, 0, 62, 94
1, 550280, Note_on_c, 0, 50, 86
1, 550320, Tempo, 1363636
1, 550360, Note_on_c, 0, 50, 0
1, 550360, Note_on_c, 0, 62, 0
1, 550360, Note_on_c, 0, 67, 94
1, 550360, Note_on_c, 0, 55, 86
1, 550440, Note_on_c, 0, 55, 0
1, 550440, Note_on_c, 0, 67, 0
1, 550440, Note_on_c, 0, 70, 99
1, 550440, Note_on_c, 0, 58, 89
1, 550520, Tempo, 1276596
1, 550520, Note_on_c, 0, 58, 0
1, 550520, Note_on_c, 0, 70, 0
1, 550520, Note_on_c, 0, 75, 100
1, 550520, Note_on_c, 0, 63, 90
1, 550600, Tempo, 1379310
1, 550600, Note_on_c, 0, 63, 0
1, 550600, Note_on_c, 0, 75, 0
1, 550600, Note_on_c, 0, 74, 94
1, 550600, Note_on_c, 0, 62, 86
1, 550670, Note_on_c, 0, 62, 0
1, 550670, Note_on_c, 0, 74, 0
1, 550680, Tempo, 1395349
1, 550680, Note_on_c, 0, 74, 94
1, 550680, Note_on_c, 0, 62, 86
1, 550760, Tempo, 1379310
1, 550800, Note_on_c, 0, 62, 0
1, 550800, Note_on_c, 0, 74, 0
1, 551130, Note_on_c, 0, 100, 104
1, 551130, Note_on_c, 0, 34, 74
1, 551140, Tempo, 1290323
1, 551160, Tempo, 1463415
1, 551160, Note_on_c, 0, 88, 109
1, 551160, Note_on_c, 0, 46, 77
1, 551166, Control_c, 0, 64, 127
1, 551220, Tempo, 1445783
1, 551260, Note_on_c, 0, 46, 0
1, 551260, Note_on_c, 0, 88, 0
1, 551260, Note_on_c, 0, 100, 0
1, 551280, Tempo, 1428571
1, 551290, Note_on_c, 0, 99, 106
1, 551290, Note_on_c, 0, 35, 76
1, 551291, Note_on_c, 0, 34, 0
1, 551320, Note_on_c, 0, 87, 108
1, 551320, Note_on_c, 0, 47, 76
1, 551340, Tempo, 1411765
1, 551400, Tempo, 1395349
1, 551420, Note_on_c, 0, 47, 0
1, 551420, Note_on_c, 0, 99, 0
1, 551420, Note_on_c, 0, 35, 0
1, 551420, Note_on_c, 0, 87, 0
1, 551450, Note_on_c, 0, 98, 104
1, 551450, Note_on_c, 0, 36, 75
1, 551460, Tempo, 1379310
1, 551480, Note_on_c, 0, 86, 107
1, 551480, Note_on_c, 0, 48, 75
1, 551520, Tempo, 1363636
1, 551580, Tempo, 1348315
1, 551580, Note_on_c, 0, 48, 0
1, 551580, Note_on_c, 0, 98, 0
1, 551580, Note_on_c, 0, 36, 0
1, 551580, Note_on_c, 0, 86, 0
1, 551610, Note_on_c, 0, 97, 100
1, 551610, Note_on_c, 0, 37, 74
1, 551620, Tempo, 1333333
1, 551640, Tempo, 1290323
1, 551640, Note_on_c, 0, 85, 106
1, 551640, Note_on_c, 0, 49, 74
1, 551646, Control_c, 0, 64, 0
1, 551674, Control_c, 0, 64, 127
1, 551720, Tempo, 1276596
1, 551740, Note_on_c, 0, 49, 0
1, 551740, Note_on_c, 0, 97, 0
1, 551740, Note_on_c, 0, 37, 0
1, 551740, Note_on_c, 0, 85, 0
1, 551770, Note_on_c, 0, 96, 102
1, 551770, Note_on_c, 0, 38, 73
1, 551784, Tempo, 1263158
1, 551800, Note_on_c, 0, 84, 103
1, 551800, Note_on_c, 0, 50, 73
1, 551852, Tempo, 1250000
1, 551900, Note_on_c, 0, 50, 0
1, 551900, Note_on_c, 0, 96, 0
1, 551900, Note_on_c, 0, 38, 0
1, 551900, Note_on_c, 0, 84, 0
1, 551920, Tempo, 1237113
1, 551930, Note_on_c, 0, 95, 103
1, 551930, Note_on_c, 0, 39, 75
1, 551960, Note_on_c, 0, 83, 102
1, 551960, Note_on_c, 0, 51, 72
1, 551984, Tempo, 1224490
1, 552052, Tempo, 1212121
1, 552060, Note_on_c, 0, 51, 0
1, 552060, Note_on_c, 0, 95, 0
1, 552060, Note_on_c, 0, 39, 0
1, 552060, Note_on_c, 0, 83, 0
1, 552090, Note_on_c, 0, 94, 102
1, 552090, Note_on_c, 0, 40, 74
1, 552120, Tempo, 1200000
1, 552120, Note_on_c, 0, 82, 101
1, 552120, Note_on_c, 0, 52, 73
1, 552134, Control_c, 0, 64, 0
1, 552171, Control_c, 0, 64, 127
1, 552200, Tempo, 1188119
1, 552220, Note_on_c, 0, 52, 0
1, 552220, Note_on_c, 0, 94, 0
1, 552220, Note_on_c, 0, 40, 0
1, 552220, Note_on_c, 0, 82, 0
1, 552250, Note_on_c, 0, 93, 101
1, 552250, Note_on_c, 0, 41, 72
1, 552264, Tempo, 1176471
1, 552280, Note_on_c, 0, 81, 100
1, 552280, Note_on_c, 0, 53, 72
1, 552332, Tempo, 1165049
1, 552380, Note_on_c, 0, 53, 0
1, 552380, Note_on_c, 0, 93, 0
1, 552380, Note_on_c, 0, 41, 0
1, 552380, Note_on_c, 0, 81, 0
1, 552400, Tempo, 1153846
1, 552410, Note_on_c, 0, 92, 99
1, 552410, Note_on_c, 0, 42, 72
1, 552440, Note_on_c, 0, 80, 99
1, 552440, Note_on_c, 0, 54, 72
1, 552464, Tempo, 1142857
1, 552532, Tempo, 1132075
1, 552540, Note_on_c, 0, 54, 0
1, 552540, Note_on_c, 0, 92, 0
1, 552540, Note_on_c, 0, 42, 0
1, 552540, Note_on_c, 0, 80, 0
1, 552600, Tempo, 1121495
1, 552600, Note_on_c, 0, 79, 88
1, 552600, Note_on_c, 0, 91, 98
1, 552600, Note_on_c, 0, 55, 72
1, 552600, Note_on_c, 0, 43, 66
1, 552615, Control_c, 0, 64, 0
1, 552620, Tempo, 754717
1, 552640, Tempo, 745342
1, 552660, Tempo, 736196
1, 552674, Control_c, 0, 64, 127
1, 552680, Tempo, 727273
1, 552700, Tempo, 718563
1, 552720, Tempo, 714286
1, 552720, Note_on_c, 0, 43, 0
1, 552720, Note_on_c, 0, 79, 0
1, 552720, Note_on_c, 0, 91, 0
1, 552720, Note_on_c, 0, 55, 0
1, 552740, Tempo, 705882
1, 552760, Tempo, 697674
1, 552760, Note_on_c, 0, 90, 97
1, 552760, Note_on_c, 0, 78, 87
1, 552760, Note_on_c, 0, 42, 66
1, 552760, Note_on_c, 0, 54, 72
1, 552780, Tempo, 689655
1, 552800, Tempo, 681818
1, 552820, Tempo, 674157
1, 552840, Tempo, 670391
1, 552860, Tempo, 662983
1, 552880, Tempo, 655738
1, 552880, Note_on_c, 0, 54, 0
1, 552880, Note_on_c, 0, 90, 0
1, 552880, Note_on_c, 0, 78, 0
1, 552880, Note_on_c, 0, 42, 0
1, 552900, Tempo, 648649
1, 552920, Tempo, 641711
1, 552920, Note_on_c, 0, 89, 97
1, 552920, Note_on_c, 0, 77, 87
1, 552920, Note_on_c, 0, 41, 65
1, 552920, Note_on_c, 0, 53, 71
1, 552940, Tempo, 634921
1, 552960, Tempo, 628272
1, 552980, Tempo, 625000
1, 553000, Tempo, 618557
1, 553020, Tempo, 612245
1, 553040, Tempo, 606061
1, 553040, Note_on_c, 0, 53, 0
1, 553040, Note_on_c, 0, 89, 0
1, 553040, Note_on_c, 0, 77, 0
1, 553040, Note_on_c, 0, 41, 0
1, 553060, Tempo, 600000
1, 553080, Tempo, 594059
1, 553080, Note_on_c, 0, 76, 86
1, 553080, Note_on_c, 0, 88, 96
1, 553080, Note_on_c, 0, 52, 70
1, 553080, Note_on_c, 0, 40, 64
1, 553088, Control_c, 0, 64, 0
1, 553100, Tempo, 591133
1, 553111, Control_c, 0, 64, 127
1, 553120, Tempo, 585366
1, 553140, Tempo, 579710
1, 553160, Tempo, 574163
1, 553180, Tempo, 568720
1, 553200, Tempo, 563380
1, 553200, Note_on_c, 0, 40, 0
1, 553200, Note_on_c, 0, 76, 0
1, 553200, Note_on_c, 0, 88, 0
1, 553200, Note_on_c, 0, 52, 0
1, 553220, Tempo, 560748
1, 553240, Tempo, 555556
1, 553240, Note_on_c, 0, 87, 95
1, 553240, Note_on_c, 0, 75, 85
1, 553240, Note_on_c, 0, 51, 69
1, 553240, Note_on_c, 0, 39, 63
1, 553260, Tempo, 550459
1, 553280, Tempo, 545455
1, 553300, Tempo, 540541
1, 553320, Tempo, 535714
1, 553340, Tempo, 530973
1, 553360, Tempo, 524017
1, 553360, Note_on_c, 0, 39, 0
1, 553360, Note_on_c, 0, 87, 0
1, 553360, Note_on_c, 0, 75, 0
1, 553360, Note_on_c, 0, 51, 0
1, 553380, Tempo, 515021
1, 553400, Tempo, 506329
1, 553400, Note_on_c, 0, 74, 84
1, 553400, Note_on_c, 0, 86, 94
1, 553400, Note_on_c, 0, 50, 67
1, 553400, Note_on_c, 0, 38, 61
1, 553420, Tempo, 497925
1, 553440, Tempo, 489796
1, 553460, Tempo, 481928
1, 553480, Tempo, 474308
1, 553500, Tempo, 466926
1, 553520, Tempo, 459770
1, 553520, Note_on_c, 0, 38, 0
1, 553520, Note_on_c, 0, 74, 0
1, 553520, Note_on_c, 0, 86, 0
1, 553520, Note_on_c, 0, 50, 0
1, 553540, Tempo, 452830
1, 553560, Tempo, 446097
1, 553560, Note_on_c, 0, 85, 93
1, 553560, Note_on_c, 0, 73, 83
1, 553560, Note_on_c, 0, 49, 66
1, 553560, Note_on_c, 0, 37, 60
1, 553566, Control_c, 0, 64, 0
1, 553580, Tempo, 441176
1, 553600, Tempo, 434783
1, 553606, Control_c, 0, 64, 127
1, 553620, Tempo, 428571
1, 553640, Tempo, 422535
1, 553660, Tempo, 416667
1, 553680, Tempo, 410959
1, 553680, Note_on_c, 0, 37, 0
1, 553680, Note_on_c, 0, 85, 0
1, 553680, Note_on_c, 0, 73, 0
1, 553680, Note_on_c, 0, 49, 0
1, 553700, Tempo, 405405
1, 553720, Tempo, 400000
1, 553720, Note_on_c, 0, 84, 91
1, 553720, Note_on_c, 0, 72, 81
1, 553720, Note_on_c, 0, 48, 66
1, 553720, Note_on_c, 0, 36, 60
1, 553740, Tempo, 394737
1, 553760, Tempo, 389610
1, 553780, Tempo, 384615
1, 553800, Tempo, 380952
1, 553820, Tempo, 376176
1, 553840, Tempo, 371517
1, 553840, Note_on_c, 0, 36, 0
1, 553840, Note_on_c, 0, 84, 0
1, 553840, Note_on_c, 0, 72, 0
1, 553840, Note_on_c, 0, 48, 0
1, 553860, Tempo, 366972
1, 553880, Tempo, 362538
1, 553880, Note_on_c, 0, 83, 95
1, 553880, Note_on_c, 0, 71, 85
1, 553880, Note_on_c, 0, 35, 60
1, 553880, Note_on_c, 0, 47, 66
1, 553900, Tempo, 358209
1, 553920, Tempo, 353982
1, 553940, Tempo, 349854
1, 553960, Tempo, 345821
1, 553980, Tempo, 341880
1, 554000, Tempo, 338028
1, 554000, Note_on_c, 0, 47, 0
1, 554000, Note_on_c, 0, 83, 0
1, 554000, Note_on_c, 0, 71, 0
1, 554000, Note_on_c, 0, 35, 0
1, 554020, Tempo, 334262
1, 554040, Tempo, 331492
1, 554040, Note_on_c, 0, 70, 89
1, 554040, Note_on_c, 0, 82, 99
1, 554040, Note_on_c, 0, 34, 67
1, 554040, Note_on_c, 0, 46, 73
1, 554050, Control_c, 0, 64, 0
1, 554060, Tempo, 327869
1, 554080, Tempo, 324324
1, 554097, Control_c, 0, 64, 127
1, 554100, Tempo, 320856
1, 554120, Tempo, 317460
1, 554140, Tempo, 314136
1, 554148, Tempo, 315789
1, 554160, Tempo, 317460
1, 554160, Note_on_c, 0, 46, 0
1, 554160, Note_on_c, 0, 70, 0
1, 554160, Note_on_c, 0, 82, 0
1, 554160, Note_on_c, 0, 34, 0
1, 554168, Tempo, 319149
1, 554180, Tempo, 320856
1, 554188, Tempo, 323450
1, 554200, Tempo, 325203
1, 554200, Note_on_c, 0, 81, 103
1, 554200, Note_on_c, 0, 69, 92
1, 554200, Note_on_c, 0, 33, 72
1, 554200, Note_on_c, 0, 45, 79
1, 554208, Tempo, 326975
1, 554220, Tempo, 329670
1, 554228, Tempo, 331492
1, 554240, Tempo, 333333
1, 554248, Tempo, 336134
1, 554260, Tempo, 338028
1, 554268, Tempo, 339943
1, 554280, Tempo, 342857
1, 554288, Tempo, 344828
1, 554300, Tempo, 346821
1, 554308, Tempo, 349854
1, 554320, Tempo, 351906
1, 554320, Note_on_c, 0, 45, 0
1, 554320, Note_on_c, 0, 81, 0
1, 554320, Note_on_c, 0, 69, 0
1, 554320, Note_on_c, 0, 33, 0
1, 554328, Tempo, 353982
1, 554340, Tempo, 356083
1, 554348, Tempo, 359281
1, 554360, Tempo, 361446
1, 554360, Note_on_c, 0, 68, 97
1, 554360, Note_on_c, 0, 80, 108
1, 554360, Note_on_c, 0, 32, 77
1, 554360, Note_on_c, 0, 44, 84
1, 554368, Tempo, 363636
1, 554380, Tempo, 366972
1, 554388, Tempo, 369231
1, 554400, Tempo, 371517
1, 554408, Tempo, 375000
1, 554420, Tempo, 377358
1, 554428, Tempo, 379747
1, 554440, Tempo, 383387
1, 554448, Tempo, 385852
1, 554460, Tempo, 388350
1, 554468, Tempo, 392157
1, 554480, Tempo, 394737
1, 554480, Note_on_c, 0, 44, 0
1, 554480, Note_on_c, 0, 68, 0
1, 554480, Note_on_c, 0, 80, 0
1, 554480, Note_on_c, 0, 32, 0
1, 554488, Tempo, 397351
1, 554500, Tempo, 401338
1, 554520, Tempo, 416667
1, 554520, Note_on_c, 0, 67, 96
1, 554520, Note_on_c, 0, 79, 113
1, 554520, Note_on_c, 0, 31, 71
1, 554520, Note_on_c, 0, 43, 83
1, 554533, Control_c, 0, 64, 0
1, 554787, Control_c, 0, 64, 127
1, 555000, Note_on_c, 0, 43, 0
1, 555000, Note_on_c, 0, 67, 0
1, 555000, Note_on_c, 0, 79, 0
1, 555000, Note_on_c, 0, 31, 0
1, 555480, Note_on_c, 0, 86, 92
1, 555480, Note_on_c, 0, 82, 92
1, 555480, Note_on_c, 0, 91, 108
1, 555480, Note_on_c, 0, 94, 108
1, 555480, Note_on_c, 0, 67, 95
1, 555480, Note_on_c, 0, 55, 80
1, 555480, Note_on_c, 0, 62, 80
1, 556440, Tempo, 750000
1, 556440, Note_on_c, 0, 62, 0
1, 556440, Note_on_c, 0, 67, 0
1, 556440, Note_on_c, 0, 82, 0
1, 556440, Note_on_c, 0, 91, 0
1, 556440, Note_on_c, 0, 86, 0
1, 556440, Note_on_c, 0, 55, 0
1, 556440, Note_on_c, 0, 94, 0
1, 556440, Note_on_c, 0, 55, 117
1, 556440, Note_on_c, 0, 43, 95
1, 556440, Note_on_c, 0, 31, 80
1, 557400, Note_on_c, 0, 31, 0
1, 557400, Note_on_c, 0, 43, 0
1, 557400, Note_on_c, 0, 55, 0
1, 558360, Tempo, 415225
1, 558360, Control_c, 0, 64, 0
1, 558360, End_track
0, 0, End_of_file
