0, 0, Header, 0, 1, 480
1, 0, Start_track
1, 0, Title_t, "Etüde Opus 10 No. 5"
1, 0, Copyright_t, "Copyright © 2006 von Bernd Krüger. "
1, 0, Text_t, "Frediric Chopin"
1, 0, Text_t, "Allegro maestoso"
1, 0, Text_t, "Dauer: 1:31 Minuten\012"
1, 0, Text_t, "Fertiggestellt am 9.6.2006\012"
1, 0, Time_signature, 3, 2, 24, 8
1, 0, Key_signature, 0, "major"
1, 0, Tempo, 437956
1, 0, Marker_t, "Allegro maestoso"
1, 0, Program_c, 0, 0
1, 0, Control_c, 0, 7, 100
1, 0, Control_c, 0, 10, 64
1, 0, Note_on_c, 0, 60, 69
1, 0, Note_on_c, 0, 55, 69
1, 0, Note_on_c, 0, 64, 79
1, 0, Text_t, "bdca426d104a26ac9dcb070447587523"
1, 0, Control_c, 0, 91, 127
1, 0, Program_c, 0, 0
1, 0, Control_c, 0, 7, 100
1, 0, Control_c, 0, 10, 64
1, 0, Control_c, 0, 64, 127
1, 0, Note_on_c, 0, 36, 77
1, 0, Note_on_c, 0, 24, 73
1, 120, Tempo, 382166
1, 120, Note_on_c, 0, 36, 0
1, 120, Note_on_c, 0, 100, 66
1, 120, Note_on_c, 0, 36, 59
1, 240, Note_on_c, 0, 100, 0
1, 240, Note_on_c, 0, 96, 63
1, 240, Note_on_c, 0, 43, 62
1, 360, Note_on_c, 0, 43, 0
1, 360, Note_on_c, 0, 96, 0
1, 360, Note_on_c, 0, 91, 60
1, 360, Note_on_c, 0, 48, 59
1, 480, Tempo, 368098
1, 480, Note_on_c, 0, 48, 0
1, 480, Note_on_c, 0, 91, 0
1, 480, Note_on_c, 0, 84, 66
1, 480, Note_on_c, 0, 52, 70
1, 528, Tempo, 368098
1, 600, Note_on_c, 0, 52, 0
1, 600, Note_on_c, 0, 84, 0
1, 600, Note_on_c, 0, 88, 56
1, 600, Note_on_c, 0, 48, 59
1, 720, Note_on_c, 0, 48, 0
1, 720, Note_on_c, 0, 88, 0
1, 720, Note_on_c, 0, 84, 60
1, 720, Note_on_c, 0, 55, 62
1, 840, Note_on_c, 0, 55, 0
1, 840, Note_on_c, 0, 84, 0
1, 840, Note_on_c, 0, 79, 57
1, 840, Note_on_c, 0, 60, 60
1, 888, Tempo, 369231
1, 960, Note_on_c, 0, 60, 0
1, 960, Note_on_c, 0, 79, 0
1, 960, Note_on_c, 0, 72, 56
1, 960, Note_on_c, 0, 64, 76
1, 1080, Note_on_c, 0, 64, 0
1, 1080, Note_on_c, 0, 72, 0
1, 1080, Note_on_c, 0, 79, 50
1, 1080, Note_on_c, 0, 60, 61
1, 1200, Note_on_c, 0, 60, 0
1, 1200, Note_on_c, 0, 79, 0
1, 1200, Note_on_c, 0, 84, 55
1, 1200, Note_on_c, 0, 67, 63
1, 1224, Tempo, 370370
1, 1320, Note_on_c, 0, 67, 0
1, 1320, Note_on_c, 0, 84, 0
1, 1320, Note_on_c, 0, 88, 52
1, 1320, Note_on_c, 0, 72, 62
1, 1440, Note_on_c, 0, 72, 0
1, 1440, Note_on_c, 0, 36, 0
1, 1440, Note_on_c, 0, 55, 0
1, 1440, Note_on_c, 0, 24, 0
1, 1440, Note_on_c, 0, 60, 0
1, 1440, Note_on_c, 0, 88, 0
1, 1440, Note_on_c, 0, 64, 0
1, 1440, Note_on_c, 0, 84, 60
1, 1440, Note_on_c, 0, 76, 76
1, 1560, Note_on_c, 0, 76, 0
1, 1560, Note_on_c, 0, 84, 0
1, 1560, Note_on_c, 0, 79, 48
1, 1560, Note_on_c, 0, 72, 62
1, 1584, Tempo, 371517
1, 1680, Note_on_c, 0, 72, 0
1, 1680, Note_on_c, 0, 79, 0
1, 1680, Note_on_c, 0, 72, 50
1, 1680, Note_on_c, 0, 67, 69
1, 1800, Note_on_c, 0, 67, 0
1, 1800, Note_on_c, 0, 72, 0
1, 1800, Note_on_c, 0, 76, 48
1, 1800, Note_on_c, 0, 60, 60
1, 1920, Tempo, 372671
1, 1920, Note_on_c, 0, 60, 0
1, 1920, Note_on_c, 0, 76, 0
1, 1920, Note_on_c, 0, 72, 54
1, 1920, Note_on_c, 0, 64, 70
1, 2040, Note_on_c, 0, 64, 0
1, 2040, Note_on_c, 0, 72, 0
1, 2040, Note_on_c, 0, 67, 44
1, 2040, Note_on_c, 0, 60, 57
1, 2158, Note_on_c, 0, 60, 0
1, 2160, Note_on_c, 0, 67, 0
1, 2160, Note_on_c, 0, 60, 47
1, 2160, Note_on_c, 0, 55, 61
1, 2256, Tempo, 373832
1, 2280, Tempo, 377358
1, 2280, Note_on_c, 0, 55, 0
1, 2280, Note_on_c, 0, 60, 0
1, 2280, Note_on_c, 0, 64, 75
1, 2280, Note_on_c, 0, 48, 56
1, 2400, Tempo, 378549
1, 2400, Note_on_c, 0, 48, 0
1, 2400, Note_on_c, 0, 60, 51
1, 2400, Note_on_c, 0, 52, 63
1, 2520, Note_on_c, 0, 52, 0
1, 2520, Note_on_c, 0, 60, 0
1, 2520, Note_on_c, 0, 55, 41
1, 2520, Note_on_c, 0, 48, 54
1, 2640, Note_on_c, 0, 48, 0
1, 2640, Note_on_c, 0, 55, 0
1, 2640, Note_on_c, 0, 52, 46
1, 2640, Note_on_c, 0, 43, 57
1, 2760, Tempo, 458015
1, 2760, Note_on_c, 0, 43, 0
1, 2760, Note_on_c, 0, 52, 0
1, 2760, Note_on_c, 0, 48, 40
1, 2760, Note_on_c, 0, 36, 54
1, 2860, Control_c, 0, 64, 0
1, 2880, Tempo, 424028
1, 2880, Note_on_c, 0, 36, 0
1, 2880, Note_on_c, 0, 48, 0
1, 2880, Note_on_c, 0, 64, 0
1, 2880, Note_on_c, 0, 60, 61
1, 2880, Note_on_c, 0, 57, 61
1, 2880, Note_on_c, 0, 65, 77
1, 2880, Note_on_c, 0, 29, 73
1, 2880, Note_on_c, 0, 41, 77
1, 2923, Control_c, 0, 64, 127
1, 3000, Tempo, 379747
1, 3000, Note_on_c, 0, 101, 62
1, 3000, Note_on_c, 0, 36, 59
1, 3120, Note_on_c, 0, 36, 0
1, 3120, Note_on_c, 0, 101, 0
1, 3120, Note_on_c, 0, 96, 59
1, 3120, Note_on_c, 0, 45, 62
1, 3240, Note_on_c, 0, 45, 0
1, 3240, Note_on_c, 0, 96, 0
1, 3240, Note_on_c, 0, 93, 57
1, 3240, Note_on_c, 0, 48, 59
1, 3360, Tempo, 368098
1, 3360, Note_on_c, 0, 48, 0
1, 3360, Note_on_c, 0, 93, 0
1, 3360, Note_on_c, 0, 84, 61
1, 3360, Note_on_c, 0, 53, 70
1, 3480, Note_on_c, 0, 53, 0
1, 3480, Note_on_c, 0, 84, 0
1, 3480, Note_on_c, 0, 89, 54
1, 3480, Note_on_c, 0, 48, 59
1, 3600, Note_on_c, 0, 48, 0
1, 3600, Note_on_c, 0, 89, 0
1, 3600, Note_on_c, 0, 84, 56
1, 3600, Note_on_c, 0, 57, 62
1, 3720, Note_on_c, 0, 57, 0
1, 3720, Note_on_c, 0, 84, 0
1, 3720, Note_on_c, 0, 81, 47
1, 3720, Note_on_c, 0, 60, 60
1, 3840, Note_on_c, 0, 60, 0
1, 3840, Note_on_c, 0, 81, 0
1, 3840, Note_on_c, 0, 72, 52
1, 3840, Note_on_c, 0, 65, 73
1, 3960, Note_on_c, 0, 65, 0
1, 3960, Note_on_c, 0, 72, 0
1, 3960, Note_on_c, 0, 81, 47
1, 3960, Note_on_c, 0, 60, 61
1, 4056, Tempo, 369231
1, 4080, Note_on_c, 0, 60, 0
1, 4080, Note_on_c, 0, 81, 0
1, 4080, Note_on_c, 0, 84, 49
1, 4080, Note_on_c, 0, 69, 63
1, 4200, Note_on_c, 0, 69, 0
1, 4200, Note_on_c, 0, 84, 0
1, 4200, Note_on_c, 0, 88, 48
1, 4200, Note_on_c, 0, 72, 62
1, 4320, Note_on_c, 0, 72, 0
1, 4320, Note_on_c, 0, 41, 0
1, 4320, Note_on_c, 0, 57, 0
1, 4320, Note_on_c, 0, 65, 0
1, 4320, Note_on_c, 0, 60, 0
1, 4320, Note_on_c, 0, 88, 0
1, 4320, Note_on_c, 0, 29, 0
1, 4320, Note_on_c, 0, 84, 57
1, 4320, Note_on_c, 0, 76, 73
1, 4440, Note_on_c, 0, 76, 0
1, 4440, Note_on_c, 0, 84, 0
1, 4440, Note_on_c, 0, 81, 48
1, 4440, Note_on_c, 0, 72, 64
1, 4560, Note_on_c, 0, 72, 0
1, 4560, Note_on_c, 0, 81, 0
1, 4560, Note_on_c, 0, 72, 50
1, 4560, Note_on_c, 0, 69, 72
1, 4680, Note_on_c, 0, 69, 0
1, 4680, Note_on_c, 0, 72, 0
1, 4680, Note_on_c, 0, 76, 48
1, 4680, Note_on_c, 0, 60, 58
1, 4752, Tempo, 370370
1, 4800, Tempo, 373832
1, 4800, Note_on_c, 0, 60, 0
1, 4800, Note_on_c, 0, 76, 0
1, 4800, Note_on_c, 0, 72, 54
1, 4800, Note_on_c, 0, 64, 66
1, 4920, Note_on_c, 0, 64, 0
1, 4920, Note_on_c, 0, 72, 0
1, 4920, Note_on_c, 0, 69, 44
1, 4920, Note_on_c, 0, 60, 57
1, 5038, Note_on_c, 0, 60, 0
1, 5040, Note_on_c, 0, 69, 0
1, 5040, Note_on_c, 0, 60, 47
1, 5040, Note_on_c, 0, 57, 61
1, 5160, Tempo, 441176
1, 5160, Note_on_c, 0, 57, 0
1, 5160, Note_on_c, 0, 60, 0
1, 5160, Note_on_c, 0, 64, 70
1, 5160, Note_on_c, 0, 48, 56
1, 5280, Tempo, 392157
1, 5280, Note_on_c, 0, 48, 0
1, 5280, Note_on_c, 0, 64, 0
1, 5280, Note_on_c, 0, 62, 76
1, 5280, Note_on_c, 0, 30, 59
1, 5280, Note_on_c, 0, 42, 72
1, 5283, Control_c, 0, 64, 0
1, 5400, Note_on_c, 0, 60, 41
1, 5407, Control_c, 0, 64, 127
1, 5520, Note_on_c, 0, 60, 0
1, 5520, Note_on_c, 0, 57, 47
1, 5640, Tempo, 447761
1, 5640, Note_on_c, 0, 57, 0
1, 5640, Note_on_c, 0, 50, 44
1, 5733, Control_c, 0, 64, 0
1, 5760, Tempo, 405405
1, 5760, Note_on_c, 0, 50, 0
1, 5760, Note_on_c, 0, 62, 0
1, 5760, Note_on_c, 0, 30, 0
1, 5760, Note_on_c, 0, 42, 0
1, 5760, Note_on_c, 0, 62, 77
1, 5760, Note_on_c, 0, 59, 69
1, 5760, Note_on_c, 0, 55, 69
1, 5760, Note_on_c, 0, 43, 77
1, 5760, Note_on_c, 0, 31, 73
1, 5820, Control_c, 0, 64, 127
1, 5880, Tempo, 382166
1, 5880, Note_on_c, 0, 98, 65
1, 5880, Note_on_c, 0, 35, 59
1, 6000, Tempo, 366972
1, 6000, Note_on_c, 0, 35, 0
1, 6000, Note_on_c, 0, 98, 0
1, 6000, Note_on_c, 0, 95, 62
1, 6000, Note_on_c, 0, 43, 62
1, 6120, Note_on_c, 0, 43, 0
1, 6120, Note_on_c, 0, 95, 0
1, 6120, Note_on_c, 0, 91, 59
1, 6120, Note_on_c, 0, 47, 59
1, 6216, Tempo, 365854
1, 6240, Note_on_c, 0, 47, 0
1, 6240, Note_on_c, 0, 91, 0
1, 6240, Note_on_c, 0, 83, 64
1, 6240, Note_on_c, 0, 50, 70
1, 6360, Note_on_c, 0, 50, 0
1, 6360, Note_on_c, 0, 83, 0
1, 6360, Note_on_c, 0, 86, 55
1, 6360, Note_on_c, 0, 47, 59
1, 6480, Tempo, 366972
1, 6480, Note_on_c, 0, 47, 0
1, 6480, Note_on_c, 0, 86, 0
1, 6480, Note_on_c, 0, 83, 59
1, 6480, Note_on_c, 0, 55, 62
1, 6600, Note_on_c, 0, 55, 0
1, 6600, Note_on_c, 0, 83, 0
1, 6600, Note_on_c, 0, 78, 54
1, 6600, Note_on_c, 0, 59, 60
1, 6720, Note_on_c, 0, 59, 0
1, 6720, Note_on_c, 0, 78, 0
1, 6720, Note_on_c, 0, 71, 52
1, 6720, Note_on_c, 0, 62, 73
1, 6744, Tempo, 368098
1, 6840, Note_on_c, 0, 62, 0
1, 6840, Note_on_c, 0, 71, 0
1, 6840, Note_on_c, 0, 76, 64
1, 6840, Note_on_c, 0, 59, 61
1, 6960, Note_on_c, 0, 59, 0
1, 6960, Note_on_c, 0, 76, 0
1, 6960, Note_on_c, 0, 79, 45
1, 6960, Note_on_c, 0, 67, 68
1, 7008, Tempo, 369231
1, 7080, Note_on_c, 0, 67, 0
1, 7080, Note_on_c, 0, 79, 0
1, 7080, Note_on_c, 0, 86, 45
1, 7080, Note_on_c, 0, 71, 62
1, 7200, Note_on_c, 0, 71, 0
1, 7200, Note_on_c, 0, 31, 0
1, 7200, Note_on_c, 0, 59, 0
1, 7200, Note_on_c, 0, 55, 0
1, 7200, Note_on_c, 0, 62, 0
1, 7200, Note_on_c, 0, 86, 0
1, 7200, Note_on_c, 0, 43, 0
1, 7200, Note_on_c, 0, 81, 55
1, 7200, Note_on_c, 0, 74, 71
1, 7203, Control_c, 0, 64, 0
1, 7248, Tempo, 370370
1, 7268, Control_c, 0, 64, 127
1, 7320, Note_on_c, 0, 74, 0
1, 7320, Note_on_c, 0, 81, 0
1, 7320, Note_on_c, 0, 78, 45
1, 7320, Note_on_c, 0, 69, 62
1, 7440, Note_on_c, 0, 69, 0
1, 7440, Note_on_c, 0, 78, 0
1, 7440, Note_on_c, 0, 72, 49
1, 7440, Note_on_c, 0, 66, 67
1, 7512, Tempo, 371517
1, 7560, Note_on_c, 0, 66, 0
1, 7560, Note_on_c, 0, 72, 0
1, 7560, Note_on_c, 0, 74, 46
1, 7560, Note_on_c, 0, 60, 60
1, 7680, Note_on_c, 0, 60, 0
1, 7680, Note_on_c, 0, 74, 0
1, 7680, Note_on_c, 0, 69, 52
1, 7680, Note_on_c, 0, 62, 66
1, 7776, Tempo, 372671
1, 7800, Note_on_c, 0, 62, 0
1, 7800, Note_on_c, 0, 69, 0
1, 7800, Note_on_c, 0, 66, 44
1, 7800, Note_on_c, 0, 57, 57
1, 7920, Note_on_c, 0, 57, 0
1, 7920, Note_on_c, 0, 66, 0
1, 7920, Note_on_c, 0, 60, 47
1, 7920, Note_on_c, 0, 54, 61
1, 8016, Tempo, 373832
1, 8040, Tempo, 409556
1, 8040, Note_on_c, 0, 54, 0
1, 8040, Note_on_c, 0, 60, 0
1, 8040, Note_on_c, 0, 62, 72
1, 8040, Note_on_c, 0, 48, 56
1, 8160, Tempo, 387097
1, 8160, Note_on_c, 0, 48, 0
1, 8160, Note_on_c, 0, 57, 52
1, 8160, Note_on_c, 0, 26, 59
1, 8160, Note_on_c, 0, 38, 72
1, 8280, Note_on_c, 0, 57, 0
1, 8280, Note_on_c, 0, 54, 42
1, 8400, Note_on_c, 0, 54, 0
1, 8400, Note_on_c, 0, 48, 46
1, 8520, Tempo, 485830
1, 8520, Note_on_c, 0, 48, 0
1, 8520, Note_on_c, 0, 50, 42
1, 8614, Control_c, 0, 64, 0
1, 8640, Tempo, 415225
1, 8640, Note_on_c, 0, 50, 0
1, 8640, Note_on_c, 0, 38, 0
1, 8640, Note_on_c, 0, 26, 0
1, 8640, Note_on_c, 0, 62, 0
1, 8640, Note_on_c, 0, 53, 65
1, 8640, Note_on_c, 0, 60, 69
1, 8640, Note_on_c, 0, 62, 77
1, 8640, Note_on_c, 0, 56, 69
1, 8640, Note_on_c, 0, 43, 77
1, 8640, Note_on_c, 0, 31, 73
1, 8700, Control_c, 0, 64, 127
1, 8760, Tempo, 380952
1, 8760, Note_on_c, 0, 98, 65
1, 8760, Note_on_c, 0, 36, 59
1, 8880, Tempo, 372671
1, 8880, Note_on_c, 0, 36, 0
1, 8880, Note_on_c, 0, 98, 0
1, 8880, Note_on_c, 0, 92, 63
1, 8880, Note_on_c, 0, 41, 62
1, 9000, Note_on_c, 0, 41, 0
1, 9000, Note_on_c, 0, 92, 0
1, 9000, Note_on_c, 0, 89, 61
1, 9000, Note_on_c, 0, 44, 59
1, 9120, Tempo, 368098
1, 9120, Note_on_c, 0, 44, 0
1, 9120, Note_on_c, 0, 89, 0
1, 9120, Note_on_c, 0, 84, 65
1, 9120, Note_on_c, 0, 50, 70
1, 9240, Note_on_c, 0, 50, 0
1, 9240, Note_on_c, 0, 84, 0
1, 9240, Note_on_c, 0, 86, 55
1, 9240, Note_on_c, 0, 48, 59
1, 9360, Note_on_c, 0, 48, 0
1, 9360, Note_on_c, 0, 86, 0
1, 9360, Note_on_c, 0, 80, 59
1, 9360, Note_on_c, 0, 53, 62
1, 9480, Note_on_c, 0, 53, 0
1, 9480, Note_on_c, 0, 80, 0
1, 9480, Note_on_c, 0, 77, 55
1, 9480, Note_on_c, 0, 56, 60
1, 9576, Tempo, 369231
1, 9600, Note_on_c, 0, 56, 0
1, 9600, Note_on_c, 0, 77, 0
1, 9600, Note_on_c, 0, 72, 56
1, 9600, Note_on_c, 0, 62, 73
1, 9720, Note_on_c, 0, 62, 0
1, 9720, Note_on_c, 0, 72, 0
1, 9720, Note_on_c, 0, 77, 47
1, 9720, Note_on_c, 0, 60, 61
1, 9840, Note_on_c, 0, 60, 0
1, 9840, Note_on_c, 0, 77, 0
1, 9840, Note_on_c, 0, 80, 49
1, 9840, Note_on_c, 0, 65, 63
1, 9960, Note_on_c, 0, 65, 0
1, 9960, Note_on_c, 0, 80, 0
1, 9960, Note_on_c, 0, 86, 48
1, 9960, Note_on_c, 0, 68, 62
1, 10032, Tempo, 370370
1, 10080, Note_on_c, 0, 68, 0
1, 10080, Note_on_c, 0, 53, 0
1, 10080, Note_on_c, 0, 43, 0
1, 10080, Note_on_c, 0, 60, 0
1, 10080, Note_on_c, 0, 62, 0
1, 10080, Note_on_c, 0, 56, 0
1, 10080, Note_on_c, 0, 31, 0
1, 10080, Note_on_c, 0, 86, 0
1, 10080, Note_on_c, 0, 79, 60
1, 10080, Note_on_c, 0, 74, 72
1, 10080, Control_c, 0, 64, 0
1, 10148, Control_c, 0, 64, 127
1, 10200, Note_on_c, 0, 74, 0
1, 10200, Note_on_c, 0, 79, 0
1, 10200, Note_on_c, 0, 77, 48
1, 10200, Note_on_c, 0, 67, 64
1, 10320, Note_on_c, 0, 67, 0
1, 10320, Note_on_c, 0, 77, 0
1, 10320, Note_on_c, 0, 71, 50
1, 10320, Note_on_c, 0, 65, 68
1, 10440, Note_on_c, 0, 65, 0
1, 10440, Note_on_c, 0, 71, 0
1, 10440, Note_on_c, 0, 74, 48
1, 10440, Note_on_c, 0, 59, 62
1, 10488, Tempo, 371517
1, 10560, Tempo, 371517
1, 10560, Note_on_c, 0, 59, 0
1, 10560, Note_on_c, 0, 74, 0
1, 10560, Note_on_c, 0, 67, 54
1, 10560, Note_on_c, 0, 62, 66
1, 10680, Note_on_c, 0, 62, 0
1, 10680, Note_on_c, 0, 67, 0
1, 10680, Note_on_c, 0, 65, 44
1, 10680, Note_on_c, 0, 55, 57
1, 10800, Note_on_c, 0, 55, 0
1, 10800, Note_on_c, 0, 65, 0
1, 10800, Note_on_c, 0, 59, 47
1, 10800, Note_on_c, 0, 53, 62
1, 10897, Control_c, 0, 64, 0
1, 10920, Tempo, 447761
1, 10920, Note_on_c, 0, 53, 0
1, 10920, Note_on_c, 0, 59, 0
1, 10920, Note_on_c, 0, 63, 76
1, 10920, Note_on_c, 0, 47, 56
1, 10965, Control_c, 0, 64, 127
1, 11040, Tempo, 397351
1, 11040, Note_on_c, 0, 47, 0
1, 11040, Note_on_c, 0, 59, 52
1, 11040, Note_on_c, 0, 43, 72
1, 11040, Note_on_c, 0, 31, 59
1, 11160, Note_on_c, 0, 59, 0
1, 11160, Note_on_c, 0, 55, 40
1, 11280, Note_on_c, 0, 55, 0
1, 11280, Note_on_c, 0, 53, 43
1, 11400, Tempo, 459770
1, 11400, Note_on_c, 0, 53, 0
1, 11400, Note_on_c, 0, 47, 37
1, 11501, Control_c, 0, 64, 0
1, 11520, Tempo, 412371
1, 11520, Note_on_c, 0, 47, 0
1, 11520, Note_on_c, 0, 31, 0
1, 11520, Note_on_c, 0, 43, 0
1, 11520, Note_on_c, 0, 63, 0
1, 11520, Note_on_c, 0, 64, 77
1, 11520, Note_on_c, 0, 60, 69
1, 11520, Note_on_c, 0, 55, 69
1, 11520, Note_on_c, 0, 36, 77
1, 11520, Note_on_c, 0, 24, 73
1, 11580, Control_c, 0, 64, 127
1, 11640, Tempo, 380952
1, 11640, Note_on_c, 0, 36, 0
1, 11640, Note_on_c, 0, 100, 68
1, 11640, Note_on_c, 0, 36, 59
1, 11760, Note_on_c, 0, 100, 0
1, 11760, Note_on_c, 0, 96, 65
1, 11760, Note_on_c, 0, 43, 62
1, 11880, Note_on_c, 0, 43, 0
1, 11880, Note_on_c, 0, 96, 0
1, 11880, Note_on_c, 0, 91, 62
1, 11880, Note_on_c, 0, 48, 59
1, 12000, Tempo, 368098
1, 12000, Note_on_c, 0, 48, 0
1, 12000, Note_on_c, 0, 91, 0
1, 12000, Note_on_c, 0, 84, 65
1, 12000, Note_on_c, 0, 52, 70
1, 12120, Note_on_c, 0, 52, 0
1, 12120, Note_on_c, 0, 84, 0
1, 12120, Note_on_c, 0, 88, 55
1, 12120, Note_on_c, 0, 48, 59
1, 12240, Note_on_c, 0, 48, 0
1, 12240, Note_on_c, 0, 88, 0
1, 12240, Note_on_c, 0, 84, 59
1, 12240, Note_on_c, 0, 55, 62
1, 12360, Note_on_c, 0, 55, 0
1, 12360, Note_on_c, 0, 84, 0
1, 12360, Note_on_c, 0, 79, 47
1, 12360, Note_on_c, 0, 60, 60
1, 12456, Tempo, 369231
1, 12480, Note_on_c, 0, 60, 0
1, 12480, Note_on_c, 0, 79, 0
1, 12480, Note_on_c, 0, 72, 56
1, 12480, Note_on_c, 0, 64, 76
1, 12600, Note_on_c, 0, 64, 0
1, 12600, Note_on_c, 0, 72, 0
1, 12600, Note_on_c, 0, 79, 47
1, 12600, Note_on_c, 0, 60, 61
1, 12720, Note_on_c, 0, 60, 0
1, 12720, Note_on_c, 0, 79, 0
1, 12720, Note_on_c, 0, 84, 49
1, 12720, Note_on_c, 0, 67, 63
1, 12840, Note_on_c, 0, 67, 0
1, 12840, Note_on_c, 0, 84, 0
1, 12840, Note_on_c, 0, 88, 48
1, 12840, Note_on_c, 0, 72, 62
1, 12888, Tempo, 370370
1, 12960, Note_on_c, 0, 72, 0
1, 12960, Note_on_c, 0, 36, 0
1, 12960, Note_on_c, 0, 60, 0
1, 12960, Note_on_c, 0, 24, 0
1, 12960, Note_on_c, 0, 64, 0
1, 12960, Note_on_c, 0, 88, 0
1, 12960, Note_on_c, 0, 55, 0
1, 12960, Note_on_c, 0, 84, 60
1, 12960, Note_on_c, 0, 76, 72
1, 13080, Note_on_c, 0, 76, 0
1, 13080, Note_on_c, 0, 84, 0
1, 13080, Note_on_c, 0, 79, 48
1, 13080, Note_on_c, 0, 72, 62
1, 13200, Note_on_c, 0, 72, 0
1, 13200, Note_on_c, 0, 79, 0
1, 13200, Note_on_c, 0, 72, 50
1, 13200, Note_on_c, 0, 67, 69
1, 13320, Note_on_c, 0, 67, 0
1, 13320, Note_on_c, 0, 72, 0
1, 13320, Note_on_c, 0, 76, 48
1, 13320, Note_on_c, 0, 60, 60
1, 13344, Tempo, 371517
1, 13440, Note_on_c, 0, 60, 0
1, 13440, Note_on_c, 0, 76, 0
1, 13440, Note_on_c, 0, 72, 54
1, 13440, Note_on_c, 0, 64, 70
1, 13560, Note_on_c, 0, 64, 0
1, 13560, Note_on_c, 0, 72, 0
1, 13560, Note_on_c, 0, 67, 44
1, 13560, Note_on_c, 0, 60, 57
1, 13678, Note_on_c, 0, 60, 0
1, 13680, Note_on_c, 0, 67, 0
1, 13680, Note_on_c, 0, 60, 47
1, 13680, Note_on_c, 0, 55, 62
1, 13776, Tempo, 372671
1, 13800, Tempo, 377358
1, 13800, Note_on_c, 0, 55, 0
1, 13800, Note_on_c, 0, 60, 0
1, 13800, Note_on_c, 0, 64, 74
1, 13800, Note_on_c, 0, 48, 56
1, 13920, Tempo, 388350
1, 13920, Note_on_c, 0, 48, 0
1, 13920, Note_on_c, 0, 60, 51
1, 13920, Note_on_c, 0, 52, 63
1, 14040, Note_on_c, 0, 52, 0
1, 14040, Note_on_c, 0, 60, 0
1, 14040, Note_on_c, 0, 55, 40
1, 14040, Note_on_c, 0, 48, 54
1, 14160, Note_on_c, 0, 48, 0
1, 14160, Note_on_c, 0, 55, 0
1, 14160, Note_on_c, 0, 52, 44
1, 14160, Note_on_c, 0, 43, 57
1, 14280, Tempo, 458015
1, 14280, Note_on_c, 0, 43, 0
1, 14280, Note_on_c, 0, 52, 0
1, 14280, Note_on_c, 0, 48, 40
1, 14280, Note_on_c, 0, 36, 54
1, 14382, Control_c, 0, 64, 0
1, 14400, Tempo, 397351
1, 14400, Note_on_c, 0, 36, 0
1, 14400, Note_on_c, 0, 48, 0
1, 14400, Note_on_c, 0, 64, 0
1, 14400, Note_on_c, 0, 65, 77
1, 14400, Note_on_c, 0, 57, 61
1, 14400, Note_on_c, 0, 60, 61
1, 14400, Note_on_c, 0, 45, 77
1, 14400, Note_on_c, 0, 33, 73
1, 14460, Control_c, 0, 64, 127
1, 14520, Tempo, 379747
1, 14520, Note_on_c, 0, 101, 66
1, 14520, Note_on_c, 0, 36, 59
1, 14640, Note_on_c, 0, 36, 0
1, 14640, Note_on_c, 0, 101, 0
1, 14640, Note_on_c, 0, 96, 64
1, 14640, Note_on_c, 0, 41, 62
1, 14760, Note_on_c, 0, 41, 0
1, 14760, Note_on_c, 0, 96, 0
1, 14760, Note_on_c, 0, 93, 62
1, 14760, Note_on_c, 0, 48, 59
1, 14880, Tempo, 366972
1, 14880, Note_on_c, 0, 48, 0
1, 14880, Note_on_c, 0, 93, 0
1, 14880, Note_on_c, 0, 84, 67
1, 14880, Note_on_c, 0, 53, 70
1, 14904, Tempo, 366972
1, 15000, Note_on_c, 0, 53, 0
1, 15000, Note_on_c, 0, 84, 0
1, 15000, Note_on_c, 0, 89, 55
1, 15000, Note_on_c, 0, 48, 59
1, 15120, Note_on_c, 0, 48, 0
1, 15120, Note_on_c, 0, 89, 0
1, 15120, Note_on_c, 0, 84, 59
1, 15120, Note_on_c, 0, 53, 62
1, 15144, Tempo, 368098
1, 15240, Note_on_c, 0, 53, 0
1, 15240, Note_on_c, 0, 84, 0
1, 15240, Note_on_c, 0, 81, 47
1, 15240, Note_on_c, 0, 60, 60
1, 15360, Note_on_c, 0, 60, 0
1, 15360, Note_on_c, 0, 81, 0
1, 15360, Note_on_c, 0, 72, 56
1, 15360, Note_on_c, 0, 65, 73
1, 15384, Tempo, 369231
1, 15480, Note_on_c, 0, 65, 0
1, 15480, Note_on_c, 0, 72, 0
1, 15480, Note_on_c, 0, 81, 47
1, 15480, Note_on_c, 0, 60, 61
1, 15600, Note_on_c, 0, 60, 0
1, 15600, Note_on_c, 0, 81, 0
1, 15600, Note_on_c, 0, 84, 49
1, 15600, Note_on_c, 0, 65, 63
1, 15624, Tempo, 370370
1, 15720, Note_on_c, 0, 65, 0
1, 15720, Note_on_c, 0, 84, 0
1, 15720, Note_on_c, 0, 88, 48
1, 15720, Note_on_c, 0, 72, 62
1, 15840, Note_on_c, 0, 72, 0
1, 15840, Note_on_c, 0, 33, 0
1, 15840, Note_on_c, 0, 57, 0
1, 15840, Note_on_c, 0, 60, 0
1, 15840, Note_on_c, 0, 65, 0
1, 15840, Note_on_c, 0, 88, 0
1, 15840, Note_on_c, 0, 45, 0
1, 15840, Note_on_c, 0, 81, 57
1, 15840, Note_on_c, 0, 76, 75
1, 15840, Control_c, 0, 64, 0
1, 15864, Tempo, 371517
1, 15914, Control_c, 0, 64, 127
1, 15960, Note_on_c, 0, 76, 0
1, 15960, Note_on_c, 0, 81, 0
1, 15960, Note_on_c, 0, 78, 48
1, 15960, Note_on_c, 0, 72, 64
1, 16080, Note_on_c, 0, 72, 0
1, 16080, Note_on_c, 0, 78, 0
1, 16080, Note_on_c, 0, 72, 50
1, 16080, Note_on_c, 0, 66, 71
1, 16104, Tempo, 372671
1, 16200, Note_on_c, 0, 66, 0
1, 16200, Note_on_c, 0, 72, 0
1, 16200, Note_on_c, 0, 76, 48
1, 16200, Note_on_c, 0, 60, 58
1, 16320, Note_on_c, 0, 60, 0
1, 16320, Note_on_c, 0, 76, 0
1, 16320, Note_on_c, 0, 69, 54
1, 16320, Note_on_c, 0, 64, 66
1, 16344, Tempo, 373832
1, 16440, Note_on_c, 0, 64, 0
1, 16440, Note_on_c, 0, 69, 0
1, 16440, Note_on_c, 0, 66, 44
1, 16440, Note_on_c, 0, 60, 57
1, 16558, Note_on_c, 0, 60, 0
1, 16560, Note_on_c, 0, 66, 0
1, 16560, Note_on_c, 0, 60, 47
1, 16560, Note_on_c, 0, 54, 62
1, 16680, Tempo, 441176
1, 16680, Note_on_c, 0, 54, 0
1, 16680, Note_on_c, 0, 60, 0
1, 16680, Note_on_c, 0, 64, 72
1, 16680, Note_on_c, 0, 48, 56
1, 16800, Tempo, 392157
1, 16800, Note_on_c, 0, 48, 0
1, 16800, Note_on_c, 0, 57, 54
1, 16800, Note_on_c, 0, 52, 63
1, 16920, Note_on_c, 0, 52, 0
1, 16920, Note_on_c, 0, 57, 0
1, 16920, Note_on_c, 0, 54, 39
1, 16920, Note_on_c, 0, 48, 54
1, 17040, Note_on_c, 0, 48, 0
1, 17040, Note_on_c, 0, 54, 0
1, 17040, Note_on_c, 0, 52, 46
1, 17040, Note_on_c, 0, 42, 57
1, 17160, Tempo, 447761
1, 17160, Note_on_c, 0, 42, 0
1, 17160, Note_on_c, 0, 52, 0
1, 17160, Note_on_c, 0, 48, 41
1, 17160, Note_on_c, 0, 36, 54
1, 17263, Control_c, 0, 64, 0
1, 17280, Tempo, 405405
1, 17280, Note_on_c, 0, 36, 0
1, 17280, Note_on_c, 0, 48, 0
1, 17280, Note_on_c, 0, 64, 0
1, 17280, Note_on_c, 0, 55, 61
1, 17280, Note_on_c, 0, 60, 61
1, 17280, Note_on_c, 0, 62, 75
1, 17280, Note_on_c, 0, 31, 65
1, 17280, Note_on_c, 0, 43, 75
1, 17340, Control_c, 0, 64, 127
1, 17400, Tempo, 380952
1, 17400, Note_on_c, 0, 98, 63
1, 17400, Note_on_c, 0, 36, 53
1, 17520, Tempo, 366972
1, 17520, Note_on_c, 0, 36, 0
1, 17520, Note_on_c, 0, 98, 0
1, 17520, Note_on_c, 0, 96, 60
1, 17520, Note_on_c, 0, 43, 56
1, 17640, Note_on_c, 0, 43, 0
1, 17640, Note_on_c, 0, 96, 0
1, 17640, Note_on_c, 0, 91, 61
1, 17640, Note_on_c, 0, 48, 53
1, 17736, Tempo, 366972
1, 17760, Note_on_c, 0, 48, 0
1, 17760, Note_on_c, 0, 91, 0
1, 17760, Note_on_c, 0, 84, 66
1, 17760, Note_on_c, 0, 50, 62
1, 17880, Note_on_c, 0, 50, 0
1, 17880, Note_on_c, 0, 84, 0
1, 17880, Note_on_c, 0, 86, 51
1, 17880, Note_on_c, 0, 48, 53
1, 18000, Note_on_c, 0, 48, 0
1, 18000, Note_on_c, 0, 86, 0
1, 18000, Note_on_c, 0, 84, 55
1, 18000, Note_on_c, 0, 55, 56
1, 18120, Note_on_c, 0, 55, 0
1, 18120, Note_on_c, 0, 84, 0
1, 18120, Note_on_c, 0, 79, 51
1, 18120, Note_on_c, 0, 60, 54
1, 18216, Tempo, 368098
1, 18240, Note_on_c, 0, 60, 0
1, 18240, Note_on_c, 0, 79, 0
1, 18240, Note_on_c, 0, 72, 46
1, 18240, Note_on_c, 0, 62, 65
1, 18360, Note_on_c, 0, 62, 0
1, 18360, Note_on_c, 0, 72, 0
1, 18360, Note_on_c, 0, 79, 57
1, 18360, Note_on_c, 0, 60, 55
1, 18480, Note_on_c, 0, 60, 0
1, 18480, Note_on_c, 0, 79, 0
1, 18480, Note_on_c, 0, 84, 40
1, 18480, Note_on_c, 0, 67, 60
1, 18600, Note_on_c, 0, 67, 0
1, 18600, Note_on_c, 0, 84, 0
1, 18600, Note_on_c, 0, 86, 40
1, 18600, Note_on_c, 0, 72, 56
1, 18696, Tempo, 369231
1, 18720, Note_on_c, 0, 72, 0
1, 18720, Note_on_c, 0, 43, 0
1, 18720, Note_on_c, 0, 60, 0
1, 18720, Note_on_c, 0, 62, 0
1, 18720, Note_on_c, 0, 55, 0
1, 18720, Note_on_c, 0, 86, 0
1, 18720, Note_on_c, 0, 31, 0
1, 18720, Note_on_c, 0, 83, 49
1, 18720, Note_on_c, 0, 74, 66
1, 18723, Control_c, 0, 64, 0
1, 18788, Control_c, 0, 64, 127
1, 18840, Note_on_c, 0, 74, 0
1, 18840, Note_on_c, 0, 83, 0
1, 18840, Note_on_c, 0, 79, 40
1, 18840, Note_on_c, 0, 71, 56
1, 18960, Note_on_c, 0, 71, 0
1, 18960, Note_on_c, 0, 79, 0
1, 18960, Note_on_c, 0, 71, 43
1, 18960, Note_on_c, 0, 67, 59
1, 19080, Note_on_c, 0, 67, 0
1, 19080, Note_on_c, 0, 71, 0
1, 19080, Note_on_c, 0, 74, 41
1, 19080, Note_on_c, 0, 59, 54
1, 19176, Tempo, 370370
1, 19200, Tempo, 370370
1, 19200, Note_on_c, 0, 59, 0
1, 19200, Note_on_c, 0, 74, 0
1, 19200, Note_on_c, 0, 71, 46
1, 19200, Note_on_c, 0, 62, 59
1, 19320, Note_on_c, 0, 62, 0
1, 19320, Note_on_c, 0, 71, 0
1, 19320, Note_on_c, 0, 67, 39
1, 19320, Note_on_c, 0, 59, 51
1, 19440, Note_on_c, 0, 59, 0
1, 19440, Note_on_c, 0, 67, 0
1, 19440, Note_on_c, 0, 59, 42
1, 19440, Note_on_c, 0, 55, 56
1, 19560, Tempo, 409556
1, 19560, Note_on_c, 0, 55, 0
1, 19560, Note_on_c, 0, 59, 0
1, 19560, Note_on_c, 0, 62, 71
1, 19560, Note_on_c, 0, 47, 50
1, 19680, Tempo, 387097
1, 19680, Note_on_c, 0, 47, 0
1, 19680, Note_on_c, 0, 59, 46
1, 19680, Note_on_c, 0, 50, 57
1, 19800, Note_on_c, 0, 50, 0
1, 19800, Note_on_c, 0, 59, 0
1, 19800, Note_on_c, 0, 55, 40
1, 19800, Note_on_c, 0, 47, 48
1, 19920, Note_on_c, 0, 47, 0
1, 19920, Note_on_c, 0, 55, 0
1, 19920, Note_on_c, 0, 50, 42
1, 19920, Note_on_c, 0, 43, 52
1, 20040, Tempo, 472441
1, 20040, Note_on_c, 0, 43, 0
1, 20040, Note_on_c, 0, 35, 47
1, 20040, Note_on_c, 0, 47, 47
1, 20130, Control_c, 0, 64, 0
1, 20160, Tempo, 412371
1, 20160, Note_on_c, 0, 47, 0
1, 20160, Note_on_c, 0, 62, 0
1, 20160, Note_on_c, 0, 50, 0
1, 20160, Note_on_c, 0, 35, 0
1, 20160, Note_on_c, 0, 62, 58
1, 20160, Note_on_c, 0, 55, 58
1, 20160, Note_on_c, 0, 64, 74
1, 20160, Note_on_c, 0, 24, 61
1, 20160, Note_on_c, 0, 36, 74
1, 20243, Control_c, 0, 64, 127
1, 20280, Tempo, 380952
1, 20280, Note_on_c, 0, 100, 57
1, 20280, Note_on_c, 0, 38, 50
1, 20400, Tempo, 372671
1, 20400, Note_on_c, 0, 38, 0
1, 20400, Note_on_c, 0, 100, 0
1, 20400, Note_on_c, 0, 98, 54
1, 20400, Note_on_c, 0, 43, 51
1, 20520, Note_on_c, 0, 43, 0
1, 20520, Note_on_c, 0, 98, 0
1, 20520, Note_on_c, 0, 91, 51
1, 20520, Note_on_c, 0, 50, 48
1, 20601, Tempo, 365854
1, 20640, Note_on_c, 0, 50, 0
1, 20640, Note_on_c, 0, 91, 0
1, 20640, Note_on_c, 0, 86, 58
1, 20640, Note_on_c, 0, 52, 57
1, 20760, Note_on_c, 0, 52, 0
1, 20760, Note_on_c, 0, 86, 0
1, 20760, Note_on_c, 0, 88, 43
1, 20760, Note_on_c, 0, 50, 47
1, 20880, Note_on_c, 0, 50, 0
1, 20880, Note_on_c, 0, 88, 0
1, 20880, Note_on_c, 0, 86, 49
1, 20880, Note_on_c, 0, 55, 49
1, 20889, Tempo, 366972
1, 21000, Note_on_c, 0, 55, 0
1, 21000, Note_on_c, 0, 86, 0
1, 21000, Note_on_c, 0, 79, 43
1, 21000, Note_on_c, 0, 62, 47
1, 21120, Note_on_c, 0, 62, 0
1, 21120, Note_on_c, 0, 79, 0
1, 21120, Note_on_c, 0, 74, 42
1, 21120, Note_on_c, 0, 64, 57
1, 21177, Tempo, 368098
1, 21240, Note_on_c, 0, 64, 0
1, 21240, Note_on_c, 0, 74, 0
1, 21240, Note_on_c, 0, 79, 36
1, 21240, Note_on_c, 0, 62, 47
1, 21360, Note_on_c, 0, 62, 0
1, 21360, Note_on_c, 0, 79, 0
1, 21360, Note_on_c, 0, 86, 36
1, 21360, Note_on_c, 0, 67, 47
1, 21441, Tempo, 369231
1, 21480, Note_on_c, 0, 67, 0
1, 21480, Note_on_c, 0, 86, 0
1, 21480, Note_on_c, 0, 88, 35
1, 21480, Note_on_c, 0, 74, 46
1, 21600, Note_on_c, 0, 74, 0
1, 21600, Note_on_c, 0, 36, 0
1, 21600, Note_on_c, 0, 55, 0
1, 21600, Note_on_c, 0, 64, 0
1, 21600, Note_on_c, 0, 62, 0
1, 21600, Note_on_c, 0, 88, 0
1, 21600, Note_on_c, 0, 24, 0
1, 21600, Note_on_c, 0, 84, 44
1, 21600, Control_c, 0, 64, 0
1, 21600, Note_on_c, 0, 76, 59
1, 21668, Control_c, 0, 64, 127
1, 21720, Note_on_c, 0, 76, 0
1, 21720, Note_on_c, 0, 84, 0
1, 21720, Note_on_c, 0, 79, 34
1, 21720, Note_on_c, 0, 72, 50
1, 21729, Tempo, 370370
1, 21840, Note_on_c, 0, 72, 0
1, 21840, Note_on_c, 0, 79, 0
1, 21840, Note_on_c, 0, 76, 36
1, 21840, Note_on_c, 0, 67, 51
1, 21960, Note_on_c, 0, 67, 0
1, 21960, Note_on_c, 0, 76, 0
1, 21960, Note_on_c, 0, 79, 34
1, 21960, Note_on_c, 0, 60, 46
1, 21993, Tempo, 371517
1, 22080, Tempo, 382166
1, 22080, Note_on_c, 0, 60, 0
1, 22080, Note_on_c, 0, 79, 0
1, 22080, Note_on_c, 0, 72, 38
1, 22080, Note_on_c, 0, 64, 46
1, 22200, Note_on_c, 0, 64, 0
1, 22200, Note_on_c, 0, 72, 0
1, 22200, Note_on_c, 0, 67, 30
1, 22200, Note_on_c, 0, 60, 40
1, 22318, Note_on_c, 0, 60, 0
1, 22320, Note_on_c, 0, 67, 0
1, 22320, Note_on_c, 0, 60, 32
1, 22320, Note_on_c, 0, 55, 42
1, 22440, Tempo, 447761
1, 22440, Note_on_c, 0, 55, 0
1, 22440, Note_on_c, 0, 60, 0
1, 22440, Note_on_c, 0, 64, 53
1, 22440, Note_on_c, 0, 48, 41
1, 22560, Tempo, 397351
1, 22560, Note_on_c, 0, 48, 0
1, 22560, Note_on_c, 0, 60, 34
1, 22560, Note_on_c, 0, 52, 42
1, 22680, Note_on_c, 0, 52, 0
1, 22680, Note_on_c, 0, 60, 0
1, 22680, Note_on_c, 0, 55, 29
1, 22680, Note_on_c, 0, 48, 36
1, 22800, Note_on_c, 0, 48, 0
1, 22800, Note_on_c, 0, 55, 0
1, 22800, Note_on_c, 0, 52, 31
1, 22800, Note_on_c, 0, 43, 38
1, 22920, Tempo, 449438
1, 22920, Note_on_c, 0, 43, 0
1, 22920, Note_on_c, 0, 48, 35
1, 22920, Note_on_c, 0, 36, 35
1, 22980, Note_on_c, 0, 60, 44
1, 23025, Control_c, 0, 64, 0
1, 23040, Tempo, 405405
1, 23040, Note_on_c, 0, 36, 0
1, 23040, Note_on_c, 0, 48, 0
1, 23040, Note_on_c, 0, 64, 0
1, 23040, Note_on_c, 0, 64, 54
1, 23040, Note_on_c, 0, 33, 45
1, 23040, Note_on_c, 0, 45, 54
1, 23160, Tempo, 382166
1, 23160, Note_on_c, 0, 101, 43
1, 23160, Control_c, 0, 64, 127
1, 23160, Note_on_c, 0, 40, 37
1, 23280, Tempo, 366972
1, 23280, Note_on_c, 0, 40, 0
1, 23280, Note_on_c, 0, 101, 0
1, 23280, Note_on_c, 0, 100, 40
1, 23280, Note_on_c, 0, 48, 39
1, 23289, Tempo, 366972
1, 23400, Note_on_c, 0, 48, 0
1, 23400, Note_on_c, 0, 100, 0
1, 23400, Note_on_c, 0, 96, 38
1, 23400, Note_on_c, 0, 52, 37
1, 23520, Note_on_c, 0, 52, 0
1, 23520, Note_on_c, 0, 96, 0
1, 23520, Note_on_c, 0, 88, 42
1, 23520, Note_on_c, 0, 53, 45
1, 23640, Note_on_c, 0, 53, 0
1, 23640, Note_on_c, 0, 88, 0
1, 23640, Note_on_c, 0, 89, 35
1, 23640, Note_on_c, 0, 52, 37
1, 23760, Note_on_c, 0, 52, 0
1, 23760, Note_on_c, 0, 89, 0
1, 23760, Note_on_c, 0, 88, 37
1, 23760, Note_on_c, 0, 60, 39
1, 23769, Tempo, 368098
1, 23880, Note_on_c, 0, 60, 0
1, 23880, Note_on_c, 0, 88, 0
1, 23880, Note_on_c, 0, 84, 34
1, 23880, Note_on_c, 0, 64, 37
1, 24000, Note_on_c, 0, 64, 0
1, 24000, Note_on_c, 0, 84, 0
1, 24000, Note_on_c, 0, 76, 33
1, 24000, Note_on_c, 0, 65, 45
1, 24120, Note_on_c, 0, 65, 0
1, 24120, Note_on_c, 0, 76, 0
1, 24120, Note_on_c, 0, 84, 40
1, 24120, Note_on_c, 0, 64, 38
1, 24225, Tempo, 369231
1, 24240, Note_on_c, 0, 64, 0
1, 24240, Note_on_c, 0, 84, 0
1, 24240, Note_on_c, 0, 88, 28
1, 24240, Note_on_c, 0, 72, 43
1, 24360, Note_on_c, 0, 72, 0
1, 24360, Note_on_c, 0, 88, 0
1, 24360, Note_on_c, 0, 89, 28
1, 24360, Note_on_c, 0, 76, 39
1, 24480, Note_on_c, 0, 76, 0
1, 24480, Note_on_c, 0, 45, 0
1, 24480, Note_on_c, 0, 52, 0
1, 24480, Note_on_c, 0, 64, 0
1, 24480, Note_on_c, 0, 60, 0
1, 24480, Note_on_c, 0, 89, 0
1, 24480, Note_on_c, 0, 33, 0
1, 24480, Note_on_c, 0, 86, 34
1, 24480, Note_on_c, 0, 77, 49
1, 24483, Control_c, 0, 64, 0
1, 24548, Control_c, 0, 64, 127
1, 24600, Note_on_c, 0, 86, 0
1, 24600, Note_on_c, 0, 83, 28
1, 24600, Note_on_c, 0, 74, 39
1, 24681, Tempo, 370370
1, 24720, Note_on_c, 0, 74, 0
1, 24720, Note_on_c, 0, 83, 0
1, 24720, Note_on_c, 0, 74, 30
1, 24720, Note_on_c, 0, 71, 42
1, 24840, Note_on_c, 0, 71, 0
1, 24840, Note_on_c, 0, 74, 0
1, 24840, Note_on_c, 0, 77, 29
1, 24840, Note_on_c, 0, 62, 38
1, 24960, Note_on_c, 0, 62, 0
1, 24960, Note_on_c, 0, 77, 0
1, 24960, Note_on_c, 0, 77, 0
1, 24960, Note_on_c, 0, 74, 33
1, 24960, Note_on_c, 0, 65, 42
1, 25080, Note_on_c, 0, 65, 0
1, 25080, Note_on_c, 0, 74, 0
1, 25080, Note_on_c, 0, 71, 27
1, 25080, Note_on_c, 0, 62, 36
1, 25137, Tempo, 371517
1, 25198, Note_on_c, 0, 62, 0
1, 25200, Note_on_c, 0, 71, 0
1, 25200, Note_on_c, 0, 62, 29
1, 25200, Note_on_c, 0, 59, 37
1, 25320, Tempo, 409556
1, 25320, Note_on_c, 0, 59, 0
1, 25320, Note_on_c, 0, 62, 0
1, 25320, Note_on_c, 0, 65, 51
1, 25320, Note_on_c, 0, 50, 35
1, 25440, Tempo, 387097
1, 25440, Note_on_c, 0, 50, 0
1, 25440, Note_on_c, 0, 62, 33
1, 25440, Note_on_c, 0, 33, 37
1, 25440, Note_on_c, 0, 45, 45
1, 25560, Note_on_c, 0, 62, 0
1, 25560, Note_on_c, 0, 59, 28
1, 25680, Note_on_c, 0, 59, 0
1, 25680, Note_on_c, 0, 53, 29
1, 25800, Tempo, 485830
1, 25800, Note_on_c, 0, 53, 0
1, 25800, Note_on_c, 0, 50, 27
1, 25902, Control_c, 0, 64, 0
1, 25920, Tempo, 405405
1, 25920, Note_on_c, 0, 50, 0
1, 25920, Note_on_c, 0, 45, 0
1, 25920, Note_on_c, 0, 33, 0
1, 25920, Note_on_c, 0, 65, 0
1, 25920, Note_on_c, 0, 64, 54
1, 25920, Note_on_c, 0, 59, 44
1, 25920, Note_on_c, 0, 52, 44
1, 25920, Note_on_c, 0, 32, 45
1, 25920, Note_on_c, 0, 44, 54
1, 25980, Control_c, 0, 64, 127
1, 26040, Tempo, 382166
1, 26040, Note_on_c, 0, 100, 44
1, 26040, Note_on_c, 0, 38, 37
1, 26160, Tempo, 366972
1, 26160, Note_on_c, 0, 38, 0
1, 26160, Note_on_c, 0, 100, 0
1, 26160, Note_on_c, 0, 98, 40
1, 26160, Note_on_c, 0, 47, 39
1, 26280, Note_on_c, 0, 47, 0
1, 26280, Note_on_c, 0, 98, 0
1, 26280, Note_on_c, 0, 95, 37
1, 26280, Note_on_c, 0, 50, 37
1, 26400, Tempo, 366972
1, 26400, Note_on_c, 0, 50, 0
1, 26400, Note_on_c, 0, 95, 0
1, 26400, Note_on_c, 0, 86, 42
1, 26400, Note_on_c, 0, 52, 45
1, 26409, Tempo, 366972
1, 26520, Note_on_c, 0, 52, 0
1, 26520, Note_on_c, 0, 86, 0
1, 26520, Note_on_c, 0, 88, 34
1, 26520, Note_on_c, 0, 50, 37
1, 26640, Note_on_c, 0, 50, 0
1, 26640, Note_on_c, 0, 88, 0
1, 26640, Note_on_c, 0, 86, 36
1, 26640, Note_on_c, 0, 59, 39
1, 26760, Note_on_c, 0, 59, 0
1, 26760, Note_on_c, 0, 86, 0
1, 26760, Note_on_c, 0, 83, 29
1, 26760, Note_on_c, 0, 62, 37
1, 26841, Tempo, 368098
1, 26880, Note_on_c, 0, 62, 0
1, 26880, Note_on_c, 0, 83, 0
1, 26880, Note_on_c, 0, 74, 33
1, 26880, Note_on_c, 0, 64, 45
1, 27000, Note_on_c, 0, 64, 0
1, 27000, Note_on_c, 0, 74, 0
1, 27000, Note_on_c, 0, 83, 40
1, 27000, Note_on_c, 0, 62, 38
1, 27120, Note_on_c, 0, 62, 0
1, 27120, Note_on_c, 0, 83, 0
1, 27120, Note_on_c, 0, 86, 28
1, 27120, Note_on_c, 0, 71, 43
1, 27240, Note_on_c, 0, 71, 0
1, 27240, Note_on_c, 0, 86, 0
1, 27240, Note_on_c, 0, 88, 28
1, 27240, Note_on_c, 0, 74, 39
1, 27273, Tempo, 369231
1, 27360, Note_on_c, 0, 74, 0
1, 27360, Note_on_c, 0, 44, 0
1, 27360, Note_on_c, 0, 59, 0
1, 27360, Note_on_c, 0, 52, 0
1, 27360, Note_on_c, 0, 64, 0
1, 27360, Note_on_c, 0, 88, 0
1, 27360, Note_on_c, 0, 32, 0
1, 27360, Note_on_c, 0, 84, 34
1, 27360, Note_on_c, 0, 76, 49
1, 27363, Control_c, 0, 64, 0
1, 27428, Control_c, 0, 64, 127
1, 27480, Note_on_c, 0, 76, 0
1, 27480, Note_on_c, 0, 84, 0
1, 27480, Note_on_c, 0, 81, 28
1, 27480, Note_on_c, 0, 72, 39
1, 27600, Note_on_c, 0, 72, 0
1, 27600, Note_on_c, 0, 81, 0
1, 27600, Note_on_c, 0, 72, 30
1, 27600, Note_on_c, 0, 69, 42
1, 27705, Tempo, 370370
1, 27720, Note_on_c, 0, 69, 0
1, 27720, Note_on_c, 0, 72, 0
1, 27720, Note_on_c, 0, 76, 29
1, 27720, Note_on_c, 0, 60, 38
1, 27840, Note_on_c, 0, 60, 0
1, 27840, Note_on_c, 0, 76, 0
1, 27840, Note_on_c, 0, 72, 33
1, 27840, Note_on_c, 0, 64, 42
1, 27960, Note_on_c, 0, 64, 0
1, 27960, Note_on_c, 0, 72, 0
1, 27960, Note_on_c, 0, 69, 27
1, 27960, Note_on_c, 0, 60, 36
1, 28078, Note_on_c, 0, 60, 0
1, 28080, Note_on_c, 0, 69, 0
1, 28080, Note_on_c, 0, 60, 29
1, 28080, Note_on_c, 0, 57, 45
1, 28113, Tempo, 371517
1, 28200, Tempo, 409556
1, 28200, Note_on_c, 0, 57, 0
1, 28200, Note_on_c, 0, 60, 0
1, 28200, Note_on_c, 0, 64, 51
1, 28200, Note_on_c, 0, 48, 42
1, 28320, Tempo, 387097
1, 28320, Note_on_c, 0, 48, 0
1, 28320, Note_on_c, 0, 60, 38
1, 28320, Note_on_c, 0, 43, 45
1, 28320, Note_on_c, 0, 31, 37
1, 28440, Note_on_c, 0, 60, 0
1, 28440, Note_on_c, 0, 57, 42
1, 28560, Note_on_c, 0, 57, 0
1, 28560, Note_on_c, 0, 52, 46
1, 28680, Tempo, 485830
1, 28680, Note_on_c, 0, 52, 0
1, 28680, Note_on_c, 0, 48, 40
1, 28740, Note_on_c, 0, 57, 48
1, 28770, Note_on_c, 0, 60, 44
1, 28776, Control_c, 0, 64, 0
1, 28800, Tempo, 405405
1, 28800, Note_on_c, 0, 48, 0
1, 28800, Note_on_c, 0, 64, 0
1, 28800, Note_on_c, 0, 31, 0
1, 28800, Note_on_c, 0, 43, 0
1, 28800, Note_on_c, 0, 69, 60
1, 28800, Note_on_c, 0, 29, 50
1, 28800, Note_on_c, 0, 41, 60
1, 28860, Control_c, 0, 64, 127
1, 28920, Tempo, 382166
1, 28920, Note_on_c, 0, 100, 48
1, 28920, Note_on_c, 0, 36, 41
1, 29040, Tempo, 366972
1, 29040, Note_on_c, 0, 36, 0
1, 29040, Note_on_c, 0, 100, 0
1, 29040, Note_on_c, 0, 96, 44
1, 29040, Note_on_c, 0, 45, 43
1, 29160, Note_on_c, 0, 45, 0
1, 29160, Note_on_c, 0, 96, 0
1, 29160, Note_on_c, 0, 93, 41
1, 29160, Note_on_c, 0, 48, 41
1, 29265, Tempo, 366972
1, 29280, Note_on_c, 0, 48, 0
1, 29280, Note_on_c, 0, 93, 0
1, 29280, Note_on_c, 0, 88, 46
1, 29280, Note_on_c, 0, 52, 49
1, 29400, Note_on_c, 0, 52, 0
1, 29400, Note_on_c, 0, 88, 0
1, 29400, Note_on_c, 0, 91, 38
1, 29400, Note_on_c, 0, 48, 41
1, 29520, Note_on_c, 0, 48, 0
1, 29520, Note_on_c, 0, 91, 0
1, 29520, Note_on_c, 0, 88, 40
1, 29520, Note_on_c, 0, 57, 43
1, 29625, Tempo, 368098
1, 29640, Note_on_c, 0, 57, 0
1, 29640, Note_on_c, 0, 88, 0
1, 29640, Note_on_c, 0, 84, 32
1, 29640, Note_on_c, 0, 60, 41
1, 29760, Note_on_c, 0, 60, 0
1, 29760, Note_on_c, 0, 84, 0
1, 29760, Note_on_c, 0, 72, 35
1, 29760, Note_on_c, 0, 64, 50
1, 29880, Note_on_c, 0, 64, 0
1, 29880, Note_on_c, 0, 72, 0
1, 29880, Note_on_c, 0, 81, 44
1, 29880, Note_on_c, 0, 60, 42
1, 29961, Tempo, 369231
1, 30000, Note_on_c, 0, 60, 0
1, 30000, Note_on_c, 0, 81, 0
1, 30000, Note_on_c, 0, 84, 32
1, 30000, Note_on_c, 0, 69, 48
1, 30120, Note_on_c, 0, 69, 0
1, 30120, Note_on_c, 0, 84, 0
1, 30120, Note_on_c, 0, 87, 32
1, 30120, Note_on_c, 0, 72, 44
1, 30240, Note_on_c, 0, 72, 0
1, 30240, Note_on_c, 0, 41, 0
1, 30240, Note_on_c, 0, 60, 0
1, 30240, Note_on_c, 0, 69, 0
1, 30240, Note_on_c, 0, 57, 0
1, 30240, Note_on_c, 0, 87, 0
1, 30240, Note_on_c, 0, 29, 0
1, 30240, Note_on_c, 0, 83, 38
1, 30240, Note_on_c, 0, 75, 54
1, 30243, Control_c, 0, 64, 0
1, 30308, Control_c, 0, 64, 127
1, 30321, Tempo, 370370
1, 30360, Note_on_c, 0, 75, 0
1, 30360, Note_on_c, 0, 83, 0
1, 30360, Note_on_c, 0, 81, 32
1, 30360, Note_on_c, 0, 71, 44
1, 30480, Note_on_c, 0, 71, 0
1, 30480, Note_on_c, 0, 81, 0
1, 30480, Note_on_c, 0, 71, 34
1, 30480, Note_on_c, 0, 69, 47
1, 30600, Note_on_c, 0, 69, 0
1, 30600, Note_on_c, 0, 71, 0
1, 30600, Note_on_c, 0, 75, 33
1, 30600, Note_on_c, 0, 59, 42
1, 30657, Tempo, 371517
1, 30720, Note_on_c, 0, 59, 0
1, 30720, Note_on_c, 0, 75, 0
1, 30720, Note_on_c, 0, 71, 36
1, 30720, Note_on_c, 0, 63, 48
1, 30840, Note_on_c, 0, 63, 0
1, 30840, Note_on_c, 0, 71, 0
1, 30840, Note_on_c, 0, 69, 31
1, 30840, Note_on_c, 0, 59, 40
1, 30960, Note_on_c, 0, 59, 0
1, 30960, Note_on_c, 0, 69, 0
1, 30960, Note_on_c, 0, 59, 33
1, 30960, Note_on_c, 0, 57, 42
1, 30993, Tempo, 372671
1, 31080, Tempo, 409556
1, 31080, Note_on_c, 0, 57, 0
1, 31080, Note_on_c, 0, 59, 0
1, 31080, Note_on_c, 0, 63, 58
1, 31080, Note_on_c, 0, 47, 40
1, 31200, Tempo, 387097
1, 31200, Note_on_c, 0, 47, 0
1, 31200, Note_on_c, 0, 59, 36
1, 31200, Note_on_c, 0, 29, 42
1, 31200, Note_on_c, 0, 41, 51
1, 31320, Note_on_c, 0, 59, 0
1, 31320, Note_on_c, 0, 57, 32
1, 31440, Note_on_c, 0, 57, 0
1, 31440, Note_on_c, 0, 51, 33
1, 31560, Tempo, 485830
1, 31560, Note_on_c, 0, 51, 0
1, 31560, Note_on_c, 0, 47, 31
1, 31656, Control_c, 0, 64, 0
1, 31680, Note_on_c, 0, 47, 0
1, 31680, Note_on_c, 0, 41, 0
1, 31680, Note_on_c, 0, 29, 0
1, 31680, Note_on_c, 0, 63, 0
1, 31680, Note_on_c, 0, 59, 51
1, 31680, Note_on_c, 0, 52, 51
1, 31680, Note_on_c, 0, 64, 63
1, 31680, Note_on_c, 0, 57, 51
1, 31680, Note_on_c, 0, 28, 53
1, 31680, Note_on_c, 0, 40, 63
1, 31700, Tempo, 405405
1, 31760, Control_c, 0, 64, 127
1, 31800, Note_on_c, 0, 100, 51
1, 31800, Note_on_c, 0, 35, 43
1, 31820, Tempo, 382166
1, 31920, Note_on_c, 0, 35, 0
1, 31920, Note_on_c, 0, 100, 0
1, 31920, Note_on_c, 0, 95, 46
1, 31920, Note_on_c, 0, 45, 45
1, 31940, Tempo, 366972
1, 32040, Note_on_c, 0, 45, 0
1, 32040, Note_on_c, 0, 95, 0
1, 32040, Note_on_c, 0, 93, 43
1, 32040, Note_on_c, 0, 47, 43
1, 32097, Tempo, 365854
1, 32160, Note_on_c, 0, 47, 0
1, 32160, Note_on_c, 0, 93, 0
1, 32160, Note_on_c, 0, 83, 49
1, 32160, Note_on_c, 0, 52, 52
1, 32280, Note_on_c, 0, 52, 0
1, 32280, Note_on_c, 0, 83, 0
1, 32280, Note_on_c, 0, 88, 40
1, 32280, Note_on_c, 0, 47, 44
1, 32400, Note_on_c, 0, 47, 0
1, 32400, Note_on_c, 0, 88, 0
1, 32400, Note_on_c, 0, 83, 43
1, 32400, Note_on_c, 0, 57, 46
1, 32481, Tempo, 366972
1, 32520, Note_on_c, 0, 57, 0
1, 32520, Note_on_c, 0, 83, 0
1, 32520, Note_on_c, 0, 81, 34
1, 32520, Note_on_c, 0, 59, 44
1, 32640, Note_on_c, 0, 59, 0
1, 32640, Note_on_c, 0, 81, 0
1, 32640, Note_on_c, 0, 71, 37
1, 32640, Note_on_c, 0, 64, 53
1, 32760, Note_on_c, 0, 64, 0
1, 32760, Note_on_c, 0, 71, 0
1, 32760, Note_on_c, 0, 81, 47
1, 32760, Note_on_c, 0, 59, 45
1, 32841, Tempo, 368098
1, 32880, Note_on_c, 0, 59, 0
1, 32880, Note_on_c, 0, 81, 0
1, 32880, Note_on_c, 0, 83, 33
1, 32880, Note_on_c, 0, 69, 51
1, 33000, Note_on_c, 0, 69, 0
1, 33000, Note_on_c, 0, 83, 0
1, 33000, Note_on_c, 0, 88, 33
1, 33000, Note_on_c, 0, 71, 46
1, 33120, Note_on_c, 0, 71, 0
1, 33120, Note_on_c, 0, 59, 0
1, 33120, Note_on_c, 0, 28, 0
1, 33120, Note_on_c, 0, 52, 0
1, 33120, Note_on_c, 0, 64, 0
1, 33120, Note_on_c, 0, 57, 0
1, 33120, Note_on_c, 0, 40, 0
1, 33120, Note_on_c, 0, 88, 0
1, 33120, Note_on_c, 0, 83, 46
1, 33120, Note_on_c, 0, 76, 57
1, 33143, Control_c, 0, 64, 0
1, 33201, Tempo, 369231
1, 33208, Control_c, 0, 64, 127
1, 33240, Note_on_c, 0, 76, 0
1, 33240, Note_on_c, 0, 83, 0
1, 33240, Note_on_c, 0, 80, 36
1, 33240, Note_on_c, 0, 71, 46
1, 33360, Note_on_c, 0, 71, 0
1, 33360, Note_on_c, 0, 80, 0
1, 33360, Note_on_c, 0, 71, 39
1, 33360, Note_on_c, 0, 68, 52
1, 33480, Note_on_c, 0, 68, 0
1, 33480, Note_on_c, 0, 71, 0
1, 33480, Note_on_c, 0, 76, 36
1, 33480, Note_on_c, 0, 59, 49
1, 33561, Tempo, 370370
1, 33600, Note_on_c, 0, 59, 0
1, 33600, Note_on_c, 0, 76, 0
1, 33600, Note_on_c, 0, 71, 44
1, 33600, Note_on_c, 0, 64, 61
1, 33720, Note_on_c, 0, 64, 0
1, 33720, Note_on_c, 0, 71, 0
1, 33740, Note_on_c, 0, 68, 40
1, 33740, Note_on_c, 0, 59, 48
1, 33860, Note_on_c, 0, 59, 0
1, 33860, Note_on_c, 0, 68, 0
1, 33860, Note_on_c, 0, 59, 43
1, 33860, Note_on_c, 0, 56, 59
1, 33921, Tempo, 371517
1, 33960, Note_on_c, 0, 64, 67
1, 33960, Note_on_c, 0, 47, 54
1, 33980, Tempo, 409556
1, 33980, Note_on_c, 0, 56, 0
1, 33980, Note_on_c, 0, 59, 0
1, 34080, Note_on_c, 0, 47, 0
1, 34080, Note_on_c, 0, 59, 52
1, 34080, Note_on_c, 0, 40, 65
1, 34080, Note_on_c, 0, 28, 54
1, 34100, Tempo, 387097
1, 34200, Note_on_c, 0, 59, 0
1, 34220, Note_on_c, 0, 56, 47
1, 34340, Note_on_c, 0, 56, 0
1, 34340, Note_on_c, 0, 52, 53
1, 34440, Note_on_c, 0, 47, 57
1, 34460, Tempo, 485830
1, 34460, Note_on_c, 0, 52, 0
1, 34544, Control_c, 0, 64, 0
1, 34560, Tempo, 405405
1, 34560, Note_on_c, 0, 28, 0
1, 34560, Note_on_c, 0, 64, 0
1, 34560, Note_on_c, 0, 40, 0
1, 34560, Note_on_c, 0, 47, 0
1, 34560, Note_on_c, 0, 67, 77
1, 34560, Note_on_c, 0, 61, 69
1, 34560, Note_on_c, 0, 57, 69
1, 34560, Note_on_c, 0, 45, 77
1, 34560, Note_on_c, 0, 33, 73
1, 34620, Control_c, 0, 64, 127
1, 34680, Tempo, 382166
1, 34680, Note_on_c, 0, 103, 65
1, 34680, Note_on_c, 0, 40, 59
1, 34800, Tempo, 366972
1, 34800, Note_on_c, 0, 40, 0
1, 34800, Note_on_c, 0, 103, 0
1, 34800, Note_on_c, 0, 97, 62
1, 34800, Note_on_c, 0, 45, 62
1, 34920, Note_on_c, 0, 45, 0
1, 34920, Note_on_c, 0, 97, 0
1, 34920, Note_on_c, 0, 93, 59
1, 34920, Note_on_c, 0, 49, 59
1, 35025, Tempo, 366972
1, 35040, Note_on_c, 0, 49, 0
1, 35040, Note_on_c, 0, 93, 0
1, 35040, Note_on_c, 0, 88, 64
1, 35040, Note_on_c, 0, 55, 70
1, 35160, Note_on_c, 0, 55, 0
1, 35160, Note_on_c, 0, 88, 0
1, 35160, Note_on_c, 0, 91, 55
1, 35160, Note_on_c, 0, 52, 59
1, 35280, Note_on_c, 0, 52, 0
1, 35280, Note_on_c, 0, 91, 0
1, 35280, Note_on_c, 0, 85, 59
1, 35280, Note_on_c, 0, 57, 62
1, 35337, Tempo, 368098
1, 35400, Note_on_c, 0, 57, 0
1, 35400, Note_on_c, 0, 85, 0
1, 35400, Note_on_c, 0, 81, 54
1, 35400, Note_on_c, 0, 61, 60
1, 35520, Note_on_c, 0, 61, 0
1, 35520, Note_on_c, 0, 81, 0
1, 35520, Note_on_c, 0, 76, 52
1, 35520, Note_on_c, 0, 67, 73
1, 35625, Tempo, 369231
1, 35640, Note_on_c, 0, 67, 0
1, 35640, Note_on_c, 0, 76, 0
1, 35640, Note_on_c, 0, 81, 64
1, 35640, Note_on_c, 0, 64, 61
1, 35760, Note_on_c, 0, 64, 0
1, 35760, Note_on_c, 0, 81, 0
1, 35760, Note_on_c, 0, 85, 45
1, 35760, Note_on_c, 0, 69, 68
1, 35880, Note_on_c, 0, 69, 0
1, 35880, Note_on_c, 0, 85, 0
1, 35880, Note_on_c, 0, 91, 45
1, 35880, Note_on_c, 0, 73, 62
1, 35913, Tempo, 370370
1, 36000, Note_on_c, 0, 73, 0
1, 36000, Note_on_c, 0, 33, 0
1, 36000, Note_on_c, 0, 61, 0
1, 36000, Note_on_c, 0, 57, 0
1, 36000, Note_on_c, 0, 67, 0
1, 36000, Note_on_c, 0, 91, 0
1, 36000, Note_on_c, 0, 45, 0
1, 36000, Note_on_c, 0, 85, 55
1, 36000, Note_on_c, 0, 79, 73
1, 36120, Note_on_c, 0, 79, 0
1, 36120, Note_on_c, 0, 85, 0
1, 36120, Note_on_c, 0, 81, 45
1, 36120, Note_on_c, 0, 73, 62
1, 36201, Tempo, 371517
1, 36240, Note_on_c, 0, 73, 0
1, 36240, Note_on_c, 0, 81, 0
1, 36240, Note_on_c, 0, 76, 49
1, 36240, Note_on_c, 0, 69, 67
1, 36360, Note_on_c, 0, 69, 0
1, 36360, Note_on_c, 0, 76, 0
1, 36360, Note_on_c, 0, 79, 46
1, 36360, Note_on_c, 0, 64, 60
1, 36480, Note_on_c, 0, 64, 0
1, 36480, Note_on_c, 0, 79, 0
1, 36480, Note_on_c, 0, 73, 52
1, 36480, Note_on_c, 0, 67, 66
1, 36489, Tempo, 372671
1, 36600, Note_on_c, 0, 67, 0
1, 36600, Note_on_c, 0, 73, 0
1, 36600, Note_on_c, 0, 69, 44
1, 36600, Note_on_c, 0, 61, 57
1, 36720, Note_on_c, 0, 61, 0
1, 36720, Note_on_c, 0, 69, 0
1, 36720, Note_on_c, 0, 64, 47
1, 36720, Note_on_c, 0, 57, 61
1, 36777, Tempo, 373832
1, 36840, Tempo, 409556
1, 36840, Note_on_c, 0, 57, 0
1, 36840, Note_on_c, 0, 64, 0
1, 36840, Note_on_c, 0, 67, 44
1, 36840, Note_on_c, 0, 52, 56
1, 36960, Tempo, 387097
1, 36960, Note_on_c, 0, 52, 0
1, 36960, Note_on_c, 0, 67, 0
1, 36960, Note_on_c, 0, 66, 75
1, 36960, Note_on_c, 0, 38, 72
1, 36960, Note_on_c, 0, 26, 59
1, 36963, Control_c, 0, 64, 0
1, 37063, Control_c, 0, 64, 127
1, 37080, Note_on_c, 0, 60, 39
1, 37200, Note_on_c, 0, 60, 0
1, 37200, Note_on_c, 0, 57, 43
1, 37320, Tempo, 485830
1, 37320, Note_on_c, 0, 57, 0
1, 37320, Note_on_c, 0, 50, 38
1, 37423, Control_c, 0, 64, 0
1, 37440, Tempo, 405405
1, 37440, Note_on_c, 0, 50, 0
1, 37440, Note_on_c, 0, 66, 0
1, 37440, Note_on_c, 0, 38, 0
1, 37440, Note_on_c, 0, 26, 0
1, 37440, Note_on_c, 0, 55, 69
1, 37440, Note_on_c, 0, 60, 69
1, 37440, Note_on_c, 0, 65, 77
1, 37440, Note_on_c, 0, 31, 73
1, 37440, Note_on_c, 0, 43, 77
1, 37500, Control_c, 0, 64, 127
1, 37560, Tempo, 382166
1, 37560, Note_on_c, 0, 101, 65
1, 37560, Note_on_c, 0, 38, 59
1, 37680, Tempo, 366972
1, 37680, Note_on_c, 0, 38, 0
1, 37680, Note_on_c, 0, 101, 0
1, 37680, Note_on_c, 0, 96, 62
1, 37680, Note_on_c, 0, 43, 62
1, 37800, Note_on_c, 0, 43, 0
1, 37800, Note_on_c, 0, 96, 0
1, 37800, Note_on_c, 0, 91, 59
1, 37800, Note_on_c, 0, 48, 59
1, 37905, Tempo, 365854
1, 37920, Note_on_c, 0, 48, 0
1, 37920, Note_on_c, 0, 91, 0
1, 37920, Note_on_c, 0, 86, 64
1, 37920, Note_on_c, 0, 53, 70
1, 38040, Note_on_c, 0, 53, 0
1, 38040, Note_on_c, 0, 86, 0
1, 38040, Note_on_c, 0, 89, 55
1, 38040, Note_on_c, 0, 50, 59
1, 38160, Note_on_c, 0, 50, 0
1, 38160, Note_on_c, 0, 89, 0
1, 38160, Note_on_c, 0, 84, 59
1, 38160, Note_on_c, 0, 55, 62
1, 38265, Tempo, 366972
1, 38280, Note_on_c, 0, 55, 0
1, 38280, Note_on_c, 0, 84, 0
1, 38280, Note_on_c, 0, 79, 54
1, 38280, Note_on_c, 0, 60, 60
1, 38400, Note_on_c, 0, 60, 0
1, 38400, Note_on_c, 0, 79, 0
1, 38400, Note_on_c, 0, 74, 52
1, 38400, Note_on_c, 0, 65, 73
1, 38520, Note_on_c, 0, 65, 0
1, 38520, Note_on_c, 0, 74, 0
1, 38520, Note_on_c, 0, 79, 64
1, 38520, Note_on_c, 0, 62, 61
1, 38625, Tempo, 368098
1, 38640, Note_on_c, 0, 62, 0
1, 38640, Note_on_c, 0, 79, 0
1, 38640, Note_on_c, 0, 84, 45
1, 38640, Note_on_c, 0, 67, 68
1, 38760, Note_on_c, 0, 67, 0
1, 38760, Note_on_c, 0, 84, 0
1, 38760, Note_on_c, 0, 89, 45
1, 38760, Note_on_c, 0, 72, 62
1, 38880, Note_on_c, 0, 72, 0
1, 38880, Note_on_c, 0, 43, 0
1, 38880, Note_on_c, 0, 60, 0
1, 38880, Note_on_c, 0, 65, 0
1, 38880, Note_on_c, 0, 55, 0
1, 38880, Note_on_c, 0, 89, 0
1, 38880, Note_on_c, 0, 31, 0
1, 38880, Note_on_c, 0, 83, 55
1, 38880, Note_on_c, 0, 77, 74
1, 38887, Control_c, 0, 64, 0
1, 38950, Control_c, 0, 64, 127
1, 38961, Tempo, 369231
1, 39000, Note_on_c, 0, 77, 0
1, 39000, Note_on_c, 0, 83, 0
1, 39000, Note_on_c, 0, 79, 45
1, 39000, Note_on_c, 0, 71, 62
1, 39120, Note_on_c, 0, 71, 0
1, 39120, Note_on_c, 0, 79, 0
1, 39120, Note_on_c, 0, 74, 49
1, 39120, Note_on_c, 0, 67, 64
1, 39240, Note_on_c, 0, 67, 0
1, 39240, Note_on_c, 0, 74, 0
1, 39240, Note_on_c, 0, 77, 46
1, 39240, Note_on_c, 0, 62, 60
1, 39321, Tempo, 370370
1, 39360, Note_on_c, 0, 62, 0
1, 39360, Note_on_c, 0, 77, 0
1, 39360, Note_on_c, 0, 71, 52
1, 39360, Note_on_c, 0, 65, 66
1, 39480, Note_on_c, 0, 65, 0
1, 39480, Note_on_c, 0, 71, 0
1, 39480, Note_on_c, 0, 67, 44
1, 39480, Note_on_c, 0, 59, 57
1, 39600, Note_on_c, 0, 59, 0
1, 39600, Note_on_c, 0, 67, 0
1, 39600, Note_on_c, 0, 62, 47
1, 39600, Note_on_c, 0, 55, 61
1, 39657, Tempo, 371517
1, 39720, Tempo, 409556
1, 39720, Note_on_c, 0, 55, 0
1, 39720, Note_on_c, 0, 62, 0
1, 39720, Note_on_c, 0, 65, 44
1, 39720, Note_on_c, 0, 50, 56
1, 39840, Tempo, 387097
1, 39840, Note_on_c, 0, 50, 0
1, 39840, Note_on_c, 0, 65, 0
1, 39840, Note_on_c, 0, 64, 76
1, 39840, Note_on_c, 0, 24, 59
1, 39840, Note_on_c, 0, 36, 72
1, 39843, Control_c, 0, 64, 0
1, 39943, Control_c, 0, 64, 127
1, 39960, Note_on_c, 0, 59, 41
1, 40080, Note_on_c, 0, 59, 0
1, 40080, Note_on_c, 0, 55, 45
1, 40200, Tempo, 485830
1, 40200, Note_on_c, 0, 55, 0
1, 40200, Note_on_c, 0, 48, 39
1, 40303, Control_c, 0, 64, 0
1, 40320, Tempo, 405405
1, 40320, Note_on_c, 0, 48, 0
1, 40320, Note_on_c, 0, 64, 0
1, 40320, Note_on_c, 0, 24, 0
1, 40320, Note_on_c, 0, 36, 0
1, 40320, Note_on_c, 0, 58, 69
1, 40320, Note_on_c, 0, 55, 69
1, 40320, Note_on_c, 0, 64, 77
1, 40320, Note_on_c, 0, 48, 77
1, 40320, Note_on_c, 0, 36, 73
1, 40380, Control_c, 0, 64, 127
1, 40440, Tempo, 382166
1, 40440, Note_on_c, 0, 36, 0
1, 40440, Note_on_c, 0, 100, 65
1, 40440, Note_on_c, 0, 36, 59
1, 40560, Tempo, 366972
1, 40560, Note_on_c, 0, 100, 0
1, 40560, Note_on_c, 0, 94, 62
1, 40560, Note_on_c, 0, 43, 62
1, 40680, Note_on_c, 0, 43, 0
1, 40680, Note_on_c, 0, 94, 0
1, 40680, Note_on_c, 0, 91, 59
1, 40680, Note_on_c, 0, 46, 59
1, 40769, Tempo, 365854
1, 40800, Note_on_c, 0, 46, 0
1, 40800, Note_on_c, 0, 91, 0
1, 40800, Note_on_c, 0, 84, 64
1, 40800, Note_on_c, 0, 52, 70
1, 40920, Note_on_c, 0, 52, 0
1, 40920, Note_on_c, 0, 84, 0
1, 40920, Note_on_c, 0, 88, 55
1, 40920, Note_on_c, 0, 48, 59
1, 41040, Note_on_c, 0, 48, 0
1, 41040, Note_on_c, 0, 88, 0
1, 41040, Note_on_c, 0, 82, 59
1, 41040, Note_on_c, 0, 55, 62
1, 41081, Tempo, 366972
1, 41160, Note_on_c, 0, 55, 0
1, 41160, Note_on_c, 0, 82, 0
1, 41160, Note_on_c, 0, 79, 54
1, 41160, Note_on_c, 0, 58, 60
1, 41280, Note_on_c, 0, 58, 0
1, 41280, Note_on_c, 0, 79, 0
1, 41280, Note_on_c, 0, 72, 52
1, 41280, Note_on_c, 0, 64, 70
1, 41369, Tempo, 368098
1, 41400, Note_on_c, 0, 64, 0
1, 41400, Note_on_c, 0, 72, 0
1, 41400, Note_on_c, 0, 79, 64
1, 41400, Note_on_c, 0, 60, 59
1, 41520, Note_on_c, 0, 60, 0
1, 41520, Note_on_c, 0, 79, 0
1, 41520, Note_on_c, 0, 82, 45
1, 41520, Note_on_c, 0, 67, 68
1, 41640, Note_on_c, 0, 67, 0
1, 41640, Note_on_c, 0, 82, 0
1, 41640, Note_on_c, 0, 87, 45
1, 41640, Note_on_c, 0, 70, 62
1, 41657, Tempo, 369231
1, 41760, Note_on_c, 0, 70, 0
1, 41760, Note_on_c, 0, 36, 0
1, 41760, Note_on_c, 0, 55, 0
1, 41760, Note_on_c, 0, 48, 0
1, 41760, Note_on_c, 0, 58, 0
1, 41760, Note_on_c, 0, 87, 0
1, 41760, Note_on_c, 0, 64, 0
1, 41760, Note_on_c, 0, 82, 55
1, 41760, Note_on_c, 0, 75, 69
1, 41764, Control_c, 0, 64, 0
1, 41820, Control_c, 0, 64, 127
1, 41880, Note_on_c, 0, 75, 0
1, 41880, Note_on_c, 0, 82, 0
1, 41880, Note_on_c, 0, 78, 45
1, 41880, Note_on_c, 0, 70, 59
1, 41945, Tempo, 370370
1, 42000, Note_on_c, 0, 70, 0
1, 42000, Note_on_c, 0, 78, 0
1, 42000, Note_on_c, 0, 72, 50
1, 42000, Note_on_c, 0, 63, 64
1, 42120, Note_on_c, 0, 63, 0
1, 42120, Note_on_c, 0, 72, 0
1, 42120, Note_on_c, 0, 75, 46
1, 42120, Note_on_c, 0, 60, 61
1, 42233, Tempo, 371517
1, 42240, Note_on_c, 0, 60, 0
1, 42240, Note_on_c, 0, 75, 0
1, 42240, Note_on_c, 0, 70, 53
1, 42240, Note_on_c, 0, 63, 67
1, 42360, Note_on_c, 0, 63, 0
1, 42360, Note_on_c, 0, 70, 0
1, 42360, Note_on_c, 0, 66, 44
1, 42360, Note_on_c, 0, 58, 58
1, 42480, Note_on_c, 0, 58, 0
1, 42480, Note_on_c, 0, 66, 0
1, 42480, Note_on_c, 0, 60, 48
1, 42480, Note_on_c, 0, 51, 62
1, 42521, Tempo, 372671
1, 42600, Tempo, 409556
1, 42600, Note_on_c, 0, 51, 0
1, 42600, Note_on_c, 0, 60, 0
1, 42600, Note_on_c, 0, 63, 76
1, 42600, Note_on_c, 0, 48, 57
1, 42720, Tempo, 387097
1, 42720, Note_on_c, 0, 48, 0
1, 42720, Note_on_c, 0, 58, 53
1, 42720, Note_on_c, 0, 30, 60
1, 42720, Note_on_c, 0, 42, 74
1, 42840, Note_on_c, 0, 58, 0
1, 42840, Note_on_c, 0, 51, 43
1, 42960, Note_on_c, 0, 51, 0
1, 42960, Note_on_c, 0, 48, 48
1, 43080, Tempo, 485830
1, 43080, Note_on_c, 0, 48, 0
1, 43080, Note_on_c, 0, 46, 41
1, 43183, Control_c, 0, 64, 0
1, 43200, Tempo, 405405
1, 43200, Note_on_c, 0, 46, 0
1, 43200, Note_on_c, 0, 42, 0
1, 43200, Note_on_c, 0, 30, 0
1, 43200, Note_on_c, 0, 63, 0
1, 43200, Note_on_c, 0, 51, 71
1, 43200, Note_on_c, 0, 63, 79
1, 43200, Note_on_c, 0, 57, 71
1, 43200, Note_on_c, 0, 29, 75
1, 43200, Note_on_c, 0, 41, 79
1, 43260, Control_c, 0, 64, 127
1, 43320, Tempo, 382166
1, 43320, Note_on_c, 0, 99, 67
1, 43320, Note_on_c, 0, 36, 60
1, 43440, Tempo, 366972
1, 43440, Note_on_c, 0, 36, 0
1, 43440, Note_on_c, 0, 99, 0
1, 43440, Note_on_c, 0, 93, 64
1, 43440, Note_on_c, 0, 39, 64
1, 43560, Note_on_c, 0, 39, 0
1, 43560, Note_on_c, 0, 93, 0
1, 43560, Note_on_c, 0, 87, 61
1, 43560, Note_on_c, 0, 45, 61
1, 43680, Tempo, 366972
1, 43680, Note_on_c, 0, 45, 0
1, 43680, Note_on_c, 0, 87, 0
1, 43680, Note_on_c, 0, 84, 66
1, 43680, Note_on_c, 0, 51, 72
1, 43697, Tempo, 364742
1, 43800, Note_on_c, 0, 51, 0
1, 43800, Note_on_c, 0, 84, 0
1, 43800, Note_on_c, 0, 87, 57
1, 43800, Note_on_c, 0, 48, 61
1, 43913, Tempo, 365854
1, 43920, Note_on_c, 0, 48, 0
1, 43920, Note_on_c, 0, 87, 0
1, 43920, Note_on_c, 0, 81, 61
1, 43920, Note_on_c, 0, 51, 64
1, 44040, Note_on_c, 0, 51, 0
1, 44040, Note_on_c, 0, 81, 0
1, 44040, Note_on_c, 0, 75, 56
1, 44040, Note_on_c, 0, 57, 62
1, 44129, Tempo, 366972
1, 44160, Note_on_c, 0, 57, 0
1, 44160, Note_on_c, 0, 75, 0
1, 44160, Note_on_c, 0, 72, 54
1, 44160, Note_on_c, 0, 63, 76
1, 44280, Note_on_c, 0, 63, 0
1, 44280, Note_on_c, 0, 72, 0
1, 44280, Note_on_c, 0, 75, 67
1, 44280, Note_on_c, 0, 60, 64
1, 44345, Tempo, 368098
1, 44400, Note_on_c, 0, 60, 0
1, 44400, Note_on_c, 0, 75, 0
1, 44400, Note_on_c, 0, 81, 47
1, 44400, Note_on_c, 0, 63, 71
1, 44520, Note_on_c, 0, 63, 0
1, 44520, Note_on_c, 0, 81, 0
1, 44520, Note_on_c, 0, 87, 47
1, 44520, Note_on_c, 0, 69, 65
1, 44561, Tempo, 369231
1, 44640, Note_on_c, 0, 69, 0
1, 44640, Note_on_c, 0, 41, 0
1, 44640, Note_on_c, 0, 63, 0
1, 44640, Note_on_c, 0, 57, 0
1, 44640, Note_on_c, 0, 51, 0
1, 44640, Note_on_c, 0, 87, 0
1, 44640, Note_on_c, 0, 29, 0
1, 44640, Note_on_c, 0, 80, 57
1, 44640, Note_on_c, 0, 75, 73
1, 44644, Control_c, 0, 64, 0
1, 44728, Control_c, 0, 64, 127
1, 44760, Note_on_c, 0, 75, 0
1, 44760, Note_on_c, 0, 80, 0
1, 44760, Note_on_c, 0, 75, 47
1, 44760, Note_on_c, 0, 68, 65
1, 44777, Tempo, 370370
1, 44880, Note_on_c, 0, 68, 0
1, 44880, Note_on_c, 0, 75, 0
1, 44880, Note_on_c, 0, 71, 51
1, 44880, Note_on_c, 0, 63, 65
1, 44993, Tempo, 371517
1, 45000, Note_on_c, 0, 63, 0
1, 45000, Note_on_c, 0, 71, 0
1, 45000, Note_on_c, 0, 75, 48
1, 45000, Note_on_c, 0, 59, 63
1, 45120, Note_on_c, 0, 59, 0
1, 45120, Note_on_c, 0, 75, 0
1, 45120, Note_on_c, 0, 68, 55
1, 45120, Note_on_c, 0, 63, 70
1, 45209, Tempo, 372671
1, 45240, Note_on_c, 0, 63, 0
1, 45240, Note_on_c, 0, 68, 0
1, 45240, Note_on_c, 0, 63, 46
1, 45240, Note_on_c, 0, 56, 60
1, 45360, Note_on_c, 0, 56, 0
1, 45360, Note_on_c, 0, 63, 0
1, 45360, Note_on_c, 0, 59, 50
1, 45360, Note_on_c, 0, 51, 64
1, 45425, Tempo, 373832
1, 45480, Tempo, 409556
1, 45480, Note_on_c, 0, 51, 0
1, 45480, Note_on_c, 0, 59, 0
1, 45480, Note_on_c, 0, 63, 76
1, 45480, Note_on_c, 0, 47, 58
1, 45600, Tempo, 387097
1, 45600, Note_on_c, 0, 47, 0
1, 45600, Note_on_c, 0, 59, 55
1, 45600, Note_on_c, 0, 41, 76
1, 45600, Note_on_c, 0, 29, 62
1, 45720, Note_on_c, 0, 59, 0
1, 45720, Note_on_c, 0, 56, 44
1, 45840, Note_on_c, 0, 56, 0
1, 45840, Note_on_c, 0, 51, 48
1, 45960, Tempo, 485830
1, 45960, Note_on_c, 0, 51, 0
1, 45960, Note_on_c, 0, 47, 44
1, 46063, Control_c, 0, 64, 0
1, 46080, Tempo, 405405
1, 46080, Note_on_c, 0, 47, 0
1, 46080, Note_on_c, 0, 29, 0
1, 46080, Note_on_c, 0, 41, 0
1, 46080, Note_on_c, 0, 63, 0
1, 46080, Note_on_c, 0, 56, 74
1, 46080, Note_on_c, 0, 50, 74
1, 46080, Note_on_c, 0, 62, 82
1, 46080, Note_on_c, 0, 34, 77
1, 46080, Note_on_c, 0, 46, 82
1, 46140, Control_c, 0, 64, 127
1, 46200, Tempo, 382166
1, 46200, Note_on_c, 0, 34, 0
1, 46200, Note_on_c, 0, 98, 69
1, 46200, Note_on_c, 0, 34, 63
1, 46320, Tempo, 366972
1, 46320, Note_on_c, 0, 98, 0
1, 46320, Note_on_c, 0, 92, 66
1, 46320, Note_on_c, 0, 41, 66
1, 46440, Note_on_c, 0, 41, 0
1, 46440, Note_on_c, 0, 92, 0
1, 46440, Note_on_c, 0, 89, 63
1, 46440, Note_on_c, 0, 44, 63
1, 46560, Tempo, 366972
1, 46560, Note_on_c, 0, 44, 0
1, 46560, Note_on_c, 0, 89, 0
1, 46560, Note_on_c, 0, 82, 69
1, 46560, Note_on_c, 0, 50, 75
1, 46577, Tempo, 366972
1, 46680, Note_on_c, 0, 50, 0
1, 46680, Note_on_c, 0, 82, 0
1, 46680, Note_on_c, 0, 86, 58
1, 46680, Note_on_c, 0, 46, 64
1, 46800, Note_on_c, 0, 46, 0
1, 46800, Note_on_c, 0, 86, 0
1, 46800, Note_on_c, 0, 80, 64
1, 46800, Note_on_c, 0, 53, 67
1, 46865, Tempo, 368098
1, 46920, Note_on_c, 0, 53, 0
1, 46920, Note_on_c, 0, 80, 0
1, 46920, Note_on_c, 0, 77, 57
1, 46920, Note_on_c, 0, 56, 65
1, 47040, Note_on_c, 0, 56, 0
1, 47040, Note_on_c, 0, 77, 0
1, 47040, Note_on_c, 0, 70, 56
1, 47040, Note_on_c, 0, 62, 78
1, 47153, Tempo, 369231
1, 47160, Note_on_c, 0, 62, 0
1, 47160, Note_on_c, 0, 70, 0
1, 47160, Note_on_c, 0, 77, 69
1, 47160, Note_on_c, 0, 58, 66
1, 47280, Note_on_c, 0, 58, 0
1, 47280, Note_on_c, 0, 77, 0
1, 47280, Note_on_c, 0, 80, 49
1, 47280, Note_on_c, 0, 65, 74
1, 47400, Note_on_c, 0, 65, 0
1, 47400, Note_on_c, 0, 80, 0
1, 47400, Note_on_c, 0, 86, 49
1, 47400, Note_on_c, 0, 68, 67
1, 47417, Tempo, 370370
1, 47520, Note_on_c, 0, 68, 0
1, 47520, Note_on_c, 0, 34, 0
1, 47520, Note_on_c, 0, 50, 0
1, 47520, Note_on_c, 0, 46, 0
1, 47520, Note_on_c, 0, 56, 0
1, 47520, Note_on_c, 0, 86, 0
1, 47520, Note_on_c, 0, 62, 0
1, 47520, Note_on_c, 0, 80, 59
1, 47520, Note_on_c, 0, 74, 77
1, 47524, Control_c, 0, 64, 0
1, 47608, Control_c, 0, 64, 127
1, 47640, Note_on_c, 0, 74, 0
1, 47640, Note_on_c, 0, 80, 0
1, 47640, Note_on_c, 0, 76, 49
1, 47640, Note_on_c, 0, 68, 67
1, 47705, Tempo, 371517
1, 47760, Note_on_c, 0, 68, 0
1, 47760, Note_on_c, 0, 76, 0
1, 47760, Note_on_c, 0, 70, 53
1, 47760, Note_on_c, 0, 64, 70
1, 47880, Note_on_c, 0, 64, 0
1, 47880, Note_on_c, 0, 70, 0
1, 47880, Note_on_c, 0, 74, 50
1, 47880, Note_on_c, 0, 58, 65
1, 47993, Tempo, 372671
1, 48000, Note_on_c, 0, 58, 0
1, 48000, Note_on_c, 0, 74, 0
1, 48000, Note_on_c, 0, 68, 57
1, 48000, Note_on_c, 0, 62, 73
1, 48120, Note_on_c, 0, 62, 0
1, 48120, Note_on_c, 0, 68, 0
1, 48120, Note_on_c, 0, 64, 48
1, 48120, Note_on_c, 0, 56, 63
1, 48240, Note_on_c, 0, 56, 0
1, 48240, Note_on_c, 0, 64, 0
1, 48240, Note_on_c, 0, 58, 52
1, 48240, Note_on_c, 0, 52, 67
1, 48257, Tempo, 373832
1, 48360, Tempo, 409556
1, 48360, Note_on_c, 0, 52, 0
1, 48360, Note_on_c, 0, 58, 0
1, 48360, Note_on_c, 0, 62, 79
1, 48360, Note_on_c, 0, 46, 60
1, 48480, Tempo, 387097
1, 48480, Note_on_c, 0, 46, 0
1, 48480, Note_on_c, 0, 56, 57
1, 48480, Note_on_c, 0, 50, 67
1, 48600, Note_on_c, 0, 50, 0
1, 48600, Note_on_c, 0, 56, 0
1, 48600, Note_on_c, 0, 52, 45
1, 48600, Note_on_c, 0, 44, 58
1, 48720, Note_on_c, 0, 44, 0
1, 48720, Note_on_c, 0, 52, 0
1, 48720, Note_on_c, 0, 50, 50
1, 48720, Note_on_c, 0, 40, 65
1, 48840, Tempo, 485830
1, 48840, Note_on_c, 0, 40, 0
1, 48840, Note_on_c, 0, 50, 0
1, 48840, Note_on_c, 0, 46, 43
1, 48840, Note_on_c, 0, 34, 58
1, 48943, Control_c, 0, 64, 0
1, 48960, Tempo, 405405
1, 48960, Note_on_c, 0, 34, 0
1, 48960, Note_on_c, 0, 46, 0
1, 48960, Note_on_c, 0, 62, 0
1, 48960, Note_on_c, 0, 57, 76
1, 48960, Note_on_c, 0, 62, 86
1, 48960, Note_on_c, 0, 50, 76
1, 48960, Note_on_c, 0, 52, 76
1, 48960, Note_on_c, 0, 45, 86
1, 48960, Note_on_c, 0, 33, 80
1, 49020, Control_c, 0, 64, 127
1, 49080, Tempo, 382166
1, 49080, Note_on_c, 0, 33, 0
1, 49080, Note_on_c, 0, 98, 72
1, 49080, Note_on_c, 0, 33, 65
1, 49200, Tempo, 366972
1, 49200, Note_on_c, 0, 98, 0
1, 49200, Note_on_c, 0, 93, 69
1, 49200, Note_on_c, 0, 40, 69
1, 49320, Note_on_c, 0, 40, 0
1, 49320, Note_on_c, 0, 93, 0
1, 49320, Note_on_c, 0, 88, 65
1, 49320, Note_on_c, 0, 45, 65
1, 49433, Tempo, 368098
1, 49440, Note_on_c, 0, 45, 0
1, 49440, Note_on_c, 0, 88, 0
1, 49440, Note_on_c, 0, 81, 71
1, 49440, Note_on_c, 0, 50, 77
1, 49560, Note_on_c, 0, 50, 0
1, 49560, Note_on_c, 0, 81, 0
1, 49560, Note_on_c, 0, 86, 60
1, 49560, Note_on_c, 0, 45, 66
1, 49680, Note_on_c, 0, 45, 0
1, 49680, Note_on_c, 0, 86, 0
1, 49680, Note_on_c, 0, 81, 66
1, 49680, Note_on_c, 0, 52, 69
1, 49800, Note_on_c, 0, 52, 0
1, 49800, Note_on_c, 0, 81, 0
1, 49800, Note_on_c, 0, 76, 59
1, 49800, Note_on_c, 0, 57, 67
1, 49889, Tempo, 369231
1, 49920, Note_on_c, 0, 57, 0
1, 49920, Note_on_c, 0, 76, 0
1, 49920, Note_on_c, 0, 69, 57
1, 49920, Note_on_c, 0, 62, 81
1, 50040, Note_on_c, 0, 62, 0
1, 50040, Note_on_c, 0, 69, 0
1, 50040, Note_on_c, 0, 76, 72
1, 50040, Note_on_c, 0, 57, 68
1, 50160, Note_on_c, 0, 57, 0
1, 50160, Note_on_c, 0, 76, 0
1, 50160, Note_on_c, 0, 81, 50
1, 50160, Note_on_c, 0, 64, 76
1, 50280, Note_on_c, 0, 64, 0
1, 50280, Note_on_c, 0, 81, 0
1, 50280, Note_on_c, 0, 85, 50
1, 50280, Note_on_c, 0, 69, 69
1, 50321, Tempo, 370370
1, 50400, Note_on_c, 0, 69, 0
1, 50400, Note_on_c, 0, 52, 0
1, 50400, Note_on_c, 0, 62, 0
1, 50400, Note_on_c, 0, 45, 0
1, 50400, Note_on_c, 0, 50, 0
1, 50400, Note_on_c, 0, 57, 0
1, 50400, Note_on_c, 0, 33, 0
1, 50400, Note_on_c, 0, 85, 0
1, 50400, Note_on_c, 0, 81, 61
1, 50400, Note_on_c, 0, 73, 82
1, 50404, Control_c, 0, 64, 0
1, 50488, Control_c, 0, 64, 127
1, 50520, Note_on_c, 0, 73, 0
1, 50520, Note_on_c, 0, 81, 0
1, 50520, Note_on_c, 0, 76, 51
1, 50520, Note_on_c, 0, 69, 70
1, 50640, Note_on_c, 0, 69, 0
1, 50640, Note_on_c, 0, 76, 0
1, 50640, Note_on_c, 0, 69, 55
1, 50640, Note_on_c, 0, 64, 72
1, 50753, Tempo, 371517
1, 50760, Note_on_c, 0, 64, 0
1, 50760, Note_on_c, 0, 69, 0
1, 50760, Note_on_c, 0, 73, 52
1, 50760, Note_on_c, 0, 57, 68
1, 50880, Note_on_c, 0, 57, 0
1, 50880, Note_on_c, 0, 73, 0
1, 50880, Note_on_c, 0, 69, 58
1, 50880, Note_on_c, 0, 61, 75
1, 51000, Note_on_c, 0, 61, 0
1, 51000, Note_on_c, 0, 69, 0
1, 51000, Note_on_c, 0, 64, 50
1, 51000, Note_on_c, 0, 57, 64
1, 51120, Note_on_c, 0, 57, 0
1, 51120, Note_on_c, 0, 64, 0
1, 51120, Note_on_c, 0, 57, 54
1, 51120, Note_on_c, 0, 52, 70
1, 51185, Tempo, 372671
1, 51240, Tempo, 409556
1, 51240, Note_on_c, 0, 52, 0
1, 51240, Note_on_c, 0, 57, 0
1, 51240, Note_on_c, 0, 61, 85
1, 51240, Note_on_c, 0, 45, 63
1, 51360, Tempo, 387097
1, 51360, Note_on_c, 0, 45, 0
1, 51360, Note_on_c, 0, 57, 58
1, 51360, Note_on_c, 0, 49, 70
1, 51480, Note_on_c, 0, 49, 0
1, 51480, Note_on_c, 0, 57, 0
1, 51480, Note_on_c, 0, 52, 47
1, 51480, Note_on_c, 0, 45, 60
1, 51600, Note_on_c, 0, 45, 0
1, 51600, Note_on_c, 0, 52, 0
1, 51600, Note_on_c, 0, 49, 54
1, 51600, Note_on_c, 0, 40, 67
1, 51720, Tempo, 485830
1, 51720, Note_on_c, 0, 40, 0
1, 51720, Note_on_c, 0, 49, 0
1, 51720, Note_on_c, 0, 45, 46
1, 51720, Note_on_c, 0, 33, 59
1, 51823, Control_c, 0, 64, 0
1, 51840, Tempo, 405405
1, 51840, Note_on_c, 0, 33, 0
1, 51840, Note_on_c, 0, 45, 0
1, 51840, Note_on_c, 0, 61, 0
1, 51840, Note_on_c, 0, 60, 76
1, 51840, Note_on_c, 0, 66, 76
1, 51840, Note_on_c, 0, 72, 88
1, 51840, Note_on_c, 0, 26, 70
1, 51840, Note_on_c, 0, 38, 77
1, 51900, Control_c, 0, 64, 127
1, 51960, Tempo, 382166
1, 51960, Note_on_c, 0, 84, 73
1, 51960, Note_on_c, 0, 96, 78
1, 51960, Note_on_c, 0, 33, 71
1, 52080, Tempo, 366972
1, 52080, Note_on_c, 0, 33, 0
1, 52080, Note_on_c, 0, 96, 0
1, 52080, Note_on_c, 0, 84, 0
1, 52080, Note_on_c, 0, 90, 74
1, 52080, Note_on_c, 0, 38, 74
1, 52200, Note_on_c, 0, 38, 0
1, 52200, Note_on_c, 0, 90, 0
1, 52200, Note_on_c, 0, 86, 70
1, 52200, Note_on_c, 0, 42, 70
1, 52320, Tempo, 366972
1, 52320, Note_on_c, 0, 42, 0
1, 52320, Note_on_c, 0, 86, 0
1, 52320, Note_on_c, 0, 81, 76
1, 52320, Note_on_c, 0, 48, 83
1, 52440, Note_on_c, 0, 48, 0
1, 52440, Note_on_c, 0, 81, 0
1, 52440, Note_on_c, 0, 84, 63
1, 52440, Note_on_c, 0, 45, 70
1, 52560, Note_on_c, 0, 45, 0
1, 52560, Note_on_c, 0, 84, 0
1, 52560, Note_on_c, 0, 78, 70
1, 52560, Note_on_c, 0, 50, 73
1, 52680, Note_on_c, 0, 50, 0
1, 52680, Note_on_c, 0, 78, 0
1, 52680, Note_on_c, 0, 74, 62
1, 52680, Note_on_c, 0, 54, 71
1, 52793, Tempo, 368098
1, 52800, Note_on_c, 0, 54, 0
1, 52800, Note_on_c, 0, 74, 0
1, 52800, Note_on_c, 0, 69, 60
1, 52800, Note_on_c, 0, 60, 84
1, 52920, Note_on_c, 0, 60, 0
1, 52920, Note_on_c, 0, 69, 0
1, 52920, Note_on_c, 0, 74, 75
1, 52920, Note_on_c, 0, 57, 71
1, 53040, Note_on_c, 0, 57, 0
1, 53040, Note_on_c, 0, 74, 0
1, 53040, Note_on_c, 0, 78, 58
1, 53040, Note_on_c, 0, 62, 77
1, 53057, Tempo, 369231
1, 53160, Note_on_c, 0, 62, 0
1, 53160, Note_on_c, 0, 78, 0
1, 53160, Note_on_c, 0, 84, 58
1, 53160, Note_on_c, 0, 66, 71
1, 53280, Note_on_c, 0, 66, 0
1, 53280, Note_on_c, 0, 38, 0
1, 53280, Note_on_c, 0, 66, 0
1, 53280, Note_on_c, 0, 72, 0
1, 53280, Note_on_c, 0, 26, 0
1, 53280, Note_on_c, 0, 84, 0
1, 53280, Note_on_c, 0, 60, 0
1, 53280, Note_on_c, 0, 77, 62
1, 53280, Note_on_c, 0, 72, 82
1, 53284, Control_c, 0, 64, 0
1, 53321, Tempo, 370370
1, 53368, Control_c, 0, 64, 127
1, 53400, Note_on_c, 0, 77, 0
1, 53400, Note_on_c, 0, 74, 52
1, 53400, Note_on_c, 0, 65, 71
1, 53520, Note_on_c, 0, 65, 0
1, 53520, Note_on_c, 0, 74, 0
1, 53520, Note_on_c, 0, 69, 56
1, 53520, Note_on_c, 0, 62, 79
1, 53585, Tempo, 371517
1, 53640, Tempo, 393443
1, 53640, Note_on_c, 0, 62, 0
1, 53640, Note_on_c, 0, 69, 0
1, 53640, Note_on_c, 0, 72, 52
1, 53640, Note_on_c, 0, 57, 70
1, 53721, Tempo, 360360
1, 53760, Note_on_c, 0, 57, 0
1, 53760, Note_on_c, 0, 72, 0
1, 53760, Note_on_c, 0, 72, 0
1, 53760, Note_on_c, 0, 71, 62
1, 53760, Note_on_c, 0, 83, 75
1, 53760, Note_on_c, 0, 60, 79
1, 53769, Tempo, 361446
1, 53817, Tempo, 362538
1, 53865, Tempo, 363636
1, 53880, Note_on_c, 0, 83, 0
1, 53880, Note_on_c, 0, 71, 0
1, 53880, Note_on_c, 0, 81, 63
1, 53880, Note_on_c, 0, 69, 53
1, 53880, Note_on_c, 0, 53, 64
1, 53913, Tempo, 364742
1, 53961, Tempo, 365854
1, 54000, Note_on_c, 0, 53, 0
1, 54000, Note_on_c, 0, 69, 0
1, 54000, Note_on_c, 0, 81, 0
1, 54000, Note_on_c, 0, 79, 66
1, 54000, Note_on_c, 0, 67, 56
1, 54000, Note_on_c, 0, 50, 76
1, 54009, Tempo, 366972
1, 54057, Tempo, 368098
1, 54105, Tempo, 369231
1, 54120, Note_on_c, 0, 50, 0
1, 54120, Note_on_c, 0, 67, 0
1, 54120, Note_on_c, 0, 79, 0
1, 54120, Note_on_c, 0, 65, 58
1, 54120, Note_on_c, 0, 77, 69
1, 54120, Note_on_c, 0, 45, 61
1, 54129, Tempo, 370370
1, 54133, Tempo, 372671
1, 54181, Tempo, 373832
1, 54205, Tempo, 375000
1, 54229, Tempo, 376176
1, 54240, Note_on_c, 0, 45, 0
1, 54240, Note_on_c, 0, 60, 0
1, 54240, Note_on_c, 0, 65, 0
1, 54240, Note_on_c, 0, 77, 0
1, 54240, Note_on_c, 0, 76, 70
1, 54240, Note_on_c, 0, 64, 60
1, 54240, Note_on_c, 0, 47, 77
1, 54250, Control_c, 0, 64, 0
1, 54253, Tempo, 378549
1, 54277, Tempo, 379747
1, 54301, Tempo, 380952
1, 54325, Tempo, 383387
1, 54349, Tempo, 384615
1, 54360, Note_on_c, 0, 64, 0
1, 54360, Note_on_c, 0, 76, 0
1, 54360, Note_on_c, 0, 74, 73
1, 54360, Note_on_c, 0, 62, 61
1, 54360, Note_on_c, 0, 41, 59
1, 54373, Tempo, 387097
1, 54374, Control_c, 0, 64, 127
1, 54397, Tempo, 388350
1, 54421, Tempo, 389610
1, 54445, Tempo, 392157
1, 54469, Tempo, 393443
1, 54480, Note_on_c, 0, 41, 0
1, 54480, Note_on_c, 0, 62, 0
1, 54480, Note_on_c, 0, 74, 0
1, 54480, Note_on_c, 0, 60, 62
1, 54480, Note_on_c, 0, 72, 75
1, 54480, Note_on_c, 0, 38, 72
1, 54493, Tempo, 394737
1, 54517, Tempo, 397351
1, 54541, Tempo, 398671
1, 54565, Tempo, 401338
1, 54577, Tempo, 380952
1, 54600, Tempo, 493827
1, 54600, Note_on_c, 0, 38, 0
1, 54600, Note_on_c, 0, 72, 0
1, 54600, Note_on_c, 0, 60, 0
1, 54600, Note_on_c, 0, 71, 78
1, 54600, Note_on_c, 0, 59, 64
1, 54600, Note_on_c, 0, 31, 66
1, 54703, Control_c, 0, 64, 0
1, 54720, Tempo, 405405
1, 54720, Note_on_c, 0, 31, 0
1, 54720, Note_on_c, 0, 47, 0
1, 54720, Note_on_c, 0, 71, 0
1, 54720, Note_on_c, 0, 59, 0
1, 54720, Note_on_c, 0, 71, 88
1, 54720, Note_on_c, 0, 64, 76
1, 54720, Note_on_c, 0, 59, 76
1, 54720, Note_on_c, 0, 36, 77
1, 54720, Note_on_c, 0, 24, 71
1, 54780, Control_c, 0, 64, 127
1, 54840, Tempo, 382166
1, 54840, Note_on_c, 0, 83, 73
1, 54840, Note_on_c, 0, 95, 78
1, 54840, Note_on_c, 0, 31, 71
1, 54960, Tempo, 366972
1, 54960, Note_on_c, 0, 31, 0
1, 54960, Note_on_c, 0, 95, 0
1, 54960, Note_on_c, 0, 83, 0
1, 54960, Note_on_c, 0, 88, 74
1, 54960, Note_on_c, 0, 36, 74
1, 55080, Note_on_c, 0, 36, 0
1, 55080, Note_on_c, 0, 88, 0
1, 55080, Note_on_c, 0, 84, 70
1, 55080, Note_on_c, 0, 40, 70
1, 55193, Tempo, 369231
1, 55200, Note_on_c, 0, 40, 0
1, 55200, Note_on_c, 0, 84, 0
1, 55200, Note_on_c, 0, 79, 76
1, 55200, Note_on_c, 0, 47, 83
1, 55320, Note_on_c, 0, 47, 0
1, 55320, Note_on_c, 0, 79, 0
1, 55320, Note_on_c, 0, 83, 63
1, 55320, Note_on_c, 0, 43, 70
1, 55440, Note_on_c, 0, 43, 0
1, 55440, Note_on_c, 0, 83, 0
1, 55440, Note_on_c, 0, 76, 70
1, 55440, Note_on_c, 0, 48, 73
1, 55560, Note_on_c, 0, 48, 0
1, 55560, Note_on_c, 0, 76, 0
1, 55560, Note_on_c, 0, 72, 62
1, 55560, Note_on_c, 0, 52, 71
1, 55680, Note_on_c, 0, 52, 0
1, 55680, Note_on_c, 0, 72, 0
1, 55680, Note_on_c, 0, 67, 60
1, 55680, Note_on_c, 0, 59, 84
1, 55800, Note_on_c, 0, 59, 0
1, 55800, Note_on_c, 0, 67, 0
1, 55800, Note_on_c, 0, 72, 75
1, 55800, Note_on_c, 0, 55, 71
1, 55817, Tempo, 370370
1, 55920, Note_on_c, 0, 55, 0
1, 55920, Note_on_c, 0, 72, 0
1, 55920, Note_on_c, 0, 76, 58
1, 55920, Note_on_c, 0, 60, 77
1, 56040, Note_on_c, 0, 60, 0
1, 56040, Note_on_c, 0, 76, 0
1, 56040, Note_on_c, 0, 83, 58
1, 56040, Note_on_c, 0, 64, 71
1, 56160, Note_on_c, 0, 64, 0
1, 56160, Note_on_c, 0, 24, 0
1, 56160, Note_on_c, 0, 64, 0
1, 56160, Note_on_c, 0, 59, 0
1, 56160, Note_on_c, 0, 36, 0
1, 56160, Note_on_c, 0, 83, 0
1, 56160, Note_on_c, 0, 71, 0
1, 56160, Note_on_c, 0, 76, 62
1, 56160, Note_on_c, 0, 71, 84
1, 56164, Control_c, 0, 64, 0
1, 56248, Control_c, 0, 64, 127
1, 56280, Note_on_c, 0, 76, 0
1, 56280, Note_on_c, 0, 72, 52
1, 56280, Note_on_c, 0, 64, 72
1, 56400, Note_on_c, 0, 64, 0
1, 56400, Note_on_c, 0, 72, 0
1, 56400, Note_on_c, 0, 65, 56
1, 56400, Note_on_c, 0, 60, 78
1, 56417, Tempo, 371517
1, 56520, Tempo, 410959
1, 56520, Note_on_c, 0, 60, 0
1, 56520, Note_on_c, 0, 65, 0
1, 56520, Note_on_c, 0, 71, 52
1, 56520, Note_on_c, 0, 53, 71
1, 56601, Tempo, 359281
1, 56640, Note_on_c, 0, 53, 0
1, 56640, Note_on_c, 0, 71, 0
1, 56640, Note_on_c, 0, 71, 0
1, 56640, Note_on_c, 0, 81, 75
1, 56640, Note_on_c, 0, 69, 62
1, 56640, Note_on_c, 0, 59, 84
1, 56649, Tempo, 360360
1, 56673, Tempo, 361446
1, 56721, Tempo, 362538
1, 56745, Tempo, 363636
1, 56760, Note_on_c, 0, 69, 0
1, 56760, Note_on_c, 0, 81, 0
1, 56760, Note_on_c, 0, 79, 63
1, 56760, Note_on_c, 0, 67, 53
1, 56760, Note_on_c, 0, 52, 64
1, 56769, Tempo, 364742
1, 56817, Tempo, 365854
1, 56841, Tempo, 366972
1, 56880, Note_on_c, 0, 52, 0
1, 56880, Note_on_c, 0, 67, 0
1, 56880, Note_on_c, 0, 79, 0
1, 56880, Note_on_c, 0, 65, 56
1, 56880, Note_on_c, 0, 77, 66
1, 56880, Note_on_c, 0, 48, 76
1, 56889, Tempo, 368098
1, 56913, Tempo, 369231
1, 56937, Tempo, 370370
1, 56985, Tempo, 371517
1, 57000, Note_on_c, 0, 48, 0
1, 57000, Note_on_c, 0, 77, 0
1, 57000, Note_on_c, 0, 65, 0
1, 57000, Note_on_c, 0, 76, 69
1, 57000, Note_on_c, 0, 64, 58
1, 57000, Note_on_c, 0, 41, 61
1, 57009, Tempo, 372671
1, 57033, Tempo, 373832
1, 57037, Tempo, 376176
1, 57085, Tempo, 377358
1, 57120, Note_on_c, 0, 41, 0
1, 57120, Note_on_c, 0, 59, 0
1, 57120, Note_on_c, 0, 76, 0
1, 57120, Note_on_c, 0, 64, 0
1, 57120, Note_on_c, 0, 62, 60
1, 57120, Note_on_c, 0, 74, 70
1, 57120, Note_on_c, 0, 45, 83
1, 57130, Control_c, 0, 64, 0
1, 57133, Tempo, 378549
1, 57157, Tempo, 379747
1, 57181, Tempo, 380952
1, 57205, Tempo, 382166
1, 57229, Tempo, 383387
1, 57240, Note_on_c, 0, 74, 0
1, 57240, Note_on_c, 0, 62, 0
1, 57240, Note_on_c, 0, 72, 73
1, 57240, Note_on_c, 0, 60, 61
1, 57240, Note_on_c, 0, 40, 59
1, 57253, Tempo, 384615
1, 57254, Control_c, 0, 64, 127
1, 57277, Tempo, 385852
1, 57325, Tempo, 387097
1, 57349, Tempo, 388350
1, 57360, Note_on_c, 0, 40, 0
1, 57360, Note_on_c, 0, 60, 0
1, 57360, Note_on_c, 0, 72, 0
1, 57360, Note_on_c, 0, 59, 62
1, 57360, Note_on_c, 0, 71, 75
1, 57360, Note_on_c, 0, 36, 72
1, 57373, Tempo, 389610
1, 57397, Tempo, 390879
1, 57445, Tempo, 393443
1, 57469, Tempo, 394737
1, 57480, Tempo, 481928
1, 57480, Note_on_c, 0, 36, 0
1, 57480, Note_on_c, 0, 71, 0
1, 57480, Note_on_c, 0, 59, 0
1, 57480, Note_on_c, 0, 69, 78
1, 57480, Note_on_c, 0, 57, 64
1, 57480, Note_on_c, 0, 29, 66
1, 57583, Control_c, 0, 64, 0
1, 57600, Tempo, 405405
1, 57600, Note_on_c, 0, 29, 0
1, 57600, Note_on_c, 0, 45, 0
1, 57600, Note_on_c, 0, 69, 0
1, 57600, Note_on_c, 0, 57, 0
1, 57600, Note_on_c, 0, 69, 88
1, 57600, Note_on_c, 0, 62, 76
1, 57600, Note_on_c, 0, 57, 76
1, 57600, Note_on_c, 0, 35, 77
1, 57600, Note_on_c, 0, 23, 69
1, 57660, Control_c, 0, 64, 127
1, 57720, Tempo, 382166
1, 57720, Note_on_c, 0, 93, 78
1, 57720, Note_on_c, 0, 81, 73
1, 57720, Note_on_c, 0, 41, 71
1, 57840, Tempo, 366972
1, 57840, Note_on_c, 0, 41, 0
1, 57840, Note_on_c, 0, 81, 0
1, 57840, Note_on_c, 0, 93, 0
1, 57840, Note_on_c, 0, 86, 73
1, 57840, Note_on_c, 0, 47, 73
1, 57960, Tempo, 390879
1, 57960, Note_on_c, 0, 47, 0
1, 57960, Note_on_c, 0, 86, 0
1, 57960, Note_on_c, 0, 83, 70
1, 57960, Note_on_c, 0, 50, 63
1, 58065, Tempo, 361446
1, 58080, Note_on_c, 0, 50, 0
1, 58080, Note_on_c, 0, 83, 0
1, 58080, Note_on_c, 0, 77, 79
1, 58080, Note_on_c, 0, 65, 66
1, 58080, Note_on_c, 0, 57, 75
1, 58200, Note_on_c, 0, 57, 0
1, 58200, Note_on_c, 0, 65, 0
1, 58200, Note_on_c, 0, 77, 0
1, 58200, Note_on_c, 0, 67, 56
1, 58200, Note_on_c, 0, 79, 66
1, 58200, Note_on_c, 0, 55, 60
1, 58257, Tempo, 362538
1, 58320, Note_on_c, 0, 55, 0
1, 58320, Note_on_c, 0, 79, 0
1, 58320, Note_on_c, 0, 67, 0
1, 58320, Note_on_c, 0, 81, 70
1, 58320, Note_on_c, 0, 69, 59
1, 58320, Note_on_c, 0, 53, 61
1, 58361, Tempo, 371517
1, 58440, Note_on_c, 0, 53, 0
1, 58440, Note_on_c, 0, 69, 0
1, 58440, Note_on_c, 0, 81, 0
1, 58440, Note_on_c, 0, 71, 60
1, 58440, Note_on_c, 0, 83, 72
1, 58440, Note_on_c, 0, 52, 64
1, 58505, Tempo, 370370
1, 58560, Note_on_c, 0, 52, 0
1, 58560, Note_on_c, 0, 83, 0
1, 58560, Note_on_c, 0, 71, 0
1, 58560, Note_on_c, 0, 72, 60
1, 58560, Note_on_c, 0, 84, 73
1, 58560, Note_on_c, 0, 50, 65
1, 58649, Tempo, 369231
1, 58680, Note_on_c, 0, 50, 0
1, 58680, Note_on_c, 0, 84, 0
1, 58680, Note_on_c, 0, 72, 0
1, 58680, Note_on_c, 0, 86, 76
1, 58680, Note_on_c, 0, 74, 64
1, 58680, Note_on_c, 0, 48, 67
1, 58769, Tempo, 368098
1, 58800, Note_on_c, 0, 48, 0
1, 58800, Note_on_c, 0, 74, 0
1, 58800, Note_on_c, 0, 86, 0
1, 58800, Note_on_c, 0, 88, 78
1, 58800, Note_on_c, 0, 76, 66
1, 58800, Note_on_c, 0, 47, 69
1, 58913, Tempo, 366972
1, 58920, Note_on_c, 0, 47, 0
1, 58920, Note_on_c, 0, 76, 0
1, 58920, Note_on_c, 0, 88, 0
1, 58920, Note_on_c, 0, 77, 67
1, 58920, Note_on_c, 0, 89, 79
1, 58920, Note_on_c, 0, 45, 71
1, 59033, Tempo, 365854
1, 59040, Note_on_c, 0, 45, 0
1, 59040, Note_on_c, 0, 69, 0
1, 59040, Note_on_c, 0, 23, 0
1, 59040, Note_on_c, 0, 62, 0
1, 59040, Note_on_c, 0, 57, 0
1, 59040, Note_on_c, 0, 35, 0
1, 59040, Note_on_c, 0, 77, 0
1, 59040, Note_on_c, 0, 89, 0
1, 59040, Note_on_c, 0, 91, 86
1, 59040, Note_on_c, 0, 79, 79
1, 59040, Note_on_c, 0, 40, 81
1, 59044, Control_c, 0, 64, 0
1, 59128, Control_c, 0, 64, 127
1, 59160, Note_on_c, 0, 79, 0
1, 59160, Note_on_c, 0, 86, 74
1, 59160, Note_on_c, 0, 47, 57
1, 59280, Note_on_c, 0, 47, 0
1, 59280, Note_on_c, 0, 86, 0
1, 59280, Note_on_c, 0, 83, 79
1, 59280, Note_on_c, 0, 50, 62
1, 59400, Note_on_c, 0, 50, 0
1, 59400, Note_on_c, 0, 83, 0
1, 59400, Note_on_c, 0, 76, 66
1, 59400, Note_on_c, 0, 55, 54
1, 59520, Note_on_c, 0, 55, 0
1, 59520, Note_on_c, 0, 91, 0
1, 59520, Note_on_c, 0, 40, 0
1, 59520, Note_on_c, 0, 76, 0
1, 59520, Note_on_c, 0, 79, 73
1, 59520, Note_on_c, 0, 52, 64
1, 59640, Note_on_c, 0, 52, 0
1, 59640, Note_on_c, 0, 79, 0
1, 59640, Note_on_c, 0, 74, 61
1, 59640, Note_on_c, 0, 59, 55
1, 59760, Note_on_c, 0, 59, 0
1, 59760, Note_on_c, 0, 74, 0
1, 59760, Note_on_c, 0, 71, 68
1, 59760, Note_on_c, 0, 62, 60
1, 59880, Note_on_c, 0, 62, 0
1, 59880, Note_on_c, 0, 71, 0
1, 59880, Note_on_c, 0, 64, 60
1, 59880, Note_on_c, 0, 67, 55
1, 60000, Tempo, 375235
1, 60000, Note_on_c, 0, 67, 0
1, 60000, Note_on_c, 0, 64, 0
1, 60000, Note_on_c, 0, 69, 71
1, 60000, Note_on_c, 0, 60, 66
1, 60010, Control_c, 0, 64, 0
1, 60064, Control_c, 0, 64, 127
1, 60120, Note_on_c, 0, 60, 0
1, 60120, Note_on_c, 0, 69, 0
1, 60120, Note_on_c, 0, 72, 67
1, 60120, Note_on_c, 0, 57, 58
1, 60240, Note_on_c, 0, 57, 0
1, 60240, Note_on_c, 0, 72, 0
1, 60240, Note_on_c, 0, 79, 75
1, 60240, Note_on_c, 0, 52, 60
1, 60277, Tempo, 390879
1, 60325, Tempo, 393443
1, 60349, Tempo, 394737
1, 60360, Tempo, 481928
1, 60360, Note_on_c, 0, 52, 0
1, 60360, Note_on_c, 0, 79, 0
1, 60360, Note_on_c, 0, 76, 70
1, 60360, Note_on_c, 0, 55, 61
1, 60463, Control_c, 0, 64, 0
1, 60480, Tempo, 366972
1, 60480, Note_on_c, 0, 55, 0
1, 60480, Note_on_c, 0, 76, 0
1, 60480, Note_on_c, 0, 77, 84
1, 60480, Note_on_c, 0, 89, 89
1, 60480, Note_on_c, 0, 38, 86
1, 60484, Control_c, 0, 64, 0
1, 60568, Control_c, 0, 64, 127
1, 60600, Note_on_c, 0, 77, 0
1, 60600, Note_on_c, 0, 84, 78
1, 60600, Note_on_c, 0, 45, 60
1, 60720, Note_on_c, 0, 45, 0
1, 60720, Note_on_c, 0, 84, 0
1, 60720, Note_on_c, 0, 81, 84
1, 60720, Note_on_c, 0, 48, 66
1, 60840, Note_on_c, 0, 48, 0
1, 60840, Note_on_c, 0, 81, 0
1, 60840, Note_on_c, 0, 74, 70
1, 60840, Note_on_c, 0, 53, 57
1, 60925, Tempo, 366972
1, 60960, Note_on_c, 0, 53, 0
1, 60960, Note_on_c, 0, 89, 0
1, 60960, Note_on_c, 0, 38, 0
1, 60960, Note_on_c, 0, 74, 0
1, 60960, Note_on_c, 0, 77, 77
1, 60960, Note_on_c, 0, 50, 68
1, 60997, Tempo, 368098
1, 61045, Tempo, 369231
1, 61080, Note_on_c, 0, 50, 0
1, 61080, Note_on_c, 0, 77, 0
1, 61080, Note_on_c, 0, 72, 63
1, 61080, Note_on_c, 0, 57, 57
1, 61200, Note_on_c, 0, 57, 0
1, 61200, Note_on_c, 0, 72, 0
1, 61200, Note_on_c, 0, 69, 71
1, 61200, Note_on_c, 0, 60, 63
1, 61320, Note_on_c, 0, 60, 0
1, 61320, Note_on_c, 0, 69, 0
1, 61320, Note_on_c, 0, 62, 63
1, 61320, Note_on_c, 0, 65, 58
1, 61440, Tempo, 378788
1, 61440, Note_on_c, 0, 65, 0
1, 61440, Note_on_c, 0, 62, 0
1, 61440, Note_on_c, 0, 67, 67
1, 61440, Note_on_c, 0, 59, 62
1, 61450, Control_c, 0, 64, 0
1, 61511, Control_c, 0, 64, 127
1, 61560, Note_on_c, 0, 59, 0
1, 61560, Note_on_c, 0, 67, 0
1, 61560, Note_on_c, 0, 71, 62
1, 61560, Note_on_c, 0, 55, 54
1, 61680, Note_on_c, 0, 55, 0
1, 61680, Note_on_c, 0, 71, 0
1, 61680, Note_on_c, 0, 77, 69
1, 61680, Note_on_c, 0, 50, 56
1, 61765, Tempo, 393443
1, 61789, Tempo, 394737
1, 61800, Tempo, 481928
1, 61800, Note_on_c, 0, 50, 0
1, 61800, Note_on_c, 0, 77, 0
1, 61800, Note_on_c, 0, 74, 64
1, 61800, Note_on_c, 0, 53, 56
1, 61903, Control_c, 0, 64, 0
1, 61920, Tempo, 366972
1, 61920, Note_on_c, 0, 53, 0
1, 61920, Note_on_c, 0, 74, 0
1, 61920, Note_on_c, 0, 88, 88
1, 61920, Note_on_c, 0, 76, 84
1, 61920, Note_on_c, 0, 36, 86
1, 61924, Control_c, 0, 64, 0
1, 62008, Control_c, 0, 64, 127
1, 62040, Note_on_c, 0, 76, 0
1, 62040, Note_on_c, 0, 83, 78
1, 62040, Note_on_c, 0, 43, 60
1, 62160, Note_on_c, 0, 43, 0
1, 62160, Note_on_c, 0, 83, 0
1, 62160, Note_on_c, 0, 79, 84
1, 62160, Note_on_c, 0, 47, 66
1, 62280, Note_on_c, 0, 47, 0
1, 62280, Note_on_c, 0, 79, 0
1, 62280, Note_on_c, 0, 72, 70
1, 62280, Note_on_c, 0, 52, 57
1, 62365, Tempo, 366972
1, 62400, Note_on_c, 0, 52, 0
1, 62400, Note_on_c, 0, 88, 0
1, 62400, Note_on_c, 0, 36, 0
1, 62400, Note_on_c, 0, 72, 0
1, 62400, Note_on_c, 0, 76, 77
1, 62400, Note_on_c, 0, 48, 68
1, 62437, Tempo, 368098
1, 62485, Tempo, 369231
1, 62520, Note_on_c, 0, 48, 0
1, 62520, Note_on_c, 0, 76, 0
1, 62520, Note_on_c, 0, 71, 63
1, 62520, Note_on_c, 0, 55, 57
1, 62640, Note_on_c, 0, 55, 0
1, 62640, Note_on_c, 0, 71, 0
1, 62640, Note_on_c, 0, 67, 71
1, 62640, Note_on_c, 0, 59, 63
1, 62760, Note_on_c, 0, 59, 0
1, 62760, Note_on_c, 0, 67, 0
1, 62760, Note_on_c, 0, 60, 63
1, 62760, Note_on_c, 0, 64, 58
1, 62880, Tempo, 378788
1, 62880, Note_on_c, 0, 64, 0
1, 62880, Note_on_c, 0, 60, 0
1, 62880, Note_on_c, 0, 65, 67
1, 62880, Note_on_c, 0, 57, 62
1, 62890, Control_c, 0, 64, 0
1, 62951, Control_c, 0, 64, 127
1, 63000, Note_on_c, 0, 57, 0
1, 63000, Note_on_c, 0, 65, 0
1, 63000, Note_on_c, 0, 69, 62
1, 63000, Note_on_c, 0, 53, 54
1, 63120, Note_on_c, 0, 53, 0
1, 63120, Note_on_c, 0, 69, 0
1, 63120, Note_on_c, 0, 76, 69
1, 63120, Note_on_c, 0, 48, 56
1, 63205, Tempo, 393443
1, 63229, Tempo, 394737
1, 63240, Tempo, 481928
1, 63240, Note_on_c, 0, 48, 0
1, 63240, Note_on_c, 0, 76, 0
1, 63240, Note_on_c, 0, 72, 64
1, 63240, Note_on_c, 0, 52, 56
1, 63343, Control_c, 0, 64, 0
1, 63360, Tempo, 366972
1, 63360, Note_on_c, 0, 52, 0
1, 63360, Note_on_c, 0, 72, 0
1, 63360, Note_on_c, 0, 74, 84
1, 63360, Note_on_c, 0, 86, 89
1, 63360, Note_on_c, 0, 35, 86
1, 63364, Control_c, 0, 64, 0
1, 63448, Control_c, 0, 64, 127
1, 63480, Note_on_c, 0, 74, 0
1, 63480, Note_on_c, 0, 81, 78
1, 63480, Note_on_c, 0, 41, 60
1, 63600, Note_on_c, 0, 41, 0
1, 63600, Note_on_c, 0, 81, 0
1, 63600, Note_on_c, 0, 77, 84
1, 63600, Note_on_c, 0, 45, 66
1, 63720, Note_on_c, 0, 45, 0
1, 63720, Note_on_c, 0, 77, 0
1, 63720, Note_on_c, 0, 71, 70
1, 63720, Note_on_c, 0, 50, 57
1, 63805, Tempo, 366972
1, 63840, Note_on_c, 0, 50, 0
1, 63840, Note_on_c, 0, 86, 0
1, 63840, Note_on_c, 0, 35, 0
1, 63840, Note_on_c, 0, 71, 0
1, 63840, Note_on_c, 0, 74, 77
1, 63840, Note_on_c, 0, 47, 68
1, 63877, Tempo, 368098
1, 63925, Tempo, 369231
1, 63960, Note_on_c, 0, 47, 0
1, 63960, Note_on_c, 0, 74, 0
1, 63960, Note_on_c, 0, 69, 63
1, 63960, Note_on_c, 0, 53, 57
1, 64080, Note_on_c, 0, 53, 0
1, 64080, Note_on_c, 0, 69, 0
1, 64080, Note_on_c, 0, 65, 71
1, 64080, Note_on_c, 0, 57, 63
1, 64200, Note_on_c, 0, 57, 0
1, 64200, Note_on_c, 0, 65, 0
1, 64200, Note_on_c, 0, 59, 63
1, 64200, Note_on_c, 0, 62, 58
1, 64320, Tempo, 378788
1, 64320, Note_on_c, 0, 62, 0
1, 64320, Note_on_c, 0, 59, 0
1, 64320, Note_on_c, 0, 65, 68
1, 64320, Note_on_c, 0, 57, 63
1, 64330, Control_c, 0, 64, 0
1, 64391, Control_c, 0, 64, 127
1, 64440, Note_on_c, 0, 57, 0
1, 64440, Note_on_c, 0, 65, 0
1, 64440, Note_on_c, 0, 69, 63
1, 64440, Note_on_c, 0, 53, 55
1, 64560, Note_on_c, 0, 53, 0
1, 64560, Note_on_c, 0, 69, 0
1, 64560, Note_on_c, 0, 74, 70
1, 64560, Note_on_c, 0, 47, 57
1, 64645, Tempo, 393443
1, 64669, Tempo, 394737
1, 64680, Tempo, 481928
1, 64680, Note_on_c, 0, 47, 0
1, 64680, Note_on_c, 0, 74, 0
1, 64680, Note_on_c, 0, 71, 66
1, 64680, Note_on_c, 0, 50, 57
1, 64783, Control_c, 0, 64, 0
1, 64800, Tempo, 366972
1, 64800, Note_on_c, 0, 50, 0
1, 64800, Note_on_c, 0, 71, 0
1, 64800, Note_on_c, 0, 75, 86
1, 64800, Note_on_c, 0, 87, 93
1, 64800, Note_on_c, 0, 35, 88
1, 64804, Control_c, 0, 64, 0
1, 64888, Control_c, 0, 64, 127
1, 64920, Note_on_c, 0, 75, 0
1, 64920, Note_on_c, 0, 81, 79
1, 64920, Note_on_c, 0, 42, 61
1, 65040, Note_on_c, 0, 42, 0
1, 65040, Note_on_c, 0, 81, 0
1, 65040, Note_on_c, 0, 78, 86
1, 65040, Note_on_c, 0, 45, 68
1, 65160, Note_on_c, 0, 45, 0
1, 65160, Note_on_c, 0, 78, 0
1, 65160, Note_on_c, 0, 71, 72
1, 65160, Note_on_c, 0, 51, 58
1, 65245, Tempo, 366972
1, 65280, Note_on_c, 0, 51, 0
1, 65280, Note_on_c, 0, 87, 0
1, 65280, Note_on_c, 0, 35, 0
1, 65280, Note_on_c, 0, 71, 0
1, 65280, Note_on_c, 0, 75, 80
1, 65280, Note_on_c, 0, 47, 70
1, 65317, Tempo, 368098
1, 65365, Tempo, 369231
1, 65400, Note_on_c, 0, 47, 0
1, 65400, Note_on_c, 0, 75, 0
1, 65400, Note_on_c, 0, 69, 65
1, 65400, Note_on_c, 0, 54, 59
1, 65520, Note_on_c, 0, 54, 0
1, 65520, Note_on_c, 0, 69, 0
1, 65520, Note_on_c, 0, 66, 74
1, 65520, Note_on_c, 0, 57, 66
1, 65640, Note_on_c, 0, 57, 0
1, 65640, Note_on_c, 0, 66, 0
1, 65640, Note_on_c, 0, 59, 66
1, 65640, Note_on_c, 0, 63, 61
1, 65760, Tempo, 378788
1, 65760, Note_on_c, 0, 63, 0
1, 65760, Note_on_c, 0, 59, 0
1, 65760, Note_on_c, 0, 66, 70
1, 65760, Note_on_c, 0, 57, 65
1, 65770, Control_c, 0, 64, 0
1, 65831, Control_c, 0, 64, 127
1, 65880, Note_on_c, 0, 57, 0
1, 65880, Note_on_c, 0, 66, 0
1, 65880, Note_on_c, 0, 69, 65
1, 65880, Note_on_c, 0, 54, 55
1, 66000, Note_on_c, 0, 54, 0
1, 66000, Note_on_c, 0, 69, 0
1, 66000, Note_on_c, 0, 75, 73
1, 66000, Note_on_c, 0, 47, 59
1, 66085, Tempo, 393443
1, 66109, Tempo, 394737
1, 66120, Tempo, 481928
1, 66120, Note_on_c, 0, 47, 0
1, 66120, Note_on_c, 0, 75, 0
1, 66120, Note_on_c, 0, 71, 68
1, 66120, Note_on_c, 0, 51, 59
1, 66223, Control_c, 0, 64, 0
1, 66240, Tempo, 366972
1, 66240, Note_on_c, 0, 51, 0
1, 66240, Note_on_c, 0, 71, 0
1, 66240, Note_on_c, 0, 88, 92
1, 66240, Note_on_c, 0, 76, 85
1, 66240, Note_on_c, 0, 28, 87
1, 66244, Control_c, 0, 64, 0
1, 66328, Control_c, 0, 64, 127
1, 66360, Note_on_c, 0, 28, 0
1, 66360, Note_on_c, 0, 76, 0
1, 66360, Note_on_c, 0, 80, 78
1, 66360, Note_on_c, 0, 35, 61
1, 66480, Note_on_c, 0, 35, 0
1, 66480, Note_on_c, 0, 80, 0
1, 66480, Note_on_c, 0, 76, 87
1, 66480, Note_on_c, 0, 40, 68
1, 66600, Note_on_c, 0, 40, 0
1, 66600, Note_on_c, 0, 76, 0
1, 66600, Note_on_c, 0, 71, 73
1, 66600, Note_on_c, 0, 44, 59
1, 66685, Tempo, 366972
1, 66720, Note_on_c, 0, 44, 0
1, 66720, Note_on_c, 0, 71, 0
1, 66720, Note_on_c, 0, 88, 0
1, 66720, Note_on_c, 0, 76, 81
1, 66720, Note_on_c, 0, 40, 71
1, 66757, Tempo, 368098
1, 66805, Tempo, 369231
1, 66840, Note_on_c, 0, 40, 0
1, 66840, Note_on_c, 0, 76, 0
1, 66840, Note_on_c, 0, 68, 68
1, 66840, Note_on_c, 0, 47, 61
1, 66960, Note_on_c, 0, 47, 0
1, 66960, Note_on_c, 0, 68, 0
1, 66960, Note_on_c, 0, 64, 76
1, 66960, Note_on_c, 0, 52, 68
1, 67080, Note_on_c, 0, 52, 0
1, 67080, Note_on_c, 0, 64, 0
1, 67080, Note_on_c, 0, 59, 68
1, 67080, Note_on_c, 0, 56, 62
1, 67200, Tempo, 378788
1, 67200, Note_on_c, 0, 56, 0
1, 67200, Note_on_c, 0, 59, 0
1, 67200, Note_on_c, 0, 64, 76
1, 67200, Note_on_c, 0, 52, 71
1, 67210, Control_c, 0, 64, 0
1, 67212, Tempo, 372902
1, 67271, Control_c, 0, 64, 127
1, 67320, Note_on_c, 0, 52, 0
1, 67320, Note_on_c, 0, 64, 0
1, 67320, Note_on_c, 0, 68, 73
1, 67320, Note_on_c, 0, 59, 63
1, 67440, Note_on_c, 0, 59, 0
1, 67440, Note_on_c, 0, 68, 0
1, 67440, Note_on_c, 0, 71, 80
1, 67440, Note_on_c, 0, 64, 66
1, 67560, Note_on_c, 0, 64, 0
1, 67560, Note_on_c, 0, 71, 0
1, 67560, Note_on_c, 0, 76, 76
1, 67560, Note_on_c, 0, 68, 67
1, 67668, Tempo, 372902
1, 67680, Note_on_c, 0, 68, 0
1, 67680, Note_on_c, 0, 76, 0
1, 67680, Note_on_c, 0, 83, 80
1, 67680, Note_on_c, 0, 80, 71
1, 67680, Note_on_c, 0, 64, 78
1, 67716, Tempo, 374065
1, 67764, Tempo, 375235
1, 67800, Note_on_c, 0, 64, 0
1, 67800, Note_on_c, 0, 80, 0
1, 67800, Note_on_c, 0, 83, 0
1, 67800, Note_on_c, 0, 88, 84
1, 67800, Note_on_c, 0, 71, 70
1, 67812, Tempo, 376412
1, 67860, Tempo, 377596
1, 67908, Tempo, 378788
1, 67920, Note_on_c, 0, 71, 0
1, 67920, Note_on_c, 0, 88, 0
1, 67920, Note_on_c, 0, 92, 87
1, 67920, Note_on_c, 0, 76, 73
1, 67956, Tempo, 379987
1, 68004, Tempo, 381194
1, 68040, Note_on_c, 0, 76, 0
1, 68040, Note_on_c, 0, 92, 0
1, 68040, Note_on_c, 0, 95, 90
1, 68040, Note_on_c, 0, 80, 77
1, 68052, Tempo, 382409
1, 68100, Tempo, 383632
1, 68124, Tempo, 384862
1, 68160, Tempo, 424328
1, 68160, Note_on_c, 0, 80, 0
1, 68160, Note_on_c, 0, 95, 0
1, 68160, Note_on_c, 0, 92, 78
1, 68160, Note_on_c, 0, 100, 92
1, 68160, Note_on_c, 0, 88, 78
1, 68160, Note_on_c, 0, 83, 79
1, 68160, Note_on_c, 0, 76, 67
1, 68637, Control_c, 0, 64, 0
1, 68640, Tempo, 401338
1, 68640, Note_on_c, 0, 76, 0
1, 68640, Note_on_c, 0, 88, 0
1, 68640, Note_on_c, 0, 92, 0
1, 68640, Note_on_c, 0, 100, 0
1, 68640, Note_on_c, 0, 83, 0
1, 68640, Note_on_c, 0, 55, 72
1, 68640, Note_on_c, 0, 67, 91
1, 68640, Note_on_c, 0, 65, 76
1, 68640, Note_on_c, 0, 59, 76
1, 68640, Note_on_c, 0, 38, 76
1, 68640, Note_on_c, 0, 50, 107
1, 68640, Note_on_c, 0, 43, 76
1, 68708, Control_c, 0, 64, 127
1, 68880, Tempo, 533333
1, 68880, Note_on_c, 0, 43, 0
1, 68880, Note_on_c, 0, 31, 81
1, 68880, Note_on_c, 0, 43, 107
1, 69120, Tempo, 405405
1, 69120, Note_on_c, 0, 43, 0
1, 69120, Note_on_c, 0, 55, 0
1, 69120, Note_on_c, 0, 50, 0
1, 69120, Note_on_c, 0, 67, 0
1, 69120, Note_on_c, 0, 65, 0
1, 69120, Note_on_c, 0, 59, 0
1, 69120, Note_on_c, 0, 38, 0
1, 69120, Note_on_c, 0, 31, 0
1, 69120, Note_on_c, 0, 72, 84
1, 69120, Note_on_c, 0, 76, 99
1, 69120, Note_on_c, 0, 67, 75
1, 69120, Note_on_c, 0, 64, 75
1, 69120, Note_on_c, 0, 28, 68
1, 69120, Note_on_c, 0, 36, 86
1, 69120, Note_on_c, 0, 24, 65
1, 69120, Note_on_c, 0, 31, 77
1, 69129, Control_c, 0, 64, 0
1, 69240, Tempo, 382166
1, 69240, Note_on_c, 0, 36, 0
1, 69240, Note_on_c, 0, 100, 89
1, 69240, Note_on_c, 0, 36, 80
1, 69300, Control_c, 0, 64, 127
1, 69360, Tempo, 366972
1, 69360, Note_on_c, 0, 100, 0
1, 69360, Note_on_c, 0, 96, 85
1, 69360, Note_on_c, 0, 43, 85
1, 69480, Note_on_c, 0, 43, 0
1, 69480, Note_on_c, 0, 96, 0
1, 69480, Note_on_c, 0, 91, 80
1, 69480, Note_on_c, 0, 48, 80
1, 69593, Tempo, 366972
1, 69600, Note_on_c, 0, 48, 0
1, 69600, Note_on_c, 0, 91, 0
1, 69600, Note_on_c, 0, 84, 87
1, 69600, Note_on_c, 0, 52, 89
1, 69720, Note_on_c, 0, 52, 0
1, 69720, Note_on_c, 0, 84, 0
1, 69720, Note_on_c, 0, 88, 77
1, 69720, Note_on_c, 0, 48, 79
1, 69840, Note_on_c, 0, 48, 0
1, 69840, Note_on_c, 0, 88, 0
1, 69840, Note_on_c, 0, 84, 82
1, 69840, Note_on_c, 0, 55, 83
1, 69905, Tempo, 368098
1, 69960, Note_on_c, 0, 55, 0
1, 69960, Note_on_c, 0, 84, 0
1, 69960, Note_on_c, 0, 79, 75
1, 69960, Note_on_c, 0, 60, 80
1, 70080, Note_on_c, 0, 60, 0
1, 70080, Note_on_c, 0, 79, 0
1, 70080, Note_on_c, 0, 72, 69
1, 70080, Note_on_c, 0, 64, 88
1, 70200, Note_on_c, 0, 64, 0
1, 70200, Note_on_c, 0, 72, 0
1, 70200, Note_on_c, 0, 79, 79
1, 70200, Note_on_c, 0, 60, 77
1, 70217, Tempo, 369231
1, 70320, Note_on_c, 0, 60, 0
1, 70320, Note_on_c, 0, 79, 0
1, 70320, Note_on_c, 0, 84, 72
1, 70320, Note_on_c, 0, 67, 83
1, 70440, Note_on_c, 0, 67, 0
1, 70440, Note_on_c, 0, 84, 0
1, 70440, Note_on_c, 0, 88, 72
1, 70440, Note_on_c, 0, 72, 76
1, 70529, Tempo, 370370
1, 70560, Note_on_c, 0, 72, 0
1, 70560, Note_on_c, 0, 31, 0
1, 70560, Note_on_c, 0, 36, 0
1, 70560, Note_on_c, 0, 64, 0
1, 70560, Note_on_c, 0, 28, 0
1, 70560, Note_on_c, 0, 76, 0
1, 70560, Note_on_c, 0, 72, 0
1, 70560, Note_on_c, 0, 67, 0
1, 70560, Note_on_c, 0, 24, 0
1, 70560, Note_on_c, 0, 88, 0
1, 70560, Note_on_c, 0, 84, 89
1, 70560, Note_on_c, 0, 76, 89
1, 70680, Note_on_c, 0, 76, 0
1, 70680, Note_on_c, 0, 84, 0
1, 70680, Note_on_c, 0, 79, 66
1, 70680, Note_on_c, 0, 72, 76
1, 70800, Note_on_c, 0, 72, 0
1, 70800, Note_on_c, 0, 79, 0
1, 70800, Note_on_c, 0, 72, 72
1, 70800, Note_on_c, 0, 67, 82
1, 70841, Tempo, 371517
1, 70920, Tempo, 402685
1, 70920, Note_on_c, 0, 67, 0
1, 70920, Note_on_c, 0, 72, 0
1, 70920, Note_on_c, 0, 74, 67
1, 70920, Note_on_c, 0, 60, 73
1, 71005, Tempo, 360360
1, 71040, Note_on_c, 0, 60, 0
1, 71040, Note_on_c, 0, 74, 0
1, 71040, Note_on_c, 0, 76, 61
1, 71040, Note_on_c, 0, 88, 79
1, 71040, Note_on_c, 0, 64, 87
1, 71053, Tempo, 361446
1, 71077, Tempo, 362538
1, 71101, Tempo, 363636
1, 71149, Tempo, 364742
1, 71160, Note_on_c, 0, 64, 0
1, 71160, Note_on_c, 0, 88, 0
1, 71160, Note_on_c, 0, 76, 0
1, 71160, Note_on_c, 0, 86, 67
1, 71160, Note_on_c, 0, 74, 51
1, 71160, Note_on_c, 0, 60, 72
1, 71173, Tempo, 365854
1, 71197, Tempo, 366972
1, 71245, Tempo, 368098
1, 71269, Tempo, 369231
1, 71280, Note_on_c, 0, 60, 0
1, 71280, Note_on_c, 0, 74, 0
1, 71280, Note_on_c, 0, 86, 0
1, 71280, Note_on_c, 0, 72, 54
1, 71280, Note_on_c, 0, 84, 69
1, 71280, Note_on_c, 0, 55, 78
1, 71293, Tempo, 370370
1, 71341, Tempo, 371517
1, 71365, Tempo, 372671
1, 71389, Tempo, 373832
1, 71400, Note_on_c, 0, 55, 0
1, 71400, Note_on_c, 0, 84, 0
1, 71400, Note_on_c, 0, 72, 0
1, 71400, Note_on_c, 0, 83, 73
1, 71400, Note_on_c, 0, 71, 56
1, 71400, Note_on_c, 0, 48, 71
1, 71413, Tempo, 372671
1, 71461, Tempo, 373832
1, 71485, Tempo, 375000
1, 71509, Tempo, 376176
1, 71520, Note_on_c, 0, 48, 0
1, 71520, Note_on_c, 0, 71, 0
1, 71520, Note_on_c, 0, 83, 0
1, 71520, Note_on_c, 0, 69, 58
1, 71520, Note_on_c, 0, 81, 73
1, 71520, Note_on_c, 0, 52, 82
1, 71533, Tempo, 378549
1, 71557, Tempo, 379747
1, 71581, Tempo, 380952
1, 71605, Tempo, 383387
1, 71629, Tempo, 384615
1, 71640, Note_on_c, 0, 52, 0
1, 71640, Note_on_c, 0, 81, 0
1, 71640, Note_on_c, 0, 69, 0
1, 71640, Note_on_c, 0, 67, 60
1, 71640, Note_on_c, 0, 79, 77
1, 71640, Note_on_c, 0, 48, 63
1, 71653, Tempo, 387097
1, 71677, Tempo, 388350
1, 71701, Tempo, 389610
1, 71725, Tempo, 392157
1, 71749, Tempo, 393443
1, 71760, Note_on_c, 0, 48, 0
1, 71760, Note_on_c, 0, 79, 0
1, 71760, Note_on_c, 0, 67, 0
1, 71760, Note_on_c, 0, 65, 60
1, 71760, Note_on_c, 0, 77, 78
1, 71760, Note_on_c, 0, 43, 74
1, 71773, Tempo, 394737
1, 71797, Tempo, 397351
1, 71821, Tempo, 398671
1, 71845, Tempo, 401338
1, 71857, Tempo, 380952
1, 71880, Tempo, 493827
1, 71880, Note_on_c, 0, 43, 0
1, 71880, Note_on_c, 0, 77, 0
1, 71880, Note_on_c, 0, 65, 0
1, 71880, Note_on_c, 0, 76, 80
1, 71880, Note_on_c, 0, 64, 61
1, 71880, Note_on_c, 0, 36, 61
1, 71983, Control_c, 0, 64, 0
1, 72000, Tempo, 405405
1, 72000, Note_on_c, 0, 36, 0
1, 72000, Note_on_c, 0, 64, 0
1, 72000, Note_on_c, 0, 76, 0
1, 72000, Note_on_c, 0, 69, 75
1, 72000, Note_on_c, 0, 72, 84
1, 72000, Note_on_c, 0, 65, 75
1, 72000, Note_on_c, 0, 77, 99
1, 72000, Note_on_c, 0, 24, 65
1, 72000, Note_on_c, 0, 33, 77
1, 72000, Note_on_c, 0, 36, 86
1, 72000, Note_on_c, 0, 29, 68
1, 72120, Tempo, 382166
1, 72120, Note_on_c, 0, 36, 0
1, 72120, Note_on_c, 0, 101, 89
1, 72120, Note_on_c, 0, 36, 80
1, 72180, Control_c, 0, 64, 127
1, 72240, Tempo, 366972
1, 72240, Note_on_c, 0, 101, 0
1, 72240, Note_on_c, 0, 96, 85
1, 72240, Note_on_c, 0, 45, 85
1, 72360, Note_on_c, 0, 45, 0
1, 72360, Note_on_c, 0, 96, 0
1, 72360, Note_on_c, 0, 93, 80
1, 72360, Note_on_c, 0, 48, 80
1, 72473, Tempo, 365854
1, 72480, Note_on_c, 0, 48, 0
1, 72480, Note_on_c, 0, 93, 0
1, 72480, Note_on_c, 0, 84, 87
1, 72480, Note_on_c, 0, 53, 89
1, 72600, Note_on_c, 0, 53, 0
1, 72600, Note_on_c, 0, 84, 0
1, 72600, Note_on_c, 0, 89, 77
1, 72600, Note_on_c, 0, 48, 79
1, 72689, Tempo, 366972
1, 72720, Note_on_c, 0, 48, 0
1, 72720, Note_on_c, 0, 89, 0
1, 72720, Note_on_c, 0, 84, 82
1, 72720, Note_on_c, 0, 57, 83
1, 72840, Note_on_c, 0, 57, 0
1, 72840, Note_on_c, 0, 84, 0
1, 72840, Note_on_c, 0, 81, 75
1, 72840, Note_on_c, 0, 60, 80
1, 72905, Tempo, 368098
1, 72960, Note_on_c, 0, 60, 0
1, 72960, Note_on_c, 0, 81, 0
1, 72960, Note_on_c, 0, 72, 69
1, 72960, Note_on_c, 0, 65, 88
1, 73080, Note_on_c, 0, 65, 0
1, 73080, Note_on_c, 0, 72, 0
1, 73080, Note_on_c, 0, 81, 79
1, 73080, Note_on_c, 0, 60, 77
1, 73121, Tempo, 369231
1, 73200, Note_on_c, 0, 60, 0
1, 73200, Note_on_c, 0, 81, 0
1, 73200, Note_on_c, 0, 84, 72
1, 73200, Note_on_c, 0, 69, 83
1, 73320, Note_on_c, 0, 69, 0
1, 73320, Note_on_c, 0, 84, 0
1, 73320, Note_on_c, 0, 88, 72
1, 73320, Note_on_c, 0, 72, 76
1, 73337, Tempo, 370370
1, 73440, Note_on_c, 0, 72, 0
1, 73440, Note_on_c, 0, 29, 0
1, 73440, Note_on_c, 0, 36, 0
1, 73440, Note_on_c, 0, 77, 0
1, 73440, Note_on_c, 0, 24, 0
1, 73440, Note_on_c, 0, 72, 0
1, 73440, Note_on_c, 0, 69, 0
1, 73440, Note_on_c, 0, 65, 0
1, 73440, Note_on_c, 0, 33, 0
1, 73440, Note_on_c, 0, 88, 0
1, 73440, Note_on_c, 0, 81, 89
1, 73440, Note_on_c, 0, 76, 89
1, 73444, Control_c, 0, 64, 0
1, 73503, Control_c, 0, 64, 127
1, 73553, Tempo, 371517
1, 73560, Note_on_c, 0, 76, 0
1, 73560, Note_on_c, 0, 81, 0
1, 73560, Note_on_c, 0, 78, 66
1, 73560, Note_on_c, 0, 72, 73
1, 73680, Note_on_c, 0, 72, 0
1, 73680, Note_on_c, 0, 78, 0
1, 73680, Note_on_c, 0, 72, 72
1, 73680, Note_on_c, 0, 69, 78
1, 73769, Tempo, 372671
1, 73800, Tempo, 401338
1, 73800, Note_on_c, 0, 69, 0
1, 73800, Note_on_c, 0, 72, 0
1, 73800, Note_on_c, 0, 74, 67
1, 73800, Note_on_c, 0, 60, 70
1, 73885, Tempo, 366972
1, 73909, Tempo, 358209
1, 73920, Note_on_c, 0, 60, 0
1, 73920, Note_on_c, 0, 74, 0
1, 73920, Note_on_c, 0, 76, 61
1, 73920, Note_on_c, 0, 88, 79
1, 73920, Note_on_c, 0, 64, 87
1, 73957, Tempo, 359281
1, 73981, Tempo, 360360
1, 74029, Tempo, 361446
1, 74040, Note_on_c, 0, 64, 0
1, 74040, Note_on_c, 0, 88, 0
1, 74040, Note_on_c, 0, 76, 0
1, 74040, Note_on_c, 0, 74, 51
1, 74040, Note_on_c, 0, 86, 67
1, 74040, Note_on_c, 0, 60, 72
1, 74053, Tempo, 362538
1, 74077, Tempo, 363636
1, 74125, Tempo, 364742
1, 74149, Tempo, 365854
1, 74160, Note_on_c, 0, 60, 0
1, 74160, Note_on_c, 0, 86, 0
1, 74160, Note_on_c, 0, 74, 0
1, 74160, Note_on_c, 0, 72, 54
1, 74160, Note_on_c, 0, 84, 69
1, 74160, Note_on_c, 0, 57, 75
1, 74173, Tempo, 366972
1, 74221, Tempo, 368098
1, 74245, Tempo, 369231
1, 74269, Tempo, 370370
1, 74280, Note_on_c, 0, 57, 0
1, 74280, Note_on_c, 0, 84, 0
1, 74280, Note_on_c, 0, 72, 0
1, 74280, Note_on_c, 0, 83, 73
1, 74280, Note_on_c, 0, 71, 56
1, 74280, Note_on_c, 0, 48, 69
1, 74293, Tempo, 372671
1, 74341, Tempo, 373832
1, 74365, Tempo, 375000
1, 74389, Tempo, 376176
1, 74400, Note_on_c, 0, 48, 0
1, 74400, Note_on_c, 0, 71, 0
1, 74400, Note_on_c, 0, 83, 0
1, 74400, Note_on_c, 0, 69, 58
1, 74400, Note_on_c, 0, 81, 73
1, 74400, Note_on_c, 0, 52, 76
1, 74413, Tempo, 378549
1, 74437, Tempo, 379747
1, 74461, Tempo, 380952
1, 74485, Tempo, 383387
1, 74509, Tempo, 384615
1, 74520, Note_on_c, 0, 52, 0
1, 74520, Note_on_c, 0, 81, 0
1, 74520, Note_on_c, 0, 69, 0
1, 74520, Note_on_c, 0, 79, 77
1, 74520, Note_on_c, 0, 67, 60
1, 74520, Note_on_c, 0, 48, 63
1, 74533, Tempo, 387097
1, 74557, Tempo, 388350
1, 74581, Tempo, 389610
1, 74605, Tempo, 392157
1, 74629, Tempo, 393443
1, 74640, Note_on_c, 0, 48, 0
1, 74640, Note_on_c, 0, 67, 0
1, 74640, Note_on_c, 0, 79, 0
1, 74640, Note_on_c, 0, 66, 60
1, 74640, Note_on_c, 0, 78, 78
1, 74640, Note_on_c, 0, 45, 74
1, 74653, Tempo, 394737
1, 74677, Tempo, 397351
1, 74701, Tempo, 398671
1, 74725, Tempo, 401338
1, 74737, Tempo, 380952
1, 74760, Tempo, 493827
1, 74760, Note_on_c, 0, 45, 0
1, 74760, Note_on_c, 0, 78, 0
1, 74760, Note_on_c, 0, 66, 0
1, 74760, Note_on_c, 0, 76, 80
1, 74760, Note_on_c, 0, 64, 61
1, 74760, Note_on_c, 0, 36, 61
1, 74863, Control_c, 0, 64, 0
1, 74880, Tempo, 405405
1, 74880, Note_on_c, 0, 36, 0
1, 74880, Note_on_c, 0, 64, 0
1, 74880, Note_on_c, 0, 76, 0
1, 74880, Note_on_c, 0, 62, 71
1, 74880, Note_on_c, 0, 71, 79
1, 74880, Note_on_c, 0, 74, 94
1, 74880, Note_on_c, 0, 67, 71
1, 74880, Note_on_c, 0, 35, 64
1, 74880, Note_on_c, 0, 31, 60
1, 74880, Note_on_c, 0, 43, 80
1, 74880, Note_on_c, 0, 38, 73
1, 75000, Tempo, 382166
1, 75000, Note_on_c, 0, 35, 0
1, 75000, Note_on_c, 0, 98, 84
1, 75000, Note_on_c, 0, 35, 76
1, 75060, Control_c, 0, 64, 127
1, 75120, Tempo, 366972
1, 75120, Note_on_c, 0, 98, 0
1, 75120, Note_on_c, 0, 95, 79
1, 75120, Note_on_c, 0, 43, 79
1, 75240, Note_on_c, 0, 43, 0
1, 75240, Note_on_c, 0, 95, 0
1, 75240, Note_on_c, 0, 91, 75
1, 75240, Note_on_c, 0, 47, 75
1, 75353, Tempo, 365854
1, 75360, Note_on_c, 0, 47, 0
1, 75360, Note_on_c, 0, 91, 0
1, 75360, Note_on_c, 0, 83, 82
1, 75360, Note_on_c, 0, 50, 84
1, 75480, Note_on_c, 0, 50, 0
1, 75480, Note_on_c, 0, 83, 0
1, 75480, Note_on_c, 0, 86, 73
1, 75480, Note_on_c, 0, 47, 75
1, 75569, Tempo, 366972
1, 75600, Note_on_c, 0, 47, 0
1, 75600, Note_on_c, 0, 86, 0
1, 75600, Note_on_c, 0, 83, 78
1, 75600, Note_on_c, 0, 55, 78
1, 75720, Note_on_c, 0, 55, 0
1, 75720, Note_on_c, 0, 83, 0
1, 75720, Note_on_c, 0, 78, 71
1, 75720, Note_on_c, 0, 59, 76
1, 75761, Tempo, 368098
1, 75840, Note_on_c, 0, 59, 0
1, 75840, Note_on_c, 0, 78, 0
1, 75840, Note_on_c, 0, 71, 65
1, 75840, Note_on_c, 0, 62, 83
1, 75960, Note_on_c, 0, 62, 0
1, 75960, Note_on_c, 0, 71, 0
1, 75960, Note_on_c, 0, 76, 75
1, 75960, Note_on_c, 0, 59, 73
1, 75977, Tempo, 369231
1, 76080, Note_on_c, 0, 59, 0
1, 76080, Note_on_c, 0, 76, 0
1, 76080, Note_on_c, 0, 79, 68
1, 76080, Note_on_c, 0, 67, 78
1, 76169, Tempo, 370370
1, 76200, Note_on_c, 0, 67, 0
1, 76200, Note_on_c, 0, 79, 0
1, 76200, Note_on_c, 0, 86, 68
1, 76200, Note_on_c, 0, 71, 72
1, 76320, Note_on_c, 0, 71, 0
1, 76320, Note_on_c, 0, 38, 0
1, 76320, Note_on_c, 0, 35, 0
1, 76320, Note_on_c, 0, 67, 0
1, 76320, Note_on_c, 0, 31, 0
1, 76320, Note_on_c, 0, 71, 0
1, 76320, Note_on_c, 0, 62, 0
1, 76320, Note_on_c, 0, 74, 0
1, 76320, Note_on_c, 0, 43, 0
1, 76320, Note_on_c, 0, 86, 0
1, 76320, Note_on_c, 0, 81, 84
1, 76320, Note_on_c, 0, 74, 84
1, 76324, Control_c, 0, 64, 0
1, 76383, Control_c, 0, 64, 127
1, 76385, Tempo, 371517
1, 76440, Note_on_c, 0, 74, 0
1, 76440, Note_on_c, 0, 81, 0
1, 76440, Note_on_c, 0, 78, 62
1, 76440, Note_on_c, 0, 69, 69
1, 76560, Note_on_c, 0, 69, 0
1, 76560, Note_on_c, 0, 78, 0
1, 76560, Note_on_c, 0, 71, 68
1, 76560, Note_on_c, 0, 66, 74
1, 76577, Tempo, 372671
1, 76680, Tempo, 418118
1, 76680, Note_on_c, 0, 66, 0
1, 76680, Note_on_c, 0, 71, 0
1, 76680, Note_on_c, 0, 72, 63
1, 76680, Note_on_c, 0, 60, 66
1, 76765, Tempo, 366972
1, 76800, Note_on_c, 0, 60, 0
1, 76800, Note_on_c, 0, 72, 0
1, 76800, Note_on_c, 0, 74, 57
1, 76800, Note_on_c, 0, 86, 75
1, 76800, Note_on_c, 0, 62, 82
1, 76813, Tempo, 359281
1, 76861, Tempo, 360360
1, 76885, Tempo, 361446
1, 76920, Note_on_c, 0, 62, 0
1, 76920, Note_on_c, 0, 86, 0
1, 76920, Note_on_c, 0, 74, 0
1, 76920, Note_on_c, 0, 72, 49
1, 76920, Note_on_c, 0, 84, 63
1, 76920, Note_on_c, 0, 57, 68
1, 76933, Tempo, 362538
1, 76957, Tempo, 363636
1, 76981, Tempo, 364742
1, 77029, Tempo, 365854
1, 77040, Note_on_c, 0, 57, 0
1, 77040, Note_on_c, 0, 84, 0
1, 77040, Note_on_c, 0, 72, 0
1, 77040, Note_on_c, 0, 71, 51
1, 77040, Note_on_c, 0, 83, 65
1, 77040, Note_on_c, 0, 54, 71
1, 77053, Tempo, 366972
1, 77101, Tempo, 368098
1, 77125, Tempo, 369231
1, 77149, Tempo, 370370
1, 77160, Note_on_c, 0, 54, 0
1, 77160, Note_on_c, 0, 83, 0
1, 77160, Note_on_c, 0, 71, 0
1, 77160, Note_on_c, 0, 69, 53
1, 77160, Note_on_c, 0, 81, 69
1, 77160, Note_on_c, 0, 48, 65
1, 77173, Tempo, 372671
1, 77221, Tempo, 373832
1, 77245, Tempo, 375000
1, 77269, Tempo, 376176
1, 77280, Note_on_c, 0, 48, 0
1, 77280, Note_on_c, 0, 81, 0
1, 77280, Note_on_c, 0, 69, 0
1, 77280, Note_on_c, 0, 79, 69
1, 77280, Note_on_c, 0, 67, 55
1, 77280, Note_on_c, 0, 50, 72
1, 77293, Tempo, 378549
1, 77317, Tempo, 379747
1, 77341, Tempo, 380952
1, 77365, Tempo, 383387
1, 77389, Tempo, 384615
1, 77400, Note_on_c, 0, 50, 0
1, 77400, Note_on_c, 0, 67, 0
1, 77400, Note_on_c, 0, 79, 0
1, 77400, Note_on_c, 0, 78, 73
1, 77400, Note_on_c, 0, 66, 56
1, 77400, Note_on_c, 0, 45, 59
1, 77413, Tempo, 387097
1, 77437, Tempo, 388350
1, 77461, Tempo, 389610
1, 77485, Tempo, 392157
1, 77509, Tempo, 393443
1, 77520, Note_on_c, 0, 45, 0
1, 77520, Note_on_c, 0, 66, 0
1, 77520, Note_on_c, 0, 78, 0
1, 77520, Note_on_c, 0, 64, 56
1, 77520, Note_on_c, 0, 76, 73
1, 77520, Note_on_c, 0, 42, 71
1, 77533, Tempo, 394737
1, 77557, Tempo, 397351
1, 77581, Tempo, 398671
1, 77605, Tempo, 401338
1, 77617, Tempo, 380952
1, 77640, Tempo, 493827
1, 77640, Note_on_c, 0, 42, 0
1, 77640, Note_on_c, 0, 76, 0
1, 77640, Note_on_c, 0, 64, 0
1, 77640, Note_on_c, 0, 74, 75
1, 77640, Note_on_c, 0, 62, 57
1, 77640, Note_on_c, 0, 36, 57
1, 77743, Control_c, 0, 64, 0
1, 77760, Tempo, 405405
1, 77760, Note_on_c, 0, 36, 0
1, 77760, Note_on_c, 0, 62, 0
1, 77760, Note_on_c, 0, 74, 0
1, 77760, Note_on_c, 0, 62, 57
1, 77760, Note_on_c, 0, 68, 75
1, 77760, Note_on_c, 0, 74, 89
1, 77760, Note_on_c, 0, 65, 65
1, 77760, Note_on_c, 0, 60, 58
1, 77760, Note_on_c, 0, 36, 60
1, 77760, Note_on_c, 0, 43, 76
1, 77760, Note_on_c, 0, 31, 57
1, 77760, Note_on_c, 0, 38, 69
1, 77880, Tempo, 382166
1, 77880, Note_on_c, 0, 36, 0
1, 77880, Note_on_c, 0, 98, 79
1, 77880, Note_on_c, 0, 36, 72
1, 77940, Control_c, 0, 64, 127
1, 78000, Tempo, 366972
1, 78000, Note_on_c, 0, 98, 0
1, 78000, Note_on_c, 0, 92, 75
1, 78000, Note_on_c, 0, 41, 75
1, 78120, Note_on_c, 0, 41, 0
1, 78120, Note_on_c, 0, 92, 0
1, 78120, Note_on_c, 0, 89, 71
1, 78120, Note_on_c, 0, 44, 71
1, 78223, Tempo, 365854
1, 78240, Note_on_c, 0, 44, 0
1, 78240, Note_on_c, 0, 89, 0
1, 78240, Note_on_c, 0, 84, 78
1, 78240, Note_on_c, 0, 50, 80
1, 78360, Note_on_c, 0, 50, 0
1, 78360, Note_on_c, 0, 84, 0
1, 78360, Note_on_c, 0, 86, 69
1, 78360, Note_on_c, 0, 48, 71
1, 78480, Note_on_c, 0, 48, 0
1, 78480, Note_on_c, 0, 86, 0
1, 78480, Note_on_c, 0, 80, 74
1, 78480, Note_on_c, 0, 53, 74
1, 78600, Note_on_c, 0, 53, 0
1, 78600, Note_on_c, 0, 80, 0
1, 78600, Note_on_c, 0, 77, 66
1, 78600, Note_on_c, 0, 56, 72
1, 78655, Tempo, 366972
1, 78720, Note_on_c, 0, 56, 0
1, 78720, Note_on_c, 0, 77, 0
1, 78720, Note_on_c, 0, 72, 62
1, 78720, Note_on_c, 0, 62, 79
1, 78840, Note_on_c, 0, 62, 0
1, 78840, Note_on_c, 0, 72, 0
1, 78840, Note_on_c, 0, 77, 71
1, 78840, Note_on_c, 0, 60, 69
1, 78960, Note_on_c, 0, 60, 0
1, 78960, Note_on_c, 0, 77, 0
1, 78960, Note_on_c, 0, 80, 64
1, 78960, Note_on_c, 0, 65, 74
1, 79063, Tempo, 368098
1, 79080, Note_on_c, 0, 65, 0
1, 79080, Note_on_c, 0, 80, 0
1, 79080, Note_on_c, 0, 86, 64
1, 79080, Note_on_c, 0, 68, 68
1, 79200, Note_on_c, 0, 68, 0
1, 79200, Note_on_c, 0, 36, 0
1, 79200, Note_on_c, 0, 74, 0
1, 79200, Note_on_c, 0, 31, 0
1, 79200, Note_on_c, 0, 62, 0
1, 79200, Note_on_c, 0, 60, 0
1, 79200, Note_on_c, 0, 68, 0
1, 79200, Note_on_c, 0, 65, 0
1, 79200, Note_on_c, 0, 38, 0
1, 79200, Note_on_c, 0, 43, 0
1, 79200, Note_on_c, 0, 86, 0
1, 79200, Note_on_c, 0, 79, 80
1, 79200, Note_on_c, 0, 74, 80
1, 79204, Control_c, 0, 64, 0
1, 79263, Control_c, 0, 64, 127
1, 79320, Note_on_c, 0, 74, 0
1, 79320, Note_on_c, 0, 79, 0
1, 79320, Note_on_c, 0, 77, 59
1, 79320, Note_on_c, 0, 67, 65
1, 79440, Note_on_c, 0, 67, 0
1, 79440, Note_on_c, 0, 77, 0
1, 79440, Note_on_c, 0, 71, 64
1, 79440, Note_on_c, 0, 65, 70
1, 79471, Tempo, 369231
1, 79560, Tempo, 406780
1, 79560, Note_on_c, 0, 65, 0
1, 79560, Note_on_c, 0, 71, 0
1, 79560, Note_on_c, 0, 72, 60
1, 79560, Note_on_c, 0, 59, 62
1, 79645, Tempo, 359281
1, 79680, Note_on_c, 0, 59, 0
1, 79680, Note_on_c, 0, 72, 0
1, 79680, Note_on_c, 0, 86, 71
1, 79680, Note_on_c, 0, 74, 54
1, 79680, Note_on_c, 0, 62, 70
1, 79693, Tempo, 360360
1, 79717, Tempo, 361446
1, 79741, Tempo, 362538
1, 79765, Tempo, 363636
1, 79789, Tempo, 364742
1, 79800, Note_on_c, 0, 62, 0
1, 79800, Note_on_c, 0, 74, 0
1, 79800, Note_on_c, 0, 86, 0
1, 79800, Note_on_c, 0, 84, 62
1, 79800, Note_on_c, 0, 72, 62
1, 79800, Note_on_c, 0, 55, 57
1, 79813, Tempo, 365854
1, 79837, Tempo, 366972
1, 79861, Tempo, 368098
1, 79885, Tempo, 369231
1, 79909, Tempo, 370370
1, 79920, Note_on_c, 0, 55, 0
1, 79920, Note_on_c, 0, 72, 0
1, 79920, Note_on_c, 0, 84, 0
1, 79920, Note_on_c, 0, 83, 59
1, 79920, Note_on_c, 0, 71, 59
1, 79920, Note_on_c, 0, 53, 60
1, 79933, Tempo, 371517
1, 79957, Tempo, 372671
1, 79981, Tempo, 373832
1, 80005, Tempo, 375000
1, 80040, Note_on_c, 0, 53, 0
1, 80040, Note_on_c, 0, 71, 0
1, 80040, Note_on_c, 0, 83, 0
1, 80040, Note_on_c, 0, 69, 57
1, 80040, Note_on_c, 0, 81, 57
1, 80040, Note_on_c, 0, 47, 54
1, 80053, Tempo, 372671
1, 80101, Tempo, 373832
1, 80125, Tempo, 375000
1, 80149, Tempo, 376176
1, 80160, Note_on_c, 0, 47, 0
1, 80160, Note_on_c, 0, 81, 0
1, 80160, Note_on_c, 0, 69, 0
1, 80160, Note_on_c, 0, 67, 54
1, 80160, Note_on_c, 0, 79, 54
1, 80160, Note_on_c, 0, 50, 61
1, 80173, Tempo, 378549
1, 80197, Tempo, 379747
1, 80221, Tempo, 380952
1, 80245, Tempo, 383387
1, 80269, Tempo, 384615
1, 80280, Note_on_c, 0, 50, 0
1, 80280, Note_on_c, 0, 79, 0
1, 80280, Note_on_c, 0, 67, 0
1, 80280, Note_on_c, 0, 77, 52
1, 80280, Note_on_c, 0, 65, 52
1, 80280, Note_on_c, 0, 43, 50
1, 80293, Tempo, 387097
1, 80317, Tempo, 388350
1, 80341, Tempo, 389610
1, 80365, Tempo, 392157
1, 80389, Tempo, 393443
1, 80400, Note_on_c, 0, 43, 0
1, 80400, Note_on_c, 0, 65, 0
1, 80400, Note_on_c, 0, 77, 0
1, 80400, Note_on_c, 0, 76, 49
1, 80400, Note_on_c, 0, 64, 49
1, 80400, Note_on_c, 0, 40, 60
1, 80413, Tempo, 394737
1, 80437, Tempo, 397351
1, 80461, Tempo, 398671
1, 80485, Tempo, 401338
1, 80497, Tempo, 380952
1, 80520, Tempo, 784314
1, 80520, Note_on_c, 0, 40, 0
1, 80520, Note_on_c, 0, 64, 0
1, 80520, Note_on_c, 0, 76, 0
1, 80520, Note_on_c, 0, 74, 46
1, 80520, Note_on_c, 0, 62, 46
1, 80520, Note_on_c, 0, 35, 48
1, 80623, Control_c, 0, 64, 0
1, 80640, Tempo, 405405
1, 80640, Note_on_c, 0, 35, 0
1, 80640, Note_on_c, 0, 62, 0
1, 80640, Note_on_c, 0, 74, 0
1, 80640, Note_on_c, 0, 64, 38
1, 80640, Note_on_c, 0, 72, 43
1, 80640, Note_on_c, 0, 76, 51
1, 80640, Note_on_c, 0, 67, 38
1, 80640, Note_on_c, 0, 36, 44
1, 80640, Note_on_c, 0, 28, 35
1, 80640, Note_on_c, 0, 24, 33
1, 80640, Note_on_c, 0, 31, 39
1, 80649, Control_c, 0, 64, 0
1, 80760, Tempo, 382166
1, 80760, Note_on_c, 0, 36, 0
1, 80760, Note_on_c, 0, 100, 45
1, 80760, Note_on_c, 0, 36, 41
1, 80820, Control_c, 0, 64, 127
1, 80880, Tempo, 366972
1, 80880, Note_on_c, 0, 100, 0
1, 80880, Note_on_c, 0, 96, 43
1, 80880, Note_on_c, 0, 43, 43
1, 81000, Note_on_c, 0, 43, 0
1, 81000, Note_on_c, 0, 96, 0
1, 81000, Note_on_c, 0, 91, 41
1, 81000, Note_on_c, 0, 48, 41
1, 81113, Tempo, 365854
1, 81120, Note_on_c, 0, 48, 0
1, 81120, Note_on_c, 0, 91, 0
1, 81120, Note_on_c, 0, 84, 45
1, 81120, Note_on_c, 0, 52, 45
1, 81240, Note_on_c, 0, 52, 0
1, 81240, Note_on_c, 0, 84, 0
1, 81240, Note_on_c, 0, 88, 40
1, 81240, Note_on_c, 0, 48, 41
1, 81360, Note_on_c, 0, 48, 0
1, 81360, Note_on_c, 0, 88, 0
1, 81360, Note_on_c, 0, 84, 43
1, 81360, Note_on_c, 0, 55, 43
1, 81449, Tempo, 366972
1, 81480, Note_on_c, 0, 55, 0
1, 81480, Note_on_c, 0, 84, 0
1, 81480, Note_on_c, 0, 79, 38
1, 81480, Note_on_c, 0, 60, 41
1, 81600, Note_on_c, 0, 60, 0
1, 81600, Note_on_c, 0, 79, 0
1, 81600, Note_on_c, 0, 72, 36
1, 81600, Note_on_c, 0, 64, 46
1, 81720, Note_on_c, 0, 64, 0
1, 81720, Note_on_c, 0, 72, 0
1, 81720, Note_on_c, 0, 79, 41
1, 81720, Note_on_c, 0, 60, 40
1, 81761, Tempo, 368098
1, 81840, Note_on_c, 0, 60, 0
1, 81840, Note_on_c, 0, 79, 0
1, 81840, Note_on_c, 0, 84, 38
1, 81840, Note_on_c, 0, 67, 44
1, 81960, Note_on_c, 0, 67, 0
1, 81960, Note_on_c, 0, 84, 0
1, 81960, Note_on_c, 0, 88, 38
1, 81960, Note_on_c, 0, 72, 40
1, 82073, Tempo, 369231
1, 82080, Note_on_c, 0, 72, 0
1, 82080, Note_on_c, 0, 31, 0
1, 82080, Note_on_c, 0, 36, 0
1, 82080, Note_on_c, 0, 67, 0
1, 82080, Note_on_c, 0, 28, 0
1, 82080, Note_on_c, 0, 72, 0
1, 82080, Note_on_c, 0, 64, 0
1, 82080, Note_on_c, 0, 76, 0
1, 82080, Note_on_c, 0, 24, 0
1, 82080, Note_on_c, 0, 88, 0
1, 82080, Note_on_c, 0, 84, 47
1, 82080, Note_on_c, 0, 76, 47
1, 82200, Note_on_c, 0, 76, 0
1, 82200, Note_on_c, 0, 84, 0
1, 82200, Note_on_c, 0, 79, 35
1, 82200, Note_on_c, 0, 72, 40
1, 82320, Note_on_c, 0, 72, 0
1, 82320, Note_on_c, 0, 79, 0
1, 82320, Note_on_c, 0, 72, 38
1, 82320, Note_on_c, 0, 67, 44
1, 82385, Tempo, 370370
1, 82440, Tempo, 402685
1, 82440, Note_on_c, 0, 67, 0
1, 82440, Note_on_c, 0, 72, 0
1, 82440, Note_on_c, 0, 74, 36
1, 82440, Note_on_c, 0, 60, 39
1, 82525, Tempo, 366972
1, 82549, Tempo, 359281
1, 82560, Note_on_c, 0, 60, 0
1, 82560, Note_on_c, 0, 74, 0
1, 82560, Note_on_c, 0, 76, 41
1, 82560, Note_on_c, 0, 88, 54
1, 82560, Note_on_c, 0, 64, 46
1, 82597, Tempo, 360360
1, 82621, Tempo, 361446
1, 82645, Tempo, 362538
1, 82680, Note_on_c, 0, 64, 0
1, 82680, Note_on_c, 0, 88, 0
1, 82680, Note_on_c, 0, 76, 0
1, 82680, Note_on_c, 0, 74, 34
1, 82680, Note_on_c, 0, 86, 45
1, 82680, Note_on_c, 0, 60, 39
1, 82693, Tempo, 363636
1, 82717, Tempo, 364742
1, 82741, Tempo, 365854
1, 82789, Tempo, 366972
1, 82800, Note_on_c, 0, 60, 0
1, 82800, Note_on_c, 0, 86, 0
1, 82800, Note_on_c, 0, 74, 0
1, 82800, Note_on_c, 0, 72, 36
1, 82800, Note_on_c, 0, 84, 46
1, 82800, Note_on_c, 0, 55, 43
1, 82813, Tempo, 368098
1, 82837, Tempo, 369231
1, 82861, Tempo, 371517
1, 82920, Note_on_c, 0, 55, 0
1, 82920, Note_on_c, 0, 84, 0
1, 82920, Note_on_c, 0, 72, 0
1, 82920, Note_on_c, 0, 83, 50
1, 82920, Note_on_c, 0, 71, 37
1, 82920, Note_on_c, 0, 48, 38
1, 82933, Tempo, 372671
1, 82981, Tempo, 373832
1, 83005, Tempo, 375000
1, 83029, Tempo, 376176
1, 83040, Note_on_c, 0, 48, 0
1, 83040, Note_on_c, 0, 71, 0
1, 83040, Note_on_c, 0, 83, 0
1, 83040, Note_on_c, 0, 69, 40
1, 83040, Note_on_c, 0, 81, 50
1, 83040, Note_on_c, 0, 52, 51
1, 83053, Tempo, 378549
1, 83077, Tempo, 379747
1, 83101, Tempo, 380952
1, 83125, Tempo, 383387
1, 83149, Tempo, 384615
1, 83160, Note_on_c, 0, 52, 0
1, 83160, Note_on_c, 0, 81, 0
1, 83160, Note_on_c, 0, 69, 0
1, 83160, Note_on_c, 0, 79, 54
1, 83160, Note_on_c, 0, 67, 41
1, 83160, Note_on_c, 0, 48, 44
1, 83173, Tempo, 387097
1, 83197, Tempo, 388350
1, 83221, Tempo, 389610
1, 83245, Tempo, 392157
1, 83269, Tempo, 393443
1, 83280, Note_on_c, 0, 48, 0
1, 83280, Note_on_c, 0, 67, 0
1, 83280, Note_on_c, 0, 79, 0
1, 83280, Note_on_c, 0, 65, 41
1, 83280, Note_on_c, 0, 77, 54
1, 83280, Note_on_c, 0, 43, 51
1, 83293, Tempo, 394737
1, 83317, Tempo, 397351
1, 83341, Tempo, 398671
1, 83365, Tempo, 401338
1, 83377, Tempo, 380952
1, 83400, Tempo, 493827
1, 83400, Note_on_c, 0, 43, 0
1, 83400, Note_on_c, 0, 77, 0
1, 83400, Note_on_c, 0, 65, 0
1, 83400, Note_on_c, 0, 64, 42
1, 83400, Note_on_c, 0, 76, 55
1, 83400, Note_on_c, 0, 36, 46
1, 83503, Control_c, 0, 64, 0
1, 83520, Tempo, 405405
1, 83520, Note_on_c, 0, 36, 0
1, 83520, Note_on_c, 0, 76, 0
1, 83520, Note_on_c, 0, 64, 0
1, 83520, Note_on_c, 0, 69, 45
1, 83520, Note_on_c, 0, 72, 51
1, 83520, Note_on_c, 0, 65, 45
1, 83520, Note_on_c, 0, 77, 61
1, 83520, Note_on_c, 0, 33, 39
1, 83520, Note_on_c, 0, 36, 41
1, 83520, Note_on_c, 0, 45, 52
1, 83520, Note_on_c, 0, 41, 46
1, 83640, Tempo, 382166
1, 83640, Note_on_c, 0, 36, 0
1, 83640, Note_on_c, 0, 101, 54
1, 83640, Note_on_c, 0, 36, 49
1, 83700, Control_c, 0, 64, 127
1, 83760, Tempo, 366972
1, 83760, Note_on_c, 0, 101, 0
1, 83760, Note_on_c, 0, 41, 0
1, 83760, Note_on_c, 0, 96, 51
1, 83760, Note_on_c, 0, 41, 51
1, 83880, Note_on_c, 0, 96, 0
1, 83880, Note_on_c, 0, 93, 49
1, 83880, Note_on_c, 0, 48, 49
1, 84000, Tempo, 366972
1, 84000, Note_on_c, 0, 48, 0
1, 84000, Note_on_c, 0, 93, 0
1, 84000, Note_on_c, 0, 84, 54
1, 84000, Note_on_c, 0, 53, 54
1, 84007, Tempo, 365854
1, 84120, Note_on_c, 0, 53, 0
1, 84120, Note_on_c, 0, 84, 0
1, 84120, Note_on_c, 0, 89, 47
1, 84120, Note_on_c, 0, 48, 49
1, 84240, Note_on_c, 0, 48, 0
1, 84240, Note_on_c, 0, 89, 0
1, 84240, Note_on_c, 0, 84, 51
1, 84240, Note_on_c, 0, 57, 51
1, 84360, Note_on_c, 0, 57, 0
1, 84360, Note_on_c, 0, 84, 0
1, 84360, Note_on_c, 0, 81, 45
1, 84360, Note_on_c, 0, 60, 49
1, 84463, Tempo, 366972
1, 84480, Note_on_c, 0, 60, 0
1, 84480, Note_on_c, 0, 81, 0
1, 84480, Note_on_c, 0, 72, 43
1, 84480, Note_on_c, 0, 65, 55
1, 84600, Note_on_c, 0, 65, 0
1, 84600, Note_on_c, 0, 72, 0
1, 84600, Note_on_c, 0, 81, 49
1, 84600, Note_on_c, 0, 60, 47
1, 84720, Note_on_c, 0, 60, 0
1, 84720, Note_on_c, 0, 81, 0
1, 84720, Note_on_c, 0, 84, 45
1, 84720, Note_on_c, 0, 69, 52
1, 84840, Note_on_c, 0, 69, 0
1, 84840, Note_on_c, 0, 84, 0
1, 84840, Note_on_c, 0, 88, 45
1, 84840, Note_on_c, 0, 72, 47
1, 84919, Tempo, 368098
1, 84960, Note_on_c, 0, 72, 0
1, 84960, Note_on_c, 0, 65, 0
1, 84960, Note_on_c, 0, 77, 0
1, 84960, Note_on_c, 0, 36, 0
1, 84960, Note_on_c, 0, 33, 0
1, 84960, Note_on_c, 0, 72, 0
1, 84960, Note_on_c, 0, 69, 0
1, 84960, Note_on_c, 0, 41, 0
1, 84960, Note_on_c, 0, 45, 0
1, 84960, Note_on_c, 0, 88, 0
1, 84960, Note_on_c, 0, 81, 56
1, 84960, Note_on_c, 0, 76, 56
1, 84964, Control_c, 0, 64, 0
1, 85023, Control_c, 0, 64, 127
1, 85080, Note_on_c, 0, 76, 0
1, 85080, Note_on_c, 0, 81, 0
1, 85080, Note_on_c, 0, 78, 41
1, 85080, Note_on_c, 0, 72, 45
1, 85200, Note_on_c, 0, 72, 0
1, 85200, Note_on_c, 0, 78, 0
1, 85200, Note_on_c, 0, 72, 45
1, 85200, Note_on_c, 0, 66, 49
1, 85320, Note_on_c, 0, 66, 0
1, 85320, Note_on_c, 0, 72, 0
1, 85320, Note_on_c, 0, 76, 43
1, 85320, Note_on_c, 0, 60, 45
1, 85375, Tempo, 369231
1, 85405, Tempo, 366972
1, 85440, Note_on_c, 0, 60, 0
1, 85440, Note_on_c, 0, 76, 0
1, 85440, Note_on_c, 0, 69, 51
1, 85440, Note_on_c, 0, 64, 55
1, 85501, Tempo, 368098
1, 85560, Note_on_c, 0, 64, 0
1, 85560, Note_on_c, 0, 69, 0
1, 85560, Note_on_c, 0, 66, 44
1, 85560, Note_on_c, 0, 60, 46
1, 85573, Tempo, 369231
1, 85645, Tempo, 370370
1, 85680, Note_on_c, 0, 60, 0
1, 85680, Note_on_c, 0, 66, 0
1, 85680, Note_on_c, 0, 60, 45
1, 85680, Note_on_c, 0, 54, 49
1, 85741, Tempo, 371517
1, 85800, Note_on_c, 0, 54, 0
1, 85800, Note_on_c, 0, 60, 0
1, 85800, Note_on_c, 0, 62, 47
1, 85800, Note_on_c, 0, 48, 45
1, 85813, Tempo, 372671
1, 85861, Tempo, 373832
1, 85885, Tempo, 375000
1, 85909, Tempo, 376176
1, 85920, Note_on_c, 0, 48, 0
1, 85920, Note_on_c, 0, 62, 0
1, 85920, Note_on_c, 0, 63, 53
1, 85920, Note_on_c, 0, 32, 49
1, 85920, Note_on_c, 0, 36, 49
1, 85920, Note_on_c, 0, 44, 51
1, 85928, Control_c, 0, 64, 0
1, 85933, Tempo, 378549
1, 85957, Tempo, 379747
1, 85981, Tempo, 380952
1, 86000, Control_c, 0, 64, 127
1, 86005, Tempo, 383387
1, 86029, Tempo, 384615
1, 86040, Note_on_c, 0, 63, 0
1, 86040, Note_on_c, 0, 60, 54
1, 86053, Tempo, 387097
1, 86077, Tempo, 388350
1, 86101, Tempo, 389610
1, 86125, Tempo, 392157
1, 86149, Tempo, 393443
1, 86160, Note_on_c, 0, 60, 0
1, 86160, Note_on_c, 0, 54, 56
1, 86173, Tempo, 394737
1, 86197, Tempo, 397351
1, 86221, Tempo, 398671
1, 86245, Tempo, 401338
1, 86257, Tempo, 380952
1, 86280, Tempo, 493827
1, 86280, Note_on_c, 0, 54, 0
1, 86280, Note_on_c, 0, 48, 59
1, 86383, Control_c, 0, 64, 0
1, 86400, Tempo, 405405
1, 86400, Note_on_c, 0, 48, 0
1, 86400, Note_on_c, 0, 44, 0
1, 86400, Note_on_c, 0, 36, 0
1, 86400, Note_on_c, 0, 32, 0
1, 86400, Note_on_c, 0, 31, 51
1, 86400, Note_on_c, 0, 36, 54
1, 86400, Note_on_c, 0, 38, 61
1, 86400, Note_on_c, 0, 43, 67
1, 86409, Control_c, 0, 64, 0
1, 86520, Tempo, 382166
1, 86520, Note_on_c, 0, 36, 0
1, 86520, Note_on_c, 0, 98, 65
1, 86520, Note_on_c, 0, 36, 59
1, 86580, Control_c, 0, 64, 127
1, 86640, Tempo, 366972
1, 86640, Note_on_c, 0, 98, 0
1, 86640, Note_on_c, 0, 96, 61
1, 86640, Note_on_c, 0, 43, 61
1, 86760, Note_on_c, 0, 43, 0
1, 86760, Note_on_c, 0, 96, 0
1, 86760, Note_on_c, 0, 91, 59
1, 86760, Note_on_c, 0, 48, 59
1, 86863, Tempo, 365854
1, 86880, Note_on_c, 0, 48, 0
1, 86880, Note_on_c, 0, 91, 0
1, 86880, Note_on_c, 0, 84, 64
1, 86880, Note_on_c, 0, 50, 65
1, 87000, Note_on_c, 0, 50, 0
1, 87000, Note_on_c, 0, 84, 0
1, 87000, Note_on_c, 0, 86, 58
1, 87000, Note_on_c, 0, 48, 60
1, 87120, Note_on_c, 0, 48, 0
1, 87120, Note_on_c, 0, 86, 0
1, 87120, Note_on_c, 0, 84, 61
1, 87120, Note_on_c, 0, 55, 61
1, 87127, Tempo, 366972
1, 87240, Note_on_c, 0, 55, 0
1, 87240, Note_on_c, 0, 84, 0
1, 87240, Note_on_c, 0, 79, 55
1, 87240, Note_on_c, 0, 60, 60
1, 87360, Note_on_c, 0, 60, 0
1, 87360, Note_on_c, 0, 79, 0
1, 87360, Note_on_c, 0, 72, 51
1, 87360, Note_on_c, 0, 62, 67
1, 87391, Tempo, 368098
1, 87480, Note_on_c, 0, 62, 0
1, 87480, Note_on_c, 0, 72, 0
1, 87480, Note_on_c, 0, 79, 60
1, 87480, Note_on_c, 0, 60, 58
1, 87600, Note_on_c, 0, 60, 0
1, 87600, Note_on_c, 0, 79, 0
1, 87600, Note_on_c, 0, 84, 56
1, 87600, Note_on_c, 0, 67, 63
1, 87655, Tempo, 369231
1, 87720, Note_on_c, 0, 67, 0
1, 87720, Note_on_c, 0, 84, 0
1, 87720, Note_on_c, 0, 86, 56
1, 87720, Note_on_c, 0, 72, 58
1, 87840, Note_on_c, 0, 72, 0
1, 87840, Note_on_c, 0, 38, 0
1, 87840, Note_on_c, 0, 31, 0
1, 87840, Note_on_c, 0, 43, 0
1, 87840, Note_on_c, 0, 86, 0
1, 87840, Note_on_c, 0, 36, 0
1, 87840, Note_on_c, 0, 83, 69
1, 87840, Note_on_c, 0, 74, 69
1, 87844, Control_c, 0, 64, 0
1, 87903, Control_c, 0, 64, 127
1, 87919, Tempo, 370370
1, 87960, Note_on_c, 0, 74, 0
1, 87960, Note_on_c, 0, 83, 0
1, 87960, Note_on_c, 0, 79, 50
1, 87960, Note_on_c, 0, 71, 58
1, 88080, Note_on_c, 0, 71, 0
1, 88080, Note_on_c, 0, 79, 0
1, 88080, Note_on_c, 0, 71, 56
1, 88080, Note_on_c, 0, 67, 63
1, 88159, Tempo, 371517
1, 88200, Tempo, 413793
1, 88200, Note_on_c, 0, 67, 0
1, 88200, Note_on_c, 0, 71, 0
1, 88200, Note_on_c, 0, 72, 53
1, 88200, Note_on_c, 0, 59, 57
1, 88273, Tempo, 373832
1, 88297, Tempo, 372671
1, 88320, Note_on_c, 0, 59, 0
1, 88320, Note_on_c, 0, 72, 0
1, 88320, Note_on_c, 0, 74, 73
1, 88320, Note_on_c, 0, 62, 66
1, 88321, Tempo, 370370
1, 88345, Tempo, 369231
1, 88369, Tempo, 366972
1, 88393, Tempo, 365854
1, 88417, Tempo, 363636
1, 88440, Note_on_c, 0, 62, 0
1, 88440, Note_on_c, 0, 74, 0
1, 88440, Note_on_c, 0, 76, 62
1, 88440, Note_on_c, 0, 64, 46
1, 88440, Note_on_c, 0, 59, 57
1, 88441, Tempo, 362538
1, 88465, Tempo, 360360
1, 88489, Tempo, 359281
1, 88513, Tempo, 357143
1, 88537, Tempo, 356083
1, 88560, Note_on_c, 0, 59, 0
1, 88560, Note_on_c, 0, 64, 0
1, 88560, Note_on_c, 0, 76, 0
1, 88560, Note_on_c, 0, 65, 48
1, 88560, Note_on_c, 0, 77, 63
1, 88560, Note_on_c, 0, 55, 63
1, 88561, Tempo, 353982
1, 88597, Tempo, 366972
1, 88609, Tempo, 357143
1, 88633, Tempo, 358209
1, 88657, Tempo, 360360
1, 88680, Note_on_c, 0, 55, 0
1, 88680, Note_on_c, 0, 77, 0
1, 88680, Note_on_c, 0, 65, 0
1, 88680, Note_on_c, 0, 79, 67
1, 88680, Note_on_c, 0, 67, 51
1, 88680, Note_on_c, 0, 47, 56
1, 88681, Tempo, 362538
1, 88705, Tempo, 364742
1, 88729, Tempo, 366972
1, 88741, Tempo, 373832
1, 88765, Tempo, 375000
1, 88789, Tempo, 376176
1, 88800, Note_on_c, 0, 47, 0
1, 88800, Note_on_c, 0, 67, 0
1, 88800, Note_on_c, 0, 79, 0
1, 88800, Note_on_c, 0, 69, 54
1, 88800, Note_on_c, 0, 81, 68
1, 88800, Note_on_c, 0, 50, 68
1, 88813, Tempo, 378549
1, 88837, Tempo, 379747
1, 88861, Tempo, 380952
1, 88885, Tempo, 383387
1, 88909, Tempo, 384615
1, 88920, Note_on_c, 0, 50, 0
1, 88920, Note_on_c, 0, 81, 0
1, 88920, Note_on_c, 0, 69, 0
1, 88920, Note_on_c, 0, 83, 74
1, 88920, Note_on_c, 0, 71, 56
1, 88920, Note_on_c, 0, 47, 51
1, 88933, Tempo, 387097
1, 88957, Tempo, 388350
1, 88981, Tempo, 389610
1, 89005, Tempo, 392157
1, 89029, Tempo, 393443
1, 89040, Note_on_c, 0, 47, 0
1, 89040, Note_on_c, 0, 71, 0
1, 89040, Note_on_c, 0, 83, 0
1, 89040, Note_on_c, 0, 84, 75
1, 89040, Note_on_c, 0, 72, 56
1, 89040, Note_on_c, 0, 43, 62
1, 89053, Tempo, 394737
1, 89077, Tempo, 397351
1, 89101, Tempo, 398671
1, 89125, Tempo, 401338
1, 89137, Tempo, 380952
1, 89160, Tempo, 493827
1, 89160, Note_on_c, 0, 43, 0
1, 89160, Note_on_c, 0, 72, 0
1, 89160, Note_on_c, 0, 84, 0
1, 89160, Note_on_c, 0, 86, 76
1, 89160, Note_on_c, 0, 74, 57
1, 89160, Note_on_c, 0, 35, 49
1, 89263, Control_c, 0, 64, 0
1, 89280, Tempo, 405405
1, 89280, Note_on_c, 0, 35, 0
1, 89280, Note_on_c, 0, 74, 0
1, 89280, Note_on_c, 0, 86, 0
1, 89280, Note_on_c, 0, 30, 56
1, 89280, Note_on_c, 0, 38, 67
1, 89280, Note_on_c, 0, 36, 58
1, 89280, Note_on_c, 0, 42, 75
1, 89289, Control_c, 0, 64, 0
1, 89400, Tempo, 382166
1, 89400, Note_on_c, 0, 36, 0
1, 89400, Note_on_c, 0, 98, 72
1, 89400, Note_on_c, 0, 36, 65
1, 89460, Control_c, 0, 64, 127
1, 89520, Tempo, 366972
1, 89520, Note_on_c, 0, 98, 0
1, 89520, Note_on_c, 0, 96, 67
1, 89520, Note_on_c, 0, 45, 67
1, 89640, Note_on_c, 0, 45, 0
1, 89640, Note_on_c, 0, 96, 0
1, 89640, Note_on_c, 0, 93, 65
1, 89640, Note_on_c, 0, 48, 65
1, 89743, Tempo, 365854
1, 89760, Note_on_c, 0, 48, 0
1, 89760, Note_on_c, 0, 93, 0
1, 89760, Note_on_c, 0, 84, 71
1, 89760, Note_on_c, 0, 50, 72
1, 89880, Note_on_c, 0, 50, 0
1, 89880, Note_on_c, 0, 84, 0
1, 89880, Note_on_c, 0, 86, 64
1, 89880, Note_on_c, 0, 48, 66
1, 90000, Note_on_c, 0, 48, 0
1, 90000, Note_on_c, 0, 86, 0
1, 90000, Note_on_c, 0, 84, 68
1, 90000, Note_on_c, 0, 57, 68
1, 90079, Tempo, 366972
1, 90120, Note_on_c, 0, 57, 0
1, 90120, Note_on_c, 0, 84, 0
1, 90120, Note_on_c, 0, 81, 61
1, 90120, Note_on_c, 0, 60, 66
1, 90240, Note_on_c, 0, 60, 0
1, 90240, Note_on_c, 0, 81, 0
1, 90240, Note_on_c, 0, 72, 56
1, 90240, Note_on_c, 0, 62, 73
1, 90360, Note_on_c, 0, 62, 0
1, 90360, Note_on_c, 0, 72, 0
1, 90360, Note_on_c, 0, 81, 66
1, 90360, Note_on_c, 0, 60, 64
1, 90391, Tempo, 368098
1, 90480, Note_on_c, 0, 60, 0
1, 90480, Note_on_c, 0, 81, 0
1, 90480, Note_on_c, 0, 84, 62
1, 90480, Note_on_c, 0, 69, 69
1, 90600, Note_on_c, 0, 69, 0
1, 90600, Note_on_c, 0, 84, 0
1, 90600, Note_on_c, 0, 87, 62
1, 90600, Note_on_c, 0, 72, 64
1, 90703, Tempo, 369231
1, 90720, Note_on_c, 0, 72, 0
1, 90720, Note_on_c, 0, 38, 0
1, 90720, Note_on_c, 0, 30, 0
1, 90720, Note_on_c, 0, 42, 0
1, 90720, Note_on_c, 0, 87, 0
1, 90720, Note_on_c, 0, 36, 0
1, 90720, Note_on_c, 0, 84, 75
1, 90720, Note_on_c, 0, 75, 75
1, 90840, Note_on_c, 0, 75, 0
1, 90840, Note_on_c, 0, 84, 0
1, 90840, Note_on_c, 0, 81, 55
1, 90840, Note_on_c, 0, 72, 64
1, 90960, Note_on_c, 0, 72, 0
1, 90960, Note_on_c, 0, 81, 0
1, 90960, Note_on_c, 0, 72, 62
1, 90960, Note_on_c, 0, 69, 69
1, 91015, Tempo, 370370
1, 91080, Tempo, 439560
1, 91080, Note_on_c, 0, 69, 0
1, 91080, Note_on_c, 0, 72, 0
1, 91080, Note_on_c, 0, 74, 57
1, 91080, Note_on_c, 0, 60, 63
1, 91177, Tempo, 380952
1, 91200, Note_on_c, 0, 60, 0
1, 91200, Note_on_c, 0, 74, 0
1, 91200, Note_on_c, 0, 75, 80
1, 91200, Note_on_c, 0, 63, 75
1, 91201, Tempo, 377358
1, 91210, Control_c, 0, 64, 0
1, 91225, Tempo, 373832
1, 91249, Tempo, 369231
1, 91273, Tempo, 365854
1, 91297, Tempo, 362538
1, 91308, Control_c, 0, 64, 127
1, 91320, Note_on_c, 0, 63, 0
1, 91320, Note_on_c, 0, 75, 0
1, 91320, Note_on_c, 0, 77, 68
1, 91320, Note_on_c, 0, 65, 50
1, 91320, Note_on_c, 0, 59, 63
1, 91321, Tempo, 358209
1, 91333, Tempo, 359281
1, 91357, Tempo, 360360
1, 91381, Tempo, 361446
1, 91405, Tempo, 362538
1, 91422, Tempo, 366972
1, 91440, Note_on_c, 0, 59, 0
1, 91440, Note_on_c, 0, 65, 0
1, 91440, Note_on_c, 0, 77, 0
1, 91440, Note_on_c, 0, 67, 52
1, 91440, Note_on_c, 0, 79, 69
1, 91440, Note_on_c, 0, 57, 69
1, 91441, Tempo, 368098
1, 91460, Tempo, 369231
1, 91480, Tempo, 370370
1, 91499, Tempo, 371517
1, 91518, Tempo, 373832
1, 91537, Tempo, 375000
1, 91556, Tempo, 376176
1, 91560, Note_on_c, 0, 57, 0
1, 91560, Note_on_c, 0, 79, 0
1, 91560, Note_on_c, 0, 67, 0
1, 91560, Note_on_c, 0, 69, 55
1, 91560, Note_on_c, 0, 81, 74
1, 91560, Note_on_c, 0, 47, 62
1, 91576, Tempo, 377358
1, 91595, Tempo, 378549
1, 91614, Tempo, 380952
1, 91633, Tempo, 382166
1, 91652, Tempo, 383387
1, 91672, Tempo, 384615
1, 91680, Note_on_c, 0, 47, 0
1, 91680, Note_on_c, 0, 81, 0
1, 91680, Note_on_c, 0, 69, 0
1, 91680, Note_on_c, 0, 83, 75
1, 91680, Note_on_c, 0, 71, 59
1, 91680, Note_on_c, 0, 51, 75
1, 91691, Tempo, 387097
1, 91710, Tempo, 388350
1, 91729, Tempo, 389610
1, 91748, Tempo, 390879
1, 91768, Tempo, 392157
1, 91787, Tempo, 394737
1, 91800, Note_on_c, 0, 51, 0
1, 91800, Note_on_c, 0, 71, 0
1, 91800, Note_on_c, 0, 83, 0
1, 91800, Note_on_c, 0, 72, 62
1, 91800, Note_on_c, 0, 84, 81
1, 91800, Note_on_c, 0, 47, 56
1, 91806, Tempo, 396040
1, 91825, Tempo, 397351
1, 91844, Tempo, 401338
1, 91864, Tempo, 402685
1, 91883, Tempo, 404040
1, 91902, Tempo, 406780
1, 91920, Note_on_c, 0, 47, 0
1, 91920, Note_on_c, 0, 84, 0
1, 91920, Note_on_c, 0, 72, 0
1, 91920, Note_on_c, 0, 86, 83
1, 91920, Note_on_c, 0, 74, 62
1, 91920, Note_on_c, 0, 45, 68
1, 91921, Tempo, 408163
1, 91940, Tempo, 410959
1, 91960, Tempo, 412371
1, 92017, Tempo, 380952
1, 92040, Tempo, 493827
1, 92040, Note_on_c, 0, 45, 0
1, 92040, Note_on_c, 0, 74, 0
1, 92040, Note_on_c, 0, 86, 0
1, 92040, Note_on_c, 0, 75, 63
1, 92040, Note_on_c, 0, 87, 84
1, 92040, Note_on_c, 0, 35, 54
1, 92143, Control_c, 0, 64, 0
1, 92160, Tempo, 405405
1, 92160, Note_on_c, 0, 35, 0
1, 92160, Note_on_c, 0, 87, 0
1, 92160, Note_on_c, 0, 75, 0
1, 92160, Note_on_c, 0, 80, 84
1, 92160, Note_on_c, 0, 83, 84
1, 92160, Note_on_c, 0, 76, 84
1, 92160, Note_on_c, 0, 40, 79
1, 92160, Note_on_c, 0, 32, 62
1, 92160, Note_on_c, 0, 35, 71
1, 92160, Note_on_c, 0, 28, 59
1, 92165, Note_on_c, 0, 88, 84
1, 92169, Control_c, 0, 64, 0
1, 92280, Tempo, 382166
1, 92280, Note_on_c, 0, 35, 0
1, 92280, Note_on_c, 0, 100, 83
1, 92280, Note_on_c, 0, 35, 75
1, 92340, Control_c, 0, 64, 127
1, 92400, Tempo, 366972
1, 92400, Note_on_c, 0, 100, 0
1, 92400, Note_on_c, 0, 95, 78
1, 92400, Note_on_c, 0, 44, 78
1, 92520, Note_on_c, 0, 44, 0
1, 92520, Note_on_c, 0, 95, 0
1, 92520, Note_on_c, 0, 92, 75
1, 92520, Note_on_c, 0, 47, 75
1, 92640, Tempo, 366972
1, 92640, Note_on_c, 0, 47, 0
1, 92640, Note_on_c, 0, 92, 0
1, 92640, Note_on_c, 0, 83, 82
1, 92640, Note_on_c, 0, 52, 83
1, 92647, Tempo, 365854
1, 92760, Note_on_c, 0, 52, 0
1, 92760, Note_on_c, 0, 83, 0
1, 92760, Note_on_c, 0, 88, 73
1, 92760, Note_on_c, 0, 47, 75
1, 92880, Note_on_c, 0, 47, 0
1, 92880, Note_on_c, 0, 88, 0
1, 92880, Note_on_c, 0, 83, 78
1, 92880, Note_on_c, 0, 56, 78
1, 92911, Tempo, 366972
1, 93000, Note_on_c, 0, 56, 0
1, 93000, Note_on_c, 0, 83, 0
1, 93000, Note_on_c, 0, 80, 70
1, 93000, Note_on_c, 0, 59, 75
1, 93120, Note_on_c, 0, 59, 0
1, 93120, Note_on_c, 0, 80, 0
1, 93120, Note_on_c, 0, 71, 64
1, 93120, Note_on_c, 0, 64, 84
1, 93151, Tempo, 368098
1, 93240, Note_on_c, 0, 64, 0
1, 93240, Note_on_c, 0, 71, 0
1, 93240, Note_on_c, 0, 80, 75
1, 93240, Note_on_c, 0, 59, 73
1, 93360, Note_on_c, 0, 59, 0
1, 93360, Note_on_c, 0, 80, 0
1, 93360, Note_on_c, 0, 83, 70
1, 93360, Note_on_c, 0, 68, 79
1, 93391, Tempo, 369231
1, 93480, Note_on_c, 0, 68, 0
1, 93480, Note_on_c, 0, 83, 0
1, 93480, Note_on_c, 0, 88, 70
1, 93480, Note_on_c, 0, 71, 73
1, 93600, Note_on_c, 0, 71, 0
1, 93600, Note_on_c, 0, 80, 0
1, 93600, Note_on_c, 0, 35, 0
1, 93600, Note_on_c, 0, 88, 0
1, 93600, Note_on_c, 0, 32, 0
1, 93600, Note_on_c, 0, 83, 0
1, 93600, Note_on_c, 0, 40, 0
1, 93600, Note_on_c, 0, 76, 0
1, 93600, Note_on_c, 0, 28, 0
1, 93600, Note_on_c, 0, 83, 85
1, 93600, Note_on_c, 0, 76, 85
1, 93605, Note_on_c, 0, 88, 0
1, 93631, Tempo, 370370
1, 93720, Note_on_c, 0, 76, 0
1, 93720, Note_on_c, 0, 83, 0
1, 93720, Note_on_c, 0, 80, 62
1, 93720, Note_on_c, 0, 71, 73
1, 93840, Note_on_c, 0, 71, 0
1, 93840, Note_on_c, 0, 80, 0
1, 93840, Note_on_c, 0, 76, 70
1, 93840, Note_on_c, 0, 68, 79
1, 93871, Tempo, 371517
1, 93960, Tempo, 412371
1, 93960, Note_on_c, 0, 68, 0
1, 93960, Note_on_c, 0, 76, 0
1, 93960, Note_on_c, 0, 78, 64
1, 93960, Note_on_c, 0, 59, 71
1, 94037, Tempo, 387097
1, 94061, Tempo, 385852
1, 94080, Note_on_c, 0, 59, 0
1, 94080, Note_on_c, 0, 78, 0
1, 94080, Note_on_c, 0, 68, 90
1, 94080, Note_on_c, 0, 80, 90
1, 94080, Note_on_c, 0, 64, 84
1, 94085, Tempo, 384615
1, 94109, Tempo, 383387
1, 94133, Tempo, 382166
1, 94157, Tempo, 380952
1, 94181, Tempo, 379747
1, 94200, Note_on_c, 0, 64, 0
1, 94200, Note_on_c, 0, 80, 0
1, 94200, Note_on_c, 0, 68, 0
1, 94200, Note_on_c, 0, 69, 57
1, 94200, Note_on_c, 0, 81, 77
1, 94200, Note_on_c, 0, 59, 71
1, 94205, Tempo, 378549
1, 94229, Tempo, 383387
1, 94253, Tempo, 385852
1, 94277, Tempo, 389610
1, 94301, Tempo, 393443
1, 94320, Note_on_c, 0, 59, 0
1, 94320, Note_on_c, 0, 81, 0
1, 94320, Note_on_c, 0, 69, 0
1, 94320, Note_on_c, 0, 83, 78
1, 94320, Note_on_c, 0, 71, 59
1, 94320, Note_on_c, 0, 56, 78
1, 94325, Tempo, 396040
1, 94349, Tempo, 400000
1, 94373, Tempo, 404040
1, 94397, Tempo, 406780
1, 94421, Tempo, 410959
1, 94440, Note_on_c, 0, 56, 0
1, 94440, Note_on_c, 0, 71, 0
1, 94440, Note_on_c, 0, 83, 0
1, 94440, Note_on_c, 0, 72, 62
1, 94440, Note_on_c, 0, 84, 83
1, 94440, Note_on_c, 0, 47, 70
1, 94445, Tempo, 415225
1, 94469, Tempo, 418118
1, 94493, Tempo, 422535
1, 94517, Tempo, 427046
1, 94541, Tempo, 430108
1, 94560, Note_on_c, 0, 47, 0
1, 94560, Note_on_c, 0, 84, 0
1, 94560, Note_on_c, 0, 72, 0
1, 94560, Note_on_c, 0, 74, 66
1, 94560, Note_on_c, 0, 86, 83
1, 94560, Note_on_c, 0, 52, 83
1, 94565, Tempo, 434783
1, 94589, Tempo, 431655
1, 94613, Tempo, 433213
1, 94637, Tempo, 434783
1, 94661, Tempo, 436364
1, 94680, Note_on_c, 0, 52, 0
1, 94680, Note_on_c, 0, 86, 0
1, 94680, Note_on_c, 0, 74, 0
1, 94680, Note_on_c, 0, 88, 90
1, 94680, Note_on_c, 0, 76, 69
1, 94680, Note_on_c, 0, 47, 62
1, 94685, Tempo, 437956
1, 94709, Tempo, 439560
1, 94733, Tempo, 441176
1, 94757, Tempo, 442804
1, 94781, Tempo, 444444
1, 94800, Note_on_c, 0, 47, 0
1, 94800, Note_on_c, 0, 76, 0
1, 94800, Note_on_c, 0, 88, 0
1, 94800, Note_on_c, 0, 90, 92
1, 94800, Note_on_c, 0, 78, 69
1, 94800, Note_on_c, 0, 44, 75
1, 94805, Tempo, 446097
1, 94829, Tempo, 447761
1, 94853, Tempo, 451128
1, 94920, Tempo, 493827
1, 94920, Note_on_c, 0, 44, 0
1, 94920, Note_on_c, 0, 78, 0
1, 94920, Note_on_c, 0, 90, 0
1, 94920, Note_on_c, 0, 80, 70
1, 94920, Note_on_c, 0, 92, 93
1, 94920, Note_on_c, 0, 35, 60
1, 95023, Control_c, 0, 64, 0
1, 95040, Tempo, 405405
1, 95040, Note_on_c, 0, 35, 0
1, 95040, Note_on_c, 0, 92, 0
1, 95040, Note_on_c, 0, 80, 0
1, 95040, Note_on_c, 0, 86, 72
1, 95040, Note_on_c, 0, 93, 95
1, 95040, Note_on_c, 0, 89, 80
1, 95040, Note_on_c, 0, 81, 72
1, 95040, Note_on_c, 0, 38, 82
1, 95040, Note_on_c, 0, 36, 74
1, 95040, Note_on_c, 0, 26, 62
1, 95040, Note_on_c, 0, 33, 65
1, 95049, Control_c, 0, 64, 0
1, 95160, Tempo, 382166
1, 95160, Note_on_c, 0, 38, 0
1, 95160, Note_on_c, 0, 101, 85
1, 95160, Note_on_c, 0, 38, 77
1, 95220, Control_c, 0, 64, 127
1, 95280, Tempo, 366972
1, 95280, Note_on_c, 0, 101, 0
1, 95280, Note_on_c, 0, 96, 81
1, 95280, Note_on_c, 0, 45, 81
1, 95400, Note_on_c, 0, 45, 0
1, 95400, Note_on_c, 0, 96, 0
1, 95400, Note_on_c, 0, 93, 77
1, 95400, Note_on_c, 0, 48, 77
1, 95503, Tempo, 366972
1, 95520, Note_on_c, 0, 48, 0
1, 95520, Note_on_c, 0, 93, 0
1, 95520, Note_on_c, 0, 86, 84
1, 95520, Note_on_c, 0, 53, 86
1, 95640, Note_on_c, 0, 53, 0
1, 95640, Note_on_c, 0, 86, 0
1, 95640, Note_on_c, 0, 89, 75
1, 95640, Note_on_c, 0, 50, 77
1, 95695, Tempo, 368098
1, 95760, Note_on_c, 0, 50, 0
1, 95760, Note_on_c, 0, 89, 0
1, 95760, Note_on_c, 0, 84, 80
1, 95760, Note_on_c, 0, 57, 81
1, 95880, Note_on_c, 0, 57, 0
1, 95880, Note_on_c, 0, 84, 0
1, 95880, Note_on_c, 0, 81, 73
1, 95880, Note_on_c, 0, 60, 78
1, 95887, Tempo, 369231
1, 96000, Note_on_c, 0, 60, 0
1, 96000, Note_on_c, 0, 81, 0
1, 96000, Note_on_c, 0, 74, 68
1, 96000, Note_on_c, 0, 65, 87
1, 96079, Tempo, 370370
1, 96120, Note_on_c, 0, 65, 0
1, 96120, Note_on_c, 0, 74, 0
1, 96120, Note_on_c, 0, 81, 78
1, 96120, Note_on_c, 0, 62, 76
1, 96240, Note_on_c, 0, 62, 0
1, 96240, Note_on_c, 0, 81, 0
1, 96240, Note_on_c, 0, 84, 72
1, 96240, Note_on_c, 0, 69, 83
1, 96271, Tempo, 371517
1, 96360, Tempo, 439560
1, 96360, Note_on_c, 0, 69, 0
1, 96360, Note_on_c, 0, 84, 0
1, 96360, Note_on_c, 0, 89, 72
1, 96360, Note_on_c, 0, 72, 69
1, 96480, Tempo, 422535
1, 96480, Note_on_c, 0, 72, 0
1, 96480, Note_on_c, 0, 33, 0
1, 96480, Note_on_c, 0, 38, 0
1, 96480, Note_on_c, 0, 81, 0
1, 96480, Note_on_c, 0, 36, 0
1, 96480, Note_on_c, 0, 93, 0
1, 96480, Note_on_c, 0, 86, 0
1, 96480, Note_on_c, 0, 89, 0
1, 96480, Note_on_c, 0, 26, 0
1, 96480, Note_on_c, 0, 89, 0
1, 96480, Note_on_c, 0, 83, 67
1, 96480, Note_on_c, 0, 77, 80
1, 96480, Control_c, 0, 64, 0
1, 96485, Tempo, 379747
1, 96509, Tempo, 378549
1, 96533, Tempo, 377358
1, 96547, Control_c, 0, 64, 127
1, 96557, Tempo, 376176
1, 96600, Note_on_c, 0, 77, 0
1, 96600, Note_on_c, 0, 83, 0
1, 96600, Note_on_c, 0, 84, 62
1, 96600, Note_on_c, 0, 71, 68
1, 96605, Tempo, 375000
1, 96629, Tempo, 373832
1, 96653, Tempo, 372671
1, 96677, Tempo, 371517
1, 96720, Note_on_c, 0, 71, 0
1, 96720, Note_on_c, 0, 84, 0
1, 96720, Note_on_c, 0, 83, 69
1, 96720, Note_on_c, 0, 71, 38
1, 96720, Note_on_c, 0, 77, 49
1, 96720, Note_on_c, 0, 67, 75
1, 96725, Tempo, 370370
1, 96749, Tempo, 369231
1, 96773, Tempo, 368098
1, 96797, Tempo, 366972
1, 96840, Note_on_c, 0, 67, 0
1, 96840, Note_on_c, 0, 83, 0
1, 96840, Note_on_c, 0, 71, 0
1, 96840, Note_on_c, 0, 77, 0
1, 96840, Note_on_c, 0, 84, 68
1, 96840, Note_on_c, 0, 62, 68
1, 96845, Tempo, 365854
1, 96869, Tempo, 364742
1, 96893, Tempo, 363636
1, 96917, Tempo, 362538
1, 96960, Note_on_c, 0, 62, 0
1, 96960, Note_on_c, 0, 84, 0
1, 96960, Note_on_c, 0, 77, 51
1, 96960, Note_on_c, 0, 83, 72
1, 96960, Note_on_c, 0, 71, 40
1, 96960, Note_on_c, 0, 65, 79
1, 97080, Note_on_c, 0, 71, 0
1, 97080, Note_on_c, 0, 77, 0
1, 97080, Note_on_c, 0, 83, 0
1, 97080, Note_on_c, 0, 84, 68
1, 97080, Note_on_c, 0, 59, 69
1, 97200, Note_on_c, 0, 59, 0
1, 97200, Note_on_c, 0, 84, 0
1, 97200, Note_on_c, 0, 77, 53
1, 97200, Note_on_c, 0, 71, 42
1, 97200, Note_on_c, 0, 83, 74
1, 97200, Note_on_c, 0, 55, 76
1, 97320, Note_on_c, 0, 55, 0
1, 97320, Note_on_c, 0, 71, 0
1, 97320, Note_on_c, 0, 83, 0
1, 97320, Note_on_c, 0, 77, 0
1, 97320, Note_on_c, 0, 84, 70
1, 97320, Note_on_c, 0, 50, 72
1, 97349, Tempo, 361446
1, 97440, Note_on_c, 0, 50, 0
1, 97440, Note_on_c, 0, 84, 0
1, 97440, Note_on_c, 0, 65, 0
1, 97440, Note_on_c, 0, 77, 54
1, 97440, Note_on_c, 0, 71, 43
1, 97440, Note_on_c, 0, 83, 77
1, 97440, Note_on_c, 0, 53, 69
1, 97440, Note_on_c, 0, 59, 87
1, 97464, Tempo, 362538
1, 97488, Tempo, 363636
1, 97512, Tempo, 364742
1, 97520, Note_on_c, 0, 83, 0
1, 97520, Note_on_c, 0, 77, 0
1, 97520, Note_on_c, 0, 71, 0
1, 97520, Note_on_c, 0, 84, 74
1, 97536, Tempo, 365854
1, 97548, Tempo, 366972
1, 97560, Note_on_c, 0, 53, 0
1, 97560, Note_on_c, 0, 50, 73
1, 97572, Tempo, 368098
1, 97596, Tempo, 369231
1, 97600, Note_on_c, 0, 84, 0
1, 97600, Note_on_c, 0, 71, 40
1, 97600, Note_on_c, 0, 83, 73
1, 97600, Note_on_c, 0, 77, 51
1, 97620, Tempo, 370370
1, 97632, Tempo, 371517
1, 97656, Tempo, 372671
1, 97680, Tempo, 373832
1, 97680, Note_on_c, 0, 77, 0
1, 97680, Note_on_c, 0, 71, 0
1, 97680, Note_on_c, 0, 83, 0
1, 97680, Note_on_c, 0, 50, 0
1, 97680, Note_on_c, 0, 69, 64
1, 97680, Note_on_c, 0, 81, 80
1, 97680, Note_on_c, 0, 43, 79
1, 97704, Tempo, 375000
1, 97716, Tempo, 376176
1, 97800, Tempo, 478088
1, 97800, Note_on_c, 0, 43, 0
1, 97800, Note_on_c, 0, 81, 0
1, 97800, Note_on_c, 0, 69, 0
1, 97800, Note_on_c, 0, 83, 76
1, 97800, Note_on_c, 0, 71, 61
1, 97800, Note_on_c, 0, 31, 71
1, 97908, Tempo, 418118
1, 97920, Tempo, 405405
1, 97920, Note_on_c, 0, 31, 0
1, 97920, Note_on_c, 0, 59, 0
1, 97920, Note_on_c, 0, 83, 0
1, 97920, Note_on_c, 0, 71, 0
1, 97920, Note_on_c, 0, 76, 79
1, 97920, Note_on_c, 0, 84, 94
1, 97920, Note_on_c, 0, 72, 79
1, 97920, Note_on_c, 0, 24, 61
1, 97920, Note_on_c, 0, 36, 81
1, 97920, Note_on_c, 0, 28, 64
1, 97920, Note_on_c, 0, 31, 73
1, 97929, Control_c, 0, 64, 0
1, 98040, Tempo, 382166
1, 98040, Note_on_c, 0, 36, 0
1, 98040, Note_on_c, 0, 100, 84
1, 98040, Note_on_c, 0, 36, 72
1, 98100, Control_c, 0, 64, 127
1, 98111, Tempo, 346821
1, 98160, Tempo, 360360
1, 98160, Note_on_c, 0, 100, 0
1, 98160, Note_on_c, 0, 96, 80
1, 98160, Note_on_c, 0, 43, 77
1, 98183, Tempo, 351906
1, 98280, Note_on_c, 0, 43, 0
1, 98280, Note_on_c, 0, 96, 0
1, 98280, Note_on_c, 0, 91, 76
1, 98280, Note_on_c, 0, 48, 72
1, 98345, Tempo, 351906
1, 98400, Note_on_c, 0, 48, 0
1, 98400, Note_on_c, 0, 91, 0
1, 98400, Note_on_c, 0, 84, 82
1, 98400, Note_on_c, 0, 52, 80
1, 98495, Tempo, 352941
1, 98520, Note_on_c, 0, 52, 0
1, 98520, Note_on_c, 0, 84, 0
1, 98520, Note_on_c, 0, 88, 73
1, 98520, Note_on_c, 0, 48, 69
1, 98615, Tempo, 353982
1, 98640, Note_on_c, 0, 48, 0
1, 98640, Note_on_c, 0, 88, 0
1, 98640, Note_on_c, 0, 84, 78
1, 98640, Note_on_c, 0, 55, 77
1, 98735, Tempo, 355030
1, 98760, Note_on_c, 0, 55, 0
1, 98760, Note_on_c, 0, 84, 0
1, 98760, Note_on_c, 0, 79, 72
1, 98760, Note_on_c, 0, 60, 69
1, 98855, Tempo, 356083
1, 98880, Note_on_c, 0, 60, 0
1, 98880, Note_on_c, 0, 79, 0
1, 98880, Note_on_c, 0, 72, 66
1, 98880, Note_on_c, 0, 64, 80
1, 99000, Note_on_c, 0, 64, 0
1, 99000, Note_on_c, 0, 72, 0
1, 99000, Note_on_c, 0, 82, 75
1, 99000, Note_on_c, 0, 60, 73
1, 99005, Tempo, 357143
1, 99120, Note_on_c, 0, 60, 0
1, 99120, Note_on_c, 0, 82, 0
1, 99120, Note_on_c, 0, 91, 69
1, 99120, Note_on_c, 0, 70, 75
1, 99125, Tempo, 358209
1, 99240, Note_on_c, 0, 70, 0
1, 99240, Note_on_c, 0, 91, 0
1, 99240, Note_on_c, 0, 90, 69
1, 99240, Note_on_c, 0, 72, 67
1, 99245, Tempo, 359281
1, 99360, Note_on_c, 0, 72, 0
1, 99360, Note_on_c, 0, 36, 0
1, 99360, Note_on_c, 0, 76, 0
1, 99360, Note_on_c, 0, 31, 0
1, 99360, Note_on_c, 0, 84, 0
1, 99360, Note_on_c, 0, 72, 0
1, 99360, Note_on_c, 0, 24, 0
1, 99360, Note_on_c, 0, 28, 0
1, 99360, Note_on_c, 0, 90, 0
1, 99360, Note_on_c, 0, 84, 77
1, 99360, Note_on_c, 0, 78, 79
1, 99365, Tempo, 360360
1, 99369, Control_c, 0, 64, 0
1, 99451, Control_c, 0, 64, 127
1, 99480, Note_on_c, 0, 78, 0
1, 99480, Note_on_c, 0, 84, 0
1, 99480, Note_on_c, 0, 79, 64
1, 99480, Note_on_c, 0, 72, 66
1, 99485, Tempo, 361446
1, 99575, Tempo, 357143
1, 99600, Tempo, 371517
1, 99600, Note_on_c, 0, 72, 0
1, 99600, Note_on_c, 0, 79, 0
1, 99600, Note_on_c, 0, 76, 69
1, 99600, Note_on_c, 0, 69, 73
1, 99641, Tempo, 371517
1, 99720, Tempo, 402685
1, 99720, Note_on_c, 0, 69, 0
1, 99720, Note_on_c, 0, 76, 0
1, 99720, Note_on_c, 0, 78, 77
1, 99720, Note_on_c, 0, 63, 66
1, 99805, Tempo, 360360
1, 99839, Tempo, 348837
1, 99840, Note_on_c, 0, 63, 0
1, 99840, Note_on_c, 0, 72, 72
1, 99840, Note_on_c, 0, 66, 75
1, 99935, Tempo, 349854
1, 99960, Note_on_c, 0, 72, 0
1, 99960, Note_on_c, 0, 69, 65
1, 99960, Note_on_c, 0, 60, 67
1, 100007, Tempo, 350877
1, 100080, Note_on_c, 0, 60, 0
1, 100080, Note_on_c, 0, 69, 0
1, 100080, Note_on_c, 0, 63, 67
1, 100080, Note_on_c, 0, 57, 66
1, 100103, Tempo, 351906
1, 100175, Tempo, 352941
1, 100200, Note_on_c, 0, 57, 0
1, 100200, Note_on_c, 0, 63, 0
1, 100200, Note_on_c, 0, 78, 0
1, 100200, Note_on_c, 0, 77, 74
1, 100200, Note_on_c, 0, 51, 64
1, 100271, Tempo, 353982
1, 100320, Note_on_c, 0, 51, 0
1, 100320, Note_on_c, 0, 66, 0
1, 100320, Note_on_c, 0, 71, 68
1, 100320, Note_on_c, 0, 65, 74
1, 100331, Control_c, 0, 64, 0
1, 100343, Tempo, 355030
1, 100411, Control_c, 0, 64, 127
1, 100439, Tempo, 356083
1, 100440, Note_on_c, 0, 71, 0
1, 100440, Note_on_c, 0, 68, 59
1, 100440, Note_on_c, 0, 59, 60
1, 100511, Tempo, 357143
1, 100560, Note_on_c, 0, 59, 0
1, 100560, Note_on_c, 0, 68, 0
1, 100560, Note_on_c, 0, 62, 67
1, 100560, Note_on_c, 0, 56, 65
1, 100583, Tempo, 358209
1, 100608, Tempo, 369231
1, 100645, Tempo, 401338
1, 100657, Tempo, 380952
1, 100680, Tempo, 406780
1, 100680, Note_on_c, 0, 56, 0
1, 100680, Note_on_c, 0, 62, 0
1, 100680, Note_on_c, 0, 77, 0
1, 100680, Note_on_c, 0, 77, 57
1, 100680, Note_on_c, 0, 50, 59
1, 100783, Control_c, 0, 64, 0
1, 100800, Tempo, 388350
1, 100800, Note_on_c, 0, 50, 0
1, 100800, Note_on_c, 0, 77, 0
1, 100800, Note_on_c, 0, 65, 0
1, 100800, Note_on_c, 0, 36, 88
1, 100800, Note_on_c, 0, 24, 70
1, 100809, Control_c, 0, 64, 0
1, 100891, Control_c, 0, 64, 127
1, 100920, Tempo, 368098
1, 100920, Note_on_c, 0, 36, 0
1, 100920, Note_on_c, 0, 100, 79
1, 100920, Note_on_c, 0, 36, 65
1, 101020, Tempo, 349854
1, 101040, Note_on_c, 0, 100, 0
1, 101040, Note_on_c, 0, 96, 75
1, 101040, Note_on_c, 0, 43, 71
1, 101160, Note_on_c, 0, 43, 0
1, 101160, Note_on_c, 0, 96, 0
1, 101160, Note_on_c, 0, 91, 71
1, 101160, Note_on_c, 0, 48, 65
1, 101260, Tempo, 350877
1, 101280, Note_on_c, 0, 48, 0
1, 101280, Note_on_c, 0, 91, 0
1, 101280, Note_on_c, 0, 84, 77
1, 101280, Note_on_c, 0, 52, 72
1, 101400, Note_on_c, 0, 52, 0
1, 101400, Note_on_c, 0, 84, 0
1, 101400, Note_on_c, 0, 88, 70
1, 101400, Note_on_c, 0, 48, 68
1, 101470, Tempo, 351906
1, 101520, Note_on_c, 0, 48, 0
1, 101520, Note_on_c, 0, 88, 0
1, 101520, Note_on_c, 0, 84, 74
1, 101520, Note_on_c, 0, 55, 74
1, 101640, Note_on_c, 0, 55, 0
1, 101640, Note_on_c, 0, 84, 0
1, 101640, Note_on_c, 0, 79, 68
1, 101640, Note_on_c, 0, 60, 67
1, 101710, Tempo, 352941
1, 101760, Note_on_c, 0, 60, 0
1, 101760, Note_on_c, 0, 79, 0
1, 101760, Note_on_c, 0, 72, 62
1, 101760, Note_on_c, 0, 64, 74
1, 101880, Note_on_c, 0, 64, 0
1, 101880, Note_on_c, 0, 72, 0
1, 101880, Note_on_c, 0, 79, 72
1, 101880, Note_on_c, 0, 60, 66
1, 101920, Tempo, 353982
1, 102000, Note_on_c, 0, 60, 0
1, 102000, Note_on_c, 0, 79, 0
1, 102000, Note_on_c, 0, 84, 65
1, 102000, Note_on_c, 0, 67, 69
1, 102120, Note_on_c, 0, 67, 0
1, 102120, Note_on_c, 0, 84, 0
1, 102120, Note_on_c, 0, 87, 65
1, 102120, Note_on_c, 0, 72, 64
1, 102130, Tempo, 355030
1, 102167, Tempo, 357143
1, 102239, Tempo, 343840
1, 102240, Tempo, 358209
1, 102240, Note_on_c, 0, 72, 0
1, 102240, Note_on_c, 0, 24, 0
1, 102240, Note_on_c, 0, 36, 0
1, 102240, Note_on_c, 0, 87, 0
1, 102240, Note_on_c, 0, 84, 73
1, 102240, Note_on_c, 0, 75, 74
1, 102249, Control_c, 0, 64, 0
1, 102263, Tempo, 345821
1, 102331, Control_c, 0, 64, 127
1, 102360, Note_on_c, 0, 75, 0
1, 102360, Note_on_c, 0, 84, 0
1, 102360, Note_on_c, 0, 78, 60
1, 102360, Note_on_c, 0, 69, 63
1, 102480, Note_on_c, 0, 69, 0
1, 102480, Note_on_c, 0, 78, 0
1, 102480, Note_on_c, 0, 72, 65
1, 102480, Note_on_c, 0, 66, 69
1, 102504, Tempo, 368098
1, 102521, Tempo, 371517
1, 102600, Tempo, 402685
1, 102600, Note_on_c, 0, 66, 0
1, 102600, Note_on_c, 0, 72, 0
1, 102600, Note_on_c, 0, 75, 73
1, 102600, Note_on_c, 0, 60, 62
1, 102685, Tempo, 360360
1, 102696, Tempo, 360360
1, 102719, Tempo, 347826
1, 102720, Note_on_c, 0, 60, 0
1, 102720, Note_on_c, 0, 69, 68
1, 102720, Note_on_c, 0, 63, 73
1, 102791, Tempo, 348837
1, 102839, Tempo, 349854
1, 102840, Note_on_c, 0, 69, 0
1, 102840, Note_on_c, 0, 66, 61
1, 102840, Note_on_c, 0, 57, 60
1, 102887, Tempo, 350877
1, 102935, Tempo, 351906
1, 102960, Note_on_c, 0, 57, 0
1, 102960, Note_on_c, 0, 66, 0
1, 102960, Note_on_c, 0, 60, 63
1, 102960, Note_on_c, 0, 54, 66
1, 102983, Tempo, 352941
1, 103031, Tempo, 353982
1, 103079, Tempo, 355030
1, 103080, Note_on_c, 0, 54, 0
1, 103080, Note_on_c, 0, 60, 0
1, 103080, Note_on_c, 0, 75, 0
1, 103080, Note_on_c, 0, 74, 70
1, 103080, Note_on_c, 0, 48, 60
1, 103127, Tempo, 356083
1, 103175, Tempo, 357143
1, 103199, Tempo, 358209
1, 103200, Note_on_c, 0, 48, 0
1, 103200, Note_on_c, 0, 63, 0
1, 103200, Note_on_c, 0, 68, 63
1, 103200, Note_on_c, 0, 62, 69
1, 103207, Control_c, 0, 64, 0
1, 103223, Tempo, 359281
1, 103247, Tempo, 360360
1, 103268, Control_c, 0, 64, 127
1, 103271, Tempo, 362538
1, 103295, Tempo, 363636
1, 103319, Tempo, 364742
1, 103320, Note_on_c, 0, 68, 0
1, 103320, Note_on_c, 0, 65, 59
1, 103320, Note_on_c, 0, 56, 69
1, 103343, Tempo, 366972
1, 103367, Tempo, 368098
1, 103391, Tempo, 369231
1, 103415, Tempo, 371517
1, 103439, Tempo, 372671
1, 103440, Note_on_c, 0, 56, 0
1, 103440, Note_on_c, 0, 65, 0
1, 103440, Note_on_c, 0, 59, 63
1, 103440, Note_on_c, 0, 53, 61
1, 103463, Tempo, 373832
1, 103487, Tempo, 376176
1, 103488, Tempo, 378549
1, 103512, Tempo, 379747
1, 103525, Tempo, 401338
1, 103537, Tempo, 380952
1, 103560, Tempo, 413793
1, 103560, Note_on_c, 0, 53, 0
1, 103560, Note_on_c, 0, 59, 0
1, 103560, Note_on_c, 0, 74, 0
1, 103560, Note_on_c, 0, 74, 58
1, 103560, Note_on_c, 0, 47, 55
1, 103663, Control_c, 0, 64, 0
1, 103680, Tempo, 389610
1, 103680, Note_on_c, 0, 47, 0
1, 103680, Note_on_c, 0, 74, 0
1, 103680, Note_on_c, 0, 62, 0
1, 103680, Note_on_c, 0, 31, 76
1, 103680, Note_on_c, 0, 43, 91
1, 103689, Control_c, 0, 64, 0
1, 103771, Control_c, 0, 64, 127
1, 103800, Tempo, 373832
1, 103800, Note_on_c, 0, 97, 75
1, 103800, Note_on_c, 0, 34, 68
1, 103920, Tempo, 366972
1, 103920, Note_on_c, 0, 34, 0
1, 103920, Note_on_c, 0, 97, 0
1, 103920, Note_on_c, 0, 91, 71
1, 103920, Note_on_c, 0, 40, 71
1, 103930, Tempo, 342857
1, 104040, Note_on_c, 0, 40, 0
1, 104040, Note_on_c, 0, 91, 0
1, 104040, Note_on_c, 0, 43, 0
1, 104040, Note_on_c, 0, 88, 67
1, 104040, Note_on_c, 0, 43, 67
1, 104110, Tempo, 343840
1, 104160, Note_on_c, 0, 88, 0
1, 104160, Note_on_c, 0, 82, 74
1, 104160, Note_on_c, 0, 49, 76
1, 104280, Note_on_c, 0, 49, 0
1, 104280, Note_on_c, 0, 82, 0
1, 104280, Note_on_c, 0, 85, 66
1, 104280, Note_on_c, 0, 46, 68
1, 104290, Tempo, 344828
1, 104400, Note_on_c, 0, 46, 0
1, 104400, Note_on_c, 0, 85, 0
1, 104400, Note_on_c, 0, 79, 71
1, 104400, Note_on_c, 0, 52, 71
1, 104440, Tempo, 345821
1, 104520, Note_on_c, 0, 52, 0
1, 104520, Note_on_c, 0, 79, 0
1, 104520, Note_on_c, 0, 76, 63
1, 104520, Note_on_c, 0, 55, 69
1, 104620, Tempo, 346821
1, 104640, Note_on_c, 0, 55, 0
1, 104640, Note_on_c, 0, 76, 0
1, 104640, Note_on_c, 0, 70, 59
1, 104640, Note_on_c, 0, 61, 75
1, 104760, Note_on_c, 0, 61, 0
1, 104760, Note_on_c, 0, 70, 0
1, 104760, Note_on_c, 0, 76, 68
1, 104760, Note_on_c, 0, 58, 66
1, 104800, Tempo, 347826
1, 104880, Note_on_c, 0, 58, 0
1, 104880, Note_on_c, 0, 76, 0
1, 104880, Note_on_c, 0, 79, 62
1, 104880, Note_on_c, 0, 64, 67
1, 104950, Tempo, 348837
1, 105000, Note_on_c, 0, 64, 0
1, 105000, Note_on_c, 0, 79, 0
1, 105000, Note_on_c, 0, 85, 62
1, 105000, Note_on_c, 0, 67, 61
1, 105120, Note_on_c, 0, 67, 0
1, 105120, Note_on_c, 0, 31, 0
1, 105120, Note_on_c, 0, 43, 0
1, 105120, Note_on_c, 0, 85, 0
1, 105120, Note_on_c, 0, 78, 69
1, 105120, Note_on_c, 0, 73, 72
1, 105129, Control_c, 0, 64, 0
1, 105130, Tempo, 349854
1, 105211, Control_c, 0, 64, 127
1, 105240, Note_on_c, 0, 73, 0
1, 105240, Note_on_c, 0, 78, 0
1, 105240, Note_on_c, 0, 75, 57
1, 105240, Note_on_c, 0, 66, 60
1, 105280, Tempo, 350877
1, 105305, Tempo, 347826
1, 105360, Note_on_c, 0, 66, 0
1, 105360, Note_on_c, 0, 75, 0
1, 105360, Note_on_c, 0, 69, 62
1, 105360, Note_on_c, 0, 63, 65
1, 105397, Tempo, 345821
1, 105431, Tempo, 356083
1, 105456, Tempo, 365854
1, 105480, Tempo, 402685
1, 105480, Note_on_c, 0, 63, 0
1, 105480, Note_on_c, 0, 69, 0
1, 105480, Note_on_c, 0, 73, 70
1, 105480, Note_on_c, 0, 57, 59
1, 105565, Tempo, 360360
1, 105589, Tempo, 340909
1, 105600, Note_on_c, 0, 57, 0
1, 105600, Note_on_c, 0, 66, 61
1, 105600, Note_on_c, 0, 61, 69
1, 105661, Tempo, 341880
1, 105720, Note_on_c, 0, 66, 0
1, 105720, Note_on_c, 0, 63, 54
1, 105720, Note_on_c, 0, 54, 59
1, 105733, Tempo, 342857
1, 105781, Tempo, 343840
1, 105840, Note_on_c, 0, 54, 0
1, 105840, Note_on_c, 0, 63, 0
1, 105840, Note_on_c, 0, 57, 54
1, 105840, Note_on_c, 0, 51, 65
1, 105853, Tempo, 344828
1, 105925, Tempo, 345821
1, 105960, Note_on_c, 0, 51, 0
1, 105960, Note_on_c, 0, 57, 0
1, 105960, Note_on_c, 0, 73, 0
1, 105960, Note_on_c, 0, 72, 65
1, 105960, Note_on_c, 0, 45, 60
1, 105973, Tempo, 346821
1, 106045, Tempo, 347826
1, 106080, Note_on_c, 0, 45, 0
1, 106080, Note_on_c, 0, 61, 0
1, 106080, Note_on_c, 0, 66, 60
1, 106080, Note_on_c, 0, 60, 68
1, 106091, Control_c, 0, 64, 0
1, 106117, Tempo, 348837
1, 106154, Control_c, 0, 64, 127
1, 106165, Tempo, 349854
1, 106200, Note_on_c, 0, 66, 0
1, 106200, Note_on_c, 0, 63, 53
1, 106200, Note_on_c, 0, 54, 59
1, 106237, Tempo, 350877
1, 106285, Tempo, 351906
1, 106295, Tempo, 359281
1, 106320, Note_on_c, 0, 54, 0
1, 106320, Note_on_c, 0, 63, 0
1, 106320, Note_on_c, 0, 57, 57
1, 106320, Note_on_c, 0, 51, 63
1, 106343, Tempo, 360360
1, 106368, Tempo, 370370
1, 106381, Tempo, 398671
1, 106405, Tempo, 401338
1, 106417, Tempo, 380952
1, 106440, Tempo, 431655
1, 106440, Note_on_c, 0, 51, 0
1, 106440, Note_on_c, 0, 57, 0
1, 106440, Note_on_c, 0, 72, 0
1, 106440, Note_on_c, 0, 72, 52
1, 106440, Note_on_c, 0, 45, 57
1, 106543, Control_c, 0, 64, 0
1, 106560, Tempo, 392157
1, 106560, Note_on_c, 0, 45, 0
1, 106560, Note_on_c, 0, 72, 0
1, 106560, Note_on_c, 0, 60, 0
1, 106560, Note_on_c, 0, 31, 72
1, 106560, Note_on_c, 0, 43, 85
1, 106569, Control_c, 0, 64, 0
1, 106651, Control_c, 0, 64, 127
1, 106680, Tempo, 376176
1, 106680, Note_on_c, 0, 96, 71
1, 106680, Note_on_c, 0, 32, 64
1, 106727, Tempo, 338983
1, 106750, Tempo, 338028
1, 106800, Note_on_c, 0, 32, 0
1, 106800, Note_on_c, 0, 96, 0
1, 106800, Note_on_c, 0, 89, 68
1, 106800, Note_on_c, 0, 38, 68
1, 106920, Note_on_c, 0, 38, 0
1, 106920, Note_on_c, 0, 89, 0
1, 106920, Note_on_c, 0, 86, 66
1, 106920, Note_on_c, 0, 41, 66
1, 106930, Tempo, 338983
1, 107040, Note_on_c, 0, 41, 0
1, 107040, Note_on_c, 0, 86, 0
1, 107040, Note_on_c, 0, 80, 73
1, 107040, Note_on_c, 0, 48, 74
1, 107080, Tempo, 339943
1, 107160, Note_on_c, 0, 48, 0
1, 107160, Note_on_c, 0, 80, 0
1, 107160, Note_on_c, 0, 84, 66
1, 107160, Note_on_c, 0, 44, 68
1, 107230, Tempo, 340909
1, 107280, Note_on_c, 0, 44, 0
1, 107280, Note_on_c, 0, 84, 0
1, 107280, Note_on_c, 0, 77, 72
1, 107280, Note_on_c, 0, 50, 72
1, 107380, Tempo, 341880
1, 107400, Note_on_c, 0, 50, 0
1, 107400, Note_on_c, 0, 77, 0
1, 107400, Note_on_c, 0, 74, 65
1, 107400, Note_on_c, 0, 53, 69
1, 107520, Note_on_c, 0, 53, 0
1, 107520, Note_on_c, 0, 74, 0
1, 107520, Note_on_c, 0, 68, 62
1, 107520, Note_on_c, 0, 60, 79
1, 107560, Tempo, 342857
1, 107640, Note_on_c, 0, 60, 0
1, 107640, Note_on_c, 0, 68, 0
1, 107640, Note_on_c, 0, 74, 72
1, 107640, Note_on_c, 0, 56, 69
1, 107710, Tempo, 343840
1, 107760, Note_on_c, 0, 56, 0
1, 107760, Note_on_c, 0, 74, 0
1, 107760, Note_on_c, 0, 77, 67
1, 107760, Note_on_c, 0, 62, 73
1, 107860, Tempo, 344828
1, 107880, Note_on_c, 0, 62, 0
1, 107880, Note_on_c, 0, 77, 0
1, 107880, Note_on_c, 0, 84, 68
1, 107880, Note_on_c, 0, 65, 66
1, 108000, Note_on_c, 0, 65, 0
1, 108000, Note_on_c, 0, 31, 0
1, 108000, Note_on_c, 0, 43, 0
1, 108000, Note_on_c, 0, 84, 0
1, 108000, Note_on_c, 0, 77, 77
1, 108000, Note_on_c, 0, 72, 81
1, 108009, Control_c, 0, 64, 0
1, 108010, Tempo, 345821
1, 108091, Control_c, 0, 64, 127
1, 108120, Note_on_c, 0, 72, 0
1, 108120, Note_on_c, 0, 77, 0
1, 108120, Note_on_c, 0, 74, 63
1, 108120, Note_on_c, 0, 65, 67
1, 108160, Tempo, 346821
1, 108229, Tempo, 348837
1, 108239, Tempo, 355030
1, 108240, Note_on_c, 0, 65, 0
1, 108240, Note_on_c, 0, 74, 0
1, 108240, Note_on_c, 0, 68, 70
1, 108240, Note_on_c, 0, 62, 74
1, 108311, Tempo, 356083
1, 108312, Tempo, 364742
1, 108360, Tempo, 402685
1, 108360, Note_on_c, 0, 62, 0
1, 108360, Note_on_c, 0, 68, 0
1, 108360, Note_on_c, 0, 72, 78
1, 108360, Note_on_c, 0, 56, 68
1, 108445, Tempo, 360360
1, 108479, Tempo, 356083
1, 108480, Note_on_c, 0, 56, 0
1, 108480, Note_on_c, 0, 65, 74
1, 108480, Note_on_c, 0, 60, 82
1, 108517, Tempo, 347826
1, 108565, Tempo, 348837
1, 108589, Tempo, 349854
1, 108600, Note_on_c, 0, 65, 0
1, 108600, Note_on_c, 0, 62, 69
1, 108600, Note_on_c, 0, 53, 68
1, 108613, Tempo, 350877
1, 108637, Tempo, 351906
1, 108661, Tempo, 352941
1, 108709, Tempo, 353982
1, 108720, Note_on_c, 0, 53, 0
1, 108720, Note_on_c, 0, 62, 0
1, 108720, Note_on_c, 0, 56, 72
1, 108720, Note_on_c, 0, 50, 75
1, 108733, Tempo, 355030
1, 108757, Tempo, 356083
1, 108781, Tempo, 357143
1, 108805, Tempo, 358209
1, 108840, Note_on_c, 0, 50, 0
1, 108840, Note_on_c, 0, 56, 0
1, 108840, Note_on_c, 0, 72, 0
1, 108840, Note_on_c, 0, 71, 84
1, 108840, Note_on_c, 0, 44, 69
1, 108853, Tempo, 359281
1, 108877, Tempo, 360360
1, 108901, Tempo, 361446
1, 108905, Tempo, 364742
1, 108935, Tempo, 366972
1, 108960, Note_on_c, 0, 44, 0
1, 108960, Note_on_c, 0, 60, 0
1, 108960, Note_on_c, 0, 65, 77
1, 108960, Note_on_c, 0, 59, 82
1, 108965, Tempo, 370370
1, 108968, Control_c, 0, 64, 0
1, 108995, Tempo, 373832
1, 109023, Control_c, 0, 64, 127
1, 109025, Tempo, 376176
1, 109055, Tempo, 379747
1, 109080, Note_on_c, 0, 65, 0
1, 109080, Note_on_c, 0, 62, 80
1, 109080, Note_on_c, 0, 53, 65
1, 109085, Tempo, 383387
1, 109115, Tempo, 385852
1, 109145, Tempo, 389610
1, 109175, Tempo, 388350
1, 109200, Note_on_c, 0, 53, 0
1, 109200, Note_on_c, 0, 62, 0
1, 109200, Note_on_c, 0, 55, 84
1, 109200, Note_on_c, 0, 50, 79
1, 109285, Tempo, 401338
1, 109297, Tempo, 380952
1, 109320, Tempo, 493827
1, 109320, Note_on_c, 0, 50, 0
1, 109320, Note_on_c, 0, 55, 0
1, 109320, Note_on_c, 0, 71, 0
1, 109320, Note_on_c, 0, 71, 87
1, 109320, Note_on_c, 0, 43, 84
1, 109423, Control_c, 0, 64, 0
1, 109440, Tempo, 405405
1, 109440, Note_on_c, 0, 43, 0
1, 109440, Note_on_c, 0, 71, 0
1, 109440, Note_on_c, 0, 59, 0
1, 109440, Note_on_c, 0, 36, 98
1, 109440, Note_on_c, 0, 24, 83
1, 109449, Control_c, 0, 64, 0
1, 109531, Control_c, 0, 64, 127
1, 109560, Tempo, 382166
1, 109560, Note_on_c, 0, 96, 85
1, 109560, Note_on_c, 0, 31, 77
1, 109680, Tempo, 366972
1, 109680, Note_on_c, 0, 31, 0
1, 109680, Note_on_c, 0, 96, 0
1, 109680, Note_on_c, 0, 91, 82
1, 109680, Note_on_c, 0, 40, 82
1, 109693, Tempo, 349854
1, 109800, Note_on_c, 0, 40, 0
1, 109800, Note_on_c, 0, 91, 0
1, 109800, Note_on_c, 0, 88, 77
1, 109800, Note_on_c, 0, 43, 77
1, 109813, Tempo, 348837
1, 109909, Tempo, 347826
1, 109920, Note_on_c, 0, 43, 0
1, 109920, Note_on_c, 0, 88, 0
1, 109920, Note_on_c, 0, 79, 83
1, 109920, Note_on_c, 0, 48, 83
1, 110005, Tempo, 346821
1, 110040, Note_on_c, 0, 48, 0
1, 110040, Note_on_c, 0, 79, 0
1, 110040, Note_on_c, 0, 84, 76
1, 110040, Note_on_c, 0, 43, 77
1, 110101, Tempo, 345821
1, 110160, Note_on_c, 0, 43, 0
1, 110160, Note_on_c, 0, 84, 0
1, 110160, Note_on_c, 0, 79, 81
1, 110160, Note_on_c, 0, 52, 82
1, 110197, Tempo, 344828
1, 110280, Note_on_c, 0, 52, 0
1, 110280, Note_on_c, 0, 79, 0
1, 110280, Note_on_c, 0, 76, 74
1, 110280, Note_on_c, 0, 55, 78
1, 110293, Tempo, 343840
1, 110389, Tempo, 342857
1, 110400, Note_on_c, 0, 55, 0
1, 110400, Note_on_c, 0, 76, 0
1, 110400, Note_on_c, 0, 67, 68
1, 110400, Note_on_c, 0, 60, 88
1, 110437, Tempo, 343840
1, 110485, Tempo, 344828
1, 110520, Note_on_c, 0, 60, 0
1, 110520, Note_on_c, 0, 67, 0
1, 110520, Note_on_c, 0, 76, 78
1, 110520, Note_on_c, 0, 55, 76
1, 110533, Tempo, 345821
1, 110581, Tempo, 346821
1, 110629, Tempo, 347826
1, 110640, Note_on_c, 0, 55, 0
1, 110640, Note_on_c, 0, 76, 0
1, 110640, Note_on_c, 0, 79, 73
1, 110640, Note_on_c, 0, 64, 78
1, 110677, Tempo, 348837
1, 110725, Tempo, 349854
1, 110760, Note_on_c, 0, 64, 0
1, 110760, Note_on_c, 0, 79, 0
1, 110760, Note_on_c, 0, 84, 73
1, 110760, Note_on_c, 0, 67, 71
1, 110773, Tempo, 350877
1, 110821, Tempo, 351906
1, 110869, Tempo, 352941
1, 110880, Note_on_c, 0, 67, 0
1, 110880, Note_on_c, 0, 36, 0
1, 110880, Note_on_c, 0, 24, 0
1, 110880, Note_on_c, 0, 84, 0
1, 110880, Note_on_c, 0, 79, 81
1, 110880, Note_on_c, 0, 72, 85
1, 110917, Tempo, 353982
1, 110965, Tempo, 355030
1, 111000, Note_on_c, 0, 72, 0
1, 111000, Note_on_c, 0, 79, 0
1, 111000, Note_on_c, 0, 76, 66
1, 111000, Note_on_c, 0, 67, 69
1, 111013, Tempo, 356083
1, 111061, Tempo, 357143
1, 111109, Tempo, 358209
1, 111120, Note_on_c, 0, 67, 0
1, 111120, Note_on_c, 0, 76, 0
1, 111120, Note_on_c, 0, 67, 73
1, 111120, Note_on_c, 0, 64, 76
1, 111157, Tempo, 359281
1, 111189, Tempo, 361446
1, 111240, Tempo, 402685
1, 111240, Note_on_c, 0, 64, 0
1, 111240, Note_on_c, 0, 67, 0
1, 111240, Note_on_c, 0, 72, 81
1, 111240, Note_on_c, 0, 55, 69
1, 111325, Tempo, 360360
1, 111360, Note_on_c, 0, 55, 0
1, 111360, Note_on_c, 0, 72, 0
1, 111360, Note_on_c, 0, 67, 76
1, 111360, Note_on_c, 0, 60, 84
1, 111373, Tempo, 361446
1, 111397, Tempo, 362538
1, 111421, Tempo, 363636
1, 111469, Tempo, 364742
1, 111480, Note_on_c, 0, 60, 0
1, 111480, Note_on_c, 0, 67, 0
1, 111480, Note_on_c, 0, 64, 69
1, 111480, Note_on_c, 0, 55, 68
1, 111493, Tempo, 365854
1, 111517, Tempo, 366972
1, 111565, Tempo, 368098
1, 111589, Tempo, 369231
1, 111600, Note_on_c, 0, 55, 0
1, 111600, Note_on_c, 0, 64, 0
1, 111600, Note_on_c, 0, 55, 72
1, 111600, Note_on_c, 0, 52, 75
1, 111613, Tempo, 370370
1, 111661, Tempo, 371517
1, 111685, Tempo, 372671
1, 111709, Tempo, 373832
1, 111720, Note_on_c, 0, 52, 0
1, 111720, Note_on_c, 0, 55, 0
1, 111720, Note_on_c, 0, 60, 83
1, 111720, Note_on_c, 0, 43, 68
1, 111733, Tempo, 372671
1, 111735, Tempo, 373832
1, 111759, Tempo, 376176
1, 111783, Tempo, 379747
1, 111807, Tempo, 383387
1, 111831, Tempo, 387097
1, 111840, Note_on_c, 0, 43, 0
1, 111840, Note_on_c, 0, 60, 0
1, 111840, Note_on_c, 0, 55, 73
1, 111840, Note_on_c, 0, 48, 81
1, 111855, Tempo, 390879
1, 111879, Tempo, 394737
1, 111903, Tempo, 397351
1, 111927, Tempo, 401338
1, 111951, Tempo, 405405
1, 111960, Note_on_c, 0, 48, 0
1, 111960, Note_on_c, 0, 55, 0
1, 111960, Note_on_c, 0, 52, 66
1, 111960, Note_on_c, 0, 43, 63
1, 111975, Tempo, 409556
1, 111999, Tempo, 413793
1, 112023, Tempo, 418118
1, 112047, Tempo, 421053
1, 112071, Tempo, 425532
1, 112080, Note_on_c, 0, 43, 0
1, 112080, Note_on_c, 0, 52, 0
1, 112080, Note_on_c, 0, 43, 72
1, 112080, Note_on_c, 0, 40, 69
1, 112095, Tempo, 430108
1, 112119, Tempo, 434783
1, 112143, Tempo, 439560
1, 112200, Tempo, 493827
1, 112200, Note_on_c, 0, 40, 0
1, 112200, Note_on_c, 0, 43, 0
1, 112200, Note_on_c, 0, 48, 66
1, 112200, Note_on_c, 0, 31, 63
1, 112320, Note_on_c, 0, 31, 0
1, 112320, Note_on_c, 0, 48, 0
1, 112320, Note_on_c, 0, 36, 96
1, 112320, Note_on_c, 0, 24, 82
1, 113760, Note_on_c, 0, 24, 0
1, 113760, Note_on_c, 0, 36, 0
1, 114720, Control_c, 0, 64, 0
1, 114720, End_track
0, 0, End_of_file
