0, 0, Header, 1, 7, 192
1, 0, Start_track
1, 0, Title_t, "3278A"
1, 0, Copyright_t, "May NOT be used for commercial purposes."
1, 0, Text_t, "Roll expression/accent tracks, where present, converted to MIDI velocties.\012"
1, 0, Time_signature, 4, 2, 24, 8
1, 0, Key_signature, 0, "major"
1, 0, Tempo, 500000
1, 0, Marker_t, "Standard MIDI:LPI 114:Tempo  75: 08-23-2003"
1, 0, End_track
2, 0, Start_track
2, 0, Title_t, "On Wings of Song"
2, 0, Control_c, 0, 7, 115
2, 316, Note_on_c, 0, 44, 64
2, 393, Note_on_c, 0, 63, 51
2, 449, Note_on_c, 0, 68, 57
2, 491, Note_on_c, 0, 60, 49
2, 491, Note_on_c, 0, 72, 55
2, 552, Control_c, 0, 64, 127
2, 552, Note_on_c, 0, 77, 59
2, 587, Note_on_c, 0, 75, 53
2, 599, Note_on_c, 0, 63, 0
2, 641, Note_on_c, 0, 63, 53
2, 641, Note_on_c, 0, 80, 58
2, 679, Note_on_c, 0, 84, 53
2, 731, Note_on_c, 0, 89, 56
2, 738, Note_on_c, 0, 72, 0
2, 771, Note_on_c, 0, 87, 59
2, 778, Note_on_c, 0, 72, 55
2, 787, Note_on_c, 0, 84, 0
2, 822, Note_on_c, 0, 84, 53
2, 827, Note_on_c, 0, 80, 0
2, 869, Note_on_c, 0, 80, 54
2, 874, Note_on_c, 0, 77, 0
2, 912, Note_on_c, 0, 75, 0
2, 912, Note_on_c, 0, 77, 53
2, 953, Note_on_c, 0, 75, 47
2, 964, Note_on_c, 0, 72, 0
2, 1003, Note_on_c, 0, 72, 50
2, 1016, Note_on_c, 0, 68, 0
2, 1056, Note_on_c, 0, 68, 45
2, 1115, Note_on_c, 0, 65, 46
2, 1137, Note_on_c, 0, 63, 0
2, 1177, Note_on_c, 0, 63, 49
2, 1211, Control_c, 0, 67, 127
2, 1258, Note_on_c, 0, 44, 0
2, 1294, Note_on_c, 0, 89, 0
2, 1296, Note_on_c, 0, 44, 51
2, 1300, Note_on_c, 0, 72, 0
2, 1300, Note_on_c, 0, 75, 0
2, 1300, Note_on_c, 0, 80, 0
2, 1300, Note_on_c, 0, 87, 0
2, 1300, Note_on_c, 0, 84, 0
2, 1300, Note_on_c, 0, 77, 0
2, 1300, Note_on_c, 0, 65, 0
2, 1300, Note_on_c, 0, 68, 0
2, 1300, Note_on_c, 0, 60, 0
2, 1300, Note_on_c, 0, 63, 0
2, 1300, Control_c, 0, 64, 0
2, 1386, Note_on_c, 0, 63, 47
2, 1433, Note_on_c, 0, 68, 51
2, 1487, Note_on_c, 0, 72, 47
2, 1491, Note_on_c, 0, 60, 41
2, 1527, Control_c, 0, 64, 127
2, 1540, Note_on_c, 0, 77, 53
2, 1594, Note_on_c, 0, 75, 49
2, 1609, Note_on_c, 0, 63, 0
2, 1652, Note_on_c, 0, 80, 49
2, 1654, Note_on_c, 0, 63, 44
2, 1699, Note_on_c, 0, 84, 49
2, 1759, Note_on_c, 0, 89, 54
2, 1775, Note_on_c, 0, 72, 0
2, 1815, Note_on_c, 0, 87, 50
2, 1824, Note_on_c, 0, 72, 49
2, 1837, Note_on_c, 0, 84, 0
2, 1875, Note_on_c, 0, 84, 42
2, 1897, Note_on_c, 0, 80, 0
2, 1940, Note_on_c, 0, 80, 44
2, 1968, Note_on_c, 0, 77, 0
2, 2004, Note_on_c, 0, 77, 46
2, 2026, Note_on_c, 0, 75, 0
2, 2075, Note_on_c, 0, 75, 46
2, 2097, Note_on_c, 0, 72, 0
2, 2139, Note_on_c, 0, 72, 42
2, 2191, Note_on_c, 0, 68, 0
2, 2205, Note_on_c, 0, 51, 71
2, 2233, Note_on_c, 0, 68, 44
2, 2326, Note_on_c, 0, 65, 48
2, 2391, Note_on_c, 0, 63, 0
2, 2431, Note_on_c, 0, 63, 47
2, 2463, Note_on_c, 0, 44, 0
2, 2492, Note_on_c, 0, 51, 0
2, 2517, Note_on_c, 0, 44, 48
2, 2535, Note_on_c, 0, 51, 46
2, 2542, Note_on_c, 0, 60, 0
2, 2587, Note_on_c, 0, 60, 74
2, 2589, Control_c, 0, 64, 0
2, 2597, Note_on_c, 0, 87, 0
2, 2597, Note_on_c, 0, 80, 0
2, 2599, Note_on_c, 0, 89, 0
2, 2604, Note_on_c, 0, 84, 0
2, 2606, Note_on_c, 0, 77, 0
2, 2606, Note_on_c, 0, 72, 0
2, 2606, Note_on_c, 0, 65, 0
2, 2606, Note_on_c, 0, 75, 0
2, 2606, Note_on_c, 0, 68, 0
2, 2606, Note_on_c, 0, 63, 0
2, 2680, Note_on_c, 0, 63, 75
2, 2750, Note_on_c, 0, 68, 51
2, 2806, Note_on_c, 0, 72, 50
2, 2832, Control_c, 0, 64, 127
2, 2861, Note_on_c, 0, 77, 49
2, 2908, Note_on_c, 0, 60, 0
2, 2913, Note_on_c, 0, 75, 49
2, 2942, Control_c, 0, 67, 0
2, 2967, Note_on_c, 0, 60, 59
2, 2982, Note_on_c, 0, 75, 0
2, 3014, Note_on_c, 0, 44, 0
2, 3027, Note_on_c, 0, 75, 47
2, 3063, Note_on_c, 0, 44, 62
2, 3070, Note_on_c, 0, 51, 0
2, 3085, Note_on_c, 0, 80, 50
2, 3110, Note_on_c, 0, 60, 0
2, 3110, Note_on_c, 0, 51, 42
2, 3150, Note_on_c, 0, 84, 49
2, 3179, Note_on_c, 0, 60, 76
2, 3217, Note_on_c, 0, 89, 51
2, 3264, Control_c, 0, 64, 0
2, 3276, Note_on_c, 0, 87, 48
2, 3288, Note_on_c, 0, 84, 0
2, 3308, Control_c, 0, 64, 127
2, 3330, Note_on_c, 0, 61, 64
2, 3335, Note_on_c, 0, 84, 51
2, 3341, Note_on_c, 0, 60, 0
2, 3348, Note_on_c, 0, 80, 0
2, 3388, Note_on_c, 0, 80, 53
2, 3400, Note_on_c, 0, 77, 0
2, 3440, Note_on_c, 0, 77, 53
2, 3447, Note_on_c, 0, 63, 0
2, 3458, Note_on_c, 0, 75, 0
2, 3499, Note_on_c, 0, 63, 59
2, 3499, Note_on_c, 0, 75, 48
2, 3517, Note_on_c, 0, 61, 0
2, 3517, Note_on_c, 0, 72, 0
2, 3559, Note_on_c, 0, 72, 49
2, 3573, Note_on_c, 0, 68, 0
2, 3618, Note_on_c, 0, 51, 0
2, 3624, Note_on_c, 0, 68, 51
2, 3643, Note_on_c, 0, 46, 46
2, 3648, Note_on_c, 0, 44, 0
2, 3659, Note_on_c, 0, 51, 47
2, 3677, Note_on_c, 0, 63, 0
2, 3684, Note_on_c, 0, 55, 42
2, 3729, Note_on_c, 0, 63, 64
2, 3738, Note_on_c, 0, 80, 0
2, 3738, Note_on_c, 0, 84, 0
2, 3738, Note_on_c, 0, 87, 0
2, 3738, Note_on_c, 0, 89, 0
2, 3740, Note_on_c, 0, 72, 0
2, 3740, Note_on_c, 0, 68, 0
2, 3740, Note_on_c, 0, 77, 0
2, 3744, Note_on_c, 0, 75, 0
2, 3746, Control_c, 0, 64, 0
2, 3789, Note_on_c, 0, 67, 50
2, 3838, Note_on_c, 0, 73, 50
2, 3885, Note_on_c, 0, 77, 50
2, 3930, Note_on_c, 0, 75, 48
2, 3979, Note_on_c, 0, 79, 49
2, 4017, Note_on_c, 0, 85, 47
2, 4064, Note_on_c, 0, 91, 51
2, 4076, Control_c, 0, 64, 127
2, 4111, Note_on_c, 0, 55, 0
2, 4111, Note_on_c, 0, 89, 54
2, 4123, Note_on_c, 0, 85, 0
2, 4170, Note_on_c, 0, 85, 50
2, 4172, Note_on_c, 0, 55, 61
2, 4183, Note_on_c, 0, 63, 0
2, 4188, Note_on_c, 0, 89, 0
2, 4230, Note_on_c, 0, 89, 49
2, 4289, Note_on_c, 0, 87, 52
2, 4300, Note_on_c, 0, 89, 0
2, 4300, Note_on_c, 0, 85, 0
2, 4356, Note_on_c, 0, 85, 47
2, 4388, Note_on_c, 0, 79, 0
2, 4416, Control_c, 0, 67, 127
2, 4430, Note_on_c, 0, 79, 53
2, 4465, Note_on_c, 0, 77, 0
2, 4501, Note_on_c, 0, 77, 48
2, 4528, Note_on_c, 0, 51, 0
2, 4543, Note_on_c, 0, 75, 0
2, 4579, Note_on_c, 0, 51, 61
2, 4585, Note_on_c, 0, 75, 47
2, 4592, Note_on_c, 0, 55, 0
2, 4632, Note_on_c, 0, 73, 0
2, 4675, Note_on_c, 0, 73, 53
2, 4730, Note_on_c, 0, 67, 0
2, 4773, Note_on_c, 0, 67, 53
2, 4798, Note_on_c, 0, 51, 0
2, 4818, Note_on_c, 0, 43, 43
2, 4823, Note_on_c, 0, 46, 0
2, 4841, Note_on_c, 0, 51, 41
2, 4872, Note_on_c, 0, 91, 0
2, 4874, Note_on_c, 0, 58, 74
2, 4879, Note_on_c, 0, 73, 0
2, 4879, Note_on_c, 0, 79, 0
2, 4879, Note_on_c, 0, 87, 0
2, 4879, Note_on_c, 0, 67, 0
2, 4879, Note_on_c, 0, 77, 0
2, 4879, Note_on_c, 0, 85, 0
2, 4879, Note_on_c, 0, 75, 0
2, 4906, Control_c, 0, 64, 0
2, 4946, Note_on_c, 0, 61, 42
2, 5005, Note_on_c, 0, 63, 48
2, 5064, Note_on_c, 0, 70, 48
2, 5111, Note_on_c, 0, 75, 47
2, 5158, Note_on_c, 0, 58, 0
2, 5164, Note_on_c, 0, 73, 51
2, 5166, Control_c, 0, 64, 127
2, 5218, Note_on_c, 0, 58, 66
2, 5233, Note_on_c, 0, 63, 0
2, 5267, Note_on_c, 0, 43, 0
2, 5276, Note_on_c, 0, 63, 47
2, 5294, Note_on_c, 0, 70, 0
2, 5309, Note_on_c, 0, 43, 46
2, 5311, Note_on_c, 0, 51, 0
2, 5333, Note_on_c, 0, 70, 54
2, 5338, Note_on_c, 0, 58, 0
2, 5352, Note_on_c, 0, 73, 0
2, 5352, Note_on_c, 0, 51, 44
2, 5394, Note_on_c, 0, 73, 52
2, 5399, Note_on_c, 0, 58, 60
2, 5450, Note_on_c, 0, 77, 50
2, 5466, Note_on_c, 0, 75, 0
2, 5511, Note_on_c, 0, 75, 53
2, 5565, Note_on_c, 0, 60, 63
2, 5576, Note_on_c, 0, 58, 0
2, 5576, Note_on_c, 0, 61, 0
2, 5594, Note_on_c, 0, 75, 0
2, 5630, Note_on_c, 0, 75, 51
2, 5700, Note_on_c, 0, 82, 50
2, 5759, Note_on_c, 0, 61, 64
2, 5767, Note_on_c, 0, 85, 54
2, 5769, Note_on_c, 0, 60, 0
2, 5850, Note_on_c, 0, 89, 49
2, 5944, Note_on_c, 0, 87, 49
2, 6027, Note_on_c, 0, 43, 0
2, 6027, Note_on_c, 0, 44, 45
2, 6032, Note_on_c, 0, 51, 0
2, 6074, Note_on_c, 0, 51, 45
2, 6110, Control_c, 0, 64, 0
2, 6125, Note_on_c, 0, 89, 0
2, 6125, Note_on_c, 0, 56, 43
2, 6130, Note_on_c, 0, 82, 0
2, 6130, Note_on_c, 0, 63, 0
2, 6130, Note_on_c, 0, 85, 0
2, 6130, Note_on_c, 0, 75, 0
2, 6130, Note_on_c, 0, 77, 0
2, 6130, Note_on_c, 0, 70, 0
2, 6130, Note_on_c, 0, 73, 0
2, 6130, Note_on_c, 0, 87, 0
2, 6175, Note_on_c, 0, 60, 60
2, 6189, Note_on_c, 0, 61, 0
2, 6242, Note_on_c, 0, 63, 41
2, 6303, Note_on_c, 0, 68, 47
2, 6361, Note_on_c, 0, 72, 53
2, 6429, Note_on_c, 0, 77, 50
2, 6484, Note_on_c, 0, 75, 50
2, 6504, Control_c, 0, 64, 127
2, 6536, Note_on_c, 0, 84, 47
2, 6541, Note_on_c, 0, 80, 47
2, 6600, Note_on_c, 0, 89, 48
2, 6647, Note_on_c, 0, 84, 0
2, 6653, Note_on_c, 0, 87, 52
2, 6669, Note_on_c, 0, 80, 0
2, 6714, Note_on_c, 0, 84, 51
2, 6719, Note_on_c, 0, 80, 48
2, 6737, Note_on_c, 0, 77, 0
2, 6777, Note_on_c, 0, 77, 46
2, 6792, Note_on_c, 0, 75, 0
2, 6835, Note_on_c, 0, 75, 44
2, 6860, Note_on_c, 0, 72, 0
2, 6900, Note_on_c, 0, 72, 46
2, 6929, Note_on_c, 0, 68, 0
2, 6971, Note_on_c, 0, 68, 46
2, 7050, Note_on_c, 0, 65, 46
2, 7092, Note_on_c, 0, 63, 0
2, 7128, Note_on_c, 0, 63, 44
2, 7159, Note_on_c, 0, 44, 0
2, 7200, Note_on_c, 0, 44, 43
2, 7206, Note_on_c, 0, 51, 0
2, 7231, Note_on_c, 0, 60, 0
2, 7243, Note_on_c, 0, 51, 46
2, 7249, Control_c, 0, 64, 0
2, 7292, Note_on_c, 0, 60, 62
2, 7296, Note_on_c, 0, 87, 0
2, 7296, Note_on_c, 0, 89, 0
2, 7296, Note_on_c, 0, 80, 0
2, 7296, Note_on_c, 0, 72, 0
2, 7303, Note_on_c, 0, 56, 0
2, 7303, Note_on_c, 0, 75, 0
2, 7303, Note_on_c, 0, 77, 0
2, 7303, Note_on_c, 0, 65, 0
2, 7303, Note_on_c, 0, 63, 0
2, 7303, Note_on_c, 0, 68, 0
2, 7303, Note_on_c, 0, 84, 0
2, 7359, Note_on_c, 0, 63, 44
2, 7421, Note_on_c, 0, 68, 54
2, 7428, Note_on_c, 0, 60, 0
2, 7477, Control_c, 0, 64, 127
2, 7479, Note_on_c, 0, 60, 74
2, 7479, Note_on_c, 0, 72, 54
2, 7535, Note_on_c, 0, 77, 48
2, 7555, Control_c, 0, 67, 0
2, 7584, Note_on_c, 0, 60, 0
2, 7584, Note_on_c, 0, 75, 50
2, 7639, Note_on_c, 0, 60, 61
2, 7653, Note_on_c, 0, 75, 0
2, 7686, Note_on_c, 0, 75, 48
2, 7688, Note_on_c, 0, 44, 0
2, 7722, Note_on_c, 0, 51, 0
2, 7728, Note_on_c, 0, 44, 45
2, 7742, Note_on_c, 0, 80, 54
2, 7744, Note_on_c, 0, 60, 0
2, 7762, Note_on_c, 0, 51, 44
2, 7796, Note_on_c, 0, 84, 52
2, 7802, Note_on_c, 0, 60, 65
2, 7854, Note_on_c, 0, 89, 53
2, 7906, Note_on_c, 0, 87, 52
2, 7920, Note_on_c, 0, 84, 0
2, 7960, Note_on_c, 0, 84, 48
2, 7967, Note_on_c, 0, 61, 66
2, 7975, Note_on_c, 0, 60, 0
2, 7975, Note_on_c, 0, 80, 0
2, 8016, Note_on_c, 0, 80, 47
2, 8027, Note_on_c, 0, 77, 0
2, 8072, Note_on_c, 0, 77, 53
2, 8074, Note_on_c, 0, 63, 0
2, 8086, Note_on_c, 0, 75, 0
2, 8114, Note_on_c, 0, 63, 72
2, 8119, Note_on_c, 0, 75, 53
2, 8126, Note_on_c, 0, 61, 0
2, 8133, Note_on_c, 0, 72, 0
2, 8175, Note_on_c, 0, 72, 54
2, 8184, Note_on_c, 0, 68, 0
2, 8197, Note_on_c, 0, 44, 0
2, 8226, Note_on_c, 0, 51, 0
2, 8226, Note_on_c, 0, 68, 53
2, 8239, Note_on_c, 0, 44, 52
2, 8266, Note_on_c, 0, 51, 50
2, 8278, Note_on_c, 0, 87, 0
2, 8278, Note_on_c, 0, 80, 0
2, 8280, Note_on_c, 0, 77, 0
2, 8280, Note_on_c, 0, 89, 0
2, 8284, Note_on_c, 0, 68, 0
2, 8284, Note_on_c, 0, 75, 0
2, 8284, Note_on_c, 0, 72, 0
2, 8284, Note_on_c, 0, 84, 0
2, 8284, Note_on_c, 0, 63, 0
2, 8311, Note_on_c, 0, 53, 80
2, 8338, Note_on_c, 0, 63, 78
2, 8372, Control_c, 0, 64, 0
2, 8400, Note_on_c, 0, 65, 54
2, 8456, Note_on_c, 0, 72, 49
2, 8495, Control_c, 0, 67, 127
2, 8508, Note_on_c, 0, 75, 49
2, 8557, Note_on_c, 0, 79, 53
2, 8609, Note_on_c, 0, 77, 48
2, 8661, Note_on_c, 0, 84, 50
2, 8694, Control_c, 0, 64, 127
2, 8710, Note_on_c, 0, 87, 48
2, 8757, Note_on_c, 0, 53, 0
2, 8775, Note_on_c, 0, 91, 51
2, 8820, Note_on_c, 0, 53, 61
2, 8822, Note_on_c, 0, 63, 0
2, 8833, Note_on_c, 0, 89, 53
2, 8852, Note_on_c, 0, 87, 0
2, 8894, Note_on_c, 0, 87, 54
2, 8919, Note_on_c, 0, 84, 0
2, 8952, Note_on_c, 0, 84, 49
2, 8981, Note_on_c, 0, 77, 0
2, 9024, Note_on_c, 0, 77, 49
2, 9046, Note_on_c, 0, 75, 0
2, 9088, Note_on_c, 0, 75, 48
2, 9121, Note_on_c, 0, 72, 0
2, 9162, Note_on_c, 0, 72, 41
2, 9200, Note_on_c, 0, 53, 0
2, 9242, Note_on_c, 0, 53, 71
2, 9242, Note_on_c, 0, 68, 43
2, 9271, Note_on_c, 0, 65, 0
2, 9312, Note_on_c, 0, 65, 44
2, 9392, Note_on_c, 0, 63, 47
2, 9478, Note_on_c, 0, 58, 70
2, 9480, Note_on_c, 0, 87, 0
2, 9481, Note_on_c, 0, 77, 0
2, 9481, Note_on_c, 0, 89, 0
2, 9481, Note_on_c, 0, 79, 0
2, 9481, Note_on_c, 0, 75, 0
2, 9481, Note_on_c, 0, 91, 0
2, 9481, Note_on_c, 0, 68, 0
2, 9481, Note_on_c, 0, 72, 0
2, 9481, Note_on_c, 0, 84, 0
2, 9486, Note_on_c, 0, 63, 0
2, 9486, Note_on_c, 0, 65, 0
2, 9488, Note_on_c, 0, 44, 0
2, 9488, Note_on_c, 0, 53, 0
2, 9488, Note_on_c, 0, 51, 0
2, 9493, Note_on_c, 0, 46, 46
2, 9508, Control_c, 0, 64, 0
2, 9564, Note_on_c, 0, 62, 45
2, 9631, Note_on_c, 0, 72, 48
2, 9703, Note_on_c, 0, 70, 45
2, 9705, Note_on_c, 0, 53, 60
2, 9717, Note_on_c, 0, 58, 0
2, 9730, Control_c, 0, 64, 127
2, 9764, Note_on_c, 0, 68, 41
2, 9816, Note_on_c, 0, 79, 44
2, 9874, Note_on_c, 0, 77, 47
2, 9876, Note_on_c, 0, 55, 60
2, 9888, Note_on_c, 0, 53, 0
2, 9935, Note_on_c, 0, 75, 44
2, 10005, Note_on_c, 0, 74, 45
2, 10011, Note_on_c, 0, 75, 0
2, 10063, Note_on_c, 0, 56, 69
2, 10068, Note_on_c, 0, 84, 42
2, 10073, Control_c, 0, 64, 0
2, 10075, Note_on_c, 0, 77, 0
2, 10075, Note_on_c, 0, 79, 0
2, 10077, Note_on_c, 0, 55, 0
2, 10081, Note_on_c, 0, 72, 0
2, 10081, Note_on_c, 0, 70, 0
2, 10081, Note_on_c, 0, 68, 0
2, 10081, Note_on_c, 0, 74, 0
2, 10081, Note_on_c, 0, 62, 0
2, 10149, Note_on_c, 0, 82, 44
2, 10219, Note_on_c, 0, 77, 44
2, 10291, Note_on_c, 0, 74, 47
2, 10353, Note_on_c, 0, 72, 47
2, 10392, Control_c, 0, 64, 127
2, 10430, Note_on_c, 0, 70, 44
2, 10455, Note_on_c, 0, 56, 0
2, 10500, Note_on_c, 0, 65, 43
2, 10509, Note_on_c, 0, 56, 62
2, 10585, Note_on_c, 0, 62, 42
2, 10664, Note_on_c, 0, 55, 57
2, 10676, Note_on_c, 0, 56, 0
2, 10828, Note_on_c, 0, 55, 0
2, 10887, Note_on_c, 0, 51, 46
2, 10889, Control_c, 0, 64, 0
2, 10889, Note_on_c, 0, 55, 45
2, 10891, Note_on_c, 0, 82, 0
2, 10893, Note_on_c, 0, 72, 0
2, 10893, Note_on_c, 0, 46, 0
2, 10897, Note_on_c, 0, 84, 0
2, 10897, Note_on_c, 0, 65, 0
2, 10897, Note_on_c, 0, 70, 0
2, 10897, Note_on_c, 0, 77, 0
2, 10897, Note_on_c, 0, 74, 0
2, 10899, Note_on_c, 0, 62, 0
2, 10973, Note_on_c, 0, 58, 42
2, 11047, Note_on_c, 0, 63, 41
2, 11119, Note_on_c, 0, 67, 41
2, 11173, Note_on_c, 0, 72, 42
2, 11270, Note_on_c, 0, 70, 44
2, 11357, Note_on_c, 0, 75, 42
2, 11357, Note_on_c, 0, 79, 48
2, 11409, Note_on_c, 0, 96, 47
2, 11472, Note_on_c, 0, 94, 45
2, 11487, Control_c, 0, 64, 127
2, 11529, Note_on_c, 0, 91, 46
2, 11585, Note_on_c, 0, 87, 42
2, 11640, Note_on_c, 0, 84, 43
2, 11706, Note_on_c, 0, 82, 41
2, 11724, Note_on_c, 0, 63, 0
2, 11729, Note_on_c, 0, 79, 0
2, 11769, Note_on_c, 0, 79, 47
2, 11805, Note_on_c, 0, 75, 0
2, 11838, Note_on_c, 0, 63, 62
2, 11845, Note_on_c, 0, 75, 45
2, 11887, Note_on_c, 0, 72, 0
2, 11928, Note_on_c, 0, 72, 45
2, 11975, Note_on_c, 0, 70, 0
2, 12015, Note_on_c, 0, 70, 42
2, 12017, Note_on_c, 0, 51, 0
2, 12052, Note_on_c, 0, 51, 45
2, 12052, Control_c, 0, 67, 0
2, 12057, Note_on_c, 0, 63, 0
2, 12111, Note_on_c, 0, 54, 45
2, 12118, Note_on_c, 0, 55, 0
2, 12156, Note_on_c, 0, 63, 75
2, 12158, Control_c, 0, 64, 0
2, 12160, Note_on_c, 0, 75, 0
2, 12160, Note_on_c, 0, 82, 0
2, 12160, Note_on_c, 0, 79, 0
2, 12160, Note_on_c, 0, 94, 0
2, 12160, Note_on_c, 0, 96, 0
2, 12160, Note_on_c, 0, 87, 0
2, 12160, Note_on_c, 0, 91, 0
2, 12160, Note_on_c, 0, 72, 0
2, 12162, Note_on_c, 0, 67, 0
2, 12164, Note_on_c, 0, 84, 0
2, 12166, Note_on_c, 0, 70, 0
2, 12168, Note_on_c, 0, 58, 0
2, 12223, Note_on_c, 0, 70, 52
2, 12284, Note_on_c, 0, 75, 47
2, 12344, Note_on_c, 0, 78, 49
2, 12391, Control_c, 0, 64, 127
2, 12393, Note_on_c, 0, 84, 52
2, 12452, Note_on_c, 0, 82, 47
2, 12507, Note_on_c, 0, 58, 59
2, 12514, Note_on_c, 0, 82, 0
2, 12514, Note_on_c, 0, 63, 0
2, 12554, Note_on_c, 0, 82, 51
2, 12595, Note_on_c, 0, 54, 0
2, 12595, Note_on_c, 0, 51, 0
2, 12610, Note_on_c, 0, 87, 53
2, 12630, Note_on_c, 0, 51, 43
2, 12637, Note_on_c, 0, 54, 44
2, 12664, Note_on_c, 0, 90, 50
2, 12666, Note_on_c, 0, 61, 65
2, 12681, Note_on_c, 0, 60, 62
2, 12688, Note_on_c, 0, 87, 0
2, 12688, Note_on_c, 0, 82, 0
2, 12693, Note_on_c, 0, 75, 0
2, 12693, Note_on_c, 0, 61, 0
2, 12693, Note_on_c, 0, 70, 0
2, 12693, Note_on_c, 0, 84, 0
2, 12693, Note_on_c, 0, 58, 0
2, 12693, Note_on_c, 0, 78, 0
2, 12695, Control_c, 0, 64, 0
2, 12721, Note_on_c, 0, 96, 52
2, 12737, Note_on_c, 0, 90, 0
2, 12784, Note_on_c, 0, 94, 54
2, 12842, Note_on_c, 0, 58, 61
2, 12842, Note_on_c, 0, 90, 52
2, 12856, Note_on_c, 0, 60, 0
2, 12903, Note_on_c, 0, 87, 49
2, 12923, Control_c, 0, 64, 127
2, 12963, Note_on_c, 0, 84, 49
2, 13010, Note_on_c, 0, 60, 59
2, 13022, Note_on_c, 0, 82, 49
2, 13024, Note_on_c, 0, 58, 0
2, 13094, Note_on_c, 0, 78, 53
2, 13159, Note_on_c, 0, 75, 51
2, 13171, Note_on_c, 0, 46, 51
2, 13206, Note_on_c, 0, 53, 49
2, 13218, Note_on_c, 0, 54, 0
2, 13218, Note_on_c, 0, 51, 0
2, 13240, Note_on_c, 0, 61, 71
2, 13245, Note_on_c, 0, 94, 0
2, 13245, Note_on_c, 0, 87, 0
2, 13245, Note_on_c, 0, 96, 0
2, 13245, Note_on_c, 0, 90, 0
2, 13249, Note_on_c, 0, 60, 0
2, 13249, Note_on_c, 0, 82, 0
2, 13249, Note_on_c, 0, 84, 0
2, 13249, Note_on_c, 0, 78, 0
2, 13249, Note_on_c, 0, 75, 0
2, 13290, Control_c, 0, 64, 0
2, 13310, Note_on_c, 0, 65, 54
2, 13368, Note_on_c, 0, 70, 51
2, 13420, Note_on_c, 0, 73, 51
2, 13483, Note_on_c, 0, 78, 51
2, 13535, Note_on_c, 0, 77, 47
2, 13536, Control_c, 0, 64, 127
2, 13545, Note_on_c, 0, 78, 0
2, 13592, Note_on_c, 0, 82, 49
2, 13644, Note_on_c, 0, 85, 47
2, 13671, Note_on_c, 0, 65, 0
2, 13704, Note_on_c, 0, 90, 50
2, 13770, Note_on_c, 0, 65, 81
2, 13781, Note_on_c, 0, 61, 0
2, 13800, Note_on_c, 0, 90, 0
2, 13800, Note_on_c, 0, 89, 47
2, 13822, Note_on_c, 0, 85, 0
2, 13837, Control_c, 0, 67, 127
2, 13862, Note_on_c, 0, 85, 41
2, 13897, Note_on_c, 0, 82, 0
2, 13938, Note_on_c, 0, 82, 45
2, 13976, Note_on_c, 0, 77, 0
2, 14021, Note_on_c, 0, 77, 45
2, 14102, Note_on_c, 0, 75, 43
2, 14147, Note_on_c, 0, 73, 0
2, 14187, Note_on_c, 0, 73, 47
2, 14268, Note_on_c, 0, 58, 63
2, 14286, Note_on_c, 0, 72, 44
2, 14298, Note_on_c, 0, 73, 0
2, 14385, Note_on_c, 0, 73, 42
2, 14399, Note_on_c, 0, 72, 0
2, 14439, Note_on_c, 0, 70, 0
2, 14481, Note_on_c, 0, 70, 47
2, 14585, Control_c, 0, 64, 0
2, 14587, Note_on_c, 0, 63, 84
2, 14589, Note_on_c, 0, 53, 0
2, 14589, Note_on_c, 0, 46, 0
2, 14591, Note_on_c, 0, 89, 0
2, 14591, Note_on_c, 0, 75, 0
2, 14591, Note_on_c, 0, 82, 0
2, 14591, Note_on_c, 0, 70, 0
2, 14591, Note_on_c, 0, 77, 0
2, 14591, Note_on_c, 0, 85, 0
2, 14591, Note_on_c, 0, 73, 0
2, 14592, Note_on_c, 0, 51, 48
2, 14592, Note_on_c, 0, 54, 46
2, 14599, Note_on_c, 0, 65, 0
2, 14599, Note_on_c, 0, 58, 0
2, 14673, Note_on_c, 0, 70, 48
2, 14747, Note_on_c, 0, 75, 41
2, 14809, Note_on_c, 0, 58, 66
2, 14811, Note_on_c, 0, 78, 41
2, 14813, Note_on_c, 0, 63, 0
2, 14854, Control_c, 0, 64, 127
2, 14867, Note_on_c, 0, 84, 45
2, 14934, Note_on_c, 0, 82, 47
2, 14959, Note_on_c, 0, 58, 0
2, 15000, Note_on_c, 0, 58, 59
2, 15013, Note_on_c, 0, 82, 0
2, 15053, Note_on_c, 0, 82, 43
2, 15082, Note_on_c, 0, 54, 0
2, 15084, Note_on_c, 0, 51, 0
2, 15118, Note_on_c, 0, 87, 46
2, 15124, Note_on_c, 0, 51, 44
2, 15124, Note_on_c, 0, 54, 43
2, 15153, Note_on_c, 0, 61, 53
2, 15178, Note_on_c, 0, 90, 44
2, 15187, Note_on_c, 0, 60, 63
2, 15189, Control_c, 0, 64, 0
2, 15191, Note_on_c, 0, 87, 0
2, 15191, Note_on_c, 0, 82, 0
2, 15195, Note_on_c, 0, 84, 0
2, 15197, Note_on_c, 0, 75, 0
2, 15197, Note_on_c, 0, 61, 0
2, 15197, Note_on_c, 0, 58, 0
2, 15197, Note_on_c, 0, 70, 0
2, 15197, Note_on_c, 0, 78, 0
2, 15251, Note_on_c, 0, 96, 46
2, 15263, Note_on_c, 0, 90, 0
2, 15323, Note_on_c, 0, 94, 47
2, 15377, Note_on_c, 0, 58, 59
2, 15382, Note_on_c, 0, 90, 42
2, 15384, Note_on_c, 0, 60, 0
2, 15410, Control_c, 0, 64, 127
2, 15442, Note_on_c, 0, 87, 47
2, 15501, Note_on_c, 0, 84, 42
2, 15559, Note_on_c, 0, 60, 60
2, 15566, Note_on_c, 0, 58, 0
2, 15566, Note_on_c, 0, 82, 48
2, 15624, Note_on_c, 0, 78, 43
2, 15692, Note_on_c, 0, 75, 43
2, 15757, Note_on_c, 0, 46, 46
2, 15791, Note_on_c, 0, 53, 46
2, 15795, Note_on_c, 0, 51, 0
2, 15802, Note_on_c, 0, 54, 0
2, 15838, Note_on_c, 0, 61, 67
2, 15840, Note_on_c, 0, 96, 0
2, 15841, Note_on_c, 0, 82, 0
2, 15841, Note_on_c, 0, 78, 0
2, 15841, Note_on_c, 0, 94, 0
2, 15841, Note_on_c, 0, 84, 0
2, 15841, Note_on_c, 0, 60, 0
2, 15841, Note_on_c, 0, 87, 0
2, 15841, Note_on_c, 0, 75, 0
2, 15841, Note_on_c, 0, 90, 0
2, 15862, Control_c, 0, 64, 0
2, 15909, Note_on_c, 0, 65, 52
2, 15971, Note_on_c, 0, 70, 48
2, 16025, Note_on_c, 0, 73, 47
2, 16079, Note_on_c, 0, 78, 52
2, 16121, Control_c, 0, 64, 127
2, 16129, Note_on_c, 0, 77, 53
2, 16134, Note_on_c, 0, 78, 0
2, 16183, Note_on_c, 0, 82, 50
2, 16230, Note_on_c, 0, 85, 48
2, 16282, Note_on_c, 0, 90, 50
2, 16307, Note_on_c, 0, 56, 48
2, 16325, Note_on_c, 0, 58, 47
2, 16344, Note_on_c, 0, 89, 50
2, 16345, Note_on_c, 0, 90, 0
2, 16352, Note_on_c, 0, 85, 0
2, 16392, Note_on_c, 0, 85, 52
2, 16404, Note_on_c, 0, 82, 0
2, 16446, Note_on_c, 0, 82, 52
2, 16455, Note_on_c, 0, 77, 0
2, 16497, Note_on_c, 0, 77, 49
2, 16509, Note_on_c, 0, 73, 0
2, 16547, Note_on_c, 0, 73, 50
2, 16565, Note_on_c, 0, 70, 0
2, 16592, Note_on_c, 0, 61, 0
2, 16604, Note_on_c, 0, 70, 50
2, 16622, Note_on_c, 0, 65, 0
2, 16651, Note_on_c, 0, 61, 62
2, 16662, Note_on_c, 0, 65, 52
2, 16684, Note_on_c, 0, 73, 0
2, 16725, Note_on_c, 0, 73, 48
2, 16752, Note_on_c, 0, 70, 0
2, 16790, Note_on_c, 0, 70, 47
2, 16867, Note_on_c, 0, 61, 0
2, 16902, Note_on_c, 0, 58, 0
2, 16907, Note_on_c, 0, 61, 69
2, 16912, Note_on_c, 0, 89, 0
2, 16919, Note_on_c, 0, 77, 0
2, 16919, Note_on_c, 0, 85, 0
2, 16919, Note_on_c, 0, 65, 0
2, 16919, Note_on_c, 0, 73, 0
2, 16919, Note_on_c, 0, 82, 0
2, 16919, Note_on_c, 0, 70, 0
2, 16920, Note_on_c, 0, 56, 0
2, 16920, Note_on_c, 0, 53, 0
2, 16920, Note_on_c, 0, 46, 0
2, 16925, Control_c, 0, 64, 0
2, 16925, Note_on_c, 0, 55, 41
2, 16937, Note_on_c, 0, 58, 43
2, 16999, Note_on_c, 0, 63, 42
2, 17046, Control_c, 0, 67, 0
2, 17068, Note_on_c, 0, 70, 49
2, 17122, Note_on_c, 0, 73, 53
2, 17169, Control_c, 0, 64, 127
2, 17183, Note_on_c, 0, 75, 52
2, 17209, Note_on_c, 0, 75, 0
2, 17252, Note_on_c, 0, 61, 0
2, 17252, Note_on_c, 0, 75, 51
2, 17305, Note_on_c, 0, 61, 63
2, 17312, Note_on_c, 0, 82, 48
2, 17377, Note_on_c, 0, 84, 54
2, 17431, Note_on_c, 0, 58, 0
2, 17443, Note_on_c, 0, 85, 51
2, 17449, Note_on_c, 0, 53, 45
2, 17461, Note_on_c, 0, 84, 0
2, 17463, Note_on_c, 0, 55, 0
2, 17463, Note_on_c, 0, 61, 0
2, 17474, Note_on_c, 0, 58, 47
2, 17499, Control_c, 0, 64, 0
2, 17504, Note_on_c, 0, 61, 43
2, 17540, Note_on_c, 0, 65, 81
2, 17544, Note_on_c, 0, 85, 0
2, 17544, Note_on_c, 0, 82, 0
2, 17544, Note_on_c, 0, 70, 0
2, 17544, Note_on_c, 0, 73, 0
2, 17544, Note_on_c, 0, 75, 0
2, 17551, Note_on_c, 0, 63, 0
2, 17630, Note_on_c, 0, 70, 45
2, 17697, Note_on_c, 0, 73, 51
2, 17731, Control_c, 0, 64, 127
2, 17753, Note_on_c, 0, 63, 62
2, 17758, Note_on_c, 0, 77, 47
2, 17762, Note_on_c, 0, 65, 0
2, 17816, Note_on_c, 0, 82, 48
2, 17838, Note_on_c, 0, 82, 0
2, 17880, Note_on_c, 0, 82, 48
2, 17887, Note_on_c, 0, 61, 0
2, 17941, Note_on_c, 0, 61, 62
2, 17952, Note_on_c, 0, 63, 0
2, 17952, Note_on_c, 0, 85, 51
2, 18029, Note_on_c, 0, 87, 52
2, 18099, Note_on_c, 0, 89, 50
2, 18207, Note_on_c, 0, 58, 0
2, 18240, Note_on_c, 0, 89, 0
2, 18240, Note_on_c, 0, 60, 61
2, 18242, Control_c, 0, 64, 0
2, 18247, Note_on_c, 0, 61, 0
2, 18247, Note_on_c, 0, 70, 0
2, 18247, Note_on_c, 0, 85, 0
2, 18247, Note_on_c, 0, 53, 0
2, 18247, Note_on_c, 0, 73, 0
2, 18247, Note_on_c, 0, 87, 0
2, 18247, Note_on_c, 0, 82, 0
2, 18247, Note_on_c, 0, 77, 0
2, 18254, Note_on_c, 0, 55, 42
2, 18254, Note_on_c, 0, 58, 44
2, 18256, Note_on_c, 0, 52, 47
2, 18321, Note_on_c, 0, 72, 65
2, 18380, Note_on_c, 0, 79, 50
2, 18440, Note_on_c, 0, 82, 50
2, 18501, Note_on_c, 0, 85, 49
2, 18514, Control_c, 0, 64, 127
2, 18561, Note_on_c, 0, 84, 48
2, 18573, Note_on_c, 0, 85, 0
2, 18633, Note_on_c, 0, 91, 51
2, 18703, Note_on_c, 0, 94, 51
2, 18784, Note_on_c, 0, 97, 52
2, 18804, Note_on_c, 0, 63, 53
2, 18833, Note_on_c, 0, 61, 58
2, 18851, Note_on_c, 0, 60, 0
2, 18864, Note_on_c, 0, 96, 47
2, 18876, Note_on_c, 0, 97, 0
2, 18885, Control_c, 0, 64, 0
2, 18903, Note_on_c, 0, 60, 66
2, 18914, Note_on_c, 0, 61, 0
2, 18914, Note_on_c, 0, 63, 0
2, 18923, Note_on_c, 0, 94, 0
2, 18963, Note_on_c, 0, 94, 49
2, 18995, Note_on_c, 0, 91, 0
2, 19033, Note_on_c, 0, 91, 42
2, 19082, Note_on_c, 0, 84, 0
2, 19096, Control_c, 0, 64, 127
2, 19107, Control_c, 0, 67, 127
2, 19116, Note_on_c, 0, 84, 44
2, 19156, Note_on_c, 0, 82, 0
2, 19199, Note_on_c, 0, 82, 42
2, 19237, Note_on_c, 0, 79, 0
2, 19279, Note_on_c, 0, 79, 45
2, 19321, Note_on_c, 0, 72, 0
2, 19328, Note_on_c, 0, 60, 0
2, 19368, Note_on_c, 0, 60, 59
2, 19368, Note_on_c, 0, 72, 42
2, 19442, Note_on_c, 0, 70, 42
2, 19535, Note_on_c, 0, 67, 44
2, 19570, Note_on_c, 0, 60, 0
2, 19617, Note_on_c, 0, 60, 61
2, 19622, Note_on_c, 0, 82, 0
2, 19622, Note_on_c, 0, 72, 0
2, 19622, Note_on_c, 0, 91, 0
2, 19622, Note_on_c, 0, 79, 0
2, 19622, Note_on_c, 0, 84, 0
2, 19622, Note_on_c, 0, 94, 0
2, 19622, Note_on_c, 0, 55, 0
2, 19622, Note_on_c, 0, 96, 0
2, 19622, Note_on_c, 0, 70, 0
2, 19622, Note_on_c, 0, 67, 0
2, 19624, Control_c, 0, 64, 0
2, 19631, Note_on_c, 0, 52, 0
2, 19635, Note_on_c, 0, 58, 0
2, 19635, Note_on_c, 0, 53, 48
2, 19635, Note_on_c, 0, 56, 42
2, 19691, Note_on_c, 0, 65, 51
2, 19761, Note_on_c, 0, 68, 51
2, 19824, Note_on_c, 0, 72, 52
2, 19871, Control_c, 0, 64, 127
2, 19884, Note_on_c, 0, 77, 53
2, 19911, Note_on_c, 0, 77, 0
2, 19931, Note_on_c, 0, 60, 0
2, 19949, Note_on_c, 0, 77, 53
2, 19985, Note_on_c, 0, 60, 61
2, 20010, Note_on_c, 0, 80, 52
2, 20070, Note_on_c, 0, 82, 50
2, 20129, Note_on_c, 0, 84, 53
2, 20154, Note_on_c, 0, 56, 0
2, 20194, Note_on_c, 0, 63, 71
2, 20199, Note_on_c, 0, 82, 0
2, 20199, Note_on_c, 0, 80, 0
2, 20201, Note_on_c, 0, 68, 0
2, 20201, Note_on_c, 0, 77, 0
2, 20201, Note_on_c, 0, 72, 0
2, 20206, Note_on_c, 0, 65, 0
2, 20206, Note_on_c, 0, 84, 0
2, 20208, Note_on_c, 0, 53, 0
2, 20208, Note_on_c, 0, 60, 0
2, 20208, Note_on_c, 0, 51, 69
2, 20209, Control_c, 0, 64, 0
2, 20214, Note_on_c, 0, 56, 42
2, 20273, Note_on_c, 0, 68, 52
2, 20338, Note_on_c, 0, 72, 51
2, 20397, Note_on_c, 0, 75, 53
2, 20403, Note_on_c, 0, 61, 61
2, 20410, Note_on_c, 0, 63, 0
2, 20430, Control_c, 0, 64, 127
2, 20466, Note_on_c, 0, 80, 51
2, 20491, Note_on_c, 0, 80, 0
2, 20531, Note_on_c, 0, 80, 49
2, 20610, Note_on_c, 0, 84, 50
2, 20618, Note_on_c, 0, 60, 61
2, 20627, Note_on_c, 0, 61, 0
2, 20694, Note_on_c, 0, 85, 47
2, 20712, Note_on_c, 0, 84, 0
2, 20796, Note_on_c, 0, 87, 51
2, 20915, Note_on_c, 0, 56, 0
2, 20955, Note_on_c, 0, 58, 59
2, 20960, Control_c, 0, 64, 0
2, 20965, Note_on_c, 0, 72, 0
2, 20965, Note_on_c, 0, 87, 0
2, 20965, Note_on_c, 0, 85, 0
2, 20965, Note_on_c, 0, 80, 0
2, 20965, Note_on_c, 0, 68, 0
2, 20965, Note_on_c, 0, 75, 0
2, 20967, Note_on_c, 0, 51, 0
2, 20967, Note_on_c, 0, 60, 0
2, 20972, Note_on_c, 0, 49, 45
2, 20972, Note_on_c, 0, 56, 46
2, 21039, Note_on_c, 0, 65, 49
2, 21109, Note_on_c, 0, 70, 51
2, 21168, Note_on_c, 0, 73, 51
2, 21206, Control_c, 0, 64, 127
2, 21226, Note_on_c, 0, 79, 54
2, 21291, Note_on_c, 0, 77, 54
2, 21359, Note_on_c, 0, 82, 48
2, 21429, Note_on_c, 0, 85, 53
2, 21496, Note_on_c, 0, 89, 53
2, 21570, Note_on_c, 0, 87, 50
2, 21572, Note_on_c, 0, 51, 46
2, 21572, Note_on_c, 0, 55, 44
2, 21574, Control_c, 0, 64, 0
2, 21576, Note_on_c, 0, 89, 0
2, 21576, Note_on_c, 0, 82, 0
2, 21576, Note_on_c, 0, 79, 0
2, 21580, Note_on_c, 0, 85, 0
2, 21582, Note_on_c, 0, 77, 0
2, 21582, Note_on_c, 0, 65, 0
2, 21582, Note_on_c, 0, 56, 0
2, 21582, Note_on_c, 0, 73, 0
2, 21582, Note_on_c, 0, 70, 0
2, 21582, Note_on_c, 0, 49, 0
2, 21645, Note_on_c, 0, 85, 50
2, 21710, Note_on_c, 0, 82, 41
2, 21784, Note_on_c, 0, 79, 44
2, 21829, Control_c, 0, 64, 127
2, 21861, Note_on_c, 0, 75, 45
2, 21951, Note_on_c, 0, 73, 41
2, 21983, Note_on_c, 0, 51, 0
2, 22032, Note_on_c, 0, 51, 59
2, 22040, Note_on_c, 0, 70, 42
2, 22042, Note_on_c, 0, 58, 0
2, 22150, Note_on_c, 0, 67, 48
2, 22264, Note_on_c, 0, 63, 45
2, 22316, Note_on_c, 0, 44, 43
2, 22320, Note_on_c, 0, 51, 0
2, 22363, Note_on_c, 0, 51, 44
2, 22421, Note_on_c, 0, 60, 71
2, 22423, Control_c, 0, 64, 0
2, 22428, Note_on_c, 0, 87, 0
2, 22428, Note_on_c, 0, 79, 0
2, 22433, Note_on_c, 0, 85, 0
2, 22433, Note_on_c, 0, 82, 0
2, 22438, Note_on_c, 0, 70, 0
2, 22438, Note_on_c, 0, 75, 0
2, 22438, Note_on_c, 0, 73, 0
2, 22438, Note_on_c, 0, 67, 0
2, 22438, Note_on_c, 0, 55, 0
2, 22438, Note_on_c, 0, 63, 0
2, 22535, Note_on_c, 0, 63, 41
2, 22622, Note_on_c, 0, 68, 52
2, 22640, Note_on_c, 0, 60, 0
2, 22662, Control_c, 0, 64, 127
2, 22696, Note_on_c, 0, 60, 63
2, 22696, Note_on_c, 0, 72, 54
2, 22770, Note_on_c, 0, 77, 50
2, 22835, Note_on_c, 0, 75, 51
2, 22847, Note_on_c, 0, 60, 0
2, 22905, Note_on_c, 0, 60, 65
2, 22923, Note_on_c, 0, 75, 0
2, 22959, Note_on_c, 0, 44, 0
2, 22961, Note_on_c, 0, 75, 48
2, 23003, Note_on_c, 0, 51, 0
2, 23003, Note_on_c, 0, 44, 47
2, 23023, Note_on_c, 0, 80, 48
2, 23030, Note_on_c, 0, 60, 0
2, 23043, Note_on_c, 0, 51, 46
2, 23082, Note_on_c, 0, 60, 77
2, 23082, Note_on_c, 0, 84, 51
2, 23142, Note_on_c, 0, 89, 53
2, 23198, Note_on_c, 0, 87, 54
2, 23223, Note_on_c, 0, 84, 0
2, 23256, Note_on_c, 0, 84, 47
2, 23265, Note_on_c, 0, 61, 64
2, 23272, Note_on_c, 0, 80, 0
2, 23274, Note_on_c, 0, 60, 0
2, 23321, Note_on_c, 0, 80, 52
2, 23328, Note_on_c, 0, 77, 0
2, 23379, Note_on_c, 0, 77, 50
2, 23401, Note_on_c, 0, 75, 0
2, 23401, Note_on_c, 0, 63, 0
2, 23444, Note_on_c, 0, 75, 48
2, 23446, Note_on_c, 0, 63, 62
2, 23457, Note_on_c, 0, 61, 0
2, 23469, Note_on_c, 0, 72, 0
2, 23516, Note_on_c, 0, 72, 52
2, 23522, Note_on_c, 0, 68, 0
2, 23578, Note_on_c, 0, 68, 49
2, 23587, Note_on_c, 0, 51, 0
2, 23592, Note_on_c, 0, 46, 53
2, 23598, Note_on_c, 0, 44, 0
2, 23627, Note_on_c, 0, 51, 49
2, 23656, Note_on_c, 0, 63, 0
2, 23656, Note_on_c, 0, 55, 48
2, 23714, Note_on_c, 0, 63, 78
2, 23719, Note_on_c, 0, 84, 0
2, 23719, Note_on_c, 0, 80, 0
2, 23719, Note_on_c, 0, 72, 0
2, 23719, Note_on_c, 0, 87, 0
2, 23719, Note_on_c, 0, 89, 0
2, 23721, Note_on_c, 0, 75, 0
2, 23721, Note_on_c, 0, 77, 0
2, 23721, Note_on_c, 0, 68, 0
2, 23723, Control_c, 0, 64, 0
2, 23804, Note_on_c, 0, 67, 47
2, 23862, Note_on_c, 0, 73, 53
2, 23916, Note_on_c, 0, 77, 52
2, 23972, Note_on_c, 0, 75, 48
2, 24025, Note_on_c, 0, 79, 54
2, 24072, Note_on_c, 0, 85, 50
2, 24124, Note_on_c, 0, 89, 52
2, 24171, Note_on_c, 0, 87, 50
2, 24216, Note_on_c, 0, 91, 48
2, 24255, Note_on_c, 0, 97, 51
2, 24307, Note_on_c, 0, 101, 51
2, 24318, Control_c, 0, 64, 127
2, 24359, Note_on_c, 0, 99, 50
2, 24367, Note_on_c, 0, 97, 0
2, 24406, Note_on_c, 0, 97, 53
2, 24419, Note_on_c, 0, 91, 0
2, 24459, Note_on_c, 0, 91, 42
2, 24471, Note_on_c, 0, 89, 0
2, 24511, Note_on_c, 0, 89, 41
2, 24525, Note_on_c, 0, 87, 0
2, 24565, Note_on_c, 0, 87, 48
2, 24574, Note_on_c, 0, 85, 0
2, 24616, Note_on_c, 0, 85, 43
2, 24634, Note_on_c, 0, 79, 0
2, 24676, Note_on_c, 0, 79, 44
2, 24692, Note_on_c, 0, 77, 0
2, 24732, Note_on_c, 0, 77, 47
2, 24764, Note_on_c, 0, 75, 0
2, 24802, Note_on_c, 0, 75, 42
2, 24836, Note_on_c, 0, 73, 0
2, 24876, Note_on_c, 0, 73, 47
2, 24921, Note_on_c, 0, 67, 0
2, 24961, Note_on_c, 0, 67, 48
2, 25054, Note_on_c, 0, 65, 42
2, 25114, Note_on_c, 0, 63, 0
2, 25150, Note_on_c, 0, 63, 46
2, 25269, Note_on_c, 0, 61, 48
2, 25396, Note_on_c, 0, 58, 44
2, 25517, Note_on_c, 0, 55, 0
2, 25560, Note_on_c, 0, 89, 0
2, 25560, Note_on_c, 0, 91, 0
2, 25560, Note_on_c, 0, 97, 0
2, 25560, Note_on_c, 0, 99, 0
2, 25560, Note_on_c, 0, 101, 0
2, 25561, Note_on_c, 0, 55, 57
2, 25566, Note_on_c, 0, 85, 0
2, 25566, Note_on_c, 0, 61, 0
2, 25566, Note_on_c, 0, 67, 0
2, 25566, Note_on_c, 0, 77, 0
2, 25566, Note_on_c, 0, 63, 0
2, 25566, Note_on_c, 0, 87, 0
2, 25566, Note_on_c, 0, 79, 0
2, 25566, Note_on_c, 0, 75, 0
2, 25566, Note_on_c, 0, 73, 0
2, 25568, Note_on_c, 0, 51, 0
2, 25568, Note_on_c, 0, 46, 0
2, 25573, Note_on_c, 0, 58, 0
2, 25573, Note_on_c, 0, 65, 0
2, 25575, Control_c, 0, 64, 0
2, 26385, Note_on_c, 0, 55, 0
2, 26546, Note_on_c, 0, 57, 60
2, 26560, Note_on_c, 0, 51, 62
2, 26560, Note_on_c, 0, 54, 60
2, 26565, Note_on_c, 0, 48, 48
2, 26655, Control_c, 0, 64, 127
2, 26809, Control_c, 0, 64, 0
2, 26814, Note_on_c, 0, 58, 67
2, 26826, Note_on_c, 0, 54, 0
2, 26826, Note_on_c, 0, 57, 0
2, 26828, Note_on_c, 0, 51, 0
2, 26828, Note_on_c, 0, 48, 0
2, 26834, Note_on_c, 0, 49, 47
2, 26834, Note_on_c, 0, 53, 47
2, 26902, Note_on_c, 0, 65, 54
2, 26960, Note_on_c, 0, 70, 49
2, 27019, Note_on_c, 0, 73, 50
2, 27039, Control_c, 0, 64, 127
2, 27074, Note_on_c, 0, 79, 54
2, 27137, Note_on_c, 0, 77, 54
2, 27144, Note_on_c, 0, 58, 0
2, 27195, Note_on_c, 0, 58, 66
2, 27222, Note_on_c, 0, 65, 0
2, 27263, Note_on_c, 0, 65, 50
2, 27301, Note_on_c, 0, 70, 0
2, 27343, Note_on_c, 0, 70, 52
2, 27357, Note_on_c, 0, 51, 54
2, 27368, Note_on_c, 0, 49, 0
2, 27380, Note_on_c, 0, 55, 53
2, 27388, Note_on_c, 0, 73, 0
2, 27390, Note_on_c, 0, 53, 0
2, 27426, Note_on_c, 0, 61, 71
2, 27428, Note_on_c, 0, 73, 53
2, 27430, Note_on_c, 0, 70, 0
2, 27432, Control_c, 0, 64, 0
2, 27433, Note_on_c, 0, 65, 0
2, 27433, Note_on_c, 0, 58, 0
2, 27433, Note_on_c, 0, 79, 0
2, 27440, Note_on_c, 0, 77, 0
2, 27514, Note_on_c, 0, 77, 49
2, 27526, Note_on_c, 0, 73, 0
2, 27598, Note_on_c, 0, 75, 54
2, 27609, Note_on_c, 0, 77, 0
2, 27683, Note_on_c, 0, 73, 50
2, 27696, Note_on_c, 0, 75, 0
2, 27770, Note_on_c, 0, 70, 51
2, 27775, Note_on_c, 0, 73, 0
2, 27827, Control_c, 0, 64, 127
2, 27861, Note_on_c, 0, 63, 44
2, 27872, Note_on_c, 0, 70, 0
2, 27991, Note_on_c, 0, 60, 61
2, 27996, Note_on_c, 0, 61, 0
2, 27998, Note_on_c, 0, 63, 0
2, 28005, Control_c, 0, 64, 0
2, 28186, Control_c, 0, 64, 127
2, 28294, Note_on_c, 0, 60, 0
2, 28296, Note_on_c, 0, 55, 0
2, 28296, Note_on_c, 0, 51, 0
2, 28316, Note_on_c, 0, 44, 47
2, 28349, Note_on_c, 0, 51, 48
2, 28361, Control_c, 0, 64, 0
2, 28392, Note_on_c, 0, 56, 59
2, 28463, Note_on_c, 0, 60, 47
2, 28521, Note_on_c, 0, 63, 42
2, 28580, Note_on_c, 0, 68, 49
2, 28582, Control_c, 0, 64, 127
2, 28633, Note_on_c, 0, 73, 47
2, 28692, Note_on_c, 0, 72, 54
2, 28705, Note_on_c, 0, 73, 0
2, 28739, Note_on_c, 0, 75, 49
2, 28801, Note_on_c, 0, 82, 51
2, 28855, Note_on_c, 0, 80, 49
2, 28889, Control_c, 0, 67, 0
2, 28920, Note_on_c, 0, 54, 60
2, 28925, Note_on_c, 0, 80, 0
2, 28925, Note_on_c, 0, 82, 0
2, 28925, Note_on_c, 0, 72, 0
2, 28925, Note_on_c, 0, 75, 0
2, 28932, Note_on_c, 0, 60, 0
2, 28932, Note_on_c, 0, 63, 0
2, 28932, Note_on_c, 0, 51, 0
2, 28932, Note_on_c, 0, 56, 0
2, 28932, Note_on_c, 0, 68, 0
2, 28934, Note_on_c, 0, 44, 0
2, 28934, Control_c, 0, 64, 0
2, 28983, Note_on_c, 0, 63, 47
2, 29037, Note_on_c, 0, 68, 49
2, 29092, Note_on_c, 0, 56, 48
2, 29092, Note_on_c, 0, 72, 50
2, 29139, Note_on_c, 0, 77, 53
2, 29164, Control_c, 0, 64, 127
2, 29173, Note_on_c, 0, 60, 47
2, 29191, Note_on_c, 0, 75, 51
2, 29205, Note_on_c, 0, 68, 0
2, 29245, Note_on_c, 0, 68, 51
2, 29247, Note_on_c, 0, 80, 52
2, 29296, Note_on_c, 0, 89, 51
2, 29343, Note_on_c, 0, 87, 47
2, 29405, Note_on_c, 0, 53, 65
2, 29410, Note_on_c, 0, 80, 0
2, 29412, Note_on_c, 0, 87, 0
2, 29412, Note_on_c, 0, 68, 0
2, 29412, Note_on_c, 0, 75, 0
2, 29412, Note_on_c, 0, 72, 0
2, 29412, Note_on_c, 0, 89, 0
2, 29412, Note_on_c, 0, 77, 0
2, 29419, Note_on_c, 0, 63, 0
2, 29419, Note_on_c, 0, 54, 0
2, 29419, Note_on_c, 0, 56, 0
2, 29419, Note_on_c, 0, 60, 0
2, 29419, Control_c, 0, 64, 0
2, 29459, Note_on_c, 0, 62, 41
2, 29506, Note_on_c, 0, 68, 48
2, 29548, Note_on_c, 0, 71, 52
2, 29555, Note_on_c, 0, 56, 43
2, 29593, Note_on_c, 0, 75, 53
2, 29614, Control_c, 0, 64, 127
2, 29618, Note_on_c, 0, 59, 42
2, 29634, Note_on_c, 0, 74, 48
2, 29640, Note_on_c, 0, 68, 0
2, 29645, Note_on_c, 0, 75, 0
2, 29679, Note_on_c, 0, 68, 51
2, 29679, Note_on_c, 0, 80, 47
2, 29721, Note_on_c, 0, 87, 54
2, 29770, Note_on_c, 0, 86, 50
2, 29775, Note_on_c, 0, 87, 0
2, 29824, Note_on_c, 0, 52, 59
2, 29826, Note_on_c, 0, 86, 0
2, 29826, Note_on_c, 0, 80, 0
2, 29832, Note_on_c, 0, 74, 0
2, 29832, Note_on_c, 0, 68, 0
2, 29832, Note_on_c, 0, 53, 0
2, 29832, Note_on_c, 0, 62, 0
2, 29832, Note_on_c, 0, 71, 0
2, 29832, Note_on_c, 0, 56, 0
2, 29832, Note_on_c, 0, 59, 0
2, 29839, Control_c, 0, 64, 0
2, 29873, Note_on_c, 0, 68, 51
2, 29927, Note_on_c, 0, 73, 50
2, 29972, Note_on_c, 0, 58, 42
2, 29972, Note_on_c, 0, 76, 52
2, 30024, Note_on_c, 0, 82, 48
2, 30048, Note_on_c, 0, 61, 42
2, 30057, Control_c, 0, 64, 127
2, 30066, Note_on_c, 0, 80, 49
2, 30077, Note_on_c, 0, 68, 0
2, 30118, Note_on_c, 0, 68, 52
2, 30118, Note_on_c, 0, 85, 47
2, 30156, Note_on_c, 0, 94, 50
2, 30210, Note_on_c, 0, 92, 53
2, 30280, Note_on_c, 0, 51, 51
2, 30285, Note_on_c, 0, 92, 0
2, 30285, Note_on_c, 0, 94, 0
2, 30291, Note_on_c, 0, 68, 0
2, 30291, Note_on_c, 0, 52, 0
2, 30291, Note_on_c, 0, 80, 0
2, 30291, Note_on_c, 0, 76, 0
2, 30291, Note_on_c, 0, 82, 0
2, 30291, Note_on_c, 0, 73, 0
2, 30291, Note_on_c, 0, 85, 0
2, 30291, Note_on_c, 0, 61, 0
2, 30298, Note_on_c, 0, 58, 0
2, 30307, Control_c, 0, 64, 0
2, 30340, Note_on_c, 0, 70, 53
2, 30396, Note_on_c, 0, 73, 48
2, 30450, Note_on_c, 0, 58, 44
2, 30450, Note_on_c, 0, 75, 47
2, 30504, Note_on_c, 0, 80, 52
2, 30517, Control_c, 0, 64, 127
2, 30532, Note_on_c, 0, 61, 47
2, 30557, Note_on_c, 0, 79, 49
2, 30562, Note_on_c, 0, 80, 0
2, 30607, Note_on_c, 0, 85, 51
2, 30614, Note_on_c, 0, 67, 47
2, 30641, Control_c, 0, 67, 127
2, 30659, Note_on_c, 0, 92, 52
2, 30718, Note_on_c, 0, 91, 54
2, 30731, Note_on_c, 0, 92, 0
2, 30796, Control_c, 0, 64, 0
2, 30801, Note_on_c, 0, 48, 53
2, 30806, Note_on_c, 0, 85, 0
2, 30806, Note_on_c, 0, 91, 0
2, 30806, Note_on_c, 0, 79, 0
2, 30806, Note_on_c, 0, 73, 0
2, 30806, Note_on_c, 0, 67, 0
2, 30806, Note_on_c, 0, 75, 0
2, 30806, Note_on_c, 0, 70, 0
2, 30808, Note_on_c, 0, 51, 0
2, 30808, Note_on_c, 0, 61, 0
2, 30815, Note_on_c, 0, 58, 0
2, 30860, Note_on_c, 0, 63, 42
2, 30922, Note_on_c, 0, 68, 48
2, 30971, Note_on_c, 0, 72, 49
2, 30978, Note_on_c, 0, 51, 41
2, 31027, Control_c, 0, 64, 127
2, 31029, Note_on_c, 0, 77, 49
2, 31060, Note_on_c, 0, 56, 48
2, 31079, Note_on_c, 0, 75, 48
2, 31092, Note_on_c, 0, 63, 0
2, 31130, Note_on_c, 0, 63, 47
2, 31130, Note_on_c, 0, 80, 47
2, 31182, Note_on_c, 0, 89, 53
2, 31243, Note_on_c, 0, 87, 53
2, 31328, Note_on_c, 0, 87, 0
2, 31328, Note_on_c, 0, 72, 0
2, 31328, Note_on_c, 0, 89, 0
2, 31328, Note_on_c, 0, 80, 0
2, 31330, Control_c, 0, 64, 0
2, 31330, Note_on_c, 0, 46, 51
2, 31335, Note_on_c, 0, 75, 0
2, 31335, Note_on_c, 0, 56, 0
2, 31335, Note_on_c, 0, 77, 0
2, 31335, Note_on_c, 0, 68, 0
2, 31337, Note_on_c, 0, 51, 0
2, 31337, Note_on_c, 0, 63, 0
2, 31337, Note_on_c, 0, 48, 0
2, 31391, Note_on_c, 0, 61, 41
2, 31442, Note_on_c, 0, 65, 47
2, 31510, Note_on_c, 0, 53, 48
2, 31510, Note_on_c, 0, 68, 52
2, 31559, Control_c, 0, 64, 127
2, 31567, Note_on_c, 0, 75, 50
2, 31594, Note_on_c, 0, 56, 44
2, 31626, Note_on_c, 0, 73, 50
2, 31644, Note_on_c, 0, 61, 0
2, 31684, Note_on_c, 0, 61, 44
2, 31684, Note_on_c, 0, 80, 52
2, 31747, Note_on_c, 0, 87, 44
2, 31814, Note_on_c, 0, 85, 44
2, 31926, Note_on_c, 0, 85, 0
2, 31926, Note_on_c, 0, 87, 0
2, 31926, Note_on_c, 0, 80, 0
2, 31926, Note_on_c, 0, 39, 42
2, 31928, Control_c, 0, 64, 0
2, 31933, Note_on_c, 0, 73, 0
2, 31933, Note_on_c, 0, 53, 0
2, 31933, Note_on_c, 0, 46, 0
2, 31933, Note_on_c, 0, 75, 0
2, 31933, Note_on_c, 0, 65, 0
2, 31933, Note_on_c, 0, 61, 0
2, 31933, Note_on_c, 0, 68, 0
2, 31933, Note_on_c, 0, 56, 0
2, 32003, Note_on_c, 0, 55, 42
2, 32080, Note_on_c, 0, 61, 48
2, 32152, Note_on_c, 0, 51, 45
2, 32152, Note_on_c, 0, 63, 47
2, 32184, Control_c, 0, 64, 127
2, 32235, Note_on_c, 0, 72, 45
2, 32242, Note_on_c, 0, 55, 0
2, 32282, Note_on_c, 0, 55, 48
2, 32316, Note_on_c, 0, 70, 43
2, 32356, Note_on_c, 0, 61, 0
2, 32395, Note_on_c, 0, 75, 42
2, 32401, Note_on_c, 0, 61, 47
2, 32480, Note_on_c, 0, 84, 48
2, 32568, Note_on_c, 0, 82, 41
2, 32754, Note_on_c, 0, 82, 0
2, 32754, Note_on_c, 0, 32, 54
2, 32759, Note_on_c, 0, 84, 0
2, 32759, Note_on_c, 0, 75, 0
2, 32759, Note_on_c, 0, 63, 0
2, 32759, Note_on_c, 0, 61, 0
2, 32759, Note_on_c, 0, 70, 0
2, 32759, Note_on_c, 0, 72, 0
2, 32760, Note_on_c, 0, 51, 0
2, 32760, Note_on_c, 0, 39, 0
2, 32760, Note_on_c, 0, 55, 0
2, 32774, Control_c, 0, 64, 0
2, 32830, Note_on_c, 0, 56, 41
2, 32895, Note_on_c, 0, 60, 41
2, 32957, Note_on_c, 0, 63, 47
2, 32964, Note_on_c, 0, 39, 48
2, 33002, Control_c, 0, 64, 127
2, 33021, Note_on_c, 0, 70, 47
2, 33056, Note_on_c, 0, 44, 46
2, 33081, Note_on_c, 0, 68, 54
2, 33095, Note_on_c, 0, 56, 0
2, 33137, Note_on_c, 0, 72, 50
2, 33139, Note_on_c, 0, 56, 44
2, 33145, Note_on_c, 0, 48, 48
2, 33194, Note_on_c, 0, 82, 48
2, 33219, Note_on_c, 0, 51, 47
2, 33241, Note_on_c, 0, 80, 52
2, 33266, Note_on_c, 0, 56, 0
2, 33307, Note_on_c, 0, 84, 47
2, 33313, Note_on_c, 0, 56, 48
2, 33354, Note_on_c, 0, 94, 50
2, 33408, Note_on_c, 0, 92, 52
2, 33459, Note_on_c, 0, 87, 47
2, 33464, Note_on_c, 0, 84, 0
2, 33506, Note_on_c, 0, 84, 54
2, 33518, Note_on_c, 0, 82, 0
2, 33560, Note_on_c, 0, 80, 0
2, 33560, Note_on_c, 0, 82, 44
2, 33605, Note_on_c, 0, 80, 42
2, 33654, Note_on_c, 0, 75, 43
2, 33659, Note_on_c, 0, 72, 0
2, 33701, Note_on_c, 0, 72, 47
2, 33713, Note_on_c, 0, 68, 0
2, 33753, Note_on_c, 0, 68, 43
2, 33765, Note_on_c, 0, 72, 0
2, 33798, Note_on_c, 0, 72, 47
2, 33812, Note_on_c, 0, 75, 0
2, 33865, Note_on_c, 0, 75, 45
2, 33877, Note_on_c, 0, 80, 0
2, 33926, Note_on_c, 0, 80, 48
2, 33941, Note_on_c, 0, 84, 0
2, 33977, Note_on_c, 0, 84, 41
2, 33992, Note_on_c, 0, 80, 0
2, 34039, Note_on_c, 0, 80, 45
2, 34055, Note_on_c, 0, 75, 0
2, 34090, Note_on_c, 0, 75, 46
2, 34119, Note_on_c, 0, 72, 0
2, 34157, Note_on_c, 0, 72, 46
2, 34189, Note_on_c, 0, 68, 0
2, 34229, Note_on_c, 0, 68, 41
2, 34258, Note_on_c, 0, 63, 0
2, 34300, Note_on_c, 0, 63, 42
2, 34339, Note_on_c, 0, 60, 0
2, 34381, Note_on_c, 0, 60, 42
2, 34428, Note_on_c, 0, 56, 0
2, 34470, Note_on_c, 0, 56, 48
2, 34524, Note_on_c, 0, 51, 0
2, 34566, Note_on_c, 0, 51, 43
2, 34638, Note_on_c, 0, 56, 0
2, 34677, Note_on_c, 0, 56, 47
2, 34769, Note_on_c, 0, 60, 0
2, 34809, Note_on_c, 0, 60, 42
2, 34930, Note_on_c, 0, 63, 0
2, 34968, Note_on_c, 0, 63, 41
2, 35016, Control_c, 0, 67, 0
2, 35081, Note_on_c, 0, 68, 0
2, 35119, Note_on_c, 0, 68, 65
2, 35218, Note_on_c, 0, 70, 0
2, 35263, Note_on_c, 0, 70, 62
2, 35317, Note_on_c, 0, 44, 0
2, 35364, Note_on_c, 0, 44, 48
2, 35371, Note_on_c, 0, 39, 0
2, 35371, Note_on_c, 0, 32, 0
2, 35404, Note_on_c, 0, 72, 0
2, 35418, Control_c, 0, 64, 0
2, 35447, Note_on_c, 0, 72, 65
2, 35451, Note_on_c, 0, 92, 0
2, 35451, Note_on_c, 0, 94, 0
2, 35456, Note_on_c, 0, 84, 0
2, 35456, Note_on_c, 0, 80, 0
2, 35456, Note_on_c, 0, 87, 0
2, 35458, Note_on_c, 0, 68, 0
2, 35458, Note_on_c, 0, 56, 0
2, 35458, Note_on_c, 0, 82, 0
2, 35458, Note_on_c, 0, 70, 0
2, 35458, Note_on_c, 0, 75, 0
2, 35458, Note_on_c, 0, 60, 0
2, 35458, Note_on_c, 0, 63, 0
2, 35460, Note_on_c, 0, 51, 0
2, 35467, Note_on_c, 0, 48, 0
2, 35473, Control_c, 0, 67, 127
2, 35574, Note_on_c, 0, 68, 45
2, 35653, Note_on_c, 0, 63, 47
2, 35662, Control_c, 0, 64, 127
2, 35722, Note_on_c, 0, 60, 44
2, 35734, Note_on_c, 0, 72, 0
2, 35787, Note_on_c, 0, 72, 60
2, 35801, Note_on_c, 0, 63, 0
2, 35843, Note_on_c, 0, 63, 46
2, 35897, Note_on_c, 0, 56, 46
2, 35952, Note_on_c, 0, 51, 44
2, 35968, Note_on_c, 0, 72, 0
2, 35981, Note_on_c, 0, 44, 0
2, 36017, Note_on_c, 0, 44, 48
2, 36022, Note_on_c, 0, 72, 70
2, 36033, Note_on_c, 0, 68, 0
2, 36075, Note_on_c, 0, 68, 47
2, 36087, Note_on_c, 0, 63, 0
2, 36127, Note_on_c, 0, 63, 44
2, 36139, Note_on_c, 0, 60, 0
2, 36161, Note_on_c, 0, 72, 0
2, 36179, Note_on_c, 0, 60, 41
2, 36219, Note_on_c, 0, 72, 64
2, 36226, Note_on_c, 0, 63, 0
2, 36260, Note_on_c, 0, 63, 41
2, 36266, Note_on_c, 0, 56, 0
2, 36309, Note_on_c, 0, 51, 0
2, 36313, Note_on_c, 0, 56, 45
2, 36345, Note_on_c, 0, 44, 0
2, 36350, Note_on_c, 0, 51, 48
2, 36388, Note_on_c, 0, 73, 60
2, 36393, Note_on_c, 0, 44, 42
2, 36400, Note_on_c, 0, 68, 0
2, 36400, Note_on_c, 0, 72, 0
2, 36442, Note_on_c, 0, 68, 43
2, 36449, Note_on_c, 0, 63, 0
2, 36489, Note_on_c, 0, 63, 47
2, 36501, Note_on_c, 0, 60, 0
2, 36541, Note_on_c, 0, 60, 45
2, 36593, Note_on_c, 0, 75, 67
2, 36600, Note_on_c, 0, 63, 0
2, 36604, Note_on_c, 0, 73, 0
2, 36640, Note_on_c, 0, 63, 45
2, 36647, Note_on_c, 0, 56, 0
2, 36687, Note_on_c, 0, 56, 43
2, 36694, Note_on_c, 0, 51, 0
2, 36729, Note_on_c, 0, 51, 47
2, 36783, Note_on_c, 0, 46, 49
2, 36788, Note_on_c, 0, 60, 0
2, 36788, Note_on_c, 0, 68, 0
2, 36790, Note_on_c, 0, 51, 0
2, 36790, Note_on_c, 0, 56, 0
2, 36790, Note_on_c, 0, 44, 0
2, 36790, Note_on_c, 0, 63, 0
2, 36812, Note_on_c, 0, 75, 0
2, 36832, Control_c, 0, 64, 0
2, 36865, Note_on_c, 0, 75, 79
2, 36971, Note_on_c, 0, 67, 46
2, 37032, Note_on_c, 0, 63, 42
2, 37063, Control_c, 0, 64, 127
2, 37099, Note_on_c, 0, 61, 46
2, 37124, Note_on_c, 0, 61, 0
2, 37157, Note_on_c, 0, 61, 41
2, 37216, Note_on_c, 0, 55, 48
2, 37263, Note_on_c, 0, 51, 43
2, 37270, Note_on_c, 0, 46, 0
2, 37317, Note_on_c, 0, 46, 48
2, 37325, Note_on_c, 0, 61, 0
2, 37368, Note_on_c, 0, 61, 43
2, 37374, Note_on_c, 0, 55, 0
2, 37419, Note_on_c, 0, 55, 46
2, 37426, Note_on_c, 0, 51, 0
2, 37466, Note_on_c, 0, 51, 47
2, 37485, Note_on_c, 0, 46, 0
2, 37538, Note_on_c, 0, 46, 44
2, 37590, Note_on_c, 0, 67, 0
2, 37639, Note_on_c, 0, 67, 60
2, 37700, Note_on_c, 0, 63, 0
2, 37735, Note_on_c, 0, 63, 48
2, 37755, Note_on_c, 0, 61, 0
2, 37800, Note_on_c, 0, 61, 43
2, 37812, Note_on_c, 0, 55, 0
2, 37850, Note_on_c, 0, 55, 43
2, 37869, Note_on_c, 0, 46, 0
2, 37916, Note_on_c, 0, 46, 42
2, 37929, Note_on_c, 0, 51, 0
2, 37969, Note_on_c, 0, 51, 44
2, 37988, Note_on_c, 0, 55, 0
2, 38028, Note_on_c, 0, 55, 41
2, 38055, Note_on_c, 0, 61, 0
2, 38097, Note_on_c, 0, 61, 41
2, 38144, Note_on_c, 0, 63, 0
2, 38186, Note_on_c, 0, 63, 70
2, 38222, Note_on_c, 0, 61, 0
2, 38264, Note_on_c, 0, 61, 44
2, 38289, Note_on_c, 0, 55, 0
2, 38321, Control_c, 0, 67, 0
2, 38332, Note_on_c, 0, 55, 42
2, 38361, Note_on_c, 0, 51, 0
2, 38413, Note_on_c, 0, 51, 43
2, 38490, Note_on_c, 0, 70, 59
2, 38495, Control_c, 0, 64, 0
2, 38499, Note_on_c, 0, 43, 49
2, 38501, Note_on_c, 0, 75, 0
2, 38503, Note_on_c, 0, 61, 0
2, 38503, Note_on_c, 0, 63, 0
2, 38503, Note_on_c, 0, 55, 0
2, 38503, Note_on_c, 0, 46, 0
2, 38503, Note_on_c, 0, 67, 0
2, 38503, Note_on_c, 0, 51, 0
2, 38559, Note_on_c, 0, 63, 48
2, 38626, Note_on_c, 0, 61, 44
2, 38671, Note_on_c, 0, 70, 0
2, 38680, Note_on_c, 0, 58, 46
2, 38707, Control_c, 0, 64, 127
2, 38725, Note_on_c, 0, 70, 60
2, 38732, Note_on_c, 0, 61, 0
2, 38774, Note_on_c, 0, 61, 46
2, 38821, Note_on_c, 0, 55, 48
2, 38855, Note_on_c, 0, 70, 0
2, 38861, Note_on_c, 0, 51, 45
2, 38868, Note_on_c, 0, 43, 0
2, 38910, Note_on_c, 0, 43, 43
2, 38912, Note_on_c, 0, 70, 65
2, 38917, Note_on_c, 0, 63, 0
2, 38952, Note_on_c, 0, 63, 46
2, 38957, Note_on_c, 0, 61, 0
2, 38998, Note_on_c, 0, 61, 42
2, 39004, Note_on_c, 0, 58, 0
2, 39026, Note_on_c, 0, 70, 0
2, 39040, Note_on_c, 0, 58, 46
2, 39085, Note_on_c, 0, 70, 65
2, 39092, Note_on_c, 0, 61, 0
2, 39127, Note_on_c, 0, 55, 0
2, 39132, Note_on_c, 0, 61, 46
2, 39164, Note_on_c, 0, 51, 0
2, 39170, Note_on_c, 0, 55, 44
2, 39204, Note_on_c, 0, 43, 0
2, 39204, Note_on_c, 0, 51, 45
2, 39244, Note_on_c, 0, 43, 45
2, 39249, Note_on_c, 0, 72, 65
2, 39261, Note_on_c, 0, 70, 0
2, 39301, Note_on_c, 0, 70, 43
2, 39306, Note_on_c, 0, 63, 0
2, 39346, Note_on_c, 0, 63, 43
2, 39360, Note_on_c, 0, 61, 0
2, 39400, Note_on_c, 0, 61, 46
2, 39477, Note_on_c, 0, 73, 64
2, 39483, Note_on_c, 0, 72, 0
2, 39497, Note_on_c, 0, 63, 0
2, 39530, Note_on_c, 0, 63, 48
2, 39539, Control_c, 0, 67, 127
2, 39554, Note_on_c, 0, 55, 0
2, 39597, Note_on_c, 0, 55, 48
2, 39622, Note_on_c, 0, 51, 0
2, 39662, Note_on_c, 0, 51, 43
2, 39801, Note_on_c, 0, 72, 64
2, 39803, Control_c, 0, 64, 0
2, 39803, Note_on_c, 0, 44, 49
2, 39812, Note_on_c, 0, 63, 0
2, 39812, Note_on_c, 0, 70, 0
2, 39812, Note_on_c, 0, 61, 0
2, 39812, Note_on_c, 0, 73, 0
2, 39814, Note_on_c, 0, 51, 0
2, 39814, Note_on_c, 0, 55, 0
2, 39814, Note_on_c, 0, 43, 0
2, 39818, Note_on_c, 0, 58, 0
2, 39881, Note_on_c, 0, 68, 46
2, 39930, Note_on_c, 0, 63, 48
2, 39975, Note_on_c, 0, 60, 44
2, 39977, Note_on_c, 0, 63, 0
2, 40017, Note_on_c, 0, 63, 42
2, 40019, Control_c, 0, 64, 127
2, 40057, Note_on_c, 0, 56, 44
2, 40096, Note_on_c, 0, 44, 0
2, 40101, Note_on_c, 0, 51, 45
2, 40141, Note_on_c, 0, 60, 0
2, 40143, Note_on_c, 0, 44, 43
2, 40181, Note_on_c, 0, 60, 46
2, 40188, Note_on_c, 0, 56, 0
2, 40226, Note_on_c, 0, 56, 42
2, 40228, Note_on_c, 0, 51, 0
2, 40264, Note_on_c, 0, 51, 47
2, 40271, Note_on_c, 0, 44, 0
2, 40318, Note_on_c, 0, 44, 47
2, 40322, Note_on_c, 0, 56, 0
2, 40361, Note_on_c, 0, 56, 47
2, 40374, Note_on_c, 0, 51, 0
2, 40415, Note_on_c, 0, 51, 46
2, 40466, Note_on_c, 0, 48, 43
2, 40478, Note_on_c, 0, 44, 0
2, 40483, Note_on_c, 0, 60, 0
2, 40518, Note_on_c, 0, 44, 42
2, 40523, Note_on_c, 0, 60, 44
2, 40541, Note_on_c, 0, 56, 0
2, 40582, Note_on_c, 0, 56, 46
2, 40600, Note_on_c, 0, 51, 0
2, 40605, Note_on_c, 0, 63, 0
2, 40633, Note_on_c, 0, 51, 44
2, 40658, Note_on_c, 0, 44, 0
2, 40701, Note_on_c, 0, 44, 45
2, 40756, Note_on_c, 0, 63, 76
2, 40776, Note_on_c, 0, 60, 0
2, 40819, Note_on_c, 0, 60, 41
2, 40827, Note_on_c, 0, 56, 0
2, 40872, Note_on_c, 0, 56, 41
2, 40884, Note_on_c, 0, 51, 0
2, 40920, Note_on_c, 0, 51, 42
2, 40944, Note_on_c, 0, 44, 0
2, 40987, Note_on_c, 0, 44, 50
2, 40989, Note_on_c, 0, 72, 0
2, 41031, Control_c, 0, 64, 0
2, 41049, Note_on_c, 0, 72, 63
2, 41063, Note_on_c, 0, 56, 0
2, 41063, Note_on_c, 0, 51, 0
2, 41063, Note_on_c, 0, 63, 0
2, 41063, Note_on_c, 0, 68, 0
2, 41063, Note_on_c, 0, 60, 0
2, 41064, Note_on_c, 0, 48, 0
2, 41136, Note_on_c, 0, 68, 45
2, 41192, Note_on_c, 0, 63, 42
2, 41239, Note_on_c, 0, 72, 0
2, 41248, Note_on_c, 0, 60, 44
2, 41253, Control_c, 0, 64, 127
2, 41288, Note_on_c, 0, 63, 0
2, 41288, Note_on_c, 0, 72, 66
2, 41330, Note_on_c, 0, 63, 48
2, 41371, Note_on_c, 0, 56, 47
2, 41386, Note_on_c, 0, 72, 0
2, 41406, Note_on_c, 0, 51, 42
2, 41408, Note_on_c, 0, 44, 0
2, 41447, Note_on_c, 0, 72, 70
2, 41453, Note_on_c, 0, 44, 43
2, 41458, Note_on_c, 0, 68, 0
2, 41500, Note_on_c, 0, 68, 42
2, 41505, Note_on_c, 0, 63, 0
2, 41545, Note_on_c, 0, 60, 0
2, 41547, Note_on_c, 0, 63, 48
2, 41572, Note_on_c, 0, 72, 0
2, 41586, Note_on_c, 0, 60, 44
2, 41626, Note_on_c, 0, 63, 0
2, 41633, Note_on_c, 0, 72, 59
2, 41668, Note_on_c, 0, 56, 0
2, 41668, Note_on_c, 0, 63, 43
2, 41700, Note_on_c, 0, 51, 0
2, 41707, Note_on_c, 0, 56, 48
2, 41742, Note_on_c, 0, 44, 0
2, 41742, Note_on_c, 0, 51, 45
2, 41787, Note_on_c, 0, 44, 41
2, 41792, Note_on_c, 0, 68, 0
2, 41792, Note_on_c, 0, 73, 64
2, 41797, Note_on_c, 0, 72, 0
2, 41832, Note_on_c, 0, 68, 45
2, 41839, Note_on_c, 0, 63, 0
2, 41881, Note_on_c, 0, 60, 0
2, 41881, Note_on_c, 0, 63, 42
2, 41922, Note_on_c, 0, 60, 45
2, 41974, Note_on_c, 0, 75, 65
2, 41980, Note_on_c, 0, 63, 0
2, 41987, Note_on_c, 0, 73, 0
2, 42016, Note_on_c, 0, 56, 0
2, 42023, Note_on_c, 0, 63, 46
2, 42058, Note_on_c, 0, 51, 0
2, 42058, Note_on_c, 0, 56, 46
2, 42098, Note_on_c, 0, 51, 46
2, 42100, Note_on_c, 0, 44, 0
2, 42147, Note_on_c, 0, 44, 53
2, 42176, Note_on_c, 0, 75, 0
2, 42228, Control_c, 0, 64, 0
2, 42233, Note_on_c, 0, 75, 79
2, 42244, Note_on_c, 0, 60, 0
2, 42244, Note_on_c, 0, 68, 0
2, 42244, Note_on_c, 0, 63, 0
2, 42244, Note_on_c, 0, 56, 0
2, 42246, Note_on_c, 0, 51, 0
2, 42354, Note_on_c, 0, 68, 43
2, 42434, Note_on_c, 0, 65, 48
2, 42497, Control_c, 0, 64, 127
2, 42502, Note_on_c, 0, 60, 45
2, 42533, Control_c, 0, 67, 0
2, 42567, Note_on_c, 0, 63, 42
2, 42585, Note_on_c, 0, 60, 0
2, 42625, Note_on_c, 0, 60, 42
2, 42686, Note_on_c, 0, 53, 43
2, 42731, Note_on_c, 0, 51, 41
2, 42740, Note_on_c, 0, 44, 0
2, 42787, Note_on_c, 0, 44, 43
2, 42792, Note_on_c, 0, 51, 0
2, 42830, Note_on_c, 0, 51, 43
2, 42837, Note_on_c, 0, 53, 0
2, 42882, Note_on_c, 0, 53, 46
2, 42887, Note_on_c, 0, 60, 0
2, 42927, Note_on_c, 0, 60, 43
2, 42965, Note_on_c, 0, 65, 0
2, 43006, Note_on_c, 0, 65, 63
2, 43021, Note_on_c, 0, 63, 0
2, 43056, Control_c, 0, 67, 127
2, 43061, Note_on_c, 0, 63, 48
2, 43080, Note_on_c, 0, 60, 0
2, 43125, Note_on_c, 0, 60, 43
2, 43136, Note_on_c, 0, 53, 0
2, 43178, Note_on_c, 0, 53, 46
2, 43192, Note_on_c, 0, 44, 0
2, 43232, Note_on_c, 0, 44, 44
2, 43257, Note_on_c, 0, 51, 0
2, 43297, Note_on_c, 0, 51, 47
2, 43322, Note_on_c, 0, 53, 0
2, 43369, Note_on_c, 0, 53, 41
2, 43385, Note_on_c, 0, 60, 0
2, 43439, Note_on_c, 0, 60, 42
2, 43465, Note_on_c, 0, 65, 0
2, 43512, Note_on_c, 0, 65, 65
2, 43546, Note_on_c, 0, 60, 0
2, 43591, Note_on_c, 0, 60, 43
2, 43630, Note_on_c, 0, 53, 0
2, 43679, Note_on_c, 0, 53, 44
2, 43707, Note_on_c, 0, 51, 0
2, 43752, Note_on_c, 0, 51, 46
2, 43833, Note_on_c, 0, 70, 47
2, 43838, Control_c, 0, 64, 0
2, 43840, Note_on_c, 0, 75, 0
2, 43840, Note_on_c, 0, 46, 50
2, 43847, Note_on_c, 0, 51, 0
2, 43847, Note_on_c, 0, 53, 0
2, 43847, Note_on_c, 0, 65, 0
2, 43847, Note_on_c, 0, 68, 0
2, 43847, Note_on_c, 0, 63, 0
2, 43847, Note_on_c, 0, 60, 0
2, 43848, Note_on_c, 0, 44, 0
2, 43900, Note_on_c, 0, 65, 45
2, 43968, Note_on_c, 0, 62, 42
2, 44026, Note_on_c, 0, 65, 0
2, 44026, Note_on_c, 0, 56, 42
2, 44060, Control_c, 0, 64, 127
2, 44078, Note_on_c, 0, 65, 59
2, 44091, Note_on_c, 0, 70, 0
2, 44098, Note_on_c, 0, 62, 0
2, 44138, Note_on_c, 0, 56, 0
2, 44138, Note_on_c, 0, 62, 47
2, 44185, Note_on_c, 0, 56, 48
2, 44228, Note_on_c, 0, 53, 44
2, 44232, Note_on_c, 0, 46, 0
2, 44284, Note_on_c, 0, 46, 44
2, 44284, Note_on_c, 0, 67, 62
2, 44298, Note_on_c, 0, 65, 0
2, 44306, Note_on_c, 0, 62, 0
2, 44352, Note_on_c, 0, 62, 46
2, 44407, Note_on_c, 0, 58, 44
2, 44423, Note_on_c, 0, 56, 0
2, 44472, Note_on_c, 0, 56, 46
2, 44542, Note_on_c, 0, 68, 72
2, 44553, Note_on_c, 0, 67, 0
2, 44575, Note_on_c, 0, 62, 0
2, 44617, Note_on_c, 0, 62, 45
2, 44636, Note_on_c, 0, 56, 0
2, 44676, Note_on_c, 0, 56, 46
2, 44694, Note_on_c, 0, 53, 0
2, 44741, Note_on_c, 0, 53, 43
2, 44755, Note_on_c, 0, 46, 0
2, 44800, Note_on_c, 0, 46, 44
2, 44818, Note_on_c, 0, 53, 0
2, 44854, Note_on_c, 0, 53, 43
2, 44882, Note_on_c, 0, 56, 0
2, 44889, Note_on_c, 0, 58, 0
2, 44925, Note_on_c, 0, 56, 43
2, 44925, Note_on_c, 0, 58, 48
2, 44953, Note_on_c, 0, 62, 0
2, 45000, Note_on_c, 0, 62, 43
2, 45063, Note_on_c, 0, 68, 0
2, 45105, Note_on_c, 0, 68, 64
2, 45415, Note_on_c, 0, 67, 63
2, 45429, Note_on_c, 0, 68, 0
2, 45550, Note_on_c, 0, 39, 44
2, 45588, Note_on_c, 0, 67, 0
2, 45624, Control_c, 0, 64, 0
2, 45644, Note_on_c, 0, 67, 61
2, 45646, Note_on_c, 0, 46, 0
2, 45650, Note_on_c, 0, 53, 0
2, 45650, Note_on_c, 0, 56, 0
2, 45650, Note_on_c, 0, 62, 0
2, 45655, Note_on_c, 0, 58, 0
2, 45691, Note_on_c, 0, 46, 43
2, 45761, Note_on_c, 0, 63, 41
2, 45821, Note_on_c, 0, 58, 48
2, 45850, Control_c, 0, 64, 127
2, 45884, Note_on_c, 0, 55, 45
2, 45899, Note_on_c, 0, 58, 0
2, 45937, Note_on_c, 0, 58, 44
2, 45980, Note_on_c, 0, 46, 0
2, 45986, Note_on_c, 0, 51, 47
2, 46029, Note_on_c, 0, 46, 46
2, 46035, Note_on_c, 0, 39, 0
2, 46076, Note_on_c, 0, 39, 42
2, 46080, Note_on_c, 0, 58, 0
2, 46119, Note_on_c, 0, 58, 44
2, 46121, Note_on_c, 0, 55, 0
2, 46168, Note_on_c, 0, 51, 0
2, 46170, Note_on_c, 0, 55, 44
2, 46210, Note_on_c, 0, 51, 47
2, 46219, Note_on_c, 0, 39, 0
2, 46230, Control_c, 0, 67, 0
2, 46257, Note_on_c, 0, 63, 0
2, 46259, Note_on_c, 0, 39, 41
2, 46299, Note_on_c, 0, 63, 42
2, 46306, Note_on_c, 0, 58, 0
2, 46342, Note_on_c, 0, 58, 48
2, 46348, Note_on_c, 0, 55, 0
2, 46389, Note_on_c, 0, 55, 42
2, 46402, Note_on_c, 0, 39, 0
2, 46429, Note_on_c, 0, 67, 0
2, 46442, Note_on_c, 0, 39, 48
2, 46478, Note_on_c, 0, 63, 0
2, 46478, Note_on_c, 0, 67, 51
2, 46518, Note_on_c, 0, 63, 44
2, 46525, Note_on_c, 0, 58, 0
2, 46560, Note_on_c, 0, 58, 47
2, 46562, Note_on_c, 0, 51, 0
2, 46601, Note_on_c, 0, 51, 45
2, 46656, Note_on_c, 0, 70, 72
2, 46668, Note_on_c, 0, 67, 0
2, 46708, Note_on_c, 0, 67, 48
2, 46722, Note_on_c, 0, 63, 0
2, 46762, Note_on_c, 0, 63, 50
2, 46780, Note_on_c, 0, 51, 0
2, 46821, Note_on_c, 0, 51, 50
2, 46906, Note_on_c, 0, 51, 0
2, 46906, Note_on_c, 0, 63, 0
2, 46913, Note_on_c, 0, 39, 0
2, 46940, Control_c, 0, 64, 0
2, 46944, Note_on_c, 0, 75, 74
2, 46946, Note_on_c, 0, 63, 64
2, 46951, Note_on_c, 0, 39, 64
2, 46951, Note_on_c, 0, 51, 63
2, 46956, Note_on_c, 0, 67, 0
2, 46956, Note_on_c, 0, 55, 0
2, 46956, Note_on_c, 0, 70, 0
2, 46958, Note_on_c, 0, 46, 0
2, 46963, Note_on_c, 0, 58, 0
2, 47001, Note_on_c, 0, 70, 48
2, 47053, Note_on_c, 0, 66, 45
2, 47064, Note_on_c, 0, 63, 0
2, 47107, Note_on_c, 0, 63, 48
2, 47129, Note_on_c, 0, 70, 0
2, 47169, Note_on_c, 0, 58, 48
2, 47174, Note_on_c, 0, 70, 69
2, 47176, Control_c, 0, 64, 127
2, 47178, Note_on_c, 0, 94, 70
2, 47180, Note_on_c, 0, 82, 65
2, 47213, Note_on_c, 0, 66, 0
2, 47254, Note_on_c, 0, 66, 44
2, 47272, Note_on_c, 0, 63, 0
2, 47314, Note_on_c, 0, 63, 49
2, 47329, Note_on_c, 0, 58, 0
2, 47365, Note_on_c, 0, 58, 49
2, 47376, Note_on_c, 0, 70, 0
2, 47376, Note_on_c, 0, 80, 65
2, 47376, Note_on_c, 0, 92, 61
2, 47388, Note_on_c, 0, 82, 0
2, 47388, Note_on_c, 0, 94, 0
2, 47413, Note_on_c, 0, 78, 65
2, 47413, Note_on_c, 0, 90, 61
2, 47420, Note_on_c, 0, 70, 63
2, 47424, Note_on_c, 0, 80, 0
2, 47424, Note_on_c, 0, 92, 0
2, 47424, Note_on_c, 0, 66, 0
2, 47473, Note_on_c, 0, 63, 0
2, 47473, Note_on_c, 0, 66, 42
2, 47514, Note_on_c, 0, 58, 0
2, 47514, Note_on_c, 0, 63, 49
2, 47561, Note_on_c, 0, 58, 54
2, 47568, Note_on_c, 0, 39, 0
2, 47590, Note_on_c, 0, 27, 66
2, 47601, Note_on_c, 0, 60, 60
2, 47601, Note_on_c, 0, 72, 78
2, 47606, Note_on_c, 0, 66, 0
2, 47606, Note_on_c, 0, 39, 63
2, 47615, Note_on_c, 0, 70, 0
2, 47621, Note_on_c, 0, 58, 0
2, 47648, Note_on_c, 0, 63, 0
2, 47648, Note_on_c, 0, 66, 41
2, 47688, Note_on_c, 0, 63, 52
2, 47695, Note_on_c, 0, 60, 0
2, 47727, Note_on_c, 0, 90, 0
2, 47729, Note_on_c, 0, 78, 0
2, 47734, Note_on_c, 0, 60, 48
2, 47769, Note_on_c, 0, 58, 48
2, 47778, Note_on_c, 0, 70, 74
2, 47783, Note_on_c, 0, 60, 0
2, 47783, Note_on_c, 0, 78, 76
2, 47783, Note_on_c, 0, 90, 74
2, 47789, Note_on_c, 0, 72, 0
2, 47808, Note_on_c, 0, 66, 0
2, 47846, Note_on_c, 0, 66, 48
2, 47859, Note_on_c, 0, 63, 0
2, 47904, Note_on_c, 0, 63, 48
2, 47923, Note_on_c, 0, 58, 0
2, 47956, Note_on_c, 0, 75, 0
2, 47956, Note_on_c, 0, 58, 48
2, 47975, Note_on_c, 0, 77, 64
2, 47975, Note_on_c, 0, 89, 60
2, 47979, Note_on_c, 0, 90, 0
2, 47986, Note_on_c, 0, 78, 0
2, 48008, Note_on_c, 0, 75, 59
2, 48008, Note_on_c, 0, 87, 64
2, 48013, Note_on_c, 0, 72, 65
2, 48015, Note_on_c, 0, 66, 0
2, 48020, Note_on_c, 0, 77, 0
2, 48020, Note_on_c, 0, 70, 0
2, 48020, Note_on_c, 0, 89, 0
2, 48055, Note_on_c, 0, 66, 48
2, 48062, Note_on_c, 0, 63, 0
2, 48096, Note_on_c, 0, 63, 48
2, 48154, Note_on_c, 0, 60, 54
2, 48166, Note_on_c, 0, 58, 0
2, 48217, Note_on_c, 0, 73, 72
2, 48222, Note_on_c, 0, 46, 47
2, 48222, Note_on_c, 0, 61, 47
2, 48224, Note_on_c, 0, 87, 0
2, 48224, Note_on_c, 0, 72, 0
2, 48226, Note_on_c, 0, 34, 47
2, 48228, Control_c, 0, 64, 0
2, 48230, Note_on_c, 0, 75, 0
2, 48230, Note_on_c, 0, 63, 0
2, 48230, Note_on_c, 0, 66, 0
2, 48230, Note_on_c, 0, 60, 0
2, 48232, Note_on_c, 0, 39, 0
2, 48232, Note_on_c, 0, 51, 0
2, 48232, Note_on_c, 0, 27, 0
2, 48277, Note_on_c, 0, 70, 45
2, 48329, Note_on_c, 0, 61, 0
2, 48329, Note_on_c, 0, 65, 48
2, 48371, Note_on_c, 0, 61, 44
2, 48418, Note_on_c, 0, 61, 0
2, 48418, Note_on_c, 0, 58, 42
2, 48438, Control_c, 0, 64, 127
2, 48456, Note_on_c, 0, 46, 0
2, 48468, Note_on_c, 0, 65, 0
2, 48468, Note_on_c, 0, 61, 44
2, 48510, Note_on_c, 0, 46, 44
2, 48510, Note_on_c, 0, 65, 47
2, 48559, Note_on_c, 0, 61, 0
2, 48559, Note_on_c, 0, 53, 47
2, 48608, Note_on_c, 0, 65, 0
2, 48608, Note_on_c, 0, 61, 53
2, 48644, Note_on_c, 0, 46, 0
2, 48648, Note_on_c, 0, 65, 41
2, 48655, Note_on_c, 0, 70, 0
2, 48696, Note_on_c, 0, 70, 44
2, 48697, Note_on_c, 0, 46, 52
2, 48702, Note_on_c, 0, 58, 0
2, 48744, Note_on_c, 0, 58, 54
2, 48765, Note_on_c, 0, 34, 0
2, 48805, Note_on_c, 0, 65, 0
2, 48807, Note_on_c, 0, 46, 0
2, 48814, Note_on_c, 0, 34, 66
2, 48845, Control_c, 0, 64, 0
2, 48847, Note_on_c, 0, 65, 73
2, 48847, Note_on_c, 0, 77, 73
2, 48854, Note_on_c, 0, 46, 63
2, 48859, Note_on_c, 0, 70, 0
2, 48859, Note_on_c, 0, 73, 0
2, 48859, Note_on_c, 0, 61, 0
2, 48859, Note_on_c, 0, 53, 0
2, 48865, Note_on_c, 0, 58, 0
2, 48901, Note_on_c, 0, 73, 45
2, 48955, Note_on_c, 0, 70, 41
2, 48955, Control_c, 0, 67, 127
2, 48961, Note_on_c, 0, 65, 0
2, 49002, Note_on_c, 0, 65, 43
2, 49051, Note_on_c, 0, 58, 54
2, 49059, Control_c, 0, 64, 127
2, 49086, Note_on_c, 0, 46, 0
2, 49091, Note_on_c, 0, 61, 48
2, 49098, Note_on_c, 0, 65, 0
2, 49133, Note_on_c, 0, 46, 49
2, 49138, Note_on_c, 0, 65, 47
2, 49192, Note_on_c, 0, 53, 54
2, 49203, Note_on_c, 0, 70, 0
2, 49210, Note_on_c, 0, 58, 0
2, 49244, Note_on_c, 0, 58, 49
2, 49244, Note_on_c, 0, 70, 72
2, 49250, Note_on_c, 0, 61, 0
2, 49297, Note_on_c, 0, 61, 52
2, 49302, Note_on_c, 0, 65, 0
2, 49343, Note_on_c, 0, 65, 46
2, 49361, Note_on_c, 0, 53, 0
2, 49406, Note_on_c, 0, 53, 49
2, 49458, Note_on_c, 0, 27, 62
2, 49463, Note_on_c, 0, 34, 0
2, 49494, Control_c, 0, 64, 0
2, 49516, Note_on_c, 0, 75, 78
2, 49523, Note_on_c, 0, 39, 64
2, 49523, Note_on_c, 0, 63, 64
2, 49528, Note_on_c, 0, 65, 0
2, 49528, Note_on_c, 0, 70, 0
2, 49528, Note_on_c, 0, 73, 0
2, 49528, Note_on_c, 0, 77, 0
2, 49530, Note_on_c, 0, 53, 0
2, 49530, Note_on_c, 0, 46, 0
2, 49535, Note_on_c, 0, 58, 0
2, 49535, Note_on_c, 0, 61, 0
2, 49575, Note_on_c, 0, 70, 45
2, 49617, Note_on_c, 0, 66, 44
2, 49624, Note_on_c, 0, 63, 0
2, 49664, Note_on_c, 0, 63, 47
2, 49696, Note_on_c, 0, 70, 0
2, 49709, Control_c, 0, 64, 127
2, 49714, Note_on_c, 0, 58, 53
2, 49743, Note_on_c, 0, 70, 77
2, 49761, Note_on_c, 0, 82, 80
2, 49766, Note_on_c, 0, 94, 77
2, 49793, Note_on_c, 0, 66, 0
2, 49835, Note_on_c, 0, 66, 44
2, 49847, Note_on_c, 0, 63, 0
2, 49889, Note_on_c, 0, 63, 50
2, 49894, Note_on_c, 0, 58, 0
2, 49932, Note_on_c, 0, 58, 53
2, 49939, Note_on_c, 0, 70, 0
2, 49939, Note_on_c, 0, 80, 63
2, 49939, Note_on_c, 0, 92, 61
2, 49950, Note_on_c, 0, 94, 0
2, 49950, Note_on_c, 0, 82, 0
2, 49972, Note_on_c, 0, 90, 62
2, 49979, Note_on_c, 0, 66, 0
2, 49979, Note_on_c, 0, 70, 64
2, 49979, Note_on_c, 0, 78, 63
2, 49984, Note_on_c, 0, 80, 0
2, 49984, Note_on_c, 0, 92, 0
2, 50026, Note_on_c, 0, 63, 0
2, 50026, Note_on_c, 0, 66, 43
2, 50068, Note_on_c, 0, 63, 52
2, 50073, Note_on_c, 0, 58, 0
2, 50109, Note_on_c, 0, 58, 53
2, 50115, Note_on_c, 0, 27, 0
2, 50134, Note_on_c, 0, 39, 0
2, 50156, Note_on_c, 0, 60, 64
2, 50156, Note_on_c, 0, 72, 84
2, 50162, Note_on_c, 0, 27, 66
2, 50167, Note_on_c, 0, 66, 0
2, 50167, Note_on_c, 0, 70, 0
2, 50174, Note_on_c, 0, 58, 0
2, 50179, Note_on_c, 0, 39, 48
2, 50208, Note_on_c, 0, 66, 45
2, 50214, Note_on_c, 0, 63, 0
2, 50255, Note_on_c, 0, 60, 0
2, 50255, Note_on_c, 0, 63, 49
2, 50302, Note_on_c, 0, 60, 49
2, 50313, Note_on_c, 0, 90, 0
2, 50320, Note_on_c, 0, 78, 0
2, 50342, Note_on_c, 0, 58, 53
2, 50355, Note_on_c, 0, 60, 0
2, 50360, Note_on_c, 0, 70, 71
2, 50367, Note_on_c, 0, 78, 76
2, 50372, Note_on_c, 0, 72, 0
2, 50372, Note_on_c, 0, 90, 77
2, 50385, Note_on_c, 0, 66, 0
2, 50424, Note_on_c, 0, 66, 41
2, 50437, Note_on_c, 0, 63, 0
2, 50477, Note_on_c, 0, 63, 53
2, 50489, Note_on_c, 0, 58, 0
2, 50511, Note_on_c, 0, 75, 0
2, 50524, Note_on_c, 0, 58, 53
2, 50529, Note_on_c, 0, 89, 63
2, 50534, Note_on_c, 0, 77, 65
2, 50541, Note_on_c, 0, 90, 0
2, 50547, Note_on_c, 0, 78, 0
2, 50569, Note_on_c, 0, 72, 59
2, 50569, Note_on_c, 0, 75, 64
2, 50569, Note_on_c, 0, 87, 60
2, 50576, Note_on_c, 0, 89, 0
2, 50576, Note_on_c, 0, 70, 0
2, 50581, Note_on_c, 0, 66, 0
2, 50581, Note_on_c, 0, 77, 0
2, 50619, Note_on_c, 0, 66, 46
2, 50621, Note_on_c, 0, 63, 0
2, 50662, Note_on_c, 0, 63, 51
2, 50707, Note_on_c, 0, 60, 54
2, 50725, Note_on_c, 0, 58, 0
2, 50815, Control_c, 0, 64, 0
2, 50820, Note_on_c, 0, 61, 63
2, 50820, Note_on_c, 0, 73, 80
2, 50827, Note_on_c, 0, 87, 0
2, 50827, Note_on_c, 0, 34, 63
2, 50832, Note_on_c, 0, 66, 0
2, 50832, Note_on_c, 0, 60, 0
2, 50832, Note_on_c, 0, 75, 0
2, 50832, Note_on_c, 0, 72, 0
2, 50833, Note_on_c, 0, 63, 0
2, 50833, Note_on_c, 0, 27, 0
2, 50845, Note_on_c, 0, 46, 65
2, 50856, Note_on_c, 0, 39, 0
2, 50875, Note_on_c, 0, 70, 47
2, 50920, Note_on_c, 0, 65, 44
2, 50927, Note_on_c, 0, 61, 0
2, 50969, Note_on_c, 0, 61, 48
2, 51011, Note_on_c, 0, 58, 47
2, 51016, Note_on_c, 0, 61, 0
2, 51036, Control_c, 0, 64, 127
2, 51049, Control_c, 0, 67, 0
2, 51056, Note_on_c, 0, 61, 49
2, 51058, Note_on_c, 0, 46, 0
2, 51063, Note_on_c, 0, 65, 0
2, 51101, Note_on_c, 0, 65, 41
2, 51108, Note_on_c, 0, 46, 52
2, 51157, Note_on_c, 0, 61, 0
2, 51157, Note_on_c, 0, 53, 52
2, 51197, Note_on_c, 0, 65, 0
2, 51199, Note_on_c, 0, 61, 53
2, 51241, Note_on_c, 0, 65, 47
2, 51243, Note_on_c, 0, 46, 0
2, 51252, Note_on_c, 0, 70, 0
2, 51292, Note_on_c, 0, 70, 43
2, 51294, Note_on_c, 0, 46, 49
2, 51310, Note_on_c, 0, 58, 0
2, 51345, Note_on_c, 0, 58, 53
2, 51363, Note_on_c, 0, 46, 0
2, 51363, Note_on_c, 0, 65, 0
2, 51365, Note_on_c, 0, 34, 0
2, 51412, Note_on_c, 0, 34, 60
2, 51412, Note_on_c, 0, 46, 64
2, 51419, Note_on_c, 0, 53, 0
2, 51419, Control_c, 0, 64, 0
2, 51424, Note_on_c, 0, 58, 0
2, 51424, Note_on_c, 0, 65, 63
2, 51431, Note_on_c, 0, 77, 65
2, 51435, Note_on_c, 0, 73, 0
2, 51435, Note_on_c, 0, 61, 0
2, 51442, Note_on_c, 0, 70, 0
2, 51482, Note_on_c, 0, 73, 42
2, 51538, Note_on_c, 0, 70, 43
2, 51550, Note_on_c, 0, 65, 0
2, 51583, Note_on_c, 0, 65, 48
2, 51630, Note_on_c, 0, 58, 52
2, 51635, Control_c, 0, 64, 127
2, 51662, Note_on_c, 0, 46, 0
2, 51673, Note_on_c, 0, 61, 49
2, 51680, Note_on_c, 0, 65, 0
2, 51709, Note_on_c, 0, 46, 47
2, 51718, Note_on_c, 0, 65, 41
2, 51771, Note_on_c, 0, 53, 53
2, 51776, Note_on_c, 0, 70, 0
2, 51783, Note_on_c, 0, 58, 0
2, 51816, Note_on_c, 0, 70, 42
2, 51823, Note_on_c, 0, 58, 54
2, 51841, Note_on_c, 0, 61, 0
2, 51882, Note_on_c, 0, 61, 53
2, 51897, Note_on_c, 0, 65, 0
2, 51937, Note_on_c, 0, 65, 46
2, 51958, Note_on_c, 0, 53, 0
2, 52005, Note_on_c, 0, 53, 47
2, 52052, Note_on_c, 0, 37, 68
2, 52056, Note_on_c, 0, 34, 0
2, 52085, Note_on_c, 0, 70, 0
2, 52092, Control_c, 0, 64, 0
2, 52121, Note_on_c, 0, 82, 84
2, 52123, Note_on_c, 0, 49, 71
2, 52128, Note_on_c, 0, 46, 0
2, 52128, Note_on_c, 0, 70, 81
2, 52132, Note_on_c, 0, 73, 0
2, 52132, Note_on_c, 0, 77, 0
2, 52134, Note_on_c, 0, 53, 0
2, 52134, Note_on_c, 0, 65, 0
2, 52134, Note_on_c, 0, 61, 0
2, 52139, Note_on_c, 0, 58, 0
2, 52175, Note_on_c, 0, 77, 46
2, 52222, Note_on_c, 0, 73, 48
2, 52224, Note_on_c, 0, 70, 0
2, 52271, Note_on_c, 0, 70, 41
2, 52293, Note_on_c, 0, 77, 0
2, 52318, Control_c, 0, 64, 127
2, 52320, Note_on_c, 0, 65, 77
2, 52338, Note_on_c, 0, 77, 75
2, 52349, Note_on_c, 0, 89, 73
2, 52356, Note_on_c, 0, 101, 73
2, 52381, Note_on_c, 0, 73, 0
2, 52421, Note_on_c, 0, 73, 46
2, 52435, Note_on_c, 0, 70, 0
2, 52477, Note_on_c, 0, 70, 41
2, 52488, Note_on_c, 0, 65, 0
2, 52522, Note_on_c, 0, 65, 66
2, 52529, Note_on_c, 0, 77, 0
2, 52536, Note_on_c, 0, 87, 65
2, 52536, Note_on_c, 0, 99, 64
2, 52540, Note_on_c, 0, 101, 0
2, 52540, Note_on_c, 0, 89, 0
2, 52562, Note_on_c, 0, 97, 65
2, 52571, Note_on_c, 0, 73, 0
2, 52571, Note_on_c, 0, 77, 63
2, 52571, Note_on_c, 0, 85, 65
2, 52576, Note_on_c, 0, 87, 0
2, 52576, Note_on_c, 0, 99, 0
2, 52616, Note_on_c, 0, 70, 0
2, 52616, Note_on_c, 0, 73, 43
2, 52658, Note_on_c, 0, 70, 47
2, 52665, Note_on_c, 0, 65, 0
2, 52701, Note_on_c, 0, 65, 45
2, 52734, Note_on_c, 0, 34, 68
2, 52741, Note_on_c, 0, 37, 0
2, 52746, Note_on_c, 0, 67, 73
2, 52746, Note_on_c, 0, 79, 72
2, 52752, Note_on_c, 0, 46, 70
2, 52757, Note_on_c, 0, 73, 0
2, 52757, Note_on_c, 0, 77, 0
2, 52759, Note_on_c, 0, 65, 0
2, 52759, Note_on_c, 0, 49, 0
2, 52800, Note_on_c, 0, 73, 44
2, 52801, Note_on_c, 0, 70, 0
2, 52840, Note_on_c, 0, 70, 48
2, 52847, Note_on_c, 0, 67, 0
2, 52873, Note_on_c, 0, 97, 0
2, 52880, Note_on_c, 0, 85, 0
2, 52889, Note_on_c, 0, 67, 42
2, 52924, Note_on_c, 0, 65, 71
2, 52931, Note_on_c, 0, 67, 0
2, 52931, Note_on_c, 0, 77, 65
2, 52933, Note_on_c, 0, 97, 68
2, 52935, Note_on_c, 0, 85, 70
2, 52940, Note_on_c, 0, 79, 0
2, 52951, Note_on_c, 0, 73, 0
2, 52990, Note_on_c, 0, 73, 48
2, 53003, Note_on_c, 0, 70, 0
2, 53045, Note_on_c, 0, 70, 46
2, 53057, Note_on_c, 0, 65, 0
2, 53090, Note_on_c, 0, 82, 0
2, 53095, Note_on_c, 0, 65, 65
2, 53109, Note_on_c, 0, 84, 61
2, 53109, Note_on_c, 0, 96, 60
2, 53120, Note_on_c, 0, 85, 0
2, 53120, Note_on_c, 0, 97, 0
2, 53149, Note_on_c, 0, 73, 0
2, 53149, Note_on_c, 0, 79, 60
2, 53149, Note_on_c, 0, 82, 59
2, 53149, Note_on_c, 0, 94, 61
2, 53154, Note_on_c, 0, 96, 0
2, 53160, Note_on_c, 0, 84, 0
2, 53162, Note_on_c, 0, 77, 0
2, 53189, Note_on_c, 0, 73, 48
2, 53201, Note_on_c, 0, 70, 0
2, 53243, Note_on_c, 0, 70, 46
2, 53295, Note_on_c, 0, 67, 46
2, 53306, Note_on_c, 0, 65, 0
2, 53397, Control_c, 0, 64, 0
2, 53405, Note_on_c, 0, 80, 67
2, 53407, Note_on_c, 0, 53, 64
2, 53407, Note_on_c, 0, 68, 71
2, 53409, Note_on_c, 0, 73, 0
2, 53409, Note_on_c, 0, 94, 0
2, 53411, Note_on_c, 0, 67, 0
2, 53411, Note_on_c, 0, 79, 0
2, 53411, Note_on_c, 0, 70, 0
2, 53411, Note_on_c, 0, 46, 0
2, 53411, Note_on_c, 0, 82, 0
2, 53411, Note_on_c, 0, 41, 66
2, 53418, Note_on_c, 0, 34, 0
2, 53447, Note_on_c, 0, 77, 42
2, 53494, Note_on_c, 0, 68, 0
2, 53494, Note_on_c, 0, 72, 47
2, 53543, Note_on_c, 0, 68, 48
2, 53585, Note_on_c, 0, 65, 43
2, 53592, Note_on_c, 0, 68, 0
2, 53616, Control_c, 0, 64, 127
2, 53630, Note_on_c, 0, 72, 0
2, 53630, Note_on_c, 0, 68, 47
2, 53639, Note_on_c, 0, 53, 0
2, 53674, Note_on_c, 0, 72, 49
2, 53679, Note_on_c, 0, 53, 47
2, 53721, Note_on_c, 0, 60, 49
2, 53733, Note_on_c, 0, 68, 0
2, 53771, Note_on_c, 0, 72, 0
2, 53771, Note_on_c, 0, 68, 53
2, 53820, Note_on_c, 0, 77, 0
2, 53820, Note_on_c, 0, 53, 0
2, 53820, Note_on_c, 0, 72, 50
2, 53860, Note_on_c, 0, 77, 53
2, 53867, Note_on_c, 0, 53, 53
2, 53872, Note_on_c, 0, 65, 0
2, 53917, Note_on_c, 0, 65, 51
2, 53966, Note_on_c, 0, 72, 0
2, 53966, Note_on_c, 0, 68, 0
2, 53973, Note_on_c, 0, 41, 0
2, 53988, Note_on_c, 0, 84, 78
2, 54006, Note_on_c, 0, 72, 48
2, 54008, Note_on_c, 0, 29, 67
2, 54008, Note_on_c, 0, 68, 46
2, 54010, Note_on_c, 0, 80, 0
2, 54015, Note_on_c, 0, 41, 70
2, 54060, Note_on_c, 0, 80, 42
2, 54073, Note_on_c, 0, 77, 0
2, 54107, Note_on_c, 0, 77, 44
2, 54119, Note_on_c, 0, 72, 0
2, 54166, Note_on_c, 0, 72, 47
2, 54179, Note_on_c, 0, 65, 0
2, 54215, Note_on_c, 0, 65, 45
2, 54219, Note_on_c, 0, 68, 0
2, 54255, Note_on_c, 0, 53, 0
2, 54262, Note_on_c, 0, 72, 0
2, 54262, Note_on_c, 0, 68, 47
2, 54304, Note_on_c, 0, 53, 53
2, 54309, Note_on_c, 0, 60, 0
2, 54309, Note_on_c, 0, 72, 44
2, 54349, Note_on_c, 0, 60, 48
2, 54364, Note_on_c, 0, 77, 0
2, 54364, Note_on_c, 0, 65, 0
2, 54405, Note_on_c, 0, 65, 64
2, 54405, Note_on_c, 0, 77, 62
2, 54418, Note_on_c, 0, 68, 0
2, 54465, Note_on_c, 0, 68, 47
2, 54483, Note_on_c, 0, 72, 0
2, 54530, Note_on_c, 0, 72, 44
2, 54544, Note_on_c, 0, 60, 0
2, 54584, Note_on_c, 0, 60, 47
2, 54636, Note_on_c, 0, 37, 63
2, 54651, Note_on_c, 0, 29, 0
2, 54660, Control_c, 0, 64, 0
2, 54672, Note_on_c, 0, 82, 77
2, 54678, Note_on_c, 0, 70, 77
2, 54680, Note_on_c, 0, 49, 62
2, 54682, Note_on_c, 0, 77, 0
2, 54682, Note_on_c, 0, 72, 0
2, 54682, Note_on_c, 0, 84, 0
2, 54682, Note_on_c, 0, 80, 0
2, 54689, Note_on_c, 0, 68, 0
2, 54689, Note_on_c, 0, 53, 0
2, 54689, Note_on_c, 0, 65, 0
2, 54689, Note_on_c, 0, 60, 0
2, 54689, Note_on_c, 0, 41, 0
2, 54731, Note_on_c, 0, 77, 47
2, 54773, Note_on_c, 0, 73, 47
2, 54787, Note_on_c, 0, 70, 0
2, 54832, Note_on_c, 0, 70, 41
2, 54864, Note_on_c, 0, 77, 0
2, 54877, Control_c, 0, 64, 127
2, 54897, Note_on_c, 0, 77, 77
2, 54899, Note_on_c, 0, 65, 77
2, 54911, Note_on_c, 0, 89, 80
2, 54915, Note_on_c, 0, 101, 83
2, 54934, Note_on_c, 0, 73, 0
2, 54985, Note_on_c, 0, 73, 41
2, 55001, Note_on_c, 0, 70, 0
2, 55043, Note_on_c, 0, 70, 45
2, 55055, Note_on_c, 0, 65, 0
2, 55090, Note_on_c, 0, 65, 60
2, 55095, Note_on_c, 0, 77, 0
2, 55095, Note_on_c, 0, 87, 64
2, 55095, Note_on_c, 0, 99, 64
2, 55106, Note_on_c, 0, 101, 0
2, 55108, Note_on_c, 0, 89, 0
2, 55130, Note_on_c, 0, 97, 66
2, 55137, Note_on_c, 0, 73, 0
2, 55137, Note_on_c, 0, 77, 62
2, 55137, Note_on_c, 0, 85, 65
2, 55142, Note_on_c, 0, 99, 0
2, 55144, Note_on_c, 0, 87, 0
2, 55177, Note_on_c, 0, 70, 0
2, 55184, Note_on_c, 0, 73, 42
2, 55220, Note_on_c, 0, 70, 46
2, 55226, Note_on_c, 0, 65, 0
2, 55260, Note_on_c, 0, 65, 41
2, 55314, Note_on_c, 0, 67, 84
2, 55314, Note_on_c, 0, 79, 77
2, 55319, Note_on_c, 0, 65, 0
2, 55319, Note_on_c, 0, 73, 0
2, 55319, Note_on_c, 0, 77, 0
2, 55320, Note_on_c, 0, 34, 70
2, 55320, Note_on_c, 0, 46, 69
2, 55325, Note_on_c, 0, 49, 0
2, 55327, Note_on_c, 0, 37, 0
2, 55356, Note_on_c, 0, 73, 47
2, 55363, Note_on_c, 0, 70, 0
2, 55405, Note_on_c, 0, 67, 0
2, 55405, Note_on_c, 0, 70, 46
2, 55452, Note_on_c, 0, 67, 41
2, 55457, Note_on_c, 0, 85, 0
2, 55457, Note_on_c, 0, 97, 0
2, 55499, Note_on_c, 0, 65, 66
2, 55511, Note_on_c, 0, 67, 0
2, 55511, Note_on_c, 0, 77, 66
2, 55515, Note_on_c, 0, 79, 0
2, 55515, Note_on_c, 0, 85, 72
2, 55515, Note_on_c, 0, 97, 68
2, 55534, Note_on_c, 0, 73, 0
2, 55574, Note_on_c, 0, 73, 41
2, 55585, Note_on_c, 0, 70, 0
2, 55626, Note_on_c, 0, 70, 46
2, 55634, Note_on_c, 0, 65, 0
2, 55670, Note_on_c, 0, 82, 0
2, 55677, Note_on_c, 0, 65, 59
2, 55681, Note_on_c, 0, 84, 62
2, 55681, Note_on_c, 0, 96, 64
2, 55686, Note_on_c, 0, 97, 0
2, 55693, Note_on_c, 0, 85, 0
2, 55728, Note_on_c, 0, 79, 59
2, 55728, Note_on_c, 0, 82, 62
2, 55728, Note_on_c, 0, 94, 64
2, 55733, Note_on_c, 0, 96, 0
2, 55740, Note_on_c, 0, 84, 0
2, 55742, Note_on_c, 0, 77, 0
2, 55742, Note_on_c, 0, 73, 0
2, 55782, Note_on_c, 0, 73, 43
2, 55796, Note_on_c, 0, 70, 0
2, 55836, Note_on_c, 0, 70, 47
2, 55895, Note_on_c, 0, 67, 44
2, 55906, Note_on_c, 0, 65, 0
2, 55987, Note_on_c, 0, 68, 69
2, 55987, Note_on_c, 0, 80, 69
2, 55992, Control_c, 0, 64, 0
2, 55993, Note_on_c, 0, 41, 65
2, 55993, Note_on_c, 0, 53, 61
2, 56000, Note_on_c, 0, 79, 0
2, 56000, Note_on_c, 0, 67, 0
2, 56000, Note_on_c, 0, 70, 0
2, 56000, Note_on_c, 0, 73, 0
2, 56000, Note_on_c, 0, 82, 0
2, 56000, Note_on_c, 0, 94, 0
2, 56000, Note_on_c, 0, 46, 0
2, 56007, Note_on_c, 0, 34, 0
2, 56040, Note_on_c, 0, 77, 43
2, 56096, Note_on_c, 0, 72, 47
2, 56108, Note_on_c, 0, 68, 0
2, 56148, Note_on_c, 0, 68, 47
2, 56197, Note_on_c, 0, 65, 46
2, 56202, Note_on_c, 0, 68, 0
2, 56213, Control_c, 0, 64, 127
2, 56242, Note_on_c, 0, 72, 0
2, 56244, Note_on_c, 0, 68, 52
2, 56251, Note_on_c, 0, 53, 0
2, 56291, Note_on_c, 0, 72, 50
2, 56298, Note_on_c, 0, 53, 54
2, 56336, Note_on_c, 0, 60, 51
2, 56338, Note_on_c, 0, 68, 0
2, 56378, Note_on_c, 0, 72, 0
2, 56385, Note_on_c, 0, 68, 47
2, 56424, Note_on_c, 0, 53, 0
2, 56425, Note_on_c, 0, 77, 0
2, 56425, Note_on_c, 0, 72, 49
2, 56466, Note_on_c, 0, 77, 52
2, 56468, Note_on_c, 0, 53, 52
2, 56479, Note_on_c, 0, 65, 0
2, 56521, Note_on_c, 0, 65, 50
2, 56530, Note_on_c, 0, 80, 0
2, 56550, Note_on_c, 0, 68, 0
2, 56586, Note_on_c, 0, 80, 67
2, 56592, Note_on_c, 0, 51, 61
2, 56592, Note_on_c, 0, 68, 70
2, 56597, Note_on_c, 0, 72, 0
2, 56597, Note_on_c, 0, 77, 0
2, 56597, Note_on_c, 0, 39, 60
2, 56599, Note_on_c, 0, 53, 0
2, 56599, Control_c, 0, 64, 0
2, 56604, Note_on_c, 0, 65, 0
2, 56604, Note_on_c, 0, 41, 0
2, 56604, Note_on_c, 0, 60, 0
2, 56638, Note_on_c, 0, 77, 47
2, 56685, Note_on_c, 0, 68, 0
2, 56685, Note_on_c, 0, 72, 42
2, 56727, Note_on_c, 0, 68, 43
2, 56762, Note_on_c, 0, 68, 0
2, 56767, Note_on_c, 0, 65, 41
2, 56803, Note_on_c, 0, 72, 0
2, 56803, Note_on_c, 0, 68, 41
2, 56809, Note_on_c, 0, 51, 0
2, 56811, Control_c, 0, 64, 127
2, 56850, Note_on_c, 0, 72, 48
2, 56852, Note_on_c, 0, 51, 47
2, 56899, Note_on_c, 0, 60, 49
2, 56917, Note_on_c, 0, 68, 0
2, 56959, Note_on_c, 0, 68, 50
2, 56981, Note_on_c, 0, 72, 0
2, 57024, Note_on_c, 0, 72, 48
2, 57057, Note_on_c, 0, 77, 0
2, 57059, Note_on_c, 0, 51, 0
2, 57099, Note_on_c, 0, 77, 48
2, 57101, Note_on_c, 0, 51, 47
2, 57130, Note_on_c, 0, 65, 0
2, 57172, Note_on_c, 0, 65, 48
2, 57269, Note_on_c, 0, 38, 51
2, 57281, Note_on_c, 0, 80, 0
2, 57286, Note_on_c, 0, 39, 0
2, 57321, Control_c, 0, 64, 0
2, 57339, Note_on_c, 0, 80, 83
2, 57353, Note_on_c, 0, 65, 0
2, 57353, Note_on_c, 0, 72, 0
2, 57353, Note_on_c, 0, 60, 0
2, 57353, Note_on_c, 0, 68, 0
2, 57353, Note_on_c, 0, 77, 0
2, 57361, Note_on_c, 0, 50, 49
2, 57366, Note_on_c, 0, 51, 0
2, 57432, Note_on_c, 0, 77, 42
2, 57512, Note_on_c, 0, 71, 48
2, 57552, Control_c, 0, 64, 127
2, 57577, Note_on_c, 0, 65, 43
2, 57598, Note_on_c, 0, 50, 0
2, 57645, Note_on_c, 0, 50, 48
2, 57690, Note_on_c, 0, 53, 47
2, 57739, Note_on_c, 0, 59, 45
2, 57791, Note_on_c, 0, 80, 0
2, 57792, Note_on_c, 0, 62, 48
2, 57824, Note_on_c, 0, 80, 60
2, 57842, Note_on_c, 0, 77, 0
2, 57876, Note_on_c, 0, 77, 48
2, 57883, Note_on_c, 0, 71, 0
2, 57925, Note_on_c, 0, 71, 42
2, 57936, Note_on_c, 0, 65, 0
2, 57977, Note_on_c, 0, 65, 46
2, 58029, Note_on_c, 0, 36, 57
2, 58033, Note_on_c, 0, 38, 0
2, 58087, Control_c, 0, 64, 0
2, 58103, Note_on_c, 0, 84, 84
2, 58114, Note_on_c, 0, 77, 0
2, 58114, Note_on_c, 0, 71, 0
2, 58114, Note_on_c, 0, 80, 0
2, 58121, Note_on_c, 0, 62, 0
2, 58121, Note_on_c, 0, 53, 0
2, 58121, Note_on_c, 0, 65, 0
2, 58121, Note_on_c, 0, 59, 0
2, 58121, Note_on_c, 0, 50, 0
2, 58183, Note_on_c, 0, 80, 41
2, 58248, Note_on_c, 0, 77, 43
2, 58322, Note_on_c, 0, 68, 44
2, 58341, Control_c, 0, 64, 127
2, 58379, Note_on_c, 0, 82, 63
2, 58388, Note_on_c, 0, 48, 48
2, 58392, Note_on_c, 0, 84, 0
2, 58433, Note_on_c, 0, 53, 48
2, 58475, Note_on_c, 0, 56, 42
2, 58522, Note_on_c, 0, 60, 47
2, 58534, Note_on_c, 0, 80, 0
2, 58589, Note_on_c, 0, 80, 59
2, 58598, Note_on_c, 0, 82, 0
2, 58609, Note_on_c, 0, 77, 0
2, 58650, Note_on_c, 0, 77, 46
2, 58715, Note_on_c, 0, 72, 46
2, 58792, Note_on_c, 0, 65, 43
2, 58899, Control_c, 0, 64, 0
2, 58904, Note_on_c, 0, 79, 79
2, 58909, Note_on_c, 0, 80, 0
2, 58911, Note_on_c, 0, 35, 49
2, 58911, Note_on_c, 0, 47, 52
2, 58913, Note_on_c, 0, 72, 0
2, 58913, Note_on_c, 0, 77, 0
2, 58913, Note_on_c, 0, 60, 0
2, 58913, Note_on_c, 0, 68, 0
2, 58915, Note_on_c, 0, 65, 0
2, 58915, Note_on_c, 0, 56, 0
2, 58915, Note_on_c, 0, 53, 0
2, 58915, Note_on_c, 0, 48, 0
2, 58921, Note_on_c, 0, 36, 0
2, 58989, Note_on_c, 0, 77, 48
2, 59069, Note_on_c, 0, 74, 46
2, 59105, Control_c, 0, 64, 127
2, 59143, Note_on_c, 0, 65, 43
2, 59172, Note_on_c, 0, 47, 0
2, 59212, Note_on_c, 0, 47, 43
2, 59259, Note_on_c, 0, 50, 48
2, 59311, Note_on_c, 0, 55, 45
2, 59365, Note_on_c, 0, 59, 43
2, 59394, Control_c, 0, 67, 127
2, 59414, Note_on_c, 0, 62, 46
2, 59421, Note_on_c, 0, 66, 65
2, 59425, Note_on_c, 0, 65, 0
2, 59471, Note_on_c, 0, 67, 63
2, 59479, Note_on_c, 0, 66, 0
2, 59515, Note_on_c, 0, 70, 59
2, 59521, Note_on_c, 0, 67, 0
2, 59568, Note_on_c, 0, 68, 60
2, 59575, Note_on_c, 0, 70, 0
2, 59617, Note_on_c, 0, 67, 61
2, 59629, Note_on_c, 0, 68, 0
2, 59634, Note_on_c, 0, 79, 0
2, 59679, Note_on_c, 0, 47, 0
2, 59684, Note_on_c, 0, 35, 0
2, 59695, Note_on_c, 0, 79, 82
2, 59700, Note_on_c, 0, 77, 0
2, 59700, Note_on_c, 0, 74, 0
2, 59705, Note_on_c, 0, 67, 0
2, 59707, Note_on_c, 0, 62, 0
2, 59707, Note_on_c, 0, 55, 0
2, 59707, Note_on_c, 0, 59, 0
2, 59707, Note_on_c, 0, 50, 0
2, 59712, Control_c, 0, 64, 0
2, 59723, Note_on_c, 0, 47, 41
2, 59730, Note_on_c, 0, 35, 42
2, 59790, Note_on_c, 0, 77, 44
2, 59882, Note_on_c, 0, 74, 42
2, 59945, Note_on_c, 0, 65, 47
2, 59950, Control_c, 0, 64, 127
2, 59958, Note_on_c, 0, 47, 0
2, 60005, Note_on_c, 0, 47, 43
2, 60057, Note_on_c, 0, 50, 46
2, 60111, Note_on_c, 0, 55, 42
2, 60160, Note_on_c, 0, 79, 0
2, 60162, Note_on_c, 0, 59, 46
2, 60214, Note_on_c, 0, 62, 47
2, 60218, Note_on_c, 0, 79, 80
2, 60290, Note_on_c, 0, 77, 0
2, 60336, Note_on_c, 0, 77, 42
2, 60394, Note_on_c, 0, 74, 0
2, 60434, Note_on_c, 0, 74, 48
2, 60486, Note_on_c, 0, 65, 0
2, 60527, Note_on_c, 0, 65, 41
2, 60624, Note_on_c, 0, 79, 0
2, 60682, Note_on_c, 0, 79, 80
2, 60696, Note_on_c, 0, 77, 0
2, 60696, Note_on_c, 0, 74, 0
2, 60700, Note_on_c, 0, 48, 48
2, 60702, Control_c, 0, 64, 0
2, 60707, Note_on_c, 0, 36, 51
2, 60712, Note_on_c, 0, 59, 0
2, 60712, Note_on_c, 0, 62, 0
2, 60712, Note_on_c, 0, 55, 0
2, 60712, Note_on_c, 0, 65, 0
2, 60712, Note_on_c, 0, 47, 0
2, 60714, Note_on_c, 0, 35, 0
2, 60719, Note_on_c, 0, 50, 0
2, 60811, Note_on_c, 0, 75, 44
2, 60898, Note_on_c, 0, 72, 41
2, 60954, Control_c, 0, 64, 127
2, 60983, Note_on_c, 0, 63, 47
2, 61014, Note_on_c, 0, 48, 0
2, 61046, Control_c, 0, 67, 0
2, 61055, Note_on_c, 0, 48, 44
2, 61113, Note_on_c, 0, 51, 43
2, 61174, Note_on_c, 0, 55, 47
2, 61232, Note_on_c, 0, 60, 41
2, 61244, Note_on_c, 0, 79, 0
2, 61250, Note_on_c, 0, 63, 0
2, 61284, Note_on_c, 0, 79, 64
2, 61291, Note_on_c, 0, 63, 45
2, 61316, Note_on_c, 0, 75, 0
2, 61351, Note_on_c, 0, 75, 44
2, 61385, Note_on_c, 0, 72, 0
2, 61427, Note_on_c, 0, 72, 43
2, 61467, Note_on_c, 0, 63, 0
2, 61508, Note_on_c, 0, 63, 53
2, 61615, Control_c, 0, 64, 0
2, 61617, Note_on_c, 0, 82, 84
2, 61622, Note_on_c, 0, 79, 0
2, 61629, Note_on_c, 0, 75, 0
2, 61629, Note_on_c, 0, 72, 0
2, 61631, Note_on_c, 0, 34, 52
2, 61631, Note_on_c, 0, 46, 52
2, 61635, Note_on_c, 0, 60, 0
2, 61635, Note_on_c, 0, 55, 0
2, 61635, Note_on_c, 0, 51, 0
2, 61642, Note_on_c, 0, 63, 0
2, 61642, Note_on_c, 0, 36, 0
2, 61642, Note_on_c, 0, 48, 0
2, 61714, Note_on_c, 0, 75, 45
2, 61808, Note_on_c, 0, 70, 45
2, 61835, Control_c, 0, 64, 127
2, 61891, Note_on_c, 0, 67, 42
2, 61922, Note_on_c, 0, 46, 0
2, 61969, Note_on_c, 0, 46, 48
2, 61976, Note_on_c, 0, 80, 60
2, 61978, Note_on_c, 0, 82, 0
2, 62030, Note_on_c, 0, 51, 43
2, 62102, Note_on_c, 0, 55, 44
2, 62167, Note_on_c, 0, 58, 45
2, 62234, Note_on_c, 0, 63, 47
2, 62239, Note_on_c, 0, 79, 61
2, 62253, Note_on_c, 0, 80, 0
2, 62281, Note_on_c, 0, 75, 0
2, 62327, Note_on_c, 0, 75, 44
2, 62365, Note_on_c, 0, 70, 0
2, 62407, Note_on_c, 0, 70, 48
2, 62443, Note_on_c, 0, 63, 0
2, 62490, Note_on_c, 0, 63, 48
2, 62627, Note_on_c, 0, 77, 66
2, 62632, Note_on_c, 0, 75, 0
2, 62632, Note_on_c, 0, 70, 0
2, 62632, Note_on_c, 0, 79, 0
2, 62634, Note_on_c, 0, 46, 0
2, 62634, Note_on_c, 0, 67, 0
2, 62636, Control_c, 0, 64, 0
2, 62640, Note_on_c, 0, 55, 0
2, 62640, Note_on_c, 0, 63, 0
2, 62640, Note_on_c, 0, 51, 0
2, 62640, Note_on_c, 0, 33, 51
2, 62640, Note_on_c, 0, 45, 49
2, 62645, Note_on_c, 0, 58, 0
2, 62647, Control_c, 0, 67, 127
2, 62652, Note_on_c, 0, 34, 0
2, 62722, Note_on_c, 0, 75, 44
2, 62814, Note_on_c, 0, 72, 42
2, 62855, Control_c, 0, 64, 127
2, 62897, Note_on_c, 0, 63, 47
2, 62917, Note_on_c, 0, 45, 0
2, 62957, Note_on_c, 0, 45, 48
2, 63013, Note_on_c, 0, 48, 44
2, 63067, Note_on_c, 0, 53, 45
2, 63122, Note_on_c, 0, 60, 42
2, 63127, Note_on_c, 0, 63, 0
2, 63169, Note_on_c, 0, 63, 45
2, 63185, Note_on_c, 0, 75, 0
2, 63196, Control_c, 0, 67, 0
2, 63228, Note_on_c, 0, 75, 44
2, 63240, Note_on_c, 0, 72, 0
2, 63280, Note_on_c, 0, 72, 43
2, 63291, Note_on_c, 0, 63, 0
2, 63338, Note_on_c, 0, 63, 53
2, 63347, Control_c, 0, 64, 0
2, 63352, Note_on_c, 0, 35, 49
2, 63357, Note_on_c, 0, 77, 0
2, 63363, Note_on_c, 0, 33, 0
2, 63410, Note_on_c, 0, 77, 75
2, 63417, Note_on_c, 0, 47, 47
2, 63422, Note_on_c, 0, 72, 0
2, 63422, Note_on_c, 0, 63, 0
2, 63422, Note_on_c, 0, 53, 0
2, 63422, Note_on_c, 0, 60, 0
2, 63422, Note_on_c, 0, 48, 0
2, 63422, Note_on_c, 0, 45, 0
2, 63422, Note_on_c, 0, 75, 0
2, 63471, Note_on_c, 0, 74, 46
2, 63531, Note_on_c, 0, 67, 43
2, 63580, Control_c, 0, 64, 127
2, 63592, Note_on_c, 0, 47, 0
2, 63592, Note_on_c, 0, 62, 42
2, 63637, Note_on_c, 0, 47, 46
2, 63689, Note_on_c, 0, 50, 47
2, 63734, Note_on_c, 0, 55, 43
2, 63794, Note_on_c, 0, 59, 41
2, 63799, Note_on_c, 0, 62, 0
2, 63804, Note_on_c, 0, 77, 0
2, 63842, Note_on_c, 0, 62, 45
2, 63842, Note_on_c, 0, 65, 78
2, 63847, Note_on_c, 0, 77, 84
2, 63865, Note_on_c, 0, 74, 0
2, 63912, Note_on_c, 0, 74, 48
2, 63924, Note_on_c, 0, 67, 0
2, 63966, Note_on_c, 0, 67, 48
2, 63984, Note_on_c, 0, 65, 0
2, 64023, Note_on_c, 0, 65, 43
2, 64048, Control_c, 0, 64, 0
2, 64050, Note_on_c, 0, 36, 50
2, 64058, Note_on_c, 0, 35, 0
2, 64074, Note_on_c, 0, 63, 53
2, 64074, Note_on_c, 0, 75, 76
2, 64076, Note_on_c, 0, 48, 50
2, 64080, Note_on_c, 0, 47, 0
2, 64085, Note_on_c, 0, 65, 0
2, 64085, Note_on_c, 0, 77, 0
2, 64085, Note_on_c, 0, 62, 0
2, 64085, Note_on_c, 0, 74, 0
2, 64085, Note_on_c, 0, 67, 0
2, 64085, Note_on_c, 0, 59, 0
2, 64087, Note_on_c, 0, 55, 0
2, 64087, Note_on_c, 0, 50, 0
2, 64128, Note_on_c, 0, 72, 44
2, 64176, Note_on_c, 0, 63, 0
2, 64176, Note_on_c, 0, 67, 44
2, 64217, Note_on_c, 0, 63, 53
2, 64266, Control_c, 0, 64, 127
2, 64271, Note_on_c, 0, 48, 0
2, 64271, Note_on_c, 0, 43, 48
2, 64313, Note_on_c, 0, 48, 53
2, 64351, Note_on_c, 0, 51, 49
2, 64390, Note_on_c, 0, 55, 47
2, 64396, Note_on_c, 0, 75, 0
2, 64401, Note_on_c, 0, 63, 0
2, 64437, Note_on_c, 0, 60, 54
2, 64437, Note_on_c, 0, 63, 50
2, 64437, Note_on_c, 0, 75, 70
2, 64441, Note_on_c, 0, 72, 0
2, 64480, Note_on_c, 0, 67, 0
2, 64482, Note_on_c, 0, 72, 43
2, 64527, Note_on_c, 0, 63, 0
2, 64527, Note_on_c, 0, 67, 41
2, 64567, Note_on_c, 0, 63, 48
2, 64574, Note_on_c, 0, 29, 48
2, 64585, Note_on_c, 0, 36, 0
2, 64592, Note_on_c, 0, 63, 0
2, 64594, Control_c, 0, 64, 0
2, 64626, Note_on_c, 0, 63, 52
2, 64634, Note_on_c, 0, 41, 54
2, 64639, Note_on_c, 0, 75, 0
2, 64639, Note_on_c, 0, 60, 0
2, 64639, Note_on_c, 0, 67, 0
2, 64641, Note_on_c, 0, 51, 0
2, 64641, Note_on_c, 0, 55, 0
2, 64641, Note_on_c, 0, 43, 0
2, 64643, Note_on_c, 0, 72, 0
2, 64645, Note_on_c, 0, 48, 0
2, 64672, Note_on_c, 0, 75, 74
2, 64728, Note_on_c, 0, 72, 45
2, 64788, Note_on_c, 0, 63, 0
2, 64788, Note_on_c, 0, 68, 44
2, 64808, Control_c, 0, 64, 127
2, 64828, Note_on_c, 0, 63, 54
2, 64837, Note_on_c, 0, 41, 0
2, 64875, Note_on_c, 0, 74, 65
2, 64877, Note_on_c, 0, 41, 48
2, 64882, Note_on_c, 0, 75, 0
2, 64882, Note_on_c, 0, 62, 54
2, 64897, Note_on_c, 0, 63, 0
2, 64926, Note_on_c, 0, 48, 48
2, 64968, Note_on_c, 0, 50, 52
2, 65000, Note_on_c, 0, 72, 0
2, 65014, Note_on_c, 0, 53, 54
2, 65056, Note_on_c, 0, 56, 47
2, 65061, Note_on_c, 0, 60, 49
2, 65061, Note_on_c, 0, 72, 63
2, 65065, Note_on_c, 0, 68, 0
2, 65067, Note_on_c, 0, 74, 0
2, 65067, Note_on_c, 0, 62, 0
2, 65110, Note_on_c, 0, 68, 48
2, 65152, Note_on_c, 0, 63, 53
2, 65163, Note_on_c, 0, 60, 0
2, 65210, Note_on_c, 0, 60, 65
2, 65212, Control_c, 0, 64, 0
2, 65212, Note_on_c, 0, 30, 64
2, 65224, Note_on_c, 0, 29, 0
2, 65231, Note_on_c, 0, 60, 0
2, 65264, Note_on_c, 0, 42, 66
2, 65269, Note_on_c, 0, 60, 64
2, 65276, Note_on_c, 0, 72, 0
2, 65278, Note_on_c, 0, 53, 0
2, 65278, Note_on_c, 0, 41, 0
2, 65282, Note_on_c, 0, 56, 0
2, 65282, Note_on_c, 0, 50, 0
2, 65282, Note_on_c, 0, 48, 0
2, 65316, Note_on_c, 0, 72, 82
2, 65329, Note_on_c, 0, 68, 0
2, 65383, Note_on_c, 0, 69, 43
2, 65390, Note_on_c, 0, 63, 0
2, 65430, Note_on_c, 0, 63, 53
2, 65435, Control_c, 0, 64, 127
2, 65437, Note_on_c, 0, 60, 0
2, 65477, Note_on_c, 0, 60, 54
2, 65479, Note_on_c, 0, 42, 0
2, 65520, Note_on_c, 0, 42, 52
2, 65562, Note_on_c, 0, 48, 47
2, 65602, Note_on_c, 0, 51, 50
2, 65642, Note_on_c, 0, 60, 0
2, 65642, Note_on_c, 0, 57, 54
2, 65689, Note_on_c, 0, 69, 0
2, 65689, Note_on_c, 0, 60, 49
2, 65730, Note_on_c, 0, 69, 51
2, 65736, Note_on_c, 0, 63, 0
2, 65779, Note_on_c, 0, 60, 0
2, 65779, Note_on_c, 0, 63, 53
2, 65819, Note_on_c, 0, 42, 0
2, 65824, Note_on_c, 0, 60, 49
2, 65853, Note_on_c, 0, 48, 0
2, 65859, Note_on_c, 0, 42, 49
2, 65888, Note_on_c, 0, 51, 0
2, 65895, Note_on_c, 0, 48, 47
2, 65935, Note_on_c, 0, 57, 0
2, 65935, Note_on_c, 0, 51, 49
2, 65977, Note_on_c, 0, 60, 0
2, 65977, Note_on_c, 0, 57, 53
2, 66018, Note_on_c, 0, 60, 49
2, 66026, Note_on_c, 0, 69, 0
2, 66069, Note_on_c, 0, 69, 56
2, 66080, Note_on_c, 0, 63, 0
2, 66120, Note_on_c, 0, 63, 49
2, 66127, Note_on_c, 0, 60, 0
2, 66169, Note_on_c, 0, 57, 0
2, 66169, Note_on_c, 0, 60, 54
2, 66216, Note_on_c, 0, 51, 0
2, 66216, Note_on_c, 0, 57, 47
2, 66257, Note_on_c, 0, 51, 50
2, 66264, Note_on_c, 0, 48, 0
2, 66304, Note_on_c, 0, 42, 0
2, 66306, Note_on_c, 0, 48, 48
2, 66353, Note_on_c, 0, 42, 42
2, 66400, Note_on_c, 0, 60, 0
2, 66400, Note_on_c, 0, 72, 0
2, 66452, Note_on_c, 0, 60, 56
2, 66452, Note_on_c, 0, 72, 78
2, 66454, Control_c, 0, 64, 0
2, 66458, Note_on_c, 0, 29, 54
2, 66463, Note_on_c, 0, 69, 0
2, 66465, Note_on_c, 0, 57, 0
2, 66465, Note_on_c, 0, 48, 0
2, 66465, Note_on_c, 0, 51, 0
2, 66465, Note_on_c, 0, 63, 0
2, 66465, Note_on_c, 0, 41, 60
2, 66472, Note_on_c, 0, 30, 0
2, 66477, Note_on_c, 0, 42, 0
2, 66522, Note_on_c, 0, 68, 46
2, 66587, Note_on_c, 0, 65, 43
2, 66599, Note_on_c, 0, 60, 0
2, 66634, Note_on_c, 0, 41, 0
2, 66641, Note_on_c, 0, 60, 48
2, 66679, Control_c, 0, 64, 127
2, 66684, Note_on_c, 0, 41, 54
2, 66722, Note_on_c, 0, 50, 54
2, 66761, Note_on_c, 0, 53, 51
2, 66801, Note_on_c, 0, 60, 0
2, 66806, Note_on_c, 0, 56, 49
2, 66840, Note_on_c, 0, 60, 47
2, 66844, Note_on_c, 0, 68, 0
2, 66885, Note_on_c, 0, 65, 0
2, 66887, Note_on_c, 0, 68, 54
2, 66934, Note_on_c, 0, 60, 0
2, 66934, Note_on_c, 0, 65, 52
2, 66972, Note_on_c, 0, 60, 51
2, 66979, Note_on_c, 0, 41, 0
2, 67019, Note_on_c, 0, 41, 50
2, 67031, Note_on_c, 0, 50, 0
2, 67057, Control_c, 0, 67, 127
2, 67069, Note_on_c, 0, 50, 54
2, 67076, Note_on_c, 0, 53, 0
2, 67121, Note_on_c, 0, 53, 53
2, 67136, Note_on_c, 0, 56, 0
2, 67172, Note_on_c, 0, 56, 48
2, 67178, Note_on_c, 0, 60, 0
2, 67219, Note_on_c, 0, 60, 47
2, 67227, Note_on_c, 0, 68, 0
2, 67268, Note_on_c, 0, 68, 54
2, 67283, Note_on_c, 0, 65, 0
2, 67325, Note_on_c, 0, 65, 56
2, 67339, Note_on_c, 0, 60, 0
2, 67379, Note_on_c, 0, 60, 51
2, 67391, Note_on_c, 0, 56, 0
2, 67433, Note_on_c, 0, 50, 0
2, 67433, Note_on_c, 0, 56, 50
2, 67487, Note_on_c, 0, 50, 52
2, 67540, Note_on_c, 0, 48, 51
2, 67547, Note_on_c, 0, 41, 0
2, 67599, Note_on_c, 0, 41, 49
2, 67601, Note_on_c, 0, 60, 0
2, 67656, Note_on_c, 0, 60, 52
2, 67665, Note_on_c, 0, 56, 0
2, 67667, Note_on_c, 0, 53, 0
2, 67667, Note_on_c, 0, 50, 0
2, 67667, Control_c, 0, 64, 0
2, 67672, Note_on_c, 0, 72, 0
2, 67672, Note_on_c, 0, 48, 0
2, 67717, Note_on_c, 0, 31, 49
2, 67722, Note_on_c, 0, 72, 83
2, 67728, Note_on_c, 0, 29, 0
2, 67733, Note_on_c, 0, 43, 64
2, 67740, Note_on_c, 0, 68, 0
2, 67740, Note_on_c, 0, 41, 0
2, 67740, Note_on_c, 0, 65, 0
2, 67789, Note_on_c, 0, 67, 45
2, 67845, Note_on_c, 0, 60, 0
2, 67845, Note_on_c, 0, 62, 51
2, 67887, Note_on_c, 0, 43, 0
2, 67887, Note_on_c, 0, 60, 47
2, 67889, Control_c, 0, 64, 127
2, 67931, Note_on_c, 0, 43, 49
2, 67976, Note_on_c, 0, 48, 54
2, 68021, Note_on_c, 0, 50, 51
2, 68066, Note_on_c, 0, 60, 0
2, 68066, Note_on_c, 0, 55, 54
2, 68105, Note_on_c, 0, 60, 51
2, 68116, Note_on_c, 0, 67, 0
2, 68159, Note_on_c, 0, 67, 47
2, 68172, Note_on_c, 0, 62, 0
2, 68210, Note_on_c, 0, 62, 54
2, 68224, Note_on_c, 0, 60, 0
2, 68264, Note_on_c, 0, 60, 48
2, 68271, Note_on_c, 0, 43, 0
2, 68311, Note_on_c, 0, 43, 51
2, 68313, Note_on_c, 0, 48, 0
2, 68358, Note_on_c, 0, 50, 0
2, 68360, Note_on_c, 0, 48, 48
2, 68399, Note_on_c, 0, 50, 54
2, 68400, Note_on_c, 0, 55, 0
2, 68441, Note_on_c, 0, 55, 50
2, 68449, Note_on_c, 0, 60, 0
2, 68492, Note_on_c, 0, 60, 48
2, 68503, Note_on_c, 0, 67, 0
2, 68542, Note_on_c, 0, 67, 54
2, 68553, Note_on_c, 0, 62, 0
2, 68600, Note_on_c, 0, 62, 41
2, 68616, Note_on_c, 0, 60, 0
2, 68661, Note_on_c, 0, 60, 41
2, 68672, Note_on_c, 0, 55, 0
2, 68721, Note_on_c, 0, 55, 46
2, 68739, Note_on_c, 0, 50, 0
2, 68780, Note_on_c, 0, 50, 42
2, 68798, Note_on_c, 0, 48, 0
2, 68847, Note_on_c, 0, 48, 44
2, 68867, Note_on_c, 0, 43, 0
2, 68916, Note_on_c, 0, 43, 43
2, 68981, Note_on_c, 0, 43, 0
2, 68986, Note_on_c, 0, 31, 0
2, 68998, Control_c, 0, 64, 0
2, 69011, Note_on_c, 0, 59, 54
2, 69011, Note_on_c, 0, 71, 82
2, 69016, Note_on_c, 0, 60, 0
2, 69018, Note_on_c, 0, 55, 0
2, 69018, Note_on_c, 0, 67, 0
2, 69023, Note_on_c, 0, 62, 0
2, 69023, Note_on_c, 0, 48, 0
2, 69023, Note_on_c, 0, 72, 0
2, 69023, Note_on_c, 0, 50, 0
2, 69029, Note_on_c, 0, 43, 49
2, 69031, Note_on_c, 0, 31, 54
2, 69094, Note_on_c, 0, 67, 47
2, 69179, Note_on_c, 0, 65, 46
2, 69235, Control_c, 0, 64, 127
2, 69253, Note_on_c, 0, 62, 48
2, 69278, Note_on_c, 0, 43, 0
2, 69318, Note_on_c, 0, 43, 41
2, 69365, Note_on_c, 0, 50, 46
2, 69412, Note_on_c, 0, 53, 48
2, 69451, Note_on_c, 0, 59, 0
2, 69451, Note_on_c, 0, 55, 42
2, 69498, Note_on_c, 0, 59, 44
2, 69503, Note_on_c, 0, 67, 0
2, 69543, Note_on_c, 0, 67, 45
2, 69554, Note_on_c, 0, 65, 0
2, 69593, Note_on_c, 0, 65, 46
2, 69613, Note_on_c, 0, 62, 0
2, 69651, Note_on_c, 0, 62, 41
2, 69670, Note_on_c, 0, 43, 0
2, 69717, Note_on_c, 0, 43, 43
2, 69728, Note_on_c, 0, 50, 0
2, 69764, Note_on_c, 0, 50, 46
2, 69782, Note_on_c, 0, 53, 0
2, 69827, Note_on_c, 0, 53, 46
2, 69839, Note_on_c, 0, 55, 0
2, 69879, Note_on_c, 0, 55, 47
2, 69901, Note_on_c, 0, 59, 0
2, 69946, Note_on_c, 0, 59, 41
2, 69966, Note_on_c, 0, 67, 0
2, 70007, Note_on_c, 0, 67, 46
2, 70038, Note_on_c, 0, 65, 0
2, 70083, Note_on_c, 0, 65, 46
2, 70122, Note_on_c, 0, 62, 0
2, 70162, Note_on_c, 0, 62, 42
2, 70207, Note_on_c, 0, 59, 0
2, 70248, Note_on_c, 0, 59, 41
2, 70299, Note_on_c, 0, 53, 0
2, 70342, Note_on_c, 0, 53, 47
2, 70391, Note_on_c, 0, 50, 0
2, 70433, Note_on_c, 0, 50, 46
2, 70480, Note_on_c, 0, 43, 0
2, 70522, Note_on_c, 0, 43, 42
2, 70857, Control_c, 0, 64, 0
2, 70857, Note_on_c, 0, 72, 60
2, 70859, Note_on_c, 0, 60, 48
2, 70864, Note_on_c, 0, 67, 0
2, 70864, Note_on_c, 0, 71, 0
2, 70866, Note_on_c, 0, 24, 51
2, 70871, Note_on_c, 0, 53, 0
2, 70871, Note_on_c, 0, 59, 0
2, 70871, Note_on_c, 0, 65, 0
2, 70871, Note_on_c, 0, 50, 0
2, 70871, Note_on_c, 0, 62, 0
2, 70871, Note_on_c, 0, 55, 0
2, 70872, Note_on_c, 0, 31, 0
2, 70884, Note_on_c, 0, 36, 52
2, 70889, Note_on_c, 0, 43, 0
2, 70979, Note_on_c, 0, 67, 46
2, 71069, Note_on_c, 0, 63, 48
2, 71083, Control_c, 0, 64, 127
2, 71114, Note_on_c, 0, 60, 0
2, 71155, Note_on_c, 0, 60, 42
2, 71208, Note_on_c, 0, 67, 0
2, 71242, Note_on_c, 0, 67, 43
2, 71271, Note_on_c, 0, 75, 60
2, 71282, Note_on_c, 0, 72, 0
2, 71284, Note_on_c, 0, 63, 0
2, 71325, Note_on_c, 0, 63, 44
2, 71353, Note_on_c, 0, 60, 0
2, 71402, Note_on_c, 0, 60, 47
2, 71472, Note_on_c, 0, 55, 46
2, 71497, Note_on_c, 0, 67, 0
2, 71522, Note_on_c, 0, 75, 0
2, 71538, Note_on_c, 0, 67, 42
2, 71563, Note_on_c, 0, 63, 0
2, 71563, Note_on_c, 0, 75, 62
2, 71605, Note_on_c, 0, 63, 44
2, 71616, Note_on_c, 0, 60, 0
2, 71652, Note_on_c, 0, 60, 48
2, 71665, Note_on_c, 0, 55, 0
2, 71706, Note_on_c, 0, 55, 47
2, 71719, Note_on_c, 0, 67, 0
2, 71731, Note_on_c, 0, 75, 0
2, 71760, Note_on_c, 0, 67, 64
2, 71766, Note_on_c, 0, 63, 0
2, 71771, Note_on_c, 0, 75, 64
2, 71809, Note_on_c, 0, 60, 0
2, 71809, Note_on_c, 0, 63, 48
2, 71856, Note_on_c, 0, 55, 0
2, 71856, Note_on_c, 0, 60, 43
2, 71895, Note_on_c, 0, 55, 48
2, 71937, Note_on_c, 0, 63, 0
2, 71942, Note_on_c, 0, 77, 77
2, 71944, Note_on_c, 0, 68, 80
2, 71949, Note_on_c, 0, 75, 0
2, 71951, Note_on_c, 0, 67, 0
2, 71977, Note_on_c, 0, 63, 46
2, 71979, Note_on_c, 0, 60, 0
2, 72015, Note_on_c, 0, 60, 45
2, 72022, Note_on_c, 0, 55, 0
2, 72053, Note_on_c, 0, 55, 47
2, 72082, Note_on_c, 0, 63, 0
2, 72087, Note_on_c, 0, 69, 84
2, 72094, Note_on_c, 0, 78, 80
2, 72098, Note_on_c, 0, 68, 0
2, 72105, Note_on_c, 0, 77, 0
2, 72123, Note_on_c, 0, 60, 0
2, 72123, Note_on_c, 0, 63, 44
2, 72157, Note_on_c, 0, 55, 0
2, 72162, Note_on_c, 0, 60, 44
2, 72197, Note_on_c, 0, 55, 42
2, 72231, Control_c, 0, 64, 0
2, 72242, Note_on_c, 0, 70, 77
2, 72247, Note_on_c, 0, 60, 0
2, 72247, Note_on_c, 0, 69, 0
2, 72247, Note_on_c, 0, 79, 83
2, 72249, Note_on_c, 0, 55, 0
2, 72249, Note_on_c, 0, 63, 0
2, 72254, Note_on_c, 0, 24, 0
2, 72254, Note_on_c, 0, 36, 0
2, 72261, Note_on_c, 0, 78, 0
2, 72279, Note_on_c, 0, 64, 48
2, 72319, Note_on_c, 0, 61, 43
2, 72360, Note_on_c, 0, 55, 42
2, 72407, Note_on_c, 0, 71, 80
2, 72407, Note_on_c, 0, 74, 78
2, 72408, Note_on_c, 0, 79, 0
2, 72417, Note_on_c, 0, 70, 0
2, 72449, Control_c, 0, 64, 127
2, 72457, Note_on_c, 0, 64, 0
2, 72498, Note_on_c, 0, 55, 0
2, 72498, Note_on_c, 0, 59, 48
2, 72503, Note_on_c, 0, 61, 0
2, 72541, Note_on_c, 0, 55, 45
2, 72581, Note_on_c, 0, 70, 61
2, 72581, Note_on_c, 0, 75, 66
2, 72588, Control_c, 0, 64, 0
2, 72593, Note_on_c, 0, 55, 0
2, 72593, Note_on_c, 0, 74, 0
2, 72593, Note_on_c, 0, 59, 0
2, 72593, Note_on_c, 0, 71, 0
2, 72622, Note_on_c, 0, 63, 45
2, 72660, Note_on_c, 0, 58, 42
2, 72702, Note_on_c, 0, 55, 45
2, 72731, Note_on_c, 0, 63, 0
2, 72736, Note_on_c, 0, 68, 61
2, 72736, Note_on_c, 0, 72, 64
2, 72744, Note_on_c, 0, 70, 0
2, 72744, Note_on_c, 0, 55, 0
2, 72744, Note_on_c, 0, 75, 0
2, 72749, Note_on_c, 0, 58, 0
2, 72774, Note_on_c, 0, 63, 48
2, 72808, Control_c, 0, 64, 127
2, 72810, Note_on_c, 0, 60, 42
2, 72859, Note_on_c, 0, 55, 43
2, 72864, Note_on_c, 0, 68, 0
2, 72890, Control_c, 0, 64, 0
2, 72904, Note_on_c, 0, 68, 62
2, 72904, Note_on_c, 0, 74, 61
2, 72911, Note_on_c, 0, 63, 0
2, 72912, Note_on_c, 0, 55, 0
2, 72917, Note_on_c, 0, 72, 0
2, 72917, Note_on_c, 0, 60, 0
2, 72962, Note_on_c, 0, 65, 44
2, 73016, Note_on_c, 0, 62, 47
2, 73075, Note_on_c, 0, 55, 42
2, 73124, Note_on_c, 0, 67, 63
2, 73128, Note_on_c, 0, 71, 66
2, 73135, Note_on_c, 0, 55, 0
2, 73135, Note_on_c, 0, 62, 0
2, 73135, Note_on_c, 0, 68, 0
2, 73135, Note_on_c, 0, 65, 0
2, 73135, Note_on_c, 0, 74, 0
2, 73182, Note_on_c, 0, 65, 42
2, 73223, Control_c, 0, 64, 127
2, 73236, Note_on_c, 0, 62, 44
2, 73290, Note_on_c, 0, 55, 43
2, 73400, Note_on_c, 0, 72, 60
2, 73402, Note_on_c, 0, 60, 45
2, 73404, Control_c, 0, 64, 0
2, 73409, Note_on_c, 0, 24, 47
2, 73409, Note_on_c, 0, 36, 45
2, 73414, Note_on_c, 0, 55, 0
2, 73414, Note_on_c, 0, 62, 0
2, 73414, Note_on_c, 0, 67, 0
2, 73414, Note_on_c, 0, 65, 0
2, 73414, Note_on_c, 0, 71, 0
2, 73467, Note_on_c, 0, 67, 48
2, 73521, Note_on_c, 0, 63, 45
2, 73539, Note_on_c, 0, 60, 0
2, 73578, Note_on_c, 0, 60, 45
2, 73596, Note_on_c, 0, 67, 0
2, 73609, Control_c, 0, 64, 127
2, 73641, Control_c, 0, 67, 0
2, 73643, Note_on_c, 0, 67, 63
2, 73661, Note_on_c, 0, 63, 0
2, 73661, Note_on_c, 0, 75, 66
2, 73680, Note_on_c, 0, 72, 0
2, 73698, Note_on_c, 0, 63, 41
2, 73709, Note_on_c, 0, 60, 0
2, 73754, Note_on_c, 0, 60, 47
2, 73803, Note_on_c, 0, 55, 45
2, 73808, Note_on_c, 0, 75, 0
2, 73820, Note_on_c, 0, 67, 0
2, 73855, Note_on_c, 0, 67, 63
2, 73860, Note_on_c, 0, 63, 0
2, 73860, Note_on_c, 0, 75, 59
2, 73896, Note_on_c, 0, 63, 45
2, 73900, Note_on_c, 0, 60, 0
2, 73943, Note_on_c, 0, 60, 43
2, 73949, Note_on_c, 0, 55, 0
2, 73978, Note_on_c, 0, 75, 0
2, 73990, Note_on_c, 0, 67, 0
2, 73992, Note_on_c, 0, 55, 45
2, 74034, Note_on_c, 0, 63, 0
2, 74034, Note_on_c, 0, 67, 61
2, 74034, Note_on_c, 0, 75, 62
2, 74069, Note_on_c, 0, 60, 0
2, 74074, Note_on_c, 0, 63, 45
2, 74106, Note_on_c, 0, 55, 0
2, 74112, Note_on_c, 0, 60, 48
2, 74148, Note_on_c, 0, 55, 47
2, 74182, Note_on_c, 0, 63, 0
2, 74186, Note_on_c, 0, 75, 0
2, 74186, Note_on_c, 0, 68, 59
2, 74186, Note_on_c, 0, 77, 66
2, 74193, Note_on_c, 0, 67, 0
2, 74218, Note_on_c, 0, 60, 0
2, 74218, Note_on_c, 0, 63, 46
2, 74254, Note_on_c, 0, 55, 0
2, 74260, Note_on_c, 0, 60, 45
2, 74301, Note_on_c, 0, 55, 45
2, 74329, Note_on_c, 0, 63, 0
2, 74336, Note_on_c, 0, 69, 63
2, 74341, Note_on_c, 0, 68, 0
2, 74341, Note_on_c, 0, 78, 66
2, 74348, Note_on_c, 0, 77, 0
2, 74366, Note_on_c, 0, 60, 0
2, 74366, Note_on_c, 0, 63, 48
2, 74401, Note_on_c, 0, 55, 0
2, 74408, Note_on_c, 0, 60, 42
2, 74444, Note_on_c, 0, 55, 46
2, 74475, Control_c, 0, 64, 0
2, 74484, Note_on_c, 0, 79, 61
2, 74491, Note_on_c, 0, 70, 63
2, 74496, Note_on_c, 0, 55, 0
2, 74496, Note_on_c, 0, 69, 0
2, 74496, Note_on_c, 0, 60, 0
2, 74496, Note_on_c, 0, 78, 0
2, 74496, Note_on_c, 0, 63, 0
2, 74500, Note_on_c, 0, 24, 0
2, 74500, Note_on_c, 0, 36, 0
2, 74525, Note_on_c, 0, 64, 44
2, 74566, Note_on_c, 0, 61, 41
2, 74608, Note_on_c, 0, 55, 45
2, 74655, Note_on_c, 0, 71, 61
2, 74655, Note_on_c, 0, 74, 62
2, 74660, Note_on_c, 0, 79, 0
2, 74660, Note_on_c, 0, 70, 0
2, 74680, Control_c, 0, 64, 127
2, 74688, Note_on_c, 0, 65, 44
2, 74702, Note_on_c, 0, 64, 0
2, 74731, Note_on_c, 0, 55, 0
2, 74731, Note_on_c, 0, 59, 48
2, 74737, Note_on_c, 0, 61, 0
2, 74773, Note_on_c, 0, 55, 47
2, 74811, Control_c, 0, 64, 0
2, 74811, Note_on_c, 0, 75, 59
2, 74816, Note_on_c, 0, 70, 66
2, 74823, Note_on_c, 0, 55, 0
2, 74823, Note_on_c, 0, 74, 0
2, 74823, Note_on_c, 0, 71, 0
2, 74823, Note_on_c, 0, 65, 0
2, 74828, Note_on_c, 0, 59, 0
2, 74856, Note_on_c, 0, 63, 42
2, 74897, Note_on_c, 0, 58, 48
2, 74942, Note_on_c, 0, 55, 48
2, 74991, Note_on_c, 0, 68, 64
2, 74991, Note_on_c, 0, 72, 66
2, 74996, Note_on_c, 0, 75, 0
2, 75002, Note_on_c, 0, 55, 0
2, 75002, Note_on_c, 0, 70, 0
2, 75002, Note_on_c, 0, 63, 0
2, 75011, Note_on_c, 0, 58, 0
2, 75033, Note_on_c, 0, 74, 48
2, 75038, Note_on_c, 0, 72, 0
2, 75051, Note_on_c, 0, 63, 45
2, 75065, Control_c, 0, 64, 127
2, 75073, Note_on_c, 0, 72, 47
2, 75085, Note_on_c, 0, 74, 0
2, 75103, Note_on_c, 0, 60, 47
2, 75121, Note_on_c, 0, 71, 50
2, 75126, Note_on_c, 0, 72, 0
2, 75162, Note_on_c, 0, 55, 45
2, 75167, Note_on_c, 0, 68, 0
2, 75167, Note_on_c, 0, 72, 54
2, 75178, Note_on_c, 0, 71, 0
2, 75205, Control_c, 0, 64, 0
2, 75214, Note_on_c, 0, 74, 66
2, 75216, Note_on_c, 0, 68, 64
2, 75224, Note_on_c, 0, 60, 0
2, 75224, Note_on_c, 0, 72, 0
2, 75224, Note_on_c, 0, 63, 0
2, 75226, Note_on_c, 0, 55, 0
2, 75255, Note_on_c, 0, 65, 47
2, 75302, Note_on_c, 0, 62, 48
2, 75344, Note_on_c, 0, 55, 46
2, 75398, Note_on_c, 0, 67, 61
2, 75398, Note_on_c, 0, 71, 66
2, 75409, Note_on_c, 0, 55, 0
2, 75409, Note_on_c, 0, 62, 0
2, 75409, Note_on_c, 0, 68, 0
2, 75409, Note_on_c, 0, 65, 0
2, 75409, Note_on_c, 0, 74, 0
2, 75452, Note_on_c, 0, 65, 43
2, 75512, Control_c, 0, 64, 127
2, 75512, Note_on_c, 0, 62, 46
2, 75573, Note_on_c, 0, 55, 46
2, 75672, Control_c, 0, 64, 0
2, 75680, Note_on_c, 0, 60, 44
2, 75682, Note_on_c, 0, 24, 46
2, 75687, Note_on_c, 0, 72, 62
2, 75694, Note_on_c, 0, 55, 0
2, 75694, Note_on_c, 0, 62, 0
2, 75694, Note_on_c, 0, 65, 0
2, 75694, Note_on_c, 0, 67, 0
2, 75694, Note_on_c, 0, 36, 46
2, 75698, Note_on_c, 0, 71, 0
2, 75747, Note_on_c, 0, 67, 41
2, 75799, Note_on_c, 0, 63, 44
2, 75811, Note_on_c, 0, 60, 0
2, 75898, Note_on_c, 0, 67, 0
2, 75903, Note_on_c, 0, 63, 0
2, 75908, Note_on_c, 0, 60, 62
2, 75946, Control_c, 0, 64, 127
2, 75948, Note_on_c, 0, 58, 41
2, 76000, Note_on_c, 0, 55, 47
2, 76033, Note_on_c, 0, 52, 42
2, 76074, Note_on_c, 0, 61, 71
2, 76087, Note_on_c, 0, 60, 0
2, 76109, Note_on_c, 0, 67, 49
2, 76154, Note_on_c, 0, 70, 47
2, 76190, Note_on_c, 0, 73, 52
2, 76197, Note_on_c, 0, 52, 0
2, 76210, Note_on_c, 0, 72, 0
2, 76228, Control_c, 0, 64, 0
2, 76240, Note_on_c, 0, 60, 75
2, 76245, Note_on_c, 0, 70, 0
2, 76245, Note_on_c, 0, 67, 0
2, 76245, Note_on_c, 0, 55, 0
2, 76249, Note_on_c, 0, 61, 0
2, 76249, Note_on_c, 0, 58, 0
2, 76251, Note_on_c, 0, 24, 0
2, 76251, Note_on_c, 0, 36, 0
2, 76251, Note_on_c, 0, 52, 41
2, 76256, Note_on_c, 0, 40, 45
2, 76281, Note_on_c, 0, 67, 53
2, 76328, Note_on_c, 0, 70, 47
2, 76348, Note_on_c, 0, 67, 0
2, 76370, Note_on_c, 0, 72, 51
2, 76382, Note_on_c, 0, 73, 0
2, 76411, Note_on_c, 0, 67, 70
2, 76442, Note_on_c, 0, 60, 0
2, 76447, Control_c, 0, 64, 127
2, 76449, Note_on_c, 0, 64, 53
2, 76483, Note_on_c, 0, 60, 52
2, 76518, Note_on_c, 0, 70, 0
2, 76525, Note_on_c, 0, 58, 50
2, 76554, Note_on_c, 0, 72, 0
2, 76559, Note_on_c, 0, 70, 70
2, 76592, Note_on_c, 0, 72, 43
2, 76628, Note_on_c, 0, 79, 44
2, 76668, Note_on_c, 0, 82, 47
2, 76715, Control_c, 0, 64, 0
2, 76715, Note_on_c, 0, 68, 65
2, 76720, Note_on_c, 0, 79, 0
2, 76722, Note_on_c, 0, 41, 50
2, 76724, Note_on_c, 0, 82, 0
2, 76724, Note_on_c, 0, 72, 0
2, 76726, Note_on_c, 0, 70, 0
2, 76726, Note_on_c, 0, 64, 0
2, 76726, Note_on_c, 0, 67, 0
2, 76726, Note_on_c, 0, 60, 0
2, 76734, Note_on_c, 0, 40, 0
2, 76734, Note_on_c, 0, 58, 0
2, 76734, Note_on_c, 0, 53, 48
2, 76746, Note_on_c, 0, 52, 0
2, 76768, Note_on_c, 0, 72, 41
2, 76815, Note_on_c, 0, 77, 48
2, 76850, Note_on_c, 0, 80, 41
2, 76886, Note_on_c, 0, 62, 72
2, 76921, Note_on_c, 0, 60, 47
2, 76935, Control_c, 0, 64, 127
2, 76950, Note_on_c, 0, 53, 0
2, 76957, Note_on_c, 0, 56, 47
2, 76997, Note_on_c, 0, 53, 47
2, 77024, Note_on_c, 0, 68, 0
2, 77026, Note_on_c, 0, 63, 63
2, 77038, Note_on_c, 0, 62, 0
2, 77053, Note_on_c, 0, 72, 0
2, 77066, Note_on_c, 0, 68, 47
2, 77098, Note_on_c, 0, 72, 48
2, 77123, Control_c, 0, 64, 0
2, 77128, Note_on_c, 0, 54, 53
2, 77133, Note_on_c, 0, 75, 52
2, 77135, Note_on_c, 0, 42, 48
2, 77136, Note_on_c, 0, 80, 0
2, 77138, Note_on_c, 0, 41, 0
2, 77143, Note_on_c, 0, 77, 0
2, 77143, Note_on_c, 0, 53, 0
2, 77165, Note_on_c, 0, 60, 0
2, 77165, Note_on_c, 0, 62, 71
2, 77167, Note_on_c, 0, 56, 0
2, 77169, Note_on_c, 0, 72, 0
2, 77171, Note_on_c, 0, 68, 0
2, 77171, Note_on_c, 0, 75, 0
2, 77171, Note_on_c, 0, 63, 0
2, 77200, Note_on_c, 0, 69, 51
2, 77229, Note_on_c, 0, 72, 53
2, 77235, Note_on_c, 0, 69, 0
2, 77271, Note_on_c, 0, 74, 52
2, 77306, Note_on_c, 0, 69, 80
2, 77325, Note_on_c, 0, 72, 0
2, 77327, Control_c, 0, 64, 127
2, 77331, Note_on_c, 0, 62, 0
2, 77343, Note_on_c, 0, 66, 47
2, 77375, Note_on_c, 0, 62, 43
2, 77408, Note_on_c, 0, 60, 44
2, 77437, Note_on_c, 0, 74, 0
2, 77446, Note_on_c, 0, 72, 71
2, 77486, Note_on_c, 0, 74, 48
2, 77520, Note_on_c, 0, 81, 48
2, 77555, Note_on_c, 0, 84, 45
2, 77573, Control_c, 0, 64, 0
2, 77580, Note_on_c, 0, 43, 51
2, 77587, Note_on_c, 0, 42, 0
2, 77589, Note_on_c, 0, 74, 0
2, 77591, Note_on_c, 0, 55, 50
2, 77592, Note_on_c, 0, 71, 61
2, 77594, Note_on_c, 0, 54, 0
2, 77599, Note_on_c, 0, 81, 0
2, 77599, Note_on_c, 0, 69, 0
2, 77599, Note_on_c, 0, 84, 0
2, 77599, Note_on_c, 0, 66, 0
2, 77599, Note_on_c, 0, 62, 0
2, 77606, Note_on_c, 0, 60, 0
2, 77611, Note_on_c, 0, 72, 0
2, 77631, Note_on_c, 0, 74, 43
2, 77664, Note_on_c, 0, 79, 46
2, 77700, Note_on_c, 0, 83, 48
2, 77736, Note_on_c, 0, 67, 61
2, 77767, Note_on_c, 0, 65, 41
2, 77781, Control_c, 0, 64, 127
2, 77794, Note_on_c, 0, 62, 50
2, 77830, Note_on_c, 0, 59, 52
2, 77838, Note_on_c, 0, 74, 0
2, 77852, Note_on_c, 0, 68, 72
2, 77867, Note_on_c, 0, 67, 0
2, 77876, Note_on_c, 0, 74, 46
2, 77907, Note_on_c, 0, 77, 43
2, 77912, Note_on_c, 0, 79, 0
2, 77934, Note_on_c, 0, 59, 0
2, 77939, Note_on_c, 0, 80, 41
2, 77961, Control_c, 0, 64, 0
2, 77966, Note_on_c, 0, 47, 59
2, 77975, Note_on_c, 0, 43, 0
2, 77979, Note_on_c, 0, 74, 0
2, 77979, Note_on_c, 0, 59, 61
2, 77986, Note_on_c, 0, 62, 0
2, 77986, Note_on_c, 0, 65, 0
2, 77986, Note_on_c, 0, 55, 0
2, 77986, Note_on_c, 0, 67, 66
2, 77995, Note_on_c, 0, 80, 0
2, 77995, Note_on_c, 0, 83, 0
2, 77997, Note_on_c, 0, 71, 0
2, 77997, Note_on_c, 0, 77, 0
2, 77997, Note_on_c, 0, 68, 0
2, 78028, Note_on_c, 0, 74, 46
2, 78064, Note_on_c, 0, 77, 42
2, 78066, Note_on_c, 0, 74, 0
2, 78099, Note_on_c, 0, 79, 46
2, 78142, Note_on_c, 0, 74, 61
2, 78170, Note_on_c, 0, 67, 0
2, 78177, Note_on_c, 0, 71, 43
2, 78182, Control_c, 0, 64, 127
2, 78217, Note_on_c, 0, 67, 41
2, 78249, Note_on_c, 0, 77, 0
2, 78254, Note_on_c, 0, 65, 42
2, 78283, Note_on_c, 0, 79, 0
2, 78289, Note_on_c, 0, 77, 72
2, 78323, Note_on_c, 0, 79, 44
2, 78365, Note_on_c, 0, 86, 41
2, 78414, Note_on_c, 0, 89, 47
2, 78450, Control_c, 0, 64, 0
2, 78450, Note_on_c, 0, 36, 69
2, 78483, Note_on_c, 0, 79, 0
2, 78483, Note_on_c, 0, 75, 65
2, 78490, Note_on_c, 0, 89, 0
2, 78490, Note_on_c, 0, 86, 0
2, 78495, Note_on_c, 0, 77, 0
2, 78495, Note_on_c, 0, 71, 0
2, 78497, Note_on_c, 0, 67, 0
2, 78497, Note_on_c, 0, 65, 0
2, 78497, Note_on_c, 0, 59, 0
2, 78497, Note_on_c, 0, 74, 0
2, 78497, Note_on_c, 0, 48, 65
2, 78515, Note_on_c, 0, 47, 0
2, 78533, Note_on_c, 0, 79, 43
2, 78569, Note_on_c, 0, 84, 41
2, 78607, Note_on_c, 0, 87, 45
2, 78646, Note_on_c, 0, 71, 61
2, 78674, Control_c, 0, 64, 127
2, 78688, Note_on_c, 0, 67, 48
2, 78726, Note_on_c, 0, 63, 48
2, 78760, Note_on_c, 0, 60, 53
2, 78793, Note_on_c, 0, 75, 0
2, 78793, Note_on_c, 0, 72, 64
2, 78807, Note_on_c, 0, 71, 0
2, 78829, Note_on_c, 0, 79, 0
2, 78836, Note_on_c, 0, 75, 43
2, 78869, Note_on_c, 0, 84, 0
2, 78876, Note_on_c, 0, 79, 42
2, 78903, Note_on_c, 0, 84, 48
2, 78921, Note_on_c, 0, 72, 0
2, 78930, Control_c, 0, 64, 0
2, 78943, Note_on_c, 0, 29, 69
2, 78948, Note_on_c, 0, 36, 0
2, 78961, Note_on_c, 0, 72, 80
2, 78968, Note_on_c, 0, 79, 0
2, 78968, Note_on_c, 0, 87, 0
2, 78970, Note_on_c, 0, 41, 67
2, 78972, Note_on_c, 0, 63, 0
2, 78972, Note_on_c, 0, 75, 0
2, 78972, Note_on_c, 0, 84, 0
2, 78972, Note_on_c, 0, 60, 0
2, 78972, Note_on_c, 0, 67, 0
2, 78974, Note_on_c, 0, 48, 0
2, 79014, Note_on_c, 0, 74, 43
2, 79070, Note_on_c, 0, 80, 48
2, 79117, Note_on_c, 0, 84, 48
2, 79151, Control_c, 0, 64, 127
2, 79164, Note_on_c, 0, 68, 60
2, 79216, Note_on_c, 0, 62, 53
2, 79249, Note_on_c, 0, 60, 50
2, 79290, Note_on_c, 0, 72, 0
2, 79290, Note_on_c, 0, 56, 54
2, 79328, Note_on_c, 0, 74, 0
2, 79328, Note_on_c, 0, 72, 65
2, 79367, Note_on_c, 0, 80, 0
2, 79368, Note_on_c, 0, 74, 43
2, 79416, Note_on_c, 0, 80, 41
2, 79422, Note_on_c, 0, 84, 0
2, 79458, Note_on_c, 0, 84, 41
2, 79476, Note_on_c, 0, 72, 0
2, 79494, Control_c, 0, 64, 0
2, 79510, Note_on_c, 0, 72, 83
2, 79512, Note_on_c, 0, 43, 52
2, 79516, Note_on_c, 0, 41, 0
2, 79521, Note_on_c, 0, 80, 0
2, 79521, Note_on_c, 0, 60, 0
2, 79521, Note_on_c, 0, 74, 0
2, 79521, Note_on_c, 0, 84, 0
2, 79521, Note_on_c, 0, 68, 0
2, 79523, Note_on_c, 0, 29, 0
2, 79523, Note_on_c, 0, 62, 0
2, 79523, Note_on_c, 0, 56, 0
2, 79557, Note_on_c, 0, 75, 44
2, 79599, Note_on_c, 0, 79, 48
2, 79646, Note_on_c, 0, 84, 45
2, 79691, Note_on_c, 0, 63, 61
2, 79711, Control_c, 0, 64, 127
2, 79725, Note_on_c, 0, 60, 42
2, 79770, Note_on_c, 0, 55, 44
2, 79805, Note_on_c, 0, 51, 48
2, 79839, Note_on_c, 0, 72, 0
2, 79839, Note_on_c, 0, 67, 59
2, 79872, Note_on_c, 0, 75, 0
2, 79872, Note_on_c, 0, 72, 45
2, 79906, Note_on_c, 0, 79, 0
2, 79913, Note_on_c, 0, 75, 44
2, 79948, Note_on_c, 0, 79, 42
2, 79960, Note_on_c, 0, 43, 0
2, 79960, Note_on_c, 0, 67, 0
2, 79985, Control_c, 0, 64, 0
2, 80000, Note_on_c, 0, 67, 84
2, 80005, Note_on_c, 0, 79, 0
2, 80005, Note_on_c, 0, 43, 48
2, 80007, Note_on_c, 0, 31, 50
2, 80009, Note_on_c, 0, 55, 0
2, 80009, Note_on_c, 0, 75, 0
2, 80009, Note_on_c, 0, 84, 0
2, 80009, Note_on_c, 0, 63, 0
2, 80009, Note_on_c, 0, 60, 0
2, 80011, Note_on_c, 0, 51, 0
2, 80013, Note_on_c, 0, 72, 0
2, 80051, Note_on_c, 0, 71, 45
2, 80096, Control_c, 0, 67, 127
2, 80098, Note_on_c, 0, 74, 54
2, 80138, Note_on_c, 0, 79, 50
2, 80185, Note_on_c, 0, 62, 65
2, 80212, Control_c, 0, 64, 127
2, 80237, Note_on_c, 0, 59, 47
2, 80289, Note_on_c, 0, 55, 48
2, 80343, Note_on_c, 0, 53, 47
2, 80385, Note_on_c, 0, 63, 61
2, 80390, Note_on_c, 0, 67, 0
2, 80397, Note_on_c, 0, 62, 0
2, 80439, Note_on_c, 0, 67, 53
2, 80441, Note_on_c, 0, 71, 0
2, 80483, Note_on_c, 0, 71, 49
2, 80535, Note_on_c, 0, 75, 52
2, 80548, Note_on_c, 0, 74, 0
2, 80632, Note_on_c, 0, 24, 51
2, 80643, Note_on_c, 0, 31, 0
2, 80650, Control_c, 0, 64, 0
2, 80670, Note_on_c, 0, 60, 62
2, 80677, Note_on_c, 0, 71, 0
2, 80677, Note_on_c, 0, 75, 0
2, 80677, Note_on_c, 0, 67, 0
2, 80677, Note_on_c, 0, 79, 0
2, 80684, Note_on_c, 0, 53, 0
2, 80684, Note_on_c, 0, 63, 0
2, 80684, Note_on_c, 0, 59, 0
2, 80684, Note_on_c, 0, 55, 0
2, 80686, Note_on_c, 0, 43, 0
2, 80733, Note_on_c, 0, 36, 45
2, 80764, Note_on_c, 0, 63, 43
2, 80832, Note_on_c, 0, 67, 52
2, 80872, Control_c, 0, 64, 127
2, 80894, Note_on_c, 0, 72, 52
2, 80903, Note_on_c, 0, 67, 0
2, 80948, Note_on_c, 0, 67, 48
2, 80959, Note_on_c, 0, 63, 0
2, 80975, Note_on_c, 0, 75, 54
2, 81000, Note_on_c, 0, 63, 45
2, 81011, Note_on_c, 0, 60, 0
2, 81049, Note_on_c, 0, 60, 48
2, 81101, Note_on_c, 0, 75, 0
2, 81101, Note_on_c, 0, 55, 42
2, 81106, Note_on_c, 0, 67, 0
2, 81144, Note_on_c, 0, 67, 62
2, 81151, Note_on_c, 0, 63, 0
2, 81160, Note_on_c, 0, 75, 66
2, 81192, Note_on_c, 0, 63, 43
2, 81196, Note_on_c, 0, 60, 0
2, 81237, Note_on_c, 0, 60, 44
2, 81239, Note_on_c, 0, 55, 0
2, 81270, Note_on_c, 0, 75, 0
2, 81272, Note_on_c, 0, 67, 0
2, 81279, Note_on_c, 0, 55, 48
2, 81312, Note_on_c, 0, 63, 0
2, 81319, Note_on_c, 0, 67, 60
2, 81331, Note_on_c, 0, 75, 65
2, 81351, Note_on_c, 0, 60, 0
2, 81356, Note_on_c, 0, 63, 46
2, 81387, Note_on_c, 0, 55, 0
2, 81392, Note_on_c, 0, 60, 44
2, 81428, Note_on_c, 0, 55, 45
2, 81461, Note_on_c, 0, 63, 0
2, 81468, Note_on_c, 0, 68, 61
2, 81475, Note_on_c, 0, 67, 0
2, 81480, Note_on_c, 0, 77, 60
2, 81493, Note_on_c, 0, 75, 0
2, 81498, Note_on_c, 0, 60, 0
2, 81504, Note_on_c, 0, 63, 44
2, 81540, Note_on_c, 0, 55, 0
2, 81540, Note_on_c, 0, 60, 41
2, 81576, Note_on_c, 0, 55, 46
2, 81616, Note_on_c, 0, 63, 0
2, 81623, Note_on_c, 0, 69, 63
2, 81627, Note_on_c, 0, 68, 0
2, 81629, Note_on_c, 0, 78, 59
2, 81634, Note_on_c, 0, 77, 0
2, 81652, Note_on_c, 0, 60, 0
2, 81657, Note_on_c, 0, 63, 43
2, 81693, Note_on_c, 0, 60, 45
2, 81695, Note_on_c, 0, 55, 0
2, 81728, Note_on_c, 0, 55, 48
2, 81760, Control_c, 0, 64, 0
2, 81775, Note_on_c, 0, 70, 64
2, 81775, Note_on_c, 0, 79, 65
2, 81787, Note_on_c, 0, 55, 0
2, 81787, Note_on_c, 0, 60, 0
2, 81787, Note_on_c, 0, 78, 0
2, 81787, Note_on_c, 0, 63, 0
2, 81787, Note_on_c, 0, 69, 0
2, 81793, Note_on_c, 0, 36, 0
2, 81795, Note_on_c, 0, 24, 0
2, 81797, Note_on_c, 0, 72, 0
2, 81811, Note_on_c, 0, 64, 44
2, 81846, Note_on_c, 0, 61, 47
2, 81882, Note_on_c, 0, 55, 42
2, 81920, Note_on_c, 0, 71, 62
2, 81932, Note_on_c, 0, 74, 61
2, 81934, Note_on_c, 0, 70, 0
2, 81938, Note_on_c, 0, 79, 0
2, 81963, Note_on_c, 0, 65, 44
2, 81970, Note_on_c, 0, 64, 0
2, 81984, Control_c, 0, 64, 127
2, 81992, Note_on_c, 0, 55, 0
2, 81999, Note_on_c, 0, 59, 46
2, 82010, Note_on_c, 0, 61, 0
2, 82035, Note_on_c, 0, 55, 45
2, 82082, Note_on_c, 0, 70, 65
2, 82087, Note_on_c, 0, 75, 62
2, 82089, Note_on_c, 0, 71, 0
2, 82101, Note_on_c, 0, 74, 0
2, 82119, Note_on_c, 0, 63, 47
2, 82132, Note_on_c, 0, 65, 0
2, 82157, Note_on_c, 0, 55, 0
2, 82157, Note_on_c, 0, 58, 43
2, 82169, Note_on_c, 0, 59, 0
2, 82182, Control_c, 0, 64, 0
2, 82200, Note_on_c, 0, 55, 47
2, 82232, Note_on_c, 0, 63, 0
2, 82237, Note_on_c, 0, 68, 60
2, 82237, Note_on_c, 0, 72, 62
2, 82242, Note_on_c, 0, 70, 0
2, 82248, Note_on_c, 0, 55, 0
2, 82248, Note_on_c, 0, 58, 0
2, 82253, Note_on_c, 0, 75, 0
2, 82267, Note_on_c, 0, 63, 41
2, 82316, Note_on_c, 0, 60, 46
2, 82358, Note_on_c, 0, 68, 0
2, 82360, Note_on_c, 0, 55, 47
2, 82405, Note_on_c, 0, 68, 43
2, 82410, Note_on_c, 0, 74, 41
2, 82412, Note_on_c, 0, 55, 0
2, 82412, Note_on_c, 0, 63, 0
2, 82416, Note_on_c, 0, 60, 0
2, 82421, Note_on_c, 0, 72, 0
2, 82457, Note_on_c, 0, 65, 43
2, 82509, Control_c, 0, 64, 127
2, 82511, Note_on_c, 0, 62, 42
2, 82556, Note_on_c, 0, 55, 43
2, 82609, Note_on_c, 0, 67, 65
2, 82614, Note_on_c, 0, 68, 0
2, 82619, Note_on_c, 0, 71, 65
2, 82626, Note_on_c, 0, 65, 0
2, 82631, Note_on_c, 0, 74, 0
2, 82666, Note_on_c, 0, 65, 48
2, 82678, Note_on_c, 0, 62, 0
2, 82718, Note_on_c, 0, 62, 47
2, 82729, Note_on_c, 0, 55, 0
2, 82775, Note_on_c, 0, 55, 43
2, 82898, Control_c, 0, 64, 0
2, 82905, Note_on_c, 0, 24, 48
2, 82910, Note_on_c, 0, 72, 61
2, 82917, Note_on_c, 0, 36, 47
2, 82917, Note_on_c, 0, 60, 49
2, 82921, Note_on_c, 0, 67, 0
2, 82921, Note_on_c, 0, 71, 0
2, 82926, Note_on_c, 0, 65, 0
2, 82928, Note_on_c, 0, 62, 0
2, 82928, Note_on_c, 0, 55, 0
2, 82977, Note_on_c, 0, 67, 48
2, 83026, Note_on_c, 0, 63, 45
2, 83040, Note_on_c, 0, 60, 0
2, 83080, Note_on_c, 0, 60, 46
2, 83087, Note_on_c, 0, 67, 0
2, 83125, Control_c, 0, 64, 127
2, 83134, Note_on_c, 0, 67, 46
2, 83145, Note_on_c, 0, 63, 0
2, 83150, Note_on_c, 0, 75, 64
2, 83161, Note_on_c, 0, 87, 65
2, 83182, Note_on_c, 0, 63, 47
2, 83193, Note_on_c, 0, 60, 0
2, 83240, Note_on_c, 0, 60, 45
2, 83282, Note_on_c, 0, 67, 0
2, 83282, Note_on_c, 0, 55, 43
2, 83287, Note_on_c, 0, 87, 0
2, 83303, Note_on_c, 0, 75, 0
2, 83329, Note_on_c, 0, 63, 0
2, 83329, Note_on_c, 0, 67, 62
2, 83345, Note_on_c, 0, 75, 61
2, 83345, Note_on_c, 0, 87, 60
2, 83363, Note_on_c, 0, 60, 0
2, 83368, Note_on_c, 0, 63, 41
2, 83403, Note_on_c, 0, 55, 0
2, 83408, Note_on_c, 0, 60, 45
2, 83442, Note_on_c, 0, 87, 0
2, 83444, Note_on_c, 0, 67, 0
2, 83444, Note_on_c, 0, 55, 44
2, 83459, Note_on_c, 0, 75, 0
2, 83484, Note_on_c, 0, 63, 0
2, 83484, Note_on_c, 0, 67, 64
2, 83493, Note_on_c, 0, 87, 66
2, 83495, Note_on_c, 0, 75, 63
2, 83520, Note_on_c, 0, 60, 0
2, 83520, Note_on_c, 0, 63, 45
2, 83560, Note_on_c, 0, 60, 48
2, 83562, Note_on_c, 0, 55, 0
2, 83570, Note_on_c, 0, 67, 0
2, 83602, Note_on_c, 0, 55, 48
2, 83607, Note_on_c, 0, 67, 62
2, 83632, Note_on_c, 0, 63, 0
2, 83637, Note_on_c, 0, 68, 60
2, 83641, Note_on_c, 0, 67, 0
2, 83648, Note_on_c, 0, 89, 63
2, 83655, Note_on_c, 0, 77, 66
2, 83660, Note_on_c, 0, 75, 0
2, 83660, Note_on_c, 0, 87, 0
2, 83673, Note_on_c, 0, 60, 0
2, 83673, Note_on_c, 0, 63, 48
2, 83709, Note_on_c, 0, 55, 0
2, 83713, Note_on_c, 0, 60, 46
2, 83749, Note_on_c, 0, 55, 48
2, 83781, Note_on_c, 0, 63, 0
2, 83785, Note_on_c, 0, 69, 60
2, 83787, Note_on_c, 0, 90, 63
2, 83789, Note_on_c, 0, 68, 0
2, 83794, Note_on_c, 0, 78, 64
2, 83801, Note_on_c, 0, 89, 0
2, 83808, Note_on_c, 0, 60, 0
2, 83808, Note_on_c, 0, 77, 0
2, 83819, Note_on_c, 0, 63, 47
2, 83846, Note_on_c, 0, 55, 0
2, 83851, Note_on_c, 0, 60, 45
2, 83884, Note_on_c, 0, 55, 42
2, 83916, Control_c, 0, 64, 0
2, 83931, Note_on_c, 0, 70, 47
2, 83940, Note_on_c, 0, 91, 45
2, 83942, Note_on_c, 0, 60, 0
2, 83942, Note_on_c, 0, 63, 0
2, 83942, Note_on_c, 0, 69, 0
2, 83942, Note_on_c, 0, 79, 46
2, 83944, Note_on_c, 0, 36, 0
2, 83944, Note_on_c, 0, 55, 0
2, 83946, Note_on_c, 0, 90, 0
2, 83951, Note_on_c, 0, 24, 0
2, 83955, Note_on_c, 0, 78, 0
2, 83955, Note_on_c, 0, 72, 0
2, 83967, Note_on_c, 0, 64, 44
2, 84009, Note_on_c, 0, 61, 47
2, 84045, Note_on_c, 0, 55, 41
2, 84094, Note_on_c, 0, 71, 61
2, 84096, Note_on_c, 0, 86, 64
2, 84097, Note_on_c, 0, 70, 0
2, 84097, Note_on_c, 0, 74, 63
2, 84102, Note_on_c, 0, 91, 0
2, 84102, Note_on_c, 0, 79, 0
2, 84127, Note_on_c, 0, 65, 48
2, 84136, Control_c, 0, 64, 127
2, 84138, Note_on_c, 0, 64, 0
2, 84163, Note_on_c, 0, 55, 0
2, 84169, Note_on_c, 0, 59, 43
2, 84174, Note_on_c, 0, 61, 0
2, 84206, Note_on_c, 0, 55, 46
2, 84255, Note_on_c, 0, 70, 63
2, 84255, Note_on_c, 0, 75, 65
2, 84255, Note_on_c, 0, 87, 63
2, 84262, Note_on_c, 0, 71, 0
2, 84266, Note_on_c, 0, 74, 0
2, 84266, Note_on_c, 0, 86, 0
2, 84291, Note_on_c, 0, 63, 44
2, 84298, Note_on_c, 0, 65, 0
2, 84323, Note_on_c, 0, 55, 0
2, 84328, Note_on_c, 0, 58, 41
2, 84341, Note_on_c, 0, 59, 0
2, 84373, Note_on_c, 0, 55, 44
2, 84411, Note_on_c, 0, 63, 0
2, 84411, Note_on_c, 0, 68, 62
2, 84416, Note_on_c, 0, 84, 66
2, 84418, Note_on_c, 0, 70, 0
2, 84418, Note_on_c, 0, 72, 63
2, 84423, Note_on_c, 0, 87, 0
2, 84430, Note_on_c, 0, 75, 0
2, 84458, Note_on_c, 0, 84, 0
2, 84458, Note_on_c, 0, 86, 48
2, 84460, Note_on_c, 0, 63, 42
2, 84501, Note_on_c, 0, 84, 50
2, 84505, Note_on_c, 0, 86, 0
2, 84507, Note_on_c, 0, 60, 48
2, 84514, Note_on_c, 0, 55, 0
2, 84526, Note_on_c, 0, 58, 0
2, 84541, Note_on_c, 0, 84, 0
2, 84546, Note_on_c, 0, 83, 52
2, 84557, Note_on_c, 0, 55, 44
2, 84573, Note_on_c, 0, 68, 0
2, 84584, Note_on_c, 0, 84, 52
2, 84589, Note_on_c, 0, 83, 0
2, 84614, Note_on_c, 0, 68, 63
2, 84619, Control_c, 0, 64, 0
2, 84621, Note_on_c, 0, 74, 65
2, 84621, Note_on_c, 0, 86, 64
2, 84627, Note_on_c, 0, 60, 0
2, 84627, Note_on_c, 0, 63, 0
2, 84629, Note_on_c, 0, 55, 0
2, 84631, Note_on_c, 0, 84, 0
2, 84638, Note_on_c, 0, 72, 0
2, 84663, Note_on_c, 0, 65, 45
2, 84710, Note_on_c, 0, 60, 48
2, 84752, Note_on_c, 0, 55, 46
2, 84797, Note_on_c, 0, 65, 0
2, 84797, Note_on_c, 0, 68, 0
2, 84797, Note_on_c, 0, 67, 62
2, 84802, Note_on_c, 0, 71, 64
2, 84802, Note_on_c, 0, 83, 66
2, 84807, Note_on_c, 0, 86, 0
2, 84814, Note_on_c, 0, 74, 0
2, 84836, Control_c, 0, 64, 127
2, 84838, Note_on_c, 0, 65, 43
2, 84893, Note_on_c, 0, 62, 41
2, 84900, Note_on_c, 0, 60, 0
2, 84907, Note_on_c, 0, 55, 0
2, 84947, Note_on_c, 0, 55, 46
2, 85122, Note_on_c, 0, 84, 61
2, 85128, Control_c, 0, 64, 0
2, 85130, Note_on_c, 0, 72, 65
2, 85137, Note_on_c, 0, 75, 63
2, 85137, Note_on_c, 0, 79, 64
2, 85142, Note_on_c, 0, 83, 0
2, 85144, Note_on_c, 0, 24, 70
2, 85144, Note_on_c, 0, 36, 65
2, 85149, Note_on_c, 0, 62, 0
2, 85149, Note_on_c, 0, 71, 0
2, 85149, Note_on_c, 0, 67, 0
2, 85149, Note_on_c, 0, 55, 0
2, 85149, Note_on_c, 0, 65, 0
2, 85346, Control_c, 0, 64, 127
2, 85402, Note_on_c, 0, 48, 41
2, 85420, Note_on_c, 0, 84, 0
2, 85434, Note_on_c, 0, 54, 41
2, 85452, Note_on_c, 0, 57, 43
2, 85454, Note_on_c, 0, 84, 64
2, 85472, Note_on_c, 0, 63, 45
2, 85497, Note_on_c, 0, 75, 0
2, 85497, Note_on_c, 0, 78, 46
2, 85509, Note_on_c, 0, 79, 0
2, 85513, Control_c, 0, 67, 0
2, 85527, Note_on_c, 0, 48, 0
2, 85532, Note_on_c, 0, 75, 44
2, 85550, Note_on_c, 0, 54, 0
2, 85568, Note_on_c, 0, 84, 0
2, 85575, Note_on_c, 0, 57, 0
2, 85575, Note_on_c, 0, 69, 43
2, 85577, Note_on_c, 0, 48, 46
2, 85592, Note_on_c, 0, 63, 0
2, 85592, Note_on_c, 0, 54, 41
2, 85614, Note_on_c, 0, 84, 61
2, 85616, Note_on_c, 0, 57, 41
2, 85621, Note_on_c, 0, 78, 0
2, 85632, Note_on_c, 0, 63, 45
2, 85661, Note_on_c, 0, 75, 0
2, 85666, Note_on_c, 0, 78, 48
2, 85675, Note_on_c, 0, 48, 0
2, 85695, Note_on_c, 0, 69, 0
2, 85700, Note_on_c, 0, 75, 43
2, 85702, Note_on_c, 0, 54, 0
2, 85713, Note_on_c, 0, 48, 45
2, 85715, Note_on_c, 0, 84, 0
2, 85720, Note_on_c, 0, 57, 0
2, 85738, Note_on_c, 0, 69, 47
2, 85745, Note_on_c, 0, 63, 0
2, 85745, Note_on_c, 0, 54, 47
2, 85760, Note_on_c, 0, 57, 48
2, 85769, Note_on_c, 0, 78, 0
2, 85769, Note_on_c, 0, 84, 71
2, 85782, Note_on_c, 0, 63, 41
2, 85804, Note_on_c, 0, 75, 0
2, 85811, Note_on_c, 0, 78, 54
2, 85818, Note_on_c, 0, 48, 0
2, 85838, Note_on_c, 0, 54, 0
2, 85838, Note_on_c, 0, 69, 0
2, 85843, Note_on_c, 0, 75, 52
2, 85856, Note_on_c, 0, 57, 0
2, 85858, Note_on_c, 0, 48, 48
2, 85880, Note_on_c, 0, 63, 0
2, 85880, Note_on_c, 0, 54, 50
2, 85885, Note_on_c, 0, 69, 53
2, 85898, Note_on_c, 0, 57, 50
2, 85912, Note_on_c, 0, 78, 0
2, 85912, Note_on_c, 0, 86, 66
2, 85919, Note_on_c, 0, 63, 47
2, 85932, Note_on_c, 0, 84, 0
2, 85939, Note_on_c, 0, 48, 0
2, 85947, Note_on_c, 0, 75, 0
2, 85949, Note_on_c, 0, 78, 45
2, 85961, Note_on_c, 0, 54, 0
2, 85979, Note_on_c, 0, 48, 52
2, 85984, Note_on_c, 0, 69, 0
2, 85991, Note_on_c, 0, 75, 45
2, 85992, Note_on_c, 0, 57, 0
2, 86004, Note_on_c, 0, 54, 50
2, 86019, Note_on_c, 0, 63, 0
2, 86028, Note_on_c, 0, 69, 44
2, 86030, Note_on_c, 0, 57, 53
2, 86055, Note_on_c, 0, 63, 50
2, 86060, Note_on_c, 0, 78, 0
2, 86060, Note_on_c, 0, 87, 60
2, 86068, Note_on_c, 0, 86, 0
2, 86082, Note_on_c, 0, 48, 0
2, 86093, Note_on_c, 0, 75, 0
2, 86100, Note_on_c, 0, 78, 44
2, 86112, Note_on_c, 0, 54, 0
2, 86130, Note_on_c, 0, 48, 60
2, 86132, Note_on_c, 0, 75, 46
2, 86136, Note_on_c, 0, 69, 0
2, 86141, Note_on_c, 0, 57, 0
2, 86150, Note_on_c, 0, 87, 0
2, 86152, Note_on_c, 0, 54, 56
2, 86167, Note_on_c, 0, 63, 0
2, 86172, Note_on_c, 0, 69, 48
2, 86181, Note_on_c, 0, 57, 57
2, 86183, Note_on_c, 0, 24, 0
2, 86183, Note_on_c, 0, 36, 0
2, 86183, Control_c, 0, 64, 0
2, 86203, Note_on_c, 0, 87, 77
2, 86209, Note_on_c, 0, 63, 54
2, 86216, Note_on_c, 0, 78, 0
2, 86223, Note_on_c, 0, 75, 0
2, 86223, Note_on_c, 0, 69, 0
2, 86223, Note_on_c, 0, 72, 0
2, 86404, Control_c, 0, 64, 127
2, 86423, Note_on_c, 0, 48, 0
2, 86463, Note_on_c, 0, 36, 64
2, 86463, Note_on_c, 0, 48, 62
2, 86481, Note_on_c, 0, 54, 0
2, 86493, Note_on_c, 0, 39, 53
2, 86493, Note_on_c, 0, 51, 55
2, 86518, Note_on_c, 0, 57, 0
2, 86522, Note_on_c, 0, 54, 54
2, 86524, Note_on_c, 0, 42, 60
2, 86546, Note_on_c, 0, 48, 0
2, 86558, Note_on_c, 0, 57, 54
2, 86565, Note_on_c, 0, 45, 58
2, 86573, Note_on_c, 0, 63, 0
2, 86573, Note_on_c, 0, 51, 0
2, 86587, Note_on_c, 0, 60, 53
2, 86593, Note_on_c, 0, 48, 53
2, 86609, Note_on_c, 0, 54, 0
2, 86616, Note_on_c, 0, 51, 53
2, 86616, Note_on_c, 0, 63, 57
2, 86640, Note_on_c, 0, 57, 0
2, 86649, Note_on_c, 0, 66, 66
2, 86656, Note_on_c, 0, 54, 53
2, 86669, Note_on_c, 0, 60, 0
2, 86681, Note_on_c, 0, 69, 62
2, 86683, Note_on_c, 0, 57, 55
2, 86708, Note_on_c, 0, 60, 54
2, 86708, Note_on_c, 0, 72, 62
2, 86712, Note_on_c, 0, 63, 0
2, 86737, Note_on_c, 0, 66, 0
2, 86744, Note_on_c, 0, 75, 60
2, 86751, Note_on_c, 0, 63, 60
2, 86769, Note_on_c, 0, 69, 0
2, 86774, Note_on_c, 0, 78, 60
2, 86781, Note_on_c, 0, 66, 66
2, 86806, Note_on_c, 0, 60, 0
2, 86810, Note_on_c, 0, 72, 0
2, 86810, Note_on_c, 0, 69, 59
2, 86810, Note_on_c, 0, 81, 59
2, 86844, Note_on_c, 0, 72, 83
2, 86844, Note_on_c, 0, 84, 83
2, 86851, Note_on_c, 0, 60, 76
2, 86965, Note_on_c, 0, 60, 0
2, 86972, Note_on_c, 0, 48, 0
2, 86972, Note_on_c, 0, 36, 0
2, 86990, Control_c, 0, 64, 0
2, 87005, Note_on_c, 0, 60, 75
2, 87010, Note_on_c, 0, 87, 0
2, 87010, Note_on_c, 0, 36, 78
2, 87010, Note_on_c, 0, 48, 72
2, 87015, Note_on_c, 0, 84, 0
2, 87015, Note_on_c, 0, 75, 0
2, 87015, Note_on_c, 0, 81, 0
2, 87015, Note_on_c, 0, 69, 0
2, 87017, Note_on_c, 0, 63, 0
2, 87017, Note_on_c, 0, 72, 0
2, 87017, Note_on_c, 0, 51, 0
2, 87017, Note_on_c, 0, 45, 0
2, 87017, Note_on_c, 0, 54, 0
2, 87017, Note_on_c, 0, 57, 0
2, 87017, Note_on_c, 0, 78, 0
2, 87017, Note_on_c, 0, 66, 0
2, 87025, Note_on_c, 0, 42, 0
2, 87025, Note_on_c, 0, 39, 0
2, 87116, Note_on_c, 0, 48, 0
2, 87151, Note_on_c, 0, 48, 52
2, 87165, Note_on_c, 0, 54, 48
2, 87169, Note_on_c, 0, 84, 77
2, 87183, Note_on_c, 0, 57, 54
2, 87196, Note_on_c, 0, 63, 53
2, 87208, Note_on_c, 0, 78, 45
2, 87221, Control_c, 0, 64, 127
2, 87243, Note_on_c, 0, 75, 47
2, 87245, Note_on_c, 0, 48, 0
2, 87254, Note_on_c, 0, 54, 0
2, 87265, Note_on_c, 0, 84, 0
2, 87272, Note_on_c, 0, 57, 0
2, 87279, Note_on_c, 0, 69, 73
2, 87286, Note_on_c, 0, 63, 0
2, 87286, Note_on_c, 0, 48, 53
2, 87297, Note_on_c, 0, 54, 48
2, 87309, Note_on_c, 0, 57, 49
2, 87320, Note_on_c, 0, 78, 0
2, 87320, Note_on_c, 0, 84, 71
2, 87327, Note_on_c, 0, 63, 52
2, 87352, Note_on_c, 0, 75, 0
2, 87363, Note_on_c, 0, 78, 45
2, 87372, Note_on_c, 0, 48, 0
2, 87381, Note_on_c, 0, 69, 0
2, 87387, Note_on_c, 0, 75, 41
2, 87394, Note_on_c, 0, 54, 0
2, 87406, Note_on_c, 0, 84, 0
2, 87406, Note_on_c, 0, 57, 0
2, 87414, Note_on_c, 0, 48, 53
2, 87419, Note_on_c, 0, 63, 0
2, 87426, Note_on_c, 0, 69, 74
2, 87437, Note_on_c, 0, 54, 49
2, 87449, Note_on_c, 0, 57, 49
2, 87460, Note_on_c, 0, 78, 0
2, 87460, Note_on_c, 0, 63, 54
2, 87460, Note_on_c, 0, 84, 72
2, 87487, Note_on_c, 0, 75, 0
2, 87494, Note_on_c, 0, 78, 48
2, 87507, Note_on_c, 0, 48, 0
2, 87519, Note_on_c, 0, 69, 0
2, 87526, Note_on_c, 0, 54, 0
2, 87526, Note_on_c, 0, 75, 46
2, 87537, Note_on_c, 0, 57, 0
2, 87549, Note_on_c, 0, 48, 50
2, 87555, Note_on_c, 0, 63, 0
2, 87560, Note_on_c, 0, 69, 72
2, 87569, Note_on_c, 0, 54, 52
2, 87584, Note_on_c, 0, 57, 47
2, 87591, Note_on_c, 0, 86, 66
2, 87596, Note_on_c, 0, 63, 47
2, 87602, Note_on_c, 0, 84, 0
2, 87623, Note_on_c, 0, 81, 47
2, 87624, Note_on_c, 0, 78, 0
2, 87638, Note_on_c, 0, 48, 0
2, 87656, Note_on_c, 0, 54, 0
2, 87661, Note_on_c, 0, 69, 0
2, 87668, Note_on_c, 0, 78, 42
2, 87679, Note_on_c, 0, 57, 0
2, 87679, Note_on_c, 0, 48, 50
2, 87695, Note_on_c, 0, 63, 0
2, 87703, Note_on_c, 0, 54, 50
2, 87710, Note_on_c, 0, 69, 65
2, 87721, Note_on_c, 0, 57, 53
2, 87730, Note_on_c, 0, 63, 54
2, 87730, Note_on_c, 0, 87, 69
2, 87737, Note_on_c, 0, 78, 0
2, 87742, Note_on_c, 0, 86, 0
2, 87773, Note_on_c, 0, 75, 0
2, 87778, Note_on_c, 0, 78, 48
2, 87785, Note_on_c, 0, 48, 0
2, 87810, Note_on_c, 0, 54, 0
2, 87815, Note_on_c, 0, 69, 0
2, 87815, Note_on_c, 0, 75, 48
2, 87826, Note_on_c, 0, 48, 48
2, 87833, Note_on_c, 0, 57, 0
2, 87841, Note_on_c, 0, 87, 0
2, 87848, Note_on_c, 0, 63, 0
2, 87848, Note_on_c, 0, 54, 51
2, 87853, Note_on_c, 0, 69, 45
2, 87866, Note_on_c, 0, 57, 52
2, 87882, Note_on_c, 0, 87, 81
2, 87888, Note_on_c, 0, 63, 47
2, 88104, Note_on_c, 0, 48, 0
2, 88111, Note_on_c, 0, 36, 0
2, 88147, Note_on_c, 0, 48, 72
2, 88152, Note_on_c, 0, 36, 65
2, 88163, Note_on_c, 0, 54, 0
2, 88175, Note_on_c, 0, 39, 53
2, 88175, Note_on_c, 0, 51, 47
2, 88200, Note_on_c, 0, 57, 0
2, 88204, Note_on_c, 0, 54, 48
2, 88206, Note_on_c, 0, 42, 47
2, 88228, Note_on_c, 0, 60, 0
2, 88235, Note_on_c, 0, 48, 0
2, 88240, Note_on_c, 0, 57, 51
2, 88247, Note_on_c, 0, 45, 48
2, 88258, Note_on_c, 0, 63, 0
2, 88258, Note_on_c, 0, 51, 0
2, 88270, Note_on_c, 0, 60, 48
2, 88276, Note_on_c, 0, 48, 51
2, 88301, Note_on_c, 0, 54, 0
2, 88301, Note_on_c, 0, 51, 54
2, 88301, Note_on_c, 0, 63, 48
2, 88323, Note_on_c, 0, 69, 0
2, 88330, Note_on_c, 0, 57, 0
2, 88335, Note_on_c, 0, 66, 48
2, 88342, Note_on_c, 0, 54, 52
2, 88357, Note_on_c, 0, 60, 0
2, 88370, Note_on_c, 0, 57, 50
2, 88370, Note_on_c, 0, 69, 47
2, 88389, Note_on_c, 0, 75, 0
2, 88393, Note_on_c, 0, 60, 52
2, 88393, Note_on_c, 0, 72, 48
2, 88395, Note_on_c, 0, 63, 0
2, 88422, Note_on_c, 0, 78, 0
2, 88422, Note_on_c, 0, 66, 0
2, 88429, Note_on_c, 0, 75, 49
2, 88434, Note_on_c, 0, 63, 49
2, 88445, Note_on_c, 0, 81, 0
2, 88454, Note_on_c, 0, 69, 0
2, 88459, Note_on_c, 0, 78, 52
2, 88464, Note_on_c, 0, 66, 51
2, 88486, Note_on_c, 0, 72, 0
2, 88486, Note_on_c, 0, 60, 0
2, 88486, Note_on_c, 0, 81, 53
2, 88494, Note_on_c, 0, 69, 47
2, 88519, Note_on_c, 0, 84, 54
2, 88528, Note_on_c, 0, 60, 68
2, 88528, Note_on_c, 0, 72, 47
2, 88566, Note_on_c, 0, 36, 0
2, 88588, Note_on_c, 0, 60, 0
2, 88644, Note_on_c, 0, 48, 0
2, 88666, Control_c, 0, 64, 0
2, 88681, Note_on_c, 0, 48, 68
2, 88681, Note_on_c, 0, 60, 70
2, 88683, Note_on_c, 0, 36, 72
2, 88688, Note_on_c, 0, 84, 0
2, 88688, Note_on_c, 0, 87, 0
2, 88688, Note_on_c, 0, 69, 0
2, 88688, Note_on_c, 0, 81, 0
2, 88688, Note_on_c, 0, 75, 0
2, 88688, Note_on_c, 0, 78, 0
2, 88695, Note_on_c, 0, 57, 0
2, 88695, Note_on_c, 0, 66, 0
2, 88695, Note_on_c, 0, 39, 0
2, 88695, Note_on_c, 0, 42, 0
2, 88695, Note_on_c, 0, 51, 0
2, 88695, Note_on_c, 0, 72, 0
2, 88695, Note_on_c, 0, 54, 0
2, 88695, Note_on_c, 0, 45, 0
2, 88695, Note_on_c, 0, 63, 0
2, 88751, Note_on_c, 0, 48, 0
2, 88796, Note_on_c, 0, 48, 53
2, 88807, Note_on_c, 0, 51, 52
2, 88825, Note_on_c, 0, 54, 54
2, 88837, Note_on_c, 0, 57, 50
2, 88842, Note_on_c, 0, 87, 80
2, 88850, Note_on_c, 0, 63, 48
2, 88879, Note_on_c, 0, 81, 50
2, 88881, Control_c, 0, 64, 127
2, 88896, Note_on_c, 0, 48, 0
2, 88908, Note_on_c, 0, 51, 0
2, 88908, Note_on_c, 0, 78, 54
2, 88921, Note_on_c, 0, 87, 0
2, 88923, Note_on_c, 0, 54, 0
2, 88937, Note_on_c, 0, 57, 0
2, 88937, Note_on_c, 0, 48, 50
2, 88942, Note_on_c, 0, 75, 48
2, 88948, Note_on_c, 0, 51, 53
2, 88957, Note_on_c, 0, 54, 52
2, 88962, Note_on_c, 0, 63, 0
2, 88975, Note_on_c, 0, 81, 0
2, 88977, Note_on_c, 0, 57, 47
2, 88982, Note_on_c, 0, 87, 65
2, 89000, Note_on_c, 0, 63, 48
2, 89007, Note_on_c, 0, 78, 0
2, 89018, Note_on_c, 0, 81, 44
2, 89039, Note_on_c, 0, 48, 0
2, 89047, Note_on_c, 0, 51, 0
2, 89047, Note_on_c, 0, 75, 0
2, 89047, Note_on_c, 0, 78, 47
2, 89065, Note_on_c, 0, 54, 0
2, 89070, Note_on_c, 0, 87, 0
2, 89077, Note_on_c, 0, 57, 0
2, 89077, Note_on_c, 0, 48, 49
2, 89088, Note_on_c, 0, 51, 48
2, 89088, Note_on_c, 0, 75, 47
2, 89097, Note_on_c, 0, 63, 0
2, 89106, Note_on_c, 0, 54, 53
2, 89117, Note_on_c, 0, 57, 53
2, 89119, Note_on_c, 0, 81, 0
2, 89126, Note_on_c, 0, 63, 51
2, 89126, Note_on_c, 0, 87, 84
2, 89158, Note_on_c, 0, 78, 0
2, 89162, Note_on_c, 0, 81, 44
2, 89176, Note_on_c, 0, 48, 0
2, 89187, Note_on_c, 0, 51, 0
2, 89189, Note_on_c, 0, 78, 45
2, 89191, Note_on_c, 0, 75, 0
2, 89205, Note_on_c, 0, 54, 0
2, 89213, Note_on_c, 0, 57, 0
2, 89213, Note_on_c, 0, 48, 48
2, 89225, Note_on_c, 0, 51, 48
2, 89230, Note_on_c, 0, 75, 42
2, 89238, Note_on_c, 0, 63, 0
2, 89243, Note_on_c, 0, 54, 48
2, 89255, Note_on_c, 0, 57, 51
2, 89270, Note_on_c, 0, 89, 82
2, 89272, Note_on_c, 0, 87, 0
2, 89277, Note_on_c, 0, 63, 51
2, 89305, Note_on_c, 0, 81, 0
2, 89312, Note_on_c, 0, 87, 45
2, 89337, Note_on_c, 0, 48, 0
2, 89346, Note_on_c, 0, 51, 0
2, 89346, Note_on_c, 0, 81, 41
2, 89354, Note_on_c, 0, 75, 0
2, 89366, Note_on_c, 0, 54, 0
2, 89377, Note_on_c, 0, 57, 0
2, 89377, Note_on_c, 0, 48, 49
2, 89391, Note_on_c, 0, 51, 50
2, 89391, Note_on_c, 0, 75, 43
2, 89402, Note_on_c, 0, 63, 0
2, 89407, Note_on_c, 0, 54, 51
2, 89421, Note_on_c, 0, 57, 52
2, 89441, Note_on_c, 0, 87, 0
2, 89441, Note_on_c, 0, 90, 81
2, 89446, Note_on_c, 0, 63, 51
2, 89457, Note_on_c, 0, 89, 0
2, 89479, Note_on_c, 0, 81, 0
2, 89486, Note_on_c, 0, 48, 0
2, 89486, Note_on_c, 0, 87, 44
2, 89511, Note_on_c, 0, 51, 0
2, 89522, Note_on_c, 0, 81, 46
2, 89527, Note_on_c, 0, 75, 0
2, 89529, Note_on_c, 0, 48, 52
2, 89538, Note_on_c, 0, 54, 0
2, 89546, Note_on_c, 0, 51, 48
2, 89551, Note_on_c, 0, 57, 0
2, 89569, Note_on_c, 0, 75, 47
2, 89576, Note_on_c, 0, 90, 0
2, 89576, Note_on_c, 0, 54, 53
2, 89581, Note_on_c, 0, 87, 0
2, 89581, Note_on_c, 0, 81, 0
2, 89583, Note_on_c, 0, 63, 0
2, 89596, Note_on_c, 0, 57, 48
2, 89616, Note_on_c, 0, 81, 83
2, 89616, Note_on_c, 0, 87, 80
2, 89616, Note_on_c, 0, 90, 81
2, 89621, Note_on_c, 0, 63, 48
2, 89817, Note_on_c, 0, 36, 0
2, 89817, Note_on_c, 0, 48, 0
2, 89842, Note_on_c, 0, 51, 0
2, 89854, Note_on_c, 0, 48, 59
2, 89860, Note_on_c, 0, 36, 64
2, 89879, Note_on_c, 0, 54, 0
2, 89890, Note_on_c, 0, 39, 47
2, 89890, Note_on_c, 0, 51, 50
2, 89905, Note_on_c, 0, 57, 0
2, 89919, Note_on_c, 0, 42, 54
2, 89919, Note_on_c, 0, 54, 49
2, 89941, Note_on_c, 0, 60, 0
2, 89941, Note_on_c, 0, 48, 0
2, 89954, Note_on_c, 0, 45, 51
2, 89954, Note_on_c, 0, 57, 52
2, 89973, Note_on_c, 0, 51, 0
2, 89973, Note_on_c, 0, 63, 0
2, 89984, Note_on_c, 0, 48, 50
2, 89984, Note_on_c, 0, 60, 52
2, 90009, Note_on_c, 0, 54, 0
2, 90014, Note_on_c, 0, 51, 52
2, 90014, Note_on_c, 0, 63, 54
2, 90046, Note_on_c, 0, 57, 0
2, 90054, Note_on_c, 0, 54, 50
2, 90054, Note_on_c, 0, 66, 51
2, 90072, Note_on_c, 0, 60, 0
2, 90079, Note_on_c, 0, 57, 51
2, 90086, Note_on_c, 0, 69, 50
2, 90101, Note_on_c, 0, 75, 0
2, 90108, Note_on_c, 0, 63, 0
2, 90108, Note_on_c, 0, 60, 51
2, 90108, Note_on_c, 0, 72, 52
2, 90137, Note_on_c, 0, 78, 0
2, 90137, Note_on_c, 0, 66, 0
2, 90148, Note_on_c, 0, 63, 54
2, 90148, Note_on_c, 0, 75, 47
2, 90164, Note_on_c, 0, 69, 0
2, 90164, Note_on_c, 0, 81, 0
2, 90175, Note_on_c, 0, 78, 51
2, 90184, Note_on_c, 0, 66, 51
2, 90195, Note_on_c, 0, 60, 0
2, 90200, Note_on_c, 0, 72, 0
2, 90205, Note_on_c, 0, 69, 53
2, 90205, Note_on_c, 0, 81, 53
2, 90234, Note_on_c, 0, 72, 49
2, 90234, Note_on_c, 0, 84, 51
2, 90240, Note_on_c, 0, 60, 72
2, 90281, Note_on_c, 0, 36, 0
2, 90360, Note_on_c, 0, 60, 0
2, 90360, Note_on_c, 0, 48, 0
2, 90384, Control_c, 0, 64, 0
2, 90400, Note_on_c, 0, 36, 71
2, 90400, Note_on_c, 0, 48, 66
2, 90400, Note_on_c, 0, 60, 72
2, 90407, Note_on_c, 0, 81, 0
2, 90407, Note_on_c, 0, 90, 0
2, 90407, Note_on_c, 0, 87, 0
2, 90408, Note_on_c, 0, 75, 0
2, 90408, Note_on_c, 0, 66, 0
2, 90408, Note_on_c, 0, 84, 0
2, 90408, Note_on_c, 0, 78, 0
2, 90408, Note_on_c, 0, 69, 0
2, 90413, Note_on_c, 0, 45, 0
2, 90413, Note_on_c, 0, 39, 0
2, 90413, Note_on_c, 0, 42, 0
2, 90413, Note_on_c, 0, 72, 0
2, 90413, Note_on_c, 0, 57, 0
2, 90413, Note_on_c, 0, 54, 0
2, 90413, Note_on_c, 0, 63, 0
2, 90413, Note_on_c, 0, 51, 0
2, 90474, Note_on_c, 0, 48, 0
2, 90519, Note_on_c, 0, 48, 51
2, 90530, Note_on_c, 0, 51, 51
2, 90551, Note_on_c, 0, 54, 50
2, 90562, Note_on_c, 0, 57, 54
2, 90567, Note_on_c, 0, 87, 77
2, 90578, Note_on_c, 0, 63, 51
2, 90597, Note_on_c, 0, 81, 42
2, 90599, Control_c, 0, 64, 127
2, 90621, Note_on_c, 0, 48, 0
2, 90625, Note_on_c, 0, 78, 42
2, 90634, Note_on_c, 0, 51, 0
2, 90649, Note_on_c, 0, 54, 0
2, 90649, Note_on_c, 0, 87, 0
2, 90661, Note_on_c, 0, 57, 0
2, 90661, Note_on_c, 0, 48, 48
2, 90661, Note_on_c, 0, 75, 42
2, 90672, Note_on_c, 0, 51, 50
2, 90681, Note_on_c, 0, 63, 0
2, 90690, Note_on_c, 0, 54, 47
2, 90695, Note_on_c, 0, 81, 0
2, 90701, Note_on_c, 0, 57, 53
2, 90708, Note_on_c, 0, 87, 77
2, 90720, Note_on_c, 0, 63, 47
2, 90740, Note_on_c, 0, 78, 0
2, 90740, Note_on_c, 0, 81, 41
2, 90768, Note_on_c, 0, 48, 0
2, 90770, Note_on_c, 0, 75, 0
2, 90775, Note_on_c, 0, 78, 44
2, 90780, Note_on_c, 0, 51, 0
2, 90792, Note_on_c, 0, 87, 0
2, 90796, Note_on_c, 0, 54, 0
2, 90808, Note_on_c, 0, 48, 54
2, 90808, Note_on_c, 0, 75, 41
2, 90815, Note_on_c, 0, 57, 0
2, 90821, Note_on_c, 0, 51, 54
2, 90828, Note_on_c, 0, 63, 0
2, 90840, Note_on_c, 0, 81, 0
2, 90840, Note_on_c, 0, 54, 54
2, 90851, Note_on_c, 0, 57, 51
2, 90851, Note_on_c, 0, 87, 78
2, 90871, Note_on_c, 0, 63, 48
2, 90876, Note_on_c, 0, 78, 0
2, 90883, Note_on_c, 0, 81, 42
2, 90905, Note_on_c, 0, 48, 0
2, 90913, Note_on_c, 0, 75, 0
2, 90913, Note_on_c, 0, 78, 43
2, 90915, Note_on_c, 0, 51, 0
2, 90934, Note_on_c, 0, 54, 0
2, 90945, Note_on_c, 0, 57, 0
2, 90945, Note_on_c, 0, 48, 49
2, 90957, Note_on_c, 0, 51, 54
2, 90957, Note_on_c, 0, 75, 46
2, 90961, Note_on_c, 0, 63, 0
2, 90977, Note_on_c, 0, 54, 50
2, 90985, Note_on_c, 0, 57, 51
2, 90992, Note_on_c, 0, 87, 0
2, 90997, Note_on_c, 0, 63, 47
2, 90997, Note_on_c, 0, 89, 77
2, 91032, Note_on_c, 0, 81, 0
2, 91032, Note_on_c, 0, 87, 44
2, 91053, Note_on_c, 0, 48, 0
2, 91064, Note_on_c, 0, 51, 0
2, 91069, Note_on_c, 0, 75, 0
2, 91076, Note_on_c, 0, 81, 42
2, 91080, Note_on_c, 0, 54, 0
2, 91096, Note_on_c, 0, 57, 0
2, 91096, Note_on_c, 0, 48, 51
2, 91107, Note_on_c, 0, 51, 49
2, 91112, Note_on_c, 0, 75, 44
2, 91119, Note_on_c, 0, 63, 0
2, 91124, Note_on_c, 0, 54, 48
2, 91144, Note_on_c, 0, 57, 51
2, 91152, Note_on_c, 0, 90, 67
2, 91159, Note_on_c, 0, 87, 0
2, 91161, Note_on_c, 0, 63, 48
2, 91166, Note_on_c, 0, 89, 0
2, 91201, Note_on_c, 0, 87, 48
2, 91206, Note_on_c, 0, 81, 0
2, 91248, Note_on_c, 0, 48, 0
2, 91248, Note_on_c, 0, 81, 47
2, 91255, Note_on_c, 0, 75, 0
2, 91267, Note_on_c, 0, 51, 0
2, 91287, Note_on_c, 0, 48, 52
2, 91292, Note_on_c, 0, 75, 47
2, 91296, Note_on_c, 0, 54, 0
2, 91301, Note_on_c, 0, 81, 0
2, 91308, Note_on_c, 0, 51, 50
2, 91310, Note_on_c, 0, 87, 0
2, 91310, Note_on_c, 0, 90, 0
2, 91312, Note_on_c, 0, 57, 0
2, 91332, Note_on_c, 0, 54, 48
2, 91334, Note_on_c, 0, 63, 0
2, 91339, Note_on_c, 0, 81, 63
2, 91352, Note_on_c, 0, 57, 47
2, 91357, Note_on_c, 0, 87, 59
2, 91368, Note_on_c, 0, 90, 64
2, 91375, Note_on_c, 0, 63, 53
2, 91568, Note_on_c, 0, 60, 0
2, 91577, Note_on_c, 0, 36, 0
2, 91602, Note_on_c, 0, 63, 0
2, 91607, Note_on_c, 0, 60, 60
2, 91613, Note_on_c, 0, 36, 64
2, 91635, Note_on_c, 0, 63, 49
2, 91642, Note_on_c, 0, 39, 54
2, 91669, Note_on_c, 0, 42, 50
2, 91669, Note_on_c, 0, 66, 50
2, 91691, Note_on_c, 0, 48, 0
2, 91700, Note_on_c, 0, 69, 53
2, 91708, Note_on_c, 0, 45, 47
2, 91717, Note_on_c, 0, 75, 0
2, 91719, Note_on_c, 0, 51, 0
2, 91721, Note_on_c, 0, 72, 47
2, 91728, Note_on_c, 0, 48, 53
2, 91750, Note_on_c, 0, 54, 0
2, 91750, Note_on_c, 0, 78, 0
2, 91750, Note_on_c, 0, 75, 51
2, 91758, Note_on_c, 0, 51, 47
2, 91780, Note_on_c, 0, 81, 0
2, 91780, Note_on_c, 0, 57, 0
2, 91792, Note_on_c, 0, 78, 48
2, 91799, Note_on_c, 0, 54, 52
2, 91810, Note_on_c, 0, 60, 0
2, 91822, Note_on_c, 0, 81, 48
2, 91828, Note_on_c, 0, 57, 50
2, 91847, Note_on_c, 0, 87, 0
2, 91851, Note_on_c, 0, 63, 0
2, 91851, Note_on_c, 0, 60, 49
2, 91851, Note_on_c, 0, 84, 49
2, 91873, Note_on_c, 0, 90, 0
2, 91882, Note_on_c, 0, 66, 0
2, 91887, Note_on_c, 0, 87, 50
2, 91892, Note_on_c, 0, 63, 54
2, 91910, Note_on_c, 0, 69, 0
2, 91915, Note_on_c, 0, 90, 53
2, 91920, Note_on_c, 0, 66, 53
2, 91942, Note_on_c, 0, 72, 0
2, 91942, Note_on_c, 0, 84, 0
2, 91942, Note_on_c, 0, 60, 0
2, 91946, Note_on_c, 0, 93, 50
2, 91951, Note_on_c, 0, 69, 54
2, 91973, Note_on_c, 0, 84, 54
2, 91973, Note_on_c, 0, 96, 48
2, 91982, Note_on_c, 0, 60, 72
2, 91982, Note_on_c, 0, 72, 54
2, 92139, Note_on_c, 0, 36, 0
2, 92236, Control_c, 0, 64, 0
2, 92243, Note_on_c, 0, 36, 71
2, 92248, Note_on_c, 0, 96, 0
2, 92248, Note_on_c, 0, 84, 0
2, 92248, Note_on_c, 0, 90, 0
2, 92248, Note_on_c, 0, 87, 0
2, 92248, Note_on_c, 0, 69, 0
2, 92248, Note_on_c, 0, 93, 0
2, 92248, Note_on_c, 0, 81, 0
2, 92248, Note_on_c, 0, 75, 0
2, 92248, Note_on_c, 0, 78, 0
2, 92255, Note_on_c, 0, 63, 0
2, 92255, Note_on_c, 0, 45, 0
2, 92255, Note_on_c, 0, 66, 0
2, 92255, Note_on_c, 0, 72, 0
2, 92255, Note_on_c, 0, 60, 0
2, 92255, Note_on_c, 0, 57, 0
2, 92255, Note_on_c, 0, 54, 0
2, 92256, Note_on_c, 0, 39, 0
2, 92256, Note_on_c, 0, 51, 0
2, 92256, Note_on_c, 0, 48, 0
2, 92256, Note_on_c, 0, 42, 0
2, 92513, Note_on_c, 0, 48, 47
2, 92531, Note_on_c, 0, 54, 51
2, 92556, Note_on_c, 0, 57, 54
2, 92561, Note_on_c, 0, 75, 69
2, 92579, Note_on_c, 0, 63, 53
2, 92579, Note_on_c, 0, 66, 43
2, 92579, Note_on_c, 0, 69, 44
2, 92651, Control_c, 0, 64, 127
2, 92748, Note_on_c, 0, 75, 0
2, 92753, Note_on_c, 0, 69, 0
2, 92755, Note_on_c, 0, 48, 0
2, 92760, Note_on_c, 0, 54, 0
2, 92766, Note_on_c, 0, 57, 0
2, 92766, Note_on_c, 0, 66, 0
2, 92773, Note_on_c, 0, 63, 0
2, 92782, Note_on_c, 0, 75, 65
2, 92790, Note_on_c, 0, 48, 48
2, 92795, Note_on_c, 0, 54, 50
2, 92795, Note_on_c, 0, 69, 46
2, 92802, Note_on_c, 0, 66, 48
2, 92808, Note_on_c, 0, 57, 54
2, 92815, Note_on_c, 0, 63, 53
2, 92889, Note_on_c, 0, 48, 0
2, 92894, Note_on_c, 0, 54, 0
2, 92905, Note_on_c, 0, 66, 0
2, 92905, Note_on_c, 0, 75, 0
2, 92905, Note_on_c, 0, 69, 0
2, 92905, Note_on_c, 0, 57, 0
2, 92907, Note_on_c, 0, 63, 0
2, 92921, Note_on_c, 0, 77, 53
2, 92932, Note_on_c, 0, 48, 50
2, 92939, Note_on_c, 0, 54, 50
2, 92944, Note_on_c, 0, 57, 50
2, 92949, Note_on_c, 0, 66, 65
2, 92951, Note_on_c, 0, 63, 51
2, 92951, Note_on_c, 0, 75, 64
2, 92955, Note_on_c, 0, 69, 59
2, 92960, Note_on_c, 0, 77, 0
2, 93071, Note_on_c, 0, 69, 0
2, 93071, Note_on_c, 0, 66, 0
2, 93077, Note_on_c, 0, 57, 0
2, 93077, Note_on_c, 0, 54, 0
2, 93077, Note_on_c, 0, 48, 0
2, 93113, Note_on_c, 0, 54, 51
2, 93113, Note_on_c, 0, 57, 50
2, 93113, Note_on_c, 0, 66, 62
2, 93113, Note_on_c, 0, 69, 59
2, 93113, Note_on_c, 0, 74, 62
2, 93118, Note_on_c, 0, 48, 52
2, 93118, Note_on_c, 0, 62, 52
2, 93124, Note_on_c, 0, 75, 0
2, 93131, Note_on_c, 0, 63, 0
2, 93237, Note_on_c, 0, 48, 0
2, 93237, Note_on_c, 0, 57, 0
2, 93237, Note_on_c, 0, 69, 0
2, 93237, Note_on_c, 0, 54, 0
2, 93237, Note_on_c, 0, 66, 0
2, 93272, Note_on_c, 0, 75, 61
2, 93274, Note_on_c, 0, 63, 50
2, 93279, Note_on_c, 0, 48, 47
2, 93279, Note_on_c, 0, 54, 48
2, 93279, Note_on_c, 0, 57, 48
2, 93279, Note_on_c, 0, 66, 66
2, 93279, Note_on_c, 0, 69, 66
2, 93286, Note_on_c, 0, 74, 0
2, 93292, Note_on_c, 0, 62, 0
2, 93355, Note_on_c, 0, 48, 0
2, 93395, Note_on_c, 0, 66, 0
2, 93395, Note_on_c, 0, 48, 51
2, 93402, Note_on_c, 0, 54, 0
2, 93407, Note_on_c, 0, 69, 0
2, 93413, Note_on_c, 0, 75, 0
2, 93413, Note_on_c, 0, 51, 49
2, 93418, Note_on_c, 0, 57, 0
2, 93438, Note_on_c, 0, 54, 50
2, 93438, Note_on_c, 0, 66, 51
2, 93443, Note_on_c, 0, 63, 0
2, 93443, Note_on_c, 0, 69, 53
2, 93448, Note_on_c, 0, 75, 48
2, 93463, Note_on_c, 0, 57, 49
2, 93485, Note_on_c, 0, 63, 52
2, 93485, Note_on_c, 0, 78, 80
2, 93497, Note_on_c, 0, 36, 0
2, 93497, Control_c, 0, 64, 0
2, 93753, Control_c, 0, 64, 127
2, 93771, Control_c, 0, 67, 127
2, 93884, Note_on_c, 0, 48, 0
2, 93884, Note_on_c, 0, 75, 0
2, 93884, Note_on_c, 0, 51, 0
2, 93895, Note_on_c, 0, 54, 0
2, 93900, Note_on_c, 0, 66, 0
2, 93900, Note_on_c, 0, 69, 0
2, 93902, Note_on_c, 0, 57, 0
2, 93907, Note_on_c, 0, 63, 0
2, 93920, Note_on_c, 0, 48, 48
2, 93927, Note_on_c, 0, 51, 43
2, 93938, Note_on_c, 0, 54, 46
2, 93938, Note_on_c, 0, 75, 60
2, 93945, Note_on_c, 0, 57, 44
2, 93945, Note_on_c, 0, 66, 66
2, 93945, Note_on_c, 0, 69, 60
2, 93950, Note_on_c, 0, 78, 0
2, 93950, Note_on_c, 0, 63, 47
2, 94071, Note_on_c, 0, 48, 0
2, 94084, Note_on_c, 0, 51, 0
2, 94100, Note_on_c, 0, 54, 0
2, 94111, Note_on_c, 0, 48, 49
2, 94118, Note_on_c, 0, 57, 0
2, 94131, Note_on_c, 0, 63, 0
2, 94131, Note_on_c, 0, 51, 47
2, 94136, Note_on_c, 0, 66, 0
2, 94141, Note_on_c, 0, 75, 0
2, 94141, Note_on_c, 0, 69, 0
2, 94141, Note_on_c, 0, 54, 51
2, 94159, Note_on_c, 0, 57, 48
2, 94173, Note_on_c, 0, 63, 54
2, 94184, Note_on_c, 0, 78, 66
2, 94200, Note_on_c, 0, 66, 47
2, 94200, Note_on_c, 0, 69, 46
2, 94200, Note_on_c, 0, 75, 41
2, 94674, Note_on_c, 0, 75, 0
2, 94703, Note_on_c, 0, 69, 0
2, 94703, Note_on_c, 0, 66, 0
2, 94704, Note_on_c, 0, 48, 0
2, 94704, Note_on_c, 0, 57, 0
2, 94704, Note_on_c, 0, 54, 0
2, 94704, Note_on_c, 0, 63, 0
2, 94725, Note_on_c, 0, 75, 55
2, 94745, Note_on_c, 0, 78, 0
2, 94745, Note_on_c, 0, 48, 48
2, 94745, Note_on_c, 0, 54, 45
2, 94745, Note_on_c, 0, 57, 48
2, 94745, Note_on_c, 0, 63, 42
2, 94745, Note_on_c, 0, 66, 48
2, 94745, Note_on_c, 0, 69, 46
2, 95203, Control_c, 0, 64, 0
2, 95223, Note_on_c, 0, 51, 0
2, 95238, Note_on_c, 0, 46, 79
2, 95243, Note_on_c, 0, 69, 0
2, 95243, Note_on_c, 0, 75, 0
2, 95243, Note_on_c, 0, 66, 0
2, 95245, Note_on_c, 0, 48, 0
2, 95245, Note_on_c, 0, 57, 0
2, 95245, Note_on_c, 0, 54, 0
2, 95245, Note_on_c, 0, 63, 0
2, 95263, Note_on_c, 0, 51, 41
2, 95295, Note_on_c, 0, 55, 48
2, 95324, Note_on_c, 0, 58, 48
2, 95355, Note_on_c, 0, 63, 41
2, 95391, Note_on_c, 0, 67, 48
2, 95429, Note_on_c, 0, 70, 54
2, 95510, Note_on_c, 0, 75, 66
2, 95921, Control_c, 0, 64, 127
2, 96159, Note_on_c, 0, 70, 0
2, 96159, Note_on_c, 0, 46, 0
2, 96172, Note_on_c, 0, 51, 0
2, 96177, Note_on_c, 0, 67, 0
2, 96177, Note_on_c, 0, 63, 0
2, 96177, Note_on_c, 0, 55, 0
2, 96184, Note_on_c, 0, 58, 0
2, 96209, Note_on_c, 0, 46, 42
2, 96214, Note_on_c, 0, 51, 43
2, 96220, Note_on_c, 0, 55, 45
2, 96220, Note_on_c, 0, 58, 44
2, 96220, Note_on_c, 0, 63, 41
2, 96220, Note_on_c, 0, 67, 57
2, 96220, Note_on_c, 0, 70, 55
2, 96234, Note_on_c, 0, 75, 0
2, 96618, Note_on_c, 0, 55, 0
2, 96660, Note_on_c, 0, 55, 57
2, 96712, Note_on_c, 0, 58, 0
2, 96745, Note_on_c, 0, 58, 45
2, 96784, Note_on_c, 0, 63, 0
2, 96819, Note_on_c, 0, 63, 43
2, 96841, Note_on_c, 0, 67, 0
2, 96888, Note_on_c, 0, 67, 49
2, 96917, Note_on_c, 0, 58, 0
2, 96951, Note_on_c, 0, 58, 55
2, 96969, Note_on_c, 0, 55, 0
2, 97008, Note_on_c, 0, 55, 44
2, 97026, Note_on_c, 0, 51, 0
2, 97064, Note_on_c, 0, 51, 45
2, 97082, Note_on_c, 0, 46, 0
2, 97129, Note_on_c, 0, 46, 41
2, 97134, Note_on_c, 0, 63, 0
2, 97175, Note_on_c, 0, 63, 65
2, 97176, Note_on_c, 0, 67, 0
2, 97222, Note_on_c, 0, 70, 0
2, 97222, Note_on_c, 0, 67, 48
2, 97264, Note_on_c, 0, 70, 47
2, 97311, Note_on_c, 0, 75, 47
2, 97313, Note_on_c, 0, 46, 0
2, 97321, Note_on_c, 0, 67, 0
2, 97360, Note_on_c, 0, 46, 50
2, 97360, Note_on_c, 0, 67, 71
2, 97362, Note_on_c, 0, 34, 48
2, 97411, Note_on_c, 0, 70, 0
2, 97451, Note_on_c, 0, 70, 46
2, 97464, Note_on_c, 0, 75, 0
2, 97507, Note_on_c, 0, 63, 0
2, 97512, Note_on_c, 0, 75, 46
2, 97559, Note_on_c, 0, 79, 45
2, 97608, Note_on_c, 0, 63, 65
2, 97614, Note_on_c, 0, 58, 0
2, 97650, Note_on_c, 0, 58, 52
2, 97656, Note_on_c, 0, 55, 0
2, 97697, Note_on_c, 0, 51, 0
2, 97697, Note_on_c, 0, 55, 47
2, 97722, Note_on_c, 0, 58, 0
2, 97737, Note_on_c, 0, 51, 51
2, 97784, Note_on_c, 0, 58, 67
2, 97791, Note_on_c, 0, 63, 0
2, 97826, Note_on_c, 0, 67, 0
2, 97826, Note_on_c, 0, 63, 53
2, 97858, Note_on_c, 0, 46, 0
2, 97870, Note_on_c, 0, 70, 0
2, 97870, Note_on_c, 0, 67, 42
2, 97876, Note_on_c, 0, 34, 0
2, 97898, Note_on_c, 0, 46, 47
2, 97910, Note_on_c, 0, 70, 44
2, 97912, Note_on_c, 0, 63, 0
2, 97919, Note_on_c, 0, 34, 69
2, 97952, Note_on_c, 0, 67, 0
2, 97952, Note_on_c, 0, 63, 72
2, 97994, Note_on_c, 0, 70, 0
2, 97999, Note_on_c, 0, 67, 54
2, 98026, Note_on_c, 0, 75, 0
2, 98026, Note_on_c, 0, 70, 50
2, 98041, Note_on_c, 0, 67, 0
2, 98068, Note_on_c, 0, 75, 50
2, 98104, Note_on_c, 0, 63, 0
2, 98104, Note_on_c, 0, 67, 71
2, 98139, Note_on_c, 0, 63, 49
2, 98146, Note_on_c, 0, 58, 0
2, 98173, Note_on_c, 0, 55, 0
2, 98178, Note_on_c, 0, 58, 54
2, 98203, Note_on_c, 0, 70, 0
2, 98214, Note_on_c, 0, 55, 54
2, 98232, Note_on_c, 0, 75, 0
2, 98244, Note_on_c, 0, 70, 70
2, 98259, Note_on_c, 0, 79, 0
2, 98273, Note_on_c, 0, 75, 41
2, 98300, Note_on_c, 0, 79, 46
2, 98327, Note_on_c, 0, 46, 0
2, 98331, Note_on_c, 0, 34, 0
2, 98336, Note_on_c, 0, 82, 48
2, 98365, Note_on_c, 0, 75, 0
2, 98372, Note_on_c, 0, 34, 48
2, 98372, Note_on_c, 0, 46, 49
2, 98405, Note_on_c, 0, 75, 78
2, 98424, Note_on_c, 0, 79, 0
2, 98462, Control_c, 0, 67, 0
2, 98464, Note_on_c, 0, 82, 0
2, 98464, Note_on_c, 0, 79, 41
2, 98513, Note_on_c, 0, 82, 48
2, 98555, Note_on_c, 0, 70, 0
2, 98555, Note_on_c, 0, 87, 46
2, 98589, Note_on_c, 0, 67, 0
2, 98593, Note_on_c, 0, 70, 65
2, 98629, Note_on_c, 0, 63, 0
2, 98629, Note_on_c, 0, 67, 42
2, 98661, Note_on_c, 0, 58, 0
2, 98667, Note_on_c, 0, 63, 49
2, 98699, Note_on_c, 0, 67, 0
2, 98699, Note_on_c, 0, 58, 48
2, 98726, Note_on_c, 0, 70, 0
2, 98739, Note_on_c, 0, 67, 70
2, 98764, Note_on_c, 0, 75, 0
2, 98764, Note_on_c, 0, 70, 48
2, 98791, Note_on_c, 0, 79, 0
2, 98807, Note_on_c, 0, 75, 41
2, 98811, Note_on_c, 0, 70, 0
2, 98833, Note_on_c, 0, 46, 0
2, 98835, Note_on_c, 0, 79, 44
2, 98837, Note_on_c, 0, 34, 0
2, 98871, Note_on_c, 0, 70, 77
2, 98876, Note_on_c, 0, 75, 0
2, 98878, Note_on_c, 0, 34, 49
2, 98878, Note_on_c, 0, 46, 54
2, 98911, Note_on_c, 0, 79, 0
2, 98918, Note_on_c, 0, 75, 41
2, 98945, Note_on_c, 0, 82, 0
2, 98952, Note_on_c, 0, 79, 48
2, 98960, Note_on_c, 0, 75, 0
2, 98992, Note_on_c, 0, 82, 42
2, 99024, Note_on_c, 0, 70, 0
2, 99024, Note_on_c, 0, 75, 77
2, 99059, Note_on_c, 0, 67, 0
2, 99072, Note_on_c, 0, 70, 46
2, 99099, Note_on_c, 0, 63, 0
2, 99104, Note_on_c, 0, 79, 0
2, 99104, Note_on_c, 0, 67, 44
2, 99136, Note_on_c, 0, 63, 48
2, 99156, Note_on_c, 0, 82, 0
2, 99169, Note_on_c, 0, 79, 84
2, 99198, Note_on_c, 0, 87, 0
2, 99205, Note_on_c, 0, 82, 41
2, 99239, Note_on_c, 0, 87, 42
2, 99257, Note_on_c, 0, 82, 0
2, 99272, Note_on_c, 0, 91, 43
2, 99288, Note_on_c, 0, 46, 0
2, 99292, Note_on_c, 0, 34, 0
2, 99328, Note_on_c, 0, 46, 62
2, 99333, Note_on_c, 0, 82, 77
2, 99335, Note_on_c, 0, 34, 64
2, 99360, Note_on_c, 0, 87, 0
2, 99411, Note_on_c, 0, 91, 0
2, 99411, Note_on_c, 0, 87, 41
2, 99445, Note_on_c, 0, 79, 0
2, 99452, Note_on_c, 0, 91, 47
2, 99492, Note_on_c, 0, 94, 42
2, 99539, Note_on_c, 0, 75, 0
2, 99539, Note_on_c, 0, 79, 80
2, 99573, Note_on_c, 0, 70, 0
2, 99573, Note_on_c, 0, 75, 43
2, 99606, Note_on_c, 0, 67, 0
2, 99615, Note_on_c, 0, 70, 45
2, 99624, Note_on_c, 0, 75, 0
2, 99648, Note_on_c, 0, 67, 54
2, 99677, Note_on_c, 0, 79, 0
2, 99684, Note_on_c, 0, 75, 82
2, 99711, Note_on_c, 0, 82, 0
2, 99716, Note_on_c, 0, 79, 47
2, 99751, Note_on_c, 0, 87, 0
2, 99758, Note_on_c, 0, 82, 46
2, 99763, Note_on_c, 0, 70, 0
2, 99790, Note_on_c, 0, 34, 0
2, 99790, Note_on_c, 0, 46, 0
2, 99792, Note_on_c, 0, 87, 42
2, 99827, Note_on_c, 0, 75, 0
2, 99829, Note_on_c, 0, 34, 59
2, 99831, Note_on_c, 0, 70, 74
2, 99833, Note_on_c, 0, 46, 59
2, 99860, Note_on_c, 0, 67, 0
2, 99860, Note_on_c, 0, 79, 0
2, 99864, Note_on_c, 0, 75, 43
2, 99893, Note_on_c, 0, 82, 0
2, 99898, Note_on_c, 0, 79, 45
2, 99934, Note_on_c, 0, 82, 46
2, 99962, Note_on_c, 0, 63, 0
2, 99967, Note_on_c, 0, 67, 76
2, 99996, Note_on_c, 0, 58, 0
2, 100001, Note_on_c, 0, 63, 47
2, 100026, Note_on_c, 0, 55, 0
2, 100031, Note_on_c, 0, 58, 51
2, 100044, Note_on_c, 0, 63, 0
2, 100073, Note_on_c, 0, 55, 50
2, 100095, Note_on_c, 0, 67, 0
2, 100097, Note_on_c, 0, 63, 67
2, 100124, Note_on_c, 0, 70, 0
2, 100137, Note_on_c, 0, 67, 53
2, 100159, Note_on_c, 0, 75, 0
2, 100166, Note_on_c, 0, 70, 52
2, 100168, Note_on_c, 0, 34, 0
2, 100201, Note_on_c, 0, 75, 47
2, 100208, Note_on_c, 0, 34, 68
2, 100237, Note_on_c, 0, 46, 0
2, 100262, Control_c, 0, 64, 0
2, 100273, Note_on_c, 0, 60, 66
2, 100278, Note_on_c, 0, 82, 0
2, 100278, Note_on_c, 0, 91, 0
2, 100278, Note_on_c, 0, 87, 0
2, 100278, Note_on_c, 0, 94, 0
2, 100278, Note_on_c, 0, 79, 0
2, 100283, Note_on_c, 0, 75, 0
2, 100285, Note_on_c, 0, 67, 0
2, 100285, Note_on_c, 0, 51, 0
2, 100285, Note_on_c, 0, 55, 0
2, 100285, Note_on_c, 0, 70, 0
2, 100285, Note_on_c, 0, 63, 0
2, 100292, Note_on_c, 0, 58, 0
2, 100300, Note_on_c, 0, 46, 44
2, 100361, Note_on_c, 0, 66, 53
2, 100386, Note_on_c, 0, 60, 0
2, 100411, Note_on_c, 0, 69, 53
2, 100453, Note_on_c, 0, 72, 51
2, 100491, Control_c, 0, 64, 127
2, 100503, Note_on_c, 0, 60, 77
2, 100538, Note_on_c, 0, 57, 41
2, 100560, Note_on_c, 0, 60, 0
2, 100576, Note_on_c, 0, 54, 45
2, 100609, Note_on_c, 0, 51, 48
2, 100648, Note_on_c, 0, 66, 0
2, 100653, Note_on_c, 0, 60, 65
2, 100680, Note_on_c, 0, 69, 0
2, 100686, Note_on_c, 0, 66, 50
2, 100711, Note_on_c, 0, 60, 0
2, 100720, Note_on_c, 0, 72, 0
2, 100725, Note_on_c, 0, 34, 0
2, 100727, Note_on_c, 0, 69, 51
2, 100735, Note_on_c, 0, 46, 0
2, 100762, Note_on_c, 0, 72, 47
2, 100771, Note_on_c, 0, 34, 48
2, 100779, Note_on_c, 0, 46, 47
2, 100800, Note_on_c, 0, 66, 0
2, 100800, Note_on_c, 0, 60, 47
2, 100831, Note_on_c, 0, 69, 0
2, 100840, Note_on_c, 0, 66, 51
2, 100873, Note_on_c, 0, 72, 0
2, 100873, Note_on_c, 0, 69, 48
2, 100909, Note_on_c, 0, 72, 48
2, 100943, Note_on_c, 0, 57, 0
2, 100949, Note_on_c, 0, 62, 70
2, 100956, Note_on_c, 0, 60, 0
2, 100983, Note_on_c, 0, 54, 0
2, 100983, Note_on_c, 0, 57, 46
2, 101018, Note_on_c, 0, 51, 0
2, 101023, Note_on_c, 0, 54, 41
2, 101059, Note_on_c, 0, 51, 41
2, 101074, Note_on_c, 0, 69, 0
2, 101086, Note_on_c, 0, 63, 59
2, 101099, Note_on_c, 0, 62, 0
2, 101104, Note_on_c, 0, 72, 0
2, 101117, Note_on_c, 0, 69, 55
2, 101144, Note_on_c, 0, 72, 60
2, 101178, Note_on_c, 0, 46, 0
2, 101183, Note_on_c, 0, 34, 0
2, 101183, Note_on_c, 0, 75, 60
2, 101211, Control_c, 0, 64, 0
2, 101223, Note_on_c, 0, 34, 60
2, 101223, Note_on_c, 0, 46, 62
2, 101223, Note_on_c, 0, 65, 71
2, 101228, Note_on_c, 0, 75, 0
2, 101234, Note_on_c, 0, 63, 0
2, 101234, Note_on_c, 0, 72, 0
2, 101234, Note_on_c, 0, 69, 0
2, 101234, Note_on_c, 0, 66, 0
2, 101236, Note_on_c, 0, 54, 0
2, 101236, Note_on_c, 0, 57, 0
2, 101236, Note_on_c, 0, 51, 0
2, 101256, Note_on_c, 0, 68, 77
2, 101297, Note_on_c, 0, 74, 43
2, 101328, Note_on_c, 0, 77, 42
2, 101364, Note_on_c, 0, 67, 51
2, 101373, Note_on_c, 0, 65, 0
2, 101375, Note_on_c, 0, 68, 0
2, 101400, Note_on_c, 0, 62, 51
2, 101428, Note_on_c, 0, 58, 50
2, 101440, Control_c, 0, 64, 127
2, 101472, Note_on_c, 0, 56, 52
2, 101503, Note_on_c, 0, 74, 0
2, 101510, Note_on_c, 0, 68, 66
2, 101521, Note_on_c, 0, 67, 0
2, 101546, Note_on_c, 0, 77, 0
2, 101551, Note_on_c, 0, 74, 67
2, 101587, Note_on_c, 0, 77, 43
2, 101618, Note_on_c, 0, 46, 0
2, 101620, Note_on_c, 0, 80, 42
2, 101625, Note_on_c, 0, 34, 0
2, 101665, Note_on_c, 0, 34, 64
2, 101665, Note_on_c, 0, 46, 66
2, 101670, Note_on_c, 0, 74, 0
2, 101670, Note_on_c, 0, 70, 61
2, 101677, Note_on_c, 0, 68, 0
2, 101711, Note_on_c, 0, 77, 0
2, 101711, Note_on_c, 0, 74, 60
2, 101760, Note_on_c, 0, 77, 45
2, 101800, Note_on_c, 0, 82, 43
2, 101856, Note_on_c, 0, 72, 60
2, 101864, Note_on_c, 0, 70, 0
2, 101903, Note_on_c, 0, 68, 61
2, 101950, Note_on_c, 0, 62, 0
2, 101950, Note_on_c, 0, 65, 42
2, 101997, Note_on_c, 0, 62, 53
2, 102005, Note_on_c, 0, 74, 0
2, 102050, Note_on_c, 0, 74, 59
2, 102062, Note_on_c, 0, 80, 0
2, 102064, Note_on_c, 0, 72, 0
2, 102109, Note_on_c, 0, 80, 41
2, 102114, Note_on_c, 0, 82, 0
2, 102156, Note_on_c, 0, 82, 42
2, 102208, Note_on_c, 0, 86, 45
2, 102241, Note_on_c, 0, 27, 67
2, 102253, Note_on_c, 0, 34, 0
2, 102336, Control_c, 0, 64, 0
2, 102357, Note_on_c, 0, 75, 78
2, 102363, Note_on_c, 0, 39, 68
2, 102368, Note_on_c, 0, 82, 0
2, 102368, Note_on_c, 0, 62, 0
2, 102368, Note_on_c, 0, 77, 0
2, 102368, Note_on_c, 0, 68, 0
2, 102368, Note_on_c, 0, 80, 0
2, 102368, Note_on_c, 0, 86, 0
2, 102368, Note_on_c, 0, 74, 0
2, 102370, Note_on_c, 0, 46, 0
2, 102375, Note_on_c, 0, 65, 0
2, 102375, Note_on_c, 0, 56, 0
2, 102375, Control_c, 0, 67, 127
2, 102380, Note_on_c, 0, 58, 0
2, 102442, Note_on_c, 0, 79, 54
2, 102503, Note_on_c, 0, 82, 54
2, 102507, Note_on_c, 0, 79, 0
2, 102539, Control_c, 0, 67, 0
2, 102552, Note_on_c, 0, 87, 50
2, 102571, Control_c, 0, 64, 127
2, 102613, Note_on_c, 0, 79, 83
2, 102631, Note_on_c, 0, 75, 0
2, 102672, Note_on_c, 0, 75, 48
2, 102739, Note_on_c, 0, 75, 0
2, 102739, Note_on_c, 0, 70, 49
2, 102784, Note_on_c, 0, 67, 52
2, 102833, Note_on_c, 0, 79, 0
2, 102833, Note_on_c, 0, 75, 80
2, 102838, Note_on_c, 0, 70, 0
2, 102866, Note_on_c, 0, 82, 0
2, 102873, Note_on_c, 0, 79, 51
2, 102907, Note_on_c, 0, 87, 0
2, 102913, Note_on_c, 0, 82, 52
2, 102925, Note_on_c, 0, 39, 0
2, 102950, Note_on_c, 0, 87, 54
2, 102970, Note_on_c, 0, 39, 64
2, 103010, Note_on_c, 0, 51, 62
2, 103010, Note_on_c, 0, 70, 79
2, 103019, Note_on_c, 0, 75, 0
2, 103064, Note_on_c, 0, 79, 0
2, 103064, Note_on_c, 0, 75, 44
2, 103076, Note_on_c, 0, 67, 0
2, 103109, Note_on_c, 0, 82, 0
2, 103109, Note_on_c, 0, 79, 42
2, 103150, Note_on_c, 0, 82, 46
2, 103199, Note_on_c, 0, 67, 81
2, 103254, Note_on_c, 0, 63, 52
2, 103295, Note_on_c, 0, 58, 48
2, 103344, Note_on_c, 0, 55, 48
2, 103382, Note_on_c, 0, 65, 79
2, 103389, Note_on_c, 0, 67, 0
2, 103429, Note_on_c, 0, 70, 0
2, 103429, Note_on_c, 0, 67, 41
2, 103474, Note_on_c, 0, 70, 42
2, 103499, Note_on_c, 0, 63, 0
2, 103537, Note_on_c, 0, 63, 62
2, 103549, Note_on_c, 0, 65, 0
2, 103556, Note_on_c, 0, 63, 0
2, 103583, Control_c, 0, 64, 0
2, 103598, Note_on_c, 0, 63, 83
2, 103603, Note_on_c, 0, 82, 0
2, 103603, Note_on_c, 0, 79, 0
2, 103603, Note_on_c, 0, 87, 0
2, 103609, Note_on_c, 0, 67, 0
2, 103609, Note_on_c, 0, 75, 0
2, 103609, Note_on_c, 0, 70, 0
2, 103611, Note_on_c, 0, 51, 0
2, 103611, Note_on_c, 0, 55, 0
2, 103616, Note_on_c, 0, 39, 0
2, 103616, Note_on_c, 0, 58, 0
2, 103616, Note_on_c, 0, 49, 44
2, 103618, Note_on_c, 0, 27, 0
2, 103623, Note_on_c, 0, 37, 45
2, 103677, Note_on_c, 0, 67, 49
2, 103730, Note_on_c, 0, 70, 52
2, 103777, Note_on_c, 0, 75, 49
2, 103813, Control_c, 0, 64, 127
2, 103831, Note_on_c, 0, 79, 78
2, 103845, Note_on_c, 0, 75, 0
2, 103885, Note_on_c, 0, 75, 42
2, 103898, Note_on_c, 0, 70, 0
2, 103941, Note_on_c, 0, 67, 0
2, 103941, Note_on_c, 0, 70, 41
2, 103945, Note_on_c, 0, 75, 0
2, 103984, Note_on_c, 0, 67, 41
2, 104024, Note_on_c, 0, 79, 0
2, 104029, Note_on_c, 0, 75, 82
2, 104049, Note_on_c, 0, 70, 0
2, 104064, Note_on_c, 0, 79, 42
2, 104100, Note_on_c, 0, 82, 41
2, 104138, Note_on_c, 0, 87, 47
2, 104143, Note_on_c, 0, 37, 0
2, 104148, Note_on_c, 0, 49, 0
2, 104184, Note_on_c, 0, 37, 57
2, 104190, Note_on_c, 0, 49, 56
2, 104195, Note_on_c, 0, 75, 0
2, 104195, Note_on_c, 0, 70, 82
2, 104229, Note_on_c, 0, 79, 0
2, 104235, Note_on_c, 0, 75, 41
2, 104247, Note_on_c, 0, 67, 0
2, 104262, Note_on_c, 0, 82, 0
2, 104269, Note_on_c, 0, 79, 41
2, 104309, Note_on_c, 0, 82, 46
2, 104358, Note_on_c, 0, 63, 0
2, 104358, Note_on_c, 0, 67, 83
2, 104399, Note_on_c, 0, 63, 51
2, 104439, Note_on_c, 0, 58, 51
2, 104486, Note_on_c, 0, 55, 48
2, 104531, Note_on_c, 0, 67, 0
2, 104531, Note_on_c, 0, 65, 82
2, 104571, Note_on_c, 0, 67, 48
2, 104578, Note_on_c, 0, 70, 0
2, 104618, Note_on_c, 0, 70, 41
2, 104637, Note_on_c, 0, 63, 0
2, 104677, Note_on_c, 0, 63, 60
2, 104688, Note_on_c, 0, 65, 0
2, 104695, Note_on_c, 0, 63, 0
2, 104720, Control_c, 0, 64, 0
2, 104736, Note_on_c, 0, 63, 78
2, 104740, Note_on_c, 0, 82, 0
2, 104742, Note_on_c, 0, 79, 0
2, 104742, Note_on_c, 0, 67, 0
2, 104742, Note_on_c, 0, 70, 0
2, 104742, Note_on_c, 0, 75, 0
2, 104747, Note_on_c, 0, 87, 0
2, 104749, Note_on_c, 0, 55, 0
2, 104749, Note_on_c, 0, 49, 0
2, 104749, Note_on_c, 0, 37, 0
2, 104754, Note_on_c, 0, 58, 0
2, 104756, Note_on_c, 0, 36, 45
2, 104756, Note_on_c, 0, 48, 48
2, 104808, Note_on_c, 0, 68, 49
2, 104863, Note_on_c, 0, 72, 50
2, 104915, Note_on_c, 0, 75, 49
2, 104964, Control_c, 0, 64, 127
2, 104966, Note_on_c, 0, 80, 84
2, 104975, Note_on_c, 0, 75, 0
2, 105015, Note_on_c, 0, 75, 47
2, 105026, Note_on_c, 0, 72, 0
2, 105062, Note_on_c, 0, 68, 0
2, 105062, Note_on_c, 0, 75, 0
2, 105062, Note_on_c, 0, 72, 41
2, 105107, Note_on_c, 0, 68, 42
2, 105145, Note_on_c, 0, 80, 0
2, 105147, Note_on_c, 0, 75, 77
2, 105192, Note_on_c, 0, 72, 0
2, 105192, Note_on_c, 0, 80, 42
2, 105233, Note_on_c, 0, 84, 41
2, 105258, Note_on_c, 0, 36, 0
2, 105273, Note_on_c, 0, 87, 45
2, 105288, Note_on_c, 0, 48, 0
2, 105307, Note_on_c, 0, 36, 60
2, 105322, Note_on_c, 0, 48, 53
2, 105327, Note_on_c, 0, 72, 81
2, 105332, Note_on_c, 0, 75, 0
2, 105367, Note_on_c, 0, 80, 0
2, 105367, Note_on_c, 0, 75, 45
2, 105401, Note_on_c, 0, 84, 0
2, 105408, Note_on_c, 0, 68, 0
2, 105408, Note_on_c, 0, 80, 45
2, 105441, Note_on_c, 0, 84, 46
2, 105488, Note_on_c, 0, 68, 84
2, 105493, Note_on_c, 0, 63, 0
2, 105533, Note_on_c, 0, 63, 50
2, 105580, Note_on_c, 0, 60, 47
2, 105623, Note_on_c, 0, 56, 52
2, 105676, Note_on_c, 0, 68, 0
2, 105676, Note_on_c, 0, 65, 82
2, 105717, Note_on_c, 0, 68, 43
2, 105721, Note_on_c, 0, 72, 0
2, 105760, Note_on_c, 0, 72, 43
2, 105800, Note_on_c, 0, 63, 0
2, 105854, Note_on_c, 0, 63, 60
2, 105867, Note_on_c, 0, 65, 0
2, 105876, Note_on_c, 0, 63, 0
2, 105930, Control_c, 0, 64, 0
2, 105935, Note_on_c, 0, 63, 78
2, 105936, Note_on_c, 0, 80, 0
2, 105941, Note_on_c, 0, 87, 0
2, 105943, Note_on_c, 0, 68, 0
2, 105943, Note_on_c, 0, 75, 0
2, 105943, Note_on_c, 0, 84, 0
2, 105943, Note_on_c, 0, 72, 0
2, 105945, Note_on_c, 0, 56, 0
2, 105945, Note_on_c, 0, 60, 0
2, 105952, Note_on_c, 0, 36, 0
2, 105952, Note_on_c, 0, 48, 0
2, 105959, Note_on_c, 0, 43, 44
2, 105960, Note_on_c, 0, 31, 48
2, 106014, Note_on_c, 0, 70, 54
2, 106066, Note_on_c, 0, 73, 48
2, 106115, Note_on_c, 0, 75, 47
2, 106167, Note_on_c, 0, 85, 84
2, 106221, Control_c, 0, 64, 127
2, 106223, Note_on_c, 0, 82, 42
2, 106274, Note_on_c, 0, 79, 48
2, 106279, Note_on_c, 0, 82, 0
2, 106288, Note_on_c, 0, 75, 0
2, 106321, Note_on_c, 0, 75, 47
2, 106368, Note_on_c, 0, 85, 0
2, 106368, Note_on_c, 0, 82, 79
2, 106416, Note_on_c, 0, 85, 44
2, 106422, Note_on_c, 0, 79, 0
2, 106449, Note_on_c, 0, 87, 46
2, 106485, Note_on_c, 0, 91, 48
2, 106530, Note_on_c, 0, 79, 78
2, 106536, Note_on_c, 0, 75, 0
2, 106570, Note_on_c, 0, 75, 46
2, 106577, Note_on_c, 0, 73, 0
2, 106617, Note_on_c, 0, 70, 0
2, 106617, Note_on_c, 0, 73, 44
2, 106629, Note_on_c, 0, 75, 0
2, 106664, Note_on_c, 0, 70, 44
2, 106693, Note_on_c, 0, 79, 0
2, 106698, Note_on_c, 0, 75, 74
2, 106727, Note_on_c, 0, 82, 0
2, 106733, Note_on_c, 0, 79, 47
2, 106769, Note_on_c, 0, 85, 0
2, 106776, Note_on_c, 0, 82, 41
2, 106809, Note_on_c, 0, 85, 47
2, 106811, Note_on_c, 0, 73, 0
2, 106845, Note_on_c, 0, 70, 0
2, 106849, Note_on_c, 0, 73, 60
2, 106896, Note_on_c, 0, 70, 48
2, 106930, Note_on_c, 0, 63, 0
2, 106930, Note_on_c, 0, 67, 46
2, 106942, Note_on_c, 0, 70, 0
2, 106967, Note_on_c, 0, 63, 49
2, 107000, Note_on_c, 0, 73, 0
2, 107009, Note_on_c, 0, 70, 77
2, 107009, Note_on_c, 0, 74, 71
2, 107022, Note_on_c, 0, 74, 0
2, 107040, Note_on_c, 0, 75, 0
2, 107040, Note_on_c, 0, 73, 43
2, 107052, Note_on_c, 0, 67, 0
2, 107074, Note_on_c, 0, 79, 0
2, 107081, Note_on_c, 0, 75, 42
2, 107116, Note_on_c, 0, 79, 42
2, 107152, Note_on_c, 0, 63, 0
2, 107159, Note_on_c, 0, 67, 63
2, 107192, Note_on_c, 0, 63, 52
2, 107232, Note_on_c, 0, 61, 53
2, 107248, Note_on_c, 0, 63, 0
2, 107268, Note_on_c, 0, 58, 53
2, 107302, Note_on_c, 0, 67, 0
2, 107308, Note_on_c, 0, 63, 59
2, 107342, Note_on_c, 0, 70, 0
2, 107349, Note_on_c, 0, 67, 48
2, 107377, Note_on_c, 0, 73, 0
2, 107382, Note_on_c, 0, 61, 0
2, 107382, Note_on_c, 0, 70, 50
2, 107418, Note_on_c, 0, 73, 49
2, 107465, Note_on_c, 0, 61, 63
2, 107476, Note_on_c, 0, 58, 0
2, 107510, Note_on_c, 0, 58, 51
2, 107559, Note_on_c, 0, 55, 53
2, 107572, Note_on_c, 0, 58, 0
2, 107597, Note_on_c, 0, 51, 48
2, 107646, Note_on_c, 0, 58, 66
2, 107660, Note_on_c, 0, 61, 0
2, 107700, Note_on_c, 0, 61, 44
2, 107702, Note_on_c, 0, 63, 0
2, 107740, Note_on_c, 0, 67, 0
2, 107740, Note_on_c, 0, 63, 43
2, 107787, Note_on_c, 0, 67, 47
2, 107801, Note_on_c, 0, 55, 0
2, 107843, Note_on_c, 0, 55, 59
2, 107852, Note_on_c, 0, 51, 0
2, 107899, Note_on_c, 0, 51, 42
2, 107959, Note_on_c, 0, 49, 54
2, 108018, Note_on_c, 0, 46, 49
2, 108135, Note_on_c, 0, 61, 0
2, 108144, Note_on_c, 0, 46, 0
2, 108145, Note_on_c, 0, 51, 0
2, 108147, Note_on_c, 0, 91, 0
2, 108147, Note_on_c, 0, 55, 0
2, 108152, Note_on_c, 0, 85, 0
2, 108152, Note_on_c, 0, 82, 0
2, 108152, Note_on_c, 0, 79, 0
2, 108157, Note_on_c, 0, 87, 0
2, 108157, Note_on_c, 0, 75, 0
2, 108157, Note_on_c, 0, 73, 0
2, 108159, Note_on_c, 0, 43, 0
2, 108159, Note_on_c, 0, 63, 0
2, 108159, Note_on_c, 0, 49, 0
2, 108159, Note_on_c, 0, 70, 0
2, 108159, Note_on_c, 0, 67, 0
2, 108166, Note_on_c, 0, 31, 0
2, 108166, Control_c, 0, 64, 0
2, 108170, Note_on_c, 0, 58, 0
2, 108189, Note_on_c, 0, 61, 79
2, 108202, Note_on_c, 0, 51, 79
2, 108202, Note_on_c, 0, 55, 78
2, 108209, Note_on_c, 0, 39, 47
2, 108209, Note_on_c, 0, 46, 41
2, 108844, Control_c, 0, 64, 127
2, 109002, Note_on_c, 0, 55, 0
2, 109002, Note_on_c, 0, 61, 0
2, 109008, Note_on_c, 0, 51, 0
2, 109037, Note_on_c, 0, 63, 65
2, 109053, Note_on_c, 0, 51, 62
2, 109053, Note_on_c, 0, 55, 66
2, 109053, Note_on_c, 0, 58, 62
2, 109053, Note_on_c, 0, 61, 62
2, 109398, Note_on_c, 0, 61, 0
2, 109407, Note_on_c, 0, 51, 0
2, 109440, Note_on_c, 0, 61, 52
2, 109440, Note_on_c, 0, 65, 59
2, 109442, Note_on_c, 0, 51, 47
2, 109447, Note_on_c, 0, 56, 50
2, 109454, Note_on_c, 0, 55, 0
2, 109454, Note_on_c, 0, 63, 0
2, 109467, Note_on_c, 0, 58, 0
2, 109741, Note_on_c, 0, 61, 0
2, 109766, Control_c, 0, 64, 0
2, 109784, Note_on_c, 0, 63, 47
2, 109786, Note_on_c, 0, 58, 49
2, 109786, Note_on_c, 0, 61, 47
2, 109786, Note_on_c, 0, 67, 61
2, 109798, Note_on_c, 0, 56, 0
2, 109798, Note_on_c, 0, 46, 0
2, 109798, Note_on_c, 0, 65, 0
2, 109802, Note_on_c, 0, 39, 0
2, 109962, Note_on_c, 0, 39, 63
2, 109977, Note_on_c, 0, 51, 0
2, 109989, Control_c, 0, 64, 127
2, 109993, Note_on_c, 0, 46, 49
2, 110009, Note_on_c, 0, 51, 50
2, 110022, Note_on_c, 0, 61, 0
2, 110038, Note_on_c, 0, 55, 48
2, 110051, Note_on_c, 0, 63, 0
2, 110064, Note_on_c, 0, 61, 47
2, 110069, Note_on_c, 0, 67, 0
2, 110091, Note_on_c, 0, 63, 52
2, 110116, Note_on_c, 0, 67, 48
2, 110143, Note_on_c, 0, 70, 49
2, 110161, Note_on_c, 0, 73, 47
2, 110190, Note_on_c, 0, 75, 53
2, 110215, Note_on_c, 0, 82, 48
2, 110431, Note_on_c, 0, 67, 0
2, 110447, Note_on_c, 0, 63, 0
2, 110447, Note_on_c, 0, 55, 0
2, 110447, Note_on_c, 0, 61, 0
2, 110460, Note_on_c, 0, 51, 0
2, 110496, Note_on_c, 0, 51, 53
2, 110496, Note_on_c, 0, 55, 50
2, 110496, Note_on_c, 0, 61, 48
2, 110496, Note_on_c, 0, 63, 50
2, 110502, Note_on_c, 0, 67, 65
2, 110938, Note_on_c, 0, 63, 0
2, 110938, Note_on_c, 0, 61, 0
2, 110938, Note_on_c, 0, 51, 0
2, 110972, Note_on_c, 0, 51, 52
2, 110976, Note_on_c, 0, 68, 62
2, 110981, Note_on_c, 0, 53, 48
2, 110981, Note_on_c, 0, 56, 50
2, 110981, Note_on_c, 0, 61, 47
2, 110981, Note_on_c, 0, 63, 52
2, 110990, Note_on_c, 0, 67, 0
2, 110992, Note_on_c, 0, 55, 0
2, 111120, Note_on_c, 0, 39, 0
2, 111124, Control_c, 0, 64, 0
2, 111153, Note_on_c, 0, 39, 51
2, 111158, Note_on_c, 0, 58, 0
2, 111160, Note_on_c, 0, 46, 0
2, 111187, Note_on_c, 0, 61, 0
2, 111192, Note_on_c, 0, 58, 48
2, 111205, Note_on_c, 0, 56, 0
2, 111218, Note_on_c, 0, 63, 0
2, 111230, Note_on_c, 0, 53, 0
2, 111230, Note_on_c, 0, 61, 49
2, 111243, Note_on_c, 0, 55, 52
2, 111252, Note_on_c, 0, 63, 52
2, 111264, Note_on_c, 0, 82, 0
2, 111264, Note_on_c, 0, 75, 0
2, 111264, Note_on_c, 0, 73, 0
2, 111270, Note_on_c, 0, 68, 0
2, 111270, Note_on_c, 0, 70, 0
2, 111304, Note_on_c, 0, 70, 69
2, 111374, Control_c, 0, 64, 127
2, 111473, Note_on_c, 0, 51, 0
2, 111502, Note_on_c, 0, 58, 0
2, 111510, Note_on_c, 0, 51, 48
2, 111526, Note_on_c, 0, 63, 0
2, 111537, Note_on_c, 0, 58, 47
2, 111569, Note_on_c, 0, 63, 48
2, 111600, Note_on_c, 0, 67, 49
2, 111627, Note_on_c, 0, 73, 51
2, 111659, Note_on_c, 0, 75, 47
2, 111688, Note_on_c, 0, 79, 54
2, 111721, Note_on_c, 0, 94, 51
2, 111865, Note_on_c, 0, 72, 67
2, 111904, Note_on_c, 0, 72, 0
2, 112072, Note_on_c, 0, 70, 0
2, 112090, Note_on_c, 0, 55, 0
2, 112090, Note_on_c, 0, 63, 0
2, 112095, Note_on_c, 0, 58, 0
2, 112097, Note_on_c, 0, 51, 0
2, 112130, Note_on_c, 0, 51, 47
2, 112130, Note_on_c, 0, 58, 47
2, 112130, Note_on_c, 0, 63, 53
2, 112130, Note_on_c, 0, 70, 69
2, 112132, Note_on_c, 0, 55, 53
2, 112134, Note_on_c, 0, 94, 0
2, 112134, Note_on_c, 0, 79, 0
2, 112143, Note_on_c, 0, 73, 0
2, 112143, Note_on_c, 0, 75, 0
2, 112145, Note_on_c, 0, 61, 0
2, 112145, Note_on_c, 0, 67, 0
2, 112145, Control_c, 0, 64, 0
2, 112150, Note_on_c, 0, 39, 0
2, 112493, Control_c, 0, 64, 127
2, 112700, Note_on_c, 0, 51, 0
2, 112711, Note_on_c, 0, 63, 0
2, 112723, Note_on_c, 0, 72, 65
2, 112736, Note_on_c, 0, 70, 0
2, 112736, Control_c, 0, 64, 0
2, 112736, Note_on_c, 0, 51, 47
2, 112741, Note_on_c, 0, 66, 41
2, 112748, Note_on_c, 0, 57, 48
2, 112748, Note_on_c, 0, 63, 52
2, 112759, Note_on_c, 0, 55, 0
2, 112759, Note_on_c, 0, 58, 0
2, 112957, Control_c, 0, 64, 127
2, 113170, Note_on_c, 0, 39, 69
2, 113177, Note_on_c, 0, 57, 0
2, 113177, Control_c, 0, 64, 0
2, 113190, Note_on_c, 0, 51, 0
2, 113318, Note_on_c, 0, 46, 47
2, 113360, Note_on_c, 0, 51, 54
2, 113405, Note_on_c, 0, 55, 48
2, 113450, Note_on_c, 0, 61, 51
2, 113457, Note_on_c, 0, 63, 0
2, 113499, Note_on_c, 0, 67, 54
2, 113511, Note_on_c, 0, 66, 0
2, 113569, Note_on_c, 0, 75, 71
2, 113590, Note_on_c, 0, 72, 0
2, 114088, Control_c, 0, 64, 127
2, 114480, Note_on_c, 0, 73, 59
2, 114499, Note_on_c, 0, 75, 0
2, 114660, Note_on_c, 0, 70, 61
2, 114745, Note_on_c, 0, 67, 0
2, 114786, Note_on_c, 0, 67, 64
2, 114903, Note_on_c, 0, 77, 62
2, 115022, Note_on_c, 0, 75, 59
2, 115096, Note_on_c, 0, 73, 0
2, 115118, Control_c, 0, 67, 127
2, 115143, Note_on_c, 0, 73, 55
2, 115205, Note_on_c, 0, 70, 0
2, 115252, Note_on_c, 0, 70, 53
2, 115318, Note_on_c, 0, 67, 0
2, 115363, Note_on_c, 0, 67, 57
2, 115477, Note_on_c, 0, 63, 53
2, 115560, Note_on_c, 0, 61, 0
2, 115603, Note_on_c, 0, 61, 58
2, 115730, Note_on_c, 0, 58, 58
2, 115872, Note_on_c, 0, 55, 0
2, 115914, Note_on_c, 0, 55, 56
2, 116100, Note_on_c, 0, 51, 0
2, 116136, Note_on_c, 0, 51, 55
2, 116286, Note_on_c, 0, 73, 0
2, 116288, Note_on_c, 0, 75, 0
2, 116288, Note_on_c, 0, 63, 0
2, 116288, Note_on_c, 0, 70, 0
2, 116288, Note_on_c, 0, 46, 0
2, 116288, Note_on_c, 0, 77, 0
2, 116288, Note_on_c, 0, 67, 0
2, 116288, Note_on_c, 0, 39, 0
2, 116288, Note_on_c, 0, 61, 0
2, 116288, Note_on_c, 0, 55, 0
2, 116288, Control_c, 0, 64, 0
2, 116293, Note_on_c, 0, 58, 0
2, 116489, Note_on_c, 0, 53, 60
2, 116500, Note_on_c, 0, 51, 0
2, 116734, Note_on_c, 0, 55, 63
2, 116740, Note_on_c, 0, 53, 0
2, 117003, Note_on_c, 0, 56, 59
2, 117015, Note_on_c, 0, 55, 0
2, 117377, Note_on_c, 0, 58, 59
2, 117388, Note_on_c, 0, 56, 0
2, 117561, Control_c, 0, 64, 127
2, 117781, Control_c, 0, 64, 0
2, 117803, Note_on_c, 0, 59, 55
2, 117815, Note_on_c, 0, 58, 0
2, 118365, Note_on_c, 0, 44, 57
2, 118416, Note_on_c, 0, 51, 42
2, 118477, Note_on_c, 0, 56, 43
2, 118529, Note_on_c, 0, 60, 60
2, 118540, Note_on_c, 0, 59, 0
2, 118628, Note_on_c, 0, 63, 60
2, 118713, Note_on_c, 0, 68, 52
2, 118742, Control_c, 0, 64, 127
2, 118776, Note_on_c, 0, 72, 51
2, 118848, Note_on_c, 0, 77, 49
2, 118910, Note_on_c, 0, 75, 53
2, 118921, Note_on_c, 0, 60, 0
2, 118982, Note_on_c, 0, 60, 61
2, 119031, Note_on_c, 0, 75, 0
2, 119073, Note_on_c, 0, 75, 52
2, 119122, Note_on_c, 0, 44, 0
2, 119162, Note_on_c, 0, 44, 48
2, 119167, Note_on_c, 0, 51, 0
2, 119167, Note_on_c, 0, 80, 48
2, 119189, Note_on_c, 0, 60, 0
2, 119201, Note_on_c, 0, 51, 42
2, 119241, Note_on_c, 0, 84, 52
2, 119246, Note_on_c, 0, 60, 65
2, 119308, Note_on_c, 0, 89, 47
2, 119371, Note_on_c, 0, 87, 48
2, 119400, Note_on_c, 0, 84, 0
2, 119433, Note_on_c, 0, 61, 66
2, 119440, Note_on_c, 0, 84, 50
2, 119445, Note_on_c, 0, 60, 0
2, 119449, Note_on_c, 0, 80, 0
2, 119495, Note_on_c, 0, 80, 50
2, 119513, Note_on_c, 0, 77, 0
2, 119551, Note_on_c, 0, 63, 0
2, 119558, Note_on_c, 0, 77, 52
2, 119569, Note_on_c, 0, 75, 0
2, 119610, Note_on_c, 0, 63, 63
2, 119615, Note_on_c, 0, 75, 47
2, 119623, Note_on_c, 0, 61, 0
2, 119645, Note_on_c, 0, 72, 0
2, 119681, Note_on_c, 0, 72, 48
2, 119710, Note_on_c, 0, 68, 0
2, 119752, Note_on_c, 0, 68, 48
2, 119757, Note_on_c, 0, 51, 0
2, 119757, Note_on_c, 0, 46, 50
2, 119770, Note_on_c, 0, 44, 0
2, 119792, Note_on_c, 0, 51, 54
2, 119821, Note_on_c, 0, 63, 0
2, 119834, Note_on_c, 0, 55, 54
2, 119848, Note_on_c, 0, 56, 0
2, 119870, Control_c, 0, 64, 0
2, 119875, Note_on_c, 0, 63, 54
2, 119877, Note_on_c, 0, 80, 0
2, 119881, Note_on_c, 0, 89, 0
2, 119886, Note_on_c, 0, 87, 0
2, 119886, Note_on_c, 0, 68, 0
2, 119886, Note_on_c, 0, 72, 0
2, 119886, Note_on_c, 0, 75, 0
2, 119886, Note_on_c, 0, 84, 0
2, 119886, Note_on_c, 0, 77, 0
2, 119963, Note_on_c, 0, 67, 50
2, 120033, Note_on_c, 0, 73, 50
2, 120094, Note_on_c, 0, 77, 48
2, 120152, Note_on_c, 0, 75, 51
2, 120213, Note_on_c, 0, 79, 52
2, 120283, Note_on_c, 0, 85, 51
2, 120325, Control_c, 0, 64, 127
2, 120350, Note_on_c, 0, 91, 48
2, 120427, Note_on_c, 0, 89, 54
2, 120435, Note_on_c, 0, 55, 0
2, 120456, Note_on_c, 0, 85, 0
2, 120494, Note_on_c, 0, 55, 53
2, 120503, Note_on_c, 0, 63, 0
2, 120503, Note_on_c, 0, 85, 51
2, 120529, Note_on_c, 0, 89, 0
2, 120570, Note_on_c, 0, 89, 51
2, 120642, Note_on_c, 0, 87, 50
2, 120671, Note_on_c, 0, 85, 0
2, 120709, Note_on_c, 0, 85, 47
2, 120751, Note_on_c, 0, 79, 0
2, 120793, Note_on_c, 0, 79, 52
2, 120836, Note_on_c, 0, 77, 0
2, 120878, Note_on_c, 0, 77, 52
2, 120903, Note_on_c, 0, 51, 0
2, 120938, Note_on_c, 0, 75, 0
2, 120957, Note_on_c, 0, 51, 65
2, 120968, Note_on_c, 0, 55, 0
2, 120980, Note_on_c, 0, 75, 48
2, 121045, Note_on_c, 0, 73, 0
2, 121087, Note_on_c, 0, 73, 49
2, 121161, Note_on_c, 0, 67, 0
2, 121200, Note_on_c, 0, 67, 47
2, 121253, Note_on_c, 0, 43, 48
2, 121258, Note_on_c, 0, 46, 0
2, 121276, Note_on_c, 0, 50, 50
2, 121285, Note_on_c, 0, 50, 0
2, 121339, Note_on_c, 0, 58, 72
2, 121344, Note_on_c, 0, 91, 0
2, 121344, Note_on_c, 0, 87, 0
2, 121345, Note_on_c, 0, 73, 0
2, 121345, Note_on_c, 0, 77, 0
2, 121345, Note_on_c, 0, 79, 0
2, 121345, Note_on_c, 0, 75, 0
2, 121345, Note_on_c, 0, 85, 0
2, 121345, Note_on_c, 0, 67, 0
2, 121345, Note_on_c, 0, 89, 0
2, 121386, Control_c, 0, 64, 0
2, 121426, Note_on_c, 0, 61, 47
2, 121498, Note_on_c, 0, 63, 48
2, 121565, Note_on_c, 0, 70, 47
2, 121639, Note_on_c, 0, 75, 47
2, 121653, Control_c, 0, 64, 127
2, 121704, Note_on_c, 0, 73, 54
2, 121723, Note_on_c, 0, 58, 0
2, 121775, Note_on_c, 0, 58, 59
2, 121803, Note_on_c, 0, 63, 0
2, 121824, Note_on_c, 0, 43, 0
2, 121850, Note_on_c, 0, 63, 42
2, 121869, Note_on_c, 0, 43, 42
2, 121877, Note_on_c, 0, 70, 0
2, 121893, Note_on_c, 0, 51, 0
2, 121920, Note_on_c, 0, 70, 49
2, 121924, Note_on_c, 0, 51, 43
2, 121936, Note_on_c, 0, 58, 0
2, 121947, Note_on_c, 0, 73, 0
2, 121988, Note_on_c, 0, 58, 61
2, 121994, Note_on_c, 0, 73, 49
2, 122064, Note_on_c, 0, 77, 52
2, 122076, Note_on_c, 0, 75, 0
2, 122136, Note_on_c, 0, 75, 54
2, 122161, Note_on_c, 0, 72, 48
2, 122173, Note_on_c, 0, 72, 0
2, 122205, Note_on_c, 0, 72, 51
2, 122209, Note_on_c, 0, 60, 60
2, 122221, Note_on_c, 0, 61, 0
2, 122228, Note_on_c, 0, 58, 0
2, 122234, Note_on_c, 0, 72, 0
2, 122234, Note_on_c, 0, 75, 0
2, 122275, Note_on_c, 0, 75, 50
2, 122345, Note_on_c, 0, 82, 52
2, 122376, Note_on_c, 0, 72, 54
2, 122397, Note_on_c, 0, 72, 0
2, 122424, Note_on_c, 0, 61, 63
2, 122432, Note_on_c, 0, 60, 0
2, 122432, Note_on_c, 0, 85, 53
2, 122466, Note_on_c, 0, 72, 51
2, 122504, Note_on_c, 0, 72, 0
2, 122524, Note_on_c, 0, 89, 52
2, 122608, Note_on_c, 0, 72, 48
2, 122619, Note_on_c, 0, 72, 0
2, 122628, Note_on_c, 0, 87, 51
2, 122640, Note_on_c, 0, 72, 51
2, 122653, Note_on_c, 0, 44, 48
2, 122662, Note_on_c, 0, 43, 0
2, 122673, Note_on_c, 0, 51, 0
2, 122707, Note_on_c, 0, 51, 48
2, 122712, Note_on_c, 0, 84, 54
2, 122723, Note_on_c, 0, 72, 0
2, 122730, Note_on_c, 0, 84, 0
2, 122770, Note_on_c, 0, 72, 53
2, 122779, Note_on_c, 0, 56, 48
2, 122806, Note_on_c, 0, 71, 54
2, 122817, Note_on_c, 0, 72, 0
2, 122824, Note_on_c, 0, 71, 0
2, 122829, Control_c, 0, 64, 0
2, 122837, Note_on_c, 0, 72, 52
2, 122844, Note_on_c, 0, 60, 65
2, 122851, Note_on_c, 0, 89, 0
2, 122857, Note_on_c, 0, 82, 0
2, 122857, Note_on_c, 0, 77, 0
2, 122857, Note_on_c, 0, 75, 0
2, 122857, Note_on_c, 0, 85, 0
2, 122857, Note_on_c, 0, 73, 0
2, 122857, Note_on_c, 0, 87, 0
2, 122857, Note_on_c, 0, 70, 0
2, 122859, Note_on_c, 0, 61, 0
2, 122866, Note_on_c, 0, 63, 0
2, 122868, Note_on_c, 0, 72, 0
2, 122897, Note_on_c, 0, 72, 54
2, 122928, Note_on_c, 0, 72, 0
2, 122935, Note_on_c, 0, 63, 48
2, 123005, Note_on_c, 0, 68, 53
2, 123064, Note_on_c, 0, 72, 51
2, 123126, Note_on_c, 0, 77, 50
2, 123254, Note_on_c, 0, 75, 53
2, 123269, Control_c, 0, 64, 127
2, 123321, Note_on_c, 0, 84, 48
2, 123323, Note_on_c, 0, 80, 52
2, 123382, Note_on_c, 0, 89, 47
2, 123444, Note_on_c, 0, 87, 51
2, 123471, Note_on_c, 0, 84, 0
2, 123511, Note_on_c, 0, 84, 54
2, 123536, Note_on_c, 0, 80, 0
2, 123578, Note_on_c, 0, 80, 51
2, 123605, Note_on_c, 0, 77, 0
2, 123641, Note_on_c, 0, 77, 47
2, 123676, Note_on_c, 0, 75, 0
2, 123717, Note_on_c, 0, 75, 48
2, 123759, Note_on_c, 0, 72, 0
2, 123794, Note_on_c, 0, 72, 49
2, 123848, Note_on_c, 0, 68, 0
2, 123888, Note_on_c, 0, 68, 49
2, 123985, Note_on_c, 0, 65, 49
2, 124037, Note_on_c, 0, 63, 0
2, 124057, Note_on_c, 0, 44, 0
2, 124080, Note_on_c, 0, 63, 45
2, 124102, Note_on_c, 0, 44, 42
2, 124127, Note_on_c, 0, 51, 0
2, 124160, Note_on_c, 0, 51, 42
2, 124172, Note_on_c, 0, 60, 0
2, 124217, Control_c, 0, 64, 0
2, 124232, Note_on_c, 0, 60, 60
2, 124237, Note_on_c, 0, 80, 0
2, 124237, Note_on_c, 0, 87, 0
2, 124239, Note_on_c, 0, 89, 0
2, 124239, Note_on_c, 0, 77, 0
2, 124239, Note_on_c, 0, 75, 0
2, 124239, Note_on_c, 0, 63, 0
2, 124239, Note_on_c, 0, 68, 0
2, 124239, Note_on_c, 0, 65, 0
2, 124241, Note_on_c, 0, 84, 0
2, 124243, Note_on_c, 0, 56, 0
2, 124248, Note_on_c, 0, 72, 0
2, 124310, Note_on_c, 0, 63, 41
2, 124387, Note_on_c, 0, 68, 48
2, 124402, Note_on_c, 0, 60, 0
2, 124436, Control_c, 0, 64, 127
2, 124454, Note_on_c, 0, 60, 65
2, 124454, Note_on_c, 0, 72, 47
2, 124526, Note_on_c, 0, 77, 54
2, 124541, Control_c, 0, 67, 0
2, 124588, Note_on_c, 0, 75, 54
2, 124595, Note_on_c, 0, 60, 0
2, 124656, Note_on_c, 0, 60, 64
2, 124676, Note_on_c, 0, 75, 0
2, 124716, Note_on_c, 0, 75, 54
2, 124725, Note_on_c, 0, 44, 0
2, 124763, Note_on_c, 0, 44, 54
2, 124776, Note_on_c, 0, 51, 0
2, 124785, Note_on_c, 0, 80, 52
2, 124807, Note_on_c, 0, 60, 0
2, 124807, Note_on_c, 0, 51, 54
2, 124856, Note_on_c, 0, 84, 48
2, 124863, Note_on_c, 0, 60, 71
2, 124919, Note_on_c, 0, 89, 47
2, 124986, Note_on_c, 0, 87, 52
2, 125013, Note_on_c, 0, 84, 0
2, 125046, Note_on_c, 0, 84, 47
2, 125055, Note_on_c, 0, 61, 66
2, 125066, Note_on_c, 0, 60, 0
2, 125078, Note_on_c, 0, 80, 0
2, 125116, Note_on_c, 0, 80, 47
2, 125148, Note_on_c, 0, 77, 0
2, 125186, Note_on_c, 0, 77, 54
2, 125195, Note_on_c, 0, 63, 0
2, 125217, Note_on_c, 0, 75, 0
2, 125246, Note_on_c, 0, 63, 67
2, 125255, Note_on_c, 0, 61, 0
2, 125255, Note_on_c, 0, 75, 51
2, 125286, Note_on_c, 0, 72, 0
2, 125325, Note_on_c, 0, 72, 47
2, 125347, Note_on_c, 0, 68, 0
2, 125353, Note_on_c, 0, 44, 0
2, 125389, Note_on_c, 0, 51, 0
2, 125396, Note_on_c, 0, 44, 52
2, 125396, Note_on_c, 0, 68, 51
2, 125427, Note_on_c, 0, 51, 52
2, 125468, Note_on_c, 0, 53, 51
2, 125472, Note_on_c, 0, 63, 0
2, 125524, Note_on_c, 0, 63, 82
2, 125536, Note_on_c, 0, 68, 0
2, 125536, Note_on_c, 0, 80, 0
2, 125536, Note_on_c, 0, 84, 0
2, 125536, Note_on_c, 0, 87, 0
2, 125536, Note_on_c, 0, 75, 0
2, 125536, Note_on_c, 0, 77, 0
2, 125536, Note_on_c, 0, 89, 0
2, 125543, Note_on_c, 0, 72, 0
2, 125554, Control_c, 0, 64, 0
2, 125603, Note_on_c, 0, 65, 49
2, 125675, Note_on_c, 0, 72, 47
2, 125737, Note_on_c, 0, 75, 51
2, 125798, Note_on_c, 0, 79, 49
2, 125865, Note_on_c, 0, 77, 50
2, 125867, Note_on_c, 0, 52, 49
2, 125903, Note_on_c, 0, 52, 0
2, 125929, Note_on_c, 0, 84, 51
2, 125968, Control_c, 0, 64, 127
2, 126003, Note_on_c, 0, 87, 54
2, 126084, Note_on_c, 0, 91, 48
2, 126089, Note_on_c, 0, 53, 0
2, 126144, Note_on_c, 0, 53, 66
2, 126165, Note_on_c, 0, 89, 47
2, 126198, Note_on_c, 0, 87, 0
2, 126239, Note_on_c, 0, 87, 48
2, 126272, Note_on_c, 0, 84, 0
2, 126312, Note_on_c, 0, 84, 47
2, 126355, Note_on_c, 0, 77, 0
2, 126395, Note_on_c, 0, 77, 47
2, 126435, Note_on_c, 0, 75, 0
2, 126451, Control_c, 0, 67, 127
2, 126469, Note_on_c, 0, 75, 51
2, 126516, Note_on_c, 0, 72, 0
2, 126552, Note_on_c, 0, 72, 48
2, 126576, Note_on_c, 0, 53, 0
2, 126637, Note_on_c, 0, 53, 61
2, 126648, Note_on_c, 0, 68, 51
2, 126702, Note_on_c, 0, 65, 0
2, 126744, Note_on_c, 0, 65, 52
2, 126812, Note_on_c, 0, 63, 0
2, 126852, Note_on_c, 0, 63, 43
2, 126951, Note_on_c, 0, 58, 66
2, 126958, Control_c, 0, 64, 0
2, 126960, Note_on_c, 0, 63, 0
2, 126960, Note_on_c, 0, 87, 0
2, 126960, Note_on_c, 0, 68, 0
2, 126960, Note_on_c, 0, 75, 0
2, 126960, Note_on_c, 0, 91, 0
2, 126960, Note_on_c, 0, 79, 0
2, 126960, Note_on_c, 0, 89, 0
2, 126960, Note_on_c, 0, 53, 0
2, 126960, Note_on_c, 0, 77, 0
2, 126960, Note_on_c, 0, 65, 0
2, 126966, Note_on_c, 0, 84, 0
2, 126966, Note_on_c, 0, 72, 0
2, 126968, Note_on_c, 0, 51, 0
2, 126968, Note_on_c, 0, 44, 0
2, 126975, Note_on_c, 0, 46, 45
2, 127067, Note_on_c, 0, 62, 45
2, 127144, Note_on_c, 0, 72, 52
2, 127229, Note_on_c, 0, 53, 60
2, 127234, Note_on_c, 0, 70, 52
2, 127306, Control_c, 0, 64, 127
2, 127318, Note_on_c, 0, 68, 50
2, 127385, Note_on_c, 0, 79, 48
2, 127447, Note_on_c, 0, 55, 65
2, 127456, Note_on_c, 0, 53, 0
2, 127461, Note_on_c, 0, 77, 49
2, 127528, Note_on_c, 0, 75, 48
2, 127608, Note_on_c, 0, 74, 51
2, 127620, Note_on_c, 0, 75, 0
2, 127669, Control_c, 0, 64, 0
2, 127669, Note_on_c, 0, 56, 65
2, 127678, Note_on_c, 0, 55, 0
2, 127678, Note_on_c, 0, 62, 0
2, 127684, Note_on_c, 0, 58, 0
2, 127684, Note_on_c, 0, 84, 50
2, 127696, Note_on_c, 0, 77, 0
2, 127696, Note_on_c, 0, 79, 0
2, 127696, Note_on_c, 0, 74, 0
2, 127701, Note_on_c, 0, 68, 0
2, 127701, Note_on_c, 0, 70, 0
2, 127701, Note_on_c, 0, 72, 0
2, 127761, Note_on_c, 0, 82, 42
2, 127831, Note_on_c, 0, 77, 45
2, 127908, Note_on_c, 0, 74, 48
2, 127957, Control_c, 0, 64, 127
2, 127982, Note_on_c, 0, 72, 45
2, 128079, Note_on_c, 0, 70, 47
2, 128108, Note_on_c, 0, 56, 0
2, 128168, Note_on_c, 0, 56, 72
2, 128173, Note_on_c, 0, 65, 46
2, 128280, Note_on_c, 0, 62, 43
2, 128411, Note_on_c, 0, 55, 60
2, 128423, Note_on_c, 0, 56, 0
2, 128645, Note_on_c, 0, 55, 0
2, 128694, Control_c, 0, 64, 0
2, 128699, Note_on_c, 0, 51, 53
2, 128699, Note_on_c, 0, 55, 53
2, 128706, Note_on_c, 0, 82, 0
2, 128706, Note_on_c, 0, 77, 0
2, 128706, Note_on_c, 0, 74, 0
2, 128706, Note_on_c, 0, 84, 0
2, 128708, Note_on_c, 0, 62, 0
2, 128708, Note_on_c, 0, 70, 0
2, 128708, Note_on_c, 0, 46, 0
2, 128708, Note_on_c, 0, 65, 0
2, 128714, Note_on_c, 0, 72, 0
2, 128827, Note_on_c, 0, 58, 41
2, 128910, Note_on_c, 0, 63, 46
2, 128989, Note_on_c, 0, 67, 53
2, 129056, Note_on_c, 0, 72, 50
2, 129167, Note_on_c, 0, 70, 51
2, 129261, Note_on_c, 0, 75, 48
2, 129261, Note_on_c, 0, 79, 52
2, 129323, Note_on_c, 0, 96, 54
2, 129377, Control_c, 0, 64, 127
2, 129397, Note_on_c, 0, 94, 47
2, 129469, Note_on_c, 0, 91, 49
2, 129548, Note_on_c, 0, 87, 47
2, 129622, Note_on_c, 0, 84, 47
2, 129692, Note_on_c, 0, 82, 47
2, 129727, Note_on_c, 0, 79, 0
2, 129766, Note_on_c, 0, 79, 41
2, 129784, Note_on_c, 0, 63, 0
2, 129813, Note_on_c, 0, 75, 0
2, 129840, Note_on_c, 0, 63, 59
2, 129853, Note_on_c, 0, 75, 43
2, 129913, Note_on_c, 0, 72, 0
2, 129952, Note_on_c, 0, 72, 46
2, 130012, Note_on_c, 0, 70, 0
2, 130051, Note_on_c, 0, 70, 45
2, 130071, Note_on_c, 0, 51, 0
2, 130076, Note_on_c, 0, 63, 0
2, 130104, Note_on_c, 0, 51, 53
2, 130116, Control_c, 0, 67, 0
2, 130150, Note_on_c, 0, 54, 54
2, 130158, Note_on_c, 0, 55, 0
2, 130192, Control_c, 0, 64, 0
2, 130197, Note_on_c, 0, 63, 70
2, 130208, Note_on_c, 0, 94, 0
2, 130208, Note_on_c, 0, 96, 0
2, 130208, Note_on_c, 0, 87, 0
2, 130208, Note_on_c, 0, 91, 0
2, 130208, Note_on_c, 0, 84, 0
2, 130210, Note_on_c, 0, 75, 0
2, 130210, Note_on_c, 0, 79, 0
2, 130210, Note_on_c, 0, 82, 0
2, 130210, Note_on_c, 0, 67, 0
2, 130210, Note_on_c, 0, 70, 0
2, 130215, Note_on_c, 0, 72, 0
2, 130224, Note_on_c, 0, 58, 0
2, 130286, Note_on_c, 0, 70, 54
2, 130358, Note_on_c, 0, 75, 52
2, 130418, Note_on_c, 0, 58, 65
2, 130427, Note_on_c, 0, 78, 54
2, 130492, Note_on_c, 0, 84, 48
2, 130494, Control_c, 0, 64, 127
2, 130557, Note_on_c, 0, 82, 54
2, 130568, Note_on_c, 0, 58, 0
2, 130615, Note_on_c, 0, 58, 56
2, 130637, Note_on_c, 0, 82, 0
2, 130673, Note_on_c, 0, 82, 47
2, 130693, Note_on_c, 0, 51, 0
2, 130706, Note_on_c, 0, 54, 0
2, 130727, Note_on_c, 0, 51, 52
2, 130738, Note_on_c, 0, 87, 52
2, 130758, Note_on_c, 0, 54, 52
2, 130792, Note_on_c, 0, 61, 61
2, 130810, Note_on_c, 0, 90, 48
2, 130815, Control_c, 0, 64, 0
2, 130826, Note_on_c, 0, 60, 83
2, 130831, Note_on_c, 0, 87, 0
2, 130831, Note_on_c, 0, 84, 0
2, 130831, Note_on_c, 0, 82, 0
2, 130831, Note_on_c, 0, 75, 0
2, 130831, Note_on_c, 0, 78, 0
2, 130836, Note_on_c, 0, 70, 0
2, 130838, Note_on_c, 0, 61, 0
2, 130838, Note_on_c, 0, 63, 0
2, 130843, Note_on_c, 0, 58, 0
2, 130876, Note_on_c, 0, 96, 53
2, 130890, Note_on_c, 0, 90, 0
2, 130948, Note_on_c, 0, 94, 49
2, 130955, Note_on_c, 0, 96, 0
2, 131016, Note_on_c, 0, 90, 48
2, 131022, Note_on_c, 0, 58, 61
2, 131031, Note_on_c, 0, 60, 0
2, 131042, Control_c, 0, 64, 127
2, 131091, Note_on_c, 0, 87, 50
2, 131159, Note_on_c, 0, 84, 49
2, 131231, Note_on_c, 0, 60, 60
2, 131231, Note_on_c, 0, 82, 51
2, 131244, Note_on_c, 0, 58, 0
2, 131300, Note_on_c, 0, 78, 53
2, 131367, Note_on_c, 0, 75, 51
2, 131380, Note_on_c, 0, 46, 50
2, 131441, Note_on_c, 0, 53, 48
2, 131449, Note_on_c, 0, 51, 0
2, 131449, Note_on_c, 0, 54, 0
2, 131490, Note_on_c, 0, 61, 68
2, 131495, Note_on_c, 0, 94, 0
2, 131495, Note_on_c, 0, 90, 0
2, 131499, Note_on_c, 0, 82, 0
2, 131499, Note_on_c, 0, 75, 0
2, 131499, Note_on_c, 0, 87, 0
2, 131499, Note_on_c, 0, 84, 0
2, 131501, Note_on_c, 0, 78, 0
2, 131501, Note_on_c, 0, 60, 0
2, 131515, Control_c, 0, 64, 0
2, 131564, Note_on_c, 0, 65, 54
2, 131638, Note_on_c, 0, 70, 52
2, 131696, Note_on_c, 0, 73, 52
2, 131757, Note_on_c, 0, 78, 52
2, 131812, Note_on_c, 0, 77, 53
2, 131817, Control_c, 0, 64, 127
2, 131826, Note_on_c, 0, 78, 0
2, 131880, Note_on_c, 0, 82, 47
2, 131942, Note_on_c, 0, 85, 53
2, 131967, Note_on_c, 0, 65, 0
2, 132019, Note_on_c, 0, 90, 53
2, 132072, Note_on_c, 0, 65, 83
2, 132115, Note_on_c, 0, 90, 0
2, 132130, Note_on_c, 0, 89, 43
2, 132137, Note_on_c, 0, 85, 0
2, 132172, Note_on_c, 0, 85, 44
2, 132208, Note_on_c, 0, 82, 0
2, 132250, Note_on_c, 0, 82, 41
2, 132292, Note_on_c, 0, 77, 0
2, 132314, Control_c, 0, 67, 127
2, 132333, Note_on_c, 0, 77, 46
2, 132420, Note_on_c, 0, 75, 48
2, 132474, Note_on_c, 0, 73, 0
2, 132521, Note_on_c, 0, 73, 41
2, 132601, Note_on_c, 0, 58, 64
2, 132620, Note_on_c, 0, 72, 47
2, 132631, Note_on_c, 0, 73, 0
2, 132728, Note_on_c, 0, 73, 42
2, 132742, Note_on_c, 0, 72, 0
2, 132820, Note_on_c, 0, 70, 0
2, 132861, Note_on_c, 0, 70, 47
2, 133002, Note_on_c, 0, 46, 0
2, 133002, Note_on_c, 0, 53, 0
2, 133002, Note_on_c, 0, 63, 75
2, 133008, Note_on_c, 0, 75, 0
2, 133008, Note_on_c, 0, 85, 0
2, 133008, Note_on_c, 0, 77, 0
2, 133008, Note_on_c, 0, 89, 0
2, 133008, Note_on_c, 0, 82, 0
2, 133008, Note_on_c, 0, 73, 0
2, 133008, Note_on_c, 0, 70, 0
2, 133008, Control_c, 0, 64, 0
2, 133013, Note_on_c, 0, 65, 0
2, 133013, Note_on_c, 0, 61, 0
2, 133013, Note_on_c, 0, 51, 46
2, 133020, Note_on_c, 0, 58, 0
2, 133020, Note_on_c, 0, 54, 46
2, 133132, Note_on_c, 0, 70, 54
2, 133216, Note_on_c, 0, 75, 49
2, 133265, Note_on_c, 0, 58, 65
2, 133292, Note_on_c, 0, 78, 53
2, 133323, Control_c, 0, 64, 127
2, 133357, Note_on_c, 0, 84, 54
2, 133417, Note_on_c, 0, 82, 53
2, 133429, Note_on_c, 0, 58, 0
2, 133481, Note_on_c, 0, 58, 56
2, 133503, Note_on_c, 0, 82, 0
2, 133543, Note_on_c, 0, 82, 54
2, 133561, Note_on_c, 0, 54, 0
2, 133573, Note_on_c, 0, 51, 0
2, 133607, Note_on_c, 0, 51, 47
2, 133611, Note_on_c, 0, 54, 48
2, 133625, Note_on_c, 0, 87, 50
2, 133636, Note_on_c, 0, 61, 66
2, 133695, Control_c, 0, 64, 0
2, 133702, Note_on_c, 0, 90, 52
2, 133710, Note_on_c, 0, 60, 83
2, 133715, Note_on_c, 0, 82, 0
2, 133715, Note_on_c, 0, 84, 0
2, 133717, Note_on_c, 0, 87, 0
2, 133717, Note_on_c, 0, 70, 0
2, 133717, Note_on_c, 0, 75, 0
2, 133717, Note_on_c, 0, 78, 0
2, 133722, Note_on_c, 0, 63, 0
2, 133722, Note_on_c, 0, 61, 0
2, 133728, Note_on_c, 0, 58, 0
2, 133789, Note_on_c, 0, 96, 50
2, 133866, Note_on_c, 0, 94, 53
2, 133895, Note_on_c, 0, 90, 0
2, 133903, Note_on_c, 0, 58, 60
2, 133910, Control_c, 0, 64, 127
2, 133919, Note_on_c, 0, 60, 0
2, 133937, Note_on_c, 0, 90, 52
2, 134016, Note_on_c, 0, 87, 54
2, 134089, Note_on_c, 0, 84, 54
2, 134160, Note_on_c, 0, 60, 65
2, 134173, Note_on_c, 0, 82, 53
2, 134178, Note_on_c, 0, 58, 0
2, 134279, Note_on_c, 0, 78, 52
2, 134379, Note_on_c, 0, 75, 48
2, 134418, Note_on_c, 0, 46, 47
2, 134470, Note_on_c, 0, 53, 50
2, 134478, Note_on_c, 0, 51, 0
2, 134478, Note_on_c, 0, 54, 0
2, 134525, Note_on_c, 0, 61, 63
2, 134530, Note_on_c, 0, 75, 0
2, 134530, Note_on_c, 0, 94, 0
2, 134530, Note_on_c, 0, 96, 0
2, 134530, Note_on_c, 0, 78, 0
2, 134530, Note_on_c, 0, 82, 0
2, 134530, Note_on_c, 0, 90, 0
2, 134530, Note_on_c, 0, 87, 0
2, 134537, Note_on_c, 0, 60, 0
2, 134537, Note_on_c, 0, 84, 0
2, 134555, Control_c, 0, 64, 0
2, 134617, Note_on_c, 0, 65, 53
2, 134685, Note_on_c, 0, 70, 48
2, 134743, Note_on_c, 0, 73, 51
2, 134810, Control_c, 0, 64, 127
2, 134810, Note_on_c, 0, 78, 52
2, 134878, Note_on_c, 0, 77, 52
2, 134880, Note_on_c, 0, 78, 0
2, 134942, Note_on_c, 0, 82, 47
2, 135000, Note_on_c, 0, 85, 49
2, 135066, Note_on_c, 0, 90, 52
2, 135099, Note_on_c, 0, 56, 48
2, 135106, Note_on_c, 0, 58, 49
2, 135128, Note_on_c, 0, 89, 49
2, 135140, Note_on_c, 0, 90, 0
2, 135158, Note_on_c, 0, 85, 0
2, 135198, Note_on_c, 0, 85, 51
2, 135218, Note_on_c, 0, 82, 0
2, 135257, Note_on_c, 0, 82, 53
2, 135282, Note_on_c, 0, 77, 0
2, 135322, Note_on_c, 0, 77, 47
2, 135354, Note_on_c, 0, 73, 0
2, 135387, Note_on_c, 0, 73, 50
2, 135423, Note_on_c, 0, 70, 0
2, 135468, Note_on_c, 0, 70, 54
2, 135483, Note_on_c, 0, 61, 0
2, 135526, Note_on_c, 0, 61, 66
2, 135532, Note_on_c, 0, 65, 0
2, 135573, Note_on_c, 0, 65, 47
2, 135626, Note_on_c, 0, 73, 0
2, 135665, Note_on_c, 0, 73, 52
2, 135735, Note_on_c, 0, 70, 0
2, 135777, Note_on_c, 0, 70, 53
2, 135854, Note_on_c, 0, 58, 0
2, 135863, Note_on_c, 0, 55, 43
2, 135871, Note_on_c, 0, 53, 0
2, 135871, Note_on_c, 0, 46, 0
2, 135871, Note_on_c, 0, 56, 0
2, 135889, Note_on_c, 0, 58, 47
2, 135898, Note_on_c, 0, 61, 0
2, 135913, Control_c, 0, 67, 0
2, 135932, Control_c, 0, 64, 0
2, 135936, Note_on_c, 0, 61, 64
2, 135943, Note_on_c, 0, 73, 0
2, 135943, Note_on_c, 0, 85, 0
2, 135943, Note_on_c, 0, 65, 0
2, 135943, Note_on_c, 0, 70, 0
2, 135943, Note_on_c, 0, 82, 0
2, 135945, Note_on_c, 0, 77, 0
2, 135945, Note_on_c, 0, 89, 0
2, 136029, Note_on_c, 0, 63, 44
2, 136094, Note_on_c, 0, 70, 53
2, 136166, Note_on_c, 0, 73, 54
2, 136184, Control_c, 0, 64, 127
2, 136229, Note_on_c, 0, 75, 47
2, 136258, Note_on_c, 0, 75, 0
2, 136298, Note_on_c, 0, 75, 48
2, 136307, Note_on_c, 0, 61, 0
2, 136345, Note_on_c, 0, 61, 66
2, 136361, Note_on_c, 0, 82, 49
2, 136438, Note_on_c, 0, 84, 47
2, 136514, Note_on_c, 0, 85, 48
2, 136519, Note_on_c, 0, 58, 0
2, 136519, Note_on_c, 0, 53, 51
2, 136524, Note_on_c, 0, 84, 0
2, 136531, Note_on_c, 0, 55, 0
2, 136542, Note_on_c, 0, 61, 0
2, 136554, Note_on_c, 0, 58, 51
2, 136585, Note_on_c, 0, 61, 52
2, 136621, Control_c, 0, 64, 0
2, 136621, Note_on_c, 0, 65, 72
2, 136626, Note_on_c, 0, 82, 0
2, 136626, Note_on_c, 0, 75, 0
2, 136628, Note_on_c, 0, 85, 0
2, 136632, Note_on_c, 0, 63, 0
2, 136632, Note_on_c, 0, 70, 0
2, 136632, Note_on_c, 0, 73, 0
2, 136706, Note_on_c, 0, 70, 47
2, 136792, Note_on_c, 0, 73, 44
2, 136854, Control_c, 0, 64, 127
2, 136881, Note_on_c, 0, 63, 65
2, 136881, Note_on_c, 0, 77, 41
2, 136888, Note_on_c, 0, 65, 0
2, 136958, Note_on_c, 0, 82, 49
2, 137000, Note_on_c, 0, 82, 0
2, 137040, Note_on_c, 0, 82, 50
2, 137054, Note_on_c, 0, 61, 0
2, 137101, Note_on_c, 0, 53, 0
2, 137114, Note_on_c, 0, 61, 62
2, 137126, Note_on_c, 0, 63, 0
2, 137128, Note_on_c, 0, 72, 49
2, 137130, Note_on_c, 0, 85, 54
2, 137138, Note_on_c, 0, 72, 0
2, 137181, Note_on_c, 0, 72, 51
2, 137196, Note_on_c, 0, 72, 0
2, 137216, Note_on_c, 0, 87, 52
2, 137255, Note_on_c, 0, 72, 50
2, 137283, Note_on_c, 0, 72, 0
2, 137308, Note_on_c, 0, 72, 52
2, 137317, Note_on_c, 0, 89, 51
2, 137328, Note_on_c, 0, 72, 0
2, 137439, Note_on_c, 0, 58, 0
2, 137448, Note_on_c, 0, 60, 62
2, 137452, Note_on_c, 0, 82, 0
2, 137452, Note_on_c, 0, 87, 0
2, 137452, Note_on_c, 0, 73, 0
2, 137454, Note_on_c, 0, 70, 0
2, 137454, Note_on_c, 0, 85, 0
2, 137454, Note_on_c, 0, 89, 0
2, 137454, Note_on_c, 0, 77, 0
2, 137461, Note_on_c, 0, 61, 0
2, 137468, Control_c, 0, 64, 0
2, 137476, Note_on_c, 0, 58, 43
2, 137478, Note_on_c, 0, 52, 48
2, 137478, Note_on_c, 0, 55, 42
2, 137555, Note_on_c, 0, 72, 59
2, 137622, Note_on_c, 0, 79, 51
2, 137694, Note_on_c, 0, 82, 49
2, 137714, Control_c, 0, 64, 127
2, 137761, Note_on_c, 0, 85, 50
2, 137827, Note_on_c, 0, 84, 50
2, 137838, Note_on_c, 0, 85, 0
2, 137904, Note_on_c, 0, 91, 53
2, 137982, Note_on_c, 0, 94, 52
2, 138070, Note_on_c, 0, 97, 52
2, 138095, Note_on_c, 0, 63, 58
2, 138133, Note_on_c, 0, 61, 57
2, 138151, Note_on_c, 0, 60, 0
2, 138169, Note_on_c, 0, 96, 52
2, 138181, Note_on_c, 0, 97, 0
2, 138196, Control_c, 0, 64, 0
2, 138203, Note_on_c, 0, 60, 54
2, 138215, Note_on_c, 0, 61, 0
2, 138215, Note_on_c, 0, 63, 0
2, 138233, Note_on_c, 0, 94, 0
2, 138271, Note_on_c, 0, 94, 52
2, 138336, Note_on_c, 0, 91, 0
2, 138377, Note_on_c, 0, 91, 54
2, 138426, Control_c, 0, 64, 127
2, 138444, Note_on_c, 0, 84, 0
2, 138484, Note_on_c, 0, 84, 49
2, 138506, Control_c, 0, 67, 127
2, 138542, Note_on_c, 0, 82, 0
2, 138591, Note_on_c, 0, 82, 50
2, 138647, Note_on_c, 0, 79, 0
2, 138689, Note_on_c, 0, 79, 52
2, 138751, Note_on_c, 0, 60, 0
2, 138771, Note_on_c, 0, 72, 0
2, 138805, Note_on_c, 0, 72, 48
2, 138810, Note_on_c, 0, 60, 78
2, 138929, Note_on_c, 0, 70, 49
2, 139053, Note_on_c, 0, 67, 47
2, 139138, Note_on_c, 0, 60, 0
2, 139165, Note_on_c, 0, 51, 84
2, 139190, Note_on_c, 0, 60, 82
2, 139197, Note_on_c, 0, 82, 0
2, 139197, Note_on_c, 0, 94, 0
2, 139197, Note_on_c, 0, 79, 0
2, 139197, Note_on_c, 0, 70, 0
2, 139197, Note_on_c, 0, 91, 0
2, 139197, Note_on_c, 0, 96, 0
2, 139199, Note_on_c, 0, 51, 0
2, 139199, Note_on_c, 0, 67, 0
2, 139203, Note_on_c, 0, 52, 0
2, 139203, Note_on_c, 0, 84, 0
2, 139208, Note_on_c, 0, 58, 0
2, 139208, Note_on_c, 0, 72, 0
2, 139208, Control_c, 0, 64, 0
2, 139208, Note_on_c, 0, 53, 42
2, 139208, Note_on_c, 0, 56, 41
2, 139217, Note_on_c, 0, 55, 0
2, 139294, Note_on_c, 0, 65, 51
2, 139384, Note_on_c, 0, 68, 49
2, 139451, Note_on_c, 0, 72, 51
2, 139460, Control_c, 0, 64, 127
2, 139527, Note_on_c, 0, 77, 52
2, 139562, Note_on_c, 0, 77, 0
2, 139601, Note_on_c, 0, 77, 50
2, 139619, Note_on_c, 0, 60, 0
2, 139666, Note_on_c, 0, 60, 59
2, 139684, Note_on_c, 0, 80, 53
2, 139756, Note_on_c, 0, 82, 48
2, 139833, Note_on_c, 0, 84, 50
2, 139894, Note_on_c, 0, 56, 0
2, 139934, Note_on_c, 0, 63, 65
2, 139936, Control_c, 0, 64, 0
2, 139943, Note_on_c, 0, 68, 0
2, 139943, Note_on_c, 0, 84, 0
2, 139943, Note_on_c, 0, 80, 0
2, 139943, Note_on_c, 0, 65, 0
2, 139943, Note_on_c, 0, 77, 0
2, 139943, Note_on_c, 0, 82, 0
2, 139943, Note_on_c, 0, 60, 0
2, 139944, Note_on_c, 0, 53, 0
2, 139951, Note_on_c, 0, 72, 0
2, 139951, Note_on_c, 0, 51, 41
2, 139951, Note_on_c, 0, 56, 42
2, 140023, Note_on_c, 0, 68, 51
2, 140100, Note_on_c, 0, 72, 47
2, 140160, Control_c, 0, 64, 127
2, 140176, Note_on_c, 0, 75, 51
2, 140183, Note_on_c, 0, 61, 63
2, 140187, Note_on_c, 0, 63, 0
2, 140261, Note_on_c, 0, 80, 54
2, 140306, Note_on_c, 0, 80, 0
2, 140349, Note_on_c, 0, 80, 52
2, 140446, Note_on_c, 0, 84, 54
2, 140450, Note_on_c, 0, 60, 62
2, 140462, Note_on_c, 0, 61, 0
2, 140547, Note_on_c, 0, 85, 53
2, 140566, Note_on_c, 0, 84, 0
2, 140658, Note_on_c, 0, 87, 53
2, 140802, Note_on_c, 0, 56, 0
2, 140835, Note_on_c, 0, 58, 66
2, 140840, Note_on_c, 0, 68, 0
2, 140840, Note_on_c, 0, 87, 0
2, 140840, Note_on_c, 0, 85, 0
2, 140840, Note_on_c, 0, 80, 0
2, 140840, Note_on_c, 0, 75, 0
2, 140840, Note_on_c, 0, 60, 0
2, 140845, Note_on_c, 0, 72, 0
2, 140845, Note_on_c, 0, 56, 59
2, 140847, Note_on_c, 0, 49, 45
2, 140856, Control_c, 0, 64, 0
2, 140896, Note_on_c, 0, 51, 0
2, 140950, Note_on_c, 0, 65, 54
2, 141020, Note_on_c, 0, 70, 50
2, 141092, Note_on_c, 0, 73, 53
2, 141164, Note_on_c, 0, 79, 53
2, 141240, Note_on_c, 0, 77, 50
2, 141242, Control_c, 0, 64, 127
2, 141310, Note_on_c, 0, 82, 51
2, 141393, Note_on_c, 0, 85, 54
2, 141477, Note_on_c, 0, 89, 53
2, 141551, Control_c, 0, 64, 0
2, 141555, Note_on_c, 0, 51, 50
2, 141564, Note_on_c, 0, 55, 50
2, 141566, Note_on_c, 0, 49, 0
2, 141573, Note_on_c, 0, 56, 0
2, 141575, Note_on_c, 0, 87, 53
2, 141581, Note_on_c, 0, 89, 0
2, 141581, Note_on_c, 0, 82, 0
2, 141581, Note_on_c, 0, 79, 0
2, 141586, Note_on_c, 0, 73, 0
2, 141588, Note_on_c, 0, 77, 0
2, 141588, Note_on_c, 0, 70, 0
2, 141588, Note_on_c, 0, 65, 0
2, 141588, Note_on_c, 0, 85, 0
2, 141673, Note_on_c, 0, 85, 47
2, 141770, Note_on_c, 0, 82, 52
2, 141861, Note_on_c, 0, 79, 51
2, 141968, Note_on_c, 0, 75, 47
2, 141973, Control_c, 0, 64, 127
2, 142080, Note_on_c, 0, 73, 49
2, 142168, Note_on_c, 0, 51, 0
2, 142201, Note_on_c, 0, 51, 60
2, 142206, Note_on_c, 0, 70, 48
2, 142344, Note_on_c, 0, 67, 44
2, 142481, Note_on_c, 0, 63, 44
2, 142571, Note_on_c, 0, 44, 47
2, 142589, Note_on_c, 0, 51, 0
2, 142623, Note_on_c, 0, 51, 53
2, 142690, Control_c, 0, 64, 0
2, 142692, Note_on_c, 0, 79, 0
2, 142692, Note_on_c, 0, 60, 72
2, 142697, Note_on_c, 0, 73, 0
2, 142697, Note_on_c, 0, 75, 0
2, 142697, Note_on_c, 0, 70, 0
2, 142697, Note_on_c, 0, 87, 0
2, 142697, Note_on_c, 0, 85, 0
2, 142697, Note_on_c, 0, 82, 0
2, 142699, Note_on_c, 0, 55, 0
2, 142699, Note_on_c, 0, 67, 0
2, 142705, Note_on_c, 0, 58, 0
2, 142705, Note_on_c, 0, 63, 0
2, 142813, Note_on_c, 0, 63, 43
2, 142912, Note_on_c, 0, 68, 43
2, 142917, Control_c, 0, 64, 127
2, 142942, Note_on_c, 0, 60, 0
2, 142989, Note_on_c, 0, 72, 41
2, 142997, Note_on_c, 0, 60, 64
2, 143064, Note_on_c, 0, 77, 41
2, 143132, Note_on_c, 0, 75, 45
2, 143152, Note_on_c, 0, 60, 0
2, 143204, Note_on_c, 0, 60, 59
2, 143239, Note_on_c, 0, 75, 0
2, 143278, Note_on_c, 0, 75, 48
2, 143309, Note_on_c, 0, 44, 0
2, 143350, Note_on_c, 0, 44, 50
2, 143350, Note_on_c, 0, 80, 43
2, 143372, Note_on_c, 0, 60, 0
2, 143424, Note_on_c, 0, 84, 46
2, 143432, Note_on_c, 0, 60, 68
2, 143502, Note_on_c, 0, 89, 41
2, 143569, Note_on_c, 0, 87, 46
2, 143603, Note_on_c, 0, 84, 0
2, 143637, Note_on_c, 0, 84, 44
2, 143643, Note_on_c, 0, 61, 64
2, 143657, Note_on_c, 0, 60, 0
2, 143672, Note_on_c, 0, 80, 0
2, 143719, Note_on_c, 0, 80, 42
2, 143758, Note_on_c, 0, 77, 0
2, 143798, Note_on_c, 0, 77, 47
2, 143827, Note_on_c, 0, 63, 0
2, 143838, Note_on_c, 0, 75, 0
2, 143880, Note_on_c, 0, 63, 61
2, 143880, Note_on_c, 0, 75, 45
2, 143892, Note_on_c, 0, 61, 0
2, 143926, Note_on_c, 0, 72, 0
2, 143961, Note_on_c, 0, 72, 48
2, 144013, Note_on_c, 0, 68, 0
2, 144053, Note_on_c, 0, 68, 44
2, 144082, Note_on_c, 0, 46, 48
2, 144091, Note_on_c, 0, 44, 0
2, 144097, Note_on_c, 0, 51, 0
2, 144131, Note_on_c, 0, 51, 52
2, 144183, Note_on_c, 0, 55, 47
2, 144218, Note_on_c, 0, 63, 0
2, 144257, Note_on_c, 0, 63, 67
2, 144264, Note_on_c, 0, 89, 0
2, 144268, Note_on_c, 0, 87, 0
2, 144268, Note_on_c, 0, 84, 0
2, 144270, Note_on_c, 0, 72, 0
2, 144270, Note_on_c, 0, 80, 0
2, 144270, Note_on_c, 0, 75, 0
2, 144270, Note_on_c, 0, 68, 0
2, 144270, Note_on_c, 0, 77, 0
2, 144275, Control_c, 0, 64, 0
2, 144360, Note_on_c, 0, 67, 51
2, 144426, Note_on_c, 0, 73, 53
2, 144488, Note_on_c, 0, 77, 51
2, 144542, Note_on_c, 0, 75, 52
2, 144607, Note_on_c, 0, 79, 53
2, 144632, Note_on_c, 0, 76, 53
2, 144652, Note_on_c, 0, 85, 53
2, 144668, Note_on_c, 0, 76, 0
2, 144708, Note_on_c, 0, 89, 57
2, 144757, Note_on_c, 0, 87, 60
2, 144816, Note_on_c, 0, 91, 55
2, 144851, Control_c, 0, 64, 127
2, 144851, Note_on_c, 0, 88, 59
2, 144864, Note_on_c, 0, 97, 60
2, 144876, Note_on_c, 0, 88, 0
2, 144923, Note_on_c, 0, 101, 59
2, 144950, Note_on_c, 0, 88, 56
2, 144968, Note_on_c, 0, 99, 54
2, 144982, Note_on_c, 0, 97, 0
2, 145020, Note_on_c, 0, 88, 0
2, 145029, Note_on_c, 0, 97, 58
2, 145040, Note_on_c, 0, 91, 0
2, 145080, Note_on_c, 0, 91, 53
2, 145096, Note_on_c, 0, 89, 0
2, 145136, Note_on_c, 0, 89, 50
2, 145154, Note_on_c, 0, 87, 0
2, 145197, Note_on_c, 0, 87, 53
2, 145215, Note_on_c, 0, 85, 0
2, 145255, Note_on_c, 0, 85, 47
2, 145277, Note_on_c, 0, 79, 0
2, 145326, Note_on_c, 0, 79, 50
2, 145355, Note_on_c, 0, 77, 0
2, 145397, Note_on_c, 0, 77, 54
2, 145440, Note_on_c, 0, 75, 0
2, 145475, Note_on_c, 0, 75, 51
2, 145524, Note_on_c, 0, 73, 0
2, 145566, Note_on_c, 0, 73, 49
2, 145615, Note_on_c, 0, 67, 0
2, 145657, Note_on_c, 0, 67, 42
2, 145754, Note_on_c, 0, 65, 47
2, 145820, Note_on_c, 0, 63, 0
2, 145858, Note_on_c, 0, 63, 41
2, 145972, Note_on_c, 0, 61, 42
2, 146096, Note_on_c, 0, 58, 41
2, 146249, Note_on_c, 0, 55, 0
2, 146303, Note_on_c, 0, 55, 60
2, 146309, Note_on_c, 0, 91, 0
2, 146309, Note_on_c, 0, 97, 0
2, 146309, Note_on_c, 0, 99, 0
2, 146309, Note_on_c, 0, 101, 0
2, 146311, Note_on_c, 0, 89, 0
2, 146316, Note_on_c, 0, 87, 0
2, 146318, Note_on_c, 0, 73, 0
2, 146318, Note_on_c, 0, 85, 0
2, 146318, Note_on_c, 0, 75, 0
2, 146318, Note_on_c, 0, 77, 0
2, 146318, Note_on_c, 0, 79, 0
2, 146320, Note_on_c, 0, 51, 0
2, 146320, Note_on_c, 0, 65, 0
2, 146320, Note_on_c, 0, 67, 0
2, 146325, Note_on_c, 0, 61, 0
2, 146325, Note_on_c, 0, 63, 0
2, 146327, Note_on_c, 0, 46, 0
2, 146328, Control_c, 0, 64, 0
2, 146333, Note_on_c, 0, 58, 0
2, 146850, Control_c, 0, 64, 127
2, 147665, Note_on_c, 0, 55, 0
2, 147673, Control_c, 0, 64, 0
2, 147831, Note_on_c, 0, 57, 60
2, 147846, Note_on_c, 0, 48, 41
2, 147846, Note_on_c, 0, 51, 42
2, 147846, Note_on_c, 0, 54, 44
2, 148010, Control_c, 0, 64, 127
2, 148235, Note_on_c, 0, 49, 61
2, 148244, Note_on_c, 0, 51, 0
2, 148244, Note_on_c, 0, 48, 0
2, 148244, Note_on_c, 0, 53, 65
2, 148248, Note_on_c, 0, 58, 64
2, 148250, Control_c, 0, 64, 0
2, 148252, Note_on_c, 0, 54, 0
2, 148259, Note_on_c, 0, 57, 0
2, 148378, Note_on_c, 0, 65, 48
2, 148462, Note_on_c, 0, 70, 53
2, 148540, Note_on_c, 0, 73, 51
2, 148554, Control_c, 0, 64, 127
2, 148612, Note_on_c, 0, 79, 49
2, 148686, Note_on_c, 0, 77, 50
2, 148727, Note_on_c, 0, 58, 0
2, 148760, Note_on_c, 0, 58, 61
2, 148825, Note_on_c, 0, 65, 0
2, 148866, Note_on_c, 0, 65, 49
2, 148936, Note_on_c, 0, 70, 0
2, 148971, Note_on_c, 0, 51, 50
2, 148976, Note_on_c, 0, 70, 49
2, 148985, Note_on_c, 0, 49, 0
2, 149014, Note_on_c, 0, 55, 48
2, 149022, Note_on_c, 0, 53, 0
2, 149042, Control_c, 0, 64, 0
2, 149056, Note_on_c, 0, 61, 66
2, 149063, Note_on_c, 0, 79, 0
2, 149067, Note_on_c, 0, 73, 0
2, 149069, Note_on_c, 0, 65, 0
2, 149069, Note_on_c, 0, 77, 0
2, 149074, Note_on_c, 0, 58, 0
2, 149108, Note_on_c, 0, 73, 49
2, 149215, Note_on_c, 0, 77, 47
2, 149296, Control_c, 0, 64, 127
2, 149318, Note_on_c, 0, 75, 53
2, 149372, Note_on_c, 0, 73, 0
2, 149419, Note_on_c, 0, 73, 52
2, 149472, Note_on_c, 0, 70, 0
2, 149513, Note_on_c, 0, 70, 54
2, 149623, Note_on_c, 0, 63, 48
2, 149886, Note_on_c, 0, 60, 66
2, 149900, Note_on_c, 0, 61, 0
2, 150374, Control_c, 0, 64, 0
2, 150401, Note_on_c, 0, 51, 0
2, 150412, Note_on_c, 0, 68, 65
2, 150417, Note_on_c, 0, 75, 0
2, 150417, Note_on_c, 0, 70, 0
2, 150417, Note_on_c, 0, 73, 0
2, 150419, Note_on_c, 0, 44, 48
2, 150421, Note_on_c, 0, 77, 0
2, 150423, Note_on_c, 0, 60, 0
2, 150423, Note_on_c, 0, 63, 0
2, 150434, Note_on_c, 0, 51, 43
2, 150473, Note_on_c, 0, 56, 54
2, 150488, Note_on_c, 0, 55, 0
2, 150569, Note_on_c, 0, 63, 45
2, 150627, Control_c, 0, 64, 127
2, 150681, Note_on_c, 0, 60, 48
2, 150744, Note_on_c, 0, 63, 0
2, 150775, Note_on_c, 0, 63, 41
2, 150838, Note_on_c, 0, 68, 0
2, 150880, Note_on_c, 0, 75, 59
2, 150902, Note_on_c, 0, 68, 41
2, 150983, Note_on_c, 0, 70, 47
2, 151077, Note_on_c, 0, 77, 66
2, 151090, Note_on_c, 0, 70, 0
2, 151090, Note_on_c, 0, 75, 0
2, 151099, Note_on_c, 0, 72, 41
2, 151134, Note_on_c, 0, 68, 0
2, 151175, Note_on_c, 0, 68, 43
2, 151220, Note_on_c, 0, 63, 0
2, 151265, Note_on_c, 0, 63, 48
2, 151307, Note_on_c, 0, 68, 0
2, 151343, Note_on_c, 0, 68, 43
2, 151396, Note_on_c, 0, 72, 0
2, 151435, Note_on_c, 0, 72, 62
2, 151435, Note_on_c, 0, 75, 59
2, 151446, Note_on_c, 0, 77, 0
2, 151534, Note_on_c, 0, 73, 48
2, 151547, Note_on_c, 0, 72, 0
2, 151612, Note_on_c, 0, 75, 0
2, 151619, Note_on_c, 0, 51, 0
2, 151648, Control_c, 0, 64, 0
2, 151656, Note_on_c, 0, 51, 48
2, 151656, Note_on_c, 0, 75, 69
2, 151663, Note_on_c, 0, 39, 51
2, 151665, Note_on_c, 0, 73, 0
2, 151667, Note_on_c, 0, 56, 0
2, 151667, Note_on_c, 0, 63, 0
2, 151667, Note_on_c, 0, 68, 0
2, 151667, Note_on_c, 0, 60, 0
2, 151674, Note_on_c, 0, 44, 0
2, 151739, Note_on_c, 0, 67, 50
2, 151823, Note_on_c, 0, 73, 50
2, 151856, Control_c, 0, 64, 127
2, 151858, Note_on_c, 0, 75, 0
2, 151898, Note_on_c, 0, 75, 48
2, 151986, Note_on_c, 0, 82, 65
2, 152040, Note_on_c, 0, 73, 0
2, 152085, Note_on_c, 0, 73, 43
2, 152138, Note_on_c, 0, 67, 0
2, 152179, Note_on_c, 0, 85, 63
2, 152181, Note_on_c, 0, 61, 51
2, 152192, Note_on_c, 0, 82, 0
2, 152210, Note_on_c, 0, 67, 47
2, 152239, Note_on_c, 0, 73, 0
2, 152286, Note_on_c, 0, 73, 43
2, 152340, Note_on_c, 0, 75, 0
2, 152380, Note_on_c, 0, 75, 41
2, 152477, Note_on_c, 0, 79, 44
2, 152520, Note_on_c, 0, 51, 0
2, 152573, Note_on_c, 0, 51, 53
2, 152600, Note_on_c, 0, 84, 65
2, 152607, Note_on_c, 0, 85, 0
2, 152726, Note_on_c, 0, 75, 0
2, 152760, Note_on_c, 0, 75, 45
2, 152815, Note_on_c, 0, 51, 0
2, 152862, Note_on_c, 0, 51, 51
2, 152876, Note_on_c, 0, 44, 49
2, 152961, Note_on_c, 0, 60, 50
2, 152968, Note_on_c, 0, 67, 0
2, 152975, Note_on_c, 0, 61, 0
2, 152975, Note_on_c, 0, 80, 60
2, 152976, Note_on_c, 0, 39, 0
2, 152976, Control_c, 0, 64, 0
2, 152983, Note_on_c, 0, 75, 0
2, 152983, Note_on_c, 0, 73, 0
2, 152983, Note_on_c, 0, 79, 0
2, 152983, Note_on_c, 0, 84, 0
2, 153087, Note_on_c, 0, 75, 44
2, 153186, Note_on_c, 0, 72, 47
2, 153201, Control_c, 0, 64, 127
2, 153233, Note_on_c, 0, 75, 0
2, 153271, Note_on_c, 0, 75, 45
2, 153316, Note_on_c, 0, 80, 0
2, 153357, Note_on_c, 0, 87, 78
2, 153375, Note_on_c, 0, 80, 45
2, 153442, Note_on_c, 0, 82, 46
2, 153521, Note_on_c, 0, 89, 65
2, 153529, Note_on_c, 0, 87, 0
2, 153531, Note_on_c, 0, 84, 48
2, 153558, Note_on_c, 0, 80, 0
2, 153600, Note_on_c, 0, 80, 45
2, 153641, Note_on_c, 0, 75, 0
2, 153681, Note_on_c, 0, 75, 44
2, 153721, Note_on_c, 0, 80, 0
2, 153767, Note_on_c, 0, 80, 42
2, 153818, Note_on_c, 0, 84, 0
2, 153854, Note_on_c, 0, 84, 65
2, 153859, Note_on_c, 0, 87, 60
2, 153864, Note_on_c, 0, 89, 0
2, 153942, Note_on_c, 0, 87, 0
2, 153956, Note_on_c, 0, 85, 49
2, 153967, Note_on_c, 0, 84, 0
2, 154026, Note_on_c, 0, 51, 0
2, 154059, Note_on_c, 0, 51, 44
2, 154064, Note_on_c, 0, 87, 69
2, 154069, Control_c, 0, 64, 0
2, 154071, Note_on_c, 0, 80, 0
2, 154076, Note_on_c, 0, 85, 0
2, 154076, Note_on_c, 0, 75, 0
2, 154076, Note_on_c, 0, 82, 0
2, 154076, Note_on_c, 0, 72, 0
2, 154078, Note_on_c, 0, 60, 0
2, 154078, Note_on_c, 0, 44, 0
2, 154100, Note_on_c, 0, 63, 46
2, 154155, Note_on_c, 0, 79, 53
2, 154248, Note_on_c, 0, 85, 53
2, 154293, Control_c, 0, 64, 127
2, 154304, Note_on_c, 0, 87, 0
2, 154343, Note_on_c, 0, 87, 47
2, 154381, Note_on_c, 0, 63, 0
2, 154426, Note_on_c, 0, 63, 42
2, 154435, Note_on_c, 0, 94, 70
2, 154448, Note_on_c, 0, 70, 68
2, 154490, Note_on_c, 0, 85, 0
2, 154502, Note_on_c, 0, 70, 0
2, 154531, Note_on_c, 0, 85, 45
2, 154544, Note_on_c, 0, 70, 45
2, 154584, Note_on_c, 0, 79, 0
2, 154598, Note_on_c, 0, 73, 46
2, 154632, Note_on_c, 0, 79, 46
2, 154677, Note_on_c, 0, 97, 68
2, 154688, Note_on_c, 0, 94, 0
2, 154742, Note_on_c, 0, 85, 0
2, 154780, Note_on_c, 0, 85, 41
2, 154848, Note_on_c, 0, 87, 0
2, 154886, Note_on_c, 0, 87, 47
2, 154990, Note_on_c, 0, 91, 46
2, 155062, Note_on_c, 0, 63, 0
2, 155095, Note_on_c, 0, 96, 61
2, 155102, Note_on_c, 0, 63, 43
2, 155107, Note_on_c, 0, 97, 0
2, 155113, Note_on_c, 0, 73, 0
2, 155115, Note_on_c, 0, 70, 0
2, 155243, Note_on_c, 0, 87, 0
2, 155285, Note_on_c, 0, 87, 44
2, 155371, Control_c, 0, 64, 0
2, 155382, Note_on_c, 0, 56, 48
2, 155389, Note_on_c, 0, 87, 0
2, 155389, Note_on_c, 0, 85, 0
2, 155389, Note_on_c, 0, 91, 0
2, 155389, Note_on_c, 0, 96, 0
2, 155389, Note_on_c, 0, 79, 0
2, 155396, Note_on_c, 0, 51, 0
2, 155400, Note_on_c, 0, 63, 0
2, 155454, Note_on_c, 0, 63, 41
2, 155568, Note_on_c, 0, 92, 66
2, 155582, Note_on_c, 0, 72, 64
2, 155703, Note_on_c, 0, 87, 52
2, 155721, Control_c, 0, 64, 127
2, 155807, Note_on_c, 0, 84, 53
2, 155869, Note_on_c, 0, 87, 0
2, 155903, Note_on_c, 0, 87, 49
2, 155968, Note_on_c, 0, 92, 0
2, 156008, Note_on_c, 0, 92, 64
2, 156015, Note_on_c, 0, 75, 63
2, 156105, Note_on_c, 0, 94, 50
2, 156199, Note_on_c, 0, 96, 65
2, 156204, Note_on_c, 0, 77, 62
2, 156209, Note_on_c, 0, 94, 0
2, 156209, Note_on_c, 0, 75, 0
2, 156244, Note_on_c, 0, 92, 0
2, 156285, Note_on_c, 0, 92, 60
2, 156325, Note_on_c, 0, 87, 0
2, 156365, Note_on_c, 0, 87, 62
2, 156401, Note_on_c, 0, 84, 0
2, 156436, Note_on_c, 0, 84, 60
2, 156472, Note_on_c, 0, 87, 0
2, 156512, Note_on_c, 0, 87, 59
2, 156517, Note_on_c, 0, 75, 62
2, 156530, Note_on_c, 0, 77, 0
2, 156552, Note_on_c, 0, 92, 0
2, 156595, Note_on_c, 0, 92, 59
2, 156635, Note_on_c, 0, 96, 0
2, 156640, Note_on_c, 0, 72, 0
2, 156675, Note_on_c, 0, 72, 64
2, 156675, Note_on_c, 0, 96, 62
2, 156689, Note_on_c, 0, 75, 0
2, 156714, Note_on_c, 0, 92, 0
2, 156754, Note_on_c, 0, 92, 56
2, 156790, Note_on_c, 0, 87, 0
2, 156828, Note_on_c, 0, 87, 59
2, 156875, Note_on_c, 0, 84, 0
2, 156913, Note_on_c, 0, 84, 57
2, 156960, Note_on_c, 0, 87, 0
2, 156989, Note_on_c, 0, 68, 54
2, 156998, Note_on_c, 0, 87, 55
2, 157016, Note_on_c, 0, 72, 0
2, 157034, Note_on_c, 0, 92, 0
2, 157080, Note_on_c, 0, 92, 53
2, 157108, Note_on_c, 0, 96, 0
2, 157147, Note_on_c, 0, 65, 53
2, 157147, Note_on_c, 0, 96, 57
2, 157158, Note_on_c, 0, 68, 0
2, 157197, Note_on_c, 0, 92, 0
2, 157235, Note_on_c, 0, 92, 42
2, 157277, Note_on_c, 0, 87, 0
2, 157318, Note_on_c, 0, 87, 48
2, 157358, Note_on_c, 0, 84, 0
2, 157393, Note_on_c, 0, 84, 42
2, 157447, Note_on_c, 0, 63, 0
2, 157447, Note_on_c, 0, 87, 0
2, 157483, Note_on_c, 0, 87, 43
2, 157489, Note_on_c, 0, 63, 53
2, 157498, Note_on_c, 0, 65, 0
2, 157536, Note_on_c, 0, 92, 0
2, 157570, Note_on_c, 0, 92, 45
2, 157629, Note_on_c, 0, 96, 0
2, 157664, Note_on_c, 0, 96, 47
2, 157676, Note_on_c, 0, 60, 53
2, 157691, Note_on_c, 0, 63, 0
2, 157736, Note_on_c, 0, 92, 0
2, 157778, Note_on_c, 0, 92, 41
2, 157848, Note_on_c, 0, 87, 0
2, 157891, Note_on_c, 0, 87, 41
2, 157978, Note_on_c, 0, 84, 0
2, 158014, Note_on_c, 0, 84, 42
2, 158137, Note_on_c, 0, 87, 0
2, 158142, Note_on_c, 0, 56, 0
2, 158178, Note_on_c, 0, 87, 41
2, 158184, Note_on_c, 0, 56, 47
2, 158196, Note_on_c, 0, 60, 0
2, 158412, Note_on_c, 0, 92, 0
2, 158450, Note_on_c, 0, 92, 48
2, 158747, Control_c, 0, 64, 0
2, 158759, Note_on_c, 0, 44, 49
2, 158765, Note_on_c, 0, 92, 0
2, 158765, Note_on_c, 0, 87, 0
2, 158765, Note_on_c, 0, 96, 0
2, 158770, Note_on_c, 0, 84, 0
2, 158770, Note_on_c, 0, 56, 0
2, 158878, Note_on_c, 0, 51, 47
2, 158954, Note_on_c, 0, 56, 44
2, 159017, Note_on_c, 0, 60, 41
2, 159087, Note_on_c, 0, 63, 47
2, 159149, Note_on_c, 0, 68, 41
2, 159226, Note_on_c, 0, 75, 43
2, 159310, Note_on_c, 0, 80, 41
2, 159384, Note_on_c, 0, 84, 42
2, 159462, Note_on_c, 0, 87, 42
2, 159554, Note_on_c, 0, 92, 45
2, 159665, Note_on_c, 0, 96, 59
2, 160139, Control_c, 0, 64, 127
2, 160332, Note_on_c, 0, 86, 63
2, 160341, Note_on_c, 0, 85, 60
2, 160426, Note_on_c, 0, 86, 0
2, 160433, Note_on_c, 0, 85, 0
2, 160440, Note_on_c, 0, 32, 46
2, 161219, Note_on_c, 0, 80, 0
2, 161224, Note_on_c, 0, 68, 0
2, 161224, Note_on_c, 0, 60, 0
2, 161224, Note_on_c, 0, 56, 0
2, 161224, Note_on_c, 0, 51, 0
2, 161224, Note_on_c, 0, 63, 0
2, 161262, Note_on_c, 0, 51, 47
2, 161262, Note_on_c, 0, 80, 63
2, 161267, Note_on_c, 0, 56, 42
2, 161267, Note_on_c, 0, 60, 41
2, 161267, Note_on_c, 0, 63, 48
2, 161280, Note_on_c, 0, 68, 60
2, 161280, Note_on_c, 0, 72, 61
2, 162983, Note_on_c, 0, 80, 0
2, 162983, Note_on_c, 0, 92, 0
2, 162983, Note_on_c, 0, 96, 0
2, 162983, Note_on_c, 0, 87, 0
2, 162987, Note_on_c, 0, 75, 0
2, 162987, Note_on_c, 0, 84, 0
2, 162987, Note_on_c, 0, 72, 0
2, 162989, Note_on_c, 0, 44, 0
2, 162989, Note_on_c, 0, 32, 0
2, 162989, Note_on_c, 0, 68, 0
2, 162989, Note_on_c, 0, 60, 0
2, 162989, Note_on_c, 0, 56, 0
2, 162989, Note_on_c, 0, 63, 0
2, 162989, Control_c, 0, 64, 0
2, 162996, Note_on_c, 0, 51, 0
2, 164815, Control_c, 0, 67, 0
2, 164815, End_track
3, 0, Start_track
3, 0, Title_t, "c/b Mendelssohn-Heller"
3, 0, End_track
4, 0, Start_track
4, 0, Title_t, "p/b Marguerite Volavy"
4, 0, End_track
5, 0, Start_track
5, 0, Title_t, "Ampico conversion from Apollo # 3278"
5, 0, End_track
6, 0, Start_track
6, 0, Title_t, "Scan of a player piano roll"
6, 0, End_track
7, 0, Start_track
7, 0, Title_t, "by Terry Smythe, Winnipeg, Canada"
7, 0, End_track
0, 0, End_of_file
