0, 0, Header, 1, 7, 192
1, 0, Start_track
1, 0, Title_t, "51422A"
1, 0, Text_t, "Roll expression/accent tracks, where present, converted to MIDI velocties.\012"
1, 0, Time_signature, 4, 2, 24, 8
1, 0, Key_signature, 0, "major"
1, 0, Tempo, 500000
1, 0, Marker_t, "Standard MIDI:LPI 127:Tempo  60: 08-20-2003"
1, 0, End_track
2, 0, Start_track
2, 0, Title_t, "Spring Song"
2, 0, Control_c, 0, 7, 115
2, 116, Control_c, 0, 67, 127
2, 657, Note_on_c, 0, 33, 52
2, 697, Control_c, 0, 64, 127
2, 697, Note_on_c, 0, 73, 63
2, 848, Note_on_c, 0, 61, 45
2, 856, Control_c, 0, 64, 0
2, 859, Note_on_c, 0, 64, 43
2, 871, Note_on_c, 0, 33, 0
2, 884, Note_on_c, 0, 69, 53
2, 887, Note_on_c, 0, 61, 0
2, 899, Note_on_c, 0, 64, 0
2, 922, Note_on_c, 0, 69, 0
2, 1015, Note_on_c, 0, 52, 52
2, 1028, Note_on_c, 0, 57, 47
2, 1056, Note_on_c, 0, 52, 0
2, 1060, Note_on_c, 0, 61, 53
2, 1065, Note_on_c, 0, 57, 0
2, 1065, Note_on_c, 0, 64, 49
2, 1101, Note_on_c, 0, 64, 0
2, 1101, Note_on_c, 0, 61, 0
2, 1110, Note_on_c, 0, 74, 53
2, 1133, Note_on_c, 0, 73, 0
2, 1146, Note_on_c, 0, 74, 0
2, 1176, Note_on_c, 0, 75, 57
2, 1216, Note_on_c, 0, 75, 0
2, 1219, Note_on_c, 0, 76, 53
2, 1259, Note_on_c, 0, 76, 0
2, 1264, Note_on_c, 0, 81, 62
2, 1269, Note_on_c, 0, 37, 55
2, 1284, Note_on_c, 0, 49, 57
2, 1307, Note_on_c, 0, 37, 0
2, 1320, Note_on_c, 0, 49, 0
2, 1392, Note_on_c, 0, 69, 43
2, 1402, Note_on_c, 0, 73, 47
2, 1427, Note_on_c, 0, 69, 0
2, 1430, Note_on_c, 0, 81, 0
2, 1438, Note_on_c, 0, 76, 60
2, 1440, Note_on_c, 0, 73, 0
2, 1531, Note_on_c, 0, 57, 48
2, 1543, Note_on_c, 0, 61, 52
2, 1546, Note_on_c, 0, 74, 60
2, 1554, Note_on_c, 0, 64, 48
2, 1561, Note_on_c, 0, 69, 51
2, 1564, Note_on_c, 0, 57, 0
2, 1574, Note_on_c, 0, 61, 0
2, 1579, Note_on_c, 0, 76, 0
2, 1586, Note_on_c, 0, 64, 0
2, 1599, Note_on_c, 0, 69, 0
2, 1682, Control_c, 0, 64, 127
2, 1720, Note_on_c, 0, 73, 59
2, 1748, Note_on_c, 0, 74, 0
2, 1836, Note_on_c, 0, 71, 65
2, 1841, Control_c, 0, 64, 0
2, 1850, Note_on_c, 0, 38, 49
2, 1873, Note_on_c, 0, 73, 0
2, 1889, Note_on_c, 0, 50, 43
2, 1892, Note_on_c, 0, 38, 0
2, 1927, Note_on_c, 0, 50, 0
2, 1960, Note_on_c, 0, 59, 48
2, 1960, Note_on_c, 0, 62, 48
2, 1969, Note_on_c, 0, 66, 50
2, 1997, Note_on_c, 0, 62, 0
2, 1997, Note_on_c, 0, 59, 0
2, 2007, Note_on_c, 0, 66, 0
2, 2060, Note_on_c, 0, 50, 52
2, 2060, Note_on_c, 0, 54, 50
2, 2092, Note_on_c, 0, 59, 50
2, 2095, Note_on_c, 0, 50, 0
2, 2108, Note_on_c, 0, 54, 0
2, 2115, Note_on_c, 0, 62, 52
2, 2131, Note_on_c, 0, 59, 0
2, 2154, Note_on_c, 0, 62, 0
2, 2255, Note_on_c, 0, 74, 63
2, 2280, Note_on_c, 0, 71, 0
2, 2388, Note_on_c, 0, 78, 68
2, 2391, Note_on_c, 0, 35, 48
2, 2406, Note_on_c, 0, 47, 43
2, 2411, Note_on_c, 0, 74, 0
2, 2428, Note_on_c, 0, 35, 0
2, 2444, Note_on_c, 0, 47, 0
2, 2507, Note_on_c, 0, 66, 48
2, 2522, Note_on_c, 0, 71, 52
2, 2532, Note_on_c, 0, 74, 52
2, 2544, Note_on_c, 0, 66, 0
2, 2568, Note_on_c, 0, 74, 0
2, 2568, Note_on_c, 0, 71, 0
2, 2640, Note_on_c, 0, 59, 46
2, 2661, Note_on_c, 0, 62, 48
2, 2661, Note_on_c, 0, 66, 47
2, 2676, Note_on_c, 0, 59, 0
2, 2693, Note_on_c, 0, 71, 51
2, 2698, Note_on_c, 0, 66, 0
2, 2698, Note_on_c, 0, 62, 0
2, 2728, Note_on_c, 0, 71, 0
2, 2793, Control_c, 0, 64, 127
2, 2823, Note_on_c, 0, 74, 63
2, 2848, Note_on_c, 0, 78, 0
2, 2953, Note_on_c, 0, 32, 50
2, 2966, Note_on_c, 0, 44, 49
2, 2969, Note_on_c, 0, 71, 68
2, 2989, Note_on_c, 0, 32, 0
2, 2994, Note_on_c, 0, 74, 0
2, 2997, Control_c, 0, 64, 0
2, 3012, Note_on_c, 0, 44, 0
2, 3065, Note_on_c, 0, 62, 48
2, 3074, Note_on_c, 0, 64, 41
2, 3097, Note_on_c, 0, 68, 50
2, 3102, Note_on_c, 0, 62, 0
2, 3112, Note_on_c, 0, 64, 0
2, 3132, Note_on_c, 0, 68, 0
2, 3225, Note_on_c, 0, 52, 50
2, 3238, Note_on_c, 0, 59, 49
2, 3258, Note_on_c, 0, 52, 0
2, 3258, Note_on_c, 0, 62, 51
2, 3265, Note_on_c, 0, 64, 48
2, 3270, Note_on_c, 0, 59, 0
2, 3290, Note_on_c, 0, 62, 0
2, 3300, Note_on_c, 0, 64, 0
2, 3303, Note_on_c, 0, 71, 0
2, 3311, Note_on_c, 0, 70, 53
2, 3348, Note_on_c, 0, 70, 0
2, 3356, Note_on_c, 0, 71, 56
2, 3393, Note_on_c, 0, 71, 0
2, 3410, Note_on_c, 0, 72, 57
2, 3448, Note_on_c, 0, 72, 0
2, 3468, Note_on_c, 0, 73, 59
2, 3473, Note_on_c, 0, 33, 48
2, 3482, Note_on_c, 0, 45, 47
2, 3507, Note_on_c, 0, 33, 0
2, 3520, Note_on_c, 0, 45, 0
2, 3570, Note_on_c, 0, 73, 0
2, 3587, Note_on_c, 0, 64, 42
2, 3607, Note_on_c, 0, 69, 52
2, 3620, Note_on_c, 0, 73, 53
2, 3623, Note_on_c, 0, 64, 0
2, 3646, Note_on_c, 0, 76, 66
2, 3648, Note_on_c, 0, 69, 0
2, 3661, Note_on_c, 0, 73, 0
2, 3734, Note_on_c, 0, 57, 46
2, 3746, Note_on_c, 0, 61, 44
2, 3759, Note_on_c, 0, 64, 43
2, 3759, Note_on_c, 0, 74, 60
2, 3774, Note_on_c, 0, 57, 0
2, 3784, Note_on_c, 0, 61, 0
2, 3784, Note_on_c, 0, 69, 45
2, 3799, Note_on_c, 0, 76, 0
2, 3799, Note_on_c, 0, 64, 0
2, 3812, Control_c, 0, 64, 127
2, 3821, Note_on_c, 0, 69, 0
2, 3887, Note_on_c, 0, 73, 62
2, 3912, Note_on_c, 0, 74, 0
2, 3972, Control_c, 0, 64, 0
2, 3992, Note_on_c, 0, 30, 48
2, 3995, Note_on_c, 0, 42, 49
2, 4003, Note_on_c, 0, 73, 0
2, 4008, Note_on_c, 0, 71, 63
2, 4028, Note_on_c, 0, 42, 0
2, 4028, Note_on_c, 0, 30, 0
2, 4073, Note_on_c, 0, 59, 41
2, 4085, Note_on_c, 0, 63, 44
2, 4093, Note_on_c, 0, 66, 55
2, 4108, Note_on_c, 0, 59, 0
2, 4116, Note_on_c, 0, 69, 59
2, 4119, Note_on_c, 0, 63, 0
2, 4131, Note_on_c, 0, 66, 0
2, 4144, Note_on_c, 0, 71, 0
2, 4217, Note_on_c, 0, 54, 41
2, 4226, Note_on_c, 0, 57, 41
2, 4249, Note_on_c, 0, 59, 49
2, 4249, Note_on_c, 0, 68, 59
2, 4252, Note_on_c, 0, 54, 0
2, 4260, Note_on_c, 0, 63, 48
2, 4265, Note_on_c, 0, 57, 0
2, 4277, Note_on_c, 0, 69, 0
2, 4285, Note_on_c, 0, 59, 0
2, 4297, Note_on_c, 0, 63, 0
2, 4416, Note_on_c, 0, 69, 56
2, 4443, Note_on_c, 0, 68, 0
2, 4549, Note_on_c, 0, 73, 65
2, 4554, Note_on_c, 0, 28, 51
2, 4554, Note_on_c, 0, 40, 53
2, 4574, Note_on_c, 0, 69, 0
2, 4589, Note_on_c, 0, 28, 0
2, 4592, Note_on_c, 0, 40, 0
2, 4690, Note_on_c, 0, 61, 41
2, 4698, Note_on_c, 0, 64, 46
2, 4707, Note_on_c, 0, 69, 50
2, 4723, Note_on_c, 0, 61, 0
2, 4735, Note_on_c, 0, 64, 0
2, 4748, Note_on_c, 0, 69, 0
2, 4884, Note_on_c, 0, 59, 45
2, 4894, Note_on_c, 0, 62, 43
2, 4896, Note_on_c, 0, 64, 42
2, 4904, Note_on_c, 0, 71, 56
2, 4917, Note_on_c, 0, 68, 42
2, 4920, Note_on_c, 0, 59, 0
2, 4929, Note_on_c, 0, 64, 0
2, 4929, Note_on_c, 0, 73, 0
2, 4929, Note_on_c, 0, 62, 0
2, 4954, Note_on_c, 0, 68, 0
2, 5140, Note_on_c, 0, 64, 66
2, 5168, Note_on_c, 0, 71, 0
2, 5168, Control_c, 0, 64, 127
2, 5304, Note_on_c, 0, 73, 68
2, 5322, Note_on_c, 0, 33, 53
2, 5329, Note_on_c, 0, 64, 0
2, 5334, Note_on_c, 0, 45, 52
2, 5347, Control_c, 0, 64, 0
2, 5359, Note_on_c, 0, 33, 0
2, 5372, Note_on_c, 0, 45, 0
2, 5465, Note_on_c, 0, 61, 43
2, 5468, Note_on_c, 0, 64, 44
2, 5491, Note_on_c, 0, 69, 50
2, 5506, Note_on_c, 0, 64, 0
2, 5506, Note_on_c, 0, 61, 0
2, 5529, Note_on_c, 0, 69, 0
2, 5590, Note_on_c, 0, 52, 45
2, 5590, Note_on_c, 0, 57, 47
2, 5622, Note_on_c, 0, 61, 45
2, 5622, Note_on_c, 0, 64, 44
2, 5665, Note_on_c, 0, 74, 63
2, 5690, Note_on_c, 0, 73, 0
2, 5708, Note_on_c, 0, 75, 64
2, 5731, Note_on_c, 0, 64, 0
2, 5731, Note_on_c, 0, 52, 0
2, 5731, Note_on_c, 0, 61, 0
2, 5731, Note_on_c, 0, 57, 0
2, 5734, Note_on_c, 0, 74, 0
2, 5743, Note_on_c, 0, 75, 0
2, 5763, Note_on_c, 0, 76, 61
2, 5801, Note_on_c, 0, 76, 0
2, 5804, Note_on_c, 0, 37, 55
2, 5808, Note_on_c, 0, 81, 64
2, 5816, Note_on_c, 0, 49, 56
2, 5841, Note_on_c, 0, 37, 0
2, 5854, Note_on_c, 0, 49, 0
2, 5877, Control_c, 0, 64, 127
2, 5927, Note_on_c, 0, 64, 49
2, 5952, Note_on_c, 0, 69, 47
2, 5964, Note_on_c, 0, 64, 0
2, 5972, Note_on_c, 0, 73, 46
2, 5984, Note_on_c, 0, 76, 48
2, 5987, Note_on_c, 0, 69, 0
2, 5997, Note_on_c, 0, 81, 0
2, 5997, Control_c, 0, 64, 0
2, 6004, Note_on_c, 0, 73, 0
2, 6042, Note_on_c, 0, 57, 55
2, 6054, Note_on_c, 0, 61, 48
2, 6077, Note_on_c, 0, 64, 48
2, 6080, Note_on_c, 0, 57, 0
2, 6080, Note_on_c, 0, 74, 63
2, 6088, Note_on_c, 0, 69, 63
2, 6091, Note_on_c, 0, 61, 0
2, 6103, Note_on_c, 0, 76, 0
2, 6116, Note_on_c, 0, 64, 0
2, 6125, Note_on_c, 0, 69, 0
2, 6203, Note_on_c, 0, 73, 66
2, 6231, Note_on_c, 0, 74, 0
2, 6294, Note_on_c, 0, 71, 65
2, 6317, Note_on_c, 0, 73, 0
2, 6322, Note_on_c, 0, 38, 64
2, 6325, Note_on_c, 0, 50, 66
2, 6360, Note_on_c, 0, 50, 0
2, 6360, Note_on_c, 0, 38, 0
2, 6388, Note_on_c, 0, 59, 56
2, 6408, Note_on_c, 0, 62, 54
2, 6421, Note_on_c, 0, 66, 49
2, 6426, Note_on_c, 0, 59, 0
2, 6446, Note_on_c, 0, 62, 0
2, 6454, Note_on_c, 0, 66, 0
2, 6524, Note_on_c, 0, 50, 59
2, 6539, Note_on_c, 0, 54, 59
2, 6549, Note_on_c, 0, 59, 58
2, 6558, Note_on_c, 0, 62, 63
2, 6561, Note_on_c, 0, 50, 0
2, 6571, Note_on_c, 0, 54, 0
2, 6583, Note_on_c, 0, 59, 0
2, 6596, Note_on_c, 0, 62, 0
2, 6669, Note_on_c, 0, 74, 64
2, 6673, Control_c, 0, 64, 127
2, 6694, Note_on_c, 0, 71, 0
2, 6777, Note_on_c, 0, 78, 65
2, 6787, Control_c, 0, 64, 0
2, 6796, Note_on_c, 0, 34, 70
2, 6796, Note_on_c, 0, 46, 63
2, 6804, Note_on_c, 0, 74, 0
2, 6834, Note_on_c, 0, 46, 0
2, 6834, Note_on_c, 0, 34, 0
2, 6877, Note_on_c, 0, 66, 45
2, 6889, Note_on_c, 0, 70, 50
2, 6897, Note_on_c, 0, 73, 53
2, 6914, Note_on_c, 0, 66, 0
2, 6927, Note_on_c, 0, 70, 0
2, 6939, Note_on_c, 0, 73, 0
2, 6977, Note_on_c, 0, 54, 57
2, 7002, Note_on_c, 0, 61, 51
2, 7014, Note_on_c, 0, 64, 53
2, 7017, Note_on_c, 0, 54, 0
2, 7022, Note_on_c, 0, 66, 52
2, 7037, Note_on_c, 0, 61, 0
2, 7050, Note_on_c, 0, 64, 0
2, 7062, Note_on_c, 0, 66, 0
2, 7196, Note_on_c, 0, 76, 68
2, 7224, Note_on_c, 0, 78, 0
2, 7304, Control_c, 0, 64, 127
2, 7329, Note_on_c, 0, 75, 67
2, 7346, Note_on_c, 0, 35, 65
2, 7356, Note_on_c, 0, 76, 0
2, 7368, Note_on_c, 0, 47, 65
2, 7384, Note_on_c, 0, 35, 0
2, 7409, Note_on_c, 0, 47, 0
2, 7485, Note_on_c, 0, 62, 53
2, 7485, Note_on_c, 0, 66, 45
2, 7497, Note_on_c, 0, 71, 43
2, 7514, Note_on_c, 0, 74, 61
2, 7519, Note_on_c, 0, 66, 0
2, 7519, Note_on_c, 0, 62, 0
2, 7527, Control_c, 0, 64, 0
2, 7530, Note_on_c, 0, 71, 0
2, 7542, Note_on_c, 0, 75, 0
2, 7646, Note_on_c, 0, 54, 53
2, 7671, Note_on_c, 0, 59, 53
2, 7680, Note_on_c, 0, 62, 49
2, 7680, Note_on_c, 0, 73, 66
2, 7683, Note_on_c, 0, 54, 0
2, 7704, Note_on_c, 0, 59, 0
2, 7704, Note_on_c, 0, 66, 64
2, 7706, Note_on_c, 0, 74, 0
2, 7716, Note_on_c, 0, 62, 0
2, 7739, Note_on_c, 0, 66, 0
2, 7820, Control_c, 0, 64, 127
2, 7845, Note_on_c, 0, 71, 66
2, 7870, Note_on_c, 0, 73, 0
2, 7966, Note_on_c, 0, 69, 64
2, 7973, Note_on_c, 0, 40, 50
2, 7986, Note_on_c, 0, 52, 47
2, 7993, Note_on_c, 0, 71, 0
2, 8009, Control_c, 0, 64, 0
2, 8012, Note_on_c, 0, 40, 0
2, 8021, Note_on_c, 0, 52, 0
2, 8087, Note_on_c, 0, 59, 44
2, 8116, Note_on_c, 0, 62, 47
2, 8119, Note_on_c, 0, 59, 0
2, 8129, Note_on_c, 0, 68, 64
2, 8138, Note_on_c, 0, 64, 53
2, 8154, Note_on_c, 0, 62, 0
2, 8157, Note_on_c, 0, 69, 0
2, 8177, Note_on_c, 0, 64, 0
2, 8257, Note_on_c, 0, 68, 0
2, 8282, Note_on_c, 0, 56, 43
2, 8305, Note_on_c, 0, 59, 47
2, 8318, Note_on_c, 0, 62, 48
2, 8321, Note_on_c, 0, 56, 0
2, 8338, Note_on_c, 0, 64, 48
2, 8343, Note_on_c, 0, 59, 0
2, 8351, Note_on_c, 0, 73, 69
2, 8353, Note_on_c, 0, 62, 0
2, 8376, Note_on_c, 0, 64, 0
2, 8563, Note_on_c, 0, 71, 59
2, 8591, Note_on_c, 0, 73, 0
2, 8593, Control_c, 0, 64, 127
2, 8659, Note_on_c, 0, 71, 0
2, 8722, Note_on_c, 0, 71, 63
2, 8732, Note_on_c, 0, 33, 49
2, 8744, Note_on_c, 0, 45, 53
2, 8754, Control_c, 0, 64, 0
2, 8779, Note_on_c, 0, 45, 0
2, 8875, Note_on_c, 0, 62, 43
2, 8898, Note_on_c, 0, 64, 42
2, 8907, Note_on_c, 0, 68, 49
2, 8912, Note_on_c, 0, 62, 0
2, 8929, Note_on_c, 0, 64, 0
2, 8942, Note_on_c, 0, 68, 0
2, 9046, Note_on_c, 0, 52, 43
2, 9055, Note_on_c, 0, 57, 46
2, 9075, Note_on_c, 0, 33, 0
2, 9075, Note_on_c, 0, 61, 53
2, 9078, Note_on_c, 0, 52, 0
2, 9091, Note_on_c, 0, 57, 0
2, 9100, Note_on_c, 0, 64, 47
2, 9100, Note_on_c, 0, 69, 56
2, 9113, Note_on_c, 0, 61, 0
2, 9118, Control_c, 0, 67, 0
2, 9122, Note_on_c, 0, 71, 0
2, 9132, Note_on_c, 0, 64, 0
2, 9278, Note_on_c, 0, 64, 65
2, 9303, Note_on_c, 0, 69, 0
2, 9360, Note_on_c, 0, 37, 51
2, 9384, Note_on_c, 0, 49, 54
2, 9396, Note_on_c, 0, 37, 0
2, 9419, Note_on_c, 0, 76, 72
2, 9422, Note_on_c, 0, 49, 0
2, 9425, Control_c, 0, 64, 127
2, 9501, Note_on_c, 0, 64, 0
2, 9538, Note_on_c, 0, 64, 46
2, 9551, Note_on_c, 0, 69, 51
2, 9560, Note_on_c, 0, 73, 54
2, 9573, Note_on_c, 0, 64, 0
2, 9590, Control_c, 0, 64, 0
2, 9598, Note_on_c, 0, 73, 0
2, 9598, Note_on_c, 0, 69, 0
2, 9655, Note_on_c, 0, 57, 41
2, 9678, Note_on_c, 0, 61, 44
2, 9688, Note_on_c, 0, 64, 47
2, 9693, Note_on_c, 0, 57, 0
2, 9710, Note_on_c, 0, 61, 0
2, 9720, Note_on_c, 0, 69, 56
2, 9724, Note_on_c, 0, 64, 0
2, 9752, Note_on_c, 0, 75, 55
2, 9755, Note_on_c, 0, 69, 0
2, 9780, Note_on_c, 0, 76, 0
2, 9800, Note_on_c, 0, 74, 53
2, 9853, Note_on_c, 0, 73, 60
2, 9901, Note_on_c, 0, 71, 59
2, 9916, Note_on_c, 0, 38, 52
2, 9919, Note_on_c, 0, 50, 54
2, 9924, Note_on_c, 0, 73, 0
2, 9927, Note_on_c, 0, 75, 0
2, 9927, Note_on_c, 0, 74, 0
2, 9955, Note_on_c, 0, 38, 0
2, 9958, Note_on_c, 0, 50, 0
2, 9987, Note_on_c, 0, 59, 47
2, 10003, Note_on_c, 0, 64, 47
2, 10026, Note_on_c, 0, 68, 62
2, 10029, Note_on_c, 0, 59, 0
2, 10038, Note_on_c, 0, 64, 0
2, 10051, Note_on_c, 0, 71, 0
2, 10096, Note_on_c, 0, 68, 0
2, 10121, Note_on_c, 0, 50, 46
2, 10144, Note_on_c, 0, 52, 42
2, 10147, Note_on_c, 0, 68, 49
2, 10156, Note_on_c, 0, 56, 47
2, 10156, Note_on_c, 0, 59, 46
2, 10159, Note_on_c, 0, 50, 0
2, 10159, Note_on_c, 0, 66, 55
2, 10182, Note_on_c, 0, 52, 0
2, 10185, Note_on_c, 0, 68, 0
2, 10195, Note_on_c, 0, 56, 0
2, 10195, Note_on_c, 0, 59, 0
2, 10308, Note_on_c, 0, 64, 66
2, 10331, Note_on_c, 0, 66, 0
2, 10416, Note_on_c, 0, 37, 53
2, 10416, Note_on_c, 0, 49, 48
2, 10432, Note_on_c, 0, 76, 59
2, 10455, Note_on_c, 0, 49, 0
2, 10455, Note_on_c, 0, 37, 0
2, 10500, Note_on_c, 0, 64, 0
2, 10530, Note_on_c, 0, 64, 48
2, 10542, Note_on_c, 0, 69, 48
2, 10560, Note_on_c, 0, 73, 53
2, 10562, Note_on_c, 0, 64, 0
2, 10575, Note_on_c, 0, 69, 0
2, 10598, Note_on_c, 0, 73, 0
2, 10613, Note_on_c, 0, 57, 49
2, 10643, Note_on_c, 0, 61, 47
2, 10648, Note_on_c, 0, 57, 0
2, 10656, Note_on_c, 0, 64, 53
2, 10680, Note_on_c, 0, 69, 47
2, 10683, Note_on_c, 0, 61, 0
2, 10696, Note_on_c, 0, 64, 0
2, 10713, Note_on_c, 0, 75, 57
2, 10718, Note_on_c, 0, 69, 0
2, 10718, Control_c, 0, 64, 127
2, 10738, Note_on_c, 0, 76, 0
2, 10755, Note_on_c, 0, 74, 54
2, 10811, Note_on_c, 0, 73, 54
2, 10848, Note_on_c, 0, 38, 61
2, 10851, Note_on_c, 0, 71, 63
2, 10872, Note_on_c, 0, 50, 61
2, 10874, Control_c, 0, 64, 0
2, 10879, Note_on_c, 0, 73, 0
2, 10879, Note_on_c, 0, 75, 0
2, 10879, Note_on_c, 0, 74, 0
2, 10887, Note_on_c, 0, 38, 0
2, 10912, Note_on_c, 0, 50, 0
2, 10947, Note_on_c, 0, 59, 48
2, 10960, Note_on_c, 0, 64, 54
2, 10972, Note_on_c, 0, 68, 66
2, 10988, Note_on_c, 0, 59, 0
2, 10997, Note_on_c, 0, 71, 0
2, 10997, Note_on_c, 0, 64, 0
2, 10997, Note_on_c, 0, 68, 0
2, 11070, Note_on_c, 0, 50, 48
2, 11080, Note_on_c, 0, 52, 49
2, 11083, Note_on_c, 0, 68, 48
2, 11103, Note_on_c, 0, 56, 52
2, 11103, Note_on_c, 0, 66, 65
2, 11108, Note_on_c, 0, 50, 0
2, 11115, Note_on_c, 0, 59, 52
2, 11118, Note_on_c, 0, 52, 0
2, 11131, Note_on_c, 0, 68, 0
2, 11140, Note_on_c, 0, 56, 0
2, 11150, Note_on_c, 0, 59, 0
2, 11256, Note_on_c, 0, 64, 69
2, 11283, Note_on_c, 0, 66, 0
2, 11376, Note_on_c, 0, 37, 49
2, 11381, Note_on_c, 0, 68, 65
2, 11389, Note_on_c, 0, 49, 49
2, 11406, Note_on_c, 0, 64, 0
2, 11414, Note_on_c, 0, 37, 0
2, 11424, Note_on_c, 0, 49, 0
2, 11441, Control_c, 0, 64, 127
2, 11469, Note_on_c, 0, 61, 50
2, 11481, Note_on_c, 0, 64, 52
2, 11514, Note_on_c, 0, 69, 64
2, 11539, Note_on_c, 0, 68, 0
2, 11592, Note_on_c, 0, 61, 0
2, 11596, Note_on_c, 0, 52, 52
2, 11606, Note_on_c, 0, 57, 51
2, 11611, Note_on_c, 0, 64, 0
2, 11618, Note_on_c, 0, 61, 51
2, 11626, Control_c, 0, 64, 0
2, 11631, Note_on_c, 0, 52, 0
2, 11634, Note_on_c, 0, 69, 0
2, 11639, Note_on_c, 0, 64, 54
2, 11643, Note_on_c, 0, 57, 0
2, 11643, Note_on_c, 0, 76, 70
2, 11651, Note_on_c, 0, 61, 0
2, 11676, Note_on_c, 0, 64, 0
2, 11812, Note_on_c, 0, 69, 61
2, 11842, Note_on_c, 0, 76, 0
2, 11958, Note_on_c, 0, 68, 61
2, 11963, Note_on_c, 0, 35, 54
2, 11986, Note_on_c, 0, 69, 0
2, 11989, Note_on_c, 0, 47, 51
2, 12052, Control_c, 0, 67, 127
2, 12068, Note_on_c, 0, 56, 51
2, 12088, Note_on_c, 0, 59, 49
2, 12097, Note_on_c, 0, 64, 51
2, 12102, Note_on_c, 0, 56, 0
2, 12122, Note_on_c, 0, 59, 0
2, 12132, Note_on_c, 0, 64, 0
2, 12213, Note_on_c, 0, 52, 51
2, 12236, Note_on_c, 0, 35, 0
2, 12236, Note_on_c, 0, 56, 59
2, 12239, Note_on_c, 0, 47, 0
2, 12246, Note_on_c, 0, 59, 64
2, 12249, Note_on_c, 0, 52, 0
2, 12274, Note_on_c, 0, 56, 0
2, 12284, Note_on_c, 0, 59, 0
2, 12361, Note_on_c, 0, 68, 0
2, 12374, Control_c, 0, 64, 127
2, 12411, Note_on_c, 0, 68, 63
2, 12540, Control_c, 0, 64, 0
2, 12540, Note_on_c, 0, 35, 51
2, 12552, Note_on_c, 0, 47, 51
2, 12552, Note_on_c, 0, 66, 59
2, 12577, Note_on_c, 0, 35, 0
2, 12580, Note_on_c, 0, 68, 0
2, 12590, Note_on_c, 0, 47, 0
2, 12655, Note_on_c, 0, 59, 42
2, 12668, Note_on_c, 0, 64, 44
2, 12675, Note_on_c, 0, 67, 63
2, 12691, Note_on_c, 0, 59, 0
2, 12703, Note_on_c, 0, 66, 0
2, 12703, Note_on_c, 0, 64, 0
2, 12764, Note_on_c, 0, 52, 44
2, 12784, Note_on_c, 0, 55, 41
2, 12796, Note_on_c, 0, 52, 0
2, 12806, Note_on_c, 0, 59, 51
2, 12821, Note_on_c, 0, 55, 0
2, 12829, Note_on_c, 0, 64, 51
2, 12841, Note_on_c, 0, 59, 0
2, 12849, Note_on_c, 0, 76, 66
2, 12864, Note_on_c, 0, 64, 0
2, 12874, Note_on_c, 0, 67, 0
2, 12970, Control_c, 0, 64, 127
2, 13020, Note_on_c, 0, 67, 56
2, 13045, Note_on_c, 0, 76, 0
2, 13143, Note_on_c, 0, 66, 60
2, 13160, Note_on_c, 0, 34, 41
2, 13160, Note_on_c, 0, 46, 42
2, 13168, Note_on_c, 0, 67, 0
2, 13196, Control_c, 0, 64, 0
2, 13199, Note_on_c, 0, 34, 0
2, 13201, Note_on_c, 0, 46, 0
2, 13251, Note_on_c, 0, 54, 52
2, 13251, Note_on_c, 0, 61, 53
2, 13267, Note_on_c, 0, 64, 47
2, 13290, Note_on_c, 0, 54, 0
2, 13293, Note_on_c, 0, 61, 0
2, 13302, Note_on_c, 0, 64, 0
2, 13395, Control_c, 0, 67, 0
2, 13411, Note_on_c, 0, 52, 51
2, 13411, Note_on_c, 0, 54, 54
2, 13434, Note_on_c, 0, 61, 54
2, 13449, Note_on_c, 0, 54, 0
2, 13449, Note_on_c, 0, 52, 0
2, 13472, Note_on_c, 0, 61, 0
2, 13530, Note_on_c, 0, 66, 0
2, 13585, Note_on_c, 0, 66, 59
2, 13590, Control_c, 0, 64, 127
2, 13663, Note_on_c, 0, 66, 0
2, 13721, Note_on_c, 0, 66, 41
2, 13741, Note_on_c, 0, 33, 49
2, 13744, Note_on_c, 0, 69, 45
2, 13756, Note_on_c, 0, 66, 0
2, 13761, Note_on_c, 0, 45, 47
2, 13766, Note_on_c, 0, 68, 59
2, 13774, Note_on_c, 0, 33, 0
2, 13774, Control_c, 0, 64, 0
2, 13778, Note_on_c, 0, 69, 0
2, 13799, Note_on_c, 0, 45, 0
2, 13904, Note_on_c, 0, 59, 45
2, 13912, Note_on_c, 0, 57, 46
2, 13912, Note_on_c, 0, 63, 44
2, 13912, Note_on_c, 0, 66, 61
2, 13940, Note_on_c, 0, 59, 0
2, 13940, Note_on_c, 0, 68, 0
2, 13949, Note_on_c, 0, 63, 0
2, 13949, Note_on_c, 0, 57, 0
2, 13952, Note_on_c, 0, 66, 0
2, 14042, Note_on_c, 0, 59, 46
2, 14042, Note_on_c, 0, 63, 47
2, 14052, Note_on_c, 0, 57, 44
2, 14067, Note_on_c, 0, 68, 65
2, 14077, Note_on_c, 0, 59, 0
2, 14080, Note_on_c, 0, 63, 0
2, 14088, Note_on_c, 0, 57, 0
2, 14103, Note_on_c, 0, 68, 0
2, 14143, Control_c, 0, 64, 127
2, 14163, Note_on_c, 0, 57, 47
2, 14163, Note_on_c, 0, 59, 41
2, 14163, Note_on_c, 0, 63, 42
2, 14173, Note_on_c, 0, 69, 66
2, 14271, Note_on_c, 0, 71, 72
2, 14288, Note_on_c, 0, 32, 49
2, 14291, Note_on_c, 0, 44, 49
2, 14294, Note_on_c, 0, 59, 0
2, 14294, Note_on_c, 0, 57, 0
2, 14297, Note_on_c, 0, 69, 0
2, 14297, Note_on_c, 0, 63, 0
2, 14309, Control_c, 0, 64, 0
2, 14325, Note_on_c, 0, 32, 0
2, 14328, Note_on_c, 0, 44, 0
2, 14380, Note_on_c, 0, 59, 48
2, 14390, Note_on_c, 0, 64, 48
2, 14402, Note_on_c, 0, 68, 50
2, 14415, Note_on_c, 0, 59, 0
2, 14427, Note_on_c, 0, 64, 0
2, 14440, Note_on_c, 0, 68, 0
2, 14497, Note_on_c, 0, 52, 43
2, 14507, Note_on_c, 0, 56, 50
2, 14510, Note_on_c, 0, 59, 52
2, 14525, Note_on_c, 0, 71, 0
2, 14533, Note_on_c, 0, 64, 49
2, 14611, Note_on_c, 0, 71, 65
2, 14699, Note_on_c, 0, 52, 0
2, 14699, Note_on_c, 0, 59, 0
2, 14699, Note_on_c, 0, 56, 0
2, 14702, Note_on_c, 0, 64, 0
2, 14745, Note_on_c, 0, 76, 73
2, 14753, Note_on_c, 0, 43, 66
2, 14760, Note_on_c, 0, 31, 64
2, 14770, Note_on_c, 0, 71, 0
2, 14785, Control_c, 0, 64, 127
2, 14879, Note_on_c, 0, 64, 53
2, 14899, Note_on_c, 0, 55, 57
2, 14899, Note_on_c, 0, 59, 56
2, 14902, Note_on_c, 0, 74, 71
2, 14909, Control_c, 0, 64, 0
2, 14914, Note_on_c, 0, 64, 0
2, 14927, Note_on_c, 0, 76, 0
2, 14934, Note_on_c, 0, 55, 0
2, 14937, Note_on_c, 0, 59, 0
2, 15030, Note_on_c, 0, 64, 55
2, 15040, Note_on_c, 0, 55, 57
2, 15043, Note_on_c, 0, 59, 52
2, 15043, Note_on_c, 0, 73, 68
2, 15063, Note_on_c, 0, 31, 0
2, 15066, Note_on_c, 0, 43, 0
2, 15069, Note_on_c, 0, 64, 0
2, 15069, Note_on_c, 0, 74, 0
2, 15078, Note_on_c, 0, 59, 0
2, 15078, Note_on_c, 0, 55, 0
2, 15194, Note_on_c, 0, 55, 54
2, 15197, Note_on_c, 0, 59, 53
2, 15197, Note_on_c, 0, 64, 50
2, 15197, Note_on_c, 0, 71, 63
2, 15215, Control_c, 0, 64, 127
2, 15222, Note_on_c, 0, 73, 0
2, 15232, Note_on_c, 0, 64, 0
2, 15232, Note_on_c, 0, 55, 0
2, 15232, Note_on_c, 0, 59, 0
2, 15300, Note_on_c, 0, 71, 0
2, 15356, Note_on_c, 0, 71, 72
2, 15359, Note_on_c, 0, 42, 62
2, 15382, Note_on_c, 0, 30, 66
2, 15384, Control_c, 0, 64, 0
2, 15503, Note_on_c, 0, 61, 48
2, 15515, Note_on_c, 0, 64, 49
2, 15525, Note_on_c, 0, 67, 47
2, 15540, Note_on_c, 0, 61, 0
2, 15550, Note_on_c, 0, 64, 0
2, 15557, Note_on_c, 0, 67, 0
2, 15630, Note_on_c, 0, 54, 47
2, 15630, Note_on_c, 0, 61, 49
2, 15655, Note_on_c, 0, 64, 48
2, 15663, Note_on_c, 0, 30, 0
2, 15663, Note_on_c, 0, 70, 65
2, 15666, Note_on_c, 0, 61, 0
2, 15666, Note_on_c, 0, 54, 0
2, 15666, Note_on_c, 0, 42, 0
2, 15675, Note_on_c, 0, 66, 45
2, 15691, Note_on_c, 0, 64, 0
2, 15700, Note_on_c, 0, 71, 0
2, 15710, Note_on_c, 0, 66, 0
2, 15793, Note_on_c, 0, 73, 61
2, 15811, Control_c, 0, 64, 127
2, 15866, Note_on_c, 0, 70, 0
2, 15942, Note_on_c, 0, 78, 63
2, 15967, Note_on_c, 0, 73, 0
2, 15970, Note_on_c, 0, 39, 52
2, 15973, Note_on_c, 0, 51, 52
2, 15993, Control_c, 0, 64, 0
2, 16074, Note_on_c, 0, 66, 47
2, 16081, Note_on_c, 0, 69, 43
2, 16094, Note_on_c, 0, 71, 45
2, 16109, Note_on_c, 0, 66, 0
2, 16117, Note_on_c, 0, 75, 45
2, 16120, Note_on_c, 0, 69, 0
2, 16129, Note_on_c, 0, 71, 0
2, 16145, Note_on_c, 0, 78, 0
2, 16213, Note_on_c, 0, 57, 54
2, 16218, Control_c, 0, 64, 127
2, 16223, Note_on_c, 0, 59, 52
2, 16223, Note_on_c, 0, 73, 64
2, 16232, Note_on_c, 0, 63, 51
2, 16235, Note_on_c, 0, 66, 60
2, 16260, Note_on_c, 0, 75, 0
2, 16290, Note_on_c, 0, 63, 0
2, 16302, Note_on_c, 0, 66, 0
2, 16318, Note_on_c, 0, 63, 49
2, 16327, Note_on_c, 0, 66, 42
2, 16340, Note_on_c, 0, 69, 44
2, 16349, Note_on_c, 0, 71, 41
2, 16433, Note_on_c, 0, 39, 0
2, 16436, Note_on_c, 0, 51, 0
2, 16436, Note_on_c, 0, 59, 0
2, 16436, Note_on_c, 0, 57, 0
2, 16439, Note_on_c, 0, 63, 0
2, 16439, Note_on_c, 0, 69, 0
2, 16439, Note_on_c, 0, 71, 0
2, 16439, Note_on_c, 0, 66, 0
2, 16439, Note_on_c, 0, 73, 0
2, 16451, Note_on_c, 0, 40, 59
2, 16454, Note_on_c, 0, 52, 62
2, 16466, Note_on_c, 0, 80, 64
2, 16484, Control_c, 0, 64, 0
2, 16487, Note_on_c, 0, 40, 0
2, 16489, Note_on_c, 0, 52, 0
2, 16555, Note_on_c, 0, 68, 42
2, 16555, Note_on_c, 0, 71, 44
2, 16587, Note_on_c, 0, 76, 65
2, 16590, Note_on_c, 0, 68, 0
2, 16593, Note_on_c, 0, 71, 0
2, 16616, Note_on_c, 0, 80, 0
2, 16677, Note_on_c, 0, 56, 49
2, 16700, Note_on_c, 0, 59, 48
2, 16700, Note_on_c, 0, 64, 53
2, 16712, Note_on_c, 0, 68, 45
2, 16722, Note_on_c, 0, 75, 45
2, 16750, Note_on_c, 0, 76, 0
2, 16825, Note_on_c, 0, 64, 0
2, 16850, Note_on_c, 0, 68, 0
2, 16855, Note_on_c, 0, 64, 49
2, 16878, Note_on_c, 0, 56, 0
2, 16878, Note_on_c, 0, 68, 61
2, 16881, Note_on_c, 0, 59, 0
2, 16889, Note_on_c, 0, 73, 61
2, 16892, Note_on_c, 0, 64, 0
2, 16920, Note_on_c, 0, 68, 0
2, 16920, Note_on_c, 0, 75, 0
2, 17008, Control_c, 0, 64, 127
2, 17036, Note_on_c, 0, 47, 49
2, 17039, Note_on_c, 0, 71, 60
2, 17043, Note_on_c, 0, 35, 48
2, 17064, Note_on_c, 0, 73, 0
2, 17071, Note_on_c, 0, 47, 0
2, 17081, Note_on_c, 0, 35, 0
2, 17169, Note_on_c, 0, 59, 52
2, 17169, Note_on_c, 0, 63, 51
2, 17182, Note_on_c, 0, 66, 63
2, 17209, Note_on_c, 0, 63, 0
2, 17209, Note_on_c, 0, 59, 0
2, 17212, Note_on_c, 0, 71, 0
2, 17215, Control_c, 0, 64, 0
2, 17316, Note_on_c, 0, 54, 48
2, 17316, Note_on_c, 0, 57, 50
2, 17339, Note_on_c, 0, 59, 51
2, 17352, Note_on_c, 0, 63, 49
2, 17354, Note_on_c, 0, 57, 0
2, 17354, Note_on_c, 0, 54, 0
2, 17354, Note_on_c, 0, 68, 63
2, 17377, Note_on_c, 0, 59, 0
2, 17380, Note_on_c, 0, 66, 0
2, 17390, Note_on_c, 0, 63, 0
2, 17500, Note_on_c, 0, 59, 48
2, 17510, Note_on_c, 0, 63, 52
2, 17520, Note_on_c, 0, 71, 54
2, 17532, Note_on_c, 0, 59, 0
2, 17544, Note_on_c, 0, 69, 60
2, 17547, Note_on_c, 0, 63, 0
2, 17560, Note_on_c, 0, 71, 0
2, 17572, Note_on_c, 0, 68, 0
2, 17703, Note_on_c, 0, 40, 51
2, 17711, Note_on_c, 0, 68, 63
2, 17734, Note_on_c, 0, 69, 0
2, 17791, Control_c, 0, 67, 127
2, 17847, Note_on_c, 0, 56, 47
2, 17856, Note_on_c, 0, 59, 41
2, 17859, Note_on_c, 0, 64, 44
2, 17882, Note_on_c, 0, 56, 0
2, 17895, Note_on_c, 0, 59, 0
2, 17895, Note_on_c, 0, 64, 0
2, 17965, Note_on_c, 0, 47, 44
2, 17977, Note_on_c, 0, 52, 53
2, 17987, Note_on_c, 0, 56, 50
2, 18000, Note_on_c, 0, 47, 0
2, 18000, Note_on_c, 0, 59, 48
2, 18012, Note_on_c, 0, 52, 0
2, 18012, Note_on_c, 0, 40, 0
2, 18024, Note_on_c, 0, 56, 0
2, 18037, Note_on_c, 0, 59, 0
2, 18107, Note_on_c, 0, 59, 48
2, 18115, Note_on_c, 0, 68, 0
2, 18132, Note_on_c, 0, 64, 45
2, 18142, Note_on_c, 0, 68, 58
2, 18142, Note_on_c, 0, 71, 56
2, 18144, Control_c, 0, 64, 127
2, 18298, Note_on_c, 0, 78, 60
2, 18301, Note_on_c, 0, 39, 46
2, 18304, Note_on_c, 0, 51, 45
2, 18319, Note_on_c, 0, 71, 0
2, 18319, Note_on_c, 0, 68, 0
2, 18319, Note_on_c, 0, 59, 0
2, 18319, Note_on_c, 0, 64, 0
2, 18322, Control_c, 0, 64, 0
2, 18337, Note_on_c, 0, 51, 0
2, 18337, Note_on_c, 0, 39, 0
2, 18403, Note_on_c, 0, 66, 45
2, 18428, Note_on_c, 0, 69, 44
2, 18428, Note_on_c, 0, 71, 49
2, 18440, Note_on_c, 0, 66, 0
2, 18450, Note_on_c, 0, 75, 47
2, 18462, Note_on_c, 0, 71, 0
2, 18462, Note_on_c, 0, 69, 0
2, 18475, Note_on_c, 0, 78, 0
2, 18535, Note_on_c, 0, 57, 47
2, 18545, Note_on_c, 0, 59, 44
2, 18557, Note_on_c, 0, 63, 49
2, 18570, Note_on_c, 0, 66, 56
2, 18570, Note_on_c, 0, 73, 56
2, 18595, Note_on_c, 0, 75, 0
2, 18604, Note_on_c, 0, 63, 0
2, 18604, Control_c, 0, 64, 127
2, 18614, Note_on_c, 0, 66, 0
2, 18654, Note_on_c, 0, 63, 46
2, 18679, Note_on_c, 0, 66, 59
2, 18679, Note_on_c, 0, 69, 56
2, 18682, Note_on_c, 0, 71, 58
2, 18697, Note_on_c, 0, 73, 0
2, 18768, Note_on_c, 0, 59, 0
2, 18768, Note_on_c, 0, 57, 0
2, 18770, Note_on_c, 0, 66, 0
2, 18770, Note_on_c, 0, 63, 0
2, 18770, Note_on_c, 0, 69, 0
2, 18770, Note_on_c, 0, 71, 0
2, 18770, Control_c, 0, 64, 0
2, 18773, Note_on_c, 0, 40, 47
2, 18786, Note_on_c, 0, 52, 45
2, 18789, Note_on_c, 0, 80, 63
2, 18812, Note_on_c, 0, 40, 0
2, 18821, Note_on_c, 0, 52, 0
2, 18889, Note_on_c, 0, 68, 43
2, 18912, Note_on_c, 0, 71, 46
2, 18922, Note_on_c, 0, 76, 59
2, 18925, Note_on_c, 0, 68, 0
2, 18948, Note_on_c, 0, 80, 0
2, 18948, Note_on_c, 0, 71, 0
2, 19038, Note_on_c, 0, 58, 47
2, 19048, Note_on_c, 0, 61, 44
2, 19063, Note_on_c, 0, 64, 41
2, 19076, Note_on_c, 0, 58, 0
2, 19076, Note_on_c, 0, 75, 57
2, 19085, Note_on_c, 0, 67, 53
2, 19088, Note_on_c, 0, 61, 0
2, 19101, Note_on_c, 0, 64, 0
2, 19101, Note_on_c, 0, 76, 0
2, 19130, Note_on_c, 0, 67, 0
2, 19196, Note_on_c, 0, 75, 0
2, 19224, Note_on_c, 0, 64, 45
2, 19259, Note_on_c, 0, 67, 43
2, 19262, Note_on_c, 0, 64, 0
2, 19279, Note_on_c, 0, 70, 56
2, 19279, Note_on_c, 0, 73, 53
2, 19295, Note_on_c, 0, 67, 0
2, 19318, Note_on_c, 0, 70, 0
2, 19414, Control_c, 0, 64, 127
2, 19429, Note_on_c, 0, 47, 48
2, 19434, Note_on_c, 0, 71, 55
2, 19457, Note_on_c, 0, 35, 42
2, 19460, Note_on_c, 0, 73, 0
2, 19606, Note_on_c, 0, 57, 43
2, 19606, Note_on_c, 0, 59, 45
2, 19615, Note_on_c, 0, 63, 44
2, 19620, Control_c, 0, 64, 0
2, 19650, Note_on_c, 0, 66, 55
2, 19678, Note_on_c, 0, 71, 0
2, 19851, Note_on_c, 0, 69, 64
2, 19876, Note_on_c, 0, 66, 0
2, 19920, Control_c, 0, 64, 127
2, 20010, Note_on_c, 0, 69, 0
2, 20033, Note_on_c, 0, 63, 0
2, 20078, Control_c, 0, 64, 0
2, 20083, Note_on_c, 0, 63, 62
2, 20320, Note_on_c, 0, 64, 63
2, 20345, Note_on_c, 0, 28, 44
2, 20348, Note_on_c, 0, 40, 41
2, 20351, Note_on_c, 0, 35, 0
2, 20355, Note_on_c, 0, 57, 0
2, 20355, Note_on_c, 0, 47, 0
2, 20358, Note_on_c, 0, 59, 0
2, 20358, Note_on_c, 0, 63, 0
2, 20383, Note_on_c, 0, 28, 0
2, 20388, Note_on_c, 0, 40, 0
2, 20524, Note_on_c, 0, 52, 46
2, 20537, Note_on_c, 0, 56, 47
2, 20537, Note_on_c, 0, 59, 45
2, 20560, Note_on_c, 0, 52, 0
2, 20572, Note_on_c, 0, 59, 0
2, 20572, Note_on_c, 0, 56, 0
2, 20661, Control_c, 0, 64, 127
2, 20661, Note_on_c, 0, 56, 47
2, 20670, Note_on_c, 0, 59, 52
2, 20680, Note_on_c, 0, 62, 49
2, 20695, Note_on_c, 0, 56, 0
2, 20708, Note_on_c, 0, 59, 0
2, 20720, Note_on_c, 0, 62, 0
2, 20730, Control_c, 0, 67, 0
2, 20835, Note_on_c, 0, 65, 50
2, 20853, Control_c, 0, 64, 0
2, 20862, Note_on_c, 0, 64, 0
2, 20958, Note_on_c, 0, 66, 60
2, 20963, Note_on_c, 0, 40, 42
2, 20971, Note_on_c, 0, 28, 44
2, 20983, Note_on_c, 0, 65, 0
2, 21000, Note_on_c, 0, 40, 0
2, 21010, Note_on_c, 0, 28, 0
2, 21066, Note_on_c, 0, 54, 41
2, 21075, Note_on_c, 0, 57, 43
2, 21078, Note_on_c, 0, 61, 47
2, 21098, Note_on_c, 0, 54, 0
2, 21111, Note_on_c, 0, 57, 0
2, 21114, Note_on_c, 0, 61, 0
2, 21177, Note_on_c, 0, 59, 48
2, 21187, Note_on_c, 0, 62, 54
2, 21199, Note_on_c, 0, 65, 42
2, 21212, Note_on_c, 0, 59, 0
2, 21221, Note_on_c, 0, 62, 0
2, 21231, Note_on_c, 0, 65, 0
2, 21304, Note_on_c, 0, 68, 60
2, 21329, Note_on_c, 0, 66, 0
2, 21394, Note_on_c, 0, 40, 51
2, 21399, Note_on_c, 0, 69, 60
2, 21404, Note_on_c, 0, 28, 54
2, 21424, Note_on_c, 0, 68, 0
2, 21427, Note_on_c, 0, 40, 0
2, 21436, Note_on_c, 0, 28, 0
2, 21502, Note_on_c, 0, 57, 49
2, 21504, Note_on_c, 0, 61, 55
2, 21504, Note_on_c, 0, 64, 51
2, 21540, Note_on_c, 0, 57, 0
2, 21543, Note_on_c, 0, 64, 0
2, 21543, Note_on_c, 0, 61, 0
2, 21593, Note_on_c, 0, 61, 52
2, 21602, Note_on_c, 0, 64, 52
2, 21615, Note_on_c, 0, 67, 51
2, 21658, Control_c, 0, 64, 127
2, 21701, Note_on_c, 0, 70, 60
2, 21731, Note_on_c, 0, 69, 0
2, 21832, Note_on_c, 0, 61, 0
2, 21835, Note_on_c, 0, 67, 0
2, 21835, Note_on_c, 0, 64, 0
2, 21850, Note_on_c, 0, 47, 49
2, 21855, Note_on_c, 0, 73, 65
2, 21858, Control_c, 0, 64, 0
2, 21858, Note_on_c, 0, 35, 56
2, 21883, Note_on_c, 0, 70, 0
2, 21888, Note_on_c, 0, 47, 0
2, 21895, Note_on_c, 0, 35, 0
2, 22001, Note_on_c, 0, 63, 46
2, 22004, Note_on_c, 0, 66, 44
2, 22027, Note_on_c, 0, 71, 61
2, 22039, Note_on_c, 0, 63, 0
2, 22042, Note_on_c, 0, 66, 0
2, 22052, Note_on_c, 0, 73, 0
2, 22155, Note_on_c, 0, 54, 47
2, 22165, Note_on_c, 0, 57, 53
2, 22177, Note_on_c, 0, 59, 54
2, 22177, Note_on_c, 0, 63, 48
2, 22190, Note_on_c, 0, 54, 0
2, 22190, Note_on_c, 0, 69, 58
2, 22205, Note_on_c, 0, 57, 0
2, 22215, Note_on_c, 0, 63, 0
2, 22215, Note_on_c, 0, 59, 0
2, 22218, Note_on_c, 0, 71, 0
2, 22344, Control_c, 0, 64, 127
2, 22364, Note_on_c, 0, 66, 54
2, 22392, Note_on_c, 0, 69, 0
2, 22492, Note_on_c, 0, 64, 45
2, 22495, Control_c, 0, 64, 0
2, 22505, Note_on_c, 0, 40, 43
2, 22514, Note_on_c, 0, 66, 0
2, 22542, Note_on_c, 0, 40, 0
2, 22628, Note_on_c, 0, 52, 45
2, 22637, Note_on_c, 0, 56, 48
2, 22637, Note_on_c, 0, 59, 47
2, 22662, Note_on_c, 0, 52, 0
2, 22672, Note_on_c, 0, 56, 0
2, 22675, Note_on_c, 0, 59, 0
2, 22755, Note_on_c, 0, 56, 44
2, 22768, Note_on_c, 0, 59, 47
2, 22768, Note_on_c, 0, 62, 47
2, 22791, Note_on_c, 0, 56, 0
2, 22794, Note_on_c, 0, 64, 0
2, 22803, Note_on_c, 0, 59, 0
2, 22803, Note_on_c, 0, 62, 0
2, 22859, Control_c, 0, 64, 127
2, 22879, Note_on_c, 0, 65, 54
2, 22884, Note_on_c, 0, 35, 50
2, 22887, Note_on_c, 0, 47, 48
2, 22887, Note_on_c, 0, 56, 54
2, 22890, Note_on_c, 0, 61, 49
2, 22980, Note_on_c, 0, 33, 48
2, 22988, Note_on_c, 0, 66, 66
2, 22995, Note_on_c, 0, 45, 53
2, 23005, Note_on_c, 0, 35, 0
2, 23010, Control_c, 0, 64, 0
2, 23013, Note_on_c, 0, 65, 0
2, 23016, Note_on_c, 0, 33, 0
2, 23018, Note_on_c, 0, 47, 0
2, 23021, Note_on_c, 0, 61, 0
2, 23021, Note_on_c, 0, 56, 0
2, 23031, Note_on_c, 0, 45, 0
2, 23094, Note_on_c, 0, 54, 55
2, 23104, Note_on_c, 0, 57, 52
2, 23119, Note_on_c, 0, 61, 55
2, 23132, Note_on_c, 0, 54, 0
2, 23144, Note_on_c, 0, 57, 0
2, 23157, Note_on_c, 0, 61, 0
2, 23184, Note_on_c, 0, 59, 53
2, 23209, Note_on_c, 0, 62, 55
2, 23209, Note_on_c, 0, 65, 49
2, 23225, Note_on_c, 0, 59, 0
2, 23237, Note_on_c, 0, 66, 0
2, 23247, Note_on_c, 0, 62, 0
2, 23247, Note_on_c, 0, 65, 0
2, 23310, Control_c, 0, 64, 127
2, 23320, Note_on_c, 0, 59, 67
2, 23320, Note_on_c, 0, 64, 67
2, 23320, Note_on_c, 0, 68, 64
2, 23325, Note_on_c, 0, 38, 66
2, 23328, Note_on_c, 0, 50, 65
2, 23424, Note_on_c, 0, 69, 68
2, 23426, Control_c, 0, 64, 0
2, 23426, Note_on_c, 0, 37, 63
2, 23429, Note_on_c, 0, 49, 64
2, 23447, Note_on_c, 0, 68, 0
2, 23451, Note_on_c, 0, 38, 0
2, 23454, Note_on_c, 0, 50, 0
2, 23457, Note_on_c, 0, 59, 0
2, 23457, Note_on_c, 0, 64, 0
2, 23465, Note_on_c, 0, 37, 0
2, 23468, Note_on_c, 0, 49, 0
2, 23511, Note_on_c, 0, 57, 62
2, 23520, Note_on_c, 0, 61, 64
2, 23523, Note_on_c, 0, 64, 62
2, 23546, Note_on_c, 0, 57, 0
2, 23559, Note_on_c, 0, 61, 0
2, 23562, Note_on_c, 0, 64, 0
2, 23625, Note_on_c, 0, 61, 68
2, 23628, Note_on_c, 0, 64, 68
2, 23638, Note_on_c, 0, 67, 57
2, 23663, Note_on_c, 0, 64, 0
2, 23663, Note_on_c, 0, 69, 0
2, 23663, Note_on_c, 0, 61, 0
2, 23675, Note_on_c, 0, 67, 0
2, 23705, Control_c, 0, 64, 127
2, 23733, Note_on_c, 0, 61, 68
2, 23736, Note_on_c, 0, 66, 69
2, 23738, Note_on_c, 0, 70, 69
2, 23741, Note_on_c, 0, 40, 70
2, 23746, Note_on_c, 0, 52, 72
2, 23811, Control_c, 0, 64, 0
2, 23821, Note_on_c, 0, 38, 65
2, 23824, Note_on_c, 0, 50, 64
2, 23829, Note_on_c, 0, 71, 70
2, 23849, Note_on_c, 0, 40, 0
2, 23852, Note_on_c, 0, 52, 0
2, 23852, Note_on_c, 0, 61, 0
2, 23855, Note_on_c, 0, 66, 0
2, 23855, Note_on_c, 0, 70, 0
2, 23859, Note_on_c, 0, 38, 0
2, 23862, Note_on_c, 0, 50, 0
2, 23926, Note_on_c, 0, 59, 66
2, 23928, Note_on_c, 0, 62, 65
2, 23964, Note_on_c, 0, 66, 57
2, 23967, Note_on_c, 0, 62, 0
2, 23967, Note_on_c, 0, 59, 0
2, 24004, Note_on_c, 0, 66, 0
2, 24045, Note_on_c, 0, 64, 76
2, 24057, Note_on_c, 0, 67, 58
2, 24057, Note_on_c, 0, 70, 56
2, 24082, Note_on_c, 0, 64, 0
2, 24082, Note_on_c, 0, 71, 0
2, 24095, Note_on_c, 0, 67, 0
2, 24095, Note_on_c, 0, 70, 0
2, 24135, Control_c, 0, 64, 127
2, 24163, Note_on_c, 0, 43, 70
2, 24166, Note_on_c, 0, 55, 76
2, 24168, Note_on_c, 0, 64, 70
2, 24168, Note_on_c, 0, 73, 65
2, 24178, Note_on_c, 0, 69, 66
2, 24266, Note_on_c, 0, 74, 79
2, 24284, Note_on_c, 0, 42, 67
2, 24287, Note_on_c, 0, 54, 70
2, 24291, Note_on_c, 0, 73, 0
2, 24301, Control_c, 0, 64, 0
2, 24306, Note_on_c, 0, 43, 0
2, 24309, Note_on_c, 0, 55, 0
2, 24312, Note_on_c, 0, 64, 0
2, 24314, Note_on_c, 0, 69, 0
2, 24319, Note_on_c, 0, 42, 0
2, 24322, Note_on_c, 0, 54, 0
2, 24398, Note_on_c, 0, 62, 57
2, 24398, Note_on_c, 0, 66, 54
2, 24410, Note_on_c, 0, 69, 58
2, 24435, Note_on_c, 0, 66, 0
2, 24435, Note_on_c, 0, 62, 0
2, 24448, Note_on_c, 0, 69, 0
2, 24518, Note_on_c, 0, 54, 56
2, 24518, Note_on_c, 0, 57, 56
2, 24523, Control_c, 0, 64, 127
2, 24530, Note_on_c, 0, 62, 52
2, 24553, Note_on_c, 0, 66, 59
2, 24617, Note_on_c, 0, 73, 61
2, 24620, Note_on_c, 0, 74, 0
2, 24672, Note_on_c, 0, 74, 58
2, 24725, Note_on_c, 0, 76, 64
2, 24748, Note_on_c, 0, 54, 0
2, 24751, Note_on_c, 0, 62, 0
2, 24751, Note_on_c, 0, 66, 0
2, 24751, Note_on_c, 0, 57, 0
2, 24754, Note_on_c, 0, 73, 0
2, 24754, Note_on_c, 0, 74, 0
2, 24754, Control_c, 0, 64, 0
2, 24787, Note_on_c, 0, 50, 69
2, 24794, Note_on_c, 0, 38, 66
2, 24807, Note_on_c, 0, 76, 0
2, 24815, Note_on_c, 0, 78, 78
2, 24824, Note_on_c, 0, 50, 0
2, 24834, Note_on_c, 0, 38, 0
2, 24919, Note_on_c, 0, 66, 44
2, 24929, Note_on_c, 0, 69, 44
2, 24941, Note_on_c, 0, 74, 45
2, 24957, Note_on_c, 0, 66, 0
2, 24966, Note_on_c, 0, 69, 0
2, 24976, Note_on_c, 0, 74, 0
2, 25072, Note_on_c, 0, 57, 57
2, 25097, Note_on_c, 0, 62, 60
2, 25109, Note_on_c, 0, 66, 46
2, 25112, Note_on_c, 0, 57, 0
2, 25129, Note_on_c, 0, 69, 50
2, 25134, Note_on_c, 0, 62, 0
2, 25144, Note_on_c, 0, 66, 0
2, 25169, Note_on_c, 0, 69, 0
2, 25224, Note_on_c, 0, 73, 64
2, 25252, Note_on_c, 0, 78, 0
2, 25293, Note_on_c, 0, 74, 64
2, 25320, Note_on_c, 0, 73, 0
2, 25361, Note_on_c, 0, 76, 66
2, 25384, Note_on_c, 0, 74, 0
2, 25404, Note_on_c, 0, 35, 65
2, 25407, Note_on_c, 0, 47, 60
2, 25427, Note_on_c, 0, 76, 0
2, 25432, Note_on_c, 0, 78, 65
2, 25440, Note_on_c, 0, 35, 0
2, 25444, Note_on_c, 0, 47, 0
2, 25520, Note_on_c, 0, 66, 43
2, 25533, Note_on_c, 0, 71, 44
2, 25553, Note_on_c, 0, 74, 51
2, 25556, Note_on_c, 0, 66, 0
2, 25568, Note_on_c, 0, 71, 0
2, 25591, Note_on_c, 0, 74, 0
2, 25607, Control_c, 0, 67, 127
2, 25652, Note_on_c, 0, 59, 47
2, 25669, Note_on_c, 0, 62, 53
2, 25669, Note_on_c, 0, 66, 47
2, 25669, Note_on_c, 0, 71, 54
2, 25684, Note_on_c, 0, 59, 0
2, 25707, Note_on_c, 0, 66, 0
2, 25707, Note_on_c, 0, 62, 0
2, 25710, Note_on_c, 0, 71, 0
2, 25811, Note_on_c, 0, 70, 54
2, 25839, Note_on_c, 0, 78, 0
2, 25887, Note_on_c, 0, 71, 58
2, 25910, Note_on_c, 0, 70, 0
2, 25980, Note_on_c, 0, 73, 54
2, 26008, Note_on_c, 0, 71, 0
2, 26033, Note_on_c, 0, 74, 61
2, 26038, Note_on_c, 0, 33, 47
2, 26038, Note_on_c, 0, 45, 49
2, 26058, Note_on_c, 0, 73, 0
2, 26070, Note_on_c, 0, 33, 0
2, 26073, Note_on_c, 0, 45, 0
2, 26171, Note_on_c, 0, 62, 47
2, 26191, Note_on_c, 0, 65, 47
2, 26204, Note_on_c, 0, 71, 53
2, 26207, Note_on_c, 0, 62, 0
2, 26232, Note_on_c, 0, 65, 0
2, 26241, Note_on_c, 0, 71, 0
2, 26367, Note_on_c, 0, 53, 45
2, 26370, Note_on_c, 0, 59, 41
2, 26393, Note_on_c, 0, 62, 45
2, 26393, Note_on_c, 0, 65, 50
2, 26405, Note_on_c, 0, 53, 0
2, 26408, Note_on_c, 0, 59, 0
2, 26431, Note_on_c, 0, 65, 0
2, 26431, Note_on_c, 0, 62, 0
2, 26496, Note_on_c, 0, 70, 54
2, 26524, Note_on_c, 0, 74, 0
2, 26574, Note_on_c, 0, 71, 53
2, 26602, Note_on_c, 0, 70, 0
2, 26665, Note_on_c, 0, 73, 60
2, 26693, Note_on_c, 0, 71, 0
2, 26709, Note_on_c, 0, 32, 50
2, 26718, Note_on_c, 0, 44, 50
2, 26736, Note_on_c, 0, 74, 62
2, 26760, Note_on_c, 0, 73, 0
2, 26841, Note_on_c, 0, 70, 56
2, 26866, Note_on_c, 0, 74, 0
2, 26929, Note_on_c, 0, 64, 50
2, 26939, Note_on_c, 0, 62, 50
2, 26939, Note_on_c, 0, 71, 54
2, 26967, Note_on_c, 0, 64, 0
2, 26967, Note_on_c, 0, 70, 0
2, 26976, Note_on_c, 0, 62, 0
2, 27067, Note_on_c, 0, 73, 60
2, 27095, Note_on_c, 0, 71, 0
2, 27130, Note_on_c, 0, 52, 45
2, 27153, Note_on_c, 0, 32, 0
2, 27153, Note_on_c, 0, 59, 47
2, 27156, Note_on_c, 0, 44, 0
2, 27164, Note_on_c, 0, 52, 0
2, 27173, Note_on_c, 0, 62, 44
2, 27186, Note_on_c, 0, 74, 55
2, 27189, Note_on_c, 0, 59, 0
2, 27196, Note_on_c, 0, 64, 46
2, 27212, Note_on_c, 0, 73, 0
2, 27212, Note_on_c, 0, 62, 0
2, 27235, Note_on_c, 0, 64, 0
2, 27318, Note_on_c, 0, 70, 62
2, 27346, Note_on_c, 0, 74, 0
2, 27409, Note_on_c, 0, 71, 57
2, 27434, Note_on_c, 0, 70, 0
2, 27447, Note_on_c, 0, 71, 0
2, 27475, Note_on_c, 0, 73, 62
2, 27510, Note_on_c, 0, 73, 0
2, 27528, Note_on_c, 0, 74, 62
2, 27565, Note_on_c, 0, 74, 0
2, 27582, Note_on_c, 0, 75, 62
2, 27620, Note_on_c, 0, 75, 0
2, 27637, Note_on_c, 0, 76, 57
2, 27674, Note_on_c, 0, 76, 0
2, 27692, Note_on_c, 0, 77, 61
2, 27729, Note_on_c, 0, 77, 0
2, 27769, Note_on_c, 0, 80, 67
2, 27799, Control_c, 0, 64, 127
2, 27912, Note_on_c, 0, 78, 56
2, 27930, Control_c, 0, 64, 0
2, 27937, Note_on_c, 0, 80, 0
2, 28001, Note_on_c, 0, 71, 53
2, 28026, Note_on_c, 0, 78, 0
2, 28035, Note_on_c, 0, 71, 0
2, 28101, Note_on_c, 0, 73, 60
2, 28171, Note_on_c, 0, 73, 0
2, 28188, Note_on_c, 0, 76, 58
2, 28213, Control_c, 0, 64, 127
2, 28321, Control_c, 0, 64, 0
2, 28326, Note_on_c, 0, 74, 54
2, 28354, Note_on_c, 0, 76, 0
2, 28384, Note_on_c, 0, 74, 0
2, 28414, Note_on_c, 0, 68, 56
2, 28454, Note_on_c, 0, 68, 0
2, 28477, Control_c, 0, 64, 127
2, 28505, Note_on_c, 0, 69, 54
2, 28629, Control_c, 0, 64, 0
2, 28641, Note_on_c, 0, 73, 59
2, 28686, Note_on_c, 0, 69, 0
2, 28802, Note_on_c, 0, 71, 48
2, 28827, Note_on_c, 0, 73, 0
2, 28872, Control_c, 0, 64, 127
2, 29074, Control_c, 0, 64, 0
2, 29077, Note_on_c, 0, 68, 48
2, 29102, Note_on_c, 0, 71, 0
2, 29316, Control_c, 0, 64, 127
2, 29515, Note_on_c, 0, 64, 58
2, 29518, Note_on_c, 0, 68, 0
2, 29749, Note_on_c, 0, 33, 47
2, 29779, Note_on_c, 0, 64, 0
2, 29807, Control_c, 0, 64, 0
2, 29830, Note_on_c, 0, 73, 60
2, 29887, Note_on_c, 0, 33, 0
2, 29976, Note_on_c, 0, 61, 44
2, 29999, Note_on_c, 0, 64, 42
2, 30011, Note_on_c, 0, 61, 0
2, 30021, Note_on_c, 0, 69, 53
2, 30036, Note_on_c, 0, 64, 0
2, 30056, Note_on_c, 0, 69, 0
2, 30160, Note_on_c, 0, 52, 49
2, 30169, Note_on_c, 0, 57, 53
2, 30192, Note_on_c, 0, 61, 53
2, 30195, Note_on_c, 0, 52, 0
2, 30205, Note_on_c, 0, 64, 51
2, 30208, Note_on_c, 0, 57, 0
2, 30231, Note_on_c, 0, 61, 0
2, 30243, Note_on_c, 0, 64, 0
2, 30261, Note_on_c, 0, 74, 53
2, 30286, Note_on_c, 0, 73, 0
2, 30313, Note_on_c, 0, 75, 57
2, 30341, Note_on_c, 0, 74, 0
2, 30354, Note_on_c, 0, 76, 58
2, 30382, Note_on_c, 0, 75, 0
2, 30397, Note_on_c, 0, 49, 46
2, 30407, Note_on_c, 0, 37, 42
2, 30411, Note_on_c, 0, 81, 53
2, 30427, Control_c, 0, 64, 127
2, 30430, Note_on_c, 0, 49, 0
2, 30432, Note_on_c, 0, 76, 0
2, 30453, Note_on_c, 0, 37, 0
2, 30551, Note_on_c, 0, 69, 42
2, 30558, Note_on_c, 0, 73, 46
2, 30581, Note_on_c, 0, 76, 60
2, 30584, Note_on_c, 0, 69, 0
2, 30597, Note_on_c, 0, 73, 0
2, 30609, Note_on_c, 0, 81, 0
2, 30624, Control_c, 0, 64, 0
2, 30668, Note_on_c, 0, 57, 47
2, 30677, Note_on_c, 0, 61, 44
2, 30677, Note_on_c, 0, 74, 54
2, 30687, Note_on_c, 0, 64, 45
2, 30699, Note_on_c, 0, 69, 41
2, 30702, Note_on_c, 0, 57, 0
2, 30712, Note_on_c, 0, 61, 0
2, 30721, Note_on_c, 0, 64, 0
2, 30724, Note_on_c, 0, 76, 0
2, 30734, Note_on_c, 0, 69, 0
2, 30817, Note_on_c, 0, 73, 54
2, 30845, Note_on_c, 0, 74, 0
2, 30903, Note_on_c, 0, 71, 61
2, 30915, Note_on_c, 0, 50, 48
2, 30925, Note_on_c, 0, 38, 41
2, 30930, Note_on_c, 0, 73, 0
2, 30953, Note_on_c, 0, 50, 0
2, 30960, Note_on_c, 0, 38, 0
2, 31004, Note_on_c, 0, 59, 43
2, 31024, Note_on_c, 0, 62, 48
2, 31024, Note_on_c, 0, 66, 47
2, 31039, Note_on_c, 0, 59, 0
2, 31062, Note_on_c, 0, 66, 0
2, 31062, Note_on_c, 0, 62, 0
2, 31146, Note_on_c, 0, 54, 50
2, 31171, Note_on_c, 0, 59, 53
2, 31180, Note_on_c, 0, 62, 53
2, 31183, Note_on_c, 0, 54, 0
2, 31206, Note_on_c, 0, 59, 0
2, 31216, Note_on_c, 0, 62, 0
2, 31314, Note_on_c, 0, 74, 59
2, 31339, Note_on_c, 0, 71, 0
2, 31440, Note_on_c, 0, 78, 66
2, 31447, Note_on_c, 0, 35, 48
2, 31447, Note_on_c, 0, 47, 52
2, 31464, Note_on_c, 0, 74, 0
2, 31482, Note_on_c, 0, 35, 0
2, 31485, Note_on_c, 0, 47, 0
2, 31540, Note_on_c, 0, 66, 48
2, 31563, Note_on_c, 0, 71, 54
2, 31576, Note_on_c, 0, 74, 49
2, 31579, Note_on_c, 0, 66, 0
2, 31599, Note_on_c, 0, 71, 0
2, 31611, Note_on_c, 0, 74, 0
2, 31664, Note_on_c, 0, 59, 53
2, 31674, Note_on_c, 0, 62, 51
2, 31686, Note_on_c, 0, 66, 48
2, 31696, Note_on_c, 0, 59, 0
2, 31696, Note_on_c, 0, 71, 48
2, 31708, Note_on_c, 0, 62, 0
2, 31721, Note_on_c, 0, 66, 0
2, 31733, Note_on_c, 0, 71, 0
2, 31799, Control_c, 0, 64, 127
2, 31836, Note_on_c, 0, 74, 59
2, 31977, Note_on_c, 0, 71, 65
2, 31987, Note_on_c, 0, 44, 53
2, 31994, Note_on_c, 0, 32, 55
2, 31997, Control_c, 0, 64, 0
2, 32002, Note_on_c, 0, 74, 0
2, 32005, Note_on_c, 0, 78, 0
2, 32022, Note_on_c, 0, 44, 0
2, 32032, Note_on_c, 0, 32, 0
2, 32095, Note_on_c, 0, 62, 49
2, 32118, Note_on_c, 0, 64, 45
2, 32128, Note_on_c, 0, 68, 55
2, 32133, Note_on_c, 0, 62, 0
2, 32153, Note_on_c, 0, 64, 0
2, 32162, Note_on_c, 0, 68, 0
2, 32253, Note_on_c, 0, 52, 50
2, 32265, Note_on_c, 0, 59, 52
2, 32285, Note_on_c, 0, 62, 51
2, 32285, Note_on_c, 0, 64, 52
2, 32288, Note_on_c, 0, 52, 0
2, 32301, Note_on_c, 0, 59, 0
2, 32321, Note_on_c, 0, 64, 0
2, 32321, Note_on_c, 0, 62, 0
2, 32330, Note_on_c, 0, 71, 0
2, 32353, Note_on_c, 0, 70, 55
2, 32381, Note_on_c, 0, 71, 55
2, 32409, Note_on_c, 0, 70, 0
2, 32437, Note_on_c, 0, 72, 55
2, 32460, Note_on_c, 0, 71, 0
2, 32490, Note_on_c, 0, 73, 61
2, 32497, Note_on_c, 0, 33, 45
2, 32510, Note_on_c, 0, 45, 44
2, 32518, Note_on_c, 0, 72, 0
2, 32535, Note_on_c, 0, 33, 0
2, 32547, Note_on_c, 0, 45, 0
2, 32565, Note_on_c, 0, 64, 44
2, 32569, Note_on_c, 0, 73, 0
2, 32587, Note_on_c, 0, 69, 49
2, 32602, Note_on_c, 0, 64, 0
2, 32607, Note_on_c, 0, 73, 58
2, 32610, Note_on_c, 0, 76, 60
2, 32622, Note_on_c, 0, 69, 0
2, 32647, Note_on_c, 0, 73, 0
2, 32663, Control_c, 0, 64, 127
2, 32695, Note_on_c, 0, 57, 44
2, 32708, Note_on_c, 0, 61, 46
2, 32708, Note_on_c, 0, 74, 61
2, 32720, Note_on_c, 0, 64, 47
2, 32728, Note_on_c, 0, 69, 47
2, 32733, Note_on_c, 0, 57, 0
2, 32742, Note_on_c, 0, 61, 0
2, 32755, Note_on_c, 0, 76, 0
2, 32755, Note_on_c, 0, 64, 0
2, 32764, Note_on_c, 0, 69, 0
2, 32834, Note_on_c, 0, 73, 53
2, 32862, Note_on_c, 0, 74, 0
2, 32938, Note_on_c, 0, 42, 46
2, 32938, Note_on_c, 0, 71, 55
2, 32951, Control_c, 0, 64, 0
2, 32951, Note_on_c, 0, 54, 43
2, 32966, Note_on_c, 0, 73, 0
2, 32974, Note_on_c, 0, 42, 0
2, 32989, Note_on_c, 0, 54, 0
2, 33045, Note_on_c, 0, 59, 48
2, 33052, Note_on_c, 0, 63, 41
2, 33055, Note_on_c, 0, 66, 47
2, 33078, Note_on_c, 0, 69, 53
2, 33081, Note_on_c, 0, 59, 0
2, 33094, Note_on_c, 0, 66, 0
2, 33094, Note_on_c, 0, 63, 0
2, 33106, Note_on_c, 0, 71, 0
2, 33199, Note_on_c, 0, 54, 47
2, 33209, Note_on_c, 0, 57, 42
2, 33221, Note_on_c, 0, 59, 54
2, 33234, Note_on_c, 0, 63, 49
2, 33237, Note_on_c, 0, 68, 53
2, 33240, Note_on_c, 0, 54, 0
2, 33249, Note_on_c, 0, 57, 0
2, 33259, Note_on_c, 0, 59, 0
2, 33262, Note_on_c, 0, 69, 0
2, 33271, Note_on_c, 0, 63, 0
2, 33389, Note_on_c, 0, 69, 56
2, 33417, Note_on_c, 0, 68, 0
2, 33561, Note_on_c, 0, 73, 62
2, 33571, Note_on_c, 0, 52, 48
2, 33583, Note_on_c, 0, 40, 44
2, 33588, Note_on_c, 0, 69, 0
2, 33717, Note_on_c, 0, 61, 46
2, 33732, Note_on_c, 0, 64, 42
2, 33752, Note_on_c, 0, 69, 48
2, 33755, Note_on_c, 0, 61, 0
2, 33768, Note_on_c, 0, 64, 0
2, 33791, Note_on_c, 0, 69, 0
2, 33899, Note_on_c, 0, 59, 45
2, 33912, Note_on_c, 0, 62, 44
2, 33924, Note_on_c, 0, 52, 0
2, 33924, Note_on_c, 0, 40, 0
2, 33934, Note_on_c, 0, 59, 0
2, 33941, Note_on_c, 0, 64, 46
2, 33941, Note_on_c, 0, 71, 57
2, 33946, Note_on_c, 0, 62, 0
2, 33963, Note_on_c, 0, 68, 48
2, 33976, Note_on_c, 0, 64, 0
2, 33985, Note_on_c, 0, 73, 0
2, 33998, Note_on_c, 0, 68, 0
2, 34108, Control_c, 0, 64, 127
2, 34247, Note_on_c, 0, 64, 62
2, 34251, Note_on_c, 0, 71, 0
2, 34400, Note_on_c, 0, 33, 52
2, 34413, Control_c, 0, 64, 0
2, 34420, Note_on_c, 0, 45, 53
2, 34423, Note_on_c, 0, 73, 62
2, 34448, Note_on_c, 0, 64, 0
2, 34557, Note_on_c, 0, 61, 51
2, 34569, Note_on_c, 0, 64, 51
2, 34569, Note_on_c, 0, 67, 47
2, 34594, Note_on_c, 0, 69, 49
2, 34597, Note_on_c, 0, 61, 0
2, 34609, Note_on_c, 0, 64, 0
2, 34609, Note_on_c, 0, 67, 0
2, 34630, Note_on_c, 0, 69, 0
2, 34703, Note_on_c, 0, 55, 52
2, 34703, Note_on_c, 0, 57, 52
2, 34735, Note_on_c, 0, 61, 48
2, 34743, Control_c, 0, 64, 127
2, 34758, Note_on_c, 0, 64, 52
2, 34801, Note_on_c, 0, 74, 66
2, 34826, Note_on_c, 0, 73, 0
2, 34834, Note_on_c, 0, 33, 0
2, 34834, Note_on_c, 0, 45, 0
2, 34857, Note_on_c, 0, 75, 61
2, 34882, Note_on_c, 0, 74, 0
2, 34897, Note_on_c, 0, 76, 61
2, 34920, Note_on_c, 0, 55, 0
2, 34920, Note_on_c, 0, 57, 0
2, 34920, Note_on_c, 0, 61, 0
2, 34923, Note_on_c, 0, 64, 0
2, 34923, Note_on_c, 0, 75, 0
2, 34941, Control_c, 0, 64, 0
2, 34941, Note_on_c, 0, 81, 66
2, 34950, Note_on_c, 0, 33, 48
2, 34950, Note_on_c, 0, 45, 54
2, 34968, Note_on_c, 0, 76, 0
2, 34985, Note_on_c, 0, 33, 0
2, 34988, Note_on_c, 0, 45, 0
2, 35056, Note_on_c, 0, 64, 48
2, 35086, Note_on_c, 0, 67, 60
2, 35086, Note_on_c, 0, 69, 62
2, 35090, Note_on_c, 0, 64, 0
2, 35098, Note_on_c, 0, 76, 63
2, 35126, Note_on_c, 0, 69, 0
2, 35126, Note_on_c, 0, 67, 0
2, 35129, Note_on_c, 0, 81, 0
2, 35184, Note_on_c, 0, 55, 41
2, 35209, Note_on_c, 0, 57, 48
2, 35222, Note_on_c, 0, 55, 0
2, 35230, Note_on_c, 0, 64, 53
2, 35230, Note_on_c, 0, 74, 66
2, 35245, Note_on_c, 0, 57, 0
2, 35257, Note_on_c, 0, 76, 0
2, 35265, Note_on_c, 0, 64, 0
2, 35301, Control_c, 0, 64, 127
2, 35356, Note_on_c, 0, 73, 62
2, 35372, Note_on_c, 0, 74, 0
2, 35440, Note_on_c, 0, 38, 49
2, 35440, Note_on_c, 0, 50, 47
2, 35443, Note_on_c, 0, 71, 61
2, 35448, Note_on_c, 0, 73, 0
2, 35463, Control_c, 0, 64, 0
2, 35478, Note_on_c, 0, 38, 0
2, 35478, Note_on_c, 0, 50, 0
2, 35528, Note_on_c, 0, 59, 52
2, 35551, Note_on_c, 0, 62, 50
2, 35561, Note_on_c, 0, 66, 53
2, 35564, Note_on_c, 0, 59, 0
2, 35587, Note_on_c, 0, 62, 0
2, 35599, Note_on_c, 0, 66, 0
2, 35657, Note_on_c, 0, 50, 46
2, 35657, Note_on_c, 0, 54, 48
2, 35669, Note_on_c, 0, 59, 47
2, 35689, Note_on_c, 0, 62, 51
2, 35692, Note_on_c, 0, 54, 0
2, 35692, Note_on_c, 0, 50, 0
2, 35705, Note_on_c, 0, 59, 0
2, 35728, Note_on_c, 0, 62, 0
2, 35813, Note_on_c, 0, 74, 62
2, 35838, Note_on_c, 0, 71, 0
2, 35944, Note_on_c, 0, 78, 69
2, 35953, Note_on_c, 0, 38, 65
2, 35963, Note_on_c, 0, 50, 61
2, 35971, Note_on_c, 0, 74, 0
2, 35988, Note_on_c, 0, 38, 0
2, 35998, Note_on_c, 0, 50, 0
2, 36050, Note_on_c, 0, 66, 47
2, 36060, Note_on_c, 0, 71, 45
2, 36083, Note_on_c, 0, 74, 48
2, 36088, Note_on_c, 0, 66, 0
2, 36097, Note_on_c, 0, 71, 0
2, 36120, Note_on_c, 0, 74, 0
2, 36145, Note_on_c, 0, 59, 47
2, 36158, Control_c, 0, 67, 0
2, 36173, Note_on_c, 0, 62, 54
2, 36183, Note_on_c, 0, 66, 53
2, 36186, Note_on_c, 0, 59, 0
2, 36193, Note_on_c, 0, 71, 48
2, 36209, Note_on_c, 0, 62, 0
2, 36221, Note_on_c, 0, 66, 0
2, 36231, Note_on_c, 0, 71, 0
2, 36243, Control_c, 0, 64, 127
2, 36299, Note_on_c, 0, 74, 66
2, 36395, Note_on_c, 0, 39, 42
2, 36398, Note_on_c, 0, 51, 46
2, 36398, Note_on_c, 0, 71, 53
2, 36418, Control_c, 0, 64, 0
2, 36426, Note_on_c, 0, 74, 0
2, 36426, Note_on_c, 0, 78, 0
2, 36433, Note_on_c, 0, 51, 0
2, 36433, Note_on_c, 0, 39, 0
2, 36489, Note_on_c, 0, 59, 41
2, 36499, Note_on_c, 0, 66, 41
2, 36508, Note_on_c, 0, 69, 43
2, 36526, Note_on_c, 0, 59, 0
2, 36535, Note_on_c, 0, 66, 0
2, 36548, Note_on_c, 0, 69, 0
2, 36585, Note_on_c, 0, 57, 45
2, 36608, Note_on_c, 0, 59, 41
2, 36618, Note_on_c, 0, 66, 51
2, 36623, Note_on_c, 0, 57, 0
2, 36646, Note_on_c, 0, 59, 0
2, 36648, Control_c, 0, 64, 127
2, 36656, Note_on_c, 0, 66, 0
2, 36724, Note_on_c, 0, 75, 55
2, 36749, Note_on_c, 0, 71, 0
2, 36813, Control_c, 0, 64, 0
2, 36822, Note_on_c, 0, 78, 67
2, 36832, Note_on_c, 0, 47, 64
2, 36840, Note_on_c, 0, 35, 66
2, 36849, Note_on_c, 0, 75, 0
2, 36866, Note_on_c, 0, 47, 0
2, 36876, Note_on_c, 0, 35, 0
2, 36926, Note_on_c, 0, 66, 47
2, 36949, Note_on_c, 0, 69, 43
2, 36949, Note_on_c, 0, 71, 47
2, 36961, Note_on_c, 0, 66, 0
2, 36969, Note_on_c, 0, 75, 54
2, 36982, Note_on_c, 0, 71, 0
2, 36982, Note_on_c, 0, 69, 0
2, 37005, Note_on_c, 0, 75, 0
2, 37055, Note_on_c, 0, 63, 52
2, 37067, Note_on_c, 0, 66, 47
2, 37072, Control_c, 0, 64, 127
2, 37075, Note_on_c, 0, 69, 43
2, 37092, Note_on_c, 0, 63, 0
2, 37102, Note_on_c, 0, 66, 0
2, 37114, Note_on_c, 0, 69, 0
2, 37152, Note_on_c, 0, 71, 68
2, 37179, Note_on_c, 0, 78, 0
2, 37255, Control_c, 0, 64, 0
2, 37296, Note_on_c, 0, 81, 62
2, 37300, Note_on_c, 0, 40, 67
2, 37303, Note_on_c, 0, 52, 62
2, 37320, Note_on_c, 0, 71, 0
2, 37338, Note_on_c, 0, 40, 0
2, 37341, Note_on_c, 0, 52, 0
2, 37414, Note_on_c, 0, 71, 46
2, 37426, Note_on_c, 0, 74, 48
2, 37439, Note_on_c, 0, 76, 46
2, 37446, Note_on_c, 0, 80, 51
2, 37451, Note_on_c, 0, 71, 0
2, 37464, Note_on_c, 0, 74, 0
2, 37473, Note_on_c, 0, 81, 0
2, 37473, Note_on_c, 0, 76, 0
2, 37536, Note_on_c, 0, 62, 54
2, 37549, Note_on_c, 0, 64, 51
2, 37552, Note_on_c, 0, 78, 69
2, 37555, Control_c, 0, 64, 127
2, 37560, Note_on_c, 0, 68, 65
2, 37572, Note_on_c, 0, 71, 64
2, 37587, Note_on_c, 0, 80, 0
2, 37620, Note_on_c, 0, 68, 0
2, 37628, Note_on_c, 0, 71, 0
2, 37648, Note_on_c, 0, 68, 47
2, 37657, Note_on_c, 0, 71, 46
2, 37673, Note_on_c, 0, 74, 50
2, 37682, Note_on_c, 0, 76, 44
2, 37707, Note_on_c, 0, 78, 0
2, 37752, Control_c, 0, 64, 0
2, 37757, Note_on_c, 0, 71, 0
2, 37757, Note_on_c, 0, 62, 0
2, 37757, Note_on_c, 0, 64, 0
2, 37760, Note_on_c, 0, 68, 0
2, 37760, Note_on_c, 0, 76, 0
2, 37760, Note_on_c, 0, 74, 0
2, 37776, Note_on_c, 0, 40, 64
2, 37778, Note_on_c, 0, 85, 65
2, 37786, Note_on_c, 0, 52, 69
2, 37811, Note_on_c, 0, 40, 0
2, 37824, Note_on_c, 0, 52, 0
2, 37889, Note_on_c, 0, 73, 47
2, 37901, Note_on_c, 0, 76, 46
2, 37926, Note_on_c, 0, 81, 68
2, 37929, Note_on_c, 0, 73, 0
2, 37942, Note_on_c, 0, 76, 0
2, 37954, Note_on_c, 0, 85, 0
2, 38012, Note_on_c, 0, 61, 50
2, 38024, Note_on_c, 0, 64, 57
2, 38027, Control_c, 0, 64, 127
2, 38050, Note_on_c, 0, 80, 65
2, 38070, Note_on_c, 0, 69, 48
2, 38070, Note_on_c, 0, 73, 45
2, 38083, Note_on_c, 0, 81, 0
2, 38136, Note_on_c, 0, 69, 0
2, 38156, Note_on_c, 0, 73, 0
2, 38181, Control_c, 0, 64, 0
2, 38185, Note_on_c, 0, 69, 62
2, 38185, Note_on_c, 0, 73, 62
2, 38185, Note_on_c, 0, 78, 62
2, 38208, Note_on_c, 0, 64, 0
2, 38208, Note_on_c, 0, 61, 0
2, 38211, Note_on_c, 0, 80, 0
2, 38221, Note_on_c, 0, 69, 0
2, 38221, Note_on_c, 0, 73, 0
2, 38329, Note_on_c, 0, 76, 63
2, 38334, Note_on_c, 0, 40, 54
2, 38350, Note_on_c, 0, 52, 54
2, 38357, Note_on_c, 0, 78, 0
2, 38375, Note_on_c, 0, 40, 0
2, 38387, Note_on_c, 0, 52, 0
2, 38430, Note_on_c, 0, 64, 53
2, 38453, Note_on_c, 0, 68, 43
2, 38463, Note_on_c, 0, 71, 60
2, 38468, Note_on_c, 0, 64, 0
2, 38488, Note_on_c, 0, 68, 0
2, 38491, Note_on_c, 0, 76, 0
2, 38579, Note_on_c, 0, 59, 52
2, 38592, Note_on_c, 0, 62, 51
2, 38599, Note_on_c, 0, 64, 49
2, 38602, Control_c, 0, 64, 127
2, 38612, Note_on_c, 0, 68, 60
2, 38612, Note_on_c, 0, 73, 62
2, 38637, Note_on_c, 0, 71, 0
2, 38702, Note_on_c, 0, 68, 0
2, 38730, Note_on_c, 0, 68, 48
2, 38753, Note_on_c, 0, 71, 43
2, 38756, Note_on_c, 0, 64, 0
2, 38756, Note_on_c, 0, 59, 0
2, 38756, Note_on_c, 0, 62, 0
2, 38763, Note_on_c, 0, 76, 43
2, 38766, Note_on_c, 0, 68, 0
2, 38779, Note_on_c, 0, 73, 0
2, 38786, Note_on_c, 0, 74, 69
2, 38789, Note_on_c, 0, 71, 0
2, 38812, Note_on_c, 0, 76, 0
2, 38888, Control_c, 0, 64, 0
2, 38911, Note_on_c, 0, 33, 51
2, 38911, Note_on_c, 0, 45, 49
2, 38919, Note_on_c, 0, 73, 66
2, 38947, Note_on_c, 0, 74, 0
2, 38950, Note_on_c, 0, 33, 0
2, 38952, Note_on_c, 0, 45, 0
2, 39036, Note_on_c, 0, 61, 50
2, 39073, Note_on_c, 0, 64, 49
2, 39076, Note_on_c, 0, 61, 0
2, 39079, Control_c, 0, 67, 127
2, 39104, Note_on_c, 0, 69, 54
2, 39109, Note_on_c, 0, 64, 0
2, 39144, Note_on_c, 0, 69, 0
2, 39202, Note_on_c, 0, 52, 44
2, 39212, Note_on_c, 0, 57, 49
2, 39235, Note_on_c, 0, 61, 53
2, 39235, Note_on_c, 0, 64, 52
2, 39238, Note_on_c, 0, 52, 0
2, 39250, Note_on_c, 0, 57, 0
2, 39273, Note_on_c, 0, 64, 0
2, 39273, Note_on_c, 0, 61, 0
2, 39359, Control_c, 0, 64, 127
2, 39366, Note_on_c, 0, 64, 41
2, 39371, Note_on_c, 0, 73, 0
2, 39379, Note_on_c, 0, 69, 44
2, 39404, Note_on_c, 0, 64, 0
2, 39404, Note_on_c, 0, 73, 58
2, 39416, Note_on_c, 0, 69, 0
2, 39416, Note_on_c, 0, 76, 53
2, 39439, Note_on_c, 0, 73, 0
2, 39555, Control_c, 0, 64, 0
2, 39558, Note_on_c, 0, 52, 51
2, 39563, Note_on_c, 0, 81, 66
2, 39578, Note_on_c, 0, 40, 53
2, 39591, Note_on_c, 0, 76, 0
2, 39596, Note_on_c, 0, 52, 0
2, 39619, Note_on_c, 0, 40, 0
2, 39707, Note_on_c, 0, 71, 48
2, 39730, Note_on_c, 0, 74, 45
2, 39730, Note_on_c, 0, 76, 45
2, 39743, Note_on_c, 0, 80, 44
2, 39745, Note_on_c, 0, 71, 0
2, 39766, Note_on_c, 0, 76, 0
2, 39766, Note_on_c, 0, 74, 0
2, 39768, Note_on_c, 0, 81, 0
2, 39826, Note_on_c, 0, 62, 48
2, 39839, Note_on_c, 0, 64, 42
2, 39851, Note_on_c, 0, 68, 60
2, 39864, Note_on_c, 0, 71, 60
2, 39864, Note_on_c, 0, 78, 56
2, 39873, Control_c, 0, 64, 127
2, 39890, Note_on_c, 0, 80, 0
2, 39908, Note_on_c, 0, 68, 0
2, 39933, Note_on_c, 0, 71, 0
2, 39937, Note_on_c, 0, 68, 46
2, 39962, Note_on_c, 0, 71, 45
2, 39972, Note_on_c, 0, 74, 45
2, 39984, Note_on_c, 0, 76, 47
2, 40012, Note_on_c, 0, 78, 0
2, 40096, Control_c, 0, 64, 0
2, 40096, Note_on_c, 0, 85, 64
2, 40108, Note_on_c, 0, 37, 48
2, 40111, Note_on_c, 0, 49, 53
2, 40119, Note_on_c, 0, 71, 0
2, 40119, Note_on_c, 0, 64, 0
2, 40119, Note_on_c, 0, 68, 0
2, 40119, Note_on_c, 0, 62, 0
2, 40122, Note_on_c, 0, 76, 0
2, 40122, Note_on_c, 0, 74, 0
2, 40147, Note_on_c, 0, 37, 0
2, 40150, Note_on_c, 0, 49, 0
2, 40223, Note_on_c, 0, 73, 43
2, 40225, Note_on_c, 0, 76, 46
2, 40258, Note_on_c, 0, 81, 59
2, 40261, Note_on_c, 0, 76, 0
2, 40261, Note_on_c, 0, 73, 0
2, 40286, Note_on_c, 0, 85, 0
2, 40392, Note_on_c, 0, 51, 45
2, 40394, Note_on_c, 0, 54, 43
2, 40399, Note_on_c, 0, 80, 64
2, 40404, Note_on_c, 0, 57, 43
2, 40409, Control_c, 0, 64, 127
2, 40416, Note_on_c, 0, 60, 46
2, 40426, Note_on_c, 0, 81, 0
2, 40560, Note_on_c, 0, 69, 43
2, 40569, Note_on_c, 0, 72, 43
2, 40582, Note_on_c, 0, 57, 0
2, 40582, Note_on_c, 0, 51, 0
2, 40582, Note_on_c, 0, 54, 0
2, 40582, Note_on_c, 0, 75, 57
2, 40582, Note_on_c, 0, 78, 55
2, 40584, Note_on_c, 0, 60, 0
2, 40594, Control_c, 0, 64, 0
2, 40597, Note_on_c, 0, 69, 0
2, 40607, Note_on_c, 0, 72, 0
2, 40609, Note_on_c, 0, 80, 0
2, 40617, Note_on_c, 0, 75, 0
2, 40774, Note_on_c, 0, 76, 55
2, 40789, Note_on_c, 0, 40, 54
2, 40799, Note_on_c, 0, 78, 0
2, 40803, Control_c, 0, 64, 127
2, 40811, Note_on_c, 0, 52, 54
2, 40960, Note_on_c, 0, 62, 42
2, 40972, Note_on_c, 0, 64, 42
2, 40985, Note_on_c, 0, 68, 45
2, 41017, Note_on_c, 0, 71, 54
2, 41022, Note_on_c, 0, 76, 0
2, 41233, Note_on_c, 0, 74, 63
2, 41258, Note_on_c, 0, 71, 0
2, 41427, Note_on_c, 0, 68, 0
2, 41475, Note_on_c, 0, 68, 58
2, 41480, Note_on_c, 0, 74, 0
2, 41664, Control_c, 0, 64, 0
2, 41672, Note_on_c, 0, 69, 54
2, 41677, Note_on_c, 0, 33, 41
2, 41677, Note_on_c, 0, 45, 42
2, 41692, Note_on_c, 0, 40, 0
2, 41692, Note_on_c, 0, 52, 0
2, 41695, Note_on_c, 0, 62, 0
2, 41698, Note_on_c, 0, 68, 0
2, 41698, Note_on_c, 0, 64, 0
2, 41715, Note_on_c, 0, 33, 0
2, 41718, Note_on_c, 0, 45, 0
2, 41814, Note_on_c, 0, 57, 54
2, 41827, Note_on_c, 0, 61, 50
2, 41836, Note_on_c, 0, 64, 48
2, 41852, Note_on_c, 0, 57, 0
2, 41861, Note_on_c, 0, 61, 0
2, 41874, Note_on_c, 0, 64, 0
2, 41934, Note_on_c, 0, 61, 46
2, 41957, Note_on_c, 0, 64, 42
2, 41967, Note_on_c, 0, 67, 53
2, 41972, Note_on_c, 0, 61, 0
2, 41995, Note_on_c, 0, 64, 0
2, 41998, Note_on_c, 0, 69, 0
2, 42005, Note_on_c, 0, 67, 0
2, 42094, Note_on_c, 0, 70, 55
2, 42224, Note_on_c, 0, 71, 60
2, 42227, Note_on_c, 0, 33, 52
2, 42240, Note_on_c, 0, 45, 52
2, 42249, Note_on_c, 0, 70, 0
2, 42262, Note_on_c, 0, 33, 0
2, 42279, Note_on_c, 0, 45, 0
2, 42339, Note_on_c, 0, 59, 49
2, 42352, Note_on_c, 0, 62, 48
2, 42360, Note_on_c, 0, 66, 49
2, 42377, Note_on_c, 0, 59, 0
2, 42389, Note_on_c, 0, 62, 0
2, 42399, Note_on_c, 0, 66, 0
2, 42427, Control_c, 0, 64, 127
2, 42436, Note_on_c, 0, 64, 43
2, 42446, Note_on_c, 0, 67, 48
2, 42458, Note_on_c, 0, 70, 52
2, 42486, Note_on_c, 0, 71, 0
2, 42539, Note_on_c, 0, 64, 0
2, 42539, Control_c, 0, 64, 0
2, 42542, Note_on_c, 0, 67, 0
2, 42542, Note_on_c, 0, 70, 0
2, 42570, Note_on_c, 0, 73, 64
2, 42683, Note_on_c, 0, 33, 55
2, 42686, Note_on_c, 0, 45, 59
2, 42696, Note_on_c, 0, 74, 65
2, 42720, Note_on_c, 0, 33, 0
2, 42720, Note_on_c, 0, 73, 0
2, 42723, Note_on_c, 0, 45, 0
2, 42779, Note_on_c, 0, 62, 56
2, 42804, Note_on_c, 0, 66, 46
2, 42804, Note_on_c, 0, 69, 47
2, 42816, Note_on_c, 0, 62, 0
2, 42840, Note_on_c, 0, 69, 0
2, 42840, Note_on_c, 0, 66, 0
2, 42869, Control_c, 0, 64, 127
2, 42879, Note_on_c, 0, 66, 50
2, 42891, Note_on_c, 0, 69, 51
2, 42891, Note_on_c, 0, 72, 56
2, 43008, Note_on_c, 0, 75, 68
2, 43031, Control_c, 0, 64, 0
2, 43033, Note_on_c, 0, 72, 0
2, 43033, Note_on_c, 0, 69, 0
2, 43033, Note_on_c, 0, 74, 0
2, 43033, Note_on_c, 0, 66, 0
2, 43147, Note_on_c, 0, 78, 73
2, 43150, Note_on_c, 0, 40, 54
2, 43152, Note_on_c, 0, 52, 57
2, 43173, Note_on_c, 0, 75, 0
2, 43188, Note_on_c, 0, 40, 0
2, 43193, Note_on_c, 0, 52, 0
2, 43271, Note_on_c, 0, 68, 50
2, 43280, Note_on_c, 0, 71, 45
2, 43305, Note_on_c, 0, 68, 0
2, 43315, Note_on_c, 0, 76, 65
2, 43318, Note_on_c, 0, 71, 0
2, 43341, Note_on_c, 0, 78, 0
2, 43411, Note_on_c, 0, 59, 53
2, 43420, Note_on_c, 0, 62, 50
2, 43433, Note_on_c, 0, 64, 48
2, 43445, Note_on_c, 0, 59, 0
2, 43445, Note_on_c, 0, 68, 60
2, 43455, Note_on_c, 0, 74, 62
2, 43458, Note_on_c, 0, 62, 0
2, 43467, Note_on_c, 0, 64, 0
2, 43480, Note_on_c, 0, 68, 0
2, 43480, Note_on_c, 0, 76, 0
2, 43576, Note_on_c, 0, 74, 0
2, 43579, Control_c, 0, 64, 127
2, 43627, Note_on_c, 0, 71, 61
2, 43776, Note_on_c, 0, 45, 53
2, 43780, Note_on_c, 0, 69, 66
2, 43783, Note_on_c, 0, 33, 52
2, 43806, Note_on_c, 0, 71, 0
2, 43811, Note_on_c, 0, 45, 0
2, 43819, Note_on_c, 0, 33, 0
2, 43824, Control_c, 0, 64, 0
2, 43887, Note_on_c, 0, 57, 52
2, 43896, Note_on_c, 0, 61, 52
2, 43912, Note_on_c, 0, 64, 48
2, 43924, Note_on_c, 0, 57, 0
2, 43937, Note_on_c, 0, 61, 0
2, 43937, Control_c, 0, 67, 0
2, 43946, Note_on_c, 0, 64, 0
2, 44019, Note_on_c, 0, 61, 50
2, 44032, Note_on_c, 0, 64, 49
2, 44032, Note_on_c, 0, 67, 54
2, 44057, Note_on_c, 0, 61, 0
2, 44069, Note_on_c, 0, 69, 0
2, 44069, Note_on_c, 0, 64, 0
2, 44069, Note_on_c, 0, 67, 0
2, 44145, Control_c, 0, 64, 127
2, 44168, Note_on_c, 0, 70, 61
2, 44173, Note_on_c, 0, 40, 53
2, 44178, Note_on_c, 0, 61, 53
2, 44181, Note_on_c, 0, 66, 65
2, 44185, Note_on_c, 0, 52, 53
2, 44274, Note_on_c, 0, 71, 65
2, 44279, Note_on_c, 0, 38, 52
2, 44291, Note_on_c, 0, 50, 51
2, 44294, Note_on_c, 0, 40, 0
2, 44297, Note_on_c, 0, 52, 0
2, 44297, Note_on_c, 0, 61, 0
2, 44300, Note_on_c, 0, 70, 0
2, 44300, Note_on_c, 0, 66, 0
2, 44309, Control_c, 0, 64, 0
2, 44314, Note_on_c, 0, 38, 0
2, 44329, Note_on_c, 0, 50, 0
2, 44377, Note_on_c, 0, 59, 53
2, 44377, Note_on_c, 0, 62, 51
2, 44390, Note_on_c, 0, 66, 47
2, 44415, Note_on_c, 0, 62, 0
2, 44415, Note_on_c, 0, 59, 0
2, 44427, Note_on_c, 0, 66, 0
2, 44488, Note_on_c, 0, 64, 66
2, 44488, Note_on_c, 0, 67, 52
2, 44503, Note_on_c, 0, 70, 50
2, 44526, Note_on_c, 0, 67, 0
2, 44526, Note_on_c, 0, 64, 0
2, 44529, Note_on_c, 0, 71, 0
2, 44539, Note_on_c, 0, 70, 0
2, 44584, Control_c, 0, 64, 127
2, 44587, Note_on_c, 0, 73, 66
2, 44596, Note_on_c, 0, 64, 65
2, 44601, Note_on_c, 0, 43, 65
2, 44604, Note_on_c, 0, 55, 66
2, 44607, Note_on_c, 0, 69, 61
2, 44697, Control_c, 0, 64, 0
2, 44697, Note_on_c, 0, 42, 58
2, 44702, Note_on_c, 0, 54, 61
2, 44705, Note_on_c, 0, 74, 73
2, 44725, Note_on_c, 0, 55, 0
2, 44728, Note_on_c, 0, 69, 0
2, 44728, Note_on_c, 0, 64, 0
2, 44731, Note_on_c, 0, 73, 0
2, 44734, Note_on_c, 0, 43, 0
2, 44734, Note_on_c, 0, 42, 0
2, 44736, Note_on_c, 0, 54, 0
2, 44766, Note_on_c, 0, 62, 60
2, 44779, Note_on_c, 0, 66, 50
2, 44802, Note_on_c, 0, 69, 45
2, 44807, Note_on_c, 0, 62, 0
2, 44816, Note_on_c, 0, 66, 0
2, 44839, Note_on_c, 0, 69, 0
2, 44867, Note_on_c, 0, 66, 52
2, 44892, Note_on_c, 0, 69, 52
2, 44902, Note_on_c, 0, 72, 52
2, 44904, Note_on_c, 0, 66, 0
2, 44928, Note_on_c, 0, 69, 0
2, 44930, Note_on_c, 0, 74, 0
2, 44940, Note_on_c, 0, 72, 0
2, 44970, Control_c, 0, 64, 127
2, 44987, Note_on_c, 0, 47, 55
2, 44990, Note_on_c, 0, 59, 55
2, 44990, Note_on_c, 0, 66, 74
2, 44993, Note_on_c, 0, 75, 71
2, 45002, Note_on_c, 0, 69, 68
2, 45002, Note_on_c, 0, 71, 71
2, 45108, Note_on_c, 0, 52, 63
2, 45116, Note_on_c, 0, 40, 61
2, 45123, Control_c, 0, 64, 0
2, 45123, Note_on_c, 0, 78, 73
2, 45131, Note_on_c, 0, 47, 0
2, 45136, Note_on_c, 0, 69, 0
2, 45136, Note_on_c, 0, 59, 0
2, 45136, Note_on_c, 0, 66, 0
2, 45139, Note_on_c, 0, 75, 0
2, 45139, Note_on_c, 0, 71, 0
2, 45144, Note_on_c, 0, 52, 0
2, 45153, Note_on_c, 0, 40, 0
2, 45251, Note_on_c, 0, 68, 46
2, 45266, Note_on_c, 0, 71, 45
2, 45289, Note_on_c, 0, 76, 66
2, 45292, Note_on_c, 0, 68, 0
2, 45302, Note_on_c, 0, 71, 0
2, 45314, Note_on_c, 0, 78, 0
2, 45384, Note_on_c, 0, 59, 49
2, 45394, Note_on_c, 0, 62, 52
2, 45407, Note_on_c, 0, 64, 52
2, 45409, Control_c, 0, 64, 127
2, 45419, Note_on_c, 0, 68, 67
2, 45419, Note_on_c, 0, 74, 66
2, 45447, Note_on_c, 0, 76, 0
2, 45484, Note_on_c, 0, 62, 0
2, 45504, Note_on_c, 0, 64, 0
2, 45512, Note_on_c, 0, 62, 50
2, 45517, Note_on_c, 0, 68, 0
2, 45534, Note_on_c, 0, 64, 48
2, 45537, Note_on_c, 0, 59, 0
2, 45545, Note_on_c, 0, 71, 63
2, 45548, Note_on_c, 0, 68, 68
2, 45551, Note_on_c, 0, 62, 0
2, 45571, Note_on_c, 0, 64, 0
2, 45571, Control_c, 0, 64, 0
2, 45574, Note_on_c, 0, 74, 0
2, 45581, Note_on_c, 0, 68, 0
2, 45702, Note_on_c, 0, 33, 51
2, 45705, Note_on_c, 0, 45, 50
2, 45710, Note_on_c, 0, 69, 64
2, 45740, Note_on_c, 0, 71, 0
2, 45765, Control_c, 0, 64, 127
2, 45802, Note_on_c, 0, 69, 0
2, 45807, Note_on_c, 0, 61, 56
2, 45816, Note_on_c, 0, 64, 50
2, 45826, Note_on_c, 0, 69, 49
2, 45851, Note_on_c, 0, 73, 67
2, 45896, Note_on_c, 0, 61, 0
2, 45901, Note_on_c, 0, 52, 53
2, 45909, Note_on_c, 0, 64, 0
2, 45913, Note_on_c, 0, 57, 56
2, 45921, Note_on_c, 0, 61, 57
2, 45936, Note_on_c, 0, 64, 53
2, 45939, Note_on_c, 0, 52, 0
2, 45939, Note_on_c, 0, 76, 64
2, 45949, Note_on_c, 0, 57, 0
2, 45954, Note_on_c, 0, 33, 0
2, 45957, Note_on_c, 0, 45, 0
2, 45960, Note_on_c, 0, 61, 0
2, 45962, Note_on_c, 0, 73, 0
2, 45975, Note_on_c, 0, 64, 0
2, 45984, Note_on_c, 0, 69, 0
2, 45997, Note_on_c, 0, 76, 0
2, 46014, Note_on_c, 0, 69, 50
2, 46027, Note_on_c, 0, 73, 48
2, 46027, Note_on_c, 0, 76, 50
2, 46050, Note_on_c, 0, 69, 0
2, 46062, Note_on_c, 0, 73, 0
2, 46065, Note_on_c, 0, 76, 0
2, 46070, Note_on_c, 0, 81, 57
2, 46073, Control_c, 0, 64, 0
2, 46153, Note_on_c, 0, 40, 52
2, 46156, Note_on_c, 0, 52, 56
2, 46186, Note_on_c, 0, 80, 69
2, 46189, Note_on_c, 0, 81, 0
2, 46194, Note_on_c, 0, 40, 0
2, 46197, Note_on_c, 0, 52, 0
2, 46247, Note_on_c, 0, 64, 51
2, 46249, Note_on_c, 0, 68, 44
2, 46262, Note_on_c, 0, 71, 44
2, 46282, Note_on_c, 0, 76, 62
2, 46287, Note_on_c, 0, 68, 0
2, 46287, Note_on_c, 0, 64, 0
2, 46296, Note_on_c, 0, 71, 0
2, 46309, Note_on_c, 0, 80, 0
2, 46317, Control_c, 0, 64, 127
2, 46357, Note_on_c, 0, 56, 54
2, 46380, Note_on_c, 0, 59, 55
2, 46390, Note_on_c, 0, 62, 50
2, 46392, Note_on_c, 0, 64, 54
2, 46395, Note_on_c, 0, 56, 0
2, 46395, Note_on_c, 0, 74, 61
2, 46418, Note_on_c, 0, 76, 0
2, 46418, Note_on_c, 0, 59, 0
2, 46428, Note_on_c, 0, 62, 0
2, 46428, Note_on_c, 0, 64, 0
2, 46484, Control_c, 0, 64, 0
2, 46488, Note_on_c, 0, 62, 54
2, 46509, Control_c, 0, 67, 127
2, 46512, Note_on_c, 0, 64, 53
2, 46512, Note_on_c, 0, 68, 46
2, 46521, Note_on_c, 0, 71, 42
2, 46526, Note_on_c, 0, 62, 0
2, 46546, Note_on_c, 0, 64, 0
2, 46549, Note_on_c, 0, 74, 0
2, 46549, Note_on_c, 0, 68, 0
2, 46655, Note_on_c, 0, 69, 58
2, 46659, Note_on_c, 0, 33, 58
2, 46662, Note_on_c, 0, 45, 60
2, 46692, Note_on_c, 0, 71, 0
2, 46695, Note_on_c, 0, 33, 0
2, 46698, Note_on_c, 0, 45, 0
2, 46723, Control_c, 0, 64, 127
2, 46783, Note_on_c, 0, 69, 0
2, 46786, Note_on_c, 0, 61, 45
2, 46796, Note_on_c, 0, 64, 43
2, 46808, Note_on_c, 0, 69, 43
2, 46821, Note_on_c, 0, 61, 0
2, 46828, Note_on_c, 0, 73, 58
2, 46833, Note_on_c, 0, 64, 0
2, 46846, Note_on_c, 0, 69, 0
2, 46881, Control_c, 0, 64, 0
2, 46939, Note_on_c, 0, 52, 47
2, 46959, Note_on_c, 0, 57, 48
2, 46971, Note_on_c, 0, 61, 50
2, 46974, Note_on_c, 0, 52, 0
2, 46974, Note_on_c, 0, 76, 58
2, 46987, Note_on_c, 0, 64, 48
2, 47002, Note_on_c, 0, 73, 0
2, 47002, Note_on_c, 0, 57, 0
2, 47010, Note_on_c, 0, 61, 0
2, 47022, Note_on_c, 0, 64, 0
2, 47092, Note_on_c, 0, 76, 0
2, 47097, Note_on_c, 0, 69, 44
2, 47122, Note_on_c, 0, 73, 43
2, 47122, Note_on_c, 0, 76, 43
2, 47137, Note_on_c, 0, 69, 0
2, 47147, Note_on_c, 0, 81, 47
2, 47160, Note_on_c, 0, 76, 0
2, 47160, Note_on_c, 0, 73, 0
2, 47285, Note_on_c, 0, 52, 44
2, 47290, Note_on_c, 0, 80, 59
2, 47295, Note_on_c, 0, 40, 43
2, 47300, Control_c, 0, 64, 127
2, 47317, Note_on_c, 0, 81, 0
2, 47322, Note_on_c, 0, 52, 0
2, 47329, Note_on_c, 0, 40, 0
2, 47427, Note_on_c, 0, 64, 42
2, 47450, Note_on_c, 0, 68, 45
2, 47460, Note_on_c, 0, 71, 48
2, 47465, Note_on_c, 0, 64, 0
2, 47472, Note_on_c, 0, 76, 59
2, 47477, Control_c, 0, 64, 0
2, 47487, Note_on_c, 0, 68, 0
2, 47496, Note_on_c, 0, 71, 0
2, 47499, Note_on_c, 0, 80, 0
2, 47640, Note_on_c, 0, 56, 42
2, 47653, Note_on_c, 0, 59, 48
2, 47653, Note_on_c, 0, 62, 53
2, 47656, Note_on_c, 0, 74, 60
2, 47664, Note_on_c, 0, 64, 47
2, 47679, Note_on_c, 0, 56, 0
2, 47682, Note_on_c, 0, 76, 0
2, 47689, Note_on_c, 0, 62, 0
2, 47689, Note_on_c, 0, 59, 0
2, 47699, Note_on_c, 0, 64, 0
2, 47735, Control_c, 0, 64, 127
2, 47863, Note_on_c, 0, 62, 46
2, 47873, Note_on_c, 0, 64, 46
2, 47885, Note_on_c, 0, 68, 48
2, 47890, Control_c, 0, 64, 0
2, 47898, Note_on_c, 0, 71, 45
2, 47901, Note_on_c, 0, 62, 0
2, 47910, Note_on_c, 0, 64, 0
2, 47923, Note_on_c, 0, 74, 0
2, 47923, Note_on_c, 0, 68, 0
2, 48134, Note_on_c, 0, 45, 41
2, 48139, Note_on_c, 0, 73, 65
2, 48144, Note_on_c, 0, 33, 42
2, 48164, Note_on_c, 0, 71, 0
2, 48337, Note_on_c, 0, 61, 43
2, 48350, Note_on_c, 0, 64, 43
2, 48373, Note_on_c, 0, 69, 47
2, 48376, Note_on_c, 0, 61, 0
2, 48388, Note_on_c, 0, 64, 0
2, 48408, Note_on_c, 0, 69, 0
2, 48466, Note_on_c, 0, 57, 53
2, 48476, Note_on_c, 0, 61, 53
2, 48485, Note_on_c, 0, 64, 51
2, 48495, Note_on_c, 0, 33, 0
2, 48498, Note_on_c, 0, 57, 0
2, 48498, Note_on_c, 0, 45, 0
2, 48510, Note_on_c, 0, 61, 0
2, 48523, Note_on_c, 0, 64, 0
2, 48596, Note_on_c, 0, 74, 67
2, 48621, Note_on_c, 0, 73, 0
2, 48671, Note_on_c, 0, 75, 62
2, 48686, Note_on_c, 0, 74, 0
2, 48736, Note_on_c, 0, 76, 65
2, 48764, Note_on_c, 0, 75, 0
2, 48799, Note_on_c, 0, 45, 49
2, 48809, Note_on_c, 0, 33, 49
2, 48816, Note_on_c, 0, 81, 61
2, 48834, Note_on_c, 0, 45, 0
2, 48839, Note_on_c, 0, 76, 0
2, 48843, Note_on_c, 0, 33, 0
2, 48919, Note_on_c, 0, 69, 43
2, 48929, Note_on_c, 0, 73, 47
2, 48941, Note_on_c, 0, 76, 50
2, 48957, Note_on_c, 0, 69, 0
2, 48966, Note_on_c, 0, 73, 0
2, 48976, Note_on_c, 0, 76, 0
2, 49069, Note_on_c, 0, 61, 43
2, 49069, Note_on_c, 0, 64, 45
2, 49092, Note_on_c, 0, 69, 53
2, 49107, Note_on_c, 0, 64, 0
2, 49107, Note_on_c, 0, 61, 0
2, 49128, Note_on_c, 0, 69, 0
2, 49200, Note_on_c, 0, 71, 60
2, 49230, Note_on_c, 0, 81, 0
2, 49303, Note_on_c, 0, 72, 59
2, 49331, Note_on_c, 0, 71, 0
2, 49381, Note_on_c, 0, 73, 57
2, 49409, Note_on_c, 0, 72, 0
2, 49412, Note_on_c, 0, 45, 47
2, 49421, Note_on_c, 0, 33, 46
2, 49426, Note_on_c, 0, 76, 60
2, 49449, Note_on_c, 0, 45, 0
2, 49452, Note_on_c, 0, 73, 0
2, 49460, Note_on_c, 0, 33, 0
2, 49536, Note_on_c, 0, 64, 47
2, 49556, Note_on_c, 0, 69, 52
2, 49565, Note_on_c, 0, 73, 48
2, 49570, Note_on_c, 0, 64, 0
2, 49595, Note_on_c, 0, 69, 0
2, 49605, Note_on_c, 0, 73, 0
2, 49685, Note_on_c, 0, 57, 47
2, 49693, Note_on_c, 0, 61, 48
2, 49705, Note_on_c, 0, 64, 45
2, 49718, Note_on_c, 0, 57, 0
2, 49730, Note_on_c, 0, 61, 0
2, 49740, Note_on_c, 0, 64, 0
2, 49830, Note_on_c, 0, 66, 54
2, 49871, Note_on_c, 0, 76, 0
2, 49920, Note_on_c, 0, 68, 53
2, 49948, Note_on_c, 0, 66, 0
2, 50001, Note_on_c, 0, 69, 48
2, 50026, Note_on_c, 0, 68, 0
2, 50099, Note_on_c, 0, 73, 60
2, 50107, Note_on_c, 0, 33, 46
2, 50107, Note_on_c, 0, 45, 44
2, 50122, Note_on_c, 0, 69, 0
2, 50142, Note_on_c, 0, 45, 0
2, 50142, Note_on_c, 0, 33, 0
2, 50246, Note_on_c, 0, 61, 44
2, 50266, Note_on_c, 0, 64, 42
2, 50279, Note_on_c, 0, 69, 41
2, 50281, Note_on_c, 0, 61, 0
2, 50306, Note_on_c, 0, 64, 0
2, 50316, Note_on_c, 0, 69, 0
2, 50454, Note_on_c, 0, 52, 41
2, 50477, Note_on_c, 0, 57, 44
2, 50490, Note_on_c, 0, 52, 0
2, 50499, Note_on_c, 0, 61, 47
2, 50515, Note_on_c, 0, 57, 0
2, 50535, Note_on_c, 0, 61, 0
2, 50640, Note_on_c, 0, 62, 55
2, 50665, Note_on_c, 0, 73, 0
2, 50738, Note_on_c, 0, 63, 60
2, 50763, Note_on_c, 0, 62, 0
2, 50819, Note_on_c, 0, 64, 57
2, 50844, Note_on_c, 0, 63, 0
2, 50904, Note_on_c, 0, 69, 59
2, 50912, Control_c, 0, 64, 127
2, 50932, Note_on_c, 0, 64, 0
2, 51086, Note_on_c, 0, 57, 47
2, 51086, Note_on_c, 0, 61, 50
2, 51089, Note_on_c, 0, 64, 47
2, 51096, Note_on_c, 0, 49, 47
2, 51099, Control_c, 0, 64, 0
2, 51099, Note_on_c, 0, 52, 50
2, 51115, Note_on_c, 0, 69, 0
2, 51124, Note_on_c, 0, 64, 0
2, 51124, Note_on_c, 0, 57, 0
2, 51124, Note_on_c, 0, 61, 0
2, 51134, Note_on_c, 0, 52, 0
2, 51134, Note_on_c, 0, 49, 0
2, 51230, Note_on_c, 0, 61, 49
2, 51233, Note_on_c, 0, 64, 54
2, 51240, Note_on_c, 0, 52, 53
2, 51240, Note_on_c, 0, 57, 53
2, 51253, Note_on_c, 0, 69, 48
2, 51268, Note_on_c, 0, 64, 0
2, 51268, Note_on_c, 0, 61, 0
2, 51281, Note_on_c, 0, 57, 0
2, 51281, Note_on_c, 0, 52, 0
2, 51290, Note_on_c, 0, 69, 0
2, 51346, Note_on_c, 0, 64, 50
2, 51354, Note_on_c, 0, 69, 55
2, 51363, Note_on_c, 0, 57, 55
2, 51363, Note_on_c, 0, 61, 49
2, 51373, Note_on_c, 0, 73, 53
2, 51378, Note_on_c, 0, 64, 0
2, 51387, Note_on_c, 0, 69, 0
2, 51397, Note_on_c, 0, 61, 0
2, 51397, Note_on_c, 0, 57, 0
2, 51409, Note_on_c, 0, 73, 0
2, 51447, Note_on_c, 0, 61, 47
2, 51447, Note_on_c, 0, 69, 47
2, 51459, Note_on_c, 0, 64, 47
2, 51459, Note_on_c, 0, 73, 46
2, 51472, Note_on_c, 0, 76, 47
2, 51484, Note_on_c, 0, 69, 0
2, 51484, Note_on_c, 0, 61, 0
2, 51497, Note_on_c, 0, 73, 0
2, 51497, Note_on_c, 0, 64, 0
2, 51506, Note_on_c, 0, 76, 0
2, 51536, Note_on_c, 0, 73, 42
2, 51549, Note_on_c, 0, 76, 45
2, 51549, Note_on_c, 0, 81, 44
2, 51558, Note_on_c, 0, 64, 43
2, 51558, Note_on_c, 0, 69, 44
2, 51571, Note_on_c, 0, 73, 0
2, 51583, Note_on_c, 0, 76, 0
2, 51586, Note_on_c, 0, 81, 0
2, 51594, Note_on_c, 0, 64, 0
2, 51597, Note_on_c, 0, 69, 0
2, 51634, Note_on_c, 0, 76, 42
2, 51637, Note_on_c, 0, 81, 48
2, 51637, Note_on_c, 0, 85, 47
2, 51647, Note_on_c, 0, 69, 42
2, 51656, Note_on_c, 0, 73, 46
2, 51673, Note_on_c, 0, 85, 0
2, 51673, Note_on_c, 0, 76, 0
2, 51673, Note_on_c, 0, 81, 0
2, 51681, Note_on_c, 0, 69, 0
2, 51694, Note_on_c, 0, 73, 0
2, 51723, Note_on_c, 0, 81, 41
2, 51723, Note_on_c, 0, 85, 44
2, 51733, Note_on_c, 0, 73, 46
2, 51733, Note_on_c, 0, 76, 47
2, 51733, Note_on_c, 0, 88, 46
2, 51758, Note_on_c, 0, 85, 0
2, 51758, Note_on_c, 0, 81, 0
2, 51768, Note_on_c, 0, 76, 0
2, 51768, Note_on_c, 0, 73, 0
2, 51770, Note_on_c, 0, 88, 0
2, 51808, Note_on_c, 0, 81, 44
2, 51808, Note_on_c, 0, 85, 44
2, 51820, Note_on_c, 0, 88, 45
2, 51820, Note_on_c, 0, 93, 45
2, 51828, Note_on_c, 0, 73, 47
2, 51828, Note_on_c, 0, 76, 43
2, 51845, Note_on_c, 0, 85, 0
2, 51845, Note_on_c, 0, 81, 0
2, 51855, Note_on_c, 0, 93, 0
2, 51855, Note_on_c, 0, 88, 0
2, 51864, Note_on_c, 0, 76, 0
2, 51864, Note_on_c, 0, 73, 0
2, 52109, Control_c, 0, 64, 127
2, 52165, Note_on_c, 0, 64, 42
2, 52165, Note_on_c, 0, 76, 53
2, 52177, Note_on_c, 0, 69, 55
2, 52185, Note_on_c, 0, 57, 47
2, 52185, Note_on_c, 0, 61, 45
2, 52202, Note_on_c, 0, 64, 0
2, 52215, Note_on_c, 0, 76, 0
2, 52215, Note_on_c, 0, 69, 0
2, 52223, Note_on_c, 0, 57, 0
2, 52223, Note_on_c, 0, 61, 0
2, 52230, Control_c, 0, 64, 0
2, 52441, Control_c, 0, 64, 127
2, 52606, Note_on_c, 0, 33, 43
2, 52654, Note_on_c, 0, 40, 44
2, 52654, Note_on_c, 0, 57, 48
2, 52654, Note_on_c, 0, 61, 45
2, 52654, Note_on_c, 0, 64, 42
2, 52661, Note_on_c, 0, 49, 47
2, 52664, Note_on_c, 0, 69, 53
2, 52684, Note_on_c, 0, 33, 0
2, 52687, Note_on_c, 0, 64, 0
2, 52687, Note_on_c, 0, 40, 0
2, 52687, Note_on_c, 0, 61, 0
2, 52687, Note_on_c, 0, 57, 0
2, 52700, Note_on_c, 0, 49, 0
2, 52703, Note_on_c, 0, 69, 0
2, 52720, Control_c, 0, 64, 0
2, 52838, Control_c, 0, 67, 0
2, 52838, End_track
3, 0, Start_track
3, 0, Title_t, "c/b Mendelssohn"
3, 0, End_track
4, 0, Start_track
4, 0, Title_t, "p/b Howard Broackway"
4, 0, End_track
5, 0, Start_track
5, 0, Title_t, "Ampico # 51422"
5, 0, End_track
6, 0, Start_track
6, 0, Title_t, "Scan of a player piano roll"
6, 0, End_track
7, 0, Start_track
7, 0, Title_t, "by Terry Smythe, Winnipeg, Canada"
7, 0, End_track
0, 0, End_of_file
