0, 0, Header, 1, 7, 192
1, 0, Start_track
1, 0, Title_t, "55545A"
1, 0, Text_t, "Roll expression/accent tracks, where present, converted to MIDI velocties.\012"
1, 0, Time_signature, 4, 2, 24, 8
1, 0, Key_signature, 0, "major"
1, 0, Tempo, 500000
1, 0, Marker_t, "Standard MIDI:LPI 117:Tempo  60: 08-24-2003"
1, 0, End_track
2, 0, Start_track
2, 0, Title_t, "Rondo Capriccioso Op 14"
2, 0, Control_c, 0, 7, 115
2, 5, Control_c, 0, 67, 127
2, 216, Note_on_c, 0, 52, 46
2, 218, Note_on_c, 0, 40, 45
2, 319, Control_c, 0, 64, 127
2, 606, Note_on_c, 0, 59, 45
2, 606, Note_on_c, 0, 68, 49
2, 617, Note_on_c, 0, 64, 43
2, 858, Note_on_c, 0, 68, 0
2, 883, Note_on_c, 0, 59, 0
2, 883, Note_on_c, 0, 64, 0
2, 908, Note_on_c, 0, 68, 53
2, 933, Note_on_c, 0, 59, 46
2, 933, Note_on_c, 0, 64, 41
2, 1132, Note_on_c, 0, 68, 0
2, 1135, Note_on_c, 0, 59, 0
2, 1146, Note_on_c, 0, 64, 0
2, 1184, Note_on_c, 0, 59, 44
2, 1184, Note_on_c, 0, 68, 55
2, 1193, Note_on_c, 0, 64, 48
2, 1368, Note_on_c, 0, 68, 0
2, 1368, Note_on_c, 0, 59, 0
2, 1378, Note_on_c, 0, 64, 0
2, 1416, Note_on_c, 0, 59, 46
2, 1416, Note_on_c, 0, 68, 54
2, 1427, Note_on_c, 0, 64, 42
2, 1627, Note_on_c, 0, 68, 0
2, 1630, Note_on_c, 0, 59, 0
2, 1638, Note_on_c, 0, 64, 0
2, 1674, Note_on_c, 0, 59, 47
2, 1674, Note_on_c, 0, 68, 60
2, 1684, Note_on_c, 0, 64, 45
2, 1971, Note_on_c, 0, 68, 0
2, 1985, Note_on_c, 0, 64, 0
2, 1993, Note_on_c, 0, 59, 0
2, 2018, Note_on_c, 0, 68, 58
2, 2018, Note_on_c, 0, 71, 61
2, 2040, Note_on_c, 0, 64, 49
2, 2054, Note_on_c, 0, 59, 43
2, 2057, Note_on_c, 0, 32, 47
2, 2057, Note_on_c, 0, 44, 49
2, 2101, Note_on_c, 0, 40, 0
2, 2104, Control_c, 0, 64, 0
2, 2367, Control_c, 0, 64, 127
2, 2498, Note_on_c, 0, 64, 0
2, 2498, Note_on_c, 0, 68, 0
2, 2523, Note_on_c, 0, 59, 0
2, 2545, Note_on_c, 0, 64, 46
2, 2545, Note_on_c, 0, 68, 47
2, 2565, Note_on_c, 0, 59, 45
2, 2934, Note_on_c, 0, 45, 41
2, 2948, Control_c, 0, 64, 0
2, 2948, Note_on_c, 0, 33, 41
2, 2956, Note_on_c, 0, 59, 0
2, 2956, Note_on_c, 0, 71, 0
2, 2956, Note_on_c, 0, 68, 0
2, 2956, Note_on_c, 0, 64, 0
2, 2959, Note_on_c, 0, 44, 0
2, 2959, Note_on_c, 0, 52, 0
2, 2976, Note_on_c, 0, 32, 0
2, 3202, Control_c, 0, 64, 127
2, 3265, Note_on_c, 0, 64, 48
2, 3274, Note_on_c, 0, 66, 50
2, 3277, Note_on_c, 0, 61, 43
2, 3288, Note_on_c, 0, 54, 42
2, 3523, Note_on_c, 0, 64, 0
2, 3526, Note_on_c, 0, 61, 0
2, 3536, Note_on_c, 0, 66, 0
2, 3536, Note_on_c, 0, 54, 0
2, 3566, Note_on_c, 0, 64, 46
2, 3579, Note_on_c, 0, 54, 43
2, 3579, Note_on_c, 0, 61, 46
2, 3579, Note_on_c, 0, 66, 48
2, 3733, Note_on_c, 0, 66, 0
2, 3733, Note_on_c, 0, 64, 0
2, 3744, Note_on_c, 0, 61, 0
2, 3746, Note_on_c, 0, 54, 0
2, 3773, Note_on_c, 0, 64, 48
2, 3773, Note_on_c, 0, 66, 49
2, 3787, Note_on_c, 0, 54, 47
2, 3787, Note_on_c, 0, 61, 44
2, 3940, Note_on_c, 0, 66, 0
2, 3940, Note_on_c, 0, 64, 0
2, 3954, Note_on_c, 0, 61, 0
2, 3957, Note_on_c, 0, 54, 0
2, 3986, Note_on_c, 0, 64, 44
2, 3989, Note_on_c, 0, 66, 48
2, 4000, Note_on_c, 0, 54, 46
2, 4000, Note_on_c, 0, 61, 47
2, 4158, Note_on_c, 0, 66, 0
2, 4158, Note_on_c, 0, 64, 0
2, 4172, Note_on_c, 0, 61, 0
2, 4175, Note_on_c, 0, 54, 0
2, 4207, Note_on_c, 0, 64, 49
2, 4207, Note_on_c, 0, 66, 51
2, 4218, Note_on_c, 0, 54, 47
2, 4218, Note_on_c, 0, 61, 46
2, 4259, Control_c, 0, 64, 0
2, 4355, Note_on_c, 0, 64, 0
2, 4368, Note_on_c, 0, 66, 0
2, 4382, Note_on_c, 0, 54, 0
2, 4401, Note_on_c, 0, 64, 58
2, 4415, Note_on_c, 0, 66, 57
2, 4428, Note_on_c, 0, 61, 0
2, 4428, Note_on_c, 0, 54, 55
2, 4431, Note_on_c, 0, 34, 62
2, 4431, Note_on_c, 0, 46, 55
2, 4456, Note_on_c, 0, 45, 0
2, 4459, Note_on_c, 0, 33, 0
2, 4475, Note_on_c, 0, 61, 58
2, 4530, Control_c, 0, 64, 127
2, 4617, Note_on_c, 0, 64, 0
2, 4628, Note_on_c, 0, 66, 0
2, 4631, Note_on_c, 0, 54, 0
2, 4631, Note_on_c, 0, 61, 0
2, 4663, Note_on_c, 0, 64, 59
2, 4674, Note_on_c, 0, 66, 56
2, 4677, Note_on_c, 0, 54, 62
2, 4677, Note_on_c, 0, 61, 60
2, 4851, Note_on_c, 0, 64, 0
2, 4854, Note_on_c, 0, 54, 0
2, 4865, Note_on_c, 0, 66, 0
2, 4884, Control_c, 0, 64, 0
2, 4897, Note_on_c, 0, 64, 62
2, 4897, Note_on_c, 0, 54, 59
2, 4908, Note_on_c, 0, 66, 62
2, 4911, Note_on_c, 0, 47, 60
2, 4914, Note_on_c, 0, 35, 62
2, 4936, Note_on_c, 0, 59, 56
2, 4939, Note_on_c, 0, 46, 0
2, 4942, Note_on_c, 0, 34, 0
2, 4958, Note_on_c, 0, 61, 0
2, 5094, Note_on_c, 0, 64, 0
2, 5105, Note_on_c, 0, 59, 0
2, 5105, Note_on_c, 0, 66, 0
2, 5108, Note_on_c, 0, 54, 0
2, 5137, Note_on_c, 0, 64, 61
2, 5146, Control_c, 0, 64, 127
2, 5149, Note_on_c, 0, 66, 60
2, 5152, Note_on_c, 0, 54, 62
2, 5152, Note_on_c, 0, 59, 56
2, 5357, Note_on_c, 0, 54, 0
2, 5357, Note_on_c, 0, 66, 0
2, 5357, Note_on_c, 0, 64, 0
2, 5399, Note_on_c, 0, 64, 50
2, 5399, Note_on_c, 0, 66, 49
2, 5401, Note_on_c, 0, 54, 53
2, 5404, Note_on_c, 0, 58, 55
2, 5418, Note_on_c, 0, 37, 52
2, 5418, Note_on_c, 0, 49, 48
2, 5426, Note_on_c, 0, 59, 0
2, 5440, Note_on_c, 0, 35, 0
2, 5440, Note_on_c, 0, 47, 0
2, 5443, Control_c, 0, 64, 0
2, 5642, Note_on_c, 0, 64, 0
2, 5642, Note_on_c, 0, 66, 0
2, 5656, Note_on_c, 0, 58, 0
2, 5656, Note_on_c, 0, 54, 0
2, 5686, Note_on_c, 0, 64, 45
2, 5686, Note_on_c, 0, 66, 48
2, 5699, Note_on_c, 0, 54, 48
2, 5702, Note_on_c, 0, 58, 41
2, 5931, Note_on_c, 0, 66, 0
2, 5931, Note_on_c, 0, 64, 0
2, 5976, Note_on_c, 0, 59, 47
2, 5976, Note_on_c, 0, 64, 47
2, 5976, Note_on_c, 0, 66, 49
2, 5986, Note_on_c, 0, 47, 46
2, 5997, Note_on_c, 0, 58, 0
2, 6000, Note_on_c, 0, 35, 41
2, 6008, Note_on_c, 0, 57, 41
2, 6011, Note_on_c, 0, 49, 0
2, 6024, Note_on_c, 0, 37, 0
2, 6085, Control_c, 0, 64, 127
2, 6312, Note_on_c, 0, 57, 0
2, 6312, Note_on_c, 0, 64, 0
2, 6312, Note_on_c, 0, 66, 0
2, 6334, Note_on_c, 0, 59, 0
2, 6356, Note_on_c, 0, 64, 43
2, 6369, Note_on_c, 0, 66, 53
2, 6372, Note_on_c, 0, 57, 44
2, 6383, Note_on_c, 0, 59, 42
2, 6486, Control_c, 0, 64, 0
2, 6582, Note_on_c, 0, 35, 0
2, 6582, Note_on_c, 0, 47, 0
2, 6653, Note_on_c, 0, 35, 47
2, 6659, Note_on_c, 0, 57, 0
2, 6684, Note_on_c, 0, 47, 43
2, 6709, Note_on_c, 0, 57, 45
2, 6731, Note_on_c, 0, 59, 0
2, 6734, Note_on_c, 0, 54, 0
2, 6843, Note_on_c, 0, 59, 44
2, 6983, Note_on_c, 0, 63, 48
2, 7005, Note_on_c, 0, 64, 0
2, 7005, Note_on_c, 0, 66, 0
2, 7128, Control_c, 0, 64, 127
2, 7226, Note_on_c, 0, 69, 57
2, 7896, Note_on_c, 0, 63, 0
2, 7910, Note_on_c, 0, 59, 0
2, 7910, Note_on_c, 0, 57, 0
2, 7945, Note_on_c, 0, 63, 42
2, 7959, Note_on_c, 0, 57, 48
2, 7959, Note_on_c, 0, 59, 42
2, 8451, Control_c, 0, 64, 0
2, 8506, Note_on_c, 0, 40, 41
2, 8522, Note_on_c, 0, 59, 0
2, 8522, Note_on_c, 0, 63, 0
2, 8522, Note_on_c, 0, 69, 0
2, 8522, Note_on_c, 0, 57, 0
2, 8525, Note_on_c, 0, 47, 0
2, 8528, Note_on_c, 0, 35, 0
2, 8783, Control_c, 0, 64, 127
2, 8818, Note_on_c, 0, 64, 47
2, 8821, Note_on_c, 0, 56, 46
2, 8832, Note_on_c, 0, 59, 46
2, 9089, Note_on_c, 0, 64, 0
2, 9111, Note_on_c, 0, 59, 0
2, 9111, Note_on_c, 0, 56, 0
2, 9133, Note_on_c, 0, 64, 44
2, 9155, Note_on_c, 0, 56, 46
2, 9155, Note_on_c, 0, 59, 42
2, 9396, Note_on_c, 0, 64, 0
2, 9409, Note_on_c, 0, 56, 0
2, 9423, Note_on_c, 0, 59, 0
2, 9439, Note_on_c, 0, 64, 45
2, 9453, Note_on_c, 0, 56, 44
2, 9466, Note_on_c, 0, 59, 45
2, 9756, Note_on_c, 0, 64, 0
2, 9756, Note_on_c, 0, 80, 63
2, 9778, Note_on_c, 0, 59, 0
2, 9778, Note_on_c, 0, 56, 0
2, 9803, Note_on_c, 0, 64, 48
2, 9825, Note_on_c, 0, 56, 43
2, 9825, Note_on_c, 0, 59, 43
2, 10033, Note_on_c, 0, 64, 0
2, 10056, Note_on_c, 0, 59, 0
2, 10058, Note_on_c, 0, 56, 0
2, 10085, Note_on_c, 0, 64, 42
2, 10096, Note_on_c, 0, 59, 45
2, 10102, Note_on_c, 0, 56, 43
2, 10285, Note_on_c, 0, 76, 66
2, 10312, Note_on_c, 0, 64, 0
2, 10337, Note_on_c, 0, 56, 0
2, 10337, Note_on_c, 0, 59, 0
2, 10356, Note_on_c, 0, 64, 46
2, 10381, Note_on_c, 0, 56, 45
2, 10381, Note_on_c, 0, 59, 47
2, 10515, Note_on_c, 0, 64, 0
2, 10540, Note_on_c, 0, 59, 0
2, 10551, Note_on_c, 0, 56, 0
2, 10561, Note_on_c, 0, 64, 48
2, 10584, Note_on_c, 0, 59, 41
2, 10597, Note_on_c, 0, 56, 41
2, 10775, Control_c, 0, 64, 0
2, 10819, Note_on_c, 0, 40, 0
2, 10835, Note_on_c, 0, 71, 62
2, 10846, Control_c, 0, 64, 127
2, 10887, Note_on_c, 0, 40, 44
2, 11113, Note_on_c, 0, 64, 0
2, 11149, Note_on_c, 0, 59, 0
2, 11149, Note_on_c, 0, 56, 0
2, 11160, Note_on_c, 0, 64, 41
2, 11192, Note_on_c, 0, 56, 46
2, 11192, Note_on_c, 0, 59, 45
2, 11364, Note_on_c, 0, 64, 0
2, 11377, Note_on_c, 0, 59, 0
2, 11402, Note_on_c, 0, 56, 0
2, 11413, Note_on_c, 0, 64, 46
2, 11424, Note_on_c, 0, 71, 0
2, 11434, Note_on_c, 0, 59, 44
2, 11448, Note_on_c, 0, 71, 72
2, 11458, Note_on_c, 0, 56, 46
2, 11554, Note_on_c, 0, 59, 0
2, 11565, Note_on_c, 0, 64, 0
2, 11578, Note_on_c, 0, 56, 0
2, 11589, Note_on_c, 0, 71, 0
2, 11599, Note_on_c, 0, 59, 44
2, 11610, Note_on_c, 0, 64, 44
2, 11623, Note_on_c, 0, 56, 43
2, 11659, Note_on_c, 0, 71, 72
2, 11864, Note_on_c, 0, 64, 0
2, 11908, Note_on_c, 0, 64, 46
2, 11908, Note_on_c, 0, 73, 68
2, 11922, Note_on_c, 0, 58, 46
2, 11922, Note_on_c, 0, 61, 43
2, 11930, Note_on_c, 0, 76, 0
2, 11930, Note_on_c, 0, 80, 0
2, 11933, Note_on_c, 0, 71, 0
2, 11933, Note_on_c, 0, 52, 48
2, 11933, Note_on_c, 0, 55, 41
2, 11939, Control_c, 0, 64, 0
2, 11945, Note_on_c, 0, 59, 0
2, 11958, Note_on_c, 0, 56, 0
2, 12093, Note_on_c, 0, 58, 0
2, 12093, Note_on_c, 0, 64, 0
2, 12106, Note_on_c, 0, 61, 0
2, 12117, Note_on_c, 0, 55, 0
2, 12117, Note_on_c, 0, 52, 0
2, 12136, Note_on_c, 0, 64, 44
2, 12139, Note_on_c, 0, 73, 0
2, 12139, Note_on_c, 0, 58, 48
2, 12152, Note_on_c, 0, 61, 44
2, 12161, Note_on_c, 0, 75, 68
2, 12167, Note_on_c, 0, 52, 43
2, 12167, Note_on_c, 0, 55, 45
2, 12230, Control_c, 0, 64, 127
2, 12249, Control_c, 0, 67, 0
2, 12279, Note_on_c, 0, 73, 60
2, 12298, Control_c, 0, 67, 127
2, 12312, Note_on_c, 0, 73, 0
2, 12336, Note_on_c, 0, 72, 66
2, 12361, Note_on_c, 0, 75, 0
2, 12384, Note_on_c, 0, 73, 66
2, 12394, Note_on_c, 0, 72, 0
2, 12394, Note_on_c, 0, 58, 0
2, 12394, Note_on_c, 0, 64, 0
2, 12408, Note_on_c, 0, 52, 0
2, 12408, Note_on_c, 0, 61, 0
2, 12408, Note_on_c, 0, 55, 0
2, 12440, Note_on_c, 0, 64, 44
2, 12443, Note_on_c, 0, 58, 42
2, 12443, Note_on_c, 0, 75, 66
2, 12456, Note_on_c, 0, 52, 43
2, 12456, Note_on_c, 0, 55, 47
2, 12456, Note_on_c, 0, 61, 41
2, 12465, Note_on_c, 0, 73, 0
2, 12479, Note_on_c, 0, 40, 0
2, 12481, Control_c, 0, 64, 0
2, 12675, Note_on_c, 0, 64, 0
2, 12678, Note_on_c, 0, 58, 0
2, 12678, Note_on_c, 0, 61, 0
2, 12689, Note_on_c, 0, 55, 0
2, 12702, Note_on_c, 0, 52, 0
2, 12721, Note_on_c, 0, 61, 48
2, 12721, Note_on_c, 0, 64, 48
2, 12724, Note_on_c, 0, 58, 44
2, 12738, Note_on_c, 0, 55, 41
2, 12746, Note_on_c, 0, 52, 48
2, 12760, Note_on_c, 0, 76, 71
2, 12785, Note_on_c, 0, 75, 0
2, 12788, Control_c, 0, 64, 127
2, 13001, Note_on_c, 0, 76, 0
2, 13069, Note_on_c, 0, 76, 65
2, 13085, Note_on_c, 0, 40, 42
2, 13088, Control_c, 0, 64, 0
2, 13104, Note_on_c, 0, 61, 0
2, 13107, Note_on_c, 0, 58, 0
2, 13110, Note_on_c, 0, 55, 0
2, 13345, Control_c, 0, 64, 127
2, 13375, Note_on_c, 0, 64, 0
2, 13375, Note_on_c, 0, 52, 0
2, 13408, Note_on_c, 0, 59, 46
2, 13421, Note_on_c, 0, 52, 47
2, 13421, Note_on_c, 0, 64, 44
2, 13432, Note_on_c, 0, 56, 42
2, 13645, Note_on_c, 0, 64, 0
2, 13678, Note_on_c, 0, 59, 0
2, 13678, Note_on_c, 0, 56, 0
2, 13686, Note_on_c, 0, 64, 47
2, 13692, Note_on_c, 0, 52, 0
2, 13714, Note_on_c, 0, 71, 56
2, 13725, Note_on_c, 0, 56, 42
2, 13725, Note_on_c, 0, 59, 48
2, 13733, Note_on_c, 0, 52, 45
2, 13914, Note_on_c, 0, 59, 0
2, 13914, Note_on_c, 0, 64, 0
2, 13917, Control_c, 0, 67, 0
2, 13925, Note_on_c, 0, 56, 0
2, 13936, Note_on_c, 0, 52, 0
2, 13952, Note_on_c, 0, 64, 48
2, 13955, Note_on_c, 0, 59, 45
2, 13966, Note_on_c, 0, 56, 43
2, 13979, Note_on_c, 0, 52, 47
2, 13995, Control_c, 0, 64, 0
2, 14170, Note_on_c, 0, 44, 55
2, 14173, Note_on_c, 0, 32, 55
2, 14192, Note_on_c, 0, 76, 0
2, 14192, Note_on_c, 0, 71, 0
2, 14195, Note_on_c, 0, 40, 0
2, 14272, Control_c, 0, 64, 127
2, 14346, Note_on_c, 0, 64, 0
2, 14354, Note_on_c, 0, 83, 71
2, 14363, Note_on_c, 0, 52, 0
2, 14372, Note_on_c, 0, 59, 0
2, 14372, Note_on_c, 0, 56, 0
2, 14394, Note_on_c, 0, 64, 47
2, 14407, Note_on_c, 0, 52, 46
2, 14418, Note_on_c, 0, 56, 44
2, 14418, Note_on_c, 0, 59, 41
2, 14533, Control_c, 0, 64, 0
2, 14563, Note_on_c, 0, 59, 0
2, 14563, Note_on_c, 0, 64, 0
2, 14563, Note_on_c, 0, 56, 0
2, 14579, Note_on_c, 0, 52, 0
2, 14612, Note_on_c, 0, 56, 47
2, 14612, Note_on_c, 0, 59, 42
2, 14612, Note_on_c, 0, 64, 45
2, 14625, Note_on_c, 0, 52, 48
2, 14680, Note_on_c, 0, 81, 66
2, 14705, Note_on_c, 0, 83, 0
2, 14751, Note_on_c, 0, 64, 0
2, 14764, Note_on_c, 0, 59, 0
2, 14764, Note_on_c, 0, 56, 0
2, 14778, Note_on_c, 0, 52, 0
2, 14800, Note_on_c, 0, 64, 48
2, 14806, Control_c, 0, 64, 127
2, 14814, Note_on_c, 0, 56, 45
2, 14814, Note_on_c, 0, 59, 42
2, 14825, Note_on_c, 0, 52, 47
2, 14835, Note_on_c, 0, 80, 65
2, 14857, Note_on_c, 0, 81, 0
2, 15000, Note_on_c, 0, 78, 72
2, 15000, Note_on_c, 0, 45, 55
2, 15002, Note_on_c, 0, 33, 57
2, 15016, Control_c, 0, 64, 0
2, 15022, Note_on_c, 0, 80, 0
2, 15022, Note_on_c, 0, 56, 0
2, 15022, Note_on_c, 0, 59, 0
2, 15024, Note_on_c, 0, 44, 0
2, 15027, Note_on_c, 0, 32, 0
2, 15186, Note_on_c, 0, 64, 0
2, 15221, Note_on_c, 0, 76, 72
2, 15232, Note_on_c, 0, 64, 41
2, 15242, Note_on_c, 0, 78, 0
2, 15245, Note_on_c, 0, 54, 48
2, 15245, Note_on_c, 0, 61, 42
2, 15262, Control_c, 0, 64, 127
2, 15270, Note_on_c, 0, 52, 0
2, 15347, Note_on_c, 0, 64, 0
2, 15372, Note_on_c, 0, 61, 0
2, 15375, Note_on_c, 0, 54, 0
2, 15391, Note_on_c, 0, 64, 47
2, 15416, Note_on_c, 0, 61, 47
2, 15419, Note_on_c, 0, 54, 44
2, 15449, Note_on_c, 0, 75, 66
2, 15476, Note_on_c, 0, 76, 0
2, 15601, Note_on_c, 0, 78, 68
2, 15670, Note_on_c, 0, 64, 0
2, 15683, Note_on_c, 0, 61, 0
2, 15686, Note_on_c, 0, 54, 0
2, 15702, Note_on_c, 0, 64, 42
2, 15716, Note_on_c, 0, 54, 46
2, 15729, Note_on_c, 0, 61, 45
2, 15745, Note_on_c, 0, 76, 66
2, 15772, Note_on_c, 0, 75, 0
2, 15772, Note_on_c, 0, 78, 0
2, 15852, Note_on_c, 0, 61, 0
2, 15877, Note_on_c, 0, 61, 50
2, 15877, Note_on_c, 0, 73, 67
2, 15992, Note_on_c, 0, 71, 71
2, 16017, Note_on_c, 0, 73, 0
2, 16017, Note_on_c, 0, 76, 0
2, 16028, Note_on_c, 0, 35, 48
2, 16028, Note_on_c, 0, 47, 47
2, 16031, Control_c, 0, 64, 0
2, 16050, Note_on_c, 0, 61, 0
2, 16050, Note_on_c, 0, 54, 0
2, 16053, Note_on_c, 0, 45, 0
2, 16066, Note_on_c, 0, 33, 0
2, 16257, Note_on_c, 0, 64, 0
2, 16298, Control_c, 0, 64, 127
2, 16304, Note_on_c, 0, 59, 47
2, 16304, Note_on_c, 0, 64, 45
2, 16318, Note_on_c, 0, 56, 46
2, 16476, Note_on_c, 0, 72, 66
2, 16503, Note_on_c, 0, 71, 0
2, 16678, Note_on_c, 0, 73, 65
2, 16680, Note_on_c, 0, 59, 0
2, 16705, Note_on_c, 0, 72, 0
2, 16716, Note_on_c, 0, 63, 47
2, 16727, Note_on_c, 0, 54, 43
2, 16727, Note_on_c, 0, 59, 44
2, 16732, Control_c, 0, 64, 0
2, 16738, Note_on_c, 0, 64, 0
2, 16741, Note_on_c, 0, 69, 47
2, 16752, Note_on_c, 0, 56, 0
2, 16803, Control_c, 0, 67, 127
2, 17016, Control_c, 0, 64, 127
2, 17046, Note_on_c, 0, 59, 0
2, 17049, Note_on_c, 0, 54, 0
2, 17058, Note_on_c, 0, 63, 0
2, 17093, Note_on_c, 0, 54, 45
2, 17093, Note_on_c, 0, 59, 43
2, 17102, Note_on_c, 0, 63, 45
2, 17299, Note_on_c, 0, 69, 0
2, 17362, Note_on_c, 0, 69, 51
2, 17376, Note_on_c, 0, 66, 47
2, 17657, Note_on_c, 0, 64, 45
2, 17673, Note_on_c, 0, 63, 0
2, 17673, Note_on_c, 0, 68, 54
2, 17679, Control_c, 0, 64, 0
2, 17685, Note_on_c, 0, 66, 0
2, 17685, Note_on_c, 0, 69, 0
2, 17685, Note_on_c, 0, 73, 0
2, 17688, Note_on_c, 0, 40, 44
2, 17710, Note_on_c, 0, 54, 0
2, 17712, Note_on_c, 0, 47, 0
2, 17712, Note_on_c, 0, 35, 0
2, 17961, Control_c, 0, 64, 127
2, 17983, Note_on_c, 0, 64, 0
2, 17994, Note_on_c, 0, 59, 0
2, 18024, Note_on_c, 0, 64, 41
2, 18029, Note_on_c, 0, 56, 43
2, 18038, Note_on_c, 0, 59, 46
2, 18218, Note_on_c, 0, 64, 0
2, 18243, Note_on_c, 0, 56, 0
2, 18243, Note_on_c, 0, 59, 0
2, 18265, Note_on_c, 0, 64, 44
2, 18290, Note_on_c, 0, 56, 45
2, 18290, Note_on_c, 0, 59, 43
2, 18441, Control_c, 0, 67, 0
2, 18466, Note_on_c, 0, 56, 0
2, 18466, Note_on_c, 0, 64, 0
2, 18480, Note_on_c, 0, 59, 0
2, 18515, Note_on_c, 0, 64, 44
2, 18515, Note_on_c, 0, 56, 44
2, 18526, Note_on_c, 0, 59, 47
2, 18712, Note_on_c, 0, 64, 0
2, 18722, Note_on_c, 0, 59, 0
2, 18733, Note_on_c, 0, 80, 64
2, 18736, Note_on_c, 0, 56, 0
2, 18755, Note_on_c, 0, 64, 48
2, 18766, Note_on_c, 0, 59, 46
2, 18779, Note_on_c, 0, 56, 45
2, 18918, Note_on_c, 0, 56, 0
2, 18918, Note_on_c, 0, 59, 0
2, 18954, Note_on_c, 0, 56, 46
2, 18954, Note_on_c, 0, 59, 44
2, 19104, Note_on_c, 0, 64, 0
2, 19118, Note_on_c, 0, 56, 0
2, 19118, Note_on_c, 0, 59, 0
2, 19148, Note_on_c, 0, 64, 48
2, 19148, Note_on_c, 0, 76, 61
2, 19164, Note_on_c, 0, 56, 43
2, 19164, Note_on_c, 0, 59, 41
2, 19276, Note_on_c, 0, 64, 0
2, 19290, Note_on_c, 0, 59, 0
2, 19303, Note_on_c, 0, 56, 0
2, 19322, Note_on_c, 0, 64, 45
2, 19336, Note_on_c, 0, 59, 45
2, 19349, Note_on_c, 0, 56, 43
2, 19467, Note_on_c, 0, 40, 0
2, 19509, Note_on_c, 0, 71, 65
2, 19534, Note_on_c, 0, 52, 47
2, 19536, Note_on_c, 0, 40, 41
2, 19676, Note_on_c, 0, 64, 0
2, 19676, Note_on_c, 0, 59, 0
2, 19689, Note_on_c, 0, 56, 0
2, 19719, Note_on_c, 0, 64, 44
2, 19722, Note_on_c, 0, 59, 46
2, 19735, Note_on_c, 0, 56, 44
2, 19848, Note_on_c, 0, 59, 0
2, 19848, Note_on_c, 0, 64, 0
2, 19858, Note_on_c, 0, 56, 0
2, 19888, Note_on_c, 0, 64, 45
2, 19891, Note_on_c, 0, 59, 45
2, 19904, Note_on_c, 0, 56, 45
2, 19959, Note_on_c, 0, 64, 0
2, 19972, Note_on_c, 0, 56, 0
2, 19983, Note_on_c, 0, 59, 0
2, 20005, Note_on_c, 0, 64, 41
2, 20018, Note_on_c, 0, 68, 0
2, 20018, Note_on_c, 0, 56, 42
2, 20027, Note_on_c, 0, 59, 45
2, 20076, Note_on_c, 0, 68, 69
2, 20134, Note_on_c, 0, 64, 0
2, 20144, Note_on_c, 0, 56, 0
2, 20158, Note_on_c, 0, 59, 0
2, 20180, Note_on_c, 0, 71, 0
2, 20180, Note_on_c, 0, 64, 41
2, 20193, Note_on_c, 0, 56, 45
2, 20204, Note_on_c, 0, 59, 45
2, 20264, Note_on_c, 0, 71, 69
2, 20286, Note_on_c, 0, 76, 0
2, 20366, Note_on_c, 0, 76, 72
2, 20379, Note_on_c, 0, 59, 0
2, 20379, Note_on_c, 0, 80, 0
2, 20390, Note_on_c, 0, 64, 0
2, 20400, Note_on_c, 0, 56, 0
2, 20423, Note_on_c, 0, 59, 42
2, 20433, Note_on_c, 0, 64, 41
2, 20433, Note_on_c, 0, 80, 66
2, 20444, Note_on_c, 0, 56, 47
2, 20543, Note_on_c, 0, 83, 72
2, 20655, Note_on_c, 0, 92, 73
2, 20682, Note_on_c, 0, 44, 58
2, 20685, Note_on_c, 0, 32, 60
2, 20701, Note_on_c, 0, 83, 0
2, 20704, Note_on_c, 0, 80, 0
2, 20704, Note_on_c, 0, 52, 0
2, 20704, Note_on_c, 0, 64, 0
2, 20704, Note_on_c, 0, 59, 0
2, 20704, Note_on_c, 0, 71, 0
2, 20704, Note_on_c, 0, 76, 0
2, 20707, Note_on_c, 0, 40, 0
2, 20707, Control_c, 0, 64, 0
2, 20909, Note_on_c, 0, 56, 0
2, 20945, Note_on_c, 0, 63, 48
2, 20955, Note_on_c, 0, 56, 50
2, 20955, Note_on_c, 0, 60, 43
2, 20961, Control_c, 0, 64, 127
2, 21103, Note_on_c, 0, 90, 74
2, 21130, Note_on_c, 0, 92, 0
2, 21210, Note_on_c, 0, 90, 0
2, 21275, Note_on_c, 0, 90, 71
2, 21294, Note_on_c, 0, 37, 49
2, 21308, Control_c, 0, 64, 0
2, 21318, Note_on_c, 0, 32, 0
2, 21329, Note_on_c, 0, 49, 43
2, 21339, Note_on_c, 0, 68, 0
2, 21353, Note_on_c, 0, 44, 0
2, 21536, Note_on_c, 0, 63, 0
2, 21536, Note_on_c, 0, 60, 0
2, 21545, Note_on_c, 0, 56, 0
2, 21580, Note_on_c, 0, 60, 44
2, 21580, Note_on_c, 0, 63, 43
2, 21589, Note_on_c, 0, 56, 41
2, 21608, Control_c, 0, 64, 127
2, 21863, Control_c, 0, 64, 0
2, 21873, Note_on_c, 0, 56, 0
2, 21892, Note_on_c, 0, 88, 57
2, 21906, Note_on_c, 0, 64, 47
2, 21916, Note_on_c, 0, 90, 0
2, 21919, Note_on_c, 0, 56, 46
2, 21919, Note_on_c, 0, 61, 47
2, 21930, Note_on_c, 0, 63, 0
2, 21938, Note_on_c, 0, 60, 0
2, 22110, Control_c, 0, 64, 127
2, 22162, Note_on_c, 0, 64, 0
2, 22176, Note_on_c, 0, 61, 0
2, 22186, Note_on_c, 0, 56, 0
2, 22208, Note_on_c, 0, 64, 42
2, 22217, Note_on_c, 0, 61, 47
2, 22230, Note_on_c, 0, 56, 41
2, 22315, Control_c, 0, 64, 0
2, 22367, Note_on_c, 0, 61, 0
2, 22392, Note_on_c, 0, 56, 0
2, 22416, Note_on_c, 0, 52, 47
2, 22430, Note_on_c, 0, 61, 42
2, 22440, Note_on_c, 0, 49, 0
2, 22440, Note_on_c, 0, 37, 0
2, 22449, Note_on_c, 0, 56, 48
2, 22449, Note_on_c, 0, 59, 43
2, 22517, Note_on_c, 0, 88, 0
2, 22531, Note_on_c, 0, 72, 70
2, 22558, Note_on_c, 0, 61, 0
2, 22568, Note_on_c, 0, 52, 0
2, 22579, Note_on_c, 0, 56, 0
2, 22579, Note_on_c, 0, 59, 0
2, 22592, Control_c, 0, 64, 127
2, 22601, Note_on_c, 0, 61, 47
2, 22614, Note_on_c, 0, 52, 46
2, 22639, Note_on_c, 0, 56, 48
2, 22639, Note_on_c, 0, 59, 42
2, 22669, Note_on_c, 0, 73, 67
2, 22696, Note_on_c, 0, 72, 0
2, 22742, Note_on_c, 0, 79, 67
2, 22767, Note_on_c, 0, 61, 0
2, 22780, Note_on_c, 0, 52, 0
2, 22791, Note_on_c, 0, 56, 0
2, 22791, Note_on_c, 0, 59, 0
2, 22824, Note_on_c, 0, 52, 41
2, 22824, Note_on_c, 0, 61, 46
2, 22834, Note_on_c, 0, 82, 71
2, 22837, Note_on_c, 0, 56, 46
2, 22837, Note_on_c, 0, 59, 44
2, 22886, Control_c, 0, 64, 0
2, 22924, Note_on_c, 0, 80, 66
2, 22949, Note_on_c, 0, 79, 0
2, 22952, Note_on_c, 0, 64, 0
2, 22977, Note_on_c, 0, 59, 0
2, 22977, Note_on_c, 0, 52, 0
2, 22977, Note_on_c, 0, 61, 0
2, 22977, Note_on_c, 0, 56, 0
2, 23021, Note_on_c, 0, 52, 46
2, 23021, Note_on_c, 0, 56, 41
2, 23021, Note_on_c, 0, 59, 46
2, 23021, Note_on_c, 0, 61, 48
2, 23021, Note_on_c, 0, 76, 67
2, 23040, Note_on_c, 0, 73, 0
2, 23070, Control_c, 0, 64, 127
2, 23106, Note_on_c, 0, 73, 68
2, 23215, Note_on_c, 0, 87, 65
2, 23221, Control_c, 0, 64, 0
2, 23232, Note_on_c, 0, 42, 49
2, 23240, Note_on_c, 0, 73, 0
2, 23240, Note_on_c, 0, 76, 0
2, 23240, Note_on_c, 0, 82, 0
2, 23243, Note_on_c, 0, 80, 0
2, 23254, Note_on_c, 0, 56, 0
2, 23254, Note_on_c, 0, 61, 0
2, 23256, Note_on_c, 0, 52, 0
2, 23391, Note_on_c, 0, 82, 59
2, 23454, Note_on_c, 0, 59, 0
2, 23498, Note_on_c, 0, 59, 43
2, 23498, Note_on_c, 0, 63, 45
2, 23507, Note_on_c, 0, 83, 61
2, 23510, Note_on_c, 0, 54, 47
2, 23520, Note_on_c, 0, 87, 0
2, 23520, Note_on_c, 0, 82, 0
2, 23565, Control_c, 0, 64, 127
2, 23592, Note_on_c, 0, 77, 60
2, 23652, Note_on_c, 0, 63, 0
2, 23665, Note_on_c, 0, 59, 0
2, 23665, Note_on_c, 0, 54, 0
2, 23701, Note_on_c, 0, 63, 44
2, 23701, Note_on_c, 0, 80, 63
2, 23712, Note_on_c, 0, 59, 41
2, 23714, Note_on_c, 0, 54, 43
2, 23802, Note_on_c, 0, 78, 60
2, 23827, Note_on_c, 0, 80, 0
2, 23827, Note_on_c, 0, 77, 0
2, 23827, Note_on_c, 0, 83, 0
2, 23849, Note_on_c, 0, 63, 0
2, 23849, Note_on_c, 0, 59, 0
2, 23862, Note_on_c, 0, 54, 0
2, 23892, Note_on_c, 0, 83, 63
2, 23895, Note_on_c, 0, 59, 42
2, 23895, Note_on_c, 0, 63, 48
2, 23917, Note_on_c, 0, 54, 43
2, 24032, Note_on_c, 0, 75, 69
2, 24084, Note_on_c, 0, 78, 0
2, 24111, Note_on_c, 0, 42, 0
2, 24152, Note_on_c, 0, 78, 70
2, 24177, Note_on_c, 0, 83, 0
2, 24177, Note_on_c, 0, 75, 0
2, 24180, Control_c, 0, 64, 0
2, 24180, Note_on_c, 0, 42, 43
2, 24202, Note_on_c, 0, 63, 0
2, 24202, Note_on_c, 0, 59, 0
2, 24334, Note_on_c, 0, 77, 63
2, 24359, Note_on_c, 0, 78, 0
2, 24465, Note_on_c, 0, 54, 0
2, 24509, Note_on_c, 0, 64, 43
2, 24509, Note_on_c, 0, 76, 66
2, 24512, Note_on_c, 0, 54, 45
2, 24523, Note_on_c, 0, 58, 45
2, 24523, Note_on_c, 0, 61, 44
2, 24533, Note_on_c, 0, 77, 0
2, 24560, Control_c, 0, 64, 127
2, 24645, Note_on_c, 0, 73, 56
2, 24748, Note_on_c, 0, 64, 0
2, 24762, Note_on_c, 0, 61, 0
2, 24762, Note_on_c, 0, 58, 0
2, 24765, Note_on_c, 0, 54, 0
2, 24765, Control_c, 0, 64, 0
2, 24794, Note_on_c, 0, 64, 44
2, 24794, Note_on_c, 0, 70, 53
2, 24808, Note_on_c, 0, 54, 45
2, 24808, Note_on_c, 0, 58, 46
2, 24808, Note_on_c, 0, 61, 44
2, 24818, Note_on_c, 0, 76, 0
2, 24818, Note_on_c, 0, 73, 0
2, 24887, Control_c, 0, 67, 127
2, 24974, Note_on_c, 0, 67, 58
2, 25083, Control_c, 0, 64, 127
2, 25105, Note_on_c, 0, 66, 42
2, 25125, Note_on_c, 0, 67, 0
2, 25128, Note_on_c, 0, 54, 0
2, 25138, Note_on_c, 0, 58, 0
2, 25149, Note_on_c, 0, 61, 0
2, 25171, Note_on_c, 0, 54, 46
2, 25184, Note_on_c, 0, 58, 47
2, 25195, Note_on_c, 0, 61, 47
2, 25249, Note_on_c, 0, 70, 0
2, 25291, Control_c, 0, 64, 0
2, 25307, Note_on_c, 0, 76, 56
2, 25564, Control_c, 0, 64, 127
2, 25622, Note_on_c, 0, 64, 0
2, 25666, Note_on_c, 0, 70, 53
2, 25691, Note_on_c, 0, 64, 44
2, 25968, Control_c, 0, 67, 0
2, 25981, Note_on_c, 0, 71, 50
2, 25994, Note_on_c, 0, 63, 43
2, 25997, Control_c, 0, 64, 0
2, 26006, Note_on_c, 0, 70, 0
2, 26006, Note_on_c, 0, 76, 0
2, 26016, Note_on_c, 0, 64, 0
2, 26016, Note_on_c, 0, 66, 0
2, 26019, Note_on_c, 0, 47, 46
2, 26041, Note_on_c, 0, 61, 0
2, 26044, Note_on_c, 0, 42, 0
2, 26044, Note_on_c, 0, 54, 0
2, 26044, Note_on_c, 0, 58, 0
2, 26235, Control_c, 0, 64, 127
2, 26383, Note_on_c, 0, 63, 0
2, 26413, Note_on_c, 0, 66, 54
2, 26416, Note_on_c, 0, 59, 43
2, 26426, Note_on_c, 0, 63, 46
2, 26585, Note_on_c, 0, 63, 0
2, 26585, Note_on_c, 0, 66, 0
2, 26585, Note_on_c, 0, 59, 0
2, 26629, Note_on_c, 0, 59, 43
2, 26629, Note_on_c, 0, 63, 43
2, 26629, Note_on_c, 0, 66, 51
2, 26744, Note_on_c, 0, 71, 0
2, 26755, Note_on_c, 0, 66, 0
2, 26755, Note_on_c, 0, 59, 0
2, 26758, Note_on_c, 0, 63, 0
2, 26799, Note_on_c, 0, 59, 46
2, 26799, Note_on_c, 0, 63, 42
2, 26799, Note_on_c, 0, 66, 54
2, 26809, Note_on_c, 0, 71, 55
2, 26834, Note_on_c, 0, 71, 0
2, 26867, Note_on_c, 0, 71, 57
2, 26905, Note_on_c, 0, 59, 0
2, 26941, Control_c, 0, 64, 0
2, 26947, Note_on_c, 0, 59, 51
2, 26947, Note_on_c, 0, 64, 55
2, 26955, Note_on_c, 0, 67, 68
2, 26955, Note_on_c, 0, 74, 65
2, 26972, Note_on_c, 0, 63, 0
2, 26982, Note_on_c, 0, 71, 0
2, 26982, Note_on_c, 0, 66, 0
2, 27001, Note_on_c, 0, 72, 56
2, 27026, Note_on_c, 0, 64, 0
2, 27037, Note_on_c, 0, 74, 0
2, 27037, Note_on_c, 0, 67, 0
2, 27050, Note_on_c, 0, 59, 0
2, 27075, Note_on_c, 0, 64, 50
2, 27086, Note_on_c, 0, 67, 56
2, 27096, Note_on_c, 0, 72, 0
2, 27099, Note_on_c, 0, 59, 47
2, 27124, Note_on_c, 0, 47, 0
2, 27157, Note_on_c, 0, 72, 60
2, 27182, Note_on_c, 0, 59, 0
2, 27223, Note_on_c, 0, 76, 56
2, 27226, Note_on_c, 0, 66, 59
2, 27229, Note_on_c, 0, 59, 56
2, 27229, Note_on_c, 0, 69, 58
2, 27251, Note_on_c, 0, 67, 0
2, 27251, Note_on_c, 0, 72, 0
2, 27251, Note_on_c, 0, 64, 0
2, 27270, Control_c, 0, 64, 127
2, 27273, Note_on_c, 0, 75, 59
2, 27298, Note_on_c, 0, 66, 0
2, 27298, Note_on_c, 0, 69, 0
2, 27298, Note_on_c, 0, 76, 0
2, 27298, Note_on_c, 0, 59, 0
2, 27317, Note_on_c, 0, 75, 0
2, 27339, Note_on_c, 0, 66, 63
2, 27339, Note_on_c, 0, 69, 63
2, 27342, Note_on_c, 0, 59, 50
2, 27386, Note_on_c, 0, 75, 59
2, 27411, Note_on_c, 0, 59, 0
2, 27431, Control_c, 0, 64, 0
2, 27447, Note_on_c, 0, 71, 64
2, 27453, Note_on_c, 0, 78, 62
2, 27456, Note_on_c, 0, 67, 60
2, 27458, Note_on_c, 0, 59, 59
2, 27469, Note_on_c, 0, 69, 0
2, 27478, Note_on_c, 0, 75, 0
2, 27480, Note_on_c, 0, 66, 0
2, 27510, Note_on_c, 0, 76, 59
2, 27513, Note_on_c, 0, 71, 0
2, 27527, Note_on_c, 0, 59, 0
2, 27527, Note_on_c, 0, 67, 0
2, 27535, Note_on_c, 0, 78, 0
2, 27562, Note_on_c, 0, 64, 50
2, 27562, Note_on_c, 0, 71, 55
2, 27573, Note_on_c, 0, 67, 60
2, 27573, Note_on_c, 0, 59, 47
2, 27595, Note_on_c, 0, 76, 0
2, 27663, Note_on_c, 0, 76, 73
2, 27696, Note_on_c, 0, 64, 0
2, 27696, Note_on_c, 0, 71, 0
2, 27709, Note_on_c, 0, 67, 0
2, 27709, Note_on_c, 0, 59, 0
2, 27739, Control_c, 0, 64, 127
2, 27742, Note_on_c, 0, 64, 50
2, 27742, Note_on_c, 0, 71, 80
2, 27752, Note_on_c, 0, 67, 80
2, 27752, Note_on_c, 0, 79, 79
2, 27755, Note_on_c, 0, 59, 52
2, 27854, Note_on_c, 0, 64, 0
2, 27857, Note_on_c, 0, 67, 0
2, 27857, Note_on_c, 0, 71, 0
2, 27870, Note_on_c, 0, 59, 0
2, 27897, Note_on_c, 0, 64, 55
2, 27897, Note_on_c, 0, 67, 55
2, 27897, Note_on_c, 0, 71, 49
2, 27911, Note_on_c, 0, 59, 54
2, 27984, Control_c, 0, 64, 0
2, 28075, Note_on_c, 0, 48, 68
2, 28078, Note_on_c, 0, 36, 65
2, 28138, Note_on_c, 0, 76, 0
2, 28206, Note_on_c, 0, 76, 83
2, 28206, Note_on_c, 0, 88, 83
2, 28231, Note_on_c, 0, 71, 0
2, 28231, Note_on_c, 0, 59, 0
2, 28240, Note_on_c, 0, 67, 0
2, 28240, Note_on_c, 0, 64, 0
2, 28250, Control_c, 0, 64, 127
2, 28289, Note_on_c, 0, 64, 55
2, 28289, Note_on_c, 0, 67, 50
2, 28292, Note_on_c, 0, 55, 55
2, 28302, Note_on_c, 0, 60, 55
2, 28332, Note_on_c, 0, 86, 86
2, 28345, Note_on_c, 0, 74, 83
2, 28394, Note_on_c, 0, 60, 0
2, 28394, Note_on_c, 0, 67, 0
2, 28394, Note_on_c, 0, 64, 0
2, 28397, Note_on_c, 0, 55, 0
2, 28439, Note_on_c, 0, 67, 53
2, 28441, Note_on_c, 0, 60, 50
2, 28441, Note_on_c, 0, 64, 51
2, 28444, Note_on_c, 0, 55, 52
2, 28508, Control_c, 0, 64, 0
2, 28508, Note_on_c, 0, 72, 86
2, 28508, Note_on_c, 0, 84, 83
2, 28533, Note_on_c, 0, 64, 0
2, 28536, Note_on_c, 0, 67, 0
2, 28546, Note_on_c, 0, 60, 0
2, 28549, Note_on_c, 0, 55, 0
2, 28579, Note_on_c, 0, 64, 52
2, 28579, Note_on_c, 0, 67, 52
2, 28592, Note_on_c, 0, 60, 56
2, 28595, Note_on_c, 0, 55, 51
2, 28658, Note_on_c, 0, 83, 79
2, 28664, Note_on_c, 0, 71, 82
2, 28683, Note_on_c, 0, 84, 0
2, 28686, Note_on_c, 0, 72, 0
2, 28768, Note_on_c, 0, 53, 62
2, 28771, Note_on_c, 0, 41, 61
2, 28787, Note_on_c, 0, 88, 0
2, 28790, Note_on_c, 0, 76, 0
2, 28790, Note_on_c, 0, 86, 0
2, 28790, Note_on_c, 0, 79, 0
2, 28790, Note_on_c, 0, 67, 0
2, 28790, Note_on_c, 0, 74, 0
2, 28793, Note_on_c, 0, 64, 0
2, 28796, Note_on_c, 0, 55, 0
2, 28796, Note_on_c, 0, 48, 0
2, 28799, Note_on_c, 0, 36, 0
2, 28815, Control_c, 0, 64, 127
2, 28864, Note_on_c, 0, 80, 66
2, 28935, Note_on_c, 0, 83, 0
2, 28954, Note_on_c, 0, 53, 0
2, 28965, Note_on_c, 0, 60, 0
2, 29000, Note_on_c, 0, 53, 48
2, 29009, Note_on_c, 0, 83, 65
2, 29012, Note_on_c, 0, 60, 52
2, 29015, Note_on_c, 0, 57, 53
2, 29015, Note_on_c, 0, 62, 51
2, 29031, Control_c, 0, 64, 0
2, 29124, Note_on_c, 0, 81, 71
2, 29149, Note_on_c, 0, 80, 0
2, 29201, Note_on_c, 0, 53, 0
2, 29209, Note_on_c, 0, 62, 0
2, 29209, Note_on_c, 0, 60, 0
2, 29212, Note_on_c, 0, 57, 0
2, 29232, Note_on_c, 0, 77, 67
2, 29248, Note_on_c, 0, 53, 52
2, 29256, Note_on_c, 0, 83, 0
2, 29259, Note_on_c, 0, 71, 0
2, 29259, Note_on_c, 0, 60, 50
2, 29259, Note_on_c, 0, 62, 48
2, 29262, Note_on_c, 0, 57, 48
2, 29342, Control_c, 0, 64, 127
2, 29355, Note_on_c, 0, 74, 68
2, 29416, Note_on_c, 0, 57, 0
2, 29416, Note_on_c, 0, 53, 0
2, 29416, Note_on_c, 0, 60, 0
2, 29416, Note_on_c, 0, 62, 0
2, 29448, Note_on_c, 0, 69, 67
2, 29462, Note_on_c, 0, 53, 47
2, 29462, Note_on_c, 0, 57, 53
2, 29462, Note_on_c, 0, 60, 54
2, 29462, Note_on_c, 0, 62, 49
2, 29539, Note_on_c, 0, 68, 66
2, 29564, Note_on_c, 0, 69, 0
2, 29593, Control_c, 0, 64, 0
2, 29642, Note_on_c, 0, 67, 66
2, 29645, Note_on_c, 0, 43, 62
2, 29645, Note_on_c, 0, 55, 61
2, 29654, Note_on_c, 0, 74, 0
2, 29654, Note_on_c, 0, 68, 0
2, 29654, Note_on_c, 0, 60, 0
2, 29654, Note_on_c, 0, 77, 0
2, 29654, Note_on_c, 0, 62, 0
2, 29657, Note_on_c, 0, 57, 0
2, 29665, Note_on_c, 0, 81, 0
2, 29668, Note_on_c, 0, 53, 0
2, 29671, Note_on_c, 0, 41, 0
2, 29735, Note_on_c, 0, 71, 60
2, 29770, Note_on_c, 0, 67, 0
2, 29776, Note_on_c, 0, 55, 0
2, 29817, Note_on_c, 0, 67, 64
2, 29817, Note_on_c, 0, 74, 62
2, 29820, Note_on_c, 0, 55, 48
2, 29820, Note_on_c, 0, 59, 51
2, 29831, Note_on_c, 0, 65, 63
2, 29841, Note_on_c, 0, 71, 0
2, 29860, Note_on_c, 0, 77, 64
2, 29877, Note_on_c, 0, 74, 0
2, 29882, Control_c, 0, 64, 127
2, 29896, Note_on_c, 0, 77, 0
2, 29906, Note_on_c, 0, 71, 42
2, 29939, Note_on_c, 0, 74, 41
2, 29961, Note_on_c, 0, 77, 41
2, 29964, Note_on_c, 0, 67, 0
2, 29964, Note_on_c, 0, 55, 0
2, 29964, Note_on_c, 0, 59, 0
2, 29989, Note_on_c, 0, 65, 0
2, 30011, Note_on_c, 0, 55, 54
2, 30011, Note_on_c, 0, 59, 50
2, 30011, Note_on_c, 0, 67, 60
2, 30020, Note_on_c, 0, 83, 65
2, 30033, Note_on_c, 0, 65, 59
2, 30039, Control_c, 0, 64, 0
2, 30168, Note_on_c, 0, 81, 54
2, 30192, Note_on_c, 0, 81, 0
2, 30217, Note_on_c, 0, 59, 0
2, 30220, Note_on_c, 0, 55, 0
2, 30226, Note_on_c, 0, 67, 0
2, 30229, Note_on_c, 0, 65, 0
2, 30248, Note_on_c, 0, 81, 58
2, 30262, Note_on_c, 0, 77, 0
2, 30264, Note_on_c, 0, 59, 54
2, 30267, Note_on_c, 0, 55, 50
2, 30273, Note_on_c, 0, 79, 53
2, 30276, Note_on_c, 0, 83, 0
2, 30276, Note_on_c, 0, 65, 60
2, 30276, Note_on_c, 0, 67, 54
2, 30320, Control_c, 0, 64, 127
2, 30331, Note_on_c, 0, 77, 57
2, 30356, Note_on_c, 0, 77, 0
2, 30402, Note_on_c, 0, 77, 57
2, 30424, Note_on_c, 0, 76, 60
2, 30446, Note_on_c, 0, 77, 0
2, 30501, Note_on_c, 0, 75, 60
2, 30523, Control_c, 0, 64, 0
2, 30528, Note_on_c, 0, 76, 0
2, 30528, Note_on_c, 0, 74, 0
2, 30561, Note_on_c, 0, 75, 0
2, 30622, Note_on_c, 0, 79, 0
2, 30622, Note_on_c, 0, 81, 0
2, 30624, Note_on_c, 0, 65, 0
2, 30624, Note_on_c, 0, 67, 0
2, 30624, Note_on_c, 0, 71, 0
2, 30624, Note_on_c, 0, 59, 0
2, 30627, Note_on_c, 0, 55, 0
2, 30630, Note_on_c, 0, 43, 0
2, 30639, Note_on_c, 0, 48, 48
2, 30639, Note_on_c, 0, 75, 62
2, 30642, Note_on_c, 0, 36, 48
2, 30795, Control_c, 0, 64, 127
2, 30989, Note_on_c, 0, 64, 48
2, 30998, Control_c, 0, 64, 0
2, 31001, Note_on_c, 0, 76, 55
2, 31004, Note_on_c, 0, 55, 41
2, 31012, Note_on_c, 0, 75, 0
2, 31034, Note_on_c, 0, 60, 46
2, 31150, Note_on_c, 0, 64, 0
2, 31152, Note_on_c, 0, 60, 0
2, 31163, Note_on_c, 0, 55, 0
2, 31190, Note_on_c, 0, 64, 48
2, 31203, Note_on_c, 0, 55, 43
2, 31203, Note_on_c, 0, 60, 44
2, 31248, Note_on_c, 0, 76, 0
2, 31258, Control_c, 0, 64, 127
2, 31313, Note_on_c, 0, 76, 60
2, 31384, Note_on_c, 0, 64, 0
2, 31384, Note_on_c, 0, 60, 0
2, 31397, Note_on_c, 0, 55, 0
2, 31427, Note_on_c, 0, 76, 0
2, 31427, Note_on_c, 0, 60, 44
2, 31430, Note_on_c, 0, 64, 46
2, 31443, Note_on_c, 0, 55, 48
2, 31495, Note_on_c, 0, 76, 54
2, 31643, Note_on_c, 0, 77, 59
2, 31668, Note_on_c, 0, 76, 0
2, 31783, Control_c, 0, 64, 0
2, 31783, Note_on_c, 0, 76, 60
2, 31805, Note_on_c, 0, 77, 0
2, 31827, Note_on_c, 0, 44, 53
2, 31830, Note_on_c, 0, 32, 53
2, 31847, Note_on_c, 0, 60, 0
2, 31847, Note_on_c, 0, 64, 0
2, 31849, Note_on_c, 0, 55, 0
2, 31852, Note_on_c, 0, 36, 0
2, 31852, Note_on_c, 0, 48, 0
2, 31951, Note_on_c, 0, 74, 56
2, 31976, Note_on_c, 0, 76, 0
2, 32064, Note_on_c, 0, 71, 59
2, 32088, Control_c, 0, 64, 127
2, 32170, Note_on_c, 0, 65, 56
2, 32206, Note_on_c, 0, 64, 54
2, 32208, Note_on_c, 0, 52, 51
2, 32231, Note_on_c, 0, 64, 0
2, 32231, Note_on_c, 0, 65, 0
2, 32236, Note_on_c, 0, 52, 0
2, 32288, Note_on_c, 0, 64, 61
2, 32291, Note_on_c, 0, 52, 59
2, 32297, Control_c, 0, 64, 0
2, 32300, Note_on_c, 0, 74, 0
2, 32371, Note_on_c, 0, 74, 57
2, 32374, Note_on_c, 0, 71, 0
2, 32442, Note_on_c, 0, 71, 59
2, 32521, Note_on_c, 0, 77, 47
2, 32612, Note_on_c, 0, 76, 60
2, 32634, Note_on_c, 0, 77, 0
2, 32634, Note_on_c, 0, 74, 0
2, 32637, Note_on_c, 0, 71, 0
2, 32637, Note_on_c, 0, 45, 54
2, 32640, Note_on_c, 0, 33, 53
2, 32664, Note_on_c, 0, 44, 0
2, 32664, Note_on_c, 0, 32, 0
2, 32678, Control_c, 0, 64, 127
2, 32738, Note_on_c, 0, 72, 55
2, 32820, Note_on_c, 0, 69, 57
2, 32878, Note_on_c, 0, 64, 0
2, 32878, Note_on_c, 0, 65, 54
2, 32880, Note_on_c, 0, 52, 0
2, 32927, Note_on_c, 0, 52, 48
2, 32927, Note_on_c, 0, 64, 51
2, 32949, Note_on_c, 0, 64, 0
2, 32949, Note_on_c, 0, 65, 0
2, 32952, Note_on_c, 0, 52, 0
2, 32990, Note_on_c, 0, 64, 66
2, 32993, Note_on_c, 0, 72, 0
2, 32996, Note_on_c, 0, 52, 68
2, 33015, Note_on_c, 0, 76, 0
2, 33024, Control_c, 0, 64, 0
2, 33065, Note_on_c, 0, 72, 59
2, 33068, Note_on_c, 0, 69, 0
2, 33136, Note_on_c, 0, 69, 60
2, 33223, Note_on_c, 0, 77, 57
2, 33343, Note_on_c, 0, 76, 67
2, 33357, Note_on_c, 0, 50, 67
2, 33362, Note_on_c, 0, 77, 0
2, 33365, Note_on_c, 0, 69, 0
2, 33365, Note_on_c, 0, 72, 0
2, 33368, Note_on_c, 0, 38, 66
2, 33382, Note_on_c, 0, 45, 0
2, 33392, Note_on_c, 0, 33, 0
2, 33406, Control_c, 0, 64, 127
2, 33438, Note_on_c, 0, 74, 61
2, 33463, Note_on_c, 0, 76, 0
2, 33499, Note_on_c, 0, 71, 56
2, 33567, Note_on_c, 0, 68, 57
2, 33570, Note_on_c, 0, 64, 0
2, 33573, Note_on_c, 0, 52, 0
2, 33617, Note_on_c, 0, 52, 55
2, 33617, Note_on_c, 0, 64, 49
2, 33639, Note_on_c, 0, 64, 0
2, 33639, Note_on_c, 0, 52, 0
2, 33672, Note_on_c, 0, 71, 0
2, 33682, Note_on_c, 0, 64, 74
2, 33688, Note_on_c, 0, 52, 68
2, 33740, Note_on_c, 0, 71, 57
2, 33743, Note_on_c, 0, 68, 0
2, 33748, Control_c, 0, 64, 0
2, 33765, Note_on_c, 0, 74, 0
2, 33814, Note_on_c, 0, 68, 63
2, 33882, Note_on_c, 0, 76, 58
2, 33917, Note_on_c, 0, 76, 0
2, 33981, Note_on_c, 0, 49, 67
2, 33984, Note_on_c, 0, 37, 67
2, 33989, Note_on_c, 0, 76, 67
2, 34006, Note_on_c, 0, 50, 0
2, 34008, Note_on_c, 0, 38, 0
2, 34011, Note_on_c, 0, 71, 0
2, 34014, Note_on_c, 0, 68, 0
2, 34033, Control_c, 0, 64, 127
2, 34085, Note_on_c, 0, 73, 58
2, 34121, Note_on_c, 0, 76, 0
2, 34143, Note_on_c, 0, 69, 61
2, 34168, Note_on_c, 0, 64, 0
2, 34171, Note_on_c, 0, 52, 0
2, 34200, Note_on_c, 0, 76, 60
2, 34214, Note_on_c, 0, 52, 56
2, 34214, Note_on_c, 0, 64, 52
2, 34224, Note_on_c, 0, 57, 58
2, 34224, Note_on_c, 0, 61, 55
2, 34233, Note_on_c, 0, 76, 0
2, 34236, Note_on_c, 0, 64, 0
2, 34236, Note_on_c, 0, 52, 0
2, 34247, Note_on_c, 0, 61, 0
2, 34247, Note_on_c, 0, 57, 0
2, 34279, Note_on_c, 0, 61, 71
2, 34282, Note_on_c, 0, 73, 0
2, 34282, Note_on_c, 0, 52, 72
2, 34282, Note_on_c, 0, 57, 73
2, 34291, Note_on_c, 0, 64, 70
2, 34301, Note_on_c, 0, 76, 61
2, 34337, Note_on_c, 0, 69, 0
2, 34345, Note_on_c, 0, 73, 62
2, 34403, Note_on_c, 0, 69, 64
2, 34425, Note_on_c, 0, 76, 0
2, 34464, Control_c, 0, 64, 0
2, 34466, Note_on_c, 0, 76, 59
2, 34475, Note_on_c, 0, 79, 63
2, 34500, Note_on_c, 0, 48, 57
2, 34511, Note_on_c, 0, 36, 58
2, 34519, Note_on_c, 0, 76, 0
2, 34519, Note_on_c, 0, 69, 0
2, 34519, Note_on_c, 0, 73, 0
2, 34522, Note_on_c, 0, 61, 0
2, 34522, Note_on_c, 0, 57, 0
2, 34525, Note_on_c, 0, 48, 0
2, 34525, Note_on_c, 0, 49, 0
2, 34531, Note_on_c, 0, 79, 0
2, 34536, Note_on_c, 0, 37, 0
2, 34536, Note_on_c, 0, 36, 0
2, 34563, Note_on_c, 0, 76, 77
2, 34569, Note_on_c, 0, 48, 73
2, 34578, Note_on_c, 0, 79, 74
2, 34584, Note_on_c, 0, 36, 75
2, 34644, Note_on_c, 0, 70, 47
2, 34669, Note_on_c, 0, 79, 0
2, 34672, Note_on_c, 0, 76, 0
2, 34691, Note_on_c, 0, 67, 47
2, 34727, Note_on_c, 0, 64, 0
2, 34729, Note_on_c, 0, 52, 0
2, 34735, Note_on_c, 0, 76, 54
2, 34735, Note_on_c, 0, 79, 54
2, 34757, Control_c, 0, 64, 127
2, 34771, Note_on_c, 0, 64, 64
2, 34774, Note_on_c, 0, 52, 64
2, 34793, Note_on_c, 0, 79, 0
2, 34796, Note_on_c, 0, 64, 0
2, 34799, Note_on_c, 0, 52, 0
2, 34807, Note_on_c, 0, 76, 0
2, 34829, Note_on_c, 0, 64, 84
2, 34843, Note_on_c, 0, 52, 78
2, 34859, Note_on_c, 0, 79, 66
2, 34862, Note_on_c, 0, 70, 0
2, 34875, Note_on_c, 0, 76, 65
2, 34921, Note_on_c, 0, 67, 0
2, 34930, Note_on_c, 0, 70, 72
2, 34966, Note_on_c, 0, 79, 0
2, 34979, Note_on_c, 0, 76, 0
2, 34990, Note_on_c, 0, 67, 70
2, 35036, Note_on_c, 0, 79, 64
2, 35046, Note_on_c, 0, 76, 70
2, 35057, Control_c, 0, 64, 0
2, 35106, Note_on_c, 0, 47, 70
2, 35112, Note_on_c, 0, 35, 65
2, 35134, Note_on_c, 0, 48, 0
2, 35136, Note_on_c, 0, 36, 0
2, 35210, Note_on_c, 0, 52, 0
2, 35213, Note_on_c, 0, 47, 0
2, 35243, Note_on_c, 0, 80, 73
2, 35256, Note_on_c, 0, 47, 59
2, 35256, Note_on_c, 0, 52, 53
2, 35256, Note_on_c, 0, 56, 54
2, 35256, Note_on_c, 0, 59, 56
2, 35265, Note_on_c, 0, 92, 65
2, 35268, Note_on_c, 0, 79, 0
2, 35293, Note_on_c, 0, 59, 0
2, 35306, Note_on_c, 0, 56, 0
2, 35309, Note_on_c, 0, 47, 0
2, 35320, Note_on_c, 0, 52, 0
2, 35339, Note_on_c, 0, 59, 54
2, 35350, Note_on_c, 0, 78, 66
2, 35350, Note_on_c, 0, 90, 66
2, 35352, Note_on_c, 0, 76, 0
2, 35355, Note_on_c, 0, 47, 54
2, 35355, Note_on_c, 0, 56, 56
2, 35361, Control_c, 0, 64, 127
2, 35367, Note_on_c, 0, 52, 54
2, 35377, Note_on_c, 0, 56, 0
2, 35380, Note_on_c, 0, 59, 0
2, 35391, Note_on_c, 0, 47, 0
2, 35391, Note_on_c, 0, 52, 0
2, 35416, Note_on_c, 0, 88, 69
2, 35419, Note_on_c, 0, 76, 69
2, 35422, Note_on_c, 0, 56, 53
2, 35422, Note_on_c, 0, 59, 54
2, 35432, Note_on_c, 0, 47, 58
2, 35432, Note_on_c, 0, 52, 56
2, 35446, Note_on_c, 0, 59, 0
2, 35459, Note_on_c, 0, 52, 0
2, 35459, Note_on_c, 0, 56, 0
2, 35459, Note_on_c, 0, 47, 0
2, 35489, Note_on_c, 0, 75, 70
2, 35495, Note_on_c, 0, 59, 55
2, 35503, Note_on_c, 0, 87, 69
2, 35506, Note_on_c, 0, 52, 55
2, 35506, Note_on_c, 0, 56, 53
2, 35509, Note_on_c, 0, 47, 58
2, 35515, Note_on_c, 0, 76, 0
2, 35520, Note_on_c, 0, 59, 0
2, 35526, Note_on_c, 0, 88, 0
2, 35532, Note_on_c, 0, 56, 0
2, 35532, Note_on_c, 0, 52, 0
2, 35535, Note_on_c, 0, 47, 0
2, 35560, Note_on_c, 0, 85, 70
2, 35563, Note_on_c, 0, 73, 67
2, 35566, Note_on_c, 0, 56, 58
2, 35566, Note_on_c, 0, 59, 57
2, 35576, Note_on_c, 0, 52, 53
2, 35579, Note_on_c, 0, 47, 55
2, 35590, Note_on_c, 0, 56, 0
2, 35592, Note_on_c, 0, 59, 0
2, 35603, Note_on_c, 0, 47, 0
2, 35603, Note_on_c, 0, 52, 0
2, 35633, Note_on_c, 0, 70, 0
2, 35633, Note_on_c, 0, 56, 55
2, 35633, Note_on_c, 0, 59, 51
2, 35633, Note_on_c, 0, 71, 69
2, 35636, Note_on_c, 0, 52, 58
2, 35641, Note_on_c, 0, 83, 63
2, 35647, Note_on_c, 0, 47, 56
2, 35658, Note_on_c, 0, 59, 0
2, 35658, Note_on_c, 0, 56, 0
2, 35661, Note_on_c, 0, 52, 0
2, 35671, Note_on_c, 0, 47, 0
2, 35698, Note_on_c, 0, 85, 0
2, 35698, Note_on_c, 0, 82, 70
2, 35701, Note_on_c, 0, 73, 0
2, 35701, Note_on_c, 0, 70, 69
2, 35704, Note_on_c, 0, 47, 52
2, 35704, Note_on_c, 0, 52, 51
2, 35704, Note_on_c, 0, 56, 58
2, 35704, Note_on_c, 0, 59, 54
2, 35723, Note_on_c, 0, 83, 0
2, 35723, Note_on_c, 0, 71, 0
2, 35739, Note_on_c, 0, 59, 0
2, 35742, Note_on_c, 0, 47, 0
2, 35761, Control_c, 0, 64, 0
2, 35770, Note_on_c, 0, 85, 63
2, 35773, Note_on_c, 0, 73, 69
2, 35786, Note_on_c, 0, 57, 65
2, 35786, Note_on_c, 0, 59, 63
2, 35789, Note_on_c, 0, 51, 64
2, 35792, Note_on_c, 0, 47, 68
2, 35795, Note_on_c, 0, 92, 0
2, 35795, Note_on_c, 0, 90, 0
2, 35795, Note_on_c, 0, 82, 0
2, 35798, Note_on_c, 0, 64, 0
2, 35798, Note_on_c, 0, 87, 0
2, 35798, Note_on_c, 0, 78, 0
2, 35798, Note_on_c, 0, 80, 0
2, 35798, Note_on_c, 0, 67, 0
2, 35798, Note_on_c, 0, 70, 0
2, 35798, Note_on_c, 0, 75, 0
2, 35811, Note_on_c, 0, 56, 0
2, 35814, Note_on_c, 0, 52, 0
2, 35836, Note_on_c, 0, 57, 0
2, 35839, Note_on_c, 0, 47, 0
2, 35839, Note_on_c, 0, 51, 0
2, 35848, Note_on_c, 0, 59, 0
2, 35856, Note_on_c, 0, 83, 67
2, 35870, Note_on_c, 0, 71, 63
2, 35886, Note_on_c, 0, 47, 50
2, 35886, Note_on_c, 0, 51, 51
2, 35886, Note_on_c, 0, 57, 51
2, 35895, Note_on_c, 0, 59, 57
2, 35920, Note_on_c, 0, 59, 0
2, 35920, Note_on_c, 0, 57, 0
2, 35923, Note_on_c, 0, 51, 0
2, 35923, Note_on_c, 0, 47, 0
2, 35961, Note_on_c, 0, 81, 64
2, 35967, Note_on_c, 0, 47, 56
2, 35967, Note_on_c, 0, 51, 56
2, 35967, Note_on_c, 0, 57, 53
2, 35967, Note_on_c, 0, 59, 51
2, 35967, Note_on_c, 0, 69, 66
2, 35992, Note_on_c, 0, 57, 0
2, 35992, Note_on_c, 0, 51, 0
2, 36002, Note_on_c, 0, 59, 0
2, 36005, Note_on_c, 0, 47, 0
2, 36035, Note_on_c, 0, 51, 53
2, 36035, Note_on_c, 0, 57, 54
2, 36041, Control_c, 0, 64, 127
2, 36044, Note_on_c, 0, 59, 51
2, 36044, Note_on_c, 0, 66, 62
2, 36047, Note_on_c, 0, 47, 52
2, 36052, Note_on_c, 0, 78, 69
2, 36061, Note_on_c, 0, 57, 0
2, 36061, Note_on_c, 0, 51, 0
2, 36070, Note_on_c, 0, 59, 0
2, 36072, Note_on_c, 0, 47, 0
2, 36105, Note_on_c, 0, 51, 51
2, 36105, Note_on_c, 0, 57, 56
2, 36116, Note_on_c, 0, 47, 49
2, 36116, Note_on_c, 0, 59, 53
2, 36135, Note_on_c, 0, 75, 64
2, 36138, Note_on_c, 0, 63, 56
2, 36160, Note_on_c, 0, 59, 0
2, 36160, Note_on_c, 0, 71, 0
2, 36187, Note_on_c, 0, 35, 0
2, 36187, Note_on_c, 0, 47, 0
2, 36214, Note_on_c, 0, 71, 65
2, 36224, Note_on_c, 0, 59, 53
2, 36230, Note_on_c, 0, 35, 55
2, 36230, Note_on_c, 0, 47, 52
2, 36263, Note_on_c, 0, 57, 0
2, 36271, Note_on_c, 0, 69, 0
2, 36296, Note_on_c, 0, 47, 0
2, 36302, Note_on_c, 0, 35, 0
2, 36327, Note_on_c, 0, 57, 54
2, 36337, Note_on_c, 0, 69, 64
2, 36340, Note_on_c, 0, 47, 56
2, 36343, Note_on_c, 0, 35, 55
2, 36362, Note_on_c, 0, 66, 0
2, 36389, Note_on_c, 0, 47, 0
2, 36403, Note_on_c, 0, 35, 0
2, 36428, Note_on_c, 0, 66, 67
2, 36433, Note_on_c, 0, 47, 54
2, 36433, Note_on_c, 0, 54, 52
2, 36444, Note_on_c, 0, 35, 49
2, 36450, Note_on_c, 0, 83, 0
2, 36450, Note_on_c, 0, 85, 0
2, 36456, Note_on_c, 0, 51, 0
2, 36469, Control_c, 0, 64, 0
2, 36478, Note_on_c, 0, 47, 0
2, 36491, Note_on_c, 0, 35, 0
2, 36521, Note_on_c, 0, 47, 72
2, 36534, Note_on_c, 0, 35, 71
2, 36540, Note_on_c, 0, 69, 0
2, 36540, Note_on_c, 0, 71, 0
2, 36540, Note_on_c, 0, 73, 0
2, 36540, Note_on_c, 0, 59, 0
2, 36540, Note_on_c, 0, 81, 0
2, 36540, Note_on_c, 0, 75, 0
2, 36540, Note_on_c, 0, 66, 0
2, 36540, Note_on_c, 0, 78, 0
2, 36546, Note_on_c, 0, 54, 0
2, 36546, Note_on_c, 0, 63, 0
2, 36546, Note_on_c, 0, 57, 0
2, 36642, Note_on_c, 0, 47, 0
2, 36672, Note_on_c, 0, 92, 70
2, 36680, Note_on_c, 0, 59, 54
2, 36689, Note_on_c, 0, 80, 71
2, 36695, Note_on_c, 0, 47, 54
2, 36703, Note_on_c, 0, 56, 56
2, 36706, Note_on_c, 0, 52, 52
2, 36722, Control_c, 0, 64, 127
2, 36739, Note_on_c, 0, 59, 0
2, 36752, Note_on_c, 0, 56, 0
2, 36752, Note_on_c, 0, 47, 0
2, 36752, Note_on_c, 0, 52, 0
2, 36779, Note_on_c, 0, 78, 63
2, 36779, Note_on_c, 0, 90, 63
2, 36785, Note_on_c, 0, 59, 51
2, 36798, Note_on_c, 0, 47, 54
2, 36798, Note_on_c, 0, 52, 57
2, 36798, Note_on_c, 0, 56, 53
2, 36820, Note_on_c, 0, 56, 0
2, 36820, Note_on_c, 0, 59, 0
2, 36837, Note_on_c, 0, 52, 0
2, 36837, Note_on_c, 0, 47, 0
2, 36862, Note_on_c, 0, 88, 64
2, 36867, Note_on_c, 0, 56, 50
2, 36867, Note_on_c, 0, 59, 57
2, 36876, Note_on_c, 0, 76, 64
2, 36882, Note_on_c, 0, 47, 55
2, 36882, Note_on_c, 0, 52, 57
2, 36904, Note_on_c, 0, 52, 0
2, 36904, Note_on_c, 0, 59, 0
2, 36904, Note_on_c, 0, 56, 0
2, 36907, Note_on_c, 0, 47, 0
2, 36920, Note_on_c, 0, 87, 63
2, 36945, Note_on_c, 0, 88, 0
2, 36945, Note_on_c, 0, 75, 67
2, 36959, Note_on_c, 0, 76, 0
2, 36959, Note_on_c, 0, 56, 52
2, 36959, Note_on_c, 0, 59, 50
2, 36961, Note_on_c, 0, 47, 50
2, 36961, Note_on_c, 0, 52, 56
2, 36984, Note_on_c, 0, 52, 0
2, 36984, Note_on_c, 0, 47, 0
2, 36984, Note_on_c, 0, 59, 0
2, 37010, Note_on_c, 0, 85, 63
2, 37016, Note_on_c, 0, 47, 51
2, 37016, Note_on_c, 0, 52, 50
2, 37016, Note_on_c, 0, 59, 51
2, 37025, Note_on_c, 0, 73, 64
2, 37041, Note_on_c, 0, 59, 0
2, 37052, Note_on_c, 0, 47, 0
2, 37052, Note_on_c, 0, 52, 0
2, 37081, Control_c, 0, 64, 0
2, 37084, Note_on_c, 0, 59, 61
2, 37093, Note_on_c, 0, 83, 66
2, 37096, Note_on_c, 0, 47, 66
2, 37096, Note_on_c, 0, 52, 67
2, 37096, Note_on_c, 0, 55, 64
2, 37096, Note_on_c, 0, 71, 67
2, 37106, Note_on_c, 0, 85, 0
2, 37106, Note_on_c, 0, 73, 0
2, 37115, Note_on_c, 0, 87, 0
2, 37115, Note_on_c, 0, 92, 0
2, 37118, Note_on_c, 0, 75, 0
2, 37118, Note_on_c, 0, 90, 0
2, 37118, Note_on_c, 0, 78, 0
2, 37118, Note_on_c, 0, 80, 0
2, 37121, Note_on_c, 0, 56, 0
2, 37121, Note_on_c, 0, 59, 0
2, 37124, Note_on_c, 0, 35, 0
2, 37132, Note_on_c, 0, 55, 0
2, 37146, Note_on_c, 0, 52, 0
2, 37146, Note_on_c, 0, 47, 0
2, 37165, Note_on_c, 0, 59, 55
2, 37165, Note_on_c, 0, 70, 66
2, 37174, Note_on_c, 0, 82, 62
2, 37179, Note_on_c, 0, 55, 50
2, 37190, Note_on_c, 0, 47, 54
2, 37190, Note_on_c, 0, 52, 56
2, 37215, Note_on_c, 0, 47, 0
2, 37256, Note_on_c, 0, 85, 64
2, 37259, Note_on_c, 0, 57, 63
2, 37262, Note_on_c, 0, 47, 62
2, 37262, Note_on_c, 0, 51, 66
2, 37271, Note_on_c, 0, 73, 61
2, 37273, Note_on_c, 0, 55, 0
2, 37282, Note_on_c, 0, 83, 0
2, 37285, Note_on_c, 0, 59, 0
2, 37288, Note_on_c, 0, 52, 0
2, 37296, Note_on_c, 0, 71, 0
2, 37332, Note_on_c, 0, 57, 0
2, 37335, Note_on_c, 0, 51, 0
2, 37335, Note_on_c, 0, 47, 0
2, 37373, Note_on_c, 0, 83, 60
2, 37379, Note_on_c, 0, 57, 53
2, 37379, Note_on_c, 0, 71, 66
2, 37382, Note_on_c, 0, 47, 51
2, 37382, Note_on_c, 0, 51, 48
2, 37388, Control_c, 0, 64, 127
2, 37401, Note_on_c, 0, 85, 0
2, 37401, Note_on_c, 0, 82, 0
2, 37404, Note_on_c, 0, 70, 0
2, 37440, Note_on_c, 0, 57, 0
2, 37442, Note_on_c, 0, 47, 0
2, 37442, Note_on_c, 0, 51, 0
2, 37484, Note_on_c, 0, 69, 62
2, 37484, Note_on_c, 0, 81, 64
2, 37487, Note_on_c, 0, 57, 53
2, 37489, Note_on_c, 0, 47, 53
2, 37489, Note_on_c, 0, 51, 49
2, 37509, Note_on_c, 0, 83, 0
2, 37536, Note_on_c, 0, 57, 0
2, 37538, Note_on_c, 0, 51, 0
2, 37549, Note_on_c, 0, 47, 0
2, 37579, Note_on_c, 0, 78, 61
2, 37584, Note_on_c, 0, 51, 50
2, 37584, Note_on_c, 0, 57, 53
2, 37595, Note_on_c, 0, 47, 50
2, 37595, Note_on_c, 0, 66, 67
2, 37644, Note_on_c, 0, 57, 0
2, 37644, Note_on_c, 0, 51, 0
2, 37647, Note_on_c, 0, 47, 0
2, 37682, Note_on_c, 0, 75, 60
2, 37688, Note_on_c, 0, 47, 54
2, 37688, Note_on_c, 0, 51, 47
2, 37688, Note_on_c, 0, 57, 53
2, 37688, Note_on_c, 0, 63, 52
2, 37753, Note_on_c, 0, 71, 0
2, 37792, Note_on_c, 0, 47, 0
2, 37819, Note_on_c, 0, 71, 66
2, 37829, Note_on_c, 0, 59, 48
2, 37832, Note_on_c, 0, 47, 50
2, 37920, Note_on_c, 0, 69, 0
2, 37920, Note_on_c, 0, 57, 0
2, 37958, Note_on_c, 0, 47, 0
2, 37985, Note_on_c, 0, 57, 49
2, 37985, Note_on_c, 0, 69, 64
2, 37998, Note_on_c, 0, 45, 47
2, 37998, Note_on_c, 0, 47, 48
2, 38083, Note_on_c, 0, 66, 0
2, 38108, Note_on_c, 0, 47, 0
2, 38152, Note_on_c, 0, 66, 60
2, 38155, Note_on_c, 0, 47, 53
2, 38155, Note_on_c, 0, 54, 54
2, 38165, Note_on_c, 0, 42, 53
2, 38359, Note_on_c, 0, 69, 0
2, 38359, Note_on_c, 0, 73, 0
2, 38359, Note_on_c, 0, 81, 0
2, 38359, Note_on_c, 0, 78, 0
2, 38359, Note_on_c, 0, 75, 0
2, 38362, Note_on_c, 0, 66, 0
2, 38362, Note_on_c, 0, 57, 0
2, 38362, Note_on_c, 0, 63, 0
2, 38362, Note_on_c, 0, 51, 0
2, 38362, Note_on_c, 0, 54, 0
2, 38362, Note_on_c, 0, 47, 0
2, 38362, Note_on_c, 0, 71, 0
2, 38362, Note_on_c, 0, 59, 0
2, 38368, Note_on_c, 0, 42, 0
2, 38368, Note_on_c, 0, 45, 0
2, 38403, Control_c, 0, 64, 0
2, 38519, Note_on_c, 0, 76, 54
2, 38524, Note_on_c, 0, 32, 47
2, 38524, Note_on_c, 0, 44, 51
2, 38696, Control_c, 0, 64, 127
2, 38784, Note_on_c, 0, 74, 41
2, 38808, Note_on_c, 0, 76, 0
2, 38869, Note_on_c, 0, 71, 42
2, 38998, Note_on_c, 0, 65, 44
2, 39055, Note_on_c, 0, 64, 50
2, 39058, Note_on_c, 0, 52, 54
2, 39080, Note_on_c, 0, 64, 0
2, 39080, Note_on_c, 0, 65, 0
2, 39083, Note_on_c, 0, 52, 0
2, 39124, Note_on_c, 0, 64, 66
2, 39127, Note_on_c, 0, 52, 65
2, 39160, Note_on_c, 0, 74, 0
2, 39228, Note_on_c, 0, 74, 48
2, 39244, Note_on_c, 0, 71, 0
2, 39312, Note_on_c, 0, 71, 43
2, 39381, Control_c, 0, 64, 0
2, 39384, Note_on_c, 0, 77, 49
2, 39515, Note_on_c, 0, 44, 0
2, 39526, Note_on_c, 0, 32, 0
2, 39555, Note_on_c, 0, 44, 61
2, 39569, Note_on_c, 0, 32, 68
2, 39621, Note_on_c, 0, 76, 61
2, 39637, Control_c, 0, 64, 127
2, 39643, Note_on_c, 0, 74, 0
2, 39643, Note_on_c, 0, 71, 0
2, 39643, Note_on_c, 0, 77, 0
2, 39779, Note_on_c, 0, 74, 49
2, 39801, Note_on_c, 0, 76, 0
2, 39881, Note_on_c, 0, 71, 51
2, 39889, Control_c, 0, 64, 0
2, 39977, Note_on_c, 0, 64, 0
2, 39977, Note_on_c, 0, 68, 49
2, 39990, Note_on_c, 0, 52, 0
2, 40020, Note_on_c, 0, 64, 57
2, 40033, Note_on_c, 0, 52, 51
2, 40044, Note_on_c, 0, 64, 0
2, 40060, Note_on_c, 0, 52, 0
2, 40080, Note_on_c, 0, 64, 63
2, 40093, Note_on_c, 0, 52, 63
2, 40112, Note_on_c, 0, 74, 0
2, 40153, Control_c, 0, 64, 127
2, 40183, Note_on_c, 0, 74, 45
2, 40194, Note_on_c, 0, 71, 0
2, 40207, Note_on_c, 0, 68, 0
2, 40265, Note_on_c, 0, 71, 49
2, 40333, Note_on_c, 0, 76, 45
2, 40371, Note_on_c, 0, 76, 0
2, 40410, Control_c, 0, 64, 0
2, 40420, Note_on_c, 0, 46, 63
2, 40431, Note_on_c, 0, 34, 61
2, 40437, Note_on_c, 0, 76, 62
2, 40442, Note_on_c, 0, 44, 0
2, 40453, Note_on_c, 0, 32, 0
2, 40462, Note_on_c, 0, 71, 0
2, 40462, Note_on_c, 0, 74, 0
2, 40555, Note_on_c, 0, 73, 52
2, 40612, Note_on_c, 0, 70, 51
2, 40670, Note_on_c, 0, 67, 54
2, 40683, Note_on_c, 0, 64, 0
2, 40686, Note_on_c, 0, 52, 0
2, 40713, Control_c, 0, 64, 127
2, 40729, Note_on_c, 0, 64, 54
2, 40732, Note_on_c, 0, 52, 58
2, 40754, Note_on_c, 0, 52, 0
2, 40754, Note_on_c, 0, 64, 0
2, 40787, Note_on_c, 0, 76, 0
2, 40787, Note_on_c, 0, 64, 71
2, 40790, Note_on_c, 0, 52, 67
2, 40823, Note_on_c, 0, 73, 0
2, 40855, Note_on_c, 0, 76, 52
2, 40926, Note_on_c, 0, 73, 48
2, 40987, Note_on_c, 0, 46, 0
2, 40992, Note_on_c, 0, 34, 0
2, 41017, Note_on_c, 0, 79, 50
2, 41034, Note_on_c, 0, 46, 61
2, 41037, Note_on_c, 0, 34, 58
2, 41056, Note_on_c, 0, 76, 0
2, 41059, Note_on_c, 0, 46, 0
2, 41062, Note_on_c, 0, 34, 0
2, 41091, Note_on_c, 0, 46, 68
2, 41094, Note_on_c, 0, 34, 66
2, 41108, Control_c, 0, 64, 0
2, 41121, Note_on_c, 0, 76, 64
2, 41146, Note_on_c, 0, 79, 0
2, 41168, Note_on_c, 0, 73, 0
2, 41214, Note_on_c, 0, 70, 0
2, 41233, Note_on_c, 0, 73, 56
2, 41269, Note_on_c, 0, 67, 0
2, 41280, Note_on_c, 0, 70, 49
2, 41324, Note_on_c, 0, 64, 0
2, 41334, Note_on_c, 0, 67, 52
2, 41348, Note_on_c, 0, 52, 0
2, 41367, Note_on_c, 0, 64, 50
2, 41376, Control_c, 0, 64, 127
2, 41392, Note_on_c, 0, 64, 0
2, 41395, Note_on_c, 0, 52, 52
2, 41417, Note_on_c, 0, 52, 0
2, 41436, Note_on_c, 0, 64, 68
2, 41447, Note_on_c, 0, 73, 0
2, 41449, Note_on_c, 0, 52, 68
2, 41515, Note_on_c, 0, 73, 52
2, 41569, Note_on_c, 0, 67, 0
2, 41638, Note_on_c, 0, 67, 55
2, 41670, Note_on_c, 0, 76, 0
2, 41736, Note_on_c, 0, 76, 48
2, 41807, Note_on_c, 0, 35, 64
2, 41820, Note_on_c, 0, 34, 0
2, 41823, Note_on_c, 0, 80, 67
2, 41845, Control_c, 0, 64, 0
2, 41957, Note_on_c, 0, 46, 0
2, 41963, Note_on_c, 0, 71, 48
2, 41966, Note_on_c, 0, 47, 49
2, 41991, Note_on_c, 0, 76, 0
2, 41991, Note_on_c, 0, 67, 0
2, 41991, Note_on_c, 0, 73, 0
2, 41991, Note_on_c, 0, 70, 0
2, 42016, Note_on_c, 0, 52, 0
2, 42081, Note_on_c, 0, 68, 49
2, 42097, Note_on_c, 0, 71, 0
2, 42097, Note_on_c, 0, 52, 48
2, 42139, Control_c, 0, 64, 127
2, 42166, Note_on_c, 0, 71, 50
2, 42176, Note_on_c, 0, 56, 48
2, 42258, Note_on_c, 0, 59, 50
2, 42290, Note_on_c, 0, 76, 64
2, 42317, Note_on_c, 0, 56, 0
2, 42385, Note_on_c, 0, 56, 49
2, 42402, Note_on_c, 0, 47, 0
2, 42421, Note_on_c, 0, 64, 0
2, 42473, Note_on_c, 0, 47, 47
2, 42495, Note_on_c, 0, 64, 50
2, 42536, Note_on_c, 0, 68, 0
2, 42558, Note_on_c, 0, 52, 0
2, 42602, Note_on_c, 0, 68, 52
2, 42632, Note_on_c, 0, 52, 52
2, 42668, Note_on_c, 0, 56, 0
2, 42703, Note_on_c, 0, 71, 0
2, 42739, Note_on_c, 0, 56, 48
2, 42774, Note_on_c, 0, 71, 69
2, 42826, Control_c, 0, 64, 0
2, 42870, Note_on_c, 0, 80, 0
2, 42870, Note_on_c, 0, 59, 0
2, 42870, Note_on_c, 0, 76, 0
2, 42941, Note_on_c, 0, 59, 50
2, 42999, Note_on_c, 0, 68, 0
2, 43067, Note_on_c, 0, 68, 47
2, 43111, Note_on_c, 0, 64, 0
2, 43163, Control_c, 0, 64, 127
2, 43176, Note_on_c, 0, 64, 60
2, 43225, Note_on_c, 0, 59, 0
2, 43294, Note_on_c, 0, 59, 48
2, 43351, Note_on_c, 0, 56, 0
2, 43419, Note_on_c, 0, 56, 45
2, 43441, Note_on_c, 0, 68, 0
2, 43441, Note_on_c, 0, 71, 0
2, 43452, Note_on_c, 0, 64, 0
2, 43510, Note_on_c, 0, 71, 43
2, 43512, Note_on_c, 0, 52, 0
2, 43512, Note_on_c, 0, 68, 44
2, 43521, Note_on_c, 0, 64, 44
2, 43584, Note_on_c, 0, 52, 43
2, 43607, Note_on_c, 0, 47, 0
2, 43675, Note_on_c, 0, 47, 43
2, 43784, Note_on_c, 0, 35, 0
2, 43790, Note_on_c, 0, 73, 66
2, 43834, Control_c, 0, 64, 0
2, 43856, Note_on_c, 0, 71, 0
2, 43856, Note_on_c, 0, 68, 0
2, 43856, Note_on_c, 0, 35, 50
2, 43867, Note_on_c, 0, 56, 0
2, 43948, Note_on_c, 0, 47, 0
2, 44014, Note_on_c, 0, 47, 49
2, 44074, Note_on_c, 0, 64, 0
2, 44123, Note_on_c, 0, 52, 0
2, 44139, Control_c, 0, 64, 127
2, 44142, Note_on_c, 0, 64, 51
2, 44156, Note_on_c, 0, 70, 44
2, 44166, Note_on_c, 0, 52, 49
2, 44286, Note_on_c, 0, 55, 55
2, 44330, Note_on_c, 0, 70, 0
2, 44330, Note_on_c, 0, 59, 0
2, 44341, Note_on_c, 0, 64, 0
2, 44374, Note_on_c, 0, 59, 43
2, 44399, Note_on_c, 0, 70, 62
2, 44409, Note_on_c, 0, 64, 47
2, 44409, Note_on_c, 0, 75, 57
2, 44434, Note_on_c, 0, 73, 0
2, 44519, Note_on_c, 0, 55, 0
2, 44560, Note_on_c, 0, 55, 48
2, 44579, Control_c, 0, 64, 0
2, 44644, Note_on_c, 0, 52, 0
2, 44655, Note_on_c, 0, 70, 0
2, 44677, Note_on_c, 0, 64, 0
2, 44690, Note_on_c, 0, 52, 41
2, 44723, Note_on_c, 0, 70, 50
2, 44736, Note_on_c, 0, 64, 41
2, 44736, Note_on_c, 0, 76, 48
2, 44761, Note_on_c, 0, 75, 0
2, 44827, Note_on_c, 0, 47, 0
2, 44865, Control_c, 0, 64, 127
2, 44874, Note_on_c, 0, 47, 46
2, 44896, Note_on_c, 0, 55, 0
2, 45073, Note_on_c, 0, 43, 47
2, 45093, Note_on_c, 0, 59, 0
2, 45093, Note_on_c, 0, 76, 0
2, 45093, Note_on_c, 0, 70, 0
2, 45093, Note_on_c, 0, 64, 0
2, 45096, Note_on_c, 0, 47, 0
2, 45096, Note_on_c, 0, 52, 0
2, 45098, Note_on_c, 0, 35, 0
2, 45153, Control_c, 0, 64, 0
2, 45298, Note_on_c, 0, 42, 48
2, 45323, Note_on_c, 0, 43, 0
2, 45432, Control_c, 0, 64, 127
2, 45477, Note_on_c, 0, 43, 45
2, 45499, Note_on_c, 0, 42, 0
2, 45641, Note_on_c, 0, 40, 44
2, 45704, Note_on_c, 0, 43, 0
2, 45740, Control_c, 0, 64, 0
2, 45821, Note_on_c, 0, 43, 48
2, 45846, Note_on_c, 0, 40, 0
2, 46010, Note_on_c, 0, 42, 48
2, 46037, Note_on_c, 0, 43, 0
2, 46215, Note_on_c, 0, 43, 48
2, 46237, Note_on_c, 0, 42, 0
2, 46401, Note_on_c, 0, 40, 44
2, 46426, Note_on_c, 0, 43, 0
2, 46629, Note_on_c, 0, 35, 50
2, 46637, Note_on_c, 0, 73, 64
2, 46654, Note_on_c, 0, 40, 0
2, 46676, Control_c, 0, 64, 127
2, 46821, Note_on_c, 0, 47, 45
2, 46944, Note_on_c, 0, 67, 46
2, 46957, Note_on_c, 0, 64, 48
2, 46966, Note_on_c, 0, 70, 48
2, 46979, Note_on_c, 0, 52, 47
2, 47078, Note_on_c, 0, 55, 43
2, 47124, Note_on_c, 0, 70, 0
2, 47124, Note_on_c, 0, 64, 0
2, 47135, Note_on_c, 0, 67, 0
2, 47145, Note_on_c, 0, 59, 46
2, 47191, Note_on_c, 0, 64, 50
2, 47191, Note_on_c, 0, 70, 59
2, 47194, Note_on_c, 0, 75, 58
2, 47203, Note_on_c, 0, 67, 55
2, 47216, Note_on_c, 0, 73, 0
2, 47298, Note_on_c, 0, 55, 0
2, 47344, Note_on_c, 0, 55, 45
2, 47382, Control_c, 0, 64, 0
2, 47434, Note_on_c, 0, 52, 0
2, 47459, Note_on_c, 0, 64, 0
2, 47470, Note_on_c, 0, 70, 0
2, 47470, Note_on_c, 0, 67, 0
2, 47480, Note_on_c, 0, 52, 45
2, 47524, Note_on_c, 0, 64, 43
2, 47535, Note_on_c, 0, 67, 46
2, 47538, Note_on_c, 0, 70, 43
2, 47538, Note_on_c, 0, 76, 46
2, 47560, Note_on_c, 0, 75, 0
2, 47617, Note_on_c, 0, 47, 0
2, 47664, Note_on_c, 0, 47, 43
2, 47669, Control_c, 0, 64, 127
2, 47878, Note_on_c, 0, 43, 47
2, 47900, Note_on_c, 0, 67, 0
2, 47900, Note_on_c, 0, 64, 0
2, 47903, Note_on_c, 0, 47, 0
2, 47903, Note_on_c, 0, 59, 0
2, 47903, Note_on_c, 0, 52, 0
2, 47903, Note_on_c, 0, 55, 0
2, 47905, Note_on_c, 0, 35, 0
2, 47914, Note_on_c, 0, 76, 0
2, 47914, Note_on_c, 0, 70, 0
2, 47925, Control_c, 0, 64, 0
2, 48078, Note_on_c, 0, 42, 43
2, 48105, Note_on_c, 0, 43, 0
2, 48244, Note_on_c, 0, 43, 41
2, 48266, Note_on_c, 0, 42, 0
2, 48382, Note_on_c, 0, 40, 42
2, 48401, Note_on_c, 0, 43, 0
2, 48524, Note_on_c, 0, 43, 45
2, 48551, Note_on_c, 0, 40, 0
2, 48706, Note_on_c, 0, 42, 46
2, 48731, Note_on_c, 0, 43, 0
2, 48909, Note_on_c, 0, 43, 42
2, 48936, Note_on_c, 0, 42, 0
2, 49113, Note_on_c, 0, 40, 46
2, 49140, Note_on_c, 0, 43, 0
2, 49326, Note_on_c, 0, 35, 48
2, 49332, Control_c, 0, 67, 127
2, 49351, Note_on_c, 0, 40, 0
2, 49464, Control_c, 0, 64, 127
2, 49518, Note_on_c, 0, 48, 48
2, 49682, Note_on_c, 0, 52, 42
2, 49798, Note_on_c, 0, 54, 44
2, 49913, Note_on_c, 0, 57, 46
2, 49938, Note_on_c, 0, 52, 0
2, 50028, Note_on_c, 0, 60, 44
2, 50127, Note_on_c, 0, 64, 43
2, 50239, Note_on_c, 0, 66, 46
2, 50310, Note_on_c, 0, 54, 0
2, 50343, Note_on_c, 0, 54, 44
2, 50353, Note_on_c, 0, 47, 42
2, 50378, Note_on_c, 0, 60, 0
2, 50381, Note_on_c, 0, 48, 0
2, 50423, Note_on_c, 0, 60, 48
2, 50513, Note_on_c, 0, 64, 0
2, 50559, Note_on_c, 0, 64, 42
2, 50586, Control_c, 0, 64, 0
2, 50594, Note_on_c, 0, 66, 0
2, 50665, Note_on_c, 0, 66, 44
2, 50704, Control_c, 0, 64, 127
2, 50781, Note_on_c, 0, 69, 47
2, 50893, Note_on_c, 0, 72, 46
2, 51019, Note_on_c, 0, 76, 48
2, 51155, Note_on_c, 0, 78, 43
2, 51311, Note_on_c, 0, 47, 0
2, 51313, Note_on_c, 0, 35, 0
2, 51382, Note_on_c, 0, 47, 52
2, 51384, Note_on_c, 0, 35, 54
2, 51401, Note_on_c, 0, 76, 0
2, 51401, Note_on_c, 0, 72, 0
2, 51401, Note_on_c, 0, 78, 0
2, 51401, Note_on_c, 0, 60, 0
2, 51404, Note_on_c, 0, 64, 0
2, 51404, Note_on_c, 0, 66, 0
2, 51404, Note_on_c, 0, 57, 0
2, 51404, Note_on_c, 0, 69, 0
2, 51407, Note_on_c, 0, 54, 0
2, 51420, Control_c, 0, 64, 0
2, 51571, Note_on_c, 0, 54, 41
2, 51724, Control_c, 0, 64, 127
2, 51730, Note_on_c, 0, 57, 51
2, 51856, Note_on_c, 0, 59, 45
2, 51943, Note_on_c, 0, 63, 45
2, 52031, Note_on_c, 0, 66, 47
2, 52131, Note_on_c, 0, 69, 44
2, 52219, Note_on_c, 0, 71, 47
2, 52331, Note_on_c, 0, 75, 46
2, 52446, Note_on_c, 0, 78, 50
2, 52588, Note_on_c, 0, 81, 49
2, 52772, Note_on_c, 0, 82, 58
2, 52797, Note_on_c, 0, 81, 0
2, 53018, Note_on_c, 0, 83, 51
2, 53043, Note_on_c, 0, 82, 0
2, 53369, Note_on_c, 0, 84, 50
2, 53394, Note_on_c, 0, 83, 0
2, 53883, Note_on_c, 0, 85, 54
2, 53908, Note_on_c, 0, 84, 0
2, 54836, Control_c, 0, 67, 0
2, 54852, Note_on_c, 0, 87, 47
2, 54877, Note_on_c, 0, 85, 0
2, 55736, Note_on_c, 0, 87, 0
2, 55739, Note_on_c, 0, 75, 0
2, 55739, Note_on_c, 0, 71, 0
2, 55739, Note_on_c, 0, 69, 0
2, 55739, Note_on_c, 0, 78, 0
2, 55742, Note_on_c, 0, 66, 0
2, 55742, Note_on_c, 0, 59, 0
2, 55742, Note_on_c, 0, 57, 0
2, 55742, Note_on_c, 0, 54, 0
2, 55742, Note_on_c, 0, 63, 0
2, 55745, Note_on_c, 0, 47, 0
2, 55748, Control_c, 0, 64, 0
2, 55786, Note_on_c, 0, 35, 0
2, 55822, Note_on_c, 0, 88, 46
2, 55857, Note_on_c, 0, 87, 48
2, 55860, Note_on_c, 0, 88, 0
2, 55909, Note_on_c, 0, 87, 0
2, 55920, Note_on_c, 0, 88, 51
2, 55939, Note_on_c, 0, 40, 48
2, 55939, Note_on_c, 0, 52, 48
2, 55955, Note_on_c, 0, 88, 0
2, 55971, Note_on_c, 0, 52, 0
2, 55977, Note_on_c, 0, 40, 0
2, 56013, Note_on_c, 0, 83, 45
2, 56029, Note_on_c, 0, 79, 41
2, 56045, Note_on_c, 0, 83, 0
2, 56059, Note_on_c, 0, 79, 0
2, 56091, Note_on_c, 0, 81, 48
2, 56091, Note_on_c, 0, 84, 47
2, 56094, Note_on_c, 0, 76, 42
2, 56121, Note_on_c, 0, 76, 0
2, 56130, Note_on_c, 0, 84, 0
2, 56130, Note_on_c, 0, 81, 0
2, 56133, Note_on_c, 0, 75, 48
2, 56162, Note_on_c, 0, 83, 46
2, 56165, Note_on_c, 0, 76, 44
2, 56165, Note_on_c, 0, 79, 43
2, 56168, Note_on_c, 0, 75, 0
2, 56193, Note_on_c, 0, 76, 0
2, 56202, Note_on_c, 0, 83, 0
2, 56205, Note_on_c, 0, 79, 0
2, 56237, Note_on_c, 0, 79, 46
2, 56240, Note_on_c, 0, 71, 42
2, 56240, Note_on_c, 0, 76, 43
2, 56276, Note_on_c, 0, 76, 0
2, 56276, Note_on_c, 0, 71, 0
2, 56276, Note_on_c, 0, 79, 0
2, 56311, Note_on_c, 0, 72, 46
2, 56317, Note_on_c, 0, 81, 46
2, 56320, Note_on_c, 0, 76, 47
2, 56345, Note_on_c, 0, 76, 0
2, 56345, Note_on_c, 0, 72, 0
2, 56355, Note_on_c, 0, 81, 0
2, 56355, Note_on_c, 0, 75, 47
2, 56391, Note_on_c, 0, 76, 47
2, 56391, Note_on_c, 0, 79, 47
2, 56394, Note_on_c, 0, 75, 0
2, 56404, Note_on_c, 0, 71, 45
2, 56429, Note_on_c, 0, 79, 0
2, 56429, Note_on_c, 0, 76, 0
2, 56443, Note_on_c, 0, 71, 0
2, 56472, Note_on_c, 0, 71, 42
2, 56486, Note_on_c, 0, 67, 47
2, 56486, Note_on_c, 0, 76, 41
2, 56511, Note_on_c, 0, 71, 0
2, 56521, Note_on_c, 0, 76, 0
2, 56524, Note_on_c, 0, 67, 0
2, 56546, Note_on_c, 0, 64, 44
2, 56557, Note_on_c, 0, 69, 46
2, 56557, Note_on_c, 0, 72, 44
2, 56557, Note_on_c, 0, 78, 44
2, 56570, Note_on_c, 0, 64, 0
2, 56581, Note_on_c, 0, 63, 47
2, 56590, Note_on_c, 0, 78, 0
2, 56592, Note_on_c, 0, 69, 0
2, 56592, Note_on_c, 0, 72, 0
2, 56617, Note_on_c, 0, 64, 51
2, 56620, Note_on_c, 0, 63, 0
2, 56640, Note_on_c, 0, 67, 49
2, 56640, Note_on_c, 0, 71, 52
2, 56640, Note_on_c, 0, 76, 51
2, 56653, Note_on_c, 0, 64, 0
2, 56675, Note_on_c, 0, 67, 0
2, 56675, Note_on_c, 0, 71, 0
2, 56675, Note_on_c, 0, 76, 0
2, 56721, Note_on_c, 0, 52, 46
2, 56721, Note_on_c, 0, 67, 46
2, 56730, Note_on_c, 0, 71, 47
2, 56755, Note_on_c, 0, 71, 0
2, 56755, Note_on_c, 0, 67, 0
2, 56758, Note_on_c, 0, 52, 0
2, 56799, Note_on_c, 0, 64, 48
2, 56799, Note_on_c, 0, 67, 48
2, 56799, Note_on_c, 0, 71, 46
2, 56834, Note_on_c, 0, 71, 0
2, 56834, Note_on_c, 0, 67, 0
2, 56834, Note_on_c, 0, 64, 0
2, 56834, Note_on_c, 0, 70, 45
2, 56870, Note_on_c, 0, 70, 0
2, 56880, Note_on_c, 0, 66, 51
2, 56880, Note_on_c, 0, 71, 49
2, 56883, Note_on_c, 0, 63, 49
2, 56919, Note_on_c, 0, 71, 0
2, 56919, Note_on_c, 0, 66, 0
2, 56922, Note_on_c, 0, 63, 0
2, 56966, Note_on_c, 0, 59, 43
2, 56972, Note_on_c, 0, 75, 41
2, 57001, Note_on_c, 0, 59, 0
2, 57012, Note_on_c, 0, 75, 0
2, 57034, Note_on_c, 0, 71, 47
2, 57048, Note_on_c, 0, 64, 44
2, 57048, Note_on_c, 0, 67, 41
2, 57061, Note_on_c, 0, 71, 0
2, 57070, Note_on_c, 0, 70, 47
2, 57080, Note_on_c, 0, 67, 0
2, 57083, Note_on_c, 0, 64, 0
2, 57102, Note_on_c, 0, 71, 53
2, 57105, Note_on_c, 0, 70, 0
2, 57116, Note_on_c, 0, 66, 53
2, 57119, Note_on_c, 0, 63, 49
2, 57141, Note_on_c, 0, 71, 0
2, 57151, Note_on_c, 0, 66, 0
2, 57154, Note_on_c, 0, 63, 0
2, 57181, Note_on_c, 0, 78, 42
2, 57197, Note_on_c, 0, 59, 42
2, 57219, Note_on_c, 0, 78, 0
2, 57233, Note_on_c, 0, 59, 0
2, 57239, Note_on_c, 0, 71, 43
2, 57252, Note_on_c, 0, 67, 46
2, 57255, Note_on_c, 0, 64, 47
2, 57277, Note_on_c, 0, 71, 0
2, 57286, Note_on_c, 0, 70, 48
2, 57288, Note_on_c, 0, 64, 0
2, 57288, Note_on_c, 0, 67, 0
2, 57313, Note_on_c, 0, 63, 56
2, 57324, Note_on_c, 0, 70, 0
2, 57324, Note_on_c, 0, 66, 57
2, 57324, Note_on_c, 0, 71, 54
2, 57349, Note_on_c, 0, 63, 0
2, 57360, Note_on_c, 0, 71, 0
2, 57360, Note_on_c, 0, 66, 0
2, 57389, Note_on_c, 0, 83, 41
2, 57395, Note_on_c, 0, 59, 42
2, 57401, Note_on_c, 0, 78, 47
2, 57404, Note_on_c, 0, 75, 44
2, 57426, Note_on_c, 0, 83, 0
2, 57432, Note_on_c, 0, 59, 0
2, 57442, Note_on_c, 0, 78, 0
2, 57442, Note_on_c, 0, 75, 0
2, 57464, Note_on_c, 0, 70, 41
2, 57473, Note_on_c, 0, 79, 43
2, 57476, Note_on_c, 0, 76, 43
2, 57503, Note_on_c, 0, 70, 0
2, 57513, Note_on_c, 0, 76, 0
2, 57513, Note_on_c, 0, 79, 0
2, 57546, Note_on_c, 0, 78, 52
2, 57559, Note_on_c, 0, 71, 52
2, 57559, Note_on_c, 0, 75, 48
2, 57581, Note_on_c, 0, 78, 0
2, 57595, Note_on_c, 0, 75, 0
2, 57595, Note_on_c, 0, 71, 0
2, 57620, Note_on_c, 0, 59, 48
2, 57655, Note_on_c, 0, 59, 0
2, 57685, Note_on_c, 0, 88, 43
2, 57723, Note_on_c, 0, 88, 0
2, 57732, Note_on_c, 0, 87, 53
2, 57768, Note_on_c, 0, 87, 0
2, 57768, Note_on_c, 0, 88, 48
2, 57781, Control_c, 0, 64, 127
2, 57787, Note_on_c, 0, 52, 44
2, 57790, Note_on_c, 0, 40, 43
2, 57874, Note_on_c, 0, 83, 42
2, 57877, Note_on_c, 0, 79, 46
2, 57932, Note_on_c, 0, 76, 41
2, 57940, Note_on_c, 0, 84, 47
2, 57943, Note_on_c, 0, 79, 0
2, 57943, Note_on_c, 0, 83, 0
2, 57954, Note_on_c, 0, 81, 48
2, 57957, Note_on_c, 0, 76, 0
2, 57965, Note_on_c, 0, 75, 48
2, 57987, Note_on_c, 0, 84, 0
2, 57987, Note_on_c, 0, 88, 0
2, 57987, Control_c, 0, 64, 0
2, 57990, Note_on_c, 0, 81, 0
2, 57990, Note_on_c, 0, 75, 0
2, 57993, Note_on_c, 0, 52, 0
2, 57996, Note_on_c, 0, 40, 0
2, 58002, Note_on_c, 0, 76, 43
2, 58010, Note_on_c, 0, 79, 42
2, 58010, Note_on_c, 0, 83, 41
2, 58037, Note_on_c, 0, 76, 0
2, 58046, Note_on_c, 0, 83, 0
2, 58049, Note_on_c, 0, 79, 0
2, 58081, Note_on_c, 0, 76, 48
2, 58084, Note_on_c, 0, 71, 42
2, 58095, Note_on_c, 0, 79, 48
2, 58117, Note_on_c, 0, 71, 0
2, 58117, Note_on_c, 0, 76, 0
2, 58128, Note_on_c, 0, 79, 0
2, 58147, Note_on_c, 0, 72, 46
2, 58147, Note_on_c, 0, 76, 45
2, 58147, Note_on_c, 0, 81, 41
2, 58174, Note_on_c, 0, 76, 0
2, 58182, Note_on_c, 0, 75, 47
2, 58185, Note_on_c, 0, 81, 0
2, 58185, Note_on_c, 0, 72, 0
2, 58215, Note_on_c, 0, 79, 47
2, 58218, Note_on_c, 0, 75, 0
2, 58218, Note_on_c, 0, 76, 45
2, 58221, Note_on_c, 0, 71, 41
2, 58253, Note_on_c, 0, 71, 0
2, 58253, Note_on_c, 0, 76, 0
2, 58253, Note_on_c, 0, 79, 0
2, 58299, Note_on_c, 0, 67, 42
2, 58299, Note_on_c, 0, 71, 46
2, 58308, Note_on_c, 0, 76, 46
2, 58335, Note_on_c, 0, 71, 0
2, 58335, Note_on_c, 0, 67, 0
2, 58345, Note_on_c, 0, 76, 0
2, 58354, Note_on_c, 0, 64, 47
2, 58365, Note_on_c, 0, 78, 47
2, 58368, Note_on_c, 0, 69, 45
2, 58378, Note_on_c, 0, 72, 43
2, 58392, Note_on_c, 0, 64, 0
2, 58402, Note_on_c, 0, 78, 0
2, 58402, Note_on_c, 0, 69, 0
2, 58405, Note_on_c, 0, 63, 47
2, 58414, Note_on_c, 0, 72, 0
2, 58436, Note_on_c, 0, 64, 53
2, 58439, Note_on_c, 0, 63, 0
2, 58447, Note_on_c, 0, 67, 50
2, 58450, Note_on_c, 0, 71, 53
2, 58459, Note_on_c, 0, 76, 52
2, 58475, Note_on_c, 0, 64, 0
2, 58484, Note_on_c, 0, 67, 0
2, 58484, Note_on_c, 0, 71, 0
2, 58494, Note_on_c, 0, 76, 0
2, 58521, Note_on_c, 0, 52, 45
2, 58530, Note_on_c, 0, 67, 47
2, 58533, Note_on_c, 0, 71, 44
2, 58555, Note_on_c, 0, 52, 0
2, 58563, Note_on_c, 0, 71, 0
2, 58563, Note_on_c, 0, 67, 0
2, 58596, Note_on_c, 0, 71, 47
2, 58599, Note_on_c, 0, 64, 47
2, 58608, Note_on_c, 0, 67, 45
2, 58621, Note_on_c, 0, 71, 0
2, 58632, Note_on_c, 0, 70, 41
2, 58634, Note_on_c, 0, 64, 0
2, 58645, Note_on_c, 0, 67, 0
2, 58654, Note_on_c, 0, 71, 52
2, 58664, Note_on_c, 0, 70, 0
2, 58675, Note_on_c, 0, 63, 48
2, 58675, Note_on_c, 0, 66, 51
2, 58700, Note_on_c, 0, 71, 0
2, 58713, Note_on_c, 0, 66, 0
2, 58713, Note_on_c, 0, 63, 0
2, 58754, Note_on_c, 0, 75, 48
2, 58757, Note_on_c, 0, 59, 42
2, 58787, Note_on_c, 0, 75, 0
2, 58793, Note_on_c, 0, 59, 0
2, 58812, Note_on_c, 0, 67, 42
2, 58812, Note_on_c, 0, 71, 47
2, 58825, Note_on_c, 0, 64, 48
2, 58836, Note_on_c, 0, 71, 0
2, 58847, Note_on_c, 0, 67, 0
2, 58847, Note_on_c, 0, 70, 46
2, 58860, Note_on_c, 0, 64, 0
2, 58882, Note_on_c, 0, 70, 0
2, 58882, Note_on_c, 0, 63, 53
2, 58882, Note_on_c, 0, 71, 52
2, 58896, Note_on_c, 0, 66, 52
2, 58918, Note_on_c, 0, 71, 0
2, 58920, Note_on_c, 0, 63, 0
2, 58929, Note_on_c, 0, 66, 0
2, 58959, Note_on_c, 0, 78, 43
2, 58975, Note_on_c, 0, 59, 42
2, 58994, Note_on_c, 0, 78, 0
2, 59008, Note_on_c, 0, 64, 41
2, 59008, Note_on_c, 0, 71, 47
2, 59011, Note_on_c, 0, 59, 0
2, 59016, Note_on_c, 0, 67, 41
2, 59030, Note_on_c, 0, 71, 0
2, 59039, Note_on_c, 0, 70, 43
2, 59041, Note_on_c, 0, 64, 0
2, 59052, Note_on_c, 0, 67, 0
2, 59065, Note_on_c, 0, 63, 60
2, 59074, Note_on_c, 0, 71, 60
2, 59077, Note_on_c, 0, 70, 0
2, 59077, Note_on_c, 0, 66, 58
2, 59102, Note_on_c, 0, 63, 0
2, 59112, Note_on_c, 0, 66, 0
2, 59112, Note_on_c, 0, 71, 0
2, 59148, Note_on_c, 0, 59, 47
2, 59154, Note_on_c, 0, 75, 48
2, 59154, Note_on_c, 0, 78, 46
2, 59154, Note_on_c, 0, 83, 48
2, 59181, Note_on_c, 0, 59, 0
2, 59189, Note_on_c, 0, 75, 0
2, 59189, Note_on_c, 0, 78, 0
2, 59189, Note_on_c, 0, 83, 0
2, 59225, Note_on_c, 0, 70, 44
2, 59235, Note_on_c, 0, 76, 42
2, 59238, Note_on_c, 0, 79, 42
2, 59263, Note_on_c, 0, 70, 0
2, 59272, Note_on_c, 0, 79, 0
2, 59275, Note_on_c, 0, 76, 0
2, 59310, Note_on_c, 0, 71, 49
2, 59310, Note_on_c, 0, 78, 48
2, 59319, Note_on_c, 0, 75, 47
2, 59344, Note_on_c, 0, 78, 0
2, 59347, Note_on_c, 0, 71, 0
2, 59357, Note_on_c, 0, 75, 0
2, 59379, Note_on_c, 0, 59, 41
2, 59418, Note_on_c, 0, 59, 0
2, 59450, Note_on_c, 0, 62, 45
2, 59450, Note_on_c, 0, 65, 47
2, 59450, Note_on_c, 0, 69, 41
2, 59475, Note_on_c, 0, 69, 0
2, 59484, Note_on_c, 0, 65, 0
2, 59484, Note_on_c, 0, 68, 48
2, 59487, Note_on_c, 0, 62, 0
2, 59506, Note_on_c, 0, 64, 53
2, 59509, Note_on_c, 0, 61, 53
2, 59520, Note_on_c, 0, 68, 0
2, 59520, Note_on_c, 0, 69, 50
2, 59542, Note_on_c, 0, 61, 0
2, 59542, Note_on_c, 0, 64, 0
2, 59552, Note_on_c, 0, 69, 0
2, 59585, Note_on_c, 0, 73, 48
2, 59591, Note_on_c, 0, 57, 43
2, 59623, Note_on_c, 0, 73, 0
2, 59626, Note_on_c, 0, 57, 0
2, 59667, Note_on_c, 0, 65, 46
2, 59667, Note_on_c, 0, 69, 42
2, 59681, Note_on_c, 0, 62, 44
2, 59691, Note_on_c, 0, 69, 0
2, 59705, Note_on_c, 0, 65, 0
2, 59705, Note_on_c, 0, 68, 47
2, 59715, Note_on_c, 0, 62, 0
2, 59726, Note_on_c, 0, 61, 51
2, 59726, Note_on_c, 0, 64, 54
2, 59736, Note_on_c, 0, 68, 0
2, 59736, Note_on_c, 0, 69, 53
2, 59759, Note_on_c, 0, 64, 0
2, 59761, Note_on_c, 0, 61, 0
2, 59770, Note_on_c, 0, 69, 0
2, 59811, Note_on_c, 0, 57, 44
2, 59820, Note_on_c, 0, 76, 42
2, 59847, Note_on_c, 0, 57, 0
2, 59856, Note_on_c, 0, 76, 0
2, 59858, Note_on_c, 0, 62, 46
2, 59858, Note_on_c, 0, 65, 44
2, 59858, Note_on_c, 0, 69, 41
2, 59878, Note_on_c, 0, 69, 0
2, 59891, Note_on_c, 0, 65, 0
2, 59891, Note_on_c, 0, 62, 0
2, 59891, Note_on_c, 0, 68, 42
2, 59924, Note_on_c, 0, 64, 53
2, 59924, Note_on_c, 0, 69, 57
2, 59927, Note_on_c, 0, 68, 0
2, 59927, Note_on_c, 0, 61, 60
2, 59959, Note_on_c, 0, 61, 0
2, 59959, Note_on_c, 0, 69, 0
2, 59959, Note_on_c, 0, 64, 0
2, 59986, Note_on_c, 0, 57, 47
2, 59995, Note_on_c, 0, 76, 45
2, 59995, Note_on_c, 0, 81, 42
2, 60008, Note_on_c, 0, 73, 43
2, 60019, Note_on_c, 0, 57, 0
2, 60029, Note_on_c, 0, 76, 0
2, 60029, Note_on_c, 0, 81, 0
2, 60043, Note_on_c, 0, 73, 0
2, 60065, Note_on_c, 0, 77, 47
2, 60068, Note_on_c, 0, 68, 47
2, 60078, Note_on_c, 0, 74, 43
2, 60103, Note_on_c, 0, 77, 0
2, 60106, Note_on_c, 0, 68, 0
2, 60117, Note_on_c, 0, 74, 0
2, 60139, Note_on_c, 0, 69, 47
2, 60158, Note_on_c, 0, 73, 50
2, 60158, Note_on_c, 0, 76, 53
2, 60177, Note_on_c, 0, 69, 0
2, 60199, Note_on_c, 0, 76, 0
2, 60199, Note_on_c, 0, 73, 0
2, 60213, Note_on_c, 0, 57, 45
2, 60245, Note_on_c, 0, 57, 0
2, 60275, Note_on_c, 0, 67, 43
2, 60281, Note_on_c, 0, 63, 48
2, 60289, Note_on_c, 0, 60, 47
2, 60314, Note_on_c, 0, 67, 0
2, 60317, Note_on_c, 0, 63, 0
2, 60323, Note_on_c, 0, 66, 43
2, 60326, Note_on_c, 0, 60, 0
2, 60359, Note_on_c, 0, 66, 0
2, 60359, Note_on_c, 0, 59, 60
2, 60359, Note_on_c, 0, 62, 57
2, 60359, Note_on_c, 0, 67, 56
2, 60391, Note_on_c, 0, 67, 0
2, 60394, Note_on_c, 0, 62, 0
2, 60397, Note_on_c, 0, 59, 0
2, 60441, Note_on_c, 0, 55, 46
2, 60450, Note_on_c, 0, 71, 44
2, 60477, Note_on_c, 0, 55, 0
2, 60485, Note_on_c, 0, 71, 0
2, 60521, Note_on_c, 0, 67, 41
2, 60531, Note_on_c, 0, 60, 42
2, 60534, Note_on_c, 0, 63, 46
2, 60548, Note_on_c, 0, 67, 0
2, 60553, Note_on_c, 0, 66, 46
2, 60567, Note_on_c, 0, 60, 0
2, 60570, Note_on_c, 0, 63, 0
2, 60589, Note_on_c, 0, 62, 49
2, 60589, Note_on_c, 0, 67, 53
2, 60592, Note_on_c, 0, 66, 0
2, 60592, Note_on_c, 0, 59, 51
2, 60624, Note_on_c, 0, 67, 0
2, 60627, Note_on_c, 0, 59, 0
2, 60627, Note_on_c, 0, 62, 0
2, 60676, Note_on_c, 0, 55, 43
2, 60685, Note_on_c, 0, 74, 42
2, 60712, Note_on_c, 0, 55, 0
2, 60720, Note_on_c, 0, 74, 0
2, 60734, Note_on_c, 0, 63, 48
2, 60744, Note_on_c, 0, 60, 48
2, 60744, Note_on_c, 0, 67, 44
2, 60769, Note_on_c, 0, 67, 0
2, 60769, Note_on_c, 0, 63, 0
2, 60769, Note_on_c, 0, 66, 41
2, 60780, Note_on_c, 0, 60, 0
2, 60805, Note_on_c, 0, 66, 0
2, 60816, Note_on_c, 0, 62, 57
2, 60816, Note_on_c, 0, 67, 53
2, 60818, Note_on_c, 0, 59, 56
2, 60848, Note_on_c, 0, 67, 0
2, 60851, Note_on_c, 0, 59, 0
2, 60851, Note_on_c, 0, 62, 0
2, 60884, Note_on_c, 0, 79, 41
2, 60900, Note_on_c, 0, 55, 44
2, 60922, Note_on_c, 0, 79, 0
2, 60938, Note_on_c, 0, 55, 0
2, 60980, Note_on_c, 0, 67, 46
2, 61007, Note_on_c, 0, 67, 0
2, 61017, Note_on_c, 0, 66, 48
2, 61039, Note_on_c, 0, 77, 49
2, 61042, Note_on_c, 0, 71, 54
2, 61042, Note_on_c, 0, 74, 53
2, 61056, Note_on_c, 0, 66, 0
2, 61056, Note_on_c, 0, 67, 50
2, 61075, Note_on_c, 0, 77, 0
2, 61078, Note_on_c, 0, 74, 0
2, 61078, Note_on_c, 0, 71, 0
2, 61091, Note_on_c, 0, 67, 0
2, 61149, Note_on_c, 0, 55, 43
2, 61184, Note_on_c, 0, 55, 0
2, 61214, Note_on_c, 0, 67, 45
2, 61252, Note_on_c, 0, 67, 0
2, 61263, Note_on_c, 0, 66, 44
2, 61296, Note_on_c, 0, 67, 49
2, 61296, Note_on_c, 0, 72, 48
2, 61296, Note_on_c, 0, 76, 47
2, 61298, Note_on_c, 0, 66, 0
2, 61331, Note_on_c, 0, 67, 0
2, 61331, Note_on_c, 0, 72, 0
2, 61331, Note_on_c, 0, 76, 0
2, 61380, Note_on_c, 0, 55, 46
2, 61416, Note_on_c, 0, 55, 0
2, 61445, Note_on_c, 0, 67, 46
2, 61470, Note_on_c, 0, 67, 0
2, 61481, Note_on_c, 0, 66, 43
2, 61516, Note_on_c, 0, 66, 0
2, 61516, Note_on_c, 0, 67, 54
2, 61525, Note_on_c, 0, 72, 51
2, 61525, Note_on_c, 0, 75, 48
2, 61550, Note_on_c, 0, 67, 0
2, 61563, Note_on_c, 0, 75, 0
2, 61563, Note_on_c, 0, 72, 0
2, 61609, Note_on_c, 0, 55, 43
2, 61645, Note_on_c, 0, 55, 0
2, 61651, Note_on_c, 0, 67, 46
2, 61659, Note_on_c, 0, 83, 46
2, 61662, Note_on_c, 0, 79, 48
2, 61676, Note_on_c, 0, 67, 0
2, 61686, Note_on_c, 0, 79, 0
2, 61686, Note_on_c, 0, 83, 0
2, 61689, Note_on_c, 0, 66, 43
2, 61695, Note_on_c, 0, 82, 49
2, 61695, Note_on_c, 0, 78, 52
2, 61717, Note_on_c, 0, 67, 48
2, 61720, Note_on_c, 0, 66, 0
2, 61728, Note_on_c, 0, 83, 51
2, 61731, Note_on_c, 0, 82, 0
2, 61731, Note_on_c, 0, 78, 0
2, 61731, Note_on_c, 0, 79, 48
2, 61753, Note_on_c, 0, 67, 0
2, 61780, Note_on_c, 0, 55, 47
2, 61797, Note_on_c, 0, 83, 0
2, 61800, Note_on_c, 0, 79, 0
2, 61816, Note_on_c, 0, 55, 0
2, 61824, Note_on_c, 0, 71, 41
2, 61893, Note_on_c, 0, 83, 41
2, 61896, Note_on_c, 0, 71, 0
2, 61898, Note_on_c, 0, 47, 48
2, 61904, Note_on_c, 0, 79, 41
2, 61929, Note_on_c, 0, 79, 0
2, 61929, Note_on_c, 0, 83, 0
2, 61929, Note_on_c, 0, 78, 54
2, 61962, Note_on_c, 0, 78, 0
2, 61970, Note_on_c, 0, 83, 50
2, 61973, Note_on_c, 0, 79, 52
2, 61982, Note_on_c, 0, 35, 42
2, 61995, Control_c, 0, 64, 127
2, 62012, Note_on_c, 0, 47, 0
2, 62053, Note_on_c, 0, 71, 44
2, 62053, Note_on_c, 0, 47, 42
2, 62062, Note_on_c, 0, 83, 0
2, 62062, Note_on_c, 0, 79, 0
2, 62127, Note_on_c, 0, 79, 42
2, 62127, Note_on_c, 0, 83, 45
2, 62130, Note_on_c, 0, 59, 45
2, 62149, Control_c, 0, 64, 0
2, 62152, Note_on_c, 0, 83, 0
2, 62152, Note_on_c, 0, 79, 0
2, 62152, Note_on_c, 0, 71, 0
2, 62158, Note_on_c, 0, 35, 0
2, 62158, Note_on_c, 0, 47, 0
2, 62160, Note_on_c, 0, 78, 59
2, 62166, Note_on_c, 0, 59, 0
2, 62196, Note_on_c, 0, 78, 0
2, 62196, Note_on_c, 0, 79, 58
2, 62196, Note_on_c, 0, 83, 54
2, 62209, Note_on_c, 0, 60, 60
2, 62245, Note_on_c, 0, 60, 0
2, 62261, Note_on_c, 0, 83, 0
2, 62264, Note_on_c, 0, 79, 0
2, 62280, Note_on_c, 0, 48, 47
2, 62289, Note_on_c, 0, 71, 45
2, 62316, Note_on_c, 0, 48, 0
2, 62357, Note_on_c, 0, 71, 0
2, 62366, Note_on_c, 0, 79, 42
2, 62366, Note_on_c, 0, 83, 41
2, 62375, Note_on_c, 0, 36, 48
2, 62391, Note_on_c, 0, 83, 0
2, 62394, Note_on_c, 0, 79, 0
2, 62394, Note_on_c, 0, 78, 48
2, 62410, Note_on_c, 0, 36, 0
2, 62426, Note_on_c, 0, 78, 0
2, 62435, Note_on_c, 0, 79, 41
2, 62435, Note_on_c, 0, 83, 48
2, 62441, Note_on_c, 0, 37, 54
2, 62506, Note_on_c, 0, 83, 0
2, 62506, Note_on_c, 0, 79, 0
2, 62506, Control_c, 0, 64, 127
2, 62509, Note_on_c, 0, 71, 47
2, 62520, Note_on_c, 0, 49, 44
2, 62583, Note_on_c, 0, 83, 48
2, 62586, Note_on_c, 0, 79, 42
2, 62599, Note_on_c, 0, 61, 47
2, 62608, Note_on_c, 0, 79, 0
2, 62608, Note_on_c, 0, 83, 0
2, 62616, Note_on_c, 0, 78, 56
2, 62625, Note_on_c, 0, 49, 0
2, 62625, Note_on_c, 0, 37, 0
2, 62634, Note_on_c, 0, 61, 0
2, 62644, Note_on_c, 0, 71, 0
2, 62653, Note_on_c, 0, 79, 54
2, 62656, Note_on_c, 0, 78, 0
2, 62662, Control_c, 0, 64, 0
2, 62664, Note_on_c, 0, 83, 58
2, 62664, Note_on_c, 0, 62, 53
2, 62703, Note_on_c, 0, 62, 0
2, 62733, Note_on_c, 0, 71, 45
2, 62736, Note_on_c, 0, 83, 0
2, 62736, Note_on_c, 0, 79, 0
2, 62738, Note_on_c, 0, 50, 43
2, 62777, Note_on_c, 0, 50, 0
2, 62804, Note_on_c, 0, 79, 44
2, 62804, Note_on_c, 0, 83, 43
2, 62807, Note_on_c, 0, 71, 0
2, 62820, Note_on_c, 0, 38, 46
2, 62836, Note_on_c, 0, 78, 50
2, 62839, Note_on_c, 0, 83, 0
2, 62839, Note_on_c, 0, 79, 0
2, 62856, Note_on_c, 0, 38, 0
2, 62872, Note_on_c, 0, 78, 0
2, 62878, Note_on_c, 0, 39, 52
2, 62880, Note_on_c, 0, 83, 49
2, 62883, Note_on_c, 0, 79, 44
2, 62916, Control_c, 0, 64, 127
2, 62932, Note_on_c, 0, 79, 0
2, 62932, Note_on_c, 0, 51, 55
2, 62932, Note_on_c, 0, 71, 47
2, 62941, Note_on_c, 0, 83, 0
2, 62968, Note_on_c, 0, 63, 50
2, 62998, Note_on_c, 0, 79, 49
2, 63008, Note_on_c, 0, 83, 46
2, 63022, Note_on_c, 0, 79, 0
2, 63030, Note_on_c, 0, 83, 0
2, 63041, Note_on_c, 0, 78, 47
2, 63057, Note_on_c, 0, 51, 0
2, 63068, Note_on_c, 0, 64, 51
2, 63073, Note_on_c, 0, 39, 0
2, 63076, Note_on_c, 0, 79, 53
2, 63076, Note_on_c, 0, 83, 59
2, 63090, Note_on_c, 0, 63, 0
2, 63090, Note_on_c, 0, 71, 0
2, 63100, Note_on_c, 0, 79, 0
2, 63155, Note_on_c, 0, 79, 61
2, 63155, Note_on_c, 0, 84, 63
2, 63166, Note_on_c, 0, 78, 0
2, 63166, Note_on_c, 0, 83, 0
2, 63168, Note_on_c, 0, 63, 64
2, 63191, Note_on_c, 0, 64, 0
2, 63207, Control_c, 0, 64, 0
2, 63232, Note_on_c, 0, 83, 59
2, 63235, Note_on_c, 0, 78, 56
2, 63238, Note_on_c, 0, 62, 62
2, 63257, Note_on_c, 0, 84, 0
2, 63260, Note_on_c, 0, 79, 0
2, 63263, Note_on_c, 0, 63, 0
2, 63271, Note_on_c, 0, 83, 0
2, 63271, Note_on_c, 0, 78, 0
2, 63274, Note_on_c, 0, 62, 0
2, 63307, Note_on_c, 0, 60, 60
2, 63315, Note_on_c, 0, 81, 59
2, 63318, Note_on_c, 0, 76, 53
2, 63343, Note_on_c, 0, 60, 0
2, 63354, Note_on_c, 0, 76, 0
2, 63354, Note_on_c, 0, 81, 0
2, 63379, Note_on_c, 0, 74, 55
2, 63379, Note_on_c, 0, 79, 58
2, 63382, Note_on_c, 0, 59, 65
2, 63414, Note_on_c, 0, 59, 0
2, 63414, Note_on_c, 0, 79, 0
2, 63414, Note_on_c, 0, 74, 0
2, 63447, Note_on_c, 0, 62, 62
2, 63447, Note_on_c, 0, 78, 60
2, 63460, Note_on_c, 0, 72, 56
2, 63482, Note_on_c, 0, 78, 0
2, 63485, Note_on_c, 0, 62, 0
2, 63496, Note_on_c, 0, 72, 0
2, 63512, Note_on_c, 0, 55, 64
2, 63523, Note_on_c, 0, 71, 55
2, 63531, Note_on_c, 0, 79, 54
2, 63548, Note_on_c, 0, 55, 0
2, 63558, Note_on_c, 0, 71, 0
2, 63569, Note_on_c, 0, 79, 0
2, 63615, Note_on_c, 0, 79, 47
2, 63615, Note_on_c, 0, 83, 45
2, 63640, Note_on_c, 0, 83, 0
2, 63640, Note_on_c, 0, 79, 0
2, 63650, Note_on_c, 0, 78, 46
2, 63650, Note_on_c, 0, 81, 44
2, 63675, Note_on_c, 0, 81, 0
2, 63675, Note_on_c, 0, 78, 0
2, 63686, Note_on_c, 0, 79, 46
2, 63686, Note_on_c, 0, 83, 44
2, 63711, Note_on_c, 0, 83, 0
2, 63711, Note_on_c, 0, 79, 0
2, 63714, Note_on_c, 0, 47, 41
2, 63722, Note_on_c, 0, 78, 48
2, 63722, Note_on_c, 0, 81, 47
2, 63747, Note_on_c, 0, 78, 0
2, 63750, Note_on_c, 0, 81, 0
2, 63753, Note_on_c, 0, 47, 0
2, 63759, Note_on_c, 0, 79, 44
2, 63759, Note_on_c, 0, 83, 41
2, 63781, Note_on_c, 0, 83, 0
2, 63781, Note_on_c, 0, 79, 0
2, 63792, Note_on_c, 0, 78, 47
2, 63792, Note_on_c, 0, 81, 48
2, 63797, Note_on_c, 0, 35, 51
2, 63816, Note_on_c, 0, 81, 0
2, 63816, Note_on_c, 0, 78, 0
2, 63827, Note_on_c, 0, 79, 46
2, 63827, Note_on_c, 0, 83, 46
2, 63852, Note_on_c, 0, 79, 0
2, 63863, Note_on_c, 0, 78, 45
2, 63863, Note_on_c, 0, 81, 43
2, 63868, Note_on_c, 0, 35, 0
2, 63877, Note_on_c, 0, 47, 48
2, 63886, Note_on_c, 0, 79, 48
2, 63888, Note_on_c, 0, 47, 0
2, 63891, Note_on_c, 0, 81, 0
2, 63918, Note_on_c, 0, 79, 0
2, 63918, Note_on_c, 0, 81, 43
2, 63921, Note_on_c, 0, 59, 48
2, 63930, Note_on_c, 0, 83, 0
2, 63943, Note_on_c, 0, 78, 0
2, 63954, Note_on_c, 0, 59, 0
2, 63964, Note_on_c, 0, 81, 0
2, 63964, Note_on_c, 0, 79, 44
2, 63973, Note_on_c, 0, 83, 47
2, 63986, Note_on_c, 0, 79, 0
2, 63986, Note_on_c, 0, 78, 43
2, 64008, Note_on_c, 0, 81, 41
2, 64022, Note_on_c, 0, 78, 0
2, 64022, Note_on_c, 0, 83, 0
2, 64035, Note_on_c, 0, 60, 60
2, 64035, Note_on_c, 0, 79, 42
2, 64057, Note_on_c, 0, 81, 0
2, 64068, Note_on_c, 0, 78, 48
2, 64068, Note_on_c, 0, 83, 45
2, 64079, Note_on_c, 0, 79, 0
2, 64095, Note_on_c, 0, 48, 41
2, 64104, Note_on_c, 0, 83, 0
2, 64104, Note_on_c, 0, 78, 0
2, 64104, Note_on_c, 0, 81, 43
2, 64106, Note_on_c, 0, 60, 0
2, 64128, Note_on_c, 0, 79, 41
2, 64131, Note_on_c, 0, 81, 0
2, 64134, Note_on_c, 0, 48, 0
2, 64151, Note_on_c, 0, 83, 41
2, 64153, Note_on_c, 0, 78, 47
2, 64164, Note_on_c, 0, 79, 0
2, 64175, Note_on_c, 0, 78, 0
2, 64175, Note_on_c, 0, 83, 0
2, 64175, Note_on_c, 0, 81, 47
2, 64201, Note_on_c, 0, 36, 48
2, 64210, Note_on_c, 0, 79, 44
2, 64213, Note_on_c, 0, 81, 0
2, 64224, Note_on_c, 0, 78, 42
2, 64224, Note_on_c, 0, 83, 46
2, 64240, Note_on_c, 0, 36, 0
2, 64248, Note_on_c, 0, 79, 0
2, 64257, Note_on_c, 0, 81, 44
2, 64260, Note_on_c, 0, 78, 0
2, 64260, Note_on_c, 0, 83, 0
2, 64285, Note_on_c, 0, 37, 57
2, 64296, Note_on_c, 0, 81, 0
2, 64296, Note_on_c, 0, 79, 47
2, 64306, Note_on_c, 0, 83, 45
2, 64331, Note_on_c, 0, 79, 0
2, 64331, Note_on_c, 0, 78, 44
2, 64340, Note_on_c, 0, 81, 41
2, 64343, Note_on_c, 0, 83, 0
2, 64359, Note_on_c, 0, 37, 0
2, 64365, Note_on_c, 0, 78, 0
2, 64370, Note_on_c, 0, 49, 48
2, 64376, Note_on_c, 0, 81, 0
2, 64379, Note_on_c, 0, 79, 46
2, 64390, Note_on_c, 0, 83, 41
2, 64406, Note_on_c, 0, 49, 0
2, 64412, Note_on_c, 0, 78, 43
2, 64415, Note_on_c, 0, 79, 0
2, 64423, Note_on_c, 0, 81, 42
2, 64426, Note_on_c, 0, 83, 0
2, 64451, Note_on_c, 0, 78, 0
2, 64462, Note_on_c, 0, 79, 43
2, 64464, Note_on_c, 0, 81, 0
2, 64464, Note_on_c, 0, 61, 41
2, 64473, Note_on_c, 0, 83, 44
2, 64498, Note_on_c, 0, 61, 0
2, 64498, Note_on_c, 0, 79, 0
2, 64498, Note_on_c, 0, 78, 42
2, 64509, Note_on_c, 0, 81, 43
2, 64512, Note_on_c, 0, 83, 0
2, 64534, Note_on_c, 0, 78, 0
2, 64544, Note_on_c, 0, 81, 0
2, 64544, Note_on_c, 0, 79, 48
2, 64555, Note_on_c, 0, 83, 43
2, 64558, Note_on_c, 0, 62, 44
2, 64580, Note_on_c, 0, 78, 48
2, 64583, Note_on_c, 0, 79, 0
2, 64588, Note_on_c, 0, 83, 0
2, 64588, Note_on_c, 0, 81, 46
2, 64605, Note_on_c, 0, 50, 44
2, 64615, Note_on_c, 0, 78, 0
2, 64626, Note_on_c, 0, 79, 44
2, 64629, Note_on_c, 0, 62, 0
2, 64629, Note_on_c, 0, 81, 0
2, 64634, Note_on_c, 0, 83, 44
2, 64640, Note_on_c, 0, 50, 0
2, 64659, Note_on_c, 0, 78, 42
2, 64662, Note_on_c, 0, 79, 0
2, 64671, Note_on_c, 0, 81, 44
2, 64674, Note_on_c, 0, 83, 0
2, 64696, Note_on_c, 0, 78, 0
2, 64699, Note_on_c, 0, 38, 47
2, 64707, Note_on_c, 0, 79, 42
2, 64710, Note_on_c, 0, 81, 0
2, 64719, Note_on_c, 0, 83, 47
2, 64738, Note_on_c, 0, 38, 0
2, 64744, Note_on_c, 0, 78, 41
2, 64747, Note_on_c, 0, 79, 0
2, 64752, Note_on_c, 0, 81, 43
2, 64755, Note_on_c, 0, 83, 0
2, 64777, Note_on_c, 0, 78, 0
2, 64788, Note_on_c, 0, 79, 46
2, 64791, Note_on_c, 0, 81, 0
2, 64794, Note_on_c, 0, 39, 53
2, 64802, Note_on_c, 0, 83, 43
2, 64822, Note_on_c, 0, 78, 47
2, 64824, Note_on_c, 0, 79, 0
2, 64835, Note_on_c, 0, 83, 0
2, 64835, Note_on_c, 0, 81, 42
2, 64841, Control_c, 0, 64, 127
2, 64849, Note_on_c, 0, 51, 49
2, 64860, Note_on_c, 0, 78, 0
2, 64869, Note_on_c, 0, 79, 46
2, 64872, Note_on_c, 0, 81, 0
2, 64877, Note_on_c, 0, 83, 42
2, 64902, Note_on_c, 0, 78, 42
2, 64905, Note_on_c, 0, 79, 0
2, 64916, Note_on_c, 0, 83, 0
2, 64916, Note_on_c, 0, 63, 50
2, 64916, Note_on_c, 0, 81, 42
2, 64941, Note_on_c, 0, 78, 0
2, 64949, Note_on_c, 0, 81, 0
2, 64949, Note_on_c, 0, 79, 43
2, 64955, Note_on_c, 0, 39, 0
2, 64961, Note_on_c, 0, 83, 44
2, 64977, Note_on_c, 0, 63, 0
2, 64980, Note_on_c, 0, 51, 0
2, 64986, Note_on_c, 0, 78, 46
2, 64989, Note_on_c, 0, 79, 0
2, 64997, Note_on_c, 0, 83, 0
2, 65000, Note_on_c, 0, 64, 66
2, 65000, Note_on_c, 0, 81, 59
2, 65022, Note_on_c, 0, 78, 0
2, 65033, Note_on_c, 0, 81, 0
2, 65033, Note_on_c, 0, 79, 54
2, 65036, Note_on_c, 0, 64, 0
2, 65044, Note_on_c, 0, 83, 60
2, 65053, Control_c, 0, 64, 0
2, 65072, Note_on_c, 0, 79, 0
2, 65083, Note_on_c, 0, 83, 0
2, 65086, Note_on_c, 0, 63, 57
2, 65102, Note_on_c, 0, 84, 64
2, 65105, Note_on_c, 0, 79, 61
2, 65118, Note_on_c, 0, 63, 0
2, 65137, Note_on_c, 0, 79, 0
2, 65137, Note_on_c, 0, 84, 0
2, 65170, Note_on_c, 0, 78, 60
2, 65170, Note_on_c, 0, 83, 59
2, 65173, Note_on_c, 0, 62, 58
2, 65208, Note_on_c, 0, 83, 0
2, 65208, Note_on_c, 0, 78, 0
2, 65211, Note_on_c, 0, 62, 0
2, 65277, Note_on_c, 0, 76, 58
2, 65277, Note_on_c, 0, 81, 54
2, 65280, Note_on_c, 0, 60, 54
2, 65312, Note_on_c, 0, 60, 0
2, 65312, Note_on_c, 0, 81, 0
2, 65312, Note_on_c, 0, 76, 0
2, 65334, Note_on_c, 0, 74, 53
2, 65334, Note_on_c, 0, 79, 58
2, 65337, Note_on_c, 0, 59, 54
2, 65373, Note_on_c, 0, 79, 0
2, 65373, Note_on_c, 0, 74, 0
2, 65376, Note_on_c, 0, 59, 0
2, 65405, Note_on_c, 0, 62, 59
2, 65405, Note_on_c, 0, 72, 60
2, 65405, Note_on_c, 0, 78, 53
2, 65441, Note_on_c, 0, 78, 0
2, 65441, Note_on_c, 0, 72, 0
2, 65444, Note_on_c, 0, 62, 0
2, 65473, Note_on_c, 0, 71, 60
2, 65473, Note_on_c, 0, 79, 55
2, 65476, Note_on_c, 0, 55, 55
2, 65509, Note_on_c, 0, 55, 0
2, 65509, Note_on_c, 0, 79, 0
2, 65509, Note_on_c, 0, 71, 0
2, 65542, Note_on_c, 0, 74, 41
2, 65544, Note_on_c, 0, 71, 47
2, 65577, Note_on_c, 0, 71, 0
2, 65577, Note_on_c, 0, 74, 0
2, 65610, Note_on_c, 0, 67, 42
2, 65610, Note_on_c, 0, 72, 43
2, 65623, Note_on_c, 0, 75, 45
2, 65645, Note_on_c, 0, 67, 0
2, 65645, Note_on_c, 0, 66, 41
2, 65681, Note_on_c, 0, 66, 0
2, 65689, Note_on_c, 0, 75, 0
2, 65689, Note_on_c, 0, 71, 47
2, 65692, Note_on_c, 0, 72, 0
2, 65692, Note_on_c, 0, 67, 43
2, 65692, Note_on_c, 0, 74, 44
2, 65725, Note_on_c, 0, 74, 0
2, 65725, Note_on_c, 0, 67, 0
2, 65725, Note_on_c, 0, 71, 0
2, 65747, Note_on_c, 0, 62, 47
2, 65785, Note_on_c, 0, 62, 0
2, 65815, Note_on_c, 0, 63, 44
2, 65815, Note_on_c, 0, 72, 41
2, 65815, Note_on_c, 0, 79, 44
2, 65840, Note_on_c, 0, 79, 0
2, 65851, Note_on_c, 0, 78, 44
2, 65854, Note_on_c, 0, 72, 0
2, 65856, Note_on_c, 0, 63, 0
2, 65876, Note_on_c, 0, 62, 53
2, 65886, Note_on_c, 0, 78, 0
2, 65886, Note_on_c, 0, 71, 50
2, 65886, Note_on_c, 0, 79, 48
2, 65892, Note_on_c, 0, 55, 48
2, 65911, Note_on_c, 0, 62, 0
2, 65922, Note_on_c, 0, 71, 0
2, 65922, Note_on_c, 0, 79, 0
2, 65922, Note_on_c, 0, 55, 0
2, 65968, Note_on_c, 0, 71, 41
2, 65968, Note_on_c, 0, 74, 42
2, 66003, Note_on_c, 0, 74, 0
2, 66003, Note_on_c, 0, 71, 0
2, 66049, Note_on_c, 0, 67, 46
2, 66049, Note_on_c, 0, 72, 43
2, 66049, Note_on_c, 0, 75, 41
2, 66072, Note_on_c, 0, 67, 0
2, 66082, Note_on_c, 0, 66, 42
2, 66115, Note_on_c, 0, 75, 0
2, 66115, Note_on_c, 0, 72, 0
2, 66115, Note_on_c, 0, 67, 49
2, 66118, Note_on_c, 0, 66, 0
2, 66140, Note_on_c, 0, 71, 44
2, 66140, Note_on_c, 0, 74, 42
2, 66148, Note_on_c, 0, 67, 0
2, 66173, Note_on_c, 0, 74, 0
2, 66173, Note_on_c, 0, 71, 0
2, 66187, Note_on_c, 0, 62, 47
2, 66241, Note_on_c, 0, 63, 46
2, 66252, Note_on_c, 0, 79, 45
2, 66255, Note_on_c, 0, 62, 0
2, 66265, Note_on_c, 0, 72, 44
2, 66276, Note_on_c, 0, 79, 0
2, 66276, Note_on_c, 0, 78, 43
2, 66279, Note_on_c, 0, 63, 0
2, 66301, Note_on_c, 0, 72, 0
2, 66312, Note_on_c, 0, 78, 0
2, 66317, Note_on_c, 0, 71, 54
2, 66317, Note_on_c, 0, 79, 53
2, 66323, Note_on_c, 0, 55, 53
2, 66332, Note_on_c, 0, 62, 59
2, 66357, Note_on_c, 0, 55, 0
2, 66357, Note_on_c, 0, 71, 0
2, 66357, Note_on_c, 0, 79, 0
2, 66367, Note_on_c, 0, 62, 0
2, 66403, Note_on_c, 0, 74, 45
2, 66449, Note_on_c, 0, 74, 0
2, 66465, Note_on_c, 0, 72, 47
2, 66471, Note_on_c, 0, 55, 44
2, 66480, Note_on_c, 0, 79, 46
2, 66482, Note_on_c, 0, 63, 45
2, 66504, Note_on_c, 0, 55, 0
2, 66504, Note_on_c, 0, 72, 0
2, 66515, Note_on_c, 0, 79, 0
2, 66515, Note_on_c, 0, 78, 49
2, 66518, Note_on_c, 0, 63, 0
2, 66548, Note_on_c, 0, 71, 53
2, 66551, Note_on_c, 0, 55, 49
2, 66559, Note_on_c, 0, 62, 48
2, 66559, Note_on_c, 0, 79, 48
2, 66581, Note_on_c, 0, 78, 0
2, 66592, Note_on_c, 0, 79, 0
2, 66614, Note_on_c, 0, 71, 0
2, 66614, Note_on_c, 0, 55, 0
2, 66614, Note_on_c, 0, 62, 0
2, 66647, Note_on_c, 0, 74, 42
2, 66679, Note_on_c, 0, 67, 42
2, 66682, Note_on_c, 0, 74, 0
2, 66682, Note_on_c, 0, 55, 45
2, 66682, Note_on_c, 0, 63, 45
2, 66682, Note_on_c, 0, 72, 45
2, 66715, Note_on_c, 0, 72, 0
2, 66715, Note_on_c, 0, 67, 0
2, 66718, Note_on_c, 0, 55, 0
2, 66740, Note_on_c, 0, 66, 45
2, 66750, Note_on_c, 0, 63, 0
2, 66772, Note_on_c, 0, 55, 51
2, 66775, Note_on_c, 0, 66, 0
2, 66781, Note_on_c, 0, 71, 47
2, 66784, Note_on_c, 0, 62, 47
2, 66794, Note_on_c, 0, 67, 50
2, 66811, Note_on_c, 0, 62, 0
2, 66811, Note_on_c, 0, 55, 0
2, 66821, Note_on_c, 0, 71, 0
2, 66832, Note_on_c, 0, 67, 0
2, 66854, Note_on_c, 0, 62, 45
2, 66889, Note_on_c, 0, 62, 0
2, 66914, Note_on_c, 0, 60, 48
2, 66917, Note_on_c, 0, 55, 42
2, 66917, Note_on_c, 0, 63, 48
2, 66928, Note_on_c, 0, 69, 43
2, 66941, Note_on_c, 0, 55, 0
2, 66950, Note_on_c, 0, 60, 0
2, 66953, Note_on_c, 0, 63, 0
2, 66953, Note_on_c, 0, 54, 42
2, 66963, Note_on_c, 0, 69, 0
2, 66988, Note_on_c, 0, 54, 0
2, 66988, Note_on_c, 0, 55, 47
2, 67010, Note_on_c, 0, 59, 52
2, 67021, Note_on_c, 0, 67, 47
2, 67024, Note_on_c, 0, 55, 0
2, 67024, Note_on_c, 0, 62, 52
2, 67046, Note_on_c, 0, 59, 0
2, 67059, Note_on_c, 0, 62, 0
2, 67059, Note_on_c, 0, 67, 0
2, 67092, Note_on_c, 0, 43, 44
2, 67128, Note_on_c, 0, 43, 0
2, 67193, Note_on_c, 0, 47, 43
2, 67203, Note_on_c, 0, 88, 48
2, 67236, Note_on_c, 0, 87, 55
2, 67239, Note_on_c, 0, 88, 0
2, 67264, Note_on_c, 0, 40, 52
2, 67274, Note_on_c, 0, 87, 0
2, 67277, Control_c, 0, 64, 127
2, 67286, Note_on_c, 0, 88, 60
2, 67379, Note_on_c, 0, 83, 45
2, 67382, Note_on_c, 0, 79, 46
2, 67445, Control_c, 0, 64, 0
2, 67451, Note_on_c, 0, 76, 46
2, 67451, Note_on_c, 0, 81, 47
2, 67451, Note_on_c, 0, 84, 48
2, 67454, Note_on_c, 0, 79, 0
2, 67454, Note_on_c, 0, 83, 0
2, 67454, Note_on_c, 0, 88, 0
2, 67454, Note_on_c, 0, 47, 0
2, 67457, Note_on_c, 0, 40, 0
2, 67473, Note_on_c, 0, 76, 0
2, 67473, Note_on_c, 0, 75, 45
2, 67484, Note_on_c, 0, 81, 0
2, 67484, Note_on_c, 0, 84, 0
2, 67509, Note_on_c, 0, 75, 0
2, 67509, Note_on_c, 0, 83, 41
2, 67519, Note_on_c, 0, 76, 44
2, 67522, Note_on_c, 0, 79, 46
2, 67544, Note_on_c, 0, 83, 0
2, 67558, Note_on_c, 0, 79, 0
2, 67558, Note_on_c, 0, 76, 0
2, 67580, Note_on_c, 0, 71, 42
2, 67590, Note_on_c, 0, 79, 41
2, 67593, Note_on_c, 0, 76, 47
2, 67618, Note_on_c, 0, 76, 0
2, 67618, Note_on_c, 0, 71, 0
2, 67632, Note_on_c, 0, 79, 0
2, 67654, Note_on_c, 0, 72, 44
2, 67654, Note_on_c, 0, 76, 46
2, 67667, Note_on_c, 0, 81, 46
2, 67678, Note_on_c, 0, 76, 0
2, 67688, Note_on_c, 0, 75, 41
2, 67727, Note_on_c, 0, 71, 41
2, 67727, Note_on_c, 0, 76, 41
2, 67727, Note_on_c, 0, 79, 46
2, 67749, Note_on_c, 0, 72, 0
2, 67752, Note_on_c, 0, 76, 0
2, 67752, Note_on_c, 0, 71, 0
2, 67752, Note_on_c, 0, 75, 0
2, 67798, Note_on_c, 0, 67, 42
2, 67808, Note_on_c, 0, 71, 41
2, 67811, Note_on_c, 0, 76, 47
2, 67866, Note_on_c, 0, 72, 47
2, 67869, Note_on_c, 0, 64, 41
2, 67869, Note_on_c, 0, 69, 46
2, 67879, Note_on_c, 0, 78, 47
2, 67890, Note_on_c, 0, 71, 0
2, 67890, Note_on_c, 0, 67, 0
2, 67900, Note_on_c, 0, 79, 0
2, 67900, Note_on_c, 0, 72, 0
2, 67900, Note_on_c, 0, 81, 0
2, 67900, Note_on_c, 0, 76, 0
2, 67900, Note_on_c, 0, 78, 0
2, 67900, Note_on_c, 0, 64, 0
2, 67900, Note_on_c, 0, 69, 0
2, 67900, Note_on_c, 0, 63, 48
2, 67936, Note_on_c, 0, 63, 0
2, 67936, Note_on_c, 0, 64, 51
2, 67944, Note_on_c, 0, 67, 50
2, 67944, Note_on_c, 0, 71, 52
2, 67944, Note_on_c, 0, 76, 50
2, 67980, Note_on_c, 0, 67, 0
2, 67983, Note_on_c, 0, 76, 0
2, 67983, Note_on_c, 0, 71, 0
2, 68016, Note_on_c, 0, 52, 42
2, 68024, Note_on_c, 0, 67, 45
2, 68024, Note_on_c, 0, 71, 43
2, 68027, Note_on_c, 0, 64, 0
2, 68052, Note_on_c, 0, 52, 0
2, 68063, Note_on_c, 0, 67, 0
2, 68063, Note_on_c, 0, 71, 0
2, 68092, Note_on_c, 0, 64, 41
2, 68092, Note_on_c, 0, 67, 47
2, 68095, Note_on_c, 0, 71, 46
2, 68128, Note_on_c, 0, 67, 0
2, 68131, Note_on_c, 0, 71, 0
2, 68131, Note_on_c, 0, 64, 0
2, 68131, Note_on_c, 0, 70, 42
2, 68166, Note_on_c, 0, 70, 0
2, 68177, Note_on_c, 0, 71, 50
2, 68180, Note_on_c, 0, 63, 49
2, 68180, Note_on_c, 0, 66, 54
2, 68215, Note_on_c, 0, 66, 0
2, 68215, Note_on_c, 0, 63, 0
2, 68215, Note_on_c, 0, 71, 0
2, 68256, Note_on_c, 0, 59, 46
2, 68256, Note_on_c, 0, 75, 46
2, 68292, Note_on_c, 0, 75, 0
2, 68292, Note_on_c, 0, 59, 0
2, 68314, Note_on_c, 0, 71, 41
2, 68328, Note_on_c, 0, 64, 48
2, 68328, Note_on_c, 0, 67, 46
2, 68336, Note_on_c, 0, 70, 43
2, 68339, Note_on_c, 0, 71, 0
2, 68358, Note_on_c, 0, 67, 0
2, 68361, Note_on_c, 0, 64, 0
2, 68372, Note_on_c, 0, 70, 0
2, 68382, Note_on_c, 0, 63, 52
2, 68382, Note_on_c, 0, 66, 49
2, 68382, Note_on_c, 0, 71, 52
2, 68415, Note_on_c, 0, 71, 0
2, 68415, Note_on_c, 0, 66, 0
2, 68415, Note_on_c, 0, 63, 0
2, 68448, Note_on_c, 0, 59, 48
2, 68448, Note_on_c, 0, 78, 47
2, 68486, Note_on_c, 0, 78, 0
2, 68486, Note_on_c, 0, 59, 0
2, 68508, Note_on_c, 0, 71, 47
2, 68533, Note_on_c, 0, 64, 45
2, 68533, Note_on_c, 0, 67, 43
2, 68544, Note_on_c, 0, 70, 45
2, 68546, Note_on_c, 0, 71, 0
2, 68566, Note_on_c, 0, 64, 0
2, 68566, Note_on_c, 0, 67, 0
2, 68579, Note_on_c, 0, 70, 0
2, 68588, Note_on_c, 0, 71, 56
2, 68591, Note_on_c, 0, 63, 58
2, 68591, Note_on_c, 0, 66, 60
2, 68626, Note_on_c, 0, 66, 0
2, 68626, Note_on_c, 0, 71, 0
2, 68629, Note_on_c, 0, 63, 0
2, 68662, Note_on_c, 0, 59, 44
2, 68670, Note_on_c, 0, 83, 43
2, 68684, Note_on_c, 0, 75, 49
2, 68684, Note_on_c, 0, 78, 44
2, 68692, Note_on_c, 0, 59, 0
2, 68698, Note_on_c, 0, 83, 0
2, 68707, Note_on_c, 0, 75, 0
2, 68707, Note_on_c, 0, 78, 0
2, 68732, Note_on_c, 0, 70, 49
2, 68757, Note_on_c, 0, 76, 46
2, 68757, Note_on_c, 0, 79, 47
2, 68782, Note_on_c, 0, 70, 0
2, 68792, Note_on_c, 0, 79, 0
2, 68792, Note_on_c, 0, 76, 0
2, 68836, Note_on_c, 0, 71, 50
2, 68836, Note_on_c, 0, 75, 55
2, 68836, Note_on_c, 0, 78, 54
2, 68894, Note_on_c, 0, 59, 44
2, 68919, Note_on_c, 0, 78, 0
2, 68919, Note_on_c, 0, 71, 0
2, 68919, Note_on_c, 0, 75, 0
2, 68929, Note_on_c, 0, 59, 0
2, 68976, Note_on_c, 0, 88, 45
2, 69011, Note_on_c, 0, 88, 0
2, 69020, Note_on_c, 0, 87, 43
2, 69047, Note_on_c, 0, 52, 46
2, 69057, Note_on_c, 0, 40, 47
2, 69060, Control_c, 0, 64, 127
2, 69066, Note_on_c, 0, 88, 51
2, 69091, Note_on_c, 0, 87, 0
2, 69162, Note_on_c, 0, 79, 45
2, 69162, Note_on_c, 0, 83, 48
2, 69211, Note_on_c, 0, 76, 42
2, 69221, Note_on_c, 0, 83, 0
2, 69221, Note_on_c, 0, 79, 0
2, 69221, Note_on_c, 0, 81, 47
2, 69232, Note_on_c, 0, 84, 43
2, 69235, Note_on_c, 0, 76, 0
2, 69257, Note_on_c, 0, 75, 43
2, 69282, Note_on_c, 0, 76, 48
2, 69304, Note_on_c, 0, 83, 48
2, 69307, Note_on_c, 0, 76, 0
2, 69307, Note_on_c, 0, 75, 0
2, 69307, Note_on_c, 0, 79, 42
2, 69317, Note_on_c, 0, 84, 0
2, 69331, Note_on_c, 0, 79, 0
2, 69353, Note_on_c, 0, 71, 41
2, 69353, Note_on_c, 0, 76, 41
2, 69363, Note_on_c, 0, 81, 0
2, 69374, Note_on_c, 0, 79, 48
2, 69377, Note_on_c, 0, 76, 0
2, 69432, Note_on_c, 0, 72, 42
2, 69432, Note_on_c, 0, 76, 44
2, 69432, Note_on_c, 0, 81, 43
2, 69434, Note_on_c, 0, 71, 0
2, 69434, Note_on_c, 0, 79, 0
2, 69456, Note_on_c, 0, 76, 0
2, 69481, Note_on_c, 0, 75, 45
2, 69504, Note_on_c, 0, 79, 42
2, 69506, Note_on_c, 0, 71, 41
2, 69506, Note_on_c, 0, 76, 48
2, 69528, Note_on_c, 0, 72, 0
2, 69531, Note_on_c, 0, 76, 0
2, 69531, Note_on_c, 0, 71, 0
2, 69531, Note_on_c, 0, 75, 0
2, 69558, Note_on_c, 0, 67, 47
2, 69561, Note_on_c, 0, 71, 45
2, 69583, Note_on_c, 0, 76, 44
2, 69641, Control_c, 0, 64, 0
2, 69641, Note_on_c, 0, 64, 45
2, 69641, Note_on_c, 0, 69, 42
2, 69641, Note_on_c, 0, 72, 48
2, 69654, Note_on_c, 0, 78, 45
2, 69665, Note_on_c, 0, 71, 0
2, 69665, Note_on_c, 0, 67, 0
2, 69665, Note_on_c, 0, 40, 0
2, 69665, Note_on_c, 0, 52, 0
2, 69673, Note_on_c, 0, 72, 0
2, 69673, Note_on_c, 0, 83, 0
2, 69673, Note_on_c, 0, 69, 0
2, 69673, Note_on_c, 0, 64, 0
2, 69673, Note_on_c, 0, 78, 0
2, 69676, Note_on_c, 0, 76, 0
2, 69676, Note_on_c, 0, 88, 0
2, 69676, Note_on_c, 0, 81, 0
2, 69676, Note_on_c, 0, 79, 0
2, 69676, Note_on_c, 0, 63, 45
2, 69712, Note_on_c, 0, 63, 0
2, 69720, Note_on_c, 0, 64, 51
2, 69723, Note_on_c, 0, 71, 47
2, 69734, Note_on_c, 0, 67, 49
2, 69734, Note_on_c, 0, 76, 50
2, 69759, Note_on_c, 0, 71, 0
2, 69759, Note_on_c, 0, 64, 0
2, 69769, Note_on_c, 0, 67, 0
2, 69769, Note_on_c, 0, 76, 0
2, 69792, Note_on_c, 0, 52, 47
2, 69814, Note_on_c, 0, 67, 47
2, 69814, Note_on_c, 0, 71, 41
2, 69830, Note_on_c, 0, 52, 0
2, 69840, Note_on_c, 0, 71, 0
2, 69849, Note_on_c, 0, 67, 0
2, 69874, Note_on_c, 0, 64, 47
2, 69885, Note_on_c, 0, 67, 46
2, 69885, Note_on_c, 0, 71, 42
2, 69907, Note_on_c, 0, 70, 45
2, 69910, Note_on_c, 0, 71, 0
2, 69910, Note_on_c, 0, 64, 0
2, 69920, Note_on_c, 0, 67, 0
2, 69942, Note_on_c, 0, 63, 51
2, 69942, Note_on_c, 0, 66, 54
2, 69942, Note_on_c, 0, 71, 49
2, 69945, Note_on_c, 0, 70, 0
2, 69978, Note_on_c, 0, 71, 0
2, 69978, Note_on_c, 0, 66, 0
2, 69981, Note_on_c, 0, 63, 0
2, 70022, Note_on_c, 0, 59, 46
2, 70035, Note_on_c, 0, 75, 43
2, 70060, Note_on_c, 0, 59, 0
2, 70071, Note_on_c, 0, 75, 0
2, 70093, Note_on_c, 0, 71, 45
2, 70102, Note_on_c, 0, 64, 44
2, 70102, Note_on_c, 0, 67, 48
2, 70115, Note_on_c, 0, 71, 0
2, 70115, Note_on_c, 0, 70, 54
2, 70137, Note_on_c, 0, 67, 0
2, 70137, Note_on_c, 0, 64, 0
2, 70146, Note_on_c, 0, 66, 47
2, 70149, Note_on_c, 0, 70, 0
2, 70159, Note_on_c, 0, 63, 49
2, 70159, Note_on_c, 0, 71, 50
2, 70181, Note_on_c, 0, 66, 0
2, 70195, Note_on_c, 0, 71, 0
2, 70195, Note_on_c, 0, 63, 0
2, 70227, Note_on_c, 0, 59, 41
2, 70238, Note_on_c, 0, 78, 47
2, 70257, Note_on_c, 0, 59, 0
2, 70271, Note_on_c, 0, 78, 0
2, 70279, Note_on_c, 0, 64, 47
2, 70279, Note_on_c, 0, 67, 41
2, 70279, Note_on_c, 0, 71, 48
2, 70304, Note_on_c, 0, 71, 0
2, 70304, Note_on_c, 0, 70, 48
2, 70315, Note_on_c, 0, 67, 0
2, 70315, Note_on_c, 0, 64, 0
2, 70347, Note_on_c, 0, 66, 57
2, 70347, Note_on_c, 0, 71, 54
2, 70350, Note_on_c, 0, 70, 0
2, 70350, Note_on_c, 0, 63, 60
2, 70386, Note_on_c, 0, 71, 0
2, 70386, Note_on_c, 0, 66, 0
2, 70389, Note_on_c, 0, 63, 0
2, 70408, Note_on_c, 0, 59, 47
2, 70433, Note_on_c, 0, 75, 44
2, 70433, Note_on_c, 0, 78, 48
2, 70433, Note_on_c, 0, 83, 46
2, 70443, Note_on_c, 0, 59, 0
2, 70465, Note_on_c, 0, 75, 0
2, 70465, Note_on_c, 0, 78, 0
2, 70465, Note_on_c, 0, 83, 0
2, 70488, Note_on_c, 0, 70, 44
2, 70501, Note_on_c, 0, 76, 47
2, 70501, Note_on_c, 0, 79, 44
2, 70526, Note_on_c, 0, 70, 0
2, 70536, Note_on_c, 0, 79, 0
2, 70536, Note_on_c, 0, 76, 0
2, 70559, Note_on_c, 0, 71, 54
2, 70559, Note_on_c, 0, 78, 52
2, 70581, Note_on_c, 0, 75, 54
2, 70594, Note_on_c, 0, 78, 0
2, 70594, Note_on_c, 0, 71, 0
2, 70616, Note_on_c, 0, 75, 0
2, 70627, Note_on_c, 0, 59, 43
2, 70659, Note_on_c, 0, 59, 0
2, 70681, Note_on_c, 0, 69, 47
2, 70695, Note_on_c, 0, 62, 48
2, 70695, Note_on_c, 0, 65, 46
2, 70708, Note_on_c, 0, 69, 0
2, 70717, Note_on_c, 0, 68, 48
2, 70730, Note_on_c, 0, 65, 0
2, 70730, Note_on_c, 0, 62, 0
2, 70752, Note_on_c, 0, 68, 0
2, 70752, Note_on_c, 0, 64, 54
2, 70752, Note_on_c, 0, 69, 50
2, 70763, Note_on_c, 0, 61, 49
2, 70785, Note_on_c, 0, 64, 0
2, 70791, Note_on_c, 0, 69, 0
2, 70801, Note_on_c, 0, 61, 0
2, 70834, Note_on_c, 0, 57, 46
2, 70845, Note_on_c, 0, 73, 44
2, 70872, Note_on_c, 0, 57, 0
2, 70882, Note_on_c, 0, 73, 0
2, 70904, Note_on_c, 0, 65, 46
2, 70907, Note_on_c, 0, 69, 46
2, 70918, Note_on_c, 0, 62, 43
2, 70943, Note_on_c, 0, 69, 0
2, 70943, Note_on_c, 0, 65, 0
2, 70943, Note_on_c, 0, 68, 41
2, 70953, Note_on_c, 0, 62, 0
2, 70959, Control_c, 0, 64, 127
2, 70968, Note_on_c, 0, 64, 50
2, 70981, Note_on_c, 0, 61, 49
2, 70994, Note_on_c, 0, 69, 50
2, 71019, Note_on_c, 0, 68, 0
2, 71064, Note_on_c, 0, 57, 47
2, 71064, Note_on_c, 0, 76, 42
2, 71066, Note_on_c, 0, 69, 0
2, 71099, Note_on_c, 0, 76, 0
2, 71121, Note_on_c, 0, 65, 43
2, 71124, Note_on_c, 0, 64, 0
2, 71124, Note_on_c, 0, 57, 0
2, 71124, Note_on_c, 0, 61, 0
2, 71124, Control_c, 0, 64, 0
2, 71124, Note_on_c, 0, 62, 48
2, 71135, Note_on_c, 0, 69, 45
2, 71160, Note_on_c, 0, 69, 0
2, 71160, Note_on_c, 0, 62, 0
2, 71160, Note_on_c, 0, 65, 0
2, 71160, Note_on_c, 0, 68, 45
2, 71192, Note_on_c, 0, 68, 0
2, 71192, Note_on_c, 0, 61, 57
2, 71192, Note_on_c, 0, 64, 58
2, 71192, Note_on_c, 0, 69, 53
2, 71228, Note_on_c, 0, 69, 0
2, 71228, Note_on_c, 0, 64, 0
2, 71228, Note_on_c, 0, 61, 0
2, 71260, Note_on_c, 0, 76, 43
2, 71260, Note_on_c, 0, 81, 45
2, 71263, Note_on_c, 0, 57, 46
2, 71274, Note_on_c, 0, 73, 46
2, 71301, Note_on_c, 0, 57, 0
2, 71301, Note_on_c, 0, 76, 0
2, 71301, Note_on_c, 0, 81, 0
2, 71311, Note_on_c, 0, 73, 0
2, 71322, Note_on_c, 0, 68, 44
2, 71322, Note_on_c, 0, 74, 45
2, 71335, Note_on_c, 0, 77, 46
2, 71360, Note_on_c, 0, 74, 0
2, 71360, Note_on_c, 0, 68, 0
2, 71369, Note_on_c, 0, 77, 0
2, 71404, Note_on_c, 0, 69, 53
2, 71404, Note_on_c, 0, 76, 47
2, 71418, Note_on_c, 0, 73, 50
2, 71443, Note_on_c, 0, 76, 0
2, 71443, Note_on_c, 0, 69, 0
2, 71453, Note_on_c, 0, 57, 48
2, 71456, Note_on_c, 0, 73, 0
2, 71489, Note_on_c, 0, 57, 0
2, 71521, Note_on_c, 0, 67, 43
2, 71535, Note_on_c, 0, 60, 44
2, 71535, Note_on_c, 0, 63, 42
2, 71557, Note_on_c, 0, 67, 0
2, 71557, Note_on_c, 0, 66, 46
2, 71570, Note_on_c, 0, 60, 0
2, 71573, Note_on_c, 0, 63, 0
2, 71595, Note_on_c, 0, 66, 0
2, 71604, Note_on_c, 0, 67, 54
2, 71607, Note_on_c, 0, 59, 53
2, 71607, Note_on_c, 0, 62, 51
2, 71637, Note_on_c, 0, 62, 0
2, 71637, Note_on_c, 0, 59, 0
2, 71637, Note_on_c, 0, 67, 0
2, 71683, Note_on_c, 0, 71, 45
2, 71686, Note_on_c, 0, 55, 45
2, 71718, Note_on_c, 0, 55, 0
2, 71718, Note_on_c, 0, 71, 0
2, 71754, Note_on_c, 0, 60, 42
2, 71754, Note_on_c, 0, 67, 47
2, 71757, Note_on_c, 0, 63, 46
2, 71776, Note_on_c, 0, 67, 0
2, 71776, Note_on_c, 0, 66, 48
2, 71786, Note_on_c, 0, 60, 0
2, 71789, Note_on_c, 0, 63, 0
2, 71811, Note_on_c, 0, 66, 0
2, 71822, Note_on_c, 0, 59, 54
2, 71822, Note_on_c, 0, 62, 53
2, 71822, Note_on_c, 0, 67, 47
2, 71855, Note_on_c, 0, 67, 0
2, 71855, Note_on_c, 0, 62, 0
2, 71855, Note_on_c, 0, 59, 0
2, 71890, Note_on_c, 0, 55, 48
2, 71909, Note_on_c, 0, 74, 45
2, 71923, Note_on_c, 0, 55, 0
2, 71948, Note_on_c, 0, 74, 0
2, 71970, Note_on_c, 0, 67, 46
2, 71978, Note_on_c, 0, 60, 44
2, 71984, Note_on_c, 0, 63, 42
2, 72003, Note_on_c, 0, 67, 0
2, 72003, Note_on_c, 0, 66, 54
2, 72017, Note_on_c, 0, 63, 0
2, 72017, Note_on_c, 0, 60, 0
2, 72027, Note_on_c, 0, 59, 54
2, 72038, Note_on_c, 0, 66, 0
2, 72038, Note_on_c, 0, 62, 53
2, 72048, Note_on_c, 0, 67, 60
2, 72057, Note_on_c, 0, 59, 0
2, 72071, Note_on_c, 0, 62, 0
2, 72081, Note_on_c, 0, 67, 0
2, 72117, Note_on_c, 0, 79, 48
2, 72155, Note_on_c, 0, 79, 0
2, 72210, Note_on_c, 0, 67, 43
2, 72235, Note_on_c, 0, 66, 55
2, 72238, Note_on_c, 0, 67, 0
2, 72282, Note_on_c, 0, 67, 57
2, 72285, Note_on_c, 0, 66, 0
2, 72290, Note_on_c, 0, 47, 41
2, 72293, Note_on_c, 0, 53, 47
2, 72293, Note_on_c, 0, 55, 44
2, 72304, Note_on_c, 0, 50, 48
2, 72314, Note_on_c, 0, 67, 0
2, 72331, Control_c, 0, 64, 127
2, 72358, Note_on_c, 0, 77, 46
2, 72448, Note_on_c, 0, 67, 48
2, 72473, Note_on_c, 0, 67, 0
2, 72473, Note_on_c, 0, 55, 0
2, 72483, Note_on_c, 0, 66, 56
2, 72486, Control_c, 0, 64, 0
2, 72516, Note_on_c, 0, 67, 59
2, 72519, Note_on_c, 0, 66, 0
2, 72519, Note_on_c, 0, 48, 52
2, 72519, Note_on_c, 0, 55, 55
2, 72529, Note_on_c, 0, 52, 53
2, 72543, Note_on_c, 0, 47, 0
2, 72553, Note_on_c, 0, 50, 0
2, 72553, Note_on_c, 0, 53, 0
2, 72598, Note_on_c, 0, 76, 41
2, 72623, Note_on_c, 0, 77, 0
2, 72623, Note_on_c, 0, 67, 0
2, 72691, Note_on_c, 0, 67, 43
2, 72718, Note_on_c, 0, 67, 0
2, 72718, Note_on_c, 0, 55, 0
2, 72720, Note_on_c, 0, 48, 0
2, 72729, Note_on_c, 0, 66, 46
2, 72768, Note_on_c, 0, 66, 0
2, 72768, Note_on_c, 0, 48, 42
2, 72768, Note_on_c, 0, 51, 48
2, 72768, Note_on_c, 0, 55, 44
2, 72768, Note_on_c, 0, 67, 59
2, 72790, Note_on_c, 0, 52, 0
2, 72815, Control_c, 0, 64, 127
2, 72844, Note_on_c, 0, 75, 46
2, 72869, Note_on_c, 0, 76, 0
2, 72869, Note_on_c, 0, 67, 0
2, 72937, Note_on_c, 0, 67, 46
2, 72962, Note_on_c, 0, 67, 0
2, 72965, Note_on_c, 0, 55, 0
2, 72974, Note_on_c, 0, 66, 43
2, 72980, Control_c, 0, 64, 0
2, 72993, Note_on_c, 0, 59, 47
2, 72996, Note_on_c, 0, 50, 48
2, 73007, Note_on_c, 0, 55, 48
2, 73009, Note_on_c, 0, 66, 0
2, 73018, Note_on_c, 0, 67, 54
2, 73021, Note_on_c, 0, 51, 0
2, 73021, Note_on_c, 0, 48, 0
2, 73089, Note_on_c, 0, 74, 47
2, 73114, Note_on_c, 0, 75, 0
2, 73114, Note_on_c, 0, 67, 0
2, 73179, Note_on_c, 0, 67, 42
2, 73204, Note_on_c, 0, 67, 0
2, 73218, Note_on_c, 0, 55, 0
2, 73218, Note_on_c, 0, 66, 60
2, 73250, Note_on_c, 0, 58, 48
2, 73250, Note_on_c, 0, 67, 53
2, 73253, Note_on_c, 0, 66, 0
2, 73262, Note_on_c, 0, 55, 47
2, 73265, Note_on_c, 0, 52, 52
2, 73268, Control_c, 0, 64, 127
2, 73276, Note_on_c, 0, 59, 0
2, 73287, Note_on_c, 0, 50, 0
2, 73339, Note_on_c, 0, 73, 49
2, 73349, Note_on_c, 0, 74, 0
2, 73360, Note_on_c, 0, 69, 51
2, 73385, Note_on_c, 0, 69, 0
2, 73420, Note_on_c, 0, 68, 54
2, 73423, Control_c, 0, 64, 0
2, 73442, Note_on_c, 0, 67, 0
2, 73453, Note_on_c, 0, 42, 53
2, 73462, Note_on_c, 0, 72, 70
2, 73475, Note_on_c, 0, 69, 72
2, 73486, Note_on_c, 0, 73, 0
2, 73496, Note_on_c, 0, 58, 0
2, 73496, Note_on_c, 0, 68, 0
2, 73499, Note_on_c, 0, 52, 0
2, 73499, Note_on_c, 0, 55, 0
2, 73573, Note_on_c, 0, 62, 48
2, 73576, Note_on_c, 0, 50, 41
2, 73576, Note_on_c, 0, 57, 45
2, 73576, Note_on_c, 0, 60, 48
2, 73628, Note_on_c, 0, 57, 0
2, 73641, Note_on_c, 0, 50, 0
2, 73641, Note_on_c, 0, 62, 0
2, 73641, Note_on_c, 0, 60, 0
2, 73674, Note_on_c, 0, 57, 46
2, 73682, Note_on_c, 0, 60, 43
2, 73685, Note_on_c, 0, 50, 45
2, 73685, Note_on_c, 0, 62, 44
2, 73691, Control_c, 0, 64, 127
2, 73721, Note_on_c, 0, 57, 0
2, 73729, Note_on_c, 0, 60, 0
2, 73729, Note_on_c, 0, 62, 0
2, 73732, Note_on_c, 0, 50, 0
2, 73765, Note_on_c, 0, 57, 48
2, 73776, Note_on_c, 0, 50, 42
2, 73776, Note_on_c, 0, 60, 47
2, 73776, Note_on_c, 0, 62, 44
2, 73841, Note_on_c, 0, 74, 66
2, 73860, Note_on_c, 0, 72, 0
2, 73898, Note_on_c, 0, 74, 0
2, 73967, Note_on_c, 0, 74, 60
2, 73983, Control_c, 0, 64, 0
2, 74002, Note_on_c, 0, 74, 0
2, 74016, Note_on_c, 0, 35, 44
2, 74024, Note_on_c, 0, 47, 42
2, 74049, Note_on_c, 0, 60, 0
2, 74052, Note_on_c, 0, 42, 0
2, 74052, Note_on_c, 0, 57, 0
2, 74071, Note_on_c, 0, 74, 72
2, 74074, Note_on_c, 0, 69, 0
2, 74159, Note_on_c, 0, 50, 0
2, 74181, Note_on_c, 0, 62, 0
2, 74189, Note_on_c, 0, 59, 41
2, 74192, Note_on_c, 0, 55, 46
2, 74201, Note_on_c, 0, 67, 46
2, 74204, Note_on_c, 0, 50, 44
2, 74229, Note_on_c, 0, 62, 44
2, 74239, Note_on_c, 0, 55, 0
2, 74239, Note_on_c, 0, 59, 0
2, 74242, Note_on_c, 0, 50, 0
2, 74261, Note_on_c, 0, 67, 0
2, 74264, Note_on_c, 0, 62, 0
2, 74286, Note_on_c, 0, 50, 43
2, 74286, Note_on_c, 0, 55, 42
2, 74286, Note_on_c, 0, 59, 44
2, 74292, Control_c, 0, 64, 127
2, 74308, Note_on_c, 0, 62, 48
2, 74308, Note_on_c, 0, 67, 41
2, 74322, Note_on_c, 0, 59, 0
2, 74325, Note_on_c, 0, 50, 0
2, 74325, Note_on_c, 0, 55, 0
2, 74344, Note_on_c, 0, 67, 0
2, 74357, Note_on_c, 0, 62, 0
2, 74371, Note_on_c, 0, 50, 42
2, 74371, Note_on_c, 0, 55, 47
2, 74371, Note_on_c, 0, 59, 46
2, 74393, Note_on_c, 0, 67, 48
2, 74406, Note_on_c, 0, 62, 42
2, 74474, Note_on_c, 0, 72, 54
2, 74501, Note_on_c, 0, 74, 0
2, 74501, Control_c, 0, 64, 0
2, 74547, Note_on_c, 0, 71, 57
2, 74569, Note_on_c, 0, 72, 0
2, 74586, Note_on_c, 0, 71, 0
2, 74596, Note_on_c, 0, 48, 46
2, 74610, Note_on_c, 0, 36, 48
2, 74618, Note_on_c, 0, 55, 0
2, 74618, Note_on_c, 0, 67, 0
2, 74618, Note_on_c, 0, 59, 0
2, 74621, Note_on_c, 0, 47, 0
2, 74635, Note_on_c, 0, 35, 0
2, 74654, Note_on_c, 0, 71, 65
2, 74736, Note_on_c, 0, 50, 0
2, 74736, Note_on_c, 0, 62, 0
2, 74784, Note_on_c, 0, 50, 47
2, 74784, Note_on_c, 0, 54, 43
2, 74784, Note_on_c, 0, 62, 46
2, 74809, Note_on_c, 0, 54, 0
2, 74820, Note_on_c, 0, 62, 0
2, 74823, Note_on_c, 0, 50, 0
2, 74826, Control_c, 0, 64, 127
2, 74856, Note_on_c, 0, 71, 0
2, 74856, Note_on_c, 0, 54, 43
2, 74856, Note_on_c, 0, 69, 58
2, 74869, Note_on_c, 0, 50, 45
2, 74869, Note_on_c, 0, 62, 44
2, 74894, Note_on_c, 0, 50, 0
2, 74894, Note_on_c, 0, 54, 0
2, 74913, Note_on_c, 0, 62, 0
2, 74938, Note_on_c, 0, 50, 46
2, 74938, Note_on_c, 0, 54, 48
2, 74965, Note_on_c, 0, 62, 43
2, 75033, Note_on_c, 0, 67, 60
2, 75101, Note_on_c, 0, 66, 60
2, 75115, Note_on_c, 0, 67, 0
2, 75167, Note_on_c, 0, 47, 45
2, 75172, Control_c, 0, 64, 0
2, 75181, Note_on_c, 0, 67, 63
2, 75192, Note_on_c, 0, 54, 0
2, 75194, Note_on_c, 0, 48, 0
2, 75194, Note_on_c, 0, 36, 0
2, 75205, Note_on_c, 0, 66, 0
2, 75205, Note_on_c, 0, 69, 0
2, 75227, Note_on_c, 0, 50, 0
2, 75260, Note_on_c, 0, 59, 48
2, 75263, Note_on_c, 0, 55, 45
2, 75273, Note_on_c, 0, 50, 44
2, 75284, Note_on_c, 0, 67, 0
2, 75306, Note_on_c, 0, 59, 0
2, 75319, Note_on_c, 0, 55, 0
2, 75319, Note_on_c, 0, 50, 0
2, 75349, Note_on_c, 0, 59, 44
2, 75349, Note_on_c, 0, 67, 57
2, 75362, Note_on_c, 0, 55, 48
2, 75365, Note_on_c, 0, 50, 43
2, 75409, Note_on_c, 0, 59, 0
2, 75412, Note_on_c, 0, 55, 0
2, 75412, Note_on_c, 0, 50, 0
2, 75454, Note_on_c, 0, 50, 48
2, 75454, Note_on_c, 0, 55, 46
2, 75454, Note_on_c, 0, 59, 49
2, 75456, Control_c, 0, 64, 127
2, 75465, Note_on_c, 0, 69, 59
2, 75479, Note_on_c, 0, 55, 0
2, 75489, Note_on_c, 0, 50, 0
2, 75489, Note_on_c, 0, 59, 0
2, 75525, Note_on_c, 0, 55, 47
2, 75533, Note_on_c, 0, 50, 44
2, 75533, Note_on_c, 0, 59, 45
2, 75558, Note_on_c, 0, 59, 0
2, 75558, Note_on_c, 0, 55, 0
2, 75558, Note_on_c, 0, 50, 0
2, 75591, Note_on_c, 0, 71, 57
2, 75604, Note_on_c, 0, 50, 43
2, 75604, Note_on_c, 0, 55, 42
2, 75604, Note_on_c, 0, 59, 45
2, 75697, Note_on_c, 0, 42, 50
2, 75697, Note_on_c, 0, 74, 60
2, 75744, Note_on_c, 0, 62, 0
2, 75757, Note_on_c, 0, 50, 0
2, 75776, Note_on_c, 0, 72, 53
2, 75787, Note_on_c, 0, 60, 45
2, 75787, Note_on_c, 0, 62, 41
2, 75790, Note_on_c, 0, 69, 0
2, 75790, Note_on_c, 0, 57, 41
2, 75800, Note_on_c, 0, 74, 0
2, 75800, Note_on_c, 0, 71, 0
2, 75800, Note_on_c, 0, 50, 42
2, 75803, Control_c, 0, 64, 0
2, 75812, Note_on_c, 0, 57, 0
2, 75812, Note_on_c, 0, 59, 0
2, 75812, Note_on_c, 0, 60, 0
2, 75812, Note_on_c, 0, 62, 0
2, 75812, Note_on_c, 0, 67, 0
2, 75815, Note_on_c, 0, 55, 0
2, 75825, Note_on_c, 0, 50, 0
2, 75825, Note_on_c, 0, 47, 0
2, 75847, Note_on_c, 0, 57, 41
2, 75847, Note_on_c, 0, 62, 45
2, 75858, Note_on_c, 0, 60, 42
2, 75858, Note_on_c, 0, 69, 60
2, 75861, Note_on_c, 0, 50, 44
2, 75905, Note_on_c, 0, 60, 0
2, 75905, Note_on_c, 0, 62, 0
2, 75908, Note_on_c, 0, 57, 0
2, 75921, Note_on_c, 0, 50, 0
2, 75943, Note_on_c, 0, 57, 44
2, 75943, Note_on_c, 0, 60, 48
2, 75943, Note_on_c, 0, 62, 44
2, 75954, Note_on_c, 0, 50, 44
2, 76019, Note_on_c, 0, 74, 57
2, 76044, Note_on_c, 0, 74, 0
2, 76099, Note_on_c, 0, 74, 55
2, 76124, Note_on_c, 0, 72, 0
2, 76149, Note_on_c, 0, 43, 53
2, 76171, Note_on_c, 0, 42, 0
2, 76171, Note_on_c, 0, 60, 0
2, 76171, Note_on_c, 0, 57, 0
2, 76171, Note_on_c, 0, 69, 0
2, 76181, Note_on_c, 0, 62, 0
2, 76184, Control_c, 0, 64, 127
2, 76193, Note_on_c, 0, 76, 63
2, 76215, Note_on_c, 0, 62, 43
2, 76218, Note_on_c, 0, 74, 0
2, 76264, Note_on_c, 0, 50, 0
2, 76264, Note_on_c, 0, 62, 0
2, 76296, Note_on_c, 0, 67, 42
2, 76307, Note_on_c, 0, 50, 44
2, 76307, Note_on_c, 0, 59, 43
2, 76307, Note_on_c, 0, 62, 47
2, 76310, Note_on_c, 0, 55, 47
2, 76343, Note_on_c, 0, 67, 0
2, 76345, Note_on_c, 0, 59, 0
2, 76345, Note_on_c, 0, 55, 0
2, 76356, Note_on_c, 0, 50, 0
2, 76356, Note_on_c, 0, 62, 0
2, 76389, Note_on_c, 0, 55, 43
2, 76389, Note_on_c, 0, 59, 41
2, 76389, Note_on_c, 0, 67, 53
2, 76399, Note_on_c, 0, 74, 54
2, 76402, Note_on_c, 0, 50, 48
2, 76402, Note_on_c, 0, 62, 42
2, 76424, Note_on_c, 0, 76, 0
2, 76446, Note_on_c, 0, 74, 0
2, 76457, Note_on_c, 0, 67, 0
2, 76467, Note_on_c, 0, 62, 0
2, 76467, Note_on_c, 0, 59, 0
2, 76467, Note_on_c, 0, 55, 0
2, 76470, Note_on_c, 0, 50, 0
2, 76503, Note_on_c, 0, 67, 47
2, 76512, Note_on_c, 0, 55, 48
2, 76512, Note_on_c, 0, 59, 46
2, 76512, Note_on_c, 0, 62, 47
2, 76512, Note_on_c, 0, 74, 54
2, 76514, Note_on_c, 0, 50, 43
2, 76594, Note_on_c, 0, 72, 48
2, 76610, Control_c, 0, 64, 0
2, 76619, Note_on_c, 0, 74, 0
2, 76663, Note_on_c, 0, 71, 47
2, 76688, Note_on_c, 0, 72, 0
2, 76688, Note_on_c, 0, 59, 0
2, 76688, Note_on_c, 0, 67, 0
2, 76688, Note_on_c, 0, 62, 0
2, 76691, Note_on_c, 0, 50, 0
2, 76691, Note_on_c, 0, 43, 0
2, 76691, Note_on_c, 0, 55, 0
2, 76702, Note_on_c, 0, 71, 0
2, 76746, Note_on_c, 0, 71, 64
2, 76749, Note_on_c, 0, 48, 58
2, 76839, Note_on_c, 0, 57, 47
2, 76839, Note_on_c, 0, 62, 46
2, 76849, Note_on_c, 0, 54, 44
2, 76852, Note_on_c, 0, 50, 46
2, 76872, Note_on_c, 0, 62, 0
2, 76874, Note_on_c, 0, 54, 0
2, 76874, Note_on_c, 0, 57, 0
2, 76874, Note_on_c, 0, 50, 0
2, 76910, Control_c, 0, 64, 127
2, 76916, Note_on_c, 0, 54, 43
2, 76916, Note_on_c, 0, 57, 44
2, 76916, Note_on_c, 0, 62, 46
2, 76916, Note_on_c, 0, 69, 54
2, 76919, Note_on_c, 0, 50, 44
2, 76941, Note_on_c, 0, 71, 0
2, 76951, Note_on_c, 0, 57, 0
2, 76954, Note_on_c, 0, 50, 0
2, 76963, Note_on_c, 0, 54, 0
2, 76985, Note_on_c, 0, 62, 0
2, 76993, Note_on_c, 0, 57, 41
2, 76999, Note_on_c, 0, 50, 45
2, 77008, Note_on_c, 0, 54, 48
2, 77027, Note_on_c, 0, 62, 44
2, 77104, Note_on_c, 0, 67, 56
2, 77161, Note_on_c, 0, 67, 0
2, 77161, Note_on_c, 0, 66, 53
2, 77175, Note_on_c, 0, 62, 0
2, 77200, Control_c, 0, 64, 0
2, 77219, Note_on_c, 0, 47, 54
2, 77228, Note_on_c, 0, 67, 57
2, 77241, Note_on_c, 0, 57, 0
2, 77241, Note_on_c, 0, 54, 0
2, 77241, Note_on_c, 0, 62, 54
2, 77244, Note_on_c, 0, 48, 0
2, 77253, Note_on_c, 0, 66, 0
2, 77253, Note_on_c, 0, 69, 0
2, 77278, Note_on_c, 0, 50, 0
2, 77310, Note_on_c, 0, 55, 43
2, 77310, Note_on_c, 0, 59, 42
2, 77324, Note_on_c, 0, 50, 42
2, 77332, Note_on_c, 0, 67, 0
2, 77335, Note_on_c, 0, 62, 0
2, 77346, Note_on_c, 0, 55, 0
2, 77356, Note_on_c, 0, 59, 0
2, 77356, Note_on_c, 0, 50, 0
2, 77389, Note_on_c, 0, 55, 48
2, 77400, Note_on_c, 0, 67, 55
2, 77402, Note_on_c, 0, 59, 46
2, 77405, Note_on_c, 0, 50, 48
2, 77405, Note_on_c, 0, 62, 45
2, 77449, Note_on_c, 0, 62, 0
2, 77449, Note_on_c, 0, 67, 0
2, 77455, Control_c, 0, 64, 127
2, 77461, Note_on_c, 0, 59, 0
2, 77464, Note_on_c, 0, 50, 0
2, 77472, Note_on_c, 0, 55, 0
2, 77508, Note_on_c, 0, 59, 45
2, 77511, Note_on_c, 0, 50, 42
2, 77520, Note_on_c, 0, 62, 47
2, 77520, Note_on_c, 0, 67, 57
2, 77522, Note_on_c, 0, 55, 45
2, 77533, Note_on_c, 0, 59, 0
2, 77536, Note_on_c, 0, 50, 0
2, 77544, Note_on_c, 0, 62, 0
2, 77544, Note_on_c, 0, 55, 0
2, 77580, Note_on_c, 0, 50, 47
2, 77580, Note_on_c, 0, 55, 45
2, 77580, Note_on_c, 0, 59, 46
2, 77591, Note_on_c, 0, 62, 43
2, 77599, Note_on_c, 0, 69, 54
2, 77602, Note_on_c, 0, 59, 0
2, 77605, Note_on_c, 0, 55, 0
2, 77605, Note_on_c, 0, 50, 0
2, 77616, Note_on_c, 0, 62, 0
2, 77651, Note_on_c, 0, 50, 44
2, 77651, Note_on_c, 0, 55, 47
2, 77651, Note_on_c, 0, 59, 41
2, 77660, Note_on_c, 0, 62, 43
2, 77670, Note_on_c, 0, 71, 58
2, 77695, Note_on_c, 0, 62, 0
2, 77714, Control_c, 0, 64, 0
2, 77744, Note_on_c, 0, 42, 51
2, 77753, Note_on_c, 0, 74, 62
2, 77756, Note_on_c, 0, 62, 48
2, 77778, Note_on_c, 0, 71, 0
2, 77778, Note_on_c, 0, 59, 0
2, 77778, Note_on_c, 0, 69, 0
2, 77778, Note_on_c, 0, 67, 0
2, 77781, Note_on_c, 0, 47, 0
2, 77781, Note_on_c, 0, 55, 0
2, 77781, Note_on_c, 0, 50, 0
2, 77825, Note_on_c, 0, 50, 47
2, 77825, Note_on_c, 0, 57, 45
2, 77825, Note_on_c, 0, 60, 41
2, 77825, Note_on_c, 0, 72, 64
2, 77850, Note_on_c, 0, 57, 0
2, 77853, Note_on_c, 0, 50, 0
2, 77861, Note_on_c, 0, 60, 0
2, 77897, Note_on_c, 0, 57, 41
2, 77900, Note_on_c, 0, 50, 41
2, 77908, Note_on_c, 0, 60, 43
2, 77908, Note_on_c, 0, 69, 62
2, 77933, Note_on_c, 0, 57, 0
2, 77958, Note_on_c, 0, 50, 0
2, 77967, Note_on_c, 0, 60, 0
2, 77977, Note_on_c, 0, 57, 45
2, 78000, Control_c, 0, 64, 127
2, 78005, Note_on_c, 0, 50, 45
2, 78014, Note_on_c, 0, 60, 44
2, 78027, Note_on_c, 0, 57, 0
2, 78038, Note_on_c, 0, 60, 0
2, 78041, Note_on_c, 0, 50, 0
2, 78060, Note_on_c, 0, 72, 0
2, 78060, Note_on_c, 0, 71, 54
2, 78073, Note_on_c, 0, 57, 42
2, 78084, Note_on_c, 0, 60, 48
2, 78090, Note_on_c, 0, 50, 42
2, 78100, Note_on_c, 0, 57, 0
2, 78109, Note_on_c, 0, 60, 0
2, 78125, Note_on_c, 0, 50, 0
2, 78131, Note_on_c, 0, 72, 56
2, 78134, Note_on_c, 0, 57, 43
2, 78156, Note_on_c, 0, 74, 0
2, 78156, Note_on_c, 0, 71, 0
2, 78156, Note_on_c, 0, 60, 46
2, 78172, Note_on_c, 0, 50, 47
2, 78224, Note_on_c, 0, 74, 58
2, 78227, Note_on_c, 0, 71, 59
2, 78249, Note_on_c, 0, 72, 0
2, 78252, Note_on_c, 0, 62, 0
2, 78252, Note_on_c, 0, 69, 0
2, 78252, Note_on_c, 0, 60, 0
2, 78252, Note_on_c, 0, 57, 0
2, 78255, Note_on_c, 0, 42, 0
2, 78255, Note_on_c, 0, 50, 0
2, 78258, Control_c, 0, 64, 0
2, 78299, Note_on_c, 0, 59, 41
2, 78299, Note_on_c, 0, 62, 44
2, 78324, Note_on_c, 0, 59, 0
2, 78335, Note_on_c, 0, 62, 0
2, 78370, Note_on_c, 0, 59, 48
2, 78381, Note_on_c, 0, 62, 42
2, 78446, Note_on_c, 0, 77, 63
2, 78449, Note_on_c, 0, 57, 56
2, 78506, Note_on_c, 0, 62, 0
2, 78506, Note_on_c, 0, 71, 0
2, 78517, Note_on_c, 0, 74, 0
2, 78520, Note_on_c, 0, 59, 0
2, 78552, Control_c, 0, 64, 127
2, 78552, Note_on_c, 0, 62, 45
2, 78552, Note_on_c, 0, 71, 49
2, 78563, Note_on_c, 0, 74, 47
2, 78566, Note_on_c, 0, 59, 48
2, 78588, Note_on_c, 0, 74, 0
2, 78588, Note_on_c, 0, 71, 0
2, 78591, Note_on_c, 0, 62, 0
2, 78600, Note_on_c, 0, 59, 0
2, 78632, Note_on_c, 0, 71, 48
2, 78632, Note_on_c, 0, 74, 43
2, 78635, Note_on_c, 0, 62, 47
2, 78646, Note_on_c, 0, 59, 43
2, 78711, Control_c, 0, 64, 0
2, 78711, Note_on_c, 0, 76, 42
2, 78736, Note_on_c, 0, 74, 0
2, 78736, Note_on_c, 0, 77, 0
2, 78736, Note_on_c, 0, 56, 54
2, 78744, Note_on_c, 0, 71, 0
2, 78747, Note_on_c, 0, 62, 0
2, 78747, Note_on_c, 0, 59, 0
2, 78761, Note_on_c, 0, 57, 0
2, 78777, Note_on_c, 0, 74, 49
2, 78788, Note_on_c, 0, 71, 46
2, 78791, Note_on_c, 0, 59, 45
2, 78791, Note_on_c, 0, 62, 47
2, 78799, Note_on_c, 0, 74, 0
2, 78813, Note_on_c, 0, 59, 0
2, 78813, Note_on_c, 0, 71, 0
2, 78813, Note_on_c, 0, 62, 0
2, 78848, Note_on_c, 0, 59, 42
2, 78848, Note_on_c, 0, 62, 48
2, 78848, Note_on_c, 0, 74, 44
2, 78859, Note_on_c, 0, 71, 42
2, 78884, Note_on_c, 0, 71, 0
2, 78928, Note_on_c, 0, 71, 63
2, 78931, Note_on_c, 0, 52, 57
2, 78953, Note_on_c, 0, 76, 0
2, 78953, Note_on_c, 0, 74, 0
2, 78956, Note_on_c, 0, 59, 0
2, 78956, Note_on_c, 0, 62, 0
2, 78956, Note_on_c, 0, 56, 0
2, 78964, Control_c, 0, 64, 127
2, 79010, Note_on_c, 0, 68, 45
2, 79024, Note_on_c, 0, 64, 41
2, 79037, Note_on_c, 0, 68, 0
2, 79048, Note_on_c, 0, 64, 0
2, 79086, Note_on_c, 0, 64, 47
2, 79086, Note_on_c, 0, 68, 46
2, 79130, Control_c, 0, 64, 0
2, 79157, Note_on_c, 0, 45, 66
2, 79166, Note_on_c, 0, 72, 65
2, 79182, Note_on_c, 0, 52, 0
2, 79191, Note_on_c, 0, 68, 0
2, 79191, Note_on_c, 0, 71, 0
2, 79204, Note_on_c, 0, 64, 0
2, 79248, Note_on_c, 0, 60, 42
2, 79248, Note_on_c, 0, 64, 45
2, 79251, Note_on_c, 0, 57, 48
2, 79262, Note_on_c, 0, 69, 47
2, 79272, Note_on_c, 0, 60, 0
2, 79275, Note_on_c, 0, 57, 0
2, 79275, Note_on_c, 0, 64, 0
2, 79286, Note_on_c, 0, 69, 0
2, 79311, Note_on_c, 0, 57, 48
2, 79311, Note_on_c, 0, 60, 45
2, 79311, Note_on_c, 0, 64, 47
2, 79333, Note_on_c, 0, 69, 43
2, 79398, Note_on_c, 0, 43, 60
2, 79404, Control_c, 0, 64, 127
2, 79407, Note_on_c, 0, 76, 64
2, 79420, Note_on_c, 0, 60, 0
2, 79420, Note_on_c, 0, 57, 0
2, 79423, Note_on_c, 0, 45, 0
2, 79429, Note_on_c, 0, 72, 0
2, 79432, Note_on_c, 0, 69, 0
2, 79467, Note_on_c, 0, 57, 44
2, 79467, Note_on_c, 0, 60, 46
2, 79476, Note_on_c, 0, 72, 44
2, 79479, Note_on_c, 0, 69, 45
2, 79482, Note_on_c, 0, 55, 44
2, 79490, Note_on_c, 0, 60, 0
2, 79501, Note_on_c, 0, 72, 0
2, 79504, Note_on_c, 0, 55, 0
2, 79504, Note_on_c, 0, 57, 0
2, 79504, Note_on_c, 0, 69, 0
2, 79536, Note_on_c, 0, 60, 46
2, 79547, Note_on_c, 0, 57, 45
2, 79547, Note_on_c, 0, 69, 49
2, 79547, Note_on_c, 0, 72, 45
2, 79550, Note_on_c, 0, 55, 43
2, 79560, Note_on_c, 0, 64, 0
2, 79566, Control_c, 0, 64, 0
2, 79605, Note_on_c, 0, 42, 65
2, 79613, Note_on_c, 0, 75, 66
2, 79630, Note_on_c, 0, 43, 0
2, 79635, Note_on_c, 0, 76, 0
2, 79649, Note_on_c, 0, 60, 0
2, 79652, Note_on_c, 0, 57, 0
2, 79660, Note_on_c, 0, 72, 0
2, 79660, Note_on_c, 0, 69, 0
2, 79696, Note_on_c, 0, 60, 43
2, 79699, Note_on_c, 0, 54, 44
2, 79699, Note_on_c, 0, 57, 41
2, 79707, Note_on_c, 0, 69, 42
2, 79707, Note_on_c, 0, 72, 42
2, 79724, Note_on_c, 0, 57, 0
2, 79724, Note_on_c, 0, 55, 0
2, 79724, Note_on_c, 0, 54, 0
2, 79732, Note_on_c, 0, 72, 0
2, 79732, Note_on_c, 0, 60, 0
2, 79732, Note_on_c, 0, 69, 0
2, 79768, Note_on_c, 0, 54, 46
2, 79768, Note_on_c, 0, 57, 41
2, 79778, Note_on_c, 0, 60, 43
2, 79778, Note_on_c, 0, 69, 42
2, 79778, Note_on_c, 0, 72, 42
2, 79836, Control_c, 0, 64, 127
2, 79847, Note_on_c, 0, 81, 72
2, 79855, Note_on_c, 0, 40, 62
2, 79874, Note_on_c, 0, 75, 0
2, 79877, Note_on_c, 0, 57, 0
2, 79880, Note_on_c, 0, 42, 0
2, 79883, Note_on_c, 0, 69, 0
2, 79883, Note_on_c, 0, 60, 0
2, 79883, Note_on_c, 0, 72, 0
2, 79919, Note_on_c, 0, 57, 46
2, 79921, Note_on_c, 0, 52, 41
2, 79930, Note_on_c, 0, 69, 51
2, 79930, Note_on_c, 0, 72, 47
2, 79933, Note_on_c, 0, 60, 48
2, 79946, Note_on_c, 0, 54, 0
2, 79955, Note_on_c, 0, 57, 0
2, 79958, Note_on_c, 0, 52, 0
2, 79964, Note_on_c, 0, 72, 0
2, 79967, Note_on_c, 0, 69, 0
2, 79967, Note_on_c, 0, 60, 0
2, 80002, Note_on_c, 0, 57, 48
2, 80005, Note_on_c, 0, 52, 41
2, 80011, Note_on_c, 0, 60, 42
2, 80011, Note_on_c, 0, 69, 54
2, 80011, Note_on_c, 0, 72, 48
2, 80036, Note_on_c, 0, 69, 0
2, 80052, Note_on_c, 0, 57, 0
2, 80090, Control_c, 0, 64, 0
2, 80090, Note_on_c, 0, 69, 69
2, 80090, Note_on_c, 0, 71, 65
2, 80093, Note_on_c, 0, 57, 58
2, 80093, Note_on_c, 0, 59, 53
2, 80104, Note_on_c, 0, 51, 59
2, 80112, Note_on_c, 0, 81, 0
2, 80112, Note_on_c, 0, 72, 0
2, 80115, Note_on_c, 0, 60, 0
2, 80118, Note_on_c, 0, 54, 55
2, 80127, Note_on_c, 0, 57, 0
2, 80127, Note_on_c, 0, 59, 0
2, 80130, Note_on_c, 0, 51, 0
2, 80130, Note_on_c, 0, 52, 0
2, 80133, Note_on_c, 0, 40, 0
2, 80141, Note_on_c, 0, 54, 0
2, 80171, Note_on_c, 0, 59, 44
2, 80174, Note_on_c, 0, 51, 44
2, 80174, Note_on_c, 0, 57, 47
2, 80184, Note_on_c, 0, 69, 0
2, 80184, Note_on_c, 0, 54, 45
2, 80198, Note_on_c, 0, 57, 0
2, 80208, Note_on_c, 0, 59, 0
2, 80211, Note_on_c, 0, 51, 0
2, 80220, Note_on_c, 0, 54, 0
2, 80242, Note_on_c, 0, 57, 48
2, 80253, Note_on_c, 0, 73, 57
2, 80256, Note_on_c, 0, 51, 46
2, 80256, Note_on_c, 0, 59, 47
2, 80256, Note_on_c, 0, 69, 58
2, 80269, Note_on_c, 0, 54, 46
2, 80278, Note_on_c, 0, 69, 0
2, 80278, Note_on_c, 0, 71, 0
2, 80280, Note_on_c, 0, 57, 0
2, 80289, Note_on_c, 0, 59, 0
2, 80292, Note_on_c, 0, 51, 0
2, 80292, Note_on_c, 0, 54, 0
2, 80322, Note_on_c, 0, 75, 54
2, 80328, Note_on_c, 0, 57, 42
2, 80336, Note_on_c, 0, 59, 48
2, 80336, Note_on_c, 0, 69, 58
2, 80339, Note_on_c, 0, 51, 43
2, 80339, Note_on_c, 0, 54, 47
2, 80348, Note_on_c, 0, 73, 0
2, 80358, Control_c, 0, 64, 127
2, 80361, Note_on_c, 0, 69, 0
2, 80361, Note_on_c, 0, 59, 0
2, 80361, Note_on_c, 0, 57, 0
2, 80364, Note_on_c, 0, 51, 0
2, 80364, Note_on_c, 0, 54, 0
2, 80380, Note_on_c, 0, 76, 59
2, 80394, Note_on_c, 0, 59, 45
2, 80394, Note_on_c, 0, 69, 59
2, 80410, Note_on_c, 0, 51, 41
2, 80410, Note_on_c, 0, 54, 41
2, 80410, Note_on_c, 0, 57, 42
2, 80419, Note_on_c, 0, 75, 0
2, 80422, Note_on_c, 0, 69, 0
2, 80432, Note_on_c, 0, 59, 0
2, 80435, Note_on_c, 0, 51, 0
2, 80435, Note_on_c, 0, 57, 0
2, 80435, Note_on_c, 0, 54, 0
2, 80462, Note_on_c, 0, 78, 61
2, 80475, Note_on_c, 0, 59, 48
2, 80475, Note_on_c, 0, 69, 61
2, 80478, Note_on_c, 0, 51, 42
2, 80478, Note_on_c, 0, 54, 48
2, 80478, Note_on_c, 0, 57, 48
2, 80497, Note_on_c, 0, 69, 0
2, 80500, Note_on_c, 0, 59, 0
2, 80527, Note_on_c, 0, 81, 61
2, 80530, Note_on_c, 0, 69, 64
2, 80544, Note_on_c, 0, 59, 57
2, 80557, Note_on_c, 0, 52, 56
2, 80557, Note_on_c, 0, 55, 54
2, 80566, Note_on_c, 0, 59, 0
2, 80576, Note_on_c, 0, 57, 0
2, 80579, Note_on_c, 0, 54, 0
2, 80579, Note_on_c, 0, 51, 0
2, 80579, Note_on_c, 0, 52, 0
2, 80579, Note_on_c, 0, 55, 0
2, 80612, Note_on_c, 0, 67, 59
2, 80612, Note_on_c, 0, 79, 59
2, 80615, Note_on_c, 0, 59, 42
2, 80625, Note_on_c, 0, 55, 42
2, 80628, Note_on_c, 0, 52, 43
2, 80634, Note_on_c, 0, 78, 0
2, 80634, Note_on_c, 0, 81, 0
2, 80637, Note_on_c, 0, 69, 0
2, 80637, Note_on_c, 0, 76, 0
2, 80650, Note_on_c, 0, 55, 0
2, 80650, Note_on_c, 0, 59, 0
2, 80653, Note_on_c, 0, 52, 0
2, 80680, Note_on_c, 0, 75, 60
2, 80693, Note_on_c, 0, 52, 45
2, 80693, Note_on_c, 0, 55, 44
2, 80693, Note_on_c, 0, 59, 46
2, 80702, Control_c, 0, 64, 0
2, 80705, Note_on_c, 0, 67, 0
2, 80705, Note_on_c, 0, 79, 0
2, 80718, Note_on_c, 0, 55, 0
2, 80721, Note_on_c, 0, 52, 0
2, 80751, Note_on_c, 0, 52, 49
2, 80760, Note_on_c, 0, 78, 48
2, 80762, Note_on_c, 0, 57, 48
2, 80768, Note_on_c, 0, 48, 53
2, 80768, Note_on_c, 0, 55, 54
2, 80787, Note_on_c, 0, 59, 0
2, 80787, Note_on_c, 0, 75, 0
2, 80790, Note_on_c, 0, 52, 0
2, 80790, Note_on_c, 0, 57, 0
2, 80790, Note_on_c, 0, 55, 0
2, 80801, Note_on_c, 0, 48, 0
2, 80831, Note_on_c, 0, 76, 60
2, 80833, Note_on_c, 0, 52, 46
2, 80833, Note_on_c, 0, 57, 48
2, 80836, Note_on_c, 0, 55, 41
2, 80847, Note_on_c, 0, 48, 43
2, 80853, Note_on_c, 0, 78, 0
2, 80858, Note_on_c, 0, 57, 0
2, 80869, Note_on_c, 0, 55, 0
2, 80869, Note_on_c, 0, 52, 0
2, 80872, Note_on_c, 0, 48, 0
2, 80907, Note_on_c, 0, 57, 48
2, 80916, Note_on_c, 0, 76, 0
2, 80916, Note_on_c, 0, 69, 55
2, 80919, Note_on_c, 0, 55, 42
2, 80922, Note_on_c, 0, 48, 42
2, 80930, Note_on_c, 0, 52, 53
2, 80944, Note_on_c, 0, 55, 0
2, 80960, Control_c, 0, 64, 127
2, 80974, Note_on_c, 0, 55, 57
2, 80984, Note_on_c, 0, 59, 60
2, 80984, Note_on_c, 0, 67, 60
2, 80993, Note_on_c, 0, 76, 54
2, 80999, Note_on_c, 0, 57, 0
2, 80999, Note_on_c, 0, 50, 60
2, 81007, Note_on_c, 0, 69, 0
2, 81010, Note_on_c, 0, 55, 0
2, 81010, Note_on_c, 0, 59, 0
2, 81021, Note_on_c, 0, 50, 0
2, 81021, Note_on_c, 0, 52, 0
2, 81024, Note_on_c, 0, 48, 0
2, 81050, Note_on_c, 0, 67, 0
2, 81050, Note_on_c, 0, 59, 58
2, 81056, Note_on_c, 0, 55, 54
2, 81062, Note_on_c, 0, 74, 58
2, 81068, Note_on_c, 0, 50, 54
2, 81076, Note_on_c, 0, 59, 0
2, 81079, Note_on_c, 0, 55, 0
2, 81088, Note_on_c, 0, 76, 0
2, 81091, Note_on_c, 0, 50, 0
2, 81110, Note_on_c, 0, 59, 58
2, 81120, Note_on_c, 0, 50, 57
2, 81120, Note_on_c, 0, 55, 54
2, 81120, Note_on_c, 0, 67, 59
2, 81169, Note_on_c, 0, 50, 0
2, 81196, Note_on_c, 0, 71, 53
2, 81202, Note_on_c, 0, 57, 60
2, 81205, Note_on_c, 0, 48, 56
2, 81214, Note_on_c, 0, 54, 53
2, 81216, Note_on_c, 0, 50, 55
2, 81225, Note_on_c, 0, 57, 0
2, 81228, Note_on_c, 0, 48, 0
2, 81239, Note_on_c, 0, 50, 0
2, 81239, Note_on_c, 0, 54, 0
2, 81239, Note_on_c, 0, 55, 0
2, 81271, Note_on_c, 0, 54, 55
2, 81271, Note_on_c, 0, 57, 56
2, 81271, Note_on_c, 0, 69, 56
2, 81274, Note_on_c, 0, 48, 53
2, 81285, Note_on_c, 0, 50, 55
2, 81295, Note_on_c, 0, 57, 0
2, 81295, Note_on_c, 0, 54, 0
2, 81298, Note_on_c, 0, 48, 0
2, 81307, Note_on_c, 0, 50, 0
2, 81329, Note_on_c, 0, 57, 60
2, 81329, Note_on_c, 0, 62, 56
2, 81332, Note_on_c, 0, 48, 58
2, 81332, Note_on_c, 0, 54, 54
2, 81342, Note_on_c, 0, 50, 55
2, 81361, Note_on_c, 0, 74, 0
2, 81364, Note_on_c, 0, 54, 0
2, 81364, Note_on_c, 0, 69, 0
2, 81364, Note_on_c, 0, 59, 0
2, 81364, Note_on_c, 0, 57, 0
2, 81364, Note_on_c, 0, 67, 0
2, 81364, Note_on_c, 0, 71, 0
2, 81364, Note_on_c, 0, 62, 0
2, 81367, Note_on_c, 0, 48, 0
2, 81381, Note_on_c, 0, 50, 0
2, 81400, Control_c, 0, 64, 0
2, 81657, Note_on_c, 0, 47, 54
2, 81657, Note_on_c, 0, 50, 60
2, 81657, Note_on_c, 0, 55, 60
2, 81666, Note_on_c, 0, 62, 59
2, 81720, Note_on_c, 0, 67, 50
2, 81723, Control_c, 0, 64, 127
2, 81768, Note_on_c, 0, 71, 52
2, 81803, Note_on_c, 0, 74, 48
2, 81861, Note_on_c, 0, 79, 53
2, 81915, Note_on_c, 0, 83, 52
2, 81960, Note_on_c, 0, 86, 47
2, 81973, Note_on_c, 0, 83, 0
2, 81976, Note_on_c, 0, 62, 0
2, 81976, Control_c, 0, 64, 0
2, 82014, Note_on_c, 0, 83, 47
2, 82020, Note_on_c, 0, 79, 0
2, 82042, Note_on_c, 0, 62, 58
2, 82053, Note_on_c, 0, 74, 0
2, 82061, Note_on_c, 0, 79, 48
2, 82091, Note_on_c, 0, 62, 0
2, 82097, Note_on_c, 0, 74, 49
2, 82113, Note_on_c, 0, 71, 0
2, 82157, Note_on_c, 0, 62, 58
2, 82168, Note_on_c, 0, 71, 47
2, 82181, Note_on_c, 0, 67, 0
2, 82203, Note_on_c, 0, 62, 0
2, 82225, Note_on_c, 0, 67, 48
2, 82231, Note_on_c, 0, 47, 0
2, 82272, Note_on_c, 0, 67, 0
2, 82272, Note_on_c, 0, 62, 66
2, 82302, Note_on_c, 0, 47, 65
2, 82321, Note_on_c, 0, 67, 49
2, 82324, Note_on_c, 0, 50, 0
2, 82324, Note_on_c, 0, 55, 0
2, 82333, Note_on_c, 0, 71, 0
2, 82358, Control_c, 0, 64, 127
2, 82377, Note_on_c, 0, 71, 50
2, 82391, Note_on_c, 0, 74, 0
2, 82435, Note_on_c, 0, 79, 0
2, 82435, Note_on_c, 0, 74, 47
2, 82479, Note_on_c, 0, 83, 0
2, 82479, Note_on_c, 0, 79, 54
2, 82517, Note_on_c, 0, 86, 0
2, 82526, Note_on_c, 0, 83, 53
2, 82561, Note_on_c, 0, 86, 48
2, 82564, Note_on_c, 0, 83, 0
2, 82586, Note_on_c, 0, 79, 0
2, 82608, Note_on_c, 0, 83, 48
2, 82633, Note_on_c, 0, 79, 51
2, 82636, Note_on_c, 0, 74, 0
2, 82636, Note_on_c, 0, 60, 52
2, 82661, Note_on_c, 0, 62, 0
2, 82680, Note_on_c, 0, 74, 52
2, 82683, Note_on_c, 0, 71, 0
2, 82722, Note_on_c, 0, 59, 50
2, 82730, Note_on_c, 0, 71, 51
2, 82744, Note_on_c, 0, 60, 0
2, 82754, Note_on_c, 0, 67, 0
2, 82779, Note_on_c, 0, 59, 0
2, 82799, Note_on_c, 0, 67, 49
2, 82843, Control_c, 0, 64, 0
2, 82843, Note_on_c, 0, 59, 54
2, 82843, Note_on_c, 0, 62, 50
2, 82846, Note_on_c, 0, 50, 49
2, 82848, Note_on_c, 0, 48, 54
2, 82857, Note_on_c, 0, 54, 51
2, 82871, Note_on_c, 0, 47, 0
2, 82887, Note_on_c, 0, 66, 53
2, 82909, Note_on_c, 0, 83, 0
2, 82912, Note_on_c, 0, 79, 0
2, 82912, Note_on_c, 0, 86, 0
2, 82915, Note_on_c, 0, 71, 0
2, 82915, Note_on_c, 0, 67, 0
2, 82937, Note_on_c, 0, 74, 0
2, 82950, Note_on_c, 0, 69, 54
2, 82980, Note_on_c, 0, 74, 52
2, 83040, Note_on_c, 0, 78, 53
2, 83063, Note_on_c, 0, 81, 52
2, 83068, Note_on_c, 0, 57, 47
2, 83093, Note_on_c, 0, 59, 0
2, 83099, Note_on_c, 0, 86, 50
2, 83112, Note_on_c, 0, 81, 0
2, 83137, Control_c, 0, 64, 127
2, 83160, Note_on_c, 0, 78, 0
2, 83160, Note_on_c, 0, 81, 52
2, 83204, Note_on_c, 0, 78, 54
2, 83209, Note_on_c, 0, 74, 0
2, 83248, Note_on_c, 0, 55, 53
2, 83254, Note_on_c, 0, 74, 48
2, 83256, Note_on_c, 0, 69, 0
2, 83270, Note_on_c, 0, 54, 0
2, 83292, Note_on_c, 0, 57, 0
2, 83301, Note_on_c, 0, 69, 48
2, 83311, Note_on_c, 0, 66, 0
2, 83336, Note_on_c, 0, 55, 0
2, 83336, Note_on_c, 0, 54, 53
2, 83339, Note_on_c, 0, 50, 0
2, 83345, Control_c, 0, 64, 0
2, 83358, Note_on_c, 0, 62, 0
2, 83369, Note_on_c, 0, 66, 48
2, 83391, Note_on_c, 0, 74, 0
2, 83401, Note_on_c, 0, 69, 0
2, 83401, Note_on_c, 0, 62, 50
2, 83404, Note_on_c, 0, 50, 54
2, 83404, Note_on_c, 0, 55, 49
2, 83407, Note_on_c, 0, 48, 0
2, 83410, Note_on_c, 0, 86, 0
2, 83416, Note_on_c, 0, 47, 51
2, 83422, Note_on_c, 0, 81, 0
2, 83424, Note_on_c, 0, 78, 0
2, 83424, Note_on_c, 0, 74, 53
2, 83438, Note_on_c, 0, 66, 0
2, 83441, Note_on_c, 0, 54, 0
2, 83447, Note_on_c, 0, 67, 49
2, 83485, Note_on_c, 0, 74, 0
2, 83494, Note_on_c, 0, 71, 54
2, 83510, Note_on_c, 0, 55, 0
2, 83529, Note_on_c, 0, 74, 50
2, 83565, Note_on_c, 0, 79, 51
2, 83581, Note_on_c, 0, 55, 49
2, 83622, Note_on_c, 0, 83, 51
2, 83644, Note_on_c, 0, 86, 50
2, 83669, Note_on_c, 0, 83, 0
2, 83686, Note_on_c, 0, 57, 51
2, 83705, Note_on_c, 0, 79, 0
2, 83711, Note_on_c, 0, 55, 0
2, 83713, Note_on_c, 0, 83, 50
2, 83719, Control_c, 0, 64, 127
2, 83746, Note_on_c, 0, 79, 48
2, 83749, Note_on_c, 0, 74, 0
2, 83784, Note_on_c, 0, 71, 0
2, 83793, Note_on_c, 0, 74, 48
2, 83829, Note_on_c, 0, 71, 51
2, 83832, Note_on_c, 0, 59, 52
2, 83842, Note_on_c, 0, 67, 0
2, 83856, Note_on_c, 0, 62, 0
2, 83856, Note_on_c, 0, 57, 0
2, 83885, Note_on_c, 0, 67, 54
2, 83918, Control_c, 0, 64, 0
2, 83921, Note_on_c, 0, 57, 60
2, 83921, Note_on_c, 0, 62, 56
2, 83931, Note_on_c, 0, 54, 58
2, 83940, Note_on_c, 0, 67, 0
2, 83940, Note_on_c, 0, 74, 0
2, 83940, Note_on_c, 0, 83, 0
2, 83940, Note_on_c, 0, 71, 0
2, 83940, Note_on_c, 0, 86, 0
2, 83940, Note_on_c, 0, 79, 0
2, 83943, Note_on_c, 0, 59, 0
2, 83952, Note_on_c, 0, 69, 51
2, 83957, Note_on_c, 0, 47, 0
2, 83957, Note_on_c, 0, 50, 0
2, 84006, Note_on_c, 0, 72, 55
2, 84055, Note_on_c, 0, 74, 49
2, 84082, Note_on_c, 0, 60, 53
2, 84091, Note_on_c, 0, 81, 48
2, 84104, Note_on_c, 0, 57, 0
2, 84126, Note_on_c, 0, 84, 53
2, 84162, Note_on_c, 0, 84, 0
2, 84170, Note_on_c, 0, 86, 52
2, 84176, Note_on_c, 0, 50, 49
2, 84176, Note_on_c, 0, 57, 54
2, 84198, Note_on_c, 0, 60, 0
2, 84201, Note_on_c, 0, 54, 0
2, 84207, Note_on_c, 0, 81, 0
2, 84207, Note_on_c, 0, 84, 53
2, 84220, Control_c, 0, 64, 127
2, 84247, Note_on_c, 0, 81, 52
2, 84253, Note_on_c, 0, 74, 0
2, 84286, Note_on_c, 0, 72, 0
2, 84299, Note_on_c, 0, 74, 56
2, 84332, Note_on_c, 0, 72, 49
2, 84345, Note_on_c, 0, 69, 0
2, 84381, Note_on_c, 0, 69, 50
2, 84394, Note_on_c, 0, 62, 0
2, 84424, Note_on_c, 0, 59, 56
2, 84424, Note_on_c, 0, 62, 55
2, 84437, Note_on_c, 0, 55, 60
2, 84448, Note_on_c, 0, 57, 0
2, 84461, Note_on_c, 0, 50, 0
2, 84467, Note_on_c, 0, 67, 55
2, 84470, Control_c, 0, 64, 0
2, 84480, Note_on_c, 0, 74, 0
2, 84483, Note_on_c, 0, 72, 0
2, 84492, Note_on_c, 0, 81, 0
2, 84492, Note_on_c, 0, 86, 0
2, 84492, Note_on_c, 0, 84, 0
2, 84495, Note_on_c, 0, 69, 0
2, 84505, Note_on_c, 0, 71, 55
2, 84535, Note_on_c, 0, 74, 49
2, 84581, Note_on_c, 0, 79, 56
2, 84625, Note_on_c, 0, 83, 49
2, 84639, Note_on_c, 0, 83, 0
2, 84655, Note_on_c, 0, 86, 52
2, 84685, Note_on_c, 0, 83, 52
2, 84688, Note_on_c, 0, 79, 0
2, 84734, Control_c, 0, 64, 127
2, 84737, Note_on_c, 0, 74, 0
2, 84737, Note_on_c, 0, 79, 56
2, 84750, Note_on_c, 0, 59, 0
2, 84759, Note_on_c, 0, 60, 55
2, 84769, Note_on_c, 0, 71, 0
2, 84780, Note_on_c, 0, 74, 56
2, 84786, Note_on_c, 0, 62, 0
2, 84805, Note_on_c, 0, 59, 63
2, 84816, Note_on_c, 0, 67, 0
2, 84816, Note_on_c, 0, 71, 54
2, 84821, Note_on_c, 0, 60, 0
2, 84824, Note_on_c, 0, 59, 0
2, 84857, Note_on_c, 0, 67, 53
2, 84892, Control_c, 0, 64, 0
2, 84895, Note_on_c, 0, 59, 57
2, 84909, Note_on_c, 0, 48, 48
2, 84917, Note_on_c, 0, 62, 51
2, 84920, Note_on_c, 0, 54, 46
2, 84934, Note_on_c, 0, 50, 46
2, 84944, Note_on_c, 0, 55, 0
2, 84953, Note_on_c, 0, 66, 52
2, 84972, Note_on_c, 0, 83, 0
2, 84972, Note_on_c, 0, 86, 0
2, 84978, Note_on_c, 0, 71, 0
2, 84978, Note_on_c, 0, 79, 0
2, 84978, Note_on_c, 0, 74, 0
2, 84978, Note_on_c, 0, 67, 0
2, 85000, Note_on_c, 0, 69, 52
2, 85046, Note_on_c, 0, 74, 50
2, 85071, Note_on_c, 0, 78, 56
2, 85077, Note_on_c, 0, 57, 62
2, 85099, Note_on_c, 0, 59, 0
2, 85104, Note_on_c, 0, 81, 52
2, 85156, Note_on_c, 0, 81, 0
2, 85165, Note_on_c, 0, 86, 56
2, 85178, Note_on_c, 0, 78, 0
2, 85192, Note_on_c, 0, 81, 50
2, 85205, Control_c, 0, 64, 127
2, 85224, Note_on_c, 0, 78, 54
2, 85227, Note_on_c, 0, 74, 0
2, 85238, Note_on_c, 0, 55, 59
2, 85251, Note_on_c, 0, 69, 0
2, 85254, Note_on_c, 0, 54, 0
2, 85265, Note_on_c, 0, 57, 0
2, 85273, Note_on_c, 0, 74, 55
2, 85296, Note_on_c, 0, 69, 53
2, 85301, Note_on_c, 0, 66, 0
2, 85315, Note_on_c, 0, 55, 0
2, 85325, Note_on_c, 0, 54, 61
2, 85328, Note_on_c, 0, 50, 0
2, 85347, Note_on_c, 0, 66, 58
2, 85372, Control_c, 0, 64, 0
2, 85386, Note_on_c, 0, 55, 61
2, 85394, Note_on_c, 0, 67, 57
2, 85397, Note_on_c, 0, 50, 60
2, 85411, Note_on_c, 0, 54, 0
2, 85411, Note_on_c, 0, 47, 60
2, 85416, Note_on_c, 0, 86, 0
2, 85416, Note_on_c, 0, 81, 0
2, 85416, Note_on_c, 0, 78, 0
2, 85419, Note_on_c, 0, 66, 0
2, 85419, Note_on_c, 0, 69, 0
2, 85419, Note_on_c, 0, 74, 0
2, 85422, Note_on_c, 0, 62, 0
2, 85428, Note_on_c, 0, 71, 52
2, 85437, Note_on_c, 0, 48, 0
2, 85462, Note_on_c, 0, 55, 0
2, 85478, Note_on_c, 0, 74, 51
2, 85500, Note_on_c, 0, 79, 51
2, 85530, Note_on_c, 0, 55, 62
2, 85557, Note_on_c, 0, 83, 57
2, 85592, Note_on_c, 0, 86, 57
2, 85619, Note_on_c, 0, 86, 0
2, 85622, Note_on_c, 0, 57, 57
2, 85625, Note_on_c, 0, 91, 52
2, 85644, Note_on_c, 0, 53, 62
2, 85647, Note_on_c, 0, 55, 0
2, 85653, Control_c, 0, 64, 127
2, 85663, Note_on_c, 0, 83, 0
2, 85663, Note_on_c, 0, 86, 54
2, 85688, Note_on_c, 0, 79, 0
2, 85697, Note_on_c, 0, 83, 53
2, 85729, Note_on_c, 0, 79, 57
2, 85732, Note_on_c, 0, 74, 0
2, 85768, Note_on_c, 0, 71, 0
2, 85771, Note_on_c, 0, 59, 63
2, 85779, Note_on_c, 0, 74, 51
2, 85804, Note_on_c, 0, 67, 0
2, 85815, Note_on_c, 0, 71, 52
2, 85848, Note_on_c, 0, 67, 56
2, 85850, Note_on_c, 0, 55, 60
2, 85850, Note_on_c, 0, 60, 58
2, 85859, Control_c, 0, 64, 0
2, 85865, Note_on_c, 0, 52, 59
2, 85871, Note_on_c, 0, 79, 0
2, 85871, Note_on_c, 0, 74, 0
2, 85871, Note_on_c, 0, 83, 0
2, 85871, Note_on_c, 0, 86, 0
2, 85871, Note_on_c, 0, 91, 0
2, 85873, Note_on_c, 0, 71, 0
2, 85876, Note_on_c, 0, 57, 0
2, 85876, Note_on_c, 0, 59, 0
2, 85890, Note_on_c, 0, 53, 0
2, 85893, Note_on_c, 0, 50, 0
2, 85893, Note_on_c, 0, 47, 0
2, 85896, Note_on_c, 0, 72, 53
2, 85906, Note_on_c, 0, 76, 55
2, 85964, Note_on_c, 0, 79, 59
2, 86002, Note_on_c, 0, 64, 65
2, 86011, Note_on_c, 0, 84, 58
2, 86024, Note_on_c, 0, 67, 0
2, 86057, Note_on_c, 0, 88, 71
2, 86082, Note_on_c, 0, 91, 71
2, 86095, Note_on_c, 0, 62, 63
2, 86095, Note_on_c, 0, 67, 67
2, 86098, Note_on_c, 0, 59, 65
2, 86114, Note_on_c, 0, 88, 0
2, 86114, Note_on_c, 0, 84, 0
2, 86117, Note_on_c, 0, 72, 0
2, 86117, Note_on_c, 0, 64, 0
2, 86120, Note_on_c, 0, 60, 0
2, 86126, Note_on_c, 0, 52, 0
2, 86126, Note_on_c, 0, 55, 0
2, 86132, Note_on_c, 0, 79, 0
2, 86132, Note_on_c, 0, 76, 0
2, 86140, Note_on_c, 0, 89, 57
2, 86143, Control_c, 0, 64, 127
2, 86162, Note_on_c, 0, 86, 60
2, 86165, Note_on_c, 0, 89, 0
2, 86190, Note_on_c, 0, 59, 0
2, 86190, Note_on_c, 0, 67, 0
2, 86193, Note_on_c, 0, 62, 0
2, 86199, Note_on_c, 0, 86, 0
2, 86202, Note_on_c, 0, 79, 55
2, 86234, Note_on_c, 0, 89, 54
2, 86240, Note_on_c, 0, 59, 53
2, 86240, Note_on_c, 0, 62, 53
2, 86240, Note_on_c, 0, 67, 58
2, 86270, Note_on_c, 0, 86, 58
2, 86303, Control_c, 0, 64, 0
2, 86329, Note_on_c, 0, 79, 0
2, 86329, Note_on_c, 0, 60, 65
2, 86338, Note_on_c, 0, 88, 68
2, 86357, Note_on_c, 0, 62, 0
2, 86357, Note_on_c, 0, 59, 0
2, 86366, Note_on_c, 0, 91, 0
2, 86366, Note_on_c, 0, 89, 0
2, 86366, Note_on_c, 0, 86, 0
2, 86369, Note_on_c, 0, 67, 0
2, 86385, Note_on_c, 0, 84, 55
2, 86399, Note_on_c, 0, 79, 56
2, 86409, Note_on_c, 0, 67, 53
2, 86409, Note_on_c, 0, 72, 60
2, 86412, Note_on_c, 0, 84, 0
2, 86431, Note_on_c, 0, 76, 54
2, 86434, Note_on_c, 0, 79, 0
2, 86434, Note_on_c, 0, 72, 0
2, 86448, Note_on_c, 0, 67, 0
2, 86453, Note_on_c, 0, 84, 59
2, 86480, Note_on_c, 0, 72, 55
2, 86491, Note_on_c, 0, 64, 57
2, 86491, Note_on_c, 0, 67, 59
2, 86501, Note_on_c, 0, 79, 61
2, 86523, Note_on_c, 0, 76, 0
2, 86545, Note_on_c, 0, 56, 72
2, 86568, Note_on_c, 0, 86, 58
2, 86570, Note_on_c, 0, 72, 0
2, 86570, Note_on_c, 0, 60, 0
2, 86570, Note_on_c, 0, 67, 0
2, 86570, Note_on_c, 0, 64, 0
2, 86579, Note_on_c, 0, 88, 0
2, 86590, Note_on_c, 0, 83, 59
2, 86592, Control_c, 0, 64, 127
2, 86615, Note_on_c, 0, 84, 0
2, 86615, Note_on_c, 0, 77, 60
2, 86617, Note_on_c, 0, 62, 57
2, 86626, Note_on_c, 0, 71, 57
2, 86629, Note_on_c, 0, 83, 0
2, 86629, Note_on_c, 0, 65, 60
2, 86640, Note_on_c, 0, 79, 0
2, 86650, Note_on_c, 0, 77, 0
2, 86650, Note_on_c, 0, 74, 54
2, 86653, Note_on_c, 0, 71, 0
2, 86653, Note_on_c, 0, 62, 0
2, 86653, Note_on_c, 0, 65, 0
2, 86697, Note_on_c, 0, 83, 54
2, 86700, Note_on_c, 0, 62, 59
2, 86700, Note_on_c, 0, 65, 58
2, 86700, Note_on_c, 0, 71, 57
2, 86725, Note_on_c, 0, 77, 69
2, 86758, Control_c, 0, 64, 0
2, 86780, Note_on_c, 0, 85, 54
2, 86785, Note_on_c, 0, 57, 69
2, 86805, Note_on_c, 0, 77, 0
2, 86805, Note_on_c, 0, 83, 0
2, 86805, Note_on_c, 0, 86, 0
2, 86808, Note_on_c, 0, 74, 0
2, 86808, Note_on_c, 0, 65, 0
2, 86808, Note_on_c, 0, 62, 0
2, 86808, Note_on_c, 0, 71, 0
2, 86810, Note_on_c, 0, 56, 0
2, 86816, Note_on_c, 0, 81, 57
2, 86841, Note_on_c, 0, 61, 56
2, 86852, Note_on_c, 0, 81, 0
2, 86852, Note_on_c, 0, 64, 57
2, 86852, Note_on_c, 0, 69, 54
2, 86852, Note_on_c, 0, 76, 55
2, 86877, Note_on_c, 0, 69, 0
2, 86877, Note_on_c, 0, 64, 0
2, 86880, Note_on_c, 0, 61, 0
2, 86885, Note_on_c, 0, 73, 55
2, 86888, Note_on_c, 0, 76, 0
2, 86921, Note_on_c, 0, 81, 57
2, 86924, Note_on_c, 0, 64, 58
2, 86924, Note_on_c, 0, 69, 58
2, 86927, Note_on_c, 0, 61, 55
2, 86968, Note_on_c, 0, 76, 67
2, 86981, Note_on_c, 0, 81, 0
2, 87008, Note_on_c, 0, 54, 64
2, 87022, Note_on_c, 0, 84, 55
2, 87024, Note_on_c, 0, 76, 0
2, 87024, Note_on_c, 0, 73, 0
2, 87024, Note_on_c, 0, 69, 0
2, 87027, Note_on_c, 0, 57, 0
2, 87027, Note_on_c, 0, 64, 0
2, 87027, Note_on_c, 0, 61, 0
2, 87036, Note_on_c, 0, 85, 0
2, 87045, Control_c, 0, 64, 127
2, 87048, Note_on_c, 0, 81, 58
2, 87083, Note_on_c, 0, 75, 52
2, 87086, Note_on_c, 0, 81, 0
2, 87086, Note_on_c, 0, 60, 52
2, 87086, Note_on_c, 0, 63, 59
2, 87111, Note_on_c, 0, 60, 0
2, 87121, Note_on_c, 0, 75, 0
2, 87121, Note_on_c, 0, 72, 52
2, 87124, Note_on_c, 0, 63, 0
2, 87154, Note_on_c, 0, 81, 59
2, 87157, Note_on_c, 0, 60, 54
2, 87168, Note_on_c, 0, 63, 57
2, 87190, Note_on_c, 0, 75, 53
2, 87209, Control_c, 0, 64, 0
2, 87244, Note_on_c, 0, 83, 54
2, 87250, Note_on_c, 0, 55, 70
2, 87266, Note_on_c, 0, 79, 52
2, 87269, Note_on_c, 0, 75, 0
2, 87269, Note_on_c, 0, 81, 0
2, 87269, Note_on_c, 0, 72, 0
2, 87269, Note_on_c, 0, 60, 0
2, 87269, Note_on_c, 0, 84, 0
2, 87272, Note_on_c, 0, 54, 0
2, 87272, Note_on_c, 0, 63, 0
2, 87294, Note_on_c, 0, 79, 0
2, 87316, Note_on_c, 0, 59, 54
2, 87316, Note_on_c, 0, 62, 53
2, 87316, Note_on_c, 0, 74, 55
2, 87338, Note_on_c, 0, 71, 52
2, 87341, Note_on_c, 0, 62, 0
2, 87341, Note_on_c, 0, 59, 0
2, 87352, Note_on_c, 0, 74, 0
2, 87362, Note_on_c, 0, 79, 58
2, 87384, Note_on_c, 0, 59, 57
2, 87387, Note_on_c, 0, 62, 55
2, 87420, Note_on_c, 0, 74, 62
2, 87450, Note_on_c, 0, 81, 67
2, 87456, Note_on_c, 0, 51, 68
2, 87475, Note_on_c, 0, 74, 0
2, 87475, Note_on_c, 0, 79, 0
2, 87475, Note_on_c, 0, 83, 0
2, 87475, Note_on_c, 0, 59, 0
2, 87475, Note_on_c, 0, 71, 0
2, 87475, Note_on_c, 0, 62, 0
2, 87478, Note_on_c, 0, 55, 0
2, 87483, Note_on_c, 0, 78, 54
2, 87494, Control_c, 0, 64, 127
2, 87519, Note_on_c, 0, 78, 0
2, 87522, Note_on_c, 0, 60, 51
2, 87525, Note_on_c, 0, 57, 57
2, 87533, Note_on_c, 0, 72, 55
2, 87558, Note_on_c, 0, 60, 0
2, 87561, Note_on_c, 0, 57, 0
2, 87570, Note_on_c, 0, 69, 51
2, 87580, Note_on_c, 0, 72, 0
2, 87591, Note_on_c, 0, 78, 56
2, 87604, Note_on_c, 0, 60, 51
2, 87607, Note_on_c, 0, 57, 51
2, 87651, Note_on_c, 0, 72, 51
2, 87660, Control_c, 0, 64, 0
2, 87698, Note_on_c, 0, 72, 0
2, 87707, Note_on_c, 0, 79, 64
2, 87710, Note_on_c, 0, 52, 61
2, 87732, Note_on_c, 0, 81, 0
2, 87732, Note_on_c, 0, 78, 0
2, 87732, Note_on_c, 0, 69, 0
2, 87732, Note_on_c, 0, 60, 0
2, 87735, Note_on_c, 0, 51, 0
2, 87735, Note_on_c, 0, 57, 0
2, 87744, Note_on_c, 0, 76, 55
2, 87768, Note_on_c, 0, 72, 48
2, 87771, Note_on_c, 0, 55, 54
2, 87771, Note_on_c, 0, 60, 53
2, 87782, Note_on_c, 0, 76, 0
2, 87792, Note_on_c, 0, 60, 0
2, 87795, Note_on_c, 0, 55, 0
2, 87804, Note_on_c, 0, 67, 49
2, 87815, Note_on_c, 0, 72, 0
2, 87840, Note_on_c, 0, 55, 52
2, 87850, Note_on_c, 0, 60, 63
2, 87859, Note_on_c, 0, 76, 48
2, 87891, Note_on_c, 0, 72, 52
2, 87908, Note_on_c, 0, 47, 62
2, 87924, Note_on_c, 0, 77, 66
2, 87927, Note_on_c, 0, 60, 0
2, 87927, Note_on_c, 0, 55, 0
2, 87927, Note_on_c, 0, 67, 0
2, 87927, Note_on_c, 0, 52, 0
2, 87943, Control_c, 0, 64, 127
2, 87946, Note_on_c, 0, 79, 0
2, 87946, Note_on_c, 0, 76, 0
2, 87957, Note_on_c, 0, 74, 51
2, 87967, Note_on_c, 0, 53, 50
2, 87981, Note_on_c, 0, 74, 0
2, 87981, Note_on_c, 0, 72, 0
2, 87981, Note_on_c, 0, 56, 52
2, 87991, Note_on_c, 0, 68, 52
2, 88005, Note_on_c, 0, 56, 0
2, 88005, Note_on_c, 0, 53, 0
2, 88010, Note_on_c, 0, 65, 49
2, 88024, Note_on_c, 0, 68, 0
2, 88034, Note_on_c, 0, 53, 55
2, 88034, Note_on_c, 0, 56, 55
2, 88043, Note_on_c, 0, 74, 54
2, 88076, Note_on_c, 0, 68, 50
2, 88095, Control_c, 0, 64, 0
2, 88125, Note_on_c, 0, 48, 63
2, 88133, Note_on_c, 0, 76, 61
2, 88144, Note_on_c, 0, 77, 0
2, 88147, Note_on_c, 0, 56, 0
2, 88147, Note_on_c, 0, 65, 0
2, 88147, Note_on_c, 0, 74, 0
2, 88147, Note_on_c, 0, 47, 0
2, 88147, Note_on_c, 0, 53, 0
2, 88147, Note_on_c, 0, 68, 0
2, 88157, Note_on_c, 0, 72, 54
2, 88179, Note_on_c, 0, 72, 0
2, 88190, Note_on_c, 0, 67, 55
2, 88193, Note_on_c, 0, 55, 54
2, 88206, Note_on_c, 0, 52, 53
2, 88215, Note_on_c, 0, 67, 0
2, 88215, Note_on_c, 0, 64, 49
2, 88221, Note_on_c, 0, 55, 0
2, 88231, Note_on_c, 0, 52, 0
2, 88248, Note_on_c, 0, 72, 55
2, 88277, Note_on_c, 0, 52, 50
2, 88277, Note_on_c, 0, 55, 53
2, 88286, Note_on_c, 0, 67, 54
2, 88289, Note_on_c, 0, 64, 0
2, 88344, Note_on_c, 0, 67, 0
2, 88357, Note_on_c, 0, 76, 0
2, 88357, Note_on_c, 0, 64, 74
2, 88370, Note_on_c, 0, 49, 74
2, 88379, Note_on_c, 0, 72, 0
2, 88379, Note_on_c, 0, 37, 51
2, 88395, Note_on_c, 0, 52, 0
2, 88395, Note_on_c, 0, 48, 0
2, 88395, Note_on_c, 0, 55, 0
2, 88398, Control_c, 0, 64, 127
2, 88415, Note_on_c, 0, 67, 54
2, 88440, Note_on_c, 0, 43, 54
2, 88450, Note_on_c, 0, 69, 57
2, 88475, Note_on_c, 0, 69, 0
2, 88478, Note_on_c, 0, 43, 0
2, 88497, Note_on_c, 0, 70, 57
2, 88508, Note_on_c, 0, 67, 0
2, 88524, Note_on_c, 0, 43, 52
2, 88533, Note_on_c, 0, 69, 54
2, 88577, Note_on_c, 0, 67, 53
2, 88604, Note_on_c, 0, 67, 0
2, 88607, Control_c, 0, 64, 0
2, 88615, Note_on_c, 0, 50, 75
2, 88615, Note_on_c, 0, 62, 71
2, 88618, Note_on_c, 0, 38, 70
2, 88637, Note_on_c, 0, 64, 0
2, 88637, Note_on_c, 0, 70, 0
2, 88637, Note_on_c, 0, 69, 0
2, 88640, Note_on_c, 0, 49, 0
2, 88640, Note_on_c, 0, 37, 0
2, 88651, Note_on_c, 0, 43, 0
2, 88670, Note_on_c, 0, 67, 53
2, 88697, Note_on_c, 0, 43, 51
2, 88707, Note_on_c, 0, 69, 56
2, 88734, Note_on_c, 0, 43, 0
2, 88740, Note_on_c, 0, 70, 56
2, 88743, Note_on_c, 0, 69, 0
2, 88753, Note_on_c, 0, 67, 0
2, 88776, Note_on_c, 0, 43, 52
2, 88789, Note_on_c, 0, 69, 53
2, 88822, Note_on_c, 0, 67, 52
2, 88847, Note_on_c, 0, 67, 0
2, 88872, Note_on_c, 0, 69, 0
2, 88880, Note_on_c, 0, 61, 73
2, 88883, Note_on_c, 0, 52, 77
2, 88886, Note_on_c, 0, 43, 0
2, 88886, Note_on_c, 0, 40, 74
2, 88899, Control_c, 0, 64, 127
2, 88902, Note_on_c, 0, 67, 57
2, 88905, Note_on_c, 0, 62, 0
2, 88905, Note_on_c, 0, 50, 0
2, 88905, Note_on_c, 0, 70, 0
2, 88908, Note_on_c, 0, 38, 0
2, 88927, Note_on_c, 0, 43, 54
2, 88941, Note_on_c, 0, 69, 53
2, 88951, Note_on_c, 0, 67, 0
2, 88954, Note_on_c, 0, 43, 0
2, 88963, Note_on_c, 0, 69, 0
2, 88973, Note_on_c, 0, 70, 59
2, 88984, Note_on_c, 0, 43, 57
2, 88994, Note_on_c, 0, 69, 58
2, 89019, Note_on_c, 0, 67, 52
2, 89044, Note_on_c, 0, 69, 0
2, 89058, Control_c, 0, 64, 0
2, 89066, Note_on_c, 0, 67, 0
2, 89093, Note_on_c, 0, 38, 73
2, 89093, Note_on_c, 0, 50, 71
2, 89118, Note_on_c, 0, 52, 0
2, 89118, Note_on_c, 0, 40, 0
2, 89118, Note_on_c, 0, 43, 0
2, 89127, Note_on_c, 0, 62, 71
2, 89136, Note_on_c, 0, 67, 74
2, 89136, Note_on_c, 0, 71, 70
2, 89136, Note_on_c, 0, 74, 76
2, 89141, Note_on_c, 0, 61, 0
2, 89163, Note_on_c, 0, 70, 0
2, 89177, Note_on_c, 0, 37, 65
2, 89187, Note_on_c, 0, 50, 0
2, 89187, Note_on_c, 0, 49, 67
2, 89190, Note_on_c, 0, 38, 0
2, 89204, Note_on_c, 0, 73, 69
2, 89207, Note_on_c, 0, 62, 0
2, 89207, Note_on_c, 0, 61, 68
2, 89217, Note_on_c, 0, 74, 0
2, 89228, Note_on_c, 0, 71, 0
2, 89255, Note_on_c, 0, 50, 65
2, 89257, Note_on_c, 0, 38, 71
2, 89277, Note_on_c, 0, 62, 70
2, 89280, Note_on_c, 0, 49, 0
2, 89282, Note_on_c, 0, 37, 0
2, 89288, Note_on_c, 0, 74, 65
2, 89299, Note_on_c, 0, 61, 0
2, 89312, Note_on_c, 0, 73, 0
2, 89323, Note_on_c, 0, 54, 69
2, 89336, Note_on_c, 0, 42, 66
2, 89342, Note_on_c, 0, 78, 63
2, 89355, Note_on_c, 0, 67, 0
2, 89355, Note_on_c, 0, 66, 68
2, 89394, Note_on_c, 0, 43, 63
2, 89394, Note_on_c, 0, 55, 70
2, 89400, Control_c, 0, 64, 127
2, 89419, Note_on_c, 0, 42, 0
2, 89419, Note_on_c, 0, 54, 0
2, 89427, Note_on_c, 0, 67, 64
2, 89427, Note_on_c, 0, 79, 68
2, 89449, Note_on_c, 0, 78, 0
2, 89452, Note_on_c, 0, 66, 0
2, 89463, Note_on_c, 0, 46, 65
2, 89476, Note_on_c, 0, 58, 67
2, 89485, Note_on_c, 0, 82, 67
2, 89496, Note_on_c, 0, 70, 67
2, 89542, Note_on_c, 0, 47, 70
2, 89542, Note_on_c, 0, 59, 70
2, 89561, Note_on_c, 0, 83, 68
2, 89564, Note_on_c, 0, 71, 67
2, 89567, Note_on_c, 0, 58, 0
2, 89567, Note_on_c, 0, 46, 0
2, 89589, Note_on_c, 0, 82, 0
2, 89589, Note_on_c, 0, 70, 0
2, 89602, Note_on_c, 0, 43, 0
2, 89613, Note_on_c, 0, 55, 0
2, 89613, Note_on_c, 0, 54, 65
2, 89623, Note_on_c, 0, 42, 63
2, 89642, Note_on_c, 0, 78, 63
2, 89645, Note_on_c, 0, 79, 0
2, 89645, Note_on_c, 0, 67, 0
2, 89645, Note_on_c, 0, 66, 66
2, 89667, Note_on_c, 0, 43, 69
2, 89678, Note_on_c, 0, 55, 65
2, 89688, Note_on_c, 0, 42, 0
2, 89702, Note_on_c, 0, 54, 0
2, 89711, Note_on_c, 0, 67, 68
2, 89711, Note_on_c, 0, 79, 69
2, 89736, Note_on_c, 0, 66, 0
2, 89736, Note_on_c, 0, 78, 0
2, 89746, Note_on_c, 0, 58, 63
2, 89757, Note_on_c, 0, 59, 0
2, 89757, Note_on_c, 0, 46, 69
2, 89760, Note_on_c, 0, 47, 0
2, 89776, Note_on_c, 0, 83, 0
2, 89776, Note_on_c, 0, 70, 66
2, 89776, Note_on_c, 0, 82, 66
2, 89779, Note_on_c, 0, 71, 0
2, 89825, Note_on_c, 0, 47, 69
2, 89825, Note_on_c, 0, 59, 69
2, 89847, Note_on_c, 0, 71, 68
2, 89847, Note_on_c, 0, 83, 63
2, 89850, Note_on_c, 0, 46, 0
2, 89850, Note_on_c, 0, 58, 0
2, 89869, Note_on_c, 0, 82, 0
2, 89869, Note_on_c, 0, 70, 0
2, 89894, Note_on_c, 0, 62, 0
2, 89894, Note_on_c, 0, 49, 63
2, 89894, Note_on_c, 0, 61, 67
2, 89897, Note_on_c, 0, 50, 0
2, 89907, Note_on_c, 0, 74, 0
2, 89916, Note_on_c, 0, 85, 67
2, 89929, Note_on_c, 0, 73, 73
2, 89962, Note_on_c, 0, 62, 68
2, 89965, Note_on_c, 0, 50, 74
2, 89974, Note_on_c, 0, 74, 73
2, 89984, Note_on_c, 0, 86, 73
2, 89987, Note_on_c, 0, 49, 0
2, 89987, Note_on_c, 0, 61, 0
2, 89998, Note_on_c, 0, 73, 0
2, 90008, Note_on_c, 0, 85, 0
2, 90033, Note_on_c, 0, 59, 0
2, 90033, Note_on_c, 0, 46, 68
2, 90033, Note_on_c, 0, 58, 66
2, 90044, Note_on_c, 0, 47, 0
2, 90054, Note_on_c, 0, 71, 0
2, 90063, Note_on_c, 0, 82, 66
2, 90066, Note_on_c, 0, 83, 0
2, 90066, Note_on_c, 0, 70, 69
2, 90101, Note_on_c, 0, 59, 68
2, 90112, Note_on_c, 0, 47, 63
2, 90122, Note_on_c, 0, 71, 65
2, 90125, Note_on_c, 0, 58, 0
2, 90131, Note_on_c, 0, 83, 63
2, 90137, Note_on_c, 0, 46, 0
2, 90145, Note_on_c, 0, 70, 0
2, 90159, Note_on_c, 0, 82, 0
2, 90181, Note_on_c, 0, 54, 62
2, 90184, Note_on_c, 0, 55, 0
2, 90194, Note_on_c, 0, 43, 0
2, 90194, Control_c, 0, 64, 0
2, 90203, Note_on_c, 0, 67, 0
2, 90203, Note_on_c, 0, 79, 0
2, 90203, Note_on_c, 0, 42, 62
2, 90214, Note_on_c, 0, 78, 66
2, 90230, Note_on_c, 0, 66, 63
2, 90252, Note_on_c, 0, 55, 67
2, 90263, Note_on_c, 0, 43, 63
2, 90271, Note_on_c, 0, 67, 66
2, 90271, Note_on_c, 0, 79, 67
2, 90274, Note_on_c, 0, 54, 0
2, 90288, Note_on_c, 0, 42, 0
2, 90298, Note_on_c, 0, 66, 0
2, 90298, Note_on_c, 0, 78, 0
2, 90344, Note_on_c, 0, 49, 62
2, 90353, Note_on_c, 0, 61, 62
2, 90356, Note_on_c, 0, 37, 73
2, 90366, Note_on_c, 0, 73, 62
2, 90369, Note_on_c, 0, 38, 0
2, 90369, Note_on_c, 0, 47, 0
2, 90369, Note_on_c, 0, 50, 0
2, 90380, Note_on_c, 0, 62, 0
2, 90380, Note_on_c, 0, 74, 0
2, 90440, Note_on_c, 0, 38, 72
2, 90440, Note_on_c, 0, 50, 74
2, 90449, Note_on_c, 0, 74, 68
2, 90452, Note_on_c, 0, 62, 70
2, 90462, Note_on_c, 0, 55, 0
2, 90462, Note_on_c, 0, 49, 0
2, 90465, Note_on_c, 0, 37, 0
2, 90465, Note_on_c, 0, 43, 0
2, 90471, Note_on_c, 0, 83, 0
2, 90474, Note_on_c, 0, 61, 0
2, 90474, Note_on_c, 0, 67, 0
2, 90474, Note_on_c, 0, 71, 0
2, 90474, Note_on_c, 0, 86, 0
2, 90474, Note_on_c, 0, 73, 0
2, 90474, Note_on_c, 0, 59, 0
2, 90474, Note_on_c, 0, 79, 0
2, 90564, Control_c, 0, 64, 127
2, 90690, Note_on_c, 0, 62, 0
2, 90693, Note_on_c, 0, 50, 0
2, 90703, Note_on_c, 0, 74, 0
2, 90730, Control_c, 0, 64, 0
2, 90752, Note_on_c, 0, 57, 69
2, 90761, Note_on_c, 0, 50, 68
2, 90761, Note_on_c, 0, 54, 70
2, 90761, Note_on_c, 0, 62, 68
2, 90761, Note_on_c, 0, 69, 66
2, 90761, Note_on_c, 0, 78, 67
2, 90774, Note_on_c, 0, 74, 69
2, 90783, Note_on_c, 0, 72, 67
2, 90863, Note_on_c, 0, 72, 0
2, 90863, Note_on_c, 0, 78, 0
2, 90863, Note_on_c, 0, 69, 0
2, 90865, Note_on_c, 0, 54, 0
2, 90865, Note_on_c, 0, 57, 0
2, 90865, Note_on_c, 0, 50, 0
2, 90865, Note_on_c, 0, 74, 0
2, 90865, Note_on_c, 0, 38, 0
2, 90876, Note_on_c, 0, 62, 0
2, 91021, Control_c, 0, 64, 127
2, 91037, Note_on_c, 0, 55, 66
2, 91037, Note_on_c, 0, 67, 71
2, 91037, Note_on_c, 0, 71, 69
2, 91037, Note_on_c, 0, 79, 67
2, 91048, Note_on_c, 0, 43, 66
2, 91048, Note_on_c, 0, 47, 69
2, 91048, Note_on_c, 0, 50, 67
2, 91048, Note_on_c, 0, 74, 68
2, 91125, Note_on_c, 0, 74, 0
2, 91190, Note_on_c, 0, 67, 0
2, 91193, Note_on_c, 0, 55, 0
2, 91193, Note_on_c, 0, 79, 0
2, 91193, Note_on_c, 0, 71, 0
2, 91193, Note_on_c, 0, 74, 44
2, 91206, Note_on_c, 0, 50, 0
2, 91206, Note_on_c, 0, 47, 0
2, 91206, Note_on_c, 0, 43, 0
2, 91215, Note_on_c, 0, 74, 0
2, 91240, Note_on_c, 0, 73, 55
2, 91267, Note_on_c, 0, 74, 59
2, 91292, Note_on_c, 0, 73, 0
2, 91341, Note_on_c, 0, 74, 0
2, 91349, Note_on_c, 0, 67, 46
2, 91363, Control_c, 0, 64, 0
2, 91385, Note_on_c, 0, 67, 0
2, 91431, Note_on_c, 0, 62, 41
2, 91466, Note_on_c, 0, 61, 42
2, 91469, Note_on_c, 0, 62, 0
2, 91502, Note_on_c, 0, 62, 57
2, 91505, Note_on_c, 0, 61, 0
2, 91537, Note_on_c, 0, 62, 0
2, 91570, Note_on_c, 0, 55, 42
2, 91606, Note_on_c, 0, 55, 0
2, 91663, Note_on_c, 0, 62, 47
2, 91800, Note_on_c, 0, 59, 49
2, 91800, Note_on_c, 0, 67, 49
2, 91824, Note_on_c, 0, 50, 44
2, 91827, Note_on_c, 0, 62, 0
2, 91838, Note_on_c, 0, 43, 48
2, 91909, Control_c, 0, 64, 127
2, 92038, Note_on_c, 0, 69, 42
2, 92064, Control_c, 0, 64, 0
2, 92084, Note_on_c, 0, 67, 0
2, 92155, Note_on_c, 0, 67, 49
2, 92165, Note_on_c, 0, 38, 41
2, 92182, Note_on_c, 0, 69, 0
2, 92192, Note_on_c, 0, 43, 0
2, 92312, Control_c, 0, 64, 127
2, 92321, Note_on_c, 0, 62, 46
2, 92346, Note_on_c, 0, 62, 0
2, 92356, Note_on_c, 0, 61, 44
2, 92389, Note_on_c, 0, 62, 51
2, 92400, Note_on_c, 0, 66, 51
2, 92413, Note_on_c, 0, 61, 0
2, 92424, Note_on_c, 0, 67, 0
2, 92468, Note_on_c, 0, 62, 0
2, 92468, Note_on_c, 0, 66, 0
2, 92468, Control_c, 0, 64, 0
2, 92490, Note_on_c, 0, 57, 44
2, 92493, Note_on_c, 0, 50, 0
2, 92493, Note_on_c, 0, 38, 0
2, 92493, Note_on_c, 0, 59, 0
2, 92525, Note_on_c, 0, 57, 0
2, 92561, Note_on_c, 0, 50, 45
2, 92593, Note_on_c, 0, 49, 48
2, 92596, Note_on_c, 0, 50, 0
2, 92626, Note_on_c, 0, 49, 0
2, 92640, Note_on_c, 0, 50, 51
2, 92672, Note_on_c, 0, 50, 0
2, 92694, Note_on_c, 0, 38, 42
2, 92733, Note_on_c, 0, 38, 0
2, 92804, Note_on_c, 0, 62, 43
2, 92919, Note_on_c, 0, 69, 52
2, 92932, Note_on_c, 0, 66, 47
2, 92943, Note_on_c, 0, 50, 42
2, 92943, Note_on_c, 0, 60, 42
2, 92970, Note_on_c, 0, 62, 0
2, 92995, Control_c, 0, 64, 127
2, 93145, Note_on_c, 0, 71, 44
2, 93159, Control_c, 0, 64, 0
2, 93169, Note_on_c, 0, 69, 0
2, 93295, Note_on_c, 0, 69, 59
2, 93317, Note_on_c, 0, 38, 47
2, 93320, Note_on_c, 0, 71, 0
2, 93320, Note_on_c, 0, 66, 0
2, 93320, Note_on_c, 0, 59, 47
2, 93342, Note_on_c, 0, 60, 0
2, 93403, Control_c, 0, 64, 127
2, 93457, Note_on_c, 0, 65, 46
2, 93482, Note_on_c, 0, 65, 0
2, 93491, Note_on_c, 0, 64, 42
2, 93524, Note_on_c, 0, 65, 54
2, 93534, Note_on_c, 0, 68, 54
2, 93545, Note_on_c, 0, 64, 0
2, 93545, Note_on_c, 0, 59, 0
2, 93548, Note_on_c, 0, 50, 0
2, 93548, Note_on_c, 0, 38, 0
2, 93558, Note_on_c, 0, 69, 0
2, 93558, Note_on_c, 0, 65, 0
2, 93561, Control_c, 0, 64, 0
2, 93572, Note_on_c, 0, 68, 0
2, 93626, Note_on_c, 0, 59, 42
2, 93668, Note_on_c, 0, 59, 0
2, 93690, Note_on_c, 0, 50, 42
2, 93725, Note_on_c, 0, 49, 46
2, 93728, Note_on_c, 0, 50, 0
2, 93764, Note_on_c, 0, 49, 0
2, 93774, Note_on_c, 0, 50, 48
2, 93807, Note_on_c, 0, 50, 0
2, 93864, Note_on_c, 0, 38, 47
2, 93900, Note_on_c, 0, 38, 0
2, 93944, Note_on_c, 0, 62, 41
2, 93980, Note_on_c, 0, 62, 0
2, 94026, Note_on_c, 0, 71, 53
2, 94036, Note_on_c, 0, 65, 59
2, 94036, Note_on_c, 0, 68, 60
2, 94058, Note_on_c, 0, 50, 47
2, 94072, Control_c, 0, 64, 127
2, 94203, Note_on_c, 0, 72, 57
2, 94214, Note_on_c, 0, 68, 0
2, 94214, Note_on_c, 0, 71, 0
2, 94214, Note_on_c, 0, 65, 0
2, 94224, Control_c, 0, 64, 0
2, 94282, Note_on_c, 0, 48, 52
2, 94304, Note_on_c, 0, 50, 0
2, 94337, Note_on_c, 0, 71, 53
2, 94359, Note_on_c, 0, 72, 0
2, 94427, Note_on_c, 0, 52, 41
2, 94427, Note_on_c, 0, 57, 46
2, 94452, Note_on_c, 0, 57, 0
2, 94452, Note_on_c, 0, 52, 0
2, 94488, Note_on_c, 0, 57, 45
2, 94501, Note_on_c, 0, 52, 45
2, 94547, Note_on_c, 0, 52, 0
2, 94547, Note_on_c, 0, 57, 0
2, 94593, Note_on_c, 0, 52, 43
2, 94593, Note_on_c, 0, 57, 48
2, 94593, Note_on_c, 0, 69, 47
2, 94618, Note_on_c, 0, 71, 0
2, 94629, Control_c, 0, 64, 127
2, 94708, Note_on_c, 0, 76, 51
2, 94801, Note_on_c, 0, 72, 48
2, 94826, Note_on_c, 0, 76, 0
2, 94826, Note_on_c, 0, 69, 0
2, 94837, Note_on_c, 0, 48, 0
2, 94837, Control_c, 0, 64, 0
2, 94908, Note_on_c, 0, 48, 43
2, 94963, Note_on_c, 0, 71, 66
2, 94988, Note_on_c, 0, 72, 0
2, 95020, Note_on_c, 0, 57, 0
2, 95023, Note_on_c, 0, 52, 0
2, 95067, Note_on_c, 0, 52, 45
2, 95067, Note_on_c, 0, 57, 41
2, 95094, Note_on_c, 0, 57, 0
2, 95105, Note_on_c, 0, 52, 0
2, 95137, Note_on_c, 0, 57, 44
2, 95148, Note_on_c, 0, 52, 45
2, 95173, Note_on_c, 0, 57, 0
2, 95184, Note_on_c, 0, 52, 0
2, 95222, Note_on_c, 0, 57, 44
2, 95232, Note_on_c, 0, 52, 43
2, 95232, Note_on_c, 0, 69, 54
2, 95255, Control_c, 0, 64, 127
2, 95257, Note_on_c, 0, 71, 0
2, 95326, Note_on_c, 0, 76, 53
2, 95405, Note_on_c, 0, 72, 47
2, 95430, Note_on_c, 0, 76, 0
2, 95430, Note_on_c, 0, 48, 0
2, 95430, Note_on_c, 0, 69, 0
2, 95463, Control_c, 0, 64, 0
2, 95496, Note_on_c, 0, 48, 42
2, 95520, Note_on_c, 0, 52, 0
2, 95520, Note_on_c, 0, 57, 0
2, 95531, Note_on_c, 0, 71, 60
2, 95553, Note_on_c, 0, 72, 0
2, 95633, Note_on_c, 0, 64, 41
2, 95641, Note_on_c, 0, 55, 47
2, 95677, Note_on_c, 0, 64, 0
2, 95688, Note_on_c, 0, 55, 0
2, 95717, Note_on_c, 0, 64, 48
2, 95731, Note_on_c, 0, 55, 41
2, 95772, Note_on_c, 0, 70, 51
2, 95799, Note_on_c, 0, 71, 0
2, 95821, Note_on_c, 0, 55, 0
2, 95821, Note_on_c, 0, 64, 0
2, 95862, Note_on_c, 0, 55, 44
2, 95862, Note_on_c, 0, 64, 45
2, 95991, Note_on_c, 0, 76, 54
2, 96001, Control_c, 0, 64, 127
2, 96012, Note_on_c, 0, 70, 0
2, 96173, Note_on_c, 0, 72, 54
2, 96283, Note_on_c, 0, 48, 0
2, 96343, Note_on_c, 0, 71, 62
2, 96352, Control_c, 0, 64, 0
2, 96352, Note_on_c, 0, 48, 47
2, 96365, Note_on_c, 0, 76, 0
2, 96365, Note_on_c, 0, 72, 0
2, 96546, Note_on_c, 0, 64, 0
2, 96556, Note_on_c, 0, 55, 0
2, 96589, Note_on_c, 0, 64, 48
2, 96602, Note_on_c, 0, 55, 43
2, 96641, Control_c, 0, 64, 127
2, 96813, Note_on_c, 0, 64, 0
2, 96816, Note_on_c, 0, 55, 0
2, 96860, Note_on_c, 0, 55, 47
2, 96860, Note_on_c, 0, 64, 44
2, 97158, Note_on_c, 0, 64, 0
2, 97169, Note_on_c, 0, 55, 0
2, 97169, Control_c, 0, 64, 0
2, 97177, Note_on_c, 0, 70, 50
2, 97197, Note_on_c, 0, 64, 42
2, 97200, Control_c, 0, 67, 127
2, 97202, Note_on_c, 0, 71, 0
2, 97211, Note_on_c, 0, 55, 47
2, 97443, Control_c, 0, 64, 127
2, 97736, Note_on_c, 0, 88, 48
2, 97758, Note_on_c, 0, 55, 0
2, 97758, Note_on_c, 0, 48, 0
2, 97758, Note_on_c, 0, 64, 0
2, 97758, Note_on_c, 0, 70, 0
2, 97794, Control_c, 0, 64, 0
2, 97816, Note_on_c, 0, 88, 0
2, 97824, Note_on_c, 0, 87, 48
2, 97860, Control_c, 0, 67, 0
2, 97863, Note_on_c, 0, 87, 0
2, 97882, Note_on_c, 0, 88, 48
2, 97885, Note_on_c, 0, 35, 47
2, 97885, Note_on_c, 0, 47, 54
2, 97910, Control_c, 0, 67, 127
2, 97935, Note_on_c, 0, 47, 0
2, 97935, Note_on_c, 0, 35, 0
2, 97935, Note_on_c, 0, 88, 0
2, 98003, Note_on_c, 0, 79, 43
2, 98003, Note_on_c, 0, 83, 47
2, 98036, Note_on_c, 0, 83, 0
2, 98036, Note_on_c, 0, 79, 0
2, 98068, Note_on_c, 0, 76, 44
2, 98079, Note_on_c, 0, 81, 41
2, 98079, Note_on_c, 0, 84, 46
2, 98092, Note_on_c, 0, 75, 48
2, 98095, Note_on_c, 0, 76, 0
2, 98120, Note_on_c, 0, 81, 0
2, 98120, Note_on_c, 0, 84, 0
2, 98131, Note_on_c, 0, 75, 0
2, 98141, Note_on_c, 0, 76, 44
2, 98152, Note_on_c, 0, 79, 44
2, 98152, Note_on_c, 0, 83, 46
2, 98177, Note_on_c, 0, 76, 0
2, 98190, Note_on_c, 0, 83, 0
2, 98190, Note_on_c, 0, 79, 0
2, 98236, Note_on_c, 0, 71, 43
2, 98236, Note_on_c, 0, 76, 47
2, 98236, Note_on_c, 0, 79, 42
2, 98272, Note_on_c, 0, 79, 0
2, 98272, Note_on_c, 0, 76, 0
2, 98272, Note_on_c, 0, 71, 0
2, 98316, Note_on_c, 0, 72, 42
2, 98316, Note_on_c, 0, 76, 42
2, 98316, Note_on_c, 0, 81, 48
2, 98341, Note_on_c, 0, 76, 0
2, 98352, Note_on_c, 0, 75, 46
2, 98354, Note_on_c, 0, 81, 0
2, 98354, Note_on_c, 0, 72, 0
2, 98374, Note_on_c, 0, 79, 45
2, 98384, Note_on_c, 0, 71, 47
2, 98384, Note_on_c, 0, 76, 41
2, 98387, Note_on_c, 0, 75, 0
2, 98409, Note_on_c, 0, 79, 0
2, 98420, Note_on_c, 0, 71, 0
2, 98420, Note_on_c, 0, 76, 0
2, 98464, Note_on_c, 0, 67, 41
2, 98467, Note_on_c, 0, 76, 42
2, 98475, Note_on_c, 0, 71, 42
2, 98497, Note_on_c, 0, 67, 0
2, 98500, Note_on_c, 0, 76, 0
2, 98511, Note_on_c, 0, 71, 0
2, 98533, Note_on_c, 0, 64, 47
2, 98533, Note_on_c, 0, 69, 47
2, 98533, Note_on_c, 0, 72, 47
2, 98533, Note_on_c, 0, 78, 43
2, 98566, Note_on_c, 0, 78, 0
2, 98566, Note_on_c, 0, 64, 0
2, 98566, Note_on_c, 0, 69, 0
2, 98566, Note_on_c, 0, 72, 0
2, 98566, Note_on_c, 0, 63, 53
2, 98601, Note_on_c, 0, 63, 0
2, 98610, Note_on_c, 0, 64, 55
2, 98620, Note_on_c, 0, 67, 57
2, 98620, Note_on_c, 0, 71, 56
2, 98620, Note_on_c, 0, 76, 57
2, 98656, Note_on_c, 0, 76, 0
2, 98656, Note_on_c, 0, 71, 0
2, 98656, Note_on_c, 0, 67, 0
2, 98702, Note_on_c, 0, 52, 48
2, 98702, Note_on_c, 0, 67, 42
2, 98702, Note_on_c, 0, 71, 44
2, 98712, Note_on_c, 0, 64, 0
2, 98735, Note_on_c, 0, 71, 0
2, 98735, Note_on_c, 0, 67, 0
2, 98737, Note_on_c, 0, 52, 0
2, 98782, Note_on_c, 0, 64, 48
2, 98782, Note_on_c, 0, 71, 41
2, 98792, Note_on_c, 0, 67, 47
2, 98806, Note_on_c, 0, 71, 0
2, 98816, Note_on_c, 0, 64, 0
2, 98816, Note_on_c, 0, 70, 43
2, 98827, Note_on_c, 0, 67, 0
2, 98849, Note_on_c, 0, 71, 48
2, 98852, Note_on_c, 0, 70, 0
2, 98852, Note_on_c, 0, 63, 53
2, 98860, Note_on_c, 0, 66, 52
2, 98885, Note_on_c, 0, 63, 0
2, 98885, Note_on_c, 0, 71, 0
2, 98896, Note_on_c, 0, 66, 0
2, 98934, Note_on_c, 0, 59, 48
2, 98945, Note_on_c, 0, 75, 44
2, 98970, Note_on_c, 0, 59, 0
2, 98980, Note_on_c, 0, 75, 0
2, 99002, Note_on_c, 0, 71, 41
2, 99013, Note_on_c, 0, 64, 45
2, 99013, Note_on_c, 0, 67, 41
2, 99026, Note_on_c, 0, 71, 0
2, 99048, Note_on_c, 0, 67, 0
2, 99048, Note_on_c, 0, 64, 0
2, 99048, Note_on_c, 0, 70, 43
2, 99071, Note_on_c, 0, 71, 49
2, 99084, Note_on_c, 0, 70, 0
2, 99084, Note_on_c, 0, 63, 48
2, 99084, Note_on_c, 0, 66, 53
2, 99109, Note_on_c, 0, 71, 0
2, 99120, Note_on_c, 0, 66, 0
2, 99120, Note_on_c, 0, 63, 0
2, 99149, Note_on_c, 0, 78, 47
2, 99160, Note_on_c, 0, 59, 44
2, 99185, Note_on_c, 0, 78, 0
2, 99198, Note_on_c, 0, 59, 0
2, 99217, Note_on_c, 0, 67, 44
2, 99217, Note_on_c, 0, 71, 45
2, 99231, Note_on_c, 0, 64, 47
2, 99241, Note_on_c, 0, 70, 46
2, 99244, Note_on_c, 0, 71, 0
2, 99255, Note_on_c, 0, 67, 0
2, 99265, Note_on_c, 0, 64, 0
2, 99276, Note_on_c, 0, 70, 0
2, 99287, Note_on_c, 0, 63, 57
2, 99287, Note_on_c, 0, 66, 54
2, 99295, Note_on_c, 0, 71, 59
2, 99320, Note_on_c, 0, 66, 0
2, 99320, Note_on_c, 0, 63, 0
2, 99331, Note_on_c, 0, 71, 0
2, 99350, Note_on_c, 0, 59, 43
2, 99360, Note_on_c, 0, 75, 59
2, 99360, Note_on_c, 0, 78, 60
2, 99360, Note_on_c, 0, 83, 57
2, 99385, Note_on_c, 0, 59, 0
2, 99396, Note_on_c, 0, 78, 0
2, 99399, Note_on_c, 0, 75, 0
2, 99399, Note_on_c, 0, 83, 0
2, 99429, Note_on_c, 0, 70, 44
2, 99432, Note_on_c, 0, 76, 48
2, 99432, Note_on_c, 0, 79, 42
2, 99467, Note_on_c, 0, 79, 0
2, 99467, Note_on_c, 0, 76, 0
2, 99467, Note_on_c, 0, 70, 0
2, 99497, Note_on_c, 0, 71, 52
2, 99507, Note_on_c, 0, 75, 48
2, 99507, Note_on_c, 0, 78, 49
2, 99529, Note_on_c, 0, 71, 0
2, 99543, Note_on_c, 0, 78, 0
2, 99546, Note_on_c, 0, 75, 0
2, 99576, Note_on_c, 0, 59, 49
2, 99614, Note_on_c, 0, 59, 0
2, 99647, Note_on_c, 0, 88, 45
2, 99672, Note_on_c, 0, 88, 0
2, 99680, Note_on_c, 0, 87, 59
2, 99716, Note_on_c, 0, 88, 60
2, 99719, Note_on_c, 0, 87, 0
2, 99745, Note_on_c, 0, 40, 43
2, 99745, Note_on_c, 0, 52, 45
2, 99822, Note_on_c, 0, 79, 41
2, 99831, Note_on_c, 0, 83, 41
2, 99866, Note_on_c, 0, 76, 44
2, 99888, Note_on_c, 0, 83, 0
2, 99888, Note_on_c, 0, 81, 46
2, 99891, Note_on_c, 0, 79, 0
2, 99891, Note_on_c, 0, 76, 0
2, 99897, Note_on_c, 0, 84, 44
2, 99913, Note_on_c, 0, 88, 0
2, 99913, Note_on_c, 0, 75, 41
2, 99960, Note_on_c, 0, 76, 42
2, 99960, Note_on_c, 0, 79, 46
2, 99960, Note_on_c, 0, 83, 41
2, 99984, Note_on_c, 0, 75, 0
2, 99984, Note_on_c, 0, 84, 0
2, 99987, Note_on_c, 0, 76, 0
2, 99987, Note_on_c, 0, 79, 0
2, 100017, Note_on_c, 0, 71, 42
2, 100039, Note_on_c, 0, 76, 43
2, 100039, Note_on_c, 0, 79, 48
2, 100042, Note_on_c, 0, 81, 0
2, 100064, Note_on_c, 0, 76, 0
2, 100089, Note_on_c, 0, 83, 0
2, 100100, Note_on_c, 0, 72, 46
2, 100100, Note_on_c, 0, 76, 46
2, 100110, Note_on_c, 0, 79, 0
2, 100110, Note_on_c, 0, 81, 42
2, 100113, Note_on_c, 0, 71, 0
2, 100124, Note_on_c, 0, 76, 0
2, 100156, Note_on_c, 0, 75, 45
2, 100178, Note_on_c, 0, 79, 45
2, 100181, Note_on_c, 0, 71, 48
2, 100203, Note_on_c, 0, 72, 0
2, 100203, Note_on_c, 0, 81, 0
2, 100203, Note_on_c, 0, 76, 46
2, 100206, Note_on_c, 0, 71, 0
2, 100225, Note_on_c, 0, 75, 0
2, 100225, Note_on_c, 0, 76, 0
2, 100261, Note_on_c, 0, 67, 41
2, 100274, Note_on_c, 0, 71, 48
2, 100274, Note_on_c, 0, 76, 45
2, 100320, Note_on_c, 0, 64, 43
2, 100343, Note_on_c, 0, 69, 46
2, 100343, Note_on_c, 0, 72, 41
2, 100343, Note_on_c, 0, 78, 45
2, 100345, Note_on_c, 0, 64, 0
2, 100354, Note_on_c, 0, 67, 0
2, 100357, Note_on_c, 0, 71, 0
2, 100368, Note_on_c, 0, 79, 0
2, 100368, Note_on_c, 0, 76, 0
2, 100378, Note_on_c, 0, 63, 47
2, 100416, Note_on_c, 0, 64, 57
2, 100427, Note_on_c, 0, 67, 59
2, 100427, Note_on_c, 0, 71, 54
2, 100438, Note_on_c, 0, 76, 58
2, 100440, Note_on_c, 0, 69, 0
2, 100440, Note_on_c, 0, 78, 0
2, 100443, Note_on_c, 0, 63, 0
2, 100452, Note_on_c, 0, 72, 0
2, 100455, Note_on_c, 0, 52, 0
2, 100501, Note_on_c, 0, 52, 42
2, 100559, Note_on_c, 0, 81, 41
2, 100597, Note_on_c, 0, 81, 0
2, 100606, Note_on_c, 0, 80, 41
2, 100663, Note_on_c, 0, 81, 54
2, 100669, Note_on_c, 0, 33, 41
2, 100669, Note_on_c, 0, 45, 42
2, 100688, Note_on_c, 0, 80, 0
2, 100688, Note_on_c, 0, 67, 0
2, 100688, Note_on_c, 0, 76, 0
2, 100688, Note_on_c, 0, 64, 0
2, 100691, Note_on_c, 0, 71, 0
2, 100691, Note_on_c, 0, 40, 0
2, 100691, Note_on_c, 0, 52, 0
2, 100756, Note_on_c, 0, 73, 48
2, 100770, Note_on_c, 0, 76, 42
2, 100802, Note_on_c, 0, 81, 0
2, 100805, Note_on_c, 0, 69, 45
2, 100816, Note_on_c, 0, 68, 48
2, 100816, Note_on_c, 0, 74, 46
2, 100816, Note_on_c, 0, 78, 47
2, 100826, Note_on_c, 0, 69, 0
2, 100826, Note_on_c, 0, 73, 0
2, 100826, Note_on_c, 0, 76, 0
2, 100884, Note_on_c, 0, 69, 43
2, 100893, Note_on_c, 0, 73, 44
2, 100896, Note_on_c, 0, 76, 46
2, 100906, Note_on_c, 0, 78, 0
2, 100906, Note_on_c, 0, 68, 0
2, 100909, Note_on_c, 0, 69, 0
2, 100920, Note_on_c, 0, 74, 0
2, 100920, Note_on_c, 0, 73, 0
2, 100966, Note_on_c, 0, 64, 42
2, 100979, Note_on_c, 0, 69, 44
2, 100988, Note_on_c, 0, 73, 46
2, 101004, Note_on_c, 0, 69, 0
2, 101045, Note_on_c, 0, 74, 49
2, 101048, Note_on_c, 0, 64, 0
2, 101048, Note_on_c, 0, 66, 47
2, 101048, Note_on_c, 0, 69, 44
2, 101059, Note_on_c, 0, 73, 0
2, 101069, Note_on_c, 0, 76, 0
2, 101069, Note_on_c, 0, 69, 0
2, 101083, Note_on_c, 0, 68, 49
2, 101105, Note_on_c, 0, 66, 0
2, 101105, Note_on_c, 0, 69, 47
2, 101113, Note_on_c, 0, 64, 42
2, 101130, Note_on_c, 0, 69, 0
2, 101130, Note_on_c, 0, 73, 45
2, 101143, Note_on_c, 0, 68, 0
2, 101143, Note_on_c, 0, 64, 0
2, 101154, Note_on_c, 0, 74, 0
2, 101186, Note_on_c, 0, 64, 42
2, 101197, Note_on_c, 0, 69, 43
2, 101200, Note_on_c, 0, 61, 43
2, 101219, Note_on_c, 0, 73, 0
2, 101257, Note_on_c, 0, 57, 45
2, 101266, Note_on_c, 0, 71, 43
2, 101269, Note_on_c, 0, 66, 41
2, 101278, Note_on_c, 0, 62, 43
2, 101283, Note_on_c, 0, 57, 0
2, 101292, Note_on_c, 0, 64, 0
2, 101292, Note_on_c, 0, 69, 0
2, 101292, Note_on_c, 0, 61, 0
2, 101314, Note_on_c, 0, 56, 45
2, 101339, Note_on_c, 0, 45, 0
2, 101342, Note_on_c, 0, 33, 0
2, 101351, Note_on_c, 0, 57, 54
2, 101370, Note_on_c, 0, 64, 60
2, 101370, Note_on_c, 0, 69, 54
2, 101373, Note_on_c, 0, 56, 0
2, 101373, Note_on_c, 0, 61, 57
2, 101392, Note_on_c, 0, 71, 0
2, 101395, Note_on_c, 0, 62, 0
2, 101395, Note_on_c, 0, 66, 0
2, 101430, Note_on_c, 0, 57, 0
2, 101430, Note_on_c, 0, 64, 0
2, 101441, Note_on_c, 0, 69, 0
2, 101441, Note_on_c, 0, 61, 0
2, 101441, Note_on_c, 0, 45, 46
2, 101479, Note_on_c, 0, 45, 0
2, 101498, Note_on_c, 0, 62, 42
2, 101501, Note_on_c, 0, 50, 41
2, 101523, Note_on_c, 0, 62, 0
2, 101523, Note_on_c, 0, 61, 42
2, 101526, Note_on_c, 0, 50, 0
2, 101537, Note_on_c, 0, 49, 53
2, 101559, Note_on_c, 0, 61, 0
2, 101569, Note_on_c, 0, 50, 57
2, 101569, Note_on_c, 0, 62, 60
2, 101569, Note_on_c, 0, 66, 56
2, 101572, Note_on_c, 0, 49, 0
2, 101583, Note_on_c, 0, 38, 57
2, 101605, Note_on_c, 0, 62, 0
2, 101651, Note_on_c, 0, 57, 47
2, 101664, Note_on_c, 0, 45, 42
2, 101673, Note_on_c, 0, 66, 0
2, 101687, Note_on_c, 0, 57, 0
2, 101728, Note_on_c, 0, 67, 57
2, 101731, Note_on_c, 0, 46, 41
2, 101731, Note_on_c, 0, 58, 43
2, 101760, Note_on_c, 0, 67, 0
2, 101763, Note_on_c, 0, 58, 0
2, 101777, Note_on_c, 0, 45, 0
2, 101823, Note_on_c, 0, 57, 42
2, 101833, Note_on_c, 0, 66, 56
2, 101839, Note_on_c, 0, 38, 0
2, 101848, Note_on_c, 0, 45, 48
2, 101873, Note_on_c, 0, 46, 0
2, 101898, Note_on_c, 0, 50, 0
2, 101904, Control_c, 0, 64, 127
2, 101906, Note_on_c, 0, 38, 48
2, 101964, Note_on_c, 0, 50, 42
2, 101964, Note_on_c, 0, 62, 48
2, 101975, Note_on_c, 0, 66, 0
2, 101980, Note_on_c, 0, 38, 0
2, 101986, Note_on_c, 0, 62, 0
2, 101989, Note_on_c, 0, 50, 0
2, 102000, Note_on_c, 0, 61, 43
2, 102002, Note_on_c, 0, 49, 44
2, 102047, Note_on_c, 0, 62, 55
2, 102047, Note_on_c, 0, 66, 58
2, 102049, Note_on_c, 0, 38, 56
2, 102049, Note_on_c, 0, 50, 56
2, 102058, Note_on_c, 0, 57, 0
2, 102067, Control_c, 0, 64, 0
2, 102070, Note_on_c, 0, 61, 0
2, 102072, Note_on_c, 0, 49, 0
2, 102072, Note_on_c, 0, 45, 0
2, 102081, Note_on_c, 0, 62, 0
2, 102114, Note_on_c, 0, 66, 0
2, 102124, Note_on_c, 0, 57, 48
2, 102138, Note_on_c, 0, 45, 47
2, 102160, Note_on_c, 0, 57, 0
2, 102195, Note_on_c, 0, 58, 46
2, 102215, Note_on_c, 0, 67, 57
2, 102220, Note_on_c, 0, 46, 42
2, 102231, Note_on_c, 0, 58, 0
2, 102234, Note_on_c, 0, 45, 0
2, 102253, Note_on_c, 0, 67, 0
2, 102302, Note_on_c, 0, 45, 41
2, 102308, Note_on_c, 0, 66, 57
2, 102313, Note_on_c, 0, 57, 46
2, 102316, Note_on_c, 0, 38, 0
2, 102327, Note_on_c, 0, 46, 0
2, 102360, Note_on_c, 0, 50, 0
2, 102386, Note_on_c, 0, 38, 41
2, 102416, Note_on_c, 0, 62, 47
2, 102427, Note_on_c, 0, 66, 0
2, 102430, Note_on_c, 0, 50, 42
2, 102449, Note_on_c, 0, 62, 0
2, 102449, Note_on_c, 0, 57, 0
2, 102452, Note_on_c, 0, 50, 0
2, 102455, Note_on_c, 0, 38, 0
2, 102455, Note_on_c, 0, 45, 0
2, 102460, Note_on_c, 0, 61, 48
2, 102463, Note_on_c, 0, 49, 44
2, 102493, Note_on_c, 0, 61, 0
2, 102493, Note_on_c, 0, 62, 60
2, 102493, Note_on_c, 0, 66, 56
2, 102506, Note_on_c, 0, 50, 59
2, 102520, Note_on_c, 0, 38, 43
2, 102528, Note_on_c, 0, 62, 0
2, 102531, Note_on_c, 0, 49, 0
2, 102561, Note_on_c, 0, 66, 0
2, 102586, Note_on_c, 0, 57, 45
2, 102611, Note_on_c, 0, 45, 46
2, 102622, Note_on_c, 0, 57, 0
2, 102622, Control_c, 0, 67, 0
2, 102666, Note_on_c, 0, 67, 59
2, 102669, Note_on_c, 0, 46, 48
2, 102669, Note_on_c, 0, 58, 41
2, 102669, Control_c, 0, 67, 127
2, 102701, Note_on_c, 0, 67, 0
2, 102704, Note_on_c, 0, 58, 0
2, 102707, Note_on_c, 0, 45, 0
2, 102770, Note_on_c, 0, 66, 53
2, 102773, Note_on_c, 0, 45, 42
2, 102773, Note_on_c, 0, 57, 44
2, 102798, Note_on_c, 0, 46, 0
2, 102798, Note_on_c, 0, 50, 0
2, 102801, Note_on_c, 0, 38, 0
2, 102828, Control_c, 0, 64, 127
2, 102866, Note_on_c, 0, 38, 42
2, 102875, Note_on_c, 0, 57, 0
2, 102884, Note_on_c, 0, 66, 0
2, 102952, Note_on_c, 0, 57, 46
2, 102952, Note_on_c, 0, 66, 47
2, 102979, Note_on_c, 0, 45, 0
2, 103042, Note_on_c, 0, 45, 55
2, 103078, Note_on_c, 0, 38, 0
2, 103116, Control_c, 0, 64, 0
2, 103146, Note_on_c, 0, 38, 42
2, 103165, Note_on_c, 0, 66, 0
2, 103174, Note_on_c, 0, 57, 0
2, 103231, Note_on_c, 0, 62, 45
2, 103231, Note_on_c, 0, 66, 45
2, 103234, Note_on_c, 0, 54, 42
2, 103245, Note_on_c, 0, 57, 47
2, 103272, Note_on_c, 0, 45, 0
2, 103345, Note_on_c, 0, 45, 53
2, 103394, Note_on_c, 0, 38, 0
2, 103400, Control_c, 0, 64, 127
2, 103465, Note_on_c, 0, 54, 0
2, 103468, Note_on_c, 0, 38, 46
2, 103474, Note_on_c, 0, 66, 0
2, 103485, Note_on_c, 0, 57, 0
2, 103498, Note_on_c, 0, 62, 0
2, 103531, Note_on_c, 0, 54, 44
2, 103541, Note_on_c, 0, 66, 47
2, 103555, Note_on_c, 0, 57, 45
2, 103563, Note_on_c, 0, 62, 47
2, 103656, Control_c, 0, 64, 0
2, 103659, Note_on_c, 0, 46, 64
2, 103679, Note_on_c, 0, 62, 0
2, 103679, Note_on_c, 0, 66, 0
2, 103681, Note_on_c, 0, 57, 0
2, 103681, Note_on_c, 0, 54, 0
2, 103681, Note_on_c, 0, 45, 0
2, 103687, Note_on_c, 0, 38, 0
2, 103791, Note_on_c, 0, 36, 43
2, 103900, Note_on_c, 0, 67, 67
2, 103903, Note_on_c, 0, 64, 55
2, 103906, Note_on_c, 0, 55, 55
2, 103906, Note_on_c, 0, 58, 52
2, 103944, Control_c, 0, 64, 127
2, 103989, Note_on_c, 0, 46, 0
2, 104038, Note_on_c, 0, 46, 54
2, 104136, Note_on_c, 0, 36, 0
2, 104181, Note_on_c, 0, 36, 43
2, 104244, Note_on_c, 0, 64, 0
2, 104257, Note_on_c, 0, 67, 0
2, 104260, Note_on_c, 0, 58, 0
2, 104271, Note_on_c, 0, 55, 0
2, 104290, Note_on_c, 0, 64, 46
2, 104301, Note_on_c, 0, 67, 44
2, 104304, Note_on_c, 0, 58, 45
2, 104314, Note_on_c, 0, 55, 44
2, 104399, Note_on_c, 0, 46, 0
2, 104445, Note_on_c, 0, 46, 52
2, 104595, Note_on_c, 0, 36, 0
2, 104640, Note_on_c, 0, 36, 42
2, 104782, Note_on_c, 0, 64, 0
2, 104792, Note_on_c, 0, 67, 0
2, 104795, Note_on_c, 0, 58, 0
2, 104795, Note_on_c, 0, 55, 0
2, 104828, Note_on_c, 0, 64, 48
2, 104838, Note_on_c, 0, 67, 47
2, 104841, Note_on_c, 0, 55, 45
2, 104841, Note_on_c, 0, 58, 44
2, 105030, Note_on_c, 0, 46, 0
2, 105063, Control_c, 0, 67, 0
2, 105076, Note_on_c, 0, 46, 48
2, 105096, Note_on_c, 0, 64, 0
2, 105109, Control_c, 0, 67, 127
2, 105120, Note_on_c, 0, 64, 47
2, 105434, Note_on_c, 0, 36, 0
2, 105479, Note_on_c, 0, 36, 46
2, 105813, Note_on_c, 0, 76, 50
2, 105813, Note_on_c, 0, 80, 50
2, 105903, Control_c, 0, 64, 0
2, 105928, Note_on_c, 0, 58, 0
2, 105928, Note_on_c, 0, 67, 0
2, 105928, Note_on_c, 0, 55, 0
2, 105928, Note_on_c, 0, 64, 0
2, 105931, Note_on_c, 0, 46, 0
2, 105934, Note_on_c, 0, 36, 0
2, 105934, Note_on_c, 0, 75, 45
2, 105959, Note_on_c, 0, 76, 0
2, 105959, Note_on_c, 0, 80, 0
2, 106024, Note_on_c, 0, 47, 58
2, 106030, Note_on_c, 0, 76, 63
2, 106030, Note_on_c, 0, 80, 60
2, 106038, Note_on_c, 0, 35, 60
2, 106055, Note_on_c, 0, 75, 0
2, 106060, Note_on_c, 0, 47, 0
2, 106069, Note_on_c, 0, 80, 0
2, 106069, Note_on_c, 0, 76, 0
2, 106075, Note_on_c, 0, 35, 0
2, 106138, Note_on_c, 0, 68, 50
2, 106147, Note_on_c, 0, 40, 47
2, 106176, Note_on_c, 0, 68, 0
2, 106182, Note_on_c, 0, 40, 0
2, 106226, Note_on_c, 0, 40, 48
2, 106232, Note_on_c, 0, 76, 45
2, 106232, Note_on_c, 0, 80, 50
2, 106259, Note_on_c, 0, 76, 0
2, 106268, Note_on_c, 0, 40, 0
2, 106271, Note_on_c, 0, 80, 0
2, 106271, Note_on_c, 0, 75, 50
2, 106303, Note_on_c, 0, 76, 50
2, 106306, Note_on_c, 0, 75, 0
2, 106317, Note_on_c, 0, 80, 56
2, 106325, Note_on_c, 0, 32, 62
2, 106334, Note_on_c, 0, 44, 56
2, 106340, Note_on_c, 0, 76, 0
2, 106350, Note_on_c, 0, 80, 0
2, 106361, Note_on_c, 0, 32, 0
2, 106369, Note_on_c, 0, 44, 0
2, 106416, Note_on_c, 0, 40, 46
2, 106421, Note_on_c, 0, 68, 52
2, 106451, Note_on_c, 0, 40, 0
2, 106457, Note_on_c, 0, 68, 0
2, 106498, Note_on_c, 0, 76, 48
2, 106498, Note_on_c, 0, 80, 50
2, 106507, Note_on_c, 0, 40, 52
2, 106523, Note_on_c, 0, 80, 0
2, 106523, Note_on_c, 0, 76, 0
2, 106526, Control_c, 0, 67, 0
2, 106532, Note_on_c, 0, 75, 63
2, 106542, Note_on_c, 0, 40, 0
2, 106569, Note_on_c, 0, 75, 0
2, 106575, Control_c, 0, 67, 127
2, 106581, Note_on_c, 0, 76, 60
2, 106581, Note_on_c, 0, 80, 57
2, 106610, Note_on_c, 0, 45, 58
2, 106616, Note_on_c, 0, 80, 0
2, 106616, Note_on_c, 0, 76, 0
2, 106625, Note_on_c, 0, 33, 45
2, 106644, Note_on_c, 0, 45, 0
2, 106647, Note_on_c, 0, 33, 0
2, 106677, Note_on_c, 0, 40, 51
2, 106682, Note_on_c, 0, 68, 51
2, 106715, Note_on_c, 0, 40, 0
2, 106718, Note_on_c, 0, 68, 0
2, 106759, Note_on_c, 0, 76, 49
2, 106759, Note_on_c, 0, 80, 49
2, 106768, Note_on_c, 0, 40, 45
2, 106795, Note_on_c, 0, 80, 0
2, 106798, Note_on_c, 0, 76, 0
2, 106803, Note_on_c, 0, 40, 0
2, 106806, Note_on_c, 0, 75, 56
2, 106842, Note_on_c, 0, 75, 0
2, 106842, Note_on_c, 0, 76, 56
2, 106842, Note_on_c, 0, 80, 55
2, 106858, Note_on_c, 0, 46, 60
2, 106864, Note_on_c, 0, 34, 62
2, 106874, Note_on_c, 0, 80, 0
2, 106874, Note_on_c, 0, 76, 0
2, 106894, Note_on_c, 0, 46, 0
2, 106899, Note_on_c, 0, 34, 0
2, 106941, Note_on_c, 0, 40, 52
2, 106970, Note_on_c, 0, 68, 49
2, 106979, Note_on_c, 0, 40, 0
2, 107006, Note_on_c, 0, 68, 0
2, 107028, Note_on_c, 0, 76, 48
2, 107028, Note_on_c, 0, 80, 46
2, 107037, Note_on_c, 0, 40, 50
2, 107064, Note_on_c, 0, 80, 0
2, 107064, Note_on_c, 0, 76, 0
2, 107072, Note_on_c, 0, 40, 0
2, 107072, Note_on_c, 0, 75, 63
2, 107111, Note_on_c, 0, 76, 63
2, 107111, Note_on_c, 0, 80, 66
2, 107113, Note_on_c, 0, 75, 0
2, 107122, Note_on_c, 0, 35, 63
2, 107131, Note_on_c, 0, 47, 66
2, 107150, Note_on_c, 0, 80, 0
2, 107150, Note_on_c, 0, 76, 0
2, 107159, Note_on_c, 0, 35, 0
2, 107167, Note_on_c, 0, 47, 0
2, 107211, Note_on_c, 0, 40, 47
2, 107217, Note_on_c, 0, 68, 47
2, 107250, Note_on_c, 0, 40, 0
2, 107253, Note_on_c, 0, 68, 0
2, 107272, Note_on_c, 0, 76, 50
2, 107272, Note_on_c, 0, 80, 46
2, 107280, Note_on_c, 0, 40, 47
2, 107310, Note_on_c, 0, 80, 0
2, 107310, Note_on_c, 0, 76, 0
2, 107319, Note_on_c, 0, 40, 0
2, 107319, Note_on_c, 0, 75, 65
2, 107354, Note_on_c, 0, 75, 0
2, 107371, Note_on_c, 0, 48, 63
2, 107376, Note_on_c, 0, 36, 60
2, 107379, Note_on_c, 0, 76, 65
2, 107379, Note_on_c, 0, 80, 61
2, 107409, Note_on_c, 0, 48, 0
2, 107412, Note_on_c, 0, 80, 0
2, 107415, Note_on_c, 0, 76, 0
2, 107461, Note_on_c, 0, 68, 48
2, 107470, Note_on_c, 0, 40, 47
2, 107495, Note_on_c, 0, 40, 0
2, 107527, Note_on_c, 0, 80, 53
2, 107530, Note_on_c, 0, 76, 52
2, 107539, Note_on_c, 0, 40, 51
2, 107558, Note_on_c, 0, 76, 0
2, 107558, Note_on_c, 0, 80, 0
2, 107558, Note_on_c, 0, 68, 0
2, 107567, Note_on_c, 0, 36, 0
2, 107580, Note_on_c, 0, 75, 62
2, 107602, Note_on_c, 0, 80, 62
2, 107613, Note_on_c, 0, 37, 69
2, 107621, Note_on_c, 0, 49, 65
2, 107624, Note_on_c, 0, 76, 63
2, 107635, Note_on_c, 0, 40, 0
2, 107648, Note_on_c, 0, 75, 0
2, 107648, Note_on_c, 0, 76, 0
2, 107692, Note_on_c, 0, 81, 70
2, 107695, Note_on_c, 0, 76, 65
2, 107706, Note_on_c, 0, 37, 0
2, 107709, Note_on_c, 0, 80, 0
2, 107712, Note_on_c, 0, 61, 57
2, 107714, Note_on_c, 0, 49, 0
2, 107775, Note_on_c, 0, 80, 56
2, 107785, Note_on_c, 0, 75, 59
2, 107788, Note_on_c, 0, 76, 0
2, 107791, Note_on_c, 0, 59, 59
2, 107800, Note_on_c, 0, 81, 0
2, 107803, Note_on_c, 0, 61, 0
2, 107847, Note_on_c, 0, 75, 0
2, 107847, Note_on_c, 0, 73, 63
2, 107856, Note_on_c, 0, 78, 60
2, 107864, Note_on_c, 0, 57, 62
2, 107873, Note_on_c, 0, 80, 0
2, 107886, Note_on_c, 0, 59, 0
2, 107932, Note_on_c, 0, 56, 62
2, 107938, Note_on_c, 0, 76, 59
2, 107941, Note_on_c, 0, 73, 0
2, 107941, Note_on_c, 0, 71, 61
2, 107952, Note_on_c, 0, 78, 0
2, 107957, Note_on_c, 0, 57, 0
2, 108001, Note_on_c, 0, 59, 56
2, 108010, Note_on_c, 0, 69, 55
2, 108010, Note_on_c, 0, 75, 58
2, 108026, Note_on_c, 0, 56, 0
2, 108032, Note_on_c, 0, 76, 0
2, 108084, Note_on_c, 0, 52, 60
2, 108095, Note_on_c, 0, 68, 61
2, 108097, Note_on_c, 0, 59, 0
2, 108103, Note_on_c, 0, 75, 0
2, 108103, Note_on_c, 0, 76, 60
2, 108106, Note_on_c, 0, 69, 0
2, 108150, Note_on_c, 0, 80, 58
2, 108180, Note_on_c, 0, 78, 58
2, 108183, Note_on_c, 0, 80, 0
2, 108183, Note_on_c, 0, 75, 60
2, 108186, Note_on_c, 0, 76, 0
2, 108202, Note_on_c, 0, 52, 0
2, 108208, Note_on_c, 0, 71, 0
2, 108208, Note_on_c, 0, 68, 0
2, 108224, Note_on_c, 0, 80, 58
2, 108227, Note_on_c, 0, 78, 0
2, 108227, Note_on_c, 0, 76, 55
2, 108230, Note_on_c, 0, 75, 0
2, 108243, Note_on_c, 0, 44, 42
2, 108270, Note_on_c, 0, 75, 56
2, 108270, Note_on_c, 0, 78, 60
2, 108273, Note_on_c, 0, 76, 0
2, 108273, Note_on_c, 0, 80, 0
2, 108279, Note_on_c, 0, 44, 0
2, 108317, Note_on_c, 0, 78, 0
2, 108320, Note_on_c, 0, 75, 0
2, 108320, Note_on_c, 0, 76, 58
2, 108320, Note_on_c, 0, 80, 53
2, 108342, Note_on_c, 0, 32, 49
2, 108367, Note_on_c, 0, 80, 0
2, 108367, Note_on_c, 0, 76, 0
2, 108367, Note_on_c, 0, 75, 54
2, 108367, Note_on_c, 0, 78, 54
2, 108384, Control_c, 0, 64, 127
2, 108408, Note_on_c, 0, 44, 44
2, 108411, Note_on_c, 0, 80, 58
2, 108414, Note_on_c, 0, 78, 0
2, 108414, Note_on_c, 0, 75, 0
2, 108414, Note_on_c, 0, 76, 60
2, 108460, Note_on_c, 0, 75, 59
2, 108460, Note_on_c, 0, 78, 61
2, 108463, Note_on_c, 0, 76, 0
2, 108463, Note_on_c, 0, 80, 0
2, 108507, Note_on_c, 0, 75, 0
2, 108507, Note_on_c, 0, 78, 0
2, 108507, Note_on_c, 0, 76, 61
2, 108507, Note_on_c, 0, 80, 57
2, 108510, Note_on_c, 0, 56, 46
2, 108552, Note_on_c, 0, 78, 55
2, 108554, Note_on_c, 0, 80, 0
2, 108554, Note_on_c, 0, 76, 0
2, 108554, Note_on_c, 0, 75, 58
2, 108599, Note_on_c, 0, 75, 0
2, 108599, Note_on_c, 0, 78, 0
2, 108599, Note_on_c, 0, 76, 60
2, 108599, Note_on_c, 0, 80, 62
2, 108618, Note_on_c, 0, 57, 44
2, 108637, Note_on_c, 0, 56, 0
2, 108643, Note_on_c, 0, 75, 57
2, 108643, Note_on_c, 0, 78, 58
2, 108646, Note_on_c, 0, 80, 0
2, 108646, Note_on_c, 0, 76, 0
2, 108672, Note_on_c, 0, 45, 45
2, 108686, Note_on_c, 0, 80, 62
2, 108689, Note_on_c, 0, 75, 0
2, 108689, Note_on_c, 0, 78, 0
2, 108689, Note_on_c, 0, 76, 60
2, 108697, Note_on_c, 0, 44, 0
2, 108722, Control_c, 0, 64, 0
2, 108731, Note_on_c, 0, 78, 56
2, 108734, Note_on_c, 0, 80, 0
2, 108734, Note_on_c, 0, 76, 0
2, 108734, Note_on_c, 0, 75, 61
2, 108737, Note_on_c, 0, 57, 0
2, 108743, Note_on_c, 0, 45, 0
2, 108745, Note_on_c, 0, 32, 0
2, 108778, Note_on_c, 0, 33, 44
2, 108781, Note_on_c, 0, 78, 0
2, 108781, Note_on_c, 0, 76, 58
2, 108781, Note_on_c, 0, 80, 55
2, 108784, Note_on_c, 0, 75, 0
2, 108816, Note_on_c, 0, 33, 0
2, 108825, Note_on_c, 0, 75, 58
2, 108825, Note_on_c, 0, 78, 59
2, 108828, Note_on_c, 0, 76, 0
2, 108828, Note_on_c, 0, 80, 0
2, 108872, Note_on_c, 0, 75, 0
2, 108872, Note_on_c, 0, 78, 0
2, 108872, Note_on_c, 0, 34, 59
2, 108872, Note_on_c, 0, 76, 58
2, 108872, Note_on_c, 0, 80, 60
2, 108921, Note_on_c, 0, 75, 57
2, 108921, Note_on_c, 0, 78, 62
2, 108924, Note_on_c, 0, 80, 0
2, 108924, Note_on_c, 0, 76, 0
2, 108965, Note_on_c, 0, 46, 45
2, 108968, Note_on_c, 0, 78, 0
2, 108968, Note_on_c, 0, 75, 0
2, 108968, Note_on_c, 0, 76, 62
2, 108968, Note_on_c, 0, 80, 61
2, 108982, Control_c, 0, 64, 127
2, 109014, Note_on_c, 0, 78, 62
2, 109017, Note_on_c, 0, 80, 0
2, 109017, Note_on_c, 0, 76, 0
2, 109017, Note_on_c, 0, 75, 57
2, 109056, Note_on_c, 0, 58, 45
2, 109058, Note_on_c, 0, 80, 57
2, 109061, Note_on_c, 0, 78, 0
2, 109061, Note_on_c, 0, 76, 60
2, 109064, Note_on_c, 0, 75, 0
2, 109080, Note_on_c, 0, 46, 0
2, 109083, Note_on_c, 0, 34, 0
2, 109089, Note_on_c, 0, 58, 0
2, 109105, Note_on_c, 0, 78, 62
2, 109108, Note_on_c, 0, 75, 57
2, 109111, Note_on_c, 0, 76, 0
2, 109111, Note_on_c, 0, 80, 0
2, 109144, Control_c, 0, 64, 0
2, 109154, Note_on_c, 0, 78, 0
2, 109154, Note_on_c, 0, 75, 0
2, 109154, Note_on_c, 0, 76, 63
2, 109154, Note_on_c, 0, 80, 59
2, 109160, Note_on_c, 0, 59, 59
2, 109204, Note_on_c, 0, 80, 0
2, 109204, Note_on_c, 0, 76, 0
2, 109204, Note_on_c, 0, 75, 60
2, 109204, Note_on_c, 0, 78, 57
2, 109231, Note_on_c, 0, 59, 0
2, 109245, Note_on_c, 0, 47, 53
2, 109250, Note_on_c, 0, 78, 0
2, 109250, Note_on_c, 0, 76, 63
2, 109250, Note_on_c, 0, 80, 63
2, 109253, Note_on_c, 0, 75, 0
2, 109280, Note_on_c, 0, 47, 0
2, 109296, Note_on_c, 0, 76, 0
2, 109296, Note_on_c, 0, 80, 0
2, 109296, Note_on_c, 0, 75, 59
2, 109296, Note_on_c, 0, 78, 63
2, 109343, Note_on_c, 0, 78, 0
2, 109343, Note_on_c, 0, 76, 58
2, 109343, Note_on_c, 0, 80, 62
2, 109345, Note_on_c, 0, 75, 0
2, 109351, Note_on_c, 0, 35, 50
2, 109390, Note_on_c, 0, 35, 0
2, 109390, Note_on_c, 0, 75, 58
2, 109390, Note_on_c, 0, 78, 60
2, 109392, Note_on_c, 0, 80, 0
2, 109392, Note_on_c, 0, 76, 0
2, 109439, Note_on_c, 0, 76, 62
2, 109439, Note_on_c, 0, 80, 57
2, 109441, Note_on_c, 0, 75, 0
2, 109441, Note_on_c, 0, 78, 0
2, 109447, Note_on_c, 0, 36, 58
2, 109486, Note_on_c, 0, 75, 64
2, 109486, Note_on_c, 0, 78, 59
2, 109488, Note_on_c, 0, 76, 0
2, 109488, Note_on_c, 0, 80, 0
2, 109511, Control_c, 0, 64, 127
2, 109521, Note_on_c, 0, 78, 0
2, 109524, Note_on_c, 0, 75, 0
2, 109527, Note_on_c, 0, 48, 45
2, 109533, Note_on_c, 0, 76, 60
2, 109533, Note_on_c, 0, 80, 57
2, 109558, Note_on_c, 0, 80, 0
2, 109558, Note_on_c, 0, 76, 0
2, 109566, Note_on_c, 0, 78, 58
2, 109569, Note_on_c, 0, 75, 57
2, 109594, Note_on_c, 0, 75, 0
2, 109594, Note_on_c, 0, 78, 0
2, 109603, Note_on_c, 0, 76, 64
2, 109603, Note_on_c, 0, 80, 62
2, 109619, Note_on_c, 0, 60, 51
2, 109625, Control_c, 0, 64, 0
2, 109631, Note_on_c, 0, 80, 0
2, 109631, Note_on_c, 0, 76, 0
2, 109639, Note_on_c, 0, 75, 60
2, 109639, Note_on_c, 0, 78, 63
2, 109648, Note_on_c, 0, 36, 0
2, 109661, Note_on_c, 0, 48, 0
2, 109675, Note_on_c, 0, 60, 0
2, 109675, Note_on_c, 0, 76, 63
2, 109675, Note_on_c, 0, 80, 64
2, 109675, Note_on_c, 0, 61, 60
2, 109694, Note_on_c, 0, 78, 0
2, 109697, Note_on_c, 0, 75, 0
2, 109697, Note_on_c, 0, 76, 0
2, 109729, Note_on_c, 0, 80, 0
2, 109738, Note_on_c, 0, 81, 62
2, 109741, Note_on_c, 0, 76, 64
2, 109744, Note_on_c, 0, 60, 64
2, 109790, Note_on_c, 0, 61, 0
2, 109809, Note_on_c, 0, 75, 63
2, 109809, Note_on_c, 0, 80, 59
2, 109812, Note_on_c, 0, 59, 62
2, 109831, Note_on_c, 0, 81, 0
2, 109834, Note_on_c, 0, 76, 0
2, 109859, Note_on_c, 0, 60, 0
2, 109889, Note_on_c, 0, 78, 57
2, 109892, Note_on_c, 0, 73, 59
2, 109895, Note_on_c, 0, 59, 0
2, 109903, Note_on_c, 0, 80, 0
2, 109903, Note_on_c, 0, 75, 0
2, 109906, Note_on_c, 0, 57, 60
2, 109958, Note_on_c, 0, 71, 60
2, 109971, Note_on_c, 0, 76, 61
2, 109974, Note_on_c, 0, 56, 56
2, 109993, Note_on_c, 0, 71, 0
2, 109993, Note_on_c, 0, 78, 0
2, 109993, Note_on_c, 0, 73, 0
2, 109996, Note_on_c, 0, 57, 0
2, 110005, Note_on_c, 0, 76, 0
2, 110008, Note_on_c, 0, 56, 0
2, 110030, Note_on_c, 0, 59, 61
2, 110049, Note_on_c, 0, 69, 61
2, 110049, Note_on_c, 0, 75, 62
2, 110065, Note_on_c, 0, 59, 0
2, 110085, Note_on_c, 0, 75, 0
2, 110085, Note_on_c, 0, 69, 0
2, 110129, Note_on_c, 0, 76, 57
2, 110132, Note_on_c, 0, 68, 58
2, 110135, Note_on_c, 0, 49, 58
2, 110189, Note_on_c, 0, 52, 50
2, 110247, Note_on_c, 0, 52, 0
2, 110247, Note_on_c, 0, 51, 45
2, 110291, Note_on_c, 0, 52, 51
2, 110316, Note_on_c, 0, 51, 0
2, 110322, Note_on_c, 0, 76, 0
2, 110371, Note_on_c, 0, 48, 55
2, 110376, Note_on_c, 0, 81, 55
2, 110379, Note_on_c, 0, 78, 58
2, 110388, Note_on_c, 0, 76, 56
2, 110391, Note_on_c, 0, 69, 62
2, 110397, Note_on_c, 0, 49, 0
2, 110413, Note_on_c, 0, 68, 0
2, 110416, Note_on_c, 0, 52, 0
2, 110448, Control_c, 0, 64, 127
2, 110462, Note_on_c, 0, 52, 43
2, 110506, Note_on_c, 0, 52, 0
2, 110506, Note_on_c, 0, 51, 45
2, 110552, Note_on_c, 0, 52, 46
2, 110568, Note_on_c, 0, 76, 0
2, 110574, Note_on_c, 0, 51, 0
2, 110635, Note_on_c, 0, 83, 57
2, 110638, Note_on_c, 0, 76, 55
2, 110638, Note_on_c, 0, 80, 58
2, 110640, Note_on_c, 0, 47, 57
2, 110640, Note_on_c, 0, 71, 61
2, 110660, Note_on_c, 0, 81, 0
2, 110660, Note_on_c, 0, 78, 0
2, 110663, Note_on_c, 0, 69, 0
2, 110665, Note_on_c, 0, 48, 0
2, 110676, Note_on_c, 0, 52, 0
2, 110692, Control_c, 0, 64, 0
2, 110722, Note_on_c, 0, 52, 45
2, 110771, Note_on_c, 0, 52, 0
2, 110771, Note_on_c, 0, 51, 43
2, 110817, Note_on_c, 0, 52, 47
2, 110842, Note_on_c, 0, 51, 0
2, 110848, Note_on_c, 0, 76, 0
2, 110900, Control_c, 0, 67, 0
2, 110910, Note_on_c, 0, 45, 61
2, 110913, Note_on_c, 0, 76, 54
2, 110913, Note_on_c, 0, 81, 59
2, 110913, Note_on_c, 0, 84, 55
2, 110916, Note_on_c, 0, 72, 57
2, 110935, Note_on_c, 0, 47, 0
2, 110941, Note_on_c, 0, 80, 0
2, 110941, Note_on_c, 0, 83, 0
2, 110944, Note_on_c, 0, 71, 0
2, 110947, Control_c, 0, 67, 127
2, 110966, Note_on_c, 0, 52, 0
2, 111001, Note_on_c, 0, 52, 46
2, 111021, Control_c, 0, 64, 127
2, 111048, Note_on_c, 0, 52, 0
2, 111048, Note_on_c, 0, 51, 48
2, 111094, Note_on_c, 0, 52, 43
2, 111116, Note_on_c, 0, 76, 0
2, 111119, Note_on_c, 0, 51, 0
2, 111173, Note_on_c, 0, 71, 61
2, 111173, Note_on_c, 0, 83, 55
2, 111179, Note_on_c, 0, 44, 54
2, 111182, Control_c, 0, 64, 0
2, 111188, Note_on_c, 0, 76, 60
2, 111196, Note_on_c, 0, 84, 0
2, 111199, Note_on_c, 0, 81, 0
2, 111199, Note_on_c, 0, 72, 0
2, 111205, Note_on_c, 0, 45, 0
2, 111230, Note_on_c, 0, 52, 0
2, 111276, Note_on_c, 0, 52, 47
2, 111325, Note_on_c, 0, 51, 41
2, 111328, Note_on_c, 0, 52, 0
2, 111374, Note_on_c, 0, 52, 43
2, 111401, Note_on_c, 0, 51, 0
2, 111404, Note_on_c, 0, 83, 0
2, 111407, Note_on_c, 0, 71, 0
2, 111407, Note_on_c, 0, 76, 0
2, 111412, Note_on_c, 0, 44, 0
2, 111445, Note_on_c, 0, 52, 0
2, 111475, Note_on_c, 0, 64, 55
2, 111475, Note_on_c, 0, 70, 60
2, 111478, Note_on_c, 0, 49, 57
2, 111497, Note_on_c, 0, 66, 57
2, 111500, Note_on_c, 0, 58, 55
2, 111576, Control_c, 0, 64, 127
2, 111582, Note_on_c, 0, 52, 46
2, 111618, Note_on_c, 0, 52, 0
2, 111628, Note_on_c, 0, 51, 47
2, 111661, Note_on_c, 0, 52, 46
2, 111686, Note_on_c, 0, 51, 0
2, 111686, Note_on_c, 0, 64, 0
2, 111749, Note_on_c, 0, 64, 56
2, 111749, Note_on_c, 0, 68, 56
2, 111749, Note_on_c, 0, 71, 59
2, 111763, Note_on_c, 0, 47, 56
2, 111763, Note_on_c, 0, 59, 54
2, 111773, Note_on_c, 0, 66, 0
2, 111773, Note_on_c, 0, 70, 0
2, 111779, Control_c, 0, 64, 0
2, 111785, Note_on_c, 0, 58, 0
2, 111788, Note_on_c, 0, 49, 0
2, 111796, Note_on_c, 0, 52, 0
2, 111845, Note_on_c, 0, 52, 43
2, 111891, Note_on_c, 0, 51, 48
2, 111894, Note_on_c, 0, 52, 0
2, 111936, Note_on_c, 0, 52, 41
2, 111958, Note_on_c, 0, 64, 0
2, 111960, Note_on_c, 0, 51, 0
2, 112032, Note_on_c, 0, 64, 56
2, 112034, Note_on_c, 0, 46, 56
2, 112034, Note_on_c, 0, 66, 53
2, 112043, Note_on_c, 0, 73, 59
2, 112046, Note_on_c, 0, 61, 58
2, 112056, Note_on_c, 0, 71, 0
2, 112059, Note_on_c, 0, 68, 0
2, 112059, Note_on_c, 0, 47, 0
2, 112068, Note_on_c, 0, 59, 0
2, 112081, Note_on_c, 0, 52, 0
2, 112120, Control_c, 0, 64, 127
2, 112126, Note_on_c, 0, 52, 45
2, 112175, Note_on_c, 0, 51, 42
2, 112177, Note_on_c, 0, 52, 0
2, 112219, Note_on_c, 0, 52, 44
2, 112244, Note_on_c, 0, 51, 0
2, 112269, Note_on_c, 0, 64, 0
2, 112320, Note_on_c, 0, 71, 56
2, 112326, Control_c, 0, 64, 0
2, 112332, Note_on_c, 0, 47, 60
2, 112332, Note_on_c, 0, 59, 54
2, 112332, Note_on_c, 0, 64, 55
2, 112332, Note_on_c, 0, 68, 53
2, 112343, Note_on_c, 0, 73, 0
2, 112356, Note_on_c, 0, 66, 0
2, 112359, Note_on_c, 0, 46, 0
2, 112359, Note_on_c, 0, 61, 0
2, 112369, Note_on_c, 0, 52, 0
2, 112375, Control_c, 0, 67, 0
2, 112421, Control_c, 0, 67, 127
2, 112424, Note_on_c, 0, 52, 42
2, 112457, Note_on_c, 0, 51, 42
2, 112470, Note_on_c, 0, 52, 0
2, 112503, Note_on_c, 0, 52, 41
2, 112528, Note_on_c, 0, 51, 0
2, 112550, Note_on_c, 0, 64, 0
2, 112618, Note_on_c, 0, 64, 46
2, 112621, Note_on_c, 0, 48, 41
2, 112621, Note_on_c, 0, 69, 45
2, 112634, Note_on_c, 0, 57, 41
2, 112645, Note_on_c, 0, 68, 0
2, 112645, Note_on_c, 0, 71, 0
2, 112651, Note_on_c, 0, 47, 0
2, 112659, Note_on_c, 0, 59, 0
2, 112684, Note_on_c, 0, 52, 0
2, 112733, Note_on_c, 0, 52, 43
2, 112750, Control_c, 0, 64, 127
2, 112769, Note_on_c, 0, 51, 41
2, 112782, Note_on_c, 0, 52, 0
2, 112826, Note_on_c, 0, 52, 41
2, 112851, Note_on_c, 0, 64, 0
2, 112854, Note_on_c, 0, 51, 0
2, 112915, Note_on_c, 0, 64, 46
2, 112915, Note_on_c, 0, 71, 45
2, 112928, Note_on_c, 0, 47, 43
2, 112928, Note_on_c, 0, 67, 45
2, 112939, Note_on_c, 0, 69, 0
2, 112939, Note_on_c, 0, 59, 46
2, 112952, Note_on_c, 0, 48, 0
2, 112955, Control_c, 0, 64, 0
2, 112964, Note_on_c, 0, 57, 0
2, 112989, Note_on_c, 0, 52, 0
2, 113033, Note_on_c, 0, 52, 47
2, 113077, Note_on_c, 0, 52, 0
2, 113077, Note_on_c, 0, 51, 42
2, 113121, Note_on_c, 0, 52, 48
2, 113146, Note_on_c, 0, 51, 0
2, 113157, Note_on_c, 0, 64, 0
2, 113220, Note_on_c, 0, 72, 49
2, 113223, Note_on_c, 0, 64, 49
2, 113233, Note_on_c, 0, 45, 48
2, 113233, Note_on_c, 0, 60, 51
2, 113233, Note_on_c, 0, 66, 48
2, 113244, Note_on_c, 0, 71, 0
2, 113255, Note_on_c, 0, 67, 0
2, 113257, Note_on_c, 0, 47, 0
2, 113257, Note_on_c, 0, 59, 0
2, 113304, Note_on_c, 0, 52, 0
2, 113314, Control_c, 0, 64, 127
2, 113344, Note_on_c, 0, 52, 46
2, 113418, Note_on_c, 0, 51, 42
2, 113431, Note_on_c, 0, 52, 0
2, 113475, Note_on_c, 0, 52, 46
2, 113500, Note_on_c, 0, 51, 0
2, 113522, Note_on_c, 0, 45, 0
2, 113571, Control_c, 0, 64, 0
2, 113580, Note_on_c, 0, 71, 72
2, 113593, Note_on_c, 0, 45, 54
2, 113604, Note_on_c, 0, 72, 0
2, 113604, Note_on_c, 0, 52, 0
2, 113613, Note_on_c, 0, 60, 0
2, 113616, Note_on_c, 0, 64, 0
2, 113616, Note_on_c, 0, 66, 0
2, 113774, Note_on_c, 0, 59, 48
2, 113774, Note_on_c, 0, 66, 48
2, 113777, Note_on_c, 0, 57, 49
2, 113777, Note_on_c, 0, 63, 49
2, 113829, Control_c, 0, 67, 0
2, 113842, Note_on_c, 0, 57, 0
2, 113856, Control_c, 0, 64, 127
2, 113875, Control_c, 0, 67, 127
2, 113878, Note_on_c, 0, 59, 0
2, 113886, Note_on_c, 0, 57, 47
2, 113889, Note_on_c, 0, 66, 0
2, 113889, Note_on_c, 0, 63, 0
2, 113908, Note_on_c, 0, 59, 42
2, 113919, Note_on_c, 0, 66, 48
2, 113925, Note_on_c, 0, 63, 46
2, 113966, Note_on_c, 0, 57, 0
2, 113979, Note_on_c, 0, 66, 0
2, 113990, Note_on_c, 0, 59, 0
2, 113990, Note_on_c, 0, 63, 0
2, 114009, Note_on_c, 0, 57, 47
2, 114023, Note_on_c, 0, 66, 44
2, 114031, Note_on_c, 0, 59, 45
2, 114034, Note_on_c, 0, 63, 48
2, 114034, Control_c, 0, 67, 0
2, 114048, Note_on_c, 0, 71, 0
2, 114116, Note_on_c, 0, 71, 56
2, 114228, Note_on_c, 0, 71, 0
2, 114293, Note_on_c, 0, 71, 55
2, 114339, Note_on_c, 0, 71, 0
2, 114372, Note_on_c, 0, 44, 53
2, 114397, Note_on_c, 0, 45, 0
2, 114406, Note_on_c, 0, 71, 62
2, 114408, Control_c, 0, 64, 0
2, 114431, Note_on_c, 0, 57, 0
2, 114431, Note_on_c, 0, 66, 0
2, 114431, Note_on_c, 0, 63, 0
2, 114485, Note_on_c, 0, 59, 0
2, 114529, Note_on_c, 0, 52, 47
2, 114529, Note_on_c, 0, 56, 43
2, 114529, Note_on_c, 0, 59, 41
2, 114529, Note_on_c, 0, 64, 46
2, 114565, Note_on_c, 0, 56, 0
2, 114574, Note_on_c, 0, 59, 0
2, 114574, Note_on_c, 0, 64, 0
2, 114579, Note_on_c, 0, 52, 0
2, 114609, Note_on_c, 0, 56, 42
2, 114623, Note_on_c, 0, 64, 48
2, 114625, Note_on_c, 0, 52, 44
2, 114625, Note_on_c, 0, 59, 44
2, 114661, Note_on_c, 0, 52, 0
2, 114661, Note_on_c, 0, 64, 0
2, 114661, Note_on_c, 0, 56, 0
2, 114670, Note_on_c, 0, 59, 0
2, 114695, Control_c, 0, 64, 127
2, 114705, Note_on_c, 0, 52, 45
2, 114705, Note_on_c, 0, 56, 41
2, 114705, Note_on_c, 0, 64, 47
2, 114716, Note_on_c, 0, 59, 44
2, 114800, Note_on_c, 0, 69, 56
2, 114827, Note_on_c, 0, 71, 0
2, 114898, Note_on_c, 0, 68, 60
2, 114912, Control_c, 0, 64, 0
2, 114922, Note_on_c, 0, 69, 0
2, 114925, Note_on_c, 0, 68, 0
2, 114944, Note_on_c, 0, 45, 53
2, 114971, Note_on_c, 0, 44, 0
2, 114993, Note_on_c, 0, 68, 61
2, 115039, Note_on_c, 0, 64, 0
2, 115050, Note_on_c, 0, 52, 0
2, 115082, Note_on_c, 0, 54, 41
2, 115082, Note_on_c, 0, 61, 46
2, 115082, Note_on_c, 0, 64, 41
2, 115096, Note_on_c, 0, 52, 45
2, 115109, Note_on_c, 0, 59, 0
2, 115109, Note_on_c, 0, 56, 0
2, 115118, Note_on_c, 0, 64, 0
2, 115121, Note_on_c, 0, 54, 0
2, 115131, Note_on_c, 0, 52, 0
2, 115131, Note_on_c, 0, 61, 0
2, 115164, Note_on_c, 0, 54, 43
2, 115164, Note_on_c, 0, 64, 47
2, 115164, Note_on_c, 0, 66, 58
2, 115177, Note_on_c, 0, 52, 45
2, 115177, Note_on_c, 0, 61, 42
2, 115188, Note_on_c, 0, 64, 0
2, 115188, Note_on_c, 0, 68, 0
2, 115199, Note_on_c, 0, 54, 0
2, 115199, Note_on_c, 0, 61, 0
2, 115207, Note_on_c, 0, 52, 0
2, 115207, Control_c, 0, 64, 127
2, 115232, Note_on_c, 0, 64, 48
2, 115257, Note_on_c, 0, 54, 43
2, 115260, Note_on_c, 0, 61, 48
2, 115269, Note_on_c, 0, 52, 48
2, 115272, Note_on_c, 0, 66, 0
2, 115329, Note_on_c, 0, 66, 58
2, 115351, Note_on_c, 0, 66, 0
2, 115422, Note_on_c, 0, 66, 59
2, 115499, Note_on_c, 0, 46, 57
2, 115524, Note_on_c, 0, 45, 0
2, 115524, Control_c, 0, 64, 0
2, 115584, Note_on_c, 0, 76, 69
2, 115661, Note_on_c, 0, 54, 0
2, 115675, Note_on_c, 0, 64, 0
2, 115675, Note_on_c, 0, 52, 0
2, 115675, Note_on_c, 0, 66, 0
2, 115707, Note_on_c, 0, 54, 47
2, 115716, Note_on_c, 0, 52, 49
2, 115716, Note_on_c, 0, 64, 44
2, 115716, Note_on_c, 0, 66, 47
2, 115741, Note_on_c, 0, 61, 0
2, 115763, Note_on_c, 0, 54, 0
2, 115772, Note_on_c, 0, 64, 0
2, 115775, Note_on_c, 0, 52, 0
2, 115775, Note_on_c, 0, 66, 0
2, 115804, Note_on_c, 0, 54, 46
2, 115818, Control_c, 0, 64, 127
2, 115818, Note_on_c, 0, 52, 50
2, 115818, Note_on_c, 0, 64, 47
2, 115818, Note_on_c, 0, 66, 44
2, 115850, Note_on_c, 0, 54, 0
2, 115859, Note_on_c, 0, 64, 0
2, 115859, Note_on_c, 0, 52, 0
2, 115859, Note_on_c, 0, 66, 0
2, 115897, Note_on_c, 0, 54, 44
2, 115908, Note_on_c, 0, 52, 44
2, 115908, Note_on_c, 0, 64, 44
2, 115908, Note_on_c, 0, 66, 51
2, 115973, Note_on_c, 0, 75, 61
2, 115995, Note_on_c, 0, 76, 0
2, 116056, Note_on_c, 0, 73, 59
2, 116078, Note_on_c, 0, 73, 0
2, 116111, Control_c, 0, 64, 0
2, 116111, Note_on_c, 0, 47, 58
2, 116124, Note_on_c, 0, 73, 69
2, 116137, Note_on_c, 0, 46, 0
2, 116148, Note_on_c, 0, 75, 0
2, 116181, Note_on_c, 0, 66, 0
2, 116181, Note_on_c, 0, 54, 0
2, 116206, Note_on_c, 0, 57, 50
2, 116228, Note_on_c, 0, 54, 50
2, 116228, Note_on_c, 0, 63, 47
2, 116228, Note_on_c, 0, 66, 51
2, 116253, Note_on_c, 0, 66, 0
2, 116253, Note_on_c, 0, 63, 0
2, 116253, Note_on_c, 0, 64, 0
2, 116253, Note_on_c, 0, 52, 0
2, 116253, Note_on_c, 0, 57, 0
2, 116266, Note_on_c, 0, 54, 0
2, 116302, Note_on_c, 0, 57, 52
2, 116302, Note_on_c, 0, 71, 48
2, 116304, Note_on_c, 0, 63, 46
2, 116304, Note_on_c, 0, 66, 52
2, 116315, Note_on_c, 0, 54, 47
2, 116326, Note_on_c, 0, 73, 0
2, 116348, Note_on_c, 0, 66, 0
2, 116348, Note_on_c, 0, 57, 0
2, 116348, Note_on_c, 0, 54, 0
2, 116351, Note_on_c, 0, 63, 0
2, 116397, Note_on_c, 0, 54, 52
2, 116397, Note_on_c, 0, 57, 50
2, 116397, Note_on_c, 0, 63, 46
2, 116397, Note_on_c, 0, 66, 47
2, 116432, Note_on_c, 0, 71, 0
2, 116454, Note_on_c, 0, 57, 0
2, 116498, Note_on_c, 0, 64, 65
2, 116501, Note_on_c, 0, 57, 61
2, 116501, Note_on_c, 0, 71, 65
2, 116515, Note_on_c, 0, 49, 58
2, 116525, Note_on_c, 0, 63, 0
2, 116525, Control_c, 0, 64, 127
2, 116536, Note_on_c, 0, 47, 0
2, 116549, Note_on_c, 0, 66, 0
2, 116549, Note_on_c, 0, 71, 0
2, 116571, Note_on_c, 0, 57, 0
2, 116613, Note_on_c, 0, 57, 59
2, 116613, Note_on_c, 0, 66, 58
2, 116613, Note_on_c, 0, 71, 62
2, 116626, Note_on_c, 0, 51, 60
2, 116640, Note_on_c, 0, 49, 0
2, 116640, Note_on_c, 0, 64, 0
2, 116684, Control_c, 0, 64, 0
2, 116741, Note_on_c, 0, 52, 58
2, 116741, Note_on_c, 0, 80, 64
2, 116755, Note_on_c, 0, 56, 61
2, 116758, Note_on_c, 0, 68, 63
2, 116766, Note_on_c, 0, 51, 0
2, 116780, Note_on_c, 0, 66, 0
2, 116780, Note_on_c, 0, 54, 0
2, 116780, Note_on_c, 0, 57, 0
2, 116780, Note_on_c, 0, 71, 0
2, 116802, Note_on_c, 0, 52, 0
2, 116824, Note_on_c, 0, 56, 0
2, 116846, Note_on_c, 0, 59, 46
2, 116849, Note_on_c, 0, 52, 51
2, 116874, Note_on_c, 0, 56, 50
2, 116887, Note_on_c, 0, 59, 0
2, 116898, Note_on_c, 0, 52, 0
2, 116898, Note_on_c, 0, 56, 0
2, 116930, Note_on_c, 0, 56, 51
2, 116933, Note_on_c, 0, 59, 49
2, 116942, Note_on_c, 0, 52, 47
2, 116942, Note_on_c, 0, 75, 60
2, 116991, Control_c, 0, 64, 127
2, 117024, Note_on_c, 0, 44, 60
2, 117034, Note_on_c, 0, 78, 65
2, 117070, Note_on_c, 0, 52, 0
2, 117070, Note_on_c, 0, 59, 0
2, 117070, Note_on_c, 0, 56, 0
2, 117114, Note_on_c, 0, 52, 47
2, 117114, Note_on_c, 0, 56, 46
2, 117114, Note_on_c, 0, 59, 51
2, 117114, Note_on_c, 0, 76, 57
2, 117139, Note_on_c, 0, 59, 0
2, 117139, Note_on_c, 0, 56, 0
2, 117139, Note_on_c, 0, 52, 0
2, 117139, Note_on_c, 0, 75, 0
2, 117180, Note_on_c, 0, 52, 51
2, 117180, Note_on_c, 0, 56, 51
2, 117180, Note_on_c, 0, 59, 44
2, 117183, Note_on_c, 0, 72, 58
2, 117205, Note_on_c, 0, 68, 0
2, 117205, Note_on_c, 0, 44, 0
2, 117205, Note_on_c, 0, 76, 0
2, 117205, Note_on_c, 0, 80, 0
2, 117205, Note_on_c, 0, 78, 0
2, 117214, Note_on_c, 0, 56, 0
2, 117216, Note_on_c, 0, 72, 0
2, 117216, Note_on_c, 0, 52, 0
2, 117216, Note_on_c, 0, 59, 0
2, 117239, Control_c, 0, 64, 0
2, 117264, Note_on_c, 0, 75, 68
2, 117286, Note_on_c, 0, 45, 61
2, 117286, Note_on_c, 0, 52, 57
2, 117286, Note_on_c, 0, 54, 55
2, 117296, Note_on_c, 0, 75, 0
2, 117307, Note_on_c, 0, 45, 0
2, 117307, Note_on_c, 0, 52, 0
2, 117307, Note_on_c, 0, 54, 0
2, 117339, Note_on_c, 0, 73, 61
2, 117350, Note_on_c, 0, 45, 45
2, 117350, Note_on_c, 0, 52, 44
2, 117350, Note_on_c, 0, 54, 46
2, 117372, Note_on_c, 0, 52, 0
2, 117372, Note_on_c, 0, 45, 0
2, 117375, Note_on_c, 0, 73, 0
2, 117375, Note_on_c, 0, 54, 0
2, 117408, Note_on_c, 0, 68, 62
2, 117418, Note_on_c, 0, 45, 43
2, 117418, Note_on_c, 0, 52, 43
2, 117418, Note_on_c, 0, 54, 49
2, 117445, Note_on_c, 0, 68, 0
2, 117454, Note_on_c, 0, 45, 0
2, 117454, Note_on_c, 0, 52, 0
2, 117456, Note_on_c, 0, 54, 0
2, 117476, Note_on_c, 0, 71, 67
2, 117503, Note_on_c, 0, 52, 45
2, 117511, Note_on_c, 0, 45, 50
2, 117511, Note_on_c, 0, 54, 50
2, 117514, Note_on_c, 0, 71, 0
2, 117539, Note_on_c, 0, 52, 0
2, 117539, Note_on_c, 0, 45, 0
2, 117539, Note_on_c, 0, 54, 0
2, 117572, Note_on_c, 0, 69, 54
2, 117582, Note_on_c, 0, 54, 42
2, 117588, Note_on_c, 0, 45, 43
2, 117588, Note_on_c, 0, 52, 42
2, 117610, Note_on_c, 0, 52, 0
2, 117610, Note_on_c, 0, 69, 0
2, 117610, Note_on_c, 0, 54, 0
2, 117610, Note_on_c, 0, 45, 0
2, 117643, Note_on_c, 0, 66, 58
2, 117653, Note_on_c, 0, 45, 47
2, 117656, Note_on_c, 0, 52, 43
2, 117656, Note_on_c, 0, 54, 43
2, 117678, Note_on_c, 0, 66, 0
2, 117695, Note_on_c, 0, 45, 0
2, 117695, Note_on_c, 0, 52, 0
2, 117695, Note_on_c, 0, 54, 0
2, 117739, Note_on_c, 0, 64, 57
2, 117747, Note_on_c, 0, 47, 57
2, 117818, Control_c, 0, 64, 127
2, 117829, Note_on_c, 0, 59, 43
2, 117842, Note_on_c, 0, 52, 42
2, 117842, Note_on_c, 0, 56, 47
2, 117875, Note_on_c, 0, 52, 0
2, 117888, Note_on_c, 0, 56, 0
2, 117899, Note_on_c, 0, 59, 0
2, 117918, Note_on_c, 0, 52, 46
2, 117929, Note_on_c, 0, 56, 47
2, 117942, Note_on_c, 0, 59, 48
2, 118038, Note_on_c, 0, 66, 60
2, 118049, Note_on_c, 0, 45, 43
2, 118057, Control_c, 0, 64, 0
2, 118060, Note_on_c, 0, 64, 0
2, 118074, Note_on_c, 0, 47, 0
2, 118106, Note_on_c, 0, 59, 0
2, 118139, Note_on_c, 0, 51, 44
2, 118139, Note_on_c, 0, 54, 47
2, 118150, Note_on_c, 0, 59, 47
2, 118160, Note_on_c, 0, 56, 0
2, 118160, Note_on_c, 0, 52, 0
2, 118160, Note_on_c, 0, 63, 45
2, 118185, Note_on_c, 0, 51, 0
2, 118199, Note_on_c, 0, 66, 0
2, 118199, Note_on_c, 0, 54, 0
2, 118212, Note_on_c, 0, 59, 0
2, 118223, Note_on_c, 0, 66, 64
2, 118236, Note_on_c, 0, 63, 0
2, 118242, Note_on_c, 0, 51, 42
2, 118255, Note_on_c, 0, 54, 47
2, 118255, Note_on_c, 0, 59, 42
2, 118269, Note_on_c, 0, 63, 46
2, 118337, Note_on_c, 0, 68, 65
2, 118359, Note_on_c, 0, 59, 0
2, 118359, Note_on_c, 0, 54, 0
2, 118359, Note_on_c, 0, 44, 48
2, 118362, Note_on_c, 0, 66, 0
2, 118384, Note_on_c, 0, 45, 0
2, 118419, Note_on_c, 0, 63, 0
2, 118439, Control_c, 0, 64, 127
2, 118464, Note_on_c, 0, 56, 48
2, 118464, Note_on_c, 0, 60, 45
2, 118466, Note_on_c, 0, 63, 46
2, 118466, Note_on_c, 0, 66, 41
2, 118524, Note_on_c, 0, 66, 0
2, 118524, Note_on_c, 0, 60, 0
2, 118524, Note_on_c, 0, 56, 0
2, 118524, Note_on_c, 0, 63, 0
2, 118568, Note_on_c, 0, 56, 48
2, 118568, Note_on_c, 0, 60, 44
2, 118568, Note_on_c, 0, 63, 46
2, 118568, Note_on_c, 0, 66, 42
2, 118607, Note_on_c, 0, 63, 0
2, 118615, Note_on_c, 0, 56, 0
2, 118615, Note_on_c, 0, 60, 0
2, 118618, Note_on_c, 0, 66, 0
2, 118648, Note_on_c, 0, 63, 48
2, 118661, Note_on_c, 0, 56, 55
2, 118661, Note_on_c, 0, 60, 54
2, 118661, Note_on_c, 0, 66, 43
2, 118683, Note_on_c, 0, 66, 0
2, 118683, Note_on_c, 0, 68, 0
2, 118694, Note_on_c, 0, 56, 0
2, 118752, Note_on_c, 0, 61, 53
2, 118752, Note_on_c, 0, 66, 54
2, 118754, Note_on_c, 0, 68, 57
2, 118765, Note_on_c, 0, 46, 60
2, 118765, Note_on_c, 0, 56, 58
2, 118776, Note_on_c, 0, 60, 0
2, 118778, Note_on_c, 0, 63, 0
2, 118787, Control_c, 0, 64, 0
2, 118790, Note_on_c, 0, 51, 0
2, 118790, Note_on_c, 0, 44, 0
2, 118825, Note_on_c, 0, 66, 0
2, 118825, Note_on_c, 0, 56, 0
2, 118825, Note_on_c, 0, 68, 0
2, 118896, Note_on_c, 0, 48, 54
2, 118896, Note_on_c, 0, 56, 58
2, 118896, Note_on_c, 0, 63, 56
2, 118896, Note_on_c, 0, 66, 58
2, 118896, Note_on_c, 0, 68, 53
2, 118919, Note_on_c, 0, 46, 0
2, 118921, Note_on_c, 0, 61, 0
2, 118932, Note_on_c, 0, 48, 0
2, 118932, Note_on_c, 0, 56, 0
2, 118932, Note_on_c, 0, 66, 0
2, 118935, Note_on_c, 0, 68, 0
2, 118935, Note_on_c, 0, 63, 0
2, 119053, Note_on_c, 0, 64, 55
2, 119066, Note_on_c, 0, 49, 53
2, 119069, Note_on_c, 0, 68, 55
2, 119091, Note_on_c, 0, 64, 0
2, 119102, Note_on_c, 0, 68, 0
2, 119102, Note_on_c, 0, 49, 0
2, 119148, Note_on_c, 0, 64, 55
2, 119161, Note_on_c, 0, 61, 55
2, 119170, Note_on_c, 0, 56, 60
2, 119173, Note_on_c, 0, 76, 57
2, 119184, Note_on_c, 0, 64, 0
2, 119194, Note_on_c, 0, 61, 0
2, 119205, Note_on_c, 0, 56, 0
2, 119208, Note_on_c, 0, 76, 0
2, 119237, Note_on_c, 0, 64, 58
2, 119251, Note_on_c, 0, 68, 57
2, 119276, Note_on_c, 0, 64, 0
2, 119276, Note_on_c, 0, 49, 58
2, 119286, Note_on_c, 0, 68, 0
2, 119311, Note_on_c, 0, 49, 0
2, 119320, Note_on_c, 0, 64, 53
2, 119333, Note_on_c, 0, 61, 53
2, 119342, Note_on_c, 0, 56, 60
2, 119342, Note_on_c, 0, 76, 58
2, 119355, Note_on_c, 0, 64, 0
2, 119366, Note_on_c, 0, 61, 0
2, 119379, Note_on_c, 0, 56, 0
2, 119379, Note_on_c, 0, 76, 0
2, 119412, Note_on_c, 0, 64, 54
2, 119423, Note_on_c, 0, 49, 58
2, 119433, Note_on_c, 0, 68, 57
2, 119444, Note_on_c, 0, 64, 0
2, 119454, Note_on_c, 0, 49, 0
2, 119468, Note_on_c, 0, 68, 0
2, 119500, Note_on_c, 0, 64, 55
2, 119503, Note_on_c, 0, 61, 60
2, 119514, Note_on_c, 0, 76, 57
2, 119524, Note_on_c, 0, 56, 54
2, 119535, Note_on_c, 0, 61, 0
2, 119535, Note_on_c, 0, 64, 0
2, 119545, Note_on_c, 0, 76, 0
2, 119556, Note_on_c, 0, 56, 0
2, 119592, Note_on_c, 0, 47, 65
2, 119592, Note_on_c, 0, 65, 59
2, 119605, Note_on_c, 0, 68, 62
2, 119616, Note_on_c, 0, 65, 0
2, 119629, Note_on_c, 0, 47, 0
2, 119654, Note_on_c, 0, 68, 0
2, 119676, Note_on_c, 0, 65, 65
2, 119685, Note_on_c, 0, 62, 65
2, 119688, Note_on_c, 0, 77, 64
2, 119698, Note_on_c, 0, 56, 62
2, 119712, Note_on_c, 0, 62, 0
2, 119712, Note_on_c, 0, 65, 0
2, 119722, Note_on_c, 0, 77, 0
2, 119731, Note_on_c, 0, 56, 0
2, 119756, Note_on_c, 0, 47, 65
2, 119756, Note_on_c, 0, 65, 59
2, 119756, Note_on_c, 0, 68, 63
2, 119791, Note_on_c, 0, 68, 0
2, 119791, Note_on_c, 0, 65, 0
2, 119791, Note_on_c, 0, 47, 0
2, 119846, Note_on_c, 0, 62, 59
2, 119846, Note_on_c, 0, 65, 64
2, 119846, Note_on_c, 0, 77, 59
2, 119868, Note_on_c, 0, 56, 66
2, 119881, Note_on_c, 0, 77, 0
2, 119881, Note_on_c, 0, 62, 0
2, 119881, Note_on_c, 0, 65, 0
2, 119904, Note_on_c, 0, 56, 0
2, 119926, Note_on_c, 0, 47, 61
2, 119926, Note_on_c, 0, 68, 66
2, 119934, Note_on_c, 0, 65, 67
2, 119959, Note_on_c, 0, 68, 0
2, 119959, Note_on_c, 0, 47, 0
2, 119970, Note_on_c, 0, 65, 0
2, 119980, Note_on_c, 0, 62, 62
2, 119983, Note_on_c, 0, 56, 62
2, 120008, Note_on_c, 0, 77, 60
2, 120019, Note_on_c, 0, 56, 0
2, 120019, Note_on_c, 0, 62, 0
2, 120041, Note_on_c, 0, 77, 0
2, 120063, Control_c, 0, 64, 127
2, 120063, Note_on_c, 0, 45, 64
2, 120073, Note_on_c, 0, 78, 66
2, 120096, Note_on_c, 0, 66, 60
2, 120120, Note_on_c, 0, 66, 0
2, 120153, Note_on_c, 0, 57, 46
2, 120153, Note_on_c, 0, 61, 42
2, 120164, Note_on_c, 0, 66, 44
2, 120164, Note_on_c, 0, 76, 42
2, 120186, Note_on_c, 0, 78, 0
2, 120192, Note_on_c, 0, 66, 0
2, 120192, Note_on_c, 0, 45, 0
2, 120233, Note_on_c, 0, 45, 47
2, 120255, Note_on_c, 0, 66, 43
2, 120255, Note_on_c, 0, 73, 43
2, 120268, Note_on_c, 0, 61, 0
2, 120268, Note_on_c, 0, 57, 0
2, 120279, Note_on_c, 0, 66, 0
2, 120312, Note_on_c, 0, 78, 51
2, 120314, Note_on_c, 0, 57, 50
2, 120314, Note_on_c, 0, 61, 56
2, 120323, Note_on_c, 0, 66, 56
2, 120326, Note_on_c, 0, 76, 0
2, 120348, Note_on_c, 0, 66, 0
2, 120359, Note_on_c, 0, 45, 0
2, 120394, Note_on_c, 0, 76, 46
2, 120405, Note_on_c, 0, 73, 0
2, 120405, Note_on_c, 0, 45, 43
2, 120405, Note_on_c, 0, 66, 49
2, 120415, Note_on_c, 0, 78, 0
2, 120426, Note_on_c, 0, 57, 0
2, 120429, Note_on_c, 0, 61, 0
2, 120429, Note_on_c, 0, 66, 0
2, 120451, Control_c, 0, 64, 0
2, 120476, Note_on_c, 0, 61, 47
2, 120476, Note_on_c, 0, 73, 49
2, 120479, Note_on_c, 0, 57, 47
2, 120479, Note_on_c, 0, 66, 44
2, 120501, Note_on_c, 0, 76, 0
2, 120501, Note_on_c, 0, 45, 0
2, 120511, Note_on_c, 0, 57, 0
2, 120511, Note_on_c, 0, 73, 0
2, 120511, Note_on_c, 0, 66, 0
2, 120511, Note_on_c, 0, 61, 0
2, 120547, Note_on_c, 0, 67, 58
2, 120547, Note_on_c, 0, 79, 58
2, 120560, Note_on_c, 0, 52, 58
2, 120569, Note_on_c, 0, 46, 62
2, 120569, Note_on_c, 0, 55, 60
2, 120572, Note_on_c, 0, 49, 45
2, 120582, Note_on_c, 0, 79, 0
2, 120582, Note_on_c, 0, 67, 0
2, 120593, Note_on_c, 0, 55, 0
2, 120593, Note_on_c, 0, 46, 0
2, 120593, Note_on_c, 0, 52, 0
2, 120603, Note_on_c, 0, 49, 0
2, 120628, Note_on_c, 0, 76, 46
2, 120639, Note_on_c, 0, 46, 49
2, 120639, Note_on_c, 0, 67, 45
2, 120642, Note_on_c, 0, 52, 44
2, 120642, Note_on_c, 0, 55, 47
2, 120650, Note_on_c, 0, 49, 46
2, 120664, Note_on_c, 0, 55, 0
2, 120664, Note_on_c, 0, 67, 0
2, 120664, Note_on_c, 0, 76, 0
2, 120674, Note_on_c, 0, 46, 0
2, 120674, Note_on_c, 0, 52, 0
2, 120674, Note_on_c, 0, 49, 0
2, 120710, Note_on_c, 0, 55, 46
2, 120710, Note_on_c, 0, 67, 49
2, 120710, Note_on_c, 0, 73, 51
2, 120720, Note_on_c, 0, 46, 44
2, 120720, Note_on_c, 0, 52, 50
2, 120723, Note_on_c, 0, 49, 44
2, 120732, Note_on_c, 0, 67, 0
2, 120757, Note_on_c, 0, 52, 0
2, 120757, Note_on_c, 0, 46, 0
2, 120757, Note_on_c, 0, 55, 0
2, 120757, Note_on_c, 0, 49, 0
2, 120768, Control_c, 0, 64, 127
2, 120787, Note_on_c, 0, 67, 57
2, 120803, Note_on_c, 0, 46, 57
2, 120803, Note_on_c, 0, 49, 58
2, 120803, Note_on_c, 0, 52, 57
2, 120803, Note_on_c, 0, 55, 58
2, 120803, Note_on_c, 0, 79, 58
2, 120814, Note_on_c, 0, 67, 0
2, 120836, Note_on_c, 0, 52, 0
2, 120836, Note_on_c, 0, 46, 0
2, 120836, Note_on_c, 0, 49, 0
2, 120836, Note_on_c, 0, 55, 0
2, 120880, Note_on_c, 0, 67, 50
2, 120880, Note_on_c, 0, 76, 44
2, 120883, Note_on_c, 0, 46, 50
2, 120883, Note_on_c, 0, 49, 46
2, 120883, Note_on_c, 0, 52, 47
2, 120883, Note_on_c, 0, 55, 44
2, 120893, Note_on_c, 0, 73, 0
2, 120904, Note_on_c, 0, 67, 0
2, 120929, Note_on_c, 0, 52, 0
2, 120929, Note_on_c, 0, 49, 0
2, 120932, Note_on_c, 0, 46, 0
2, 120942, Note_on_c, 0, 55, 0
2, 120961, Note_on_c, 0, 67, 51
2, 120961, Note_on_c, 0, 73, 44
2, 120975, Note_on_c, 0, 46, 51
2, 120975, Note_on_c, 0, 49, 45
2, 120975, Note_on_c, 0, 52, 48
2, 120985, Note_on_c, 0, 55, 51
2, 121010, Note_on_c, 0, 52, 0
2, 121021, Control_c, 0, 64, 0
2, 121030, Note_on_c, 0, 56, 63
2, 121043, Note_on_c, 0, 76, 0
2, 121043, Note_on_c, 0, 47, 64
2, 121043, Note_on_c, 0, 59, 66
2, 121043, Note_on_c, 0, 68, 62
2, 121043, Note_on_c, 0, 80, 65
2, 121054, Note_on_c, 0, 55, 0
2, 121054, Note_on_c, 0, 52, 52
2, 121064, Note_on_c, 0, 68, 0
2, 121064, Note_on_c, 0, 47, 0
2, 121064, Note_on_c, 0, 73, 0
2, 121064, Note_on_c, 0, 56, 0
2, 121064, Note_on_c, 0, 46, 0
2, 121064, Note_on_c, 0, 49, 0
2, 121064, Note_on_c, 0, 67, 0
2, 121064, Note_on_c, 0, 59, 0
2, 121064, Note_on_c, 0, 79, 0
2, 121075, Note_on_c, 0, 52, 0
2, 121075, Note_on_c, 0, 80, 0
2, 121119, Note_on_c, 0, 47, 56
2, 121119, Note_on_c, 0, 56, 49
2, 121119, Note_on_c, 0, 68, 50
2, 121119, Note_on_c, 0, 76, 56
2, 121122, Note_on_c, 0, 59, 50
2, 121132, Note_on_c, 0, 52, 51
2, 121176, Note_on_c, 0, 52, 0
2, 121176, Note_on_c, 0, 56, 0
2, 121176, Note_on_c, 0, 68, 0
2, 121176, Note_on_c, 0, 47, 0
2, 121176, Note_on_c, 0, 59, 0
2, 121176, Note_on_c, 0, 76, 0
2, 121308, Note_on_c, 0, 64, 63
2, 121314, Note_on_c, 0, 71, 62
2, 121324, Note_on_c, 0, 52, 68
2, 121324, Note_on_c, 0, 56, 61
2, 121324, Note_on_c, 0, 59, 66
2, 121333, Note_on_c, 0, 47, 62
2, 121346, Note_on_c, 0, 71, 0
2, 121346, Note_on_c, 0, 64, 0
2, 121355, Note_on_c, 0, 56, 0
2, 121358, Note_on_c, 0, 59, 0
2, 121358, Note_on_c, 0, 52, 0
2, 121368, Note_on_c, 0, 47, 0
2, 121401, Note_on_c, 0, 64, 53
2, 121412, Note_on_c, 0, 47, 52
2, 121412, Note_on_c, 0, 52, 48
2, 121412, Note_on_c, 0, 56, 50
2, 121412, Note_on_c, 0, 59, 55
2, 121412, Note_on_c, 0, 68, 53
2, 121477, Note_on_c, 0, 68, 0
2, 121477, Note_on_c, 0, 47, 0
2, 121477, Note_on_c, 0, 52, 0
2, 121477, Note_on_c, 0, 64, 0
2, 121477, Note_on_c, 0, 59, 0
2, 121477, Note_on_c, 0, 56, 0
2, 121592, Note_on_c, 0, 47, 63
2, 121592, Note_on_c, 0, 63, 63
2, 121592, Note_on_c, 0, 73, 59
2, 121595, Note_on_c, 0, 54, 62
2, 121595, Note_on_c, 0, 57, 65
2, 121631, Note_on_c, 0, 57, 0
2, 121631, Note_on_c, 0, 73, 0
2, 121631, Note_on_c, 0, 54, 0
2, 121631, Note_on_c, 0, 47, 0
2, 121633, Note_on_c, 0, 63, 0
2, 121678, Note_on_c, 0, 57, 50
2, 121678, Note_on_c, 0, 71, 48
2, 121688, Note_on_c, 0, 47, 54
2, 121691, Note_on_c, 0, 54, 54
2, 121691, Note_on_c, 0, 63, 49
2, 121749, Note_on_c, 0, 63, 0
2, 121749, Note_on_c, 0, 71, 0
2, 121842, Note_on_c, 0, 57, 0
2, 121852, Note_on_c, 0, 47, 0
2, 121852, Note_on_c, 0, 54, 0
2, 121888, Control_c, 0, 64, 127
2, 121913, Note_on_c, 0, 57, 61
2, 121921, Note_on_c, 0, 47, 63
2, 121921, Note_on_c, 0, 54, 62
2, 121921, Note_on_c, 0, 63, 61
2, 121921, Note_on_c, 0, 69, 60
2, 121968, Note_on_c, 0, 57, 0
2, 121984, Note_on_c, 0, 63, 0
2, 121984, Note_on_c, 0, 47, 0
2, 121994, Note_on_c, 0, 54, 0
2, 122039, Note_on_c, 0, 66, 44
2, 122041, Note_on_c, 0, 57, 45
2, 122052, Note_on_c, 0, 47, 44
2, 122052, Note_on_c, 0, 63, 47
2, 122055, Control_c, 0, 64, 0
2, 122061, Note_on_c, 0, 54, 45
2, 122064, Note_on_c, 0, 69, 0
2, 122238, Note_on_c, 0, 66, 0
2, 122238, Note_on_c, 0, 57, 0
2, 122241, Note_on_c, 0, 47, 0
2, 122241, Note_on_c, 0, 63, 0
2, 122241, Note_on_c, 0, 54, 0
2, 122395, Note_on_c, 0, 40, 64
2, 122408, Note_on_c, 0, 68, 63
2, 122411, Control_c, 0, 64, 127
2, 122441, Note_on_c, 0, 64, 52
2, 122468, Note_on_c, 0, 64, 0
2, 122487, Note_on_c, 0, 59, 47
2, 122500, Note_on_c, 0, 52, 49
2, 122522, Note_on_c, 0, 47, 53
2, 122533, Note_on_c, 0, 56, 54
2, 122536, Note_on_c, 0, 68, 0
2, 122544, Note_on_c, 0, 64, 48
2, 122558, Note_on_c, 0, 56, 0
2, 122568, Note_on_c, 0, 47, 0
2, 122568, Note_on_c, 0, 52, 0
2, 122585, Control_c, 0, 64, 0
2, 122591, Note_on_c, 0, 56, 42
2, 122591, Note_on_c, 0, 68, 55
2, 122601, Note_on_c, 0, 47, 43
2, 122601, Note_on_c, 0, 52, 43
2, 122631, Note_on_c, 0, 71, 53
2, 122656, Note_on_c, 0, 52, 0
2, 122656, Note_on_c, 0, 47, 0
2, 122656, Note_on_c, 0, 56, 0
2, 122664, Note_on_c, 0, 76, 54
2, 122697, Note_on_c, 0, 56, 45
2, 122697, Note_on_c, 0, 80, 54
2, 122700, Note_on_c, 0, 47, 46
2, 122700, Note_on_c, 0, 52, 42
2, 122719, Note_on_c, 0, 80, 0
2, 122719, Note_on_c, 0, 83, 54
2, 122755, Note_on_c, 0, 76, 0
2, 122774, Note_on_c, 0, 80, 57
2, 122801, Note_on_c, 0, 71, 0
2, 122820, Note_on_c, 0, 76, 60
2, 122836, Control_c, 0, 64, 127
2, 122856, Note_on_c, 0, 68, 0
2, 122866, Note_on_c, 0, 71, 60
2, 122869, Note_on_c, 0, 40, 0
2, 122902, Note_on_c, 0, 64, 0
2, 122915, Note_on_c, 0, 40, 61
2, 122924, Note_on_c, 0, 68, 59
2, 122949, Note_on_c, 0, 59, 0
2, 122971, Note_on_c, 0, 64, 52
2, 122996, Note_on_c, 0, 64, 0
2, 122996, Note_on_c, 0, 56, 0
2, 122999, Note_on_c, 0, 52, 0
2, 122999, Note_on_c, 0, 47, 0
2, 123001, Control_c, 0, 64, 0
2, 123021, Note_on_c, 0, 59, 51
2, 123031, Note_on_c, 0, 68, 0
2, 123042, Note_on_c, 0, 56, 47
2, 123048, Note_on_c, 0, 47, 54
2, 123048, Note_on_c, 0, 52, 54
2, 123056, Note_on_c, 0, 64, 47
2, 123081, Note_on_c, 0, 56, 0
2, 123081, Note_on_c, 0, 71, 0
2, 123097, Note_on_c, 0, 52, 0
2, 123097, Note_on_c, 0, 47, 0
2, 123103, Note_on_c, 0, 68, 57
2, 123117, Note_on_c, 0, 76, 0
2, 123130, Note_on_c, 0, 56, 45
2, 123141, Note_on_c, 0, 47, 45
2, 123141, Note_on_c, 0, 52, 41
2, 123149, Note_on_c, 0, 71, 54
2, 123160, Note_on_c, 0, 80, 0
2, 123185, Note_on_c, 0, 56, 0
2, 123185, Note_on_c, 0, 76, 55
2, 123188, Note_on_c, 0, 47, 0
2, 123193, Note_on_c, 0, 83, 0
2, 123199, Note_on_c, 0, 52, 0
2, 123229, Note_on_c, 0, 80, 56
2, 123232, Note_on_c, 0, 47, 42
2, 123232, Note_on_c, 0, 56, 46
2, 123238, Control_c, 0, 64, 127
2, 123243, Note_on_c, 0, 52, 48
2, 123257, Note_on_c, 0, 80, 0
2, 123276, Note_on_c, 0, 83, 60
2, 123279, Note_on_c, 0, 76, 0
2, 123325, Note_on_c, 0, 71, 0
2, 123334, Note_on_c, 0, 80, 57
2, 123359, Note_on_c, 0, 76, 56
2, 123394, Note_on_c, 0, 71, 56
2, 123449, Control_c, 0, 64, 0
2, 123459, Note_on_c, 0, 85, 56
2, 123465, Note_on_c, 0, 46, 53
2, 123487, Note_on_c, 0, 71, 0
2, 123487, Note_on_c, 0, 76, 0
2, 123487, Note_on_c, 0, 83, 0
2, 123487, Note_on_c, 0, 80, 0
2, 123487, Note_on_c, 0, 56, 0
2, 123487, Note_on_c, 0, 59, 0
2, 123487, Note_on_c, 0, 64, 0
2, 123490, Note_on_c, 0, 52, 0
2, 123490, Note_on_c, 0, 47, 0
2, 123490, Note_on_c, 0, 68, 0
2, 123493, Note_on_c, 0, 40, 0
2, 123499, Note_on_c, 0, 85, 0
2, 123504, Note_on_c, 0, 46, 0
2, 123521, Note_on_c, 0, 82, 45
2, 123556, Note_on_c, 0, 82, 0
2, 123559, Note_on_c, 0, 61, 41
2, 123570, Note_on_c, 0, 88, 43
2, 123576, Note_on_c, 0, 52, 47
2, 123586, Note_on_c, 0, 54, 45
2, 123597, Note_on_c, 0, 61, 0
2, 123605, Note_on_c, 0, 88, 0
2, 123614, Note_on_c, 0, 52, 0
2, 123623, Note_on_c, 0, 79, 42
2, 123625, Note_on_c, 0, 54, 0
2, 123648, Note_on_c, 0, 61, 43
2, 123656, Note_on_c, 0, 82, 41
2, 123659, Note_on_c, 0, 79, 0
2, 123659, Note_on_c, 0, 52, 45
2, 123675, Note_on_c, 0, 54, 47
2, 123686, Note_on_c, 0, 61, 0
2, 123695, Note_on_c, 0, 82, 0
2, 123700, Note_on_c, 0, 52, 0
2, 123703, Note_on_c, 0, 78, 44
2, 123712, Note_on_c, 0, 54, 0
2, 123718, Control_c, 0, 64, 127
2, 123747, Note_on_c, 0, 61, 46
2, 123761, Note_on_c, 0, 52, 43
2, 123769, Note_on_c, 0, 78, 0
2, 123769, Note_on_c, 0, 85, 45
2, 123772, Note_on_c, 0, 54, 46
2, 123808, Note_on_c, 0, 76, 45
2, 123840, Note_on_c, 0, 78, 46
2, 123876, Note_on_c, 0, 75, 45
2, 123898, Note_on_c, 0, 76, 0
2, 123923, Note_on_c, 0, 78, 0
2, 123932, Control_c, 0, 64, 0
2, 123935, Note_on_c, 0, 82, 46
2, 123970, Note_on_c, 0, 73, 54
2, 123973, Note_on_c, 0, 75, 0
2, 123986, Note_on_c, 0, 47, 54
2, 123992, Note_on_c, 0, 85, 0
2, 123992, Note_on_c, 0, 82, 0
2, 123998, Note_on_c, 0, 61, 0
2, 123998, Note_on_c, 0, 54, 0
2, 123998, Note_on_c, 0, 52, 0
2, 124004, Note_on_c, 0, 78, 58
2, 124017, Note_on_c, 0, 73, 0
2, 124033, Note_on_c, 0, 47, 0
2, 124039, Note_on_c, 0, 78, 0
2, 124039, Note_on_c, 0, 75, 46
2, 124075, Note_on_c, 0, 75, 0
2, 124085, Note_on_c, 0, 51, 43
2, 124085, Note_on_c, 0, 57, 46
2, 124094, Note_on_c, 0, 81, 43
2, 124097, Note_on_c, 0, 54, 43
2, 124116, Note_on_c, 0, 72, 44
2, 124119, Note_on_c, 0, 57, 0
2, 124122, Note_on_c, 0, 51, 0
2, 124128, Note_on_c, 0, 81, 0
2, 124133, Note_on_c, 0, 54, 0
2, 124152, Note_on_c, 0, 72, 0
2, 124166, Note_on_c, 0, 75, 43
2, 124179, Note_on_c, 0, 51, 42
2, 124179, Note_on_c, 0, 54, 42
2, 124179, Note_on_c, 0, 57, 43
2, 124199, Note_on_c, 0, 75, 0
2, 124199, Note_on_c, 0, 71, 41
2, 124212, Note_on_c, 0, 57, 0
2, 124212, Note_on_c, 0, 54, 0
2, 124215, Note_on_c, 0, 51, 0
2, 124237, Note_on_c, 0, 71, 0
2, 124256, Control_c, 0, 64, 127
2, 124256, Note_on_c, 0, 78, 41
2, 124262, Note_on_c, 0, 57, 44
2, 124271, Note_on_c, 0, 51, 41
2, 124271, Note_on_c, 0, 54, 47
2, 124293, Note_on_c, 0, 69, 42
2, 124322, Note_on_c, 0, 71, 48
2, 124361, Note_on_c, 0, 68, 46
2, 124386, Note_on_c, 0, 69, 0
2, 124402, Note_on_c, 0, 75, 43
2, 124427, Note_on_c, 0, 71, 0
2, 124427, Note_on_c, 0, 78, 0
2, 124427, Note_on_c, 0, 68, 0
2, 124430, Note_on_c, 0, 54, 0
2, 124430, Note_on_c, 0, 57, 0
2, 124430, Note_on_c, 0, 51, 0
2, 124440, Note_on_c, 0, 75, 0
2, 124440, Note_on_c, 0, 66, 66
2, 124460, Control_c, 0, 64, 0
2, 124473, Note_on_c, 0, 66, 0
2, 124476, Note_on_c, 0, 40, 64
2, 124495, Note_on_c, 0, 68, 61
2, 124517, Note_on_c, 0, 40, 0
2, 124520, Note_on_c, 0, 64, 49
2, 124534, Note_on_c, 0, 68, 0
2, 124553, Note_on_c, 0, 64, 0
2, 124563, Note_on_c, 0, 59, 53
2, 124577, Note_on_c, 0, 52, 55
2, 124577, Note_on_c, 0, 56, 49
2, 124587, Note_on_c, 0, 47, 49
2, 124596, Note_on_c, 0, 59, 0
2, 124596, Note_on_c, 0, 64, 49
2, 124612, Note_on_c, 0, 56, 0
2, 124634, Note_on_c, 0, 52, 0
2, 124634, Note_on_c, 0, 64, 0
2, 124637, Note_on_c, 0, 47, 0
2, 124643, Note_on_c, 0, 68, 61
2, 124654, Note_on_c, 0, 56, 54
2, 124679, Note_on_c, 0, 68, 0
2, 124681, Note_on_c, 0, 47, 51
2, 124684, Note_on_c, 0, 52, 51
2, 124690, Note_on_c, 0, 71, 58
2, 124704, Note_on_c, 0, 52, 0
2, 124706, Note_on_c, 0, 47, 0
2, 124715, Note_on_c, 0, 56, 0
2, 124734, Note_on_c, 0, 76, 54
2, 124751, Note_on_c, 0, 52, 54
2, 124753, Note_on_c, 0, 47, 52
2, 124759, Control_c, 0, 64, 127
2, 124759, Note_on_c, 0, 56, 51
2, 124768, Note_on_c, 0, 80, 57
2, 124793, Note_on_c, 0, 80, 0
2, 124801, Note_on_c, 0, 83, 61
2, 124818, Note_on_c, 0, 76, 0
2, 124837, Note_on_c, 0, 80, 61
2, 124850, Note_on_c, 0, 71, 0
2, 124883, Note_on_c, 0, 76, 59
2, 124916, Note_on_c, 0, 71, 67
2, 124954, Note_on_c, 0, 68, 61
2, 124960, Note_on_c, 0, 40, 61
2, 124998, Note_on_c, 0, 64, 52
2, 125012, Note_on_c, 0, 56, 0
2, 125012, Note_on_c, 0, 52, 0
2, 125020, Note_on_c, 0, 64, 0
2, 125026, Note_on_c, 0, 47, 0
2, 125032, Note_on_c, 0, 59, 54
2, 125057, Note_on_c, 0, 68, 0
2, 125060, Note_on_c, 0, 52, 54
2, 125060, Note_on_c, 0, 56, 50
2, 125070, Note_on_c, 0, 47, 52
2, 125076, Note_on_c, 0, 64, 55
2, 125092, Note_on_c, 0, 56, 0
2, 125103, Note_on_c, 0, 71, 0
2, 125106, Note_on_c, 0, 52, 0
2, 125119, Note_on_c, 0, 47, 0
2, 125122, Note_on_c, 0, 68, 55
2, 125138, Note_on_c, 0, 56, 51
2, 125149, Note_on_c, 0, 76, 0
2, 125152, Note_on_c, 0, 52, 49
2, 125162, Note_on_c, 0, 47, 47
2, 125168, Note_on_c, 0, 71, 54
2, 125179, Note_on_c, 0, 80, 0
2, 125184, Note_on_c, 0, 47, 0
2, 125195, Note_on_c, 0, 52, 0
2, 125195, Note_on_c, 0, 56, 0
2, 125211, Note_on_c, 0, 83, 0
2, 125211, Note_on_c, 0, 76, 59
2, 125228, Note_on_c, 0, 47, 51
2, 125241, Note_on_c, 0, 52, 47
2, 125241, Note_on_c, 0, 56, 54
2, 125247, Note_on_c, 0, 80, 59
2, 125272, Note_on_c, 0, 80, 0
2, 125278, Note_on_c, 0, 83, 60
2, 125286, Note_on_c, 0, 76, 0
2, 125305, Note_on_c, 0, 71, 0
2, 125305, Note_on_c, 0, 80, 60
2, 125350, Note_on_c, 0, 76, 53
2, 125375, Note_on_c, 0, 71, 55
2, 125394, Note_on_c, 0, 40, 0
2, 125400, Note_on_c, 0, 56, 0
2, 125400, Note_on_c, 0, 59, 0
2, 125400, Note_on_c, 0, 46, 50
2, 125402, Note_on_c, 0, 52, 0
2, 125422, Note_on_c, 0, 64, 0
2, 125427, Note_on_c, 0, 47, 0
2, 125438, Note_on_c, 0, 82, 41
2, 125463, Note_on_c, 0, 83, 0
2, 125466, Note_on_c, 0, 80, 0
2, 125466, Control_c, 0, 64, 0
2, 125482, Note_on_c, 0, 85, 45
2, 125528, Note_on_c, 0, 52, 45
2, 125528, Note_on_c, 0, 88, 41
2, 125537, Note_on_c, 0, 54, 43
2, 125537, Note_on_c, 0, 61, 43
2, 125556, Note_on_c, 0, 68, 0
2, 125556, Note_on_c, 0, 76, 0
2, 125556, Note_on_c, 0, 71, 0
2, 125572, Note_on_c, 0, 54, 0
2, 125572, Note_on_c, 0, 52, 0
2, 125575, Note_on_c, 0, 79, 45
2, 125581, Note_on_c, 0, 61, 0
2, 125597, Note_on_c, 0, 82, 0
2, 125608, Note_on_c, 0, 78, 46
2, 125614, Note_on_c, 0, 54, 45
2, 125616, Note_on_c, 0, 52, 41
2, 125625, Note_on_c, 0, 61, 46
2, 125644, Note_on_c, 0, 85, 0
2, 125644, Note_on_c, 0, 79, 0
2, 125664, Note_on_c, 0, 52, 0
2, 125666, Note_on_c, 0, 82, 48
2, 125675, Note_on_c, 0, 61, 0
2, 125678, Note_on_c, 0, 54, 0
2, 125713, Note_on_c, 0, 52, 45
2, 125716, Note_on_c, 0, 85, 44
2, 125722, Note_on_c, 0, 54, 46
2, 125722, Note_on_c, 0, 61, 44
2, 125736, Control_c, 0, 64, 127
2, 125741, Note_on_c, 0, 77, 48
2, 125768, Note_on_c, 0, 78, 0
2, 125812, Note_on_c, 0, 76, 42
2, 125839, Note_on_c, 0, 77, 0
2, 125861, Note_on_c, 0, 73, 48
2, 125897, Note_on_c, 0, 78, 45
2, 125932, Note_on_c, 0, 70, 42
2, 125954, Note_on_c, 0, 78, 0
2, 125990, Note_on_c, 0, 75, 56
2, 125993, Control_c, 0, 64, 0
2, 125996, Note_on_c, 0, 47, 48
2, 126015, Note_on_c, 0, 76, 0
2, 126015, Note_on_c, 0, 70, 0
2, 126015, Note_on_c, 0, 73, 0
2, 126018, Note_on_c, 0, 61, 0
2, 126021, Note_on_c, 0, 52, 0
2, 126024, Note_on_c, 0, 46, 0
2, 126024, Note_on_c, 0, 78, 46
2, 126032, Note_on_c, 0, 54, 0
2, 126043, Note_on_c, 0, 88, 0
2, 126043, Note_on_c, 0, 85, 0
2, 126046, Note_on_c, 0, 82, 0
2, 126062, Note_on_c, 0, 57, 47
2, 126068, Note_on_c, 0, 81, 41
2, 126073, Note_on_c, 0, 51, 41
2, 126073, Note_on_c, 0, 54, 45
2, 126093, Note_on_c, 0, 72, 43
2, 126098, Note_on_c, 0, 54, 0
2, 126098, Note_on_c, 0, 51, 0
2, 126098, Note_on_c, 0, 57, 0
2, 126115, Note_on_c, 0, 75, 0
2, 126128, Note_on_c, 0, 71, 45
2, 126137, Note_on_c, 0, 78, 0
2, 126143, Note_on_c, 0, 51, 42
2, 126143, Note_on_c, 0, 54, 46
2, 126143, Note_on_c, 0, 57, 47
2, 126151, Note_on_c, 0, 72, 0
2, 126170, Note_on_c, 0, 51, 0
2, 126173, Note_on_c, 0, 75, 43
2, 126182, Note_on_c, 0, 57, 0
2, 126195, Note_on_c, 0, 54, 0
2, 126209, Note_on_c, 0, 78, 42
2, 126215, Note_on_c, 0, 51, 41
2, 126225, Note_on_c, 0, 57, 47
2, 126239, Note_on_c, 0, 54, 45
2, 126255, Note_on_c, 0, 70, 48
2, 126274, Control_c, 0, 64, 127
2, 126283, Note_on_c, 0, 71, 0
2, 126308, Note_on_c, 0, 69, 42
2, 126327, Note_on_c, 0, 70, 0
2, 126354, Note_on_c, 0, 66, 45
2, 126389, Note_on_c, 0, 71, 43
2, 126411, Note_on_c, 0, 69, 0
2, 126447, Note_on_c, 0, 81, 0
2, 126447, Note_on_c, 0, 71, 0
2, 126447, Note_on_c, 0, 78, 0
2, 126447, Note_on_c, 0, 66, 0
2, 126447, Note_on_c, 0, 75, 0
2, 126450, Note_on_c, 0, 63, 46
2, 126453, Note_on_c, 0, 47, 0
2, 126453, Note_on_c, 0, 57, 0
2, 126453, Note_on_c, 0, 54, 0
2, 126453, Note_on_c, 0, 51, 0
2, 126485, Note_on_c, 0, 63, 0
2, 126485, Control_c, 0, 64, 0
2, 126499, Note_on_c, 0, 52, 46
2, 126509, Note_on_c, 0, 68, 44
2, 126545, Note_on_c, 0, 68, 0
2, 126545, Note_on_c, 0, 66, 44
2, 126567, Note_on_c, 0, 66, 0
2, 126567, Note_on_c, 0, 64, 41
2, 126605, Note_on_c, 0, 64, 0
2, 126614, Note_on_c, 0, 66, 44
2, 126649, Note_on_c, 0, 68, 48
2, 126652, Note_on_c, 0, 66, 0
2, 126685, Note_on_c, 0, 68, 0
2, 126694, Note_on_c, 0, 69, 43
2, 126729, Note_on_c, 0, 71, 43
2, 126732, Note_on_c, 0, 69, 0
2, 126743, Note_on_c, 0, 59, 45
2, 126745, Note_on_c, 0, 56, 47
2, 126781, Note_on_c, 0, 69, 42
2, 126794, Control_c, 0, 64, 127
2, 126803, Note_on_c, 0, 69, 0
2, 126814, Note_on_c, 0, 71, 0
2, 126824, Note_on_c, 0, 68, 41
2, 126860, Note_on_c, 0, 69, 47
2, 126879, Note_on_c, 0, 71, 46
2, 126939, Note_on_c, 0, 73, 51
2, 126961, Note_on_c, 0, 73, 0
2, 126961, Note_on_c, 0, 75, 53
2, 126964, Note_on_c, 0, 71, 0
2, 126964, Note_on_c, 0, 54, 41
2, 126970, Note_on_c, 0, 51, 43
2, 126989, Note_on_c, 0, 56, 0
2, 126992, Note_on_c, 0, 52, 0
2, 126995, Note_on_c, 0, 73, 42
2, 127011, Control_c, 0, 64, 0
2, 127020, Note_on_c, 0, 73, 0
2, 127020, Note_on_c, 0, 71, 43
2, 127033, Note_on_c, 0, 75, 0
2, 127066, Note_on_c, 0, 73, 43
2, 127093, Note_on_c, 0, 69, 0
2, 127096, Note_on_c, 0, 68, 0
2, 127104, Note_on_c, 0, 75, 43
2, 127159, Note_on_c, 0, 76, 46
2, 127198, Note_on_c, 0, 76, 0
2, 127198, Note_on_c, 0, 77, 44
2, 127214, Note_on_c, 0, 50, 55
2, 127224, Note_on_c, 0, 52, 53
2, 127238, Note_on_c, 0, 51, 0
2, 127251, Note_on_c, 0, 54, 0
2, 127268, Note_on_c, 0, 76, 43
2, 127290, Note_on_c, 0, 76, 0
2, 127298, Note_on_c, 0, 78, 48
2, 127323, Note_on_c, 0, 77, 0
2, 127326, Note_on_c, 0, 71, 0
2, 127326, Note_on_c, 0, 73, 0
2, 127326, Note_on_c, 0, 75, 0
2, 127359, Note_on_c, 0, 76, 49
2, 127384, Note_on_c, 0, 76, 0
2, 127403, Note_on_c, 0, 80, 44
2, 127412, Note_on_c, 0, 52, 0
2, 127441, Note_on_c, 0, 76, 56
2, 127464, Note_on_c, 0, 76, 0
2, 127469, Note_on_c, 0, 57, 44
2, 127472, Note_on_c, 0, 81, 53
2, 127475, Note_on_c, 0, 78, 0
2, 127484, Note_on_c, 0, 49, 45
2, 127484, Note_on_c, 0, 52, 49
2, 127492, Note_on_c, 0, 59, 0
2, 127506, Note_on_c, 0, 50, 0
2, 127509, Note_on_c, 0, 76, 50
2, 127517, Control_c, 0, 64, 127
2, 127523, Note_on_c, 0, 80, 0
2, 127542, Note_on_c, 0, 78, 55
2, 127567, Note_on_c, 0, 81, 0
2, 127589, Note_on_c, 0, 80, 53
2, 127641, Note_on_c, 0, 81, 49
2, 127657, Note_on_c, 0, 57, 0
2, 127674, Note_on_c, 0, 83, 55
2, 127680, Control_c, 0, 64, 0
2, 127690, Note_on_c, 0, 81, 0
2, 127701, Note_on_c, 0, 83, 0
2, 127701, Note_on_c, 0, 85, 55
2, 127728, Note_on_c, 0, 57, 55
2, 127728, Note_on_c, 0, 64, 62
2, 127733, Note_on_c, 0, 83, 49
2, 127742, Note_on_c, 0, 61, 61
2, 127758, Note_on_c, 0, 83, 0
2, 127758, Note_on_c, 0, 85, 0
2, 127758, Note_on_c, 0, 81, 55
2, 127791, Note_on_c, 0, 83, 55
2, 127818, Note_on_c, 0, 78, 0
2, 127818, Note_on_c, 0, 80, 0
2, 127821, Note_on_c, 0, 76, 0
2, 127826, Note_on_c, 0, 85, 55
2, 127871, Note_on_c, 0, 57, 0
2, 127871, Note_on_c, 0, 86, 53
2, 127873, Note_on_c, 0, 85, 0
2, 127906, Note_on_c, 0, 87, 52
2, 127925, Note_on_c, 0, 63, 62
2, 127936, Note_on_c, 0, 54, 68
2, 127936, Note_on_c, 0, 57, 69
2, 127936, Note_on_c, 0, 60, 66
2, 127939, Note_on_c, 0, 85, 57
2, 127947, Note_on_c, 0, 64, 0
2, 127956, Note_on_c, 0, 61, 0
2, 127956, Control_c, 0, 64, 127
2, 127959, Note_on_c, 0, 52, 0
2, 127962, Note_on_c, 0, 49, 0
2, 127962, Note_on_c, 0, 85, 0
2, 127965, Note_on_c, 0, 86, 0
2, 127970, Note_on_c, 0, 84, 51
2, 127984, Note_on_c, 0, 87, 0
2, 127994, Note_on_c, 0, 81, 0
2, 127994, Note_on_c, 0, 83, 0
2, 128003, Note_on_c, 0, 85, 55
2, 128047, Note_on_c, 0, 87, 52
2, 128077, Note_on_c, 0, 57, 0
2, 128077, Note_on_c, 0, 60, 0
2, 128080, Note_on_c, 0, 88, 56
2, 128105, Note_on_c, 0, 88, 0
2, 128105, Note_on_c, 0, 87, 0
2, 128105, Note_on_c, 0, 84, 0
2, 128105, Note_on_c, 0, 85, 0
2, 128111, Control_c, 0, 64, 0
2, 128127, Note_on_c, 0, 90, 57
2, 128146, Note_on_c, 0, 52, 69
2, 128146, Note_on_c, 0, 57, 68
2, 128146, Note_on_c, 0, 60, 68
2, 128160, Note_on_c, 0, 88, 50
2, 128168, Note_on_c, 0, 63, 0
2, 128171, Note_on_c, 0, 54, 0
2, 128187, Note_on_c, 0, 88, 0
2, 128207, Note_on_c, 0, 91, 50
2, 128232, Note_on_c, 0, 90, 0
2, 128254, Note_on_c, 0, 88, 57
2, 128279, Note_on_c, 0, 88, 0
2, 128287, Note_on_c, 0, 92, 49
2, 128314, Note_on_c, 0, 91, 0
2, 128333, Note_on_c, 0, 57, 0
2, 128336, Note_on_c, 0, 88, 65
2, 128347, Note_on_c, 0, 92, 0
2, 128372, Note_on_c, 0, 88, 0
2, 128391, Note_on_c, 0, 93, 67
2, 128401, Note_on_c, 0, 51, 68
2, 128401, Note_on_c, 0, 54, 63
2, 128401, Note_on_c, 0, 57, 61
2, 128401, Note_on_c, 0, 59, 68
2, 128426, Note_on_c, 0, 60, 0
2, 128429, Note_on_c, 0, 52, 0
2, 128429, Note_on_c, 0, 93, 0
2, 128484, Note_on_c, 0, 93, 49
2, 128520, Control_c, 0, 64, 127
2, 128522, Note_on_c, 0, 90, 51
2, 128567, Note_on_c, 0, 87, 49
2, 128605, Note_on_c, 0, 83, 52
2, 128638, Note_on_c, 0, 81, 51
2, 128663, Note_on_c, 0, 78, 56
2, 128685, Note_on_c, 0, 83, 0
2, 128695, Note_on_c, 0, 75, 51
2, 128712, Note_on_c, 0, 54, 0
2, 128712, Note_on_c, 0, 57, 0
2, 128717, Note_on_c, 0, 71, 50
2, 128761, Note_on_c, 0, 81, 0
2, 128764, Note_on_c, 0, 60, 61
2, 128764, Note_on_c, 0, 72, 52
2, 128778, Note_on_c, 0, 52, 61
2, 128778, Note_on_c, 0, 54, 60
2, 128778, Note_on_c, 0, 57, 54
2, 128788, Note_on_c, 0, 71, 0
2, 128791, Note_on_c, 0, 59, 0
2, 128802, Note_on_c, 0, 51, 0
2, 128810, Note_on_c, 0, 57, 0
2, 128824, Note_on_c, 0, 54, 0
2, 128827, Note_on_c, 0, 81, 52
2, 128852, Note_on_c, 0, 71, 61
2, 128874, Note_on_c, 0, 72, 0
2, 128877, Note_on_c, 0, 57, 60
2, 128877, Note_on_c, 0, 59, 63
2, 128893, Note_on_c, 0, 51, 63
2, 128893, Note_on_c, 0, 54, 61
2, 128902, Note_on_c, 0, 60, 0
2, 128904, Note_on_c, 0, 93, 0
2, 128913, Note_on_c, 0, 52, 0
2, 128938, Note_on_c, 0, 90, 0
2, 128971, Note_on_c, 0, 93, 50
2, 128984, Note_on_c, 0, 87, 0
2, 129009, Note_on_c, 0, 90, 55
2, 129053, Note_on_c, 0, 87, 49
2, 129059, Note_on_c, 0, 81, 0
2, 129081, Note_on_c, 0, 78, 0
2, 129092, Note_on_c, 0, 83, 47
2, 129127, Note_on_c, 0, 81, 50
2, 129133, Note_on_c, 0, 75, 0
2, 129155, Note_on_c, 0, 78, 50
2, 129158, Note_on_c, 0, 71, 0
2, 129202, Note_on_c, 0, 75, 48
2, 129208, Note_on_c, 0, 54, 0
2, 129208, Note_on_c, 0, 57, 0
2, 129227, Note_on_c, 0, 71, 49
2, 129230, Control_c, 0, 64, 0
2, 129268, Note_on_c, 0, 52, 60
2, 129271, Note_on_c, 0, 81, 0
2, 129271, Note_on_c, 0, 72, 60
2, 129277, Note_on_c, 0, 54, 59
2, 129277, Note_on_c, 0, 57, 57
2, 129277, Note_on_c, 0, 60, 57
2, 129288, Note_on_c, 0, 51, 0
2, 129298, Note_on_c, 0, 71, 0
2, 129298, Note_on_c, 0, 59, 0
2, 129334, Note_on_c, 0, 54, 0
2, 129336, Note_on_c, 0, 81, 50
2, 129342, Note_on_c, 0, 57, 0
2, 129356, Note_on_c, 0, 90, 0
2, 129356, Note_on_c, 0, 83, 0
2, 129356, Note_on_c, 0, 93, 0
2, 129356, Note_on_c, 0, 87, 0
2, 129359, Note_on_c, 0, 78, 0
2, 129359, Note_on_c, 0, 75, 0
2, 129385, Note_on_c, 0, 71, 61
2, 129399, Note_on_c, 0, 59, 66
2, 129402, Note_on_c, 0, 51, 61
2, 129402, Note_on_c, 0, 54, 65
2, 129408, Note_on_c, 0, 72, 0
2, 129410, Note_on_c, 0, 57, 64
2, 129421, Note_on_c, 0, 60, 0
2, 129424, Note_on_c, 0, 52, 0
2, 129489, Note_on_c, 0, 93, 64
2, 129503, Control_c, 0, 64, 127
2, 129503, Note_on_c, 0, 90, 56
2, 129557, Note_on_c, 0, 87, 48
2, 129576, Note_on_c, 0, 81, 0
2, 129599, Note_on_c, 0, 83, 49
2, 129643, Note_on_c, 0, 81, 50
2, 129662, Note_on_c, 0, 71, 0
2, 129668, Note_on_c, 0, 78, 51
2, 129693, Note_on_c, 0, 75, 49
2, 129701, Note_on_c, 0, 57, 0
2, 129701, Note_on_c, 0, 54, 0
2, 129731, Note_on_c, 0, 71, 65
2, 129753, Note_on_c, 0, 81, 0
2, 129769, Note_on_c, 0, 54, 60
2, 129769, Note_on_c, 0, 57, 60
2, 129780, Note_on_c, 0, 60, 56
2, 129780, Note_on_c, 0, 72, 49
2, 129783, Note_on_c, 0, 52, 57
2, 129799, Note_on_c, 0, 71, 0
2, 129805, Note_on_c, 0, 57, 0
2, 129805, Note_on_c, 0, 59, 0
2, 129805, Control_c, 0, 64, 0
2, 129808, Note_on_c, 0, 51, 0
2, 129816, Note_on_c, 0, 54, 0
2, 129819, Note_on_c, 0, 81, 45
2, 129841, Note_on_c, 0, 90, 0
2, 129841, Note_on_c, 0, 93, 0
2, 129844, Note_on_c, 0, 87, 0
2, 129844, Note_on_c, 0, 83, 0
2, 129844, Note_on_c, 0, 78, 0
2, 129847, Note_on_c, 0, 75, 0
2, 129856, Note_on_c, 0, 81, 0
2, 129872, Note_on_c, 0, 59, 60
2, 129875, Note_on_c, 0, 57, 64
2, 129884, Note_on_c, 0, 71, 46
2, 129887, Note_on_c, 0, 51, 61
2, 129887, Note_on_c, 0, 54, 66
2, 129895, Note_on_c, 0, 60, 0
2, 129906, Note_on_c, 0, 72, 0
2, 129912, Note_on_c, 0, 52, 0
2, 129925, Note_on_c, 0, 81, 46
2, 129950, Note_on_c, 0, 78, 48
2, 129969, Note_on_c, 0, 54, 0
2, 129969, Note_on_c, 0, 57, 0
2, 129999, Note_on_c, 0, 75, 53
2, 130021, Note_on_c, 0, 81, 0
2, 130037, Note_on_c, 0, 54, 55
2, 130037, Note_on_c, 0, 57, 55
2, 130040, Note_on_c, 0, 52, 54
2, 130046, Note_on_c, 0, 60, 57
2, 130046, Note_on_c, 0, 72, 53
2, 130056, Note_on_c, 0, 71, 0
2, 130062, Note_on_c, 0, 51, 0
2, 130073, Note_on_c, 0, 59, 0
2, 130073, Note_on_c, 0, 57, 0
2, 130076, Note_on_c, 0, 54, 0
2, 130089, Note_on_c, 0, 81, 45
2, 130114, Note_on_c, 0, 81, 0
2, 130125, Note_on_c, 0, 71, 59
2, 130141, Note_on_c, 0, 59, 64
2, 130144, Note_on_c, 0, 51, 64
2, 130144, Note_on_c, 0, 54, 64
2, 130144, Note_on_c, 0, 57, 64
2, 130150, Note_on_c, 0, 78, 0
2, 130152, Note_on_c, 0, 72, 0
2, 130155, Control_c, 0, 64, 127
2, 130161, Note_on_c, 0, 75, 0
2, 130164, Note_on_c, 0, 60, 0
2, 130167, Note_on_c, 0, 52, 0
2, 130183, Note_on_c, 0, 81, 47
2, 130213, Note_on_c, 0, 57, 0
2, 130219, Note_on_c, 0, 78, 44
2, 130229, Note_on_c, 0, 75, 55
2, 130238, Note_on_c, 0, 54, 0
2, 130241, Note_on_c, 0, 81, 0
2, 130266, Note_on_c, 0, 72, 45
2, 130279, Note_on_c, 0, 57, 58
2, 130293, Note_on_c, 0, 71, 0
2, 130296, Note_on_c, 0, 52, 60
2, 130296, Note_on_c, 0, 60, 54
2, 130306, Note_on_c, 0, 59, 0
2, 130306, Note_on_c, 0, 54, 56
2, 130309, Note_on_c, 0, 51, 0
2, 130312, Note_on_c, 0, 81, 45
2, 130334, Note_on_c, 0, 54, 0
2, 130347, Note_on_c, 0, 81, 0
2, 130364, Control_c, 0, 64, 0
2, 130372, Note_on_c, 0, 71, 64
2, 130375, Note_on_c, 0, 54, 63
2, 130375, Note_on_c, 0, 59, 63
2, 130378, Note_on_c, 0, 51, 59
2, 130384, Note_on_c, 0, 78, 0
2, 130397, Note_on_c, 0, 75, 0
2, 130397, Note_on_c, 0, 72, 0
2, 130403, Note_on_c, 0, 60, 0
2, 130403, Note_on_c, 0, 57, 0
2, 130406, Note_on_c, 0, 52, 0
2, 130419, Note_on_c, 0, 81, 48
2, 130452, Note_on_c, 0, 78, 46
2, 130465, Note_on_c, 0, 75, 59
2, 130498, Note_on_c, 0, 81, 0
2, 130504, Note_on_c, 0, 69, 59
2, 130517, Note_on_c, 0, 47, 60
2, 130526, Note_on_c, 0, 35, 61
2, 130529, Note_on_c, 0, 71, 0
2, 130567, Note_on_c, 0, 81, 59
2, 130613, Note_on_c, 0, 40, 65
2, 130616, Note_on_c, 0, 67, 59
2, 130625, Note_on_c, 0, 52, 62
2, 130641, Note_on_c, 0, 35, 0
2, 130641, Note_on_c, 0, 69, 0
2, 130644, Note_on_c, 0, 59, 0
2, 130647, Note_on_c, 0, 47, 0
2, 130647, Note_on_c, 0, 54, 0
2, 130647, Note_on_c, 0, 51, 0
2, 130660, Note_on_c, 0, 79, 60
2, 130685, Note_on_c, 0, 81, 0
2, 130685, Note_on_c, 0, 78, 0
2, 130685, Note_on_c, 0, 76, 59
2, 130688, Note_on_c, 0, 75, 0
2, 130688, Note_on_c, 0, 67, 0
2, 130732, Note_on_c, 0, 79, 0
2, 130735, Note_on_c, 0, 71, 59
2, 130738, Control_c, 0, 64, 127
2, 130760, Note_on_c, 0, 67, 55
2, 130769, Note_on_c, 0, 40, 0
2, 130775, Note_on_c, 0, 52, 0
2, 130775, Note_on_c, 0, 43, 64
2, 130783, Note_on_c, 0, 55, 61
2, 130800, Note_on_c, 0, 79, 46
2, 130851, Note_on_c, 0, 60, 71
2, 130857, Note_on_c, 0, 48, 65
2, 130873, Note_on_c, 0, 71, 0
2, 130879, Note_on_c, 0, 55, 0
2, 130879, Note_on_c, 0, 43, 0
2, 130885, Note_on_c, 0, 67, 0
2, 130896, Control_c, 0, 64, 0
2, 130896, Note_on_c, 0, 64, 48
2, 130956, Note_on_c, 0, 76, 0
2, 130956, Note_on_c, 0, 67, 52
2, 130989, Note_on_c, 0, 70, 49
2, 130992, Note_on_c, 0, 79, 0
2, 131027, Note_on_c, 0, 76, 52
2, 131065, Note_on_c, 0, 79, 48
2, 131090, Note_on_c, 0, 64, 0
2, 131115, Note_on_c, 0, 59, 72
2, 131132, Note_on_c, 0, 47, 51
2, 131137, Note_on_c, 0, 67, 0
2, 131137, Note_on_c, 0, 70, 0
2, 131140, Note_on_c, 0, 60, 0
2, 131151, Control_c, 0, 64, 127
2, 131157, Note_on_c, 0, 48, 0
2, 131162, Note_on_c, 0, 64, 47
2, 131198, Note_on_c, 0, 67, 53
2, 131220, Note_on_c, 0, 76, 0
2, 131242, Note_on_c, 0, 79, 0
2, 131269, Note_on_c, 0, 71, 47
2, 131285, Note_on_c, 0, 76, 53
2, 131299, Note_on_c, 0, 79, 49
2, 131312, Control_c, 0, 64, 0
2, 131345, Note_on_c, 0, 64, 0
2, 131372, Note_on_c, 0, 46, 67
2, 131372, Note_on_c, 0, 58, 67
2, 131380, Note_on_c, 0, 71, 0
2, 131391, Note_on_c, 0, 59, 0
2, 131394, Note_on_c, 0, 47, 0
2, 131402, Note_on_c, 0, 67, 0
2, 131411, Note_on_c, 0, 64, 47
2, 131469, Note_on_c, 0, 67, 47
2, 131479, Note_on_c, 0, 76, 0
2, 131512, Note_on_c, 0, 79, 0
2, 131522, Note_on_c, 0, 73, 49
2, 131547, Note_on_c, 0, 76, 51
2, 131583, Note_on_c, 0, 79, 48
2, 131608, Note_on_c, 0, 64, 0
2, 131621, Note_on_c, 0, 59, 65
2, 131627, Note_on_c, 0, 47, 69
2, 131646, Note_on_c, 0, 58, 0
2, 131652, Note_on_c, 0, 46, 0
2, 131655, Note_on_c, 0, 73, 0
2, 131658, Control_c, 0, 64, 127
2, 131666, Note_on_c, 0, 67, 0
2, 131680, Note_on_c, 0, 64, 49
2, 131740, Note_on_c, 0, 67, 47
2, 131749, Note_on_c, 0, 76, 0
2, 131760, Note_on_c, 0, 79, 0
2, 131782, Note_on_c, 0, 71, 54
2, 131817, Note_on_c, 0, 76, 53
2, 131820, Control_c, 0, 64, 0
2, 131826, Note_on_c, 0, 79, 50
2, 131867, Note_on_c, 0, 64, 0
2, 131878, Note_on_c, 0, 60, 66
2, 131883, Note_on_c, 0, 48, 69
2, 131900, Note_on_c, 0, 71, 0
2, 131903, Note_on_c, 0, 59, 0
2, 131905, Note_on_c, 0, 47, 0
2, 131911, Note_on_c, 0, 67, 0
2, 131933, Note_on_c, 0, 64, 52
2, 131979, Note_on_c, 0, 76, 0
2, 131979, Note_on_c, 0, 67, 54
2, 132001, Note_on_c, 0, 79, 0
2, 132015, Note_on_c, 0, 70, 53
2, 132045, Note_on_c, 0, 76, 52
2, 132067, Note_on_c, 0, 79, 54
2, 132096, Note_on_c, 0, 64, 0
2, 132096, Note_on_c, 0, 47, 65
2, 132121, Note_on_c, 0, 48, 0
2, 132132, Note_on_c, 0, 59, 72
2, 132151, Note_on_c, 0, 67, 0
2, 132151, Note_on_c, 0, 70, 0
2, 132151, Note_on_c, 0, 60, 0
2, 132154, Control_c, 0, 64, 127
2, 132163, Note_on_c, 0, 64, 50
2, 132207, Note_on_c, 0, 76, 0
2, 132207, Note_on_c, 0, 67, 48
2, 132232, Note_on_c, 0, 79, 0
2, 132267, Note_on_c, 0, 71, 53
2, 132278, Note_on_c, 0, 76, 47
2, 132297, Note_on_c, 0, 79, 48
2, 132311, Control_c, 0, 64, 0
2, 132313, Note_on_c, 0, 64, 0
2, 132346, Note_on_c, 0, 58, 42
2, 132360, Note_on_c, 0, 46, 54
2, 132370, Note_on_c, 0, 71, 0
2, 132370, Note_on_c, 0, 67, 0
2, 132373, Note_on_c, 0, 59, 0
2, 132379, Note_on_c, 0, 64, 47
2, 132387, Note_on_c, 0, 47, 0
2, 132429, Note_on_c, 0, 76, 0
2, 132437, Note_on_c, 0, 67, 49
2, 132448, Note_on_c, 0, 79, 0
2, 132480, Note_on_c, 0, 73, 47
2, 132494, Note_on_c, 0, 76, 52
2, 132519, Note_on_c, 0, 79, 52
2, 132565, Note_on_c, 0, 61, 71
2, 132568, Note_on_c, 0, 64, 0
2, 132581, Note_on_c, 0, 49, 70
2, 132587, Note_on_c, 0, 73, 0
2, 132593, Note_on_c, 0, 58, 0
2, 132603, Note_on_c, 0, 46, 0
2, 132612, Note_on_c, 0, 67, 0
2, 132625, Control_c, 0, 64, 127
2, 132636, Note_on_c, 0, 64, 51
2, 132658, Note_on_c, 0, 76, 0
2, 132669, Note_on_c, 0, 79, 0
2, 132679, Note_on_c, 0, 67, 54
2, 132701, Note_on_c, 0, 70, 52
2, 132726, Note_on_c, 0, 76, 48
2, 132735, Note_on_c, 0, 79, 54
2, 132809, Note_on_c, 0, 64, 0
2, 132812, Note_on_c, 0, 61, 0
2, 132820, Note_on_c, 0, 59, 51
2, 132826, Note_on_c, 0, 49, 0
2, 132826, Note_on_c, 0, 57, 48
2, 132835, Note_on_c, 0, 51, 46
2, 132835, Note_on_c, 0, 54, 43
2, 132857, Note_on_c, 0, 76, 0
2, 132857, Note_on_c, 0, 79, 0
2, 132860, Note_on_c, 0, 67, 0
2, 132860, Note_on_c, 0, 70, 0
2, 132870, Note_on_c, 0, 60, 41
2, 132889, Control_c, 0, 64, 0
2, 132892, Note_on_c, 0, 61, 41
2, 132931, Note_on_c, 0, 60, 0
2, 132953, Note_on_c, 0, 62, 45
2, 132985, Note_on_c, 0, 61, 0
2, 132985, Note_on_c, 0, 63, 45
2, 133002, Note_on_c, 0, 62, 0
2, 133032, Note_on_c, 0, 64, 46
2, 133056, Note_on_c, 0, 65, 46
2, 133092, Note_on_c, 0, 66, 42
2, 133122, Note_on_c, 0, 67, 45
2, 133166, Note_on_c, 0, 68, 44
2, 133175, Control_c, 0, 64, 127
2, 133200, Note_on_c, 0, 69, 44
2, 133244, Note_on_c, 0, 70, 48
2, 133266, Note_on_c, 0, 71, 45
2, 133310, Note_on_c, 0, 72, 44
2, 133340, Note_on_c, 0, 73, 44
2, 133375, Note_on_c, 0, 74, 46
2, 133408, Note_on_c, 0, 75, 45
2, 133452, Note_on_c, 0, 76, 44
2, 133482, Note_on_c, 0, 77, 50
2, 133507, Note_on_c, 0, 78, 45
2, 133553, Note_on_c, 0, 79, 43
2, 133585, Note_on_c, 0, 80, 43
2, 133640, Note_on_c, 0, 81, 49
2, 133673, Note_on_c, 0, 82, 56
2, 133719, Note_on_c, 0, 85, 59
2, 133728, Control_c, 0, 64, 0
2, 133730, Note_on_c, 0, 82, 0
2, 133730, Note_on_c, 0, 78, 0
2, 133730, Note_on_c, 0, 72, 0
2, 133730, Note_on_c, 0, 76, 0
2, 133730, Note_on_c, 0, 74, 0
2, 133730, Note_on_c, 0, 80, 0
2, 133730, Note_on_c, 0, 64, 0
2, 133733, Note_on_c, 0, 68, 0
2, 133733, Note_on_c, 0, 66, 0
2, 133733, Note_on_c, 0, 70, 0
2, 133744, Note_on_c, 0, 75, 0
2, 133744, Note_on_c, 0, 67, 0
2, 133744, Note_on_c, 0, 77, 0
2, 133744, Note_on_c, 0, 65, 0
2, 133744, Note_on_c, 0, 81, 0
2, 133744, Note_on_c, 0, 69, 0
2, 133744, Note_on_c, 0, 79, 0
2, 133744, Note_on_c, 0, 71, 0
2, 133744, Note_on_c, 0, 73, 0
2, 133747, Note_on_c, 0, 63, 0
2, 133755, Note_on_c, 0, 85, 0
2, 134035, Note_on_c, 0, 83, 51
2, 134232, Note_on_c, 0, 81, 53
2, 134254, Note_on_c, 0, 83, 0
2, 134388, Note_on_c, 0, 80, 52
2, 134410, Note_on_c, 0, 81, 0
2, 134432, Control_c, 0, 64, 127
2, 134528, Note_on_c, 0, 78, 51
2, 134553, Note_on_c, 0, 80, 0
2, 134668, Note_on_c, 0, 76, 52
2, 134693, Note_on_c, 0, 78, 0
2, 134742, Control_c, 0, 64, 0
2, 134808, Note_on_c, 0, 75, 49
2, 134832, Note_on_c, 0, 76, 0
2, 134994, Note_on_c, 0, 73, 54
2, 135019, Note_on_c, 0, 75, 0
2, 135046, Control_c, 0, 64, 127
2, 135191, Note_on_c, 0, 71, 49
2, 135213, Note_on_c, 0, 73, 0
2, 135338, Control_c, 0, 64, 0
2, 135347, Note_on_c, 0, 72, 44
2, 135372, Note_on_c, 0, 57, 0
2, 135372, Note_on_c, 0, 71, 0
2, 135375, Note_on_c, 0, 54, 0
2, 135375, Note_on_c, 0, 51, 0
2, 135375, Note_on_c, 0, 59, 0
2, 135455, Note_on_c, 0, 35, 47
2, 135455, Note_on_c, 0, 47, 47
2, 135480, Note_on_c, 0, 75, 52
2, 135502, Note_on_c, 0, 72, 0
2, 135598, Control_c, 0, 64, 127
2, 135775, Note_on_c, 0, 73, 53
2, 135797, Note_on_c, 0, 75, 0
2, 135800, Control_c, 0, 64, 0
2, 136063, Control_c, 0, 64, 127
2, 136176, Note_on_c, 0, 69, 43
2, 136504, Note_on_c, 0, 69, 0
2, 136504, Note_on_c, 0, 73, 0
2, 136504, Note_on_c, 0, 47, 0
2, 136504, Note_on_c, 0, 35, 0
2, 136504, Control_c, 0, 64, 0
2, 136569, Note_on_c, 0, 68, 49
2, 136583, Note_on_c, 0, 40, 53
2, 136705, Note_on_c, 0, 64, 46
2, 136757, Note_on_c, 0, 64, 0
2, 136787, Note_on_c, 0, 47, 44
2, 136790, Note_on_c, 0, 52, 43
2, 136790, Note_on_c, 0, 56, 41
2, 136803, Control_c, 0, 64, 127
2, 136803, Note_on_c, 0, 59, 48
2, 136825, Note_on_c, 0, 64, 46
2, 136828, Note_on_c, 0, 68, 0
2, 136839, Note_on_c, 0, 56, 0
2, 136839, Note_on_c, 0, 52, 0
2, 136849, Note_on_c, 0, 47, 0
2, 136882, Note_on_c, 0, 56, 45
2, 136885, Note_on_c, 0, 52, 41
2, 136894, Note_on_c, 0, 47, 44
2, 136894, Note_on_c, 0, 68, 46
2, 136926, Note_on_c, 0, 71, 53
2, 136929, Note_on_c, 0, 52, 0
2, 136929, Note_on_c, 0, 56, 0
2, 136943, Note_on_c, 0, 47, 0
2, 136972, Note_on_c, 0, 52, 43
2, 136972, Note_on_c, 0, 56, 44
2, 136981, Note_on_c, 0, 47, 44
2, 136984, Note_on_c, 0, 76, 44
2, 137006, Control_c, 0, 64, 0
2, 137015, Note_on_c, 0, 80, 41
2, 137040, Note_on_c, 0, 80, 0
2, 137056, Note_on_c, 0, 83, 47
2, 137059, Note_on_c, 0, 76, 0
2, 137091, Note_on_c, 0, 80, 47
2, 137100, Note_on_c, 0, 71, 0
2, 137125, Note_on_c, 0, 76, 47
2, 137144, Note_on_c, 0, 68, 0
2, 137158, Note_on_c, 0, 40, 0
2, 137166, Note_on_c, 0, 71, 41
2, 137177, Note_on_c, 0, 64, 0
2, 137212, Note_on_c, 0, 68, 48
2, 137221, Note_on_c, 0, 40, 48
2, 137234, Note_on_c, 0, 59, 0
2, 137245, Control_c, 0, 64, 127
2, 137245, Note_on_c, 0, 64, 46
2, 137280, Note_on_c, 0, 64, 0
2, 137289, Note_on_c, 0, 47, 0
2, 137289, Note_on_c, 0, 52, 0
2, 137289, Note_on_c, 0, 56, 0
2, 137300, Note_on_c, 0, 59, 42
2, 137322, Note_on_c, 0, 68, 0
2, 137335, Note_on_c, 0, 47, 45
2, 137335, Note_on_c, 0, 52, 41
2, 137335, Note_on_c, 0, 56, 43
2, 137346, Note_on_c, 0, 64, 44
2, 137371, Note_on_c, 0, 56, 0
2, 137371, Note_on_c, 0, 52, 0
2, 137374, Note_on_c, 0, 71, 0
2, 137384, Note_on_c, 0, 47, 0
2, 137395, Note_on_c, 0, 68, 45
2, 137420, Note_on_c, 0, 52, 42
2, 137420, Note_on_c, 0, 56, 45
2, 137430, Note_on_c, 0, 47, 47
2, 137441, Note_on_c, 0, 71, 43
2, 137444, Note_on_c, 0, 76, 0
2, 137457, Note_on_c, 0, 47, 0
2, 137476, Note_on_c, 0, 52, 0
2, 137476, Note_on_c, 0, 56, 0
2, 137476, Note_on_c, 0, 80, 0
2, 137498, Control_c, 0, 64, 0
2, 137498, Note_on_c, 0, 47, 41
2, 137509, Note_on_c, 0, 76, 55
2, 137512, Note_on_c, 0, 83, 0
2, 137522, Note_on_c, 0, 52, 42
2, 137522, Note_on_c, 0, 56, 46
2, 137544, Note_on_c, 0, 80, 43
2, 137569, Note_on_c, 0, 76, 0
2, 137572, Note_on_c, 0, 80, 0
2, 137581, Note_on_c, 0, 83, 47
2, 137594, Note_on_c, 0, 71, 0
2, 137616, Note_on_c, 0, 80, 44
2, 137639, Note_on_c, 0, 76, 48
2, 137664, Note_on_c, 0, 71, 46
2, 137735, Note_on_c, 0, 85, 52
2, 137743, Note_on_c, 0, 46, 52
2, 137768, Note_on_c, 0, 52, 0
2, 137768, Note_on_c, 0, 56, 0
2, 137768, Note_on_c, 0, 40, 0
2, 137768, Note_on_c, 0, 59, 0
2, 137768, Note_on_c, 0, 47, 0
2, 137771, Note_on_c, 0, 64, 0
2, 137771, Note_on_c, 0, 68, 0
2, 137793, Note_on_c, 0, 82, 51
2, 137804, Control_c, 0, 64, 127
2, 137817, Note_on_c, 0, 83, 0
2, 137817, Note_on_c, 0, 80, 0
2, 137817, Note_on_c, 0, 76, 0
2, 137836, Note_on_c, 0, 54, 45
2, 137839, Note_on_c, 0, 52, 42
2, 137853, Note_on_c, 0, 61, 46
2, 137853, Note_on_c, 0, 88, 50
2, 137863, Note_on_c, 0, 82, 0
2, 137877, Note_on_c, 0, 61, 0
2, 137902, Note_on_c, 0, 54, 0
2, 137902, Note_on_c, 0, 52, 0
2, 137902, Note_on_c, 0, 79, 51
2, 137927, Note_on_c, 0, 61, 48
2, 137935, Note_on_c, 0, 82, 52
2, 137938, Note_on_c, 0, 85, 0
2, 137947, Note_on_c, 0, 52, 44
2, 137947, Note_on_c, 0, 54, 48
2, 137972, Note_on_c, 0, 78, 50
2, 137975, Note_on_c, 0, 61, 0
2, 137988, Note_on_c, 0, 54, 0
2, 137988, Note_on_c, 0, 52, 0
2, 137999, Note_on_c, 0, 79, 0
2, 138012, Note_on_c, 0, 78, 0
2, 138012, Note_on_c, 0, 85, 52
2, 138023, Note_on_c, 0, 61, 41
2, 138036, Note_on_c, 0, 52, 47
2, 138036, Note_on_c, 0, 54, 42
2, 138049, Note_on_c, 0, 76, 49
2, 138074, Control_c, 0, 64, 0
2, 138077, Note_on_c, 0, 82, 0
2, 138086, Note_on_c, 0, 78, 47
2, 138138, Note_on_c, 0, 75, 51
2, 138160, Note_on_c, 0, 76, 0
2, 138160, Note_on_c, 0, 82, 50
2, 138173, Note_on_c, 0, 78, 0
2, 138192, Note_on_c, 0, 73, 49
2, 138195, Note_on_c, 0, 82, 0
2, 138220, Note_on_c, 0, 75, 0
2, 138242, Note_on_c, 0, 78, 43
2, 138253, Note_on_c, 0, 47, 47
2, 138278, Note_on_c, 0, 46, 0
2, 138287, Note_on_c, 0, 75, 46
2, 138312, Note_on_c, 0, 88, 0
2, 138312, Note_on_c, 0, 85, 0
2, 138312, Note_on_c, 0, 73, 0
2, 138312, Note_on_c, 0, 71, 0
2, 138334, Note_on_c, 0, 51, 46
2, 138334, Note_on_c, 0, 57, 43
2, 138334, Note_on_c, 0, 59, 43
2, 138336, Note_on_c, 0, 81, 48
2, 138347, Note_on_c, 0, 75, 0
2, 138356, Note_on_c, 0, 57, 0
2, 138356, Note_on_c, 0, 52, 0
2, 138356, Note_on_c, 0, 54, 0
2, 138356, Note_on_c, 0, 61, 0
2, 138364, Control_c, 0, 64, 127
2, 138367, Note_on_c, 0, 59, 0
2, 138367, Note_on_c, 0, 51, 0
2, 138367, Note_on_c, 0, 72, 41
2, 138400, Note_on_c, 0, 57, 48
2, 138410, Note_on_c, 0, 51, 42
2, 138410, Note_on_c, 0, 59, 47
2, 138413, Note_on_c, 0, 78, 0
2, 138413, Note_on_c, 0, 75, 43
2, 138446, Note_on_c, 0, 57, 0
2, 138446, Note_on_c, 0, 59, 0
2, 138446, Note_on_c, 0, 71, 44
2, 138459, Note_on_c, 0, 51, 0
2, 138470, Note_on_c, 0, 72, 0
2, 138479, Note_on_c, 0, 71, 0
2, 138479, Note_on_c, 0, 78, 48
2, 138489, Note_on_c, 0, 57, 46
2, 138489, Note_on_c, 0, 59, 44
2, 138498, Note_on_c, 0, 51, 44
2, 138514, Note_on_c, 0, 69, 42
2, 138547, Note_on_c, 0, 71, 41
2, 138569, Control_c, 0, 64, 0
2, 138572, Note_on_c, 0, 75, 0
2, 138601, Note_on_c, 0, 68, 44
2, 138626, Note_on_c, 0, 47, 0
2, 138629, Note_on_c, 0, 69, 0
2, 138640, Note_on_c, 0, 75, 43
2, 138653, Note_on_c, 0, 68, 0
2, 138664, Note_on_c, 0, 78, 0
2, 138667, Note_on_c, 0, 81, 0
2, 138672, Note_on_c, 0, 66, 42
2, 138695, Note_on_c, 0, 35, 54
2, 138695, Note_on_c, 0, 47, 49
2, 138721, Note_on_c, 0, 57, 0
2, 138721, Note_on_c, 0, 51, 0
2, 138721, Note_on_c, 0, 68, 51
2, 138732, Note_on_c, 0, 59, 0
2, 138745, Note_on_c, 0, 75, 0
2, 138745, Note_on_c, 0, 71, 0
2, 138745, Note_on_c, 0, 66, 0
2, 138754, Note_on_c, 0, 64, 46
2, 138779, Note_on_c, 0, 47, 0
2, 138782, Note_on_c, 0, 64, 0
2, 138801, Note_on_c, 0, 59, 44
2, 138804, Note_on_c, 0, 68, 0
2, 138823, Control_c, 0, 64, 127
2, 138823, Note_on_c, 0, 47, 47
2, 138823, Note_on_c, 0, 56, 46
2, 138823, Note_on_c, 0, 64, 42
2, 138837, Note_on_c, 0, 52, 43
2, 138859, Note_on_c, 0, 52, 0
2, 138859, Note_on_c, 0, 47, 0
2, 138859, Note_on_c, 0, 56, 0
2, 138869, Note_on_c, 0, 68, 43
2, 138891, Note_on_c, 0, 52, 46
2, 138902, Note_on_c, 0, 47, 46
2, 138902, Note_on_c, 0, 56, 47
2, 138902, Note_on_c, 0, 71, 41
2, 138924, Note_on_c, 0, 52, 0
2, 138935, Note_on_c, 0, 56, 0
2, 138935, Note_on_c, 0, 47, 0
2, 138935, Note_on_c, 0, 76, 51
2, 138967, Note_on_c, 0, 52, 42
2, 138976, Note_on_c, 0, 47, 44
2, 138976, Note_on_c, 0, 56, 42
2, 138982, Note_on_c, 0, 80, 46
2, 139004, Note_on_c, 0, 80, 0
2, 139012, Note_on_c, 0, 83, 45
2, 139015, Note_on_c, 0, 76, 0
2, 139021, Control_c, 0, 64, 0
2, 139048, Note_on_c, 0, 71, 0
2, 139048, Note_on_c, 0, 80, 42
2, 139067, Note_on_c, 0, 35, 0
2, 139067, Note_on_c, 0, 47, 0
2, 139080, Note_on_c, 0, 76, 45
2, 139091, Note_on_c, 0, 68, 0
2, 139113, Note_on_c, 0, 71, 45
2, 139132, Note_on_c, 0, 35, 59
2, 139132, Note_on_c, 0, 47, 57
2, 139157, Note_on_c, 0, 52, 0
2, 139157, Note_on_c, 0, 68, 47
2, 139168, Note_on_c, 0, 59, 0
2, 139184, Note_on_c, 0, 76, 0
2, 139184, Note_on_c, 0, 80, 0
2, 139184, Note_on_c, 0, 83, 0
2, 139193, Note_on_c, 0, 65, 43
2, 139218, Note_on_c, 0, 65, 0
2, 139218, Note_on_c, 0, 64, 0
2, 139218, Note_on_c, 0, 56, 0
2, 139240, Note_on_c, 0, 59, 48
2, 139265, Note_on_c, 0, 68, 0
2, 139265, Note_on_c, 0, 56, 48
2, 139273, Note_on_c, 0, 65, 48
2, 139276, Control_c, 0, 64, 127
2, 139301, Note_on_c, 0, 59, 0
2, 139331, Note_on_c, 0, 71, 0
2, 139340, Note_on_c, 0, 68, 46
2, 139350, Note_on_c, 0, 59, 48
2, 139396, Note_on_c, 0, 71, 49
2, 139440, Note_on_c, 0, 77, 49
2, 139473, Note_on_c, 0, 62, 58
2, 139473, Note_on_c, 0, 80, 49
2, 139484, Control_c, 0, 64, 0
2, 139494, Note_on_c, 0, 80, 0
2, 139494, Note_on_c, 0, 77, 0
2, 139516, Note_on_c, 0, 83, 48
2, 139527, Note_on_c, 0, 80, 47
2, 139530, Note_on_c, 0, 71, 0
2, 139552, Note_on_c, 0, 61, 57
2, 139562, Note_on_c, 0, 77, 45
2, 139573, Note_on_c, 0, 56, 0
2, 139573, Note_on_c, 0, 62, 0
2, 139573, Note_on_c, 0, 59, 0
2, 139573, Note_on_c, 0, 65, 0
2, 139573, Note_on_c, 0, 68, 0
2, 139598, Note_on_c, 0, 71, 43
2, 139614, Note_on_c, 0, 59, 61
2, 139631, Note_on_c, 0, 47, 0
2, 139641, Note_on_c, 0, 61, 0
2, 139652, Note_on_c, 0, 71, 0
2, 139677, Note_on_c, 0, 85, 52
2, 139696, Note_on_c, 0, 47, 55
2, 139723, Note_on_c, 0, 82, 55
2, 139745, Note_on_c, 0, 83, 0
2, 139745, Control_c, 0, 64, 127
2, 139751, Note_on_c, 0, 80, 0
2, 139773, Note_on_c, 0, 88, 53
2, 139781, Note_on_c, 0, 64, 46
2, 139784, Note_on_c, 0, 61, 46
2, 139798, Note_on_c, 0, 58, 42
2, 139800, Note_on_c, 0, 82, 0
2, 139806, Note_on_c, 0, 54, 47
2, 139809, Note_on_c, 0, 79, 55
2, 139818, Note_on_c, 0, 59, 0
2, 139821, Note_on_c, 0, 61, 0
2, 139821, Note_on_c, 0, 64, 0
2, 139821, Note_on_c, 0, 58, 0
2, 139829, Note_on_c, 0, 54, 0
2, 139865, Note_on_c, 0, 54, 44
2, 139865, Note_on_c, 0, 58, 44
2, 139865, Note_on_c, 0, 61, 49
2, 139865, Note_on_c, 0, 64, 42
2, 139865, Note_on_c, 0, 82, 51
2, 139881, Note_on_c, 0, 85, 0
2, 139890, Note_on_c, 0, 78, 54
2, 139912, Control_c, 0, 64, 0
2, 139915, Note_on_c, 0, 64, 0
2, 139915, Note_on_c, 0, 58, 0
2, 139915, Note_on_c, 0, 79, 0
2, 139915, Note_on_c, 0, 61, 0
2, 139915, Note_on_c, 0, 77, 0
2, 139940, Note_on_c, 0, 54, 0
2, 139953, Note_on_c, 0, 85, 51
2, 139962, Note_on_c, 0, 58, 47
2, 139962, Note_on_c, 0, 61, 42
2, 139962, Note_on_c, 0, 64, 42
2, 139968, Note_on_c, 0, 78, 0
2, 139973, Note_on_c, 0, 54, 49
2, 139979, Note_on_c, 0, 82, 0
2, 139979, Note_on_c, 0, 88, 0
2, 139988, Note_on_c, 0, 76, 49
2, 139996, Note_on_c, 0, 35, 0
2, 140035, Note_on_c, 0, 78, 48
2, 140070, Note_on_c, 0, 75, 55
2, 140095, Note_on_c, 0, 76, 0
2, 140106, Note_on_c, 0, 78, 0
2, 140106, Note_on_c, 0, 47, 0
2, 140116, Note_on_c, 0, 82, 48
2, 140162, Note_on_c, 0, 75, 0
2, 140162, Note_on_c, 0, 73, 64
2, 140171, Note_on_c, 0, 47, 51
2, 140171, Note_on_c, 0, 78, 65
2, 140187, Note_on_c, 0, 82, 0
2, 140198, Note_on_c, 0, 85, 0
2, 140217, Note_on_c, 0, 75, 53
2, 140231, Note_on_c, 0, 54, 0
2, 140241, Note_on_c, 0, 73, 0
2, 140252, Note_on_c, 0, 81, 53
2, 140262, Note_on_c, 0, 57, 48
2, 140262, Note_on_c, 0, 59, 42
2, 140265, Note_on_c, 0, 61, 0
2, 140271, Note_on_c, 0, 54, 48
2, 140277, Note_on_c, 0, 75, 0
2, 140282, Control_c, 0, 64, 127
2, 140285, Note_on_c, 0, 64, 0
2, 140285, Note_on_c, 0, 58, 0
2, 140296, Note_on_c, 0, 59, 0
2, 140296, Note_on_c, 0, 54, 0
2, 140296, Note_on_c, 0, 57, 0
2, 140296, Note_on_c, 0, 72, 60
2, 140337, Note_on_c, 0, 54, 48
2, 140337, Note_on_c, 0, 59, 43
2, 140340, Note_on_c, 0, 57, 48
2, 140343, Note_on_c, 0, 78, 0
2, 140343, Note_on_c, 0, 75, 59
2, 140362, Note_on_c, 0, 59, 0
2, 140362, Note_on_c, 0, 54, 0
2, 140362, Note_on_c, 0, 57, 0
2, 140365, Note_on_c, 0, 71, 56
2, 140387, Note_on_c, 0, 72, 0
2, 140409, Note_on_c, 0, 54, 48
2, 140409, Note_on_c, 0, 57, 46
2, 140409, Note_on_c, 0, 59, 43
2, 140412, Note_on_c, 0, 78, 56
2, 140423, Note_on_c, 0, 71, 0
2, 140431, Note_on_c, 0, 69, 57
2, 140483, Note_on_c, 0, 75, 0
2, 140492, Note_on_c, 0, 71, 59
2, 140527, Note_on_c, 0, 68, 58
2, 140536, Control_c, 0, 64, 0
2, 140552, Note_on_c, 0, 75, 58
2, 140555, Note_on_c, 0, 71, 0
2, 140555, Note_on_c, 0, 69, 0
2, 140599, Note_on_c, 0, 68, 0
2, 140599, Note_on_c, 0, 66, 59
2, 140624, Note_on_c, 0, 71, 54
2, 140643, Note_on_c, 0, 44, 58
2, 140654, Note_on_c, 0, 32, 55
2, 140667, Note_on_c, 0, 68, 60
2, 140689, Note_on_c, 0, 47, 0
2, 140689, Note_on_c, 0, 54, 0
2, 140689, Note_on_c, 0, 59, 0
2, 140689, Note_on_c, 0, 57, 0
2, 140692, Note_on_c, 0, 66, 0
2, 140692, Note_on_c, 0, 75, 0
2, 140692, Note_on_c, 0, 78, 0
2, 140692, Note_on_c, 0, 81, 0
2, 140725, Note_on_c, 0, 44, 0
2, 140725, Note_on_c, 0, 74, 56
2, 140736, Note_on_c, 0, 68, 0
2, 140744, Note_on_c, 0, 52, 55
2, 140758, Note_on_c, 0, 50, 59
2, 140768, Note_on_c, 0, 44, 55
2, 140768, Note_on_c, 0, 65, 56
2, 140793, Note_on_c, 0, 50, 0
2, 140793, Note_on_c, 0, 52, 0
2, 140802, Note_on_c, 0, 44, 0
2, 140802, Note_on_c, 0, 68, 54
2, 140812, Control_c, 0, 64, 127
2, 140815, Note_on_c, 0, 71, 0
2, 140832, Note_on_c, 0, 50, 57
2, 140834, Note_on_c, 0, 52, 55
2, 140845, Note_on_c, 0, 44, 53
2, 140845, Note_on_c, 0, 64, 55
2, 140867, Note_on_c, 0, 44, 0
2, 140867, Note_on_c, 0, 65, 0
2, 140867, Note_on_c, 0, 50, 0
2, 140867, Note_on_c, 0, 52, 0
2, 140878, Note_on_c, 0, 64, 0
2, 140878, Note_on_c, 0, 71, 53
2, 140907, Note_on_c, 0, 44, 55
2, 140907, Note_on_c, 0, 50, 53
2, 140910, Note_on_c, 0, 52, 56
2, 140910, Note_on_c, 0, 62, 55
2, 140940, Note_on_c, 0, 64, 55
2, 140967, Note_on_c, 0, 68, 0
2, 140976, Note_on_c, 0, 61, 56
2, 141000, Note_on_c, 0, 62, 0
2, 141020, Note_on_c, 0, 64, 0
2, 141033, Note_on_c, 0, 68, 57
2, 141049, Control_c, 0, 64, 0
2, 141052, Note_on_c, 0, 61, 0
2, 141052, Note_on_c, 0, 59, 57
2, 141082, Note_on_c, 0, 46, 61
2, 141085, Note_on_c, 0, 34, 64
2, 141085, Note_on_c, 0, 64, 59
2, 141110, Note_on_c, 0, 71, 0
2, 141113, Note_on_c, 0, 74, 0
2, 141121, Note_on_c, 0, 61, 63
2, 141132, Note_on_c, 0, 59, 0
2, 141132, Note_on_c, 0, 32, 0
2, 141135, Note_on_c, 0, 44, 0
2, 141135, Note_on_c, 0, 50, 0
2, 141157, Note_on_c, 0, 46, 0
2, 141170, Note_on_c, 0, 61, 0
2, 141170, Note_on_c, 0, 52, 0
2, 141181, Note_on_c, 0, 67, 59
2, 141203, Note_on_c, 0, 46, 60
2, 141206, Note_on_c, 0, 59, 65
2, 141209, Note_on_c, 0, 68, 0
2, 141215, Note_on_c, 0, 52, 66
2, 141228, Note_on_c, 0, 46, 0
2, 141231, Note_on_c, 0, 49, 62
2, 141241, Note_on_c, 0, 52, 0
2, 141241, Note_on_c, 0, 61, 65
2, 141252, Note_on_c, 0, 64, 0
2, 141252, Note_on_c, 0, 49, 0
2, 141279, Note_on_c, 0, 46, 63
2, 141279, Note_on_c, 0, 52, 64
2, 141288, Note_on_c, 0, 49, 64
2, 141290, Note_on_c, 0, 58, 63
2, 141312, Note_on_c, 0, 49, 0
2, 141312, Note_on_c, 0, 46, 0
2, 141315, Note_on_c, 0, 59, 0
2, 141315, Note_on_c, 0, 52, 0
2, 141326, Note_on_c, 0, 58, 0
2, 141326, Note_on_c, 0, 64, 63
2, 141359, Control_c, 0, 64, 127
2, 141359, Note_on_c, 0, 46, 60
2, 141361, Note_on_c, 0, 49, 60
2, 141361, Note_on_c, 0, 52, 59
2, 141370, Note_on_c, 0, 55, 61
2, 141395, Note_on_c, 0, 58, 65
2, 141420, Note_on_c, 0, 61, 0
2, 141439, Note_on_c, 0, 54, 64
2, 141453, Note_on_c, 0, 52, 0
2, 141466, Note_on_c, 0, 55, 0
2, 141488, Note_on_c, 0, 61, 61
2, 141524, Note_on_c, 0, 52, 59
2, 141568, Control_c, 0, 64, 0
2, 141581, Note_on_c, 0, 61, 0
2, 141581, Note_on_c, 0, 67, 0
2, 141581, Note_on_c, 0, 58, 0
2, 141581, Note_on_c, 0, 49, 0
2, 141581, Note_on_c, 0, 34, 0
2, 141581, Note_on_c, 0, 64, 0
2, 141581, Note_on_c, 0, 54, 0
2, 141581, Note_on_c, 0, 46, 0
2, 141590, Note_on_c, 0, 47, 65
2, 141596, Note_on_c, 0, 35, 63
2, 141642, Note_on_c, 0, 53, 51
2, 141667, Note_on_c, 0, 52, 0
2, 141675, Note_on_c, 0, 54, 51
2, 141702, Note_on_c, 0, 53, 0
2, 141727, Note_on_c, 0, 55, 50
2, 141752, Note_on_c, 0, 54, 0
2, 141777, Note_on_c, 0, 56, 52
2, 141802, Note_on_c, 0, 55, 0
2, 141824, Note_on_c, 0, 57, 53
2, 141870, Note_on_c, 0, 58, 52
2, 141884, Control_c, 0, 64, 127
2, 141916, Note_on_c, 0, 59, 53
2, 141962, Note_on_c, 0, 60, 54
2, 141998, Note_on_c, 0, 61, 47
2, 142031, Note_on_c, 0, 62, 51
2, 142077, Note_on_c, 0, 63, 48
2, 142080, Note_on_c, 0, 58, 0
2, 142085, Control_c, 0, 64, 0
2, 142124, Note_on_c, 0, 58, 48
2, 142124, Note_on_c, 0, 64, 53
2, 142132, Note_on_c, 0, 52, 55
2, 142135, Note_on_c, 0, 60, 0
2, 142135, Note_on_c, 0, 49, 51
2, 142135, Note_on_c, 0, 55, 50
2, 142146, Note_on_c, 0, 62, 0
2, 142146, Note_on_c, 0, 61, 0
2, 142146, Note_on_c, 0, 59, 0
2, 142154, Note_on_c, 0, 47, 0
2, 142154, Note_on_c, 0, 56, 0
2, 142154, Note_on_c, 0, 35, 0
2, 142157, Note_on_c, 0, 57, 0
2, 142166, Note_on_c, 0, 58, 0
2, 142166, Note_on_c, 0, 65, 50
2, 142191, Note_on_c, 0, 49, 0
2, 142191, Note_on_c, 0, 55, 0
2, 142191, Note_on_c, 0, 52, 0
2, 142213, Note_on_c, 0, 58, 52
2, 142213, Note_on_c, 0, 66, 53
2, 142238, Note_on_c, 0, 49, 50
2, 142238, Note_on_c, 0, 52, 53
2, 142238, Note_on_c, 0, 55, 49
2, 142251, Note_on_c, 0, 58, 0
2, 142260, Note_on_c, 0, 67, 53
2, 142271, Note_on_c, 0, 55, 0
2, 142271, Note_on_c, 0, 52, 0
2, 142271, Note_on_c, 0, 49, 0
2, 142296, Note_on_c, 0, 58, 50
2, 142306, Note_on_c, 0, 68, 49
2, 142315, Note_on_c, 0, 49, 49
2, 142315, Note_on_c, 0, 55, 50
2, 142325, Note_on_c, 0, 52, 54
2, 142342, Note_on_c, 0, 58, 0
2, 142350, Control_c, 0, 64, 127
2, 142353, Note_on_c, 0, 52, 0
2, 142353, Note_on_c, 0, 49, 0
2, 142353, Note_on_c, 0, 55, 0
2, 142353, Note_on_c, 0, 69, 49
2, 142389, Note_on_c, 0, 58, 50
2, 142389, Note_on_c, 0, 70, 50
2, 142397, Note_on_c, 0, 49, 49
2, 142397, Note_on_c, 0, 52, 51
2, 142400, Note_on_c, 0, 55, 55
2, 142422, Note_on_c, 0, 58, 0
2, 142436, Note_on_c, 0, 52, 0
2, 142436, Note_on_c, 0, 49, 0
2, 142436, Note_on_c, 0, 55, 0
2, 142446, Note_on_c, 0, 71, 52
2, 142468, Note_on_c, 0, 58, 49
2, 142479, Note_on_c, 0, 49, 50
2, 142479, Note_on_c, 0, 52, 53
2, 142479, Note_on_c, 0, 55, 50
2, 142492, Note_on_c, 0, 72, 50
2, 142503, Note_on_c, 0, 58, 0
2, 142512, Note_on_c, 0, 49, 0
2, 142512, Note_on_c, 0, 55, 0
2, 142512, Note_on_c, 0, 52, 0
2, 142528, Note_on_c, 0, 73, 54
2, 142547, Note_on_c, 0, 58, 50
2, 142558, Note_on_c, 0, 52, 52
2, 142560, Note_on_c, 0, 49, 50
2, 142560, Note_on_c, 0, 55, 51
2, 142571, Note_on_c, 0, 74, 50
2, 142601, Control_c, 0, 64, 0
2, 142623, Note_on_c, 0, 52, 0
2, 142623, Note_on_c, 0, 75, 55
2, 142656, Note_on_c, 0, 47, 63
2, 142656, Note_on_c, 0, 56, 65
2, 142656, Note_on_c, 0, 59, 67
2, 142666, Note_on_c, 0, 52, 65
2, 142669, Note_on_c, 0, 69, 0
2, 142669, Note_on_c, 0, 64, 0
2, 142669, Note_on_c, 0, 66, 0
2, 142669, Note_on_c, 0, 76, 49
2, 142672, Note_on_c, 0, 71, 0
2, 142680, Note_on_c, 0, 75, 0
2, 142680, Note_on_c, 0, 74, 0
2, 142680, Note_on_c, 0, 68, 0
2, 142680, Note_on_c, 0, 55, 0
2, 142680, Note_on_c, 0, 70, 0
2, 142680, Note_on_c, 0, 58, 0
2, 142680, Note_on_c, 0, 73, 0
2, 142680, Note_on_c, 0, 63, 0
2, 142680, Note_on_c, 0, 72, 0
2, 142680, Note_on_c, 0, 67, 0
2, 142680, Note_on_c, 0, 65, 0
2, 142680, Note_on_c, 0, 49, 0
2, 142689, Note_on_c, 0, 59, 0
2, 142703, Note_on_c, 0, 56, 0
2, 142703, Note_on_c, 0, 47, 0
2, 142703, Note_on_c, 0, 77, 55
2, 142713, Note_on_c, 0, 52, 0
2, 142735, Note_on_c, 0, 59, 55
2, 142746, Note_on_c, 0, 47, 55
2, 142746, Note_on_c, 0, 56, 56
2, 142746, Note_on_c, 0, 78, 55
2, 142759, Note_on_c, 0, 52, 49
2, 142778, Note_on_c, 0, 47, 0
2, 142778, Note_on_c, 0, 59, 0
2, 142781, Note_on_c, 0, 79, 50
2, 142792, Note_on_c, 0, 56, 0
2, 142792, Note_on_c, 0, 52, 0
2, 142824, Note_on_c, 0, 47, 53
2, 142824, Note_on_c, 0, 59, 49
2, 142827, Note_on_c, 0, 80, 51
2, 142838, Note_on_c, 0, 52, 52
2, 142838, Note_on_c, 0, 56, 54
2, 142860, Note_on_c, 0, 59, 0
2, 142873, Note_on_c, 0, 52, 0
2, 142873, Note_on_c, 0, 81, 50
2, 142882, Note_on_c, 0, 56, 0
2, 142882, Note_on_c, 0, 47, 0
2, 142896, Control_c, 0, 64, 127
2, 142904, Note_on_c, 0, 59, 54
2, 142918, Note_on_c, 0, 52, 54
2, 142918, Note_on_c, 0, 82, 55
2, 142926, Note_on_c, 0, 47, 54
2, 142926, Note_on_c, 0, 56, 50
2, 142943, Note_on_c, 0, 59, 0
2, 142945, Note_on_c, 0, 52, 0
2, 142954, Note_on_c, 0, 47, 0
2, 142954, Note_on_c, 0, 56, 0
2, 142954, Note_on_c, 0, 83, 49
2, 142990, Note_on_c, 0, 52, 54
2, 142990, Note_on_c, 0, 59, 56
2, 142995, Note_on_c, 0, 84, 54
2, 143004, Note_on_c, 0, 47, 55
2, 143004, Note_on_c, 0, 56, 53
2, 143031, Note_on_c, 0, 56, 0
2, 143031, Note_on_c, 0, 52, 0
2, 143031, Note_on_c, 0, 47, 0
2, 143031, Note_on_c, 0, 59, 0
2, 143041, Note_on_c, 0, 85, 50
2, 143077, Note_on_c, 0, 47, 53
2, 143077, Note_on_c, 0, 56, 51
2, 143077, Note_on_c, 0, 59, 51
2, 143080, Note_on_c, 0, 52, 55
2, 143099, Note_on_c, 0, 86, 51
2, 143110, Control_c, 0, 64, 0
2, 143112, Note_on_c, 0, 52, 0
2, 143145, Note_on_c, 0, 87, 54
2, 143154, Note_on_c, 0, 46, 66
2, 143154, Note_on_c, 0, 52, 69
2, 143154, Note_on_c, 0, 54, 64
2, 143157, Note_on_c, 0, 84, 0
2, 143157, Note_on_c, 0, 78, 0
2, 143157, Note_on_c, 0, 82, 0
2, 143162, Note_on_c, 0, 80, 0
2, 143171, Note_on_c, 0, 83, 0
2, 143171, Note_on_c, 0, 76, 0
2, 143171, Note_on_c, 0, 81, 0
2, 143171, Note_on_c, 0, 85, 0
2, 143171, Note_on_c, 0, 77, 0
2, 143171, Note_on_c, 0, 79, 0
2, 143171, Note_on_c, 0, 88, 50
2, 143174, Note_on_c, 0, 86, 0
2, 143180, Note_on_c, 0, 47, 0
2, 143180, Note_on_c, 0, 59, 0
2, 143180, Note_on_c, 0, 56, 0
2, 143193, Note_on_c, 0, 46, 0
2, 143193, Note_on_c, 0, 54, 0
2, 143207, Note_on_c, 0, 52, 0
2, 143215, Note_on_c, 0, 89, 53
2, 143240, Note_on_c, 0, 46, 56
2, 143240, Note_on_c, 0, 54, 51
2, 143254, Note_on_c, 0, 52, 52
2, 143254, Note_on_c, 0, 90, 53
2, 143289, Note_on_c, 0, 52, 0
2, 143289, Note_on_c, 0, 46, 0
2, 143289, Note_on_c, 0, 91, 51
2, 143298, Note_on_c, 0, 54, 0
2, 143333, Note_on_c, 0, 46, 54
2, 143333, Note_on_c, 0, 52, 55
2, 143333, Note_on_c, 0, 92, 55
2, 143344, Note_on_c, 0, 54, 50
2, 143369, Note_on_c, 0, 54, 0
2, 143379, Note_on_c, 0, 52, 0
2, 143379, Note_on_c, 0, 46, 0
2, 143393, Note_on_c, 0, 93, 50
2, 143399, Control_c, 0, 64, 127
2, 143412, Note_on_c, 0, 54, 51
2, 143423, Note_on_c, 0, 46, 51
2, 143423, Note_on_c, 0, 52, 56
2, 143425, Note_on_c, 0, 94, 55
2, 143450, Note_on_c, 0, 52, 0
2, 143450, Note_on_c, 0, 46, 0
2, 143450, Note_on_c, 0, 54, 0
2, 143461, Note_on_c, 0, 95, 54
2, 143494, Note_on_c, 0, 46, 54
2, 143494, Note_on_c, 0, 52, 55
2, 143494, Note_on_c, 0, 54, 53
2, 143496, Note_on_c, 0, 96, 50
2, 143529, Note_on_c, 0, 54, 0
2, 143529, Note_on_c, 0, 46, 0
2, 143540, Note_on_c, 0, 52, 0
2, 143540, Note_on_c, 0, 97, 51
2, 143572, Note_on_c, 0, 46, 55
2, 143572, Note_on_c, 0, 54, 50
2, 143575, Note_on_c, 0, 98, 55
2, 143586, Note_on_c, 0, 52, 54
2, 143611, Note_on_c, 0, 52, 0
2, 143614, Note_on_c, 0, 99, 50
2, 143636, Note_on_c, 0, 99, 0
2, 143644, Note_on_c, 0, 47, 67
2, 143647, Note_on_c, 0, 100, 56
2, 143656, Control_c, 0, 64, 0
2, 143656, Note_on_c, 0, 52, 69
2, 143656, Note_on_c, 0, 56, 63
2, 143659, Note_on_c, 0, 88, 0
2, 143659, Note_on_c, 0, 93, 0
2, 143659, Note_on_c, 0, 91, 0
2, 143659, Note_on_c, 0, 95, 0
2, 143667, Note_on_c, 0, 46, 0
2, 143670, Note_on_c, 0, 90, 0
2, 143670, Note_on_c, 0, 92, 0
2, 143670, Note_on_c, 0, 89, 0
2, 143670, Note_on_c, 0, 87, 0
2, 143670, Note_on_c, 0, 97, 0
2, 143670, Note_on_c, 0, 94, 0
2, 143670, Note_on_c, 0, 96, 0
2, 143670, Note_on_c, 0, 98, 0
2, 143681, Note_on_c, 0, 54, 0
2, 143684, Note_on_c, 0, 99, 51
2, 143709, Note_on_c, 0, 100, 0
2, 143717, Note_on_c, 0, 97, 52
2, 143769, Note_on_c, 0, 95, 51
2, 143791, Note_on_c, 0, 95, 0
2, 143791, Note_on_c, 0, 99, 0
2, 143791, Note_on_c, 0, 97, 0
2, 143816, Note_on_c, 0, 94, 50
2, 143860, Note_on_c, 0, 56, 0
2, 143863, Note_on_c, 0, 95, 65
2, 143877, Note_on_c, 0, 52, 0
2, 143877, Note_on_c, 0, 47, 0
2, 143890, Note_on_c, 0, 94, 0
2, 143890, Note_on_c, 0, 95, 0
2, 143899, Note_on_c, 0, 97, 49
2, 143909, Note_on_c, 0, 56, 66
2, 143912, Note_on_c, 0, 59, 67
2, 143921, Note_on_c, 0, 47, 67
2, 143921, Note_on_c, 0, 52, 62
2, 143931, Note_on_c, 0, 95, 50
2, 143958, Note_on_c, 0, 97, 0
2, 143967, Control_c, 0, 64, 127
2, 143970, Note_on_c, 0, 93, 49
2, 143995, Note_on_c, 0, 95, 0
2, 144003, Note_on_c, 0, 92, 56
2, 144030, Note_on_c, 0, 92, 0
2, 144030, Note_on_c, 0, 93, 0
2, 144039, Note_on_c, 0, 91, 50
2, 144074, Note_on_c, 0, 92, 63
2, 144085, Note_on_c, 0, 59, 0
2, 144096, Note_on_c, 0, 56, 0
2, 144098, Note_on_c, 0, 91, 0
2, 144098, Note_on_c, 0, 92, 0
2, 144107, Note_on_c, 0, 47, 0
2, 144107, Note_on_c, 0, 52, 0
2, 144120, Note_on_c, 0, 93, 54
2, 144129, Note_on_c, 0, 59, 65
2, 144140, Note_on_c, 0, 56, 65
2, 144153, Note_on_c, 0, 47, 61
2, 144153, Note_on_c, 0, 52, 63
2, 144156, Note_on_c, 0, 92, 51
2, 144178, Note_on_c, 0, 93, 0
2, 144189, Note_on_c, 0, 90, 55
2, 144211, Note_on_c, 0, 92, 0
2, 144236, Note_on_c, 0, 88, 52
2, 144258, Note_on_c, 0, 88, 0
2, 144271, Note_on_c, 0, 87, 53
2, 144282, Note_on_c, 0, 90, 0
2, 144307, Note_on_c, 0, 88, 54
2, 144317, Note_on_c, 0, 59, 0
2, 144326, Note_on_c, 0, 47, 0
2, 144326, Note_on_c, 0, 56, 0
2, 144329, Note_on_c, 0, 87, 0
2, 144329, Note_on_c, 0, 88, 0
2, 144337, Note_on_c, 0, 52, 0
2, 144351, Note_on_c, 0, 90, 52
2, 144360, Note_on_c, 0, 59, 65
2, 144370, Note_on_c, 0, 47, 65
2, 144373, Note_on_c, 0, 56, 65
2, 144373, Note_on_c, 0, 88, 48
2, 144382, Note_on_c, 0, 52, 62
2, 144414, Note_on_c, 0, 87, 51
2, 144447, Note_on_c, 0, 85, 53
2, 144450, Note_on_c, 0, 88, 0
2, 144450, Note_on_c, 0, 90, 0
2, 144477, Note_on_c, 0, 83, 49
2, 144493, Note_on_c, 0, 85, 0
2, 144504, Note_on_c, 0, 87, 0
2, 144523, Note_on_c, 0, 59, 0
2, 144533, Note_on_c, 0, 82, 48
2, 144542, Note_on_c, 0, 52, 0
2, 144542, Note_on_c, 0, 56, 0
2, 144542, Note_on_c, 0, 47, 0
2, 144542, Control_c, 0, 64, 0
2, 144558, Note_on_c, 0, 83, 0
2, 144558, Note_on_c, 0, 85, 64
2, 144567, Note_on_c, 0, 82, 0
2, 144567, Note_on_c, 0, 59, 66
2, 144577, Note_on_c, 0, 47, 64
2, 144577, Note_on_c, 0, 52, 65
2, 144577, Note_on_c, 0, 56, 60
2, 144610, Note_on_c, 0, 83, 55
2, 144632, Note_on_c, 0, 83, 0
2, 144632, Note_on_c, 0, 82, 48
2, 144635, Note_on_c, 0, 85, 0
2, 144700, Note_on_c, 0, 83, 52
2, 144725, Note_on_c, 0, 82, 0
2, 144734, Note_on_c, 0, 92, 54
2, 144744, Note_on_c, 0, 83, 0
2, 144783, Note_on_c, 0, 88, 49
2, 144805, Note_on_c, 0, 92, 0
2, 144805, Note_on_c, 0, 71, 55
2, 144816, Note_on_c, 0, 83, 54
2, 144826, Control_c, 0, 64, 127
2, 144851, Note_on_c, 0, 68, 59
2, 144851, Note_on_c, 0, 80, 61
2, 144873, Note_on_c, 0, 59, 0
2, 144876, Note_on_c, 0, 71, 0
2, 144909, Note_on_c, 0, 64, 62
2, 144909, Note_on_c, 0, 76, 54
2, 144922, Note_on_c, 0, 68, 0
2, 144922, Note_on_c, 0, 56, 0
2, 144947, Note_on_c, 0, 59, 61
2, 144947, Note_on_c, 0, 71, 54
2, 144972, Note_on_c, 0, 64, 0
2, 144972, Note_on_c, 0, 52, 0
2, 144991, Note_on_c, 0, 56, 66
2, 144997, Note_on_c, 0, 68, 59
2, 145006, Note_on_c, 0, 47, 0
2, 145019, Note_on_c, 0, 59, 0
2, 145041, Note_on_c, 0, 52, 63
2, 145041, Note_on_c, 0, 64, 62
2, 145074, Note_on_c, 0, 47, 60
2, 145087, Note_on_c, 0, 59, 64
2, 145229, Note_on_c, 0, 56, 0
2, 145232, Note_on_c, 0, 64, 0
2, 145232, Note_on_c, 0, 88, 0
2, 145232, Note_on_c, 0, 71, 0
2, 145232, Note_on_c, 0, 68, 0
2, 145232, Note_on_c, 0, 83, 0
2, 145232, Note_on_c, 0, 80, 0
2, 145232, Note_on_c, 0, 47, 0
2, 145232, Note_on_c, 0, 52, 0
2, 145232, Note_on_c, 0, 76, 0
2, 145232, Note_on_c, 0, 59, 0
2, 145262, Control_c, 0, 64, 0
2, 145398, Note_on_c, 0, 47, 62
2, 145398, Note_on_c, 0, 66, 65
2, 145398, Note_on_c, 0, 69, 63
2, 145412, Note_on_c, 0, 59, 59
2, 145412, Note_on_c, 0, 71, 66
2, 145415, Note_on_c, 0, 75, 66
2, 145568, Note_on_c, 0, 75, 0
2, 145568, Note_on_c, 0, 66, 0
2, 145568, Note_on_c, 0, 69, 0
2, 145568, Note_on_c, 0, 59, 0
2, 145568, Note_on_c, 0, 71, 0
2, 145571, Note_on_c, 0, 47, 0
2, 145675, Note_on_c, 0, 64, 71
2, 145675, Note_on_c, 0, 68, 71
2, 145675, Note_on_c, 0, 71, 69
2, 145678, Note_on_c, 0, 40, 66
2, 145678, Note_on_c, 0, 76, 67
2, 145686, Note_on_c, 0, 52, 66
2, 145703, Control_c, 0, 64, 127
2, 145754, Note_on_c, 0, 71, 0
2, 145812, Note_on_c, 0, 52, 0
2, 145823, Note_on_c, 0, 71, 43
2, 145836, Note_on_c, 0, 40, 0
2, 145836, Note_on_c, 0, 76, 0
2, 145836, Note_on_c, 0, 64, 0
2, 145836, Note_on_c, 0, 68, 0
2, 145847, Note_on_c, 0, 71, 0
2, 145855, Note_on_c, 0, 70, 42
2, 145894, Note_on_c, 0, 71, 57
2, 145916, Note_on_c, 0, 70, 0
2, 145995, Note_on_c, 0, 64, 42
2, 145998, Control_c, 0, 64, 0
2, 146023, Note_on_c, 0, 71, 0
2, 146037, Note_on_c, 0, 64, 0
2, 146081, Note_on_c, 0, 59, 47
2, 146119, Note_on_c, 0, 58, 48
2, 146122, Note_on_c, 0, 59, 0
2, 146155, Note_on_c, 0, 58, 0
2, 146165, Note_on_c, 0, 59, 59
2, 146201, Note_on_c, 0, 59, 0
2, 146247, Note_on_c, 0, 52, 41
2, 146282, Note_on_c, 0, 52, 0
2, 146340, Note_on_c, 0, 59, 48
2, 146474, Note_on_c, 0, 64, 45
2, 146499, Note_on_c, 0, 59, 0
2, 146499, Note_on_c, 0, 56, 41
2, 146513, Note_on_c, 0, 40, 47
2, 146521, Note_on_c, 0, 47, 47
2, 146609, Control_c, 0, 64, 127
2, 146724, Control_c, 0, 64, 0
2, 146768, Note_on_c, 0, 66, 41
2, 146804, Note_on_c, 0, 64, 0
2, 146875, Note_on_c, 0, 64, 48
2, 146888, Note_on_c, 0, 35, 47
2, 146897, Note_on_c, 0, 66, 0
2, 146910, Note_on_c, 0, 56, 0
2, 146910, Note_on_c, 0, 40, 0
2, 147003, Control_c, 0, 64, 127
2, 147030, Note_on_c, 0, 59, 47
2, 147057, Note_on_c, 0, 59, 0
2, 147057, Note_on_c, 0, 58, 41
2, 147090, Note_on_c, 0, 63, 52
2, 147098, Note_on_c, 0, 59, 52
2, 147112, Note_on_c, 0, 64, 0
2, 147115, Control_c, 0, 64, 0
2, 147123, Note_on_c, 0, 63, 0
2, 147123, Note_on_c, 0, 58, 0
2, 147123, Note_on_c, 0, 59, 0
2, 147126, Note_on_c, 0, 47, 0
2, 147126, Note_on_c, 0, 35, 0
2, 147192, Note_on_c, 0, 54, 48
2, 147233, Note_on_c, 0, 54, 0
2, 147274, Note_on_c, 0, 47, 41
2, 147301, Note_on_c, 0, 46, 46
2, 147304, Note_on_c, 0, 47, 0
2, 147336, Note_on_c, 0, 46, 0
2, 147345, Note_on_c, 0, 47, 49
2, 147386, Note_on_c, 0, 47, 0
2, 147444, Note_on_c, 0, 35, 48
2, 147480, Note_on_c, 0, 35, 0
2, 147502, Note_on_c, 0, 59, 42
2, 147647, Note_on_c, 0, 66, 53
2, 147649, Note_on_c, 0, 57, 46
2, 147649, Note_on_c, 0, 63, 48
2, 147660, Note_on_c, 0, 47, 44
2, 147669, Note_on_c, 0, 59, 0
2, 147713, Control_c, 0, 64, 127
2, 147825, Control_c, 0, 64, 0
2, 147850, Note_on_c, 0, 68, 53
2, 147937, Note_on_c, 0, 66, 0
2, 148003, Note_on_c, 0, 66, 60
2, 148016, Note_on_c, 0, 56, 54
2, 148030, Note_on_c, 0, 68, 0
2, 148032, Note_on_c, 0, 35, 48
2, 148041, Note_on_c, 0, 63, 0
2, 148041, Note_on_c, 0, 57, 0
2, 148102, Control_c, 0, 64, 127
2, 148137, Note_on_c, 0, 62, 42
2, 148159, Note_on_c, 0, 62, 0
2, 148195, Note_on_c, 0, 61, 58
2, 148227, Note_on_c, 0, 62, 57
2, 148236, Note_on_c, 0, 65, 53
2, 148249, Note_on_c, 0, 61, 0
2, 148260, Note_on_c, 0, 66, 0
2, 148273, Note_on_c, 0, 56, 0
2, 148300, Control_c, 0, 64, 0
2, 148306, Note_on_c, 0, 62, 0
2, 148306, Note_on_c, 0, 65, 0
2, 148309, Note_on_c, 0, 47, 0
2, 148312, Note_on_c, 0, 35, 0
2, 148342, Note_on_c, 0, 56, 44
2, 148377, Note_on_c, 0, 56, 0
2, 148413, Note_on_c, 0, 47, 41
2, 148451, Note_on_c, 0, 47, 0
2, 148467, Note_on_c, 0, 46, 41
2, 148503, Note_on_c, 0, 46, 0
2, 148522, Note_on_c, 0, 47, 56
2, 148563, Note_on_c, 0, 47, 0
2, 148608, Note_on_c, 0, 35, 45
2, 148643, Note_on_c, 0, 35, 0
2, 148670, Note_on_c, 0, 59, 52
2, 148771, Note_on_c, 0, 68, 54
2, 148774, Note_on_c, 0, 62, 52
2, 148796, Note_on_c, 0, 65, 53
2, 148799, Note_on_c, 0, 59, 0
2, 148799, Note_on_c, 0, 47, 52
2, 148828, Control_c, 0, 64, 127
2, 148938, Note_on_c, 0, 69, 65
2, 148963, Note_on_c, 0, 65, 0
2, 148963, Note_on_c, 0, 62, 0
2, 148966, Note_on_c, 0, 68, 0
2, 148982, Control_c, 0, 64, 0
2, 149056, Note_on_c, 0, 68, 64
2, 149069, Note_on_c, 0, 45, 51
2, 149080, Note_on_c, 0, 69, 0
2, 149096, Note_on_c, 0, 47, 0
2, 149148, Note_on_c, 0, 54, 49
2, 149151, Note_on_c, 0, 49, 48
2, 149176, Note_on_c, 0, 49, 0
2, 149176, Note_on_c, 0, 54, 0
2, 149220, Note_on_c, 0, 54, 47
2, 149223, Note_on_c, 0, 49, 49
2, 149229, Note_on_c, 0, 66, 55
2, 149254, Note_on_c, 0, 68, 0
2, 149270, Note_on_c, 0, 54, 0
2, 149280, Note_on_c, 0, 49, 0
2, 149313, Note_on_c, 0, 54, 49
2, 149322, Note_on_c, 0, 49, 43
2, 149347, Control_c, 0, 64, 127
2, 149379, Note_on_c, 0, 73, 59
2, 149475, Note_on_c, 0, 69, 55
2, 149481, Note_on_c, 0, 45, 0
2, 149549, Note_on_c, 0, 45, 50
2, 149558, Control_c, 0, 64, 0
2, 149567, Note_on_c, 0, 68, 62
2, 149592, Note_on_c, 0, 73, 0
2, 149592, Note_on_c, 0, 66, 0
2, 149592, Note_on_c, 0, 69, 0
2, 149633, Note_on_c, 0, 54, 0
2, 149660, Note_on_c, 0, 49, 0
2, 149685, Note_on_c, 0, 54, 48
2, 149693, Note_on_c, 0, 61, 47
2, 149707, Note_on_c, 0, 49, 45
2, 149723, Note_on_c, 0, 54, 0
2, 149732, Note_on_c, 0, 61, 0
2, 149759, Note_on_c, 0, 49, 0
2, 149764, Note_on_c, 0, 66, 54
2, 149770, Note_on_c, 0, 54, 49
2, 149779, Note_on_c, 0, 61, 46
2, 149789, Note_on_c, 0, 68, 0
2, 149803, Note_on_c, 0, 54, 0
2, 149803, Note_on_c, 0, 49, 48
2, 149825, Note_on_c, 0, 61, 0
2, 149841, Note_on_c, 0, 49, 0
2, 149847, Note_on_c, 0, 54, 42
2, 149872, Control_c, 0, 64, 127
2, 149882, Note_on_c, 0, 61, 46
2, 149885, Note_on_c, 0, 49, 47
2, 149970, Note_on_c, 0, 73, 50
2, 150030, Control_c, 0, 64, 0
2, 150049, Note_on_c, 0, 67, 50
2, 150072, Note_on_c, 0, 73, 0
2, 150072, Note_on_c, 0, 66, 0
2, 150113, Note_on_c, 0, 46, 53
2, 150129, Note_on_c, 0, 61, 0
2, 150132, Note_on_c, 0, 54, 0
2, 150135, Note_on_c, 0, 49, 0
2, 150135, Note_on_c, 0, 45, 0
2, 150148, Note_on_c, 0, 66, 53
2, 150175, Note_on_c, 0, 67, 0
2, 150239, Note_on_c, 0, 55, 47
2, 150252, Note_on_c, 0, 52, 45
2, 150263, Note_on_c, 0, 61, 48
2, 150298, Note_on_c, 0, 52, 0
2, 150298, Note_on_c, 0, 55, 0
2, 150307, Note_on_c, 0, 61, 0
2, 150310, Control_c, 0, 64, 127
2, 150342, Note_on_c, 0, 64, 48
2, 150345, Note_on_c, 0, 52, 50
2, 150345, Note_on_c, 0, 55, 54
2, 150354, Note_on_c, 0, 61, 51
2, 150364, Note_on_c, 0, 66, 0
2, 150391, Note_on_c, 0, 55, 0
2, 150391, Note_on_c, 0, 52, 0
2, 150410, Note_on_c, 0, 61, 0
2, 150446, Note_on_c, 0, 55, 45
2, 150449, Note_on_c, 0, 52, 45
2, 150476, Control_c, 0, 64, 0
2, 150476, Note_on_c, 0, 61, 48
2, 150511, Note_on_c, 0, 64, 0
2, 150618, Note_on_c, 0, 73, 48
2, 150741, Control_c, 0, 64, 127
2, 150782, Note_on_c, 0, 67, 47
2, 150900, Note_on_c, 0, 46, 0
2, 150955, Control_c, 0, 64, 0
2, 150960, Note_on_c, 0, 66, 48
2, 150966, Note_on_c, 0, 46, 50
2, 150983, Note_on_c, 0, 73, 0
2, 150983, Note_on_c, 0, 67, 0
2, 151114, Note_on_c, 0, 55, 0
2, 151114, Note_on_c, 0, 61, 0
2, 151128, Note_on_c, 0, 52, 0
2, 151157, Note_on_c, 0, 61, 48
2, 151160, Note_on_c, 0, 55, 42
2, 151171, Note_on_c, 0, 52, 47
2, 151261, Control_c, 0, 64, 127
2, 151307, Note_on_c, 0, 52, 0
2, 151307, Note_on_c, 0, 55, 0
2, 151332, Note_on_c, 0, 61, 0
2, 151357, Note_on_c, 0, 52, 48
2, 151357, Note_on_c, 0, 55, 45
2, 151376, Note_on_c, 0, 61, 46
2, 151606, Note_on_c, 0, 52, 0
2, 151631, Note_on_c, 0, 55, 0
2, 151653, Note_on_c, 0, 52, 44
2, 151661, Note_on_c, 0, 61, 0
2, 151661, Note_on_c, 0, 55, 46
2, 151686, Note_on_c, 0, 64, 42
2, 151697, Control_c, 0, 64, 0
2, 151703, Control_c, 0, 67, 127
2, 151705, Note_on_c, 0, 66, 0
2, 151708, Note_on_c, 0, 61, 43
2, 151870, Note_on_c, 0, 61, 0
2, 151870, Note_on_c, 0, 55, 0
2, 151895, Note_on_c, 0, 55, 44
2, 151895, Note_on_c, 0, 61, 47
2, 151976, Control_c, 0, 64, 127
2, 152203, Note_on_c, 0, 64, 0
2, 152206, Note_on_c, 0, 55, 0
2, 152206, Note_on_c, 0, 52, 0
2, 152206, Note_on_c, 0, 61, 0
2, 152208, Note_on_c, 0, 46, 0
2, 152225, Control_c, 0, 64, 0
2, 152260, Note_on_c, 0, 88, 42
2, 152302, Note_on_c, 0, 88, 0
2, 152310, Note_on_c, 0, 87, 50
2, 152346, Note_on_c, 0, 87, 0
2, 152356, Note_on_c, 0, 88, 50
2, 152392, Note_on_c, 0, 88, 0
2, 152398, Note_on_c, 0, 35, 53
2, 152400, Note_on_c, 0, 47, 54
2, 152430, Note_on_c, 0, 35, 0
2, 152439, Note_on_c, 0, 47, 0
2, 152494, Note_on_c, 0, 83, 46
2, 152496, Note_on_c, 0, 79, 45
2, 152532, Note_on_c, 0, 79, 0
2, 152532, Note_on_c, 0, 83, 0
2, 152590, Note_on_c, 0, 76, 47
2, 152590, Note_on_c, 0, 81, 45
2, 152590, Note_on_c, 0, 84, 42
2, 152615, Note_on_c, 0, 76, 0
2, 152625, Note_on_c, 0, 84, 0
2, 152625, Note_on_c, 0, 81, 0
2, 152628, Note_on_c, 0, 75, 42
2, 152647, Note_on_c, 0, 83, 47
2, 152661, Note_on_c, 0, 79, 45
2, 152664, Note_on_c, 0, 75, 0
2, 152664, Note_on_c, 0, 76, 47
2, 152696, Note_on_c, 0, 79, 0
2, 152696, Note_on_c, 0, 83, 0
2, 152699, Note_on_c, 0, 76, 0
2, 152743, Note_on_c, 0, 71, 48
2, 152752, Note_on_c, 0, 76, 44
2, 152752, Note_on_c, 0, 79, 45
2, 152779, Note_on_c, 0, 71, 0
2, 152789, Note_on_c, 0, 79, 0
2, 152789, Note_on_c, 0, 76, 0
2, 152831, Note_on_c, 0, 72, 41
2, 152831, Note_on_c, 0, 76, 42
2, 152831, Note_on_c, 0, 81, 43
2, 152857, Note_on_c, 0, 76, 0
2, 152866, Note_on_c, 0, 75, 43
2, 152869, Note_on_c, 0, 81, 0
2, 152869, Note_on_c, 0, 72, 0
2, 152899, Note_on_c, 0, 79, 48
2, 152902, Note_on_c, 0, 75, 0
2, 152902, Note_on_c, 0, 76, 42
2, 152915, Note_on_c, 0, 71, 44
2, 152934, Note_on_c, 0, 76, 0
2, 152934, Note_on_c, 0, 79, 0
2, 152948, Note_on_c, 0, 71, 0
2, 152983, Note_on_c, 0, 67, 42
2, 152983, Note_on_c, 0, 71, 46
2, 152983, Note_on_c, 0, 76, 43
2, 153016, Note_on_c, 0, 76, 0
2, 153019, Note_on_c, 0, 71, 0
2, 153019, Note_on_c, 0, 67, 0
2, 153054, Note_on_c, 0, 64, 41
2, 153063, Note_on_c, 0, 78, 42
2, 153066, Note_on_c, 0, 69, 42
2, 153066, Note_on_c, 0, 72, 48
2, 153093, Note_on_c, 0, 64, 0
2, 153098, Note_on_c, 0, 78, 0
2, 153101, Note_on_c, 0, 69, 0
2, 153101, Note_on_c, 0, 72, 0
2, 153118, Note_on_c, 0, 63, 47
2, 153153, Note_on_c, 0, 64, 49
2, 153156, Note_on_c, 0, 63, 0
2, 153162, Note_on_c, 0, 67, 49
2, 153162, Note_on_c, 0, 71, 48
2, 153162, Note_on_c, 0, 76, 48
2, 153189, Note_on_c, 0, 64, 0
2, 153197, Note_on_c, 0, 76, 0
2, 153200, Note_on_c, 0, 71, 0
2, 153200, Note_on_c, 0, 67, 0
2, 153246, Note_on_c, 0, 71, 44
2, 153249, Note_on_c, 0, 59, 47
2, 153260, Note_on_c, 0, 67, 45
2, 153268, Control_c, 0, 67, 0
2, 153285, Note_on_c, 0, 71, 0
2, 153288, Note_on_c, 0, 59, 0
2, 153296, Note_on_c, 0, 67, 0
2, 153315, Control_c, 0, 67, 127
2, 153342, Note_on_c, 0, 64, 43
2, 153351, Note_on_c, 0, 67, 41
2, 153351, Note_on_c, 0, 71, 48
2, 153378, Note_on_c, 0, 71, 0
2, 153378, Note_on_c, 0, 70, 49
2, 153381, Note_on_c, 0, 64, 0
2, 153389, Note_on_c, 0, 67, 0
2, 153414, Note_on_c, 0, 71, 48
2, 153417, Note_on_c, 0, 70, 0
2, 153417, Note_on_c, 0, 66, 53
2, 153420, Note_on_c, 0, 63, 53
2, 153447, Note_on_c, 0, 71, 0
2, 153453, Note_on_c, 0, 63, 0
2, 153453, Note_on_c, 0, 66, 0
2, 153491, Note_on_c, 0, 75, 41
2, 153500, Note_on_c, 0, 59, 48
2, 153527, Note_on_c, 0, 75, 0
2, 153532, Note_on_c, 0, 59, 0
2, 153562, Note_on_c, 0, 67, 46
2, 153562, Note_on_c, 0, 71, 43
2, 153576, Note_on_c, 0, 64, 44
2, 153595, Note_on_c, 0, 71, 0
2, 153595, Note_on_c, 0, 70, 50
2, 153598, Note_on_c, 0, 67, 0
2, 153611, Note_on_c, 0, 64, 0
2, 153630, Note_on_c, 0, 70, 0
2, 153633, Note_on_c, 0, 66, 47
2, 153642, Note_on_c, 0, 63, 47
2, 153642, Note_on_c, 0, 71, 54
2, 153669, Note_on_c, 0, 66, 0
2, 153679, Note_on_c, 0, 71, 0
2, 153682, Note_on_c, 0, 63, 0
2, 153712, Note_on_c, 0, 78, 47
2, 153731, Note_on_c, 0, 59, 48
2, 153747, Note_on_c, 0, 78, 0
2, 153769, Note_on_c, 0, 59, 0
2, 153786, Note_on_c, 0, 71, 47
2, 153789, Note_on_c, 0, 64, 44
2, 153789, Note_on_c, 0, 67, 43
2, 153808, Note_on_c, 0, 71, 0
2, 153821, Note_on_c, 0, 70, 41
2, 153824, Note_on_c, 0, 67, 0
2, 153827, Note_on_c, 0, 64, 0
2, 153854, Note_on_c, 0, 71, 57
2, 153857, Note_on_c, 0, 70, 0
2, 153857, Note_on_c, 0, 63, 53
2, 153857, Note_on_c, 0, 66, 60
2, 153892, Note_on_c, 0, 66, 0
2, 153892, Note_on_c, 0, 71, 0
2, 153895, Note_on_c, 0, 63, 0
2, 153920, Note_on_c, 0, 75, 60
2, 153920, Note_on_c, 0, 78, 53
2, 153926, Note_on_c, 0, 59, 42
2, 153932, Note_on_c, 0, 83, 47
2, 153954, Note_on_c, 0, 78, 0
2, 153957, Note_on_c, 0, 75, 0
2, 153962, Note_on_c, 0, 59, 0
2, 153965, Note_on_c, 0, 83, 0
2, 154001, Note_on_c, 0, 70, 43
2, 154009, Note_on_c, 0, 79, 42
2, 154023, Note_on_c, 0, 76, 46
2, 154036, Note_on_c, 0, 70, 0
2, 154045, Note_on_c, 0, 79, 0
2, 154061, Note_on_c, 0, 76, 0
2, 154105, Note_on_c, 0, 71, 54
2, 154105, Note_on_c, 0, 75, 52
2, 154105, Note_on_c, 0, 78, 53
2, 154138, Note_on_c, 0, 78, 0
2, 154138, Note_on_c, 0, 75, 0
2, 154141, Note_on_c, 0, 71, 0
2, 154179, Note_on_c, 0, 59, 49
2, 154218, Note_on_c, 0, 59, 0
2, 154253, Note_on_c, 0, 88, 48
2, 154289, Note_on_c, 0, 88, 0
2, 154302, Note_on_c, 0, 87, 52
2, 154338, Note_on_c, 0, 87, 0
2, 154348, Note_on_c, 0, 88, 51
2, 154362, Note_on_c, 0, 43, 48
2, 154368, Note_on_c, 0, 31, 50
2, 154397, Control_c, 0, 64, 127
2, 154441, Note_on_c, 0, 83, 45
2, 154521, Note_on_c, 0, 79, 44
2, 154606, Note_on_c, 0, 76, 42
2, 154608, Note_on_c, 0, 59, 47
2, 154611, Note_on_c, 0, 55, 51
2, 154633, Note_on_c, 0, 52, 50
2, 154644, Control_c, 0, 64, 0
2, 154674, Note_on_c, 0, 71, 44
2, 154690, Note_on_c, 0, 83, 0
2, 154690, Note_on_c, 0, 88, 0
2, 154696, Note_on_c, 0, 79, 0
2, 154753, Note_on_c, 0, 67, 48
2, 154776, Note_on_c, 0, 71, 0
2, 154776, Note_on_c, 0, 76, 0
2, 154778, Note_on_c, 0, 59, 0
2, 154781, Note_on_c, 0, 52, 0
2, 154781, Note_on_c, 0, 55, 0
2, 154784, Note_on_c, 0, 43, 0
2, 154787, Note_on_c, 0, 67, 0
2, 154787, Note_on_c, 0, 31, 0
2, 154833, Note_on_c, 0, 64, 51
2, 154872, Note_on_c, 0, 64, 0
2, 154918, Note_on_c, 0, 67, 43
2, 154923, Note_on_c, 0, 43, 48
2, 154932, Note_on_c, 0, 31, 50
2, 154957, Note_on_c, 0, 67, 0
2, 154966, Note_on_c, 0, 43, 0
2, 154968, Note_on_c, 0, 31, 0
2, 154988, Note_on_c, 0, 71, 47
2, 155007, Note_on_c, 0, 43, 50
2, 155013, Note_on_c, 0, 31, 50
2, 155026, Note_on_c, 0, 71, 0
2, 155037, Note_on_c, 0, 43, 0
2, 155053, Note_on_c, 0, 31, 0
2, 155069, Note_on_c, 0, 76, 44
2, 155080, Note_on_c, 0, 43, 49
2, 155096, Note_on_c, 0, 31, 50
2, 155105, Note_on_c, 0, 43, 0
2, 155108, Note_on_c, 0, 76, 0
2, 155121, Note_on_c, 0, 31, 0
2, 155143, Note_on_c, 0, 79, 42
2, 155154, Note_on_c, 0, 43, 48
2, 155167, Note_on_c, 0, 31, 47
2, 155176, Note_on_c, 0, 43, 0
2, 155179, Note_on_c, 0, 79, 0
2, 155192, Note_on_c, 0, 31, 0
2, 155208, Note_on_c, 0, 88, 44
2, 155222, Note_on_c, 0, 43, 47
2, 155235, Note_on_c, 0, 31, 54
2, 155244, Note_on_c, 0, 88, 0
2, 155253, Note_on_c, 0, 87, 53
2, 155261, Note_on_c, 0, 43, 0
2, 155275, Note_on_c, 0, 31, 0
2, 155291, Note_on_c, 0, 87, 0
2, 155310, Note_on_c, 0, 88, 60
2, 155313, Note_on_c, 0, 45, 64
2, 155316, Note_on_c, 0, 33, 62
2, 155381, Note_on_c, 0, 84, 41
2, 155463, Note_on_c, 0, 81, 41
2, 155544, Note_on_c, 0, 76, 46
2, 155571, Note_on_c, 0, 60, 53
2, 155574, Control_c, 0, 64, 127
2, 155574, Note_on_c, 0, 52, 51
2, 155574, Note_on_c, 0, 54, 50
2, 155574, Note_on_c, 0, 57, 49
2, 155610, Note_on_c, 0, 72, 43
2, 155678, Note_on_c, 0, 69, 46
2, 155752, Note_on_c, 0, 69, 0
2, 155752, Note_on_c, 0, 64, 53
2, 155765, Control_c, 0, 64, 0
2, 155768, Note_on_c, 0, 88, 0
2, 155771, Note_on_c, 0, 84, 0
2, 155774, Note_on_c, 0, 72, 0
2, 155774, Note_on_c, 0, 81, 0
2, 155774, Note_on_c, 0, 76, 0
2, 155777, Note_on_c, 0, 57, 0
2, 155777, Note_on_c, 0, 60, 0
2, 155780, Note_on_c, 0, 54, 0
2, 155780, Note_on_c, 0, 52, 0
2, 155783, Note_on_c, 0, 45, 0
2, 155785, Note_on_c, 0, 33, 0
2, 155788, Note_on_c, 0, 64, 0
2, 155818, Note_on_c, 0, 69, 44
2, 155840, Note_on_c, 0, 33, 54
2, 155840, Note_on_c, 0, 45, 50
2, 155854, Note_on_c, 0, 69, 0
2, 155859, Note_on_c, 0, 45, 0
2, 155862, Note_on_c, 0, 33, 0
2, 155871, Note_on_c, 0, 72, 41
2, 155909, Note_on_c, 0, 33, 54
2, 155909, Note_on_c, 0, 45, 49
2, 155912, Note_on_c, 0, 72, 0
2, 155928, Note_on_c, 0, 45, 0
2, 155931, Note_on_c, 0, 33, 0
2, 155964, Note_on_c, 0, 76, 43
2, 155977, Note_on_c, 0, 45, 53
2, 155980, Note_on_c, 0, 33, 48
2, 156000, Note_on_c, 0, 45, 0
2, 156002, Note_on_c, 0, 33, 0
2, 156002, Note_on_c, 0, 76, 0
2, 156032, Note_on_c, 0, 81, 46
2, 156046, Note_on_c, 0, 45, 53
2, 156048, Note_on_c, 0, 33, 52
2, 156071, Note_on_c, 0, 45, 0
2, 156071, Note_on_c, 0, 81, 0
2, 156073, Note_on_c, 0, 33, 0
2, 156103, Note_on_c, 0, 88, 48
2, 156117, Note_on_c, 0, 33, 50
2, 156117, Note_on_c, 0, 45, 48
2, 156127, Note_on_c, 0, 88, 0
2, 156138, Note_on_c, 0, 87, 56
2, 156151, Note_on_c, 0, 45, 0
2, 156154, Note_on_c, 0, 33, 0
2, 156157, Note_on_c, 0, 88, 55
2, 156170, Note_on_c, 0, 87, 0
2, 156192, Note_on_c, 0, 47, 66
2, 156195, Note_on_c, 0, 35, 66
2, 156225, Control_c, 0, 64, 127
2, 156261, Note_on_c, 0, 83, 42
2, 156321, Note_on_c, 0, 79, 45
2, 156365, Note_on_c, 0, 76, 47
2, 156404, Note_on_c, 0, 55, 55
2, 156404, Note_on_c, 0, 59, 53
2, 156414, Note_on_c, 0, 52, 60
2, 156425, Control_c, 0, 64, 0
2, 156431, Note_on_c, 0, 88, 0
2, 156433, Note_on_c, 0, 79, 0
2, 156433, Note_on_c, 0, 76, 0
2, 156436, Note_on_c, 0, 59, 0
2, 156439, Note_on_c, 0, 47, 0
2, 156439, Note_on_c, 0, 55, 0
2, 156442, Note_on_c, 0, 83, 0
2, 156442, Note_on_c, 0, 35, 0
2, 156442, Note_on_c, 0, 71, 48
2, 156453, Note_on_c, 0, 52, 0
2, 156482, Note_on_c, 0, 71, 0
2, 156504, Note_on_c, 0, 83, 43
2, 156549, Note_on_c, 0, 83, 0
2, 156557, Note_on_c, 0, 82, 57
2, 156590, Note_on_c, 0, 83, 58
2, 156596, Note_on_c, 0, 82, 0
2, 156612, Note_on_c, 0, 45, 59
2, 156618, Note_on_c, 0, 33, 58
2, 156675, Note_on_c, 0, 78, 43
2, 156708, Control_c, 0, 64, 127
2, 156746, Note_on_c, 0, 75, 48
2, 156795, Note_on_c, 0, 71, 41
2, 156809, Note_on_c, 0, 54, 60
2, 156809, Note_on_c, 0, 59, 59
2, 156819, Note_on_c, 0, 51, 58
2, 156883, Note_on_c, 0, 83, 0
2, 156886, Note_on_c, 0, 66, 57
2, 156930, Note_on_c, 0, 78, 0
2, 156952, Note_on_c, 0, 79, 58
2, 156952, Note_on_c, 0, 83, 55
2, 156974, Note_on_c, 0, 83, 0
2, 156977, Note_on_c, 0, 79, 0
2, 156999, Note_on_c, 0, 78, 54
2, 157009, Control_c, 0, 64, 0
2, 157020, Note_on_c, 0, 75, 0
2, 157023, Note_on_c, 0, 71, 0
2, 157026, Note_on_c, 0, 66, 0
2, 157026, Note_on_c, 0, 51, 0
2, 157026, Note_on_c, 0, 59, 0
2, 157026, Note_on_c, 0, 54, 0
2, 157029, Note_on_c, 0, 45, 0
2, 157032, Note_on_c, 0, 78, 0
2, 157032, Note_on_c, 0, 33, 0
2, 157037, Note_on_c, 0, 43, 58
2, 157040, Note_on_c, 0, 31, 55
2, 157040, Note_on_c, 0, 79, 65
2, 157040, Note_on_c, 0, 83, 66
2, 157076, Note_on_c, 0, 83, 0
2, 157076, Note_on_c, 0, 43, 0
2, 157081, Note_on_c, 0, 79, 0
2, 157081, Note_on_c, 0, 31, 0
2, 157139, Note_on_c, 0, 76, 58
2, 157177, Note_on_c, 0, 76, 0
2, 157200, Note_on_c, 0, 78, 54
2, 157200, Note_on_c, 0, 81, 53
2, 157224, Note_on_c, 0, 81, 0
2, 157224, Note_on_c, 0, 78, 0
2, 157233, Note_on_c, 0, 77, 54
2, 157269, Note_on_c, 0, 78, 59
2, 157274, Note_on_c, 0, 77, 0
2, 157283, Note_on_c, 0, 33, 55
2, 157283, Note_on_c, 0, 45, 53
2, 157283, Note_on_c, 0, 81, 63
2, 157324, Control_c, 0, 64, 127
2, 157363, Note_on_c, 0, 72, 60
2, 157373, Note_on_c, 0, 45, 0
2, 157376, Note_on_c, 0, 33, 0
2, 157420, Note_on_c, 0, 76, 45
2, 157420, Note_on_c, 0, 79, 48
2, 157437, Control_c, 0, 64, 0
2, 157442, Note_on_c, 0, 79, 0
2, 157442, Note_on_c, 0, 78, 0
2, 157442, Note_on_c, 0, 72, 0
2, 157442, Note_on_c, 0, 81, 0
2, 157442, Note_on_c, 0, 76, 0
2, 157453, Note_on_c, 0, 75, 46
2, 157486, Note_on_c, 0, 79, 47
2, 157488, Note_on_c, 0, 75, 0
2, 157488, Note_on_c, 0, 76, 53
2, 157494, Note_on_c, 0, 47, 58
2, 157500, Note_on_c, 0, 35, 57
2, 157558, Note_on_c, 0, 71, 56
2, 157623, Note_on_c, 0, 47, 0
2, 157623, Note_on_c, 0, 78, 59
2, 157626, Note_on_c, 0, 35, 0
2, 157629, Note_on_c, 0, 75, 55
2, 157648, Note_on_c, 0, 78, 0
2, 157648, Note_on_c, 0, 79, 0
2, 157651, Note_on_c, 0, 75, 0
2, 157651, Note_on_c, 0, 76, 0
2, 157673, Note_on_c, 0, 74, 59
2, 157700, Note_on_c, 0, 71, 0
2, 157705, Note_on_c, 0, 47, 60
2, 157708, Note_on_c, 0, 35, 56
2, 157711, Note_on_c, 0, 75, 66
2, 157711, Note_on_c, 0, 78, 65
2, 157714, Note_on_c, 0, 74, 0
2, 157775, Control_c, 0, 64, 127
2, 157807, Note_on_c, 0, 69, 58
2, 157837, Note_on_c, 0, 47, 0
2, 157840, Note_on_c, 0, 35, 0
2, 157865, Note_on_c, 0, 72, 55
2, 157865, Note_on_c, 0, 76, 57
2, 157890, Note_on_c, 0, 76, 0
2, 157890, Note_on_c, 0, 75, 0
2, 157890, Note_on_c, 0, 69, 0
2, 157890, Note_on_c, 0, 78, 0
2, 157890, Note_on_c, 0, 72, 0
2, 157890, Control_c, 0, 64, 0
2, 157900, Note_on_c, 0, 71, 58
2, 157933, Note_on_c, 0, 72, 65
2, 157933, Note_on_c, 0, 76, 63
2, 157936, Note_on_c, 0, 71, 0
2, 157939, Note_on_c, 0, 48, 61
2, 157944, Note_on_c, 0, 36, 62
2, 158016, Note_on_c, 0, 67, 55
2, 158018, Note_on_c, 0, 72, 0
2, 158067, Note_on_c, 0, 48, 0
2, 158070, Note_on_c, 0, 36, 0
2, 158087, Note_on_c, 0, 69, 58
2, 158087, Note_on_c, 0, 72, 58
2, 158109, Note_on_c, 0, 72, 0
2, 158109, Note_on_c, 0, 69, 0
2, 158109, Note_on_c, 0, 76, 0
2, 158122, Note_on_c, 0, 68, 58
2, 158144, Note_on_c, 0, 67, 0
2, 158158, Note_on_c, 0, 68, 0
2, 158160, Note_on_c, 0, 45, 59
2, 158163, Note_on_c, 0, 33, 59
2, 158169, Note_on_c, 0, 69, 63
2, 158169, Note_on_c, 0, 72, 60
2, 158202, Control_c, 0, 64, 127
2, 158262, Note_on_c, 0, 65, 53
2, 158301, Note_on_c, 0, 45, 0
2, 158306, Note_on_c, 0, 33, 0
2, 158320, Control_c, 0, 64, 0
2, 158320, Note_on_c, 0, 67, 54
2, 158320, Note_on_c, 0, 71, 53
2, 158345, Note_on_c, 0, 71, 0
2, 158345, Note_on_c, 0, 72, 0
2, 158345, Note_on_c, 0, 69, 0
2, 158348, Note_on_c, 0, 65, 0
2, 158348, Note_on_c, 0, 67, 0
2, 158367, Note_on_c, 0, 66, 58
2, 158383, Note_on_c, 0, 47, 59
2, 158389, Note_on_c, 0, 35, 56
2, 158392, Note_on_c, 0, 67, 65
2, 158392, Note_on_c, 0, 71, 59
2, 158417, Note_on_c, 0, 66, 0
2, 158485, Note_on_c, 0, 64, 59
2, 158543, Note_on_c, 0, 66, 53
2, 158543, Note_on_c, 0, 69, 53
2, 158565, Note_on_c, 0, 69, 0
2, 158565, Note_on_c, 0, 64, 0
2, 158565, Note_on_c, 0, 67, 0
2, 158565, Note_on_c, 0, 71, 0
2, 158565, Note_on_c, 0, 66, 0
2, 158570, Note_on_c, 0, 47, 0
2, 158584, Note_on_c, 0, 35, 0
2, 158592, Note_on_c, 0, 65, 53
2, 158622, Note_on_c, 0, 69, 61
2, 158636, Control_c, 0, 64, 127
2, 158639, Note_on_c, 0, 66, 59
2, 158641, Note_on_c, 0, 47, 54
2, 158661, Note_on_c, 0, 65, 0
2, 158696, Note_on_c, 0, 63, 48
2, 158742, Note_on_c, 0, 69, 0
2, 158742, Note_on_c, 0, 66, 0
2, 158745, Note_on_c, 0, 47, 0
2, 158745, Note_on_c, 0, 63, 0
2, 158748, Control_c, 0, 64, 0
2, 158754, Note_on_c, 0, 64, 51
2, 158754, Note_on_c, 0, 67, 50
2, 158779, Note_on_c, 0, 62, 47
2, 158787, Note_on_c, 0, 67, 0
2, 158787, Note_on_c, 0, 64, 0
2, 158812, Note_on_c, 0, 62, 0
2, 158851, Note_on_c, 0, 67, 63
2, 158861, Note_on_c, 0, 64, 62
2, 158878, Note_on_c, 0, 48, 64
2, 158886, Note_on_c, 0, 67, 0
2, 158897, Note_on_c, 0, 64, 0
2, 158910, Note_on_c, 0, 48, 0
2, 158956, Note_on_c, 0, 60, 51
2, 158981, Note_on_c, 0, 60, 0
2, 159025, Note_on_c, 0, 60, 54
2, 159061, Note_on_c, 0, 60, 0
2, 159074, Note_on_c, 0, 59, 51
2, 159107, Note_on_c, 0, 59, 0
2, 159120, Note_on_c, 0, 60, 63
2, 159120, Note_on_c, 0, 65, 60
2, 159134, Note_on_c, 0, 45, 62
2, 159150, Note_on_c, 0, 60, 0
2, 159153, Note_on_c, 0, 65, 0
2, 159167, Note_on_c, 0, 45, 0
2, 159221, Note_on_c, 0, 57, 49
2, 159251, Note_on_c, 0, 59, 53
2, 159254, Note_on_c, 0, 57, 0
2, 159287, Note_on_c, 0, 59, 0
2, 159297, Note_on_c, 0, 58, 53
2, 159333, Note_on_c, 0, 58, 0
2, 159341, Note_on_c, 0, 59, 60
2, 159341, Note_on_c, 0, 64, 62
2, 159377, Note_on_c, 0, 64, 0
2, 159377, Note_on_c, 0, 59, 0
2, 159380, Note_on_c, 0, 47, 62
2, 159412, Note_on_c, 0, 47, 0
2, 159458, Note_on_c, 0, 55, 50
2, 159497, Note_on_c, 0, 55, 0
2, 159505, Note_on_c, 0, 57, 48
2, 159530, Note_on_c, 0, 57, 0
2, 159539, Note_on_c, 0, 56, 51
2, 159575, Note_on_c, 0, 56, 0
2, 159575, Note_on_c, 0, 57, 62
2, 159575, Note_on_c, 0, 63, 61
2, 159610, Note_on_c, 0, 63, 0
2, 159610, Note_on_c, 0, 57, 0
2, 159610, Note_on_c, 0, 47, 61
2, 159643, Note_on_c, 0, 47, 0
2, 159675, Note_on_c, 0, 54, 49
2, 159708, Note_on_c, 0, 54, 0
2, 159744, Note_on_c, 0, 52, 49
2, 159773, Note_on_c, 0, 52, 0
2, 159787, Note_on_c, 0, 51, 65
2, 159816, Note_on_c, 0, 51, 0
2, 159827, Note_on_c, 0, 52, 63
2, 159827, Note_on_c, 0, 55, 65
2, 159827, Note_on_c, 0, 59, 65
2, 159827, Note_on_c, 0, 64, 60
2, 159860, Note_on_c, 0, 64, 0
2, 159863, Note_on_c, 0, 52, 0
2, 159863, Note_on_c, 0, 55, 0
2, 159863, Note_on_c, 0, 59, 0
2, 159917, Note_on_c, 0, 47, 50
2, 159959, Note_on_c, 0, 47, 0
2, 159991, Note_on_c, 0, 52, 49
2, 160027, Note_on_c, 0, 52, 0
2, 160037, Note_on_c, 0, 51, 49
2, 160073, Note_on_c, 0, 51, 0
2, 160083, Note_on_c, 0, 52, 54
2, 160119, Note_on_c, 0, 52, 0
2, 160174, Note_on_c, 0, 47, 51
2, 160212, Note_on_c, 0, 47, 0
2, 160256, Note_on_c, 0, 52, 47
2, 160289, Note_on_c, 0, 52, 0
2, 160299, Note_on_c, 0, 51, 54
2, 160324, Note_on_c, 0, 64, 61
2, 160335, Note_on_c, 0, 51, 0
2, 160335, Note_on_c, 0, 52, 64
2, 160335, Note_on_c, 0, 55, 62
2, 160335, Note_on_c, 0, 59, 62
2, 160357, Note_on_c, 0, 64, 0
2, 160368, Note_on_c, 0, 52, 0
2, 160368, Note_on_c, 0, 55, 0
2, 160368, Note_on_c, 0, 59, 0
2, 160447, Note_on_c, 0, 47, 51
2, 160488, Note_on_c, 0, 47, 0
2, 160521, Note_on_c, 0, 52, 49
2, 160560, Note_on_c, 0, 52, 0
2, 160570, Note_on_c, 0, 51, 51
2, 160608, Note_on_c, 0, 51, 0
2, 160628, Note_on_c, 0, 52, 52
2, 160669, Note_on_c, 0, 52, 0
2, 160713, Note_on_c, 0, 43, 50
2, 160749, Note_on_c, 0, 43, 0
2, 160812, Note_on_c, 0, 47, 52
2, 160845, Note_on_c, 0, 47, 0
2, 160877, Note_on_c, 0, 64, 66
2, 160899, Note_on_c, 0, 55, 60
2, 160899, Note_on_c, 0, 59, 61
2, 160910, Note_on_c, 0, 40, 60
2, 160923, Note_on_c, 0, 64, 0
2, 160934, Note_on_c, 0, 55, 0
2, 160934, Note_on_c, 0, 59, 0
2, 160944, Note_on_c, 0, 40, 0
2, 160999, Note_on_c, 0, 35, 52
2, 161038, Note_on_c, 0, 35, 0
2, 161101, Note_on_c, 0, 40, 48
2, 161139, Note_on_c, 0, 40, 0
2, 161161, Note_on_c, 0, 39, 47
2, 161197, Note_on_c, 0, 40, 50
2, 161200, Note_on_c, 0, 39, 0
2, 161235, Note_on_c, 0, 40, 0
2, 161312, Note_on_c, 0, 35, 48
2, 161348, Note_on_c, 0, 35, 0
2, 161429, Note_on_c, 0, 40, 50
2, 161459, Note_on_c, 0, 40, 0
2, 161481, Note_on_c, 0, 39, 60
2, 161517, Note_on_c, 0, 39, 0
2, 161517, Note_on_c, 0, 59, 64
2, 161527, Note_on_c, 0, 40, 61
2, 161527, Note_on_c, 0, 55, 66
2, 161552, Note_on_c, 0, 59, 0
2, 161566, Note_on_c, 0, 55, 0
2, 161566, Note_on_c, 0, 40, 0
2, 161662, Note_on_c, 0, 35, 50
2, 161700, Note_on_c, 0, 35, 0
2, 161815, Note_on_c, 0, 40, 53
2, 161818, Control_c, 0, 67, 0
2, 161851, Note_on_c, 0, 40, 0
2, 161859, Note_on_c, 0, 39, 48
2, 161895, Note_on_c, 0, 40, 49
2, 161898, Note_on_c, 0, 39, 0
2, 161925, Note_on_c, 0, 40, 0
2, 162070, Note_on_c, 0, 31, 53
2, 162105, Note_on_c, 0, 31, 0
2, 162340, Note_on_c, 0, 35, 55
2, 162373, Note_on_c, 0, 35, 0
2, 162553, Note_on_c, 0, 40, 68
2, 162576, Note_on_c, 0, 28, 69
2, 162589, Note_on_c, 0, 40, 0
2, 162614, Note_on_c, 0, 28, 0
2, 162636, Note_on_c, 0, 52, 63
2, 162647, Note_on_c, 0, 64, 67
2, 162672, Note_on_c, 0, 52, 0
2, 162685, Note_on_c, 0, 64, 0
2, 162715, Note_on_c, 0, 43, 66
2, 162728, Note_on_c, 0, 31, 63
2, 162753, Note_on_c, 0, 43, 0
2, 162764, Note_on_c, 0, 31, 0
2, 162789, Note_on_c, 0, 55, 65
2, 162789, Note_on_c, 0, 67, 62
2, 162824, Note_on_c, 0, 67, 0
2, 162824, Note_on_c, 0, 55, 0
2, 162835, Note_on_c, 0, 42, 67
2, 162845, Note_on_c, 0, 30, 66
2, 162870, Note_on_c, 0, 54, 68
2, 162870, Note_on_c, 0, 66, 65
2, 162873, Note_on_c, 0, 42, 0
2, 162882, Note_on_c, 0, 30, 0
2, 162904, Note_on_c, 0, 54, 0
2, 162904, Note_on_c, 0, 66, 0
2, 162917, Note_on_c, 0, 45, 63
2, 162926, Note_on_c, 0, 33, 63
2, 162948, Control_c, 0, 64, 127
2, 162951, Note_on_c, 0, 45, 0
2, 162951, Note_on_c, 0, 57, 66
2, 162964, Note_on_c, 0, 33, 0
2, 162964, Note_on_c, 0, 69, 66
2, 162991, Note_on_c, 0, 31, 68
2, 162994, Note_on_c, 0, 43, 67
2, 163049, Note_on_c, 0, 55, 62
2, 163049, Note_on_c, 0, 67, 66
2, 163093, Note_on_c, 0, 48, 65
2, 163102, Control_c, 0, 64, 0
2, 163102, Note_on_c, 0, 36, 67
2, 163137, Note_on_c, 0, 60, 69
2, 163137, Note_on_c, 0, 72, 68
2, 163178, Note_on_c, 0, 35, 74
2, 163189, Note_on_c, 0, 47, 64
2, 163202, Note_on_c, 0, 36, 0
2, 163202, Note_on_c, 0, 31, 0
2, 163213, Note_on_c, 0, 48, 0
2, 163222, Note_on_c, 0, 59, 64
2, 163222, Note_on_c, 0, 71, 70
2, 163247, Note_on_c, 0, 60, 0
2, 163249, Note_on_c, 0, 57, 0
2, 163249, Note_on_c, 0, 72, 0
2, 163249, Note_on_c, 0, 69, 0
2, 163272, Note_on_c, 0, 40, 63
2, 163272, Note_on_c, 0, 52, 65
2, 163316, Note_on_c, 0, 64, 65
2, 163326, Note_on_c, 0, 76, 66
2, 163348, Control_c, 0, 64, 127
2, 163362, Note_on_c, 0, 39, 66
2, 163370, Note_on_c, 0, 51, 67
2, 163384, Note_on_c, 0, 40, 0
2, 163397, Note_on_c, 0, 52, 0
2, 163419, Note_on_c, 0, 63, 66
2, 163419, Note_on_c, 0, 75, 65
2, 163441, Note_on_c, 0, 64, 0
2, 163444, Note_on_c, 0, 76, 0
2, 163458, Note_on_c, 0, 42, 64
2, 163464, Note_on_c, 0, 54, 63
2, 163488, Note_on_c, 0, 55, 0
2, 163488, Note_on_c, 0, 43, 0
2, 163488, Note_on_c, 0, 66, 68
2, 163497, Note_on_c, 0, 78, 66
2, 163511, Note_on_c, 0, 67, 0
2, 163533, Note_on_c, 0, 40, 65
2, 163541, Note_on_c, 0, 52, 67
2, 163555, Note_on_c, 0, 39, 0
2, 163565, Note_on_c, 0, 51, 0
2, 163579, Note_on_c, 0, 64, 67
2, 163579, Note_on_c, 0, 76, 66
2, 163604, Note_on_c, 0, 63, 0
2, 163604, Note_on_c, 0, 75, 0
2, 163642, Control_c, 0, 64, 0
2, 163645, Note_on_c, 0, 57, 70
2, 163656, Note_on_c, 0, 45, 68
2, 163680, Note_on_c, 0, 81, 64
2, 163689, Note_on_c, 0, 69, 77
2, 163722, Note_on_c, 0, 43, 72
2, 163744, Note_on_c, 0, 42, 0
2, 163744, Note_on_c, 0, 55, 70
2, 163763, Note_on_c, 0, 79, 77
2, 163774, Note_on_c, 0, 54, 0
2, 163774, Note_on_c, 0, 67, 70
2, 163787, Note_on_c, 0, 78, 0
2, 163796, Note_on_c, 0, 66, 0
2, 163818, Note_on_c, 0, 48, 66
2, 163818, Note_on_c, 0, 60, 68
2, 163843, Note_on_c, 0, 59, 0
2, 163843, Note_on_c, 0, 47, 0
2, 163868, Note_on_c, 0, 72, 65
2, 163871, Note_on_c, 0, 84, 65
2, 163879, Note_on_c, 0, 71, 0
2, 163915, Note_on_c, 0, 47, 68
2, 163915, Note_on_c, 0, 59, 64
2, 163928, Note_on_c, 0, 64, 0
2, 163934, Control_c, 0, 64, 127
2, 163937, Note_on_c, 0, 43, 0
2, 163937, Note_on_c, 0, 35, 0
2, 163937, Note_on_c, 0, 48, 0
2, 163937, Note_on_c, 0, 60, 0
2, 163937, Note_on_c, 0, 40, 0
2, 163937, Note_on_c, 0, 52, 0
2, 163937, Note_on_c, 0, 57, 0
2, 163937, Note_on_c, 0, 45, 0
2, 163950, Note_on_c, 0, 71, 64
2, 163967, Note_on_c, 0, 83, 69
2, 163975, Note_on_c, 0, 72, 0
2, 163975, Note_on_c, 0, 69, 0
2, 163992, Note_on_c, 0, 81, 0
2, 163992, Note_on_c, 0, 76, 0
2, 163992, Note_on_c, 0, 84, 0
2, 163997, Note_on_c, 0, 64, 68
2, 164011, Note_on_c, 0, 52, 65
2, 164060, Note_on_c, 0, 76, 64
2, 164073, Note_on_c, 0, 88, 65
2, 164092, Note_on_c, 0, 51, 69
2, 164103, Note_on_c, 0, 63, 68
2, 164116, Note_on_c, 0, 52, 0
2, 164125, Note_on_c, 0, 64, 0
2, 164131, Note_on_c, 0, 75, 63
2, 164144, Control_c, 0, 64, 0
2, 164153, Note_on_c, 0, 76, 0
2, 164153, Note_on_c, 0, 87, 68
2, 164175, Note_on_c, 0, 66, 68
2, 164178, Note_on_c, 0, 88, 0
2, 164184, Note_on_c, 0, 54, 63
2, 164192, Note_on_c, 0, 78, 64
2, 164198, Note_on_c, 0, 67, 0
2, 164198, Note_on_c, 0, 90, 67
2, 164207, Note_on_c, 0, 55, 0
2, 164220, Note_on_c, 0, 79, 0
2, 164242, Note_on_c, 0, 64, 79
2, 164251, Note_on_c, 0, 52, 76
2, 164254, Note_on_c, 0, 54, 0
2, 164264, Note_on_c, 0, 63, 0
2, 164264, Note_on_c, 0, 66, 0
2, 164273, Note_on_c, 0, 51, 0
2, 164281, Note_on_c, 0, 76, 81
2, 164281, Note_on_c, 0, 88, 76
2, 164287, Note_on_c, 0, 78, 0
2, 164290, Note_on_c, 0, 90, 0
2, 164309, Note_on_c, 0, 87, 0
2, 164309, Note_on_c, 0, 75, 0
2, 164318, Note_on_c, 0, 54, 65
2, 164328, Note_on_c, 0, 66, 69
2, 164353, Note_on_c, 0, 78, 67
2, 164353, Note_on_c, 0, 90, 67
2, 164408, Note_on_c, 0, 67, 66
2, 164414, Note_on_c, 0, 55, 70
2, 164424, Note_on_c, 0, 91, 69
2, 164435, Note_on_c, 0, 54, 0
2, 164435, Note_on_c, 0, 79, 67
2, 164438, Note_on_c, 0, 66, 0
2, 164448, Note_on_c, 0, 90, 0
2, 164454, Control_c, 0, 64, 127
2, 164460, Note_on_c, 0, 78, 0
2, 164490, Note_on_c, 0, 64, 0
2, 164490, Note_on_c, 0, 51, 68
2, 164490, Note_on_c, 0, 63, 64
2, 164517, Note_on_c, 0, 52, 0
2, 164517, Note_on_c, 0, 75, 68
2, 164517, Note_on_c, 0, 87, 63
2, 164527, Note_on_c, 0, 76, 0
2, 164527, Note_on_c, 0, 88, 0
2, 164557, Note_on_c, 0, 64, 62
2, 164579, Note_on_c, 0, 52, 63
2, 164582, Note_on_c, 0, 47, 0
2, 164582, Note_on_c, 0, 59, 0
2, 164582, Note_on_c, 0, 63, 0
2, 164592, Note_on_c, 0, 76, 67
2, 164595, Note_on_c, 0, 88, 66
2, 164606, Note_on_c, 0, 51, 0
2, 164606, Note_on_c, 0, 71, 0
2, 164616, Note_on_c, 0, 75, 0
2, 164616, Note_on_c, 0, 83, 0
2, 164616, Note_on_c, 0, 87, 0
2, 164646, Note_on_c, 0, 47, 80
2, 164646, Note_on_c, 0, 59, 80
2, 164657, Control_c, 0, 64, 0
2, 164673, Note_on_c, 0, 71, 63
2, 164682, Note_on_c, 0, 83, 63
2, 164714, Note_on_c, 0, 60, 78
2, 164728, Note_on_c, 0, 48, 76
2, 164736, Note_on_c, 0, 59, 0
2, 164750, Note_on_c, 0, 47, 0
2, 164750, Note_on_c, 0, 84, 74
2, 164760, Note_on_c, 0, 72, 65
2, 164777, Note_on_c, 0, 83, 0
2, 164785, Note_on_c, 0, 71, 0
2, 164805, Note_on_c, 0, 55, 0
2, 164805, Note_on_c, 0, 67, 0
2, 164805, Note_on_c, 0, 66, 65
2, 164815, Note_on_c, 0, 54, 69
2, 164815, Note_on_c, 0, 78, 63
2, 164832, Note_on_c, 0, 90, 62
2, 164834, Note_on_c, 0, 91, 0
2, 164845, Note_on_c, 0, 79, 0
2, 164875, Note_on_c, 0, 55, 65
2, 164875, Note_on_c, 0, 67, 69
2, 164885, Note_on_c, 0, 91, 69
2, 164894, Control_c, 0, 64, 127
2, 164900, Note_on_c, 0, 66, 0
2, 164900, Note_on_c, 0, 54, 0
2, 164913, Note_on_c, 0, 79, 66
2, 164927, Note_on_c, 0, 90, 0
2, 164935, Note_on_c, 0, 78, 0
2, 164954, Note_on_c, 0, 51, 66
2, 164960, Note_on_c, 0, 64, 0
2, 164960, Note_on_c, 0, 63, 64
2, 164969, Note_on_c, 0, 52, 0
2, 164985, Note_on_c, 0, 88, 0
2, 164996, Note_on_c, 0, 75, 65
2, 164996, Note_on_c, 0, 87, 66
2, 164999, Note_on_c, 0, 76, 0
2, 165028, Note_on_c, 0, 64, 64
2, 165039, Note_on_c, 0, 52, 74
2, 165052, Note_on_c, 0, 63, 0
2, 165052, Note_on_c, 0, 88, 69
2, 165063, Note_on_c, 0, 51, 0
2, 165063, Note_on_c, 0, 76, 64
2, 165072, Control_c, 0, 64, 0
2, 165080, Note_on_c, 0, 87, 0
2, 165089, Note_on_c, 0, 75, 0
2, 165108, Note_on_c, 0, 58, 77
2, 165119, Note_on_c, 0, 46, 75
2, 165144, Note_on_c, 0, 70, 78
2, 165144, Note_on_c, 0, 82, 80
2, 165176, Note_on_c, 0, 59, 79
2, 165187, Note_on_c, 0, 47, 79
2, 165187, Note_on_c, 0, 83, 79
2, 165197, Note_on_c, 0, 58, 0
2, 165197, Note_on_c, 0, 60, 0
2, 165197, Note_on_c, 0, 71, 78
2, 165208, Note_on_c, 0, 48, 0
2, 165208, Note_on_c, 0, 46, 0
2, 165224, Note_on_c, 0, 82, 0
2, 165224, Note_on_c, 0, 72, 0
2, 165224, Note_on_c, 0, 84, 0
2, 165224, Note_on_c, 0, 70, 0
2, 165251, Note_on_c, 0, 66, 69
2, 165276, Note_on_c, 0, 55, 0
2, 165276, Note_on_c, 0, 67, 0
2, 165285, Note_on_c, 0, 54, 69
2, 165285, Note_on_c, 0, 78, 68
2, 165288, Note_on_c, 0, 90, 69
2, 165293, Note_on_c, 0, 91, 0
2, 165302, Note_on_c, 0, 79, 0
2, 165343, Note_on_c, 0, 55, 64
2, 165343, Note_on_c, 0, 67, 61
2, 165352, Control_c, 0, 64, 127
2, 165358, Note_on_c, 0, 91, 64
2, 165371, Note_on_c, 0, 54, 0
2, 165371, Note_on_c, 0, 66, 0
2, 165371, Note_on_c, 0, 79, 66
2, 165387, Note_on_c, 0, 90, 0
2, 165396, Note_on_c, 0, 78, 0
2, 165426, Note_on_c, 0, 51, 63
2, 165436, Note_on_c, 0, 64, 0
2, 165442, Note_on_c, 0, 52, 0
2, 165442, Note_on_c, 0, 63, 65
2, 165453, Note_on_c, 0, 75, 65
2, 165453, Note_on_c, 0, 87, 66
2, 165466, Note_on_c, 0, 76, 0
2, 165469, Note_on_c, 0, 88, 0
2, 165513, Note_on_c, 0, 52, 63
2, 165513, Note_on_c, 0, 64, 62
2, 165540, Note_on_c, 0, 51, 0
2, 165540, Note_on_c, 0, 76, 67
2, 165540, Note_on_c, 0, 88, 69
2, 165543, Note_on_c, 0, 63, 0
2, 165565, Note_on_c, 0, 75, 0
2, 165565, Note_on_c, 0, 87, 0
2, 165571, Control_c, 0, 64, 0
2, 165598, Note_on_c, 0, 45, 75
2, 165611, Note_on_c, 0, 57, 80
2, 165633, Note_on_c, 0, 69, 64
2, 165636, Note_on_c, 0, 81, 62
2, 165677, Note_on_c, 0, 46, 78
2, 165677, Note_on_c, 0, 58, 74
2, 165691, Note_on_c, 0, 70, 77
2, 165701, Note_on_c, 0, 57, 0
2, 165701, Note_on_c, 0, 47, 0
2, 165701, Note_on_c, 0, 45, 0
2, 165701, Note_on_c, 0, 59, 0
2, 165704, Note_on_c, 0, 82, 75
2, 165713, Note_on_c, 0, 71, 0
2, 165713, Note_on_c, 0, 69, 0
2, 165726, Note_on_c, 0, 81, 0
2, 165726, Note_on_c, 0, 83, 0
2, 165768, Note_on_c, 0, 67, 0
2, 165768, Note_on_c, 0, 55, 0
2, 165770, Note_on_c, 0, 66, 66
2, 165779, Note_on_c, 0, 54, 67
2, 165782, Note_on_c, 0, 78, 67
2, 165795, Note_on_c, 0, 79, 0
2, 165795, Note_on_c, 0, 90, 62
2, 165798, Note_on_c, 0, 91, 0
2, 165828, Note_on_c, 0, 55, 68
2, 165828, Note_on_c, 0, 67, 65
2, 165837, Control_c, 0, 64, 127
2, 165853, Note_on_c, 0, 79, 67
2, 165853, Note_on_c, 0, 91, 66
2, 165862, Note_on_c, 0, 54, 0
2, 165867, Note_on_c, 0, 66, 0
2, 165892, Note_on_c, 0, 78, 0
2, 165895, Note_on_c, 0, 90, 0
2, 165925, Note_on_c, 0, 51, 61
2, 165928, Note_on_c, 0, 64, 0
2, 165936, Note_on_c, 0, 52, 0
2, 165936, Note_on_c, 0, 63, 64
2, 165953, Note_on_c, 0, 75, 64
2, 165953, Note_on_c, 0, 87, 63
2, 165966, Note_on_c, 0, 76, 0
2, 165969, Note_on_c, 0, 88, 0
2, 165996, Note_on_c, 0, 64, 61
2, 166007, Note_on_c, 0, 46, 0
2, 166007, Note_on_c, 0, 52, 78
2, 166009, Note_on_c, 0, 58, 0
2, 166015, Control_c, 0, 64, 0
2, 166024, Note_on_c, 0, 63, 0
2, 166032, Note_on_c, 0, 51, 0
2, 166032, Note_on_c, 0, 70, 0
2, 166032, Note_on_c, 0, 76, 65
2, 166032, Note_on_c, 0, 88, 64
2, 166049, Note_on_c, 0, 82, 0
2, 166057, Note_on_c, 0, 75, 0
2, 166063, Note_on_c, 0, 91, 0
2, 166063, Note_on_c, 0, 87, 0
2, 166077, Note_on_c, 0, 46, 76
2, 166080, Note_on_c, 0, 58, 75
2, 166106, Note_on_c, 0, 70, 62
2, 166117, Note_on_c, 0, 82, 61
2, 166150, Note_on_c, 0, 47, 80
2, 166150, Note_on_c, 0, 59, 73
2, 166160, Note_on_c, 0, 71, 78
2, 166174, Note_on_c, 0, 70, 0
2, 166174, Note_on_c, 0, 58, 0
2, 166174, Note_on_c, 0, 46, 0
2, 166174, Note_on_c, 0, 83, 80
2, 166206, Note_on_c, 0, 82, 0
2, 166236, Note_on_c, 0, 58, 65
2, 166236, Note_on_c, 0, 70, 63
2, 166239, Note_on_c, 0, 71, 0
2, 166239, Note_on_c, 0, 59, 0
2, 166261, Note_on_c, 0, 83, 0
2, 166270, Note_on_c, 0, 82, 63
2, 166272, Note_on_c, 0, 94, 65
2, 166302, Note_on_c, 0, 59, 68
2, 166305, Note_on_c, 0, 71, 67
2, 166314, Control_c, 0, 64, 127
2, 166317, Note_on_c, 0, 83, 65
2, 166322, Note_on_c, 0, 95, 67
2, 166331, Note_on_c, 0, 58, 0
2, 166331, Note_on_c, 0, 70, 0
2, 166353, Note_on_c, 0, 82, 0
2, 166356, Note_on_c, 0, 94, 0
2, 166386, Note_on_c, 0, 67, 0
2, 166394, Note_on_c, 0, 54, 68
2, 166397, Note_on_c, 0, 55, 0
2, 166397, Note_on_c, 0, 66, 66
2, 166397, Note_on_c, 0, 78, 63
2, 166400, Note_on_c, 0, 90, 63
2, 166422, Note_on_c, 0, 88, 0
2, 166422, Note_on_c, 0, 79, 0
2, 166452, Note_on_c, 0, 67, 64
2, 166463, Note_on_c, 0, 55, 63
2, 166476, Note_on_c, 0, 66, 0
2, 166476, Note_on_c, 0, 91, 61
2, 166485, Note_on_c, 0, 54, 0
2, 166485, Note_on_c, 0, 79, 66
2, 166501, Note_on_c, 0, 90, 0
2, 166504, Note_on_c, 0, 95, 0
2, 166512, Note_on_c, 0, 78, 0
2, 166529, Note_on_c, 0, 51, 75
2, 166532, Note_on_c, 0, 52, 0
2, 166532, Note_on_c, 0, 64, 0
2, 166532, Note_on_c, 0, 63, 77
2, 166559, Note_on_c, 0, 87, 61
2, 166567, Note_on_c, 0, 75, 79
2, 166570, Note_on_c, 0, 76, 0
2, 166603, Note_on_c, 0, 59, 0
2, 166603, Note_on_c, 0, 52, 78
2, 166603, Note_on_c, 0, 64, 75
2, 166625, Note_on_c, 0, 47, 0
2, 166625, Note_on_c, 0, 51, 0
2, 166625, Note_on_c, 0, 88, 75
2, 166628, Note_on_c, 0, 63, 0
2, 166636, Note_on_c, 0, 76, 73
2, 166650, Note_on_c, 0, 71, 0
2, 166653, Note_on_c, 0, 87, 0
2, 166653, Note_on_c, 0, 91, 0
2, 166656, Control_c, 0, 64, 0
2, 166664, Note_on_c, 0, 75, 0
2, 166664, Note_on_c, 0, 83, 0
2, 166670, Note_on_c, 0, 59, 66
2, 166689, Note_on_c, 0, 47, 61
2, 166714, Note_on_c, 0, 71, 65
2, 166730, Note_on_c, 0, 83, 64
2, 166750, Note_on_c, 0, 48, 66
2, 166750, Note_on_c, 0, 60, 65
2, 166772, Note_on_c, 0, 59, 0
2, 166785, Note_on_c, 0, 72, 68
2, 166785, Note_on_c, 0, 84, 61
2, 166807, Note_on_c, 0, 71, 0
2, 166810, Note_on_c, 0, 83, 0
2, 166829, Note_on_c, 0, 58, 66
2, 166840, Note_on_c, 0, 46, 66
2, 166843, Note_on_c, 0, 47, 0
2, 166853, Note_on_c, 0, 70, 68
2, 166853, Note_on_c, 0, 82, 67
2, 166897, Note_on_c, 0, 59, 66
2, 166906, Note_on_c, 0, 47, 64
2, 166922, Note_on_c, 0, 60, 0
2, 166922, Note_on_c, 0, 71, 61
2, 166922, Note_on_c, 0, 83, 61
2, 166928, Note_on_c, 0, 58, 0
2, 166937, Note_on_c, 0, 48, 0
2, 166937, Note_on_c, 0, 46, 0
2, 166950, Note_on_c, 0, 72, 0
2, 166950, Note_on_c, 0, 82, 0
2, 166950, Note_on_c, 0, 84, 0
2, 166950, Note_on_c, 0, 70, 0
2, 166956, Control_c, 0, 64, 127
2, 166981, Note_on_c, 0, 42, 76
2, 166981, Note_on_c, 0, 54, 76
2, 166987, Note_on_c, 0, 55, 0
2, 167012, Note_on_c, 0, 79, 0
2, 167012, Note_on_c, 0, 67, 0
2, 167012, Note_on_c, 0, 66, 66
2, 167012, Note_on_c, 0, 78, 63
2, 167053, Note_on_c, 0, 43, 78
2, 167056, Note_on_c, 0, 55, 72
2, 167078, Note_on_c, 0, 54, 0
2, 167078, Note_on_c, 0, 42, 0
2, 167078, Note_on_c, 0, 67, 73
2, 167078, Note_on_c, 0, 79, 74
2, 167103, Note_on_c, 0, 66, 0
2, 167106, Note_on_c, 0, 78, 0
2, 167136, Note_on_c, 0, 39, 63
2, 167136, Note_on_c, 0, 51, 65
2, 167138, Note_on_c, 0, 52, 0
2, 167152, Note_on_c, 0, 64, 0
2, 167160, Note_on_c, 0, 76, 0
2, 167160, Note_on_c, 0, 63, 63
2, 167160, Note_on_c, 0, 75, 64
2, 167202, Note_on_c, 0, 40, 63
2, 167202, Note_on_c, 0, 52, 65
2, 167215, Note_on_c, 0, 47, 0
2, 167215, Note_on_c, 0, 64, 65
2, 167226, Note_on_c, 0, 39, 0
2, 167226, Note_on_c, 0, 51, 0
2, 167226, Note_on_c, 0, 76, 60
2, 167239, Note_on_c, 0, 71, 0
2, 167239, Note_on_c, 0, 59, 0
2, 167239, Note_on_c, 0, 63, 0
2, 167250, Note_on_c, 0, 75, 0
2, 167258, Control_c, 0, 64, 0
2, 167280, Note_on_c, 0, 35, 62
2, 167280, Note_on_c, 0, 47, 65
2, 167305, Note_on_c, 0, 59, 66
2, 167308, Note_on_c, 0, 71, 66
2, 167350, Note_on_c, 0, 48, 65
2, 167375, Note_on_c, 0, 47, 0
2, 167375, Note_on_c, 0, 60, 62
2, 167380, Note_on_c, 0, 36, 63
2, 167383, Note_on_c, 0, 72, 64
2, 167400, Note_on_c, 0, 59, 0
2, 167410, Note_on_c, 0, 35, 0
2, 167413, Note_on_c, 0, 71, 0
2, 167429, Note_on_c, 0, 34, 64
2, 167429, Note_on_c, 0, 46, 61
2, 167443, Note_on_c, 0, 58, 68
2, 167443, Note_on_c, 0, 70, 65
2, 167495, Note_on_c, 0, 59, 79
2, 167495, Note_on_c, 0, 71, 76
2, 167505, Note_on_c, 0, 47, 81
2, 167508, Note_on_c, 0, 35, 75
2, 167521, Note_on_c, 0, 70, 0
2, 167521, Note_on_c, 0, 58, 0
2, 167521, Note_on_c, 0, 60, 0
2, 167521, Note_on_c, 0, 79, 0
2, 167521, Note_on_c, 0, 72, 0
2, 167521, Note_on_c, 0, 55, 0
2, 167521, Note_on_c, 0, 67, 0
2, 167521, Note_on_c, 0, 52, 0
2, 167521, Note_on_c, 0, 83, 0
2, 167521, Note_on_c, 0, 64, 0
2, 167524, Note_on_c, 0, 76, 0
2, 167524, Note_on_c, 0, 88, 0
2, 167533, Note_on_c, 0, 46, 0
2, 167533, Note_on_c, 0, 43, 0
2, 167533, Note_on_c, 0, 40, 0
2, 167533, Note_on_c, 0, 36, 0
2, 167533, Note_on_c, 0, 34, 0
2, 167533, Note_on_c, 0, 48, 0
2, 167555, Control_c, 0, 64, 127
2, 167654, Note_on_c, 0, 71, 0
2, 167663, Note_on_c, 0, 59, 0
2, 167663, Note_on_c, 0, 47, 0
2, 167723, Control_c, 0, 64, 0
2, 167723, Note_on_c, 0, 71, 74
2, 167734, Note_on_c, 0, 47, 76
2, 167736, Note_on_c, 0, 59, 78
2, 167736, Note_on_c, 0, 69, 71
2, 167739, Note_on_c, 0, 75, 77
2, 167745, Note_on_c, 0, 51, 71
2, 167751, Note_on_c, 0, 54, 71
2, 167751, Note_on_c, 0, 66, 72
2, 167808, Note_on_c, 0, 66, 0
2, 167808, Note_on_c, 0, 59, 0
2, 167808, Note_on_c, 0, 35, 0
2, 167808, Note_on_c, 0, 69, 0
2, 167808, Note_on_c, 0, 71, 0
2, 167808, Note_on_c, 0, 47, 0
2, 167808, Note_on_c, 0, 51, 0
2, 167808, Note_on_c, 0, 75, 0
2, 167808, Note_on_c, 0, 54, 0
2, 167937, Note_on_c, 0, 59, 78
2, 167937, Note_on_c, 0, 64, 77
2, 167948, Note_on_c, 0, 52, 74
2, 167948, Note_on_c, 0, 55, 79
2, 167948, Note_on_c, 0, 67, 73
2, 167951, Note_on_c, 0, 71, 72
2, 167961, Note_on_c, 0, 76, 79
2, 167972, Control_c, 0, 64, 127
2, 168056, Note_on_c, 0, 59, 0
2, 168070, Note_on_c, 0, 71, 0
2, 168124, Note_on_c, 0, 59, 78
2, 168127, Note_on_c, 0, 54, 73
2, 168127, Note_on_c, 0, 75, 72
2, 168127, Note_on_c, 0, 78, 72
2, 168136, Note_on_c, 0, 47, 77
2, 168136, Note_on_c, 0, 71, 74
2, 168142, Note_on_c, 0, 51, 74
2, 168142, Note_on_c, 0, 69, 73
2, 168150, Control_c, 0, 64, 0
2, 168153, Note_on_c, 0, 55, 0
2, 168153, Note_on_c, 0, 76, 0
2, 168164, Note_on_c, 0, 52, 0
2, 168240, Note_on_c, 0, 67, 0
2, 168240, Note_on_c, 0, 78, 0
2, 168240, Note_on_c, 0, 64, 0
2, 168240, Note_on_c, 0, 75, 0
2, 168240, Note_on_c, 0, 71, 0
2, 168240, Note_on_c, 0, 69, 0
2, 168251, Note_on_c, 0, 59, 0
2, 168251, Note_on_c, 0, 47, 0
2, 168251, Note_on_c, 0, 51, 0
2, 168254, Note_on_c, 0, 54, 0
2, 168309, Note_on_c, 0, 71, 73
2, 168317, Note_on_c, 0, 40, 74
2, 168317, Note_on_c, 0, 43, 72
2, 168317, Note_on_c, 0, 47, 77
2, 168317, Note_on_c, 0, 52, 71
2, 168317, Note_on_c, 0, 67, 77
2, 168317, Note_on_c, 0, 76, 78
2, 168317, Note_on_c, 0, 79, 71
2, 168397, Control_c, 0, 64, 127
2, 168443, Note_on_c, 0, 47, 0
2, 168473, Note_on_c, 0, 35, 72
2, 168473, Note_on_c, 0, 78, 71
2, 168473, Note_on_c, 0, 81, 72
2, 168483, Note_on_c, 0, 47, 73
2, 168486, Note_on_c, 0, 83, 78
2, 168486, Note_on_c, 0, 87, 75
2, 168500, Note_on_c, 0, 79, 0
2, 168508, Control_c, 0, 64, 0
2, 168563, Note_on_c, 0, 47, 0
2, 168563, Note_on_c, 0, 40, 0
2, 168563, Note_on_c, 0, 78, 0
2, 168563, Note_on_c, 0, 43, 0
2, 168563, Note_on_c, 0, 71, 0
2, 168563, Note_on_c, 0, 35, 0
2, 168563, Note_on_c, 0, 67, 0
2, 168563, Note_on_c, 0, 76, 0
2, 168563, Note_on_c, 0, 81, 0
2, 168563, Note_on_c, 0, 52, 0
2, 168563, Note_on_c, 0, 83, 0
2, 168566, Note_on_c, 0, 87, 0
2, 168624, Note_on_c, 0, 79, 81
2, 168624, Note_on_c, 0, 83, 83
2, 168624, Note_on_c, 0, 88, 80
2, 168632, Note_on_c, 0, 47, 82
2, 168632, Note_on_c, 0, 52, 82
2, 168641, Note_on_c, 0, 40, 82
2, 168641, Note_on_c, 0, 43, 83
2, 168792, Control_c, 0, 64, 127
2, 168873, Note_on_c, 0, 52, 0
2, 168873, Note_on_c, 0, 83, 0
2, 168873, Note_on_c, 0, 79, 0
2, 168876, Note_on_c, 0, 88, 0
2, 168906, Control_c, 0, 64, 0
2, 168941, Note_on_c, 0, 52, 64
2, 168941, Note_on_c, 0, 59, 59
2, 168941, Note_on_c, 0, 64, 58
2, 168944, Note_on_c, 0, 79, 62
2, 168944, Note_on_c, 0, 83, 58
2, 168944, Note_on_c, 0, 88, 64
2, 168944, Note_on_c, 0, 91, 61
2, 168966, Note_on_c, 0, 64, 0
2, 168966, Note_on_c, 0, 59, 0
2, 168969, Note_on_c, 0, 52, 0
2, 168969, Note_on_c, 0, 91, 0
2, 168969, Note_on_c, 0, 83, 0
2, 168969, Note_on_c, 0, 88, 0
2, 168969, Note_on_c, 0, 79, 0
2, 169002, Note_on_c, 0, 52, 78
2, 169002, Note_on_c, 0, 64, 80
2, 169002, Note_on_c, 0, 79, 75
2, 169002, Note_on_c, 0, 83, 74
2, 169002, Note_on_c, 0, 88, 78
2, 169002, Note_on_c, 0, 91, 76
2, 169015, Note_on_c, 0, 59, 77
2, 169196, Control_c, 0, 64, 127
2, 169302, Note_on_c, 0, 59, 0
2, 169302, Note_on_c, 0, 40, 0
2, 169302, Note_on_c, 0, 52, 0
2, 169302, Note_on_c, 0, 43, 0
2, 169302, Note_on_c, 0, 64, 0
2, 169302, Note_on_c, 0, 47, 0
2, 169302, Note_on_c, 0, 88, 0
2, 169302, Note_on_c, 0, 83, 0
2, 169302, Note_on_c, 0, 79, 0
2, 169302, Note_on_c, 0, 91, 0
2, 169316, Control_c, 0, 64, 0
2, 169431, Note_on_c, 0, 55, 59
2, 169431, Note_on_c, 0, 59, 61
2, 169431, Note_on_c, 0, 64, 61
2, 169444, Note_on_c, 0, 40, 59
2, 169444, Note_on_c, 0, 52, 59
2, 169469, Note_on_c, 0, 64, 0
2, 169469, Note_on_c, 0, 55, 0
2, 169469, Note_on_c, 0, 59, 0
2, 169480, Note_on_c, 0, 40, 0
2, 169480, Note_on_c, 0, 52, 0
2, 169524, Note_on_c, 0, 55, 75
2, 169524, Note_on_c, 0, 64, 80
2, 169527, Note_on_c, 0, 59, 81
2, 169536, Note_on_c, 0, 40, 81
2, 169536, Note_on_c, 0, 52, 76
2, 170867, Note_on_c, 0, 52, 0
2, 170867, Note_on_c, 0, 55, 0
2, 170867, Note_on_c, 0, 59, 0
2, 170867, Note_on_c, 0, 64, 0
2, 170870, Note_on_c, 0, 40, 0
2, 170870, End_track
3, 0, Start_track
3, 0, Title_t, "c/b Mendelssohn"
3, 0, End_track
4, 0, Start_track
4, 0, Title_t, "p/b Clarence Adler"
4, 0, End_track
5, 0, Start_track
5, 0, Title_t, "Ampico # 55545"
5, 0, End_track
6, 0, Start_track
6, 0, Title_t, "Scan of a player piano roll"
6, 0, End_track
7, 0, Start_track
7, 0, Title_t, "by Terry Smythe, Winnipeg, Canada"
7, 0, End_track
0, 0, End_of_file
