0, 0, Header, 1, 7, 192
1, 0, Start_track
1, 0, Title_t, "61851A"
1, 0, Text_t, "Roll expression/accent tracks, where present, converted to MIDI velocties.\012"
1, 0, Time_signature, 4, 2, 24, 8
1, 0, Key_signature, 0, "major"
1, 0, Tempo, 500000
1, 0, Marker_t, "Standard MIDI:LPI 116:Tempo  85: 08-02-2003"
1, 0, End_track
2, 0, Start_track
2, 0, Title_t, "Songs Without Words (Spring Song) (1923)"
2, 0, Control_c, 0, 7, 115
2, 3, Control_c, 0, 67, 127
2, 202, Note_on_c, 0, 33, 46
2, 210, Note_on_c, 0, 45, 45
2, 216, Control_c, 0, 64, 127
2, 268, Note_on_c, 0, 73, 63
2, 433, Control_c, 0, 64, 0
2, 449, Note_on_c, 0, 45, 0
2, 449, Note_on_c, 0, 33, 0
2, 480, Note_on_c, 0, 61, 53
2, 485, Note_on_c, 0, 64, 47
2, 503, Note_on_c, 0, 64, 0
2, 503, Note_on_c, 0, 61, 0
2, 503, Note_on_c, 0, 69, 52
2, 520, Note_on_c, 0, 69, 0
2, 650, Note_on_c, 0, 52, 50
2, 664, Note_on_c, 0, 57, 53
2, 666, Note_on_c, 0, 52, 0
2, 683, Note_on_c, 0, 61, 49
2, 691, Note_on_c, 0, 57, 0
2, 698, Note_on_c, 0, 64, 53
2, 706, Note_on_c, 0, 61, 0
2, 716, Note_on_c, 0, 64, 0
2, 780, Note_on_c, 0, 74, 55
2, 782, Control_c, 0, 64, 127
2, 788, Note_on_c, 0, 73, 0
2, 860, Control_c, 0, 64, 0
2, 862, Note_on_c, 0, 75, 65
2, 887, Note_on_c, 0, 74, 0
2, 953, Note_on_c, 0, 76, 64
2, 974, Note_on_c, 0, 75, 0
2, 1005, Note_on_c, 0, 76, 0
2, 1008, Note_on_c, 0, 37, 46
2, 1008, Note_on_c, 0, 49, 47
2, 1020, Note_on_c, 0, 81, 68
2, 1037, Control_c, 0, 64, 127
2, 1105, Control_c, 0, 64, 0
2, 1136, Note_on_c, 0, 37, 0
2, 1159, Note_on_c, 0, 49, 0
2, 1167, Note_on_c, 0, 69, 53
2, 1190, Note_on_c, 0, 73, 51
2, 1192, Note_on_c, 0, 69, 0
2, 1207, Note_on_c, 0, 76, 72
2, 1215, Note_on_c, 0, 73, 0
2, 1258, Control_c, 0, 64, 127
2, 1270, Note_on_c, 0, 81, 0
2, 1311, Control_c, 0, 64, 0
2, 1328, Note_on_c, 0, 57, 54
2, 1344, Note_on_c, 0, 61, 48
2, 1345, Note_on_c, 0, 57, 0
2, 1361, Note_on_c, 0, 61, 0
2, 1361, Note_on_c, 0, 64, 54
2, 1368, Note_on_c, 0, 74, 64
2, 1376, Note_on_c, 0, 64, 0
2, 1376, Note_on_c, 0, 69, 45
2, 1393, Note_on_c, 0, 69, 0
2, 1440, Note_on_c, 0, 76, 0
2, 1544, Note_on_c, 0, 73, 65
2, 1608, Control_c, 0, 64, 127
2, 1622, Note_on_c, 0, 74, 0
2, 1659, Control_c, 0, 64, 0
2, 1680, Note_on_c, 0, 38, 41
2, 1688, Note_on_c, 0, 50, 43
2, 1705, Note_on_c, 0, 71, 62
2, 1707, Note_on_c, 0, 73, 0
2, 1826, Note_on_c, 0, 38, 0
2, 1828, Note_on_c, 0, 50, 0
2, 1836, Note_on_c, 0, 59, 50
2, 1846, Note_on_c, 0, 62, 49
2, 1851, Note_on_c, 0, 59, 0
2, 1861, Note_on_c, 0, 62, 0
2, 1861, Note_on_c, 0, 66, 58
2, 1874, Note_on_c, 0, 66, 0
2, 1982, Note_on_c, 0, 50, 50
2, 1995, Note_on_c, 0, 50, 0
2, 1997, Note_on_c, 0, 54, 55
2, 2011, Note_on_c, 0, 59, 58
2, 2013, Note_on_c, 0, 54, 0
2, 2026, Note_on_c, 0, 59, 0
2, 2026, Note_on_c, 0, 62, 42
2, 2041, Note_on_c, 0, 62, 0
2, 2136, Control_c, 0, 64, 127
2, 2180, Note_on_c, 0, 74, 62
2, 2289, Note_on_c, 0, 71, 0
2, 2293, Note_on_c, 0, 35, 43
2, 2293, Note_on_c, 0, 47, 47
2, 2352, Note_on_c, 0, 78, 68
2, 2365, Control_c, 0, 64, 0
2, 2396, Note_on_c, 0, 74, 0
2, 2447, Note_on_c, 0, 35, 0
2, 2447, Note_on_c, 0, 47, 0
2, 2462, Note_on_c, 0, 66, 52
2, 2477, Note_on_c, 0, 66, 0
2, 2477, Note_on_c, 0, 71, 47
2, 2491, Note_on_c, 0, 71, 0
2, 2491, Note_on_c, 0, 74, 52
2, 2508, Note_on_c, 0, 74, 0
2, 2619, Note_on_c, 0, 59, 53
2, 2629, Note_on_c, 0, 62, 47
2, 2635, Note_on_c, 0, 66, 57
2, 2637, Note_on_c, 0, 59, 0
2, 2644, Note_on_c, 0, 62, 0
2, 2650, Note_on_c, 0, 71, 58
2, 2660, Note_on_c, 0, 66, 0
2, 2673, Note_on_c, 0, 71, 0
2, 2768, Control_c, 0, 64, 127
2, 2827, Note_on_c, 0, 74, 62
2, 2859, Note_on_c, 0, 78, 0
2, 2914, Control_c, 0, 64, 0
2, 2965, Note_on_c, 0, 74, 0
2, 2971, Note_on_c, 0, 32, 43
2, 2971, Note_on_c, 0, 44, 41
2, 2973, Note_on_c, 0, 71, 60
2, 3086, Note_on_c, 0, 44, 0
2, 3086, Note_on_c, 0, 32, 0
2, 3099, Note_on_c, 0, 62, 50
2, 3115, Note_on_c, 0, 64, 49
2, 3117, Note_on_c, 0, 62, 0
2, 3132, Note_on_c, 0, 64, 0
2, 3132, Note_on_c, 0, 68, 56
2, 3149, Note_on_c, 0, 68, 0
2, 3240, Note_on_c, 0, 52, 52
2, 3256, Note_on_c, 0, 52, 0
2, 3256, Note_on_c, 0, 59, 48
2, 3271, Note_on_c, 0, 59, 0
2, 3271, Note_on_c, 0, 62, 52
2, 3277, Note_on_c, 0, 64, 51
2, 3285, Note_on_c, 0, 62, 0
2, 3292, Note_on_c, 0, 64, 0
2, 3345, Note_on_c, 0, 70, 59
2, 3370, Note_on_c, 0, 71, 0
2, 3397, Control_c, 0, 64, 127
2, 3424, Note_on_c, 0, 71, 59
2, 3445, Control_c, 0, 64, 0
2, 3494, Note_on_c, 0, 70, 0
2, 3494, Note_on_c, 0, 72, 54
2, 3549, Note_on_c, 0, 71, 0
2, 3554, Note_on_c, 0, 72, 0
2, 3558, Note_on_c, 0, 33, 42
2, 3558, Note_on_c, 0, 45, 42
2, 3562, Note_on_c, 0, 73, 62
2, 3589, Control_c, 0, 64, 127
2, 3657, Note_on_c, 0, 73, 0
2, 3671, Note_on_c, 0, 64, 42
2, 3694, Note_on_c, 0, 33, 0
2, 3696, Note_on_c, 0, 64, 0
2, 3696, Note_on_c, 0, 45, 0
2, 3696, Note_on_c, 0, 69, 48
2, 3701, Control_c, 0, 64, 0
2, 3713, Note_on_c, 0, 73, 42
2, 3720, Note_on_c, 0, 69, 0
2, 3738, Note_on_c, 0, 73, 0
2, 3753, Note_on_c, 0, 76, 63
2, 3870, Note_on_c, 0, 57, 55
2, 3886, Note_on_c, 0, 61, 54
2, 3888, Note_on_c, 0, 57, 0
2, 3901, Note_on_c, 0, 64, 60
2, 3903, Note_on_c, 0, 61, 0
2, 3911, Note_on_c, 0, 74, 59
2, 3918, Note_on_c, 0, 64, 0
2, 3926, Note_on_c, 0, 69, 44
2, 3941, Note_on_c, 0, 69, 0
2, 3990, Note_on_c, 0, 76, 0
2, 4002, Control_c, 0, 64, 127
2, 4060, Note_on_c, 0, 73, 60
2, 4066, Control_c, 0, 64, 0
2, 4132, Note_on_c, 0, 74, 0
2, 4163, Note_on_c, 0, 42, 41
2, 4178, Note_on_c, 0, 54, 45
2, 4186, Note_on_c, 0, 42, 0
2, 4205, Note_on_c, 0, 71, 72
2, 4213, Note_on_c, 0, 54, 0
2, 4230, Note_on_c, 0, 73, 0
2, 4232, Control_c, 0, 64, 127
2, 4272, Control_c, 0, 64, 0
2, 4336, Note_on_c, 0, 59, 55
2, 4351, Note_on_c, 0, 63, 59
2, 4351, Note_on_c, 0, 66, 47
2, 4353, Note_on_c, 0, 59, 0
2, 4368, Note_on_c, 0, 66, 0
2, 4368, Note_on_c, 0, 63, 0
2, 4374, Note_on_c, 0, 69, 65
2, 4458, Note_on_c, 0, 71, 0
2, 4495, Note_on_c, 0, 54, 49
2, 4512, Note_on_c, 0, 54, 0
2, 4512, Note_on_c, 0, 57, 49
2, 4526, Note_on_c, 0, 57, 0
2, 4526, Note_on_c, 0, 59, 50
2, 4536, Note_on_c, 0, 63, 49
2, 4536, Note_on_c, 0, 68, 61
2, 4551, Note_on_c, 0, 63, 0
2, 4551, Note_on_c, 0, 59, 0
2, 4590, Note_on_c, 0, 69, 0
2, 4600, Control_c, 0, 64, 127
2, 4649, Control_c, 0, 64, 0
2, 4704, Note_on_c, 0, 69, 65
2, 4781, Note_on_c, 0, 68, 0
2, 4842, Note_on_c, 0, 40, 47
2, 4849, Note_on_c, 0, 52, 48
2, 4874, Note_on_c, 0, 69, 0
2, 4882, Note_on_c, 0, 73, 57
2, 4931, Control_c, 0, 64, 127
2, 5007, Control_c, 0, 64, 0
2, 5064, Note_on_c, 0, 61, 47
2, 5081, Note_on_c, 0, 61, 0
2, 5081, Note_on_c, 0, 64, 50
2, 5087, Note_on_c, 0, 40, 0
2, 5087, Note_on_c, 0, 52, 0
2, 5094, Note_on_c, 0, 64, 0
2, 5094, Note_on_c, 0, 69, 51
2, 5119, Note_on_c, 0, 69, 0
2, 5277, Note_on_c, 0, 59, 42
2, 5286, Note_on_c, 0, 62, 44
2, 5302, Note_on_c, 0, 59, 0
2, 5302, Note_on_c, 0, 64, 48
2, 5311, Note_on_c, 0, 62, 0
2, 5325, Note_on_c, 0, 64, 0
2, 5325, Note_on_c, 0, 68, 49
2, 5340, Note_on_c, 0, 68, 0
2, 5340, Note_on_c, 0, 71, 54
2, 5387, Note_on_c, 0, 73, 0
2, 5561, Note_on_c, 0, 71, 0
2, 5604, Note_on_c, 0, 64, 59
2, 5664, Control_c, 0, 64, 127
2, 5770, Note_on_c, 0, 33, 47
2, 5774, Note_on_c, 0, 45, 46
2, 5807, Note_on_c, 0, 64, 0
2, 5814, Note_on_c, 0, 73, 60
2, 5935, Control_c, 0, 64, 0
2, 5951, Note_on_c, 0, 33, 0
2, 5952, Note_on_c, 0, 45, 0
2, 5974, Note_on_c, 0, 61, 50
2, 5985, Note_on_c, 0, 64, 52
2, 5993, Note_on_c, 0, 61, 0
2, 6000, Note_on_c, 0, 69, 50
2, 6002, Note_on_c, 0, 64, 0
2, 6016, Note_on_c, 0, 69, 0
2, 6125, Note_on_c, 0, 52, 51
2, 6141, Note_on_c, 0, 52, 0
2, 6141, Note_on_c, 0, 57, 51
2, 6156, Note_on_c, 0, 61, 48
2, 6158, Note_on_c, 0, 57, 0
2, 6164, Note_on_c, 0, 64, 50
2, 6171, Note_on_c, 0, 61, 0
2, 6187, Note_on_c, 0, 64, 0
2, 6226, Note_on_c, 0, 74, 55
2, 6245, Note_on_c, 0, 73, 0
2, 6247, Control_c, 0, 64, 127
2, 6306, Note_on_c, 0, 75, 61
2, 6364, Control_c, 0, 64, 0
2, 6382, Note_on_c, 0, 74, 0
2, 6382, Note_on_c, 0, 76, 63
2, 6399, Note_on_c, 0, 75, 0
2, 6432, Note_on_c, 0, 37, 45
2, 6441, Note_on_c, 0, 49, 43
2, 6443, Note_on_c, 0, 81, 66
2, 6445, Note_on_c, 0, 76, 0
2, 6604, Note_on_c, 0, 37, 0
2, 6612, Note_on_c, 0, 49, 0
2, 6612, Note_on_c, 0, 64, 46
2, 6618, Note_on_c, 0, 69, 51
2, 6627, Note_on_c, 0, 73, 53
2, 6629, Note_on_c, 0, 64, 0
2, 6635, Note_on_c, 0, 69, 0
2, 6643, Note_on_c, 0, 73, 0
2, 6648, Note_on_c, 0, 76, 54
2, 6690, Note_on_c, 0, 81, 0
2, 6722, Note_on_c, 0, 57, 41
2, 6738, Note_on_c, 0, 61, 47
2, 6745, Note_on_c, 0, 57, 0
2, 6753, Note_on_c, 0, 64, 44
2, 6768, Note_on_c, 0, 61, 0
2, 6768, Note_on_c, 0, 69, 41
2, 6778, Note_on_c, 0, 64, 0
2, 6792, Note_on_c, 0, 74, 65
2, 6793, Note_on_c, 0, 69, 0
2, 6801, Control_c, 0, 64, 127
2, 6824, Note_on_c, 0, 76, 0
2, 6930, Control_c, 0, 64, 0
2, 6953, Note_on_c, 0, 73, 69
2, 6978, Note_on_c, 0, 74, 0
2, 7081, Note_on_c, 0, 38, 44
2, 7091, Note_on_c, 0, 50, 46
2, 7101, Note_on_c, 0, 71, 71
2, 7104, Control_c, 0, 64, 127
2, 7126, Note_on_c, 0, 73, 0
2, 7182, Control_c, 0, 64, 0
2, 7200, Note_on_c, 0, 38, 0
2, 7201, Note_on_c, 0, 50, 0
2, 7215, Note_on_c, 0, 59, 47
2, 7232, Note_on_c, 0, 59, 0
2, 7240, Note_on_c, 0, 62, 52
2, 7255, Note_on_c, 0, 62, 0
2, 7261, Note_on_c, 0, 66, 56
2, 7274, Note_on_c, 0, 66, 0
2, 7362, Note_on_c, 0, 50, 55
2, 7377, Note_on_c, 0, 50, 0
2, 7377, Note_on_c, 0, 54, 59
2, 7392, Note_on_c, 0, 54, 0
2, 7396, Note_on_c, 0, 59, 56
2, 7404, Note_on_c, 0, 62, 58
2, 7412, Note_on_c, 0, 59, 0
2, 7419, Note_on_c, 0, 62, 0
2, 7514, Note_on_c, 0, 74, 68
2, 7588, Note_on_c, 0, 34, 48
2, 7630, Note_on_c, 0, 46, 53
2, 7665, Note_on_c, 0, 74, 0
2, 7665, Note_on_c, 0, 71, 0
2, 7673, Note_on_c, 0, 78, 65
2, 7690, Control_c, 0, 64, 127
2, 7817, Control_c, 0, 64, 0
2, 7832, Note_on_c, 0, 66, 42
2, 7842, Note_on_c, 0, 70, 41
2, 7857, Note_on_c, 0, 73, 44
2, 7872, Note_on_c, 0, 70, 0
2, 7872, Note_on_c, 0, 66, 0
2, 7878, Note_on_c, 0, 34, 0
2, 7878, Note_on_c, 0, 46, 0
2, 7888, Note_on_c, 0, 73, 0
2, 7964, Note_on_c, 0, 54, 50
2, 7979, Note_on_c, 0, 54, 0
2, 7979, Note_on_c, 0, 61, 49
2, 7987, Note_on_c, 0, 64, 51
2, 7994, Note_on_c, 0, 61, 0
2, 8002, Note_on_c, 0, 66, 51
2, 8004, Note_on_c, 0, 64, 0
2, 8021, Note_on_c, 0, 66, 0
2, 8129, Note_on_c, 0, 76, 73
2, 8161, Note_on_c, 0, 78, 0
2, 8212, Note_on_c, 0, 35, 45
2, 8245, Note_on_c, 0, 47, 47
2, 8304, Note_on_c, 0, 76, 0
2, 8311, Note_on_c, 0, 75, 72
2, 8360, Control_c, 0, 64, 127
2, 8434, Note_on_c, 0, 62, 52
2, 8449, Note_on_c, 0, 66, 44
2, 8465, Note_on_c, 0, 71, 42
2, 8471, Control_c, 0, 64, 0
2, 8497, Note_on_c, 0, 74, 60
2, 8537, Note_on_c, 0, 75, 0
2, 8584, Note_on_c, 0, 66, 0
2, 8584, Note_on_c, 0, 62, 0
2, 8586, Note_on_c, 0, 71, 0
2, 8599, Note_on_c, 0, 35, 0
2, 8599, Note_on_c, 0, 47, 0
2, 8626, Note_on_c, 0, 54, 49
2, 8636, Note_on_c, 0, 59, 54
2, 8636, Note_on_c, 0, 73, 65
2, 8643, Note_on_c, 0, 54, 0
2, 8645, Note_on_c, 0, 62, 54
2, 8651, Note_on_c, 0, 59, 0
2, 8659, Note_on_c, 0, 62, 0
2, 8661, Note_on_c, 0, 74, 0
2, 8664, Note_on_c, 0, 66, 48
2, 8682, Note_on_c, 0, 66, 0
2, 8773, Note_on_c, 0, 71, 58
2, 8816, Note_on_c, 0, 73, 0
2, 8867, Note_on_c, 0, 40, 41
2, 8875, Note_on_c, 0, 52, 42
2, 8907, Note_on_c, 0, 69, 54
2, 8932, Note_on_c, 0, 71, 0
2, 8932, Control_c, 0, 64, 127
2, 8957, Note_on_c, 0, 40, 0
2, 8959, Note_on_c, 0, 52, 0
2, 9000, Control_c, 0, 64, 0
2, 9036, Note_on_c, 0, 59, 49
2, 9049, Note_on_c, 0, 59, 0
2, 9051, Note_on_c, 0, 62, 53
2, 9067, Note_on_c, 0, 62, 0
2, 9067, Note_on_c, 0, 64, 48
2, 9082, Note_on_c, 0, 64, 0
2, 9090, Note_on_c, 0, 68, 49
2, 9168, Note_on_c, 0, 69, 0
2, 9220, Control_c, 0, 64, 127
2, 9247, Note_on_c, 0, 52, 47
2, 9270, Control_c, 0, 64, 0
2, 9272, Note_on_c, 0, 56, 42
2, 9297, Note_on_c, 0, 52, 0
2, 9316, Note_on_c, 0, 62, 42
2, 9318, Note_on_c, 0, 56, 0
2, 9326, Note_on_c, 0, 64, 45
2, 9326, Note_on_c, 0, 73, 49
2, 9334, Note_on_c, 0, 62, 0
2, 9343, Note_on_c, 0, 64, 0
2, 9349, Note_on_c, 0, 68, 0
2, 9483, Control_c, 0, 64, 127
2, 9573, Note_on_c, 0, 71, 48
2, 9622, Note_on_c, 0, 73, 0
2, 9692, Note_on_c, 0, 71, 0
2, 9731, Control_c, 0, 64, 0
2, 9733, Note_on_c, 0, 45, 47
2, 9743, Note_on_c, 0, 71, 49
2, 9746, Note_on_c, 0, 33, 43
2, 9860, Note_on_c, 0, 33, 0
2, 9862, Note_on_c, 0, 45, 0
2, 9862, Note_on_c, 0, 62, 41
2, 9885, Note_on_c, 0, 62, 0
2, 9885, Note_on_c, 0, 64, 47
2, 9898, Note_on_c, 0, 68, 49
2, 9906, Note_on_c, 0, 64, 0
2, 9915, Note_on_c, 0, 68, 0
2, 10095, Note_on_c, 0, 52, 47
2, 10110, Note_on_c, 0, 57, 46
2, 10110, Note_on_c, 0, 61, 44
2, 10118, Note_on_c, 0, 52, 0
2, 10126, Note_on_c, 0, 64, 44
2, 10126, Note_on_c, 0, 69, 49
2, 10131, Note_on_c, 0, 57, 0
2, 10133, Note_on_c, 0, 61, 0
2, 10147, Note_on_c, 0, 64, 0
2, 10147, Note_on_c, 0, 71, 0
2, 10188, Control_c, 0, 64, 127
2, 10366, Note_on_c, 0, 64, 57
2, 10381, Note_on_c, 0, 69, 0
2, 10504, Note_on_c, 0, 37, 43
2, 10523, Note_on_c, 0, 49, 49
2, 10580, Note_on_c, 0, 76, 59
2, 10659, Note_on_c, 0, 64, 0
2, 10686, Control_c, 0, 64, 0
2, 10702, Note_on_c, 0, 37, 0
2, 10702, Note_on_c, 0, 49, 0
2, 10719, Note_on_c, 0, 64, 54
2, 10736, Note_on_c, 0, 64, 0
2, 10744, Note_on_c, 0, 69, 42
2, 10757, Note_on_c, 0, 73, 47
2, 10759, Note_on_c, 0, 69, 0
2, 10776, Note_on_c, 0, 73, 0
2, 10884, Note_on_c, 0, 57, 53
2, 10896, Note_on_c, 0, 57, 0
2, 10897, Note_on_c, 0, 61, 50
2, 10913, Note_on_c, 0, 61, 0
2, 10913, Note_on_c, 0, 64, 51
2, 10930, Note_on_c, 0, 64, 0
2, 10936, Note_on_c, 0, 69, 51
2, 10951, Note_on_c, 0, 69, 0
2, 11068, Note_on_c, 0, 75, 59
2, 11174, Note_on_c, 0, 76, 0
2, 11180, Note_on_c, 0, 74, 59
2, 11250, Note_on_c, 0, 75, 0
2, 11250, Note_on_c, 0, 73, 64
2, 11291, Note_on_c, 0, 74, 0
2, 11303, Note_on_c, 0, 38, 48
2, 11312, Note_on_c, 0, 73, 0
2, 11318, Note_on_c, 0, 71, 68
2, 11324, Note_on_c, 0, 50, 44
2, 11328, Control_c, 0, 64, 127
2, 11413, Control_c, 0, 64, 0
2, 11498, Note_on_c, 0, 50, 0
2, 11498, Note_on_c, 0, 38, 0
2, 11498, Note_on_c, 0, 59, 50
2, 11514, Note_on_c, 0, 59, 0
2, 11521, Note_on_c, 0, 64, 49
2, 11537, Note_on_c, 0, 68, 68
2, 11539, Note_on_c, 0, 64, 0
2, 11562, Note_on_c, 0, 71, 0
2, 11597, Control_c, 0, 64, 127
2, 11681, Note_on_c, 0, 68, 0
2, 11708, Control_c, 0, 64, 0
2, 11708, Note_on_c, 0, 50, 48
2, 11725, Note_on_c, 0, 50, 0
2, 11725, Note_on_c, 0, 52, 51
2, 11733, Note_on_c, 0, 68, 48
2, 11740, Note_on_c, 0, 56, 54
2, 11742, Note_on_c, 0, 52, 0
2, 11756, Note_on_c, 0, 59, 47
2, 11758, Note_on_c, 0, 56, 0
2, 11771, Note_on_c, 0, 59, 0
2, 11771, Note_on_c, 0, 68, 0
2, 11777, Note_on_c, 0, 66, 66
2, 12006, Note_on_c, 0, 66, 0
2, 12010, Note_on_c, 0, 64, 48
2, 12084, Note_on_c, 0, 37, 41
2, 12115, Note_on_c, 0, 49, 47
2, 12152, Control_c, 0, 64, 127
2, 12169, Note_on_c, 0, 76, 60
2, 12207, Note_on_c, 0, 64, 0
2, 12258, Control_c, 0, 64, 0
2, 12267, Note_on_c, 0, 37, 0
2, 12267, Note_on_c, 0, 49, 0
2, 12283, Note_on_c, 0, 64, 53
2, 12298, Note_on_c, 0, 64, 0
2, 12306, Note_on_c, 0, 69, 58
2, 12321, Note_on_c, 0, 69, 0
2, 12321, Note_on_c, 0, 73, 55
2, 12336, Note_on_c, 0, 73, 0
2, 12416, Note_on_c, 0, 57, 53
2, 12426, Note_on_c, 0, 61, 53
2, 12433, Note_on_c, 0, 57, 0
2, 12437, Control_c, 0, 67, 0
2, 12441, Note_on_c, 0, 61, 0
2, 12441, Note_on_c, 0, 64, 50
2, 12455, Note_on_c, 0, 69, 57
2, 12456, Note_on_c, 0, 64, 0
2, 12472, Note_on_c, 0, 69, 0
2, 12548, Note_on_c, 0, 75, 60
2, 12561, Control_c, 0, 64, 127
2, 12604, Note_on_c, 0, 76, 0
2, 12618, Note_on_c, 0, 74, 61
2, 12635, Control_c, 0, 64, 0
2, 12697, Note_on_c, 0, 73, 63
2, 12715, Note_on_c, 0, 74, 0
2, 12715, Note_on_c, 0, 75, 0
2, 12742, Note_on_c, 0, 38, 44
2, 12767, Note_on_c, 0, 50, 45
2, 12790, Note_on_c, 0, 71, 59
2, 12795, Control_c, 0, 64, 127
2, 12822, Note_on_c, 0, 73, 0
2, 12867, Control_c, 0, 64, 0
2, 12883, Note_on_c, 0, 38, 0
2, 12906, Note_on_c, 0, 59, 48
2, 12921, Note_on_c, 0, 59, 0
2, 12921, Note_on_c, 0, 64, 48
2, 12938, Note_on_c, 0, 64, 0
2, 12944, Note_on_c, 0, 68, 68
2, 12969, Note_on_c, 0, 50, 0
2, 12979, Note_on_c, 0, 71, 0
2, 12998, Control_c, 0, 64, 127
2, 13056, Note_on_c, 0, 68, 0
2, 13068, Note_on_c, 0, 50, 42
2, 13078, Note_on_c, 0, 52, 46
2, 13085, Note_on_c, 0, 50, 0
2, 13093, Note_on_c, 0, 56, 43
2, 13095, Note_on_c, 0, 52, 0
2, 13101, Note_on_c, 0, 68, 47
2, 13108, Control_c, 0, 64, 0
2, 13108, Note_on_c, 0, 59, 41
2, 13110, Note_on_c, 0, 56, 0
2, 13124, Note_on_c, 0, 59, 0
2, 13129, Note_on_c, 0, 66, 63
2, 13147, Note_on_c, 0, 68, 0
2, 13291, Note_on_c, 0, 64, 55
2, 13298, Note_on_c, 0, 66, 0
2, 13372, Note_on_c, 0, 37, 43
2, 13388, Note_on_c, 0, 49, 44
2, 13418, Note_on_c, 0, 68, 68
2, 13420, Note_on_c, 0, 64, 0
2, 13441, Control_c, 0, 64, 127
2, 13531, Note_on_c, 0, 61, 44
2, 13554, Note_on_c, 0, 64, 46
2, 13575, Note_on_c, 0, 69, 70
2, 13592, Note_on_c, 0, 68, 0
2, 13637, Note_on_c, 0, 52, 48
2, 13655, Note_on_c, 0, 61, 0
2, 13658, Note_on_c, 0, 57, 45
2, 13685, Note_on_c, 0, 64, 0
2, 13699, Note_on_c, 0, 61, 45
2, 13714, Note_on_c, 0, 52, 0
2, 13714, Note_on_c, 0, 49, 0
2, 13714, Note_on_c, 0, 37, 0
2, 13714, Note_on_c, 0, 57, 0
2, 13720, Control_c, 0, 64, 0
2, 13737, Note_on_c, 0, 64, 58
2, 13737, Note_on_c, 0, 76, 72
2, 13760, Note_on_c, 0, 64, 0
2, 13760, Note_on_c, 0, 61, 0
2, 13807, Note_on_c, 0, 69, 0
2, 13957, Note_on_c, 0, 69, 61
2, 14014, Note_on_c, 0, 76, 0
2, 14040, Note_on_c, 0, 35, 47
2, 14069, Note_on_c, 0, 47, 45
2, 14096, Note_on_c, 0, 69, 0
2, 14102, Note_on_c, 0, 68, 61
2, 14104, Control_c, 0, 67, 127
2, 14223, Note_on_c, 0, 56, 57
2, 14238, Note_on_c, 0, 56, 0
2, 14238, Note_on_c, 0, 35, 0
2, 14238, Note_on_c, 0, 47, 0
2, 14238, Note_on_c, 0, 59, 57
2, 14254, Note_on_c, 0, 59, 0
2, 14254, Note_on_c, 0, 64, 53
2, 14284, Note_on_c, 0, 64, 0
2, 14366, Note_on_c, 0, 52, 52
2, 14381, Note_on_c, 0, 52, 0
2, 14389, Note_on_c, 0, 56, 50
2, 14402, Note_on_c, 0, 59, 48
2, 14404, Note_on_c, 0, 56, 0
2, 14425, Note_on_c, 0, 59, 0
2, 14465, Note_on_c, 0, 68, 0
2, 14518, Note_on_c, 0, 68, 69
2, 14597, Note_on_c, 0, 35, 41
2, 14628, Note_on_c, 0, 47, 54
2, 14667, Note_on_c, 0, 68, 0
2, 14673, Note_on_c, 0, 66, 65
2, 14702, Control_c, 0, 64, 127
2, 14749, Control_c, 0, 64, 0
2, 14780, Note_on_c, 0, 47, 0
2, 14780, Note_on_c, 0, 35, 0
2, 14801, Note_on_c, 0, 59, 45
2, 14822, Note_on_c, 0, 64, 45
2, 14824, Note_on_c, 0, 59, 0
2, 14841, Note_on_c, 0, 67, 59
2, 14849, Note_on_c, 0, 64, 0
2, 14870, Note_on_c, 0, 66, 0
2, 14909, Control_c, 0, 64, 127
2, 14991, Control_c, 0, 64, 0
2, 15010, Note_on_c, 0, 52, 49
2, 15025, Note_on_c, 0, 55, 51
2, 15027, Note_on_c, 0, 52, 0
2, 15033, Note_on_c, 0, 59, 51
2, 15048, Note_on_c, 0, 59, 0
2, 15048, Note_on_c, 0, 55, 0
2, 15048, Note_on_c, 0, 64, 53
2, 15048, Note_on_c, 0, 76, 51
2, 15066, Note_on_c, 0, 64, 0
2, 15081, Note_on_c, 0, 67, 0
2, 15144, Control_c, 0, 64, 127
2, 15268, Note_on_c, 0, 67, 54
2, 15365, Note_on_c, 0, 34, 41
2, 15373, Note_on_c, 0, 76, 0
2, 15375, Control_c, 0, 64, 0
2, 15381, Note_on_c, 0, 46, 47
2, 15404, Note_on_c, 0, 67, 0
2, 15409, Note_on_c, 0, 66, 55
2, 15527, Note_on_c, 0, 46, 0
2, 15527, Note_on_c, 0, 34, 0
2, 15532, Note_on_c, 0, 54, 41
2, 15548, Note_on_c, 0, 61, 47
2, 15555, Note_on_c, 0, 54, 0
2, 15561, Note_on_c, 0, 64, 42
2, 15578, Note_on_c, 0, 61, 0
2, 15592, Note_on_c, 0, 64, 0
2, 15687, Note_on_c, 0, 52, 54
2, 15693, Note_on_c, 0, 54, 52
2, 15708, Note_on_c, 0, 52, 0
2, 15708, Note_on_c, 0, 61, 52
2, 15718, Note_on_c, 0, 54, 0
2, 15733, Note_on_c, 0, 61, 0
2, 15768, Control_c, 0, 64, 127
2, 15778, Note_on_c, 0, 66, 0
2, 15833, Note_on_c, 0, 66, 53
2, 15903, Note_on_c, 0, 33, 43
2, 15926, Note_on_c, 0, 66, 0
2, 15957, Note_on_c, 0, 45, 47
2, 15970, Control_c, 0, 64, 0
2, 15970, Note_on_c, 0, 66, 53
2, 16001, Note_on_c, 0, 69, 53
2, 16007, Note_on_c, 0, 66, 0
2, 16030, Note_on_c, 0, 68, 61
2, 16037, Note_on_c, 0, 69, 0
2, 16039, Control_c, 0, 67, 0
2, 16236, Note_on_c, 0, 57, 45
2, 16236, Note_on_c, 0, 59, 46
2, 16236, Note_on_c, 0, 63, 44
2, 16236, Note_on_c, 0, 66, 61
2, 16253, Note_on_c, 0, 33, 0
2, 16253, Note_on_c, 0, 68, 0
2, 16253, Note_on_c, 0, 45, 0
2, 16320, Control_c, 0, 64, 127
2, 16365, Note_on_c, 0, 59, 0
2, 16365, Note_on_c, 0, 57, 0
2, 16365, Note_on_c, 0, 63, 0
2, 16416, Note_on_c, 0, 57, 53
2, 16416, Note_on_c, 0, 68, 68
2, 16417, Note_on_c, 0, 59, 53
2, 16417, Note_on_c, 0, 63, 52
2, 16457, Note_on_c, 0, 66, 0
2, 16515, Note_on_c, 0, 59, 0
2, 16515, Note_on_c, 0, 57, 0
2, 16515, Note_on_c, 0, 63, 0
2, 16562, Control_c, 0, 64, 0
2, 16568, Note_on_c, 0, 57, 53
2, 16568, Note_on_c, 0, 59, 54
2, 16568, Note_on_c, 0, 63, 60
2, 16568, Note_on_c, 0, 69, 71
2, 16606, Note_on_c, 0, 68, 0
2, 16680, Note_on_c, 0, 32, 48
2, 16685, Note_on_c, 0, 44, 48
2, 16695, Note_on_c, 0, 63, 0
2, 16695, Note_on_c, 0, 57, 0
2, 16695, Note_on_c, 0, 59, 0
2, 16695, Note_on_c, 0, 71, 70
2, 16718, Note_on_c, 0, 69, 0
2, 16794, Note_on_c, 0, 44, 0
2, 16794, Note_on_c, 0, 32, 0
2, 16800, Note_on_c, 0, 59, 49
2, 16813, Note_on_c, 0, 59, 0
2, 16815, Note_on_c, 0, 64, 52
2, 16832, Note_on_c, 0, 64, 0
2, 16832, Note_on_c, 0, 68, 48
2, 16846, Note_on_c, 0, 68, 0
2, 16955, Note_on_c, 0, 52, 51
2, 16972, Note_on_c, 0, 52, 0
2, 16972, Note_on_c, 0, 56, 48
2, 16972, Note_on_c, 0, 59, 51
2, 16986, Note_on_c, 0, 64, 64
2, 16988, Note_on_c, 0, 59, 0
2, 16988, Note_on_c, 0, 56, 0
2, 16993, Control_c, 0, 67, 127
2, 17003, Note_on_c, 0, 64, 0
2, 17009, Note_on_c, 0, 71, 0
2, 17030, Control_c, 0, 64, 127
2, 17110, Note_on_c, 0, 71, 70
2, 17149, Control_c, 0, 64, 0
2, 17188, Note_on_c, 0, 31, 44
2, 17245, Note_on_c, 0, 43, 55
2, 17286, Note_on_c, 0, 76, 75
2, 17319, Note_on_c, 0, 71, 0
2, 17346, Control_c, 0, 64, 127
2, 17427, Control_c, 0, 64, 0
2, 17509, Note_on_c, 0, 55, 49
2, 17509, Note_on_c, 0, 59, 46
2, 17509, Note_on_c, 0, 64, 46
2, 17509, Note_on_c, 0, 74, 71
2, 17558, Note_on_c, 0, 76, 0
2, 17636, Note_on_c, 0, 59, 0
2, 17636, Note_on_c, 0, 55, 0
2, 17636, Note_on_c, 0, 64, 0
2, 17690, Note_on_c, 0, 55, 58
2, 17690, Note_on_c, 0, 64, 56
2, 17690, Note_on_c, 0, 73, 71
2, 17692, Note_on_c, 0, 59, 62
2, 17706, Control_c, 0, 64, 127
2, 17715, Note_on_c, 0, 74, 0
2, 17782, Note_on_c, 0, 64, 0
2, 17782, Note_on_c, 0, 55, 0
2, 17782, Note_on_c, 0, 59, 0
2, 17825, Note_on_c, 0, 55, 61
2, 17827, Note_on_c, 0, 59, 60
2, 17827, Note_on_c, 0, 64, 57
2, 17827, Note_on_c, 0, 71, 64
2, 17852, Note_on_c, 0, 73, 0
2, 17889, Note_on_c, 0, 71, 0
2, 17910, Note_on_c, 0, 31, 0
2, 17910, Note_on_c, 0, 43, 0
2, 17926, Note_on_c, 0, 30, 59
2, 17933, Control_c, 0, 64, 0
2, 17935, Note_on_c, 0, 42, 63
2, 17951, Note_on_c, 0, 55, 0
2, 17951, Note_on_c, 0, 64, 0
2, 17951, Note_on_c, 0, 59, 0
2, 17958, Note_on_c, 0, 71, 71
2, 18118, Note_on_c, 0, 61, 53
2, 18135, Note_on_c, 0, 61, 0
2, 18141, Note_on_c, 0, 42, 0
2, 18141, Note_on_c, 0, 30, 0
2, 18141, Note_on_c, 0, 64, 53
2, 18156, Note_on_c, 0, 67, 55
2, 18158, Note_on_c, 0, 64, 0
2, 18179, Note_on_c, 0, 67, 0
2, 18241, Note_on_c, 0, 54, 47
2, 18259, Note_on_c, 0, 54, 0
2, 18266, Note_on_c, 0, 61, 48
2, 18289, Note_on_c, 0, 64, 47
2, 18297, Note_on_c, 0, 61, 0
2, 18299, Control_c, 0, 67, 0
2, 18305, Note_on_c, 0, 70, 63
2, 18307, Note_on_c, 0, 71, 0
2, 18320, Note_on_c, 0, 64, 0
2, 18320, Note_on_c, 0, 66, 43
2, 18341, Note_on_c, 0, 66, 0
2, 18362, Control_c, 0, 64, 127
2, 18483, Note_on_c, 0, 70, 0
2, 18483, Control_c, 0, 64, 0
2, 18491, Note_on_c, 0, 73, 65
2, 18590, Note_on_c, 0, 39, 58
2, 18590, Note_on_c, 0, 51, 58
2, 18639, Note_on_c, 0, 78, 65
2, 18662, Note_on_c, 0, 73, 0
2, 18689, Control_c, 0, 64, 127
2, 18720, Note_on_c, 0, 66, 45
2, 18743, Note_on_c, 0, 69, 45
2, 18758, Note_on_c, 0, 71, 45
2, 18787, Note_on_c, 0, 75, 61
2, 18812, Note_on_c, 0, 78, 0
2, 18825, Note_on_c, 0, 66, 0
2, 18839, Note_on_c, 0, 57, 60
2, 18854, Note_on_c, 0, 57, 0
2, 18860, Note_on_c, 0, 39, 0
2, 18860, Note_on_c, 0, 59, 56
2, 18862, Note_on_c, 0, 51, 0
2, 18869, Note_on_c, 0, 71, 0
2, 18869, Note_on_c, 0, 69, 0
2, 18873, Control_c, 0, 64, 0
2, 18875, Note_on_c, 0, 59, 0
2, 18875, Note_on_c, 0, 63, 54
2, 18890, Note_on_c, 0, 63, 0
2, 18898, Note_on_c, 0, 66, 44
2, 18913, Note_on_c, 0, 66, 0
2, 18913, Note_on_c, 0, 73, 63
2, 18929, Note_on_c, 0, 75, 0
2, 18989, Note_on_c, 0, 63, 44
2, 19010, Note_on_c, 0, 66, 44
2, 19026, Note_on_c, 0, 69, 43
2, 19047, Note_on_c, 0, 71, 70
2, 19070, Note_on_c, 0, 73, 0
2, 19140, Note_on_c, 0, 40, 41
2, 19169, Note_on_c, 0, 52, 48
2, 19216, Note_on_c, 0, 69, 0
2, 19216, Note_on_c, 0, 71, 0
2, 19216, Note_on_c, 0, 63, 0
2, 19216, Note_on_c, 0, 66, 0
2, 19222, Note_on_c, 0, 80, 71
2, 19307, Control_c, 0, 64, 127
2, 19402, Note_on_c, 0, 68, 42
2, 19425, Note_on_c, 0, 71, 44
2, 19464, Note_on_c, 0, 76, 65
2, 19495, Note_on_c, 0, 80, 0
2, 19535, Note_on_c, 0, 56, 44
2, 19552, Note_on_c, 0, 71, 0
2, 19552, Note_on_c, 0, 68, 0
2, 19560, Note_on_c, 0, 59, 42
2, 19567, Note_on_c, 0, 52, 0
2, 19567, Note_on_c, 0, 40, 0
2, 19567, Note_on_c, 0, 56, 0
2, 19581, Note_on_c, 0, 64, 46
2, 19588, Control_c, 0, 64, 0
2, 19590, Note_on_c, 0, 59, 0
2, 19606, Note_on_c, 0, 75, 64
2, 19613, Note_on_c, 0, 64, 0
2, 19613, Note_on_c, 0, 68, 41
2, 19631, Note_on_c, 0, 76, 0
2, 19636, Note_on_c, 0, 68, 0
2, 19722, Note_on_c, 0, 64, 43
2, 19735, Note_on_c, 0, 68, 46
2, 19760, Note_on_c, 0, 64, 0
2, 19760, Note_on_c, 0, 73, 61
2, 19776, Note_on_c, 0, 68, 0
2, 19791, Note_on_c, 0, 75, 0
2, 19898, Note_on_c, 0, 35, 42
2, 19906, Note_on_c, 0, 47, 44
2, 19908, Note_on_c, 0, 71, 63
2, 19929, Note_on_c, 0, 73, 0
2, 19956, Control_c, 0, 64, 127
2, 19983, Control_c, 0, 67, 127
2, 20041, Note_on_c, 0, 35, 0
2, 20041, Note_on_c, 0, 47, 0
2, 20063, Control_c, 0, 64, 0
2, 20093, Note_on_c, 0, 59, 57
2, 20103, Note_on_c, 0, 63, 53
2, 20111, Note_on_c, 0, 59, 0
2, 20116, Note_on_c, 0, 66, 54
2, 20118, Note_on_c, 0, 63, 0
2, 20165, Note_on_c, 0, 71, 0
2, 20201, Note_on_c, 0, 54, 51
2, 20216, Note_on_c, 0, 54, 0
2, 20216, Note_on_c, 0, 57, 53
2, 20232, Note_on_c, 0, 57, 0
2, 20233, Note_on_c, 0, 59, 51
2, 20249, Note_on_c, 0, 59, 0
2, 20249, Note_on_c, 0, 63, 47
2, 20260, Note_on_c, 0, 68, 61
2, 20268, Note_on_c, 0, 63, 0
2, 20293, Note_on_c, 0, 66, 0
2, 20306, Control_c, 0, 64, 127
2, 20435, Control_c, 0, 64, 0
2, 20435, Note_on_c, 0, 59, 54
2, 20452, Note_on_c, 0, 59, 0
2, 20466, Note_on_c, 0, 63, 48
2, 20481, Note_on_c, 0, 63, 0
2, 20489, Note_on_c, 0, 71, 42
2, 20521, Note_on_c, 0, 71, 0
2, 20521, Note_on_c, 0, 68, 0
2, 20527, Note_on_c, 0, 69, 57
2, 20599, Control_c, 0, 64, 127
2, 20640, Control_c, 0, 64, 0
2, 20658, Note_on_c, 0, 40, 46
2, 20664, Note_on_c, 0, 68, 59
2, 20671, Note_on_c, 0, 52, 41
2, 20675, Note_on_c, 0, 69, 0
2, 20781, Note_on_c, 0, 40, 0
2, 20783, Note_on_c, 0, 52, 0
2, 20796, Note_on_c, 0, 56, 52
2, 20809, Note_on_c, 0, 56, 0
2, 20817, Note_on_c, 0, 59, 53
2, 20832, Note_on_c, 0, 64, 50
2, 20834, Note_on_c, 0, 59, 0
2, 20850, Note_on_c, 0, 64, 0
2, 20929, Note_on_c, 0, 47, 46
2, 20945, Note_on_c, 0, 52, 48
2, 20952, Note_on_c, 0, 47, 0
2, 20960, Note_on_c, 0, 56, 60
2, 20968, Note_on_c, 0, 52, 0
2, 20976, Note_on_c, 0, 59, 59
2, 20977, Note_on_c, 0, 56, 0
2, 20997, Control_c, 0, 67, 0
2, 20999, Note_on_c, 0, 59, 0
2, 21031, Note_on_c, 0, 68, 0
2, 21048, Note_on_c, 0, 59, 42
2, 21064, Note_on_c, 0, 64, 46
2, 21079, Note_on_c, 0, 59, 0
2, 21079, Note_on_c, 0, 68, 47
2, 21087, Note_on_c, 0, 64, 0
2, 21098, Control_c, 0, 64, 127
2, 21102, Note_on_c, 0, 68, 0
2, 21102, Note_on_c, 0, 71, 63
2, 21184, Note_on_c, 0, 39, 41
2, 21203, Control_c, 0, 64, 0
2, 21220, Note_on_c, 0, 51, 55
2, 21240, Note_on_c, 0, 71, 0
2, 21249, Note_on_c, 0, 78, 61
2, 21335, Note_on_c, 0, 66, 49
2, 21350, Note_on_c, 0, 69, 42
2, 21352, Note_on_c, 0, 66, 0
2, 21360, Note_on_c, 0, 71, 46
2, 21367, Note_on_c, 0, 69, 0
2, 21375, Note_on_c, 0, 71, 0
2, 21383, Note_on_c, 0, 78, 0
2, 21388, Note_on_c, 0, 75, 62
2, 21394, Note_on_c, 0, 51, 0
2, 21394, Note_on_c, 0, 39, 0
2, 21460, Note_on_c, 0, 57, 56
2, 21476, Note_on_c, 0, 57, 0
2, 21476, Note_on_c, 0, 59, 56
2, 21491, Note_on_c, 0, 59, 0
2, 21501, Note_on_c, 0, 63, 58
2, 21516, Note_on_c, 0, 63, 0
2, 21516, Note_on_c, 0, 73, 62
2, 21522, Note_on_c, 0, 66, 64
2, 21547, Note_on_c, 0, 66, 0
2, 21554, Note_on_c, 0, 75, 0
2, 21579, Control_c, 0, 64, 127
2, 21599, Note_on_c, 0, 63, 49
2, 21620, Note_on_c, 0, 66, 42
2, 21637, Note_on_c, 0, 69, 47
2, 21658, Note_on_c, 0, 71, 65
2, 21681, Note_on_c, 0, 73, 0
2, 21698, Control_c, 0, 67, 127
2, 21740, Control_c, 0, 64, 0
2, 21763, Note_on_c, 0, 40, 46
2, 21793, Note_on_c, 0, 52, 44
2, 21844, Note_on_c, 0, 69, 0
2, 21844, Note_on_c, 0, 71, 0
2, 21844, Note_on_c, 0, 63, 0
2, 21844, Note_on_c, 0, 66, 0
2, 21852, Note_on_c, 0, 80, 57
2, 21920, Control_c, 0, 64, 127
2, 22047, Note_on_c, 0, 68, 46
2, 22060, Control_c, 0, 64, 0
2, 22062, Note_on_c, 0, 71, 41
2, 22093, Note_on_c, 0, 76, 64
2, 22150, Note_on_c, 0, 80, 0
2, 22204, Note_on_c, 0, 71, 0
2, 22204, Note_on_c, 0, 68, 0
2, 22210, Note_on_c, 0, 40, 0
2, 22210, Note_on_c, 0, 52, 0
2, 22224, Note_on_c, 0, 58, 51
2, 22239, Note_on_c, 0, 61, 47
2, 22241, Note_on_c, 0, 58, 0
2, 22256, Note_on_c, 0, 64, 47
2, 22258, Note_on_c, 0, 61, 0
2, 22264, Note_on_c, 0, 75, 61
2, 22273, Note_on_c, 0, 64, 0
2, 22273, Note_on_c, 0, 76, 0
2, 22277, Note_on_c, 0, 67, 43
2, 22302, Note_on_c, 0, 67, 0
2, 22314, Control_c, 0, 64, 127
2, 22395, Control_c, 0, 64, 0
2, 22413, Note_on_c, 0, 64, 44
2, 22436, Note_on_c, 0, 67, 41
2, 22438, Note_on_c, 0, 64, 0
2, 22451, Note_on_c, 0, 70, 44
2, 22461, Note_on_c, 0, 67, 0
2, 22466, Note_on_c, 0, 73, 61
2, 22474, Note_on_c, 0, 70, 0
2, 22542, Note_on_c, 0, 75, 0
2, 22587, Note_on_c, 0, 35, 43
2, 22603, Note_on_c, 0, 47, 45
2, 22652, Note_on_c, 0, 71, 68
2, 22671, Control_c, 0, 64, 127
2, 22686, Note_on_c, 0, 73, 0
2, 22768, Note_on_c, 0, 35, 0
2, 22770, Note_on_c, 0, 47, 0
2, 22783, Control_c, 0, 64, 0
2, 22823, Note_on_c, 0, 57, 49
2, 22838, Note_on_c, 0, 59, 51
2, 22840, Note_on_c, 0, 57, 0
2, 22853, Note_on_c, 0, 59, 0
2, 22853, Note_on_c, 0, 63, 51
2, 22869, Note_on_c, 0, 63, 0
2, 22869, Note_on_c, 0, 66, 59
2, 22918, Note_on_c, 0, 71, 0
2, 23073, Note_on_c, 0, 69, 60
2, 23134, Note_on_c, 0, 66, 0
2, 23166, Control_c, 0, 64, 127
2, 23328, Note_on_c, 0, 63, 53
2, 23337, Note_on_c, 0, 69, 0
2, 23447, Note_on_c, 0, 28, 42
2, 23462, Note_on_c, 0, 40, 41
2, 23475, Control_c, 0, 64, 0
2, 23508, Note_on_c, 0, 64, 46
2, 23521, Note_on_c, 0, 63, 0
2, 23648, Note_on_c, 0, 52, 57
2, 23656, Note_on_c, 0, 28, 0
2, 23656, Note_on_c, 0, 40, 0
2, 23664, Note_on_c, 0, 56, 63
2, 23665, Note_on_c, 0, 52, 0
2, 23688, Note_on_c, 0, 59, 64
2, 23696, Note_on_c, 0, 56, 0
2, 23704, Note_on_c, 0, 59, 0
2, 23809, Note_on_c, 0, 56, 52
2, 23825, Note_on_c, 0, 56, 0
2, 23825, Note_on_c, 0, 59, 50
2, 23842, Note_on_c, 0, 59, 0
2, 23842, Note_on_c, 0, 62, 72
2, 23865, Control_c, 0, 64, 127
2, 24013, Control_c, 0, 64, 0
2, 24056, Note_on_c, 0, 65, 54
2, 24085, Note_on_c, 0, 64, 0
2, 24180, Note_on_c, 0, 62, 0
2, 24192, Note_on_c, 0, 28, 46
2, 24209, Note_on_c, 0, 40, 47
2, 24213, Note_on_c, 0, 65, 0
2, 24218, Note_on_c, 0, 66, 62
2, 24236, Control_c, 0, 64, 127
2, 24323, Control_c, 0, 64, 0
2, 24333, Note_on_c, 0, 54, 47
2, 24350, Note_on_c, 0, 54, 0
2, 24350, Note_on_c, 0, 57, 54
2, 24356, Note_on_c, 0, 28, 0
2, 24356, Note_on_c, 0, 40, 0
2, 24365, Note_on_c, 0, 61, 66
2, 24381, Note_on_c, 0, 57, 0
2, 24388, Note_on_c, 0, 61, 0
2, 24496, Note_on_c, 0, 59, 55
2, 24511, Note_on_c, 0, 59, 0
2, 24513, Note_on_c, 0, 62, 60
2, 24521, Note_on_c, 0, 66, 0
2, 24527, Note_on_c, 0, 65, 69
2, 24528, Note_on_c, 0, 62, 0
2, 24618, Control_c, 0, 64, 127
2, 24709, Note_on_c, 0, 68, 66
2, 24824, Control_c, 0, 64, 0
2, 24843, Note_on_c, 0, 65, 0
2, 24845, Note_on_c, 0, 28, 59
2, 24872, Note_on_c, 0, 40, 58
2, 24874, Note_on_c, 0, 69, 66
2, 24891, Note_on_c, 0, 68, 0
2, 24990, Note_on_c, 0, 57, 56
2, 24998, Note_on_c, 0, 28, 0
2, 24998, Note_on_c, 0, 40, 0
2, 25008, Note_on_c, 0, 57, 0
2, 25015, Note_on_c, 0, 61, 57
2, 25031, Note_on_c, 0, 64, 57
2, 25032, Note_on_c, 0, 61, 0
2, 25048, Note_on_c, 0, 64, 0
2, 25145, Note_on_c, 0, 61, 60
2, 25160, Note_on_c, 0, 61, 0
2, 25160, Note_on_c, 0, 64, 55
2, 25168, Note_on_c, 0, 69, 0
2, 25174, Note_on_c, 0, 64, 0
2, 25174, Note_on_c, 0, 67, 70
2, 25261, Control_c, 0, 64, 127
2, 25329, Note_on_c, 0, 70, 73
2, 25460, Note_on_c, 0, 35, 42
2, 25490, Control_c, 0, 64, 0
2, 25508, Note_on_c, 0, 47, 43
2, 25512, Note_on_c, 0, 67, 0
2, 25551, Note_on_c, 0, 73, 62
2, 25580, Note_on_c, 0, 70, 0
2, 25703, Note_on_c, 0, 63, 59
2, 25708, Note_on_c, 0, 66, 41
2, 25718, Note_on_c, 0, 63, 0
2, 25722, Note_on_c, 0, 35, 0
2, 25724, Note_on_c, 0, 47, 0
2, 25741, Note_on_c, 0, 71, 65
2, 25749, Note_on_c, 0, 66, 0
2, 25803, Note_on_c, 0, 73, 0
2, 25839, Note_on_c, 0, 54, 52
2, 25856, Note_on_c, 0, 57, 52
2, 25864, Note_on_c, 0, 54, 0
2, 25877, Note_on_c, 0, 57, 0
2, 25877, Note_on_c, 0, 59, 47
2, 25895, Note_on_c, 0, 59, 0
2, 25895, Note_on_c, 0, 63, 48
2, 25895, Note_on_c, 0, 69, 60
2, 25930, Note_on_c, 0, 63, 0
2, 25953, Note_on_c, 0, 71, 0
2, 26035, Note_on_c, 0, 66, 57
2, 26084, Note_on_c, 0, 69, 0
2, 26150, Note_on_c, 0, 40, 51
2, 26150, Note_on_c, 0, 52, 54
2, 26167, Note_on_c, 0, 66, 0
2, 26173, Control_c, 0, 64, 127
2, 26175, Note_on_c, 0, 64, 50
2, 26235, Note_on_c, 0, 52, 0
2, 26239, Control_c, 0, 64, 0
2, 26288, Note_on_c, 0, 40, 0
2, 26288, Note_on_c, 0, 52, 50
2, 26304, Note_on_c, 0, 52, 0
2, 26311, Note_on_c, 0, 56, 47
2, 26327, Note_on_c, 0, 56, 0
2, 26334, Note_on_c, 0, 59, 50
2, 26350, Note_on_c, 0, 59, 0
2, 26429, Note_on_c, 0, 56, 52
2, 26445, Note_on_c, 0, 56, 0
2, 26445, Note_on_c, 0, 59, 50
2, 26458, Note_on_c, 0, 62, 48
2, 26460, Note_on_c, 0, 59, 0
2, 26477, Note_on_c, 0, 62, 0
2, 26610, Note_on_c, 0, 64, 0
2, 26616, Note_on_c, 0, 56, 59
2, 26616, Note_on_c, 0, 61, 58
2, 26616, Note_on_c, 0, 65, 61
2, 26627, Note_on_c, 0, 35, 59
2, 26631, Note_on_c, 0, 47, 59
2, 26644, Control_c, 0, 64, 127
2, 26752, Control_c, 0, 64, 0
2, 26779, Note_on_c, 0, 47, 0
2, 26779, Note_on_c, 0, 35, 0
2, 26784, Note_on_c, 0, 33, 44
2, 26784, Note_on_c, 0, 45, 48
2, 26786, Note_on_c, 0, 56, 0
2, 26786, Note_on_c, 0, 61, 0
2, 26794, Note_on_c, 0, 66, 66
2, 26809, Note_on_c, 0, 65, 0
2, 26870, Note_on_c, 0, 45, 0
2, 26870, Note_on_c, 0, 33, 0
2, 26895, Note_on_c, 0, 54, 58
2, 26908, Note_on_c, 0, 57, 60
2, 26910, Note_on_c, 0, 54, 0
2, 26924, Note_on_c, 0, 61, 59
2, 26926, Note_on_c, 0, 57, 0
2, 26941, Note_on_c, 0, 61, 0
2, 27007, Control_c, 0, 67, 0
2, 27024, Note_on_c, 0, 59, 53
2, 27040, Note_on_c, 0, 62, 53
2, 27042, Note_on_c, 0, 59, 0
2, 27049, Note_on_c, 0, 65, 44
2, 27057, Note_on_c, 0, 62, 0
2, 27065, Note_on_c, 0, 65, 0
2, 27172, Note_on_c, 0, 66, 0
2, 27195, Note_on_c, 0, 59, 49
2, 27195, Note_on_c, 0, 64, 50
2, 27195, Note_on_c, 0, 68, 66
2, 27203, Note_on_c, 0, 38, 53
2, 27211, Note_on_c, 0, 50, 50
2, 27288, Control_c, 0, 64, 127
2, 27343, Control_c, 0, 64, 0
2, 27343, Note_on_c, 0, 37, 48
2, 27343, Note_on_c, 0, 49, 45
2, 27347, Note_on_c, 0, 69, 66
2, 27349, Note_on_c, 0, 64, 0
2, 27368, Note_on_c, 0, 38, 0
2, 27370, Note_on_c, 0, 59, 0
2, 27376, Note_on_c, 0, 50, 0
2, 27378, Note_on_c, 0, 68, 0
2, 27436, Note_on_c, 0, 37, 0
2, 27436, Note_on_c, 0, 49, 0
2, 27452, Note_on_c, 0, 57, 59
2, 27467, Note_on_c, 0, 57, 0
2, 27473, Note_on_c, 0, 61, 60
2, 27488, Note_on_c, 0, 61, 0
2, 27488, Note_on_c, 0, 64, 59
2, 27507, Note_on_c, 0, 64, 0
2, 27576, Note_on_c, 0, 61, 43
2, 27597, Note_on_c, 0, 64, 41
2, 27606, Note_on_c, 0, 61, 0
2, 27620, Note_on_c, 0, 67, 48
2, 27622, Note_on_c, 0, 64, 0
2, 27652, Note_on_c, 0, 67, 0
2, 27744, Note_on_c, 0, 69, 0
2, 27747, Note_on_c, 0, 40, 54
2, 27751, Note_on_c, 0, 70, 66
2, 27757, Note_on_c, 0, 52, 54
2, 27757, Note_on_c, 0, 61, 57
2, 27757, Note_on_c, 0, 66, 69
2, 27784, Control_c, 0, 64, 127
2, 27885, Note_on_c, 0, 52, 0
2, 27885, Note_on_c, 0, 40, 0
2, 27888, Control_c, 0, 64, 0
2, 27888, Note_on_c, 0, 38, 54
2, 27890, Note_on_c, 0, 50, 58
2, 27892, Note_on_c, 0, 70, 0
2, 27892, Note_on_c, 0, 66, 0
2, 27892, Note_on_c, 0, 61, 0
2, 27898, Note_on_c, 0, 71, 67
2, 27985, Note_on_c, 0, 59, 60
2, 27991, Note_on_c, 0, 38, 0
2, 28001, Note_on_c, 0, 50, 0
2, 28001, Note_on_c, 0, 59, 0
2, 28010, Note_on_c, 0, 62, 57
2, 28026, Note_on_c, 0, 62, 0
2, 28026, Note_on_c, 0, 66, 51
2, 28041, Note_on_c, 0, 66, 0
2, 28102, Note_on_c, 0, 64, 45
2, 28127, Note_on_c, 0, 67, 41
2, 28155, Note_on_c, 0, 70, 65
2, 28225, Note_on_c, 0, 64, 0
2, 28272, Note_on_c, 0, 67, 0
2, 28274, Note_on_c, 0, 71, 0
2, 28274, Note_on_c, 0, 70, 0
2, 28282, Note_on_c, 0, 55, 44
2, 28282, Note_on_c, 0, 69, 71
2, 28282, Note_on_c, 0, 73, 65
2, 28288, Note_on_c, 0, 43, 48
2, 28288, Note_on_c, 0, 64, 42
2, 28299, Control_c, 0, 64, 127
2, 28411, Control_c, 0, 64, 0
2, 28418, Note_on_c, 0, 42, 41
2, 28420, Note_on_c, 0, 54, 47
2, 28420, Note_on_c, 0, 74, 65
2, 28434, Note_on_c, 0, 43, 0
2, 28434, Note_on_c, 0, 55, 0
2, 28449, Note_on_c, 0, 73, 0
2, 28508, Note_on_c, 0, 54, 0
2, 28510, Note_on_c, 0, 64, 0
2, 28510, Note_on_c, 0, 42, 0
2, 28512, Note_on_c, 0, 69, 0
2, 28523, Note_on_c, 0, 62, 45
2, 28542, Note_on_c, 0, 62, 0
2, 28546, Note_on_c, 0, 66, 47
2, 28561, Note_on_c, 0, 66, 0
2, 28561, Note_on_c, 0, 69, 62
2, 28579, Note_on_c, 0, 69, 0
2, 28647, Note_on_c, 0, 54, 41
2, 28662, Note_on_c, 0, 57, 48
2, 28664, Note_on_c, 0, 54, 0
2, 28678, Note_on_c, 0, 57, 0
2, 28685, Note_on_c, 0, 62, 48
2, 28701, Note_on_c, 0, 66, 55
2, 28703, Note_on_c, 0, 62, 0
2, 28720, Note_on_c, 0, 66, 0
2, 28755, Control_c, 0, 64, 127
2, 28769, Note_on_c, 0, 74, 0
2, 28782, Note_on_c, 0, 73, 56
2, 28852, Note_on_c, 0, 74, 63
2, 28885, Control_c, 0, 64, 0
2, 28900, Note_on_c, 0, 73, 0
2, 28914, Note_on_c, 0, 76, 60
2, 28968, Note_on_c, 0, 38, 58
2, 28968, Note_on_c, 0, 50, 54
2, 28970, Note_on_c, 0, 74, 0
2, 28980, Note_on_c, 0, 78, 67
2, 28984, Control_c, 0, 64, 127
2, 29003, Note_on_c, 0, 76, 0
2, 29046, Control_c, 0, 64, 0
2, 29101, Note_on_c, 0, 66, 52
2, 29116, Note_on_c, 0, 66, 0
2, 29116, Note_on_c, 0, 69, 50
2, 29132, Note_on_c, 0, 69, 0
2, 29132, Note_on_c, 0, 74, 51
2, 29139, Note_on_c, 0, 50, 0
2, 29139, Note_on_c, 0, 38, 0
2, 29147, Note_on_c, 0, 74, 0
2, 29251, Note_on_c, 0, 57, 51
2, 29264, Note_on_c, 0, 62, 51
2, 29266, Note_on_c, 0, 57, 0
2, 29280, Note_on_c, 0, 66, 43
2, 29281, Note_on_c, 0, 62, 0
2, 29289, Note_on_c, 0, 69, 54
2, 29297, Note_on_c, 0, 66, 0
2, 29304, Note_on_c, 0, 69, 0
2, 29416, Note_on_c, 0, 73, 53
2, 29422, Control_c, 0, 64, 127
2, 29439, Note_on_c, 0, 78, 0
2, 29492, Note_on_c, 0, 74, 62
2, 29515, Control_c, 0, 64, 0
2, 29526, Note_on_c, 0, 73, 0
2, 29562, Note_on_c, 0, 76, 64
2, 29594, Note_on_c, 0, 74, 0
2, 29614, Note_on_c, 0, 35, 43
2, 29623, Note_on_c, 0, 47, 44
2, 29625, Note_on_c, 0, 76, 0
2, 29633, Note_on_c, 0, 78, 59
2, 29676, Control_c, 0, 64, 127
2, 29684, Control_c, 0, 67, 127
2, 29738, Note_on_c, 0, 47, 0
2, 29738, Note_on_c, 0, 35, 0
2, 29738, Control_c, 0, 64, 0
2, 29758, Note_on_c, 0, 66, 41
2, 29775, Note_on_c, 0, 71, 47
2, 29777, Note_on_c, 0, 66, 0
2, 29790, Note_on_c, 0, 71, 0
2, 29790, Note_on_c, 0, 74, 60
2, 29813, Note_on_c, 0, 74, 0
2, 29928, Note_on_c, 0, 54, 52
2, 29946, Note_on_c, 0, 54, 0
2, 29946, Note_on_c, 0, 59, 48
2, 29946, Note_on_c, 0, 62, 54
2, 29961, Note_on_c, 0, 62, 0
2, 29961, Note_on_c, 0, 59, 0
2, 29969, Note_on_c, 0, 66, 48
2, 29984, Note_on_c, 0, 66, 0
2, 30090, Control_c, 0, 64, 127
2, 30101, Note_on_c, 0, 70, 49
2, 30132, Note_on_c, 0, 78, 0
2, 30175, Control_c, 0, 64, 0
2, 30191, Note_on_c, 0, 71, 61
2, 30226, Note_on_c, 0, 70, 0
2, 30271, Note_on_c, 0, 73, 54
2, 30294, Note_on_c, 0, 71, 0
2, 30315, Note_on_c, 0, 33, 53
2, 30331, Note_on_c, 0, 73, 0
2, 30336, Note_on_c, 0, 45, 53
2, 30336, Note_on_c, 0, 74, 59
2, 30342, Control_c, 0, 64, 127
2, 30430, Control_c, 0, 64, 0
2, 30445, Note_on_c, 0, 45, 0
2, 30445, Note_on_c, 0, 33, 0
2, 30482, Note_on_c, 0, 62, 51
2, 30488, Note_on_c, 0, 65, 47
2, 30498, Note_on_c, 0, 62, 0
2, 30504, Note_on_c, 0, 65, 0
2, 30504, Note_on_c, 0, 71, 54
2, 30519, Note_on_c, 0, 71, 0
2, 30614, Note_on_c, 0, 53, 49
2, 30631, Note_on_c, 0, 53, 0
2, 30633, Note_on_c, 0, 59, 48
2, 30647, Note_on_c, 0, 59, 0
2, 30654, Note_on_c, 0, 62, 47
2, 30670, Note_on_c, 0, 62, 0
2, 30670, Note_on_c, 0, 65, 60
2, 30685, Note_on_c, 0, 65, 0
2, 30716, Control_c, 0, 64, 127
2, 30792, Note_on_c, 0, 70, 56
2, 30824, Note_on_c, 0, 74, 0
2, 30860, Control_c, 0, 64, 0
2, 30905, Note_on_c, 0, 71, 56
2, 30920, Note_on_c, 0, 70, 0
2, 30981, Note_on_c, 0, 73, 56
2, 31018, Note_on_c, 0, 32, 46
2, 31030, Note_on_c, 0, 71, 0
2, 31043, Note_on_c, 0, 44, 44
2, 31066, Note_on_c, 0, 74, 60
2, 31083, Note_on_c, 0, 73, 0
2, 31123, Control_c, 0, 64, 127
2, 31193, Note_on_c, 0, 70, 48
2, 31210, Note_on_c, 0, 74, 0
2, 31294, Note_on_c, 0, 62, 48
2, 31294, Note_on_c, 0, 64, 44
2, 31294, Note_on_c, 0, 71, 57
2, 31309, Note_on_c, 0, 70, 0
2, 31340, Control_c, 0, 64, 0
2, 31347, Note_on_c, 0, 64, 0
2, 31347, Note_on_c, 0, 62, 0
2, 31347, Note_on_c, 0, 32, 0
2, 31347, Note_on_c, 0, 44, 0
2, 31363, Note_on_c, 0, 73, 62
2, 31380, Note_on_c, 0, 71, 0
2, 31395, Note_on_c, 0, 52, 53
2, 31401, Note_on_c, 0, 59, 55
2, 31411, Note_on_c, 0, 52, 0
2, 31416, Note_on_c, 0, 59, 0
2, 31424, Note_on_c, 0, 62, 56
2, 31426, Note_on_c, 0, 73, 0
2, 31432, Note_on_c, 0, 74, 63
2, 31443, Note_on_c, 0, 62, 0
2, 31449, Note_on_c, 0, 64, 55
2, 31464, Note_on_c, 0, 64, 0
2, 31512, Note_on_c, 0, 74, 0
2, 31512, Note_on_c, 0, 70, 55
2, 31570, Note_on_c, 0, 71, 66
2, 31587, Note_on_c, 0, 70, 0
2, 31625, Note_on_c, 0, 73, 67
2, 31644, Note_on_c, 0, 71, 0
2, 31680, Note_on_c, 0, 74, 65
2, 31703, Control_c, 0, 64, 127
2, 31712, Note_on_c, 0, 73, 0
2, 31750, Note_on_c, 0, 75, 55
2, 31765, Note_on_c, 0, 74, 0
2, 31788, Note_on_c, 0, 75, 0
2, 31796, Note_on_c, 0, 76, 57
2, 31817, Control_c, 0, 64, 0
2, 31858, Note_on_c, 0, 77, 53
2, 31873, Note_on_c, 0, 76, 0
2, 31951, Note_on_c, 0, 80, 53
2, 31982, Note_on_c, 0, 77, 0
2, 32027, Control_c, 0, 64, 127
2, 32089, Control_c, 0, 64, 0
2, 32091, Note_on_c, 0, 78, 41
2, 32152, Note_on_c, 0, 80, 0
2, 32175, Note_on_c, 0, 78, 0
2, 32179, Note_on_c, 0, 71, 53
2, 32262, Note_on_c, 0, 73, 56
2, 32293, Note_on_c, 0, 71, 0
2, 32338, Note_on_c, 0, 76, 60
2, 32377, Note_on_c, 0, 73, 0
2, 32415, Control_c, 0, 64, 127
2, 32424, Note_on_c, 0, 74, 59
2, 32495, Note_on_c, 0, 76, 0
2, 32495, Control_c, 0, 64, 0
2, 32523, Note_on_c, 0, 68, 60
2, 32574, Note_on_c, 0, 74, 0
2, 32669, Note_on_c, 0, 69, 66
2, 32702, Note_on_c, 0, 68, 0
2, 32791, Note_on_c, 0, 73, 58
2, 32810, Note_on_c, 0, 69, 0
2, 32828, Control_c, 0, 64, 127
2, 32964, Control_c, 0, 64, 0
2, 32972, Note_on_c, 0, 71, 47
2, 33044, Note_on_c, 0, 73, 0
2, 33135, Note_on_c, 0, 68, 42
2, 33174, Note_on_c, 0, 71, 0
2, 33293, Control_c, 0, 64, 127
2, 33405, Note_on_c, 0, 64, 44
2, 33407, Control_c, 0, 64, 0
2, 33463, Note_on_c, 0, 68, 0
2, 33696, Note_on_c, 0, 33, 43
2, 33712, Note_on_c, 0, 45, 47
2, 33720, Note_on_c, 0, 73, 47
2, 33737, Note_on_c, 0, 64, 0
2, 33764, Control_c, 0, 64, 127
2, 33908, Control_c, 0, 64, 0
2, 33929, Note_on_c, 0, 33, 0
2, 33929, Note_on_c, 0, 45, 0
2, 33936, Note_on_c, 0, 61, 47
2, 33944, Note_on_c, 0, 64, 44
2, 33960, Note_on_c, 0, 69, 45
2, 33961, Note_on_c, 0, 61, 0
2, 33967, Note_on_c, 0, 64, 0
2, 33984, Note_on_c, 0, 69, 0
2, 34152, Note_on_c, 0, 52, 41
2, 34159, Note_on_c, 0, 57, 43
2, 34173, Note_on_c, 0, 52, 0
2, 34175, Note_on_c, 0, 61, 44
2, 34180, Note_on_c, 0, 57, 0
2, 34180, Note_on_c, 0, 64, 46
2, 34196, Note_on_c, 0, 61, 0
2, 34203, Note_on_c, 0, 64, 0
2, 34258, Note_on_c, 0, 73, 0
2, 34266, Note_on_c, 0, 74, 54
2, 34277, Control_c, 0, 64, 127
2, 34363, Note_on_c, 0, 75, 54
2, 34378, Control_c, 0, 64, 0
2, 34386, Note_on_c, 0, 74, 0
2, 34440, Note_on_c, 0, 76, 48
2, 34493, Note_on_c, 0, 75, 0
2, 34505, Note_on_c, 0, 37, 48
2, 34509, Note_on_c, 0, 49, 43
2, 34526, Note_on_c, 0, 81, 61
2, 34563, Note_on_c, 0, 76, 0
2, 34586, Control_c, 0, 64, 127
2, 34750, Control_c, 0, 64, 0
2, 34753, Note_on_c, 0, 69, 47
2, 34767, Note_on_c, 0, 73, 44
2, 34794, Note_on_c, 0, 37, 0
2, 34796, Note_on_c, 0, 69, 0
2, 34796, Note_on_c, 0, 73, 0
2, 34796, Note_on_c, 0, 49, 0
2, 34796, Note_on_c, 0, 76, 65
2, 34798, Note_on_c, 0, 81, 0
2, 34926, Note_on_c, 0, 57, 50
2, 34940, Note_on_c, 0, 61, 51
2, 34942, Note_on_c, 0, 57, 0
2, 34949, Note_on_c, 0, 64, 47
2, 34957, Note_on_c, 0, 61, 0
2, 34957, Note_on_c, 0, 69, 48
2, 34965, Note_on_c, 0, 64, 0
2, 34970, Note_on_c, 0, 74, 65
2, 34980, Note_on_c, 0, 69, 0
2, 34999, Control_c, 0, 64, 127
2, 35003, Note_on_c, 0, 76, 0
2, 35075, Control_c, 0, 64, 0
2, 35137, Note_on_c, 0, 73, 55
2, 35175, Note_on_c, 0, 74, 0
2, 35268, Note_on_c, 0, 38, 41
2, 35285, Note_on_c, 0, 50, 45
2, 35295, Note_on_c, 0, 71, 68
2, 35318, Control_c, 0, 64, 127
2, 35322, Note_on_c, 0, 73, 0
2, 35394, Control_c, 0, 64, 0
2, 35417, Note_on_c, 0, 38, 0
2, 35419, Note_on_c, 0, 50, 0
2, 35440, Note_on_c, 0, 59, 47
2, 35449, Note_on_c, 0, 62, 41
2, 35457, Note_on_c, 0, 59, 0
2, 35459, Note_on_c, 0, 66, 45
2, 35465, Note_on_c, 0, 62, 0
2, 35482, Note_on_c, 0, 66, 0
2, 35590, Note_on_c, 0, 50, 48
2, 35595, Note_on_c, 0, 54, 42
2, 35607, Note_on_c, 0, 50, 0
2, 35613, Note_on_c, 0, 54, 0
2, 35615, Note_on_c, 0, 59, 46
2, 35628, Note_on_c, 0, 59, 0
2, 35628, Note_on_c, 0, 62, 48
2, 35645, Note_on_c, 0, 62, 0
2, 35678, Control_c, 0, 64, 127
2, 35779, Note_on_c, 0, 74, 54
2, 35878, Control_c, 0, 64, 0
2, 35885, Note_on_c, 0, 35, 46
2, 35899, Note_on_c, 0, 71, 0
2, 35901, Note_on_c, 0, 47, 47
2, 35936, Note_on_c, 0, 78, 58
2, 35967, Note_on_c, 0, 74, 0
2, 35988, Note_on_c, 0, 35, 0
2, 36003, Note_on_c, 0, 47, 0
2, 36052, Note_on_c, 0, 66, 41
2, 36068, Note_on_c, 0, 71, 46
2, 36077, Note_on_c, 0, 66, 0
2, 36085, Note_on_c, 0, 74, 41
2, 36095, Note_on_c, 0, 71, 0
2, 36110, Note_on_c, 0, 74, 0
2, 36193, Note_on_c, 0, 59, 45
2, 36215, Note_on_c, 0, 59, 0
2, 36215, Note_on_c, 0, 62, 48
2, 36230, Note_on_c, 0, 66, 42
2, 36240, Note_on_c, 0, 62, 0
2, 36247, Note_on_c, 0, 71, 46
2, 36255, Note_on_c, 0, 66, 0
2, 36257, Control_c, 0, 64, 127
2, 36270, Note_on_c, 0, 71, 0
2, 36348, Control_c, 0, 64, 0
2, 36399, Note_on_c, 0, 74, 65
2, 36440, Note_on_c, 0, 78, 0
2, 36510, Note_on_c, 0, 32, 44
2, 36526, Note_on_c, 0, 44, 45
2, 36552, Note_on_c, 0, 71, 67
2, 36562, Control_c, 0, 64, 127
2, 36591, Note_on_c, 0, 74, 0
2, 36608, Control_c, 0, 64, 0
2, 36657, Note_on_c, 0, 32, 0
2, 36659, Note_on_c, 0, 44, 0
2, 36672, Note_on_c, 0, 62, 53
2, 36682, Note_on_c, 0, 64, 49
2, 36690, Note_on_c, 0, 62, 0
2, 36696, Note_on_c, 0, 64, 0
2, 36697, Note_on_c, 0, 68, 55
2, 36713, Note_on_c, 0, 68, 0
2, 36826, Note_on_c, 0, 52, 48
2, 36843, Note_on_c, 0, 59, 48
2, 36845, Note_on_c, 0, 52, 0
2, 36847, Note_on_c, 0, 62, 51
2, 36859, Note_on_c, 0, 64, 54
2, 36861, Note_on_c, 0, 62, 0
2, 36861, Note_on_c, 0, 59, 0
2, 36876, Note_on_c, 0, 64, 0
2, 36963, Note_on_c, 0, 70, 48
2, 36986, Note_on_c, 0, 71, 0
2, 37011, Control_c, 0, 64, 127
2, 37049, Note_on_c, 0, 70, 0
2, 37053, Note_on_c, 0, 71, 53
2, 37078, Control_c, 0, 64, 0
2, 37121, Note_on_c, 0, 72, 67
2, 37152, Note_on_c, 0, 71, 0
2, 37167, Note_on_c, 0, 33, 47
2, 37173, Note_on_c, 0, 72, 0
2, 37180, Note_on_c, 0, 73, 63
2, 37184, Note_on_c, 0, 45, 44
2, 37250, Control_c, 0, 64, 127
2, 37309, Note_on_c, 0, 33, 0
2, 37313, Note_on_c, 0, 73, 0
2, 37317, Note_on_c, 0, 45, 0
2, 37328, Note_on_c, 0, 64, 48
2, 37334, Control_c, 0, 64, 0
2, 37338, Note_on_c, 0, 69, 54
2, 37344, Note_on_c, 0, 64, 0
2, 37353, Note_on_c, 0, 73, 49
2, 37365, Note_on_c, 0, 69, 0
2, 37368, Note_on_c, 0, 73, 0
2, 37382, Note_on_c, 0, 76, 67
2, 37518, Note_on_c, 0, 57, 43
2, 37524, Note_on_c, 0, 61, 45
2, 37532, Note_on_c, 0, 57, 0
2, 37534, Note_on_c, 0, 74, 63
2, 37537, Note_on_c, 0, 64, 45
2, 37539, Note_on_c, 0, 61, 0
2, 37553, Note_on_c, 0, 69, 45
2, 37555, Note_on_c, 0, 64, 0
2, 37570, Note_on_c, 0, 69, 0
2, 37609, Note_on_c, 0, 76, 0
2, 37609, Control_c, 0, 64, 127
2, 37678, Note_on_c, 0, 73, 65
2, 37689, Control_c, 0, 64, 0
2, 37730, Note_on_c, 0, 74, 0
2, 37812, Note_on_c, 0, 42, 46
2, 37820, Note_on_c, 0, 54, 46
2, 37822, Note_on_c, 0, 71, 65
2, 37833, Note_on_c, 0, 73, 0
2, 37850, Note_on_c, 0, 42, 0
2, 37858, Note_on_c, 0, 54, 0
2, 37862, Control_c, 0, 64, 127
2, 37924, Control_c, 0, 64, 0
2, 37928, Note_on_c, 0, 59, 54
2, 37951, Note_on_c, 0, 59, 0
2, 37953, Note_on_c, 0, 63, 47
2, 37967, Note_on_c, 0, 66, 43
2, 37974, Note_on_c, 0, 63, 0
2, 37984, Note_on_c, 0, 66, 0
2, 37990, Note_on_c, 0, 69, 66
2, 38064, Note_on_c, 0, 71, 0
2, 38134, Note_on_c, 0, 54, 50
2, 38141, Note_on_c, 0, 57, 54
2, 38149, Note_on_c, 0, 54, 0
2, 38151, Note_on_c, 0, 59, 54
2, 38159, Note_on_c, 0, 57, 0
2, 38164, Note_on_c, 0, 63, 53
2, 38166, Note_on_c, 0, 59, 0
2, 38166, Note_on_c, 0, 68, 60
2, 38184, Note_on_c, 0, 63, 0
2, 38199, Note_on_c, 0, 69, 0
2, 38207, Control_c, 0, 64, 127
2, 38277, Control_c, 0, 64, 0
2, 38339, Note_on_c, 0, 69, 60
2, 38411, Note_on_c, 0, 68, 0
2, 38444, Note_on_c, 0, 40, 45
2, 38461, Note_on_c, 0, 52, 44
2, 38500, Note_on_c, 0, 73, 49
2, 38565, Note_on_c, 0, 69, 0
2, 38580, Control_c, 0, 64, 127
2, 38637, Note_on_c, 0, 40, 0
2, 38637, Note_on_c, 0, 52, 0
2, 38640, Control_c, 0, 64, 0
2, 38669, Note_on_c, 0, 61, 45
2, 38679, Note_on_c, 0, 64, 42
2, 38694, Note_on_c, 0, 61, 0
2, 38694, Note_on_c, 0, 69, 53
2, 38700, Note_on_c, 0, 64, 0
2, 38719, Note_on_c, 0, 69, 0
2, 38850, Note_on_c, 0, 59, 44
2, 38871, Note_on_c, 0, 62, 41
2, 38873, Note_on_c, 0, 59, 0
2, 38879, Note_on_c, 0, 64, 47
2, 38894, Note_on_c, 0, 62, 0
2, 38900, Note_on_c, 0, 71, 47
2, 38902, Note_on_c, 0, 64, 0
2, 38907, Note_on_c, 0, 68, 45
2, 38921, Note_on_c, 0, 73, 0
2, 38936, Control_c, 0, 64, 127
2, 38965, Note_on_c, 0, 68, 0
2, 39022, Control_c, 0, 64, 0
2, 39086, Note_on_c, 0, 71, 0
2, 39152, Note_on_c, 0, 64, 45
2, 39251, Note_on_c, 0, 33, 43
2, 39290, Note_on_c, 0, 45, 45
2, 39317, Control_c, 0, 64, 127
2, 39357, Note_on_c, 0, 73, 64
2, 39370, Note_on_c, 0, 64, 0
2, 39491, Control_c, 0, 64, 0
2, 39518, Note_on_c, 0, 61, 48
2, 39533, Note_on_c, 0, 33, 0
2, 39535, Note_on_c, 0, 45, 0
2, 39535, Note_on_c, 0, 64, 53
2, 39545, Note_on_c, 0, 61, 0
2, 39551, Note_on_c, 0, 67, 42
2, 39560, Note_on_c, 0, 64, 0
2, 39566, Note_on_c, 0, 69, 46
2, 39581, Note_on_c, 0, 67, 0
2, 39589, Note_on_c, 0, 69, 0
2, 39678, Note_on_c, 0, 55, 54
2, 39694, Note_on_c, 0, 55, 0
2, 39701, Note_on_c, 0, 57, 54
2, 39715, Note_on_c, 0, 57, 0
2, 39715, Note_on_c, 0, 61, 66
2, 39722, Note_on_c, 0, 64, 59
2, 39730, Note_on_c, 0, 61, 0
2, 39738, Note_on_c, 0, 64, 0
2, 39757, Control_c, 0, 64, 127
2, 39790, Note_on_c, 0, 74, 60
2, 39805, Note_on_c, 0, 73, 0
2, 39822, Control_c, 0, 64, 0
2, 39869, Note_on_c, 0, 75, 66
2, 39890, Note_on_c, 0, 74, 0
2, 39945, Note_on_c, 0, 76, 62
2, 39959, Note_on_c, 0, 75, 0
2, 39978, Note_on_c, 0, 33, 45
2, 39999, Note_on_c, 0, 45, 41
2, 40020, Note_on_c, 0, 81, 67
2, 40037, Note_on_c, 0, 76, 0
2, 40066, Control_c, 0, 64, 127
2, 40179, Note_on_c, 0, 64, 47
2, 40191, Control_c, 0, 64, 0
2, 40195, Note_on_c, 0, 64, 0
2, 40195, Note_on_c, 0, 67, 47
2, 40210, Note_on_c, 0, 69, 53
2, 40218, Note_on_c, 0, 67, 0
2, 40235, Note_on_c, 0, 69, 0
2, 40243, Note_on_c, 0, 76, 66
2, 40307, Note_on_c, 0, 81, 0
2, 40354, Note_on_c, 0, 33, 0
2, 40356, Note_on_c, 0, 45, 0
2, 40373, Note_on_c, 0, 55, 43
2, 40383, Note_on_c, 0, 57, 41
2, 40396, Note_on_c, 0, 55, 0
2, 40398, Note_on_c, 0, 64, 42
2, 40398, Note_on_c, 0, 74, 62
2, 40404, Note_on_c, 0, 57, 0
2, 40421, Note_on_c, 0, 64, 0
2, 40463, Note_on_c, 0, 76, 0
2, 40570, Note_on_c, 0, 73, 59
2, 40642, Note_on_c, 0, 74, 0
2, 40659, Note_on_c, 0, 38, 44
2, 40690, Note_on_c, 0, 50, 45
2, 40709, Control_c, 0, 64, 127
2, 40709, Note_on_c, 0, 71, 70
2, 40727, Note_on_c, 0, 73, 0
2, 40781, Control_c, 0, 64, 0
2, 40806, Note_on_c, 0, 38, 0
2, 40808, Note_on_c, 0, 50, 0
2, 40822, Note_on_c, 0, 59, 47
2, 40837, Note_on_c, 0, 59, 0
2, 40837, Note_on_c, 0, 62, 48
2, 40852, Note_on_c, 0, 62, 0
2, 40860, Note_on_c, 0, 66, 56
2, 40875, Note_on_c, 0, 66, 0
2, 40955, Note_on_c, 0, 50, 51
2, 40965, Note_on_c, 0, 54, 53
2, 40980, Note_on_c, 0, 54, 0
2, 40980, Note_on_c, 0, 50, 0
2, 40980, Note_on_c, 0, 59, 53
2, 40995, Note_on_c, 0, 62, 49
2, 41003, Note_on_c, 0, 59, 0
2, 41011, Note_on_c, 0, 62, 0
2, 41120, Note_on_c, 0, 74, 60
2, 41217, Note_on_c, 0, 38, 50
2, 41236, Note_on_c, 0, 71, 0
2, 41238, Note_on_c, 0, 50, 49
2, 41265, Control_c, 0, 64, 127
2, 41273, Note_on_c, 0, 78, 66
2, 41296, Note_on_c, 0, 74, 0
2, 41328, Control_c, 0, 64, 0
2, 41352, Note_on_c, 0, 38, 0
2, 41361, Note_on_c, 0, 50, 0
2, 41378, Note_on_c, 0, 66, 42
2, 41394, Note_on_c, 0, 71, 56
2, 41403, Note_on_c, 0, 66, 0
2, 41409, Note_on_c, 0, 71, 0
2, 41417, Note_on_c, 0, 74, 60
2, 41434, Note_on_c, 0, 74, 0
2, 41512, Note_on_c, 0, 59, 52
2, 41527, Note_on_c, 0, 59, 0
2, 41527, Note_on_c, 0, 62, 54
2, 41535, Note_on_c, 0, 66, 47
2, 41543, Note_on_c, 0, 62, 0
2, 41550, Note_on_c, 0, 66, 0
2, 41550, Note_on_c, 0, 71, 47
2, 41566, Note_on_c, 0, 71, 0
2, 41581, Control_c, 0, 64, 127
2, 41661, Control_c, 0, 64, 0
2, 41672, Note_on_c, 0, 74, 55
2, 41713, Note_on_c, 0, 78, 0
2, 41729, Note_on_c, 0, 39, 49
2, 41770, Note_on_c, 0, 51, 49
2, 41803, Note_on_c, 0, 74, 0
2, 41808, Note_on_c, 0, 71, 66
2, 41833, Control_c, 0, 64, 127
2, 41880, Control_c, 0, 64, 0
2, 41905, Note_on_c, 0, 51, 0
2, 41905, Note_on_c, 0, 39, 0
2, 41921, Note_on_c, 0, 59, 50
2, 41936, Note_on_c, 0, 59, 0
2, 41936, Note_on_c, 0, 66, 54
2, 41953, Note_on_c, 0, 66, 0
2, 41953, Note_on_c, 0, 69, 54
2, 41976, Note_on_c, 0, 69, 0
2, 42043, Note_on_c, 0, 57, 53
2, 42050, Note_on_c, 0, 59, 51
2, 42058, Note_on_c, 0, 57, 0
2, 42066, Note_on_c, 0, 59, 0
2, 42066, Note_on_c, 0, 66, 52
2, 42085, Note_on_c, 0, 66, 0
2, 42196, Note_on_c, 0, 75, 72
2, 42263, Note_on_c, 0, 35, 48
2, 42272, Note_on_c, 0, 71, 0
2, 42280, Note_on_c, 0, 47, 49
2, 42309, Control_c, 0, 64, 127
2, 42328, Note_on_c, 0, 78, 72
2, 42351, Note_on_c, 0, 75, 0
2, 42360, Control_c, 0, 64, 0
2, 42391, Note_on_c, 0, 35, 0
2, 42391, Note_on_c, 0, 47, 0
2, 42416, Note_on_c, 0, 66, 43
2, 42430, Note_on_c, 0, 69, 49
2, 42432, Note_on_c, 0, 66, 0
2, 42435, Note_on_c, 0, 71, 51
2, 42445, Note_on_c, 0, 69, 0
2, 42453, Note_on_c, 0, 71, 0
2, 42458, Note_on_c, 0, 75, 49
2, 42476, Note_on_c, 0, 75, 0
2, 42536, Note_on_c, 0, 63, 49
2, 42553, Note_on_c, 0, 63, 0
2, 42559, Note_on_c, 0, 66, 48
2, 42559, Note_on_c, 0, 69, 51
2, 42576, Note_on_c, 0, 66, 0
2, 42576, Note_on_c, 0, 71, 52
2, 42584, Note_on_c, 0, 69, 0
2, 42601, Note_on_c, 0, 71, 0
2, 42621, Control_c, 0, 64, 127
2, 42730, Note_on_c, 0, 71, 70
2, 42745, Note_on_c, 0, 78, 0
2, 42810, Note_on_c, 0, 40, 44
2, 42840, Control_c, 0, 64, 0
2, 42840, Note_on_c, 0, 52, 57
2, 42907, Note_on_c, 0, 81, 70
2, 42952, Note_on_c, 0, 71, 0
2, 43041, Note_on_c, 0, 71, 50
2, 43055, Note_on_c, 0, 74, 46
2, 43072, Note_on_c, 0, 76, 45
2, 43101, Note_on_c, 0, 80, 74
2, 43148, Note_on_c, 0, 40, 0
2, 43150, Note_on_c, 0, 52, 0
2, 43157, Note_on_c, 0, 81, 0
2, 43165, Note_on_c, 0, 62, 57
2, 43180, Note_on_c, 0, 62, 0
2, 43180, Note_on_c, 0, 71, 0
2, 43184, Note_on_c, 0, 64, 55
2, 43188, Note_on_c, 0, 74, 0
2, 43188, Note_on_c, 0, 76, 0
2, 43201, Note_on_c, 0, 64, 0
2, 43213, Note_on_c, 0, 78, 73
2, 43228, Note_on_c, 0, 68, 44
2, 43228, Note_on_c, 0, 71, 45
2, 43253, Note_on_c, 0, 71, 0
2, 43253, Note_on_c, 0, 68, 0
2, 43276, Note_on_c, 0, 80, 0
2, 43292, Note_on_c, 0, 68, 48
2, 43315, Note_on_c, 0, 71, 49
2, 43328, Note_on_c, 0, 74, 45
2, 43361, Note_on_c, 0, 76, 74
2, 43398, Control_c, 0, 64, 127
2, 43417, Note_on_c, 0, 78, 0
2, 43463, Note_on_c, 0, 40, 51
2, 43478, Note_on_c, 0, 52, 49
2, 43523, Note_on_c, 0, 74, 0
2, 43523, Note_on_c, 0, 68, 0
2, 43523, Note_on_c, 0, 71, 0
2, 43531, Note_on_c, 0, 85, 68
2, 43538, Control_c, 0, 64, 0
2, 43546, Note_on_c, 0, 76, 0
2, 43684, Note_on_c, 0, 73, 42
2, 43700, Note_on_c, 0, 76, 42
2, 43735, Note_on_c, 0, 81, 69
2, 43749, Control_c, 0, 64, 127
2, 43751, Note_on_c, 0, 85, 0
2, 43772, Note_on_c, 0, 73, 0
2, 43797, Note_on_c, 0, 52, 0
2, 43797, Note_on_c, 0, 40, 0
2, 43797, Control_c, 0, 64, 0
2, 43802, Note_on_c, 0, 61, 53
2, 43812, Note_on_c, 0, 76, 0
2, 43812, Note_on_c, 0, 64, 54
2, 43820, Note_on_c, 0, 61, 0
2, 43825, Note_on_c, 0, 64, 0
2, 43841, Note_on_c, 0, 69, 44
2, 43848, Note_on_c, 0, 73, 47
2, 43864, Note_on_c, 0, 69, 0
2, 43873, Note_on_c, 0, 73, 0
2, 43879, Note_on_c, 0, 80, 62
2, 43926, Note_on_c, 0, 81, 0
2, 43973, Note_on_c, 0, 69, 46
2, 43994, Note_on_c, 0, 73, 42
2, 44014, Note_on_c, 0, 69, 0
2, 44027, Note_on_c, 0, 78, 61
2, 44029, Note_on_c, 0, 73, 0
2, 44088, Note_on_c, 0, 80, 0
2, 44107, Note_on_c, 0, 40, 46
2, 44146, Note_on_c, 0, 52, 45
2, 44154, Note_on_c, 0, 76, 61
2, 44169, Note_on_c, 0, 78, 0
2, 44181, Control_c, 0, 64, 127
2, 44266, Control_c, 0, 64, 0
2, 44281, Note_on_c, 0, 40, 0
2, 44281, Note_on_c, 0, 52, 0
2, 44308, Note_on_c, 0, 64, 55
2, 44326, Note_on_c, 0, 68, 60
2, 44328, Note_on_c, 0, 64, 0
2, 44341, Note_on_c, 0, 68, 0
2, 44345, Note_on_c, 0, 71, 60
2, 44400, Note_on_c, 0, 76, 0
2, 44443, Note_on_c, 0, 59, 49
2, 44460, Note_on_c, 0, 59, 0
2, 44460, Note_on_c, 0, 62, 52
2, 44475, Note_on_c, 0, 62, 0
2, 44475, Note_on_c, 0, 64, 54
2, 44493, Note_on_c, 0, 64, 0
2, 44498, Note_on_c, 0, 73, 63
2, 44506, Note_on_c, 0, 68, 43
2, 44539, Note_on_c, 0, 68, 0
2, 44556, Note_on_c, 0, 71, 0
2, 44564, Control_c, 0, 64, 127
2, 44663, Note_on_c, 0, 64, 47
2, 44678, Note_on_c, 0, 73, 0
2, 44678, Note_on_c, 0, 68, 50
2, 44686, Note_on_c, 0, 64, 0
2, 44686, Control_c, 0, 64, 0
2, 44701, Note_on_c, 0, 68, 0
2, 44714, Note_on_c, 0, 76, 54
2, 44745, Note_on_c, 0, 76, 0
2, 44753, Note_on_c, 0, 74, 61
2, 44874, Note_on_c, 0, 33, 44
2, 44874, Note_on_c, 0, 73, 61
2, 44893, Note_on_c, 0, 74, 0
2, 44914, Control_c, 0, 64, 127
2, 44914, Note_on_c, 0, 45, 46
2, 44990, Control_c, 0, 64, 0
2, 45003, Note_on_c, 0, 61, 48
2, 45015, Note_on_c, 0, 64, 42
2, 45028, Note_on_c, 0, 33, 0
2, 45034, Note_on_c, 0, 69, 44
2, 45036, Note_on_c, 0, 61, 0
2, 45036, Note_on_c, 0, 45, 0
2, 45044, Note_on_c, 0, 64, 0
2, 45059, Note_on_c, 0, 69, 0
2, 45154, Control_c, 0, 67, 0
2, 45158, Note_on_c, 0, 57, 46
2, 45168, Note_on_c, 0, 61, 59
2, 45183, Note_on_c, 0, 57, 0
2, 45183, Note_on_c, 0, 64, 54
2, 45191, Note_on_c, 0, 61, 0
2, 45198, Note_on_c, 0, 64, 0
2, 45238, Note_on_c, 0, 73, 0
2, 45243, Note_on_c, 0, 64, 54
2, 45261, Note_on_c, 0, 69, 45
2, 45284, Note_on_c, 0, 73, 46
2, 45307, Note_on_c, 0, 76, 66
2, 45402, Note_on_c, 0, 73, 0
2, 45402, Note_on_c, 0, 64, 0
2, 45402, Note_on_c, 0, 69, 0
2, 45415, Note_on_c, 0, 40, 56
2, 45415, Note_on_c, 0, 52, 59
2, 45417, Note_on_c, 0, 76, 0
2, 45436, Note_on_c, 0, 81, 63
2, 45450, Control_c, 0, 64, 127
2, 45533, Note_on_c, 0, 71, 48
2, 45549, Note_on_c, 0, 74, 42
2, 45556, Note_on_c, 0, 71, 0
2, 45556, Control_c, 0, 64, 0
2, 45562, Note_on_c, 0, 76, 48
2, 45570, Note_on_c, 0, 74, 0
2, 45583, Note_on_c, 0, 80, 66
2, 45585, Note_on_c, 0, 76, 0
2, 45651, Note_on_c, 0, 81, 0
2, 45657, Note_on_c, 0, 62, 46
2, 45672, Note_on_c, 0, 64, 45
2, 45674, Note_on_c, 0, 62, 0
2, 45674, Note_on_c, 0, 40, 0
2, 45674, Note_on_c, 0, 52, 0
2, 45688, Note_on_c, 0, 64, 0
2, 45688, Note_on_c, 0, 68, 54
2, 45705, Note_on_c, 0, 68, 0
2, 45711, Note_on_c, 0, 71, 61
2, 45711, Note_on_c, 0, 78, 56
2, 45736, Note_on_c, 0, 71, 0
2, 45777, Note_on_c, 0, 80, 0
2, 45781, Note_on_c, 0, 68, 45
2, 45802, Note_on_c, 0, 71, 44
2, 45827, Note_on_c, 0, 74, 42
2, 45848, Note_on_c, 0, 76, 45
2, 45867, Note_on_c, 0, 78, 0
2, 45873, Control_c, 0, 64, 127
2, 45898, Control_c, 0, 67, 127
2, 45964, Note_on_c, 0, 37, 45
2, 45978, Note_on_c, 0, 49, 46
2, 45980, Note_on_c, 0, 74, 0
2, 45980, Note_on_c, 0, 68, 0
2, 45980, Note_on_c, 0, 71, 0
2, 46008, Control_c, 0, 64, 0
2, 46033, Note_on_c, 0, 76, 0
2, 46039, Note_on_c, 0, 85, 49
2, 46215, Note_on_c, 0, 73, 46
2, 46244, Note_on_c, 0, 76, 43
2, 46259, Note_on_c, 0, 37, 0
2, 46272, Note_on_c, 0, 81, 59
2, 46274, Note_on_c, 0, 73, 0
2, 46274, Note_on_c, 0, 49, 0
2, 46290, Note_on_c, 0, 76, 0
2, 46290, Note_on_c, 0, 85, 0
2, 46333, Control_c, 0, 64, 127
2, 46409, Note_on_c, 0, 51, 43
2, 46426, Control_c, 0, 64, 0
2, 46426, Note_on_c, 0, 54, 45
2, 46436, Note_on_c, 0, 51, 0
2, 46440, Note_on_c, 0, 57, 44
2, 46447, Note_on_c, 0, 54, 0
2, 46455, Note_on_c, 0, 80, 61
2, 46463, Note_on_c, 0, 60, 42
2, 46464, Note_on_c, 0, 57, 0
2, 46472, Note_on_c, 0, 81, 0
2, 46501, Note_on_c, 0, 60, 0
2, 46616, Note_on_c, 0, 69, 47
2, 46632, Note_on_c, 0, 72, 54
2, 46637, Note_on_c, 0, 75, 48
2, 46653, Note_on_c, 0, 72, 0
2, 46653, Note_on_c, 0, 69, 0
2, 46658, Note_on_c, 0, 78, 60
2, 46670, Note_on_c, 0, 75, 0
2, 46717, Note_on_c, 0, 80, 0
2, 46777, Note_on_c, 0, 40, 42
2, 46785, Note_on_c, 0, 52, 41
2, 46816, Note_on_c, 0, 40, 0
2, 46824, Note_on_c, 0, 52, 0
2, 46825, Note_on_c, 0, 78, 0
2, 46829, Note_on_c, 0, 76, 65
2, 46837, Control_c, 0, 64, 127
2, 46928, Control_c, 0, 64, 0
2, 46975, Note_on_c, 0, 59, 42
2, 46981, Note_on_c, 0, 62, 42
2, 46989, Note_on_c, 0, 64, 44
2, 46998, Note_on_c, 0, 59, 0
2, 47008, Note_on_c, 0, 62, 0
2, 47016, Note_on_c, 0, 64, 0
2, 47016, Note_on_c, 0, 68, 43
2, 47035, Note_on_c, 0, 71, 64
2, 47037, Note_on_c, 0, 68, 0
2, 47069, Note_on_c, 0, 76, 0
2, 47251, Note_on_c, 0, 62, 42
2, 47266, Note_on_c, 0, 64, 47
2, 47278, Note_on_c, 0, 62, 0
2, 47283, Note_on_c, 0, 68, 48
2, 47293, Note_on_c, 0, 64, 0
2, 47299, Note_on_c, 0, 68, 0
2, 47304, Note_on_c, 0, 74, 53
2, 47369, Note_on_c, 0, 71, 0
2, 47443, Control_c, 0, 64, 127
2, 47577, Note_on_c, 0, 68, 41
2, 47640, Note_on_c, 0, 74, 0
2, 47677, Note_on_c, 0, 33, 47
2, 47716, Note_on_c, 0, 45, 43
2, 47732, Control_c, 0, 64, 0
2, 47753, Note_on_c, 0, 69, 54
2, 47770, Note_on_c, 0, 68, 0
2, 47880, Note_on_c, 0, 57, 52
2, 47887, Note_on_c, 0, 61, 54
2, 47895, Note_on_c, 0, 57, 0
2, 47903, Note_on_c, 0, 33, 0
2, 47903, Note_on_c, 0, 61, 0
2, 47903, Note_on_c, 0, 45, 0
2, 47910, Note_on_c, 0, 64, 48
2, 47926, Note_on_c, 0, 64, 0
2, 48056, Note_on_c, 0, 61, 53
2, 48066, Note_on_c, 0, 64, 54
2, 48079, Note_on_c, 0, 61, 0
2, 48089, Note_on_c, 0, 64, 0
2, 48095, Note_on_c, 0, 67, 63
2, 48138, Control_c, 0, 64, 127
2, 48272, Control_c, 0, 64, 0
2, 48289, Note_on_c, 0, 70, 51
2, 48299, Note_on_c, 0, 67, 0
2, 48305, Note_on_c, 0, 69, 0
2, 48412, Note_on_c, 0, 33, 42
2, 48441, Note_on_c, 0, 45, 45
2, 48443, Note_on_c, 0, 71, 60
2, 48462, Note_on_c, 0, 70, 0
2, 48511, Note_on_c, 0, 33, 0
2, 48511, Note_on_c, 0, 45, 0
2, 48525, Note_on_c, 0, 59, 50
2, 48544, Note_on_c, 0, 59, 0
2, 48552, Note_on_c, 0, 62, 54
2, 48565, Note_on_c, 0, 66, 55
2, 48567, Note_on_c, 0, 62, 0
2, 48582, Note_on_c, 0, 66, 0
2, 48690, Note_on_c, 0, 64, 56
2, 48705, Note_on_c, 0, 64, 0
2, 48705, Note_on_c, 0, 67, 47
2, 48726, Note_on_c, 0, 70, 66
2, 48728, Note_on_c, 0, 67, 0
2, 48781, Control_c, 0, 64, 127
2, 48878, Control_c, 0, 64, 0
2, 48903, Note_on_c, 0, 70, 0
2, 48903, Note_on_c, 0, 73, 60
2, 48918, Note_on_c, 0, 71, 0
2, 49030, Note_on_c, 0, 33, 42
2, 49053, Note_on_c, 0, 45, 44
2, 49055, Note_on_c, 0, 74, 70
2, 49105, Note_on_c, 0, 73, 0
2, 49158, Note_on_c, 0, 33, 0
2, 49158, Note_on_c, 0, 45, 0
2, 49176, Note_on_c, 0, 62, 58
2, 49187, Note_on_c, 0, 66, 58
2, 49189, Note_on_c, 0, 62, 0
2, 49206, Note_on_c, 0, 66, 0
2, 49206, Note_on_c, 0, 69, 55
2, 49220, Note_on_c, 0, 69, 0
2, 49319, Note_on_c, 0, 66, 54
2, 49332, Note_on_c, 0, 69, 54
2, 49334, Note_on_c, 0, 66, 0
2, 49349, Note_on_c, 0, 69, 0
2, 49349, Note_on_c, 0, 72, 65
2, 49374, Control_c, 0, 64, 127
2, 49475, Note_on_c, 0, 72, 0
2, 49488, Note_on_c, 0, 75, 66
2, 49506, Note_on_c, 0, 74, 0
2, 49521, Control_c, 0, 64, 0
2, 49608, Note_on_c, 0, 40, 44
2, 49644, Note_on_c, 0, 52, 49
2, 49685, Note_on_c, 0, 78, 60
2, 49716, Note_on_c, 0, 75, 0
2, 49741, Control_c, 0, 64, 127
2, 49847, Control_c, 0, 64, 0
2, 49864, Note_on_c, 0, 40, 0
2, 49866, Note_on_c, 0, 52, 0
2, 49866, Note_on_c, 0, 68, 53
2, 49883, Note_on_c, 0, 68, 0
2, 49883, Note_on_c, 0, 71, 52
2, 49900, Note_on_c, 0, 71, 0
2, 49908, Note_on_c, 0, 76, 49
2, 49939, Note_on_c, 0, 78, 0
2, 50016, Note_on_c, 0, 59, 52
2, 50024, Note_on_c, 0, 62, 52
2, 50032, Note_on_c, 0, 64, 48
2, 50034, Note_on_c, 0, 59, 0
2, 50041, Note_on_c, 0, 62, 0
2, 50041, Note_on_c, 0, 68, 43
2, 50049, Note_on_c, 0, 64, 0
2, 50059, Note_on_c, 0, 68, 0
2, 50066, Note_on_c, 0, 74, 60
2, 50082, Note_on_c, 0, 76, 0
2, 50097, Control_c, 0, 64, 127
2, 50205, Control_c, 0, 64, 0
2, 50216, Note_on_c, 0, 71, 58
2, 50265, Note_on_c, 0, 74, 0
2, 50322, Note_on_c, 0, 33, 43
2, 50347, Note_on_c, 0, 45, 43
2, 50351, Note_on_c, 0, 71, 0
2, 50356, Note_on_c, 0, 69, 53
2, 50453, Note_on_c, 0, 33, 0
2, 50455, Note_on_c, 0, 45, 0
2, 50469, Note_on_c, 0, 57, 52
2, 50478, Note_on_c, 0, 61, 51
2, 50484, Note_on_c, 0, 64, 50
2, 50486, Note_on_c, 0, 57, 0
2, 50494, Note_on_c, 0, 61, 0
2, 50501, Note_on_c, 0, 64, 0
2, 50592, Note_on_c, 0, 61, 53
2, 50606, Note_on_c, 0, 64, 47
2, 50614, Note_on_c, 0, 61, 0
2, 50623, Note_on_c, 0, 64, 0
2, 50629, Note_on_c, 0, 67, 52
2, 50637, Control_c, 0, 67, 0
2, 50646, Note_on_c, 0, 67, 0
2, 50769, Note_on_c, 0, 69, 0
2, 50775, Note_on_c, 0, 61, 44
2, 50777, Note_on_c, 0, 70, 62
2, 50783, Note_on_c, 0, 52, 47
2, 50784, Note_on_c, 0, 66, 65
2, 50788, Note_on_c, 0, 40, 45
2, 50813, Control_c, 0, 64, 127
2, 50906, Control_c, 0, 64, 0
2, 50924, Note_on_c, 0, 52, 0
2, 50926, Note_on_c, 0, 66, 0
2, 50926, Note_on_c, 0, 61, 0
2, 50926, Note_on_c, 0, 70, 0
2, 50928, Note_on_c, 0, 38, 43
2, 50931, Note_on_c, 0, 50, 46
2, 50933, Note_on_c, 0, 71, 69
2, 50947, Note_on_c, 0, 40, 0
2, 51009, Note_on_c, 0, 38, 0
2, 51011, Note_on_c, 0, 50, 0
2, 51017, Note_on_c, 0, 59, 49
2, 51032, Note_on_c, 0, 59, 0
2, 51040, Note_on_c, 0, 62, 52
2, 51057, Note_on_c, 0, 62, 0
2, 51057, Note_on_c, 0, 66, 58
2, 51071, Note_on_c, 0, 66, 0
2, 51146, Note_on_c, 0, 64, 58
2, 51162, Note_on_c, 0, 64, 0
2, 51162, Note_on_c, 0, 67, 54
2, 51177, Note_on_c, 0, 67, 0
2, 51185, Note_on_c, 0, 70, 63
2, 51204, Note_on_c, 0, 70, 0
2, 51315, Note_on_c, 0, 71, 0
2, 51321, Note_on_c, 0, 64, 45
2, 51321, Note_on_c, 0, 73, 68
2, 51329, Note_on_c, 0, 69, 45
2, 51333, Note_on_c, 0, 43, 55
2, 51333, Note_on_c, 0, 55, 55
2, 51368, Control_c, 0, 64, 127
2, 51431, Control_c, 0, 64, 0
2, 51442, Note_on_c, 0, 55, 0
2, 51446, Note_on_c, 0, 42, 56
2, 51452, Note_on_c, 0, 54, 59
2, 51454, Note_on_c, 0, 74, 67
2, 51465, Note_on_c, 0, 43, 0
2, 51467, Note_on_c, 0, 64, 0
2, 51469, Note_on_c, 0, 73, 0
2, 51469, Note_on_c, 0, 69, 0
2, 51535, Note_on_c, 0, 54, 0
2, 51535, Note_on_c, 0, 42, 0
2, 51549, Note_on_c, 0, 62, 56
2, 51564, Note_on_c, 0, 62, 0
2, 51572, Note_on_c, 0, 66, 57
2, 51585, Note_on_c, 0, 69, 57
2, 51587, Note_on_c, 0, 66, 0
2, 51602, Note_on_c, 0, 69, 0
2, 51684, Note_on_c, 0, 66, 53
2, 51701, Note_on_c, 0, 66, 0
2, 51709, Note_on_c, 0, 69, 48
2, 51732, Note_on_c, 0, 72, 47
2, 51734, Note_on_c, 0, 69, 0
2, 51757, Note_on_c, 0, 72, 0
2, 51850, Note_on_c, 0, 74, 0
2, 51854, Note_on_c, 0, 47, 53
2, 51854, Note_on_c, 0, 59, 56
2, 51856, Note_on_c, 0, 75, 67
2, 51862, Note_on_c, 0, 66, 70
2, 51862, Note_on_c, 0, 69, 71
2, 51862, Note_on_c, 0, 71, 69
2, 51883, Control_c, 0, 64, 127
2, 52011, Note_on_c, 0, 40, 48
2, 52017, Control_c, 0, 64, 0
2, 52021, Note_on_c, 0, 47, 0
2, 52023, Note_on_c, 0, 69, 0
2, 52023, Note_on_c, 0, 59, 0
2, 52023, Note_on_c, 0, 66, 0
2, 52025, Note_on_c, 0, 71, 0
2, 52027, Note_on_c, 0, 52, 42
2, 52093, Note_on_c, 0, 78, 65
2, 52116, Note_on_c, 0, 75, 0
2, 52129, Control_c, 0, 67, 127
2, 52272, Note_on_c, 0, 68, 51
2, 52289, Note_on_c, 0, 68, 0
2, 52289, Note_on_c, 0, 71, 48
2, 52293, Note_on_c, 0, 40, 0
2, 52295, Note_on_c, 0, 52, 0
2, 52304, Note_on_c, 0, 76, 65
2, 52306, Note_on_c, 0, 71, 0
2, 52368, Note_on_c, 0, 78, 0
2, 52412, Note_on_c, 0, 59, 48
2, 52429, Note_on_c, 0, 59, 0
2, 52439, Note_on_c, 0, 62, 49
2, 52446, Note_on_c, 0, 64, 49
2, 52454, Note_on_c, 0, 62, 0
2, 52464, Note_on_c, 0, 64, 0
2, 52464, Note_on_c, 0, 68, 59
2, 52464, Note_on_c, 0, 74, 64
2, 52479, Note_on_c, 0, 68, 0
2, 52512, Control_c, 0, 64, 127
2, 52531, Note_on_c, 0, 76, 0
2, 52638, Control_c, 0, 64, 0
2, 52657, Note_on_c, 0, 62, 44
2, 52665, Note_on_c, 0, 64, 47
2, 52675, Note_on_c, 0, 68, 47
2, 52684, Note_on_c, 0, 62, 0
2, 52692, Note_on_c, 0, 64, 0
2, 52698, Note_on_c, 0, 71, 61
2, 52700, Note_on_c, 0, 68, 0
2, 52762, Note_on_c, 0, 74, 0
2, 52872, Note_on_c, 0, 33, 47
2, 52891, Note_on_c, 0, 69, 54
2, 52904, Note_on_c, 0, 45, 44
2, 52923, Note_on_c, 0, 71, 0
2, 52944, Control_c, 0, 64, 127
2, 53028, Note_on_c, 0, 61, 42
2, 53030, Note_on_c, 0, 69, 0
2, 53051, Note_on_c, 0, 64, 41
2, 53080, Note_on_c, 0, 69, 47
2, 53111, Note_on_c, 0, 73, 63
2, 53220, Note_on_c, 0, 52, 48
2, 53222, Note_on_c, 0, 61, 0
2, 53241, Note_on_c, 0, 57, 47
2, 53260, Note_on_c, 0, 64, 0
2, 53262, Note_on_c, 0, 33, 0
2, 53264, Note_on_c, 0, 45, 0
2, 53266, Note_on_c, 0, 52, 0
2, 53268, Note_on_c, 0, 69, 0
2, 53272, Note_on_c, 0, 61, 47
2, 53283, Note_on_c, 0, 76, 66
2, 53316, Note_on_c, 0, 64, 44
2, 53331, Note_on_c, 0, 73, 0
2, 53371, Note_on_c, 0, 76, 0
2, 53400, Note_on_c, 0, 69, 43
2, 53419, Note_on_c, 0, 73, 49
2, 53436, Note_on_c, 0, 76, 48
2, 53459, Control_c, 0, 64, 0
2, 53467, Note_on_c, 0, 81, 68
2, 53590, Note_on_c, 0, 40, 45
2, 53593, Note_on_c, 0, 57, 0
2, 53593, Note_on_c, 0, 64, 0
2, 53593, Note_on_c, 0, 61, 0
2, 53595, Note_on_c, 0, 69, 0
2, 53595, Note_on_c, 0, 73, 0
2, 53597, Note_on_c, 0, 76, 0
2, 53599, Note_on_c, 0, 52, 44
2, 53658, Note_on_c, 0, 80, 59
2, 53675, Note_on_c, 0, 81, 0
2, 53704, Control_c, 0, 64, 127
2, 53811, Control_c, 0, 64, 0
2, 53847, Note_on_c, 0, 40, 0
2, 53862, Note_on_c, 0, 52, 0
2, 53870, Note_on_c, 0, 64, 53
2, 53878, Note_on_c, 0, 68, 46
2, 53885, Note_on_c, 0, 64, 0
2, 53893, Note_on_c, 0, 68, 0
2, 53893, Note_on_c, 0, 71, 41
2, 53908, Note_on_c, 0, 76, 57
2, 53916, Note_on_c, 0, 71, 0
2, 53969, Note_on_c, 0, 80, 0
2, 54035, Note_on_c, 0, 56, 52
2, 54048, Note_on_c, 0, 56, 0
2, 54048, Note_on_c, 0, 59, 54
2, 54064, Note_on_c, 0, 59, 0
2, 54064, Note_on_c, 0, 62, 47
2, 54073, Note_on_c, 0, 64, 53
2, 54075, Note_on_c, 0, 74, 59
2, 54083, Note_on_c, 0, 62, 0
2, 54091, Note_on_c, 0, 64, 0
2, 54091, Control_c, 0, 64, 127
2, 54114, Note_on_c, 0, 76, 0
2, 54205, Control_c, 0, 64, 0
2, 54230, Note_on_c, 0, 62, 47
2, 54245, Note_on_c, 0, 62, 0
2, 54245, Note_on_c, 0, 64, 53
2, 54261, Note_on_c, 0, 64, 0
2, 54266, Note_on_c, 0, 68, 59
2, 54284, Note_on_c, 0, 71, 60
2, 54286, Note_on_c, 0, 68, 0
2, 54360, Note_on_c, 0, 74, 0
2, 54424, Note_on_c, 0, 33, 46
2, 54435, Note_on_c, 0, 71, 0
2, 54439, Note_on_c, 0, 45, 42
2, 54441, Note_on_c, 0, 69, 59
2, 54482, Control_c, 0, 64, 127
2, 54574, Note_on_c, 0, 69, 0
2, 54577, Note_on_c, 0, 61, 45
2, 54610, Note_on_c, 0, 64, 47
2, 54633, Note_on_c, 0, 69, 44
2, 54664, Note_on_c, 0, 73, 61
2, 54753, Note_on_c, 0, 52, 44
2, 54761, Note_on_c, 0, 61, 0
2, 54782, Note_on_c, 0, 57, 48
2, 54795, Note_on_c, 0, 69, 0
2, 54795, Note_on_c, 0, 64, 0
2, 54805, Note_on_c, 0, 33, 0
2, 54807, Note_on_c, 0, 45, 0
2, 54809, Note_on_c, 0, 52, 0
2, 54815, Note_on_c, 0, 61, 43
2, 54836, Note_on_c, 0, 76, 71
2, 54853, Note_on_c, 0, 64, 45
2, 54892, Note_on_c, 0, 73, 0
2, 54930, Note_on_c, 0, 69, 46
2, 54941, Note_on_c, 0, 76, 0
2, 54960, Note_on_c, 0, 73, 45
2, 54993, Note_on_c, 0, 76, 48
2, 55010, Control_c, 0, 64, 0
2, 55024, Note_on_c, 0, 81, 68
2, 55137, Note_on_c, 0, 40, 45
2, 55139, Note_on_c, 0, 57, 0
2, 55139, Note_on_c, 0, 61, 0
2, 55141, Note_on_c, 0, 64, 0
2, 55145, Note_on_c, 0, 52, 50
2, 55194, Note_on_c, 0, 69, 0
2, 55194, Note_on_c, 0, 73, 0
2, 55194, Note_on_c, 0, 76, 0
2, 55194, Note_on_c, 0, 80, 54
2, 55211, Note_on_c, 0, 81, 0
2, 55232, Control_c, 0, 64, 127
2, 55308, Control_c, 0, 64, 0
2, 55341, Note_on_c, 0, 64, 54
2, 55356, Note_on_c, 0, 40, 0
2, 55358, Note_on_c, 0, 52, 0
2, 55360, Note_on_c, 0, 64, 0
2, 55366, Note_on_c, 0, 68, 49
2, 55373, Note_on_c, 0, 71, 46
2, 55381, Note_on_c, 0, 68, 0
2, 55391, Note_on_c, 0, 71, 0
2, 55396, Note_on_c, 0, 76, 54
2, 55451, Note_on_c, 0, 80, 0
2, 55513, Note_on_c, 0, 56, 41
2, 55531, Note_on_c, 0, 59, 47
2, 55538, Note_on_c, 0, 56, 0
2, 55538, Note_on_c, 0, 62, 41
2, 55546, Note_on_c, 0, 74, 49
2, 55552, Note_on_c, 0, 59, 0
2, 55554, Note_on_c, 0, 64, 41
2, 55561, Note_on_c, 0, 62, 0
2, 55577, Note_on_c, 0, 64, 0
2, 55579, Control_c, 0, 64, 127
2, 55586, Note_on_c, 0, 76, 0
2, 55683, Control_c, 0, 64, 0
2, 55703, Note_on_c, 0, 62, 46
2, 55708, Note_on_c, 0, 64, 46
2, 55722, Note_on_c, 0, 62, 0
2, 55729, Note_on_c, 0, 68, 49
2, 55739, Note_on_c, 0, 64, 0
2, 55747, Note_on_c, 0, 68, 0
2, 55752, Note_on_c, 0, 71, 54
2, 55807, Note_on_c, 0, 74, 0
2, 55873, Note_on_c, 0, 33, 48
2, 55889, Note_on_c, 0, 45, 46
2, 55906, Note_on_c, 0, 71, 0
2, 55914, Note_on_c, 0, 73, 59
2, 55941, Control_c, 0, 64, 127
2, 55988, Control_c, 0, 64, 0
2, 56023, Note_on_c, 0, 45, 0
2, 56023, Note_on_c, 0, 33, 0
2, 56040, Note_on_c, 0, 61, 48
2, 56058, Note_on_c, 0, 61, 0
2, 56064, Note_on_c, 0, 64, 48
2, 56081, Note_on_c, 0, 64, 0
2, 56081, Note_on_c, 0, 69, 54
2, 56096, Note_on_c, 0, 69, 0
2, 56221, Note_on_c, 0, 57, 48
2, 56234, Note_on_c, 0, 57, 0
2, 56236, Note_on_c, 0, 61, 50
2, 56257, Note_on_c, 0, 61, 0
2, 56257, Note_on_c, 0, 64, 49
2, 56282, Note_on_c, 0, 64, 0
2, 56376, Note_on_c, 0, 74, 55
2, 56395, Note_on_c, 0, 73, 0
2, 56404, Control_c, 0, 64, 127
2, 56480, Control_c, 0, 64, 0
2, 56480, Note_on_c, 0, 75, 65
2, 56511, Note_on_c, 0, 74, 0
2, 56562, Note_on_c, 0, 76, 53
2, 56594, Note_on_c, 0, 75, 0
2, 56623, Note_on_c, 0, 33, 48
2, 56637, Note_on_c, 0, 45, 47
2, 56639, Note_on_c, 0, 76, 0
2, 56644, Note_on_c, 0, 81, 53
2, 56671, Control_c, 0, 64, 127
2, 56737, Control_c, 0, 64, 0
2, 56745, Note_on_c, 0, 45, 0
2, 56745, Note_on_c, 0, 33, 0
2, 56759, Note_on_c, 0, 69, 47
2, 56774, Note_on_c, 0, 69, 0
2, 56774, Note_on_c, 0, 73, 42
2, 56791, Note_on_c, 0, 73, 0
2, 56801, Note_on_c, 0, 76, 43
2, 56814, Note_on_c, 0, 76, 0
2, 56905, Note_on_c, 0, 61, 53
2, 56923, Note_on_c, 0, 61, 0
2, 56930, Note_on_c, 0, 64, 48
2, 56946, Note_on_c, 0, 64, 0
2, 56955, Note_on_c, 0, 69, 62
2, 57006, Control_c, 0, 64, 127
2, 57082, Note_on_c, 0, 81, 0
2, 57090, Control_c, 0, 64, 0
2, 57090, Note_on_c, 0, 71, 65
2, 57107, Note_on_c, 0, 69, 0
2, 57164, Note_on_c, 0, 72, 63
2, 57179, Note_on_c, 0, 71, 0
2, 57241, Note_on_c, 0, 73, 56
2, 57283, Note_on_c, 0, 72, 0
2, 57288, Note_on_c, 0, 33, 48
2, 57306, Note_on_c, 0, 45, 47
2, 57310, Note_on_c, 0, 73, 0
2, 57315, Note_on_c, 0, 76, 56
2, 57342, Control_c, 0, 64, 127
2, 57405, Note_on_c, 0, 45, 0
2, 57405, Note_on_c, 0, 33, 0
2, 57412, Control_c, 0, 64, 0
2, 57420, Note_on_c, 0, 64, 48
2, 57443, Note_on_c, 0, 64, 0
2, 57451, Note_on_c, 0, 69, 44
2, 57472, Note_on_c, 0, 73, 41
2, 57474, Note_on_c, 0, 69, 0
2, 57495, Note_on_c, 0, 73, 0
2, 57592, Note_on_c, 0, 57, 44
2, 57605, Note_on_c, 0, 57, 0
2, 57613, Note_on_c, 0, 61, 41
2, 57632, Note_on_c, 0, 64, 57
2, 57634, Note_on_c, 0, 61, 0
2, 57687, Control_c, 0, 64, 127
2, 57747, Note_on_c, 0, 64, 0
2, 57747, Note_on_c, 0, 76, 0
2, 57755, Note_on_c, 0, 66, 44
2, 57757, Control_c, 0, 64, 0
2, 57817, Note_on_c, 0, 66, 0
2, 57821, Note_on_c, 0, 68, 53
2, 57895, Note_on_c, 0, 69, 52
2, 57935, Note_on_c, 0, 68, 0
2, 57946, Note_on_c, 0, 33, 44
2, 57952, Note_on_c, 0, 45, 45
2, 57954, Note_on_c, 0, 69, 0
2, 57960, Note_on_c, 0, 73, 52
2, 57967, Control_c, 0, 64, 127
2, 58055, Control_c, 0, 64, 0
2, 58062, Note_on_c, 0, 45, 0
2, 58062, Note_on_c, 0, 33, 0
2, 58078, Note_on_c, 0, 61, 54
2, 58095, Note_on_c, 0, 61, 0
2, 58101, Note_on_c, 0, 64, 48
2, 58118, Note_on_c, 0, 64, 0
2, 58122, Note_on_c, 0, 69, 47
2, 58137, Note_on_c, 0, 69, 0
2, 58219, Note_on_c, 0, 52, 44
2, 58234, Note_on_c, 0, 52, 0
2, 58242, Note_on_c, 0, 57, 45
2, 58265, Note_on_c, 0, 57, 0
2, 58272, Note_on_c, 0, 61, 56
2, 58384, Note_on_c, 0, 73, 0
2, 58386, Note_on_c, 0, 62, 51
2, 58399, Note_on_c, 0, 61, 0
2, 58467, Note_on_c, 0, 63, 53
2, 58485, Note_on_c, 0, 62, 0
2, 58543, Note_on_c, 0, 64, 46
2, 58604, Note_on_c, 0, 63, 0
2, 58627, Note_on_c, 0, 64, 0
2, 58631, Note_on_c, 0, 69, 54
2, 58670, Control_c, 0, 64, 127
2, 58812, Control_c, 0, 64, 0
2, 58825, Note_on_c, 0, 57, 47
2, 58848, Note_on_c, 0, 69, 0
2, 58848, Note_on_c, 0, 61, 44
2, 58868, Note_on_c, 0, 49, 43
2, 58868, Note_on_c, 0, 52, 48
2, 58868, Note_on_c, 0, 64, 48
2, 58870, Note_on_c, 0, 57, 0
2, 58879, Note_on_c, 0, 61, 0
2, 58885, Note_on_c, 0, 52, 0
2, 58885, Note_on_c, 0, 49, 0
2, 58900, Note_on_c, 0, 64, 0
2, 58984, Note_on_c, 0, 61, 41
2, 59003, Note_on_c, 0, 64, 42
2, 59026, Note_on_c, 0, 52, 46
2, 59026, Note_on_c, 0, 57, 46
2, 59026, Note_on_c, 0, 69, 46
2, 59034, Note_on_c, 0, 64, 0
2, 59034, Note_on_c, 0, 61, 0
2, 59043, Note_on_c, 0, 52, 0
2, 59059, Note_on_c, 0, 57, 0
2, 59059, Note_on_c, 0, 69, 0
2, 59125, Note_on_c, 0, 64, 44
2, 59146, Note_on_c, 0, 69, 46
2, 59169, Note_on_c, 0, 73, 41
2, 59171, Note_on_c, 0, 64, 0
2, 59171, Note_on_c, 0, 57, 44
2, 59171, Note_on_c, 0, 61, 43
2, 59184, Note_on_c, 0, 69, 0
2, 59190, Note_on_c, 0, 73, 0
2, 59190, Note_on_c, 0, 57, 0
2, 59200, Note_on_c, 0, 61, 0
2, 59270, Note_on_c, 0, 69, 44
2, 59293, Note_on_c, 0, 73, 47
2, 59308, Note_on_c, 0, 61, 41
2, 59308, Note_on_c, 0, 64, 47
2, 59318, Note_on_c, 0, 76, 46
2, 59320, Note_on_c, 0, 69, 0
2, 59326, Note_on_c, 0, 73, 0
2, 59335, Note_on_c, 0, 64, 0
2, 59335, Note_on_c, 0, 61, 0
2, 59341, Note_on_c, 0, 76, 0
2, 59426, Note_on_c, 0, 73, 46
2, 59451, Note_on_c, 0, 76, 42
2, 59469, Note_on_c, 0, 73, 0
2, 59476, Note_on_c, 0, 81, 44
2, 59482, Note_on_c, 0, 64, 46
2, 59482, Note_on_c, 0, 69, 47
2, 59484, Note_on_c, 0, 76, 0
2, 59499, Note_on_c, 0, 81, 0
2, 59507, Note_on_c, 0, 64, 0
2, 59507, Note_on_c, 0, 69, 0
2, 59604, Note_on_c, 0, 76, 48
2, 59627, Note_on_c, 0, 81, 47
2, 59650, Note_on_c, 0, 76, 0
2, 59656, Note_on_c, 0, 69, 44
2, 59656, Note_on_c, 0, 73, 45
2, 59656, Note_on_c, 0, 85, 45
2, 59665, Note_on_c, 0, 81, 0
2, 59681, Note_on_c, 0, 69, 0
2, 59681, Note_on_c, 0, 73, 0
2, 59681, Note_on_c, 0, 85, 0
2, 59796, Note_on_c, 0, 81, 45
2, 59817, Note_on_c, 0, 85, 43
2, 59821, Note_on_c, 0, 81, 0
2, 59834, Note_on_c, 0, 73, 43
2, 59834, Note_on_c, 0, 76, 42
2, 59844, Note_on_c, 0, 85, 0
2, 59852, Note_on_c, 0, 88, 43
2, 59889, Note_on_c, 0, 88, 0
2, 59889, Note_on_c, 0, 76, 0
2, 59889, Note_on_c, 0, 73, 0
2, 60016, Note_on_c, 0, 85, 46
2, 60043, Note_on_c, 0, 88, 47
2, 60045, Note_on_c, 0, 85, 0
2, 60072, Note_on_c, 0, 73, 46
2, 60072, Note_on_c, 0, 76, 43
2, 60072, Note_on_c, 0, 81, 44
2, 60072, Note_on_c, 0, 93, 48
2, 60081, Note_on_c, 0, 88, 0
2, 60095, Control_c, 0, 64, 127
2, 60142, Control_c, 0, 64, 0
2, 60155, Note_on_c, 0, 76, 0
2, 60176, Note_on_c, 0, 73, 0
2, 60201, Note_on_c, 0, 81, 0
2, 60246, Note_on_c, 0, 93, 0
2, 60375, Control_c, 0, 64, 127
2, 60443, Note_on_c, 0, 57, 43
2, 60480, Note_on_c, 0, 61, 41
2, 60531, Note_on_c, 0, 64, 46
2, 60569, Note_on_c, 0, 69, 46
2, 60592, Control_c, 0, 64, 0
2, 60617, Note_on_c, 0, 76, 54
2, 60638, Note_on_c, 0, 61, 0
2, 60669, Note_on_c, 0, 57, 0
2, 60686, Note_on_c, 0, 64, 0
2, 60701, Note_on_c, 0, 69, 0
2, 60750, Note_on_c, 0, 76, 0
2, 61241, Note_on_c, 0, 33, 46
2, 61250, Note_on_c, 0, 61, 42
2, 61256, Note_on_c, 0, 45, 41
2, 61256, Note_on_c, 0, 64, 45
2, 61256, Note_on_c, 0, 69, 48
2, 61299, Control_c, 0, 64, 127
2, 61708, Control_c, 0, 67, 0
2, 62256, Control_c, 0, 64, 0
2, 62371, Note_on_c, 0, 69, 0
2, 62371, Note_on_c, 0, 45, 0
2, 62371, Note_on_c, 0, 33, 0
2, 62371, Note_on_c, 0, 61, 0
2, 62371, Note_on_c, 0, 64, 0
2, 62371, End_track
3, 0, Start_track
3, 0, Title_t, "c/b Mendelssohn"
3, 0, End_track
4, 0, Start_track
4, 0, Title_t, "p/b Germaine Schnitzer"
4, 0, End_track
5, 0, Start_track
5, 0, Title_t, "Ampico # 61851"
5, 0, End_track
6, 0, Start_track
6, 0, Title_t, "Scan of a player piano roll"
6, 0, End_track
7, 0, Start_track
7, 0, Title_t, "by Terry Smythe, Winnipeg, Canada"
7, 0, End_track
0, 0, End_of_file
