0, 0, Header, 0, 1, 384
1, 0, Start_track
1, 0, Title_t, "Andante and Rondo Capriciosso Op-14 "
1, 0, Time_signature, 4, 2, 24, 8
1, 0, Key_signature, 0, "major"
1, 0, Tempo, 512821
1, 0, Control_c, 0, 7, 115
1, 0, Control_c, 0, 64, 127
1, 0, Note_on_c, 0, 52, 58
1, 6, Note_on_c, 0, 40, 62
1, 557, Note_on_c, 0, 68, 41
1, 570, Note_on_c, 0, 64, 39
1, 576, Note_on_c, 0, 59, 32
1, 680, Note_on_c, 0, 64, 0
1, 712, Note_on_c, 0, 59, 0
1, 721, Note_on_c, 0, 68, 0
1, 941, Note_on_c, 0, 68, 54
1, 952, Note_on_c, 0, 64, 52
1, 955, Note_on_c, 0, 59, 38
1, 1088, Note_on_c, 0, 64, 0
1, 1106, Note_on_c, 0, 59, 0
1, 1127, Note_on_c, 0, 68, 0
1, 1284, Note_on_c, 0, 68, 64
1, 1294, Note_on_c, 0, 59, 53
1, 1298, Note_on_c, 0, 64, 59
1, 1437, Note_on_c, 0, 59, 0
1, 1453, Note_on_c, 0, 64, 0
1, 1482, Note_on_c, 0, 68, 0
1, 1613, Note_on_c, 0, 68, 65
1, 1624, Note_on_c, 0, 59, 58
1, 1624, Note_on_c, 0, 64, 62
1, 1688, Note_on_c, 0, 64, 0
1, 1746, Note_on_c, 0, 59, 0
1, 1796, Note_on_c, 0, 68, 0
1, 1840, Note_on_c, 0, 52, 0
1, 1918, Note_on_c, 0, 68, 63
1, 1935, Note_on_c, 0, 59, 50
1, 1935, Note_on_c, 0, 64, 60
1, 2006, Note_on_c, 0, 64, 0
1, 2041, Note_on_c, 0, 40, 0
1, 2072, Note_on_c, 0, 59, 0
1, 2089, Note_on_c, 0, 68, 0
1, 2267, Note_on_c, 0, 71, 61
1, 2278, Note_on_c, 0, 68, 33
1, 2278, Note_on_c, 0, 64, 43
1, 2284, Note_on_c, 0, 32, 56
1, 2289, Note_on_c, 0, 44, 56
1, 2292, Note_on_c, 0, 59, 28
1, 2311, Control_c, 0, 64, 0
1, 2490, Note_on_c, 0, 68, 0
1, 2498, Note_on_c, 0, 64, 0
1, 2513, Control_c, 0, 64, 127
1, 2532, Note_on_c, 0, 59, 0
1, 2713, Note_on_c, 0, 68, 52
1, 2735, Note_on_c, 0, 59, 29
1, 2741, Note_on_c, 0, 64, 38
1, 2751, Note_on_c, 0, 71, 0
1, 2939, Note_on_c, 0, 59, 0
1, 2974, Note_on_c, 0, 32, 0
1, 2983, Note_on_c, 0, 44, 0
1, 3000, Note_on_c, 0, 64, 0
1, 3010, Note_on_c, 0, 68, 0
1, 3072, Note_on_c, 0, 45, 44
1, 3091, Note_on_c, 0, 33, 49
1, 3173, Control_c, 0, 64, 0
1, 3473, Control_c, 0, 64, 127
1, 3543, Note_on_c, 0, 66, 35
1, 3543, Note_on_c, 0, 54, 37
1, 3554, Note_on_c, 0, 64, 43
1, 3560, Note_on_c, 0, 61, 38
1, 3651, Note_on_c, 0, 64, 0
1, 3658, Note_on_c, 0, 61, 0
1, 3683, Note_on_c, 0, 54, 0
1, 3699, Note_on_c, 0, 66, 0
1, 3892, Note_on_c, 0, 66, 44
1, 3907, Note_on_c, 0, 54, 37
1, 3907, Note_on_c, 0, 61, 37
1, 3927, Note_on_c, 0, 64, 37
1, 3977, Note_on_c, 0, 64, 0
1, 3983, Note_on_c, 0, 61, 0
1, 3997, Note_on_c, 0, 54, 0
1, 4016, Note_on_c, 0, 66, 0
1, 4208, Note_on_c, 0, 66, 50
1, 4208, Note_on_c, 0, 54, 53
1, 4233, Note_on_c, 0, 64, 47
1, 4233, Note_on_c, 0, 61, 40
1, 4278, Note_on_c, 0, 64, 0
1, 4292, Note_on_c, 0, 54, 0
1, 4292, Note_on_c, 0, 61, 0
1, 4321, Note_on_c, 0, 66, 0
1, 4507, Note_on_c, 0, 66, 56
1, 4513, Note_on_c, 0, 54, 57
1, 4521, Note_on_c, 0, 61, 55
1, 4529, Note_on_c, 0, 64, 53
1, 4584, Note_on_c, 0, 64, 0
1, 4590, Note_on_c, 0, 54, 0
1, 4598, Note_on_c, 0, 61, 0
1, 4630, Note_on_c, 0, 66, 0
1, 4818, Note_on_c, 0, 66, 45
1, 4825, Note_on_c, 0, 54, 39
1, 4832, Note_on_c, 0, 61, 43
1, 4832, Note_on_c, 0, 64, 45
1, 4885, Note_on_c, 0, 64, 0
1, 4891, Note_on_c, 0, 54, 0
1, 4899, Note_on_c, 0, 61, 0
1, 4942, Note_on_c, 0, 66, 0
1, 4950, Note_on_c, 0, 45, 0
1, 4960, Note_on_c, 0, 33, 0
1, 5136, Note_on_c, 0, 54, 38
1, 5136, Note_on_c, 0, 46, 49
1, 5136, Note_on_c, 0, 66, 36
1, 5139, Control_c, 0, 64, 0
1, 5144, Note_on_c, 0, 34, 50
1, 5150, Note_on_c, 0, 61, 37
1, 5164, Note_on_c, 0, 64, 36
1, 5226, Note_on_c, 0, 64, 0
1, 5250, Note_on_c, 0, 61, 0
1, 5275, Note_on_c, 0, 54, 0
1, 5281, Note_on_c, 0, 66, 0
1, 5331, Control_c, 0, 64, 127
1, 5474, Note_on_c, 0, 54, 54
1, 5479, Note_on_c, 0, 66, 43
1, 5487, Note_on_c, 0, 61, 46
1, 5504, Note_on_c, 0, 64, 40
1, 5562, Note_on_c, 0, 64, 0
1, 5596, Note_on_c, 0, 54, 0
1, 5608, Note_on_c, 0, 66, 0
1, 5608, Note_on_c, 0, 46, 0
1, 5632, Note_on_c, 0, 34, 0
1, 5632, Note_on_c, 0, 61, 0
1, 5807, Note_on_c, 0, 47, 65
1, 5807, Note_on_c, 0, 54, 39
1, 5812, Note_on_c, 0, 66, 42
1, 5812, Note_on_c, 0, 35, 70
1, 5812, Note_on_c, 0, 59, 51
1, 5818, Note_on_c, 0, 64, 52
1, 5846, Control_c, 0, 64, 0
1, 5980, Note_on_c, 0, 64, 0
1, 5998, Note_on_c, 0, 66, 0
1, 6002, Note_on_c, 0, 59, 0
1, 6002, Note_on_c, 0, 54, 0
1, 6002, Control_c, 0, 64, 127
1, 6144, Note_on_c, 0, 54, 61
1, 6148, Note_on_c, 0, 66, 55
1, 6148, Note_on_c, 0, 59, 51
1, 6164, Note_on_c, 0, 64, 52
1, 6200, Note_on_c, 0, 47, 0
1, 6229, Note_on_c, 0, 59, 0
1, 6257, Note_on_c, 0, 64, 0
1, 6267, Note_on_c, 0, 54, 0
1, 6292, Note_on_c, 0, 35, 0
1, 6306, Note_on_c, 0, 66, 0
1, 6449, Note_on_c, 0, 37, 77
1, 6452, Note_on_c, 0, 49, 62
1, 6456, Note_on_c, 0, 54, 50
1, 6459, Note_on_c, 0, 58, 37
1, 6459, Note_on_c, 0, 66, 46
1, 6465, Note_on_c, 0, 64, 56
1, 6465, Control_c, 0, 64, 0
1, 6610, Note_on_c, 0, 64, 0
1, 6627, Note_on_c, 0, 54, 0
1, 6632, Note_on_c, 0, 66, 0
1, 6636, Control_c, 0, 64, 127
1, 6651, Note_on_c, 0, 58, 0
1, 6791, Note_on_c, 0, 66, 55
1, 6791, Note_on_c, 0, 64, 60
1, 6791, Note_on_c, 0, 54, 60
1, 6796, Note_on_c, 0, 58, 35
1, 6880, Note_on_c, 0, 49, 0
1, 6885, Note_on_c, 0, 54, 0
1, 6885, Note_on_c, 0, 58, 0
1, 6924, Note_on_c, 0, 64, 0
1, 6963, Note_on_c, 0, 66, 0
1, 7109, Note_on_c, 0, 37, 0
1, 7140, Control_c, 0, 64, 0
1, 7151, Note_on_c, 0, 64, 47
1, 7156, Note_on_c, 0, 57, 34
1, 7156, Note_on_c, 0, 66, 41
1, 7156, Note_on_c, 0, 35, 49
1, 7156, Note_on_c, 0, 47, 37
1, 7178, Note_on_c, 0, 59, 16
1, 7298, Note_on_c, 0, 64, 0
1, 7320, Control_c, 0, 64, 127
1, 7335, Note_on_c, 0, 59, 0
1, 7351, Note_on_c, 0, 57, 0
1, 7392, Note_on_c, 0, 66, 0
1, 7476, Note_on_c, 0, 47, 0
1, 7480, Note_on_c, 0, 35, 0
1, 7518, Note_on_c, 0, 66, 54
1, 7532, Note_on_c, 0, 57, 40
1, 7543, Note_on_c, 0, 59, 40
1, 7559, Note_on_c, 0, 64, 42
1, 7682, Note_on_c, 0, 59, 0
1, 7688, Note_on_c, 0, 57, 0
1, 7797, Note_on_c, 0, 64, 0
1, 7930, Note_on_c, 0, 69, 38
1, 7944, Control_c, 0, 64, 0
1, 7955, Note_on_c, 0, 47, 31
1, 7967, Note_on_c, 0, 63, 32
1, 7975, Note_on_c, 0, 35, 40
1, 7984, Note_on_c, 0, 57, 19
1, 7991, Note_on_c, 0, 59, 19
1, 7995, Note_on_c, 0, 66, 0
1, 8167, Note_on_c, 0, 63, 0
1, 8171, Control_c, 0, 64, 127
1, 8184, Note_on_c, 0, 57, 0
1, 8184, Note_on_c, 0, 59, 0
1, 8418, Note_on_c, 0, 63, 47
1, 8454, Note_on_c, 0, 69, 0
1, 8459, Note_on_c, 0, 57, 15
1, 8470, Note_on_c, 0, 59, 16
1, 8524, Note_on_c, 0, 47, 0
1, 8562, Note_on_c, 0, 35, 0
1, 8652, Note_on_c, 0, 59, 0
1, 8665, Note_on_c, 0, 57, 0
1, 8824, Note_on_c, 0, 63, 0
1, 8923, Note_on_c, 0, 40, 57
1, 8938, Control_c, 0, 64, 0
1, 9165, Control_c, 0, 64, 127
1, 9295, Note_on_c, 0, 40, 0
1, 9368, Note_on_c, 0, 56, 36
1, 9399, Note_on_c, 0, 59, 25
1, 9404, Note_on_c, 0, 64, 34
1, 9440, Note_on_c, 0, 56, 0
1, 9465, Note_on_c, 0, 59, 0
1, 9516, Note_on_c, 0, 64, 0
1, 9744, Note_on_c, 0, 64, 38
1, 9750, Note_on_c, 0, 56, 26
1, 9761, Note_on_c, 0, 59, 24
1, 9820, Note_on_c, 0, 59, 0
1, 9824, Note_on_c, 0, 64, 0
1, 9831, Note_on_c, 0, 56, 0
1, 10070, Note_on_c, 0, 64, 46
1, 10070, Note_on_c, 0, 56, 28
1, 10089, Note_on_c, 0, 59, 27
1, 10136, Note_on_c, 0, 64, 0
1, 10150, Note_on_c, 0, 59, 0
1, 10150, Note_on_c, 0, 56, 0
1, 10377, Note_on_c, 0, 80, 87
1, 10399, Note_on_c, 0, 64, 37
1, 10399, Note_on_c, 0, 56, 27
1, 10429, Note_on_c, 0, 59, 17
1, 10498, Note_on_c, 0, 59, 0
1, 10498, Note_on_c, 0, 56, 0
1, 10498, Note_on_c, 0, 64, 0
1, 10758, Note_on_c, 0, 64, 29
1, 10764, Note_on_c, 0, 56, 28
1, 10803, Note_on_c, 0, 59, 27
1, 10859, Note_on_c, 0, 56, 0
1, 10863, Note_on_c, 0, 59, 0
1, 10881, Note_on_c, 0, 64, 0
1, 11140, Note_on_c, 0, 76, 78
1, 11162, Note_on_c, 0, 56, 30
1, 11170, Note_on_c, 0, 64, 36
1, 11195, Note_on_c, 0, 59, 20
1, 11248, Note_on_c, 0, 80, 0
1, 11271, Note_on_c, 0, 64, 0
1, 11279, Note_on_c, 0, 59, 0
1, 11295, Note_on_c, 0, 56, 0
1, 11479, Note_on_c, 0, 64, 42
1, 11493, Note_on_c, 0, 56, 33
1, 11496, Note_on_c, 0, 59, 28
1, 11530, Note_on_c, 0, 64, 0
1, 11551, Note_on_c, 0, 59, 0
1, 11565, Note_on_c, 0, 56, 0
1, 11898, Note_on_c, 0, 71, 67
1, 11928, Note_on_c, 0, 40, 50
1, 11934, Control_c, 0, 64, 0
1, 11945, Note_on_c, 0, 76, 0
1, 12053, Note_on_c, 0, 40, 0
1, 12078, Control_c, 0, 64, 127
1, 12379, Note_on_c, 0, 56, 27
1, 12387, Note_on_c, 0, 64, 36
1, 12402, Note_on_c, 0, 59, 24
1, 12474, Note_on_c, 0, 59, 0
1, 12485, Note_on_c, 0, 64, 0
1, 12522, Note_on_c, 0, 56, 0
1, 12724, Note_on_c, 0, 56, 41
1, 12728, Note_on_c, 0, 64, 41
1, 12736, Note_on_c, 0, 71, 0
1, 12761, Note_on_c, 0, 59, 17
1, 12792, Note_on_c, 0, 64, 0
1, 12808, Note_on_c, 0, 56, 0
1, 12831, Note_on_c, 0, 59, 0
1, 13037, Note_on_c, 0, 71, 89
1, 13051, Note_on_c, 0, 56, 45
1, 13065, Note_on_c, 0, 64, 41
1, 13084, Note_on_c, 0, 59, 27
1, 13148, Note_on_c, 0, 59, 0
1, 13148, Note_on_c, 0, 64, 0
1, 13173, Note_on_c, 0, 56, 0
1, 13399, Note_on_c, 0, 73, 80
1, 13410, Note_on_c, 0, 61, 42
1, 13424, Note_on_c, 0, 58, 32
1, 13429, Note_on_c, 0, 64, 46
1, 13432, Control_c, 0, 64, 0
1, 13432, Note_on_c, 0, 55, 42
1, 13441, Note_on_c, 0, 52, 31
1, 13482, Note_on_c, 0, 71, 0
1, 13599, Control_c, 0, 64, 127
1, 13627, Note_on_c, 0, 52, 0
1, 13644, Note_on_c, 0, 55, 0
1, 13649, Note_on_c, 0, 64, 0
1, 13660, Note_on_c, 0, 58, 0
1, 13666, Note_on_c, 0, 61, 0
1, 13795, Note_on_c, 0, 58, 33
1, 13798, Note_on_c, 0, 61, 47
1, 13809, Note_on_c, 0, 64, 38
1, 13845, Note_on_c, 0, 52, 25
1, 13853, Note_on_c, 0, 55, 29
1, 13859, Note_on_c, 0, 75, 63
1, 13872, Note_on_c, 0, 73, 0
1, 13920, Note_on_c, 0, 52, 0
1, 13933, Note_on_c, 0, 55, 0
1, 13947, Note_on_c, 0, 64, 0
1, 13950, Note_on_c, 0, 73, 62
1, 13953, Note_on_c, 0, 58, 0
1, 13958, Note_on_c, 0, 61, 0
1, 13986, Note_on_c, 0, 75, 0
1, 14034, Note_on_c, 0, 72, 77
1, 14045, Note_on_c, 0, 73, 0
1, 14106, Note_on_c, 0, 73, 73
1, 14135, Note_on_c, 0, 72, 0
1, 14165, Note_on_c, 0, 61, 42
1, 14170, Note_on_c, 0, 64, 40
1, 14170, Note_on_c, 0, 58, 32
1, 14187, Note_on_c, 0, 52, 33
1, 14198, Note_on_c, 0, 55, 45
1, 14210, Note_on_c, 0, 75, 87
1, 14210, Control_c, 0, 64, 0
1, 14231, Note_on_c, 0, 73, 0
1, 14352, Note_on_c, 0, 52, 0
1, 14363, Note_on_c, 0, 64, 0
1, 14363, Note_on_c, 0, 55, 0
1, 14366, Control_c, 0, 64, 127
1, 14377, Note_on_c, 0, 61, 0
1, 14377, Note_on_c, 0, 58, 0
1, 14527, Note_on_c, 0, 76, 88
1, 14532, Note_on_c, 0, 58, 28
1, 14532, Note_on_c, 0, 61, 38
1, 14538, Note_on_c, 0, 64, 45
1, 14564, Note_on_c, 0, 52, 24
1, 14575, Note_on_c, 0, 75, 0
1, 14589, Note_on_c, 0, 55, 22
1, 14593, Note_on_c, 0, 64, 0
1, 14630, Note_on_c, 0, 61, 0
1, 14653, Note_on_c, 0, 55, 0
1, 14658, Note_on_c, 0, 52, 0
1, 14658, Note_on_c, 0, 58, 0
1, 14831, Note_on_c, 0, 76, 0
1, 14906, Control_c, 0, 64, 0
1, 14912, Note_on_c, 0, 76, 49
1, 14930, Note_on_c, 0, 40, 53
1, 15070, Note_on_c, 0, 40, 0
1, 15073, Control_c, 0, 64, 127
1, 15416, Note_on_c, 0, 56, 27
1, 15429, Note_on_c, 0, 64, 26
1, 15438, Note_on_c, 0, 52, 27
1, 15443, Note_on_c, 0, 59, 31
1, 15575, Note_on_c, 0, 56, 0
1, 15582, Note_on_c, 0, 64, 0
1, 15592, Note_on_c, 0, 59, 0
1, 15599, Note_on_c, 0, 52, 0
1, 15787, Note_on_c, 0, 71, 59
1, 15798, Note_on_c, 0, 56, 34
1, 15803, Note_on_c, 0, 52, 41
1, 15803, Note_on_c, 0, 64, 28
1, 15833, Note_on_c, 0, 59, 25
1, 15890, Note_on_c, 0, 64, 0
1, 15900, Note_on_c, 0, 59, 0
1, 15909, Note_on_c, 0, 76, 0
1, 15909, Note_on_c, 0, 52, 0
1, 15920, Note_on_c, 0, 56, 0
1, 16114, Note_on_c, 0, 56, 41
1, 16117, Note_on_c, 0, 64, 38
1, 16134, Note_on_c, 0, 52, 26
1, 16163, Note_on_c, 0, 64, 0
1, 16210, Note_on_c, 0, 52, 0
1, 16235, Note_on_c, 0, 56, 0
1, 16493, Note_on_c, 0, 71, 0
1, 16538, Note_on_c, 0, 32, 65
1, 16538, Note_on_c, 0, 44, 68
1, 16560, Control_c, 0, 64, 0
1, 16691, Note_on_c, 0, 32, 0
1, 16703, Control_c, 0, 64, 127
1, 16714, Note_on_c, 0, 44, 0
1, 17037, Note_on_c, 0, 83, 110
1, 17056, Note_on_c, 0, 64, 43
1, 17071, Note_on_c, 0, 52, 33
1, 17079, Note_on_c, 0, 59, 34
1, 17187, Note_on_c, 0, 64, 0
1, 17213, Note_on_c, 0, 52, 0
1, 17226, Note_on_c, 0, 59, 0
1, 17419, Note_on_c, 0, 81, 97
1, 17430, Note_on_c, 0, 64, 41
1, 17443, Note_on_c, 0, 52, 39
1, 17449, Note_on_c, 0, 59, 40
1, 17546, Note_on_c, 0, 59, 0
1, 17546, Note_on_c, 0, 64, 0
1, 17546, Note_on_c, 0, 83, 0
1, 17550, Note_on_c, 0, 52, 0
1, 17739, Note_on_c, 0, 80, 95
1, 17756, Note_on_c, 0, 64, 58
1, 17776, Note_on_c, 0, 52, 39
1, 17781, Note_on_c, 0, 59, 38
1, 17795, Note_on_c, 0, 64, 0
1, 17826, Note_on_c, 0, 59, 0
1, 17826, Note_on_c, 0, 81, 0
1, 17844, Note_on_c, 0, 52, 0
1, 18078, Note_on_c, 0, 78, 90
1, 18082, Control_c, 0, 64, 0
1, 18082, Note_on_c, 0, 33, 47
1, 18089, Note_on_c, 0, 45, 44
1, 18177, Note_on_c, 0, 80, 0
1, 18226, Note_on_c, 0, 33, 0
1, 18249, Control_c, 0, 64, 127
1, 18269, Note_on_c, 0, 45, 0
1, 18485, Note_on_c, 0, 76, 75
1, 18502, Note_on_c, 0, 54, 45
1, 18510, Note_on_c, 0, 61, 38
1, 18510, Note_on_c, 0, 64, 36
1, 18541, Note_on_c, 0, 78, 0
1, 18588, Note_on_c, 0, 61, 0
1, 18595, Note_on_c, 0, 64, 0
1, 18600, Note_on_c, 0, 54, 0
1, 18805, Note_on_c, 0, 75, 73
1, 18834, Note_on_c, 0, 54, 40
1, 18840, Note_on_c, 0, 64, 42
1, 18848, Note_on_c, 0, 61, 29
1, 18887, Note_on_c, 0, 76, 0
1, 18908, Note_on_c, 0, 54, 0
1, 18911, Note_on_c, 0, 64, 0
1, 18923, Note_on_c, 0, 61, 0
1, 18984, Note_on_c, 0, 78, 83
1, 19051, Note_on_c, 0, 75, 0
1, 19138, Note_on_c, 0, 76, 83
1, 19152, Note_on_c, 0, 54, 46
1, 19156, Note_on_c, 0, 61, 50
1, 19160, Note_on_c, 0, 64, 30
1, 19202, Note_on_c, 0, 61, 0
1, 19212, Note_on_c, 0, 64, 0
1, 19215, Note_on_c, 0, 54, 0
1, 19223, Note_on_c, 0, 78, 0
1, 19301, Note_on_c, 0, 73, 83
1, 19388, Note_on_c, 0, 76, 0
1, 19485, Control_c, 0, 64, 0
1, 19503, Note_on_c, 0, 71, 95
1, 19517, Note_on_c, 0, 47, 37
1, 19530, Note_on_c, 0, 35, 49
1, 19542, Note_on_c, 0, 73, 0
1, 19613, Note_on_c, 0, 35, 0
1, 19650, Note_on_c, 0, 47, 0
1, 19650, Control_c, 0, 64, 127
1, 19878, Note_on_c, 0, 56, 42
1, 19884, Note_on_c, 0, 64, 51
1, 19906, Note_on_c, 0, 59, 34
1, 19971, Note_on_c, 0, 59, 0
1, 20028, Note_on_c, 0, 64, 0
1, 20059, Note_on_c, 0, 72, 80
1, 20106, Note_on_c, 0, 71, 0
1, 20132, Note_on_c, 0, 56, 0
1, 20265, Note_on_c, 0, 73, 63
1, 20274, Control_c, 0, 64, 0
1, 20287, Note_on_c, 0, 63, 36
1, 20293, Note_on_c, 0, 69, 31
1, 20302, Note_on_c, 0, 54, 37
1, 20308, Note_on_c, 0, 72, 0
1, 20313, Note_on_c, 0, 59, 30
1, 20455, Control_c, 0, 64, 127
1, 20477, Note_on_c, 0, 54, 0
1, 20477, Note_on_c, 0, 63, 0
1, 20486, Note_on_c, 0, 59, 0
1, 20530, Note_on_c, 0, 69, 0
1, 20731, Note_on_c, 0, 63, 34
1, 20747, Note_on_c, 0, 54, 35
1, 20773, Note_on_c, 0, 59, 15
1, 20808, Note_on_c, 0, 63, 0
1, 20857, Note_on_c, 0, 59, 0
1, 20886, Note_on_c, 0, 54, 0
1, 20974, Note_on_c, 0, 69, 36
1, 20977, Note_on_c, 0, 66, 29
1, 21034, Note_on_c, 0, 73, 0
1, 21201, Note_on_c, 0, 69, 0
1, 21210, Control_c, 0, 64, 0
1, 21230, Note_on_c, 0, 68, 40
1, 21260, Note_on_c, 0, 40, 46
1, 21260, Note_on_c, 0, 64, 35
1, 21283, Note_on_c, 0, 66, 0
1, 21402, Control_c, 0, 64, 127
1, 21411, Note_on_c, 0, 40, 0
1, 21455, Note_on_c, 0, 64, 0
1, 21731, Note_on_c, 0, 56, 27
1, 21731, Note_on_c, 0, 64, 30
1, 21751, Note_on_c, 0, 59, 16
1, 21840, Note_on_c, 0, 59, 0
1, 21840, Note_on_c, 0, 64, 0
1, 21843, Note_on_c, 0, 56, 0
1, 22102, Note_on_c, 0, 64, 32
1, 22112, Note_on_c, 0, 56, 23
1, 22127, Note_on_c, 0, 59, 23
1, 22196, Note_on_c, 0, 59, 0
1, 22196, Note_on_c, 0, 56, 0
1, 22196, Note_on_c, 0, 64, 0
1, 22274, Note_on_c, 0, 68, 0
1, 22446, Note_on_c, 0, 64, 31
1, 22446, Note_on_c, 0, 56, 25
1, 22475, Note_on_c, 0, 59, 18
1, 22535, Note_on_c, 0, 64, 0
1, 22538, Note_on_c, 0, 56, 0
1, 22544, Note_on_c, 0, 59, 0
1, 22940, Note_on_c, 0, 80, 81
1, 22970, Note_on_c, 0, 56, 18
1, 22973, Note_on_c, 0, 64, 22
1, 22985, Note_on_c, 0, 59, 18
1, 23059, Note_on_c, 0, 59, 0
1, 23059, Note_on_c, 0, 64, 0
1, 23059, Note_on_c, 0, 56, 0
1, 23357, Note_on_c, 0, 56, 22
1, 23361, Note_on_c, 0, 64, 28
1, 23389, Note_on_c, 0, 59, 14
1, 23456, Note_on_c, 0, 56, 0
1, 23474, Note_on_c, 0, 59, 0
1, 23480, Note_on_c, 0, 64, 0
1, 23676, Note_on_c, 0, 76, 73
1, 23715, Note_on_c, 0, 59, 25
1, 23718, Note_on_c, 0, 56, 22
1, 23725, Note_on_c, 0, 64, 27
1, 23733, Note_on_c, 0, 80, 0
1, 23793, Note_on_c, 0, 59, 0
1, 23804, Note_on_c, 0, 64, 0
1, 23811, Note_on_c, 0, 56, 0
1, 24049, Note_on_c, 0, 56, 29
1, 24054, Note_on_c, 0, 64, 32
1, 24084, Note_on_c, 0, 59, 17
1, 24110, Note_on_c, 0, 64, 0
1, 24144, Note_on_c, 0, 59, 0
1, 24152, Note_on_c, 0, 56, 0
1, 24506, Control_c, 0, 64, 0
1, 24513, Note_on_c, 0, 71, 55
1, 24553, Note_on_c, 0, 40, 41
1, 24561, Note_on_c, 0, 76, 0
1, 24665, Note_on_c, 0, 40, 0
1, 24673, Control_c, 0, 64, 127
1, 24981, Note_on_c, 0, 64, 37
1, 24990, Note_on_c, 0, 56, 24
1, 25001, Note_on_c, 0, 59, 26
1, 25094, Note_on_c, 0, 59, 0
1, 25099, Note_on_c, 0, 64, 0
1, 25113, Note_on_c, 0, 56, 0
1, 25307, Note_on_c, 0, 64, 47
1, 25313, Note_on_c, 0, 56, 35
1, 25325, Note_on_c, 0, 59, 34
1, 25491, Note_on_c, 0, 59, 0
1, 25509, Note_on_c, 0, 56, 0
1, 25509, Note_on_c, 0, 64, 0
1, 25636, Note_on_c, 0, 68, 72
1, 25658, Note_on_c, 0, 64, 47
1, 25664, Note_on_c, 0, 56, 37
1, 25683, Note_on_c, 0, 59, 26
1, 25701, Note_on_c, 0, 71, 0
1, 25775, Note_on_c, 0, 56, 0
1, 25834, Note_on_c, 0, 59, 0
1, 25840, Note_on_c, 0, 64, 0
1, 25981, Note_on_c, 0, 68, 0
1, 25990, Note_on_c, 0, 71, 100
1, 26023, Note_on_c, 0, 64, 47
1, 26027, Note_on_c, 0, 56, 33
1, 26030, Note_on_c, 0, 59, 34
1, 26102, Note_on_c, 0, 59, 0
1, 26127, Note_on_c, 0, 64, 0
1, 26130, Note_on_c, 0, 56, 0
1, 26188, Note_on_c, 0, 76, 99
1, 26221, Note_on_c, 0, 71, 0
1, 26317, Note_on_c, 0, 59, 34
1, 26335, Note_on_c, 0, 80, 100
1, 26346, Note_on_c, 0, 64, 43
1, 26349, Note_on_c, 0, 56, 52
1, 26374, Note_on_c, 0, 76, 0
1, 26389, Note_on_c, 0, 59, 0
1, 26392, Note_on_c, 0, 64, 0
1, 26392, Note_on_c, 0, 56, 0
1, 26503, Note_on_c, 0, 83, 126
1, 26523, Note_on_c, 0, 80, 0
1, 26761, Note_on_c, 0, 32, 36
1, 26761, Note_on_c, 0, 44, 39
1, 26771, Control_c, 0, 64, 0
1, 26839, Note_on_c, 0, 92, 93
1, 26849, Note_on_c, 0, 83, 0
1, 26981, Control_c, 0, 64, 127
1, 26995, Note_on_c, 0, 32, 0
1, 27044, Note_on_c, 0, 44, 0
1, 27350, Note_on_c, 0, 60, 34
1, 27353, Note_on_c, 0, 63, 35
1, 27378, Note_on_c, 0, 56, 32
1, 27500, Note_on_c, 0, 63, 0
1, 27541, Note_on_c, 0, 60, 0
1, 27561, Note_on_c, 0, 56, 0
1, 27598, Note_on_c, 0, 90, 76
1, 27717, Note_on_c, 0, 92, 0
1, 27810, Note_on_c, 0, 90, 0
1, 27856, Note_on_c, 0, 90, 77
1, 27870, Note_on_c, 0, 37, 34
1, 27870, Control_c, 0, 64, 0
1, 27879, Note_on_c, 0, 49, 22
1, 28005, Control_c, 0, 64, 127
1, 28019, Note_on_c, 0, 37, 0
1, 28041, Note_on_c, 0, 49, 0
1, 28310, Note_on_c, 0, 63, 45
1, 28310, Note_on_c, 0, 60, 40
1, 28327, Note_on_c, 0, 56, 36
1, 28526, Note_on_c, 0, 56, 0
1, 28567, Note_on_c, 0, 60, 0
1, 28581, Note_on_c, 0, 63, 0
1, 28736, Note_on_c, 0, 61, 38
1, 28740, Note_on_c, 0, 88, 40
1, 28745, Note_on_c, 0, 56, 34
1, 28751, Note_on_c, 0, 64, 41
1, 28760, Control_c, 0, 64, 0
1, 28813, Note_on_c, 0, 90, 0
1, 28929, Control_c, 0, 64, 127
1, 28935, Note_on_c, 0, 64, 0
1, 28949, Note_on_c, 0, 61, 0
1, 28949, Note_on_c, 0, 56, 0
1, 29046, Note_on_c, 0, 88, 0
1, 29122, Note_on_c, 0, 56, 37
1, 29129, Note_on_c, 0, 61, 36
1, 29129, Note_on_c, 0, 64, 50
1, 29213, Note_on_c, 0, 64, 0
1, 29224, Note_on_c, 0, 61, 0
1, 29232, Note_on_c, 0, 56, 0
1, 29505, Note_on_c, 0, 61, 36
1, 29534, Note_on_c, 0, 52, 37
1, 29534, Note_on_c, 0, 59, 29
1, 29539, Control_c, 0, 64, 0
1, 29553, Note_on_c, 0, 56, 18
1, 29672, Control_c, 0, 64, 127
1, 29714, Note_on_c, 0, 56, 0
1, 29714, Note_on_c, 0, 52, 0
1, 29729, Note_on_c, 0, 72, 60
1, 29735, Note_on_c, 0, 59, 0
1, 29740, Note_on_c, 0, 61, 0
1, 29913, Note_on_c, 0, 73, 81
1, 29927, Note_on_c, 0, 61, 41
1, 29952, Note_on_c, 0, 52, 40
1, 29957, Note_on_c, 0, 56, 35
1, 29960, Note_on_c, 0, 72, 0
1, 29960, Note_on_c, 0, 59, 40
1, 30030, Note_on_c, 0, 56, 0
1, 30035, Note_on_c, 0, 52, 0
1, 30060, Note_on_c, 0, 59, 0
1, 30072, Note_on_c, 0, 61, 0
1, 30085, Note_on_c, 0, 79, 101
1, 30127, Note_on_c, 0, 73, 0
1, 30272, Note_on_c, 0, 82, 74
1, 30297, Note_on_c, 0, 61, 34
1, 30306, Control_c, 0, 64, 0
1, 30316, Note_on_c, 0, 79, 0
1, 30316, Note_on_c, 0, 59, 37
1, 30316, Note_on_c, 0, 52, 48
1, 30327, Note_on_c, 0, 56, 28
1, 30442, Note_on_c, 0, 52, 0
1, 30450, Control_c, 0, 64, 127
1, 30462, Note_on_c, 0, 61, 0
1, 30462, Note_on_c, 0, 56, 0
1, 30466, Note_on_c, 0, 80, 84
1, 30469, Note_on_c, 0, 59, 0
1, 30544, Note_on_c, 0, 82, 0
1, 30629, Note_on_c, 0, 76, 80
1, 30643, Note_on_c, 0, 61, 36
1, 30646, Note_on_c, 0, 80, 0
1, 30671, Note_on_c, 0, 59, 31
1, 30676, Note_on_c, 0, 52, 31
1, 30681, Note_on_c, 0, 56, 34
1, 30737, Note_on_c, 0, 59, 0
1, 30749, Note_on_c, 0, 52, 0
1, 30749, Note_on_c, 0, 76, 0
1, 30753, Note_on_c, 0, 61, 0
1, 30801, Note_on_c, 0, 73, 75
1, 30835, Note_on_c, 0, 56, 0
1, 30912, Note_on_c, 0, 73, 0
1, 30987, Note_on_c, 0, 87, 74
1, 31002, Control_c, 0, 64, 0
1, 31012, Note_on_c, 0, 42, 55
1, 31121, Note_on_c, 0, 42, 0
1, 31133, Control_c, 0, 64, 127
1, 31168, Note_on_c, 0, 82, 76
1, 31256, Note_on_c, 0, 87, 0
1, 31344, Note_on_c, 0, 83, 114
1, 31361, Note_on_c, 0, 63, 44
1, 31369, Note_on_c, 0, 54, 47
1, 31380, Note_on_c, 0, 59, 36
1, 31387, Note_on_c, 0, 82, 0
1, 31423, Note_on_c, 0, 63, 0
1, 31448, Note_on_c, 0, 54, 0
1, 31465, Note_on_c, 0, 59, 0
1, 31515, Note_on_c, 0, 77, 99
1, 31526, Note_on_c, 0, 83, 0
1, 31687, Note_on_c, 0, 80, 97
1, 31699, Note_on_c, 0, 63, 49
1, 31709, Control_c, 0, 64, 0
1, 31715, Note_on_c, 0, 54, 39
1, 31715, Note_on_c, 0, 59, 41
1, 31728, Note_on_c, 0, 77, 0
1, 31834, Note_on_c, 0, 63, 0
1, 31840, Control_c, 0, 64, 127
1, 31854, Note_on_c, 0, 54, 0
1, 31863, Note_on_c, 0, 78, 90
1, 31868, Note_on_c, 0, 59, 0
1, 31924, Note_on_c, 0, 80, 0
1, 32032, Control_c, 0, 64, 0
1, 32055, Note_on_c, 0, 83, 98
1, 32061, Note_on_c, 0, 63, 45
1, 32072, Note_on_c, 0, 78, 0
1, 32072, Note_on_c, 0, 54, 54
1, 32086, Note_on_c, 0, 59, 35
1, 32157, Note_on_c, 0, 63, 0
1, 32164, Control_c, 0, 64, 127
1, 32202, Note_on_c, 0, 59, 0
1, 32236, Note_on_c, 0, 54, 0
1, 32236, Note_on_c, 0, 75, 80
1, 32278, Note_on_c, 0, 83, 0
1, 32380, Control_c, 0, 64, 0
1, 32411, Note_on_c, 0, 78, 81
1, 32421, Note_on_c, 0, 42, 38
1, 32453, Note_on_c, 0, 75, 0
1, 32512, Control_c, 0, 64, 127
1, 32523, Note_on_c, 0, 42, 0
1, 32592, Note_on_c, 0, 77, 81
1, 32648, Note_on_c, 0, 78, 0
1, 32760, Note_on_c, 0, 77, 0
1, 32776, Control_c, 0, 64, 0
1, 32776, Note_on_c, 0, 76, 56
1, 32787, Note_on_c, 0, 54, 37
1, 32787, Note_on_c, 0, 58, 31
1, 32793, Note_on_c, 0, 64, 41
1, 32812, Note_on_c, 0, 61, 29
1, 32907, Control_c, 0, 64, 127
1, 32918, Note_on_c, 0, 64, 0
1, 32927, Note_on_c, 0, 54, 0
1, 32937, Note_on_c, 0, 61, 0
1, 32943, Note_on_c, 0, 58, 0
1, 32966, Note_on_c, 0, 73, 55
1, 32986, Note_on_c, 0, 76, 0
1, 33141, Note_on_c, 0, 70, 50
1, 33169, Note_on_c, 0, 54, 34
1, 33180, Note_on_c, 0, 58, 20
1, 33185, Note_on_c, 0, 64, 25
1, 33185, Note_on_c, 0, 61, 23
1, 33197, Note_on_c, 0, 73, 0
1, 33255, Control_c, 0, 64, 0
1, 33303, Note_on_c, 0, 64, 0
1, 33325, Note_on_c, 0, 61, 0
1, 33342, Note_on_c, 0, 58, 0
1, 33347, Note_on_c, 0, 67, 52
1, 33350, Note_on_c, 0, 54, 0
1, 33350, Control_c, 0, 64, 127
1, 33353, Note_on_c, 0, 70, 0
1, 33539, Note_on_c, 0, 67, 0
1, 33561, Note_on_c, 0, 54, 27
1, 33590, Control_c, 0, 64, 0
1, 33590, Note_on_c, 0, 66, 30
1, 33598, Note_on_c, 0, 76, 43
1, 33620, Note_on_c, 0, 61, 28
1, 33628, Note_on_c, 0, 58, 20
1, 33734, Control_c, 0, 64, 127
1, 33748, Note_on_c, 0, 76, 0
1, 33781, Note_on_c, 0, 61, 0
1, 33781, Note_on_c, 0, 58, 0
1, 33821, Note_on_c, 0, 54, 0
1, 33849, Note_on_c, 0, 70, 42
1, 33865, Note_on_c, 0, 66, 0
1, 33874, Note_on_c, 0, 64, 22
1, 33990, Note_on_c, 0, 70, 0
1, 34177, Control_c, 0, 64, 0
1, 34191, Note_on_c, 0, 63, 45
1, 34199, Note_on_c, 0, 64, 0
1, 34203, Note_on_c, 0, 71, 42
1, 34224, Note_on_c, 0, 47, 24
1, 34394, Control_c, 0, 64, 127
1, 34412, Note_on_c, 0, 47, 0
1, 34447, Note_on_c, 0, 63, 0
1, 34724, Note_on_c, 0, 71, 0
1, 34785, Note_on_c, 0, 63, 27
1, 34810, Note_on_c, 0, 66, 11
1, 34821, Note_on_c, 0, 59, 16
1, 34868, Note_on_c, 0, 66, 0
1, 34885, Note_on_c, 0, 63, 0
1, 34890, Note_on_c, 0, 59, 0
1, 35211, Note_on_c, 0, 66, 21
1, 35216, Note_on_c, 0, 63, 30
1, 35253, Note_on_c, 0, 59, 23
1, 35358, Note_on_c, 0, 59, 0
1, 35369, Note_on_c, 0, 63, 0
1, 35389, Note_on_c, 0, 66, 0
1, 35467, Note_on_c, 0, 71, 58
1, 35570, Note_on_c, 0, 71, 0
1, 35665, Note_on_c, 0, 71, 56
1, 35676, Note_on_c, 0, 66, 22
1, 35684, Note_on_c, 0, 63, 37
1, 35716, Note_on_c, 0, 59, 33
1, 35735, Note_on_c, 0, 71, 0
1, 35785, Note_on_c, 0, 59, 0
1, 35826, Note_on_c, 0, 63, 0
1, 35832, Note_on_c, 0, 66, 0
1, 35857, Note_on_c, 0, 71, 73
1, 36013, Note_on_c, 0, 71, 0
1, 36075, Note_on_c, 0, 74, 59
1, 36080, Note_on_c, 0, 64, 32
1, 36080, Note_on_c, 0, 67, 30
1, 36121, Note_on_c, 0, 59, 18
1, 36178, Control_c, 0, 64, 0
1, 36330, Note_on_c, 0, 74, 0
1, 36330, Control_c, 0, 64, 127
1, 36334, Note_on_c, 0, 72, 46
1, 36337, Note_on_c, 0, 59, 0
1, 36351, Note_on_c, 0, 64, 0
1, 36351, Note_on_c, 0, 67, 0
1, 36531, Note_on_c, 0, 67, 51
1, 36539, Note_on_c, 0, 64, 50
1, 36562, Note_on_c, 0, 59, 38
1, 36575, Control_c, 0, 64, 0
1, 36635, Note_on_c, 0, 72, 0
1, 36682, Control_c, 0, 64, 127
1, 36682, Note_on_c, 0, 72, 83
1, 36732, Note_on_c, 0, 59, 0
1, 36732, Note_on_c, 0, 64, 0
1, 36748, Note_on_c, 0, 67, 0
1, 36874, Note_on_c, 0, 76, 65
1, 36885, Note_on_c, 0, 69, 46
1, 36896, Note_on_c, 0, 72, 0
1, 36896, Note_on_c, 0, 66, 36
1, 36910, Control_c, 0, 64, 0
1, 36910, Note_on_c, 0, 59, 27
1, 37066, Control_c, 0, 64, 127
1, 37099, Note_on_c, 0, 75, 55
1, 37120, Note_on_c, 0, 76, 0
1, 37142, Note_on_c, 0, 69, 0
1, 37142, Note_on_c, 0, 66, 0
1, 37145, Note_on_c, 0, 59, 0
1, 37245, Control_c, 0, 64, 0
1, 37278, Note_on_c, 0, 69, 50
1, 37287, Note_on_c, 0, 66, 45
1, 37292, Note_on_c, 0, 59, 42
1, 37350, Note_on_c, 0, 75, 0
1, 37365, Control_c, 0, 64, 127
1, 37432, Note_on_c, 0, 59, 0
1, 37437, Note_on_c, 0, 66, 0
1, 37440, Note_on_c, 0, 75, 74
1, 37448, Note_on_c, 0, 69, 0
1, 37618, Note_on_c, 0, 78, 99
1, 37628, Note_on_c, 0, 71, 68
1, 37637, Note_on_c, 0, 59, 55
1, 37637, Note_on_c, 0, 67, 60
1, 37665, Control_c, 0, 64, 0
1, 37695, Note_on_c, 0, 75, 0
1, 37821, Control_c, 0, 64, 127
1, 37832, Note_on_c, 0, 76, 87
1, 37851, Note_on_c, 0, 71, 0
1, 37862, Note_on_c, 0, 67, 0
1, 37862, Note_on_c, 0, 59, 0
1, 37893, Note_on_c, 0, 78, 0
1, 37950, Note_on_c, 0, 76, 0
1, 38007, Note_on_c, 0, 71, 97
1, 38011, Note_on_c, 0, 67, 85
1, 38017, Note_on_c, 0, 59, 68
1, 38175, Note_on_c, 0, 59, 0
1, 38175, Note_on_c, 0, 76, 105
1, 38184, Note_on_c, 0, 67, 0
1, 38191, Note_on_c, 0, 71, 0
1, 38367, Note_on_c, 0, 71, 81
1, 38372, Note_on_c, 0, 67, 68
1, 38372, Note_on_c, 0, 79, 119
1, 38375, Note_on_c, 0, 59, 60
1, 38384, Note_on_c, 0, 64, 64
1, 38426, Note_on_c, 0, 76, 0
1, 38517, Control_c, 0, 64, 0
1, 38612, Control_c, 0, 64, 127
1, 38635, Note_on_c, 0, 59, 0
1, 38638, Note_on_c, 0, 71, 0
1, 38645, Note_on_c, 0, 64, 0
1, 38657, Note_on_c, 0, 67, 0
1, 38732, Note_on_c, 0, 71, 98
1, 38738, Note_on_c, 0, 67, 67
1, 38743, Note_on_c, 0, 59, 71
1, 38748, Note_on_c, 0, 64, 63
1, 38758, Note_on_c, 0, 71, 0
1, 38776, Note_on_c, 0, 67, 0
1, 38787, Note_on_c, 0, 64, 0
1, 38802, Note_on_c, 0, 59, 0
1, 39150, Note_on_c, 0, 36, 110
1, 39150, Note_on_c, 0, 48, 103
1, 39187, Control_c, 0, 64, 0
1, 39311, Note_on_c, 0, 36, 0
1, 39311, Note_on_c, 0, 79, 0
1, 39319, Control_c, 0, 64, 127
1, 39353, Note_on_c, 0, 48, 0
1, 39387, Note_on_c, 0, 88, 120
1, 39390, Note_on_c, 0, 76, 112
1, 39648, Note_on_c, 0, 67, 92
1, 39655, Note_on_c, 0, 64, 79
1, 39659, Note_on_c, 0, 55, 76
1, 39659, Note_on_c, 0, 60, 71
1, 39765, Note_on_c, 0, 88, 0
1, 39783, Note_on_c, 0, 76, 0
1, 39879, Note_on_c, 0, 64, 0
1, 39894, Note_on_c, 0, 86, 119
1, 39897, Note_on_c, 0, 60, 0
1, 39897, Note_on_c, 0, 74, 115
1, 39913, Note_on_c, 0, 55, 0
1, 39913, Note_on_c, 0, 67, 0
1, 40106, Note_on_c, 0, 67, 97
1, 40114, Note_on_c, 0, 55, 79
1, 40114, Note_on_c, 0, 64, 87
1, 40117, Note_on_c, 0, 60, 82
1, 40180, Note_on_c, 0, 86, 0
1, 40202, Note_on_c, 0, 74, 0
1, 40283, Note_on_c, 0, 67, 0
1, 40289, Note_on_c, 0, 84, 120
1, 40289, Note_on_c, 0, 72, 109
1, 40306, Note_on_c, 0, 60, 0
1, 40317, Note_on_c, 0, 64, 0
1, 40353, Note_on_c, 0, 55, 0
1, 40485, Note_on_c, 0, 67, 97
1, 40493, Note_on_c, 0, 55, 84
1, 40501, Note_on_c, 0, 60, 69
1, 40501, Note_on_c, 0, 64, 74
1, 40521, Note_on_c, 0, 84, 0
1, 40543, Note_on_c, 0, 67, 0
1, 40559, Note_on_c, 0, 72, 0
1, 40577, Note_on_c, 0, 64, 0
1, 40626, Note_on_c, 0, 60, 0
1, 40635, Note_on_c, 0, 55, 0
1, 40662, Note_on_c, 0, 83, 126
1, 40674, Note_on_c, 0, 71, 100
1, 40864, Control_c, 0, 64, 0
1, 40874, Note_on_c, 0, 41, 99
1, 40942, Note_on_c, 0, 71, 0
1, 41013, Note_on_c, 0, 41, 0
1, 41045, Control_c, 0, 64, 127
1, 41066, Note_on_c, 0, 80, 104
1, 41139, Note_on_c, 0, 83, 0
1, 41317, Note_on_c, 0, 83, 114
1, 41335, Note_on_c, 0, 62, 47
1, 41342, Note_on_c, 0, 60, 34
1, 41347, Note_on_c, 0, 57, 36
1, 41357, Note_on_c, 0, 53, 49
1, 41381, Control_c, 0, 64, 0
1, 41387, Note_on_c, 0, 80, 0
1, 41476, Control_c, 0, 64, 127
1, 41518, Note_on_c, 0, 62, 0
1, 41518, Note_on_c, 0, 81, 98
1, 41532, Note_on_c, 0, 53, 0
1, 41542, Note_on_c, 0, 57, 0
1, 41542, Note_on_c, 0, 60, 0
1, 41618, Note_on_c, 0, 83, 0
1, 41687, Note_on_c, 0, 77, 96
1, 41702, Note_on_c, 0, 62, 60
1, 41718, Note_on_c, 0, 60, 44
1, 41718, Note_on_c, 0, 57, 36
1, 41718, Note_on_c, 0, 53, 63
1, 41732, Note_on_c, 0, 81, 0
1, 41785, Note_on_c, 0, 57, 0
1, 41808, Note_on_c, 0, 62, 0
1, 41825, Note_on_c, 0, 60, 0
1, 41843, Note_on_c, 0, 77, 0
1, 41855, Note_on_c, 0, 53, 0
1, 41855, Note_on_c, 0, 74, 95
1, 42005, Note_on_c, 0, 69, 83
1, 42019, Note_on_c, 0, 74, 0
1, 42019, Note_on_c, 0, 62, 59
1, 42028, Note_on_c, 0, 57, 55
1, 42031, Note_on_c, 0, 53, 54
1, 42031, Note_on_c, 0, 60, 51
1, 42106, Note_on_c, 0, 62, 0
1, 42116, Note_on_c, 0, 60, 0
1, 42116, Note_on_c, 0, 57, 0
1, 42153, Note_on_c, 0, 53, 0
1, 42166, Note_on_c, 0, 68, 94
1, 42194, Note_on_c, 0, 69, 0
1, 42328, Control_c, 0, 64, 0
1, 42345, Note_on_c, 0, 67, 94
1, 42354, Note_on_c, 0, 68, 0
1, 42362, Note_on_c, 0, 43, 58
1, 42470, Note_on_c, 0, 43, 0
1, 42507, Control_c, 0, 64, 127
1, 42513, Note_on_c, 0, 71, 104
1, 42548, Note_on_c, 0, 67, 0
1, 42665, Note_on_c, 0, 74, 96
1, 42701, Note_on_c, 0, 71, 0
1, 42701, Note_on_c, 0, 67, 45
1, 42705, Note_on_c, 0, 65, 29
1, 42705, Note_on_c, 0, 59, 43
1, 42736, Note_on_c, 0, 55, 34
1, 42782, Note_on_c, 0, 59, 0
1, 42808, Note_on_c, 0, 55, 0
1, 42814, Note_on_c, 0, 74, 0
1, 42818, Note_on_c, 0, 77, 92
1, 42825, Note_on_c, 0, 65, 0
1, 42825, Note_on_c, 0, 67, 0
1, 42900, Note_on_c, 0, 71, 86
1, 42916, Note_on_c, 0, 77, 0
1, 42975, Note_on_c, 0, 74, 85
1, 42994, Note_on_c, 0, 71, 0
1, 43038, Note_on_c, 0, 77, 84
1, 43072, Note_on_c, 0, 74, 0
1, 43095, Note_on_c, 0, 67, 26
1, 43098, Note_on_c, 0, 55, 38
1, 43098, Note_on_c, 0, 65, 19
1, 43105, Note_on_c, 0, 59, 17
1, 43119, Control_c, 0, 64, 0
1, 43151, Note_on_c, 0, 83, 110
1, 43187, Note_on_c, 0, 77, 0
1, 43321, Control_c, 0, 64, 127
1, 43357, Note_on_c, 0, 55, 0
1, 43378, Note_on_c, 0, 65, 0
1, 43378, Note_on_c, 0, 67, 0
1, 43415, Note_on_c, 0, 59, 0
1, 43481, Note_on_c, 0, 81, 88
1, 43549, Note_on_c, 0, 83, 0
1, 43552, Note_on_c, 0, 81, 0
1, 43610, Note_on_c, 0, 59, 36
1, 43626, Note_on_c, 0, 67, 26
1, 43646, Note_on_c, 0, 65, 17
1, 43654, Note_on_c, 0, 55, 23
1, 43680, Note_on_c, 0, 81, 51
1, 43690, Note_on_c, 0, 79, 79
1, 43727, Note_on_c, 0, 81, 0
1, 43750, Note_on_c, 0, 67, 0
1, 43765, Note_on_c, 0, 65, 0
1, 43786, Note_on_c, 0, 55, 0
1, 43800, Note_on_c, 0, 59, 0
1, 43830, Note_on_c, 0, 79, 0
1, 43847, Note_on_c, 0, 77, 66
1, 43882, Note_on_c, 0, 77, 0
1, 43949, Note_on_c, 0, 77, 49
1, 43992, Note_on_c, 0, 76, 54
1, 44033, Note_on_c, 0, 77, 0
1, 44123, Note_on_c, 0, 76, 0
1, 44133, Note_on_c, 0, 75, 61
1, 44198, Note_on_c, 0, 36, 28
1, 44212, Note_on_c, 0, 48, 22
1, 44239, Note_on_c, 0, 75, 0
1, 44268, Control_c, 0, 64, 0
1, 44314, Note_on_c, 0, 75, 51
1, 44442, Note_on_c, 0, 36, 0
1, 44473, Control_c, 0, 64, 127
1, 44499, Note_on_c, 0, 48, 0
1, 44838, Note_on_c, 0, 64, 26
1, 44842, Note_on_c, 0, 60, 24
1, 44847, Note_on_c, 0, 76, 44
1, 44871, Note_on_c, 0, 55, 26
1, 44878, Note_on_c, 0, 75, 0
1, 45000, Control_c, 0, 64, 0
1, 45086, Note_on_c, 0, 64, 0
1, 45095, Note_on_c, 0, 55, 0
1, 45095, Control_c, 0, 64, 127
1, 45101, Note_on_c, 0, 60, 0
1, 45137, Note_on_c, 0, 76, 0
1, 45279, Note_on_c, 0, 64, 40
1, 45292, Note_on_c, 0, 55, 28
1, 45298, Note_on_c, 0, 60, 24
1, 45406, Note_on_c, 0, 64, 0
1, 45440, Note_on_c, 0, 55, 0
1, 45445, Note_on_c, 0, 60, 0
1, 45471, Note_on_c, 0, 76, 71
1, 45579, Note_on_c, 0, 76, 0
1, 45661, Note_on_c, 0, 76, 43
1, 45679, Note_on_c, 0, 55, 42
1, 45688, Note_on_c, 0, 64, 32
1, 45719, Note_on_c, 0, 60, 30
1, 45739, Note_on_c, 0, 64, 0
1, 45775, Note_on_c, 0, 60, 0
1, 45830, Note_on_c, 0, 55, 0
1, 45905, Note_on_c, 0, 77, 62
1, 45925, Note_on_c, 0, 76, 0
1, 46189, Note_on_c, 0, 32, 31
1, 46201, Note_on_c, 0, 44, 34
1, 46206, Note_on_c, 0, 76, 41
1, 46222, Control_c, 0, 64, 0
1, 46240, Note_on_c, 0, 77, 0
1, 46438, Control_c, 0, 64, 127
1, 46463, Note_on_c, 0, 74, 49
1, 46482, Note_on_c, 0, 32, 0
1, 46504, Note_on_c, 0, 76, 0
1, 46518, Note_on_c, 0, 44, 0
1, 46654, Note_on_c, 0, 74, 0
1, 46661, Note_on_c, 0, 71, 53
1, 46718, Note_on_c, 0, 71, 0
1, 46866, Note_on_c, 0, 65, 22
1, 46920, Note_on_c, 0, 65, 0
1, 46969, Note_on_c, 0, 52, 78
1, 46977, Note_on_c, 0, 64, 57
1, 47003, Note_on_c, 0, 52, 0
1, 47017, Note_on_c, 0, 64, 0
1, 47058, Note_on_c, 0, 52, 83
1, 47067, Note_on_c, 0, 64, 84
1, 47236, Note_on_c, 0, 64, 0
1, 47260, Note_on_c, 0, 74, 79
1, 47263, Note_on_c, 0, 52, 0
1, 47446, Note_on_c, 0, 71, 82
1, 47454, Note_on_c, 0, 74, 0
1, 47613, Note_on_c, 0, 71, 0
1, 47630, Note_on_c, 0, 77, 85
1, 47828, Control_c, 0, 64, 0
1, 47828, Note_on_c, 0, 33, 38
1, 47833, Note_on_c, 0, 76, 54
1, 47841, Note_on_c, 0, 45, 38
1, 47855, Note_on_c, 0, 77, 0
1, 48008, Control_c, 0, 64, 127
1, 48044, Note_on_c, 0, 72, 56
1, 48078, Note_on_c, 0, 33, 0
1, 48078, Note_on_c, 0, 76, 0
1, 48129, Note_on_c, 0, 45, 0
1, 48237, Note_on_c, 0, 72, 0
1, 48246, Note_on_c, 0, 69, 37
1, 48471, Note_on_c, 0, 65, 41
1, 48482, Note_on_c, 0, 69, 0
1, 48540, Note_on_c, 0, 65, 0
1, 48590, Note_on_c, 0, 52, 79
1, 48593, Note_on_c, 0, 64, 62
1, 48622, Note_on_c, 0, 52, 0
1, 48630, Note_on_c, 0, 64, 0
1, 48677, Note_on_c, 0, 52, 79
1, 48691, Note_on_c, 0, 64, 92
1, 48875, Note_on_c, 0, 72, 80
1, 48891, Note_on_c, 0, 64, 0
1, 48956, Note_on_c, 0, 52, 0
1, 49050, Note_on_c, 0, 69, 72
1, 49103, Note_on_c, 0, 72, 0
1, 49234, Note_on_c, 0, 77, 86
1, 49240, Note_on_c, 0, 69, 0
1, 49387, Control_c, 0, 64, 0
1, 49415, Note_on_c, 0, 50, 47
1, 49419, Note_on_c, 0, 38, 41
1, 49419, Note_on_c, 0, 76, 65
1, 49452, Note_on_c, 0, 77, 0
1, 49554, Control_c, 0, 64, 127
1, 49619, Note_on_c, 0, 38, 0
1, 49624, Note_on_c, 0, 74, 53
1, 49632, Note_on_c, 0, 50, 0
1, 49664, Note_on_c, 0, 76, 0
1, 49806, Note_on_c, 0, 74, 0
1, 49838, Note_on_c, 0, 71, 54
1, 49914, Note_on_c, 0, 71, 0
1, 50059, Note_on_c, 0, 68, 41
1, 50156, Note_on_c, 0, 64, 69
1, 50159, Note_on_c, 0, 52, 77
1, 50184, Note_on_c, 0, 68, 0
1, 50195, Note_on_c, 0, 52, 0
1, 50195, Note_on_c, 0, 64, 0
1, 50268, Note_on_c, 0, 64, 70
1, 50278, Note_on_c, 0, 52, 33
1, 50424, Note_on_c, 0, 64, 0
1, 50469, Note_on_c, 0, 52, 0
1, 50476, Note_on_c, 0, 71, 63
1, 50649, Note_on_c, 0, 68, 59
1, 50655, Note_on_c, 0, 71, 0
1, 50722, Note_on_c, 0, 68, 0
1, 50841, Note_on_c, 0, 76, 60
1, 50891, Note_on_c, 0, 76, 0
1, 51009, Note_on_c, 0, 76, 66
1, 51020, Note_on_c, 0, 49, 61
1, 51026, Note_on_c, 0, 37, 58
1, 51051, Control_c, 0, 64, 0
1, 51203, Note_on_c, 0, 73, 62
1, 51209, Control_c, 0, 64, 127
1, 51245, Note_on_c, 0, 37, 0
1, 51285, Note_on_c, 0, 49, 0
1, 51290, Note_on_c, 0, 76, 0
1, 51382, Note_on_c, 0, 69, 63
1, 51418, Note_on_c, 0, 73, 0
1, 51490, Note_on_c, 0, 69, 0
1, 51577, Note_on_c, 0, 76, 78
1, 51627, Note_on_c, 0, 76, 0
1, 51661, Note_on_c, 0, 64, 77
1, 51664, Note_on_c, 0, 61, 70
1, 51668, Note_on_c, 0, 52, 74
1, 51672, Note_on_c, 0, 57, 52
1, 51699, Note_on_c, 0, 64, 0
1, 51708, Note_on_c, 0, 61, 0
1, 51708, Note_on_c, 0, 52, 0
1, 51719, Note_on_c, 0, 57, 0
1, 51736, Note_on_c, 0, 76, 85
1, 51749, Note_on_c, 0, 64, 75
1, 51767, Note_on_c, 0, 61, 57
1, 51778, Note_on_c, 0, 52, 29
1, 51778, Note_on_c, 0, 57, 45
1, 51823, Note_on_c, 0, 64, 0
1, 51844, Note_on_c, 0, 52, 0
1, 51850, Note_on_c, 0, 57, 0
1, 51884, Note_on_c, 0, 61, 0
1, 51923, Note_on_c, 0, 73, 79
1, 51942, Note_on_c, 0, 76, 0
1, 52042, Note_on_c, 0, 73, 0
1, 52096, Note_on_c, 0, 69, 74
1, 52181, Note_on_c, 0, 69, 0
1, 52288, Note_on_c, 0, 76, 78
1, 52288, Note_on_c, 0, 79, 93
1, 52338, Note_on_c, 0, 76, 0
1, 52377, Note_on_c, 0, 79, 0
1, 52387, Note_on_c, 0, 36, 85
1, 52387, Note_on_c, 0, 48, 74
1, 52416, Note_on_c, 0, 36, 0
1, 52423, Note_on_c, 0, 48, 0
1, 52449, Note_on_c, 0, 79, 89
1, 52454, Note_on_c, 0, 76, 87
1, 52469, Note_on_c, 0, 48, 83
1, 52469, Note_on_c, 0, 36, 80
1, 52491, Control_c, 0, 64, 0
1, 52621, Note_on_c, 0, 70, 86
1, 52628, Note_on_c, 0, 36, 0
1, 52635, Control_c, 0, 64, 127
1, 52653, Note_on_c, 0, 48, 0
1, 52653, Note_on_c, 0, 79, 0
1, 52778, Note_on_c, 0, 70, 0
1, 52792, Note_on_c, 0, 67, 97
1, 52870, Note_on_c, 0, 67, 0
1, 52889, Note_on_c, 0, 76, 0
1, 52969, Note_on_c, 0, 76, 81
1, 52969, Note_on_c, 0, 79, 107
1, 53043, Note_on_c, 0, 76, 0
1, 53061, Note_on_c, 0, 79, 0
1, 53087, Note_on_c, 0, 52, 109
1, 53087, Note_on_c, 0, 64, 103
1, 53112, Note_on_c, 0, 64, 0
1, 53112, Note_on_c, 0, 52, 0
1, 53134, Note_on_c, 0, 79, 104
1, 53145, Note_on_c, 0, 76, 94
1, 53165, Note_on_c, 0, 64, 101
1, 53171, Note_on_c, 0, 52, 96
1, 53248, Note_on_c, 0, 52, 0
1, 53248, Note_on_c, 0, 64, 0
1, 53315, Note_on_c, 0, 70, 97
1, 53344, Note_on_c, 0, 79, 0
1, 53494, Note_on_c, 0, 67, 108
1, 53529, Note_on_c, 0, 70, 0
1, 53585, Note_on_c, 0, 76, 0
1, 53622, Note_on_c, 0, 67, 0
1, 53683, Note_on_c, 0, 79, 114
1, 53687, Note_on_c, 0, 76, 105
1, 53788, Note_on_c, 0, 76, 0
1, 53788, Note_on_c, 0, 79, 0
1, 53892, Control_c, 0, 64, 0
1, 53895, Note_on_c, 0, 47, 117
1, 53895, Note_on_c, 0, 35, 123
1, 53967, Note_on_c, 0, 35, 0
1, 54001, Note_on_c, 0, 47, 0
1, 54025, Control_c, 0, 64, 127
1, 54173, Note_on_c, 0, 92, 112
1, 54173, Note_on_c, 0, 56, 71
1, 54173, Note_on_c, 0, 80, 112
1, 54178, Note_on_c, 0, 59, 74
1, 54184, Note_on_c, 0, 47, 63
1, 54198, Note_on_c, 0, 52, 78
1, 54248, Note_on_c, 0, 52, 0
1, 54260, Note_on_c, 0, 80, 0
1, 54270, Note_on_c, 0, 47, 0
1, 54274, Note_on_c, 0, 59, 0
1, 54274, Note_on_c, 0, 56, 0
1, 54280, Note_on_c, 0, 92, 0
1, 54404, Note_on_c, 0, 78, 104
1, 54404, Note_on_c, 0, 90, 109
1, 54410, Note_on_c, 0, 56, 63
1, 54415, Note_on_c, 0, 47, 67
1, 54415, Note_on_c, 0, 59, 72
1, 54427, Note_on_c, 0, 52, 74
1, 54463, Note_on_c, 0, 52, 0
1, 54472, Note_on_c, 0, 78, 0
1, 54477, Note_on_c, 0, 47, 0
1, 54482, Note_on_c, 0, 59, 0
1, 54499, Note_on_c, 0, 56, 0
1, 54499, Note_on_c, 0, 90, 0
1, 54586, Note_on_c, 0, 88, 115
1, 54593, Note_on_c, 0, 76, 106
1, 54597, Note_on_c, 0, 59, 77
1, 54597, Note_on_c, 0, 56, 63
1, 54602, Note_on_c, 0, 47, 62
1, 54610, Note_on_c, 0, 52, 65
1, 54624, Note_on_c, 0, 76, 0
1, 54649, Note_on_c, 0, 52, 0
1, 54655, Note_on_c, 0, 47, 0
1, 54660, Note_on_c, 0, 59, 0
1, 54664, Note_on_c, 0, 56, 0
1, 54678, Note_on_c, 0, 88, 0
1, 54761, Note_on_c, 0, 87, 106
1, 54764, Note_on_c, 0, 75, 105
1, 54769, Note_on_c, 0, 59, 70
1, 54772, Note_on_c, 0, 56, 65
1, 54780, Note_on_c, 0, 47, 61
1, 54789, Note_on_c, 0, 52, 60
1, 54822, Note_on_c, 0, 47, 0
1, 54822, Note_on_c, 0, 87, 0
1, 54827, Note_on_c, 0, 52, 0
1, 54830, Note_on_c, 0, 59, 0
1, 54833, Note_on_c, 0, 56, 0
1, 54839, Note_on_c, 0, 75, 0
1, 54923, Note_on_c, 0, 73, 101
1, 54923, Note_on_c, 0, 85, 106
1, 54936, Note_on_c, 0, 59, 75
1, 54936, Note_on_c, 0, 56, 69
1, 54958, Note_on_c, 0, 47, 52
1, 54958, Note_on_c, 0, 52, 55
1, 54986, Note_on_c, 0, 59, 0
1, 54993, Note_on_c, 0, 73, 0
1, 54997, Note_on_c, 0, 56, 0
1, 54997, Note_on_c, 0, 47, 0
1, 54997, Note_on_c, 0, 52, 0
1, 55003, Note_on_c, 0, 85, 0
1, 55087, Note_on_c, 0, 83, 127
1, 55093, Note_on_c, 0, 71, 111
1, 55098, Note_on_c, 0, 59, 72
1, 55101, Note_on_c, 0, 47, 42
1, 55101, Note_on_c, 0, 56, 58
1, 55110, Note_on_c, 0, 52, 44
1, 55120, Note_on_c, 0, 71, 0
1, 55149, Note_on_c, 0, 47, 0
1, 55153, Note_on_c, 0, 59, 0
1, 55153, Note_on_c, 0, 52, 0
1, 55156, Note_on_c, 0, 56, 0
1, 55165, Note_on_c, 0, 83, 0
1, 55246, Note_on_c, 0, 70, 104
1, 55246, Note_on_c, 0, 82, 109
1, 55251, Note_on_c, 0, 59, 78
1, 55251, Note_on_c, 0, 56, 68
1, 55259, Note_on_c, 0, 52, 67
1, 55262, Note_on_c, 0, 47, 57
1, 55298, Note_on_c, 0, 52, 0
1, 55298, Note_on_c, 0, 56, 0
1, 55298, Note_on_c, 0, 59, 0
1, 55298, Note_on_c, 0, 70, 0
1, 55304, Note_on_c, 0, 47, 0
1, 55309, Note_on_c, 0, 82, 0
1, 55402, Control_c, 0, 64, 0
1, 55430, Note_on_c, 0, 85, 109
1, 55430, Note_on_c, 0, 57, 74
1, 55430, Note_on_c, 0, 73, 103
1, 55435, Note_on_c, 0, 51, 81
1, 55435, Note_on_c, 0, 59, 92
1, 55444, Note_on_c, 0, 47, 59
1, 55514, Note_on_c, 0, 57, 0
1, 55519, Note_on_c, 0, 59, 0
1, 55519, Note_on_c, 0, 47, 0
1, 55529, Note_on_c, 0, 51, 0
1, 55535, Control_c, 0, 64, 127
1, 55541, Note_on_c, 0, 73, 0
1, 55549, Note_on_c, 0, 85, 0
1, 55616, Note_on_c, 0, 83, 126
1, 55621, Note_on_c, 0, 71, 109
1, 55625, Note_on_c, 0, 57, 51
1, 55625, Note_on_c, 0, 51, 58
1, 55631, Note_on_c, 0, 59, 72
1, 55639, Note_on_c, 0, 47, 47
1, 55666, Note_on_c, 0, 71, 0
1, 55675, Note_on_c, 0, 59, 0
1, 55681, Note_on_c, 0, 57, 0
1, 55686, Note_on_c, 0, 47, 0
1, 55691, Note_on_c, 0, 51, 0
1, 55691, Note_on_c, 0, 83, 0
1, 55783, Note_on_c, 0, 81, 93
1, 55787, Note_on_c, 0, 47, 53
1, 55787, Note_on_c, 0, 69, 66
1, 55794, Note_on_c, 0, 57, 55
1, 55798, Note_on_c, 0, 51, 58
1, 55798, Note_on_c, 0, 59, 58
1, 55812, Note_on_c, 0, 81, 0
1, 55826, Note_on_c, 0, 69, 0
1, 55833, Note_on_c, 0, 47, 0
1, 55839, Note_on_c, 0, 59, 0
1, 55842, Note_on_c, 0, 57, 0
1, 55842, Note_on_c, 0, 51, 0
1, 55933, Note_on_c, 0, 78, 101
1, 55937, Note_on_c, 0, 66, 94
1, 55951, Note_on_c, 0, 47, 79
1, 55957, Note_on_c, 0, 57, 62
1, 55957, Note_on_c, 0, 51, 77
1, 55962, Note_on_c, 0, 59, 63
1, 55992, Note_on_c, 0, 47, 0
1, 55992, Note_on_c, 0, 66, 0
1, 56003, Note_on_c, 0, 57, 0
1, 56003, Note_on_c, 0, 59, 0
1, 56011, Note_on_c, 0, 51, 0
1, 56017, Note_on_c, 0, 78, 0
1, 56106, Note_on_c, 0, 63, 104
1, 56106, Note_on_c, 0, 75, 102
1, 56112, Note_on_c, 0, 47, 76
1, 56115, Note_on_c, 0, 51, 81
1, 56146, Note_on_c, 0, 51, 0
1, 56159, Note_on_c, 0, 75, 0
1, 56162, Note_on_c, 0, 47, 0
1, 56162, Note_on_c, 0, 63, 0
1, 56273, Note_on_c, 0, 71, 115
1, 56279, Note_on_c, 0, 47, 96
1, 56279, Note_on_c, 0, 35, 105
1, 56279, Note_on_c, 0, 59, 96
1, 56312, Note_on_c, 0, 60, 40
1, 56318, Note_on_c, 0, 59, 0
1, 56318, Note_on_c, 0, 35, 0
1, 56318, Note_on_c, 0, 47, 0
1, 56351, Note_on_c, 0, 71, 0
1, 56365, Note_on_c, 0, 60, 0
1, 56436, Note_on_c, 0, 69, 105
1, 56436, Note_on_c, 0, 47, 96
1, 56436, Note_on_c, 0, 35, 107
1, 56439, Note_on_c, 0, 57, 105
1, 56502, Note_on_c, 0, 57, 0
1, 56519, Note_on_c, 0, 35, 0
1, 56519, Note_on_c, 0, 47, 0
1, 56527, Note_on_c, 0, 69, 0
1, 56605, Note_on_c, 0, 47, 93
1, 56608, Note_on_c, 0, 35, 104
1, 56608, Note_on_c, 0, 54, 115
1, 56608, Note_on_c, 0, 66, 102
1, 56666, Note_on_c, 0, 54, 0
1, 56689, Note_on_c, 0, 47, 0
1, 56699, Note_on_c, 0, 35, 0
1, 56725, Note_on_c, 0, 66, 0
1, 56781, Control_c, 0, 64, 0
1, 56833, Note_on_c, 0, 47, 122
1, 56833, Note_on_c, 0, 35, 124
1, 56895, Note_on_c, 0, 47, 0
1, 56911, Note_on_c, 0, 35, 0
1, 56925, Control_c, 0, 64, 127
1, 57090, Note_on_c, 0, 56, 69
1, 57090, Note_on_c, 0, 92, 112
1, 57090, Note_on_c, 0, 47, 81
1, 57090, Note_on_c, 0, 80, 112
1, 57095, Note_on_c, 0, 59, 76
1, 57109, Note_on_c, 0, 52, 79
1, 57160, Note_on_c, 0, 52, 0
1, 57174, Note_on_c, 0, 80, 0
1, 57187, Note_on_c, 0, 59, 0
1, 57191, Note_on_c, 0, 47, 0
1, 57215, Note_on_c, 0, 56, 0
1, 57223, Note_on_c, 0, 92, 0
1, 57318, Note_on_c, 0, 47, 70
1, 57318, Note_on_c, 0, 78, 101
1, 57318, Note_on_c, 0, 90, 102
1, 57322, Note_on_c, 0, 59, 71
1, 57329, Note_on_c, 0, 56, 64
1, 57343, Note_on_c, 0, 52, 68
1, 57379, Note_on_c, 0, 52, 0
1, 57386, Note_on_c, 0, 47, 0
1, 57386, Note_on_c, 0, 78, 0
1, 57394, Note_on_c, 0, 59, 0
1, 57394, Note_on_c, 0, 56, 0
1, 57401, Note_on_c, 0, 90, 0
1, 57500, Note_on_c, 0, 88, 109
1, 57503, Note_on_c, 0, 76, 101
1, 57507, Note_on_c, 0, 59, 85
1, 57510, Note_on_c, 0, 47, 73
1, 57513, Note_on_c, 0, 56, 66
1, 57519, Note_on_c, 0, 52, 63
1, 57552, Note_on_c, 0, 76, 0
1, 57560, Note_on_c, 0, 47, 0
1, 57560, Note_on_c, 0, 52, 0
1, 57567, Note_on_c, 0, 56, 0
1, 57571, Note_on_c, 0, 88, 0
1, 57574, Note_on_c, 0, 59, 0
1, 57666, Note_on_c, 0, 87, 105
1, 57670, Note_on_c, 0, 75, 104
1, 57678, Note_on_c, 0, 56, 69
1, 57681, Note_on_c, 0, 59, 70
1, 57688, Note_on_c, 0, 47, 59
1, 57698, Note_on_c, 0, 52, 62
1, 57728, Note_on_c, 0, 47, 0
1, 57728, Note_on_c, 0, 87, 0
1, 57737, Note_on_c, 0, 52, 0
1, 57744, Note_on_c, 0, 75, 0
1, 57758, Note_on_c, 0, 56, 0
1, 57758, Note_on_c, 0, 59, 0
1, 57836, Note_on_c, 0, 73, 99
1, 57836, Note_on_c, 0, 85, 106
1, 57840, Note_on_c, 0, 59, 57
1, 57840, Note_on_c, 0, 56, 66
1, 57861, Note_on_c, 0, 47, 55
1, 57893, Note_on_c, 0, 52, 22
1, 57897, Note_on_c, 0, 59, 0
1, 57903, Note_on_c, 0, 47, 0
1, 57923, Note_on_c, 0, 73, 0
1, 57932, Note_on_c, 0, 52, 0
1, 57932, Note_on_c, 0, 85, 0
1, 57945, Note_on_c, 0, 56, 0
1, 58003, Note_on_c, 0, 83, 126
1, 58003, Note_on_c, 0, 71, 108
1, 58007, Note_on_c, 0, 59, 87
1, 58010, Note_on_c, 0, 52, 62
1, 58020, Note_on_c, 0, 55, 73
1, 58028, Note_on_c, 0, 47, 49
1, 58043, Note_on_c, 0, 71, 0
1, 58068, Note_on_c, 0, 83, 0
1, 58071, Note_on_c, 0, 47, 0
1, 58082, Note_on_c, 0, 59, 0
1, 58085, Note_on_c, 0, 55, 0
1, 58085, Note_on_c, 0, 52, 0
1, 58166, Note_on_c, 0, 70, 96
1, 58166, Note_on_c, 0, 82, 103
1, 58176, Note_on_c, 0, 59, 74
1, 58176, Note_on_c, 0, 55, 56
1, 58180, Note_on_c, 0, 52, 64
1, 58190, Note_on_c, 0, 47, 63
1, 58229, Note_on_c, 0, 59, 0
1, 58246, Note_on_c, 0, 70, 0
1, 58246, Note_on_c, 0, 47, 0
1, 58251, Note_on_c, 0, 52, 0
1, 58251, Note_on_c, 0, 55, 0
1, 58266, Note_on_c, 0, 82, 0
1, 58315, Control_c, 0, 64, 0
1, 58361, Note_on_c, 0, 85, 103
1, 58361, Note_on_c, 0, 73, 97
1, 58365, Note_on_c, 0, 57, 77
1, 58369, Note_on_c, 0, 59, 93
1, 58369, Note_on_c, 0, 51, 73
1, 58386, Note_on_c, 0, 47, 53
1, 58441, Note_on_c, 0, 47, 0
1, 58458, Note_on_c, 0, 59, 0
1, 58458, Control_c, 0, 64, 127
1, 58466, Note_on_c, 0, 57, 0
1, 58469, Note_on_c, 0, 51, 0
1, 58478, Note_on_c, 0, 73, 0
1, 58486, Note_on_c, 0, 85, 0
1, 58563, Note_on_c, 0, 83, 123
1, 58563, Note_on_c, 0, 71, 107
1, 58577, Note_on_c, 0, 57, 55
1, 58577, Note_on_c, 0, 47, 56
1, 58581, Note_on_c, 0, 59, 55
1, 58588, Note_on_c, 0, 51, 56
1, 58616, Note_on_c, 0, 71, 0
1, 58627, Note_on_c, 0, 59, 0
1, 58627, Note_on_c, 0, 47, 0
1, 58627, Note_on_c, 0, 83, 0
1, 58627, Note_on_c, 0, 57, 0
1, 58636, Note_on_c, 0, 51, 0
1, 58737, Note_on_c, 0, 81, 102
1, 58748, Note_on_c, 0, 47, 67
1, 58748, Note_on_c, 0, 57, 60
1, 58748, Note_on_c, 0, 69, 49
1, 58753, Note_on_c, 0, 59, 68
1, 58759, Note_on_c, 0, 51, 61
1, 58767, Note_on_c, 0, 81, 0
1, 58800, Note_on_c, 0, 59, 0
1, 58800, Note_on_c, 0, 69, 0
1, 58800, Note_on_c, 0, 57, 0
1, 58805, Note_on_c, 0, 47, 0
1, 58809, Note_on_c, 0, 51, 0
1, 58909, Note_on_c, 0, 78, 99
1, 58913, Note_on_c, 0, 66, 91
1, 58923, Note_on_c, 0, 59, 53
1, 58929, Note_on_c, 0, 57, 44
1, 58948, Note_on_c, 0, 51, 33
1, 58951, Note_on_c, 0, 78, 0
1, 58960, Note_on_c, 0, 66, 0
1, 58973, Note_on_c, 0, 59, 0
1, 58979, Note_on_c, 0, 57, 0
1, 59006, Note_on_c, 0, 51, 0
1, 59112, Note_on_c, 0, 75, 95
1, 59115, Note_on_c, 0, 63, 93
1, 59126, Note_on_c, 0, 51, 71
1, 59126, Note_on_c, 0, 57, 55
1, 59132, Note_on_c, 0, 59, 59
1, 59132, Note_on_c, 0, 47, 64
1, 59140, Note_on_c, 0, 75, 0
1, 59160, Note_on_c, 0, 63, 0
1, 59168, Note_on_c, 0, 59, 0
1, 59168, Note_on_c, 0, 57, 0
1, 59168, Note_on_c, 0, 51, 0
1, 59182, Note_on_c, 0, 47, 0
1, 59319, Note_on_c, 0, 71, 110
1, 59322, Note_on_c, 0, 59, 97
1, 59333, Note_on_c, 0, 47, 71
1, 59333, Control_c, 0, 64, 0
1, 59405, Note_on_c, 0, 59, 0
1, 59405, Control_c, 0, 64, 127
1, 59421, Note_on_c, 0, 71, 0
1, 59444, Note_on_c, 0, 47, 0
1, 59513, Control_c, 0, 64, 0
1, 59528, Note_on_c, 0, 69, 88
1, 59535, Note_on_c, 0, 45, 76
1, 59535, Note_on_c, 0, 57, 82
1, 59555, Note_on_c, 0, 47, 46
1, 59584, Note_on_c, 0, 57, 0
1, 59603, Note_on_c, 0, 47, 0
1, 59603, Note_on_c, 0, 69, 0
1, 59620, Control_c, 0, 64, 127
1, 59647, Note_on_c, 0, 45, 0
1, 59764, Control_c, 0, 64, 0
1, 59773, Note_on_c, 0, 66, 79
1, 59779, Note_on_c, 0, 47, 58
1, 59779, Note_on_c, 0, 54, 78
1, 59783, Note_on_c, 0, 42, 65
1, 59825, Note_on_c, 0, 54, 0
1, 59839, Note_on_c, 0, 47, 0
1, 59850, Control_c, 0, 64, 127
1, 59870, Note_on_c, 0, 66, 0
1, 59884, Note_on_c, 0, 42, 0
1, 60173, Control_c, 0, 64, 0
1, 60237, Note_on_c, 0, 44, 44
1, 60237, Note_on_c, 0, 76, 47
1, 60243, Note_on_c, 0, 32, 34
1, 60488, Note_on_c, 0, 74, 49
1, 60508, Control_c, 0, 64, 127
1, 60520, Note_on_c, 0, 32, 0
1, 60536, Note_on_c, 0, 76, 0
1, 60545, Note_on_c, 0, 44, 0
1, 60719, Note_on_c, 0, 71, 39
1, 60728, Note_on_c, 0, 74, 0
1, 60992, Note_on_c, 0, 65, 33
1, 61104, Note_on_c, 0, 71, 0
1, 61116, Note_on_c, 0, 52, 76
1, 61116, Note_on_c, 0, 64, 64
1, 61120, Note_on_c, 0, 65, 0
1, 61151, Note_on_c, 0, 52, 0
1, 61155, Note_on_c, 0, 64, 0
1, 61208, Note_on_c, 0, 52, 69
1, 61219, Note_on_c, 0, 64, 70
1, 61414, Note_on_c, 0, 74, 63
1, 61436, Note_on_c, 0, 64, 0
1, 61533, Note_on_c, 0, 52, 0
1, 61606, Note_on_c, 0, 71, 78
1, 61620, Note_on_c, 0, 74, 0
1, 61809, Note_on_c, 0, 71, 0
1, 61809, Note_on_c, 0, 77, 72
1, 61892, Note_on_c, 0, 32, 59
1, 61898, Note_on_c, 0, 44, 58
1, 61937, Note_on_c, 0, 32, 0
1, 61946, Note_on_c, 0, 44, 0
1, 61982, Control_c, 0, 64, 0
1, 61993, Note_on_c, 0, 76, 57
1, 62007, Note_on_c, 0, 32, 35
1, 62012, Note_on_c, 0, 77, 0
1, 62023, Note_on_c, 0, 44, 58
1, 62102, Control_c, 0, 64, 127
1, 62141, Note_on_c, 0, 44, 0
1, 62154, Note_on_c, 0, 32, 0
1, 62208, Note_on_c, 0, 76, 0
1, 62212, Note_on_c, 0, 74, 48
1, 62272, Note_on_c, 0, 74, 0
1, 62417, Note_on_c, 0, 71, 53
1, 62475, Note_on_c, 0, 71, 0
1, 62614, Note_on_c, 0, 68, 40
1, 62711, Note_on_c, 0, 68, 0
1, 62825, Note_on_c, 0, 64, 55
1, 62845, Note_on_c, 0, 52, 30
1, 62865, Note_on_c, 0, 64, 0
1, 62893, Note_on_c, 0, 52, 0
1, 62945, Note_on_c, 0, 64, 56
1, 62965, Note_on_c, 0, 52, 66
1, 63077, Note_on_c, 0, 52, 0
1, 63087, Note_on_c, 0, 64, 0
1, 63168, Note_on_c, 0, 74, 67
1, 63361, Note_on_c, 0, 71, 80
1, 63383, Note_on_c, 0, 74, 0
1, 63556, Note_on_c, 0, 76, 72
1, 63575, Note_on_c, 0, 71, 0
1, 63667, Note_on_c, 0, 76, 0
1, 63753, Note_on_c, 0, 76, 43
1, 63764, Note_on_c, 0, 34, 47
1, 63764, Note_on_c, 0, 46, 38
1, 63779, Control_c, 0, 64, 0
1, 63960, Control_c, 0, 64, 127
1, 63970, Note_on_c, 0, 73, 40
1, 64018, Note_on_c, 0, 34, 0
1, 64037, Note_on_c, 0, 76, 0
1, 64048, Note_on_c, 0, 46, 0
1, 64171, Note_on_c, 0, 70, 42
1, 64293, Note_on_c, 0, 73, 0
1, 64371, Note_on_c, 0, 70, 0
1, 64403, Note_on_c, 0, 67, 29
1, 64548, Note_on_c, 0, 64, 69
1, 64551, Note_on_c, 0, 52, 71
1, 64587, Note_on_c, 0, 52, 0
1, 64587, Note_on_c, 0, 64, 0
1, 64665, Note_on_c, 0, 64, 58
1, 64670, Note_on_c, 0, 52, 36
1, 64787, Note_on_c, 0, 64, 0
1, 64868, Note_on_c, 0, 52, 0
1, 64868, Note_on_c, 0, 67, 0
1, 64873, Note_on_c, 0, 76, 53
1, 65066, Note_on_c, 0, 73, 58
1, 65091, Note_on_c, 0, 76, 0
1, 65277, Note_on_c, 0, 73, 0
1, 65277, Note_on_c, 0, 79, 65
1, 65358, Note_on_c, 0, 46, 40
1, 65364, Note_on_c, 0, 34, 35
1, 65411, Note_on_c, 0, 46, 0
1, 65420, Note_on_c, 0, 34, 0
1, 65484, Note_on_c, 0, 46, 29
1, 65497, Note_on_c, 0, 76, 49
1, 65502, Note_on_c, 0, 34, 31
1, 65514, Note_on_c, 0, 79, 0
1, 65548, Note_on_c, 0, 46, 0
1, 65576, Note_on_c, 0, 34, 0
1, 65722, Note_on_c, 0, 76, 0
1, 65722, Note_on_c, 0, 73, 37
1, 65935, Note_on_c, 0, 70, 34
1, 65945, Note_on_c, 0, 73, 0
1, 66169, Note_on_c, 0, 70, 0
1, 66177, Note_on_c, 0, 67, 34
1, 66282, Note_on_c, 0, 67, 0
1, 66321, Note_on_c, 0, 64, 53
1, 66342, Note_on_c, 0, 52, 25
1, 66364, Note_on_c, 0, 64, 0
1, 66389, Note_on_c, 0, 52, 0
1, 66481, Note_on_c, 0, 52, 41
1, 66498, Note_on_c, 0, 64, 27
1, 66547, Note_on_c, 0, 64, 0
1, 66547, Note_on_c, 0, 52, 0
1, 66673, Note_on_c, 0, 73, 46
1, 66948, Note_on_c, 0, 67, 36
1, 67072, Note_on_c, 0, 73, 0
1, 67196, Note_on_c, 0, 67, 0
1, 67257, Note_on_c, 0, 76, 42
1, 67679, Note_on_c, 0, 80, 78
1, 67720, Note_on_c, 0, 35, 44
1, 67746, Control_c, 0, 64, 0
1, 67926, Control_c, 0, 64, 127
1, 68007, Note_on_c, 0, 35, 0
1, 68068, Note_on_c, 0, 71, 40
1, 68079, Note_on_c, 0, 47, 29
1, 68121, Note_on_c, 0, 76, 0
1, 68169, Note_on_c, 0, 47, 0
1, 68317, Note_on_c, 0, 68, 36
1, 68327, Note_on_c, 0, 71, 0
1, 68327, Note_on_c, 0, 52, 32
1, 68433, Note_on_c, 0, 68, 0
1, 68528, Note_on_c, 0, 56, 36
1, 68531, Note_on_c, 0, 52, 0
1, 68534, Note_on_c, 0, 71, 49
1, 68671, Note_on_c, 0, 56, 0
1, 68715, Note_on_c, 0, 71, 0
1, 68715, Note_on_c, 0, 76, 71
1, 68753, Note_on_c, 0, 59, 31
1, 68773, Note_on_c, 0, 80, 0
1, 68845, Note_on_c, 0, 59, 0
1, 68915, Note_on_c, 0, 56, 37
1, 69004, Note_on_c, 0, 56, 0
1, 69080, Note_on_c, 0, 64, 42
1, 69099, Note_on_c, 0, 47, 30
1, 69157, Note_on_c, 0, 64, 0
1, 69271, Note_on_c, 0, 68, 47
1, 69283, Note_on_c, 0, 52, 38
1, 69363, Note_on_c, 0, 47, 0
1, 69456, Note_on_c, 0, 52, 0
1, 69464, Note_on_c, 0, 71, 74
1, 69487, Note_on_c, 0, 68, 0
1, 69487, Note_on_c, 0, 56, 24
1, 69556, Note_on_c, 0, 76, 0
1, 69612, Note_on_c, 0, 56, 0
1, 69662, Note_on_c, 0, 59, 33
1, 69817, Note_on_c, 0, 59, 0
1, 69852, Note_on_c, 0, 68, 36
1, 70080, Note_on_c, 0, 64, 26
1, 70169, Note_on_c, 0, 64, 0
1, 70283, Note_on_c, 0, 71, 0
1, 70283, Note_on_c, 0, 59, 25
1, 70439, Note_on_c, 0, 59, 0
1, 70508, Note_on_c, 0, 56, 38
1, 70589, Note_on_c, 0, 56, 0
1, 70609, Note_on_c, 0, 64, 11
1, 70714, Note_on_c, 0, 71, 87
1, 70749, Note_on_c, 0, 52, 34
1, 70801, Note_on_c, 0, 52, 0
1, 70816, Note_on_c, 0, 68, 0
1, 70910, Note_on_c, 0, 47, 36
1, 70968, Note_on_c, 0, 47, 0
1, 71001, Note_on_c, 0, 64, 0
1, 71072, Note_on_c, 0, 73, 77
1, 71090, Note_on_c, 0, 35, 56
1, 71127, Control_c, 0, 64, 0
1, 71164, Note_on_c, 0, 71, 0
1, 71244, Note_on_c, 0, 35, 0
1, 71270, Control_c, 0, 64, 127
1, 71286, Note_on_c, 0, 47, 41
1, 71339, Note_on_c, 0, 47, 0
1, 71444, Note_on_c, 0, 52, 69
1, 71448, Note_on_c, 0, 70, 38
1, 71467, Note_on_c, 0, 64, 35
1, 71483, Note_on_c, 0, 67, 17
1, 71503, Note_on_c, 0, 52, 0
1, 71551, Note_on_c, 0, 64, 0
1, 71582, Note_on_c, 0, 67, 0
1, 71600, Note_on_c, 0, 70, 0
1, 71656, Note_on_c, 0, 55, 60
1, 71665, Note_on_c, 0, 73, 0
1, 71768, Note_on_c, 0, 55, 0
1, 71882, Note_on_c, 0, 75, 77
1, 71907, Note_on_c, 0, 70, 31
1, 71924, Note_on_c, 0, 59, 36
1, 71932, Note_on_c, 0, 64, 38
1, 71938, Note_on_c, 0, 67, 25
1, 72083, Note_on_c, 0, 67, 0
1, 72091, Note_on_c, 0, 64, 0
1, 72103, Note_on_c, 0, 70, 0
1, 72171, Note_on_c, 0, 55, 31
1, 72217, Note_on_c, 0, 75, 0
1, 72252, Note_on_c, 0, 55, 0
1, 72400, Note_on_c, 0, 76, 58
1, 72412, Note_on_c, 0, 52, 38
1, 72428, Note_on_c, 0, 70, 27
1, 72433, Note_on_c, 0, 67, 27
1, 72450, Note_on_c, 0, 64, 15
1, 72492, Note_on_c, 0, 52, 0
1, 72495, Note_on_c, 0, 59, 0
1, 72687, Note_on_c, 0, 47, 34
1, 72776, Note_on_c, 0, 47, 0
1, 72946, Note_on_c, 0, 43, 45
1, 73008, Control_c, 0, 64, 0
1, 73152, Control_c, 0, 64, 127
1, 73160, Note_on_c, 0, 67, 0
1, 73188, Note_on_c, 0, 42, 45
1, 73208, Note_on_c, 0, 43, 0
1, 73353, Note_on_c, 0, 76, 0
1, 73353, Note_on_c, 0, 64, 0
1, 73386, Note_on_c, 0, 70, 0
1, 73400, Note_on_c, 0, 43, 56
1, 73426, Note_on_c, 0, 42, 0
1, 73464, Control_c, 0, 64, 0
1, 73595, Control_c, 0, 64, 127
1, 73601, Note_on_c, 0, 40, 72
1, 73620, Note_on_c, 0, 43, 0
1, 73667, Control_c, 0, 64, 0
1, 73796, Note_on_c, 0, 43, 61
1, 73796, Control_c, 0, 64, 127
1, 73810, Note_on_c, 0, 40, 0
1, 73848, Control_c, 0, 64, 0
1, 73991, Control_c, 0, 64, 127
1, 74011, Note_on_c, 0, 42, 45
1, 74035, Note_on_c, 0, 43, 0
1, 74035, Control_c, 0, 64, 0
1, 74170, Control_c, 0, 64, 127
1, 74261, Note_on_c, 0, 42, 0
1, 74267, Note_on_c, 0, 43, 47
1, 74291, Control_c, 0, 64, 0
1, 74422, Control_c, 0, 64, 127
1, 74532, Note_on_c, 0, 43, 0
1, 74537, Note_on_c, 0, 40, 55
1, 74704, Note_on_c, 0, 40, 0
1, 74865, Note_on_c, 0, 73, 87
1, 74904, Note_on_c, 0, 35, 46
1, 74938, Control_c, 0, 64, 0
1, 75069, Note_on_c, 0, 35, 0
1, 75094, Note_on_c, 0, 47, 52
1, 75094, Control_c, 0, 64, 127
1, 75194, Note_on_c, 0, 47, 0
1, 75269, Note_on_c, 0, 70, 53
1, 75278, Note_on_c, 0, 64, 52
1, 75283, Note_on_c, 0, 67, 45
1, 75289, Note_on_c, 0, 52, 57
1, 75353, Note_on_c, 0, 52, 0
1, 75412, Note_on_c, 0, 64, 0
1, 75416, Note_on_c, 0, 67, 0
1, 75443, Note_on_c, 0, 70, 0
1, 75478, Note_on_c, 0, 55, 49
1, 75532, Note_on_c, 0, 55, 0
1, 75690, Note_on_c, 0, 75, 84
1, 75708, Note_on_c, 0, 64, 44
1, 75720, Note_on_c, 0, 70, 38
1, 75720, Note_on_c, 0, 59, 35
1, 75749, Note_on_c, 0, 67, 27
1, 75816, Note_on_c, 0, 73, 0
1, 75858, Note_on_c, 0, 67, 0
1, 75891, Note_on_c, 0, 59, 0
1, 75891, Note_on_c, 0, 64, 0
1, 75924, Note_on_c, 0, 70, 0
1, 75947, Note_on_c, 0, 55, 38
1, 76057, Note_on_c, 0, 75, 0
1, 76163, Note_on_c, 0, 55, 0
1, 76198, Note_on_c, 0, 52, 47
1, 76241, Note_on_c, 0, 76, 65
1, 76255, Note_on_c, 0, 70, 44
1, 76259, Note_on_c, 0, 67, 38
1, 76272, Note_on_c, 0, 64, 38
1, 76280, Control_c, 0, 64, 0
1, 76420, Note_on_c, 0, 52, 0
1, 76420, Control_c, 0, 64, 127
1, 76504, Note_on_c, 0, 47, 30
1, 76596, Note_on_c, 0, 47, 0
1, 76808, Note_on_c, 0, 43, 45
1, 77025, Note_on_c, 0, 42, 52
1, 77033, Note_on_c, 0, 43, 0
1, 77071, Control_c, 0, 64, 0
1, 77203, Control_c, 0, 64, 127
1, 77225, Note_on_c, 0, 43, 61
1, 77248, Note_on_c, 0, 42, 0
1, 77401, Note_on_c, 0, 43, 0
1, 77415, Note_on_c, 0, 40, 72
1, 77531, Note_on_c, 0, 67, 0
1, 77559, Note_on_c, 0, 76, 0
1, 77568, Note_on_c, 0, 64, 0
1, 77585, Control_c, 0, 64, 0
1, 77593, Note_on_c, 0, 40, 0
1, 77621, Note_on_c, 0, 43, 67
1, 77643, Note_on_c, 0, 70, 0
1, 77790, Control_c, 0, 64, 127
1, 77840, Note_on_c, 0, 42, 55
1, 77855, Note_on_c, 0, 43, 0
1, 77874, Control_c, 0, 64, 0
1, 78017, Control_c, 0, 64, 127
1, 78102, Control_c, 0, 64, 0
1, 78120, Note_on_c, 0, 42, 0
1, 78127, Note_on_c, 0, 43, 50
1, 78258, Control_c, 0, 64, 127
1, 78409, Note_on_c, 0, 40, 54
1, 78412, Note_on_c, 0, 43, 0
1, 78721, Note_on_c, 0, 40, 0
1, 78738, Note_on_c, 0, 35, 72
1, 78977, Note_on_c, 0, 48, 46
1, 79120, Control_c, 0, 64, 0
1, 79186, Note_on_c, 0, 52, 69
1, 79264, Control_c, 0, 64, 127
1, 79312, Note_on_c, 0, 48, 0
1, 79378, Note_on_c, 0, 54, 74
1, 79401, Note_on_c, 0, 52, 0
1, 79560, Note_on_c, 0, 54, 0
1, 79574, Note_on_c, 0, 57, 54
1, 79730, Note_on_c, 0, 57, 0
1, 79765, Note_on_c, 0, 60, 56
1, 79818, Note_on_c, 0, 35, 0
1, 79955, Note_on_c, 0, 64, 55
1, 79985, Note_on_c, 0, 60, 0
1, 80145, Note_on_c, 0, 66, 48
1, 80181, Note_on_c, 0, 64, 0
1, 80287, Note_on_c, 0, 66, 0
1, 80345, Note_on_c, 0, 54, 69
1, 80368, Note_on_c, 0, 47, 43
1, 80549, Note_on_c, 0, 60, 54
1, 80737, Note_on_c, 0, 64, 63
1, 80741, Note_on_c, 0, 60, 0
1, 80914, Note_on_c, 0, 66, 57
1, 80917, Note_on_c, 0, 64, 0
1, 81112, Note_on_c, 0, 66, 0
1, 81123, Note_on_c, 0, 69, 46
1, 81258, Note_on_c, 0, 69, 0
1, 81331, Note_on_c, 0, 72, 45
1, 81339, Note_on_c, 0, 54, 0
1, 81345, Note_on_c, 0, 47, 0
1, 81534, Note_on_c, 0, 72, 0
1, 81551, Note_on_c, 0, 76, 44
1, 81827, Note_on_c, 0, 78, 45
1, 81857, Note_on_c, 0, 76, 0
1, 81978, Note_on_c, 0, 78, 0
1, 82088, Note_on_c, 0, 35, 50
1, 82094, Note_on_c, 0, 47, 38
1, 82141, Control_c, 0, 64, 0
1, 82337, Note_on_c, 0, 54, 54
1, 82343, Control_c, 0, 64, 127
1, 82621, Note_on_c, 0, 54, 0
1, 82621, Note_on_c, 0, 57, 51
1, 82863, Note_on_c, 0, 57, 0
1, 82863, Note_on_c, 0, 59, 59
1, 83066, Note_on_c, 0, 63, 63
1, 83070, Note_on_c, 0, 59, 0
1, 83253, Note_on_c, 0, 66, 54
1, 83284, Note_on_c, 0, 63, 0
1, 83457, Note_on_c, 0, 66, 0
1, 83462, Note_on_c, 0, 69, 47
1, 83649, Note_on_c, 0, 69, 0
1, 83669, Note_on_c, 0, 71, 58
1, 83883, Note_on_c, 0, 71, 0
1, 83891, Note_on_c, 0, 75, 49
1, 84022, Note_on_c, 0, 47, 0
1, 84122, Note_on_c, 0, 78, 59
1, 84148, Note_on_c, 0, 35, 0
1, 84165, Note_on_c, 0, 75, 0
1, 84379, Note_on_c, 0, 78, 0
1, 84379, Note_on_c, 0, 81, 52
1, 84658, Note_on_c, 0, 82, 47
1, 84674, Note_on_c, 0, 81, 0
1, 84988, Note_on_c, 0, 82, 0
1, 84991, Note_on_c, 0, 83, 76
1, 85292, Note_on_c, 0, 83, 0
1, 85376, Note_on_c, 0, 84, 58
1, 85738, Note_on_c, 0, 84, 0
1, 85945, Note_on_c, 0, 85, 52
1, 87421, Note_on_c, 0, 85, 0
1, 87438, Note_on_c, 0, 87, 27
1, 88172, Note_on_c, 0, 87, 0
1, 88683, Control_c, 0, 64, 0
1, 88795, Note_on_c, 0, 88, 59
1, 88836, Note_on_c, 0, 88, 0
1, 88852, Note_on_c, 0, 87, 62
1, 88906, Note_on_c, 0, 88, 56
1, 88906, Note_on_c, 0, 40, 88
1, 88916, Note_on_c, 0, 52, 68
1, 88936, Note_on_c, 0, 40, 0
1, 88948, Note_on_c, 0, 87, 0
1, 88951, Note_on_c, 0, 88, 0
1, 88951, Note_on_c, 0, 52, 0
1, 89053, Note_on_c, 0, 83, 76
1, 89053, Note_on_c, 0, 79, 66
1, 89090, Note_on_c, 0, 83, 0
1, 89093, Note_on_c, 0, 79, 0
1, 89175, Note_on_c, 0, 81, 68
1, 89179, Note_on_c, 0, 84, 67
1, 89182, Note_on_c, 0, 76, 50
1, 89209, Note_on_c, 0, 81, 0
1, 89220, Note_on_c, 0, 76, 0
1, 89220, Note_on_c, 0, 84, 0
1, 89220, Note_on_c, 0, 75, 74
1, 89268, Note_on_c, 0, 75, 0
1, 89278, Note_on_c, 0, 76, 69
1, 89278, Note_on_c, 0, 83, 112
1, 89282, Note_on_c, 0, 79, 85
1, 89306, Note_on_c, 0, 83, 0
1, 89312, Note_on_c, 0, 76, 0
1, 89317, Note_on_c, 0, 79, 0
1, 89421, Note_on_c, 0, 79, 70
1, 89429, Note_on_c, 0, 71, 50
1, 89435, Note_on_c, 0, 76, 42
1, 89459, Note_on_c, 0, 79, 0
1, 89485, Note_on_c, 0, 71, 0
1, 89488, Note_on_c, 0, 76, 0
1, 89541, Note_on_c, 0, 76, 66
1, 89544, Note_on_c, 0, 81, 76
1, 89555, Note_on_c, 0, 72, 66
1, 89580, Note_on_c, 0, 81, 0
1, 89591, Note_on_c, 0, 72, 0
1, 89591, Note_on_c, 0, 75, 68
1, 89595, Note_on_c, 0, 76, 0
1, 89630, Note_on_c, 0, 75, 0
1, 89653, Note_on_c, 0, 71, 77
1, 89656, Note_on_c, 0, 76, 67
1, 89656, Note_on_c, 0, 79, 88
1, 89691, Note_on_c, 0, 79, 0
1, 89691, Note_on_c, 0, 71, 0
1, 89697, Note_on_c, 0, 76, 0
1, 89792, Note_on_c, 0, 76, 54
1, 89799, Note_on_c, 0, 67, 59
1, 89803, Note_on_c, 0, 71, 59
1, 89830, Note_on_c, 0, 76, 0
1, 89841, Note_on_c, 0, 67, 0
1, 89847, Note_on_c, 0, 71, 0
1, 89900, Note_on_c, 0, 78, 79
1, 89919, Note_on_c, 0, 69, 57
1, 89919, Note_on_c, 0, 64, 69
1, 89933, Note_on_c, 0, 78, 0
1, 89933, Note_on_c, 0, 72, 38
1, 89958, Note_on_c, 0, 64, 0
1, 89962, Note_on_c, 0, 69, 0
1, 89976, Note_on_c, 0, 63, 53
1, 89992, Note_on_c, 0, 72, 0
1, 90020, Note_on_c, 0, 63, 0
1, 90020, Note_on_c, 0, 71, 88
1, 90020, Note_on_c, 0, 67, 84
1, 90025, Note_on_c, 0, 76, 70
1, 90040, Note_on_c, 0, 64, 53
1, 90056, Note_on_c, 0, 71, 0
1, 90061, Note_on_c, 0, 67, 0
1, 90064, Note_on_c, 0, 76, 0
1, 90082, Note_on_c, 0, 64, 0
1, 90161, Note_on_c, 0, 52, 90
1, 90179, Note_on_c, 0, 71, 53
1, 90186, Note_on_c, 0, 67, 41
1, 90189, Note_on_c, 0, 52, 0
1, 90231, Note_on_c, 0, 71, 0
1, 90245, Note_on_c, 0, 67, 0
1, 90281, Note_on_c, 0, 71, 87
1, 90298, Note_on_c, 0, 67, 73
1, 90315, Note_on_c, 0, 64, 56
1, 90323, Note_on_c, 0, 71, 0
1, 90334, Note_on_c, 0, 70, 73
1, 90363, Note_on_c, 0, 64, 0
1, 90366, Note_on_c, 0, 67, 0
1, 90387, Note_on_c, 0, 70, 0
1, 90398, Note_on_c, 0, 66, 61
1, 90402, Note_on_c, 0, 71, 85
1, 90412, Note_on_c, 0, 63, 69
1, 90438, Note_on_c, 0, 66, 0
1, 90444, Note_on_c, 0, 63, 0
1, 90444, Note_on_c, 0, 71, 0
1, 90530, Note_on_c, 0, 75, 83
1, 90540, Note_on_c, 0, 59, 52
1, 90565, Note_on_c, 0, 75, 0
1, 90582, Note_on_c, 0, 59, 0
1, 90652, Note_on_c, 0, 71, 88
1, 90655, Note_on_c, 0, 64, 52
1, 90663, Note_on_c, 0, 67, 49
1, 90685, Note_on_c, 0, 71, 0
1, 90696, Note_on_c, 0, 70, 75
1, 90708, Note_on_c, 0, 64, 0
1, 90739, Note_on_c, 0, 70, 0
1, 90747, Note_on_c, 0, 67, 0
1, 90761, Note_on_c, 0, 71, 62
1, 90761, Note_on_c, 0, 66, 54
1, 90770, Note_on_c, 0, 63, 68
1, 90808, Note_on_c, 0, 63, 0
1, 90808, Note_on_c, 0, 66, 0
1, 90814, Note_on_c, 0, 71, 0
1, 90894, Note_on_c, 0, 78, 75
1, 90916, Note_on_c, 0, 59, 38
1, 90926, Note_on_c, 0, 78, 0
1, 90964, Note_on_c, 0, 59, 0
1, 91011, Note_on_c, 0, 71, 77
1, 91037, Note_on_c, 0, 67, 44
1, 91047, Note_on_c, 0, 71, 0
1, 91054, Note_on_c, 0, 70, 74
1, 91098, Note_on_c, 0, 70, 0
1, 91112, Note_on_c, 0, 67, 0
1, 91118, Note_on_c, 0, 71, 61
1, 91132, Note_on_c, 0, 63, 57
1, 91153, Note_on_c, 0, 66, 31
1, 91168, Note_on_c, 0, 71, 0
1, 91173, Note_on_c, 0, 63, 0
1, 91209, Note_on_c, 0, 66, 0
1, 91246, Note_on_c, 0, 83, 98
1, 91256, Note_on_c, 0, 75, 56
1, 91276, Note_on_c, 0, 83, 0
1, 91276, Note_on_c, 0, 59, 27
1, 91296, Note_on_c, 0, 75, 0
1, 91323, Note_on_c, 0, 59, 0
1, 91368, Note_on_c, 0, 76, 73
1, 91376, Note_on_c, 0, 70, 58
1, 91376, Note_on_c, 0, 79, 66
1, 91401, Note_on_c, 0, 76, 0
1, 91416, Note_on_c, 0, 79, 0
1, 91416, Note_on_c, 0, 70, 0
1, 91493, Note_on_c, 0, 78, 88
1, 91493, Note_on_c, 0, 71, 87
1, 91493, Note_on_c, 0, 75, 81
1, 91532, Note_on_c, 0, 75, 0
1, 91532, Note_on_c, 0, 71, 0
1, 91536, Control_c, 0, 64, 127
1, 91572, Note_on_c, 0, 78, 0
1, 91608, Control_c, 0, 64, 0
1, 91628, Note_on_c, 0, 59, 78
1, 91658, Note_on_c, 0, 59, 0
1, 91758, Note_on_c, 0, 88, 92
1, 91800, Note_on_c, 0, 88, 0
1, 91805, Note_on_c, 0, 87, 77
1, 91875, Note_on_c, 0, 88, 103
1, 91875, Note_on_c, 0, 40, 106
1, 91883, Note_on_c, 0, 52, 93
1, 91900, Note_on_c, 0, 40, 0
1, 91900, Note_on_c, 0, 87, 0
1, 91916, Note_on_c, 0, 52, 0
1, 91920, Control_c, 0, 64, 127
1, 91942, Note_on_c, 0, 88, 0
1, 91942, Control_c, 0, 64, 0
1, 92015, Note_on_c, 0, 83, 109
1, 92020, Note_on_c, 0, 79, 90
1, 92047, Note_on_c, 0, 83, 0
1, 92053, Note_on_c, 0, 79, 0
1, 92150, Note_on_c, 0, 84, 84
1, 92150, Note_on_c, 0, 81, 72
1, 92150, Note_on_c, 0, 76, 59
1, 92185, Note_on_c, 0, 81, 0
1, 92190, Note_on_c, 0, 76, 0
1, 92195, Note_on_c, 0, 84, 0
1, 92204, Note_on_c, 0, 75, 76
1, 92249, Note_on_c, 0, 75, 0
1, 92252, Note_on_c, 0, 79, 101
1, 92252, Note_on_c, 0, 83, 115
1, 92252, Note_on_c, 0, 76, 66
1, 92285, Note_on_c, 0, 83, 0
1, 92295, Note_on_c, 0, 79, 0
1, 92310, Note_on_c, 0, 76, 0
1, 92398, Note_on_c, 0, 79, 86
1, 92402, Note_on_c, 0, 71, 59
1, 92402, Note_on_c, 0, 76, 56
1, 92432, Note_on_c, 0, 79, 0
1, 92443, Note_on_c, 0, 76, 0
1, 92447, Note_on_c, 0, 71, 0
1, 92518, Note_on_c, 0, 81, 86
1, 92524, Note_on_c, 0, 76, 41
1, 92539, Note_on_c, 0, 72, 68
1, 92554, Note_on_c, 0, 81, 0
1, 92571, Note_on_c, 0, 76, 0
1, 92571, Note_on_c, 0, 75, 71
1, 92576, Note_on_c, 0, 72, 0
1, 92608, Note_on_c, 0, 75, 0
1, 92630, Note_on_c, 0, 76, 72
1, 92630, Note_on_c, 0, 79, 101
1, 92636, Note_on_c, 0, 71, 84
1, 92669, Note_on_c, 0, 71, 0
1, 92669, Note_on_c, 0, 76, 0
1, 92685, Note_on_c, 0, 79, 0
1, 92769, Note_on_c, 0, 71, 66
1, 92777, Note_on_c, 0, 76, 54
1, 92781, Note_on_c, 0, 67, 53
1, 92808, Note_on_c, 0, 71, 0
1, 92817, Note_on_c, 0, 76, 0
1, 92827, Note_on_c, 0, 67, 0
1, 92886, Note_on_c, 0, 78, 82
1, 92892, Note_on_c, 0, 64, 75
1, 92897, Note_on_c, 0, 69, 66
1, 92905, Note_on_c, 0, 72, 61
1, 92917, Note_on_c, 0, 78, 0
1, 92933, Note_on_c, 0, 64, 0
1, 92939, Note_on_c, 0, 69, 0
1, 92942, Note_on_c, 0, 72, 0
1, 92945, Note_on_c, 0, 63, 64
1, 92983, Note_on_c, 0, 63, 0
1, 93006, Note_on_c, 0, 71, 86
1, 93006, Note_on_c, 0, 67, 79
1, 93006, Note_on_c, 0, 76, 66
1, 93015, Note_on_c, 0, 64, 64
1, 93045, Note_on_c, 0, 71, 0
1, 93048, Note_on_c, 0, 67, 0
1, 93048, Note_on_c, 0, 76, 0
1, 93054, Note_on_c, 0, 64, 0
1, 93148, Note_on_c, 0, 52, 78
1, 93163, Note_on_c, 0, 67, 50
1, 93181, Note_on_c, 0, 52, 0
1, 93181, Note_on_c, 0, 71, 20
1, 93218, Note_on_c, 0, 71, 0
1, 93218, Note_on_c, 0, 67, 0
1, 93277, Note_on_c, 0, 71, 79
1, 93280, Note_on_c, 0, 67, 51
1, 93307, Note_on_c, 0, 64, 57
1, 93315, Note_on_c, 0, 71, 0
1, 93327, Note_on_c, 0, 70, 64
1, 93351, Note_on_c, 0, 64, 0
1, 93371, Note_on_c, 0, 70, 0
1, 93377, Note_on_c, 0, 67, 0
1, 93394, Note_on_c, 0, 71, 71
1, 93399, Note_on_c, 0, 66, 45
1, 93405, Note_on_c, 0, 63, 59
1, 93443, Note_on_c, 0, 63, 0
1, 93443, Note_on_c, 0, 66, 0
1, 93460, Note_on_c, 0, 71, 0
1, 93532, Note_on_c, 0, 75, 69
1, 93536, Note_on_c, 0, 59, 50
1, 93568, Note_on_c, 0, 75, 0
1, 93578, Note_on_c, 0, 59, 0
1, 93658, Note_on_c, 0, 71, 75
1, 93664, Note_on_c, 0, 67, 49
1, 93671, Note_on_c, 0, 64, 43
1, 93695, Note_on_c, 0, 71, 0
1, 93702, Note_on_c, 0, 70, 67
1, 93720, Note_on_c, 0, 64, 0
1, 93734, Note_on_c, 0, 67, 0
1, 93745, Note_on_c, 0, 70, 0
1, 93766, Note_on_c, 0, 71, 62
1, 93769, Note_on_c, 0, 63, 50
1, 93772, Note_on_c, 0, 66, 38
1, 93811, Note_on_c, 0, 63, 0
1, 93822, Note_on_c, 0, 66, 0
1, 93826, Note_on_c, 0, 71, 0
1, 93901, Note_on_c, 0, 78, 69
1, 93906, Note_on_c, 0, 59, 53
1, 93934, Note_on_c, 0, 78, 0
1, 93945, Note_on_c, 0, 59, 0
1, 94012, Note_on_c, 0, 71, 82
1, 94034, Note_on_c, 0, 67, 39
1, 94034, Note_on_c, 0, 64, 47
1, 94048, Note_on_c, 0, 71, 0
1, 94057, Note_on_c, 0, 70, 70
1, 94103, Note_on_c, 0, 64, 0
1, 94109, Note_on_c, 0, 70, 0
1, 94112, Note_on_c, 0, 67, 0
1, 94120, Note_on_c, 0, 71, 68
1, 94120, Note_on_c, 0, 63, 64
1, 94137, Note_on_c, 0, 66, 39
1, 94162, Note_on_c, 0, 63, 0
1, 94165, Note_on_c, 0, 71, 0
1, 94188, Note_on_c, 0, 66, 0
1, 94246, Note_on_c, 0, 83, 88
1, 94254, Note_on_c, 0, 75, 49
1, 94257, Note_on_c, 0, 78, 36
1, 94268, Note_on_c, 0, 59, 39
1, 94282, Note_on_c, 0, 83, 0
1, 94298, Note_on_c, 0, 75, 0
1, 94312, Note_on_c, 0, 78, 0
1, 94319, Note_on_c, 0, 59, 0
1, 94377, Note_on_c, 0, 76, 64
1, 94377, Note_on_c, 0, 79, 78
1, 94382, Note_on_c, 0, 70, 60
1, 94411, Note_on_c, 0, 76, 0
1, 94414, Note_on_c, 0, 79, 0
1, 94421, Note_on_c, 0, 70, 0
1, 94499, Note_on_c, 0, 78, 85
1, 94507, Note_on_c, 0, 71, 77
1, 94511, Note_on_c, 0, 75, 69
1, 94552, Note_on_c, 0, 71, 0
1, 94561, Note_on_c, 0, 75, 0
1, 94583, Note_on_c, 0, 78, 0
1, 94638, Note_on_c, 0, 59, 69
1, 94674, Note_on_c, 0, 59, 0
1, 94758, Note_on_c, 0, 65, 65
1, 94764, Note_on_c, 0, 69, 68
1, 94767, Note_on_c, 0, 62, 71
1, 94800, Note_on_c, 0, 69, 0
1, 94800, Note_on_c, 0, 68, 78
1, 94812, Note_on_c, 0, 62, 0
1, 94817, Note_on_c, 0, 65, 0
1, 94844, Note_on_c, 0, 68, 0
1, 94873, Note_on_c, 0, 69, 30
1, 94873, Note_on_c, 0, 64, 54
1, 94879, Note_on_c, 0, 61, 68
1, 94914, Note_on_c, 0, 64, 0
1, 94923, Note_on_c, 0, 61, 0
1, 94939, Note_on_c, 0, 69, 0
1, 95012, Note_on_c, 0, 73, 64
1, 95012, Note_on_c, 0, 57, 51
1, 95048, Note_on_c, 0, 73, 0
1, 95056, Note_on_c, 0, 57, 0
1, 95131, Note_on_c, 0, 65, 56
1, 95131, Note_on_c, 0, 62, 60
1, 95135, Note_on_c, 0, 69, 68
1, 95176, Note_on_c, 0, 69, 0
1, 95193, Note_on_c, 0, 62, 0
1, 95193, Note_on_c, 0, 68, 66
1, 95212, Note_on_c, 0, 65, 0
1, 95237, Note_on_c, 0, 68, 0
1, 95249, Note_on_c, 0, 64, 65
1, 95257, Note_on_c, 0, 61, 48
1, 95257, Note_on_c, 0, 69, 56
1, 95293, Note_on_c, 0, 64, 0
1, 95307, Note_on_c, 0, 61, 0
1, 95346, Note_on_c, 0, 69, 0
1, 95396, Note_on_c, 0, 76, 71
1, 95402, Note_on_c, 0, 57, 55
1, 95430, Note_on_c, 0, 76, 0
1, 95444, Note_on_c, 0, 57, 0
1, 95527, Note_on_c, 0, 69, 72
1, 95536, Note_on_c, 0, 62, 56
1, 95536, Note_on_c, 0, 65, 44
1, 95567, Note_on_c, 0, 69, 0
1, 95585, Note_on_c, 0, 68, 71
1, 95592, Note_on_c, 0, 62, 0
1, 95608, Note_on_c, 0, 65, 0
1, 95624, Note_on_c, 0, 68, 0
1, 95645, Note_on_c, 0, 69, 51
1, 95658, Note_on_c, 0, 61, 48
1, 95675, Note_on_c, 0, 64, 29
1, 95697, Note_on_c, 0, 69, 0
1, 95708, Note_on_c, 0, 61, 0
1, 95727, Note_on_c, 0, 64, 0
1, 95780, Note_on_c, 0, 81, 77
1, 95784, Note_on_c, 0, 57, 50
1, 95791, Note_on_c, 0, 73, 56
1, 95797, Note_on_c, 0, 76, 35
1, 95814, Note_on_c, 0, 81, 0
1, 95830, Note_on_c, 0, 57, 0
1, 95830, Note_on_c, 0, 73, 0
1, 95854, Note_on_c, 0, 76, 0
1, 95909, Note_on_c, 0, 68, 61
1, 95913, Note_on_c, 0, 74, 74
1, 95918, Note_on_c, 0, 77, 59
1, 95945, Note_on_c, 0, 74, 0
1, 95945, Note_on_c, 0, 68, 0
1, 95956, Note_on_c, 0, 77, 0
1, 96045, Note_on_c, 0, 69, 61
1, 96048, Note_on_c, 0, 76, 74
1, 96056, Note_on_c, 0, 73, 62
1, 96088, Note_on_c, 0, 76, 0
1, 96098, Note_on_c, 0, 69, 0
1, 96113, Control_c, 0, 64, 127
1, 96126, Note_on_c, 0, 73, 0
1, 96149, Control_c, 0, 64, 0
1, 96185, Note_on_c, 0, 57, 63
1, 96221, Note_on_c, 0, 57, 0
1, 96319, Note_on_c, 0, 67, 79
1, 96322, Note_on_c, 0, 63, 70
1, 96330, Note_on_c, 0, 60, 66
1, 96355, Note_on_c, 0, 67, 0
1, 96363, Note_on_c, 0, 66, 71
1, 96374, Note_on_c, 0, 60, 0
1, 96396, Note_on_c, 0, 63, 0
1, 96424, Note_on_c, 0, 67, 62
1, 96428, Note_on_c, 0, 66, 0
1, 96452, Note_on_c, 0, 62, 57
1, 96460, Note_on_c, 0, 59, 47
1, 96494, Note_on_c, 0, 62, 0
1, 96505, Note_on_c, 0, 59, 0
1, 96505, Note_on_c, 0, 67, 0
1, 96567, Note_on_c, 0, 71, 83
1, 96574, Note_on_c, 0, 55, 65
1, 96600, Note_on_c, 0, 71, 0
1, 96611, Note_on_c, 0, 55, 0
1, 96688, Note_on_c, 0, 67, 84
1, 96705, Note_on_c, 0, 63, 61
1, 96720, Note_on_c, 0, 60, 47
1, 96727, Note_on_c, 0, 67, 0
1, 96750, Note_on_c, 0, 66, 60
1, 96764, Note_on_c, 0, 63, 0
1, 96773, Note_on_c, 0, 60, 0
1, 96794, Note_on_c, 0, 66, 0
1, 96806, Note_on_c, 0, 67, 72
1, 96820, Note_on_c, 0, 62, 66
1, 96826, Note_on_c, 0, 59, 53
1, 96862, Note_on_c, 0, 62, 0
1, 96870, Note_on_c, 0, 59, 0
1, 96892, Note_on_c, 0, 67, 0
1, 96956, Note_on_c, 0, 74, 81
1, 96956, Note_on_c, 0, 55, 72
1, 96987, Note_on_c, 0, 74, 0
1, 96995, Note_on_c, 0, 55, 0
1, 97070, Note_on_c, 0, 67, 80
1, 97093, Note_on_c, 0, 63, 61
1, 97109, Note_on_c, 0, 67, 0
1, 97109, Note_on_c, 0, 60, 46
1, 97129, Note_on_c, 0, 66, 69
1, 97162, Note_on_c, 0, 60, 0
1, 97176, Note_on_c, 0, 66, 0
1, 97185, Note_on_c, 0, 63, 0
1, 97193, Note_on_c, 0, 67, 76
1, 97199, Note_on_c, 0, 59, 49
1, 97199, Note_on_c, 0, 62, 61
1, 97238, Note_on_c, 0, 62, 0
1, 97241, Note_on_c, 0, 59, 0
1, 97285, Note_on_c, 0, 67, 0
1, 97330, Note_on_c, 0, 79, 94
1, 97341, Note_on_c, 0, 55, 68
1, 97379, Note_on_c, 0, 55, 0
1, 97393, Note_on_c, 0, 79, 0
1, 97469, Note_on_c, 0, 67, 77
1, 97513, Note_on_c, 0, 67, 0
1, 97527, Note_on_c, 0, 66, 65
1, 97586, Note_on_c, 0, 67, 67
1, 97594, Note_on_c, 0, 66, 0
1, 97594, Note_on_c, 0, 71, 98
1, 97594, Note_on_c, 0, 77, 94
1, 97600, Note_on_c, 0, 74, 89
1, 97641, Note_on_c, 0, 74, 0
1, 97641, Note_on_c, 0, 67, 0
1, 97658, Note_on_c, 0, 71, 0
1, 97689, Note_on_c, 0, 77, 0
1, 97747, Note_on_c, 0, 55, 79
1, 97780, Note_on_c, 0, 55, 0
1, 97890, Note_on_c, 0, 67, 66
1, 97929, Note_on_c, 0, 67, 0
1, 97954, Note_on_c, 0, 66, 61
1, 97996, Note_on_c, 0, 66, 0
1, 98017, Note_on_c, 0, 72, 79
1, 98017, Note_on_c, 0, 67, 67
1, 98017, Note_on_c, 0, 76, 74
1, 98053, Note_on_c, 0, 67, 0
1, 98059, Note_on_c, 0, 72, 0
1, 98081, Note_on_c, 0, 76, 0
1, 98163, Note_on_c, 0, 55, 72
1, 98199, Note_on_c, 0, 55, 0
1, 98294, Note_on_c, 0, 67, 65
1, 98335, Note_on_c, 0, 67, 0
1, 98360, Note_on_c, 0, 66, 57
1, 98400, Note_on_c, 0, 66, 0
1, 98424, Note_on_c, 0, 67, 50
1, 98433, Note_on_c, 0, 75, 55
1, 98433, Note_on_c, 0, 72, 60
1, 98464, Note_on_c, 0, 67, 0
1, 98486, Note_on_c, 0, 72, 0
1, 98486, Note_on_c, 0, 75, 0
1, 98563, Note_on_c, 0, 55, 63
1, 98602, Note_on_c, 0, 55, 0
1, 98695, Note_on_c, 0, 67, 66
1, 98708, Note_on_c, 0, 83, 93
1, 98708, Note_on_c, 0, 79, 76
1, 98736, Note_on_c, 0, 67, 0
1, 98747, Note_on_c, 0, 79, 0
1, 98747, Note_on_c, 0, 83, 0
1, 98759, Note_on_c, 0, 78, 71
1, 98765, Note_on_c, 0, 66, 48
1, 98809, Note_on_c, 0, 66, 0
1, 98809, Note_on_c, 0, 79, 88
1, 98809, Note_on_c, 0, 83, 97
1, 98831, Note_on_c, 0, 67, 59
1, 98854, Note_on_c, 0, 83, 0
1, 98854, Note_on_c, 0, 78, 0
1, 98876, Note_on_c, 0, 67, 0
1, 98896, Note_on_c, 0, 79, 0
1, 98957, Note_on_c, 0, 71, 87
1, 98957, Note_on_c, 0, 55, 86
1, 98989, Note_on_c, 0, 55, 0
1, 98989, Note_on_c, 0, 71, 0
1, 99087, Note_on_c, 0, 79, 83
1, 99087, Note_on_c, 0, 83, 92
1, 99090, Note_on_c, 0, 47, 72
1, 99130, Note_on_c, 0, 47, 0
1, 99130, Note_on_c, 0, 83, 0
1, 99137, Note_on_c, 0, 79, 0
1, 99149, Note_on_c, 0, 78, 67
1, 99199, Note_on_c, 0, 83, 96
1, 99199, Note_on_c, 0, 79, 93
1, 99207, Note_on_c, 0, 35, 110
1, 99246, Note_on_c, 0, 78, 0
1, 99255, Note_on_c, 0, 83, 0
1, 99266, Note_on_c, 0, 35, 0
1, 99290, Note_on_c, 0, 79, 0
1, 99341, Note_on_c, 0, 47, 77
1, 99347, Note_on_c, 0, 71, 79
1, 99372, Note_on_c, 0, 47, 0
1, 99385, Note_on_c, 0, 71, 0
1, 99471, Note_on_c, 0, 79, 75
1, 99471, Note_on_c, 0, 83, 88
1, 99474, Note_on_c, 0, 59, 82
1, 99505, Note_on_c, 0, 59, 0
1, 99513, Note_on_c, 0, 83, 0
1, 99519, Note_on_c, 0, 79, 0
1, 99519, Note_on_c, 0, 78, 69
1, 99569, Note_on_c, 0, 78, 0
1, 99589, Note_on_c, 0, 79, 83
1, 99589, Note_on_c, 0, 83, 92
1, 99597, Note_on_c, 0, 60, 101
1, 99630, Note_on_c, 0, 60, 0
1, 99676, Note_on_c, 0, 79, 0
1, 99684, Note_on_c, 0, 83, 0
1, 99737, Note_on_c, 0, 48, 73
1, 99744, Note_on_c, 0, 71, 73
1, 99772, Note_on_c, 0, 48, 0
1, 99783, Note_on_c, 0, 71, 0
1, 99861, Note_on_c, 0, 36, 89
1, 99867, Note_on_c, 0, 83, 91
1, 99870, Note_on_c, 0, 79, 76
1, 99890, Note_on_c, 0, 36, 0
1, 99906, Note_on_c, 0, 83, 0
1, 99912, Note_on_c, 0, 79, 0
1, 99918, Note_on_c, 0, 78, 63
1, 99978, Note_on_c, 0, 83, 93
1, 99978, Note_on_c, 0, 79, 80
1, 99989, Note_on_c, 0, 37, 97
1, 99998, Note_on_c, 0, 78, 0
1, 100034, Note_on_c, 0, 83, 0
1, 100034, Note_on_c, 0, 37, 0
1, 100051, Note_on_c, 0, 79, 0
1, 100126, Note_on_c, 0, 49, 59
1, 100135, Note_on_c, 0, 71, 71
1, 100165, Note_on_c, 0, 49, 0
1, 100176, Note_on_c, 0, 71, 0
1, 100255, Note_on_c, 0, 79, 77
1, 100255, Note_on_c, 0, 83, 91
1, 100271, Note_on_c, 0, 61, 62
1, 100297, Note_on_c, 0, 83, 0
1, 100300, Note_on_c, 0, 79, 0
1, 100313, Note_on_c, 0, 61, 0
1, 100313, Note_on_c, 0, 78, 57
1, 100374, Note_on_c, 0, 79, 75
1, 100374, Note_on_c, 0, 83, 87
1, 100374, Note_on_c, 0, 62, 100
1, 100407, Note_on_c, 0, 62, 0
1, 100413, Note_on_c, 0, 78, 0
1, 100424, Note_on_c, 0, 83, 0
1, 100436, Note_on_c, 0, 79, 0
1, 100522, Note_on_c, 0, 50, 76
1, 100522, Note_on_c, 0, 71, 80
1, 100559, Note_on_c, 0, 71, 0
1, 100559, Note_on_c, 0, 50, 0
1, 100639, Note_on_c, 0, 38, 92
1, 100639, Note_on_c, 0, 83, 99
1, 100642, Note_on_c, 0, 79, 85
1, 100669, Note_on_c, 0, 38, 0
1, 100680, Note_on_c, 0, 83, 0
1, 100687, Note_on_c, 0, 79, 0
1, 100692, Note_on_c, 0, 78, 71
1, 100758, Note_on_c, 0, 79, 93
1, 100758, Note_on_c, 0, 83, 100
1, 100758, Note_on_c, 0, 39, 109
1, 100795, Note_on_c, 0, 78, 0
1, 100817, Note_on_c, 0, 83, 0
1, 100826, Note_on_c, 0, 39, 0
1, 100843, Note_on_c, 0, 79, 0
1, 100895, Note_on_c, 0, 51, 91
1, 100895, Note_on_c, 0, 71, 87
1, 100923, Note_on_c, 0, 51, 0
1, 100932, Note_on_c, 0, 71, 0
1, 101007, Note_on_c, 0, 83, 112
1, 101018, Note_on_c, 0, 79, 93
1, 101032, Note_on_c, 0, 63, 85
1, 101062, Note_on_c, 0, 63, 0
1, 101062, Note_on_c, 0, 79, 0
1, 101065, Note_on_c, 0, 83, 0
1, 101065, Note_on_c, 0, 78, 77
1, 101104, Note_on_c, 0, 78, 0
1, 101126, Note_on_c, 0, 83, 115
1, 101126, Note_on_c, 0, 79, 104
1, 101131, Note_on_c, 0, 64, 109
1, 101162, Note_on_c, 0, 79, 0
1, 101171, Note_on_c, 0, 64, 0
1, 101194, Note_on_c, 0, 83, 0
1, 101266, Note_on_c, 0, 84, 110
1, 101266, Note_on_c, 0, 63, 108
1, 101266, Note_on_c, 0, 79, 110
1, 101304, Note_on_c, 0, 63, 0
1, 101308, Note_on_c, 0, 79, 0
1, 101357, Note_on_c, 0, 84, 0
1, 101393, Note_on_c, 0, 83, 112
1, 101393, Note_on_c, 0, 78, 85
1, 101393, Note_on_c, 0, 62, 80
1, 101424, Note_on_c, 0, 83, 0
1, 101428, Note_on_c, 0, 62, 0
1, 101431, Note_on_c, 0, 78, 0
1, 101524, Note_on_c, 0, 81, 83
1, 101524, Note_on_c, 0, 60, 78
1, 101524, Note_on_c, 0, 76, 77
1, 101558, Note_on_c, 0, 76, 0
1, 101558, Note_on_c, 0, 60, 0
1, 101558, Note_on_c, 0, 81, 0
1, 101648, Note_on_c, 0, 79, 88
1, 101658, Note_on_c, 0, 59, 57
1, 101665, Note_on_c, 0, 74, 54
1, 101694, Note_on_c, 0, 59, 0
1, 101694, Note_on_c, 0, 79, 0
1, 101708, Note_on_c, 0, 74, 0
1, 101776, Note_on_c, 0, 78, 85
1, 101784, Note_on_c, 0, 72, 58
1, 101784, Note_on_c, 0, 62, 58
1, 101809, Note_on_c, 0, 78, 0
1, 101825, Note_on_c, 0, 62, 0
1, 101825, Note_on_c, 0, 72, 0
1, 101917, Note_on_c, 0, 79, 98
1, 101923, Note_on_c, 0, 71, 76
1, 101942, Note_on_c, 0, 55, 54
1, 101949, Note_on_c, 0, 79, 0
1, 101960, Note_on_c, 0, 71, 0
1, 101987, Control_c, 0, 64, 127
1, 102020, Note_on_c, 0, 55, 0
1, 102035, Control_c, 0, 64, 0
1, 102074, Note_on_c, 0, 79, 66
1, 102080, Note_on_c, 0, 83, 73
1, 102115, Note_on_c, 0, 83, 0
1, 102115, Note_on_c, 0, 78, 77
1, 102118, Note_on_c, 0, 79, 0
1, 102129, Note_on_c, 0, 81, 68
1, 102168, Note_on_c, 0, 81, 0
1, 102174, Note_on_c, 0, 78, 0
1, 102179, Note_on_c, 0, 83, 80
1, 102191, Note_on_c, 0, 79, 51
1, 102227, Note_on_c, 0, 47, 69
1, 102233, Note_on_c, 0, 79, 0
1, 102240, Note_on_c, 0, 78, 57
1, 102240, Note_on_c, 0, 81, 61
1, 102268, Note_on_c, 0, 47, 0
1, 102271, Note_on_c, 0, 83, 0
1, 102300, Note_on_c, 0, 78, 0
1, 102314, Note_on_c, 0, 81, 0
1, 102317, Note_on_c, 0, 79, 67
1, 102317, Note_on_c, 0, 83, 109
1, 102332, Note_on_c, 0, 35, 101
1, 102355, Note_on_c, 0, 79, 0
1, 102366, Note_on_c, 0, 78, 55
1, 102374, Note_on_c, 0, 35, 0
1, 102377, Note_on_c, 0, 81, 63
1, 102397, Note_on_c, 0, 83, 0
1, 102435, Note_on_c, 0, 81, 0
1, 102447, Note_on_c, 0, 78, 0
1, 102452, Note_on_c, 0, 79, 34
1, 102456, Note_on_c, 0, 83, 95
1, 102459, Note_on_c, 0, 47, 68
1, 102494, Note_on_c, 0, 47, 0
1, 102494, Note_on_c, 0, 83, 0
1, 102494, Note_on_c, 0, 81, 66
1, 102494, Note_on_c, 0, 78, 65
1, 102499, Note_on_c, 0, 79, 0
1, 102541, Note_on_c, 0, 78, 0
1, 102556, Note_on_c, 0, 81, 0
1, 102563, Note_on_c, 0, 79, 74
1, 102569, Note_on_c, 0, 83, 88
1, 102608, Note_on_c, 0, 79, 0
1, 102612, Note_on_c, 0, 78, 43
1, 102616, Note_on_c, 0, 59, 32
1, 102622, Note_on_c, 0, 81, 55
1, 102625, Note_on_c, 0, 83, 0
1, 102665, Note_on_c, 0, 59, 0
1, 102678, Note_on_c, 0, 81, 0
1, 102687, Note_on_c, 0, 83, 95
1, 102690, Note_on_c, 0, 78, 0
1, 102703, Note_on_c, 0, 79, 45
1, 102714, Note_on_c, 0, 60, 87
1, 102743, Note_on_c, 0, 60, 0
1, 102743, Note_on_c, 0, 78, 65
1, 102750, Note_on_c, 0, 81, 63
1, 102756, Note_on_c, 0, 79, 0
1, 102772, Note_on_c, 0, 83, 0
1, 102804, Note_on_c, 0, 78, 0
1, 102820, Note_on_c, 0, 79, 59
1, 102825, Note_on_c, 0, 81, 0
1, 102825, Note_on_c, 0, 83, 103
1, 102837, Note_on_c, 0, 48, 80
1, 102876, Note_on_c, 0, 48, 0
1, 102879, Note_on_c, 0, 79, 0
1, 102885, Note_on_c, 0, 78, 44
1, 102890, Note_on_c, 0, 81, 62
1, 102904, Note_on_c, 0, 83, 0
1, 102952, Note_on_c, 0, 81, 0
1, 102955, Note_on_c, 0, 36, 98
1, 102959, Note_on_c, 0, 78, 0
1, 102959, Note_on_c, 0, 83, 102
1, 102985, Note_on_c, 0, 36, 0
1, 102985, Note_on_c, 0, 79, 53
1, 103032, Note_on_c, 0, 79, 0
1, 103032, Note_on_c, 0, 78, 55
1, 103038, Note_on_c, 0, 81, 68
1, 103065, Note_on_c, 0, 83, 0
1, 103087, Note_on_c, 0, 37, 112
1, 103102, Note_on_c, 0, 81, 0
1, 103102, Note_on_c, 0, 78, 0
1, 103115, Note_on_c, 0, 83, 111
1, 103123, Note_on_c, 0, 79, 52
1, 103157, Note_on_c, 0, 37, 0
1, 103160, Note_on_c, 0, 78, 65
1, 103169, Note_on_c, 0, 79, 0
1, 103169, Note_on_c, 0, 81, 70
1, 103188, Note_on_c, 0, 83, 0
1, 103219, Note_on_c, 0, 49, 92
1, 103225, Note_on_c, 0, 78, 0
1, 103235, Note_on_c, 0, 79, 60
1, 103240, Note_on_c, 0, 81, 0
1, 103240, Note_on_c, 0, 83, 104
1, 103252, Note_on_c, 0, 49, 0
1, 103286, Note_on_c, 0, 79, 0
1, 103297, Note_on_c, 0, 78, 56
1, 103300, Note_on_c, 0, 81, 72
1, 103318, Note_on_c, 0, 83, 0
1, 103363, Note_on_c, 0, 81, 0
1, 103363, Note_on_c, 0, 78, 0
1, 103363, Note_on_c, 0, 79, 66
1, 103369, Note_on_c, 0, 83, 108
1, 103377, Note_on_c, 0, 61, 88
1, 103413, Note_on_c, 0, 79, 0
1, 103416, Note_on_c, 0, 61, 0
1, 103416, Note_on_c, 0, 78, 72
1, 103422, Note_on_c, 0, 81, 73
1, 103438, Note_on_c, 0, 83, 0
1, 103492, Note_on_c, 0, 79, 75
1, 103497, Note_on_c, 0, 83, 101
1, 103502, Note_on_c, 0, 78, 0
1, 103502, Note_on_c, 0, 62, 111
1, 103517, Note_on_c, 0, 81, 0
1, 103536, Note_on_c, 0, 62, 0
1, 103550, Note_on_c, 0, 79, 0
1, 103550, Note_on_c, 0, 78, 75
1, 103569, Note_on_c, 0, 81, 87
1, 103583, Note_on_c, 0, 83, 0
1, 103626, Note_on_c, 0, 81, 0
1, 103636, Note_on_c, 0, 79, 80
1, 103636, Note_on_c, 0, 83, 101
1, 103640, Note_on_c, 0, 78, 0
1, 103640, Note_on_c, 0, 50, 98
1, 103678, Note_on_c, 0, 50, 0
1, 103684, Note_on_c, 0, 79, 0
1, 103693, Note_on_c, 0, 78, 66
1, 103706, Note_on_c, 0, 81, 75
1, 103717, Note_on_c, 0, 83, 0
1, 103768, Note_on_c, 0, 81, 0
1, 103771, Note_on_c, 0, 38, 104
1, 103771, Note_on_c, 0, 83, 107
1, 103778, Note_on_c, 0, 78, 0
1, 103784, Note_on_c, 0, 79, 59
1, 103798, Note_on_c, 0, 38, 0
1, 103826, Note_on_c, 0, 79, 0
1, 103826, Note_on_c, 0, 78, 77
1, 103839, Note_on_c, 0, 81, 76
1, 103856, Note_on_c, 0, 83, 0
1, 103904, Note_on_c, 0, 83, 109
1, 103907, Note_on_c, 0, 79, 83
1, 103912, Note_on_c, 0, 81, 0
1, 103912, Note_on_c, 0, 39, 112
1, 103918, Note_on_c, 0, 78, 0
1, 103956, Note_on_c, 0, 79, 0
1, 103963, Note_on_c, 0, 78, 80
1, 103971, Note_on_c, 0, 81, 78
1, 103979, Note_on_c, 0, 83, 0
1, 104004, Note_on_c, 0, 39, 0
1, 104035, Note_on_c, 0, 78, 0
1, 104035, Note_on_c, 0, 79, 80
1, 104035, Note_on_c, 0, 83, 95
1, 104044, Note_on_c, 0, 81, 0
1, 104044, Note_on_c, 0, 51, 94
1, 104073, Note_on_c, 0, 51, 0
1, 104099, Note_on_c, 0, 79, 0
1, 104099, Note_on_c, 0, 78, 69
1, 104104, Note_on_c, 0, 81, 81
1, 104129, Note_on_c, 0, 83, 0
1, 104168, Note_on_c, 0, 81, 0
1, 104168, Note_on_c, 0, 79, 87
1, 104176, Note_on_c, 0, 83, 109
1, 104185, Note_on_c, 0, 78, 0
1, 104192, Note_on_c, 0, 63, 88
1, 104225, Note_on_c, 0, 79, 0
1, 104228, Note_on_c, 0, 63, 0
1, 104233, Note_on_c, 0, 81, 72
1, 104233, Note_on_c, 0, 78, 84
1, 104255, Note_on_c, 0, 83, 0
1, 104282, Note_on_c, 0, 78, 0
1, 104302, Note_on_c, 0, 79, 94
1, 104302, Note_on_c, 0, 83, 115
1, 104311, Note_on_c, 0, 64, 109
1, 104327, Note_on_c, 0, 81, 0
1, 104336, Note_on_c, 0, 83, 0
1, 104344, Note_on_c, 0, 79, 0
1, 104350, Note_on_c, 0, 64, 0
1, 104445, Note_on_c, 0, 84, 96
1, 104445, Note_on_c, 0, 79, 98
1, 104449, Note_on_c, 0, 63, 97
1, 104477, Note_on_c, 0, 63, 0
1, 104477, Note_on_c, 0, 79, 0
1, 104484, Note_on_c, 0, 84, 0
1, 104575, Note_on_c, 0, 62, 83
1, 104575, Note_on_c, 0, 83, 102
1, 104575, Note_on_c, 0, 78, 78
1, 104606, Note_on_c, 0, 83, 0
1, 104606, Note_on_c, 0, 62, 0
1, 104620, Note_on_c, 0, 78, 0
1, 104711, Note_on_c, 0, 60, 78
1, 104714, Note_on_c, 0, 76, 57
1, 104717, Note_on_c, 0, 81, 63
1, 104745, Note_on_c, 0, 60, 0
1, 104753, Note_on_c, 0, 76, 0
1, 104757, Note_on_c, 0, 81, 0
1, 104843, Note_on_c, 0, 59, 70
1, 104853, Note_on_c, 0, 74, 58
1, 104853, Note_on_c, 0, 79, 52
1, 104878, Note_on_c, 0, 59, 0
1, 104892, Note_on_c, 0, 74, 0
1, 104913, Note_on_c, 0, 79, 0
1, 104979, Note_on_c, 0, 78, 76
1, 104979, Note_on_c, 0, 62, 62
1, 104979, Note_on_c, 0, 72, 64
1, 105018, Note_on_c, 0, 78, 0
1, 105024, Note_on_c, 0, 62, 0
1, 105027, Note_on_c, 0, 72, 0
1, 105124, Note_on_c, 0, 79, 82
1, 105124, Note_on_c, 0, 71, 81
1, 105129, Note_on_c, 0, 55, 77
1, 105165, Note_on_c, 0, 71, 0
1, 105169, Note_on_c, 0, 79, 0
1, 105221, Note_on_c, 0, 55, 0
1, 105264, Note_on_c, 0, 74, 73
1, 105264, Note_on_c, 0, 71, 66
1, 105300, Note_on_c, 0, 74, 0
1, 105307, Note_on_c, 0, 71, 0
1, 105397, Note_on_c, 0, 67, 74
1, 105402, Note_on_c, 0, 75, 64
1, 105402, Note_on_c, 0, 72, 66
1, 105441, Note_on_c, 0, 67, 0
1, 105445, Note_on_c, 0, 72, 0
1, 105445, Note_on_c, 0, 75, 0
1, 105462, Note_on_c, 0, 66, 65
1, 105502, Note_on_c, 0, 66, 0
1, 105525, Note_on_c, 0, 67, 81
1, 105525, Note_on_c, 0, 71, 80
1, 105530, Note_on_c, 0, 74, 80
1, 105573, Note_on_c, 0, 71, 0
1, 105592, Note_on_c, 0, 74, 0
1, 105615, Note_on_c, 0, 67, 0
1, 105684, Note_on_c, 0, 62, 78
1, 105718, Note_on_c, 0, 62, 0
1, 105818, Note_on_c, 0, 63, 74
1, 105818, Note_on_c, 0, 72, 65
1, 105823, Note_on_c, 0, 79, 86
1, 105853, Note_on_c, 0, 63, 0
1, 105859, Note_on_c, 0, 72, 0
1, 105863, Note_on_c, 0, 79, 0
1, 105879, Note_on_c, 0, 78, 70
1, 105946, Note_on_c, 0, 79, 88
1, 105946, Note_on_c, 0, 62, 71
1, 105951, Note_on_c, 0, 71, 83
1, 105954, Note_on_c, 0, 55, 75
1, 105971, Note_on_c, 0, 78, 0
1, 105990, Note_on_c, 0, 71, 0
1, 105990, Note_on_c, 0, 62, 0
1, 105996, Note_on_c, 0, 55, 0
1, 106018, Note_on_c, 0, 79, 0
1, 106097, Note_on_c, 0, 74, 72
1, 106111, Note_on_c, 0, 71, 62
1, 106132, Note_on_c, 0, 74, 0
1, 106155, Note_on_c, 0, 71, 0
1, 106235, Note_on_c, 0, 72, 60
1, 106235, Note_on_c, 0, 75, 55
1, 106238, Note_on_c, 0, 67, 49
1, 106278, Note_on_c, 0, 75, 0
1, 106278, Note_on_c, 0, 72, 0
1, 106288, Note_on_c, 0, 67, 0
1, 106288, Note_on_c, 0, 66, 58
1, 106327, Note_on_c, 0, 66, 0
1, 106360, Note_on_c, 0, 67, 52
1, 106360, Note_on_c, 0, 71, 66
1, 106367, Note_on_c, 0, 74, 62
1, 106403, Note_on_c, 0, 74, 0
1, 106403, Note_on_c, 0, 71, 0
1, 106409, Note_on_c, 0, 67, 0
1, 106522, Note_on_c, 0, 62, 44
1, 106573, Note_on_c, 0, 62, 0
1, 106651, Note_on_c, 0, 79, 74
1, 106651, Note_on_c, 0, 63, 58
1, 106654, Note_on_c, 0, 72, 55
1, 106692, Note_on_c, 0, 63, 0
1, 106692, Note_on_c, 0, 79, 0
1, 106701, Note_on_c, 0, 72, 0
1, 106701, Note_on_c, 0, 78, 64
1, 106744, Note_on_c, 0, 78, 0
1, 106773, Note_on_c, 0, 79, 62
1, 106787, Note_on_c, 0, 71, 68
1, 106798, Note_on_c, 0, 62, 51
1, 106798, Note_on_c, 0, 55, 54
1, 106831, Note_on_c, 0, 71, 0
1, 106831, Note_on_c, 0, 79, 0
1, 106842, Note_on_c, 0, 62, 0
1, 106848, Note_on_c, 0, 55, 0
1, 106940, Note_on_c, 0, 74, 67
1, 106973, Note_on_c, 0, 74, 0
1, 107068, Note_on_c, 0, 63, 70
1, 107076, Note_on_c, 0, 79, 74
1, 107076, Note_on_c, 0, 72, 61
1, 107076, Note_on_c, 0, 55, 50
1, 107107, Note_on_c, 0, 63, 0
1, 107115, Note_on_c, 0, 79, 0
1, 107115, Note_on_c, 0, 78, 70
1, 107122, Note_on_c, 0, 72, 0
1, 107126, Note_on_c, 0, 55, 0
1, 107158, Note_on_c, 0, 78, 0
1, 107205, Note_on_c, 0, 55, 47
1, 107205, Note_on_c, 0, 71, 67
1, 107210, Note_on_c, 0, 62, 69
1, 107213, Note_on_c, 0, 79, 58
1, 107250, Note_on_c, 0, 62, 0
1, 107257, Note_on_c, 0, 55, 0
1, 107257, Note_on_c, 0, 71, 0
1, 107257, Note_on_c, 0, 79, 0
1, 107342, Note_on_c, 0, 74, 62
1, 107379, Note_on_c, 0, 74, 0
1, 107467, Note_on_c, 0, 55, 67
1, 107475, Note_on_c, 0, 67, 72
1, 107475, Note_on_c, 0, 63, 69
1, 107480, Note_on_c, 0, 72, 57
1, 107509, Note_on_c, 0, 55, 0
1, 107517, Note_on_c, 0, 72, 0
1, 107517, Note_on_c, 0, 63, 0
1, 107525, Note_on_c, 0, 67, 0
1, 107525, Note_on_c, 0, 66, 57
1, 107572, Note_on_c, 0, 66, 0
1, 107576, Note_on_c, 0, 67, 73
1, 107590, Note_on_c, 0, 71, 94
1, 107593, Note_on_c, 0, 62, 82
1, 107593, Note_on_c, 0, 55, 59
1, 107622, Note_on_c, 0, 62, 0
1, 107626, Note_on_c, 0, 67, 0
1, 107640, Note_on_c, 0, 55, 0
1, 107643, Note_on_c, 0, 71, 0
1, 107737, Note_on_c, 0, 62, 56
1, 107776, Note_on_c, 0, 62, 0
1, 107846, Note_on_c, 0, 55, 60
1, 107846, Note_on_c, 0, 69, 64
1, 107857, Note_on_c, 0, 63, 66
1, 107863, Note_on_c, 0, 60, 43
1, 107888, Note_on_c, 0, 69, 0
1, 107898, Note_on_c, 0, 55, 0
1, 107907, Note_on_c, 0, 63, 0
1, 107915, Note_on_c, 0, 54, 68
1, 107920, Note_on_c, 0, 60, 0
1, 107954, Note_on_c, 0, 54, 0
1, 107983, Note_on_c, 0, 62, 64
1, 107983, Note_on_c, 0, 59, 65
1, 107987, Note_on_c, 0, 67, 55
1, 107987, Note_on_c, 0, 55, 70
1, 108019, Note_on_c, 0, 59, 0
1, 108022, Note_on_c, 0, 62, 0
1, 108026, Note_on_c, 0, 55, 0
1, 108049, Note_on_c, 0, 67, 0
1, 108136, Note_on_c, 0, 43, 79
1, 108171, Note_on_c, 0, 43, 0
1, 108291, Note_on_c, 0, 47, 62
1, 108305, Note_on_c, 0, 88, 70
1, 108331, Note_on_c, 0, 47, 0
1, 108344, Note_on_c, 0, 88, 0
1, 108367, Note_on_c, 0, 87, 63
1, 108414, Note_on_c, 0, 87, 0
1, 108441, Note_on_c, 0, 88, 71
1, 108441, Note_on_c, 0, 40, 82
1, 108473, Note_on_c, 0, 40, 0
1, 108486, Note_on_c, 0, 88, 0
1, 108495, Control_c, 0, 64, 127
1, 108575, Note_on_c, 0, 83, 88
1, 108575, Note_on_c, 0, 79, 69
1, 108611, Note_on_c, 0, 83, 0
1, 108617, Note_on_c, 0, 79, 0
1, 108626, Control_c, 0, 64, 0
1, 108700, Note_on_c, 0, 76, 75
1, 108709, Note_on_c, 0, 81, 75
1, 108709, Note_on_c, 0, 84, 76
1, 108735, Note_on_c, 0, 76, 0
1, 108743, Note_on_c, 0, 81, 0
1, 108751, Note_on_c, 0, 84, 0
1, 108762, Note_on_c, 0, 75, 77
1, 108798, Note_on_c, 0, 75, 0
1, 108821, Note_on_c, 0, 83, 109
1, 108821, Note_on_c, 0, 79, 91
1, 108837, Note_on_c, 0, 76, 76
1, 108848, Note_on_c, 0, 83, 0
1, 108856, Note_on_c, 0, 79, 0
1, 108866, Note_on_c, 0, 76, 0
1, 108957, Note_on_c, 0, 76, 36
1, 108957, Note_on_c, 0, 79, 77
1, 108962, Note_on_c, 0, 71, 79
1, 108994, Note_on_c, 0, 79, 0
1, 108994, Note_on_c, 0, 76, 0
1, 108997, Note_on_c, 0, 71, 0
1, 109091, Note_on_c, 0, 81, 74
1, 109097, Note_on_c, 0, 72, 72
1, 109097, Note_on_c, 0, 76, 40
1, 109125, Note_on_c, 0, 81, 0
1, 109133, Note_on_c, 0, 72, 0
1, 109133, Note_on_c, 0, 75, 75
1, 109138, Note_on_c, 0, 76, 0
1, 109174, Note_on_c, 0, 75, 0
1, 109196, Note_on_c, 0, 76, 59
1, 109200, Note_on_c, 0, 71, 78
1, 109208, Note_on_c, 0, 79, 90
1, 109236, Note_on_c, 0, 71, 0
1, 109244, Note_on_c, 0, 79, 0
1, 109249, Note_on_c, 0, 76, 0
1, 109342, Note_on_c, 0, 71, 72
1, 109347, Note_on_c, 0, 76, 46
1, 109352, Note_on_c, 0, 67, 56
1, 109381, Note_on_c, 0, 71, 0
1, 109389, Note_on_c, 0, 76, 0
1, 109394, Note_on_c, 0, 67, 0
1, 109461, Note_on_c, 0, 78, 73
1, 109472, Note_on_c, 0, 64, 47
1, 109472, Note_on_c, 0, 69, 53
1, 109484, Note_on_c, 0, 72, 41
1, 109495, Note_on_c, 0, 78, 0
1, 109501, Note_on_c, 0, 63, 69
1, 109515, Note_on_c, 0, 64, 0
1, 109522, Note_on_c, 0, 69, 0
1, 109537, Note_on_c, 0, 72, 0
1, 109540, Note_on_c, 0, 63, 0
1, 109581, Note_on_c, 0, 64, 60
1, 109586, Note_on_c, 0, 71, 73
1, 109589, Note_on_c, 0, 76, 58
1, 109589, Note_on_c, 0, 67, 59
1, 109621, Note_on_c, 0, 64, 0
1, 109625, Note_on_c, 0, 71, 0
1, 109631, Note_on_c, 0, 76, 0
1, 109639, Note_on_c, 0, 67, 0
1, 109710, Note_on_c, 0, 52, 91
1, 109729, Note_on_c, 0, 67, 40
1, 109729, Note_on_c, 0, 71, 57
1, 109738, Note_on_c, 0, 52, 0
1, 109770, Note_on_c, 0, 71, 0
1, 109782, Note_on_c, 0, 67, 0
1, 109851, Note_on_c, 0, 67, 43
1, 109857, Note_on_c, 0, 71, 66
1, 109871, Note_on_c, 0, 64, 57
1, 109896, Note_on_c, 0, 71, 0
1, 109905, Note_on_c, 0, 70, 70
1, 109921, Note_on_c, 0, 64, 0
1, 109949, Note_on_c, 0, 70, 0
1, 109966, Note_on_c, 0, 67, 0
1, 109966, Note_on_c, 0, 71, 76
1, 109971, Note_on_c, 0, 66, 59
1, 109979, Note_on_c, 0, 63, 65
1, 110015, Note_on_c, 0, 63, 0
1, 110015, Note_on_c, 0, 66, 0
1, 110036, Note_on_c, 0, 71, 0
1, 110110, Note_on_c, 0, 75, 77
1, 110121, Note_on_c, 0, 59, 55
1, 110144, Note_on_c, 0, 75, 0
1, 110160, Note_on_c, 0, 59, 0
1, 110231, Note_on_c, 0, 71, 87
1, 110247, Note_on_c, 0, 67, 45
1, 110253, Note_on_c, 0, 64, 47
1, 110270, Note_on_c, 0, 71, 0
1, 110299, Note_on_c, 0, 70, 51
1, 110303, Note_on_c, 0, 64, 0
1, 110328, Note_on_c, 0, 67, 0
1, 110345, Note_on_c, 0, 70, 0
1, 110345, Note_on_c, 0, 71, 82
1, 110353, Note_on_c, 0, 63, 59
1, 110361, Note_on_c, 0, 66, 40
1, 110395, Note_on_c, 0, 63, 0
1, 110398, Note_on_c, 0, 71, 0
1, 110409, Note_on_c, 0, 66, 0
1, 110483, Note_on_c, 0, 78, 68
1, 110494, Note_on_c, 0, 59, 60
1, 110517, Note_on_c, 0, 78, 0
1, 110531, Note_on_c, 0, 59, 0
1, 110612, Note_on_c, 0, 71, 54
1, 110629, Note_on_c, 0, 67, 45
1, 110634, Note_on_c, 0, 64, 51
1, 110648, Note_on_c, 0, 70, 71
1, 110664, Note_on_c, 0, 71, 0
1, 110684, Note_on_c, 0, 64, 0
1, 110693, Note_on_c, 0, 70, 0
1, 110717, Note_on_c, 0, 67, 0
1, 110720, Note_on_c, 0, 71, 74
1, 110734, Note_on_c, 0, 63, 51
1, 110746, Note_on_c, 0, 66, 41
1, 110762, Note_on_c, 0, 71, 0
1, 110774, Note_on_c, 0, 63, 0
1, 110798, Note_on_c, 0, 66, 0
1, 110852, Note_on_c, 0, 83, 100
1, 110852, Note_on_c, 0, 75, 67
1, 110862, Note_on_c, 0, 59, 55
1, 110862, Note_on_c, 0, 78, 42
1, 110884, Note_on_c, 0, 83, 0
1, 110890, Note_on_c, 0, 75, 0
1, 110902, Note_on_c, 0, 59, 0
1, 110919, Note_on_c, 0, 78, 0
1, 110985, Note_on_c, 0, 76, 63
1, 110985, Note_on_c, 0, 79, 75
1, 110990, Note_on_c, 0, 70, 57
1, 111021, Note_on_c, 0, 79, 0
1, 111021, Note_on_c, 0, 76, 0
1, 111030, Note_on_c, 0, 70, 0
1, 111119, Note_on_c, 0, 78, 82
1, 111119, Note_on_c, 0, 71, 69
1, 111122, Note_on_c, 0, 75, 74
1, 111160, Note_on_c, 0, 75, 0
1, 111160, Note_on_c, 0, 71, 0
1, 111178, Control_c, 0, 64, 127
1, 111189, Note_on_c, 0, 78, 0
1, 111239, Control_c, 0, 64, 0
1, 111256, Note_on_c, 0, 59, 73
1, 111286, Note_on_c, 0, 59, 0
1, 111401, Note_on_c, 0, 88, 77
1, 111437, Note_on_c, 0, 88, 0
1, 111451, Note_on_c, 0, 87, 72
1, 111523, Note_on_c, 0, 88, 75
1, 111528, Note_on_c, 0, 40, 77
1, 111532, Note_on_c, 0, 52, 65
1, 111559, Note_on_c, 0, 40, 0
1, 111559, Note_on_c, 0, 87, 0
1, 111567, Note_on_c, 0, 52, 0
1, 111575, Control_c, 0, 64, 127
1, 111582, Note_on_c, 0, 88, 0
1, 111667, Note_on_c, 0, 79, 79
1, 111667, Note_on_c, 0, 83, 96
1, 111699, Note_on_c, 0, 83, 0
1, 111703, Note_on_c, 0, 79, 0
1, 111718, Control_c, 0, 64, 0
1, 111793, Note_on_c, 0, 76, 72
1, 111793, Note_on_c, 0, 81, 80
1, 111798, Note_on_c, 0, 84, 82
1, 111827, Note_on_c, 0, 81, 0
1, 111827, Note_on_c, 0, 76, 0
1, 111837, Note_on_c, 0, 84, 0
1, 111855, Note_on_c, 0, 75, 69
1, 111891, Note_on_c, 0, 75, 0
1, 111904, Note_on_c, 0, 83, 112
1, 111904, Note_on_c, 0, 79, 93
1, 111915, Note_on_c, 0, 76, 76
1, 111929, Note_on_c, 0, 83, 0
1, 111937, Note_on_c, 0, 79, 0
1, 111946, Note_on_c, 0, 76, 0
1, 112035, Note_on_c, 0, 71, 92
1, 112038, Note_on_c, 0, 76, 53
1, 112047, Note_on_c, 0, 79, 77
1, 112066, Note_on_c, 0, 71, 0
1, 112072, Note_on_c, 0, 76, 0
1, 112082, Note_on_c, 0, 79, 0
1, 112164, Note_on_c, 0, 81, 90
1, 112171, Note_on_c, 0, 76, 47
1, 112175, Note_on_c, 0, 72, 78
1, 112197, Note_on_c, 0, 81, 0
1, 112210, Note_on_c, 0, 72, 0
1, 112217, Note_on_c, 0, 76, 0
1, 112233, Note_on_c, 0, 75, 61
1, 112266, Note_on_c, 0, 76, 84
1, 112270, Note_on_c, 0, 75, 0
1, 112274, Note_on_c, 0, 79, 93
1, 112277, Note_on_c, 0, 71, 85
1, 112309, Note_on_c, 0, 71, 0
1, 112309, Note_on_c, 0, 79, 0
1, 112331, Note_on_c, 0, 76, 0
1, 112414, Note_on_c, 0, 71, 67
1, 112414, Note_on_c, 0, 76, 46
1, 112433, Note_on_c, 0, 67, 46
1, 112454, Note_on_c, 0, 71, 0
1, 112461, Note_on_c, 0, 76, 0
1, 112490, Note_on_c, 0, 67, 0
1, 112531, Note_on_c, 0, 78, 77
1, 112542, Note_on_c, 0, 69, 61
1, 112542, Note_on_c, 0, 72, 57
1, 112546, Note_on_c, 0, 64, 61
1, 112562, Note_on_c, 0, 78, 0
1, 112581, Note_on_c, 0, 64, 0
1, 112581, Note_on_c, 0, 63, 72
1, 112585, Note_on_c, 0, 72, 0
1, 112585, Note_on_c, 0, 69, 0
1, 112615, Note_on_c, 0, 63, 0
1, 112654, Note_on_c, 0, 71, 79
1, 112659, Note_on_c, 0, 76, 65
1, 112659, Note_on_c, 0, 67, 70
1, 112665, Note_on_c, 0, 64, 46
1, 112695, Note_on_c, 0, 71, 0
1, 112701, Note_on_c, 0, 76, 0
1, 112701, Note_on_c, 0, 67, 0
1, 112701, Note_on_c, 0, 64, 0
1, 112793, Note_on_c, 0, 52, 71
1, 112827, Note_on_c, 0, 52, 0
1, 112827, Note_on_c, 0, 67, 33
1, 112879, Note_on_c, 0, 67, 0
1, 112933, Note_on_c, 0, 71, 85
1, 112940, Note_on_c, 0, 67, 57
1, 112954, Note_on_c, 0, 64, 44
1, 112972, Note_on_c, 0, 71, 0
1, 112994, Note_on_c, 0, 70, 67
1, 113002, Note_on_c, 0, 67, 0
1, 113011, Note_on_c, 0, 64, 0
1, 113035, Note_on_c, 0, 70, 0
1, 113039, Note_on_c, 0, 66, 50
1, 113053, Note_on_c, 0, 71, 70
1, 113063, Note_on_c, 0, 63, 42
1, 113088, Note_on_c, 0, 66, 0
1, 113097, Note_on_c, 0, 71, 0
1, 113107, Note_on_c, 0, 63, 0
1, 113188, Note_on_c, 0, 59, 56
1, 113188, Note_on_c, 0, 75, 66
1, 113224, Note_on_c, 0, 75, 0
1, 113224, Note_on_c, 0, 59, 0
1, 113317, Note_on_c, 0, 71, 82
1, 113331, Note_on_c, 0, 67, 39
1, 113341, Note_on_c, 0, 64, 45
1, 113353, Note_on_c, 0, 71, 0
1, 113372, Note_on_c, 0, 70, 63
1, 113389, Note_on_c, 0, 64, 0
1, 113415, Note_on_c, 0, 70, 0
1, 113425, Note_on_c, 0, 67, 0
1, 113425, Note_on_c, 0, 71, 69
1, 113429, Note_on_c, 0, 66, 53
1, 113444, Note_on_c, 0, 63, 49
1, 113489, Note_on_c, 0, 63, 0
1, 113489, Note_on_c, 0, 66, 0
1, 113504, Note_on_c, 0, 71, 0
1, 113561, Note_on_c, 0, 78, 78
1, 113582, Note_on_c, 0, 59, 56
1, 113592, Note_on_c, 0, 78, 0
1, 113623, Note_on_c, 0, 59, 0
1, 113685, Note_on_c, 0, 71, 85
1, 113698, Note_on_c, 0, 67, 42
1, 113701, Note_on_c, 0, 64, 57
1, 113720, Note_on_c, 0, 71, 0
1, 113732, Note_on_c, 0, 70, 74
1, 113760, Note_on_c, 0, 64, 0
1, 113785, Note_on_c, 0, 67, 0
1, 113795, Note_on_c, 0, 70, 0
1, 113795, Note_on_c, 0, 66, 52
1, 113798, Note_on_c, 0, 71, 63
1, 113801, Note_on_c, 0, 63, 58
1, 113837, Note_on_c, 0, 71, 0
1, 113841, Note_on_c, 0, 63, 0
1, 113855, Note_on_c, 0, 66, 0
1, 113922, Note_on_c, 0, 83, 104
1, 113929, Note_on_c, 0, 75, 67
1, 113935, Note_on_c, 0, 59, 44
1, 113935, Note_on_c, 0, 78, 44
1, 113954, Note_on_c, 0, 83, 0
1, 113963, Note_on_c, 0, 75, 0
1, 113983, Note_on_c, 0, 59, 0
1, 113989, Note_on_c, 0, 78, 0
1, 114055, Note_on_c, 0, 79, 93
1, 114055, Note_on_c, 0, 70, 67
1, 114060, Note_on_c, 0, 76, 72
1, 114088, Note_on_c, 0, 79, 0
1, 114091, Note_on_c, 0, 76, 0
1, 114091, Note_on_c, 0, 70, 0
1, 114189, Note_on_c, 0, 78, 90
1, 114197, Note_on_c, 0, 71, 72
1, 114197, Note_on_c, 0, 75, 71
1, 114234, Note_on_c, 0, 75, 0
1, 114239, Note_on_c, 0, 71, 0
1, 114247, Control_c, 0, 64, 127
1, 114270, Note_on_c, 0, 78, 0
1, 114295, Control_c, 0, 64, 0
1, 114334, Note_on_c, 0, 59, 57
1, 114370, Note_on_c, 0, 59, 0
1, 114461, Note_on_c, 0, 62, 69
1, 114465, Note_on_c, 0, 65, 57
1, 114468, Note_on_c, 0, 69, 65
1, 114506, Note_on_c, 0, 69, 0
1, 114514, Note_on_c, 0, 62, 0
1, 114514, Note_on_c, 0, 68, 71
1, 114526, Note_on_c, 0, 65, 0
1, 114554, Note_on_c, 0, 68, 0
1, 114570, Note_on_c, 0, 64, 70
1, 114579, Note_on_c, 0, 69, 40
1, 114587, Note_on_c, 0, 61, 61
1, 114624, Note_on_c, 0, 64, 0
1, 114634, Note_on_c, 0, 61, 0
1, 114642, Note_on_c, 0, 69, 0
1, 114723, Note_on_c, 0, 73, 64
1, 114734, Note_on_c, 0, 57, 42
1, 114759, Note_on_c, 0, 73, 0
1, 114788, Note_on_c, 0, 57, 0
1, 114854, Note_on_c, 0, 69, 56
1, 114854, Note_on_c, 0, 65, 46
1, 114863, Note_on_c, 0, 62, 49
1, 114896, Note_on_c, 0, 69, 0
1, 114899, Note_on_c, 0, 68, 80
1, 114936, Note_on_c, 0, 62, 0
1, 114939, Note_on_c, 0, 68, 0
1, 114952, Note_on_c, 0, 65, 0
1, 114980, Note_on_c, 0, 69, 38
1, 114983, Note_on_c, 0, 61, 55
1, 114991, Note_on_c, 0, 64, 49
1, 115032, Note_on_c, 0, 64, 0
1, 115032, Note_on_c, 0, 61, 0
1, 115044, Note_on_c, 0, 69, 0
1, 115114, Note_on_c, 0, 76, 64
1, 115130, Note_on_c, 0, 57, 50
1, 115149, Note_on_c, 0, 76, 0
1, 115175, Note_on_c, 0, 57, 0
1, 115252, Note_on_c, 0, 69, 59
1, 115252, Note_on_c, 0, 65, 45
1, 115256, Note_on_c, 0, 62, 50
1, 115292, Note_on_c, 0, 69, 0
1, 115300, Note_on_c, 0, 68, 66
1, 115309, Note_on_c, 0, 62, 0
1, 115325, Note_on_c, 0, 65, 0
1, 115339, Note_on_c, 0, 68, 0
1, 115362, Note_on_c, 0, 69, 41
1, 115379, Note_on_c, 0, 61, 40
1, 115390, Note_on_c, 0, 64, 40
1, 115412, Note_on_c, 0, 69, 0
1, 115433, Note_on_c, 0, 61, 0
1, 115436, Note_on_c, 0, 64, 0
1, 115498, Note_on_c, 0, 81, 66
1, 115501, Note_on_c, 0, 57, 43
1, 115515, Note_on_c, 0, 76, 34
1, 115518, Note_on_c, 0, 73, 45
1, 115537, Note_on_c, 0, 81, 0
1, 115556, Note_on_c, 0, 57, 0
1, 115567, Note_on_c, 0, 73, 0
1, 115573, Note_on_c, 0, 76, 0
1, 115629, Note_on_c, 0, 68, 51
1, 115634, Note_on_c, 0, 74, 66
1, 115638, Note_on_c, 0, 77, 54
1, 115671, Note_on_c, 0, 74, 0
1, 115674, Note_on_c, 0, 68, 0
1, 115679, Note_on_c, 0, 77, 0
1, 115771, Note_on_c, 0, 69, 51
1, 115777, Note_on_c, 0, 76, 51
1, 115777, Note_on_c, 0, 73, 49
1, 115818, Note_on_c, 0, 76, 0
1, 115818, Note_on_c, 0, 69, 0
1, 115833, Note_on_c, 0, 73, 0
1, 115841, Control_c, 0, 64, 127
1, 115877, Control_c, 0, 64, 0
1, 115907, Note_on_c, 0, 57, 66
1, 115944, Note_on_c, 0, 57, 0
1, 116038, Note_on_c, 0, 67, 70
1, 116049, Note_on_c, 0, 63, 64
1, 116049, Note_on_c, 0, 60, 64
1, 116072, Note_on_c, 0, 66, 69
1, 116075, Note_on_c, 0, 67, 0
1, 116097, Note_on_c, 0, 60, 0
1, 116131, Note_on_c, 0, 63, 0
1, 116139, Note_on_c, 0, 67, 54
1, 116145, Note_on_c, 0, 66, 0
1, 116177, Note_on_c, 0, 62, 55
1, 116181, Note_on_c, 0, 59, 53
1, 116222, Note_on_c, 0, 59, 0
1, 116222, Note_on_c, 0, 62, 0
1, 116234, Note_on_c, 0, 67, 0
1, 116290, Note_on_c, 0, 71, 72
1, 116298, Note_on_c, 0, 55, 66
1, 116326, Note_on_c, 0, 71, 0
1, 116337, Note_on_c, 0, 55, 0
1, 116420, Note_on_c, 0, 67, 78
1, 116420, Note_on_c, 0, 63, 70
1, 116442, Note_on_c, 0, 60, 47
1, 116457, Note_on_c, 0, 67, 0
1, 116478, Note_on_c, 0, 66, 61
1, 116495, Note_on_c, 0, 60, 0
1, 116523, Note_on_c, 0, 66, 0
1, 116532, Note_on_c, 0, 63, 0
1, 116546, Note_on_c, 0, 67, 70
1, 116549, Note_on_c, 0, 62, 62
1, 116554, Note_on_c, 0, 59, 56
1, 116599, Note_on_c, 0, 59, 0
1, 116607, Note_on_c, 0, 62, 0
1, 116646, Note_on_c, 0, 67, 0
1, 116688, Note_on_c, 0, 74, 80
1, 116688, Note_on_c, 0, 55, 60
1, 116718, Note_on_c, 0, 74, 0
1, 116732, Note_on_c, 0, 55, 0
1, 116818, Note_on_c, 0, 63, 52
1, 116837, Note_on_c, 0, 67, 45
1, 116846, Note_on_c, 0, 60, 40
1, 116877, Note_on_c, 0, 66, 66
1, 116886, Note_on_c, 0, 67, 0
1, 116890, Note_on_c, 0, 63, 0
1, 116900, Note_on_c, 0, 60, 0
1, 116919, Note_on_c, 0, 66, 0
1, 116938, Note_on_c, 0, 67, 79
1, 116957, Note_on_c, 0, 62, 70
1, 116969, Note_on_c, 0, 59, 54
1, 116999, Note_on_c, 0, 62, 0
1, 117011, Note_on_c, 0, 59, 0
1, 117028, Note_on_c, 0, 67, 0
1, 117088, Note_on_c, 0, 79, 94
1, 117119, Note_on_c, 0, 79, 0
1, 117239, Note_on_c, 0, 67, 77
1, 117275, Note_on_c, 0, 67, 0
1, 117292, Note_on_c, 0, 66, 63
1, 117331, Note_on_c, 0, 66, 0
1, 117339, Note_on_c, 0, 55, 75
1, 117339, Note_on_c, 0, 47, 67
1, 117345, Note_on_c, 0, 67, 59
1, 117348, Note_on_c, 0, 53, 96
1, 117351, Note_on_c, 0, 50, 78
1, 117375, Control_c, 0, 64, 127
1, 117403, Note_on_c, 0, 53, 0
1, 117420, Note_on_c, 0, 50, 0
1, 117431, Note_on_c, 0, 67, 0
1, 117431, Note_on_c, 0, 55, 0
1, 117446, Control_c, 0, 64, 0
1, 117464, Note_on_c, 0, 47, 0
1, 117489, Note_on_c, 0, 77, 80
1, 117518, Note_on_c, 0, 77, 0
1, 117635, Note_on_c, 0, 67, 69
1, 117676, Note_on_c, 0, 67, 0
1, 117680, Note_on_c, 0, 66, 74
1, 117729, Note_on_c, 0, 66, 0
1, 117746, Note_on_c, 0, 52, 96
1, 117746, Note_on_c, 0, 55, 82
1, 117752, Note_on_c, 0, 48, 68
1, 117758, Note_on_c, 0, 67, 76
1, 117771, Control_c, 0, 64, 127
1, 117802, Note_on_c, 0, 55, 0
1, 117802, Note_on_c, 0, 52, 0
1, 117821, Note_on_c, 0, 48, 0
1, 117854, Note_on_c, 0, 67, 0
1, 117854, Control_c, 0, 64, 0
1, 117886, Note_on_c, 0, 76, 94
1, 117928, Note_on_c, 0, 76, 0
1, 118028, Note_on_c, 0, 67, 78
1, 118064, Note_on_c, 0, 67, 0
1, 118080, Note_on_c, 0, 66, 75
1, 118122, Note_on_c, 0, 66, 0
1, 118139, Note_on_c, 0, 55, 100
1, 118139, Note_on_c, 0, 51, 88
1, 118139, Note_on_c, 0, 48, 85
1, 118145, Note_on_c, 0, 67, 68
1, 118166, Control_c, 0, 64, 127
1, 118216, Note_on_c, 0, 55, 0
1, 118225, Note_on_c, 0, 51, 0
1, 118225, Note_on_c, 0, 67, 0
1, 118230, Note_on_c, 0, 48, 0
1, 118262, Control_c, 0, 64, 0
1, 118284, Note_on_c, 0, 75, 96
1, 118326, Note_on_c, 0, 75, 0
1, 118431, Note_on_c, 0, 67, 94
1, 118460, Note_on_c, 0, 67, 0
1, 118487, Note_on_c, 0, 66, 84
1, 118524, Note_on_c, 0, 59, 98
1, 118529, Note_on_c, 0, 50, 93
1, 118534, Note_on_c, 0, 55, 85
1, 118540, Note_on_c, 0, 66, 0
1, 118549, Control_c, 0, 64, 127
1, 118562, Note_on_c, 0, 67, 98
1, 118604, Note_on_c, 0, 59, 0
1, 118623, Note_on_c, 0, 55, 0
1, 118623, Note_on_c, 0, 50, 0
1, 118635, Note_on_c, 0, 67, 0
1, 118657, Control_c, 0, 64, 0
1, 118688, Note_on_c, 0, 74, 108
1, 118716, Note_on_c, 0, 74, 0
1, 118833, Note_on_c, 0, 67, 78
1, 118869, Note_on_c, 0, 67, 0
1, 118897, Note_on_c, 0, 66, 78
1, 118927, Note_on_c, 0, 58, 85
1, 118935, Note_on_c, 0, 55, 76
1, 118943, Note_on_c, 0, 66, 0
1, 118943, Note_on_c, 0, 52, 87
1, 118958, Control_c, 0, 64, 127
1, 118958, Note_on_c, 0, 67, 99
1, 118983, Note_on_c, 0, 52, 0
1, 118983, Note_on_c, 0, 55, 0
1, 119019, Note_on_c, 0, 58, 0
1, 119063, Note_on_c, 0, 67, 0
1, 119102, Control_c, 0, 64, 0
1, 119130, Note_on_c, 0, 73, 90
1, 119220, Note_on_c, 0, 73, 0
1, 119259, Note_on_c, 0, 69, 64
1, 119348, Note_on_c, 0, 68, 80
1, 119354, Note_on_c, 0, 69, 0
1, 119382, Note_on_c, 0, 68, 0
1, 119417, Note_on_c, 0, 72, 109
1, 119417, Note_on_c, 0, 69, 70
1, 119423, Note_on_c, 0, 42, 77
1, 119456, Note_on_c, 0, 42, 0
1, 119509, Control_c, 0, 64, 127
1, 119605, Note_on_c, 0, 62, 52
1, 119609, Note_on_c, 0, 57, 50
1, 119609, Note_on_c, 0, 60, 62
1, 119623, Note_on_c, 0, 50, 38
1, 119648, Note_on_c, 0, 69, 0
1, 119652, Note_on_c, 0, 60, 0
1, 119666, Note_on_c, 0, 62, 0
1, 119679, Note_on_c, 0, 57, 0
1, 119682, Note_on_c, 0, 50, 0
1, 119749, Note_on_c, 0, 57, 52
1, 119749, Note_on_c, 0, 50, 72
1, 119749, Note_on_c, 0, 60, 71
1, 119755, Note_on_c, 0, 62, 73
1, 119766, Note_on_c, 0, 72, 0
1, 119791, Note_on_c, 0, 62, 0
1, 119794, Note_on_c, 0, 50, 0
1, 119802, Note_on_c, 0, 60, 0
1, 119805, Note_on_c, 0, 57, 0
1, 119885, Note_on_c, 0, 60, 85
1, 119885, Note_on_c, 0, 62, 102
1, 119900, Note_on_c, 0, 57, 52
1, 119914, Note_on_c, 0, 50, 57
1, 119917, Note_on_c, 0, 62, 0
1, 119930, Note_on_c, 0, 60, 0
1, 119939, Note_on_c, 0, 57, 0
1, 119963, Note_on_c, 0, 50, 0
1, 120053, Note_on_c, 0, 74, 107
1, 120147, Note_on_c, 0, 74, 0
1, 120205, Note_on_c, 0, 74, 98
1, 120295, Note_on_c, 0, 74, 0
1, 120323, Control_c, 0, 64, 0
1, 120373, Note_on_c, 0, 74, 76
1, 120384, Note_on_c, 0, 35, 88
1, 120398, Note_on_c, 0, 47, 47
1, 120410, Note_on_c, 0, 35, 0
1, 120448, Note_on_c, 0, 47, 0
1, 120492, Control_c, 0, 64, 127
1, 120551, Note_on_c, 0, 62, 53
1, 120551, Note_on_c, 0, 67, 51
1, 120563, Note_on_c, 0, 59, 55
1, 120563, Note_on_c, 0, 55, 53
1, 120570, Note_on_c, 0, 50, 48
1, 120599, Note_on_c, 0, 67, 0
1, 120599, Note_on_c, 0, 62, 0
1, 120607, Note_on_c, 0, 59, 0
1, 120615, Note_on_c, 0, 55, 0
1, 120626, Note_on_c, 0, 50, 0
1, 120680, Note_on_c, 0, 59, 46
1, 120687, Note_on_c, 0, 62, 49
1, 120690, Note_on_c, 0, 67, 32
1, 120690, Note_on_c, 0, 55, 48
1, 120698, Note_on_c, 0, 50, 54
1, 120727, Note_on_c, 0, 59, 0
1, 120733, Note_on_c, 0, 62, 0
1, 120740, Note_on_c, 0, 55, 0
1, 120740, Note_on_c, 0, 50, 0
1, 120747, Note_on_c, 0, 67, 0
1, 120819, Note_on_c, 0, 67, 45
1, 120822, Note_on_c, 0, 50, 54
1, 120827, Note_on_c, 0, 55, 45
1, 120835, Note_on_c, 0, 59, 50
1, 120839, Note_on_c, 0, 62, 34
1, 120843, Note_on_c, 0, 74, 0
1, 120867, Note_on_c, 0, 50, 0
1, 120874, Note_on_c, 0, 55, 0
1, 120874, Note_on_c, 0, 59, 0
1, 120897, Note_on_c, 0, 62, 0
1, 120955, Note_on_c, 0, 72, 72
1, 120986, Note_on_c, 0, 67, 0
1, 121094, Note_on_c, 0, 71, 85
1, 121116, Note_on_c, 0, 72, 0
1, 121159, Note_on_c, 0, 71, 0
1, 121175, Control_c, 0, 64, 0
1, 121228, Note_on_c, 0, 36, 57
1, 121228, Note_on_c, 0, 71, 80
1, 121228, Note_on_c, 0, 48, 39
1, 121268, Note_on_c, 0, 36, 0
1, 121290, Note_on_c, 0, 48, 0
1, 121342, Control_c, 0, 64, 127
1, 121376, Note_on_c, 0, 62, 54
1, 121379, Note_on_c, 0, 57, 50
1, 121382, Note_on_c, 0, 54, 55
1, 121387, Note_on_c, 0, 50, 49
1, 121418, Note_on_c, 0, 62, 0
1, 121424, Note_on_c, 0, 57, 0
1, 121428, Note_on_c, 0, 54, 0
1, 121432, Note_on_c, 0, 50, 0
1, 121498, Note_on_c, 0, 69, 55
1, 121498, Note_on_c, 0, 62, 43
1, 121509, Note_on_c, 0, 71, 0
1, 121509, Note_on_c, 0, 57, 28
1, 121509, Note_on_c, 0, 50, 39
1, 121509, Note_on_c, 0, 54, 47
1, 121548, Note_on_c, 0, 62, 0
1, 121565, Note_on_c, 0, 54, 0
1, 121571, Note_on_c, 0, 57, 0
1, 121585, Note_on_c, 0, 50, 0
1, 121594, Control_c, 0, 64, 0
1, 121641, Note_on_c, 0, 57, 50
1, 121655, Note_on_c, 0, 62, 50
1, 121660, Note_on_c, 0, 50, 61
1, 121674, Note_on_c, 0, 54, 38
1, 121713, Note_on_c, 0, 50, 0
1, 121713, Note_on_c, 0, 62, 0
1, 121719, Note_on_c, 0, 57, 0
1, 121736, Note_on_c, 0, 54, 0
1, 121774, Control_c, 0, 64, 127
1, 121796, Note_on_c, 0, 67, 79
1, 121832, Note_on_c, 0, 69, 0
1, 121924, Note_on_c, 0, 67, 0
1, 121928, Note_on_c, 0, 66, 70
1, 122019, Note_on_c, 0, 66, 0
1, 122050, Control_c, 0, 64, 0
1, 122080, Note_on_c, 0, 47, 40
1, 122080, Note_on_c, 0, 67, 81
1, 122108, Note_on_c, 0, 62, 37
1, 122159, Note_on_c, 0, 47, 0
1, 122229, Control_c, 0, 64, 127
1, 122234, Note_on_c, 0, 62, 0
1, 122234, Note_on_c, 0, 50, 45
1, 122248, Note_on_c, 0, 55, 32
1, 122253, Note_on_c, 0, 59, 19
1, 122279, Note_on_c, 0, 67, 0
1, 122287, Note_on_c, 0, 50, 0
1, 122295, Note_on_c, 0, 59, 0
1, 122304, Note_on_c, 0, 55, 0
1, 122359, Note_on_c, 0, 67, 66
1, 122371, Note_on_c, 0, 55, 54
1, 122374, Note_on_c, 0, 62, 61
1, 122381, Note_on_c, 0, 50, 35
1, 122381, Note_on_c, 0, 59, 44
1, 122412, Note_on_c, 0, 62, 0
1, 122424, Note_on_c, 0, 59, 0
1, 122428, Note_on_c, 0, 55, 0
1, 122438, Note_on_c, 0, 50, 0
1, 122506, Note_on_c, 0, 69, 86
1, 122506, Note_on_c, 0, 55, 54
1, 122510, Note_on_c, 0, 50, 55
1, 122510, Note_on_c, 0, 59, 42
1, 122516, Control_c, 0, 64, 0
1, 122524, Note_on_c, 0, 62, 56
1, 122555, Note_on_c, 0, 67, 0
1, 122574, Note_on_c, 0, 59, 0
1, 122577, Note_on_c, 0, 50, 0
1, 122577, Note_on_c, 0, 55, 0
1, 122582, Note_on_c, 0, 62, 0
1, 122637, Note_on_c, 0, 59, 72
1, 122640, Note_on_c, 0, 55, 70
1, 122652, Note_on_c, 0, 50, 72
1, 122662, Control_c, 0, 64, 127
1, 122682, Note_on_c, 0, 59, 0
1, 122693, Note_on_c, 0, 50, 0
1, 122696, Note_on_c, 0, 55, 0
1, 122764, Note_on_c, 0, 55, 67
1, 122768, Note_on_c, 0, 71, 99
1, 122768, Note_on_c, 0, 59, 52
1, 122774, Note_on_c, 0, 62, 71
1, 122774, Note_on_c, 0, 50, 65
1, 122800, Note_on_c, 0, 55, 0
1, 122808, Note_on_c, 0, 59, 0
1, 122813, Note_on_c, 0, 62, 0
1, 122813, Note_on_c, 0, 50, 0
1, 122816, Note_on_c, 0, 69, 0
1, 122864, Control_c, 0, 64, 0
1, 122875, Note_on_c, 0, 71, 0
1, 122903, Note_on_c, 0, 42, 94
1, 122906, Note_on_c, 0, 74, 102
1, 122917, Note_on_c, 0, 62, 72
1, 122938, Note_on_c, 0, 42, 0
1, 122959, Note_on_c, 0, 62, 0
1, 123008, Control_c, 0, 64, 127
1, 123041, Note_on_c, 0, 60, 74
1, 123044, Note_on_c, 0, 57, 66
1, 123044, Note_on_c, 0, 72, 88
1, 123047, Note_on_c, 0, 62, 88
1, 123052, Note_on_c, 0, 50, 61
1, 123056, Note_on_c, 0, 74, 0
1, 123080, Note_on_c, 0, 62, 0
1, 123091, Note_on_c, 0, 60, 0
1, 123095, Note_on_c, 0, 57, 0
1, 123095, Note_on_c, 0, 50, 0
1, 123167, Note_on_c, 0, 50, 65
1, 123170, Note_on_c, 0, 60, 54
1, 123170, Note_on_c, 0, 62, 62
1, 123173, Note_on_c, 0, 69, 74
1, 123173, Note_on_c, 0, 57, 37
1, 123176, Note_on_c, 0, 72, 0
1, 123218, Note_on_c, 0, 50, 0
1, 123226, Note_on_c, 0, 62, 0
1, 123226, Note_on_c, 0, 60, 0
1, 123231, Note_on_c, 0, 57, 0
1, 123334, Note_on_c, 0, 60, 74
1, 123334, Note_on_c, 0, 62, 80
1, 123340, Note_on_c, 0, 57, 54
1, 123343, Note_on_c, 0, 50, 69
1, 123368, Control_c, 0, 64, 0
1, 123451, Control_c, 0, 64, 127
1, 123465, Note_on_c, 0, 69, 0
1, 123476, Note_on_c, 0, 60, 0
1, 123476, Note_on_c, 0, 62, 0
1, 123493, Note_on_c, 0, 50, 0
1, 123501, Note_on_c, 0, 57, 0
1, 123501, Note_on_c, 0, 74, 106
1, 123576, Note_on_c, 0, 74, 0
1, 123638, Note_on_c, 0, 74, 99
1, 123733, Note_on_c, 0, 74, 0
1, 123740, Control_c, 0, 64, 0
1, 123802, Note_on_c, 0, 76, 95
1, 123807, Note_on_c, 0, 43, 53
1, 123857, Note_on_c, 0, 43, 0
1, 123894, Control_c, 0, 64, 127
1, 123897, Note_on_c, 0, 76, 0
1, 123967, Note_on_c, 0, 62, 51
1, 123972, Note_on_c, 0, 67, 44
1, 123989, Note_on_c, 0, 59, 43
1, 123995, Note_on_c, 0, 55, 38
1, 124003, Note_on_c, 0, 50, 35
1, 124016, Note_on_c, 0, 62, 0
1, 124031, Note_on_c, 0, 67, 0
1, 124034, Note_on_c, 0, 59, 0
1, 124051, Note_on_c, 0, 55, 0
1, 124058, Note_on_c, 0, 50, 0
1, 124106, Note_on_c, 0, 74, 81
1, 124106, Note_on_c, 0, 67, 44
1, 124112, Note_on_c, 0, 59, 41
1, 124119, Note_on_c, 0, 50, 64
1, 124119, Note_on_c, 0, 55, 56
1, 124126, Note_on_c, 0, 62, 32
1, 124164, Note_on_c, 0, 59, 0
1, 124164, Note_on_c, 0, 67, 0
1, 124168, Note_on_c, 0, 50, 0
1, 124172, Note_on_c, 0, 74, 0
1, 124172, Note_on_c, 0, 55, 0
1, 124184, Note_on_c, 0, 62, 0
1, 124239, Note_on_c, 0, 74, 75
1, 124254, Note_on_c, 0, 59, 53
1, 124261, Note_on_c, 0, 62, 38
1, 124264, Note_on_c, 0, 67, 18
1, 124273, Note_on_c, 0, 55, 31
1, 124300, Note_on_c, 0, 59, 0
1, 124310, Note_on_c, 0, 67, 0
1, 124314, Note_on_c, 0, 62, 0
1, 124323, Note_on_c, 0, 55, 0
1, 124396, Note_on_c, 0, 72, 82
1, 124434, Note_on_c, 0, 74, 0
1, 124530, Note_on_c, 0, 72, 0
1, 124530, Note_on_c, 0, 71, 94
1, 124582, Note_on_c, 0, 71, 0
1, 124652, Control_c, 0, 64, 0
1, 124683, Note_on_c, 0, 48, 39
1, 124686, Note_on_c, 0, 71, 80
1, 124817, Note_on_c, 0, 50, 54
1, 124817, Note_on_c, 0, 54, 66
1, 124821, Note_on_c, 0, 57, 48
1, 124825, Note_on_c, 0, 62, 59
1, 124867, Note_on_c, 0, 57, 0
1, 124867, Note_on_c, 0, 54, 0
1, 124867, Note_on_c, 0, 50, 0
1, 124870, Note_on_c, 0, 62, 0
1, 124947, Note_on_c, 0, 69, 59
1, 124953, Note_on_c, 0, 71, 0
1, 124953, Note_on_c, 0, 62, 47
1, 124969, Note_on_c, 0, 54, 49
1, 124969, Note_on_c, 0, 57, 33
1, 124973, Note_on_c, 0, 50, 57
1, 125002, Note_on_c, 0, 62, 0
1, 125014, Note_on_c, 0, 54, 0
1, 125020, Note_on_c, 0, 50, 0
1, 125027, Note_on_c, 0, 57, 0
1, 125100, Note_on_c, 0, 50, 48
1, 125104, Note_on_c, 0, 62, 48
1, 125117, Note_on_c, 0, 57, 27
1, 125129, Note_on_c, 0, 54, 34
1, 125190, Note_on_c, 0, 62, 0
1, 125229, Note_on_c, 0, 57, 0
1, 125250, Control_c, 0, 64, 127
1, 125259, Note_on_c, 0, 67, 60
1, 125264, Note_on_c, 0, 48, 0
1, 125268, Note_on_c, 0, 69, 0
1, 125324, Note_on_c, 0, 54, 0
1, 125329, Note_on_c, 0, 50, 0
1, 125334, Note_on_c, 0, 67, 0
1, 125384, Note_on_c, 0, 66, 55
1, 125445, Note_on_c, 0, 66, 0
1, 125501, Control_c, 0, 64, 0
1, 125532, Note_on_c, 0, 67, 79
1, 125544, Note_on_c, 0, 47, 41
1, 125549, Note_on_c, 0, 62, 46
1, 125622, Note_on_c, 0, 47, 0
1, 125657, Control_c, 0, 64, 127
1, 125669, Note_on_c, 0, 62, 0
1, 125672, Note_on_c, 0, 50, 53
1, 125675, Note_on_c, 0, 59, 39
1, 125691, Note_on_c, 0, 55, 35
1, 125721, Note_on_c, 0, 59, 0
1, 125721, Note_on_c, 0, 50, 0
1, 125725, Note_on_c, 0, 67, 0
1, 125744, Note_on_c, 0, 55, 0
1, 125783, Note_on_c, 0, 67, 68
1, 125789, Note_on_c, 0, 59, 54
1, 125789, Note_on_c, 0, 50, 58
1, 125806, Note_on_c, 0, 62, 53
1, 125806, Note_on_c, 0, 55, 73
1, 125838, Note_on_c, 0, 59, 0
1, 125844, Note_on_c, 0, 55, 0
1, 125844, Note_on_c, 0, 50, 0
1, 125849, Note_on_c, 0, 62, 0
1, 125870, Note_on_c, 0, 67, 0
1, 125922, Note_on_c, 0, 67, 82
1, 125927, Note_on_c, 0, 55, 45
1, 125930, Note_on_c, 0, 59, 57
1, 125930, Note_on_c, 0, 62, 55
1, 125933, Note_on_c, 0, 50, 60
1, 125972, Note_on_c, 0, 62, 0
1, 125978, Note_on_c, 0, 59, 0
1, 125983, Note_on_c, 0, 55, 0
1, 125987, Note_on_c, 0, 50, 0
1, 125992, Control_c, 0, 64, 0
1, 126023, Note_on_c, 0, 67, 0
1, 126061, Note_on_c, 0, 69, 83
1, 126064, Note_on_c, 0, 50, 66
1, 126064, Note_on_c, 0, 55, 60
1, 126064, Note_on_c, 0, 59, 56
1, 126083, Note_on_c, 0, 62, 47
1, 126104, Note_on_c, 0, 59, 0
1, 126104, Note_on_c, 0, 50, 0
1, 126115, Note_on_c, 0, 55, 0
1, 126128, Note_on_c, 0, 62, 0
1, 126165, Note_on_c, 0, 69, 0
1, 126189, Note_on_c, 0, 59, 47
1, 126192, Note_on_c, 0, 71, 100
1, 126200, Note_on_c, 0, 50, 70
1, 126200, Note_on_c, 0, 62, 58
1, 126231, Note_on_c, 0, 59, 0
1, 126234, Note_on_c, 0, 50, 0
1, 126240, Note_on_c, 0, 62, 0
1, 126285, Note_on_c, 0, 71, 0
1, 126312, Note_on_c, 0, 42, 89
1, 126318, Note_on_c, 0, 74, 94
1, 126326, Note_on_c, 0, 62, 60
1, 126343, Note_on_c, 0, 42, 0
1, 126376, Note_on_c, 0, 62, 0
1, 126376, Control_c, 0, 64, 127
1, 126416, Note_on_c, 0, 74, 0
1, 126445, Note_on_c, 0, 57, 68
1, 126449, Note_on_c, 0, 72, 77
1, 126449, Note_on_c, 0, 60, 70
1, 126455, Note_on_c, 0, 62, 60
1, 126468, Note_on_c, 0, 50, 34
1, 126485, Note_on_c, 0, 57, 0
1, 126488, Note_on_c, 0, 60, 0
1, 126496, Note_on_c, 0, 62, 0
1, 126516, Note_on_c, 0, 50, 0
1, 126557, Note_on_c, 0, 72, 0
1, 126568, Note_on_c, 0, 57, 43
1, 126572, Note_on_c, 0, 60, 39
1, 126572, Note_on_c, 0, 50, 66
1, 126580, Note_on_c, 0, 69, 70
1, 126585, Note_on_c, 0, 62, 52
1, 126616, Note_on_c, 0, 50, 0
1, 126616, Note_on_c, 0, 57, 0
1, 126621, Note_on_c, 0, 60, 0
1, 126647, Note_on_c, 0, 62, 0
1, 126675, Control_c, 0, 64, 0
1, 126702, Note_on_c, 0, 60, 64
1, 126702, Note_on_c, 0, 50, 78
1, 126705, Note_on_c, 0, 57, 61
1, 126747, Note_on_c, 0, 57, 0
1, 126750, Note_on_c, 0, 60, 0
1, 126753, Note_on_c, 0, 50, 0
1, 126824, Note_on_c, 0, 60, 61
1, 126828, Note_on_c, 0, 57, 48
1, 126828, Note_on_c, 0, 71, 103
1, 126838, Note_on_c, 0, 50, 67
1, 126872, Note_on_c, 0, 60, 0
1, 126872, Note_on_c, 0, 69, 0
1, 126875, Note_on_c, 0, 57, 0
1, 126880, Note_on_c, 0, 50, 0
1, 126917, Note_on_c, 0, 71, 0
1, 126956, Note_on_c, 0, 72, 101
1, 126961, Note_on_c, 0, 60, 72
1, 126966, Note_on_c, 0, 50, 51
1, 126972, Note_on_c, 0, 57, 31
1, 127003, Note_on_c, 0, 60, 0
1, 127009, Note_on_c, 0, 50, 0
1, 127030, Note_on_c, 0, 57, 0
1, 127070, Note_on_c, 0, 72, 0
1, 127086, Note_on_c, 0, 74, 102
1, 127092, Note_on_c, 0, 71, 65
1, 127156, Note_on_c, 0, 71, 0
1, 127192, Control_c, 0, 64, 127
1, 127212, Note_on_c, 0, 62, 72
1, 127212, Control_c, 0, 64, 0
1, 127216, Note_on_c, 0, 74, 0
1, 127226, Note_on_c, 0, 59, 63
1, 127250, Note_on_c, 0, 62, 0
1, 127262, Note_on_c, 0, 59, 0
1, 127352, Note_on_c, 0, 59, 41
1, 127357, Note_on_c, 0, 62, 53
1, 127393, Note_on_c, 0, 59, 0
1, 127398, Note_on_c, 0, 62, 0
1, 127480, Note_on_c, 0, 77, 86
1, 127491, Note_on_c, 0, 57, 63
1, 127604, Note_on_c, 0, 71, 57
1, 127611, Note_on_c, 0, 62, 41
1, 127611, Note_on_c, 0, 74, 49
1, 127629, Note_on_c, 0, 59, 37
1, 127650, Note_on_c, 0, 71, 0
1, 127660, Note_on_c, 0, 74, 0
1, 127660, Note_on_c, 0, 62, 0
1, 127677, Note_on_c, 0, 59, 0
1, 127727, Note_on_c, 0, 71, 55
1, 127727, Note_on_c, 0, 74, 64
1, 127735, Note_on_c, 0, 62, 38
1, 127735, Note_on_c, 0, 59, 58
1, 127780, Note_on_c, 0, 74, 0
1, 127783, Note_on_c, 0, 71, 0
1, 127791, Note_on_c, 0, 62, 0
1, 127791, Note_on_c, 0, 59, 0
1, 127805, Note_on_c, 0, 57, 0
1, 127867, Note_on_c, 0, 76, 81
1, 127873, Note_on_c, 0, 56, 70
1, 127892, Note_on_c, 0, 77, 0
1, 127972, Note_on_c, 0, 56, 0
1, 127989, Note_on_c, 0, 62, 51
1, 127997, Note_on_c, 0, 71, 62
1, 128000, Note_on_c, 0, 74, 66
1, 128006, Note_on_c, 0, 59, 40
1, 128033, Note_on_c, 0, 62, 0
1, 128033, Note_on_c, 0, 76, 0
1, 128037, Note_on_c, 0, 74, 0
1, 128044, Note_on_c, 0, 71, 0
1, 128051, Note_on_c, 0, 59, 0
1, 128111, Note_on_c, 0, 74, 61
1, 128120, Note_on_c, 0, 71, 57
1, 128123, Note_on_c, 0, 59, 52
1, 128128, Note_on_c, 0, 62, 45
1, 128151, Note_on_c, 0, 74, 0
1, 128164, Note_on_c, 0, 71, 0
1, 128164, Note_on_c, 0, 59, 0
1, 128170, Note_on_c, 0, 62, 0
1, 128248, Note_on_c, 0, 71, 86
1, 128260, Note_on_c, 0, 52, 95
1, 128318, Note_on_c, 0, 52, 0
1, 128370, Note_on_c, 0, 68, 58
1, 128373, Note_on_c, 0, 64, 65
1, 128377, Note_on_c, 0, 62, 58
1, 128385, Note_on_c, 0, 59, 52
1, 128390, Control_c, 0, 64, 127
1, 128418, Note_on_c, 0, 62, 0
1, 128418, Note_on_c, 0, 64, 0
1, 128423, Note_on_c, 0, 68, 0
1, 128429, Note_on_c, 0, 59, 0
1, 128435, Note_on_c, 0, 71, 0
1, 128496, Note_on_c, 0, 68, 57
1, 128496, Note_on_c, 0, 59, 66
1, 128496, Control_c, 0, 64, 0
1, 128501, Note_on_c, 0, 62, 41
1, 128505, Note_on_c, 0, 64, 69
1, 128530, Note_on_c, 0, 59, 0
1, 128547, Note_on_c, 0, 64, 0
1, 128547, Note_on_c, 0, 62, 0
1, 128580, Note_on_c, 0, 68, 0
1, 128635, Note_on_c, 0, 72, 96
1, 128644, Note_on_c, 0, 45, 87
1, 128677, Note_on_c, 0, 45, 0
1, 128725, Control_c, 0, 64, 127
1, 128772, Note_on_c, 0, 64, 56
1, 128772, Note_on_c, 0, 60, 52
1, 128772, Note_on_c, 0, 57, 53
1, 128777, Note_on_c, 0, 69, 50
1, 128800, Note_on_c, 0, 72, 0
1, 128813, Note_on_c, 0, 64, 0
1, 128820, Note_on_c, 0, 57, 0
1, 128820, Note_on_c, 0, 60, 0
1, 128825, Note_on_c, 0, 69, 0
1, 128845, Control_c, 0, 64, 0
1, 128877, Note_on_c, 0, 60, 63
1, 128881, Note_on_c, 0, 57, 57
1, 128881, Note_on_c, 0, 64, 68
1, 128881, Note_on_c, 0, 69, 53
1, 128916, Note_on_c, 0, 64, 0
1, 128916, Note_on_c, 0, 60, 0
1, 128920, Note_on_c, 0, 57, 0
1, 128931, Note_on_c, 0, 69, 0
1, 129015, Note_on_c, 0, 76, 110
1, 129026, Note_on_c, 0, 43, 85
1, 129054, Note_on_c, 0, 43, 0
1, 129084, Control_c, 0, 64, 127
1, 129145, Note_on_c, 0, 60, 68
1, 129145, Note_on_c, 0, 72, 76
1, 129148, Note_on_c, 0, 55, 66
1, 129148, Note_on_c, 0, 69, 63
1, 129162, Note_on_c, 0, 57, 40
1, 129185, Note_on_c, 0, 55, 0
1, 129185, Note_on_c, 0, 60, 0
1, 129190, Note_on_c, 0, 69, 0
1, 129193, Note_on_c, 0, 72, 0
1, 129215, Note_on_c, 0, 57, 0
1, 129262, Note_on_c, 0, 55, 65
1, 129262, Note_on_c, 0, 60, 55
1, 129262, Note_on_c, 0, 57, 63
1, 129270, Note_on_c, 0, 72, 61
1, 129270, Note_on_c, 0, 69, 43
1, 129301, Note_on_c, 0, 55, 0
1, 129304, Note_on_c, 0, 57, 0
1, 129304, Note_on_c, 0, 60, 0
1, 129312, Control_c, 0, 64, 0
1, 129324, Note_on_c, 0, 69, 0
1, 129337, Note_on_c, 0, 72, 0
1, 129352, Note_on_c, 0, 76, 0
1, 129401, Note_on_c, 0, 75, 113
1, 129401, Note_on_c, 0, 42, 109
1, 129444, Note_on_c, 0, 42, 0
1, 129491, Control_c, 0, 64, 127
1, 129529, Note_on_c, 0, 72, 72
1, 129541, Note_on_c, 0, 69, 44
1, 129544, Note_on_c, 0, 57, 43
1, 129554, Note_on_c, 0, 60, 23
1, 129572, Note_on_c, 0, 72, 0
1, 129593, Note_on_c, 0, 69, 0
1, 129596, Note_on_c, 0, 60, 0
1, 129596, Note_on_c, 0, 57, 0
1, 129658, Note_on_c, 0, 60, 89
1, 129663, Note_on_c, 0, 69, 43
1, 129663, Note_on_c, 0, 54, 88
1, 129667, Note_on_c, 0, 72, 72
1, 129685, Control_c, 0, 64, 0
1, 129692, Note_on_c, 0, 60, 0
1, 129695, Note_on_c, 0, 54, 0
1, 129710, Note_on_c, 0, 72, 0
1, 129717, Note_on_c, 0, 69, 0
1, 129764, Note_on_c, 0, 75, 0
1, 129800, Note_on_c, 0, 81, 119
1, 129817, Note_on_c, 0, 40, 71
1, 129853, Note_on_c, 0, 40, 0
1, 129864, Control_c, 0, 64, 127
1, 129908, Note_on_c, 0, 81, 0
1, 129939, Note_on_c, 0, 72, 76
1, 129939, Note_on_c, 0, 54, 82
1, 129944, Note_on_c, 0, 60, 78
1, 129955, Note_on_c, 0, 69, 51
1, 129955, Note_on_c, 0, 57, 45
1, 129959, Note_on_c, 0, 52, 60
1, 129983, Note_on_c, 0, 60, 0
1, 129983, Note_on_c, 0, 72, 0
1, 129987, Note_on_c, 0, 54, 0
1, 129998, Note_on_c, 0, 52, 0
1, 130001, Note_on_c, 0, 69, 0
1, 130006, Note_on_c, 0, 57, 0
1, 130051, Note_on_c, 0, 72, 76
1, 130054, Note_on_c, 0, 52, 79
1, 130058, Note_on_c, 0, 69, 54
1, 130061, Note_on_c, 0, 54, 69
1, 130061, Note_on_c, 0, 57, 59
1, 130061, Note_on_c, 0, 60, 54
1, 130098, Note_on_c, 0, 69, 0
1, 130098, Note_on_c, 0, 52, 0
1, 130104, Note_on_c, 0, 60, 0
1, 130111, Note_on_c, 0, 57, 0
1, 130115, Note_on_c, 0, 72, 0
1, 130115, Control_c, 0, 64, 0
1, 130135, Note_on_c, 0, 54, 0
1, 130193, Note_on_c, 0, 71, 119
1, 130196, Note_on_c, 0, 54, 82
1, 130196, Note_on_c, 0, 51, 95
1, 130196, Note_on_c, 0, 59, 91
1, 130200, Note_on_c, 0, 57, 64
1, 130204, Note_on_c, 0, 69, 96
1, 130234, Note_on_c, 0, 59, 0
1, 130268, Note_on_c, 0, 51, 0
1, 130273, Note_on_c, 0, 57, 0
1, 130276, Note_on_c, 0, 54, 0
1, 130295, Control_c, 0, 64, 127
1, 130326, Note_on_c, 0, 54, 82
1, 130326, Note_on_c, 0, 57, 66
1, 130329, Note_on_c, 0, 51, 76
1, 130338, Note_on_c, 0, 59, 69
1, 130345, Note_on_c, 0, 69, 0
1, 130376, Note_on_c, 0, 59, 0
1, 130390, Note_on_c, 0, 51, 0
1, 130390, Note_on_c, 0, 54, 0
1, 130398, Note_on_c, 0, 57, 0
1, 130402, Note_on_c, 0, 71, 0
1, 130451, Control_c, 0, 64, 0
1, 130469, Note_on_c, 0, 73, 88
1, 130476, Note_on_c, 0, 69, 68
1, 130476, Note_on_c, 0, 57, 48
1, 130480, Note_on_c, 0, 59, 72
1, 130480, Note_on_c, 0, 54, 69
1, 130483, Note_on_c, 0, 51, 68
1, 130513, Note_on_c, 0, 69, 0
1, 130518, Note_on_c, 0, 59, 0
1, 130524, Note_on_c, 0, 54, 0
1, 130529, Note_on_c, 0, 73, 0
1, 130529, Note_on_c, 0, 51, 0
1, 130533, Note_on_c, 0, 57, 0
1, 130600, Note_on_c, 0, 75, 104
1, 130603, Note_on_c, 0, 69, 73
1, 130603, Note_on_c, 0, 57, 50
1, 130607, Note_on_c, 0, 51, 70
1, 130611, Note_on_c, 0, 59, 63
1, 130616, Note_on_c, 0, 54, 64
1, 130643, Note_on_c, 0, 69, 0
1, 130650, Note_on_c, 0, 59, 0
1, 130653, Note_on_c, 0, 54, 0
1, 130664, Note_on_c, 0, 57, 0
1, 130667, Note_on_c, 0, 51, 0
1, 130675, Note_on_c, 0, 75, 0
1, 130730, Note_on_c, 0, 76, 98
1, 130739, Note_on_c, 0, 57, 52
1, 130739, Note_on_c, 0, 69, 69
1, 130745, Note_on_c, 0, 59, 64
1, 130745, Note_on_c, 0, 54, 64
1, 130748, Note_on_c, 0, 51, 56
1, 130778, Note_on_c, 0, 59, 0
1, 130778, Note_on_c, 0, 69, 0
1, 130789, Note_on_c, 0, 54, 0
1, 130789, Note_on_c, 0, 51, 0
1, 130792, Note_on_c, 0, 57, 0
1, 130809, Note_on_c, 0, 76, 0
1, 130858, Note_on_c, 0, 54, 65
1, 130864, Note_on_c, 0, 78, 104
1, 130864, Note_on_c, 0, 51, 50
1, 130864, Note_on_c, 0, 57, 41
1, 130870, Note_on_c, 0, 59, 55
1, 130873, Note_on_c, 0, 69, 66
1, 130908, Note_on_c, 0, 59, 0
1, 130908, Note_on_c, 0, 57, 0
1, 130912, Note_on_c, 0, 51, 0
1, 130912, Note_on_c, 0, 69, 0
1, 130936, Note_on_c, 0, 54, 0
1, 130950, Note_on_c, 0, 78, 0
1, 130997, Note_on_c, 0, 81, 116
1, 130997, Note_on_c, 0, 69, 94
1, 131004, Note_on_c, 0, 52, 107
1, 131007, Note_on_c, 0, 55, 93
1, 131007, Note_on_c, 0, 59, 85
1, 131015, Note_on_c, 0, 78, 49
1, 131040, Note_on_c, 0, 59, 0
1, 131040, Note_on_c, 0, 55, 0
1, 131040, Note_on_c, 0, 52, 0
1, 131054, Note_on_c, 0, 69, 0
1, 131065, Note_on_c, 0, 78, 0
1, 131089, Note_on_c, 0, 81, 0
1, 131125, Note_on_c, 0, 79, 92
1, 131137, Note_on_c, 0, 55, 66
1, 131137, Note_on_c, 0, 52, 78
1, 131137, Note_on_c, 0, 59, 52
1, 131148, Note_on_c, 0, 67, 41
1, 131167, Note_on_c, 0, 79, 0
1, 131174, Note_on_c, 0, 52, 0
1, 131177, Note_on_c, 0, 55, 0
1, 131177, Note_on_c, 0, 59, 0
1, 131207, Note_on_c, 0, 67, 0
1, 131256, Note_on_c, 0, 75, 85
1, 131260, Note_on_c, 0, 55, 61
1, 131266, Note_on_c, 0, 52, 67
1, 131266, Note_on_c, 0, 59, 37
1, 131302, Note_on_c, 0, 52, 0
1, 131302, Note_on_c, 0, 55, 0
1, 131315, Note_on_c, 0, 75, 0
1, 131315, Note_on_c, 0, 59, 0
1, 131383, Note_on_c, 0, 57, 88
1, 131383, Note_on_c, 0, 48, 84
1, 131383, Note_on_c, 0, 78, 103
1, 131391, Note_on_c, 0, 55, 65
1, 131398, Note_on_c, 0, 52, 70
1, 131432, Note_on_c, 0, 52, 0
1, 131437, Note_on_c, 0, 48, 0
1, 131437, Note_on_c, 0, 57, 0
1, 131437, Note_on_c, 0, 55, 0
1, 131468, Note_on_c, 0, 78, 0
1, 131518, Note_on_c, 0, 57, 58
1, 131518, Note_on_c, 0, 52, 65
1, 131522, Note_on_c, 0, 48, 53
1, 131529, Note_on_c, 0, 55, 49
1, 131529, Note_on_c, 0, 76, 77
1, 131561, Note_on_c, 0, 76, 0
1, 131564, Note_on_c, 0, 52, 0
1, 131568, Note_on_c, 0, 55, 0
1, 131574, Note_on_c, 0, 48, 0
1, 131574, Note_on_c, 0, 57, 0
1, 131632, Note_on_c, 0, 48, 66
1, 131636, Note_on_c, 0, 57, 56
1, 131641, Note_on_c, 0, 52, 76
1, 131652, Note_on_c, 0, 55, 46
1, 131658, Note_on_c, 0, 69, 73
1, 131674, Note_on_c, 0, 48, 0
1, 131688, Note_on_c, 0, 52, 0
1, 131692, Note_on_c, 0, 57, 0
1, 131692, Note_on_c, 0, 55, 0
1, 131697, Note_on_c, 0, 69, 0
1, 131781, Note_on_c, 0, 76, 92
1, 131786, Note_on_c, 0, 59, 80
1, 131786, Note_on_c, 0, 50, 81
1, 131791, Note_on_c, 0, 55, 74
1, 131828, Note_on_c, 0, 50, 0
1, 131828, Note_on_c, 0, 59, 0
1, 131839, Note_on_c, 0, 55, 0
1, 131867, Note_on_c, 0, 76, 0
1, 131909, Note_on_c, 0, 55, 69
1, 131909, Note_on_c, 0, 59, 64
1, 131909, Note_on_c, 0, 74, 82
1, 131914, Note_on_c, 0, 50, 53
1, 131944, Note_on_c, 0, 74, 0
1, 131958, Note_on_c, 0, 50, 0
1, 131958, Note_on_c, 0, 59, 0
1, 131962, Note_on_c, 0, 55, 0
1, 132045, Note_on_c, 0, 59, 62
1, 132045, Note_on_c, 0, 67, 67
1, 132048, Note_on_c, 0, 50, 50
1, 132053, Note_on_c, 0, 55, 64
1, 132085, Note_on_c, 0, 59, 0
1, 132090, Note_on_c, 0, 67, 0
1, 132090, Note_on_c, 0, 55, 0
1, 132093, Note_on_c, 0, 50, 0
1, 132178, Note_on_c, 0, 71, 88
1, 132181, Note_on_c, 0, 57, 72
1, 132187, Note_on_c, 0, 48, 60
1, 132187, Note_on_c, 0, 54, 81
1, 132193, Note_on_c, 0, 50, 46
1, 132231, Note_on_c, 0, 54, 0
1, 132231, Note_on_c, 0, 48, 0
1, 132231, Note_on_c, 0, 57, 0
1, 132237, Note_on_c, 0, 50, 0
1, 132246, Note_on_c, 0, 71, 0
1, 132299, Note_on_c, 0, 69, 58
1, 132302, Note_on_c, 0, 54, 67
1, 132310, Note_on_c, 0, 57, 48
1, 132310, Note_on_c, 0, 50, 46
1, 132310, Note_on_c, 0, 48, 34
1, 132348, Note_on_c, 0, 69, 0
1, 132358, Note_on_c, 0, 48, 0
1, 132358, Note_on_c, 0, 57, 0
1, 132362, Note_on_c, 0, 50, 0
1, 132365, Note_on_c, 0, 54, 0
1, 132429, Note_on_c, 0, 54, 66
1, 132429, Note_on_c, 0, 57, 50
1, 132438, Note_on_c, 0, 62, 55
1, 132438, Note_on_c, 0, 50, 47
1, 132444, Note_on_c, 0, 48, 23
1, 132482, Note_on_c, 0, 62, 0
1, 132488, Note_on_c, 0, 50, 0
1, 132488, Note_on_c, 0, 54, 0
1, 132493, Note_on_c, 0, 57, 0
1, 132502, Note_on_c, 0, 48, 0
1, 132608, Note_on_c, 0, 62, 66
1, 132624, Note_on_c, 0, 55, 58
1, 132641, Note_on_c, 0, 47, 48
1, 132646, Note_on_c, 0, 50, 40
1, 132663, Note_on_c, 0, 62, 0
1, 132714, Note_on_c, 0, 67, 51
1, 132752, Control_c, 0, 64, 127
1, 132764, Note_on_c, 0, 67, 0
1, 132787, Note_on_c, 0, 71, 71
1, 132823, Note_on_c, 0, 71, 0
1, 132878, Note_on_c, 0, 74, 54
1, 132925, Note_on_c, 0, 74, 0
1, 132942, Note_on_c, 0, 79, 62
1, 132956, Note_on_c, 0, 55, 0
1, 132965, Note_on_c, 0, 47, 0
1, 132997, Note_on_c, 0, 79, 0
1, 133014, Note_on_c, 0, 50, 0
1, 133014, Note_on_c, 0, 83, 88
1, 133046, Note_on_c, 0, 55, 11
1, 133065, Note_on_c, 0, 83, 0
1, 133092, Note_on_c, 0, 86, 65
1, 133110, Note_on_c, 0, 55, 0
1, 133173, Note_on_c, 0, 86, 0
1, 133187, Note_on_c, 0, 83, 69
1, 133240, Note_on_c, 0, 62, 92
1, 133244, Note_on_c, 0, 83, 0
1, 133273, Note_on_c, 0, 79, 64
1, 133312, Note_on_c, 0, 79, 0
1, 133321, Note_on_c, 0, 62, 0
1, 133357, Note_on_c, 0, 74, 25
1, 133377, Note_on_c, 0, 62, 85
1, 133397, Note_on_c, 0, 74, 0
1, 133408, Note_on_c, 0, 62, 0
1, 133432, Note_on_c, 0, 71, 64
1, 133482, Note_on_c, 0, 71, 0
1, 133497, Note_on_c, 0, 67, 31
1, 133524, Note_on_c, 0, 47, 47
1, 133557, Note_on_c, 0, 67, 0
1, 133583, Note_on_c, 0, 47, 0
1, 133606, Note_on_c, 0, 62, 98
1, 133677, Note_on_c, 0, 67, 42
1, 133728, Note_on_c, 0, 67, 0
1, 133734, Control_c, 0, 64, 0
1, 133758, Note_on_c, 0, 71, 65
1, 133800, Note_on_c, 0, 71, 0
1, 133911, Note_on_c, 0, 79, 64
1, 133926, Control_c, 0, 64, 127
1, 133957, Note_on_c, 0, 79, 0
1, 133981, Note_on_c, 0, 83, 73
1, 134031, Note_on_c, 0, 83, 0
1, 134045, Note_on_c, 0, 86, 73
1, 134115, Note_on_c, 0, 83, 60
1, 134120, Note_on_c, 0, 86, 0
1, 134140, Note_on_c, 0, 62, 0
1, 134168, Note_on_c, 0, 83, 0
1, 134168, Note_on_c, 0, 60, 90
1, 134188, Note_on_c, 0, 79, 53
1, 134240, Note_on_c, 0, 79, 0
1, 134243, Note_on_c, 0, 74, 44
1, 134280, Note_on_c, 0, 60, 0
1, 134293, Note_on_c, 0, 74, 0
1, 134313, Note_on_c, 0, 59, 84
1, 134324, Note_on_c, 0, 71, 74
1, 134343, Note_on_c, 0, 59, 0
1, 134362, Note_on_c, 0, 71, 0
1, 134382, Note_on_c, 0, 67, 41
1, 134418, Control_c, 0, 64, 0
1, 134438, Note_on_c, 0, 67, 0
1, 134468, Note_on_c, 0, 59, 94
1, 134479, Note_on_c, 0, 62, 53
1, 134494, Note_on_c, 0, 50, 57
1, 134494, Note_on_c, 0, 48, 41
1, 134504, Note_on_c, 0, 54, 50
1, 134525, Note_on_c, 0, 62, 0
1, 134557, Note_on_c, 0, 66, 49
1, 134596, Note_on_c, 0, 66, 0
1, 134631, Note_on_c, 0, 69, 54
1, 134638, Note_on_c, 0, 54, 0
1, 134645, Control_c, 0, 64, 127
1, 134678, Note_on_c, 0, 69, 0
1, 134731, Note_on_c, 0, 59, 0
1, 134731, Note_on_c, 0, 74, 37
1, 134787, Note_on_c, 0, 78, 68
1, 134787, Control_c, 0, 64, 0
1, 134791, Note_on_c, 0, 74, 0
1, 134798, Note_on_c, 0, 57, 59
1, 134831, Note_on_c, 0, 78, 0
1, 134867, Note_on_c, 0, 81, 63
1, 134928, Note_on_c, 0, 81, 0
1, 134942, Note_on_c, 0, 48, 0
1, 134948, Note_on_c, 0, 86, 72
1, 134961, Note_on_c, 0, 57, 0
1, 134968, Control_c, 0, 64, 127
1, 134973, Note_on_c, 0, 50, 0
1, 135035, Note_on_c, 0, 86, 0
1, 135046, Note_on_c, 0, 81, 40
1, 135095, Note_on_c, 0, 81, 0
1, 135095, Note_on_c, 0, 78, 59
1, 135120, Note_on_c, 0, 55, 72
1, 135135, Note_on_c, 0, 78, 0
1, 135215, Note_on_c, 0, 55, 0
1, 135235, Note_on_c, 0, 69, 63
1, 135240, Note_on_c, 0, 54, 83
1, 135279, Note_on_c, 0, 69, 0
1, 135302, Note_on_c, 0, 66, 59
1, 135340, Control_c, 0, 64, 0
1, 135349, Note_on_c, 0, 66, 0
1, 135376, Note_on_c, 0, 54, 0
1, 135376, Note_on_c, 0, 62, 81
1, 135376, Note_on_c, 0, 55, 95
1, 135388, Note_on_c, 0, 50, 71
1, 135397, Note_on_c, 0, 47, 50
1, 135419, Note_on_c, 0, 62, 0
1, 135458, Note_on_c, 0, 67, 71
1, 135505, Note_on_c, 0, 67, 0
1, 135544, Note_on_c, 0, 71, 63
1, 135544, Control_c, 0, 64, 127
1, 135550, Note_on_c, 0, 55, 0
1, 135588, Note_on_c, 0, 71, 0
1, 135614, Note_on_c, 0, 74, 70
1, 135669, Note_on_c, 0, 74, 0
1, 135673, Note_on_c, 0, 55, 91
1, 135689, Note_on_c, 0, 79, 63
1, 135725, Control_c, 0, 64, 0
1, 135734, Note_on_c, 0, 79, 0
1, 135744, Note_on_c, 0, 83, 96
1, 135783, Note_on_c, 0, 83, 0
1, 135808, Note_on_c, 0, 50, 0
1, 135811, Note_on_c, 0, 57, 87
1, 135814, Note_on_c, 0, 47, 0
1, 135820, Note_on_c, 0, 86, 58
1, 135831, Note_on_c, 0, 55, 0
1, 135883, Note_on_c, 0, 83, 87
1, 135890, Note_on_c, 0, 86, 0
1, 135928, Note_on_c, 0, 83, 0
1, 135928, Control_c, 0, 64, 127
1, 135951, Note_on_c, 0, 79, 67
1, 135989, Note_on_c, 0, 79, 0
1, 136001, Note_on_c, 0, 74, 68
1, 136032, Note_on_c, 0, 57, 0
1, 136035, Note_on_c, 0, 74, 0
1, 136092, Note_on_c, 0, 59, 83
1, 136092, Note_on_c, 0, 71, 79
1, 136140, Note_on_c, 0, 71, 0
1, 136143, Control_c, 0, 64, 0
1, 136162, Note_on_c, 0, 67, 56
1, 136209, Note_on_c, 0, 67, 0
1, 136235, Note_on_c, 0, 62, 92
1, 136263, Note_on_c, 0, 57, 50
1, 136273, Note_on_c, 0, 54, 45
1, 136296, Note_on_c, 0, 59, 0
1, 136326, Note_on_c, 0, 69, 61
1, 136379, Note_on_c, 0, 69, 0
1, 136410, Note_on_c, 0, 72, 59
1, 136443, Control_c, 0, 64, 127
1, 136446, Note_on_c, 0, 72, 0
1, 136446, Note_on_c, 0, 57, 0
1, 136489, Note_on_c, 0, 74, 61
1, 136508, Note_on_c, 0, 54, 0
1, 136514, Note_on_c, 0, 62, 0
1, 136547, Note_on_c, 0, 74, 0
1, 136550, Note_on_c, 0, 60, 67
1, 136558, Note_on_c, 0, 81, 72
1, 136608, Note_on_c, 0, 81, 0
1, 136636, Note_on_c, 0, 84, 57
1, 136648, Note_on_c, 0, 60, 0
1, 136672, Control_c, 0, 64, 0
1, 136683, Note_on_c, 0, 84, 0
1, 136702, Note_on_c, 0, 86, 67
1, 136702, Note_on_c, 0, 57, 53
1, 136709, Note_on_c, 0, 50, 56
1, 136776, Note_on_c, 0, 84, 40
1, 136786, Note_on_c, 0, 86, 0
1, 136806, Note_on_c, 0, 50, 0
1, 136826, Control_c, 0, 64, 127
1, 136844, Note_on_c, 0, 57, 0
1, 136847, Note_on_c, 0, 81, 64
1, 136853, Note_on_c, 0, 84, 0
1, 136882, Note_on_c, 0, 81, 0
1, 136893, Note_on_c, 0, 62, 78
1, 136914, Note_on_c, 0, 74, 55
1, 136942, Note_on_c, 0, 62, 0
1, 136954, Note_on_c, 0, 74, 0
1, 136996, Note_on_c, 0, 72, 72
1, 137009, Note_on_c, 0, 62, 85
1, 137040, Note_on_c, 0, 72, 0
1, 137054, Note_on_c, 0, 62, 0
1, 137054, Note_on_c, 0, 69, 58
1, 137098, Note_on_c, 0, 69, 0
1, 137102, Control_c, 0, 64, 0
1, 137160, Note_on_c, 0, 62, 91
1, 137182, Note_on_c, 0, 55, 55
1, 137182, Note_on_c, 0, 59, 45
1, 137226, Note_on_c, 0, 67, 65
1, 137272, Note_on_c, 0, 67, 0
1, 137301, Note_on_c, 0, 71, 80
1, 137332, Note_on_c, 0, 71, 0
1, 137379, Control_c, 0, 64, 127
1, 137393, Note_on_c, 0, 74, 65
1, 137430, Note_on_c, 0, 74, 0
1, 137452, Note_on_c, 0, 79, 72
1, 137494, Note_on_c, 0, 79, 0
1, 137517, Note_on_c, 0, 83, 95
1, 137566, Note_on_c, 0, 83, 0
1, 137578, Note_on_c, 0, 86, 84
1, 137619, Note_on_c, 0, 59, 0
1, 137645, Note_on_c, 0, 83, 87
1, 137652, Note_on_c, 0, 62, 0
1, 137661, Note_on_c, 0, 86, 0
1, 137695, Note_on_c, 0, 55, 0
1, 137711, Note_on_c, 0, 83, 0
1, 137728, Note_on_c, 0, 60, 82
1, 137731, Note_on_c, 0, 79, 57
1, 137776, Note_on_c, 0, 74, 59
1, 137781, Note_on_c, 0, 79, 0
1, 137815, Note_on_c, 0, 74, 0
1, 137857, Note_on_c, 0, 59, 87
1, 137862, Note_on_c, 0, 60, 0
1, 137865, Note_on_c, 0, 71, 76
1, 137886, Note_on_c, 0, 59, 0
1, 137906, Note_on_c, 0, 71, 0
1, 137942, Note_on_c, 0, 67, 39
1, 137990, Control_c, 0, 64, 0
1, 137996, Note_on_c, 0, 67, 0
1, 138020, Note_on_c, 0, 59, 82
1, 138020, Note_on_c, 0, 62, 73
1, 138035, Note_on_c, 0, 50, 59
1, 138035, Note_on_c, 0, 54, 63
1, 138052, Note_on_c, 0, 48, 35
1, 138073, Note_on_c, 0, 62, 0
1, 138109, Note_on_c, 0, 66, 55
1, 138146, Note_on_c, 0, 66, 0
1, 138180, Control_c, 0, 64, 127
1, 138184, Note_on_c, 0, 69, 51
1, 138204, Note_on_c, 0, 54, 0
1, 138235, Note_on_c, 0, 69, 0
1, 138279, Note_on_c, 0, 59, 0
1, 138279, Note_on_c, 0, 74, 57
1, 138335, Note_on_c, 0, 54, 18
1, 138340, Note_on_c, 0, 78, 64
1, 138349, Note_on_c, 0, 74, 0
1, 138361, Control_c, 0, 64, 0
1, 138361, Note_on_c, 0, 57, 56
1, 138388, Note_on_c, 0, 78, 0
1, 138427, Note_on_c, 0, 81, 56
1, 138496, Note_on_c, 0, 81, 0
1, 138502, Note_on_c, 0, 86, 77
1, 138506, Note_on_c, 0, 57, 0
1, 138528, Note_on_c, 0, 48, 0
1, 138528, Control_c, 0, 64, 127
1, 138536, Note_on_c, 0, 54, 0
1, 138550, Note_on_c, 0, 50, 0
1, 138586, Note_on_c, 0, 86, 0
1, 138586, Note_on_c, 0, 81, 43
1, 138637, Note_on_c, 0, 81, 0
1, 138650, Note_on_c, 0, 78, 57
1, 138662, Note_on_c, 0, 55, 79
1, 138689, Note_on_c, 0, 78, 0
1, 138716, Note_on_c, 0, 74, 84
1, 138737, Note_on_c, 0, 55, 0
1, 138754, Note_on_c, 0, 74, 0
1, 138781, Note_on_c, 0, 69, 76
1, 138795, Note_on_c, 0, 54, 87
1, 138822, Note_on_c, 0, 69, 0
1, 138856, Note_on_c, 0, 66, 61
1, 138896, Note_on_c, 0, 66, 0
1, 138912, Note_on_c, 0, 54, 0
1, 138912, Control_c, 0, 64, 0
1, 138925, Note_on_c, 0, 67, 88
1, 138931, Note_on_c, 0, 55, 95
1, 138945, Note_on_c, 0, 50, 69
1, 138945, Note_on_c, 0, 47, 59
1, 138985, Note_on_c, 0, 67, 0
1, 139004, Note_on_c, 0, 71, 77
1, 139057, Note_on_c, 0, 47, 0
1, 139057, Note_on_c, 0, 50, 0
1, 139067, Note_on_c, 0, 71, 0
1, 139079, Control_c, 0, 64, 127
1, 139105, Note_on_c, 0, 74, 84
1, 139124, Note_on_c, 0, 55, 0
1, 139144, Note_on_c, 0, 74, 0
1, 139168, Note_on_c, 0, 79, 53
1, 139229, Note_on_c, 0, 79, 0
1, 139233, Note_on_c, 0, 83, 107
1, 139241, Note_on_c, 0, 55, 97
1, 139272, Note_on_c, 0, 83, 0
1, 139315, Note_on_c, 0, 86, 85
1, 139343, Note_on_c, 0, 55, 0
1, 139355, Control_c, 0, 64, 0
1, 139382, Note_on_c, 0, 91, 92
1, 139382, Note_on_c, 0, 57, 93
1, 139391, Note_on_c, 0, 53, 106
1, 139403, Note_on_c, 0, 86, 0
1, 139449, Note_on_c, 0, 86, 89
1, 139467, Note_on_c, 0, 91, 0
1, 139474, Note_on_c, 0, 53, 0
1, 139524, Control_c, 0, 64, 127
1, 139524, Note_on_c, 0, 83, 101
1, 139550, Note_on_c, 0, 86, 0
1, 139556, Note_on_c, 0, 83, 0
1, 139567, Note_on_c, 0, 79, 83
1, 139602, Note_on_c, 0, 79, 0
1, 139611, Note_on_c, 0, 57, 0
1, 139661, Note_on_c, 0, 74, 84
1, 139661, Note_on_c, 0, 59, 97
1, 139700, Note_on_c, 0, 74, 0
1, 139722, Note_on_c, 0, 71, 74
1, 139759, Note_on_c, 0, 71, 0
1, 139759, Control_c, 0, 64, 0
1, 139781, Note_on_c, 0, 60, 109
1, 139781, Note_on_c, 0, 67, 89
1, 139792, Note_on_c, 0, 55, 89
1, 139800, Note_on_c, 0, 59, 0
1, 139806, Note_on_c, 0, 52, 85
1, 139853, Note_on_c, 0, 67, 0
1, 139853, Note_on_c, 0, 72, 92
1, 139882, Note_on_c, 0, 52, 0
1, 139895, Note_on_c, 0, 55, 0
1, 139931, Control_c, 0, 64, 127
1, 139931, Note_on_c, 0, 76, 72
1, 139949, Note_on_c, 0, 72, 0
1, 139963, Note_on_c, 0, 76, 0
1, 139981, Note_on_c, 0, 60, 0
1, 140010, Note_on_c, 0, 79, 96
1, 140066, Note_on_c, 0, 64, 96
1, 140077, Note_on_c, 0, 84, 91
1, 140101, Note_on_c, 0, 79, 0
1, 140143, Note_on_c, 0, 88, 95
1, 140165, Note_on_c, 0, 84, 0
1, 140182, Note_on_c, 0, 64, 0
1, 140182, Control_c, 0, 64, 0
1, 140197, Note_on_c, 0, 91, 97
1, 140200, Note_on_c, 0, 67, 100
1, 140210, Note_on_c, 0, 88, 0
1, 140210, Note_on_c, 0, 62, 83
1, 140219, Note_on_c, 0, 59, 74
1, 140268, Note_on_c, 0, 89, 96
1, 140325, Note_on_c, 0, 62, 0
1, 140335, Note_on_c, 0, 86, 83
1, 140343, Note_on_c, 0, 91, 0
1, 140350, Control_c, 0, 64, 127
1, 140355, Note_on_c, 0, 59, 0
1, 140363, Note_on_c, 0, 67, 0
1, 140377, Note_on_c, 0, 89, 0
1, 140388, Note_on_c, 0, 79, 92
1, 140413, Note_on_c, 0, 86, 0
1, 140428, Note_on_c, 0, 79, 0
1, 140452, Note_on_c, 0, 89, 79
1, 140461, Note_on_c, 0, 67, 80
1, 140464, Note_on_c, 0, 62, 85
1, 140483, Control_c, 0, 64, 0
1, 140491, Note_on_c, 0, 59, 26
1, 140494, Note_on_c, 0, 62, 0
1, 140502, Note_on_c, 0, 67, 0
1, 140514, Note_on_c, 0, 86, 92
1, 140522, Note_on_c, 0, 89, 0
1, 140534, Note_on_c, 0, 59, 0
1, 140545, Note_on_c, 0, 86, 0
1, 140580, Note_on_c, 0, 88, 105
1, 140580, Note_on_c, 0, 60, 103
1, 140641, Note_on_c, 0, 84, 94
1, 140665, Note_on_c, 0, 60, 0
1, 140683, Note_on_c, 0, 88, 0
1, 140697, Note_on_c, 0, 79, 88
1, 140714, Note_on_c, 0, 72, 79
1, 140723, Note_on_c, 0, 64, 61
1, 140728, Note_on_c, 0, 67, 53
1, 140742, Note_on_c, 0, 84, 0
1, 140761, Note_on_c, 0, 64, 0
1, 140761, Note_on_c, 0, 72, 0
1, 140765, Note_on_c, 0, 76, 68
1, 140778, Note_on_c, 0, 79, 0
1, 140778, Note_on_c, 0, 67, 0
1, 140801, Note_on_c, 0, 76, 0
1, 140823, Note_on_c, 0, 84, 69
1, 140834, Note_on_c, 0, 72, 69
1, 140840, Note_on_c, 0, 67, 57
1, 140843, Note_on_c, 0, 64, 65
1, 140868, Note_on_c, 0, 72, 0
1, 140884, Note_on_c, 0, 67, 0
1, 140887, Note_on_c, 0, 64, 0
1, 140896, Note_on_c, 0, 79, 87
1, 140906, Note_on_c, 0, 84, 0
1, 140935, Note_on_c, 0, 79, 0
1, 140953, Note_on_c, 0, 86, 109
1, 140965, Note_on_c, 0, 56, 90
1, 140985, Control_c, 0, 64, 127
1, 140999, Note_on_c, 0, 56, 0
1, 141012, Note_on_c, 0, 83, 110
1, 141034, Control_c, 0, 64, 0
1, 141076, Note_on_c, 0, 77, 71
1, 141080, Note_on_c, 0, 86, 0
1, 141093, Note_on_c, 0, 71, 93
1, 141105, Note_on_c, 0, 62, 70
1, 141108, Note_on_c, 0, 65, 57
1, 141126, Note_on_c, 0, 71, 0
1, 141126, Note_on_c, 0, 83, 0
1, 141141, Note_on_c, 0, 74, 78
1, 141146, Note_on_c, 0, 65, 0
1, 141151, Note_on_c, 0, 62, 0
1, 141165, Note_on_c, 0, 77, 0
1, 141177, Note_on_c, 0, 74, 0
1, 141204, Note_on_c, 0, 83, 88
1, 141213, Note_on_c, 0, 62, 72
1, 141219, Note_on_c, 0, 71, 69
1, 141222, Note_on_c, 0, 65, 44
1, 141252, Note_on_c, 0, 62, 0
1, 141255, Note_on_c, 0, 71, 0
1, 141258, Note_on_c, 0, 77, 61
1, 141261, Note_on_c, 0, 65, 0
1, 141282, Note_on_c, 0, 83, 0
1, 141302, Note_on_c, 0, 77, 0
1, 141325, Note_on_c, 0, 85, 104
1, 141333, Note_on_c, 0, 57, 92
1, 141372, Note_on_c, 0, 57, 0
1, 141386, Note_on_c, 0, 81, 85
1, 141447, Note_on_c, 0, 76, 64
1, 141447, Note_on_c, 0, 69, 72
1, 141452, Note_on_c, 0, 61, 76
1, 141463, Note_on_c, 0, 64, 68
1, 141486, Note_on_c, 0, 85, 0
1, 141494, Note_on_c, 0, 69, 0
1, 141497, Note_on_c, 0, 81, 0
1, 141500, Note_on_c, 0, 61, 0
1, 141503, Note_on_c, 0, 64, 0
1, 141508, Note_on_c, 0, 73, 71
1, 141555, Note_on_c, 0, 76, 0
1, 141569, Note_on_c, 0, 73, 0
1, 141573, Note_on_c, 0, 69, 58
1, 141576, Note_on_c, 0, 81, 51
1, 141592, Note_on_c, 0, 64, 57
1, 141598, Note_on_c, 0, 61, 73
1, 141609, Note_on_c, 0, 69, 0
1, 141631, Note_on_c, 0, 61, 0
1, 141631, Note_on_c, 0, 64, 0
1, 141631, Note_on_c, 0, 76, 50
1, 141679, Note_on_c, 0, 81, 0
1, 141701, Note_on_c, 0, 76, 0
1, 141704, Note_on_c, 0, 54, 109
1, 141704, Note_on_c, 0, 84, 110
1, 141743, Note_on_c, 0, 54, 0
1, 141776, Note_on_c, 0, 81, 63
1, 141812, Note_on_c, 0, 84, 0
1, 141821, Note_on_c, 0, 63, 69
1, 141825, Note_on_c, 0, 75, 70
1, 141825, Note_on_c, 0, 60, 75
1, 141868, Note_on_c, 0, 63, 0
1, 141879, Note_on_c, 0, 81, 0
1, 141884, Note_on_c, 0, 60, 0
1, 141890, Note_on_c, 0, 72, 79
1, 141918, Note_on_c, 0, 75, 0
1, 141954, Note_on_c, 0, 60, 77
1, 141954, Note_on_c, 0, 63, 74
1, 141960, Note_on_c, 0, 81, 49
1, 141965, Note_on_c, 0, 72, 0
1, 141992, Note_on_c, 0, 63, 0
1, 142001, Note_on_c, 0, 60, 0
1, 142015, Note_on_c, 0, 75, 78
1, 142041, Note_on_c, 0, 81, 0
1, 142060, Note_on_c, 0, 75, 0
1, 142077, Note_on_c, 0, 55, 104
1, 142084, Note_on_c, 0, 83, 120
1, 142143, Note_on_c, 0, 79, 94
1, 142162, Note_on_c, 0, 55, 0
1, 142188, Note_on_c, 0, 83, 0
1, 142193, Note_on_c, 0, 62, 76
1, 142196, Note_on_c, 0, 59, 77
1, 142196, Note_on_c, 0, 74, 74
1, 142235, Note_on_c, 0, 59, 0
1, 142235, Note_on_c, 0, 62, 0
1, 142239, Note_on_c, 0, 79, 0
1, 142264, Note_on_c, 0, 71, 78
1, 142288, Note_on_c, 0, 74, 0
1, 142332, Note_on_c, 0, 79, 69
1, 142341, Note_on_c, 0, 71, 0
1, 142349, Note_on_c, 0, 62, 56
1, 142366, Note_on_c, 0, 59, 27
1, 142385, Note_on_c, 0, 74, 68
1, 142391, Note_on_c, 0, 62, 0
1, 142396, Note_on_c, 0, 79, 0
1, 142413, Note_on_c, 0, 59, 0
1, 142427, Note_on_c, 0, 74, 0
1, 142453, Note_on_c, 0, 81, 99
1, 142458, Note_on_c, 0, 51, 101
1, 142511, Note_on_c, 0, 78, 87
1, 142514, Note_on_c, 0, 51, 0
1, 142566, Note_on_c, 0, 81, 0
1, 142566, Note_on_c, 0, 60, 76
1, 142570, Note_on_c, 0, 72, 56
1, 142570, Note_on_c, 0, 57, 71
1, 142612, Note_on_c, 0, 57, 0
1, 142617, Note_on_c, 0, 60, 0
1, 142623, Note_on_c, 0, 78, 0
1, 142636, Note_on_c, 0, 69, 63
1, 142669, Note_on_c, 0, 72, 0
1, 142698, Note_on_c, 0, 78, 55
1, 142706, Note_on_c, 0, 60, 72
1, 142712, Note_on_c, 0, 57, 62
1, 142718, Note_on_c, 0, 69, 0
1, 142753, Note_on_c, 0, 57, 0
1, 142753, Note_on_c, 0, 60, 0
1, 142762, Note_on_c, 0, 72, 49
1, 142784, Note_on_c, 0, 78, 0
1, 142823, Note_on_c, 0, 52, 114
1, 142828, Note_on_c, 0, 79, 102
1, 142835, Note_on_c, 0, 72, 0
1, 142887, Note_on_c, 0, 76, 72
1, 142892, Note_on_c, 0, 52, 0
1, 142935, Note_on_c, 0, 79, 0
1, 142935, Note_on_c, 0, 60, 81
1, 142935, Note_on_c, 0, 55, 86
1, 142951, Note_on_c, 0, 72, 68
1, 142984, Note_on_c, 0, 55, 0
1, 142993, Note_on_c, 0, 60, 0
1, 142998, Note_on_c, 0, 76, 0
1, 143009, Note_on_c, 0, 67, 64
1, 143040, Note_on_c, 0, 72, 0
1, 143073, Note_on_c, 0, 76, 53
1, 143073, Note_on_c, 0, 60, 67
1, 143082, Note_on_c, 0, 55, 85
1, 143099, Note_on_c, 0, 67, 0
1, 143116, Note_on_c, 0, 55, 0
1, 143116, Note_on_c, 0, 60, 0
1, 143133, Note_on_c, 0, 72, 60
1, 143166, Note_on_c, 0, 76, 0
1, 143193, Note_on_c, 0, 72, 0
1, 143205, Note_on_c, 0, 47, 110
1, 143205, Note_on_c, 0, 77, 99
1, 143269, Note_on_c, 0, 74, 85
1, 143275, Note_on_c, 0, 47, 0
1, 143325, Note_on_c, 0, 77, 0
1, 143328, Note_on_c, 0, 56, 78
1, 143335, Note_on_c, 0, 68, 63
1, 143344, Note_on_c, 0, 53, 97
1, 143377, Note_on_c, 0, 74, 0
1, 143396, Note_on_c, 0, 65, 57
1, 143405, Note_on_c, 0, 56, 0
1, 143413, Note_on_c, 0, 53, 0
1, 143427, Note_on_c, 0, 68, 0
1, 143459, Note_on_c, 0, 74, 58
1, 143469, Note_on_c, 0, 56, 65
1, 143486, Note_on_c, 0, 65, 0
1, 143489, Note_on_c, 0, 53, 58
1, 143508, Note_on_c, 0, 52, 49
1, 143531, Note_on_c, 0, 53, 0
1, 143531, Note_on_c, 0, 68, 84
1, 143541, Note_on_c, 0, 74, 0
1, 143545, Note_on_c, 0, 56, 0
1, 143553, Note_on_c, 0, 52, 0
1, 143573, Note_on_c, 0, 68, 0
1, 143592, Note_on_c, 0, 48, 101
1, 143601, Note_on_c, 0, 76, 87
1, 143659, Note_on_c, 0, 72, 79
1, 143690, Note_on_c, 0, 48, 0
1, 143714, Note_on_c, 0, 76, 0
1, 143714, Note_on_c, 0, 67, 76
1, 143718, Note_on_c, 0, 52, 94
1, 143718, Note_on_c, 0, 55, 85
1, 143761, Note_on_c, 0, 52, 0
1, 143761, Note_on_c, 0, 72, 0
1, 143765, Note_on_c, 0, 55, 0
1, 143781, Note_on_c, 0, 64, 60
1, 143804, Note_on_c, 0, 67, 0
1, 143839, Note_on_c, 0, 64, 0
1, 143839, Note_on_c, 0, 72, 48
1, 143843, Note_on_c, 0, 55, 64
1, 143854, Note_on_c, 0, 52, 65
1, 143879, Note_on_c, 0, 55, 0
1, 143890, Note_on_c, 0, 52, 0
1, 143910, Note_on_c, 0, 67, 74
1, 143937, Note_on_c, 0, 72, 0
1, 143963, Note_on_c, 0, 67, 0
1, 143987, Note_on_c, 0, 49, 110
1, 143987, Note_on_c, 0, 64, 100
1, 143990, Note_on_c, 0, 37, 109
1, 144040, Note_on_c, 0, 37, 0
1, 144052, Control_c, 0, 64, 127
1, 144058, Note_on_c, 0, 49, 0
1, 144058, Note_on_c, 0, 67, 80
1, 144077, Control_c, 0, 64, 0
1, 144085, Note_on_c, 0, 64, 0
1, 144112, Note_on_c, 0, 69, 67
1, 144112, Note_on_c, 0, 43, 94
1, 144146, Note_on_c, 0, 67, 0
1, 144161, Note_on_c, 0, 43, 0
1, 144186, Note_on_c, 0, 70, 77
1, 144211, Note_on_c, 0, 69, 0
1, 144253, Note_on_c, 0, 69, 83
1, 144253, Note_on_c, 0, 43, 82
1, 144286, Note_on_c, 0, 43, 0
1, 144308, Note_on_c, 0, 70, 0
1, 144314, Note_on_c, 0, 67, 83
1, 144347, Note_on_c, 0, 69, 0
1, 144363, Note_on_c, 0, 50, 116
1, 144369, Note_on_c, 0, 38, 110
1, 144375, Note_on_c, 0, 62, 102
1, 144411, Note_on_c, 0, 67, 0
1, 144442, Note_on_c, 0, 50, 0
1, 144442, Note_on_c, 0, 38, 0
1, 144455, Note_on_c, 0, 67, 97
1, 144469, Note_on_c, 0, 62, 0
1, 144506, Note_on_c, 0, 69, 79
1, 144506, Note_on_c, 0, 43, 94
1, 144553, Note_on_c, 0, 67, 0
1, 144572, Note_on_c, 0, 70, 78
1, 144587, Note_on_c, 0, 43, 0
1, 144587, Note_on_c, 0, 69, 0
1, 144631, Note_on_c, 0, 69, 87
1, 144634, Note_on_c, 0, 43, 100
1, 144683, Note_on_c, 0, 67, 76
1, 144693, Note_on_c, 0, 70, 0
1, 144709, Note_on_c, 0, 43, 0
1, 144745, Note_on_c, 0, 69, 0
1, 144745, Note_on_c, 0, 52, 119
1, 144745, Note_on_c, 0, 61, 99
1, 144756, Note_on_c, 0, 40, 118
1, 144771, Note_on_c, 0, 67, 0
1, 144817, Note_on_c, 0, 67, 92
1, 144829, Note_on_c, 0, 40, 0
1, 144832, Note_on_c, 0, 52, 0
1, 144856, Note_on_c, 0, 61, 0
1, 144879, Note_on_c, 0, 43, 101
1, 144879, Note_on_c, 0, 69, 79
1, 144934, Note_on_c, 0, 67, 0
1, 144934, Note_on_c, 0, 70, 82
1, 144952, Note_on_c, 0, 43, 0
1, 144980, Note_on_c, 0, 69, 0
1, 145007, Note_on_c, 0, 43, 97
1, 145030, Note_on_c, 0, 69, 81
1, 145077, Note_on_c, 0, 43, 0
1, 145083, Note_on_c, 0, 67, 83
1, 145088, Note_on_c, 0, 70, 0
1, 145118, Note_on_c, 0, 69, 0
1, 145124, Note_on_c, 0, 67, 0
1, 145136, Note_on_c, 0, 50, 121
1, 145144, Note_on_c, 0, 38, 116
1, 145186, Note_on_c, 0, 71, 100
1, 145191, Note_on_c, 0, 38, 0
1, 145191, Note_on_c, 0, 50, 0
1, 145191, Note_on_c, 0, 67, 67
1, 145191, Note_on_c, 0, 62, 104
1, 145191, Note_on_c, 0, 74, 98
1, 145219, Note_on_c, 0, 74, 0
1, 145258, Note_on_c, 0, 49, 102
1, 145261, Note_on_c, 0, 62, 0
1, 145268, Note_on_c, 0, 37, 102
1, 145285, Note_on_c, 0, 71, 0
1, 145330, Note_on_c, 0, 73, 83
1, 145330, Note_on_c, 0, 61, 94
1, 145335, Note_on_c, 0, 37, 0
1, 145338, Note_on_c, 0, 67, 0
1, 145341, Note_on_c, 0, 49, 0
1, 145392, Note_on_c, 0, 61, 0
1, 145396, Note_on_c, 0, 50, 111
1, 145396, Note_on_c, 0, 38, 110
1, 145411, Note_on_c, 0, 73, 0
1, 145428, Note_on_c, 0, 38, 0
1, 145438, Note_on_c, 0, 50, 0
1, 145467, Note_on_c, 0, 62, 55
1, 145470, Note_on_c, 0, 74, 66
1, 145505, Note_on_c, 0, 74, 0
1, 145511, Note_on_c, 0, 62, 0
1, 145523, Note_on_c, 0, 54, 117
1, 145530, Note_on_c, 0, 42, 103
1, 145581, Note_on_c, 0, 42, 0
1, 145581, Note_on_c, 0, 66, 90
1, 145584, Note_on_c, 0, 54, 0
1, 145584, Note_on_c, 0, 78, 95
1, 145619, Note_on_c, 0, 78, 0
1, 145623, Note_on_c, 0, 66, 0
1, 145653, Note_on_c, 0, 55, 115
1, 145653, Note_on_c, 0, 43, 109
1, 145681, Note_on_c, 0, 43, 0
1, 145698, Note_on_c, 0, 55, 0
1, 145718, Note_on_c, 0, 79, 93
1, 145721, Note_on_c, 0, 67, 72
1, 145750, Note_on_c, 0, 79, 0
1, 145760, Note_on_c, 0, 67, 0
1, 145771, Note_on_c, 0, 58, 108
1, 145776, Note_on_c, 0, 46, 106
1, 145828, Note_on_c, 0, 46, 0
1, 145828, Note_on_c, 0, 70, 90
1, 145828, Note_on_c, 0, 82, 93
1, 145835, Note_on_c, 0, 58, 0
1, 145865, Note_on_c, 0, 82, 0
1, 145870, Note_on_c, 0, 70, 0
1, 145904, Note_on_c, 0, 59, 121
1, 145904, Note_on_c, 0, 47, 117
1, 145960, Note_on_c, 0, 71, 98
1, 145964, Note_on_c, 0, 47, 0
1, 145964, Note_on_c, 0, 83, 100
1, 145970, Note_on_c, 0, 59, 0
1, 145991, Note_on_c, 0, 83, 0
1, 145991, Note_on_c, 0, 71, 0
1, 146024, Note_on_c, 0, 54, 115
1, 146029, Note_on_c, 0, 42, 109
1, 146082, Note_on_c, 0, 42, 0
1, 146082, Note_on_c, 0, 54, 0
1, 146097, Note_on_c, 0, 66, 87
1, 146101, Note_on_c, 0, 78, 87
1, 146132, Note_on_c, 0, 78, 0
1, 146132, Note_on_c, 0, 66, 0
1, 146154, Note_on_c, 0, 55, 117
1, 146154, Note_on_c, 0, 43, 113
1, 146183, Note_on_c, 0, 43, 0
1, 146210, Note_on_c, 0, 55, 0
1, 146222, Note_on_c, 0, 67, 76
1, 146225, Note_on_c, 0, 79, 83
1, 146260, Note_on_c, 0, 79, 0
1, 146260, Note_on_c, 0, 67, 0
1, 146271, Note_on_c, 0, 58, 111
1, 146277, Note_on_c, 0, 46, 106
1, 146333, Note_on_c, 0, 46, 0
1, 146333, Note_on_c, 0, 58, 0
1, 146333, Note_on_c, 0, 70, 97
1, 146333, Note_on_c, 0, 82, 95
1, 146374, Note_on_c, 0, 70, 0
1, 146377, Note_on_c, 0, 82, 0
1, 146400, Note_on_c, 0, 59, 115
1, 146400, Note_on_c, 0, 47, 109
1, 146425, Note_on_c, 0, 47, 0
1, 146439, Note_on_c, 0, 59, 0
1, 146464, Note_on_c, 0, 71, 102
1, 146467, Note_on_c, 0, 83, 118
1, 146491, Note_on_c, 0, 83, 0
1, 146491, Note_on_c, 0, 71, 0
1, 146514, Note_on_c, 0, 61, 120
1, 146522, Note_on_c, 0, 49, 112
1, 146572, Note_on_c, 0, 49, 0
1, 146583, Note_on_c, 0, 73, 95
1, 146583, Note_on_c, 0, 85, 100
1, 146589, Note_on_c, 0, 61, 0
1, 146612, Note_on_c, 0, 85, 0
1, 146620, Note_on_c, 0, 73, 0
1, 146643, Note_on_c, 0, 62, 122
1, 146646, Note_on_c, 0, 50, 117
1, 146709, Note_on_c, 0, 74, 90
1, 146712, Note_on_c, 0, 50, 0
1, 146712, Note_on_c, 0, 86, 84
1, 146723, Note_on_c, 0, 62, 0
1, 146737, Note_on_c, 0, 74, 0
1, 146743, Note_on_c, 0, 86, 0
1, 146767, Note_on_c, 0, 58, 104
1, 146771, Note_on_c, 0, 46, 105
1, 146809, Note_on_c, 0, 46, 0
1, 146834, Note_on_c, 0, 70, 90
1, 146837, Note_on_c, 0, 82, 79
1, 146842, Note_on_c, 0, 58, 0
1, 146865, Note_on_c, 0, 70, 0
1, 146873, Note_on_c, 0, 82, 0
1, 146888, Note_on_c, 0, 59, 111
1, 146888, Note_on_c, 0, 47, 106
1, 146927, Note_on_c, 0, 59, 0
1, 146943, Note_on_c, 0, 47, 0
1, 146957, Note_on_c, 0, 83, 109
1, 146957, Note_on_c, 0, 71, 93
1, 146982, Note_on_c, 0, 83, 0
1, 146993, Note_on_c, 0, 71, 0
1, 147016, Note_on_c, 0, 54, 115
1, 147021, Note_on_c, 0, 42, 106
1, 147060, Note_on_c, 0, 42, 0
1, 147079, Note_on_c, 0, 54, 0
1, 147079, Note_on_c, 0, 66, 95
1, 147082, Note_on_c, 0, 78, 93
1, 147122, Note_on_c, 0, 78, 0
1, 147143, Note_on_c, 0, 66, 0
1, 147143, Note_on_c, 0, 55, 115
1, 147147, Note_on_c, 0, 43, 109
1, 147213, Note_on_c, 0, 43, 0
1, 147213, Note_on_c, 0, 55, 0
1, 147213, Note_on_c, 0, 67, 98
1, 147213, Note_on_c, 0, 79, 102
1, 147242, Note_on_c, 0, 79, 0
1, 147247, Note_on_c, 0, 67, 0
1, 147286, Note_on_c, 0, 49, 108
1, 147290, Note_on_c, 0, 37, 109
1, 147350, Note_on_c, 0, 37, 0
1, 147353, Note_on_c, 0, 61, 101
1, 147353, Note_on_c, 0, 73, 91
1, 147359, Note_on_c, 0, 49, 0
1, 147392, Note_on_c, 0, 73, 0
1, 147400, Note_on_c, 0, 61, 0
1, 147455, Note_on_c, 0, 50, 118
1, 147455, Note_on_c, 0, 74, 115
1, 147455, Note_on_c, 0, 38, 117
1, 147459, Note_on_c, 0, 62, 114
1, 147489, Note_on_c, 0, 38, 0
1, 147517, Note_on_c, 0, 62, 0
1, 147517, Control_c, 0, 64, 127
1, 147523, Note_on_c, 0, 50, 0
1, 147548, Note_on_c, 0, 74, 0
1, 147637, Control_c, 0, 64, 0
1, 147859, Note_on_c, 0, 78, 106
1, 147863, Note_on_c, 0, 69, 98
1, 147863, Note_on_c, 0, 74, 106
1, 147863, Note_on_c, 0, 62, 109
1, 147866, Note_on_c, 0, 72, 101
1, 147871, Note_on_c, 0, 50, 87
1, 147876, Note_on_c, 0, 57, 78
1, 147876, Note_on_c, 0, 54, 84
1, 147909, Note_on_c, 0, 69, 0
1, 147912, Note_on_c, 0, 62, 0
1, 147921, Note_on_c, 0, 57, 0
1, 147935, Note_on_c, 0, 50, 0
1, 147938, Note_on_c, 0, 54, 0
1, 147938, Note_on_c, 0, 74, 0
1, 147946, Note_on_c, 0, 78, 0
1, 147946, Note_on_c, 0, 72, 0
1, 147946, Control_c, 0, 64, 127
1, 148116, Control_c, 0, 64, 0
1, 148314, Note_on_c, 0, 79, 115
1, 148314, Note_on_c, 0, 67, 107
1, 148317, Note_on_c, 0, 71, 110
1, 148317, Note_on_c, 0, 74, 109
1, 148322, Note_on_c, 0, 55, 114
1, 148322, Note_on_c, 0, 50, 107
1, 148328, Note_on_c, 0, 47, 93
1, 148328, Note_on_c, 0, 43, 100
1, 148359, Note_on_c, 0, 50, 0
1, 148375, Note_on_c, 0, 47, 0
1, 148389, Note_on_c, 0, 43, 0
1, 148389, Note_on_c, 0, 55, 0
1, 148416, Control_c, 0, 64, 127
1, 148444, Note_on_c, 0, 67, 0
1, 148453, Note_on_c, 0, 74, 0
1, 148459, Note_on_c, 0, 79, 0
1, 148475, Note_on_c, 0, 71, 0
1, 148595, Control_c, 0, 64, 0
1, 148668, Note_on_c, 0, 74, 71
1, 148703, Note_on_c, 0, 74, 0
1, 148703, Note_on_c, 0, 73, 71
1, 148762, Note_on_c, 0, 74, 72
1, 148790, Note_on_c, 0, 73, 0
1, 148841, Note_on_c, 0, 74, 0
1, 148915, Note_on_c, 0, 67, 70
1, 148954, Note_on_c, 0, 67, 0
1, 149058, Note_on_c, 0, 62, 47
1, 149089, Note_on_c, 0, 61, 63
1, 149100, Note_on_c, 0, 62, 0
1, 149147, Note_on_c, 0, 61, 0
1, 149174, Note_on_c, 0, 62, 44
1, 149231, Note_on_c, 0, 62, 0
1, 149339, Note_on_c, 0, 55, 50
1, 149398, Note_on_c, 0, 55, 0
1, 149498, Note_on_c, 0, 62, 61
1, 149748, Note_on_c, 0, 67, 66
1, 149765, Note_on_c, 0, 59, 40
1, 149770, Note_on_c, 0, 43, 34
1, 149773, Note_on_c, 0, 50, 36
1, 149802, Note_on_c, 0, 62, 0
1, 150103, Note_on_c, 0, 69, 57
1, 150138, Note_on_c, 0, 67, 0
1, 150331, Note_on_c, 0, 67, 69
1, 150334, Note_on_c, 0, 43, 0
1, 150364, Note_on_c, 0, 38, 42
1, 150369, Note_on_c, 0, 69, 0
1, 150586, Control_c, 0, 64, 127
1, 150802, Note_on_c, 0, 59, 0
1, 150816, Note_on_c, 0, 67, 0
1, 150816, Note_on_c, 0, 62, 48
1, 150862, Note_on_c, 0, 62, 0
1, 150873, Note_on_c, 0, 61, 52
1, 150905, Note_on_c, 0, 50, 0
1, 150924, Note_on_c, 0, 62, 64
1, 150924, Note_on_c, 0, 66, 47
1, 150943, Note_on_c, 0, 61, 0
1, 150943, Note_on_c, 0, 38, 0
1, 150943, Control_c, 0, 64, 0
1, 151032, Note_on_c, 0, 62, 0
1, 151089, Note_on_c, 0, 57, 56
1, 151155, Note_on_c, 0, 57, 0
1, 151222, Note_on_c, 0, 50, 73
1, 151266, Note_on_c, 0, 50, 0
1, 151278, Note_on_c, 0, 49, 67
1, 151320, Note_on_c, 0, 49, 0
1, 151337, Note_on_c, 0, 50, 62
1, 151384, Note_on_c, 0, 50, 0
1, 151439, Note_on_c, 0, 66, 0
1, 151522, Note_on_c, 0, 38, 68
1, 151559, Note_on_c, 0, 38, 0
1, 151699, Note_on_c, 0, 62, 83
1, 151940, Note_on_c, 0, 69, 77
1, 151944, Note_on_c, 0, 60, 60
1, 151948, Note_on_c, 0, 66, 59
1, 151968, Note_on_c, 0, 62, 0
1, 151968, Note_on_c, 0, 50, 56
1, 152334, Note_on_c, 0, 71, 85
1, 152344, Note_on_c, 0, 69, 0
1, 152442, Control_c, 0, 64, 127
1, 152459, Note_on_c, 0, 60, 0
1, 152585, Control_c, 0, 64, 0
1, 152596, Note_on_c, 0, 69, 63
1, 152621, Note_on_c, 0, 59, 25
1, 152631, Note_on_c, 0, 71, 0
1, 152631, Note_on_c, 0, 38, 41
1, 152713, Note_on_c, 0, 66, 0
1, 152731, Note_on_c, 0, 50, 0
1, 152862, Control_c, 0, 64, 127
1, 152974, Note_on_c, 0, 38, 0
1, 153000, Note_on_c, 0, 59, 0
1, 153014, Note_on_c, 0, 65, 41
1, 153064, Note_on_c, 0, 65, 0
1, 153077, Note_on_c, 0, 64, 48
1, 153102, Note_on_c, 0, 69, 0
1, 153102, Control_c, 0, 64, 0
1, 153108, Note_on_c, 0, 68, 53
1, 153121, Note_on_c, 0, 64, 0
1, 153136, Note_on_c, 0, 65, 55
1, 153188, Note_on_c, 0, 65, 0
1, 153281, Note_on_c, 0, 59, 60
1, 153333, Note_on_c, 0, 59, 0
1, 153442, Note_on_c, 0, 50, 57
1, 153487, Note_on_c, 0, 50, 0
1, 153487, Note_on_c, 0, 49, 73
1, 153525, Note_on_c, 0, 49, 0
1, 153550, Note_on_c, 0, 50, 69
1, 153598, Note_on_c, 0, 50, 0
1, 153598, Note_on_c, 0, 68, 0
1, 153720, Note_on_c, 0, 38, 88
1, 153760, Note_on_c, 0, 38, 0
1, 153876, Note_on_c, 0, 62, 89
1, 154091, Note_on_c, 0, 71, 100
1, 154099, Note_on_c, 0, 68, 66
1, 154108, Note_on_c, 0, 50, 48
1, 154111, Note_on_c, 0, 65, 43
1, 154117, Note_on_c, 0, 62, 0
1, 154484, Note_on_c, 0, 72, 82
1, 154543, Note_on_c, 0, 71, 0
1, 154543, Note_on_c, 0, 68, 0
1, 154556, Note_on_c, 0, 65, 0
1, 154712, Note_on_c, 0, 71, 93
1, 154730, Note_on_c, 0, 48, 41
1, 154741, Note_on_c, 0, 50, 0
1, 154837, Note_on_c, 0, 72, 0
1, 154900, Note_on_c, 0, 57, 57
1, 154903, Note_on_c, 0, 52, 71
1, 154941, Note_on_c, 0, 52, 0
1, 154948, Note_on_c, 0, 57, 0
1, 155067, Note_on_c, 0, 57, 40
1, 155081, Note_on_c, 0, 52, 55
1, 155114, Note_on_c, 0, 57, 0
1, 155122, Note_on_c, 0, 52, 0
1, 155242, Note_on_c, 0, 69, 60
1, 155248, Note_on_c, 0, 57, 51
1, 155253, Note_on_c, 0, 52, 47
1, 155290, Note_on_c, 0, 71, 0
1, 155470, Note_on_c, 0, 76, 81
1, 155493, Note_on_c, 0, 69, 0
1, 155595, Control_c, 0, 64, 127
1, 155651, Note_on_c, 0, 72, 87
1, 155674, Note_on_c, 0, 57, 0
1, 155682, Note_on_c, 0, 48, 0
1, 155707, Note_on_c, 0, 52, 0
1, 155751, Control_c, 0, 64, 0
1, 155776, Note_on_c, 0, 76, 0
1, 155830, Note_on_c, 0, 71, 90
1, 155838, Note_on_c, 0, 48, 49
1, 155924, Note_on_c, 0, 72, 0
1, 155996, Note_on_c, 0, 57, 52
1, 156008, Note_on_c, 0, 52, 55
1, 156046, Note_on_c, 0, 57, 0
1, 156049, Note_on_c, 0, 52, 0
1, 156177, Note_on_c, 0, 57, 46
1, 156192, Note_on_c, 0, 52, 54
1, 156230, Note_on_c, 0, 57, 0
1, 156234, Note_on_c, 0, 52, 0
1, 156353, Note_on_c, 0, 69, 51
1, 156362, Note_on_c, 0, 57, 50
1, 156376, Note_on_c, 0, 71, 0
1, 156384, Note_on_c, 0, 52, 63
1, 156557, Note_on_c, 0, 76, 68
1, 156562, Note_on_c, 0, 69, 0
1, 156626, Control_c, 0, 64, 127
1, 156691, Note_on_c, 0, 52, 0
1, 156724, Note_on_c, 0, 48, 0
1, 156732, Note_on_c, 0, 72, 79
1, 156762, Note_on_c, 0, 57, 0
1, 156772, Note_on_c, 0, 76, 0
1, 156877, Control_c, 0, 64, 0
1, 156921, Note_on_c, 0, 48, 48
1, 156938, Note_on_c, 0, 71, 84
1, 156997, Note_on_c, 0, 72, 0
1, 157117, Note_on_c, 0, 64, 52
1, 157117, Note_on_c, 0, 55, 51
1, 157181, Note_on_c, 0, 64, 0
1, 157189, Note_on_c, 0, 55, 0
1, 157225, Control_c, 0, 64, 127
1, 157333, Note_on_c, 0, 70, 52
1, 157333, Control_c, 0, 64, 0
1, 157367, Note_on_c, 0, 55, 23
1, 157376, Note_on_c, 0, 64, 12
1, 157389, Note_on_c, 0, 71, 0
1, 157426, Note_on_c, 0, 64, 0
1, 157431, Note_on_c, 0, 55, 0
1, 157476, Control_c, 0, 64, 127
1, 157524, Control_c, 0, 64, 0
1, 157581, Note_on_c, 0, 55, 50
1, 157587, Note_on_c, 0, 64, 35
1, 157659, Note_on_c, 0, 70, 0
1, 157668, Control_c, 0, 64, 127
1, 157782, Note_on_c, 0, 76, 49
1, 157791, Note_on_c, 0, 55, 0
1, 157805, Note_on_c, 0, 64, 0
1, 157871, Note_on_c, 0, 48, 0
1, 157999, Note_on_c, 0, 72, 53
1, 158025, Note_on_c, 0, 76, 0
1, 158275, Note_on_c, 0, 71, 57
1, 158278, Note_on_c, 0, 48, 26
1, 158322, Note_on_c, 0, 72, 0
1, 158471, Control_c, 0, 64, 0
1, 158554, Note_on_c, 0, 64, 25
1, 158570, Note_on_c, 0, 55, 27
1, 158626, Control_c, 0, 64, 127
1, 158649, Note_on_c, 0, 64, 0
1, 158659, Note_on_c, 0, 55, 0
1, 158888, Note_on_c, 0, 64, 22
1, 158897, Note_on_c, 0, 55, 18
1, 158957, Note_on_c, 0, 55, 0
1, 158957, Note_on_c, 0, 64, 0
1, 159297, Note_on_c, 0, 70, 28
1, 159309, Control_c, 0, 64, 0
1, 159323, Note_on_c, 0, 64, 22
1, 159337, Note_on_c, 0, 55, 30
1, 159346, Note_on_c, 0, 71, 0
1, 159476, Note_on_c, 0, 55, 0
1, 159490, Control_c, 0, 64, 127
1, 159531, Note_on_c, 0, 64, 0
1, 159545, Note_on_c, 0, 70, 0
1, 159676, Note_on_c, 0, 48, 0
1, 159850, Note_on_c, 0, 88, 58
1, 159889, Note_on_c, 0, 88, 0
1, 159910, Note_on_c, 0, 87, 57
1, 159933, Control_c, 0, 64, 0
1, 159964, Note_on_c, 0, 88, 63
1, 159967, Note_on_c, 0, 47, 65
1, 159967, Note_on_c, 0, 35, 78
1, 159994, Note_on_c, 0, 87, 0
1, 159999, Note_on_c, 0, 35, 0
1, 160011, Note_on_c, 0, 47, 0
1, 160033, Note_on_c, 0, 88, 0
1, 160111, Note_on_c, 0, 83, 95
1, 160119, Note_on_c, 0, 79, 62
1, 160144, Note_on_c, 0, 83, 0
1, 160158, Note_on_c, 0, 79, 0
1, 160228, Note_on_c, 0, 76, 67
1, 160240, Note_on_c, 0, 81, 72
1, 160240, Note_on_c, 0, 84, 77
1, 160264, Note_on_c, 0, 76, 0
1, 160273, Note_on_c, 0, 81, 0
1, 160273, Note_on_c, 0, 75, 71
1, 160289, Note_on_c, 0, 84, 0
1, 160315, Note_on_c, 0, 75, 0
1, 160336, Note_on_c, 0, 76, 57
1, 160345, Note_on_c, 0, 83, 113
1, 160345, Note_on_c, 0, 79, 87
1, 160371, Note_on_c, 0, 83, 0
1, 160371, Note_on_c, 0, 76, 0
1, 160381, Note_on_c, 0, 79, 0
1, 160487, Note_on_c, 0, 71, 61
1, 160487, Note_on_c, 0, 79, 63
1, 160501, Note_on_c, 0, 76, 47
1, 160531, Note_on_c, 0, 79, 0
1, 160534, Note_on_c, 0, 71, 0
1, 160548, Note_on_c, 0, 76, 0
1, 160615, Note_on_c, 0, 76, 44
1, 160615, Note_on_c, 0, 81, 77
1, 160626, Note_on_c, 0, 72, 65
1, 160649, Note_on_c, 0, 81, 0
1, 160660, Note_on_c, 0, 76, 0
1, 160660, Note_on_c, 0, 75, 70
1, 160665, Note_on_c, 0, 72, 0
1, 160701, Note_on_c, 0, 75, 0
1, 160715, Note_on_c, 0, 76, 69
1, 160722, Note_on_c, 0, 71, 72
1, 160722, Note_on_c, 0, 79, 91
1, 160760, Note_on_c, 0, 79, 0
1, 160760, Note_on_c, 0, 71, 0
1, 160760, Note_on_c, 0, 76, 0
1, 160860, Note_on_c, 0, 71, 59
1, 160866, Note_on_c, 0, 76, 57
1, 160866, Note_on_c, 0, 67, 63
1, 160902, Note_on_c, 0, 76, 0
1, 160902, Note_on_c, 0, 71, 0
1, 160906, Note_on_c, 0, 67, 0
1, 160977, Note_on_c, 0, 78, 79
1, 160988, Note_on_c, 0, 69, 59
1, 160999, Note_on_c, 0, 64, 40
1, 160999, Note_on_c, 0, 72, 43
1, 161009, Note_on_c, 0, 78, 0
1, 161027, Note_on_c, 0, 63, 63
1, 161031, Note_on_c, 0, 69, 0
1, 161045, Note_on_c, 0, 64, 0
1, 161053, Note_on_c, 0, 72, 0
1, 161083, Note_on_c, 0, 63, 0
1, 161092, Note_on_c, 0, 67, 77
1, 161092, Note_on_c, 0, 71, 77
1, 161095, Note_on_c, 0, 76, 66
1, 161112, Note_on_c, 0, 64, 52
1, 161133, Note_on_c, 0, 76, 0
1, 161133, Note_on_c, 0, 67, 0
1, 161133, Note_on_c, 0, 71, 0
1, 161153, Note_on_c, 0, 64, 0
1, 161226, Note_on_c, 0, 71, 58
1, 161239, Note_on_c, 0, 59, 43
1, 161259, Note_on_c, 0, 67, 27
1, 161268, Note_on_c, 0, 71, 0
1, 161287, Note_on_c, 0, 59, 0
1, 161306, Note_on_c, 0, 67, 0
1, 161360, Note_on_c, 0, 67, 66
1, 161370, Note_on_c, 0, 71, 87
1, 161385, Note_on_c, 0, 64, 54
1, 161403, Note_on_c, 0, 71, 0
1, 161414, Note_on_c, 0, 70, 78
1, 161428, Note_on_c, 0, 64, 0
1, 161428, Note_on_c, 0, 67, 0
1, 161459, Note_on_c, 0, 70, 0
1, 161474, Note_on_c, 0, 71, 67
1, 161474, Note_on_c, 0, 66, 50
1, 161485, Note_on_c, 0, 63, 59
1, 161521, Note_on_c, 0, 66, 0
1, 161526, Note_on_c, 0, 63, 0
1, 161535, Note_on_c, 0, 71, 0
1, 161613, Note_on_c, 0, 75, 68
1, 161626, Note_on_c, 0, 59, 48
1, 161651, Note_on_c, 0, 75, 0
1, 161671, Note_on_c, 0, 59, 0
1, 161730, Note_on_c, 0, 71, 81
1, 161752, Note_on_c, 0, 67, 28
1, 161758, Note_on_c, 0, 64, 42
1, 161766, Note_on_c, 0, 71, 0
1, 161775, Note_on_c, 0, 70, 68
1, 161811, Note_on_c, 0, 64, 0
1, 161814, Note_on_c, 0, 70, 0
1, 161830, Note_on_c, 0, 67, 0
1, 161830, Note_on_c, 0, 71, 72
1, 161850, Note_on_c, 0, 66, 44
1, 161855, Note_on_c, 0, 63, 53
1, 161900, Note_on_c, 0, 63, 0
1, 161900, Note_on_c, 0, 66, 0
1, 161908, Note_on_c, 0, 71, 0
1, 161974, Note_on_c, 0, 78, 73
1, 161988, Note_on_c, 0, 59, 60
1, 162008, Note_on_c, 0, 78, 0
1, 162025, Note_on_c, 0, 59, 0
1, 162100, Note_on_c, 0, 71, 77
1, 162111, Note_on_c, 0, 67, 46
1, 162116, Note_on_c, 0, 64, 59
1, 162136, Note_on_c, 0, 71, 0
1, 162136, Note_on_c, 0, 70, 74
1, 162170, Note_on_c, 0, 64, 0
1, 162190, Note_on_c, 0, 67, 0
1, 162200, Note_on_c, 0, 70, 0
1, 162204, Note_on_c, 0, 71, 66
1, 162209, Note_on_c, 0, 63, 49
1, 162217, Note_on_c, 0, 66, 42
1, 162248, Note_on_c, 0, 71, 0
1, 162256, Note_on_c, 0, 63, 0
1, 162281, Note_on_c, 0, 66, 0
1, 162337, Note_on_c, 0, 83, 72
1, 162340, Note_on_c, 0, 75, 51
1, 162350, Note_on_c, 0, 59, 39
1, 162378, Note_on_c, 0, 83, 0
1, 162385, Note_on_c, 0, 75, 0
1, 162403, Note_on_c, 0, 59, 0
1, 162468, Note_on_c, 0, 76, 59
1, 162468, Note_on_c, 0, 79, 65
1, 162474, Note_on_c, 0, 70, 49
1, 162505, Note_on_c, 0, 76, 0
1, 162510, Note_on_c, 0, 79, 0
1, 162521, Note_on_c, 0, 70, 0
1, 162599, Note_on_c, 0, 71, 65
1, 162602, Note_on_c, 0, 75, 66
1, 162602, Note_on_c, 0, 78, 69
1, 162641, Note_on_c, 0, 71, 0
1, 162641, Control_c, 0, 64, 127
1, 162646, Note_on_c, 0, 75, 0
1, 162661, Note_on_c, 0, 78, 0
1, 162741, Note_on_c, 0, 59, 54
1, 162749, Control_c, 0, 64, 0
1, 162780, Note_on_c, 0, 59, 0
1, 162885, Note_on_c, 0, 88, 63
1, 162922, Note_on_c, 0, 88, 0
1, 162927, Note_on_c, 0, 87, 68
1, 162988, Note_on_c, 0, 88, 62
1, 162994, Note_on_c, 0, 40, 82
1, 162998, Note_on_c, 0, 52, 73
1, 163025, Note_on_c, 0, 40, 0
1, 163030, Note_on_c, 0, 52, 0
1, 163030, Note_on_c, 0, 87, 0
1, 163037, Control_c, 0, 64, 127
1, 163067, Note_on_c, 0, 88, 0
1, 163109, Control_c, 0, 64, 0
1, 163136, Note_on_c, 0, 83, 93
1, 163162, Note_on_c, 0, 79, 26
1, 163169, Note_on_c, 0, 83, 0
1, 163204, Note_on_c, 0, 79, 0
1, 163253, Note_on_c, 0, 76, 59
1, 163256, Note_on_c, 0, 81, 80
1, 163256, Note_on_c, 0, 84, 81
1, 163289, Note_on_c, 0, 81, 0
1, 163293, Note_on_c, 0, 76, 0
1, 163298, Note_on_c, 0, 84, 0
1, 163304, Note_on_c, 0, 75, 69
1, 163354, Note_on_c, 0, 75, 0
1, 163359, Note_on_c, 0, 83, 112
1, 163359, Note_on_c, 0, 76, 67
1, 163363, Note_on_c, 0, 79, 90
1, 163385, Note_on_c, 0, 83, 0
1, 163395, Note_on_c, 0, 79, 0
1, 163395, Note_on_c, 0, 76, 0
1, 163501, Note_on_c, 0, 71, 73
1, 163512, Note_on_c, 0, 79, 62
1, 163520, Note_on_c, 0, 76, 46
1, 163540, Note_on_c, 0, 71, 0
1, 163557, Note_on_c, 0, 79, 0
1, 163569, Note_on_c, 0, 76, 0
1, 163619, Note_on_c, 0, 76, 72
1, 163629, Note_on_c, 0, 72, 75
1, 163629, Note_on_c, 0, 81, 50
1, 163666, Note_on_c, 0, 72, 0
1, 163679, Note_on_c, 0, 81, 0
1, 163693, Note_on_c, 0, 75, 67
1, 163719, Note_on_c, 0, 79, 98
1, 163724, Note_on_c, 0, 71, 88
1, 163727, Note_on_c, 0, 75, 0
1, 163755, Note_on_c, 0, 71, 0
1, 163774, Note_on_c, 0, 79, 0
1, 163791, Note_on_c, 0, 76, 0
1, 163850, Note_on_c, 0, 67, 70
1, 163855, Note_on_c, 0, 76, 66
1, 163860, Note_on_c, 0, 71, 70
1, 163888, Note_on_c, 0, 67, 0
1, 163897, Note_on_c, 0, 71, 0
1, 163897, Note_on_c, 0, 76, 0
1, 163972, Note_on_c, 0, 78, 85
1, 163983, Note_on_c, 0, 69, 67
1, 163989, Note_on_c, 0, 64, 66
1, 163989, Note_on_c, 0, 72, 58
1, 164003, Note_on_c, 0, 78, 0
1, 164023, Note_on_c, 0, 69, 0
1, 164023, Note_on_c, 0, 64, 0
1, 164028, Note_on_c, 0, 72, 0
1, 164028, Note_on_c, 0, 63, 73
1, 164059, Note_on_c, 0, 63, 0
1, 164089, Note_on_c, 0, 71, 97
1, 164094, Note_on_c, 0, 76, 86
1, 164094, Note_on_c, 0, 67, 90
1, 164094, Note_on_c, 0, 64, 74
1, 164129, Note_on_c, 0, 67, 0
1, 164132, Note_on_c, 0, 71, 0
1, 164140, Note_on_c, 0, 64, 0
1, 164186, Note_on_c, 0, 76, 0
1, 164236, Note_on_c, 0, 52, 100
1, 164264, Note_on_c, 0, 52, 0
1, 164370, Note_on_c, 0, 81, 86
1, 164416, Note_on_c, 0, 81, 0
1, 164423, Note_on_c, 0, 80, 85
1, 164471, Note_on_c, 0, 81, 98
1, 164477, Note_on_c, 0, 33, 84
1, 164477, Note_on_c, 0, 45, 78
1, 164513, Note_on_c, 0, 33, 0
1, 164518, Note_on_c, 0, 45, 0
1, 164518, Note_on_c, 0, 80, 0
1, 164523, Control_c, 0, 64, 127
1, 164533, Note_on_c, 0, 81, 0
1, 164558, Control_c, 0, 64, 0
1, 164610, Note_on_c, 0, 76, 76
1, 164613, Note_on_c, 0, 73, 70
1, 164650, Note_on_c, 0, 73, 0
1, 164702, Note_on_c, 0, 76, 0
1, 164738, Note_on_c, 0, 78, 76
1, 164744, Note_on_c, 0, 69, 61
1, 164747, Note_on_c, 0, 74, 70
1, 164780, Note_on_c, 0, 78, 0
1, 164783, Note_on_c, 0, 74, 0
1, 164794, Note_on_c, 0, 69, 0
1, 164813, Note_on_c, 0, 68, 57
1, 164847, Note_on_c, 0, 76, 80
1, 164847, Note_on_c, 0, 73, 73
1, 164861, Note_on_c, 0, 68, 0
1, 164861, Note_on_c, 0, 69, 61
1, 164880, Note_on_c, 0, 76, 0
1, 164888, Note_on_c, 0, 73, 0
1, 164900, Note_on_c, 0, 69, 0
1, 164983, Note_on_c, 0, 73, 69
1, 164991, Note_on_c, 0, 64, 68
1, 164994, Note_on_c, 0, 69, 49
1, 165026, Note_on_c, 0, 64, 0
1, 165026, Note_on_c, 0, 73, 0
1, 165039, Note_on_c, 0, 69, 0
1, 165109, Note_on_c, 0, 69, 41
1, 165122, Note_on_c, 0, 74, 72
1, 165128, Note_on_c, 0, 66, 57
1, 165158, Note_on_c, 0, 74, 0
1, 165162, Note_on_c, 0, 68, 71
1, 165167, Note_on_c, 0, 66, 0
1, 165173, Note_on_c, 0, 69, 0
1, 165228, Note_on_c, 0, 68, 0
1, 165234, Note_on_c, 0, 64, 66
1, 165234, Note_on_c, 0, 69, 61
1, 165234, Note_on_c, 0, 73, 82
1, 165271, Note_on_c, 0, 64, 0
1, 165274, Note_on_c, 0, 73, 0
1, 165274, Note_on_c, 0, 69, 0
1, 165368, Note_on_c, 0, 61, 62
1, 165374, Note_on_c, 0, 64, 68
1, 165410, Note_on_c, 0, 64, 0
1, 165410, Note_on_c, 0, 61, 0
1, 165494, Note_on_c, 0, 57, 64
1, 165503, Note_on_c, 0, 65, 19
1, 165507, Note_on_c, 0, 71, 63
1, 165507, Note_on_c, 0, 62, 63
1, 165532, Note_on_c, 0, 57, 0
1, 165546, Note_on_c, 0, 65, 0
1, 165546, Note_on_c, 0, 62, 0
1, 165549, Note_on_c, 0, 71, 0
1, 165566, Note_on_c, 0, 56, 66
1, 165611, Note_on_c, 0, 56, 0
1, 165627, Note_on_c, 0, 69, 67
1, 165627, Note_on_c, 0, 61, 71
1, 165643, Note_on_c, 0, 64, 66
1, 165649, Note_on_c, 0, 57, 76
1, 165680, Note_on_c, 0, 61, 0
1, 165686, Note_on_c, 0, 57, 0
1, 165689, Note_on_c, 0, 69, 0
1, 165697, Note_on_c, 0, 64, 0
1, 165758, Note_on_c, 0, 45, 77
1, 165836, Note_on_c, 0, 45, 0
1, 165898, Note_on_c, 0, 50, 75
1, 165911, Note_on_c, 0, 62, 78
1, 165944, Note_on_c, 0, 50, 0
1, 165950, Note_on_c, 0, 49, 70
1, 165958, Note_on_c, 0, 61, 77
1, 165962, Note_on_c, 0, 62, 0
1, 165986, Note_on_c, 0, 49, 0
1, 166020, Note_on_c, 0, 61, 0
1, 166023, Note_on_c, 0, 66, 75
1, 166023, Note_on_c, 0, 62, 78
1, 166039, Note_on_c, 0, 50, 74
1, 166050, Note_on_c, 0, 38, 72
1, 166090, Note_on_c, 0, 62, 0
1, 166097, Note_on_c, 0, 50, 0
1, 166170, Note_on_c, 0, 45, 64
1, 166175, Note_on_c, 0, 57, 69
1, 166214, Note_on_c, 0, 45, 0
1, 166248, Note_on_c, 0, 57, 0
1, 166304, Note_on_c, 0, 46, 56
1, 166304, Note_on_c, 0, 58, 63
1, 166309, Note_on_c, 0, 67, 67
1, 166326, Note_on_c, 0, 66, 0
1, 166354, Note_on_c, 0, 46, 0
1, 166360, Note_on_c, 0, 58, 0
1, 166446, Note_on_c, 0, 66, 62
1, 166451, Note_on_c, 0, 38, 0
1, 166451, Note_on_c, 0, 45, 62
1, 166455, Note_on_c, 0, 67, 0
1, 166460, Note_on_c, 0, 57, 59
1, 166508, Note_on_c, 0, 45, 0
1, 166585, Note_on_c, 0, 38, 61
1, 166605, Note_on_c, 0, 57, 0
1, 166694, Note_on_c, 0, 38, 0
1, 166703, Control_c, 0, 64, 127
1, 166727, Note_on_c, 0, 50, 69
1, 166758, Note_on_c, 0, 62, 63
1, 166772, Note_on_c, 0, 50, 0
1, 166772, Note_on_c, 0, 66, 0
1, 166805, Note_on_c, 0, 49, 58
1, 166808, Note_on_c, 0, 62, 0
1, 166814, Note_on_c, 0, 61, 49
1, 166836, Control_c, 0, 64, 0
1, 166845, Note_on_c, 0, 49, 0
1, 166845, Note_on_c, 0, 62, 54
1, 166867, Note_on_c, 0, 66, 64
1, 166872, Note_on_c, 0, 61, 0
1, 166878, Note_on_c, 0, 50, 86
1, 166900, Note_on_c, 0, 38, 65
1, 166923, Note_on_c, 0, 50, 0
1, 166956, Note_on_c, 0, 66, 0
1, 167001, Note_on_c, 0, 62, 0
1, 167012, Note_on_c, 0, 57, 51
1, 167019, Note_on_c, 0, 66, 40
1, 167033, Note_on_c, 0, 45, 55
1, 167084, Note_on_c, 0, 45, 0
1, 167084, Note_on_c, 0, 57, 0
1, 167136, Note_on_c, 0, 58, 59
1, 167136, Note_on_c, 0, 46, 57
1, 167145, Note_on_c, 0, 66, 0
1, 167189, Note_on_c, 0, 67, 51
1, 167212, Note_on_c, 0, 58, 0
1, 167232, Note_on_c, 0, 46, 0
1, 167296, Note_on_c, 0, 66, 57
1, 167302, Note_on_c, 0, 67, 0
1, 167307, Note_on_c, 0, 57, 47
1, 167317, Note_on_c, 0, 45, 53
1, 167326, Note_on_c, 0, 38, 0
1, 167448, Note_on_c, 0, 45, 0
1, 167457, Note_on_c, 0, 38, 58
1, 167483, Control_c, 0, 64, 127
1, 167487, Note_on_c, 0, 57, 0
1, 167508, Note_on_c, 0, 38, 0
1, 167519, Note_on_c, 0, 66, 0
1, 167582, Note_on_c, 0, 50, 61
1, 167597, Note_on_c, 0, 62, 55
1, 167633, Note_on_c, 0, 50, 0
1, 167641, Note_on_c, 0, 62, 0
1, 167644, Note_on_c, 0, 61, 59
1, 167648, Note_on_c, 0, 49, 60
1, 167675, Control_c, 0, 64, 0
1, 167688, Note_on_c, 0, 49, 0
1, 167699, Note_on_c, 0, 61, 0
1, 167707, Note_on_c, 0, 62, 61
1, 167707, Note_on_c, 0, 66, 54
1, 167735, Note_on_c, 0, 50, 59
1, 167758, Note_on_c, 0, 62, 0
1, 167775, Note_on_c, 0, 38, 39
1, 167781, Note_on_c, 0, 50, 0
1, 167859, Note_on_c, 0, 57, 47
1, 167869, Note_on_c, 0, 45, 56
1, 167916, Note_on_c, 0, 45, 0
1, 167922, Note_on_c, 0, 57, 0
1, 167937, Note_on_c, 0, 66, 0
1, 167997, Note_on_c, 0, 58, 41
1, 167997, Note_on_c, 0, 46, 44
1, 167997, Note_on_c, 0, 67, 50
1, 168051, Note_on_c, 0, 58, 0
1, 168076, Note_on_c, 0, 46, 0
1, 168164, Note_on_c, 0, 67, 0
1, 168164, Note_on_c, 0, 66, 45
1, 168167, Note_on_c, 0, 57, 34
1, 168179, Note_on_c, 0, 38, 0
1, 168189, Note_on_c, 0, 45, 43
1, 168288, Note_on_c, 0, 45, 0
1, 168346, Control_c, 0, 64, 127
1, 168357, Note_on_c, 0, 57, 0
1, 168362, Note_on_c, 0, 38, 45
1, 168370, Note_on_c, 0, 66, 0
1, 168508, Note_on_c, 0, 38, 0
1, 168508, Note_on_c, 0, 66, 32
1, 168515, Note_on_c, 0, 57, 28
1, 168588, Note_on_c, 0, 57, 0
1, 168588, Note_on_c, 0, 66, 0
1, 168643, Note_on_c, 0, 45, 55
1, 168783, Note_on_c, 0, 45, 0
1, 168806, Note_on_c, 0, 38, 58
1, 168948, Note_on_c, 0, 66, 50
1, 168958, Note_on_c, 0, 57, 48
1, 168965, Note_on_c, 0, 54, 40
1, 168972, Note_on_c, 0, 38, 0
1, 168972, Note_on_c, 0, 62, 44
1, 169034, Note_on_c, 0, 54, 0
1, 169048, Note_on_c, 0, 62, 0
1, 169082, Note_on_c, 0, 57, 0
1, 169104, Note_on_c, 0, 45, 69
1, 169118, Note_on_c, 0, 66, 0
1, 169265, Note_on_c, 0, 38, 69
1, 169287, Note_on_c, 0, 45, 0
1, 169415, Note_on_c, 0, 66, 48
1, 169415, Note_on_c, 0, 54, 51
1, 169423, Note_on_c, 0, 62, 57
1, 169426, Note_on_c, 0, 38, 0
1, 169426, Note_on_c, 0, 57, 48
1, 169515, Note_on_c, 0, 54, 0
1, 169550, Note_on_c, 0, 57, 0
1, 169560, Note_on_c, 0, 66, 0
1, 169572, Note_on_c, 0, 62, 0
1, 169582, Note_on_c, 0, 46, 64
1, 169605, Control_c, 0, 64, 0
1, 169777, Note_on_c, 0, 36, 59
1, 169831, Note_on_c, 0, 46, 0
1, 169869, Control_c, 0, 64, 127
1, 169933, Note_on_c, 0, 55, 55
1, 169940, Note_on_c, 0, 58, 37
1, 169940, Note_on_c, 0, 64, 48
1, 169944, Note_on_c, 0, 67, 34
1, 169969, Note_on_c, 0, 36, 0
1, 170062, Note_on_c, 0, 67, 0
1, 170072, Note_on_c, 0, 64, 0
1, 170086, Note_on_c, 0, 55, 0
1, 170086, Note_on_c, 0, 46, 52
1, 170109, Note_on_c, 0, 58, 0
1, 170156, Control_c, 0, 64, 0
1, 170262, Note_on_c, 0, 36, 61
1, 170306, Note_on_c, 0, 46, 0
1, 170429, Note_on_c, 0, 64, 50
1, 170429, Note_on_c, 0, 58, 37
1, 170433, Note_on_c, 0, 67, 45
1, 170446, Note_on_c, 0, 55, 38
1, 170491, Control_c, 0, 64, 127
1, 170510, Note_on_c, 0, 36, 0
1, 170580, Note_on_c, 0, 67, 0
1, 170580, Note_on_c, 0, 55, 0
1, 170588, Note_on_c, 0, 64, 0
1, 170600, Note_on_c, 0, 58, 0
1, 170616, Note_on_c, 0, 46, 46
1, 170814, Note_on_c, 0, 36, 46
1, 170814, Control_c, 0, 64, 0
1, 170898, Note_on_c, 0, 46, 0
1, 170983, Control_c, 0, 64, 127
1, 170992, Note_on_c, 0, 58, 30
1, 171001, Note_on_c, 0, 64, 39
1, 171001, Note_on_c, 0, 67, 40
1, 171011, Note_on_c, 0, 36, 0
1, 171011, Note_on_c, 0, 55, 31
1, 171120, Note_on_c, 0, 55, 0
1, 171193, Note_on_c, 0, 58, 0
1, 171201, Note_on_c, 0, 64, 0
1, 171201, Note_on_c, 0, 67, 0
1, 171234, Note_on_c, 0, 46, 37
1, 171602, Note_on_c, 0, 46, 0
1, 171627, Note_on_c, 0, 36, 47
1, 171822, Note_on_c, 0, 36, 0
1, 171947, Note_on_c, 0, 76, 44
1, 171947, Note_on_c, 0, 80, 47
1, 171987, Note_on_c, 0, 80, 0
1, 171990, Note_on_c, 0, 76, 0
1, 171997, Note_on_c, 0, 75, 53
1, 172014, Control_c, 0, 64, 0
1, 172036, Note_on_c, 0, 80, 71
1, 172040, Note_on_c, 0, 75, 0
1, 172040, Note_on_c, 0, 76, 71
1, 172053, Note_on_c, 0, 35, 85
1, 172053, Note_on_c, 0, 47, 64
1, 172085, Note_on_c, 0, 35, 0
1, 172090, Note_on_c, 0, 47, 0
1, 172099, Note_on_c, 0, 76, 0
1, 172109, Note_on_c, 0, 80, 0
1, 172176, Note_on_c, 0, 68, 67
1, 172195, Note_on_c, 0, 40, 72
1, 172220, Note_on_c, 0, 68, 0
1, 172227, Note_on_c, 0, 40, 0
1, 172296, Note_on_c, 0, 40, 82
1, 172309, Note_on_c, 0, 80, 56
1, 172312, Note_on_c, 0, 76, 54
1, 172327, Note_on_c, 0, 40, 0
1, 172348, Note_on_c, 0, 76, 0
1, 172348, Note_on_c, 0, 80, 0
1, 172348, Note_on_c, 0, 75, 54
1, 172397, Note_on_c, 0, 75, 0
1, 172397, Note_on_c, 0, 80, 67
1, 172400, Note_on_c, 0, 76, 80
1, 172404, Note_on_c, 0, 44, 92
1, 172413, Note_on_c, 0, 32, 83
1, 172438, Note_on_c, 0, 44, 0
1, 172447, Note_on_c, 0, 32, 0
1, 172486, Note_on_c, 0, 76, 0
1, 172493, Note_on_c, 0, 80, 0
1, 172543, Note_on_c, 0, 68, 71
1, 172547, Note_on_c, 0, 40, 94
1, 172577, Note_on_c, 0, 40, 0
1, 172588, Note_on_c, 0, 68, 0
1, 172658, Note_on_c, 0, 80, 73
1, 172667, Note_on_c, 0, 40, 87
1, 172670, Note_on_c, 0, 76, 61
1, 172705, Note_on_c, 0, 40, 0
1, 172705, Note_on_c, 0, 80, 0
1, 172713, Note_on_c, 0, 76, 0
1, 172723, Note_on_c, 0, 75, 56
1, 172772, Note_on_c, 0, 76, 80
1, 172772, Note_on_c, 0, 80, 74
1, 172775, Note_on_c, 0, 75, 0
1, 172784, Note_on_c, 0, 45, 97
1, 172792, Note_on_c, 0, 33, 98
1, 172820, Note_on_c, 0, 33, 0
1, 172837, Note_on_c, 0, 45, 0
1, 172842, Note_on_c, 0, 80, 0
1, 172862, Note_on_c, 0, 76, 0
1, 172914, Note_on_c, 0, 68, 77
1, 172920, Note_on_c, 0, 40, 102
1, 172951, Note_on_c, 0, 40, 0
1, 172965, Note_on_c, 0, 68, 0
1, 173037, Note_on_c, 0, 80, 70
1, 173037, Note_on_c, 0, 40, 101
1, 173043, Note_on_c, 0, 76, 66
1, 173071, Note_on_c, 0, 40, 0
1, 173079, Note_on_c, 0, 80, 0
1, 173093, Note_on_c, 0, 76, 0
1, 173101, Note_on_c, 0, 75, 66
1, 173148, Note_on_c, 0, 76, 85
1, 173148, Note_on_c, 0, 46, 103
1, 173148, Note_on_c, 0, 80, 70
1, 173156, Note_on_c, 0, 34, 100
1, 173160, Note_on_c, 0, 75, 0
1, 173220, Note_on_c, 0, 80, 0
1, 173220, Note_on_c, 0, 46, 0
1, 173224, Note_on_c, 0, 34, 0
1, 173241, Note_on_c, 0, 76, 0
1, 173282, Note_on_c, 0, 68, 81
1, 173287, Note_on_c, 0, 40, 108
1, 173323, Note_on_c, 0, 40, 0
1, 173340, Note_on_c, 0, 68, 0
1, 173394, Note_on_c, 0, 80, 72
1, 173405, Note_on_c, 0, 76, 65
1, 173413, Note_on_c, 0, 40, 103
1, 173443, Note_on_c, 0, 40, 0
1, 173443, Note_on_c, 0, 80, 0
1, 173452, Note_on_c, 0, 76, 0
1, 173457, Note_on_c, 0, 75, 74
1, 173497, Note_on_c, 0, 75, 0
1, 173513, Note_on_c, 0, 76, 89
1, 173513, Note_on_c, 0, 47, 112
1, 173513, Note_on_c, 0, 80, 80
1, 173524, Note_on_c, 0, 35, 113
1, 173560, Note_on_c, 0, 35, 0
1, 173583, Note_on_c, 0, 76, 0
1, 173583, Note_on_c, 0, 47, 0
1, 173597, Note_on_c, 0, 80, 0
1, 173652, Note_on_c, 0, 68, 85
1, 173656, Note_on_c, 0, 40, 106
1, 173686, Note_on_c, 0, 40, 0
1, 173717, Note_on_c, 0, 68, 0
1, 173767, Note_on_c, 0, 80, 84
1, 173775, Note_on_c, 0, 40, 110
1, 173781, Note_on_c, 0, 76, 72
1, 173819, Note_on_c, 0, 40, 0
1, 173833, Note_on_c, 0, 76, 0
1, 173836, Note_on_c, 0, 75, 76
1, 173850, Note_on_c, 0, 80, 0
1, 173886, Note_on_c, 0, 76, 91
1, 173886, Note_on_c, 0, 48, 96
1, 173890, Note_on_c, 0, 75, 0
1, 173890, Note_on_c, 0, 80, 97
1, 173900, Note_on_c, 0, 36, 100
1, 173928, Note_on_c, 0, 80, 0
1, 173937, Note_on_c, 0, 36, 0
1, 173947, Note_on_c, 0, 48, 0
1, 173973, Note_on_c, 0, 76, 0
1, 174018, Note_on_c, 0, 40, 108
1, 174018, Note_on_c, 0, 68, 93
1, 174048, Note_on_c, 0, 40, 0
1, 174106, Note_on_c, 0, 68, 0
1, 174132, Note_on_c, 0, 80, 69
1, 174132, Note_on_c, 0, 40, 111
1, 174135, Note_on_c, 0, 76, 69
1, 174171, Note_on_c, 0, 80, 0
1, 174181, Note_on_c, 0, 76, 0
1, 174181, Note_on_c, 0, 75, 70
1, 174187, Note_on_c, 0, 40, 0
1, 174235, Note_on_c, 0, 49, 106
1, 174244, Note_on_c, 0, 80, 85
1, 174249, Note_on_c, 0, 37, 95
1, 174271, Note_on_c, 0, 37, 0
1, 174301, Note_on_c, 0, 49, 0
1, 174305, Note_on_c, 0, 75, 0
1, 174313, Note_on_c, 0, 80, 0
1, 174376, Note_on_c, 0, 76, 101
1, 174379, Note_on_c, 0, 81, 101
1, 174390, Note_on_c, 0, 61, 97
1, 174422, Note_on_c, 0, 61, 0
1, 174436, Note_on_c, 0, 81, 0
1, 174457, Note_on_c, 0, 76, 0
1, 174505, Note_on_c, 0, 80, 87
1, 174505, Note_on_c, 0, 59, 78
1, 174513, Note_on_c, 0, 75, 73
1, 174535, Note_on_c, 0, 59, 0
1, 174538, Note_on_c, 0, 80, 0
1, 174547, Note_on_c, 0, 75, 0
1, 174628, Note_on_c, 0, 78, 78
1, 174636, Note_on_c, 0, 73, 67
1, 174636, Note_on_c, 0, 57, 60
1, 174673, Note_on_c, 0, 73, 0
1, 174673, Note_on_c, 0, 78, 0
1, 174677, Note_on_c, 0, 57, 0
1, 174761, Note_on_c, 0, 56, 64
1, 174761, Note_on_c, 0, 71, 78
1, 174761, Note_on_c, 0, 76, 70
1, 174797, Note_on_c, 0, 76, 0
1, 174800, Note_on_c, 0, 71, 0
1, 174800, Note_on_c, 0, 56, 0
1, 174886, Note_on_c, 0, 59, 61
1, 174889, Note_on_c, 0, 75, 78
1, 174889, Note_on_c, 0, 69, 68
1, 174923, Note_on_c, 0, 59, 0
1, 174929, Note_on_c, 0, 69, 0
1, 174929, Note_on_c, 0, 75, 0
1, 175021, Note_on_c, 0, 68, 73
1, 175026, Note_on_c, 0, 76, 76
1, 175040, Note_on_c, 0, 52, 73
1, 175053, Note_on_c, 0, 68, 0
1, 175059, Note_on_c, 0, 76, 0
1, 175082, Control_c, 0, 64, 127
1, 175121, Note_on_c, 0, 52, 0
1, 175174, Note_on_c, 0, 80, 80
1, 175187, Note_on_c, 0, 76, 52
1, 175216, Note_on_c, 0, 80, 0
1, 175229, Note_on_c, 0, 76, 0
1, 175229, Note_on_c, 0, 75, 59
1, 175241, Note_on_c, 0, 78, 50
1, 175273, Note_on_c, 0, 75, 0
1, 175273, Control_c, 0, 64, 0
1, 175283, Note_on_c, 0, 78, 0
1, 175290, Note_on_c, 0, 76, 50
1, 175290, Note_on_c, 0, 80, 61
1, 175321, Note_on_c, 0, 44, 69
1, 175337, Note_on_c, 0, 76, 0
1, 175346, Note_on_c, 0, 78, 57
1, 175346, Note_on_c, 0, 75, 52
1, 175361, Note_on_c, 0, 44, 0
1, 175379, Note_on_c, 0, 80, 0
1, 175396, Note_on_c, 0, 75, 0
1, 175414, Note_on_c, 0, 76, 52
1, 175421, Note_on_c, 0, 78, 0
1, 175421, Note_on_c, 0, 80, 82
1, 175424, Note_on_c, 0, 32, 70
1, 175458, Note_on_c, 0, 76, 0
1, 175472, Note_on_c, 0, 32, 0
1, 175475, Note_on_c, 0, 75, 47
1, 175475, Note_on_c, 0, 78, 78
1, 175505, Note_on_c, 0, 80, 0
1, 175527, Note_on_c, 0, 75, 0
1, 175531, Note_on_c, 0, 78, 0
1, 175541, Note_on_c, 0, 44, 69
1, 175541, Note_on_c, 0, 76, 40
1, 175552, Note_on_c, 0, 80, 75
1, 175575, Note_on_c, 0, 44, 0
1, 175595, Note_on_c, 0, 76, 0
1, 175600, Note_on_c, 0, 78, 64
1, 175603, Note_on_c, 0, 75, 49
1, 175633, Note_on_c, 0, 80, 0
1, 175647, Note_on_c, 0, 75, 0
1, 175659, Note_on_c, 0, 78, 0
1, 175659, Note_on_c, 0, 76, 54
1, 175677, Note_on_c, 0, 56, 73
1, 175681, Note_on_c, 0, 80, 75
1, 175706, Note_on_c, 0, 76, 0
1, 175716, Note_on_c, 0, 75, 50
1, 175719, Note_on_c, 0, 56, 0
1, 175725, Note_on_c, 0, 78, 58
1, 175730, Note_on_c, 0, 80, 0
1, 175789, Note_on_c, 0, 78, 0
1, 175789, Note_on_c, 0, 75, 0
1, 175789, Note_on_c, 0, 80, 71
1, 175794, Note_on_c, 0, 76, 53
1, 175801, Note_on_c, 0, 57, 96
1, 175847, Note_on_c, 0, 57, 0
1, 175847, Note_on_c, 0, 76, 0
1, 175847, Note_on_c, 0, 75, 66
1, 175851, Note_on_c, 0, 78, 68
1, 175873, Note_on_c, 0, 80, 0
1, 175914, Note_on_c, 0, 75, 0
1, 175918, Note_on_c, 0, 78, 0
1, 175918, Note_on_c, 0, 80, 81
1, 175923, Note_on_c, 0, 76, 59
1, 175953, Note_on_c, 0, 45, 66
1, 175971, Note_on_c, 0, 76, 0
1, 175974, Note_on_c, 0, 75, 62
1, 175982, Note_on_c, 0, 78, 63
1, 175992, Note_on_c, 0, 45, 0
1, 176009, Note_on_c, 0, 80, 0
1, 176042, Note_on_c, 0, 75, 0
1, 176042, Note_on_c, 0, 78, 0
1, 176056, Note_on_c, 0, 80, 81
1, 176056, Note_on_c, 0, 76, 48
1, 176067, Note_on_c, 0, 33, 72
1, 176099, Note_on_c, 0, 76, 0
1, 176104, Note_on_c, 0, 33, 0
1, 176112, Note_on_c, 0, 75, 56
1, 176112, Note_on_c, 0, 78, 62
1, 176148, Note_on_c, 0, 80, 0
1, 176163, Note_on_c, 0, 75, 0
1, 176180, Note_on_c, 0, 78, 0
1, 176180, Note_on_c, 0, 76, 60
1, 176190, Note_on_c, 0, 80, 88
1, 176190, Note_on_c, 0, 34, 101
1, 176235, Note_on_c, 0, 76, 0
1, 176249, Note_on_c, 0, 78, 72
1, 176254, Note_on_c, 0, 75, 63
1, 176269, Note_on_c, 0, 80, 0
1, 176283, Note_on_c, 0, 34, 0
1, 176299, Note_on_c, 0, 75, 0
1, 176315, Note_on_c, 0, 78, 0
1, 176315, Note_on_c, 0, 46, 77
1, 176315, Note_on_c, 0, 80, 78
1, 176322, Note_on_c, 0, 76, 46
1, 176363, Note_on_c, 0, 46, 0
1, 176380, Note_on_c, 0, 76, 0
1, 176380, Note_on_c, 0, 78, 68
1, 176391, Note_on_c, 0, 75, 52
1, 176402, Note_on_c, 0, 80, 0
1, 176435, Note_on_c, 0, 75, 0
1, 176443, Note_on_c, 0, 78, 0
1, 176447, Note_on_c, 0, 80, 81
1, 176447, Note_on_c, 0, 76, 52
1, 176469, Note_on_c, 0, 58, 65
1, 176500, Note_on_c, 0, 76, 0
1, 176508, Note_on_c, 0, 58, 0
1, 176508, Note_on_c, 0, 75, 52
1, 176508, Note_on_c, 0, 78, 64
1, 176527, Note_on_c, 0, 80, 0
1, 176567, Note_on_c, 0, 75, 0
1, 176572, Note_on_c, 0, 78, 0
1, 176572, Note_on_c, 0, 80, 82
1, 176581, Note_on_c, 0, 76, 55
1, 176594, Note_on_c, 0, 59, 109
1, 176641, Note_on_c, 0, 76, 0
1, 176641, Note_on_c, 0, 78, 66
1, 176648, Note_on_c, 0, 75, 59
1, 176653, Note_on_c, 0, 59, 0
1, 176675, Note_on_c, 0, 80, 0
1, 176717, Note_on_c, 0, 75, 0
1, 176717, Note_on_c, 0, 80, 89
1, 176723, Note_on_c, 0, 76, 56
1, 176728, Note_on_c, 0, 78, 0
1, 176745, Note_on_c, 0, 47, 80
1, 176772, Note_on_c, 0, 76, 0
1, 176786, Note_on_c, 0, 47, 0
1, 176792, Note_on_c, 0, 78, 57
1, 176792, Note_on_c, 0, 75, 56
1, 176806, Note_on_c, 0, 80, 0
1, 176854, Note_on_c, 0, 80, 77
1, 176859, Note_on_c, 0, 75, 0
1, 176859, Note_on_c, 0, 35, 83
1, 176865, Note_on_c, 0, 78, 0
1, 176872, Note_on_c, 0, 76, 53
1, 176889, Note_on_c, 0, 35, 0
1, 176917, Note_on_c, 0, 76, 0
1, 176926, Note_on_c, 0, 75, 55
1, 176926, Note_on_c, 0, 78, 61
1, 176948, Note_on_c, 0, 80, 0
1, 176990, Note_on_c, 0, 78, 0
1, 176990, Note_on_c, 0, 80, 92
1, 176996, Note_on_c, 0, 76, 68
1, 176996, Note_on_c, 0, 36, 113
1, 177003, Note_on_c, 0, 75, 0
1, 177043, Note_on_c, 0, 76, 0
1, 177057, Note_on_c, 0, 75, 74
1, 177065, Note_on_c, 0, 78, 70
1, 177082, Note_on_c, 0, 36, 0
1, 177085, Note_on_c, 0, 80, 0
1, 177112, Note_on_c, 0, 78, 0
1, 177123, Note_on_c, 0, 48, 73
1, 177127, Note_on_c, 0, 75, 0
1, 177127, Note_on_c, 0, 76, 68
1, 177130, Note_on_c, 0, 80, 79
1, 177157, Note_on_c, 0, 48, 0
1, 177196, Note_on_c, 0, 76, 0
1, 177196, Note_on_c, 0, 78, 84
1, 177199, Note_on_c, 0, 75, 64
1, 177232, Note_on_c, 0, 80, 0
1, 177254, Note_on_c, 0, 75, 0
1, 177266, Note_on_c, 0, 78, 0
1, 177266, Note_on_c, 0, 76, 68
1, 177271, Note_on_c, 0, 60, 58
1, 177276, Note_on_c, 0, 80, 87
1, 177321, Note_on_c, 0, 60, 0
1, 177326, Note_on_c, 0, 76, 0
1, 177326, Note_on_c, 0, 75, 70
1, 177333, Note_on_c, 0, 78, 73
1, 177358, Note_on_c, 0, 80, 0
1, 177375, Note_on_c, 0, 75, 0
1, 177397, Note_on_c, 0, 61, 90
1, 177397, Note_on_c, 0, 80, 101
1, 177407, Note_on_c, 0, 76, 68
1, 177427, Note_on_c, 0, 61, 0
1, 177436, Note_on_c, 0, 76, 0
1, 177436, Note_on_c, 0, 80, 0
1, 177441, Note_on_c, 0, 78, 0
1, 177530, Note_on_c, 0, 81, 106
1, 177530, Note_on_c, 0, 76, 83
1, 177541, Note_on_c, 0, 61, 84
1, 177567, Note_on_c, 0, 76, 0
1, 177574, Note_on_c, 0, 61, 0
1, 177598, Note_on_c, 0, 81, 0
1, 177662, Note_on_c, 0, 80, 92
1, 177670, Note_on_c, 0, 75, 77
1, 177673, Note_on_c, 0, 59, 58
1, 177706, Note_on_c, 0, 75, 0
1, 177706, Note_on_c, 0, 80, 0
1, 177711, Note_on_c, 0, 59, 0
1, 177789, Note_on_c, 0, 73, 76
1, 177798, Note_on_c, 0, 78, 77
1, 177798, Note_on_c, 0, 57, 72
1, 177831, Note_on_c, 0, 73, 0
1, 177839, Note_on_c, 0, 57, 0
1, 177839, Note_on_c, 0, 78, 0
1, 177926, Note_on_c, 0, 56, 78
1, 177931, Note_on_c, 0, 71, 70
1, 177945, Note_on_c, 0, 76, 51
1, 177965, Note_on_c, 0, 56, 0
1, 177968, Note_on_c, 0, 71, 0
1, 177985, Note_on_c, 0, 76, 0
1, 178065, Note_on_c, 0, 75, 72
1, 178065, Note_on_c, 0, 69, 56
1, 178065, Note_on_c, 0, 59, 69
1, 178102, Note_on_c, 0, 59, 0
1, 178118, Note_on_c, 0, 69, 0
1, 178130, Note_on_c, 0, 75, 0
1, 178218, Note_on_c, 0, 49, 73
1, 178218, Note_on_c, 0, 76, 77
1, 178237, Note_on_c, 0, 68, 56
1, 178382, Note_on_c, 0, 68, 0
1, 178382, Note_on_c, 0, 52, 66
1, 178402, Control_c, 0, 64, 127
1, 178417, Note_on_c, 0, 76, 0
1, 178421, Note_on_c, 0, 52, 0
1, 178439, Note_on_c, 0, 51, 63
1, 178492, Note_on_c, 0, 51, 0
1, 178505, Note_on_c, 0, 52, 66
1, 178606, Note_on_c, 0, 52, 0
1, 178653, Control_c, 0, 64, 0
1, 178656, Note_on_c, 0, 81, 101
1, 178662, Note_on_c, 0, 69, 70
1, 178670, Note_on_c, 0, 78, 61
1, 178670, Note_on_c, 0, 76, 57
1, 178681, Note_on_c, 0, 48, 68
1, 178690, Note_on_c, 0, 49, 0
1, 178719, Note_on_c, 0, 76, 0
1, 178818, Note_on_c, 0, 52, 71
1, 178853, Note_on_c, 0, 52, 0
1, 178859, Note_on_c, 0, 51, 72
1, 178881, Control_c, 0, 64, 127
1, 178929, Note_on_c, 0, 51, 0
1, 178929, Note_on_c, 0, 52, 83
1, 178995, Note_on_c, 0, 81, 0
1, 178999, Note_on_c, 0, 69, 0
1, 179065, Note_on_c, 0, 52, 0
1, 179085, Note_on_c, 0, 83, 124
1, 179091, Note_on_c, 0, 80, 88
1, 179095, Note_on_c, 0, 71, 92
1, 179099, Note_on_c, 0, 76, 64
1, 179107, Note_on_c, 0, 47, 69
1, 179107, Control_c, 0, 64, 0
1, 179118, Note_on_c, 0, 48, 0
1, 179144, Note_on_c, 0, 76, 0
1, 179149, Note_on_c, 0, 78, 0
1, 179249, Note_on_c, 0, 52, 75
1, 179283, Note_on_c, 0, 52, 0
1, 179305, Note_on_c, 0, 51, 61
1, 179313, Control_c, 0, 64, 127
1, 179355, Note_on_c, 0, 80, 0
1, 179355, Note_on_c, 0, 71, 0
1, 179368, Note_on_c, 0, 52, 77
1, 179372, Note_on_c, 0, 51, 0
1, 179403, Note_on_c, 0, 83, 0
1, 179483, Note_on_c, 0, 52, 0
1, 179508, Note_on_c, 0, 84, 112
1, 179522, Note_on_c, 0, 72, 78
1, 179522, Note_on_c, 0, 81, 73
1, 179533, Note_on_c, 0, 76, 55
1, 179541, Control_c, 0, 64, 0
1, 179541, Note_on_c, 0, 45, 65
1, 179549, Note_on_c, 0, 47, 0
1, 179662, Note_on_c, 0, 52, 68
1, 179704, Note_on_c, 0, 52, 0
1, 179740, Note_on_c, 0, 51, 55
1, 179756, Control_c, 0, 64, 127
1, 179768, Note_on_c, 0, 76, 0
1, 179787, Note_on_c, 0, 72, 0
1, 179787, Note_on_c, 0, 51, 0
1, 179814, Note_on_c, 0, 52, 71
1, 179846, Note_on_c, 0, 84, 0
1, 179900, Note_on_c, 0, 52, 0
1, 179951, Note_on_c, 0, 83, 113
1, 179951, Note_on_c, 0, 71, 77
1, 179959, Control_c, 0, 64, 0
1, 179967, Note_on_c, 0, 44, 65
1, 179971, Note_on_c, 0, 76, 50
1, 179974, Note_on_c, 0, 45, 0
1, 179993, Note_on_c, 0, 81, 0
1, 180115, Control_c, 0, 64, 127
1, 180119, Note_on_c, 0, 71, 0
1, 180119, Note_on_c, 0, 52, 63
1, 180124, Note_on_c, 0, 83, 0
1, 180149, Note_on_c, 0, 76, 0
1, 180160, Note_on_c, 0, 52, 0
1, 180185, Note_on_c, 0, 51, 63
1, 180229, Note_on_c, 0, 51, 0
1, 180275, Note_on_c, 0, 52, 64
1, 180330, Note_on_c, 0, 52, 0
1, 180402, Note_on_c, 0, 70, 84
1, 180405, Note_on_c, 0, 58, 77
1, 180413, Note_on_c, 0, 66, 61
1, 180416, Control_c, 0, 64, 0
1, 180428, Note_on_c, 0, 64, 60
1, 180428, Note_on_c, 0, 49, 71
1, 180453, Note_on_c, 0, 44, 0
1, 180491, Note_on_c, 0, 64, 0
1, 180545, Note_on_c, 0, 64, 12
1, 180575, Note_on_c, 0, 52, 67
1, 180606, Note_on_c, 0, 64, 0
1, 180606, Control_c, 0, 64, 127
1, 180609, Note_on_c, 0, 52, 0
1, 180639, Note_on_c, 0, 51, 65
1, 180675, Note_on_c, 0, 58, 0
1, 180690, Note_on_c, 0, 51, 0
1, 180711, Note_on_c, 0, 52, 69
1, 180743, Note_on_c, 0, 70, 0
1, 180826, Note_on_c, 0, 52, 0
1, 180859, Control_c, 0, 64, 0
1, 180859, Note_on_c, 0, 71, 97
1, 180864, Note_on_c, 0, 59, 73
1, 180868, Note_on_c, 0, 68, 60
1, 180882, Note_on_c, 0, 64, 61
1, 180887, Note_on_c, 0, 47, 61
1, 180912, Note_on_c, 0, 49, 0
1, 180928, Note_on_c, 0, 66, 0
1, 180938, Note_on_c, 0, 64, 0
1, 181049, Note_on_c, 0, 52, 47
1, 181049, Control_c, 0, 64, 127
1, 181055, Note_on_c, 0, 59, 0
1, 181087, Note_on_c, 0, 51, 74
1, 181096, Note_on_c, 0, 52, 0
1, 181101, Note_on_c, 0, 71, 0
1, 181130, Note_on_c, 0, 51, 0
1, 181155, Note_on_c, 0, 52, 83
1, 181302, Note_on_c, 0, 52, 0
1, 181311, Note_on_c, 0, 73, 73
1, 181311, Control_c, 0, 64, 0
1, 181321, Note_on_c, 0, 61, 56
1, 181328, Note_on_c, 0, 66, 43
1, 181338, Note_on_c, 0, 68, 0
1, 181342, Note_on_c, 0, 64, 57
1, 181346, Note_on_c, 0, 46, 50
1, 181355, Note_on_c, 0, 47, 0
1, 181498, Note_on_c, 0, 52, 50
1, 181544, Note_on_c, 0, 52, 0
1, 181553, Control_c, 0, 64, 127
1, 181556, Note_on_c, 0, 64, 0
1, 181564, Note_on_c, 0, 51, 55
1, 181597, Note_on_c, 0, 73, 0
1, 181612, Note_on_c, 0, 51, 0
1, 181625, Note_on_c, 0, 61, 0
1, 181644, Note_on_c, 0, 52, 53
1, 181718, Note_on_c, 0, 52, 0
1, 181770, Note_on_c, 0, 46, 0
1, 181793, Control_c, 0, 64, 0
1, 181793, Note_on_c, 0, 68, 45
1, 181796, Note_on_c, 0, 71, 71
1, 181796, Note_on_c, 0, 59, 50
1, 181820, Note_on_c, 0, 64, 45
1, 181828, Note_on_c, 0, 47, 32
1, 181857, Note_on_c, 0, 66, 0
1, 181960, Note_on_c, 0, 52, 50
1, 181973, Note_on_c, 0, 64, 0
1, 182002, Note_on_c, 0, 52, 0
1, 182009, Note_on_c, 0, 59, 0
1, 182009, Control_c, 0, 64, 127
1, 182020, Note_on_c, 0, 71, 0
1, 182024, Note_on_c, 0, 51, 29
1, 182076, Note_on_c, 0, 51, 0
1, 182083, Note_on_c, 0, 52, 49
1, 182119, Note_on_c, 0, 68, 0
1, 182151, Note_on_c, 0, 52, 0
1, 182163, Note_on_c, 0, 47, 0
1, 182249, Control_c, 0, 64, 0
1, 182255, Note_on_c, 0, 69, 70
1, 182269, Note_on_c, 0, 57, 51
1, 182269, Note_on_c, 0, 48, 46
1, 182297, Note_on_c, 0, 66, 25
1, 182297, Note_on_c, 0, 64, 40
1, 182425, Note_on_c, 0, 52, 41
1, 182452, Note_on_c, 0, 64, 0
1, 182452, Control_c, 0, 64, 127
1, 182474, Note_on_c, 0, 52, 0
1, 182483, Note_on_c, 0, 51, 51
1, 182508, Note_on_c, 0, 57, 0
1, 182537, Note_on_c, 0, 52, 66
1, 182540, Note_on_c, 0, 51, 0
1, 182553, Note_on_c, 0, 69, 0
1, 182644, Note_on_c, 0, 52, 0
1, 182692, Control_c, 0, 64, 0
1, 182706, Note_on_c, 0, 71, 82
1, 182715, Note_on_c, 0, 59, 47
1, 182723, Note_on_c, 0, 67, 51
1, 182726, Note_on_c, 0, 64, 51
1, 182740, Note_on_c, 0, 47, 49
1, 182750, Note_on_c, 0, 48, 0
1, 182785, Note_on_c, 0, 66, 0
1, 182896, Note_on_c, 0, 52, 41
1, 182907, Control_c, 0, 64, 127
1, 182923, Note_on_c, 0, 64, 0
1, 182945, Note_on_c, 0, 59, 0
1, 182945, Note_on_c, 0, 52, 0
1, 182945, Note_on_c, 0, 51, 48
1, 182959, Note_on_c, 0, 67, 0
1, 182979, Note_on_c, 0, 71, 0
1, 183004, Note_on_c, 0, 51, 0
1, 183049, Note_on_c, 0, 52, 47
1, 183121, Note_on_c, 0, 47, 0
1, 183143, Note_on_c, 0, 52, 0
1, 183197, Note_on_c, 0, 72, 55
1, 183219, Control_c, 0, 64, 0
1, 183222, Note_on_c, 0, 66, 39
1, 183232, Note_on_c, 0, 64, 44
1, 183232, Note_on_c, 0, 60, 19
1, 183241, Note_on_c, 0, 45, 26
1, 183405, Note_on_c, 0, 52, 43
1, 183448, Note_on_c, 0, 52, 0
1, 183448, Note_on_c, 0, 45, 0
1, 183459, Control_c, 0, 64, 127
1, 183486, Note_on_c, 0, 51, 36
1, 183541, Note_on_c, 0, 51, 0
1, 183564, Note_on_c, 0, 72, 0
1, 183597, Note_on_c, 0, 52, 61
1, 183650, Note_on_c, 0, 52, 0
1, 183698, Control_c, 0, 64, 0
1, 183734, Note_on_c, 0, 60, 0
1, 183759, Note_on_c, 0, 71, 72
1, 183765, Note_on_c, 0, 45, 44
1, 183793, Note_on_c, 0, 64, 0
1, 183815, Note_on_c, 0, 66, 0
1, 183938, Control_c, 0, 64, 127
1, 183959, Note_on_c, 0, 66, 43
1, 183959, Note_on_c, 0, 59, 28
1, 183959, Note_on_c, 0, 63, 37
1, 183970, Note_on_c, 0, 57, 29
1, 184015, Note_on_c, 0, 63, 0
1, 184015, Note_on_c, 0, 59, 0
1, 184019, Note_on_c, 0, 66, 0
1, 184024, Note_on_c, 0, 57, 0
1, 184152, Note_on_c, 0, 66, 27
1, 184160, Note_on_c, 0, 57, 22
1, 184165, Note_on_c, 0, 63, 16
1, 184165, Note_on_c, 0, 59, 21
1, 184218, Note_on_c, 0, 59, 0
1, 184218, Note_on_c, 0, 66, 0
1, 184224, Note_on_c, 0, 57, 0
1, 184227, Note_on_c, 0, 63, 0
1, 184333, Note_on_c, 0, 45, 0
1, 184408, Note_on_c, 0, 66, 34
1, 184417, Note_on_c, 0, 63, 29
1, 184431, Note_on_c, 0, 59, 19
1, 184438, Note_on_c, 0, 57, 32
1, 184484, Note_on_c, 0, 71, 0
1, 184561, Note_on_c, 0, 57, 0
1, 184581, Note_on_c, 0, 59, 0
1, 184745, Note_on_c, 0, 63, 0
1, 184760, Note_on_c, 0, 71, 55
1, 184815, Note_on_c, 0, 66, 0
1, 184864, Note_on_c, 0, 71, 0
1, 184965, Note_on_c, 0, 71, 52
1, 185041, Note_on_c, 0, 71, 0
1, 185149, Control_c, 0, 64, 0
1, 185163, Note_on_c, 0, 71, 44
1, 185168, Note_on_c, 0, 44, 38
1, 185341, Control_c, 0, 64, 127
1, 185353, Note_on_c, 0, 59, 33
1, 185364, Note_on_c, 0, 56, 29
1, 185367, Note_on_c, 0, 64, 29
1, 185378, Note_on_c, 0, 52, 41
1, 185409, Note_on_c, 0, 44, 0
1, 185416, Note_on_c, 0, 59, 0
1, 185420, Note_on_c, 0, 56, 0
1, 185420, Note_on_c, 0, 64, 0
1, 185420, Note_on_c, 0, 52, 0
1, 185539, Note_on_c, 0, 64, 29
1, 185547, Note_on_c, 0, 56, 42
1, 185551, Note_on_c, 0, 52, 41
1, 185551, Note_on_c, 0, 59, 24
1, 185594, Note_on_c, 0, 52, 0
1, 185594, Note_on_c, 0, 56, 0
1, 185594, Note_on_c, 0, 64, 0
1, 185598, Note_on_c, 0, 59, 0
1, 185700, Note_on_c, 0, 64, 39
1, 185707, Note_on_c, 0, 52, 12
1, 185710, Note_on_c, 0, 59, 31
1, 185714, Note_on_c, 0, 71, 0
1, 185714, Note_on_c, 0, 56, 45
1, 185785, Note_on_c, 0, 64, 0
1, 185798, Note_on_c, 0, 52, 0
1, 185803, Note_on_c, 0, 59, 0
1, 185867, Note_on_c, 0, 56, 0
1, 185867, Note_on_c, 0, 69, 54
1, 185960, Note_on_c, 0, 69, 0
1, 186027, Note_on_c, 0, 68, 74
1, 186088, Note_on_c, 0, 68, 0
1, 186207, Note_on_c, 0, 68, 64
1, 186221, Note_on_c, 0, 45, 38
1, 186275, Control_c, 0, 64, 0
1, 186403, Note_on_c, 0, 61, 42
1, 186403, Note_on_c, 0, 54, 50
1, 186409, Note_on_c, 0, 52, 52
1, 186409, Note_on_c, 0, 64, 28
1, 186453, Note_on_c, 0, 54, 0
1, 186458, Note_on_c, 0, 52, 0
1, 186466, Note_on_c, 0, 61, 0
1, 186466, Control_c, 0, 64, 127
1, 186470, Note_on_c, 0, 64, 0
1, 186580, Note_on_c, 0, 66, 59
1, 186586, Note_on_c, 0, 68, 0
1, 186592, Note_on_c, 0, 61, 45
1, 186592, Note_on_c, 0, 52, 35
1, 186592, Note_on_c, 0, 54, 61
1, 186597, Note_on_c, 0, 64, 26
1, 186638, Note_on_c, 0, 54, 0
1, 186638, Note_on_c, 0, 61, 0
1, 186644, Note_on_c, 0, 52, 0
1, 186644, Note_on_c, 0, 64, 0
1, 186731, Control_c, 0, 64, 0
1, 186734, Note_on_c, 0, 64, 48
1, 186734, Note_on_c, 0, 54, 51
1, 186737, Note_on_c, 0, 61, 43
1, 186748, Note_on_c, 0, 52, 48
1, 186809, Note_on_c, 0, 66, 0
1, 186832, Note_on_c, 0, 54, 0
1, 186863, Control_c, 0, 64, 127
1, 186874, Note_on_c, 0, 45, 0
1, 186878, Note_on_c, 0, 66, 58
1, 186891, Note_on_c, 0, 64, 0
1, 186907, Note_on_c, 0, 61, 0
1, 186948, Note_on_c, 0, 52, 0
1, 186960, Note_on_c, 0, 66, 0
1, 187041, Note_on_c, 0, 66, 74
1, 187097, Note_on_c, 0, 66, 0
1, 187305, Note_on_c, 0, 76, 72
1, 187305, Note_on_c, 0, 46, 34
1, 187342, Control_c, 0, 64, 0
1, 187490, Note_on_c, 0, 64, 50
1, 187495, Note_on_c, 0, 66, 45
1, 187498, Note_on_c, 0, 61, 39
1, 187501, Note_on_c, 0, 54, 55
1, 187509, Control_c, 0, 64, 127
1, 187540, Note_on_c, 0, 66, 0
1, 187547, Note_on_c, 0, 54, 0
1, 187550, Note_on_c, 0, 64, 0
1, 187554, Note_on_c, 0, 61, 0
1, 187645, Note_on_c, 0, 46, 0
1, 187654, Note_on_c, 0, 61, 40
1, 187664, Note_on_c, 0, 66, 35
1, 187664, Note_on_c, 0, 54, 55
1, 187670, Note_on_c, 0, 64, 34
1, 187707, Note_on_c, 0, 61, 0
1, 187710, Note_on_c, 0, 54, 0
1, 187715, Note_on_c, 0, 66, 0
1, 187720, Note_on_c, 0, 64, 0
1, 187804, Note_on_c, 0, 64, 50
1, 187812, Note_on_c, 0, 66, 44
1, 187812, Note_on_c, 0, 61, 39
1, 187821, Note_on_c, 0, 54, 36
1, 187851, Note_on_c, 0, 64, 0
1, 187854, Note_on_c, 0, 66, 0
1, 187877, Note_on_c, 0, 61, 0
1, 187893, Note_on_c, 0, 54, 0
1, 187971, Note_on_c, 0, 75, 72
1, 187994, Note_on_c, 0, 76, 0
1, 188094, Note_on_c, 0, 75, 0
1, 188125, Note_on_c, 0, 73, 81
1, 188164, Note_on_c, 0, 73, 0
1, 188289, Control_c, 0, 64, 0
1, 188299, Note_on_c, 0, 47, 48
1, 188306, Note_on_c, 0, 73, 76
1, 188433, Note_on_c, 0, 63, 68
1, 188439, Note_on_c, 0, 57, 48
1, 188445, Note_on_c, 0, 66, 48
1, 188445, Note_on_c, 0, 54, 60
1, 188475, Note_on_c, 0, 63, 0
1, 188481, Control_c, 0, 64, 127
1, 188486, Note_on_c, 0, 57, 0
1, 188486, Note_on_c, 0, 54, 0
1, 188494, Note_on_c, 0, 66, 0
1, 188587, Note_on_c, 0, 71, 90
1, 188587, Note_on_c, 0, 66, 42
1, 188587, Note_on_c, 0, 54, 60
1, 188587, Note_on_c, 0, 63, 75
1, 188600, Note_on_c, 0, 57, 40
1, 188618, Note_on_c, 0, 73, 0
1, 188628, Note_on_c, 0, 54, 0
1, 188628, Note_on_c, 0, 63, 0
1, 188634, Note_on_c, 0, 66, 0
1, 188634, Control_c, 0, 64, 0
1, 188650, Note_on_c, 0, 57, 0
1, 188731, Note_on_c, 0, 54, 67
1, 188737, Note_on_c, 0, 57, 39
1, 188737, Note_on_c, 0, 66, 67
1, 188740, Note_on_c, 0, 63, 77
1, 188787, Note_on_c, 0, 63, 0
1, 188795, Note_on_c, 0, 57, 0
1, 188799, Note_on_c, 0, 54, 0
1, 188806, Note_on_c, 0, 71, 0
1, 188816, Control_c, 0, 64, 127
1, 188837, Note_on_c, 0, 66, 0
1, 188879, Note_on_c, 0, 49, 82
1, 188879, Note_on_c, 0, 64, 85
1, 188879, Note_on_c, 0, 71, 85
1, 188879, Note_on_c, 0, 57, 56
1, 188901, Control_c, 0, 64, 0
1, 188910, Note_on_c, 0, 64, 0
1, 188927, Note_on_c, 0, 47, 0
1, 188930, Note_on_c, 0, 57, 0
1, 188958, Note_on_c, 0, 71, 0
1, 188966, Note_on_c, 0, 49, 0
1, 189005, Note_on_c, 0, 71, 104
1, 189010, Note_on_c, 0, 57, 62
1, 189010, Note_on_c, 0, 66, 76
1, 189019, Note_on_c, 0, 51, 90
1, 189046, Note_on_c, 0, 66, 0
1, 189050, Note_on_c, 0, 51, 0
1, 189050, Note_on_c, 0, 57, 0
1, 189064, Note_on_c, 0, 71, 0
1, 189161, Note_on_c, 0, 56, 93
1, 189161, Note_on_c, 0, 80, 109
1, 189164, Note_on_c, 0, 68, 97
1, 189174, Note_on_c, 0, 52, 92
1, 189205, Note_on_c, 0, 52, 0
1, 189239, Note_on_c, 0, 56, 0
1, 189303, Note_on_c, 0, 56, 68
1, 189328, Note_on_c, 0, 52, 63
1, 189366, Note_on_c, 0, 52, 0
1, 189366, Note_on_c, 0, 56, 0
1, 189450, Note_on_c, 0, 75, 87
1, 189459, Note_on_c, 0, 59, 80
1, 189464, Note_on_c, 0, 52, 70
1, 189464, Note_on_c, 0, 56, 61
1, 189479, Note_on_c, 0, 80, 0
1, 189490, Note_on_c, 0, 59, 0
1, 189500, Note_on_c, 0, 52, 0
1, 189503, Note_on_c, 0, 56, 0
1, 189509, Note_on_c, 0, 68, 0
1, 189539, Note_on_c, 0, 75, 0
1, 189595, Note_on_c, 0, 78, 99
1, 189598, Note_on_c, 0, 44, 98
1, 189629, Note_on_c, 0, 44, 0
1, 189679, Note_on_c, 0, 78, 0
1, 189731, Note_on_c, 0, 59, 74
1, 189737, Note_on_c, 0, 52, 75
1, 189737, Note_on_c, 0, 56, 54
1, 189742, Note_on_c, 0, 76, 72
1, 189766, Note_on_c, 0, 59, 0
1, 189771, Note_on_c, 0, 52, 0
1, 189781, Note_on_c, 0, 76, 0
1, 189784, Note_on_c, 0, 56, 0
1, 189873, Note_on_c, 0, 56, 42
1, 189873, Note_on_c, 0, 72, 72
1, 189879, Note_on_c, 0, 52, 64
1, 189910, Note_on_c, 0, 72, 0
1, 189915, Note_on_c, 0, 52, 0
1, 189924, Note_on_c, 0, 56, 0
1, 190007, Note_on_c, 0, 75, 84
1, 190007, Note_on_c, 0, 45, 75
1, 190010, Note_on_c, 0, 54, 82
1, 190022, Note_on_c, 0, 52, 43
1, 190050, Note_on_c, 0, 54, 0
1, 190053, Note_on_c, 0, 45, 0
1, 190060, Note_on_c, 0, 75, 0
1, 190068, Note_on_c, 0, 52, 0
1, 190146, Note_on_c, 0, 73, 71
1, 190152, Note_on_c, 0, 52, 57
1, 190161, Note_on_c, 0, 54, 56
1, 190167, Note_on_c, 0, 45, 45
1, 190205, Note_on_c, 0, 54, 0
1, 190205, Note_on_c, 0, 73, 0
1, 190205, Note_on_c, 0, 52, 0
1, 190225, Note_on_c, 0, 45, 0
1, 190278, Note_on_c, 0, 45, 64
1, 190286, Note_on_c, 0, 54, 59
1, 190286, Note_on_c, 0, 68, 75
1, 190292, Note_on_c, 0, 52, 58
1, 190337, Note_on_c, 0, 54, 0
1, 190341, Note_on_c, 0, 45, 0
1, 190341, Note_on_c, 0, 52, 0
1, 190347, Note_on_c, 0, 68, 0
1, 190419, Note_on_c, 0, 71, 102
1, 190426, Note_on_c, 0, 54, 75
1, 190429, Note_on_c, 0, 45, 59
1, 190458, Note_on_c, 0, 52, 42
1, 190472, Note_on_c, 0, 45, 0
1, 190478, Note_on_c, 0, 54, 0
1, 190497, Note_on_c, 0, 71, 0
1, 190506, Note_on_c, 0, 52, 0
1, 190554, Note_on_c, 0, 69, 81
1, 190561, Note_on_c, 0, 54, 65
1, 190561, Note_on_c, 0, 45, 48
1, 190561, Note_on_c, 0, 52, 81
1, 190609, Note_on_c, 0, 52, 0
1, 190615, Note_on_c, 0, 45, 0
1, 190615, Note_on_c, 0, 54, 0
1, 190624, Note_on_c, 0, 69, 0
1, 190684, Note_on_c, 0, 45, 51
1, 190690, Note_on_c, 0, 54, 65
1, 190693, Note_on_c, 0, 66, 84
1, 190712, Note_on_c, 0, 52, 52
1, 190738, Note_on_c, 0, 45, 0
1, 190748, Note_on_c, 0, 66, 0
1, 190752, Note_on_c, 0, 54, 0
1, 190752, Note_on_c, 0, 52, 0
1, 190841, Note_on_c, 0, 64, 105
1, 190844, Note_on_c, 0, 47, 76
1, 190965, Note_on_c, 0, 56, 64
1, 190972, Note_on_c, 0, 59, 73
1, 190985, Note_on_c, 0, 52, 72
1, 191022, Note_on_c, 0, 59, 0
1, 191025, Note_on_c, 0, 52, 0
1, 191030, Note_on_c, 0, 56, 0
1, 191116, Note_on_c, 0, 56, 59
1, 191116, Note_on_c, 0, 59, 59
1, 191132, Note_on_c, 0, 52, 65
1, 191178, Note_on_c, 0, 59, 0
1, 191200, Note_on_c, 0, 52, 0
1, 191206, Note_on_c, 0, 56, 0
1, 191250, Note_on_c, 0, 45, 86
1, 191250, Note_on_c, 0, 66, 90
1, 191312, Note_on_c, 0, 47, 0
1, 191312, Note_on_c, 0, 64, 0
1, 191376, Note_on_c, 0, 54, 84
1, 191389, Note_on_c, 0, 63, 77
1, 191392, Note_on_c, 0, 59, 73
1, 191398, Note_on_c, 0, 51, 62
1, 191422, Note_on_c, 0, 54, 0
1, 191434, Note_on_c, 0, 59, 0
1, 191450, Note_on_c, 0, 63, 0
1, 191450, Note_on_c, 0, 51, 0
1, 191517, Note_on_c, 0, 63, 74
1, 191525, Control_c, 0, 64, 127
1, 191528, Note_on_c, 0, 59, 76
1, 191528, Note_on_c, 0, 51, 60
1, 191537, Note_on_c, 0, 54, 81
1, 191557, Note_on_c, 0, 45, 0
1, 191575, Note_on_c, 0, 59, 0
1, 191582, Note_on_c, 0, 51, 0
1, 191585, Note_on_c, 0, 54, 0
1, 191606, Note_on_c, 0, 63, 0
1, 191631, Note_on_c, 0, 66, 0
1, 191687, Note_on_c, 0, 44, 94
1, 191687, Note_on_c, 0, 68, 92
1, 191776, Control_c, 0, 64, 0
1, 191840, Note_on_c, 0, 60, 68
1, 191844, Note_on_c, 0, 66, 60
1, 191844, Note_on_c, 0, 63, 64
1, 191852, Note_on_c, 0, 56, 73
1, 191894, Note_on_c, 0, 56, 0
1, 191894, Note_on_c, 0, 63, 0
1, 191908, Note_on_c, 0, 60, 0
1, 191935, Note_on_c, 0, 66, 0
1, 191996, Note_on_c, 0, 66, 55
1, 192000, Note_on_c, 0, 60, 57
1, 192007, Note_on_c, 0, 63, 50
1, 192011, Note_on_c, 0, 56, 63
1, 192058, Note_on_c, 0, 63, 0
1, 192063, Note_on_c, 0, 56, 0
1, 192069, Note_on_c, 0, 60, 0
1, 192102, Note_on_c, 0, 66, 0
1, 192160, Note_on_c, 0, 66, 55
1, 192169, Note_on_c, 0, 60, 55
1, 192169, Note_on_c, 0, 63, 60
1, 192180, Note_on_c, 0, 56, 60
1, 192209, Note_on_c, 0, 63, 0
1, 192216, Note_on_c, 0, 60, 0
1, 192233, Note_on_c, 0, 68, 0
1, 192239, Note_on_c, 0, 56, 0
1, 192256, Note_on_c, 0, 66, 0
1, 192287, Note_on_c, 0, 44, 0
1, 192298, Note_on_c, 0, 68, 66
1, 192306, Note_on_c, 0, 61, 81
1, 192309, Note_on_c, 0, 66, 60
1, 192319, Note_on_c, 0, 46, 50
1, 192342, Note_on_c, 0, 56, 32
1, 192350, Note_on_c, 0, 61, 0
1, 192359, Note_on_c, 0, 66, 0
1, 192376, Note_on_c, 0, 46, 0
1, 192394, Note_on_c, 0, 68, 0
1, 192397, Note_on_c, 0, 56, 0
1, 192440, Note_on_c, 0, 68, 76
1, 192447, Note_on_c, 0, 56, 67
1, 192454, Note_on_c, 0, 63, 68
1, 192458, Note_on_c, 0, 48, 47
1, 192458, Note_on_c, 0, 66, 50
1, 192492, Note_on_c, 0, 63, 0
1, 192507, Note_on_c, 0, 66, 0
1, 192511, Note_on_c, 0, 48, 0
1, 192517, Note_on_c, 0, 68, 0
1, 192525, Note_on_c, 0, 56, 0
1, 192589, Note_on_c, 0, 68, 67
1, 192601, Note_on_c, 0, 49, 71
1, 192601, Note_on_c, 0, 64, 74
1, 192637, Note_on_c, 0, 64, 0
1, 192653, Note_on_c, 0, 49, 0
1, 192660, Note_on_c, 0, 68, 0
1, 192745, Note_on_c, 0, 61, 51
1, 192745, Note_on_c, 0, 76, 63
1, 192755, Note_on_c, 0, 56, 55
1, 192765, Note_on_c, 0, 64, 39
1, 192782, Note_on_c, 0, 76, 0
1, 192791, Note_on_c, 0, 61, 0
1, 192798, Note_on_c, 0, 56, 0
1, 192813, Note_on_c, 0, 64, 0
1, 192882, Note_on_c, 0, 68, 55
1, 192882, Note_on_c, 0, 64, 47
1, 192887, Note_on_c, 0, 49, 55
1, 192927, Note_on_c, 0, 64, 0
1, 192927, Note_on_c, 0, 68, 0
1, 192932, Note_on_c, 0, 49, 0
1, 193024, Note_on_c, 0, 76, 69
1, 193030, Note_on_c, 0, 61, 57
1, 193036, Note_on_c, 0, 64, 44
1, 193055, Note_on_c, 0, 56, 37
1, 193060, Note_on_c, 0, 76, 0
1, 193075, Note_on_c, 0, 61, 0
1, 193081, Note_on_c, 0, 64, 0
1, 193111, Note_on_c, 0, 56, 0
1, 193163, Note_on_c, 0, 68, 64
1, 193169, Note_on_c, 0, 49, 63
1, 193175, Note_on_c, 0, 64, 40
1, 193208, Note_on_c, 0, 49, 0
1, 193208, Note_on_c, 0, 68, 0
1, 193217, Note_on_c, 0, 64, 0
1, 193311, Note_on_c, 0, 64, 59
1, 193311, Note_on_c, 0, 61, 48
1, 193315, Note_on_c, 0, 76, 61
1, 193323, Note_on_c, 0, 56, 48
1, 193347, Note_on_c, 0, 64, 0
1, 193353, Note_on_c, 0, 76, 0
1, 193364, Note_on_c, 0, 61, 0
1, 193372, Note_on_c, 0, 56, 0
1, 193447, Note_on_c, 0, 68, 69
1, 193457, Note_on_c, 0, 47, 61
1, 193457, Note_on_c, 0, 65, 57
1, 193493, Note_on_c, 0, 47, 0
1, 193493, Note_on_c, 0, 68, 0
1, 193496, Note_on_c, 0, 65, 0
1, 193590, Note_on_c, 0, 77, 69
1, 193590, Note_on_c, 0, 65, 50
1, 193593, Note_on_c, 0, 62, 64
1, 193601, Note_on_c, 0, 56, 62
1, 193624, Note_on_c, 0, 77, 0
1, 193629, Note_on_c, 0, 62, 0
1, 193632, Note_on_c, 0, 65, 0
1, 193642, Note_on_c, 0, 56, 0
1, 193726, Note_on_c, 0, 68, 73
1, 193729, Note_on_c, 0, 47, 74
1, 193737, Note_on_c, 0, 65, 39
1, 193762, Note_on_c, 0, 47, 0
1, 193768, Note_on_c, 0, 68, 0
1, 193782, Note_on_c, 0, 65, 0
1, 193866, Note_on_c, 0, 77, 94
1, 193869, Note_on_c, 0, 62, 78
1, 193869, Note_on_c, 0, 65, 67
1, 193872, Note_on_c, 0, 56, 76
1, 193894, Note_on_c, 0, 77, 0
1, 193902, Note_on_c, 0, 62, 0
1, 193916, Note_on_c, 0, 56, 0
1, 193919, Note_on_c, 0, 65, 0
1, 193999, Note_on_c, 0, 68, 81
1, 194006, Note_on_c, 0, 47, 74
1, 194006, Note_on_c, 0, 65, 33
1, 194036, Note_on_c, 0, 68, 0
1, 194039, Note_on_c, 0, 47, 0
1, 194058, Note_on_c, 0, 65, 0
1, 194141, Note_on_c, 0, 62, 67
1, 194147, Note_on_c, 0, 77, 97
1, 194147, Note_on_c, 0, 65, 66
1, 194147, Note_on_c, 0, 56, 69
1, 194178, Note_on_c, 0, 62, 0
1, 194181, Note_on_c, 0, 77, 0
1, 194181, Note_on_c, 0, 56, 0
1, 194189, Note_on_c, 0, 65, 0
1, 194287, Note_on_c, 0, 78, 88
1, 194291, Note_on_c, 0, 66, 81
1, 194294, Note_on_c, 0, 45, 81
1, 194328, Note_on_c, 0, 45, 0
1, 194344, Note_on_c, 0, 66, 0
1, 194348, Note_on_c, 0, 78, 0
1, 194430, Note_on_c, 0, 57, 68
1, 194430, Note_on_c, 0, 66, 61
1, 194433, Note_on_c, 0, 76, 66
1, 194442, Note_on_c, 0, 61, 34
1, 194470, Note_on_c, 0, 76, 0
1, 194482, Note_on_c, 0, 66, 0
1, 194489, Note_on_c, 0, 57, 0
1, 194492, Note_on_c, 0, 61, 0
1, 194571, Note_on_c, 0, 45, 87
1, 194576, Note_on_c, 0, 66, 56
1, 194576, Note_on_c, 0, 73, 61
1, 194601, Note_on_c, 0, 45, 0
1, 194618, Note_on_c, 0, 73, 0
1, 194621, Note_on_c, 0, 66, 0
1, 194699, Note_on_c, 0, 61, 91
1, 194702, Note_on_c, 0, 78, 93
1, 194707, Note_on_c, 0, 66, 78
1, 194710, Note_on_c, 0, 57, 63
1, 194735, Note_on_c, 0, 61, 0
1, 194749, Note_on_c, 0, 57, 0
1, 194771, Note_on_c, 0, 66, 0
1, 194804, Note_on_c, 0, 78, 0
1, 194851, Note_on_c, 0, 66, 57
1, 194851, Note_on_c, 0, 45, 74
1, 194858, Note_on_c, 0, 76, 60
1, 194888, Note_on_c, 0, 45, 0
1, 194896, Note_on_c, 0, 76, 0
1, 194896, Note_on_c, 0, 66, 0
1, 194978, Note_on_c, 0, 61, 85
1, 194989, Note_on_c, 0, 73, 69
1, 194989, Note_on_c, 0, 57, 65
1, 194993, Note_on_c, 0, 66, 49
1, 195013, Note_on_c, 0, 61, 0
1, 195027, Note_on_c, 0, 73, 0
1, 195027, Note_on_c, 0, 57, 0
1, 195036, Note_on_c, 0, 66, 0
1, 195117, Note_on_c, 0, 46, 92
1, 195117, Note_on_c, 0, 55, 104
1, 195117, Note_on_c, 0, 79, 108
1, 195122, Note_on_c, 0, 67, 97
1, 195122, Note_on_c, 0, 49, 88
1, 195141, Note_on_c, 0, 52, 70
1, 195148, Note_on_c, 0, 55, 0
1, 195158, Note_on_c, 0, 49, 0
1, 195158, Note_on_c, 0, 67, 0
1, 195158, Note_on_c, 0, 46, 0
1, 195175, Note_on_c, 0, 52, 0
1, 195175, Note_on_c, 0, 79, 0
1, 195261, Note_on_c, 0, 76, 74
1, 195261, Note_on_c, 0, 46, 75
1, 195261, Note_on_c, 0, 67, 77
1, 195267, Note_on_c, 0, 55, 74
1, 195267, Note_on_c, 0, 49, 81
1, 195292, Note_on_c, 0, 52, 33
1, 195298, Note_on_c, 0, 76, 0
1, 195303, Note_on_c, 0, 49, 0
1, 195303, Note_on_c, 0, 46, 0
1, 195303, Note_on_c, 0, 67, 0
1, 195309, Note_on_c, 0, 55, 0
1, 195342, Note_on_c, 0, 52, 0
1, 195389, Note_on_c, 0, 73, 81
1, 195392, Note_on_c, 0, 55, 69
1, 195392, Note_on_c, 0, 67, 64
1, 195398, Note_on_c, 0, 52, 85
1, 195398, Note_on_c, 0, 49, 63
1, 195398, Note_on_c, 0, 46, 66
1, 195436, Note_on_c, 0, 52, 0
1, 195436, Note_on_c, 0, 55, 0
1, 195439, Note_on_c, 0, 49, 0
1, 195439, Note_on_c, 0, 67, 0
1, 195443, Note_on_c, 0, 46, 0
1, 195454, Note_on_c, 0, 73, 0
1, 195518, Note_on_c, 0, 67, 95
1, 195518, Note_on_c, 0, 79, 113
1, 195529, Note_on_c, 0, 55, 92
1, 195529, Note_on_c, 0, 49, 81
1, 195529, Note_on_c, 0, 46, 74
1, 195546, Note_on_c, 0, 52, 67
1, 195570, Note_on_c, 0, 46, 0
1, 195570, Note_on_c, 0, 55, 0
1, 195579, Note_on_c, 0, 49, 0
1, 195579, Note_on_c, 0, 52, 0
1, 195585, Note_on_c, 0, 67, 0
1, 195612, Note_on_c, 0, 79, 0
1, 195651, Note_on_c, 0, 49, 76
1, 195654, Note_on_c, 0, 67, 86
1, 195654, Note_on_c, 0, 55, 80
1, 195654, Note_on_c, 0, 46, 70
1, 195657, Note_on_c, 0, 76, 93
1, 195668, Note_on_c, 0, 52, 54
1, 195699, Note_on_c, 0, 46, 0
1, 195699, Note_on_c, 0, 55, 0
1, 195707, Note_on_c, 0, 52, 0
1, 195712, Note_on_c, 0, 67, 0
1, 195712, Note_on_c, 0, 76, 0
1, 195733, Note_on_c, 0, 49, 0
1, 195783, Note_on_c, 0, 46, 82
1, 195787, Note_on_c, 0, 49, 71
1, 195791, Note_on_c, 0, 55, 74
1, 195791, Note_on_c, 0, 73, 91
1, 195794, Note_on_c, 0, 67, 73
1, 195799, Note_on_c, 0, 52, 59
1, 195827, Note_on_c, 0, 49, 0
1, 195827, Note_on_c, 0, 46, 0
1, 195832, Note_on_c, 0, 67, 0
1, 195832, Note_on_c, 0, 52, 0
1, 195836, Note_on_c, 0, 55, 0
1, 195863, Note_on_c, 0, 73, 0
1, 195960, Note_on_c, 0, 56, 97
1, 195960, Note_on_c, 0, 59, 108
1, 195960, Note_on_c, 0, 80, 111
1, 195960, Note_on_c, 0, 68, 102
1, 195964, Note_on_c, 0, 47, 97
1, 195964, Note_on_c, 0, 52, 90
1, 196019, Note_on_c, 0, 59, 0
1, 196028, Note_on_c, 0, 52, 0
1, 196035, Note_on_c, 0, 68, 0
1, 196041, Note_on_c, 0, 47, 0
1, 196050, Note_on_c, 0, 56, 0
1, 196067, Note_on_c, 0, 80, 0
1, 196108, Note_on_c, 0, 56, 61
1, 196108, Note_on_c, 0, 47, 70
1, 196111, Note_on_c, 0, 52, 80
1, 196111, Note_on_c, 0, 59, 89
1, 196117, Note_on_c, 0, 68, 82
1, 196117, Note_on_c, 0, 76, 85
1, 196159, Note_on_c, 0, 76, 0
1, 196183, Note_on_c, 0, 59, 0
1, 196192, Note_on_c, 0, 52, 0
1, 196192, Note_on_c, 0, 47, 0
1, 196203, Note_on_c, 0, 56, 0
1, 196211, Note_on_c, 0, 68, 0
1, 196406, Note_on_c, 0, 71, 105
1, 196406, Note_on_c, 0, 59, 101
1, 196406, Note_on_c, 0, 56, 89
1, 196406, Note_on_c, 0, 64, 100
1, 196414, Note_on_c, 0, 47, 86
1, 196418, Note_on_c, 0, 52, 93
1, 196446, Note_on_c, 0, 59, 0
1, 196451, Note_on_c, 0, 52, 0
1, 196456, Note_on_c, 0, 64, 0
1, 196460, Note_on_c, 0, 47, 0
1, 196481, Note_on_c, 0, 71, 0
1, 196485, Note_on_c, 0, 56, 0
1, 196554, Note_on_c, 0, 59, 96
1, 196554, Note_on_c, 0, 68, 82
1, 196559, Note_on_c, 0, 56, 52
1, 196567, Note_on_c, 0, 52, 80
1, 196567, Note_on_c, 0, 64, 85
1, 196573, Note_on_c, 0, 47, 40
1, 196604, Note_on_c, 0, 64, 0
1, 196612, Note_on_c, 0, 59, 0
1, 196623, Note_on_c, 0, 52, 0
1, 196623, Note_on_c, 0, 47, 0
1, 196651, Note_on_c, 0, 56, 0
1, 196673, Note_on_c, 0, 68, 0
1, 196868, Note_on_c, 0, 57, 98
1, 196872, Note_on_c, 0, 73, 92
1, 196872, Note_on_c, 0, 47, 96
1, 196872, Note_on_c, 0, 54, 101
1, 196877, Note_on_c, 0, 63, 99
1, 196919, Note_on_c, 0, 47, 0
1, 196919, Note_on_c, 0, 57, 0
1, 196930, Note_on_c, 0, 63, 0
1, 196933, Note_on_c, 0, 54, 0
1, 196955, Control_c, 0, 64, 127
1, 196978, Control_c, 0, 64, 0
1, 196986, Note_on_c, 0, 73, 0
1, 197038, Note_on_c, 0, 57, 78
1, 197038, Note_on_c, 0, 63, 89
1, 197038, Note_on_c, 0, 47, 86
1, 197045, Note_on_c, 0, 71, 90
1, 197050, Note_on_c, 0, 54, 73
1, 197083, Note_on_c, 0, 57, 0
1, 197088, Note_on_c, 0, 47, 0
1, 197095, Note_on_c, 0, 54, 0
1, 197136, Note_on_c, 0, 63, 0
1, 197139, Note_on_c, 0, 71, 0
1, 197329, Note_on_c, 0, 69, 83
1, 197333, Note_on_c, 0, 57, 92
1, 197333, Note_on_c, 0, 63, 93
1, 197336, Note_on_c, 0, 47, 95
1, 197336, Note_on_c, 0, 54, 95
1, 197381, Note_on_c, 0, 54, 0
1, 197381, Note_on_c, 0, 63, 0
1, 197381, Note_on_c, 0, 57, 0
1, 197393, Note_on_c, 0, 47, 0
1, 197420, Note_on_c, 0, 69, 0
1, 197478, Note_on_c, 0, 66, 75
1, 197490, Note_on_c, 0, 63, 65
1, 197496, Note_on_c, 0, 47, 72
1, 197499, Note_on_c, 0, 57, 62
1, 197499, Note_on_c, 0, 54, 64
1, 197537, Note_on_c, 0, 63, 0
1, 197542, Note_on_c, 0, 57, 0
1, 197546, Note_on_c, 0, 54, 0
1, 197574, Note_on_c, 0, 47, 0
1, 197591, Note_on_c, 0, 66, 0
1, 197822, Note_on_c, 0, 68, 68
1, 197825, Note_on_c, 0, 40, 103
1, 197841, Control_c, 0, 64, 127
1, 197850, Note_on_c, 0, 40, 0
1, 197878, Note_on_c, 0, 68, 0
1, 197894, Note_on_c, 0, 64, 52
1, 197936, Note_on_c, 0, 64, 0
1, 197944, Note_on_c, 0, 59, 70
1, 197956, Note_on_c, 0, 56, 72
1, 197974, Note_on_c, 0, 47, 46
1, 197981, Note_on_c, 0, 59, 0
1, 197985, Note_on_c, 0, 52, 37
1, 197997, Note_on_c, 0, 64, 72
1, 198005, Note_on_c, 0, 56, 0
1, 198022, Note_on_c, 0, 47, 0
1, 198042, Note_on_c, 0, 64, 0
1, 198052, Note_on_c, 0, 56, 55
1, 198058, Note_on_c, 0, 68, 71
1, 198066, Note_on_c, 0, 47, 52
1, 198088, Note_on_c, 0, 68, 0
1, 198094, Note_on_c, 0, 56, 0
1, 198106, Note_on_c, 0, 47, 0
1, 198112, Note_on_c, 0, 52, 0
1, 198125, Note_on_c, 0, 71, 96
1, 198181, Note_on_c, 0, 47, 51
1, 198181, Note_on_c, 0, 56, 64
1, 198186, Note_on_c, 0, 52, 72
1, 198186, Note_on_c, 0, 76, 82
1, 198233, Note_on_c, 0, 71, 0
1, 198250, Note_on_c, 0, 80, 87
1, 198256, Note_on_c, 0, 56, 0
1, 198264, Note_on_c, 0, 52, 0
1, 198273, Note_on_c, 0, 47, 0
1, 198289, Note_on_c, 0, 76, 0
1, 198311, Note_on_c, 0, 83, 115
1, 198318, Note_on_c, 0, 80, 0
1, 198373, Note_on_c, 0, 80, 87
1, 198410, Note_on_c, 0, 83, 0
1, 198435, Note_on_c, 0, 76, 72
1, 198479, Note_on_c, 0, 80, 0
1, 198482, Note_on_c, 0, 76, 0
1, 198488, Note_on_c, 0, 71, 96
1, 198518, Note_on_c, 0, 71, 0
1, 198535, Control_c, 0, 64, 0
1, 198595, Note_on_c, 0, 40, 115
1, 198595, Note_on_c, 0, 68, 71
1, 198621, Note_on_c, 0, 40, 0
1, 198626, Note_on_c, 0, 68, 0
1, 198638, Note_on_c, 0, 64, 82
1, 198680, Control_c, 0, 64, 127
1, 198688, Note_on_c, 0, 64, 0
1, 198696, Note_on_c, 0, 59, 89
1, 198719, Note_on_c, 0, 56, 86
1, 198740, Note_on_c, 0, 59, 0
1, 198760, Note_on_c, 0, 56, 0
1, 198772, Note_on_c, 0, 64, 84
1, 198810, Note_on_c, 0, 64, 0
1, 198819, Note_on_c, 0, 68, 78
1, 198822, Note_on_c, 0, 47, 84
1, 198825, Note_on_c, 0, 56, 50
1, 198843, Note_on_c, 0, 52, 81
1, 198855, Note_on_c, 0, 68, 0
1, 198877, Note_on_c, 0, 47, 0
1, 198877, Note_on_c, 0, 52, 0
1, 198891, Note_on_c, 0, 71, 102
1, 198897, Note_on_c, 0, 56, 0
1, 198953, Note_on_c, 0, 56, 73
1, 198956, Note_on_c, 0, 76, 84
1, 198964, Note_on_c, 0, 47, 54
1, 198964, Note_on_c, 0, 52, 64
1, 198986, Note_on_c, 0, 71, 0
1, 199005, Note_on_c, 0, 52, 0
1, 199008, Note_on_c, 0, 47, 0
1, 199013, Note_on_c, 0, 56, 0
1, 199020, Note_on_c, 0, 80, 93
1, 199038, Note_on_c, 0, 76, 0
1, 199064, Note_on_c, 0, 78, 36
1, 199092, Note_on_c, 0, 83, 115
1, 199100, Note_on_c, 0, 80, 0
1, 199117, Note_on_c, 0, 78, 0
1, 199148, Note_on_c, 0, 80, 84
1, 199205, Note_on_c, 0, 76, 69
1, 199231, Note_on_c, 0, 83, 0
1, 199231, Control_c, 0, 64, 0
1, 199248, Note_on_c, 0, 71, 90
1, 199256, Note_on_c, 0, 80, 0
1, 199267, Note_on_c, 0, 76, 0
1, 199278, Note_on_c, 0, 71, 0
1, 199332, Note_on_c, 0, 46, 59
1, 199340, Note_on_c, 0, 85, 88
1, 199387, Note_on_c, 0, 46, 0
1, 199395, Note_on_c, 0, 82, 79
1, 199406, Note_on_c, 0, 85, 0
1, 199410, Control_c, 0, 64, 127
1, 199456, Note_on_c, 0, 61, 76
1, 199462, Note_on_c, 0, 88, 79
1, 199462, Note_on_c, 0, 52, 39
1, 199470, Note_on_c, 0, 82, 0
1, 199470, Note_on_c, 0, 54, 29
1, 199493, Note_on_c, 0, 61, 0
1, 199493, Note_on_c, 0, 88, 0
1, 199509, Note_on_c, 0, 79, 78
1, 199515, Note_on_c, 0, 52, 0
1, 199520, Note_on_c, 0, 54, 0
1, 199552, Note_on_c, 0, 79, 0
1, 199568, Note_on_c, 0, 82, 68
1, 199568, Note_on_c, 0, 61, 40
1, 199575, Note_on_c, 0, 52, 39
1, 199583, Note_on_c, 0, 54, 29
1, 199619, Note_on_c, 0, 61, 0
1, 199626, Note_on_c, 0, 52, 0
1, 199626, Note_on_c, 0, 78, 71
1, 199633, Note_on_c, 0, 54, 0
1, 199665, Note_on_c, 0, 82, 0
1, 199682, Note_on_c, 0, 85, 84
1, 199682, Note_on_c, 0, 61, 58
1, 199707, Note_on_c, 0, 78, 0
1, 199716, Note_on_c, 0, 54, 50
1, 199732, Note_on_c, 0, 52, 64
1, 199735, Note_on_c, 0, 76, 60
1, 199765, Note_on_c, 0, 85, 0
1, 199774, Note_on_c, 0, 61, 0
1, 199774, Note_on_c, 0, 54, 0
1, 199782, Note_on_c, 0, 52, 0
1, 199786, Note_on_c, 0, 76, 0
1, 199797, Note_on_c, 0, 78, 69
1, 199875, Note_on_c, 0, 75, 71
1, 199892, Note_on_c, 0, 78, 0
1, 199914, Note_on_c, 0, 75, 0
1, 199914, Note_on_c, 0, 82, 71
1, 199927, Control_c, 0, 64, 0
1, 199967, Note_on_c, 0, 73, 59
1, 199989, Note_on_c, 0, 82, 0
1, 200020, Note_on_c, 0, 73, 0
1, 200020, Note_on_c, 0, 47, 62
1, 200031, Note_on_c, 0, 78, 75
1, 200062, Note_on_c, 0, 47, 0
1, 200081, Note_on_c, 0, 75, 60
1, 200106, Control_c, 0, 64, 127
1, 200128, Note_on_c, 0, 78, 0
1, 200132, Note_on_c, 0, 57, 59
1, 200137, Note_on_c, 0, 51, 60
1, 200140, Note_on_c, 0, 81, 65
1, 200158, Note_on_c, 0, 54, 35
1, 200170, Note_on_c, 0, 75, 0
1, 200175, Note_on_c, 0, 81, 0
1, 200175, Note_on_c, 0, 57, 0
1, 200179, Note_on_c, 0, 51, 0
1, 200192, Note_on_c, 0, 72, 62
1, 200209, Note_on_c, 0, 54, 0
1, 200236, Note_on_c, 0, 72, 0
1, 200243, Note_on_c, 0, 51, 60
1, 200243, Note_on_c, 0, 57, 43
1, 200267, Note_on_c, 0, 75, 59
1, 200278, Note_on_c, 0, 54, 56
1, 200295, Note_on_c, 0, 57, 0
1, 200301, Note_on_c, 0, 51, 0
1, 200323, Note_on_c, 0, 54, 0
1, 200323, Note_on_c, 0, 71, 63
1, 200357, Note_on_c, 0, 75, 0
1, 200381, Note_on_c, 0, 71, 0
1, 200381, Note_on_c, 0, 78, 73
1, 200393, Note_on_c, 0, 57, 48
1, 200398, Note_on_c, 0, 54, 40
1, 200403, Note_on_c, 0, 51, 63
1, 200424, Note_on_c, 0, 69, 67
1, 200438, Note_on_c, 0, 57, 0
1, 200445, Note_on_c, 0, 54, 0
1, 200448, Note_on_c, 0, 78, 0
1, 200456, Note_on_c, 0, 51, 0
1, 200481, Note_on_c, 0, 69, 0
1, 200499, Note_on_c, 0, 71, 80
1, 200557, Note_on_c, 0, 71, 0
1, 200557, Note_on_c, 0, 68, 65
1, 200604, Note_on_c, 0, 68, 0
1, 200609, Note_on_c, 0, 75, 74
1, 200621, Control_c, 0, 64, 0
1, 200655, Note_on_c, 0, 66, 56
1, 200671, Note_on_c, 0, 75, 0
1, 200705, Note_on_c, 0, 66, 0
1, 200754, Note_on_c, 0, 68, 85
1, 200754, Note_on_c, 0, 40, 110
1, 200779, Note_on_c, 0, 40, 0
1, 200813, Note_on_c, 0, 64, 72
1, 200825, Control_c, 0, 64, 127
1, 200855, Note_on_c, 0, 68, 0
1, 200871, Note_on_c, 0, 64, 0
1, 200877, Note_on_c, 0, 56, 81
1, 200885, Note_on_c, 0, 59, 86
1, 200896, Note_on_c, 0, 52, 47
1, 200896, Note_on_c, 0, 47, 48
1, 200913, Note_on_c, 0, 56, 0
1, 200917, Note_on_c, 0, 59, 0
1, 200942, Note_on_c, 0, 52, 0
1, 200942, Note_on_c, 0, 47, 0
1, 200958, Note_on_c, 0, 64, 76
1, 200963, Note_on_c, 0, 56, 67
1, 200988, Note_on_c, 0, 47, 59
1, 200992, Note_on_c, 0, 64, 0
1, 200992, Note_on_c, 0, 52, 70
1, 201003, Note_on_c, 0, 68, 79
1, 201028, Note_on_c, 0, 47, 0
1, 201032, Note_on_c, 0, 68, 0
1, 201032, Note_on_c, 0, 52, 0
1, 201037, Note_on_c, 0, 56, 0
1, 201077, Note_on_c, 0, 71, 97
1, 201123, Note_on_c, 0, 56, 67
1, 201130, Note_on_c, 0, 52, 72
1, 201130, Note_on_c, 0, 47, 58
1, 201136, Note_on_c, 0, 76, 95
1, 201175, Note_on_c, 0, 71, 0
1, 201192, Note_on_c, 0, 56, 0
1, 201198, Note_on_c, 0, 52, 0
1, 201208, Note_on_c, 0, 80, 92
1, 201222, Note_on_c, 0, 47, 0
1, 201222, Note_on_c, 0, 76, 0
1, 201270, Note_on_c, 0, 83, 115
1, 201290, Note_on_c, 0, 80, 0
1, 201329, Note_on_c, 0, 80, 95
1, 201378, Note_on_c, 0, 83, 0
1, 201393, Note_on_c, 0, 76, 75
1, 201431, Note_on_c, 0, 80, 0
1, 201437, Control_c, 0, 64, 0
1, 201448, Note_on_c, 0, 71, 102
1, 201463, Note_on_c, 0, 76, 0
1, 201476, Note_on_c, 0, 71, 0
1, 201529, Note_on_c, 0, 40, 104
1, 201540, Note_on_c, 0, 68, 84
1, 201554, Note_on_c, 0, 40, 0
1, 201590, Note_on_c, 0, 64, 76
1, 201604, Control_c, 0, 64, 127
1, 201632, Note_on_c, 0, 64, 0
1, 201647, Note_on_c, 0, 59, 98
1, 201658, Note_on_c, 0, 56, 90
1, 201679, Note_on_c, 0, 68, 0
1, 201691, Note_on_c, 0, 59, 0
1, 201697, Note_on_c, 0, 56, 0
1, 201704, Note_on_c, 0, 52, 36
1, 201729, Note_on_c, 0, 64, 68
1, 201754, Note_on_c, 0, 56, 73
1, 201754, Note_on_c, 0, 47, 11
1, 201764, Note_on_c, 0, 64, 0
1, 201775, Note_on_c, 0, 68, 77
1, 201803, Note_on_c, 0, 68, 0
1, 201819, Note_on_c, 0, 47, 0
1, 201819, Note_on_c, 0, 56, 0
1, 201827, Note_on_c, 0, 52, 0
1, 201844, Note_on_c, 0, 71, 106
1, 201889, Note_on_c, 0, 56, 82
1, 201899, Note_on_c, 0, 52, 77
1, 201899, Note_on_c, 0, 47, 53
1, 201914, Note_on_c, 0, 76, 84
1, 201950, Note_on_c, 0, 71, 0
1, 201961, Note_on_c, 0, 47, 0
1, 201966, Note_on_c, 0, 56, 0
1, 201969, Note_on_c, 0, 80, 94
1, 201975, Note_on_c, 0, 52, 0
1, 201998, Note_on_c, 0, 76, 0
1, 202001, Note_on_c, 0, 78, 38
1, 202033, Note_on_c, 0, 83, 115
1, 202053, Note_on_c, 0, 78, 0
1, 202053, Note_on_c, 0, 80, 0
1, 202094, Note_on_c, 0, 80, 92
1, 202137, Note_on_c, 0, 76, 70
1, 202156, Note_on_c, 0, 83, 0
1, 202156, Control_c, 0, 64, 0
1, 202178, Note_on_c, 0, 71, 88
1, 202186, Note_on_c, 0, 76, 0
1, 202186, Note_on_c, 0, 80, 0
1, 202207, Note_on_c, 0, 71, 0
1, 202257, Note_on_c, 0, 46, 71
1, 202282, Note_on_c, 0, 82, 88
1, 202331, Note_on_c, 0, 46, 0
1, 202346, Note_on_c, 0, 85, 84
1, 202359, Control_c, 0, 64, 127
1, 202385, Note_on_c, 0, 82, 0
1, 202388, Note_on_c, 0, 61, 76
1, 202401, Note_on_c, 0, 52, 70
1, 202407, Note_on_c, 0, 54, 59
1, 202410, Note_on_c, 0, 88, 82
1, 202429, Note_on_c, 0, 61, 0
1, 202435, Note_on_c, 0, 52, 0
1, 202445, Note_on_c, 0, 85, 0
1, 202445, Note_on_c, 0, 54, 0
1, 202452, Note_on_c, 0, 88, 0
1, 202452, Note_on_c, 0, 79, 83
1, 202498, Note_on_c, 0, 54, 68
1, 202498, Note_on_c, 0, 52, 74
1, 202501, Note_on_c, 0, 61, 56
1, 202521, Note_on_c, 0, 79, 0
1, 202521, Note_on_c, 0, 78, 89
1, 202540, Note_on_c, 0, 52, 0
1, 202548, Note_on_c, 0, 61, 0
1, 202548, Note_on_c, 0, 54, 0
1, 202576, Note_on_c, 0, 82, 74
1, 202612, Note_on_c, 0, 78, 0
1, 202629, Note_on_c, 0, 61, 68
1, 202629, Note_on_c, 0, 85, 81
1, 202641, Note_on_c, 0, 52, 77
1, 202644, Note_on_c, 0, 54, 59
1, 202660, Note_on_c, 0, 82, 0
1, 202666, Note_on_c, 0, 77, 71
1, 202688, Note_on_c, 0, 85, 0
1, 202711, Note_on_c, 0, 52, 0
1, 202716, Note_on_c, 0, 61, 0
1, 202732, Note_on_c, 0, 77, 0
1, 202738, Note_on_c, 0, 76, 82
1, 202744, Note_on_c, 0, 54, 0
1, 202808, Note_on_c, 0, 78, 88
1, 202833, Note_on_c, 0, 76, 0
1, 202858, Note_on_c, 0, 82, 69
1, 202886, Control_c, 0, 64, 0
1, 202894, Note_on_c, 0, 78, 0
1, 202911, Note_on_c, 0, 73, 73
1, 202942, Note_on_c, 0, 82, 0
1, 202966, Note_on_c, 0, 73, 0
1, 202975, Note_on_c, 0, 47, 72
1, 202983, Note_on_c, 0, 75, 77
1, 203014, Note_on_c, 0, 47, 0
1, 203028, Note_on_c, 0, 78, 79
1, 203067, Control_c, 0, 64, 127
1, 203086, Note_on_c, 0, 75, 0
1, 203092, Note_on_c, 0, 51, 70
1, 203092, Note_on_c, 0, 81, 82
1, 203092, Note_on_c, 0, 57, 61
1, 203100, Note_on_c, 0, 54, 60
1, 203126, Note_on_c, 0, 78, 0
1, 203131, Note_on_c, 0, 51, 0
1, 203131, Note_on_c, 0, 81, 0
1, 203134, Note_on_c, 0, 72, 58
1, 203137, Note_on_c, 0, 57, 0
1, 203140, Note_on_c, 0, 54, 0
1, 203197, Note_on_c, 0, 57, 57
1, 203197, Note_on_c, 0, 54, 63
1, 203201, Note_on_c, 0, 51, 62
1, 203207, Note_on_c, 0, 71, 94
1, 203210, Note_on_c, 0, 72, 0
1, 203257, Note_on_c, 0, 71, 0
1, 203265, Note_on_c, 0, 51, 0
1, 203265, Note_on_c, 0, 54, 0
1, 203268, Note_on_c, 0, 57, 0
1, 203271, Note_on_c, 0, 75, 76
1, 203320, Note_on_c, 0, 78, 69
1, 203331, Note_on_c, 0, 57, 66
1, 203346, Note_on_c, 0, 54, 63
1, 203346, Note_on_c, 0, 51, 71
1, 203382, Note_on_c, 0, 57, 0
1, 203382, Note_on_c, 0, 70, 81
1, 203385, Note_on_c, 0, 54, 0
1, 203390, Note_on_c, 0, 51, 0
1, 203396, Note_on_c, 0, 75, 0
1, 203429, Note_on_c, 0, 78, 0
1, 203437, Note_on_c, 0, 70, 0
1, 203449, Note_on_c, 0, 69, 62
1, 203494, Note_on_c, 0, 69, 0
1, 203510, Control_c, 0, 64, 0
1, 203515, Note_on_c, 0, 66, 78
1, 203562, Note_on_c, 0, 71, 75
1, 203610, Note_on_c, 0, 66, 0
1, 203632, Note_on_c, 0, 63, 74
1, 203665, Note_on_c, 0, 71, 0
1, 203672, Note_on_c, 0, 63, 0
1, 203705, Note_on_c, 0, 52, 91
1, 203705, Note_on_c, 0, 68, 74
1, 203760, Note_on_c, 0, 66, 66
1, 203799, Note_on_c, 0, 68, 0
1, 203803, Note_on_c, 0, 66, 0
1, 203825, Note_on_c, 0, 64, 79
1, 203870, Note_on_c, 0, 64, 0
1, 203877, Note_on_c, 0, 66, 50
1, 203934, Note_on_c, 0, 68, 69
1, 203967, Note_on_c, 0, 66, 0
1, 203980, Note_on_c, 0, 68, 0
1, 204000, Note_on_c, 0, 69, 65
1, 204042, Note_on_c, 0, 69, 0
1, 204075, Note_on_c, 0, 56, 79
1, 204075, Note_on_c, 0, 71, 95
1, 204075, Note_on_c, 0, 59, 79
1, 204143, Note_on_c, 0, 69, 75
1, 204173, Note_on_c, 0, 71, 0
1, 204190, Note_on_c, 0, 69, 0
1, 204196, Note_on_c, 0, 68, 86
1, 204245, Note_on_c, 0, 68, 0
1, 204260, Note_on_c, 0, 69, 58
1, 204326, Note_on_c, 0, 71, 95
1, 204360, Note_on_c, 0, 56, 0
1, 204363, Note_on_c, 0, 69, 0
1, 204363, Note_on_c, 0, 59, 0
1, 204395, Note_on_c, 0, 71, 0
1, 204395, Note_on_c, 0, 73, 85
1, 204470, Note_on_c, 0, 51, 83
1, 204473, Note_on_c, 0, 75, 89
1, 204473, Note_on_c, 0, 59, 87
1, 204479, Note_on_c, 0, 54, 82
1, 204484, Note_on_c, 0, 73, 0
1, 204490, Note_on_c, 0, 52, 0
1, 204532, Note_on_c, 0, 73, 74
1, 204587, Note_on_c, 0, 75, 0
1, 204605, Note_on_c, 0, 71, 91
1, 204613, Note_on_c, 0, 73, 0
1, 204679, Note_on_c, 0, 73, 63
1, 204691, Note_on_c, 0, 71, 0
1, 204710, Note_on_c, 0, 59, 0
1, 204735, Note_on_c, 0, 75, 92
1, 204763, Note_on_c, 0, 73, 0
1, 204796, Note_on_c, 0, 75, 0
1, 204796, Note_on_c, 0, 51, 0
1, 204802, Note_on_c, 0, 54, 0
1, 204806, Note_on_c, 0, 76, 88
1, 204841, Note_on_c, 0, 76, 0
1, 204853, Note_on_c, 0, 52, 91
1, 204856, Note_on_c, 0, 59, 85
1, 204856, Note_on_c, 0, 50, 78
1, 204870, Note_on_c, 0, 77, 100
1, 204916, Note_on_c, 0, 77, 0
1, 204938, Note_on_c, 0, 76, 87
1, 204972, Note_on_c, 0, 76, 0
1, 204997, Note_on_c, 0, 78, 95
1, 205020, Control_c, 0, 64, 127
1, 205048, Note_on_c, 0, 78, 0
1, 205055, Note_on_c, 0, 76, 84
1, 205100, Note_on_c, 0, 76, 0
1, 205112, Note_on_c, 0, 52, 0
1, 205120, Note_on_c, 0, 80, 99
1, 205145, Note_on_c, 0, 59, 0
1, 205164, Control_c, 0, 64, 0
1, 205189, Note_on_c, 0, 50, 0
1, 205189, Note_on_c, 0, 76, 85
1, 205200, Note_on_c, 0, 80, 0
1, 205223, Note_on_c, 0, 76, 0
1, 205232, Note_on_c, 0, 57, 84
1, 205239, Note_on_c, 0, 49, 84
1, 205242, Note_on_c, 0, 52, 82
1, 205242, Note_on_c, 0, 81, 102
1, 205301, Note_on_c, 0, 52, 0
1, 205312, Control_c, 0, 64, 127
1, 205315, Note_on_c, 0, 76, 86
1, 205318, Note_on_c, 0, 57, 0
1, 205327, Note_on_c, 0, 81, 0
1, 205331, Note_on_c, 0, 49, 0
1, 205381, Note_on_c, 0, 78, 92
1, 205395, Note_on_c, 0, 76, 0
1, 205402, Control_c, 0, 64, 0
1, 205441, Note_on_c, 0, 80, 88
1, 205474, Note_on_c, 0, 80, 0
1, 205474, Note_on_c, 0, 78, 0
1, 205504, Note_on_c, 0, 81, 96
1, 205563, Note_on_c, 0, 81, 0
1, 205571, Note_on_c, 0, 83, 111
1, 205616, Note_on_c, 0, 64, 103
1, 205621, Note_on_c, 0, 61, 90
1, 205621, Note_on_c, 0, 85, 94
1, 205630, Note_on_c, 0, 57, 74
1, 205635, Note_on_c, 0, 83, 0
1, 205694, Note_on_c, 0, 83, 106
1, 205714, Control_c, 0, 64, 127
1, 205732, Note_on_c, 0, 83, 0
1, 205736, Note_on_c, 0, 85, 0
1, 205746, Note_on_c, 0, 81, 90
1, 205808, Note_on_c, 0, 61, 0
1, 205822, Note_on_c, 0, 57, 0
1, 205828, Note_on_c, 0, 83, 111
1, 205831, Note_on_c, 0, 64, 0
1, 205842, Note_on_c, 0, 81, 0
1, 205884, Note_on_c, 0, 85, 93
1, 205908, Note_on_c, 0, 83, 0
1, 205942, Control_c, 0, 64, 0
1, 205948, Note_on_c, 0, 85, 0
1, 205956, Note_on_c, 0, 86, 91
1, 206001, Note_on_c, 0, 63, 106
1, 206006, Note_on_c, 0, 86, 0
1, 206009, Note_on_c, 0, 87, 102
1, 206012, Note_on_c, 0, 57, 71
1, 206012, Note_on_c, 0, 60, 84
1, 206029, Note_on_c, 0, 54, 78
1, 206070, Note_on_c, 0, 85, 83
1, 206111, Note_on_c, 0, 87, 0
1, 206114, Note_on_c, 0, 57, 0
1, 206122, Control_c, 0, 64, 127
1, 206128, Note_on_c, 0, 84, 97
1, 206156, Note_on_c, 0, 85, 0
1, 206164, Note_on_c, 0, 60, 0
1, 206198, Note_on_c, 0, 85, 92
1, 206210, Note_on_c, 0, 84, 0
1, 206217, Note_on_c, 0, 54, 0
1, 206237, Note_on_c, 0, 63, 0
1, 206260, Note_on_c, 0, 87, 82
1, 206281, Note_on_c, 0, 85, 0
1, 206290, Control_c, 0, 64, 0
1, 206301, Note_on_c, 0, 87, 0
1, 206327, Note_on_c, 0, 88, 92
1, 206359, Note_on_c, 0, 88, 0
1, 206370, Note_on_c, 0, 64, 103
1, 206376, Note_on_c, 0, 60, 80
1, 206380, Note_on_c, 0, 52, 85
1, 206384, Note_on_c, 0, 57, 60
1, 206395, Note_on_c, 0, 90, 100
1, 206460, Note_on_c, 0, 90, 0
1, 206460, Note_on_c, 0, 88, 91
1, 206469, Control_c, 0, 64, 127
1, 206493, Note_on_c, 0, 88, 0
1, 206505, Note_on_c, 0, 64, 0
1, 206515, Note_on_c, 0, 52, 0
1, 206521, Note_on_c, 0, 91, 98
1, 206540, Note_on_c, 0, 60, 0
1, 206554, Control_c, 0, 64, 0
1, 206569, Note_on_c, 0, 91, 0
1, 206569, Note_on_c, 0, 57, 0
1, 206583, Note_on_c, 0, 88, 100
1, 206616, Note_on_c, 0, 51, 93
1, 206621, Note_on_c, 0, 88, 0
1, 206638, Note_on_c, 0, 92, 95
1, 206668, Note_on_c, 0, 57, 74
1, 206708, Note_on_c, 0, 92, 0
1, 206708, Note_on_c, 0, 88, 97
1, 206721, Note_on_c, 0, 51, 0
1, 206728, Note_on_c, 0, 59, 89
1, 206733, Control_c, 0, 64, 127
1, 206769, Note_on_c, 0, 88, 0
1, 206769, Note_on_c, 0, 57, 0
1, 206774, Note_on_c, 0, 93, 110
1, 206792, Note_on_c, 0, 66, 109
1, 206816, Note_on_c, 0, 59, 0
1, 206819, Note_on_c, 0, 93, 0
1, 206866, Note_on_c, 0, 66, 0
1, 206917, Note_on_c, 0, 93, 108
1, 206987, Note_on_c, 0, 90, 79
1, 207042, Note_on_c, 0, 93, 0
1, 207042, Note_on_c, 0, 87, 84
1, 207098, Note_on_c, 0, 90, 0
1, 207098, Note_on_c, 0, 83, 101
1, 207107, Note_on_c, 0, 87, 0
1, 207128, Note_on_c, 0, 83, 0
1, 207175, Note_on_c, 0, 81, 100
1, 207189, Control_c, 0, 64, 0
1, 207248, Note_on_c, 0, 78, 81
1, 207273, Note_on_c, 0, 81, 0
1, 207290, Note_on_c, 0, 75, 80
1, 207340, Note_on_c, 0, 78, 0
1, 207343, Note_on_c, 0, 75, 0
1, 207346, Note_on_c, 0, 71, 104
1, 207423, Note_on_c, 0, 60, 105
1, 207430, Note_on_c, 0, 72, 104
1, 207430, Note_on_c, 0, 52, 98
1, 207433, Note_on_c, 0, 71, 0
1, 207433, Note_on_c, 0, 54, 87
1, 207438, Note_on_c, 0, 57, 65
1, 207468, Note_on_c, 0, 52, 0
1, 207488, Note_on_c, 0, 60, 0
1, 207488, Note_on_c, 0, 57, 0
1, 207488, Note_on_c, 0, 72, 0
1, 207504, Note_on_c, 0, 54, 0
1, 207504, Note_on_c, 0, 81, 97
1, 207565, Note_on_c, 0, 59, 115
1, 207565, Note_on_c, 0, 54, 85
1, 207569, Note_on_c, 0, 57, 74
1, 207569, Note_on_c, 0, 51, 98
1, 207569, Note_on_c, 0, 71, 114
1, 207596, Note_on_c, 0, 71, 0
1, 207596, Control_c, 0, 64, 127
1, 207622, Note_on_c, 0, 81, 0
1, 207644, Note_on_c, 0, 59, 0
1, 207652, Note_on_c, 0, 54, 0
1, 207663, Note_on_c, 0, 57, 0
1, 207663, Note_on_c, 0, 51, 0
1, 207730, Note_on_c, 0, 93, 106
1, 207780, Note_on_c, 0, 90, 76
1, 207831, Note_on_c, 0, 93, 0
1, 207838, Note_on_c, 0, 87, 84
1, 207892, Note_on_c, 0, 83, 115
1, 207897, Note_on_c, 0, 90, 0
1, 207906, Note_on_c, 0, 87, 0
1, 207919, Note_on_c, 0, 83, 0
1, 207919, Control_c, 0, 64, 0
1, 207967, Note_on_c, 0, 81, 104
1, 208039, Note_on_c, 0, 78, 80
1, 208067, Note_on_c, 0, 81, 0
1, 208090, Note_on_c, 0, 75, 85
1, 208139, Note_on_c, 0, 75, 0
1, 208139, Note_on_c, 0, 78, 0
1, 208153, Note_on_c, 0, 71, 85
1, 208190, Note_on_c, 0, 72, 22
1, 208212, Note_on_c, 0, 71, 0
1, 208215, Note_on_c, 0, 60, 106
1, 208221, Note_on_c, 0, 52, 104
1, 208221, Note_on_c, 0, 57, 78
1, 208226, Note_on_c, 0, 54, 86
1, 208279, Note_on_c, 0, 52, 0
1, 208291, Note_on_c, 0, 72, 0
1, 208291, Note_on_c, 0, 81, 84
1, 208294, Note_on_c, 0, 60, 0
1, 208294, Note_on_c, 0, 57, 0
1, 208302, Note_on_c, 0, 54, 0
1, 208365, Note_on_c, 0, 71, 116
1, 208365, Note_on_c, 0, 59, 118
1, 208369, Note_on_c, 0, 54, 90
1, 208369, Note_on_c, 0, 57, 77
1, 208374, Note_on_c, 0, 51, 97
1, 208388, Note_on_c, 0, 71, 0
1, 208399, Control_c, 0, 64, 127
1, 208421, Note_on_c, 0, 57, 0
1, 208421, Note_on_c, 0, 81, 0
1, 208440, Note_on_c, 0, 59, 0
1, 208457, Note_on_c, 0, 54, 0
1, 208465, Note_on_c, 0, 51, 0
1, 208519, Note_on_c, 0, 93, 108
1, 208565, Note_on_c, 0, 90, 68
1, 208621, Note_on_c, 0, 93, 0
1, 208632, Note_on_c, 0, 87, 78
1, 208688, Note_on_c, 0, 90, 0
1, 208688, Note_on_c, 0, 83, 106
1, 208700, Note_on_c, 0, 87, 0
1, 208714, Note_on_c, 0, 83, 0
1, 208759, Control_c, 0, 64, 0
1, 208766, Note_on_c, 0, 81, 98
1, 208827, Note_on_c, 0, 78, 75
1, 208875, Note_on_c, 0, 81, 0
1, 208881, Note_on_c, 0, 75, 73
1, 208916, Note_on_c, 0, 78, 0
1, 208922, Note_on_c, 0, 75, 0
1, 208934, Note_on_c, 0, 71, 98
1, 208983, Note_on_c, 0, 71, 0
1, 209009, Note_on_c, 0, 60, 87
1, 209014, Note_on_c, 0, 72, 79
1, 209014, Note_on_c, 0, 54, 79
1, 209025, Note_on_c, 0, 52, 67
1, 209025, Note_on_c, 0, 57, 48
1, 209047, Note_on_c, 0, 72, 0
1, 209047, Note_on_c, 0, 60, 0
1, 209061, Note_on_c, 0, 52, 0
1, 209067, Note_on_c, 0, 81, 77
1, 209073, Note_on_c, 0, 54, 0
1, 209073, Note_on_c, 0, 57, 0
1, 209129, Note_on_c, 0, 81, 0
1, 209134, Note_on_c, 0, 57, 60
1, 209134, Note_on_c, 0, 59, 94
1, 209134, Note_on_c, 0, 54, 77
1, 209139, Note_on_c, 0, 51, 91
1, 209143, Note_on_c, 0, 71, 103
1, 209193, Note_on_c, 0, 71, 0
1, 209193, Note_on_c, 0, 59, 0
1, 209212, Note_on_c, 0, 57, 0
1, 209212, Note_on_c, 0, 54, 0
1, 209223, Note_on_c, 0, 51, 0
1, 209223, Note_on_c, 0, 81, 70
1, 209290, Note_on_c, 0, 78, 79
1, 209332, Note_on_c, 0, 81, 0
1, 209354, Note_on_c, 0, 75, 72
1, 209390, Note_on_c, 0, 78, 0
1, 209401, Note_on_c, 0, 60, 88
1, 209401, Note_on_c, 0, 54, 83
1, 209410, Note_on_c, 0, 72, 75
1, 209413, Note_on_c, 0, 57, 56
1, 209419, Note_on_c, 0, 52, 73
1, 209444, Note_on_c, 0, 60, 0
1, 209449, Note_on_c, 0, 75, 0
1, 209455, Note_on_c, 0, 72, 0
1, 209455, Note_on_c, 0, 52, 0
1, 209458, Note_on_c, 0, 81, 70
1, 209476, Note_on_c, 0, 57, 0
1, 209490, Note_on_c, 0, 54, 0
1, 209533, Note_on_c, 0, 81, 0
1, 209539, Note_on_c, 0, 71, 94
1, 209539, Note_on_c, 0, 57, 62
1, 209543, Note_on_c, 0, 54, 79
1, 209543, Note_on_c, 0, 59, 85
1, 209547, Note_on_c, 0, 51, 84
1, 209585, Note_on_c, 0, 59, 0
1, 209591, Note_on_c, 0, 57, 0
1, 209591, Note_on_c, 0, 71, 0
1, 209599, Note_on_c, 0, 54, 0
1, 209602, Note_on_c, 0, 81, 55
1, 209610, Note_on_c, 0, 51, 0
1, 209671, Note_on_c, 0, 78, 71
1, 209699, Note_on_c, 0, 81, 0
1, 209741, Note_on_c, 0, 75, 63
1, 209784, Note_on_c, 0, 78, 0
1, 209800, Note_on_c, 0, 60, 73
1, 209803, Note_on_c, 0, 72, 74
1, 209812, Note_on_c, 0, 54, 63
1, 209820, Note_on_c, 0, 57, 51
1, 209831, Note_on_c, 0, 75, 0
1, 209839, Note_on_c, 0, 60, 0
1, 209845, Note_on_c, 0, 81, 72
1, 209848, Note_on_c, 0, 72, 0
1, 209859, Note_on_c, 0, 54, 0
1, 209875, Note_on_c, 0, 57, 0
1, 209933, Note_on_c, 0, 54, 62
1, 209933, Note_on_c, 0, 71, 96
1, 209933, Note_on_c, 0, 59, 73
1, 209937, Note_on_c, 0, 81, 0
1, 209937, Note_on_c, 0, 51, 83
1, 209940, Note_on_c, 0, 57, 63
1, 209967, Note_on_c, 0, 59, 0
1, 209976, Note_on_c, 0, 54, 0
1, 209979, Note_on_c, 0, 57, 0
1, 209983, Note_on_c, 0, 51, 0
1, 209989, Note_on_c, 0, 71, 0
1, 209989, Note_on_c, 0, 81, 78
1, 210056, Note_on_c, 0, 78, 78
1, 210092, Note_on_c, 0, 81, 0
1, 210124, Note_on_c, 0, 75, 71
1, 210187, Note_on_c, 0, 78, 0
1, 210187, Note_on_c, 0, 69, 68
1, 210196, Note_on_c, 0, 47, 95
1, 210196, Note_on_c, 0, 35, 105
1, 210220, Note_on_c, 0, 35, 0
1, 210226, Note_on_c, 0, 47, 0
1, 210226, Note_on_c, 0, 75, 0
1, 210232, Control_c, 0, 64, 127
1, 210238, Note_on_c, 0, 69, 0
1, 210238, Note_on_c, 0, 81, 87
1, 210284, Note_on_c, 0, 81, 0
1, 210326, Note_on_c, 0, 52, 120
1, 210326, Note_on_c, 0, 67, 96
1, 210326, Note_on_c, 0, 40, 118
1, 210352, Control_c, 0, 64, 0
1, 210385, Note_on_c, 0, 79, 85
1, 210430, Note_on_c, 0, 67, 0
1, 210443, Note_on_c, 0, 76, 68
1, 210458, Note_on_c, 0, 40, 0
1, 210477, Note_on_c, 0, 52, 0
1, 210485, Note_on_c, 0, 79, 0
1, 210497, Control_c, 0, 64, 127
1, 210516, Note_on_c, 0, 71, 80
1, 210549, Note_on_c, 0, 76, 0
1, 210563, Note_on_c, 0, 67, 63
1, 210563, Note_on_c, 0, 55, 105
1, 210571, Note_on_c, 0, 43, 96
1, 210599, Note_on_c, 0, 43, 0
1, 210602, Note_on_c, 0, 55, 0
1, 210607, Note_on_c, 0, 67, 0
1, 210617, Note_on_c, 0, 71, 0
1, 210617, Note_on_c, 0, 79, 105
1, 210641, Control_c, 0, 64, 0
1, 210647, Note_on_c, 0, 79, 0
1, 210702, Note_on_c, 0, 60, 117
1, 210702, Note_on_c, 0, 48, 108
1, 210770, Note_on_c, 0, 64, 87
1, 210777, Note_on_c, 0, 62, 50
1, 210803, Note_on_c, 0, 64, 0
1, 210816, Note_on_c, 0, 60, 0
1, 210825, Note_on_c, 0, 62, 0
1, 210825, Control_c, 0, 64, 127
1, 210825, Note_on_c, 0, 67, 87
1, 210830, Note_on_c, 0, 48, 0
1, 210903, Note_on_c, 0, 70, 92
1, 210903, Control_c, 0, 64, 0
1, 210926, Note_on_c, 0, 67, 0
1, 210956, Note_on_c, 0, 70, 0
1, 210968, Note_on_c, 0, 76, 84
1, 211020, Note_on_c, 0, 79, 99
1, 211039, Note_on_c, 0, 76, 0
1, 211050, Note_on_c, 0, 79, 0
1, 211089, Note_on_c, 0, 59, 109
1, 211093, Note_on_c, 0, 47, 103
1, 211151, Note_on_c, 0, 64, 96
1, 211156, Control_c, 0, 64, 127
1, 211167, Note_on_c, 0, 59, 0
1, 211184, Note_on_c, 0, 64, 0
1, 211184, Note_on_c, 0, 47, 0
1, 211218, Note_on_c, 0, 67, 100
1, 211273, Note_on_c, 0, 67, 0
1, 211273, Control_c, 0, 64, 0
1, 211293, Note_on_c, 0, 71, 100
1, 211351, Note_on_c, 0, 71, 0
1, 211351, Note_on_c, 0, 76, 84
1, 211415, Note_on_c, 0, 79, 102
1, 211444, Note_on_c, 0, 79, 0
1, 211450, Note_on_c, 0, 76, 0
1, 211485, Note_on_c, 0, 58, 104
1, 211491, Note_on_c, 0, 46, 97
1, 211535, Note_on_c, 0, 46, 0
1, 211549, Note_on_c, 0, 64, 99
1, 211549, Control_c, 0, 64, 127
1, 211574, Note_on_c, 0, 58, 0
1, 211588, Note_on_c, 0, 64, 0
1, 211614, Note_on_c, 0, 67, 89
1, 211658, Control_c, 0, 64, 0
1, 211681, Note_on_c, 0, 67, 0
1, 211688, Note_on_c, 0, 73, 80
1, 211759, Note_on_c, 0, 76, 82
1, 211797, Note_on_c, 0, 73, 0
1, 211808, Note_on_c, 0, 79, 102
1, 211841, Note_on_c, 0, 79, 0
1, 211841, Note_on_c, 0, 76, 0
1, 211884, Note_on_c, 0, 59, 113
1, 211887, Note_on_c, 0, 47, 104
1, 211947, Note_on_c, 0, 47, 0
1, 211947, Note_on_c, 0, 59, 0
1, 211947, Control_c, 0, 64, 127
1, 211953, Note_on_c, 0, 64, 96
1, 211986, Note_on_c, 0, 64, 0
1, 212018, Note_on_c, 0, 67, 88
1, 212076, Note_on_c, 0, 67, 0
1, 212082, Control_c, 0, 64, 0
1, 212085, Note_on_c, 0, 71, 98
1, 212154, Note_on_c, 0, 71, 0
1, 212154, Note_on_c, 0, 76, 88
1, 212216, Note_on_c, 0, 79, 96
1, 212248, Note_on_c, 0, 79, 0
1, 212248, Note_on_c, 0, 76, 0
1, 212279, Note_on_c, 0, 60, 114
1, 212287, Note_on_c, 0, 48, 102
1, 212332, Note_on_c, 0, 48, 0
1, 212344, Note_on_c, 0, 60, 0
1, 212347, Note_on_c, 0, 64, 98
1, 212354, Control_c, 0, 64, 127
1, 212386, Note_on_c, 0, 64, 0
1, 212426, Note_on_c, 0, 67, 89
1, 212486, Control_c, 0, 64, 0
1, 212499, Note_on_c, 0, 70, 84
1, 212511, Note_on_c, 0, 67, 0
1, 212567, Note_on_c, 0, 70, 0
1, 212567, Note_on_c, 0, 76, 85
1, 212625, Note_on_c, 0, 79, 101
1, 212644, Note_on_c, 0, 76, 0
1, 212653, Note_on_c, 0, 79, 0
1, 212702, Note_on_c, 0, 59, 105
1, 212705, Note_on_c, 0, 47, 101
1, 212745, Note_on_c, 0, 47, 0
1, 212750, Control_c, 0, 64, 127
1, 212769, Note_on_c, 0, 59, 0
1, 212769, Note_on_c, 0, 64, 95
1, 212811, Note_on_c, 0, 64, 0
1, 212842, Note_on_c, 0, 67, 85
1, 212900, Note_on_c, 0, 67, 0
1, 212904, Control_c, 0, 64, 0
1, 212912, Note_on_c, 0, 71, 93
1, 212957, Note_on_c, 0, 71, 0
1, 212986, Note_on_c, 0, 76, 83
1, 213049, Note_on_c, 0, 79, 88
1, 213076, Note_on_c, 0, 76, 0
1, 213081, Note_on_c, 0, 79, 0
1, 213110, Note_on_c, 0, 58, 94
1, 213115, Note_on_c, 0, 46, 90
1, 213134, Control_c, 0, 64, 127
1, 213179, Note_on_c, 0, 64, 97
1, 213185, Note_on_c, 0, 46, 0
1, 213204, Note_on_c, 0, 58, 0
1, 213221, Note_on_c, 0, 64, 0
1, 213251, Note_on_c, 0, 67, 87
1, 213288, Control_c, 0, 64, 0
1, 213316, Note_on_c, 0, 67, 0
1, 213330, Note_on_c, 0, 73, 75
1, 213399, Note_on_c, 0, 76, 78
1, 213421, Note_on_c, 0, 73, 0
1, 213444, Note_on_c, 0, 79, 97
1, 213479, Note_on_c, 0, 79, 0
1, 213479, Note_on_c, 0, 76, 0
1, 213524, Note_on_c, 0, 61, 107
1, 213535, Note_on_c, 0, 49, 85
1, 213571, Note_on_c, 0, 49, 0
1, 213577, Control_c, 0, 64, 127
1, 213586, Note_on_c, 0, 64, 90
1, 213592, Note_on_c, 0, 61, 0
1, 213620, Note_on_c, 0, 64, 0
1, 213653, Note_on_c, 0, 67, 77
1, 213672, Control_c, 0, 64, 0
1, 213725, Note_on_c, 0, 70, 79
1, 213756, Note_on_c, 0, 67, 0
1, 213773, Note_on_c, 0, 70, 0
1, 213803, Note_on_c, 0, 76, 71
1, 213858, Note_on_c, 0, 79, 98
1, 213897, Note_on_c, 0, 79, 0
1, 213897, Note_on_c, 0, 76, 0
1, 214014, Note_on_c, 0, 59, 68
1, 214017, Note_on_c, 0, 51, 58
1, 214017, Note_on_c, 0, 54, 64
1, 214021, Note_on_c, 0, 57, 54
1, 214121, Note_on_c, 0, 60, 67
1, 214187, Note_on_c, 0, 60, 0
1, 214199, Note_on_c, 0, 61, 74
1, 214243, Note_on_c, 0, 61, 0
1, 214269, Note_on_c, 0, 62, 68
1, 214305, Note_on_c, 0, 62, 0
1, 214322, Note_on_c, 0, 63, 82
1, 214358, Note_on_c, 0, 63, 0
1, 214399, Note_on_c, 0, 64, 60
1, 214443, Note_on_c, 0, 64, 0
1, 214443, Note_on_c, 0, 65, 82
1, 214499, Note_on_c, 0, 66, 61
1, 214535, Note_on_c, 0, 65, 0
1, 214539, Note_on_c, 0, 66, 0
1, 214555, Note_on_c, 0, 67, 85
1, 214599, Note_on_c, 0, 67, 0
1, 214618, Note_on_c, 0, 68, 66
1, 214659, Note_on_c, 0, 69, 71
1, 214669, Note_on_c, 0, 68, 0
1, 214722, Note_on_c, 0, 70, 78
1, 214753, Note_on_c, 0, 69, 0
1, 214758, Note_on_c, 0, 70, 0
1, 214780, Note_on_c, 0, 71, 92
1, 214845, Note_on_c, 0, 71, 0
1, 214845, Note_on_c, 0, 72, 72
1, 214887, Note_on_c, 0, 72, 0
1, 214892, Note_on_c, 0, 73, 71
1, 214931, Note_on_c, 0, 73, 0
1, 214954, Note_on_c, 0, 74, 75
1, 214990, Note_on_c, 0, 74, 0
1, 215014, Note_on_c, 0, 75, 78
1, 215048, Note_on_c, 0, 75, 0
1, 215085, Note_on_c, 0, 76, 64
1, 215141, Note_on_c, 0, 76, 0
1, 215141, Note_on_c, 0, 77, 73
1, 215194, Note_on_c, 0, 77, 0
1, 215210, Note_on_c, 0, 78, 71
1, 215248, Note_on_c, 0, 78, 0
1, 215287, Note_on_c, 0, 79, 68
1, 215329, Note_on_c, 0, 79, 0
1, 215360, Note_on_c, 0, 80, 60
1, 215414, Note_on_c, 0, 80, 0
1, 215446, Note_on_c, 0, 81, 59
1, 215522, Note_on_c, 0, 81, 0
1, 215535, Note_on_c, 0, 82, 61
1, 215664, Note_on_c, 0, 82, 0
1, 215672, Note_on_c, 0, 85, 52
1, 215865, Control_c, 0, 64, 127
1, 215896, Note_on_c, 0, 85, 0
1, 215996, Note_on_c, 0, 83, 90
1, 216116, Control_c, 0, 64, 0
1, 216202, Note_on_c, 0, 81, 72
1, 216249, Note_on_c, 0, 83, 0
1, 216308, Control_c, 0, 64, 127
1, 216385, Note_on_c, 0, 80, 67
1, 216393, Control_c, 0, 64, 0
1, 216407, Note_on_c, 0, 81, 0
1, 216547, Note_on_c, 0, 78, 64
1, 216558, Note_on_c, 0, 80, 0
1, 216574, Control_c, 0, 64, 127
1, 216670, Note_on_c, 0, 78, 0
1, 216695, Note_on_c, 0, 76, 51
1, 216705, Control_c, 0, 64, 0
1, 216873, Control_c, 0, 64, 127
1, 216873, Note_on_c, 0, 75, 46
1, 216879, Note_on_c, 0, 76, 0
1, 216884, Note_on_c, 0, 59, 0
1, 216903, Note_on_c, 0, 57, 0
1, 216920, Control_c, 0, 64, 0
1, 216942, Note_on_c, 0, 54, 0
1, 216965, Note_on_c, 0, 51, 0
1, 217035, Note_on_c, 0, 73, 50
1, 217057, Note_on_c, 0, 75, 0
1, 217140, Note_on_c, 0, 73, 0
1, 217166, Note_on_c, 0, 71, 56
1, 217224, Note_on_c, 0, 71, 0
1, 217266, Note_on_c, 0, 72, 51
1, 217313, Note_on_c, 0, 72, 0
1, 217318, Note_on_c, 0, 75, 50
1, 217330, Note_on_c, 0, 35, 37
1, 217333, Note_on_c, 0, 47, 25
1, 217400, Note_on_c, 0, 35, 0
1, 217438, Note_on_c, 0, 47, 0
1, 217471, Note_on_c, 0, 75, 0
1, 217471, Note_on_c, 0, 73, 49
1, 217471, Control_c, 0, 64, 127
1, 217547, Note_on_c, 0, 73, 0
1, 217606, Note_on_c, 0, 69, 38
1, 217639, Control_c, 0, 64, 0
1, 217678, Note_on_c, 0, 69, 0
1, 217747, Note_on_c, 0, 40, 73
1, 217750, Note_on_c, 0, 68, 53
1, 217779, Note_on_c, 0, 40, 0
1, 217809, Note_on_c, 0, 68, 0
1, 217809, Note_on_c, 0, 64, 70
1, 217831, Control_c, 0, 64, 127
1, 217854, Note_on_c, 0, 64, 0
1, 217892, Note_on_c, 0, 59, 71
1, 217903, Note_on_c, 0, 56, 52
1, 217928, Note_on_c, 0, 59, 0
1, 217965, Note_on_c, 0, 64, 60
1, 217984, Note_on_c, 0, 52, 17
1, 218002, Note_on_c, 0, 64, 0
1, 218018, Note_on_c, 0, 68, 71
1, 218042, Note_on_c, 0, 56, 0
1, 218048, Note_on_c, 0, 68, 0
1, 218048, Note_on_c, 0, 52, 0
1, 218087, Note_on_c, 0, 71, 85
1, 218135, Note_on_c, 0, 56, 48
1, 218141, Note_on_c, 0, 47, 31
1, 218144, Note_on_c, 0, 52, 41
1, 218155, Note_on_c, 0, 76, 71
1, 218159, Note_on_c, 0, 71, 0
1, 218196, Note_on_c, 0, 52, 0
1, 218196, Note_on_c, 0, 56, 0
1, 218202, Note_on_c, 0, 47, 0
1, 218208, Note_on_c, 0, 76, 0
1, 218216, Note_on_c, 0, 80, 75
1, 218265, Note_on_c, 0, 80, 0
1, 218277, Note_on_c, 0, 83, 98
1, 218341, Note_on_c, 0, 80, 65
1, 218360, Note_on_c, 0, 83, 0
1, 218411, Note_on_c, 0, 76, 66
1, 218436, Note_on_c, 0, 80, 0
1, 218447, Note_on_c, 0, 76, 0
1, 218466, Control_c, 0, 64, 0
1, 218466, Note_on_c, 0, 71, 82
1, 218502, Note_on_c, 0, 71, 0
1, 218544, Note_on_c, 0, 40, 92
1, 218552, Note_on_c, 0, 68, 67
1, 218570, Note_on_c, 0, 40, 0
1, 218611, Note_on_c, 0, 64, 72
1, 218622, Control_c, 0, 64, 127
1, 218628, Note_on_c, 0, 68, 0
1, 218651, Note_on_c, 0, 64, 0
1, 218675, Note_on_c, 0, 59, 82
1, 218680, Note_on_c, 0, 56, 66
1, 218680, Note_on_c, 0, 47, 40
1, 218685, Note_on_c, 0, 52, 39
1, 218704, Note_on_c, 0, 59, 0
1, 218723, Note_on_c, 0, 56, 0
1, 218729, Note_on_c, 0, 52, 0
1, 218729, Note_on_c, 0, 64, 72
1, 218757, Note_on_c, 0, 47, 0
1, 218770, Note_on_c, 0, 64, 0
1, 218781, Note_on_c, 0, 56, 63
1, 218781, Note_on_c, 0, 68, 67
1, 218798, Note_on_c, 0, 52, 39
1, 218798, Note_on_c, 0, 47, 40
1, 218815, Note_on_c, 0, 68, 0
1, 218821, Note_on_c, 0, 56, 0
1, 218843, Note_on_c, 0, 52, 0
1, 218870, Note_on_c, 0, 71, 61
1, 218875, Note_on_c, 0, 47, 0
1, 218903, Note_on_c, 0, 56, 53
1, 218907, Note_on_c, 0, 52, 64
1, 218912, Note_on_c, 0, 47, 46
1, 218923, Note_on_c, 0, 76, 72
1, 218929, Note_on_c, 0, 71, 0
1, 218967, Note_on_c, 0, 52, 0
1, 218970, Note_on_c, 0, 47, 0
1, 218974, Note_on_c, 0, 76, 0
1, 218974, Note_on_c, 0, 80, 81
1, 218999, Note_on_c, 0, 56, 0
1, 219052, Note_on_c, 0, 83, 101
1, 219057, Note_on_c, 0, 80, 0
1, 219107, Note_on_c, 0, 80, 86
1, 219152, Note_on_c, 0, 83, 0
1, 219176, Note_on_c, 0, 76, 45
1, 219197, Control_c, 0, 64, 0
1, 219197, Note_on_c, 0, 71, 92
1, 219202, Note_on_c, 0, 80, 0
1, 219216, Note_on_c, 0, 76, 0
1, 219229, Note_on_c, 0, 71, 0
1, 219286, Note_on_c, 0, 46, 59
1, 219302, Note_on_c, 0, 85, 70
1, 219341, Note_on_c, 0, 85, 0
1, 219341, Note_on_c, 0, 46, 0
1, 219347, Note_on_c, 0, 82, 70
1, 219364, Control_c, 0, 64, 127
1, 219410, Note_on_c, 0, 88, 76
1, 219410, Note_on_c, 0, 61, 73
1, 219428, Note_on_c, 0, 54, 56
1, 219433, Note_on_c, 0, 52, 48
1, 219446, Note_on_c, 0, 88, 0
1, 219449, Note_on_c, 0, 82, 0
1, 219449, Note_on_c, 0, 61, 0
1, 219470, Note_on_c, 0, 54, 0
1, 219477, Note_on_c, 0, 52, 0
1, 219477, Note_on_c, 0, 79, 62
1, 219519, Note_on_c, 0, 79, 0
1, 219525, Note_on_c, 0, 54, 64
1, 219531, Note_on_c, 0, 61, 29
1, 219538, Note_on_c, 0, 52, 69
1, 219538, Note_on_c, 0, 82, 59
1, 219572, Note_on_c, 0, 52, 0
1, 219572, Note_on_c, 0, 54, 0
1, 219589, Note_on_c, 0, 61, 0
1, 219595, Note_on_c, 0, 78, 57
1, 219633, Note_on_c, 0, 82, 0
1, 219637, Note_on_c, 0, 61, 77
1, 219642, Note_on_c, 0, 85, 76
1, 219655, Note_on_c, 0, 78, 0
1, 219655, Note_on_c, 0, 52, 64
1, 219655, Note_on_c, 0, 54, 64
1, 219692, Note_on_c, 0, 52, 0
1, 219703, Note_on_c, 0, 54, 0
1, 219717, Note_on_c, 0, 76, 51
1, 219722, Note_on_c, 0, 61, 0
1, 219737, Note_on_c, 0, 85, 0
1, 219759, Note_on_c, 0, 76, 0
1, 219775, Note_on_c, 0, 78, 70
1, 219848, Note_on_c, 0, 75, 68
1, 219887, Note_on_c, 0, 75, 0
1, 219887, Note_on_c, 0, 78, 0
1, 219887, Note_on_c, 0, 82, 64
1, 219928, Control_c, 0, 64, 0
1, 219935, Note_on_c, 0, 73, 60
1, 219973, Note_on_c, 0, 82, 0
1, 219981, Note_on_c, 0, 73, 0
1, 220002, Note_on_c, 0, 47, 61
1, 220006, Note_on_c, 0, 78, 74
1, 220046, Note_on_c, 0, 47, 0
1, 220062, Note_on_c, 0, 75, 68
1, 220073, Note_on_c, 0, 78, 0
1, 220084, Control_c, 0, 64, 127
1, 220110, Note_on_c, 0, 81, 75
1, 220115, Note_on_c, 0, 57, 58
1, 220115, Note_on_c, 0, 51, 61
1, 220129, Note_on_c, 0, 54, 42
1, 220144, Note_on_c, 0, 81, 0
1, 220144, Note_on_c, 0, 75, 0
1, 220155, Note_on_c, 0, 51, 0
1, 220158, Note_on_c, 0, 57, 0
1, 220168, Note_on_c, 0, 72, 53
1, 220182, Note_on_c, 0, 54, 0
1, 220211, Note_on_c, 0, 72, 0
1, 220219, Note_on_c, 0, 57, 50
1, 220227, Note_on_c, 0, 75, 60
1, 220227, Note_on_c, 0, 51, 48
1, 220236, Note_on_c, 0, 54, 71
1, 220275, Note_on_c, 0, 54, 0
1, 220278, Note_on_c, 0, 51, 0
1, 220278, Note_on_c, 0, 57, 0
1, 220293, Note_on_c, 0, 71, 84
1, 220318, Note_on_c, 0, 75, 0
1, 220360, Note_on_c, 0, 78, 78
1, 220360, Note_on_c, 0, 57, 58
1, 220378, Note_on_c, 0, 71, 0
1, 220378, Note_on_c, 0, 51, 64
1, 220385, Note_on_c, 0, 54, 49
1, 220403, Note_on_c, 0, 57, 0
1, 220410, Note_on_c, 0, 78, 0
1, 220410, Note_on_c, 0, 69, 49
1, 220416, Note_on_c, 0, 51, 0
1, 220428, Note_on_c, 0, 54, 0
1, 220458, Note_on_c, 0, 71, 62
1, 220469, Note_on_c, 0, 69, 0
1, 220533, Note_on_c, 0, 68, 75
1, 220556, Note_on_c, 0, 71, 0
1, 220576, Note_on_c, 0, 68, 0
1, 220586, Note_on_c, 0, 75, 68
1, 220623, Note_on_c, 0, 75, 0
1, 220623, Control_c, 0, 64, 0
1, 220631, Note_on_c, 0, 66, 68
1, 220676, Note_on_c, 0, 66, 0
1, 220715, Note_on_c, 0, 35, 103
1, 220715, Note_on_c, 0, 47, 80
1, 220715, Note_on_c, 0, 68, 80
1, 220740, Note_on_c, 0, 35, 0
1, 220750, Note_on_c, 0, 47, 0
1, 220781, Note_on_c, 0, 64, 50
1, 220786, Note_on_c, 0, 68, 0
1, 220803, Control_c, 0, 64, 127
1, 220823, Note_on_c, 0, 64, 0
1, 220845, Note_on_c, 0, 59, 77
1, 220854, Note_on_c, 0, 56, 83
1, 220857, Note_on_c, 0, 47, 86
1, 220862, Note_on_c, 0, 52, 11
1, 220878, Note_on_c, 0, 59, 0
1, 220896, Note_on_c, 0, 47, 0
1, 220903, Note_on_c, 0, 56, 0
1, 220909, Note_on_c, 0, 52, 0
1, 220909, Note_on_c, 0, 64, 68
1, 220946, Note_on_c, 0, 64, 0
1, 220954, Note_on_c, 0, 68, 80
1, 220954, Note_on_c, 0, 56, 71
1, 220967, Note_on_c, 0, 47, 86
1, 220971, Note_on_c, 0, 52, 11
1, 220984, Note_on_c, 0, 68, 0
1, 221005, Note_on_c, 0, 47, 0
1, 221020, Note_on_c, 0, 52, 0
1, 221026, Note_on_c, 0, 56, 0
1, 221026, Note_on_c, 0, 71, 97
1, 221088, Note_on_c, 0, 76, 84
1, 221099, Note_on_c, 0, 56, 68
1, 221104, Note_on_c, 0, 52, 80
1, 221122, Note_on_c, 0, 71, 0
1, 221135, Note_on_c, 0, 47, 55
1, 221149, Note_on_c, 0, 80, 90
1, 221177, Note_on_c, 0, 76, 0
1, 221188, Note_on_c, 0, 56, 0
1, 221194, Note_on_c, 0, 52, 0
1, 221215, Note_on_c, 0, 47, 0
1, 221215, Note_on_c, 0, 83, 116
1, 221227, Note_on_c, 0, 80, 0
1, 221275, Note_on_c, 0, 80, 79
1, 221325, Note_on_c, 0, 83, 0
1, 221347, Note_on_c, 0, 76, 78
1, 221385, Note_on_c, 0, 76, 0
1, 221385, Note_on_c, 0, 80, 0
1, 221399, Note_on_c, 0, 71, 94
1, 221403, Control_c, 0, 64, 0
1, 221430, Note_on_c, 0, 71, 0
1, 221464, Note_on_c, 0, 47, 88
1, 221464, Note_on_c, 0, 35, 104
1, 221486, Note_on_c, 0, 68, 81
1, 221489, Note_on_c, 0, 35, 0
1, 221502, Note_on_c, 0, 47, 0
1, 221534, Note_on_c, 0, 65, 75
1, 221570, Control_c, 0, 64, 127
1, 221581, Note_on_c, 0, 68, 0
1, 221603, Note_on_c, 0, 56, 85
1, 221608, Note_on_c, 0, 65, 0
1, 221608, Note_on_c, 0, 59, 83
1, 221644, Note_on_c, 0, 59, 0
1, 221670, Note_on_c, 0, 65, 68
1, 221676, Note_on_c, 0, 56, 0
1, 221722, Note_on_c, 0, 59, 90
1, 221740, Note_on_c, 0, 68, 82
1, 221750, Note_on_c, 0, 65, 0
1, 221770, Note_on_c, 0, 68, 0
1, 221806, Note_on_c, 0, 59, 0
1, 221817, Note_on_c, 0, 71, 90
1, 221846, Note_on_c, 0, 62, 110
1, 221882, Note_on_c, 0, 77, 67
1, 221896, Note_on_c, 0, 71, 0
1, 221934, Note_on_c, 0, 80, 81
1, 221966, Note_on_c, 0, 77, 0
1, 221966, Note_on_c, 0, 61, 95
1, 221987, Note_on_c, 0, 62, 0
1, 222001, Note_on_c, 0, 80, 0
1, 222001, Note_on_c, 0, 83, 106
1, 222043, Note_on_c, 0, 61, 0
1, 222054, Note_on_c, 0, 80, 87
1, 222077, Note_on_c, 0, 59, 103
1, 222087, Note_on_c, 0, 77, 72
1, 222110, Note_on_c, 0, 83, 0
1, 222124, Note_on_c, 0, 71, 97
1, 222132, Note_on_c, 0, 80, 0
1, 222151, Note_on_c, 0, 77, 0
1, 222151, Note_on_c, 0, 71, 0
1, 222156, Control_c, 0, 64, 0
1, 222172, Note_on_c, 0, 59, 0
1, 222211, Note_on_c, 0, 47, 99
1, 222222, Note_on_c, 0, 85, 97
1, 222246, Note_on_c, 0, 47, 0
1, 222263, Note_on_c, 0, 82, 71
1, 222313, Control_c, 0, 64, 127
1, 222322, Note_on_c, 0, 85, 0
1, 222339, Note_on_c, 0, 88, 90
1, 222355, Note_on_c, 0, 58, 67
1, 222358, Note_on_c, 0, 54, 54
1, 222361, Note_on_c, 0, 61, 46
1, 222366, Note_on_c, 0, 64, 61
1, 222383, Note_on_c, 0, 82, 0
1, 222388, Note_on_c, 0, 79, 97
1, 222394, Note_on_c, 0, 58, 0
1, 222397, Note_on_c, 0, 88, 0
1, 222400, Note_on_c, 0, 54, 0
1, 222405, Note_on_c, 0, 64, 0
1, 222419, Note_on_c, 0, 61, 0
1, 222439, Note_on_c, 0, 79, 0
1, 222452, Note_on_c, 0, 64, 94
1, 222461, Note_on_c, 0, 82, 74
1, 222461, Note_on_c, 0, 54, 86
1, 222461, Note_on_c, 0, 61, 82
1, 222467, Note_on_c, 0, 58, 56
1, 222495, Note_on_c, 0, 54, 0
1, 222500, Note_on_c, 0, 61, 0
1, 222500, Note_on_c, 0, 64, 0
1, 222509, Note_on_c, 0, 58, 0
1, 222523, Note_on_c, 0, 78, 84
1, 222570, Note_on_c, 0, 82, 0
1, 222575, Note_on_c, 0, 64, 101
1, 222575, Note_on_c, 0, 85, 87
1, 222584, Note_on_c, 0, 54, 65
1, 222587, Note_on_c, 0, 61, 57
1, 222590, Note_on_c, 0, 58, 37
1, 222600, Note_on_c, 0, 78, 0
1, 222634, Note_on_c, 0, 76, 77
1, 222672, Note_on_c, 0, 85, 0
1, 222689, Note_on_c, 0, 76, 0
1, 222695, Note_on_c, 0, 78, 69
1, 222707, Note_on_c, 0, 64, 0
1, 222739, Note_on_c, 0, 61, 0
1, 222751, Note_on_c, 0, 54, 0
1, 222751, Note_on_c, 0, 58, 0
1, 222762, Note_on_c, 0, 75, 87
1, 222807, Note_on_c, 0, 78, 0
1, 222807, Note_on_c, 0, 82, 76
1, 222828, Control_c, 0, 64, 0
1, 222854, Note_on_c, 0, 75, 0
1, 222857, Note_on_c, 0, 73, 76
1, 222898, Note_on_c, 0, 82, 0
1, 222912, Note_on_c, 0, 73, 0
1, 222916, Note_on_c, 0, 78, 92
1, 222920, Note_on_c, 0, 47, 95
1, 222962, Note_on_c, 0, 47, 0
1, 222985, Note_on_c, 0, 75, 84
1, 222996, Control_c, 0, 64, 127
1, 223032, Note_on_c, 0, 57, 68
1, 223032, Note_on_c, 0, 59, 83
1, 223038, Note_on_c, 0, 54, 75
1, 223038, Note_on_c, 0, 81, 88
1, 223044, Note_on_c, 0, 78, 0
1, 223065, Note_on_c, 0, 59, 0
1, 223069, Note_on_c, 0, 57, 0
1, 223072, Note_on_c, 0, 54, 0
1, 223076, Note_on_c, 0, 81, 0
1, 223076, Note_on_c, 0, 75, 0
1, 223090, Note_on_c, 0, 72, 81
1, 223138, Note_on_c, 0, 72, 0
1, 223138, Note_on_c, 0, 54, 63
1, 223141, Note_on_c, 0, 57, 43
1, 223141, Note_on_c, 0, 59, 53
1, 223150, Note_on_c, 0, 75, 74
1, 223183, Note_on_c, 0, 59, 0
1, 223183, Note_on_c, 0, 57, 0
1, 223186, Note_on_c, 0, 54, 0
1, 223216, Note_on_c, 0, 71, 93
1, 223264, Note_on_c, 0, 57, 66
1, 223271, Note_on_c, 0, 59, 92
1, 223274, Note_on_c, 0, 75, 0
1, 223274, Note_on_c, 0, 78, 92
1, 223277, Note_on_c, 0, 54, 80
1, 223297, Note_on_c, 0, 71, 0
1, 223314, Note_on_c, 0, 69, 75
1, 223321, Note_on_c, 0, 57, 0
1, 223350, Note_on_c, 0, 78, 0
1, 223353, Note_on_c, 0, 54, 0
1, 223356, Note_on_c, 0, 59, 0
1, 223381, Note_on_c, 0, 71, 74
1, 223392, Note_on_c, 0, 69, 0
1, 223447, Note_on_c, 0, 68, 88
1, 223498, Note_on_c, 0, 75, 85
1, 223503, Note_on_c, 0, 71, 0
1, 223528, Note_on_c, 0, 68, 0
1, 223536, Control_c, 0, 64, 0
1, 223547, Note_on_c, 0, 66, 81
1, 223583, Note_on_c, 0, 66, 0
1, 223590, Note_on_c, 0, 75, 0
1, 223606, Note_on_c, 0, 44, 104
1, 223606, Note_on_c, 0, 32, 96
1, 223611, Note_on_c, 0, 71, 101
1, 223633, Note_on_c, 0, 32, 0
1, 223665, Note_on_c, 0, 68, 88
1, 223673, Note_on_c, 0, 44, 0
1, 223703, Control_c, 0, 64, 127
1, 223715, Note_on_c, 0, 74, 95
1, 223731, Note_on_c, 0, 71, 0
1, 223731, Note_on_c, 0, 44, 89
1, 223739, Note_on_c, 0, 52, 99
1, 223746, Note_on_c, 0, 50, 72
1, 223764, Note_on_c, 0, 74, 0
1, 223764, Note_on_c, 0, 68, 0
1, 223764, Note_on_c, 0, 65, 84
1, 223770, Note_on_c, 0, 52, 0
1, 223784, Note_on_c, 0, 50, 0
1, 223784, Note_on_c, 0, 44, 0
1, 223828, Note_on_c, 0, 68, 74
1, 223832, Note_on_c, 0, 65, 0
1, 223843, Note_on_c, 0, 50, 69
1, 223848, Note_on_c, 0, 44, 80
1, 223848, Note_on_c, 0, 52, 84
1, 223882, Note_on_c, 0, 52, 0
1, 223887, Note_on_c, 0, 44, 0
1, 223896, Note_on_c, 0, 50, 0
1, 223899, Note_on_c, 0, 64, 100
1, 223957, Note_on_c, 0, 50, 84
1, 223957, Note_on_c, 0, 52, 91
1, 223960, Note_on_c, 0, 68, 0
1, 223965, Note_on_c, 0, 71, 96
1, 223969, Note_on_c, 0, 44, 77
1, 223998, Note_on_c, 0, 64, 0
1, 224009, Note_on_c, 0, 52, 0
1, 224009, Note_on_c, 0, 62, 100
1, 224044, Note_on_c, 0, 44, 0
1, 224048, Note_on_c, 0, 50, 0
1, 224054, Note_on_c, 0, 71, 0
1, 224080, Note_on_c, 0, 64, 96
1, 224088, Note_on_c, 0, 62, 0
1, 224143, Note_on_c, 0, 61, 100
1, 224185, Note_on_c, 0, 64, 0
1, 224196, Note_on_c, 0, 68, 87
1, 224243, Note_on_c, 0, 61, 0
1, 224243, Control_c, 0, 64, 0
1, 224260, Note_on_c, 0, 59, 103
1, 224300, Note_on_c, 0, 68, 0
1, 224325, Note_on_c, 0, 64, 107
1, 224325, Note_on_c, 0, 46, 101
1, 224331, Note_on_c, 0, 34, 93
1, 224349, Note_on_c, 0, 59, 0
1, 224356, Note_on_c, 0, 34, 0
1, 224381, Note_on_c, 0, 46, 0
1, 224381, Note_on_c, 0, 61, 95
1, 224434, Control_c, 0, 64, 127
1, 224439, Note_on_c, 0, 67, 87
1, 224452, Note_on_c, 0, 64, 0
1, 224452, Note_on_c, 0, 46, 70
1, 224458, Note_on_c, 0, 52, 97
1, 224462, Note_on_c, 0, 49, 73
1, 224489, Note_on_c, 0, 52, 0
1, 224489, Note_on_c, 0, 61, 0
1, 224489, Note_on_c, 0, 59, 97
1, 224497, Note_on_c, 0, 67, 0
1, 224497, Note_on_c, 0, 49, 0
1, 224503, Note_on_c, 0, 46, 0
1, 224554, Note_on_c, 0, 46, 71
1, 224557, Note_on_c, 0, 61, 89
1, 224561, Note_on_c, 0, 49, 59
1, 224564, Note_on_c, 0, 52, 83
1, 224575, Note_on_c, 0, 59, 0
1, 224597, Note_on_c, 0, 52, 0
1, 224615, Note_on_c, 0, 49, 0
1, 224634, Note_on_c, 0, 46, 0
1, 224634, Note_on_c, 0, 58, 83
1, 224681, Note_on_c, 0, 61, 0
1, 224689, Note_on_c, 0, 52, 103
1, 224692, Note_on_c, 0, 49, 80
1, 224692, Note_on_c, 0, 46, 71
1, 224704, Note_on_c, 0, 64, 94
1, 224726, Note_on_c, 0, 52, 0
1, 224739, Note_on_c, 0, 58, 0
1, 224756, Note_on_c, 0, 49, 0
1, 224770, Note_on_c, 0, 55, 103
1, 224779, Note_on_c, 0, 46, 0
1, 224785, Note_on_c, 0, 64, 0
1, 224793, Control_c, 0, 64, 0
1, 224826, Note_on_c, 0, 58, 79
1, 224851, Note_on_c, 0, 55, 0
1, 224899, Note_on_c, 0, 54, 104
1, 224938, Note_on_c, 0, 61, 87
1, 224954, Note_on_c, 0, 58, 0
1, 224996, Note_on_c, 0, 54, 0
1, 224996, Note_on_c, 0, 52, 114
1, 225041, Note_on_c, 0, 61, 0
1, 225086, Note_on_c, 0, 47, 101
1, 225086, Note_on_c, 0, 35, 114
1, 225115, Note_on_c, 0, 47, 0
1, 225118, Note_on_c, 0, 35, 0
1, 225172, Note_on_c, 0, 53, 110
1, 225175, Note_on_c, 0, 52, 0
1, 225189, Control_c, 0, 64, 127
1, 225239, Note_on_c, 0, 54, 85
1, 225252, Note_on_c, 0, 53, 0
1, 225271, Note_on_c, 0, 54, 0
1, 225288, Note_on_c, 0, 55, 85
1, 225356, Note_on_c, 0, 56, 71
1, 225369, Control_c, 0, 64, 0
1, 225372, Note_on_c, 0, 55, 0
1, 225403, Note_on_c, 0, 57, 75
1, 225441, Note_on_c, 0, 56, 0
1, 225472, Note_on_c, 0, 58, 79
1, 225503, Note_on_c, 0, 57, 0
1, 225520, Note_on_c, 0, 58, 0
1, 225525, Note_on_c, 0, 59, 81
1, 225597, Note_on_c, 0, 60, 80
1, 225601, Note_on_c, 0, 59, 0
1, 225640, Note_on_c, 0, 61, 77
1, 225653, Note_on_c, 0, 60, 0
1, 225679, Note_on_c, 0, 61, 0
1, 225704, Note_on_c, 0, 62, 77
1, 225739, Note_on_c, 0, 62, 0
1, 225765, Note_on_c, 0, 63, 80
1, 225796, Note_on_c, 0, 63, 0
1, 225832, Note_on_c, 0, 64, 86
1, 225841, Note_on_c, 0, 58, 72
1, 225851, Note_on_c, 0, 49, 69
1, 225863, Note_on_c, 0, 52, 72
1, 225863, Note_on_c, 0, 55, 67
1, 225874, Note_on_c, 0, 64, 0
1, 225887, Note_on_c, 0, 58, 0
1, 225890, Note_on_c, 0, 49, 0
1, 225895, Note_on_c, 0, 52, 0
1, 225895, Note_on_c, 0, 65, 71
1, 225902, Note_on_c, 0, 55, 0
1, 225949, Note_on_c, 0, 65, 0
1, 225949, Note_on_c, 0, 66, 64
1, 225954, Note_on_c, 0, 49, 58
1, 225954, Note_on_c, 0, 55, 75
1, 225962, Note_on_c, 0, 52, 68
1, 225962, Note_on_c, 0, 58, 51
1, 225983, Note_on_c, 0, 66, 0
1, 225999, Note_on_c, 0, 52, 0
1, 225999, Note_on_c, 0, 49, 0
1, 226007, Note_on_c, 0, 67, 68
1, 226012, Note_on_c, 0, 58, 0
1, 226024, Note_on_c, 0, 55, 0
1, 226055, Note_on_c, 0, 67, 0
1, 226080, Note_on_c, 0, 68, 44
1, 226080, Note_on_c, 0, 49, 61
1, 226083, Note_on_c, 0, 58, 48
1, 226083, Note_on_c, 0, 52, 71
1, 226090, Note_on_c, 0, 55, 58
1, 226108, Note_on_c, 0, 69, 64
1, 226130, Note_on_c, 0, 49, 0
1, 226130, Note_on_c, 0, 68, 0
1, 226135, Note_on_c, 0, 52, 0
1, 226141, Note_on_c, 0, 55, 0
1, 226147, Note_on_c, 0, 58, 0
1, 226182, Note_on_c, 0, 70, 77
1, 226202, Note_on_c, 0, 58, 61
1, 226208, Note_on_c, 0, 52, 74
1, 226213, Note_on_c, 0, 69, 0
1, 226213, Note_on_c, 0, 55, 54
1, 226213, Note_on_c, 0, 49, 56
1, 226230, Note_on_c, 0, 70, 0
1, 226246, Note_on_c, 0, 71, 75
1, 226253, Note_on_c, 0, 49, 0
1, 226256, Note_on_c, 0, 52, 0
1, 226264, Note_on_c, 0, 55, 0
1, 226278, Note_on_c, 0, 58, 0
1, 226297, Note_on_c, 0, 71, 0
1, 226308, Note_on_c, 0, 72, 73
1, 226316, Note_on_c, 0, 49, 55
1, 226327, Note_on_c, 0, 52, 70
1, 226327, Note_on_c, 0, 58, 56
1, 226327, Note_on_c, 0, 55, 64
1, 226353, Note_on_c, 0, 72, 0
1, 226361, Note_on_c, 0, 49, 0
1, 226361, Note_on_c, 0, 73, 66
1, 226372, Note_on_c, 0, 52, 0
1, 226378, Note_on_c, 0, 55, 0
1, 226386, Note_on_c, 0, 58, 0
1, 226408, Note_on_c, 0, 73, 0
1, 226434, Note_on_c, 0, 74, 71
1, 226444, Note_on_c, 0, 58, 59
1, 226454, Note_on_c, 0, 55, 64
1, 226458, Note_on_c, 0, 52, 61
1, 226467, Note_on_c, 0, 74, 0
1, 226470, Note_on_c, 0, 49, 24
1, 226478, Note_on_c, 0, 75, 82
1, 226498, Note_on_c, 0, 52, 0
1, 226503, Note_on_c, 0, 55, 0
1, 226508, Note_on_c, 0, 58, 0
1, 226517, Note_on_c, 0, 49, 0
1, 226551, Note_on_c, 0, 76, 90
1, 226562, Note_on_c, 0, 75, 0
1, 226562, Note_on_c, 0, 59, 100
1, 226562, Note_on_c, 0, 47, 100
1, 226568, Note_on_c, 0, 56, 85
1, 226572, Note_on_c, 0, 52, 67
1, 226611, Note_on_c, 0, 52, 0
1, 226611, Note_on_c, 0, 47, 0
1, 226618, Note_on_c, 0, 56, 0
1, 226618, Note_on_c, 0, 77, 96
1, 226628, Note_on_c, 0, 59, 0
1, 226632, Note_on_c, 0, 76, 0
1, 226676, Note_on_c, 0, 78, 84
1, 226676, Note_on_c, 0, 59, 99
1, 226679, Note_on_c, 0, 56, 66
1, 226684, Note_on_c, 0, 47, 62
1, 226684, Note_on_c, 0, 52, 71
1, 226707, Note_on_c, 0, 77, 0
1, 226710, Note_on_c, 0, 78, 0
1, 226720, Note_on_c, 0, 56, 0
1, 226720, Note_on_c, 0, 59, 0
1, 226723, Note_on_c, 0, 52, 0
1, 226723, Note_on_c, 0, 47, 0
1, 226738, Note_on_c, 0, 79, 94
1, 226779, Note_on_c, 0, 47, 73
1, 226782, Note_on_c, 0, 59, 88
1, 226785, Note_on_c, 0, 79, 0
1, 226785, Note_on_c, 0, 56, 61
1, 226788, Note_on_c, 0, 52, 79
1, 226799, Note_on_c, 0, 80, 79
1, 226831, Note_on_c, 0, 52, 0
1, 226831, Note_on_c, 0, 47, 0
1, 226848, Note_on_c, 0, 56, 0
1, 226848, Note_on_c, 0, 81, 76
1, 226854, Note_on_c, 0, 59, 0
1, 226899, Note_on_c, 0, 56, 75
1, 226899, Note_on_c, 0, 59, 97
1, 226899, Note_on_c, 0, 47, 76
1, 226904, Note_on_c, 0, 52, 80
1, 226904, Note_on_c, 0, 82, 85
1, 226910, Note_on_c, 0, 80, 0
1, 226944, Note_on_c, 0, 47, 0
1, 226944, Note_on_c, 0, 81, 0
1, 226949, Note_on_c, 0, 52, 0
1, 226949, Note_on_c, 0, 82, 0
1, 226958, Note_on_c, 0, 59, 0
1, 226963, Note_on_c, 0, 56, 0
1, 226971, Note_on_c, 0, 83, 112
1, 227008, Note_on_c, 0, 83, 0
1, 227011, Note_on_c, 0, 47, 71
1, 227011, Note_on_c, 0, 59, 93
1, 227015, Note_on_c, 0, 56, 78
1, 227018, Note_on_c, 0, 52, 85
1, 227038, Note_on_c, 0, 84, 90
1, 227060, Note_on_c, 0, 52, 0
1, 227060, Control_c, 0, 64, 127
1, 227065, Note_on_c, 0, 47, 0
1, 227068, Note_on_c, 0, 59, 0
1, 227068, Note_on_c, 0, 56, 0
1, 227089, Note_on_c, 0, 85, 75
1, 227099, Note_on_c, 0, 84, 0
1, 227127, Note_on_c, 0, 85, 0
1, 227138, Note_on_c, 0, 59, 81
1, 227138, Note_on_c, 0, 52, 90
1, 227150, Note_on_c, 0, 56, 53
1, 227150, Note_on_c, 0, 86, 84
1, 227150, Note_on_c, 0, 47, 71
1, 227168, Control_c, 0, 64, 0
1, 227185, Note_on_c, 0, 59, 0
1, 227189, Note_on_c, 0, 56, 0
1, 227192, Note_on_c, 0, 86, 0
1, 227205, Note_on_c, 0, 47, 0
1, 227213, Note_on_c, 0, 52, 0
1, 227213, Note_on_c, 0, 87, 74
1, 227256, Note_on_c, 0, 87, 0
1, 227270, Note_on_c, 0, 52, 96
1, 227270, Note_on_c, 0, 46, 93
1, 227273, Note_on_c, 0, 61, 113
1, 227283, Note_on_c, 0, 88, 100
1, 227289, Note_on_c, 0, 54, 89
1, 227336, Note_on_c, 0, 54, 0
1, 227342, Note_on_c, 0, 46, 0
1, 227352, Note_on_c, 0, 89, 94
1, 227356, Note_on_c, 0, 52, 0
1, 227359, Note_on_c, 0, 61, 0
1, 227359, Control_c, 0, 64, 127
1, 227402, Note_on_c, 0, 61, 100
1, 227402, Note_on_c, 0, 52, 108
1, 227409, Note_on_c, 0, 46, 59
1, 227409, Note_on_c, 0, 90, 74
1, 227420, Note_on_c, 0, 54, 74
1, 227423, Note_on_c, 0, 88, 0
1, 227433, Note_on_c, 0, 89, 0
1, 227447, Note_on_c, 0, 90, 0
1, 227453, Note_on_c, 0, 46, 0
1, 227453, Note_on_c, 0, 54, 0
1, 227469, Note_on_c, 0, 91, 94
1, 227476, Note_on_c, 0, 61, 0
1, 227490, Note_on_c, 0, 52, 0
1, 227512, Note_on_c, 0, 61, 107
1, 227528, Note_on_c, 0, 54, 65
1, 227528, Note_on_c, 0, 46, 51
1, 227536, Note_on_c, 0, 92, 82
1, 227536, Note_on_c, 0, 52, 90
1, 227556, Note_on_c, 0, 91, 0
1, 227570, Note_on_c, 0, 46, 0
1, 227570, Note_on_c, 0, 52, 0
1, 227579, Note_on_c, 0, 54, 0
1, 227582, Note_on_c, 0, 61, 0
1, 227586, Note_on_c, 0, 93, 90
1, 227628, Note_on_c, 0, 92, 0
1, 227632, Note_on_c, 0, 61, 95
1, 227640, Note_on_c, 0, 52, 94
1, 227643, Note_on_c, 0, 54, 78
1, 227648, Note_on_c, 0, 46, 44
1, 227656, Note_on_c, 0, 94, 88
1, 227690, Note_on_c, 0, 46, 0
1, 227690, Note_on_c, 0, 93, 0
1, 227701, Note_on_c, 0, 61, 0
1, 227712, Note_on_c, 0, 54, 0
1, 227720, Note_on_c, 0, 94, 0
1, 227720, Note_on_c, 0, 52, 0
1, 227726, Note_on_c, 0, 95, 96
1, 227763, Note_on_c, 0, 61, 75
1, 227768, Note_on_c, 0, 54, 74
1, 227773, Note_on_c, 0, 52, 95
1, 227779, Note_on_c, 0, 46, 45
1, 227795, Note_on_c, 0, 96, 84
1, 227802, Note_on_c, 0, 54, 0
1, 227807, Note_on_c, 0, 52, 0
1, 227810, Note_on_c, 0, 61, 0
1, 227816, Note_on_c, 0, 95, 0
1, 227821, Note_on_c, 0, 46, 0
1, 227835, Note_on_c, 0, 97, 74
1, 227846, Note_on_c, 0, 96, 0
1, 227866, Note_on_c, 0, 97, 0
1, 227879, Note_on_c, 0, 46, 50
1, 227888, Note_on_c, 0, 52, 77
1, 227901, Note_on_c, 0, 98, 94
1, 227930, Note_on_c, 0, 46, 0
1, 227954, Note_on_c, 0, 99, 78
1, 227963, Note_on_c, 0, 52, 0
1, 227968, Note_on_c, 0, 98, 0
1, 227989, Note_on_c, 0, 99, 0
1, 228022, Note_on_c, 0, 52, 109
1, 228025, Note_on_c, 0, 100, 115
1, 228025, Note_on_c, 0, 59, 117
1, 228032, Note_on_c, 0, 56, 95
1, 228032, Note_on_c, 0, 47, 104
1, 228091, Note_on_c, 0, 99, 74
1, 228116, Note_on_c, 0, 59, 0
1, 228122, Note_on_c, 0, 47, 0
1, 228141, Note_on_c, 0, 56, 0
1, 228141, Note_on_c, 0, 52, 0
1, 228150, Control_c, 0, 64, 0
1, 228153, Note_on_c, 0, 97, 86
1, 228164, Note_on_c, 0, 100, 0
1, 228205, Note_on_c, 0, 99, 0
1, 228205, Note_on_c, 0, 95, 89
1, 228233, Note_on_c, 0, 97, 0
1, 228269, Note_on_c, 0, 95, 0
1, 228289, Note_on_c, 0, 94, 73
1, 228334, Note_on_c, 0, 95, 74
1, 228350, Note_on_c, 0, 94, 0
1, 228408, Note_on_c, 0, 95, 0
1, 228408, Note_on_c, 0, 59, 99
1, 228408, Note_on_c, 0, 97, 105
1, 228408, Note_on_c, 0, 56, 86
1, 228414, Note_on_c, 0, 47, 86
1, 228419, Note_on_c, 0, 52, 90
1, 228437, Note_on_c, 0, 59, 0
1, 228444, Note_on_c, 0, 47, 0
1, 228453, Note_on_c, 0, 52, 0
1, 228461, Control_c, 0, 64, 127
1, 228479, Note_on_c, 0, 56, 0
1, 228490, Note_on_c, 0, 95, 73
1, 228534, Note_on_c, 0, 97, 0
1, 228542, Note_on_c, 0, 93, 83
1, 228570, Note_on_c, 0, 95, 0
1, 228593, Control_c, 0, 64, 0
1, 228607, Note_on_c, 0, 93, 0
1, 228625, Note_on_c, 0, 92, 71
1, 228678, Note_on_c, 0, 91, 88
1, 228699, Note_on_c, 0, 92, 0
1, 228743, Note_on_c, 0, 91, 0
1, 228752, Note_on_c, 0, 92, 61
1, 228806, Note_on_c, 0, 59, 100
1, 228812, Note_on_c, 0, 56, 84
1, 228815, Note_on_c, 0, 47, 82
1, 228815, Note_on_c, 0, 93, 103
1, 228815, Note_on_c, 0, 52, 88
1, 228844, Control_c, 0, 64, 127
1, 228848, Note_on_c, 0, 47, 0
1, 228851, Note_on_c, 0, 59, 0
1, 228855, Note_on_c, 0, 92, 0
1, 228855, Note_on_c, 0, 52, 0
1, 228898, Note_on_c, 0, 56, 0
1, 228898, Note_on_c, 0, 92, 90
1, 228949, Note_on_c, 0, 93, 0
1, 228954, Note_on_c, 0, 90, 76
1, 229007, Note_on_c, 0, 92, 0
1, 229013, Control_c, 0, 64, 0
1, 229019, Note_on_c, 0, 88, 83
1, 229030, Note_on_c, 0, 90, 0
1, 229055, Note_on_c, 0, 88, 0
1, 229083, Note_on_c, 0, 87, 79
1, 229153, Note_on_c, 0, 88, 81
1, 229163, Note_on_c, 0, 87, 0
1, 229202, Note_on_c, 0, 88, 0
1, 229202, Note_on_c, 0, 59, 100
1, 229206, Note_on_c, 0, 90, 93
1, 229206, Note_on_c, 0, 56, 86
1, 229211, Note_on_c, 0, 47, 78
1, 229211, Note_on_c, 0, 52, 95
1, 229241, Note_on_c, 0, 47, 0
1, 229241, Note_on_c, 0, 59, 0
1, 229245, Note_on_c, 0, 52, 0
1, 229264, Control_c, 0, 64, 127
1, 229278, Note_on_c, 0, 56, 0
1, 229291, Note_on_c, 0, 88, 97
1, 229339, Note_on_c, 0, 87, 78
1, 229344, Note_on_c, 0, 90, 0
1, 229403, Note_on_c, 0, 88, 0
1, 229403, Note_on_c, 0, 85, 90
1, 229450, Note_on_c, 0, 87, 0
1, 229456, Control_c, 0, 64, 0
1, 229470, Note_on_c, 0, 83, 109
1, 229493, Note_on_c, 0, 85, 0
1, 229537, Note_on_c, 0, 82, 73
1, 229564, Note_on_c, 0, 83, 0
1, 229595, Note_on_c, 0, 85, 109
1, 229612, Note_on_c, 0, 59, 89
1, 229612, Note_on_c, 0, 47, 82
1, 229617, Note_on_c, 0, 56, 73
1, 229620, Note_on_c, 0, 52, 78
1, 229637, Note_on_c, 0, 82, 0
1, 229653, Note_on_c, 0, 47, 0
1, 229659, Note_on_c, 0, 52, 0
1, 229671, Note_on_c, 0, 83, 110
1, 229707, Note_on_c, 0, 59, 0
1, 229707, Control_c, 0, 64, 127
1, 229713, Note_on_c, 0, 85, 0
1, 229726, Note_on_c, 0, 56, 0
1, 229737, Note_on_c, 0, 83, 0
1, 229737, Note_on_c, 0, 82, 85
1, 229776, Note_on_c, 0, 82, 0
1, 229807, Note_on_c, 0, 83, 105
1, 229888, Note_on_c, 0, 83, 0
1, 229888, Note_on_c, 0, 92, 95
1, 229979, Note_on_c, 0, 88, 83
1, 230019, Note_on_c, 0, 92, 0
1, 230052, Note_on_c, 0, 83, 114
1, 230058, Note_on_c, 0, 71, 78
1, 230064, Note_on_c, 0, 88, 0
1, 230078, Note_on_c, 0, 83, 0
1, 230100, Note_on_c, 0, 71, 0
1, 230114, Note_on_c, 0, 68, 64
1, 230135, Note_on_c, 0, 80, 82
1, 230155, Note_on_c, 0, 68, 0
1, 230177, Note_on_c, 0, 64, 74
1, 230195, Note_on_c, 0, 76, 73
1, 230208, Note_on_c, 0, 64, 0
1, 230248, Note_on_c, 0, 80, 0
1, 230264, Note_on_c, 0, 71, 98
1, 230273, Note_on_c, 0, 76, 0
1, 230278, Note_on_c, 0, 59, 78
1, 230297, Note_on_c, 0, 71, 0
1, 230325, Note_on_c, 0, 59, 0
1, 230347, Note_on_c, 0, 68, 85
1, 230355, Note_on_c, 0, 56, 75
1, 230404, Note_on_c, 0, 56, 0
1, 230408, Note_on_c, 0, 64, 88
1, 230414, Note_on_c, 0, 52, 88
1, 230447, Note_on_c, 0, 52, 0
1, 230468, Note_on_c, 0, 68, 0
1, 230478, Note_on_c, 0, 47, 108
1, 230478, Note_on_c, 0, 59, 115
1, 230534, Note_on_c, 0, 47, 0
1, 230554, Note_on_c, 0, 64, 0
1, 230568, Note_on_c, 0, 59, 0
1, 230643, Control_c, 0, 64, 0
1, 230910, Note_on_c, 0, 66, 92
1, 230913, Note_on_c, 0, 75, 101
1, 230916, Note_on_c, 0, 69, 86
1, 230916, Note_on_c, 0, 71, 105
1, 230916, Note_on_c, 0, 59, 103
1, 230919, Note_on_c, 0, 47, 101
1, 231002, Note_on_c, 0, 59, 0
1, 231014, Control_c, 0, 64, 127
1, 231017, Note_on_c, 0, 66, 0
1, 231022, Note_on_c, 0, 47, 0
1, 231047, Note_on_c, 0, 69, 0
1, 231053, Note_on_c, 0, 75, 0
1, 231064, Note_on_c, 0, 71, 0
1, 231133, Control_c, 0, 64, 0
1, 231437, Note_on_c, 0, 68, 90
1, 231437, Note_on_c, 0, 76, 100
1, 231440, Note_on_c, 0, 64, 106
1, 231440, Note_on_c, 0, 71, 104
1, 231443, Note_on_c, 0, 52, 105
1, 231447, Note_on_c, 0, 40, 110
1, 231518, Control_c, 0, 64, 127
1, 231529, Note_on_c, 0, 40, 0
1, 231535, Note_on_c, 0, 52, 0
1, 231599, Note_on_c, 0, 76, 0
1, 231602, Note_on_c, 0, 71, 0
1, 231621, Note_on_c, 0, 64, 0
1, 231624, Note_on_c, 0, 68, 0
1, 231709, Control_c, 0, 64, 0
1, 231852, Note_on_c, 0, 71, 84
1, 231893, Note_on_c, 0, 71, 0
1, 231897, Note_on_c, 0, 70, 71
1, 231958, Note_on_c, 0, 71, 85
1, 231993, Note_on_c, 0, 70, 0
1, 232050, Note_on_c, 0, 71, 0
1, 232106, Note_on_c, 0, 64, 68
1, 232147, Note_on_c, 0, 64, 0
1, 232245, Note_on_c, 0, 59, 61
1, 232286, Note_on_c, 0, 59, 0
1, 232286, Note_on_c, 0, 58, 63
1, 232340, Note_on_c, 0, 58, 0
1, 232362, Note_on_c, 0, 59, 53
1, 232418, Note_on_c, 0, 59, 0
1, 232545, Note_on_c, 0, 52, 51
1, 232599, Note_on_c, 0, 52, 0
1, 232695, Note_on_c, 0, 59, 62
1, 232958, Note_on_c, 0, 40, 49
1, 232961, Note_on_c, 0, 64, 66
1, 232961, Note_on_c, 0, 56, 44
1, 232983, Note_on_c, 0, 47, 36
1, 233007, Note_on_c, 0, 59, 0
1, 233267, Control_c, 0, 64, 127
1, 233342, Note_on_c, 0, 66, 55
1, 233351, Note_on_c, 0, 64, 0
1, 233484, Control_c, 0, 64, 0
1, 233553, Note_on_c, 0, 40, 0
1, 233570, Note_on_c, 0, 64, 56
1, 233576, Note_on_c, 0, 35, 46
1, 233584, Note_on_c, 0, 66, 0
1, 233866, Control_c, 0, 64, 127
1, 233941, Note_on_c, 0, 56, 0
1, 233972, Note_on_c, 0, 64, 0
1, 234000, Note_on_c, 0, 35, 0
1, 234035, Note_on_c, 0, 58, 41
1, 234056, Note_on_c, 0, 47, 0
1, 234094, Note_on_c, 0, 58, 0
1, 234106, Note_on_c, 0, 59, 51
1, 234113, Note_on_c, 0, 63, 38
1, 234130, Control_c, 0, 64, 0
1, 234186, Note_on_c, 0, 59, 0
1, 234251, Note_on_c, 0, 54, 65
1, 234334, Note_on_c, 0, 54, 0
1, 234386, Note_on_c, 0, 47, 60
1, 234428, Note_on_c, 0, 47, 0
1, 234428, Note_on_c, 0, 46, 59
1, 234476, Note_on_c, 0, 46, 0
1, 234490, Note_on_c, 0, 47, 61
1, 234506, Note_on_c, 0, 63, 0
1, 234539, Note_on_c, 0, 47, 0
1, 234687, Note_on_c, 0, 35, 60
1, 234723, Note_on_c, 0, 35, 0
1, 234849, Note_on_c, 0, 59, 73
1, 235074, Note_on_c, 0, 66, 72
1, 235091, Note_on_c, 0, 63, 60
1, 235095, Note_on_c, 0, 57, 45
1, 235106, Note_on_c, 0, 47, 44
1, 235141, Note_on_c, 0, 59, 0
1, 235340, Control_c, 0, 64, 127
1, 235467, Note_on_c, 0, 66, 0
1, 235467, Note_on_c, 0, 68, 66
1, 235490, Note_on_c, 0, 57, 0
1, 235557, Note_on_c, 0, 63, 0
1, 235712, Control_c, 0, 64, 0
1, 235721, Note_on_c, 0, 66, 59
1, 235729, Note_on_c, 0, 56, 37
1, 235772, Note_on_c, 0, 35, 38
1, 235805, Note_on_c, 0, 68, 0
1, 235964, Control_c, 0, 64, 127
1, 236158, Note_on_c, 0, 62, 32
1, 236162, Note_on_c, 0, 56, 0
1, 236177, Note_on_c, 0, 66, 0
1, 236191, Note_on_c, 0, 61, 56
1, 236211, Note_on_c, 0, 62, 0
1, 236211, Note_on_c, 0, 35, 0
1, 236223, Note_on_c, 0, 47, 0
1, 236272, Note_on_c, 0, 62, 65
1, 236297, Note_on_c, 0, 61, 0
1, 236297, Note_on_c, 0, 65, 33
1, 236323, Control_c, 0, 64, 0
1, 236361, Note_on_c, 0, 62, 0
1, 236429, Note_on_c, 0, 56, 53
1, 236490, Note_on_c, 0, 56, 0
1, 236585, Note_on_c, 0, 47, 52
1, 236629, Note_on_c, 0, 47, 0
1, 236629, Note_on_c, 0, 46, 57
1, 236673, Note_on_c, 0, 46, 0
1, 236687, Note_on_c, 0, 47, 58
1, 236727, Note_on_c, 0, 65, 0
1, 236755, Note_on_c, 0, 47, 0
1, 236879, Note_on_c, 0, 35, 69
1, 236914, Note_on_c, 0, 35, 0
1, 237039, Note_on_c, 0, 59, 78
1, 237250, Note_on_c, 0, 68, 82
1, 237270, Note_on_c, 0, 62, 42
1, 237270, Note_on_c, 0, 65, 51
1, 237275, Note_on_c, 0, 47, 44
1, 237281, Note_on_c, 0, 59, 0
1, 237534, Control_c, 0, 64, 127
1, 237591, Note_on_c, 0, 62, 0
1, 237598, Note_on_c, 0, 65, 0
1, 237610, Note_on_c, 0, 69, 73
1, 237666, Note_on_c, 0, 68, 0
1, 237726, Control_c, 0, 64, 0
1, 237799, Note_on_c, 0, 47, 0
1, 237810, Note_on_c, 0, 68, 74
1, 237833, Note_on_c, 0, 45, 36
1, 237882, Note_on_c, 0, 69, 0
1, 237985, Note_on_c, 0, 54, 55
1, 237988, Note_on_c, 0, 49, 53
1, 238034, Note_on_c, 0, 49, 0
1, 238038, Note_on_c, 0, 54, 0
1, 238162, Note_on_c, 0, 54, 54
1, 238169, Note_on_c, 0, 49, 45
1, 238219, Note_on_c, 0, 54, 0
1, 238223, Note_on_c, 0, 49, 0
1, 238229, Control_c, 0, 64, 127
1, 238373, Control_c, 0, 64, 0
1, 238385, Note_on_c, 0, 66, 46
1, 238385, Note_on_c, 0, 54, 37
1, 238412, Note_on_c, 0, 49, 35
1, 238465, Note_on_c, 0, 68, 0
1, 238591, Note_on_c, 0, 73, 64
1, 238601, Control_c, 0, 64, 127
1, 238646, Note_on_c, 0, 66, 0
1, 238693, Note_on_c, 0, 45, 0
1, 238715, Note_on_c, 0, 49, 0
1, 238752, Note_on_c, 0, 54, 0
1, 238786, Note_on_c, 0, 69, 62
1, 238841, Control_c, 0, 64, 0
1, 238847, Note_on_c, 0, 73, 0
1, 238980, Note_on_c, 0, 68, 59
1, 239008, Note_on_c, 0, 45, 35
1, 239034, Note_on_c, 0, 69, 0
1, 239158, Note_on_c, 0, 61, 42
1, 239165, Note_on_c, 0, 54, 47
1, 239184, Note_on_c, 0, 49, 36
1, 239215, Note_on_c, 0, 54, 0
1, 239229, Note_on_c, 0, 61, 0
1, 239236, Note_on_c, 0, 49, 0
1, 239236, Control_c, 0, 64, 127
1, 239356, Note_on_c, 0, 54, 44
1, 239360, Note_on_c, 0, 66, 42
1, 239381, Note_on_c, 0, 61, 24
1, 239381, Note_on_c, 0, 49, 33
1, 239412, Note_on_c, 0, 54, 0
1, 239434, Note_on_c, 0, 49, 0
1, 239448, Note_on_c, 0, 61, 0
1, 239456, Note_on_c, 0, 68, 0
1, 239560, Control_c, 0, 64, 0
1, 239580, Note_on_c, 0, 61, 34
1, 239588, Note_on_c, 0, 49, 44
1, 239593, Note_on_c, 0, 54, 45
1, 239750, Control_c, 0, 64, 127
1, 239768, Note_on_c, 0, 73, 60
1, 239783, Note_on_c, 0, 45, 0
1, 239794, Note_on_c, 0, 66, 0
1, 239825, Note_on_c, 0, 54, 0
1, 239835, Note_on_c, 0, 49, 0
1, 239899, Note_on_c, 0, 61, 0
1, 239983, Note_on_c, 0, 67, 63
1, 240092, Note_on_c, 0, 73, 0
1, 240267, Control_c, 0, 64, 0
1, 240276, Note_on_c, 0, 66, 44
1, 240276, Note_on_c, 0, 46, 35
1, 240348, Note_on_c, 0, 67, 0
1, 240506, Control_c, 0, 64, 127
1, 240538, Note_on_c, 0, 61, 34
1, 240552, Note_on_c, 0, 52, 39
1, 240552, Note_on_c, 0, 55, 24
1, 240604, Note_on_c, 0, 52, 0
1, 240612, Note_on_c, 0, 61, 0
1, 240616, Note_on_c, 0, 55, 0
1, 240764, Note_on_c, 0, 64, 41
1, 240777, Note_on_c, 0, 61, 19
1, 240777, Note_on_c, 0, 52, 39
1, 240777, Note_on_c, 0, 55, 24
1, 240803, Note_on_c, 0, 66, 0
1, 240830, Note_on_c, 0, 52, 0
1, 240841, Note_on_c, 0, 61, 0
1, 240841, Note_on_c, 0, 55, 0
1, 240969, Note_on_c, 0, 61, 24
1, 240986, Control_c, 0, 64, 0
1, 240986, Note_on_c, 0, 55, 32
1, 240997, Note_on_c, 0, 52, 19
1, 241153, Control_c, 0, 64, 127
1, 241167, Note_on_c, 0, 73, 42
1, 241206, Note_on_c, 0, 61, 0
1, 241225, Note_on_c, 0, 64, 0
1, 241251, Note_on_c, 0, 55, 0
1, 241334, Note_on_c, 0, 52, 0
1, 241356, Note_on_c, 0, 46, 0
1, 241423, Note_on_c, 0, 67, 40
1, 241476, Note_on_c, 0, 73, 0
1, 241649, Note_on_c, 0, 67, 0
1, 241707, Note_on_c, 0, 66, 32
1, 241727, Note_on_c, 0, 46, 26
1, 241860, Control_c, 0, 64, 0
1, 241964, Note_on_c, 0, 61, 34
1, 241982, Note_on_c, 0, 52, 41
1, 241985, Note_on_c, 0, 55, 35
1, 242017, Control_c, 0, 64, 127
1, 242044, Note_on_c, 0, 61, 0
1, 242050, Note_on_c, 0, 55, 0
1, 242058, Note_on_c, 0, 52, 0
1, 242295, Note_on_c, 0, 61, 28
1, 242312, Note_on_c, 0, 55, 32
1, 242318, Note_on_c, 0, 52, 27
1, 242371, Note_on_c, 0, 52, 0
1, 242381, Note_on_c, 0, 55, 0
1, 242395, Note_on_c, 0, 61, 0
1, 242803, Note_on_c, 0, 64, 38
1, 242825, Note_on_c, 0, 61, 18
1, 242839, Note_on_c, 0, 52, 20
1, 242839, Note_on_c, 0, 55, 19
1, 242934, Note_on_c, 0, 55, 0
1, 242944, Note_on_c, 0, 66, 0
1, 242970, Note_on_c, 0, 61, 0
1, 243067, Note_on_c, 0, 52, 0
1, 243092, Note_on_c, 0, 64, 0
1, 243117, Note_on_c, 0, 46, 0
1, 243494, Note_on_c, 0, 88, 57
1, 243543, Note_on_c, 0, 88, 0
1, 243563, Note_on_c, 0, 87, 62
1, 243574, Control_c, 0, 64, 0
1, 243629, Note_on_c, 0, 47, 68
1, 243629, Note_on_c, 0, 35, 78
1, 243629, Note_on_c, 0, 88, 85
1, 243633, Note_on_c, 0, 87, 0
1, 243660, Note_on_c, 0, 35, 0
1, 243666, Note_on_c, 0, 47, 0
1, 243683, Note_on_c, 0, 88, 0
1, 243782, Note_on_c, 0, 79, 68
1, 243785, Note_on_c, 0, 83, 90
1, 243819, Note_on_c, 0, 83, 0
1, 243819, Note_on_c, 0, 79, 0
1, 243905, Note_on_c, 0, 84, 72
1, 243905, Note_on_c, 0, 81, 71
1, 243916, Note_on_c, 0, 76, 48
1, 243944, Note_on_c, 0, 81, 0
1, 243948, Note_on_c, 0, 84, 0
1, 243948, Note_on_c, 0, 75, 73
1, 243959, Note_on_c, 0, 76, 0
1, 243994, Note_on_c, 0, 75, 0
1, 244014, Note_on_c, 0, 76, 65
1, 244014, Note_on_c, 0, 79, 83
1, 244014, Note_on_c, 0, 83, 101
1, 244045, Note_on_c, 0, 83, 0
1, 244050, Note_on_c, 0, 79, 0
1, 244050, Note_on_c, 0, 76, 0
1, 244159, Note_on_c, 0, 79, 60
1, 244159, Note_on_c, 0, 71, 64
1, 244168, Note_on_c, 0, 76, 41
1, 244200, Note_on_c, 0, 79, 0
1, 244203, Note_on_c, 0, 71, 0
1, 244223, Note_on_c, 0, 76, 0
1, 244281, Note_on_c, 0, 76, 59
1, 244285, Note_on_c, 0, 81, 81
1, 244298, Note_on_c, 0, 72, 65
1, 244320, Note_on_c, 0, 81, 0
1, 244337, Note_on_c, 0, 72, 0
1, 244342, Note_on_c, 0, 76, 0
1, 244374, Note_on_c, 0, 75, 39
1, 244393, Note_on_c, 0, 71, 79
1, 244393, Note_on_c, 0, 76, 76
1, 244399, Note_on_c, 0, 79, 87
1, 244427, Note_on_c, 0, 71, 0
1, 244427, Note_on_c, 0, 75, 0
1, 244437, Note_on_c, 0, 76, 0
1, 244437, Note_on_c, 0, 79, 0
1, 244547, Note_on_c, 0, 71, 71
1, 244547, Note_on_c, 0, 67, 56
1, 244547, Note_on_c, 0, 76, 51
1, 244588, Note_on_c, 0, 76, 0
1, 244588, Note_on_c, 0, 67, 0
1, 244588, Note_on_c, 0, 71, 0
1, 244657, Note_on_c, 0, 78, 83
1, 244674, Note_on_c, 0, 69, 53
1, 244677, Note_on_c, 0, 64, 52
1, 244677, Note_on_c, 0, 72, 56
1, 244689, Note_on_c, 0, 78, 0
1, 244714, Note_on_c, 0, 63, 68
1, 244717, Note_on_c, 0, 72, 0
1, 244717, Note_on_c, 0, 64, 0
1, 244721, Note_on_c, 0, 69, 0
1, 244753, Note_on_c, 0, 63, 0
1, 244781, Note_on_c, 0, 71, 79
1, 244784, Note_on_c, 0, 67, 76
1, 244784, Note_on_c, 0, 76, 64
1, 244797, Note_on_c, 0, 64, 56
1, 244820, Note_on_c, 0, 71, 0
1, 244823, Note_on_c, 0, 67, 0
1, 244827, Note_on_c, 0, 76, 0
1, 244838, Note_on_c, 0, 64, 0
1, 244930, Note_on_c, 0, 52, 83
1, 244945, Note_on_c, 0, 71, 63
1, 244945, Note_on_c, 0, 67, 59
1, 244959, Note_on_c, 0, 52, 0
1, 244989, Note_on_c, 0, 67, 0
1, 244989, Note_on_c, 0, 71, 0
1, 245058, Note_on_c, 0, 67, 49
1, 245058, Note_on_c, 0, 71, 64
1, 245090, Note_on_c, 0, 64, 48
1, 245101, Note_on_c, 0, 71, 0
1, 245107, Note_on_c, 0, 70, 74
1, 245145, Note_on_c, 0, 64, 0
1, 245169, Note_on_c, 0, 67, 0
1, 245176, Note_on_c, 0, 71, 80
1, 245176, Note_on_c, 0, 66, 60
1, 245187, Note_on_c, 0, 63, 70
1, 245192, Note_on_c, 0, 70, 0
1, 245223, Note_on_c, 0, 63, 0
1, 245223, Note_on_c, 0, 66, 0
1, 245246, Note_on_c, 0, 71, 0
1, 245312, Note_on_c, 0, 75, 71
1, 245323, Note_on_c, 0, 59, 67
1, 245348, Note_on_c, 0, 75, 0
1, 245359, Note_on_c, 0, 59, 0
1, 245444, Note_on_c, 0, 71, 89
1, 245444, Note_on_c, 0, 67, 54
1, 245451, Note_on_c, 0, 64, 59
1, 245480, Note_on_c, 0, 71, 0
1, 245490, Note_on_c, 0, 70, 76
1, 245504, Note_on_c, 0, 64, 0
1, 245538, Note_on_c, 0, 70, 0
1, 245543, Note_on_c, 0, 67, 0
1, 245551, Note_on_c, 0, 71, 73
1, 245551, Note_on_c, 0, 66, 52
1, 245561, Note_on_c, 0, 63, 59
1, 245599, Note_on_c, 0, 63, 0
1, 245599, Note_on_c, 0, 66, 0
1, 245610, Note_on_c, 0, 71, 0
1, 245689, Note_on_c, 0, 78, 75
1, 245700, Note_on_c, 0, 59, 61
1, 245721, Note_on_c, 0, 78, 0
1, 245739, Note_on_c, 0, 59, 0
1, 245817, Note_on_c, 0, 71, 74
1, 245838, Note_on_c, 0, 67, 46
1, 245838, Note_on_c, 0, 64, 43
1, 245853, Note_on_c, 0, 71, 0
1, 245856, Note_on_c, 0, 70, 74
1, 245897, Note_on_c, 0, 64, 0
1, 245906, Note_on_c, 0, 67, 0
1, 245917, Note_on_c, 0, 70, 0
1, 245922, Note_on_c, 0, 71, 68
1, 245928, Note_on_c, 0, 63, 52
1, 245944, Note_on_c, 0, 66, 40
1, 245972, Note_on_c, 0, 63, 0
1, 245972, Note_on_c, 0, 71, 0
1, 246003, Note_on_c, 0, 66, 0
1, 246051, Note_on_c, 0, 75, 70
1, 246051, Note_on_c, 0, 83, 93
1, 246059, Note_on_c, 0, 78, 49
1, 246076, Note_on_c, 0, 59, 55
1, 246086, Note_on_c, 0, 83, 0
1, 246086, Note_on_c, 0, 75, 0
1, 246103, Note_on_c, 0, 78, 0
1, 246114, Note_on_c, 0, 59, 0
1, 246190, Note_on_c, 0, 70, 74
1, 246190, Note_on_c, 0, 79, 73
1, 246190, Note_on_c, 0, 76, 59
1, 246226, Note_on_c, 0, 70, 0
1, 246229, Note_on_c, 0, 79, 0
1, 246232, Note_on_c, 0, 76, 0
1, 246315, Note_on_c, 0, 71, 81
1, 246324, Note_on_c, 0, 78, 81
1, 246327, Note_on_c, 0, 75, 73
1, 246356, Note_on_c, 0, 71, 0
1, 246366, Note_on_c, 0, 75, 0
1, 246379, Control_c, 0, 64, 127
1, 246394, Note_on_c, 0, 78, 0
1, 246468, Note_on_c, 0, 59, 73
1, 246497, Note_on_c, 0, 59, 0
1, 246497, Control_c, 0, 64, 0
1, 246655, Note_on_c, 0, 88, 66
1, 246711, Note_on_c, 0, 88, 0
1, 246730, Note_on_c, 0, 87, 58
1, 246780, Note_on_c, 0, 87, 0
1, 246833, Note_on_c, 0, 88, 65
1, 246836, Note_on_c, 0, 31, 46
1, 246836, Note_on_c, 0, 43, 36
1, 246926, Note_on_c, 0, 31, 0
1, 246930, Control_c, 0, 64, 127
1, 246939, Note_on_c, 0, 88, 0
1, 246970, Note_on_c, 0, 43, 0
1, 246990, Note_on_c, 0, 83, 83
1, 247033, Note_on_c, 0, 83, 0
1, 247114, Note_on_c, 0, 79, 67
1, 247170, Note_on_c, 0, 79, 0
1, 247252, Note_on_c, 0, 76, 51
1, 247260, Note_on_c, 0, 59, 46
1, 247279, Note_on_c, 0, 52, 44
1, 247279, Note_on_c, 0, 55, 33
1, 247293, Note_on_c, 0, 76, 0
1, 247334, Note_on_c, 0, 59, 0
1, 247351, Note_on_c, 0, 55, 0
1, 247379, Note_on_c, 0, 52, 0
1, 247379, Note_on_c, 0, 71, 60
1, 247438, Note_on_c, 0, 71, 0
1, 247507, Note_on_c, 0, 67, 80
1, 247552, Note_on_c, 0, 67, 0
1, 247649, Note_on_c, 0, 64, 87
1, 247692, Note_on_c, 0, 64, 0
1, 247745, Control_c, 0, 64, 0
1, 247777, Note_on_c, 0, 43, 64
1, 247777, Note_on_c, 0, 31, 77
1, 247783, Note_on_c, 0, 67, 79
1, 247811, Note_on_c, 0, 31, 0
1, 247816, Note_on_c, 0, 43, 0
1, 247831, Note_on_c, 0, 67, 0
1, 247911, Note_on_c, 0, 71, 93
1, 247917, Note_on_c, 0, 31, 64
1, 247925, Note_on_c, 0, 43, 17
1, 247940, Note_on_c, 0, 71, 0
1, 247956, Note_on_c, 0, 31, 0
1, 247969, Note_on_c, 0, 43, 0
1, 248029, Note_on_c, 0, 43, 59
1, 248037, Note_on_c, 0, 31, 60
1, 248037, Note_on_c, 0, 76, 83
1, 248079, Note_on_c, 0, 31, 0
1, 248082, Note_on_c, 0, 76, 0
1, 248082, Note_on_c, 0, 43, 0
1, 248162, Note_on_c, 0, 31, 78
1, 248167, Note_on_c, 0, 79, 98
1, 248195, Note_on_c, 0, 79, 0
1, 248195, Note_on_c, 0, 31, 0
1, 248307, Note_on_c, 0, 88, 80
1, 248312, Note_on_c, 0, 31, 87
1, 248312, Note_on_c, 0, 43, 45
1, 248345, Note_on_c, 0, 31, 0
1, 248359, Note_on_c, 0, 88, 0
1, 248369, Note_on_c, 0, 43, 0
1, 248369, Note_on_c, 0, 87, 72
1, 248441, Note_on_c, 0, 87, 0
1, 248463, Note_on_c, 0, 88, 88
1, 248469, Note_on_c, 0, 33, 83
1, 248469, Note_on_c, 0, 45, 66
1, 248599, Note_on_c, 0, 33, 0
1, 248617, Note_on_c, 0, 84, 86
1, 248636, Note_on_c, 0, 45, 0
1, 248642, Note_on_c, 0, 88, 0
1, 248667, Control_c, 0, 64, 127
1, 248719, Note_on_c, 0, 84, 0
1, 248750, Note_on_c, 0, 81, 73
1, 248789, Note_on_c, 0, 81, 0
1, 248881, Note_on_c, 0, 60, 65
1, 248881, Note_on_c, 0, 54, 63
1, 248886, Note_on_c, 0, 76, 65
1, 248890, Note_on_c, 0, 57, 49
1, 248905, Note_on_c, 0, 52, 60
1, 248920, Note_on_c, 0, 76, 0
1, 249011, Note_on_c, 0, 72, 64
1, 249056, Note_on_c, 0, 72, 0
1, 249056, Note_on_c, 0, 60, 0
1, 249067, Note_on_c, 0, 57, 0
1, 249101, Note_on_c, 0, 52, 0
1, 249109, Note_on_c, 0, 54, 0
1, 249145, Note_on_c, 0, 69, 61
1, 249192, Note_on_c, 0, 69, 0
1, 249287, Note_on_c, 0, 64, 86
1, 249323, Note_on_c, 0, 64, 0
1, 249340, Control_c, 0, 64, 0
1, 249415, Note_on_c, 0, 69, 71
1, 249415, Note_on_c, 0, 33, 75
1, 249415, Note_on_c, 0, 45, 59
1, 249455, Note_on_c, 0, 33, 0
1, 249460, Note_on_c, 0, 45, 0
1, 249468, Note_on_c, 0, 69, 0
1, 249544, Note_on_c, 0, 45, 25
1, 249549, Note_on_c, 0, 72, 80
1, 249555, Note_on_c, 0, 33, 63
1, 249580, Note_on_c, 0, 72, 0
1, 249591, Note_on_c, 0, 45, 0
1, 249597, Note_on_c, 0, 33, 0
1, 249674, Note_on_c, 0, 33, 63
1, 249674, Note_on_c, 0, 45, 28
1, 249674, Note_on_c, 0, 76, 76
1, 249713, Note_on_c, 0, 76, 0
1, 249717, Note_on_c, 0, 33, 0
1, 249733, Note_on_c, 0, 45, 0
1, 249809, Note_on_c, 0, 33, 69
1, 249812, Note_on_c, 0, 81, 81
1, 249819, Note_on_c, 0, 45, 21
1, 249844, Note_on_c, 0, 81, 0
1, 249851, Note_on_c, 0, 33, 0
1, 249880, Note_on_c, 0, 45, 0
1, 249928, Note_on_c, 0, 33, 60
1, 249948, Note_on_c, 0, 45, 53
1, 249951, Note_on_c, 0, 88, 73
1, 249992, Note_on_c, 0, 88, 0
1, 250000, Note_on_c, 0, 45, 0
1, 250000, Note_on_c, 0, 33, 0
1, 250007, Note_on_c, 0, 87, 64
1, 250050, Note_on_c, 0, 87, 0
1, 250100, Note_on_c, 0, 35, 88
1, 250100, Note_on_c, 0, 47, 69
1, 250104, Note_on_c, 0, 88, 76
1, 250154, Note_on_c, 0, 88, 0
1, 250195, Note_on_c, 0, 35, 0
1, 250201, Control_c, 0, 64, 127
1, 250226, Note_on_c, 0, 47, 0
1, 250243, Note_on_c, 0, 83, 100
1, 250277, Note_on_c, 0, 83, 0
1, 250298, Control_c, 0, 64, 0
1, 250371, Note_on_c, 0, 79, 89
1, 250404, Note_on_c, 0, 79, 0
1, 250496, Note_on_c, 0, 76, 85
1, 250500, Note_on_c, 0, 59, 66
1, 250513, Note_on_c, 0, 55, 61
1, 250518, Note_on_c, 0, 52, 71
1, 250549, Note_on_c, 0, 76, 0
1, 250592, Note_on_c, 0, 59, 0
1, 250608, Note_on_c, 0, 55, 0
1, 250624, Note_on_c, 0, 52, 0
1, 250636, Note_on_c, 0, 71, 87
1, 250670, Note_on_c, 0, 71, 0
1, 250781, Note_on_c, 0, 83, 106
1, 250822, Note_on_c, 0, 83, 0
1, 250830, Note_on_c, 0, 82, 67
1, 250901, Note_on_c, 0, 83, 109
1, 250901, Note_on_c, 0, 45, 66
1, 250906, Note_on_c, 0, 33, 79
1, 250931, Note_on_c, 0, 82, 0
1, 250965, Note_on_c, 0, 83, 0
1, 250981, Control_c, 0, 64, 127
1, 250989, Note_on_c, 0, 33, 0
1, 251006, Note_on_c, 0, 45, 0
1, 251037, Note_on_c, 0, 78, 82
1, 251053, Control_c, 0, 64, 0
1, 251078, Note_on_c, 0, 78, 0
1, 251163, Note_on_c, 0, 75, 82
1, 251198, Note_on_c, 0, 75, 0
1, 251296, Note_on_c, 0, 71, 90
1, 251302, Note_on_c, 0, 59, 58
1, 251302, Note_on_c, 0, 54, 63
1, 251312, Note_on_c, 0, 51, 52
1, 251330, Note_on_c, 0, 71, 0
1, 251382, Note_on_c, 0, 59, 0
1, 251408, Note_on_c, 0, 54, 0
1, 251424, Note_on_c, 0, 51, 0
1, 251427, Note_on_c, 0, 66, 75
1, 251461, Note_on_c, 0, 66, 0
1, 251574, Note_on_c, 0, 79, 99
1, 251574, Note_on_c, 0, 83, 107
1, 251608, Note_on_c, 0, 83, 0
1, 251616, Note_on_c, 0, 79, 0
1, 251644, Note_on_c, 0, 78, 73
1, 251677, Note_on_c, 0, 79, 92
1, 251680, Note_on_c, 0, 83, 100
1, 251688, Note_on_c, 0, 31, 74
1, 251688, Note_on_c, 0, 43, 71
1, 251720, Note_on_c, 0, 78, 0
1, 251750, Note_on_c, 0, 31, 0
1, 251750, Note_on_c, 0, 79, 0
1, 251758, Note_on_c, 0, 83, 0
1, 251770, Note_on_c, 0, 43, 0
1, 251828, Note_on_c, 0, 76, 67
1, 251872, Note_on_c, 0, 76, 0
1, 251948, Note_on_c, 0, 81, 75
1, 251948, Note_on_c, 0, 78, 77
1, 251982, Note_on_c, 0, 81, 0
1, 251993, Note_on_c, 0, 78, 0
1, 251993, Note_on_c, 0, 77, 71
1, 252051, Note_on_c, 0, 45, 56
1, 252051, Note_on_c, 0, 81, 59
1, 252054, Note_on_c, 0, 78, 77
1, 252060, Note_on_c, 0, 33, 65
1, 252098, Note_on_c, 0, 77, 0
1, 252106, Note_on_c, 0, 81, 0
1, 252115, Note_on_c, 0, 78, 0
1, 252131, Note_on_c, 0, 33, 0
1, 252148, Note_on_c, 0, 45, 0
1, 252201, Note_on_c, 0, 72, 61
1, 252240, Note_on_c, 0, 72, 0
1, 252310, Note_on_c, 0, 79, 74
1, 252310, Note_on_c, 0, 76, 68
1, 252347, Note_on_c, 0, 79, 0
1, 252354, Note_on_c, 0, 76, 0
1, 252369, Note_on_c, 0, 75, 68
1, 252416, Note_on_c, 0, 76, 65
1, 252422, Note_on_c, 0, 79, 53
1, 252430, Note_on_c, 0, 47, 65
1, 252438, Note_on_c, 0, 35, 63
1, 252455, Note_on_c, 0, 75, 0
1, 252468, Note_on_c, 0, 79, 0
1, 252483, Note_on_c, 0, 35, 0
1, 252486, Note_on_c, 0, 47, 0
1, 252491, Note_on_c, 0, 76, 0
1, 252566, Note_on_c, 0, 71, 72
1, 252608, Note_on_c, 0, 71, 0
1, 252680, Note_on_c, 0, 78, 56
1, 252680, Note_on_c, 0, 75, 72
1, 252719, Note_on_c, 0, 75, 0
1, 252719, Note_on_c, 0, 78, 0
1, 252727, Note_on_c, 0, 74, 69
1, 252773, Note_on_c, 0, 78, 69
1, 252778, Note_on_c, 0, 75, 78
1, 252794, Note_on_c, 0, 47, 66
1, 252805, Note_on_c, 0, 35, 67
1, 252814, Note_on_c, 0, 74, 0
1, 252858, Note_on_c, 0, 47, 0
1, 252858, Note_on_c, 0, 35, 0
1, 252862, Note_on_c, 0, 75, 0
1, 252867, Note_on_c, 0, 78, 0
1, 252931, Note_on_c, 0, 69, 62
1, 252979, Note_on_c, 0, 69, 0
1, 253040, Note_on_c, 0, 72, 73
1, 253065, Note_on_c, 0, 76, 38
1, 253090, Note_on_c, 0, 72, 0
1, 253102, Note_on_c, 0, 71, 68
1, 253117, Note_on_c, 0, 76, 0
1, 253151, Note_on_c, 0, 72, 78
1, 253156, Note_on_c, 0, 76, 84
1, 253156, Note_on_c, 0, 48, 67
1, 253168, Note_on_c, 0, 36, 55
1, 253182, Note_on_c, 0, 71, 0
1, 253196, Note_on_c, 0, 76, 0
1, 253216, Note_on_c, 0, 72, 0
1, 253216, Note_on_c, 0, 48, 0
1, 253243, Note_on_c, 0, 36, 0
1, 253294, Note_on_c, 0, 67, 65
1, 253336, Note_on_c, 0, 67, 0
1, 253407, Note_on_c, 0, 69, 59
1, 253407, Note_on_c, 0, 72, 61
1, 253448, Note_on_c, 0, 72, 0
1, 253453, Note_on_c, 0, 68, 68
1, 253458, Note_on_c, 0, 69, 0
1, 253507, Note_on_c, 0, 69, 73
1, 253507, Note_on_c, 0, 72, 58
1, 253527, Note_on_c, 0, 45, 68
1, 253533, Note_on_c, 0, 68, 0
1, 253533, Note_on_c, 0, 33, 56
1, 253569, Note_on_c, 0, 69, 0
1, 253581, Note_on_c, 0, 72, 0
1, 253591, Note_on_c, 0, 45, 0
1, 253591, Note_on_c, 0, 33, 0
1, 253664, Note_on_c, 0, 65, 53
1, 253705, Note_on_c, 0, 65, 0
1, 253765, Note_on_c, 0, 67, 75
1, 253784, Note_on_c, 0, 71, 40
1, 253819, Note_on_c, 0, 67, 0
1, 253823, Note_on_c, 0, 66, 56
1, 253837, Note_on_c, 0, 71, 0
1, 253868, Note_on_c, 0, 67, 81
1, 253878, Note_on_c, 0, 71, 73
1, 253878, Note_on_c, 0, 47, 62
1, 253878, Note_on_c, 0, 35, 72
1, 253909, Note_on_c, 0, 66, 0
1, 253915, Note_on_c, 0, 71, 0
1, 253923, Note_on_c, 0, 67, 0
1, 253931, Note_on_c, 0, 35, 0
1, 253931, Note_on_c, 0, 47, 0
1, 254015, Note_on_c, 0, 64, 68
1, 254060, Note_on_c, 0, 64, 0
1, 254112, Note_on_c, 0, 66, 70
1, 254121, Note_on_c, 0, 69, 58
1, 254162, Note_on_c, 0, 69, 0
1, 254176, Note_on_c, 0, 65, 63
1, 254195, Note_on_c, 0, 66, 0
1, 254215, Note_on_c, 0, 69, 60
1, 254230, Note_on_c, 0, 66, 81
1, 254244, Note_on_c, 0, 47, 70
1, 254251, Note_on_c, 0, 65, 0
1, 254251, Note_on_c, 0, 35, 65
1, 254262, Note_on_c, 0, 69, 0
1, 254305, Note_on_c, 0, 35, 0
1, 254322, Note_on_c, 0, 66, 0
1, 254354, Note_on_c, 0, 63, 79
1, 254371, Note_on_c, 0, 47, 0
1, 254396, Note_on_c, 0, 63, 0
1, 254477, Note_on_c, 0, 64, 86
1, 254530, Note_on_c, 0, 63, 77
1, 254553, Note_on_c, 0, 64, 0
1, 254591, Note_on_c, 0, 67, 93
1, 254600, Note_on_c, 0, 64, 93
1, 254600, Note_on_c, 0, 48, 73
1, 254623, Note_on_c, 0, 63, 0
1, 254633, Note_on_c, 0, 64, 0
1, 254663, Note_on_c, 0, 67, 0
1, 254680, Note_on_c, 0, 48, 0
1, 254718, Note_on_c, 0, 60, 80
1, 254762, Note_on_c, 0, 60, 0
1, 254831, Note_on_c, 0, 60, 51
1, 254890, Note_on_c, 0, 59, 66
1, 254904, Note_on_c, 0, 60, 0
1, 254956, Note_on_c, 0, 59, 0
1, 254956, Note_on_c, 0, 60, 92
1, 254956, Note_on_c, 0, 65, 71
1, 254965, Note_on_c, 0, 45, 66
1, 254996, Note_on_c, 0, 65, 0
1, 255007, Note_on_c, 0, 60, 0
1, 255059, Note_on_c, 0, 45, 0
1, 255090, Note_on_c, 0, 57, 64
1, 255137, Note_on_c, 0, 57, 0
1, 255202, Note_on_c, 0, 59, 61
1, 255229, Note_on_c, 0, 58, 64
1, 255244, Note_on_c, 0, 59, 0
1, 255301, Note_on_c, 0, 59, 77
1, 255315, Note_on_c, 0, 64, 77
1, 255321, Note_on_c, 0, 47, 64
1, 255344, Note_on_c, 0, 58, 0
1, 255349, Note_on_c, 0, 64, 0
1, 255382, Note_on_c, 0, 59, 0
1, 255414, Note_on_c, 0, 47, 0
1, 255450, Note_on_c, 0, 55, 75
1, 255499, Note_on_c, 0, 55, 0
1, 255561, Note_on_c, 0, 57, 64
1, 255613, Note_on_c, 0, 56, 74
1, 255620, Note_on_c, 0, 57, 0
1, 255666, Note_on_c, 0, 63, 83
1, 255673, Note_on_c, 0, 57, 91
1, 255678, Note_on_c, 0, 56, 0
1, 255686, Note_on_c, 0, 47, 51
1, 255719, Note_on_c, 0, 63, 0
1, 255739, Note_on_c, 0, 57, 0
1, 255772, Note_on_c, 0, 47, 0
1, 255808, Note_on_c, 0, 54, 79
1, 255854, Note_on_c, 0, 54, 0
1, 255923, Note_on_c, 0, 52, 90
1, 255960, Note_on_c, 0, 52, 0
1, 255984, Note_on_c, 0, 51, 71
1, 256029, Note_on_c, 0, 51, 0
1, 256032, Note_on_c, 0, 52, 94
1, 256045, Note_on_c, 0, 64, 82
1, 256045, Note_on_c, 0, 55, 87
1, 256049, Note_on_c, 0, 59, 82
1, 256102, Note_on_c, 0, 52, 0
1, 256141, Note_on_c, 0, 55, 0
1, 256176, Note_on_c, 0, 64, 0
1, 256182, Note_on_c, 0, 59, 0
1, 256187, Note_on_c, 0, 47, 84
1, 256219, Note_on_c, 0, 47, 0
1, 256333, Note_on_c, 0, 52, 70
1, 256369, Note_on_c, 0, 52, 0
1, 256372, Note_on_c, 0, 51, 83
1, 256422, Note_on_c, 0, 51, 0
1, 256436, Note_on_c, 0, 52, 79
1, 256505, Note_on_c, 0, 52, 0
1, 256580, Note_on_c, 0, 47, 79
1, 256616, Note_on_c, 0, 47, 0
1, 256729, Note_on_c, 0, 52, 75
1, 256773, Note_on_c, 0, 52, 0
1, 256807, Note_on_c, 0, 51, 48
1, 256856, Note_on_c, 0, 51, 0
1, 256865, Note_on_c, 0, 64, 59
1, 256868, Note_on_c, 0, 52, 82
1, 256871, Note_on_c, 0, 55, 61
1, 256881, Note_on_c, 0, 59, 44
1, 256904, Note_on_c, 0, 52, 0
1, 257010, Note_on_c, 0, 47, 69
1, 257046, Note_on_c, 0, 47, 0
1, 257169, Note_on_c, 0, 52, 77
1, 257210, Note_on_c, 0, 52, 0
1, 257222, Note_on_c, 0, 55, 0
1, 257227, Note_on_c, 0, 51, 68
1, 257265, Note_on_c, 0, 51, 0
1, 257288, Note_on_c, 0, 64, 0
1, 257288, Note_on_c, 0, 52, 85
1, 257296, Note_on_c, 0, 59, 0
1, 257325, Note_on_c, 0, 52, 0
1, 257436, Note_on_c, 0, 43, 81
1, 257472, Note_on_c, 0, 43, 0
1, 257586, Note_on_c, 0, 47, 78
1, 257622, Note_on_c, 0, 47, 0
1, 257742, Note_on_c, 0, 40, 91
1, 257742, Note_on_c, 0, 55, 63
1, 257742, Note_on_c, 0, 64, 58
1, 257753, Note_on_c, 0, 59, 47
1, 257782, Note_on_c, 0, 40, 0
1, 257903, Note_on_c, 0, 35, 78
1, 257946, Note_on_c, 0, 35, 0
1, 258068, Note_on_c, 0, 40, 88
1, 258113, Note_on_c, 0, 40, 0
1, 258143, Note_on_c, 0, 39, 62
1, 258179, Note_on_c, 0, 55, 0
1, 258185, Note_on_c, 0, 39, 0
1, 258218, Note_on_c, 0, 40, 83
1, 258250, Note_on_c, 0, 64, 0
1, 258263, Note_on_c, 0, 40, 0
1, 258271, Note_on_c, 0, 59, 0
1, 258405, Note_on_c, 0, 35, 64
1, 258445, Note_on_c, 0, 35, 0
1, 258581, Note_on_c, 0, 40, 75
1, 258625, Note_on_c, 0, 40, 0
1, 258656, Note_on_c, 0, 39, 68
1, 258706, Note_on_c, 0, 39, 0
1, 258754, Note_on_c, 0, 55, 48
1, 258762, Note_on_c, 0, 40, 72
1, 258762, Note_on_c, 0, 64, 41
1, 258768, Note_on_c, 0, 59, 31
1, 258801, Note_on_c, 0, 40, 0
1, 258982, Note_on_c, 0, 35, 52
1, 259026, Note_on_c, 0, 35, 0
1, 259049, Note_on_c, 0, 64, 0
1, 259132, Note_on_c, 0, 55, 0
1, 259227, Note_on_c, 0, 40, 60
1, 259277, Note_on_c, 0, 40, 0
1, 259325, Note_on_c, 0, 39, 50
1, 259385, Note_on_c, 0, 39, 0
1, 259461, Note_on_c, 0, 40, 58
1, 259503, Note_on_c, 0, 40, 0
1, 259751, Note_on_c, 0, 31, 41
1, 259828, Note_on_c, 0, 31, 0
1, 260182, Note_on_c, 0, 35, 45
1, 260255, Note_on_c, 0, 59, 0
1, 260285, Note_on_c, 0, 35, 0
1, 261043, Note_on_c, 0, 40, 126
1, 261043, Note_on_c, 0, 28, 114
1, 261074, Note_on_c, 0, 28, 0
1, 261093, Note_on_c, 0, 64, 92
1, 261093, Note_on_c, 0, 52, 96
1, 261096, Note_on_c, 0, 40, 0
1, 261108, Control_c, 0, 64, 127
1, 261124, Note_on_c, 0, 52, 0
1, 261133, Note_on_c, 0, 64, 0
1, 261169, Note_on_c, 0, 43, 103
1, 261180, Control_c, 0, 64, 0
1, 261180, Note_on_c, 0, 31, 83
1, 261204, Note_on_c, 0, 43, 0
1, 261213, Note_on_c, 0, 31, 0
1, 261213, Note_on_c, 0, 67, 90
1, 261224, Note_on_c, 0, 55, 71
1, 261244, Note_on_c, 0, 67, 0
1, 261263, Note_on_c, 0, 55, 0
1, 261277, Note_on_c, 0, 42, 97
1, 261286, Note_on_c, 0, 30, 97
1, 261333, Note_on_c, 0, 30, 0
1, 261339, Note_on_c, 0, 66, 77
1, 261339, Note_on_c, 0, 54, 90
1, 261342, Note_on_c, 0, 42, 0
1, 261375, Note_on_c, 0, 54, 0
1, 261375, Note_on_c, 0, 66, 0
1, 261413, Note_on_c, 0, 45, 109
1, 261413, Note_on_c, 0, 33, 111
1, 261469, Note_on_c, 0, 69, 71
1, 261473, Note_on_c, 0, 57, 77
1, 261497, Note_on_c, 0, 45, 0
1, 261501, Note_on_c, 0, 33, 0
1, 261508, Note_on_c, 0, 57, 0
1, 261511, Note_on_c, 0, 69, 0
1, 261533, Note_on_c, 0, 43, 101
1, 261537, Note_on_c, 0, 31, 110
1, 261564, Note_on_c, 0, 31, 0
1, 261580, Note_on_c, 0, 67, 78
1, 261584, Note_on_c, 0, 55, 79
1, 261587, Note_on_c, 0, 43, 0
1, 261587, Control_c, 0, 64, 127
1, 261617, Note_on_c, 0, 55, 0
1, 261617, Note_on_c, 0, 67, 0
1, 261656, Note_on_c, 0, 48, 102
1, 261656, Note_on_c, 0, 36, 106
1, 261697, Note_on_c, 0, 48, 0
1, 261700, Note_on_c, 0, 72, 103
1, 261707, Control_c, 0, 64, 0
1, 261707, Note_on_c, 0, 60, 61
1, 261720, Note_on_c, 0, 36, 0
1, 261726, Note_on_c, 0, 72, 0
1, 261740, Note_on_c, 0, 62, 31
1, 261754, Note_on_c, 0, 60, 0
1, 261767, Note_on_c, 0, 47, 113
1, 261767, Note_on_c, 0, 35, 122
1, 261789, Note_on_c, 0, 62, 0
1, 261812, Note_on_c, 0, 35, 0
1, 261812, Note_on_c, 0, 71, 104
1, 261817, Note_on_c, 0, 59, 89
1, 261829, Note_on_c, 0, 47, 0
1, 261838, Control_c, 0, 64, 127
1, 261845, Note_on_c, 0, 59, 0
1, 261851, Note_on_c, 0, 71, 0
1, 261893, Note_on_c, 0, 52, 116
1, 261904, Note_on_c, 0, 40, 97
1, 261918, Note_on_c, 0, 52, 0
1, 261931, Note_on_c, 0, 40, 0
1, 261940, Note_on_c, 0, 76, 98
1, 261949, Note_on_c, 0, 64, 77
1, 261965, Note_on_c, 0, 76, 0
1, 261985, Note_on_c, 0, 64, 0
1, 262010, Note_on_c, 0, 51, 114
1, 262015, Note_on_c, 0, 39, 104
1, 262049, Note_on_c, 0, 39, 0
1, 262062, Note_on_c, 0, 63, 93
1, 262065, Note_on_c, 0, 75, 89
1, 262068, Note_on_c, 0, 51, 0
1, 262068, Control_c, 0, 64, 0
1, 262096, Note_on_c, 0, 75, 0
1, 262096, Note_on_c, 0, 63, 0
1, 262129, Note_on_c, 0, 54, 118
1, 262133, Note_on_c, 0, 42, 106
1, 262180, Note_on_c, 0, 66, 97
1, 262183, Note_on_c, 0, 78, 99
1, 262194, Note_on_c, 0, 42, 0
1, 262194, Note_on_c, 0, 54, 0
1, 262199, Control_c, 0, 64, 127
1, 262236, Note_on_c, 0, 78, 0
1, 262255, Note_on_c, 0, 66, 0
1, 262261, Note_on_c, 0, 40, 104
1, 262264, Note_on_c, 0, 52, 106
1, 262282, Control_c, 0, 64, 0
1, 262285, Note_on_c, 0, 40, 0
1, 262288, Note_on_c, 0, 52, 0
1, 262316, Note_on_c, 0, 76, 92
1, 262327, Note_on_c, 0, 64, 63
1, 262342, Note_on_c, 0, 76, 0
1, 262366, Note_on_c, 0, 64, 0
1, 262366, Control_c, 0, 64, 127
1, 262383, Note_on_c, 0, 45, 91
1, 262383, Note_on_c, 0, 57, 102
1, 262414, Note_on_c, 0, 57, 0
1, 262431, Note_on_c, 0, 45, 0
1, 262431, Note_on_c, 0, 81, 111
1, 262434, Note_on_c, 0, 69, 90
1, 262439, Control_c, 0, 64, 0
1, 262459, Note_on_c, 0, 81, 0
1, 262477, Note_on_c, 0, 69, 0
1, 262503, Note_on_c, 0, 43, 113
1, 262511, Note_on_c, 0, 55, 92
1, 262526, Note_on_c, 0, 43, 0
1, 262537, Note_on_c, 0, 55, 0
1, 262548, Note_on_c, 0, 79, 107
1, 262548, Note_on_c, 0, 45, 21
1, 262548, Note_on_c, 0, 67, 100
1, 262578, Note_on_c, 0, 67, 0
1, 262583, Control_c, 0, 64, 127
1, 262587, Note_on_c, 0, 45, 0
1, 262597, Note_on_c, 0, 79, 0
1, 262626, Note_on_c, 0, 60, 111
1, 262626, Note_on_c, 0, 48, 100
1, 262654, Control_c, 0, 64, 0
1, 262670, Note_on_c, 0, 60, 0
1, 262675, Note_on_c, 0, 84, 113
1, 262675, Note_on_c, 0, 72, 103
1, 262693, Note_on_c, 0, 48, 0
1, 262706, Note_on_c, 0, 84, 0
1, 262715, Note_on_c, 0, 72, 0
1, 262737, Note_on_c, 0, 59, 109
1, 262737, Note_on_c, 0, 47, 107
1, 262768, Note_on_c, 0, 47, 0
1, 262785, Control_c, 0, 64, 127
1, 262785, Note_on_c, 0, 83, 120
1, 262785, Note_on_c, 0, 71, 104
1, 262810, Control_c, 0, 64, 0
1, 262813, Note_on_c, 0, 71, 0
1, 262813, Note_on_c, 0, 59, 0
1, 262835, Note_on_c, 0, 83, 0
1, 262859, Note_on_c, 0, 64, 119
1, 262859, Note_on_c, 0, 52, 120
1, 262909, Note_on_c, 0, 88, 106
1, 262913, Note_on_c, 0, 52, 0
1, 262913, Note_on_c, 0, 76, 94
1, 262918, Control_c, 0, 64, 127
1, 262923, Note_on_c, 0, 64, 0
1, 262948, Note_on_c, 0, 88, 0
1, 262952, Note_on_c, 0, 76, 0
1, 262952, Control_c, 0, 64, 0
1, 262974, Note_on_c, 0, 63, 115
1, 262979, Note_on_c, 0, 51, 104
1, 263010, Note_on_c, 0, 51, 0
1, 263029, Note_on_c, 0, 63, 0
1, 263029, Note_on_c, 0, 75, 97
1, 263029, Note_on_c, 0, 87, 95
1, 263066, Note_on_c, 0, 75, 0
1, 263074, Control_c, 0, 64, 127
1, 263091, Note_on_c, 0, 66, 109
1, 263094, Note_on_c, 0, 87, 0
1, 263097, Note_on_c, 0, 54, 112
1, 263110, Control_c, 0, 64, 0
1, 263150, Note_on_c, 0, 78, 103
1, 263150, Note_on_c, 0, 90, 102
1, 263154, Note_on_c, 0, 66, 0
1, 263157, Note_on_c, 0, 54, 0
1, 263204, Note_on_c, 0, 78, 0
1, 263208, Note_on_c, 0, 90, 0
1, 263225, Note_on_c, 0, 64, 119
1, 263225, Note_on_c, 0, 52, 122
1, 263252, Note_on_c, 0, 52, 0
1, 263275, Note_on_c, 0, 64, 0
1, 263275, Control_c, 0, 64, 127
1, 263288, Note_on_c, 0, 76, 96
1, 263288, Note_on_c, 0, 88, 103
1, 263314, Note_on_c, 0, 88, 0
1, 263314, Note_on_c, 0, 76, 0
1, 263350, Note_on_c, 0, 66, 107
1, 263356, Note_on_c, 0, 54, 112
1, 263391, Note_on_c, 0, 54, 0
1, 263408, Note_on_c, 0, 90, 93
1, 263413, Note_on_c, 0, 78, 88
1, 263420, Note_on_c, 0, 66, 0
1, 263420, Control_c, 0, 64, 0
1, 263438, Note_on_c, 0, 90, 0
1, 263444, Note_on_c, 0, 78, 0
1, 263483, Note_on_c, 0, 67, 112
1, 263483, Note_on_c, 0, 55, 114
1, 263515, Note_on_c, 0, 67, 0
1, 263523, Note_on_c, 0, 55, 0
1, 263536, Note_on_c, 0, 91, 79
1, 263536, Note_on_c, 0, 79, 72
1, 263553, Control_c, 0, 64, 127
1, 263569, Note_on_c, 0, 91, 0
1, 263576, Note_on_c, 0, 79, 0
1, 263603, Note_on_c, 0, 63, 109
1, 263609, Note_on_c, 0, 51, 106
1, 263635, Note_on_c, 0, 51, 0
1, 263664, Note_on_c, 0, 75, 93
1, 263664, Note_on_c, 0, 87, 85
1, 263679, Note_on_c, 0, 63, 0
1, 263693, Note_on_c, 0, 87, 0
1, 263693, Note_on_c, 0, 75, 0
1, 263725, Note_on_c, 0, 64, 115
1, 263728, Note_on_c, 0, 52, 119
1, 263751, Note_on_c, 0, 64, 0
1, 263759, Note_on_c, 0, 52, 0
1, 263785, Note_on_c, 0, 88, 82
1, 263799, Note_on_c, 0, 76, 48
1, 263815, Note_on_c, 0, 88, 0
1, 263848, Note_on_c, 0, 76, 0
1, 263854, Note_on_c, 0, 59, 107
1, 263854, Note_on_c, 0, 47, 112
1, 263882, Note_on_c, 0, 47, 0
1, 263893, Note_on_c, 0, 59, 0
1, 263901, Note_on_c, 0, 71, 107
1, 263901, Note_on_c, 0, 83, 121
1, 263927, Note_on_c, 0, 83, 0
1, 263927, Note_on_c, 0, 71, 0
1, 263937, Control_c, 0, 64, 0
1, 263980, Note_on_c, 0, 60, 119
1, 263980, Note_on_c, 0, 48, 116
1, 264023, Note_on_c, 0, 48, 0
1, 264035, Note_on_c, 0, 72, 106
1, 264035, Note_on_c, 0, 84, 114
1, 264047, Note_on_c, 0, 60, 0
1, 264061, Note_on_c, 0, 72, 0
1, 264079, Note_on_c, 0, 84, 0
1, 264093, Control_c, 0, 64, 127
1, 264124, Note_on_c, 0, 66, 106
1, 264130, Note_on_c, 0, 54, 109
1, 264158, Note_on_c, 0, 54, 0
1, 264175, Note_on_c, 0, 90, 102
1, 264175, Note_on_c, 0, 78, 102
1, 264180, Note_on_c, 0, 66, 0
1, 264202, Note_on_c, 0, 90, 0
1, 264208, Note_on_c, 0, 78, 0
1, 264253, Note_on_c, 0, 67, 109
1, 264253, Note_on_c, 0, 55, 111
1, 264281, Note_on_c, 0, 67, 0
1, 264289, Note_on_c, 0, 55, 0
1, 264289, Note_on_c, 0, 79, 114
1, 264289, Note_on_c, 0, 91, 110
1, 264313, Note_on_c, 0, 91, 0
1, 264319, Note_on_c, 0, 79, 0
1, 264366, Note_on_c, 0, 63, 112
1, 264370, Note_on_c, 0, 51, 106
1, 264403, Note_on_c, 0, 51, 0
1, 264417, Note_on_c, 0, 75, 107
1, 264420, Note_on_c, 0, 87, 97
1, 264445, Note_on_c, 0, 63, 0
1, 264455, Note_on_c, 0, 87, 0
1, 264473, Note_on_c, 0, 75, 0
1, 264489, Note_on_c, 0, 64, 113
1, 264489, Note_on_c, 0, 52, 116
1, 264514, Note_on_c, 0, 64, 0
1, 264534, Note_on_c, 0, 52, 0
1, 264545, Note_on_c, 0, 76, 103
1, 264545, Note_on_c, 0, 88, 101
1, 264570, Note_on_c, 0, 88, 0
1, 264570, Note_on_c, 0, 76, 0
1, 264612, Note_on_c, 0, 58, 105
1, 264617, Note_on_c, 0, 46, 108
1, 264656, Control_c, 0, 64, 0
1, 264667, Note_on_c, 0, 46, 0
1, 264675, Note_on_c, 0, 70, 104
1, 264675, Note_on_c, 0, 82, 99
1, 264696, Note_on_c, 0, 58, 0
1, 264731, Note_on_c, 0, 82, 0
1, 264731, Note_on_c, 0, 70, 0
1, 264743, Note_on_c, 0, 59, 119
1, 264746, Note_on_c, 0, 47, 115
1, 264770, Note_on_c, 0, 47, 0
1, 264801, Note_on_c, 0, 59, 0
1, 264806, Note_on_c, 0, 83, 124
1, 264806, Note_on_c, 0, 71, 107
1, 264832, Note_on_c, 0, 71, 0
1, 264832, Note_on_c, 0, 83, 0
1, 264835, Control_c, 0, 64, 127
1, 264891, Note_on_c, 0, 66, 106
1, 264898, Note_on_c, 0, 54, 109
1, 264924, Note_on_c, 0, 54, 0
1, 264938, Note_on_c, 0, 66, 0
1, 264948, Note_on_c, 0, 90, 104
1, 264948, Note_on_c, 0, 78, 104
1, 264974, Note_on_c, 0, 78, 0
1, 264974, Note_on_c, 0, 90, 0
1, 265015, Note_on_c, 0, 67, 112
1, 265015, Note_on_c, 0, 55, 113
1, 265044, Note_on_c, 0, 67, 0
1, 265054, Note_on_c, 0, 55, 0
1, 265060, Note_on_c, 0, 91, 109
1, 265060, Note_on_c, 0, 79, 109
1, 265082, Note_on_c, 0, 91, 0
1, 265088, Note_on_c, 0, 79, 0
1, 265130, Note_on_c, 0, 63, 115
1, 265136, Note_on_c, 0, 51, 110
1, 265169, Note_on_c, 0, 51, 0
1, 265185, Note_on_c, 0, 75, 105
1, 265185, Note_on_c, 0, 87, 95
1, 265191, Note_on_c, 0, 63, 0
1, 265222, Note_on_c, 0, 87, 0
1, 265222, Note_on_c, 0, 75, 0
1, 265253, Note_on_c, 0, 64, 115
1, 265256, Note_on_c, 0, 52, 120
1, 265277, Note_on_c, 0, 64, 0
1, 265288, Note_on_c, 0, 52, 0
1, 265308, Note_on_c, 0, 88, 96
1, 265308, Note_on_c, 0, 76, 88
1, 265333, Note_on_c, 0, 88, 0
1, 265341, Note_on_c, 0, 76, 0
1, 265380, Note_on_c, 0, 57, 114
1, 265380, Note_on_c, 0, 45, 112
1, 265408, Note_on_c, 0, 45, 0
1, 265427, Note_on_c, 0, 57, 0
1, 265433, Note_on_c, 0, 81, 99
1, 265433, Note_on_c, 0, 69, 90
1, 265447, Control_c, 0, 64, 0
1, 265458, Note_on_c, 0, 81, 0
1, 265465, Note_on_c, 0, 69, 0
1, 265501, Note_on_c, 0, 58, 113
1, 265508, Note_on_c, 0, 46, 109
1, 265540, Note_on_c, 0, 46, 0
1, 265545, Note_on_c, 0, 70, 107
1, 265545, Note_on_c, 0, 82, 104
1, 265575, Note_on_c, 0, 58, 0
1, 265593, Note_on_c, 0, 70, 0
1, 265611, Note_on_c, 0, 82, 0
1, 265614, Control_c, 0, 64, 127
1, 265646, Note_on_c, 0, 66, 109
1, 265654, Note_on_c, 0, 54, 108
1, 265681, Note_on_c, 0, 54, 0
1, 265701, Note_on_c, 0, 78, 104
1, 265706, Note_on_c, 0, 90, 100
1, 265721, Note_on_c, 0, 66, 0
1, 265732, Note_on_c, 0, 90, 0
1, 265732, Note_on_c, 0, 78, 0
1, 265781, Note_on_c, 0, 55, 107
1, 265784, Note_on_c, 0, 67, 102
1, 265809, Note_on_c, 0, 67, 0
1, 265818, Note_on_c, 0, 55, 0
1, 265818, Note_on_c, 0, 91, 111
1, 265818, Note_on_c, 0, 79, 106
1, 265843, Note_on_c, 0, 91, 0
1, 265851, Note_on_c, 0, 79, 0
1, 265898, Note_on_c, 0, 63, 115
1, 265902, Note_on_c, 0, 51, 106
1, 265930, Note_on_c, 0, 51, 0
1, 265944, Note_on_c, 0, 75, 105
1, 265944, Note_on_c, 0, 87, 95
1, 265976, Note_on_c, 0, 63, 0
1, 265983, Note_on_c, 0, 87, 0
1, 266004, Note_on_c, 0, 75, 0
1, 266016, Note_on_c, 0, 64, 116
1, 266021, Note_on_c, 0, 52, 119
1, 266044, Note_on_c, 0, 64, 0
1, 266047, Note_on_c, 0, 52, 0
1, 266063, Note_on_c, 0, 88, 109
1, 266063, Note_on_c, 0, 76, 106
1, 266086, Note_on_c, 0, 88, 0
1, 266094, Note_on_c, 0, 76, 0
1, 266150, Note_on_c, 0, 58, 104
1, 266153, Note_on_c, 0, 46, 106
1, 266188, Note_on_c, 0, 46, 0
1, 266199, Note_on_c, 0, 70, 108
1, 266199, Note_on_c, 0, 82, 101
1, 266227, Note_on_c, 0, 58, 0
1, 266250, Control_c, 0, 64, 0
1, 266266, Note_on_c, 0, 70, 0
1, 266275, Note_on_c, 0, 82, 0
1, 266291, Note_on_c, 0, 59, 120
1, 266294, Note_on_c, 0, 47, 117
1, 266316, Note_on_c, 0, 47, 0
1, 266333, Note_on_c, 0, 59, 0
1, 266347, Note_on_c, 0, 83, 127
1, 266347, Note_on_c, 0, 71, 111
1, 266373, Note_on_c, 0, 71, 0
1, 266405, Control_c, 0, 64, 127
1, 266434, Note_on_c, 0, 83, 0
1, 266512, Note_on_c, 0, 70, 112
1, 266517, Note_on_c, 0, 58, 99
1, 266543, Note_on_c, 0, 70, 0
1, 266547, Note_on_c, 0, 58, 0
1, 266579, Note_on_c, 0, 94, 104
1, 266584, Note_on_c, 0, 82, 106
1, 266609, Note_on_c, 0, 82, 0
1, 266635, Note_on_c, 0, 94, 0
1, 266689, Note_on_c, 0, 71, 119
1, 266695, Note_on_c, 0, 59, 115
1, 266724, Note_on_c, 0, 59, 0
1, 266767, Note_on_c, 0, 71, 0
1, 266767, Note_on_c, 0, 95, 115
1, 266767, Note_on_c, 0, 83, 123
1, 266785, Note_on_c, 0, 95, 0
1, 266793, Note_on_c, 0, 83, 0
1, 266841, Note_on_c, 0, 66, 106
1, 266848, Note_on_c, 0, 54, 112
1, 266876, Note_on_c, 0, 54, 0
1, 266904, Note_on_c, 0, 78, 109
1, 266904, Note_on_c, 0, 90, 103
1, 266919, Note_on_c, 0, 66, 0
1, 266965, Note_on_c, 0, 78, 0
1, 266969, Note_on_c, 0, 90, 0
1, 266969, Note_on_c, 0, 67, 111
1, 266973, Note_on_c, 0, 55, 115
1, 267016, Note_on_c, 0, 67, 0
1, 267021, Note_on_c, 0, 55, 0
1, 267038, Note_on_c, 0, 79, 110
1, 267038, Note_on_c, 0, 91, 100
1, 267065, Note_on_c, 0, 91, 0
1, 267065, Note_on_c, 0, 79, 0
1, 267105, Note_on_c, 0, 63, 103
1, 267110, Note_on_c, 0, 51, 99
1, 267141, Note_on_c, 0, 51, 0
1, 267149, Note_on_c, 0, 63, 0
1, 267160, Note_on_c, 0, 75, 102
1, 267160, Note_on_c, 0, 87, 97
1, 267206, Note_on_c, 0, 87, 0
1, 267206, Note_on_c, 0, 75, 0
1, 267206, Control_c, 0, 64, 0
1, 267242, Note_on_c, 0, 64, 120
1, 267245, Note_on_c, 0, 52, 125
1, 267300, Note_on_c, 0, 64, 0
1, 267300, Note_on_c, 0, 88, 113
1, 267305, Note_on_c, 0, 76, 106
1, 267325, Note_on_c, 0, 88, 0
1, 267325, Note_on_c, 0, 52, 0
1, 267331, Note_on_c, 0, 76, 0
1, 267352, Control_c, 0, 64, 127
1, 267383, Note_on_c, 0, 59, 111
1, 267383, Note_on_c, 0, 47, 110
1, 267405, Note_on_c, 0, 47, 0
1, 267426, Note_on_c, 0, 59, 0
1, 267437, Note_on_c, 0, 83, 93
1, 267441, Note_on_c, 0, 71, 75
1, 267469, Note_on_c, 0, 83, 0
1, 267479, Note_on_c, 0, 71, 0
1, 267501, Note_on_c, 0, 60, 106
1, 267506, Note_on_c, 0, 48, 98
1, 267534, Note_on_c, 0, 48, 0
1, 267540, Note_on_c, 0, 60, 0
1, 267540, Note_on_c, 0, 84, 109
1, 267543, Note_on_c, 0, 72, 97
1, 267567, Note_on_c, 0, 84, 0
1, 267586, Note_on_c, 0, 72, 0
1, 267614, Note_on_c, 0, 58, 101
1, 267618, Note_on_c, 0, 46, 103
1, 267659, Note_on_c, 0, 82, 95
1, 267659, Note_on_c, 0, 70, 95
1, 267668, Note_on_c, 0, 46, 0
1, 267682, Note_on_c, 0, 58, 0
1, 267707, Note_on_c, 0, 70, 0
1, 267724, Note_on_c, 0, 82, 0
1, 267734, Note_on_c, 0, 59, 107
1, 267738, Note_on_c, 0, 47, 101
1, 267762, Note_on_c, 0, 59, 0
1, 267768, Note_on_c, 0, 47, 0
1, 267774, Note_on_c, 0, 83, 124
1, 267777, Note_on_c, 0, 71, 101
1, 267796, Note_on_c, 0, 83, 0
1, 267810, Note_on_c, 0, 71, 0
1, 267844, Note_on_c, 0, 54, 117
1, 267851, Note_on_c, 0, 42, 105
1, 267888, Note_on_c, 0, 42, 0
1, 267896, Note_on_c, 0, 66, 106
1, 267899, Note_on_c, 0, 78, 100
1, 267907, Note_on_c, 0, 54, 0
1, 267915, Control_c, 0, 64, 0
1, 267940, Note_on_c, 0, 78, 0
1, 267943, Note_on_c, 0, 66, 0
1, 267968, Note_on_c, 0, 55, 115
1, 267968, Note_on_c, 0, 43, 113
1, 268016, Note_on_c, 0, 79, 104
1, 268016, Note_on_c, 0, 67, 105
1, 268027, Note_on_c, 0, 43, 0
1, 268041, Note_on_c, 0, 55, 0
1, 268041, Note_on_c, 0, 79, 0
1, 268047, Note_on_c, 0, 67, 0
1, 268058, Control_c, 0, 64, 127
1, 268083, Note_on_c, 0, 51, 106
1, 268091, Note_on_c, 0, 39, 104
1, 268119, Note_on_c, 0, 39, 0
1, 268139, Note_on_c, 0, 75, 96
1, 268139, Note_on_c, 0, 63, 107
1, 268149, Note_on_c, 0, 51, 0
1, 268175, Note_on_c, 0, 75, 0
1, 268181, Note_on_c, 0, 63, 0
1, 268197, Note_on_c, 0, 52, 118
1, 268197, Note_on_c, 0, 40, 122
1, 268233, Note_on_c, 0, 52, 0
1, 268249, Note_on_c, 0, 40, 0
1, 268249, Note_on_c, 0, 76, 100
1, 268264, Note_on_c, 0, 64, 60
1, 268272, Note_on_c, 0, 76, 0
1, 268303, Note_on_c, 0, 64, 0
1, 268320, Note_on_c, 0, 47, 109
1, 268323, Note_on_c, 0, 35, 119
1, 268356, Note_on_c, 0, 35, 0
1, 268367, Note_on_c, 0, 71, 106
1, 268376, Note_on_c, 0, 59, 85
1, 268401, Note_on_c, 0, 47, 0
1, 268404, Note_on_c, 0, 71, 0
1, 268409, Note_on_c, 0, 59, 0
1, 268454, Note_on_c, 0, 48, 89
1, 268459, Note_on_c, 0, 36, 78
1, 268489, Note_on_c, 0, 48, 0
1, 268492, Note_on_c, 0, 36, 0
1, 268499, Note_on_c, 0, 60, 57
1, 268499, Note_on_c, 0, 72, 60
1, 268543, Note_on_c, 0, 72, 0
1, 268543, Note_on_c, 0, 60, 0
1, 268576, Note_on_c, 0, 46, 101
1, 268582, Note_on_c, 0, 34, 102
1, 268600, Note_on_c, 0, 70, 95
1, 268603, Note_on_c, 0, 58, 97
1, 268632, Note_on_c, 0, 34, 0
1, 268632, Control_c, 0, 64, 0
1, 268645, Note_on_c, 0, 46, 0
1, 268673, Note_on_c, 0, 70, 0
1, 268690, Note_on_c, 0, 58, 0
1, 268720, Note_on_c, 0, 47, 117
1, 268720, Note_on_c, 0, 71, 118
1, 268724, Note_on_c, 0, 59, 112
1, 268724, Note_on_c, 0, 35, 120
1, 268754, Note_on_c, 0, 35, 0
1, 268774, Note_on_c, 0, 47, 0
1, 268779, Control_c, 0, 64, 127
1, 268784, Note_on_c, 0, 59, 0
1, 268815, Note_on_c, 0, 71, 0
1, 268887, Control_c, 0, 64, 0
1, 269008, Note_on_c, 0, 69, 91
1, 269008, Note_on_c, 0, 75, 101
1, 269008, Note_on_c, 0, 66, 90
1, 269016, Note_on_c, 0, 71, 101
1, 269016, Note_on_c, 0, 51, 99
1, 269016, Note_on_c, 0, 59, 107
1, 269021, Note_on_c, 0, 54, 97
1, 269025, Note_on_c, 0, 47, 87
1, 269058, Note_on_c, 0, 47, 0
1, 269075, Note_on_c, 0, 54, 0
1, 269078, Note_on_c, 0, 59, 0
1, 269078, Control_c, 0, 64, 127
1, 269100, Note_on_c, 0, 51, 0
1, 269105, Note_on_c, 0, 66, 0
1, 269116, Note_on_c, 0, 71, 0
1, 269133, Note_on_c, 0, 69, 0
1, 269138, Note_on_c, 0, 75, 0
1, 269150, Control_c, 0, 64, 0
1, 269253, Note_on_c, 0, 76, 103
1, 269253, Note_on_c, 0, 67, 110
1, 269257, Note_on_c, 0, 71, 112
1, 269257, Note_on_c, 0, 64, 107
1, 269270, Note_on_c, 0, 55, 89
1, 269270, Note_on_c, 0, 59, 93
1, 269273, Note_on_c, 0, 52, 96
1, 269308, Note_on_c, 0, 59, 0
1, 269317, Control_c, 0, 64, 127
1, 269320, Note_on_c, 0, 64, 0
1, 269333, Note_on_c, 0, 55, 0
1, 269341, Note_on_c, 0, 67, 0
1, 269345, Note_on_c, 0, 76, 0
1, 269345, Note_on_c, 0, 71, 0
1, 269369, Note_on_c, 0, 52, 0
1, 269401, Control_c, 0, 64, 0
1, 269486, Note_on_c, 0, 78, 103
1, 269486, Note_on_c, 0, 69, 100
1, 269489, Note_on_c, 0, 71, 105
1, 269489, Note_on_c, 0, 75, 96
1, 269489, Note_on_c, 0, 59, 105
1, 269492, Note_on_c, 0, 54, 101
1, 269492, Note_on_c, 0, 51, 92
1, 269503, Note_on_c, 0, 47, 76
1, 269515, Note_on_c, 0, 59, 0
1, 269520, Note_on_c, 0, 54, 0
1, 269529, Note_on_c, 0, 51, 0
1, 269534, Note_on_c, 0, 47, 0
1, 269557, Control_c, 0, 64, 127
1, 269575, Note_on_c, 0, 69, 0
1, 269579, Note_on_c, 0, 71, 0
1, 269598, Note_on_c, 0, 78, 0
1, 269610, Note_on_c, 0, 75, 0
1, 269653, Control_c, 0, 64, 0
1, 269726, Note_on_c, 0, 67, 111
1, 269726, Note_on_c, 0, 79, 110
1, 269729, Note_on_c, 0, 76, 97
1, 269729, Note_on_c, 0, 52, 109
1, 269729, Note_on_c, 0, 71, 110
1, 269732, Note_on_c, 0, 43, 90
1, 269732, Note_on_c, 0, 47, 87
1, 269732, Note_on_c, 0, 40, 103
1, 269760, Note_on_c, 0, 67, 0
1, 269765, Note_on_c, 0, 52, 0
1, 269765, Note_on_c, 0, 47, 0
1, 269768, Note_on_c, 0, 40, 0
1, 269768, Note_on_c, 0, 71, 0
1, 269774, Note_on_c, 0, 43, 0
1, 269807, Note_on_c, 0, 79, 0
1, 269807, Control_c, 0, 64, 127
1, 269812, Note_on_c, 0, 76, 0
1, 269941, Control_c, 0, 64, 0
1, 269979, Note_on_c, 0, 78, 102
1, 269979, Note_on_c, 0, 87, 100
1, 269983, Note_on_c, 0, 47, 103
1, 269986, Note_on_c, 0, 81, 97
1, 269986, Note_on_c, 0, 83, 117
1, 269991, Note_on_c, 0, 35, 107
1, 269991, Note_on_c, 0, 39, 87
1, 269996, Note_on_c, 0, 42, 85
1, 270025, Note_on_c, 0, 35, 0
1, 270058, Note_on_c, 0, 47, 0
1, 270063, Note_on_c, 0, 39, 0
1, 270072, Control_c, 0, 64, 127
1, 270075, Note_on_c, 0, 42, 0
1, 270089, Note_on_c, 0, 78, 0
1, 270119, Note_on_c, 0, 83, 0
1, 270119, Note_on_c, 0, 81, 0
1, 270144, Note_on_c, 0, 87, 0
1, 270180, Control_c, 0, 64, 0
1, 270284, Note_on_c, 0, 79, 117
1, 270284, Note_on_c, 0, 88, 115
1, 270284, Note_on_c, 0, 52, 117
1, 270284, Note_on_c, 0, 83, 127
1, 270287, Note_on_c, 0, 47, 99
1, 270295, Note_on_c, 0, 43, 87
1, 270300, Note_on_c, 0, 40, 94
1, 270456, Control_c, 0, 64, 127
1, 270484, Note_on_c, 0, 40, 0
1, 270500, Note_on_c, 0, 52, 0
1, 270514, Note_on_c, 0, 47, 0
1, 270514, Note_on_c, 0, 43, 0
1, 270540, Note_on_c, 0, 83, 0
1, 270553, Note_on_c, 0, 88, 0
1, 270565, Note_on_c, 0, 79, 0
1, 270612, Control_c, 0, 64, 0
1, 270840, Note_on_c, 0, 59, 84
1, 270840, Note_on_c, 0, 64, 82
1, 270840, Note_on_c, 0, 79, 93
1, 270843, Note_on_c, 0, 88, 72
1, 270843, Note_on_c, 0, 91, 79
1, 270846, Note_on_c, 0, 52, 88
1, 270846, Note_on_c, 0, 83, 85
1, 270871, Note_on_c, 0, 64, 0
1, 270871, Note_on_c, 0, 59, 0
1, 270874, Note_on_c, 0, 79, 0
1, 270874, Note_on_c, 0, 91, 0
1, 270874, Note_on_c, 0, 52, 0
1, 270879, Note_on_c, 0, 88, 0
1, 270879, Note_on_c, 0, 83, 0
1, 270913, Note_on_c, 0, 91, 110
1, 270913, Note_on_c, 0, 79, 120
1, 270918, Note_on_c, 0, 88, 108
1, 270918, Note_on_c, 0, 83, 127
1, 270918, Note_on_c, 0, 64, 97
1, 270924, Note_on_c, 0, 59, 95
1, 270927, Note_on_c, 0, 52, 104
1, 271014, Note_on_c, 0, 52, 0
1, 271032, Control_c, 0, 64, 127
1, 271046, Note_on_c, 0, 64, 0
1, 271046, Note_on_c, 0, 59, 0
1, 271069, Note_on_c, 0, 91, 0
1, 271069, Note_on_c, 0, 79, 0
1, 271105, Note_on_c, 0, 83, 0
1, 271110, Note_on_c, 0, 88, 0
1, 271745, Note_on_c, 0, 55, 99
1, 271745, Note_on_c, 0, 59, 91
1, 271748, Note_on_c, 0, 64, 90
1, 271759, Note_on_c, 0, 52, 93
1, 271759, Note_on_c, 0, 40, 92
1, 271788, Note_on_c, 0, 64, 0
1, 271788, Note_on_c, 0, 55, 0
1, 271791, Note_on_c, 0, 40, 0
1, 271791, Note_on_c, 0, 52, 0
1, 271824, Note_on_c, 0, 59, 0
1, 271846, Note_on_c, 0, 64, 107
1, 271846, Note_on_c, 0, 40, 112
1, 271851, Note_on_c, 0, 55, 106
1, 271851, Note_on_c, 0, 52, 105
1, 271854, Note_on_c, 0, 59, 101
1, 272977, Note_on_c, 0, 55, 0
1, 272996, Note_on_c, 0, 52, 0
1, 273038, Note_on_c, 0, 59, 0
1, 273038, Note_on_c, 0, 40, 0
1, 273044, Control_c, 0, 64, 0
1, 273066, Note_on_c, 0, 64, 0
1, 274061, Control_c, 0, 64, 0
1, 274061, End_track
0, 0, End_of_file
