0, 0, Header, 1, 5, 240
1, 0, Start_track
1, 0, Text_t, "Kindst2.mid, produced by PMX 2.30\012"
1, 0, Time_signature, 2, 2, 24, 8
1, 0, Key_signature, -3, "major"
1, 0, Tempo, 1111111
1, 0, End_track
2, 0, Start_track
2, 0, Title_t, "Grand Piano"
2, 0, Program_c, 0, 0
2, 0, Control_c, 0, 7, 115
2, 0, Control_c, 0, 10, 79
2, 3840, Note_on_c, 0, 70, 92
2, 3950, Note_on_c, 0, 70, 0
2, 3960, Note_on_c, 0, 79, 92
2, 4070, Note_on_c, 0, 79, 0
2, 4080, Note_on_c, 0, 77, 92
2, 4250, Note_on_c, 0, 77, 0
2, 4260, Note_on_c, 0, 75, 92
2, 4310, Note_on_c, 0, 75, 0
2, 4320, Note_on_c, 0, 74, 92
2, 4550, Note_on_c, 0, 74, 0
2, 4560, Note_on_c, 0, 75, 92
2, 4670, Note_on_c, 0, 75, 0
2, 4680, Note_on_c, 0, 70, 92
2, 4790, Note_on_c, 0, 70, 0
2, 4800, Note_on_c, 0, 68, 92
2, 4910, Note_on_c, 0, 68, 0
2, 4920, Note_on_c, 0, 67, 92
2, 5030, Note_on_c, 0, 67, 0
2, 5040, Note_on_c, 0, 65, 92
2, 5150, Note_on_c, 0, 65, 0
2, 5160, Note_on_c, 0, 67, 92
2, 5210, Note_on_c, 0, 67, 0
2, 5220, Note_on_c, 0, 68, 92
2, 5270, Note_on_c, 0, 68, 0
2, 5280, Note_on_c, 0, 70, 92
2, 5390, Note_on_c, 0, 70, 0
2, 5400, Note_on_c, 0, 67, 92
2, 5510, Note_on_c, 0, 67, 0
2, 5520, Note_on_c, 0, 75, 92
2, 5630, Note_on_c, 0, 75, 0
2, 5640, Note_on_c, 0, 70, 92
2, 5750, Note_on_c, 0, 70, 0
2, 5760, Note_on_c, 0, 68, 92
2, 5870, Note_on_c, 0, 68, 0
2, 5880, Note_on_c, 0, 67, 92
2, 5990, Note_on_c, 0, 67, 0
2, 6000, Note_on_c, 0, 65, 92
2, 6110, Note_on_c, 0, 65, 0
2, 6120, Note_on_c, 0, 67, 92
2, 6170, Note_on_c, 0, 67, 0
2, 6180, Note_on_c, 0, 65, 92
2, 6230, Note_on_c, 0, 65, 0
2, 6240, Note_on_c, 0, 63, 92
2, 6470, Note_on_c, 0, 63, 0
2, 6480, Note_on_c, 0, 65, 92
2, 6590, Note_on_c, 0, 65, 0
2, 6600, Note_on_c, 0, 67, 92
2, 6710, Note_on_c, 0, 67, 0
2, 6720, Note_on_c, 0, 68, 92
2, 6890, Note_on_c, 0, 68, 0
2, 6900, Note_on_c, 0, 69, 92
2, 6950, Note_on_c, 0, 69, 0
2, 6960, Note_on_c, 0, 70, 92
2, 7070, Note_on_c, 0, 70, 0
2, 7080, Note_on_c, 0, 69, 92
2, 7080, Note_on_c, 0, 75, 92
2, 7130, Note_on_c, 0, 75, 0
2, 7130, Note_on_c, 0, 69, 0
2, 7140, Note_on_c, 0, 77, 92
2, 7190, Note_on_c, 0, 77, 0
2, 7200, Note_on_c, 0, 69, 92
2, 7200, Note_on_c, 0, 75, 92
2, 7310, Note_on_c, 0, 75, 0
2, 7310, Note_on_c, 0, 69, 0
2, 7320, Note_on_c, 0, 70, 92
2, 7320, Note_on_c, 0, 74, 92
2, 7430, Note_on_c, 0, 74, 0
2, 7430, Note_on_c, 0, 70, 0
2, 7440, Note_on_c, 0, 70, 92
2, 7550, Note_on_c, 0, 70, 0
2, 7560, Note_on_c, 0, 72, 92
2, 7670, Note_on_c, 0, 72, 0
2, 8460, Note_on_c, 0, 63, 92
2, 8510, Note_on_c, 0, 63, 0
2, 8520, Note_on_c, 0, 68, 92
2, 8570, Note_on_c, 0, 68, 0
2, 8580, Note_on_c, 0, 63, 92
2, 8630, Note_on_c, 0, 63, 0
2, 9600, Note_on_c, 0, 67, 92
2, 9710, Note_on_c, 0, 67, 0
2, 9720, Note_on_c, 0, 65, 92
2, 9830, Note_on_c, 0, 65, 0
2, 9840, Note_on_c, 0, 70, 92
2, 10010, Note_on_c, 0, 70, 0
2, 10020, Note_on_c, 0, 68, 92
2, 10070, Note_on_c, 0, 68, 0
2, 10080, Note_on_c, 0, 67, 92
2, 10190, Note_on_c, 0, 67, 0
2, 10200, Note_on_c, 0, 65, 92
2, 10310, Note_on_c, 0, 65, 0
2, 10320, Note_on_c, 0, 65, 92
2, 10430, Note_on_c, 0, 65, 0
2, 10440, Note_on_c, 0, 67, 92
2, 10490, Note_on_c, 0, 67, 0
2, 10500, Note_on_c, 0, 65, 92
2, 10550, Note_on_c, 0, 65, 0
2, 11040, Note_on_c, 0, 67, 92
2, 11150, Note_on_c, 0, 67, 0
2, 11160, Note_on_c, 0, 70, 92
2, 11270, Note_on_c, 0, 70, 0
2, 11280, Note_on_c, 0, 65, 92
2, 11330, Note_on_c, 0, 65, 0
2, 11340, Note_on_c, 0, 68, 92
2, 11390, Note_on_c, 0, 68, 0
2, 11400, Note_on_c, 0, 67, 92
2, 11450, Note_on_c, 0, 67, 0
2, 11460, Note_on_c, 0, 65, 92
2, 11510, Note_on_c, 0, 65, 0
2, 11520, Note_on_c, 0, 70, 92
2, 11520, Note_on_c, 0, 63, 92
2, 11690, Note_on_c, 0, 63, 0
2, 11690, Note_on_c, 0, 70, 0
2, 11700, Note_on_c, 0, 75, 92
2, 11750, Note_on_c, 0, 75, 0
2, 11760, Note_on_c, 0, 74, 92
2, 11810, Note_on_c, 0, 74, 0
2, 11820, Note_on_c, 0, 70, 92
2, 11870, Note_on_c, 0, 70, 0
2, 11880, Note_on_c, 0, 68, 92
2, 11930, Note_on_c, 0, 68, 0
2, 11940, Note_on_c, 0, 65, 92
2, 11990, Note_on_c, 0, 65, 0
2, 12000, Note_on_c, 0, 67, 92
2, 12110, Note_on_c, 0, 67, 0
2, 12120, Note_on_c, 0, 70, 92
2, 12230, Note_on_c, 0, 70, 0
2, 12240, Note_on_c, 0, 63, 92
2, 12350, Note_on_c, 0, 63, 0
2, 12360, Note_on_c, 0, 63, 92
2, 12470, Note_on_c, 0, 63, 0
2, 12480, Note_on_c, 0, 67, 92
2, 12590, Note_on_c, 0, 67, 0
2, 12600, Note_on_c, 0, 65, 92
2, 12710, Note_on_c, 0, 65, 0
2, 12720, Note_on_c, 0, 67, 92
2, 12830, Note_on_c, 0, 67, 0
2, 12840, Note_on_c, 0, 67, 92
2, 12950, Note_on_c, 0, 67, 0
2, 12960, Note_on_c, 0, 70, 92
2, 13070, Note_on_c, 0, 70, 0
2, 13080, Note_on_c, 0, 68, 92
2, 13190, Note_on_c, 0, 68, 0
2, 13200, Note_on_c, 0, 67, 92
2, 13250, Note_on_c, 0, 67, 0
2, 13260, Note_on_c, 0, 65, 92
2, 13310, Note_on_c, 0, 65, 0
2, 13320, Note_on_c, 0, 67, 92
2, 13370, Note_on_c, 0, 67, 0
2, 13380, Note_on_c, 0, 68, 92
2, 13430, Note_on_c, 0, 68, 0
2, 13440, Note_on_c, 0, 72, 92
2, 13490, Note_on_c, 0, 72, 0
2, 13500, Note_on_c, 0, 70, 92
2, 13550, Note_on_c, 0, 70, 0
2, 13560, Note_on_c, 0, 68, 92
2, 13610, Note_on_c, 0, 68, 0
2, 13620, Note_on_c, 0, 65, 92
2, 13670, Note_on_c, 0, 65, 0
2, 13680, Note_on_c, 0, 63, 92
2, 13790, Note_on_c, 0, 63, 0
2, 13800, Note_on_c, 0, 65, 92
2, 13910, Note_on_c, 0, 65, 0
2, 13920, Note_on_c, 0, 67, 92
2, 14150, Note_on_c, 0, 67, 0
2, 14160, Note_on_c, 0, 63, 92
2, 14270, Note_on_c, 0, 63, 0
2, 14280, Note_on_c, 0, 63, 92
2, 14390, Note_on_c, 0, 63, 0
2, 14400, Note_on_c, 0, 67, 92
2, 14510, Note_on_c, 0, 67, 0
2, 14520, Note_on_c, 0, 65, 92
2, 14630, Note_on_c, 0, 65, 0
2, 14640, Note_on_c, 0, 67, 92
2, 14750, Note_on_c, 0, 67, 0
2, 14760, Note_on_c, 0, 67, 92
2, 14870, Note_on_c, 0, 67, 0
2, 14880, Note_on_c, 0, 70, 92
2, 14990, Note_on_c, 0, 70, 0
2, 15000, Note_on_c, 0, 69, 92
2, 15110, Note_on_c, 0, 69, 0
2, 15120, Note_on_c, 0, 69, 92
2, 15230, Note_on_c, 0, 69, 0
2, 15240, Note_on_c, 0, 69, 92
2, 15350, Note_on_c, 0, 69, 0
2, 15360, Note_on_c, 0, 70, 92
2, 15360, Note_on_c, 0, 67, 92
2, 15530, Note_on_c, 0, 67, 0
2, 15530, Note_on_c, 0, 70, 0
2, 15540, Note_on_c, 0, 67, 92
2, 15540, Note_on_c, 0, 63, 92
2, 15590, Note_on_c, 0, 63, 0
2, 15590, Note_on_c, 0, 67, 0
2, 15840, Note_on_c, 0, 79, 92
2, 16130, Note_on_c, 0, 79, 0
2, 16140, Note_on_c, 0, 74, 92
2, 16190, Note_on_c, 0, 74, 0
2, 16200, Note_on_c, 0, 77, 92
2, 16250, Note_on_c, 0, 77, 0
2, 16260, Note_on_c, 0, 75, 92
2, 16310, Note_on_c, 0, 75, 0
2, 16800, Note_on_c, 0, 68, 92
2, 16850, Note_on_c, 0, 68, 0
2, 16860, Note_on_c, 0, 67, 92
2, 16910, Note_on_c, 0, 67, 0
2, 16920, Note_on_c, 0, 70, 92
2, 16970, Note_on_c, 0, 70, 0
2, 16980, Note_on_c, 0, 62, 92
2, 17030, Note_on_c, 0, 62, 0
2, 17040, Note_on_c, 0, 65, 92
2, 17090, Note_on_c, 0, 65, 0
2, 17100, Note_on_c, 0, 63, 92
2, 17150, Note_on_c, 0, 63, 0
2, 17160, Note_on_c, 0, 58, 92
2, 17240, Note_on_c, 0, 58, 0
2, 17250, Note_on_c, 0, 67, 92
2, 17270, Note_on_c, 0, 67, 0
2, 17280, Note_on_c, 0, 67, 92
2, 17510, Note_on_c, 0, 67, 0
2, 17520, Note_on_c, 0, 67, 92
2, 17520, Note_on_c, 0, 62, 92
2, 17520, Note_on_c, 0, 56, 92
2, 17690, Note_on_c, 0, 56, 0
2, 17690, Note_on_c, 0, 62, 0
2, 17690, Note_on_c, 0, 67, 0
2, 17700, Note_on_c, 0, 65, 92
2, 17750, Note_on_c, 0, 65, 0
2, 17760, Note_on_c, 0, 63, 92
2, 17990, Note_on_c, 0, 63, 0
2, 18000, Note_on_c, 0, 68, 92
2, 18000, Note_on_c, 0, 65, 92
2, 18050, Note_on_c, 0, 65, 0
2, 18050, Note_on_c, 0, 68, 0
2, 18060, Note_on_c, 0, 58, 92
2, 18110, Note_on_c, 0, 58, 0
2, 18120, Note_on_c, 0, 68, 92
2, 18120, Note_on_c, 0, 65, 92
2, 18170, Note_on_c, 0, 65, 0
2, 18170, Note_on_c, 0, 68, 0
2, 18180, Note_on_c, 0, 58, 92
2, 18230, Note_on_c, 0, 58, 0
2, 18240, Note_on_c, 0, 67, 92
2, 18470, Note_on_c, 0, 67, 0
2, 18480, Note_on_c, 0, 62, 92
2, 18590, Note_on_c, 0, 62, 0
2, 18600, Note_on_c, 0, 62, 92
2, 18710, Note_on_c, 0, 62, 0
2, 18720, Note_on_c, 0, 63, 92
2, 18720, Note_on_c, 0, 55, 92
2, 18770, Note_on_c, 0, 55, 0
2, 18770, Note_on_c, 0, 63, 0
2, 18780, Note_on_c, 0, 58, 92
2, 18830, Note_on_c, 0, 58, 0
2, 18840, Note_on_c, 0, 57, 92
2, 18890, Note_on_c, 0, 57, 0
2, 18900, Note_on_c, 0, 58, 92
2, 18950, Note_on_c, 0, 58, 0
2, 18960, Note_on_c, 0, 63, 92
2, 18960, Note_on_c, 0, 55, 92
2, 19010, Note_on_c, 0, 55, 0
2, 19010, Note_on_c, 0, 63, 0
2, 19020, Note_on_c, 0, 58, 92
2, 19070, Note_on_c, 0, 58, 0
2, 19080, Note_on_c, 0, 57, 92
2, 19130, Note_on_c, 0, 57, 0
2, 19140, Note_on_c, 0, 58, 92
2, 19190, Note_on_c, 0, 58, 0
2, 19200, Note_on_c, 0, 63, 92
2, 19200, Note_on_c, 0, 55, 92
2, 19430, Note_on_c, 0, 55, 0
2, 19430, Note_on_c, 0, 63, 0
2, 19430, End_track
3, 0, Start_track
3, 0, Title_t, "Grand Piano"
3, 0, Program_c, 0, 0
3, 0, Control_c, 0, 7, 115
3, 0, Control_c, 0, 10, 85
3, 60, Note_on_c, 0, 58, 87
3, 110, Note_on_c, 0, 58, 0
3, 120, Note_on_c, 0, 57, 87
3, 170, Note_on_c, 0, 57, 0
3, 180, Note_on_c, 0, 58, 87
3, 230, Note_on_c, 0, 58, 0
3, 240, Note_on_c, 0, 68, 87
3, 240, Note_on_c, 0, 65, 87
3, 290, Note_on_c, 0, 65, 0
3, 290, Note_on_c, 0, 68, 0
3, 300, Note_on_c, 0, 58, 87
3, 350, Note_on_c, 0, 58, 0
3, 360, Note_on_c, 0, 68, 87
3, 360, Note_on_c, 0, 65, 87
3, 410, Note_on_c, 0, 65, 0
3, 410, Note_on_c, 0, 68, 0
3, 420, Note_on_c, 0, 58, 87
3, 470, Note_on_c, 0, 58, 0
3, 480, Note_on_c, 0, 67, 87
3, 480, Note_on_c, 0, 63, 87
3, 530, Note_on_c, 0, 63, 0
3, 530, Note_on_c, 0, 67, 0
3, 540, Note_on_c, 0, 58, 87
3, 590, Note_on_c, 0, 58, 0
3, 600, Note_on_c, 0, 57, 87
3, 650, Note_on_c, 0, 57, 0
3, 660, Note_on_c, 0, 58, 87
3, 710, Note_on_c, 0, 58, 0
3, 720, Note_on_c, 0, 62, 87
3, 720, Note_on_c, 0, 56, 87
3, 770, Note_on_c, 0, 56, 0
3, 770, Note_on_c, 0, 62, 0
3, 780, Note_on_c, 0, 58, 87
3, 830, Note_on_c, 0, 58, 0
3, 840, Note_on_c, 0, 62, 87
3, 840, Note_on_c, 0, 56, 87
3, 890, Note_on_c, 0, 56, 0
3, 890, Note_on_c, 0, 62, 0
3, 900, Note_on_c, 0, 58, 87
3, 950, Note_on_c, 0, 58, 0
3, 960, Note_on_c, 0, 63, 87
3, 960, Note_on_c, 0, 55, 87
3, 1010, Note_on_c, 0, 55, 0
3, 1010, Note_on_c, 0, 63, 0
3, 1020, Note_on_c, 0, 58, 87
3, 1070, Note_on_c, 0, 58, 0
3, 1080, Note_on_c, 0, 57, 87
3, 1130, Note_on_c, 0, 57, 0
3, 1140, Note_on_c, 0, 58, 87
3, 1190, Note_on_c, 0, 58, 0
3, 1200, Note_on_c, 0, 63, 87
3, 1200, Note_on_c, 0, 55, 87
3, 1250, Note_on_c, 0, 55, 0
3, 1250, Note_on_c, 0, 63, 0
3, 1260, Note_on_c, 0, 58, 87
3, 1310, Note_on_c, 0, 58, 0
3, 1320, Note_on_c, 0, 57, 87
3, 1370, Note_on_c, 0, 57, 0
3, 1380, Note_on_c, 0, 58, 87
3, 1430, Note_on_c, 0, 58, 0
3, 1440, Note_on_c, 0, 63, 87
3, 1440, Note_on_c, 0, 55, 87
3, 1490, Note_on_c, 0, 55, 0
3, 1490, Note_on_c, 0, 63, 0
3, 1500, Note_on_c, 0, 58, 87
3, 1550, Note_on_c, 0, 58, 0
3, 1560, Note_on_c, 0, 57, 87
3, 1610, Note_on_c, 0, 57, 0
3, 1620, Note_on_c, 0, 58, 87
3, 1670, Note_on_c, 0, 58, 0
3, 1680, Note_on_c, 0, 67, 87
3, 1790, Note_on_c, 0, 67, 0
3, 1800, Note_on_c, 0, 68, 87
3, 1910, Note_on_c, 0, 68, 0
3, 1920, Note_on_c, 0, 70, 87
3, 2030, Note_on_c, 0, 70, 0
3, 2040, Note_on_c, 0, 75, 87
3, 2150, Note_on_c, 0, 75, 0
3, 2160, Note_on_c, 0, 74, 87
3, 2330, Note_on_c, 0, 74, 0
3, 2340, Note_on_c, 0, 72, 87
3, 2390, Note_on_c, 0, 72, 0
3, 2400, Note_on_c, 0, 70, 87
3, 2630, Note_on_c, 0, 70, 0
3, 2640, Note_on_c, 0, 67, 87
3, 2750, Note_on_c, 0, 67, 0
3, 2760, Note_on_c, 0, 67, 87
3, 2840, Note_on_c, 0, 67, 0
3, 2850, Note_on_c, 0, 70, 87
3, 2870, Note_on_c, 0, 70, 0
3, 2880, Note_on_c, 0, 68, 87
3, 2990, Note_on_c, 0, 68, 0
3, 3000, Note_on_c, 0, 67, 87
3, 3110, Note_on_c, 0, 67, 0
3, 3120, Note_on_c, 0, 65, 87
3, 3230, Note_on_c, 0, 65, 0
3, 3240, Note_on_c, 0, 67, 87
3, 3290, Note_on_c, 0, 67, 0
3, 3300, Note_on_c, 0, 68, 87
3, 3350, Note_on_c, 0, 68, 0
3, 3360, Note_on_c, 0, 67, 87
3, 3470, Note_on_c, 0, 67, 0
3, 3480, Note_on_c, 0, 65, 87
3, 3590, Note_on_c, 0, 65, 0
3, 3600, Note_on_c, 0, 67, 87
3, 3710, Note_on_c, 0, 67, 0
3, 3720, Note_on_c, 0, 68, 87
3, 3830, Note_on_c, 0, 68, 0
3, 6000, Note_on_c, 0, 65, 87
3, 6050, Note_on_c, 0, 65, 0
3, 6060, Note_on_c, 0, 63, 87
3, 6110, Note_on_c, 0, 63, 0
3, 6120, Note_on_c, 0, 62, 87
3, 6170, Note_on_c, 0, 62, 0
3, 7680, Note_on_c, 0, 73, 87
3, 7850, Note_on_c, 0, 73, 0
3, 7860, Note_on_c, 0, 74, 87
3, 7910, Note_on_c, 0, 74, 0
3, 7920, Note_on_c, 0, 77, 87
3, 7970, Note_on_c, 0, 77, 0
3, 7980, Note_on_c, 0, 75, 87
3, 8030, Note_on_c, 0, 75, 0
3, 8040, Note_on_c, 0, 73, 87
3, 8090, Note_on_c, 0, 73, 0
3, 8100, Note_on_c, 0, 75, 87
3, 8150, Note_on_c, 0, 75, 0
3, 8160, Note_on_c, 0, 67, 87
3, 8160, Note_on_c, 0, 73, 87
3, 8270, Note_on_c, 0, 73, 0
3, 8270, Note_on_c, 0, 67, 0
3, 8280, Note_on_c, 0, 68, 87
3, 8280, Note_on_c, 0, 72, 87
3, 8390, Note_on_c, 0, 72, 0
3, 8390, Note_on_c, 0, 68, 0
3, 8400, Note_on_c, 0, 80, 87
3, 8510, Note_on_c, 0, 80, 0
3, 8520, Note_on_c, 0, 75, 87
3, 8630, Note_on_c, 0, 75, 0
3, 8640, Note_on_c, 0, 67, 87
3, 8640, Note_on_c, 0, 73, 87
3, 8750, Note_on_c, 0, 73, 0
3, 8750, Note_on_c, 0, 67, 0
3, 8760, Note_on_c, 0, 68, 87
3, 8760, Note_on_c, 0, 72, 87
3, 8870, Note_on_c, 0, 72, 0
3, 8870, Note_on_c, 0, 68, 0
3, 8880, Note_on_c, 0, 77, 87
3, 8990, Note_on_c, 0, 77, 0
3, 9000, Note_on_c, 0, 72, 87
3, 9110, Note_on_c, 0, 72, 0
3, 9120, Note_on_c, 0, 70, 87
3, 9120, Note_on_c, 0, 64, 87
3, 9230, Note_on_c, 0, 64, 0
3, 9230, Note_on_c, 0, 70, 0
3, 9240, Note_on_c, 0, 68, 87
3, 9240, Note_on_c, 0, 65, 87
3, 9350, Note_on_c, 0, 65, 0
3, 9350, Note_on_c, 0, 68, 0
3, 9360, Note_on_c, 0, 72, 87
3, 9470, Note_on_c, 0, 72, 0
3, 9480, Note_on_c, 0, 70, 87
3, 9530, Note_on_c, 0, 70, 0
3, 9540, Note_on_c, 0, 68, 87
3, 9590, Note_on_c, 0, 68, 0
3, 9900, Note_on_c, 0, 63, 87
3, 9950, Note_on_c, 0, 63, 0
3, 9960, Note_on_c, 0, 60, 87
3, 10010, Note_on_c, 0, 60, 0
3, 10020, Note_on_c, 0, 65, 87
3, 10070, Note_on_c, 0, 65, 0
3, 10080, Note_on_c, 0, 63, 87
3, 10130, Note_on_c, 0, 63, 0
3, 10140, Note_on_c, 0, 58, 87
3, 10190, Note_on_c, 0, 58, 0
3, 10200, Note_on_c, 0, 62, 87
3, 10250, Note_on_c, 0, 62, 0
3, 10260, Note_on_c, 0, 58, 87
3, 10310, Note_on_c, 0, 58, 0
3, 10560, Note_on_c, 0, 70, 87
3, 10730, Note_on_c, 0, 70, 0
3, 10740, Note_on_c, 0, 75, 87
3, 10790, Note_on_c, 0, 75, 0
3, 10800, Note_on_c, 0, 74, 87
3, 10910, Note_on_c, 0, 74, 0
3, 10920, Note_on_c, 0, 68, 87
3, 11030, Note_on_c, 0, 68, 0
3, 11280, Note_on_c, 0, 62, 87
3, 11510, Note_on_c, 0, 62, 0
3, 12240, Note_on_c, 0, 61, 87
3, 12290, Note_on_c, 0, 61, 0
3, 12300, Note_on_c, 0, 58, 87
3, 12350, Note_on_c, 0, 58, 0
3, 12360, Note_on_c, 0, 61, 87
3, 12410, Note_on_c, 0, 61, 0
3, 12420, Note_on_c, 0, 58, 87
3, 12470, Note_on_c, 0, 58, 0
3, 12480, Note_on_c, 0, 60, 87
3, 12530, Note_on_c, 0, 60, 0
3, 12540, Note_on_c, 0, 63, 87
3, 12590, Note_on_c, 0, 63, 0
3, 12600, Note_on_c, 0, 65, 87
3, 12650, Note_on_c, 0, 65, 0
3, 12660, Note_on_c, 0, 63, 87
3, 12710, Note_on_c, 0, 63, 0
3, 12720, Note_on_c, 0, 61, 87
3, 12770, Note_on_c, 0, 61, 0
3, 12780, Note_on_c, 0, 63, 87
3, 12830, Note_on_c, 0, 63, 0
3, 12840, Note_on_c, 0, 61, 87
3, 12890, Note_on_c, 0, 61, 0
3, 12900, Note_on_c, 0, 63, 87
3, 12950, Note_on_c, 0, 63, 0
3, 12960, Note_on_c, 0, 60, 87
3, 13010, Note_on_c, 0, 60, 0
3, 13020, Note_on_c, 0, 63, 87
3, 13070, Note_on_c, 0, 63, 0
3, 13080, Note_on_c, 0, 68, 87
3, 13130, Note_on_c, 0, 68, 0
3, 13140, Note_on_c, 0, 63, 87
3, 13190, Note_on_c, 0, 63, 0
3, 13800, Note_on_c, 0, 62, 87
3, 13850, Note_on_c, 0, 62, 0
3, 13860, Note_on_c, 0, 58, 87
3, 13910, Note_on_c, 0, 58, 0
3, 13920, Note_on_c, 0, 63, 87
3, 13970, Note_on_c, 0, 63, 0
3, 13980, Note_on_c, 0, 62, 87
3, 14030, Note_on_c, 0, 62, 0
3, 14040, Note_on_c, 0, 61, 87
3, 14090, Note_on_c, 0, 61, 0
3, 14100, Note_on_c, 0, 60, 87
3, 14150, Note_on_c, 0, 60, 0
3, 14160, Note_on_c, 0, 61, 87
3, 14210, Note_on_c, 0, 61, 0
3, 14220, Note_on_c, 0, 58, 87
3, 14270, Note_on_c, 0, 58, 0
3, 14280, Note_on_c, 0, 61, 87
3, 14330, Note_on_c, 0, 61, 0
3, 14340, Note_on_c, 0, 58, 87
3, 14390, Note_on_c, 0, 58, 0
3, 14400, Note_on_c, 0, 60, 87
3, 14450, Note_on_c, 0, 60, 0
3, 14460, Note_on_c, 0, 63, 87
3, 14510, Note_on_c, 0, 63, 0
3, 14520, Note_on_c, 0, 65, 87
3, 14570, Note_on_c, 0, 65, 0
3, 14580, Note_on_c, 0, 63, 87
3, 14630, Note_on_c, 0, 63, 0
3, 14640, Note_on_c, 0, 61, 87
3, 14690, Note_on_c, 0, 61, 0
3, 14700, Note_on_c, 0, 63, 87
3, 14750, Note_on_c, 0, 63, 0
3, 14760, Note_on_c, 0, 61, 87
3, 14810, Note_on_c, 0, 61, 0
3, 14820, Note_on_c, 0, 63, 87
3, 14870, Note_on_c, 0, 63, 0
3, 14880, Note_on_c, 0, 60, 87
3, 14930, Note_on_c, 0, 60, 0
3, 14940, Note_on_c, 0, 63, 87
3, 14990, Note_on_c, 0, 63, 0
3, 15000, Note_on_c, 0, 66, 87
3, 15050, Note_on_c, 0, 66, 0
3, 15060, Note_on_c, 0, 65, 87
3, 15110, Note_on_c, 0, 65, 0
3, 15120, Note_on_c, 0, 66, 87
3, 15170, Note_on_c, 0, 66, 0
3, 15180, Note_on_c, 0, 63, 87
3, 15230, Note_on_c, 0, 63, 0
3, 15240, Note_on_c, 0, 66, 87
3, 15290, Note_on_c, 0, 66, 0
3, 15300, Note_on_c, 0, 63, 87
3, 15350, Note_on_c, 0, 63, 0
3, 15600, Note_on_c, 0, 67, 87
3, 15600, Note_on_c, 0, 75, 87
3, 15770, Note_on_c, 0, 75, 0
3, 15770, Note_on_c, 0, 67, 0
3, 15780, Note_on_c, 0, 70, 87
3, 15830, Note_on_c, 0, 70, 0
3, 15840, Note_on_c, 0, 70, 87
3, 15840, Note_on_c, 0, 67, 87
3, 16070, Note_on_c, 0, 67, 0
3, 16070, Note_on_c, 0, 70, 0
3, 16320, Note_on_c, 0, 74, 87
3, 16370, Note_on_c, 0, 74, 0
3, 16380, Note_on_c, 0, 72, 87
3, 16430, Note_on_c, 0, 72, 0
3, 16440, Note_on_c, 0, 70, 87
3, 16490, Note_on_c, 0, 70, 0
3, 16500, Note_on_c, 0, 69, 87
3, 16550, Note_on_c, 0, 69, 0
3, 16560, Note_on_c, 0, 72, 87
3, 16610, Note_on_c, 0, 72, 0
3, 16620, Note_on_c, 0, 70, 87
3, 16670, Note_on_c, 0, 70, 0
3, 16680, Note_on_c, 0, 75, 87
3, 16730, Note_on_c, 0, 75, 0
3, 16740, Note_on_c, 0, 66, 87
3, 16790, Note_on_c, 0, 66, 0
3, 17760, Note_on_c, 0, 55, 87
3, 17810, Note_on_c, 0, 55, 0
3, 17820, Note_on_c, 0, 58, 87
3, 17870, Note_on_c, 0, 58, 0
3, 17880, Note_on_c, 0, 57, 87
3, 17930, Note_on_c, 0, 57, 0
3, 17940, Note_on_c, 0, 58, 87
3, 17990, Note_on_c, 0, 58, 0
3, 18240, Note_on_c, 0, 63, 87
3, 18290, Note_on_c, 0, 63, 0
3, 18300, Note_on_c, 0, 58, 87
3, 18350, Note_on_c, 0, 58, 0
3, 18360, Note_on_c, 0, 57, 87
3, 18410, Note_on_c, 0, 57, 0
3, 18420, Note_on_c, 0, 58, 87
3, 18470, Note_on_c, 0, 58, 0
3, 18480, Note_on_c, 0, 56, 87
3, 18530, Note_on_c, 0, 56, 0
3, 18540, Note_on_c, 0, 58, 87
3, 18590, Note_on_c, 0, 58, 0
3, 18600, Note_on_c, 0, 56, 87
3, 18650, Note_on_c, 0, 56, 0
3, 18660, Note_on_c, 0, 58, 87
3, 18710, Note_on_c, 0, 58, 0
3, 18710, End_track
4, 0, Start_track
4, 0, Title_t, "Grand Piano"
4, 0, Program_c, 0, 0
4, 0, Control_c, 0, 7, 115
4, 0, Control_c, 0, 10, 47
4, 0, Note_on_c, 0, 39, 92
4, 230, Note_on_c, 0, 39, 0
4, 240, Note_on_c, 0, 46, 92
4, 350, Note_on_c, 0, 46, 0
4, 360, Note_on_c, 0, 46, 92
4, 470, Note_on_c, 0, 46, 0
4, 480, Note_on_c, 0, 46, 92
4, 710, Note_on_c, 0, 46, 0
4, 720, Note_on_c, 0, 46, 92
4, 830, Note_on_c, 0, 46, 0
4, 840, Note_on_c, 0, 46, 92
4, 950, Note_on_c, 0, 46, 0
4, 960, Note_on_c, 0, 46, 92
4, 960, Note_on_c, 0, 39, 92
4, 1190, Note_on_c, 0, 39, 0
4, 1190, Note_on_c, 0, 46, 0
4, 1200, Note_on_c, 0, 39, 92
4, 1200, Note_on_c, 0, 46, 92
4, 1430, Note_on_c, 0, 46, 0
4, 1430, Note_on_c, 0, 39, 0
4, 1440, Note_on_c, 0, 46, 92
4, 1440, Note_on_c, 0, 39, 92
4, 1670, Note_on_c, 0, 39, 0
4, 1670, Note_on_c, 0, 46, 0
4, 1680, Note_on_c, 0, 51, 92
4, 1730, Note_on_c, 0, 51, 0
4, 1740, Note_on_c, 0, 63, 92
4, 1790, Note_on_c, 0, 63, 0
4, 1800, Note_on_c, 0, 53, 92
4, 1850, Note_on_c, 0, 53, 0
4, 1860, Note_on_c, 0, 63, 92
4, 1910, Note_on_c, 0, 63, 0
4, 6180, Note_on_c, 0, 56, 92
4, 6230, Note_on_c, 0, 56, 0
4, 6240, Note_on_c, 0, 55, 92
4, 6290, Note_on_c, 0, 55, 0
4, 6300, Note_on_c, 0, 58, 92
4, 6350, Note_on_c, 0, 58, 0
4, 6360, Note_on_c, 0, 55, 92
4, 6410, Note_on_c, 0, 55, 0
4, 6420, Note_on_c, 0, 51, 92
4, 6470, Note_on_c, 0, 51, 0
4, 10560, Note_on_c, 0, 55, 92
4, 10610, Note_on_c, 0, 55, 0
4, 10620, Note_on_c, 0, 58, 92
4, 10670, Note_on_c, 0, 58, 0
4, 10680, Note_on_c, 0, 55, 92
4, 10730, Note_on_c, 0, 55, 0
4, 10740, Note_on_c, 0, 58, 92
4, 10790, Note_on_c, 0, 58, 0
4, 10800, Note_on_c, 0, 53, 92
4, 10850, Note_on_c, 0, 53, 0
4, 10860, Note_on_c, 0, 58, 92
4, 10910, Note_on_c, 0, 58, 0
4, 10920, Note_on_c, 0, 50, 92
4, 10970, Note_on_c, 0, 50, 0
4, 10980, Note_on_c, 0, 58, 92
4, 11030, Note_on_c, 0, 58, 0
4, 11040, Note_on_c, 0, 51, 92
4, 11090, Note_on_c, 0, 51, 0
4, 11100, Note_on_c, 0, 58, 92
4, 11150, Note_on_c, 0, 58, 0
4, 11160, Note_on_c, 0, 55, 92
4, 11210, Note_on_c, 0, 55, 0
4, 11220, Note_on_c, 0, 51, 92
4, 11270, Note_on_c, 0, 51, 0
4, 11280, Note_on_c, 0, 56, 92
4, 11330, Note_on_c, 0, 56, 0
4, 11340, Note_on_c, 0, 58, 92
4, 11390, Note_on_c, 0, 58, 0
4, 11400, Note_on_c, 0, 56, 92
4, 11450, Note_on_c, 0, 56, 0
4, 11460, Note_on_c, 0, 58, 92
4, 11510, Note_on_c, 0, 58, 0
4, 11520, Note_on_c, 0, 55, 92
4, 11570, Note_on_c, 0, 55, 0
4, 11580, Note_on_c, 0, 58, 92
4, 11630, Note_on_c, 0, 58, 0
4, 11640, Note_on_c, 0, 55, 92
4, 11690, Note_on_c, 0, 55, 0
4, 11700, Note_on_c, 0, 58, 92
4, 11750, Note_on_c, 0, 58, 0
4, 11760, Note_on_c, 0, 53, 92
4, 11810, Note_on_c, 0, 53, 0
4, 11820, Note_on_c, 0, 58, 92
4, 11870, Note_on_c, 0, 58, 0
4, 11880, Note_on_c, 0, 50, 92
4, 11930, Note_on_c, 0, 50, 0
4, 11940, Note_on_c, 0, 58, 92
4, 11990, Note_on_c, 0, 58, 0
4, 12000, Note_on_c, 0, 51, 92
4, 12050, Note_on_c, 0, 51, 0
4, 12060, Note_on_c, 0, 55, 92
4, 12110, Note_on_c, 0, 55, 0
4, 12120, Note_on_c, 0, 51, 92
4, 12170, Note_on_c, 0, 51, 0
4, 12180, Note_on_c, 0, 46, 92
4, 12230, Note_on_c, 0, 46, 0
4, 12240, Note_on_c, 0, 43, 92
4, 12350, Note_on_c, 0, 43, 0
4, 12360, Note_on_c, 0, 43, 92
4, 12470, Note_on_c, 0, 43, 0
4, 12480, Note_on_c, 0, 44, 92
4, 12710, Note_on_c, 0, 44, 0
4, 12720, Note_on_c, 0, 46, 92
4, 12830, Note_on_c, 0, 46, 0
4, 12840, Note_on_c, 0, 46, 92
4, 12950, Note_on_c, 0, 46, 0
4, 12960, Note_on_c, 0, 48, 92
4, 13190, Note_on_c, 0, 48, 0
4, 13200, Note_on_c, 0, 62, 92
4, 13250, Note_on_c, 0, 62, 0
4, 13260, Note_on_c, 0, 58, 92
4, 13310, Note_on_c, 0, 58, 0
4, 13320, Note_on_c, 0, 63, 92
4, 13370, Note_on_c, 0, 63, 0
4, 13380, Note_on_c, 0, 58, 92
4, 13430, Note_on_c, 0, 58, 0
4, 13440, Note_on_c, 0, 63, 92
4, 13440, Note_on_c, 0, 55, 92
4, 13490, Note_on_c, 0, 55, 0
4, 13490, Note_on_c, 0, 63, 0
4, 13500, Note_on_c, 0, 58, 92
4, 13550, Note_on_c, 0, 58, 0
4, 13560, Note_on_c, 0, 60, 92
4, 13610, Note_on_c, 0, 60, 0
4, 13620, Note_on_c, 0, 56, 92
4, 13670, Note_on_c, 0, 56, 0
4, 13680, Note_on_c, 0, 55, 92
4, 13730, Note_on_c, 0, 55, 0
4, 13740, Note_on_c, 0, 58, 92
4, 13790, Note_on_c, 0, 58, 0
4, 13800, Note_on_c, 0, 46, 92
4, 13910, Note_on_c, 0, 46, 0
4, 14160, Note_on_c, 0, 43, 92
4, 14270, Note_on_c, 0, 43, 0
4, 14280, Note_on_c, 0, 43, 92
4, 14390, Note_on_c, 0, 43, 0
4, 14400, Note_on_c, 0, 45, 92
4, 14630, Note_on_c, 0, 45, 0
4, 14640, Note_on_c, 0, 46, 92
4, 14750, Note_on_c, 0, 46, 0
4, 14760, Note_on_c, 0, 46, 92
4, 14870, Note_on_c, 0, 46, 0
4, 14880, Note_on_c, 0, 48, 92
4, 15110, Note_on_c, 0, 48, 0
4, 15120, Note_on_c, 0, 48, 92
4, 15230, Note_on_c, 0, 48, 0
4, 15240, Note_on_c, 0, 48, 92
4, 15350, Note_on_c, 0, 48, 0
4, 17520, Note_on_c, 0, 46, 92
4, 17750, Note_on_c, 0, 46, 0
4, 17760, Note_on_c, 0, 39, 92
4, 17990, Note_on_c, 0, 39, 0
4, 18000, Note_on_c, 0, 46, 92
4, 18110, Note_on_c, 0, 46, 0
4, 18120, Note_on_c, 0, 46, 92
4, 18230, Note_on_c, 0, 46, 0
4, 18240, Note_on_c, 0, 46, 92
4, 18470, Note_on_c, 0, 46, 0
4, 18480, Note_on_c, 0, 46, 92
4, 18590, Note_on_c, 0, 46, 0
4, 18600, Note_on_c, 0, 46, 92
4, 18710, Note_on_c, 0, 46, 0
4, 18720, Note_on_c, 0, 46, 92
4, 18720, Note_on_c, 0, 39, 92
4, 18950, Note_on_c, 0, 39, 0
4, 18950, Note_on_c, 0, 46, 0
4, 18960, Note_on_c, 0, 46, 92
4, 18960, Note_on_c, 0, 39, 92
4, 19190, Note_on_c, 0, 39, 0
4, 19190, Note_on_c, 0, 46, 0
4, 19200, Note_on_c, 0, 46, 92
4, 19200, Note_on_c, 0, 39, 92
4, 19430, Note_on_c, 0, 39, 0
4, 19430, Note_on_c, 0, 46, 0
4, 19430, End_track
5, 0, Start_track
5, 0, Title_t, "Grand Piano"
5, 0, Program_c, 0, 0
5, 0, Control_c, 0, 7, 115
5, 0, Control_c, 0, 10, 41
5, 240, Note_on_c, 0, 38, 92
5, 470, Note_on_c, 0, 38, 0
5, 480, Note_on_c, 0, 39, 92
5, 710, Note_on_c, 0, 39, 0
5, 720, Note_on_c, 0, 34, 92
5, 950, Note_on_c, 0, 34, 0
5, 1920, Note_on_c, 0, 55, 92
5, 1970, Note_on_c, 0, 55, 0
5, 1980, Note_on_c, 0, 63, 92
5, 2030, Note_on_c, 0, 63, 0
5, 2040, Note_on_c, 0, 60, 92
5, 2090, Note_on_c, 0, 60, 0
5, 2100, Note_on_c, 0, 63, 92
5, 2150, Note_on_c, 0, 63, 0
5, 2160, Note_on_c, 0, 58, 92
5, 2210, Note_on_c, 0, 58, 0
5, 2220, Note_on_c, 0, 63, 92
5, 2270, Note_on_c, 0, 63, 0
5, 2280, Note_on_c, 0, 56, 92
5, 2330, Note_on_c, 0, 56, 0
5, 2340, Note_on_c, 0, 63, 92
5, 2390, Note_on_c, 0, 63, 0
5, 2400, Note_on_c, 0, 55, 92
5, 2450, Note_on_c, 0, 55, 0
5, 2460, Note_on_c, 0, 63, 92
5, 2510, Note_on_c, 0, 63, 0
5, 2520, Note_on_c, 0, 62, 92
5, 2570, Note_on_c, 0, 62, 0
5, 2580, Note_on_c, 0, 63, 92
5, 2630, Note_on_c, 0, 63, 0
5, 2640, Note_on_c, 0, 62, 92
5, 2690, Note_on_c, 0, 62, 0
5, 2700, Note_on_c, 0, 63, 92
5, 2750, Note_on_c, 0, 63, 0
5, 2760, Note_on_c, 0, 61, 92
5, 2810, Note_on_c, 0, 61, 0
5, 2820, Note_on_c, 0, 63, 92
5, 2870, Note_on_c, 0, 63, 0
5, 2880, Note_on_c, 0, 60, 92
5, 2930, Note_on_c, 0, 60, 0
5, 2940, Note_on_c, 0, 63, 92
5, 2990, Note_on_c, 0, 63, 0
5, 3000, Note_on_c, 0, 58, 92
5, 3050, Note_on_c, 0, 58, 0
5, 3060, Note_on_c, 0, 63, 92
5, 3110, Note_on_c, 0, 63, 0
5, 3120, Note_on_c, 0, 56, 92
5, 3170, Note_on_c, 0, 56, 0
5, 3180, Note_on_c, 0, 63, 92
5, 3230, Note_on_c, 0, 63, 0
5, 3240, Note_on_c, 0, 53, 92
5, 3290, Note_on_c, 0, 53, 0
5, 3300, Note_on_c, 0, 63, 92
5, 3350, Note_on_c, 0, 63, 0
5, 3360, Note_on_c, 0, 58, 92
5, 3410, Note_on_c, 0, 58, 0
5, 3420, Note_on_c, 0, 63, 92
5, 3470, Note_on_c, 0, 63, 0
5, 3480, Note_on_c, 0, 62, 92
5, 3530, Note_on_c, 0, 62, 0
5, 3540, Note_on_c, 0, 58, 92
5, 3590, Note_on_c, 0, 58, 0
5, 3600, Note_on_c, 0, 51, 92
5, 3650, Note_on_c, 0, 51, 0
5, 3660, Note_on_c, 0, 63, 92
5, 3710, Note_on_c, 0, 63, 0
5, 3720, Note_on_c, 0, 53, 92
5, 3770, Note_on_c, 0, 53, 0
5, 3780, Note_on_c, 0, 63, 92
5, 3830, Note_on_c, 0, 63, 0
5, 3840, Note_on_c, 0, 55, 92
5, 3890, Note_on_c, 0, 55, 0
5, 3900, Note_on_c, 0, 63, 92
5, 3950, Note_on_c, 0, 63, 0
5, 3960, Note_on_c, 0, 58, 92
5, 4010, Note_on_c, 0, 58, 0
5, 4020, Note_on_c, 0, 63, 92
5, 4070, Note_on_c, 0, 63, 0
5, 4080, Note_on_c, 0, 57, 92
5, 4130, Note_on_c, 0, 57, 0
5, 4140, Note_on_c, 0, 60, 92
5, 4190, Note_on_c, 0, 60, 0
5, 4200, Note_on_c, 0, 65, 92
5, 4250, Note_on_c, 0, 65, 0
5, 4260, Note_on_c, 0, 57, 92
5, 4310, Note_on_c, 0, 57, 0
5, 4320, Note_on_c, 0, 58, 92
5, 4370, Note_on_c, 0, 58, 0
5, 4380, Note_on_c, 0, 62, 92
5, 4430, Note_on_c, 0, 62, 0
5, 4440, Note_on_c, 0, 58, 92
5, 4490, Note_on_c, 0, 58, 0
5, 4500, Note_on_c, 0, 56, 92
5, 4550, Note_on_c, 0, 56, 0
5, 4560, Note_on_c, 0, 55, 92
5, 4610, Note_on_c, 0, 55, 0
5, 4620, Note_on_c, 0, 63, 92
5, 4670, Note_on_c, 0, 63, 0
5, 4680, Note_on_c, 0, 62, 92
5, 4730, Note_on_c, 0, 62, 0
5, 4740, Note_on_c, 0, 63, 92
5, 4790, Note_on_c, 0, 63, 0
5, 4800, Note_on_c, 0, 60, 92
5, 4850, Note_on_c, 0, 60, 0
5, 4860, Note_on_c, 0, 63, 92
5, 4910, Note_on_c, 0, 63, 0
5, 4920, Note_on_c, 0, 58, 92
5, 4970, Note_on_c, 0, 58, 0
5, 4980, Note_on_c, 0, 63, 92
5, 5030, Note_on_c, 0, 63, 0
5, 5040, Note_on_c, 0, 56, 92
5, 5090, Note_on_c, 0, 56, 0
5, 5100, Note_on_c, 0, 63, 92
5, 5150, Note_on_c, 0, 63, 0
5, 5160, Note_on_c, 0, 62, 92
5, 5210, Note_on_c, 0, 62, 0
5, 5220, Note_on_c, 0, 58, 92
5, 5270, Note_on_c, 0, 58, 0
5, 5280, Note_on_c, 0, 55, 92
5, 5330, Note_on_c, 0, 55, 0
5, 5340, Note_on_c, 0, 58, 92
5, 5390, Note_on_c, 0, 58, 0
5, 5400, Note_on_c, 0, 63, 92
5, 5450, Note_on_c, 0, 63, 0
5, 5460, Note_on_c, 0, 58, 92
5, 5510, Note_on_c, 0, 58, 0
5, 5520, Note_on_c, 0, 55, 92
5, 5570, Note_on_c, 0, 55, 0
5, 5580, Note_on_c, 0, 63, 92
5, 5630, Note_on_c, 0, 63, 0
5, 5640, Note_on_c, 0, 61, 92
5, 5690, Note_on_c, 0, 61, 0
5, 5700, Note_on_c, 0, 63, 92
5, 5750, Note_on_c, 0, 63, 0
5, 5760, Note_on_c, 0, 60, 92
5, 5810, Note_on_c, 0, 60, 0
5, 5820, Note_on_c, 0, 63, 92
5, 5870, Note_on_c, 0, 63, 0
5, 5880, Note_on_c, 0, 58, 92
5, 5930, Note_on_c, 0, 58, 0
5, 5940, Note_on_c, 0, 63, 92
5, 5990, Note_on_c, 0, 63, 0
5, 6000, Note_on_c, 0, 56, 92
5, 6110, Note_on_c, 0, 56, 0
5, 6120, Note_on_c, 0, 46, 92
5, 6230, Note_on_c, 0, 46, 0
5, 6240, Note_on_c, 0, 51, 92
5, 6470, Note_on_c, 0, 51, 0
5, 6480, Note_on_c, 0, 50, 92
5, 6530, Note_on_c, 0, 50, 0
5, 6540, Note_on_c, 0, 58, 92
5, 6590, Note_on_c, 0, 58, 0
5, 6600, Note_on_c, 0, 52, 92
5, 6650, Note_on_c, 0, 52, 0
5, 6660, Note_on_c, 0, 58, 92
5, 6710, Note_on_c, 0, 58, 0
5, 6720, Note_on_c, 0, 53, 92
5, 6770, Note_on_c, 0, 53, 0
5, 6780, Note_on_c, 0, 58, 92
5, 6830, Note_on_c, 0, 58, 0
5, 6840, Note_on_c, 0, 53, 92
5, 6890, Note_on_c, 0, 53, 0
5, 6900, Note_on_c, 0, 51, 92
5, 6950, Note_on_c, 0, 51, 0
5, 6960, Note_on_c, 0, 50, 92
5, 7010, Note_on_c, 0, 50, 0
5, 7020, Note_on_c, 0, 58, 92
5, 7070, Note_on_c, 0, 58, 0
5, 7080, Note_on_c, 0, 48, 92
5, 7130, Note_on_c, 0, 48, 0
5, 7140, Note_on_c, 0, 58, 92
5, 7190, Note_on_c, 0, 58, 0
5, 7200, Note_on_c, 0, 46, 92
5, 7250, Note_on_c, 0, 46, 0
5, 7260, Note_on_c, 0, 53, 92
5, 7310, Note_on_c, 0, 53, 0
5, 7320, Note_on_c, 0, 58, 92
5, 7370, Note_on_c, 0, 58, 0
5, 7380, Note_on_c, 0, 56, 92
5, 7430, Note_on_c, 0, 56, 0
5, 7440, Note_on_c, 0, 55, 92
5, 7490, Note_on_c, 0, 55, 0
5, 7500, Note_on_c, 0, 63, 92
5, 7550, Note_on_c, 0, 63, 0
5, 7560, Note_on_c, 0, 57, 92
5, 7610, Note_on_c, 0, 57, 0
5, 7620, Note_on_c, 0, 63, 92
5, 7670, Note_on_c, 0, 63, 0
5, 7680, Note_on_c, 0, 58, 92
5, 7730, Note_on_c, 0, 58, 0
5, 7740, Note_on_c, 0, 63, 92
5, 7790, Note_on_c, 0, 63, 0
5, 7800, Note_on_c, 0, 58, 92
5, 7850, Note_on_c, 0, 58, 0
5, 7860, Note_on_c, 0, 56, 92
5, 7910, Note_on_c, 0, 56, 0
5, 7920, Note_on_c, 0, 55, 92
5, 7970, Note_on_c, 0, 55, 0
5, 7980, Note_on_c, 0, 63, 92
5, 8030, Note_on_c, 0, 63, 0
5, 8040, Note_on_c, 0, 51, 92
5, 8090, Note_on_c, 0, 51, 0
5, 8100, Note_on_c, 0, 63, 92
5, 8150, Note_on_c, 0, 63, 0
5, 8160, Note_on_c, 0, 56, 92
5, 8210, Note_on_c, 0, 56, 0
5, 8220, Note_on_c, 0, 63, 92
5, 8270, Note_on_c, 0, 63, 0
5, 8280, Note_on_c, 0, 56, 92
5, 8330, Note_on_c, 0, 56, 0
5, 8340, Note_on_c, 0, 58, 92
5, 8390, Note_on_c, 0, 58, 0
5, 8400, Note_on_c, 0, 60, 92
5, 8450, Note_on_c, 0, 60, 0
5, 8640, Note_on_c, 0, 58, 92
5, 8690, Note_on_c, 0, 58, 0
5, 8700, Note_on_c, 0, 63, 92
5, 8750, Note_on_c, 0, 63, 0
5, 8760, Note_on_c, 0, 56, 92
5, 8810, Note_on_c, 0, 56, 0
5, 8820, Note_on_c, 0, 55, 92
5, 8870, Note_on_c, 0, 55, 0
5, 8880, Note_on_c, 0, 56, 92
5, 8930, Note_on_c, 0, 56, 0
5, 8940, Note_on_c, 0, 60, 92
5, 8990, Note_on_c, 0, 60, 0
5, 9000, Note_on_c, 0, 65, 92
5, 9050, Note_on_c, 0, 65, 0
5, 9060, Note_on_c, 0, 60, 92
5, 9110, Note_on_c, 0, 60, 0
5, 9120, Note_on_c, 0, 55, 92
5, 9170, Note_on_c, 0, 55, 0
5, 9180, Note_on_c, 0, 60, 92
5, 9230, Note_on_c, 0, 60, 0
5, 9240, Note_on_c, 0, 53, 92
5, 9290, Note_on_c, 0, 53, 0
5, 9300, Note_on_c, 0, 55, 92
5, 9350, Note_on_c, 0, 55, 0
5, 9360, Note_on_c, 0, 56, 92
5, 9410, Note_on_c, 0, 56, 0
5, 9420, Note_on_c, 0, 60, 92
5, 9470, Note_on_c, 0, 60, 0
5, 9480, Note_on_c, 0, 65, 92
5, 9530, Note_on_c, 0, 65, 0
5, 9540, Note_on_c, 0, 60, 92
5, 9590, Note_on_c, 0, 60, 0
5, 9600, Note_on_c, 0, 56, 92
5, 9650, Note_on_c, 0, 56, 0
5, 9660, Note_on_c, 0, 58, 92
5, 9710, Note_on_c, 0, 58, 0
5, 9720, Note_on_c, 0, 62, 92
5, 9770, Note_on_c, 0, 62, 0
5, 9780, Note_on_c, 0, 58, 92
5, 9830, Note_on_c, 0, 58, 0
5, 9840, Note_on_c, 0, 55, 92
5, 9950, Note_on_c, 0, 55, 0
5, 9960, Note_on_c, 0, 56, 92
5, 10070, Note_on_c, 0, 56, 0
5, 10080, Note_on_c, 0, 58, 92
5, 10190, Note_on_c, 0, 58, 0
5, 10200, Note_on_c, 0, 46, 92
5, 10310, Note_on_c, 0, 46, 0
5, 10320, Note_on_c, 0, 57, 92
5, 10370, Note_on_c, 0, 57, 0
5, 10380, Note_on_c, 0, 58, 92
5, 10430, Note_on_c, 0, 58, 0
5, 10440, Note_on_c, 0, 56, 92
5, 10490, Note_on_c, 0, 56, 0
5, 10500, Note_on_c, 0, 58, 92
5, 10550, Note_on_c, 0, 58, 0
5, 10560, Note_on_c, 0, 46, 92
5, 10790, Note_on_c, 0, 46, 0
5, 11040, Note_on_c, 0, 46, 92
5, 11270, Note_on_c, 0, 46, 0
5, 11520, Note_on_c, 0, 46, 92
5, 11750, Note_on_c, 0, 46, 0
5, 13200, Note_on_c, 0, 56, 92
5, 13430, Note_on_c, 0, 56, 0
5, 13920, Note_on_c, 0, 51, 92
5, 14150, Note_on_c, 0, 51, 0
5, 14160, Note_on_c, 0, 31, 92
5, 14390, Note_on_c, 0, 31, 0
5, 14400, Note_on_c, 0, 33, 92
5, 14630, Note_on_c, 0, 33, 0
5, 14640, Note_on_c, 0, 34, 92
5, 14870, Note_on_c, 0, 34, 0
5, 14880, Note_on_c, 0, 36, 92
5, 15110, Note_on_c, 0, 36, 0
5, 15360, Note_on_c, 0, 46, 92
5, 15410, Note_on_c, 0, 46, 0
5, 15420, Note_on_c, 0, 55, 92
5, 15470, Note_on_c, 0, 55, 0
5, 15480, Note_on_c, 0, 58, 92
5, 15530, Note_on_c, 0, 58, 0
5, 15540, Note_on_c, 0, 55, 92
5, 15590, Note_on_c, 0, 55, 0
5, 15600, Note_on_c, 0, 46, 92
5, 15650, Note_on_c, 0, 46, 0
5, 15660, Note_on_c, 0, 55, 92
5, 15710, Note_on_c, 0, 55, 0
5, 15720, Note_on_c, 0, 58, 92
5, 15770, Note_on_c, 0, 58, 0
5, 15780, Note_on_c, 0, 55, 92
5, 15830, Note_on_c, 0, 55, 0
5, 15840, Note_on_c, 0, 46, 92
5, 15890, Note_on_c, 0, 46, 0
5, 15900, Note_on_c, 0, 55, 92
5, 15950, Note_on_c, 0, 55, 0
5, 15960, Note_on_c, 0, 58, 92
5, 16010, Note_on_c, 0, 58, 0
5, 16020, Note_on_c, 0, 55, 92
5, 16070, Note_on_c, 0, 55, 0
5, 16080, Note_on_c, 0, 63, 92
5, 16190, Note_on_c, 0, 63, 0
5, 18000, Note_on_c, 0, 38, 92
5, 18230, Note_on_c, 0, 38, 0
5, 18240, Note_on_c, 0, 39, 92
5, 18470, Note_on_c, 0, 39, 0
5, 18480, Note_on_c, 0, 34, 92
5, 18710, Note_on_c, 0, 34, 0
5, 18710, End_track
0, 0, End_of_file
