0, 0, Header, 0, 1, 384
1, 0, Start_track
1, 0, Title_t, "Lieder ohne Worte Op. 30 No. 1"
1, 0, Time_signature, 4, 2, 24, 8
1, 0, Key_signature, 0, "major"
1, 0, Tempo, 512821
1, 0, Program_c, 0, 0
1, 0, Control_c, 0, 7, 115
1, 0, Control_c, 0, 91, 127
1, 3, Program_c, 0, 0
1, 3, Program_c, 0, 0
1, 748, Control_c, 0, 64, 127
1, 748, Note_on_c, 0, 39, 37
1, 980, Note_on_c, 0, 55, 42
1, 980, Note_on_c, 0, 46, 34
1, 1202, Note_on_c, 0, 46, 0
1, 1202, Note_on_c, 0, 55, 0
1, 1202, Note_on_c, 0, 58, 41
1, 1205, Note_on_c, 0, 51, 35
1, 1430, Note_on_c, 0, 51, 0
1, 1430, Note_on_c, 0, 58, 0
1, 1430, Note_on_c, 0, 63, 43
1, 1433, Note_on_c, 0, 39, 0
1, 1433, Note_on_c, 0, 55, 37
1, 1652, Note_on_c, 0, 55, 0
1, 1652, Note_on_c, 0, 63, 0
1, 1652, Note_on_c, 0, 58, 41
1, 1655, Note_on_c, 0, 51, 34
1, 1882, Note_on_c, 0, 51, 0
1, 1882, Note_on_c, 0, 58, 0
1, 1882, Note_on_c, 0, 55, 41
1, 1885, Note_on_c, 0, 46, 34
1, 2121, Note_on_c, 0, 46, 0
1, 2121, Note_on_c, 0, 55, 0
1, 2121, Note_on_c, 0, 39, 37
1, 2352, Note_on_c, 0, 55, 41
1, 2352, Note_on_c, 0, 46, 35
1, 2575, Note_on_c, 0, 46, 0
1, 2575, Note_on_c, 0, 55, 0
1, 2575, Note_on_c, 0, 58, 41
1, 2578, Note_on_c, 0, 51, 35
1, 2804, Note_on_c, 0, 51, 0
1, 2804, Note_on_c, 0, 58, 0
1, 2804, Note_on_c, 0, 63, 61
1, 2807, Note_on_c, 0, 39, 0
1, 2807, Note_on_c, 0, 55, 37
1, 3027, Note_on_c, 0, 55, 0
1, 3027, Note_on_c, 0, 58, 40
1, 3027, Note_on_c, 0, 51, 34
1, 3256, Note_on_c, 0, 51, 0
1, 3256, Note_on_c, 0, 58, 0
1, 3256, Note_on_c, 0, 55, 40
1, 3259, Note_on_c, 0, 46, 34
1, 3514, Note_on_c, 0, 55, 0
1, 3514, Note_on_c, 0, 63, 0
1, 3514, Note_on_c, 0, 67, 66
1, 3517, Note_on_c, 0, 46, 0
1, 3517, Note_on_c, 0, 39, 37
1, 3745, Note_on_c, 0, 55, 42
1, 3745, Note_on_c, 0, 46, 34
1, 3963, Note_on_c, 0, 46, 0
1, 3963, Note_on_c, 0, 55, 0
1, 3963, Note_on_c, 0, 58, 41
1, 3966, Note_on_c, 0, 51, 35
1, 4191, Note_on_c, 0, 51, 0
1, 4191, Note_on_c, 0, 58, 0
1, 4191, Note_on_c, 0, 63, 47
1, 4194, Note_on_c, 0, 39, 0
1, 4194, Note_on_c, 0, 55, 37
1, 4414, Note_on_c, 0, 55, 0
1, 4414, Note_on_c, 0, 63, 0
1, 4414, Note_on_c, 0, 58, 41
1, 4417, Note_on_c, 0, 51, 34
1, 4528, Note_on_c, 0, 67, 0
1, 4528, Note_on_c, 0, 68, 60
1, 4643, Note_on_c, 0, 51, 0
1, 4643, Note_on_c, 0, 58, 0
1, 4643, Note_on_c, 0, 55, 41
1, 4646, Note_on_c, 0, 46, 34
1, 4882, Note_on_c, 0, 55, 0
1, 4882, Note_on_c, 0, 68, 0
1, 4882, Note_on_c, 0, 70, 72
1, 4885, Note_on_c, 0, 46, 0
1, 4885, Note_on_c, 0, 39, 37
1, 4895, Control_c, 0, 64, 0
1, 4918, Control_c, 0, 64, 127
1, 5113, Note_on_c, 0, 55, 41
1, 5113, Note_on_c, 0, 46, 35
1, 5336, Note_on_c, 0, 46, 0
1, 5336, Note_on_c, 0, 55, 0
1, 5336, Note_on_c, 0, 58, 41
1, 5339, Note_on_c, 0, 51, 35
1, 5565, Note_on_c, 0, 58, 0
1, 5565, Note_on_c, 0, 70, 0
1, 5565, Note_on_c, 0, 63, 62
1, 5568, Note_on_c, 0, 39, 0
1, 5568, Note_on_c, 0, 51, 0
1, 5568, Note_on_c, 0, 55, 37
1, 5788, Note_on_c, 0, 55, 0
1, 5788, Note_on_c, 0, 58, 40
1, 5788, Note_on_c, 0, 51, 34
1, 6017, Note_on_c, 0, 51, 0
1, 6017, Note_on_c, 0, 58, 0
1, 6017, Note_on_c, 0, 55, 40
1, 6020, Note_on_c, 0, 46, 34
1, 6256, Note_on_c, 0, 55, 0
1, 6256, Note_on_c, 0, 63, 0
1, 6256, Note_on_c, 0, 68, 66
1, 6259, Note_on_c, 0, 46, 0
1, 6259, Note_on_c, 0, 34, 37
1, 6263, Control_c, 0, 64, 0
1, 6302, Control_c, 0, 64, 127
1, 6487, Note_on_c, 0, 56, 42
1, 6487, Note_on_c, 0, 46, 34
1, 6710, Note_on_c, 0, 46, 0
1, 6710, Note_on_c, 0, 56, 0
1, 6710, Note_on_c, 0, 58, 41
1, 6713, Note_on_c, 0, 50, 35
1, 6938, Note_on_c, 0, 58, 0
1, 6938, Note_on_c, 0, 68, 0
1, 6938, Note_on_c, 0, 62, 50
1, 6941, Note_on_c, 0, 34, 0
1, 6941, Note_on_c, 0, 50, 0
1, 6941, Note_on_c, 0, 53, 37
1, 7160, Note_on_c, 0, 53, 0
1, 7160, Note_on_c, 0, 58, 41
1, 7160, Note_on_c, 0, 50, 34
1, 7390, Note_on_c, 0, 50, 0
1, 7390, Note_on_c, 0, 58, 0
1, 7390, Note_on_c, 0, 56, 41
1, 7393, Note_on_c, 0, 46, 34
1, 7628, Note_on_c, 0, 56, 0
1, 7628, Note_on_c, 0, 62, 0
1, 7628, Note_on_c, 0, 63, 72
1, 7631, Note_on_c, 0, 46, 0
1, 7631, Note_on_c, 0, 36, 37
1, 7643, Control_c, 0, 64, 0
1, 7705, Control_c, 0, 64, 127
1, 7860, Note_on_c, 0, 51, 42
1, 7860, Note_on_c, 0, 43, 42
1, 8082, Note_on_c, 0, 43, 0
1, 8082, Note_on_c, 0, 51, 0
1, 8082, Note_on_c, 0, 55, 42
1, 8085, Note_on_c, 0, 48, 42
1, 8316, Note_on_c, 0, 48, 0
1, 8316, Note_on_c, 0, 55, 0
1, 8316, Note_on_c, 0, 36, 0
1, 8319, Note_on_c, 0, 60, 45
1, 8319, Note_on_c, 0, 51, 45
1, 8543, Note_on_c, 0, 51, 0
1, 8543, Note_on_c, 0, 60, 0
1, 8543, Note_on_c, 0, 55, 39
1, 8546, Note_on_c, 0, 48, 39
1, 8662, Note_on_c, 0, 63, 0
1, 8662, Note_on_c, 0, 62, 68
1, 8781, Note_on_c, 0, 48, 0
1, 8781, Note_on_c, 0, 55, 0
1, 8781, Note_on_c, 0, 51, 40
1, 8784, Note_on_c, 0, 43, 40
1, 9033, Note_on_c, 0, 43, 0
1, 9033, Note_on_c, 0, 62, 0
1, 9033, Note_on_c, 0, 60, 74
1, 9036, Note_on_c, 0, 51, 0
1, 9036, Note_on_c, 0, 34, 42
1, 9046, Control_c, 0, 64, 0
1, 9079, Control_c, 0, 64, 127
1, 9264, Note_on_c, 0, 44, 38
1, 9487, Note_on_c, 0, 44, 0
1, 9487, Note_on_c, 0, 48, 38
1, 9714, Note_on_c, 0, 48, 0
1, 9714, Note_on_c, 0, 34, 0
1, 9714, Note_on_c, 0, 53, 45
1, 9937, Note_on_c, 0, 53, 0
1, 9937, Note_on_c, 0, 48, 37
1, 10052, Note_on_c, 0, 60, 0
1, 10052, Note_on_c, 0, 65, 69
1, 10166, Note_on_c, 0, 48, 0
1, 10166, Note_on_c, 0, 44, 37
1, 10405, Note_on_c, 0, 65, 0
1, 10405, Note_on_c, 0, 68, 73
1, 10405, Note_on_c, 0, 32, 41
1, 10636, Note_on_c, 0, 48, 41
1, 10859, Note_on_c, 0, 48, 0
1, 10859, Note_on_c, 0, 53, 42
1, 11088, Note_on_c, 0, 53, 0
1, 11088, Note_on_c, 0, 32, 0
1, 11088, Note_on_c, 0, 44, 0
1, 11091, Note_on_c, 0, 56, 46
1, 11311, Note_on_c, 0, 56, 0
1, 11311, Note_on_c, 0, 53, 42
1, 11426, Note_on_c, 0, 68, 0
1, 11426, Note_on_c, 0, 65, 76
1, 11540, Note_on_c, 0, 53, 0
1, 11540, Note_on_c, 0, 48, 42
1, 11779, Note_on_c, 0, 48, 0
1, 11779, Note_on_c, 0, 65, 0
1, 11779, Note_on_c, 0, 75, 86
1, 11782, Note_on_c, 0, 34, 39
1, 11782, Note_on_c, 0, 46, 39
1, 11791, Control_c, 0, 64, 0
1, 11852, Control_c, 0, 64, 127
1, 12018, Note_on_c, 0, 53, 41
1, 12247, Note_on_c, 0, 53, 0
1, 12247, Note_on_c, 0, 56, 38
1, 12482, Note_on_c, 0, 75, 0
1, 12482, Note_on_c, 0, 74, 80
1, 12482, Note_on_c, 0, 68, 46
1, 12485, Note_on_c, 0, 34, 0
1, 12485, Note_on_c, 0, 56, 0
1, 12485, Note_on_c, 0, 46, 0
1, 12488, Note_on_c, 0, 58, 42
1, 12717, Note_on_c, 0, 58, 0
1, 12717, Note_on_c, 0, 68, 0
1, 12717, Note_on_c, 0, 65, 46
1, 12720, Note_on_c, 0, 56, 38
1, 12952, Note_on_c, 0, 56, 0
1, 12952, Note_on_c, 0, 65, 0
1, 12952, Note_on_c, 0, 62, 41
1, 12955, Note_on_c, 0, 53, 37
1, 13178, Note_on_c, 0, 53, 0
1, 13178, Note_on_c, 0, 62, 0
1, 13178, Note_on_c, 0, 68, 43
1, 13181, Note_on_c, 0, 58, 37
1, 13420, Note_on_c, 0, 58, 0
1, 13420, Note_on_c, 0, 68, 0
1, 13420, Note_on_c, 0, 65, 39
1, 13423, Note_on_c, 0, 56, 33
1, 13543, Note_on_c, 0, 74, 0
1, 13543, Note_on_c, 0, 72, 63
1, 13668, Note_on_c, 0, 56, 0
1, 13668, Note_on_c, 0, 65, 0
1, 13668, Note_on_c, 0, 62, 39
1, 13671, Note_on_c, 0, 53, 33
1, 13922, Note_on_c, 0, 62, 0
1, 13922, Note_on_c, 0, 72, 0
1, 13922, Note_on_c, 0, 70, 61
1, 13925, Note_on_c, 0, 53, 0
1, 13925, Note_on_c, 0, 68, 37
1, 13925, Note_on_c, 0, 58, 33
1, 14187, Note_on_c, 0, 58, 0
1, 14187, Note_on_c, 0, 68, 0
1, 14187, Note_on_c, 0, 65, 37
1, 14190, Note_on_c, 0, 56, 28
1, 14319, Note_on_c, 0, 70, 0
1, 14319, Note_on_c, 0, 68, 56
1, 14451, Note_on_c, 0, 56, 0
1, 14451, Note_on_c, 0, 65, 0
1, 14451, Note_on_c, 0, 62, 33
1, 14454, Note_on_c, 0, 53, 28
1, 14738, Note_on_c, 0, 62, 0
1, 14738, Note_on_c, 0, 68, 0
1, 14738, Note_on_c, 0, 67, 62
1, 14741, Note_on_c, 0, 53, 0
1, 14741, Note_on_c, 0, 39, 37
1, 14753, Control_c, 0, 64, 0
1, 14854, Control_c, 0, 64, 127
1, 14970, Note_on_c, 0, 55, 40
1, 14970, Note_on_c, 0, 46, 34
1, 15187, Note_on_c, 0, 46, 0
1, 15187, Note_on_c, 0, 55, 0
1, 15187, Note_on_c, 0, 58, 40
1, 15190, Note_on_c, 0, 51, 35
1, 15414, Note_on_c, 0, 51, 0
1, 15414, Note_on_c, 0, 58, 0
1, 15414, Note_on_c, 0, 63, 48
1, 15417, Note_on_c, 0, 39, 0
1, 15417, Note_on_c, 0, 55, 37
1, 15637, Note_on_c, 0, 55, 0
1, 15637, Note_on_c, 0, 63, 0
1, 15637, Note_on_c, 0, 58, 41
1, 15640, Note_on_c, 0, 51, 34
1, 15752, Note_on_c, 0, 67, 0
1, 15752, Note_on_c, 0, 68, 61
1, 15867, Note_on_c, 0, 51, 0
1, 15867, Note_on_c, 0, 58, 0
1, 15867, Note_on_c, 0, 55, 41
1, 15870, Note_on_c, 0, 46, 34
1, 16105, Note_on_c, 0, 55, 0
1, 16105, Note_on_c, 0, 68, 0
1, 16105, Note_on_c, 0, 70, 66
1, 16108, Note_on_c, 0, 46, 0
1, 16108, Note_on_c, 0, 39, 37
1, 16120, Control_c, 0, 64, 0
1, 16182, Control_c, 0, 64, 127
1, 16337, Note_on_c, 0, 55, 41
1, 16337, Note_on_c, 0, 46, 35
1, 16559, Note_on_c, 0, 46, 0
1, 16559, Note_on_c, 0, 55, 0
1, 16559, Note_on_c, 0, 58, 41
1, 16562, Note_on_c, 0, 51, 35
1, 16789, Note_on_c, 0, 58, 0
1, 16789, Note_on_c, 0, 70, 0
1, 16789, Note_on_c, 0, 63, 62
1, 16792, Note_on_c, 0, 39, 0
1, 16792, Note_on_c, 0, 51, 0
1, 16792, Note_on_c, 0, 55, 37
1, 17006, Note_on_c, 0, 55, 0
1, 17006, Note_on_c, 0, 58, 40
1, 17006, Note_on_c, 0, 51, 34
1, 17235, Note_on_c, 0, 51, 0
1, 17235, Note_on_c, 0, 58, 0
1, 17235, Note_on_c, 0, 55, 40
1, 17238, Note_on_c, 0, 46, 34
1, 17474, Note_on_c, 0, 55, 0
1, 17474, Note_on_c, 0, 63, 0
1, 17474, Note_on_c, 0, 68, 66
1, 17477, Note_on_c, 0, 46, 0
1, 17477, Note_on_c, 0, 34, 37
1, 17486, Control_c, 0, 64, 0
1, 17566, Control_c, 0, 64, 127
1, 17705, Note_on_c, 0, 56, 42
1, 17705, Note_on_c, 0, 46, 34
1, 17928, Note_on_c, 0, 46, 0
1, 17928, Note_on_c, 0, 56, 0
1, 17928, Note_on_c, 0, 58, 41
1, 17931, Note_on_c, 0, 50, 35
1, 18156, Note_on_c, 0, 58, 0
1, 18156, Note_on_c, 0, 68, 0
1, 18156, Note_on_c, 0, 62, 52
1, 18159, Note_on_c, 0, 34, 0
1, 18159, Note_on_c, 0, 50, 0
1, 18159, Note_on_c, 0, 53, 37
1, 18378, Note_on_c, 0, 53, 0
1, 18378, Note_on_c, 0, 58, 41
1, 18378, Note_on_c, 0, 50, 34
1, 18608, Note_on_c, 0, 50, 0
1, 18608, Note_on_c, 0, 58, 0
1, 18608, Note_on_c, 0, 56, 41
1, 18611, Note_on_c, 0, 46, 34
1, 18846, Note_on_c, 0, 56, 0
1, 18846, Note_on_c, 0, 62, 0
1, 18846, Note_on_c, 0, 63, 72
1, 18849, Note_on_c, 0, 46, 0
1, 18849, Note_on_c, 0, 36, 37
1, 18856, Control_c, 0, 64, 0
1, 18923, Control_c, 0, 64, 127
1, 19078, Note_on_c, 0, 51, 42
1, 19078, Note_on_c, 0, 43, 42
1, 19300, Note_on_c, 0, 43, 0
1, 19300, Note_on_c, 0, 51, 0
1, 19300, Note_on_c, 0, 55, 42
1, 19303, Note_on_c, 0, 48, 42
1, 19530, Note_on_c, 0, 48, 0
1, 19530, Note_on_c, 0, 55, 0
1, 19530, Note_on_c, 0, 36, 0
1, 19533, Note_on_c, 0, 60, 45
1, 19533, Note_on_c, 0, 51, 45
1, 19752, Note_on_c, 0, 51, 0
1, 19752, Note_on_c, 0, 60, 0
1, 19752, Note_on_c, 0, 55, 39
1, 19755, Note_on_c, 0, 48, 39
1, 19867, Note_on_c, 0, 63, 0
1, 19867, Note_on_c, 0, 63, 68
1, 19982, Note_on_c, 0, 48, 0
1, 19982, Note_on_c, 0, 55, 0
1, 19982, Note_on_c, 0, 51, 40
1, 19985, Note_on_c, 0, 43, 40
1, 20221, Note_on_c, 0, 43, 0
1, 20221, Note_on_c, 0, 63, 0
1, 20221, Note_on_c, 0, 65, 74
1, 20224, Note_on_c, 0, 51, 0
1, 20224, Note_on_c, 0, 36, 39
1, 20234, Control_c, 0, 64, 0
1, 20327, Control_c, 0, 64, 127
1, 20452, Note_on_c, 0, 43, 36
1, 20452, Note_on_c, 0, 53, 36
1, 20674, Note_on_c, 0, 53, 0
1, 20674, Note_on_c, 0, 43, 0
1, 20674, Note_on_c, 0, 50, 36
1, 20677, Note_on_c, 0, 55, 36
1, 20902, Note_on_c, 0, 55, 0
1, 20902, Note_on_c, 0, 50, 0
1, 20902, Note_on_c, 0, 36, 0
1, 20905, Note_on_c, 0, 53, 39
1, 20905, Note_on_c, 0, 59, 39
1, 21125, Note_on_c, 0, 59, 0
1, 21125, Note_on_c, 0, 65, 0
1, 21125, Note_on_c, 0, 63, 70
1, 21128, Note_on_c, 0, 53, 0
1, 21128, Note_on_c, 0, 50, 36
1, 21128, Note_on_c, 0, 55, 36
1, 21354, Note_on_c, 0, 55, 0
1, 21354, Note_on_c, 0, 63, 0
1, 21354, Note_on_c, 0, 62, 68
1, 21357, Note_on_c, 0, 50, 0
1, 21357, Note_on_c, 0, 53, 39
1, 21357, Note_on_c, 0, 43, 36
1, 21593, Note_on_c, 0, 43, 0
1, 21593, Note_on_c, 0, 62, 0
1, 21593, Note_on_c, 0, 60, 73
1, 21596, Note_on_c, 0, 53, 0
1, 21596, Note_on_c, 0, 36, 37
1, 21607, Control_c, 0, 64, 0
1, 21669, Control_c, 0, 64, 127
1, 21824, Note_on_c, 0, 43, 41
1, 21935, Note_on_c, 0, 60, 0
1, 21935, Note_on_c, 0, 63, 70
1, 22047, Note_on_c, 0, 43, 0
1, 22047, Note_on_c, 0, 48, 42
1, 22276, Note_on_c, 0, 48, 0
1, 22276, Note_on_c, 0, 63, 0
1, 22276, Note_on_c, 0, 67, 76
1, 22279, Note_on_c, 0, 36, 0
1, 22279, Note_on_c, 0, 51, 47
1, 22499, Note_on_c, 0, 51, 0
1, 22499, Note_on_c, 0, 48, 45
1, 22614, Note_on_c, 0, 67, 0
1, 22614, Note_on_c, 0, 72, 81
1, 22728, Note_on_c, 0, 48, 0
1, 22728, Note_on_c, 0, 43, 45
1, 22967, Note_on_c, 0, 43, 0
1, 22967, Note_on_c, 0, 72, 0
1, 22967, Note_on_c, 0, 77, 86
1, 22970, Note_on_c, 0, 36, 47
1, 22982, Control_c, 0, 64, 0
1, 23015, Control_c, 0, 64, 127
1, 23206, Note_on_c, 0, 65, 55
1, 23206, Note_on_c, 0, 50, 41
1, 23435, Note_on_c, 0, 50, 0
1, 23435, Note_on_c, 0, 65, 0
1, 23435, Note_on_c, 0, 67, 55
1, 23438, Note_on_c, 0, 55, 38
1, 23670, Note_on_c, 0, 55, 0
1, 23670, Note_on_c, 0, 67, 0
1, 23670, Note_on_c, 0, 71, 46
1, 23673, Note_on_c, 0, 36, 0
1, 23673, Note_on_c, 0, 62, 42
1, 23905, Note_on_c, 0, 71, 0
1, 23905, Note_on_c, 0, 77, 0
1, 23905, Note_on_c, 0, 75, 75
1, 23908, Note_on_c, 0, 62, 0
1, 23908, Note_on_c, 0, 67, 55
1, 23908, Note_on_c, 0, 55, 38
1, 24140, Note_on_c, 0, 67, 0
1, 24140, Note_on_c, 0, 75, 0
1, 24140, Note_on_c, 0, 74, 72
1, 24143, Note_on_c, 0, 55, 0
1, 24143, Note_on_c, 0, 65, 54
1, 24143, Note_on_c, 0, 50, 37
1, 24366, Note_on_c, 0, 65, 0
1, 24366, Note_on_c, 0, 74, 0
1, 24366, Note_on_c, 0, 72, 73
1, 24369, Note_on_c, 0, 50, 0
1, 24369, Note_on_c, 0, 36, 39
1, 24380, Control_c, 0, 64, 0
1, 24423, Control_c, 0, 64, 127
1, 24602, Note_on_c, 0, 51, 34
1, 24723, Note_on_c, 0, 72, 0
1, 24723, Note_on_c, 0, 67, 64
1, 24846, Note_on_c, 0, 51, 0
1, 24846, Note_on_c, 0, 55, 34
1, 25098, Note_on_c, 0, 55, 0
1, 25098, Note_on_c, 0, 67, 0
1, 25098, Note_on_c, 0, 69, 67
1, 25101, Note_on_c, 0, 36, 0
1, 25101, Note_on_c, 0, 60, 35
1, 25357, Note_on_c, 0, 60, 0
1, 25357, Note_on_c, 0, 55, 31
1, 25487, Note_on_c, 0, 69, 0
1, 25487, Note_on_c, 0, 70, 64
1, 25617, Note_on_c, 0, 55, 0
1, 25617, Note_on_c, 0, 51, 31
1, 25894, Note_on_c, 0, 51, 0
1, 25894, Note_on_c, 0, 70, 0
1, 25894, Note_on_c, 0, 70, 66
1, 25897, Note_on_c, 0, 41, 37
1, 25904, Control_c, 0, 64, 0
1, 25986, Control_c, 0, 64, 127
1, 26125, Note_on_c, 0, 58, 42
1, 26125, Note_on_c, 0, 50, 34
1, 26348, Note_on_c, 0, 50, 0
1, 26348, Note_on_c, 0, 58, 0
1, 26348, Note_on_c, 0, 62, 41
1, 26351, Note_on_c, 0, 53, 35
1, 26575, Note_on_c, 0, 62, 0
1, 26575, Note_on_c, 0, 70, 0
1, 26575, Note_on_c, 0, 65, 59
1, 26578, Note_on_c, 0, 41, 0
1, 26578, Note_on_c, 0, 53, 0
1, 26578, Note_on_c, 0, 58, 37
1, 26798, Note_on_c, 0, 58, 0
1, 26798, Note_on_c, 0, 62, 41
1, 26798, Note_on_c, 0, 53, 34
1, 27027, Note_on_c, 0, 53, 0
1, 27027, Note_on_c, 0, 62, 0
1, 27027, Note_on_c, 0, 58, 41
1, 27030, Note_on_c, 0, 50, 34
1, 27266, Note_on_c, 0, 58, 0
1, 27266, Note_on_c, 0, 65, 0
1, 27266, Note_on_c, 0, 65, 66
1, 27269, Note_on_c, 0, 50, 0
1, 27269, Note_on_c, 0, 41, 37
1, 27278, Control_c, 0, 64, 0
1, 27343, Control_c, 0, 64, 127
1, 27497, Note_on_c, 0, 57, 42
1, 27497, Note_on_c, 0, 51, 36
1, 27720, Note_on_c, 0, 51, 0
1, 27720, Note_on_c, 0, 57, 0
1, 27720, Note_on_c, 0, 60, 41
1, 27723, Note_on_c, 0, 53, 36
1, 27939, Note_on_c, 0, 60, 0
1, 27939, Note_on_c, 0, 65, 0
1, 27939, Note_on_c, 0, 65, 64
1, 27942, Note_on_c, 0, 41, 0
1, 27942, Note_on_c, 0, 53, 0
1, 27942, Note_on_c, 0, 57, 40
1, 28162, Note_on_c, 0, 57, 0
1, 28162, Note_on_c, 0, 60, 42
1, 28162, Note_on_c, 0, 53, 36
1, 28391, Note_on_c, 0, 53, 0
1, 28391, Note_on_c, 0, 60, 0
1, 28391, Note_on_c, 0, 57, 41
1, 28394, Note_on_c, 0, 51, 36
1, 28644, Note_on_c, 0, 57, 0
1, 28644, Note_on_c, 0, 65, 0
1, 28644, Note_on_c, 0, 72, 69
1, 28647, Note_on_c, 0, 51, 0
1, 28647, Note_on_c, 0, 46, 37
1, 28647, Control_c, 0, 64, 0
1, 28775, Control_c, 0, 64, 127
1, 28891, Note_on_c, 0, 62, 42
1, 28891, Note_on_c, 0, 53, 34
1, 29121, Note_on_c, 0, 53, 0
1, 29121, Note_on_c, 0, 62, 0
1, 29121, Note_on_c, 0, 63, 41
1, 29124, Note_on_c, 0, 55, 35
1, 29357, Note_on_c, 0, 55, 0
1, 29357, Note_on_c, 0, 63, 0
1, 29357, Note_on_c, 0, 65, 43
1, 29360, Note_on_c, 0, 56, 37
1, 29371, Control_c, 0, 64, 0
1, 29446, Control_c, 0, 64, 127
1, 29580, Note_on_c, 0, 56, 0
1, 29580, Note_on_c, 0, 65, 0
1, 29580, Note_on_c, 0, 62, 41
1, 29583, Note_on_c, 0, 53, 34
1, 29809, Note_on_c, 0, 53, 0
1, 29809, Note_on_c, 0, 62, 0
1, 29809, Note_on_c, 0, 63, 41
1, 29812, Note_on_c, 0, 55, 34
1, 30043, Note_on_c, 0, 63, 0
1, 30043, Note_on_c, 0, 72, 0
1, 30043, Note_on_c, 0, 70, 66
1, 30046, Note_on_c, 0, 55, 0
1, 30046, Note_on_c, 0, 65, 47
1, 30046, Note_on_c, 0, 56, 37
1, 30057, Control_c, 0, 64, 0
1, 30145, Control_c, 0, 64, 127
1, 30274, Note_on_c, 0, 56, 0
1, 30274, Note_on_c, 0, 65, 0
1, 30274, Note_on_c, 0, 62, 42
1, 30277, Note_on_c, 0, 53, 36
1, 30496, Note_on_c, 0, 53, 0
1, 30496, Note_on_c, 0, 62, 0
1, 30496, Note_on_c, 0, 63, 41
1, 30499, Note_on_c, 0, 55, 36
1, 30716, Note_on_c, 0, 55, 0
1, 30716, Note_on_c, 0, 63, 0
1, 30716, Note_on_c, 0, 65, 46
1, 30719, Note_on_c, 0, 56, 40
1, 30730, Control_c, 0, 64, 0
1, 30794, Control_c, 0, 64, 127
1, 30938, Note_on_c, 0, 56, 0
1, 30938, Note_on_c, 0, 65, 0
1, 30938, Note_on_c, 0, 68, 47
1, 30941, Note_on_c, 0, 53, 36
1, 31168, Note_on_c, 0, 53, 0
1, 31168, Note_on_c, 0, 68, 0
1, 31168, Note_on_c, 0, 67, 41
1, 31171, Note_on_c, 0, 51, 36
1, 31407, Note_on_c, 0, 67, 0
1, 31407, Note_on_c, 0, 70, 0
1, 31407, Note_on_c, 0, 65, 46
1, 31410, Note_on_c, 0, 51, 0
1, 31410, Note_on_c, 0, 50, 41
1, 31414, Control_c, 0, 64, 0
1, 31481, Control_c, 0, 64, 127
1, 31640, Note_on_c, 0, 50, 0
1, 31640, Note_on_c, 0, 65, 0
1, 31640, Note_on_c, 0, 68, 45
1, 31643, Note_on_c, 0, 53, 38
1, 31864, Note_on_c, 0, 53, 0
1, 31864, Note_on_c, 0, 68, 0
1, 31864, Note_on_c, 0, 67, 45
1, 31867, Note_on_c, 0, 58, 38
1, 32095, Note_on_c, 0, 58, 0
1, 32095, Note_on_c, 0, 67, 0
1, 32095, Note_on_c, 0, 65, 46
1, 32098, Note_on_c, 0, 46, 0
1, 32098, Note_on_c, 0, 56, 42
1, 32108, Control_c, 0, 64, 0
1, 32178, Control_c, 0, 64, 127
1, 32327, Note_on_c, 0, 56, 0
1, 32327, Note_on_c, 0, 65, 0
1, 32327, Note_on_c, 0, 63, 43
1, 32330, Note_on_c, 0, 55, 38
1, 32554, Note_on_c, 0, 55, 0
1, 32554, Note_on_c, 0, 63, 0
1, 32554, Note_on_c, 0, 62, 43
1, 32557, Note_on_c, 0, 53, 38
1, 32791, Note_on_c, 0, 53, 0
1, 32791, Note_on_c, 0, 62, 0
1, 32791, Note_on_c, 0, 60, 46
1, 32794, Note_on_c, 0, 51, 38
1, 32794, Control_c, 0, 64, 0
1, 33028, Note_on_c, 0, 51, 0
1, 33028, Note_on_c, 0, 60, 0
1, 33028, Note_on_c, 0, 58, 45
1, 33031, Note_on_c, 0, 50, 34
1, 33259, Note_on_c, 0, 50, 0
1, 33259, Note_on_c, 0, 58, 0
1, 33259, Note_on_c, 0, 57, 43
1, 33262, Note_on_c, 0, 51, 34
1, 33493, Note_on_c, 0, 57, 0
1, 33493, Note_on_c, 0, 58, 46
1, 33493, Note_on_c, 0, 56, 48
1, 33496, Note_on_c, 0, 51, 0
1, 33496, Note_on_c, 0, 53, 37
1, 33732, Note_on_c, 0, 53, 0
1, 33732, Note_on_c, 0, 56, 0
1, 33732, Note_on_c, 0, 55, 41
1, 33735, Note_on_c, 0, 51, 34
1, 33990, Note_on_c, 0, 51, 0
1, 33990, Note_on_c, 0, 55, 0
1, 33990, Note_on_c, 0, 56, 40
1, 33993, Note_on_c, 0, 50, 34
1, 34261, Note_on_c, 0, 56, 0
1, 34261, Note_on_c, 0, 58, 0
1, 34261, Note_on_c, 0, 67, 66
1, 34264, Note_on_c, 0, 50, 0
1, 34264, Note_on_c, 0, 39, 37
1, 34323, Control_c, 0, 64, 127
1, 34496, Note_on_c, 0, 55, 42
1, 34496, Note_on_c, 0, 46, 34
1, 34724, Note_on_c, 0, 46, 0
1, 34724, Note_on_c, 0, 55, 0
1, 34724, Note_on_c, 0, 58, 41
1, 34727, Note_on_c, 0, 51, 35
1, 34957, Note_on_c, 0, 51, 0
1, 34957, Note_on_c, 0, 58, 0
1, 34957, Note_on_c, 0, 63, 48
1, 34960, Note_on_c, 0, 39, 0
1, 34960, Note_on_c, 0, 55, 37
1, 35179, Note_on_c, 0, 55, 0
1, 35179, Note_on_c, 0, 63, 0
1, 35179, Note_on_c, 0, 58, 41
1, 35182, Note_on_c, 0, 51, 34
1, 35294, Note_on_c, 0, 67, 0
1, 35294, Note_on_c, 0, 68, 60
1, 35409, Note_on_c, 0, 51, 0
1, 35409, Note_on_c, 0, 58, 0
1, 35409, Note_on_c, 0, 55, 41
1, 35412, Note_on_c, 0, 46, 34
1, 35648, Note_on_c, 0, 55, 0
1, 35648, Note_on_c, 0, 68, 0
1, 35648, Note_on_c, 0, 70, 72
1, 35651, Note_on_c, 0, 46, 0
1, 35651, Note_on_c, 0, 39, 37
1, 35662, Control_c, 0, 64, 0
1, 35724, Control_c, 0, 64, 127
1, 35879, Note_on_c, 0, 55, 41
1, 35879, Note_on_c, 0, 46, 35
1, 36096, Note_on_c, 0, 46, 0
1, 36096, Note_on_c, 0, 55, 0
1, 36096, Note_on_c, 0, 58, 41
1, 36099, Note_on_c, 0, 51, 35
1, 36325, Note_on_c, 0, 58, 0
1, 36325, Note_on_c, 0, 70, 0
1, 36325, Note_on_c, 0, 63, 62
1, 36328, Note_on_c, 0, 39, 0
1, 36328, Note_on_c, 0, 51, 0
1, 36328, Note_on_c, 0, 55, 37
1, 36548, Note_on_c, 0, 55, 0
1, 36548, Note_on_c, 0, 58, 40
1, 36548, Note_on_c, 0, 51, 34
1, 36777, Note_on_c, 0, 51, 0
1, 36777, Note_on_c, 0, 58, 0
1, 36777, Note_on_c, 0, 55, 40
1, 36780, Note_on_c, 0, 46, 34
1, 37016, Note_on_c, 0, 55, 0
1, 37016, Note_on_c, 0, 63, 0
1, 37016, Note_on_c, 0, 68, 66
1, 37019, Note_on_c, 0, 46, 0
1, 37019, Note_on_c, 0, 34, 37
1, 37023, Control_c, 0, 64, 0
1, 37097, Control_c, 0, 64, 127
1, 37248, Note_on_c, 0, 56, 42
1, 37248, Note_on_c, 0, 46, 34
1, 37465, Note_on_c, 0, 46, 0
1, 37465, Note_on_c, 0, 56, 0
1, 37465, Note_on_c, 0, 58, 41
1, 37468, Note_on_c, 0, 50, 35
1, 37692, Note_on_c, 0, 58, 0
1, 37692, Note_on_c, 0, 68, 0
1, 37692, Note_on_c, 0, 62, 50
1, 37695, Note_on_c, 0, 34, 0
1, 37695, Note_on_c, 0, 50, 0
1, 37695, Note_on_c, 0, 53, 37
1, 37915, Note_on_c, 0, 53, 0
1, 37915, Note_on_c, 0, 58, 41
1, 37915, Note_on_c, 0, 50, 34
1, 38144, Note_on_c, 0, 50, 0
1, 38144, Note_on_c, 0, 58, 0
1, 38144, Note_on_c, 0, 56, 41
1, 38147, Note_on_c, 0, 46, 34
1, 38393, Note_on_c, 0, 56, 0
1, 38393, Note_on_c, 0, 62, 0
1, 38393, Note_on_c, 0, 63, 72
1, 38396, Note_on_c, 0, 46, 0
1, 38396, Note_on_c, 0, 36, 37
1, 38405, Control_c, 0, 64, 0
1, 38468, Control_c, 0, 64, 127
1, 38624, Note_on_c, 0, 51, 42
1, 38624, Note_on_c, 0, 43, 42
1, 38840, Note_on_c, 0, 43, 0
1, 38840, Note_on_c, 0, 51, 0
1, 38840, Note_on_c, 0, 55, 42
1, 38843, Note_on_c, 0, 48, 42
1, 39069, Note_on_c, 0, 48, 0
1, 39069, Note_on_c, 0, 55, 0
1, 39069, Note_on_c, 0, 36, 0
1, 39072, Note_on_c, 0, 60, 45
1, 39072, Note_on_c, 0, 51, 45
1, 39292, Note_on_c, 0, 51, 0
1, 39292, Note_on_c, 0, 60, 0
1, 39292, Note_on_c, 0, 55, 39
1, 39295, Note_on_c, 0, 48, 39
1, 39407, Note_on_c, 0, 63, 0
1, 39407, Note_on_c, 0, 62, 68
1, 39521, Note_on_c, 0, 48, 0
1, 39521, Note_on_c, 0, 55, 0
1, 39521, Note_on_c, 0, 51, 40
1, 39524, Note_on_c, 0, 43, 40
1, 39760, Note_on_c, 0, 43, 0
1, 39760, Note_on_c, 0, 62, 0
1, 39760, Note_on_c, 0, 60, 74
1, 39763, Note_on_c, 0, 51, 0
1, 39763, Note_on_c, 0, 34, 42
1, 39773, Control_c, 0, 64, 0
1, 39821, Control_c, 0, 64, 127
1, 39991, Note_on_c, 0, 44, 38
1, 40214, Note_on_c, 0, 44, 0
1, 40214, Note_on_c, 0, 48, 38
1, 40442, Note_on_c, 0, 48, 0
1, 40442, Note_on_c, 0, 34, 0
1, 40442, Note_on_c, 0, 53, 45
1, 40664, Note_on_c, 0, 53, 0
1, 40664, Note_on_c, 0, 48, 37
1, 40779, Note_on_c, 0, 60, 0
1, 40779, Note_on_c, 0, 65, 69
1, 40894, Note_on_c, 0, 48, 0
1, 40894, Note_on_c, 0, 44, 37
1, 41133, Note_on_c, 0, 65, 0
1, 41133, Note_on_c, 0, 68, 73
1, 41133, Note_on_c, 0, 32, 41
1, 41364, Note_on_c, 0, 48, 41
1, 41586, Note_on_c, 0, 48, 0
1, 41586, Note_on_c, 0, 53, 42
1, 41816, Note_on_c, 0, 53, 0
1, 41816, Note_on_c, 0, 32, 0
1, 41816, Note_on_c, 0, 44, 0
1, 41819, Note_on_c, 0, 56, 46
1, 42038, Note_on_c, 0, 56, 0
1, 42038, Note_on_c, 0, 53, 42
1, 42153, Note_on_c, 0, 68, 0
1, 42153, Note_on_c, 0, 65, 76
1, 42268, Note_on_c, 0, 53, 0
1, 42268, Note_on_c, 0, 48, 42
1, 42507, Note_on_c, 0, 48, 0
1, 42507, Note_on_c, 0, 65, 0
1, 42507, Note_on_c, 0, 75, 87
1, 42510, Note_on_c, 0, 34, 39
1, 42510, Note_on_c, 0, 46, 39
1, 42520, Control_c, 0, 64, 0
1, 42590, Control_c, 0, 64, 127
1, 42745, Note_on_c, 0, 53, 41
1, 42975, Note_on_c, 0, 53, 0
1, 42975, Note_on_c, 0, 56, 38
1, 43210, Note_on_c, 0, 75, 0
1, 43210, Note_on_c, 0, 74, 80
1, 43210, Note_on_c, 0, 68, 46
1, 43213, Note_on_c, 0, 34, 0
1, 43213, Note_on_c, 0, 56, 0
1, 43213, Note_on_c, 0, 46, 0
1, 43216, Note_on_c, 0, 58, 42
1, 43445, Note_on_c, 0, 58, 0
1, 43445, Note_on_c, 0, 68, 0
1, 43445, Note_on_c, 0, 65, 46
1, 43448, Note_on_c, 0, 56, 38
1, 43680, Note_on_c, 0, 56, 0
1, 43680, Note_on_c, 0, 65, 0
1, 43680, Note_on_c, 0, 62, 41
1, 43683, Note_on_c, 0, 53, 37
1, 43906, Note_on_c, 0, 53, 0
1, 43906, Note_on_c, 0, 62, 0
1, 43906, Note_on_c, 0, 68, 43
1, 43909, Note_on_c, 0, 58, 37
1, 44144, Note_on_c, 0, 58, 0
1, 44144, Note_on_c, 0, 68, 0
1, 44144, Note_on_c, 0, 65, 39
1, 44147, Note_on_c, 0, 56, 33
1, 44266, Note_on_c, 0, 74, 0
1, 44266, Note_on_c, 0, 72, 63
1, 44390, Note_on_c, 0, 56, 0
1, 44390, Note_on_c, 0, 65, 0
1, 44390, Note_on_c, 0, 62, 39
1, 44393, Note_on_c, 0, 53, 33
1, 44644, Note_on_c, 0, 62, 0
1, 44644, Note_on_c, 0, 72, 0
1, 44644, Note_on_c, 0, 70, 61
1, 44647, Note_on_c, 0, 53, 0
1, 44647, Note_on_c, 0, 68, 37
1, 44647, Note_on_c, 0, 58, 33
1, 44904, Note_on_c, 0, 58, 0
1, 44904, Note_on_c, 0, 68, 0
1, 44904, Note_on_c, 0, 65, 37
1, 44907, Note_on_c, 0, 56, 28
1, 45033, Note_on_c, 0, 70, 0
1, 45033, Note_on_c, 0, 68, 59
1, 45163, Note_on_c, 0, 56, 0
1, 45163, Note_on_c, 0, 65, 0
1, 45163, Note_on_c, 0, 62, 33
1, 45166, Note_on_c, 0, 53, 28
1, 45469, Note_on_c, 0, 62, 0
1, 45469, Note_on_c, 0, 68, 0
1, 45469, Note_on_c, 0, 67, 62
1, 45472, Note_on_c, 0, 53, 0
1, 45472, Note_on_c, 0, 39, 37
1, 45481, Control_c, 0, 64, 0
1, 45585, Control_c, 0, 64, 127
1, 45700, Note_on_c, 0, 55, 42
1, 45700, Note_on_c, 0, 46, 34
1, 45923, Note_on_c, 0, 46, 0
1, 45923, Note_on_c, 0, 55, 0
1, 45923, Note_on_c, 0, 58, 41
1, 45926, Note_on_c, 0, 51, 35
1, 46150, Note_on_c, 0, 51, 0
1, 46150, Note_on_c, 0, 58, 0
1, 46150, Note_on_c, 0, 63, 48
1, 46153, Note_on_c, 0, 39, 0
1, 46153, Note_on_c, 0, 55, 37
1, 46373, Note_on_c, 0, 55, 0
1, 46373, Note_on_c, 0, 63, 0
1, 46373, Note_on_c, 0, 58, 41
1, 46376, Note_on_c, 0, 51, 34
1, 46488, Note_on_c, 0, 67, 0
1, 46488, Note_on_c, 0, 68, 61
1, 46603, Note_on_c, 0, 51, 0
1, 46603, Note_on_c, 0, 58, 0
1, 46603, Note_on_c, 0, 55, 41
1, 46606, Note_on_c, 0, 46, 34
1, 46841, Note_on_c, 0, 55, 0
1, 46841, Note_on_c, 0, 68, 0
1, 46841, Note_on_c, 0, 70, 72
1, 46844, Note_on_c, 0, 46, 0
1, 46844, Note_on_c, 0, 39, 37
1, 46854, Control_c, 0, 64, 0
1, 46918, Control_c, 0, 64, 127
1, 47073, Note_on_c, 0, 55, 41
1, 47073, Note_on_c, 0, 46, 35
1, 47291, Note_on_c, 0, 46, 0
1, 47291, Note_on_c, 0, 55, 0
1, 47291, Note_on_c, 0, 58, 41
1, 47294, Note_on_c, 0, 51, 35
1, 47521, Note_on_c, 0, 58, 0
1, 47521, Note_on_c, 0, 70, 0
1, 47521, Note_on_c, 0, 63, 62
1, 47524, Note_on_c, 0, 39, 0
1, 47524, Note_on_c, 0, 51, 0
1, 47524, Note_on_c, 0, 55, 37
1, 47743, Note_on_c, 0, 55, 0
1, 47743, Note_on_c, 0, 58, 40
1, 47743, Note_on_c, 0, 51, 34
1, 47973, Note_on_c, 0, 51, 0
1, 47973, Note_on_c, 0, 58, 0
1, 47973, Note_on_c, 0, 55, 40
1, 47976, Note_on_c, 0, 46, 34
1, 48212, Note_on_c, 0, 55, 0
1, 48212, Note_on_c, 0, 63, 0
1, 48212, Note_on_c, 0, 68, 66
1, 48215, Note_on_c, 0, 46, 0
1, 48215, Note_on_c, 0, 34, 37
1, 48226, Control_c, 0, 64, 0
1, 48304, Control_c, 0, 64, 127
1, 48443, Note_on_c, 0, 56, 42
1, 48443, Note_on_c, 0, 46, 34
1, 48665, Note_on_c, 0, 46, 0
1, 48665, Note_on_c, 0, 56, 0
1, 48665, Note_on_c, 0, 58, 41
1, 48668, Note_on_c, 0, 50, 35
1, 48893, Note_on_c, 0, 58, 0
1, 48893, Note_on_c, 0, 68, 0
1, 48893, Note_on_c, 0, 62, 52
1, 48896, Note_on_c, 0, 34, 0
1, 48896, Note_on_c, 0, 50, 0
1, 48896, Note_on_c, 0, 53, 37
1, 49116, Note_on_c, 0, 53, 0
1, 49116, Note_on_c, 0, 58, 41
1, 49116, Note_on_c, 0, 50, 34
1, 49345, Note_on_c, 0, 50, 0
1, 49345, Note_on_c, 0, 58, 0
1, 49345, Note_on_c, 0, 56, 41
1, 49348, Note_on_c, 0, 46, 34
1, 49584, Note_on_c, 0, 56, 0
1, 49584, Note_on_c, 0, 62, 0
1, 49584, Note_on_c, 0, 63, 72
1, 49587, Note_on_c, 0, 46, 0
1, 49587, Note_on_c, 0, 36, 37
1, 49598, Control_c, 0, 64, 0
1, 49661, Control_c, 0, 64, 127
1, 49815, Note_on_c, 0, 51, 42
1, 49815, Note_on_c, 0, 43, 42
1, 50038, Note_on_c, 0, 43, 0
1, 50038, Note_on_c, 0, 51, 0
1, 50038, Note_on_c, 0, 55, 42
1, 50041, Note_on_c, 0, 48, 42
1, 50267, Note_on_c, 0, 48, 0
1, 50267, Note_on_c, 0, 55, 0
1, 50267, Note_on_c, 0, 36, 0
1, 50270, Note_on_c, 0, 60, 45
1, 50270, Note_on_c, 0, 51, 45
1, 50496, Note_on_c, 0, 51, 0
1, 50496, Note_on_c, 0, 60, 0
1, 50496, Note_on_c, 0, 55, 39
1, 50499, Note_on_c, 0, 48, 39
1, 50615, Note_on_c, 0, 63, 0
1, 50615, Note_on_c, 0, 63, 68
1, 50734, Note_on_c, 0, 48, 0
1, 50734, Note_on_c, 0, 55, 0
1, 50734, Note_on_c, 0, 51, 40
1, 50737, Note_on_c, 0, 43, 40
1, 50972, Note_on_c, 0, 43, 0
1, 50972, Note_on_c, 0, 63, 0
1, 50972, Note_on_c, 0, 65, 74
1, 50975, Note_on_c, 0, 51, 0
1, 50975, Note_on_c, 0, 36, 39
1, 50985, Control_c, 0, 64, 0
1, 51079, Control_c, 0, 64, 127
1, 51204, Note_on_c, 0, 43, 36
1, 51204, Note_on_c, 0, 53, 36
1, 51426, Note_on_c, 0, 53, 0
1, 51426, Note_on_c, 0, 43, 0
1, 51426, Note_on_c, 0, 50, 36
1, 51429, Note_on_c, 0, 55, 36
1, 51654, Note_on_c, 0, 55, 0
1, 51654, Note_on_c, 0, 50, 0
1, 51654, Note_on_c, 0, 36, 0
1, 51657, Note_on_c, 0, 53, 39
1, 51657, Note_on_c, 0, 59, 39
1, 51876, Note_on_c, 0, 59, 0
1, 51876, Note_on_c, 0, 65, 0
1, 51876, Note_on_c, 0, 63, 70
1, 51879, Note_on_c, 0, 53, 0
1, 51879, Note_on_c, 0, 50, 36
1, 51879, Note_on_c, 0, 55, 36
1, 52106, Note_on_c, 0, 55, 0
1, 52106, Note_on_c, 0, 63, 0
1, 52106, Note_on_c, 0, 62, 68
1, 52109, Note_on_c, 0, 50, 0
1, 52109, Note_on_c, 0, 53, 39
1, 52109, Note_on_c, 0, 43, 36
1, 52345, Note_on_c, 0, 43, 0
1, 52345, Note_on_c, 0, 62, 0
1, 52345, Note_on_c, 0, 60, 73
1, 52348, Note_on_c, 0, 53, 0
1, 52348, Note_on_c, 0, 36, 37
1, 52358, Control_c, 0, 64, 0
1, 52421, Control_c, 0, 64, 127
1, 52576, Note_on_c, 0, 43, 41
1, 52687, Note_on_c, 0, 60, 0
1, 52687, Note_on_c, 0, 63, 70
1, 52799, Note_on_c, 0, 43, 0
1, 52799, Note_on_c, 0, 48, 42
1, 53028, Note_on_c, 0, 48, 0
1, 53028, Note_on_c, 0, 63, 0
1, 53028, Note_on_c, 0, 67, 76
1, 53031, Note_on_c, 0, 36, 0
1, 53031, Note_on_c, 0, 51, 47
1, 53259, Note_on_c, 0, 51, 0
1, 53259, Note_on_c, 0, 48, 45
1, 53377, Note_on_c, 0, 67, 0
1, 53377, Note_on_c, 0, 72, 82
1, 53496, Note_on_c, 0, 48, 0
1, 53496, Note_on_c, 0, 43, 45
1, 53744, Note_on_c, 0, 43, 0
1, 53744, Note_on_c, 0, 72, 0
1, 53744, Note_on_c, 0, 77, 87
1, 53747, Note_on_c, 0, 36, 47
1, 53757, Control_c, 0, 64, 0
1, 53817, Control_c, 0, 64, 127
1, 53981, Note_on_c, 0, 65, 55
1, 53981, Note_on_c, 0, 50, 41
1, 54211, Note_on_c, 0, 50, 0
1, 54211, Note_on_c, 0, 65, 0
1, 54211, Note_on_c, 0, 67, 55
1, 54214, Note_on_c, 0, 55, 38
1, 54446, Note_on_c, 0, 55, 0
1, 54446, Note_on_c, 0, 67, 0
1, 54446, Note_on_c, 0, 71, 46
1, 54449, Note_on_c, 0, 36, 0
1, 54449, Note_on_c, 0, 62, 42
1, 54681, Note_on_c, 0, 71, 0
1, 54681, Note_on_c, 0, 77, 0
1, 54681, Note_on_c, 0, 75, 75
1, 54684, Note_on_c, 0, 62, 0
1, 54684, Note_on_c, 0, 67, 55
1, 54684, Note_on_c, 0, 55, 38
1, 54916, Note_on_c, 0, 67, 0
1, 54916, Note_on_c, 0, 75, 0
1, 54916, Note_on_c, 0, 74, 72
1, 54919, Note_on_c, 0, 55, 0
1, 54919, Note_on_c, 0, 65, 54
1, 54919, Note_on_c, 0, 50, 37
1, 55142, Note_on_c, 0, 65, 0
1, 55142, Note_on_c, 0, 74, 0
1, 55142, Note_on_c, 0, 72, 73
1, 55145, Note_on_c, 0, 50, 0
1, 55145, Note_on_c, 0, 36, 39
1, 55154, Control_c, 0, 64, 0
1, 55269, Control_c, 0, 64, 127
1, 55382, Note_on_c, 0, 51, 34
1, 55505, Note_on_c, 0, 72, 0
1, 55505, Note_on_c, 0, 67, 63
1, 55630, Note_on_c, 0, 51, 0
1, 55630, Note_on_c, 0, 55, 34
1, 55886, Note_on_c, 0, 55, 0
1, 55886, Note_on_c, 0, 67, 0
1, 55886, Note_on_c, 0, 69, 68
1, 55889, Note_on_c, 0, 36, 0
1, 55889, Note_on_c, 0, 60, 35
1, 56148, Note_on_c, 0, 60, 0
1, 56148, Note_on_c, 0, 55, 31
1, 56279, Note_on_c, 0, 69, 0
1, 56279, Note_on_c, 0, 70, 62
1, 56410, Note_on_c, 0, 55, 0
1, 56410, Note_on_c, 0, 51, 31
1, 56695, Note_on_c, 0, 51, 0
1, 56695, Note_on_c, 0, 70, 0
1, 56695, Note_on_c, 0, 70, 66
1, 56698, Note_on_c, 0, 41, 37
1, 56705, Control_c, 0, 64, 0
1, 56787, Control_c, 0, 64, 127
1, 56926, Note_on_c, 0, 58, 42
1, 56926, Note_on_c, 0, 50, 34
1, 57149, Note_on_c, 0, 50, 0
1, 57149, Note_on_c, 0, 58, 0
1, 57149, Note_on_c, 0, 62, 41
1, 57152, Note_on_c, 0, 53, 35
1, 57376, Note_on_c, 0, 62, 0
1, 57376, Note_on_c, 0, 70, 0
1, 57376, Note_on_c, 0, 65, 59
1, 57379, Note_on_c, 0, 41, 0
1, 57379, Note_on_c, 0, 53, 0
1, 57379, Note_on_c, 0, 58, 37
1, 57599, Note_on_c, 0, 58, 0
1, 57599, Note_on_c, 0, 62, 41
1, 57599, Note_on_c, 0, 53, 34
1, 57828, Note_on_c, 0, 53, 0
1, 57828, Note_on_c, 0, 62, 0
1, 57828, Note_on_c, 0, 58, 41
1, 57831, Note_on_c, 0, 50, 34
1, 58067, Note_on_c, 0, 58, 0
1, 58067, Note_on_c, 0, 65, 0
1, 58067, Note_on_c, 0, 65, 66
1, 58070, Note_on_c, 0, 50, 0
1, 58070, Note_on_c, 0, 41, 37
1, 58076, Control_c, 0, 64, 0
1, 58113, Control_c, 0, 64, 127
1, 58298, Note_on_c, 0, 57, 42
1, 58298, Note_on_c, 0, 51, 36
1, 58521, Note_on_c, 0, 51, 0
1, 58521, Note_on_c, 0, 57, 0
1, 58521, Note_on_c, 0, 60, 41
1, 58524, Note_on_c, 0, 53, 36
1, 58740, Note_on_c, 0, 60, 0
1, 58740, Note_on_c, 0, 65, 0
1, 58740, Note_on_c, 0, 65, 64
1, 58743, Note_on_c, 0, 41, 0
1, 58743, Note_on_c, 0, 53, 0
1, 58743, Note_on_c, 0, 57, 40
1, 58963, Note_on_c, 0, 57, 0
1, 58963, Note_on_c, 0, 60, 42
1, 58963, Note_on_c, 0, 53, 36
1, 59192, Note_on_c, 0, 53, 0
1, 59192, Note_on_c, 0, 60, 0
1, 59192, Note_on_c, 0, 57, 41
1, 59195, Note_on_c, 0, 51, 36
1, 59453, Note_on_c, 0, 57, 0
1, 59453, Note_on_c, 0, 65, 0
1, 59453, Note_on_c, 0, 72, 69
1, 59456, Note_on_c, 0, 51, 0
1, 59456, Note_on_c, 0, 46, 37
1, 59468, Control_c, 0, 64, 0
1, 59560, Control_c, 0, 64, 127
1, 59693, Note_on_c, 0, 62, 42
1, 59693, Note_on_c, 0, 53, 34
1, 59916, Note_on_c, 0, 53, 0
1, 59916, Note_on_c, 0, 62, 0
1, 59916, Note_on_c, 0, 63, 41
1, 59919, Note_on_c, 0, 55, 35
1, 60144, Note_on_c, 0, 55, 0
1, 60144, Note_on_c, 0, 63, 0
1, 60144, Note_on_c, 0, 65, 43
1, 60147, Note_on_c, 0, 56, 37
1, 60156, Control_c, 0, 64, 0
1, 60242, Control_c, 0, 64, 127
1, 60366, Note_on_c, 0, 56, 0
1, 60366, Note_on_c, 0, 65, 0
1, 60366, Note_on_c, 0, 62, 41
1, 60369, Note_on_c, 0, 53, 34
1, 60596, Note_on_c, 0, 53, 0
1, 60596, Note_on_c, 0, 62, 0
1, 60596, Note_on_c, 0, 63, 41
1, 60599, Note_on_c, 0, 55, 34
1, 60829, Note_on_c, 0, 63, 0
1, 60829, Note_on_c, 0, 72, 0
1, 60829, Note_on_c, 0, 70, 66
1, 60832, Note_on_c, 0, 55, 0
1, 60832, Note_on_c, 0, 65, 47
1, 60832, Note_on_c, 0, 56, 37
1, 60843, Control_c, 0, 64, 0
1, 60910, Control_c, 0, 64, 127
1, 61060, Note_on_c, 0, 56, 0
1, 61060, Note_on_c, 0, 65, 0
1, 61060, Note_on_c, 0, 62, 42
1, 61063, Note_on_c, 0, 53, 36
1, 61283, Note_on_c, 0, 53, 0
1, 61283, Note_on_c, 0, 62, 0
1, 61283, Note_on_c, 0, 63, 41
1, 61286, Note_on_c, 0, 55, 36
1, 61502, Note_on_c, 0, 55, 0
1, 61502, Note_on_c, 0, 63, 0
1, 61502, Note_on_c, 0, 65, 46
1, 61505, Note_on_c, 0, 56, 40
1, 61516, Control_c, 0, 64, 0
1, 61570, Control_c, 0, 64, 127
1, 61725, Note_on_c, 0, 56, 0
1, 61725, Note_on_c, 0, 65, 0
1, 61725, Note_on_c, 0, 68, 47
1, 61728, Note_on_c, 0, 53, 36
1, 61954, Note_on_c, 0, 53, 0
1, 61954, Note_on_c, 0, 68, 0
1, 61954, Note_on_c, 0, 67, 41
1, 61957, Note_on_c, 0, 51, 36
1, 62193, Note_on_c, 0, 67, 0
1, 62193, Note_on_c, 0, 70, 0
1, 62193, Note_on_c, 0, 65, 46
1, 62196, Note_on_c, 0, 51, 0
1, 62196, Note_on_c, 0, 50, 41
1, 62199, Control_c, 0, 64, 0
1, 62260, Control_c, 0, 64, 127
1, 62426, Note_on_c, 0, 50, 0
1, 62426, Note_on_c, 0, 65, 0
1, 62426, Note_on_c, 0, 68, 45
1, 62429, Note_on_c, 0, 53, 38
1, 62650, Note_on_c, 0, 53, 0
1, 62650, Note_on_c, 0, 68, 0
1, 62650, Note_on_c, 0, 67, 45
1, 62653, Note_on_c, 0, 58, 38
1, 62881, Note_on_c, 0, 58, 0
1, 62881, Note_on_c, 0, 67, 0
1, 62881, Note_on_c, 0, 65, 46
1, 62884, Note_on_c, 0, 46, 0
1, 62884, Note_on_c, 0, 56, 42
1, 62896, Control_c, 0, 64, 0
1, 62955, Control_c, 0, 64, 127
1, 63113, Note_on_c, 0, 56, 0
1, 63113, Note_on_c, 0, 65, 0
1, 63113, Note_on_c, 0, 63, 43
1, 63116, Note_on_c, 0, 55, 38
1, 63340, Note_on_c, 0, 55, 0
1, 63340, Note_on_c, 0, 63, 0
1, 63340, Note_on_c, 0, 62, 43
1, 63343, Note_on_c, 0, 53, 38
1, 63577, Note_on_c, 0, 53, 0
1, 63577, Note_on_c, 0, 62, 0
1, 63577, Note_on_c, 0, 60, 46
1, 63580, Note_on_c, 0, 51, 38
1, 63586, Control_c, 0, 64, 0
1, 63822, Note_on_c, 0, 51, 0
1, 63822, Note_on_c, 0, 60, 0
1, 63822, Note_on_c, 0, 58, 45
1, 63825, Note_on_c, 0, 50, 34
1, 64060, Note_on_c, 0, 50, 0
1, 64060, Note_on_c, 0, 58, 0
1, 64060, Note_on_c, 0, 57, 43
1, 64063, Note_on_c, 0, 51, 34
1, 64310, Note_on_c, 0, 51, 0
1, 64310, Note_on_c, 0, 57, 0
1, 64310, Note_on_c, 0, 58, 48
1, 64313, Note_on_c, 0, 50, 37
1, 64579, Note_on_c, 0, 58, 0
1, 64579, Note_on_c, 0, 66, 56
1, 64579, Note_on_c, 0, 63, 51
1, 64582, Note_on_c, 0, 50, 0
1, 64582, Note_on_c, 0, 46, 35
1, 64680, Control_c, 0, 64, 127
1, 64813, Note_on_c, 0, 63, 0
1, 64813, Note_on_c, 0, 66, 0
1, 64813, Note_on_c, 0, 68, 60
1, 64816, Note_on_c, 0, 46, 0
1, 64816, Note_on_c, 0, 65, 55
1, 64816, Note_on_c, 0, 44, 35
1, 65054, Note_on_c, 0, 65, 0
1, 65054, Note_on_c, 0, 68, 0
1, 65054, Note_on_c, 0, 70, 67
1, 65057, Note_on_c, 0, 44, 0
1, 65057, Note_on_c, 0, 66, 61
1, 65057, Note_on_c, 0, 30, 42
1, 65060, Note_on_c, 0, 42, 42
1, 65069, Control_c, 0, 64, 0
1, 65163, Control_c, 0, 64, 127
1, 65289, Note_on_c, 0, 66, 0
1, 65289, Note_on_c, 0, 58, 47
1, 65519, Note_on_c, 0, 58, 0
1, 65519, Note_on_c, 0, 63, 47
1, 65754, Note_on_c, 0, 63, 0
1, 65754, Note_on_c, 0, 70, 0
1, 65754, Note_on_c, 0, 71, 79
1, 65757, Note_on_c, 0, 30, 0
1, 65757, Note_on_c, 0, 42, 0
1, 65757, Note_on_c, 0, 32, 42
1, 65760, Note_on_c, 0, 44, 42
1, 65760, Control_c, 0, 64, 0
1, 65854, Control_c, 0, 64, 127
1, 65980, Note_on_c, 0, 63, 46
1, 66209, Note_on_c, 0, 63, 0
1, 66209, Note_on_c, 0, 59, 45
1, 66268, Note_on_c, 0, 71, 0
1, 66268, Note_on_c, 0, 68, 64
1, 66445, Note_on_c, 0, 68, 0
1, 66445, Note_on_c, 0, 59, 0
1, 66445, Note_on_c, 0, 65, 62
1, 66448, Note_on_c, 0, 44, 0
1, 66448, Note_on_c, 0, 32, 0
1, 66448, Note_on_c, 0, 62, 56
1, 66451, Note_on_c, 0, 34, 42
1, 66451, Note_on_c, 0, 46, 42
1, 66459, Control_c, 0, 64, 0
1, 66540, Control_c, 0, 64, 127
1, 66675, Note_on_c, 0, 62, 0
1, 66675, Note_on_c, 0, 53, 47
1, 66904, Note_on_c, 0, 53, 0
1, 66904, Note_on_c, 0, 58, 46
1, 67128, Note_on_c, 0, 58, 0
1, 67128, Note_on_c, 0, 62, 51
1, 67316, Control_c, 0, 64, 0
1, 67353, Note_on_c, 0, 62, 0
1, 67353, Note_on_c, 0, 65, 0
1, 67353, Note_on_c, 0, 66, 64
1, 67356, Note_on_c, 0, 63, 58
1, 67525, Note_on_c, 0, 63, 0
1, 67525, Note_on_c, 0, 66, 0
1, 67582, Note_on_c, 0, 68, 69
1, 67582, Note_on_c, 0, 65, 63
1, 67754, Note_on_c, 0, 65, 0
1, 67754, Note_on_c, 0, 68, 0
1, 67812, Note_on_c, 0, 46, 0
1, 67812, Note_on_c, 0, 70, 80
1, 67812, Note_on_c, 0, 66, 72
1, 67815, Note_on_c, 0, 34, 0
1, 67815, Note_on_c, 0, 34, 56
1, 67815, Note_on_c, 0, 46, 63
1, 67884, Control_c, 0, 64, 127
1, 68047, Note_on_c, 0, 66, 0
1, 68047, Note_on_c, 0, 63, 59
1, 68276, Note_on_c, 0, 63, 0
1, 68276, Note_on_c, 0, 66, 64
1, 68525, Note_on_c, 0, 66, 0
1, 68525, Note_on_c, 0, 70, 0
1, 68525, Note_on_c, 0, 75, 87
1, 68528, Note_on_c, 0, 34, 0
1, 68528, Note_on_c, 0, 46, 0
1, 68528, Note_on_c, 0, 71, 76
1, 68531, Note_on_c, 0, 35, 55
1, 68531, Note_on_c, 0, 47, 60
1, 68535, Control_c, 0, 64, 0
1, 68625, Control_c, 0, 64, 127
1, 68751, Note_on_c, 0, 71, 0
1, 68751, Note_on_c, 0, 68, 55
1, 68980, Note_on_c, 0, 68, 0
1, 68980, Note_on_c, 0, 63, 48
1, 69039, Note_on_c, 0, 75, 0
1, 69039, Note_on_c, 0, 71, 69
1, 69216, Note_on_c, 0, 71, 0
1, 69216, Note_on_c, 0, 63, 0
1, 69216, Note_on_c, 0, 68, 67
1, 69219, Note_on_c, 0, 35, 0
1, 69219, Note_on_c, 0, 47, 0
1, 69219, Note_on_c, 0, 65, 61
1, 69222, Note_on_c, 0, 37, 52
1, 69222, Note_on_c, 0, 49, 56
1, 69229, Control_c, 0, 64, 0
1, 69311, Control_c, 0, 64, 127
1, 69446, Note_on_c, 0, 65, 0
1, 69446, Note_on_c, 0, 59, 51
1, 69675, Note_on_c, 0, 59, 0
1, 69675, Note_on_c, 0, 61, 49
1, 69900, Note_on_c, 0, 61, 0
1, 69900, Note_on_c, 0, 65, 55
1, 70088, Control_c, 0, 64, 0
1, 70124, Note_on_c, 0, 65, 0
1, 70124, Note_on_c, 0, 68, 0
1, 70124, Note_on_c, 0, 66, 59
1, 70127, Note_on_c, 0, 63, 54
1, 70296, Note_on_c, 0, 63, 0
1, 70296, Note_on_c, 0, 66, 0
1, 70353, Note_on_c, 0, 68, 60
1, 70353, Note_on_c, 0, 65, 55
1, 70526, Note_on_c, 0, 65, 0
1, 70526, Note_on_c, 0, 68, 0
1, 70583, Note_on_c, 0, 49, 0
1, 70583, Note_on_c, 0, 70, 67
1, 70583, Note_on_c, 0, 66, 61
1, 70586, Note_on_c, 0, 37, 0
1, 70586, Note_on_c, 0, 30, 42
1, 70586, Note_on_c, 0, 42, 42
1, 70630, Control_c, 0, 64, 127
1, 70818, Note_on_c, 0, 66, 0
1, 70818, Note_on_c, 0, 58, 47
1, 71047, Note_on_c, 0, 58, 0
1, 71047, Note_on_c, 0, 61, 47
1, 71282, Note_on_c, 0, 61, 0
1, 71282, Note_on_c, 0, 70, 0
1, 71282, Note_on_c, 0, 71, 79
1, 71285, Note_on_c, 0, 30, 0
1, 71285, Note_on_c, 0, 42, 0
1, 71285, Note_on_c, 0, 32, 42
1, 71288, Note_on_c, 0, 44, 42
1, 71288, Control_c, 0, 64, 0
1, 71383, Control_c, 0, 64, 127
1, 71508, Note_on_c, 0, 65, 46
1, 71738, Note_on_c, 0, 65, 0
1, 71738, Note_on_c, 0, 59, 45
1, 71796, Note_on_c, 0, 71, 0
1, 71796, Note_on_c, 0, 68, 64
1, 71974, Note_on_c, 0, 68, 0
1, 71974, Note_on_c, 0, 59, 0
1, 71974, Note_on_c, 0, 65, 62
1, 71977, Note_on_c, 0, 44, 0
1, 71977, Note_on_c, 0, 32, 0
1, 71977, Note_on_c, 0, 62, 56
1, 71980, Note_on_c, 0, 34, 42
1, 71980, Note_on_c, 0, 46, 42
1, 71988, Control_c, 0, 64, 0
1, 72069, Control_c, 0, 64, 127
1, 72203, Note_on_c, 0, 62, 0
1, 72203, Note_on_c, 0, 53, 47
1, 72433, Note_on_c, 0, 53, 0
1, 72433, Note_on_c, 0, 58, 46
1, 72657, Note_on_c, 0, 58, 0
1, 72657, Note_on_c, 0, 62, 51
1, 72845, Control_c, 0, 64, 0
1, 72881, Note_on_c, 0, 62, 0
1, 72881, Note_on_c, 0, 65, 0
1, 72881, Note_on_c, 0, 66, 69
1, 72884, Note_on_c, 0, 63, 63
1, 73054, Note_on_c, 0, 63, 0
1, 73054, Note_on_c, 0, 66, 0
1, 73111, Note_on_c, 0, 68, 75
1, 73111, Note_on_c, 0, 65, 68
1, 73283, Note_on_c, 0, 65, 0
1, 73283, Note_on_c, 0, 68, 0
1, 73340, Note_on_c, 0, 46, 0
1, 73340, Note_on_c, 0, 70, 84
1, 73340, Note_on_c, 0, 66, 70
1, 73343, Note_on_c, 0, 34, 0
1, 73343, Note_on_c, 0, 34, 60
1, 73343, Note_on_c, 0, 46, 66
1, 73398, Control_c, 0, 64, 127
1, 73575, Note_on_c, 0, 66, 0
1, 73575, Note_on_c, 0, 63, 62
1, 73805, Note_on_c, 0, 63, 0
1, 73805, Note_on_c, 0, 66, 72
1, 74054, Note_on_c, 0, 66, 0
1, 74054, Note_on_c, 0, 70, 0
1, 74054, Note_on_c, 0, 75, 92
1, 74057, Note_on_c, 0, 34, 0
1, 74057, Note_on_c, 0, 46, 0
1, 74057, Note_on_c, 0, 71, 76
1, 74060, Note_on_c, 0, 35, 60
1, 74060, Note_on_c, 0, 47, 66
1, 74060, Control_c, 0, 64, 0
1, 74154, Control_c, 0, 64, 127
1, 74280, Note_on_c, 0, 71, 0
1, 74280, Note_on_c, 0, 68, 55
1, 74509, Note_on_c, 0, 68, 0
1, 74509, Note_on_c, 0, 63, 48
1, 74567, Note_on_c, 0, 75, 0
1, 74567, Note_on_c, 0, 71, 69
1, 74745, Note_on_c, 0, 71, 0
1, 74745, Note_on_c, 0, 63, 0
1, 74745, Note_on_c, 0, 68, 80
1, 74748, Note_on_c, 0, 35, 0
1, 74748, Note_on_c, 0, 47, 0
1, 74748, Note_on_c, 0, 65, 66
1, 74751, Note_on_c, 0, 37, 56
1, 74751, Note_on_c, 0, 49, 63
1, 74759, Control_c, 0, 64, 0
1, 74840, Control_c, 0, 64, 127
1, 74975, Note_on_c, 0, 65, 0
1, 74975, Note_on_c, 0, 59, 62
1, 75204, Note_on_c, 0, 59, 0
1, 75204, Note_on_c, 0, 61, 62
1, 75428, Note_on_c, 0, 61, 0
1, 75428, Note_on_c, 0, 65, 69
1, 75616, Control_c, 0, 64, 0
1, 75653, Note_on_c, 0, 68, 0
1, 75653, Note_on_c, 0, 66, 80
1, 75653, Note_on_c, 0, 70, 88
1, 75656, Note_on_c, 0, 65, 0
1, 75656, Note_on_c, 0, 61, 73
1, 75825, Note_on_c, 0, 61, 0
1, 75825, Note_on_c, 0, 70, 0
1, 75825, Note_on_c, 0, 66, 0
1, 75882, Note_on_c, 0, 68, 82
1, 75882, Note_on_c, 0, 71, 91
1, 75882, Note_on_c, 0, 59, 74
1, 76054, Note_on_c, 0, 59, 0
1, 76054, Note_on_c, 0, 68, 0
1, 76054, Note_on_c, 0, 71, 0
1, 76112, Note_on_c, 0, 49, 0
1, 76112, Note_on_c, 0, 70, 87
1, 76112, Note_on_c, 0, 73, 96
1, 76115, Note_on_c, 0, 37, 0
1, 76115, Note_on_c, 0, 37, 65
1, 76115, Note_on_c, 0, 49, 72
1, 76131, Control_c, 0, 64, 127
1, 76336, Note_on_c, 0, 54, 61
1, 76560, Note_on_c, 0, 54, 0
1, 76560, Note_on_c, 0, 58, 61
1, 76793, Note_on_c, 0, 70, 0
1, 76793, Note_on_c, 0, 73, 0
1, 76793, Note_on_c, 0, 66, 85
1, 76796, Note_on_c, 0, 49, 0
1, 76796, Note_on_c, 0, 58, 0
1, 76796, Note_on_c, 0, 70, 92
1, 76799, Note_on_c, 0, 37, 0
1, 76799, Note_on_c, 0, 61, 67
1, 77018, Note_on_c, 0, 61, 0
1, 77018, Note_on_c, 0, 58, 62
1, 77249, Note_on_c, 0, 58, 0
1, 77249, Note_on_c, 0, 54, 62
1, 77307, Note_on_c, 0, 70, 0
1, 77307, Note_on_c, 0, 66, 0
1, 77307, Note_on_c, 0, 78, 92
1, 77480, Note_on_c, 0, 78, 0
1, 77480, Note_on_c, 0, 71, 81
1, 77480, Note_on_c, 0, 66, 81
1, 77483, Note_on_c, 0, 54, 0
1, 77483, Note_on_c, 0, 78, 92
1, 77483, Note_on_c, 0, 37, 63
1, 77486, Note_on_c, 0, 49, 69
1, 77493, Control_c, 0, 64, 0
1, 77606, Control_c, 0, 64, 127
1, 77706, Note_on_c, 0, 56, 62
1, 77932, Note_on_c, 0, 56, 0
1, 77932, Note_on_c, 0, 59, 62
1, 78165, Note_on_c, 0, 66, 0
1, 78165, Note_on_c, 0, 78, 0
1, 78165, Note_on_c, 0, 65, 80
1, 78168, Note_on_c, 0, 49, 0
1, 78168, Note_on_c, 0, 59, 0
1, 78168, Note_on_c, 0, 77, 90
1, 78171, Note_on_c, 0, 37, 0
1, 78171, Note_on_c, 0, 61, 67
1, 78398, Note_on_c, 0, 61, 0
1, 78398, Note_on_c, 0, 59, 62
1, 78632, Note_on_c, 0, 59, 0
1, 78632, Note_on_c, 0, 56, 62
1, 78865, Note_on_c, 0, 71, 0
1, 78865, Note_on_c, 0, 77, 0
1, 78865, Note_on_c, 0, 65, 0
1, 78868, Note_on_c, 0, 56, 0
1, 78868, Note_on_c, 0, 70, 87
1, 78868, Note_on_c, 0, 73, 96
1, 78871, Note_on_c, 0, 37, 65
1, 78871, Note_on_c, 0, 49, 72
1, 78879, Control_c, 0, 64, 0
1, 78936, Control_c, 0, 64, 127
1, 79089, Note_on_c, 0, 54, 61
1, 79313, Note_on_c, 0, 54, 0
1, 79313, Note_on_c, 0, 58, 61
1, 79546, Note_on_c, 0, 70, 0
1, 79546, Note_on_c, 0, 73, 0
1, 79546, Note_on_c, 0, 66, 85
1, 79549, Note_on_c, 0, 49, 0
1, 79549, Note_on_c, 0, 58, 0
1, 79549, Note_on_c, 0, 70, 92
1, 79552, Note_on_c, 0, 37, 0
1, 79552, Note_on_c, 0, 61, 67
1, 79771, Note_on_c, 0, 61, 0
1, 79771, Note_on_c, 0, 58, 62
1, 80006, Note_on_c, 0, 58, 0
1, 80006, Note_on_c, 0, 54, 56
1, 80066, Note_on_c, 0, 70, 0
1, 80066, Note_on_c, 0, 66, 0
1, 80066, Note_on_c, 0, 78, 72
1, 80245, Note_on_c, 0, 78, 0
1, 80245, Note_on_c, 0, 71, 65
1, 80245, Note_on_c, 0, 66, 65
1, 80248, Note_on_c, 0, 54, 0
1, 80248, Note_on_c, 0, 78, 73
1, 80248, Note_on_c, 0, 38, 45
1, 80251, Note_on_c, 0, 50, 50
1, 80259, Control_c, 0, 64, 0
1, 80392, Control_c, 0, 64, 127
1, 80473, Note_on_c, 0, 56, 42
1, 80701, Note_on_c, 0, 56, 0
1, 80701, Note_on_c, 0, 59, 43
1, 80943, Note_on_c, 0, 66, 0
1, 80943, Note_on_c, 0, 78, 0
1, 80943, Note_on_c, 0, 65, 59
1, 80946, Note_on_c, 0, 50, 0
1, 80946, Note_on_c, 0, 59, 0
1, 80946, Note_on_c, 0, 77, 65
1, 80949, Note_on_c, 0, 38, 0
1, 80949, Note_on_c, 0, 62, 46
1, 81164, Note_on_c, 0, 62, 0
1, 81164, Note_on_c, 0, 59, 41
1, 81399, Note_on_c, 0, 59, 0
1, 81399, Note_on_c, 0, 56, 39
1, 81654, Note_on_c, 0, 71, 0
1, 81654, Note_on_c, 0, 77, 0
1, 81654, Note_on_c, 0, 65, 0
1, 81657, Note_on_c, 0, 56, 0
1, 81657, Note_on_c, 0, 66, 63
1, 81657, Note_on_c, 0, 70, 69
1, 81660, Note_on_c, 0, 39, 50
1, 81660, Control_c, 0, 64, 0
1, 81863, Control_c, 0, 64, 127
1, 81879, Note_on_c, 0, 51, 43
1, 82103, Note_on_c, 0, 51, 0
1, 82103, Note_on_c, 0, 54, 43
1, 82336, Note_on_c, 0, 66, 0
1, 82336, Note_on_c, 0, 70, 0
1, 82336, Note_on_c, 0, 63, 65
1, 82339, Note_on_c, 0, 39, 0
1, 82339, Note_on_c, 0, 54, 0
1, 82339, Note_on_c, 0, 66, 65
1, 82342, Note_on_c, 0, 58, 46
1, 82560, Note_on_c, 0, 58, 0
1, 82560, Note_on_c, 0, 54, 44
1, 82791, Note_on_c, 0, 54, 0
1, 82791, Note_on_c, 0, 51, 44
1, 82849, Note_on_c, 0, 66, 0
1, 82849, Note_on_c, 0, 63, 0
1, 82849, Note_on_c, 0, 71, 73
1, 82852, Note_on_c, 0, 75, 73
1, 83023, Note_on_c, 0, 75, 0
1, 83023, Note_on_c, 0, 71, 0
1, 83023, Note_on_c, 0, 71, 80
1, 83026, Note_on_c, 0, 68, 72
1, 83026, Note_on_c, 0, 63, 72
1, 83026, Note_on_c, 0, 75, 80
1, 83029, Note_on_c, 0, 51, 0
1, 83029, Note_on_c, 0, 44, 48
1, 83037, Control_c, 0, 64, 0
1, 83160, Control_c, 0, 64, 127
1, 83249, Note_on_c, 0, 51, 44
1, 83475, Note_on_c, 0, 51, 0
1, 83475, Note_on_c, 0, 56, 44
1, 83708, Note_on_c, 0, 56, 0
1, 83708, Note_on_c, 0, 63, 0
1, 83708, Note_on_c, 0, 68, 0
1, 83711, Note_on_c, 0, 44, 0
1, 83711, Note_on_c, 0, 59, 46
1, 83941, Note_on_c, 0, 75, 0
1, 83941, Note_on_c, 0, 71, 0
1, 83941, Note_on_c, 0, 70, 65
1, 83944, Note_on_c, 0, 73, 65
1, 84167, Note_on_c, 0, 73, 0
1, 84167, Note_on_c, 0, 70, 0
1, 84167, Note_on_c, 0, 68, 65
1, 84170, Note_on_c, 0, 71, 65
1, 84396, Note_on_c, 0, 71, 0
1, 84396, Note_on_c, 0, 68, 0
1, 84396, Note_on_c, 0, 66, 63
1, 84399, Note_on_c, 0, 59, 0
1, 84399, Note_on_c, 0, 70, 69
1, 84399, Note_on_c, 0, 39, 50
1, 84410, Control_c, 0, 64, 0
1, 84493, Control_c, 0, 64, 127
1, 84621, Note_on_c, 0, 51, 43
1, 84845, Note_on_c, 0, 51, 0
1, 84845, Note_on_c, 0, 54, 43
1, 85078, Note_on_c, 0, 66, 0
1, 85078, Note_on_c, 0, 70, 0
1, 85078, Note_on_c, 0, 63, 65
1, 85081, Note_on_c, 0, 39, 0
1, 85081, Note_on_c, 0, 54, 0
1, 85081, Note_on_c, 0, 66, 65
1, 85084, Note_on_c, 0, 58, 46
1, 85302, Note_on_c, 0, 58, 0
1, 85302, Note_on_c, 0, 54, 44
1, 85534, Note_on_c, 0, 54, 0
1, 85534, Note_on_c, 0, 51, 44
1, 85591, Note_on_c, 0, 66, 0
1, 85591, Note_on_c, 0, 63, 0
1, 85591, Note_on_c, 0, 71, 73
1, 85594, Note_on_c, 0, 75, 73
1, 85765, Note_on_c, 0, 75, 0
1, 85765, Note_on_c, 0, 71, 0
1, 85765, Note_on_c, 0, 71, 78
1, 85768, Note_on_c, 0, 68, 78
1, 85768, Note_on_c, 0, 63, 78
1, 85768, Note_on_c, 0, 75, 86
1, 85771, Note_on_c, 0, 51, 0
1, 85771, Note_on_c, 0, 44, 48
1, 85779, Control_c, 0, 64, 0
1, 85943, Control_c, 0, 64, 127
1, 85991, Note_on_c, 0, 51, 46
1, 86217, Note_on_c, 0, 51, 0
1, 86217, Note_on_c, 0, 56, 48
1, 86450, Note_on_c, 0, 56, 0
1, 86450, Note_on_c, 0, 63, 0
1, 86450, Note_on_c, 0, 68, 0
1, 86453, Note_on_c, 0, 44, 0
1, 86453, Note_on_c, 0, 59, 55
1, 86683, Note_on_c, 0, 75, 0
1, 86683, Note_on_c, 0, 71, 0
1, 86683, Note_on_c, 0, 70, 83
1, 86686, Note_on_c, 0, 73, 83
1, 86909, Note_on_c, 0, 73, 0
1, 86909, Note_on_c, 0, 70, 0
1, 86909, Note_on_c, 0, 68, 81
1, 86912, Note_on_c, 0, 71, 81
1, 87139, Note_on_c, 0, 71, 0
1, 87139, Note_on_c, 0, 68, 0
1, 87139, Note_on_c, 0, 71, 84
1, 87142, Note_on_c, 0, 68, 78
1, 87142, Note_on_c, 0, 63, 78
1, 87142, Note_on_c, 0, 75, 87
1, 87145, Note_on_c, 0, 59, 0
1, 87145, Note_on_c, 0, 44, 62
1, 87153, Control_c, 0, 64, 0
1, 87233, Control_c, 0, 64, 127
1, 87365, Note_on_c, 0, 51, 47
1, 87591, Note_on_c, 0, 51, 0
1, 87591, Note_on_c, 0, 56, 50
1, 87824, Note_on_c, 0, 56, 0
1, 87824, Note_on_c, 0, 63, 0
1, 87824, Note_on_c, 0, 68, 0
1, 87827, Note_on_c, 0, 44, 0
1, 87827, Note_on_c, 0, 59, 57
1, 88057, Note_on_c, 0, 75, 0
1, 88057, Note_on_c, 0, 71, 0
1, 88057, Note_on_c, 0, 70, 83
1, 88060, Note_on_c, 0, 73, 83
1, 88283, Note_on_c, 0, 73, 0
1, 88283, Note_on_c, 0, 70, 0
1, 88283, Note_on_c, 0, 68, 81
1, 88286, Note_on_c, 0, 71, 81
1, 88512, Note_on_c, 0, 71, 0
1, 88512, Note_on_c, 0, 68, 0
1, 88512, Note_on_c, 0, 71, 84
1, 88515, Note_on_c, 0, 68, 84
1, 88515, Note_on_c, 0, 63, 84
1, 88515, Note_on_c, 0, 75, 87
1, 88518, Note_on_c, 0, 59, 0
1, 88518, Note_on_c, 0, 44, 70
1, 88527, Control_c, 0, 64, 0
1, 88603, Control_c, 0, 64, 127
1, 88738, Note_on_c, 0, 51, 61
1, 88964, Note_on_c, 0, 51, 0
1, 88964, Note_on_c, 0, 56, 61
1, 89198, Note_on_c, 0, 56, 0
1, 89198, Note_on_c, 0, 44, 0
1, 89198, Note_on_c, 0, 59, 67
1, 89425, Note_on_c, 0, 59, 0
1, 89425, Note_on_c, 0, 56, 65
1, 89651, Note_on_c, 0, 56, 0
1, 89651, Note_on_c, 0, 51, 64
1, 89881, Note_on_c, 0, 51, 0
1, 89881, Note_on_c, 0, 59, 65
1, 90107, Note_on_c, 0, 59, 0
1, 90107, Note_on_c, 0, 56, 53
1, 90333, Note_on_c, 0, 56, 0
1, 90333, Note_on_c, 0, 51, 48
1, 90562, Note_on_c, 0, 51, 0
1, 90562, Note_on_c, 0, 59, 44
1, 90906, Note_on_c, 0, 75, 0
1, 90906, Note_on_c, 0, 71, 0
1, 90906, Note_on_c, 0, 68, 0
1, 90909, Note_on_c, 0, 63, 0
1, 90909, Note_on_c, 0, 74, 62
1, 91251, Note_on_c, 0, 74, 0
1, 91251, Note_on_c, 0, 59, 0
1, 91251, Note_on_c, 0, 77, 67
1, 91257, Control_c, 0, 64, 0
1, 91606, Note_on_c, 0, 77, 0
1, 91606, Note_on_c, 0, 75, 62
1, 91961, Note_on_c, 0, 75, 0
1, 91961, Note_on_c, 0, 71, 54
1, 92334, Note_on_c, 0, 71, 0
1, 92334, Note_on_c, 0, 68, 52
1, 92740, Note_on_c, 0, 68, 0
1, 92740, Note_on_c, 0, 67, 56
1, 92740, Note_on_c, 0, 34, 37
1, 92827, Control_c, 0, 64, 127
1, 92971, Note_on_c, 0, 55, 42
1, 92971, Note_on_c, 0, 46, 34
1, 93194, Note_on_c, 0, 46, 0
1, 93194, Note_on_c, 0, 55, 0
1, 93194, Note_on_c, 0, 58, 41
1, 93197, Note_on_c, 0, 51, 35
1, 93421, Note_on_c, 0, 51, 0
1, 93421, Note_on_c, 0, 58, 0
1, 93421, Note_on_c, 0, 63, 51
1, 93424, Note_on_c, 0, 34, 0
1, 93424, Note_on_c, 0, 55, 37
1, 93644, Note_on_c, 0, 55, 0
1, 93644, Note_on_c, 0, 63, 0
1, 93644, Note_on_c, 0, 58, 41
1, 93647, Note_on_c, 0, 51, 34
1, 93759, Note_on_c, 0, 67, 0
1, 93759, Note_on_c, 0, 68, 60
1, 93873, Note_on_c, 0, 51, 0
1, 93873, Note_on_c, 0, 58, 0
1, 93873, Note_on_c, 0, 55, 41
1, 93876, Note_on_c, 0, 46, 34
1, 94112, Note_on_c, 0, 55, 0
1, 94112, Note_on_c, 0, 68, 0
1, 94112, Note_on_c, 0, 70, 72
1, 94115, Note_on_c, 0, 46, 0
1, 94115, Note_on_c, 0, 34, 37
1, 94127, Control_c, 0, 64, 0
1, 94189, Control_c, 0, 64, 127
1, 94344, Note_on_c, 0, 55, 41
1, 94344, Note_on_c, 0, 46, 35
1, 94566, Note_on_c, 0, 46, 0
1, 94566, Note_on_c, 0, 55, 0
1, 94566, Note_on_c, 0, 58, 41
1, 94569, Note_on_c, 0, 51, 35
1, 94796, Note_on_c, 0, 58, 0
1, 94796, Note_on_c, 0, 70, 0
1, 94796, Note_on_c, 0, 63, 62
1, 94799, Note_on_c, 0, 34, 0
1, 94799, Note_on_c, 0, 51, 0
1, 94799, Note_on_c, 0, 55, 37
1, 95018, Note_on_c, 0, 55, 0
1, 95018, Note_on_c, 0, 58, 40
1, 95018, Note_on_c, 0, 51, 34
1, 95248, Note_on_c, 0, 51, 0
1, 95248, Note_on_c, 0, 58, 0
1, 95248, Note_on_c, 0, 55, 40
1, 95251, Note_on_c, 0, 46, 34
1, 95486, Note_on_c, 0, 55, 0
1, 95486, Note_on_c, 0, 63, 0
1, 95486, Note_on_c, 0, 68, 66
1, 95489, Note_on_c, 0, 46, 0
1, 95489, Note_on_c, 0, 34, 37
1, 95501, Control_c, 0, 64, 0
1, 95567, Control_c, 0, 64, 127
1, 95718, Note_on_c, 0, 56, 42
1, 95718, Note_on_c, 0, 46, 34
1, 95935, Note_on_c, 0, 46, 0
1, 95935, Note_on_c, 0, 56, 0
1, 95935, Note_on_c, 0, 58, 41
1, 95938, Note_on_c, 0, 50, 35
1, 96162, Note_on_c, 0, 58, 0
1, 96162, Note_on_c, 0, 68, 0
1, 96162, Note_on_c, 0, 62, 50
1, 96165, Note_on_c, 0, 34, 0
1, 96165, Note_on_c, 0, 50, 0
1, 96165, Note_on_c, 0, 53, 37
1, 96385, Note_on_c, 0, 53, 0
1, 96385, Note_on_c, 0, 58, 41
1, 96385, Note_on_c, 0, 50, 34
1, 96615, Note_on_c, 0, 50, 0
1, 96615, Note_on_c, 0, 58, 0
1, 96615, Note_on_c, 0, 56, 41
1, 96618, Note_on_c, 0, 46, 34
1, 96853, Note_on_c, 0, 56, 0
1, 96853, Note_on_c, 0, 62, 0
1, 96853, Note_on_c, 0, 63, 72
1, 96856, Note_on_c, 0, 46, 0
1, 96856, Note_on_c, 0, 36, 37
1, 96868, Control_c, 0, 64, 0
1, 96930, Control_c, 0, 64, 127
1, 97085, Note_on_c, 0, 51, 42
1, 97085, Note_on_c, 0, 43, 42
1, 97307, Note_on_c, 0, 43, 0
1, 97307, Note_on_c, 0, 51, 0
1, 97307, Note_on_c, 0, 55, 42
1, 97310, Note_on_c, 0, 48, 42
1, 97537, Note_on_c, 0, 48, 0
1, 97537, Note_on_c, 0, 55, 0
1, 97537, Note_on_c, 0, 36, 0
1, 97540, Note_on_c, 0, 60, 45
1, 97540, Note_on_c, 0, 51, 45
1, 97759, Note_on_c, 0, 51, 0
1, 97759, Note_on_c, 0, 60, 0
1, 97759, Note_on_c, 0, 55, 39
1, 97762, Note_on_c, 0, 48, 39
1, 97874, Note_on_c, 0, 63, 0
1, 97874, Note_on_c, 0, 62, 68
1, 97989, Note_on_c, 0, 48, 0
1, 97989, Note_on_c, 0, 55, 0
1, 97989, Note_on_c, 0, 51, 40
1, 97992, Note_on_c, 0, 43, 40
1, 98227, Note_on_c, 0, 43, 0
1, 98227, Note_on_c, 0, 62, 0
1, 98227, Note_on_c, 0, 60, 77
1, 98230, Note_on_c, 0, 51, 0
1, 98230, Note_on_c, 0, 44, 49
1, 98230, Note_on_c, 0, 32, 46
1, 98242, Control_c, 0, 64, 0
1, 98314, Control_c, 0, 64, 127
1, 98459, Note_on_c, 0, 44, 45
1, 98681, Note_on_c, 0, 44, 0
1, 98681, Note_on_c, 0, 48, 43
1, 98909, Note_on_c, 0, 48, 0
1, 98909, Note_on_c, 0, 44, 0
1, 98909, Note_on_c, 0, 32, 0
1, 98912, Note_on_c, 0, 53, 55
1, 99132, Note_on_c, 0, 53, 0
1, 99132, Note_on_c, 0, 48, 47
1, 99246, Note_on_c, 0, 60, 0
1, 99246, Note_on_c, 0, 65, 74
1, 99361, Note_on_c, 0, 48, 0
1, 99361, Note_on_c, 0, 44, 47
1, 99600, Note_on_c, 0, 44, 0
1, 99600, Note_on_c, 0, 65, 0
1, 99600, Note_on_c, 0, 68, 85
1, 99603, Note_on_c, 0, 41, 58
1, 99603, Note_on_c, 0, 29, 53
1, 99839, Note_on_c, 0, 48, 48
1, 99939, Note_on_c, 0, 72, 83
1, 99955, Note_on_c, 0, 68, 0
1, 100070, Note_on_c, 0, 48, 0
1, 100070, Note_on_c, 0, 53, 55
1, 100293, Note_on_c, 0, 72, 0
1, 100309, Note_on_c, 0, 53, 0
1, 100309, Note_on_c, 0, 29, 0
1, 100309, Note_on_c, 0, 79, 88
1, 100312, Note_on_c, 0, 41, 0
1, 100312, Note_on_c, 0, 56, 59
1, 100538, Note_on_c, 0, 56, 0
1, 100538, Note_on_c, 0, 53, 55
1, 100778, Note_on_c, 0, 53, 0
1, 100778, Note_on_c, 0, 48, 52
1, 100841, Note_on_c, 0, 79, 0
1, 100841, Note_on_c, 0, 77, 83
1, 101029, Note_on_c, 0, 77, 0
1, 101029, Note_on_c, 0, 48, 0
1, 101029, Note_on_c, 0, 75, 87
1, 101032, Note_on_c, 0, 34, 39
1, 101032, Note_on_c, 0, 46, 43
1, 101044, Control_c, 0, 64, 0
1, 101125, Control_c, 0, 64, 127
1, 101269, Note_on_c, 0, 53, 46
1, 101499, Note_on_c, 0, 53, 0
1, 101499, Note_on_c, 0, 56, 40
1, 101733, Note_on_c, 0, 75, 0
1, 101733, Note_on_c, 0, 74, 80
1, 101733, Note_on_c, 0, 68, 46
1, 101736, Note_on_c, 0, 34, 0
1, 101736, Note_on_c, 0, 56, 0
1, 101736, Note_on_c, 0, 46, 0
1, 101739, Note_on_c, 0, 58, 46
1, 101968, Note_on_c, 0, 58, 0
1, 101968, Note_on_c, 0, 68, 0
1, 101968, Note_on_c, 0, 65, 46
1, 101971, Note_on_c, 0, 56, 42
1, 102203, Note_on_c, 0, 56, 0
1, 102203, Note_on_c, 0, 65, 0
1, 102203, Note_on_c, 0, 62, 41
1, 102206, Note_on_c, 0, 53, 38
1, 102429, Note_on_c, 0, 53, 0
1, 102429, Note_on_c, 0, 62, 0
1, 102429, Note_on_c, 0, 68, 43
1, 102432, Note_on_c, 0, 58, 37
1, 102670, Note_on_c, 0, 58, 0
1, 102670, Note_on_c, 0, 68, 0
1, 102670, Note_on_c, 0, 65, 39
1, 102673, Note_on_c, 0, 56, 33
1, 102917, Note_on_c, 0, 56, 0
1, 102917, Note_on_c, 0, 65, 0
1, 102917, Note_on_c, 0, 62, 39
1, 102920, Note_on_c, 0, 53, 33
1, 103174, Note_on_c, 0, 62, 0
1, 103174, Note_on_c, 0, 74, 0
1, 103174, Note_on_c, 0, 74, 65
1, 103177, Note_on_c, 0, 53, 0
1, 103177, Note_on_c, 0, 68, 55
1, 103177, Note_on_c, 0, 50, 31
1, 103180, Note_on_c, 0, 58, 33
1, 103436, Note_on_c, 0, 58, 0
1, 103436, Note_on_c, 0, 74, 0
1, 103436, Note_on_c, 0, 72, 61
1, 103439, Note_on_c, 0, 56, 28
1, 103698, Note_on_c, 0, 56, 0
1, 103698, Note_on_c, 0, 72, 0
1, 103698, Note_on_c, 0, 70, 58
1, 103701, Note_on_c, 0, 53, 28
1, 103977, Note_on_c, 0, 70, 0
1, 103977, Note_on_c, 0, 67, 54
1, 103977, Note_on_c, 0, 70, 61
1, 103980, Note_on_c, 0, 68, 0
1, 103980, Note_on_c, 0, 53, 0
1, 103980, Note_on_c, 0, 50, 0
1, 103983, Note_on_c, 0, 39, 55
1, 103992, Control_c, 0, 64, 0
1, 104077, Control_c, 0, 64, 127
1, 104216, Note_on_c, 0, 51, 46
1, 104440, Note_on_c, 0, 51, 0
1, 104440, Note_on_c, 0, 55, 46
1, 104673, Note_on_c, 0, 70, 0
1, 104673, Note_on_c, 0, 67, 0
1, 104673, Note_on_c, 0, 63, 58
1, 104676, Note_on_c, 0, 39, 0
1, 104676, Note_on_c, 0, 55, 0
1, 104676, Note_on_c, 0, 67, 77
1, 104679, Note_on_c, 0, 58, 51
1, 104888, Note_on_c, 0, 58, 0
1, 104888, Note_on_c, 0, 55, 47
1, 105120, Note_on_c, 0, 55, 0
1, 105120, Note_on_c, 0, 51, 47
1, 105178, Note_on_c, 0, 67, 0
1, 105178, Note_on_c, 0, 63, 0
1, 105178, Note_on_c, 0, 75, 82
1, 105351, Note_on_c, 0, 75, 0
1, 105351, Note_on_c, 0, 68, 74
1, 105351, Note_on_c, 0, 63, 74
1, 105354, Note_on_c, 0, 51, 0
1, 105354, Note_on_c, 0, 75, 82
1, 105354, Note_on_c, 0, 34, 61
1, 105357, Note_on_c, 0, 46, 61
1, 105365, Control_c, 0, 64, 0
1, 105452, Control_c, 0, 64, 127
1, 105570, Note_on_c, 0, 53, 47
1, 105788, Note_on_c, 0, 53, 0
1, 105788, Note_on_c, 0, 56, 47
1, 106021, Note_on_c, 0, 63, 0
1, 106021, Note_on_c, 0, 75, 0
1, 106021, Note_on_c, 0, 62, 65
1, 106024, Note_on_c, 0, 46, 0
1, 106024, Note_on_c, 0, 56, 0
1, 106024, Note_on_c, 0, 74, 70
1, 106027, Note_on_c, 0, 34, 0
1, 106027, Note_on_c, 0, 58, 51
1, 106248, Note_on_c, 0, 58, 0
1, 106248, Note_on_c, 0, 56, 47
1, 106475, Note_on_c, 0, 56, 0
1, 106475, Note_on_c, 0, 53, 47
1, 106711, Note_on_c, 0, 68, 0
1, 106711, Note_on_c, 0, 74, 0
1, 106711, Note_on_c, 0, 62, 0
1, 106714, Note_on_c, 0, 53, 0
1, 106714, Note_on_c, 0, 67, 68
1, 106714, Note_on_c, 0, 70, 76
1, 106717, Note_on_c, 0, 39, 55
1, 106722, Control_c, 0, 64, 0
1, 106820, Control_c, 0, 64, 127
1, 106935, Note_on_c, 0, 51, 46
1, 107160, Note_on_c, 0, 51, 0
1, 107160, Note_on_c, 0, 55, 46
1, 107393, Note_on_c, 0, 67, 0
1, 107393, Note_on_c, 0, 70, 0
1, 107393, Note_on_c, 0, 63, 67
1, 107396, Note_on_c, 0, 39, 0
1, 107396, Note_on_c, 0, 55, 0
1, 107396, Note_on_c, 0, 67, 74
1, 107399, Note_on_c, 0, 58, 51
1, 107610, Note_on_c, 0, 58, 0
1, 107610, Note_on_c, 0, 55, 47
1, 107841, Note_on_c, 0, 55, 0
1, 107841, Note_on_c, 0, 51, 43
1, 107899, Note_on_c, 0, 67, 0
1, 107899, Note_on_c, 0, 63, 0
1, 107899, Note_on_c, 0, 75, 74
1, 108072, Note_on_c, 0, 75, 0
1, 108072, Note_on_c, 0, 68, 66
1, 108072, Note_on_c, 0, 63, 66
1, 108075, Note_on_c, 0, 51, 0
1, 108075, Note_on_c, 0, 75, 73
1, 108075, Note_on_c, 0, 35, 45
1, 108078, Note_on_c, 0, 47, 51
1, 108085, Control_c, 0, 64, 0
1, 108192, Control_c, 0, 64, 127
1, 108298, Note_on_c, 0, 53, 41
1, 108524, Note_on_c, 0, 53, 0
1, 108524, Note_on_c, 0, 56, 41
1, 108757, Note_on_c, 0, 63, 0
1, 108757, Note_on_c, 0, 75, 0
1, 108757, Note_on_c, 0, 62, 54
1, 108760, Note_on_c, 0, 47, 0
1, 108760, Note_on_c, 0, 56, 0
1, 108760, Note_on_c, 0, 74, 59
1, 108763, Note_on_c, 0, 35, 0
1, 108763, Note_on_c, 0, 59, 42
1, 108991, Note_on_c, 0, 59, 0
1, 108991, Note_on_c, 0, 56, 39
1, 109224, Note_on_c, 0, 56, 0
1, 109224, Note_on_c, 0, 53, 38
1, 109475, Note_on_c, 0, 68, 0
1, 109475, Note_on_c, 0, 74, 0
1, 109475, Note_on_c, 0, 62, 0
1, 109478, Note_on_c, 0, 53, 0
1, 109478, Note_on_c, 0, 63, 62
1, 109478, Note_on_c, 0, 67, 62
1, 109481, Note_on_c, 0, 36, 44
1, 109481, Control_c, 0, 64, 0
1, 109643, Control_c, 0, 64, 127
1, 109699, Note_on_c, 0, 48, 36
1, 109923, Note_on_c, 0, 48, 0
1, 109923, Note_on_c, 0, 51, 36
1, 110156, Note_on_c, 0, 63, 0
1, 110156, Note_on_c, 0, 67, 0
1, 110156, Note_on_c, 0, 60, 61
1, 110159, Note_on_c, 0, 36, 0
1, 110159, Note_on_c, 0, 51, 0
1, 110159, Note_on_c, 0, 63, 61
1, 110162, Note_on_c, 0, 55, 40
1, 110380, Note_on_c, 0, 55, 0
1, 110380, Note_on_c, 0, 51, 37
1, 110612, Note_on_c, 0, 51, 0
1, 110612, Note_on_c, 0, 48, 34
1, 110670, Note_on_c, 0, 63, 0
1, 110670, Note_on_c, 0, 60, 0
1, 110670, Note_on_c, 0, 67, 62
1, 110673, Note_on_c, 0, 70, 62
1, 110847, Note_on_c, 0, 70, 0
1, 110847, Note_on_c, 0, 67, 0
1, 110847, Note_on_c, 0, 60, 56
1, 110850, Note_on_c, 0, 48, 0
1, 110850, Note_on_c, 0, 67, 62
1, 110850, Note_on_c, 0, 70, 62
1, 110853, Note_on_c, 0, 44, 44
1, 110861, Control_c, 0, 64, 0
1, 111186, Note_on_c, 0, 70, 0
1, 111186, Note_on_c, 0, 67, 0
1, 111186, Note_on_c, 0, 65, 56
1, 111189, Note_on_c, 0, 68, 56
1, 111525, Note_on_c, 0, 68, 0
1, 111525, Note_on_c, 0, 65, 0
1, 111525, Note_on_c, 0, 60, 0
1, 111528, Note_on_c, 0, 44, 0
1, 111528, Note_on_c, 0, 63, 59
1, 111528, Note_on_c, 0, 67, 59
1, 111531, Note_on_c, 0, 46, 37
1, 111531, Note_on_c, 0, 56, 40
1, 111870, Note_on_c, 0, 67, 0
1, 111870, Note_on_c, 0, 63, 0
1, 111870, Note_on_c, 0, 62, 53
1, 111873, Note_on_c, 0, 65, 53
1, 112223, Note_on_c, 0, 65, 0
1, 112223, Note_on_c, 0, 56, 0
1, 112223, Note_on_c, 0, 46, 0
1, 112223, Note_on_c, 0, 62, 0
1, 112223, Note_on_c, 0, 56, 48
1, 112223, Note_on_c, 0, 58, 48
1, 112223, Note_on_c, 0, 65, 53
1, 112223, Note_on_c, 0, 39, 44
1, 112398, Control_c, 0, 64, 127
1, 112455, Note_on_c, 0, 46, 36
1, 112685, Note_on_c, 0, 46, 0
1, 112685, Note_on_c, 0, 50, 36
1, 112927, Note_on_c, 0, 50, 0
1, 112927, Note_on_c, 0, 39, 0
1, 112927, Note_on_c, 0, 53, 40
1, 113156, Note_on_c, 0, 53, 0
1, 113156, Note_on_c, 0, 50, 37
1, 113397, Note_on_c, 0, 50, 0
1, 113397, Note_on_c, 0, 46, 34
1, 113637, Note_on_c, 0, 56, 0
1, 113637, Note_on_c, 0, 65, 0
1, 113637, Note_on_c, 0, 58, 0
1, 113640, Note_on_c, 0, 55, 43
1, 113640, Note_on_c, 0, 58, 43
1, 113640, Note_on_c, 0, 63, 48
1, 113643, Note_on_c, 0, 46, 0
1, 113643, Note_on_c, 0, 39, 41
1, 113648, Control_c, 0, 64, 0
1, 113728, Control_c, 0, 64, 127
1, 113878, Note_on_c, 0, 46, 36
1, 114119, Note_on_c, 0, 46, 0
1, 114119, Note_on_c, 0, 51, 34
1, 114359, Note_on_c, 0, 63, 0
1, 114359, Note_on_c, 0, 55, 0
1, 114359, Note_on_c, 0, 58, 0
1, 114362, Note_on_c, 0, 39, 0
1, 114362, Note_on_c, 0, 51, 0
1, 114362, Note_on_c, 0, 39, 33
1, 114376, Control_c, 0, 64, 0
1, 114629, Note_on_c, 0, 66, 56
1, 114629, Note_on_c, 0, 63, 56
1, 114712, Control_c, 0, 64, 127
1, 114746, Note_on_c, 0, 39, 0
1, 114862, Note_on_c, 0, 63, 0
1, 114862, Note_on_c, 0, 66, 0
1, 114862, Note_on_c, 0, 68, 60
1, 114865, Note_on_c, 0, 65, 60
1, 115104, Note_on_c, 0, 65, 0
1, 115104, Note_on_c, 0, 68, 0
1, 115104, Note_on_c, 0, 70, 67
1, 115107, Note_on_c, 0, 66, 61
1, 115107, Note_on_c, 0, 30, 42
1, 115107, Note_on_c, 0, 42, 42
1, 115119, Control_c, 0, 64, 0
1, 115186, Control_c, 0, 64, 127
1, 115339, Note_on_c, 0, 66, 0
1, 115339, Note_on_c, 0, 58, 47
1, 115569, Note_on_c, 0, 58, 0
1, 115569, Note_on_c, 0, 63, 47
1, 115804, Note_on_c, 0, 63, 0
1, 115804, Note_on_c, 0, 70, 0
1, 115804, Note_on_c, 0, 71, 79
1, 115807, Note_on_c, 0, 30, 0
1, 115807, Note_on_c, 0, 42, 0
1, 115807, Note_on_c, 0, 32, 42
1, 115810, Note_on_c, 0, 44, 42
1, 115810, Control_c, 0, 64, 0
1, 115904, Control_c, 0, 64, 127
1, 116030, Note_on_c, 0, 63, 46
1, 116259, Note_on_c, 0, 63, 0
1, 116259, Note_on_c, 0, 59, 45
1, 116317, Note_on_c, 0, 71, 0
1, 116317, Note_on_c, 0, 68, 64
1, 116495, Note_on_c, 0, 68, 0
1, 116495, Note_on_c, 0, 59, 0
1, 116495, Note_on_c, 0, 65, 62
1, 116498, Note_on_c, 0, 44, 0
1, 116498, Note_on_c, 0, 32, 0
1, 116498, Note_on_c, 0, 62, 56
1, 116501, Note_on_c, 0, 34, 42
1, 116501, Note_on_c, 0, 46, 42
1, 116509, Control_c, 0, 64, 0
1, 116590, Control_c, 0, 64, 127
1, 116725, Note_on_c, 0, 62, 0
1, 116725, Note_on_c, 0, 53, 47
1, 116954, Note_on_c, 0, 53, 0
1, 116954, Note_on_c, 0, 58, 46
1, 117178, Note_on_c, 0, 58, 0
1, 117178, Note_on_c, 0, 62, 51
1, 117366, Control_c, 0, 64, 0
1, 117403, Note_on_c, 0, 62, 0
1, 117403, Note_on_c, 0, 65, 0
1, 117403, Note_on_c, 0, 66, 64
1, 117406, Note_on_c, 0, 63, 58
1, 117575, Note_on_c, 0, 63, 0
1, 117575, Note_on_c, 0, 66, 0
1, 117632, Note_on_c, 0, 68, 69
1, 117632, Note_on_c, 0, 65, 63
1, 117804, Note_on_c, 0, 65, 0
1, 117804, Note_on_c, 0, 68, 0
1, 117862, Note_on_c, 0, 46, 0
1, 117862, Note_on_c, 0, 70, 78
1, 117862, Note_on_c, 0, 66, 72
1, 117865, Note_on_c, 0, 34, 0
1, 117865, Note_on_c, 0, 34, 56
1, 117865, Note_on_c, 0, 46, 63
1, 117934, Control_c, 0, 64, 127
1, 118097, Note_on_c, 0, 66, 0
1, 118097, Note_on_c, 0, 63, 59
1, 118326, Note_on_c, 0, 63, 0
1, 118326, Note_on_c, 0, 66, 64
1, 118561, Note_on_c, 0, 66, 0
1, 118561, Note_on_c, 0, 70, 0
1, 118561, Note_on_c, 0, 75, 92
1, 118564, Note_on_c, 0, 34, 0
1, 118564, Note_on_c, 0, 46, 0
1, 118564, Note_on_c, 0, 71, 76
1, 118567, Note_on_c, 0, 35, 55
1, 118567, Note_on_c, 0, 47, 60
1, 118567, Control_c, 0, 64, 0
1, 118661, Control_c, 0, 64, 127
1, 118787, Note_on_c, 0, 71, 0
1, 118787, Note_on_c, 0, 68, 55
1, 119017, Note_on_c, 0, 68, 0
1, 119017, Note_on_c, 0, 63, 48
1, 119075, Note_on_c, 0, 75, 0
1, 119075, Note_on_c, 0, 71, 69
1, 119252, Note_on_c, 0, 71, 0
1, 119252, Note_on_c, 0, 63, 0
1, 119252, Note_on_c, 0, 68, 67
1, 119255, Note_on_c, 0, 35, 0
1, 119255, Note_on_c, 0, 47, 0
1, 119255, Note_on_c, 0, 65, 61
1, 119258, Note_on_c, 0, 37, 52
1, 119258, Note_on_c, 0, 49, 56
1, 119265, Control_c, 0, 64, 0
1, 119347, Control_c, 0, 64, 127
1, 119482, Note_on_c, 0, 65, 0
1, 119482, Note_on_c, 0, 59, 51
1, 119711, Note_on_c, 0, 59, 0
1, 119711, Note_on_c, 0, 61, 49
1, 119936, Note_on_c, 0, 61, 0
1, 119936, Note_on_c, 0, 65, 55
1, 120124, Control_c, 0, 64, 0
1, 120160, Note_on_c, 0, 65, 0
1, 120160, Note_on_c, 0, 68, 0
1, 120160, Note_on_c, 0, 66, 59
1, 120163, Note_on_c, 0, 63, 54
1, 120332, Note_on_c, 0, 63, 0
1, 120332, Note_on_c, 0, 66, 0
1, 120390, Note_on_c, 0, 68, 60
1, 120390, Note_on_c, 0, 65, 55
1, 120562, Note_on_c, 0, 65, 0
1, 120562, Note_on_c, 0, 68, 0
1, 120619, Note_on_c, 0, 49, 0
1, 120619, Note_on_c, 0, 70, 67
1, 120619, Note_on_c, 0, 66, 61
1, 120622, Note_on_c, 0, 37, 0
1, 120622, Note_on_c, 0, 30, 42
1, 120622, Note_on_c, 0, 42, 42
1, 120687, Control_c, 0, 64, 127
1, 120854, Note_on_c, 0, 66, 0
1, 120854, Note_on_c, 0, 58, 47
1, 121084, Note_on_c, 0, 58, 0
1, 121084, Note_on_c, 0, 61, 47
1, 121318, Note_on_c, 0, 61, 0
1, 121318, Note_on_c, 0, 70, 0
1, 121318, Note_on_c, 0, 71, 79
1, 121321, Note_on_c, 0, 30, 0
1, 121321, Note_on_c, 0, 42, 0
1, 121321, Note_on_c, 0, 32, 42
1, 121324, Note_on_c, 0, 44, 42
1, 121327, Control_c, 0, 64, 0
1, 121419, Control_c, 0, 64, 127
1, 121544, Note_on_c, 0, 65, 46
1, 121774, Note_on_c, 0, 65, 0
1, 121774, Note_on_c, 0, 59, 45
1, 121832, Note_on_c, 0, 71, 0
1, 121832, Note_on_c, 0, 68, 64
1, 122010, Note_on_c, 0, 68, 0
1, 122010, Note_on_c, 0, 59, 0
1, 122010, Note_on_c, 0, 65, 62
1, 122013, Note_on_c, 0, 44, 0
1, 122013, Note_on_c, 0, 32, 0
1, 122013, Note_on_c, 0, 62, 56
1, 122016, Note_on_c, 0, 34, 42
1, 122016, Note_on_c, 0, 46, 42
1, 122024, Control_c, 0, 64, 0
1, 122105, Control_c, 0, 64, 127
1, 122239, Note_on_c, 0, 62, 0
1, 122239, Note_on_c, 0, 53, 47
1, 122469, Note_on_c, 0, 53, 0
1, 122469, Note_on_c, 0, 58, 46
1, 122693, Note_on_c, 0, 58, 0
1, 122693, Note_on_c, 0, 62, 51
1, 122881, Control_c, 0, 64, 0
1, 122917, Note_on_c, 0, 62, 0
1, 122917, Note_on_c, 0, 65, 0
1, 122917, Note_on_c, 0, 66, 69
1, 122920, Note_on_c, 0, 63, 63
1, 123090, Note_on_c, 0, 63, 0
1, 123090, Note_on_c, 0, 66, 0
1, 123147, Note_on_c, 0, 68, 75
1, 123147, Note_on_c, 0, 65, 68
1, 123319, Note_on_c, 0, 65, 0
1, 123319, Note_on_c, 0, 68, 0
1, 123376, Note_on_c, 0, 46, 0
1, 123376, Note_on_c, 0, 70, 84
1, 123376, Note_on_c, 0, 66, 70
1, 123379, Note_on_c, 0, 34, 0
1, 123379, Note_on_c, 0, 34, 60
1, 123379, Note_on_c, 0, 46, 66
1, 123428, Control_c, 0, 64, 127
1, 123611, Note_on_c, 0, 66, 0
1, 123611, Note_on_c, 0, 63, 62
1, 123841, Note_on_c, 0, 63, 0
1, 123841, Note_on_c, 0, 66, 72
1, 124076, Note_on_c, 0, 66, 0
1, 124076, Note_on_c, 0, 70, 0
1, 124076, Note_on_c, 0, 75, 92
1, 124079, Note_on_c, 0, 34, 0
1, 124079, Note_on_c, 0, 46, 0
1, 124079, Note_on_c, 0, 71, 76
1, 124082, Note_on_c, 0, 35, 60
1, 124082, Note_on_c, 0, 47, 66
1, 124082, Control_c, 0, 64, 0
1, 124176, Control_c, 0, 64, 127
1, 124302, Note_on_c, 0, 71, 0
1, 124302, Note_on_c, 0, 68, 55
1, 124531, Note_on_c, 0, 68, 0
1, 124531, Note_on_c, 0, 63, 48
1, 124590, Note_on_c, 0, 75, 0
1, 124590, Note_on_c, 0, 71, 69
1, 124767, Note_on_c, 0, 71, 0
1, 124767, Note_on_c, 0, 63, 0
1, 124767, Note_on_c, 0, 68, 80
1, 124770, Note_on_c, 0, 35, 0
1, 124770, Note_on_c, 0, 47, 0
1, 124770, Note_on_c, 0, 65, 66
1, 124773, Note_on_c, 0, 37, 56
1, 124773, Note_on_c, 0, 49, 63
1, 124782, Control_c, 0, 64, 0
1, 124862, Control_c, 0, 64, 127
1, 124997, Note_on_c, 0, 65, 0
1, 124997, Note_on_c, 0, 59, 62
1, 125226, Note_on_c, 0, 59, 0
1, 125226, Note_on_c, 0, 61, 62
1, 125451, Note_on_c, 0, 61, 0
1, 125451, Note_on_c, 0, 65, 69
1, 125638, Control_c, 0, 64, 0
1, 125675, Note_on_c, 0, 68, 0
1, 125675, Note_on_c, 0, 66, 80
1, 125675, Note_on_c, 0, 70, 88
1, 125678, Note_on_c, 0, 65, 0
1, 125678, Note_on_c, 0, 61, 73
1, 125847, Note_on_c, 0, 61, 0
1, 125847, Note_on_c, 0, 70, 0
1, 125847, Note_on_c, 0, 66, 0
1, 125904, Note_on_c, 0, 68, 82
1, 125904, Note_on_c, 0, 71, 91
1, 125904, Note_on_c, 0, 59, 74
1, 126077, Note_on_c, 0, 59, 0
1, 126077, Note_on_c, 0, 68, 0
1, 126077, Note_on_c, 0, 71, 0
1, 126134, Note_on_c, 0, 49, 0
1, 126134, Note_on_c, 0, 70, 87
1, 126134, Note_on_c, 0, 73, 96
1, 126137, Note_on_c, 0, 37, 0
1, 126137, Note_on_c, 0, 37, 65
1, 126137, Note_on_c, 0, 49, 72
1, 126177, Control_c, 0, 64, 127
1, 126358, Note_on_c, 0, 54, 61
1, 126582, Note_on_c, 0, 54, 0
1, 126582, Note_on_c, 0, 58, 61
1, 126816, Note_on_c, 0, 70, 0
1, 126816, Note_on_c, 0, 73, 0
1, 126816, Note_on_c, 0, 66, 85
1, 126819, Note_on_c, 0, 49, 0
1, 126819, Note_on_c, 0, 58, 0
1, 126819, Note_on_c, 0, 70, 92
1, 126822, Note_on_c, 0, 37, 0
1, 126822, Note_on_c, 0, 61, 67
1, 127040, Note_on_c, 0, 61, 0
1, 127040, Note_on_c, 0, 58, 62
1, 127271, Note_on_c, 0, 58, 0
1, 127271, Note_on_c, 0, 54, 62
1, 127329, Note_on_c, 0, 70, 0
1, 127329, Note_on_c, 0, 66, 0
1, 127329, Note_on_c, 0, 78, 92
1, 127502, Note_on_c, 0, 78, 0
1, 127502, Note_on_c, 0, 71, 81
1, 127502, Note_on_c, 0, 66, 80
1, 127505, Note_on_c, 0, 54, 0
1, 127505, Note_on_c, 0, 78, 92
1, 127505, Note_on_c, 0, 37, 63
1, 127508, Note_on_c, 0, 49, 69
1, 127515, Control_c, 0, 64, 0
1, 127620, Control_c, 0, 64, 127
1, 127728, Note_on_c, 0, 56, 62
1, 127954, Note_on_c, 0, 56, 0
1, 127954, Note_on_c, 0, 59, 62
1, 128188, Note_on_c, 0, 66, 0
1, 128188, Note_on_c, 0, 78, 0
1, 128188, Note_on_c, 0, 65, 80
1, 128191, Note_on_c, 0, 49, 0
1, 128191, Note_on_c, 0, 59, 0
1, 128191, Note_on_c, 0, 77, 90
1, 128194, Note_on_c, 0, 37, 0
1, 128194, Note_on_c, 0, 61, 67
1, 128421, Note_on_c, 0, 61, 0
1, 128421, Note_on_c, 0, 59, 62
1, 128654, Note_on_c, 0, 59, 0
1, 128654, Note_on_c, 0, 56, 62
1, 128887, Note_on_c, 0, 71, 0
1, 128887, Note_on_c, 0, 77, 0
1, 128887, Note_on_c, 0, 65, 0
1, 128890, Note_on_c, 0, 56, 0
1, 128890, Note_on_c, 0, 70, 87
1, 128890, Note_on_c, 0, 73, 96
1, 128893, Note_on_c, 0, 37, 65
1, 128893, Note_on_c, 0, 49, 72
1, 128893, Control_c, 0, 64, 0
1, 128951, Control_c, 0, 64, 127
1, 129111, Note_on_c, 0, 54, 61
1, 129335, Note_on_c, 0, 54, 0
1, 129335, Note_on_c, 0, 58, 61
1, 129569, Note_on_c, 0, 70, 0
1, 129569, Note_on_c, 0, 73, 0
1, 129569, Note_on_c, 0, 66, 85
1, 129572, Note_on_c, 0, 49, 0
1, 129572, Note_on_c, 0, 58, 0
1, 129572, Note_on_c, 0, 70, 92
1, 129575, Note_on_c, 0, 37, 0
1, 129575, Note_on_c, 0, 61, 67
1, 129793, Note_on_c, 0, 61, 0
1, 129793, Note_on_c, 0, 58, 62
1, 130024, Note_on_c, 0, 58, 0
1, 130024, Note_on_c, 0, 54, 55
1, 130084, Note_on_c, 0, 70, 0
1, 130084, Note_on_c, 0, 66, 0
1, 130084, Note_on_c, 0, 78, 72
1, 130265, Note_on_c, 0, 78, 0
1, 130265, Note_on_c, 0, 71, 65
1, 130265, Note_on_c, 0, 66, 65
1, 130268, Note_on_c, 0, 54, 0
1, 130268, Note_on_c, 0, 78, 73
1, 130268, Note_on_c, 0, 38, 50
1, 130271, Note_on_c, 0, 50, 50
1, 130278, Control_c, 0, 64, 0
1, 130367, Control_c, 0, 64, 127
1, 130494, Note_on_c, 0, 56, 44
1, 130724, Note_on_c, 0, 56, 0
1, 130724, Note_on_c, 0, 59, 45
1, 130957, Note_on_c, 0, 66, 0
1, 130957, Note_on_c, 0, 78, 0
1, 130957, Note_on_c, 0, 65, 59
1, 130960, Note_on_c, 0, 50, 0
1, 130960, Note_on_c, 0, 59, 0
1, 130960, Note_on_c, 0, 77, 65
1, 130963, Note_on_c, 0, 38, 0
1, 130963, Note_on_c, 0, 62, 46
1, 131181, Note_on_c, 0, 62, 0
1, 131181, Note_on_c, 0, 59, 41
1, 131411, Note_on_c, 0, 59, 0
1, 131411, Note_on_c, 0, 56, 39
1, 131664, Note_on_c, 0, 71, 0
1, 131664, Note_on_c, 0, 77, 0
1, 131664, Note_on_c, 0, 65, 0
1, 131667, Note_on_c, 0, 56, 0
1, 131667, Note_on_c, 0, 66, 63
1, 131667, Note_on_c, 0, 70, 69
1, 131670, Note_on_c, 0, 39, 50
1, 131670, Control_c, 0, 64, 0
1, 131873, Control_c, 0, 64, 127
1, 131888, Note_on_c, 0, 51, 43
1, 132112, Note_on_c, 0, 51, 0
1, 132112, Note_on_c, 0, 54, 43
1, 132345, Note_on_c, 0, 66, 0
1, 132345, Note_on_c, 0, 70, 0
1, 132345, Note_on_c, 0, 63, 65
1, 132348, Note_on_c, 0, 39, 0
1, 132348, Note_on_c, 0, 54, 0
1, 132348, Note_on_c, 0, 66, 65
1, 132351, Note_on_c, 0, 58, 46
1, 132570, Note_on_c, 0, 58, 0
1, 132570, Note_on_c, 0, 54, 44
1, 132801, Note_on_c, 0, 54, 0
1, 132801, Note_on_c, 0, 51, 44
1, 132859, Note_on_c, 0, 66, 0
1, 132859, Note_on_c, 0, 63, 0
1, 132859, Note_on_c, 0, 71, 73
1, 132862, Note_on_c, 0, 75, 73
1, 133032, Note_on_c, 0, 75, 0
1, 133032, Note_on_c, 0, 71, 0
1, 133032, Note_on_c, 0, 71, 80
1, 133035, Note_on_c, 0, 68, 72
1, 133035, Note_on_c, 0, 63, 72
1, 133035, Note_on_c, 0, 75, 80
1, 133038, Note_on_c, 0, 51, 0
1, 133038, Note_on_c, 0, 44, 48
1, 133046, Control_c, 0, 64, 0
1, 133169, Control_c, 0, 64, 127
1, 133258, Note_on_c, 0, 51, 44
1, 133484, Note_on_c, 0, 51, 0
1, 133484, Note_on_c, 0, 56, 44
1, 133717, Note_on_c, 0, 56, 0
1, 133717, Note_on_c, 0, 63, 0
1, 133717, Note_on_c, 0, 68, 0
1, 133720, Note_on_c, 0, 44, 0
1, 133720, Note_on_c, 0, 59, 46
1, 133950, Note_on_c, 0, 75, 0
1, 133950, Note_on_c, 0, 71, 0
1, 133950, Note_on_c, 0, 70, 65
1, 133953, Note_on_c, 0, 73, 65
1, 134176, Note_on_c, 0, 73, 0
1, 134176, Note_on_c, 0, 70, 0
1, 134176, Note_on_c, 0, 68, 65
1, 134179, Note_on_c, 0, 71, 65
1, 134406, Note_on_c, 0, 71, 0
1, 134406, Note_on_c, 0, 68, 0
1, 134406, Note_on_c, 0, 66, 63
1, 134409, Note_on_c, 0, 59, 0
1, 134409, Note_on_c, 0, 70, 69
1, 134409, Note_on_c, 0, 39, 50
1, 134420, Control_c, 0, 64, 0
1, 134615, Control_c, 0, 64, 127
1, 134630, Note_on_c, 0, 51, 43
1, 134854, Note_on_c, 0, 51, 0
1, 134854, Note_on_c, 0, 54, 43
1, 135088, Note_on_c, 0, 66, 0
1, 135088, Note_on_c, 0, 70, 0
1, 135088, Note_on_c, 0, 63, 65
1, 135091, Note_on_c, 0, 39, 0
1, 135091, Note_on_c, 0, 54, 0
1, 135091, Note_on_c, 0, 66, 65
1, 135094, Note_on_c, 0, 58, 46
1, 135312, Note_on_c, 0, 58, 0
1, 135312, Note_on_c, 0, 54, 44
1, 135543, Note_on_c, 0, 54, 0
1, 135543, Note_on_c, 0, 51, 44
1, 135601, Note_on_c, 0, 66, 0
1, 135601, Note_on_c, 0, 63, 0
1, 135601, Note_on_c, 0, 71, 73
1, 135604, Note_on_c, 0, 75, 73
1, 135774, Note_on_c, 0, 75, 0
1, 135774, Note_on_c, 0, 71, 0
1, 135774, Note_on_c, 0, 71, 78
1, 135777, Note_on_c, 0, 68, 78
1, 135777, Note_on_c, 0, 63, 78
1, 135777, Note_on_c, 0, 75, 86
1, 135780, Note_on_c, 0, 51, 0
1, 135780, Note_on_c, 0, 44, 48
1, 135787, Control_c, 0, 64, 0
1, 135944, Control_c, 0, 64, 127
1, 136000, Note_on_c, 0, 51, 46
1, 136226, Note_on_c, 0, 51, 0
1, 136226, Note_on_c, 0, 56, 48
1, 136459, Note_on_c, 0, 56, 0
1, 136459, Note_on_c, 0, 63, 0
1, 136459, Note_on_c, 0, 68, 0
1, 136462, Note_on_c, 0, 44, 0
1, 136462, Note_on_c, 0, 59, 55
1, 136693, Note_on_c, 0, 75, 0
1, 136693, Note_on_c, 0, 71, 0
1, 136693, Note_on_c, 0, 70, 83
1, 136696, Note_on_c, 0, 73, 83
1, 136919, Note_on_c, 0, 73, 0
1, 136919, Note_on_c, 0, 70, 0
1, 136919, Note_on_c, 0, 68, 81
1, 136922, Note_on_c, 0, 71, 81
1, 137148, Note_on_c, 0, 71, 0
1, 137148, Note_on_c, 0, 68, 0
1, 137148, Note_on_c, 0, 71, 84
1, 137151, Note_on_c, 0, 68, 78
1, 137151, Note_on_c, 0, 63, 78
1, 137151, Note_on_c, 0, 75, 86
1, 137154, Note_on_c, 0, 59, 0
1, 137154, Note_on_c, 0, 44, 62
1, 137162, Control_c, 0, 64, 0
1, 137239, Control_c, 0, 64, 127
1, 137374, Note_on_c, 0, 51, 47
1, 137600, Note_on_c, 0, 51, 0
1, 137600, Note_on_c, 0, 56, 50
1, 137833, Note_on_c, 0, 56, 0
1, 137833, Note_on_c, 0, 63, 0
1, 137833, Note_on_c, 0, 68, 0
1, 137836, Note_on_c, 0, 44, 0
1, 137836, Note_on_c, 0, 59, 57
1, 138066, Note_on_c, 0, 75, 0
1, 138066, Note_on_c, 0, 71, 0
1, 138066, Note_on_c, 0, 70, 83
1, 138069, Note_on_c, 0, 73, 83
1, 138292, Note_on_c, 0, 73, 0
1, 138292, Note_on_c, 0, 70, 0
1, 138292, Note_on_c, 0, 68, 81
1, 138295, Note_on_c, 0, 71, 81
1, 138522, Note_on_c, 0, 71, 0
1, 138522, Note_on_c, 0, 68, 0
1, 138522, Note_on_c, 0, 71, 84
1, 138525, Note_on_c, 0, 68, 84
1, 138525, Note_on_c, 0, 63, 84
1, 138525, Note_on_c, 0, 75, 86
1, 138528, Note_on_c, 0, 59, 0
1, 138528, Note_on_c, 0, 44, 70
1, 138536, Control_c, 0, 64, 0
1, 138607, Control_c, 0, 64, 127
1, 138748, Note_on_c, 0, 51, 61
1, 138974, Note_on_c, 0, 51, 0
1, 138974, Note_on_c, 0, 56, 61
1, 139207, Note_on_c, 0, 56, 0
1, 139207, Note_on_c, 0, 44, 0
1, 139207, Note_on_c, 0, 59, 67
1, 139435, Note_on_c, 0, 59, 0
1, 139435, Note_on_c, 0, 56, 65
1, 139661, Note_on_c, 0, 56, 0
1, 139661, Note_on_c, 0, 51, 64
1, 139890, Note_on_c, 0, 51, 0
1, 139890, Note_on_c, 0, 59, 65
1, 140116, Note_on_c, 0, 59, 0
1, 140116, Note_on_c, 0, 56, 53
1, 140342, Note_on_c, 0, 56, 0
1, 140342, Note_on_c, 0, 51, 48
1, 140572, Note_on_c, 0, 51, 0
1, 140572, Note_on_c, 0, 59, 44
1, 140859, Control_c, 0, 64, 0
1, 140916, Note_on_c, 0, 75, 0
1, 140916, Note_on_c, 0, 71, 0
1, 140916, Note_on_c, 0, 68, 0
1, 140919, Note_on_c, 0, 63, 0
1, 140919, Note_on_c, 0, 74, 65
1, 141260, Note_on_c, 0, 74, 0
1, 141260, Note_on_c, 0, 59, 0
1, 141260, Note_on_c, 0, 77, 68
1, 141613, Note_on_c, 0, 77, 0
1, 141613, Note_on_c, 0, 75, 64
1, 141965, Note_on_c, 0, 75, 0
1, 141965, Note_on_c, 0, 71, 54
1, 142323, Note_on_c, 0, 71, 0
1, 142323, Note_on_c, 0, 68, 52
1, 142710, Note_on_c, 0, 68, 0
1, 142710, Note_on_c, 0, 67, 60
1, 142710, Note_on_c, 0, 34, 37
1, 142797, Control_c, 0, 64, 127
1, 142941, Note_on_c, 0, 55, 42
1, 142941, Note_on_c, 0, 46, 34
1, 143157, Note_on_c, 0, 46, 0
1, 143157, Note_on_c, 0, 55, 0
1, 143157, Note_on_c, 0, 58, 41
1, 143160, Note_on_c, 0, 51, 35
1, 143384, Note_on_c, 0, 51, 0
1, 143384, Note_on_c, 0, 58, 0
1, 143384, Note_on_c, 0, 63, 51
1, 143387, Note_on_c, 0, 34, 0
1, 143387, Note_on_c, 0, 55, 37
1, 143607, Note_on_c, 0, 55, 0
1, 143607, Note_on_c, 0, 63, 0
1, 143607, Note_on_c, 0, 58, 41
1, 143610, Note_on_c, 0, 51, 34
1, 143722, Note_on_c, 0, 67, 0
1, 143722, Note_on_c, 0, 68, 60
1, 143837, Note_on_c, 0, 51, 0
1, 143837, Note_on_c, 0, 58, 0
1, 143837, Note_on_c, 0, 55, 41
1, 143840, Note_on_c, 0, 46, 34
1, 144075, Note_on_c, 0, 55, 0
1, 144075, Note_on_c, 0, 68, 0
1, 144075, Note_on_c, 0, 70, 72
1, 144078, Note_on_c, 0, 46, 0
1, 144078, Note_on_c, 0, 34, 37
1, 144088, Control_c, 0, 64, 0
1, 144152, Control_c, 0, 64, 127
1, 144307, Note_on_c, 0, 55, 41
1, 144307, Note_on_c, 0, 46, 35
1, 144529, Note_on_c, 0, 46, 0
1, 144529, Note_on_c, 0, 55, 0
1, 144529, Note_on_c, 0, 58, 41
1, 144532, Note_on_c, 0, 51, 35
1, 144759, Note_on_c, 0, 58, 0
1, 144759, Note_on_c, 0, 70, 0
1, 144759, Note_on_c, 0, 63, 62
1, 144762, Note_on_c, 0, 34, 0
1, 144762, Note_on_c, 0, 51, 0
1, 144762, Note_on_c, 0, 55, 37
1, 144981, Note_on_c, 0, 55, 0
1, 144981, Note_on_c, 0, 58, 40
1, 144981, Note_on_c, 0, 51, 34
1, 145211, Note_on_c, 0, 51, 0
1, 145211, Note_on_c, 0, 58, 0
1, 145211, Note_on_c, 0, 55, 40
1, 145214, Note_on_c, 0, 46, 34
1, 145449, Note_on_c, 0, 55, 0
1, 145449, Note_on_c, 0, 63, 0
1, 145449, Note_on_c, 0, 68, 66
1, 145452, Note_on_c, 0, 46, 0
1, 145452, Note_on_c, 0, 34, 37
1, 145457, Control_c, 0, 64, 0
1, 145530, Control_c, 0, 64, 127
1, 145681, Note_on_c, 0, 56, 42
1, 145681, Note_on_c, 0, 46, 34
1, 145903, Note_on_c, 0, 46, 0
1, 145903, Note_on_c, 0, 56, 0
1, 145903, Note_on_c, 0, 58, 41
1, 145906, Note_on_c, 0, 50, 35
1, 146131, Note_on_c, 0, 58, 0
1, 146131, Note_on_c, 0, 68, 0
1, 146131, Note_on_c, 0, 62, 50
1, 146134, Note_on_c, 0, 34, 0
1, 146134, Note_on_c, 0, 50, 0
1, 146134, Note_on_c, 0, 53, 37
1, 146354, Note_on_c, 0, 53, 0
1, 146354, Note_on_c, 0, 58, 41
1, 146354, Note_on_c, 0, 50, 34
1, 146583, Note_on_c, 0, 50, 0
1, 146583, Note_on_c, 0, 58, 0
1, 146583, Note_on_c, 0, 56, 41
1, 146586, Note_on_c, 0, 46, 34
1, 146822, Note_on_c, 0, 56, 0
1, 146822, Note_on_c, 0, 62, 0
1, 146822, Note_on_c, 0, 63, 72
1, 146825, Note_on_c, 0, 46, 0
1, 146825, Note_on_c, 0, 36, 37
1, 146833, Control_c, 0, 64, 0
1, 146898, Control_c, 0, 64, 127
1, 147053, Note_on_c, 0, 51, 42
1, 147053, Note_on_c, 0, 43, 42
1, 147276, Note_on_c, 0, 43, 0
1, 147276, Note_on_c, 0, 51, 0
1, 147276, Note_on_c, 0, 55, 42
1, 147279, Note_on_c, 0, 48, 42
1, 147513, Note_on_c, 0, 48, 0
1, 147513, Note_on_c, 0, 55, 0
1, 147513, Note_on_c, 0, 36, 0
1, 147516, Note_on_c, 0, 60, 45
1, 147516, Note_on_c, 0, 51, 45
1, 147740, Note_on_c, 0, 51, 0
1, 147740, Note_on_c, 0, 60, 0
1, 147740, Note_on_c, 0, 55, 39
1, 147743, Note_on_c, 0, 48, 39
1, 147858, Note_on_c, 0, 63, 0
1, 147858, Note_on_c, 0, 62, 68
1, 147976, Note_on_c, 0, 48, 0
1, 147976, Note_on_c, 0, 55, 0
1, 147976, Note_on_c, 0, 51, 40
1, 147979, Note_on_c, 0, 43, 40
1, 148228, Note_on_c, 0, 43, 0
1, 148228, Note_on_c, 0, 62, 0
1, 148228, Note_on_c, 0, 60, 77
1, 148231, Note_on_c, 0, 51, 0
1, 148231, Note_on_c, 0, 44, 49
1, 148231, Note_on_c, 0, 32, 46
1, 148238, Control_c, 0, 64, 0
1, 148304, Control_c, 0, 64, 127
1, 148459, Note_on_c, 0, 44, 45
1, 148682, Note_on_c, 0, 44, 0
1, 148682, Note_on_c, 0, 48, 43
1, 148909, Note_on_c, 0, 48, 0
1, 148909, Note_on_c, 0, 44, 0
1, 148909, Note_on_c, 0, 32, 0
1, 148912, Note_on_c, 0, 53, 55
1, 149132, Note_on_c, 0, 53, 0
1, 149132, Note_on_c, 0, 48, 47
1, 149247, Note_on_c, 0, 60, 0
1, 149247, Note_on_c, 0, 65, 74
1, 149361, Note_on_c, 0, 48, 0
1, 149361, Note_on_c, 0, 44, 47
1, 149600, Note_on_c, 0, 44, 0
1, 149600, Note_on_c, 0, 65, 0
1, 149600, Note_on_c, 0, 68, 85
1, 149603, Note_on_c, 0, 41, 58
1, 149603, Note_on_c, 0, 29, 53
1, 149615, Control_c, 0, 64, 0
1, 149677, Control_c, 0, 64, 127
1, 149831, Note_on_c, 0, 48, 48
1, 149927, Note_on_c, 0, 72, 81
1, 149943, Note_on_c, 0, 68, 0
1, 150054, Note_on_c, 0, 48, 0
1, 150054, Note_on_c, 0, 53, 55
1, 150268, Note_on_c, 0, 72, 0
1, 150284, Note_on_c, 0, 53, 0
1, 150284, Note_on_c, 0, 29, 0
1, 150284, Note_on_c, 0, 79, 87
1, 150287, Note_on_c, 0, 41, 0
1, 150287, Note_on_c, 0, 56, 59
1, 150506, Note_on_c, 0, 56, 0
1, 150506, Note_on_c, 0, 53, 55
1, 150736, Note_on_c, 0, 53, 0
1, 150736, Note_on_c, 0, 48, 52
1, 150795, Note_on_c, 0, 79, 0
1, 150795, Note_on_c, 0, 77, 83
1, 150974, Note_on_c, 0, 77, 0
1, 150974, Note_on_c, 0, 48, 0
1, 150974, Note_on_c, 0, 75, 87
1, 150977, Note_on_c, 0, 34, 39
1, 150977, Note_on_c, 0, 46, 43
1, 150989, Control_c, 0, 64, 0
1, 151122, Control_c, 0, 64, 127
1, 151213, Note_on_c, 0, 53, 46
1, 151443, Note_on_c, 0, 53, 0
1, 151443, Note_on_c, 0, 56, 40
1, 151678, Note_on_c, 0, 75, 0
1, 151678, Note_on_c, 0, 74, 80
1, 151678, Note_on_c, 0, 68, 46
1, 151681, Note_on_c, 0, 34, 0
1, 151681, Note_on_c, 0, 56, 0
1, 151681, Note_on_c, 0, 46, 0
1, 151684, Note_on_c, 0, 58, 46
1, 151913, Note_on_c, 0, 58, 0
1, 151913, Note_on_c, 0, 68, 0
1, 151913, Note_on_c, 0, 65, 46
1, 151916, Note_on_c, 0, 56, 42
1, 152147, Note_on_c, 0, 56, 0
1, 152147, Note_on_c, 0, 65, 0
1, 152147, Note_on_c, 0, 62, 41
1, 152150, Note_on_c, 0, 53, 38
1, 152373, Note_on_c, 0, 53, 0
1, 152373, Note_on_c, 0, 62, 0
1, 152373, Note_on_c, 0, 68, 43
1, 152376, Note_on_c, 0, 58, 37
1, 152610, Note_on_c, 0, 58, 0
1, 152610, Note_on_c, 0, 68, 0
1, 152610, Note_on_c, 0, 65, 39
1, 152613, Note_on_c, 0, 56, 33
1, 152851, Note_on_c, 0, 56, 0
1, 152851, Note_on_c, 0, 65, 0
1, 152851, Note_on_c, 0, 62, 39
1, 152854, Note_on_c, 0, 53, 33
1, 153112, Note_on_c, 0, 62, 0
1, 153112, Note_on_c, 0, 74, 0
1, 153112, Note_on_c, 0, 74, 65
1, 153115, Note_on_c, 0, 53, 0
1, 153115, Note_on_c, 0, 68, 55
1, 153115, Note_on_c, 0, 50, 31
1, 153118, Note_on_c, 0, 58, 33
1, 153359, Note_on_c, 0, 58, 0
1, 153359, Note_on_c, 0, 74, 0
1, 153359, Note_on_c, 0, 72, 61
1, 153362, Note_on_c, 0, 56, 28
1, 153627, Note_on_c, 0, 56, 0
1, 153627, Note_on_c, 0, 72, 0
1, 153627, Note_on_c, 0, 70, 58
1, 153630, Note_on_c, 0, 53, 28
1, 153912, Note_on_c, 0, 70, 0
1, 153912, Note_on_c, 0, 67, 56
1, 153912, Note_on_c, 0, 70, 60
1, 153915, Note_on_c, 0, 68, 0
1, 153915, Note_on_c, 0, 53, 0
1, 153915, Note_on_c, 0, 50, 0
1, 153918, Note_on_c, 0, 39, 55
1, 153926, Control_c, 0, 64, 0
1, 153981, Control_c, 0, 64, 127
1, 154136, Note_on_c, 0, 51, 46
1, 154350, Note_on_c, 0, 51, 0
1, 154350, Note_on_c, 0, 55, 46
1, 154583, Note_on_c, 0, 70, 0
1, 154583, Note_on_c, 0, 67, 0
1, 154583, Note_on_c, 0, 63, 64
1, 154586, Note_on_c, 0, 39, 0
1, 154586, Note_on_c, 0, 55, 0
1, 154586, Note_on_c, 0, 67, 68
1, 154589, Note_on_c, 0, 58, 51
1, 154802, Note_on_c, 0, 58, 0
1, 154802, Note_on_c, 0, 55, 47
1, 155033, Note_on_c, 0, 55, 0
1, 155033, Note_on_c, 0, 51, 47
1, 155091, Note_on_c, 0, 67, 0
1, 155091, Note_on_c, 0, 63, 0
1, 155091, Note_on_c, 0, 75, 82
1, 155264, Note_on_c, 0, 75, 0
1, 155264, Note_on_c, 0, 68, 74
1, 155264, Note_on_c, 0, 63, 74
1, 155267, Note_on_c, 0, 51, 0
1, 155267, Note_on_c, 0, 75, 82
1, 155267, Note_on_c, 0, 34, 61
1, 155270, Note_on_c, 0, 46, 61
1, 155277, Control_c, 0, 64, 0
1, 155337, Control_c, 0, 64, 127
1, 155485, Note_on_c, 0, 53, 47
1, 155705, Note_on_c, 0, 53, 0
1, 155705, Note_on_c, 0, 56, 47
1, 155938, Note_on_c, 0, 63, 0
1, 155938, Note_on_c, 0, 75, 0
1, 155938, Note_on_c, 0, 62, 65
1, 155941, Note_on_c, 0, 46, 0
1, 155941, Note_on_c, 0, 56, 0
1, 155941, Note_on_c, 0, 74, 70
1, 155944, Note_on_c, 0, 34, 0
1, 155944, Note_on_c, 0, 58, 51
1, 156165, Note_on_c, 0, 58, 0
1, 156165, Note_on_c, 0, 56, 47
1, 156392, Note_on_c, 0, 56, 0
1, 156392, Note_on_c, 0, 53, 47
1, 156633, Note_on_c, 0, 68, 0
1, 156633, Note_on_c, 0, 74, 0
1, 156633, Note_on_c, 0, 62, 0
1, 156636, Note_on_c, 0, 53, 0
1, 156636, Note_on_c, 0, 67, 68
1, 156636, Note_on_c, 0, 70, 76
1, 156639, Note_on_c, 0, 39, 55
1, 156639, Control_c, 0, 64, 0
1, 156762, Control_c, 0, 64, 127
1, 156858, Note_on_c, 0, 51, 46
1, 157082, Note_on_c, 0, 51, 0
1, 157082, Note_on_c, 0, 55, 46
1, 157315, Note_on_c, 0, 67, 0
1, 157315, Note_on_c, 0, 70, 0
1, 157315, Note_on_c, 0, 63, 67
1, 157318, Note_on_c, 0, 39, 0
1, 157318, Note_on_c, 0, 55, 0
1, 157318, Note_on_c, 0, 67, 74
1, 157321, Note_on_c, 0, 58, 51
1, 157539, Note_on_c, 0, 58, 0
1, 157539, Note_on_c, 0, 55, 47
1, 157771, Note_on_c, 0, 55, 0
1, 157771, Note_on_c, 0, 51, 43
1, 157828, Note_on_c, 0, 67, 0
1, 157828, Note_on_c, 0, 63, 0
1, 157828, Note_on_c, 0, 75, 74
1, 158002, Note_on_c, 0, 75, 0
1, 158002, Note_on_c, 0, 68, 66
1, 158002, Note_on_c, 0, 63, 66
1, 158005, Note_on_c, 0, 51, 0
1, 158005, Note_on_c, 0, 75, 73
1, 158005, Note_on_c, 0, 35, 45
1, 158008, Note_on_c, 0, 47, 50
1, 158016, Control_c, 0, 64, 0
1, 158087, Control_c, 0, 64, 127
1, 158228, Note_on_c, 0, 53, 41
1, 158454, Note_on_c, 0, 53, 0
1, 158454, Note_on_c, 0, 56, 41
1, 158687, Note_on_c, 0, 63, 0
1, 158687, Note_on_c, 0, 75, 0
1, 158687, Note_on_c, 0, 62, 54
1, 158690, Note_on_c, 0, 74, 59
1, 158690, Note_on_c, 0, 62, 49
1, 158690, Note_on_c, 0, 74, 54
1, 158693, Note_on_c, 0, 35, 0
1, 158693, Note_on_c, 0, 47, 0
1, 158693, Note_on_c, 0, 56, 0
1, 158696, Note_on_c, 0, 59, 42
1, 158920, Note_on_c, 0, 59, 0
1, 158920, Note_on_c, 0, 56, 39
1, 159153, Note_on_c, 0, 56, 0
1, 159153, Note_on_c, 0, 53, 38
1, 159386, Note_on_c, 0, 68, 0
1, 159386, Note_on_c, 0, 62, 0
1, 159386, Note_on_c, 0, 74, 0
1, 159389, Note_on_c, 0, 74, 0
1, 159389, Note_on_c, 0, 63, 62
1, 159389, Note_on_c, 0, 67, 62
1, 159392, Note_on_c, 0, 62, 0
1, 159392, Note_on_c, 0, 53, 0
1, 159392, Note_on_c, 0, 36, 44
1, 159398, Control_c, 0, 64, 0
1, 159555, Control_c, 0, 64, 127
1, 159611, Note_on_c, 0, 48, 36
1, 159835, Note_on_c, 0, 48, 0
1, 159835, Note_on_c, 0, 51, 36
1, 160068, Note_on_c, 0, 67, 0
1, 160068, Note_on_c, 0, 63, 0
1, 160068, Note_on_c, 0, 60, 61
1, 160071, Note_on_c, 0, 36, 0
1, 160071, Note_on_c, 0, 51, 0
1, 160071, Note_on_c, 0, 63, 61
1, 160074, Note_on_c, 0, 55, 40
1, 160292, Note_on_c, 0, 55, 0
1, 160292, Note_on_c, 0, 51, 37
1, 160524, Note_on_c, 0, 51, 0
1, 160524, Note_on_c, 0, 48, 34
1, 160581, Note_on_c, 0, 63, 0
1, 160581, Note_on_c, 0, 60, 0
1, 160581, Note_on_c, 0, 67, 62
1, 160584, Note_on_c, 0, 70, 62
1, 160759, Note_on_c, 0, 70, 0
1, 160759, Note_on_c, 0, 67, 0
1, 160759, Note_on_c, 0, 60, 56
1, 160762, Note_on_c, 0, 48, 0
1, 160762, Note_on_c, 0, 67, 62
1, 160762, Note_on_c, 0, 70, 62
1, 160765, Note_on_c, 0, 44, 44
1, 160769, Control_c, 0, 64, 0
1, 161098, Note_on_c, 0, 70, 0
1, 161098, Note_on_c, 0, 67, 0
1, 161098, Note_on_c, 0, 65, 56
1, 161101, Note_on_c, 0, 68, 56
1, 161437, Note_on_c, 0, 68, 0
1, 161437, Note_on_c, 0, 65, 0
1, 161437, Note_on_c, 0, 60, 0
1, 161440, Note_on_c, 0, 44, 0
1, 161440, Note_on_c, 0, 63, 59
1, 161440, Note_on_c, 0, 67, 59
1, 161443, Note_on_c, 0, 46, 37
1, 161443, Note_on_c, 0, 56, 40
1, 161782, Note_on_c, 0, 67, 0
1, 161782, Note_on_c, 0, 63, 0
1, 161782, Note_on_c, 0, 62, 53
1, 161785, Note_on_c, 0, 65, 53
1, 162137, Note_on_c, 0, 65, 0
1, 162137, Note_on_c, 0, 62, 0
1, 162137, Note_on_c, 0, 65, 64
1, 162140, Note_on_c, 0, 46, 0
1, 162140, Note_on_c, 0, 56, 0
1, 162140, Note_on_c, 0, 51, 46
1, 162369, Note_on_c, 0, 67, 46
1, 162369, Note_on_c, 0, 58, 38
1, 162591, Note_on_c, 0, 58, 0
1, 162591, Note_on_c, 0, 67, 0
1, 162591, Note_on_c, 0, 68, 46
1, 162594, Note_on_c, 0, 60, 38
1, 162819, Note_on_c, 0, 60, 0
1, 162819, Note_on_c, 0, 68, 0
1, 162819, Note_on_c, 0, 70, 51
1, 162822, Note_on_c, 0, 61, 42
1, 163041, Note_on_c, 0, 61, 0
1, 163041, Note_on_c, 0, 70, 0
1, 163041, Note_on_c, 0, 67, 46
1, 163044, Note_on_c, 0, 58, 39
1, 163271, Note_on_c, 0, 58, 0
1, 163271, Note_on_c, 0, 67, 0
1, 163271, Note_on_c, 0, 68, 47
1, 163274, Note_on_c, 0, 60, 36
1, 163504, Note_on_c, 0, 68, 0
1, 163504, Note_on_c, 0, 65, 0
1, 163504, Note_on_c, 0, 63, 62
1, 163507, Note_on_c, 0, 60, 0
1, 163507, Note_on_c, 0, 70, 45
1, 163507, Note_on_c, 0, 61, 41
1, 163735, Note_on_c, 0, 61, 0
1, 163735, Note_on_c, 0, 70, 0
1, 163735, Note_on_c, 0, 67, 46
1, 163738, Note_on_c, 0, 58, 38
1, 163958, Note_on_c, 0, 58, 0
1, 163958, Note_on_c, 0, 67, 0
1, 163958, Note_on_c, 0, 68, 46
1, 163961, Note_on_c, 0, 60, 38
1, 164177, Note_on_c, 0, 60, 0
1, 164177, Note_on_c, 0, 68, 0
1, 164177, Note_on_c, 0, 70, 47
1, 164180, Note_on_c, 0, 61, 42
1, 164400, Note_on_c, 0, 61, 0
1, 164400, Note_on_c, 0, 70, 0
1, 164400, Note_on_c, 0, 73, 51
1, 164403, Note_on_c, 0, 58, 39
1, 164629, Note_on_c, 0, 58, 0
1, 164629, Note_on_c, 0, 73, 0
1, 164629, Note_on_c, 0, 72, 47
1, 164632, Note_on_c, 0, 56, 39
1, 164868, Note_on_c, 0, 72, 0
1, 164868, Note_on_c, 0, 63, 0
1, 164868, Note_on_c, 0, 70, 47
1, 164871, Note_on_c, 0, 51, 0
1, 164871, Note_on_c, 0, 56, 0
1, 164871, Note_on_c, 0, 55, 38
1, 164874, Note_on_c, 0, 51, 46
1, 165099, Note_on_c, 0, 55, 0
1, 165099, Note_on_c, 0, 70, 0
1, 165099, Note_on_c, 0, 73, 52
1, 165102, Note_on_c, 0, 58, 38
1, 165322, Note_on_c, 0, 58, 0
1, 165322, Note_on_c, 0, 73, 0
1, 165322, Note_on_c, 0, 72, 47
1, 165325, Note_on_c, 0, 56, 38
1, 165550, Note_on_c, 0, 72, 0
1, 165550, Note_on_c, 0, 75, 76
1, 165550, Note_on_c, 0, 70, 57
1, 165553, Note_on_c, 0, 56, 0
1, 165553, Note_on_c, 0, 55, 42
1, 165772, Note_on_c, 0, 55, 0
1, 165772, Note_on_c, 0, 70, 0
1, 165772, Note_on_c, 0, 67, 46
1, 165775, Note_on_c, 0, 58, 39
1, 166002, Note_on_c, 0, 58, 0
1, 166002, Note_on_c, 0, 67, 0
1, 166002, Note_on_c, 0, 68, 47
1, 166005, Note_on_c, 0, 60, 36
1, 166235, Note_on_c, 0, 60, 0
1, 166235, Note_on_c, 0, 68, 0
1, 166235, Note_on_c, 0, 70, 51
1, 166238, Note_on_c, 0, 61, 41
1, 166466, Note_on_c, 0, 61, 0
1, 166466, Note_on_c, 0, 70, 0
1, 166466, Note_on_c, 0, 68, 46
1, 166469, Note_on_c, 0, 65, 38
1, 166689, Note_on_c, 0, 65, 0
1, 166689, Note_on_c, 0, 68, 0
1, 166689, Note_on_c, 0, 67, 46
1, 166692, Note_on_c, 0, 63, 38
1, 166905, Note_on_c, 0, 67, 0
1, 166908, Note_on_c, 0, 75, 0
1, 166908, Note_on_c, 0, 67, 68
1, 166908, Note_on_c, 0, 65, 57
1, 166911, Note_on_c, 0, 63, 0
1, 166911, Note_on_c, 0, 61, 42
1, 167129, Note_on_c, 0, 61, 0
1, 167129, Note_on_c, 0, 65, 0
1, 167129, Note_on_c, 0, 60, 39
1, 167129, Note_on_c, 0, 63, 46
1, 167358, Note_on_c, 0, 63, 0
1, 167358, Note_on_c, 0, 60, 0
1, 167358, Note_on_c, 0, 61, 46
1, 167361, Note_on_c, 0, 58, 39
1, 167599, Note_on_c, 0, 61, 0
1, 167599, Note_on_c, 0, 67, 0
1, 167599, Note_on_c, 0, 70, 76
1, 167602, Note_on_c, 0, 51, 0
1, 167602, Note_on_c, 0, 58, 0
1, 167602, Note_on_c, 0, 51, 46
1, 167830, Note_on_c, 0, 60, 52
1, 167830, Note_on_c, 0, 56, 38
1, 168052, Note_on_c, 0, 56, 0
1, 168052, Note_on_c, 0, 60, 0
1, 168052, Note_on_c, 0, 61, 47
1, 168055, Note_on_c, 0, 58, 38
1, 168280, Note_on_c, 0, 61, 0
1, 168280, Note_on_c, 0, 70, 0
1, 168280, Note_on_c, 0, 68, 72
1, 168283, Note_on_c, 0, 58, 0
1, 168283, Note_on_c, 0, 63, 60
1, 168283, Note_on_c, 0, 60, 42
1, 168500, Note_on_c, 0, 60, 0
1, 168503, Note_on_c, 0, 63, 0
1, 168503, Note_on_c, 0, 60, 46
1, 168503, Note_on_c, 0, 56, 39
1, 168732, Note_on_c, 0, 56, 0
1, 168732, Note_on_c, 0, 60, 0
1, 168732, Note_on_c, 0, 61, 47
1, 168735, Note_on_c, 0, 58, 36
1, 168965, Note_on_c, 0, 61, 0
1, 168965, Note_on_c, 0, 68, 0
1, 168965, Note_on_c, 0, 63, 51
1, 168968, Note_on_c, 0, 58, 0
1, 168968, Note_on_c, 0, 60, 41
1, 169194, Note_on_c, 0, 60, 0
1, 169197, Note_on_c, 0, 63, 0
1, 169197, Note_on_c, 0, 60, 46
1, 169197, Note_on_c, 0, 56, 38
1, 169308, Note_on_c, 0, 68, 68
1, 169419, Note_on_c, 0, 56, 0
1, 169419, Note_on_c, 0, 60, 0
1, 169419, Note_on_c, 0, 61, 46
1, 169422, Note_on_c, 0, 58, 38
1, 169639, Note_on_c, 0, 61, 0
1, 169639, Note_on_c, 0, 68, 0
1, 169639, Note_on_c, 0, 68, 70
1, 169642, Note_on_c, 0, 58, 0
1, 169642, Note_on_c, 0, 63, 58
1, 169642, Note_on_c, 0, 60, 42
1, 169861, Note_on_c, 0, 60, 0
1, 169861, Note_on_c, 0, 63, 0
1, 169861, Note_on_c, 0, 61, 46
1, 169864, Note_on_c, 0, 58, 39
1, 169975, Note_on_c, 0, 68, 0
1, 169975, Note_on_c, 0, 65, 67
1, 170089, Note_on_c, 0, 58, 0
1, 170089, Note_on_c, 0, 61, 0
1, 170089, Note_on_c, 0, 60, 46
1, 170092, Note_on_c, 0, 56, 39
1, 170320, Note_on_c, 0, 60, 0
1, 170320, Note_on_c, 0, 65, 0
1, 170320, Note_on_c, 0, 63, 79
1, 170323, Note_on_c, 0, 51, 0
1, 170323, Note_on_c, 0, 56, 0
1, 170323, Note_on_c, 0, 51, 46
1, 170366, Control_c, 0, 64, 127
1, 170551, Note_on_c, 0, 56, 52
1, 170551, Note_on_c, 0, 53, 38
1, 170774, Note_on_c, 0, 53, 0
1, 170774, Note_on_c, 0, 56, 0
1, 170774, Note_on_c, 0, 58, 47
1, 170777, Note_on_c, 0, 55, 38
1, 171002, Note_on_c, 0, 55, 0
1, 171002, Note_on_c, 0, 58, 0
1, 171002, Note_on_c, 0, 59, 52
1, 171005, Note_on_c, 0, 56, 43
1, 171011, Control_c, 0, 64, 0
1, 171031, Control_c, 0, 64, 127
1, 171221, Note_on_c, 0, 56, 0
1, 171224, Note_on_c, 0, 59, 0
1, 171224, Note_on_c, 0, 56, 47
1, 171224, Note_on_c, 0, 53, 41
1, 171454, Note_on_c, 0, 53, 0
1, 171454, Note_on_c, 0, 56, 0
1, 171454, Note_on_c, 0, 58, 53
1, 171457, Note_on_c, 0, 55, 37
1, 171687, Note_on_c, 0, 58, 0
1, 171687, Note_on_c, 0, 63, 0
1, 171687, Note_on_c, 0, 62, 76
1, 171690, Note_on_c, 0, 55, 0
1, 171690, Note_on_c, 0, 59, 56
1, 171690, Note_on_c, 0, 56, 46
1, 171697, Control_c, 0, 64, 0
1, 171743, Control_c, 0, 64, 127
1, 172032, Note_on_c, 0, 62, 0
1, 172148, Note_on_c, 0, 56, 0
1, 172148, Note_on_c, 0, 59, 0
1, 172148, Note_on_c, 0, 58, 58
1, 172151, Note_on_c, 0, 55, 43
1, 172405, Note_on_c, 0, 58, 0
1, 172408, Note_on_c, 0, 55, 0
1, 172408, Note_on_c, 0, 58, 81
1, 172408, Note_on_c, 0, 56, 64
1, 172411, Note_on_c, 0, 53, 52
1, 172420, Control_c, 0, 64, 0
1, 172652, Note_on_c, 0, 53, 0
1, 172652, Note_on_c, 0, 56, 0
1, 172652, Note_on_c, 0, 55, 62
1, 172655, Note_on_c, 0, 51, 0
1, 172655, Note_on_c, 0, 51, 46
1, 172676, Control_c, 0, 64, 127
1, 172895, Note_on_c, 0, 51, 0
1, 172895, Note_on_c, 0, 55, 0
1, 172895, Note_on_c, 0, 56, 62
1, 172898, Note_on_c, 0, 50, 47
1, 173158, Note_on_c, 0, 56, 0
1, 173158, Note_on_c, 0, 58, 0
1, 173158, Note_on_c, 0, 67, 86
1, 173161, Note_on_c, 0, 50, 0
1, 173161, Note_on_c, 0, 39, 53
1, 173165, Control_c, 0, 64, 0
1, 173216, Control_c, 0, 64, 127
1, 173397, Note_on_c, 0, 55, 61
1, 173397, Note_on_c, 0, 46, 47
1, 173620, Note_on_c, 0, 46, 0
1, 173620, Note_on_c, 0, 55, 0
1, 173620, Note_on_c, 0, 58, 63
1, 173623, Note_on_c, 0, 51, 49
1, 173848, Note_on_c, 0, 51, 0
1, 173848, Note_on_c, 0, 58, 0
1, 173848, Note_on_c, 0, 63, 65
1, 173851, Note_on_c, 0, 39, 0
1, 173851, Note_on_c, 0, 55, 53
1, 174065, Note_on_c, 0, 55, 0
1, 174065, Note_on_c, 0, 63, 0
1, 174065, Note_on_c, 0, 58, 58
1, 174068, Note_on_c, 0, 51, 47
1, 174180, Note_on_c, 0, 67, 0
1, 174180, Note_on_c, 0, 68, 79
1, 174294, Note_on_c, 0, 51, 0
1, 174294, Note_on_c, 0, 58, 0
1, 174294, Note_on_c, 0, 55, 58
1, 174297, Note_on_c, 0, 46, 49
1, 174533, Note_on_c, 0, 55, 0
1, 174533, Note_on_c, 0, 68, 0
1, 174533, Note_on_c, 0, 70, 86
1, 174536, Note_on_c, 0, 46, 0
1, 174536, Note_on_c, 0, 39, 55
1, 174547, Control_c, 0, 64, 0
1, 174610, Control_c, 0, 64, 127
1, 174764, Note_on_c, 0, 55, 58
1, 174764, Note_on_c, 0, 46, 52
1, 174987, Note_on_c, 0, 46, 0
1, 174987, Note_on_c, 0, 55, 0
1, 174987, Note_on_c, 0, 58, 59
1, 174990, Note_on_c, 0, 51, 52
1, 175216, Note_on_c, 0, 58, 0
1, 175216, Note_on_c, 0, 70, 0
1, 175216, Note_on_c, 0, 63, 82
1, 175219, Note_on_c, 0, 39, 0
1, 175219, Note_on_c, 0, 51, 0
1, 175219, Note_on_c, 0, 55, 56
1, 175439, Note_on_c, 0, 55, 0
1, 175439, Note_on_c, 0, 58, 58
1, 175439, Note_on_c, 0, 51, 52
1, 175668, Note_on_c, 0, 51, 0
1, 175668, Note_on_c, 0, 58, 0
1, 175668, Note_on_c, 0, 55, 58
1, 175671, Note_on_c, 0, 46, 52
1, 175907, Note_on_c, 0, 55, 0
1, 175907, Note_on_c, 0, 63, 0
1, 175907, Note_on_c, 0, 68, 89
1, 175910, Note_on_c, 0, 46, 0
1, 175910, Note_on_c, 0, 39, 65
1, 175922, Control_c, 0, 64, 0
1, 176012, Control_c, 0, 64, 127
1, 176143, Note_on_c, 0, 56, 70
1, 176143, Note_on_c, 0, 50, 49
1, 176362, Note_on_c, 0, 50, 0
1, 176362, Note_on_c, 0, 56, 0
1, 176362, Note_on_c, 0, 58, 72
1, 176365, Note_on_c, 0, 53, 49
1, 176584, Note_on_c, 0, 53, 0
1, 176584, Note_on_c, 0, 58, 0
1, 176584, Note_on_c, 0, 62, 76
1, 176587, Note_on_c, 0, 39, 0
1, 176587, Note_on_c, 0, 56, 58
1, 176802, Note_on_c, 0, 56, 0
1, 176802, Note_on_c, 0, 62, 0
1, 176802, Note_on_c, 0, 65, 72
1, 176805, Note_on_c, 0, 58, 51
1, 177021, Note_on_c, 0, 58, 0
1, 177021, Note_on_c, 0, 65, 0
1, 177021, Note_on_c, 0, 70, 72
1, 177024, Note_on_c, 0, 62, 51
1, 177239, Note_on_c, 0, 62, 0
1, 177239, Note_on_c, 0, 70, 0
1, 177239, Note_on_c, 0, 74, 75
1, 177242, Note_on_c, 0, 65, 57
1, 177461, Note_on_c, 0, 65, 0
1, 177461, Note_on_c, 0, 74, 0
1, 177461, Note_on_c, 0, 77, 68
1, 177464, Note_on_c, 0, 70, 46
1, 177703, Note_on_c, 0, 70, 0
1, 177703, Note_on_c, 0, 77, 0
1, 177703, Note_on_c, 0, 80, 65
1, 177706, Note_on_c, 0, 74, 44
1, 177966, Note_on_c, 0, 74, 0
1, 177966, Note_on_c, 0, 80, 0
1, 177966, Note_on_c, 0, 82, 60
1, 177969, Note_on_c, 0, 77, 40
1, 178382, Note_on_c, 0, 77, 0
1, 178382, Note_on_c, 0, 82, 0
1, 178382, Note_on_c, 0, 86, 51
1, 178385, Note_on_c, 0, 82, 36
1, 178637, Note_on_c, 0, 82, 0
1, 178637, Note_on_c, 0, 86, 0
1, 178892, Note_on_c, 0, 68, 0
1, 178892, Note_on_c, 0, 89, 52
1, 178892, Note_on_c, 0, 86, 38
1, 179106, Note_on_c, 0, 86, 0
1, 179106, Note_on_c, 0, 89, 0
1, 179319, Control_c, 0, 64, 0
1, 179746, Note_on_c, 0, 68, 58
1, 180112, Note_on_c, 0, 68, 0
1, 180112, Note_on_c, 0, 67, 53
1, 180513, Note_on_c, 0, 67, 0
1, 180513, Note_on_c, 0, 67, 56
1, 180887, Note_on_c, 0, 67, 0
1, 180887, Note_on_c, 0, 65, 54
1, 181296, Note_on_c, 0, 65, 0
1, 181296, Note_on_c, 0, 63, 51
1, 181645, Note_on_c, 0, 63, 0
1, 181676, Note_on_c, 0, 62, 49
1, 182044, Note_on_c, 0, 62, 0
1, 182077, Note_on_c, 0, 65, 58
1, 182077, Note_on_c, 0, 39, 41
1, 182137, Control_c, 0, 64, 127
1, 182321, Note_on_c, 0, 55, 46
1, 182321, Note_on_c, 0, 46, 35
1, 182547, Note_on_c, 0, 46, 0
1, 182547, Note_on_c, 0, 55, 0
1, 182547, Note_on_c, 0, 58, 43
1, 182550, Note_on_c, 0, 51, 36
1, 182778, Note_on_c, 0, 51, 0
1, 182778, Note_on_c, 0, 58, 0
1, 182778, Note_on_c, 0, 67, 51
1, 182781, Note_on_c, 0, 39, 0
1, 182781, Note_on_c, 0, 55, 41
1, 183010, Note_on_c, 0, 55, 0
1, 183010, Note_on_c, 0, 67, 0
1, 183010, Note_on_c, 0, 58, 40
1, 183013, Note_on_c, 0, 51, 38
1, 183236, Note_on_c, 0, 51, 0
1, 183236, Note_on_c, 0, 58, 0
1, 183236, Note_on_c, 0, 55, 40
1, 183239, Note_on_c, 0, 46, 38
1, 183467, Note_on_c, 0, 46, 0
1, 183467, Note_on_c, 0, 55, 0
1, 183467, Note_on_c, 0, 39, 42
1, 183693, Note_on_c, 0, 55, 42
1, 183693, Note_on_c, 0, 46, 38
1, 183919, Note_on_c, 0, 46, 0
1, 183919, Note_on_c, 0, 55, 0
1, 183919, Note_on_c, 0, 58, 41
1, 183922, Note_on_c, 0, 51, 38
1, 184150, Note_on_c, 0, 58, 0
1, 184150, Note_on_c, 0, 65, 0
1, 184150, Note_on_c, 0, 63, 58
1, 184153, Note_on_c, 0, 39, 0
1, 184153, Note_on_c, 0, 51, 0
1, 184153, Note_on_c, 0, 67, 42
1, 184156, Note_on_c, 0, 55, 38
1, 184165, Control_c, 0, 64, 0
1, 184227, Control_c, 0, 64, 127
1, 184381, Note_on_c, 0, 55, 0
1, 184381, Note_on_c, 0, 67, 0
1, 184381, Note_on_c, 0, 58, 41
1, 184384, Note_on_c, 0, 51, 36
1, 184613, Note_on_c, 0, 51, 0
1, 184613, Note_on_c, 0, 58, 0
1, 184613, Note_on_c, 0, 55, 41
1, 184616, Note_on_c, 0, 46, 36
1, 184844, Note_on_c, 0, 55, 0
1, 184844, Note_on_c, 0, 63, 0
1, 184844, Note_on_c, 0, 63, 58
1, 184847, Note_on_c, 0, 46, 0
1, 184847, Note_on_c, 0, 39, 41
1, 185081, Note_on_c, 0, 55, 45
1, 185318, Note_on_c, 0, 55, 0
1, 185318, Note_on_c, 0, 58, 41
1, 185558, Note_on_c, 0, 58, 0
1, 185558, Note_on_c, 0, 39, 0
1, 185558, Note_on_c, 0, 67, 49
1, 185799, Note_on_c, 0, 67, 0
1, 185799, Note_on_c, 0, 58, 37
1, 186040, Note_on_c, 0, 58, 0
1, 186040, Note_on_c, 0, 55, 37
1, 186278, Note_on_c, 0, 55, 0
1, 186278, Note_on_c, 0, 39, 38
1, 186546, Note_on_c, 0, 55, 37
1, 186814, Note_on_c, 0, 55, 0
1, 186814, Note_on_c, 0, 58, 36
1, 187094, Note_on_c, 0, 58, 0
1, 187094, Note_on_c, 0, 39, 0
1, 187094, Note_on_c, 0, 67, 38
1, 187396, Note_on_c, 0, 67, 0
1, 187396, Note_on_c, 0, 58, 34
1, 187734, Note_on_c, 0, 55, 34
1, 188278, Note_on_c, 0, 39, 28
1, 191761, Note_on_c, 0, 55, 0
1, 191761, Note_on_c, 0, 63, 0
1, 191761, Note_on_c, 0, 58, 0
1, 191764, Note_on_c, 0, 39, 0
1, 192957, Control_c, 0, 64, 0
1, 192957, End_track
0, 0, End_of_file
