0, 0, Header, 1, 2, 120
1, 0, Start_track
1, 0, Title_t, "Piano Concerto G-min"
1, 0, Time_signature, 4, 2, 24, 8
1, 0, Key_signature, -1, "major"
1, 0, Tempo, 342857
1, 3120, Tempo, 382166
1, 3240, Tempo, 428571
1, 3360, Tempo, 342857
1, 4800, Tempo, 458015
1, 4920, Tempo, 405405
1, 5040, Tempo, 342857
1, 6720, Tempo, 428571
1, 6840, Tempo, 382166
1, 6960, Tempo, 342857
1, 19680, Tempo, 372671
1, 19800, Tempo, 342857
1, 20160, Tempo, 372671
1, 20280, Tempo, 342857
1, 20640, Tempo, 372671
1, 20760, Tempo, 342857
1, 21120, Tempo, 372671
1, 21240, Tempo, 342857
1, 21600, Tempo, 372671
1, 21720, Tempo, 342857
1, 24240, Tempo, 355030
1, 24480, Tempo, 342857
1, 24720, Tempo, 355030
1, 24960, Tempo, 342857
1, 26160, Tempo, 355030
1, 26400, Tempo, 342857
1, 26640, Tempo, 355030
1, 26880, Tempo, 342857
1, 28080, Tempo, 355030
1, 28320, Tempo, 342857
1, 28560, Tempo, 355030
1, 28800, Tempo, 342857
1, 36120, Tempo, 361446
1, 36240, Tempo, 382166
1, 36360, Tempo, 405405
1, 36480, Tempo, 458015
1, 36960, Tempo, 491803
1, 37200, Tempo, 458015
1, 38520, Tempo, 483871
1, 38700, Tempo, 521739
1, 38880, Tempo, 555556
1, 39060, Tempo, 594059
1, 39240, Tempo, 689655
1, 39360, Tempo, 458015
1, 39840, Tempo, 491803
1, 40200, Tempo, 476190
1, 40320, Tempo, 504202
1, 40620, Tempo, 476190
1, 40800, Tempo, 458015
1, 58080, Tempo, 240000
1, 59040, Tempo, 458015
1, 76560, Tempo, 491803
1, 76680, Tempo, 458015
1, 84960, Tempo, 472441
1, 85200, Tempo, 512821
1, 85440, Tempo, 566038
1, 85680, Tempo, 625000
1, 85920, Tempo, 458015
1, 91200, Tempo, 476190
1, 91320, Tempo, 458015
1, 92160, Tempo, 476190
1, 92280, Tempo, 458015
1, 102360, Tempo, 447761
1, 103080, Tempo, 491803
1, 103200, Tempo, 458015
1, 103320, Tempo, 447761
1, 104040, Tempo, 491803
1, 104160, Tempo, 458015
1, 104880, Tempo, 472441
1, 105000, Tempo, 504202
1, 105120, Tempo, 458015
1, 107280, Tempo, 491803
1, 107310, Tempo, 458015
1, 108240, Tempo, 491803
1, 108360, Tempo, 458015
1, 110160, Tempo, 491803
1, 110280, Tempo, 458015
1, 111360, Tempo, 240000
1, 112320, Tempo, 458015
1, 117120, Tempo, 476190
1, 117180, Tempo, 458015
1, 117360, Tempo, 476190
1, 117420, Tempo, 458015
1, 117480, Tempo, 476190
1, 117540, Tempo, 458015
1, 118080, Tempo, 476190
1, 118140, Tempo, 458015
1, 118320, Tempo, 476190
1, 118380, Tempo, 458015
1, 130080, Tempo, 451128
1, 130320, Tempo, 476190
1, 130560, Tempo, 504202
1, 130800, Tempo, 594059
1, 130920, Tempo, 689655
1, 131040, Tempo, 821918
1, 131280, Tempo, 983607
1, 142920, Tempo, 342857
1, 144360, Tempo, 689655
1, 149760, Tempo, 342857
1, 149760, End_track
2, 0, Start_track
2, 0, Title_t, "Mendelssohn: Op. 25"
2, 0, Program_c, 0, 0
2, 0, Control_c, 0, 7, 115
2, 0, Control_c, 0, 10, 64
2, 0, Note_on_c, 0, 55, 56
2, 0, Note_on_c, 0, 50, 56
2, 0, Note_on_c, 0, 46, 56
2, 0, Note_on_c, 0, 31, 56
2, 30, Note_on_c, 0, 31, 0
2, 30, Note_on_c, 0, 43, 56
2, 60, Note_on_c, 0, 43, 0
2, 60, Note_on_c, 0, 31, 56
2, 90, Note_on_c, 0, 31, 0
2, 90, Note_on_c, 0, 43, 56
2, 120, Note_on_c, 0, 43, 0
2, 120, Note_on_c, 0, 31, 56
2, 150, Note_on_c, 0, 31, 0
2, 150, Note_on_c, 0, 43, 56
2, 180, Note_on_c, 0, 43, 0
2, 180, Note_on_c, 0, 31, 56
2, 210, Note_on_c, 0, 31, 0
2, 210, Note_on_c, 0, 43, 56
2, 240, Note_on_c, 0, 43, 0
2, 240, Note_on_c, 0, 31, 56
2, 270, Note_on_c, 0, 31, 0
2, 270, Note_on_c, 0, 43, 56
2, 300, Note_on_c, 0, 43, 0
2, 300, Note_on_c, 0, 31, 56
2, 330, Note_on_c, 0, 31, 0
2, 330, Note_on_c, 0, 43, 56
2, 360, Note_on_c, 0, 43, 0
2, 360, Note_on_c, 0, 46, 0
2, 360, Note_on_c, 0, 50, 0
2, 360, Note_on_c, 0, 55, 0
2, 360, Note_on_c, 0, 57, 56
2, 360, Note_on_c, 0, 54, 56
2, 360, Note_on_c, 0, 48, 56
2, 360, Note_on_c, 0, 31, 56
2, 390, Note_on_c, 0, 31, 0
2, 390, Note_on_c, 0, 43, 56
2, 420, Note_on_c, 0, 43, 0
2, 420, Note_on_c, 0, 31, 56
2, 450, Note_on_c, 0, 31, 0
2, 450, Note_on_c, 0, 43, 56
2, 480, Note_on_c, 0, 43, 0
2, 480, Note_on_c, 0, 48, 0
2, 480, Note_on_c, 0, 54, 0
2, 480, Note_on_c, 0, 57, 0
2, 480, Note_on_c, 0, 58, 62
2, 480, Note_on_c, 0, 55, 62
2, 480, Note_on_c, 0, 50, 62
2, 480, Note_on_c, 0, 31, 62
2, 600, Note_on_c, 0, 31, 0
2, 600, Note_on_c, 0, 43, 62
2, 720, Note_on_c, 0, 43, 0
2, 720, Note_on_c, 0, 31, 62
2, 840, Note_on_c, 0, 31, 0
2, 840, Note_on_c, 0, 58, 0
2, 840, Note_on_c, 0, 55, 0
2, 840, Note_on_c, 0, 50, 0
2, 840, Note_on_c, 0, 59, 67
2, 840, Note_on_c, 0, 56, 67
2, 840, Note_on_c, 0, 53, 67
2, 840, Note_on_c, 0, 43, 67
2, 960, Note_on_c, 0, 43, 0
2, 960, Note_on_c, 0, 59, 0
2, 960, Note_on_c, 0, 56, 0
2, 960, Note_on_c, 0, 53, 0
2, 960, Note_on_c, 0, 60, 67
2, 960, Note_on_c, 0, 55, 67
2, 960, Note_on_c, 0, 51, 67
2, 960, Note_on_c, 0, 43, 67
2, 1080, Note_on_c, 0, 43, 0
2, 1080, Note_on_c, 0, 60, 0
2, 1080, Note_on_c, 0, 55, 0
2, 1080, Note_on_c, 0, 51, 0
2, 1080, Note_on_c, 0, 62, 67
2, 1080, Note_on_c, 0, 59, 67
2, 1080, Note_on_c, 0, 55, 67
2, 1080, Note_on_c, 0, 55, 67
2, 1200, Note_on_c, 0, 55, 0
2, 1200, Note_on_c, 0, 62, 0
2, 1200, Note_on_c, 0, 59, 0
2, 1200, Note_on_c, 0, 55, 0
2, 1200, Note_on_c, 0, 63, 72
2, 1200, Note_on_c, 0, 60, 72
2, 1200, Note_on_c, 0, 55, 72
2, 1200, Note_on_c, 0, 43, 72
2, 1320, Note_on_c, 0, 43, 0
2, 1320, Note_on_c, 0, 63, 0
2, 1320, Note_on_c, 0, 60, 0
2, 1320, Note_on_c, 0, 55, 0
2, 1320, Note_on_c, 0, 64, 72
2, 1320, Note_on_c, 0, 61, 72
2, 1320, Note_on_c, 0, 58, 72
2, 1320, Note_on_c, 0, 55, 72
2, 1440, Note_on_c, 0, 55, 0
2, 1440, Note_on_c, 0, 64, 0
2, 1440, Note_on_c, 0, 61, 0
2, 1440, Note_on_c, 0, 58, 0
2, 1440, Note_on_c, 0, 65, 72
2, 1440, Note_on_c, 0, 60, 72
2, 1440, Note_on_c, 0, 57, 72
2, 1440, Note_on_c, 0, 43, 75
2, 1560, Note_on_c, 0, 43, 0
2, 1560, Note_on_c, 0, 65, 0
2, 1560, Note_on_c, 0, 60, 0
2, 1560, Note_on_c, 0, 57, 0
2, 1560, Channel_aftertouch_c, 0, 97
2, 1560, Note_on_c, 0, 66, 77
2, 1560, Note_on_c, 0, 63, 77
2, 1560, Note_on_c, 0, 60, 77
2, 1560, Note_on_c, 0, 55, 77
2, 1680, Note_on_c, 0, 55, 0
2, 1680, Note_on_c, 0, 66, 0
2, 1680, Note_on_c, 0, 63, 0
2, 1680, Note_on_c, 0, 60, 0
2, 1680, Note_on_c, 0, 67, 77
2, 1680, Note_on_c, 0, 62, 77
2, 1680, Note_on_c, 0, 58, 77
2, 1680, Note_on_c, 0, 43, 77
2, 1800, Note_on_c, 0, 43, 0
2, 1800, Note_on_c, 0, 67, 0
2, 1800, Note_on_c, 0, 62, 0
2, 1800, Note_on_c, 0, 58, 0
2, 1800, Note_on_c, 0, 69, 77
2, 1800, Note_on_c, 0, 66, 77
2, 1800, Note_on_c, 0, 62, 77
2, 1800, Note_on_c, 0, 60, 77
2, 1800, Note_on_c, 0, 55, 77
2, 1920, Note_on_c, 0, 55, 0
2, 1920, Note_on_c, 0, 62, 0
2, 1920, Note_on_c, 0, 69, 0
2, 1920, Note_on_c, 0, 66, 0
2, 1920, Note_on_c, 0, 60, 0
2, 1920, Note_on_c, 0, 70, 84
2, 1920, Note_on_c, 0, 67, 84
2, 1920, Note_on_c, 0, 62, 84
2, 1920, Note_on_c, 0, 58, 84
2, 1920, Note_on_c, 0, 43, 84
2, 1950, Note_on_c, 0, 43, 0
2, 1950, Note_on_c, 0, 55, 84
2, 1980, Note_on_c, 0, 55, 0
2, 1980, Note_on_c, 0, 43, 84
2, 2010, Note_on_c, 0, 43, 0
2, 2010, Note_on_c, 0, 55, 84
2, 2040, Note_on_c, 0, 55, 0
2, 2040, Note_on_c, 0, 58, 0
2, 2040, Note_on_c, 0, 70, 0
2, 2040, Note_on_c, 0, 67, 0
2, 2040, Note_on_c, 0, 62, 0
2, 2040, Note_on_c, 0, 71, 84
2, 2040, Note_on_c, 0, 68, 84
2, 2040, Note_on_c, 0, 62, 84
2, 2040, Note_on_c, 0, 59, 84
2, 2040, Note_on_c, 0, 53, 84
2, 2070, Note_on_c, 0, 53, 0
2, 2070, Note_on_c, 0, 55, 84
2, 2100, Note_on_c, 0, 55, 0
2, 2100, Note_on_c, 0, 53, 84
2, 2130, Note_on_c, 0, 53, 0
2, 2130, Note_on_c, 0, 55, 84
2, 2160, Note_on_c, 0, 55, 0
2, 2160, Note_on_c, 0, 59, 0
2, 2160, Note_on_c, 0, 71, 0
2, 2160, Note_on_c, 0, 68, 0
2, 2160, Note_on_c, 0, 62, 0
2, 2160, Note_on_c, 0, 72, 86
2, 2160, Note_on_c, 0, 67, 86
2, 2160, Note_on_c, 0, 60, 86
2, 2160, Note_on_c, 0, 52, 86
2, 2190, Note_on_c, 0, 52, 0
2, 2190, Note_on_c, 0, 55, 86
2, 2220, Note_on_c, 0, 55, 0
2, 2220, Note_on_c, 0, 52, 86
2, 2250, Note_on_c, 0, 52, 0
2, 2250, Note_on_c, 0, 55, 86
2, 2280, Note_on_c, 0, 55, 0
2, 2280, Note_on_c, 0, 60, 0
2, 2280, Note_on_c, 0, 67, 0
2, 2280, Note_on_c, 0, 72, 0
2, 2280, Note_on_c, 0, 73, 89
2, 2280, Note_on_c, 0, 67, 89
2, 2280, Note_on_c, 0, 61, 89
2, 2280, Note_on_c, 0, 51, 89
2, 2310, Note_on_c, 0, 51, 0
2, 2310, Note_on_c, 0, 55, 89
2, 2340, Note_on_c, 0, 55, 0
2, 2340, Note_on_c, 0, 51, 89
2, 2370, Note_on_c, 0, 51, 0
2, 2370, Note_on_c, 0, 55, 89
2, 2400, Note_on_c, 0, 55, 0
2, 2400, Note_on_c, 0, 61, 0
2, 2400, Note_on_c, 0, 67, 0
2, 2400, Note_on_c, 0, 73, 0
2, 2400, Channel_aftertouch_c, 0, 111
2, 2400, Note_on_c, 0, 74, 91
2, 2400, Note_on_c, 0, 66, 91
2, 2400, Note_on_c, 0, 62, 91
2, 2400, Note_on_c, 0, 38, 91
2, 2520, Note_on_c, 0, 38, 0
2, 2520, Note_on_c, 0, 74, 0
2, 2520, Note_on_c, 0, 66, 0
2, 2520, Note_on_c, 0, 62, 0
2, 2520, Note_on_c, 0, 74, 91
2, 2520, Note_on_c, 0, 69, 91
2, 2520, Note_on_c, 0, 66, 91
2, 2520, Note_on_c, 0, 62, 91
2, 2520, Note_on_c, 0, 57, 91
2, 2520, Note_on_c, 0, 54, 91
2, 2520, Note_on_c, 0, 50, 91
2, 2640, Note_on_c, 0, 50, 0
2, 2640, Note_on_c, 0, 57, 0
2, 2640, Note_on_c, 0, 69, 0
2, 2640, Note_on_c, 0, 66, 0
2, 2640, Note_on_c, 0, 74, 0
2, 2640, Note_on_c, 0, 54, 0
2, 2640, Note_on_c, 0, 62, 0
2, 2640, Note_on_c, 0, 62, 91
2, 2640, Note_on_c, 0, 50, 91
2, 2640, Note_on_c, 0, 38, 91
2, 2760, Note_on_c, 0, 38, 0
2, 2760, Note_on_c, 0, 50, 0
2, 2760, Note_on_c, 0, 62, 0
2, 2760, Note_on_c, 0, 78, 91
2, 2760, Note_on_c, 0, 74, 91
2, 2760, Note_on_c, 0, 69, 91
2, 2760, Note_on_c, 0, 66, 91
2, 2760, Note_on_c, 0, 57, 91
2, 2760, Note_on_c, 0, 54, 91
2, 2760, Note_on_c, 0, 50, 91
2, 2880, Note_on_c, 0, 50, 0
2, 2880, Note_on_c, 0, 57, 0
2, 2880, Note_on_c, 0, 74, 0
2, 2880, Note_on_c, 0, 69, 0
2, 2880, Note_on_c, 0, 78, 0
2, 2880, Note_on_c, 0, 54, 0
2, 2880, Note_on_c, 0, 66, 0
2, 2880, Note_on_c, 0, 62, 91
2, 2880, Note_on_c, 0, 50, 91
2, 2880, Note_on_c, 0, 38, 91
2, 3000, Note_on_c, 0, 38, 0
2, 3000, Note_on_c, 0, 50, 0
2, 3000, Note_on_c, 0, 62, 0
2, 3000, Note_on_c, 0, 81, 91
2, 3000, Note_on_c, 0, 78, 91
2, 3000, Note_on_c, 0, 74, 91
2, 3000, Note_on_c, 0, 69, 91
2, 3000, Note_on_c, 0, 62, 91
2, 3000, Note_on_c, 0, 57, 91
2, 3000, Note_on_c, 0, 54, 91
2, 3000, Note_on_c, 0, 50, 91
2, 3120, Note_on_c, 0, 50, 0
2, 3120, Note_on_c, 0, 81, 0
2, 3120, Note_on_c, 0, 62, 0
2, 3120, Note_on_c, 0, 78, 0
2, 3120, Note_on_c, 0, 74, 0
2, 3120, Note_on_c, 0, 69, 0
2, 3120, Note_on_c, 0, 57, 0
2, 3120, Note_on_c, 0, 54, 0
2, 3120, Note_on_c, 0, 62, 91
2, 3120, Note_on_c, 0, 50, 91
2, 3120, Note_on_c, 0, 38, 91
2, 3240, Note_on_c, 0, 38, 0
2, 3240, Note_on_c, 0, 50, 0
2, 3240, Note_on_c, 0, 62, 0
2, 3240, Note_on_c, 0, 86, 91
2, 3240, Note_on_c, 0, 81, 91
2, 3240, Note_on_c, 0, 78, 91
2, 3240, Note_on_c, 0, 74, 91
2, 3240, Note_on_c, 0, 62, 91
2, 3240, Note_on_c, 0, 57, 91
2, 3240, Note_on_c, 0, 54, 91
2, 3240, Note_on_c, 0, 50, 91
2, 3360, Note_on_c, 0, 50, 0
2, 3360, Note_on_c, 0, 86, 0
2, 3360, Note_on_c, 0, 62, 0
2, 3360, Note_on_c, 0, 81, 0
2, 3360, Note_on_c, 0, 78, 0
2, 3360, Note_on_c, 0, 74, 0
2, 3360, Note_on_c, 0, 57, 0
2, 3360, Note_on_c, 0, 54, 0
2, 3360, Note_on_c, 0, 74, 91
2, 3360, Note_on_c, 0, 62, 91
2, 3360, Note_on_c, 0, 50, 91
2, 3360, Note_on_c, 0, 38, 91
2, 3540, Note_on_c, 0, 38, 0
2, 3540, Note_on_c, 0, 74, 0
2, 3540, Note_on_c, 0, 62, 0
2, 3540, Note_on_c, 0, 50, 0
2, 3540, Note_on_c, 0, 76, 91
2, 3540, Note_on_c, 0, 64, 91
2, 3540, Note_on_c, 0, 52, 91
2, 3540, Note_on_c, 0, 40, 91
2, 3600, Note_on_c, 0, 40, 0
2, 3600, Note_on_c, 0, 76, 0
2, 3600, Note_on_c, 0, 64, 0
2, 3600, Note_on_c, 0, 52, 0
2, 3600, Note_on_c, 0, 78, 91
2, 3600, Note_on_c, 0, 66, 91
2, 3600, Note_on_c, 0, 54, 91
2, 3600, Note_on_c, 0, 42, 91
2, 3660, Note_on_c, 0, 42, 0
2, 3660, Note_on_c, 0, 78, 0
2, 3660, Note_on_c, 0, 66, 0
2, 3660, Note_on_c, 0, 54, 0
2, 3660, Note_on_c, 0, 79, 91
2, 3660, Note_on_c, 0, 67, 91
2, 3660, Note_on_c, 0, 55, 91
2, 3660, Note_on_c, 0, 43, 91
2, 3720, Note_on_c, 0, 43, 0
2, 3720, Note_on_c, 0, 79, 0
2, 3720, Note_on_c, 0, 67, 0
2, 3720, Note_on_c, 0, 55, 0
2, 3720, Note_on_c, 0, 81, 91
2, 3720, Note_on_c, 0, 69, 91
2, 3720, Note_on_c, 0, 57, 91
2, 3720, Note_on_c, 0, 45, 91
2, 3780, Note_on_c, 0, 45, 0
2, 3780, Note_on_c, 0, 81, 0
2, 3780, Note_on_c, 0, 69, 0
2, 3780, Note_on_c, 0, 57, 0
2, 3780, Note_on_c, 0, 82, 91
2, 3780, Note_on_c, 0, 70, 91
2, 3780, Note_on_c, 0, 58, 91
2, 3780, Note_on_c, 0, 46, 91
2, 3840, Note_on_c, 0, 46, 0
2, 3840, Note_on_c, 0, 82, 0
2, 3840, Note_on_c, 0, 70, 0
2, 3840, Note_on_c, 0, 58, 0
2, 3840, Note_on_c, 0, 84, 91
2, 3840, Note_on_c, 0, 72, 91
2, 3840, Note_on_c, 0, 60, 91
2, 3840, Note_on_c, 0, 48, 91
2, 3900, Note_on_c, 0, 48, 0
2, 3900, Note_on_c, 0, 84, 0
2, 3900, Note_on_c, 0, 72, 0
2, 3900, Note_on_c, 0, 60, 0
2, 3900, Note_on_c, 0, 86, 91
2, 3900, Note_on_c, 0, 74, 91
2, 3900, Note_on_c, 0, 62, 91
2, 3900, Note_on_c, 0, 50, 91
2, 3960, Note_on_c, 0, 50, 0
2, 3960, Note_on_c, 0, 86, 0
2, 3960, Note_on_c, 0, 74, 0
2, 3960, Note_on_c, 0, 62, 0
2, 3960, Note_on_c, 0, 87, 91
2, 3960, Note_on_c, 0, 75, 91
2, 3960, Note_on_c, 0, 63, 91
2, 3960, Note_on_c, 0, 51, 91
2, 4020, Note_on_c, 0, 51, 0
2, 4020, Note_on_c, 0, 87, 0
2, 4020, Note_on_c, 0, 75, 0
2, 4020, Note_on_c, 0, 63, 0
2, 4020, Note_on_c, 0, 84, 91
2, 4020, Note_on_c, 0, 72, 91
2, 4020, Note_on_c, 0, 60, 91
2, 4020, Note_on_c, 0, 48, 91
2, 4080, Note_on_c, 0, 48, 0
2, 4080, Note_on_c, 0, 84, 0
2, 4080, Note_on_c, 0, 72, 0
2, 4080, Note_on_c, 0, 60, 0
2, 4080, Note_on_c, 0, 90, 101
2, 4080, Note_on_c, 0, 78, 101
2, 4080, Note_on_c, 0, 66, 101
2, 4080, Note_on_c, 0, 54, 101
2, 4140, Note_on_c, 0, 54, 0
2, 4140, Note_on_c, 0, 90, 0
2, 4140, Note_on_c, 0, 78, 0
2, 4140, Note_on_c, 0, 66, 0
2, 4200, Note_on_c, 0, 69, 84
2, 4200, Note_on_c, 0, 54, 84
2, 4200, Note_on_c, 0, 42, 84
2, 4230, Note_on_c, 0, 69, 0
2, 4230, Note_on_c, 0, 62, 84
2, 4260, Note_on_c, 0, 62, 0
2, 4260, Note_on_c, 0, 42, 0
2, 4260, Note_on_c, 0, 54, 0
2, 4260, Note_on_c, 0, 63, 84
2, 4290, Note_on_c, 0, 63, 0
2, 4290, Note_on_c, 0, 60, 84
2, 4320, Note_on_c, 0, 60, 0
2, 4320, Channel_aftertouch_c, 0, 104
2, 4320, Note_on_c, 0, 72, 84
2, 4320, Note_on_c, 0, 54, 84
2, 4320, Note_on_c, 0, 42, 84
2, 4350, Note_on_c, 0, 72, 0
2, 4350, Note_on_c, 0, 68, 84
2, 4380, Note_on_c, 0, 68, 0
2, 4380, Note_on_c, 0, 42, 0
2, 4380, Note_on_c, 0, 54, 0
2, 4380, Note_on_c, 0, 69, 84
2, 4410, Note_on_c, 0, 69, 0
2, 4410, Note_on_c, 0, 63, 84
2, 4440, Note_on_c, 0, 63, 0
2, 4440, Note_on_c, 0, 75, 84
2, 4440, Note_on_c, 0, 63, 84
2, 4440, Note_on_c, 0, 60, 84
2, 4440, Note_on_c, 0, 57, 84
2, 4440, Note_on_c, 0, 54, 84
2, 4470, Note_on_c, 0, 75, 0
2, 4470, Note_on_c, 0, 71, 84
2, 4500, Note_on_c, 0, 71, 0
2, 4500, Note_on_c, 0, 54, 0
2, 4500, Note_on_c, 0, 63, 0
2, 4500, Note_on_c, 0, 60, 0
2, 4500, Note_on_c, 0, 57, 0
2, 4500, Note_on_c, 0, 72, 84
2, 4530, Note_on_c, 0, 72, 0
2, 4530, Note_on_c, 0, 69, 84
2, 4560, Note_on_c, 0, 69, 0
2, 4560, Note_on_c, 0, 81, 84
2, 4560, Note_on_c, 0, 63, 84
2, 4560, Note_on_c, 0, 60, 84
2, 4560, Note_on_c, 0, 57, 84
2, 4560, Note_on_c, 0, 54, 84
2, 4590, Note_on_c, 0, 81, 0
2, 4590, Note_on_c, 0, 74, 84
2, 4620, Note_on_c, 0, 74, 0
2, 4620, Note_on_c, 0, 54, 0
2, 4620, Note_on_c, 0, 63, 0
2, 4620, Note_on_c, 0, 60, 0
2, 4620, Note_on_c, 0, 57, 0
2, 4620, Note_on_c, 0, 75, 84
2, 4650, Note_on_c, 0, 75, 0
2, 4650, Note_on_c, 0, 72, 84
2, 4680, Note_on_c, 0, 72, 0
2, 4680, Note_on_c, 0, 84, 84
2, 4680, Note_on_c, 0, 63, 84
2, 4680, Note_on_c, 0, 60, 84
2, 4680, Note_on_c, 0, 57, 84
2, 4680, Note_on_c, 0, 54, 84
2, 4710, Note_on_c, 0, 84, 0
2, 4710, Note_on_c, 0, 80, 84
2, 4740, Note_on_c, 0, 80, 0
2, 4740, Note_on_c, 0, 54, 0
2, 4740, Note_on_c, 0, 63, 0
2, 4740, Note_on_c, 0, 60, 0
2, 4740, Note_on_c, 0, 57, 0
2, 4740, Note_on_c, 0, 81, 84
2, 4770, Note_on_c, 0, 81, 0
2, 4770, Note_on_c, 0, 75, 84
2, 4800, Note_on_c, 0, 75, 0
2, 4800, Note_on_c, 0, 84, 96
2, 4800, Note_on_c, 0, 81, 96
2, 4800, Note_on_c, 0, 75, 96
2, 4800, Note_on_c, 0, 63, 96
2, 4800, Note_on_c, 0, 60, 96
2, 4800, Note_on_c, 0, 57, 96
2, 4800, Note_on_c, 0, 54, 96
2, 4920, Note_on_c, 0, 54, 0
2, 4920, Note_on_c, 0, 60, 0
2, 4920, Note_on_c, 0, 81, 0
2, 4920, Note_on_c, 0, 75, 0
2, 4920, Note_on_c, 0, 84, 0
2, 4920, Note_on_c, 0, 57, 0
2, 4920, Note_on_c, 0, 63, 0
2, 4920, Note_on_c, 0, 83, 84
2, 4920, Note_on_c, 0, 79, 84
2, 4920, Note_on_c, 0, 74, 84
2, 4920, Note_on_c, 0, 62, 84
2, 4920, Note_on_c, 0, 59, 84
2, 4920, Note_on_c, 0, 55, 84
2, 4980, Note_on_c, 0, 55, 0
2, 4980, Note_on_c, 0, 79, 0
2, 4980, Note_on_c, 0, 74, 0
2, 4980, Note_on_c, 0, 83, 0
2, 4980, Note_on_c, 0, 59, 0
2, 4980, Note_on_c, 0, 62, 0
2, 5160, Note_on_c, 0, 79, 91
2, 5160, Note_on_c, 0, 74, 91
2, 5160, Note_on_c, 0, 71, 91
2, 5160, Note_on_c, 0, 67, 91
2, 5160, Note_on_c, 0, 55, 91
2, 5160, Note_on_c, 0, 50, 91
2, 5160, Note_on_c, 0, 47, 91
2, 5160, Note_on_c, 0, 43, 91
2, 5280, Note_on_c, 0, 43, 0
2, 5280, Note_on_c, 0, 79, 0
2, 5280, Note_on_c, 0, 55, 0
2, 5280, Note_on_c, 0, 74, 0
2, 5280, Note_on_c, 0, 71, 0
2, 5280, Note_on_c, 0, 67, 0
2, 5280, Note_on_c, 0, 50, 0
2, 5280, Note_on_c, 0, 47, 0
2, 5280, Note_on_c, 0, 67, 91
2, 5280, Note_on_c, 0, 55, 91
2, 5280, Note_on_c, 0, 43, 91
2, 5280, Note_on_c, 0, 31, 91
2, 5460, Note_on_c, 0, 31, 0
2, 5460, Note_on_c, 0, 67, 0
2, 5460, Note_on_c, 0, 55, 0
2, 5460, Note_on_c, 0, 43, 0
2, 5460, Note_on_c, 0, 69, 91
2, 5460, Note_on_c, 0, 57, 91
2, 5460, Note_on_c, 0, 45, 91
2, 5460, Note_on_c, 0, 33, 91
2, 5520, Note_on_c, 0, 33, 0
2, 5520, Note_on_c, 0, 69, 0
2, 5520, Note_on_c, 0, 57, 0
2, 5520, Note_on_c, 0, 45, 0
2, 5520, Note_on_c, 0, 71, 91
2, 5520, Note_on_c, 0, 59, 91
2, 5520, Note_on_c, 0, 47, 91
2, 5520, Note_on_c, 0, 35, 91
2, 5580, Note_on_c, 0, 35, 0
2, 5580, Note_on_c, 0, 71, 0
2, 5580, Note_on_c, 0, 59, 0
2, 5580, Note_on_c, 0, 47, 0
2, 5580, Note_on_c, 0, 72, 91
2, 5580, Note_on_c, 0, 60, 91
2, 5580, Note_on_c, 0, 48, 91
2, 5580, Note_on_c, 0, 36, 91
2, 5640, Note_on_c, 0, 36, 0
2, 5640, Note_on_c, 0, 72, 0
2, 5640, Note_on_c, 0, 60, 0
2, 5640, Note_on_c, 0, 48, 0
2, 5640, Note_on_c, 0, 74, 91
2, 5640, Note_on_c, 0, 62, 91
2, 5640, Note_on_c, 0, 50, 91
2, 5640, Note_on_c, 0, 38, 91
2, 5700, Note_on_c, 0, 38, 0
2, 5700, Note_on_c, 0, 74, 0
2, 5700, Note_on_c, 0, 62, 0
2, 5700, Note_on_c, 0, 50, 0
2, 5700, Note_on_c, 0, 75, 91
2, 5700, Note_on_c, 0, 63, 91
2, 5700, Note_on_c, 0, 51, 91
2, 5700, Note_on_c, 0, 39, 91
2, 5760, Note_on_c, 0, 39, 0
2, 5760, Note_on_c, 0, 75, 0
2, 5760, Note_on_c, 0, 63, 0
2, 5760, Note_on_c, 0, 51, 0
2, 5760, Note_on_c, 0, 77, 91
2, 5760, Note_on_c, 0, 65, 91
2, 5760, Note_on_c, 0, 53, 91
2, 5760, Note_on_c, 0, 41, 91
2, 5820, Note_on_c, 0, 41, 0
2, 5820, Note_on_c, 0, 77, 0
2, 5820, Note_on_c, 0, 65, 0
2, 5820, Note_on_c, 0, 53, 0
2, 5820, Note_on_c, 0, 79, 91
2, 5820, Note_on_c, 0, 67, 91
2, 5820, Note_on_c, 0, 55, 91
2, 5820, Note_on_c, 0, 43, 91
2, 5880, Note_on_c, 0, 43, 0
2, 5880, Note_on_c, 0, 79, 0
2, 5880, Note_on_c, 0, 67, 0
2, 5880, Note_on_c, 0, 55, 0
2, 5880, Note_on_c, 0, 80, 91
2, 5880, Note_on_c, 0, 68, 91
2, 5880, Note_on_c, 0, 56, 91
2, 5880, Note_on_c, 0, 44, 91
2, 5940, Note_on_c, 0, 44, 0
2, 5940, Note_on_c, 0, 80, 0
2, 5940, Note_on_c, 0, 68, 0
2, 5940, Note_on_c, 0, 56, 0
2, 5940, Note_on_c, 0, 77, 91
2, 5940, Note_on_c, 0, 65, 91
2, 5940, Note_on_c, 0, 53, 91
2, 5940, Note_on_c, 0, 41, 91
2, 6000, Note_on_c, 0, 41, 0
2, 6000, Note_on_c, 0, 77, 0
2, 6000, Note_on_c, 0, 65, 0
2, 6000, Note_on_c, 0, 53, 0
2, 6000, Note_on_c, 0, 83, 101
2, 6000, Note_on_c, 0, 71, 101
2, 6000, Note_on_c, 0, 59, 101
2, 6000, Note_on_c, 0, 47, 101
2, 6060, Note_on_c, 0, 47, 0
2, 6060, Note_on_c, 0, 83, 0
2, 6060, Note_on_c, 0, 71, 0
2, 6060, Note_on_c, 0, 59, 0
2, 6120, Note_on_c, 0, 74, 84
2, 6120, Note_on_c, 0, 47, 84
2, 6120, Note_on_c, 0, 35, 84
2, 6150, Note_on_c, 0, 74, 0
2, 6150, Note_on_c, 0, 67, 84
2, 6180, Note_on_c, 0, 67, 0
2, 6180, Note_on_c, 0, 35, 0
2, 6180, Note_on_c, 0, 47, 0
2, 6180, Note_on_c, 0, 68, 84
2, 6210, Note_on_c, 0, 68, 0
2, 6210, Note_on_c, 0, 65, 84
2, 6240, Note_on_c, 0, 65, 0
2, 6240, Channel_aftertouch_c, 0, 104
2, 6240, Note_on_c, 0, 77, 84
2, 6240, Note_on_c, 0, 47, 84
2, 6240, Note_on_c, 0, 35, 84
2, 6270, Note_on_c, 0, 77, 0
2, 6270, Note_on_c, 0, 73, 84
2, 6300, Note_on_c, 0, 73, 0
2, 6300, Note_on_c, 0, 35, 0
2, 6300, Note_on_c, 0, 47, 0
2, 6300, Note_on_c, 0, 74, 84
2, 6330, Note_on_c, 0, 74, 0
2, 6330, Note_on_c, 0, 68, 84
2, 6360, Note_on_c, 0, 68, 0
2, 6360, Note_on_c, 0, 80, 84
2, 6360, Note_on_c, 0, 56, 84
2, 6360, Note_on_c, 0, 53, 84
2, 6360, Note_on_c, 0, 47, 84
2, 6390, Note_on_c, 0, 80, 0
2, 6390, Note_on_c, 0, 76, 84
2, 6420, Note_on_c, 0, 76, 0
2, 6420, Note_on_c, 0, 47, 0
2, 6420, Note_on_c, 0, 53, 0
2, 6420, Note_on_c, 0, 56, 0
2, 6420, Note_on_c, 0, 77, 84
2, 6450, Note_on_c, 0, 77, 0
2, 6450, Note_on_c, 0, 74, 84
2, 6480, Note_on_c, 0, 74, 0
2, 6480, Note_on_c, 0, 86, 84
2, 6480, Note_on_c, 0, 56, 84
2, 6480, Note_on_c, 0, 53, 84
2, 6480, Note_on_c, 0, 47, 84
2, 6510, Note_on_c, 0, 86, 0
2, 6510, Note_on_c, 0, 79, 84
2, 6540, Note_on_c, 0, 79, 0
2, 6540, Note_on_c, 0, 47, 0
2, 6540, Note_on_c, 0, 53, 0
2, 6540, Note_on_c, 0, 56, 0
2, 6540, Note_on_c, 0, 80, 84
2, 6570, Note_on_c, 0, 80, 0
2, 6570, Note_on_c, 0, 77, 84
2, 6600, Note_on_c, 0, 77, 0
2, 6600, Note_on_c, 0, 89, 84
2, 6600, Note_on_c, 0, 56, 84
2, 6600, Note_on_c, 0, 53, 84
2, 6600, Note_on_c, 0, 47, 84
2, 6630, Note_on_c, 0, 89, 0
2, 6630, Note_on_c, 0, 85, 84
2, 6660, Note_on_c, 0, 85, 0
2, 6660, Note_on_c, 0, 47, 0
2, 6660, Note_on_c, 0, 53, 0
2, 6660, Note_on_c, 0, 56, 0
2, 6660, Note_on_c, 0, 86, 84
2, 6690, Note_on_c, 0, 86, 0
2, 6690, Note_on_c, 0, 80, 84
2, 6720, Note_on_c, 0, 80, 0
2, 6720, Note_on_c, 0, 89, 94
2, 6720, Note_on_c, 0, 86, 94
2, 6720, Note_on_c, 0, 80, 94
2, 6720, Note_on_c, 0, 56, 94
2, 6720, Note_on_c, 0, 53, 94
2, 6720, Note_on_c, 0, 50, 94
2, 6720, Note_on_c, 0, 47, 94
2, 6840, Note_on_c, 0, 47, 0
2, 6840, Note_on_c, 0, 53, 0
2, 6840, Note_on_c, 0, 86, 0
2, 6840, Note_on_c, 0, 80, 0
2, 6840, Note_on_c, 0, 89, 0
2, 6840, Note_on_c, 0, 50, 0
2, 6840, Note_on_c, 0, 56, 0
2, 6840, Note_on_c, 0, 87, 81
2, 6840, Note_on_c, 0, 84, 81
2, 6840, Note_on_c, 0, 79, 81
2, 6840, Note_on_c, 0, 55, 81
2, 6840, Note_on_c, 0, 51, 81
2, 6840, Note_on_c, 0, 48, 81
2, 6900, Note_on_c, 0, 48, 0
2, 6900, Note_on_c, 0, 84, 0
2, 6900, Note_on_c, 0, 79, 0
2, 6900, Note_on_c, 0, 87, 0
2, 6900, Note_on_c, 0, 51, 0
2, 6900, Note_on_c, 0, 55, 0
2, 6960, Channel_aftertouch_c, 0, 99
2, 6960, Channel_aftertouch_c, 0, 99
2, 6990, Note_on_c, 0, 67, 79
2, 7020, Note_on_c, 0, 67, 0
2, 7020, Note_on_c, 0, 79, 79
2, 7050, Note_on_c, 0, 79, 0
2, 7050, Note_on_c, 0, 77, 79
2, 7080, Note_on_c, 0, 77, 0
2, 7080, Note_on_c, 0, 75, 79
2, 7110, Note_on_c, 0, 75, 0
2, 7110, Note_on_c, 0, 74, 79
2, 7140, Note_on_c, 0, 74, 0
2, 7140, Note_on_c, 0, 72, 79
2, 7140, Note_on_c, 0, 72, 79
2, 7170, Note_on_c, 0, 72, 0
2, 7170, Note_on_c, 0, 70, 79
2, 7200, Note_on_c, 0, 70, 0
2, 7200, Note_on_c, 0, 72, 0
2, 7200, Channel_aftertouch_c, 0, 99
2, 7200, Note_on_c, 0, 70, 79
2, 7200, Note_on_c, 0, 48, 79
2, 7200, Note_on_c, 0, 36, 79
2, 7320, Note_on_c, 0, 36, 0
2, 7320, Note_on_c, 0, 48, 0
2, 7320, Note_on_c, 0, 70, 0
2, 7320, Note_on_c, 0, 69, 79
2, 7320, Note_on_c, 0, 67, 79
2, 7320, Note_on_c, 0, 63, 79
2, 7320, Note_on_c, 0, 60, 79
2, 7410, Note_on_c, 0, 60, 0
2, 7410, Note_on_c, 0, 63, 0
2, 7410, Note_on_c, 0, 67, 0
2, 7410, Note_on_c, 0, 67, 79
2, 7410, Note_on_c, 0, 63, 79
2, 7410, Note_on_c, 0, 60, 79
2, 7440, Note_on_c, 0, 60, 0
2, 7440, Note_on_c, 0, 69, 0
2, 7440, Note_on_c, 0, 67, 0
2, 7440, Note_on_c, 0, 63, 0
2, 7440, Note_on_c, 0, 67, 79
2, 7440, Note_on_c, 0, 63, 79
2, 7440, Note_on_c, 0, 60, 79
2, 7470, Note_on_c, 0, 69, 79
2, 7500, Note_on_c, 0, 69, 0
2, 7500, Note_on_c, 0, 79, 79
2, 7530, Note_on_c, 0, 79, 0
2, 7530, Note_on_c, 0, 77, 79
2, 7560, Note_on_c, 0, 77, 0
2, 7560, Note_on_c, 0, 67, 0
2, 7560, Note_on_c, 0, 63, 0
2, 7560, Note_on_c, 0, 60, 0
2, 7560, Note_on_c, 0, 75, 79
2, 7590, Note_on_c, 0, 75, 0
2, 7590, Note_on_c, 0, 74, 79
2, 7620, Note_on_c, 0, 74, 0
2, 7620, Note_on_c, 0, 72, 79
2, 7620, Note_on_c, 0, 72, 79
2, 7650, Note_on_c, 0, 72, 0
2, 7650, Note_on_c, 0, 70, 79
2, 7680, Note_on_c, 0, 70, 0
2, 7680, Note_on_c, 0, 72, 0
2, 7680, Note_on_c, 0, 70, 79
2, 7680, Note_on_c, 0, 48, 79
2, 7680, Note_on_c, 0, 36, 79
2, 7800, Note_on_c, 0, 36, 0
2, 7800, Note_on_c, 0, 48, 0
2, 7800, Note_on_c, 0, 70, 0
2, 7800, Note_on_c, 0, 69, 79
2, 7800, Note_on_c, 0, 67, 79
2, 7800, Note_on_c, 0, 63, 79
2, 7800, Note_on_c, 0, 60, 79
2, 7890, Note_on_c, 0, 60, 0
2, 7890, Note_on_c, 0, 63, 0
2, 7890, Note_on_c, 0, 67, 0
2, 7890, Note_on_c, 0, 67, 79
2, 7890, Note_on_c, 0, 63, 79
2, 7890, Note_on_c, 0, 60, 79
2, 7920, Note_on_c, 0, 60, 0
2, 7920, Note_on_c, 0, 69, 0
2, 7920, Note_on_c, 0, 67, 0
2, 7920, Note_on_c, 0, 63, 0
2, 7920, Note_on_c, 0, 67, 79
2, 7920, Note_on_c, 0, 63, 79
2, 7920, Note_on_c, 0, 60, 79
2, 7950, Note_on_c, 0, 69, 79
2, 7980, Note_on_c, 0, 69, 0
2, 7980, Note_on_c, 0, 79, 79
2, 8010, Note_on_c, 0, 79, 0
2, 8010, Note_on_c, 0, 77, 79
2, 8040, Note_on_c, 0, 77, 0
2, 8040, Note_on_c, 0, 67, 0
2, 8040, Note_on_c, 0, 63, 0
2, 8040, Note_on_c, 0, 60, 0
2, 8040, Note_on_c, 0, 75, 79
2, 8070, Note_on_c, 0, 75, 0
2, 8070, Note_on_c, 0, 74, 79
2, 8100, Note_on_c, 0, 74, 0
2, 8100, Note_on_c, 0, 72, 79
2, 8130, Note_on_c, 0, 72, 0
2, 8130, Note_on_c, 0, 70, 79
2, 8160, Note_on_c, 0, 70, 0
2, 8160, Note_on_c, 0, 69, 79
2, 8160, Note_on_c, 0, 57, 79
2, 8160, Note_on_c, 0, 55, 79
2, 8160, Note_on_c, 0, 52, 79
2, 8160, Note_on_c, 0, 49, 79
2, 8190, Note_on_c, 0, 69, 0
2, 8190, Note_on_c, 0, 73, 79
2, 8220, Note_on_c, 0, 73, 0
2, 8220, Note_on_c, 0, 76, 79
2, 8250, Note_on_c, 0, 76, 0
2, 8250, Note_on_c, 0, 79, 79
2, 8280, Note_on_c, 0, 79, 0
2, 8280, Note_on_c, 0, 49, 0
2, 8280, Note_on_c, 0, 57, 0
2, 8280, Note_on_c, 0, 55, 0
2, 8280, Note_on_c, 0, 52, 0
2, 8280, Note_on_c, 0, 82, 79
2, 8280, Note_on_c, 0, 58, 79
2, 8280, Note_on_c, 0, 55, 79
2, 8280, Note_on_c, 0, 52, 79
2, 8280, Note_on_c, 0, 49, 79
2, 8310, Note_on_c, 0, 82, 0
2, 8310, Note_on_c, 0, 85, 79
2, 8340, Note_on_c, 0, 85, 0
2, 8340, Note_on_c, 0, 88, 79
2, 8370, Note_on_c, 0, 88, 0
2, 8370, Note_on_c, 0, 91, 79
2, 8400, Note_on_c, 0, 91, 0
2, 8400, Note_on_c, 0, 49, 0
2, 8400, Note_on_c, 0, 58, 0
2, 8400, Note_on_c, 0, 55, 0
2, 8400, Note_on_c, 0, 52, 0
2, 8400, Note_on_c, 0, 94, 89
2, 8460, Note_on_c, 0, 94, 0
2, 8460, Note_on_c, 0, 94, 79
2, 8460, Note_on_c, 0, 88, 79
2, 8460, Note_on_c, 0, 55, 79
2, 8460, Note_on_c, 0, 52, 79
2, 8460, Note_on_c, 0, 49, 79
2, 8520, Note_on_c, 0, 49, 0
2, 8520, Note_on_c, 0, 55, 0
2, 8520, Note_on_c, 0, 94, 0
2, 8520, Note_on_c, 0, 88, 0
2, 8520, Note_on_c, 0, 52, 0
2, 8520, Note_on_c, 0, 93, 79
2, 8520, Note_on_c, 0, 88, 79
2, 8520, Note_on_c, 0, 57, 79
2, 8520, Note_on_c, 0, 52, 79
2, 8520, Note_on_c, 0, 49, 79
2, 8580, Note_on_c, 0, 49, 0
2, 8580, Note_on_c, 0, 57, 0
2, 8580, Note_on_c, 0, 93, 0
2, 8580, Note_on_c, 0, 88, 0
2, 8580, Note_on_c, 0, 52, 0
2, 8580, Note_on_c, 0, 91, 79
2, 8580, Note_on_c, 0, 88, 79
2, 8580, Note_on_c, 0, 58, 79
2, 8580, Note_on_c, 0, 52, 79
2, 8580, Note_on_c, 0, 49, 79
2, 8640, Note_on_c, 0, 49, 0
2, 8640, Note_on_c, 0, 58, 0
2, 8640, Note_on_c, 0, 91, 0
2, 8640, Note_on_c, 0, 88, 0
2, 8640, Note_on_c, 0, 52, 0
2, 8640, Channel_aftertouch_c, 0, 99
2, 8640, Note_on_c, 0, 90, 79
2, 8640, Note_on_c, 0, 86, 79
2, 8640, Note_on_c, 0, 57, 79
2, 8640, Note_on_c, 0, 54, 79
2, 8640, Note_on_c, 0, 50, 79
2, 8760, Note_on_c, 0, 50, 0
2, 8760, Note_on_c, 0, 57, 0
2, 8760, Note_on_c, 0, 90, 0
2, 8760, Note_on_c, 0, 86, 0
2, 8760, Note_on_c, 0, 54, 0
2, 8760, Note_on_c, 0, 93, 79
2, 8760, Note_on_c, 0, 90, 79
2, 8760, Note_on_c, 0, 86, 79
2, 8760, Note_on_c, 0, 81, 79
2, 8760, Note_on_c, 0, 62, 79
2, 8760, Note_on_c, 0, 57, 79
2, 8760, Note_on_c, 0, 54, 79
2, 8820, Channel_aftertouch_c, 0, 104
2, 8820, Note_on_c, 0, 38, 84
2, 8850, Note_on_c, 0, 50, 84
2, 8880, Note_on_c, 0, 50, 0
2, 8880, Note_on_c, 0, 81, 0
2, 8880, Note_on_c, 0, 93, 0
2, 8880, Note_on_c, 0, 62, 0
2, 8880, Note_on_c, 0, 90, 0
2, 8880, Note_on_c, 0, 86, 0
2, 8880, Note_on_c, 0, 54, 0
2, 8880, Note_on_c, 0, 57, 0
2, 8880, Note_on_c, 0, 38, 0
2, 8880, Note_on_c, 0, 39, 84
2, 8910, Note_on_c, 0, 51, 84
2, 8940, Note_on_c, 0, 51, 0
2, 8940, Note_on_c, 0, 39, 0
2, 8940, Note_on_c, 0, 40, 84
2, 8970, Note_on_c, 0, 52, 84
2, 9000, Note_on_c, 0, 52, 0
2, 9000, Note_on_c, 0, 40, 0
2, 9000, Note_on_c, 0, 74, 91
2, 9000, Note_on_c, 0, 62, 91
2, 9000, Note_on_c, 0, 50, 91
2, 9000, Note_on_c, 0, 38, 91
2, 9000, Note_on_c, 0, 41, 84
2, 9030, Note_on_c, 0, 53, 84
2, 9060, Note_on_c, 0, 53, 0
2, 9060, Note_on_c, 0, 41, 0
2, 9060, Note_on_c, 0, 42, 84
2, 9090, Note_on_c, 0, 54, 84
2, 9120, Note_on_c, 0, 54, 0
2, 9120, Note_on_c, 0, 62, 0
2, 9120, Note_on_c, 0, 38, 0
2, 9120, Note_on_c, 0, 74, 0
2, 9120, Note_on_c, 0, 42, 0
2, 9120, Note_on_c, 0, 50, 0
2, 9120, Note_on_c, 0, 82, 91
2, 9120, Note_on_c, 0, 79, 91
2, 9120, Note_on_c, 0, 74, 91
2, 9120, Note_on_c, 0, 70, 91
2, 9120, Note_on_c, 0, 43, 91
2, 9120, Note_on_c, 0, 31, 91
2, 9120, Note_on_c, 0, 55, 91
2, 9120, Note_on_c, 0, 43, 91
2, 9120, Note_on_c, 0, 31, 91
2, 9180, Note_on_c, 0, 31, 0
2, 9180, Note_on_c, 0, 43, 0
2, 9180, Note_on_c, 0, 55, 0
2, 9180, Note_on_c, 0, 43, 0
2, 9180, Note_on_c, 0, 31, 0
2, 9180, Note_on_c, 0, 45, 91
2, 9180, Note_on_c, 0, 33, 91
2, 9240, Note_on_c, 0, 33, 0
2, 9240, Note_on_c, 0, 45, 0
2, 9240, Note_on_c, 0, 46, 91
2, 9240, Note_on_c, 0, 34, 91
2, 9300, Note_on_c, 0, 34, 0
2, 9300, Note_on_c, 0, 79, 0
2, 9300, Note_on_c, 0, 74, 0
2, 9300, Note_on_c, 0, 70, 0
2, 9300, Note_on_c, 0, 46, 0
2, 9300, Note_on_c, 0, 82, 0
2, 9300, Note_on_c, 0, 82, 91
2, 9300, Note_on_c, 0, 79, 91
2, 9300, Note_on_c, 0, 74, 91
2, 9300, Note_on_c, 0, 70, 91
2, 9300, Note_on_c, 0, 43, 91
2, 9300, Note_on_c, 0, 31, 91
2, 9360, Note_on_c, 0, 31, 0
2, 9360, Note_on_c, 0, 79, 0
2, 9360, Note_on_c, 0, 74, 0
2, 9360, Note_on_c, 0, 82, 0
2, 9360, Note_on_c, 0, 43, 0
2, 9360, Note_on_c, 0, 70, 0
2, 9360, Note_on_c, 0, 81, 91
2, 9360, Note_on_c, 0, 76, 91
2, 9360, Note_on_c, 0, 73, 91
2, 9360, Note_on_c, 0, 69, 91
2, 9360, Note_on_c, 0, 45, 91
2, 9360, Note_on_c, 0, 33, 91
2, 9420, Note_on_c, 0, 33, 0
2, 9420, Note_on_c, 0, 45, 0
2, 9420, Note_on_c, 0, 47, 91
2, 9420, Note_on_c, 0, 35, 91
2, 9480, Note_on_c, 0, 35, 0
2, 9480, Note_on_c, 0, 47, 0
2, 9480, Note_on_c, 0, 49, 91
2, 9480, Note_on_c, 0, 37, 91
2, 9540, Note_on_c, 0, 37, 0
2, 9540, Note_on_c, 0, 76, 0
2, 9540, Note_on_c, 0, 73, 0
2, 9540, Note_on_c, 0, 81, 0
2, 9540, Note_on_c, 0, 49, 0
2, 9540, Note_on_c, 0, 69, 0
2, 9540, Note_on_c, 0, 81, 91
2, 9540, Note_on_c, 0, 76, 91
2, 9540, Note_on_c, 0, 73, 91
2, 9540, Note_on_c, 0, 69, 91
2, 9540, Note_on_c, 0, 45, 91
2, 9540, Note_on_c, 0, 33, 91
2, 9600, Note_on_c, 0, 33, 0
2, 9600, Note_on_c, 0, 76, 0
2, 9600, Note_on_c, 0, 73, 0
2, 9600, Note_on_c, 0, 81, 0
2, 9600, Note_on_c, 0, 45, 0
2, 9600, Note_on_c, 0, 69, 0
2, 9600, Note_on_c, 0, 77, 91
2, 9600, Note_on_c, 0, 74, 91
2, 9600, Note_on_c, 0, 69, 91
2, 9600, Note_on_c, 0, 50, 91
2, 9600, Note_on_c, 0, 38, 91
2, 9660, Note_on_c, 0, 38, 0
2, 9660, Note_on_c, 0, 50, 0
2, 9660, Note_on_c, 0, 54, 91
2, 9660, Note_on_c, 0, 42, 91
2, 9720, Note_on_c, 0, 42, 0
2, 9720, Note_on_c, 0, 77, 0
2, 9720, Note_on_c, 0, 69, 0
2, 9720, Note_on_c, 0, 74, 0
2, 9720, Note_on_c, 0, 54, 0
2, 9720, Note_on_c, 0, 75, 91
2, 9720, Note_on_c, 0, 72, 91
2, 9720, Note_on_c, 0, 69, 91
2, 9720, Note_on_c, 0, 57, 91
2, 9720, Note_on_c, 0, 45, 91
2, 9780, Note_on_c, 0, 45, 0
2, 9780, Note_on_c, 0, 57, 0
2, 9780, Note_on_c, 0, 55, 91
2, 9780, Note_on_c, 0, 43, 91
2, 9840, Note_on_c, 0, 43, 0
2, 9840, Note_on_c, 0, 75, 0
2, 9840, Note_on_c, 0, 69, 0
2, 9840, Note_on_c, 0, 72, 0
2, 9840, Note_on_c, 0, 55, 0
2, 9840, Note_on_c, 0, 74, 91
2, 9840, Note_on_c, 0, 72, 91
2, 9840, Note_on_c, 0, 69, 91
2, 9840, Note_on_c, 0, 54, 91
2, 9840, Note_on_c, 0, 42, 91
2, 9900, Note_on_c, 0, 42, 0
2, 9900, Note_on_c, 0, 54, 0
2, 9900, Note_on_c, 0, 57, 91
2, 9900, Note_on_c, 0, 45, 91
2, 9960, Note_on_c, 0, 45, 0
2, 9960, Note_on_c, 0, 74, 0
2, 9960, Note_on_c, 0, 69, 0
2, 9960, Note_on_c, 0, 72, 0
2, 9960, Note_on_c, 0, 57, 0
2, 9960, Note_on_c, 0, 62, 91
2, 9960, Note_on_c, 0, 50, 91
2, 10020, Note_on_c, 0, 50, 0
2, 10020, Note_on_c, 0, 62, 0
2, 10020, Note_on_c, 0, 74, 91
2, 10080, Note_on_c, 0, 74, 0
2, 10080, Note_on_c, 0, 82, 91
2, 10080, Note_on_c, 0, 79, 91
2, 10080, Note_on_c, 0, 74, 91
2, 10080, Note_on_c, 0, 70, 91
2, 10080, Note_on_c, 0, 43, 91
2, 10080, Note_on_c, 0, 31, 91
2, 10140, Note_on_c, 0, 31, 0
2, 10140, Note_on_c, 0, 43, 0
2, 10140, Note_on_c, 0, 45, 91
2, 10140, Note_on_c, 0, 33, 91
2, 10200, Note_on_c, 0, 33, 0
2, 10200, Note_on_c, 0, 45, 0
2, 10200, Note_on_c, 0, 46, 91
2, 10200, Note_on_c, 0, 34, 91
2, 10260, Note_on_c, 0, 34, 0
2, 10260, Note_on_c, 0, 79, 0
2, 10260, Note_on_c, 0, 74, 0
2, 10260, Note_on_c, 0, 82, 0
2, 10260, Note_on_c, 0, 46, 0
2, 10260, Note_on_c, 0, 70, 0
2, 10260, Note_on_c, 0, 82, 91
2, 10260, Note_on_c, 0, 79, 91
2, 10260, Note_on_c, 0, 74, 91
2, 10260, Note_on_c, 0, 70, 91
2, 10260, Note_on_c, 0, 43, 91
2, 10260, Note_on_c, 0, 31, 91
2, 10320, Note_on_c, 0, 31, 0
2, 10320, Note_on_c, 0, 79, 0
2, 10320, Note_on_c, 0, 74, 0
2, 10320, Note_on_c, 0, 82, 0
2, 10320, Note_on_c, 0, 43, 0
2, 10320, Note_on_c, 0, 70, 0
2, 10320, Note_on_c, 0, 81, 91
2, 10320, Note_on_c, 0, 76, 91
2, 10320, Note_on_c, 0, 73, 91
2, 10320, Note_on_c, 0, 69, 91
2, 10320, Note_on_c, 0, 45, 91
2, 10320, Note_on_c, 0, 33, 91
2, 10380, Note_on_c, 0, 33, 0
2, 10380, Note_on_c, 0, 45, 0
2, 10380, Note_on_c, 0, 47, 91
2, 10380, Note_on_c, 0, 35, 91
2, 10440, Note_on_c, 0, 35, 0
2, 10440, Note_on_c, 0, 47, 0
2, 10440, Note_on_c, 0, 49, 91
2, 10440, Note_on_c, 0, 37, 91
2, 10500, Note_on_c, 0, 37, 0
2, 10500, Note_on_c, 0, 76, 0
2, 10500, Note_on_c, 0, 73, 0
2, 10500, Note_on_c, 0, 81, 0
2, 10500, Note_on_c, 0, 49, 0
2, 10500, Note_on_c, 0, 69, 0
2, 10500, Note_on_c, 0, 81, 91
2, 10500, Note_on_c, 0, 76, 91
2, 10500, Note_on_c, 0, 73, 91
2, 10500, Note_on_c, 0, 69, 91
2, 10500, Note_on_c, 0, 45, 91
2, 10500, Note_on_c, 0, 33, 91
2, 10560, Note_on_c, 0, 33, 0
2, 10560, Note_on_c, 0, 76, 0
2, 10560, Note_on_c, 0, 73, 0
2, 10560, Note_on_c, 0, 81, 0
2, 10560, Note_on_c, 0, 45, 0
2, 10560, Note_on_c, 0, 69, 0
2, 10560, Note_on_c, 0, 77, 91
2, 10560, Note_on_c, 0, 74, 91
2, 10560, Note_on_c, 0, 69, 91
2, 10560, Note_on_c, 0, 50, 91
2, 10560, Note_on_c, 0, 38, 91
2, 10620, Note_on_c, 0, 38, 0
2, 10620, Note_on_c, 0, 50, 0
2, 10620, Note_on_c, 0, 54, 91
2, 10620, Note_on_c, 0, 42, 91
2, 10680, Note_on_c, 0, 42, 0
2, 10680, Note_on_c, 0, 77, 0
2, 10680, Note_on_c, 0, 69, 0
2, 10680, Note_on_c, 0, 74, 0
2, 10680, Note_on_c, 0, 54, 0
2, 10680, Note_on_c, 0, 75, 91
2, 10680, Note_on_c, 0, 72, 91
2, 10680, Note_on_c, 0, 69, 91
2, 10680, Note_on_c, 0, 57, 91
2, 10680, Note_on_c, 0, 45, 91
2, 10740, Note_on_c, 0, 45, 0
2, 10740, Note_on_c, 0, 57, 0
2, 10740, Note_on_c, 0, 55, 91
2, 10740, Note_on_c, 0, 43, 91
2, 10800, Note_on_c, 0, 43, 0
2, 10800, Note_on_c, 0, 75, 0
2, 10800, Note_on_c, 0, 69, 0
2, 10800, Note_on_c, 0, 72, 0
2, 10800, Note_on_c, 0, 55, 0
2, 10800, Note_on_c, 0, 74, 91
2, 10800, Note_on_c, 0, 72, 91
2, 10800, Note_on_c, 0, 69, 91
2, 10800, Note_on_c, 0, 54, 91
2, 10800, Note_on_c, 0, 42, 91
2, 10860, Note_on_c, 0, 42, 0
2, 10860, Note_on_c, 0, 54, 0
2, 10860, Note_on_c, 0, 57, 91
2, 10860, Note_on_c, 0, 45, 91
2, 10920, Note_on_c, 0, 45, 0
2, 10920, Note_on_c, 0, 74, 0
2, 10920, Note_on_c, 0, 69, 0
2, 10920, Note_on_c, 0, 72, 0
2, 10920, Note_on_c, 0, 57, 0
2, 10920, Note_on_c, 0, 62, 91
2, 10920, Note_on_c, 0, 50, 91
2, 10980, Note_on_c, 0, 50, 0
2, 10980, Note_on_c, 0, 62, 0
2, 10980, Note_on_c, 0, 74, 91
2, 10980, Note_on_c, 0, 74, 84
2, 10980, Note_on_c, 0, 50, 84
2, 11040, Note_on_c, 0, 50, 0
2, 11040, Note_on_c, 0, 74, 0
2, 11040, Note_on_c, 0, 74, 0
2, 11040, Note_on_c, 0, 79, 94
2, 11040, Note_on_c, 0, 74, 94
2, 11040, Note_on_c, 0, 70, 94
2, 11040, Note_on_c, 0, 67, 94
2, 11040, Note_on_c, 0, 55, 91
2, 11040, Note_on_c, 0, 43, 91
2, 11040, Note_on_c, 0, 79, 91
2, 11040, Note_on_c, 0, 74, 91
2, 11100, Note_on_c, 0, 43, 0
2, 11100, Note_on_c, 0, 55, 0
2, 11100, Note_on_c, 0, 58, 91
2, 11100, Note_on_c, 0, 55, 91
2, 11100, Note_on_c, 0, 50, 91
2, 11160, Note_on_c, 0, 50, 0
2, 11160, Note_on_c, 0, 74, 0
2, 11160, Note_on_c, 0, 67, 0
2, 11160, Note_on_c, 0, 79, 0
2, 11160, Note_on_c, 0, 74, 0
2, 11160, Note_on_c, 0, 70, 0
2, 11160, Note_on_c, 0, 58, 0
2, 11160, Note_on_c, 0, 79, 0
2, 11160, Note_on_c, 0, 55, 0
2, 11160, Note_on_c, 0, 58, 91
2, 11160, Note_on_c, 0, 55, 91
2, 11160, Note_on_c, 0, 50, 91
2, 11220, Note_on_c, 0, 50, 0
2, 11220, Note_on_c, 0, 55, 0
2, 11220, Note_on_c, 0, 58, 0
2, 11220, Note_on_c, 0, 81, 84
2, 11220, Note_on_c, 0, 58, 84
2, 11220, Note_on_c, 0, 55, 84
2, 11220, Note_on_c, 0, 50, 84
2, 11250, Note_on_c, 0, 81, 0
2, 11250, Note_on_c, 0, 85, 84
2, 11280, Note_on_c, 0, 85, 0
2, 11280, Note_on_c, 0, 50, 0
2, 11280, Note_on_c, 0, 55, 0
2, 11280, Note_on_c, 0, 58, 0
2, 11280, Note_on_c, 0, 82, 84
2, 11280, Note_on_c, 0, 58, 84
2, 11280, Note_on_c, 0, 55, 84
2, 11280, Note_on_c, 0, 50, 84
2, 11310, Note_on_c, 0, 82, 0
2, 11310, Note_on_c, 0, 86, 84
2, 11340, Note_on_c, 0, 86, 0
2, 11340, Note_on_c, 0, 50, 0
2, 11340, Note_on_c, 0, 55, 0
2, 11340, Note_on_c, 0, 58, 0
2, 11340, Note_on_c, 0, 78, 84
2, 11340, Note_on_c, 0, 58, 84
2, 11340, Note_on_c, 0, 55, 84
2, 11340, Note_on_c, 0, 50, 84
2, 11370, Note_on_c, 0, 78, 0
2, 11370, Note_on_c, 0, 81, 84
2, 11400, Note_on_c, 0, 81, 0
2, 11400, Note_on_c, 0, 50, 0
2, 11400, Note_on_c, 0, 55, 0
2, 11400, Note_on_c, 0, 58, 0
2, 11400, Note_on_c, 0, 79, 84
2, 11400, Note_on_c, 0, 58, 84
2, 11400, Note_on_c, 0, 55, 84
2, 11400, Note_on_c, 0, 50, 84
2, 11430, Note_on_c, 0, 79, 0
2, 11430, Note_on_c, 0, 82, 84
2, 11460, Note_on_c, 0, 82, 0
2, 11460, Note_on_c, 0, 50, 0
2, 11460, Note_on_c, 0, 55, 0
2, 11460, Note_on_c, 0, 58, 0
2, 11460, Note_on_c, 0, 73, 84
2, 11460, Note_on_c, 0, 58, 84
2, 11460, Note_on_c, 0, 55, 84
2, 11460, Note_on_c, 0, 50, 84
2, 11490, Note_on_c, 0, 73, 0
2, 11490, Note_on_c, 0, 75, 84
2, 11520, Note_on_c, 0, 75, 0
2, 11520, Note_on_c, 0, 50, 0
2, 11520, Note_on_c, 0, 55, 0
2, 11520, Note_on_c, 0, 58, 0
2, 11520, Channel_aftertouch_c, 0, 104
2, 11520, Note_on_c, 0, 74, 84
2, 11520, Note_on_c, 0, 58, 84
2, 11520, Note_on_c, 0, 55, 84
2, 11520, Note_on_c, 0, 50, 84
2, 11550, Note_on_c, 0, 74, 0
2, 11550, Note_on_c, 0, 79, 84
2, 11580, Note_on_c, 0, 79, 0
2, 11580, Note_on_c, 0, 50, 0
2, 11580, Note_on_c, 0, 55, 0
2, 11580, Note_on_c, 0, 58, 0
2, 11580, Note_on_c, 0, 69, 84
2, 11580, Note_on_c, 0, 58, 84
2, 11580, Note_on_c, 0, 55, 84
2, 11580, Note_on_c, 0, 50, 84
2, 11610, Note_on_c, 0, 69, 0
2, 11610, Note_on_c, 0, 73, 84
2, 11640, Note_on_c, 0, 73, 0
2, 11640, Note_on_c, 0, 50, 0
2, 11640, Note_on_c, 0, 55, 0
2, 11640, Note_on_c, 0, 58, 0
2, 11640, Note_on_c, 0, 70, 84
2, 11640, Note_on_c, 0, 58, 84
2, 11640, Note_on_c, 0, 55, 84
2, 11640, Note_on_c, 0, 50, 84
2, 11670, Note_on_c, 0, 70, 0
2, 11670, Note_on_c, 0, 74, 84
2, 11700, Note_on_c, 0, 74, 0
2, 11700, Note_on_c, 0, 50, 0
2, 11700, Note_on_c, 0, 55, 0
2, 11700, Note_on_c, 0, 58, 0
2, 11700, Note_on_c, 0, 67, 84
2, 11700, Note_on_c, 0, 58, 84
2, 11700, Note_on_c, 0, 55, 84
2, 11700, Note_on_c, 0, 50, 84
2, 11730, Note_on_c, 0, 67, 0
2, 11730, Note_on_c, 0, 70, 84
2, 11760, Note_on_c, 0, 70, 0
2, 11760, Note_on_c, 0, 50, 0
2, 11760, Note_on_c, 0, 55, 0
2, 11760, Note_on_c, 0, 58, 0
2, 11760, Note_on_c, 0, 69, 84
2, 11760, Note_on_c, 0, 66, 84
2, 11760, Note_on_c, 0, 60, 84
2, 11760, Note_on_c, 0, 57, 84
2, 11760, Note_on_c, 0, 50, 84
2, 11850, Note_on_c, 0, 66, 0
2, 11850, Note_on_c, 0, 69, 0
2, 11850, Note_on_c, 0, 69, 84
2, 11880, Note_on_c, 0, 69, 0
2, 11880, Note_on_c, 0, 50, 0
2, 11880, Note_on_c, 0, 60, 0
2, 11880, Note_on_c, 0, 57, 0
2, 11880, Note_on_c, 0, 75, 91
2, 11880, Note_on_c, 0, 60, 91
2, 11880, Note_on_c, 0, 57, 91
2, 11880, Note_on_c, 0, 50, 91
2, 11940, Note_on_c, 0, 75, 0
2, 11940, Note_on_c, 0, 74, 84
2, 12000, Note_on_c, 0, 74, 0
2, 12000, Note_on_c, 0, 50, 0
2, 12000, Note_on_c, 0, 57, 0
2, 12000, Note_on_c, 0, 60, 0
2, 12000, Note_on_c, 0, 74, 89
2, 12000, Note_on_c, 0, 70, 89
2, 12000, Note_on_c, 0, 67, 89
2, 12000, Note_on_c, 0, 55, 84
2, 12000, Note_on_c, 0, 43, 84
2, 12000, Note_on_c, 0, 79, 84
2, 12000, Note_on_c, 0, 74, 84
2, 12000, Note_on_c, 0, 55, 84
2, 12060, Note_on_c, 0, 43, 0
2, 12060, Note_on_c, 0, 55, 0
2, 12060, Note_on_c, 0, 58, 84
2, 12060, Note_on_c, 0, 55, 84
2, 12060, Note_on_c, 0, 50, 84
2, 12120, Note_on_c, 0, 50, 0
2, 12120, Note_on_c, 0, 74, 0
2, 12120, Note_on_c, 0, 55, 0
2, 12120, Note_on_c, 0, 74, 0
2, 12120, Note_on_c, 0, 70, 0
2, 12120, Note_on_c, 0, 67, 0
2, 12120, Note_on_c, 0, 58, 0
2, 12120, Note_on_c, 0, 79, 0
2, 12120, Note_on_c, 0, 55, 0
2, 12120, Note_on_c, 0, 58, 84
2, 12120, Note_on_c, 0, 55, 84
2, 12120, Note_on_c, 0, 50, 84
2, 12180, Note_on_c, 0, 50, 0
2, 12180, Note_on_c, 0, 55, 0
2, 12180, Note_on_c, 0, 58, 0
2, 12180, Note_on_c, 0, 81, 84
2, 12180, Note_on_c, 0, 58, 84
2, 12180, Note_on_c, 0, 55, 84
2, 12180, Note_on_c, 0, 50, 84
2, 12210, Note_on_c, 0, 81, 0
2, 12210, Note_on_c, 0, 85, 84
2, 12240, Note_on_c, 0, 85, 0
2, 12240, Note_on_c, 0, 50, 0
2, 12240, Note_on_c, 0, 55, 0
2, 12240, Note_on_c, 0, 58, 0
2, 12240, Note_on_c, 0, 82, 84
2, 12240, Note_on_c, 0, 58, 84
2, 12240, Note_on_c, 0, 55, 84
2, 12240, Note_on_c, 0, 50, 84
2, 12270, Note_on_c, 0, 82, 0
2, 12270, Note_on_c, 0, 86, 84
2, 12300, Note_on_c, 0, 86, 0
2, 12300, Note_on_c, 0, 50, 0
2, 12300, Note_on_c, 0, 55, 0
2, 12300, Note_on_c, 0, 58, 0
2, 12300, Note_on_c, 0, 78, 84
2, 12300, Note_on_c, 0, 58, 84
2, 12300, Note_on_c, 0, 55, 84
2, 12300, Note_on_c, 0, 50, 84
2, 12330, Note_on_c, 0, 78, 0
2, 12330, Note_on_c, 0, 81, 84
2, 12360, Note_on_c, 0, 81, 0
2, 12360, Note_on_c, 0, 50, 0
2, 12360, Note_on_c, 0, 55, 0
2, 12360, Note_on_c, 0, 58, 0
2, 12360, Note_on_c, 0, 79, 84
2, 12360, Note_on_c, 0, 58, 84
2, 12360, Note_on_c, 0, 55, 84
2, 12360, Note_on_c, 0, 50, 84
2, 12390, Note_on_c, 0, 79, 0
2, 12390, Note_on_c, 0, 82, 84
2, 12420, Note_on_c, 0, 82, 0
2, 12420, Note_on_c, 0, 50, 0
2, 12420, Note_on_c, 0, 55, 0
2, 12420, Note_on_c, 0, 58, 0
2, 12420, Note_on_c, 0, 73, 84
2, 12420, Note_on_c, 0, 58, 84
2, 12420, Note_on_c, 0, 55, 84
2, 12420, Note_on_c, 0, 50, 84
2, 12450, Note_on_c, 0, 73, 0
2, 12450, Note_on_c, 0, 75, 84
2, 12480, Note_on_c, 0, 75, 0
2, 12480, Note_on_c, 0, 50, 0
2, 12480, Note_on_c, 0, 55, 0
2, 12480, Note_on_c, 0, 58, 0
2, 12480, Channel_aftertouch_c, 0, 104
2, 12480, Note_on_c, 0, 74, 84
2, 12480, Note_on_c, 0, 58, 84
2, 12480, Note_on_c, 0, 55, 84
2, 12480, Note_on_c, 0, 50, 84
2, 12510, Note_on_c, 0, 74, 0
2, 12510, Note_on_c, 0, 79, 84
2, 12540, Note_on_c, 0, 79, 0
2, 12540, Note_on_c, 0, 50, 0
2, 12540, Note_on_c, 0, 55, 0
2, 12540, Note_on_c, 0, 58, 0
2, 12540, Note_on_c, 0, 69, 84
2, 12540, Note_on_c, 0, 58, 84
2, 12540, Note_on_c, 0, 55, 84
2, 12540, Note_on_c, 0, 50, 84
2, 12570, Note_on_c, 0, 69, 0
2, 12570, Note_on_c, 0, 73, 84
2, 12600, Note_on_c, 0, 73, 0
2, 12600, Note_on_c, 0, 50, 0
2, 12600, Note_on_c, 0, 55, 0
2, 12600, Note_on_c, 0, 58, 0
2, 12600, Note_on_c, 0, 70, 84
2, 12600, Note_on_c, 0, 58, 84
2, 12600, Note_on_c, 0, 55, 84
2, 12600, Note_on_c, 0, 50, 84
2, 12630, Note_on_c, 0, 70, 0
2, 12630, Note_on_c, 0, 74, 84
2, 12660, Note_on_c, 0, 74, 0
2, 12660, Note_on_c, 0, 50, 0
2, 12660, Note_on_c, 0, 55, 0
2, 12660, Note_on_c, 0, 58, 0
2, 12660, Note_on_c, 0, 67, 84
2, 12660, Note_on_c, 0, 58, 84
2, 12660, Note_on_c, 0, 55, 84
2, 12660, Note_on_c, 0, 50, 84
2, 12690, Note_on_c, 0, 67, 0
2, 12690, Note_on_c, 0, 70, 84
2, 12720, Note_on_c, 0, 70, 0
2, 12720, Note_on_c, 0, 50, 0
2, 12720, Note_on_c, 0, 55, 0
2, 12720, Note_on_c, 0, 58, 0
2, 12720, Note_on_c, 0, 69, 84
2, 12720, Note_on_c, 0, 66, 84
2, 12720, Note_on_c, 0, 60, 84
2, 12720, Note_on_c, 0, 57, 84
2, 12720, Note_on_c, 0, 50, 84
2, 12810, Note_on_c, 0, 66, 0
2, 12810, Note_on_c, 0, 69, 0
2, 12810, Note_on_c, 0, 69, 84
2, 12840, Note_on_c, 0, 69, 0
2, 12840, Note_on_c, 0, 50, 0
2, 12840, Note_on_c, 0, 60, 0
2, 12840, Note_on_c, 0, 57, 0
2, 12840, Note_on_c, 0, 75, 91
2, 12840, Note_on_c, 0, 60, 91
2, 12840, Note_on_c, 0, 57, 91
2, 12840, Note_on_c, 0, 50, 91
2, 12900, Note_on_c, 0, 75, 0
2, 12900, Note_on_c, 0, 74, 84
2, 12960, Note_on_c, 0, 74, 0
2, 12960, Note_on_c, 0, 50, 0
2, 12960, Note_on_c, 0, 57, 0
2, 12960, Note_on_c, 0, 60, 0
2, 12960, Note_on_c, 0, 74, 84
2, 12960, Note_on_c, 0, 71, 84
2, 12960, Note_on_c, 0, 67, 84
2, 12960, Note_on_c, 0, 55, 84
2, 12960, Note_on_c, 0, 43, 84
2, 12960, Note_on_c, 0, 79, 84
2, 12960, Note_on_c, 0, 74, 84
2, 12960, Note_on_c, 0, 43, 84
2, 13020, Note_on_c, 0, 43, 0
2, 13020, Note_on_c, 0, 55, 0
2, 13020, Note_on_c, 0, 59, 84
2, 13020, Note_on_c, 0, 55, 84
2, 13020, Note_on_c, 0, 50, 84
2, 13080, Note_on_c, 0, 50, 0
2, 13080, Note_on_c, 0, 43, 0
2, 13080, Note_on_c, 0, 55, 0
2, 13080, Note_on_c, 0, 79, 0
2, 13080, Note_on_c, 0, 71, 0
2, 13080, Note_on_c, 0, 67, 0
2, 13080, Note_on_c, 0, 59, 0
2, 13080, Note_on_c, 0, 74, 0
2, 13080, Note_on_c, 0, 59, 84
2, 13080, Note_on_c, 0, 55, 84
2, 13080, Note_on_c, 0, 50, 84
2, 13110, Note_on_c, 0, 74, 0
2, 13110, Note_on_c, 0, 71, 84
2, 13140, Note_on_c, 0, 71, 0
2, 13140, Note_on_c, 0, 67, 84
2, 13170, Note_on_c, 0, 67, 0
2, 13170, Note_on_c, 0, 62, 84
2, 13200, Note_on_c, 0, 62, 0
2, 13200, Note_on_c, 0, 50, 0
2, 13200, Note_on_c, 0, 55, 0
2, 13200, Note_on_c, 0, 59, 0
2, 13200, Note_on_c, 0, 71, 94
2, 13260, Note_on_c, 0, 59, 71
2, 13260, Note_on_c, 0, 55, 71
2, 13260, Note_on_c, 0, 53, 71
2, 13320, Note_on_c, 0, 53, 0
2, 13320, Note_on_c, 0, 55, 0
2, 13320, Note_on_c, 0, 59, 0
2, 13320, Note_on_c, 0, 59, 71
2, 13320, Note_on_c, 0, 55, 71
2, 13320, Note_on_c, 0, 53, 71
2, 13350, Note_on_c, 0, 71, 0
2, 13350, Note_on_c, 0, 67, 71
2, 13380, Note_on_c, 0, 67, 0
2, 13380, Note_on_c, 0, 68, 71
2, 13410, Note_on_c, 0, 68, 0
2, 13410, Note_on_c, 0, 62, 71
2, 13440, Note_on_c, 0, 62, 0
2, 13440, Note_on_c, 0, 53, 0
2, 13440, Note_on_c, 0, 55, 0
2, 13440, Note_on_c, 0, 59, 0
2, 13440, Channel_aftertouch_c, 0, 91
2, 13440, Note_on_c, 0, 72, 86
2, 13500, Note_on_c, 0, 60, 71
2, 13500, Note_on_c, 0, 55, 71
2, 13500, Note_on_c, 0, 51, 71
2, 13560, Note_on_c, 0, 51, 0
2, 13560, Note_on_c, 0, 55, 0
2, 13560, Note_on_c, 0, 60, 0
2, 13560, Note_on_c, 0, 60, 71
2, 13560, Note_on_c, 0, 55, 71
2, 13560, Note_on_c, 0, 51, 71
2, 13590, Note_on_c, 0, 72, 0
2, 13590, Note_on_c, 0, 66, 71
2, 13620, Note_on_c, 0, 66, 0
2, 13620, Note_on_c, 0, 67, 71
2, 13650, Note_on_c, 0, 67, 0
2, 13650, Note_on_c, 0, 63, 71
2, 13680, Note_on_c, 0, 63, 0
2, 13680, Note_on_c, 0, 51, 0
2, 13680, Note_on_c, 0, 55, 0
2, 13680, Note_on_c, 0, 60, 0
2, 13680, Note_on_c, 0, 74, 86
2, 13740, Note_on_c, 0, 59, 71
2, 13740, Note_on_c, 0, 55, 71
2, 13740, Note_on_c, 0, 53, 71
2, 13740, Note_on_c, 0, 50, 71
2, 13800, Note_on_c, 0, 50, 0
2, 13800, Note_on_c, 0, 55, 0
2, 13800, Note_on_c, 0, 53, 0
2, 13800, Note_on_c, 0, 59, 0
2, 13800, Note_on_c, 0, 59, 71
2, 13800, Note_on_c, 0, 55, 71
2, 13800, Note_on_c, 0, 53, 71
2, 13800, Note_on_c, 0, 50, 71
2, 13830, Note_on_c, 0, 74, 0
2, 13830, Note_on_c, 0, 70, 71
2, 13860, Note_on_c, 0, 70, 0
2, 13860, Note_on_c, 0, 71, 71
2, 13890, Note_on_c, 0, 71, 0
2, 13890, Note_on_c, 0, 65, 71
2, 13920, Note_on_c, 0, 65, 0
2, 13920, Note_on_c, 0, 50, 0
2, 13920, Note_on_c, 0, 59, 0
2, 13920, Note_on_c, 0, 55, 0
2, 13920, Note_on_c, 0, 53, 0
2, 13920, Note_on_c, 0, 75, 89
2, 13920, Note_on_c, 0, 60, 89
2, 13920, Note_on_c, 0, 55, 89
2, 13920, Note_on_c, 0, 51, 89
2, 13920, Note_on_c, 0, 48, 89
2, 13950, Note_on_c, 0, 75, 0
2, 13950, Note_on_c, 0, 71, 73
2, 13980, Note_on_c, 0, 71, 0
2, 13980, Note_on_c, 0, 48, 0
2, 13980, Note_on_c, 0, 60, 0
2, 13980, Note_on_c, 0, 55, 0
2, 13980, Note_on_c, 0, 51, 0
2, 13980, Note_on_c, 0, 72, 73
2, 14010, Note_on_c, 0, 72, 0
2, 14010, Note_on_c, 0, 67, 73
2, 14040, Note_on_c, 0, 67, 0
2, 14040, Note_on_c, 0, 71, 89
2, 14040, Note_on_c, 0, 59, 89
2, 14040, Note_on_c, 0, 55, 89
2, 14040, Note_on_c, 0, 53, 89
2, 14070, Note_on_c, 0, 71, 0
2, 14070, Note_on_c, 0, 67, 73
2, 14100, Note_on_c, 0, 67, 0
2, 14100, Note_on_c, 0, 53, 0
2, 14100, Note_on_c, 0, 55, 0
2, 14100, Note_on_c, 0, 59, 0
2, 14100, Note_on_c, 0, 68, 73
2, 14130, Note_on_c, 0, 68, 0
2, 14130, Note_on_c, 0, 62, 73
2, 14160, Note_on_c, 0, 62, 0
2, 14160, Note_on_c, 0, 72, 89
2, 14160, Note_on_c, 0, 60, 89
2, 14160, Note_on_c, 0, 55, 89
2, 14160, Note_on_c, 0, 51, 89
2, 14190, Note_on_c, 0, 72, 0
2, 14190, Note_on_c, 0, 66, 73
2, 14220, Note_on_c, 0, 66, 0
2, 14220, Note_on_c, 0, 51, 0
2, 14220, Note_on_c, 0, 55, 0
2, 14220, Note_on_c, 0, 60, 0
2, 14220, Note_on_c, 0, 67, 73
2, 14250, Note_on_c, 0, 67, 0
2, 14250, Note_on_c, 0, 63, 73
2, 14280, Note_on_c, 0, 63, 0
2, 14280, Note_on_c, 0, 74, 91
2, 14280, Note_on_c, 0, 59, 91
2, 14280, Note_on_c, 0, 55, 91
2, 14280, Note_on_c, 0, 53, 91
2, 14280, Note_on_c, 0, 50, 91
2, 14310, Note_on_c, 0, 74, 0
2, 14310, Note_on_c, 0, 70, 76
2, 14340, Note_on_c, 0, 70, 0
2, 14340, Note_on_c, 0, 50, 0
2, 14340, Note_on_c, 0, 59, 0
2, 14340, Note_on_c, 0, 55, 0
2, 14340, Note_on_c, 0, 53, 0
2, 14340, Note_on_c, 0, 71, 76
2, 14370, Note_on_c, 0, 71, 0
2, 14370, Note_on_c, 0, 67, 76
2, 14400, Note_on_c, 0, 67, 0
2, 14400, Note_on_c, 0, 75, 76
2, 14400, Note_on_c, 0, 60, 91
2, 14400, Note_on_c, 0, 55, 91
2, 14400, Note_on_c, 0, 51, 91
2, 14400, Note_on_c, 0, 48, 91
2, 14430, Note_on_c, 0, 75, 0
2, 14430, Note_on_c, 0, 71, 76
2, 14460, Note_on_c, 0, 71, 0
2, 14460, Note_on_c, 0, 48, 0
2, 14460, Note_on_c, 0, 60, 0
2, 14460, Note_on_c, 0, 55, 0
2, 14460, Note_on_c, 0, 51, 0
2, 14460, Note_on_c, 0, 72, 76
2, 14490, Note_on_c, 0, 72, 0
2, 14490, Note_on_c, 0, 67, 76
2, 14520, Note_on_c, 0, 67, 0
2, 14520, Note_on_c, 0, 76, 95
2, 14520, Note_on_c, 0, 58, 95
2, 14520, Note_on_c, 0, 46, 95
2, 14550, Note_on_c, 0, 76, 0
2, 14550, Note_on_c, 0, 72, 80
2, 14580, Note_on_c, 0, 72, 0
2, 14580, Note_on_c, 0, 46, 0
2, 14580, Note_on_c, 0, 58, 0
2, 14580, Note_on_c, 0, 73, 80
2, 14610, Note_on_c, 0, 73, 0
2, 14610, Note_on_c, 0, 67, 80
2, 14640, Note_on_c, 0, 67, 0
2, 14640, Note_on_c, 0, 77, 95
2, 14640, Note_on_c, 0, 57, 95
2, 14640, Note_on_c, 0, 45, 95
2, 14670, Note_on_c, 0, 77, 0
2, 14670, Note_on_c, 0, 71, 80
2, 14700, Note_on_c, 0, 71, 0
2, 14700, Note_on_c, 0, 45, 0
2, 14700, Note_on_c, 0, 57, 0
2, 14700, Note_on_c, 0, 72, 80
2, 14730, Note_on_c, 0, 72, 0
2, 14730, Note_on_c, 0, 69, 80
2, 14760, Note_on_c, 0, 69, 0
2, 14760, Note_on_c, 0, 78, 95
2, 14760, Note_on_c, 0, 60, 95
2, 14760, Note_on_c, 0, 48, 95
2, 14790, Note_on_c, 0, 78, 0
2, 14790, Note_on_c, 0, 74, 80
2, 14820, Note_on_c, 0, 74, 0
2, 14820, Note_on_c, 0, 48, 0
2, 14820, Note_on_c, 0, 60, 0
2, 14820, Note_on_c, 0, 75, 80
2, 14850, Note_on_c, 0, 75, 0
2, 14850, Note_on_c, 0, 72, 80
2, 14880, Note_on_c, 0, 72, 0
2, 14880, Channel_aftertouch_c, 0, 104
2, 14880, Note_on_c, 0, 79, 84
2, 14880, Note_on_c, 0, 58, 84
2, 14880, Note_on_c, 0, 46, 84
2, 14940, Note_on_c, 0, 46, 0
2, 14940, Note_on_c, 0, 58, 0
2, 14940, Note_on_c, 0, 79, 0
2, 14940, Note_on_c, 0, 78, 84
2, 14940, Note_on_c, 0, 78, 84
2, 14940, Note_on_c, 0, 72, 84
2, 14940, Note_on_c, 0, 60, 84
2, 14970, Note_on_c, 0, 78, 0
2, 14970, Note_on_c, 0, 75, 84
2, 15000, Note_on_c, 0, 75, 0
2, 15000, Note_on_c, 0, 60, 0
2, 15000, Note_on_c, 0, 72, 0
2, 15000, Note_on_c, 0, 78, 0
2, 15000, Note_on_c, 0, 79, 84
2, 15000, Note_on_c, 0, 79, 84
2, 15000, Note_on_c, 0, 70, 84
2, 15000, Note_on_c, 0, 58, 84
2, 15030, Note_on_c, 0, 79, 0
2, 15030, Note_on_c, 0, 74, 84
2, 15060, Note_on_c, 0, 74, 0
2, 15060, Note_on_c, 0, 58, 0
2, 15060, Note_on_c, 0, 70, 0
2, 15060, Note_on_c, 0, 79, 0
2, 15060, Note_on_c, 0, 81, 84
2, 15060, Note_on_c, 0, 81, 84
2, 15060, Note_on_c, 0, 69, 84
2, 15060, Note_on_c, 0, 57, 84
2, 15090, Note_on_c, 0, 81, 0
2, 15090, Note_on_c, 0, 78, 84
2, 15120, Note_on_c, 0, 78, 0
2, 15120, Note_on_c, 0, 57, 0
2, 15120, Note_on_c, 0, 69, 0
2, 15120, Note_on_c, 0, 81, 0
2, 15120, Note_on_c, 0, 82, 84
2, 15120, Note_on_c, 0, 82, 84
2, 15120, Note_on_c, 0, 67, 84
2, 15120, Note_on_c, 0, 55, 84
2, 15150, Note_on_c, 0, 82, 0
2, 15150, Note_on_c, 0, 79, 84
2, 15180, Note_on_c, 0, 79, 0
2, 15180, Note_on_c, 0, 55, 0
2, 15180, Note_on_c, 0, 67, 0
2, 15180, Note_on_c, 0, 82, 0
2, 15180, Note_on_c, 0, 83, 84
2, 15180, Note_on_c, 0, 83, 84
2, 15180, Note_on_c, 0, 65, 84
2, 15180, Note_on_c, 0, 53, 84
2, 15210, Note_on_c, 0, 83, 0
2, 15210, Note_on_c, 0, 80, 84
2, 15240, Note_on_c, 0, 80, 0
2, 15240, Note_on_c, 0, 53, 0
2, 15240, Note_on_c, 0, 65, 0
2, 15240, Note_on_c, 0, 83, 0
2, 15240, Note_on_c, 0, 84, 86
2, 15240, Note_on_c, 0, 84, 86
2, 15240, Note_on_c, 0, 63, 86
2, 15240, Note_on_c, 0, 51, 86
2, 15270, Note_on_c, 0, 84, 0
2, 15270, Note_on_c, 0, 79, 86
2, 15300, Note_on_c, 0, 79, 0
2, 15300, Note_on_c, 0, 51, 0
2, 15300, Note_on_c, 0, 63, 0
2, 15300, Note_on_c, 0, 84, 0
2, 15300, Note_on_c, 0, 86, 86
2, 15300, Note_on_c, 0, 86, 86
2, 15300, Note_on_c, 0, 62, 86
2, 15300, Note_on_c, 0, 50, 86
2, 15330, Note_on_c, 0, 86, 0
2, 15330, Note_on_c, 0, 83, 86
2, 15360, Note_on_c, 0, 83, 0
2, 15360, Note_on_c, 0, 50, 0
2, 15360, Note_on_c, 0, 62, 0
2, 15360, Note_on_c, 0, 86, 0
2, 15360, Note_on_c, 0, 87, 86
2, 15360, Note_on_c, 0, 87, 86
2, 15360, Note_on_c, 0, 60, 86
2, 15360, Note_on_c, 0, 48, 86
2, 15390, Note_on_c, 0, 87, 0
2, 15390, Note_on_c, 0, 84, 86
2, 15420, Note_on_c, 0, 84, 0
2, 15420, Note_on_c, 0, 48, 0
2, 15420, Note_on_c, 0, 60, 0
2, 15420, Note_on_c, 0, 87, 0
2, 15420, Note_on_c, 0, 90, 86
2, 15420, Note_on_c, 0, 90, 86
2, 15420, Note_on_c, 0, 57, 86
2, 15420, Note_on_c, 0, 45, 86
2, 15450, Note_on_c, 0, 90, 0
2, 15450, Note_on_c, 0, 87, 86
2, 15480, Note_on_c, 0, 87, 0
2, 15480, Note_on_c, 0, 45, 0
2, 15480, Note_on_c, 0, 57, 0
2, 15480, Note_on_c, 0, 90, 0
2, 15480, Note_on_c, 0, 91, 86
2, 15480, Note_on_c, 0, 91, 86
2, 15480, Note_on_c, 0, 58, 86
2, 15480, Note_on_c, 0, 46, 86
2, 15510, Note_on_c, 0, 91, 0
2, 15510, Note_on_c, 0, 86, 86
2, 15540, Note_on_c, 0, 86, 0
2, 15540, Note_on_c, 0, 46, 0
2, 15540, Note_on_c, 0, 58, 0
2, 15540, Note_on_c, 0, 91, 0
2, 15540, Note_on_c, 0, 93, 86
2, 15540, Note_on_c, 0, 93, 86
2, 15540, Note_on_c, 0, 57, 86
2, 15540, Note_on_c, 0, 45, 86
2, 15570, Note_on_c, 0, 93, 0
2, 15570, Note_on_c, 0, 90, 86
2, 15600, Note_on_c, 0, 90, 0
2, 15600, Note_on_c, 0, 45, 0
2, 15600, Note_on_c, 0, 57, 0
2, 15600, Note_on_c, 0, 93, 0
2, 15600, Note_on_c, 0, 94, 86
2, 15600, Note_on_c, 0, 94, 86
2, 15600, Note_on_c, 0, 55, 86
2, 15600, Note_on_c, 0, 43, 86
2, 15630, Note_on_c, 0, 94, 0
2, 15630, Note_on_c, 0, 91, 86
2, 15660, Note_on_c, 0, 91, 0
2, 15660, Note_on_c, 0, 43, 0
2, 15660, Note_on_c, 0, 55, 0
2, 15660, Note_on_c, 0, 94, 0
2, 15660, Note_on_c, 0, 95, 86
2, 15660, Note_on_c, 0, 95, 86
2, 15660, Note_on_c, 0, 53, 86
2, 15660, Note_on_c, 0, 41, 86
2, 15690, Note_on_c, 0, 95, 0
2, 15690, Note_on_c, 0, 92, 86
2, 15720, Note_on_c, 0, 92, 0
2, 15720, Note_on_c, 0, 41, 0
2, 15720, Note_on_c, 0, 53, 0
2, 15720, Note_on_c, 0, 95, 0
2, 15720, Note_on_c, 0, 96, 89
2, 15720, Note_on_c, 0, 96, 89
2, 15720, Note_on_c, 0, 52, 89
2, 15720, Note_on_c, 0, 40, 89
2, 15750, Note_on_c, 0, 96, 0
2, 15750, Note_on_c, 0, 91, 89
2, 15780, Note_on_c, 0, 91, 0
2, 15780, Note_on_c, 0, 40, 0
2, 15780, Note_on_c, 0, 52, 0
2, 15780, Note_on_c, 0, 96, 0
2, 15780, Note_on_c, 0, 97, 89
2, 15780, Note_on_c, 0, 97, 89
2, 15780, Note_on_c, 0, 51, 89
2, 15780, Note_on_c, 0, 39, 89
2, 15810, Note_on_c, 0, 97, 0
2, 15810, Note_on_c, 0, 94, 89
2, 15840, Note_on_c, 0, 94, 0
2, 15840, Note_on_c, 0, 39, 0
2, 15840, Note_on_c, 0, 51, 0
2, 15840, Note_on_c, 0, 97, 0
2, 15840, Note_on_c, 0, 98, 99
2, 15840, Note_on_c, 0, 50, 99
2, 15840, Note_on_c, 0, 38, 99
2, 15900, Note_on_c, 0, 38, 0
2, 15900, Note_on_c, 0, 50, 0
2, 15900, Note_on_c, 0, 98, 0
2, 15960, Note_on_c, 0, 86, 91
2, 15960, Note_on_c, 0, 82, 91
2, 15960, Note_on_c, 0, 79, 91
2, 15960, Note_on_c, 0, 74, 91
2, 15960, Note_on_c, 0, 62, 91
2, 15960, Note_on_c, 0, 58, 91
2, 15960, Note_on_c, 0, 55, 91
2, 15960, Note_on_c, 0, 50, 91
2, 16080, Note_on_c, 0, 50, 0
2, 16080, Note_on_c, 0, 86, 0
2, 16080, Note_on_c, 0, 62, 0
2, 16080, Note_on_c, 0, 82, 0
2, 16080, Note_on_c, 0, 79, 0
2, 16080, Note_on_c, 0, 74, 0
2, 16080, Note_on_c, 0, 58, 0
2, 16080, Note_on_c, 0, 55, 0
2, 16080, Note_on_c, 0, 74, 91
2, 16080, Note_on_c, 0, 62, 91
2, 16080, Note_on_c, 0, 50, 91
2, 16080, Note_on_c, 0, 38, 91
2, 16260, Note_on_c, 0, 38, 0
2, 16260, Note_on_c, 0, 74, 0
2, 16260, Note_on_c, 0, 62, 0
2, 16260, Note_on_c, 0, 50, 0
2, 16260, Note_on_c, 0, 76, 91
2, 16260, Note_on_c, 0, 64, 91
2, 16260, Note_on_c, 0, 52, 91
2, 16260, Note_on_c, 0, 40, 91
2, 16320, Note_on_c, 0, 40, 0
2, 16320, Note_on_c, 0, 76, 0
2, 16320, Note_on_c, 0, 64, 0
2, 16320, Note_on_c, 0, 52, 0
2, 16320, Note_on_c, 0, 78, 91
2, 16320, Note_on_c, 0, 66, 91
2, 16320, Note_on_c, 0, 54, 91
2, 16320, Note_on_c, 0, 42, 91
2, 16380, Note_on_c, 0, 42, 0
2, 16380, Note_on_c, 0, 78, 0
2, 16380, Note_on_c, 0, 66, 0
2, 16380, Note_on_c, 0, 54, 0
2, 16380, Note_on_c, 0, 79, 91
2, 16380, Note_on_c, 0, 67, 91
2, 16380, Note_on_c, 0, 55, 91
2, 16380, Note_on_c, 0, 43, 91
2, 16440, Note_on_c, 0, 43, 0
2, 16440, Note_on_c, 0, 79, 0
2, 16440, Note_on_c, 0, 67, 0
2, 16440, Note_on_c, 0, 55, 0
2, 16440, Note_on_c, 0, 81, 91
2, 16440, Note_on_c, 0, 69, 91
2, 16440, Note_on_c, 0, 57, 91
2, 16440, Note_on_c, 0, 45, 91
2, 16500, Note_on_c, 0, 45, 0
2, 16500, Note_on_c, 0, 81, 0
2, 16500, Note_on_c, 0, 69, 0
2, 16500, Note_on_c, 0, 57, 0
2, 16500, Note_on_c, 0, 82, 91
2, 16500, Note_on_c, 0, 70, 91
2, 16500, Note_on_c, 0, 58, 91
2, 16500, Note_on_c, 0, 46, 91
2, 16560, Note_on_c, 0, 46, 0
2, 16560, Note_on_c, 0, 82, 0
2, 16560, Note_on_c, 0, 70, 0
2, 16560, Note_on_c, 0, 58, 0
2, 16560, Note_on_c, 0, 84, 91
2, 16560, Note_on_c, 0, 72, 91
2, 16560, Note_on_c, 0, 60, 91
2, 16560, Note_on_c, 0, 48, 91
2, 16620, Note_on_c, 0, 48, 0
2, 16620, Note_on_c, 0, 84, 0
2, 16620, Note_on_c, 0, 72, 0
2, 16620, Note_on_c, 0, 60, 0
2, 16620, Note_on_c, 0, 86, 91
2, 16620, Note_on_c, 0, 74, 91
2, 16620, Note_on_c, 0, 62, 91
2, 16620, Note_on_c, 0, 50, 91
2, 16680, Note_on_c, 0, 50, 0
2, 16680, Note_on_c, 0, 86, 0
2, 16680, Note_on_c, 0, 74, 0
2, 16680, Note_on_c, 0, 62, 0
2, 16680, Note_on_c, 0, 87, 91
2, 16680, Note_on_c, 0, 75, 91
2, 16680, Note_on_c, 0, 63, 91
2, 16680, Note_on_c, 0, 51, 91
2, 16740, Note_on_c, 0, 51, 0
2, 16740, Note_on_c, 0, 87, 0
2, 16740, Note_on_c, 0, 75, 0
2, 16740, Note_on_c, 0, 63, 0
2, 16740, Note_on_c, 0, 84, 91
2, 16740, Note_on_c, 0, 72, 91
2, 16740, Note_on_c, 0, 60, 91
2, 16740, Note_on_c, 0, 48, 91
2, 16800, Note_on_c, 0, 48, 0
2, 16800, Note_on_c, 0, 84, 0
2, 16800, Note_on_c, 0, 72, 0
2, 16800, Note_on_c, 0, 60, 0
2, 16800, Note_on_c, 0, 90, 96
2, 16800, Note_on_c, 0, 78, 101
2, 16800, Note_on_c, 0, 66, 101
2, 16800, Note_on_c, 0, 54, 101
2, 16860, Note_on_c, 0, 54, 0
2, 16860, Note_on_c, 0, 90, 0
2, 16860, Note_on_c, 0, 78, 0
2, 16860, Note_on_c, 0, 66, 0
2, 16920, Note_on_c, 0, 91, 96
2, 16920, Note_on_c, 0, 79, 101
2, 16920, Note_on_c, 0, 67, 101
2, 16920, Note_on_c, 0, 55, 101
2, 16980, Note_on_c, 0, 55, 0
2, 16980, Note_on_c, 0, 91, 0
2, 16980, Note_on_c, 0, 79, 0
2, 16980, Note_on_c, 0, 67, 0
2, 17040, Note_on_c, 0, 72, 96
2, 17040, Note_on_c, 0, 60, 101
2, 17040, Note_on_c, 0, 48, 101
2, 17040, Note_on_c, 0, 36, 101
2, 17100, Note_on_c, 0, 36, 0
2, 17100, Note_on_c, 0, 72, 0
2, 17100, Note_on_c, 0, 60, 0
2, 17100, Note_on_c, 0, 48, 0
2, 17160, Note_on_c, 0, 74, 96
2, 17160, Note_on_c, 0, 62, 101
2, 17160, Note_on_c, 0, 50, 101
2, 17160, Note_on_c, 0, 38, 101
2, 17220, Note_on_c, 0, 38, 0
2, 17220, Note_on_c, 0, 74, 0
2, 17220, Note_on_c, 0, 62, 0
2, 17220, Note_on_c, 0, 50, 0
2, 17220, Note_on_c, 0, 74, 96
2, 17280, Note_on_c, 0, 74, 0
2, 17280, Note_on_c, 0, 67, 93
2, 17280, Note_on_c, 0, 55, 93
2, 17280, Note_on_c, 0, 43, 93
2, 17280, Note_on_c, 0, 82, 93
2, 17280, Note_on_c, 0, 79, 93
2, 17280, Note_on_c, 0, 74, 93
2, 17280, Note_on_c, 0, 70, 93
2, 17280, Note_on_c, 0, 43, 93
2, 17280, Note_on_c, 0, 31, 93
2, 17340, Note_on_c, 0, 31, 0
2, 17340, Note_on_c, 0, 43, 0
2, 17340, Note_on_c, 0, 43, 91
2, 17340, Note_on_c, 0, 31, 91
2, 17400, Note_on_c, 0, 31, 0
2, 17400, Note_on_c, 0, 43, 0
2, 17400, Note_on_c, 0, 43, 0
2, 17400, Note_on_c, 0, 67, 0
2, 17400, Note_on_c, 0, 55, 0
2, 17400, Note_on_c, 0, 42, 91
2, 17400, Note_on_c, 0, 30, 91
2, 17460, Note_on_c, 0, 30, 0
2, 17460, Note_on_c, 0, 74, 0
2, 17460, Note_on_c, 0, 70, 0
2, 17460, Note_on_c, 0, 82, 0
2, 17460, Note_on_c, 0, 42, 0
2, 17460, Note_on_c, 0, 79, 0
2, 17460, Note_on_c, 0, 82, 91
2, 17460, Note_on_c, 0, 79, 91
2, 17460, Note_on_c, 0, 74, 91
2, 17460, Note_on_c, 0, 70, 91
2, 17460, Note_on_c, 0, 43, 91
2, 17460, Note_on_c, 0, 31, 91
2, 17520, Note_on_c, 0, 31, 0
2, 17520, Note_on_c, 0, 79, 0
2, 17520, Note_on_c, 0, 74, 0
2, 17520, Note_on_c, 0, 82, 0
2, 17520, Note_on_c, 0, 43, 0
2, 17520, Note_on_c, 0, 70, 0
2, 17520, Note_on_c, 0, 81, 91
2, 17520, Note_on_c, 0, 76, 91
2, 17520, Note_on_c, 0, 73, 91
2, 17520, Note_on_c, 0, 69, 91
2, 17520, Note_on_c, 0, 45, 91
2, 17520, Note_on_c, 0, 33, 91
2, 17580, Note_on_c, 0, 33, 0
2, 17580, Note_on_c, 0, 45, 0
2, 17580, Note_on_c, 0, 47, 91
2, 17580, Note_on_c, 0, 35, 91
2, 17640, Note_on_c, 0, 35, 0
2, 17640, Note_on_c, 0, 47, 0
2, 17640, Note_on_c, 0, 49, 91
2, 17640, Note_on_c, 0, 37, 91
2, 17700, Note_on_c, 0, 37, 0
2, 17700, Note_on_c, 0, 76, 0
2, 17700, Note_on_c, 0, 73, 0
2, 17700, Note_on_c, 0, 81, 0
2, 17700, Note_on_c, 0, 49, 0
2, 17700, Note_on_c, 0, 69, 0
2, 17700, Note_on_c, 0, 81, 91
2, 17700, Note_on_c, 0, 76, 91
2, 17700, Note_on_c, 0, 73, 91
2, 17700, Note_on_c, 0, 69, 91
2, 17700, Note_on_c, 0, 45, 91
2, 17760, Note_on_c, 0, 45, 0
2, 17760, Note_on_c, 0, 73, 0
2, 17760, Note_on_c, 0, 81, 0
2, 17760, Note_on_c, 0, 76, 0
2, 17760, Note_on_c, 0, 69, 0
2, 17760, Note_on_c, 0, 78, 91
2, 17760, Note_on_c, 0, 74, 91
2, 17760, Note_on_c, 0, 69, 91
2, 17760, Note_on_c, 0, 66, 91
2, 17760, Note_on_c, 0, 50, 91
2, 17760, Note_on_c, 0, 38, 91
2, 17820, Note_on_c, 0, 38, 0
2, 17820, Note_on_c, 0, 50, 0
2, 17820, Note_on_c, 0, 54, 91
2, 17820, Note_on_c, 0, 42, 91
2, 17880, Note_on_c, 0, 42, 0
2, 17880, Note_on_c, 0, 74, 0
2, 17880, Note_on_c, 0, 66, 0
2, 17880, Note_on_c, 0, 78, 0
2, 17880, Note_on_c, 0, 54, 0
2, 17880, Note_on_c, 0, 69, 0
2, 17880, Note_on_c, 0, 75, 91
2, 17880, Note_on_c, 0, 72, 91
2, 17880, Note_on_c, 0, 69, 91
2, 17880, Note_on_c, 0, 63, 91
2, 17880, Note_on_c, 0, 57, 91
2, 17880, Note_on_c, 0, 45, 91
2, 17940, Note_on_c, 0, 45, 0
2, 17940, Note_on_c, 0, 57, 0
2, 17940, Note_on_c, 0, 55, 91
2, 17940, Note_on_c, 0, 43, 91
2, 18000, Note_on_c, 0, 43, 0
2, 18000, Note_on_c, 0, 72, 0
2, 18000, Note_on_c, 0, 63, 0
2, 18000, Note_on_c, 0, 75, 0
2, 18000, Note_on_c, 0, 55, 0
2, 18000, Note_on_c, 0, 69, 0
2, 18000, Note_on_c, 0, 74, 91
2, 18000, Note_on_c, 0, 72, 91
2, 18000, Note_on_c, 0, 69, 91
2, 18000, Note_on_c, 0, 62, 91
2, 18000, Note_on_c, 0, 54, 91
2, 18000, Note_on_c, 0, 42, 91
2, 18060, Note_on_c, 0, 42, 0
2, 18060, Note_on_c, 0, 54, 0
2, 18060, Note_on_c, 0, 57, 91
2, 18120, Note_on_c, 0, 57, 0
2, 18120, Note_on_c, 0, 62, 0
2, 18120, Note_on_c, 0, 74, 0
2, 18120, Note_on_c, 0, 72, 0
2, 18120, Note_on_c, 0, 69, 0
2, 18120, Note_on_c, 0, 62, 91
2, 18180, Note_on_c, 0, 62, 0
2, 18180, Note_on_c, 0, 74, 91
2, 18240, Note_on_c, 0, 74, 0
2, 18240, Note_on_c, 0, 82, 91
2, 18240, Note_on_c, 0, 79, 91
2, 18240, Note_on_c, 0, 74, 91
2, 18240, Note_on_c, 0, 70, 91
2, 18240, Note_on_c, 0, 43, 91
2, 18240, Note_on_c, 0, 31, 91
2, 18240, Note_on_c, 0, 70, 91
2, 18240, Note_on_c, 0, 43, 91
2, 18240, Note_on_c, 0, 31, 91
2, 18300, Note_on_c, 0, 31, 0
2, 18300, Note_on_c, 0, 43, 0
2, 18300, Note_on_c, 0, 31, 0
2, 18300, Note_on_c, 0, 43, 0
2, 18300, Note_on_c, 0, 43, 91
2, 18300, Note_on_c, 0, 31, 91
2, 18300, Note_on_c, 0, 43, 91
2, 18300, Note_on_c, 0, 31, 91
2, 18360, Note_on_c, 0, 31, 0
2, 18360, Note_on_c, 0, 43, 0
2, 18360, Note_on_c, 0, 31, 0
2, 18360, Note_on_c, 0, 43, 0
2, 18360, Note_on_c, 0, 42, 91
2, 18360, Note_on_c, 0, 30, 91
2, 18360, Note_on_c, 0, 42, 91
2, 18360, Note_on_c, 0, 30, 91
2, 18420, Note_on_c, 0, 30, 0
2, 18420, Note_on_c, 0, 70, 0
2, 18420, Note_on_c, 0, 82, 0
2, 18420, Note_on_c, 0, 70, 0
2, 18420, Note_on_c, 0, 79, 0
2, 18420, Note_on_c, 0, 74, 0
2, 18420, Note_on_c, 0, 30, 0
2, 18420, Note_on_c, 0, 42, 0
2, 18420, Note_on_c, 0, 42, 0
2, 18420, Note_on_c, 0, 82, 91
2, 18420, Note_on_c, 0, 79, 91
2, 18420, Note_on_c, 0, 74, 91
2, 18420, Note_on_c, 0, 70, 91
2, 18420, Note_on_c, 0, 43, 91
2, 18420, Note_on_c, 0, 31, 91
2, 18420, Note_on_c, 0, 70, 91
2, 18420, Note_on_c, 0, 43, 91
2, 18420, Note_on_c, 0, 31, 91
2, 18480, Note_on_c, 0, 31, 0
2, 18480, Note_on_c, 0, 70, 0
2, 18480, Note_on_c, 0, 82, 0
2, 18480, Note_on_c, 0, 43, 0
2, 18480, Note_on_c, 0, 79, 0
2, 18480, Note_on_c, 0, 74, 0
2, 18480, Note_on_c, 0, 70, 0
2, 18480, Note_on_c, 0, 31, 0
2, 18480, Note_on_c, 0, 43, 0
2, 18480, Note_on_c, 0, 81, 91
2, 18480, Note_on_c, 0, 76, 91
2, 18480, Note_on_c, 0, 73, 91
2, 18480, Note_on_c, 0, 69, 91
2, 18480, Note_on_c, 0, 45, 91
2, 18480, Note_on_c, 0, 33, 91
2, 18480, Note_on_c, 0, 69, 91
2, 18480, Note_on_c, 0, 45, 91
2, 18480, Note_on_c, 0, 33, 91
2, 18540, Note_on_c, 0, 33, 0
2, 18540, Note_on_c, 0, 45, 0
2, 18540, Note_on_c, 0, 33, 0
2, 18540, Note_on_c, 0, 45, 0
2, 18540, Note_on_c, 0, 47, 91
2, 18540, Note_on_c, 0, 35, 91
2, 18540, Note_on_c, 0, 47, 91
2, 18540, Note_on_c, 0, 35, 91
2, 18600, Note_on_c, 0, 35, 0
2, 18600, Note_on_c, 0, 47, 0
2, 18600, Note_on_c, 0, 35, 0
2, 18600, Note_on_c, 0, 47, 0
2, 18600, Note_on_c, 0, 49, 91
2, 18600, Note_on_c, 0, 37, 91
2, 18600, Note_on_c, 0, 49, 91
2, 18600, Note_on_c, 0, 37, 91
2, 18660, Note_on_c, 0, 37, 0
2, 18660, Note_on_c, 0, 69, 0
2, 18660, Note_on_c, 0, 81, 0
2, 18660, Note_on_c, 0, 69, 0
2, 18660, Note_on_c, 0, 76, 0
2, 18660, Note_on_c, 0, 73, 0
2, 18660, Note_on_c, 0, 37, 0
2, 18660, Note_on_c, 0, 49, 0
2, 18660, Note_on_c, 0, 49, 0
2, 18660, Note_on_c, 0, 81, 91
2, 18660, Note_on_c, 0, 76, 91
2, 18660, Note_on_c, 0, 73, 91
2, 18660, Note_on_c, 0, 69, 91
2, 18660, Note_on_c, 0, 45, 91
2, 18660, Note_on_c, 0, 69, 91
2, 18660, Note_on_c, 0, 45, 91
2, 18720, Note_on_c, 0, 45, 0
2, 18720, Note_on_c, 0, 45, 0
2, 18720, Note_on_c, 0, 76, 0
2, 18720, Note_on_c, 0, 73, 0
2, 18720, Note_on_c, 0, 81, 0
2, 18720, Note_on_c, 0, 69, 0
2, 18720, Note_on_c, 0, 69, 0
2, 18720, Note_on_c, 0, 78, 91
2, 18720, Note_on_c, 0, 74, 91
2, 18720, Note_on_c, 0, 69, 91
2, 18720, Note_on_c, 0, 66, 91
2, 18720, Note_on_c, 0, 50, 91
2, 18720, Note_on_c, 0, 38, 91
2, 18780, Note_on_c, 0, 38, 0
2, 18780, Note_on_c, 0, 50, 0
2, 18780, Note_on_c, 0, 54, 91
2, 18780, Note_on_c, 0, 42, 91
2, 18840, Note_on_c, 0, 42, 0
2, 18840, Note_on_c, 0, 74, 0
2, 18840, Note_on_c, 0, 66, 0
2, 18840, Note_on_c, 0, 78, 0
2, 18840, Note_on_c, 0, 54, 0
2, 18840, Note_on_c, 0, 69, 0
2, 18840, Note_on_c, 0, 75, 91
2, 18840, Note_on_c, 0, 72, 91
2, 18840, Note_on_c, 0, 69, 91
2, 18840, Note_on_c, 0, 63, 91
2, 18840, Note_on_c, 0, 57, 91
2, 18840, Note_on_c, 0, 45, 91
2, 18900, Note_on_c, 0, 45, 0
2, 18900, Note_on_c, 0, 57, 0
2, 18900, Note_on_c, 0, 55, 91
2, 18900, Note_on_c, 0, 43, 91
2, 18960, Note_on_c, 0, 43, 0
2, 18960, Note_on_c, 0, 72, 0
2, 18960, Note_on_c, 0, 63, 0
2, 18960, Note_on_c, 0, 75, 0
2, 18960, Note_on_c, 0, 55, 0
2, 18960, Note_on_c, 0, 69, 0
2, 18960, Note_on_c, 0, 74, 91
2, 18960, Note_on_c, 0, 72, 91
2, 18960, Note_on_c, 0, 69, 91
2, 18960, Note_on_c, 0, 62, 91
2, 18960, Note_on_c, 0, 54, 91
2, 18960, Note_on_c, 0, 42, 91
2, 19020, Note_on_c, 0, 42, 0
2, 19020, Note_on_c, 0, 54, 0
2, 19020, Note_on_c, 0, 57, 91
2, 19080, Note_on_c, 0, 57, 0
2, 19080, Note_on_c, 0, 62, 0
2, 19080, Note_on_c, 0, 74, 0
2, 19080, Note_on_c, 0, 72, 0
2, 19080, Note_on_c, 0, 69, 0
2, 19080, Note_on_c, 0, 62, 91
2, 19140, Note_on_c, 0, 62, 0
2, 19140, Note_on_c, 0, 74, 91
2, 19200, Note_on_c, 0, 74, 0
2, 19200, Note_on_c, 0, 79, 91
2, 19200, Note_on_c, 0, 74, 91
2, 19200, Note_on_c, 0, 70, 91
2, 19200, Note_on_c, 0, 67, 91
2, 19200, Note_on_c, 0, 55, 91
2, 19200, Note_on_c, 0, 50, 91
2, 19200, Note_on_c, 0, 46, 91
2, 19200, Note_on_c, 0, 43, 91
2, 19320, Note_on_c, 0, 43, 0
2, 19320, Note_on_c, 0, 79, 0
2, 19320, Note_on_c, 0, 55, 0
2, 19320, Note_on_c, 0, 74, 0
2, 19320, Note_on_c, 0, 70, 0
2, 19320, Note_on_c, 0, 67, 0
2, 19320, Note_on_c, 0, 50, 0
2, 19320, Note_on_c, 0, 46, 0
2, 19380, Note_on_c, 0, 67, 84
2, 19380, Note_on_c, 0, 62, 84
2, 19380, Note_on_c, 0, 58, 84
2, 19380, Note_on_c, 0, 46, 84
2, 19440, Note_on_c, 0, 46, 0
2, 19440, Note_on_c, 0, 67, 0
2, 19440, Note_on_c, 0, 62, 0
2, 19440, Note_on_c, 0, 58, 0
2, 19440, Note_on_c, 0, 67, 84
2, 19440, Note_on_c, 0, 62, 84
2, 19440, Note_on_c, 0, 58, 84
2, 19440, Note_on_c, 0, 46, 84
2, 19500, Note_on_c, 0, 46, 0
2, 19500, Note_on_c, 0, 67, 0
2, 19500, Note_on_c, 0, 62, 0
2, 19500, Note_on_c, 0, 58, 0
2, 19500, Note_on_c, 0, 67, 84
2, 19500, Note_on_c, 0, 62, 84
2, 19500, Note_on_c, 0, 58, 84
2, 19500, Note_on_c, 0, 46, 84
2, 19560, Note_on_c, 0, 46, 0
2, 19560, Note_on_c, 0, 67, 0
2, 19560, Note_on_c, 0, 62, 0
2, 19560, Note_on_c, 0, 58, 0
2, 19560, Note_on_c, 0, 67, 84
2, 19560, Note_on_c, 0, 62, 84
2, 19560, Note_on_c, 0, 58, 84
2, 19560, Note_on_c, 0, 46, 84
2, 19620, Note_on_c, 0, 46, 0
2, 19620, Note_on_c, 0, 67, 0
2, 19620, Note_on_c, 0, 62, 0
2, 19620, Note_on_c, 0, 58, 0
2, 19620, Note_on_c, 0, 67, 84
2, 19620, Note_on_c, 0, 62, 84
2, 19620, Note_on_c, 0, 58, 84
2, 19620, Note_on_c, 0, 46, 84
2, 19680, Note_on_c, 0, 46, 0
2, 19680, Note_on_c, 0, 67, 0
2, 19680, Note_on_c, 0, 62, 0
2, 19680, Note_on_c, 0, 58, 0
2, 19680, Channel_aftertouch_c, 0, 113
2, 19680, Note_on_c, 0, 69, 93
2, 19680, Note_on_c, 0, 66, 93
2, 19680, Note_on_c, 0, 62, 93
2, 19680, Note_on_c, 0, 60, 93
2, 19680, Note_on_c, 0, 48, 93
2, 19800, Note_on_c, 0, 48, 0
2, 19800, Note_on_c, 0, 62, 0
2, 19800, Note_on_c, 0, 69, 0
2, 19800, Note_on_c, 0, 66, 0
2, 19800, Note_on_c, 0, 60, 0
2, 19800, Note_on_c, 0, 67, 84
2, 19800, Note_on_c, 0, 58, 84
2, 19800, Note_on_c, 0, 46, 84
2, 19860, Note_on_c, 0, 46, 0
2, 19860, Note_on_c, 0, 58, 0
2, 19860, Note_on_c, 0, 67, 0
2, 19860, Note_on_c, 0, 67, 84
2, 19920, Note_on_c, 0, 67, 0
2, 19920, Note_on_c, 0, 79, 84
2, 19980, Note_on_c, 0, 79, 0
2, 19980, Note_on_c, 0, 77, 84
2, 20040, Note_on_c, 0, 77, 0
2, 20040, Note_on_c, 0, 75, 84
2, 20040, Note_on_c, 0, 55, 84
2, 20040, Note_on_c, 0, 50, 84
2, 20040, Note_on_c, 0, 47, 84
2, 20040, Note_on_c, 0, 43, 84
2, 20130, Note_on_c, 0, 75, 0
2, 20130, Note_on_c, 0, 74, 84
2, 20160, Note_on_c, 0, 74, 0
2, 20160, Note_on_c, 0, 43, 0
2, 20160, Note_on_c, 0, 55, 0
2, 20160, Note_on_c, 0, 50, 0
2, 20160, Note_on_c, 0, 47, 0
2, 20160, Note_on_c, 0, 74, 93
2, 20160, Note_on_c, 0, 71, 93
2, 20160, Note_on_c, 0, 67, 93
2, 20160, Note_on_c, 0, 65, 93
2, 20160, Note_on_c, 0, 48, 93
2, 20160, Note_on_c, 0, 36, 93
2, 20280, Note_on_c, 0, 65, 0
2, 20280, Note_on_c, 0, 67, 0
2, 20280, Note_on_c, 0, 74, 0
2, 20280, Note_on_c, 0, 71, 0
2, 20280, Note_on_c, 0, 75, 84
2, 20280, Note_on_c, 0, 72, 84
2, 20280, Note_on_c, 0, 67, 84
2, 20280, Note_on_c, 0, 63, 84
2, 20340, Note_on_c, 0, 63, 0
2, 20340, Note_on_c, 0, 36, 0
2, 20340, Note_on_c, 0, 75, 0
2, 20340, Note_on_c, 0, 48, 0
2, 20340, Note_on_c, 0, 67, 0
2, 20340, Note_on_c, 0, 72, 0
2, 20340, Note_on_c, 0, 67, 84
2, 20340, Note_on_c, 0, 63, 84
2, 20340, Note_on_c, 0, 60, 84
2, 20340, Note_on_c, 0, 48, 84
2, 20400, Note_on_c, 0, 48, 0
2, 20400, Note_on_c, 0, 67, 0
2, 20400, Note_on_c, 0, 63, 0
2, 20400, Note_on_c, 0, 60, 0
2, 20400, Note_on_c, 0, 67, 84
2, 20400, Note_on_c, 0, 63, 84
2, 20400, Note_on_c, 0, 60, 84
2, 20400, Note_on_c, 0, 48, 84
2, 20460, Note_on_c, 0, 48, 0
2, 20460, Note_on_c, 0, 67, 0
2, 20460, Note_on_c, 0, 63, 0
2, 20460, Note_on_c, 0, 60, 0
2, 20460, Note_on_c, 0, 67, 84
2, 20460, Note_on_c, 0, 63, 84
2, 20460, Note_on_c, 0, 60, 84
2, 20460, Note_on_c, 0, 48, 84
2, 20520, Note_on_c, 0, 48, 0
2, 20520, Note_on_c, 0, 67, 0
2, 20520, Note_on_c, 0, 63, 0
2, 20520, Note_on_c, 0, 60, 0
2, 20520, Note_on_c, 0, 67, 84
2, 20520, Note_on_c, 0, 63, 84
2, 20520, Note_on_c, 0, 60, 84
2, 20520, Note_on_c, 0, 48, 84
2, 20580, Note_on_c, 0, 48, 0
2, 20580, Note_on_c, 0, 67, 0
2, 20580, Note_on_c, 0, 63, 0
2, 20580, Note_on_c, 0, 60, 0
2, 20580, Note_on_c, 0, 67, 84
2, 20580, Note_on_c, 0, 63, 84
2, 20580, Note_on_c, 0, 60, 84
2, 20580, Note_on_c, 0, 48, 84
2, 20640, Note_on_c, 0, 48, 0
2, 20640, Note_on_c, 0, 67, 0
2, 20640, Note_on_c, 0, 63, 0
2, 20640, Note_on_c, 0, 60, 0
2, 20640, Note_on_c, 0, 68, 93
2, 20640, Note_on_c, 0, 65, 93
2, 20640, Note_on_c, 0, 62, 93
2, 20640, Note_on_c, 0, 59, 93
2, 20640, Note_on_c, 0, 47, 93
2, 20760, Note_on_c, 0, 47, 0
2, 20760, Note_on_c, 0, 62, 0
2, 20760, Note_on_c, 0, 68, 0
2, 20760, Note_on_c, 0, 65, 0
2, 20760, Note_on_c, 0, 59, 0
2, 20760, Note_on_c, 0, 67, 84
2, 20760, Note_on_c, 0, 63, 84
2, 20760, Note_on_c, 0, 60, 84
2, 20760, Note_on_c, 0, 48, 84
2, 20820, Note_on_c, 0, 48, 0
2, 20820, Note_on_c, 0, 67, 0
2, 20820, Note_on_c, 0, 63, 0
2, 20820, Note_on_c, 0, 60, 0
2, 20820, Note_on_c, 0, 67, 84
2, 20880, Note_on_c, 0, 67, 0
2, 20880, Note_on_c, 0, 79, 84
2, 20940, Note_on_c, 0, 79, 0
2, 20940, Note_on_c, 0, 75, 84
2, 21000, Note_on_c, 0, 75, 0
2, 21000, Note_on_c, 0, 74, 84
2, 21000, Note_on_c, 0, 55, 84
2, 21000, Note_on_c, 0, 51, 84
2, 21000, Note_on_c, 0, 48, 84
2, 21000, Note_on_c, 0, 43, 84
2, 21090, Note_on_c, 0, 74, 0
2, 21090, Note_on_c, 0, 72, 84
2, 21120, Note_on_c, 0, 72, 0
2, 21120, Note_on_c, 0, 43, 0
2, 21120, Note_on_c, 0, 55, 0
2, 21120, Note_on_c, 0, 51, 0
2, 21120, Note_on_c, 0, 48, 0
2, 21120, Note_on_c, 0, 72, 93
2, 21120, Note_on_c, 0, 67, 93
2, 21120, Note_on_c, 0, 65, 93
2, 21120, Note_on_c, 0, 55, 93
2, 21120, Note_on_c, 0, 50, 93
2, 21240, Note_on_c, 0, 65, 0
2, 21240, Note_on_c, 0, 72, 0
2, 21240, Note_on_c, 0, 67, 0
2, 21240, Note_on_c, 0, 71, 84
2, 21300, Note_on_c, 0, 71, 0
2, 21300, Note_on_c, 0, 55, 0
2, 21300, Note_on_c, 0, 50, 0
2, 21300, Note_on_c, 0, 67, 84
2, 21300, Note_on_c, 0, 65, 84
2, 21300, Note_on_c, 0, 62, 84
2, 21300, Note_on_c, 0, 59, 93
2, 21360, Note_on_c, 0, 59, 0
2, 21360, Note_on_c, 0, 67, 0
2, 21360, Note_on_c, 0, 65, 0
2, 21360, Note_on_c, 0, 62, 0
2, 21360, Note_on_c, 0, 67, 84
2, 21360, Note_on_c, 0, 65, 84
2, 21360, Note_on_c, 0, 62, 84
2, 21360, Note_on_c, 0, 59, 93
2, 21420, Note_on_c, 0, 59, 0
2, 21420, Note_on_c, 0, 67, 0
2, 21420, Note_on_c, 0, 65, 0
2, 21420, Note_on_c, 0, 62, 0
2, 21420, Note_on_c, 0, 67, 84
2, 21420, Note_on_c, 0, 65, 84
2, 21420, Note_on_c, 0, 62, 84
2, 21420, Note_on_c, 0, 59, 93
2, 21480, Note_on_c, 0, 59, 0
2, 21480, Note_on_c, 0, 67, 0
2, 21480, Note_on_c, 0, 65, 0
2, 21480, Note_on_c, 0, 62, 0
2, 21480, Note_on_c, 0, 67, 84
2, 21480, Note_on_c, 0, 65, 84
2, 21480, Note_on_c, 0, 62, 84
2, 21480, Note_on_c, 0, 59, 93
2, 21540, Note_on_c, 0, 59, 0
2, 21540, Note_on_c, 0, 67, 0
2, 21540, Note_on_c, 0, 65, 0
2, 21540, Note_on_c, 0, 62, 0
2, 21540, Note_on_c, 0, 67, 84
2, 21540, Note_on_c, 0, 65, 84
2, 21540, Note_on_c, 0, 62, 84
2, 21540, Note_on_c, 0, 59, 93
2, 21600, Note_on_c, 0, 59, 0
2, 21600, Note_on_c, 0, 67, 0
2, 21600, Note_on_c, 0, 65, 0
2, 21600, Note_on_c, 0, 62, 0
2, 21600, Note_on_c, 0, 68, 93
2, 21600, Note_on_c, 0, 65, 93
2, 21600, Note_on_c, 0, 62, 93
2, 21600, Note_on_c, 0, 60, 93
2, 21720, Note_on_c, 0, 60, 0
2, 21720, Note_on_c, 0, 68, 0
2, 21720, Note_on_c, 0, 67, 84
2, 21720, Note_on_c, 0, 59, 84
2, 21780, Note_on_c, 0, 59, 0
2, 21780, Note_on_c, 0, 65, 0
2, 21780, Note_on_c, 0, 62, 0
2, 21780, Note_on_c, 0, 67, 0
2, 21780, Note_on_c, 0, 67, 84
2, 21840, Note_on_c, 0, 67, 0
2, 21840, Note_on_c, 0, 79, 84
2, 21840, Note_on_c, 0, 74, 84
2, 21840, Note_on_c, 0, 71, 84
2, 21840, Note_on_c, 0, 67, 84
2, 21900, Note_on_c, 0, 67, 0
2, 21900, Note_on_c, 0, 79, 0
2, 21900, Note_on_c, 0, 74, 0
2, 21900, Note_on_c, 0, 71, 0
2, 21900, Note_on_c, 0, 77, 84
2, 21960, Note_on_c, 0, 77, 0
2, 21960, Note_on_c, 0, 75, 84
2, 21960, Note_on_c, 0, 55, 84
2, 21960, Note_on_c, 0, 50, 84
2, 21960, Note_on_c, 0, 47, 84
2, 21960, Note_on_c, 0, 43, 84
2, 22050, Note_on_c, 0, 75, 0
2, 22050, Note_on_c, 0, 74, 84
2, 22080, Note_on_c, 0, 74, 0
2, 22080, Note_on_c, 0, 43, 0
2, 22080, Note_on_c, 0, 55, 0
2, 22080, Note_on_c, 0, 50, 0
2, 22080, Note_on_c, 0, 47, 0
2, 22080, Note_on_c, 0, 75, 84
2, 22080, Note_on_c, 0, 72, 84
2, 22080, Note_on_c, 0, 67, 84
2, 22080, Note_on_c, 0, 48, 84
2, 22080, Note_on_c, 0, 36, 84
2, 22140, Note_on_c, 0, 36, 0
2, 22140, Note_on_c, 0, 48, 0
2, 22140, Note_on_c, 0, 43, 84
2, 22140, Note_on_c, 0, 31, 84
2, 22200, Note_on_c, 0, 31, 0
2, 22200, Note_on_c, 0, 43, 0
2, 22200, Note_on_c, 0, 45, 84
2, 22200, Note_on_c, 0, 33, 84
2, 22260, Note_on_c, 0, 33, 0
2, 22260, Note_on_c, 0, 67, 0
2, 22260, Note_on_c, 0, 75, 0
2, 22260, Note_on_c, 0, 72, 0
2, 22260, Note_on_c, 0, 45, 0
2, 22260, Note_on_c, 0, 75, 84
2, 22260, Note_on_c, 0, 72, 84
2, 22260, Note_on_c, 0, 67, 84
2, 22260, Note_on_c, 0, 47, 84
2, 22260, Note_on_c, 0, 35, 84
2, 22320, Note_on_c, 0, 35, 0
2, 22320, Note_on_c, 0, 67, 0
2, 22320, Note_on_c, 0, 75, 0
2, 22320, Note_on_c, 0, 72, 0
2, 22320, Note_on_c, 0, 47, 0
2, 22320, Note_on_c, 0, 72, 84
2, 22320, Note_on_c, 0, 67, 84
2, 22320, Note_on_c, 0, 63, 84
2, 22320, Note_on_c, 0, 48, 84
2, 22320, Note_on_c, 0, 36, 84
2, 22380, Note_on_c, 0, 36, 0
2, 22380, Note_on_c, 0, 48, 0
2, 22380, Note_on_c, 0, 50, 84
2, 22380, Note_on_c, 0, 38, 84
2, 22440, Note_on_c, 0, 38, 0
2, 22440, Note_on_c, 0, 50, 0
2, 22440, Note_on_c, 0, 51, 84
2, 22440, Note_on_c, 0, 39, 84
2, 22500, Note_on_c, 0, 39, 0
2, 22500, Note_on_c, 0, 63, 0
2, 22500, Note_on_c, 0, 72, 0
2, 22500, Note_on_c, 0, 67, 0
2, 22500, Note_on_c, 0, 51, 0
2, 22500, Note_on_c, 0, 72, 84
2, 22500, Note_on_c, 0, 50, 84
2, 22500, Note_on_c, 0, 38, 84
2, 22560, Note_on_c, 0, 38, 0
2, 22560, Note_on_c, 0, 50, 0
2, 22560, Note_on_c, 0, 72, 0
2, 22560, Note_on_c, 0, 79, 84
2, 22560, Note_on_c, 0, 75, 84
2, 22560, Note_on_c, 0, 72, 84
2, 22560, Note_on_c, 0, 67, 84
2, 22560, Note_on_c, 0, 48, 84
2, 22560, Note_on_c, 0, 36, 84
2, 22620, Note_on_c, 0, 36, 0
2, 22620, Note_on_c, 0, 48, 0
2, 22620, Note_on_c, 0, 43, 84
2, 22620, Note_on_c, 0, 31, 84
2, 22680, Note_on_c, 0, 31, 0
2, 22680, Note_on_c, 0, 43, 0
2, 22680, Note_on_c, 0, 45, 84
2, 22680, Note_on_c, 0, 33, 84
2, 22740, Note_on_c, 0, 33, 0
2, 22740, Note_on_c, 0, 75, 0
2, 22740, Note_on_c, 0, 72, 0
2, 22740, Note_on_c, 0, 79, 0
2, 22740, Note_on_c, 0, 45, 0
2, 22740, Note_on_c, 0, 67, 0
2, 22740, Note_on_c, 0, 79, 84
2, 22740, Note_on_c, 0, 47, 84
2, 22740, Note_on_c, 0, 35, 84
2, 22800, Note_on_c, 0, 35, 0
2, 22800, Note_on_c, 0, 47, 0
2, 22800, Note_on_c, 0, 79, 0
2, 22800, Note_on_c, 0, 75, 84
2, 22800, Note_on_c, 0, 72, 84
2, 22800, Note_on_c, 0, 67, 84
2, 22800, Note_on_c, 0, 48, 84
2, 22800, Note_on_c, 0, 36, 84
2, 22860, Note_on_c, 0, 36, 0
2, 22860, Note_on_c, 0, 48, 0
2, 22860, Note_on_c, 0, 50, 84
2, 22860, Note_on_c, 0, 38, 84
2, 22920, Note_on_c, 0, 38, 0
2, 22920, Note_on_c, 0, 50, 0
2, 22920, Note_on_c, 0, 51, 84
2, 22920, Note_on_c, 0, 39, 84
2, 22980, Note_on_c, 0, 39, 0
2, 22980, Note_on_c, 0, 67, 0
2, 22980, Note_on_c, 0, 75, 0
2, 22980, Note_on_c, 0, 72, 0
2, 22980, Note_on_c, 0, 51, 0
2, 22980, Note_on_c, 0, 75, 84
2, 22980, Note_on_c, 0, 50, 84
2, 22980, Note_on_c, 0, 38, 84
2, 23040, Note_on_c, 0, 38, 0
2, 23040, Note_on_c, 0, 50, 0
2, 23040, Note_on_c, 0, 75, 0
2, 23040, Note_on_c, 0, 79, 84
2, 23040, Note_on_c, 0, 75, 84
2, 23040, Note_on_c, 0, 72, 84
2, 23040, Note_on_c, 0, 67, 84
2, 23040, Note_on_c, 0, 48, 84
2, 23040, Note_on_c, 0, 36, 84
2, 23100, Note_on_c, 0, 36, 0
2, 23100, Note_on_c, 0, 75, 0
2, 23100, Note_on_c, 0, 72, 0
2, 23100, Note_on_c, 0, 79, 0
2, 23100, Note_on_c, 0, 48, 0
2, 23100, Note_on_c, 0, 67, 0
2, 23160, Channel_aftertouch_c, 0, 111
2, 23160, Note_on_c, 0, 67, 91
2, 23160, Note_on_c, 0, 63, 91
2, 23160, Note_on_c, 0, 51, 91
2, 23220, Note_on_c, 0, 51, 0
2, 23220, Note_on_c, 0, 63, 0
2, 23220, Note_on_c, 0, 67, 0
2, 23280, Note_on_c, 0, 72, 91
2, 23280, Note_on_c, 0, 67, 91
2, 23280, Note_on_c, 0, 63, 91
2, 23280, Note_on_c, 0, 51, 91
2, 23340, Note_on_c, 0, 51, 0
2, 23340, Note_on_c, 0, 72, 0
2, 23340, Note_on_c, 0, 67, 0
2, 23340, Note_on_c, 0, 63, 0
2, 23400, Note_on_c, 0, 74, 91
2, 23400, Note_on_c, 0, 71, 91
2, 23400, Note_on_c, 0, 67, 91
2, 23400, Note_on_c, 0, 65, 91
2, 23400, Note_on_c, 0, 62, 91
2, 23400, Note_on_c, 0, 50, 91
2, 23460, Note_on_c, 0, 50, 0
2, 23460, Note_on_c, 0, 71, 0
2, 23460, Note_on_c, 0, 67, 0
2, 23460, Note_on_c, 0, 74, 0
2, 23460, Note_on_c, 0, 62, 0
2, 23460, Note_on_c, 0, 65, 0
2, 23520, Note_on_c, 0, 75, 91
2, 23520, Note_on_c, 0, 72, 91
2, 23520, Note_on_c, 0, 67, 91
2, 23520, Note_on_c, 0, 63, 91
2, 23520, Note_on_c, 0, 60, 91
2, 23520, Note_on_c, 0, 48, 91
2, 23580, Note_on_c, 0, 48, 0
2, 23580, Note_on_c, 0, 72, 0
2, 23580, Note_on_c, 0, 67, 0
2, 23580, Note_on_c, 0, 75, 0
2, 23580, Note_on_c, 0, 60, 0
2, 23580, Note_on_c, 0, 63, 0
2, 23640, Note_on_c, 0, 79, 91
2, 23640, Note_on_c, 0, 75, 91
2, 23640, Note_on_c, 0, 72, 91
2, 23640, Note_on_c, 0, 67, 91
2, 23640, Note_on_c, 0, 48, 91
2, 23640, Note_on_c, 0, 36, 91
2, 23700, Note_on_c, 0, 36, 0
2, 23700, Note_on_c, 0, 75, 0
2, 23700, Note_on_c, 0, 72, 0
2, 23700, Note_on_c, 0, 79, 0
2, 23700, Note_on_c, 0, 48, 0
2, 23700, Note_on_c, 0, 67, 0
2, 23760, Note_on_c, 0, 79, 91
2, 23760, Note_on_c, 0, 75, 91
2, 23760, Note_on_c, 0, 72, 91
2, 23760, Note_on_c, 0, 67, 91
2, 23760, Note_on_c, 0, 60, 91
2, 23760, Note_on_c, 0, 48, 91
2, 23820, Note_on_c, 0, 48, 0
2, 23820, Note_on_c, 0, 75, 0
2, 23820, Note_on_c, 0, 72, 0
2, 23820, Note_on_c, 0, 79, 0
2, 23820, Note_on_c, 0, 60, 0
2, 23820, Note_on_c, 0, 67, 0
2, 23880, Note_on_c, 0, 79, 91
2, 23880, Note_on_c, 0, 74, 91
2, 23880, Note_on_c, 0, 67, 91
2, 23880, Note_on_c, 0, 58, 91
2, 23880, Note_on_c, 0, 46, 91
2, 23940, Note_on_c, 0, 46, 0
2, 23940, Note_on_c, 0, 67, 0
2, 23940, Note_on_c, 0, 79, 0
2, 23940, Note_on_c, 0, 74, 0
2, 23940, Note_on_c, 0, 58, 0
2, 24000, Note_on_c, 0, 45, 84
2, 24000, Note_on_c, 0, 33, 84
2, 24000, Note_on_c, 0, 85, 71
2, 24000, Note_on_c, 0, 79, 71
2, 24000, Note_on_c, 0, 76, 71
2, 24000, Note_on_c, 0, 57, 91
2, 24000, Note_on_c, 0, 52, 91
2, 24000, Note_on_c, 0, 49, 91
2, 24000, Note_on_c, 0, 45, 91
2, 24030, Note_on_c, 0, 33, 0
2, 24030, Note_on_c, 0, 45, 0
2, 24030, Note_on_c, 0, 47, 84
2, 24030, Note_on_c, 0, 35, 84
2, 24060, Note_on_c, 0, 35, 0
2, 24060, Note_on_c, 0, 45, 0
2, 24060, Note_on_c, 0, 47, 0
2, 24060, Note_on_c, 0, 57, 0
2, 24060, Note_on_c, 0, 49, 0
2, 24060, Note_on_c, 0, 52, 0
2, 24060, Note_on_c, 0, 49, 84
2, 24060, Note_on_c, 0, 37, 84
2, 24090, Note_on_c, 0, 37, 0
2, 24090, Note_on_c, 0, 49, 0
2, 24090, Note_on_c, 0, 50, 84
2, 24090, Note_on_c, 0, 38, 84
2, 24120, Note_on_c, 0, 38, 0
2, 24120, Note_on_c, 0, 50, 0
2, 24120, Note_on_c, 0, 52, 86
2, 24120, Note_on_c, 0, 40, 86
2, 24120, Note_on_c, 0, 45, 91
2, 24120, Note_on_c, 0, 33, 91
2, 24150, Note_on_c, 0, 40, 0
2, 24150, Note_on_c, 0, 52, 0
2, 24150, Note_on_c, 0, 53, 86
2, 24150, Note_on_c, 0, 41, 86
2, 24180, Note_on_c, 0, 41, 0
2, 24180, Note_on_c, 0, 45, 0
2, 24180, Note_on_c, 0, 33, 0
2, 24180, Note_on_c, 0, 53, 0
2, 24180, Note_on_c, 0, 55, 86
2, 24180, Note_on_c, 0, 43, 86
2, 24210, Note_on_c, 0, 43, 0
2, 24210, Note_on_c, 0, 55, 0
2, 24210, Note_on_c, 0, 57, 86
2, 24210, Note_on_c, 0, 45, 86
2, 24240, Note_on_c, 0, 45, 0
2, 24240, Note_on_c, 0, 85, 0
2, 24240, Note_on_c, 0, 57, 0
2, 24240, Note_on_c, 0, 58, 99
2, 24240, Note_on_c, 0, 46, 99
2, 24240, Note_on_c, 0, 86, 81
2, 24270, Note_on_c, 0, 46, 0
2, 24270, Note_on_c, 0, 58, 0
2, 24270, Note_on_c, 0, 57, 99
2, 24270, Note_on_c, 0, 45, 99
2, 24300, Note_on_c, 0, 45, 0
2, 24300, Note_on_c, 0, 57, 0
2, 24300, Note_on_c, 0, 55, 99
2, 24300, Note_on_c, 0, 43, 99
2, 24330, Note_on_c, 0, 43, 0
2, 24330, Note_on_c, 0, 55, 0
2, 24330, Note_on_c, 0, 53, 86
2, 24330, Note_on_c, 0, 41, 86
2, 24360, Note_on_c, 0, 41, 0
2, 24360, Note_on_c, 0, 53, 0
2, 24360, Note_on_c, 0, 52, 86
2, 24360, Note_on_c, 0, 40, 86
2, 24390, Note_on_c, 0, 40, 0
2, 24390, Note_on_c, 0, 52, 0
2, 24390, Note_on_c, 0, 50, 86
2, 24390, Note_on_c, 0, 38, 86
2, 24420, Note_on_c, 0, 38, 0
2, 24420, Note_on_c, 0, 50, 0
2, 24420, Note_on_c, 0, 48, 84
2, 24420, Note_on_c, 0, 36, 84
2, 24450, Note_on_c, 0, 36, 0
2, 24450, Note_on_c, 0, 48, 0
2, 24450, Note_on_c, 0, 46, 84
2, 24450, Note_on_c, 0, 34, 84
2, 24480, Note_on_c, 0, 34, 0
2, 24480, Note_on_c, 0, 79, 0
2, 24480, Note_on_c, 0, 86, 0
2, 24480, Note_on_c, 0, 76, 0
2, 24480, Note_on_c, 0, 46, 0
2, 24480, Note_on_c, 0, 45, 84
2, 24480, Note_on_c, 0, 33, 84
2, 24480, Note_on_c, 0, 85, 71
2, 24480, Note_on_c, 0, 79, 71
2, 24480, Note_on_c, 0, 76, 71
2, 24480, Note_on_c, 0, 45, 91
2, 24510, Note_on_c, 0, 33, 0
2, 24510, Note_on_c, 0, 45, 0
2, 24510, Note_on_c, 0, 47, 84
2, 24510, Note_on_c, 0, 35, 84
2, 24540, Note_on_c, 0, 35, 0
2, 24540, Note_on_c, 0, 45, 0
2, 24540, Note_on_c, 0, 47, 0
2, 24540, Note_on_c, 0, 49, 84
2, 24540, Note_on_c, 0, 37, 84
2, 24570, Note_on_c, 0, 37, 0
2, 24570, Note_on_c, 0, 49, 0
2, 24570, Note_on_c, 0, 50, 84
2, 24570, Note_on_c, 0, 38, 84
2, 24600, Note_on_c, 0, 38, 0
2, 24600, Note_on_c, 0, 50, 0
2, 24600, Note_on_c, 0, 52, 86
2, 24600, Note_on_c, 0, 40, 86
2, 24630, Note_on_c, 0, 40, 0
2, 24630, Note_on_c, 0, 52, 0
2, 24630, Note_on_c, 0, 53, 86
2, 24630, Note_on_c, 0, 41, 86
2, 24660, Note_on_c, 0, 41, 0
2, 24660, Note_on_c, 0, 53, 0
2, 24660, Note_on_c, 0, 55, 86
2, 24660, Note_on_c, 0, 43, 86
2, 24690, Note_on_c, 0, 43, 0
2, 24690, Note_on_c, 0, 55, 0
2, 24690, Note_on_c, 0, 57, 86
2, 24690, Note_on_c, 0, 45, 86
2, 24720, Note_on_c, 0, 45, 0
2, 24720, Note_on_c, 0, 85, 0
2, 24720, Note_on_c, 0, 57, 0
2, 24720, Note_on_c, 0, 58, 99
2, 24720, Note_on_c, 0, 46, 99
2, 24720, Note_on_c, 0, 86, 81
2, 24720, Note_on_c, 0, 33, 91
2, 24750, Note_on_c, 0, 46, 0
2, 24750, Note_on_c, 0, 58, 0
2, 24750, Note_on_c, 0, 57, 99
2, 24750, Note_on_c, 0, 45, 99
2, 24780, Note_on_c, 0, 45, 0
2, 24780, Note_on_c, 0, 33, 0
2, 24780, Note_on_c, 0, 57, 0
2, 24780, Note_on_c, 0, 55, 99
2, 24780, Note_on_c, 0, 43, 99
2, 24810, Note_on_c, 0, 43, 0
2, 24810, Note_on_c, 0, 55, 0
2, 24810, Note_on_c, 0, 53, 86
2, 24810, Note_on_c, 0, 41, 86
2, 24840, Note_on_c, 0, 41, 0
2, 24840, Note_on_c, 0, 53, 0
2, 24840, Note_on_c, 0, 52, 86
2, 24840, Note_on_c, 0, 40, 86
2, 24870, Note_on_c, 0, 40, 0
2, 24870, Note_on_c, 0, 52, 0
2, 24870, Note_on_c, 0, 50, 86
2, 24870, Note_on_c, 0, 38, 86
2, 24900, Note_on_c, 0, 38, 0
2, 24900, Note_on_c, 0, 50, 0
2, 24900, Note_on_c, 0, 48, 84
2, 24900, Note_on_c, 0, 36, 84
2, 24930, Note_on_c, 0, 36, 0
2, 24930, Note_on_c, 0, 48, 0
2, 24930, Note_on_c, 0, 46, 84
2, 24930, Note_on_c, 0, 34, 84
2, 24960, Note_on_c, 0, 34, 0
2, 24960, Note_on_c, 0, 86, 0
2, 24960, Note_on_c, 0, 79, 0
2, 24960, Note_on_c, 0, 76, 0
2, 24960, Note_on_c, 0, 46, 0
2, 24960, Note_on_c, 0, 45, 84
2, 24960, Note_on_c, 0, 33, 84
2, 24960, Note_on_c, 0, 79, 91
2, 24960, Note_on_c, 0, 73, 91
2, 24960, Note_on_c, 0, 45, 91
2, 24960, Note_on_c, 0, 33, 91
2, 24990, Note_on_c, 0, 33, 0
2, 24990, Note_on_c, 0, 45, 0
2, 25020, Note_on_c, 0, 45, 0
2, 25020, Note_on_c, 0, 73, 0
2, 25020, Note_on_c, 0, 33, 0
2, 25020, Note_on_c, 0, 71, 91
2, 25020, Note_on_c, 0, 44, 91
2, 25080, Note_on_c, 0, 44, 0
2, 25080, Note_on_c, 0, 71, 0
2, 25080, Note_on_c, 0, 73, 91
2, 25080, Note_on_c, 0, 45, 91
2, 25140, Note_on_c, 0, 45, 0
2, 25140, Note_on_c, 0, 73, 0
2, 25140, Note_on_c, 0, 79, 0
2, 25140, Note_on_c, 0, 79, 91
2, 25140, Note_on_c, 0, 74, 91
2, 25140, Note_on_c, 0, 47, 91
2, 25200, Note_on_c, 0, 47, 0
2, 25200, Note_on_c, 0, 74, 0
2, 25200, Note_on_c, 0, 79, 0
2, 25200, Note_on_c, 0, 76, 91
2, 25200, Note_on_c, 0, 76, 91
2, 25200, Note_on_c, 0, 49, 91
2, 25260, Note_on_c, 0, 49, 0
2, 25260, Note_on_c, 0, 76, 0
2, 25260, Note_on_c, 0, 67, 91
2, 25260, Note_on_c, 0, 52, 91
2, 25320, Note_on_c, 0, 52, 0
2, 25320, Note_on_c, 0, 67, 0
2, 25320, Note_on_c, 0, 70, 91
2, 25320, Note_on_c, 0, 55, 91
2, 25380, Note_on_c, 0, 55, 0
2, 25380, Note_on_c, 0, 70, 0
2, 25380, Note_on_c, 0, 76, 0
2, 25380, Note_on_c, 0, 76, 91
2, 25380, Note_on_c, 0, 69, 91
2, 25380, Note_on_c, 0, 53, 91
2, 25440, Note_on_c, 0, 53, 0
2, 25440, Note_on_c, 0, 69, 0
2, 25440, Note_on_c, 0, 76, 0
2, 25440, Note_on_c, 0, 73, 91
2, 25440, Note_on_c, 0, 67, 91
2, 25440, Note_on_c, 0, 52, 91
2, 25500, Note_on_c, 0, 52, 0
2, 25500, Note_on_c, 0, 55, 91
2, 25560, Note_on_c, 0, 55, 0
2, 25560, Note_on_c, 0, 67, 0
2, 25560, Note_on_c, 0, 73, 0
2, 25560, Note_on_c, 0, 70, 91
2, 25560, Note_on_c, 0, 67, 91
2, 25560, Note_on_c, 0, 64, 91
2, 25620, Note_on_c, 0, 62, 91
2, 25680, Note_on_c, 0, 62, 0
2, 25680, Note_on_c, 0, 70, 0
2, 25680, Note_on_c, 0, 67, 0
2, 25680, Note_on_c, 0, 64, 0
2, 25680, Note_on_c, 0, 69, 91
2, 25680, Note_on_c, 0, 67, 91
2, 25680, Note_on_c, 0, 64, 91
2, 25680, Note_on_c, 0, 61, 91
2, 25740, Note_on_c, 0, 61, 0
2, 25740, Note_on_c, 0, 58, 91
2, 25800, Note_on_c, 0, 58, 0
2, 25800, Note_on_c, 0, 64, 0
2, 25800, Note_on_c, 0, 67, 0
2, 25800, Note_on_c, 0, 69, 0
2, 25800, Note_on_c, 0, 57, 91
2, 25800, Note_on_c, 0, 45, 91
2, 25860, Note_on_c, 0, 45, 0
2, 25860, Note_on_c, 0, 57, 0
2, 25860, Note_on_c, 0, 69, 91
2, 25860, Note_on_c, 0, 55, 91
2, 25860, Note_on_c, 0, 43, 91
2, 25920, Note_on_c, 0, 43, 0
2, 25920, Note_on_c, 0, 55, 0
2, 25920, Note_on_c, 0, 69, 0
2, 25920, Note_on_c, 0, 50, 84
2, 25920, Note_on_c, 0, 38, 84
2, 25920, Note_on_c, 0, 78, 71
2, 25920, Note_on_c, 0, 72, 71
2, 25920, Note_on_c, 0, 69, 71
2, 25920, Note_on_c, 0, 54, 91
2, 25920, Note_on_c, 0, 42, 91
2, 25950, Note_on_c, 0, 38, 0
2, 25950, Note_on_c, 0, 50, 0
2, 25950, Note_on_c, 0, 52, 84
2, 25950, Note_on_c, 0, 40, 84
2, 25980, Note_on_c, 0, 40, 0
2, 25980, Note_on_c, 0, 54, 0
2, 25980, Note_on_c, 0, 42, 0
2, 25980, Note_on_c, 0, 52, 0
2, 25980, Note_on_c, 0, 54, 84
2, 25980, Note_on_c, 0, 42, 84
2, 26010, Note_on_c, 0, 42, 0
2, 26010, Note_on_c, 0, 54, 0
2, 26010, Note_on_c, 0, 55, 84
2, 26010, Note_on_c, 0, 43, 84
2, 26040, Note_on_c, 0, 43, 0
2, 26040, Note_on_c, 0, 55, 0
2, 26040, Note_on_c, 0, 57, 86
2, 26040, Note_on_c, 0, 45, 86
2, 26040, Note_on_c, 0, 50, 91
2, 26040, Note_on_c, 0, 38, 91
2, 26070, Note_on_c, 0, 45, 0
2, 26070, Note_on_c, 0, 57, 0
2, 26070, Note_on_c, 0, 58, 86
2, 26070, Note_on_c, 0, 46, 86
2, 26100, Note_on_c, 0, 46, 0
2, 26100, Note_on_c, 0, 50, 0
2, 26100, Note_on_c, 0, 38, 0
2, 26100, Note_on_c, 0, 58, 0
2, 26100, Note_on_c, 0, 60, 86
2, 26100, Note_on_c, 0, 48, 86
2, 26130, Note_on_c, 0, 48, 0
2, 26130, Note_on_c, 0, 60, 0
2, 26130, Note_on_c, 0, 62, 86
2, 26130, Note_on_c, 0, 50, 86
2, 26160, Note_on_c, 0, 50, 0
2, 26160, Note_on_c, 0, 78, 0
2, 26160, Note_on_c, 0, 62, 0
2, 26160, Note_on_c, 0, 63, 99
2, 26160, Note_on_c, 0, 51, 99
2, 26160, Note_on_c, 0, 79, 81
2, 26190, Note_on_c, 0, 51, 0
2, 26190, Note_on_c, 0, 63, 0
2, 26190, Note_on_c, 0, 62, 99
2, 26190, Note_on_c, 0, 50, 99
2, 26220, Note_on_c, 0, 50, 0
2, 26220, Note_on_c, 0, 62, 0
2, 26220, Note_on_c, 0, 60, 99
2, 26220, Note_on_c, 0, 48, 99
2, 26250, Note_on_c, 0, 48, 0
2, 26250, Note_on_c, 0, 60, 0
2, 26250, Note_on_c, 0, 58, 86
2, 26250, Note_on_c, 0, 46, 86
2, 26280, Note_on_c, 0, 46, 0
2, 26280, Note_on_c, 0, 58, 0
2, 26280, Note_on_c, 0, 57, 86
2, 26280, Note_on_c, 0, 45, 86
2, 26310, Note_on_c, 0, 45, 0
2, 26310, Note_on_c, 0, 57, 0
2, 26310, Note_on_c, 0, 55, 86
2, 26310, Note_on_c, 0, 43, 86
2, 26340, Note_on_c, 0, 43, 0
2, 26340, Note_on_c, 0, 55, 0
2, 26340, Note_on_c, 0, 53, 84
2, 26340, Note_on_c, 0, 41, 84
2, 26370, Note_on_c, 0, 41, 0
2, 26370, Note_on_c, 0, 53, 0
2, 26370, Note_on_c, 0, 51, 84
2, 26370, Note_on_c, 0, 39, 84
2, 26400, Note_on_c, 0, 39, 0
2, 26400, Note_on_c, 0, 72, 0
2, 26400, Note_on_c, 0, 79, 0
2, 26400, Note_on_c, 0, 69, 0
2, 26400, Note_on_c, 0, 51, 0
2, 26400, Note_on_c, 0, 50, 84
2, 26400, Note_on_c, 0, 38, 84
2, 26400, Note_on_c, 0, 78, 71
2, 26400, Note_on_c, 0, 72, 71
2, 26400, Note_on_c, 0, 69, 71
2, 26400, Note_on_c, 0, 62, 91
2, 26400, Note_on_c, 0, 50, 91
2, 26430, Note_on_c, 0, 38, 0
2, 26430, Note_on_c, 0, 50, 0
2, 26430, Note_on_c, 0, 52, 84
2, 26430, Note_on_c, 0, 40, 84
2, 26460, Note_on_c, 0, 40, 0
2, 26460, Note_on_c, 0, 62, 0
2, 26460, Note_on_c, 0, 50, 0
2, 26460, Note_on_c, 0, 52, 0
2, 26460, Note_on_c, 0, 54, 84
2, 26460, Note_on_c, 0, 42, 84
2, 26490, Note_on_c, 0, 42, 0
2, 26490, Note_on_c, 0, 54, 0
2, 26490, Note_on_c, 0, 55, 84
2, 26490, Note_on_c, 0, 43, 84
2, 26520, Note_on_c, 0, 43, 0
2, 26520, Note_on_c, 0, 55, 0
2, 26520, Note_on_c, 0, 57, 86
2, 26520, Note_on_c, 0, 45, 86
2, 26520, Note_on_c, 0, 50, 91
2, 26520, Note_on_c, 0, 38, 91
2, 26550, Note_on_c, 0, 45, 0
2, 26550, Note_on_c, 0, 57, 0
2, 26550, Note_on_c, 0, 58, 86
2, 26550, Note_on_c, 0, 46, 86
2, 26580, Note_on_c, 0, 46, 0
2, 26580, Note_on_c, 0, 50, 0
2, 26580, Note_on_c, 0, 38, 0
2, 26580, Note_on_c, 0, 58, 0
2, 26580, Note_on_c, 0, 60, 86
2, 26580, Note_on_c, 0, 48, 86
2, 26610, Note_on_c, 0, 48, 0
2, 26610, Note_on_c, 0, 60, 0
2, 26610, Note_on_c, 0, 62, 86
2, 26610, Note_on_c, 0, 50, 86
2, 26640, Note_on_c, 0, 50, 0
2, 26640, Note_on_c, 0, 78, 0
2, 26640, Note_on_c, 0, 62, 0
2, 26640, Note_on_c, 0, 63, 99
2, 26640, Note_on_c, 0, 51, 99
2, 26640, Note_on_c, 0, 79, 81
2, 26670, Note_on_c, 0, 51, 0
2, 26670, Note_on_c, 0, 63, 0
2, 26670, Note_on_c, 0, 62, 99
2, 26670, Note_on_c, 0, 50, 99
2, 26700, Note_on_c, 0, 50, 0
2, 26700, Note_on_c, 0, 62, 0
2, 26700, Note_on_c, 0, 60, 99
2, 26700, Note_on_c, 0, 48, 99
2, 26730, Note_on_c, 0, 48, 0
2, 26730, Note_on_c, 0, 60, 0
2, 26730, Note_on_c, 0, 58, 86
2, 26730, Note_on_c, 0, 46, 86
2, 26760, Note_on_c, 0, 46, 0
2, 26760, Note_on_c, 0, 58, 0
2, 26760, Note_on_c, 0, 57, 86
2, 26760, Note_on_c, 0, 45, 86
2, 26790, Note_on_c, 0, 45, 0
2, 26790, Note_on_c, 0, 57, 0
2, 26790, Note_on_c, 0, 55, 86
2, 26790, Note_on_c, 0, 43, 86
2, 26820, Note_on_c, 0, 43, 0
2, 26820, Note_on_c, 0, 55, 0
2, 26820, Note_on_c, 0, 53, 84
2, 26820, Note_on_c, 0, 41, 84
2, 26820, Note_on_c, 0, 50, 91
2, 26850, Note_on_c, 0, 41, 0
2, 26850, Note_on_c, 0, 53, 0
2, 26850, Note_on_c, 0, 51, 84
2, 26850, Note_on_c, 0, 39, 84
2, 26880, Note_on_c, 0, 39, 0
2, 26880, Note_on_c, 0, 50, 0
2, 26880, Note_on_c, 0, 69, 0
2, 26880, Note_on_c, 0, 72, 0
2, 26880, Note_on_c, 0, 51, 0
2, 26880, Note_on_c, 0, 79, 0
2, 26880, Note_on_c, 0, 50, 84
2, 26880, Note_on_c, 0, 38, 84
2, 26880, Note_on_c, 0, 84, 91
2, 26880, Note_on_c, 0, 81, 91
2, 26880, Note_on_c, 0, 78, 91
2, 26880, Note_on_c, 0, 74, 91
2, 26880, Note_on_c, 0, 38, 91
2, 26940, Note_on_c, 0, 38, 0
2, 26940, Note_on_c, 0, 42, 91
2, 27000, Note_on_c, 0, 42, 0
2, 27000, Note_on_c, 0, 38, 0
2, 27000, Note_on_c, 0, 50, 0
2, 27000, Note_on_c, 0, 45, 91
2, 27060, Note_on_c, 0, 45, 0
2, 27060, Note_on_c, 0, 74, 0
2, 27060, Note_on_c, 0, 81, 0
2, 27060, Note_on_c, 0, 84, 0
2, 27060, Note_on_c, 0, 78, 0
2, 27060, Note_on_c, 0, 84, 91
2, 27060, Note_on_c, 0, 48, 91
2, 27120, Note_on_c, 0, 48, 0
2, 27120, Note_on_c, 0, 84, 0
2, 27120, Note_on_c, 0, 81, 91
2, 27120, Note_on_c, 0, 78, 91
2, 27120, Note_on_c, 0, 72, 91
2, 27120, Note_on_c, 0, 51, 91
2, 27180, Note_on_c, 0, 51, 0
2, 27180, Note_on_c, 0, 54, 91
2, 27240, Note_on_c, 0, 54, 0
2, 27240, Note_on_c, 0, 57, 91
2, 27300, Note_on_c, 0, 57, 0
2, 27300, Note_on_c, 0, 81, 0
2, 27300, Note_on_c, 0, 78, 0
2, 27300, Note_on_c, 0, 72, 0
2, 27300, Note_on_c, 0, 81, 91
2, 27300, Note_on_c, 0, 63, 91
2, 27360, Note_on_c, 0, 63, 0
2, 27360, Note_on_c, 0, 81, 0
2, 27360, Note_on_c, 0, 78, 91
2, 27360, Note_on_c, 0, 72, 91
2, 27360, Note_on_c, 0, 69, 91
2, 27360, Note_on_c, 0, 62, 91
2, 27420, Note_on_c, 0, 62, 0
2, 27420, Note_on_c, 0, 60, 91
2, 27480, Note_on_c, 0, 60, 0
2, 27480, Note_on_c, 0, 69, 0
2, 27480, Note_on_c, 0, 72, 0
2, 27480, Note_on_c, 0, 78, 0
2, 27480, Note_on_c, 0, 75, 91
2, 27480, Note_on_c, 0, 72, 91
2, 27480, Note_on_c, 0, 69, 91
2, 27480, Note_on_c, 0, 57, 91
2, 27540, Note_on_c, 0, 57, 0
2, 27540, Note_on_c, 0, 55, 91
2, 27600, Note_on_c, 0, 55, 0
2, 27600, Note_on_c, 0, 69, 0
2, 27600, Note_on_c, 0, 72, 0
2, 27600, Note_on_c, 0, 75, 0
2, 27600, Note_on_c, 0, 74, 91
2, 27600, Note_on_c, 0, 72, 91
2, 27600, Note_on_c, 0, 69, 91
2, 27600, Note_on_c, 0, 54, 91
2, 27660, Note_on_c, 0, 54, 0
2, 27660, Note_on_c, 0, 51, 91
2, 27720, Note_on_c, 0, 51, 0
2, 27720, Note_on_c, 0, 69, 0
2, 27720, Note_on_c, 0, 72, 0
2, 27720, Note_on_c, 0, 74, 0
2, 27720, Note_on_c, 0, 50, 91
2, 27720, Note_on_c, 0, 38, 91
2, 27780, Note_on_c, 0, 38, 0
2, 27780, Note_on_c, 0, 50, 0
2, 27780, Note_on_c, 0, 74, 91
2, 27780, Note_on_c, 0, 48, 91
2, 27780, Note_on_c, 0, 36, 91
2, 27840, Note_on_c, 0, 36, 0
2, 27840, Note_on_c, 0, 48, 0
2, 27840, Note_on_c, 0, 74, 0
2, 27840, Note_on_c, 0, 47, 84
2, 27840, Note_on_c, 0, 35, 84
2, 27840, Note_on_c, 0, 79, 71
2, 27840, Note_on_c, 0, 77, 71
2, 27840, Note_on_c, 0, 74, 71
2, 27840, Note_on_c, 0, 67, 71
2, 27840, Note_on_c, 0, 47, 71
2, 27840, Note_on_c, 0, 35, 71
2, 27870, Note_on_c, 0, 35, 0
2, 27870, Note_on_c, 0, 47, 0
2, 27870, Note_on_c, 0, 48, 84
2, 27870, Note_on_c, 0, 36, 84
2, 27900, Note_on_c, 0, 36, 0
2, 27900, Note_on_c, 0, 48, 0
2, 27900, Note_on_c, 0, 47, 0
2, 27900, Note_on_c, 0, 35, 0
2, 27900, Note_on_c, 0, 50, 84
2, 27900, Note_on_c, 0, 38, 84
2, 27930, Note_on_c, 0, 38, 0
2, 27930, Note_on_c, 0, 50, 0
2, 27930, Note_on_c, 0, 51, 84
2, 27930, Note_on_c, 0, 39, 84
2, 27960, Note_on_c, 0, 39, 0
2, 27960, Note_on_c, 0, 51, 0
2, 27960, Note_on_c, 0, 53, 86
2, 27960, Note_on_c, 0, 41, 86
2, 27960, Note_on_c, 0, 47, 71
2, 27960, Note_on_c, 0, 35, 71
2, 27990, Note_on_c, 0, 41, 0
2, 27990, Note_on_c, 0, 53, 0
2, 27990, Note_on_c, 0, 55, 86
2, 27990, Note_on_c, 0, 43, 86
2, 28020, Note_on_c, 0, 43, 0
2, 28020, Note_on_c, 0, 55, 0
2, 28020, Note_on_c, 0, 47, 0
2, 28020, Note_on_c, 0, 35, 0
2, 28020, Note_on_c, 0, 57, 86
2, 28020, Note_on_c, 0, 45, 86
2, 28050, Note_on_c, 0, 45, 0
2, 28050, Note_on_c, 0, 57, 0
2, 28050, Note_on_c, 0, 59, 86
2, 28050, Note_on_c, 0, 47, 86
2, 28080, Note_on_c, 0, 47, 0
2, 28080, Note_on_c, 0, 79, 0
2, 28080, Note_on_c, 0, 67, 0
2, 28080, Note_on_c, 0, 59, 0
2, 28080, Note_on_c, 0, 60, 99
2, 28080, Note_on_c, 0, 48, 99
2, 28080, Note_on_c, 0, 80, 81
2, 28080, Note_on_c, 0, 68, 81
2, 28080, Note_on_c, 0, 60, 81
2, 28110, Note_on_c, 0, 48, 0
2, 28110, Note_on_c, 0, 60, 0
2, 28110, Note_on_c, 0, 58, 99
2, 28110, Note_on_c, 0, 46, 99
2, 28140, Note_on_c, 0, 46, 0
2, 28140, Note_on_c, 0, 58, 0
2, 28140, Note_on_c, 0, 56, 99
2, 28140, Note_on_c, 0, 44, 99
2, 28170, Note_on_c, 0, 44, 0
2, 28170, Note_on_c, 0, 56, 0
2, 28170, Note_on_c, 0, 55, 86
2, 28170, Note_on_c, 0, 43, 86
2, 28200, Note_on_c, 0, 43, 0
2, 28200, Note_on_c, 0, 55, 0
2, 28200, Note_on_c, 0, 53, 86
2, 28200, Note_on_c, 0, 41, 86
2, 28230, Note_on_c, 0, 41, 0
2, 28230, Note_on_c, 0, 53, 0
2, 28230, Note_on_c, 0, 51, 86
2, 28230, Note_on_c, 0, 39, 86
2, 28260, Note_on_c, 0, 39, 0
2, 28260, Note_on_c, 0, 51, 0
2, 28260, Note_on_c, 0, 50, 84
2, 28260, Note_on_c, 0, 38, 84
2, 28290, Note_on_c, 0, 38, 0
2, 28290, Note_on_c, 0, 50, 0
2, 28290, Note_on_c, 0, 48, 84
2, 28290, Note_on_c, 0, 36, 84
2, 28320, Note_on_c, 0, 36, 0
2, 28320, Note_on_c, 0, 77, 0
2, 28320, Note_on_c, 0, 60, 0
2, 28320, Note_on_c, 0, 80, 0
2, 28320, Note_on_c, 0, 74, 0
2, 28320, Note_on_c, 0, 48, 0
2, 28320, Note_on_c, 0, 68, 0
2, 28320, Note_on_c, 0, 47, 84
2, 28320, Note_on_c, 0, 35, 84
2, 28320, Note_on_c, 0, 79, 71
2, 28320, Note_on_c, 0, 77, 71
2, 28320, Note_on_c, 0, 74, 71
2, 28320, Note_on_c, 0, 67, 71
2, 28320, Note_on_c, 0, 55, 71
2, 28320, Note_on_c, 0, 50, 71
2, 28320, Note_on_c, 0, 47, 91
2, 28350, Note_on_c, 0, 35, 0
2, 28350, Note_on_c, 0, 47, 0
2, 28350, Note_on_c, 0, 48, 84
2, 28350, Note_on_c, 0, 36, 84
2, 28380, Note_on_c, 0, 36, 0
2, 28380, Note_on_c, 0, 47, 0
2, 28380, Note_on_c, 0, 48, 0
2, 28380, Note_on_c, 0, 50, 0
2, 28380, Note_on_c, 0, 55, 0
2, 28380, Note_on_c, 0, 50, 84
2, 28380, Note_on_c, 0, 38, 84
2, 28410, Note_on_c, 0, 38, 0
2, 28410, Note_on_c, 0, 50, 0
2, 28410, Note_on_c, 0, 51, 84
2, 28410, Note_on_c, 0, 39, 84
2, 28440, Note_on_c, 0, 39, 0
2, 28440, Note_on_c, 0, 51, 0
2, 28440, Note_on_c, 0, 53, 86
2, 28440, Note_on_c, 0, 41, 86
2, 28440, Note_on_c, 0, 55, 71
2, 28440, Note_on_c, 0, 50, 71
2, 28440, Note_on_c, 0, 47, 91
2, 28470, Note_on_c, 0, 41, 0
2, 28470, Note_on_c, 0, 53, 0
2, 28470, Note_on_c, 0, 55, 86
2, 28470, Note_on_c, 0, 43, 86
2, 28500, Note_on_c, 0, 43, 0
2, 28500, Note_on_c, 0, 50, 0
2, 28500, Note_on_c, 0, 55, 0
2, 28500, Note_on_c, 0, 47, 0
2, 28500, Note_on_c, 0, 55, 0
2, 28500, Note_on_c, 0, 57, 86
2, 28500, Note_on_c, 0, 45, 86
2, 28530, Note_on_c, 0, 45, 0
2, 28530, Note_on_c, 0, 57, 0
2, 28530, Note_on_c, 0, 59, 86
2, 28530, Note_on_c, 0, 47, 86
2, 28560, Note_on_c, 0, 47, 0
2, 28560, Note_on_c, 0, 79, 0
2, 28560, Note_on_c, 0, 67, 0
2, 28560, Note_on_c, 0, 59, 0
2, 28560, Note_on_c, 0, 60, 99
2, 28560, Note_on_c, 0, 48, 99
2, 28560, Note_on_c, 0, 80, 81
2, 28560, Note_on_c, 0, 68, 81
2, 28560, Note_on_c, 0, 60, 81
2, 28590, Note_on_c, 0, 48, 0
2, 28590, Note_on_c, 0, 60, 0
2, 28590, Note_on_c, 0, 58, 99
2, 28590, Note_on_c, 0, 46, 99
2, 28620, Note_on_c, 0, 46, 0
2, 28620, Note_on_c, 0, 58, 0
2, 28620, Note_on_c, 0, 56, 99
2, 28620, Note_on_c, 0, 44, 99
2, 28650, Note_on_c, 0, 44, 0
2, 28650, Note_on_c, 0, 56, 0
2, 28650, Note_on_c, 0, 55, 86
2, 28650, Note_on_c, 0, 43, 86
2, 28680, Note_on_c, 0, 43, 0
2, 28680, Note_on_c, 0, 55, 0
2, 28680, Note_on_c, 0, 53, 86
2, 28680, Note_on_c, 0, 41, 86
2, 28710, Note_on_c, 0, 41, 0
2, 28710, Note_on_c, 0, 53, 0
2, 28710, Note_on_c, 0, 51, 86
2, 28710, Note_on_c, 0, 39, 86
2, 28740, Note_on_c, 0, 39, 0
2, 28740, Note_on_c, 0, 51, 0
2, 28740, Note_on_c, 0, 50, 84
2, 28740, Note_on_c, 0, 38, 84
2, 28770, Note_on_c, 0, 38, 0
2, 28770, Note_on_c, 0, 50, 0
2, 28770, Note_on_c, 0, 48, 84
2, 28770, Note_on_c, 0, 36, 84
2, 28800, Note_on_c, 0, 36, 0
2, 28800, Note_on_c, 0, 77, 0
2, 28800, Note_on_c, 0, 60, 0
2, 28800, Note_on_c, 0, 80, 0
2, 28800, Note_on_c, 0, 74, 0
2, 28800, Note_on_c, 0, 48, 0
2, 28800, Note_on_c, 0, 68, 0
2, 28800, Note_on_c, 0, 47, 100
2, 28800, Note_on_c, 0, 35, 100
2, 28800, Note_on_c, 0, 62, 100
2, 28800, Note_on_c, 0, 59, 100
2, 28800, Note_on_c, 0, 55, 100
2, 28830, Note_on_c, 0, 35, 0
2, 28830, Note_on_c, 0, 47, 0
2, 28830, Note_on_c, 0, 45, 84
2, 28830, Note_on_c, 0, 33, 84
2, 28860, Note_on_c, 0, 33, 0
2, 28860, Note_on_c, 0, 59, 0
2, 28860, Note_on_c, 0, 55, 0
2, 28860, Note_on_c, 0, 62, 0
2, 28860, Note_on_c, 0, 45, 0
2, 28860, Note_on_c, 0, 43, 84
2, 28860, Note_on_c, 0, 31, 84
2, 28890, Note_on_c, 0, 31, 0
2, 28890, Note_on_c, 0, 43, 0
2, 28890, Note_on_c, 0, 45, 84
2, 28890, Note_on_c, 0, 33, 84
2, 28920, Note_on_c, 0, 33, 0
2, 28920, Note_on_c, 0, 45, 0
2, 28920, Channel_aftertouch_c, 0, 93
2, 28920, Note_on_c, 0, 47, 84
2, 28920, Note_on_c, 0, 35, 84
2, 28920, Note_on_c, 0, 91, 73
2, 28920, Note_on_c, 0, 86, 73
2, 28920, Note_on_c, 0, 83, 73
2, 28920, Note_on_c, 0, 79, 73
2, 28920, Note_on_c, 0, 43, 73
2, 28950, Note_on_c, 0, 35, 0
2, 28950, Note_on_c, 0, 47, 0
2, 28950, Note_on_c, 0, 43, 84
2, 28950, Note_on_c, 0, 31, 84
2, 28980, Note_on_c, 0, 31, 0
2, 28980, Note_on_c, 0, 91, 0
2, 28980, Note_on_c, 0, 43, 0
2, 28980, Note_on_c, 0, 83, 0
2, 28980, Note_on_c, 0, 86, 0
2, 28980, Note_on_c, 0, 43, 0
2, 28980, Note_on_c, 0, 79, 0
2, 28980, Note_on_c, 0, 45, 84
2, 28980, Note_on_c, 0, 33, 84
2, 29010, Note_on_c, 0, 33, 0
2, 29010, Note_on_c, 0, 45, 0
2, 29010, Note_on_c, 0, 47, 84
2, 29010, Note_on_c, 0, 35, 84
2, 29040, Note_on_c, 0, 35, 0
2, 29040, Note_on_c, 0, 47, 0
2, 29040, Note_on_c, 0, 48, 84
2, 29040, Note_on_c, 0, 36, 84
2, 29040, Note_on_c, 0, 90, 73
2, 29040, Note_on_c, 0, 84, 73
2, 29040, Note_on_c, 0, 78, 73
2, 29040, Note_on_c, 0, 75, 73
2, 29040, Note_on_c, 0, 72, 73
2, 29040, Note_on_c, 0, 67, 73
2, 29070, Note_on_c, 0, 36, 0
2, 29070, Note_on_c, 0, 48, 0
2, 29070, Note_on_c, 0, 45, 84
2, 29070, Note_on_c, 0, 33, 84
2, 29100, Note_on_c, 0, 33, 0
2, 29100, Note_on_c, 0, 67, 0
2, 29100, Note_on_c, 0, 72, 0
2, 29100, Note_on_c, 0, 90, 0
2, 29100, Note_on_c, 0, 78, 0
2, 29100, Note_on_c, 0, 84, 0
2, 29100, Note_on_c, 0, 75, 0
2, 29100, Note_on_c, 0, 45, 0
2, 29100, Note_on_c, 0, 47, 84
2, 29100, Note_on_c, 0, 35, 84
2, 29130, Note_on_c, 0, 35, 0
2, 29130, Note_on_c, 0, 47, 0
2, 29130, Note_on_c, 0, 48, 84
2, 29130, Note_on_c, 0, 36, 84
2, 29160, Note_on_c, 0, 36, 0
2, 29160, Note_on_c, 0, 48, 0
2, 29160, Note_on_c, 0, 50, 84
2, 29160, Note_on_c, 0, 38, 84
2, 29160, Note_on_c, 0, 89, 73
2, 29160, Note_on_c, 0, 86, 73
2, 29160, Note_on_c, 0, 77, 73
2, 29160, Note_on_c, 0, 74, 73
2, 29160, Note_on_c, 0, 68, 73
2, 29190, Note_on_c, 0, 38, 0
2, 29190, Note_on_c, 0, 50, 0
2, 29190, Note_on_c, 0, 47, 84
2, 29190, Note_on_c, 0, 35, 84
2, 29220, Note_on_c, 0, 35, 0
2, 29220, Note_on_c, 0, 89, 0
2, 29220, Note_on_c, 0, 68, 0
2, 29220, Note_on_c, 0, 77, 0
2, 29220, Note_on_c, 0, 86, 0
2, 29220, Note_on_c, 0, 47, 0
2, 29220, Note_on_c, 0, 74, 0
2, 29220, Note_on_c, 0, 48, 84
2, 29220, Note_on_c, 0, 36, 84
2, 29250, Note_on_c, 0, 36, 0
2, 29250, Note_on_c, 0, 48, 0
2, 29250, Note_on_c, 0, 50, 84
2, 29250, Note_on_c, 0, 38, 84
2, 29280, Note_on_c, 0, 38, 0
2, 29280, Note_on_c, 0, 50, 0
2, 29280, Note_on_c, 0, 51, 84
2, 29280, Note_on_c, 0, 39, 84
2, 29280, Note_on_c, 0, 87, 73
2, 29280, Note_on_c, 0, 84, 73
2, 29280, Note_on_c, 0, 75, 73
2, 29280, Note_on_c, 0, 67, 73
2, 29310, Note_on_c, 0, 39, 0
2, 29310, Note_on_c, 0, 51, 0
2, 29310, Note_on_c, 0, 48, 84
2, 29310, Note_on_c, 0, 36, 84
2, 29340, Note_on_c, 0, 36, 0
2, 29340, Note_on_c, 0, 67, 0
2, 29340, Note_on_c, 0, 87, 0
2, 29340, Note_on_c, 0, 84, 0
2, 29340, Note_on_c, 0, 48, 0
2, 29340, Note_on_c, 0, 75, 0
2, 29340, Note_on_c, 0, 50, 84
2, 29340, Note_on_c, 0, 38, 84
2, 29370, Note_on_c, 0, 38, 0
2, 29370, Note_on_c, 0, 50, 0
2, 29370, Note_on_c, 0, 51, 84
2, 29370, Note_on_c, 0, 39, 84
2, 29400, Note_on_c, 0, 39, 0
2, 29400, Note_on_c, 0, 51, 0
2, 29400, Note_on_c, 0, 53, 84
2, 29400, Note_on_c, 0, 41, 84
2, 29400, Note_on_c, 0, 86, 73
2, 29400, Note_on_c, 0, 83, 73
2, 29400, Note_on_c, 0, 74, 73
2, 29400, Note_on_c, 0, 71, 73
2, 29400, Note_on_c, 0, 68, 73
2, 29400, Note_on_c, 0, 65, 73
2, 29430, Note_on_c, 0, 41, 0
2, 29430, Note_on_c, 0, 53, 0
2, 29430, Note_on_c, 0, 50, 84
2, 29430, Note_on_c, 0, 38, 84
2, 29460, Note_on_c, 0, 38, 0
2, 29460, Note_on_c, 0, 65, 0
2, 29460, Note_on_c, 0, 68, 0
2, 29460, Note_on_c, 0, 86, 0
2, 29460, Note_on_c, 0, 74, 0
2, 29460, Note_on_c, 0, 83, 0
2, 29460, Note_on_c, 0, 71, 0
2, 29460, Note_on_c, 0, 50, 0
2, 29460, Note_on_c, 0, 51, 84
2, 29460, Note_on_c, 0, 39, 84
2, 29490, Note_on_c, 0, 39, 0
2, 29490, Note_on_c, 0, 51, 0
2, 29490, Note_on_c, 0, 53, 84
2, 29490, Note_on_c, 0, 41, 84
2, 29520, Note_on_c, 0, 41, 0
2, 29520, Note_on_c, 0, 53, 0
2, 29520, Note_on_c, 0, 54, 84
2, 29520, Note_on_c, 0, 42, 84
2, 29520, Note_on_c, 0, 84, 73
2, 29520, Note_on_c, 0, 75, 73
2, 29520, Note_on_c, 0, 72, 73
2, 29520, Note_on_c, 0, 63, 73
2, 29550, Note_on_c, 0, 42, 0
2, 29550, Note_on_c, 0, 54, 0
2, 29550, Note_on_c, 0, 51, 84
2, 29550, Note_on_c, 0, 39, 84
2, 29580, Note_on_c, 0, 39, 0
2, 29580, Note_on_c, 0, 63, 0
2, 29580, Note_on_c, 0, 84, 0
2, 29580, Note_on_c, 0, 75, 0
2, 29580, Note_on_c, 0, 51, 0
2, 29580, Note_on_c, 0, 72, 0
2, 29580, Note_on_c, 0, 53, 84
2, 29580, Note_on_c, 0, 41, 84
2, 29610, Note_on_c, 0, 41, 0
2, 29610, Note_on_c, 0, 53, 0
2, 29610, Note_on_c, 0, 54, 84
2, 29610, Note_on_c, 0, 42, 84
2, 29640, Note_on_c, 0, 42, 0
2, 29640, Note_on_c, 0, 54, 0
2, 29640, Note_on_c, 0, 55, 86
2, 29640, Note_on_c, 0, 43, 86
2, 29640, Note_on_c, 0, 82, 73
2, 29640, Note_on_c, 0, 79, 73
2, 29640, Note_on_c, 0, 70, 73
2, 29640, Note_on_c, 0, 67, 73
2, 29670, Note_on_c, 0, 43, 0
2, 29670, Note_on_c, 0, 55, 0
2, 29670, Note_on_c, 0, 52, 86
2, 29670, Note_on_c, 0, 40, 86
2, 29700, Note_on_c, 0, 40, 0
2, 29700, Note_on_c, 0, 67, 0
2, 29700, Note_on_c, 0, 82, 0
2, 29700, Note_on_c, 0, 79, 0
2, 29700, Note_on_c, 0, 52, 0
2, 29700, Note_on_c, 0, 70, 0
2, 29700, Note_on_c, 0, 53, 86
2, 29700, Note_on_c, 0, 41, 86
2, 29730, Note_on_c, 0, 41, 0
2, 29730, Note_on_c, 0, 53, 0
2, 29730, Note_on_c, 0, 55, 86
2, 29730, Note_on_c, 0, 43, 86
2, 29760, Note_on_c, 0, 43, 0
2, 29760, Note_on_c, 0, 55, 0
2, 29760, Note_on_c, 0, 56, 86
2, 29760, Note_on_c, 0, 44, 86
2, 29760, Note_on_c, 0, 77, 73
2, 29760, Note_on_c, 0, 72, 73
2, 29760, Note_on_c, 0, 65, 73
2, 29790, Note_on_c, 0, 44, 0
2, 29790, Note_on_c, 0, 56, 0
2, 29790, Note_on_c, 0, 53, 86
2, 29790, Note_on_c, 0, 41, 86
2, 29820, Note_on_c, 0, 41, 0
2, 29820, Note_on_c, 0, 72, 0
2, 29820, Note_on_c, 0, 65, 0
2, 29820, Note_on_c, 0, 77, 0
2, 29820, Note_on_c, 0, 53, 0
2, 29820, Note_on_c, 0, 55, 86
2, 29820, Note_on_c, 0, 43, 86
2, 29850, Note_on_c, 0, 43, 0
2, 29850, Note_on_c, 0, 55, 0
2, 29850, Note_on_c, 0, 56, 86
2, 29850, Note_on_c, 0, 44, 86
2, 29880, Note_on_c, 0, 44, 0
2, 29880, Note_on_c, 0, 56, 0
2, 29880, Note_on_c, 0, 57, 86
2, 29880, Note_on_c, 0, 45, 86
2, 29880, Note_on_c, 0, 89, 73
2, 29880, Note_on_c, 0, 81, 73
2, 29880, Note_on_c, 0, 77, 73
2, 29880, Note_on_c, 0, 60, 73
2, 29880, Note_on_c, 0, 53, 73
2, 29910, Note_on_c, 0, 45, 0
2, 29910, Note_on_c, 0, 57, 0
2, 29910, Note_on_c, 0, 53, 86
2, 29910, Note_on_c, 0, 41, 86
2, 29940, Note_on_c, 0, 41, 0
2, 29940, Note_on_c, 0, 60, 0
2, 29940, Note_on_c, 0, 53, 0
2, 29940, Note_on_c, 0, 77, 0
2, 29940, Note_on_c, 0, 81, 0
2, 29940, Note_on_c, 0, 53, 0
2, 29940, Note_on_c, 0, 55, 86
2, 29940, Note_on_c, 0, 43, 86
2, 29970, Note_on_c, 0, 43, 0
2, 29970, Note_on_c, 0, 55, 0
2, 29970, Note_on_c, 0, 57, 86
2, 29970, Note_on_c, 0, 45, 86
2, 30000, Note_on_c, 0, 45, 0
2, 30000, Note_on_c, 0, 57, 0
2, 30000, Note_on_c, 0, 89, 0
2, 30000, Note_on_c, 0, 58, 89
2, 30000, Note_on_c, 0, 46, 89
2, 30000, Note_on_c, 0, 88, 73
2, 30000, Note_on_c, 0, 79, 73
2, 30000, Note_on_c, 0, 76, 73
2, 30000, Note_on_c, 0, 61, 73
2, 30000, Note_on_c, 0, 58, 73
2, 30030, Note_on_c, 0, 46, 0
2, 30030, Note_on_c, 0, 58, 0
2, 30030, Note_on_c, 0, 55, 89
2, 30030, Note_on_c, 0, 43, 89
2, 30060, Note_on_c, 0, 43, 0
2, 30060, Note_on_c, 0, 61, 0
2, 30060, Note_on_c, 0, 58, 0
2, 30060, Note_on_c, 0, 76, 0
2, 30060, Note_on_c, 0, 79, 0
2, 30060, Note_on_c, 0, 55, 0
2, 30060, Note_on_c, 0, 57, 89
2, 30060, Note_on_c, 0, 45, 89
2, 30090, Note_on_c, 0, 45, 0
2, 30090, Note_on_c, 0, 57, 0
2, 30090, Note_on_c, 0, 58, 89
2, 30090, Note_on_c, 0, 46, 89
2, 30120, Note_on_c, 0, 46, 0
2, 30120, Note_on_c, 0, 58, 0
2, 30120, Note_on_c, 0, 88, 0
2, 30120, Note_on_c, 0, 60, 89
2, 30120, Note_on_c, 0, 48, 89
2, 30120, Note_on_c, 0, 87, 73
2, 30120, Note_on_c, 0, 78, 73
2, 30120, Note_on_c, 0, 75, 73
2, 30120, Note_on_c, 0, 60, 73
2, 30120, Note_on_c, 0, 57, 73
2, 30150, Note_on_c, 0, 48, 0
2, 30150, Note_on_c, 0, 60, 0
2, 30150, Note_on_c, 0, 57, 89
2, 30150, Note_on_c, 0, 45, 89
2, 30180, Note_on_c, 0, 45, 0
2, 30180, Note_on_c, 0, 60, 0
2, 30180, Note_on_c, 0, 57, 0
2, 30180, Note_on_c, 0, 75, 0
2, 30180, Note_on_c, 0, 78, 0
2, 30180, Note_on_c, 0, 57, 0
2, 30180, Note_on_c, 0, 58, 89
2, 30180, Note_on_c, 0, 46, 89
2, 30210, Note_on_c, 0, 46, 0
2, 30210, Note_on_c, 0, 58, 0
2, 30210, Note_on_c, 0, 60, 89
2, 30210, Note_on_c, 0, 48, 89
2, 30240, Note_on_c, 0, 48, 0
2, 30240, Note_on_c, 0, 60, 0
2, 30240, Note_on_c, 0, 87, 0
2, 30240, Note_on_c, 0, 62, 91
2, 30240, Note_on_c, 0, 50, 91
2, 30240, Note_on_c, 0, 86, 73
2, 30240, Note_on_c, 0, 77, 73
2, 30240, Note_on_c, 0, 74, 73
2, 30240, Note_on_c, 0, 58, 73
2, 30270, Note_on_c, 0, 50, 0
2, 30270, Note_on_c, 0, 62, 0
2, 30270, Note_on_c, 0, 58, 91
2, 30270, Note_on_c, 0, 46, 91
2, 30300, Note_on_c, 0, 46, 0
2, 30300, Note_on_c, 0, 58, 0
2, 30300, Note_on_c, 0, 77, 0
2, 30300, Note_on_c, 0, 74, 0
2, 30300, Note_on_c, 0, 58, 0
2, 30300, Note_on_c, 0, 60, 91
2, 30300, Note_on_c, 0, 48, 91
2, 30330, Note_on_c, 0, 48, 0
2, 30330, Note_on_c, 0, 60, 0
2, 30330, Note_on_c, 0, 62, 91
2, 30330, Note_on_c, 0, 50, 91
2, 30360, Note_on_c, 0, 50, 0
2, 30360, Note_on_c, 0, 62, 0
2, 30360, Note_on_c, 0, 86, 0
2, 30360, Note_on_c, 0, 63, 91
2, 30360, Note_on_c, 0, 51, 91
2, 30360, Note_on_c, 0, 84, 73
2, 30360, Note_on_c, 0, 81, 73
2, 30360, Note_on_c, 0, 72, 73
2, 30360, Note_on_c, 0, 48, 73
2, 30360, Note_on_c, 0, 36, 73
2, 30390, Note_on_c, 0, 51, 0
2, 30390, Note_on_c, 0, 63, 0
2, 30390, Note_on_c, 0, 60, 91
2, 30390, Note_on_c, 0, 48, 91
2, 30420, Note_on_c, 0, 48, 0
2, 30420, Note_on_c, 0, 48, 0
2, 30420, Note_on_c, 0, 36, 0
2, 30420, Note_on_c, 0, 72, 0
2, 30420, Note_on_c, 0, 81, 0
2, 30420, Note_on_c, 0, 60, 0
2, 30420, Note_on_c, 0, 62, 91
2, 30420, Note_on_c, 0, 50, 91
2, 30450, Note_on_c, 0, 50, 0
2, 30450, Note_on_c, 0, 62, 0
2, 30450, Note_on_c, 0, 63, 91
2, 30450, Note_on_c, 0, 51, 91
2, 30480, Note_on_c, 0, 51, 0
2, 30480, Note_on_c, 0, 63, 0
2, 30480, Note_on_c, 0, 84, 0
2, 30480, Note_on_c, 0, 64, 91
2, 30480, Note_on_c, 0, 52, 91
2, 30480, Note_on_c, 0, 82, 73
2, 30480, Note_on_c, 0, 79, 73
2, 30480, Note_on_c, 0, 70, 73
2, 30480, Note_on_c, 0, 49, 73
2, 30480, Note_on_c, 0, 37, 73
2, 30510, Note_on_c, 0, 52, 0
2, 30510, Note_on_c, 0, 64, 0
2, 30510, Note_on_c, 0, 61, 91
2, 30510, Note_on_c, 0, 49, 91
2, 30540, Note_on_c, 0, 49, 0
2, 30540, Note_on_c, 0, 49, 0
2, 30540, Note_on_c, 0, 37, 0
2, 30540, Note_on_c, 0, 70, 0
2, 30540, Note_on_c, 0, 79, 0
2, 30540, Note_on_c, 0, 61, 0
2, 30540, Note_on_c, 0, 62, 91
2, 30540, Note_on_c, 0, 50, 91
2, 30570, Note_on_c, 0, 50, 0
2, 30570, Note_on_c, 0, 62, 0
2, 30570, Note_on_c, 0, 64, 91
2, 30570, Note_on_c, 0, 52, 91
2, 30600, Note_on_c, 0, 52, 0
2, 30600, Note_on_c, 0, 64, 0
2, 30600, Note_on_c, 0, 82, 0
2, 30600, Note_on_c, 0, 65, 91
2, 30600, Note_on_c, 0, 53, 91
2, 30600, Note_on_c, 0, 80, 73
2, 30600, Note_on_c, 0, 77, 73
2, 30600, Note_on_c, 0, 71, 73
2, 30600, Note_on_c, 0, 50, 73
2, 30600, Note_on_c, 0, 38, 73
2, 30630, Note_on_c, 0, 53, 0
2, 30630, Note_on_c, 0, 65, 0
2, 30630, Note_on_c, 0, 62, 91
2, 30630, Note_on_c, 0, 50, 91
2, 30660, Note_on_c, 0, 50, 0
2, 30660, Note_on_c, 0, 50, 0
2, 30660, Note_on_c, 0, 38, 0
2, 30660, Note_on_c, 0, 71, 0
2, 30660, Note_on_c, 0, 77, 0
2, 30660, Note_on_c, 0, 62, 0
2, 30660, Note_on_c, 0, 63, 91
2, 30660, Note_on_c, 0, 51, 91
2, 30690, Note_on_c, 0, 51, 0
2, 30690, Note_on_c, 0, 63, 0
2, 30690, Note_on_c, 0, 65, 91
2, 30690, Note_on_c, 0, 53, 91
2, 30720, Note_on_c, 0, 53, 0
2, 30720, Note_on_c, 0, 65, 0
2, 30720, Note_on_c, 0, 80, 0
2, 30720, Note_on_c, 0, 67, 94
2, 30720, Note_on_c, 0, 55, 94
2, 30720, Note_on_c, 0, 79, 73
2, 30720, Note_on_c, 0, 75, 73
2, 30720, Note_on_c, 0, 72, 73
2, 30720, Note_on_c, 0, 51, 73
2, 30720, Note_on_c, 0, 39, 73
2, 30750, Note_on_c, 0, 55, 0
2, 30750, Note_on_c, 0, 67, 0
2, 30750, Note_on_c, 0, 62, 94
2, 30750, Note_on_c, 0, 50, 94
2, 30780, Note_on_c, 0, 50, 0
2, 30780, Note_on_c, 0, 79, 0
2, 30780, Note_on_c, 0, 39, 0
2, 30780, Note_on_c, 0, 72, 0
2, 30780, Note_on_c, 0, 75, 0
2, 30780, Note_on_c, 0, 62, 0
2, 30780, Note_on_c, 0, 51, 0
2, 30780, Note_on_c, 0, 63, 94
2, 30780, Note_on_c, 0, 51, 94
2, 30810, Note_on_c, 0, 51, 0
2, 30810, Note_on_c, 0, 63, 0
2, 30810, Note_on_c, 0, 67, 94
2, 30810, Note_on_c, 0, 55, 94
2, 30840, Note_on_c, 0, 55, 0
2, 30840, Note_on_c, 0, 67, 0
2, 30840, Note_on_c, 0, 72, 94
2, 30840, Note_on_c, 0, 60, 94
2, 30840, Note_on_c, 0, 75, 73
2, 30840, Note_on_c, 0, 72, 73
2, 30840, Note_on_c, 0, 67, 73
2, 30840, Note_on_c, 0, 63, 73
2, 30840, Note_on_c, 0, 51, 73
2, 30870, Note_on_c, 0, 60, 0
2, 30870, Note_on_c, 0, 72, 0
2, 30870, Note_on_c, 0, 66, 94
2, 30870, Note_on_c, 0, 54, 94
2, 30900, Note_on_c, 0, 54, 0
2, 30900, Note_on_c, 0, 75, 0
2, 30900, Note_on_c, 0, 51, 0
2, 30900, Note_on_c, 0, 67, 0
2, 30900, Note_on_c, 0, 72, 0
2, 30900, Note_on_c, 0, 66, 0
2, 30900, Note_on_c, 0, 63, 0
2, 30900, Note_on_c, 0, 67, 94
2, 30900, Note_on_c, 0, 55, 94
2, 30930, Note_on_c, 0, 55, 0
2, 30930, Note_on_c, 0, 67, 0
2, 30930, Note_on_c, 0, 72, 94
2, 30930, Note_on_c, 0, 60, 94
2, 30960, Note_on_c, 0, 60, 0
2, 30960, Note_on_c, 0, 72, 0
2, 30960, Note_on_c, 0, 75, 94
2, 30960, Note_on_c, 0, 63, 94
2, 30960, Note_on_c, 0, 72, 73
2, 30960, Note_on_c, 0, 67, 73
2, 30960, Note_on_c, 0, 63, 73
2, 30960, Note_on_c, 0, 51, 73
2, 30990, Note_on_c, 0, 63, 0
2, 30990, Note_on_c, 0, 75, 0
2, 30990, Note_on_c, 0, 71, 94
2, 30990, Note_on_c, 0, 59, 94
2, 31020, Note_on_c, 0, 59, 0
2, 31020, Note_on_c, 0, 51, 0
2, 31020, Note_on_c, 0, 72, 0
2, 31020, Note_on_c, 0, 67, 0
2, 31020, Note_on_c, 0, 71, 0
2, 31020, Note_on_c, 0, 63, 0
2, 31020, Note_on_c, 0, 72, 94
2, 31020, Note_on_c, 0, 60, 94
2, 31050, Note_on_c, 0, 60, 0
2, 31050, Note_on_c, 0, 72, 0
2, 31050, Note_on_c, 0, 75, 94
2, 31050, Note_on_c, 0, 63, 94
2, 31080, Note_on_c, 0, 63, 0
2, 31080, Note_on_c, 0, 75, 0
2, 31080, Note_on_c, 0, 79, 94
2, 31080, Note_on_c, 0, 67, 94
2, 31080, Note_on_c, 0, 67, 73
2, 31080, Note_on_c, 0, 63, 73
2, 31080, Note_on_c, 0, 60, 73
2, 31080, Note_on_c, 0, 48, 73
2, 31110, Note_on_c, 0, 67, 0
2, 31110, Note_on_c, 0, 79, 0
2, 31110, Note_on_c, 0, 74, 94
2, 31110, Note_on_c, 0, 62, 94
2, 31140, Note_on_c, 0, 62, 0
2, 31140, Note_on_c, 0, 48, 0
2, 31140, Note_on_c, 0, 67, 0
2, 31140, Note_on_c, 0, 63, 0
2, 31140, Note_on_c, 0, 74, 0
2, 31140, Note_on_c, 0, 60, 0
2, 31140, Note_on_c, 0, 75, 94
2, 31140, Note_on_c, 0, 63, 94
2, 31170, Note_on_c, 0, 63, 0
2, 31170, Note_on_c, 0, 75, 0
2, 31170, Note_on_c, 0, 79, 94
2, 31170, Note_on_c, 0, 67, 94
2, 31200, Note_on_c, 0, 67, 0
2, 31200, Note_on_c, 0, 79, 0
2, 31200, Note_on_c, 0, 84, 94
2, 31200, Note_on_c, 0, 72, 94
2, 31200, Note_on_c, 0, 63, 73
2, 31200, Note_on_c, 0, 60, 73
2, 31200, Note_on_c, 0, 55, 73
2, 31200, Note_on_c, 0, 43, 73
2, 31230, Note_on_c, 0, 84, 0
2, 31230, Note_on_c, 0, 78, 94
2, 31260, Note_on_c, 0, 78, 0
2, 31260, Note_on_c, 0, 43, 0
2, 31260, Note_on_c, 0, 60, 0
2, 31260, Note_on_c, 0, 72, 0
2, 31260, Note_on_c, 0, 63, 0
2, 31260, Note_on_c, 0, 55, 0
2, 31260, Note_on_c, 0, 79, 94
2, 31290, Note_on_c, 0, 79, 0
2, 31290, Note_on_c, 0, 84, 94
2, 31320, Note_on_c, 0, 84, 0
2, 31320, Note_on_c, 0, 87, 94
2, 31320, Note_on_c, 0, 72, 94
2, 31320, Note_on_c, 0, 67, 73
2, 31320, Note_on_c, 0, 63, 73
2, 31320, Note_on_c, 0, 67, 73
2, 31320, Note_on_c, 0, 63, 76
2, 31320, Note_on_c, 0, 60, 76
2, 31320, Note_on_c, 0, 51, 76
2, 31320, Note_on_c, 0, 39, 76
2, 31350, Note_on_c, 0, 87, 0
2, 31350, Note_on_c, 0, 83, 94
2, 31380, Note_on_c, 0, 83, 0
2, 31380, Note_on_c, 0, 51, 0
2, 31380, Note_on_c, 0, 72, 0
2, 31380, Note_on_c, 0, 63, 0
2, 31380, Note_on_c, 0, 67, 0
2, 31380, Note_on_c, 0, 63, 0
2, 31380, Note_on_c, 0, 39, 0
2, 31380, Note_on_c, 0, 60, 0
2, 31380, Note_on_c, 0, 67, 0
2, 31380, Note_on_c, 0, 84, 94
2, 31410, Note_on_c, 0, 84, 0
2, 31410, Note_on_c, 0, 87, 94
2, 31440, Note_on_c, 0, 87, 0
2, 31440, Note_on_c, 0, 91, 96
2, 31440, Note_on_c, 0, 72, 96
2, 31440, Note_on_c, 0, 67, 76
2, 31440, Note_on_c, 0, 63, 76
2, 31440, Note_on_c, 0, 60, 76
2, 31440, Note_on_c, 0, 72, 76
2, 31440, Note_on_c, 0, 67, 76
2, 31440, Note_on_c, 0, 48, 76
2, 31440, Note_on_c, 0, 36, 76
2, 31470, Note_on_c, 0, 91, 0
2, 31470, Note_on_c, 0, 86, 96
2, 31500, Note_on_c, 0, 86, 0
2, 31500, Note_on_c, 0, 48, 0
2, 31500, Note_on_c, 0, 72, 0
2, 31500, Note_on_c, 0, 72, 0
2, 31500, Note_on_c, 0, 67, 0
2, 31500, Note_on_c, 0, 63, 0
2, 31500, Note_on_c, 0, 36, 0
2, 31500, Note_on_c, 0, 67, 0
2, 31500, Note_on_c, 0, 60, 0
2, 31500, Note_on_c, 0, 87, 96
2, 31530, Note_on_c, 0, 87, 0
2, 31530, Note_on_c, 0, 91, 96
2, 31560, Note_on_c, 0, 91, 0
2, 31560, Note_on_c, 0, 96, 99
2, 31560, Note_on_c, 0, 67, 99
2, 31560, Note_on_c, 0, 63, 79
2, 31560, Note_on_c, 0, 60, 79
2, 31560, Note_on_c, 0, 55, 79
2, 31560, Note_on_c, 0, 75, 79
2, 31560, Note_on_c, 0, 72, 79
2, 31560, Note_on_c, 0, 43, 79
2, 31560, Note_on_c, 0, 31, 76
2, 31590, Note_on_c, 0, 96, 0
2, 31590, Note_on_c, 0, 90, 99
2, 31620, Note_on_c, 0, 90, 0
2, 31620, Note_on_c, 0, 43, 0
2, 31620, Note_on_c, 0, 67, 0
2, 31620, Note_on_c, 0, 75, 0
2, 31620, Note_on_c, 0, 63, 0
2, 31620, Note_on_c, 0, 60, 0
2, 31620, Note_on_c, 0, 31, 0
2, 31620, Note_on_c, 0, 72, 0
2, 31620, Note_on_c, 0, 55, 0
2, 31620, Note_on_c, 0, 91, 99
2, 31650, Note_on_c, 0, 91, 0
2, 31650, Note_on_c, 0, 96, 99
2, 31680, Note_on_c, 0, 96, 0
2, 31680, Note_on_c, 0, 99, 99
2, 31680, Note_on_c, 0, 63, 99
2, 31680, Note_on_c, 0, 60, 79
2, 31680, Note_on_c, 0, 55, 79
2, 31680, Note_on_c, 0, 79, 91
2, 31680, Note_on_c, 0, 72, 91
2, 31680, Note_on_c, 0, 67, 91
2, 31680, Note_on_c, 0, 39, 91
2, 31680, Note_on_c, 0, 27, 91
2, 31740, Note_on_c, 0, 27, 0
2, 31740, Note_on_c, 0, 55, 0
2, 31740, Note_on_c, 0, 99, 0
2, 31740, Note_on_c, 0, 79, 0
2, 31740, Note_on_c, 0, 63, 0
2, 31740, Note_on_c, 0, 60, 0
2, 31740, Note_on_c, 0, 67, 0
2, 31740, Note_on_c, 0, 72, 0
2, 31740, Note_on_c, 0, 39, 0
2, 31740, Note_on_c, 0, 60, 90
2, 31740, Note_on_c, 0, 58, 90
2, 31740, Note_on_c, 0, 55, 90
2, 31740, Note_on_c, 0, 51, 90
2, 31770, Note_on_c, 0, 98, 90
2, 31770, Note_on_c, 0, 86, 90
2, 31800, Note_on_c, 0, 86, 0
2, 31800, Note_on_c, 0, 58, 0
2, 31800, Note_on_c, 0, 55, 0
2, 31800, Note_on_c, 0, 60, 0
2, 31800, Note_on_c, 0, 98, 0
2, 31800, Note_on_c, 0, 51, 0
2, 31800, Note_on_c, 0, 60, 90
2, 31800, Note_on_c, 0, 58, 90
2, 31800, Note_on_c, 0, 55, 90
2, 31800, Note_on_c, 0, 51, 90
2, 31830, Note_on_c, 0, 96, 90
2, 31830, Note_on_c, 0, 84, 90
2, 31860, Note_on_c, 0, 84, 0
2, 31860, Note_on_c, 0, 58, 0
2, 31860, Note_on_c, 0, 55, 0
2, 31860, Note_on_c, 0, 60, 0
2, 31860, Note_on_c, 0, 96, 0
2, 31860, Note_on_c, 0, 51, 0
2, 31860, Note_on_c, 0, 60, 90
2, 31860, Note_on_c, 0, 58, 90
2, 31860, Note_on_c, 0, 55, 90
2, 31860, Note_on_c, 0, 51, 90
2, 31890, Note_on_c, 0, 94, 90
2, 31890, Note_on_c, 0, 82, 90
2, 31920, Note_on_c, 0, 82, 0
2, 31920, Note_on_c, 0, 58, 0
2, 31920, Note_on_c, 0, 55, 0
2, 31920, Note_on_c, 0, 60, 0
2, 31920, Note_on_c, 0, 94, 0
2, 31920, Note_on_c, 0, 51, 0
2, 31920, Note_on_c, 0, 60, 90
2, 31920, Note_on_c, 0, 58, 90
2, 31920, Note_on_c, 0, 55, 90
2, 31920, Note_on_c, 0, 51, 90
2, 31950, Note_on_c, 0, 93, 90
2, 31950, Note_on_c, 0, 81, 90
2, 31980, Note_on_c, 0, 81, 0
2, 31980, Note_on_c, 0, 58, 0
2, 31980, Note_on_c, 0, 55, 0
2, 31980, Note_on_c, 0, 60, 0
2, 31980, Note_on_c, 0, 93, 0
2, 31980, Note_on_c, 0, 51, 0
2, 31980, Note_on_c, 0, 60, 90
2, 31980, Note_on_c, 0, 58, 90
2, 31980, Note_on_c, 0, 55, 90
2, 31980, Note_on_c, 0, 51, 90
2, 32010, Note_on_c, 0, 91, 90
2, 32010, Note_on_c, 0, 79, 90
2, 32040, Note_on_c, 0, 79, 0
2, 32040, Note_on_c, 0, 58, 0
2, 32040, Note_on_c, 0, 55, 0
2, 32040, Note_on_c, 0, 60, 0
2, 32040, Note_on_c, 0, 91, 0
2, 32040, Note_on_c, 0, 51, 0
2, 32040, Note_on_c, 0, 60, 90
2, 32040, Note_on_c, 0, 58, 90
2, 32040, Note_on_c, 0, 55, 90
2, 32040, Note_on_c, 0, 51, 90
2, 32070, Note_on_c, 0, 90, 90
2, 32070, Note_on_c, 0, 78, 90
2, 32100, Note_on_c, 0, 78, 0
2, 32100, Note_on_c, 0, 58, 0
2, 32100, Note_on_c, 0, 55, 0
2, 32100, Note_on_c, 0, 60, 0
2, 32100, Note_on_c, 0, 90, 0
2, 32100, Note_on_c, 0, 51, 0
2, 32100, Note_on_c, 0, 60, 90
2, 32100, Note_on_c, 0, 58, 90
2, 32100, Note_on_c, 0, 55, 90
2, 32100, Note_on_c, 0, 51, 90
2, 32130, Note_on_c, 0, 91, 90
2, 32130, Note_on_c, 0, 79, 90
2, 32160, Note_on_c, 0, 79, 0
2, 32160, Note_on_c, 0, 58, 0
2, 32160, Note_on_c, 0, 55, 0
2, 32160, Note_on_c, 0, 60, 0
2, 32160, Note_on_c, 0, 91, 0
2, 32160, Note_on_c, 0, 51, 0
2, 32160, Note_on_c, 0, 60, 90
2, 32160, Note_on_c, 0, 58, 90
2, 32160, Note_on_c, 0, 55, 90
2, 32160, Note_on_c, 0, 51, 90
2, 32190, Note_on_c, 0, 93, 103
2, 32190, Note_on_c, 0, 81, 103
2, 32220, Note_on_c, 0, 81, 0
2, 32220, Note_on_c, 0, 58, 0
2, 32220, Note_on_c, 0, 55, 0
2, 32220, Note_on_c, 0, 60, 0
2, 32220, Note_on_c, 0, 93, 0
2, 32220, Note_on_c, 0, 51, 0
2, 32220, Note_on_c, 0, 60, 90
2, 32220, Note_on_c, 0, 58, 90
2, 32220, Note_on_c, 0, 55, 90
2, 32220, Note_on_c, 0, 51, 90
2, 32250, Note_on_c, 0, 91, 90
2, 32250, Note_on_c, 0, 79, 90
2, 32280, Note_on_c, 0, 79, 0
2, 32280, Note_on_c, 0, 58, 0
2, 32280, Note_on_c, 0, 55, 0
2, 32280, Note_on_c, 0, 60, 0
2, 32280, Note_on_c, 0, 91, 0
2, 32280, Note_on_c, 0, 51, 0
2, 32280, Note_on_c, 0, 60, 90
2, 32280, Note_on_c, 0, 58, 90
2, 32280, Note_on_c, 0, 55, 90
2, 32280, Note_on_c, 0, 51, 90
2, 32310, Note_on_c, 0, 87, 90
2, 32310, Note_on_c, 0, 79, 90
2, 32340, Note_on_c, 0, 79, 0
2, 32340, Note_on_c, 0, 58, 0
2, 32340, Note_on_c, 0, 55, 0
2, 32340, Note_on_c, 0, 60, 0
2, 32340, Note_on_c, 0, 87, 0
2, 32340, Note_on_c, 0, 51, 0
2, 32340, Note_on_c, 0, 60, 90
2, 32340, Note_on_c, 0, 58, 90
2, 32340, Note_on_c, 0, 55, 90
2, 32340, Note_on_c, 0, 51, 90
2, 32370, Note_on_c, 0, 84, 90
2, 32370, Note_on_c, 0, 79, 90
2, 32400, Note_on_c, 0, 79, 0
2, 32400, Note_on_c, 0, 58, 0
2, 32400, Note_on_c, 0, 55, 0
2, 32400, Note_on_c, 0, 60, 0
2, 32400, Note_on_c, 0, 84, 0
2, 32400, Note_on_c, 0, 51, 0
2, 32400, Note_on_c, 0, 60, 90
2, 32400, Note_on_c, 0, 58, 90
2, 32400, Note_on_c, 0, 55, 90
2, 32400, Note_on_c, 0, 51, 90
2, 32430, Note_on_c, 0, 93, 103
2, 32430, Note_on_c, 0, 81, 103
2, 32460, Note_on_c, 0, 81, 0
2, 32460, Note_on_c, 0, 58, 0
2, 32460, Note_on_c, 0, 55, 0
2, 32460, Note_on_c, 0, 60, 0
2, 32460, Note_on_c, 0, 93, 0
2, 32460, Note_on_c, 0, 51, 0
2, 32460, Note_on_c, 0, 60, 90
2, 32460, Note_on_c, 0, 58, 90
2, 32460, Note_on_c, 0, 55, 90
2, 32460, Note_on_c, 0, 51, 90
2, 32490, Note_on_c, 0, 91, 90
2, 32490, Note_on_c, 0, 79, 90
2, 32520, Note_on_c, 0, 79, 0
2, 32520, Note_on_c, 0, 58, 0
2, 32520, Note_on_c, 0, 55, 0
2, 32520, Note_on_c, 0, 60, 0
2, 32520, Note_on_c, 0, 91, 0
2, 32520, Note_on_c, 0, 51, 0
2, 32520, Note_on_c, 0, 60, 90
2, 32520, Note_on_c, 0, 58, 90
2, 32520, Note_on_c, 0, 55, 90
2, 32520, Note_on_c, 0, 51, 90
2, 32550, Note_on_c, 0, 87, 90
2, 32550, Note_on_c, 0, 79, 90
2, 32580, Note_on_c, 0, 79, 0
2, 32580, Note_on_c, 0, 58, 0
2, 32580, Note_on_c, 0, 55, 0
2, 32580, Note_on_c, 0, 60, 0
2, 32580, Note_on_c, 0, 87, 0
2, 32580, Note_on_c, 0, 51, 0
2, 32580, Note_on_c, 0, 60, 90
2, 32580, Note_on_c, 0, 58, 90
2, 32580, Note_on_c, 0, 55, 90
2, 32580, Note_on_c, 0, 51, 90
2, 32610, Note_on_c, 0, 84, 90
2, 32610, Note_on_c, 0, 79, 90
2, 32640, Note_on_c, 0, 79, 0
2, 32640, Note_on_c, 0, 58, 0
2, 32640, Note_on_c, 0, 55, 0
2, 32640, Note_on_c, 0, 60, 0
2, 32640, Note_on_c, 0, 84, 0
2, 32640, Note_on_c, 0, 51, 0
2, 32640, Note_on_c, 0, 61, 90
2, 32640, Note_on_c, 0, 58, 90
2, 32640, Note_on_c, 0, 55, 90
2, 32640, Note_on_c, 0, 52, 90
2, 32670, Note_on_c, 0, 85, 90
2, 32670, Note_on_c, 0, 73, 90
2, 32700, Note_on_c, 0, 73, 0
2, 32700, Note_on_c, 0, 58, 0
2, 32700, Note_on_c, 0, 55, 0
2, 32700, Note_on_c, 0, 61, 0
2, 32700, Note_on_c, 0, 85, 0
2, 32700, Note_on_c, 0, 52, 0
2, 32700, Note_on_c, 0, 61, 90
2, 32700, Note_on_c, 0, 58, 90
2, 32700, Note_on_c, 0, 55, 90
2, 32700, Note_on_c, 0, 52, 90
2, 32730, Note_on_c, 0, 84, 90
2, 32730, Note_on_c, 0, 72, 90
2, 32760, Note_on_c, 0, 72, 0
2, 32760, Note_on_c, 0, 58, 0
2, 32760, Note_on_c, 0, 55, 0
2, 32760, Note_on_c, 0, 61, 0
2, 32760, Note_on_c, 0, 84, 0
2, 32760, Note_on_c, 0, 52, 0
2, 32760, Note_on_c, 0, 61, 90
2, 32760, Note_on_c, 0, 58, 90
2, 32760, Note_on_c, 0, 55, 90
2, 32760, Note_on_c, 0, 52, 90
2, 32790, Note_on_c, 0, 82, 90
2, 32790, Note_on_c, 0, 70, 90
2, 32820, Note_on_c, 0, 70, 0
2, 32820, Note_on_c, 0, 58, 0
2, 32820, Note_on_c, 0, 55, 0
2, 32820, Note_on_c, 0, 61, 0
2, 32820, Note_on_c, 0, 82, 0
2, 32820, Note_on_c, 0, 52, 0
2, 32820, Note_on_c, 0, 61, 90
2, 32820, Note_on_c, 0, 58, 90
2, 32820, Note_on_c, 0, 55, 90
2, 32820, Note_on_c, 0, 52, 90
2, 32850, Note_on_c, 0, 81, 90
2, 32850, Note_on_c, 0, 69, 90
2, 32880, Note_on_c, 0, 69, 0
2, 32880, Note_on_c, 0, 58, 0
2, 32880, Note_on_c, 0, 55, 0
2, 32880, Note_on_c, 0, 61, 0
2, 32880, Note_on_c, 0, 81, 0
2, 32880, Note_on_c, 0, 52, 0
2, 32880, Note_on_c, 0, 61, 90
2, 32880, Note_on_c, 0, 58, 90
2, 32880, Note_on_c, 0, 55, 90
2, 32880, Note_on_c, 0, 52, 90
2, 32910, Note_on_c, 0, 79, 90
2, 32910, Note_on_c, 0, 67, 90
2, 32940, Note_on_c, 0, 67, 0
2, 32940, Note_on_c, 0, 58, 0
2, 32940, Note_on_c, 0, 55, 0
2, 32940, Note_on_c, 0, 61, 0
2, 32940, Note_on_c, 0, 79, 0
2, 32940, Note_on_c, 0, 52, 0
2, 32940, Note_on_c, 0, 61, 90
2, 32940, Note_on_c, 0, 58, 90
2, 32940, Note_on_c, 0, 55, 90
2, 32940, Note_on_c, 0, 52, 90
2, 32970, Note_on_c, 0, 81, 90
2, 32970, Note_on_c, 0, 69, 90
2, 33000, Note_on_c, 0, 69, 0
2, 33000, Note_on_c, 0, 58, 0
2, 33000, Note_on_c, 0, 55, 0
2, 33000, Note_on_c, 0, 61, 0
2, 33000, Note_on_c, 0, 81, 0
2, 33000, Note_on_c, 0, 52, 0
2, 33000, Note_on_c, 0, 61, 90
2, 33000, Note_on_c, 0, 58, 90
2, 33000, Note_on_c, 0, 55, 90
2, 33000, Note_on_c, 0, 52, 90
2, 33030, Note_on_c, 0, 82, 90
2, 33030, Note_on_c, 0, 70, 90
2, 33060, Note_on_c, 0, 70, 0
2, 33060, Note_on_c, 0, 58, 0
2, 33060, Note_on_c, 0, 55, 0
2, 33060, Note_on_c, 0, 61, 0
2, 33060, Note_on_c, 0, 82, 0
2, 33060, Note_on_c, 0, 52, 0
2, 33060, Note_on_c, 0, 61, 90
2, 33060, Note_on_c, 0, 58, 90
2, 33060, Note_on_c, 0, 55, 90
2, 33060, Note_on_c, 0, 52, 90
2, 33090, Note_on_c, 0, 84, 90
2, 33090, Note_on_c, 0, 72, 90
2, 33120, Note_on_c, 0, 72, 0
2, 33120, Note_on_c, 0, 58, 0
2, 33120, Note_on_c, 0, 55, 0
2, 33120, Note_on_c, 0, 61, 0
2, 33120, Note_on_c, 0, 84, 0
2, 33120, Note_on_c, 0, 52, 0
2, 33120, Note_on_c, 0, 61, 90
2, 33120, Note_on_c, 0, 58, 90
2, 33120, Note_on_c, 0, 55, 90
2, 33120, Note_on_c, 0, 52, 90
2, 33150, Note_on_c, 0, 85, 103
2, 33150, Note_on_c, 0, 73, 103
2, 33180, Note_on_c, 0, 73, 0
2, 33180, Note_on_c, 0, 58, 0
2, 33180, Note_on_c, 0, 55, 0
2, 33180, Note_on_c, 0, 61, 0
2, 33180, Note_on_c, 0, 85, 0
2, 33180, Note_on_c, 0, 52, 0
2, 33180, Note_on_c, 0, 61, 90
2, 33180, Note_on_c, 0, 58, 90
2, 33180, Note_on_c, 0, 55, 90
2, 33180, Note_on_c, 0, 52, 90
2, 33210, Note_on_c, 0, 82, 90
2, 33210, Note_on_c, 0, 73, 90
2, 33240, Note_on_c, 0, 73, 0
2, 33240, Note_on_c, 0, 58, 0
2, 33240, Note_on_c, 0, 55, 0
2, 33240, Note_on_c, 0, 61, 0
2, 33240, Note_on_c, 0, 82, 0
2, 33240, Note_on_c, 0, 52, 0
2, 33240, Note_on_c, 0, 61, 90
2, 33240, Note_on_c, 0, 58, 90
2, 33240, Note_on_c, 0, 55, 90
2, 33240, Note_on_c, 0, 52, 90
2, 33270, Note_on_c, 0, 79, 90
2, 33270, Note_on_c, 0, 73, 90
2, 33300, Note_on_c, 0, 73, 0
2, 33300, Note_on_c, 0, 58, 0
2, 33300, Note_on_c, 0, 55, 0
2, 33300, Note_on_c, 0, 61, 0
2, 33300, Note_on_c, 0, 79, 0
2, 33300, Note_on_c, 0, 52, 0
2, 33300, Note_on_c, 0, 61, 90
2, 33300, Note_on_c, 0, 58, 90
2, 33300, Note_on_c, 0, 55, 90
2, 33300, Note_on_c, 0, 52, 90
2, 33330, Note_on_c, 0, 76, 90
2, 33330, Note_on_c, 0, 73, 90
2, 33360, Note_on_c, 0, 73, 0
2, 33360, Note_on_c, 0, 58, 0
2, 33360, Note_on_c, 0, 55, 0
2, 33360, Note_on_c, 0, 61, 0
2, 33360, Note_on_c, 0, 76, 0
2, 33360, Note_on_c, 0, 52, 0
2, 33360, Note_on_c, 0, 61, 90
2, 33360, Note_on_c, 0, 58, 90
2, 33360, Note_on_c, 0, 55, 90
2, 33360, Note_on_c, 0, 52, 90
2, 33390, Note_on_c, 0, 85, 90
2, 33390, Note_on_c, 0, 73, 90
2, 33420, Note_on_c, 0, 73, 0
2, 33420, Note_on_c, 0, 58, 0
2, 33420, Note_on_c, 0, 55, 0
2, 33420, Note_on_c, 0, 61, 0
2, 33420, Note_on_c, 0, 85, 0
2, 33420, Note_on_c, 0, 52, 0
2, 33420, Note_on_c, 0, 61, 90
2, 33420, Note_on_c, 0, 58, 90
2, 33420, Note_on_c, 0, 55, 90
2, 33420, Note_on_c, 0, 52, 90
2, 33450, Note_on_c, 0, 82, 90
2, 33450, Note_on_c, 0, 73, 90
2, 33480, Note_on_c, 0, 73, 0
2, 33480, Note_on_c, 0, 58, 0
2, 33480, Note_on_c, 0, 55, 0
2, 33480, Note_on_c, 0, 61, 0
2, 33480, Note_on_c, 0, 82, 0
2, 33480, Note_on_c, 0, 52, 0
2, 33480, Note_on_c, 0, 61, 90
2, 33480, Note_on_c, 0, 58, 90
2, 33480, Note_on_c, 0, 55, 90
2, 33480, Note_on_c, 0, 52, 90
2, 33510, Note_on_c, 0, 79, 90
2, 33510, Note_on_c, 0, 73, 90
2, 33540, Note_on_c, 0, 73, 0
2, 33540, Note_on_c, 0, 58, 0
2, 33540, Note_on_c, 0, 55, 0
2, 33540, Note_on_c, 0, 61, 0
2, 33540, Note_on_c, 0, 79, 0
2, 33540, Note_on_c, 0, 52, 0
2, 33540, Note_on_c, 0, 61, 90
2, 33540, Note_on_c, 0, 58, 90
2, 33540, Note_on_c, 0, 55, 90
2, 33540, Note_on_c, 0, 52, 90
2, 33570, Note_on_c, 0, 76, 90
2, 33570, Note_on_c, 0, 73, 90
2, 33600, Note_on_c, 0, 73, 0
2, 33600, Note_on_c, 0, 58, 0
2, 33600, Note_on_c, 0, 55, 0
2, 33600, Note_on_c, 0, 61, 0
2, 33600, Note_on_c, 0, 76, 0
2, 33600, Note_on_c, 0, 52, 0
2, 33600, Note_on_c, 0, 65, 90
2, 33600, Note_on_c, 0, 63, 90
2, 33600, Note_on_c, 0, 60, 90
2, 33600, Note_on_c, 0, 57, 90
2, 33600, Note_on_c, 0, 53, 90
2, 33630, Note_on_c, 0, 91, 90
2, 33630, Note_on_c, 0, 79, 90
2, 33660, Note_on_c, 0, 79, 0
2, 33660, Note_on_c, 0, 53, 0
2, 33660, Note_on_c, 0, 63, 0
2, 33660, Note_on_c, 0, 60, 0
2, 33660, Note_on_c, 0, 65, 0
2, 33660, Note_on_c, 0, 91, 0
2, 33660, Note_on_c, 0, 57, 0
2, 33660, Note_on_c, 0, 65, 90
2, 33660, Note_on_c, 0, 63, 90
2, 33660, Note_on_c, 0, 60, 90
2, 33660, Note_on_c, 0, 57, 90
2, 33660, Note_on_c, 0, 53, 90
2, 33690, Note_on_c, 0, 89, 90
2, 33690, Note_on_c, 0, 77, 90
2, 33720, Note_on_c, 0, 77, 0
2, 33720, Note_on_c, 0, 53, 0
2, 33720, Note_on_c, 0, 63, 0
2, 33720, Note_on_c, 0, 60, 0
2, 33720, Note_on_c, 0, 65, 0
2, 33720, Note_on_c, 0, 89, 0
2, 33720, Note_on_c, 0, 57, 0
2, 33720, Note_on_c, 0, 65, 90
2, 33720, Note_on_c, 0, 63, 90
2, 33720, Note_on_c, 0, 60, 90
2, 33720, Note_on_c, 0, 57, 90
2, 33720, Note_on_c, 0, 53, 90
2, 33750, Note_on_c, 0, 87, 90
2, 33750, Note_on_c, 0, 75, 90
2, 33780, Note_on_c, 0, 75, 0
2, 33780, Note_on_c, 0, 53, 0
2, 33780, Note_on_c, 0, 63, 0
2, 33780, Note_on_c, 0, 60, 0
2, 33780, Note_on_c, 0, 65, 0
2, 33780, Note_on_c, 0, 87, 0
2, 33780, Note_on_c, 0, 57, 0
2, 33780, Note_on_c, 0, 65, 90
2, 33780, Note_on_c, 0, 63, 90
2, 33780, Note_on_c, 0, 60, 90
2, 33780, Note_on_c, 0, 57, 90
2, 33780, Note_on_c, 0, 53, 90
2, 33810, Note_on_c, 0, 86, 90
2, 33810, Note_on_c, 0, 74, 90
2, 33840, Note_on_c, 0, 74, 0
2, 33840, Note_on_c, 0, 53, 0
2, 33840, Note_on_c, 0, 63, 0
2, 33840, Note_on_c, 0, 60, 0
2, 33840, Note_on_c, 0, 65, 0
2, 33840, Note_on_c, 0, 86, 0
2, 33840, Note_on_c, 0, 57, 0
2, 33840, Note_on_c, 0, 65, 90
2, 33840, Note_on_c, 0, 63, 90
2, 33840, Note_on_c, 0, 60, 90
2, 33840, Note_on_c, 0, 57, 90
2, 33840, Note_on_c, 0, 53, 90
2, 33870, Note_on_c, 0, 84, 90
2, 33870, Note_on_c, 0, 72, 90
2, 33900, Note_on_c, 0, 72, 0
2, 33900, Note_on_c, 0, 53, 0
2, 33900, Note_on_c, 0, 63, 0
2, 33900, Note_on_c, 0, 60, 0
2, 33900, Note_on_c, 0, 65, 0
2, 33900, Note_on_c, 0, 84, 0
2, 33900, Note_on_c, 0, 57, 0
2, 33900, Note_on_c, 0, 65, 90
2, 33900, Note_on_c, 0, 63, 90
2, 33900, Note_on_c, 0, 60, 90
2, 33900, Note_on_c, 0, 57, 90
2, 33900, Note_on_c, 0, 53, 90
2, 33930, Note_on_c, 0, 83, 90
2, 33930, Note_on_c, 0, 71, 90
2, 33960, Note_on_c, 0, 71, 0
2, 33960, Note_on_c, 0, 53, 0
2, 33960, Note_on_c, 0, 63, 0
2, 33960, Note_on_c, 0, 60, 0
2, 33960, Note_on_c, 0, 65, 0
2, 33960, Note_on_c, 0, 83, 0
2, 33960, Note_on_c, 0, 57, 0
2, 33960, Note_on_c, 0, 65, 90
2, 33960, Note_on_c, 0, 63, 90
2, 33960, Note_on_c, 0, 60, 90
2, 33960, Note_on_c, 0, 57, 90
2, 33960, Note_on_c, 0, 53, 90
2, 33990, Note_on_c, 0, 84, 90
2, 33990, Note_on_c, 0, 72, 90
2, 34020, Note_on_c, 0, 72, 0
2, 34020, Note_on_c, 0, 53, 0
2, 34020, Note_on_c, 0, 63, 0
2, 34020, Note_on_c, 0, 60, 0
2, 34020, Note_on_c, 0, 65, 0
2, 34020, Note_on_c, 0, 84, 0
2, 34020, Note_on_c, 0, 57, 0
2, 34020, Note_on_c, 0, 65, 90
2, 34020, Note_on_c, 0, 63, 90
2, 34020, Note_on_c, 0, 60, 90
2, 34020, Note_on_c, 0, 57, 90
2, 34020, Note_on_c, 0, 53, 90
2, 34050, Note_on_c, 0, 86, 90
2, 34050, Note_on_c, 0, 74, 90
2, 34080, Note_on_c, 0, 74, 0
2, 34080, Note_on_c, 0, 53, 0
2, 34080, Note_on_c, 0, 63, 0
2, 34080, Note_on_c, 0, 60, 0
2, 34080, Note_on_c, 0, 65, 0
2, 34080, Note_on_c, 0, 86, 0
2, 34080, Note_on_c, 0, 57, 0
2, 34080, Note_on_c, 0, 65, 90
2, 34080, Note_on_c, 0, 63, 90
2, 34080, Note_on_c, 0, 60, 90
2, 34080, Note_on_c, 0, 57, 90
2, 34080, Note_on_c, 0, 53, 90
2, 34110, Note_on_c, 0, 87, 90
2, 34110, Note_on_c, 0, 75, 90
2, 34140, Note_on_c, 0, 75, 0
2, 34140, Note_on_c, 0, 53, 0
2, 34140, Note_on_c, 0, 63, 0
2, 34140, Note_on_c, 0, 60, 0
2, 34140, Note_on_c, 0, 65, 0
2, 34140, Note_on_c, 0, 87, 0
2, 34140, Note_on_c, 0, 57, 0
2, 34140, Note_on_c, 0, 65, 90
2, 34140, Note_on_c, 0, 63, 90
2, 34140, Note_on_c, 0, 60, 90
2, 34140, Note_on_c, 0, 57, 90
2, 34140, Note_on_c, 0, 53, 90
2, 34170, Note_on_c, 0, 86, 90
2, 34170, Note_on_c, 0, 74, 90
2, 34200, Note_on_c, 0, 74, 0
2, 34200, Note_on_c, 0, 53, 0
2, 34200, Note_on_c, 0, 63, 0
2, 34200, Note_on_c, 0, 60, 0
2, 34200, Note_on_c, 0, 65, 0
2, 34200, Note_on_c, 0, 86, 0
2, 34200, Note_on_c, 0, 57, 0
2, 34200, Note_on_c, 0, 65, 90
2, 34200, Note_on_c, 0, 63, 90
2, 34200, Note_on_c, 0, 60, 90
2, 34200, Note_on_c, 0, 57, 90
2, 34200, Note_on_c, 0, 53, 90
2, 34230, Note_on_c, 0, 84, 90
2, 34230, Note_on_c, 0, 72, 90
2, 34260, Note_on_c, 0, 72, 0
2, 34260, Note_on_c, 0, 53, 0
2, 34260, Note_on_c, 0, 63, 0
2, 34260, Note_on_c, 0, 60, 0
2, 34260, Note_on_c, 0, 65, 0
2, 34260, Note_on_c, 0, 84, 0
2, 34260, Note_on_c, 0, 57, 0
2, 34260, Note_on_c, 0, 65, 90
2, 34260, Note_on_c, 0, 63, 90
2, 34260, Note_on_c, 0, 60, 90
2, 34260, Note_on_c, 0, 57, 90
2, 34260, Note_on_c, 0, 53, 90
2, 34290, Note_on_c, 0, 82, 90
2, 34290, Note_on_c, 0, 70, 90
2, 34320, Note_on_c, 0, 70, 0
2, 34320, Note_on_c, 0, 53, 0
2, 34320, Note_on_c, 0, 63, 0
2, 34320, Note_on_c, 0, 60, 0
2, 34320, Note_on_c, 0, 65, 0
2, 34320, Note_on_c, 0, 82, 0
2, 34320, Note_on_c, 0, 57, 0
2, 34320, Note_on_c, 0, 69, 90
2, 34320, Note_on_c, 0, 65, 90
2, 34320, Note_on_c, 0, 63, 90
2, 34320, Note_on_c, 0, 60, 90
2, 34320, Note_on_c, 0, 57, 90
2, 34320, Note_on_c, 0, 53, 90
2, 34350, Note_on_c, 0, 69, 0
2, 34350, Note_on_c, 0, 81, 90
2, 34380, Note_on_c, 0, 81, 0
2, 34380, Note_on_c, 0, 53, 0
2, 34380, Note_on_c, 0, 60, 0
2, 34380, Note_on_c, 0, 65, 0
2, 34380, Note_on_c, 0, 63, 0
2, 34380, Note_on_c, 0, 57, 0
2, 34380, Note_on_c, 0, 67, 90
2, 34380, Note_on_c, 0, 65, 90
2, 34380, Note_on_c, 0, 63, 90
2, 34380, Note_on_c, 0, 60, 90
2, 34380, Note_on_c, 0, 57, 90
2, 34380, Note_on_c, 0, 53, 90
2, 34410, Note_on_c, 0, 67, 0
2, 34410, Note_on_c, 0, 79, 90
2, 34440, Note_on_c, 0, 79, 0
2, 34440, Note_on_c, 0, 53, 0
2, 34440, Note_on_c, 0, 60, 0
2, 34440, Note_on_c, 0, 65, 0
2, 34440, Note_on_c, 0, 63, 0
2, 34440, Note_on_c, 0, 57, 0
2, 34440, Note_on_c, 0, 65, 90
2, 34440, Note_on_c, 0, 53, 90
2, 34470, Note_on_c, 0, 77, 90
2, 34500, Note_on_c, 0, 77, 0
2, 34500, Note_on_c, 0, 53, 0
2, 34500, Note_on_c, 0, 65, 0
2, 34500, Note_on_c, 0, 66, 90
2, 34500, Note_on_c, 0, 54, 90
2, 34530, Note_on_c, 0, 78, 90
2, 34560, Note_on_c, 0, 78, 0
2, 34560, Note_on_c, 0, 54, 0
2, 34560, Note_on_c, 0, 66, 0
2, 34560, Note_on_c, 0, 69, 90
2, 34560, Note_on_c, 0, 57, 90
2, 34590, Note_on_c, 0, 81, 90
2, 34620, Note_on_c, 0, 81, 0
2, 34620, Note_on_c, 0, 57, 0
2, 34620, Note_on_c, 0, 69, 0
2, 34620, Note_on_c, 0, 67, 90
2, 34620, Note_on_c, 0, 55, 90
2, 34650, Note_on_c, 0, 79, 90
2, 34680, Note_on_c, 0, 79, 0
2, 34680, Note_on_c, 0, 55, 0
2, 34680, Note_on_c, 0, 67, 0
2, 34680, Note_on_c, 0, 65, 90
2, 34680, Note_on_c, 0, 53, 90
2, 34710, Note_on_c, 0, 77, 90
2, 34740, Note_on_c, 0, 77, 0
2, 34740, Note_on_c, 0, 53, 0
2, 34740, Note_on_c, 0, 65, 0
2, 34740, Note_on_c, 0, 63, 90
2, 34740, Note_on_c, 0, 51, 90
2, 34770, Note_on_c, 0, 75, 90
2, 34800, Note_on_c, 0, 75, 0
2, 34800, Note_on_c, 0, 51, 0
2, 34800, Note_on_c, 0, 63, 0
2, 34800, Note_on_c, 0, 62, 90
2, 34800, Note_on_c, 0, 50, 90
2, 34830, Note_on_c, 0, 74, 90
2, 34860, Note_on_c, 0, 74, 0
2, 34860, Note_on_c, 0, 50, 0
2, 34860, Note_on_c, 0, 62, 0
2, 34860, Note_on_c, 0, 60, 90
2, 34860, Note_on_c, 0, 48, 90
2, 34890, Note_on_c, 0, 72, 90
2, 34920, Note_on_c, 0, 72, 0
2, 34920, Note_on_c, 0, 48, 0
2, 34920, Note_on_c, 0, 60, 0
2, 34920, Note_on_c, 0, 58, 90
2, 34920, Note_on_c, 0, 46, 90
2, 34950, Note_on_c, 0, 70, 90
2, 34980, Note_on_c, 0, 70, 0
2, 34980, Note_on_c, 0, 46, 0
2, 34980, Note_on_c, 0, 58, 0
2, 34980, Note_on_c, 0, 57, 90
2, 34980, Note_on_c, 0, 45, 90
2, 35010, Note_on_c, 0, 69, 90
2, 35040, Note_on_c, 0, 69, 0
2, 35040, Note_on_c, 0, 45, 0
2, 35040, Note_on_c, 0, 57, 0
2, 35040, Channel_aftertouch_c, 0, 104
2, 35040, Note_on_c, 0, 55, 90
2, 35040, Note_on_c, 0, 43, 90
2, 35040, Note_on_c, 0, 55, 84
2, 35070, Note_on_c, 0, 67, 90
2, 35070, Note_on_c, 0, 79, 84
2, 35070, Note_on_c, 0, 67, 84
2, 35100, Note_on_c, 0, 67, 0
2, 35100, Note_on_c, 0, 43, 0
2, 35100, Note_on_c, 0, 55, 0
2, 35100, Note_on_c, 0, 55, 0
2, 35100, Note_on_c, 0, 79, 0
2, 35100, Note_on_c, 0, 67, 0
2, 35100, Note_on_c, 0, 53, 90
2, 35100, Note_on_c, 0, 41, 90
2, 35100, Note_on_c, 0, 53, 84
2, 35130, Note_on_c, 0, 65, 90
2, 35130, Note_on_c, 0, 77, 84
2, 35130, Note_on_c, 0, 65, 84
2, 35160, Note_on_c, 0, 65, 0
2, 35160, Note_on_c, 0, 41, 0
2, 35160, Note_on_c, 0, 53, 0
2, 35160, Note_on_c, 0, 53, 0
2, 35160, Note_on_c, 0, 77, 0
2, 35160, Note_on_c, 0, 65, 0
2, 35160, Note_on_c, 0, 51, 90
2, 35160, Note_on_c, 0, 39, 90
2, 35160, Note_on_c, 0, 51, 84
2, 35190, Note_on_c, 0, 63, 90
2, 35190, Note_on_c, 0, 75, 84
2, 35190, Note_on_c, 0, 63, 84
2, 35220, Note_on_c, 0, 63, 0
2, 35220, Note_on_c, 0, 39, 0
2, 35220, Note_on_c, 0, 51, 0
2, 35220, Note_on_c, 0, 51, 0
2, 35220, Note_on_c, 0, 75, 0
2, 35220, Note_on_c, 0, 63, 0
2, 35220, Note_on_c, 0, 50, 90
2, 35220, Note_on_c, 0, 38, 90
2, 35220, Note_on_c, 0, 50, 84
2, 35250, Note_on_c, 0, 62, 90
2, 35250, Note_on_c, 0, 74, 84
2, 35250, Note_on_c, 0, 62, 84
2, 35280, Note_on_c, 0, 62, 0
2, 35280, Note_on_c, 0, 38, 0
2, 35280, Note_on_c, 0, 50, 0
2, 35280, Note_on_c, 0, 50, 0
2, 35280, Note_on_c, 0, 74, 0
2, 35280, Note_on_c, 0, 62, 0
2, 35280, Note_on_c, 0, 48, 90
2, 35280, Note_on_c, 0, 36, 90
2, 35280, Note_on_c, 0, 48, 84
2, 35310, Note_on_c, 0, 60, 90
2, 35310, Note_on_c, 0, 72, 84
2, 35310, Note_on_c, 0, 60, 84
2, 35340, Note_on_c, 0, 60, 0
2, 35340, Note_on_c, 0, 36, 0
2, 35340, Note_on_c, 0, 48, 0
2, 35340, Note_on_c, 0, 48, 0
2, 35340, Note_on_c, 0, 72, 0
2, 35340, Note_on_c, 0, 60, 0
2, 35340, Note_on_c, 0, 46, 90
2, 35340, Note_on_c, 0, 34, 90
2, 35340, Note_on_c, 0, 46, 84
2, 35370, Note_on_c, 0, 58, 90
2, 35370, Note_on_c, 0, 70, 84
2, 35370, Note_on_c, 0, 58, 84
2, 35400, Note_on_c, 0, 58, 0
2, 35400, Note_on_c, 0, 34, 0
2, 35400, Note_on_c, 0, 46, 0
2, 35400, Note_on_c, 0, 46, 0
2, 35400, Note_on_c, 0, 70, 0
2, 35400, Note_on_c, 0, 58, 0
2, 35400, Note_on_c, 0, 45, 90
2, 35400, Note_on_c, 0, 33, 90
2, 35400, Note_on_c, 0, 45, 84
2, 35430, Note_on_c, 0, 57, 90
2, 35430, Note_on_c, 0, 69, 84
2, 35430, Note_on_c, 0, 57, 84
2, 35460, Note_on_c, 0, 57, 0
2, 35460, Note_on_c, 0, 33, 0
2, 35460, Note_on_c, 0, 45, 0
2, 35460, Note_on_c, 0, 45, 0
2, 35460, Note_on_c, 0, 69, 0
2, 35460, Note_on_c, 0, 57, 0
2, 35460, Note_on_c, 0, 43, 90
2, 35460, Note_on_c, 0, 31, 90
2, 35460, Note_on_c, 0, 43, 84
2, 35490, Note_on_c, 0, 55, 90
2, 35490, Note_on_c, 0, 67, 84
2, 35490, Note_on_c, 0, 55, 84
2, 35520, Note_on_c, 0, 55, 0
2, 35520, Note_on_c, 0, 31, 0
2, 35520, Note_on_c, 0, 43, 0
2, 35520, Note_on_c, 0, 43, 0
2, 35520, Note_on_c, 0, 67, 0
2, 35520, Note_on_c, 0, 55, 0
2, 35520, Note_on_c, 0, 74, 91
2, 35520, Note_on_c, 0, 41, 91
2, 35520, Note_on_c, 0, 29, 91
2, 35520, Note_on_c, 0, 41, 84
2, 35550, Note_on_c, 0, 65, 84
2, 35550, Note_on_c, 0, 53, 84
2, 35580, Note_on_c, 0, 53, 0
2, 35580, Note_on_c, 0, 41, 0
2, 35580, Note_on_c, 0, 29, 0
2, 35580, Note_on_c, 0, 74, 0
2, 35580, Note_on_c, 0, 65, 0
2, 35580, Note_on_c, 0, 41, 0
2, 35580, Note_on_c, 0, 41, 84
2, 35580, Note_on_c, 0, 29, 90
2, 35610, Note_on_c, 0, 65, 84
2, 35610, Note_on_c, 0, 53, 84
2, 35640, Note_on_c, 0, 53, 0
2, 35640, Note_on_c, 0, 41, 0
2, 35640, Note_on_c, 0, 29, 0
2, 35640, Note_on_c, 0, 65, 0
2, 35640, Note_on_c, 0, 41, 84
2, 35640, Note_on_c, 0, 29, 90
2, 35670, Note_on_c, 0, 65, 84
2, 35670, Note_on_c, 0, 53, 84
2, 35700, Note_on_c, 0, 53, 0
2, 35700, Note_on_c, 0, 41, 0
2, 35700, Note_on_c, 0, 29, 0
2, 35700, Note_on_c, 0, 65, 0
2, 35700, Note_on_c, 0, 41, 84
2, 35700, Note_on_c, 0, 29, 90
2, 35730, Note_on_c, 0, 65, 84
2, 35730, Note_on_c, 0, 53, 84
2, 35760, Note_on_c, 0, 53, 0
2, 35760, Note_on_c, 0, 41, 0
2, 35760, Note_on_c, 0, 29, 0
2, 35760, Note_on_c, 0, 65, 0
2, 35760, Note_on_c, 0, 41, 84
2, 35760, Note_on_c, 0, 29, 90
2, 35790, Note_on_c, 0, 65, 84
2, 35790, Note_on_c, 0, 53, 84
2, 35820, Note_on_c, 0, 53, 0
2, 35820, Note_on_c, 0, 41, 0
2, 35820, Note_on_c, 0, 29, 0
2, 35820, Note_on_c, 0, 65, 0
2, 35820, Note_on_c, 0, 41, 84
2, 35820, Note_on_c, 0, 29, 90
2, 35850, Note_on_c, 0, 65, 84
2, 35850, Note_on_c, 0, 53, 84
2, 35880, Note_on_c, 0, 53, 0
2, 35880, Note_on_c, 0, 41, 0
2, 35880, Note_on_c, 0, 29, 0
2, 35880, Note_on_c, 0, 65, 0
2, 35880, Note_on_c, 0, 41, 84
2, 35880, Note_on_c, 0, 29, 90
2, 35910, Note_on_c, 0, 65, 84
2, 35910, Note_on_c, 0, 53, 84
2, 35940, Note_on_c, 0, 53, 0
2, 35940, Note_on_c, 0, 41, 0
2, 35940, Note_on_c, 0, 29, 0
2, 35940, Note_on_c, 0, 65, 0
2, 35940, Note_on_c, 0, 41, 84
2, 35940, Note_on_c, 0, 29, 90
2, 35970, Note_on_c, 0, 65, 84
2, 35970, Note_on_c, 0, 53, 84
2, 36000, Note_on_c, 0, 53, 0
2, 36000, Note_on_c, 0, 41, 0
2, 36000, Note_on_c, 0, 29, 0
2, 36000, Note_on_c, 0, 65, 0
2, 36000, Note_on_c, 0, 65, 91
2, 36000, Note_on_c, 0, 53, 84
2, 36000, Note_on_c, 0, 41, 84
2, 36000, Note_on_c, 0, 29, 84
2, 36060, Note_on_c, 0, 29, 0
2, 36060, Note_on_c, 0, 65, 0
2, 36060, Note_on_c, 0, 53, 0
2, 36060, Note_on_c, 0, 41, 0
2, 36060, Note_on_c, 0, 53, 91
2, 36120, Note_on_c, 0, 53, 0
2, 36120, Note_on_c, 0, 53, 89
2, 36180, Note_on_c, 0, 53, 0
2, 36180, Note_on_c, 0, 53, 89
2, 36240, Note_on_c, 0, 53, 0
2, 36240, Note_on_c, 0, 53, 86
2, 36300, Note_on_c, 0, 53, 0
2, 36300, Note_on_c, 0, 53, 86
2, 36360, Note_on_c, 0, 53, 0
2, 36360, Note_on_c, 0, 53, 84
2, 36420, Note_on_c, 0, 53, 0
2, 36420, Note_on_c, 0, 53, 84
2, 36480, Note_on_c, 0, 53, 0
2, 36480, Channel_aftertouch_c, 0, 91
2, 36480, Note_on_c, 0, 53, 79
2, 36540, Note_on_c, 0, 53, 0
2, 36540, Note_on_c, 0, 53, 79
2, 36600, Note_on_c, 0, 53, 0
2, 36600, Note_on_c, 0, 70, 71
2, 36600, Note_on_c, 0, 65, 71
2, 36600, Note_on_c, 0, 62, 71
2, 36600, Note_on_c, 0, 53, 71
2, 36660, Note_on_c, 0, 53, 0
2, 36660, Note_on_c, 0, 53, 71
2, 36720, Note_on_c, 0, 53, 0
2, 36720, Note_on_c, 0, 62, 0
2, 36720, Note_on_c, 0, 65, 0
2, 36720, Note_on_c, 0, 70, 0
2, 36720, Note_on_c, 0, 72, 71
2, 36720, Note_on_c, 0, 69, 71
2, 36720, Note_on_c, 0, 63, 71
2, 36720, Note_on_c, 0, 60, 71
2, 36720, Note_on_c, 0, 53, 71
2, 36780, Note_on_c, 0, 53, 0
2, 36780, Note_on_c, 0, 53, 71
2, 36840, Note_on_c, 0, 53, 0
2, 36840, Note_on_c, 0, 60, 0
2, 36840, Note_on_c, 0, 72, 0
2, 36840, Note_on_c, 0, 69, 0
2, 36840, Note_on_c, 0, 63, 0
2, 36840, Note_on_c, 0, 74, 71
2, 36840, Note_on_c, 0, 70, 71
2, 36840, Note_on_c, 0, 62, 71
2, 36840, Note_on_c, 0, 58, 71
2, 36840, Note_on_c, 0, 53, 71
2, 36900, Note_on_c, 0, 53, 0
2, 36900, Note_on_c, 0, 53, 71
2, 36960, Note_on_c, 0, 53, 0
2, 36960, Note_on_c, 0, 58, 0
2, 36960, Note_on_c, 0, 74, 0
2, 36960, Note_on_c, 0, 70, 0
2, 36960, Note_on_c, 0, 62, 0
2, 36960, Note_on_c, 0, 77, 71
2, 36960, Note_on_c, 0, 72, 71
2, 36960, Note_on_c, 0, 60, 71
2, 36960, Note_on_c, 0, 57, 71
2, 36960, Note_on_c, 0, 53, 71
2, 37020, Note_on_c, 0, 53, 0
2, 37020, Channel_aftertouch_c, 0, 93
2, 37020, Note_on_c, 0, 53, 71
2, 37080, Note_on_c, 0, 53, 0
2, 37080, Note_on_c, 0, 77, 0
2, 37080, Channel_aftertouch_c, 0, 96
2, 37080, Note_on_c, 0, 75, 76
2, 37080, Note_on_c, 0, 53, 71
2, 37140, Note_on_c, 0, 53, 0
2, 37140, Channel_aftertouch_c, 0, 93
2, 37140, Note_on_c, 0, 53, 71
2, 37200, Note_on_c, 0, 53, 0
2, 37200, Note_on_c, 0, 75, 0
2, 37200, Note_on_c, 0, 57, 0
2, 37200, Note_on_c, 0, 60, 0
2, 37200, Note_on_c, 0, 72, 0
2, 37200, Note_on_c, 0, 72, 71
2, 37200, Note_on_c, 0, 69, 71
2, 37200, Note_on_c, 0, 63, 71
2, 37200, Note_on_c, 0, 60, 71
2, 37200, Note_on_c, 0, 53, 71
2, 37260, Note_on_c, 0, 53, 0
2, 37260, Note_on_c, 0, 53, 71
2, 37320, Note_on_c, 0, 53, 0
2, 37320, Note_on_c, 0, 53, 71
2, 37380, Note_on_c, 0, 53, 0
2, 37380, Note_on_c, 0, 53, 71
2, 37440, Note_on_c, 0, 53, 0
2, 37440, Note_on_c, 0, 60, 0
2, 37440, Note_on_c, 0, 72, 0
2, 37440, Note_on_c, 0, 69, 0
2, 37440, Note_on_c, 0, 63, 0
2, 37440, Note_on_c, 0, 53, 71
2, 37500, Note_on_c, 0, 53, 0
2, 37500, Note_on_c, 0, 53, 71
2, 37560, Note_on_c, 0, 53, 0
2, 37560, Note_on_c, 0, 70, 73
2, 37560, Note_on_c, 0, 65, 73
2, 37560, Note_on_c, 0, 62, 73
2, 37560, Note_on_c, 0, 53, 71
2, 37620, Note_on_c, 0, 53, 0
2, 37620, Note_on_c, 0, 53, 71
2, 37680, Note_on_c, 0, 53, 0
2, 37680, Note_on_c, 0, 62, 0
2, 37680, Note_on_c, 0, 65, 0
2, 37680, Note_on_c, 0, 70, 0
2, 37680, Note_on_c, 0, 72, 76
2, 37680, Note_on_c, 0, 69, 76
2, 37680, Note_on_c, 0, 63, 76
2, 37680, Note_on_c, 0, 60, 76
2, 37680, Note_on_c, 0, 53, 71
2, 37740, Note_on_c, 0, 53, 0
2, 37740, Note_on_c, 0, 53, 71
2, 37800, Note_on_c, 0, 53, 0
2, 37800, Note_on_c, 0, 60, 0
2, 37800, Note_on_c, 0, 72, 0
2, 37800, Note_on_c, 0, 69, 0
2, 37800, Note_on_c, 0, 63, 0
2, 37800, Note_on_c, 0, 74, 79
2, 37800, Note_on_c, 0, 70, 79
2, 37800, Note_on_c, 0, 62, 79
2, 37800, Note_on_c, 0, 58, 79
2, 37800, Note_on_c, 0, 53, 71
2, 37860, Note_on_c, 0, 53, 0
2, 37860, Note_on_c, 0, 53, 71
2, 37920, Note_on_c, 0, 53, 0
2, 37920, Note_on_c, 0, 58, 0
2, 37920, Note_on_c, 0, 74, 0
2, 37920, Note_on_c, 0, 70, 0
2, 37920, Note_on_c, 0, 62, 0
2, 37920, Note_on_c, 0, 77, 86
2, 37920, Note_on_c, 0, 72, 86
2, 37920, Note_on_c, 0, 60, 86
2, 37920, Note_on_c, 0, 57, 86
2, 37920, Note_on_c, 0, 53, 84
2, 37980, Note_on_c, 0, 53, 0
2, 37980, Note_on_c, 0, 53, 79
2, 38040, Note_on_c, 0, 53, 0
2, 38040, Note_on_c, 0, 77, 0
2, 38040, Note_on_c, 0, 75, 79
2, 38040, Note_on_c, 0, 53, 79
2, 38100, Note_on_c, 0, 53, 0
2, 38100, Note_on_c, 0, 53, 79
2, 38160, Note_on_c, 0, 53, 0
2, 38160, Note_on_c, 0, 75, 0
2, 38160, Note_on_c, 0, 57, 0
2, 38160, Note_on_c, 0, 60, 0
2, 38160, Note_on_c, 0, 72, 0
2, 38160, Note_on_c, 0, 72, 79
2, 38160, Note_on_c, 0, 69, 79
2, 38160, Note_on_c, 0, 63, 79
2, 38160, Note_on_c, 0, 60, 79
2, 38160, Note_on_c, 0, 53, 79
2, 38220, Note_on_c, 0, 53, 0
2, 38220, Note_on_c, 0, 53, 79
2, 38280, Note_on_c, 0, 53, 0
2, 38280, Note_on_c, 0, 53, 79
2, 38340, Note_on_c, 0, 53, 0
2, 38340, Note_on_c, 0, 53, 79
2, 38400, Note_on_c, 0, 53, 0
2, 38400, Note_on_c, 0, 60, 0
2, 38400, Note_on_c, 0, 72, 0
2, 38400, Note_on_c, 0, 69, 0
2, 38400, Note_on_c, 0, 63, 0
2, 38400, Note_on_c, 0, 53, 79
2, 38460, Note_on_c, 0, 53, 0
2, 38460, Note_on_c, 0, 53, 79
2, 38520, Note_on_c, 0, 53, 0
2, 38520, Channel_aftertouch_c, 0, 88
2, 38520, Note_on_c, 0, 70, 68
2, 38520, Note_on_c, 0, 65, 68
2, 38520, Note_on_c, 0, 61, 68
2, 38520, Note_on_c, 0, 53, 68
2, 38580, Note_on_c, 0, 53, 0
2, 38580, Note_on_c, 0, 53, 68
2, 38640, Note_on_c, 0, 53, 0
2, 38640, Note_on_c, 0, 61, 0
2, 38640, Note_on_c, 0, 65, 0
2, 38640, Note_on_c, 0, 70, 0
2, 38640, Note_on_c, 0, 72, 68
2, 38640, Note_on_c, 0, 69, 68
2, 38640, Note_on_c, 0, 63, 68
2, 38640, Note_on_c, 0, 60, 68
2, 38640, Note_on_c, 0, 53, 68
2, 38700, Note_on_c, 0, 53, 0
2, 38700, Note_on_c, 0, 53, 68
2, 38760, Note_on_c, 0, 53, 0
2, 38760, Note_on_c, 0, 60, 0
2, 38760, Note_on_c, 0, 72, 0
2, 38760, Note_on_c, 0, 69, 0
2, 38760, Note_on_c, 0, 63, 0
2, 38760, Note_on_c, 0, 73, 68
2, 38760, Note_on_c, 0, 70, 68
2, 38760, Note_on_c, 0, 61, 68
2, 38760, Note_on_c, 0, 58, 68
2, 38760, Note_on_c, 0, 53, 68
2, 38820, Note_on_c, 0, 53, 0
2, 38820, Note_on_c, 0, 53, 68
2, 38880, Note_on_c, 0, 53, 0
2, 38880, Note_on_c, 0, 58, 0
2, 38880, Note_on_c, 0, 73, 0
2, 38880, Note_on_c, 0, 70, 0
2, 38880, Note_on_c, 0, 61, 0
2, 38880, Note_on_c, 0, 77, 68
2, 38880, Note_on_c, 0, 72, 68
2, 38880, Note_on_c, 0, 60, 68
2, 38880, Note_on_c, 0, 57, 68
2, 38880, Note_on_c, 0, 53, 68
2, 38940, Note_on_c, 0, 53, 0
2, 38940, Note_on_c, 0, 53, 68
2, 39000, Note_on_c, 0, 53, 0
2, 39000, Note_on_c, 0, 77, 0
2, 39000, Note_on_c, 0, 75, 68
2, 39000, Note_on_c, 0, 53, 68
2, 39060, Note_on_c, 0, 53, 0
2, 39060, Note_on_c, 0, 53, 68
2, 39120, Note_on_c, 0, 53, 0
2, 39120, Note_on_c, 0, 75, 0
2, 39120, Note_on_c, 0, 57, 0
2, 39120, Note_on_c, 0, 60, 0
2, 39120, Note_on_c, 0, 72, 0
2, 39120, Note_on_c, 0, 73, 68
2, 39120, Note_on_c, 0, 70, 68
2, 39120, Note_on_c, 0, 61, 68
2, 39120, Note_on_c, 0, 58, 68
2, 39120, Note_on_c, 0, 53, 68
2, 39180, Note_on_c, 0, 53, 0
2, 39180, Note_on_c, 0, 53, 68
2, 39240, Note_on_c, 0, 53, 0
2, 39240, Note_on_c, 0, 53, 68
2, 39300, Note_on_c, 0, 53, 0
2, 39300, Note_on_c, 0, 53, 68
2, 39360, Note_on_c, 0, 53, 0
2, 39360, Note_on_c, 0, 58, 0
2, 39360, Note_on_c, 0, 73, 0
2, 39360, Note_on_c, 0, 70, 0
2, 39360, Note_on_c, 0, 61, 0
2, 39360, Note_on_c, 0, 56, 71
2, 39420, Note_on_c, 0, 56, 0
2, 39420, Note_on_c, 0, 56, 71
2, 39480, Note_on_c, 0, 56, 0
2, 39480, Note_on_c, 0, 73, 71
2, 39480, Note_on_c, 0, 68, 71
2, 39480, Note_on_c, 0, 65, 71
2, 39480, Note_on_c, 0, 56, 71
2, 39540, Note_on_c, 0, 56, 0
2, 39540, Note_on_c, 0, 56, 71
2, 39600, Note_on_c, 0, 56, 0
2, 39600, Note_on_c, 0, 65, 0
2, 39600, Note_on_c, 0, 68, 0
2, 39600, Note_on_c, 0, 73, 0
2, 39600, Note_on_c, 0, 75, 71
2, 39600, Note_on_c, 0, 72, 71
2, 39600, Note_on_c, 0, 66, 71
2, 39600, Note_on_c, 0, 63, 71
2, 39600, Note_on_c, 0, 56, 71
2, 39660, Note_on_c, 0, 56, 0
2, 39660, Note_on_c, 0, 56, 71
2, 39720, Note_on_c, 0, 56, 0
2, 39720, Note_on_c, 0, 63, 0
2, 39720, Note_on_c, 0, 75, 0
2, 39720, Note_on_c, 0, 72, 0
2, 39720, Note_on_c, 0, 66, 0
2, 39720, Note_on_c, 0, 77, 71
2, 39720, Note_on_c, 0, 73, 71
2, 39720, Note_on_c, 0, 65, 71
2, 39720, Note_on_c, 0, 61, 71
2, 39720, Note_on_c, 0, 56, 71
2, 39780, Note_on_c, 0, 56, 0
2, 39780, Note_on_c, 0, 56, 71
2, 39840, Note_on_c, 0, 56, 0
2, 39840, Note_on_c, 0, 61, 0
2, 39840, Note_on_c, 0, 77, 0
2, 39840, Note_on_c, 0, 73, 0
2, 39840, Note_on_c, 0, 65, 0
2, 39840, Note_on_c, 0, 80, 71
2, 39840, Note_on_c, 0, 75, 71
2, 39840, Note_on_c, 0, 68, 71
2, 39840, Note_on_c, 0, 63, 71
2, 39840, Note_on_c, 0, 60, 71
2, 39840, Note_on_c, 0, 56, 71
2, 39900, Note_on_c, 0, 56, 0
2, 39900, Channel_aftertouch_c, 0, 93
2, 39900, Note_on_c, 0, 56, 71
2, 39960, Note_on_c, 0, 56, 0
2, 39960, Note_on_c, 0, 80, 0
2, 39960, Channel_aftertouch_c, 0, 96
2, 39960, Note_on_c, 0, 78, 76
2, 39960, Note_on_c, 0, 56, 71
2, 40020, Note_on_c, 0, 56, 0
2, 40020, Channel_aftertouch_c, 0, 93
2, 40020, Note_on_c, 0, 56, 71
2, 40080, Note_on_c, 0, 56, 0
2, 40080, Note_on_c, 0, 78, 0
2, 40080, Note_on_c, 0, 60, 0
2, 40080, Note_on_c, 0, 75, 0
2, 40080, Note_on_c, 0, 68, 0
2, 40080, Note_on_c, 0, 63, 0
2, 40080, Note_on_c, 0, 75, 71
2, 40080, Note_on_c, 0, 60, 71
2, 40080, Note_on_c, 0, 54, 71
2, 40080, Note_on_c, 0, 56, 71
2, 40140, Note_on_c, 0, 56, 0
2, 40140, Note_on_c, 0, 56, 71
2, 40200, Note_on_c, 0, 56, 0
2, 40200, Note_on_c, 0, 75, 0
2, 40200, Note_on_c, 0, 77, 71
2, 40200, Note_on_c, 0, 56, 71
2, 40260, Note_on_c, 0, 56, 0
2, 40260, Note_on_c, 0, 77, 0
2, 40260, Note_on_c, 0, 78, 71
2, 40260, Note_on_c, 0, 56, 71
2, 40320, Note_on_c, 0, 56, 0
2, 40320, Note_on_c, 0, 60, 0
2, 40320, Note_on_c, 0, 54, 0
2, 40320, Note_on_c, 0, 78, 0
2, 40320, Note_on_c, 0, 80, 73
2, 40320, Note_on_c, 0, 62, 73
2, 40320, Note_on_c, 0, 59, 73
2, 40320, Note_on_c, 0, 56, 73
2, 40320, Note_on_c, 0, 53, 73
2, 40380, Note_on_c, 0, 56, 0
2, 40380, Note_on_c, 0, 56, 73
2, 40440, Note_on_c, 0, 56, 0
2, 40440, Note_on_c, 0, 56, 73
2, 40500, Note_on_c, 0, 56, 0
2, 40500, Note_on_c, 0, 56, 73
2, 40560, Note_on_c, 0, 56, 0
2, 40560, Note_on_c, 0, 53, 0
2, 40560, Note_on_c, 0, 59, 0
2, 40560, Note_on_c, 0, 62, 0
2, 40560, Note_on_c, 0, 63, 73
2, 40560, Note_on_c, 0, 58, 73
2, 40560, Note_on_c, 0, 54, 73
2, 40620, Note_on_c, 0, 80, 0
2, 40620, Note_on_c, 0, 78, 73
2, 40680, Note_on_c, 0, 78, 0
2, 40680, Note_on_c, 0, 63, 0
2, 40680, Note_on_c, 0, 58, 0
2, 40680, Note_on_c, 0, 70, 73
2, 40680, Note_on_c, 0, 66, 73
2, 40740, Note_on_c, 0, 70, 0
2, 40740, Note_on_c, 0, 75, 73
2, 40800, Note_on_c, 0, 75, 0
2, 40800, Note_on_c, 0, 66, 0
2, 40800, Note_on_c, 0, 54, 0
2, 40800, Note_on_c, 0, 73, 76
2, 40800, Note_on_c, 0, 68, 76
2, 40800, Note_on_c, 0, 65, 76
2, 40800, Note_on_c, 0, 56, 76
2, 40860, Note_on_c, 0, 75, 71
2, 40890, Note_on_c, 0, 75, 0
2, 40890, Note_on_c, 0, 73, 71
2, 40920, Note_on_c, 0, 73, 0
2, 40920, Note_on_c, 0, 65, 0
2, 40920, Note_on_c, 0, 73, 0
2, 40920, Note_on_c, 0, 72, 76
2, 40920, Note_on_c, 0, 63, 76
2, 40980, Note_on_c, 0, 63, 0
2, 40980, Note_on_c, 0, 72, 0
2, 40980, Note_on_c, 0, 73, 76
2, 40980, Note_on_c, 0, 65, 76
2, 41040, Note_on_c, 0, 65, 0
2, 41040, Note_on_c, 0, 73, 0
2, 41040, Note_on_c, 0, 68, 0
2, 41040, Note_on_c, 0, 77, 76
2, 41040, Note_on_c, 0, 72, 76
2, 41040, Note_on_c, 0, 68, 76
2, 41040, Note_on_c, 0, 44, 71
2, 41160, Note_on_c, 0, 68, 0
2, 41160, Note_on_c, 0, 77, 0
2, 41160, Note_on_c, 0, 75, 76
2, 41160, Note_on_c, 0, 66, 76
2, 41280, Note_on_c, 0, 66, 0
2, 41280, Note_on_c, 0, 56, 0
2, 41280, Note_on_c, 0, 44, 0
2, 41280, Note_on_c, 0, 72, 0
2, 41280, Note_on_c, 0, 75, 0
2, 41280, Note_on_c, 0, 73, 79
2, 41280, Note_on_c, 0, 73, 79
2, 41280, Note_on_c, 0, 65, 79
2, 41280, Note_on_c, 0, 61, 79
2, 41280, Note_on_c, 0, 49, 75
2, 41340, Note_on_c, 0, 61, 0
2, 41340, Note_on_c, 0, 65, 0
2, 41340, Note_on_c, 0, 56, 79
2, 41400, Note_on_c, 0, 56, 0
2, 41400, Note_on_c, 0, 73, 0
2, 41400, Note_on_c, 0, 73, 0
2, 41400, Note_on_c, 0, 85, 68
2, 41400, Note_on_c, 0, 73, 68
2, 41400, Note_on_c, 0, 68, 68
2, 41400, Note_on_c, 0, 65, 68
2, 41460, Note_on_c, 0, 65, 0
2, 41460, Note_on_c, 0, 68, 0
2, 41460, Note_on_c, 0, 56, 68
2, 41520, Note_on_c, 0, 56, 0
2, 41520, Note_on_c, 0, 73, 0
2, 41520, Note_on_c, 0, 85, 0
2, 41520, Note_on_c, 0, 87, 72
2, 41520, Note_on_c, 0, 75, 72
2, 41520, Note_on_c, 0, 66, 72
2, 41520, Note_on_c, 0, 63, 72
2, 41580, Note_on_c, 0, 63, 0
2, 41580, Note_on_c, 0, 66, 0
2, 41580, Note_on_c, 0, 56, 72
2, 41640, Note_on_c, 0, 56, 0
2, 41640, Note_on_c, 0, 75, 0
2, 41640, Note_on_c, 0, 87, 0
2, 41640, Note_on_c, 0, 89, 76
2, 41640, Note_on_c, 0, 77, 76
2, 41640, Note_on_c, 0, 65, 76
2, 41640, Note_on_c, 0, 61, 76
2, 41700, Note_on_c, 0, 61, 0
2, 41700, Note_on_c, 0, 65, 0
2, 41700, Note_on_c, 0, 56, 76
2, 41760, Note_on_c, 0, 56, 0
2, 41760, Note_on_c, 0, 77, 0
2, 41760, Note_on_c, 0, 89, 0
2, 41760, Note_on_c, 0, 49, 0
2, 41760, Note_on_c, 0, 92, 76
2, 41760, Note_on_c, 0, 80, 76
2, 41760, Note_on_c, 0, 63, 76
2, 41760, Note_on_c, 0, 60, 76
2, 41760, Note_on_c, 0, 44, 75
2, 41820, Note_on_c, 0, 60, 0
2, 41820, Note_on_c, 0, 63, 0
2, 41820, Note_on_c, 0, 56, 76
2, 41880, Note_on_c, 0, 56, 0
2, 41880, Note_on_c, 0, 92, 0
2, 41880, Note_on_c, 0, 80, 0
2, 41880, Note_on_c, 0, 90, 72
2, 41880, Note_on_c, 0, 78, 72
2, 41880, Note_on_c, 0, 63, 72
2, 41880, Note_on_c, 0, 60, 72
2, 41940, Note_on_c, 0, 60, 0
2, 41940, Note_on_c, 0, 63, 0
2, 41940, Note_on_c, 0, 56, 72
2, 42000, Note_on_c, 0, 56, 0
2, 42000, Note_on_c, 0, 78, 0
2, 42000, Note_on_c, 0, 90, 0
2, 42000, Note_on_c, 0, 87, 71
2, 42000, Note_on_c, 0, 75, 68
2, 42000, Note_on_c, 0, 66, 68
2, 42000, Note_on_c, 0, 60, 68
2, 42060, Note_on_c, 0, 60, 0
2, 42060, Note_on_c, 0, 66, 0
2, 42060, Note_on_c, 0, 56, 68
2, 42120, Note_on_c, 0, 56, 0
2, 42120, Note_on_c, 0, 66, 68
2, 42120, Note_on_c, 0, 60, 68
2, 42120, Note_on_c, 0, 80, 62
2, 42120, Note_on_c, 0, 68, 62
2, 42180, Note_on_c, 0, 60, 0
2, 42180, Note_on_c, 0, 66, 0
2, 42180, Note_on_c, 0, 56, 68
2, 42240, Note_on_c, 0, 56, 0
2, 42240, Note_on_c, 0, 68, 0
2, 42240, Note_on_c, 0, 75, 0
2, 42240, Note_on_c, 0, 44, 0
2, 42240, Note_on_c, 0, 87, 0
2, 42240, Note_on_c, 0, 80, 0
2, 42240, Note_on_c, 0, 73, 73
2, 42240, Note_on_c, 0, 73, 73
2, 42240, Note_on_c, 0, 65, 73
2, 42240, Note_on_c, 0, 61, 73
2, 42240, Note_on_c, 0, 80, 71
2, 42240, Note_on_c, 0, 68, 71
2, 42240, Note_on_c, 0, 49, 71
2, 42300, Note_on_c, 0, 61, 0
2, 42300, Note_on_c, 0, 65, 0
2, 42300, Note_on_c, 0, 56, 73
2, 42360, Note_on_c, 0, 56, 0
2, 42360, Note_on_c, 0, 73, 0
2, 42360, Note_on_c, 0, 73, 0
2, 42360, Note_on_c, 0, 85, 68
2, 42360, Note_on_c, 0, 73, 68
2, 42360, Note_on_c, 0, 68, 68
2, 42360, Note_on_c, 0, 65, 68
2, 42420, Note_on_c, 0, 65, 0
2, 42420, Note_on_c, 0, 68, 0
2, 42420, Note_on_c, 0, 56, 68
2, 42480, Note_on_c, 0, 56, 0
2, 42480, Note_on_c, 0, 85, 0
2, 42480, Note_on_c, 0, 73, 0
2, 42480, Note_on_c, 0, 87, 72
2, 42480, Note_on_c, 0, 75, 72
2, 42480, Note_on_c, 0, 66, 72
2, 42480, Note_on_c, 0, 63, 72
2, 42540, Note_on_c, 0, 63, 0
2, 42540, Note_on_c, 0, 66, 0
2, 42540, Note_on_c, 0, 56, 72
2, 42600, Note_on_c, 0, 56, 0
2, 42600, Note_on_c, 0, 75, 0
2, 42600, Note_on_c, 0, 87, 0
2, 42600, Note_on_c, 0, 89, 76
2, 42600, Note_on_c, 0, 77, 76
2, 42600, Note_on_c, 0, 65, 76
2, 42600, Note_on_c, 0, 61, 76
2, 42660, Note_on_c, 0, 61, 0
2, 42660, Note_on_c, 0, 65, 0
2, 42660, Note_on_c, 0, 56, 76
2, 42720, Note_on_c, 0, 56, 0
2, 42720, Note_on_c, 0, 77, 0
2, 42720, Note_on_c, 0, 49, 0
2, 42720, Note_on_c, 0, 89, 0
2, 42720, Note_on_c, 0, 92, 76
2, 42720, Note_on_c, 0, 80, 76
2, 42720, Note_on_c, 0, 63, 76
2, 42720, Note_on_c, 0, 60, 76
2, 42720, Note_on_c, 0, 44, 71
2, 42780, Note_on_c, 0, 60, 0
2, 42780, Note_on_c, 0, 63, 0
2, 42780, Note_on_c, 0, 56, 76
2, 42840, Note_on_c, 0, 56, 0
2, 42840, Note_on_c, 0, 80, 0
2, 42840, Note_on_c, 0, 92, 0
2, 42840, Note_on_c, 0, 90, 72
2, 42840, Note_on_c, 0, 78, 72
2, 42840, Note_on_c, 0, 63, 72
2, 42840, Note_on_c, 0, 60, 72
2, 42900, Note_on_c, 0, 60, 0
2, 42900, Note_on_c, 0, 63, 0
2, 42900, Note_on_c, 0, 56, 72
2, 42960, Note_on_c, 0, 56, 0
2, 42960, Note_on_c, 0, 78, 0
2, 42960, Note_on_c, 0, 68, 0
2, 42960, Note_on_c, 0, 90, 0
2, 42960, Note_on_c, 0, 80, 0
2, 42960, Note_on_c, 0, 87, 71
2, 42960, Note_on_c, 0, 75, 68
2, 42960, Note_on_c, 0, 66, 68
2, 42960, Note_on_c, 0, 60, 68
2, 43020, Note_on_c, 0, 60, 0
2, 43020, Note_on_c, 0, 66, 0
2, 43020, Note_on_c, 0, 56, 68
2, 43080, Note_on_c, 0, 56, 0
2, 43080, Note_on_c, 0, 66, 68
2, 43080, Note_on_c, 0, 60, 68
2, 43080, Note_on_c, 0, 82, 71
2, 43080, Note_on_c, 0, 70, 71
2, 43140, Note_on_c, 0, 70, 0
2, 43140, Note_on_c, 0, 60, 0
2, 43140, Note_on_c, 0, 66, 0
2, 43140, Note_on_c, 0, 82, 0
2, 43140, Note_on_c, 0, 56, 68
2, 43140, Note_on_c, 0, 80, 71
2, 43140, Note_on_c, 0, 68, 71
2, 43200, Note_on_c, 0, 68, 0
2, 43200, Note_on_c, 0, 75, 0
2, 43200, Note_on_c, 0, 44, 0
2, 43200, Note_on_c, 0, 87, 0
2, 43200, Note_on_c, 0, 80, 0
2, 43200, Note_on_c, 0, 56, 0
2, 43200, Note_on_c, 0, 65, 71
2, 43200, Note_on_c, 0, 61, 71
2, 43200, Note_on_c, 0, 80, 71
2, 43200, Note_on_c, 0, 68, 71
2, 43200, Note_on_c, 0, 49, 71
2, 43260, Note_on_c, 0, 61, 0
2, 43260, Note_on_c, 0, 65, 0
2, 43260, Note_on_c, 0, 56, 71
2, 43320, Note_on_c, 0, 56, 0
2, 43320, Note_on_c, 0, 85, 71
2, 43320, Note_on_c, 0, 73, 71
2, 43320, Note_on_c, 0, 65, 71
2, 43320, Note_on_c, 0, 61, 71
2, 43380, Note_on_c, 0, 61, 0
2, 43380, Note_on_c, 0, 65, 0
2, 43380, Note_on_c, 0, 56, 71
2, 43440, Note_on_c, 0, 56, 0
2, 43440, Note_on_c, 0, 73, 0
2, 43440, Note_on_c, 0, 85, 0
2, 43440, Note_on_c, 0, 87, 71
2, 43440, Note_on_c, 0, 75, 71
2, 43440, Note_on_c, 0, 53, 71
2, 43500, Note_on_c, 0, 53, 0
2, 43500, Note_on_c, 0, 56, 71
2, 43560, Note_on_c, 0, 56, 0
2, 43560, Note_on_c, 0, 75, 0
2, 43560, Note_on_c, 0, 87, 0
2, 43560, Note_on_c, 0, 89, 71
2, 43560, Note_on_c, 0, 77, 71
2, 43560, Note_on_c, 0, 65, 71
2, 43560, Note_on_c, 0, 61, 71
2, 43620, Note_on_c, 0, 61, 0
2, 43620, Note_on_c, 0, 65, 0
2, 43620, Note_on_c, 0, 56, 71
2, 43680, Note_on_c, 0, 56, 0
2, 43680, Note_on_c, 0, 77, 0
2, 43680, Note_on_c, 0, 80, 0
2, 43680, Note_on_c, 0, 49, 0
2, 43680, Note_on_c, 0, 68, 0
2, 43680, Note_on_c, 0, 89, 0
2, 43680, Channel_aftertouch_c, 0, 93
2, 43680, Note_on_c, 0, 89, 73
2, 43680, Note_on_c, 0, 77, 73
2, 43680, Note_on_c, 0, 54, 73
2, 43680, Note_on_c, 0, 42, 73
2, 43740, Note_on_c, 0, 54, 0
2, 43740, Note_on_c, 0, 58, 73
2, 43800, Note_on_c, 0, 58, 0
2, 43800, Note_on_c, 0, 63, 73
2, 43800, Note_on_c, 0, 61, 73
2, 43860, Note_on_c, 0, 61, 0
2, 43860, Note_on_c, 0, 63, 0
2, 43860, Note_on_c, 0, 58, 73
2, 43920, Note_on_c, 0, 58, 0
2, 43920, Note_on_c, 0, 89, 0
2, 43920, Note_on_c, 0, 77, 0
2, 43920, Note_on_c, 0, 87, 73
2, 43920, Note_on_c, 0, 75, 73
2, 43920, Note_on_c, 0, 63, 73
2, 43920, Note_on_c, 0, 61, 73
2, 43980, Note_on_c, 0, 61, 0
2, 43980, Note_on_c, 0, 63, 0
2, 43980, Note_on_c, 0, 58, 73
2, 44040, Note_on_c, 0, 58, 0
2, 44040, Note_on_c, 0, 75, 0
2, 44040, Note_on_c, 0, 87, 0
2, 44040, Note_on_c, 0, 63, 73
2, 44040, Note_on_c, 0, 61, 73
2, 44100, Note_on_c, 0, 61, 0
2, 44100, Note_on_c, 0, 63, 0
2, 44100, Note_on_c, 0, 58, 73
2, 44160, Note_on_c, 0, 58, 0
2, 44160, Note_on_c, 0, 42, 0
2, 44160, Note_on_c, 0, 51, 76
2, 44160, Note_on_c, 0, 66, 76
2, 44160, Note_on_c, 0, 63, 76
2, 44160, Note_on_c, 0, 58, 76
2, 44160, Note_on_c, 0, 39, 76
2, 44220, Note_on_c, 0, 51, 0
2, 44220, Note_on_c, 0, 58, 76
2, 44280, Note_on_c, 0, 58, 0
2, 44280, Note_on_c, 0, 87, 76
2, 44280, Note_on_c, 0, 75, 76
2, 44280, Note_on_c, 0, 66, 76
2, 44280, Note_on_c, 0, 61, 76
2, 44340, Note_on_c, 0, 61, 0
2, 44340, Note_on_c, 0, 66, 0
2, 44340, Note_on_c, 0, 58, 76
2, 44400, Note_on_c, 0, 87, 0
2, 44400, Note_on_c, 0, 58, 0
2, 44400, Note_on_c, 0, 75, 0
2, 44400, Note_on_c, 0, 89, 79
2, 44400, Note_on_c, 0, 77, 79
2, 44400, Note_on_c, 0, 66, 79
2, 44400, Note_on_c, 0, 61, 79
2, 44460, Note_on_c, 0, 61, 0
2, 44460, Note_on_c, 0, 66, 0
2, 44460, Note_on_c, 0, 58, 79
2, 44520, Note_on_c, 0, 89, 0
2, 44520, Note_on_c, 0, 58, 0
2, 44520, Note_on_c, 0, 77, 0
2, 44520, Note_on_c, 0, 90, 81
2, 44520, Note_on_c, 0, 78, 81
2, 44520, Note_on_c, 0, 66, 81
2, 44520, Note_on_c, 0, 61, 81
2, 44580, Note_on_c, 0, 61, 0
2, 44580, Note_on_c, 0, 66, 0
2, 44580, Note_on_c, 0, 58, 81
2, 44640, Note_on_c, 0, 58, 0
2, 44640, Note_on_c, 0, 78, 0
2, 44640, Note_on_c, 0, 90, 0
2, 44640, Note_on_c, 0, 58, 0
2, 44640, Note_on_c, 0, 39, 0
2, 44640, Note_on_c, 0, 94, 84
2, 44640, Note_on_c, 0, 82, 84
2, 44640, Note_on_c, 0, 48, 84
2, 44640, Note_on_c, 0, 56, 76
2, 44640, Note_on_c, 0, 36, 76
2, 44700, Note_on_c, 0, 48, 0
2, 44700, Note_on_c, 0, 56, 81
2, 44760, Note_on_c, 0, 56, 0
2, 44760, Note_on_c, 0, 66, 81
2, 44760, Note_on_c, 0, 63, 81
2, 44820, Note_on_c, 0, 66, 0
2, 44820, Note_on_c, 0, 63, 0
2, 44820, Note_on_c, 0, 56, 81
2, 44880, Note_on_c, 0, 82, 0
2, 44880, Note_on_c, 0, 94, 0
2, 44880, Note_on_c, 0, 56, 0
2, 44880, Note_on_c, 0, 92, 81
2, 44880, Note_on_c, 0, 80, 81
2, 44880, Note_on_c, 0, 66, 81
2, 44880, Note_on_c, 0, 63, 81
2, 44940, Note_on_c, 0, 66, 0
2, 44940, Note_on_c, 0, 63, 0
2, 44940, Note_on_c, 0, 56, 81
2, 45000, Note_on_c, 0, 56, 0
2, 45000, Note_on_c, 0, 92, 0
2, 45000, Note_on_c, 0, 80, 0
2, 45000, Note_on_c, 0, 66, 81
2, 45000, Note_on_c, 0, 63, 81
2, 45060, Note_on_c, 0, 66, 0
2, 45060, Note_on_c, 0, 63, 0
2, 45060, Note_on_c, 0, 56, 81
2, 45120, Note_on_c, 0, 66, 0
2, 45120, Note_on_c, 0, 36, 0
2, 45120, Note_on_c, 0, 56, 0
2, 45120, Note_on_c, 0, 63, 0
2, 45120, Note_on_c, 0, 49, 81
2, 45120, Note_on_c, 0, 65, 76
2, 45120, Note_on_c, 0, 61, 76
2, 45120, Note_on_c, 0, 37, 76
2, 45180, Note_on_c, 0, 49, 0
2, 45180, Channel_aftertouch_c, 0, 91
2, 45180, Note_on_c, 0, 80, 71
2, 45180, Note_on_c, 0, 56, 71
2, 45240, Note_on_c, 0, 80, 0
2, 45240, Note_on_c, 0, 56, 0
2, 45240, Note_on_c, 0, 80, 71
2, 45240, Note_on_c, 0, 65, 71
2, 45240, Note_on_c, 0, 61, 71
2, 45300, Note_on_c, 0, 80, 0
2, 45300, Note_on_c, 0, 61, 0
2, 45300, Note_on_c, 0, 65, 0
2, 45300, Note_on_c, 0, 80, 71
2, 45300, Note_on_c, 0, 56, 71
2, 45360, Note_on_c, 0, 56, 0
2, 45360, Note_on_c, 0, 65, 0
2, 45360, Note_on_c, 0, 61, 0
2, 45360, Note_on_c, 0, 37, 0
2, 45360, Note_on_c, 0, 80, 0
2, 45360, Note_on_c, 0, 56, 0
2, 45360, Note_on_c, 0, 82, 71
2, 45360, Note_on_c, 0, 53, 71
2, 45420, Note_on_c, 0, 53, 0
2, 45420, Note_on_c, 0, 82, 0
2, 45420, Note_on_c, 0, 80, 71
2, 45420, Note_on_c, 0, 56, 71
2, 45480, Note_on_c, 0, 56, 0
2, 45480, Note_on_c, 0, 80, 0
2, 45480, Note_on_c, 0, 78, 71
2, 45480, Note_on_c, 0, 65, 71
2, 45480, Note_on_c, 0, 61, 71
2, 45540, Note_on_c, 0, 61, 0
2, 45540, Note_on_c, 0, 65, 0
2, 45540, Note_on_c, 0, 78, 0
2, 45540, Note_on_c, 0, 77, 71
2, 45540, Note_on_c, 0, 56, 71
2, 45600, Note_on_c, 0, 56, 0
2, 45600, Note_on_c, 0, 77, 0
2, 45600, Note_on_c, 0, 74, 71
2, 45600, Note_on_c, 0, 54, 71
2, 45660, Note_on_c, 0, 54, 0
2, 45660, Note_on_c, 0, 74, 0
2, 45660, Note_on_c, 0, 75, 71
2, 45660, Note_on_c, 0, 58, 71
2, 45720, Note_on_c, 0, 58, 0
2, 45720, Note_on_c, 0, 75, 0
2, 45720, Note_on_c, 0, 78, 71
2, 45720, Note_on_c, 0, 63, 71
2, 45720, Note_on_c, 0, 61, 71
2, 45780, Note_on_c, 0, 61, 0
2, 45780, Note_on_c, 0, 63, 0
2, 45780, Note_on_c, 0, 78, 0
2, 45780, Note_on_c, 0, 82, 71
2, 45780, Note_on_c, 0, 58, 71
2, 45840, Note_on_c, 0, 58, 0
2, 45840, Note_on_c, 0, 82, 0
2, 45840, Note_on_c, 0, 85, 71
2, 45840, Note_on_c, 0, 51, 71
2, 45900, Note_on_c, 0, 51, 0
2, 45900, Note_on_c, 0, 85, 0
2, 45900, Note_on_c, 0, 82, 71
2, 45900, Note_on_c, 0, 58, 71
2, 45960, Note_on_c, 0, 58, 0
2, 45960, Note_on_c, 0, 82, 0
2, 45960, Note_on_c, 0, 78, 71
2, 45960, Note_on_c, 0, 66, 71
2, 45960, Note_on_c, 0, 63, 71
2, 46020, Note_on_c, 0, 78, 0
2, 46020, Note_on_c, 0, 75, 71
2, 46080, Note_on_c, 0, 75, 0
2, 46080, Note_on_c, 0, 63, 0
2, 46080, Note_on_c, 0, 66, 0
2, 46080, Note_on_c, 0, 73, 73
2, 46140, Note_on_c, 0, 56, 73
2, 46200, Note_on_c, 0, 56, 0
2, 46200, Note_on_c, 0, 73, 0
2, 46200, Note_on_c, 0, 65, 73
2, 46200, Note_on_c, 0, 61, 73
2, 46260, Note_on_c, 0, 74, 73
2, 46320, Note_on_c, 0, 74, 0
2, 46320, Note_on_c, 0, 61, 0
2, 46320, Note_on_c, 0, 65, 0
2, 46320, Note_on_c, 0, 75, 79
2, 46380, Note_on_c, 0, 56, 79
2, 46440, Note_on_c, 0, 56, 0
2, 46440, Note_on_c, 0, 75, 0
2, 46440, Note_on_c, 0, 66, 79
2, 46440, Note_on_c, 0, 60, 76
2, 46440, Note_on_c, 0, 66, 71
2, 46440, Note_on_c, 0, 60, 71
2, 46440, Note_on_c, 0, 56, 71
2, 46440, Note_on_c, 0, 44, 71
2, 46440, Note_on_c, 0, 32, 76
2, 46500, Note_on_c, 0, 76, 79
2, 46560, Note_on_c, 0, 76, 0
2, 46560, Note_on_c, 0, 66, 0
2, 46560, Note_on_c, 0, 56, 0
2, 46560, Note_on_c, 0, 60, 0
2, 46560, Note_on_c, 0, 66, 0
2, 46560, Note_on_c, 0, 60, 0
2, 46560, Note_on_c, 0, 44, 0
2, 46560, Note_on_c, 0, 32, 0
2, 46560, Note_on_c, 0, 77, 84
2, 46560, Note_on_c, 0, 65, 71
2, 46560, Note_on_c, 0, 61, 71
2, 46560, Note_on_c, 0, 56, 71
2, 46560, Note_on_c, 0, 37, 71
2, 46560, Note_on_c, 0, 49, 84
2, 46620, Note_on_c, 0, 37, 0
2, 46620, Note_on_c, 0, 56, 0
2, 46620, Note_on_c, 0, 61, 0
2, 46620, Note_on_c, 0, 65, 0
2, 46620, Note_on_c, 0, 68, 79
2, 46620, Note_on_c, 0, 65, 79
2, 46620, Note_on_c, 0, 61, 79
2, 46620, Note_on_c, 0, 56, 79
2, 46680, Note_on_c, 0, 56, 0
2, 46680, Note_on_c, 0, 77, 0
2, 46680, Note_on_c, 0, 68, 0
2, 46680, Note_on_c, 0, 49, 0
2, 46680, Note_on_c, 0, 61, 0
2, 46680, Note_on_c, 0, 65, 0
2, 46680, Note_on_c, 0, 73, 79
2, 46680, Note_on_c, 0, 68, 71
2, 46680, Note_on_c, 0, 61, 71
2, 46680, Note_on_c, 0, 56, 71
2, 46680, Note_on_c, 0, 53, 71
2, 46680, Note_on_c, 0, 53, 79
2, 46680, Note_on_c, 0, 41, 71
2, 46740, Note_on_c, 0, 41, 0
2, 46740, Note_on_c, 0, 68, 0
2, 46740, Note_on_c, 0, 56, 0
2, 46740, Note_on_c, 0, 61, 0
2, 46740, Note_on_c, 0, 53, 0
2, 46740, Note_on_c, 0, 68, 79
2, 46740, Note_on_c, 0, 65, 79
2, 46740, Note_on_c, 0, 61, 79
2, 46740, Note_on_c, 0, 56, 79
2, 46800, Note_on_c, 0, 56, 0
2, 46800, Note_on_c, 0, 73, 0
2, 46800, Note_on_c, 0, 68, 0
2, 46800, Note_on_c, 0, 53, 0
2, 46800, Note_on_c, 0, 61, 0
2, 46800, Note_on_c, 0, 65, 0
2, 46800, Note_on_c, 0, 75, 79
2, 46800, Note_on_c, 0, 66, 71
2, 46800, Note_on_c, 0, 60, 71
2, 46800, Note_on_c, 0, 56, 71
2, 46800, Note_on_c, 0, 51, 71
2, 46800, Note_on_c, 0, 51, 79
2, 46800, Note_on_c, 0, 39, 71
2, 46860, Note_on_c, 0, 39, 0
2, 46860, Note_on_c, 0, 66, 0
2, 46860, Note_on_c, 0, 56, 0
2, 46860, Note_on_c, 0, 60, 0
2, 46860, Note_on_c, 0, 51, 0
2, 46860, Note_on_c, 0, 68, 79
2, 46860, Note_on_c, 0, 66, 79
2, 46860, Note_on_c, 0, 60, 79
2, 46860, Note_on_c, 0, 56, 79
2, 46920, Note_on_c, 0, 56, 0
2, 46920, Note_on_c, 0, 75, 0
2, 46920, Note_on_c, 0, 68, 0
2, 46920, Note_on_c, 0, 51, 0
2, 46920, Note_on_c, 0, 60, 0
2, 46920, Note_on_c, 0, 66, 0
2, 46920, Note_on_c, 0, 77, 79
2, 46920, Note_on_c, 0, 65, 71
2, 46920, Note_on_c, 0, 61, 71
2, 46920, Note_on_c, 0, 56, 71
2, 46920, Note_on_c, 0, 49, 71
2, 46920, Note_on_c, 0, 49, 79
2, 46920, Note_on_c, 0, 37, 71
2, 46980, Note_on_c, 0, 37, 0
2, 46980, Note_on_c, 0, 65, 0
2, 46980, Note_on_c, 0, 56, 0
2, 46980, Note_on_c, 0, 61, 0
2, 46980, Note_on_c, 0, 49, 0
2, 46980, Note_on_c, 0, 68, 79
2, 46980, Note_on_c, 0, 65, 79
2, 46980, Note_on_c, 0, 61, 79
2, 46980, Note_on_c, 0, 56, 79
2, 47040, Note_on_c, 0, 56, 0
2, 47040, Note_on_c, 0, 77, 0
2, 47040, Note_on_c, 0, 68, 0
2, 47040, Note_on_c, 0, 49, 0
2, 47040, Note_on_c, 0, 61, 0
2, 47040, Note_on_c, 0, 65, 0
2, 47040, Note_on_c, 0, 77, 79
2, 47040, Note_on_c, 0, 42, 79
2, 47040, Note_on_c, 0, 70, 71
2, 47040, Note_on_c, 0, 61, 71
2, 47040, Note_on_c, 0, 58, 71
2, 47040, Note_on_c, 0, 30, 71
2, 47100, Note_on_c, 0, 42, 0
2, 47100, Note_on_c, 0, 70, 79
2, 47100, Note_on_c, 0, 66, 79
2, 47100, Note_on_c, 0, 63, 79
2, 47100, Note_on_c, 0, 58, 79
2, 47160, Note_on_c, 0, 63, 0
2, 47160, Note_on_c, 0, 66, 0
2, 47160, Note_on_c, 0, 58, 0
2, 47160, Note_on_c, 0, 70, 0
2, 47160, Note_on_c, 0, 70, 79
2, 47160, Note_on_c, 0, 66, 79
2, 47160, Note_on_c, 0, 63, 79
2, 47160, Note_on_c, 0, 58, 79
2, 47220, Note_on_c, 0, 63, 0
2, 47220, Note_on_c, 0, 66, 0
2, 47220, Note_on_c, 0, 58, 0
2, 47220, Note_on_c, 0, 70, 0
2, 47220, Note_on_c, 0, 70, 79
2, 47220, Note_on_c, 0, 66, 79
2, 47220, Note_on_c, 0, 63, 79
2, 47220, Note_on_c, 0, 58, 79
2, 47280, Note_on_c, 0, 58, 0
2, 47280, Note_on_c, 0, 77, 0
2, 47280, Note_on_c, 0, 58, 0
2, 47280, Note_on_c, 0, 70, 0
2, 47280, Note_on_c, 0, 30, 0
2, 47280, Note_on_c, 0, 61, 0
2, 47280, Note_on_c, 0, 66, 0
2, 47280, Note_on_c, 0, 70, 0
2, 47280, Note_on_c, 0, 63, 0
2, 47280, Note_on_c, 0, 75, 79
2, 47280, Note_on_c, 0, 54, 79
2, 47340, Note_on_c, 0, 54, 0
2, 47340, Note_on_c, 0, 70, 79
2, 47340, Note_on_c, 0, 66, 79
2, 47340, Note_on_c, 0, 63, 79
2, 47340, Note_on_c, 0, 58, 79
2, 47400, Note_on_c, 0, 58, 0
2, 47400, Note_on_c, 0, 66, 0
2, 47400, Note_on_c, 0, 75, 0
2, 47400, Note_on_c, 0, 70, 0
2, 47400, Note_on_c, 0, 63, 0
2, 47400, Note_on_c, 0, 70, 79
2, 47400, Note_on_c, 0, 66, 79
2, 47400, Note_on_c, 0, 63, 79
2, 47400, Note_on_c, 0, 58, 79
2, 47400, Note_on_c, 0, 70, 79
2, 47400, Note_on_c, 0, 63, 71
2, 47400, Note_on_c, 0, 61, 71
2, 47400, Note_on_c, 0, 54, 71
2, 47400, Note_on_c, 0, 42, 71
2, 47460, Note_on_c, 0, 58, 0
2, 47460, Note_on_c, 0, 63, 0
2, 47460, Note_on_c, 0, 70, 0
2, 47460, Note_on_c, 0, 66, 0
2, 47460, Note_on_c, 0, 70, 79
2, 47460, Note_on_c, 0, 66, 79
2, 47460, Note_on_c, 0, 63, 79
2, 47460, Note_on_c, 0, 58, 79
2, 47520, Note_on_c, 0, 58, 0
2, 47520, Note_on_c, 0, 66, 0
2, 47520, Note_on_c, 0, 70, 0
2, 47520, Note_on_c, 0, 63, 0
2, 47520, Channel_aftertouch_c, 0, 91
2, 47520, Note_on_c, 0, 54, 79
2, 47580, Note_on_c, 0, 70, 0
2, 47580, Note_on_c, 0, 61, 0
2, 47580, Note_on_c, 0, 54, 0
2, 47580, Note_on_c, 0, 63, 0
2, 47580, Note_on_c, 0, 42, 0
2, 47580, Note_on_c, 0, 70, 79
2, 47580, Note_on_c, 0, 66, 79
2, 47580, Note_on_c, 0, 63, 79
2, 47580, Note_on_c, 0, 58, 79
2, 47640, Note_on_c, 0, 58, 0
2, 47640, Note_on_c, 0, 66, 0
2, 47640, Note_on_c, 0, 54, 0
2, 47640, Note_on_c, 0, 70, 0
2, 47640, Note_on_c, 0, 63, 0
2, 47640, Note_on_c, 0, 75, 79
2, 47640, Note_on_c, 0, 54, 79
2, 47640, Note_on_c, 0, 63, 71
2, 47640, Note_on_c, 0, 58, 71
2, 47640, Note_on_c, 0, 54, 71
2, 47640, Note_on_c, 0, 42, 71
2, 47700, Note_on_c, 0, 42, 0
2, 47700, Note_on_c, 0, 54, 0
2, 47700, Note_on_c, 0, 63, 0
2, 47700, Note_on_c, 0, 58, 0
2, 47700, Note_on_c, 0, 70, 79
2, 47700, Note_on_c, 0, 66, 79
2, 47700, Note_on_c, 0, 63, 79
2, 47700, Note_on_c, 0, 58, 79
2, 47760, Note_on_c, 0, 58, 0
2, 47760, Note_on_c, 0, 75, 0
2, 47760, Note_on_c, 0, 70, 0
2, 47760, Note_on_c, 0, 54, 0
2, 47760, Note_on_c, 0, 63, 0
2, 47760, Note_on_c, 0, 66, 0
2, 47760, Note_on_c, 0, 77, 81
2, 47760, Note_on_c, 0, 53, 81
2, 47760, Note_on_c, 0, 65, 71
2, 47760, Note_on_c, 0, 62, 71
2, 47760, Note_on_c, 0, 58, 71
2, 47760, Note_on_c, 0, 53, 71
2, 47760, Note_on_c, 0, 41, 71
2, 47820, Note_on_c, 0, 41, 0
2, 47820, Note_on_c, 0, 53, 0
2, 47820, Note_on_c, 0, 62, 0
2, 47820, Note_on_c, 0, 65, 0
2, 47820, Note_on_c, 0, 58, 0
2, 47820, Note_on_c, 0, 70, 81
2, 47820, Note_on_c, 0, 68, 81
2, 47820, Note_on_c, 0, 62, 81
2, 47820, Note_on_c, 0, 58, 81
2, 47880, Note_on_c, 0, 58, 0
2, 47880, Note_on_c, 0, 77, 0
2, 47880, Note_on_c, 0, 70, 0
2, 47880, Note_on_c, 0, 53, 0
2, 47880, Note_on_c, 0, 62, 0
2, 47880, Note_on_c, 0, 68, 0
2, 47880, Note_on_c, 0, 78, 84
2, 47880, Note_on_c, 0, 51, 84
2, 47880, Note_on_c, 0, 66, 71
2, 47880, Note_on_c, 0, 63, 71
2, 47880, Note_on_c, 0, 58, 71
2, 47880, Note_on_c, 0, 51, 71
2, 47880, Note_on_c, 0, 39, 71
2, 47940, Note_on_c, 0, 39, 0
2, 47940, Note_on_c, 0, 51, 0
2, 47940, Note_on_c, 0, 63, 0
2, 47940, Note_on_c, 0, 66, 0
2, 47940, Note_on_c, 0, 58, 0
2, 47940, Note_on_c, 0, 70, 84
2, 47940, Note_on_c, 0, 66, 84
2, 47940, Note_on_c, 0, 63, 84
2, 47940, Note_on_c, 0, 58, 84
2, 48000, Note_on_c, 0, 58, 0
2, 48000, Note_on_c, 0, 78, 0
2, 48000, Note_on_c, 0, 70, 0
2, 48000, Note_on_c, 0, 51, 0
2, 48000, Note_on_c, 0, 63, 0
2, 48000, Note_on_c, 0, 66, 0
2, 48000, Channel_aftertouch_c, 0, 104
2, 48000, Note_on_c, 0, 82, 84
2, 48000, Note_on_c, 0, 48, 84
2, 48000, Note_on_c, 0, 66, 71
2, 48000, Note_on_c, 0, 63, 71
2, 48000, Note_on_c, 0, 56, 71
2, 48000, Note_on_c, 0, 36, 71
2, 48060, Note_on_c, 0, 48, 0
2, 48060, Note_on_c, 0, 75, 84
2, 48060, Note_on_c, 0, 68, 84
2, 48060, Note_on_c, 0, 66, 84
2, 48060, Note_on_c, 0, 56, 71
2, 48120, Note_on_c, 0, 68, 0
2, 48120, Note_on_c, 0, 75, 0
2, 48120, Note_on_c, 0, 66, 0
2, 48120, Note_on_c, 0, 56, 0
2, 48120, Note_on_c, 0, 75, 84
2, 48120, Note_on_c, 0, 68, 84
2, 48120, Note_on_c, 0, 66, 84
2, 48120, Note_on_c, 0, 56, 71
2, 48180, Note_on_c, 0, 68, 0
2, 48180, Note_on_c, 0, 66, 0
2, 48180, Note_on_c, 0, 75, 0
2, 48180, Note_on_c, 0, 56, 0
2, 48180, Note_on_c, 0, 75, 84
2, 48180, Note_on_c, 0, 68, 84
2, 48180, Note_on_c, 0, 66, 84
2, 48180, Note_on_c, 0, 56, 71
2, 48240, Note_on_c, 0, 56, 0
2, 48240, Note_on_c, 0, 66, 0
2, 48240, Note_on_c, 0, 56, 0
2, 48240, Note_on_c, 0, 82, 0
2, 48240, Note_on_c, 0, 36, 0
2, 48240, Note_on_c, 0, 63, 0
2, 48240, Note_on_c, 0, 68, 0
2, 48240, Note_on_c, 0, 75, 0
2, 48240, Note_on_c, 0, 66, 0
2, 48240, Note_on_c, 0, 80, 84
2, 48240, Note_on_c, 0, 66, 84
2, 48240, Note_on_c, 0, 56, 71
2, 48300, Note_on_c, 0, 56, 0
2, 48300, Note_on_c, 0, 66, 0
2, 48300, Note_on_c, 0, 75, 84
2, 48300, Note_on_c, 0, 68, 84
2, 48300, Note_on_c, 0, 66, 84
2, 48300, Note_on_c, 0, 56, 71
2, 48360, Note_on_c, 0, 56, 0
2, 48360, Note_on_c, 0, 68, 0
2, 48360, Note_on_c, 0, 80, 0
2, 48360, Note_on_c, 0, 75, 0
2, 48360, Note_on_c, 0, 66, 0
2, 48360, Note_on_c, 0, 75, 84
2, 48360, Note_on_c, 0, 68, 84
2, 48360, Note_on_c, 0, 66, 84
2, 48360, Note_on_c, 0, 56, 84
2, 48360, Note_on_c, 0, 66, 71
2, 48360, Note_on_c, 0, 63, 71
2, 48360, Note_on_c, 0, 56, 71
2, 48360, Note_on_c, 0, 48, 71
2, 48360, Note_on_c, 0, 36, 71
2, 48420, Note_on_c, 0, 56, 0
2, 48420, Note_on_c, 0, 66, 0
2, 48420, Note_on_c, 0, 75, 0
2, 48420, Note_on_c, 0, 68, 0
2, 48420, Note_on_c, 0, 80, 84
2, 48420, Note_on_c, 0, 66, 84
2, 48420, Note_on_c, 0, 56, 84
2, 48480, Note_on_c, 0, 66, 0
2, 48480, Note_on_c, 0, 48, 0
2, 48480, Note_on_c, 0, 63, 0
2, 48480, Note_on_c, 0, 56, 0
2, 48480, Note_on_c, 0, 66, 0
2, 48480, Note_on_c, 0, 36, 0
2, 48480, Note_on_c, 0, 80, 0
2, 48480, Note_on_c, 0, 82, 86
2, 48480, Note_on_c, 0, 49, 86
2, 48480, Note_on_c, 0, 65, 71
2, 48480, Note_on_c, 0, 58, 71
2, 48480, Note_on_c, 0, 49, 71
2, 48480, Note_on_c, 0, 37, 71
2, 48540, Note_on_c, 0, 49, 0
2, 48540, Note_on_c, 0, 82, 0
2, 48540, Note_on_c, 0, 80, 84
2, 48540, Note_on_c, 0, 65, 84
2, 48540, Note_on_c, 0, 61, 84
2, 48540, Note_on_c, 0, 56, 84
2, 48600, Note_on_c, 0, 56, 0
2, 48600, Note_on_c, 0, 58, 0
2, 48600, Note_on_c, 0, 56, 0
2, 48600, Note_on_c, 0, 49, 0
2, 48600, Note_on_c, 0, 37, 0
2, 48600, Note_on_c, 0, 65, 0
2, 48600, Note_on_c, 0, 65, 0
2, 48600, Note_on_c, 0, 80, 0
2, 48600, Note_on_c, 0, 61, 0
2, 48600, Note_on_c, 0, 78, 84
2, 48600, Note_on_c, 0, 65, 84
2, 48600, Note_on_c, 0, 61, 84
2, 48600, Note_on_c, 0, 56, 84
2, 48660, Note_on_c, 0, 56, 0
2, 48660, Note_on_c, 0, 78, 0
2, 48660, Note_on_c, 0, 65, 0
2, 48660, Note_on_c, 0, 61, 0
2, 48660, Note_on_c, 0, 77, 84
2, 48660, Note_on_c, 0, 65, 84
2, 48660, Note_on_c, 0, 61, 84
2, 48660, Note_on_c, 0, 56, 84
2, 48720, Note_on_c, 0, 56, 0
2, 48720, Note_on_c, 0, 77, 0
2, 48720, Note_on_c, 0, 65, 0
2, 48720, Note_on_c, 0, 61, 0
2, 48720, Note_on_c, 0, 77, 84
2, 48720, Note_on_c, 0, 54, 84
2, 48720, Note_on_c, 0, 54, 71
2, 48780, Note_on_c, 0, 54, 0
2, 48780, Note_on_c, 0, 77, 0
2, 48780, Note_on_c, 0, 75, 84
2, 48780, Note_on_c, 0, 63, 84
2, 48780, Note_on_c, 0, 61, 84
2, 48780, Note_on_c, 0, 56, 84
2, 48840, Note_on_c, 0, 56, 0
2, 48840, Note_on_c, 0, 63, 0
2, 48840, Note_on_c, 0, 61, 0
2, 48840, Note_on_c, 0, 75, 0
2, 48840, Note_on_c, 0, 73, 84
2, 48840, Note_on_c, 0, 63, 84
2, 48840, Note_on_c, 0, 61, 84
2, 48840, Note_on_c, 0, 56, 84
2, 48900, Note_on_c, 0, 56, 0
2, 48900, Note_on_c, 0, 63, 0
2, 48900, Note_on_c, 0, 61, 0
2, 48900, Note_on_c, 0, 73, 0
2, 48900, Note_on_c, 0, 72, 84
2, 48900, Note_on_c, 0, 63, 84
2, 48900, Note_on_c, 0, 61, 84
2, 48900, Note_on_c, 0, 56, 84
2, 48960, Note_on_c, 0, 56, 0
2, 48960, Note_on_c, 0, 63, 0
2, 48960, Note_on_c, 0, 54, 0
2, 48960, Note_on_c, 0, 72, 0
2, 48960, Note_on_c, 0, 61, 0
2, 48960, Note_on_c, 0, 75, 84
2, 48960, Note_on_c, 0, 53, 84
2, 48960, Note_on_c, 0, 53, 84
2, 49020, Note_on_c, 0, 53, 0
2, 49020, Note_on_c, 0, 75, 0
2, 49020, Note_on_c, 0, 73, 84
2, 49020, Note_on_c, 0, 61, 84
2, 49020, Note_on_c, 0, 56, 84
2, 49080, Note_on_c, 0, 56, 0
2, 49080, Note_on_c, 0, 53, 0
2, 49080, Note_on_c, 0, 73, 0
2, 49080, Note_on_c, 0, 61, 0
2, 49080, Note_on_c, 0, 77, 84
2, 49080, Note_on_c, 0, 61, 84
2, 49080, Note_on_c, 0, 56, 84
2, 49140, Note_on_c, 0, 56, 0
2, 49140, Note_on_c, 0, 61, 0
2, 49140, Note_on_c, 0, 77, 0
2, 49140, Note_on_c, 0, 73, 84
2, 49140, Note_on_c, 0, 61, 84
2, 49140, Note_on_c, 0, 56, 84
2, 49200, Note_on_c, 0, 56, 0
2, 49200, Note_on_c, 0, 61, 0
2, 49200, Note_on_c, 0, 73, 0
2, 49200, Note_on_c, 0, 68, 84
2, 49200, Note_on_c, 0, 48, 84
2, 49260, Note_on_c, 0, 48, 0
2, 49260, Note_on_c, 0, 66, 84
2, 49260, Note_on_c, 0, 63, 84
2, 49260, Note_on_c, 0, 56, 84
2, 49320, Note_on_c, 0, 56, 0
2, 49320, Note_on_c, 0, 68, 0
2, 49320, Note_on_c, 0, 66, 0
2, 49320, Note_on_c, 0, 63, 0
2, 49320, Note_on_c, 0, 66, 84
2, 49320, Note_on_c, 0, 63, 84
2, 49320, Note_on_c, 0, 56, 84
2, 49380, Note_on_c, 0, 56, 0
2, 49380, Note_on_c, 0, 63, 0
2, 49380, Note_on_c, 0, 66, 0
2, 49380, Note_on_c, 0, 80, 84
2, 49380, Note_on_c, 0, 66, 84
2, 49380, Note_on_c, 0, 63, 84
2, 49380, Note_on_c, 0, 56, 84
2, 49440, Note_on_c, 0, 56, 0
2, 49440, Note_on_c, 0, 80, 0
2, 49440, Note_on_c, 0, 66, 0
2, 49440, Note_on_c, 0, 63, 0
2, 49440, Channel_aftertouch_c, 0, 104
2, 49440, Note_on_c, 0, 82, 84
2, 49440, Note_on_c, 0, 49, 84
2, 49500, Note_on_c, 0, 49, 0
2, 49500, Note_on_c, 0, 82, 0
2, 49500, Note_on_c, 0, 80, 84
2, 49500, Note_on_c, 0, 65, 84
2, 49500, Note_on_c, 0, 61, 84
2, 49500, Note_on_c, 0, 56, 84
2, 49560, Note_on_c, 0, 56, 0
2, 49560, Note_on_c, 0, 80, 0
2, 49560, Note_on_c, 0, 65, 0
2, 49560, Note_on_c, 0, 61, 0
2, 49560, Note_on_c, 0, 78, 84
2, 49560, Note_on_c, 0, 65, 84
2, 49560, Note_on_c, 0, 61, 84
2, 49560, Note_on_c, 0, 56, 84
2, 49620, Note_on_c, 0, 56, 0
2, 49620, Note_on_c, 0, 78, 0
2, 49620, Note_on_c, 0, 65, 0
2, 49620, Note_on_c, 0, 61, 0
2, 49620, Note_on_c, 0, 77, 84
2, 49620, Note_on_c, 0, 65, 84
2, 49620, Note_on_c, 0, 61, 84
2, 49620, Note_on_c, 0, 56, 84
2, 49680, Note_on_c, 0, 56, 0
2, 49680, Note_on_c, 0, 77, 0
2, 49680, Note_on_c, 0, 65, 0
2, 49680, Note_on_c, 0, 61, 0
2, 49680, Note_on_c, 0, 77, 84
2, 49680, Note_on_c, 0, 54, 84
2, 49680, Note_on_c, 0, 54, 84
2, 49740, Note_on_c, 0, 54, 0
2, 49740, Note_on_c, 0, 77, 0
2, 49740, Note_on_c, 0, 75, 84
2, 49740, Note_on_c, 0, 63, 84
2, 49740, Note_on_c, 0, 61, 84
2, 49740, Note_on_c, 0, 56, 84
2, 49800, Note_on_c, 0, 56, 0
2, 49800, Note_on_c, 0, 63, 0
2, 49800, Note_on_c, 0, 61, 0
2, 49800, Note_on_c, 0, 75, 0
2, 49800, Note_on_c, 0, 73, 84
2, 49800, Note_on_c, 0, 63, 84
2, 49800, Note_on_c, 0, 61, 84
2, 49800, Note_on_c, 0, 56, 84
2, 49860, Note_on_c, 0, 56, 0
2, 49860, Note_on_c, 0, 63, 0
2, 49860, Note_on_c, 0, 61, 0
2, 49860, Note_on_c, 0, 73, 0
2, 49860, Note_on_c, 0, 72, 84
2, 49860, Note_on_c, 0, 63, 84
2, 49860, Note_on_c, 0, 61, 84
2, 49860, Note_on_c, 0, 56, 84
2, 49920, Note_on_c, 0, 56, 0
2, 49920, Note_on_c, 0, 63, 0
2, 49920, Note_on_c, 0, 54, 0
2, 49920, Note_on_c, 0, 72, 0
2, 49920, Note_on_c, 0, 61, 0
2, 49920, Note_on_c, 0, 75, 84
2, 49920, Note_on_c, 0, 53, 84
2, 49920, Note_on_c, 0, 53, 84
2, 49980, Note_on_c, 0, 53, 0
2, 49980, Note_on_c, 0, 75, 0
2, 49980, Note_on_c, 0, 73, 84
2, 49980, Note_on_c, 0, 61, 84
2, 49980, Note_on_c, 0, 56, 84
2, 50040, Note_on_c, 0, 56, 0
2, 50040, Note_on_c, 0, 53, 0
2, 50040, Note_on_c, 0, 73, 0
2, 50040, Note_on_c, 0, 61, 0
2, 50040, Note_on_c, 0, 77, 84
2, 50040, Note_on_c, 0, 61, 84
2, 50040, Note_on_c, 0, 56, 84
2, 50100, Note_on_c, 0, 56, 0
2, 50100, Note_on_c, 0, 61, 0
2, 50100, Note_on_c, 0, 77, 0
2, 50100, Note_on_c, 0, 73, 84
2, 50100, Note_on_c, 0, 61, 84
2, 50100, Note_on_c, 0, 56, 84
2, 50160, Note_on_c, 0, 56, 0
2, 50160, Note_on_c, 0, 61, 0
2, 50160, Note_on_c, 0, 73, 0
2, 50160, Note_on_c, 0, 68, 84
2, 50160, Note_on_c, 0, 48, 84
2, 50220, Note_on_c, 0, 48, 0
2, 50220, Note_on_c, 0, 66, 84
2, 50220, Note_on_c, 0, 63, 84
2, 50220, Note_on_c, 0, 56, 84
2, 50280, Note_on_c, 0, 56, 0
2, 50280, Note_on_c, 0, 68, 0
2, 50280, Note_on_c, 0, 66, 0
2, 50280, Note_on_c, 0, 63, 0
2, 50280, Note_on_c, 0, 66, 84
2, 50280, Note_on_c, 0, 63, 84
2, 50280, Note_on_c, 0, 56, 84
2, 50340, Note_on_c, 0, 56, 0
2, 50340, Note_on_c, 0, 63, 0
2, 50340, Note_on_c, 0, 66, 0
2, 50340, Note_on_c, 0, 80, 84
2, 50340, Note_on_c, 0, 66, 84
2, 50340, Note_on_c, 0, 63, 84
2, 50340, Note_on_c, 0, 56, 84
2, 50400, Note_on_c, 0, 56, 0
2, 50400, Note_on_c, 0, 80, 0
2, 50400, Note_on_c, 0, 66, 0
2, 50400, Note_on_c, 0, 63, 0
2, 50400, Note_on_c, 0, 82, 84
2, 50400, Note_on_c, 0, 49, 84
2, 50460, Note_on_c, 0, 49, 0
2, 50460, Note_on_c, 0, 82, 0
2, 50460, Note_on_c, 0, 80, 84
2, 50460, Note_on_c, 0, 65, 84
2, 50460, Note_on_c, 0, 61, 84
2, 50460, Note_on_c, 0, 56, 84
2, 50520, Note_on_c, 0, 56, 0
2, 50520, Note_on_c, 0, 80, 0
2, 50520, Note_on_c, 0, 65, 0
2, 50520, Note_on_c, 0, 61, 0
2, 50520, Note_on_c, 0, 78, 84
2, 50520, Note_on_c, 0, 65, 84
2, 50520, Note_on_c, 0, 61, 84
2, 50520, Note_on_c, 0, 56, 84
2, 50580, Note_on_c, 0, 56, 0
2, 50580, Note_on_c, 0, 78, 0
2, 50580, Note_on_c, 0, 65, 0
2, 50580, Note_on_c, 0, 61, 0
2, 50580, Note_on_c, 0, 77, 84
2, 50580, Note_on_c, 0, 65, 84
2, 50580, Note_on_c, 0, 61, 84
2, 50580, Note_on_c, 0, 56, 84
2, 50640, Note_on_c, 0, 56, 0
2, 50640, Note_on_c, 0, 77, 0
2, 50640, Note_on_c, 0, 65, 0
2, 50640, Note_on_c, 0, 61, 0
2, 50640, Note_on_c, 0, 80, 84
2, 50640, Note_on_c, 0, 53, 84
2, 50700, Note_on_c, 0, 53, 0
2, 50700, Note_on_c, 0, 80, 0
2, 50700, Note_on_c, 0, 77, 84
2, 50700, Note_on_c, 0, 62, 84
2, 50700, Note_on_c, 0, 59, 84
2, 50700, Note_on_c, 0, 56, 84
2, 50760, Note_on_c, 0, 56, 0
2, 50760, Note_on_c, 0, 77, 0
2, 50760, Note_on_c, 0, 62, 0
2, 50760, Note_on_c, 0, 59, 0
2, 50760, Note_on_c, 0, 75, 84
2, 50760, Note_on_c, 0, 62, 84
2, 50760, Note_on_c, 0, 59, 84
2, 50760, Note_on_c, 0, 56, 84
2, 50820, Note_on_c, 0, 56, 0
2, 50820, Note_on_c, 0, 75, 0
2, 50820, Note_on_c, 0, 62, 0
2, 50820, Note_on_c, 0, 59, 0
2, 50820, Note_on_c, 0, 74, 84
2, 50820, Note_on_c, 0, 62, 84
2, 50820, Note_on_c, 0, 59, 84
2, 50820, Note_on_c, 0, 56, 84
2, 50880, Note_on_c, 0, 56, 0
2, 50880, Note_on_c, 0, 74, 0
2, 50880, Note_on_c, 0, 62, 0
2, 50880, Note_on_c, 0, 59, 0
2, 50880, Note_on_c, 0, 74, 84
2, 50880, Note_on_c, 0, 63, 84
2, 50880, Note_on_c, 0, 61, 84
2, 50880, Note_on_c, 0, 58, 84
2, 50880, Note_on_c, 0, 54, 84
2, 50940, Note_on_c, 0, 74, 0
2, 50940, Note_on_c, 0, 75, 84
2, 51000, Note_on_c, 0, 75, 0
2, 51000, Note_on_c, 0, 54, 0
2, 51000, Note_on_c, 0, 63, 0
2, 51000, Note_on_c, 0, 61, 0
2, 51000, Note_on_c, 0, 58, 0
2, 51000, Note_on_c, 0, 78, 87
2, 51060, Note_on_c, 0, 78, 0
2, 51060, Note_on_c, 0, 82, 91
2, 51120, Note_on_c, 0, 82, 0
2, 51120, Channel_aftertouch_c, 0, 114
2, 51120, Note_on_c, 0, 85, 94
2, 51180, Note_on_c, 0, 63, 94
2, 51180, Note_on_c, 0, 61, 94
2, 51180, Note_on_c, 0, 58, 94
2, 51180, Note_on_c, 0, 54, 94
2, 51240, Note_on_c, 0, 54, 0
2, 51240, Note_on_c, 0, 61, 0
2, 51240, Note_on_c, 0, 85, 0
2, 51240, Note_on_c, 0, 63, 0
2, 51240, Note_on_c, 0, 58, 0
2, 51240, Note_on_c, 0, 75, 87
2, 51240, Note_on_c, 0, 63, 87
2, 51240, Note_on_c, 0, 61, 87
2, 51240, Note_on_c, 0, 58, 87
2, 51240, Note_on_c, 0, 54, 87
2, 51300, Note_on_c, 0, 54, 0
2, 51300, Note_on_c, 0, 61, 0
2, 51300, Note_on_c, 0, 75, 0
2, 51300, Note_on_c, 0, 63, 0
2, 51300, Note_on_c, 0, 58, 0
2, 51300, Note_on_c, 0, 63, 84
2, 51300, Note_on_c, 0, 61, 84
2, 51300, Note_on_c, 0, 58, 84
2, 51300, Note_on_c, 0, 54, 84
2, 51360, Note_on_c, 0, 54, 0
2, 51360, Note_on_c, 0, 63, 0
2, 51360, Note_on_c, 0, 61, 0
2, 51360, Note_on_c, 0, 58, 0
2, 51360, Note_on_c, 0, 63, 84
2, 51360, Note_on_c, 0, 61, 84
2, 51360, Note_on_c, 0, 58, 84
2, 51360, Note_on_c, 0, 54, 84
2, 51360, Note_on_c, 0, 73, 71
2, 51360, Note_on_c, 0, 61, 71
2, 51420, Note_on_c, 0, 75, 84
2, 51480, Note_on_c, 0, 75, 0
2, 51480, Note_on_c, 0, 73, 0
2, 51480, Note_on_c, 0, 61, 0
2, 51480, Note_on_c, 0, 58, 0
2, 51480, Note_on_c, 0, 63, 0
2, 51480, Note_on_c, 0, 61, 0
2, 51480, Note_on_c, 0, 54, 0
2, 51480, Note_on_c, 0, 78, 87
2, 51480, Note_on_c, 0, 70, 71
2, 51480, Note_on_c, 0, 58, 71
2, 51540, Note_on_c, 0, 58, 0
2, 51540, Note_on_c, 0, 70, 0
2, 51540, Note_on_c, 0, 78, 0
2, 51540, Note_on_c, 0, 82, 91
2, 51600, Note_on_c, 0, 82, 0
2, 51600, Channel_aftertouch_c, 0, 114
2, 51600, Note_on_c, 0, 85, 94
2, 51660, Note_on_c, 0, 63, 94
2, 51660, Note_on_c, 0, 61, 94
2, 51660, Note_on_c, 0, 58, 94
2, 51660, Note_on_c, 0, 54, 94
2, 51720, Note_on_c, 0, 54, 0
2, 51720, Note_on_c, 0, 61, 0
2, 51720, Note_on_c, 0, 85, 0
2, 51720, Note_on_c, 0, 63, 0
2, 51720, Note_on_c, 0, 58, 0
2, 51720, Note_on_c, 0, 75, 87
2, 51720, Note_on_c, 0, 63, 87
2, 51720, Note_on_c, 0, 61, 87
2, 51720, Note_on_c, 0, 58, 87
2, 51720, Note_on_c, 0, 54, 87
2, 51780, Note_on_c, 0, 54, 0
2, 51780, Note_on_c, 0, 61, 0
2, 51780, Note_on_c, 0, 75, 0
2, 51780, Note_on_c, 0, 63, 0
2, 51780, Note_on_c, 0, 58, 0
2, 51780, Note_on_c, 0, 63, 84
2, 51780, Note_on_c, 0, 61, 84
2, 51780, Note_on_c, 0, 58, 84
2, 51780, Note_on_c, 0, 54, 84
2, 51840, Note_on_c, 0, 54, 0
2, 51840, Note_on_c, 0, 63, 0
2, 51840, Note_on_c, 0, 61, 0
2, 51840, Note_on_c, 0, 58, 0
2, 51840, Note_on_c, 0, 64, 84
2, 51840, Note_on_c, 0, 61, 84
2, 51840, Note_on_c, 0, 58, 84
2, 51840, Note_on_c, 0, 55, 84
2, 51840, Note_on_c, 0, 73, 81
2, 51840, Note_on_c, 0, 61, 81
2, 51900, Note_on_c, 0, 84, 84
2, 51960, Note_on_c, 0, 84, 0
2, 51960, Note_on_c, 0, 73, 0
2, 51960, Note_on_c, 0, 61, 0
2, 51960, Note_on_c, 0, 58, 0
2, 51960, Note_on_c, 0, 64, 0
2, 51960, Note_on_c, 0, 61, 0
2, 51960, Note_on_c, 0, 55, 0
2, 51960, Note_on_c, 0, 85, 87
2, 51960, Note_on_c, 0, 70, 75
2, 51960, Note_on_c, 0, 58, 75
2, 52020, Note_on_c, 0, 58, 0
2, 52020, Note_on_c, 0, 70, 0
2, 52020, Note_on_c, 0, 85, 0
2, 52020, Note_on_c, 0, 87, 91
2, 52080, Note_on_c, 0, 87, 0
2, 52080, Channel_aftertouch_c, 0, 114
2, 52080, Note_on_c, 0, 88, 94
2, 52140, Note_on_c, 0, 64, 94
2, 52140, Note_on_c, 0, 61, 94
2, 52140, Note_on_c, 0, 58, 94
2, 52140, Note_on_c, 0, 55, 94
2, 52200, Note_on_c, 0, 55, 0
2, 52200, Note_on_c, 0, 61, 0
2, 52200, Note_on_c, 0, 88, 0
2, 52200, Note_on_c, 0, 64, 0
2, 52200, Note_on_c, 0, 58, 0
2, 52200, Note_on_c, 0, 85, 87
2, 52200, Note_on_c, 0, 64, 87
2, 52200, Note_on_c, 0, 61, 87
2, 52200, Note_on_c, 0, 58, 87
2, 52200, Note_on_c, 0, 55, 87
2, 52260, Note_on_c, 0, 55, 0
2, 52260, Note_on_c, 0, 61, 0
2, 52260, Note_on_c, 0, 85, 0
2, 52260, Note_on_c, 0, 64, 0
2, 52260, Note_on_c, 0, 58, 0
2, 52260, Note_on_c, 0, 64, 84
2, 52260, Note_on_c, 0, 61, 84
2, 52260, Note_on_c, 0, 58, 84
2, 52260, Note_on_c, 0, 55, 84
2, 52320, Note_on_c, 0, 55, 0
2, 52320, Note_on_c, 0, 64, 0
2, 52320, Note_on_c, 0, 61, 0
2, 52320, Note_on_c, 0, 58, 0
2, 52320, Note_on_c, 0, 64, 84
2, 52320, Note_on_c, 0, 61, 84
2, 52320, Note_on_c, 0, 58, 84
2, 52320, Note_on_c, 0, 55, 84
2, 52320, Note_on_c, 0, 73, 81
2, 52320, Note_on_c, 0, 61, 81
2, 52380, Note_on_c, 0, 84, 84
2, 52440, Note_on_c, 0, 84, 0
2, 52440, Note_on_c, 0, 73, 0
2, 52440, Note_on_c, 0, 61, 0
2, 52440, Note_on_c, 0, 58, 0
2, 52440, Note_on_c, 0, 64, 0
2, 52440, Note_on_c, 0, 61, 0
2, 52440, Note_on_c, 0, 55, 0
2, 52440, Note_on_c, 0, 85, 87
2, 52440, Note_on_c, 0, 70, 75
2, 52440, Note_on_c, 0, 58, 75
2, 52500, Note_on_c, 0, 58, 0
2, 52500, Note_on_c, 0, 70, 0
2, 52500, Note_on_c, 0, 85, 0
2, 52500, Note_on_c, 0, 87, 91
2, 52560, Note_on_c, 0, 87, 0
2, 52560, Channel_aftertouch_c, 0, 114
2, 52560, Note_on_c, 0, 88, 94
2, 52620, Note_on_c, 0, 64, 94
2, 52620, Note_on_c, 0, 61, 94
2, 52620, Note_on_c, 0, 58, 94
2, 52620, Note_on_c, 0, 55, 94
2, 52680, Note_on_c, 0, 55, 0
2, 52680, Note_on_c, 0, 61, 0
2, 52680, Note_on_c, 0, 88, 0
2, 52680, Note_on_c, 0, 64, 0
2, 52680, Note_on_c, 0, 58, 0
2, 52680, Note_on_c, 0, 85, 87
2, 52680, Note_on_c, 0, 64, 87
2, 52680, Note_on_c, 0, 61, 87
2, 52680, Note_on_c, 0, 58, 87
2, 52680, Note_on_c, 0, 55, 87
2, 52740, Note_on_c, 0, 55, 0
2, 52740, Note_on_c, 0, 61, 0
2, 52740, Note_on_c, 0, 85, 0
2, 52740, Note_on_c, 0, 64, 0
2, 52740, Note_on_c, 0, 58, 0
2, 52740, Note_on_c, 0, 64, 84
2, 52740, Note_on_c, 0, 61, 84
2, 52740, Note_on_c, 0, 58, 84
2, 52740, Note_on_c, 0, 55, 84
2, 52800, Note_on_c, 0, 55, 0
2, 52800, Note_on_c, 0, 64, 0
2, 52800, Note_on_c, 0, 61, 0
2, 52800, Note_on_c, 0, 58, 0
2, 52800, Note_on_c, 0, 64, 84
2, 52800, Note_on_c, 0, 61, 84
2, 52800, Note_on_c, 0, 58, 84
2, 52800, Note_on_c, 0, 55, 84
2, 52800, Note_on_c, 0, 73, 87
2, 52800, Note_on_c, 0, 61, 87
2, 52860, Note_on_c, 0, 81, 84
2, 52920, Note_on_c, 0, 81, 0
2, 52920, Note_on_c, 0, 73, 0
2, 52920, Note_on_c, 0, 61, 0
2, 52920, Note_on_c, 0, 58, 0
2, 52920, Note_on_c, 0, 64, 0
2, 52920, Note_on_c, 0, 61, 0
2, 52920, Note_on_c, 0, 55, 0
2, 52920, Note_on_c, 0, 82, 86
2, 52920, Note_on_c, 0, 70, 84
2, 52920, Note_on_c, 0, 58, 84
2, 52980, Note_on_c, 0, 58, 0
2, 52980, Note_on_c, 0, 70, 0
2, 52980, Note_on_c, 0, 82, 0
2, 52980, Note_on_c, 0, 84, 86
2, 53040, Note_on_c, 0, 84, 0
2, 53040, Note_on_c, 0, 85, 89
2, 53040, Note_on_c, 0, 64, 89
2, 53040, Note_on_c, 0, 61, 89
2, 53040, Note_on_c, 0, 58, 89
2, 53040, Note_on_c, 0, 55, 89
2, 53040, Note_on_c, 0, 73, 87
2, 53040, Note_on_c, 0, 61, 87
2, 53100, Note_on_c, 0, 85, 0
2, 53100, Note_on_c, 0, 81, 89
2, 53160, Note_on_c, 0, 81, 0
2, 53160, Note_on_c, 0, 61, 0
2, 53160, Note_on_c, 0, 61, 0
2, 53160, Note_on_c, 0, 58, 0
2, 53160, Note_on_c, 0, 64, 0
2, 53160, Note_on_c, 0, 73, 0
2, 53160, Note_on_c, 0, 55, 0
2, 53160, Note_on_c, 0, 82, 91
2, 53160, Note_on_c, 0, 70, 84
2, 53160, Note_on_c, 0, 58, 84
2, 53220, Note_on_c, 0, 58, 0
2, 53220, Note_on_c, 0, 70, 0
2, 53220, Note_on_c, 0, 82, 0
2, 53220, Note_on_c, 0, 84, 91
2, 53280, Note_on_c, 0, 84, 0
2, 53280, Note_on_c, 0, 85, 91
2, 53280, Note_on_c, 0, 64, 91
2, 53280, Note_on_c, 0, 61, 91
2, 53280, Note_on_c, 0, 58, 91
2, 53280, Note_on_c, 0, 55, 91
2, 53280, Note_on_c, 0, 73, 87
2, 53280, Note_on_c, 0, 61, 87
2, 53400, Note_on_c, 0, 61, 0
2, 53400, Note_on_c, 0, 55, 0
2, 53400, Note_on_c, 0, 64, 0
2, 53400, Note_on_c, 0, 61, 0
2, 53400, Note_on_c, 0, 85, 0
2, 53400, Note_on_c, 0, 73, 0
2, 53400, Note_on_c, 0, 58, 0
2, 53400, Note_on_c, 0, 87, 94
2, 53400, Note_on_c, 0, 70, 84
2, 53400, Note_on_c, 0, 58, 84
2, 53460, Note_on_c, 0, 58, 0
2, 53460, Note_on_c, 0, 70, 0
2, 53520, Note_on_c, 0, 87, 0
2, 53520, Note_on_c, 0, 88, 96
2, 53640, Note_on_c, 0, 88, 0
2, 53640, Note_on_c, 0, 89, 100
2, 53640, Note_on_c, 0, 85, 100
2, 53640, Note_on_c, 0, 82, 100
2, 53640, Note_on_c, 0, 77, 100
2, 53640, Note_on_c, 0, 65, 100
2, 53640, Note_on_c, 0, 61, 100
2, 53640, Note_on_c, 0, 58, 100
2, 53640, Note_on_c, 0, 53, 100
2, 53760, Note_on_c, 0, 53, 0
2, 53760, Note_on_c, 0, 89, 0
2, 53760, Note_on_c, 0, 65, 0
2, 53760, Note_on_c, 0, 85, 0
2, 53760, Note_on_c, 0, 82, 0
2, 53760, Note_on_c, 0, 77, 0
2, 53760, Note_on_c, 0, 61, 0
2, 53760, Note_on_c, 0, 58, 0
2, 53760, Note_on_c, 0, 77, 100
2, 53760, Note_on_c, 0, 73, 100
2, 53760, Note_on_c, 0, 70, 100
2, 53760, Note_on_c, 0, 65, 100
2, 53760, Note_on_c, 0, 53, 100
2, 53760, Note_on_c, 0, 49, 100
2, 53760, Note_on_c, 0, 46, 100
2, 53760, Note_on_c, 0, 41, 100
2, 53760, Note_on_c, 0, 53, 84
2, 53940, Note_on_c, 0, 53, 0
2, 53940, Note_on_c, 0, 65, 0
2, 53940, Note_on_c, 0, 77, 0
2, 53940, Note_on_c, 0, 53, 0
2, 53940, Note_on_c, 0, 73, 0
2, 53940, Note_on_c, 0, 70, 0
2, 53940, Note_on_c, 0, 46, 0
2, 53940, Note_on_c, 0, 49, 0
2, 53940, Note_on_c, 0, 41, 0
2, 53940, Note_on_c, 0, 79, 100
2, 53940, Note_on_c, 0, 67, 100
2, 53940, Note_on_c, 0, 55, 100
2, 53940, Note_on_c, 0, 43, 100
2, 54000, Note_on_c, 0, 43, 0
2, 54000, Note_on_c, 0, 79, 0
2, 54000, Note_on_c, 0, 67, 0
2, 54000, Note_on_c, 0, 55, 0
2, 54000, Note_on_c, 0, 81, 100
2, 54000, Note_on_c, 0, 69, 100
2, 54000, Note_on_c, 0, 57, 100
2, 54000, Note_on_c, 0, 45, 100
2, 54060, Note_on_c, 0, 45, 0
2, 54060, Note_on_c, 0, 81, 0
2, 54060, Note_on_c, 0, 69, 0
2, 54060, Note_on_c, 0, 57, 0
2, 54060, Note_on_c, 0, 82, 100
2, 54060, Note_on_c, 0, 70, 100
2, 54060, Note_on_c, 0, 58, 100
2, 54060, Note_on_c, 0, 46, 100
2, 54120, Note_on_c, 0, 46, 0
2, 54120, Note_on_c, 0, 82, 0
2, 54120, Note_on_c, 0, 70, 0
2, 54120, Note_on_c, 0, 58, 0
2, 54120, Note_on_c, 0, 84, 100
2, 54120, Note_on_c, 0, 72, 100
2, 54120, Note_on_c, 0, 60, 100
2, 54120, Note_on_c, 0, 48, 100
2, 54180, Note_on_c, 0, 48, 0
2, 54180, Note_on_c, 0, 84, 0
2, 54180, Note_on_c, 0, 72, 0
2, 54180, Note_on_c, 0, 60, 0
2, 54180, Note_on_c, 0, 85, 100
2, 54180, Note_on_c, 0, 73, 100
2, 54180, Note_on_c, 0, 61, 100
2, 54180, Note_on_c, 0, 49, 100
2, 54240, Note_on_c, 0, 49, 0
2, 54240, Note_on_c, 0, 85, 0
2, 54240, Note_on_c, 0, 73, 0
2, 54240, Note_on_c, 0, 61, 0
2, 54240, Note_on_c, 0, 87, 100
2, 54240, Note_on_c, 0, 75, 100
2, 54240, Note_on_c, 0, 63, 100
2, 54240, Note_on_c, 0, 51, 100
2, 54300, Note_on_c, 0, 51, 0
2, 54300, Note_on_c, 0, 87, 0
2, 54300, Note_on_c, 0, 75, 0
2, 54300, Note_on_c, 0, 63, 0
2, 54300, Note_on_c, 0, 88, 100
2, 54300, Note_on_c, 0, 76, 100
2, 54300, Note_on_c, 0, 64, 100
2, 54300, Note_on_c, 0, 52, 100
2, 54360, Note_on_c, 0, 52, 0
2, 54360, Note_on_c, 0, 88, 0
2, 54360, Note_on_c, 0, 76, 0
2, 54360, Note_on_c, 0, 64, 0
2, 54360, Note_on_c, 0, 89, 100
2, 54360, Note_on_c, 0, 77, 100
2, 54360, Note_on_c, 0, 65, 100
2, 54360, Note_on_c, 0, 53, 100
2, 54420, Note_on_c, 0, 53, 0
2, 54420, Note_on_c, 0, 89, 0
2, 54420, Note_on_c, 0, 77, 0
2, 54420, Note_on_c, 0, 65, 0
2, 54420, Note_on_c, 0, 90, 100
2, 54420, Note_on_c, 0, 78, 100
2, 54420, Note_on_c, 0, 66, 100
2, 54420, Note_on_c, 0, 54, 100
2, 54480, Note_on_c, 0, 54, 0
2, 54480, Note_on_c, 0, 90, 0
2, 54480, Note_on_c, 0, 78, 0
2, 54480, Note_on_c, 0, 66, 0
2, 54480, Note_on_c, 0, 89, 100
2, 54480, Note_on_c, 0, 77, 100
2, 54480, Note_on_c, 0, 65, 100
2, 54480, Note_on_c, 0, 53, 100
2, 54540, Note_on_c, 0, 53, 0
2, 54540, Note_on_c, 0, 89, 0
2, 54540, Note_on_c, 0, 77, 0
2, 54540, Note_on_c, 0, 65, 0
2, 54600, Note_on_c, 0, 73, 84
2, 54600, Note_on_c, 0, 61, 84
2, 54600, Note_on_c, 0, 58, 84
2, 54600, Note_on_c, 0, 53, 84
2, 54630, Note_on_c, 0, 73, 0
2, 54630, Note_on_c, 0, 69, 84
2, 54660, Note_on_c, 0, 69, 0
2, 54660, Note_on_c, 0, 53, 0
2, 54660, Note_on_c, 0, 58, 0
2, 54660, Note_on_c, 0, 61, 0
2, 54660, Note_on_c, 0, 70, 84
2, 54690, Note_on_c, 0, 70, 0
2, 54690, Note_on_c, 0, 65, 84
2, 54720, Note_on_c, 0, 65, 0
2, 54720, Channel_aftertouch_c, 0, 104
2, 54720, Note_on_c, 0, 77, 84
2, 54720, Note_on_c, 0, 61, 84
2, 54720, Note_on_c, 0, 58, 84
2, 54720, Note_on_c, 0, 53, 84
2, 54750, Note_on_c, 0, 77, 0
2, 54750, Note_on_c, 0, 72, 84
2, 54780, Note_on_c, 0, 72, 0
2, 54780, Note_on_c, 0, 53, 0
2, 54780, Note_on_c, 0, 58, 0
2, 54780, Note_on_c, 0, 61, 0
2, 54780, Note_on_c, 0, 73, 84
2, 54810, Note_on_c, 0, 73, 0
2, 54810, Note_on_c, 0, 70, 84
2, 54840, Note_on_c, 0, 70, 0
2, 54840, Note_on_c, 0, 82, 84
2, 54840, Note_on_c, 0, 65, 84
2, 54840, Note_on_c, 0, 61, 84
2, 54840, Note_on_c, 0, 58, 84
2, 54840, Note_on_c, 0, 53, 84
2, 54870, Note_on_c, 0, 82, 0
2, 54870, Note_on_c, 0, 76, 84
2, 54900, Note_on_c, 0, 76, 0
2, 54900, Note_on_c, 0, 53, 0
2, 54900, Note_on_c, 0, 65, 0
2, 54900, Note_on_c, 0, 61, 0
2, 54900, Note_on_c, 0, 58, 0
2, 54900, Note_on_c, 0, 77, 84
2, 54930, Note_on_c, 0, 77, 0
2, 54930, Note_on_c, 0, 73, 84
2, 54960, Note_on_c, 0, 73, 0
2, 54960, Note_on_c, 0, 85, 84
2, 54960, Note_on_c, 0, 65, 84
2, 54960, Note_on_c, 0, 61, 84
2, 54960, Note_on_c, 0, 58, 84
2, 54960, Note_on_c, 0, 53, 84
2, 54990, Note_on_c, 0, 85, 0
2, 54990, Note_on_c, 0, 81, 84
2, 55020, Note_on_c, 0, 81, 0
2, 55020, Note_on_c, 0, 53, 0
2, 55020, Note_on_c, 0, 65, 0
2, 55020, Note_on_c, 0, 61, 0
2, 55020, Note_on_c, 0, 58, 0
2, 55020, Note_on_c, 0, 82, 84
2, 55050, Note_on_c, 0, 82, 0
2, 55050, Note_on_c, 0, 77, 84
2, 55080, Note_on_c, 0, 77, 0
2, 55080, Note_on_c, 0, 89, 84
2, 55080, Note_on_c, 0, 65, 84
2, 55080, Note_on_c, 0, 61, 84
2, 55080, Note_on_c, 0, 58, 84
2, 55080, Note_on_c, 0, 53, 84
2, 55110, Note_on_c, 0, 89, 0
2, 55110, Note_on_c, 0, 84, 84
2, 55140, Note_on_c, 0, 84, 0
2, 55140, Note_on_c, 0, 53, 0
2, 55140, Note_on_c, 0, 65, 0
2, 55140, Note_on_c, 0, 61, 0
2, 55140, Note_on_c, 0, 58, 0
2, 55140, Note_on_c, 0, 85, 84
2, 55170, Note_on_c, 0, 85, 0
2, 55170, Note_on_c, 0, 82, 84
2, 55200, Note_on_c, 0, 82, 0
2, 55200, Note_on_c, 0, 94, 84
2, 55200, Note_on_c, 0, 90, 84
2, 55200, Note_on_c, 0, 87, 84
2, 55200, Note_on_c, 0, 63, 84
2, 55200, Note_on_c, 0, 58, 84
2, 55200, Note_on_c, 0, 82, 84
2, 55200, Note_on_c, 0, 75, 84
2, 55200, Note_on_c, 0, 70, 84
2, 55200, Note_on_c, 0, 42, 84
2, 55260, Note_on_c, 0, 58, 0
2, 55260, Note_on_c, 0, 63, 0
2, 55260, Note_on_c, 0, 94, 0
2, 55260, Note_on_c, 0, 87, 0
2, 55260, Note_on_c, 0, 90, 0
2, 55320, Note_on_c, 0, 70, 0
2, 55320, Note_on_c, 0, 42, 0
2, 55320, Note_on_c, 0, 82, 0
2, 55320, Note_on_c, 0, 75, 0
2, 55320, Note_on_c, 0, 75, 90
2, 55320, Note_on_c, 0, 63, 90
2, 55320, Note_on_c, 0, 51, 90
2, 55320, Note_on_c, 0, 39, 90
2, 55380, Note_on_c, 0, 39, 0
2, 55380, Note_on_c, 0, 75, 0
2, 55380, Note_on_c, 0, 63, 0
2, 55380, Note_on_c, 0, 51, 0
2, 55380, Note_on_c, 0, 77, 90
2, 55380, Note_on_c, 0, 65, 90
2, 55380, Note_on_c, 0, 53, 90
2, 55380, Note_on_c, 0, 41, 90
2, 55440, Note_on_c, 0, 41, 0
2, 55440, Note_on_c, 0, 77, 0
2, 55440, Note_on_c, 0, 65, 0
2, 55440, Note_on_c, 0, 53, 0
2, 55440, Note_on_c, 0, 78, 90
2, 55440, Note_on_c, 0, 66, 90
2, 55440, Note_on_c, 0, 54, 90
2, 55440, Note_on_c, 0, 42, 90
2, 55500, Note_on_c, 0, 42, 0
2, 55500, Note_on_c, 0, 78, 0
2, 55500, Note_on_c, 0, 66, 0
2, 55500, Note_on_c, 0, 54, 0
2, 55500, Note_on_c, 0, 80, 90
2, 55500, Note_on_c, 0, 68, 90
2, 55500, Note_on_c, 0, 56, 90
2, 55500, Note_on_c, 0, 44, 90
2, 55560, Note_on_c, 0, 44, 0
2, 55560, Note_on_c, 0, 80, 0
2, 55560, Note_on_c, 0, 68, 0
2, 55560, Note_on_c, 0, 56, 0
2, 55560, Note_on_c, 0, 81, 90
2, 55560, Note_on_c, 0, 69, 90
2, 55560, Note_on_c, 0, 57, 90
2, 55560, Note_on_c, 0, 45, 90
2, 55620, Note_on_c, 0, 45, 0
2, 55620, Note_on_c, 0, 81, 0
2, 55620, Note_on_c, 0, 69, 0
2, 55620, Note_on_c, 0, 57, 0
2, 55620, Note_on_c, 0, 82, 90
2, 55620, Note_on_c, 0, 70, 90
2, 55620, Note_on_c, 0, 58, 90
2, 55620, Note_on_c, 0, 46, 90
2, 55680, Note_on_c, 0, 46, 0
2, 55680, Note_on_c, 0, 82, 0
2, 55680, Note_on_c, 0, 70, 0
2, 55680, Note_on_c, 0, 58, 0
2, 55680, Note_on_c, 0, 83, 90
2, 55680, Note_on_c, 0, 71, 90
2, 55680, Note_on_c, 0, 59, 90
2, 55680, Note_on_c, 0, 47, 90
2, 55740, Note_on_c, 0, 47, 0
2, 55740, Note_on_c, 0, 83, 0
2, 55740, Note_on_c, 0, 71, 0
2, 55740, Note_on_c, 0, 59, 0
2, 55740, Note_on_c, 0, 84, 90
2, 55740, Note_on_c, 0, 72, 90
2, 55740, Note_on_c, 0, 60, 90
2, 55740, Note_on_c, 0, 48, 90
2, 55800, Note_on_c, 0, 48, 0
2, 55800, Note_on_c, 0, 84, 0
2, 55800, Note_on_c, 0, 72, 0
2, 55800, Note_on_c, 0, 60, 0
2, 55800, Note_on_c, 0, 85, 90
2, 55800, Note_on_c, 0, 73, 90
2, 55800, Note_on_c, 0, 61, 90
2, 55800, Note_on_c, 0, 49, 90
2, 55860, Note_on_c, 0, 49, 0
2, 55860, Note_on_c, 0, 85, 0
2, 55860, Note_on_c, 0, 73, 0
2, 55860, Note_on_c, 0, 61, 0
2, 55860, Note_on_c, 0, 86, 90
2, 55860, Note_on_c, 0, 74, 90
2, 55860, Note_on_c, 0, 62, 90
2, 55860, Note_on_c, 0, 50, 90
2, 55920, Note_on_c, 0, 50, 0
2, 55920, Note_on_c, 0, 86, 0
2, 55920, Note_on_c, 0, 74, 0
2, 55920, Note_on_c, 0, 62, 0
2, 55920, Note_on_c, 0, 87, 90
2, 55920, Note_on_c, 0, 75, 90
2, 55920, Note_on_c, 0, 63, 90
2, 55920, Note_on_c, 0, 51, 90
2, 55980, Note_on_c, 0, 51, 0
2, 55980, Note_on_c, 0, 87, 0
2, 55980, Note_on_c, 0, 75, 0
2, 55980, Note_on_c, 0, 63, 0
2, 56040, Note_on_c, 0, 75, 84
2, 56040, Note_on_c, 0, 63, 84
2, 56040, Note_on_c, 0, 58, 84
2, 56040, Note_on_c, 0, 54, 84
2, 56070, Note_on_c, 0, 75, 0
2, 56070, Note_on_c, 0, 69, 84
2, 56100, Note_on_c, 0, 69, 0
2, 56100, Note_on_c, 0, 54, 0
2, 56100, Note_on_c, 0, 58, 0
2, 56100, Note_on_c, 0, 63, 0
2, 56100, Note_on_c, 0, 70, 84
2, 56130, Note_on_c, 0, 70, 0
2, 56130, Note_on_c, 0, 66, 84
2, 56160, Note_on_c, 0, 66, 0
2, 56160, Note_on_c, 0, 78, 84
2, 56160, Note_on_c, 0, 63, 84
2, 56160, Note_on_c, 0, 58, 84
2, 56160, Note_on_c, 0, 54, 84
2, 56190, Note_on_c, 0, 78, 0
2, 56190, Note_on_c, 0, 74, 84
2, 56220, Note_on_c, 0, 74, 0
2, 56220, Note_on_c, 0, 54, 0
2, 56220, Note_on_c, 0, 58, 0
2, 56220, Note_on_c, 0, 63, 0
2, 56220, Note_on_c, 0, 75, 84
2, 56250, Note_on_c, 0, 75, 0
2, 56250, Note_on_c, 0, 70, 84
2, 56280, Note_on_c, 0, 70, 0
2, 56280, Note_on_c, 0, 82, 84
2, 56280, Note_on_c, 0, 63, 84
2, 56280, Note_on_c, 0, 58, 84
2, 56280, Note_on_c, 0, 54, 84
2, 56310, Note_on_c, 0, 82, 0
2, 56310, Note_on_c, 0, 77, 84
2, 56340, Note_on_c, 0, 77, 0
2, 56340, Note_on_c, 0, 54, 0
2, 56340, Note_on_c, 0, 58, 0
2, 56340, Note_on_c, 0, 63, 0
2, 56340, Note_on_c, 0, 78, 86
2, 56370, Note_on_c, 0, 78, 0
2, 56370, Note_on_c, 0, 75, 86
2, 56400, Note_on_c, 0, 75, 0
2, 56400, Note_on_c, 0, 87, 86
2, 56400, Note_on_c, 0, 63, 86
2, 56400, Note_on_c, 0, 58, 86
2, 56400, Note_on_c, 0, 54, 86
2, 56430, Note_on_c, 0, 87, 0
2, 56430, Note_on_c, 0, 81, 86
2, 56460, Note_on_c, 0, 81, 0
2, 56460, Note_on_c, 0, 54, 0
2, 56460, Note_on_c, 0, 58, 0
2, 56460, Note_on_c, 0, 63, 0
2, 56460, Note_on_c, 0, 82, 86
2, 56490, Note_on_c, 0, 82, 0
2, 56490, Note_on_c, 0, 78, 86
2, 56520, Note_on_c, 0, 78, 0
2, 56520, Note_on_c, 0, 90, 89
2, 56520, Note_on_c, 0, 63, 89
2, 56520, Note_on_c, 0, 58, 89
2, 56520, Note_on_c, 0, 54, 89
2, 56550, Note_on_c, 0, 90, 0
2, 56550, Note_on_c, 0, 86, 89
2, 56580, Note_on_c, 0, 86, 0
2, 56580, Note_on_c, 0, 54, 0
2, 56580, Note_on_c, 0, 58, 0
2, 56580, Note_on_c, 0, 63, 0
2, 56580, Note_on_c, 0, 87, 89
2, 56610, Note_on_c, 0, 87, 0
2, 56610, Note_on_c, 0, 82, 89
2, 56640, Note_on_c, 0, 82, 0
2, 56640, Note_on_c, 0, 97, 91
2, 56640, Note_on_c, 0, 61, 91
2, 56640, Note_on_c, 0, 58, 91
2, 56640, Note_on_c, 0, 55, 91
2, 56640, Note_on_c, 0, 52, 91
2, 56640, Note_on_c, 0, 76, 94
2, 56640, Note_on_c, 0, 73, 94
2, 56640, Note_on_c, 0, 70, 94
2, 56640, Note_on_c, 0, 43, 94
2, 56670, Note_on_c, 0, 97, 0
2, 56670, Note_on_c, 0, 94, 91
2, 56700, Note_on_c, 0, 94, 0
2, 56700, Note_on_c, 0, 91, 91
2, 56730, Note_on_c, 0, 91, 0
2, 56730, Note_on_c, 0, 88, 91
2, 56760, Note_on_c, 0, 88, 0
2, 56760, Note_on_c, 0, 52, 0
2, 56760, Note_on_c, 0, 61, 0
2, 56760, Note_on_c, 0, 76, 0
2, 56760, Note_on_c, 0, 58, 0
2, 56760, Note_on_c, 0, 55, 0
2, 56760, Note_on_c, 0, 70, 0
2, 56760, Note_on_c, 0, 73, 0
2, 56760, Note_on_c, 0, 43, 0
2, 56760, Note_on_c, 0, 85, 91
2, 56790, Note_on_c, 0, 85, 0
2, 56790, Note_on_c, 0, 82, 91
2, 56820, Note_on_c, 0, 82, 0
2, 56820, Note_on_c, 0, 79, 91
2, 56850, Note_on_c, 0, 79, 0
2, 56850, Note_on_c, 0, 76, 91
2, 56880, Note_on_c, 0, 76, 0
2, 56880, Note_on_c, 0, 73, 91
2, 56940, Note_on_c, 0, 73, 0
2, 56940, Note_on_c, 0, 61, 91
2, 56940, Note_on_c, 0, 58, 91
2, 56940, Note_on_c, 0, 55, 91
2, 56940, Note_on_c, 0, 52, 91
2, 56940, Note_on_c, 0, 73, 91
2, 56940, Note_on_c, 0, 67, 91
2, 56940, Note_on_c, 0, 58, 91
2, 56940, Note_on_c, 0, 52, 91
2, 57000, Note_on_c, 0, 52, 0
2, 57000, Note_on_c, 0, 61, 0
2, 57000, Note_on_c, 0, 73, 0
2, 57000, Note_on_c, 0, 58, 0
2, 57000, Note_on_c, 0, 55, 0
2, 57000, Note_on_c, 0, 52, 0
2, 57000, Note_on_c, 0, 67, 0
2, 57000, Note_on_c, 0, 58, 0
2, 57000, Note_on_c, 0, 61, 91
2, 57000, Note_on_c, 0, 58, 91
2, 57000, Note_on_c, 0, 55, 91
2, 57000, Note_on_c, 0, 52, 91
2, 57000, Note_on_c, 0, 72, 91
2, 57000, Note_on_c, 0, 67, 91
2, 57000, Note_on_c, 0, 60, 91
2, 57000, Note_on_c, 0, 52, 91
2, 57060, Note_on_c, 0, 52, 0
2, 57060, Note_on_c, 0, 61, 0
2, 57060, Note_on_c, 0, 72, 0
2, 57060, Note_on_c, 0, 58, 0
2, 57060, Note_on_c, 0, 55, 0
2, 57060, Note_on_c, 0, 52, 0
2, 57060, Note_on_c, 0, 67, 0
2, 57060, Note_on_c, 0, 60, 0
2, 57060, Note_on_c, 0, 61, 91
2, 57060, Note_on_c, 0, 58, 91
2, 57060, Note_on_c, 0, 55, 91
2, 57060, Note_on_c, 0, 52, 91
2, 57060, Note_on_c, 0, 70, 91
2, 57060, Note_on_c, 0, 67, 91
2, 57060, Note_on_c, 0, 61, 91
2, 57060, Note_on_c, 0, 52, 91
2, 57120, Note_on_c, 0, 52, 0
2, 57120, Note_on_c, 0, 61, 0
2, 57120, Note_on_c, 0, 70, 0
2, 57120, Note_on_c, 0, 58, 0
2, 57120, Note_on_c, 0, 55, 0
2, 57120, Note_on_c, 0, 52, 0
2, 57120, Note_on_c, 0, 67, 0
2, 57120, Note_on_c, 0, 61, 0
2, 57120, Note_on_c, 0, 99, 91
2, 57120, Note_on_c, 0, 60, 91
2, 57120, Note_on_c, 0, 57, 91
2, 57120, Note_on_c, 0, 54, 91
2, 57120, Note_on_c, 0, 51, 91
2, 57120, Note_on_c, 0, 69, 91
2, 57120, Note_on_c, 0, 66, 91
2, 57120, Note_on_c, 0, 60, 91
2, 57120, Note_on_c, 0, 51, 91
2, 57150, Note_on_c, 0, 99, 0
2, 57150, Note_on_c, 0, 96, 91
2, 57180, Note_on_c, 0, 96, 0
2, 57180, Note_on_c, 0, 93, 91
2, 57210, Note_on_c, 0, 93, 0
2, 57210, Note_on_c, 0, 90, 91
2, 57240, Note_on_c, 0, 90, 0
2, 57240, Note_on_c, 0, 51, 0
2, 57240, Note_on_c, 0, 60, 0
2, 57240, Note_on_c, 0, 69, 0
2, 57240, Note_on_c, 0, 57, 0
2, 57240, Note_on_c, 0, 54, 0
2, 57240, Note_on_c, 0, 60, 0
2, 57240, Note_on_c, 0, 66, 0
2, 57240, Note_on_c, 0, 51, 0
2, 57240, Note_on_c, 0, 87, 91
2, 57270, Note_on_c, 0, 87, 0
2, 57270, Note_on_c, 0, 84, 91
2, 57300, Note_on_c, 0, 84, 0
2, 57300, Note_on_c, 0, 81, 91
2, 57330, Note_on_c, 0, 81, 0
2, 57330, Note_on_c, 0, 78, 91
2, 57360, Note_on_c, 0, 78, 0
2, 57360, Note_on_c, 0, 75, 91
2, 57420, Note_on_c, 0, 75, 0
2, 57420, Note_on_c, 0, 60, 91
2, 57420, Note_on_c, 0, 57, 91
2, 57420, Note_on_c, 0, 54, 91
2, 57420, Note_on_c, 0, 51, 91
2, 57420, Note_on_c, 0, 75, 91
2, 57420, Note_on_c, 0, 67, 91
2, 57420, Note_on_c, 0, 60, 91
2, 57420, Note_on_c, 0, 54, 91
2, 57420, Note_on_c, 0, 51, 91
2, 57480, Note_on_c, 0, 51, 0
2, 57480, Note_on_c, 0, 51, 0
2, 57480, Note_on_c, 0, 60, 0
2, 57480, Note_on_c, 0, 75, 0
2, 57480, Note_on_c, 0, 57, 0
2, 57480, Note_on_c, 0, 54, 0
2, 57480, Note_on_c, 0, 60, 0
2, 57480, Note_on_c, 0, 67, 0
2, 57480, Note_on_c, 0, 54, 0
2, 57480, Note_on_c, 0, 60, 91
2, 57480, Note_on_c, 0, 57, 91
2, 57480, Note_on_c, 0, 54, 91
2, 57480, Note_on_c, 0, 51, 91
2, 57480, Note_on_c, 0, 72, 91
2, 57480, Note_on_c, 0, 67, 91
2, 57480, Note_on_c, 0, 60, 91
2, 57480, Note_on_c, 0, 54, 91
2, 57480, Note_on_c, 0, 51, 91
2, 57540, Note_on_c, 0, 51, 0
2, 57540, Note_on_c, 0, 51, 0
2, 57540, Note_on_c, 0, 60, 0
2, 57540, Note_on_c, 0, 72, 0
2, 57540, Note_on_c, 0, 57, 0
2, 57540, Note_on_c, 0, 54, 0
2, 57540, Note_on_c, 0, 60, 0
2, 57540, Note_on_c, 0, 67, 0
2, 57540, Note_on_c, 0, 54, 0
2, 57540, Note_on_c, 0, 60, 91
2, 57540, Note_on_c, 0, 57, 91
2, 57540, Note_on_c, 0, 54, 91
2, 57540, Note_on_c, 0, 51, 91
2, 57540, Note_on_c, 0, 69, 91
2, 57540, Note_on_c, 0, 67, 91
2, 57540, Note_on_c, 0, 60, 91
2, 57540, Note_on_c, 0, 54, 91
2, 57540, Note_on_c, 0, 51, 91
2, 57600, Note_on_c, 0, 51, 0
2, 57600, Note_on_c, 0, 51, 0
2, 57600, Note_on_c, 0, 60, 0
2, 57600, Note_on_c, 0, 69, 0
2, 57600, Note_on_c, 0, 57, 0
2, 57600, Note_on_c, 0, 54, 0
2, 57600, Note_on_c, 0, 60, 0
2, 57600, Note_on_c, 0, 67, 0
2, 57600, Note_on_c, 0, 54, 0
2, 57600, Note_on_c, 0, 58, 76
2, 57600, Note_on_c, 0, 53, 76
2, 57600, Note_on_c, 0, 50, 76
2, 57600, Note_on_c, 0, 77, 91
2, 57600, Note_on_c, 0, 70, 91
2, 57600, Note_on_c, 0, 65, 91
2, 57600, Note_on_c, 0, 58, 91
2, 57600, Note_on_c, 0, 53, 91
2, 57630, Note_on_c, 0, 70, 76
2, 57660, Note_on_c, 0, 70, 0
2, 57660, Note_on_c, 0, 77, 0
2, 57660, Note_on_c, 0, 58, 0
2, 57660, Note_on_c, 0, 70, 0
2, 57660, Note_on_c, 0, 53, 0
2, 57660, Note_on_c, 0, 50, 0
2, 57660, Note_on_c, 0, 58, 0
2, 57660, Note_on_c, 0, 65, 0
2, 57660, Note_on_c, 0, 53, 0
2, 57660, Note_on_c, 0, 62, 76
2, 57690, Note_on_c, 0, 62, 0
2, 57690, Note_on_c, 0, 65, 76
2, 57720, Note_on_c, 0, 65, 0
2, 57720, Note_on_c, 0, 62, 76
2, 57720, Note_on_c, 0, 50, 76
2, 57720, Note_on_c, 0, 70, 76
2, 57720, Note_on_c, 0, 65, 76
2, 57720, Note_on_c, 0, 58, 76
2, 57720, Note_on_c, 0, 50, 76
2, 57750, Note_on_c, 0, 77, 76
2, 57780, Note_on_c, 0, 77, 0
2, 57780, Note_on_c, 0, 62, 0
2, 57780, Note_on_c, 0, 50, 0
2, 57780, Note_on_c, 0, 65, 76
2, 57810, Note_on_c, 0, 65, 0
2, 57810, Note_on_c, 0, 70, 76
2, 57840, Note_on_c, 0, 70, 0
2, 57840, Note_on_c, 0, 65, 0
2, 57840, Note_on_c, 0, 50, 0
2, 57840, Note_on_c, 0, 70, 0
2, 57840, Note_on_c, 0, 58, 0
2, 57840, Note_on_c, 0, 60, 76
2, 57840, Note_on_c, 0, 53, 76
2, 57840, Note_on_c, 0, 72, 79
2, 57840, Note_on_c, 0, 69, 79
2, 57840, Note_on_c, 0, 60, 79
2, 57840, Note_on_c, 0, 53, 79
2, 57870, Note_on_c, 0, 75, 76
2, 57900, Note_on_c, 0, 75, 0
2, 57900, Note_on_c, 0, 60, 0
2, 57900, Note_on_c, 0, 53, 0
2, 57900, Note_on_c, 0, 63, 76
2, 57930, Note_on_c, 0, 63, 0
2, 57930, Note_on_c, 0, 65, 76
2, 57960, Note_on_c, 0, 65, 0
2, 57960, Note_on_c, 0, 60, 0
2, 57960, Note_on_c, 0, 69, 0
2, 57960, Note_on_c, 0, 72, 0
2, 57960, Note_on_c, 0, 53, 0
2, 57960, Note_on_c, 0, 58, 76
2, 57960, Note_on_c, 0, 74, 81
2, 57960, Note_on_c, 0, 70, 81
2, 57960, Note_on_c, 0, 62, 81
2, 57960, Note_on_c, 0, 58, 81
2, 57990, Note_on_c, 0, 74, 76
2, 58020, Note_on_c, 0, 74, 0
2, 58020, Note_on_c, 0, 58, 0
2, 58020, Note_on_c, 0, 62, 76
2, 58050, Note_on_c, 0, 62, 0
2, 58050, Note_on_c, 0, 65, 76
2, 58080, Note_on_c, 0, 65, 0
2, 58080, Note_on_c, 0, 62, 0
2, 58080, Note_on_c, 0, 70, 0
2, 58080, Note_on_c, 0, 74, 0
2, 58080, Note_on_c, 0, 58, 0
2, 58080, Note_on_c, 0, 53, 68
2, 58080, Note_on_c, 0, 41, 68
2, 58080, Note_on_c, 0, 77, 81
2, 58080, Note_on_c, 0, 69, 81
2, 58080, Note_on_c, 0, 60, 81
2, 58080, Note_on_c, 0, 53, 81
2, 58140, Note_on_c, 0, 63, 71
2, 58200, Note_on_c, 0, 63, 0
2, 58200, Note_on_c, 0, 53, 0
2, 58200, Note_on_c, 0, 41, 0
2, 58200, Note_on_c, 0, 65, 71
2, 58260, Note_on_c, 0, 65, 0
2, 58260, Note_on_c, 0, 69, 71
2, 58320, Note_on_c, 0, 69, 0
2, 58320, Note_on_c, 0, 77, 0
2, 58320, Note_on_c, 0, 72, 73
2, 58320, Note_on_c, 0, 75, 79
2, 58380, Note_on_c, 0, 72, 0
2, 58380, Note_on_c, 0, 75, 73
2, 58440, Note_on_c, 0, 75, 0
2, 58440, Note_on_c, 0, 77, 73
2, 58500, Note_on_c, 0, 77, 0
2, 58500, Note_on_c, 0, 81, 73
2, 58530, Note_on_c, 0, 81, 0
2, 58530, Note_on_c, 0, 84, 73
2, 58560, Note_on_c, 0, 84, 0
2, 58560, Note_on_c, 0, 75, 0
2, 58560, Note_on_c, 0, 89, 76
2, 58560, Note_on_c, 0, 63, 68
2, 58560, Note_on_c, 0, 60, 68
2, 58560, Note_on_c, 0, 53, 68
2, 58560, Note_on_c, 0, 72, 76
2, 58620, Note_on_c, 0, 89, 0
2, 58620, Note_on_c, 0, 87, 76
2, 58680, Note_on_c, 0, 87, 0
2, 58680, Note_on_c, 0, 63, 0
2, 58680, Note_on_c, 0, 60, 0
2, 58680, Note_on_c, 0, 53, 0
2, 58680, Note_on_c, 0, 84, 73
2, 58740, Note_on_c, 0, 84, 0
2, 58740, Note_on_c, 0, 81, 73
2, 58800, Note_on_c, 0, 81, 0
2, 58800, Note_on_c, 0, 69, 0
2, 58800, Note_on_c, 0, 72, 0
2, 58800, Note_on_c, 0, 60, 0
2, 58800, Note_on_c, 0, 53, 0
2, 58800, Note_on_c, 0, 77, 71
2, 58800, Note_on_c, 0, 77, 71
2, 58800, Note_on_c, 0, 65, 71
2, 58860, Note_on_c, 0, 77, 0
2, 58860, Note_on_c, 0, 75, 71
2, 58920, Note_on_c, 0, 75, 0
2, 58920, Note_on_c, 0, 65, 0
2, 58920, Note_on_c, 0, 77, 0
2, 58920, Note_on_c, 0, 72, 71
2, 58980, Note_on_c, 0, 72, 0
2, 58980, Note_on_c, 0, 69, 71
2, 59040, Note_on_c, 0, 69, 0
2, 59040, Note_on_c, 0, 46, 68
2, 59040, Note_on_c, 0, 77, 68
2, 59040, Note_on_c, 0, 65, 68
2, 59040, Note_on_c, 0, 46, 68
2, 59040, Note_on_c, 0, 34, 68
2, 59070, Note_on_c, 0, 74, 71
2, 59100, Note_on_c, 0, 74, 0
2, 59100, Note_on_c, 0, 77, 0
2, 59100, Note_on_c, 0, 65, 0
2, 59100, Note_on_c, 0, 46, 0
2, 59100, Note_on_c, 0, 34, 0
2, 59100, Note_on_c, 0, 46, 0
2, 59100, Note_on_c, 0, 65, 71
2, 59130, Note_on_c, 0, 65, 0
2, 59130, Note_on_c, 0, 70, 71
2, 59160, Note_on_c, 0, 70, 0
2, 59160, Note_on_c, 0, 62, 68
2, 59160, Note_on_c, 0, 50, 68
2, 59160, Note_on_c, 0, 70, 71
2, 59160, Note_on_c, 0, 65, 71
2, 59160, Note_on_c, 0, 58, 71
2, 59160, Note_on_c, 0, 50, 71
2, 59190, Note_on_c, 0, 77, 71
2, 59220, Note_on_c, 0, 77, 0
2, 59220, Note_on_c, 0, 50, 0
2, 59220, Note_on_c, 0, 62, 0
2, 59220, Note_on_c, 0, 50, 0
2, 59220, Note_on_c, 0, 65, 71
2, 59250, Note_on_c, 0, 65, 0
2, 59250, Note_on_c, 0, 70, 71
2, 59280, Note_on_c, 0, 70, 0
2, 59280, Note_on_c, 0, 65, 0
2, 59280, Note_on_c, 0, 58, 0
2, 59280, Note_on_c, 0, 70, 0
2, 59280, Note_on_c, 0, 60, 68
2, 59280, Note_on_c, 0, 53, 68
2, 59280, Note_on_c, 0, 72, 73
2, 59280, Note_on_c, 0, 69, 73
2, 59280, Note_on_c, 0, 60, 73
2, 59280, Note_on_c, 0, 53, 73
2, 59310, Note_on_c, 0, 75, 71
2, 59340, Note_on_c, 0, 75, 0
2, 59340, Note_on_c, 0, 53, 0
2, 59340, Note_on_c, 0, 60, 0
2, 59340, Note_on_c, 0, 53, 0
2, 59340, Note_on_c, 0, 63, 71
2, 59370, Note_on_c, 0, 63, 0
2, 59370, Note_on_c, 0, 65, 71
2, 59400, Note_on_c, 0, 65, 0
2, 59400, Note_on_c, 0, 69, 0
2, 59400, Note_on_c, 0, 60, 0
2, 59400, Note_on_c, 0, 72, 0
2, 59400, Note_on_c, 0, 58, 68
2, 59400, Note_on_c, 0, 74, 76
2, 59400, Note_on_c, 0, 70, 76
2, 59400, Note_on_c, 0, 62, 76
2, 59400, Note_on_c, 0, 58, 76
2, 59430, Note_on_c, 0, 74, 71
2, 59460, Note_on_c, 0, 58, 0
2, 59460, Note_on_c, 0, 74, 0
2, 59460, Note_on_c, 0, 58, 0
2, 59460, Note_on_c, 0, 62, 71
2, 59490, Note_on_c, 0, 62, 0
2, 59490, Note_on_c, 0, 65, 71
2, 59520, Note_on_c, 0, 65, 0
2, 59520, Note_on_c, 0, 62, 0
2, 59520, Note_on_c, 0, 74, 0
2, 59520, Note_on_c, 0, 70, 0
2, 59520, Note_on_c, 0, 53, 68
2, 59520, Note_on_c, 0, 41, 68
2, 59520, Note_on_c, 0, 77, 76
2, 59520, Note_on_c, 0, 69, 76
2, 59520, Note_on_c, 0, 60, 76
2, 59520, Note_on_c, 0, 53, 76
2, 59550, Note_on_c, 0, 63, 71
2, 59580, Note_on_c, 0, 63, 0
2, 59580, Note_on_c, 0, 53, 0
2, 59580, Note_on_c, 0, 41, 0
2, 59580, Note_on_c, 0, 65, 71
2, 59610, Note_on_c, 0, 65, 0
2, 59610, Note_on_c, 0, 69, 71
2, 59640, Note_on_c, 0, 69, 0
2, 59640, Note_on_c, 0, 77, 0
2, 59640, Note_on_c, 0, 72, 73
2, 59640, Note_on_c, 0, 75, 73
2, 59670, Note_on_c, 0, 72, 0
2, 59670, Note_on_c, 0, 75, 73
2, 59700, Note_on_c, 0, 75, 0
2, 59700, Note_on_c, 0, 77, 73
2, 59730, Note_on_c, 0, 77, 0
2, 59730, Note_on_c, 0, 81, 73
2, 59760, Note_on_c, 0, 81, 0
2, 59760, Note_on_c, 0, 75, 0
2, 59760, Note_on_c, 0, 84, 76
2, 59760, Note_on_c, 0, 63, 68
2, 59760, Note_on_c, 0, 60, 68
2, 59760, Note_on_c, 0, 57, 71
2, 59760, Note_on_c, 0, 53, 71
2, 59760, Note_on_c, 0, 72, 71
2, 59790, Note_on_c, 0, 84, 0
2, 59790, Note_on_c, 0, 87, 76
2, 59820, Note_on_c, 0, 87, 0
2, 59820, Note_on_c, 0, 63, 0
2, 59820, Note_on_c, 0, 60, 0
2, 59820, Note_on_c, 0, 53, 0
2, 59820, Note_on_c, 0, 57, 0
2, 59820, Note_on_c, 0, 91, 76
2, 59850, Note_on_c, 0, 91, 0
2, 59850, Note_on_c, 0, 89, 76
2, 59880, Note_on_c, 0, 89, 0
2, 59880, Note_on_c, 0, 53, 0
2, 59880, Note_on_c, 0, 72, 0
2, 59880, Note_on_c, 0, 60, 0
2, 59880, Note_on_c, 0, 69, 0
2, 59880, Note_on_c, 0, 87, 73
2, 59880, Note_on_c, 0, 77, 68
2, 59880, Note_on_c, 0, 65, 68
2, 59910, Note_on_c, 0, 87, 0
2, 59910, Note_on_c, 0, 84, 73
2, 59940, Note_on_c, 0, 84, 0
2, 59940, Note_on_c, 0, 65, 0
2, 59940, Note_on_c, 0, 77, 0
2, 59940, Note_on_c, 0, 81, 73
2, 59970, Note_on_c, 0, 81, 0
2, 59970, Note_on_c, 0, 75, 73
2, 60000, Note_on_c, 0, 75, 0
2, 60000, Note_on_c, 0, 74, 71
2, 60000, Note_on_c, 0, 46, 68
2, 60000, Note_on_c, 0, 77, 68
2, 60000, Note_on_c, 0, 65, 68
2, 60000, Note_on_c, 0, 46, 68
2, 60000, Note_on_c, 0, 34, 68
2, 60030, Note_on_c, 0, 74, 0
2, 60030, Note_on_c, 0, 77, 71
2, 60060, Note_on_c, 0, 77, 0
2, 60060, Note_on_c, 0, 34, 0
2, 60060, Note_on_c, 0, 65, 0
2, 60060, Note_on_c, 0, 46, 0
2, 60060, Note_on_c, 0, 77, 0
2, 60060, Note_on_c, 0, 46, 0
2, 60060, Note_on_c, 0, 82, 71
2, 60090, Note_on_c, 0, 82, 0
2, 60090, Note_on_c, 0, 70, 71
2, 60120, Note_on_c, 0, 70, 0
2, 60120, Note_on_c, 0, 62, 68
2, 60120, Note_on_c, 0, 50, 68
2, 60120, Note_on_c, 0, 70, 68
2, 60120, Note_on_c, 0, 65, 68
2, 60120, Note_on_c, 0, 58, 68
2, 60120, Note_on_c, 0, 50, 68
2, 60150, Note_on_c, 0, 77, 71
2, 60180, Note_on_c, 0, 77, 0
2, 60180, Note_on_c, 0, 62, 0
2, 60180, Note_on_c, 0, 50, 0
2, 60180, Note_on_c, 0, 65, 71
2, 60210, Note_on_c, 0, 65, 0
2, 60210, Note_on_c, 0, 70, 71
2, 60240, Note_on_c, 0, 70, 0
2, 60240, Note_on_c, 0, 65, 0
2, 60240, Note_on_c, 0, 50, 0
2, 60240, Note_on_c, 0, 70, 0
2, 60240, Note_on_c, 0, 58, 0
2, 60240, Note_on_c, 0, 60, 68
2, 60240, Note_on_c, 0, 53, 68
2, 60240, Note_on_c, 0, 72, 68
2, 60240, Note_on_c, 0, 69, 68
2, 60240, Note_on_c, 0, 60, 68
2, 60240, Note_on_c, 0, 53, 68
2, 60270, Note_on_c, 0, 75, 71
2, 60300, Note_on_c, 0, 75, 0
2, 60300, Note_on_c, 0, 60, 0
2, 60300, Note_on_c, 0, 53, 0
2, 60300, Note_on_c, 0, 63, 71
2, 60330, Note_on_c, 0, 63, 0
2, 60330, Note_on_c, 0, 65, 71
2, 60360, Note_on_c, 0, 65, 0
2, 60360, Note_on_c, 0, 60, 0
2, 60360, Note_on_c, 0, 69, 0
2, 60360, Note_on_c, 0, 72, 0
2, 60360, Note_on_c, 0, 53, 0
2, 60360, Note_on_c, 0, 58, 68
2, 60360, Note_on_c, 0, 74, 68
2, 60360, Note_on_c, 0, 70, 68
2, 60360, Note_on_c, 0, 62, 68
2, 60360, Note_on_c, 0, 58, 68
2, 60390, Note_on_c, 0, 74, 71
2, 60420, Note_on_c, 0, 74, 0
2, 60420, Note_on_c, 0, 58, 0
2, 60420, Note_on_c, 0, 62, 71
2, 60450, Note_on_c, 0, 62, 0
2, 60450, Note_on_c, 0, 65, 71
2, 60480, Note_on_c, 0, 65, 0
2, 60480, Note_on_c, 0, 62, 0
2, 60480, Note_on_c, 0, 70, 0
2, 60480, Note_on_c, 0, 74, 0
2, 60480, Note_on_c, 0, 58, 0
2, 60480, Note_on_c, 0, 51, 68
2, 60480, Note_on_c, 0, 39, 68
2, 60480, Note_on_c, 0, 74, 68
2, 60480, Note_on_c, 0, 67, 68
2, 60480, Note_on_c, 0, 58, 68
2, 60480, Note_on_c, 0, 51, 68
2, 60510, Note_on_c, 0, 60, 71
2, 60540, Note_on_c, 0, 60, 0
2, 60540, Note_on_c, 0, 51, 0
2, 60540, Note_on_c, 0, 39, 0
2, 60540, Note_on_c, 0, 63, 71
2, 60570, Note_on_c, 0, 63, 0
2, 60570, Note_on_c, 0, 67, 71
2, 60600, Note_on_c, 0, 67, 0
2, 60600, Note_on_c, 0, 70, 73
2, 60630, Note_on_c, 0, 70, 0
2, 60630, Note_on_c, 0, 72, 73
2, 60660, Note_on_c, 0, 72, 0
2, 60660, Note_on_c, 0, 75, 73
2, 60690, Note_on_c, 0, 75, 0
2, 60690, Note_on_c, 0, 82, 73
2, 60720, Note_on_c, 0, 82, 0
2, 60720, Note_on_c, 0, 74, 0
2, 60720, Note_on_c, 0, 79, 76
2, 60720, Note_on_c, 0, 60, 68
2, 60720, Note_on_c, 0, 58, 68
2, 60720, Note_on_c, 0, 55, 68
2, 60720, Note_on_c, 0, 51, 68
2, 60720, Note_on_c, 0, 72, 66
2, 60750, Note_on_c, 0, 79, 0
2, 60750, Note_on_c, 0, 82, 76
2, 60780, Note_on_c, 0, 82, 0
2, 60780, Note_on_c, 0, 60, 0
2, 60780, Note_on_c, 0, 58, 0
2, 60780, Note_on_c, 0, 51, 0
2, 60780, Note_on_c, 0, 55, 0
2, 60780, Note_on_c, 0, 75, 76
2, 60810, Note_on_c, 0, 75, 0
2, 60810, Note_on_c, 0, 72, 76
2, 60840, Note_on_c, 0, 72, 0
2, 60840, Note_on_c, 0, 51, 0
2, 60840, Note_on_c, 0, 72, 0
2, 60840, Note_on_c, 0, 58, 0
2, 60840, Note_on_c, 0, 67, 0
2, 60840, Note_on_c, 0, 70, 73
2, 60840, Note_on_c, 0, 79, 66
2, 60840, Note_on_c, 0, 70, 66
2, 60840, Note_on_c, 0, 60, 66
2, 60840, Note_on_c, 0, 51, 66
2, 60870, Note_on_c, 0, 70, 0
2, 60870, Note_on_c, 0, 75, 73
2, 60900, Note_on_c, 0, 75, 0
2, 60900, Note_on_c, 0, 72, 73
2, 60930, Note_on_c, 0, 72, 0
2, 60930, Note_on_c, 0, 67, 73
2, 60960, Note_on_c, 0, 67, 0
2, 60960, Note_on_c, 0, 51, 0
2, 60960, Note_on_c, 0, 79, 0
2, 60960, Note_on_c, 0, 70, 0
2, 60960, Note_on_c, 0, 60, 0
2, 60960, Note_on_c, 0, 65, 66
2, 60960, Note_on_c, 0, 62, 66
2, 60960, Note_on_c, 0, 58, 66
2, 60960, Note_on_c, 0, 53, 66
2, 60960, Note_on_c, 0, 79, 66
2, 60960, Note_on_c, 0, 70, 66
2, 60960, Note_on_c, 0, 62, 66
2, 60960, Note_on_c, 0, 53, 66
2, 60990, Note_on_c, 0, 65, 0
2, 60990, Note_on_c, 0, 67, 66
2, 61020, Note_on_c, 0, 67, 0
2, 61020, Note_on_c, 0, 53, 0
2, 61020, Note_on_c, 0, 62, 0
2, 61020, Note_on_c, 0, 58, 0
2, 61020, Note_on_c, 0, 65, 66
2, 61050, Note_on_c, 0, 65, 0
2, 61050, Note_on_c, 0, 64, 66
2, 61080, Note_on_c, 0, 64, 0
2, 61080, Note_on_c, 0, 79, 0
2, 61080, Note_on_c, 0, 65, 66
2, 61080, Note_on_c, 0, 77, 66
2, 61110, Note_on_c, 0, 65, 0
2, 61110, Note_on_c, 0, 74, 66
2, 61140, Note_on_c, 0, 74, 0
2, 61140, Note_on_c, 0, 72, 66
2, 61170, Note_on_c, 0, 72, 0
2, 61170, Note_on_c, 0, 70, 66
2, 61200, Note_on_c, 0, 70, 0
2, 61200, Note_on_c, 0, 77, 0
2, 61200, Note_on_c, 0, 62, 0
2, 61200, Note_on_c, 0, 70, 0
2, 61200, Note_on_c, 0, 53, 0
2, 61200, Note_on_c, 0, 64, 66
2, 61200, Note_on_c, 0, 61, 66
2, 61200, Note_on_c, 0, 58, 66
2, 61200, Note_on_c, 0, 55, 66
2, 61200, Note_on_c, 0, 70, 73
2, 61230, Note_on_c, 0, 64, 0
2, 61230, Note_on_c, 0, 67, 66
2, 61260, Note_on_c, 0, 67, 0
2, 61260, Note_on_c, 0, 61, 0
2, 61260, Note_on_c, 0, 55, 0
2, 61260, Note_on_c, 0, 58, 0
2, 61260, Note_on_c, 0, 70, 66
2, 61290, Note_on_c, 0, 70, 0
2, 61290, Note_on_c, 0, 73, 66
2, 61320, Note_on_c, 0, 73, 0
2, 61320, Note_on_c, 0, 76, 66
2, 61350, Note_on_c, 0, 76, 0
2, 61350, Note_on_c, 0, 79, 66
2, 61380, Note_on_c, 0, 79, 0
2, 61380, Note_on_c, 0, 82, 66
2, 61410, Note_on_c, 0, 82, 0
2, 61410, Note_on_c, 0, 85, 66
2, 61440, Note_on_c, 0, 85, 0
2, 61440, Note_on_c, 0, 86, 66
2, 61440, Note_on_c, 0, 65, 66
2, 61440, Note_on_c, 0, 62, 66
2, 61440, Note_on_c, 0, 58, 66
2, 61440, Note_on_c, 0, 53, 66
2, 61470, Note_on_c, 0, 86, 0
2, 61500, Note_on_c, 0, 65, 0
2, 61500, Note_on_c, 0, 62, 0
2, 61500, Note_on_c, 0, 58, 0
2, 61500, Note_on_c, 0, 53, 0
2, 61500, Note_on_c, 0, 84, 66
2, 61530, Note_on_c, 0, 84, 0
2, 61530, Note_on_c, 0, 82, 66
2, 61560, Note_on_c, 0, 82, 0
2, 61560, Note_on_c, 0, 70, 0
2, 61560, Note_on_c, 0, 81, 66
2, 61560, Note_on_c, 0, 72, 66
2, 61590, Note_on_c, 0, 72, 0
2, 61590, Note_on_c, 0, 81, 0
2, 61590, Note_on_c, 0, 79, 66
2, 61590, Note_on_c, 0, 70, 66
2, 61620, Note_on_c, 0, 70, 0
2, 61620, Note_on_c, 0, 79, 0
2, 61620, Note_on_c, 0, 77, 66
2, 61620, Note_on_c, 0, 69, 66
2, 61650, Note_on_c, 0, 69, 0
2, 61650, Note_on_c, 0, 77, 0
2, 61650, Note_on_c, 0, 76, 66
2, 61650, Note_on_c, 0, 70, 66
2, 61680, Note_on_c, 0, 70, 0
2, 61680, Note_on_c, 0, 76, 0
2, 61680, Note_on_c, 0, 79, 66
2, 61680, Note_on_c, 0, 63, 66
2, 61680, Note_on_c, 0, 60, 66
2, 61680, Note_on_c, 0, 57, 66
2, 61680, Note_on_c, 0, 53, 66
2, 61680, Note_on_c, 0, 74, 84
2, 61710, Note_on_c, 0, 79, 0
2, 61710, Note_on_c, 0, 77, 66
2, 61740, Note_on_c, 0, 77, 0
2, 61740, Note_on_c, 0, 60, 0
2, 61740, Note_on_c, 0, 57, 0
2, 61740, Note_on_c, 0, 63, 0
2, 61740, Note_on_c, 0, 53, 0
2, 61740, Note_on_c, 0, 75, 66
2, 61770, Note_on_c, 0, 75, 0
2, 61770, Note_on_c, 0, 72, 66
2, 61800, Note_on_c, 0, 72, 0
2, 61800, Note_on_c, 0, 69, 66
2, 61800, Note_on_c, 0, 53, 66
2, 61800, Note_on_c, 0, 41, 66
2, 61830, Note_on_c, 0, 69, 0
2, 61830, Note_on_c, 0, 65, 66
2, 61860, Note_on_c, 0, 65, 0
2, 61860, Note_on_c, 0, 41, 0
2, 61860, Note_on_c, 0, 53, 0
2, 61860, Note_on_c, 0, 74, 0
2, 61860, Note_on_c, 0, 63, 66
2, 61860, Note_on_c, 0, 72, 66
2, 61890, Note_on_c, 0, 63, 0
2, 61890, Note_on_c, 0, 60, 66
2, 61920, Note_on_c, 0, 60, 0
2, 61920, Note_on_c, 0, 72, 0
2, 61920, Note_on_c, 0, 58, 66
2, 61920, Note_on_c, 0, 46, 66
2, 61920, Note_on_c, 0, 34, 66
2, 61920, Note_on_c, 0, 70, 66
2, 61920, Note_on_c, 0, 46, 66
2, 61920, Note_on_c, 0, 34, 66
2, 61950, Note_on_c, 0, 58, 0
2, 61950, Note_on_c, 0, 62, 66
2, 61980, Note_on_c, 0, 62, 0
2, 61980, Note_on_c, 0, 34, 0
2, 61980, Note_on_c, 0, 70, 0
2, 61980, Note_on_c, 0, 46, 0
2, 61980, Note_on_c, 0, 34, 0
2, 61980, Note_on_c, 0, 46, 0
2, 61980, Note_on_c, 0, 65, 66
2, 62010, Note_on_c, 0, 65, 0
2, 62010, Note_on_c, 0, 70, 66
2, 62040, Note_on_c, 0, 70, 0
2, 62040, Note_on_c, 0, 62, 66
2, 62040, Note_on_c, 0, 50, 66
2, 62040, Note_on_c, 0, 70, 71
2, 62040, Note_on_c, 0, 65, 71
2, 62040, Note_on_c, 0, 58, 71
2, 62040, Note_on_c, 0, 50, 71
2, 62070, Note_on_c, 0, 77, 66
2, 62100, Note_on_c, 0, 77, 0
2, 62100, Note_on_c, 0, 62, 0
2, 62100, Note_on_c, 0, 50, 0
2, 62100, Note_on_c, 0, 65, 66
2, 62130, Note_on_c, 0, 65, 0
2, 62130, Note_on_c, 0, 70, 66
2, 62160, Note_on_c, 0, 70, 0
2, 62160, Note_on_c, 0, 65, 0
2, 62160, Note_on_c, 0, 50, 0
2, 62160, Note_on_c, 0, 70, 0
2, 62160, Note_on_c, 0, 58, 0
2, 62160, Note_on_c, 0, 60, 66
2, 62160, Note_on_c, 0, 53, 66
2, 62160, Note_on_c, 0, 72, 73
2, 62160, Note_on_c, 0, 69, 73
2, 62160, Note_on_c, 0, 60, 73
2, 62160, Note_on_c, 0, 53, 73
2, 62190, Note_on_c, 0, 75, 66
2, 62220, Note_on_c, 0, 75, 0
2, 62220, Note_on_c, 0, 60, 0
2, 62220, Note_on_c, 0, 53, 0
2, 62220, Note_on_c, 0, 63, 66
2, 62250, Note_on_c, 0, 63, 0
2, 62250, Note_on_c, 0, 65, 66
2, 62280, Note_on_c, 0, 65, 0
2, 62280, Note_on_c, 0, 60, 0
2, 62280, Note_on_c, 0, 69, 0
2, 62280, Note_on_c, 0, 72, 0
2, 62280, Note_on_c, 0, 53, 0
2, 62280, Note_on_c, 0, 58, 66
2, 62280, Note_on_c, 0, 74, 76
2, 62280, Note_on_c, 0, 70, 76
2, 62280, Note_on_c, 0, 62, 76
2, 62280, Note_on_c, 0, 58, 76
2, 62310, Note_on_c, 0, 74, 66
2, 62340, Note_on_c, 0, 74, 0
2, 62340, Note_on_c, 0, 58, 0
2, 62340, Note_on_c, 0, 62, 66
2, 62370, Note_on_c, 0, 62, 0
2, 62370, Note_on_c, 0, 65, 66
2, 62400, Note_on_c, 0, 65, 0
2, 62400, Note_on_c, 0, 62, 0
2, 62400, Note_on_c, 0, 70, 0
2, 62400, Note_on_c, 0, 74, 0
2, 62400, Note_on_c, 0, 58, 0
2, 62400, Note_on_c, 0, 53, 66
2, 62400, Note_on_c, 0, 41, 66
2, 62400, Note_on_c, 0, 77, 76
2, 62400, Note_on_c, 0, 74, 76
2, 62400, Note_on_c, 0, 65, 76
2, 62400, Note_on_c, 0, 62, 76
2, 62430, Note_on_c, 0, 63, 66
2, 62460, Note_on_c, 0, 63, 0
2, 62460, Note_on_c, 0, 53, 0
2, 62460, Note_on_c, 0, 41, 0
2, 62460, Note_on_c, 0, 65, 66
2, 62490, Note_on_c, 0, 65, 0
2, 62490, Note_on_c, 0, 69, 66
2, 62520, Note_on_c, 0, 69, 0
2, 62520, Note_on_c, 0, 65, 0
2, 62520, Note_on_c, 0, 74, 0
2, 62520, Note_on_c, 0, 77, 0
2, 62520, Note_on_c, 0, 62, 0
2, 62520, Note_on_c, 0, 72, 68
2, 62520, Note_on_c, 0, 75, 73
2, 62520, Note_on_c, 0, 72, 73
2, 62520, Note_on_c, 0, 63, 73
2, 62520, Note_on_c, 0, 60, 73
2, 62550, Note_on_c, 0, 72, 0
2, 62550, Note_on_c, 0, 75, 68
2, 62580, Note_on_c, 0, 75, 0
2, 62580, Note_on_c, 0, 77, 68
2, 62610, Note_on_c, 0, 77, 0
2, 62610, Note_on_c, 0, 81, 68
2, 62640, Note_on_c, 0, 81, 0
2, 62640, Note_on_c, 0, 60, 0
2, 62640, Note_on_c, 0, 63, 0
2, 62640, Note_on_c, 0, 72, 0
2, 62640, Note_on_c, 0, 75, 0
2, 62640, Note_on_c, 0, 89, 71
2, 62640, Note_on_c, 0, 63, 66
2, 62640, Note_on_c, 0, 60, 66
2, 62640, Note_on_c, 0, 57, 76
2, 62640, Note_on_c, 0, 53, 76
2, 62640, Note_on_c, 0, 72, 71
2, 62640, Note_on_c, 0, 69, 71
2, 62640, Note_on_c, 0, 60, 71
2, 62640, Note_on_c, 0, 53, 71
2, 62670, Note_on_c, 0, 89, 0
2, 62670, Note_on_c, 0, 87, 71
2, 62700, Note_on_c, 0, 87, 0
2, 62700, Note_on_c, 0, 53, 0
2, 62700, Note_on_c, 0, 63, 0
2, 62700, Note_on_c, 0, 57, 0
2, 62700, Note_on_c, 0, 60, 0
2, 62700, Note_on_c, 0, 84, 71
2, 62730, Note_on_c, 0, 84, 0
2, 62730, Note_on_c, 0, 81, 71
2, 62760, Note_on_c, 0, 81, 0
2, 62760, Note_on_c, 0, 77, 68
2, 62760, Note_on_c, 0, 77, 66
2, 62790, Note_on_c, 0, 77, 0
2, 62790, Note_on_c, 0, 75, 68
2, 62820, Note_on_c, 0, 75, 0
2, 62820, Note_on_c, 0, 72, 68
2, 62850, Note_on_c, 0, 72, 0
2, 62850, Note_on_c, 0, 69, 68
2, 62880, Note_on_c, 0, 69, 0
2, 62880, Note_on_c, 0, 72, 0
2, 62880, Note_on_c, 0, 69, 0
2, 62880, Note_on_c, 0, 53, 0
2, 62880, Note_on_c, 0, 77, 0
2, 62880, Note_on_c, 0, 60, 0
2, 62880, Channel_aftertouch_c, 0, 91
2, 62880, Note_on_c, 0, 46, 71
2, 62880, Note_on_c, 0, 46, 71
2, 62880, Note_on_c, 0, 77, 81
2, 62880, Note_on_c, 0, 58, 71
2, 62910, Note_on_c, 0, 73, 71
2, 62940, Note_on_c, 0, 73, 0
2, 62940, Note_on_c, 0, 46, 0
2, 62940, Note_on_c, 0, 46, 0
2, 62940, Note_on_c, 0, 65, 71
2, 62970, Note_on_c, 0, 65, 0
2, 62970, Note_on_c, 0, 70, 71
2, 63000, Note_on_c, 0, 70, 0
2, 63000, Note_on_c, 0, 61, 71
2, 63000, Note_on_c, 0, 73, 71
2, 63000, Note_on_c, 0, 70, 71
2, 63000, Note_on_c, 0, 65, 71
2, 63030, Note_on_c, 0, 77, 71
2, 63060, Note_on_c, 0, 77, 0
2, 63060, Note_on_c, 0, 65, 71
2, 63090, Note_on_c, 0, 65, 0
2, 63090, Note_on_c, 0, 70, 71
2, 63120, Note_on_c, 0, 70, 0
2, 63120, Note_on_c, 0, 65, 0
2, 63120, Note_on_c, 0, 70, 0
2, 63120, Note_on_c, 0, 73, 0
2, 63120, Note_on_c, 0, 61, 0
2, 63120, Note_on_c, 0, 60, 71
2, 63120, Note_on_c, 0, 75, 71
2, 63120, Note_on_c, 0, 72, 71
2, 63120, Note_on_c, 0, 63, 71
2, 63150, Note_on_c, 0, 75, 71
2, 63180, Note_on_c, 0, 75, 0
2, 63180, Note_on_c, 0, 65, 71
2, 63210, Note_on_c, 0, 65, 0
2, 63210, Note_on_c, 0, 70, 71
2, 63240, Note_on_c, 0, 70, 0
2, 63240, Note_on_c, 0, 63, 0
2, 63240, Note_on_c, 0, 72, 0
2, 63240, Note_on_c, 0, 60, 0
2, 63240, Note_on_c, 0, 75, 0
2, 63240, Note_on_c, 0, 58, 71
2, 63240, Note_on_c, 0, 77, 71
2, 63240, Note_on_c, 0, 73, 71
2, 63240, Note_on_c, 0, 61, 71
2, 63270, Note_on_c, 0, 73, 71
2, 63300, Note_on_c, 0, 73, 0
2, 63300, Note_on_c, 0, 65, 71
2, 63330, Note_on_c, 0, 65, 0
2, 63330, Note_on_c, 0, 70, 71
2, 63360, Note_on_c, 0, 70, 0
2, 63360, Note_on_c, 0, 61, 0
2, 63360, Note_on_c, 0, 77, 0
2, 63360, Note_on_c, 0, 58, 0
2, 63360, Note_on_c, 0, 58, 0
2, 63360, Note_on_c, 0, 73, 0
2, 63360, Note_on_c, 0, 77, 0
2, 63360, Note_on_c, 0, 56, 71
2, 63360, Note_on_c, 0, 80, 71
2, 63360, Note_on_c, 0, 72, 71
2, 63360, Note_on_c, 0, 66, 71
2, 63360, Note_on_c, 0, 63, 71
2, 63360, Note_on_c, 0, 56, 71
2, 63390, Note_on_c, 0, 72, 71
2, 63420, Note_on_c, 0, 72, 0
2, 63420, Note_on_c, 0, 75, 71
2, 63450, Note_on_c, 0, 75, 0
2, 63450, Note_on_c, 0, 78, 71
2, 63480, Note_on_c, 0, 78, 0
2, 63480, Note_on_c, 0, 56, 0
2, 63480, Note_on_c, 0, 80, 0
2, 63480, Note_on_c, 0, 80, 73
2, 63480, Note_on_c, 0, 60, 68
2, 63480, Note_on_c, 0, 78, 68
2, 63510, Note_on_c, 0, 80, 0
2, 63510, Note_on_c, 0, 84, 73
2, 63540, Note_on_c, 0, 84, 0
2, 63540, Note_on_c, 0, 87, 73
2, 63570, Note_on_c, 0, 87, 0
2, 63570, Note_on_c, 0, 90, 73
2, 63600, Note_on_c, 0, 90, 0
2, 63600, Note_on_c, 0, 78, 0
2, 63600, Note_on_c, 0, 56, 0
2, 63600, Note_on_c, 0, 72, 0
2, 63600, Note_on_c, 0, 66, 0
2, 63600, Note_on_c, 0, 60, 0
2, 63600, Note_on_c, 0, 63, 0
2, 63600, Note_on_c, 0, 92, 76
2, 63600, Note_on_c, 0, 63, 66
2, 63600, Note_on_c, 0, 75, 66
2, 63600, Note_on_c, 0, 75, 66
2, 63600, Note_on_c, 0, 60, 66
2, 63600, Note_on_c, 0, 54, 66
2, 63630, Note_on_c, 0, 92, 0
2, 63630, Note_on_c, 0, 90, 76
2, 63660, Note_on_c, 0, 90, 0
2, 63660, Note_on_c, 0, 87, 76
2, 63690, Note_on_c, 0, 87, 0
2, 63690, Note_on_c, 0, 84, 76
2, 63720, Note_on_c, 0, 84, 0
2, 63720, Note_on_c, 0, 75, 0
2, 63720, Note_on_c, 0, 63, 0
2, 63720, Note_on_c, 0, 60, 0
2, 63720, Note_on_c, 0, 80, 73
2, 63720, Note_on_c, 0, 54, 66
2, 63720, Note_on_c, 0, 72, 66
2, 63720, Note_on_c, 0, 56, 66
2, 63750, Note_on_c, 0, 80, 0
2, 63750, Note_on_c, 0, 78, 73
2, 63780, Note_on_c, 0, 78, 0
2, 63780, Note_on_c, 0, 75, 73
2, 63810, Note_on_c, 0, 75, 0
2, 63810, Note_on_c, 0, 72, 73
2, 63840, Note_on_c, 0, 72, 0
2, 63840, Note_on_c, 0, 75, 0
2, 63840, Note_on_c, 0, 54, 0
2, 63840, Note_on_c, 0, 54, 0
2, 63840, Note_on_c, 0, 56, 0
2, 63840, Note_on_c, 0, 72, 0
2, 63840, Note_on_c, 0, 53, 71
2, 63840, Note_on_c, 0, 82, 76
2, 63840, Note_on_c, 0, 53, 76
2, 63870, Note_on_c, 0, 65, 71
2, 63900, Note_on_c, 0, 65, 0
2, 63900, Note_on_c, 0, 68, 71
2, 63930, Note_on_c, 0, 68, 0
2, 63930, Note_on_c, 0, 73, 71
2, 63960, Note_on_c, 0, 73, 0
2, 63960, Note_on_c, 0, 53, 0
2, 63960, Note_on_c, 0, 82, 0
2, 63960, Note_on_c, 0, 53, 0
2, 63960, Note_on_c, 0, 77, 73
2, 63960, Note_on_c, 0, 80, 73
2, 63960, Note_on_c, 0, 61, 73
2, 63960, Note_on_c, 0, 56, 73
2, 63990, Note_on_c, 0, 77, 0
2, 63990, Note_on_c, 0, 80, 73
2, 64020, Note_on_c, 0, 80, 0
2, 64020, Note_on_c, 0, 85, 73
2, 64050, Note_on_c, 0, 85, 0
2, 64050, Note_on_c, 0, 89, 73
2, 64080, Note_on_c, 0, 89, 0
2, 64080, Note_on_c, 0, 56, 0
2, 64080, Note_on_c, 0, 61, 0
2, 64080, Note_on_c, 0, 80, 0
2, 64080, Note_on_c, 0, 65, 76
2, 64080, Note_on_c, 0, 62, 76
2, 64080, Note_on_c, 0, 58, 76
2, 64080, Note_on_c, 0, 56, 76
2, 64080, Note_on_c, 0, 77, 71
2, 64080, Note_on_c, 0, 44, 71
2, 64110, Note_on_c, 0, 94, 76
2, 64140, Note_on_c, 0, 94, 0
2, 64140, Note_on_c, 0, 92, 76
2, 64170, Note_on_c, 0, 92, 0
2, 64170, Note_on_c, 0, 89, 76
2, 64200, Note_on_c, 0, 89, 0
2, 64200, Note_on_c, 0, 56, 0
2, 64200, Note_on_c, 0, 62, 0
2, 64200, Note_on_c, 0, 58, 0
2, 64200, Note_on_c, 0, 65, 0
2, 64200, Note_on_c, 0, 44, 0
2, 64200, Note_on_c, 0, 86, 79
2, 64200, Note_on_c, 0, 58, 71
2, 64200, Note_on_c, 0, 53, 71
2, 64200, Note_on_c, 0, 50, 71
2, 64230, Note_on_c, 0, 86, 0
2, 64230, Note_on_c, 0, 82, 79
2, 64260, Note_on_c, 0, 82, 0
2, 64260, Note_on_c, 0, 80, 79
2, 64290, Note_on_c, 0, 80, 0
2, 64290, Note_on_c, 0, 77, 79
2, 64320, Note_on_c, 0, 77, 0
2, 64320, Note_on_c, 0, 50, 0
2, 64320, Note_on_c, 0, 77, 0
2, 64320, Note_on_c, 0, 58, 0
2, 64320, Note_on_c, 0, 53, 0
2, 64320, Note_on_c, 0, 63, 79
2, 64320, Note_on_c, 0, 58, 79
2, 64320, Note_on_c, 0, 54, 79
2, 64320, Note_on_c, 0, 82, 71
2, 64320, Note_on_c, 0, 78, 71
2, 64320, Note_on_c, 0, 42, 71
2, 64350, Note_on_c, 0, 70, 81
2, 64380, Note_on_c, 0, 70, 0
2, 64380, Note_on_c, 0, 72, 81
2, 64410, Note_on_c, 0, 72, 0
2, 64410, Note_on_c, 0, 75, 81
2, 64440, Note_on_c, 0, 75, 0
2, 64440, Note_on_c, 0, 78, 0
2, 64440, Note_on_c, 0, 58, 0
2, 64440, Note_on_c, 0, 54, 0
2, 64440, Note_on_c, 0, 63, 0
2, 64440, Note_on_c, 0, 42, 0
2, 64440, Note_on_c, 0, 82, 0
2, 64440, Note_on_c, 0, 78, 84
2, 64440, Note_on_c, 0, 78, 71
2, 64440, Note_on_c, 0, 75, 71
2, 64440, Note_on_c, 0, 60, 71
2, 64440, Note_on_c, 0, 58, 71
2, 64470, Note_on_c, 0, 78, 0
2, 64470, Note_on_c, 0, 82, 84
2, 64500, Note_on_c, 0, 82, 0
2, 64500, Note_on_c, 0, 84, 84
2, 64530, Note_on_c, 0, 84, 0
2, 64530, Note_on_c, 0, 87, 84
2, 64560, Note_on_c, 0, 87, 0
2, 64560, Note_on_c, 0, 58, 0
2, 64560, Note_on_c, 0, 78, 0
2, 64560, Note_on_c, 0, 75, 0
2, 64560, Note_on_c, 0, 60, 0
2, 64560, Note_on_c, 0, 94, 86
2, 64560, Note_on_c, 0, 60, 84
2, 64560, Note_on_c, 0, 58, 84
2, 64560, Note_on_c, 0, 51, 84
2, 64560, Note_on_c, 0, 75, 71
2, 64560, Note_on_c, 0, 72, 71
2, 64590, Note_on_c, 0, 94, 0
2, 64590, Note_on_c, 0, 90, 86
2, 64620, Note_on_c, 0, 90, 0
2, 64620, Note_on_c, 0, 87, 86
2, 64650, Note_on_c, 0, 87, 0
2, 64650, Note_on_c, 0, 84, 86
2, 64680, Note_on_c, 0, 84, 0
2, 64680, Note_on_c, 0, 72, 0
2, 64680, Note_on_c, 0, 51, 0
2, 64680, Note_on_c, 0, 60, 0
2, 64680, Note_on_c, 0, 58, 0
2, 64680, Note_on_c, 0, 75, 0
2, 64680, Note_on_c, 0, 82, 84
2, 64680, Note_on_c, 0, 60, 81
2, 64680, Note_on_c, 0, 58, 81
2, 64680, Note_on_c, 0, 51, 81
2, 64680, Note_on_c, 0, 78, 71
2, 64680, Note_on_c, 0, 72, 71
2, 64680, Note_on_c, 0, 70, 71
2, 64680, Note_on_c, 0, 51, 71
2, 64680, Note_on_c, 0, 39, 71
2, 64710, Note_on_c, 0, 82, 0
2, 64710, Note_on_c, 0, 78, 84
2, 64740, Note_on_c, 0, 78, 0
2, 64740, Note_on_c, 0, 51, 0
2, 64740, Note_on_c, 0, 60, 0
2, 64740, Note_on_c, 0, 72, 0
2, 64740, Note_on_c, 0, 58, 0
2, 64740, Note_on_c, 0, 51, 0
2, 64740, Note_on_c, 0, 39, 0
2, 64740, Note_on_c, 0, 70, 0
2, 64740, Note_on_c, 0, 78, 0
2, 64740, Note_on_c, 0, 75, 84
2, 64740, Note_on_c, 0, 61, 81
2, 64740, Note_on_c, 0, 58, 81
2, 64740, Note_on_c, 0, 53, 81
2, 64740, Note_on_c, 0, 77, 71
2, 64740, Note_on_c, 0, 73, 71
2, 64740, Note_on_c, 0, 70, 71
2, 64740, Note_on_c, 0, 53, 71
2, 64740, Note_on_c, 0, 41, 71
2, 64770, Note_on_c, 0, 75, 0
2, 64770, Note_on_c, 0, 72, 84
2, 64800, Note_on_c, 0, 72, 0
2, 64800, Note_on_c, 0, 53, 0
2, 64800, Note_on_c, 0, 61, 0
2, 64800, Note_on_c, 0, 73, 0
2, 64800, Note_on_c, 0, 58, 0
2, 64800, Note_on_c, 0, 53, 0
2, 64800, Note_on_c, 0, 41, 0
2, 64800, Note_on_c, 0, 70, 0
2, 64800, Note_on_c, 0, 77, 0
2, 64800, Note_on_c, 0, 63, 81
2, 64800, Note_on_c, 0, 58, 81
2, 64800, Note_on_c, 0, 54, 81
2, 64800, Note_on_c, 0, 82, 73
2, 64800, Note_on_c, 0, 77, 73
2, 64800, Note_on_c, 0, 70, 73
2, 64800, Note_on_c, 0, 54, 73
2, 64800, Note_on_c, 0, 42, 73
2, 64830, Note_on_c, 0, 70, 81
2, 64860, Note_on_c, 0, 70, 0
2, 64860, Note_on_c, 0, 72, 81
2, 64890, Note_on_c, 0, 72, 0
2, 64890, Note_on_c, 0, 75, 81
2, 64920, Note_on_c, 0, 75, 0
2, 64920, Note_on_c, 0, 82, 0
2, 64920, Note_on_c, 0, 63, 0
2, 64920, Note_on_c, 0, 54, 0
2, 64920, Note_on_c, 0, 58, 0
2, 64920, Note_on_c, 0, 77, 0
2, 64920, Note_on_c, 0, 78, 84
2, 64920, Note_on_c, 0, 78, 76
2, 64920, Note_on_c, 0, 75, 76
2, 64950, Note_on_c, 0, 78, 0
2, 64950, Note_on_c, 0, 82, 84
2, 64980, Note_on_c, 0, 82, 0
2, 64980, Note_on_c, 0, 84, 84
2, 65010, Note_on_c, 0, 84, 0
2, 65010, Note_on_c, 0, 87, 84
2, 65040, Note_on_c, 0, 87, 0
2, 65040, Note_on_c, 0, 75, 0
2, 65040, Note_on_c, 0, 42, 0
2, 65040, Note_on_c, 0, 54, 0
2, 65040, Note_on_c, 0, 78, 0
2, 65040, Note_on_c, 0, 94, 86
2, 65040, Note_on_c, 0, 60, 86
2, 65040, Note_on_c, 0, 58, 86
2, 65040, Note_on_c, 0, 51, 86
2, 65040, Note_on_c, 0, 75, 79
2, 65040, Note_on_c, 0, 72, 79
2, 65070, Note_on_c, 0, 94, 0
2, 65070, Note_on_c, 0, 90, 86
2, 65100, Note_on_c, 0, 90, 0
2, 65100, Note_on_c, 0, 87, 86
2, 65130, Note_on_c, 0, 87, 0
2, 65130, Note_on_c, 0, 84, 86
2, 65160, Note_on_c, 0, 84, 0
2, 65160, Note_on_c, 0, 72, 0
2, 65160, Note_on_c, 0, 60, 0
2, 65160, Note_on_c, 0, 58, 0
2, 65160, Note_on_c, 0, 70, 0
2, 65160, Note_on_c, 0, 75, 0
2, 65160, Note_on_c, 0, 51, 0
2, 65160, Note_on_c, 0, 82, 81
2, 65160, Note_on_c, 0, 60, 81
2, 65160, Note_on_c, 0, 58, 81
2, 65160, Note_on_c, 0, 51, 81
2, 65160, Note_on_c, 0, 78, 76
2, 65160, Note_on_c, 0, 72, 76
2, 65160, Note_on_c, 0, 70, 81
2, 65160, Note_on_c, 0, 51, 81
2, 65160, Note_on_c, 0, 39, 81
2, 65190, Note_on_c, 0, 82, 0
2, 65190, Note_on_c, 0, 78, 81
2, 65220, Note_on_c, 0, 78, 0
2, 65220, Note_on_c, 0, 51, 0
2, 65220, Note_on_c, 0, 60, 0
2, 65220, Note_on_c, 0, 72, 0
2, 65220, Note_on_c, 0, 58, 0
2, 65220, Note_on_c, 0, 51, 0
2, 65220, Note_on_c, 0, 39, 0
2, 65220, Note_on_c, 0, 70, 0
2, 65220, Note_on_c, 0, 78, 0
2, 65220, Note_on_c, 0, 75, 76
2, 65220, Note_on_c, 0, 61, 76
2, 65220, Note_on_c, 0, 58, 76
2, 65220, Note_on_c, 0, 53, 76
2, 65220, Note_on_c, 0, 77, 76
2, 65220, Note_on_c, 0, 73, 76
2, 65220, Note_on_c, 0, 70, 76
2, 65220, Note_on_c, 0, 53, 76
2, 65220, Note_on_c, 0, 41, 76
2, 65250, Note_on_c, 0, 75, 0
2, 65250, Note_on_c, 0, 72, 76
2, 65280, Note_on_c, 0, 72, 0
2, 65280, Note_on_c, 0, 53, 0
2, 65280, Note_on_c, 0, 61, 0
2, 65280, Note_on_c, 0, 73, 0
2, 65280, Note_on_c, 0, 58, 0
2, 65280, Note_on_c, 0, 53, 0
2, 65280, Note_on_c, 0, 41, 0
2, 65280, Note_on_c, 0, 70, 0
2, 65280, Note_on_c, 0, 77, 0
2, 65280, Note_on_c, 0, 63, 76
2, 65280, Note_on_c, 0, 58, 76
2, 65280, Note_on_c, 0, 54, 76
2, 65280, Note_on_c, 0, 82, 76
2, 65280, Note_on_c, 0, 77, 76
2, 65280, Note_on_c, 0, 70, 76
2, 65280, Note_on_c, 0, 54, 76
2, 65280, Note_on_c, 0, 42, 76
2, 65310, Note_on_c, 0, 70, 76
2, 65340, Note_on_c, 0, 70, 0
2, 65340, Note_on_c, 0, 72, 76
2, 65370, Note_on_c, 0, 72, 0
2, 65370, Note_on_c, 0, 75, 76
2, 65400, Note_on_c, 0, 75, 0
2, 65400, Note_on_c, 0, 82, 0
2, 65400, Note_on_c, 0, 63, 0
2, 65400, Note_on_c, 0, 54, 0
2, 65400, Note_on_c, 0, 58, 0
2, 65400, Note_on_c, 0, 77, 0
2, 65400, Note_on_c, 0, 78, 80
2, 65400, Note_on_c, 0, 78, 76
2, 65400, Note_on_c, 0, 75, 76
2, 65430, Note_on_c, 0, 78, 0
2, 65430, Note_on_c, 0, 82, 80
2, 65460, Note_on_c, 0, 82, 0
2, 65460, Note_on_c, 0, 84, 80
2, 65490, Note_on_c, 0, 84, 0
2, 65490, Note_on_c, 0, 87, 80
2, 65520, Note_on_c, 0, 87, 0
2, 65520, Note_on_c, 0, 75, 0
2, 65520, Note_on_c, 0, 42, 0
2, 65520, Note_on_c, 0, 54, 0
2, 65520, Note_on_c, 0, 78, 0
2, 65520, Note_on_c, 0, 94, 84
2, 65520, Note_on_c, 0, 75, 76
2, 65520, Note_on_c, 0, 72, 76
2, 65550, Note_on_c, 0, 94, 0
2, 65550, Note_on_c, 0, 90, 84
2, 65580, Note_on_c, 0, 90, 0
2, 65580, Note_on_c, 0, 87, 84
2, 65610, Note_on_c, 0, 87, 0
2, 65610, Note_on_c, 0, 84, 84
2, 65640, Note_on_c, 0, 84, 0
2, 65640, Note_on_c, 0, 72, 0
2, 65640, Note_on_c, 0, 75, 0
2, 65640, Note_on_c, 0, 70, 0
2, 65640, Note_on_c, 0, 82, 71
2, 65640, Note_on_c, 0, 60, 71
2, 65640, Note_on_c, 0, 58, 71
2, 65640, Note_on_c, 0, 54, 71
2, 65640, Note_on_c, 0, 51, 71
2, 65640, Note_on_c, 0, 70, 71
2, 65640, Note_on_c, 0, 66, 71
2, 65640, Note_on_c, 0, 51, 71
2, 65640, Note_on_c, 0, 39, 71
2, 65670, Note_on_c, 0, 82, 0
2, 65670, Note_on_c, 0, 78, 71
2, 65700, Note_on_c, 0, 78, 0
2, 65700, Note_on_c, 0, 51, 0
2, 65700, Note_on_c, 0, 60, 0
2, 65700, Note_on_c, 0, 70, 0
2, 65700, Note_on_c, 0, 58, 0
2, 65700, Note_on_c, 0, 54, 0
2, 65700, Note_on_c, 0, 39, 0
2, 65700, Note_on_c, 0, 66, 0
2, 65700, Note_on_c, 0, 51, 0
2, 65700, Note_on_c, 0, 75, 71
2, 65730, Note_on_c, 0, 75, 0
2, 65730, Note_on_c, 0, 72, 71
2, 65760, Note_on_c, 0, 72, 0
2, 65760, Note_on_c, 0, 81, 71
2, 65760, Note_on_c, 0, 60, 71
2, 65760, Note_on_c, 0, 57, 71
2, 65760, Note_on_c, 0, 54, 71
2, 65760, Note_on_c, 0, 51, 71
2, 65760, Note_on_c, 0, 69, 71
2, 65760, Note_on_c, 0, 66, 71
2, 65760, Note_on_c, 0, 60, 71
2, 65760, Note_on_c, 0, 39, 71
2, 65790, Note_on_c, 0, 81, 0
2, 65790, Note_on_c, 0, 78, 71
2, 65820, Note_on_c, 0, 78, 0
2, 65820, Note_on_c, 0, 60, 0
2, 65820, Note_on_c, 0, 60, 0
2, 65820, Note_on_c, 0, 69, 0
2, 65820, Note_on_c, 0, 57, 0
2, 65820, Note_on_c, 0, 54, 0
2, 65820, Note_on_c, 0, 39, 0
2, 65820, Note_on_c, 0, 66, 0
2, 65820, Note_on_c, 0, 51, 0
2, 65820, Note_on_c, 0, 75, 71
2, 65850, Note_on_c, 0, 75, 0
2, 65850, Note_on_c, 0, 72, 71
2, 65880, Note_on_c, 0, 72, 0
2, 65880, Note_on_c, 0, 78, 71
2, 65880, Note_on_c, 0, 60, 71
2, 65880, Note_on_c, 0, 57, 71
2, 65880, Note_on_c, 0, 54, 71
2, 65880, Note_on_c, 0, 51, 71
2, 65880, Note_on_c, 0, 66, 71
2, 65880, Note_on_c, 0, 60, 71
2, 65880, Note_on_c, 0, 57, 71
2, 65880, Note_on_c, 0, 39, 71
2, 65910, Note_on_c, 0, 78, 0
2, 65910, Note_on_c, 0, 75, 71
2, 65940, Note_on_c, 0, 75, 0
2, 65940, Note_on_c, 0, 57, 0
2, 65940, Note_on_c, 0, 60, 0
2, 65940, Note_on_c, 0, 66, 0
2, 65940, Note_on_c, 0, 57, 0
2, 65940, Note_on_c, 0, 54, 0
2, 65940, Note_on_c, 0, 39, 0
2, 65940, Note_on_c, 0, 60, 0
2, 65940, Note_on_c, 0, 51, 0
2, 65940, Note_on_c, 0, 72, 71
2, 65970, Note_on_c, 0, 72, 0
2, 65970, Note_on_c, 0, 69, 71
2, 66000, Note_on_c, 0, 69, 0
2, 66000, Note_on_c, 0, 75, 71
2, 66000, Note_on_c, 0, 60, 71
2, 66000, Note_on_c, 0, 57, 71
2, 66000, Note_on_c, 0, 54, 71
2, 66000, Note_on_c, 0, 51, 71
2, 66000, Note_on_c, 0, 63, 71
2, 66000, Note_on_c, 0, 57, 71
2, 66000, Note_on_c, 0, 54, 71
2, 66000, Note_on_c, 0, 39, 71
2, 66030, Note_on_c, 0, 75, 0
2, 66030, Note_on_c, 0, 72, 71
2, 66060, Note_on_c, 0, 72, 0
2, 66060, Note_on_c, 0, 54, 0
2, 66060, Note_on_c, 0, 60, 0
2, 66060, Note_on_c, 0, 63, 0
2, 66060, Note_on_c, 0, 57, 0
2, 66060, Note_on_c, 0, 54, 0
2, 66060, Note_on_c, 0, 39, 0
2, 66060, Note_on_c, 0, 57, 0
2, 66060, Note_on_c, 0, 51, 0
2, 66060, Note_on_c, 0, 69, 71
2, 66090, Note_on_c, 0, 69, 0
2, 66090, Note_on_c, 0, 66, 71
2, 66120, Note_on_c, 0, 66, 0
2, 66120, Note_on_c, 0, 72, 71
2, 66120, Note_on_c, 0, 60, 71
2, 66120, Note_on_c, 0, 57, 71
2, 66120, Note_on_c, 0, 54, 71
2, 66120, Note_on_c, 0, 51, 71
2, 66120, Note_on_c, 0, 60, 71
2, 66120, Note_on_c, 0, 57, 71
2, 66120, Note_on_c, 0, 54, 71
2, 66120, Note_on_c, 0, 39, 71
2, 66150, Note_on_c, 0, 72, 0
2, 66150, Note_on_c, 0, 69, 71
2, 66180, Note_on_c, 0, 69, 0
2, 66180, Note_on_c, 0, 54, 0
2, 66180, Note_on_c, 0, 60, 0
2, 66180, Note_on_c, 0, 60, 0
2, 66180, Note_on_c, 0, 57, 0
2, 66180, Note_on_c, 0, 54, 0
2, 66180, Note_on_c, 0, 39, 0
2, 66180, Note_on_c, 0, 57, 0
2, 66180, Note_on_c, 0, 51, 0
2, 66180, Note_on_c, 0, 66, 71
2, 66210, Note_on_c, 0, 66, 0
2, 66210, Note_on_c, 0, 63, 71
2, 66240, Note_on_c, 0, 63, 0
2, 66240, Note_on_c, 0, 58, 65
2, 66240, Note_on_c, 0, 50, 65
2, 66240, Note_on_c, 0, 65, 65
2, 66240, Note_on_c, 0, 62, 65
2, 66240, Note_on_c, 0, 53, 65
2, 66240, Note_on_c, 0, 50, 65
2, 66240, Note_on_c, 0, 38, 65
2, 66270, Note_on_c, 0, 50, 0
2, 66270, Note_on_c, 0, 58, 0
2, 66270, Note_on_c, 0, 60, 65
2, 66270, Note_on_c, 0, 51, 65
2, 66300, Note_on_c, 0, 51, 0
2, 66300, Note_on_c, 0, 50, 0
2, 66300, Note_on_c, 0, 38, 0
2, 66300, Note_on_c, 0, 60, 0
2, 66300, Note_on_c, 0, 62, 65
2, 66300, Note_on_c, 0, 53, 65
2, 66330, Note_on_c, 0, 62, 0
2, 66330, Note_on_c, 0, 53, 0
2, 66330, Note_on_c, 0, 63, 65
2, 66330, Note_on_c, 0, 55, 65
2, 66360, Note_on_c, 0, 55, 0
2, 66360, Note_on_c, 0, 63, 0
2, 66360, Note_on_c, 0, 65, 65
2, 66360, Note_on_c, 0, 57, 65
2, 66390, Note_on_c, 0, 57, 0
2, 66390, Note_on_c, 0, 65, 0
2, 66390, Note_on_c, 0, 67, 65
2, 66390, Note_on_c, 0, 58, 65
2, 66420, Note_on_c, 0, 58, 0
2, 66420, Note_on_c, 0, 62, 0
2, 66420, Note_on_c, 0, 65, 0
2, 66420, Note_on_c, 0, 53, 0
2, 66420, Note_on_c, 0, 67, 0
2, 66420, Note_on_c, 0, 69, 65
2, 66420, Note_on_c, 0, 60, 65
2, 66420, Note_on_c, 0, 62, 65
2, 66420, Note_on_c, 0, 58, 65
2, 66450, Note_on_c, 0, 60, 0
2, 66450, Note_on_c, 0, 69, 0
2, 66450, Note_on_c, 0, 70, 65
2, 66450, Note_on_c, 0, 62, 65
2, 66480, Note_on_c, 0, 62, 0
2, 66480, Note_on_c, 0, 58, 0
2, 66480, Note_on_c, 0, 62, 0
2, 66480, Note_on_c, 0, 70, 0
2, 66480, Note_on_c, 0, 72, 65
2, 66480, Note_on_c, 0, 63, 65
2, 66480, Note_on_c, 0, 65, 65
2, 66480, Note_on_c, 0, 62, 65
2, 66510, Note_on_c, 0, 63, 0
2, 66510, Note_on_c, 0, 72, 0
2, 66510, Note_on_c, 0, 74, 65
2, 66510, Note_on_c, 0, 65, 65
2, 66540, Note_on_c, 0, 74, 0
2, 66540, Note_on_c, 0, 65, 0
2, 66540, Note_on_c, 0, 75, 65
2, 66540, Note_on_c, 0, 67, 65
2, 66570, Note_on_c, 0, 67, 0
2, 66570, Note_on_c, 0, 75, 0
2, 66570, Note_on_c, 0, 77, 65
2, 66570, Note_on_c, 0, 69, 65
2, 66600, Note_on_c, 0, 69, 0
2, 66600, Note_on_c, 0, 77, 0
2, 66600, Note_on_c, 0, 79, 66
2, 66600, Note_on_c, 0, 70, 66
2, 66630, Note_on_c, 0, 70, 0
2, 66630, Note_on_c, 0, 79, 0
2, 66630, Note_on_c, 0, 81, 66
2, 66630, Note_on_c, 0, 72, 66
2, 66660, Note_on_c, 0, 72, 0
2, 66660, Note_on_c, 0, 65, 0
2, 66660, Note_on_c, 0, 62, 0
2, 66660, Note_on_c, 0, 81, 0
2, 66660, Note_on_c, 0, 82, 66
2, 66660, Note_on_c, 0, 74, 66
2, 66660, Note_on_c, 0, 62, 65
2, 66660, Note_on_c, 0, 58, 65
2, 66690, Note_on_c, 0, 74, 0
2, 66690, Note_on_c, 0, 82, 0
2, 66690, Note_on_c, 0, 84, 66
2, 66690, Note_on_c, 0, 75, 66
2, 66720, Note_on_c, 0, 75, 0
2, 66720, Note_on_c, 0, 58, 0
2, 66720, Note_on_c, 0, 62, 0
2, 66720, Note_on_c, 0, 84, 0
2, 66720, Note_on_c, 0, 86, 70
2, 66720, Note_on_c, 0, 77, 70
2, 66720, Note_on_c, 0, 65, 65
2, 66720, Note_on_c, 0, 53, 65
2, 66750, Note_on_c, 0, 86, 0
2, 66750, Note_on_c, 0, 87, 70
2, 66780, Note_on_c, 0, 87, 0
2, 66780, Note_on_c, 0, 77, 0
2, 66780, Note_on_c, 0, 89, 70
2, 66810, Note_on_c, 0, 89, 0
2, 66810, Note_on_c, 0, 91, 70
2, 66840, Note_on_c, 0, 91, 0
2, 66840, Note_on_c, 0, 92, 79
2, 66840, Note_on_c, 0, 59, 79
2, 66840, Note_on_c, 0, 56, 79
2, 66840, Note_on_c, 0, 53, 79
2, 66840, Note_on_c, 0, 50, 79
2, 66840, Note_on_c, 0, 56, 79
2, 66840, Note_on_c, 0, 50, 79
2, 66870, Note_on_c, 0, 92, 0
2, 66870, Note_on_c, 0, 89, 73
2, 66900, Note_on_c, 0, 89, 0
2, 66900, Note_on_c, 0, 56, 0
2, 66900, Note_on_c, 0, 56, 0
2, 66900, Note_on_c, 0, 53, 0
2, 66900, Note_on_c, 0, 50, 0
2, 66900, Note_on_c, 0, 59, 0
2, 66900, Note_on_c, 0, 50, 0
2, 66900, Note_on_c, 0, 86, 73
2, 66930, Note_on_c, 0, 86, 0
2, 66930, Note_on_c, 0, 83, 73
2, 66960, Note_on_c, 0, 83, 0
2, 66960, Note_on_c, 0, 65, 0
2, 66960, Note_on_c, 0, 53, 0
2, 66960, Note_on_c, 0, 80, 73
2, 66960, Note_on_c, 0, 59, 73
2, 66960, Note_on_c, 0, 56, 73
2, 66960, Note_on_c, 0, 53, 73
2, 66960, Note_on_c, 0, 50, 73
2, 66960, Note_on_c, 0, 59, 73
2, 66960, Note_on_c, 0, 56, 73
2, 66960, Note_on_c, 0, 50, 73
2, 66990, Note_on_c, 0, 80, 0
2, 66990, Note_on_c, 0, 77, 73
2, 67020, Note_on_c, 0, 77, 0
2, 67020, Note_on_c, 0, 50, 0
2, 67020, Note_on_c, 0, 59, 0
2, 67020, Note_on_c, 0, 56, 0
2, 67020, Note_on_c, 0, 53, 0
2, 67020, Note_on_c, 0, 50, 0
2, 67020, Note_on_c, 0, 56, 0
2, 67020, Note_on_c, 0, 59, 0
2, 67020, Note_on_c, 0, 74, 73
2, 67050, Note_on_c, 0, 74, 0
2, 67050, Note_on_c, 0, 71, 73
2, 67080, Note_on_c, 0, 71, 0
2, 67080, Note_on_c, 0, 68, 73
2, 67080, Note_on_c, 0, 59, 73
2, 67080, Note_on_c, 0, 56, 73
2, 67080, Note_on_c, 0, 53, 73
2, 67080, Note_on_c, 0, 50, 73
2, 67080, Note_on_c, 0, 59, 73
2, 67080, Note_on_c, 0, 56, 73
2, 67080, Note_on_c, 0, 50, 73
2, 67110, Note_on_c, 0, 68, 0
2, 67110, Note_on_c, 0, 65, 73
2, 67140, Note_on_c, 0, 65, 0
2, 67140, Note_on_c, 0, 50, 0
2, 67140, Note_on_c, 0, 59, 0
2, 67140, Note_on_c, 0, 56, 0
2, 67140, Note_on_c, 0, 53, 0
2, 67140, Note_on_c, 0, 50, 0
2, 67140, Note_on_c, 0, 56, 0
2, 67140, Note_on_c, 0, 59, 0
2, 67140, Note_on_c, 0, 62, 73
2, 67170, Note_on_c, 0, 62, 0
2, 67170, Note_on_c, 0, 59, 73
2, 67200, Note_on_c, 0, 59, 0
2, 67200, Note_on_c, 0, 60, 71
2, 67200, Note_on_c, 0, 51, 71
2, 67200, Note_on_c, 0, 79, 71
2, 67200, Note_on_c, 0, 75, 71
2, 67200, Note_on_c, 0, 60, 71
2, 67200, Note_on_c, 0, 55, 71
2, 67200, Note_on_c, 0, 51, 71
2, 67230, Note_on_c, 0, 51, 0
2, 67230, Note_on_c, 0, 60, 0
2, 67230, Note_on_c, 0, 62, 71
2, 67230, Note_on_c, 0, 53, 71
2, 67260, Note_on_c, 0, 53, 0
2, 67260, Note_on_c, 0, 55, 0
2, 67260, Note_on_c, 0, 51, 0
2, 67260, Note_on_c, 0, 60, 0
2, 67260, Note_on_c, 0, 62, 0
2, 67260, Note_on_c, 0, 63, 71
2, 67260, Note_on_c, 0, 55, 71
2, 67290, Note_on_c, 0, 55, 0
2, 67290, Note_on_c, 0, 63, 0
2, 67290, Note_on_c, 0, 65, 71
2, 67290, Note_on_c, 0, 57, 71
2, 67320, Note_on_c, 0, 57, 0
2, 67320, Note_on_c, 0, 65, 0
2, 67320, Note_on_c, 0, 67, 71
2, 67320, Note_on_c, 0, 59, 71
2, 67350, Note_on_c, 0, 59, 0
2, 67350, Note_on_c, 0, 67, 0
2, 67350, Note_on_c, 0, 69, 71
2, 67350, Note_on_c, 0, 60, 71
2, 67380, Note_on_c, 0, 60, 0
2, 67380, Note_on_c, 0, 79, 0
2, 67380, Note_on_c, 0, 75, 0
2, 67380, Note_on_c, 0, 69, 0
2, 67380, Note_on_c, 0, 71, 71
2, 67380, Note_on_c, 0, 62, 71
2, 67380, Note_on_c, 0, 75, 71
2, 67380, Note_on_c, 0, 72, 71
2, 67410, Note_on_c, 0, 62, 0
2, 67410, Note_on_c, 0, 71, 0
2, 67410, Note_on_c, 0, 72, 71
2, 67410, Note_on_c, 0, 63, 71
2, 67440, Note_on_c, 0, 63, 0
2, 67440, Note_on_c, 0, 72, 0
2, 67440, Note_on_c, 0, 75, 0
2, 67440, Note_on_c, 0, 72, 0
2, 67440, Note_on_c, 0, 74, 71
2, 67440, Note_on_c, 0, 65, 71
2, 67440, Note_on_c, 0, 79, 71
2, 67440, Note_on_c, 0, 75, 71
2, 67470, Note_on_c, 0, 65, 0
2, 67470, Note_on_c, 0, 74, 0
2, 67470, Note_on_c, 0, 75, 71
2, 67470, Note_on_c, 0, 67, 71
2, 67500, Note_on_c, 0, 67, 0
2, 67500, Note_on_c, 0, 75, 0
2, 67500, Note_on_c, 0, 77, 71
2, 67500, Note_on_c, 0, 69, 71
2, 67530, Note_on_c, 0, 69, 0
2, 67530, Note_on_c, 0, 77, 0
2, 67530, Note_on_c, 0, 79, 71
2, 67530, Note_on_c, 0, 71, 71
2, 67560, Note_on_c, 0, 71, 0
2, 67560, Note_on_c, 0, 79, 0
2, 67560, Note_on_c, 0, 81, 73
2, 67560, Note_on_c, 0, 72, 73
2, 67590, Note_on_c, 0, 72, 0
2, 67590, Note_on_c, 0, 81, 0
2, 67590, Note_on_c, 0, 83, 73
2, 67590, Note_on_c, 0, 74, 73
2, 67620, Note_on_c, 0, 74, 0
2, 67620, Note_on_c, 0, 75, 0
2, 67620, Note_on_c, 0, 79, 0
2, 67620, Note_on_c, 0, 83, 0
2, 67620, Note_on_c, 0, 84, 73
2, 67620, Note_on_c, 0, 75, 73
2, 67620, Note_on_c, 0, 75, 71
2, 67620, Note_on_c, 0, 72, 71
2, 67650, Note_on_c, 0, 75, 0
2, 67650, Note_on_c, 0, 84, 0
2, 67650, Note_on_c, 0, 86, 73
2, 67650, Note_on_c, 0, 77, 73
2, 67680, Note_on_c, 0, 77, 0
2, 67680, Note_on_c, 0, 72, 0
2, 67680, Note_on_c, 0, 75, 0
2, 67680, Note_on_c, 0, 86, 0
2, 67680, Note_on_c, 0, 87, 76
2, 67680, Note_on_c, 0, 79, 76
2, 67680, Note_on_c, 0, 79, 71
2, 67680, Note_on_c, 0, 67, 71
2, 67710, Note_on_c, 0, 87, 0
2, 67710, Note_on_c, 0, 89, 76
2, 67740, Note_on_c, 0, 89, 0
2, 67740, Note_on_c, 0, 79, 0
2, 67740, Note_on_c, 0, 91, 76
2, 67770, Note_on_c, 0, 91, 0
2, 67770, Note_on_c, 0, 93, 76
2, 67800, Note_on_c, 0, 93, 0
2, 67800, Note_on_c, 0, 94, 81
2, 67800, Note_on_c, 0, 61, 81
2, 67800, Note_on_c, 0, 58, 81
2, 67800, Note_on_c, 0, 55, 81
2, 67800, Note_on_c, 0, 52, 81
2, 67800, Note_on_c, 0, 58, 71
2, 67800, Note_on_c, 0, 52, 71
2, 67830, Note_on_c, 0, 94, 0
2, 67830, Note_on_c, 0, 91, 76
2, 67860, Note_on_c, 0, 91, 0
2, 67860, Note_on_c, 0, 58, 0
2, 67860, Note_on_c, 0, 58, 0
2, 67860, Note_on_c, 0, 55, 0
2, 67860, Note_on_c, 0, 52, 0
2, 67860, Note_on_c, 0, 61, 0
2, 67860, Note_on_c, 0, 52, 0
2, 67860, Note_on_c, 0, 88, 76
2, 67890, Note_on_c, 0, 88, 0
2, 67890, Note_on_c, 0, 85, 76
2, 67920, Note_on_c, 0, 85, 0
2, 67920, Note_on_c, 0, 67, 0
2, 67920, Note_on_c, 0, 79, 0
2, 67920, Note_on_c, 0, 82, 76
2, 67920, Note_on_c, 0, 61, 76
2, 67920, Note_on_c, 0, 58, 76
2, 67920, Note_on_c, 0, 55, 76
2, 67920, Note_on_c, 0, 52, 76
2, 67920, Note_on_c, 0, 61, 71
2, 67920, Note_on_c, 0, 58, 71
2, 67920, Note_on_c, 0, 52, 71
2, 67950, Note_on_c, 0, 82, 0
2, 67950, Note_on_c, 0, 79, 76
2, 67980, Note_on_c, 0, 79, 0
2, 67980, Note_on_c, 0, 52, 0
2, 67980, Note_on_c, 0, 61, 0
2, 67980, Note_on_c, 0, 58, 0
2, 67980, Note_on_c, 0, 55, 0
2, 67980, Note_on_c, 0, 52, 0
2, 67980, Note_on_c, 0, 58, 0
2, 67980, Note_on_c, 0, 61, 0
2, 67980, Note_on_c, 0, 76, 76
2, 68010, Note_on_c, 0, 76, 0
2, 68010, Note_on_c, 0, 73, 76
2, 68040, Note_on_c, 0, 73, 0
2, 68040, Note_on_c, 0, 70, 76
2, 68040, Note_on_c, 0, 61, 76
2, 68040, Note_on_c, 0, 58, 76
2, 68040, Note_on_c, 0, 55, 76
2, 68040, Note_on_c, 0, 52, 76
2, 68040, Note_on_c, 0, 61, 71
2, 68040, Note_on_c, 0, 58, 71
2, 68040, Note_on_c, 0, 52, 71
2, 68070, Note_on_c, 0, 70, 0
2, 68070, Note_on_c, 0, 67, 76
2, 68100, Note_on_c, 0, 67, 0
2, 68100, Note_on_c, 0, 52, 0
2, 68100, Note_on_c, 0, 61, 0
2, 68100, Note_on_c, 0, 58, 0
2, 68100, Note_on_c, 0, 55, 0
2, 68100, Note_on_c, 0, 52, 0
2, 68100, Note_on_c, 0, 58, 0
2, 68100, Note_on_c, 0, 61, 0
2, 68100, Note_on_c, 0, 64, 76
2, 68130, Note_on_c, 0, 64, 0
2, 68130, Note_on_c, 0, 61, 76
2, 68160, Note_on_c, 0, 61, 0
2, 68160, Note_on_c, 0, 62, 66
2, 68160, Note_on_c, 0, 53, 66
2, 68160, Note_on_c, 0, 81, 66
2, 68160, Note_on_c, 0, 77, 66
2, 68160, Note_on_c, 0, 62, 66
2, 68160, Note_on_c, 0, 57, 66
2, 68160, Note_on_c, 0, 53, 66
2, 68190, Note_on_c, 0, 53, 0
2, 68190, Note_on_c, 0, 62, 0
2, 68190, Note_on_c, 0, 64, 66
2, 68190, Note_on_c, 0, 55, 66
2, 68220, Note_on_c, 0, 55, 0
2, 68220, Note_on_c, 0, 57, 0
2, 68220, Note_on_c, 0, 53, 0
2, 68220, Note_on_c, 0, 62, 0
2, 68220, Note_on_c, 0, 64, 0
2, 68220, Note_on_c, 0, 65, 66
2, 68220, Note_on_c, 0, 57, 66
2, 68250, Note_on_c, 0, 57, 0
2, 68250, Note_on_c, 0, 65, 0
2, 68250, Note_on_c, 0, 67, 66
2, 68250, Note_on_c, 0, 59, 66
2, 68280, Note_on_c, 0, 59, 0
2, 68280, Note_on_c, 0, 67, 0
2, 68280, Note_on_c, 0, 69, 66
2, 68280, Note_on_c, 0, 61, 66
2, 68310, Note_on_c, 0, 61, 0
2, 68310, Note_on_c, 0, 69, 0
2, 68310, Note_on_c, 0, 71, 66
2, 68310, Note_on_c, 0, 62, 66
2, 68340, Note_on_c, 0, 62, 0
2, 68340, Note_on_c, 0, 81, 0
2, 68340, Note_on_c, 0, 77, 0
2, 68340, Note_on_c, 0, 71, 0
2, 68340, Note_on_c, 0, 73, 66
2, 68340, Note_on_c, 0, 64, 66
2, 68340, Note_on_c, 0, 77, 66
2, 68340, Note_on_c, 0, 74, 66
2, 68370, Note_on_c, 0, 64, 0
2, 68370, Note_on_c, 0, 73, 0
2, 68370, Note_on_c, 0, 74, 66
2, 68370, Note_on_c, 0, 65, 66
2, 68400, Note_on_c, 0, 65, 0
2, 68400, Note_on_c, 0, 74, 0
2, 68400, Note_on_c, 0, 77, 0
2, 68400, Note_on_c, 0, 74, 0
2, 68400, Note_on_c, 0, 76, 66
2, 68400, Note_on_c, 0, 67, 66
2, 68400, Note_on_c, 0, 81, 66
2, 68400, Note_on_c, 0, 77, 66
2, 68430, Note_on_c, 0, 67, 0
2, 68430, Note_on_c, 0, 76, 0
2, 68430, Note_on_c, 0, 77, 66
2, 68430, Note_on_c, 0, 69, 66
2, 68460, Note_on_c, 0, 69, 0
2, 68460, Note_on_c, 0, 77, 0
2, 68460, Note_on_c, 0, 79, 66
2, 68460, Note_on_c, 0, 71, 66
2, 68490, Note_on_c, 0, 71, 0
2, 68490, Note_on_c, 0, 79, 0
2, 68490, Note_on_c, 0, 81, 66
2, 68490, Note_on_c, 0, 73, 66
2, 68520, Note_on_c, 0, 73, 0
2, 68520, Note_on_c, 0, 81, 0
2, 68520, Note_on_c, 0, 83, 66
2, 68520, Note_on_c, 0, 74, 66
2, 68550, Note_on_c, 0, 74, 0
2, 68550, Note_on_c, 0, 83, 0
2, 68550, Note_on_c, 0, 85, 66
2, 68550, Note_on_c, 0, 76, 66
2, 68580, Note_on_c, 0, 76, 0
2, 68580, Note_on_c, 0, 77, 0
2, 68580, Note_on_c, 0, 81, 0
2, 68580, Note_on_c, 0, 85, 0
2, 68580, Note_on_c, 0, 86, 66
2, 68580, Note_on_c, 0, 77, 66
2, 68580, Note_on_c, 0, 77, 66
2, 68580, Note_on_c, 0, 74, 66
2, 68610, Note_on_c, 0, 77, 0
2, 68610, Note_on_c, 0, 86, 0
2, 68610, Note_on_c, 0, 88, 66
2, 68610, Note_on_c, 0, 79, 66
2, 68640, Note_on_c, 0, 79, 0
2, 68640, Note_on_c, 0, 74, 0
2, 68640, Note_on_c, 0, 77, 0
2, 68640, Note_on_c, 0, 88, 0
2, 68640, Channel_aftertouch_c, 0, 86
2, 68640, Note_on_c, 0, 89, 66
2, 68640, Note_on_c, 0, 81, 66
2, 68640, Note_on_c, 0, 81, 75
2, 68640, Note_on_c, 0, 69, 66
2, 68670, Note_on_c, 0, 89, 0
2, 68670, Note_on_c, 0, 91, 66
2, 68700, Note_on_c, 0, 91, 0
2, 68700, Note_on_c, 0, 81, 0
2, 68700, Note_on_c, 0, 93, 66
2, 68730, Note_on_c, 0, 93, 0
2, 68730, Note_on_c, 0, 94, 66
2, 68760, Note_on_c, 0, 94, 0
2, 68760, Note_on_c, 0, 98, 66
2, 68760, Note_on_c, 0, 62, 66
2, 68760, Note_on_c, 0, 60, 66
2, 68760, Note_on_c, 0, 57, 66
2, 68760, Note_on_c, 0, 50, 66
2, 68760, Note_on_c, 0, 54, 66
2, 68760, Note_on_c, 0, 50, 66
2, 68790, Note_on_c, 0, 98, 0
2, 68790, Note_on_c, 0, 96, 66
2, 68820, Note_on_c, 0, 96, 0
2, 68820, Note_on_c, 0, 54, 0
2, 68820, Note_on_c, 0, 60, 0
2, 68820, Note_on_c, 0, 57, 0
2, 68820, Note_on_c, 0, 50, 0
2, 68820, Note_on_c, 0, 62, 0
2, 68820, Note_on_c, 0, 50, 0
2, 68820, Note_on_c, 0, 93, 66
2, 68850, Note_on_c, 0, 93, 0
2, 68850, Note_on_c, 0, 90, 66
2, 68880, Note_on_c, 0, 90, 0
2, 68880, Note_on_c, 0, 69, 0
2, 68880, Note_on_c, 0, 81, 0
2, 68880, Note_on_c, 0, 86, 66
2, 68880, Note_on_c, 0, 62, 66
2, 68880, Note_on_c, 0, 60, 66
2, 68880, Note_on_c, 0, 57, 66
2, 68880, Note_on_c, 0, 50, 66
2, 68880, Note_on_c, 0, 60, 66
2, 68880, Note_on_c, 0, 54, 66
2, 68880, Note_on_c, 0, 50, 66
2, 68910, Note_on_c, 0, 86, 0
2, 68910, Note_on_c, 0, 84, 66
2, 68940, Note_on_c, 0, 84, 0
2, 68940, Note_on_c, 0, 50, 0
2, 68940, Note_on_c, 0, 60, 0
2, 68940, Note_on_c, 0, 60, 0
2, 68940, Note_on_c, 0, 57, 0
2, 68940, Note_on_c, 0, 50, 0
2, 68940, Note_on_c, 0, 54, 0
2, 68940, Note_on_c, 0, 62, 0
2, 68940, Note_on_c, 0, 81, 66
2, 68970, Note_on_c, 0, 81, 0
2, 68970, Note_on_c, 0, 78, 66
2, 69000, Note_on_c, 0, 78, 0
2, 69000, Note_on_c, 0, 74, 66
2, 69000, Note_on_c, 0, 62, 66
2, 69000, Note_on_c, 0, 60, 66
2, 69000, Note_on_c, 0, 57, 66
2, 69000, Note_on_c, 0, 50, 66
2, 69000, Note_on_c, 0, 60, 66
2, 69000, Note_on_c, 0, 54, 66
2, 69000, Note_on_c, 0, 50, 66
2, 69030, Note_on_c, 0, 74, 0
2, 69030, Note_on_c, 0, 72, 66
2, 69060, Note_on_c, 0, 72, 0
2, 69060, Note_on_c, 0, 50, 0
2, 69060, Note_on_c, 0, 60, 0
2, 69060, Note_on_c, 0, 60, 0
2, 69060, Note_on_c, 0, 57, 0
2, 69060, Note_on_c, 0, 50, 0
2, 69060, Note_on_c, 0, 54, 0
2, 69060, Note_on_c, 0, 62, 0
2, 69060, Note_on_c, 0, 69, 66
2, 69090, Note_on_c, 0, 69, 0
2, 69090, Note_on_c, 0, 66, 66
2, 69120, Note_on_c, 0, 66, 0
2, 69120, Note_on_c, 0, 67, 68
2, 69120, Note_on_c, 0, 58, 68
2, 69120, Note_on_c, 0, 55, 68
2, 69120, Note_on_c, 0, 86, 68
2, 69120, Note_on_c, 0, 82, 68
2, 69120, Note_on_c, 0, 74, 68
2, 69120, Note_on_c, 0, 43, 68
2, 69150, Note_on_c, 0, 55, 0
2, 69150, Note_on_c, 0, 67, 0
2, 69150, Note_on_c, 0, 58, 0
2, 69150, Note_on_c, 0, 69, 68
2, 69150, Note_on_c, 0, 60, 68
2, 69180, Note_on_c, 0, 60, 0
2, 69180, Note_on_c, 0, 69, 0
2, 69180, Note_on_c, 0, 70, 68
2, 69180, Note_on_c, 0, 62, 68
2, 69210, Note_on_c, 0, 62, 0
2, 69210, Note_on_c, 0, 70, 0
2, 69210, Note_on_c, 0, 72, 68
2, 69210, Note_on_c, 0, 64, 68
2, 69240, Note_on_c, 0, 64, 0
2, 69240, Note_on_c, 0, 72, 0
2, 69240, Note_on_c, 0, 74, 68
2, 69240, Note_on_c, 0, 66, 68
2, 69270, Note_on_c, 0, 66, 0
2, 69270, Note_on_c, 0, 74, 0
2, 69270, Note_on_c, 0, 76, 68
2, 69270, Note_on_c, 0, 67, 68
2, 69300, Note_on_c, 0, 67, 0
2, 69300, Note_on_c, 0, 82, 0
2, 69300, Note_on_c, 0, 74, 0
2, 69300, Note_on_c, 0, 86, 0
2, 69300, Note_on_c, 0, 76, 0
2, 69300, Note_on_c, 0, 43, 0
2, 69300, Note_on_c, 0, 78, 71
2, 69300, Note_on_c, 0, 69, 71
2, 69300, Note_on_c, 0, 82, 68
2, 69300, Note_on_c, 0, 79, 68
2, 69300, Note_on_c, 0, 50, 68
2, 69330, Note_on_c, 0, 69, 0
2, 69330, Note_on_c, 0, 78, 0
2, 69330, Note_on_c, 0, 79, 71
2, 69330, Note_on_c, 0, 70, 71
2, 69360, Note_on_c, 0, 70, 0
2, 69360, Note_on_c, 0, 79, 0
2, 69360, Note_on_c, 0, 50, 0
2, 69360, Note_on_c, 0, 82, 0
2, 69360, Note_on_c, 0, 79, 0
2, 69360, Note_on_c, 0, 81, 71
2, 69360, Note_on_c, 0, 72, 71
2, 69360, Note_on_c, 0, 86, 68
2, 69360, Note_on_c, 0, 82, 68
2, 69360, Note_on_c, 0, 74, 68
2, 69360, Note_on_c, 0, 43, 68
2, 69390, Note_on_c, 0, 72, 0
2, 69390, Note_on_c, 0, 81, 0
2, 69390, Note_on_c, 0, 82, 71
2, 69390, Note_on_c, 0, 74, 71
2, 69420, Note_on_c, 0, 74, 0
2, 69420, Note_on_c, 0, 82, 0
2, 69420, Note_on_c, 0, 84, 71
2, 69420, Note_on_c, 0, 76, 71
2, 69450, Note_on_c, 0, 76, 0
2, 69450, Note_on_c, 0, 84, 0
2, 69450, Note_on_c, 0, 86, 73
2, 69450, Note_on_c, 0, 78, 73
2, 69480, Note_on_c, 0, 78, 0
2, 69480, Note_on_c, 0, 86, 0
2, 69480, Note_on_c, 0, 88, 73
2, 69480, Note_on_c, 0, 79, 73
2, 69510, Note_on_c, 0, 79, 0
2, 69510, Note_on_c, 0, 88, 0
2, 69510, Note_on_c, 0, 90, 73
2, 69510, Note_on_c, 0, 81, 73
2, 69540, Note_on_c, 0, 81, 0
2, 69540, Note_on_c, 0, 82, 0
2, 69540, Note_on_c, 0, 74, 0
2, 69540, Note_on_c, 0, 43, 0
2, 69540, Note_on_c, 0, 90, 0
2, 69540, Note_on_c, 0, 86, 0
2, 69540, Note_on_c, 0, 91, 73
2, 69540, Note_on_c, 0, 82, 73
2, 69540, Note_on_c, 0, 82, 68
2, 69540, Note_on_c, 0, 79, 68
2, 69540, Note_on_c, 0, 50, 68
2, 69570, Note_on_c, 0, 82, 0
2, 69570, Note_on_c, 0, 91, 0
2, 69570, Note_on_c, 0, 93, 73
2, 69570, Note_on_c, 0, 84, 73
2, 69600, Note_on_c, 0, 84, 0
2, 69600, Note_on_c, 0, 79, 0
2, 69600, Note_on_c, 0, 50, 0
2, 69600, Note_on_c, 0, 82, 0
2, 69600, Note_on_c, 0, 93, 0
2, 69600, Channel_aftertouch_c, 0, 88
2, 69600, Note_on_c, 0, 94, 76
2, 69600, Note_on_c, 0, 86, 76
2, 69600, Note_on_c, 0, 86, 68
2, 69600, Note_on_c, 0, 82, 68
2, 69600, Note_on_c, 0, 74, 68
2, 69600, Note_on_c, 0, 43, 68
2, 69630, Note_on_c, 0, 94, 0
2, 69630, Note_on_c, 0, 96, 76
2, 69660, Note_on_c, 0, 96, 0
2, 69660, Note_on_c, 0, 43, 0
2, 69660, Note_on_c, 0, 82, 0
2, 69660, Note_on_c, 0, 86, 0
2, 69660, Note_on_c, 0, 86, 0
2, 69660, Note_on_c, 0, 74, 0
2, 69660, Note_on_c, 0, 98, 76
2, 69690, Note_on_c, 0, 98, 0
2, 69690, Note_on_c, 0, 99, 76
2, 69720, Note_on_c, 0, 99, 0
2, 69720, Note_on_c, 0, 100, 76
2, 69720, Note_on_c, 0, 64, 76
2, 69720, Note_on_c, 0, 61, 76
2, 69720, Note_on_c, 0, 58, 76
2, 69720, Note_on_c, 0, 54, 76
2, 69720, Note_on_c, 0, 88, 68
2, 69720, Note_on_c, 0, 85, 68
2, 69720, Note_on_c, 0, 82, 68
2, 69720, Note_on_c, 0, 30, 68
2, 69750, Note_on_c, 0, 100, 0
2, 69750, Channel_aftertouch_c, 0, 99
2, 69750, Note_on_c, 0, 97, 79
2, 69780, Note_on_c, 0, 97, 0
2, 69780, Note_on_c, 0, 82, 0
2, 69780, Note_on_c, 0, 64, 0
2, 69780, Note_on_c, 0, 88, 0
2, 69780, Note_on_c, 0, 61, 0
2, 69780, Note_on_c, 0, 58, 0
2, 69780, Note_on_c, 0, 30, 0
2, 69780, Note_on_c, 0, 85, 0
2, 69780, Note_on_c, 0, 54, 0
2, 69780, Note_on_c, 0, 94, 79
2, 69810, Note_on_c, 0, 94, 0
2, 69810, Note_on_c, 0, 90, 79
2, 69840, Note_on_c, 0, 90, 0
2, 69840, Note_on_c, 0, 88, 79
2, 69840, Note_on_c, 0, 64, 79
2, 69840, Note_on_c, 0, 61, 79
2, 69840, Note_on_c, 0, 58, 79
2, 69840, Note_on_c, 0, 54, 79
2, 69840, Note_on_c, 0, 88, 68
2, 69840, Note_on_c, 0, 85, 68
2, 69840, Note_on_c, 0, 82, 68
2, 69840, Note_on_c, 0, 30, 68
2, 69870, Note_on_c, 0, 88, 0
2, 69870, Note_on_c, 0, 85, 79
2, 69900, Note_on_c, 0, 85, 0
2, 69900, Note_on_c, 0, 82, 0
2, 69900, Note_on_c, 0, 64, 0
2, 69900, Note_on_c, 0, 88, 0
2, 69900, Note_on_c, 0, 61, 0
2, 69900, Note_on_c, 0, 58, 0
2, 69900, Note_on_c, 0, 30, 0
2, 69900, Note_on_c, 0, 85, 0
2, 69900, Note_on_c, 0, 54, 0
2, 69900, Note_on_c, 0, 82, 81
2, 69930, Note_on_c, 0, 82, 0
2, 69930, Note_on_c, 0, 78, 81
2, 69960, Note_on_c, 0, 78, 0
2, 69960, Note_on_c, 0, 76, 81
2, 69960, Note_on_c, 0, 64, 81
2, 69960, Note_on_c, 0, 61, 81
2, 69960, Note_on_c, 0, 58, 81
2, 69960, Note_on_c, 0, 54, 81
2, 69960, Note_on_c, 0, 88, 68
2, 69960, Note_on_c, 0, 85, 68
2, 69960, Note_on_c, 0, 82, 68
2, 69960, Note_on_c, 0, 30, 68
2, 69990, Note_on_c, 0, 76, 0
2, 69990, Note_on_c, 0, 73, 81
2, 70020, Note_on_c, 0, 73, 0
2, 70020, Note_on_c, 0, 82, 0
2, 70020, Note_on_c, 0, 64, 0
2, 70020, Note_on_c, 0, 88, 0
2, 70020, Note_on_c, 0, 61, 0
2, 70020, Note_on_c, 0, 58, 0
2, 70020, Note_on_c, 0, 30, 0
2, 70020, Note_on_c, 0, 85, 0
2, 70020, Note_on_c, 0, 54, 0
2, 70020, Note_on_c, 0, 70, 81
2, 70050, Note_on_c, 0, 70, 0
2, 70050, Note_on_c, 0, 66, 81
2, 70080, Note_on_c, 0, 66, 0
2, 70080, Note_on_c, 0, 65, 84
2, 70080, Note_on_c, 0, 62, 89
2, 70080, Note_on_c, 0, 58, 89
2, 70080, Note_on_c, 0, 53, 89
2, 70080, Note_on_c, 0, 89, 68
2, 70080, Note_on_c, 0, 86, 68
2, 70080, Note_on_c, 0, 82, 68
2, 70080, Note_on_c, 0, 77, 68
2, 70080, Note_on_c, 0, 29, 68
2, 70110, Note_on_c, 0, 65, 0
2, 70110, Note_on_c, 0, 69, 84
2, 70140, Note_on_c, 0, 69, 0
2, 70140, Note_on_c, 0, 77, 0
2, 70140, Note_on_c, 0, 89, 0
2, 70140, Note_on_c, 0, 86, 0
2, 70140, Note_on_c, 0, 29, 0
2, 70140, Note_on_c, 0, 82, 0
2, 70140, Note_on_c, 0, 70, 84
2, 70170, Note_on_c, 0, 70, 0
2, 70170, Note_on_c, 0, 73, 84
2, 70200, Note_on_c, 0, 73, 0
2, 70200, Note_on_c, 0, 74, 84
2, 70230, Note_on_c, 0, 74, 0
2, 70230, Note_on_c, 0, 77, 84
2, 70260, Note_on_c, 0, 77, 0
2, 70260, Note_on_c, 0, 62, 0
2, 70260, Note_on_c, 0, 53, 0
2, 70260, Note_on_c, 0, 58, 0
2, 70260, Note_on_c, 0, 82, 84
2, 70260, Note_on_c, 0, 61, 84
2, 70290, Note_on_c, 0, 82, 0
2, 70290, Note_on_c, 0, 79, 84
2, 70320, Note_on_c, 0, 79, 0
2, 70320, Note_on_c, 0, 61, 0
2, 70320, Note_on_c, 0, 77, 84
2, 70320, Note_on_c, 0, 62, 89
2, 70320, Note_on_c, 0, 58, 89
2, 70320, Note_on_c, 0, 53, 89
2, 70350, Note_on_c, 0, 77, 0
2, 70350, Note_on_c, 0, 69, 84
2, 70380, Note_on_c, 0, 69, 0
2, 70380, Note_on_c, 0, 70, 84
2, 70410, Note_on_c, 0, 70, 0
2, 70410, Note_on_c, 0, 72, 84
2, 70440, Note_on_c, 0, 72, 0
2, 70440, Note_on_c, 0, 74, 84
2, 70470, Note_on_c, 0, 74, 0
2, 70470, Note_on_c, 0, 77, 84
2, 70500, Note_on_c, 0, 77, 0
2, 70500, Note_on_c, 0, 53, 0
2, 70500, Note_on_c, 0, 58, 0
2, 70500, Note_on_c, 0, 62, 0
2, 70500, Note_on_c, 0, 82, 84
2, 70500, Note_on_c, 0, 61, 84
2, 70530, Note_on_c, 0, 82, 0
2, 70530, Note_on_c, 0, 79, 84
2, 70560, Note_on_c, 0, 79, 0
2, 70560, Note_on_c, 0, 61, 0
2, 70560, Note_on_c, 0, 77, 84
2, 70560, Note_on_c, 0, 62, 84
2, 70560, Note_on_c, 0, 58, 84
2, 70560, Note_on_c, 0, 53, 84
2, 70590, Note_on_c, 0, 77, 0
2, 70590, Note_on_c, 0, 69, 84
2, 70620, Note_on_c, 0, 69, 0
2, 70620, Note_on_c, 0, 70, 84
2, 70650, Note_on_c, 0, 70, 0
2, 70650, Note_on_c, 0, 73, 84
2, 70680, Note_on_c, 0, 73, 0
2, 70680, Note_on_c, 0, 74, 84
2, 70710, Note_on_c, 0, 74, 0
2, 70710, Note_on_c, 0, 77, 84
2, 70740, Note_on_c, 0, 77, 0
2, 70740, Note_on_c, 0, 53, 0
2, 70740, Note_on_c, 0, 58, 0
2, 70740, Note_on_c, 0, 62, 0
2, 70740, Note_on_c, 0, 82, 87
2, 70740, Note_on_c, 0, 61, 87
2, 70740, Note_on_c, 0, 58, 87
2, 70740, Note_on_c, 0, 53, 87
2, 70770, Note_on_c, 0, 82, 0
2, 70770, Note_on_c, 0, 79, 84
2, 70800, Note_on_c, 0, 79, 0
2, 70800, Note_on_c, 0, 53, 0
2, 70800, Note_on_c, 0, 58, 0
2, 70800, Note_on_c, 0, 61, 0
2, 70800, Note_on_c, 0, 77, 84
2, 70800, Note_on_c, 0, 62, 84
2, 70830, Note_on_c, 0, 77, 0
2, 70830, Note_on_c, 0, 74, 84
2, 70860, Note_on_c, 0, 74, 0
2, 70860, Note_on_c, 0, 62, 0
2, 70860, Note_on_c, 0, 82, 87
2, 70860, Note_on_c, 0, 61, 87
2, 70860, Note_on_c, 0, 58, 87
2, 70860, Note_on_c, 0, 53, 87
2, 70890, Note_on_c, 0, 82, 0
2, 70890, Note_on_c, 0, 79, 84
2, 70920, Note_on_c, 0, 79, 0
2, 70920, Note_on_c, 0, 53, 0
2, 70920, Note_on_c, 0, 58, 0
2, 70920, Note_on_c, 0, 61, 0
2, 70920, Note_on_c, 0, 77, 84
2, 70920, Note_on_c, 0, 62, 84
2, 70950, Note_on_c, 0, 77, 0
2, 70950, Note_on_c, 0, 74, 84
2, 70980, Note_on_c, 0, 74, 0
2, 70980, Note_on_c, 0, 62, 0
2, 70980, Note_on_c, 0, 82, 87
2, 70980, Note_on_c, 0, 61, 87
2, 70980, Note_on_c, 0, 58, 87
2, 70980, Note_on_c, 0, 53, 87
2, 71010, Note_on_c, 0, 82, 0
2, 71010, Note_on_c, 0, 79, 84
2, 71040, Note_on_c, 0, 79, 0
2, 71040, Note_on_c, 0, 61, 0
2, 71040, Channel_aftertouch_c, 0, 93
2, 71040, Note_on_c, 0, 77, 73
2, 71040, Note_on_c, 0, 62, 73
2, 71070, Note_on_c, 0, 77, 0
2, 71070, Note_on_c, 0, 74, 73
2, 71100, Note_on_c, 0, 74, 0
2, 71100, Note_on_c, 0, 62, 0
2, 71100, Note_on_c, 0, 58, 0
2, 71100, Note_on_c, 0, 53, 0
2, 71100, Note_on_c, 0, 82, 73
2, 71130, Note_on_c, 0, 82, 0
2, 71130, Note_on_c, 0, 76, 73
2, 71160, Note_on_c, 0, 76, 0
2, 71160, Note_on_c, 0, 77, 73
2, 71160, Note_on_c, 0, 65, 73
2, 71160, Note_on_c, 0, 62, 73
2, 71160, Note_on_c, 0, 58, 73
2, 71160, Note_on_c, 0, 53, 73
2, 71190, Note_on_c, 0, 77, 0
2, 71190, Note_on_c, 0, 74, 73
2, 71220, Note_on_c, 0, 74, 0
2, 71220, Note_on_c, 0, 53, 0
2, 71220, Note_on_c, 0, 65, 0
2, 71220, Note_on_c, 0, 62, 0
2, 71220, Note_on_c, 0, 58, 0
2, 71220, Note_on_c, 0, 82, 73
2, 71250, Note_on_c, 0, 82, 0
2, 71250, Note_on_c, 0, 76, 73
2, 71280, Note_on_c, 0, 76, 0
2, 71280, Note_on_c, 0, 77, 73
2, 71280, Note_on_c, 0, 65, 73
2, 71280, Note_on_c, 0, 62, 73
2, 71280, Note_on_c, 0, 58, 73
2, 71280, Note_on_c, 0, 53, 73
2, 71310, Note_on_c, 0, 77, 0
2, 71310, Note_on_c, 0, 74, 73
2, 71340, Note_on_c, 0, 74, 0
2, 71340, Note_on_c, 0, 53, 0
2, 71340, Note_on_c, 0, 65, 0
2, 71340, Note_on_c, 0, 62, 0
2, 71340, Note_on_c, 0, 58, 0
2, 71340, Note_on_c, 0, 86, 73
2, 71370, Note_on_c, 0, 86, 0
2, 71370, Note_on_c, 0, 81, 73
2, 71400, Note_on_c, 0, 81, 0
2, 71400, Note_on_c, 0, 82, 73
2, 71400, Note_on_c, 0, 65, 73
2, 71400, Note_on_c, 0, 62, 73
2, 71400, Note_on_c, 0, 58, 73
2, 71400, Note_on_c, 0, 53, 73
2, 71430, Note_on_c, 0, 82, 0
2, 71430, Note_on_c, 0, 77, 73
2, 71460, Note_on_c, 0, 77, 0
2, 71460, Note_on_c, 0, 53, 0
2, 71460, Note_on_c, 0, 65, 0
2, 71460, Note_on_c, 0, 62, 0
2, 71460, Note_on_c, 0, 58, 0
2, 71460, Note_on_c, 0, 86, 73
2, 71490, Note_on_c, 0, 86, 0
2, 71490, Note_on_c, 0, 81, 73
2, 71520, Note_on_c, 0, 81, 0
2, 71520, Note_on_c, 0, 82, 73
2, 71520, Note_on_c, 0, 65, 73
2, 71520, Note_on_c, 0, 62, 73
2, 71520, Note_on_c, 0, 58, 73
2, 71520, Note_on_c, 0, 53, 73
2, 71550, Note_on_c, 0, 82, 0
2, 71550, Note_on_c, 0, 77, 73
2, 71580, Note_on_c, 0, 77, 0
2, 71580, Note_on_c, 0, 53, 0
2, 71580, Note_on_c, 0, 65, 0
2, 71580, Note_on_c, 0, 62, 0
2, 71580, Note_on_c, 0, 58, 0
2, 71580, Note_on_c, 0, 89, 73
2, 71610, Note_on_c, 0, 89, 0
2, 71610, Note_on_c, 0, 85, 73
2, 71640, Note_on_c, 0, 85, 0
2, 71640, Note_on_c, 0, 86, 73
2, 71640, Note_on_c, 0, 65, 73
2, 71640, Note_on_c, 0, 62, 73
2, 71640, Note_on_c, 0, 58, 73
2, 71640, Note_on_c, 0, 53, 73
2, 71670, Note_on_c, 0, 86, 0
2, 71670, Note_on_c, 0, 82, 73
2, 71700, Note_on_c, 0, 82, 0
2, 71700, Note_on_c, 0, 53, 0
2, 71700, Note_on_c, 0, 65, 0
2, 71700, Note_on_c, 0, 62, 0
2, 71700, Note_on_c, 0, 58, 0
2, 71700, Note_on_c, 0, 89, 73
2, 71730, Note_on_c, 0, 89, 0
2, 71730, Note_on_c, 0, 85, 73
2, 71760, Note_on_c, 0, 85, 0
2, 71760, Note_on_c, 0, 86, 75
2, 71760, Note_on_c, 0, 65, 75
2, 71760, Note_on_c, 0, 62, 75
2, 71760, Note_on_c, 0, 58, 75
2, 71760, Note_on_c, 0, 53, 75
2, 71790, Note_on_c, 0, 86, 0
2, 71790, Note_on_c, 0, 82, 75
2, 71820, Note_on_c, 0, 82, 0
2, 71820, Note_on_c, 0, 53, 0
2, 71820, Note_on_c, 0, 65, 0
2, 71820, Note_on_c, 0, 62, 0
2, 71820, Note_on_c, 0, 58, 0
2, 71820, Note_on_c, 0, 94, 75
2, 71850, Note_on_c, 0, 94, 0
2, 71850, Note_on_c, 0, 88, 75
2, 71880, Note_on_c, 0, 88, 0
2, 71880, Note_on_c, 0, 89, 79
2, 71880, Note_on_c, 0, 65, 79
2, 71880, Note_on_c, 0, 62, 79
2, 71880, Note_on_c, 0, 58, 79
2, 71880, Note_on_c, 0, 53, 79
2, 71910, Note_on_c, 0, 89, 0
2, 71910, Note_on_c, 0, 86, 79
2, 71940, Note_on_c, 0, 86, 0
2, 71940, Note_on_c, 0, 53, 0
2, 71940, Note_on_c, 0, 65, 0
2, 71940, Note_on_c, 0, 62, 0
2, 71940, Note_on_c, 0, 58, 0
2, 71940, Note_on_c, 0, 98, 79
2, 71970, Note_on_c, 0, 98, 0
2, 71970, Note_on_c, 0, 93, 79
2, 72000, Note_on_c, 0, 93, 0
2, 72000, Note_on_c, 0, 94, 66
2, 72000, Note_on_c, 0, 65, 66
2, 72000, Note_on_c, 0, 62, 66
2, 72000, Note_on_c, 0, 58, 66
2, 72000, Note_on_c, 0, 53, 66
2, 72000, Note_on_c, 0, 82, 71
2, 72000, Note_on_c, 0, 74, 71
2, 72000, Note_on_c, 0, 65, 71
2, 72030, Note_on_c, 0, 94, 0
2, 72030, Note_on_c, 0, 89, 66
2, 72060, Note_on_c, 0, 89, 0
2, 72060, Note_on_c, 0, 53, 0
2, 72060, Note_on_c, 0, 65, 0
2, 72060, Note_on_c, 0, 58, 0
2, 72060, Note_on_c, 0, 62, 0
2, 72060, Note_on_c, 0, 101, 66
2, 72090, Note_on_c, 0, 101, 0
2, 72090, Note_on_c, 0, 99, 66
2, 72120, Note_on_c, 0, 99, 0
2, 72120, Note_on_c, 0, 98, 66
2, 72150, Note_on_c, 0, 98, 0
2, 72150, Note_on_c, 0, 96, 66
2, 72180, Note_on_c, 0, 96, 0
2, 72180, Note_on_c, 0, 94, 66
2, 72210, Note_on_c, 0, 94, 0
2, 72210, Note_on_c, 0, 93, 66
2, 72240, Note_on_c, 0, 93, 0
2, 72240, Note_on_c, 0, 91, 66
2, 72270, Note_on_c, 0, 91, 0
2, 72270, Note_on_c, 0, 89, 66
2, 72300, Note_on_c, 0, 89, 0
2, 72300, Note_on_c, 0, 87, 66
2, 72330, Note_on_c, 0, 87, 0
2, 72330, Note_on_c, 0, 86, 66
2, 72360, Note_on_c, 0, 86, 0
2, 72360, Note_on_c, 0, 84, 66
2, 72390, Note_on_c, 0, 84, 0
2, 72390, Note_on_c, 0, 82, 66
2, 72420, Note_on_c, 0, 82, 0
2, 72420, Note_on_c, 0, 81, 66
2, 72450, Note_on_c, 0, 81, 0
2, 72450, Note_on_c, 0, 79, 66
2, 72480, Note_on_c, 0, 79, 0
2, 72480, Note_on_c, 0, 77, 66
2, 72510, Note_on_c, 0, 77, 0
2, 72510, Note_on_c, 0, 75, 66
2, 72540, Note_on_c, 0, 75, 0
2, 72540, Note_on_c, 0, 74, 66
2, 72570, Note_on_c, 0, 74, 0
2, 72570, Note_on_c, 0, 72, 66
2, 72600, Note_on_c, 0, 72, 0
2, 72600, Note_on_c, 0, 70, 66
2, 72630, Note_on_c, 0, 70, 0
2, 72630, Note_on_c, 0, 65, 66
2, 72660, Note_on_c, 0, 65, 0
2, 72660, Note_on_c, 0, 62, 66
2, 72690, Note_on_c, 0, 62, 0
2, 72690, Note_on_c, 0, 65, 66
2, 72720, Note_on_c, 0, 65, 0
2, 72720, Note_on_c, 0, 70, 66
2, 72750, Note_on_c, 0, 70, 0
2, 72750, Note_on_c, 0, 74, 66
2, 72780, Note_on_c, 0, 74, 0
2, 72780, Note_on_c, 0, 77, 70
2, 72810, Note_on_c, 0, 77, 0
2, 72810, Note_on_c, 0, 82, 70
2, 72840, Note_on_c, 0, 82, 0
2, 72840, Note_on_c, 0, 86, 70
2, 72870, Note_on_c, 0, 86, 0
2, 72870, Note_on_c, 0, 89, 73
2, 72900, Note_on_c, 0, 89, 0
2, 72900, Note_on_c, 0, 94, 73
2, 72930, Note_on_c, 0, 94, 0
2, 72930, Note_on_c, 0, 98, 73
2, 72960, Note_on_c, 0, 98, 0
2, 72960, Note_on_c, 0, 101, 77
2, 72990, Note_on_c, 0, 101, 0
2, 73020, Note_on_c, 0, 98, 81
2, 73020, Note_on_c, 0, 86, 81
2, 73050, Note_on_c, 0, 98, 0
2, 73050, Note_on_c, 0, 101, 81
2, 73080, Note_on_c, 0, 101, 0
2, 73080, Note_on_c, 0, 86, 0
2, 73080, Note_on_c, 0, 74, 0
2, 73080, Note_on_c, 0, 65, 0
2, 73080, Note_on_c, 0, 82, 0
2, 73080, Note_on_c, 0, 94, 81
2, 73080, Note_on_c, 0, 82, 81
2, 73110, Note_on_c, 0, 94, 0
2, 73110, Note_on_c, 0, 98, 81
2, 73140, Note_on_c, 0, 98, 0
2, 73140, Note_on_c, 0, 82, 0
2, 73140, Note_on_c, 0, 89, 81
2, 73140, Note_on_c, 0, 77, 81
2, 73170, Note_on_c, 0, 89, 0
2, 73170, Note_on_c, 0, 94, 81
2, 73200, Note_on_c, 0, 94, 0
2, 73200, Note_on_c, 0, 77, 0
2, 73200, Note_on_c, 0, 86, 81
2, 73200, Note_on_c, 0, 74, 81
2, 73230, Note_on_c, 0, 86, 0
2, 73230, Note_on_c, 0, 89, 81
2, 73260, Note_on_c, 0, 89, 0
2, 73260, Note_on_c, 0, 74, 0
2, 73260, Note_on_c, 0, 82, 81
2, 73260, Note_on_c, 0, 70, 81
2, 73290, Note_on_c, 0, 82, 0
2, 73290, Note_on_c, 0, 86, 81
2, 73320, Note_on_c, 0, 86, 0
2, 73320, Note_on_c, 0, 70, 0
2, 73320, Note_on_c, 0, 77, 81
2, 73320, Note_on_c, 0, 65, 81
2, 73350, Note_on_c, 0, 77, 0
2, 73350, Note_on_c, 0, 82, 81
2, 73380, Note_on_c, 0, 82, 0
2, 73380, Note_on_c, 0, 65, 0
2, 73380, Note_on_c, 0, 74, 81
2, 73380, Note_on_c, 0, 62, 81
2, 73410, Note_on_c, 0, 74, 0
2, 73410, Note_on_c, 0, 77, 81
2, 73440, Note_on_c, 0, 77, 0
2, 73440, Note_on_c, 0, 62, 0
2, 73440, Note_on_c, 0, 70, 81
2, 73440, Note_on_c, 0, 58, 81
2, 73470, Note_on_c, 0, 70, 0
2, 73470, Note_on_c, 0, 74, 81
2, 73500, Note_on_c, 0, 74, 0
2, 73500, Note_on_c, 0, 58, 0
2, 73500, Note_on_c, 0, 65, 81
2, 73500, Note_on_c, 0, 53, 81
2, 73530, Note_on_c, 0, 65, 0
2, 73530, Note_on_c, 0, 70, 81
2, 73560, Note_on_c, 0, 70, 0
2, 73560, Note_on_c, 0, 53, 0
2, 73560, Note_on_c, 0, 62, 81
2, 73560, Note_on_c, 0, 50, 81
2, 73590, Note_on_c, 0, 62, 0
2, 73590, Note_on_c, 0, 65, 81
2, 73620, Note_on_c, 0, 65, 0
2, 73620, Note_on_c, 0, 50, 0
2, 73620, Note_on_c, 0, 58, 81
2, 73620, Note_on_c, 0, 46, 81
2, 73650, Note_on_c, 0, 58, 0
2, 73650, Note_on_c, 0, 62, 81
2, 73680, Note_on_c, 0, 62, 0
2, 73680, Note_on_c, 0, 46, 0
2, 73680, Note_on_c, 0, 53, 81
2, 73680, Note_on_c, 0, 41, 81
2, 73710, Note_on_c, 0, 53, 0
2, 73710, Note_on_c, 0, 58, 81
2, 73740, Note_on_c, 0, 58, 0
2, 73740, Note_on_c, 0, 41, 0
2, 73740, Note_on_c, 0, 50, 81
2, 73740, Note_on_c, 0, 38, 81
2, 73770, Note_on_c, 0, 50, 0
2, 73770, Note_on_c, 0, 53, 81
2, 73800, Note_on_c, 0, 53, 0
2, 73800, Note_on_c, 0, 38, 0
2, 73800, Note_on_c, 0, 46, 81
2, 73800, Note_on_c, 0, 34, 81
2, 73830, Note_on_c, 0, 46, 0
2, 73830, Note_on_c, 0, 50, 81
2, 73860, Note_on_c, 0, 50, 0
2, 73860, Note_on_c, 0, 34, 0
2, 73860, Note_on_c, 0, 41, 81
2, 73860, Note_on_c, 0, 29, 81
2, 73890, Note_on_c, 0, 41, 0
2, 73890, Note_on_c, 0, 46, 81
2, 73920, Note_on_c, 0, 46, 0
2, 73920, Note_on_c, 0, 29, 0
2, 73920, Note_on_c, 0, 43, 85
2, 73920, Note_on_c, 0, 40, 85
2, 73920, Note_on_c, 0, 28, 85
2, 73950, Note_on_c, 0, 43, 0
2, 73950, Note_on_c, 0, 46, 85
2, 73980, Note_on_c, 0, 46, 0
2, 73980, Note_on_c, 0, 28, 0
2, 73980, Note_on_c, 0, 40, 0
2, 73980, Note_on_c, 0, 49, 85
2, 73980, Note_on_c, 0, 43, 85
2, 73980, Note_on_c, 0, 31, 85
2, 74010, Note_on_c, 0, 49, 0
2, 74010, Note_on_c, 0, 52, 85
2, 74040, Note_on_c, 0, 52, 0
2, 74040, Note_on_c, 0, 31, 0
2, 74040, Note_on_c, 0, 43, 0
2, 74040, Note_on_c, 0, 55, 85
2, 74040, Note_on_c, 0, 46, 85
2, 74040, Note_on_c, 0, 34, 85
2, 74070, Note_on_c, 0, 55, 0
2, 74070, Note_on_c, 0, 58, 85
2, 74100, Note_on_c, 0, 58, 0
2, 74100, Note_on_c, 0, 34, 0
2, 74100, Note_on_c, 0, 46, 0
2, 74100, Note_on_c, 0, 61, 85
2, 74100, Note_on_c, 0, 50, 85
2, 74100, Note_on_c, 0, 38, 85
2, 74130, Note_on_c, 0, 61, 0
2, 74130, Note_on_c, 0, 64, 85
2, 74160, Note_on_c, 0, 64, 0
2, 74160, Note_on_c, 0, 38, 0
2, 74160, Note_on_c, 0, 50, 0
2, 74160, Note_on_c, 0, 55, 85
2, 74160, Note_on_c, 0, 52, 85
2, 74160, Note_on_c, 0, 40, 85
2, 74190, Note_on_c, 0, 55, 0
2, 74190, Note_on_c, 0, 58, 85
2, 74220, Note_on_c, 0, 58, 0
2, 74220, Note_on_c, 0, 40, 0
2, 74220, Note_on_c, 0, 52, 0
2, 74220, Note_on_c, 0, 61, 85
2, 74220, Note_on_c, 0, 55, 85
2, 74220, Note_on_c, 0, 43, 85
2, 74250, Note_on_c, 0, 61, 0
2, 74250, Note_on_c, 0, 64, 85
2, 74280, Note_on_c, 0, 64, 0
2, 74280, Note_on_c, 0, 43, 0
2, 74280, Note_on_c, 0, 55, 0
2, 74280, Note_on_c, 0, 67, 85
2, 74280, Note_on_c, 0, 58, 85
2, 74280, Note_on_c, 0, 46, 85
2, 74310, Note_on_c, 0, 67, 0
2, 74310, Note_on_c, 0, 70, 85
2, 74340, Note_on_c, 0, 70, 0
2, 74340, Note_on_c, 0, 46, 0
2, 74340, Note_on_c, 0, 58, 0
2, 74340, Note_on_c, 0, 73, 85
2, 74340, Note_on_c, 0, 61, 85
2, 74340, Note_on_c, 0, 49, 85
2, 74370, Note_on_c, 0, 73, 0
2, 74370, Note_on_c, 0, 76, 85
2, 74400, Note_on_c, 0, 76, 0
2, 74400, Note_on_c, 0, 49, 0
2, 74400, Note_on_c, 0, 61, 0
2, 74400, Note_on_c, 0, 67, 85
2, 74400, Note_on_c, 0, 64, 85
2, 74400, Note_on_c, 0, 52, 85
2, 74430, Note_on_c, 0, 67, 0
2, 74430, Note_on_c, 0, 70, 85
2, 74460, Note_on_c, 0, 70, 0
2, 74460, Note_on_c, 0, 52, 0
2, 74460, Note_on_c, 0, 64, 0
2, 74460, Note_on_c, 0, 73, 85
2, 74460, Note_on_c, 0, 67, 85
2, 74460, Note_on_c, 0, 55, 85
2, 74490, Note_on_c, 0, 73, 0
2, 74490, Note_on_c, 0, 76, 85
2, 74520, Note_on_c, 0, 76, 0
2, 74520, Note_on_c, 0, 55, 0
2, 74520, Note_on_c, 0, 67, 0
2, 74520, Note_on_c, 0, 79, 85
2, 74520, Note_on_c, 0, 70, 85
2, 74520, Note_on_c, 0, 58, 85
2, 74550, Note_on_c, 0, 79, 0
2, 74550, Note_on_c, 0, 82, 85
2, 74580, Note_on_c, 0, 82, 0
2, 74580, Note_on_c, 0, 58, 0
2, 74580, Note_on_c, 0, 70, 0
2, 74580, Note_on_c, 0, 85, 85
2, 74580, Note_on_c, 0, 73, 85
2, 74580, Note_on_c, 0, 61, 85
2, 74610, Note_on_c, 0, 85, 0
2, 74610, Note_on_c, 0, 88, 85
2, 74640, Note_on_c, 0, 88, 0
2, 74640, Note_on_c, 0, 61, 0
2, 74640, Note_on_c, 0, 73, 0
2, 74640, Note_on_c, 0, 91, 85
2, 74640, Note_on_c, 0, 76, 85
2, 74640, Note_on_c, 0, 64, 85
2, 74700, Note_on_c, 0, 64, 0
2, 74700, Note_on_c, 0, 76, 0
2, 74700, Note_on_c, 0, 91, 0
2, 74760, Note_on_c, 0, 94, 91
2, 74760, Note_on_c, 0, 88, 91
2, 74760, Note_on_c, 0, 85, 91
2, 74760, Note_on_c, 0, 82, 91
2, 74760, Note_on_c, 0, 79, 91
2, 74760, Note_on_c, 0, 76, 91
2, 74760, Note_on_c, 0, 73, 91
2, 74760, Note_on_c, 0, 67, 91
2, 74820, Note_on_c, 0, 67, 0
2, 74820, Note_on_c, 0, 94, 0
2, 74820, Note_on_c, 0, 79, 0
2, 74820, Note_on_c, 0, 88, 0
2, 74820, Note_on_c, 0, 85, 0
2, 74820, Note_on_c, 0, 82, 0
2, 74820, Note_on_c, 0, 76, 0
2, 74820, Note_on_c, 0, 73, 0
2, 74880, Note_on_c, 0, 72, 85
2, 74880, Note_on_c, 0, 69, 85
2, 74880, Note_on_c, 0, 63, 85
2, 74880, Note_on_c, 0, 53, 85
2, 74910, Note_on_c, 0, 53, 0
2, 74910, Note_on_c, 0, 72, 0
2, 74910, Note_on_c, 0, 69, 0
2, 74910, Note_on_c, 0, 63, 0
2, 74910, Note_on_c, 0, 74, 85
2, 74910, Note_on_c, 0, 65, 85
2, 74940, Note_on_c, 0, 65, 0
2, 74940, Note_on_c, 0, 74, 0
2, 74940, Note_on_c, 0, 72, 85
2, 74940, Note_on_c, 0, 69, 85
2, 74940, Note_on_c, 0, 63, 85
2, 74940, Note_on_c, 0, 53, 85
2, 74970, Note_on_c, 0, 53, 0
2, 74970, Note_on_c, 0, 72, 0
2, 74970, Note_on_c, 0, 69, 0
2, 74970, Note_on_c, 0, 63, 0
2, 74970, Note_on_c, 0, 74, 85
2, 74970, Note_on_c, 0, 65, 85
2, 75000, Note_on_c, 0, 65, 0
2, 75000, Note_on_c, 0, 74, 0
2, 75000, Note_on_c, 0, 72, 85
2, 75000, Note_on_c, 0, 69, 85
2, 75000, Note_on_c, 0, 63, 85
2, 75000, Note_on_c, 0, 53, 85
2, 75030, Note_on_c, 0, 53, 0
2, 75030, Note_on_c, 0, 72, 0
2, 75030, Note_on_c, 0, 69, 0
2, 75030, Note_on_c, 0, 63, 0
2, 75030, Note_on_c, 0, 74, 85
2, 75030, Note_on_c, 0, 65, 85
2, 75060, Note_on_c, 0, 65, 0
2, 75060, Note_on_c, 0, 74, 0
2, 75060, Note_on_c, 0, 72, 85
2, 75060, Note_on_c, 0, 69, 85
2, 75060, Note_on_c, 0, 63, 85
2, 75060, Note_on_c, 0, 53, 85
2, 75090, Note_on_c, 0, 53, 0
2, 75090, Note_on_c, 0, 72, 0
2, 75090, Note_on_c, 0, 69, 0
2, 75090, Note_on_c, 0, 63, 0
2, 75090, Note_on_c, 0, 74, 85
2, 75090, Note_on_c, 0, 65, 85
2, 75120, Note_on_c, 0, 65, 0
2, 75120, Note_on_c, 0, 74, 0
2, 75120, Note_on_c, 0, 72, 85
2, 75120, Note_on_c, 0, 69, 85
2, 75120, Note_on_c, 0, 63, 85
2, 75120, Note_on_c, 0, 53, 85
2, 75150, Note_on_c, 0, 53, 0
2, 75150, Note_on_c, 0, 72, 0
2, 75150, Note_on_c, 0, 69, 0
2, 75150, Note_on_c, 0, 63, 0
2, 75150, Note_on_c, 0, 74, 85
2, 75150, Note_on_c, 0, 65, 85
2, 75180, Note_on_c, 0, 65, 0
2, 75180, Note_on_c, 0, 74, 0
2, 75180, Note_on_c, 0, 72, 85
2, 75180, Note_on_c, 0, 69, 85
2, 75180, Note_on_c, 0, 63, 85
2, 75180, Note_on_c, 0, 53, 85
2, 75210, Note_on_c, 0, 53, 0
2, 75210, Note_on_c, 0, 72, 0
2, 75210, Note_on_c, 0, 69, 0
2, 75210, Note_on_c, 0, 63, 0
2, 75210, Note_on_c, 0, 74, 85
2, 75210, Note_on_c, 0, 65, 85
2, 75240, Note_on_c, 0, 65, 0
2, 75240, Note_on_c, 0, 74, 0
2, 75240, Note_on_c, 0, 72, 85
2, 75240, Note_on_c, 0, 69, 85
2, 75240, Note_on_c, 0, 63, 85
2, 75240, Note_on_c, 0, 53, 85
2, 75240, Note_on_c, 0, 65, 84
2, 75270, Note_on_c, 0, 53, 0
2, 75270, Note_on_c, 0, 63, 0
2, 75270, Note_on_c, 0, 72, 0
2, 75270, Note_on_c, 0, 69, 0
2, 75270, Note_on_c, 0, 74, 85
2, 75270, Note_on_c, 0, 65, 85
2, 75300, Note_on_c, 0, 74, 0
2, 75300, Note_on_c, 0, 65, 0
2, 75300, Note_on_c, 0, 72, 85
2, 75300, Note_on_c, 0, 69, 85
2, 75300, Note_on_c, 0, 63, 85
2, 75300, Note_on_c, 0, 53, 85
2, 75330, Note_on_c, 0, 53, 0
2, 75330, Note_on_c, 0, 69, 0
2, 75330, Note_on_c, 0, 63, 0
2, 75330, Note_on_c, 0, 72, 0
2, 75330, Note_on_c, 0, 74, 85
2, 75330, Note_on_c, 0, 65, 85
2, 75360, Note_on_c, 0, 65, 0
2, 75360, Note_on_c, 0, 74, 0
2, 75360, Note_on_c, 0, 65, 0
2, 75360, Note_on_c, 0, 72, 85
2, 75360, Note_on_c, 0, 69, 85
2, 75360, Note_on_c, 0, 63, 85
2, 75360, Note_on_c, 0, 53, 85
2, 75360, Note_on_c, 0, 53, 90
2, 75360, Note_on_c, 0, 41, 90
2, 75360, Note_on_c, 0, 29, 90
2, 75480, Note_on_c, 0, 53, 0
2, 75480, Note_on_c, 0, 63, 0
2, 75480, Note_on_c, 0, 72, 0
2, 75480, Note_on_c, 0, 69, 0
2, 75480, Note_on_c, 0, 74, 85
2, 75480, Note_on_c, 0, 65, 85
2, 75540, Note_on_c, 0, 29, 0
2, 75540, Note_on_c, 0, 41, 0
2, 75540, Note_on_c, 0, 53, 0
2, 75540, Note_on_c, 0, 43, 84
2, 75540, Note_on_c, 0, 31, 84
2, 75600, Note_on_c, 0, 31, 0
2, 75600, Note_on_c, 0, 65, 0
2, 75600, Note_on_c, 0, 74, 0
2, 75600, Note_on_c, 0, 43, 0
2, 75600, Note_on_c, 0, 72, 85
2, 75600, Note_on_c, 0, 69, 85
2, 75600, Note_on_c, 0, 63, 85
2, 75600, Note_on_c, 0, 53, 85
2, 75600, Note_on_c, 0, 45, 84
2, 75600, Note_on_c, 0, 33, 84
2, 75660, Note_on_c, 0, 33, 0
2, 75660, Note_on_c, 0, 45, 0
2, 75660, Note_on_c, 0, 46, 81
2, 75660, Note_on_c, 0, 34, 81
2, 75720, Note_on_c, 0, 34, 0
2, 75720, Note_on_c, 0, 69, 0
2, 75720, Note_on_c, 0, 53, 0
2, 75720, Note_on_c, 0, 72, 0
2, 75720, Note_on_c, 0, 46, 0
2, 75720, Note_on_c, 0, 63, 0
2, 75720, Note_on_c, 0, 74, 85
2, 75720, Note_on_c, 0, 65, 85
2, 75720, Note_on_c, 0, 48, 81
2, 75720, Note_on_c, 0, 36, 81
2, 75780, Note_on_c, 0, 36, 0
2, 75780, Note_on_c, 0, 48, 0
2, 75780, Note_on_c, 0, 50, 79
2, 75780, Note_on_c, 0, 38, 79
2, 75840, Note_on_c, 0, 38, 0
2, 75840, Note_on_c, 0, 74, 0
2, 75840, Note_on_c, 0, 65, 0
2, 75840, Note_on_c, 0, 50, 0
2, 75840, Note_on_c, 0, 72, 85
2, 75840, Note_on_c, 0, 69, 85
2, 75840, Note_on_c, 0, 63, 85
2, 75840, Note_on_c, 0, 53, 85
2, 75840, Note_on_c, 0, 51, 79
2, 75840, Note_on_c, 0, 39, 79
2, 75900, Note_on_c, 0, 39, 0
2, 75900, Note_on_c, 0, 51, 0
2, 75900, Note_on_c, 0, 53, 79
2, 75900, Note_on_c, 0, 41, 79
2, 75960, Note_on_c, 0, 41, 0
2, 75960, Note_on_c, 0, 69, 0
2, 75960, Note_on_c, 0, 53, 0
2, 75960, Note_on_c, 0, 72, 0
2, 75960, Note_on_c, 0, 53, 0
2, 75960, Note_on_c, 0, 63, 0
2, 75960, Note_on_c, 0, 74, 85
2, 75960, Note_on_c, 0, 65, 85
2, 75960, Note_on_c, 0, 55, 79
2, 75960, Note_on_c, 0, 43, 79
2, 76020, Note_on_c, 0, 43, 0
2, 76020, Note_on_c, 0, 55, 0
2, 76020, Note_on_c, 0, 57, 79
2, 76020, Note_on_c, 0, 45, 79
2, 76080, Note_on_c, 0, 45, 0
2, 76080, Note_on_c, 0, 74, 0
2, 76080, Note_on_c, 0, 65, 0
2, 76080, Note_on_c, 0, 57, 0
2, 76080, Note_on_c, 0, 72, 85
2, 76080, Note_on_c, 0, 69, 85
2, 76080, Note_on_c, 0, 63, 85
2, 76080, Note_on_c, 0, 53, 85
2, 76080, Note_on_c, 0, 58, 71
2, 76080, Note_on_c, 0, 46, 71
2, 76140, Note_on_c, 0, 46, 0
2, 76140, Note_on_c, 0, 58, 0
2, 76140, Note_on_c, 0, 60, 71
2, 76140, Note_on_c, 0, 48, 71
2, 76200, Note_on_c, 0, 48, 0
2, 76200, Note_on_c, 0, 69, 0
2, 76200, Note_on_c, 0, 53, 0
2, 76200, Note_on_c, 0, 72, 0
2, 76200, Note_on_c, 0, 60, 0
2, 76200, Note_on_c, 0, 63, 0
2, 76200, Note_on_c, 0, 74, 85
2, 76200, Note_on_c, 0, 65, 85
2, 76200, Note_on_c, 0, 62, 71
2, 76200, Note_on_c, 0, 50, 71
2, 76260, Note_on_c, 0, 50, 0
2, 76260, Note_on_c, 0, 62, 0
2, 76260, Note_on_c, 0, 63, 71
2, 76260, Note_on_c, 0, 51, 71
2, 76320, Note_on_c, 0, 51, 0
2, 76320, Note_on_c, 0, 74, 0
2, 76320, Note_on_c, 0, 65, 0
2, 76320, Note_on_c, 0, 63, 0
2, 76320, Note_on_c, 0, 72, 85
2, 76320, Note_on_c, 0, 68, 85
2, 76320, Note_on_c, 0, 62, 85
2, 76320, Note_on_c, 0, 53, 85
2, 76320, Note_on_c, 0, 65, 71
2, 76320, Note_on_c, 0, 53, 71
2, 76350, Note_on_c, 0, 53, 0
2, 76350, Note_on_c, 0, 62, 0
2, 76350, Note_on_c, 0, 72, 0
2, 76350, Note_on_c, 0, 68, 0
2, 76350, Note_on_c, 0, 74, 85
2, 76350, Note_on_c, 0, 65, 85
2, 76380, Note_on_c, 0, 74, 0
2, 76380, Note_on_c, 0, 65, 0
2, 76380, Note_on_c, 0, 72, 85
2, 76380, Note_on_c, 0, 68, 85
2, 76380, Note_on_c, 0, 62, 85
2, 76380, Note_on_c, 0, 53, 85
2, 76410, Note_on_c, 0, 62, 0
2, 76410, Note_on_c, 0, 68, 0
2, 76410, Note_on_c, 0, 72, 0
2, 76410, Note_on_c, 0, 53, 0
2, 76410, Note_on_c, 0, 74, 81
2, 76410, Note_on_c, 0, 65, 81
2, 76440, Note_on_c, 0, 65, 0
2, 76440, Note_on_c, 0, 74, 0
2, 76440, Note_on_c, 0, 65, 0
2, 76440, Note_on_c, 0, 72, 81
2, 76440, Note_on_c, 0, 68, 81
2, 76440, Note_on_c, 0, 62, 81
2, 76440, Note_on_c, 0, 53, 81
2, 76440, Note_on_c, 0, 86, 71
2, 76440, Note_on_c, 0, 74, 71
2, 76470, Note_on_c, 0, 62, 0
2, 76470, Note_on_c, 0, 68, 0
2, 76470, Note_on_c, 0, 53, 0
2, 76470, Note_on_c, 0, 72, 0
2, 76470, Note_on_c, 0, 74, 81
2, 76470, Note_on_c, 0, 65, 81
2, 76500, Note_on_c, 0, 65, 0
2, 76500, Note_on_c, 0, 74, 0
2, 76500, Note_on_c, 0, 72, 77
2, 76500, Note_on_c, 0, 68, 77
2, 76500, Note_on_c, 0, 62, 77
2, 76500, Note_on_c, 0, 53, 77
2, 76530, Note_on_c, 0, 62, 0
2, 76530, Note_on_c, 0, 72, 0
2, 76530, Note_on_c, 0, 53, 0
2, 76530, Note_on_c, 0, 68, 0
2, 76530, Note_on_c, 0, 74, 77
2, 76530, Note_on_c, 0, 65, 77
2, 76560, Note_on_c, 0, 65, 0
2, 76560, Note_on_c, 0, 74, 0
2, 76560, Note_on_c, 0, 86, 0
2, 76560, Note_on_c, 0, 53, 0
2, 76560, Note_on_c, 0, 74, 0
2, 76560, Note_on_c, 0, 72, 77
2, 76560, Note_on_c, 0, 68, 77
2, 76560, Note_on_c, 0, 62, 77
2, 76560, Note_on_c, 0, 53, 77
2, 76560, Note_on_c, 0, 74, 81
2, 76560, Note_on_c, 0, 62, 81
2, 76560, Note_on_c, 0, 50, 81
2, 76680, Note_on_c, 0, 53, 0
2, 76680, Note_on_c, 0, 62, 0
2, 76680, Note_on_c, 0, 72, 0
2, 76680, Note_on_c, 0, 68, 0
2, 76680, Note_on_c, 0, 74, 77
2, 76680, Note_on_c, 0, 65, 77
2, 76740, Note_on_c, 0, 50, 0
2, 76740, Note_on_c, 0, 62, 0
2, 76740, Note_on_c, 0, 74, 0
2, 76740, Note_on_c, 0, 75, 71
2, 76740, Note_on_c, 0, 63, 71
2, 76740, Note_on_c, 0, 51, 71
2, 76800, Note_on_c, 0, 51, 0
2, 76800, Note_on_c, 0, 75, 0
2, 76800, Note_on_c, 0, 65, 0
2, 76800, Note_on_c, 0, 74, 0
2, 76800, Note_on_c, 0, 63, 0
2, 76800, Note_on_c, 0, 72, 77
2, 76800, Note_on_c, 0, 68, 77
2, 76800, Note_on_c, 0, 62, 77
2, 76800, Note_on_c, 0, 53, 77
2, 76800, Note_on_c, 0, 77, 71
2, 76800, Note_on_c, 0, 65, 71
2, 76800, Note_on_c, 0, 53, 71
2, 76860, Note_on_c, 0, 65, 0
2, 76860, Note_on_c, 0, 53, 0
2, 76860, Note_on_c, 0, 77, 0
2, 76860, Note_on_c, 0, 79, 71
2, 76860, Note_on_c, 0, 67, 71
2, 76860, Note_on_c, 0, 55, 71
2, 76920, Note_on_c, 0, 55, 0
2, 76920, Note_on_c, 0, 79, 0
2, 76920, Note_on_c, 0, 68, 0
2, 76920, Note_on_c, 0, 53, 0
2, 76920, Note_on_c, 0, 72, 0
2, 76920, Note_on_c, 0, 67, 0
2, 76920, Note_on_c, 0, 62, 0
2, 76920, Note_on_c, 0, 74, 77
2, 76920, Note_on_c, 0, 65, 77
2, 76920, Note_on_c, 0, 80, 71
2, 76920, Note_on_c, 0, 68, 71
2, 76920, Note_on_c, 0, 56, 71
2, 76980, Note_on_c, 0, 56, 0
2, 76980, Note_on_c, 0, 80, 0
2, 76980, Note_on_c, 0, 68, 0
2, 76980, Note_on_c, 0, 83, 71
2, 76980, Note_on_c, 0, 71, 71
2, 76980, Note_on_c, 0, 59, 71
2, 77040, Note_on_c, 0, 59, 0
2, 77040, Note_on_c, 0, 83, 0
2, 77040, Note_on_c, 0, 74, 0
2, 77040, Note_on_c, 0, 65, 0
2, 77040, Note_on_c, 0, 71, 0
2, 77040, Note_on_c, 0, 72, 77
2, 77040, Note_on_c, 0, 68, 77
2, 77040, Note_on_c, 0, 62, 77
2, 77040, Note_on_c, 0, 53, 77
2, 77040, Note_on_c, 0, 84, 71
2, 77040, Note_on_c, 0, 72, 71
2, 77040, Note_on_c, 0, 60, 71
2, 77100, Note_on_c, 0, 60, 0
2, 77100, Note_on_c, 0, 72, 0
2, 77100, Note_on_c, 0, 84, 0
2, 77100, Note_on_c, 0, 86, 71
2, 77100, Note_on_c, 0, 74, 71
2, 77100, Note_on_c, 0, 62, 71
2, 77160, Note_on_c, 0, 62, 0
2, 77160, Note_on_c, 0, 86, 0
2, 77160, Note_on_c, 0, 62, 0
2, 77160, Note_on_c, 0, 72, 0
2, 77160, Note_on_c, 0, 68, 0
2, 77160, Note_on_c, 0, 74, 0
2, 77160, Note_on_c, 0, 53, 0
2, 77160, Note_on_c, 0, 74, 77
2, 77160, Note_on_c, 0, 65, 77
2, 77160, Note_on_c, 0, 87, 71
2, 77160, Note_on_c, 0, 75, 71
2, 77160, Note_on_c, 0, 63, 71
2, 77220, Note_on_c, 0, 63, 0
2, 77220, Note_on_c, 0, 87, 0
2, 77220, Note_on_c, 0, 75, 0
2, 77220, Note_on_c, 0, 89, 71
2, 77220, Note_on_c, 0, 77, 71
2, 77220, Note_on_c, 0, 65, 71
2, 77280, Note_on_c, 0, 65, 0
2, 77280, Note_on_c, 0, 89, 0
2, 77280, Note_on_c, 0, 74, 0
2, 77280, Note_on_c, 0, 65, 0
2, 77280, Note_on_c, 0, 77, 0
2, 77280, Note_on_c, 0, 74, 71
2, 77280, Note_on_c, 0, 67, 71
2, 77280, Note_on_c, 0, 62, 71
2, 77280, Note_on_c, 0, 59, 71
2, 77280, Note_on_c, 0, 91, 79
2, 77280, Note_on_c, 0, 79, 79
2, 77280, Note_on_c, 0, 67, 79
2, 77400, Note_on_c, 0, 67, 0
2, 77400, Note_on_c, 0, 91, 0
2, 77400, Note_on_c, 0, 67, 0
2, 77400, Note_on_c, 0, 62, 0
2, 77400, Note_on_c, 0, 74, 0
2, 77400, Note_on_c, 0, 79, 0
2, 77400, Note_on_c, 0, 59, 0
2, 77400, Note_on_c, 0, 79, 71
2, 77400, Note_on_c, 0, 65, 71
2, 77400, Note_on_c, 0, 55, 71
2, 77400, Note_on_c, 0, 43, 71
2, 77520, Note_on_c, 0, 43, 0
2, 77520, Note_on_c, 0, 79, 0
2, 77520, Note_on_c, 0, 65, 0
2, 77520, Note_on_c, 0, 55, 0
2, 77520, Note_on_c, 0, 74, 71
2, 77520, Note_on_c, 0, 67, 71
2, 77520, Note_on_c, 0, 62, 71
2, 77520, Note_on_c, 0, 59, 71
2, 77520, Note_on_c, 0, 43, 84
2, 77520, Note_on_c, 0, 31, 84
2, 77640, Note_on_c, 0, 31, 0
2, 77640, Note_on_c, 0, 67, 0
2, 77640, Note_on_c, 0, 62, 0
2, 77640, Note_on_c, 0, 74, 0
2, 77640, Note_on_c, 0, 43, 0
2, 77640, Note_on_c, 0, 59, 0
2, 77640, Note_on_c, 0, 79, 71
2, 77640, Note_on_c, 0, 65, 71
2, 77640, Note_on_c, 0, 77, 71
2, 77700, Note_on_c, 0, 45, 71
2, 77700, Note_on_c, 0, 33, 71
2, 77760, Note_on_c, 0, 33, 0
2, 77760, Note_on_c, 0, 77, 0
2, 77760, Note_on_c, 0, 79, 0
2, 77760, Note_on_c, 0, 65, 0
2, 77760, Note_on_c, 0, 45, 0
2, 77760, Note_on_c, 0, 74, 71
2, 77760, Note_on_c, 0, 67, 71
2, 77760, Note_on_c, 0, 62, 71
2, 77760, Note_on_c, 0, 59, 71
2, 77760, Note_on_c, 0, 55, 71
2, 77760, Note_on_c, 0, 65, 76
2, 77760, Note_on_c, 0, 47, 76
2, 77760, Note_on_c, 0, 35, 76
2, 77820, Note_on_c, 0, 35, 0
2, 77820, Note_on_c, 0, 47, 0
2, 77820, Note_on_c, 0, 48, 71
2, 77820, Note_on_c, 0, 36, 71
2, 77880, Note_on_c, 0, 36, 0
2, 77880, Note_on_c, 0, 59, 0
2, 77880, Note_on_c, 0, 55, 0
2, 77880, Note_on_c, 0, 48, 0
2, 77880, Note_on_c, 0, 62, 0
2, 77880, Note_on_c, 0, 74, 0
2, 77880, Note_on_c, 0, 67, 0
2, 77880, Note_on_c, 0, 79, 71
2, 77880, Note_on_c, 0, 65, 71
2, 77880, Note_on_c, 0, 50, 71
2, 77880, Note_on_c, 0, 38, 71
2, 77940, Note_on_c, 0, 38, 0
2, 77940, Note_on_c, 0, 65, 0
2, 77940, Note_on_c, 0, 50, 0
2, 77940, Note_on_c, 0, 67, 71
2, 77940, Note_on_c, 0, 51, 71
2, 77940, Note_on_c, 0, 39, 71
2, 78000, Note_on_c, 0, 39, 0
2, 78000, Note_on_c, 0, 67, 0
2, 78000, Note_on_c, 0, 79, 0
2, 78000, Note_on_c, 0, 65, 0
2, 78000, Note_on_c, 0, 51, 0
2, 78000, Note_on_c, 0, 74, 71
2, 78000, Note_on_c, 0, 67, 71
2, 78000, Note_on_c, 0, 62, 71
2, 78000, Note_on_c, 0, 59, 71
2, 78000, Note_on_c, 0, 55, 71
2, 78000, Note_on_c, 0, 69, 71
2, 78000, Note_on_c, 0, 53, 71
2, 78000, Note_on_c, 0, 41, 71
2, 78060, Note_on_c, 0, 41, 0
2, 78060, Note_on_c, 0, 53, 0
2, 78060, Note_on_c, 0, 69, 0
2, 78060, Note_on_c, 0, 71, 71
2, 78060, Note_on_c, 0, 55, 71
2, 78060, Note_on_c, 0, 43, 71
2, 78120, Note_on_c, 0, 43, 0
2, 78120, Note_on_c, 0, 59, 0
2, 78120, Note_on_c, 0, 67, 0
2, 78120, Note_on_c, 0, 55, 0
2, 78120, Note_on_c, 0, 62, 0
2, 78120, Note_on_c, 0, 74, 0
2, 78120, Note_on_c, 0, 71, 0
2, 78120, Note_on_c, 0, 55, 0
2, 78120, Note_on_c, 0, 79, 71
2, 78120, Note_on_c, 0, 65, 71
2, 78120, Note_on_c, 0, 72, 71
2, 78120, Note_on_c, 0, 57, 71
2, 78120, Note_on_c, 0, 45, 71
2, 78180, Note_on_c, 0, 45, 0
2, 78180, Note_on_c, 0, 72, 0
2, 78180, Note_on_c, 0, 57, 0
2, 78180, Note_on_c, 0, 74, 71
2, 78180, Note_on_c, 0, 59, 71
2, 78180, Note_on_c, 0, 47, 71
2, 78240, Note_on_c, 0, 47, 0
2, 78240, Note_on_c, 0, 74, 0
2, 78240, Note_on_c, 0, 79, 0
2, 78240, Note_on_c, 0, 65, 0
2, 78240, Note_on_c, 0, 59, 0
2, 78240, Note_on_c, 0, 75, 71
2, 78240, Note_on_c, 0, 67, 71
2, 78240, Note_on_c, 0, 60, 71
2, 78240, Note_on_c, 0, 75, 71
2, 78240, Note_on_c, 0, 60, 71
2, 78240, Note_on_c, 0, 48, 71
2, 78360, Note_on_c, 0, 48, 0
2, 78360, Note_on_c, 0, 67, 0
2, 78360, Note_on_c, 0, 60, 0
2, 78360, Note_on_c, 0, 75, 0
2, 78360, Note_on_c, 0, 60, 0
2, 78360, Note_on_c, 0, 75, 0
2, 78360, Note_on_c, 0, 77, 71
2, 78360, Note_on_c, 0, 62, 71
2, 78360, Note_on_c, 0, 84, 71
2, 78480, Note_on_c, 0, 84, 0
2, 78480, Note_on_c, 0, 62, 0
2, 78480, Note_on_c, 0, 77, 0
2, 78480, Note_on_c, 0, 75, 71
2, 78480, Note_on_c, 0, 67, 71
2, 78480, Note_on_c, 0, 60, 71
2, 78480, Note_on_c, 0, 58, 81
2, 78480, Note_on_c, 0, 72, 79
2, 78480, Note_on_c, 0, 60, 79
2, 78510, Note_on_c, 0, 60, 0
2, 78510, Note_on_c, 0, 62, 71
2, 78540, Note_on_c, 0, 62, 0
2, 78540, Note_on_c, 0, 60, 71
2, 78570, Note_on_c, 0, 60, 0
2, 78570, Note_on_c, 0, 62, 71
2, 78600, Note_on_c, 0, 62, 0
2, 78600, Note_on_c, 0, 67, 0
2, 78600, Note_on_c, 0, 75, 0
2, 78600, Note_on_c, 0, 72, 0
2, 78600, Note_on_c, 0, 77, 71
2, 78600, Note_on_c, 0, 60, 71
2, 78600, Note_on_c, 0, 87, 71
2, 78600, Note_on_c, 0, 84, 71
2, 78630, Note_on_c, 0, 60, 0
2, 78630, Note_on_c, 0, 62, 71
2, 78660, Note_on_c, 0, 62, 0
2, 78660, Note_on_c, 0, 60, 0
2, 78660, Note_on_c, 0, 60, 71
2, 78660, Note_on_c, 0, 62, 71
2, 78690, Note_on_c, 0, 60, 0
2, 78690, Note_on_c, 0, 62, 71
2, 78720, Note_on_c, 0, 62, 0
2, 78720, Note_on_c, 0, 62, 0
2, 78720, Note_on_c, 0, 77, 0
2, 78720, Note_on_c, 0, 58, 0
2, 78720, Note_on_c, 0, 84, 0
2, 78720, Note_on_c, 0, 87, 0
2, 78720, Note_on_c, 0, 75, 73
2, 78720, Note_on_c, 0, 66, 73
2, 78720, Note_on_c, 0, 60, 73
2, 78720, Note_on_c, 0, 57, 84
2, 78720, Note_on_c, 0, 75, 71
2, 78720, Note_on_c, 0, 60, 71
2, 78750, Note_on_c, 0, 60, 0
2, 78750, Note_on_c, 0, 62, 73
2, 78780, Note_on_c, 0, 62, 0
2, 78780, Note_on_c, 0, 75, 0
2, 78780, Note_on_c, 0, 60, 73
2, 78780, Note_on_c, 0, 78, 71
2, 78810, Note_on_c, 0, 60, 0
2, 78810, Note_on_c, 0, 62, 73
2, 78840, Note_on_c, 0, 62, 0
2, 78840, Note_on_c, 0, 78, 0
2, 78840, Note_on_c, 0, 75, 0
2, 78840, Note_on_c, 0, 60, 0
2, 78840, Note_on_c, 0, 66, 0
2, 78840, Note_on_c, 0, 77, 73
2, 78840, Note_on_c, 0, 60, 73
2, 78840, Note_on_c, 0, 79, 71
2, 78840, Note_on_c, 0, 57, 71
2, 78870, Note_on_c, 0, 60, 0
2, 78870, Note_on_c, 0, 62, 73
2, 78900, Note_on_c, 0, 62, 0
2, 78900, Note_on_c, 0, 79, 0
2, 78900, Note_on_c, 0, 60, 73
2, 78900, Note_on_c, 0, 81, 71
2, 78930, Note_on_c, 0, 60, 0
2, 78930, Note_on_c, 0, 62, 73
2, 78960, Note_on_c, 0, 62, 0
2, 78960, Note_on_c, 0, 81, 0
2, 78960, Note_on_c, 0, 57, 0
2, 78960, Note_on_c, 0, 77, 0
2, 78960, Note_on_c, 0, 57, 0
2, 78960, Note_on_c, 0, 75, 76
2, 78960, Note_on_c, 0, 67, 76
2, 78960, Note_on_c, 0, 60, 76
2, 78960, Note_on_c, 0, 55, 86
2, 78960, Note_on_c, 0, 82, 71
2, 78960, Note_on_c, 0, 79, 71
2, 78960, Note_on_c, 0, 43, 71
2, 78990, Note_on_c, 0, 60, 0
2, 78990, Note_on_c, 0, 62, 76
2, 79020, Note_on_c, 0, 62, 0
2, 79020, Note_on_c, 0, 79, 0
2, 79020, Note_on_c, 0, 82, 0
2, 79020, Note_on_c, 0, 60, 76
2, 79020, Note_on_c, 0, 84, 71
2, 79020, Note_on_c, 0, 81, 71
2, 79050, Note_on_c, 0, 60, 0
2, 79050, Note_on_c, 0, 62, 76
2, 79080, Note_on_c, 0, 62, 0
2, 79080, Note_on_c, 0, 81, 0
2, 79080, Note_on_c, 0, 67, 0
2, 79080, Note_on_c, 0, 43, 0
2, 79080, Note_on_c, 0, 75, 0
2, 79080, Note_on_c, 0, 84, 0
2, 79080, Note_on_c, 0, 77, 76
2, 79080, Note_on_c, 0, 60, 76
2, 79080, Note_on_c, 0, 86, 71
2, 79080, Note_on_c, 0, 82, 71
2, 79080, Note_on_c, 0, 55, 71
2, 79110, Note_on_c, 0, 60, 0
2, 79110, Note_on_c, 0, 62, 76
2, 79140, Note_on_c, 0, 62, 0
2, 79140, Note_on_c, 0, 86, 0
2, 79140, Note_on_c, 0, 82, 0
2, 79140, Note_on_c, 0, 60, 76
2, 79140, Note_on_c, 0, 87, 71
2, 79140, Note_on_c, 0, 84, 71
2, 79170, Note_on_c, 0, 60, 0
2, 79170, Note_on_c, 0, 62, 76
2, 79200, Note_on_c, 0, 62, 0
2, 79200, Note_on_c, 0, 84, 0
2, 79200, Note_on_c, 0, 55, 0
2, 79200, Note_on_c, 0, 55, 0
2, 79200, Note_on_c, 0, 77, 0
2, 79200, Note_on_c, 0, 87, 0
2, 79200, Note_on_c, 0, 75, 79
2, 79200, Note_on_c, 0, 69, 79
2, 79200, Note_on_c, 0, 60, 79
2, 79200, Note_on_c, 0, 54, 89
2, 79200, Note_on_c, 0, 93, 71
2, 79200, Note_on_c, 0, 87, 71
2, 79200, Note_on_c, 0, 81, 71
2, 79200, Note_on_c, 0, 42, 71
2, 79230, Note_on_c, 0, 60, 0
2, 79230, Note_on_c, 0, 62, 79
2, 79260, Note_on_c, 0, 62, 0
2, 79260, Note_on_c, 0, 60, 79
2, 79290, Note_on_c, 0, 60, 0
2, 79290, Note_on_c, 0, 62, 79
2, 79320, Note_on_c, 0, 62, 0
2, 79320, Note_on_c, 0, 42, 0
2, 79320, Note_on_c, 0, 87, 0
2, 79320, Note_on_c, 0, 69, 0
2, 79320, Note_on_c, 0, 75, 0
2, 79320, Note_on_c, 0, 93, 0
2, 79320, Note_on_c, 0, 81, 0
2, 79320, Note_on_c, 0, 77, 79
2, 79320, Note_on_c, 0, 60, 79
2, 79320, Note_on_c, 0, 84, 71
2, 79320, Note_on_c, 0, 51, 71
2, 79350, Note_on_c, 0, 60, 0
2, 79350, Note_on_c, 0, 62, 79
2, 79380, Note_on_c, 0, 62, 0
2, 79380, Note_on_c, 0, 60, 79
2, 79410, Note_on_c, 0, 60, 0
2, 79410, Note_on_c, 0, 62, 79
2, 79440, Note_on_c, 0, 62, 0
2, 79440, Note_on_c, 0, 51, 0
2, 79440, Note_on_c, 0, 54, 0
2, 79440, Note_on_c, 0, 77, 0
2, 79440, Note_on_c, 0, 84, 0
2, 79440, Note_on_c, 0, 75, 89
2, 79440, Note_on_c, 0, 67, 89
2, 79440, Note_on_c, 0, 60, 81
2, 79440, Note_on_c, 0, 58, 91
2, 79440, Note_on_c, 0, 72, 81
2, 79440, Note_on_c, 0, 63, 81
2, 79470, Note_on_c, 0, 60, 0
2, 79470, Note_on_c, 0, 62, 81
2, 79500, Note_on_c, 0, 62, 0
2, 79500, Note_on_c, 0, 60, 81
2, 79530, Note_on_c, 0, 60, 0
2, 79530, Note_on_c, 0, 62, 81
2, 79560, Note_on_c, 0, 62, 0
2, 79560, Note_on_c, 0, 63, 0
2, 79560, Note_on_c, 0, 75, 0
2, 79560, Note_on_c, 0, 72, 0
2, 79560, Note_on_c, 0, 67, 0
2, 79560, Note_on_c, 0, 77, 81
2, 79560, Note_on_c, 0, 60, 81
2, 79560, Note_on_c, 0, 87, 71
2, 79560, Note_on_c, 0, 84, 71
2, 79590, Note_on_c, 0, 60, 0
2, 79590, Note_on_c, 0, 62, 81
2, 79620, Note_on_c, 0, 62, 0
2, 79620, Note_on_c, 0, 60, 81
2, 79620, Note_on_c, 0, 62, 71
2, 79650, Note_on_c, 0, 60, 0
2, 79650, Note_on_c, 0, 62, 81
2, 79680, Note_on_c, 0, 62, 0
2, 79680, Note_on_c, 0, 62, 0
2, 79680, Note_on_c, 0, 87, 0
2, 79680, Note_on_c, 0, 58, 0
2, 79680, Note_on_c, 0, 77, 0
2, 79680, Note_on_c, 0, 84, 0
2, 79680, Note_on_c, 0, 75, 84
2, 79680, Note_on_c, 0, 66, 84
2, 79680, Note_on_c, 0, 60, 84
2, 79680, Note_on_c, 0, 57, 94
2, 79680, Note_on_c, 0, 63, 71
2, 79680, Note_on_c, 0, 60, 71
2, 79710, Note_on_c, 0, 60, 0
2, 79710, Note_on_c, 0, 62, 84
2, 79740, Note_on_c, 0, 62, 0
2, 79740, Note_on_c, 0, 60, 84
2, 79740, Note_on_c, 0, 78, 71
2, 79770, Note_on_c, 0, 60, 0
2, 79770, Note_on_c, 0, 62, 84
2, 79800, Note_on_c, 0, 62, 0
2, 79800, Note_on_c, 0, 78, 0
2, 79800, Note_on_c, 0, 66, 0
2, 79800, Note_on_c, 0, 75, 0
2, 79800, Note_on_c, 0, 63, 0
2, 79800, Note_on_c, 0, 60, 0
2, 79800, Note_on_c, 0, 77, 84
2, 79800, Note_on_c, 0, 60, 84
2, 79800, Note_on_c, 0, 79, 71
2, 79800, Note_on_c, 0, 57, 71
2, 79830, Note_on_c, 0, 60, 0
2, 79830, Note_on_c, 0, 62, 84
2, 79860, Note_on_c, 0, 62, 0
2, 79860, Note_on_c, 0, 79, 0
2, 79860, Note_on_c, 0, 60, 84
2, 79860, Note_on_c, 0, 81, 71
2, 79860, Note_on_c, 0, 78, 71
2, 79890, Note_on_c, 0, 60, 0
2, 79890, Note_on_c, 0, 62, 84
2, 79920, Note_on_c, 0, 62, 0
2, 79920, Note_on_c, 0, 78, 0
2, 79920, Note_on_c, 0, 57, 0
2, 79920, Note_on_c, 0, 57, 0
2, 79920, Note_on_c, 0, 77, 0
2, 79920, Note_on_c, 0, 81, 0
2, 79920, Note_on_c, 0, 75, 94
2, 79920, Note_on_c, 0, 67, 94
2, 79920, Note_on_c, 0, 60, 86
2, 79920, Note_on_c, 0, 55, 96
2, 79920, Note_on_c, 0, 82, 71
2, 79920, Note_on_c, 0, 79, 71
2, 79920, Note_on_c, 0, 43, 71
2, 79950, Note_on_c, 0, 60, 0
2, 79950, Note_on_c, 0, 62, 86
2, 79980, Note_on_c, 0, 62, 0
2, 79980, Note_on_c, 0, 79, 0
2, 79980, Note_on_c, 0, 82, 0
2, 79980, Note_on_c, 0, 60, 86
2, 79980, Note_on_c, 0, 84, 71
2, 79980, Note_on_c, 0, 81, 71
2, 80010, Note_on_c, 0, 60, 0
2, 80010, Note_on_c, 0, 62, 86
2, 80040, Note_on_c, 0, 62, 0
2, 80040, Note_on_c, 0, 81, 0
2, 80040, Note_on_c, 0, 67, 0
2, 80040, Note_on_c, 0, 43, 0
2, 80040, Note_on_c, 0, 75, 0
2, 80040, Note_on_c, 0, 84, 0
2, 80040, Note_on_c, 0, 77, 86
2, 80040, Note_on_c, 0, 60, 86
2, 80040, Note_on_c, 0, 86, 71
2, 80040, Note_on_c, 0, 82, 71
2, 80040, Note_on_c, 0, 55, 71
2, 80070, Note_on_c, 0, 60, 0
2, 80070, Note_on_c, 0, 62, 86
2, 80100, Note_on_c, 0, 62, 0
2, 80100, Note_on_c, 0, 86, 0
2, 80100, Note_on_c, 0, 82, 0
2, 80100, Note_on_c, 0, 60, 86
2, 80100, Note_on_c, 0, 87, 71
2, 80100, Note_on_c, 0, 84, 71
2, 80130, Note_on_c, 0, 60, 0
2, 80130, Note_on_c, 0, 62, 86
2, 80160, Note_on_c, 0, 62, 0
2, 80160, Note_on_c, 0, 84, 0
2, 80160, Note_on_c, 0, 55, 0
2, 80160, Note_on_c, 0, 55, 0
2, 80160, Note_on_c, 0, 77, 0
2, 80160, Note_on_c, 0, 87, 0
2, 80160, Note_on_c, 0, 75, 84
2, 80160, Note_on_c, 0, 69, 84
2, 80160, Note_on_c, 0, 60, 84
2, 80160, Note_on_c, 0, 54, 84
2, 80160, Note_on_c, 0, 93, 84
2, 80160, Note_on_c, 0, 87, 84
2, 80160, Note_on_c, 0, 80, 84
2, 80160, Note_on_c, 0, 54, 84
2, 80160, Note_on_c, 0, 42, 68
2, 80190, Note_on_c, 0, 69, 0
2, 80190, Note_on_c, 0, 75, 0
2, 80190, Note_on_c, 0, 77, 84
2, 80220, Note_on_c, 0, 77, 0
2, 80220, Note_on_c, 0, 54, 0
2, 80220, Note_on_c, 0, 60, 0
2, 80220, Note_on_c, 0, 75, 84
2, 80250, Note_on_c, 0, 75, 0
2, 80250, Note_on_c, 0, 72, 84
2, 80280, Note_on_c, 0, 72, 0
2, 80280, Note_on_c, 0, 87, 0
2, 80280, Note_on_c, 0, 93, 0
2, 80280, Note_on_c, 0, 54, 0
2, 80280, Note_on_c, 0, 80, 0
2, 80280, Note_on_c, 0, 42, 0
2, 80280, Note_on_c, 0, 81, 84
2, 80280, Note_on_c, 0, 63, 84
2, 80280, Note_on_c, 0, 60, 84
2, 80280, Note_on_c, 0, 54, 84
2, 80310, Note_on_c, 0, 81, 0
2, 80310, Note_on_c, 0, 75, 84
2, 80340, Note_on_c, 0, 75, 0
2, 80340, Note_on_c, 0, 54, 0
2, 80340, Note_on_c, 0, 60, 0
2, 80340, Note_on_c, 0, 63, 0
2, 80340, Note_on_c, 0, 74, 84
2, 80370, Note_on_c, 0, 74, 0
2, 80370, Note_on_c, 0, 72, 84
2, 80400, Note_on_c, 0, 72, 0
2, 80400, Note_on_c, 0, 70, 84
2, 80400, Note_on_c, 0, 62, 84
2, 80400, Note_on_c, 0, 58, 84
2, 80400, Note_on_c, 0, 55, 84
2, 80430, Note_on_c, 0, 70, 0
2, 80430, Note_on_c, 0, 74, 84
2, 80460, Note_on_c, 0, 74, 0
2, 80460, Note_on_c, 0, 55, 0
2, 80460, Note_on_c, 0, 58, 0
2, 80460, Note_on_c, 0, 62, 0
2, 80460, Note_on_c, 0, 72, 84
2, 80490, Note_on_c, 0, 72, 0
2, 80490, Note_on_c, 0, 70, 84
2, 80520, Note_on_c, 0, 70, 0
2, 80520, Note_on_c, 0, 79, 84
2, 80520, Note_on_c, 0, 58, 84
2, 80520, Note_on_c, 0, 55, 84
2, 80520, Note_on_c, 0, 50, 84
2, 80520, Note_on_c, 0, 46, 84
2, 80550, Note_on_c, 0, 79, 0
2, 80550, Note_on_c, 0, 74, 84
2, 80580, Note_on_c, 0, 74, 0
2, 80580, Note_on_c, 0, 46, 0
2, 80580, Note_on_c, 0, 58, 0
2, 80580, Note_on_c, 0, 55, 0
2, 80580, Note_on_c, 0, 50, 0
2, 80580, Note_on_c, 0, 72, 84
2, 80610, Note_on_c, 0, 72, 0
2, 80610, Note_on_c, 0, 70, 84
2, 80640, Note_on_c, 0, 70, 0
2, 80640, Channel_aftertouch_c, 0, 107
2, 80640, Note_on_c, 0, 68, 87
2, 80640, Note_on_c, 0, 56, 87
2, 80640, Note_on_c, 0, 51, 87
2, 80640, Note_on_c, 0, 48, 87
2, 80670, Note_on_c, 0, 68, 0
2, 80670, Note_on_c, 0, 72, 84
2, 80700, Note_on_c, 0, 72, 0
2, 80700, Note_on_c, 0, 48, 0
2, 80700, Note_on_c, 0, 51, 0
2, 80700, Note_on_c, 0, 56, 0
2, 80700, Note_on_c, 0, 70, 84
2, 80730, Note_on_c, 0, 70, 0
2, 80730, Note_on_c, 0, 68, 84
2, 80760, Note_on_c, 0, 68, 0
2, 80760, Note_on_c, 0, 75, 84
2, 80790, Note_on_c, 0, 75, 0
2, 80790, Note_on_c, 0, 72, 84
2, 80820, Note_on_c, 0, 72, 0
2, 80820, Note_on_c, 0, 70, 84
2, 80850, Note_on_c, 0, 70, 0
2, 80850, Note_on_c, 0, 68, 84
2, 80880, Note_on_c, 0, 68, 0
2, 80880, Note_on_c, 0, 67, 87
2, 80880, Note_on_c, 0, 58, 87
2, 80880, Note_on_c, 0, 55, 87
2, 80880, Note_on_c, 0, 52, 87
2, 80880, Note_on_c, 0, 49, 87
2, 80910, Note_on_c, 0, 67, 0
2, 80910, Note_on_c, 0, 70, 84
2, 80940, Note_on_c, 0, 70, 0
2, 80940, Note_on_c, 0, 49, 0
2, 80940, Note_on_c, 0, 58, 0
2, 80940, Note_on_c, 0, 55, 0
2, 80940, Note_on_c, 0, 52, 0
2, 80940, Note_on_c, 0, 69, 84
2, 80970, Note_on_c, 0, 69, 0
2, 80970, Note_on_c, 0, 67, 84
2, 81000, Note_on_c, 0, 67, 0
2, 81000, Note_on_c, 0, 76, 84
2, 81030, Note_on_c, 0, 76, 0
2, 81030, Note_on_c, 0, 70, 84
2, 81060, Note_on_c, 0, 70, 0
2, 81060, Note_on_c, 0, 68, 84
2, 81090, Note_on_c, 0, 68, 0
2, 81090, Note_on_c, 0, 67, 84
2, 81120, Note_on_c, 0, 67, 0
2, 81120, Channel_aftertouch_c, 0, 91
2, 81120, Note_on_c, 0, 66, 84
2, 81120, Note_on_c, 0, 50, 87
2, 81120, Note_on_c, 0, 38, 87
2, 81120, Note_on_c, 0, 50, 71
2, 81120, Note_on_c, 0, 38, 71
2, 81150, Note_on_c, 0, 66, 0
2, 81150, Note_on_c, 0, 69, 84
2, 81180, Note_on_c, 0, 69, 0
2, 81180, Note_on_c, 0, 50, 0
2, 81180, Note_on_c, 0, 38, 0
2, 81180, Note_on_c, 0, 66, 84
2, 81210, Note_on_c, 0, 66, 0
2, 81210, Note_on_c, 0, 74, 84
2, 81240, Note_on_c, 0, 74, 0
2, 81240, Note_on_c, 0, 50, 0
2, 81240, Note_on_c, 0, 38, 0
2, 81240, Note_on_c, 0, 66, 73
2, 81240, Note_on_c, 0, 54, 73
2, 81240, Note_on_c, 0, 74, 73
2, 81240, Note_on_c, 0, 69, 73
2, 81240, Note_on_c, 0, 66, 73
2, 81270, Note_on_c, 0, 81, 73
2, 81300, Note_on_c, 0, 81, 0
2, 81300, Note_on_c, 0, 66, 0
2, 81300, Note_on_c, 0, 54, 0
2, 81300, Note_on_c, 0, 69, 73
2, 81330, Note_on_c, 0, 69, 0
2, 81330, Note_on_c, 0, 74, 73
2, 81360, Note_on_c, 0, 74, 0
2, 81360, Note_on_c, 0, 69, 0
2, 81360, Note_on_c, 0, 66, 0
2, 81360, Note_on_c, 0, 74, 0
2, 81360, Note_on_c, 0, 64, 73
2, 81360, Note_on_c, 0, 57, 73
2, 81360, Note_on_c, 0, 76, 76
2, 81360, Note_on_c, 0, 73, 76
2, 81360, Note_on_c, 0, 69, 76
2, 81390, Note_on_c, 0, 79, 73
2, 81420, Note_on_c, 0, 79, 0
2, 81420, Note_on_c, 0, 64, 0
2, 81420, Note_on_c, 0, 57, 0
2, 81420, Note_on_c, 0, 67, 73
2, 81450, Note_on_c, 0, 67, 0
2, 81450, Note_on_c, 0, 69, 73
2, 81480, Note_on_c, 0, 69, 0
2, 81480, Note_on_c, 0, 73, 0
2, 81480, Note_on_c, 0, 69, 0
2, 81480, Note_on_c, 0, 76, 0
2, 81480, Note_on_c, 0, 62, 73
2, 81480, Note_on_c, 0, 78, 79
2, 81480, Note_on_c, 0, 74, 79
2, 81480, Note_on_c, 0, 69, 79
2, 81510, Note_on_c, 0, 78, 73
2, 81540, Note_on_c, 0, 78, 0
2, 81540, Note_on_c, 0, 62, 0
2, 81540, Note_on_c, 0, 66, 73
2, 81570, Note_on_c, 0, 66, 0
2, 81570, Note_on_c, 0, 69, 73
2, 81600, Note_on_c, 0, 69, 0
2, 81600, Note_on_c, 0, 69, 0
2, 81600, Note_on_c, 0, 74, 0
2, 81600, Note_on_c, 0, 78, 0
2, 81600, Note_on_c, 0, 57, 73
2, 81600, Note_on_c, 0, 45, 73
2, 81600, Note_on_c, 0, 81, 79
2, 81600, Note_on_c, 0, 78, 79
2, 81600, Note_on_c, 0, 45, 84
2, 81600, Note_on_c, 0, 33, 84
2, 81630, Note_on_c, 0, 69, 73
2, 81660, Note_on_c, 0, 69, 0
2, 81660, Note_on_c, 0, 57, 0
2, 81660, Note_on_c, 0, 45, 0
2, 81660, Note_on_c, 0, 73, 73
2, 81690, Note_on_c, 0, 73, 0
2, 81690, Note_on_c, 0, 76, 73
2, 81720, Note_on_c, 0, 76, 0
2, 81720, Note_on_c, 0, 45, 0
2, 81720, Note_on_c, 0, 78, 0
2, 81720, Note_on_c, 0, 81, 0
2, 81720, Note_on_c, 0, 33, 0
2, 81720, Note_on_c, 0, 79, 73
2, 81720, Note_on_c, 0, 79, 76
2, 81720, Note_on_c, 0, 76, 76
2, 81750, Note_on_c, 0, 79, 0
2, 81750, Note_on_c, 0, 81, 73
2, 81780, Note_on_c, 0, 81, 0
2, 81780, Note_on_c, 0, 85, 73
2, 81810, Note_on_c, 0, 85, 0
2, 81810, Note_on_c, 0, 88, 73
2, 81840, Note_on_c, 0, 88, 0
2, 81840, Note_on_c, 0, 76, 0
2, 81840, Note_on_c, 0, 79, 0
2, 81840, Note_on_c, 0, 93, 73
2, 81840, Note_on_c, 0, 67, 73
2, 81840, Note_on_c, 0, 64, 73
2, 81840, Note_on_c, 0, 57, 73
2, 81840, Note_on_c, 0, 76, 73
2, 81840, Note_on_c, 0, 69, 73
2, 81870, Note_on_c, 0, 93, 0
2, 81870, Note_on_c, 0, 91, 73
2, 81900, Note_on_c, 0, 91, 0
2, 81900, Note_on_c, 0, 64, 0
2, 81900, Note_on_c, 0, 67, 0
2, 81900, Note_on_c, 0, 57, 0
2, 81900, Note_on_c, 0, 88, 73
2, 81930, Note_on_c, 0, 88, 0
2, 81930, Note_on_c, 0, 85, 73
2, 81960, Note_on_c, 0, 85, 0
2, 81960, Note_on_c, 0, 81, 73
2, 81960, Note_on_c, 0, 81, 71
2, 81990, Note_on_c, 0, 81, 0
2, 81990, Note_on_c, 0, 79, 73
2, 82020, Note_on_c, 0, 79, 0
2, 82020, Note_on_c, 0, 76, 73
2, 82050, Note_on_c, 0, 76, 0
2, 82050, Note_on_c, 0, 73, 73
2, 82080, Note_on_c, 0, 73, 0
2, 82080, Note_on_c, 0, 76, 0
2, 82080, Note_on_c, 0, 69, 0
2, 82080, Note_on_c, 0, 81, 0
2, 82080, Note_on_c, 0, 50, 73
2, 82080, Note_on_c, 0, 38, 73
2, 82080, Note_on_c, 0, 81, 71
2, 82080, Note_on_c, 0, 38, 71
2, 82110, Note_on_c, 0, 78, 73
2, 82140, Note_on_c, 0, 78, 0
2, 82140, Note_on_c, 0, 50, 0
2, 82140, Note_on_c, 0, 38, 0
2, 82140, Note_on_c, 0, 69, 73
2, 82170, Note_on_c, 0, 69, 0
2, 82170, Note_on_c, 0, 74, 73
2, 82200, Note_on_c, 0, 74, 0
2, 82200, Note_on_c, 0, 81, 0
2, 82200, Note_on_c, 0, 38, 0
2, 82200, Channel_aftertouch_c, 0, 91
2, 82200, Note_on_c, 0, 62, 73
2, 82200, Note_on_c, 0, 74, 71
2, 82200, Note_on_c, 0, 69, 71
2, 82200, Note_on_c, 0, 66, 71
2, 82200, Note_on_c, 0, 62, 71
2, 82230, Note_on_c, 0, 81, 73
2, 82260, Note_on_c, 0, 81, 0
2, 82260, Note_on_c, 0, 62, 0
2, 82260, Note_on_c, 0, 69, 73
2, 82290, Note_on_c, 0, 69, 0
2, 82290, Note_on_c, 0, 74, 73
2, 82320, Note_on_c, 0, 74, 0
2, 82320, Note_on_c, 0, 69, 0
2, 82320, Note_on_c, 0, 74, 0
2, 82320, Note_on_c, 0, 66, 0
2, 82320, Note_on_c, 0, 62, 0
2, 82320, Note_on_c, 0, 61, 73
2, 82320, Note_on_c, 0, 76, 73
2, 82320, Note_on_c, 0, 73, 73
2, 82320, Note_on_c, 0, 70, 73
2, 82320, Note_on_c, 0, 67, 73
2, 82320, Note_on_c, 0, 50, 81
2, 82350, Note_on_c, 0, 79, 73
2, 82380, Note_on_c, 0, 79, 0
2, 82380, Note_on_c, 0, 61, 0
2, 82380, Note_on_c, 0, 67, 73
2, 82410, Note_on_c, 0, 67, 0
2, 82410, Note_on_c, 0, 70, 73
2, 82440, Note_on_c, 0, 70, 0
2, 82440, Note_on_c, 0, 67, 0
2, 82440, Note_on_c, 0, 70, 0
2, 82440, Note_on_c, 0, 76, 0
2, 82440, Note_on_c, 0, 50, 0
2, 82440, Note_on_c, 0, 73, 0
2, 82440, Note_on_c, 0, 60, 73
2, 82440, Note_on_c, 0, 78, 76
2, 82440, Note_on_c, 0, 72, 76
2, 82440, Note_on_c, 0, 69, 76
2, 82470, Note_on_c, 0, 78, 73
2, 82500, Note_on_c, 0, 78, 0
2, 82500, Note_on_c, 0, 60, 0
2, 82500, Note_on_c, 0, 66, 73
2, 82500, Note_on_c, 0, 51, 76
2, 82530, Note_on_c, 0, 66, 0
2, 82530, Note_on_c, 0, 69, 73
2, 82560, Note_on_c, 0, 69, 0
2, 82560, Note_on_c, 0, 51, 0
2, 82560, Note_on_c, 0, 78, 0
2, 82560, Note_on_c, 0, 72, 0
2, 82560, Note_on_c, 0, 69, 0
2, 82560, Note_on_c, 0, 59, 73
2, 82560, Note_on_c, 0, 81, 76
2, 82560, Note_on_c, 0, 74, 76
2, 82560, Note_on_c, 0, 71, 76
2, 82560, Note_on_c, 0, 50, 76
2, 82590, Note_on_c, 0, 74, 73
2, 82620, Note_on_c, 0, 50, 0
2, 82620, Note_on_c, 0, 74, 0
2, 82620, Note_on_c, 0, 59, 0
2, 82620, Note_on_c, 0, 73, 73
2, 82620, Note_on_c, 0, 55, 76
2, 82650, Note_on_c, 0, 73, 0
2, 82650, Note_on_c, 0, 74, 73
2, 82680, Note_on_c, 0, 81, 0
2, 82680, Note_on_c, 0, 55, 0
2, 82680, Note_on_c, 0, 74, 0
2, 82680, Note_on_c, 0, 71, 0
2, 82680, Note_on_c, 0, 79, 73
2, 82680, Note_on_c, 0, 58, 73
2, 82680, Note_on_c, 0, 79, 73
2, 82680, Note_on_c, 0, 70, 73
2, 82680, Note_on_c, 0, 58, 73
2, 82710, Note_on_c, 0, 79, 0
2, 82710, Note_on_c, 0, 82, 73
2, 82740, Note_on_c, 0, 82, 0
2, 82740, Note_on_c, 0, 58, 0
2, 82740, Note_on_c, 0, 58, 0
2, 82740, Note_on_c, 0, 86, 73
2, 82740, Note_on_c, 0, 58, 73
2, 82770, Note_on_c, 0, 86, 0
2, 82770, Note_on_c, 0, 91, 73
2, 82800, Note_on_c, 0, 91, 0
2, 82800, Note_on_c, 0, 58, 0
2, 82800, Note_on_c, 0, 70, 0
2, 82800, Note_on_c, 0, 79, 0
2, 82800, Note_on_c, 0, 74, 0
2, 82800, Note_on_c, 0, 81, 73
2, 82800, Note_on_c, 0, 67, 73
2, 82800, Note_on_c, 0, 64, 73
2, 82800, Note_on_c, 0, 57, 73
2, 82800, Note_on_c, 0, 76, 71
2, 82800, Note_on_c, 0, 69, 71
2, 82800, Note_on_c, 0, 61, 71
2, 82800, Note_on_c, 0, 57, 84
2, 82830, Note_on_c, 0, 81, 0
2, 82830, Note_on_c, 0, 91, 73
2, 82860, Note_on_c, 0, 91, 0
2, 82860, Note_on_c, 0, 57, 0
2, 82860, Note_on_c, 0, 64, 0
2, 82860, Note_on_c, 0, 67, 0
2, 82860, Note_on_c, 0, 57, 0
2, 82860, Note_on_c, 0, 61, 0
2, 82860, Note_on_c, 0, 88, 73
2, 82860, Note_on_c, 0, 64, 71
2, 82890, Note_on_c, 0, 88, 0
2, 82890, Note_on_c, 0, 85, 73
2, 82920, Note_on_c, 0, 85, 0
2, 82920, Note_on_c, 0, 64, 0
2, 82920, Note_on_c, 0, 81, 73
2, 82920, Note_on_c, 0, 81, 71
2, 82920, Note_on_c, 0, 67, 71
2, 82950, Note_on_c, 0, 81, 0
2, 82950, Note_on_c, 0, 79, 73
2, 82980, Note_on_c, 0, 79, 0
2, 82980, Note_on_c, 0, 81, 0
2, 82980, Note_on_c, 0, 76, 73
2, 82980, Note_on_c, 0, 73, 71
2, 83010, Note_on_c, 0, 76, 0
2, 83010, Note_on_c, 0, 73, 73
2, 83040, Note_on_c, 0, 73, 0
2, 83040, Note_on_c, 0, 73, 0
2, 83040, Note_on_c, 0, 67, 0
2, 83040, Note_on_c, 0, 69, 0
2, 83040, Note_on_c, 0, 76, 0
2, 83040, Note_on_c, 0, 81, 66
2, 83040, Note_on_c, 0, 50, 66
2, 83040, Note_on_c, 0, 74, 71
2, 83040, Note_on_c, 0, 69, 71
2, 83040, Note_on_c, 0, 66, 71
2, 83040, Note_on_c, 0, 50, 71
2, 83040, Note_on_c, 0, 38, 71
2, 83070, Note_on_c, 0, 81, 0
2, 83070, Note_on_c, 0, 78, 66
2, 83100, Note_on_c, 0, 78, 0
2, 83100, Note_on_c, 0, 50, 0
2, 83100, Note_on_c, 0, 74, 66
2, 83130, Note_on_c, 0, 74, 0
2, 83130, Note_on_c, 0, 69, 66
2, 83160, Note_on_c, 0, 69, 0
2, 83160, Note_on_c, 0, 74, 0
2, 83160, Note_on_c, 0, 66, 0
2, 83160, Note_on_c, 0, 69, 0
2, 83160, Note_on_c, 0, 50, 0
2, 83160, Note_on_c, 0, 38, 0
2, 83160, Note_on_c, 0, 74, 66
2, 83160, Note_on_c, 0, 62, 71
2, 83160, Note_on_c, 0, 54, 71
2, 83220, Note_on_c, 0, 54, 0
2, 83220, Note_on_c, 0, 62, 0
2, 83220, Note_on_c, 0, 72, 66
2, 83220, Note_on_c, 0, 69, 71
2, 83280, Note_on_c, 0, 69, 0
2, 83280, Note_on_c, 0, 72, 0
2, 83280, Note_on_c, 0, 62, 71
2, 83280, Note_on_c, 0, 55, 71
2, 83340, Note_on_c, 0, 55, 0
2, 83340, Note_on_c, 0, 62, 0
2, 83340, Note_on_c, 0, 70, 66
2, 83340, Note_on_c, 0, 67, 71
2, 83400, Note_on_c, 0, 67, 0
2, 83400, Note_on_c, 0, 70, 0
2, 83400, Note_on_c, 0, 74, 0
2, 83400, Note_on_c, 0, 79, 66
2, 83400, Note_on_c, 0, 62, 71
2, 83400, Note_on_c, 0, 58, 71
2, 83460, Note_on_c, 0, 58, 0
2, 83460, Note_on_c, 0, 62, 0
2, 83460, Note_on_c, 0, 74, 66
2, 83460, Note_on_c, 0, 67, 71
2, 83520, Note_on_c, 0, 67, 0
2, 83520, Note_on_c, 0, 74, 0
2, 83520, Note_on_c, 0, 79, 0
2, 83520, Note_on_c, 0, 78, 66
2, 83520, Note_on_c, 0, 62, 66
2, 83520, Note_on_c, 0, 57, 66
2, 83580, Note_on_c, 0, 57, 0
2, 83580, Note_on_c, 0, 62, 0
2, 83580, Note_on_c, 0, 72, 66
2, 83580, Note_on_c, 0, 69, 66
2, 83640, Note_on_c, 0, 69, 0
2, 83640, Note_on_c, 0, 72, 0
2, 83640, Note_on_c, 0, 78, 0
2, 83640, Note_on_c, 0, 74, 66
2, 83640, Note_on_c, 0, 54, 66
2, 83700, Note_on_c, 0, 54, 0
2, 83700, Note_on_c, 0, 69, 66
2, 83760, Note_on_c, 0, 69, 0
2, 83760, Note_on_c, 0, 74, 0
2, 83760, Note_on_c, 0, 72, 66
2, 83760, Note_on_c, 0, 55, 66
2, 83820, Note_on_c, 0, 55, 0
2, 83820, Note_on_c, 0, 69, 66
2, 83820, Note_on_c, 0, 62, 66
2, 83880, Note_on_c, 0, 62, 0
2, 83880, Note_on_c, 0, 69, 0
2, 83880, Note_on_c, 0, 72, 0
2, 83880, Note_on_c, 0, 70, 66
2, 83880, Note_on_c, 0, 55, 66
2, 83880, Note_on_c, 0, 43, 71
2, 83880, Note_on_c, 0, 43, 68
2, 83940, Note_on_c, 0, 43, 0
2, 83940, Note_on_c, 0, 43, 0
2, 83940, Note_on_c, 0, 55, 0
2, 83940, Note_on_c, 0, 67, 66
2, 83940, Note_on_c, 0, 61, 66
2, 84000, Note_on_c, 0, 61, 0
2, 84000, Note_on_c, 0, 67, 0
2, 84000, Note_on_c, 0, 70, 0
2, 84000, Note_on_c, 0, 69, 66
2, 84000, Note_on_c, 0, 50, 66
2, 84000, Note_on_c, 0, 62, 81
2, 84060, Note_on_c, 0, 50, 0
2, 84060, Note_on_c, 0, 69, 0
2, 84060, Note_on_c, 0, 66, 66
2, 84060, Note_on_c, 0, 62, 66
2, 84120, Note_on_c, 0, 66, 0
2, 84120, Note_on_c, 0, 62, 0
2, 84120, Note_on_c, 0, 62, 71
2, 84120, Note_on_c, 0, 50, 71
2, 84120, Note_on_c, 0, 42, 71
2, 84120, Note_on_c, 0, 86, 71
2, 84180, Note_on_c, 0, 42, 0
2, 84180, Note_on_c, 0, 50, 0
2, 84180, Note_on_c, 0, 62, 0
2, 84180, Note_on_c, 0, 60, 71
2, 84180, Note_on_c, 0, 57, 71
2, 84180, Note_on_c, 0, 60, 71
2, 84240, Note_on_c, 0, 60, 0
2, 84240, Note_on_c, 0, 60, 0
2, 84240, Note_on_c, 0, 57, 0
2, 84240, Note_on_c, 0, 86, 0
2, 84240, Note_on_c, 0, 50, 71
2, 84240, Note_on_c, 0, 43, 71
2, 84240, Note_on_c, 0, 74, 81
2, 84240, Note_on_c, 0, 59, 81
2, 84300, Note_on_c, 0, 59, 0
2, 84300, Note_on_c, 0, 43, 0
2, 84300, Note_on_c, 0, 50, 0
2, 84300, Note_on_c, 0, 58, 71
2, 84300, Note_on_c, 0, 55, 71
2, 84300, Note_on_c, 0, 58, 71
2, 84360, Note_on_c, 0, 58, 0
2, 84360, Note_on_c, 0, 58, 0
2, 84360, Note_on_c, 0, 55, 0
2, 84360, Note_on_c, 0, 62, 0
2, 84360, Note_on_c, 0, 67, 71
2, 84360, Note_on_c, 0, 50, 71
2, 84360, Note_on_c, 0, 43, 71
2, 84360, Note_on_c, 0, 57, 71
2, 84420, Note_on_c, 0, 57, 0
2, 84420, Note_on_c, 0, 50, 0
2, 84420, Note_on_c, 0, 43, 0
2, 84420, Note_on_c, 0, 74, 0
2, 84420, Note_on_c, 0, 59, 71
2, 84420, Note_on_c, 0, 55, 71
2, 84420, Note_on_c, 0, 76, 71
2, 84420, Note_on_c, 0, 55, 71
2, 84480, Note_on_c, 0, 55, 0
2, 84480, Note_on_c, 0, 55, 0
2, 84480, Note_on_c, 0, 67, 0
2, 84480, Note_on_c, 0, 59, 0
2, 84480, Note_on_c, 0, 76, 0
2, 84480, Note_on_c, 0, 66, 71
2, 84480, Note_on_c, 0, 50, 71
2, 84480, Note_on_c, 0, 45, 71
2, 84480, Note_on_c, 0, 78, 71
2, 84480, Note_on_c, 0, 57, 71
2, 84540, Note_on_c, 0, 57, 0
2, 84540, Note_on_c, 0, 45, 0
2, 84540, Note_on_c, 0, 78, 0
2, 84540, Note_on_c, 0, 50, 0
2, 84540, Note_on_c, 0, 60, 71
2, 84540, Note_on_c, 0, 54, 71
2, 84540, Note_on_c, 0, 78, 71
2, 84540, Note_on_c, 0, 63, 71
2, 84600, Note_on_c, 0, 63, 0
2, 84600, Note_on_c, 0, 54, 0
2, 84600, Note_on_c, 0, 66, 0
2, 84600, Note_on_c, 0, 60, 0
2, 84600, Note_on_c, 0, 78, 0
2, 84600, Note_on_c, 0, 62, 71
2, 84600, Note_on_c, 0, 50, 71
2, 84600, Note_on_c, 0, 42, 71
2, 84600, Note_on_c, 0, 79, 71
2, 84600, Note_on_c, 0, 62, 71
2, 84660, Note_on_c, 0, 79, 0
2, 84660, Note_on_c, 0, 42, 0
2, 84660, Note_on_c, 0, 62, 0
2, 84660, Note_on_c, 0, 50, 0
2, 84660, Note_on_c, 0, 57, 71
2, 84660, Note_on_c, 0, 81, 71
2, 84660, Note_on_c, 0, 60, 71
2, 84720, Note_on_c, 0, 60, 0
2, 84720, Note_on_c, 0, 62, 0
2, 84720, Note_on_c, 0, 57, 0
2, 84720, Note_on_c, 0, 81, 0
2, 84720, Note_on_c, 0, 60, 71
2, 84720, Note_on_c, 0, 43, 71
2, 84720, Note_on_c, 0, 82, 71
2, 84720, Note_on_c, 0, 58, 71
2, 84780, Note_on_c, 0, 58, 0
2, 84780, Note_on_c, 0, 82, 0
2, 84780, Note_on_c, 0, 43, 0
2, 84780, Note_on_c, 0, 57, 71
2, 84780, Note_on_c, 0, 50, 71
2, 84780, Note_on_c, 0, 83, 71
2, 84780, Note_on_c, 0, 71, 71
2, 84780, Note_on_c, 0, 57, 71
2, 84840, Note_on_c, 0, 57, 0
2, 84840, Note_on_c, 0, 57, 0
2, 84840, Note_on_c, 0, 50, 0
2, 84840, Note_on_c, 0, 60, 0
2, 84840, Note_on_c, 0, 71, 0
2, 84840, Note_on_c, 0, 83, 0
2, 84840, Note_on_c, 0, 58, 71
2, 84840, Note_on_c, 0, 43, 71
2, 84840, Note_on_c, 0, 31, 71
2, 84840, Note_on_c, 0, 84, 71
2, 84840, Note_on_c, 0, 72, 71
2, 84840, Note_on_c, 0, 55, 71
2, 84900, Note_on_c, 0, 55, 0
2, 84900, Note_on_c, 0, 43, 0
2, 84900, Note_on_c, 0, 31, 0
2, 84900, Note_on_c, 0, 84, 0
2, 84900, Note_on_c, 0, 72, 0
2, 84900, Note_on_c, 0, 55, 71
2, 84900, Note_on_c, 0, 49, 71
2, 84900, Note_on_c, 0, 85, 71
2, 84900, Note_on_c, 0, 73, 71
2, 84900, Note_on_c, 0, 55, 71
2, 84960, Note_on_c, 0, 55, 0
2, 84960, Note_on_c, 0, 55, 0
2, 84960, Note_on_c, 0, 49, 0
2, 84960, Note_on_c, 0, 58, 0
2, 84960, Note_on_c, 0, 73, 0
2, 84960, Note_on_c, 0, 85, 0
2, 84960, Note_on_c, 0, 57, 73
2, 84960, Note_on_c, 0, 54, 73
2, 84960, Note_on_c, 0, 50, 73
2, 84960, Note_on_c, 0, 38, 73
2, 84960, Note_on_c, 0, 86, 71
2, 84960, Note_on_c, 0, 74, 71
2, 84960, Note_on_c, 0, 54, 71
2, 85020, Note_on_c, 0, 74, 0
2, 85020, Note_on_c, 0, 38, 0
2, 85020, Note_on_c, 0, 54, 0
2, 85020, Note_on_c, 0, 50, 0
2, 85020, Note_on_c, 0, 86, 0
2, 85080, Note_on_c, 0, 57, 0
2, 85080, Note_on_c, 0, 54, 0
2, 85080, Note_on_c, 0, 62, 71
2, 85080, Note_on_c, 0, 50, 71
2, 85080, Note_on_c, 0, 38, 71
2, 85140, Note_on_c, 0, 38, 0
2, 85140, Note_on_c, 0, 50, 0
2, 85200, Note_on_c, 0, 62, 0
2, 85200, Note_on_c, 0, 60, 71
2, 85320, Note_on_c, 0, 60, 0
2, 85320, Note_on_c, 0, 58, 71
2, 85320, Note_on_c, 0, 55, 71
2, 85320, Note_on_c, 0, 49, 71
2, 85320, Note_on_c, 0, 38, 71
2, 85380, Note_on_c, 0, 38, 0
2, 85380, Note_on_c, 0, 49, 0
2, 85440, Note_on_c, 0, 55, 0
2, 85440, Note_on_c, 0, 58, 0
2, 85440, Note_on_c, 0, 57, 71
2, 85440, Note_on_c, 0, 54, 71
2, 85440, Note_on_c, 0, 50, 71
2, 85440, Note_on_c, 0, 38, 71
2, 85500, Note_on_c, 0, 38, 0
2, 85500, Note_on_c, 0, 50, 0
2, 85560, Note_on_c, 0, 54, 0
2, 85560, Note_on_c, 0, 57, 0
2, 85560, Channel_aftertouch_c, 0, 82
2, 85560, Note_on_c, 0, 62, 62
2, 85560, Note_on_c, 0, 58, 62
2, 85680, Note_on_c, 0, 58, 0
2, 85680, Note_on_c, 0, 62, 0
2, 85680, Note_on_c, 0, 60, 62
2, 85680, Note_on_c, 0, 57, 62
2, 85800, Note_on_c, 0, 57, 0
2, 85800, Note_on_c, 0, 60, 0
2, 85800, Note_on_c, 0, 58, 62
2, 85800, Note_on_c, 0, 55, 62
2, 85800, Note_on_c, 0, 49, 62
2, 85800, Note_on_c, 0, 38, 62
2, 85860, Note_on_c, 0, 38, 0
2, 85860, Note_on_c, 0, 49, 0
2, 85920, Note_on_c, 0, 55, 0
2, 85920, Note_on_c, 0, 58, 0
2, 85920, Note_on_c, 0, 62, 62
2, 85920, Note_on_c, 0, 57, 62
2, 85920, Note_on_c, 0, 54, 62
2, 85920, Note_on_c, 0, 38, 71
2, 85920, Note_on_c, 0, 38, 62
2, 85950, Note_on_c, 0, 38, 0
2, 85950, Note_on_c, 0, 50, 71
2, 85980, Note_on_c, 0, 50, 0
2, 85980, Note_on_c, 0, 38, 71
2, 86010, Note_on_c, 0, 38, 0
2, 86010, Note_on_c, 0, 50, 71
2, 86040, Note_on_c, 0, 50, 0
2, 86040, Note_on_c, 0, 38, 0
2, 86040, Note_on_c, 0, 38, 71
2, 86070, Note_on_c, 0, 38, 0
2, 86070, Note_on_c, 0, 50, 71
2, 86100, Note_on_c, 0, 50, 0
2, 86100, Note_on_c, 0, 38, 71
2, 86130, Note_on_c, 0, 38, 0
2, 86130, Note_on_c, 0, 50, 71
2, 86160, Note_on_c, 0, 50, 0
2, 86160, Note_on_c, 0, 62, 0
2, 86160, Note_on_c, 0, 57, 0
2, 86160, Note_on_c, 0, 54, 0
2, 86160, Note_on_c, 0, 38, 71
2, 86190, Note_on_c, 0, 38, 0
2, 86190, Note_on_c, 0, 50, 71
2, 86220, Note_on_c, 0, 50, 0
2, 86220, Note_on_c, 0, 38, 71
2, 86250, Note_on_c, 0, 38, 0
2, 86250, Note_on_c, 0, 50, 71
2, 86280, Note_on_c, 0, 50, 0
2, 86280, Note_on_c, 0, 64, 71
2, 86280, Note_on_c, 0, 58, 71
2, 86280, Note_on_c, 0, 55, 71
2, 86280, Note_on_c, 0, 38, 71
2, 86310, Note_on_c, 0, 38, 0
2, 86310, Note_on_c, 0, 50, 71
2, 86340, Note_on_c, 0, 50, 0
2, 86340, Note_on_c, 0, 38, 71
2, 86370, Note_on_c, 0, 38, 0
2, 86370, Note_on_c, 0, 50, 71
2, 86400, Note_on_c, 0, 50, 0
2, 86400, Note_on_c, 0, 55, 0
2, 86400, Note_on_c, 0, 58, 0
2, 86400, Note_on_c, 0, 64, 0
2, 86400, Note_on_c, 0, 66, 71
2, 86400, Note_on_c, 0, 60, 71
2, 86400, Note_on_c, 0, 57, 71
2, 86400, Note_on_c, 0, 38, 71
2, 86430, Note_on_c, 0, 38, 0
2, 86430, Note_on_c, 0, 50, 71
2, 86460, Note_on_c, 0, 50, 0
2, 86460, Note_on_c, 0, 38, 71
2, 86490, Note_on_c, 0, 38, 0
2, 86490, Note_on_c, 0, 50, 71
2, 86520, Note_on_c, 0, 50, 0
2, 86520, Note_on_c, 0, 60, 0
2, 86520, Note_on_c, 0, 62, 73
2, 86520, Note_on_c, 0, 38, 73
2, 86550, Note_on_c, 0, 38, 0
2, 86550, Note_on_c, 0, 50, 73
2, 86580, Note_on_c, 0, 50, 0
2, 86580, Note_on_c, 0, 38, 73
2, 86610, Note_on_c, 0, 38, 0
2, 86610, Note_on_c, 0, 50, 73
2, 86640, Note_on_c, 0, 50, 0
2, 86640, Note_on_c, 0, 62, 0
2, 86640, Note_on_c, 0, 63, 73
2, 86640, Note_on_c, 0, 36, 73
2, 86670, Note_on_c, 0, 36, 0
2, 86670, Note_on_c, 0, 48, 73
2, 86700, Note_on_c, 0, 48, 0
2, 86700, Note_on_c, 0, 36, 73
2, 86730, Note_on_c, 0, 36, 0
2, 86730, Note_on_c, 0, 48, 73
2, 86760, Note_on_c, 0, 48, 0
2, 86760, Note_on_c, 0, 63, 0
2, 86760, Note_on_c, 0, 57, 0
2, 86760, Note_on_c, 0, 66, 0
2, 86760, Note_on_c, 0, 67, 76
2, 86760, Note_on_c, 0, 62, 76
2, 86760, Note_on_c, 0, 58, 76
2, 86760, Note_on_c, 0, 34, 76
2, 86790, Note_on_c, 0, 34, 0
2, 86790, Note_on_c, 0, 46, 76
2, 86820, Note_on_c, 0, 46, 0
2, 86820, Note_on_c, 0, 34, 76
2, 86850, Note_on_c, 0, 34, 0
2, 86850, Note_on_c, 0, 46, 76
2, 86880, Note_on_c, 0, 46, 0
2, 86880, Note_on_c, 0, 58, 0
2, 86880, Note_on_c, 0, 62, 0
2, 86880, Note_on_c, 0, 67, 0
2, 86880, Note_on_c, 0, 69, 76
2, 86880, Note_on_c, 0, 66, 76
2, 86880, Note_on_c, 0, 60, 76
2, 86880, Note_on_c, 0, 33, 76
2, 86910, Note_on_c, 0, 33, 0
2, 86910, Note_on_c, 0, 45, 76
2, 86940, Note_on_c, 0, 45, 0
2, 86940, Note_on_c, 0, 33, 76
2, 86970, Note_on_c, 0, 33, 0
2, 86970, Note_on_c, 0, 45, 76
2, 87000, Note_on_c, 0, 45, 0
2, 87000, Note_on_c, 0, 60, 0
2, 87000, Note_on_c, 0, 66, 0
2, 87000, Note_on_c, 0, 69, 0
2, 87000, Note_on_c, 0, 70, 79
2, 87000, Note_on_c, 0, 67, 79
2, 87000, Note_on_c, 0, 62, 79
2, 87000, Note_on_c, 0, 31, 79
2, 87030, Note_on_c, 0, 31, 0
2, 87030, Note_on_c, 0, 43, 79
2, 87060, Note_on_c, 0, 43, 0
2, 87060, Note_on_c, 0, 31, 79
2, 87090, Note_on_c, 0, 31, 0
2, 87090, Note_on_c, 0, 43, 79
2, 87120, Note_on_c, 0, 43, 0
2, 87120, Note_on_c, 0, 62, 0
2, 87120, Note_on_c, 0, 67, 0
2, 87120, Note_on_c, 0, 70, 0
2, 87120, Note_on_c, 0, 72, 79
2, 87120, Note_on_c, 0, 69, 79
2, 87120, Note_on_c, 0, 63, 79
2, 87120, Note_on_c, 0, 30, 79
2, 87150, Note_on_c, 0, 30, 0
2, 87150, Note_on_c, 0, 42, 79
2, 87180, Note_on_c, 0, 42, 0
2, 87180, Note_on_c, 0, 30, 79
2, 87210, Note_on_c, 0, 30, 0
2, 87210, Note_on_c, 0, 42, 79
2, 87240, Note_on_c, 0, 42, 0
2, 87240, Note_on_c, 0, 63, 0
2, 87240, Note_on_c, 0, 69, 0
2, 87240, Note_on_c, 0, 72, 0
2, 87240, Note_on_c, 0, 73, 81
2, 87240, Note_on_c, 0, 70, 81
2, 87240, Note_on_c, 0, 67, 81
2, 87240, Note_on_c, 0, 39, 81
2, 87270, Note_on_c, 0, 39, 0
2, 87270, Note_on_c, 0, 51, 81
2, 87300, Note_on_c, 0, 51, 0
2, 87300, Note_on_c, 0, 39, 81
2, 87330, Note_on_c, 0, 39, 0
2, 87330, Note_on_c, 0, 51, 81
2, 87360, Note_on_c, 0, 51, 0
2, 87360, Note_on_c, 0, 67, 0
2, 87360, Note_on_c, 0, 70, 0
2, 87360, Note_on_c, 0, 73, 0
2, 87360, Note_on_c, 0, 74, 84
2, 87360, Note_on_c, 0, 70, 84
2, 87360, Note_on_c, 0, 67, 84
2, 87360, Note_on_c, 0, 38, 84
2, 87390, Note_on_c, 0, 38, 0
2, 87390, Note_on_c, 0, 50, 84
2, 87420, Note_on_c, 0, 50, 0
2, 87420, Note_on_c, 0, 38, 84
2, 87450, Note_on_c, 0, 38, 0
2, 87450, Note_on_c, 0, 50, 84
2, 87480, Note_on_c, 0, 50, 0
2, 87480, Note_on_c, 0, 67, 0
2, 87480, Note_on_c, 0, 70, 0
2, 87480, Note_on_c, 0, 74, 0
2, 87480, Note_on_c, 0, 76, 86
2, 87480, Note_on_c, 0, 70, 86
2, 87480, Note_on_c, 0, 67, 86
2, 87480, Note_on_c, 0, 37, 86
2, 87510, Note_on_c, 0, 37, 0
2, 87510, Note_on_c, 0, 49, 86
2, 87540, Note_on_c, 0, 49, 0
2, 87540, Note_on_c, 0, 37, 86
2, 87570, Note_on_c, 0, 37, 0
2, 87570, Note_on_c, 0, 49, 86
2, 87600, Note_on_c, 0, 49, 0
2, 87600, Note_on_c, 0, 67, 0
2, 87600, Note_on_c, 0, 70, 0
2, 87600, Note_on_c, 0, 76, 0
2, 87600, Note_on_c, 0, 78, 86
2, 87600, Note_on_c, 0, 75, 86
2, 87600, Note_on_c, 0, 69, 86
2, 87600, Note_on_c, 0, 37, 86
2, 87630, Note_on_c, 0, 37, 0
2, 87630, Note_on_c, 0, 49, 86
2, 87660, Note_on_c, 0, 49, 0
2, 87660, Note_on_c, 0, 37, 86
2, 87690, Note_on_c, 0, 37, 0
2, 87690, Note_on_c, 0, 49, 86
2, 87720, Note_on_c, 0, 49, 0
2, 87720, Note_on_c, 0, 69, 0
2, 87720, Note_on_c, 0, 75, 0
2, 87720, Note_on_c, 0, 78, 0
2, 87720, Note_on_c, 0, 79, 89
2, 87720, Note_on_c, 0, 74, 89
2, 87720, Note_on_c, 0, 70, 89
2, 87720, Note_on_c, 0, 34, 89
2, 87750, Note_on_c, 0, 34, 0
2, 87750, Note_on_c, 0, 46, 89
2, 87780, Note_on_c, 0, 46, 0
2, 87780, Note_on_c, 0, 34, 89
2, 87810, Note_on_c, 0, 34, 0
2, 87810, Note_on_c, 0, 46, 89
2, 87840, Note_on_c, 0, 46, 0
2, 87840, Note_on_c, 0, 70, 0
2, 87840, Note_on_c, 0, 74, 0
2, 87840, Note_on_c, 0, 79, 0
2, 87840, Note_on_c, 0, 81, 89
2, 87840, Note_on_c, 0, 74, 89
2, 87840, Note_on_c, 0, 69, 89
2, 87840, Note_on_c, 0, 42, 89
2, 87960, Note_on_c, 0, 42, 0
2, 87960, Note_on_c, 0, 81, 0
2, 87960, Note_on_c, 0, 74, 0
2, 87960, Note_on_c, 0, 69, 0
2, 87960, Channel_aftertouch_c, 0, 111
2, 87960, Note_on_c, 0, 78, 91
2, 87960, Note_on_c, 0, 74, 91
2, 87960, Note_on_c, 0, 69, 91
2, 87960, Note_on_c, 0, 57, 91
2, 87960, Note_on_c, 0, 54, 91
2, 87960, Note_on_c, 0, 50, 91
2, 88080, Note_on_c, 0, 50, 0
2, 88080, Note_on_c, 0, 74, 0
2, 88080, Note_on_c, 0, 69, 0
2, 88080, Note_on_c, 0, 78, 0
2, 88080, Note_on_c, 0, 54, 0
2, 88080, Note_on_c, 0, 57, 0
2, 88080, Channel_aftertouch_c, 0, 109
2, 88080, Note_on_c, 0, 62, 89
2, 88080, Note_on_c, 0, 50, 89
2, 88080, Note_on_c, 0, 38, 89
2, 88200, Note_on_c, 0, 38, 0
2, 88200, Note_on_c, 0, 50, 0
2, 88200, Note_on_c, 0, 62, 0
2, 88200, Note_on_c, 0, 81, 89
2, 88200, Note_on_c, 0, 78, 89
2, 88200, Note_on_c, 0, 74, 89
2, 88200, Note_on_c, 0, 69, 89
2, 88200, Note_on_c, 0, 57, 89
2, 88200, Note_on_c, 0, 54, 89
2, 88200, Note_on_c, 0, 50, 89
2, 88320, Note_on_c, 0, 50, 0
2, 88320, Note_on_c, 0, 57, 0
2, 88320, Note_on_c, 0, 78, 0
2, 88320, Note_on_c, 0, 74, 0
2, 88320, Note_on_c, 0, 81, 0
2, 88320, Note_on_c, 0, 54, 0
2, 88320, Note_on_c, 0, 69, 0
2, 88320, Channel_aftertouch_c, 0, 109
2, 88320, Note_on_c, 0, 62, 89
2, 88320, Note_on_c, 0, 50, 89
2, 88320, Note_on_c, 0, 38, 89
2, 88440, Note_on_c, 0, 38, 0
2, 88440, Note_on_c, 0, 50, 0
2, 88440, Note_on_c, 0, 62, 0
2, 88440, Note_on_c, 0, 84, 89
2, 88440, Note_on_c, 0, 81, 89
2, 88440, Note_on_c, 0, 78, 89
2, 88440, Note_on_c, 0, 72, 89
2, 88440, Note_on_c, 0, 62, 89
2, 88440, Note_on_c, 0, 57, 89
2, 88440, Note_on_c, 0, 54, 89
2, 88440, Note_on_c, 0, 50, 89
2, 88560, Note_on_c, 0, 50, 0
2, 88560, Note_on_c, 0, 84, 0
2, 88560, Note_on_c, 0, 62, 0
2, 88560, Note_on_c, 0, 81, 0
2, 88560, Note_on_c, 0, 78, 0
2, 88560, Note_on_c, 0, 72, 0
2, 88560, Note_on_c, 0, 57, 0
2, 88560, Note_on_c, 0, 54, 0
2, 88560, Note_on_c, 0, 62, 89
2, 88560, Note_on_c, 0, 50, 89
2, 88560, Note_on_c, 0, 38, 89
2, 88620, Note_on_c, 0, 62, 0
2, 88620, Note_on_c, 0, 74, 89
2, 88680, Note_on_c, 0, 74, 0
2, 88680, Note_on_c, 0, 38, 0
2, 88680, Note_on_c, 0, 50, 0
2, 88680, Note_on_c, 0, 74, 89
2, 88740, Note_on_c, 0, 74, 0
2, 88740, Note_on_c, 0, 74, 89
2, 88800, Note_on_c, 0, 74, 0
2, 88800, Note_on_c, 0, 82, 91
2, 88800, Note_on_c, 0, 79, 91
2, 88800, Note_on_c, 0, 74, 91
2, 88800, Note_on_c, 0, 70, 91
2, 88800, Note_on_c, 0, 43, 91
2, 88800, Note_on_c, 0, 31, 91
2, 88860, Note_on_c, 0, 31, 0
2, 88860, Note_on_c, 0, 43, 0
2, 88860, Note_on_c, 0, 43, 91
2, 88860, Note_on_c, 0, 31, 91
2, 88920, Note_on_c, 0, 31, 0
2, 88920, Note_on_c, 0, 43, 0
2, 88920, Note_on_c, 0, 42, 91
2, 88920, Note_on_c, 0, 30, 91
2, 88980, Note_on_c, 0, 30, 0
2, 88980, Note_on_c, 0, 79, 0
2, 88980, Note_on_c, 0, 74, 0
2, 88980, Note_on_c, 0, 82, 0
2, 88980, Note_on_c, 0, 42, 0
2, 88980, Note_on_c, 0, 70, 0
2, 88980, Note_on_c, 0, 82, 91
2, 88980, Note_on_c, 0, 79, 91
2, 88980, Note_on_c, 0, 74, 91
2, 88980, Note_on_c, 0, 70, 91
2, 88980, Note_on_c, 0, 43, 91
2, 88980, Note_on_c, 0, 31, 91
2, 89040, Note_on_c, 0, 31, 0
2, 89040, Note_on_c, 0, 79, 0
2, 89040, Note_on_c, 0, 74, 0
2, 89040, Note_on_c, 0, 82, 0
2, 89040, Note_on_c, 0, 43, 0
2, 89040, Note_on_c, 0, 70, 0
2, 89040, Note_on_c, 0, 81, 91
2, 89040, Note_on_c, 0, 76, 91
2, 89040, Note_on_c, 0, 73, 91
2, 89040, Note_on_c, 0, 69, 91
2, 89040, Note_on_c, 0, 45, 91
2, 89040, Note_on_c, 0, 33, 91
2, 89100, Note_on_c, 0, 33, 0
2, 89100, Note_on_c, 0, 45, 0
2, 89100, Note_on_c, 0, 47, 91
2, 89100, Note_on_c, 0, 35, 91
2, 89160, Note_on_c, 0, 35, 0
2, 89160, Note_on_c, 0, 47, 0
2, 89160, Note_on_c, 0, 48, 91
2, 89160, Note_on_c, 0, 36, 91
2, 89220, Note_on_c, 0, 36, 0
2, 89220, Note_on_c, 0, 76, 0
2, 89220, Note_on_c, 0, 73, 0
2, 89220, Note_on_c, 0, 81, 0
2, 89220, Note_on_c, 0, 48, 0
2, 89220, Note_on_c, 0, 69, 0
2, 89220, Note_on_c, 0, 81, 91
2, 89220, Note_on_c, 0, 69, 91
2, 89220, Note_on_c, 0, 49, 91
2, 89220, Note_on_c, 0, 37, 91
2, 89280, Note_on_c, 0, 37, 0
2, 89280, Note_on_c, 0, 81, 0
2, 89280, Note_on_c, 0, 69, 0
2, 89280, Note_on_c, 0, 49, 0
2, 89280, Note_on_c, 0, 78, 91
2, 89280, Note_on_c, 0, 74, 91
2, 89280, Note_on_c, 0, 69, 91
2, 89280, Note_on_c, 0, 66, 91
2, 89280, Note_on_c, 0, 50, 91
2, 89280, Note_on_c, 0, 38, 91
2, 89340, Note_on_c, 0, 38, 0
2, 89340, Note_on_c, 0, 50, 0
2, 89340, Note_on_c, 0, 54, 91
2, 89340, Note_on_c, 0, 42, 91
2, 89400, Note_on_c, 0, 42, 0
2, 89400, Note_on_c, 0, 74, 0
2, 89400, Note_on_c, 0, 66, 0
2, 89400, Note_on_c, 0, 78, 0
2, 89400, Note_on_c, 0, 54, 0
2, 89400, Note_on_c, 0, 69, 0
2, 89400, Note_on_c, 0, 75, 91
2, 89400, Note_on_c, 0, 72, 91
2, 89400, Note_on_c, 0, 69, 91
2, 89400, Note_on_c, 0, 63, 91
2, 89400, Note_on_c, 0, 57, 91
2, 89400, Note_on_c, 0, 45, 91
2, 89460, Note_on_c, 0, 45, 0
2, 89460, Note_on_c, 0, 57, 0
2, 89460, Note_on_c, 0, 55, 91
2, 89460, Note_on_c, 0, 43, 91
2, 89520, Note_on_c, 0, 43, 0
2, 89520, Note_on_c, 0, 72, 0
2, 89520, Note_on_c, 0, 63, 0
2, 89520, Note_on_c, 0, 75, 0
2, 89520, Note_on_c, 0, 55, 0
2, 89520, Note_on_c, 0, 69, 0
2, 89520, Note_on_c, 0, 74, 91
2, 89520, Note_on_c, 0, 72, 91
2, 89520, Note_on_c, 0, 69, 91
2, 89520, Note_on_c, 0, 62, 91
2, 89520, Note_on_c, 0, 54, 91
2, 89520, Note_on_c, 0, 42, 91
2, 89580, Note_on_c, 0, 42, 0
2, 89580, Note_on_c, 0, 54, 0
2, 89580, Note_on_c, 0, 57, 91
2, 89640, Note_on_c, 0, 57, 0
2, 89640, Note_on_c, 0, 62, 0
2, 89640, Note_on_c, 0, 74, 0
2, 89640, Note_on_c, 0, 72, 0
2, 89640, Note_on_c, 0, 69, 0
2, 89640, Note_on_c, 0, 62, 91
2, 89700, Note_on_c, 0, 62, 0
2, 89700, Note_on_c, 0, 74, 91
2, 89760, Note_on_c, 0, 74, 0
2, 89760, Note_on_c, 0, 82, 91
2, 89760, Note_on_c, 0, 79, 91
2, 89760, Note_on_c, 0, 74, 91
2, 89760, Note_on_c, 0, 70, 91
2, 89760, Note_on_c, 0, 43, 91
2, 89760, Note_on_c, 0, 31, 91
2, 89820, Note_on_c, 0, 31, 0
2, 89820, Note_on_c, 0, 43, 0
2, 89820, Note_on_c, 0, 43, 91
2, 89820, Note_on_c, 0, 31, 91
2, 89880, Note_on_c, 0, 31, 0
2, 89880, Note_on_c, 0, 43, 0
2, 89880, Note_on_c, 0, 42, 91
2, 89880, Note_on_c, 0, 30, 91
2, 89940, Note_on_c, 0, 30, 0
2, 89940, Note_on_c, 0, 79, 0
2, 89940, Note_on_c, 0, 74, 0
2, 89940, Note_on_c, 0, 82, 0
2, 89940, Note_on_c, 0, 42, 0
2, 89940, Note_on_c, 0, 70, 0
2, 89940, Note_on_c, 0, 82, 91
2, 89940, Note_on_c, 0, 79, 91
2, 89940, Note_on_c, 0, 74, 91
2, 89940, Note_on_c, 0, 70, 91
2, 89940, Note_on_c, 0, 43, 91
2, 89940, Note_on_c, 0, 31, 91
2, 90000, Note_on_c, 0, 31, 0
2, 90000, Note_on_c, 0, 79, 0
2, 90000, Note_on_c, 0, 74, 0
2, 90000, Note_on_c, 0, 82, 0
2, 90000, Note_on_c, 0, 43, 0
2, 90000, Note_on_c, 0, 70, 0
2, 90000, Note_on_c, 0, 81, 91
2, 90000, Note_on_c, 0, 76, 91
2, 90000, Note_on_c, 0, 73, 91
2, 90000, Note_on_c, 0, 69, 91
2, 90000, Note_on_c, 0, 45, 91
2, 90000, Note_on_c, 0, 33, 91
2, 90060, Note_on_c, 0, 33, 0
2, 90060, Note_on_c, 0, 45, 0
2, 90060, Note_on_c, 0, 47, 91
2, 90060, Note_on_c, 0, 35, 91
2, 90120, Note_on_c, 0, 35, 0
2, 90120, Note_on_c, 0, 47, 0
2, 90120, Note_on_c, 0, 48, 91
2, 90120, Note_on_c, 0, 36, 91
2, 90180, Note_on_c, 0, 36, 0
2, 90180, Note_on_c, 0, 76, 0
2, 90180, Note_on_c, 0, 73, 0
2, 90180, Note_on_c, 0, 81, 0
2, 90180, Note_on_c, 0, 48, 0
2, 90180, Note_on_c, 0, 69, 0
2, 90180, Note_on_c, 0, 81, 91
2, 90180, Note_on_c, 0, 69, 91
2, 90180, Note_on_c, 0, 49, 91
2, 90180, Note_on_c, 0, 37, 91
2, 90240, Note_on_c, 0, 37, 0
2, 90240, Note_on_c, 0, 81, 0
2, 90240, Note_on_c, 0, 69, 0
2, 90240, Note_on_c, 0, 49, 0
2, 90240, Note_on_c, 0, 78, 91
2, 90240, Note_on_c, 0, 74, 91
2, 90240, Note_on_c, 0, 69, 91
2, 90240, Note_on_c, 0, 66, 91
2, 90240, Note_on_c, 0, 50, 91
2, 90240, Note_on_c, 0, 38, 91
2, 90300, Note_on_c, 0, 38, 0
2, 90300, Note_on_c, 0, 50, 0
2, 90300, Note_on_c, 0, 54, 91
2, 90300, Note_on_c, 0, 42, 91
2, 90360, Note_on_c, 0, 42, 0
2, 90360, Note_on_c, 0, 74, 0
2, 90360, Note_on_c, 0, 66, 0
2, 90360, Note_on_c, 0, 78, 0
2, 90360, Note_on_c, 0, 54, 0
2, 90360, Note_on_c, 0, 69, 0
2, 90360, Note_on_c, 0, 75, 91
2, 90360, Note_on_c, 0, 72, 91
2, 90360, Note_on_c, 0, 69, 91
2, 90360, Note_on_c, 0, 63, 91
2, 90360, Note_on_c, 0, 57, 91
2, 90360, Note_on_c, 0, 45, 91
2, 90420, Note_on_c, 0, 45, 0
2, 90420, Note_on_c, 0, 57, 0
2, 90420, Note_on_c, 0, 55, 91
2, 90420, Note_on_c, 0, 43, 91
2, 90480, Note_on_c, 0, 43, 0
2, 90480, Note_on_c, 0, 72, 0
2, 90480, Note_on_c, 0, 63, 0
2, 90480, Note_on_c, 0, 75, 0
2, 90480, Note_on_c, 0, 55, 0
2, 90480, Note_on_c, 0, 69, 0
2, 90480, Note_on_c, 0, 74, 91
2, 90480, Note_on_c, 0, 72, 91
2, 90480, Note_on_c, 0, 69, 91
2, 90480, Note_on_c, 0, 62, 91
2, 90480, Note_on_c, 0, 54, 91
2, 90480, Note_on_c, 0, 42, 91
2, 90540, Note_on_c, 0, 42, 0
2, 90540, Note_on_c, 0, 54, 0
2, 90540, Note_on_c, 0, 57, 91
2, 90600, Note_on_c, 0, 57, 0
2, 90600, Note_on_c, 0, 62, 0
2, 90600, Note_on_c, 0, 74, 0
2, 90600, Note_on_c, 0, 72, 0
2, 90600, Note_on_c, 0, 69, 0
2, 90600, Note_on_c, 0, 62, 91
2, 90660, Note_on_c, 0, 62, 0
2, 90660, Note_on_c, 0, 74, 91
2, 90720, Note_on_c, 0, 74, 0
2, 90720, Note_on_c, 0, 79, 91
2, 90720, Note_on_c, 0, 74, 91
2, 90720, Note_on_c, 0, 67, 91
2, 90720, Note_on_c, 0, 46, 91
2, 90720, Note_on_c, 0, 34, 91
2, 90840, Note_on_c, 0, 34, 0
2, 90840, Note_on_c, 0, 67, 0
2, 90840, Note_on_c, 0, 79, 0
2, 90840, Note_on_c, 0, 74, 0
2, 90840, Note_on_c, 0, 46, 0
2, 90900, Channel_aftertouch_c, 0, 95
2, 90900, Note_on_c, 0, 79, 75
2, 90960, Note_on_c, 0, 79, 0
2, 90960, Note_on_c, 0, 78, 77
2, 90960, Note_on_c, 0, 62, 77
2, 90960, Note_on_c, 0, 62, 77
2, 90960, Note_on_c, 0, 58, 77
2, 91020, Note_on_c, 0, 78, 0
2, 91020, Note_on_c, 0, 79, 77
2, 91080, Note_on_c, 0, 79, 0
2, 91080, Note_on_c, 0, 62, 0
2, 91080, Note_on_c, 0, 81, 80
2, 91080, Note_on_c, 0, 67, 80
2, 91140, Note_on_c, 0, 81, 0
2, 91140, Note_on_c, 0, 82, 80
2, 91200, Note_on_c, 0, 82, 0
2, 91200, Note_on_c, 0, 67, 0
2, 91200, Note_on_c, 0, 62, 0
2, 91200, Note_on_c, 0, 58, 0
2, 91200, Note_on_c, 0, 82, 86
2, 91200, Note_on_c, 0, 79, 86
2, 91200, Note_on_c, 0, 75, 86
2, 91200, Note_on_c, 0, 70, 86
2, 91200, Note_on_c, 0, 67, 86
2, 91200, Note_on_c, 0, 63, 86
2, 91200, Note_on_c, 0, 60, 86
2, 91320, Note_on_c, 0, 70, 0
2, 91320, Note_on_c, 0, 75, 0
2, 91320, Note_on_c, 0, 82, 0
2, 91320, Note_on_c, 0, 79, 0
2, 91320, Note_on_c, 0, 81, 75
2, 91320, Note_on_c, 0, 69, 75
2, 91440, Note_on_c, 0, 69, 0
2, 91440, Note_on_c, 0, 60, 0
2, 91440, Note_on_c, 0, 63, 0
2, 91440, Note_on_c, 0, 67, 0
2, 91440, Note_on_c, 0, 81, 0
2, 91440, Note_on_c, 0, 75, 90
2, 91440, Note_on_c, 0, 72, 90
2, 91440, Note_on_c, 0, 67, 90
2, 91440, Note_on_c, 0, 63, 90
2, 91440, Note_on_c, 0, 48, 90
2, 91440, Note_on_c, 0, 36, 90
2, 91560, Note_on_c, 0, 36, 0
2, 91560, Note_on_c, 0, 72, 0
2, 91560, Note_on_c, 0, 67, 0
2, 91560, Note_on_c, 0, 75, 0
2, 91560, Note_on_c, 0, 48, 0
2, 91560, Note_on_c, 0, 63, 0
2, 91560, Note_on_c, 0, 75, 90
2, 91560, Note_on_c, 0, 72, 90
2, 91560, Note_on_c, 0, 67, 90
2, 91560, Note_on_c, 0, 63, 90
2, 91560, Note_on_c, 0, 48, 90
2, 91560, Note_on_c, 0, 36, 90
2, 91680, Note_on_c, 0, 36, 0
2, 91680, Note_on_c, 0, 72, 0
2, 91680, Note_on_c, 0, 67, 0
2, 91680, Note_on_c, 0, 75, 0
2, 91680, Note_on_c, 0, 48, 0
2, 91680, Note_on_c, 0, 63, 0
2, 91680, Note_on_c, 0, 75, 90
2, 91680, Note_on_c, 0, 72, 90
2, 91680, Note_on_c, 0, 67, 90
2, 91680, Note_on_c, 0, 63, 90
2, 91680, Note_on_c, 0, 48, 90
2, 91680, Note_on_c, 0, 36, 90
2, 91800, Note_on_c, 0, 36, 0
2, 91800, Note_on_c, 0, 72, 0
2, 91800, Note_on_c, 0, 67, 0
2, 91800, Note_on_c, 0, 75, 0
2, 91800, Note_on_c, 0, 48, 0
2, 91800, Note_on_c, 0, 63, 0
2, 91860, Note_on_c, 0, 81, 90
2, 91920, Note_on_c, 0, 81, 0
2, 91920, Note_on_c, 0, 80, 81
2, 91920, Note_on_c, 0, 69, 81
2, 91920, Note_on_c, 0, 67, 81
2, 91920, Note_on_c, 0, 63, 81
2, 91920, Note_on_c, 0, 60, 81
2, 91980, Note_on_c, 0, 80, 0
2, 91980, Note_on_c, 0, 81, 85
2, 92040, Note_on_c, 0, 81, 0
2, 92040, Note_on_c, 0, 87, 89
2, 92100, Note_on_c, 0, 87, 0
2, 92100, Note_on_c, 0, 84, 85
2, 92160, Note_on_c, 0, 84, 0
2, 92160, Note_on_c, 0, 60, 0
2, 92160, Note_on_c, 0, 69, 0
2, 92160, Note_on_c, 0, 67, 0
2, 92160, Note_on_c, 0, 63, 0
2, 92160, Note_on_c, 0, 82, 90
2, 92160, Note_on_c, 0, 70, 90
2, 92160, Note_on_c, 0, 67, 90
2, 92160, Note_on_c, 0, 63, 90
2, 92160, Note_on_c, 0, 60, 90
2, 92280, Note_on_c, 0, 70, 0
2, 92280, Note_on_c, 0, 82, 0
2, 92280, Note_on_c, 0, 81, 81
2, 92280, Note_on_c, 0, 69, 81
2, 92400, Note_on_c, 0, 69, 0
2, 92400, Note_on_c, 0, 63, 0
2, 92400, Note_on_c, 0, 60, 0
2, 92400, Note_on_c, 0, 67, 0
2, 92400, Note_on_c, 0, 81, 0
2, 92400, Note_on_c, 0, 75, 89
2, 92400, Note_on_c, 0, 72, 89
2, 92400, Note_on_c, 0, 67, 89
2, 92400, Note_on_c, 0, 63, 89
2, 92400, Note_on_c, 0, 48, 89
2, 92400, Note_on_c, 0, 36, 89
2, 92520, Note_on_c, 0, 36, 0
2, 92520, Note_on_c, 0, 72, 0
2, 92520, Note_on_c, 0, 67, 0
2, 92520, Note_on_c, 0, 75, 0
2, 92520, Note_on_c, 0, 48, 0
2, 92520, Note_on_c, 0, 63, 0
2, 92520, Note_on_c, 0, 75, 89
2, 92520, Note_on_c, 0, 72, 89
2, 92520, Note_on_c, 0, 67, 89
2, 92520, Note_on_c, 0, 63, 89
2, 92520, Note_on_c, 0, 48, 89
2, 92520, Note_on_c, 0, 36, 89
2, 92640, Note_on_c, 0, 36, 0
2, 92640, Note_on_c, 0, 72, 0
2, 92640, Note_on_c, 0, 67, 0
2, 92640, Note_on_c, 0, 75, 0
2, 92640, Note_on_c, 0, 48, 0
2, 92640, Note_on_c, 0, 63, 0
2, 92640, Note_on_c, 0, 76, 89
2, 92640, Note_on_c, 0, 69, 89
2, 92640, Note_on_c, 0, 67, 89
2, 92640, Note_on_c, 0, 64, 89
2, 92640, Note_on_c, 0, 49, 89
2, 92640, Note_on_c, 0, 37, 89
2, 92760, Note_on_c, 0, 37, 0
2, 92760, Note_on_c, 0, 69, 0
2, 92760, Note_on_c, 0, 67, 0
2, 92760, Note_on_c, 0, 76, 0
2, 92760, Note_on_c, 0, 49, 0
2, 92760, Note_on_c, 0, 64, 0
2, 92760, Note_on_c, 0, 67, 89
2, 92760, Note_on_c, 0, 64, 89
2, 92760, Note_on_c, 0, 61, 89
2, 92820, Note_on_c, 0, 81, 89
2, 92880, Note_on_c, 0, 81, 0
2, 92880, Note_on_c, 0, 80, 96
2, 92880, Note_on_c, 0, 70, 96
2, 92940, Note_on_c, 0, 80, 0
2, 92940, Note_on_c, 0, 81, 96
2, 93000, Note_on_c, 0, 81, 0
2, 93000, Note_on_c, 0, 70, 0
2, 93000, Note_on_c, 0, 82, 89
2, 93000, Note_on_c, 0, 69, 89
2, 93060, Note_on_c, 0, 82, 0
2, 93060, Note_on_c, 0, 81, 89
2, 93120, Note_on_c, 0, 81, 0
2, 93120, Note_on_c, 0, 69, 0
2, 93120, Note_on_c, 0, 67, 0
2, 93120, Note_on_c, 0, 64, 0
2, 93120, Note_on_c, 0, 61, 0
2, 93120, Note_on_c, 0, 76, 89
2, 93120, Note_on_c, 0, 69, 89
2, 93120, Note_on_c, 0, 67, 89
2, 93120, Note_on_c, 0, 64, 89
2, 93120, Note_on_c, 0, 49, 89
2, 93120, Note_on_c, 0, 37, 89
2, 93240, Note_on_c, 0, 37, 0
2, 93240, Note_on_c, 0, 69, 0
2, 93240, Note_on_c, 0, 67, 0
2, 93240, Note_on_c, 0, 76, 0
2, 93240, Note_on_c, 0, 49, 0
2, 93240, Note_on_c, 0, 64, 0
2, 93240, Note_on_c, 0, 67, 89
2, 93240, Note_on_c, 0, 64, 89
2, 93240, Note_on_c, 0, 61, 89
2, 93300, Note_on_c, 0, 81, 89
2, 93360, Note_on_c, 0, 81, 0
2, 93360, Note_on_c, 0, 80, 96
2, 93360, Note_on_c, 0, 70, 96
2, 93420, Note_on_c, 0, 80, 0
2, 93420, Note_on_c, 0, 81, 96
2, 93480, Note_on_c, 0, 81, 0
2, 93480, Note_on_c, 0, 70, 0
2, 93480, Note_on_c, 0, 82, 86
2, 93480, Note_on_c, 0, 69, 86
2, 93540, Note_on_c, 0, 82, 0
2, 93540, Note_on_c, 0, 81, 86
2, 93600, Note_on_c, 0, 81, 0
2, 93600, Note_on_c, 0, 69, 0
2, 93600, Note_on_c, 0, 67, 0
2, 93600, Note_on_c, 0, 64, 0
2, 93600, Note_on_c, 0, 61, 0
2, 93600, Note_on_c, 0, 76, 86
2, 93600, Note_on_c, 0, 69, 86
2, 93600, Note_on_c, 0, 67, 86
2, 93600, Note_on_c, 0, 64, 86
2, 93600, Note_on_c, 0, 49, 86
2, 93600, Note_on_c, 0, 37, 86
2, 93660, Note_on_c, 0, 61, 86
2, 93720, Note_on_c, 0, 61, 0
2, 93720, Note_on_c, 0, 49, 0
2, 93720, Note_on_c, 0, 69, 0
2, 93720, Note_on_c, 0, 67, 0
2, 93720, Note_on_c, 0, 76, 0
2, 93720, Note_on_c, 0, 37, 0
2, 93720, Note_on_c, 0, 64, 0
2, 93720, Note_on_c, 0, 79, 86
2, 93720, Note_on_c, 0, 70, 86
2, 93780, Note_on_c, 0, 70, 0
2, 93780, Note_on_c, 0, 61, 86
2, 93840, Note_on_c, 0, 61, 0
2, 93840, Note_on_c, 0, 79, 0
2, 93840, Note_on_c, 0, 81, 86
2, 93840, Note_on_c, 0, 78, 86
2, 93840, Note_on_c, 0, 69, 86
2, 93900, Note_on_c, 0, 69, 0
2, 93900, Note_on_c, 0, 61, 86
2, 93960, Note_on_c, 0, 61, 0
2, 93960, Note_on_c, 0, 78, 0
2, 93960, Note_on_c, 0, 81, 0
2, 93960, Note_on_c, 0, 82, 86
2, 93960, Note_on_c, 0, 79, 86
2, 93960, Note_on_c, 0, 70, 86
2, 93960, Note_on_c, 0, 67, 86
2, 94020, Note_on_c, 0, 67, 0
2, 94020, Note_on_c, 0, 70, 0
2, 94020, Note_on_c, 0, 61, 86
2, 94080, Note_on_c, 0, 61, 0
2, 94080, Note_on_c, 0, 79, 0
2, 94080, Note_on_c, 0, 82, 0
2, 94080, Note_on_c, 0, 86, 93
2, 94080, Note_on_c, 0, 81, 93
2, 94080, Note_on_c, 0, 74, 93
2, 94080, Note_on_c, 0, 69, 93
2, 94080, Note_on_c, 0, 66, 93
2, 94140, Note_on_c, 0, 66, 0
2, 94140, Note_on_c, 0, 69, 0
2, 94140, Note_on_c, 0, 62, 86
2, 94200, Note_on_c, 0, 62, 0
2, 94200, Note_on_c, 0, 86, 0
2, 94200, Note_on_c, 0, 84, 86
2, 94200, Note_on_c, 0, 69, 86
2, 94200, Note_on_c, 0, 66, 86
2, 94260, Note_on_c, 0, 66, 0
2, 94260, Note_on_c, 0, 69, 0
2, 94260, Note_on_c, 0, 62, 86
2, 94320, Note_on_c, 0, 62, 0
2, 94320, Note_on_c, 0, 84, 0
2, 94320, Note_on_c, 0, 81, 0
2, 94320, Note_on_c, 0, 81, 86
2, 94320, Note_on_c, 0, 78, 86
2, 94320, Note_on_c, 0, 72, 86
2, 94320, Note_on_c, 0, 69, 86
2, 94380, Note_on_c, 0, 69, 0
2, 94380, Note_on_c, 0, 72, 0
2, 94380, Note_on_c, 0, 62, 86
2, 94440, Note_on_c, 0, 62, 0
2, 94440, Note_on_c, 0, 72, 86
2, 94440, Note_on_c, 0, 69, 86
2, 94440, Note_on_c, 0, 86, 91
2, 94440, Note_on_c, 0, 74, 91
2, 94440, Note_on_c, 0, 62, 91
2, 94440, Note_on_c, 0, 50, 91
2, 94500, Note_on_c, 0, 69, 0
2, 94500, Note_on_c, 0, 72, 0
2, 94500, Note_on_c, 0, 62, 86
2, 94560, Note_on_c, 0, 62, 0
2, 94560, Note_on_c, 0, 50, 0
2, 94560, Note_on_c, 0, 86, 0
2, 94560, Note_on_c, 0, 81, 0
2, 94560, Note_on_c, 0, 78, 0
2, 94560, Note_on_c, 0, 62, 0
2, 94560, Note_on_c, 0, 74, 0
2, 94560, Note_on_c, 0, 74, 0
2, 94560, Note_on_c, 0, 72, 84
2, 94560, Note_on_c, 0, 69, 84
2, 94560, Note_on_c, 0, 74, 84
2, 94560, Note_on_c, 0, 62, 84
2, 94560, Note_on_c, 0, 50, 84
2, 94560, Note_on_c, 0, 38, 84
2, 94620, Note_on_c, 0, 69, 0
2, 94620, Note_on_c, 0, 72, 0
2, 94620, Note_on_c, 0, 62, 84
2, 94680, Note_on_c, 0, 62, 0
2, 94680, Note_on_c, 0, 74, 0
2, 94680, Note_on_c, 0, 62, 0
2, 94680, Note_on_c, 0, 38, 0
2, 94680, Note_on_c, 0, 50, 0
2, 94680, Note_on_c, 0, 79, 84
2, 94680, Note_on_c, 0, 74, 84
2, 94680, Note_on_c, 0, 70, 84
2, 94740, Note_on_c, 0, 70, 0
2, 94740, Note_on_c, 0, 62, 84
2, 94800, Note_on_c, 0, 62, 0
2, 94800, Note_on_c, 0, 74, 0
2, 94800, Note_on_c, 0, 79, 0
2, 94800, Note_on_c, 0, 81, 86
2, 94800, Note_on_c, 0, 78, 86
2, 94800, Note_on_c, 0, 72, 86
2, 94800, Note_on_c, 0, 69, 86
2, 94860, Note_on_c, 0, 69, 0
2, 94860, Note_on_c, 0, 72, 0
2, 94860, Note_on_c, 0, 62, 86
2, 94920, Note_on_c, 0, 62, 0
2, 94920, Note_on_c, 0, 78, 0
2, 94920, Note_on_c, 0, 81, 0
2, 94920, Note_on_c, 0, 82, 89
2, 94920, Note_on_c, 0, 79, 89
2, 94920, Note_on_c, 0, 70, 89
2, 94920, Note_on_c, 0, 67, 89
2, 94980, Note_on_c, 0, 67, 0
2, 94980, Note_on_c, 0, 70, 0
2, 94980, Note_on_c, 0, 62, 89
2, 95040, Note_on_c, 0, 62, 0
2, 95040, Note_on_c, 0, 79, 0
2, 95040, Note_on_c, 0, 82, 0
2, 95040, Channel_aftertouch_c, 0, 104
2, 95040, Note_on_c, 0, 86, 89
2, 95040, Note_on_c, 0, 81, 89
2, 95040, Note_on_c, 0, 74, 89
2, 95040, Note_on_c, 0, 69, 89
2, 95040, Note_on_c, 0, 66, 89
2, 95100, Note_on_c, 0, 66, 0
2, 95100, Note_on_c, 0, 69, 0
2, 95100, Note_on_c, 0, 62, 89
2, 95160, Note_on_c, 0, 62, 0
2, 95160, Note_on_c, 0, 86, 0
2, 95160, Note_on_c, 0, 84, 86
2, 95160, Note_on_c, 0, 69, 86
2, 95160, Note_on_c, 0, 66, 86
2, 95220, Note_on_c, 0, 66, 0
2, 95220, Note_on_c, 0, 69, 0
2, 95220, Note_on_c, 0, 62, 86
2, 95280, Note_on_c, 0, 62, 0
2, 95280, Note_on_c, 0, 84, 0
2, 95280, Note_on_c, 0, 74, 0
2, 95280, Note_on_c, 0, 81, 0
2, 95280, Note_on_c, 0, 81, 84
2, 95280, Note_on_c, 0, 78, 84
2, 95280, Note_on_c, 0, 72, 84
2, 95280, Note_on_c, 0, 69, 84
2, 95340, Note_on_c, 0, 69, 0
2, 95340, Note_on_c, 0, 72, 0
2, 95340, Note_on_c, 0, 62, 84
2, 95400, Note_on_c, 0, 62, 0
2, 95400, Note_on_c, 0, 72, 84
2, 95400, Note_on_c, 0, 69, 84
2, 95400, Note_on_c, 0, 86, 84
2, 95400, Note_on_c, 0, 74, 84
2, 95400, Note_on_c, 0, 62, 84
2, 95400, Note_on_c, 0, 50, 84
2, 95460, Note_on_c, 0, 69, 0
2, 95460, Note_on_c, 0, 72, 0
2, 95460, Note_on_c, 0, 62, 84
2, 95520, Note_on_c, 0, 62, 0
2, 95520, Note_on_c, 0, 62, 0
2, 95520, Note_on_c, 0, 78, 0
2, 95520, Note_on_c, 0, 86, 0
2, 95520, Note_on_c, 0, 50, 0
2, 95520, Note_on_c, 0, 74, 0
2, 95520, Note_on_c, 0, 81, 0
2, 95520, Note_on_c, 0, 72, 84
2, 95520, Note_on_c, 0, 69, 84
2, 95520, Note_on_c, 0, 74, 89
2, 95520, Note_on_c, 0, 62, 84
2, 95520, Note_on_c, 0, 50, 84
2, 95520, Note_on_c, 0, 38, 84
2, 95580, Note_on_c, 0, 69, 0
2, 95580, Note_on_c, 0, 72, 0
2, 95580, Note_on_c, 0, 62, 84
2, 95640, Note_on_c, 0, 62, 0
2, 95640, Note_on_c, 0, 74, 0
2, 95640, Note_on_c, 0, 62, 0
2, 95640, Note_on_c, 0, 38, 0
2, 95640, Note_on_c, 0, 50, 0
2, 95640, Note_on_c, 0, 69, 84
2, 95640, Note_on_c, 0, 66, 84
2, 95700, Note_on_c, 0, 66, 0
2, 95700, Note_on_c, 0, 69, 0
2, 95700, Note_on_c, 0, 74, 84
2, 95760, Note_on_c, 0, 74, 0
2, 95760, Channel_aftertouch_c, 0, 91
2, 95760, Note_on_c, 0, 80, 71
2, 95820, Note_on_c, 0, 59, 71
2, 95880, Note_on_c, 0, 59, 0
2, 95880, Note_on_c, 0, 67, 71
2, 95880, Note_on_c, 0, 62, 71
2, 95940, Note_on_c, 0, 80, 0
2, 95940, Note_on_c, 0, 79, 71
2, 96000, Note_on_c, 0, 79, 0
2, 96000, Note_on_c, 0, 62, 0
2, 96000, Note_on_c, 0, 67, 0
2, 96000, Note_on_c, 0, 77, 71
2, 96060, Note_on_c, 0, 60, 71
2, 96120, Note_on_c, 0, 60, 0
2, 96120, Note_on_c, 0, 67, 71
2, 96120, Note_on_c, 0, 63, 71
2, 96180, Note_on_c, 0, 77, 0
2, 96180, Note_on_c, 0, 76, 71
2, 96240, Note_on_c, 0, 76, 0
2, 96240, Note_on_c, 0, 63, 0
2, 96240, Note_on_c, 0, 67, 0
2, 96240, Note_on_c, 0, 74, 71
2, 96300, Note_on_c, 0, 50, 71
2, 96360, Note_on_c, 0, 50, 0
2, 96360, Note_on_c, 0, 65, 71
2, 96360, Note_on_c, 0, 55, 71
2, 96420, Note_on_c, 0, 74, 0
2, 96420, Note_on_c, 0, 71, 71
2, 96480, Note_on_c, 0, 71, 0
2, 96480, Note_on_c, 0, 55, 0
2, 96480, Note_on_c, 0, 65, 0
2, 96480, Note_on_c, 0, 74, 71
2, 96540, Note_on_c, 0, 74, 0
2, 96540, Note_on_c, 0, 72, 71
2, 96540, Note_on_c, 0, 51, 71
2, 96600, Note_on_c, 0, 51, 0
2, 96600, Note_on_c, 0, 72, 0
2, 96600, Note_on_c, 0, 75, 71
2, 96600, Note_on_c, 0, 63, 71
2, 96600, Note_on_c, 0, 55, 71
2, 96660, Note_on_c, 0, 75, 0
2, 96660, Note_on_c, 0, 74, 71
2, 96720, Note_on_c, 0, 74, 0
2, 96720, Note_on_c, 0, 55, 0
2, 96720, Note_on_c, 0, 63, 0
2, 96720, Note_on_c, 0, 77, 71
2, 96780, Note_on_c, 0, 77, 0
2, 96780, Note_on_c, 0, 75, 71
2, 96840, Note_on_c, 0, 75, 0
2, 96840, Note_on_c, 0, 72, 71
2, 96900, Note_on_c, 0, 72, 0
2, 96900, Note_on_c, 0, 68, 71
2, 96960, Note_on_c, 0, 68, 0
2, 96960, Note_on_c, 0, 67, 71
2, 97020, Note_on_c, 0, 67, 0
2, 97020, Note_on_c, 0, 70, 71
2, 97080, Note_on_c, 0, 70, 0
2, 97080, Note_on_c, 0, 74, 71
2, 97080, Note_on_c, 0, 67, 71
2, 97080, Note_on_c, 0, 58, 71
2, 97080, Note_on_c, 0, 50, 84
2, 97140, Note_on_c, 0, 50, 0
2, 97140, Note_on_c, 0, 58, 0
2, 97140, Note_on_c, 0, 67, 0
2, 97200, Note_on_c, 0, 66, 71
2, 97200, Note_on_c, 0, 57, 71
2, 97200, Note_on_c, 0, 50, 84
2, 97260, Note_on_c, 0, 50, 0
2, 97260, Note_on_c, 0, 74, 0
2, 97260, Note_on_c, 0, 66, 0
2, 97260, Note_on_c, 0, 57, 0
2, 97260, Note_on_c, 0, 72, 71
2, 97320, Note_on_c, 0, 72, 0
2, 97320, Note_on_c, 0, 69, 71
2, 97320, Note_on_c, 0, 66, 71
2, 97320, Note_on_c, 0, 60, 71
2, 97320, Note_on_c, 0, 50, 84
2, 97380, Note_on_c, 0, 50, 0
2, 97380, Note_on_c, 0, 69, 0
2, 97380, Note_on_c, 0, 66, 0
2, 97380, Note_on_c, 0, 60, 0
2, 97380, Note_on_c, 0, 74, 71
2, 97440, Note_on_c, 0, 74, 0
2, 97440, Note_on_c, 0, 67, 71
2, 97440, Note_on_c, 0, 43, 71
2, 97440, Note_on_c, 0, 43, 75
2, 97440, Note_on_c, 0, 31, 75
2, 97470, Note_on_c, 0, 43, 0
2, 97470, Note_on_c, 0, 50, 71
2, 97500, Note_on_c, 0, 50, 0
2, 97500, Note_on_c, 0, 67, 0
2, 97500, Note_on_c, 0, 55, 71
2, 97530, Note_on_c, 0, 55, 0
2, 97530, Note_on_c, 0, 58, 71
2, 97560, Note_on_c, 0, 58, 0
2, 97560, Note_on_c, 0, 43, 0
2, 97560, Note_on_c, 0, 31, 0
2, 97560, Note_on_c, 0, 62, 71
2, 97560, Note_on_c, 0, 79, 71
2, 97560, Note_on_c, 0, 74, 71
2, 97560, Note_on_c, 0, 70, 71
2, 97590, Note_on_c, 0, 79, 71
2, 97620, Note_on_c, 0, 79, 0
2, 97620, Note_on_c, 0, 62, 0
2, 97620, Note_on_c, 0, 67, 71
2, 97650, Note_on_c, 0, 67, 0
2, 97650, Note_on_c, 0, 70, 71
2, 97680, Note_on_c, 0, 70, 0
2, 97680, Note_on_c, 0, 70, 0
2, 97680, Note_on_c, 0, 74, 0
2, 97680, Note_on_c, 0, 79, 0
2, 97680, Note_on_c, 0, 60, 71
2, 97680, Note_on_c, 0, 57, 71
2, 97680, Note_on_c, 0, 81, 76
2, 97680, Note_on_c, 0, 78, 76
2, 97680, Note_on_c, 0, 74, 76
2, 97710, Note_on_c, 0, 78, 71
2, 97740, Note_on_c, 0, 78, 0
2, 97740, Note_on_c, 0, 57, 0
2, 97740, Note_on_c, 0, 60, 0
2, 97740, Note_on_c, 0, 66, 71
2, 97770, Note_on_c, 0, 66, 0
2, 97770, Note_on_c, 0, 69, 71
2, 97800, Note_on_c, 0, 69, 0
2, 97800, Note_on_c, 0, 81, 0
2, 97800, Note_on_c, 0, 78, 0
2, 97800, Note_on_c, 0, 74, 0
2, 97800, Note_on_c, 0, 58, 71
2, 97800, Note_on_c, 0, 55, 71
2, 97800, Note_on_c, 0, 82, 81
2, 97800, Note_on_c, 0, 79, 81
2, 97830, Note_on_c, 0, 79, 71
2, 97860, Note_on_c, 0, 79, 0
2, 97860, Note_on_c, 0, 55, 0
2, 97860, Note_on_c, 0, 58, 0
2, 97860, Note_on_c, 0, 67, 71
2, 97890, Note_on_c, 0, 67, 0
2, 97890, Note_on_c, 0, 70, 71
2, 97920, Note_on_c, 0, 70, 0
2, 97920, Note_on_c, 0, 82, 0
2, 97920, Note_on_c, 0, 79, 0
2, 97920, Note_on_c, 0, 50, 71
2, 97920, Note_on_c, 0, 38, 71
2, 97920, Note_on_c, 0, 86, 81
2, 97920, Note_on_c, 0, 78, 81
2, 97920, Note_on_c, 0, 74, 81
2, 97920, Note_on_c, 0, 50, 81
2, 97920, Note_on_c, 0, 38, 81
2, 97950, Note_on_c, 0, 62, 71
2, 97980, Note_on_c, 0, 62, 0
2, 97980, Note_on_c, 0, 38, 0
2, 97980, Note_on_c, 0, 50, 0
2, 97980, Note_on_c, 0, 66, 71
2, 98010, Note_on_c, 0, 66, 0
2, 98010, Note_on_c, 0, 69, 71
2, 98040, Note_on_c, 0, 69, 0
2, 98040, Note_on_c, 0, 86, 0
2, 98040, Note_on_c, 0, 74, 0
2, 98040, Note_on_c, 0, 50, 0
2, 98040, Note_on_c, 0, 38, 0
2, 98040, Note_on_c, 0, 72, 75
2, 98040, Note_on_c, 0, 84, 81
2, 98040, Note_on_c, 0, 72, 76
2, 98070, Note_on_c, 0, 72, 0
2, 98070, Note_on_c, 0, 74, 75
2, 98100, Note_on_c, 0, 74, 0
2, 98100, Note_on_c, 0, 78, 75
2, 98130, Note_on_c, 0, 78, 0
2, 98130, Note_on_c, 0, 81, 75
2, 98160, Note_on_c, 0, 81, 0
2, 98160, Note_on_c, 0, 78, 0
2, 98160, Note_on_c, 0, 84, 0
2, 98160, Note_on_c, 0, 72, 0
2, 98160, Note_on_c, 0, 86, 79
2, 98160, Note_on_c, 0, 60, 71
2, 98160, Note_on_c, 0, 57, 71
2, 98160, Note_on_c, 0, 50, 71
2, 98160, Note_on_c, 0, 81, 71
2, 98160, Note_on_c, 0, 78, 71
2, 98160, Note_on_c, 0, 69, 71
2, 98190, Note_on_c, 0, 86, 0
2, 98190, Note_on_c, 0, 84, 79
2, 98220, Note_on_c, 0, 84, 0
2, 98220, Note_on_c, 0, 57, 0
2, 98220, Note_on_c, 0, 60, 0
2, 98220, Note_on_c, 0, 50, 0
2, 98220, Note_on_c, 0, 81, 75
2, 98250, Note_on_c, 0, 81, 0
2, 98250, Note_on_c, 0, 78, 75
2, 98280, Note_on_c, 0, 78, 0
2, 98280, Note_on_c, 0, 74, 75
2, 98280, Note_on_c, 0, 50, 81
2, 98310, Note_on_c, 0, 74, 0
2, 98310, Note_on_c, 0, 72, 75
2, 98340, Note_on_c, 0, 72, 0
2, 98340, Note_on_c, 0, 69, 75
2, 98370, Note_on_c, 0, 69, 0
2, 98370, Note_on_c, 0, 66, 75
2, 98400, Note_on_c, 0, 66, 0
2, 98400, Note_on_c, 0, 69, 0
2, 98400, Note_on_c, 0, 78, 0
2, 98400, Note_on_c, 0, 81, 0
2, 98400, Note_on_c, 0, 50, 0
2, 98400, Note_on_c, 0, 50, 71
2, 98400, Note_on_c, 0, 38, 71
2, 98400, Note_on_c, 0, 43, 81
2, 98430, Note_on_c, 0, 74, 71
2, 98460, Note_on_c, 0, 74, 0
2, 98460, Note_on_c, 0, 50, 0
2, 98460, Note_on_c, 0, 38, 0
2, 98460, Note_on_c, 0, 62, 71
2, 98490, Note_on_c, 0, 62, 0
2, 98490, Note_on_c, 0, 67, 71
2, 98520, Note_on_c, 0, 67, 0
2, 98520, Note_on_c, 0, 43, 0
2, 98520, Note_on_c, 0, 58, 71
2, 98520, Note_on_c, 0, 79, 71
2, 98520, Note_on_c, 0, 74, 71
2, 98520, Note_on_c, 0, 67, 71
2, 98520, Note_on_c, 0, 58, 71
2, 98520, Note_on_c, 0, 46, 71
2, 98550, Note_on_c, 0, 79, 71
2, 98580, Note_on_c, 0, 46, 0
2, 98580, Note_on_c, 0, 79, 0
2, 98580, Note_on_c, 0, 58, 0
2, 98580, Note_on_c, 0, 58, 0
2, 98580, Note_on_c, 0, 67, 71
2, 98610, Note_on_c, 0, 67, 0
2, 98610, Note_on_c, 0, 70, 71
2, 98640, Note_on_c, 0, 70, 0
2, 98640, Note_on_c, 0, 67, 0
2, 98640, Note_on_c, 0, 79, 0
2, 98640, Note_on_c, 0, 74, 0
2, 98640, Note_on_c, 0, 60, 71
2, 98640, Note_on_c, 0, 57, 71
2, 98640, Note_on_c, 0, 81, 76
2, 98640, Note_on_c, 0, 78, 76
2, 98640, Note_on_c, 0, 72, 76
2, 98640, Note_on_c, 0, 69, 76
2, 98640, Note_on_c, 0, 57, 76
2, 98640, Note_on_c, 0, 45, 76
2, 98670, Note_on_c, 0, 78, 71
2, 98700, Note_on_c, 0, 45, 0
2, 98700, Note_on_c, 0, 57, 0
2, 98700, Note_on_c, 0, 57, 0
2, 98700, Note_on_c, 0, 60, 0
2, 98700, Note_on_c, 0, 78, 0
2, 98700, Note_on_c, 0, 66, 71
2, 98730, Note_on_c, 0, 66, 0
2, 98730, Note_on_c, 0, 69, 71
2, 98760, Note_on_c, 0, 69, 0
2, 98760, Note_on_c, 0, 72, 0
2, 98760, Note_on_c, 0, 78, 0
2, 98760, Note_on_c, 0, 81, 0
2, 98760, Note_on_c, 0, 69, 0
2, 98760, Note_on_c, 0, 58, 71
2, 98760, Note_on_c, 0, 55, 71
2, 98760, Note_on_c, 0, 82, 81
2, 98760, Note_on_c, 0, 75, 81
2, 98760, Note_on_c, 0, 70, 81
2, 98760, Note_on_c, 0, 55, 81
2, 98760, Note_on_c, 0, 43, 81
2, 98790, Note_on_c, 0, 75, 71
2, 98820, Note_on_c, 0, 43, 0
2, 98820, Note_on_c, 0, 55, 0
2, 98820, Note_on_c, 0, 75, 0
2, 98820, Note_on_c, 0, 58, 0
2, 98820, Note_on_c, 0, 55, 0
2, 98820, Note_on_c, 0, 63, 71
2, 98850, Note_on_c, 0, 63, 0
2, 98850, Note_on_c, 0, 67, 71
2, 98880, Note_on_c, 0, 67, 0
2, 98880, Note_on_c, 0, 75, 0
2, 98880, Note_on_c, 0, 70, 0
2, 98880, Note_on_c, 0, 82, 0
2, 98880, Note_on_c, 0, 57, 71
2, 98880, Note_on_c, 0, 54, 71
2, 98880, Note_on_c, 0, 86, 81
2, 98880, Note_on_c, 0, 81, 81
2, 98880, Note_on_c, 0, 74, 81
2, 98880, Note_on_c, 0, 54, 81
2, 98880, Note_on_c, 0, 42, 81
2, 98910, Note_on_c, 0, 62, 71
2, 98940, Note_on_c, 0, 62, 0
2, 98940, Note_on_c, 0, 42, 0
2, 98940, Note_on_c, 0, 54, 0
2, 98940, Note_on_c, 0, 57, 0
2, 98940, Note_on_c, 0, 54, 0
2, 98940, Note_on_c, 0, 66, 71
2, 98970, Note_on_c, 0, 66, 0
2, 98970, Note_on_c, 0, 69, 71
2, 99000, Note_on_c, 0, 69, 0
2, 99000, Note_on_c, 0, 86, 0
2, 99000, Note_on_c, 0, 74, 0
2, 99000, Note_on_c, 0, 72, 75
2, 99000, Note_on_c, 0, 55, 71
2, 99000, Note_on_c, 0, 51, 71
2, 99000, Note_on_c, 0, 84, 76
2, 99000, Note_on_c, 0, 72, 76
2, 99000, Note_on_c, 0, 51, 76
2, 99000, Note_on_c, 0, 39, 76
2, 99030, Note_on_c, 0, 72, 0
2, 99030, Note_on_c, 0, 74, 75
2, 99060, Note_on_c, 0, 74, 0
2, 99060, Note_on_c, 0, 39, 0
2, 99060, Note_on_c, 0, 55, 0
2, 99060, Note_on_c, 0, 51, 0
2, 99060, Note_on_c, 0, 51, 0
2, 99060, Note_on_c, 0, 78, 75
2, 99090, Note_on_c, 0, 78, 0
2, 99090, Note_on_c, 0, 81, 75
2, 99120, Note_on_c, 0, 81, 0
2, 99120, Note_on_c, 0, 81, 0
2, 99120, Note_on_c, 0, 84, 0
2, 99120, Note_on_c, 0, 72, 0
2, 99120, Note_on_c, 0, 86, 79
2, 99120, Note_on_c, 0, 54, 71
2, 99120, Note_on_c, 0, 50, 71
2, 99120, Note_on_c, 0, 81, 71
2, 99120, Note_on_c, 0, 78, 71
2, 99120, Note_on_c, 0, 69, 71
2, 99120, Note_on_c, 0, 50, 71
2, 99120, Note_on_c, 0, 38, 71
2, 99150, Note_on_c, 0, 86, 0
2, 99150, Note_on_c, 0, 84, 79
2, 99180, Note_on_c, 0, 84, 0
2, 99180, Note_on_c, 0, 38, 0
2, 99180, Note_on_c, 0, 50, 0
2, 99180, Note_on_c, 0, 54, 0
2, 99180, Note_on_c, 0, 50, 0
2, 99180, Note_on_c, 0, 81, 75
2, 99210, Note_on_c, 0, 81, 0
2, 99210, Note_on_c, 0, 78, 75
2, 99240, Note_on_c, 0, 78, 0
2, 99240, Note_on_c, 0, 74, 75
2, 99240, Note_on_c, 0, 48, 71
2, 99240, Note_on_c, 0, 48, 71
2, 99240, Note_on_c, 0, 36, 71
2, 99270, Note_on_c, 0, 74, 0
2, 99270, Note_on_c, 0, 72, 75
2, 99300, Note_on_c, 0, 72, 0
2, 99300, Note_on_c, 0, 36, 0
2, 99300, Note_on_c, 0, 48, 0
2, 99300, Note_on_c, 0, 48, 0
2, 99300, Note_on_c, 0, 69, 75
2, 99330, Note_on_c, 0, 69, 0
2, 99330, Note_on_c, 0, 66, 75
2, 99360, Note_on_c, 0, 66, 0
2, 99360, Note_on_c, 0, 69, 0
2, 99360, Note_on_c, 0, 81, 0
2, 99360, Note_on_c, 0, 78, 0
2, 99360, Note_on_c, 0, 46, 71
2, 99360, Note_on_c, 0, 79, 66
2, 99360, Note_on_c, 0, 46, 66
2, 99360, Note_on_c, 0, 34, 66
2, 99390, Note_on_c, 0, 55, 71
2, 99420, Note_on_c, 0, 55, 0
2, 99420, Note_on_c, 0, 46, 0
2, 99420, Note_on_c, 0, 62, 71
2, 99420, Note_on_c, 0, 50, 71
2, 99450, Note_on_c, 0, 62, 0
2, 99450, Note_on_c, 0, 58, 71
2, 99480, Note_on_c, 0, 58, 0
2, 99480, Note_on_c, 0, 50, 0
2, 99480, Note_on_c, 0, 34, 0
2, 99480, Note_on_c, 0, 46, 0
2, 99480, Note_on_c, 0, 67, 73
2, 99480, Note_on_c, 0, 55, 73
2, 99480, Note_on_c, 0, 86, 71
2, 99480, Note_on_c, 0, 74, 71
2, 99480, Note_on_c, 0, 58, 71
2, 99480, Note_on_c, 0, 55, 71
2, 99510, Note_on_c, 0, 67, 0
2, 99510, Note_on_c, 0, 62, 73
2, 99540, Note_on_c, 0, 62, 0
2, 99540, Note_on_c, 0, 55, 0
2, 99540, Note_on_c, 0, 70, 73
2, 99540, Note_on_c, 0, 58, 73
2, 99570, Note_on_c, 0, 70, 0
2, 99570, Note_on_c, 0, 67, 73
2, 99600, Note_on_c, 0, 67, 0
2, 99600, Note_on_c, 0, 58, 0
2, 99600, Note_on_c, 0, 55, 0
2, 99600, Note_on_c, 0, 86, 0
2, 99600, Note_on_c, 0, 79, 0
2, 99600, Note_on_c, 0, 58, 0
2, 99600, Note_on_c, 0, 74, 0
2, 99600, Note_on_c, 0, 74, 76
2, 99600, Note_on_c, 0, 59, 76
2, 99600, Note_on_c, 0, 87, 76
2, 99600, Note_on_c, 0, 79, 76
2, 99600, Note_on_c, 0, 75, 76
2, 99600, Note_on_c, 0, 43, 76
2, 99630, Note_on_c, 0, 74, 0
2, 99630, Note_on_c, 0, 71, 76
2, 99660, Note_on_c, 0, 71, 0
2, 99660, Note_on_c, 0, 59, 0
2, 99660, Note_on_c, 0, 77, 76
2, 99660, Note_on_c, 0, 62, 76
2, 99690, Note_on_c, 0, 77, 0
2, 99690, Note_on_c, 0, 74, 76
2, 99720, Note_on_c, 0, 74, 0
2, 99720, Note_on_c, 0, 62, 0
2, 99720, Note_on_c, 0, 87, 0
2, 99720, Note_on_c, 0, 75, 0
2, 99720, Note_on_c, 0, 43, 0
2, 99720, Note_on_c, 0, 83, 73
2, 99720, Note_on_c, 0, 67, 73
2, 99720, Note_on_c, 0, 86, 71
2, 99720, Note_on_c, 0, 74, 71
2, 99720, Note_on_c, 0, 59, 71
2, 99720, Note_on_c, 0, 53, 71
2, 99750, Note_on_c, 0, 83, 0
2, 99750, Note_on_c, 0, 79, 73
2, 99780, Note_on_c, 0, 79, 0
2, 99780, Note_on_c, 0, 67, 0
2, 99780, Note_on_c, 0, 77, 73
2, 99780, Note_on_c, 0, 71, 73
2, 99810, Note_on_c, 0, 77, 0
2, 99810, Note_on_c, 0, 74, 73
2, 99840, Note_on_c, 0, 74, 0
2, 99840, Note_on_c, 0, 71, 0
2, 99840, Note_on_c, 0, 79, 0
2, 99840, Note_on_c, 0, 74, 0
2, 99840, Note_on_c, 0, 86, 0
2, 99840, Note_on_c, 0, 59, 0
2, 99840, Note_on_c, 0, 53, 0
2, 99840, Note_on_c, 0, 76, 71
2, 99840, Note_on_c, 0, 72, 71
2, 99840, Note_on_c, 0, 84, 66
2, 99840, Note_on_c, 0, 76, 66
2, 99840, Note_on_c, 0, 72, 66
2, 99840, Note_on_c, 0, 48, 66
2, 99870, Note_on_c, 0, 72, 0
2, 99870, Note_on_c, 0, 76, 0
2, 99870, Note_on_c, 0, 79, 71
2, 99870, Note_on_c, 0, 70, 71
2, 99900, Note_on_c, 0, 70, 0
2, 99900, Note_on_c, 0, 84, 0
2, 99900, Note_on_c, 0, 76, 0
2, 99900, Note_on_c, 0, 72, 0
2, 99900, Note_on_c, 0, 79, 0
2, 99900, Note_on_c, 0, 82, 71
2, 99900, Note_on_c, 0, 67, 71
2, 99930, Note_on_c, 0, 67, 0
2, 99930, Note_on_c, 0, 82, 0
2, 99930, Note_on_c, 0, 79, 71
2, 99930, Note_on_c, 0, 64, 71
2, 99960, Note_on_c, 0, 64, 0
2, 99960, Note_on_c, 0, 79, 0
2, 99960, Note_on_c, 0, 48, 0
2, 99960, Note_on_c, 0, 76, 71
2, 99960, Note_on_c, 0, 60, 71
2, 99960, Note_on_c, 0, 84, 66
2, 99960, Note_on_c, 0, 76, 66
2, 99960, Note_on_c, 0, 72, 66
2, 99960, Note_on_c, 0, 55, 66
2, 99960, Note_on_c, 0, 52, 66
2, 99990, Note_on_c, 0, 76, 0
2, 99990, Note_on_c, 0, 72, 71
2, 100020, Note_on_c, 0, 72, 0
2, 100020, Note_on_c, 0, 60, 0
2, 100020, Note_on_c, 0, 70, 71
2, 100050, Note_on_c, 0, 70, 0
2, 100050, Note_on_c, 0, 67, 71
2, 100080, Note_on_c, 0, 67, 0
2, 100080, Note_on_c, 0, 84, 0
2, 100080, Note_on_c, 0, 55, 0
2, 100080, Note_on_c, 0, 76, 0
2, 100080, Note_on_c, 0, 72, 0
2, 100080, Note_on_c, 0, 52, 0
2, 100080, Note_on_c, 0, 63, 71
2, 100080, Note_on_c, 0, 53, 71
2, 100080, Note_on_c, 0, 86, 66
2, 100080, Note_on_c, 0, 77, 66
2, 100080, Note_on_c, 0, 74, 66
2, 100080, Note_on_c, 0, 41, 66
2, 100110, Note_on_c, 0, 53, 0
2, 100110, Note_on_c, 0, 63, 0
2, 100110, Note_on_c, 0, 69, 71
2, 100110, Note_on_c, 0, 51, 71
2, 100140, Note_on_c, 0, 51, 0
2, 100140, Note_on_c, 0, 69, 0
2, 100140, Note_on_c, 0, 72, 71
2, 100140, Note_on_c, 0, 48, 71
2, 100170, Note_on_c, 0, 48, 0
2, 100170, Note_on_c, 0, 72, 0
2, 100170, Note_on_c, 0, 69, 71
2, 100170, Note_on_c, 0, 45, 71
2, 100200, Note_on_c, 0, 45, 0
2, 100200, Note_on_c, 0, 41, 0
2, 100200, Note_on_c, 0, 86, 0
2, 100200, Note_on_c, 0, 77, 0
2, 100200, Note_on_c, 0, 69, 0
2, 100200, Note_on_c, 0, 74, 0
2, 100200, Note_on_c, 0, 63, 71
2, 100200, Note_on_c, 0, 41, 71
2, 100200, Note_on_c, 0, 84, 66
2, 100200, Note_on_c, 0, 77, 66
2, 100200, Note_on_c, 0, 72, 66
2, 100200, Note_on_c, 0, 57, 66
2, 100200, Note_on_c, 0, 51, 66
2, 100230, Note_on_c, 0, 63, 0
2, 100230, Note_on_c, 0, 60, 71
2, 100260, Note_on_c, 0, 60, 0
2, 100260, Note_on_c, 0, 41, 0
2, 100260, Note_on_c, 0, 57, 71
2, 100290, Note_on_c, 0, 57, 0
2, 100290, Note_on_c, 0, 51, 71
2, 100320, Note_on_c, 0, 51, 0
2, 100320, Note_on_c, 0, 57, 0
2, 100320, Note_on_c, 0, 72, 0
2, 100320, Note_on_c, 0, 77, 0
2, 100320, Note_on_c, 0, 84, 0
2, 100320, Note_on_c, 0, 51, 0
2, 100320, Note_on_c, 0, 53, 73
2, 100320, Note_on_c, 0, 34, 73
2, 100320, Note_on_c, 0, 82, 66
2, 100320, Note_on_c, 0, 74, 66
2, 100320, Note_on_c, 0, 70, 66
2, 100320, Note_on_c, 0, 46, 66
2, 100350, Note_on_c, 0, 34, 0
2, 100350, Note_on_c, 0, 53, 0
2, 100350, Note_on_c, 0, 55, 73
2, 100350, Note_on_c, 0, 43, 73
2, 100380, Note_on_c, 0, 43, 0
2, 100380, Note_on_c, 0, 55, 0
2, 100380, Note_on_c, 0, 58, 73
2, 100380, Note_on_c, 0, 46, 73
2, 100410, Note_on_c, 0, 58, 0
2, 100410, Note_on_c, 0, 46, 0
2, 100410, Note_on_c, 0, 54, 73
2, 100410, Note_on_c, 0, 42, 73
2, 100440, Note_on_c, 0, 42, 0
2, 100440, Note_on_c, 0, 46, 0
2, 100440, Note_on_c, 0, 70, 0
2, 100440, Note_on_c, 0, 74, 0
2, 100440, Note_on_c, 0, 54, 0
2, 100440, Note_on_c, 0, 82, 0
2, 100440, Note_on_c, 0, 55, 73
2, 100440, Note_on_c, 0, 43, 73
2, 100440, Note_on_c, 0, 82, 71
2, 100440, Note_on_c, 0, 74, 71
2, 100440, Note_on_c, 0, 70, 71
2, 100440, Note_on_c, 0, 55, 71
2, 100440, Note_on_c, 0, 50, 71
2, 100470, Note_on_c, 0, 55, 0
2, 100470, Note_on_c, 0, 58, 73
2, 100500, Note_on_c, 0, 58, 0
2, 100500, Note_on_c, 0, 43, 0
2, 100500, Note_on_c, 0, 62, 73
2, 100530, Note_on_c, 0, 62, 0
2, 100530, Note_on_c, 0, 67, 73
2, 100560, Note_on_c, 0, 67, 0
2, 100560, Note_on_c, 0, 82, 0
2, 100560, Note_on_c, 0, 70, 0
2, 100560, Note_on_c, 0, 74, 0
2, 100560, Note_on_c, 0, 50, 0
2, 100560, Note_on_c, 0, 55, 0
2, 100560, Note_on_c, 0, 55, 76
2, 100560, Note_on_c, 0, 36, 76
2, 100560, Note_on_c, 0, 81, 71
2, 100560, Note_on_c, 0, 69, 71
2, 100560, Note_on_c, 0, 48, 71
2, 100590, Note_on_c, 0, 36, 0
2, 100590, Note_on_c, 0, 55, 0
2, 100590, Note_on_c, 0, 60, 76
2, 100590, Note_on_c, 0, 48, 76
2, 100620, Note_on_c, 0, 60, 0
2, 100620, Note_on_c, 0, 48, 0
2, 100620, Note_on_c, 0, 63, 76
2, 100620, Note_on_c, 0, 51, 76
2, 100650, Note_on_c, 0, 51, 0
2, 100650, Note_on_c, 0, 63, 0
2, 100650, Note_on_c, 0, 59, 76
2, 100650, Note_on_c, 0, 47, 76
2, 100680, Note_on_c, 0, 47, 0
2, 100680, Note_on_c, 0, 48, 0
2, 100680, Note_on_c, 0, 69, 0
2, 100680, Note_on_c, 0, 81, 0
2, 100680, Note_on_c, 0, 59, 0
2, 100680, Note_on_c, 0, 60, 76
2, 100680, Note_on_c, 0, 48, 76
2, 100680, Note_on_c, 0, 84, 71
2, 100680, Note_on_c, 0, 72, 71
2, 100680, Note_on_c, 0, 57, 71
2, 100680, Note_on_c, 0, 51, 71
2, 100710, Note_on_c, 0, 60, 0
2, 100710, Note_on_c, 0, 63, 76
2, 100740, Note_on_c, 0, 63, 0
2, 100740, Note_on_c, 0, 48, 0
2, 100740, Note_on_c, 0, 67, 76
2, 100770, Note_on_c, 0, 67, 0
2, 100770, Note_on_c, 0, 72, 76
2, 100800, Note_on_c, 0, 72, 0
2, 100800, Note_on_c, 0, 57, 0
2, 100800, Note_on_c, 0, 72, 0
2, 100800, Note_on_c, 0, 51, 0
2, 100800, Note_on_c, 0, 84, 0
2, 100800, Note_on_c, 0, 62, 76
2, 100800, Note_on_c, 0, 50, 76
2, 100800, Note_on_c, 0, 79, 73
2, 100800, Note_on_c, 0, 74, 73
2, 100800, Note_on_c, 0, 67, 73
2, 100800, Note_on_c, 0, 50, 73
2, 100830, Note_on_c, 0, 50, 0
2, 100830, Note_on_c, 0, 62, 0
2, 100830, Note_on_c, 0, 67, 76
2, 100830, Note_on_c, 0, 55, 76
2, 100860, Note_on_c, 0, 55, 0
2, 100860, Note_on_c, 0, 67, 0
2, 100860, Note_on_c, 0, 70, 76
2, 100860, Note_on_c, 0, 58, 76
2, 100890, Note_on_c, 0, 58, 0
2, 100890, Note_on_c, 0, 70, 0
2, 100890, Note_on_c, 0, 66, 76
2, 100890, Note_on_c, 0, 54, 76
2, 100920, Note_on_c, 0, 54, 0
2, 100920, Note_on_c, 0, 50, 0
2, 100920, Note_on_c, 0, 66, 0
2, 100920, Note_on_c, 0, 67, 76
2, 100920, Note_on_c, 0, 55, 76
2, 100920, Note_on_c, 0, 62, 73
2, 100920, Note_on_c, 0, 58, 73
2, 100950, Note_on_c, 0, 67, 0
2, 100950, Note_on_c, 0, 70, 76
2, 100980, Note_on_c, 0, 70, 0
2, 100980, Note_on_c, 0, 55, 0
2, 100980, Note_on_c, 0, 74, 76
2, 101010, Note_on_c, 0, 74, 0
2, 101010, Note_on_c, 0, 79, 76
2, 101040, Note_on_c, 0, 79, 0
2, 101040, Note_on_c, 0, 74, 0
2, 101040, Note_on_c, 0, 67, 0
2, 101040, Note_on_c, 0, 79, 0
2, 101040, Note_on_c, 0, 62, 0
2, 101040, Note_on_c, 0, 58, 0
2, 101040, Note_on_c, 0, 69, 76
2, 101040, Note_on_c, 0, 57, 76
2, 101040, Note_on_c, 0, 78, 76
2, 101040, Note_on_c, 0, 74, 76
2, 101040, Note_on_c, 0, 66, 76
2, 101040, Note_on_c, 0, 50, 76
2, 101070, Note_on_c, 0, 57, 0
2, 101070, Note_on_c, 0, 69, 0
2, 101070, Note_on_c, 0, 74, 76
2, 101070, Note_on_c, 0, 62, 76
2, 101100, Note_on_c, 0, 62, 0
2, 101100, Note_on_c, 0, 74, 0
2, 101100, Note_on_c, 0, 78, 76
2, 101100, Note_on_c, 0, 66, 76
2, 101130, Note_on_c, 0, 66, 0
2, 101130, Note_on_c, 0, 78, 0
2, 101130, Note_on_c, 0, 73, 76
2, 101130, Note_on_c, 0, 61, 76
2, 101160, Note_on_c, 0, 61, 0
2, 101160, Note_on_c, 0, 50, 0
2, 101160, Note_on_c, 0, 73, 0
2, 101160, Note_on_c, 0, 74, 76
2, 101160, Note_on_c, 0, 62, 76
2, 101160, Note_on_c, 0, 62, 76
2, 101160, Note_on_c, 0, 57, 76
2, 101190, Note_on_c, 0, 74, 0
2, 101190, Note_on_c, 0, 78, 76
2, 101220, Note_on_c, 0, 62, 0
2, 101220, Note_on_c, 0, 78, 0
2, 101220, Note_on_c, 0, 81, 76
2, 101250, Note_on_c, 0, 81, 0
2, 101250, Note_on_c, 0, 86, 76
2, 101280, Note_on_c, 0, 86, 0
2, 101280, Note_on_c, 0, 66, 0
2, 101280, Note_on_c, 0, 62, 0
2, 101280, Note_on_c, 0, 74, 0
2, 101280, Note_on_c, 0, 78, 0
2, 101280, Note_on_c, 0, 57, 0
2, 101280, Note_on_c, 0, 58, 73
2, 101280, Note_on_c, 0, 79, 73
2, 101280, Note_on_c, 0, 74, 73
2, 101280, Note_on_c, 0, 67, 73
2, 101280, Note_on_c, 0, 46, 73
2, 101310, Note_on_c, 0, 67, 73
2, 101340, Note_on_c, 0, 46, 0
2, 101340, Note_on_c, 0, 67, 0
2, 101340, Note_on_c, 0, 58, 0
2, 101340, Note_on_c, 0, 74, 73
2, 101340, Note_on_c, 0, 62, 73
2, 101370, Note_on_c, 0, 74, 0
2, 101370, Note_on_c, 0, 70, 73
2, 101400, Note_on_c, 0, 70, 0
2, 101400, Note_on_c, 0, 62, 0
2, 101400, Note_on_c, 0, 67, 0
2, 101400, Note_on_c, 0, 79, 0
2, 101400, Note_on_c, 0, 74, 0
2, 101400, Note_on_c, 0, 79, 76
2, 101400, Note_on_c, 0, 67, 76
2, 101400, Note_on_c, 0, 86, 71
2, 101400, Note_on_c, 0, 79, 71
2, 101400, Note_on_c, 0, 74, 71
2, 101400, Note_on_c, 0, 62, 71
2, 101400, Note_on_c, 0, 50, 71
2, 101430, Note_on_c, 0, 79, 0
2, 101430, Note_on_c, 0, 74, 76
2, 101460, Note_on_c, 0, 62, 0
2, 101460, Note_on_c, 0, 74, 0
2, 101460, Note_on_c, 0, 67, 0
2, 101460, Note_on_c, 0, 50, 0
2, 101460, Note_on_c, 0, 82, 76
2, 101460, Note_on_c, 0, 70, 76
2, 101490, Note_on_c, 0, 82, 0
2, 101490, Note_on_c, 0, 79, 76
2, 101520, Note_on_c, 0, 79, 0
2, 101520, Note_on_c, 0, 70, 0
2, 101520, Note_on_c, 0, 86, 0
2, 101520, Note_on_c, 0, 74, 0
2, 101520, Note_on_c, 0, 79, 0
2, 101520, Note_on_c, 0, 86, 79
2, 101520, Note_on_c, 0, 71, 79
2, 101520, Note_on_c, 0, 87, 76
2, 101520, Note_on_c, 0, 79, 76
2, 101520, Note_on_c, 0, 75, 76
2, 101520, Note_on_c, 0, 59, 76
2, 101520, Note_on_c, 0, 47, 76
2, 101550, Note_on_c, 0, 86, 0
2, 101550, Note_on_c, 0, 83, 79
2, 101580, Note_on_c, 0, 83, 0
2, 101580, Note_on_c, 0, 47, 0
2, 101580, Note_on_c, 0, 71, 0
2, 101580, Note_on_c, 0, 59, 0
2, 101580, Note_on_c, 0, 89, 79
2, 101580, Note_on_c, 0, 74, 79
2, 101610, Note_on_c, 0, 89, 0
2, 101610, Note_on_c, 0, 86, 79
2, 101640, Note_on_c, 0, 86, 0
2, 101640, Note_on_c, 0, 74, 0
2, 101640, Note_on_c, 0, 87, 0
2, 101640, Note_on_c, 0, 75, 0
2, 101640, Note_on_c, 0, 79, 0
2, 101640, Note_on_c, 0, 95, 81
2, 101640, Note_on_c, 0, 79, 81
2, 101640, Note_on_c, 0, 86, 73
2, 101640, Note_on_c, 0, 79, 73
2, 101640, Note_on_c, 0, 74, 73
2, 101640, Note_on_c, 0, 55, 73
2, 101640, Note_on_c, 0, 43, 73
2, 101670, Note_on_c, 0, 95, 0
2, 101670, Note_on_c, 0, 91, 81
2, 101700, Note_on_c, 0, 91, 0
2, 101700, Note_on_c, 0, 43, 0
2, 101700, Note_on_c, 0, 79, 0
2, 101700, Note_on_c, 0, 55, 0
2, 101700, Note_on_c, 0, 89, 81
2, 101700, Note_on_c, 0, 83, 81
2, 101730, Note_on_c, 0, 89, 0
2, 101730, Note_on_c, 0, 86, 81
2, 101760, Note_on_c, 0, 86, 0
2, 101760, Note_on_c, 0, 83, 0
2, 101760, Note_on_c, 0, 86, 0
2, 101760, Note_on_c, 0, 74, 0
2, 101760, Note_on_c, 0, 79, 0
2, 101760, Note_on_c, 0, 88, 81
2, 101760, Note_on_c, 0, 84, 81
2, 101760, Note_on_c, 0, 84, 71
2, 101760, Note_on_c, 0, 79, 71
2, 101760, Note_on_c, 0, 72, 71
2, 101760, Note_on_c, 0, 52, 71
2, 101760, Note_on_c, 0, 40, 71
2, 101790, Note_on_c, 0, 84, 0
2, 101790, Note_on_c, 0, 88, 0
2, 101790, Note_on_c, 0, 91, 81
2, 101790, Note_on_c, 0, 82, 81
2, 101820, Note_on_c, 0, 82, 0
2, 101820, Note_on_c, 0, 52, 0
2, 101820, Note_on_c, 0, 40, 0
2, 101820, Note_on_c, 0, 91, 0
2, 101820, Note_on_c, 0, 94, 81
2, 101820, Note_on_c, 0, 79, 81
2, 101850, Note_on_c, 0, 94, 0
2, 101850, Note_on_c, 0, 79, 0
2, 101850, Note_on_c, 0, 91, 81
2, 101850, Note_on_c, 0, 76, 81
2, 101880, Note_on_c, 0, 76, 0
2, 101880, Note_on_c, 0, 84, 0
2, 101880, Note_on_c, 0, 79, 0
2, 101880, Note_on_c, 0, 72, 0
2, 101880, Note_on_c, 0, 91, 0
2, 101880, Note_on_c, 0, 88, 79
2, 101880, Note_on_c, 0, 72, 79
2, 101880, Note_on_c, 0, 84, 71
2, 101880, Note_on_c, 0, 76, 71
2, 101880, Note_on_c, 0, 72, 71
2, 101880, Note_on_c, 0, 48, 71
2, 101880, Note_on_c, 0, 36, 71
2, 101910, Note_on_c, 0, 88, 0
2, 101910, Note_on_c, 0, 84, 79
2, 101940, Note_on_c, 0, 48, 0
2, 101940, Note_on_c, 0, 36, 0
2, 101940, Note_on_c, 0, 84, 0
2, 101940, Note_on_c, 0, 82, 79
2, 101970, Note_on_c, 0, 82, 0
2, 101970, Note_on_c, 0, 79, 79
2, 102000, Note_on_c, 0, 79, 0
2, 102000, Note_on_c, 0, 76, 0
2, 102000, Note_on_c, 0, 72, 0
2, 102000, Note_on_c, 0, 84, 0
2, 102000, Note_on_c, 0, 72, 0
2, 102000, Note_on_c, 0, 75, 76
2, 102000, Note_on_c, 0, 65, 76
2, 102000, Note_on_c, 0, 86, 76
2, 102000, Note_on_c, 0, 77, 76
2, 102000, Note_on_c, 0, 74, 76
2, 102000, Note_on_c, 0, 45, 76
2, 102000, Note_on_c, 0, 33, 76
2, 102030, Note_on_c, 0, 65, 0
2, 102030, Note_on_c, 0, 75, 0
2, 102030, Note_on_c, 0, 81, 76
2, 102030, Note_on_c, 0, 63, 76
2, 102060, Note_on_c, 0, 63, 0
2, 102060, Note_on_c, 0, 45, 0
2, 102060, Note_on_c, 0, 33, 0
2, 102060, Note_on_c, 0, 81, 0
2, 102060, Note_on_c, 0, 84, 76
2, 102060, Note_on_c, 0, 60, 76
2, 102090, Note_on_c, 0, 60, 0
2, 102090, Note_on_c, 0, 84, 0
2, 102090, Note_on_c, 0, 81, 76
2, 102090, Note_on_c, 0, 57, 76
2, 102120, Note_on_c, 0, 57, 0
2, 102120, Note_on_c, 0, 86, 0
2, 102120, Note_on_c, 0, 77, 0
2, 102120, Note_on_c, 0, 74, 0
2, 102120, Note_on_c, 0, 81, 0
2, 102120, Note_on_c, 0, 75, 73
2, 102120, Note_on_c, 0, 53, 73
2, 102120, Note_on_c, 0, 84, 73
2, 102120, Note_on_c, 0, 75, 73
2, 102120, Note_on_c, 0, 72, 73
2, 102120, Note_on_c, 0, 41, 73
2, 102120, Note_on_c, 0, 29, 73
2, 102150, Note_on_c, 0, 75, 0
2, 102150, Note_on_c, 0, 72, 73
2, 102180, Note_on_c, 0, 41, 0
2, 102180, Note_on_c, 0, 72, 0
2, 102180, Note_on_c, 0, 53, 0
2, 102180, Note_on_c, 0, 29, 0
2, 102180, Note_on_c, 0, 69, 73
2, 102210, Note_on_c, 0, 69, 0
2, 102210, Note_on_c, 0, 63, 73
2, 102240, Note_on_c, 0, 63, 0
2, 102240, Note_on_c, 0, 75, 0
2, 102240, Note_on_c, 0, 72, 0
2, 102240, Note_on_c, 0, 84, 0
2, 102240, Note_on_c, 0, 62, 73
2, 102240, Note_on_c, 0, 50, 73
2, 102240, Note_on_c, 0, 46, 73
2, 102240, Note_on_c, 0, 82, 73
2, 102240, Note_on_c, 0, 77, 73
2, 102240, Note_on_c, 0, 70, 73
2, 102240, Note_on_c, 0, 50, 73
2, 102240, Note_on_c, 0, 38, 73
2, 102300, Note_on_c, 0, 38, 0
2, 102300, Note_on_c, 0, 62, 0
2, 102300, Note_on_c, 0, 77, 0
2, 102300, Note_on_c, 0, 50, 0
2, 102300, Note_on_c, 0, 46, 0
2, 102300, Note_on_c, 0, 82, 0
2, 102300, Note_on_c, 0, 70, 0
2, 102300, Note_on_c, 0, 50, 0
2, 102300, Note_on_c, 0, 58, 73
2, 102300, Note_on_c, 0, 50, 73
2, 102300, Note_on_c, 0, 46, 73
2, 102330, Note_on_c, 0, 58, 0
2, 102330, Note_on_c, 0, 54, 73
2, 102360, Note_on_c, 0, 54, 0
2, 102360, Note_on_c, 0, 46, 0
2, 102360, Note_on_c, 0, 50, 0
2, 102360, Note_on_c, 0, 55, 73
2, 102360, Note_on_c, 0, 50, 73
2, 102360, Note_on_c, 0, 46, 73
2, 102360, Note_on_c, 0, 82, 73
2, 102360, Note_on_c, 0, 70, 73
2, 102360, Note_on_c, 0, 46, 73
2, 102360, Note_on_c, 0, 34, 73
2, 102390, Note_on_c, 0, 55, 0
2, 102390, Note_on_c, 0, 58, 73
2, 102420, Note_on_c, 0, 58, 0
2, 102420, Note_on_c, 0, 34, 0
2, 102420, Note_on_c, 0, 46, 0
2, 102420, Note_on_c, 0, 50, 0
2, 102420, Note_on_c, 0, 46, 0
2, 102420, Note_on_c, 0, 62, 73
2, 102420, Note_on_c, 0, 50, 73
2, 102420, Note_on_c, 0, 46, 73
2, 102450, Note_on_c, 0, 62, 0
2, 102450, Note_on_c, 0, 57, 73
2, 102480, Note_on_c, 0, 57, 0
2, 102480, Note_on_c, 0, 46, 0
2, 102480, Note_on_c, 0, 70, 0
2, 102480, Note_on_c, 0, 82, 0
2, 102480, Note_on_c, 0, 50, 0
2, 102480, Note_on_c, 0, 58, 76
2, 102480, Note_on_c, 0, 55, 76
2, 102480, Note_on_c, 0, 50, 76
2, 102480, Note_on_c, 0, 46, 76
2, 102480, Note_on_c, 0, 81, 76
2, 102480, Note_on_c, 0, 69, 76
2, 102510, Note_on_c, 0, 58, 0
2, 102510, Note_on_c, 0, 62, 76
2, 102540, Note_on_c, 0, 62, 0
2, 102540, Note_on_c, 0, 50, 0
2, 102540, Note_on_c, 0, 55, 0
2, 102540, Note_on_c, 0, 46, 0
2, 102540, Note_on_c, 0, 67, 76
2, 102540, Note_on_c, 0, 55, 76
2, 102540, Note_on_c, 0, 50, 76
2, 102540, Note_on_c, 0, 46, 76
2, 102570, Note_on_c, 0, 67, 0
2, 102570, Note_on_c, 0, 61, 76
2, 102600, Note_on_c, 0, 61, 0
2, 102600, Note_on_c, 0, 46, 0
2, 102600, Note_on_c, 0, 55, 0
2, 102600, Note_on_c, 0, 81, 0
2, 102600, Note_on_c, 0, 69, 0
2, 102600, Note_on_c, 0, 50, 0
2, 102600, Note_on_c, 0, 62, 79
2, 102600, Note_on_c, 0, 55, 79
2, 102600, Note_on_c, 0, 50, 79
2, 102600, Note_on_c, 0, 46, 79
2, 102600, Note_on_c, 0, 79, 79
2, 102600, Note_on_c, 0, 67, 79
2, 102630, Note_on_c, 0, 62, 0
2, 102630, Note_on_c, 0, 67, 79
2, 102660, Note_on_c, 0, 50, 0
2, 102660, Note_on_c, 0, 46, 0
2, 102660, Note_on_c, 0, 55, 0
2, 102660, Note_on_c, 0, 67, 0
2, 102660, Note_on_c, 0, 70, 79
2, 102660, Note_on_c, 0, 55, 79
2, 102660, Note_on_c, 0, 50, 79
2, 102660, Note_on_c, 0, 46, 79
2, 102690, Note_on_c, 0, 70, 0
2, 102690, Note_on_c, 0, 66, 79
2, 102720, Note_on_c, 0, 66, 0
2, 102720, Note_on_c, 0, 46, 0
2, 102720, Note_on_c, 0, 55, 0
2, 102720, Note_on_c, 0, 79, 0
2, 102720, Note_on_c, 0, 67, 0
2, 102720, Note_on_c, 0, 50, 0
2, 102720, Note_on_c, 0, 67, 79
2, 102720, Note_on_c, 0, 55, 79
2, 102720, Note_on_c, 0, 50, 79
2, 102720, Note_on_c, 0, 46, 79
2, 102720, Note_on_c, 0, 86, 87
2, 102720, Note_on_c, 0, 74, 87
2, 102750, Note_on_c, 0, 67, 0
2, 102750, Note_on_c, 0, 70, 79
2, 102780, Note_on_c, 0, 70, 0
2, 102780, Note_on_c, 0, 50, 0
2, 102780, Note_on_c, 0, 55, 0
2, 102780, Note_on_c, 0, 46, 0
2, 102780, Note_on_c, 0, 74, 79
2, 102780, Note_on_c, 0, 55, 79
2, 102780, Note_on_c, 0, 50, 79
2, 102780, Note_on_c, 0, 46, 79
2, 102810, Note_on_c, 0, 74, 0
2, 102810, Note_on_c, 0, 69, 79
2, 102840, Note_on_c, 0, 69, 0
2, 102840, Note_on_c, 0, 46, 0
2, 102840, Note_on_c, 0, 55, 0
2, 102840, Note_on_c, 0, 50, 0
2, 102840, Note_on_c, 0, 70, 81
2, 102840, Note_on_c, 0, 55, 81
2, 102840, Note_on_c, 0, 50, 81
2, 102840, Note_on_c, 0, 46, 81
2, 102870, Note_on_c, 0, 70, 0
2, 102870, Note_on_c, 0, 74, 81
2, 102900, Note_on_c, 0, 74, 0
2, 102900, Note_on_c, 0, 50, 0
2, 102900, Note_on_c, 0, 55, 0
2, 102900, Note_on_c, 0, 46, 0
2, 102900, Note_on_c, 0, 79, 81
2, 102900, Note_on_c, 0, 55, 81
2, 102900, Note_on_c, 0, 50, 81
2, 102900, Note_on_c, 0, 46, 81
2, 102930, Note_on_c, 0, 79, 0
2, 102930, Note_on_c, 0, 82, 81
2, 102960, Note_on_c, 0, 82, 0
2, 102960, Note_on_c, 0, 46, 0
2, 102960, Note_on_c, 0, 55, 0
2, 102960, Note_on_c, 0, 74, 0
2, 102960, Note_on_c, 0, 86, 0
2, 102960, Note_on_c, 0, 50, 0
2, 102960, Note_on_c, 0, 86, 84
2, 102960, Note_on_c, 0, 55, 84
2, 102960, Note_on_c, 0, 50, 84
2, 102960, Note_on_c, 0, 46, 84
2, 102960, Note_on_c, 0, 79, 84
2, 102960, Note_on_c, 0, 67, 84
2, 103020, Note_on_c, 0, 46, 0
2, 103020, Note_on_c, 0, 50, 0
2, 103020, Note_on_c, 0, 86, 0
2, 103020, Note_on_c, 0, 55, 0
2, 103080, Note_on_c, 0, 91, 89
2, 103080, Note_on_c, 0, 86, 89
2, 103080, Note_on_c, 0, 82, 89
2, 103080, Note_on_c, 0, 58, 89
2, 103080, Note_on_c, 0, 55, 89
2, 103080, Note_on_c, 0, 50, 89
2, 103080, Note_on_c, 0, 46, 89
2, 103140, Note_on_c, 0, 46, 0
2, 103140, Note_on_c, 0, 86, 0
2, 103140, Note_on_c, 0, 50, 0
2, 103140, Note_on_c, 0, 82, 0
2, 103140, Note_on_c, 0, 55, 0
2, 103140, Note_on_c, 0, 91, 0
2, 103140, Note_on_c, 0, 58, 0
2, 103200, Note_on_c, 0, 79, 0
2, 103200, Note_on_c, 0, 67, 0
2, 103200, Channel_aftertouch_c, 0, 93
2, 103200, Note_on_c, 0, 55, 73
2, 103200, Note_on_c, 0, 48, 73
2, 103200, Note_on_c, 0, 36, 73
2, 103230, Note_on_c, 0, 55, 0
2, 103230, Note_on_c, 0, 60, 73
2, 103260, Note_on_c, 0, 60, 0
2, 103260, Note_on_c, 0, 36, 0
2, 103260, Note_on_c, 0, 48, 0
2, 103260, Note_on_c, 0, 63, 73
2, 103260, Note_on_c, 0, 55, 73
2, 103260, Note_on_c, 0, 51, 73
2, 103260, Note_on_c, 0, 48, 73
2, 103290, Note_on_c, 0, 63, 0
2, 103290, Note_on_c, 0, 59, 73
2, 103320, Note_on_c, 0, 59, 0
2, 103320, Note_on_c, 0, 48, 0
2, 103320, Note_on_c, 0, 51, 0
2, 103320, Note_on_c, 0, 55, 0
2, 103320, Note_on_c, 0, 60, 73
2, 103320, Note_on_c, 0, 55, 73
2, 103320, Note_on_c, 0, 51, 73
2, 103320, Note_on_c, 0, 48, 73
2, 103320, Note_on_c, 0, 75, 73
2, 103320, Note_on_c, 0, 43, 73
2, 103350, Note_on_c, 0, 60, 0
2, 103350, Note_on_c, 0, 63, 73
2, 103380, Note_on_c, 0, 63, 0
2, 103380, Note_on_c, 0, 51, 0
2, 103380, Note_on_c, 0, 55, 0
2, 103380, Note_on_c, 0, 48, 0
2, 103380, Note_on_c, 0, 67, 73
2, 103380, Note_on_c, 0, 55, 73
2, 103380, Note_on_c, 0, 51, 73
2, 103380, Note_on_c, 0, 48, 73
2, 103410, Note_on_c, 0, 67, 0
2, 103410, Note_on_c, 0, 62, 73
2, 103440, Note_on_c, 0, 62, 0
2, 103440, Note_on_c, 0, 48, 0
2, 103440, Note_on_c, 0, 55, 0
2, 103440, Note_on_c, 0, 75, 0
2, 103440, Note_on_c, 0, 43, 0
2, 103440, Note_on_c, 0, 51, 0
2, 103440, Note_on_c, 0, 63, 76
2, 103440, Note_on_c, 0, 55, 76
2, 103440, Note_on_c, 0, 51, 76
2, 103440, Note_on_c, 0, 48, 76
2, 103440, Note_on_c, 0, 74, 76
2, 103440, Note_on_c, 0, 41, 76
2, 103470, Note_on_c, 0, 63, 0
2, 103470, Note_on_c, 0, 67, 76
2, 103500, Note_on_c, 0, 67, 0
2, 103500, Note_on_c, 0, 51, 0
2, 103500, Note_on_c, 0, 55, 0
2, 103500, Note_on_c, 0, 48, 0
2, 103500, Note_on_c, 0, 72, 76
2, 103500, Note_on_c, 0, 55, 76
2, 103500, Note_on_c, 0, 51, 76
2, 103500, Note_on_c, 0, 48, 76
2, 103530, Note_on_c, 0, 72, 0
2, 103530, Note_on_c, 0, 66, 76
2, 103560, Note_on_c, 0, 66, 0
2, 103560, Note_on_c, 0, 48, 0
2, 103560, Note_on_c, 0, 55, 0
2, 103560, Note_on_c, 0, 74, 0
2, 103560, Note_on_c, 0, 41, 0
2, 103560, Note_on_c, 0, 51, 0
2, 103560, Note_on_c, 0, 67, 79
2, 103560, Note_on_c, 0, 55, 79
2, 103560, Note_on_c, 0, 51, 79
2, 103560, Note_on_c, 0, 48, 79
2, 103560, Note_on_c, 0, 72, 79
2, 103560, Note_on_c, 0, 39, 79
2, 103590, Note_on_c, 0, 67, 0
2, 103590, Note_on_c, 0, 72, 79
2, 103620, Note_on_c, 0, 72, 0
2, 103620, Note_on_c, 0, 55, 0
2, 103620, Note_on_c, 0, 48, 0
2, 103620, Note_on_c, 0, 51, 0
2, 103620, Note_on_c, 0, 75, 79
2, 103620, Note_on_c, 0, 55, 79
2, 103620, Note_on_c, 0, 51, 79
2, 103620, Note_on_c, 0, 48, 79
2, 103650, Note_on_c, 0, 75, 0
2, 103650, Note_on_c, 0, 71, 79
2, 103680, Note_on_c, 0, 71, 0
2, 103680, Note_on_c, 0, 48, 0
2, 103680, Note_on_c, 0, 55, 0
2, 103680, Note_on_c, 0, 72, 0
2, 103680, Note_on_c, 0, 39, 0
2, 103680, Note_on_c, 0, 51, 0
2, 103680, Note_on_c, 0, 72, 79
2, 103680, Note_on_c, 0, 55, 79
2, 103680, Note_on_c, 0, 51, 79
2, 103680, Note_on_c, 0, 48, 79
2, 103680, Note_on_c, 0, 79, 87
2, 103680, Note_on_c, 0, 67, 87
2, 103710, Note_on_c, 0, 72, 0
2, 103710, Note_on_c, 0, 75, 79
2, 103740, Note_on_c, 0, 75, 0
2, 103740, Note_on_c, 0, 51, 0
2, 103740, Note_on_c, 0, 55, 0
2, 103740, Note_on_c, 0, 48, 0
2, 103740, Note_on_c, 0, 79, 79
2, 103740, Note_on_c, 0, 55, 79
2, 103740, Note_on_c, 0, 51, 79
2, 103740, Note_on_c, 0, 48, 79
2, 103770, Note_on_c, 0, 79, 0
2, 103770, Note_on_c, 0, 74, 79
2, 103800, Note_on_c, 0, 74, 0
2, 103800, Note_on_c, 0, 48, 0
2, 103800, Note_on_c, 0, 55, 0
2, 103800, Note_on_c, 0, 51, 0
2, 103800, Note_on_c, 0, 75, 81
2, 103800, Note_on_c, 0, 55, 81
2, 103800, Note_on_c, 0, 51, 81
2, 103800, Note_on_c, 0, 48, 81
2, 103830, Note_on_c, 0, 75, 0
2, 103830, Note_on_c, 0, 79, 81
2, 103860, Note_on_c, 0, 79, 0
2, 103860, Note_on_c, 0, 51, 0
2, 103860, Note_on_c, 0, 55, 0
2, 103860, Note_on_c, 0, 48, 0
2, 103860, Note_on_c, 0, 84, 81
2, 103860, Note_on_c, 0, 55, 81
2, 103860, Note_on_c, 0, 51, 81
2, 103860, Note_on_c, 0, 48, 81
2, 103890, Note_on_c, 0, 84, 0
2, 103890, Note_on_c, 0, 87, 81
2, 103920, Note_on_c, 0, 87, 0
2, 103920, Note_on_c, 0, 48, 0
2, 103920, Note_on_c, 0, 55, 0
2, 103920, Note_on_c, 0, 79, 0
2, 103920, Note_on_c, 0, 67, 0
2, 103920, Note_on_c, 0, 51, 0
2, 103920, Note_on_c, 0, 91, 84
2, 103920, Note_on_c, 0, 55, 84
2, 103920, Note_on_c, 0, 51, 84
2, 103920, Note_on_c, 0, 48, 84
2, 103920, Note_on_c, 0, 72, 84
2, 103920, Note_on_c, 0, 60, 84
2, 103980, Note_on_c, 0, 48, 0
2, 103980, Note_on_c, 0, 51, 0
2, 103980, Note_on_c, 0, 91, 0
2, 103980, Note_on_c, 0, 55, 0
2, 104040, Note_on_c, 0, 91, 89
2, 104040, Note_on_c, 0, 87, 89
2, 104040, Note_on_c, 0, 84, 89
2, 104040, Note_on_c, 0, 60, 89
2, 104040, Note_on_c, 0, 55, 89
2, 104040, Note_on_c, 0, 51, 89
2, 104040, Note_on_c, 0, 48, 89
2, 104100, Note_on_c, 0, 48, 0
2, 104100, Note_on_c, 0, 87, 0
2, 104100, Note_on_c, 0, 51, 0
2, 104100, Note_on_c, 0, 60, 0
2, 104100, Note_on_c, 0, 55, 0
2, 104100, Note_on_c, 0, 91, 0
2, 104100, Note_on_c, 0, 84, 0
2, 104160, Note_on_c, 0, 72, 0
2, 104160, Note_on_c, 0, 60, 0
2, 104160, Channel_aftertouch_c, 0, 101
2, 104160, Note_on_c, 0, 51, 81
2, 104160, Note_on_c, 0, 49, 81
2, 104160, Note_on_c, 0, 46, 81
2, 104160, Note_on_c, 0, 39, 81
2, 104190, Note_on_c, 0, 51, 0
2, 104190, Note_on_c, 0, 55, 81
2, 104220, Note_on_c, 0, 55, 0
2, 104220, Note_on_c, 0, 39, 0
2, 104220, Note_on_c, 0, 46, 0
2, 104220, Note_on_c, 0, 49, 0
2, 104220, Note_on_c, 0, 58, 81
2, 104220, Note_on_c, 0, 49, 81
2, 104220, Note_on_c, 0, 46, 81
2, 104220, Note_on_c, 0, 39, 81
2, 104250, Note_on_c, 0, 58, 0
2, 104250, Note_on_c, 0, 54, 81
2, 104280, Note_on_c, 0, 54, 0
2, 104280, Note_on_c, 0, 39, 0
2, 104280, Note_on_c, 0, 46, 0
2, 104280, Note_on_c, 0, 49, 0
2, 104280, Note_on_c, 0, 55, 82
2, 104280, Note_on_c, 0, 49, 82
2, 104280, Note_on_c, 0, 46, 82
2, 104280, Note_on_c, 0, 39, 82
2, 104280, Note_on_c, 0, 55, 82
2, 104280, Note_on_c, 0, 43, 82
2, 104310, Note_on_c, 0, 55, 0
2, 104310, Note_on_c, 0, 58, 82
2, 104340, Note_on_c, 0, 58, 0
2, 104340, Note_on_c, 0, 46, 0
2, 104340, Note_on_c, 0, 49, 0
2, 104340, Note_on_c, 0, 39, 0
2, 104340, Note_on_c, 0, 61, 82
2, 104340, Note_on_c, 0, 49, 82
2, 104340, Note_on_c, 0, 46, 82
2, 104340, Note_on_c, 0, 39, 82
2, 104370, Note_on_c, 0, 61, 0
2, 104370, Note_on_c, 0, 57, 82
2, 104400, Note_on_c, 0, 57, 0
2, 104400, Note_on_c, 0, 39, 0
2, 104400, Note_on_c, 0, 49, 0
2, 104400, Note_on_c, 0, 55, 0
2, 104400, Note_on_c, 0, 43, 0
2, 104400, Note_on_c, 0, 46, 0
2, 104400, Note_on_c, 0, 58, 84
2, 104400, Note_on_c, 0, 49, 84
2, 104400, Note_on_c, 0, 46, 84
2, 104400, Note_on_c, 0, 39, 84
2, 104400, Note_on_c, 0, 53, 84
2, 104400, Note_on_c, 0, 41, 84
2, 104430, Note_on_c, 0, 58, 0
2, 104430, Note_on_c, 0, 61, 84
2, 104460, Note_on_c, 0, 61, 0
2, 104460, Note_on_c, 0, 46, 0
2, 104460, Note_on_c, 0, 49, 0
2, 104460, Note_on_c, 0, 39, 0
2, 104460, Note_on_c, 0, 67, 84
2, 104460, Note_on_c, 0, 49, 84
2, 104460, Note_on_c, 0, 46, 84
2, 104460, Note_on_c, 0, 39, 84
2, 104490, Note_on_c, 0, 67, 0
2, 104490, Note_on_c, 0, 60, 84
2, 104520, Note_on_c, 0, 60, 0
2, 104520, Note_on_c, 0, 39, 0
2, 104520, Note_on_c, 0, 49, 0
2, 104520, Note_on_c, 0, 53, 0
2, 104520, Note_on_c, 0, 41, 0
2, 104520, Note_on_c, 0, 46, 0
2, 104520, Note_on_c, 0, 61, 85
2, 104520, Note_on_c, 0, 49, 85
2, 104520, Note_on_c, 0, 46, 85
2, 104520, Note_on_c, 0, 39, 85
2, 104520, Note_on_c, 0, 51, 85
2, 104520, Note_on_c, 0, 39, 85
2, 104550, Note_on_c, 0, 61, 0
2, 104550, Note_on_c, 0, 67, 85
2, 104580, Note_on_c, 0, 67, 0
2, 104580, Note_on_c, 0, 46, 0
2, 104580, Note_on_c, 0, 49, 0
2, 104580, Note_on_c, 0, 39, 0
2, 104580, Note_on_c, 0, 70, 85
2, 104580, Note_on_c, 0, 49, 85
2, 104580, Note_on_c, 0, 46, 85
2, 104580, Note_on_c, 0, 39, 85
2, 104610, Note_on_c, 0, 70, 0
2, 104610, Note_on_c, 0, 66, 85
2, 104640, Note_on_c, 0, 66, 0
2, 104640, Note_on_c, 0, 39, 0
2, 104640, Note_on_c, 0, 49, 0
2, 104640, Note_on_c, 0, 51, 0
2, 104640, Note_on_c, 0, 39, 0
2, 104640, Note_on_c, 0, 46, 0
2, 104640, Note_on_c, 0, 67, 85
2, 104640, Note_on_c, 0, 49, 85
2, 104640, Note_on_c, 0, 46, 85
2, 104640, Note_on_c, 0, 39, 85
2, 104640, Note_on_c, 0, 58, 91
2, 104640, Note_on_c, 0, 46, 91
2, 104670, Note_on_c, 0, 67, 0
2, 104670, Note_on_c, 0, 70, 85
2, 104700, Note_on_c, 0, 70, 0
2, 104700, Note_on_c, 0, 46, 0
2, 104700, Note_on_c, 0, 49, 0
2, 104700, Note_on_c, 0, 39, 0
2, 104700, Note_on_c, 0, 73, 85
2, 104700, Note_on_c, 0, 49, 85
2, 104700, Note_on_c, 0, 46, 85
2, 104700, Note_on_c, 0, 39, 85
2, 104730, Note_on_c, 0, 73, 0
2, 104730, Note_on_c, 0, 75, 85
2, 104760, Note_on_c, 0, 75, 0
2, 104760, Note_on_c, 0, 39, 0
2, 104760, Note_on_c, 0, 49, 0
2, 104760, Note_on_c, 0, 46, 0
2, 104760, Note_on_c, 0, 79, 86
2, 104760, Note_on_c, 0, 49, 86
2, 104760, Note_on_c, 0, 46, 86
2, 104760, Note_on_c, 0, 39, 86
2, 104790, Note_on_c, 0, 79, 0
2, 104790, Note_on_c, 0, 82, 86
2, 104820, Note_on_c, 0, 82, 0
2, 104820, Note_on_c, 0, 39, 0
2, 104820, Note_on_c, 0, 49, 0
2, 104820, Note_on_c, 0, 46, 0
2, 104820, Note_on_c, 0, 85, 87
2, 104820, Note_on_c, 0, 49, 87
2, 104820, Note_on_c, 0, 46, 87
2, 104820, Note_on_c, 0, 39, 87
2, 104850, Note_on_c, 0, 85, 0
2, 104850, Note_on_c, 0, 87, 87
2, 104880, Note_on_c, 0, 87, 0
2, 104880, Note_on_c, 0, 39, 0
2, 104880, Note_on_c, 0, 49, 0
2, 104880, Note_on_c, 0, 46, 0
2, 104880, Note_on_c, 0, 58, 0
2, 104880, Note_on_c, 0, 46, 0
2, 104880, Note_on_c, 0, 91, 89
2, 104880, Note_on_c, 0, 49, 89
2, 104880, Note_on_c, 0, 46, 89
2, 104880, Note_on_c, 0, 39, 89
2, 104880, Note_on_c, 0, 51, 82
2, 104880, Note_on_c, 0, 39, 82
2, 104940, Note_on_c, 0, 39, 0
2, 104940, Note_on_c, 0, 46, 0
2, 104940, Note_on_c, 0, 91, 0
2, 104940, Note_on_c, 0, 49, 0
2, 105000, Note_on_c, 0, 91, 96
2, 105000, Note_on_c, 0, 85, 96
2, 105000, Note_on_c, 0, 82, 96
2, 105000, Note_on_c, 0, 79, 96
2, 105000, Note_on_c, 0, 49, 96
2, 105000, Note_on_c, 0, 46, 96
2, 105000, Note_on_c, 0, 39, 96
2, 105060, Note_on_c, 0, 46, 0
2, 105060, Note_on_c, 0, 49, 0
2, 105060, Note_on_c, 0, 85, 0
2, 105060, Note_on_c, 0, 82, 0
2, 105060, Note_on_c, 0, 39, 0
2, 105060, Note_on_c, 0, 91, 0
2, 105060, Note_on_c, 0, 79, 0
2, 105120, Note_on_c, 0, 39, 0
2, 105120, Note_on_c, 0, 51, 0
2, 105120, Note_on_c, 0, 62, 87
2, 105120, Note_on_c, 0, 38, 87
2, 105120, Note_on_c, 0, 79, 87
2, 105120, Note_on_c, 0, 74, 87
2, 105120, Note_on_c, 0, 70, 87
2, 105120, Note_on_c, 0, 67, 87
2, 105120, Note_on_c, 0, 50, 87
2, 105120, Note_on_c, 0, 38, 87
2, 105150, Note_on_c, 0, 38, 0
2, 105150, Note_on_c, 0, 62, 0
2, 105150, Note_on_c, 0, 67, 87
2, 105150, Note_on_c, 0, 43, 87
2, 105180, Note_on_c, 0, 43, 0
2, 105180, Note_on_c, 0, 67, 0
2, 105180, Note_on_c, 0, 70, 87
2, 105180, Note_on_c, 0, 46, 87
2, 105210, Note_on_c, 0, 46, 0
2, 105210, Note_on_c, 0, 70, 0
2, 105210, Note_on_c, 0, 73, 87
2, 105210, Note_on_c, 0, 49, 87
2, 105240, Note_on_c, 0, 49, 0
2, 105240, Note_on_c, 0, 50, 0
2, 105240, Note_on_c, 0, 70, 0
2, 105240, Note_on_c, 0, 79, 0
2, 105240, Note_on_c, 0, 74, 0
2, 105240, Note_on_c, 0, 38, 0
2, 105240, Note_on_c, 0, 67, 0
2, 105240, Note_on_c, 0, 73, 0
2, 105240, Note_on_c, 0, 74, 87
2, 105240, Note_on_c, 0, 50, 87
2, 105270, Note_on_c, 0, 50, 0
2, 105270, Note_on_c, 0, 74, 0
2, 105270, Note_on_c, 0, 79, 87
2, 105270, Note_on_c, 0, 55, 87
2, 105300, Note_on_c, 0, 55, 0
2, 105300, Note_on_c, 0, 79, 0
2, 105300, Note_on_c, 0, 82, 87
2, 105300, Note_on_c, 0, 58, 87
2, 105330, Note_on_c, 0, 58, 0
2, 105330, Note_on_c, 0, 82, 0
2, 105330, Note_on_c, 0, 85, 87
2, 105330, Note_on_c, 0, 61, 87
2, 105360, Note_on_c, 0, 61, 0
2, 105360, Note_on_c, 0, 85, 0
2, 105360, Note_on_c, 0, 86, 85
2, 105360, Note_on_c, 0, 62, 85
2, 105390, Note_on_c, 0, 62, 0
2, 105390, Note_on_c, 0, 86, 0
2, 105390, Note_on_c, 0, 91, 85
2, 105390, Note_on_c, 0, 67, 85
2, 105420, Note_on_c, 0, 67, 0
2, 105420, Note_on_c, 0, 91, 0
2, 105420, Note_on_c, 0, 94, 85
2, 105420, Note_on_c, 0, 70, 85
2, 105450, Note_on_c, 0, 70, 0
2, 105450, Note_on_c, 0, 94, 0
2, 105450, Note_on_c, 0, 97, 85
2, 105450, Note_on_c, 0, 73, 85
2, 105480, Note_on_c, 0, 73, 0
2, 105480, Note_on_c, 0, 97, 0
2, 105480, Note_on_c, 0, 98, 85
2, 105480, Note_on_c, 0, 74, 85
2, 105510, Note_on_c, 0, 74, 0
2, 105510, Note_on_c, 0, 98, 0
2, 105510, Note_on_c, 0, 93, 85
2, 105510, Note_on_c, 0, 69, 85
2, 105540, Note_on_c, 0, 69, 0
2, 105540, Note_on_c, 0, 93, 0
2, 105540, Note_on_c, 0, 94, 85
2, 105540, Note_on_c, 0, 70, 85
2, 105570, Note_on_c, 0, 70, 0
2, 105570, Note_on_c, 0, 94, 0
2, 105570, Note_on_c, 0, 90, 85
2, 105570, Note_on_c, 0, 66, 85
2, 105600, Note_on_c, 0, 66, 0
2, 105600, Note_on_c, 0, 90, 0
2, 105600, Note_on_c, 0, 91, 82
2, 105600, Note_on_c, 0, 67, 82
2, 105630, Note_on_c, 0, 67, 0
2, 105630, Note_on_c, 0, 91, 0
2, 105630, Note_on_c, 0, 86, 82
2, 105630, Note_on_c, 0, 62, 82
2, 105660, Note_on_c, 0, 62, 0
2, 105660, Note_on_c, 0, 86, 0
2, 105660, Note_on_c, 0, 87, 82
2, 105660, Note_on_c, 0, 63, 82
2, 105690, Note_on_c, 0, 63, 0
2, 105690, Note_on_c, 0, 87, 0
2, 105690, Note_on_c, 0, 85, 82
2, 105690, Note_on_c, 0, 61, 82
2, 105720, Note_on_c, 0, 61, 0
2, 105720, Note_on_c, 0, 85, 0
2, 105720, Note_on_c, 0, 86, 82
2, 105720, Note_on_c, 0, 62, 82
2, 105750, Note_on_c, 0, 62, 0
2, 105750, Note_on_c, 0, 86, 0
2, 105750, Note_on_c, 0, 81, 82
2, 105750, Note_on_c, 0, 57, 82
2, 105780, Note_on_c, 0, 57, 0
2, 105780, Note_on_c, 0, 81, 0
2, 105780, Note_on_c, 0, 82, 82
2, 105780, Note_on_c, 0, 58, 82
2, 105810, Note_on_c, 0, 58, 0
2, 105810, Note_on_c, 0, 82, 0
2, 105810, Note_on_c, 0, 78, 82
2, 105810, Note_on_c, 0, 54, 82
2, 105840, Note_on_c, 0, 54, 0
2, 105840, Note_on_c, 0, 78, 0
2, 105840, Note_on_c, 0, 79, 80
2, 105840, Note_on_c, 0, 55, 80
2, 105870, Note_on_c, 0, 55, 0
2, 105870, Note_on_c, 0, 79, 0
2, 105870, Note_on_c, 0, 74, 80
2, 105870, Note_on_c, 0, 50, 80
2, 105900, Note_on_c, 0, 50, 0
2, 105900, Note_on_c, 0, 74, 0
2, 105900, Note_on_c, 0, 75, 80
2, 105900, Note_on_c, 0, 51, 80
2, 105930, Note_on_c, 0, 51, 0
2, 105930, Note_on_c, 0, 75, 0
2, 105930, Note_on_c, 0, 73, 80
2, 105930, Note_on_c, 0, 49, 80
2, 105960, Note_on_c, 0, 49, 0
2, 105960, Note_on_c, 0, 73, 0
2, 105960, Note_on_c, 0, 74, 80
2, 105960, Note_on_c, 0, 50, 80
2, 105990, Note_on_c, 0, 50, 0
2, 105990, Note_on_c, 0, 74, 0
2, 105990, Note_on_c, 0, 69, 80
2, 105990, Note_on_c, 0, 45, 80
2, 106020, Note_on_c, 0, 45, 0
2, 106020, Note_on_c, 0, 69, 0
2, 106020, Note_on_c, 0, 70, 80
2, 106020, Note_on_c, 0, 46, 80
2, 106050, Note_on_c, 0, 46, 0
2, 106050, Note_on_c, 0, 70, 0
2, 106050, Note_on_c, 0, 66, 80
2, 106050, Note_on_c, 0, 42, 80
2, 106080, Note_on_c, 0, 42, 0
2, 106080, Note_on_c, 0, 66, 0
2, 106080, Note_on_c, 0, 67, 87
2, 106080, Note_on_c, 0, 63, 87
2, 106110, Note_on_c, 0, 63, 0
2, 106110, Note_on_c, 0, 67, 0
2, 106110, Note_on_c, 0, 62, 87
2, 106110, Note_on_c, 0, 58, 87
2, 106140, Note_on_c, 0, 58, 0
2, 106140, Note_on_c, 0, 62, 0
2, 106140, Note_on_c, 0, 67, 87
2, 106140, Note_on_c, 0, 63, 87
2, 106170, Note_on_c, 0, 63, 0
2, 106170, Note_on_c, 0, 67, 0
2, 106170, Note_on_c, 0, 70, 87
2, 106170, Note_on_c, 0, 67, 87
2, 106200, Note_on_c, 0, 67, 0
2, 106200, Note_on_c, 0, 70, 0
2, 106200, Note_on_c, 0, 74, 87
2, 106200, Note_on_c, 0, 70, 87
2, 106230, Note_on_c, 0, 70, 0
2, 106230, Note_on_c, 0, 74, 0
2, 106230, Note_on_c, 0, 70, 87
2, 106230, Note_on_c, 0, 67, 87
2, 106260, Note_on_c, 0, 67, 0
2, 106260, Note_on_c, 0, 70, 0
2, 106260, Note_on_c, 0, 69, 87
2, 106260, Note_on_c, 0, 65, 87
2, 106290, Note_on_c, 0, 65, 0
2, 106290, Note_on_c, 0, 69, 0
2, 106290, Note_on_c, 0, 67, 87
2, 106290, Note_on_c, 0, 63, 87
2, 106320, Note_on_c, 0, 63, 0
2, 106320, Note_on_c, 0, 67, 0
2, 106320, Note_on_c, 0, 79, 87
2, 106320, Note_on_c, 0, 75, 87
2, 106350, Note_on_c, 0, 75, 0
2, 106350, Note_on_c, 0, 79, 0
2, 106350, Note_on_c, 0, 74, 87
2, 106350, Note_on_c, 0, 70, 87
2, 106380, Note_on_c, 0, 70, 0
2, 106380, Note_on_c, 0, 74, 0
2, 106380, Note_on_c, 0, 70, 87
2, 106380, Note_on_c, 0, 67, 87
2, 106410, Note_on_c, 0, 67, 0
2, 106410, Note_on_c, 0, 70, 0
2, 106410, Note_on_c, 0, 67, 87
2, 106410, Note_on_c, 0, 63, 87
2, 106440, Note_on_c, 0, 63, 0
2, 106440, Note_on_c, 0, 67, 0
2, 106440, Note_on_c, 0, 82, 87
2, 106440, Note_on_c, 0, 79, 87
2, 106470, Note_on_c, 0, 79, 0
2, 106470, Note_on_c, 0, 82, 0
2, 106470, Note_on_c, 0, 81, 87
2, 106470, Note_on_c, 0, 77, 87
2, 106500, Note_on_c, 0, 77, 0
2, 106500, Note_on_c, 0, 81, 0
2, 106500, Note_on_c, 0, 79, 87
2, 106500, Note_on_c, 0, 75, 87
2, 106530, Note_on_c, 0, 75, 0
2, 106530, Note_on_c, 0, 79, 0
2, 106530, Note_on_c, 0, 78, 87
2, 106530, Note_on_c, 0, 75, 87
2, 106560, Note_on_c, 0, 75, 0
2, 106560, Note_on_c, 0, 78, 0
2, 106560, Note_on_c, 0, 79, 87
2, 106560, Note_on_c, 0, 75, 87
2, 106590, Note_on_c, 0, 75, 0
2, 106590, Note_on_c, 0, 79, 0
2, 106590, Note_on_c, 0, 74, 87
2, 106590, Note_on_c, 0, 70, 87
2, 106620, Note_on_c, 0, 70, 0
2, 106620, Note_on_c, 0, 74, 0
2, 106620, Note_on_c, 0, 79, 87
2, 106620, Note_on_c, 0, 75, 87
2, 106650, Note_on_c, 0, 75, 0
2, 106650, Note_on_c, 0, 79, 0
2, 106650, Note_on_c, 0, 82, 87
2, 106650, Note_on_c, 0, 79, 87
2, 106680, Note_on_c, 0, 79, 0
2, 106680, Note_on_c, 0, 82, 0
2, 106680, Note_on_c, 0, 86, 87
2, 106680, Note_on_c, 0, 82, 87
2, 106710, Note_on_c, 0, 82, 0
2, 106710, Note_on_c, 0, 86, 0
2, 106710, Note_on_c, 0, 82, 87
2, 106710, Note_on_c, 0, 79, 87
2, 106740, Note_on_c, 0, 79, 0
2, 106740, Note_on_c, 0, 82, 0
2, 106740, Note_on_c, 0, 79, 87
2, 106740, Note_on_c, 0, 75, 87
2, 106770, Note_on_c, 0, 75, 0
2, 106770, Note_on_c, 0, 79, 0
2, 106770, Note_on_c, 0, 74, 87
2, 106770, Note_on_c, 0, 70, 87
2, 106800, Note_on_c, 0, 70, 0
2, 106800, Note_on_c, 0, 74, 0
2, 106800, Note_on_c, 0, 86, 87
2, 106800, Note_on_c, 0, 82, 87
2, 106830, Note_on_c, 0, 82, 0
2, 106830, Note_on_c, 0, 86, 0
2, 106830, Note_on_c, 0, 82, 87
2, 106830, Note_on_c, 0, 79, 87
2, 106860, Note_on_c, 0, 79, 0
2, 106860, Note_on_c, 0, 82, 0
2, 106860, Note_on_c, 0, 81, 87
2, 106860, Note_on_c, 0, 77, 87
2, 106890, Note_on_c, 0, 77, 0
2, 106890, Note_on_c, 0, 81, 0
2, 106890, Note_on_c, 0, 79, 87
2, 106890, Note_on_c, 0, 75, 87
2, 106920, Note_on_c, 0, 75, 0
2, 106920, Note_on_c, 0, 79, 0
2, 106920, Note_on_c, 0, 91, 87
2, 106920, Note_on_c, 0, 87, 87
2, 106950, Note_on_c, 0, 87, 0
2, 106950, Note_on_c, 0, 91, 0
2, 106950, Note_on_c, 0, 86, 87
2, 106950, Note_on_c, 0, 82, 87
2, 106980, Note_on_c, 0, 82, 0
2, 106980, Note_on_c, 0, 86, 0
2, 106980, Note_on_c, 0, 82, 87
2, 106980, Note_on_c, 0, 79, 87
2, 107010, Note_on_c, 0, 79, 0
2, 107010, Note_on_c, 0, 82, 0
2, 107010, Note_on_c, 0, 79, 87
2, 107010, Note_on_c, 0, 75, 87
2, 107040, Note_on_c, 0, 75, 0
2, 107040, Note_on_c, 0, 79, 0
2, 107040, Note_on_c, 0, 94, 87
2, 107040, Note_on_c, 0, 70, 87
2, 107070, Note_on_c, 0, 70, 0
2, 107070, Note_on_c, 0, 94, 0
2, 107070, Note_on_c, 0, 93, 87
2, 107070, Note_on_c, 0, 69, 87
2, 107100, Note_on_c, 0, 69, 0
2, 107100, Note_on_c, 0, 93, 0
2, 107100, Note_on_c, 0, 91, 87
2, 107100, Note_on_c, 0, 67, 87
2, 107130, Note_on_c, 0, 67, 0
2, 107130, Note_on_c, 0, 91, 0
2, 107130, Note_on_c, 0, 90, 87
2, 107130, Note_on_c, 0, 66, 87
2, 107160, Note_on_c, 0, 66, 0
2, 107160, Note_on_c, 0, 90, 0
2, 107160, Note_on_c, 0, 91, 87
2, 107160, Note_on_c, 0, 67, 87
2, 107190, Note_on_c, 0, 67, 0
2, 107190, Note_on_c, 0, 91, 0
2, 107190, Note_on_c, 0, 86, 87
2, 107190, Note_on_c, 0, 62, 87
2, 107220, Note_on_c, 0, 62, 0
2, 107220, Note_on_c, 0, 86, 0
2, 107220, Note_on_c, 0, 91, 87
2, 107220, Note_on_c, 0, 67, 87
2, 107250, Note_on_c, 0, 67, 0
2, 107250, Note_on_c, 0, 91, 0
2, 107250, Note_on_c, 0, 94, 87
2, 107250, Note_on_c, 0, 70, 87
2, 107280, Note_on_c, 0, 70, 0
2, 107280, Note_on_c, 0, 94, 0
2, 107280, Note_on_c, 0, 98, 100
2, 107280, Note_on_c, 0, 74, 100
2, 107310, Note_on_c, 0, 74, 0
2, 107310, Note_on_c, 0, 98, 0
2, 107310, Note_on_c, 0, 94, 87
2, 107310, Note_on_c, 0, 70, 87
2, 107340, Note_on_c, 0, 70, 0
2, 107340, Note_on_c, 0, 94, 0
2, 107340, Note_on_c, 0, 91, 87
2, 107340, Note_on_c, 0, 67, 87
2, 107370, Note_on_c, 0, 67, 0
2, 107370, Note_on_c, 0, 91, 0
2, 107370, Note_on_c, 0, 86, 87
2, 107370, Note_on_c, 0, 62, 87
2, 107400, Note_on_c, 0, 62, 0
2, 107400, Note_on_c, 0, 86, 0
2, 107400, Note_on_c, 0, 82, 87
2, 107400, Note_on_c, 0, 58, 87
2, 107430, Note_on_c, 0, 58, 0
2, 107430, Note_on_c, 0, 82, 0
2, 107430, Note_on_c, 0, 74, 87
2, 107430, Note_on_c, 0, 50, 87
2, 107460, Note_on_c, 0, 50, 0
2, 107460, Note_on_c, 0, 74, 0
2, 107460, Note_on_c, 0, 79, 87
2, 107460, Note_on_c, 0, 55, 87
2, 107490, Note_on_c, 0, 55, 0
2, 107490, Note_on_c, 0, 79, 0
2, 107490, Note_on_c, 0, 82, 87
2, 107490, Note_on_c, 0, 58, 87
2, 107520, Note_on_c, 0, 58, 0
2, 107520, Note_on_c, 0, 82, 0
2, 107520, Note_on_c, 0, 86, 100
2, 107520, Note_on_c, 0, 62, 100
2, 107550, Note_on_c, 0, 62, 0
2, 107550, Note_on_c, 0, 86, 0
2, 107550, Note_on_c, 0, 82, 87
2, 107550, Note_on_c, 0, 58, 87
2, 107580, Note_on_c, 0, 58, 0
2, 107580, Note_on_c, 0, 82, 0
2, 107580, Note_on_c, 0, 79, 87
2, 107580, Note_on_c, 0, 55, 87
2, 107610, Note_on_c, 0, 55, 0
2, 107610, Note_on_c, 0, 79, 0
2, 107610, Note_on_c, 0, 74, 87
2, 107610, Note_on_c, 0, 50, 87
2, 107640, Note_on_c, 0, 50, 0
2, 107640, Note_on_c, 0, 74, 0
2, 107640, Note_on_c, 0, 70, 87
2, 107640, Note_on_c, 0, 46, 87
2, 107670, Note_on_c, 0, 46, 0
2, 107670, Note_on_c, 0, 70, 0
2, 107670, Note_on_c, 0, 67, 87
2, 107670, Note_on_c, 0, 43, 87
2, 107700, Note_on_c, 0, 43, 0
2, 107700, Note_on_c, 0, 67, 0
2, 107700, Note_on_c, 0, 62, 87
2, 107700, Note_on_c, 0, 38, 87
2, 107730, Note_on_c, 0, 38, 0
2, 107730, Note_on_c, 0, 62, 0
2, 107730, Note_on_c, 0, 67, 87
2, 107730, Note_on_c, 0, 43, 87
2, 107760, Note_on_c, 0, 43, 0
2, 107760, Note_on_c, 0, 67, 0
2, 107760, Note_on_c, 0, 70, 87
2, 107760, Note_on_c, 0, 46, 87
2, 107790, Note_on_c, 0, 46, 0
2, 107790, Note_on_c, 0, 70, 0
2, 107790, Note_on_c, 0, 74, 87
2, 107790, Note_on_c, 0, 50, 87
2, 107820, Note_on_c, 0, 50, 0
2, 107820, Note_on_c, 0, 74, 0
2, 107820, Note_on_c, 0, 79, 87
2, 107820, Note_on_c, 0, 55, 87
2, 107850, Note_on_c, 0, 55, 0
2, 107850, Note_on_c, 0, 79, 0
2, 107850, Note_on_c, 0, 82, 87
2, 107850, Note_on_c, 0, 58, 87
2, 107880, Note_on_c, 0, 58, 0
2, 107880, Note_on_c, 0, 82, 0
2, 107880, Note_on_c, 0, 86, 87
2, 107880, Note_on_c, 0, 62, 87
2, 107940, Note_on_c, 0, 62, 0
2, 107940, Note_on_c, 0, 86, 0
2, 107940, Note_on_c, 0, 79, 87
2, 108000, Note_on_c, 0, 79, 0
2, 108000, Note_on_c, 0, 81, 81
2, 108000, Note_on_c, 0, 79, 81
2, 108000, Note_on_c, 0, 48, 81
2, 108000, Note_on_c, 0, 36, 81
2, 108000, Note_on_c, 0, 60, 81
2, 108000, Note_on_c, 0, 48, 81
2, 108000, Note_on_c, 0, 36, 81
2, 108030, Note_on_c, 0, 79, 0
2, 108030, Note_on_c, 0, 81, 0
2, 108030, Note_on_c, 0, 82, 81
2, 108060, Note_on_c, 0, 82, 0
2, 108060, Note_on_c, 0, 81, 81
2, 108060, Note_on_c, 0, 79, 81
2, 108090, Note_on_c, 0, 79, 0
2, 108090, Note_on_c, 0, 81, 0
2, 108090, Note_on_c, 0, 82, 81
2, 108120, Note_on_c, 0, 82, 0
2, 108120, Note_on_c, 0, 36, 0
2, 108120, Note_on_c, 0, 60, 0
2, 108120, Note_on_c, 0, 36, 0
2, 108120, Note_on_c, 0, 48, 0
2, 108120, Note_on_c, 0, 48, 0
2, 108120, Note_on_c, 0, 81, 81
2, 108120, Note_on_c, 0, 79, 81
2, 108120, Note_on_c, 0, 60, 81
2, 108120, Note_on_c, 0, 48, 81
2, 108150, Note_on_c, 0, 79, 0
2, 108150, Note_on_c, 0, 81, 0
2, 108150, Note_on_c, 0, 82, 81
2, 108180, Note_on_c, 0, 82, 0
2, 108180, Note_on_c, 0, 81, 81
2, 108180, Note_on_c, 0, 79, 81
2, 108210, Note_on_c, 0, 79, 0
2, 108210, Note_on_c, 0, 81, 0
2, 108210, Note_on_c, 0, 82, 81
2, 108240, Note_on_c, 0, 82, 0
2, 108240, Note_on_c, 0, 60, 0
2, 108240, Note_on_c, 0, 48, 0
2, 108240, Note_on_c, 0, 81, 81
2, 108240, Note_on_c, 0, 79, 81
2, 108240, Note_on_c, 0, 75, 86
2, 108240, Note_on_c, 0, 63, 86
2, 108270, Note_on_c, 0, 79, 0
2, 108270, Note_on_c, 0, 81, 0
2, 108270, Note_on_c, 0, 82, 81
2, 108300, Note_on_c, 0, 82, 0
2, 108300, Note_on_c, 0, 81, 81
2, 108300, Note_on_c, 0, 79, 81
2, 108330, Note_on_c, 0, 79, 0
2, 108330, Note_on_c, 0, 81, 0
2, 108330, Note_on_c, 0, 82, 81
2, 108360, Note_on_c, 0, 82, 0
2, 108360, Note_on_c, 0, 81, 81
2, 108360, Note_on_c, 0, 79, 81
2, 108390, Note_on_c, 0, 79, 0
2, 108390, Note_on_c, 0, 81, 0
2, 108390, Note_on_c, 0, 82, 81
2, 108420, Note_on_c, 0, 82, 0
2, 108420, Note_on_c, 0, 75, 0
2, 108420, Note_on_c, 0, 63, 0
2, 108420, Note_on_c, 0, 81, 81
2, 108420, Note_on_c, 0, 79, 81
2, 108420, Note_on_c, 0, 74, 81
2, 108420, Note_on_c, 0, 62, 81
2, 108450, Note_on_c, 0, 79, 0
2, 108450, Note_on_c, 0, 81, 0
2, 108450, Note_on_c, 0, 82, 81
2, 108480, Note_on_c, 0, 82, 0
2, 108480, Note_on_c, 0, 74, 0
2, 108480, Note_on_c, 0, 62, 0
2, 108480, Note_on_c, 0, 81, 81
2, 108480, Note_on_c, 0, 79, 81
2, 108480, Note_on_c, 0, 72, 81
2, 108480, Note_on_c, 0, 60, 81
2, 108540, Note_on_c, 0, 60, 0
2, 108540, Note_on_c, 0, 72, 0
2, 108540, Note_on_c, 0, 67, 81
2, 108540, Note_on_c, 0, 55, 81
2, 108600, Note_on_c, 0, 55, 0
2, 108600, Note_on_c, 0, 81, 0
2, 108600, Note_on_c, 0, 79, 0
2, 108600, Note_on_c, 0, 67, 0
2, 108600, Note_on_c, 0, 82, 81
2, 108600, Note_on_c, 0, 63, 81
2, 108600, Note_on_c, 0, 51, 81
2, 108660, Note_on_c, 0, 51, 0
2, 108660, Note_on_c, 0, 63, 0
2, 108660, Note_on_c, 0, 62, 81
2, 108660, Note_on_c, 0, 50, 81
2, 108720, Note_on_c, 0, 50, 0
2, 108720, Note_on_c, 0, 62, 0
2, 108720, Note_on_c, 0, 82, 0
2, 108720, Note_on_c, 0, 81, 81
2, 108720, Note_on_c, 0, 79, 81
2, 108720, Note_on_c, 0, 60, 81
2, 108720, Note_on_c, 0, 48, 81
2, 108780, Note_on_c, 0, 48, 0
2, 108780, Note_on_c, 0, 60, 0
2, 108780, Note_on_c, 0, 55, 81
2, 108780, Note_on_c, 0, 43, 81
2, 108840, Note_on_c, 0, 43, 0
2, 108840, Note_on_c, 0, 81, 0
2, 108840, Note_on_c, 0, 79, 0
2, 108840, Note_on_c, 0, 55, 0
2, 108840, Note_on_c, 0, 82, 81
2, 108840, Note_on_c, 0, 51, 81
2, 108840, Note_on_c, 0, 39, 81
2, 108840, Note_on_c, 0, 60, 81
2, 108840, Note_on_c, 0, 48, 81
2, 108840, Note_on_c, 0, 36, 81
2, 108900, Note_on_c, 0, 39, 0
2, 108900, Note_on_c, 0, 51, 0
2, 108900, Note_on_c, 0, 50, 81
2, 108900, Note_on_c, 0, 38, 81
2, 108960, Note_on_c, 0, 38, 0
2, 108960, Note_on_c, 0, 36, 0
2, 108960, Note_on_c, 0, 48, 0
2, 108960, Note_on_c, 0, 82, 0
2, 108960, Note_on_c, 0, 50, 0
2, 108960, Note_on_c, 0, 60, 0
2, 108960, Note_on_c, 0, 81, 81
2, 108960, Note_on_c, 0, 79, 81
2, 108960, Note_on_c, 0, 49, 81
2, 108960, Note_on_c, 0, 37, 81
2, 108960, Note_on_c, 0, 61, 81
2, 108960, Note_on_c, 0, 49, 81
2, 108960, Note_on_c, 0, 37, 81
2, 109080, Note_on_c, 0, 37, 0
2, 109080, Note_on_c, 0, 61, 0
2, 109080, Note_on_c, 0, 79, 0
2, 109080, Note_on_c, 0, 49, 0
2, 109080, Note_on_c, 0, 81, 0
2, 109080, Note_on_c, 0, 49, 0
2, 109080, Note_on_c, 0, 37, 0
2, 109080, Note_on_c, 0, 82, 81
2, 109080, Note_on_c, 0, 61, 81
2, 109080, Note_on_c, 0, 49, 81
2, 109200, Note_on_c, 0, 49, 0
2, 109200, Note_on_c, 0, 61, 0
2, 109200, Note_on_c, 0, 82, 0
2, 109200, Note_on_c, 0, 81, 81
2, 109200, Note_on_c, 0, 79, 81
2, 109200, Note_on_c, 0, 76, 86
2, 109200, Note_on_c, 0, 64, 86
2, 109320, Note_on_c, 0, 79, 0
2, 109320, Note_on_c, 0, 81, 0
2, 109320, Note_on_c, 0, 82, 81
2, 109380, Note_on_c, 0, 76, 0
2, 109380, Note_on_c, 0, 64, 0
2, 109380, Note_on_c, 0, 74, 81
2, 109380, Note_on_c, 0, 62, 81
2, 109440, Note_on_c, 0, 62, 0
2, 109440, Note_on_c, 0, 74, 0
2, 109440, Note_on_c, 0, 82, 0
2, 109440, Note_on_c, 0, 81, 81
2, 109440, Note_on_c, 0, 79, 81
2, 109440, Note_on_c, 0, 73, 81
2, 109440, Note_on_c, 0, 61, 81
2, 109500, Note_on_c, 0, 61, 0
2, 109500, Note_on_c, 0, 73, 0
2, 109500, Note_on_c, 0, 70, 81
2, 109500, Note_on_c, 0, 58, 81
2, 109560, Note_on_c, 0, 58, 0
2, 109560, Note_on_c, 0, 81, 0
2, 109560, Note_on_c, 0, 79, 0
2, 109560, Note_on_c, 0, 70, 0
2, 109560, Note_on_c, 0, 82, 81
2, 109560, Note_on_c, 0, 67, 81
2, 109560, Note_on_c, 0, 55, 81
2, 109620, Note_on_c, 0, 55, 0
2, 109620, Note_on_c, 0, 67, 0
2, 109620, Note_on_c, 0, 64, 81
2, 109620, Note_on_c, 0, 52, 81
2, 109680, Note_on_c, 0, 52, 0
2, 109680, Note_on_c, 0, 64, 0
2, 109680, Note_on_c, 0, 82, 0
2, 109680, Note_on_c, 0, 81, 81
2, 109680, Note_on_c, 0, 79, 81
2, 109680, Note_on_c, 0, 61, 81
2, 109680, Note_on_c, 0, 49, 81
2, 109740, Note_on_c, 0, 49, 0
2, 109740, Note_on_c, 0, 61, 0
2, 109740, Note_on_c, 0, 58, 81
2, 109740, Note_on_c, 0, 46, 81
2, 109800, Note_on_c, 0, 46, 0
2, 109800, Note_on_c, 0, 81, 0
2, 109800, Note_on_c, 0, 79, 0
2, 109800, Note_on_c, 0, 58, 0
2, 109800, Note_on_c, 0, 82, 81
2, 109800, Note_on_c, 0, 57, 81
2, 109800, Note_on_c, 0, 45, 81
2, 109800, Note_on_c, 0, 60, 81
2, 109800, Note_on_c, 0, 48, 81
2, 109800, Note_on_c, 0, 36, 81
2, 109860, Note_on_c, 0, 45, 0
2, 109860, Note_on_c, 0, 57, 0
2, 109860, Note_on_c, 0, 55, 81
2, 109860, Note_on_c, 0, 43, 81
2, 109920, Note_on_c, 0, 43, 0
2, 109920, Note_on_c, 0, 36, 0
2, 109920, Note_on_c, 0, 48, 0
2, 109920, Note_on_c, 0, 82, 0
2, 109920, Note_on_c, 0, 55, 0
2, 109920, Note_on_c, 0, 60, 0
2, 109920, Note_on_c, 0, 81, 81
2, 109920, Note_on_c, 0, 78, 81
2, 109920, Note_on_c, 0, 50, 81
2, 109920, Note_on_c, 0, 38, 81
2, 109920, Note_on_c, 0, 62, 81
2, 109920, Note_on_c, 0, 50, 81
2, 109920, Note_on_c, 0, 38, 81
2, 109950, Note_on_c, 0, 78, 0
2, 109950, Note_on_c, 0, 81, 0
2, 109950, Note_on_c, 0, 82, 81
2, 109980, Note_on_c, 0, 82, 0
2, 109980, Note_on_c, 0, 50, 0
2, 109980, Note_on_c, 0, 38, 0
2, 109980, Note_on_c, 0, 81, 81
2, 109980, Note_on_c, 0, 78, 81
2, 110010, Note_on_c, 0, 78, 0
2, 110010, Note_on_c, 0, 81, 0
2, 110010, Note_on_c, 0, 82, 81
2, 110040, Note_on_c, 0, 82, 0
2, 110040, Note_on_c, 0, 38, 0
2, 110040, Note_on_c, 0, 62, 0
2, 110040, Note_on_c, 0, 50, 0
2, 110040, Note_on_c, 0, 81, 81
2, 110040, Note_on_c, 0, 78, 81
2, 110040, Note_on_c, 0, 62, 81
2, 110040, Note_on_c, 0, 50, 81
2, 110070, Note_on_c, 0, 78, 0
2, 110070, Note_on_c, 0, 81, 0
2, 110070, Note_on_c, 0, 82, 81
2, 110100, Note_on_c, 0, 82, 0
2, 110100, Note_on_c, 0, 81, 81
2, 110100, Note_on_c, 0, 78, 81
2, 110130, Note_on_c, 0, 78, 0
2, 110130, Note_on_c, 0, 81, 0
2, 110130, Note_on_c, 0, 82, 81
2, 110160, Note_on_c, 0, 82, 0
2, 110160, Note_on_c, 0, 62, 0
2, 110160, Note_on_c, 0, 50, 0
2, 110160, Note_on_c, 0, 81, 81
2, 110160, Note_on_c, 0, 78, 81
2, 110160, Note_on_c, 0, 50, 87
2, 110160, Note_on_c, 0, 38, 87
2, 110190, Note_on_c, 0, 78, 0
2, 110190, Note_on_c, 0, 81, 0
2, 110190, Note_on_c, 0, 82, 81
2, 110220, Note_on_c, 0, 82, 0
2, 110220, Note_on_c, 0, 81, 81
2, 110220, Note_on_c, 0, 78, 81
2, 110250, Note_on_c, 0, 78, 0
2, 110250, Note_on_c, 0, 81, 0
2, 110250, Note_on_c, 0, 82, 81
2, 110280, Note_on_c, 0, 82, 0
2, 110280, Note_on_c, 0, 81, 81
2, 110280, Note_on_c, 0, 78, 81
2, 110310, Note_on_c, 0, 78, 0
2, 110310, Note_on_c, 0, 81, 0
2, 110310, Note_on_c, 0, 82, 81
2, 110340, Note_on_c, 0, 82, 0
2, 110340, Note_on_c, 0, 50, 0
2, 110340, Note_on_c, 0, 38, 0
2, 110340, Note_on_c, 0, 81, 81
2, 110340, Note_on_c, 0, 78, 81
2, 110340, Note_on_c, 0, 52, 81
2, 110340, Note_on_c, 0, 40, 81
2, 110370, Note_on_c, 0, 78, 0
2, 110370, Note_on_c, 0, 81, 0
2, 110370, Note_on_c, 0, 82, 81
2, 110400, Note_on_c, 0, 82, 0
2, 110400, Note_on_c, 0, 52, 0
2, 110400, Note_on_c, 0, 40, 0
2, 110400, Note_on_c, 0, 81, 81
2, 110400, Note_on_c, 0, 78, 81
2, 110400, Note_on_c, 0, 54, 81
2, 110400, Note_on_c, 0, 42, 81
2, 110460, Note_on_c, 0, 42, 0
2, 110460, Note_on_c, 0, 54, 0
2, 110460, Note_on_c, 0, 55, 81
2, 110460, Note_on_c, 0, 43, 81
2, 110520, Note_on_c, 0, 43, 0
2, 110520, Note_on_c, 0, 81, 0
2, 110520, Note_on_c, 0, 78, 0
2, 110520, Note_on_c, 0, 55, 0
2, 110520, Note_on_c, 0, 82, 81
2, 110520, Note_on_c, 0, 57, 81
2, 110520, Note_on_c, 0, 45, 81
2, 110580, Note_on_c, 0, 45, 0
2, 110580, Note_on_c, 0, 57, 0
2, 110580, Note_on_c, 0, 58, 81
2, 110580, Note_on_c, 0, 46, 81
2, 110640, Note_on_c, 0, 46, 0
2, 110640, Note_on_c, 0, 58, 0
2, 110640, Note_on_c, 0, 82, 0
2, 110640, Note_on_c, 0, 81, 81
2, 110640, Note_on_c, 0, 78, 81
2, 110640, Note_on_c, 0, 60, 81
2, 110640, Note_on_c, 0, 48, 81
2, 110700, Note_on_c, 0, 48, 0
2, 110700, Note_on_c, 0, 60, 0
2, 110700, Note_on_c, 0, 62, 81
2, 110700, Note_on_c, 0, 50, 81
2, 110760, Note_on_c, 0, 50, 0
2, 110760, Note_on_c, 0, 81, 0
2, 110760, Note_on_c, 0, 78, 0
2, 110760, Note_on_c, 0, 62, 0
2, 110760, Note_on_c, 0, 82, 81
2, 110760, Note_on_c, 0, 63, 81
2, 110760, Note_on_c, 0, 51, 81
2, 110820, Note_on_c, 0, 51, 0
2, 110820, Note_on_c, 0, 63, 0
2, 110820, Note_on_c, 0, 60, 81
2, 110820, Note_on_c, 0, 48, 81
2, 110880, Note_on_c, 0, 48, 0
2, 110880, Note_on_c, 0, 60, 0
2, 110880, Note_on_c, 0, 82, 0
2, 110880, Note_on_c, 0, 81, 81
2, 110880, Note_on_c, 0, 75, 81
2, 110880, Note_on_c, 0, 67, 86
2, 110880, Note_on_c, 0, 55, 86
2, 110880, Note_on_c, 0, 38, 81
2, 110880, Note_on_c, 0, 26, 81
2, 111000, Note_on_c, 0, 26, 0
2, 111000, Note_on_c, 0, 75, 0
2, 111000, Note_on_c, 0, 67, 0
2, 111000, Note_on_c, 0, 81, 0
2, 111000, Note_on_c, 0, 38, 0
2, 111000, Note_on_c, 0, 55, 0
2, 111000, Note_on_c, 0, 82, 81
2, 111000, Note_on_c, 0, 66, 81
2, 111000, Note_on_c, 0, 54, 81
2, 111060, Note_on_c, 0, 54, 0
2, 111060, Note_on_c, 0, 66, 0
2, 111120, Note_on_c, 0, 82, 0
2, 111120, Note_on_c, 0, 81, 81
2, 111120, Note_on_c, 0, 75, 81
2, 111120, Note_on_c, 0, 60, 81
2, 111120, Note_on_c, 0, 48, 81
2, 111180, Note_on_c, 0, 48, 0
2, 111180, Note_on_c, 0, 60, 0
2, 111180, Note_on_c, 0, 62, 81
2, 111180, Note_on_c, 0, 50, 81
2, 111240, Note_on_c, 0, 50, 0
2, 111240, Note_on_c, 0, 81, 0
2, 111240, Note_on_c, 0, 75, 0
2, 111240, Note_on_c, 0, 62, 0
2, 111240, Note_on_c, 0, 82, 81
2, 111240, Note_on_c, 0, 63, 81
2, 111240, Note_on_c, 0, 51, 81
2, 111300, Note_on_c, 0, 51, 0
2, 111300, Note_on_c, 0, 63, 0
2, 111300, Note_on_c, 0, 60, 81
2, 111300, Note_on_c, 0, 48, 81
2, 111360, Note_on_c, 0, 48, 0
2, 111360, Note_on_c, 0, 60, 0
2, 111360, Note_on_c, 0, 82, 0
2, 111360, Note_on_c, 0, 84, 81
2, 111360, Note_on_c, 0, 78, 81
2, 111360, Note_on_c, 0, 70, 81
2, 111360, Note_on_c, 0, 58, 81
2, 111360, Note_on_c, 0, 38, 81
2, 111360, Note_on_c, 0, 26, 81
2, 111420, Note_on_c, 0, 78, 0
2, 111420, Note_on_c, 0, 84, 0
2, 111420, Note_on_c, 0, 86, 81
2, 111480, Note_on_c, 0, 86, 0
2, 111480, Note_on_c, 0, 84, 81
2, 111480, Note_on_c, 0, 78, 81
2, 111540, Note_on_c, 0, 78, 0
2, 111540, Note_on_c, 0, 84, 0
2, 111540, Note_on_c, 0, 86, 81
2, 111600, Note_on_c, 0, 86, 0
2, 111600, Note_on_c, 0, 70, 0
2, 111600, Note_on_c, 0, 58, 0
2, 111600, Note_on_c, 0, 26, 0
2, 111600, Note_on_c, 0, 38, 0
2, 111600, Note_on_c, 0, 84, 81
2, 111600, Note_on_c, 0, 78, 81
2, 111600, Note_on_c, 0, 69, 81
2, 111600, Note_on_c, 0, 57, 81
2, 111660, Note_on_c, 0, 78, 0
2, 111660, Note_on_c, 0, 84, 0
2, 111660, Note_on_c, 0, 86, 81
2, 111720, Note_on_c, 0, 86, 0
2, 111720, Note_on_c, 0, 69, 0
2, 111720, Note_on_c, 0, 57, 0
2, 111720, Note_on_c, 0, 84, 81
2, 111720, Note_on_c, 0, 78, 81
2, 111780, Note_on_c, 0, 78, 0
2, 111780, Note_on_c, 0, 84, 0
2, 111780, Note_on_c, 0, 86, 81
2, 111840, Note_on_c, 0, 86, 0
2, 111840, Note_on_c, 0, 84, 81
2, 111840, Note_on_c, 0, 81, 81
2, 111840, Note_on_c, 0, 75, 81
2, 111840, Note_on_c, 0, 63, 81
2, 111840, Note_on_c, 0, 38, 81
2, 111840, Note_on_c, 0, 26, 81
2, 111900, Note_on_c, 0, 81, 0
2, 111900, Note_on_c, 0, 84, 0
2, 111900, Note_on_c, 0, 86, 81
2, 111960, Note_on_c, 0, 86, 0
2, 111960, Note_on_c, 0, 84, 81
2, 111960, Note_on_c, 0, 81, 81
2, 112020, Note_on_c, 0, 81, 0
2, 112020, Note_on_c, 0, 84, 0
2, 112020, Note_on_c, 0, 86, 81
2, 112080, Note_on_c, 0, 86, 0
2, 112080, Note_on_c, 0, 75, 0
2, 112080, Note_on_c, 0, 63, 0
2, 112080, Note_on_c, 0, 26, 0
2, 112080, Note_on_c, 0, 38, 0
2, 112080, Note_on_c, 0, 84, 81
2, 112080, Note_on_c, 0, 81, 81
2, 112080, Note_on_c, 0, 74, 81
2, 112080, Note_on_c, 0, 62, 81
2, 112200, Note_on_c, 0, 62, 0
2, 112200, Note_on_c, 0, 84, 0
2, 112200, Note_on_c, 0, 81, 0
2, 112200, Note_on_c, 0, 74, 0
2, 112200, Note_on_c, 0, 83, 81
2, 112260, Note_on_c, 0, 83, 0
2, 112260, Note_on_c, 0, 84, 81
2, 112260, Note_on_c, 0, 90, 81
2, 112290, Note_on_c, 0, 90, 0
2, 112290, Note_on_c, 0, 93, 81
2, 112320, Note_on_c, 0, 93, 0
2, 112320, Note_on_c, 0, 84, 0
2, 112320, Note_on_c, 0, 98, 87
2, 112320, Note_on_c, 0, 62, 87
2, 112320, Note_on_c, 0, 60, 87
2, 112320, Note_on_c, 0, 57, 87
2, 112320, Note_on_c, 0, 50, 87
2, 112350, Note_on_c, 0, 98, 0
2, 112350, Note_on_c, 0, 96, 87
2, 112380, Note_on_c, 0, 96, 0
2, 112380, Note_on_c, 0, 93, 87
2, 112410, Note_on_c, 0, 93, 0
2, 112410, Note_on_c, 0, 90, 87
2, 112440, Note_on_c, 0, 90, 0
2, 112440, Note_on_c, 0, 50, 0
2, 112440, Note_on_c, 0, 62, 0
2, 112440, Note_on_c, 0, 60, 0
2, 112440, Note_on_c, 0, 57, 0
2, 112440, Note_on_c, 0, 86, 87
2, 112470, Note_on_c, 0, 86, 0
2, 112470, Note_on_c, 0, 84, 87
2, 112500, Note_on_c, 0, 84, 0
2, 112500, Note_on_c, 0, 81, 87
2, 112530, Note_on_c, 0, 81, 0
2, 112530, Note_on_c, 0, 78, 87
2, 112560, Note_on_c, 0, 78, 0
2, 112560, Note_on_c, 0, 74, 85
2, 112560, Note_on_c, 0, 50, 87
2, 112560, Note_on_c, 0, 48, 87
2, 112560, Note_on_c, 0, 45, 87
2, 112560, Note_on_c, 0, 38, 87
2, 112590, Note_on_c, 0, 74, 0
2, 112590, Note_on_c, 0, 72, 85
2, 112620, Note_on_c, 0, 72, 0
2, 112620, Note_on_c, 0, 69, 85
2, 112650, Note_on_c, 0, 69, 0
2, 112650, Note_on_c, 0, 66, 85
2, 112680, Note_on_c, 0, 66, 0
2, 112680, Note_on_c, 0, 38, 0
2, 112680, Note_on_c, 0, 50, 0
2, 112680, Note_on_c, 0, 48, 0
2, 112680, Note_on_c, 0, 45, 0
2, 112680, Note_on_c, 0, 62, 85
2, 112710, Note_on_c, 0, 62, 0
2, 112710, Note_on_c, 0, 60, 85
2, 112740, Note_on_c, 0, 60, 0
2, 112740, Note_on_c, 0, 57, 85
2, 112740, Note_on_c, 0, 74, 85
2, 112770, Note_on_c, 0, 57, 0
2, 112770, Note_on_c, 0, 54, 85
2, 112800, Note_on_c, 0, 54, 0
2, 112800, Note_on_c, 0, 74, 0
2, 112800, Note_on_c, 0, 55, 85
2, 112800, Note_on_c, 0, 43, 85
2, 112800, Note_on_c, 0, 31, 85
2, 112800, Note_on_c, 0, 82, 87
2, 112800, Note_on_c, 0, 79, 87
2, 112800, Note_on_c, 0, 74, 87
2, 112800, Note_on_c, 0, 70, 87
2, 112800, Note_on_c, 0, 31, 87
2, 112860, Note_on_c, 0, 31, 0
2, 112860, Note_on_c, 0, 55, 0
2, 112860, Note_on_c, 0, 43, 0
2, 112920, Note_on_c, 0, 31, 0
2, 112920, Note_on_c, 0, 43, 87
2, 112980, Note_on_c, 0, 79, 0
2, 112980, Note_on_c, 0, 74, 0
2, 112980, Note_on_c, 0, 82, 0
2, 112980, Note_on_c, 0, 70, 0
2, 112980, Note_on_c, 0, 82, 87
2, 112980, Note_on_c, 0, 70, 87
2, 113040, Note_on_c, 0, 70, 0
2, 113040, Note_on_c, 0, 82, 0
2, 113040, Note_on_c, 0, 43, 0
2, 113040, Note_on_c, 0, 81, 87
2, 113040, Note_on_c, 0, 78, 87
2, 113040, Note_on_c, 0, 74, 87
2, 113040, Note_on_c, 0, 72, 87
2, 113040, Note_on_c, 0, 31, 87
2, 113160, Note_on_c, 0, 31, 0
2, 113160, Note_on_c, 0, 43, 87
2, 113220, Note_on_c, 0, 74, 0
2, 113220, Note_on_c, 0, 72, 0
2, 113220, Note_on_c, 0, 81, 0
2, 113220, Note_on_c, 0, 78, 0
2, 113220, Note_on_c, 0, 81, 87
2, 113220, Note_on_c, 0, 78, 87
2, 113220, Note_on_c, 0, 74, 87
2, 113220, Note_on_c, 0, 72, 87
2, 113280, Note_on_c, 0, 72, 0
2, 113280, Note_on_c, 0, 78, 0
2, 113280, Note_on_c, 0, 43, 0
2, 113280, Note_on_c, 0, 81, 0
2, 113280, Note_on_c, 0, 74, 0
2, 113280, Note_on_c, 0, 80, 87
2, 113280, Note_on_c, 0, 77, 87
2, 113280, Note_on_c, 0, 74, 87
2, 113280, Note_on_c, 0, 71, 87
2, 113280, Note_on_c, 0, 31, 87
2, 113400, Note_on_c, 0, 31, 0
2, 113400, Note_on_c, 0, 74, 0
2, 113400, Note_on_c, 0, 80, 0
2, 113400, Note_on_c, 0, 77, 0
2, 113400, Note_on_c, 0, 71, 0
2, 113400, Note_on_c, 0, 77, 87
2, 113400, Note_on_c, 0, 74, 87
2, 113400, Note_on_c, 0, 71, 87
2, 113400, Note_on_c, 0, 68, 87
2, 113400, Note_on_c, 0, 43, 87
2, 113520, Note_on_c, 0, 43, 0
2, 113520, Note_on_c, 0, 71, 0
2, 113520, Note_on_c, 0, 77, 0
2, 113520, Note_on_c, 0, 74, 0
2, 113520, Note_on_c, 0, 68, 0
2, 113520, Note_on_c, 0, 74, 87
2, 113520, Note_on_c, 0, 71, 87
2, 113520, Note_on_c, 0, 68, 87
2, 113520, Note_on_c, 0, 65, 87
2, 113520, Note_on_c, 0, 31, 87
2, 113640, Note_on_c, 0, 31, 0
2, 113640, Note_on_c, 0, 68, 0
2, 113640, Note_on_c, 0, 74, 0
2, 113640, Note_on_c, 0, 71, 0
2, 113640, Note_on_c, 0, 65, 0
2, 113640, Note_on_c, 0, 43, 87
2, 113700, Note_on_c, 0, 74, 87
2, 113760, Note_on_c, 0, 74, 0
2, 113760, Note_on_c, 0, 43, 0
2, 113760, Note_on_c, 0, 79, 87
2, 113760, Note_on_c, 0, 77, 87
2, 113760, Note_on_c, 0, 74, 87
2, 113760, Note_on_c, 0, 67, 87
2, 113760, Note_on_c, 0, 31, 87
2, 113820, Note_on_c, 0, 31, 0
2, 113820, Note_on_c, 0, 43, 87
2, 113880, Note_on_c, 0, 43, 0
2, 113880, Note_on_c, 0, 45, 87
2, 113940, Note_on_c, 0, 45, 0
2, 113940, Note_on_c, 0, 74, 0
2, 113940, Note_on_c, 0, 79, 0
2, 113940, Note_on_c, 0, 77, 0
2, 113940, Note_on_c, 0, 67, 0
2, 113940, Note_on_c, 0, 79, 87
2, 113940, Note_on_c, 0, 47, 87
2, 114000, Note_on_c, 0, 47, 0
2, 114000, Note_on_c, 0, 79, 0
2, 114000, Note_on_c, 0, 75, 87
2, 114000, Note_on_c, 0, 72, 87
2, 114000, Note_on_c, 0, 67, 87
2, 114000, Note_on_c, 0, 36, 87
2, 114000, Note_on_c, 0, 48, 87
2, 114060, Note_on_c, 0, 48, 0
2, 114060, Note_on_c, 0, 36, 0
2, 114060, Note_on_c, 0, 50, 87
2, 114120, Note_on_c, 0, 50, 0
2, 114120, Note_on_c, 0, 67, 0
2, 114120, Note_on_c, 0, 72, 0
2, 114120, Note_on_c, 0, 75, 0
2, 114120, Note_on_c, 0, 72, 87
2, 114120, Note_on_c, 0, 69, 87
2, 114120, Note_on_c, 0, 67, 87
2, 114120, Note_on_c, 0, 51, 87
2, 114180, Note_on_c, 0, 51, 0
2, 114180, Note_on_c, 0, 55, 87
2, 114240, Note_on_c, 0, 55, 0
2, 114240, Note_on_c, 0, 67, 0
2, 114240, Note_on_c, 0, 69, 0
2, 114240, Note_on_c, 0, 72, 0
2, 114240, Note_on_c, 0, 74, 87
2, 114240, Note_on_c, 0, 70, 87
2, 114240, Note_on_c, 0, 67, 87
2, 114240, Note_on_c, 0, 62, 87
2, 114240, Note_on_c, 0, 50, 87
2, 114300, Note_on_c, 0, 50, 0
2, 114300, Note_on_c, 0, 50, 87
2, 114360, Note_on_c, 0, 50, 0
2, 114360, Note_on_c, 0, 50, 87
2, 114420, Note_on_c, 0, 50, 0
2, 114420, Note_on_c, 0, 50, 87
2, 114480, Note_on_c, 0, 50, 0
2, 114480, Note_on_c, 0, 62, 0
2, 114480, Note_on_c, 0, 74, 0
2, 114480, Note_on_c, 0, 70, 0
2, 114480, Note_on_c, 0, 67, 0
2, 114480, Note_on_c, 0, 69, 87
2, 114480, Note_on_c, 0, 66, 87
2, 114480, Note_on_c, 0, 62, 87
2, 114480, Note_on_c, 0, 50, 87
2, 114480, Note_on_c, 0, 38, 87
2, 114540, Note_on_c, 0, 38, 0
2, 114540, Note_on_c, 0, 50, 0
2, 114540, Note_on_c, 0, 50, 87
2, 114540, Note_on_c, 0, 38, 87
2, 114600, Note_on_c, 0, 38, 0
2, 114600, Note_on_c, 0, 50, 0
2, 114600, Note_on_c, 0, 50, 87
2, 114600, Note_on_c, 0, 38, 87
2, 114660, Note_on_c, 0, 38, 0
2, 114660, Note_on_c, 0, 62, 0
2, 114660, Note_on_c, 0, 69, 0
2, 114660, Note_on_c, 0, 66, 0
2, 114660, Note_on_c, 0, 50, 0
2, 114660, Note_on_c, 0, 74, 87
2, 114660, Note_on_c, 0, 50, 87
2, 114660, Note_on_c, 0, 38, 87
2, 114720, Note_on_c, 0, 38, 0
2, 114720, Note_on_c, 0, 50, 0
2, 114720, Note_on_c, 0, 74, 0
2, 114720, Note_on_c, 0, 82, 87
2, 114720, Note_on_c, 0, 79, 87
2, 114720, Note_on_c, 0, 74, 87
2, 114720, Note_on_c, 0, 70, 87
2, 114720, Note_on_c, 0, 43, 87
2, 114720, Note_on_c, 0, 31, 87
2, 114780, Note_on_c, 0, 31, 0
2, 114780, Note_on_c, 0, 43, 0
2, 114780, Note_on_c, 0, 45, 87
2, 114840, Note_on_c, 0, 45, 0
2, 114840, Note_on_c, 0, 46, 87
2, 114900, Note_on_c, 0, 46, 0
2, 114900, Note_on_c, 0, 74, 0
2, 114900, Note_on_c, 0, 82, 0
2, 114900, Note_on_c, 0, 79, 0
2, 114900, Note_on_c, 0, 70, 0
2, 114900, Note_on_c, 0, 82, 87
2, 114900, Note_on_c, 0, 70, 87
2, 114900, Note_on_c, 0, 48, 87
2, 114960, Note_on_c, 0, 48, 0
2, 114960, Note_on_c, 0, 70, 0
2, 114960, Note_on_c, 0, 82, 0
2, 114960, Note_on_c, 0, 81, 87
2, 114960, Note_on_c, 0, 78, 87
2, 114960, Note_on_c, 0, 74, 87
2, 114960, Note_on_c, 0, 69, 87
2, 114960, Note_on_c, 0, 50, 87
2, 114960, Note_on_c, 0, 38, 87
2, 115020, Note_on_c, 0, 38, 0
2, 115020, Note_on_c, 0, 50, 0
2, 115020, Note_on_c, 0, 52, 87
2, 115080, Note_on_c, 0, 52, 0
2, 115080, Note_on_c, 0, 54, 87
2, 115140, Note_on_c, 0, 54, 0
2, 115140, Note_on_c, 0, 74, 0
2, 115140, Note_on_c, 0, 81, 0
2, 115140, Note_on_c, 0, 78, 0
2, 115140, Note_on_c, 0, 69, 0
2, 115140, Note_on_c, 0, 81, 87
2, 115140, Note_on_c, 0, 69, 87
2, 115140, Note_on_c, 0, 50, 87
2, 115200, Note_on_c, 0, 50, 0
2, 115200, Note_on_c, 0, 69, 0
2, 115200, Note_on_c, 0, 81, 0
2, 115200, Note_on_c, 0, 80, 87
2, 115200, Note_on_c, 0, 77, 87
2, 115200, Note_on_c, 0, 74, 87
2, 115200, Note_on_c, 0, 68, 87
2, 115200, Note_on_c, 0, 59, 87
2, 115260, Note_on_c, 0, 59, 0
2, 115260, Note_on_c, 0, 59, 87
2, 115320, Note_on_c, 0, 59, 0
2, 115320, Note_on_c, 0, 68, 0
2, 115320, Note_on_c, 0, 80, 0
2, 115320, Note_on_c, 0, 77, 0
2, 115320, Note_on_c, 0, 74, 0
2, 115320, Note_on_c, 0, 77, 87
2, 115320, Note_on_c, 0, 74, 87
2, 115320, Note_on_c, 0, 68, 87
2, 115320, Note_on_c, 0, 59, 87
2, 115380, Note_on_c, 0, 59, 0
2, 115380, Note_on_c, 0, 59, 87
2, 115440, Note_on_c, 0, 59, 0
2, 115440, Note_on_c, 0, 68, 0
2, 115440, Note_on_c, 0, 74, 0
2, 115440, Note_on_c, 0, 77, 0
2, 115440, Note_on_c, 0, 74, 87
2, 115440, Note_on_c, 0, 68, 87
2, 115440, Note_on_c, 0, 65, 87
2, 115440, Note_on_c, 0, 59, 87
2, 115500, Note_on_c, 0, 59, 0
2, 115500, Note_on_c, 0, 65, 87
2, 115560, Note_on_c, 0, 65, 0
2, 115560, Note_on_c, 0, 65, 0
2, 115560, Note_on_c, 0, 68, 0
2, 115560, Note_on_c, 0, 74, 0
2, 115560, Note_on_c, 0, 62, 87
2, 115620, Note_on_c, 0, 62, 0
2, 115620, Note_on_c, 0, 74, 87
2, 115620, Note_on_c, 0, 60, 87
2, 115680, Note_on_c, 0, 60, 0
2, 115680, Note_on_c, 0, 74, 0
2, 115680, Note_on_c, 0, 79, 87
2, 115680, Note_on_c, 0, 77, 87
2, 115680, Note_on_c, 0, 74, 87
2, 115680, Note_on_c, 0, 67, 87
2, 115680, Note_on_c, 0, 59, 87
2, 115740, Note_on_c, 0, 59, 0
2, 115740, Note_on_c, 0, 55, 87
2, 115800, Note_on_c, 0, 55, 0
2, 115800, Note_on_c, 0, 57, 87
2, 115860, Note_on_c, 0, 57, 0
2, 115860, Note_on_c, 0, 74, 0
2, 115860, Note_on_c, 0, 79, 0
2, 115860, Note_on_c, 0, 77, 0
2, 115860, Note_on_c, 0, 67, 0
2, 115860, Note_on_c, 0, 79, 87
2, 115860, Note_on_c, 0, 59, 87
2, 115920, Note_on_c, 0, 59, 0
2, 115920, Note_on_c, 0, 79, 0
2, 115920, Note_on_c, 0, 75, 87
2, 115920, Note_on_c, 0, 72, 87
2, 115920, Note_on_c, 0, 67, 87
2, 115920, Note_on_c, 0, 60, 87
2, 115980, Note_on_c, 0, 60, 0
2, 115980, Note_on_c, 0, 62, 87
2, 116040, Note_on_c, 0, 62, 0
2, 116040, Note_on_c, 0, 67, 0
2, 116040, Note_on_c, 0, 72, 0
2, 116040, Note_on_c, 0, 75, 0
2, 116040, Note_on_c, 0, 72, 87
2, 116040, Note_on_c, 0, 67, 87
2, 116040, Note_on_c, 0, 63, 87
2, 116100, Note_on_c, 0, 63, 0
2, 116100, Note_on_c, 0, 51, 87
2, 116160, Note_on_c, 0, 51, 0
2, 116160, Note_on_c, 0, 67, 0
2, 116160, Note_on_c, 0, 72, 0
2, 116160, Note_on_c, 0, 74, 87
2, 116160, Note_on_c, 0, 70, 87
2, 116160, Note_on_c, 0, 67, 87
2, 116160, Note_on_c, 0, 50, 87
2, 116220, Note_on_c, 0, 50, 0
2, 116220, Note_on_c, 0, 55, 87
2, 116280, Note_on_c, 0, 55, 0
2, 116280, Note_on_c, 0, 58, 87
2, 116340, Note_on_c, 0, 58, 0
2, 116340, Note_on_c, 0, 60, 87
2, 116400, Note_on_c, 0, 60, 0
2, 116400, Note_on_c, 0, 67, 0
2, 116400, Note_on_c, 0, 70, 0
2, 116400, Note_on_c, 0, 74, 0
2, 116400, Note_on_c, 0, 74, 87
2, 116400, Note_on_c, 0, 69, 87
2, 116400, Note_on_c, 0, 67, 87
2, 116400, Note_on_c, 0, 62, 87
2, 116520, Note_on_c, 0, 62, 0
2, 116520, Note_on_c, 0, 67, 0
2, 116520, Note_on_c, 0, 66, 87
2, 116520, Note_on_c, 0, 50, 87
2, 116640, Note_on_c, 0, 50, 0
2, 116640, Note_on_c, 0, 74, 0
2, 116640, Note_on_c, 0, 69, 0
2, 116640, Note_on_c, 0, 66, 0
2, 116640, Note_on_c, 0, 67, 81
2, 116640, Note_on_c, 0, 43, 81
2, 116640, Note_on_c, 0, 31, 81
2, 116700, Note_on_c, 0, 31, 0
2, 116700, Note_on_c, 0, 43, 0
2, 116700, Note_on_c, 0, 67, 0
2, 116700, Note_on_c, 0, 86, 81
2, 116700, Note_on_c, 0, 82, 81
2, 116760, Note_on_c, 0, 82, 0
2, 116760, Note_on_c, 0, 86, 0
2, 116760, Note_on_c, 0, 85, 81
2, 116760, Note_on_c, 0, 81, 81
2, 116760, Note_on_c, 0, 55, 81
2, 116760, Note_on_c, 0, 50, 81
2, 116820, Note_on_c, 0, 81, 0
2, 116820, Note_on_c, 0, 85, 0
2, 116820, Note_on_c, 0, 86, 81
2, 116820, Note_on_c, 0, 82, 81
2, 116880, Note_on_c, 0, 82, 0
2, 116880, Note_on_c, 0, 50, 0
2, 116880, Note_on_c, 0, 55, 0
2, 116880, Note_on_c, 0, 86, 0
2, 116880, Note_on_c, 0, 84, 81
2, 116880, Note_on_c, 0, 81, 81
2, 116880, Note_on_c, 0, 57, 81
2, 116880, Note_on_c, 0, 54, 81
2, 116940, Note_on_c, 0, 81, 0
2, 116940, Note_on_c, 0, 84, 0
2, 116940, Note_on_c, 0, 82, 81
2, 116940, Note_on_c, 0, 79, 81
2, 117000, Note_on_c, 0, 79, 0
2, 117000, Note_on_c, 0, 54, 0
2, 117000, Note_on_c, 0, 57, 0
2, 117000, Note_on_c, 0, 82, 0
2, 117000, Note_on_c, 0, 81, 81
2, 117000, Note_on_c, 0, 77, 81
2, 117000, Note_on_c, 0, 58, 81
2, 117000, Note_on_c, 0, 55, 81
2, 117060, Note_on_c, 0, 77, 0
2, 117060, Note_on_c, 0, 81, 0
2, 117060, Note_on_c, 0, 79, 81
2, 117060, Note_on_c, 0, 75, 81
2, 117120, Note_on_c, 0, 75, 0
2, 117120, Note_on_c, 0, 55, 0
2, 117120, Note_on_c, 0, 58, 0
2, 117120, Note_on_c, 0, 79, 0
2, 117120, Channel_aftertouch_c, 0, 101
2, 117120, Note_on_c, 0, 78, 87
2, 117120, Note_on_c, 0, 74, 87
2, 117120, Note_on_c, 0, 62, 87
2, 117120, Note_on_c, 0, 57, 87
2, 117180, Note_on_c, 0, 74, 0
2, 117180, Note_on_c, 0, 78, 0
2, 117180, Note_on_c, 0, 78, 81
2, 117180, Note_on_c, 0, 74, 81
2, 117240, Note_on_c, 0, 74, 0
2, 117240, Note_on_c, 0, 78, 0
2, 117240, Note_on_c, 0, 62, 0
2, 117240, Note_on_c, 0, 79, 81
2, 117240, Note_on_c, 0, 75, 81
2, 117240, Note_on_c, 0, 60, 81
2, 117300, Note_on_c, 0, 75, 0
2, 117300, Note_on_c, 0, 79, 0
2, 117300, Note_on_c, 0, 78, 81
2, 117300, Note_on_c, 0, 74, 81
2, 117360, Note_on_c, 0, 74, 0
2, 117360, Note_on_c, 0, 60, 0
2, 117360, Note_on_c, 0, 57, 0
2, 117360, Note_on_c, 0, 78, 0
2, 117360, Note_on_c, 0, 75, 87
2, 117360, Note_on_c, 0, 72, 87
2, 117360, Note_on_c, 0, 57, 81
2, 117360, Note_on_c, 0, 54, 81
2, 117420, Note_on_c, 0, 72, 0
2, 117420, Note_on_c, 0, 75, 0
2, 117420, Note_on_c, 0, 74, 81
2, 117420, Note_on_c, 0, 69, 81
2, 117480, Note_on_c, 0, 69, 0
2, 117480, Note_on_c, 0, 74, 0
2, 117480, Note_on_c, 0, 75, 87
2, 117480, Note_on_c, 0, 72, 87
2, 117480, Note_on_c, 0, 50, 81
2, 117540, Note_on_c, 0, 72, 0
2, 117540, Note_on_c, 0, 75, 0
2, 117540, Note_on_c, 0, 74, 81
2, 117540, Note_on_c, 0, 69, 81
2, 117600, Note_on_c, 0, 69, 0
2, 117600, Note_on_c, 0, 54, 0
2, 117600, Note_on_c, 0, 50, 0
2, 117600, Note_on_c, 0, 57, 0
2, 117600, Note_on_c, 0, 74, 0
2, 117600, Note_on_c, 0, 70, 81
2, 117600, Note_on_c, 0, 43, 81
2, 117600, Note_on_c, 0, 31, 81
2, 117660, Note_on_c, 0, 70, 0
2, 117660, Note_on_c, 0, 74, 81
2, 117660, Note_on_c, 0, 70, 81
2, 117720, Note_on_c, 0, 70, 0
2, 117720, Note_on_c, 0, 43, 0
2, 117720, Note_on_c, 0, 31, 0
2, 117720, Note_on_c, 0, 74, 0
2, 117720, Note_on_c, 0, 73, 81
2, 117720, Note_on_c, 0, 69, 81
2, 117720, Note_on_c, 0, 55, 81
2, 117720, Note_on_c, 0, 50, 81
2, 117720, Note_on_c, 0, 46, 81
2, 117780, Note_on_c, 0, 69, 0
2, 117780, Note_on_c, 0, 73, 0
2, 117780, Note_on_c, 0, 74, 81
2, 117780, Note_on_c, 0, 70, 81
2, 117840, Note_on_c, 0, 70, 0
2, 117840, Note_on_c, 0, 50, 0
2, 117840, Note_on_c, 0, 46, 0
2, 117840, Note_on_c, 0, 55, 0
2, 117840, Note_on_c, 0, 74, 0
2, 117840, Note_on_c, 0, 72, 81
2, 117840, Note_on_c, 0, 69, 81
2, 117840, Note_on_c, 0, 57, 81
2, 117840, Note_on_c, 0, 54, 81
2, 117840, Note_on_c, 0, 50, 81
2, 117900, Note_on_c, 0, 69, 0
2, 117900, Note_on_c, 0, 72, 0
2, 117900, Note_on_c, 0, 70, 81
2, 117900, Note_on_c, 0, 67, 81
2, 117960, Note_on_c, 0, 67, 0
2, 117960, Note_on_c, 0, 54, 0
2, 117960, Note_on_c, 0, 50, 0
2, 117960, Note_on_c, 0, 57, 0
2, 117960, Note_on_c, 0, 70, 0
2, 117960, Note_on_c, 0, 69, 81
2, 117960, Note_on_c, 0, 65, 81
2, 117960, Note_on_c, 0, 58, 81
2, 117960, Note_on_c, 0, 55, 81
2, 118020, Note_on_c, 0, 65, 0
2, 118020, Note_on_c, 0, 69, 0
2, 118020, Note_on_c, 0, 67, 81
2, 118020, Note_on_c, 0, 63, 81
2, 118080, Note_on_c, 0, 63, 0
2, 118080, Note_on_c, 0, 55, 0
2, 118080, Note_on_c, 0, 58, 0
2, 118080, Note_on_c, 0, 67, 0
2, 118080, Note_on_c, 0, 66, 87
2, 118080, Note_on_c, 0, 62, 87
2, 118080, Note_on_c, 0, 57, 87
2, 118140, Note_on_c, 0, 66, 0
2, 118140, Note_on_c, 0, 66, 81
2, 118200, Note_on_c, 0, 66, 0
2, 118200, Note_on_c, 0, 62, 0
2, 118200, Note_on_c, 0, 67, 81
2, 118200, Note_on_c, 0, 63, 81
2, 118200, Note_on_c, 0, 60, 81
2, 118260, Note_on_c, 0, 63, 0
2, 118260, Note_on_c, 0, 67, 0
2, 118260, Note_on_c, 0, 66, 81
2, 118260, Note_on_c, 0, 62, 81
2, 118320, Note_on_c, 0, 62, 0
2, 118320, Note_on_c, 0, 60, 0
2, 118320, Note_on_c, 0, 57, 0
2, 118320, Note_on_c, 0, 66, 0
2, 118320, Note_on_c, 0, 63, 87
2, 118320, Note_on_c, 0, 60, 87
2, 118320, Note_on_c, 0, 57, 87
2, 118320, Note_on_c, 0, 54, 87
2, 118320, Note_on_c, 0, 50, 87
2, 118380, Note_on_c, 0, 60, 0
2, 118380, Note_on_c, 0, 63, 0
2, 118380, Note_on_c, 0, 62, 81
2, 118440, Note_on_c, 0, 62, 0
2, 118440, Note_on_c, 0, 63, 81
2, 118440, Note_on_c, 0, 60, 81
2, 118500, Note_on_c, 0, 60, 0
2, 118500, Note_on_c, 0, 63, 0
2, 118500, Note_on_c, 0, 62, 81
2, 118560, Note_on_c, 0, 62, 0
2, 118560, Note_on_c, 0, 50, 0
2, 118560, Note_on_c, 0, 57, 0
2, 118560, Note_on_c, 0, 54, 0
2, 118560, Note_on_c, 0, 67, 91
2, 118560, Note_on_c, 0, 62, 91
2, 118560, Note_on_c, 0, 58, 91
2, 118560, Note_on_c, 0, 55, 91
2, 118560, Note_on_c, 0, 43, 91
2, 118560, Note_on_c, 0, 31, 91
2, 118800, Note_on_c, 0, 31, 0
2, 118800, Note_on_c, 0, 62, 0
2, 118800, Note_on_c, 0, 58, 0
2, 118800, Note_on_c, 0, 43, 0
2, 118800, Note_on_c, 0, 63, 91
2, 118800, Note_on_c, 0, 60, 91
2, 118800, Note_on_c, 0, 48, 91
2, 118800, Note_on_c, 0, 36, 91
2, 118860, Note_on_c, 0, 67, 0
2, 118860, Note_on_c, 0, 55, 0
2, 118860, Note_on_c, 0, 67, 91
2, 118860, Note_on_c, 0, 55, 91
2, 118920, Note_on_c, 0, 55, 0
2, 118920, Note_on_c, 0, 67, 0
2, 118920, Note_on_c, 0, 67, 91
2, 118920, Note_on_c, 0, 55, 91
2, 118980, Note_on_c, 0, 55, 0
2, 118980, Note_on_c, 0, 67, 0
2, 118980, Note_on_c, 0, 67, 91
2, 118980, Note_on_c, 0, 55, 91
2, 119040, Note_on_c, 0, 55, 0
2, 119040, Note_on_c, 0, 36, 0
2, 119040, Note_on_c, 0, 63, 0
2, 119040, Note_on_c, 0, 60, 0
2, 119040, Note_on_c, 0, 67, 0
2, 119040, Note_on_c, 0, 48, 0
2, 119040, Note_on_c, 0, 67, 91
2, 119040, Note_on_c, 0, 62, 91
2, 119040, Note_on_c, 0, 58, 91
2, 119040, Note_on_c, 0, 55, 91
2, 119040, Note_on_c, 0, 43, 91
2, 119040, Note_on_c, 0, 31, 91
2, 119280, Note_on_c, 0, 31, 0
2, 119280, Note_on_c, 0, 62, 0
2, 119280, Note_on_c, 0, 58, 0
2, 119280, Note_on_c, 0, 43, 0
2, 119280, Note_on_c, 0, 63, 91
2, 119280, Note_on_c, 0, 60, 91
2, 119280, Note_on_c, 0, 48, 91
2, 119280, Note_on_c, 0, 36, 91
2, 119340, Note_on_c, 0, 67, 0
2, 119340, Note_on_c, 0, 55, 0
2, 119340, Note_on_c, 0, 67, 91
2, 119340, Note_on_c, 0, 55, 91
2, 119400, Note_on_c, 0, 55, 0
2, 119400, Note_on_c, 0, 67, 0
2, 119400, Note_on_c, 0, 67, 91
2, 119400, Note_on_c, 0, 55, 91
2, 119460, Note_on_c, 0, 55, 0
2, 119460, Note_on_c, 0, 67, 0
2, 119460, Note_on_c, 0, 67, 91
2, 119460, Note_on_c, 0, 55, 91
2, 119520, Note_on_c, 0, 55, 0
2, 119520, Note_on_c, 0, 36, 0
2, 119520, Note_on_c, 0, 63, 0
2, 119520, Note_on_c, 0, 60, 0
2, 119520, Note_on_c, 0, 67, 0
2, 119520, Note_on_c, 0, 48, 0
2, 119520, Note_on_c, 0, 67, 91
2, 119520, Note_on_c, 0, 62, 91
2, 119520, Note_on_c, 0, 58, 91
2, 119520, Note_on_c, 0, 55, 91
2, 119520, Note_on_c, 0, 43, 91
2, 119520, Note_on_c, 0, 31, 91
2, 119640, Note_on_c, 0, 31, 0
2, 119640, Note_on_c, 0, 62, 0
2, 119640, Note_on_c, 0, 58, 0
2, 119640, Note_on_c, 0, 67, 0
2, 119640, Note_on_c, 0, 43, 0
2, 119640, Note_on_c, 0, 55, 0
2, 119640, Note_on_c, 0, 67, 91
2, 119640, Note_on_c, 0, 63, 91
2, 119640, Note_on_c, 0, 60, 91
2, 119640, Note_on_c, 0, 55, 91
2, 119640, Note_on_c, 0, 48, 91
2, 119640, Note_on_c, 0, 36, 91
2, 119760, Note_on_c, 0, 36, 0
2, 119760, Note_on_c, 0, 63, 0
2, 119760, Note_on_c, 0, 60, 0
2, 119760, Note_on_c, 0, 67, 0
2, 119760, Note_on_c, 0, 48, 0
2, 119760, Note_on_c, 0, 55, 0
2, 119760, Note_on_c, 0, 67, 90
2, 119760, Note_on_c, 0, 62, 90
2, 119760, Note_on_c, 0, 58, 90
2, 119760, Note_on_c, 0, 55, 90
2, 119760, Note_on_c, 0, 43, 90
2, 119760, Note_on_c, 0, 31, 90
2, 119880, Note_on_c, 0, 31, 0
2, 119880, Note_on_c, 0, 62, 0
2, 119880, Note_on_c, 0, 58, 0
2, 119880, Note_on_c, 0, 67, 0
2, 119880, Note_on_c, 0, 43, 0
2, 119880, Note_on_c, 0, 55, 0
2, 119880, Note_on_c, 0, 67, 90
2, 119880, Note_on_c, 0, 63, 90
2, 119880, Note_on_c, 0, 60, 90
2, 119880, Note_on_c, 0, 55, 90
2, 119880, Note_on_c, 0, 48, 90
2, 119880, Note_on_c, 0, 36, 90
2, 120000, Note_on_c, 0, 36, 0
2, 120000, Note_on_c, 0, 63, 0
2, 120000, Note_on_c, 0, 60, 0
2, 120000, Note_on_c, 0, 67, 0
2, 120000, Note_on_c, 0, 48, 0
2, 120000, Note_on_c, 0, 55, 0
2, 120000, Note_on_c, 0, 67, 89
2, 120000, Note_on_c, 0, 62, 89
2, 120000, Note_on_c, 0, 58, 89
2, 120000, Note_on_c, 0, 55, 89
2, 120000, Note_on_c, 0, 43, 89
2, 120000, Note_on_c, 0, 31, 89
2, 120120, Note_on_c, 0, 31, 0
2, 120120, Note_on_c, 0, 62, 0
2, 120120, Note_on_c, 0, 58, 0
2, 120120, Note_on_c, 0, 67, 0
2, 120120, Note_on_c, 0, 43, 0
2, 120120, Note_on_c, 0, 55, 0
2, 120120, Note_on_c, 0, 67, 89
2, 120120, Note_on_c, 0, 63, 89
2, 120120, Note_on_c, 0, 60, 89
2, 120120, Note_on_c, 0, 55, 89
2, 120120, Note_on_c, 0, 48, 89
2, 120120, Note_on_c, 0, 36, 89
2, 120240, Note_on_c, 0, 36, 0
2, 120240, Note_on_c, 0, 63, 0
2, 120240, Note_on_c, 0, 60, 0
2, 120240, Note_on_c, 0, 67, 0
2, 120240, Note_on_c, 0, 48, 0
2, 120240, Note_on_c, 0, 55, 0
2, 120240, Note_on_c, 0, 67, 87
2, 120240, Note_on_c, 0, 62, 87
2, 120240, Note_on_c, 0, 58, 87
2, 120240, Note_on_c, 0, 55, 87
2, 120240, Note_on_c, 0, 43, 87
2, 120240, Note_on_c, 0, 31, 87
2, 120360, Note_on_c, 0, 31, 0
2, 120360, Note_on_c, 0, 62, 0
2, 120360, Note_on_c, 0, 58, 0
2, 120360, Note_on_c, 0, 67, 0
2, 120360, Note_on_c, 0, 43, 0
2, 120360, Note_on_c, 0, 55, 0
2, 120360, Note_on_c, 0, 67, 87
2, 120360, Note_on_c, 0, 63, 87
2, 120360, Note_on_c, 0, 60, 87
2, 120360, Note_on_c, 0, 55, 87
2, 120360, Note_on_c, 0, 48, 87
2, 120360, Note_on_c, 0, 36, 87
2, 120480, Note_on_c, 0, 36, 0
2, 120480, Note_on_c, 0, 63, 0
2, 120480, Note_on_c, 0, 60, 0
2, 120480, Note_on_c, 0, 67, 0
2, 120480, Note_on_c, 0, 48, 0
2, 120480, Note_on_c, 0, 55, 0
2, 120480, Note_on_c, 0, 71, 91
2, 120480, Note_on_c, 0, 67, 91
2, 120480, Note_on_c, 0, 62, 91
2, 120480, Note_on_c, 0, 59, 91
2, 120480, Note_on_c, 0, 43, 91
2, 120480, Note_on_c, 0, 31, 91
2, 120600, Note_on_c, 0, 31, 0
2, 120600, Note_on_c, 0, 43, 0
2, 120720, Note_on_c, 0, 62, 0
2, 120720, Note_on_c, 0, 67, 0
2, 120780, Note_on_c, 0, 71, 0
2, 120780, Note_on_c, 0, 59, 0
2, 120780, Note_on_c, 0, 71, 91
2, 120780, Note_on_c, 0, 59, 91
2, 120840, Note_on_c, 0, 59, 0
2, 120840, Note_on_c, 0, 71, 0
2, 120840, Note_on_c, 0, 71, 91
2, 120840, Note_on_c, 0, 59, 91
2, 120900, Note_on_c, 0, 59, 0
2, 120900, Note_on_c, 0, 71, 0
2, 120900, Note_on_c, 0, 71, 91
2, 120900, Note_on_c, 0, 59, 91
2, 120960, Note_on_c, 0, 59, 0
2, 120960, Note_on_c, 0, 71, 0
2, 120960, Note_on_c, 0, 71, 91
2, 120960, Note_on_c, 0, 59, 91
2, 121260, Note_on_c, 0, 59, 0
2, 121260, Note_on_c, 0, 71, 0
2, 121260, Note_on_c, 0, 71, 91
2, 121260, Note_on_c, 0, 59, 91
2, 121320, Note_on_c, 0, 59, 0
2, 121320, Note_on_c, 0, 71, 0
2, 121320, Note_on_c, 0, 71, 91
2, 121320, Note_on_c, 0, 59, 91
2, 121380, Note_on_c, 0, 59, 0
2, 121380, Note_on_c, 0, 71, 0
2, 121380, Note_on_c, 0, 71, 91
2, 121380, Note_on_c, 0, 59, 91
2, 121440, Note_on_c, 0, 59, 0
2, 121440, Note_on_c, 0, 71, 0
2, 121440, Note_on_c, 0, 71, 91
2, 121440, Note_on_c, 0, 59, 91
2, 121560, Note_on_c, 0, 59, 0
2, 121560, Note_on_c, 0, 71, 0
2, 121560, Note_on_c, 0, 71, 91
2, 121560, Note_on_c, 0, 59, 91
2, 121680, Note_on_c, 0, 59, 0
2, 121680, Note_on_c, 0, 71, 0
2, 121680, Note_on_c, 0, 71, 91
2, 121680, Note_on_c, 0, 59, 91
2, 121800, Note_on_c, 0, 59, 0
2, 121800, Note_on_c, 0, 71, 0
2, 121800, Note_on_c, 0, 71, 91
2, 121800, Note_on_c, 0, 59, 91
2, 121920, Note_on_c, 0, 59, 0
2, 121920, Note_on_c, 0, 71, 0
2, 121920, Note_on_c, 0, 71, 91
2, 121920, Note_on_c, 0, 59, 91
2, 122040, Note_on_c, 0, 59, 0
2, 122040, Note_on_c, 0, 71, 0
2, 122040, Note_on_c, 0, 71, 89
2, 122040, Note_on_c, 0, 67, 89
2, 122040, Note_on_c, 0, 62, 89
2, 122040, Note_on_c, 0, 59, 89
2, 122040, Note_on_c, 0, 43, 89
2, 122040, Note_on_c, 0, 31, 89
2, 122160, Note_on_c, 0, 31, 0
2, 122160, Note_on_c, 0, 67, 0
2, 122160, Note_on_c, 0, 62, 0
2, 122160, Note_on_c, 0, 71, 0
2, 122160, Note_on_c, 0, 43, 0
2, 122160, Note_on_c, 0, 59, 0
2, 122160, Note_on_c, 0, 71, 86
2, 122160, Note_on_c, 0, 67, 86
2, 122160, Note_on_c, 0, 62, 86
2, 122160, Note_on_c, 0, 59, 86
2, 122160, Note_on_c, 0, 43, 86
2, 122160, Note_on_c, 0, 31, 86
2, 122280, Note_on_c, 0, 31, 0
2, 122280, Note_on_c, 0, 67, 0
2, 122280, Note_on_c, 0, 62, 0
2, 122280, Note_on_c, 0, 71, 0
2, 122280, Note_on_c, 0, 43, 0
2, 122280, Note_on_c, 0, 59, 0
2, 122280, Note_on_c, 0, 71, 84
2, 122280, Note_on_c, 0, 67, 84
2, 122280, Note_on_c, 0, 62, 84
2, 122280, Note_on_c, 0, 59, 84
2, 122280, Note_on_c, 0, 43, 84
2, 122280, Note_on_c, 0, 31, 84
2, 122400, Note_on_c, 0, 31, 0
2, 122400, Note_on_c, 0, 67, 0
2, 122400, Note_on_c, 0, 62, 0
2, 122400, Note_on_c, 0, 71, 0
2, 122400, Note_on_c, 0, 43, 0
2, 122400, Note_on_c, 0, 59, 0
2, 122400, Note_on_c, 0, 71, 81
2, 122400, Note_on_c, 0, 67, 81
2, 122400, Note_on_c, 0, 62, 81
2, 122400, Note_on_c, 0, 59, 81
2, 122400, Note_on_c, 0, 43, 81
2, 122400, Note_on_c, 0, 31, 81
2, 122520, Note_on_c, 0, 31, 0
2, 122520, Note_on_c, 0, 67, 0
2, 122520, Note_on_c, 0, 62, 0
2, 122520, Note_on_c, 0, 43, 0
2, 122640, Note_on_c, 0, 64, 75
2, 122640, Note_on_c, 0, 55, 75
2, 122640, Note_on_c, 0, 43, 75
2, 122760, Note_on_c, 0, 43, 0
2, 122760, Note_on_c, 0, 64, 0
2, 122760, Note_on_c, 0, 55, 0
2, 122880, Note_on_c, 0, 69, 75
2, 122880, Note_on_c, 0, 63, 75
2, 122880, Note_on_c, 0, 54, 75
2, 122880, Note_on_c, 0, 42, 75
2, 123000, Note_on_c, 0, 42, 0
2, 123000, Note_on_c, 0, 63, 0
2, 123000, Note_on_c, 0, 69, 0
2, 123000, Note_on_c, 0, 54, 0
2, 123120, Note_on_c, 0, 67, 75
2, 123120, Note_on_c, 0, 64, 75
2, 123120, Note_on_c, 0, 52, 75
2, 123120, Note_on_c, 0, 40, 75
2, 123240, Note_on_c, 0, 40, 0
2, 123240, Note_on_c, 0, 59, 0
2, 123240, Note_on_c, 0, 67, 0
2, 123240, Note_on_c, 0, 71, 0
2, 123240, Note_on_c, 0, 52, 0
2, 123240, Note_on_c, 0, 64, 0
2, 123360, Note_on_c, 0, 71, 81
2, 123360, Note_on_c, 0, 66, 81
2, 123360, Note_on_c, 0, 63, 81
2, 123360, Note_on_c, 0, 59, 81
2, 123360, Note_on_c, 0, 47, 81
2, 123360, Note_on_c, 0, 35, 81
2, 123480, Note_on_c, 0, 35, 0
2, 123660, Note_on_c, 0, 66, 0
2, 123660, Note_on_c, 0, 63, 0
2, 123660, Note_on_c, 0, 71, 0
2, 123660, Note_on_c, 0, 47, 0
2, 123660, Note_on_c, 0, 59, 0
2, 123660, Note_on_c, 0, 71, 81
2, 123660, Note_on_c, 0, 59, 81
2, 123660, Note_on_c, 0, 47, 81
2, 123720, Note_on_c, 0, 47, 0
2, 123720, Note_on_c, 0, 59, 0
2, 123720, Note_on_c, 0, 71, 0
2, 123720, Note_on_c, 0, 71, 81
2, 123720, Note_on_c, 0, 59, 81
2, 123720, Note_on_c, 0, 47, 81
2, 123780, Note_on_c, 0, 47, 0
2, 123780, Note_on_c, 0, 59, 0
2, 123780, Note_on_c, 0, 71, 0
2, 123780, Note_on_c, 0, 71, 81
2, 123780, Note_on_c, 0, 59, 81
2, 123780, Note_on_c, 0, 47, 81
2, 123840, Note_on_c, 0, 47, 0
2, 123840, Note_on_c, 0, 59, 0
2, 123840, Note_on_c, 0, 71, 0
2, 123840, Note_on_c, 0, 71, 81
2, 123840, Note_on_c, 0, 59, 81
2, 123840, Note_on_c, 0, 47, 81
2, 124140, Note_on_c, 0, 47, 0
2, 124140, Note_on_c, 0, 59, 0
2, 124140, Note_on_c, 0, 71, 0
2, 124140, Note_on_c, 0, 71, 81
2, 124140, Note_on_c, 0, 59, 81
2, 124140, Note_on_c, 0, 47, 81
2, 124200, Note_on_c, 0, 47, 0
2, 124200, Note_on_c, 0, 59, 0
2, 124200, Note_on_c, 0, 71, 0
2, 124200, Note_on_c, 0, 71, 81
2, 124200, Note_on_c, 0, 59, 81
2, 124200, Note_on_c, 0, 47, 81
2, 124260, Note_on_c, 0, 47, 0
2, 124260, Note_on_c, 0, 59, 0
2, 124260, Note_on_c, 0, 71, 0
2, 124260, Note_on_c, 0, 71, 81
2, 124260, Note_on_c, 0, 59, 81
2, 124260, Note_on_c, 0, 47, 81
2, 124320, Note_on_c, 0, 47, 0
2, 124320, Note_on_c, 0, 59, 0
2, 124320, Note_on_c, 0, 71, 0
2, 124320, Note_on_c, 0, 71, 81
2, 124320, Note_on_c, 0, 59, 81
2, 124320, Note_on_c, 0, 47, 81
2, 124560, Note_on_c, 0, 64, 71
2, 124560, Note_on_c, 0, 43, 71
2, 124680, Note_on_c, 0, 43, 0
2, 124680, Note_on_c, 0, 64, 0
2, 124800, Note_on_c, 0, 69, 71
2, 124800, Note_on_c, 0, 63, 71
2, 124800, Note_on_c, 0, 42, 71
2, 124920, Note_on_c, 0, 42, 0
2, 124920, Note_on_c, 0, 69, 0
2, 124920, Note_on_c, 0, 63, 0
2, 125040, Note_on_c, 0, 47, 0
2, 125040, Note_on_c, 0, 67, 71
2, 125040, Note_on_c, 0, 64, 71
2, 125040, Note_on_c, 0, 40, 71
2, 125160, Note_on_c, 0, 40, 0
2, 125160, Note_on_c, 0, 67, 0
2, 125160, Note_on_c, 0, 71, 0
2, 125160, Note_on_c, 0, 59, 0
2, 125160, Note_on_c, 0, 64, 0
2, 125280, Note_on_c, 0, 71, 81
2, 125280, Note_on_c, 0, 66, 81
2, 125280, Note_on_c, 0, 63, 81
2, 125280, Note_on_c, 0, 59, 81
2, 125280, Note_on_c, 0, 47, 81
2, 125280, Note_on_c, 0, 35, 81
2, 125400, Note_on_c, 0, 35, 0
2, 125400, Note_on_c, 0, 47, 0
2, 125580, Note_on_c, 0, 63, 0
2, 125580, Note_on_c, 0, 71, 0
2, 125580, Note_on_c, 0, 66, 0
2, 125580, Note_on_c, 0, 59, 0
2, 125580, Note_on_c, 0, 71, 79
2, 125580, Note_on_c, 0, 59, 79
2, 125640, Note_on_c, 0, 59, 0
2, 125640, Note_on_c, 0, 71, 0
2, 125640, Note_on_c, 0, 71, 77
2, 125640, Note_on_c, 0, 59, 77
2, 125700, Note_on_c, 0, 59, 0
2, 125700, Note_on_c, 0, 71, 0
2, 125700, Note_on_c, 0, 71, 76
2, 125700, Note_on_c, 0, 59, 76
2, 125760, Note_on_c, 0, 59, 0
2, 125760, Note_on_c, 0, 71, 0
2, 125760, Note_on_c, 0, 71, 75
2, 125760, Note_on_c, 0, 59, 75
2, 126060, Note_on_c, 0, 59, 0
2, 126060, Note_on_c, 0, 71, 0
2, 126060, Note_on_c, 0, 71, 75
2, 126060, Note_on_c, 0, 59, 75
2, 126120, Note_on_c, 0, 59, 0
2, 126120, Note_on_c, 0, 71, 0
2, 126120, Note_on_c, 0, 71, 75
2, 126120, Note_on_c, 0, 59, 75
2, 126180, Note_on_c, 0, 59, 0
2, 126180, Note_on_c, 0, 71, 0
2, 126180, Note_on_c, 0, 71, 75
2, 126180, Note_on_c, 0, 59, 75
2, 126240, Note_on_c, 0, 59, 0
2, 126240, Note_on_c, 0, 71, 0
2, 126240, Channel_aftertouch_c, 0, 91
2, 126240, Note_on_c, 0, 71, 71
2, 126240, Note_on_c, 0, 59, 71
2, 126360, Note_on_c, 0, 71, 71
2, 126360, Note_on_c, 0, 66, 71
2, 126360, Note_on_c, 0, 63, 71
2, 126360, Note_on_c, 0, 59, 71
2, 126480, Note_on_c, 0, 63, 0
2, 126480, Note_on_c, 0, 66, 0
2, 126480, Note_on_c, 0, 59, 0
2, 126480, Note_on_c, 0, 71, 0
2, 126480, Note_on_c, 0, 71, 71
2, 126480, Note_on_c, 0, 66, 71
2, 126480, Note_on_c, 0, 63, 71
2, 126480, Note_on_c, 0, 59, 71
2, 126600, Note_on_c, 0, 63, 0
2, 126600, Note_on_c, 0, 66, 0
2, 126600, Note_on_c, 0, 59, 0
2, 126600, Note_on_c, 0, 71, 0
2, 126600, Note_on_c, 0, 71, 71
2, 126600, Note_on_c, 0, 66, 71
2, 126600, Note_on_c, 0, 63, 71
2, 126600, Note_on_c, 0, 59, 71
2, 126720, Note_on_c, 0, 63, 0
2, 126720, Note_on_c, 0, 66, 0
2, 126720, Note_on_c, 0, 59, 0
2, 126720, Note_on_c, 0, 71, 0
2, 126720, Note_on_c, 0, 71, 71
2, 126720, Note_on_c, 0, 66, 71
2, 126720, Note_on_c, 0, 63, 71
2, 126720, Note_on_c, 0, 59, 71
2, 126840, Note_on_c, 0, 63, 0
2, 126840, Note_on_c, 0, 66, 0
2, 126840, Note_on_c, 0, 59, 0
2, 126840, Note_on_c, 0, 71, 0
2, 126840, Note_on_c, 0, 71, 73
2, 126840, Note_on_c, 0, 66, 73
2, 126840, Note_on_c, 0, 63, 73
2, 126840, Note_on_c, 0, 59, 73
2, 126960, Note_on_c, 0, 59, 0
2, 126960, Note_on_c, 0, 59, 0
2, 126960, Note_on_c, 0, 71, 0
2, 126960, Note_on_c, 0, 71, 0
2, 126960, Note_on_c, 0, 63, 0
2, 126960, Note_on_c, 0, 66, 0
2, 126960, Note_on_c, 0, 71, 76
2, 126960, Note_on_c, 0, 66, 76
2, 126960, Note_on_c, 0, 63, 76
2, 126960, Note_on_c, 0, 59, 76
2, 127080, Note_on_c, 0, 59, 0
2, 127080, Note_on_c, 0, 71, 0
2, 127080, Note_on_c, 0, 66, 0
2, 127080, Note_on_c, 0, 63, 0
2, 127080, Note_on_c, 0, 71, 79
2, 127080, Note_on_c, 0, 66, 79
2, 127080, Note_on_c, 0, 63, 79
2, 127080, Note_on_c, 0, 59, 79
2, 127200, Note_on_c, 0, 59, 0
2, 127200, Note_on_c, 0, 71, 0
2, 127200, Note_on_c, 0, 66, 0
2, 127200, Note_on_c, 0, 63, 0
2, 127200, Note_on_c, 0, 72, 89
2, 127200, Note_on_c, 0, 67, 87
2, 127200, Note_on_c, 0, 64, 87
2, 127200, Note_on_c, 0, 59, 87
2, 127680, Note_on_c, 0, 64, 0
2, 127680, Note_on_c, 0, 67, 0
2, 127680, Note_on_c, 0, 69, 87
2, 127680, Note_on_c, 0, 66, 71
2, 127920, Note_on_c, 0, 66, 0
2, 127920, Note_on_c, 0, 69, 0
2, 127920, Note_on_c, 0, 81, 87
2, 127920, Note_on_c, 0, 67, 87
2, 127920, Note_on_c, 0, 64, 71
2, 128100, Note_on_c, 0, 81, 0
2, 128100, Note_on_c, 0, 81, 87
2, 128160, Note_on_c, 0, 81, 0
2, 128160, Note_on_c, 0, 64, 0
2, 128160, Note_on_c, 0, 59, 0
2, 128160, Note_on_c, 0, 72, 0
2, 128160, Note_on_c, 0, 67, 0
2, 128160, Note_on_c, 0, 81, 89
2, 128160, Note_on_c, 0, 66, 87
2, 128160, Note_on_c, 0, 63, 87
2, 128160, Note_on_c, 0, 59, 87
2, 128400, Note_on_c, 0, 59, 0
2, 128400, Note_on_c, 0, 81, 0
2, 128400, Note_on_c, 0, 66, 0
2, 128400, Note_on_c, 0, 63, 0
2, 128400, Note_on_c, 0, 71, 89
2, 128520, Note_on_c, 0, 71, 0
2, 128760, Note_on_c, 0, 71, 89
2, 128760, Note_on_c, 0, 66, 87
2, 128760, Note_on_c, 0, 63, 87
2, 128880, Note_on_c, 0, 63, 0
2, 128880, Note_on_c, 0, 66, 0
2, 128880, Note_on_c, 0, 71, 0
2, 128880, Note_on_c, 0, 71, 89
2, 128880, Note_on_c, 0, 66, 87
2, 128880, Note_on_c, 0, 63, 87
2, 129000, Note_on_c, 0, 63, 0
2, 129000, Note_on_c, 0, 66, 0
2, 129000, Note_on_c, 0, 71, 0
2, 129000, Note_on_c, 0, 71, 89
2, 129000, Note_on_c, 0, 66, 87
2, 129000, Note_on_c, 0, 63, 87
2, 129120, Note_on_c, 0, 63, 0
2, 129120, Note_on_c, 0, 66, 0
2, 129120, Note_on_c, 0, 71, 0
2, 129120, Note_on_c, 0, 72, 89
2, 129120, Note_on_c, 0, 67, 87
2, 129120, Note_on_c, 0, 64, 87
2, 129600, Note_on_c, 0, 64, 0
2, 129600, Note_on_c, 0, 67, 0
2, 129600, Note_on_c, 0, 72, 0
2, 129600, Note_on_c, 0, 72, 89
2, 129600, Note_on_c, 0, 69, 87
2, 129600, Note_on_c, 0, 66, 87
2, 129840, Note_on_c, 0, 72, 0
2, 129840, Note_on_c, 0, 81, 89
2, 130020, Note_on_c, 0, 81, 0
2, 130020, Note_on_c, 0, 78, 89
2, 130080, Note_on_c, 0, 78, 0
2, 130080, Note_on_c, 0, 76, 89
2, 130080, Note_on_c, 0, 59, 87
2, 130260, Note_on_c, 0, 76, 0
2, 130260, Note_on_c, 0, 75, 71
2, 130320, Note_on_c, 0, 75, 0
2, 130320, Note_on_c, 0, 84, 71
2, 130380, Note_on_c, 0, 84, 0
2, 130380, Note_on_c, 0, 81, 71
2, 130440, Note_on_c, 0, 81, 0
2, 130440, Note_on_c, 0, 79, 71
2, 130500, Note_on_c, 0, 79, 0
2, 130500, Note_on_c, 0, 78, 71
2, 130560, Note_on_c, 0, 78, 0
2, 130560, Note_on_c, 0, 59, 0
2, 130560, Note_on_c, 0, 66, 0
2, 130560, Note_on_c, 0, 69, 0
2, 130560, Note_on_c, 0, 87, 71
2, 130620, Note_on_c, 0, 87, 0
2, 130620, Note_on_c, 0, 84, 71
2, 130680, Note_on_c, 0, 84, 0
2, 130680, Note_on_c, 0, 83, 71
2, 130740, Note_on_c, 0, 83, 0
2, 130740, Note_on_c, 0, 81, 71
2, 130800, Note_on_c, 0, 81, 0
2, 130800, Note_on_c, 0, 93, 71
2, 130860, Note_on_c, 0, 93, 0
2, 130860, Note_on_c, 0, 90, 71
2, 130920, Note_on_c, 0, 90, 0
2, 130920, Note_on_c, 0, 88, 71
2, 131040, Note_on_c, 0, 88, 0
2, 131040, Note_on_c, 0, 87, 71
2, 131160, Note_on_c, 0, 87, 0
2, 131280, Note_on_c, 0, 71, 89
2, 131280, Note_on_c, 0, 66, 87
2, 131280, Note_on_c, 0, 63, 87
2, 131370, Note_on_c, 0, 63, 0
2, 131370, Note_on_c, 0, 66, 0
2, 131370, Note_on_c, 0, 71, 0
2, 131370, Note_on_c, 0, 71, 89
2, 131370, Note_on_c, 0, 66, 87
2, 131370, Note_on_c, 0, 63, 87
2, 131400, Note_on_c, 0, 63, 0
2, 131400, Note_on_c, 0, 66, 0
2, 131400, Note_on_c, 0, 71, 0
2, 131400, Note_on_c, 0, 71, 89
2, 131400, Note_on_c, 0, 66, 87
2, 131400, Note_on_c, 0, 63, 87
2, 131520, Note_on_c, 0, 63, 0
2, 131520, Note_on_c, 0, 66, 0
2, 131520, Note_on_c, 0, 71, 0
2, 131520, Note_on_c, 0, 72, 89
2, 131520, Note_on_c, 0, 67, 87
2, 131520, Note_on_c, 0, 64, 87
2, 131580, Note_on_c, 0, 64, 0
2, 131580, Note_on_c, 0, 67, 0
2, 131580, Note_on_c, 0, 72, 0
2, 131640, Note_on_c, 0, 72, 89
2, 131640, Note_on_c, 0, 67, 87
2, 131640, Note_on_c, 0, 64, 87
2, 131730, Note_on_c, 0, 64, 0
2, 131730, Note_on_c, 0, 67, 0
2, 131730, Note_on_c, 0, 72, 0
2, 131730, Note_on_c, 0, 72, 89
2, 131730, Note_on_c, 0, 67, 87
2, 131730, Note_on_c, 0, 64, 87
2, 131760, Note_on_c, 0, 64, 0
2, 131760, Note_on_c, 0, 67, 0
2, 131760, Note_on_c, 0, 72, 0
2, 131760, Note_on_c, 0, 72, 87
2, 131760, Note_on_c, 0, 67, 87
2, 131760, Note_on_c, 0, 64, 87
2, 131880, Note_on_c, 0, 64, 0
2, 131880, Note_on_c, 0, 67, 0
2, 131880, Note_on_c, 0, 75, 89
2, 131880, Note_on_c, 0, 69, 87
2, 131880, Note_on_c, 0, 66, 87
2, 131940, Note_on_c, 0, 66, 0
2, 131940, Note_on_c, 0, 72, 0
2, 131940, Note_on_c, 0, 75, 0
2, 131940, Note_on_c, 0, 69, 0
2, 132000, Note_on_c, 0, 75, 89
2, 132000, Note_on_c, 0, 72, 87
2, 132000, Note_on_c, 0, 69, 87
2, 132000, Note_on_c, 0, 66, 87
2, 132090, Note_on_c, 0, 66, 0
2, 132090, Note_on_c, 0, 75, 0
2, 132090, Note_on_c, 0, 72, 0
2, 132090, Note_on_c, 0, 69, 0
2, 132090, Note_on_c, 0, 75, 89
2, 132090, Note_on_c, 0, 72, 87
2, 132090, Note_on_c, 0, 69, 87
2, 132090, Note_on_c, 0, 66, 87
2, 132120, Note_on_c, 0, 66, 0
2, 132120, Note_on_c, 0, 75, 0
2, 132120, Note_on_c, 0, 72, 0
2, 132120, Note_on_c, 0, 69, 0
2, 132120, Note_on_c, 0, 75, 89
2, 132120, Note_on_c, 0, 72, 87
2, 132120, Note_on_c, 0, 69, 87
2, 132120, Note_on_c, 0, 66, 87
2, 132240, Note_on_c, 0, 72, 0
2, 132240, Note_on_c, 0, 75, 0
2, 132240, Note_on_c, 0, 83, 89
2, 132240, Note_on_c, 0, 71, 87
2, 132360, Note_on_c, 0, 69, 0
2, 132360, Note_on_c, 0, 66, 0
2, 132360, Note_on_c, 0, 64, 87
2, 132360, Note_on_c, 0, 55, 87
2, 132360, Note_on_c, 0, 59, 71
2, 132360, Note_on_c, 0, 47, 71
2, 132450, Note_on_c, 0, 55, 0
2, 132450, Note_on_c, 0, 64, 0
2, 132450, Note_on_c, 0, 66, 87
2, 132450, Note_on_c, 0, 57, 87
2, 132480, Note_on_c, 0, 57, 0
2, 132480, Note_on_c, 0, 47, 0
2, 132480, Note_on_c, 0, 59, 0
2, 132480, Note_on_c, 0, 66, 0
2, 132480, Note_on_c, 0, 68, 87
2, 132480, Note_on_c, 0, 64, 87
2, 132480, Note_on_c, 0, 59, 71
2, 132480, Note_on_c, 0, 52, 71
2, 132480, Note_on_c, 0, 40, 87
2, 132600, Note_on_c, 0, 71, 0
2, 132600, Note_on_c, 0, 83, 0
2, 132660, Note_on_c, 0, 64, 0
2, 132660, Note_on_c, 0, 59, 0
2, 132660, Note_on_c, 0, 68, 0
2, 132660, Note_on_c, 0, 68, 87
2, 132660, Note_on_c, 0, 59, 71
2, 132720, Note_on_c, 0, 59, 0
2, 132720, Note_on_c, 0, 52, 0
2, 132720, Note_on_c, 0, 40, 0
2, 132720, Note_on_c, 0, 68, 0
2, 132720, Note_on_c, 0, 69, 87
2, 132720, Note_on_c, 0, 64, 87
2, 132720, Note_on_c, 0, 61, 71
2, 132720, Note_on_c, 0, 52, 71
2, 132720, Note_on_c, 0, 40, 87
2, 132780, Note_on_c, 0, 61, 0
2, 132780, Note_on_c, 0, 69, 0
2, 132780, Note_on_c, 0, 64, 0
2, 132780, Note_on_c, 0, 68, 87
2, 132780, Note_on_c, 0, 59, 71
2, 132840, Note_on_c, 0, 59, 0
2, 132840, Note_on_c, 0, 40, 0
2, 132840, Note_on_c, 0, 52, 0
2, 132840, Note_on_c, 0, 68, 0
2, 132840, Note_on_c, 0, 68, 89
2, 132840, Note_on_c, 0, 63, 87
2, 132840, Note_on_c, 0, 59, 87
2, 132840, Note_on_c, 0, 47, 87
2, 132960, Note_on_c, 0, 59, 0
2, 132960, Note_on_c, 0, 68, 0
2, 132960, Note_on_c, 0, 66, 89
2, 132960, Note_on_c, 0, 57, 87
2, 133080, Note_on_c, 0, 57, 0
2, 133080, Note_on_c, 0, 66, 0
2, 133080, Note_on_c, 0, 63, 0
2, 133080, Note_on_c, 0, 64, 89
2, 133080, Note_on_c, 0, 59, 87
2, 133080, Note_on_c, 0, 56, 71
2, 133140, Note_on_c, 0, 56, 0
2, 133140, Note_on_c, 0, 64, 0
2, 133140, Note_on_c, 0, 63, 89
2, 133140, Note_on_c, 0, 54, 71
2, 133200, Note_on_c, 0, 54, 0
2, 133200, Note_on_c, 0, 63, 0
2, 133200, Note_on_c, 0, 59, 0
2, 133200, Note_on_c, 0, 64, 89
2, 133200, Note_on_c, 0, 59, 87
2, 133200, Note_on_c, 0, 56, 87
2, 133260, Note_on_c, 0, 56, 0
2, 133260, Note_on_c, 0, 59, 0
2, 133260, Note_on_c, 0, 64, 0
2, 133260, Note_on_c, 0, 56, 89
2, 133260, Note_on_c, 0, 52, 87
2, 133320, Note_on_c, 0, 52, 0
2, 133320, Note_on_c, 0, 56, 0
2, 133320, Note_on_c, 0, 47, 0
2, 133320, Note_on_c, 0, 59, 89
2, 133320, Note_on_c, 0, 56, 87
2, 133320, Note_on_c, 0, 52, 87
2, 133320, Note_on_c, 0, 47, 87
2, 133320, Note_on_c, 0, 35, 71
2, 133440, Note_on_c, 0, 35, 0
2, 133440, Note_on_c, 0, 52, 0
2, 133440, Note_on_c, 0, 59, 0
2, 133440, Note_on_c, 0, 56, 0
2, 133440, Note_on_c, 0, 47, 0
2, 133440, Note_on_c, 0, 57, 89
2, 133440, Note_on_c, 0, 54, 87
2, 133440, Note_on_c, 0, 51, 87
2, 133440, Note_on_c, 0, 47, 87
2, 133440, Note_on_c, 0, 35, 71
2, 133560, Note_on_c, 0, 35, 0
2, 133560, Note_on_c, 0, 51, 0
2, 133560, Note_on_c, 0, 57, 0
2, 133560, Note_on_c, 0, 54, 0
2, 133560, Note_on_c, 0, 47, 0
2, 133560, Note_on_c, 0, 56, 89
2, 133560, Note_on_c, 0, 52, 87
2, 133560, Note_on_c, 0, 40, 87
2, 133680, Note_on_c, 0, 40, 0
2, 133680, Note_on_c, 0, 52, 0
2, 133680, Note_on_c, 0, 56, 0
2, 133740, Note_on_c, 0, 59, 89
2, 133740, Note_on_c, 0, 56, 87
2, 133740, Note_on_c, 0, 40, 87
2, 133800, Note_on_c, 0, 40, 0
2, 133800, Note_on_c, 0, 56, 0
2, 133800, Note_on_c, 0, 59, 0
2, 133800, Note_on_c, 0, 64, 89
2, 133800, Note_on_c, 0, 59, 87
2, 133800, Note_on_c, 0, 44, 87
2, 133860, Note_on_c, 0, 44, 0
2, 133860, Note_on_c, 0, 59, 0
2, 133860, Note_on_c, 0, 64, 0
2, 133860, Note_on_c, 0, 66, 89
2, 133860, Note_on_c, 0, 63, 87
2, 133860, Note_on_c, 0, 59, 87
2, 133860, Note_on_c, 0, 47, 87
2, 133920, Note_on_c, 0, 47, 0
2, 133920, Note_on_c, 0, 66, 0
2, 133920, Note_on_c, 0, 63, 0
2, 133920, Note_on_c, 0, 59, 0
2, 133920, Note_on_c, 0, 68, 89
2, 133920, Note_on_c, 0, 64, 87
2, 133920, Note_on_c, 0, 59, 87
2, 133920, Note_on_c, 0, 52, 87
2, 133920, Note_on_c, 0, 40, 71
2, 134040, Note_on_c, 0, 40, 0
2, 134040, Note_on_c, 0, 59, 0
2, 134040, Note_on_c, 0, 68, 0
2, 134040, Note_on_c, 0, 64, 0
2, 134040, Note_on_c, 0, 52, 0
2, 134040, Note_on_c, 0, 68, 89
2, 134040, Note_on_c, 0, 64, 87
2, 134040, Note_on_c, 0, 59, 87
2, 134040, Note_on_c, 0, 52, 87
2, 134040, Note_on_c, 0, 40, 71
2, 134160, Note_on_c, 0, 40, 0
2, 134160, Note_on_c, 0, 59, 0
2, 134160, Note_on_c, 0, 68, 0
2, 134160, Note_on_c, 0, 64, 0
2, 134160, Note_on_c, 0, 52, 0
2, 134160, Note_on_c, 0, 68, 89
2, 134160, Note_on_c, 0, 66, 87
2, 134160, Note_on_c, 0, 60, 87
2, 134160, Note_on_c, 0, 51, 87
2, 134160, Note_on_c, 0, 39, 71
2, 134280, Note_on_c, 0, 39, 0
2, 134280, Note_on_c, 0, 60, 0
2, 134280, Note_on_c, 0, 68, 0
2, 134280, Note_on_c, 0, 66, 0
2, 134280, Note_on_c, 0, 51, 0
2, 134280, Note_on_c, 0, 68, 89
2, 134280, Note_on_c, 0, 64, 87
2, 134280, Note_on_c, 0, 61, 87
2, 134280, Note_on_c, 0, 49, 87
2, 134280, Note_on_c, 0, 37, 71
2, 134400, Note_on_c, 0, 37, 0
2, 134400, Note_on_c, 0, 61, 0
2, 134400, Note_on_c, 0, 49, 0
2, 134400, Note_on_c, 0, 64, 0
2, 134400, Note_on_c, 0, 61, 87
2, 134400, Note_on_c, 0, 59, 87
2, 134400, Note_on_c, 0, 40, 87
2, 134460, Note_on_c, 0, 68, 0
2, 134460, Note_on_c, 0, 71, 89
2, 134520, Note_on_c, 0, 71, 0
2, 134520, Note_on_c, 0, 70, 89
2, 134580, Note_on_c, 0, 70, 0
2, 134580, Note_on_c, 0, 61, 0
2, 134580, Note_on_c, 0, 59, 0
2, 134580, Note_on_c, 0, 40, 0
2, 134580, Note_on_c, 0, 68, 89
2, 134580, Note_on_c, 0, 61, 87
2, 134580, Note_on_c, 0, 59, 87
2, 134580, Note_on_c, 0, 40, 87
2, 134640, Note_on_c, 0, 40, 0
2, 134640, Note_on_c, 0, 68, 0
2, 134640, Note_on_c, 0, 61, 0
2, 134640, Note_on_c, 0, 59, 0
2, 134640, Note_on_c, 0, 66, 89
2, 134640, Note_on_c, 0, 63, 87
2, 134640, Note_on_c, 0, 42, 87
2, 134700, Note_on_c, 0, 63, 0
2, 134700, Note_on_c, 0, 66, 0
2, 134700, Note_on_c, 0, 63, 89
2, 134700, Note_on_c, 0, 59, 87
2, 134760, Note_on_c, 0, 59, 0
2, 134760, Note_on_c, 0, 63, 0
2, 134760, Note_on_c, 0, 66, 89
2, 134760, Note_on_c, 0, 63, 87
2, 134760, Note_on_c, 0, 59, 87
2, 134880, Note_on_c, 0, 59, 0
2, 134880, Note_on_c, 0, 42, 0
2, 134880, Note_on_c, 0, 58, 87
2, 134880, Note_on_c, 0, 42, 87
2, 134940, Note_on_c, 0, 63, 0
2, 134940, Note_on_c, 0, 66, 0
2, 134940, Note_on_c, 0, 64, 89
2, 134940, Note_on_c, 0, 61, 87
2, 135000, Note_on_c, 0, 61, 0
2, 135000, Note_on_c, 0, 42, 0
2, 135000, Note_on_c, 0, 58, 0
2, 135000, Note_on_c, 0, 64, 0
2, 135000, Note_on_c, 0, 63, 89
2, 135000, Note_on_c, 0, 59, 87
2, 135000, Note_on_c, 0, 44, 87
2, 135060, Note_on_c, 0, 44, 0
2, 135060, Note_on_c, 0, 59, 0
2, 135060, Note_on_c, 0, 63, 0
2, 135120, Note_on_c, 0, 66, 89
2, 135120, Note_on_c, 0, 59, 87
2, 135120, Note_on_c, 0, 57, 87
2, 135120, Note_on_c, 0, 39, 87
2, 135240, Note_on_c, 0, 39, 0
2, 135240, Note_on_c, 0, 57, 0
2, 135240, Note_on_c, 0, 55, 87
2, 135240, Note_on_c, 0, 40, 87
2, 135300, Note_on_c, 0, 59, 0
2, 135300, Note_on_c, 0, 66, 0
2, 135300, Note_on_c, 0, 64, 89
2, 135300, Note_on_c, 0, 61, 87
2, 135360, Note_on_c, 0, 61, 0
2, 135360, Note_on_c, 0, 40, 0
2, 135360, Note_on_c, 0, 55, 0
2, 135360, Note_on_c, 0, 64, 0
2, 135360, Note_on_c, 0, 63, 89
2, 135360, Note_on_c, 0, 54, 87
2, 135360, Note_on_c, 0, 42, 87
2, 135420, Note_on_c, 0, 63, 0
2, 135420, Note_on_c, 0, 59, 89
2, 135420, Note_on_c, 0, 51, 87
2, 135480, Note_on_c, 0, 51, 0
2, 135480, Note_on_c, 0, 54, 0
2, 135480, Note_on_c, 0, 42, 0
2, 135480, Note_on_c, 0, 59, 0
2, 135480, Note_on_c, 0, 63, 89
2, 135480, Note_on_c, 0, 59, 87
2, 135480, Note_on_c, 0, 54, 87
2, 135480, Note_on_c, 0, 42, 87
2, 135600, Note_on_c, 0, 42, 0
2, 135600, Note_on_c, 0, 59, 0
2, 135600, Note_on_c, 0, 58, 87
2, 135600, Note_on_c, 0, 42, 87
2, 135660, Note_on_c, 0, 54, 0
2, 135660, Note_on_c, 0, 63, 0
2, 135660, Note_on_c, 0, 61, 89
2, 135660, Note_on_c, 0, 52, 87
2, 135720, Note_on_c, 0, 52, 0
2, 135720, Note_on_c, 0, 42, 0
2, 135720, Note_on_c, 0, 58, 0
2, 135720, Note_on_c, 0, 61, 0
2, 135720, Note_on_c, 0, 61, 89
2, 135720, Note_on_c, 0, 58, 87
2, 135720, Note_on_c, 0, 52, 87
2, 135720, Note_on_c, 0, 47, 87
2, 135720, Note_on_c, 0, 35, 71
2, 135840, Note_on_c, 0, 52, 0
2, 135840, Note_on_c, 0, 61, 0
2, 135840, Note_on_c, 0, 58, 0
2, 135840, Note_on_c, 0, 59, 89
2, 135840, Note_on_c, 0, 51, 87
2, 135960, Note_on_c, 0, 51, 0
2, 135960, Note_on_c, 0, 35, 0
2, 135960, Note_on_c, 0, 47, 0
2, 135960, Note_on_c, 0, 59, 0
2, 135960, Note_on_c, 0, 76, 89
2, 135960, Note_on_c, 0, 64, 87
2, 135960, Note_on_c, 0, 59, 87
2, 135960, Note_on_c, 0, 56, 87
2, 136050, Note_on_c, 0, 56, 0
2, 136050, Note_on_c, 0, 76, 0
2, 136050, Note_on_c, 0, 64, 0
2, 136050, Note_on_c, 0, 59, 0
2, 136050, Note_on_c, 0, 78, 89
2, 136050, Note_on_c, 0, 66, 87
2, 136050, Note_on_c, 0, 57, 87
2, 136080, Note_on_c, 0, 57, 0
2, 136080, Note_on_c, 0, 66, 0
2, 136080, Note_on_c, 0, 78, 0
2, 136080, Note_on_c, 0, 80, 89
2, 136080, Note_on_c, 0, 68, 87
2, 136080, Note_on_c, 0, 64, 87
2, 136080, Note_on_c, 0, 59, 87
2, 136080, Note_on_c, 0, 40, 71
2, 136260, Note_on_c, 0, 59, 0
2, 136260, Note_on_c, 0, 64, 0
2, 136260, Note_on_c, 0, 80, 0
2, 136260, Note_on_c, 0, 68, 0
2, 136260, Note_on_c, 0, 80, 89
2, 136260, Note_on_c, 0, 68, 87
2, 136260, Note_on_c, 0, 59, 87
2, 136320, Note_on_c, 0, 59, 0
2, 136320, Note_on_c, 0, 68, 0
2, 136320, Note_on_c, 0, 80, 0
2, 136320, Note_on_c, 0, 81, 89
2, 136320, Note_on_c, 0, 69, 87
2, 136320, Note_on_c, 0, 64, 87
2, 136320, Note_on_c, 0, 61, 87
2, 136380, Note_on_c, 0, 61, 0
2, 136380, Note_on_c, 0, 69, 0
2, 136380, Note_on_c, 0, 81, 0
2, 136380, Note_on_c, 0, 80, 89
2, 136380, Note_on_c, 0, 68, 87
2, 136380, Note_on_c, 0, 59, 87
2, 136440, Note_on_c, 0, 59, 0
2, 136440, Note_on_c, 0, 80, 0
2, 136440, Note_on_c, 0, 64, 0
2, 136440, Note_on_c, 0, 40, 0
2, 136440, Note_on_c, 0, 68, 0
2, 136440, Note_on_c, 0, 80, 89
2, 136440, Note_on_c, 0, 68, 87
2, 136440, Note_on_c, 0, 63, 87
2, 136440, Note_on_c, 0, 59, 87
2, 136440, Note_on_c, 0, 57, 71
2, 136440, Note_on_c, 0, 47, 71
2, 136560, Note_on_c, 0, 68, 0
2, 136560, Note_on_c, 0, 80, 0
2, 136560, Note_on_c, 0, 78, 89
2, 136560, Note_on_c, 0, 66, 87
2, 136620, Note_on_c, 0, 66, 0
2, 136620, Note_on_c, 0, 78, 0
2, 136680, Note_on_c, 0, 63, 0
2, 136680, Note_on_c, 0, 59, 0
2, 136680, Note_on_c, 0, 47, 0
2, 136680, Note_on_c, 0, 57, 0
2, 136680, Note_on_c, 0, 81, 89
2, 136680, Note_on_c, 0, 66, 87
2, 136680, Note_on_c, 0, 63, 87
2, 136680, Note_on_c, 0, 59, 87
2, 136680, Note_on_c, 0, 57, 71
2, 136680, Note_on_c, 0, 45, 71
2, 136710, Note_on_c, 0, 81, 0
2, 136710, Note_on_c, 0, 78, 89
2, 136740, Note_on_c, 0, 78, 0
2, 136740, Note_on_c, 0, 76, 89
2, 136770, Note_on_c, 0, 76, 0
2, 136770, Note_on_c, 0, 75, 89
2, 136800, Note_on_c, 0, 75, 0
2, 136800, Note_on_c, 0, 45, 0
2, 136800, Note_on_c, 0, 59, 0
2, 136800, Note_on_c, 0, 66, 0
2, 136800, Note_on_c, 0, 63, 0
2, 136800, Note_on_c, 0, 57, 0
2, 136800, Note_on_c, 0, 76, 89
2, 136800, Note_on_c, 0, 64, 87
2, 136800, Note_on_c, 0, 59, 87
2, 136800, Note_on_c, 0, 56, 71
2, 136800, Note_on_c, 0, 44, 87
2, 136830, Note_on_c, 0, 76, 0
2, 136830, Note_on_c, 0, 80, 89
2, 136860, Note_on_c, 0, 80, 0
2, 136860, Note_on_c, 0, 44, 0
2, 136860, Note_on_c, 0, 88, 89
2, 136860, Note_on_c, 0, 40, 87
2, 136890, Note_on_c, 0, 88, 0
2, 136890, Note_on_c, 0, 85, 89
2, 136920, Note_on_c, 0, 85, 0
2, 136920, Note_on_c, 0, 40, 0
2, 136920, Note_on_c, 0, 56, 0
2, 136920, Note_on_c, 0, 59, 0
2, 136920, Note_on_c, 0, 64, 0
2, 136920, Note_on_c, 0, 83, 89
2, 136920, Note_on_c, 0, 76, 87
2, 136920, Note_on_c, 0, 68, 87
2, 136920, Note_on_c, 0, 64, 87
2, 136920, Note_on_c, 0, 59, 71
2, 136920, Note_on_c, 0, 56, 71
2, 136920, Note_on_c, 0, 47, 87
2, 137040, Note_on_c, 0, 56, 0
2, 137040, Note_on_c, 0, 64, 0
2, 137040, Note_on_c, 0, 76, 0
2, 137040, Note_on_c, 0, 68, 0
2, 137040, Note_on_c, 0, 59, 0
2, 137040, Note_on_c, 0, 75, 87
2, 137040, Note_on_c, 0, 66, 87
2, 137040, Note_on_c, 0, 59, 87
2, 137070, Note_on_c, 0, 83, 0
2, 137070, Note_on_c, 0, 84, 89
2, 137100, Note_on_c, 0, 84, 0
2, 137100, Note_on_c, 0, 85, 89
2, 137130, Note_on_c, 0, 85, 0
2, 137130, Note_on_c, 0, 81, 89
2, 137160, Note_on_c, 0, 81, 0
2, 137160, Note_on_c, 0, 59, 0
2, 137160, Note_on_c, 0, 47, 0
2, 137160, Note_on_c, 0, 75, 0
2, 137160, Note_on_c, 0, 66, 0
2, 137160, Note_on_c, 0, 81, 89
2, 137160, Note_on_c, 0, 75, 87
2, 137160, Note_on_c, 0, 66, 87
2, 137160, Note_on_c, 0, 59, 71
2, 137280, Note_on_c, 0, 59, 0
2, 137280, Note_on_c, 0, 81, 0
2, 137280, Note_on_c, 0, 75, 0
2, 137280, Note_on_c, 0, 66, 0
2, 137280, Note_on_c, 0, 80, 89
2, 137280, Note_on_c, 0, 76, 87
2, 137280, Note_on_c, 0, 68, 87
2, 137280, Note_on_c, 0, 64, 71
2, 137340, Note_on_c, 0, 64, 0
2, 137340, Note_on_c, 0, 80, 0
2, 137340, Note_on_c, 0, 76, 0
2, 137340, Note_on_c, 0, 68, 0
2, 137400, Note_on_c, 0, 71, 89
2, 137400, Note_on_c, 0, 64, 87
2, 137400, Note_on_c, 0, 59, 87
2, 137400, Note_on_c, 0, 56, 87
2, 137400, Note_on_c, 0, 52, 71
2, 137400, Note_on_c, 0, 44, 71
2, 137490, Note_on_c, 0, 71, 0
2, 137490, Note_on_c, 0, 68, 89
2, 137520, Note_on_c, 0, 68, 0
2, 137520, Note_on_c, 0, 44, 0
2, 137520, Note_on_c, 0, 56, 0
2, 137520, Note_on_c, 0, 64, 0
2, 137520, Note_on_c, 0, 59, 0
2, 137520, Note_on_c, 0, 52, 0
2, 137520, Note_on_c, 0, 66, 89
2, 137520, Note_on_c, 0, 64, 87
2, 137520, Note_on_c, 0, 61, 87
2, 137520, Note_on_c, 0, 54, 87
2, 137520, Note_on_c, 0, 52, 71
2, 137520, Note_on_c, 0, 45, 71
2, 137700, Note_on_c, 0, 45, 0
2, 137700, Note_on_c, 0, 64, 0
2, 137700, Note_on_c, 0, 61, 0
2, 137700, Note_on_c, 0, 66, 0
2, 137700, Note_on_c, 0, 52, 0
2, 137700, Note_on_c, 0, 54, 0
2, 137700, Note_on_c, 0, 76, 89
2, 137700, Note_on_c, 0, 66, 87
2, 137700, Note_on_c, 0, 64, 87
2, 137700, Note_on_c, 0, 61, 71
2, 137700, Note_on_c, 0, 57, 71
2, 137760, Note_on_c, 0, 57, 0
2, 137760, Note_on_c, 0, 64, 0
2, 137760, Note_on_c, 0, 76, 0
2, 137760, Note_on_c, 0, 66, 0
2, 137760, Note_on_c, 0, 61, 0
2, 137760, Note_on_c, 0, 75, 89
2, 137760, Note_on_c, 0, 66, 87
2, 137760, Note_on_c, 0, 64, 87
2, 137760, Note_on_c, 0, 61, 71
2, 137760, Note_on_c, 0, 57, 71
2, 137820, Note_on_c, 0, 57, 0
2, 137820, Note_on_c, 0, 64, 0
2, 137820, Note_on_c, 0, 75, 0
2, 137820, Note_on_c, 0, 66, 0
2, 137820, Note_on_c, 0, 61, 0
2, 137820, Note_on_c, 0, 73, 89
2, 137820, Note_on_c, 0, 66, 87
2, 137820, Note_on_c, 0, 64, 87
2, 137820, Note_on_c, 0, 61, 71
2, 137820, Note_on_c, 0, 57, 71
2, 137880, Note_on_c, 0, 57, 0
2, 137880, Note_on_c, 0, 64, 0
2, 137880, Note_on_c, 0, 73, 0
2, 137880, Note_on_c, 0, 66, 0
2, 137880, Note_on_c, 0, 61, 0
2, 137880, Note_on_c, 0, 73, 89
2, 137880, Note_on_c, 0, 66, 87
2, 137880, Note_on_c, 0, 63, 87
2, 137880, Note_on_c, 0, 57, 87
2, 138000, Note_on_c, 0, 73, 0
2, 138000, Note_on_c, 0, 71, 89
2, 138060, Note_on_c, 0, 71, 0
2, 138060, Note_on_c, 0, 57, 0
2, 138060, Note_on_c, 0, 63, 0
2, 138060, Note_on_c, 0, 66, 0
2, 138060, Note_on_c, 0, 83, 89
2, 138060, Note_on_c, 0, 71, 87
2, 138060, Note_on_c, 0, 64, 87
2, 138060, Note_on_c, 0, 59, 87
2, 138060, Note_on_c, 0, 56, 71
2, 138120, Note_on_c, 0, 56, 0
2, 138120, Note_on_c, 0, 64, 0
2, 138120, Note_on_c, 0, 83, 0
2, 138120, Note_on_c, 0, 71, 0
2, 138120, Note_on_c, 0, 59, 0
2, 138120, Note_on_c, 0, 82, 89
2, 138120, Note_on_c, 0, 71, 87
2, 138120, Note_on_c, 0, 64, 87
2, 138120, Note_on_c, 0, 59, 87
2, 138120, Note_on_c, 0, 56, 71
2, 138180, Note_on_c, 0, 56, 0
2, 138180, Note_on_c, 0, 64, 0
2, 138180, Note_on_c, 0, 82, 0
2, 138180, Note_on_c, 0, 71, 0
2, 138180, Note_on_c, 0, 59, 0
2, 138180, Note_on_c, 0, 80, 89
2, 138180, Note_on_c, 0, 71, 87
2, 138180, Note_on_c, 0, 61, 87
2, 138180, Note_on_c, 0, 59, 87
2, 138180, Note_on_c, 0, 52, 71
2, 138240, Note_on_c, 0, 52, 0
2, 138240, Note_on_c, 0, 61, 0
2, 138240, Note_on_c, 0, 80, 0
2, 138240, Note_on_c, 0, 71, 0
2, 138240, Note_on_c, 0, 59, 0
2, 138240, Note_on_c, 0, 78, 89
2, 138240, Note_on_c, 0, 71, 87
2, 138240, Note_on_c, 0, 63, 87
2, 138240, Note_on_c, 0, 59, 87
2, 138240, Note_on_c, 0, 54, 71
2, 138300, Note_on_c, 0, 78, 0
2, 138300, Note_on_c, 0, 75, 89
2, 138360, Note_on_c, 0, 75, 0
2, 138360, Note_on_c, 0, 54, 0
2, 138360, Note_on_c, 0, 71, 0
2, 138360, Note_on_c, 0, 63, 0
2, 138360, Note_on_c, 0, 59, 0
2, 138360, Note_on_c, 0, 78, 89
2, 138360, Note_on_c, 0, 71, 87
2, 138360, Note_on_c, 0, 63, 87
2, 138360, Note_on_c, 0, 54, 71
2, 138480, Note_on_c, 0, 63, 0
2, 138480, Note_on_c, 0, 71, 0
2, 138480, Note_on_c, 0, 70, 87
2, 138480, Note_on_c, 0, 61, 87
2, 138540, Note_on_c, 0, 78, 0
2, 138540, Note_on_c, 0, 54, 0
2, 138540, Note_on_c, 0, 76, 89
2, 138540, Note_on_c, 0, 55, 71
2, 138600, Note_on_c, 0, 55, 0
2, 138600, Note_on_c, 0, 61, 0
2, 138600, Note_on_c, 0, 70, 0
2, 138600, Note_on_c, 0, 76, 0
2, 138600, Note_on_c, 0, 75, 89
2, 138600, Note_on_c, 0, 71, 87
2, 138600, Note_on_c, 0, 59, 87
2, 138600, Note_on_c, 0, 56, 87
2, 138660, Note_on_c, 0, 75, 0
2, 138660, Note_on_c, 0, 75, 89
2, 138720, Note_on_c, 0, 75, 0
2, 138720, Note_on_c, 0, 56, 0
2, 138720, Note_on_c, 0, 59, 0
2, 138720, Note_on_c, 0, 71, 0
2, 138720, Note_on_c, 0, 83, 89
2, 138720, Note_on_c, 0, 59, 87
2, 138720, Note_on_c, 0, 57, 87
2, 138720, Note_on_c, 0, 51, 87
2, 138840, Note_on_c, 0, 51, 0
2, 138840, Note_on_c, 0, 57, 0
2, 138840, Note_on_c, 0, 56, 87
2, 138840, Note_on_c, 0, 52, 87
2, 138870, Note_on_c, 0, 83, 0
2, 138870, Note_on_c, 0, 80, 89
2, 138900, Note_on_c, 0, 80, 0
2, 138900, Note_on_c, 0, 76, 89
2, 138930, Note_on_c, 0, 76, 0
2, 138930, Note_on_c, 0, 73, 89
2, 138960, Note_on_c, 0, 73, 0
2, 138960, Note_on_c, 0, 52, 0
2, 138960, Note_on_c, 0, 56, 0
2, 138960, Note_on_c, 0, 59, 0
2, 138960, Note_on_c, 0, 71, 89
2, 138990, Note_on_c, 0, 71, 0
2, 138990, Note_on_c, 0, 68, 89
2, 139020, Note_on_c, 0, 68, 0
2, 139020, Note_on_c, 0, 64, 89
2, 139050, Note_on_c, 0, 64, 0
2, 139050, Note_on_c, 0, 61, 89
2, 139080, Note_on_c, 0, 61, 0
2, 139080, Note_on_c, 0, 59, 89
2, 139140, Note_on_c, 0, 59, 0
2, 139170, Note_on_c, 0, 59, 89
2, 139200, Note_on_c, 0, 59, 0
2, 139200, Note_on_c, 0, 63, 89
2, 139200, Note_on_c, 0, 58, 87
2, 139200, Note_on_c, 0, 52, 87
2, 139200, Note_on_c, 0, 42, 87
2, 139290, Note_on_c, 0, 63, 0
2, 139290, Note_on_c, 0, 61, 89
2, 139320, Note_on_c, 0, 61, 0
2, 139320, Note_on_c, 0, 42, 0
2, 139320, Note_on_c, 0, 52, 0
2, 139320, Note_on_c, 0, 58, 0
2, 139320, Note_on_c, 0, 61, 89
2, 139320, Note_on_c, 0, 58, 87
2, 139320, Note_on_c, 0, 54, 87
2, 139320, Note_on_c, 0, 52, 87
2, 139320, Note_on_c, 0, 35, 71
2, 139440, Note_on_c, 0, 52, 0
2, 139440, Note_on_c, 0, 54, 0
2, 139440, Note_on_c, 0, 61, 0
2, 139440, Note_on_c, 0, 58, 0
2, 139440, Note_on_c, 0, 59, 89
2, 139440, Note_on_c, 0, 51, 87
2, 139500, Note_on_c, 0, 59, 0
2, 139560, Note_on_c, 0, 51, 0
2, 139560, Note_on_c, 0, 35, 0
2, 139560, Note_on_c, 0, 71, 89
2, 139650, Note_on_c, 0, 71, 0
2, 139650, Note_on_c, 0, 71, 89
2, 139680, Note_on_c, 0, 71, 0
2, 139680, Note_on_c, 0, 81, 89
2, 139740, Note_on_c, 0, 59, 87
2, 139800, Note_on_c, 0, 59, 0
2, 139800, Note_on_c, 0, 59, 87
2, 139860, Note_on_c, 0, 59, 0
2, 139860, Note_on_c, 0, 81, 0
2, 139860, Note_on_c, 0, 80, 89
2, 139860, Note_on_c, 0, 75, 87
2, 139860, Note_on_c, 0, 71, 87
2, 139860, Note_on_c, 0, 59, 87
2, 139920, Note_on_c, 0, 59, 0
2, 139920, Note_on_c, 0, 80, 0
2, 139920, Note_on_c, 0, 75, 0
2, 139920, Note_on_c, 0, 71, 0
2, 139920, Note_on_c, 0, 78, 89
2, 139920, Note_on_c, 0, 73, 87
2, 139920, Note_on_c, 0, 69, 87
2, 139920, Note_on_c, 0, 59, 87
2, 139980, Note_on_c, 0, 59, 0
2, 139980, Note_on_c, 0, 78, 0
2, 139980, Note_on_c, 0, 73, 0
2, 139980, Note_on_c, 0, 69, 0
2, 139980, Note_on_c, 0, 76, 89
2, 139980, Note_on_c, 0, 71, 87
2, 139980, Note_on_c, 0, 68, 87
2, 139980, Note_on_c, 0, 59, 87
2, 140040, Note_on_c, 0, 59, 0
2, 140040, Note_on_c, 0, 76, 0
2, 140040, Note_on_c, 0, 71, 0
2, 140040, Note_on_c, 0, 68, 0
2, 140040, Note_on_c, 0, 75, 89
2, 140040, Note_on_c, 0, 69, 87
2, 140040, Note_on_c, 0, 66, 87
2, 140040, Note_on_c, 0, 59, 87
2, 140100, Note_on_c, 0, 59, 0
2, 140100, Note_on_c, 0, 75, 0
2, 140100, Note_on_c, 0, 69, 0
2, 140100, Note_on_c, 0, 66, 0
2, 140100, Note_on_c, 0, 73, 89
2, 140100, Note_on_c, 0, 69, 87
2, 140100, Note_on_c, 0, 64, 87
2, 140100, Note_on_c, 0, 59, 87
2, 140160, Note_on_c, 0, 59, 0
2, 140160, Note_on_c, 0, 73, 0
2, 140160, Note_on_c, 0, 69, 0
2, 140160, Note_on_c, 0, 64, 0
2, 140160, Note_on_c, 0, 71, 89
2, 140160, Note_on_c, 0, 69, 87
2, 140160, Note_on_c, 0, 63, 87
2, 140160, Note_on_c, 0, 59, 87
2, 140220, Note_on_c, 0, 59, 0
2, 140220, Note_on_c, 0, 71, 0
2, 140220, Note_on_c, 0, 72, 89
2, 140220, Note_on_c, 0, 59, 87
2, 140280, Note_on_c, 0, 59, 0
2, 140280, Note_on_c, 0, 72, 0
2, 140280, Note_on_c, 0, 63, 0
2, 140280, Note_on_c, 0, 73, 89
2, 140280, Note_on_c, 0, 59, 87
2, 140280, Note_on_c, 0, 51, 87
2, 140340, Note_on_c, 0, 59, 0
2, 140340, Note_on_c, 0, 69, 0
2, 140340, Note_on_c, 0, 73, 0
2, 140340, Note_on_c, 0, 69, 89
2, 140340, Note_on_c, 0, 66, 87
2, 140340, Note_on_c, 0, 59, 87
2, 140400, Note_on_c, 0, 59, 0
2, 140400, Note_on_c, 0, 51, 0
2, 140400, Note_on_c, 0, 69, 0
2, 140400, Note_on_c, 0, 66, 0
2, 140400, Note_on_c, 0, 68, 89
2, 140400, Note_on_c, 0, 64, 87
2, 140400, Note_on_c, 0, 59, 87
2, 140400, Note_on_c, 0, 52, 87
2, 140460, Note_on_c, 0, 59, 0
2, 140460, Note_on_c, 0, 68, 0
2, 140460, Note_on_c, 0, 64, 0
2, 140460, Note_on_c, 0, 71, 89
2, 140460, Note_on_c, 0, 59, 87
2, 140520, Note_on_c, 0, 59, 0
2, 140520, Note_on_c, 0, 71, 0
2, 140520, Note_on_c, 0, 52, 0
2, 140520, Note_on_c, 0, 76, 89
2, 140520, Note_on_c, 0, 64, 87
2, 140520, Note_on_c, 0, 59, 87
2, 140520, Note_on_c, 0, 44, 87
2, 140580, Note_on_c, 0, 59, 0
2, 140580, Note_on_c, 0, 76, 0
2, 140580, Note_on_c, 0, 64, 0
2, 140580, Note_on_c, 0, 71, 89
2, 140580, Note_on_c, 0, 68, 87
2, 140580, Note_on_c, 0, 59, 87
2, 140640, Note_on_c, 0, 59, 0
2, 140640, Note_on_c, 0, 44, 0
2, 140640, Note_on_c, 0, 71, 0
2, 140640, Note_on_c, 0, 68, 0
2, 140640, Note_on_c, 0, 69, 89
2, 140640, Note_on_c, 0, 66, 87
2, 140640, Note_on_c, 0, 61, 87
2, 140640, Note_on_c, 0, 45, 87
2, 140700, Note_on_c, 0, 61, 0
2, 140700, Note_on_c, 0, 69, 0
2, 140700, Note_on_c, 0, 66, 0
2, 140700, Note_on_c, 0, 68, 89
2, 140700, Note_on_c, 0, 64, 87
2, 140700, Note_on_c, 0, 61, 87
2, 140760, Note_on_c, 0, 61, 0
2, 140760, Note_on_c, 0, 45, 0
2, 140760, Note_on_c, 0, 68, 0
2, 140760, Note_on_c, 0, 64, 0
2, 140760, Note_on_c, 0, 68, 89
2, 140760, Note_on_c, 0, 64, 87
2, 140760, Note_on_c, 0, 59, 87
2, 140760, Note_on_c, 0, 47, 87
2, 140820, Note_on_c, 0, 47, 0
2, 140820, Note_on_c, 0, 59, 0
2, 140820, Note_on_c, 0, 59, 87
2, 140880, Note_on_c, 0, 59, 0
2, 140880, Note_on_c, 0, 64, 0
2, 140880, Note_on_c, 0, 68, 0
2, 140880, Note_on_c, 0, 66, 89
2, 140880, Note_on_c, 0, 63, 87
2, 140880, Note_on_c, 0, 59, 87
2, 140940, Note_on_c, 0, 59, 0
2, 140940, Note_on_c, 0, 63, 0
2, 140940, Note_on_c, 0, 66, 0
2, 140940, Note_on_c, 0, 59, 87
2, 141000, Note_on_c, 0, 59, 0
2, 141000, Note_on_c, 0, 71, 89
2, 141000, Note_on_c, 0, 59, 87
2, 141060, Note_on_c, 0, 59, 0
2, 141060, Note_on_c, 0, 59, 87
2, 141090, Note_on_c, 0, 71, 0
2, 141090, Note_on_c, 0, 71, 89
2, 141120, Note_on_c, 0, 71, 0
2, 141120, Note_on_c, 0, 59, 0
2, 141120, Note_on_c, 0, 86, 89
2, 141120, Note_on_c, 0, 68, 87
2, 141120, Note_on_c, 0, 65, 87
2, 141120, Note_on_c, 0, 59, 87
2, 141180, Note_on_c, 0, 59, 0
2, 141180, Note_on_c, 0, 59, 87
2, 141240, Note_on_c, 0, 59, 0
2, 141240, Note_on_c, 0, 59, 87
2, 141300, Note_on_c, 0, 59, 0
2, 141300, Note_on_c, 0, 86, 0
2, 141300, Note_on_c, 0, 85, 89
2, 141300, Note_on_c, 0, 59, 87
2, 141330, Note_on_c, 0, 85, 0
2, 141330, Note_on_c, 0, 83, 89
2, 141360, Note_on_c, 0, 83, 0
2, 141360, Note_on_c, 0, 59, 0
2, 141360, Note_on_c, 0, 65, 0
2, 141360, Note_on_c, 0, 68, 0
2, 141360, Note_on_c, 0, 81, 89
2, 141360, Note_on_c, 0, 74, 87
2, 141360, Note_on_c, 0, 71, 87
2, 141360, Note_on_c, 0, 59, 87
2, 141390, Note_on_c, 0, 81, 0
2, 141390, Note_on_c, 0, 80, 89
2, 141420, Note_on_c, 0, 80, 0
2, 141420, Note_on_c, 0, 59, 0
2, 141420, Note_on_c, 0, 78, 89
2, 141420, Note_on_c, 0, 59, 87
2, 141420, Note_on_c, 0, 80, 71
2, 141450, Note_on_c, 0, 78, 0
2, 141450, Note_on_c, 0, 77, 89
2, 141480, Note_on_c, 0, 77, 0
2, 141480, Note_on_c, 0, 80, 0
2, 141480, Note_on_c, 0, 74, 0
2, 141480, Note_on_c, 0, 71, 0
2, 141480, Note_on_c, 0, 59, 0
2, 141480, Note_on_c, 0, 78, 89
2, 141480, Note_on_c, 0, 73, 87
2, 141480, Note_on_c, 0, 69, 87
2, 141480, Note_on_c, 0, 59, 87
2, 141510, Note_on_c, 0, 78, 0
2, 141510, Note_on_c, 0, 77, 89
2, 141540, Note_on_c, 0, 77, 0
2, 141540, Note_on_c, 0, 59, 0
2, 141540, Note_on_c, 0, 78, 89
2, 141540, Note_on_c, 0, 59, 87
2, 141540, Note_on_c, 0, 83, 71
2, 141570, Note_on_c, 0, 78, 0
2, 141570, Note_on_c, 0, 80, 89
2, 141600, Note_on_c, 0, 80, 0
2, 141600, Note_on_c, 0, 83, 0
2, 141600, Note_on_c, 0, 59, 0
2, 141600, Note_on_c, 0, 81, 89
2, 141600, Note_on_c, 0, 59, 87
2, 141630, Note_on_c, 0, 81, 0
2, 141630, Note_on_c, 0, 80, 89
2, 141660, Note_on_c, 0, 80, 0
2, 141660, Note_on_c, 0, 59, 0
2, 141660, Note_on_c, 0, 81, 89
2, 141660, Note_on_c, 0, 59, 87
2, 141690, Note_on_c, 0, 81, 0
2, 141690, Note_on_c, 0, 83, 89
2, 141720, Note_on_c, 0, 83, 0
2, 141720, Note_on_c, 0, 59, 0
2, 141720, Note_on_c, 0, 69, 0
2, 141720, Note_on_c, 0, 73, 0
2, 141720, Note_on_c, 0, 84, 89
2, 141720, Note_on_c, 0, 72, 87
2, 141720, Note_on_c, 0, 69, 87
2, 141720, Note_on_c, 0, 59, 87
2, 141750, Note_on_c, 0, 84, 0
2, 141750, Note_on_c, 0, 81, 89
2, 141780, Note_on_c, 0, 81, 0
2, 141780, Note_on_c, 0, 59, 0
2, 141780, Note_on_c, 0, 78, 89
2, 141780, Note_on_c, 0, 59, 87
2, 141810, Note_on_c, 0, 78, 0
2, 141810, Note_on_c, 0, 75, 89
2, 141810, Note_on_c, 0, 78, 71
2, 141840, Note_on_c, 0, 75, 0
2, 141840, Note_on_c, 0, 72, 0
2, 141840, Note_on_c, 0, 59, 0
2, 141840, Note_on_c, 0, 69, 0
2, 141840, Note_on_c, 0, 76, 89
2, 141840, Note_on_c, 0, 71, 87
2, 141840, Note_on_c, 0, 68, 87
2, 141840, Note_on_c, 0, 59, 87
2, 141870, Note_on_c, 0, 76, 0
2, 141870, Note_on_c, 0, 78, 0
2, 141870, Note_on_c, 0, 76, 89
2, 141900, Note_on_c, 0, 76, 0
2, 141900, Note_on_c, 0, 59, 0
2, 141900, Note_on_c, 0, 75, 89
2, 141900, Note_on_c, 0, 59, 87
2, 141930, Note_on_c, 0, 75, 0
2, 141930, Note_on_c, 0, 76, 89
2, 141960, Note_on_c, 0, 76, 0
2, 141960, Note_on_c, 0, 59, 0
2, 141960, Note_on_c, 0, 71, 0
2, 141960, Note_on_c, 0, 68, 0
2, 141960, Note_on_c, 0, 79, 89
2, 141960, Note_on_c, 0, 67, 87
2, 141960, Note_on_c, 0, 64, 87
2, 141960, Note_on_c, 0, 59, 87
2, 141990, Note_on_c, 0, 79, 0
2, 141990, Note_on_c, 0, 76, 89
2, 142020, Note_on_c, 0, 76, 0
2, 142020, Note_on_c, 0, 59, 0
2, 142020, Note_on_c, 0, 73, 89
2, 142020, Note_on_c, 0, 59, 87
2, 142020, Note_on_c, 0, 73, 71
2, 142050, Note_on_c, 0, 73, 0
2, 142050, Note_on_c, 0, 71, 89
2, 142080, Note_on_c, 0, 71, 0
2, 142080, Note_on_c, 0, 73, 0
2, 142080, Note_on_c, 0, 59, 0
2, 142080, Note_on_c, 0, 71, 89
2, 142080, Note_on_c, 0, 59, 87
2, 142110, Note_on_c, 0, 71, 0
2, 142110, Note_on_c, 0, 70, 89
2, 142140, Note_on_c, 0, 70, 0
2, 142140, Note_on_c, 0, 59, 0
2, 142140, Note_on_c, 0, 76, 89
2, 142140, Note_on_c, 0, 59, 87
2, 142170, Note_on_c, 0, 76, 0
2, 142170, Note_on_c, 0, 70, 89
2, 142200, Note_on_c, 0, 70, 0
2, 142200, Note_on_c, 0, 59, 0
2, 142200, Note_on_c, 0, 64, 0
2, 142200, Note_on_c, 0, 67, 0
2, 142200, Note_on_c, 0, 73, 89
2, 142230, Note_on_c, 0, 73, 0
2, 142230, Note_on_c, 0, 71, 89
2, 142260, Note_on_c, 0, 71, 0
2, 142260, Note_on_c, 0, 66, 87
2, 142260, Note_on_c, 0, 63, 87
2, 142260, Note_on_c, 0, 59, 87
2, 142290, Note_on_c, 0, 71, 89
2, 142320, Note_on_c, 0, 71, 0
2, 142320, Note_on_c, 0, 66, 0
2, 142320, Note_on_c, 0, 63, 0
2, 142320, Note_on_c, 0, 59, 0
2, 142320, Note_on_c, 0, 76, 89
2, 142350, Note_on_c, 0, 76, 0
2, 142350, Note_on_c, 0, 75, 89
2, 142380, Note_on_c, 0, 75, 0
2, 142380, Note_on_c, 0, 69, 87
2, 142380, Note_on_c, 0, 66, 87
2, 142380, Note_on_c, 0, 59, 87
2, 142410, Note_on_c, 0, 75, 89
2, 142440, Note_on_c, 0, 75, 0
2, 142440, Note_on_c, 0, 69, 0
2, 142440, Note_on_c, 0, 66, 0
2, 142440, Note_on_c, 0, 59, 0
2, 142440, Note_on_c, 0, 81, 89
2, 142470, Note_on_c, 0, 81, 0
2, 142470, Note_on_c, 0, 78, 89
2, 142500, Note_on_c, 0, 78, 0
2, 142500, Note_on_c, 0, 69, 87
2, 142500, Note_on_c, 0, 66, 87
2, 142500, Note_on_c, 0, 59, 87
2, 142530, Note_on_c, 0, 78, 89
2, 142560, Note_on_c, 0, 78, 0
2, 142560, Note_on_c, 0, 69, 0
2, 142560, Note_on_c, 0, 66, 0
2, 142560, Note_on_c, 0, 59, 0
2, 142560, Note_on_c, 0, 84, 89
2, 142590, Note_on_c, 0, 84, 0
2, 142590, Note_on_c, 0, 83, 89
2, 142620, Note_on_c, 0, 83, 0
2, 142620, Note_on_c, 0, 84, 89
2, 142650, Note_on_c, 0, 84, 0
2, 142650, Note_on_c, 0, 83, 89
2, 142680, Note_on_c, 0, 83, 0
2, 142680, Note_on_c, 0, 84, 89
2, 142710, Note_on_c, 0, 84, 0
2, 142710, Note_on_c, 0, 83, 89
2, 142740, Note_on_c, 0, 83, 0
2, 142740, Note_on_c, 0, 84, 89
2, 142770, Note_on_c, 0, 84, 0
2, 142770, Note_on_c, 0, 83, 89
2, 142800, Note_on_c, 0, 83, 0
2, 142800, Note_on_c, 0, 84, 89
2, 142800, Note_on_c, 0, 64, 87
2, 142800, Note_on_c, 0, 56, 87
2, 142800, Note_on_c, 0, 59, 87
2, 142800, Note_on_c, 0, 47, 71
2, 142830, Note_on_c, 0, 84, 0
2, 142830, Note_on_c, 0, 83, 89
2, 142860, Note_on_c, 0, 83, 0
2, 142860, Note_on_c, 0, 84, 89
2, 142890, Note_on_c, 0, 84, 0
2, 142890, Note_on_c, 0, 64, 0
2, 142890, Note_on_c, 0, 56, 0
2, 142890, Note_on_c, 0, 83, 89
2, 142890, Note_on_c, 0, 66, 87
2, 142890, Note_on_c, 0, 57, 87
2, 142920, Note_on_c, 0, 57, 0
2, 142920, Note_on_c, 0, 83, 0
2, 142920, Note_on_c, 0, 47, 0
2, 142920, Note_on_c, 0, 59, 0
2, 142920, Note_on_c, 0, 66, 0
2, 142920, Note_on_c, 0, 88, 89
2, 142920, Note_on_c, 0, 68, 87
2, 142920, Note_on_c, 0, 64, 87
2, 142920, Note_on_c, 0, 59, 87
2, 142920, Note_on_c, 0, 52, 71
2, 142920, Note_on_c, 0, 40, 71
2, 142950, Note_on_c, 0, 88, 0
2, 142950, Note_on_c, 0, 87, 89
2, 142980, Note_on_c, 0, 87, 0
2, 142980, Note_on_c, 0, 88, 89
2, 143010, Note_on_c, 0, 88, 0
2, 143010, Note_on_c, 0, 87, 89
2, 143040, Note_on_c, 0, 87, 0
2, 143040, Note_on_c, 0, 88, 89
2, 143070, Note_on_c, 0, 88, 0
2, 143070, Note_on_c, 0, 87, 89
2, 143100, Note_on_c, 0, 87, 0
2, 143100, Note_on_c, 0, 88, 89
2, 143130, Note_on_c, 0, 88, 0
2, 143130, Note_on_c, 0, 87, 89
2, 143160, Note_on_c, 0, 87, 0
2, 143160, Note_on_c, 0, 88, 89
2, 143190, Note_on_c, 0, 88, 0
2, 143190, Note_on_c, 0, 87, 89
2, 143220, Note_on_c, 0, 87, 0
2, 143220, Note_on_c, 0, 88, 89
2, 143250, Note_on_c, 0, 88, 0
2, 143250, Note_on_c, 0, 87, 89
2, 143280, Note_on_c, 0, 87, 0
2, 143280, Note_on_c, 0, 64, 0
2, 143280, Note_on_c, 0, 68, 0
2, 143280, Note_on_c, 0, 59, 0
2, 143280, Note_on_c, 0, 88, 89
2, 143280, Note_on_c, 0, 68, 87
2, 143280, Note_on_c, 0, 59, 87
2, 143310, Note_on_c, 0, 88, 0
2, 143310, Note_on_c, 0, 87, 89
2, 143340, Note_on_c, 0, 87, 0
2, 143340, Note_on_c, 0, 88, 89
2, 143370, Note_on_c, 0, 88, 0
2, 143370, Note_on_c, 0, 87, 89
2, 143400, Note_on_c, 0, 87, 0
2, 143400, Note_on_c, 0, 59, 0
2, 143400, Note_on_c, 0, 68, 0
2, 143400, Note_on_c, 0, 88, 89
2, 143400, Note_on_c, 0, 69, 87
2, 143400, Note_on_c, 0, 64, 87
2, 143400, Note_on_c, 0, 61, 87
2, 143430, Note_on_c, 0, 88, 0
2, 143430, Note_on_c, 0, 87, 89
2, 143460, Note_on_c, 0, 87, 0
2, 143460, Note_on_c, 0, 88, 89
2, 143490, Note_on_c, 0, 88, 0
2, 143490, Note_on_c, 0, 87, 89
2, 143520, Note_on_c, 0, 87, 0
2, 143520, Note_on_c, 0, 61, 0
2, 143520, Note_on_c, 0, 69, 0
2, 143520, Note_on_c, 0, 64, 0
2, 143520, Note_on_c, 0, 88, 89
2, 143520, Note_on_c, 0, 68, 87
2, 143520, Note_on_c, 0, 59, 87
2, 143550, Note_on_c, 0, 88, 0
2, 143550, Note_on_c, 0, 87, 89
2, 143580, Note_on_c, 0, 87, 0
2, 143580, Note_on_c, 0, 88, 89
2, 143610, Note_on_c, 0, 88, 0
2, 143610, Note_on_c, 0, 87, 89
2, 143640, Note_on_c, 0, 87, 0
2, 143640, Note_on_c, 0, 59, 0
2, 143640, Note_on_c, 0, 40, 0
2, 143640, Note_on_c, 0, 52, 0
2, 143640, Note_on_c, 0, 68, 0
2, 143640, Note_on_c, 0, 88, 89
2, 143640, Note_on_c, 0, 68, 87
2, 143640, Note_on_c, 0, 64, 87
2, 143640, Note_on_c, 0, 61, 87
2, 143640, Note_on_c, 0, 59, 71
2, 143640, Note_on_c, 0, 45, 71
2, 143670, Note_on_c, 0, 88, 0
2, 143670, Note_on_c, 0, 87, 89
2, 143700, Note_on_c, 0, 87, 0
2, 143700, Note_on_c, 0, 88, 89
2, 143730, Note_on_c, 0, 88, 0
2, 143730, Note_on_c, 0, 87, 89
2, 143760, Note_on_c, 0, 87, 0
2, 143760, Note_on_c, 0, 88, 89
2, 143790, Note_on_c, 0, 88, 0
2, 143790, Note_on_c, 0, 87, 89
2, 143820, Note_on_c, 0, 87, 0
2, 143820, Note_on_c, 0, 88, 89
2, 143850, Note_on_c, 0, 88, 0
2, 143850, Note_on_c, 0, 87, 89
2, 143880, Note_on_c, 0, 87, 0
2, 143880, Note_on_c, 0, 64, 0
2, 143880, Note_on_c, 0, 61, 0
2, 143880, Note_on_c, 0, 68, 0
2, 143880, Note_on_c, 0, 59, 0
2, 143880, Note_on_c, 0, 88, 89
2, 143880, Note_on_c, 0, 66, 87
2, 143880, Note_on_c, 0, 57, 87
2, 143910, Note_on_c, 0, 88, 0
2, 143910, Note_on_c, 0, 87, 89
2, 143940, Note_on_c, 0, 87, 0
2, 143940, Note_on_c, 0, 88, 89
2, 143970, Note_on_c, 0, 88, 0
2, 143970, Note_on_c, 0, 87, 89
2, 144000, Note_on_c, 0, 87, 0
2, 144000, Note_on_c, 0, 57, 0
2, 144000, Note_on_c, 0, 66, 0
2, 144000, Note_on_c, 0, 88, 89
2, 144000, Note_on_c, 0, 69, 87
2, 144000, Note_on_c, 0, 61, 87
2, 144030, Note_on_c, 0, 88, 0
2, 144030, Note_on_c, 0, 87, 89
2, 144060, Note_on_c, 0, 87, 0
2, 144060, Note_on_c, 0, 88, 89
2, 144090, Note_on_c, 0, 88, 0
2, 144090, Note_on_c, 0, 87, 89
2, 144120, Note_on_c, 0, 87, 0
2, 144120, Note_on_c, 0, 61, 0
2, 144120, Note_on_c, 0, 69, 0
2, 144120, Note_on_c, 0, 45, 0
2, 144120, Note_on_c, 0, 88, 89
2, 144120, Note_on_c, 0, 68, 87
2, 144120, Note_on_c, 0, 59, 87
2, 144120, Note_on_c, 0, 45, 71
2, 144150, Note_on_c, 0, 88, 0
2, 144150, Note_on_c, 0, 87, 89
2, 144180, Note_on_c, 0, 87, 0
2, 144180, Note_on_c, 0, 88, 89
2, 144210, Note_on_c, 0, 88, 0
2, 144210, Note_on_c, 0, 87, 89
2, 144240, Note_on_c, 0, 87, 0
2, 144240, Note_on_c, 0, 68, 0
2, 144240, Note_on_c, 0, 59, 0
2, 144240, Note_on_c, 0, 88, 89
2, 144240, Note_on_c, 0, 66, 87
2, 144240, Note_on_c, 0, 57, 87
2, 144240, Note_on_c, 0, 87, 87
2, 144270, Note_on_c, 0, 88, 0
2, 144270, Note_on_c, 0, 87, 89
2, 144300, Note_on_c, 0, 87, 0
2, 144300, Note_on_c, 0, 87, 0
2, 144300, Note_on_c, 0, 88, 89
2, 144300, Note_on_c, 0, 88, 87
2, 144330, Note_on_c, 0, 88, 0
2, 144330, Note_on_c, 0, 87, 89
2, 144360, Note_on_c, 0, 87, 0
2, 144360, Note_on_c, 0, 88, 0
2, 144360, Note_on_c, 0, 57, 0
2, 144360, Note_on_c, 0, 66, 0
2, 144360, Note_on_c, 0, 45, 0
2, 144360, Note_on_c, 0, 100, 89
2, 144360, Note_on_c, 0, 64, 87
2, 144360, Note_on_c, 0, 59, 87
2, 144360, Note_on_c, 0, 56, 87
2, 144360, Note_on_c, 0, 47, 71
2, 144420, Note_on_c, 0, 56, 0
2, 144420, Note_on_c, 0, 59, 0
2, 144420, Note_on_c, 0, 100, 0
2, 144420, Note_on_c, 0, 64, 0
2, 144420, Note_on_c, 0, 64, 87
2, 144420, Note_on_c, 0, 59, 87
2, 144420, Note_on_c, 0, 56, 87
2, 144480, Note_on_c, 0, 56, 0
2, 144480, Note_on_c, 0, 47, 0
2, 144480, Note_on_c, 0, 64, 0
2, 144480, Note_on_c, 0, 59, 0
2, 144480, Note_on_c, 0, 68, 87
2, 144480, Note_on_c, 0, 64, 87
2, 144480, Note_on_c, 0, 59, 87
2, 144480, Note_on_c, 0, 47, 71
2, 144600, Note_on_c, 0, 47, 0
2, 144600, Note_on_c, 0, 59, 0
2, 144600, Note_on_c, 0, 64, 0
2, 144600, Note_on_c, 0, 63, 87
2, 144600, Note_on_c, 0, 57, 87
2, 144600, Note_on_c, 0, 47, 71
2, 144660, Note_on_c, 0, 68, 0
2, 144660, Note_on_c, 0, 66, 87
2, 144720, Note_on_c, 0, 66, 0
2, 144720, Note_on_c, 0, 47, 0
2, 144720, Note_on_c, 0, 57, 0
2, 144720, Note_on_c, 0, 63, 0
2, 144720, Note_on_c, 0, 64, 87
2, 144720, Note_on_c, 0, 56, 87
2, 144720, Note_on_c, 0, 52, 71
2, 144780, Note_on_c, 0, 59, 87
2, 144840, Note_on_c, 0, 59, 0
2, 144840, Note_on_c, 0, 62, 87
2, 144900, Note_on_c, 0, 83, 89
2, 144960, Note_on_c, 0, 83, 0
2, 144960, Note_on_c, 0, 81, 89
2, 144990, Note_on_c, 0, 81, 0
2, 144990, Note_on_c, 0, 80, 89
2, 145020, Note_on_c, 0, 80, 0
2, 145020, Note_on_c, 0, 78, 89
2, 145050, Note_on_c, 0, 78, 0
2, 145050, Note_on_c, 0, 76, 89
2, 145080, Note_on_c, 0, 76, 0
2, 145080, Note_on_c, 0, 56, 0
2, 145080, Note_on_c, 0, 62, 0
2, 145080, Note_on_c, 0, 76, 89
2, 145080, Note_on_c, 0, 61, 87
2, 145080, Note_on_c, 0, 57, 87
2, 145200, Note_on_c, 0, 61, 0
2, 145200, Note_on_c, 0, 76, 0
2, 145200, Note_on_c, 0, 64, 0
2, 145200, Note_on_c, 0, 60, 87
2, 145260, Note_on_c, 0, 81, 89
2, 145320, Note_on_c, 0, 81, 0
2, 145320, Note_on_c, 0, 60, 0
2, 145320, Note_on_c, 0, 78, 89
2, 145320, Note_on_c, 0, 59, 87
2, 145380, Note_on_c, 0, 78, 0
2, 145380, Note_on_c, 0, 75, 89
2, 145440, Note_on_c, 0, 75, 0
2, 145440, Note_on_c, 0, 59, 0
2, 145440, Note_on_c, 0, 52, 0
2, 145440, Note_on_c, 0, 57, 0
2, 145440, Note_on_c, 0, 78, 89
2, 145440, Note_on_c, 0, 59, 87
2, 145440, Note_on_c, 0, 56, 87
2, 145440, Note_on_c, 0, 52, 71
2, 145500, Note_on_c, 0, 56, 0
2, 145500, Note_on_c, 0, 78, 0
2, 145500, Note_on_c, 0, 59, 0
2, 145500, Note_on_c, 0, 76, 89
2, 145500, Note_on_c, 0, 59, 87
2, 145500, Note_on_c, 0, 56, 87
2, 145560, Note_on_c, 0, 56, 0
2, 145560, Note_on_c, 0, 59, 0
2, 145560, Note_on_c, 0, 76, 0
2, 145560, Note_on_c, 0, 62, 87
2, 145560, Note_on_c, 0, 59, 87
2, 145620, Note_on_c, 0, 83, 89
2, 145620, Note_on_c, 0, 71, 87
2, 145680, Note_on_c, 0, 71, 0
2, 145680, Note_on_c, 0, 83, 0
2, 145680, Note_on_c, 0, 81, 89
2, 145680, Note_on_c, 0, 69, 87
2, 145710, Note_on_c, 0, 69, 0
2, 145710, Note_on_c, 0, 81, 0
2, 145710, Note_on_c, 0, 80, 89
2, 145710, Note_on_c, 0, 68, 87
2, 145740, Note_on_c, 0, 68, 0
2, 145740, Note_on_c, 0, 80, 0
2, 145740, Note_on_c, 0, 78, 89
2, 145740, Note_on_c, 0, 66, 87
2, 145770, Note_on_c, 0, 66, 0
2, 145770, Note_on_c, 0, 78, 0
2, 145770, Note_on_c, 0, 76, 89
2, 145770, Note_on_c, 0, 64, 87
2, 145800, Note_on_c, 0, 64, 0
2, 145800, Note_on_c, 0, 59, 0
2, 145800, Note_on_c, 0, 76, 0
2, 145800, Note_on_c, 0, 62, 0
2, 145800, Note_on_c, 0, 64, 87
2, 145800, Note_on_c, 0, 61, 87
2, 145830, Note_on_c, 0, 64, 89
2, 145860, Note_on_c, 0, 64, 0
2, 145860, Note_on_c, 0, 76, 89
2, 145890, Note_on_c, 0, 76, 0
2, 145890, Note_on_c, 0, 76, 89
2, 145920, Note_on_c, 0, 76, 0
2, 145920, Note_on_c, 0, 61, 0
2, 145920, Note_on_c, 0, 60, 87
2, 145980, Note_on_c, 0, 52, 0
2, 145980, Note_on_c, 0, 64, 0
2, 145980, Note_on_c, 0, 81, 89
2, 145980, Note_on_c, 0, 69, 87
2, 145980, Note_on_c, 0, 66, 87
2, 145980, Note_on_c, 0, 51, 71
2, 146040, Note_on_c, 0, 51, 0
2, 146040, Note_on_c, 0, 69, 0
2, 146040, Note_on_c, 0, 81, 0
2, 146040, Note_on_c, 0, 79, 89
2, 146040, Note_on_c, 0, 67, 87
2, 146040, Note_on_c, 0, 62, 71
2, 146040, Note_on_c, 0, 50, 71
2, 146070, Note_on_c, 0, 67, 0
2, 146070, Note_on_c, 0, 79, 0
2, 146070, Note_on_c, 0, 78, 89
2, 146070, Note_on_c, 0, 66, 87
2, 146100, Note_on_c, 0, 78, 0
2, 146100, Note_on_c, 0, 66, 0
2, 146100, Note_on_c, 0, 76, 89
2, 146100, Note_on_c, 0, 64, 87
2, 146130, Note_on_c, 0, 64, 0
2, 146130, Note_on_c, 0, 76, 0
2, 146130, Note_on_c, 0, 74, 89
2, 146130, Note_on_c, 0, 62, 87
2, 146160, Note_on_c, 0, 62, 0
2, 146160, Note_on_c, 0, 66, 0
2, 146160, Note_on_c, 0, 60, 0
2, 146160, Note_on_c, 0, 62, 0
2, 146160, Note_on_c, 0, 74, 0
2, 146160, Note_on_c, 0, 67, 87
2, 146160, Note_on_c, 0, 62, 87
2, 146160, Note_on_c, 0, 59, 87
2, 146160, Note_on_c, 0, 55, 71
2, 146190, Note_on_c, 0, 62, 89
2, 146220, Note_on_c, 0, 62, 0
2, 146220, Note_on_c, 0, 74, 89
2, 146250, Note_on_c, 0, 74, 0
2, 146250, Note_on_c, 0, 74, 89
2, 146280, Note_on_c, 0, 74, 0
2, 146280, Note_on_c, 0, 67, 0
2, 146280, Note_on_c, 0, 59, 0
2, 146280, Note_on_c, 0, 50, 0
2, 146280, Note_on_c, 0, 62, 0
2, 146280, Note_on_c, 0, 55, 0
2, 146280, Note_on_c, 0, 64, 71
2, 146280, Note_on_c, 0, 58, 71
2, 146280, Note_on_c, 0, 55, 87
2, 146280, Note_on_c, 0, 49, 87
2, 146280, Note_on_c, 0, 37, 82
2, 146310, Note_on_c, 0, 67, 89
2, 146310, Note_on_c, 0, 49, 87
2, 146340, Note_on_c, 0, 67, 0
2, 146340, Note_on_c, 0, 49, 0
2, 146340, Note_on_c, 0, 79, 89
2, 146340, Note_on_c, 0, 64, 87
2, 146340, Note_on_c, 0, 58, 87
2, 146340, Note_on_c, 0, 55, 87
2, 146370, Note_on_c, 0, 79, 0
2, 146370, Note_on_c, 0, 64, 0
2, 146370, Note_on_c, 0, 55, 0
2, 146370, Note_on_c, 0, 58, 0
2, 146370, Note_on_c, 0, 79, 89
2, 146370, Note_on_c, 0, 64, 87
2, 146370, Note_on_c, 0, 58, 87
2, 146370, Note_on_c, 0, 55, 87
2, 146400, Note_on_c, 0, 55, 0
2, 146400, Note_on_c, 0, 58, 0
2, 146400, Note_on_c, 0, 55, 0
2, 146400, Note_on_c, 0, 49, 0
2, 146400, Note_on_c, 0, 64, 0
2, 146400, Note_on_c, 0, 37, 0
2, 146400, Note_on_c, 0, 64, 0
2, 146400, Note_on_c, 0, 79, 0
2, 146400, Note_on_c, 0, 58, 0
2, 146400, Note_on_c, 0, 57, 71
2, 146400, Note_on_c, 0, 54, 87
2, 146400, Note_on_c, 0, 50, 87
2, 146400, Note_on_c, 0, 38, 82
2, 146430, Note_on_c, 0, 78, 89
2, 146430, Note_on_c, 0, 66, 87
2, 146430, Note_on_c, 0, 57, 87
2, 146430, Note_on_c, 0, 54, 87
2, 146430, Note_on_c, 0, 50, 71
2, 146460, Note_on_c, 0, 66, 0
2, 146460, Note_on_c, 0, 50, 0
2, 146460, Note_on_c, 0, 57, 0
2, 146460, Note_on_c, 0, 78, 0
2, 146460, Note_on_c, 0, 54, 0
2, 146460, Note_on_c, 0, 76, 89
2, 146460, Note_on_c, 0, 64, 87
2, 146460, Note_on_c, 0, 57, 87
2, 146460, Note_on_c, 0, 54, 87
2, 146460, Note_on_c, 0, 50, 71
2, 146490, Note_on_c, 0, 64, 0
2, 146490, Note_on_c, 0, 54, 0
2, 146490, Note_on_c, 0, 50, 0
2, 146490, Note_on_c, 0, 76, 0
2, 146490, Note_on_c, 0, 57, 0
2, 146490, Note_on_c, 0, 74, 89
2, 146490, Note_on_c, 0, 62, 87
2, 146490, Note_on_c, 0, 57, 87
2, 146490, Note_on_c, 0, 54, 87
2, 146490, Note_on_c, 0, 50, 71
2, 146520, Note_on_c, 0, 50, 0
2, 146520, Note_on_c, 0, 54, 0
2, 146520, Note_on_c, 0, 50, 0
2, 146520, Note_on_c, 0, 74, 0
2, 146520, Note_on_c, 0, 57, 0
2, 146520, Note_on_c, 0, 38, 0
2, 146520, Note_on_c, 0, 57, 0
2, 146520, Note_on_c, 0, 62, 0
2, 146520, Note_on_c, 0, 54, 0
2, 146520, Note_on_c, 0, 66, 71
2, 146520, Note_on_c, 0, 60, 71
2, 146520, Note_on_c, 0, 57, 87
2, 146520, Note_on_c, 0, 51, 87
2, 146520, Note_on_c, 0, 39, 82
2, 146550, Note_on_c, 0, 69, 89
2, 146550, Note_on_c, 0, 51, 87
2, 146580, Note_on_c, 0, 69, 0
2, 146580, Note_on_c, 0, 51, 0
2, 146580, Note_on_c, 0, 81, 89
2, 146580, Note_on_c, 0, 66, 87
2, 146580, Note_on_c, 0, 60, 87
2, 146580, Note_on_c, 0, 57, 87
2, 146610, Note_on_c, 0, 81, 0
2, 146610, Note_on_c, 0, 66, 0
2, 146610, Note_on_c, 0, 57, 0
2, 146610, Note_on_c, 0, 60, 0
2, 146610, Note_on_c, 0, 81, 89
2, 146610, Note_on_c, 0, 66, 87
2, 146610, Note_on_c, 0, 60, 87
2, 146610, Note_on_c, 0, 57, 87
2, 146640, Note_on_c, 0, 57, 0
2, 146640, Note_on_c, 0, 60, 0
2, 146640, Note_on_c, 0, 57, 0
2, 146640, Note_on_c, 0, 51, 0
2, 146640, Note_on_c, 0, 66, 0
2, 146640, Note_on_c, 0, 39, 0
2, 146640, Note_on_c, 0, 66, 0
2, 146640, Note_on_c, 0, 81, 0
2, 146640, Note_on_c, 0, 60, 0
2, 146640, Note_on_c, 0, 64, 71
2, 146640, Note_on_c, 0, 59, 87
2, 146640, Note_on_c, 0, 55, 87
2, 146640, Note_on_c, 0, 40, 82
2, 146670, Note_on_c, 0, 79, 89
2, 146670, Note_on_c, 0, 67, 87
2, 146670, Note_on_c, 0, 59, 87
2, 146670, Note_on_c, 0, 55, 87
2, 146670, Note_on_c, 0, 52, 71
2, 146700, Note_on_c, 0, 52, 0
2, 146700, Note_on_c, 0, 67, 0
2, 146700, Note_on_c, 0, 55, 0
2, 146700, Note_on_c, 0, 79, 0
2, 146700, Note_on_c, 0, 59, 0
2, 146700, Note_on_c, 0, 78, 89
2, 146700, Note_on_c, 0, 66, 87
2, 146700, Note_on_c, 0, 59, 87
2, 146700, Note_on_c, 0, 55, 87
2, 146700, Note_on_c, 0, 52, 71
2, 146730, Note_on_c, 0, 52, 0
2, 146730, Note_on_c, 0, 66, 0
2, 146730, Note_on_c, 0, 55, 0
2, 146730, Note_on_c, 0, 78, 0
2, 146730, Note_on_c, 0, 59, 0
2, 146730, Note_on_c, 0, 76, 89
2, 146730, Note_on_c, 0, 64, 87
2, 146730, Note_on_c, 0, 59, 87
2, 146730, Note_on_c, 0, 55, 87
2, 146730, Note_on_c, 0, 52, 71
2, 146760, Note_on_c, 0, 52, 0
2, 146760, Note_on_c, 0, 40, 0
2, 146760, Note_on_c, 0, 55, 0
2, 146760, Note_on_c, 0, 76, 0
2, 146760, Note_on_c, 0, 59, 0
2, 146760, Note_on_c, 0, 64, 0
2, 146760, Note_on_c, 0, 59, 0
2, 146760, Note_on_c, 0, 64, 0
2, 146760, Note_on_c, 0, 55, 0
2, 146760, Note_on_c, 0, 56, 71
2, 146760, Note_on_c, 0, 41, 71
2, 146760, Note_on_c, 0, 62, 87
2, 146760, Note_on_c, 0, 59, 87
2, 146760, Note_on_c, 0, 41, 82
2, 146790, Note_on_c, 0, 71, 89
2, 146790, Note_on_c, 0, 53, 87
2, 146820, Note_on_c, 0, 53, 0
2, 146820, Note_on_c, 0, 71, 0
2, 146820, Note_on_c, 0, 83, 89
2, 146820, Note_on_c, 0, 68, 87
2, 146820, Note_on_c, 0, 62, 87
2, 146820, Note_on_c, 0, 59, 87
2, 146850, Note_on_c, 0, 68, 0
2, 146850, Note_on_c, 0, 83, 0
2, 146850, Note_on_c, 0, 59, 0
2, 146850, Note_on_c, 0, 62, 0
2, 146850, Note_on_c, 0, 83, 89
2, 146850, Note_on_c, 0, 68, 87
2, 146850, Note_on_c, 0, 62, 87
2, 146850, Note_on_c, 0, 59, 87
2, 146880, Note_on_c, 0, 68, 0
2, 146880, Note_on_c, 0, 59, 0
2, 146880, Note_on_c, 0, 62, 0
2, 146880, Note_on_c, 0, 41, 0
2, 146880, Note_on_c, 0, 56, 0
2, 146880, Note_on_c, 0, 83, 0
2, 146880, Note_on_c, 0, 68, 71
2, 146910, Note_on_c, 0, 74, 89
2, 146910, Note_on_c, 0, 53, 87
2, 146940, Note_on_c, 0, 53, 0
2, 146940, Note_on_c, 0, 74, 0
2, 146940, Note_on_c, 0, 86, 89
2, 146940, Note_on_c, 0, 80, 87
2, 146940, Note_on_c, 0, 68, 87
2, 146940, Note_on_c, 0, 62, 87
2, 146940, Note_on_c, 0, 59, 71
2, 146970, Note_on_c, 0, 80, 0
2, 146970, Note_on_c, 0, 59, 0
2, 146970, Note_on_c, 0, 62, 0
2, 146970, Note_on_c, 0, 68, 0
2, 146970, Note_on_c, 0, 86, 0
2, 146970, Note_on_c, 0, 86, 89
2, 146970, Note_on_c, 0, 80, 87
2, 146970, Note_on_c, 0, 68, 87
2, 146970, Note_on_c, 0, 62, 87
2, 146970, Note_on_c, 0, 59, 71
2, 147000, Note_on_c, 0, 59, 0
2, 147000, Note_on_c, 0, 62, 0
2, 147000, Note_on_c, 0, 59, 0
2, 147000, Note_on_c, 0, 86, 0
2, 147000, Note_on_c, 0, 41, 0
2, 147000, Note_on_c, 0, 68, 0
2, 147000, Note_on_c, 0, 68, 0
2, 147000, Note_on_c, 0, 80, 0
2, 147000, Note_on_c, 0, 62, 0
2, 147000, Note_on_c, 0, 68, 71
2, 147000, Note_on_c, 0, 62, 87
2, 147000, Note_on_c, 0, 59, 87
2, 147030, Note_on_c, 0, 86, 89
2, 147030, Note_on_c, 0, 74, 87
2, 147030, Note_on_c, 0, 62, 87
2, 147030, Note_on_c, 0, 59, 87
2, 147030, Note_on_c, 0, 53, 71
2, 147060, Note_on_c, 0, 53, 0
2, 147060, Note_on_c, 0, 74, 0
2, 147060, Note_on_c, 0, 86, 0
2, 147060, Note_on_c, 0, 59, 0
2, 147060, Note_on_c, 0, 62, 0
2, 147060, Note_on_c, 0, 85, 89
2, 147060, Note_on_c, 0, 74, 87
2, 147060, Note_on_c, 0, 62, 87
2, 147060, Note_on_c, 0, 59, 87
2, 147060, Note_on_c, 0, 53, 71
2, 147090, Note_on_c, 0, 53, 0
2, 147090, Note_on_c, 0, 74, 0
2, 147090, Note_on_c, 0, 85, 0
2, 147090, Note_on_c, 0, 62, 0
2, 147090, Note_on_c, 0, 59, 0
2, 147090, Note_on_c, 0, 83, 89
2, 147090, Note_on_c, 0, 74, 87
2, 147090, Note_on_c, 0, 62, 87
2, 147090, Note_on_c, 0, 59, 87
2, 147090, Note_on_c, 0, 53, 71
2, 147120, Note_on_c, 0, 53, 0
2, 147120, Note_on_c, 0, 74, 0
2, 147120, Note_on_c, 0, 83, 0
2, 147120, Note_on_c, 0, 62, 0
2, 147120, Note_on_c, 0, 59, 0
2, 147120, Note_on_c, 0, 82, 89
2, 147120, Note_on_c, 0, 74, 87
2, 147120, Note_on_c, 0, 62, 87
2, 147120, Note_on_c, 0, 59, 87
2, 147120, Note_on_c, 0, 53, 71
2, 147150, Note_on_c, 0, 53, 0
2, 147150, Note_on_c, 0, 74, 0
2, 147150, Note_on_c, 0, 82, 0
2, 147150, Note_on_c, 0, 62, 0
2, 147150, Note_on_c, 0, 59, 0
2, 147150, Note_on_c, 0, 83, 89
2, 147150, Note_on_c, 0, 74, 87
2, 147150, Note_on_c, 0, 62, 87
2, 147150, Note_on_c, 0, 59, 87
2, 147150, Note_on_c, 0, 53, 71
2, 147180, Note_on_c, 0, 53, 0
2, 147180, Note_on_c, 0, 74, 0
2, 147180, Note_on_c, 0, 83, 0
2, 147180, Note_on_c, 0, 62, 0
2, 147180, Note_on_c, 0, 59, 0
2, 147180, Note_on_c, 0, 85, 89
2, 147180, Note_on_c, 0, 74, 87
2, 147180, Note_on_c, 0, 62, 87
2, 147180, Note_on_c, 0, 59, 87
2, 147180, Note_on_c, 0, 53, 71
2, 147210, Note_on_c, 0, 53, 0
2, 147210, Note_on_c, 0, 74, 0
2, 147210, Note_on_c, 0, 85, 0
2, 147210, Note_on_c, 0, 62, 0
2, 147210, Note_on_c, 0, 59, 0
2, 147210, Note_on_c, 0, 83, 89
2, 147210, Note_on_c, 0, 74, 87
2, 147210, Note_on_c, 0, 62, 87
2, 147210, Note_on_c, 0, 59, 87
2, 147210, Note_on_c, 0, 53, 71
2, 147240, Note_on_c, 0, 53, 0
2, 147240, Note_on_c, 0, 62, 0
2, 147240, Note_on_c, 0, 74, 0
2, 147240, Note_on_c, 0, 59, 0
2, 147240, Note_on_c, 0, 68, 0
2, 147240, Note_on_c, 0, 83, 0
2, 147240, Note_on_c, 0, 62, 0
2, 147240, Note_on_c, 0, 59, 0
2, 147240, Note_on_c, 0, 82, 89
2, 147240, Note_on_c, 0, 76, 87
2, 147240, Note_on_c, 0, 61, 87
2, 147240, Note_on_c, 0, 58, 87
2, 147240, Note_on_c, 0, 54, 71
2, 147240, Note_on_c, 0, 66, 87
2, 147240, Note_on_c, 0, 58, 87
2, 147240, Note_on_c, 0, 42, 82
2, 147270, Note_on_c, 0, 54, 0
2, 147270, Note_on_c, 0, 58, 0
2, 147270, Note_on_c, 0, 82, 0
2, 147270, Note_on_c, 0, 61, 0
2, 147270, Note_on_c, 0, 76, 0
2, 147270, Note_on_c, 0, 88, 89
2, 147270, Note_on_c, 0, 76, 87
2, 147270, Note_on_c, 0, 70, 87
2, 147270, Note_on_c, 0, 66, 87
2, 147270, Note_on_c, 0, 64, 71
2, 147270, Note_on_c, 0, 61, 71
2, 147300, Note_on_c, 0, 61, 0
2, 147300, Note_on_c, 0, 88, 0
2, 147300, Note_on_c, 0, 64, 0
2, 147300, Note_on_c, 0, 70, 0
2, 147300, Note_on_c, 0, 66, 0
2, 147300, Note_on_c, 0, 76, 0
2, 147300, Note_on_c, 0, 87, 89
2, 147300, Note_on_c, 0, 76, 87
2, 147300, Note_on_c, 0, 70, 87
2, 147300, Note_on_c, 0, 66, 87
2, 147300, Note_on_c, 0, 64, 71
2, 147300, Note_on_c, 0, 61, 71
2, 147330, Note_on_c, 0, 61, 0
2, 147330, Note_on_c, 0, 87, 0
2, 147330, Note_on_c, 0, 64, 0
2, 147330, Note_on_c, 0, 70, 0
2, 147330, Note_on_c, 0, 66, 0
2, 147330, Note_on_c, 0, 76, 0
2, 147330, Note_on_c, 0, 85, 89
2, 147330, Note_on_c, 0, 76, 87
2, 147330, Note_on_c, 0, 70, 87
2, 147330, Note_on_c, 0, 66, 87
2, 147330, Note_on_c, 0, 64, 71
2, 147330, Note_on_c, 0, 61, 71
2, 147360, Note_on_c, 0, 61, 0
2, 147360, Note_on_c, 0, 85, 0
2, 147360, Note_on_c, 0, 58, 0
2, 147360, Note_on_c, 0, 76, 0
2, 147360, Note_on_c, 0, 66, 0
2, 147360, Note_on_c, 0, 42, 0
2, 147360, Note_on_c, 0, 66, 0
2, 147360, Note_on_c, 0, 70, 0
2, 147360, Note_on_c, 0, 64, 0
2, 147360, Note_on_c, 0, 83, 89
2, 147360, Note_on_c, 0, 76, 87
2, 147360, Note_on_c, 0, 70, 87
2, 147360, Note_on_c, 0, 66, 87
2, 147360, Note_on_c, 0, 64, 71
2, 147360, Note_on_c, 0, 61, 71
2, 147390, Note_on_c, 0, 61, 0
2, 147390, Note_on_c, 0, 76, 0
2, 147390, Note_on_c, 0, 70, 0
2, 147390, Note_on_c, 0, 83, 0
2, 147390, Note_on_c, 0, 64, 0
2, 147390, Note_on_c, 0, 66, 0
2, 147390, Note_on_c, 0, 82, 89
2, 147390, Note_on_c, 0, 76, 87
2, 147390, Note_on_c, 0, 70, 87
2, 147390, Note_on_c, 0, 66, 87
2, 147390, Note_on_c, 0, 64, 71
2, 147390, Note_on_c, 0, 61, 71
2, 147420, Note_on_c, 0, 61, 0
2, 147420, Note_on_c, 0, 76, 0
2, 147420, Note_on_c, 0, 70, 0
2, 147420, Note_on_c, 0, 82, 0
2, 147420, Note_on_c, 0, 64, 0
2, 147420, Note_on_c, 0, 66, 0
2, 147420, Note_on_c, 0, 80, 89
2, 147420, Note_on_c, 0, 76, 87
2, 147420, Note_on_c, 0, 70, 87
2, 147420, Note_on_c, 0, 66, 87
2, 147420, Note_on_c, 0, 64, 71
2, 147420, Note_on_c, 0, 61, 71
2, 147450, Note_on_c, 0, 61, 0
2, 147450, Note_on_c, 0, 76, 0
2, 147450, Note_on_c, 0, 70, 0
2, 147450, Note_on_c, 0, 80, 0
2, 147450, Note_on_c, 0, 64, 0
2, 147450, Note_on_c, 0, 66, 0
2, 147450, Note_on_c, 0, 78, 89
2, 147450, Note_on_c, 0, 76, 87
2, 147450, Note_on_c, 0, 70, 87
2, 147450, Note_on_c, 0, 66, 87
2, 147450, Note_on_c, 0, 64, 71
2, 147450, Note_on_c, 0, 61, 71
2, 147480, Note_on_c, 0, 61, 0
2, 147480, Note_on_c, 0, 76, 0
2, 147480, Note_on_c, 0, 70, 0
2, 147480, Note_on_c, 0, 78, 0
2, 147480, Note_on_c, 0, 64, 0
2, 147480, Note_on_c, 0, 66, 0
2, 147480, Note_on_c, 0, 77, 89
2, 147480, Note_on_c, 0, 76, 87
2, 147480, Note_on_c, 0, 70, 87
2, 147480, Note_on_c, 0, 66, 87
2, 147480, Note_on_c, 0, 64, 71
2, 147480, Note_on_c, 0, 61, 71
2, 147480, Note_on_c, 0, 42, 82
2, 147510, Note_on_c, 0, 61, 0
2, 147510, Note_on_c, 0, 66, 0
2, 147510, Note_on_c, 0, 76, 0
2, 147510, Note_on_c, 0, 70, 0
2, 147510, Note_on_c, 0, 77, 0
2, 147510, Note_on_c, 0, 64, 0
2, 147510, Note_on_c, 0, 78, 89
2, 147510, Note_on_c, 0, 76, 87
2, 147510, Note_on_c, 0, 70, 87
2, 147510, Note_on_c, 0, 66, 87
2, 147510, Note_on_c, 0, 64, 71
2, 147510, Note_on_c, 0, 61, 71
2, 147540, Note_on_c, 0, 61, 0
2, 147540, Note_on_c, 0, 66, 0
2, 147540, Note_on_c, 0, 78, 0
2, 147540, Note_on_c, 0, 76, 0
2, 147540, Note_on_c, 0, 70, 0
2, 147540, Note_on_c, 0, 64, 0
2, 147540, Note_on_c, 0, 80, 89
2, 147540, Note_on_c, 0, 76, 87
2, 147540, Note_on_c, 0, 70, 87
2, 147540, Note_on_c, 0, 66, 87
2, 147540, Note_on_c, 0, 64, 71
2, 147540, Note_on_c, 0, 61, 71
2, 147570, Note_on_c, 0, 61, 0
2, 147570, Note_on_c, 0, 66, 0
2, 147570, Note_on_c, 0, 80, 0
2, 147570, Note_on_c, 0, 76, 0
2, 147570, Note_on_c, 0, 70, 0
2, 147570, Note_on_c, 0, 64, 0
2, 147570, Note_on_c, 0, 78, 89
2, 147570, Note_on_c, 0, 76, 87
2, 147570, Note_on_c, 0, 70, 87
2, 147570, Note_on_c, 0, 66, 87
2, 147570, Note_on_c, 0, 64, 71
2, 147570, Note_on_c, 0, 61, 71
2, 147600, Note_on_c, 0, 61, 0
2, 147600, Note_on_c, 0, 66, 0
2, 147600, Note_on_c, 0, 78, 0
2, 147600, Note_on_c, 0, 76, 0
2, 147600, Note_on_c, 0, 42, 0
2, 147600, Note_on_c, 0, 64, 0
2, 147600, Note_on_c, 0, 70, 0
2, 147600, Note_on_c, 0, 78, 89
2, 147600, Note_on_c, 0, 75, 87
2, 147600, Note_on_c, 0, 71, 87
2, 147600, Note_on_c, 0, 66, 87
2, 147600, Note_on_c, 0, 63, 71
2, 147600, Note_on_c, 0, 59, 71
2, 147600, Note_on_c, 0, 47, 87
2, 147630, Note_on_c, 0, 75, 0
2, 147630, Note_on_c, 0, 78, 0
2, 147630, Note_on_c, 0, 87, 89
2, 147630, Note_on_c, 0, 75, 87
2, 147660, Note_on_c, 0, 75, 0
2, 147660, Note_on_c, 0, 87, 0
2, 147660, Note_on_c, 0, 85, 89
2, 147660, Note_on_c, 0, 75, 87
2, 147690, Note_on_c, 0, 75, 0
2, 147690, Note_on_c, 0, 85, 0
2, 147690, Note_on_c, 0, 83, 89
2, 147690, Note_on_c, 0, 75, 87
2, 147720, Note_on_c, 0, 75, 0
2, 147720, Note_on_c, 0, 83, 0
2, 147720, Note_on_c, 0, 82, 89
2, 147720, Note_on_c, 0, 75, 87
2, 147750, Note_on_c, 0, 75, 0
2, 147750, Note_on_c, 0, 82, 0
2, 147750, Note_on_c, 0, 83, 89
2, 147750, Note_on_c, 0, 75, 87
2, 147780, Note_on_c, 0, 75, 0
2, 147780, Note_on_c, 0, 83, 0
2, 147780, Note_on_c, 0, 85, 89
2, 147780, Note_on_c, 0, 75, 87
2, 147810, Note_on_c, 0, 75, 0
2, 147810, Note_on_c, 0, 85, 0
2, 147810, Note_on_c, 0, 83, 89
2, 147810, Note_on_c, 0, 75, 87
2, 147840, Note_on_c, 0, 75, 0
2, 147840, Note_on_c, 0, 47, 0
2, 147840, Note_on_c, 0, 83, 0
2, 147840, Note_on_c, 0, 78, 89
2, 147840, Note_on_c, 0, 75, 87
2, 147840, Note_on_c, 0, 51, 87
2, 147870, Note_on_c, 0, 75, 0
2, 147870, Note_on_c, 0, 78, 0
2, 147870, Note_on_c, 0, 87, 89
2, 147870, Note_on_c, 0, 75, 87
2, 147900, Note_on_c, 0, 75, 0
2, 147900, Note_on_c, 0, 87, 0
2, 147900, Note_on_c, 0, 85, 89
2, 147900, Note_on_c, 0, 75, 87
2, 147930, Note_on_c, 0, 75, 0
2, 147930, Note_on_c, 0, 85, 0
2, 147930, Note_on_c, 0, 83, 89
2, 147930, Note_on_c, 0, 75, 87
2, 147960, Note_on_c, 0, 75, 0
2, 147960, Note_on_c, 0, 71, 0
2, 147960, Note_on_c, 0, 51, 0
2, 147960, Note_on_c, 0, 59, 0
2, 147960, Note_on_c, 0, 66, 0
2, 147960, Note_on_c, 0, 83, 0
2, 147960, Note_on_c, 0, 63, 0
2, 147960, Note_on_c, 0, 78, 89
2, 147960, Note_on_c, 0, 75, 87
2, 147960, Note_on_c, 0, 71, 87
2, 147960, Note_on_c, 0, 66, 87
2, 147960, Note_on_c, 0, 63, 71
2, 147960, Note_on_c, 0, 59, 71
2, 147960, Note_on_c, 0, 54, 87
2, 147990, Note_on_c, 0, 75, 0
2, 147990, Note_on_c, 0, 78, 0
2, 147990, Note_on_c, 0, 87, 89
2, 147990, Note_on_c, 0, 75, 87
2, 148020, Note_on_c, 0, 75, 0
2, 148020, Note_on_c, 0, 87, 0
2, 148020, Note_on_c, 0, 85, 89
2, 148020, Note_on_c, 0, 75, 87
2, 148050, Note_on_c, 0, 75, 0
2, 148050, Note_on_c, 0, 85, 0
2, 148050, Note_on_c, 0, 83, 89
2, 148050, Note_on_c, 0, 75, 87
2, 148080, Note_on_c, 0, 75, 0
2, 148080, Note_on_c, 0, 83, 0
2, 148080, Note_on_c, 0, 82, 89
2, 148080, Note_on_c, 0, 75, 87
2, 148110, Note_on_c, 0, 75, 0
2, 148110, Note_on_c, 0, 82, 0
2, 148110, Note_on_c, 0, 83, 89
2, 148110, Note_on_c, 0, 75, 87
2, 148140, Note_on_c, 0, 75, 0
2, 148140, Note_on_c, 0, 83, 0
2, 148140, Note_on_c, 0, 85, 89
2, 148140, Note_on_c, 0, 75, 87
2, 148170, Note_on_c, 0, 75, 0
2, 148170, Note_on_c, 0, 85, 0
2, 148170, Note_on_c, 0, 83, 89
2, 148170, Note_on_c, 0, 75, 87
2, 148200, Note_on_c, 0, 75, 0
2, 148200, Note_on_c, 0, 54, 0
2, 148200, Note_on_c, 0, 83, 0
2, 148200, Note_on_c, 0, 78, 89
2, 148200, Note_on_c, 0, 75, 87
2, 148200, Note_on_c, 0, 59, 87
2, 148230, Note_on_c, 0, 75, 0
2, 148230, Note_on_c, 0, 78, 0
2, 148230, Note_on_c, 0, 87, 89
2, 148230, Note_on_c, 0, 75, 87
2, 148260, Note_on_c, 0, 75, 0
2, 148260, Note_on_c, 0, 87, 0
2, 148260, Note_on_c, 0, 85, 89
2, 148260, Note_on_c, 0, 75, 87
2, 148290, Note_on_c, 0, 75, 0
2, 148290, Note_on_c, 0, 85, 0
2, 148290, Note_on_c, 0, 83, 89
2, 148290, Note_on_c, 0, 75, 87
2, 148320, Note_on_c, 0, 75, 0
2, 148320, Note_on_c, 0, 71, 0
2, 148320, Note_on_c, 0, 59, 0
2, 148320, Note_on_c, 0, 59, 0
2, 148320, Note_on_c, 0, 66, 0
2, 148320, Note_on_c, 0, 83, 0
2, 148320, Note_on_c, 0, 63, 0
2, 148320, Note_on_c, 0, 80, 89
2, 148320, Note_on_c, 0, 75, 87
2, 148320, Note_on_c, 0, 71, 87
2, 148320, Note_on_c, 0, 68, 87
2, 148320, Note_on_c, 0, 68, 71
2, 148350, Note_on_c, 0, 75, 0
2, 148350, Note_on_c, 0, 80, 0
2, 148350, Note_on_c, 0, 87, 89
2, 148350, Note_on_c, 0, 75, 87
2, 148380, Note_on_c, 0, 75, 0
2, 148380, Note_on_c, 0, 87, 0
2, 148380, Note_on_c, 0, 85, 89
2, 148380, Note_on_c, 0, 75, 87
2, 148410, Note_on_c, 0, 75, 0
2, 148410, Note_on_c, 0, 85, 0
2, 148410, Note_on_c, 0, 83, 89
2, 148410, Note_on_c, 0, 75, 87
2, 148440, Note_on_c, 0, 75, 0
2, 148440, Note_on_c, 0, 83, 0
2, 148440, Note_on_c, 0, 82, 89
2, 148440, Note_on_c, 0, 75, 87
2, 148470, Note_on_c, 0, 75, 0
2, 148470, Note_on_c, 0, 82, 0
2, 148470, Note_on_c, 0, 83, 89
2, 148470, Note_on_c, 0, 75, 87
2, 148500, Note_on_c, 0, 75, 0
2, 148500, Note_on_c, 0, 83, 0
2, 148500, Note_on_c, 0, 85, 89
2, 148500, Note_on_c, 0, 75, 87
2, 148530, Note_on_c, 0, 75, 0
2, 148530, Note_on_c, 0, 85, 0
2, 148530, Note_on_c, 0, 83, 89
2, 148530, Note_on_c, 0, 75, 87
2, 148560, Note_on_c, 0, 75, 0
2, 148560, Note_on_c, 0, 83, 0
2, 148560, Note_on_c, 0, 80, 89
2, 148560, Note_on_c, 0, 75, 87
2, 148590, Note_on_c, 0, 75, 0
2, 148590, Note_on_c, 0, 80, 0
2, 148590, Note_on_c, 0, 87, 89
2, 148590, Note_on_c, 0, 75, 87
2, 148620, Note_on_c, 0, 75, 0
2, 148620, Note_on_c, 0, 87, 0
2, 148620, Note_on_c, 0, 85, 89
2, 148620, Note_on_c, 0, 75, 87
2, 148650, Note_on_c, 0, 75, 0
2, 148650, Note_on_c, 0, 85, 0
2, 148650, Note_on_c, 0, 83, 89
2, 148650, Note_on_c, 0, 75, 87
2, 148680, Note_on_c, 0, 75, 0
2, 148680, Note_on_c, 0, 68, 0
2, 148680, Note_on_c, 0, 83, 0
2, 148680, Note_on_c, 0, 71, 0
2, 148680, Note_on_c, 0, 82, 89
2, 148680, Note_on_c, 0, 73, 87
2, 148680, Note_on_c, 0, 71, 87
2, 148680, Note_on_c, 0, 68, 87
2, 148680, Note_on_c, 0, 64, 71
2, 148710, Note_on_c, 0, 73, 0
2, 148710, Note_on_c, 0, 82, 0
2, 148710, Note_on_c, 0, 80, 89
2, 148710, Note_on_c, 0, 73, 87
2, 148740, Note_on_c, 0, 73, 0
2, 148740, Note_on_c, 0, 80, 0
2, 148740, Note_on_c, 0, 79, 89
2, 148740, Note_on_c, 0, 73, 87
2, 148770, Note_on_c, 0, 73, 0
2, 148770, Note_on_c, 0, 79, 0
2, 148770, Note_on_c, 0, 80, 89
2, 148770, Note_on_c, 0, 73, 87
2, 148800, Note_on_c, 0, 73, 0
2, 148800, Note_on_c, 0, 80, 0
2, 148800, Note_on_c, 0, 79, 89
2, 148800, Note_on_c, 0, 73, 87
2, 148830, Note_on_c, 0, 73, 0
2, 148830, Note_on_c, 0, 79, 0
2, 148830, Note_on_c, 0, 80, 89
2, 148830, Note_on_c, 0, 73, 87
2, 148860, Note_on_c, 0, 73, 0
2, 148860, Note_on_c, 0, 80, 0
2, 148860, Note_on_c, 0, 82, 89
2, 148860, Note_on_c, 0, 73, 87
2, 148890, Note_on_c, 0, 73, 0
2, 148890, Note_on_c, 0, 82, 0
2, 148890, Note_on_c, 0, 83, 89
2, 148890, Note_on_c, 0, 73, 87
2, 148920, Note_on_c, 0, 73, 0
2, 148920, Note_on_c, 0, 83, 0
2, 148920, Note_on_c, 0, 84, 89
2, 148920, Note_on_c, 0, 72, 87
2, 148920, Note_on_c, 0, 64, 87
2, 148920, Note_on_c, 0, 59, 87
2, 148920, Note_on_c, 0, 52, 82
2, 148950, Note_on_c, 0, 72, 0
2, 148950, Note_on_c, 0, 84, 0
2, 148950, Note_on_c, 0, 85, 89
2, 148950, Note_on_c, 0, 73, 87
2, 148980, Note_on_c, 0, 73, 0
2, 148980, Note_on_c, 0, 85, 0
2, 148980, Note_on_c, 0, 87, 89
2, 148980, Note_on_c, 0, 75, 87
2, 149010, Note_on_c, 0, 75, 0
2, 149010, Note_on_c, 0, 87, 0
2, 149010, Note_on_c, 0, 88, 89
2, 149010, Note_on_c, 0, 76, 87
2, 149040, Note_on_c, 0, 76, 0
2, 149040, Note_on_c, 0, 52, 0
2, 149040, Note_on_c, 0, 59, 0
2, 149040, Note_on_c, 0, 64, 0
2, 149040, Note_on_c, 0, 64, 0
2, 149040, Note_on_c, 0, 71, 0
2, 149040, Note_on_c, 0, 68, 0
2, 149040, Note_on_c, 0, 68, 0
2, 149040, Note_on_c, 0, 88, 0
2, 149040, Note_on_c, 0, 87, 89
2, 149040, Note_on_c, 0, 75, 87
2, 149040, Note_on_c, 0, 54, 87
2, 149040, Note_on_c, 0, 66, 71
2, 149040, Note_on_c, 0, 63, 87
2, 149040, Note_on_c, 0, 59, 87
2, 149040, Note_on_c, 0, 54, 82
2, 149070, Note_on_c, 0, 54, 0
2, 149070, Note_on_c, 0, 87, 0
2, 149070, Note_on_c, 0, 75, 0
2, 149070, Note_on_c, 0, 88, 89
2, 149070, Note_on_c, 0, 76, 87
2, 149070, Note_on_c, 0, 66, 87
2, 149070, Note_on_c, 0, 63, 87
2, 149070, Note_on_c, 0, 59, 71
2, 149100, Note_on_c, 0, 76, 0
2, 149100, Note_on_c, 0, 63, 0
2, 149100, Note_on_c, 0, 66, 0
2, 149100, Note_on_c, 0, 88, 0
2, 149100, Note_on_c, 0, 59, 0
2, 149100, Note_on_c, 0, 90, 89
2, 149100, Note_on_c, 0, 78, 87
2, 149100, Note_on_c, 0, 66, 87
2, 149100, Note_on_c, 0, 63, 87
2, 149100, Note_on_c, 0, 59, 71
2, 149130, Note_on_c, 0, 63, 0
2, 149130, Note_on_c, 0, 59, 0
2, 149130, Note_on_c, 0, 66, 0
2, 149130, Note_on_c, 0, 66, 87
2, 149130, Note_on_c, 0, 63, 87
2, 149130, Note_on_c, 0, 59, 71
2, 149160, Note_on_c, 0, 59, 0
2, 149160, Note_on_c, 0, 63, 0
2, 149160, Note_on_c, 0, 59, 0
2, 149160, Note_on_c, 0, 54, 0
2, 149160, Note_on_c, 0, 63, 0
2, 149160, Note_on_c, 0, 66, 0
2, 149160, Note_on_c, 0, 66, 0
2, 149160, Note_on_c, 0, 54, 87
2, 149190, Note_on_c, 0, 54, 0
2, 149190, Note_on_c, 0, 66, 87
2, 149190, Note_on_c, 0, 63, 87
2, 149190, Note_on_c, 0, 59, 71
2, 149220, Note_on_c, 0, 59, 0
2, 149220, Note_on_c, 0, 66, 0
2, 149220, Note_on_c, 0, 90, 0
2, 149220, Note_on_c, 0, 78, 0
2, 149220, Note_on_c, 0, 63, 0
2, 149220, Note_on_c, 0, 88, 89
2, 149220, Note_on_c, 0, 66, 87
2, 149220, Note_on_c, 0, 63, 87
2, 149220, Note_on_c, 0, 59, 71
2, 149250, Note_on_c, 0, 59, 0
2, 149250, Note_on_c, 0, 88, 0
2, 149250, Note_on_c, 0, 66, 0
2, 149250, Note_on_c, 0, 63, 0
2, 149250, Note_on_c, 0, 87, 89
2, 149250, Note_on_c, 0, 66, 87
2, 149250, Note_on_c, 0, 63, 87
2, 149250, Note_on_c, 0, 59, 71
2, 149280, Note_on_c, 0, 59, 0
2, 149280, Note_on_c, 0, 87, 0
2, 149280, Note_on_c, 0, 66, 0
2, 149280, Note_on_c, 0, 63, 0
2, 149280, Note_on_c, 0, 87, 89
2, 149280, Note_on_c, 0, 52, 87
2, 149280, Note_on_c, 0, 66, 71
2, 149280, Note_on_c, 0, 58, 87
2, 149280, Note_on_c, 0, 40, 87
2, 149310, Note_on_c, 0, 52, 0
2, 149310, Note_on_c, 0, 87, 0
2, 149310, Note_on_c, 0, 85, 89
2, 149310, Note_on_c, 0, 61, 87
2, 149310, Note_on_c, 0, 58, 87
2, 149310, Note_on_c, 0, 54, 71
2, 149340, Note_on_c, 0, 54, 0
2, 149340, Note_on_c, 0, 85, 0
2, 149340, Note_on_c, 0, 58, 0
2, 149340, Note_on_c, 0, 61, 0
2, 149340, Note_on_c, 0, 82, 89
2, 149340, Note_on_c, 0, 61, 87
2, 149340, Note_on_c, 0, 58, 87
2, 149340, Note_on_c, 0, 54, 71
2, 149370, Note_on_c, 0, 54, 0
2, 149370, Note_on_c, 0, 82, 0
2, 149370, Note_on_c, 0, 58, 0
2, 149370, Note_on_c, 0, 61, 0
2, 149370, Note_on_c, 0, 78, 89
2, 149370, Note_on_c, 0, 61, 87
2, 149370, Note_on_c, 0, 58, 87
2, 149370, Note_on_c, 0, 54, 71
2, 149400, Note_on_c, 0, 54, 0
2, 149400, Note_on_c, 0, 61, 0
2, 149400, Note_on_c, 0, 58, 0
2, 149400, Note_on_c, 0, 40, 0
2, 149400, Note_on_c, 0, 78, 0
2, 149400, Note_on_c, 0, 58, 0
2, 149400, Note_on_c, 0, 90, 89
2, 149400, Note_on_c, 0, 78, 87
2, 149400, Note_on_c, 0, 51, 87
2, 149400, Note_on_c, 0, 39, 87
2, 149400, Note_on_c, 0, 59, 87
2, 149400, Note_on_c, 0, 39, 87
2, 149430, Note_on_c, 0, 39, 0
2, 149430, Note_on_c, 0, 51, 0
2, 149430, Note_on_c, 0, 59, 87
2, 149430, Note_on_c, 0, 54, 87
2, 149430, Note_on_c, 0, 51, 71
2, 149460, Note_on_c, 0, 51, 0
2, 149460, Note_on_c, 0, 54, 0
2, 149460, Note_on_c, 0, 59, 0
2, 149460, Note_on_c, 0, 78, 0
2, 149460, Note_on_c, 0, 90, 0
2, 149460, Note_on_c, 0, 59, 87
2, 149460, Note_on_c, 0, 54, 87
2, 149460, Note_on_c, 0, 51, 71
2, 149490, Note_on_c, 0, 51, 0
2, 149490, Note_on_c, 0, 59, 0
2, 149490, Note_on_c, 0, 54, 0
2, 149490, Note_on_c, 0, 87, 89
2, 149520, Note_on_c, 0, 87, 0
2, 149520, Note_on_c, 0, 39, 0
2, 149520, Note_on_c, 0, 59, 0
2, 149520, Note_on_c, 0, 66, 0
2, 149520, Note_on_c, 0, 85, 89
2, 149520, Note_on_c, 0, 51, 87
2, 149520, Note_on_c, 0, 39, 87
2, 149550, Note_on_c, 0, 39, 0
2, 149550, Note_on_c, 0, 51, 0
2, 149550, Note_on_c, 0, 59, 87
2, 149550, Note_on_c, 0, 54, 87
2, 149550, Note_on_c, 0, 51, 71
2, 149580, Note_on_c, 0, 51, 0
2, 149580, Note_on_c, 0, 85, 0
2, 149580, Note_on_c, 0, 59, 0
2, 149580, Note_on_c, 0, 54, 0
2, 149580, Note_on_c, 0, 83, 89
2, 149580, Note_on_c, 0, 59, 87
2, 149580, Note_on_c, 0, 54, 87
2, 149580, Note_on_c, 0, 51, 71
2, 149610, Note_on_c, 0, 51, 0
2, 149610, Note_on_c, 0, 83, 0
2, 149610, Note_on_c, 0, 59, 0
2, 149610, Note_on_c, 0, 54, 0
2, 149610, Note_on_c, 0, 75, 89
2, 149640, Note_on_c, 0, 75, 0
2, 149640, Note_on_c, 0, 73, 89
2, 149640, Note_on_c, 0, 51, 87
2, 149640, Note_on_c, 0, 39, 87
2, 149670, Note_on_c, 0, 39, 0
2, 149670, Note_on_c, 0, 51, 0
2, 149670, Note_on_c, 0, 59, 87
2, 149670, Note_on_c, 0, 54, 87
2, 149670, Note_on_c, 0, 51, 71
2, 149700, Note_on_c, 0, 51, 0
2, 149700, Note_on_c, 0, 73, 0
2, 149700, Note_on_c, 0, 59, 0
2, 149700, Note_on_c, 0, 54, 0
2, 149700, Note_on_c, 0, 71, 89
2, 149700, Note_on_c, 0, 59, 87
2, 149700, Note_on_c, 0, 54, 87
2, 149700, Note_on_c, 0, 51, 71
2, 149730, Note_on_c, 0, 51, 0
2, 149730, Note_on_c, 0, 71, 0
2, 149730, Note_on_c, 0, 59, 0
2, 149730, Note_on_c, 0, 54, 0
2, 149730, Note_on_c, 0, 63, 89
2, 149760, Note_on_c, 0, 63, 0
2, 149760, Note_on_c, 0, 61, 89
2, 149760, Note_on_c, 0, 51, 87
2, 149760, Note_on_c, 0, 39, 87
2, 149820, Note_on_c, 0, 39, 0
2, 149820, Note_on_c, 0, 51, 0
2, 149820, Note_on_c, 0, 57, 87
2, 149820, Note_on_c, 0, 54, 87
2, 149880, Note_on_c, 0, 54, 0
2, 149880, Note_on_c, 0, 57, 0
2, 149880, Note_on_c, 0, 61, 0
2, 149880, Note_on_c, 0, 60, 89
2, 149880, Note_on_c, 0, 57, 87
2, 149880, Note_on_c, 0, 54, 87
2, 149880, Note_on_c, 0, 51, 87
2, 149910, Note_on_c, 0, 60, 0
2, 149910, Note_on_c, 0, 63, 89
2, 149940, Note_on_c, 0, 63, 0
2, 149940, Note_on_c, 0, 51, 0
2, 149940, Note_on_c, 0, 54, 0
2, 149940, Note_on_c, 0, 57, 0
2, 149940, Note_on_c, 0, 66, 89
2, 149940, Note_on_c, 0, 57, 87
2, 149940, Note_on_c, 0, 54, 87
2, 149940, Note_on_c, 0, 51, 87
2, 149970, Note_on_c, 0, 66, 0
2, 149970, Note_on_c, 0, 69, 89
2, 150000, Note_on_c, 0, 69, 0
2, 150000, Note_on_c, 0, 51, 0
2, 150000, Note_on_c, 0, 54, 0
2, 150000, Note_on_c, 0, 57, 0
2, 150000, Note_on_c, 0, 72, 89
2, 150000, Note_on_c, 0, 60, 87
2, 150000, Note_on_c, 0, 57, 87
2, 150000, Note_on_c, 0, 51, 87
2, 150030, Note_on_c, 0, 72, 0
2, 150030, Note_on_c, 0, 75, 89
2, 150060, Note_on_c, 0, 75, 0
2, 150060, Note_on_c, 0, 51, 0
2, 150060, Note_on_c, 0, 57, 0
2, 150060, Note_on_c, 0, 60, 0
2, 150060, Note_on_c, 0, 78, 89
2, 150060, Note_on_c, 0, 60, 87
2, 150060, Note_on_c, 0, 57, 87
2, 150060, Note_on_c, 0, 54, 87
2, 150060, Note_on_c, 0, 51, 71
2, 150090, Note_on_c, 0, 78, 0
2, 150090, Note_on_c, 0, 81, 89
2, 150120, Note_on_c, 0, 81, 0
2, 150120, Note_on_c, 0, 51, 0
2, 150120, Note_on_c, 0, 60, 0
2, 150120, Note_on_c, 0, 57, 0
2, 150120, Note_on_c, 0, 54, 0
2, 150120, Note_on_c, 0, 84, 89
2, 150120, Note_on_c, 0, 60, 87
2, 150120, Note_on_c, 0, 57, 87
2, 150120, Note_on_c, 0, 54, 87
2, 150120, Note_on_c, 0, 51, 71
2, 150150, Note_on_c, 0, 84, 0
2, 150150, Note_on_c, 0, 87, 89
2, 150180, Note_on_c, 0, 87, 0
2, 150180, Note_on_c, 0, 51, 0
2, 150180, Note_on_c, 0, 60, 0
2, 150180, Note_on_c, 0, 57, 0
2, 150180, Note_on_c, 0, 54, 0
2, 150180, Note_on_c, 0, 90, 89
2, 150180, Note_on_c, 0, 60, 87
2, 150180, Note_on_c, 0, 57, 87
2, 150180, Note_on_c, 0, 54, 87
2, 150180, Note_on_c, 0, 51, 71
2, 150210, Note_on_c, 0, 90, 0
2, 150210, Note_on_c, 0, 93, 89
2, 150240, Note_on_c, 0, 54, 0
2, 150240, Note_on_c, 0, 51, 0
2, 150240, Note_on_c, 0, 60, 0
2, 150240, Note_on_c, 0, 57, 0
2, 150240, Note_on_c, 0, 60, 87
2, 150240, Note_on_c, 0, 57, 87
2, 150240, Note_on_c, 0, 54, 87
2, 150240, Note_on_c, 0, 51, 71
2, 150300, Note_on_c, 0, 51, 0
2, 150300, Note_on_c, 0, 57, 0
2, 150300, Note_on_c, 0, 54, 0
2, 150300, Note_on_c, 0, 60, 0
2, 150300, Note_on_c, 0, 60, 87
2, 150300, Note_on_c, 0, 57, 87
2, 150300, Note_on_c, 0, 54, 87
2, 150300, Note_on_c, 0, 51, 71
2, 150360, Note_on_c, 0, 51, 0
2, 150360, Note_on_c, 0, 57, 0
2, 150360, Note_on_c, 0, 93, 0
2, 150360, Note_on_c, 0, 60, 0
2, 150360, Note_on_c, 0, 54, 0
2, 150360, Note_on_c, 0, 60, 87
2, 150360, Note_on_c, 0, 57, 87
2, 150360, Note_on_c, 0, 54, 87
2, 150360, Note_on_c, 0, 51, 71
2, 150420, Note_on_c, 0, 51, 0
2, 150420, Note_on_c, 0, 60, 0
2, 150420, Note_on_c, 0, 57, 0
2, 150420, Note_on_c, 0, 54, 0
2, 150420, Note_on_c, 0, 72, 89
2, 150420, Note_on_c, 0, 69, 87
2, 150420, Note_on_c, 0, 66, 87
2, 150420, Note_on_c, 0, 63, 87
2, 150480, Note_on_c, 0, 63, 0
2, 150480, Note_on_c, 0, 72, 0
2, 150480, Note_on_c, 0, 69, 0
2, 150480, Note_on_c, 0, 66, 0
2, 150480, Note_on_c, 0, 73, 89
2, 150480, Note_on_c, 0, 68, 87
2, 150480, Note_on_c, 0, 64, 87
2, 150510, Note_on_c, 0, 68, 0
2, 150510, Note_on_c, 0, 69, 87
2, 150540, Note_on_c, 0, 69, 0
2, 150540, Note_on_c, 0, 68, 87
2, 150570, Note_on_c, 0, 68, 0
2, 150570, Note_on_c, 0, 69, 87
2, 150600, Note_on_c, 0, 69, 0
2, 150600, Note_on_c, 0, 64, 0
2, 150600, Note_on_c, 0, 73, 0
2, 150600, Note_on_c, 0, 68, 87
2, 150630, Note_on_c, 0, 68, 0
2, 150630, Note_on_c, 0, 69, 87
2, 150660, Note_on_c, 0, 69, 0
2, 150660, Note_on_c, 0, 72, 89
2, 150660, Note_on_c, 0, 68, 87
2, 150660, Note_on_c, 0, 66, 87
2, 150660, Note_on_c, 0, 63, 87
2, 150690, Note_on_c, 0, 68, 0
2, 150690, Note_on_c, 0, 69, 87
2, 150720, Note_on_c, 0, 69, 0
2, 150720, Note_on_c, 0, 63, 0
2, 150720, Note_on_c, 0, 66, 0
2, 150720, Note_on_c, 0, 72, 0
2, 150720, Note_on_c, 0, 73, 89
2, 150720, Note_on_c, 0, 68, 87
2, 150720, Note_on_c, 0, 64, 87
2, 150750, Note_on_c, 0, 68, 0
2, 150750, Note_on_c, 0, 69, 87
2, 150780, Note_on_c, 0, 69, 0
2, 150780, Note_on_c, 0, 68, 87
2, 150810, Note_on_c, 0, 68, 0
2, 150810, Note_on_c, 0, 69, 87
2, 150840, Note_on_c, 0, 69, 0
2, 150840, Note_on_c, 0, 64, 0
2, 150840, Note_on_c, 0, 73, 0
2, 150840, Note_on_c, 0, 68, 87
2, 150870, Note_on_c, 0, 68, 0
2, 150870, Note_on_c, 0, 69, 87
2, 150900, Note_on_c, 0, 69, 0
2, 150900, Note_on_c, 0, 72, 89
2, 150900, Note_on_c, 0, 68, 87
2, 150900, Note_on_c, 0, 66, 87
2, 150900, Note_on_c, 0, 63, 87
2, 150930, Note_on_c, 0, 68, 0
2, 150930, Note_on_c, 0, 69, 87
2, 150960, Note_on_c, 0, 69, 0
2, 150960, Note_on_c, 0, 63, 0
2, 150960, Note_on_c, 0, 66, 0
2, 150960, Note_on_c, 0, 72, 0
2, 150960, Note_on_c, 0, 73, 89
2, 150960, Note_on_c, 0, 68, 87
2, 150960, Note_on_c, 0, 64, 87
2, 150990, Note_on_c, 0, 68, 0
2, 150990, Note_on_c, 0, 69, 87
2, 151020, Note_on_c, 0, 69, 0
2, 151020, Note_on_c, 0, 68, 87
2, 151050, Note_on_c, 0, 68, 0
2, 151050, Note_on_c, 0, 69, 87
2, 151080, Note_on_c, 0, 69, 0
2, 151080, Note_on_c, 0, 64, 0
2, 151080, Note_on_c, 0, 73, 0
2, 151080, Note_on_c, 0, 68, 87
2, 151110, Note_on_c, 0, 68, 0
2, 151110, Note_on_c, 0, 69, 87
2, 151140, Note_on_c, 0, 69, 0
2, 151140, Note_on_c, 0, 72, 89
2, 151140, Note_on_c, 0, 68, 87
2, 151140, Note_on_c, 0, 66, 87
2, 151140, Note_on_c, 0, 63, 87
2, 151170, Note_on_c, 0, 68, 0
2, 151170, Note_on_c, 0, 69, 87
2, 151200, Note_on_c, 0, 69, 0
2, 151200, Note_on_c, 0, 63, 0
2, 151200, Note_on_c, 0, 66, 0
2, 151200, Note_on_c, 0, 72, 0
2, 151200, Note_on_c, 0, 73, 89
2, 151200, Note_on_c, 0, 68, 87
2, 151200, Note_on_c, 0, 64, 87
2, 151230, Note_on_c, 0, 68, 0
2, 151230, Note_on_c, 0, 69, 87
2, 151260, Note_on_c, 0, 69, 0
2, 151260, Note_on_c, 0, 64, 0
2, 151260, Note_on_c, 0, 73, 0
2, 151260, Note_on_c, 0, 72, 89
2, 151260, Note_on_c, 0, 68, 87
2, 151260, Note_on_c, 0, 66, 87
2, 151260, Note_on_c, 0, 63, 87
2, 151290, Note_on_c, 0, 68, 0
2, 151290, Note_on_c, 0, 69, 87
2, 151320, Note_on_c, 0, 69, 0
2, 151320, Note_on_c, 0, 63, 0
2, 151320, Note_on_c, 0, 66, 0
2, 151320, Note_on_c, 0, 72, 0
2, 151320, Note_on_c, 0, 73, 89
2, 151320, Note_on_c, 0, 68, 87
2, 151320, Note_on_c, 0, 64, 87
2, 151350, Note_on_c, 0, 68, 0
2, 151350, Note_on_c, 0, 69, 87
2, 151380, Note_on_c, 0, 69, 0
2, 151380, Note_on_c, 0, 64, 0
2, 151380, Note_on_c, 0, 73, 0
2, 151380, Note_on_c, 0, 72, 89
2, 151380, Note_on_c, 0, 68, 87
2, 151380, Note_on_c, 0, 66, 87
2, 151380, Note_on_c, 0, 63, 87
2, 151410, Note_on_c, 0, 68, 0
2, 151410, Note_on_c, 0, 69, 87
2, 151440, Note_on_c, 0, 69, 0
2, 151440, Note_on_c, 0, 63, 0
2, 151440, Note_on_c, 0, 66, 0
2, 151440, Note_on_c, 0, 72, 0
2, 151440, Note_on_c, 0, 73, 89
2, 151440, Note_on_c, 0, 68, 87
2, 151440, Note_on_c, 0, 64, 87
2, 151470, Note_on_c, 0, 64, 0
2, 151470, Note_on_c, 0, 68, 0
2, 151470, Note_on_c, 0, 73, 0
2, 151470, Note_on_c, 0, 72, 89
2, 151470, Note_on_c, 0, 69, 87
2, 151470, Note_on_c, 0, 66, 87
2, 151470, Note_on_c, 0, 63, 87
2, 151500, Note_on_c, 0, 63, 0
2, 151500, Note_on_c, 0, 72, 0
2, 151500, Note_on_c, 0, 69, 0
2, 151500, Note_on_c, 0, 66, 0
2, 151500, Note_on_c, 0, 73, 89
2, 151500, Note_on_c, 0, 68, 87
2, 151500, Note_on_c, 0, 64, 87
2, 151530, Note_on_c, 0, 64, 0
2, 151530, Note_on_c, 0, 68, 0
2, 151530, Note_on_c, 0, 73, 0
2, 151530, Note_on_c, 0, 72, 89
2, 151530, Note_on_c, 0, 69, 87
2, 151530, Note_on_c, 0, 66, 87
2, 151530, Note_on_c, 0, 63, 87
2, 151560, Note_on_c, 0, 63, 0
2, 151560, Note_on_c, 0, 72, 0
2, 151560, Note_on_c, 0, 69, 0
2, 151560, Note_on_c, 0, 66, 0
2, 151560, Note_on_c, 0, 73, 89
2, 151560, Note_on_c, 0, 68, 87
2, 151560, Note_on_c, 0, 64, 87
2, 151590, Note_on_c, 0, 64, 0
2, 151590, Note_on_c, 0, 68, 0
2, 151590, Note_on_c, 0, 73, 0
2, 151590, Note_on_c, 0, 72, 89
2, 151590, Note_on_c, 0, 69, 87
2, 151590, Note_on_c, 0, 66, 87
2, 151590, Note_on_c, 0, 63, 87
2, 151620, Note_on_c, 0, 63, 0
2, 151620, Note_on_c, 0, 72, 0
2, 151620, Note_on_c, 0, 69, 0
2, 151620, Note_on_c, 0, 66, 0
2, 151620, Note_on_c, 0, 73, 89
2, 151620, Note_on_c, 0, 68, 87
2, 151620, Note_on_c, 0, 64, 87
2, 151650, Note_on_c, 0, 64, 0
2, 151650, Note_on_c, 0, 68, 0
2, 151650, Note_on_c, 0, 73, 0
2, 151650, Note_on_c, 0, 72, 89
2, 151650, Note_on_c, 0, 69, 87
2, 151650, Note_on_c, 0, 66, 87
2, 151650, Note_on_c, 0, 63, 87
2, 151680, Note_on_c, 0, 63, 0
2, 151680, Note_on_c, 0, 72, 0
2, 151680, Note_on_c, 0, 69, 0
2, 151680, Note_on_c, 0, 66, 0
2, 151680, Note_on_c, 0, 73, 89
2, 151680, Note_on_c, 0, 68, 87
2, 151680, Note_on_c, 0, 64, 87
2, 151710, Note_on_c, 0, 68, 0
2, 151710, Note_on_c, 0, 69, 87
2, 151740, Note_on_c, 0, 69, 0
2, 151740, Note_on_c, 0, 68, 87
2, 151770, Note_on_c, 0, 68, 0
2, 151770, Note_on_c, 0, 69, 87
2, 151800, Note_on_c, 0, 69, 0
2, 151800, Note_on_c, 0, 68, 87
2, 151830, Note_on_c, 0, 68, 0
2, 151830, Note_on_c, 0, 69, 87
2, 151860, Note_on_c, 0, 69, 0
2, 151860, Note_on_c, 0, 70, 87
2, 151890, Note_on_c, 0, 70, 0
2, 151890, Note_on_c, 0, 71, 87
2, 151920, Note_on_c, 0, 71, 0
2, 151920, Note_on_c, 0, 73, 0
2, 151920, Note_on_c, 0, 72, 89
2, 151950, Note_on_c, 0, 72, 0
2, 151950, Note_on_c, 0, 73, 89
2, 151980, Note_on_c, 0, 73, 0
2, 151980, Note_on_c, 0, 64, 0
2, 151980, Note_on_c, 0, 74, 89
2, 152010, Note_on_c, 0, 74, 0
2, 152010, Note_on_c, 0, 75, 89
2, 152040, Note_on_c, 0, 75, 0
2, 152040, Note_on_c, 0, 76, 89
2, 152070, Note_on_c, 0, 76, 0
2, 152070, Note_on_c, 0, 77, 89
2, 152100, Note_on_c, 0, 77, 0
2, 152100, Note_on_c, 0, 78, 89
2, 152130, Note_on_c, 0, 78, 0
2, 152130, Note_on_c, 0, 79, 89
2, 152160, Note_on_c, 0, 79, 0
2, 152160, Note_on_c, 0, 80, 89
2, 152160, Note_on_c, 0, 61, 87
2, 152160, Note_on_c, 0, 59, 87
2, 152160, Note_on_c, 0, 52, 87
2, 152190, Note_on_c, 0, 80, 0
2, 152190, Note_on_c, 0, 81, 89
2, 152220, Note_on_c, 0, 81, 0
2, 152220, Note_on_c, 0, 82, 89
2, 152250, Note_on_c, 0, 82, 0
2, 152250, Note_on_c, 0, 83, 89
2, 152280, Note_on_c, 0, 83, 0
2, 152280, Note_on_c, 0, 52, 0
2, 152280, Note_on_c, 0, 59, 0
2, 152280, Note_on_c, 0, 61, 0
2, 152280, Note_on_c, 0, 85, 89
2, 152310, Note_on_c, 0, 85, 0
2, 152310, Note_on_c, 0, 87, 89
2, 152340, Note_on_c, 0, 87, 0
2, 152340, Note_on_c, 0, 88, 89
2, 152370, Note_on_c, 0, 88, 0
2, 152370, Note_on_c, 0, 90, 89
2, 152400, Note_on_c, 0, 90, 0
2, 152400, Note_on_c, 0, 91, 89
2, 152400, Note_on_c, 0, 61, 87
2, 152400, Note_on_c, 0, 59, 87
2, 152400, Note_on_c, 0, 52, 87
2, 152430, Note_on_c, 0, 91, 0
2, 152430, Note_on_c, 0, 92, 89
2, 152460, Note_on_c, 0, 92, 0
2, 152460, Note_on_c, 0, 94, 89
2, 152490, Note_on_c, 0, 94, 0
2, 152490, Note_on_c, 0, 95, 89
2, 152520, Note_on_c, 0, 95, 0
2, 152520, Note_on_c, 0, 52, 0
2, 152520, Note_on_c, 0, 59, 0
2, 152520, Note_on_c, 0, 61, 0
2, 152520, Note_on_c, 0, 96, 89
2, 152550, Note_on_c, 0, 96, 0
2, 152550, Note_on_c, 0, 97, 89
2, 152580, Note_on_c, 0, 97, 0
2, 152580, Note_on_c, 0, 99, 89
2, 152610, Note_on_c, 0, 99, 0
2, 152610, Note_on_c, 0, 100, 89
2, 152640, Note_on_c, 0, 100, 0
2, 152640, Note_on_c, 0, 97, 89
2, 152670, Note_on_c, 0, 97, 0
2, 152670, Note_on_c, 0, 95, 89
2, 152700, Note_on_c, 0, 95, 0
2, 152700, Note_on_c, 0, 92, 89
2, 152730, Note_on_c, 0, 92, 0
2, 152730, Note_on_c, 0, 88, 89
2, 152760, Note_on_c, 0, 88, 0
2, 152760, Note_on_c, 0, 91, 89
2, 152790, Note_on_c, 0, 91, 0
2, 152790, Note_on_c, 0, 94, 89
2, 152820, Note_on_c, 0, 94, 0
2, 152820, Note_on_c, 0, 92, 89
2, 152850, Note_on_c, 0, 92, 0
2, 152850, Note_on_c, 0, 87, 89
2, 152880, Note_on_c, 0, 87, 0
2, 152880, Note_on_c, 0, 90, 89
2, 152910, Note_on_c, 0, 90, 0
2, 152910, Note_on_c, 0, 88, 89
2, 152940, Note_on_c, 0, 88, 0
2, 152940, Note_on_c, 0, 84, 89
2, 152970, Note_on_c, 0, 84, 0
2, 152970, Note_on_c, 0, 87, 89
2, 153000, Note_on_c, 0, 87, 0
2, 153000, Note_on_c, 0, 85, 89
2, 153030, Note_on_c, 0, 85, 0
2, 153030, Note_on_c, 0, 83, 89
2, 153060, Note_on_c, 0, 83, 0
2, 153060, Note_on_c, 0, 80, 89
2, 153090, Note_on_c, 0, 80, 0
2, 153090, Note_on_c, 0, 76, 89
2, 153120, Note_on_c, 0, 76, 0
2, 153120, Note_on_c, 0, 75, 89
2, 153150, Note_on_c, 0, 75, 0
2, 153150, Note_on_c, 0, 78, 89
2, 153180, Note_on_c, 0, 78, 0
2, 153180, Note_on_c, 0, 76, 89
2, 153210, Note_on_c, 0, 76, 0
2, 153210, Note_on_c, 0, 73, 89
2, 153240, Note_on_c, 0, 73, 0
2, 153240, Note_on_c, 0, 72, 89
2, 153270, Note_on_c, 0, 72, 0
2, 153270, Note_on_c, 0, 73, 89
2, 153300, Note_on_c, 0, 73, 0
2, 153300, Note_on_c, 0, 76, 89
2, 153330, Note_on_c, 0, 76, 0
2, 153330, Note_on_c, 0, 80, 89
2, 153360, Note_on_c, 0, 80, 0
2, 153360, Note_on_c, 0, 78, 89
2, 153360, Note_on_c, 0, 63, 87
2, 153360, Note_on_c, 0, 59, 87
2, 153360, Note_on_c, 0, 54, 87
2, 153360, Note_on_c, 0, 63, 71
2, 153360, Note_on_c, 0, 59, 71
2, 153360, Note_on_c, 0, 42, 87
2, 153390, Note_on_c, 0, 78, 0
2, 153390, Note_on_c, 0, 75, 89
2, 153420, Note_on_c, 0, 75, 0
2, 153420, Note_on_c, 0, 71, 89
2, 153450, Note_on_c, 0, 71, 0
2, 153450, Note_on_c, 0, 68, 89
2, 153480, Note_on_c, 0, 68, 0
2, 153480, Note_on_c, 0, 66, 89
2, 153510, Note_on_c, 0, 66, 0
2, 153510, Note_on_c, 0, 71, 89
2, 153540, Note_on_c, 0, 71, 0
2, 153540, Note_on_c, 0, 75, 89
2, 153570, Note_on_c, 0, 75, 0
2, 153570, Note_on_c, 0, 80, 89
2, 153600, Note_on_c, 0, 80, 0
2, 153600, Note_on_c, 0, 78, 89
2, 153630, Note_on_c, 0, 78, 0
2, 153630, Note_on_c, 0, 75, 89
2, 153660, Note_on_c, 0, 75, 0
2, 153660, Note_on_c, 0, 71, 89
2, 153690, Note_on_c, 0, 71, 0
2, 153690, Note_on_c, 0, 68, 89
2, 153720, Note_on_c, 0, 68, 0
2, 153720, Note_on_c, 0, 66, 89
2, 153750, Note_on_c, 0, 66, 0
2, 153750, Note_on_c, 0, 71, 89
2, 153780, Note_on_c, 0, 71, 0
2, 153780, Note_on_c, 0, 75, 89
2, 153810, Note_on_c, 0, 75, 0
2, 153810, Note_on_c, 0, 80, 89
2, 153840, Note_on_c, 0, 80, 0
2, 153840, Note_on_c, 0, 59, 0
2, 153840, Note_on_c, 0, 59, 0
2, 153840, Note_on_c, 0, 54, 0
2, 153840, Note_on_c, 0, 63, 0
2, 153840, Note_on_c, 0, 63, 0
2, 153840, Note_on_c, 0, 78, 89
2, 153840, Note_on_c, 0, 63, 71
2, 153840, Note_on_c, 0, 59, 71
2, 153870, Note_on_c, 0, 78, 0
2, 153870, Note_on_c, 0, 75, 89
2, 153900, Note_on_c, 0, 75, 0
2, 153900, Note_on_c, 0, 71, 89
2, 153930, Note_on_c, 0, 71, 0
2, 153930, Note_on_c, 0, 68, 89
2, 153960, Note_on_c, 0, 68, 0
2, 153960, Note_on_c, 0, 66, 89
2, 153990, Note_on_c, 0, 66, 0
2, 153990, Note_on_c, 0, 71, 89
2, 154020, Note_on_c, 0, 71, 0
2, 154020, Note_on_c, 0, 59, 0
2, 154020, Note_on_c, 0, 63, 0
2, 154020, Note_on_c, 0, 75, 89
2, 154020, Note_on_c, 0, 64, 71
2, 154020, Note_on_c, 0, 61, 71
2, 154050, Note_on_c, 0, 75, 0
2, 154050, Note_on_c, 0, 85, 89
2, 154080, Note_on_c, 0, 85, 0
2, 154080, Note_on_c, 0, 61, 0
2, 154080, Note_on_c, 0, 64, 0
2, 154080, Note_on_c, 0, 83, 89
2, 154080, Note_on_c, 0, 66, 87
2, 154080, Note_on_c, 0, 63, 87
2, 154080, Note_on_c, 0, 59, 87
2, 154080, Note_on_c, 0, 54, 71
2, 154080, Note_on_c, 0, 66, 71
2, 154080, Note_on_c, 0, 63, 87
2, 154110, Note_on_c, 0, 83, 0
2, 154110, Note_on_c, 0, 78, 89
2, 154140, Note_on_c, 0, 78, 0
2, 154140, Note_on_c, 0, 75, 89
2, 154170, Note_on_c, 0, 75, 0
2, 154170, Note_on_c, 0, 73, 89
2, 154200, Note_on_c, 0, 73, 0
2, 154200, Note_on_c, 0, 71, 89
2, 154230, Note_on_c, 0, 71, 0
2, 154230, Note_on_c, 0, 75, 89
2, 154260, Note_on_c, 0, 75, 0
2, 154260, Note_on_c, 0, 78, 89
2, 154290, Note_on_c, 0, 78, 0
2, 154290, Note_on_c, 0, 88, 89
2, 154320, Note_on_c, 0, 88, 0
2, 154320, Note_on_c, 0, 87, 89
2, 154350, Note_on_c, 0, 87, 0
2, 154350, Note_on_c, 0, 83, 89
2, 154380, Note_on_c, 0, 83, 0
2, 154380, Note_on_c, 0, 78, 89
2, 154410, Note_on_c, 0, 78, 0
2, 154410, Note_on_c, 0, 76, 89
2, 154440, Note_on_c, 0, 76, 0
2, 154440, Note_on_c, 0, 75, 89
2, 154470, Note_on_c, 0, 75, 0
2, 154470, Note_on_c, 0, 78, 89
2, 154500, Note_on_c, 0, 78, 0
2, 154500, Note_on_c, 0, 83, 89
2, 154530, Note_on_c, 0, 83, 0
2, 154530, Note_on_c, 0, 92, 89
2, 154560, Note_on_c, 0, 92, 0
2, 154560, Note_on_c, 0, 63, 0
2, 154560, Note_on_c, 0, 54, 0
2, 154560, Note_on_c, 0, 66, 0
2, 154560, Note_on_c, 0, 63, 0
2, 154560, Note_on_c, 0, 59, 0
2, 154560, Note_on_c, 0, 66, 0
2, 154560, Note_on_c, 0, 90, 89
2, 154560, Note_on_c, 0, 66, 71
2, 154560, Note_on_c, 0, 63, 87
2, 154590, Note_on_c, 0, 90, 0
2, 154590, Note_on_c, 0, 87, 89
2, 154620, Note_on_c, 0, 87, 0
2, 154620, Note_on_c, 0, 83, 89
2, 154650, Note_on_c, 0, 83, 0
2, 154650, Note_on_c, 0, 80, 89
2, 154680, Note_on_c, 0, 80, 0
2, 154680, Note_on_c, 0, 42, 0
2, 154680, Note_on_c, 0, 78, 89
2, 154710, Note_on_c, 0, 78, 0
2, 154710, Note_on_c, 0, 83, 89
2, 154740, Note_on_c, 0, 83, 0
2, 154740, Note_on_c, 0, 66, 0
2, 154740, Note_on_c, 0, 63, 0
2, 154740, Note_on_c, 0, 89, 89
2, 154740, Note_on_c, 0, 68, 87
2, 154740, Note_on_c, 0, 65, 71
2, 154740, Note_on_c, 0, 62, 87
2, 154770, Note_on_c, 0, 89, 0
2, 154770, Note_on_c, 0, 95, 89
2, 154800, Note_on_c, 0, 95, 0
2, 154800, Note_on_c, 0, 62, 0
2, 154800, Note_on_c, 0, 65, 0
2, 154800, Note_on_c, 0, 68, 0
2, 154800, Note_on_c, 0, 94, 89
2, 154800, Note_on_c, 0, 64, 87
2, 154800, Note_on_c, 0, 61, 87
2, 154800, Note_on_c, 0, 70, 87
2, 154800, Note_on_c, 0, 66, 71
2, 154800, Note_on_c, 0, 64, 71
2, 154800, Note_on_c, 0, 61, 87
2, 154800, Note_on_c, 0, 54, 87
2, 154800, Note_on_c, 0, 42, 82
2, 154830, Note_on_c, 0, 94, 0
2, 154830, Note_on_c, 0, 92, 89
2, 154860, Note_on_c, 0, 92, 0
2, 154860, Note_on_c, 0, 90, 89
2, 154890, Note_on_c, 0, 90, 0
2, 154890, Note_on_c, 0, 89, 89
2, 154920, Note_on_c, 0, 89, 0
2, 154920, Note_on_c, 0, 88, 89
2, 154950, Note_on_c, 0, 88, 0
2, 154950, Note_on_c, 0, 87, 89
2, 154980, Note_on_c, 0, 87, 0
2, 154980, Note_on_c, 0, 85, 89
2, 155010, Note_on_c, 0, 85, 0
2, 155010, Note_on_c, 0, 83, 89
2, 155040, Note_on_c, 0, 83, 0
2, 155040, Note_on_c, 0, 82, 89
2, 155070, Note_on_c, 0, 82, 0
2, 155070, Note_on_c, 0, 80, 89
2, 155100, Note_on_c, 0, 80, 0
2, 155100, Note_on_c, 0, 78, 89
2, 155130, Note_on_c, 0, 78, 0
2, 155130, Note_on_c, 0, 77, 89
2, 155160, Note_on_c, 0, 77, 0
2, 155160, Note_on_c, 0, 80, 89
2, 155190, Note_on_c, 0, 80, 0
2, 155190, Note_on_c, 0, 78, 89
2, 155220, Note_on_c, 0, 78, 0
2, 155220, Note_on_c, 0, 76, 89
2, 155250, Note_on_c, 0, 76, 0
2, 155250, Note_on_c, 0, 75, 89
2, 155280, Note_on_c, 0, 75, 0
2, 155280, Note_on_c, 0, 64, 0
2, 155280, Note_on_c, 0, 61, 0
2, 155280, Note_on_c, 0, 73, 89
2, 155310, Note_on_c, 0, 73, 0
2, 155310, Note_on_c, 0, 71, 89
2, 155340, Note_on_c, 0, 71, 0
2, 155340, Note_on_c, 0, 70, 89
2, 155370, Note_on_c, 0, 70, 0
2, 155370, Note_on_c, 0, 68, 89
2, 155400, Note_on_c, 0, 68, 0
2, 155400, Note_on_c, 0, 66, 89
2, 155430, Note_on_c, 0, 66, 0
2, 155430, Note_on_c, 0, 65, 89
2, 155460, Note_on_c, 0, 65, 0
2, 155460, Note_on_c, 0, 68, 89
2, 155490, Note_on_c, 0, 68, 0
2, 155490, Note_on_c, 0, 66, 89
2, 155520, Note_on_c, 0, 66, 0
2, 155520, Note_on_c, 0, 64, 89
2, 155550, Note_on_c, 0, 64, 0
2, 155550, Note_on_c, 0, 63, 89
2, 155580, Note_on_c, 0, 63, 0
2, 155580, Note_on_c, 0, 61, 89
2, 155610, Note_on_c, 0, 61, 0
2, 155610, Note_on_c, 0, 59, 89
2, 155640, Note_on_c, 0, 59, 0
2, 155640, Note_on_c, 0, 61, 0
2, 155640, Note_on_c, 0, 54, 0
2, 155640, Note_on_c, 0, 70, 0
2, 155640, Note_on_c, 0, 42, 0
2, 155640, Note_on_c, 0, 64, 0
2, 155640, Note_on_c, 0, 66, 0
2, 155640, Note_on_c, 0, 58, 89
2, 155670, Note_on_c, 0, 58, 0
2, 155670, Note_on_c, 0, 56, 89
2, 155700, Note_on_c, 0, 56, 0
2, 155700, Note_on_c, 0, 54, 89
2, 155730, Note_on_c, 0, 54, 0
2, 155730, Note_on_c, 0, 53, 89
2, 155760, Note_on_c, 0, 53, 0
2, 155760, Note_on_c, 0, 56, 89
2, 155790, Note_on_c, 0, 56, 0
2, 155790, Note_on_c, 0, 54, 89
2, 155820, Note_on_c, 0, 54, 0
2, 155820, Note_on_c, 0, 52, 89
2, 155850, Note_on_c, 0, 52, 0
2, 155850, Note_on_c, 0, 51, 89
2, 155880, Note_on_c, 0, 51, 0
2, 155880, Note_on_c, 0, 49, 89
2, 155910, Note_on_c, 0, 49, 0
2, 155910, Note_on_c, 0, 47, 89
2, 155940, Note_on_c, 0, 47, 0
2, 155940, Note_on_c, 0, 46, 89
2, 155970, Note_on_c, 0, 46, 0
2, 155970, Note_on_c, 0, 44, 89
2, 156000, Note_on_c, 0, 44, 0
2, 156000, Note_on_c, 0, 42, 89
2, 156060, Note_on_c, 0, 42, 0
2, 156060, Note_on_c, 0, 41, 89
2, 156120, Note_on_c, 0, 41, 0
2, 156120, Note_on_c, 0, 40, 89
2, 156180, Note_on_c, 0, 40, 0
2, 156180, Note_on_c, 0, 37, 89
2, 156240, Note_on_c, 0, 37, 0
2, 156240, Note_on_c, 0, 35, 89
2, 156270, Note_on_c, 0, 35, 0
2, 156270, Note_on_c, 0, 42, 89
2, 156300, Note_on_c, 0, 42, 0
2, 156300, Note_on_c, 0, 47, 89
2, 156330, Note_on_c, 0, 47, 0
2, 156330, Note_on_c, 0, 51, 89
2, 156360, Note_on_c, 0, 51, 0
2, 156360, Note_on_c, 0, 54, 89
2, 156390, Note_on_c, 0, 54, 0
2, 156390, Note_on_c, 0, 59, 89
2, 156420, Note_on_c, 0, 59, 0
2, 156420, Note_on_c, 0, 63, 89
2, 156450, Note_on_c, 0, 63, 0
2, 156450, Note_on_c, 0, 66, 89
2, 156480, Note_on_c, 0, 66, 0
2, 156480, Note_on_c, 0, 71, 71
2, 156540, Note_on_c, 0, 71, 0
2, 156540, Note_on_c, 0, 83, 89
2, 156540, Note_on_c, 0, 71, 87
2, 156540, Note_on_c, 0, 66, 87
2, 156540, Note_on_c, 0, 63, 87
2, 156540, Note_on_c, 0, 59, 71
2, 156600, Note_on_c, 0, 59, 0
2, 156600, Note_on_c, 0, 66, 0
2, 156600, Note_on_c, 0, 83, 0
2, 156600, Note_on_c, 0, 71, 0
2, 156600, Note_on_c, 0, 63, 0
2, 156600, Note_on_c, 0, 83, 89
2, 156600, Note_on_c, 0, 71, 87
2, 156600, Note_on_c, 0, 66, 87
2, 156600, Note_on_c, 0, 63, 87
2, 156600, Note_on_c, 0, 59, 71
2, 156660, Note_on_c, 0, 59, 0
2, 156660, Note_on_c, 0, 66, 0
2, 156660, Note_on_c, 0, 83, 0
2, 156660, Note_on_c, 0, 71, 0
2, 156660, Note_on_c, 0, 63, 0
2, 156660, Note_on_c, 0, 83, 89
2, 156660, Note_on_c, 0, 71, 87
2, 156660, Note_on_c, 0, 66, 87
2, 156660, Note_on_c, 0, 63, 87
2, 156660, Note_on_c, 0, 59, 71
2, 156720, Note_on_c, 0, 59, 0
2, 156720, Note_on_c, 0, 66, 0
2, 156720, Note_on_c, 0, 83, 0
2, 156720, Note_on_c, 0, 71, 0
2, 156720, Note_on_c, 0, 63, 0
2, 156720, Note_on_c, 0, 83, 89
2, 156720, Note_on_c, 0, 71, 87
2, 156720, Note_on_c, 0, 66, 87
2, 156720, Note_on_c, 0, 63, 87
2, 156720, Note_on_c, 0, 59, 71
2, 156780, Note_on_c, 0, 71, 0
2, 156780, Note_on_c, 0, 83, 0
2, 156780, Note_on_c, 0, 83, 89
2, 156780, Note_on_c, 0, 71, 87
2, 156840, Note_on_c, 0, 71, 0
2, 156840, Note_on_c, 0, 63, 0
2, 156840, Note_on_c, 0, 59, 0
2, 156840, Note_on_c, 0, 66, 0
2, 156840, Note_on_c, 0, 83, 0
2, 156840, Note_on_c, 0, 85, 89
2, 156840, Note_on_c, 0, 73, 87
2, 156840, Note_on_c, 0, 66, 87
2, 156840, Note_on_c, 0, 63, 87
2, 156840, Note_on_c, 0, 59, 71
2, 156900, Note_on_c, 0, 73, 0
2, 156900, Note_on_c, 0, 85, 0
2, 156900, Note_on_c, 0, 87, 89
2, 156900, Note_on_c, 0, 75, 87
2, 156960, Note_on_c, 0, 75, 0
2, 156960, Note_on_c, 0, 63, 0
2, 156960, Note_on_c, 0, 59, 0
2, 156960, Note_on_c, 0, 66, 0
2, 156960, Note_on_c, 0, 87, 0
2, 156960, Note_on_c, 0, 87, 89
2, 156960, Note_on_c, 0, 82, 87
2, 156960, Note_on_c, 0, 75, 87
2, 156960, Note_on_c, 0, 35, 87
2, 156990, Note_on_c, 0, 35, 0
2, 156990, Note_on_c, 0, 40, 87
2, 157020, Note_on_c, 0, 40, 0
2, 157020, Note_on_c, 0, 43, 87
2, 157050, Note_on_c, 0, 43, 0
2, 157050, Note_on_c, 0, 47, 87
2, 157080, Note_on_c, 0, 47, 0
2, 157080, Note_on_c, 0, 75, 0
2, 157080, Note_on_c, 0, 82, 0
2, 157080, Note_on_c, 0, 87, 0
2, 157080, Note_on_c, 0, 85, 89
2, 157080, Note_on_c, 0, 73, 87
2, 157080, Note_on_c, 0, 52, 87
2, 157110, Note_on_c, 0, 52, 0
2, 157110, Note_on_c, 0, 55, 87
2, 157140, Note_on_c, 0, 55, 0
2, 157140, Note_on_c, 0, 59, 87
2, 157170, Note_on_c, 0, 59, 0
2, 157170, Note_on_c, 0, 64, 87
2, 157200, Note_on_c, 0, 64, 0
2, 157200, Note_on_c, 0, 73, 0
2, 157200, Note_on_c, 0, 85, 0
2, 157200, Note_on_c, 0, 67, 71
2, 157260, Note_on_c, 0, 67, 0
2, 157260, Note_on_c, 0, 85, 89
2, 157260, Note_on_c, 0, 73, 87
2, 157260, Note_on_c, 0, 70, 87
2, 157260, Note_on_c, 0, 67, 87
2, 157260, Note_on_c, 0, 64, 71
2, 157260, Note_on_c, 0, 59, 71
2, 157320, Note_on_c, 0, 59, 0
2, 157320, Note_on_c, 0, 73, 0
2, 157320, Note_on_c, 0, 70, 0
2, 157320, Note_on_c, 0, 85, 0
2, 157320, Note_on_c, 0, 64, 0
2, 157320, Note_on_c, 0, 67, 0
2, 157320, Note_on_c, 0, 85, 89
2, 157320, Note_on_c, 0, 73, 87
2, 157320, Note_on_c, 0, 70, 87
2, 157320, Note_on_c, 0, 67, 87
2, 157320, Note_on_c, 0, 64, 71
2, 157320, Note_on_c, 0, 59, 71
2, 157380, Note_on_c, 0, 59, 0
2, 157380, Note_on_c, 0, 73, 0
2, 157380, Note_on_c, 0, 70, 0
2, 157380, Note_on_c, 0, 85, 0
2, 157380, Note_on_c, 0, 64, 0
2, 157380, Note_on_c, 0, 67, 0
2, 157380, Note_on_c, 0, 85, 89
2, 157380, Note_on_c, 0, 73, 87
2, 157380, Note_on_c, 0, 70, 87
2, 157380, Note_on_c, 0, 67, 87
2, 157380, Note_on_c, 0, 64, 71
2, 157380, Note_on_c, 0, 59, 71
2, 157440, Note_on_c, 0, 59, 0
2, 157440, Note_on_c, 0, 73, 0
2, 157440, Note_on_c, 0, 70, 0
2, 157440, Note_on_c, 0, 85, 0
2, 157440, Note_on_c, 0, 64, 0
2, 157440, Note_on_c, 0, 67, 0
2, 157440, Note_on_c, 0, 85, 89
2, 157440, Note_on_c, 0, 73, 87
2, 157440, Note_on_c, 0, 70, 87
2, 157440, Note_on_c, 0, 67, 87
2, 157440, Note_on_c, 0, 64, 71
2, 157440, Note_on_c, 0, 59, 71
2, 157500, Note_on_c, 0, 73, 0
2, 157500, Note_on_c, 0, 85, 0
2, 157500, Note_on_c, 0, 91, 89
2, 157500, Note_on_c, 0, 79, 87
2, 157560, Note_on_c, 0, 79, 0
2, 157560, Note_on_c, 0, 59, 0
2, 157560, Note_on_c, 0, 70, 0
2, 157560, Note_on_c, 0, 67, 0
2, 157560, Note_on_c, 0, 91, 0
2, 157560, Note_on_c, 0, 64, 0
2, 157560, Note_on_c, 0, 90, 89
2, 157560, Note_on_c, 0, 78, 87
2, 157560, Note_on_c, 0, 70, 87
2, 157560, Note_on_c, 0, 66, 87
2, 157620, Note_on_c, 0, 66, 0
2, 157620, Note_on_c, 0, 90, 0
2, 157620, Note_on_c, 0, 78, 0
2, 157620, Note_on_c, 0, 70, 0
2, 157620, Note_on_c, 0, 88, 89
2, 157620, Note_on_c, 0, 76, 87
2, 157620, Note_on_c, 0, 68, 87
2, 157680, Note_on_c, 0, 68, 0
2, 157680, Note_on_c, 0, 76, 0
2, 157680, Note_on_c, 0, 88, 0
2, 157680, Note_on_c, 0, 88, 89
2, 157680, Note_on_c, 0, 76, 87
2, 157680, Note_on_c, 0, 35, 87
2, 157710, Note_on_c, 0, 35, 0
2, 157710, Note_on_c, 0, 42, 87
2, 157740, Note_on_c, 0, 42, 0
2, 157740, Note_on_c, 0, 43, 87
2, 157770, Note_on_c, 0, 43, 0
2, 157770, Note_on_c, 0, 47, 87
2, 157800, Note_on_c, 0, 47, 0
2, 157800, Note_on_c, 0, 76, 0
2, 157800, Note_on_c, 0, 88, 0
2, 157800, Note_on_c, 0, 87, 89
2, 157800, Note_on_c, 0, 75, 87
2, 157800, Note_on_c, 0, 51, 87
2, 157830, Note_on_c, 0, 51, 0
2, 157830, Note_on_c, 0, 47, 87
2, 157860, Note_on_c, 0, 47, 0
2, 157860, Note_on_c, 0, 51, 87
2, 157890, Note_on_c, 0, 51, 0
2, 157890, Note_on_c, 0, 47, 87
2, 157920, Note_on_c, 0, 47, 0
2, 157920, Note_on_c, 0, 75, 0
2, 157920, Note_on_c, 0, 87, 0
2, 157920, Note_on_c, 0, 51, 87
2, 157950, Note_on_c, 0, 51, 0
2, 157950, Note_on_c, 0, 54, 87
2, 157980, Note_on_c, 0, 54, 0
2, 157980, Note_on_c, 0, 51, 87
2, 158010, Note_on_c, 0, 51, 0
2, 158010, Note_on_c, 0, 54, 87
2, 158040, Note_on_c, 0, 54, 0
2, 158040, Note_on_c, 0, 84, 89
2, 158040, Note_on_c, 0, 72, 87
2, 158040, Note_on_c, 0, 57, 87
2, 158070, Note_on_c, 0, 57, 0
2, 158070, Note_on_c, 0, 54, 87
2, 158100, Note_on_c, 0, 54, 0
2, 158100, Note_on_c, 0, 57, 87
2, 158130, Note_on_c, 0, 57, 0
2, 158130, Note_on_c, 0, 54, 87
2, 158160, Note_on_c, 0, 54, 0
2, 158160, Note_on_c, 0, 72, 0
2, 158160, Note_on_c, 0, 84, 0
2, 158160, Note_on_c, 0, 57, 87
2, 158190, Note_on_c, 0, 57, 0
2, 158190, Note_on_c, 0, 59, 87
2, 158220, Note_on_c, 0, 59, 0
2, 158220, Note_on_c, 0, 57, 87
2, 158250, Note_on_c, 0, 57, 0
2, 158250, Note_on_c, 0, 59, 87
2, 158280, Note_on_c, 0, 59, 0
2, 158280, Note_on_c, 0, 83, 89
2, 158280, Note_on_c, 0, 71, 87
2, 158280, Note_on_c, 0, 63, 87
2, 158310, Note_on_c, 0, 63, 0
2, 158310, Note_on_c, 0, 59, 87
2, 158340, Note_on_c, 0, 59, 0
2, 158340, Note_on_c, 0, 63, 87
2, 158370, Note_on_c, 0, 63, 0
2, 158370, Note_on_c, 0, 59, 87
2, 158400, Note_on_c, 0, 59, 0
2, 158400, Note_on_c, 0, 71, 0
2, 158400, Note_on_c, 0, 83, 0
2, 158400, Note_on_c, 0, 63, 89
2, 158430, Note_on_c, 0, 63, 0
2, 158430, Note_on_c, 0, 66, 89
2, 158460, Note_on_c, 0, 66, 0
2, 158460, Note_on_c, 0, 63, 89
2, 158490, Note_on_c, 0, 63, 0
2, 158490, Note_on_c, 0, 66, 89
2, 158520, Note_on_c, 0, 66, 0
2, 158520, Note_on_c, 0, 69, 89
2, 158550, Note_on_c, 0, 69, 0
2, 158550, Note_on_c, 0, 66, 89
2, 158580, Note_on_c, 0, 66, 0
2, 158580, Note_on_c, 0, 69, 89
2, 158610, Note_on_c, 0, 69, 0
2, 158610, Note_on_c, 0, 66, 89
2, 158640, Note_on_c, 0, 66, 0
2, 158640, Note_on_c, 0, 69, 89
2, 158640, Note_on_c, 0, 60, 87
2, 158670, Note_on_c, 0, 60, 0
2, 158670, Note_on_c, 0, 69, 0
2, 158670, Note_on_c, 0, 66, 89
2, 158670, Note_on_c, 0, 59, 87
2, 158700, Note_on_c, 0, 59, 0
2, 158700, Note_on_c, 0, 66, 0
2, 158700, Note_on_c, 0, 69, 89
2, 158700, Note_on_c, 0, 60, 87
2, 158730, Note_on_c, 0, 60, 0
2, 158730, Note_on_c, 0, 69, 0
2, 158730, Note_on_c, 0, 66, 89
2, 158730, Note_on_c, 0, 59, 87
2, 158760, Note_on_c, 0, 59, 0
2, 158760, Note_on_c, 0, 66, 0
2, 158760, Note_on_c, 0, 69, 89
2, 158760, Note_on_c, 0, 60, 87
2, 158790, Note_on_c, 0, 60, 0
2, 158790, Note_on_c, 0, 69, 0
2, 158790, Note_on_c, 0, 66, 89
2, 158790, Note_on_c, 0, 59, 87
2, 158820, Note_on_c, 0, 59, 0
2, 158820, Note_on_c, 0, 66, 0
2, 158820, Note_on_c, 0, 63, 89
2, 158820, Note_on_c, 0, 57, 87
2, 158850, Note_on_c, 0, 57, 0
2, 158850, Note_on_c, 0, 63, 0
2, 158850, Note_on_c, 0, 66, 89
2, 158850, Note_on_c, 0, 59, 87
2, 158880, Note_on_c, 0, 59, 0
2, 158880, Note_on_c, 0, 66, 0
2, 158880, Note_on_c, 0, 63, 89
2, 158880, Note_on_c, 0, 57, 87
2, 158910, Note_on_c, 0, 57, 0
2, 158910, Note_on_c, 0, 63, 0
2, 158910, Note_on_c, 0, 66, 89
2, 158910, Note_on_c, 0, 59, 87
2, 158940, Note_on_c, 0, 59, 0
2, 158940, Note_on_c, 0, 66, 0
2, 158940, Note_on_c, 0, 69, 89
2, 158940, Note_on_c, 0, 60, 87
2, 158970, Note_on_c, 0, 60, 0
2, 158970, Note_on_c, 0, 69, 0
2, 158970, Note_on_c, 0, 66, 89
2, 158970, Note_on_c, 0, 59, 87
2, 159000, Note_on_c, 0, 59, 0
2, 159000, Note_on_c, 0, 66, 0
2, 159000, Note_on_c, 0, 69, 89
2, 159000, Note_on_c, 0, 60, 87
2, 159030, Note_on_c, 0, 60, 0
2, 159030, Note_on_c, 0, 69, 0
2, 159030, Note_on_c, 0, 66, 89
2, 159030, Note_on_c, 0, 59, 87
2, 159060, Note_on_c, 0, 59, 0
2, 159060, Note_on_c, 0, 66, 0
2, 159060, Note_on_c, 0, 69, 89
2, 159060, Note_on_c, 0, 63, 87
2, 159090, Note_on_c, 0, 63, 0
2, 159090, Note_on_c, 0, 69, 0
2, 159090, Note_on_c, 0, 71, 89
2, 159090, Note_on_c, 0, 66, 87
2, 159120, Note_on_c, 0, 66, 0
2, 159120, Note_on_c, 0, 71, 0
2, 159120, Note_on_c, 0, 69, 89
2, 159120, Note_on_c, 0, 63, 87
2, 159150, Note_on_c, 0, 63, 0
2, 159150, Note_on_c, 0, 69, 0
2, 159150, Note_on_c, 0, 71, 89
2, 159150, Note_on_c, 0, 66, 87
2, 159180, Note_on_c, 0, 66, 0
2, 159180, Note_on_c, 0, 71, 0
2, 159180, Note_on_c, 0, 75, 89
2, 159180, Note_on_c, 0, 69, 87
2, 159210, Note_on_c, 0, 69, 0
2, 159210, Note_on_c, 0, 75, 0
2, 159210, Note_on_c, 0, 71, 89
2, 159210, Note_on_c, 0, 66, 87
2, 159240, Note_on_c, 0, 66, 0
2, 159240, Note_on_c, 0, 71, 0
2, 159240, Note_on_c, 0, 75, 89
2, 159240, Note_on_c, 0, 69, 87
2, 159270, Note_on_c, 0, 69, 0
2, 159270, Note_on_c, 0, 75, 0
2, 159270, Note_on_c, 0, 71, 89
2, 159270, Note_on_c, 0, 66, 87
2, 159300, Note_on_c, 0, 66, 0
2, 159300, Note_on_c, 0, 71, 0
2, 159300, Note_on_c, 0, 75, 89
2, 159300, Note_on_c, 0, 69, 87
2, 159330, Note_on_c, 0, 69, 0
2, 159330, Note_on_c, 0, 75, 0
2, 159330, Note_on_c, 0, 78, 89
2, 159330, Note_on_c, 0, 71, 87
2, 159360, Note_on_c, 0, 71, 0
2, 159360, Note_on_c, 0, 78, 0
2, 159360, Note_on_c, 0, 75, 89
2, 159360, Note_on_c, 0, 69, 87
2, 159390, Note_on_c, 0, 69, 0
2, 159390, Note_on_c, 0, 75, 0
2, 159390, Note_on_c, 0, 78, 89
2, 159390, Note_on_c, 0, 71, 87
2, 159420, Note_on_c, 0, 71, 0
2, 159420, Note_on_c, 0, 78, 0
2, 159420, Note_on_c, 0, 81, 89
2, 159420, Note_on_c, 0, 72, 87
2, 159450, Note_on_c, 0, 72, 0
2, 159450, Note_on_c, 0, 81, 0
2, 159450, Note_on_c, 0, 78, 89
2, 159450, Note_on_c, 0, 71, 87
2, 159480, Note_on_c, 0, 71, 0
2, 159480, Note_on_c, 0, 78, 0
2, 159480, Note_on_c, 0, 81, 89
2, 159480, Note_on_c, 0, 72, 87
2, 159510, Note_on_c, 0, 72, 0
2, 159510, Note_on_c, 0, 81, 0
2, 159510, Note_on_c, 0, 78, 89
2, 159510, Note_on_c, 0, 71, 87
2, 159540, Note_on_c, 0, 71, 0
2, 159540, Note_on_c, 0, 78, 0
2, 159540, Note_on_c, 0, 81, 89
2, 159540, Note_on_c, 0, 75, 87
2, 159570, Note_on_c, 0, 75, 0
2, 159570, Note_on_c, 0, 81, 0
2, 159570, Note_on_c, 0, 83, 89
2, 159570, Note_on_c, 0, 78, 87
2, 159600, Note_on_c, 0, 78, 0
2, 159600, Note_on_c, 0, 83, 0
2, 159600, Note_on_c, 0, 81, 89
2, 159600, Note_on_c, 0, 75, 87
2, 159630, Note_on_c, 0, 75, 0
2, 159630, Note_on_c, 0, 81, 0
2, 159630, Note_on_c, 0, 83, 89
2, 159630, Note_on_c, 0, 78, 87
2, 159660, Note_on_c, 0, 78, 0
2, 159660, Note_on_c, 0, 83, 0
2, 159660, Note_on_c, 0, 84, 89
2, 159660, Note_on_c, 0, 81, 87
2, 159690, Note_on_c, 0, 81, 0
2, 159690, Note_on_c, 0, 84, 0
2, 159690, Note_on_c, 0, 83, 89
2, 159690, Note_on_c, 0, 78, 87
2, 159720, Note_on_c, 0, 78, 0
2, 159720, Note_on_c, 0, 83, 0
2, 159720, Note_on_c, 0, 84, 89
2, 159720, Note_on_c, 0, 81, 87
2, 159750, Note_on_c, 0, 81, 0
2, 159750, Note_on_c, 0, 84, 0
2, 159750, Note_on_c, 0, 83, 89
2, 159750, Note_on_c, 0, 78, 87
2, 159780, Note_on_c, 0, 78, 0
2, 159780, Note_on_c, 0, 83, 0
2, 159780, Note_on_c, 0, 87, 89
2, 159780, Note_on_c, 0, 81, 87
2, 159810, Note_on_c, 0, 81, 0
2, 159810, Note_on_c, 0, 87, 0
2, 159810, Note_on_c, 0, 83, 89
2, 159810, Note_on_c, 0, 78, 87
2, 159840, Note_on_c, 0, 78, 0
2, 159840, Note_on_c, 0, 83, 0
2, 159840, Note_on_c, 0, 87, 89
2, 159840, Note_on_c, 0, 81, 87
2, 159870, Note_on_c, 0, 81, 0
2, 159870, Note_on_c, 0, 87, 0
2, 159870, Note_on_c, 0, 83, 89
2, 159870, Note_on_c, 0, 78, 87
2, 159900, Note_on_c, 0, 78, 0
2, 159900, Note_on_c, 0, 83, 0
2, 159900, Note_on_c, 0, 87, 89
2, 159900, Note_on_c, 0, 81, 87
2, 159930, Note_on_c, 0, 81, 0
2, 159930, Note_on_c, 0, 87, 0
2, 159930, Note_on_c, 0, 83, 89
2, 159930, Note_on_c, 0, 78, 87
2, 159960, Note_on_c, 0, 78, 0
2, 159960, Note_on_c, 0, 83, 0
2, 159960, Note_on_c, 0, 87, 89
2, 159960, Note_on_c, 0, 81, 87
2, 159990, Note_on_c, 0, 81, 0
2, 159990, Note_on_c, 0, 87, 0
2, 159990, Note_on_c, 0, 83, 89
2, 159990, Note_on_c, 0, 78, 87
2, 160020, Note_on_c, 0, 78, 0
2, 160020, Note_on_c, 0, 83, 0
2, 160020, Note_on_c, 0, 87, 89
2, 160020, Note_on_c, 0, 81, 87
2, 160050, Note_on_c, 0, 81, 0
2, 160050, Note_on_c, 0, 87, 0
2, 160050, Note_on_c, 0, 83, 89
2, 160050, Note_on_c, 0, 78, 87
2, 160080, Note_on_c, 0, 78, 0
2, 160080, Note_on_c, 0, 83, 0
2, 160080, Note_on_c, 0, 87, 89
2, 160080, Note_on_c, 0, 81, 87
2, 160110, Note_on_c, 0, 81, 0
2, 160110, Note_on_c, 0, 87, 0
2, 160110, Note_on_c, 0, 83, 89
2, 160110, Note_on_c, 0, 78, 87
2, 160140, Note_on_c, 0, 78, 0
2, 160140, Note_on_c, 0, 83, 0
2, 160140, Note_on_c, 0, 87, 89
2, 160140, Note_on_c, 0, 81, 87
2, 160170, Note_on_c, 0, 81, 0
2, 160170, Note_on_c, 0, 87, 0
2, 160170, Note_on_c, 0, 83, 89
2, 160170, Note_on_c, 0, 78, 87
2, 160200, Note_on_c, 0, 78, 0
2, 160200, Note_on_c, 0, 83, 0
2, 160200, Note_on_c, 0, 87, 89
2, 160200, Note_on_c, 0, 81, 87
2, 160230, Note_on_c, 0, 81, 0
2, 160230, Note_on_c, 0, 87, 0
2, 160230, Note_on_c, 0, 83, 89
2, 160230, Note_on_c, 0, 78, 87
2, 160260, Note_on_c, 0, 78, 0
2, 160260, Note_on_c, 0, 83, 0
2, 160260, Note_on_c, 0, 87, 89
2, 160260, Note_on_c, 0, 81, 87
2, 160290, Note_on_c, 0, 81, 0
2, 160290, Note_on_c, 0, 87, 0
2, 160290, Note_on_c, 0, 83, 89
2, 160290, Note_on_c, 0, 78, 87
2, 160320, Note_on_c, 0, 78, 0
2, 160320, Note_on_c, 0, 83, 0
2, 160320, Note_on_c, 0, 88, 89
2, 160320, Note_on_c, 0, 80, 87
2, 160320, Note_on_c, 0, 64, 87
2, 160320, Note_on_c, 0, 59, 87
2, 160320, Note_on_c, 0, 56, 71
2, 160350, Note_on_c, 0, 80, 0
2, 160350, Note_on_c, 0, 88, 0
2, 160350, Note_on_c, 0, 92, 89
2, 160350, Note_on_c, 0, 83, 87
2, 160380, Note_on_c, 0, 83, 0
2, 160380, Note_on_c, 0, 92, 0
2, 160380, Note_on_c, 0, 95, 89
2, 160380, Note_on_c, 0, 88, 87
2, 160410, Note_on_c, 0, 88, 0
2, 160410, Note_on_c, 0, 95, 0
2, 160410, Note_on_c, 0, 92, 89
2, 160410, Note_on_c, 0, 83, 87
2, 160440, Note_on_c, 0, 83, 0
2, 160440, Note_on_c, 0, 92, 0
2, 160440, Note_on_c, 0, 88, 89
2, 160440, Note_on_c, 0, 80, 87
2, 160470, Note_on_c, 0, 80, 0
2, 160470, Note_on_c, 0, 88, 0
2, 160470, Note_on_c, 0, 83, 89
2, 160470, Note_on_c, 0, 76, 87
2, 160500, Note_on_c, 0, 76, 0
2, 160500, Note_on_c, 0, 59, 0
2, 160500, Note_on_c, 0, 56, 0
2, 160500, Note_on_c, 0, 64, 0
2, 160500, Note_on_c, 0, 83, 0
2, 160500, Note_on_c, 0, 80, 89
2, 160500, Note_on_c, 0, 71, 87
2, 160500, Note_on_c, 0, 66, 87
2, 160500, Note_on_c, 0, 57, 87
2, 160530, Note_on_c, 0, 71, 0
2, 160530, Note_on_c, 0, 80, 0
2, 160530, Note_on_c, 0, 78, 89
2, 160530, Note_on_c, 0, 69, 87
2, 160560, Note_on_c, 0, 69, 0
2, 160560, Note_on_c, 0, 57, 0
2, 160560, Note_on_c, 0, 66, 0
2, 160560, Note_on_c, 0, 78, 0
2, 160560, Note_on_c, 0, 76, 89
2, 160560, Note_on_c, 0, 68, 87
2, 160560, Note_on_c, 0, 68, 87
2, 160560, Note_on_c, 0, 64, 87
2, 160560, Note_on_c, 0, 59, 71
2, 160590, Note_on_c, 0, 68, 0
2, 160590, Note_on_c, 0, 76, 0
2, 160590, Note_on_c, 0, 80, 89
2, 160590, Note_on_c, 0, 71, 87
2, 160620, Note_on_c, 0, 71, 0
2, 160620, Note_on_c, 0, 80, 0
2, 160620, Note_on_c, 0, 83, 89
2, 160620, Note_on_c, 0, 76, 87
2, 160650, Note_on_c, 0, 76, 0
2, 160650, Note_on_c, 0, 83, 0
2, 160650, Note_on_c, 0, 80, 89
2, 160650, Note_on_c, 0, 71, 87
2, 160680, Note_on_c, 0, 71, 0
2, 160680, Note_on_c, 0, 80, 0
2, 160680, Note_on_c, 0, 76, 89
2, 160680, Note_on_c, 0, 68, 87
2, 160710, Note_on_c, 0, 76, 0
2, 160710, Note_on_c, 0, 68, 0
2, 160710, Note_on_c, 0, 71, 89
2, 160710, Note_on_c, 0, 64, 87
2, 160740, Note_on_c, 0, 71, 0
2, 160740, Note_on_c, 0, 64, 0
2, 160740, Note_on_c, 0, 68, 89
2, 160740, Note_on_c, 0, 59, 87
2, 160770, Note_on_c, 0, 68, 0
2, 160770, Note_on_c, 0, 59, 0
2, 160770, Note_on_c, 0, 66, 89
2, 160770, Note_on_c, 0, 57, 87
2, 160800, Note_on_c, 0, 57, 0
2, 160800, Note_on_c, 0, 66, 0
2, 160800, Note_on_c, 0, 64, 89
2, 160800, Note_on_c, 0, 56, 87
2, 160830, Note_on_c, 0, 56, 0
2, 160830, Note_on_c, 0, 64, 0
2, 160830, Note_on_c, 0, 68, 89
2, 160830, Note_on_c, 0, 59, 87
2, 160860, Note_on_c, 0, 68, 0
2, 160860, Note_on_c, 0, 59, 0
2, 160860, Note_on_c, 0, 71, 89
2, 160860, Note_on_c, 0, 64, 87
2, 160890, Note_on_c, 0, 71, 0
2, 160890, Note_on_c, 0, 64, 0
2, 160890, Note_on_c, 0, 68, 89
2, 160890, Note_on_c, 0, 59, 87
2, 160920, Note_on_c, 0, 59, 0
2, 160920, Note_on_c, 0, 68, 0
2, 160920, Note_on_c, 0, 64, 0
2, 160920, Note_on_c, 0, 59, 0
2, 160920, Note_on_c, 0, 68, 0
2, 160920, Note_on_c, 0, 64, 89
2, 160920, Note_on_c, 0, 56, 87
2, 160920, Note_on_c, 0, 68, 87
2, 160920, Note_on_c, 0, 64, 87
2, 160920, Note_on_c, 0, 59, 71
2, 160950, Note_on_c, 0, 56, 0
2, 160950, Note_on_c, 0, 64, 0
2, 160950, Note_on_c, 0, 59, 89
2, 160950, Note_on_c, 0, 52, 87
2, 160980, Note_on_c, 0, 52, 0
2, 160980, Note_on_c, 0, 59, 0
2, 160980, Note_on_c, 0, 56, 89
2, 160980, Note_on_c, 0, 51, 87
2, 161010, Note_on_c, 0, 51, 0
2, 161010, Note_on_c, 0, 56, 0
2, 161010, Note_on_c, 0, 59, 89
2, 161010, Note_on_c, 0, 50, 87
2, 161040, Note_on_c, 0, 50, 0
2, 161040, Note_on_c, 0, 59, 0
2, 161040, Note_on_c, 0, 64, 0
2, 161040, Note_on_c, 0, 68, 0
2, 161040, Note_on_c, 0, 59, 0
2, 161040, Note_on_c, 0, 57, 89
2, 161040, Note_on_c, 0, 49, 87
2, 161040, Note_on_c, 0, 69, 87
2, 161040, Note_on_c, 0, 64, 87
2, 161040, Note_on_c, 0, 61, 71
2, 161070, Note_on_c, 0, 49, 0
2, 161070, Note_on_c, 0, 57, 0
2, 161070, Note_on_c, 0, 61, 89
2, 161070, Note_on_c, 0, 52, 87
2, 161100, Note_on_c, 0, 52, 0
2, 161100, Note_on_c, 0, 61, 0
2, 161100, Note_on_c, 0, 64, 89
2, 161100, Note_on_c, 0, 57, 87
2, 161130, Note_on_c, 0, 57, 0
2, 161130, Note_on_c, 0, 64, 0
2, 161130, Note_on_c, 0, 69, 89
2, 161130, Note_on_c, 0, 61, 87
2, 161160, Note_on_c, 0, 61, 0
2, 161160, Note_on_c, 0, 61, 0
2, 161160, Note_on_c, 0, 69, 0
2, 161160, Note_on_c, 0, 69, 0
2, 161160, Note_on_c, 0, 68, 89
2, 161160, Note_on_c, 0, 59, 87
2, 161160, Note_on_c, 0, 68, 87
2, 161160, Note_on_c, 0, 59, 71
2, 161190, Note_on_c, 0, 59, 0
2, 161190, Note_on_c, 0, 68, 0
2, 161190, Note_on_c, 0, 64, 89
2, 161190, Note_on_c, 0, 56, 87
2, 161220, Note_on_c, 0, 56, 0
2, 161220, Note_on_c, 0, 64, 0
2, 161220, Note_on_c, 0, 59, 89
2, 161220, Note_on_c, 0, 52, 87
2, 161250, Note_on_c, 0, 52, 0
2, 161250, Note_on_c, 0, 59, 0
2, 161250, Note_on_c, 0, 56, 89
2, 161250, Note_on_c, 0, 47, 87
2, 161280, Note_on_c, 0, 47, 0
2, 161280, Note_on_c, 0, 64, 0
2, 161280, Note_on_c, 0, 59, 0
2, 161280, Note_on_c, 0, 68, 0
2, 161280, Note_on_c, 0, 56, 0
2, 161280, Note_on_c, 0, 57, 89
2, 161280, Note_on_c, 0, 51, 87
2, 161280, Note_on_c, 0, 68, 87
2, 161280, Note_on_c, 0, 59, 87
2, 161280, Note_on_c, 0, 47, 71
2, 161310, Note_on_c, 0, 51, 0
2, 161310, Note_on_c, 0, 57, 0
2, 161310, Note_on_c, 0, 59, 89
2, 161310, Note_on_c, 0, 54, 87
2, 161340, Note_on_c, 0, 54, 0
2, 161340, Note_on_c, 0, 59, 0
2, 161340, Note_on_c, 0, 57, 89
2, 161340, Note_on_c, 0, 51, 87
2, 161370, Note_on_c, 0, 51, 0
2, 161370, Note_on_c, 0, 57, 0
2, 161370, Note_on_c, 0, 59, 89
2, 161370, Note_on_c, 0, 54, 87
2, 161400, Note_on_c, 0, 54, 0
2, 161400, Note_on_c, 0, 59, 0
2, 161400, Note_on_c, 0, 63, 89
2, 161400, Note_on_c, 0, 57, 87
2, 161430, Note_on_c, 0, 57, 0
2, 161430, Note_on_c, 0, 63, 0
2, 161430, Note_on_c, 0, 59, 89
2, 161430, Note_on_c, 0, 54, 87
2, 161460, Note_on_c, 0, 54, 0
2, 161460, Note_on_c, 0, 59, 0
2, 161460, Note_on_c, 0, 63, 89
2, 161460, Note_on_c, 0, 57, 87
2, 161490, Note_on_c, 0, 57, 0
2, 161490, Note_on_c, 0, 63, 0
2, 161490, Note_on_c, 0, 59, 89
2, 161490, Note_on_c, 0, 54, 87
2, 161520, Note_on_c, 0, 54, 0
2, 161520, Note_on_c, 0, 59, 0
2, 161520, Note_on_c, 0, 59, 0
2, 161520, Note_on_c, 0, 68, 0
2, 161520, Note_on_c, 0, 63, 89
2, 161520, Note_on_c, 0, 57, 87
2, 161520, Note_on_c, 0, 66, 87
2, 161520, Note_on_c, 0, 63, 87
2, 161520, Note_on_c, 0, 57, 71
2, 161550, Note_on_c, 0, 57, 0
2, 161550, Note_on_c, 0, 63, 0
2, 161550, Note_on_c, 0, 66, 89
2, 161550, Note_on_c, 0, 59, 87
2, 161580, Note_on_c, 0, 59, 0
2, 161580, Note_on_c, 0, 66, 0
2, 161580, Note_on_c, 0, 63, 89
2, 161580, Note_on_c, 0, 57, 87
2, 161610, Note_on_c, 0, 63, 0
2, 161610, Note_on_c, 0, 57, 0
2, 161610, Note_on_c, 0, 66, 89
2, 161610, Note_on_c, 0, 59, 87
2, 161640, Note_on_c, 0, 59, 0
2, 161640, Note_on_c, 0, 66, 0
2, 161640, Note_on_c, 0, 69, 89
2, 161640, Note_on_c, 0, 63, 87
2, 161670, Note_on_c, 0, 69, 0
2, 161670, Note_on_c, 0, 63, 0
2, 161670, Note_on_c, 0, 66, 89
2, 161670, Note_on_c, 0, 59, 87
2, 161700, Note_on_c, 0, 59, 0
2, 161700, Note_on_c, 0, 66, 0
2, 161700, Note_on_c, 0, 69, 89
2, 161700, Note_on_c, 0, 63, 87
2, 161730, Note_on_c, 0, 69, 0
2, 161730, Note_on_c, 0, 63, 0
2, 161730, Note_on_c, 0, 66, 89
2, 161730, Note_on_c, 0, 59, 87
2, 161760, Note_on_c, 0, 59, 0
2, 161760, Note_on_c, 0, 63, 0
2, 161760, Note_on_c, 0, 57, 0
2, 161760, Note_on_c, 0, 66, 0
2, 161760, Note_on_c, 0, 66, 0
2, 161760, Note_on_c, 0, 69, 89
2, 161760, Note_on_c, 0, 63, 87
2, 161760, Note_on_c, 0, 64, 87
2, 161760, Note_on_c, 0, 59, 87
2, 161760, Note_on_c, 0, 54, 71
2, 161790, Note_on_c, 0, 63, 0
2, 161790, Note_on_c, 0, 69, 0
2, 161790, Note_on_c, 0, 71, 89
2, 161790, Note_on_c, 0, 66, 87
2, 161820, Note_on_c, 0, 66, 0
2, 161820, Note_on_c, 0, 71, 0
2, 161820, Note_on_c, 0, 69, 89
2, 161820, Note_on_c, 0, 63, 87
2, 161850, Note_on_c, 0, 63, 0
2, 161850, Note_on_c, 0, 69, 0
2, 161850, Note_on_c, 0, 71, 89
2, 161850, Note_on_c, 0, 66, 87
2, 161880, Note_on_c, 0, 66, 0
2, 161880, Note_on_c, 0, 54, 0
2, 161880, Note_on_c, 0, 64, 0
2, 161880, Note_on_c, 0, 71, 0
2, 161880, Note_on_c, 0, 75, 89
2, 161880, Note_on_c, 0, 69, 87
2, 161880, Note_on_c, 0, 63, 87
2, 161880, Note_on_c, 0, 57, 71
2, 161910, Note_on_c, 0, 69, 0
2, 161910, Note_on_c, 0, 75, 0
2, 161910, Note_on_c, 0, 71, 89
2, 161910, Note_on_c, 0, 66, 87
2, 161940, Note_on_c, 0, 66, 0
2, 161940, Note_on_c, 0, 71, 0
2, 161940, Note_on_c, 0, 75, 89
2, 161940, Note_on_c, 0, 69, 87
2, 161970, Note_on_c, 0, 69, 0
2, 161970, Note_on_c, 0, 75, 0
2, 161970, Note_on_c, 0, 71, 89
2, 161970, Note_on_c, 0, 66, 87
2, 162000, Note_on_c, 0, 66, 0
2, 162000, Note_on_c, 0, 57, 0
2, 162000, Note_on_c, 0, 47, 0
2, 162000, Note_on_c, 0, 63, 0
2, 162000, Note_on_c, 0, 71, 0
2, 162000, Note_on_c, 0, 75, 89
2, 162000, Note_on_c, 0, 68, 87
2, 162000, Note_on_c, 0, 64, 87
2, 162000, Note_on_c, 0, 56, 71
2, 162000, Note_on_c, 0, 47, 71
2, 162030, Note_on_c, 0, 68, 0
2, 162030, Note_on_c, 0, 75, 0
2, 162030, Note_on_c, 0, 71, 89
2, 162030, Note_on_c, 0, 64, 87
2, 162060, Note_on_c, 0, 71, 0
2, 162060, Note_on_c, 0, 64, 0
2, 162060, Note_on_c, 0, 80, 89
2, 162060, Note_on_c, 0, 71, 87
2, 162090, Note_on_c, 0, 71, 0
2, 162090, Note_on_c, 0, 80, 0
2, 162090, Note_on_c, 0, 78, 89
2, 162090, Note_on_c, 0, 69, 87
2, 162120, Note_on_c, 0, 69, 0
2, 162120, Note_on_c, 0, 64, 0
2, 162120, Note_on_c, 0, 56, 0
2, 162120, Note_on_c, 0, 59, 0
2, 162120, Note_on_c, 0, 78, 0
2, 162120, Note_on_c, 0, 76, 89
2, 162120, Note_on_c, 0, 68, 87
2, 162120, Note_on_c, 0, 68, 87
2, 162120, Note_on_c, 0, 59, 87
2, 162120, Note_on_c, 0, 52, 71
2, 162150, Note_on_c, 0, 68, 0
2, 162150, Note_on_c, 0, 76, 0
2, 162150, Note_on_c, 0, 71, 89
2, 162150, Note_on_c, 0, 64, 87
2, 162180, Note_on_c, 0, 64, 0
2, 162180, Note_on_c, 0, 71, 0
2, 162180, Note_on_c, 0, 68, 89
2, 162180, Note_on_c, 0, 59, 87
2, 162210, Note_on_c, 0, 59, 0
2, 162210, Note_on_c, 0, 68, 0
2, 162210, Note_on_c, 0, 66, 89
2, 162210, Note_on_c, 0, 57, 87
2, 162240, Note_on_c, 0, 57, 0
2, 162240, Note_on_c, 0, 59, 0
2, 162240, Note_on_c, 0, 52, 0
2, 162240, Note_on_c, 0, 47, 0
2, 162240, Note_on_c, 0, 66, 0
2, 162240, Note_on_c, 0, 68, 0
2, 162240, Note_on_c, 0, 64, 89
2, 162240, Note_on_c, 0, 56, 87
2, 162240, Note_on_c, 0, 71, 87
2, 162240, Note_on_c, 0, 64, 87
2, 162240, Note_on_c, 0, 56, 71
2, 162240, Note_on_c, 0, 47, 71
2, 162270, Note_on_c, 0, 56, 0
2, 162270, Note_on_c, 0, 64, 0
2, 162270, Note_on_c, 0, 68, 89
2, 162270, Note_on_c, 0, 59, 87
2, 162300, Note_on_c, 0, 59, 0
2, 162300, Note_on_c, 0, 68, 0
2, 162300, Note_on_c, 0, 71, 89
2, 162300, Note_on_c, 0, 64, 87
2, 162330, Note_on_c, 0, 64, 0
2, 162330, Note_on_c, 0, 71, 0
2, 162330, Note_on_c, 0, 68, 89
2, 162330, Note_on_c, 0, 59, 87
2, 162360, Note_on_c, 0, 59, 0
2, 162360, Note_on_c, 0, 68, 0
2, 162360, Note_on_c, 0, 64, 89
2, 162360, Note_on_c, 0, 56, 87
2, 162390, Note_on_c, 0, 56, 0
2, 162390, Note_on_c, 0, 64, 0
2, 162390, Note_on_c, 0, 68, 89
2, 162390, Note_on_c, 0, 59, 87
2, 162420, Note_on_c, 0, 59, 0
2, 162420, Note_on_c, 0, 68, 0
2, 162420, Note_on_c, 0, 66, 89
2, 162420, Note_on_c, 0, 57, 87
2, 162450, Note_on_c, 0, 57, 0
2, 162450, Note_on_c, 0, 66, 0
2, 162450, Note_on_c, 0, 64, 89
2, 162450, Note_on_c, 0, 56, 87
2, 162480, Note_on_c, 0, 56, 0
2, 162480, Note_on_c, 0, 56, 0
2, 162480, Note_on_c, 0, 64, 0
2, 162480, Note_on_c, 0, 47, 0
2, 162480, Note_on_c, 0, 64, 0
2, 162480, Note_on_c, 0, 71, 0
2, 162480, Note_on_c, 0, 63, 89
2, 162480, Note_on_c, 0, 54, 87
2, 162480, Note_on_c, 0, 69, 87
2, 162480, Note_on_c, 0, 63, 87
2, 162480, Note_on_c, 0, 54, 71
2, 162480, Note_on_c, 0, 47, 71
2, 162510, Note_on_c, 0, 54, 0
2, 162510, Note_on_c, 0, 63, 0
2, 162510, Note_on_c, 0, 64, 89
2, 162510, Note_on_c, 0, 56, 87
2, 162540, Note_on_c, 0, 56, 0
2, 162540, Note_on_c, 0, 64, 0
2, 162540, Note_on_c, 0, 66, 89
2, 162540, Note_on_c, 0, 57, 87
2, 162570, Note_on_c, 0, 57, 0
2, 162570, Note_on_c, 0, 66, 0
2, 162570, Note_on_c, 0, 68, 89
2, 162570, Note_on_c, 0, 59, 87
2, 162600, Note_on_c, 0, 59, 0
2, 162600, Note_on_c, 0, 68, 0
2, 162600, Note_on_c, 0, 69, 89
2, 162600, Note_on_c, 0, 61, 87
2, 162630, Note_on_c, 0, 61, 0
2, 162630, Note_on_c, 0, 69, 0
2, 162630, Note_on_c, 0, 73, 89
2, 162630, Note_on_c, 0, 64, 87
2, 162660, Note_on_c, 0, 64, 0
2, 162660, Note_on_c, 0, 73, 0
2, 162660, Note_on_c, 0, 71, 89
2, 162660, Note_on_c, 0, 63, 87
2, 162690, Note_on_c, 0, 71, 0
2, 162690, Note_on_c, 0, 63, 0
2, 162690, Note_on_c, 0, 75, 89
2, 162690, Note_on_c, 0, 66, 87
2, 162720, Note_on_c, 0, 66, 0
2, 162720, Note_on_c, 0, 63, 0
2, 162720, Note_on_c, 0, 54, 0
2, 162720, Note_on_c, 0, 47, 0
2, 162720, Note_on_c, 0, 75, 0
2, 162720, Note_on_c, 0, 69, 0
2, 162720, Note_on_c, 0, 76, 89
2, 162720, Note_on_c, 0, 68, 87
2, 162720, Note_on_c, 0, 68, 87
2, 162720, Note_on_c, 0, 64, 87
2, 162720, Note_on_c, 0, 52, 71
2, 162720, Note_on_c, 0, 40, 71
2, 162750, Note_on_c, 0, 68, 0
2, 162750, Note_on_c, 0, 76, 0
2, 162750, Note_on_c, 0, 71, 89
2, 162750, Note_on_c, 0, 64, 87
2, 162780, Note_on_c, 0, 71, 0
2, 162780, Note_on_c, 0, 64, 0
2, 162780, Note_on_c, 0, 80, 89
2, 162780, Note_on_c, 0, 71, 87
2, 162810, Note_on_c, 0, 71, 0
2, 162810, Note_on_c, 0, 80, 0
2, 162810, Note_on_c, 0, 78, 89
2, 162810, Note_on_c, 0, 69, 87
2, 162840, Note_on_c, 0, 69, 0
2, 162840, Note_on_c, 0, 78, 0
2, 162840, Note_on_c, 0, 76, 89
2, 162840, Note_on_c, 0, 68, 87
2, 162870, Note_on_c, 0, 76, 0
2, 162870, Note_on_c, 0, 68, 0
2, 162870, Note_on_c, 0, 71, 89
2, 162870, Note_on_c, 0, 66, 87
2, 162900, Note_on_c, 0, 66, 0
2, 162900, Note_on_c, 0, 71, 0
2, 162900, Note_on_c, 0, 68, 89
2, 162900, Note_on_c, 0, 64, 87
2, 162930, Note_on_c, 0, 64, 0
2, 162930, Note_on_c, 0, 68, 0
2, 162930, Note_on_c, 0, 66, 89
2, 162930, Note_on_c, 0, 59, 87
2, 162960, Note_on_c, 0, 59, 0
2, 162960, Note_on_c, 0, 64, 0
2, 162960, Note_on_c, 0, 68, 0
2, 162960, Note_on_c, 0, 40, 0
2, 162960, Note_on_c, 0, 66, 0
2, 162960, Note_on_c, 0, 52, 0
2, 162960, Note_on_c, 0, 64, 89
2, 162960, Note_on_c, 0, 56, 87
2, 162990, Note_on_c, 0, 56, 0
2, 162990, Note_on_c, 0, 64, 0
2, 162990, Note_on_c, 0, 71, 89
2, 162990, Note_on_c, 0, 59, 87
2, 163020, Note_on_c, 0, 59, 0
2, 163020, Note_on_c, 0, 71, 0
2, 163020, Note_on_c, 0, 68, 89
2, 163020, Note_on_c, 0, 64, 87
2, 163050, Note_on_c, 0, 64, 0
2, 163050, Note_on_c, 0, 68, 0
2, 163050, Note_on_c, 0, 66, 89
2, 163050, Note_on_c, 0, 59, 87
2, 163080, Note_on_c, 0, 59, 0
2, 163080, Note_on_c, 0, 66, 0
2, 163080, Note_on_c, 0, 64, 89
2, 163080, Note_on_c, 0, 56, 87
2, 163080, Note_on_c, 0, 59, 87
2, 163080, Note_on_c, 0, 56, 87
2, 163080, Note_on_c, 0, 52, 71
2, 163080, Note_on_c, 0, 40, 71
2, 163110, Note_on_c, 0, 56, 0
2, 163110, Note_on_c, 0, 64, 0
2, 163110, Note_on_c, 0, 59, 89
2, 163110, Note_on_c, 0, 54, 87
2, 163140, Note_on_c, 0, 54, 0
2, 163140, Note_on_c, 0, 59, 0
2, 163140, Note_on_c, 0, 56, 89
2, 163140, Note_on_c, 0, 52, 87
2, 163170, Note_on_c, 0, 56, 0
2, 163170, Note_on_c, 0, 52, 0
2, 163170, Note_on_c, 0, 59, 89
2, 163170, Note_on_c, 0, 47, 87
2, 163200, Note_on_c, 0, 47, 0
2, 163200, Note_on_c, 0, 52, 0
2, 163200, Note_on_c, 0, 56, 0
2, 163200, Note_on_c, 0, 40, 0
2, 163200, Note_on_c, 0, 59, 0
2, 163200, Note_on_c, 0, 59, 0
2, 163200, Note_on_c, 0, 64, 89
2, 163200, Note_on_c, 0, 44, 87
2, 163200, Note_on_c, 0, 64, 87
2, 163200, Note_on_c, 0, 59, 87
2, 163200, Note_on_c, 0, 52, 71
2, 163200, Note_on_c, 0, 44, 71
2, 163230, Note_on_c, 0, 44, 0
2, 163230, Note_on_c, 0, 52, 87
2, 163230, Note_on_c, 0, 71, 87
2, 163260, Note_on_c, 0, 71, 0
2, 163260, Note_on_c, 0, 52, 0
2, 163260, Note_on_c, 0, 51, 87
2, 163260, Note_on_c, 0, 75, 87
2, 163290, Note_on_c, 0, 75, 0
2, 163290, Note_on_c, 0, 51, 0
2, 163290, Note_on_c, 0, 49, 87
2, 163290, Note_on_c, 0, 78, 87
2, 163320, Note_on_c, 0, 78, 0
2, 163320, Note_on_c, 0, 52, 0
2, 163320, Note_on_c, 0, 44, 0
2, 163320, Note_on_c, 0, 59, 0
2, 163320, Note_on_c, 0, 64, 0
2, 163320, Note_on_c, 0, 49, 0
2, 163320, Note_on_c, 0, 64, 0
2, 163320, Note_on_c, 0, 83, 89
2, 163320, Note_on_c, 0, 47, 87
2, 163320, Note_on_c, 0, 66, 87
2, 163320, Note_on_c, 0, 63, 87
2, 163320, Note_on_c, 0, 59, 71
2, 163320, Note_on_c, 0, 47, 71
2, 163350, Note_on_c, 0, 47, 0
2, 163350, Note_on_c, 0, 45, 87
2, 163380, Note_on_c, 0, 45, 0
2, 163380, Note_on_c, 0, 44, 87
2, 163410, Note_on_c, 0, 44, 0
2, 163410, Note_on_c, 0, 42, 87
2, 163440, Note_on_c, 0, 42, 0
2, 163440, Note_on_c, 0, 47, 0
2, 163440, Note_on_c, 0, 63, 0
2, 163440, Note_on_c, 0, 83, 0
2, 163440, Note_on_c, 0, 66, 0
2, 163440, Note_on_c, 0, 59, 0
2, 163440, Note_on_c, 0, 40, 87
2, 163440, Note_on_c, 0, 68, 87
2, 163440, Note_on_c, 0, 64, 87
2, 163440, Note_on_c, 0, 59, 71
2, 163440, Note_on_c, 0, 52, 71
2, 163470, Note_on_c, 0, 40, 0
2, 163470, Note_on_c, 0, 80, 89
2, 163470, Note_on_c, 0, 42, 87
2, 163500, Note_on_c, 0, 42, 0
2, 163500, Note_on_c, 0, 80, 0
2, 163500, Note_on_c, 0, 83, 89
2, 163500, Note_on_c, 0, 44, 87
2, 163530, Note_on_c, 0, 44, 0
2, 163530, Note_on_c, 0, 83, 0
2, 163530, Note_on_c, 0, 88, 89
2, 163530, Note_on_c, 0, 45, 87
2, 163560, Note_on_c, 0, 45, 0
2, 163560, Note_on_c, 0, 88, 0
2, 163560, Note_on_c, 0, 92, 89
2, 163560, Note_on_c, 0, 46, 87
2, 163590, Note_on_c, 0, 46, 0
2, 163590, Note_on_c, 0, 47, 87
2, 163620, Note_on_c, 0, 47, 0
2, 163620, Note_on_c, 0, 49, 87
2, 163650, Note_on_c, 0, 49, 0
2, 163650, Note_on_c, 0, 51, 87
2, 163680, Note_on_c, 0, 51, 0
2, 163680, Note_on_c, 0, 92, 0
2, 163680, Note_on_c, 0, 59, 0
2, 163680, Note_on_c, 0, 68, 0
2, 163680, Note_on_c, 0, 64, 0
2, 163680, Note_on_c, 0, 52, 0
2, 163680, Note_on_c, 0, 52, 87
2, 163680, Note_on_c, 0, 68, 87
2, 163680, Note_on_c, 0, 64, 87
2, 163680, Note_on_c, 0, 59, 71
2, 163680, Note_on_c, 0, 52, 71
2, 163680, Note_on_c, 0, 40, 87
2, 163710, Note_on_c, 0, 52, 0
2, 163710, Note_on_c, 0, 76, 89
2, 163710, Note_on_c, 0, 54, 87
2, 163740, Note_on_c, 0, 54, 0
2, 163740, Note_on_c, 0, 76, 0
2, 163740, Note_on_c, 0, 80, 89
2, 163740, Note_on_c, 0, 56, 87
2, 163770, Note_on_c, 0, 56, 0
2, 163770, Note_on_c, 0, 80, 0
2, 163770, Note_on_c, 0, 83, 89
2, 163770, Note_on_c, 0, 57, 87
2, 163800, Note_on_c, 0, 57, 0
2, 163800, Note_on_c, 0, 83, 0
2, 163800, Note_on_c, 0, 88, 89
2, 163800, Note_on_c, 0, 59, 87
2, 163830, Note_on_c, 0, 59, 0
2, 229215, Note_on_c, 0, 40, 0
2, 229215, Note_on_c, 0, 64, 0
2, 229215, Note_on_c, 0, 52, 0
2, 229215, Note_on_c, 0, 68, 0
2, 229215, Note_on_c, 0, 59, 0
2, 229335, Note_on_c, 0, 88, 0
2, 229335, End_track
0, 0, End_of_file
