0, 0, Header, 1, 5, 480
1, 0, Start_track
1, 0, Title_t, "mendelssohn sechs praeludien und fugen op35 no1a praeludium"
1, 0, Copyright_t, "Segundo G. Yogore,  2007"
1, 0, Text_t, "sequenced by Segundo G. Yogore,  2007\012"
1, 0, Time_signature, 4, 2, 24, 8
1, 0, Key_signature, 1, "major"
1, 0, Tempo, 500000
1, 80640, Time_signature, 2, 2, 24, 8
1, 82560, Time_signature, 4, 2, 24, 8
1, 84480, Time_signature, 8, 2, 24, 8
1, 84480, End_track
2, 0, Start_track
2, 0, Title_t, "Grand Piano"
2, 0, Program_c, 0, 0
2, 0, Control_c, 0, 7, 115
2, 0, Control_c, 0, 10, 86
2, 1680, Note_on_c, 0, 59, 109
2, 1920, Note_on_c, 0, 59, 0
2, 1920, Note_on_c, 0, 64, 109
2, 2400, Note_on_c, 0, 64, 0
2, 2400, Note_on_c, 0, 66, 83
2, 2640, Note_on_c, 0, 66, 0
2, 2640, Note_on_c, 0, 67, 83
2, 2880, Note_on_c, 0, 67, 0
2, 2880, Note_on_c, 0, 69, 109
2, 3360, Note_on_c, 0, 69, 0
2, 3360, Note_on_c, 0, 67, 83
2, 3600, Note_on_c, 0, 67, 0
2, 3600, Note_on_c, 0, 66, 83
2, 3840, Note_on_c, 0, 66, 0
2, 3840, Note_on_c, 0, 67, 83
2, 4080, Note_on_c, 0, 67, 0
2, 4080, Note_on_c, 0, 66, 83
2, 4200, Note_on_c, 0, 66, 0
2, 4200, Note_on_c, 0, 64, 83
2, 4320, Note_on_c, 0, 64, 0
2, 4320, Note_on_c, 0, 72, 83
2, 4560, Note_on_c, 0, 72, 0
2, 4560, Note_on_c, 0, 72, 83
2, 4800, Note_on_c, 0, 72, 0
2, 4800, Note_on_c, 0, 72, 109
2, 5280, Note_on_c, 0, 72, 0
2, 5280, Note_on_c, 0, 71, 83
2, 5520, Note_on_c, 0, 71, 0
2, 5760, Note_on_c, 0, 65, 83
2, 6000, Note_on_c, 0, 65, 0
2, 6000, Note_on_c, 0, 64, 83
2, 6120, Note_on_c, 0, 64, 0
2, 6120, Note_on_c, 0, 62, 83
2, 6240, Note_on_c, 0, 62, 0
2, 6240, Note_on_c, 0, 71, 83
2, 6480, Note_on_c, 0, 71, 0
2, 6480, Note_on_c, 0, 71, 83
2, 6720, Note_on_c, 0, 71, 0
2, 6720, Note_on_c, 0, 71, 109
2, 7200, Note_on_c, 0, 71, 0
2, 7200, Note_on_c, 0, 69, 83
2, 7440, Note_on_c, 0, 69, 0
2, 7440, Note_on_c, 0, 64, 83
2, 7680, Note_on_c, 0, 64, 0
2, 7680, Note_on_c, 0, 69, 83
2, 7920, Note_on_c, 0, 69, 0
2, 7920, Note_on_c, 0, 67, 83
2, 8160, Note_on_c, 0, 67, 0
2, 8160, Note_on_c, 0, 66, 83
2, 8400, Note_on_c, 0, 66, 0
2, 8400, Note_on_c, 0, 64, 83
2, 8640, Note_on_c, 0, 64, 0
2, 8640, Note_on_c, 0, 63, 83
2, 8880, Note_on_c, 0, 63, 0
2, 8880, Note_on_c, 0, 64, 83
2, 9120, Note_on_c, 0, 64, 0
2, 9120, Note_on_c, 0, 66, 83
2, 9360, Note_on_c, 0, 66, 0
2, 9360, Note_on_c, 0, 59, 83
2, 9600, Note_on_c, 0, 59, 0
2, 9600, Note_on_c, 0, 64, 109
2, 10080, Note_on_c, 0, 64, 0
2, 10080, Note_on_c, 0, 66, 83
2, 10320, Note_on_c, 0, 66, 0
2, 10320, Note_on_c, 0, 67, 83
2, 10560, Note_on_c, 0, 67, 0
2, 10560, Note_on_c, 0, 69, 109
2, 11040, Note_on_c, 0, 69, 0
2, 11040, Note_on_c, 0, 67, 83
2, 11280, Note_on_c, 0, 67, 0
2, 11280, Note_on_c, 0, 66, 83
2, 11520, Note_on_c, 0, 66, 0
2, 11520, Note_on_c, 0, 64, 109
2, 12000, Note_on_c, 0, 64, 0
2, 12000, Note_on_c, 0, 66, 83
2, 12240, Note_on_c, 0, 66, 0
2, 12240, Note_on_c, 0, 67, 83
2, 12480, Note_on_c, 0, 67, 0
2, 12480, Note_on_c, 0, 69, 109
2, 12960, Note_on_c, 0, 69, 0
2, 12960, Note_on_c, 0, 67, 83
2, 13200, Note_on_c, 0, 67, 0
2, 13200, Note_on_c, 0, 66, 83
2, 13440, Note_on_c, 0, 66, 0
2, 13440, Note_on_c, 0, 67, 83
2, 13680, Note_on_c, 0, 67, 0
2, 13680, Note_on_c, 0, 66, 83
2, 13800, Note_on_c, 0, 66, 0
2, 13800, Note_on_c, 0, 64, 83
2, 13920, Note_on_c, 0, 64, 0
2, 13920, Note_on_c, 0, 74, 109
2, 14160, Note_on_c, 0, 74, 0
2, 14160, Note_on_c, 0, 74, 83
2, 14400, Note_on_c, 0, 74, 0
2, 14400, Note_on_c, 0, 74, 109
2, 14880, Note_on_c, 0, 74, 0
2, 14880, Note_on_c, 0, 73, 83
2, 15120, Note_on_c, 0, 73, 0
2, 15120, Note_on_c, 0, 71, 83
2, 15360, Note_on_c, 0, 71, 0
2, 15360, Note_on_c, 0, 70, 70
2, 15600, Note_on_c, 0, 70, 0
2, 15600, Note_on_c, 0, 67, 96
2, 15840, Note_on_c, 0, 67, 0
2, 15840, Note_on_c, 0, 66, 70
2, 16080, Note_on_c, 0, 66, 0
2, 16080, Note_on_c, 0, 70, 70
2, 16320, Note_on_c, 0, 70, 0
2, 16320, Note_on_c, 0, 71, 70
2, 16560, Note_on_c, 0, 71, 0
2, 16560, Note_on_c, 0, 67, 96
2, 16800, Note_on_c, 0, 67, 0
2, 16800, Note_on_c, 0, 66, 70
2, 17040, Note_on_c, 0, 66, 0
2, 17040, Note_on_c, 0, 71, 70
2, 17280, Note_on_c, 0, 71, 0
2, 17280, Note_on_c, 0, 73, 70
2, 17520, Note_on_c, 0, 73, 0
2, 17520, Note_on_c, 0, 67, 96
2, 17760, Note_on_c, 0, 67, 0
2, 17760, Note_on_c, 0, 66, 70
2, 18000, Note_on_c, 0, 66, 0
2, 18000, Note_on_c, 0, 73, 70
2, 18240, Note_on_c, 0, 73, 0
2, 18240, Note_on_c, 0, 74, 83
2, 18480, Note_on_c, 0, 74, 0
2, 18480, Note_on_c, 0, 67, 109
2, 18720, Note_on_c, 0, 67, 0
2, 18720, Note_on_c, 0, 66, 83
2, 18960, Note_on_c, 0, 66, 0
2, 18960, Note_on_c, 0, 74, 83
2, 19200, Note_on_c, 0, 74, 0
2, 19200, Note_on_c, 0, 78, 83
2, 19440, Note_on_c, 0, 78, 0
2, 19440, Note_on_c, 0, 76, 83
2, 19680, Note_on_c, 0, 76, 0
2, 19680, Note_on_c, 0, 76, 83
2, 19920, Note_on_c, 0, 76, 0
2, 19920, Note_on_c, 0, 74, 83
2, 20160, Note_on_c, 0, 74, 0
2, 20160, Note_on_c, 0, 74, 83
2, 20400, Note_on_c, 0, 74, 0
2, 20400, Note_on_c, 0, 73, 83
2, 20640, Note_on_c, 0, 73, 0
2, 20640, Note_on_c, 0, 73, 83
2, 20880, Note_on_c, 0, 73, 0
2, 20880, Note_on_c, 0, 71, 83
2, 21120, Note_on_c, 0, 71, 0
2, 21120, Note_on_c, 0, 74, 109
2, 21600, Note_on_c, 0, 74, 0
2, 21600, Note_on_c, 0, 73, 83
2, 22080, Note_on_c, 0, 73, 0
2, 22080, Note_on_c, 0, 71, 83
2, 22560, Note_on_c, 0, 71, 0
2, 22560, Note_on_c, 0, 59, 83
2, 23040, Note_on_c, 0, 59, 0
2, 23040, Note_on_c, 0, 58, 83
2, 23520, Note_on_c, 0, 58, 0
2, 23520, Note_on_c, 0, 57, 83
2, 24000, Note_on_c, 0, 57, 0
2, 24000, Note_on_c, 0, 56, 83
2, 24480, Note_on_c, 0, 56, 0
2, 24480, Note_on_c, 0, 55, 83
2, 24960, Note_on_c, 0, 55, 0
2, 28560, Note_on_c, 0, 54, 109
2, 28800, Note_on_c, 0, 54, 0
2, 28800, Note_on_c, 0, 59, 109
2, 29280, Note_on_c, 0, 59, 0
2, 29280, Note_on_c, 0, 61, 83
2, 29520, Note_on_c, 0, 61, 0
2, 29520, Note_on_c, 0, 62, 83
2, 29760, Note_on_c, 0, 62, 0
2, 29760, Note_on_c, 0, 64, 109
2, 30240, Note_on_c, 0, 64, 0
2, 30240, Note_on_c, 0, 62, 83
2, 30480, Note_on_c, 0, 62, 0
2, 30480, Note_on_c, 0, 61, 83
2, 30720, Note_on_c, 0, 61, 0
2, 30720, Note_on_c, 0, 62, 83
2, 30960, Note_on_c, 0, 62, 0
2, 30960, Note_on_c, 0, 61, 83
2, 31080, Note_on_c, 0, 61, 0
2, 31080, Note_on_c, 0, 59, 83
2, 31200, Note_on_c, 0, 59, 0
2, 31200, Note_on_c, 0, 65, 83
2, 31440, Note_on_c, 0, 65, 0
2, 31440, Note_on_c, 0, 65, 83
2, 31680, Note_on_c, 0, 65, 0
2, 31680, Note_on_c, 0, 65, 109
2, 32160, Note_on_c, 0, 65, 0
2, 32160, Note_on_c, 0, 64, 83
2, 32400, Note_on_c, 0, 64, 0
2, 32400, Note_on_c, 0, 64, 83
2, 32640, Note_on_c, 0, 64, 0
2, 32640, Note_on_c, 0, 69, 109
2, 33120, Note_on_c, 0, 69, 0
2, 33120, Note_on_c, 0, 71, 83
2, 33360, Note_on_c, 0, 71, 0
2, 33360, Note_on_c, 0, 72, 83
2, 33600, Note_on_c, 0, 72, 0
2, 33600, Note_on_c, 0, 74, 109
2, 34080, Note_on_c, 0, 74, 0
2, 34080, Note_on_c, 0, 72, 83
2, 34320, Note_on_c, 0, 72, 0
2, 34320, Note_on_c, 0, 71, 83
2, 34560, Note_on_c, 0, 71, 0
2, 34560, Note_on_c, 0, 72, 83
2, 34800, Note_on_c, 0, 72, 0
2, 34800, Note_on_c, 0, 71, 83
2, 34920, Note_on_c, 0, 71, 0
2, 34920, Note_on_c, 0, 69, 83
2, 35040, Note_on_c, 0, 69, 0
2, 35040, Note_on_c, 0, 75, 83
2, 35280, Note_on_c, 0, 75, 0
2, 35280, Note_on_c, 0, 75, 83
2, 35520, Note_on_c, 0, 75, 0
2, 35520, Note_on_c, 0, 75, 109
2, 36000, Note_on_c, 0, 75, 0
2, 36000, Note_on_c, 0, 74, 83
2, 36240, Note_on_c, 0, 74, 0
2, 36240, Note_on_c, 0, 72, 83
2, 36480, Note_on_c, 0, 72, 0
2, 36480, Note_on_c, 0, 71, 83
2, 36720, Note_on_c, 0, 71, 0
2, 36720, Note_on_c, 0, 74, 83
2, 36960, Note_on_c, 0, 74, 0
2, 36960, Note_on_c, 0, 72, 70
2, 37200, Note_on_c, 0, 72, 0
2, 37200, Note_on_c, 0, 71, 70
2, 37440, Note_on_c, 0, 71, 0
2, 37440, Note_on_c, 0, 69, 70
2, 37680, Note_on_c, 0, 69, 0
2, 37680, Note_on_c, 0, 72, 70
2, 37920, Note_on_c, 0, 72, 0
2, 37920, Note_on_c, 0, 71, 70
2, 38160, Note_on_c, 0, 71, 0
2, 38160, Note_on_c, 0, 69, 70
2, 38400, Note_on_c, 0, 69, 0
2, 38400, Note_on_c, 0, 68, 70
2, 38640, Note_on_c, 0, 68, 0
2, 38640, Note_on_c, 0, 64, 70
2, 38880, Note_on_c, 0, 64, 0
2, 38880, Note_on_c, 0, 65, 70
2, 39120, Note_on_c, 0, 65, 0
2, 39120, Note_on_c, 0, 64, 70
2, 39360, Note_on_c, 0, 64, 0
2, 39360, Note_on_c, 0, 69, 83
2, 39600, Note_on_c, 0, 69, 0
2, 39600, Note_on_c, 0, 64, 83
2, 39840, Note_on_c, 0, 64, 0
2, 39840, Note_on_c, 0, 71, 83
2, 40080, Note_on_c, 0, 71, 0
2, 40080, Note_on_c, 0, 64, 83
2, 40320, Note_on_c, 0, 64, 0
2, 40320, Note_on_c, 0, 72, 83
2, 40560, Note_on_c, 0, 72, 0
2, 40560, Note_on_c, 0, 69, 83
2, 40800, Note_on_c, 0, 69, 0
2, 40800, Note_on_c, 0, 71, 83
2, 41040, Note_on_c, 0, 71, 0
2, 41040, Note_on_c, 0, 69, 83
2, 41280, Note_on_c, 0, 69, 0
2, 41280, Note_on_c, 0, 75, 83
2, 41520, Note_on_c, 0, 75, 0
2, 41520, Note_on_c, 0, 69, 83
2, 41760, Note_on_c, 0, 69, 0
2, 41760, Note_on_c, 0, 76, 83
2, 42000, Note_on_c, 0, 76, 0
2, 42000, Note_on_c, 0, 69, 83
2, 42240, Note_on_c, 0, 69, 0
2, 42240, Note_on_c, 0, 78, 83
2, 42480, Note_on_c, 0, 78, 0
2, 42480, Note_on_c, 0, 69, 83
2, 42720, Note_on_c, 0, 69, 0
2, 42720, Note_on_c, 0, 76, 83
2, 42960, Note_on_c, 0, 76, 0
2, 42960, Note_on_c, 0, 69, 83
2, 43200, Note_on_c, 0, 69, 0
2, 43200, Note_on_c, 0, 75, 83
2, 43440, Note_on_c, 0, 75, 0
2, 43440, Note_on_c, 0, 69, 83
2, 43680, Note_on_c, 0, 69, 0
2, 43680, Note_on_c, 0, 76, 83
2, 43920, Note_on_c, 0, 76, 0
2, 43920, Note_on_c, 0, 69, 83
2, 44160, Note_on_c, 0, 69, 0
2, 44160, Note_on_c, 0, 78, 96
2, 44640, Note_on_c, 0, 78, 0
2, 44640, Note_on_c, 0, 60, 57
2, 45120, Note_on_c, 0, 60, 0
2, 45120, Note_on_c, 0, 57, 57
2, 45600, Note_on_c, 0, 57, 0
2, 45600, Note_on_c, 0, 54, 70
2, 46080, Note_on_c, 0, 54, 0
2, 46080, Note_on_c, 0, 51, 70
2, 46560, Note_on_c, 0, 51, 0
2, 46560, Note_on_c, 0, 48, 83
2, 47040, Note_on_c, 0, 48, 0
2, 47040, Note_on_c, 0, 47, 83
2, 47520, Note_on_c, 0, 47, 0
2, 47760, Note_on_c, 0, 59, 109
2, 48000, Note_on_c, 0, 59, 0
2, 48000, Note_on_c, 0, 64, 109
2, 48480, Note_on_c, 0, 64, 0
2, 48480, Note_on_c, 0, 66, 83
2, 48720, Note_on_c, 0, 66, 0
2, 48720, Note_on_c, 0, 67, 83
2, 48960, Note_on_c, 0, 67, 0
2, 48960, Note_on_c, 0, 69, 109
2, 49440, Note_on_c, 0, 69, 0
2, 49440, Note_on_c, 0, 67, 83
2, 49680, Note_on_c, 0, 67, 0
2, 49680, Note_on_c, 0, 66, 83
2, 49920, Note_on_c, 0, 66, 0
2, 49920, Note_on_c, 0, 67, 83
2, 50160, Note_on_c, 0, 67, 0
2, 50160, Note_on_c, 0, 66, 83
2, 50280, Note_on_c, 0, 66, 0
2, 50280, Note_on_c, 0, 64, 83
2, 50400, Note_on_c, 0, 64, 0
2, 50400, Note_on_c, 0, 72, 83
2, 50640, Note_on_c, 0, 72, 0
2, 50640, Note_on_c, 0, 72, 83
2, 50880, Note_on_c, 0, 72, 0
2, 50880, Note_on_c, 0, 72, 109
2, 51360, Note_on_c, 0, 72, 0
2, 51360, Note_on_c, 0, 71, 83
2, 51600, Note_on_c, 0, 71, 0
2, 51840, Note_on_c, 0, 65, 83
2, 52080, Note_on_c, 0, 65, 0
2, 52080, Note_on_c, 0, 64, 83
2, 52200, Note_on_c, 0, 64, 0
2, 52200, Note_on_c, 0, 62, 83
2, 52320, Note_on_c, 0, 62, 0
2, 52320, Note_on_c, 0, 71, 83
2, 52560, Note_on_c, 0, 71, 0
2, 52560, Note_on_c, 0, 71, 83
2, 52800, Note_on_c, 0, 71, 0
2, 52800, Note_on_c, 0, 71, 109
2, 53280, Note_on_c, 0, 71, 0
2, 53280, Note_on_c, 0, 69, 83
2, 53520, Note_on_c, 0, 69, 0
2, 53520, Note_on_c, 0, 64, 83
2, 53760, Note_on_c, 0, 64, 0
2, 53760, Note_on_c, 0, 69, 83
2, 54000, Note_on_c, 0, 69, 0
2, 54000, Note_on_c, 0, 67, 83
2, 54240, Note_on_c, 0, 67, 0
2, 54240, Note_on_c, 0, 66, 83
2, 54480, Note_on_c, 0, 66, 0
2, 54480, Note_on_c, 0, 64, 83
2, 54720, Note_on_c, 0, 64, 0
2, 54720, Note_on_c, 0, 63, 57
2, 54960, Note_on_c, 0, 63, 0
2, 54960, Note_on_c, 0, 60, 83
2, 55200, Note_on_c, 0, 60, 0
2, 55200, Note_on_c, 0, 59, 57
2, 55440, Note_on_c, 0, 59, 0
2, 55440, Note_on_c, 0, 63, 57
2, 55680, Note_on_c, 0, 63, 0
2, 55680, Note_on_c, 0, 64, 57
2, 55920, Note_on_c, 0, 64, 0
2, 55920, Note_on_c, 0, 60, 83
2, 56160, Note_on_c, 0, 60, 0
2, 56160, Note_on_c, 0, 59, 57
2, 56400, Note_on_c, 0, 59, 0
2, 56400, Note_on_c, 0, 64, 57
2, 56640, Note_on_c, 0, 64, 0
2, 56640, Note_on_c, 0, 66, 70
2, 56880, Note_on_c, 0, 66, 0
2, 56880, Note_on_c, 0, 60, 96
2, 57120, Note_on_c, 0, 60, 0
2, 57120, Note_on_c, 0, 59, 70
2, 57360, Note_on_c, 0, 59, 0
2, 57360, Note_on_c, 0, 66, 70
2, 57600, Note_on_c, 0, 66, 0
2, 57600, Note_on_c, 0, 67, 70
2, 57840, Note_on_c, 0, 67, 0
2, 57840, Note_on_c, 0, 60, 96
2, 58080, Note_on_c, 0, 60, 0
2, 58080, Note_on_c, 0, 59, 70
2, 58320, Note_on_c, 0, 59, 0
2, 58320, Note_on_c, 0, 67, 70
2, 58560, Note_on_c, 0, 67, 0
2, 58560, Note_on_c, 0, 71, 83
2, 58800, Note_on_c, 0, 71, 0
2, 58800, Note_on_c, 0, 69, 83
2, 59040, Note_on_c, 0, 69, 0
2, 59040, Note_on_c, 0, 69, 83
2, 59280, Note_on_c, 0, 69, 0
2, 59280, Note_on_c, 0, 67, 83
2, 59520, Note_on_c, 0, 67, 0
2, 59520, Note_on_c, 0, 67, 83
2, 59760, Note_on_c, 0, 67, 0
2, 59760, Note_on_c, 0, 66, 83
2, 60000, Note_on_c, 0, 66, 0
2, 60000, Note_on_c, 0, 66, 83
2, 60240, Note_on_c, 0, 66, 0
2, 60240, Note_on_c, 0, 64, 83
2, 60480, Note_on_c, 0, 64, 0
2, 60480, Note_on_c, 0, 67, 109
2, 60960, Note_on_c, 0, 67, 0
2, 60960, Note_on_c, 0, 66, 83
2, 61440, Note_on_c, 0, 66, 0
2, 61440, Note_on_c, 0, 64, 83
2, 61920, Note_on_c, 0, 64, 0
2, 62160, Note_on_c, 0, 64, 83
2, 62400, Note_on_c, 0, 64, 0
2, 62400, Note_on_c, 0, 69, 83
2, 62880, Note_on_c, 0, 69, 0
2, 62880, Note_on_c, 0, 71, 83
2, 63120, Note_on_c, 0, 71, 0
2, 63120, Note_on_c, 0, 72, 83
2, 63360, Note_on_c, 0, 72, 0
2, 63360, Note_on_c, 0, 71, 83
2, 63600, Note_on_c, 0, 71, 0
2, 63600, Note_on_c, 0, 76, 83
2, 64080, Note_on_c, 0, 76, 0
2, 64080, Note_on_c, 0, 66, 83
2, 64320, Note_on_c, 0, 66, 0
2, 64320, Note_on_c, 0, 69, 83
2, 64800, Note_on_c, 0, 69, 0
2, 64800, Note_on_c, 0, 71, 83
2, 65040, Note_on_c, 0, 71, 0
2, 65040, Note_on_c, 0, 72, 83
2, 65280, Note_on_c, 0, 72, 0
2, 65280, Note_on_c, 0, 71, 83
2, 65520, Note_on_c, 0, 71, 0
2, 65520, Note_on_c, 0, 76, 83
2, 66000, Note_on_c, 0, 76, 0
2, 66000, Note_on_c, 0, 66, 83
2, 66240, Note_on_c, 0, 66, 0
2, 66240, Note_on_c, 0, 67, 83
2, 66287, Note_on_c, 0, 67, 0
2, 66480, Note_on_c, 0, 68, 83
2, 66527, Note_on_c, 0, 68, 0
2, 66720, Note_on_c, 0, 69, 83
2, 66767, Note_on_c, 0, 69, 0
2, 66960, Note_on_c, 0, 71, 83
2, 67007, Note_on_c, 0, 71, 0
2, 67200, Note_on_c, 0, 72, 83
2, 67247, Note_on_c, 0, 72, 0
2, 67440, Note_on_c, 0, 73, 83
2, 67487, Note_on_c, 0, 73, 0
2, 67680, Note_on_c, 0, 75, 83
2, 67727, Note_on_c, 0, 75, 0
2, 67920, Note_on_c, 0, 76, 83
2, 67967, Note_on_c, 0, 76, 0
2, 68160, Note_on_c, 0, 76, 109
2, 68640, Note_on_c, 0, 76, 0
2, 68640, Note_on_c, 0, 75, 83
2, 69120, Note_on_c, 0, 75, 0
2, 69120, Note_on_c, 0, 76, 83
2, 69600, Note_on_c, 0, 76, 0
2, 69840, Note_on_c, 0, 64, 83
2, 70080, Note_on_c, 0, 64, 0
2, 70080, Note_on_c, 0, 69, 83
2, 70560, Note_on_c, 0, 69, 0
2, 70560, Note_on_c, 0, 71, 83
2, 70800, Note_on_c, 0, 71, 0
2, 70800, Note_on_c, 0, 72, 83
2, 71040, Note_on_c, 0, 72, 0
2, 71040, Note_on_c, 0, 71, 83
2, 71280, Note_on_c, 0, 71, 0
2, 71280, Note_on_c, 0, 76, 83
2, 71760, Note_on_c, 0, 76, 0
2, 71760, Note_on_c, 0, 64, 83
2, 72000, Note_on_c, 0, 64, 0
2, 72000, Note_on_c, 0, 69, 83
2, 72480, Note_on_c, 0, 69, 0
2, 72480, Note_on_c, 0, 71, 83
2, 72720, Note_on_c, 0, 71, 0
2, 72720, Note_on_c, 0, 72, 83
2, 72960, Note_on_c, 0, 72, 0
2, 72960, Note_on_c, 0, 71, 83
2, 73007, Note_on_c, 0, 71, 0
2, 73200, Note_on_c, 0, 63, 83
2, 73247, Note_on_c, 0, 63, 0
2, 73440, Note_on_c, 0, 64, 83
2, 73487, Note_on_c, 0, 64, 0
2, 73680, Note_on_c, 0, 66, 83
2, 73727, Note_on_c, 0, 66, 0
2, 73920, Note_on_c, 0, 67, 83
2, 73967, Note_on_c, 0, 67, 0
2, 74160, Note_on_c, 0, 68, 83
2, 74207, Note_on_c, 0, 68, 0
2, 74400, Note_on_c, 0, 69, 83
2, 74447, Note_on_c, 0, 69, 0
2, 74640, Note_on_c, 0, 71, 83
2, 74687, Note_on_c, 0, 71, 0
2, 74880, Note_on_c, 0, 72, 83
2, 74927, Note_on_c, 0, 72, 0
2, 75120, Note_on_c, 0, 73, 83
2, 75167, Note_on_c, 0, 73, 0
2, 75360, Note_on_c, 0, 75, 83
2, 75407, Note_on_c, 0, 75, 0
2, 75600, Note_on_c, 0, 76, 83
2, 75647, Note_on_c, 0, 76, 0
2, 75840, Note_on_c, 0, 76, 109
2, 76320, Note_on_c, 0, 76, 0
2, 76320, Note_on_c, 0, 75, 83
2, 76800, Note_on_c, 0, 75, 0
2, 76800, Note_on_c, 0, 76, 83
2, 77280, Note_on_c, 0, 76, 0
2, 77520, Note_on_c, 0, 52, 83
2, 77760, Note_on_c, 0, 52, 0
2, 77760, Note_on_c, 0, 55, 109
2, 78240, Note_on_c, 0, 55, 0
2, 78240, Note_on_c, 0, 59, 109
2, 78720, Note_on_c, 0, 59, 0
2, 78720, Note_on_c, 0, 64, 109
2, 79200, Note_on_c, 0, 64, 0
2, 79440, Note_on_c, 0, 55, 83
2, 79680, Note_on_c, 0, 55, 0
2, 79680, Note_on_c, 0, 59, 109
2, 80160, Note_on_c, 0, 59, 0
2, 80160, Note_on_c, 0, 64, 109
2, 80640, Note_on_c, 0, 64, 0
2, 80640, Note_on_c, 0, 67, 109
2, 81120, Note_on_c, 0, 67, 0
2, 81360, Note_on_c, 0, 64, 83
2, 81600, Note_on_c, 0, 64, 0
2, 81600, Note_on_c, 0, 67, 122
2, 82080, Note_on_c, 0, 67, 0
2, 82080, Note_on_c, 0, 71, 122
2, 82560, Note_on_c, 0, 71, 0
2, 82560, Note_on_c, 0, 76, 122
2, 83040, Note_on_c, 0, 76, 0
2, 83040, Note_on_c, 0, 79, 122
2, 83520, Note_on_c, 0, 79, 0
2, 83520, Note_on_c, 0, 83, 122
2, 83760, Note_on_c, 0, 83, 0
2, 84000, Note_on_c, 0, 54, 96
2, 84000, Note_on_c, 0, 57, 96
2, 84000, Note_on_c, 0, 59, 96
2, 84000, Note_on_c, 0, 63, 96
2, 84480, Note_on_c, 0, 63, 0
2, 84480, Note_on_c, 0, 54, 0
2, 84480, Note_on_c, 0, 57, 0
2, 84480, Note_on_c, 0, 59, 0
2, 84480, Note_on_c, 0, 55, 122
2, 84480, Note_on_c, 0, 59, 122
2, 84480, Note_on_c, 0, 64, 122
2, 84960, Note_on_c, 0, 64, 0
2, 84960, Note_on_c, 0, 59, 0
2, 84960, Note_on_c, 0, 55, 0
2, 84960, Control_c, 0, 64, 127
2, 87840, Control_c, 0, 64, 0
2, 87840, End_track
3, 0, Start_track
3, 0, Title_t, "Instrument17"
3, 0, Program_c, 0, 0
3, 0, Control_c, 0, 7, 115
3, 0, Control_c, 0, 10, 79
3, 240, Control_c, 0, 64, 127
3, 240, Note_on_c, 0, 59, 75
3, 300, Note_on_c, 0, 59, 0
3, 300, Note_on_c, 0, 64, 75
3, 360, Note_on_c, 0, 64, 0
3, 360, Note_on_c, 0, 67, 75
3, 420, Note_on_c, 0, 67, 0
3, 420, Note_on_c, 0, 71, 75
3, 480, Note_on_c, 0, 71, 0
3, 720, Note_on_c, 0, 67, 75
3, 780, Note_on_c, 0, 67, 0
3, 780, Note_on_c, 0, 71, 75
3, 840, Note_on_c, 0, 71, 0
3, 840, Note_on_c, 0, 76, 75
3, 900, Note_on_c, 0, 76, 0
3, 900, Note_on_c, 0, 79, 75
3, 960, Note_on_c, 0, 79, 0
3, 1200, Note_on_c, 0, 64, 75
3, 1260, Note_on_c, 0, 64, 0
3, 1260, Note_on_c, 0, 67, 75
3, 1320, Note_on_c, 0, 67, 0
3, 1320, Note_on_c, 0, 71, 75
3, 1380, Note_on_c, 0, 71, 0
3, 1380, Note_on_c, 0, 76, 75
3, 1440, Note_on_c, 0, 76, 0
3, 1680, Note_on_c, 0, 59, 75
3, 1740, Note_on_c, 0, 59, 0
3, 1740, Note_on_c, 0, 64, 75
3, 1800, Note_on_c, 0, 64, 0
3, 1800, Note_on_c, 0, 67, 75
3, 1860, Note_on_c, 0, 67, 0
3, 1860, Control_c, 0, 64, 0
3, 1860, Note_on_c, 0, 71, 75
3, 1920, Note_on_c, 0, 71, 0
3, 1920, Control_c, 0, 64, 127
3, 2160, Note_on_c, 0, 67, 75
3, 2220, Note_on_c, 0, 67, 0
3, 2220, Note_on_c, 0, 71, 75
3, 2280, Note_on_c, 0, 71, 0
3, 2280, Note_on_c, 0, 75, 75
3, 2340, Note_on_c, 0, 75, 0
3, 2340, Note_on_c, 0, 76, 75
3, 2400, Note_on_c, 0, 76, 0
3, 2640, Note_on_c, 0, 67, 75
3, 2700, Note_on_c, 0, 67, 0
3, 2700, Note_on_c, 0, 71, 75
3, 2760, Note_on_c, 0, 71, 0
3, 2760, Note_on_c, 0, 76, 75
3, 2820, Note_on_c, 0, 76, 0
3, 2820, Control_c, 0, 64, 0
3, 2820, Note_on_c, 0, 79, 75
3, 2880, Note_on_c, 0, 79, 0
3, 3120, Control_c, 0, 64, 127
3, 3120, Note_on_c, 0, 72, 75
3, 3180, Note_on_c, 0, 72, 0
3, 3180, Note_on_c, 0, 75, 75
3, 3240, Note_on_c, 0, 75, 0
3, 3240, Note_on_c, 0, 78, 75
3, 3300, Note_on_c, 0, 78, 0
3, 3300, Note_on_c, 0, 81, 75
3, 3360, Note_on_c, 0, 81, 0
3, 3600, Note_on_c, 0, 66, 75
3, 3660, Note_on_c, 0, 66, 0
3, 3660, Note_on_c, 0, 69, 75
3, 3720, Note_on_c, 0, 69, 0
3, 3720, Note_on_c, 0, 75, 75
3, 3780, Note_on_c, 0, 75, 0
3, 3780, Control_c, 0, 64, 0
3, 3780, Note_on_c, 0, 78, 75
3, 3840, Note_on_c, 0, 78, 0
3, 3840, Control_c, 0, 64, 127
3, 4080, Note_on_c, 0, 66, 75
3, 4140, Note_on_c, 0, 66, 0
3, 4140, Note_on_c, 0, 67, 75
3, 4200, Note_on_c, 0, 67, 0
3, 4200, Note_on_c, 0, 71, 75
3, 4260, Note_on_c, 0, 71, 0
3, 4260, Note_on_c, 0, 76, 75
3, 4320, Note_on_c, 0, 76, 0
3, 4560, Note_on_c, 0, 72, 75
3, 4620, Note_on_c, 0, 72, 0
3, 4620, Note_on_c, 0, 76, 75
3, 4680, Note_on_c, 0, 76, 0
3, 4680, Note_on_c, 0, 79, 75
3, 4740, Note_on_c, 0, 79, 0
3, 4740, Control_c, 0, 64, 0
3, 4740, Note_on_c, 0, 84, 75
3, 4800, Note_on_c, 0, 84, 0
3, 5040, Control_c, 0, 64, 127
3, 5040, Note_on_c, 0, 75, 75
3, 5100, Note_on_c, 0, 75, 0
3, 5100, Note_on_c, 0, 78, 75
3, 5160, Note_on_c, 0, 78, 0
3, 5160, Note_on_c, 0, 81, 75
3, 5220, Note_on_c, 0, 81, 0
3, 5220, Note_on_c, 0, 84, 75
3, 5280, Note_on_c, 0, 84, 0
3, 5520, Note_on_c, 0, 75, 75
3, 5580, Note_on_c, 0, 75, 0
3, 5580, Note_on_c, 0, 78, 75
3, 5640, Note_on_c, 0, 78, 0
3, 5640, Note_on_c, 0, 82, 75
3, 5700, Note_on_c, 0, 82, 0
3, 5700, Control_c, 0, 64, 0
3, 5700, Note_on_c, 0, 83, 75
3, 5760, Note_on_c, 0, 83, 0
3, 5760, Control_c, 0, 64, 127
3, 6000, Note_on_c, 0, 64, 75
3, 6060, Note_on_c, 0, 64, 0
3, 6060, Note_on_c, 0, 65, 75
3, 6120, Note_on_c, 0, 65, 0
3, 6120, Note_on_c, 0, 68, 75
3, 6180, Note_on_c, 0, 68, 0
3, 6180, Note_on_c, 0, 74, 75
3, 6240, Note_on_c, 0, 74, 0
3, 6480, Note_on_c, 0, 71, 75
3, 6540, Note_on_c, 0, 71, 0
3, 6540, Note_on_c, 0, 74, 75
3, 6600, Note_on_c, 0, 74, 0
3, 6600, Note_on_c, 0, 77, 75
3, 6660, Note_on_c, 0, 77, 0
3, 6660, Note_on_c, 0, 83, 75
3, 6720, Note_on_c, 0, 83, 0
3, 6960, Note_on_c, 0, 73, 75
3, 7020, Note_on_c, 0, 73, 0
3, 7020, Note_on_c, 0, 76, 75
3, 7080, Note_on_c, 0, 76, 0
3, 7080, Note_on_c, 0, 80, 75
3, 7140, Note_on_c, 0, 80, 0
3, 7140, Note_on_c, 0, 83, 75
3, 7200, Note_on_c, 0, 83, 0
3, 7440, Note_on_c, 0, 64, 75
3, 7500, Note_on_c, 0, 64, 0
3, 7500, Note_on_c, 0, 69, 75
3, 7560, Note_on_c, 0, 69, 0
3, 7560, Note_on_c, 0, 73, 75
3, 7620, Note_on_c, 0, 73, 0
3, 7620, Control_c, 0, 64, 0
3, 7620, Note_on_c, 0, 76, 75
3, 7680, Note_on_c, 0, 76, 0
3, 7680, Control_c, 0, 64, 127
3, 7920, Note_on_c, 0, 67, 75
3, 7980, Note_on_c, 0, 67, 0
3, 7980, Note_on_c, 0, 72, 75
3, 8040, Note_on_c, 0, 72, 0
3, 8040, Note_on_c, 0, 76, 75
3, 8100, Note_on_c, 0, 76, 0
3, 8100, Note_on_c, 0, 79, 75
3, 8160, Note_on_c, 0, 79, 0
3, 8400, Note_on_c, 0, 64, 75
3, 8460, Note_on_c, 0, 64, 0
3, 8460, Note_on_c, 0, 69, 75
3, 8520, Note_on_c, 0, 69, 0
3, 8520, Note_on_c, 0, 72, 75
3, 8580, Note_on_c, 0, 72, 0
3, 8580, Note_on_c, 0, 76, 75
3, 8640, Note_on_c, 0, 76, 0
3, 8880, Note_on_c, 0, 64, 75
3, 8940, Note_on_c, 0, 64, 0
3, 8940, Note_on_c, 0, 66, 75
3, 9000, Note_on_c, 0, 66, 0
3, 9000, Note_on_c, 0, 69, 75
3, 9060, Note_on_c, 0, 69, 0
3, 9060, Note_on_c, 0, 76, 75
3, 9120, Note_on_c, 0, 76, 0
3, 9360, Note_on_c, 0, 59, 75
3, 9420, Note_on_c, 0, 59, 0
3, 9420, Note_on_c, 0, 66, 75
3, 9480, Note_on_c, 0, 66, 0
3, 9480, Note_on_c, 0, 69, 75
3, 9540, Note_on_c, 0, 69, 0
3, 9540, Control_c, 0, 64, 0
3, 9540, Note_on_c, 0, 71, 75
3, 9600, Note_on_c, 0, 71, 0
3, 9600, Control_c, 0, 64, 127
3, 9840, Note_on_c, 0, 67, 75
3, 9900, Note_on_c, 0, 67, 0
3, 9900, Note_on_c, 0, 71, 75
3, 9960, Note_on_c, 0, 71, 0
3, 9960, Note_on_c, 0, 75, 75
3, 10020, Note_on_c, 0, 75, 0
3, 10020, Note_on_c, 0, 76, 75
3, 10080, Note_on_c, 0, 76, 0
3, 10320, Note_on_c, 0, 67, 75
3, 10380, Note_on_c, 0, 67, 0
3, 10380, Note_on_c, 0, 71, 75
3, 10440, Note_on_c, 0, 71, 0
3, 10440, Note_on_c, 0, 76, 75
3, 10500, Note_on_c, 0, 76, 0
3, 10500, Control_c, 0, 64, 0
3, 10500, Note_on_c, 0, 79, 75
3, 10560, Note_on_c, 0, 79, 0
3, 10800, Control_c, 0, 64, 127
3, 10800, Note_on_c, 0, 72, 75
3, 10860, Note_on_c, 0, 72, 0
3, 10860, Note_on_c, 0, 75, 75
3, 10920, Note_on_c, 0, 75, 0
3, 10920, Note_on_c, 0, 78, 75
3, 10980, Note_on_c, 0, 78, 0
3, 10980, Note_on_c, 0, 81, 75
3, 11040, Note_on_c, 0, 81, 0
3, 11280, Note_on_c, 0, 66, 75
3, 11340, Note_on_c, 0, 66, 0
3, 11340, Note_on_c, 0, 69, 75
3, 11400, Note_on_c, 0, 69, 0
3, 11400, Note_on_c, 0, 75, 75
3, 11460, Note_on_c, 0, 75, 0
3, 11460, Control_c, 0, 64, 0
3, 11460, Note_on_c, 0, 78, 75
3, 11520, Note_on_c, 0, 78, 0
3, 11760, Control_c, 0, 64, 127
3, 11760, Note_on_c, 0, 67, 75
3, 11820, Note_on_c, 0, 67, 0
3, 11820, Note_on_c, 0, 71, 75
3, 11880, Note_on_c, 0, 71, 0
3, 11880, Note_on_c, 0, 75, 75
3, 11940, Note_on_c, 0, 75, 0
3, 11940, Note_on_c, 0, 76, 75
3, 12000, Note_on_c, 0, 76, 0
3, 12240, Note_on_c, 0, 67, 75
3, 12300, Note_on_c, 0, 67, 0
3, 12300, Note_on_c, 0, 71, 75
3, 12360, Note_on_c, 0, 71, 0
3, 12360, Note_on_c, 0, 76, 75
3, 12420, Note_on_c, 0, 76, 0
3, 12420, Control_c, 0, 64, 0
3, 12420, Note_on_c, 0, 79, 75
3, 12480, Note_on_c, 0, 79, 0
3, 12720, Control_c, 0, 64, 127
3, 12720, Note_on_c, 0, 72, 75
3, 12780, Note_on_c, 0, 72, 0
3, 12780, Note_on_c, 0, 75, 75
3, 12840, Note_on_c, 0, 75, 0
3, 12840, Note_on_c, 0, 78, 75
3, 12900, Note_on_c, 0, 78, 0
3, 12900, Note_on_c, 0, 81, 75
3, 12960, Note_on_c, 0, 81, 0
3, 13200, Note_on_c, 0, 66, 75
3, 13260, Note_on_c, 0, 66, 0
3, 13260, Note_on_c, 0, 69, 75
3, 13320, Note_on_c, 0, 69, 0
3, 13320, Note_on_c, 0, 75, 75
3, 13380, Note_on_c, 0, 75, 0
3, 13380, Control_c, 0, 64, 0
3, 13380, Note_on_c, 0, 78, 75
3, 13440, Note_on_c, 0, 78, 0
3, 13440, Control_c, 0, 64, 127
3, 13680, Note_on_c, 0, 66, 75
3, 13740, Note_on_c, 0, 66, 0
3, 13740, Note_on_c, 0, 67, 75
3, 13800, Note_on_c, 0, 67, 0
3, 13800, Note_on_c, 0, 71, 75
3, 13860, Note_on_c, 0, 71, 0
3, 13860, Note_on_c, 0, 76, 75
3, 13920, Note_on_c, 0, 76, 0
3, 14160, Note_on_c, 0, 74, 75
3, 14220, Note_on_c, 0, 74, 0
3, 14220, Note_on_c, 0, 76, 75
3, 14280, Note_on_c, 0, 76, 0
3, 14280, Note_on_c, 0, 79, 75
3, 14340, Note_on_c, 0, 79, 0
3, 14340, Control_c, 0, 64, 0
3, 14340, Note_on_c, 0, 86, 75
3, 14400, Note_on_c, 0, 86, 0
3, 14640, Control_c, 0, 64, 127
3, 14640, Note_on_c, 0, 76, 75
3, 14700, Note_on_c, 0, 76, 0
3, 14700, Note_on_c, 0, 79, 75
3, 14760, Note_on_c, 0, 79, 0
3, 14760, Note_on_c, 0, 83, 75
3, 14820, Note_on_c, 0, 83, 0
3, 14820, Note_on_c, 0, 86, 75
3, 14880, Note_on_c, 0, 86, 0
3, 15120, Note_on_c, 0, 71, 75
3, 15180, Note_on_c, 0, 71, 0
3, 15180, Note_on_c, 0, 76, 75
3, 15240, Note_on_c, 0, 76, 0
3, 15240, Note_on_c, 0, 79, 75
3, 15300, Note_on_c, 0, 79, 0
3, 15300, Control_c, 0, 64, 0
3, 15300, Note_on_c, 0, 83, 75
3, 15360, Note_on_c, 0, 83, 0
3, 15600, Note_on_c, 0, 67, 62
3, 15660, Note_on_c, 0, 67, 0
3, 15660, Note_on_c, 0, 73, 62
3, 15720, Note_on_c, 0, 73, 0
3, 15720, Note_on_c, 0, 76, 62
3, 15780, Note_on_c, 0, 76, 0
3, 15780, Note_on_c, 0, 79, 62
3, 15840, Note_on_c, 0, 79, 0
3, 16080, Note_on_c, 0, 70, 62
3, 16140, Note_on_c, 0, 70, 0
3, 16140, Note_on_c, 0, 73, 62
3, 16200, Note_on_c, 0, 73, 0
3, 16200, Note_on_c, 0, 78, 62
3, 16260, Note_on_c, 0, 78, 0
3, 16260, Control_c, 0, 64, 0
3, 16260, Note_on_c, 0, 82, 62
3, 16320, Note_on_c, 0, 82, 0
3, 16560, Control_c, 0, 64, 127
3, 16560, Note_on_c, 0, 67, 62
3, 16620, Note_on_c, 0, 67, 0
3, 16620, Note_on_c, 0, 71, 62
3, 16680, Note_on_c, 0, 71, 0
3, 16680, Note_on_c, 0, 74, 62
3, 16740, Note_on_c, 0, 74, 0
3, 16740, Note_on_c, 0, 79, 62
3, 16800, Note_on_c, 0, 79, 0
3, 17040, Note_on_c, 0, 71, 62
3, 17100, Note_on_c, 0, 71, 0
3, 17100, Note_on_c, 0, 74, 62
3, 17160, Note_on_c, 0, 74, 0
3, 17160, Note_on_c, 0, 78, 62
3, 17220, Note_on_c, 0, 78, 0
3, 17220, Control_c, 0, 64, 0
3, 17220, Note_on_c, 0, 83, 62
3, 17280, Note_on_c, 0, 83, 0
3, 17520, Control_c, 0, 64, 127
3, 17520, Note_on_c, 0, 67, 62
3, 17580, Note_on_c, 0, 67, 0
3, 17580, Note_on_c, 0, 72, 62
3, 17640, Note_on_c, 0, 72, 0
3, 17640, Note_on_c, 0, 76, 62
3, 17700, Note_on_c, 0, 76, 0
3, 17700, Note_on_c, 0, 79, 62
3, 17760, Note_on_c, 0, 79, 0
3, 18000, Note_on_c, 0, 72, 62
3, 18060, Note_on_c, 0, 72, 0
3, 18060, Note_on_c, 0, 76, 62
3, 18120, Note_on_c, 0, 76, 0
3, 18120, Note_on_c, 0, 78, 62
3, 18180, Note_on_c, 0, 78, 0
3, 18180, Control_c, 0, 64, 0
3, 18180, Note_on_c, 0, 85, 62
3, 18240, Note_on_c, 0, 85, 0
3, 18480, Control_c, 0, 64, 127
3, 18480, Note_on_c, 0, 67, 62
3, 18540, Note_on_c, 0, 67, 0
3, 18540, Note_on_c, 0, 71, 62
3, 18600, Note_on_c, 0, 71, 0
3, 18600, Note_on_c, 0, 74, 62
3, 18660, Note_on_c, 0, 74, 0
3, 18660, Note_on_c, 0, 79, 62
3, 18720, Note_on_c, 0, 79, 0
3, 18960, Note_on_c, 0, 74, 62
3, 19020, Note_on_c, 0, 74, 0
3, 19020, Note_on_c, 0, 78, 62
3, 19080, Note_on_c, 0, 78, 0
3, 19080, Note_on_c, 0, 83, 62
3, 19140, Note_on_c, 0, 83, 0
3, 19140, Control_c, 0, 64, 0
3, 19140, Note_on_c, 0, 86, 62
3, 19200, Note_on_c, 0, 86, 0
3, 19440, Control_c, 0, 64, 127
3, 19440, Note_on_c, 0, 76, 75
3, 19500, Note_on_c, 0, 76, 0
3, 19500, Note_on_c, 0, 79, 75
3, 19560, Note_on_c, 0, 79, 0
3, 19560, Note_on_c, 0, 83, 75
3, 19620, Note_on_c, 0, 83, 0
3, 19620, Note_on_c, 0, 88, 75
3, 19680, Note_on_c, 0, 88, 0
3, 19920, Note_on_c, 0, 74, 75
3, 19980, Note_on_c, 0, 74, 0
3, 19980, Note_on_c, 0, 78, 75
3, 20040, Note_on_c, 0, 78, 0
3, 20040, Note_on_c, 0, 83, 75
3, 20100, Note_on_c, 0, 83, 0
3, 20100, Control_c, 0, 64, 0
3, 20100, Note_on_c, 0, 86, 75
3, 20160, Note_on_c, 0, 86, 0
3, 20400, Control_c, 0, 64, 127
3, 20400, Note_on_c, 0, 73, 75
3, 20460, Note_on_c, 0, 73, 0
3, 20460, Note_on_c, 0, 76, 75
3, 20520, Note_on_c, 0, 76, 0
3, 20520, Note_on_c, 0, 79, 75
3, 20580, Note_on_c, 0, 79, 0
3, 20580, Note_on_c, 0, 85, 75
3, 20640, Note_on_c, 0, 85, 0
3, 20880, Note_on_c, 0, 71, 75
3, 20940, Note_on_c, 0, 71, 0
3, 20940, Note_on_c, 0, 74, 75
3, 21000, Note_on_c, 0, 74, 0
3, 21000, Note_on_c, 0, 80, 75
3, 21060, Note_on_c, 0, 80, 0
3, 21060, Control_c, 0, 64, 0
3, 21060, Note_on_c, 0, 83, 75
3, 21120, Note_on_c, 0, 83, 0
3, 21120, Control_c, 0, 64, 127
3, 21360, Note_on_c, 0, 78, 75
3, 21420, Note_on_c, 0, 78, 0
3, 21420, Note_on_c, 0, 82, 75
3, 21480, Note_on_c, 0, 82, 0
3, 21480, Note_on_c, 0, 83, 75
3, 21540, Note_on_c, 0, 83, 0
3, 21540, Note_on_c, 0, 86, 75
3, 21600, Note_on_c, 0, 86, 0
3, 21840, Note_on_c, 0, 76, 75
3, 21900, Note_on_c, 0, 76, 0
3, 21900, Note_on_c, 0, 78, 75
3, 21960, Note_on_c, 0, 78, 0
3, 21960, Note_on_c, 0, 82, 75
3, 22020, Note_on_c, 0, 82, 0
3, 22020, Control_c, 0, 64, 0
3, 22020, Note_on_c, 0, 85, 75
3, 22080, Note_on_c, 0, 85, 0
3, 22320, Control_c, 0, 64, 127
3, 22320, Note_on_c, 0, 74, 75
3, 22380, Note_on_c, 0, 74, 0
3, 22380, Note_on_c, 0, 78, 75
3, 22440, Note_on_c, 0, 78, 0
3, 22440, Note_on_c, 0, 82, 75
3, 22500, Note_on_c, 0, 82, 0
3, 22500, Note_on_c, 0, 83, 75
3, 22560, Note_on_c, 0, 83, 0
3, 22800, Note_on_c, 0, 65, 49
3, 22860, Note_on_c, 0, 65, 0
3, 22860, Note_on_c, 0, 68, 49
3, 22920, Note_on_c, 0, 68, 0
3, 22920, Note_on_c, 0, 71, 49
3, 22980, Note_on_c, 0, 71, 0
3, 22980, Control_c, 0, 64, 0
3, 22980, Note_on_c, 0, 74, 49
3, 23040, Note_on_c, 0, 74, 0
3, 23280, Control_c, 0, 64, 127
3, 23280, Note_on_c, 0, 73, 49
3, 23340, Note_on_c, 0, 73, 0
3, 23340, Note_on_c, 0, 78, 49
3, 23400, Note_on_c, 0, 78, 0
3, 23400, Note_on_c, 0, 82, 49
3, 23460, Note_on_c, 0, 82, 0
3, 23460, Note_on_c, 0, 85, 49
3, 23520, Note_on_c, 0, 85, 0
3, 23760, Note_on_c, 0, 63, 49
3, 23820, Note_on_c, 0, 63, 0
3, 23820, Note_on_c, 0, 66, 49
3, 23880, Note_on_c, 0, 66, 0
3, 23880, Note_on_c, 0, 69, 49
3, 23940, Note_on_c, 0, 69, 0
3, 23940, Control_c, 0, 64, 0
3, 23940, Note_on_c, 0, 72, 49
3, 24000, Note_on_c, 0, 72, 0
3, 24240, Control_c, 0, 64, 127
3, 24240, Note_on_c, 0, 71, 49
3, 24300, Note_on_c, 0, 71, 0
3, 24300, Note_on_c, 0, 76, 49
3, 24360, Note_on_c, 0, 76, 0
3, 24360, Note_on_c, 0, 80, 49
3, 24420, Note_on_c, 0, 80, 0
3, 24420, Note_on_c, 0, 83, 49
3, 24480, Note_on_c, 0, 83, 0
3, 24720, Note_on_c, 0, 61, 49
3, 24780, Note_on_c, 0, 61, 0
3, 24780, Note_on_c, 0, 64, 49
3, 24840, Note_on_c, 0, 64, 0
3, 24840, Note_on_c, 0, 67, 49
3, 24900, Note_on_c, 0, 67, 0
3, 24900, Control_c, 0, 64, 0
3, 24900, Note_on_c, 0, 71, 49
3, 24960, Note_on_c, 0, 71, 0
3, 25200, Control_c, 0, 64, 127
3, 25200, Note_on_c, 0, 71, 49
3, 25260, Note_on_c, 0, 71, 0
3, 25260, Note_on_c, 0, 74, 49
3, 25320, Note_on_c, 0, 74, 0
3, 25320, Note_on_c, 0, 78, 49
3, 25380, Note_on_c, 0, 78, 0
3, 25380, Note_on_c, 0, 83, 49
3, 25440, Note_on_c, 0, 83, 0
3, 25680, Note_on_c, 0, 61, 49
3, 25740, Note_on_c, 0, 61, 0
3, 25740, Note_on_c, 0, 65, 49
3, 25800, Note_on_c, 0, 65, 0
3, 25800, Note_on_c, 0, 68, 49
3, 25860, Note_on_c, 0, 68, 0
3, 25860, Control_c, 0, 64, 0
3, 25860, Note_on_c, 0, 71, 49
3, 25920, Note_on_c, 0, 71, 0
3, 26160, Control_c, 0, 64, 127
3, 26160, Note_on_c, 0, 67, 62
3, 26220, Note_on_c, 0, 67, 0
3, 26220, Note_on_c, 0, 71, 62
3, 26280, Note_on_c, 0, 71, 0
3, 26280, Note_on_c, 0, 73, 62
3, 26340, Note_on_c, 0, 73, 0
3, 26340, Note_on_c, 0, 79, 62
3, 26400, Note_on_c, 0, 79, 0
3, 26640, Note_on_c, 0, 67, 62
3, 26700, Note_on_c, 0, 67, 0
3, 26700, Note_on_c, 0, 70, 62
3, 26760, Note_on_c, 0, 70, 0
3, 26760, Note_on_c, 0, 73, 62
3, 26820, Note_on_c, 0, 73, 0
3, 26820, Control_c, 0, 64, 0
3, 26820, Note_on_c, 0, 79, 62
3, 26880, Note_on_c, 0, 79, 0
3, 27120, Control_c, 0, 64, 127
3, 27120, Note_on_c, 0, 66, 62
3, 27180, Note_on_c, 0, 66, 0
3, 27180, Note_on_c, 0, 71, 62
3, 27240, Note_on_c, 0, 71, 0
3, 27240, Note_on_c, 0, 74, 62
3, 27300, Note_on_c, 0, 74, 0
3, 27300, Note_on_c, 0, 78, 62
3, 27360, Note_on_c, 0, 78, 0
3, 27600, Note_on_c, 0, 59, 75
3, 27660, Note_on_c, 0, 59, 0
3, 27660, Note_on_c, 0, 64, 75
3, 27720, Note_on_c, 0, 64, 0
3, 27720, Note_on_c, 0, 67, 75
3, 27780, Note_on_c, 0, 67, 0
3, 27780, Control_c, 0, 64, 0
3, 27780, Note_on_c, 0, 71, 75
3, 27840, Note_on_c, 0, 71, 0
3, 28080, Control_c, 0, 64, 127
3, 28080, Note_on_c, 0, 62, 75
3, 28140, Note_on_c, 0, 62, 0
3, 28140, Note_on_c, 0, 66, 75
3, 28200, Note_on_c, 0, 66, 0
3, 28200, Note_on_c, 0, 71, 75
3, 28260, Note_on_c, 0, 71, 0
3, 28260, Note_on_c, 0, 74, 75
3, 28320, Note_on_c, 0, 74, 0
3, 28560, Note_on_c, 0, 54, 75
3, 28620, Note_on_c, 0, 54, 0
3, 28620, Note_on_c, 0, 58, 75
3, 28680, Note_on_c, 0, 58, 0
3, 28680, Note_on_c, 0, 61, 75
3, 28740, Note_on_c, 0, 61, 0
3, 28740, Control_c, 0, 64, 0
3, 28740, Note_on_c, 0, 66, 75
3, 28800, Note_on_c, 0, 66, 0
3, 29040, Control_c, 0, 64, 127
3, 29040, Note_on_c, 0, 62, 75
3, 29100, Note_on_c, 0, 62, 0
3, 29100, Note_on_c, 0, 66, 75
3, 29160, Note_on_c, 0, 66, 0
3, 29160, Note_on_c, 0, 70, 75
3, 29220, Note_on_c, 0, 70, 0
3, 29220, Note_on_c, 0, 71, 75
3, 29280, Note_on_c, 0, 71, 0
3, 29520, Note_on_c, 0, 62, 75
3, 29580, Note_on_c, 0, 62, 0
3, 29580, Note_on_c, 0, 66, 75
3, 29640, Note_on_c, 0, 66, 0
3, 29640, Note_on_c, 0, 71, 75
3, 29700, Note_on_c, 0, 71, 0
3, 29700, Control_c, 0, 64, 0
3, 29700, Note_on_c, 0, 74, 75
3, 29760, Note_on_c, 0, 74, 0
3, 30000, Control_c, 0, 64, 127
3, 30000, Note_on_c, 0, 67, 75
3, 30060, Note_on_c, 0, 67, 0
3, 30060, Note_on_c, 0, 70, 75
3, 30120, Note_on_c, 0, 70, 0
3, 30120, Note_on_c, 0, 73, 75
3, 30180, Note_on_c, 0, 73, 0
3, 30180, Note_on_c, 0, 76, 75
3, 30240, Note_on_c, 0, 76, 0
3, 30480, Note_on_c, 0, 61, 75
3, 30540, Note_on_c, 0, 61, 0
3, 30540, Note_on_c, 0, 64, 75
3, 30600, Note_on_c, 0, 64, 0
3, 30600, Note_on_c, 0, 70, 75
3, 30660, Note_on_c, 0, 70, 0
3, 30660, Control_c, 0, 64, 0
3, 30660, Note_on_c, 0, 73, 75
3, 30720, Note_on_c, 0, 73, 0
3, 30960, Control_c, 0, 64, 127
3, 30960, Note_on_c, 0, 61, 75
3, 31020, Note_on_c, 0, 61, 0
3, 31020, Note_on_c, 0, 62, 75
3, 31080, Note_on_c, 0, 62, 0
3, 31080, Note_on_c, 0, 66, 75
3, 31140, Note_on_c, 0, 66, 0
3, 31140, Note_on_c, 0, 71, 75
3, 31200, Note_on_c, 0, 71, 0
3, 31440, Note_on_c, 0, 65, 75
3, 31500, Note_on_c, 0, 65, 0
3, 31500, Note_on_c, 0, 71, 75
3, 31560, Note_on_c, 0, 71, 0
3, 31560, Note_on_c, 0, 74, 75
3, 31620, Note_on_c, 0, 74, 0
3, 31620, Control_c, 0, 64, 0
3, 31620, Note_on_c, 0, 77, 75
3, 31680, Note_on_c, 0, 77, 0
3, 31920, Control_c, 0, 64, 127
3, 31920, Note_on_c, 0, 68, 75
3, 31980, Note_on_c, 0, 68, 0
3, 31980, Note_on_c, 0, 71, 75
3, 32040, Note_on_c, 0, 71, 0
3, 32040, Note_on_c, 0, 74, 75
3, 32100, Note_on_c, 0, 74, 0
3, 32100, Note_on_c, 0, 77, 75
3, 32160, Note_on_c, 0, 77, 0
3, 32400, Note_on_c, 0, 64, 75
3, 32460, Note_on_c, 0, 64, 0
3, 32460, Note_on_c, 0, 68, 75
3, 32520, Note_on_c, 0, 68, 0
3, 32520, Note_on_c, 0, 71, 75
3, 32580, Note_on_c, 0, 71, 0
3, 32580, Control_c, 0, 64, 0
3, 32580, Note_on_c, 0, 76, 75
3, 32640, Note_on_c, 0, 76, 0
3, 32880, Control_c, 0, 64, 127
3, 32880, Note_on_c, 0, 72, 75
3, 32940, Note_on_c, 0, 72, 0
3, 32940, Note_on_c, 0, 76, 75
3, 33000, Note_on_c, 0, 76, 0
3, 33000, Note_on_c, 0, 80, 75
3, 33060, Note_on_c, 0, 80, 0
3, 33060, Note_on_c, 0, 81, 75
3, 33120, Note_on_c, 0, 81, 0
3, 33360, Note_on_c, 0, 72, 75
3, 33420, Note_on_c, 0, 72, 0
3, 33420, Note_on_c, 0, 76, 75
3, 33480, Note_on_c, 0, 76, 0
3, 33480, Note_on_c, 0, 81, 75
3, 33540, Note_on_c, 0, 81, 0
3, 33540, Control_c, 0, 64, 0
3, 33540, Note_on_c, 0, 84, 75
3, 33600, Note_on_c, 0, 84, 0
3, 33840, Control_c, 0, 64, 127
3, 33840, Note_on_c, 0, 77, 75
3, 33900, Note_on_c, 0, 77, 0
3, 33900, Note_on_c, 0, 80, 75
3, 33960, Note_on_c, 0, 80, 0
3, 33960, Note_on_c, 0, 83, 75
3, 34020, Note_on_c, 0, 83, 0
3, 34020, Note_on_c, 0, 86, 75
3, 34080, Note_on_c, 0, 86, 0
3, 34320, Note_on_c, 0, 71, 75
3, 34380, Note_on_c, 0, 71, 0
3, 34380, Note_on_c, 0, 74, 75
3, 34440, Note_on_c, 0, 74, 0
3, 34440, Note_on_c, 0, 80, 75
3, 34500, Note_on_c, 0, 80, 0
3, 34500, Control_c, 0, 64, 0
3, 34500, Note_on_c, 0, 83, 75
3, 34560, Note_on_c, 0, 83, 0
3, 34800, Control_c, 0, 64, 127
3, 34800, Note_on_c, 0, 71, 75
3, 34860, Note_on_c, 0, 71, 0
3, 34860, Note_on_c, 0, 72, 75
3, 34920, Note_on_c, 0, 72, 0
3, 34920, Note_on_c, 0, 76, 75
3, 34980, Note_on_c, 0, 76, 0
3, 34980, Note_on_c, 0, 81, 75
3, 35040, Note_on_c, 0, 81, 0
3, 35280, Note_on_c, 0, 76, 75
3, 35340, Note_on_c, 0, 76, 0
3, 35340, Note_on_c, 0, 81, 75
3, 35400, Note_on_c, 0, 81, 0
3, 35400, Note_on_c, 0, 84, 75
3, 35460, Note_on_c, 0, 84, 0
3, 35460, Control_c, 0, 64, 0
3, 35460, Note_on_c, 0, 87, 75
3, 35520, Note_on_c, 0, 87, 0
3, 35760, Control_c, 0, 64, 127
3, 35760, Note_on_c, 0, 78, 75
3, 35820, Note_on_c, 0, 78, 0
3, 35820, Note_on_c, 0, 81, 75
3, 35880, Note_on_c, 0, 81, 0
3, 35880, Note_on_c, 0, 84, 75
3, 35940, Note_on_c, 0, 84, 0
3, 35940, Note_on_c, 0, 87, 75
3, 36000, Note_on_c, 0, 87, 0
3, 36240, Note_on_c, 0, 72, 75
3, 36300, Note_on_c, 0, 72, 0
3, 36300, Note_on_c, 0, 78, 75
3, 36360, Note_on_c, 0, 78, 0
3, 36360, Note_on_c, 0, 81, 75
3, 36420, Note_on_c, 0, 81, 0
3, 36420, Control_c, 0, 64, 0
3, 36420, Note_on_c, 0, 84, 75
3, 36480, Note_on_c, 0, 84, 0
3, 36720, Control_c, 0, 64, 127
3, 36720, Note_on_c, 0, 74, 75
3, 36780, Note_on_c, 0, 74, 0
3, 36780, Note_on_c, 0, 79, 75
3, 36840, Note_on_c, 0, 79, 0
3, 36840, Note_on_c, 0, 83, 75
3, 36900, Note_on_c, 0, 83, 0
3, 36900, Note_on_c, 0, 86, 75
3, 36960, Note_on_c, 0, 86, 0
3, 37200, Note_on_c, 0, 71, 62
3, 37260, Note_on_c, 0, 71, 0
3, 37260, Note_on_c, 0, 76, 62
3, 37320, Note_on_c, 0, 76, 0
3, 37320, Note_on_c, 0, 79, 62
3, 37380, Note_on_c, 0, 79, 0
3, 37380, Control_c, 0, 64, 0
3, 37380, Note_on_c, 0, 83, 62
3, 37440, Note_on_c, 0, 83, 0
3, 37680, Control_c, 0, 64, 127
3, 37680, Note_on_c, 0, 72, 62
3, 37740, Note_on_c, 0, 72, 0
3, 37740, Note_on_c, 0, 77, 62
3, 37800, Note_on_c, 0, 77, 0
3, 37800, Note_on_c, 0, 81, 62
3, 37860, Note_on_c, 0, 81, 0
3, 37860, Note_on_c, 0, 84, 62
3, 37920, Note_on_c, 0, 84, 0
3, 38160, Note_on_c, 0, 69, 62
3, 38220, Note_on_c, 0, 69, 0
3, 38220, Note_on_c, 0, 74, 62
3, 38280, Note_on_c, 0, 74, 0
3, 38280, Note_on_c, 0, 77, 62
3, 38340, Note_on_c, 0, 77, 0
3, 38340, Control_c, 0, 64, 0
3, 38340, Note_on_c, 0, 81, 62
3, 38400, Note_on_c, 0, 81, 0
3, 38640, Control_c, 0, 64, 127
3, 38640, Note_on_c, 0, 64, 62
3, 38700, Note_on_c, 0, 64, 0
3, 38700, Note_on_c, 0, 67, 62
3, 38760, Note_on_c, 0, 67, 0
3, 38760, Note_on_c, 0, 71, 62
3, 38820, Note_on_c, 0, 71, 0
3, 38820, Note_on_c, 0, 76, 62
3, 38880, Note_on_c, 0, 76, 0
3, 39120, Note_on_c, 0, 64, 62
3, 39180, Note_on_c, 0, 64, 0
3, 39180, Note_on_c, 0, 67, 62
3, 39240, Note_on_c, 0, 67, 0
3, 39240, Note_on_c, 0, 71, 62
3, 39300, Note_on_c, 0, 71, 0
3, 39300, Control_c, 0, 64, 0
3, 39300, Note_on_c, 0, 76, 62
3, 39360, Note_on_c, 0, 76, 0
3, 39600, Control_c, 0, 64, 127
3, 39600, Note_on_c, 0, 64, 75
3, 39660, Note_on_c, 0, 64, 0
3, 39660, Note_on_c, 0, 69, 75
3, 39720, Note_on_c, 0, 69, 0
3, 39720, Note_on_c, 0, 72, 75
3, 39780, Note_on_c, 0, 72, 0
3, 39780, Note_on_c, 0, 76, 75
3, 39840, Note_on_c, 0, 76, 0
3, 40080, Note_on_c, 0, 64, 75
3, 40140, Note_on_c, 0, 64, 0
3, 40140, Note_on_c, 0, 71, 75
3, 40200, Note_on_c, 0, 71, 0
3, 40200, Note_on_c, 0, 74, 75
3, 40260, Note_on_c, 0, 74, 0
3, 40260, Control_c, 0, 64, 0
3, 40260, Note_on_c, 0, 76, 75
3, 40320, Note_on_c, 0, 76, 0
3, 40560, Control_c, 0, 64, 127
3, 40560, Note_on_c, 0, 69, 75
3, 40620, Note_on_c, 0, 69, 0
3, 40620, Note_on_c, 0, 72, 75
3, 40680, Note_on_c, 0, 72, 0
3, 40680, Note_on_c, 0, 76, 75
3, 40740, Note_on_c, 0, 76, 0
3, 40740, Note_on_c, 0, 81, 75
3, 40800, Note_on_c, 0, 81, 0
3, 41040, Note_on_c, 0, 69, 75
3, 41100, Note_on_c, 0, 69, 0
3, 41100, Note_on_c, 0, 72, 75
3, 41160, Note_on_c, 0, 72, 0
3, 41160, Note_on_c, 0, 76, 75
3, 41220, Note_on_c, 0, 76, 0
3, 41220, Control_c, 0, 64, 0
3, 41220, Note_on_c, 0, 81, 75
3, 41280, Note_on_c, 0, 81, 0
3, 41520, Control_c, 0, 64, 127
3, 41520, Note_on_c, 0, 69, 75
3, 41580, Note_on_c, 0, 69, 0
3, 41580, Note_on_c, 0, 72, 75
3, 41640, Note_on_c, 0, 72, 0
3, 41640, Note_on_c, 0, 75, 75
3, 41700, Note_on_c, 0, 75, 0
3, 41700, Note_on_c, 0, 81, 75
3, 41760, Note_on_c, 0, 81, 0
3, 42000, Note_on_c, 0, 69, 75
3, 42060, Note_on_c, 0, 69, 0
3, 42060, Note_on_c, 0, 72, 75
3, 42120, Note_on_c, 0, 72, 0
3, 42120, Note_on_c, 0, 76, 75
3, 42180, Note_on_c, 0, 76, 0
3, 42180, Control_c, 0, 64, 0
3, 42180, Note_on_c, 0, 81, 75
3, 42240, Note_on_c, 0, 81, 0
3, 42480, Control_c, 0, 64, 127
3, 42480, Note_on_c, 0, 69, 75
3, 42540, Note_on_c, 0, 69, 0
3, 42540, Note_on_c, 0, 72, 75
3, 42600, Note_on_c, 0, 72, 0
3, 42600, Note_on_c, 0, 78, 75
3, 42660, Note_on_c, 0, 78, 0
3, 42660, Note_on_c, 0, 81, 75
3, 42720, Note_on_c, 0, 81, 0
3, 42960, Note_on_c, 0, 69, 75
3, 43020, Note_on_c, 0, 69, 0
3, 43020, Note_on_c, 0, 72, 75
3, 43080, Note_on_c, 0, 72, 0
3, 43080, Note_on_c, 0, 76, 75
3, 43140, Note_on_c, 0, 76, 0
3, 43140, Control_c, 0, 64, 0
3, 43140, Note_on_c, 0, 81, 75
3, 43200, Note_on_c, 0, 81, 0
3, 43440, Control_c, 0, 64, 127
3, 43440, Note_on_c, 0, 69, 75
3, 43500, Note_on_c, 0, 69, 0
3, 43500, Note_on_c, 0, 72, 75
3, 43560, Note_on_c, 0, 72, 0
3, 43560, Note_on_c, 0, 75, 75
3, 43620, Note_on_c, 0, 75, 0
3, 43620, Note_on_c, 0, 81, 75
3, 43680, Note_on_c, 0, 81, 0
3, 43920, Note_on_c, 0, 69, 75
3, 43980, Note_on_c, 0, 69, 0
3, 43980, Note_on_c, 0, 72, 75
3, 44040, Note_on_c, 0, 72, 0
3, 44040, Note_on_c, 0, 76, 75
3, 44100, Note_on_c, 0, 76, 0
3, 44100, Control_c, 0, 64, 0
3, 44100, Note_on_c, 0, 81, 75
3, 44160, Note_on_c, 0, 81, 0
3, 44400, Control_c, 0, 64, 127
3, 44400, Note_on_c, 0, 69, 75
3, 44460, Note_on_c, 0, 69, 0
3, 44460, Note_on_c, 0, 72, 75
3, 44520, Note_on_c, 0, 72, 0
3, 44520, Note_on_c, 0, 78, 75
3, 44580, Note_on_c, 0, 78, 0
3, 44580, Note_on_c, 0, 81, 75
3, 44640, Note_on_c, 0, 81, 0
3, 44880, Note_on_c, 0, 72, 49
3, 44940, Note_on_c, 0, 72, 0
3, 44940, Note_on_c, 0, 75, 49
3, 45000, Note_on_c, 0, 75, 0
3, 45000, Note_on_c, 0, 78, 49
3, 45060, Note_on_c, 0, 78, 0
3, 45060, Control_c, 0, 64, 0
3, 45060, Note_on_c, 0, 84, 49
3, 45120, Note_on_c, 0, 84, 0
3, 45360, Control_c, 0, 64, 127
3, 45360, Note_on_c, 0, 69, 49
3, 45420, Note_on_c, 0, 69, 0
3, 45420, Note_on_c, 0, 72, 49
3, 45480, Note_on_c, 0, 72, 0
3, 45480, Note_on_c, 0, 75, 49
3, 45540, Note_on_c, 0, 75, 0
3, 45540, Note_on_c, 0, 81, 49
3, 45600, Note_on_c, 0, 81, 0
3, 45840, Note_on_c, 0, 66, 62
3, 45900, Note_on_c, 0, 66, 0
3, 45900, Note_on_c, 0, 69, 62
3, 45960, Note_on_c, 0, 69, 0
3, 45960, Note_on_c, 0, 72, 62
3, 46020, Note_on_c, 0, 72, 0
3, 46020, Control_c, 0, 64, 0
3, 46020, Note_on_c, 0, 78, 62
3, 46080, Note_on_c, 0, 78, 0
3, 46320, Control_c, 0, 64, 127
3, 46320, Note_on_c, 0, 63, 62
3, 46380, Note_on_c, 0, 63, 0
3, 46380, Note_on_c, 0, 66, 62
3, 46440, Note_on_c, 0, 66, 0
3, 46440, Note_on_c, 0, 69, 62
3, 46500, Note_on_c, 0, 69, 0
3, 46500, Note_on_c, 0, 75, 62
3, 46560, Note_on_c, 0, 75, 0
3, 46800, Note_on_c, 0, 60, 75
3, 46860, Note_on_c, 0, 60, 0
3, 46860, Note_on_c, 0, 63, 75
3, 46920, Note_on_c, 0, 63, 0
3, 46920, Note_on_c, 0, 66, 75
3, 46980, Note_on_c, 0, 66, 0
3, 46980, Control_c, 0, 64, 0
3, 46980, Note_on_c, 0, 72, 75
3, 47040, Note_on_c, 0, 72, 0
3, 47280, Control_c, 0, 64, 127
3, 47280, Note_on_c, 0, 59, 75
3, 47340, Note_on_c, 0, 59, 0
3, 47340, Note_on_c, 0, 63, 75
3, 47400, Note_on_c, 0, 63, 0
3, 47400, Note_on_c, 0, 66, 75
3, 47460, Note_on_c, 0, 66, 0
3, 47460, Note_on_c, 0, 71, 75
3, 47520, Note_on_c, 0, 71, 0
3, 47760, Note_on_c, 0, 59, 75
3, 47820, Note_on_c, 0, 59, 0
3, 47820, Note_on_c, 0, 63, 75
3, 47880, Note_on_c, 0, 63, 0
3, 47880, Note_on_c, 0, 66, 75
3, 47940, Note_on_c, 0, 66, 0
3, 47940, Control_c, 0, 64, 0
3, 47940, Note_on_c, 0, 71, 75
3, 48000, Note_on_c, 0, 71, 0
3, 48240, Control_c, 0, 64, 127
3, 48240, Note_on_c, 0, 67, 75
3, 48300, Note_on_c, 0, 67, 0
3, 48300, Note_on_c, 0, 71, 75
3, 48360, Note_on_c, 0, 71, 0
3, 48360, Note_on_c, 0, 75, 75
3, 48420, Note_on_c, 0, 75, 0
3, 48420, Note_on_c, 0, 76, 75
3, 48480, Note_on_c, 0, 76, 0
3, 48720, Note_on_c, 0, 67, 75
3, 48780, Note_on_c, 0, 67, 0
3, 48780, Note_on_c, 0, 72, 75
3, 48840, Note_on_c, 0, 72, 0
3, 48840, Note_on_c, 0, 76, 75
3, 48900, Note_on_c, 0, 76, 0
3, 48900, Control_c, 0, 64, 0
3, 48900, Note_on_c, 0, 79, 75
3, 48960, Note_on_c, 0, 79, 0
3, 49200, Control_c, 0, 64, 127
3, 49200, Note_on_c, 0, 72, 75
3, 49260, Note_on_c, 0, 72, 0
3, 49260, Note_on_c, 0, 76, 75
3, 49320, Note_on_c, 0, 76, 0
3, 49320, Note_on_c, 0, 78, 75
3, 49380, Note_on_c, 0, 78, 0
3, 49380, Note_on_c, 0, 81, 75
3, 49440, Note_on_c, 0, 81, 0
3, 49680, Note_on_c, 0, 66, 75
3, 49740, Note_on_c, 0, 66, 0
3, 49740, Note_on_c, 0, 69, 75
3, 49800, Note_on_c, 0, 69, 0
3, 49800, Note_on_c, 0, 75, 75
3, 49860, Note_on_c, 0, 75, 0
3, 49860, Control_c, 0, 64, 0
3, 49860, Note_on_c, 0, 78, 75
3, 49920, Note_on_c, 0, 78, 0
3, 50160, Control_c, 0, 64, 127
3, 50160, Note_on_c, 0, 66, 75
3, 50220, Note_on_c, 0, 66, 0
3, 50220, Note_on_c, 0, 67, 75
3, 50280, Note_on_c, 0, 67, 0
3, 50280, Note_on_c, 0, 71, 75
3, 50340, Note_on_c, 0, 71, 0
3, 50340, Note_on_c, 0, 76, 75
3, 50400, Note_on_c, 0, 76, 0
3, 50640, Note_on_c, 0, 72, 75
3, 50700, Note_on_c, 0, 72, 0
3, 50700, Note_on_c, 0, 76, 75
3, 50760, Note_on_c, 0, 76, 0
3, 50760, Note_on_c, 0, 79, 75
3, 50820, Note_on_c, 0, 79, 0
3, 50820, Control_c, 0, 64, 0
3, 50820, Note_on_c, 0, 84, 75
3, 50880, Note_on_c, 0, 84, 0
3, 51120, Control_c, 0, 64, 127
3, 51120, Note_on_c, 0, 75, 75
3, 51180, Note_on_c, 0, 75, 0
3, 51180, Note_on_c, 0, 78, 75
3, 51240, Note_on_c, 0, 78, 0
3, 51240, Note_on_c, 0, 81, 75
3, 51300, Note_on_c, 0, 81, 0
3, 51300, Note_on_c, 0, 84, 75
3, 51360, Note_on_c, 0, 84, 0
3, 51600, Note_on_c, 0, 75, 75
3, 51660, Note_on_c, 0, 75, 0
3, 51660, Note_on_c, 0, 78, 75
3, 51720, Note_on_c, 0, 78, 0
3, 51720, Note_on_c, 0, 81, 75
3, 51780, Note_on_c, 0, 81, 0
3, 51780, Control_c, 0, 64, 0
3, 51780, Note_on_c, 0, 83, 75
3, 51840, Note_on_c, 0, 83, 0
3, 52080, Control_c, 0, 64, 127
3, 52080, Note_on_c, 0, 64, 75
3, 52140, Note_on_c, 0, 64, 0
3, 52140, Note_on_c, 0, 65, 75
3, 52200, Note_on_c, 0, 65, 0
3, 52200, Note_on_c, 0, 68, 75
3, 52260, Note_on_c, 0, 68, 0
3, 52260, Note_on_c, 0, 74, 75
3, 52320, Note_on_c, 0, 74, 0
3, 52560, Note_on_c, 0, 71, 75
3, 52620, Note_on_c, 0, 71, 0
3, 52620, Note_on_c, 0, 74, 75
3, 52680, Note_on_c, 0, 74, 0
3, 52680, Note_on_c, 0, 77, 75
3, 52740, Note_on_c, 0, 77, 0
3, 52740, Control_c, 0, 64, 0
3, 52740, Note_on_c, 0, 83, 75
3, 52800, Note_on_c, 0, 83, 0
3, 53040, Control_c, 0, 64, 127
3, 53040, Note_on_c, 0, 73, 75
3, 53100, Note_on_c, 0, 73, 0
3, 53100, Note_on_c, 0, 76, 75
3, 53160, Note_on_c, 0, 76, 0
3, 53160, Note_on_c, 0, 80, 75
3, 53220, Note_on_c, 0, 80, 0
3, 53220, Note_on_c, 0, 83, 75
3, 53280, Note_on_c, 0, 83, 0
3, 53520, Note_on_c, 0, 64, 75
3, 53580, Note_on_c, 0, 64, 0
3, 53580, Note_on_c, 0, 69, 75
3, 53640, Note_on_c, 0, 69, 0
3, 53640, Note_on_c, 0, 73, 75
3, 53700, Note_on_c, 0, 73, 0
3, 53700, Control_c, 0, 64, 0
3, 53700, Note_on_c, 0, 76, 75
3, 53760, Note_on_c, 0, 76, 0
3, 54000, Control_c, 0, 64, 127
3, 54000, Note_on_c, 0, 67, 75
3, 54060, Note_on_c, 0, 67, 0
3, 54060, Note_on_c, 0, 69, 75
3, 54120, Note_on_c, 0, 69, 0
3, 54120, Note_on_c, 0, 72, 75
3, 54180, Note_on_c, 0, 72, 0
3, 54180, Note_on_c, 0, 79, 75
3, 54240, Note_on_c, 0, 79, 0
3, 54480, Note_on_c, 0, 64, 75
3, 54540, Note_on_c, 0, 64, 0
3, 54540, Note_on_c, 0, 69, 75
3, 54600, Note_on_c, 0, 69, 0
3, 54600, Note_on_c, 0, 72, 75
3, 54660, Note_on_c, 0, 72, 0
3, 54660, Control_c, 0, 64, 0
3, 54660, Note_on_c, 0, 76, 75
3, 54720, Note_on_c, 0, 76, 0
3, 54960, Control_c, 0, 64, 127
3, 54960, Note_on_c, 0, 60, 49
3, 55020, Note_on_c, 0, 60, 0
3, 55020, Note_on_c, 0, 66, 49
3, 55080, Note_on_c, 0, 66, 0
3, 55080, Note_on_c, 0, 69, 49
3, 55140, Note_on_c, 0, 69, 0
3, 55140, Note_on_c, 0, 72, 49
3, 55200, Note_on_c, 0, 72, 0
3, 55440, Note_on_c, 0, 63, 49
3, 55500, Note_on_c, 0, 63, 0
3, 55500, Note_on_c, 0, 66, 49
3, 55560, Note_on_c, 0, 66, 0
3, 55560, Note_on_c, 0, 71, 49
3, 55620, Note_on_c, 0, 71, 0
3, 55620, Control_c, 0, 64, 0
3, 55620, Note_on_c, 0, 75, 49
3, 55680, Note_on_c, 0, 75, 0
3, 55920, Control_c, 0, 64, 127
3, 55920, Note_on_c, 0, 60, 49
3, 55980, Note_on_c, 0, 60, 0
3, 55980, Note_on_c, 0, 64, 49
3, 56040, Note_on_c, 0, 64, 0
3, 56040, Note_on_c, 0, 67, 49
3, 56100, Note_on_c, 0, 67, 0
3, 56100, Note_on_c, 0, 72, 49
3, 56160, Note_on_c, 0, 72, 0
3, 56400, Note_on_c, 0, 64, 49
3, 56460, Note_on_c, 0, 64, 0
3, 56460, Note_on_c, 0, 67, 49
3, 56520, Note_on_c, 0, 67, 0
3, 56520, Note_on_c, 0, 71, 49
3, 56580, Note_on_c, 0, 71, 0
3, 56580, Control_c, 0, 64, 0
3, 56580, Note_on_c, 0, 76, 49
3, 56640, Note_on_c, 0, 76, 0
3, 56880, Control_c, 0, 64, 127
3, 56880, Note_on_c, 0, 60, 62
3, 56940, Note_on_c, 0, 60, 0
3, 56940, Note_on_c, 0, 66, 62
3, 57000, Note_on_c, 0, 66, 0
3, 57000, Note_on_c, 0, 69, 62
3, 57060, Note_on_c, 0, 69, 0
3, 57060, Note_on_c, 0, 72, 62
3, 57120, Note_on_c, 0, 72, 0
3, 57360, Note_on_c, 0, 66, 62
3, 57420, Note_on_c, 0, 66, 0
3, 57420, Note_on_c, 0, 69, 62
3, 57480, Note_on_c, 0, 69, 0
3, 57480, Note_on_c, 0, 71, 62
3, 57540, Note_on_c, 0, 71, 0
3, 57540, Control_c, 0, 64, 0
3, 57540, Note_on_c, 0, 78, 62
3, 57600, Note_on_c, 0, 78, 0
3, 57840, Control_c, 0, 64, 127
3, 57840, Note_on_c, 0, 60, 62
3, 57900, Note_on_c, 0, 60, 0
3, 57900, Note_on_c, 0, 64, 62
3, 57960, Note_on_c, 0, 64, 0
3, 57960, Note_on_c, 0, 67, 62
3, 58020, Note_on_c, 0, 67, 0
3, 58020, Note_on_c, 0, 72, 62
3, 58080, Note_on_c, 0, 72, 0
3, 58320, Note_on_c, 0, 67, 62
3, 58380, Note_on_c, 0, 67, 0
3, 58380, Note_on_c, 0, 71, 62
3, 58440, Note_on_c, 0, 71, 0
3, 58440, Note_on_c, 0, 76, 62
3, 58500, Note_on_c, 0, 76, 0
3, 58500, Control_c, 0, 64, 0
3, 58500, Note_on_c, 0, 79, 62
3, 58560, Note_on_c, 0, 79, 0
3, 58800, Control_c, 0, 64, 127
3, 58800, Note_on_c, 0, 69, 75
3, 58860, Note_on_c, 0, 69, 0
3, 58860, Note_on_c, 0, 72, 75
3, 58920, Note_on_c, 0, 72, 0
3, 58920, Note_on_c, 0, 76, 75
3, 58980, Note_on_c, 0, 76, 0
3, 58980, Note_on_c, 0, 81, 75
3, 59040, Note_on_c, 0, 81, 0
3, 59280, Note_on_c, 0, 67, 75
3, 59340, Note_on_c, 0, 67, 0
3, 59340, Note_on_c, 0, 71, 75
3, 59400, Note_on_c, 0, 71, 0
3, 59400, Note_on_c, 0, 76, 75
3, 59460, Note_on_c, 0, 76, 0
3, 59460, Control_c, 0, 64, 0
3, 59460, Note_on_c, 0, 79, 75
3, 59520, Note_on_c, 0, 79, 0
3, 59760, Control_c, 0, 64, 127
3, 59760, Note_on_c, 0, 66, 75
3, 59820, Note_on_c, 0, 66, 0
3, 59820, Note_on_c, 0, 69, 75
3, 59880, Note_on_c, 0, 69, 0
3, 59880, Note_on_c, 0, 72, 75
3, 59940, Note_on_c, 0, 72, 0
3, 59940, Note_on_c, 0, 78, 75
3, 60000, Note_on_c, 0, 78, 0
3, 60240, Note_on_c, 0, 64, 75
3, 60300, Note_on_c, 0, 64, 0
3, 60300, Note_on_c, 0, 69, 75
3, 60360, Note_on_c, 0, 69, 0
3, 60360, Note_on_c, 0, 72, 75
3, 60420, Note_on_c, 0, 72, 0
3, 60420, Control_c, 0, 64, 0
3, 60420, Note_on_c, 0, 76, 75
3, 60480, Note_on_c, 0, 76, 0
3, 60720, Control_c, 0, 64, 127
3, 60720, Note_on_c, 0, 71, 75
3, 60780, Note_on_c, 0, 71, 0
3, 60780, Note_on_c, 0, 75, 75
3, 60840, Note_on_c, 0, 75, 0
3, 60840, Note_on_c, 0, 76, 75
3, 60900, Note_on_c, 0, 76, 0
3, 60900, Note_on_c, 0, 79, 75
3, 60960, Note_on_c, 0, 79, 0
3, 61200, Note_on_c, 0, 69, 75
3, 61260, Note_on_c, 0, 69, 0
3, 61260, Note_on_c, 0, 71, 75
3, 61320, Note_on_c, 0, 71, 0
3, 61320, Note_on_c, 0, 75, 75
3, 61380, Note_on_c, 0, 75, 0
3, 61380, Control_c, 0, 64, 0
3, 61380, Note_on_c, 0, 78, 75
3, 61440, Note_on_c, 0, 78, 0
3, 61680, Control_c, 0, 64, 127
3, 61680, Note_on_c, 0, 67, 75
3, 61740, Note_on_c, 0, 67, 0
3, 61740, Note_on_c, 0, 71, 75
3, 61800, Note_on_c, 0, 71, 0
3, 61800, Note_on_c, 0, 75, 75
3, 61860, Note_on_c, 0, 75, 0
3, 61860, Note_on_c, 0, 76, 75
3, 61920, Note_on_c, 0, 76, 0
3, 62160, Note_on_c, 0, 64, 75
3, 62220, Note_on_c, 0, 64, 0
3, 62220, Note_on_c, 0, 68, 75
3, 62280, Note_on_c, 0, 68, 0
3, 62280, Note_on_c, 0, 71, 75
3, 62340, Note_on_c, 0, 71, 0
3, 62340, Control_c, 0, 64, 0
3, 62340, Note_on_c, 0, 76, 75
3, 62400, Note_on_c, 0, 76, 0
3, 62640, Control_c, 0, 64, 127
3, 62640, Note_on_c, 0, 72, 75
3, 62700, Note_on_c, 0, 72, 0
3, 62700, Note_on_c, 0, 76, 75
3, 62760, Note_on_c, 0, 76, 0
3, 62760, Note_on_c, 0, 80, 75
3, 62820, Note_on_c, 0, 80, 0
3, 62820, Note_on_c, 0, 81, 75
3, 62880, Note_on_c, 0, 81, 0
3, 63120, Note_on_c, 0, 72, 75
3, 63180, Note_on_c, 0, 72, 0
3, 63180, Note_on_c, 0, 76, 75
3, 63240, Note_on_c, 0, 76, 0
3, 63240, Note_on_c, 0, 81, 75
3, 63300, Note_on_c, 0, 81, 0
3, 63300, Control_c, 0, 64, 0
3, 63300, Note_on_c, 0, 84, 75
3, 63360, Note_on_c, 0, 84, 0
3, 63600, Control_c, 0, 64, 127
3, 63600, Note_on_c, 0, 76, 75
3, 63660, Note_on_c, 0, 76, 0
3, 63660, Note_on_c, 0, 79, 75
3, 63720, Note_on_c, 0, 79, 0
3, 63720, Note_on_c, 0, 83, 75
3, 63780, Note_on_c, 0, 83, 0
3, 63780, Note_on_c, 0, 88, 75
3, 63840, Note_on_c, 0, 88, 0
3, 64080, Note_on_c, 0, 64, 75
3, 64140, Note_on_c, 0, 64, 0
3, 64140, Note_on_c, 0, 68, 75
3, 64200, Note_on_c, 0, 68, 0
3, 64200, Note_on_c, 0, 71, 75
3, 64260, Note_on_c, 0, 71, 0
3, 64260, Control_c, 0, 64, 0
3, 64260, Note_on_c, 0, 76, 75
3, 64320, Note_on_c, 0, 76, 0
3, 64560, Control_c, 0, 64, 127
3, 64560, Note_on_c, 0, 72, 75
3, 64620, Note_on_c, 0, 72, 0
3, 64620, Note_on_c, 0, 76, 75
3, 64680, Note_on_c, 0, 76, 0
3, 64680, Note_on_c, 0, 80, 75
3, 64740, Note_on_c, 0, 80, 0
3, 64740, Note_on_c, 0, 81, 75
3, 64800, Note_on_c, 0, 81, 0
3, 65040, Note_on_c, 0, 72, 75
3, 65100, Note_on_c, 0, 72, 0
3, 65100, Note_on_c, 0, 76, 75
3, 65160, Note_on_c, 0, 76, 0
3, 65160, Note_on_c, 0, 81, 75
3, 65220, Note_on_c, 0, 81, 0
3, 65220, Control_c, 0, 64, 0
3, 65220, Note_on_c, 0, 84, 75
3, 65280, Note_on_c, 0, 84, 0
3, 65520, Control_c, 0, 64, 127
3, 65520, Note_on_c, 0, 76, 75
3, 65580, Note_on_c, 0, 76, 0
3, 65580, Note_on_c, 0, 79, 75
3, 65640, Note_on_c, 0, 79, 0
3, 65640, Note_on_c, 0, 83, 75
3, 65700, Note_on_c, 0, 83, 0
3, 65700, Note_on_c, 0, 88, 75
3, 65760, Note_on_c, 0, 88, 0
3, 66000, Note_on_c, 0, 66, 75
3, 66060, Note_on_c, 0, 66, 0
3, 66060, Note_on_c, 0, 69, 75
3, 66120, Note_on_c, 0, 69, 0
3, 66120, Note_on_c, 0, 71, 75
3, 66180, Note_on_c, 0, 71, 0
3, 66180, Control_c, 0, 64, 0
3, 66180, Note_on_c, 0, 78, 75
3, 66240, Note_on_c, 0, 78, 0
3, 66480, Control_c, 0, 64, 127
3, 66480, Note_on_c, 0, 68, 75
3, 66540, Note_on_c, 0, 68, 0
3, 66540, Note_on_c, 0, 71, 75
3, 66600, Note_on_c, 0, 71, 0
3, 66600, Note_on_c, 0, 76, 75
3, 66660, Note_on_c, 0, 76, 0
3, 66660, Note_on_c, 0, 80, 75
3, 66720, Note_on_c, 0, 80, 0
3, 66960, Note_on_c, 0, 71, 75
3, 67020, Note_on_c, 0, 71, 0
3, 67020, Note_on_c, 0, 74, 75
3, 67080, Note_on_c, 0, 74, 0
3, 67080, Note_on_c, 0, 80, 75
3, 67140, Note_on_c, 0, 80, 0
3, 67140, Control_c, 0, 64, 0
3, 67140, Note_on_c, 0, 83, 75
3, 67200, Note_on_c, 0, 83, 0
3, 67440, Control_c, 0, 64, 127
3, 67440, Note_on_c, 0, 73, 75
3, 67500, Note_on_c, 0, 73, 0
3, 67500, Note_on_c, 0, 76, 75
3, 67560, Note_on_c, 0, 76, 0
3, 67560, Note_on_c, 0, 81, 75
3, 67620, Note_on_c, 0, 81, 0
3, 67620, Note_on_c, 0, 85, 75
3, 67680, Note_on_c, 0, 85, 0
3, 67920, Note_on_c, 0, 76, 75
3, 67980, Note_on_c, 0, 76, 0
3, 67980, Note_on_c, 0, 79, 75
3, 68040, Note_on_c, 0, 79, 0
3, 68040, Note_on_c, 0, 83, 75
3, 68100, Note_on_c, 0, 83, 0
3, 68100, Control_c, 0, 64, 0
3, 68100, Note_on_c, 0, 88, 75
3, 68160, Note_on_c, 0, 88, 0
3, 68400, Control_c, 0, 64, 127
3, 68400, Note_on_c, 0, 78, 75
3, 68460, Note_on_c, 0, 78, 0
3, 68460, Note_on_c, 0, 81, 75
3, 68520, Note_on_c, 0, 81, 0
3, 68520, Note_on_c, 0, 84, 75
3, 68580, Note_on_c, 0, 84, 0
3, 68580, Note_on_c, 0, 88, 75
3, 68640, Note_on_c, 0, 88, 0
3, 68880, Note_on_c, 0, 78, 75
3, 68940, Note_on_c, 0, 78, 0
3, 68940, Note_on_c, 0, 81, 75
3, 69000, Note_on_c, 0, 81, 0
3, 69000, Note_on_c, 0, 83, 75
3, 69060, Note_on_c, 0, 83, 0
3, 69060, Control_c, 0, 64, 0
3, 69060, Note_on_c, 0, 87, 75
3, 69120, Note_on_c, 0, 87, 0
3, 69360, Control_c, 0, 64, 127
3, 69360, Note_on_c, 0, 79, 75
3, 69420, Note_on_c, 0, 79, 0
3, 69420, Note_on_c, 0, 83, 75
3, 69480, Note_on_c, 0, 83, 0
3, 69480, Note_on_c, 0, 87, 75
3, 69540, Note_on_c, 0, 87, 0
3, 69540, Note_on_c, 0, 88, 75
3, 69600, Note_on_c, 0, 88, 0
3, 69840, Note_on_c, 0, 64, 75
3, 69900, Note_on_c, 0, 64, 0
3, 69900, Note_on_c, 0, 68, 75
3, 69960, Note_on_c, 0, 68, 0
3, 69960, Note_on_c, 0, 71, 75
3, 70020, Note_on_c, 0, 71, 0
3, 70020, Control_c, 0, 64, 0
3, 70020, Note_on_c, 0, 76, 75
3, 70080, Note_on_c, 0, 76, 0
3, 70320, Control_c, 0, 64, 127
3, 70320, Note_on_c, 0, 72, 75
3, 70380, Note_on_c, 0, 72, 0
3, 70380, Note_on_c, 0, 76, 75
3, 70440, Note_on_c, 0, 76, 0
3, 70440, Note_on_c, 0, 80, 75
3, 70500, Note_on_c, 0, 80, 0
3, 70500, Note_on_c, 0, 81, 75
3, 70560, Note_on_c, 0, 81, 0
3, 70800, Note_on_c, 0, 72, 75
3, 70860, Note_on_c, 0, 72, 0
3, 70860, Note_on_c, 0, 78, 75
3, 70920, Note_on_c, 0, 78, 0
3, 70920, Note_on_c, 0, 81, 75
3, 70980, Note_on_c, 0, 81, 0
3, 70980, Control_c, 0, 64, 0
3, 70980, Note_on_c, 0, 84, 75
3, 71040, Note_on_c, 0, 84, 0
3, 71280, Control_c, 0, 64, 127
3, 71280, Note_on_c, 0, 76, 75
3, 71340, Note_on_c, 0, 76, 0
3, 71340, Note_on_c, 0, 80, 75
3, 71400, Note_on_c, 0, 80, 0
3, 71400, Note_on_c, 0, 83, 75
3, 71460, Note_on_c, 0, 83, 0
3, 71460, Note_on_c, 0, 88, 75
3, 71520, Note_on_c, 0, 88, 0
3, 71760, Note_on_c, 0, 64, 75
3, 71820, Note_on_c, 0, 64, 0
3, 71820, Note_on_c, 0, 68, 75
3, 71880, Note_on_c, 0, 68, 0
3, 71880, Note_on_c, 0, 71, 75
3, 71940, Note_on_c, 0, 71, 0
3, 71940, Control_c, 0, 64, 0
3, 71940, Note_on_c, 0, 76, 75
3, 72000, Note_on_c, 0, 76, 0
3, 72240, Control_c, 0, 64, 127
3, 72240, Note_on_c, 0, 72, 75
3, 72300, Note_on_c, 0, 72, 0
3, 72300, Note_on_c, 0, 76, 75
3, 72360, Note_on_c, 0, 76, 0
3, 72360, Note_on_c, 0, 80, 75
3, 72420, Note_on_c, 0, 80, 0
3, 72420, Note_on_c, 0, 81, 75
3, 72480, Note_on_c, 0, 81, 0
3, 72720, Note_on_c, 0, 72, 75
3, 72780, Note_on_c, 0, 72, 0
3, 72780, Note_on_c, 0, 78, 75
3, 72840, Note_on_c, 0, 78, 0
3, 72840, Note_on_c, 0, 81, 75
3, 72900, Note_on_c, 0, 81, 0
3, 72900, Control_c, 0, 64, 0
3, 72900, Note_on_c, 0, 84, 75
3, 72960, Note_on_c, 0, 84, 0
3, 73200, Control_c, 0, 64, 127
3, 73200, Note_on_c, 0, 63, 75
3, 73260, Note_on_c, 0, 63, 0
3, 73260, Note_on_c, 0, 66, 75
3, 73320, Note_on_c, 0, 66, 0
3, 73320, Note_on_c, 0, 69, 75
3, 73380, Note_on_c, 0, 69, 0
3, 73380, Note_on_c, 0, 75, 75
3, 73440, Note_on_c, 0, 75, 0
3, 73680, Note_on_c, 0, 66, 75
3, 73740, Note_on_c, 0, 66, 0
3, 73740, Note_on_c, 0, 69, 75
3, 73800, Note_on_c, 0, 69, 0
3, 73800, Note_on_c, 0, 71, 75
3, 73860, Note_on_c, 0, 71, 0
3, 73860, Control_c, 0, 64, 0
3, 73860, Note_on_c, 0, 78, 75
3, 73920, Note_on_c, 0, 78, 0
3, 74160, Control_c, 0, 64, 127
3, 74160, Note_on_c, 0, 68, 75
3, 74220, Note_on_c, 0, 68, 0
3, 74220, Note_on_c, 0, 71, 75
3, 74280, Note_on_c, 0, 71, 0
3, 74280, Note_on_c, 0, 76, 75
3, 74340, Note_on_c, 0, 76, 0
3, 74340, Note_on_c, 0, 80, 75
3, 74400, Note_on_c, 0, 80, 0
3, 74640, Note_on_c, 0, 71, 75
3, 74700, Note_on_c, 0, 71, 0
3, 74700, Note_on_c, 0, 74, 75
3, 74760, Note_on_c, 0, 74, 0
3, 74760, Note_on_c, 0, 80, 75
3, 74820, Note_on_c, 0, 80, 0
3, 74820, Control_c, 0, 64, 0
3, 74820, Note_on_c, 0, 83, 75
3, 74880, Note_on_c, 0, 83, 0
3, 75120, Control_c, 0, 64, 127
3, 75120, Note_on_c, 0, 73, 75
3, 75180, Note_on_c, 0, 73, 0
3, 75180, Note_on_c, 0, 76, 75
3, 75240, Note_on_c, 0, 76, 0
3, 75240, Note_on_c, 0, 81, 75
3, 75300, Note_on_c, 0, 81, 0
3, 75300, Note_on_c, 0, 85, 75
3, 75360, Note_on_c, 0, 85, 0
3, 75600, Note_on_c, 0, 76, 75
3, 75660, Note_on_c, 0, 76, 0
3, 75660, Note_on_c, 0, 79, 75
3, 75720, Note_on_c, 0, 79, 0
3, 75720, Note_on_c, 0, 83, 75
3, 75780, Note_on_c, 0, 83, 0
3, 75780, Control_c, 0, 64, 0
3, 75780, Note_on_c, 0, 88, 75
3, 75840, Note_on_c, 0, 88, 0
3, 76080, Control_c, 0, 64, 127
3, 76080, Note_on_c, 0, 78, 75
3, 76140, Note_on_c, 0, 78, 0
3, 76140, Note_on_c, 0, 81, 75
3, 76200, Note_on_c, 0, 81, 0
3, 76200, Note_on_c, 0, 84, 75
3, 76260, Note_on_c, 0, 84, 0
3, 76260, Note_on_c, 0, 88, 75
3, 76320, Note_on_c, 0, 88, 0
3, 76560, Note_on_c, 0, 78, 75
3, 76620, Note_on_c, 0, 78, 0
3, 76620, Note_on_c, 0, 81, 75
3, 76680, Note_on_c, 0, 81, 0
3, 76680, Note_on_c, 0, 83, 75
3, 76740, Note_on_c, 0, 83, 0
3, 76740, Control_c, 0, 64, 0
3, 76740, Note_on_c, 0, 87, 75
3, 76800, Note_on_c, 0, 87, 0
3, 77040, Control_c, 0, 64, 127
3, 77040, Note_on_c, 0, 79, 75
3, 77100, Note_on_c, 0, 79, 0
3, 77100, Note_on_c, 0, 83, 75
3, 77160, Note_on_c, 0, 83, 0
3, 77160, Note_on_c, 0, 87, 75
3, 77220, Note_on_c, 0, 87, 0
3, 77220, Note_on_c, 0, 88, 75
3, 77280, Note_on_c, 0, 88, 0
3, 77520, Note_on_c, 0, 52, 75
3, 77580, Note_on_c, 0, 52, 0
3, 77580, Note_on_c, 0, 55, 75
3, 77640, Note_on_c, 0, 55, 0
3, 77640, Note_on_c, 0, 59, 75
3, 77700, Note_on_c, 0, 59, 0
3, 77700, Control_c, 0, 64, 0
3, 77700, Note_on_c, 0, 64, 75
3, 77760, Note_on_c, 0, 64, 0
3, 78000, Control_c, 0, 64, 127
3, 78000, Note_on_c, 0, 59, 75
3, 78060, Note_on_c, 0, 59, 0
3, 78060, Note_on_c, 0, 64, 75
3, 78120, Note_on_c, 0, 64, 0
3, 78120, Note_on_c, 0, 67, 75
3, 78180, Note_on_c, 0, 67, 0
3, 78180, Note_on_c, 0, 71, 75
3, 78240, Note_on_c, 0, 71, 0
3, 78480, Note_on_c, 0, 64, 75
3, 78540, Note_on_c, 0, 64, 0
3, 78540, Note_on_c, 0, 67, 75
3, 78600, Note_on_c, 0, 67, 0
3, 78600, Note_on_c, 0, 71, 75
3, 78660, Note_on_c, 0, 71, 0
3, 78660, Control_c, 0, 64, 0
3, 78660, Note_on_c, 0, 76, 75
3, 78720, Note_on_c, 0, 76, 0
3, 78960, Control_c, 0, 64, 127
3, 78960, Note_on_c, 0, 67, 75
3, 79020, Note_on_c, 0, 67, 0
3, 79020, Note_on_c, 0, 71, 75
3, 79080, Note_on_c, 0, 71, 0
3, 79080, Note_on_c, 0, 76, 75
3, 79140, Note_on_c, 0, 76, 0
3, 79140, Note_on_c, 0, 79, 75
3, 79200, Note_on_c, 0, 79, 0
3, 79440, Note_on_c, 0, 55, 75
3, 79500, Note_on_c, 0, 55, 0
3, 79500, Note_on_c, 0, 59, 75
3, 79560, Note_on_c, 0, 59, 0
3, 79560, Note_on_c, 0, 64, 75
3, 79620, Note_on_c, 0, 64, 0
3, 79620, Note_on_c, 0, 67, 75
3, 79680, Note_on_c, 0, 67, 0
3, 79920, Note_on_c, 0, 64, 75
3, 79980, Note_on_c, 0, 64, 0
3, 79980, Note_on_c, 0, 67, 75
3, 80040, Note_on_c, 0, 67, 0
3, 80040, Note_on_c, 0, 71, 75
3, 80100, Note_on_c, 0, 71, 0
3, 80100, Note_on_c, 0, 76, 75
3, 80160, Note_on_c, 0, 76, 0
3, 80400, Note_on_c, 0, 67, 75
3, 80460, Note_on_c, 0, 67, 0
3, 80460, Note_on_c, 0, 71, 75
3, 80520, Note_on_c, 0, 71, 0
3, 80520, Note_on_c, 0, 76, 75
3, 80580, Note_on_c, 0, 76, 0
3, 80580, Note_on_c, 0, 79, 75
3, 80640, Note_on_c, 0, 79, 0
3, 80880, Note_on_c, 0, 71, 75
3, 80940, Note_on_c, 0, 71, 0
3, 80940, Note_on_c, 0, 76, 75
3, 81000, Note_on_c, 0, 76, 0
3, 81000, Note_on_c, 0, 79, 75
3, 81060, Note_on_c, 0, 79, 0
3, 81060, Note_on_c, 0, 83, 75
3, 81120, Note_on_c, 0, 83, 0
3, 81360, Note_on_c, 0, 64, 75
3, 81420, Note_on_c, 0, 64, 0
3, 81420, Note_on_c, 0, 67, 75
3, 81480, Note_on_c, 0, 67, 0
3, 81480, Note_on_c, 0, 71, 75
3, 81540, Note_on_c, 0, 71, 0
3, 81540, Note_on_c, 0, 76, 75
3, 81600, Note_on_c, 0, 76, 0
3, 81840, Note_on_c, 0, 71, 88
3, 81900, Note_on_c, 0, 71, 0
3, 81900, Note_on_c, 0, 76, 88
3, 81960, Note_on_c, 0, 76, 0
3, 81960, Note_on_c, 0, 79, 88
3, 82020, Note_on_c, 0, 79, 0
3, 82020, Note_on_c, 0, 83, 88
3, 82080, Note_on_c, 0, 83, 0
3, 82320, Note_on_c, 0, 76, 88
3, 82380, Note_on_c, 0, 76, 0
3, 82380, Note_on_c, 0, 79, 88
3, 82440, Note_on_c, 0, 79, 0
3, 82440, Note_on_c, 0, 83, 88
3, 82500, Note_on_c, 0, 83, 0
3, 82500, Note_on_c, 0, 88, 88
3, 82560, Note_on_c, 0, 88, 0
3, 82800, Note_on_c, 0, 67, 88
3, 82860, Note_on_c, 0, 67, 0
3, 82860, Note_on_c, 0, 71, 88
3, 82920, Note_on_c, 0, 71, 0
3, 82920, Note_on_c, 0, 76, 88
3, 82980, Note_on_c, 0, 76, 0
3, 82980, Note_on_c, 0, 79, 88
3, 83040, Note_on_c, 0, 79, 0
3, 83280, Note_on_c, 0, 83, 88
3, 83340, Note_on_c, 0, 83, 0
3, 83340, Note_on_c, 0, 88, 88
3, 83400, Note_on_c, 0, 88, 0
3, 83400, Note_on_c, 0, 91, 88
3, 83460, Note_on_c, 0, 91, 0
3, 83460, Note_on_c, 0, 95, 88
3, 83520, Note_on_c, 0, 95, 0
3, 83520, End_track
4, 0, Start_track
4, 0, Title_t, "Instrument18"
4, 0, Program_c, 0, 0
4, 0, Control_c, 0, 7, 115
4, 0, Control_c, 0, 10, 48
4, 0, Control_c, 0, 64, 127
4, 0, Note_on_c, 0, 40, 75
4, 60, Note_on_c, 0, 40, 0
4, 60, Note_on_c, 0, 43, 75
4, 120, Note_on_c, 0, 43, 0
4, 120, Note_on_c, 0, 47, 75
4, 180, Note_on_c, 0, 47, 0
4, 180, Note_on_c, 0, 52, 75
4, 240, Note_on_c, 0, 52, 0
4, 480, Note_on_c, 0, 52, 75
4, 540, Note_on_c, 0, 52, 0
4, 540, Note_on_c, 0, 55, 75
4, 600, Note_on_c, 0, 55, 0
4, 600, Note_on_c, 0, 59, 75
4, 660, Note_on_c, 0, 59, 0
4, 660, Note_on_c, 0, 64, 75
4, 720, Note_on_c, 0, 64, 0
4, 960, Note_on_c, 0, 47, 75
4, 1020, Note_on_c, 0, 47, 0
4, 1020, Note_on_c, 0, 52, 75
4, 1080, Note_on_c, 0, 52, 0
4, 1080, Note_on_c, 0, 55, 75
4, 1140, Note_on_c, 0, 55, 0
4, 1140, Note_on_c, 0, 59, 75
4, 1200, Note_on_c, 0, 59, 0
4, 1440, Note_on_c, 0, 43, 75
4, 1500, Note_on_c, 0, 43, 0
4, 1500, Note_on_c, 0, 47, 75
4, 1560, Note_on_c, 0, 47, 0
4, 1560, Note_on_c, 0, 52, 75
4, 1620, Note_on_c, 0, 52, 0
4, 1620, Note_on_c, 0, 55, 75
4, 1680, Note_on_c, 0, 55, 0
4, 1680, Control_c, 0, 64, 0
4, 1920, Control_c, 0, 64, 127
4, 1920, Note_on_c, 0, 40, 75
4, 1980, Note_on_c, 0, 40, 0
4, 1980, Note_on_c, 0, 43, 75
4, 2040, Note_on_c, 0, 43, 0
4, 2040, Note_on_c, 0, 47, 75
4, 2100, Note_on_c, 0, 47, 0
4, 2100, Note_on_c, 0, 52, 75
4, 2160, Note_on_c, 0, 52, 0
4, 2400, Note_on_c, 0, 52, 75
4, 2460, Note_on_c, 0, 52, 0
4, 2460, Note_on_c, 0, 55, 75
4, 2520, Note_on_c, 0, 55, 0
4, 2520, Note_on_c, 0, 59, 75
4, 2580, Note_on_c, 0, 59, 0
4, 2580, Note_on_c, 0, 64, 75
4, 2640, Note_on_c, 0, 64, 0
4, 2640, Control_c, 0, 64, 0
4, 2880, Control_c, 0, 64, 127
4, 2880, Note_on_c, 0, 40, 75
4, 2940, Note_on_c, 0, 40, 0
4, 2940, Note_on_c, 0, 42, 75
4, 3000, Note_on_c, 0, 42, 0
4, 3000, Note_on_c, 0, 45, 75
4, 3060, Note_on_c, 0, 45, 0
4, 3060, Note_on_c, 0, 51, 75
4, 3120, Note_on_c, 0, 51, 0
4, 3360, Note_on_c, 0, 52, 75
4, 3420, Note_on_c, 0, 52, 0
4, 3420, Note_on_c, 0, 54, 75
4, 3480, Note_on_c, 0, 54, 0
4, 3480, Note_on_c, 0, 57, 75
4, 3540, Note_on_c, 0, 57, 0
4, 3540, Note_on_c, 0, 63, 75
4, 3600, Note_on_c, 0, 63, 0
4, 3600, Control_c, 0, 64, 0
4, 3840, Control_c, 0, 64, 127
4, 3840, Note_on_c, 0, 40, 75
4, 3900, Note_on_c, 0, 40, 0
4, 3900, Note_on_c, 0, 43, 75
4, 3960, Note_on_c, 0, 43, 0
4, 3960, Note_on_c, 0, 47, 75
4, 4020, Note_on_c, 0, 47, 0
4, 4020, Note_on_c, 0, 52, 75
4, 4080, Note_on_c, 0, 52, 0
4, 4320, Note_on_c, 0, 52, 75
4, 4380, Note_on_c, 0, 52, 0
4, 4380, Note_on_c, 0, 55, 75
4, 4440, Note_on_c, 0, 55, 0
4, 4440, Note_on_c, 0, 60, 75
4, 4500, Note_on_c, 0, 60, 0
4, 4500, Note_on_c, 0, 64, 75
4, 4560, Note_on_c, 0, 64, 0
4, 4560, Control_c, 0, 64, 0
4, 4800, Control_c, 0, 64, 127
4, 4800, Note_on_c, 0, 51, 75
4, 4860, Note_on_c, 0, 51, 0
4, 4860, Note_on_c, 0, 57, 75
4, 4920, Note_on_c, 0, 57, 0
4, 4920, Note_on_c, 0, 60, 75
4, 4980, Note_on_c, 0, 60, 0
4, 4980, Note_on_c, 0, 66, 75
4, 5040, Note_on_c, 0, 66, 0
4, 5280, Note_on_c, 0, 51, 75
4, 5340, Note_on_c, 0, 51, 0
4, 5340, Note_on_c, 0, 54, 75
4, 5400, Note_on_c, 0, 54, 0
4, 5400, Note_on_c, 0, 57, 75
4, 5460, Note_on_c, 0, 57, 0
4, 5460, Note_on_c, 0, 59, 75
4, 5520, Note_on_c, 0, 59, 0
4, 5520, Control_c, 0, 64, 0
4, 5760, Control_c, 0, 64, 127
4, 5760, Note_on_c, 0, 38, 75
4, 5820, Note_on_c, 0, 38, 0
4, 5820, Note_on_c, 0, 44, 75
4, 5880, Note_on_c, 0, 44, 0
4, 5880, Note_on_c, 0, 47, 75
4, 5940, Note_on_c, 0, 47, 0
4, 5940, Note_on_c, 0, 50, 75
4, 6000, Note_on_c, 0, 50, 0
4, 6240, Note_on_c, 0, 50, 75
4, 6300, Note_on_c, 0, 50, 0
4, 6300, Note_on_c, 0, 56, 75
4, 6360, Note_on_c, 0, 56, 0
4, 6360, Note_on_c, 0, 59, 75
4, 6420, Note_on_c, 0, 59, 0
4, 6420, Note_on_c, 0, 65, 75
4, 6480, Note_on_c, 0, 65, 0
4, 6720, Note_on_c, 0, 49, 75
4, 6780, Note_on_c, 0, 49, 0
4, 6780, Note_on_c, 0, 56, 75
4, 6840, Note_on_c, 0, 56, 0
4, 6840, Note_on_c, 0, 59, 75
4, 6900, Note_on_c, 0, 59, 0
4, 6900, Note_on_c, 0, 64, 75
4, 6960, Note_on_c, 0, 64, 0
4, 7200, Note_on_c, 0, 49, 75
4, 7260, Note_on_c, 0, 49, 0
4, 7260, Note_on_c, 0, 52, 75
4, 7320, Note_on_c, 0, 52, 0
4, 7320, Note_on_c, 0, 57, 75
4, 7380, Note_on_c, 0, 57, 0
4, 7380, Note_on_c, 0, 61, 75
4, 7440, Note_on_c, 0, 61, 0
4, 7440, Control_c, 0, 64, 0
4, 7680, Control_c, 0, 64, 127
4, 7680, Note_on_c, 0, 48, 75
4, 7740, Note_on_c, 0, 48, 0
4, 7740, Note_on_c, 0, 52, 75
4, 7800, Note_on_c, 0, 52, 0
4, 7800, Note_on_c, 0, 57, 75
4, 7860, Note_on_c, 0, 57, 0
4, 7860, Note_on_c, 0, 60, 75
4, 7920, Note_on_c, 0, 60, 0
4, 8160, Note_on_c, 0, 45, 75
4, 8220, Note_on_c, 0, 45, 0
4, 8220, Note_on_c, 0, 48, 75
4, 8280, Note_on_c, 0, 48, 0
4, 8280, Note_on_c, 0, 54, 75
4, 8340, Note_on_c, 0, 54, 0
4, 8340, Note_on_c, 0, 57, 75
4, 8400, Note_on_c, 0, 57, 0
4, 8640, Note_on_c, 0, 47, 75
4, 8700, Note_on_c, 0, 47, 0
4, 8700, Note_on_c, 0, 54, 75
4, 8760, Note_on_c, 0, 54, 0
4, 8760, Note_on_c, 0, 57, 75
4, 8820, Note_on_c, 0, 57, 0
4, 8820, Note_on_c, 0, 59, 75
4, 8880, Note_on_c, 0, 59, 0
4, 9120, Note_on_c, 0, 39, 75
4, 9180, Note_on_c, 0, 39, 0
4, 9180, Note_on_c, 0, 42, 75
4, 9240, Note_on_c, 0, 42, 0
4, 9240, Note_on_c, 0, 45, 75
4, 9300, Note_on_c, 0, 45, 0
4, 9300, Note_on_c, 0, 47, 75
4, 9360, Note_on_c, 0, 47, 0
4, 9360, Control_c, 0, 64, 0
4, 9600, Control_c, 0, 64, 127
4, 9600, Note_on_c, 0, 40, 75
4, 9660, Note_on_c, 0, 40, 0
4, 9660, Note_on_c, 0, 43, 75
4, 9720, Note_on_c, 0, 43, 0
4, 9720, Note_on_c, 0, 47, 75
4, 9780, Note_on_c, 0, 47, 0
4, 9780, Note_on_c, 0, 52, 75
4, 9840, Note_on_c, 0, 52, 0
4, 10080, Note_on_c, 0, 52, 75
4, 10140, Note_on_c, 0, 52, 0
4, 10140, Note_on_c, 0, 55, 75
4, 10200, Note_on_c, 0, 55, 0
4, 10200, Note_on_c, 0, 59, 75
4, 10260, Note_on_c, 0, 59, 0
4, 10260, Note_on_c, 0, 64, 75
4, 10320, Note_on_c, 0, 64, 0
4, 10320, Control_c, 0, 64, 0
4, 10560, Control_c, 0, 64, 127
4, 10560, Note_on_c, 0, 40, 75
4, 10620, Note_on_c, 0, 40, 0
4, 10620, Note_on_c, 0, 42, 75
4, 10680, Note_on_c, 0, 42, 0
4, 10680, Note_on_c, 0, 45, 75
4, 10740, Note_on_c, 0, 45, 0
4, 10740, Note_on_c, 0, 51, 75
4, 10800, Note_on_c, 0, 51, 0
4, 11040, Note_on_c, 0, 52, 75
4, 11100, Note_on_c, 0, 52, 0
4, 11100, Note_on_c, 0, 54, 75
4, 11160, Note_on_c, 0, 54, 0
4, 11160, Note_on_c, 0, 57, 75
4, 11220, Note_on_c, 0, 57, 0
4, 11220, Note_on_c, 0, 63, 75
4, 11280, Note_on_c, 0, 63, 0
4, 11280, Control_c, 0, 64, 0
4, 11520, Control_c, 0, 64, 127
4, 11520, Note_on_c, 0, 40, 75
4, 11580, Note_on_c, 0, 40, 0
4, 11580, Note_on_c, 0, 43, 75
4, 11640, Note_on_c, 0, 43, 0
4, 11640, Note_on_c, 0, 47, 75
4, 11700, Note_on_c, 0, 47, 0
4, 11700, Note_on_c, 0, 52, 75
4, 11760, Note_on_c, 0, 52, 0
4, 12000, Note_on_c, 0, 52, 75
4, 12060, Note_on_c, 0, 52, 0
4, 12060, Note_on_c, 0, 55, 75
4, 12120, Note_on_c, 0, 55, 0
4, 12120, Note_on_c, 0, 59, 75
4, 12180, Note_on_c, 0, 59, 0
4, 12180, Note_on_c, 0, 64, 75
4, 12240, Note_on_c, 0, 64, 0
4, 12240, Control_c, 0, 64, 0
4, 12480, Control_c, 0, 64, 127
4, 12480, Note_on_c, 0, 40, 75
4, 12540, Note_on_c, 0, 40, 0
4, 12540, Note_on_c, 0, 42, 75
4, 12600, Note_on_c, 0, 42, 0
4, 12600, Note_on_c, 0, 45, 75
4, 12660, Note_on_c, 0, 45, 0
4, 12660, Note_on_c, 0, 51, 75
4, 12720, Note_on_c, 0, 51, 0
4, 12960, Note_on_c, 0, 52, 75
4, 13020, Note_on_c, 0, 52, 0
4, 13020, Note_on_c, 0, 54, 75
4, 13080, Note_on_c, 0, 54, 0
4, 13080, Note_on_c, 0, 57, 75
4, 13140, Note_on_c, 0, 57, 0
4, 13140, Note_on_c, 0, 63, 75
4, 13200, Note_on_c, 0, 63, 0
4, 13200, Control_c, 0, 64, 0
4, 13440, Control_c, 0, 64, 127
4, 13440, Note_on_c, 0, 40, 75
4, 13500, Note_on_c, 0, 40, 0
4, 13500, Note_on_c, 0, 43, 75
4, 13560, Note_on_c, 0, 43, 0
4, 13560, Note_on_c, 0, 47, 75
4, 13620, Note_on_c, 0, 47, 0
4, 13620, Note_on_c, 0, 52, 75
4, 13680, Note_on_c, 0, 52, 0
4, 13920, Note_on_c, 0, 52, 75
4, 13980, Note_on_c, 0, 52, 0
4, 13980, Note_on_c, 0, 59, 75
4, 14040, Note_on_c, 0, 59, 0
4, 14040, Note_on_c, 0, 62, 75
4, 14100, Note_on_c, 0, 62, 0
4, 14100, Note_on_c, 0, 67, 75
4, 14160, Note_on_c, 0, 67, 0
4, 14160, Control_c, 0, 64, 0
4, 14400, Control_c, 0, 64, 127
4, 14400, Note_on_c, 0, 52, 75
4, 14460, Note_on_c, 0, 52, 0
4, 14460, Note_on_c, 0, 59, 75
4, 14520, Note_on_c, 0, 59, 0
4, 14520, Note_on_c, 0, 62, 75
4, 14580, Note_on_c, 0, 62, 0
4, 14580, Note_on_c, 0, 67, 75
4, 14640, Note_on_c, 0, 67, 0
4, 14880, Note_on_c, 0, 52, 75
4, 14940, Note_on_c, 0, 52, 0
4, 14940, Note_on_c, 0, 59, 75
4, 15000, Note_on_c, 0, 59, 0
4, 15000, Note_on_c, 0, 61, 75
4, 15060, Note_on_c, 0, 61, 0
4, 15060, Note_on_c, 0, 67, 75
4, 15120, Note_on_c, 0, 67, 0
4, 15120, Control_c, 0, 64, 0
4, 15360, Control_c, 0, 64, 127
4, 15360, Note_on_c, 0, 54, 75
4, 15420, Note_on_c, 0, 54, 0
4, 15420, Note_on_c, 0, 58, 75
4, 15480, Note_on_c, 0, 58, 0
4, 15480, Note_on_c, 0, 61, 75
4, 15540, Note_on_c, 0, 61, 0
4, 15540, Note_on_c, 0, 64, 75
4, 15600, Note_on_c, 0, 64, 0
4, 15840, Note_on_c, 0, 42, 75
4, 15900, Note_on_c, 0, 42, 0
4, 15900, Note_on_c, 0, 46, 75
4, 15960, Note_on_c, 0, 46, 0
4, 15960, Note_on_c, 0, 49, 75
4, 16020, Note_on_c, 0, 49, 0
4, 16020, Note_on_c, 0, 52, 75
4, 16080, Note_on_c, 0, 52, 0
4, 16080, Control_c, 0, 64, 0
4, 16320, Control_c, 0, 64, 127
4, 16320, Note_on_c, 0, 42, 75
4, 16380, Note_on_c, 0, 42, 0
4, 16380, Note_on_c, 0, 47, 75
4, 16440, Note_on_c, 0, 47, 0
4, 16440, Note_on_c, 0, 50, 75
4, 16500, Note_on_c, 0, 50, 0
4, 16500, Note_on_c, 0, 54, 75
4, 16560, Note_on_c, 0, 54, 0
4, 16800, Note_on_c, 0, 54, 75
4, 16860, Note_on_c, 0, 54, 0
4, 16860, Note_on_c, 0, 59, 75
4, 16920, Note_on_c, 0, 59, 0
4, 16920, Note_on_c, 0, 62, 75
4, 16980, Note_on_c, 0, 62, 0
4, 16980, Note_on_c, 0, 66, 75
4, 17040, Note_on_c, 0, 66, 0
4, 17040, Control_c, 0, 64, 0
4, 17280, Control_c, 0, 64, 127
4, 17280, Note_on_c, 0, 54, 75
4, 17340, Note_on_c, 0, 54, 0
4, 17340, Note_on_c, 0, 58, 75
4, 17400, Note_on_c, 0, 58, 0
4, 17400, Note_on_c, 0, 61, 75
4, 17460, Note_on_c, 0, 61, 0
4, 17460, Note_on_c, 0, 64, 75
4, 17520, Note_on_c, 0, 64, 0
4, 17760, Note_on_c, 0, 42, 75
4, 17820, Note_on_c, 0, 42, 0
4, 17820, Note_on_c, 0, 46, 75
4, 17880, Note_on_c, 0, 46, 0
4, 17880, Note_on_c, 0, 49, 75
4, 17940, Note_on_c, 0, 49, 0
4, 17940, Note_on_c, 0, 52, 75
4, 18000, Note_on_c, 0, 52, 0
4, 18000, Control_c, 0, 64, 0
4, 18240, Control_c, 0, 64, 127
4, 18240, Note_on_c, 0, 42, 62
4, 18300, Note_on_c, 0, 42, 0
4, 18300, Note_on_c, 0, 47, 62
4, 18360, Note_on_c, 0, 47, 0
4, 18360, Note_on_c, 0, 50, 62
4, 18420, Note_on_c, 0, 50, 0
4, 18420, Note_on_c, 0, 54, 62
4, 18480, Note_on_c, 0, 54, 0
4, 18720, Note_on_c, 0, 54, 62
4, 18780, Note_on_c, 0, 54, 0
4, 18780, Note_on_c, 0, 59, 62
4, 18840, Note_on_c, 0, 59, 0
4, 18840, Note_on_c, 0, 62, 62
4, 18900, Note_on_c, 0, 62, 0
4, 18900, Note_on_c, 0, 66, 62
4, 18960, Note_on_c, 0, 66, 0
4, 18960, Control_c, 0, 64, 0
4, 19200, Control_c, 0, 64, 127
4, 19200, Note_on_c, 0, 55, 75
4, 19260, Note_on_c, 0, 55, 0
4, 19260, Note_on_c, 0, 59, 75
4, 19320, Note_on_c, 0, 59, 0
4, 19320, Note_on_c, 0, 64, 75
4, 19380, Note_on_c, 0, 64, 0
4, 19380, Note_on_c, 0, 67, 75
4, 19440, Note_on_c, 0, 67, 0
4, 19680, Note_on_c, 0, 54, 75
4, 19740, Note_on_c, 0, 54, 0
4, 19740, Note_on_c, 0, 59, 75
4, 19800, Note_on_c, 0, 59, 0
4, 19800, Note_on_c, 0, 62, 75
4, 19860, Note_on_c, 0, 62, 0
4, 19860, Note_on_c, 0, 66, 75
4, 19920, Note_on_c, 0, 66, 0
4, 19920, Control_c, 0, 64, 0
4, 20160, Control_c, 0, 64, 127
4, 20160, Note_on_c, 0, 52, 75
4, 20220, Note_on_c, 0, 52, 0
4, 20220, Note_on_c, 0, 55, 75
4, 20280, Note_on_c, 0, 55, 0
4, 20280, Note_on_c, 0, 61, 75
4, 20340, Note_on_c, 0, 61, 0
4, 20340, Note_on_c, 0, 64, 75
4, 20400, Note_on_c, 0, 64, 0
4, 20640, Note_on_c, 0, 53, 75
4, 20700, Note_on_c, 0, 53, 0
4, 20700, Note_on_c, 0, 56, 75
4, 20760, Note_on_c, 0, 56, 0
4, 20760, Note_on_c, 0, 59, 75
4, 20820, Note_on_c, 0, 59, 0
4, 20820, Note_on_c, 0, 62, 75
4, 20880, Note_on_c, 0, 62, 0
4, 20880, Control_c, 0, 64, 0
4, 21120, Control_c, 0, 64, 127
4, 21120, Note_on_c, 0, 54, 75
4, 21180, Note_on_c, 0, 54, 0
4, 21180, Note_on_c, 0, 59, 75
4, 21240, Note_on_c, 0, 59, 0
4, 21240, Note_on_c, 0, 62, 75
4, 21300, Note_on_c, 0, 62, 0
4, 21300, Note_on_c, 0, 66, 75
4, 21360, Note_on_c, 0, 66, 0
4, 21600, Note_on_c, 0, 54, 75
4, 21660, Note_on_c, 0, 54, 0
4, 21660, Note_on_c, 0, 58, 75
4, 21720, Note_on_c, 0, 58, 0
4, 21720, Note_on_c, 0, 61, 75
4, 21780, Note_on_c, 0, 61, 0
4, 21780, Note_on_c, 0, 64, 75
4, 21840, Note_on_c, 0, 64, 0
4, 21840, Control_c, 0, 64, 0
4, 22080, Control_c, 0, 64, 127
4, 22080, Note_on_c, 0, 47, 75
4, 22140, Note_on_c, 0, 47, 0
4, 22140, Note_on_c, 0, 54, 75
4, 22200, Note_on_c, 0, 54, 0
4, 22200, Note_on_c, 0, 59, 75
4, 22260, Note_on_c, 0, 59, 0
4, 22260, Note_on_c, 0, 62, 75
4, 22320, Note_on_c, 0, 62, 0
4, 22560, Note_on_c, 0, 59, 49
4, 22620, Note_on_c, 0, 59, 0
4, 22620, Note_on_c, 0, 62, 49
4, 22680, Note_on_c, 0, 62, 0
4, 22680, Note_on_c, 0, 63, 49
4, 22740, Note_on_c, 0, 63, 0
4, 22740, Note_on_c, 0, 64, 49
4, 22800, Note_on_c, 0, 64, 0
4, 22800, Control_c, 0, 64, 0
4, 23040, Control_c, 0, 64, 127
4, 23040, Note_on_c, 0, 58, 49
4, 23100, Note_on_c, 0, 58, 0
4, 23100, Note_on_c, 0, 61, 49
4, 23160, Note_on_c, 0, 61, 0
4, 23160, Note_on_c, 0, 66, 49
4, 23220, Note_on_c, 0, 66, 0
4, 23220, Note_on_c, 0, 70, 49
4, 23280, Note_on_c, 0, 70, 0
4, 23520, Note_on_c, 0, 57, 49
4, 23580, Note_on_c, 0, 57, 0
4, 23580, Note_on_c, 0, 60, 49
4, 23640, Note_on_c, 0, 60, 0
4, 23640, Note_on_c, 0, 61, 49
4, 23700, Note_on_c, 0, 61, 0
4, 23700, Note_on_c, 0, 62, 49
4, 23760, Note_on_c, 0, 62, 0
4, 23760, Control_c, 0, 64, 0
4, 24000, Control_c, 0, 64, 127
4, 24000, Note_on_c, 0, 56, 49
4, 24060, Note_on_c, 0, 56, 0
4, 24060, Note_on_c, 0, 59, 49
4, 24120, Note_on_c, 0, 59, 0
4, 24120, Note_on_c, 0, 64, 49
4, 24180, Note_on_c, 0, 64, 0
4, 24180, Note_on_c, 0, 68, 49
4, 24240, Note_on_c, 0, 68, 0
4, 24480, Note_on_c, 0, 55, 49
4, 24540, Note_on_c, 0, 55, 0
4, 24540, Note_on_c, 0, 58, 49
4, 24600, Note_on_c, 0, 58, 0
4, 24600, Note_on_c, 0, 59, 49
4, 24660, Note_on_c, 0, 59, 0
4, 24660, Note_on_c, 0, 60, 49
4, 24720, Note_on_c, 0, 60, 0
4, 24720, Control_c, 0, 64, 0
4, 24960, Control_c, 0, 64, 127
4, 24960, Note_on_c, 0, 54, 49
4, 25020, Note_on_c, 0, 54, 0
4, 25020, Note_on_c, 0, 59, 49
4, 25080, Note_on_c, 0, 59, 0
4, 25080, Note_on_c, 0, 62, 49
4, 25140, Note_on_c, 0, 62, 0
4, 25140, Note_on_c, 0, 66, 49
4, 25200, Note_on_c, 0, 66, 0
4, 25440, Note_on_c, 0, 53, 49
4, 25500, Note_on_c, 0, 53, 0
4, 25500, Note_on_c, 0, 56, 49
4, 25560, Note_on_c, 0, 56, 0
4, 25560, Note_on_c, 0, 59, 49
4, 25620, Note_on_c, 0, 59, 0
4, 25620, Note_on_c, 0, 60, 49
4, 25680, Note_on_c, 0, 60, 0
4, 25680, Control_c, 0, 64, 0
4, 25920, Control_c, 0, 64, 127
4, 25920, Note_on_c, 0, 52, 62
4, 25980, Note_on_c, 0, 52, 0
4, 25980, Note_on_c, 0, 55, 62
4, 26040, Note_on_c, 0, 55, 0
4, 26040, Note_on_c, 0, 59, 62
4, 26100, Note_on_c, 0, 59, 0
4, 26100, Note_on_c, 0, 61, 62
4, 26160, Note_on_c, 0, 61, 0
4, 26400, Note_on_c, 0, 52, 62
4, 26460, Note_on_c, 0, 52, 0
4, 26460, Note_on_c, 0, 55, 62
4, 26520, Note_on_c, 0, 55, 0
4, 26520, Note_on_c, 0, 58, 62
4, 26580, Note_on_c, 0, 58, 0
4, 26580, Note_on_c, 0, 61, 62
4, 26640, Note_on_c, 0, 61, 0
4, 26640, Control_c, 0, 64, 0
4, 26880, Control_c, 0, 64, 127
4, 26880, Note_on_c, 0, 50, 62
4, 26940, Note_on_c, 0, 50, 0
4, 26940, Note_on_c, 0, 54, 62
4, 27000, Note_on_c, 0, 54, 0
4, 27000, Note_on_c, 0, 59, 62
4, 27060, Note_on_c, 0, 59, 0
4, 27060, Note_on_c, 0, 62, 62
4, 27120, Note_on_c, 0, 62, 0
4, 27360, Note_on_c, 0, 40, 75
4, 27420, Note_on_c, 0, 40, 0
4, 27420, Note_on_c, 0, 43, 75
4, 27480, Note_on_c, 0, 43, 0
4, 27480, Note_on_c, 0, 47, 75
4, 27540, Note_on_c, 0, 47, 0
4, 27540, Note_on_c, 0, 49, 75
4, 27600, Note_on_c, 0, 49, 0
4, 27600, Control_c, 0, 64, 0
4, 27840, Control_c, 0, 64, 127
4, 27840, Note_on_c, 0, 42, 75
4, 27900, Note_on_c, 0, 42, 0
4, 27900, Note_on_c, 0, 47, 75
4, 27960, Note_on_c, 0, 47, 0
4, 27960, Note_on_c, 0, 50, 75
4, 28020, Note_on_c, 0, 50, 0
4, 28020, Note_on_c, 0, 54, 75
4, 28080, Note_on_c, 0, 54, 0
4, 28320, Note_on_c, 0, 42, 75
4, 28380, Note_on_c, 0, 42, 0
4, 28380, Note_on_c, 0, 46, 75
4, 28440, Note_on_c, 0, 46, 0
4, 28440, Note_on_c, 0, 49, 75
4, 28500, Note_on_c, 0, 49, 0
4, 28500, Note_on_c, 0, 52, 75
4, 28560, Note_on_c, 0, 52, 0
4, 28560, Control_c, 0, 64, 0
4, 28800, Control_c, 0, 64, 127
4, 28800, Note_on_c, 0, 35, 75
4, 28860, Note_on_c, 0, 35, 0
4, 28860, Note_on_c, 0, 38, 75
4, 28920, Note_on_c, 0, 38, 0
4, 28920, Note_on_c, 0, 42, 75
4, 28980, Note_on_c, 0, 42, 0
4, 28980, Note_on_c, 0, 47, 75
4, 29040, Note_on_c, 0, 47, 0
4, 29280, Note_on_c, 0, 47, 75
4, 29340, Note_on_c, 0, 47, 0
4, 29340, Note_on_c, 0, 50, 75
4, 29400, Note_on_c, 0, 50, 0
4, 29400, Note_on_c, 0, 54, 75
4, 29460, Note_on_c, 0, 54, 0
4, 29460, Note_on_c, 0, 59, 75
4, 29520, Note_on_c, 0, 59, 0
4, 29520, Control_c, 0, 64, 0
4, 29760, Control_c, 0, 64, 127
4, 29760, Note_on_c, 0, 35, 75
4, 29820, Note_on_c, 0, 35, 0
4, 29820, Note_on_c, 0, 37, 75
4, 29880, Note_on_c, 0, 37, 0
4, 29880, Note_on_c, 0, 40, 75
4, 29940, Note_on_c, 0, 40, 0
4, 29940, Note_on_c, 0, 46, 75
4, 30000, Note_on_c, 0, 46, 0
4, 30240, Note_on_c, 0, 47, 75
4, 30300, Note_on_c, 0, 47, 0
4, 30300, Note_on_c, 0, 49, 75
4, 30360, Note_on_c, 0, 49, 0
4, 30360, Note_on_c, 0, 52, 75
4, 30420, Note_on_c, 0, 52, 0
4, 30420, Note_on_c, 0, 58, 75
4, 30480, Note_on_c, 0, 58, 0
4, 30480, Control_c, 0, 64, 0
4, 30720, Control_c, 0, 64, 127
4, 30720, Note_on_c, 0, 35, 75
4, 30780, Note_on_c, 0, 35, 0
4, 30780, Note_on_c, 0, 38, 75
4, 30840, Note_on_c, 0, 38, 0
4, 30840, Note_on_c, 0, 42, 75
4, 30900, Note_on_c, 0, 42, 0
4, 30900, Note_on_c, 0, 47, 75
4, 30960, Note_on_c, 0, 47, 0
4, 31200, Note_on_c, 0, 45, 75
4, 31260, Note_on_c, 0, 45, 0
4, 31260, Note_on_c, 0, 50, 75
4, 31320, Note_on_c, 0, 50, 0
4, 31320, Note_on_c, 0, 53, 75
4, 31380, Note_on_c, 0, 53, 0
4, 31380, Note_on_c, 0, 59, 75
4, 31440, Note_on_c, 0, 59, 0
4, 31440, Control_c, 0, 64, 0
4, 31680, Control_c, 0, 64, 127
4, 31680, Note_on_c, 0, 44, 75
4, 31740, Note_on_c, 0, 44, 0
4, 31740, Note_on_c, 0, 50, 75
4, 31800, Note_on_c, 0, 50, 0
4, 31800, Note_on_c, 0, 53, 75
4, 31860, Note_on_c, 0, 53, 0
4, 31860, Note_on_c, 0, 59, 75
4, 31920, Note_on_c, 0, 59, 0
4, 32160, Note_on_c, 0, 52, 75
4, 32220, Note_on_c, 0, 52, 0
4, 32220, Note_on_c, 0, 56, 75
4, 32280, Note_on_c, 0, 56, 0
4, 32280, Note_on_c, 0, 59, 75
4, 32340, Note_on_c, 0, 59, 0
4, 32340, Note_on_c, 0, 62, 75
4, 32400, Note_on_c, 0, 62, 0
4, 32400, Control_c, 0, 64, 0
4, 32640, Control_c, 0, 64, 127
4, 32640, Note_on_c, 0, 45, 75
4, 32700, Note_on_c, 0, 45, 0
4, 32700, Note_on_c, 0, 52, 75
4, 32760, Note_on_c, 0, 52, 0
4, 32760, Note_on_c, 0, 57, 75
4, 32820, Note_on_c, 0, 57, 0
4, 32820, Note_on_c, 0, 60, 75
4, 32880, Note_on_c, 0, 60, 0
4, 33120, Note_on_c, 0, 57, 75
4, 33180, Note_on_c, 0, 57, 0
4, 33180, Note_on_c, 0, 60, 75
4, 33240, Note_on_c, 0, 60, 0
4, 33240, Note_on_c, 0, 64, 75
4, 33300, Note_on_c, 0, 64, 0
4, 33300, Note_on_c, 0, 69, 75
4, 33360, Note_on_c, 0, 69, 0
4, 33360, Control_c, 0, 64, 0
4, 33600, Control_c, 0, 64, 127
4, 33600, Note_on_c, 0, 45, 75
4, 33660, Note_on_c, 0, 45, 0
4, 33660, Note_on_c, 0, 47, 75
4, 33720, Note_on_c, 0, 47, 0
4, 33720, Note_on_c, 0, 50, 75
4, 33780, Note_on_c, 0, 50, 0
4, 33780, Note_on_c, 0, 56, 75
4, 33840, Note_on_c, 0, 56, 0
4, 34080, Note_on_c, 0, 57, 75
4, 34140, Note_on_c, 0, 57, 0
4, 34140, Note_on_c, 0, 59, 75
4, 34200, Note_on_c, 0, 59, 0
4, 34200, Note_on_c, 0, 62, 75
4, 34260, Note_on_c, 0, 62, 0
4, 34260, Note_on_c, 0, 68, 75
4, 34320, Note_on_c, 0, 68, 0
4, 34320, Control_c, 0, 64, 0
4, 34560, Control_c, 0, 64, 127
4, 34560, Note_on_c, 0, 45, 75
4, 34620, Note_on_c, 0, 45, 0
4, 34620, Note_on_c, 0, 48, 75
4, 34680, Note_on_c, 0, 48, 0
4, 34680, Note_on_c, 0, 52, 75
4, 34740, Note_on_c, 0, 52, 0
4, 34740, Note_on_c, 0, 57, 75
4, 34800, Note_on_c, 0, 57, 0
4, 35040, Note_on_c, 0, 55, 75
4, 35100, Note_on_c, 0, 55, 0
4, 35100, Note_on_c, 0, 60, 75
4, 35160, Note_on_c, 0, 60, 0
4, 35160, Note_on_c, 0, 63, 75
4, 35220, Note_on_c, 0, 63, 0
4, 35220, Note_on_c, 0, 69, 75
4, 35280, Note_on_c, 0, 69, 0
4, 35280, Control_c, 0, 64, 0
4, 35520, Control_c, 0, 64, 127
4, 35520, Note_on_c, 0, 54, 75
4, 35580, Note_on_c, 0, 54, 0
4, 35580, Note_on_c, 0, 60, 75
4, 35640, Note_on_c, 0, 60, 0
4, 35640, Note_on_c, 0, 63, 75
4, 35700, Note_on_c, 0, 63, 0
4, 35700, Note_on_c, 0, 69, 75
4, 35760, Note_on_c, 0, 69, 0
4, 36000, Note_on_c, 0, 50, 75
4, 36060, Note_on_c, 0, 50, 0
4, 36060, Note_on_c, 0, 57, 75
4, 36120, Note_on_c, 0, 57, 0
4, 36120, Note_on_c, 0, 60, 75
4, 36180, Note_on_c, 0, 60, 0
4, 36180, Note_on_c, 0, 62, 75
4, 36240, Note_on_c, 0, 62, 0
4, 36240, Control_c, 0, 64, 0
4, 36480, Control_c, 0, 64, 127
4, 36480, Note_on_c, 0, 55, 75
4, 36540, Note_on_c, 0, 55, 0
4, 36540, Note_on_c, 0, 59, 75
4, 36600, Note_on_c, 0, 59, 0
4, 36600, Note_on_c, 0, 62, 75
4, 36660, Note_on_c, 0, 62, 0
4, 36660, Note_on_c, 0, 67, 75
4, 36720, Note_on_c, 0, 67, 0
4, 36960, Note_on_c, 0, 52, 62
4, 37020, Note_on_c, 0, 52, 0
4, 37020, Note_on_c, 0, 55, 62
4, 37080, Note_on_c, 0, 55, 0
4, 37080, Note_on_c, 0, 60, 62
4, 37140, Note_on_c, 0, 60, 0
4, 37140, Note_on_c, 0, 64, 62
4, 37200, Note_on_c, 0, 64, 0
4, 37200, Control_c, 0, 64, 0
4, 37440, Control_c, 0, 64, 127
4, 37440, Note_on_c, 0, 53, 62
4, 37500, Note_on_c, 0, 53, 0
4, 37500, Note_on_c, 0, 57, 62
4, 37560, Note_on_c, 0, 57, 0
4, 37560, Note_on_c, 0, 60, 62
4, 37620, Note_on_c, 0, 60, 0
4, 37620, Note_on_c, 0, 65, 62
4, 37680, Note_on_c, 0, 65, 0
4, 37920, Note_on_c, 0, 50, 62
4, 37980, Note_on_c, 0, 50, 0
4, 37980, Note_on_c, 0, 53, 62
4, 38040, Note_on_c, 0, 53, 0
4, 38040, Note_on_c, 0, 59, 62
4, 38100, Note_on_c, 0, 59, 0
4, 38100, Note_on_c, 0, 62, 62
4, 38160, Note_on_c, 0, 62, 0
4, 38160, Control_c, 0, 64, 0
4, 38400, Control_c, 0, 64, 127
4, 38400, Note_on_c, 0, 52, 62
4, 38460, Note_on_c, 0, 52, 0
4, 38460, Note_on_c, 0, 56, 62
4, 38520, Note_on_c, 0, 56, 0
4, 38520, Note_on_c, 0, 59, 62
4, 38580, Note_on_c, 0, 59, 0
4, 38580, Note_on_c, 0, 62, 62
4, 38640, Note_on_c, 0, 62, 0
4, 38880, Note_on_c, 0, 50, 62
4, 38940, Note_on_c, 0, 50, 0
4, 38940, Note_on_c, 0, 52, 62
4, 39000, Note_on_c, 0, 52, 0
4, 39000, Note_on_c, 0, 56, 62
4, 39060, Note_on_c, 0, 56, 0
4, 39060, Note_on_c, 0, 59, 62
4, 39120, Note_on_c, 0, 59, 0
4, 39120, Control_c, 0, 64, 0
4, 39360, Control_c, 0, 64, 127
4, 39360, Note_on_c, 0, 48, 75
4, 39420, Note_on_c, 0, 48, 0
4, 39420, Note_on_c, 0, 52, 75
4, 39480, Note_on_c, 0, 52, 0
4, 39480, Note_on_c, 0, 57, 75
4, 39540, Note_on_c, 0, 57, 0
4, 39540, Note_on_c, 0, 60, 75
4, 39600, Note_on_c, 0, 60, 0
4, 39840, Note_on_c, 0, 47, 75
4, 39900, Note_on_c, 0, 47, 0
4, 39900, Note_on_c, 0, 52, 75
4, 39960, Note_on_c, 0, 52, 0
4, 39960, Note_on_c, 0, 56, 75
4, 40020, Note_on_c, 0, 56, 0
4, 40020, Note_on_c, 0, 62, 75
4, 40080, Note_on_c, 0, 62, 0
4, 40080, Control_c, 0, 64, 0
4, 40320, Control_c, 0, 64, 127
4, 40320, Note_on_c, 0, 45, 75
4, 40380, Note_on_c, 0, 45, 0
4, 40380, Note_on_c, 0, 52, 75
4, 40440, Note_on_c, 0, 52, 0
4, 40440, Note_on_c, 0, 57, 75
4, 40500, Note_on_c, 0, 57, 0
4, 40500, Note_on_c, 0, 60, 75
4, 40560, Note_on_c, 0, 60, 0
4, 40800, Note_on_c, 0, 55, 75
4, 40860, Note_on_c, 0, 55, 0
4, 40860, Note_on_c, 0, 57, 75
4, 40920, Note_on_c, 0, 57, 0
4, 40920, Note_on_c, 0, 60, 75
4, 40980, Note_on_c, 0, 60, 0
4, 40980, Note_on_c, 0, 64, 75
4, 41040, Note_on_c, 0, 64, 0
4, 41040, Control_c, 0, 64, 0
4, 41280, Control_c, 0, 64, 127
4, 41280, Note_on_c, 0, 54, 75
4, 41340, Note_on_c, 0, 54, 0
4, 41340, Note_on_c, 0, 57, 75
4, 41400, Note_on_c, 0, 57, 0
4, 41400, Note_on_c, 0, 60, 75
4, 41460, Note_on_c, 0, 60, 0
4, 41460, Note_on_c, 0, 63, 75
4, 41520, Note_on_c, 0, 63, 0
4, 41760, Note_on_c, 0, 52, 75
4, 41820, Note_on_c, 0, 52, 0
4, 41820, Note_on_c, 0, 57, 75
4, 41880, Note_on_c, 0, 57, 0
4, 41880, Note_on_c, 0, 60, 75
4, 41940, Note_on_c, 0, 60, 0
4, 41940, Note_on_c, 0, 64, 75
4, 42000, Note_on_c, 0, 64, 0
4, 42000, Control_c, 0, 64, 0
4, 42240, Control_c, 0, 64, 127
4, 42240, Note_on_c, 0, 51, 75
4, 42300, Note_on_c, 0, 51, 0
4, 42300, Note_on_c, 0, 57, 75
4, 42360, Note_on_c, 0, 57, 0
4, 42360, Note_on_c, 0, 60, 75
4, 42420, Note_on_c, 0, 60, 0
4, 42420, Note_on_c, 0, 66, 75
4, 42480, Note_on_c, 0, 66, 0
4, 42720, Note_on_c, 0, 55, 75
4, 42780, Note_on_c, 0, 55, 0
4, 42780, Note_on_c, 0, 57, 75
4, 42840, Note_on_c, 0, 57, 0
4, 42840, Note_on_c, 0, 60, 75
4, 42900, Note_on_c, 0, 60, 0
4, 42900, Note_on_c, 0, 64, 75
4, 42960, Note_on_c, 0, 64, 0
4, 42960, Control_c, 0, 64, 0
4, 43200, Control_c, 0, 64, 127
4, 43200, Note_on_c, 0, 54, 75
4, 43260, Note_on_c, 0, 54, 0
4, 43260, Note_on_c, 0, 57, 75
4, 43320, Note_on_c, 0, 57, 0
4, 43320, Note_on_c, 0, 60, 75
4, 43380, Note_on_c, 0, 60, 0
4, 43380, Note_on_c, 0, 63, 75
4, 43440, Note_on_c, 0, 63, 0
4, 43680, Note_on_c, 0, 52, 75
4, 43740, Note_on_c, 0, 52, 0
4, 43740, Note_on_c, 0, 57, 75
4, 43800, Note_on_c, 0, 57, 0
4, 43800, Note_on_c, 0, 60, 75
4, 43860, Note_on_c, 0, 60, 0
4, 43860, Note_on_c, 0, 64, 75
4, 43920, Note_on_c, 0, 64, 0
4, 43920, Control_c, 0, 64, 0
4, 44160, Control_c, 0, 64, 127
4, 44160, Note_on_c, 0, 51, 75
4, 44220, Note_on_c, 0, 51, 0
4, 44220, Note_on_c, 0, 57, 75
4, 44280, Note_on_c, 0, 57, 0
4, 44280, Note_on_c, 0, 60, 75
4, 44340, Note_on_c, 0, 60, 0
4, 44340, Note_on_c, 0, 66, 75
4, 44400, Note_on_c, 0, 66, 0
4, 44640, Note_on_c, 0, 60, 49
4, 44700, Note_on_c, 0, 60, 0
4, 44700, Note_on_c, 0, 63, 49
4, 44760, Note_on_c, 0, 63, 0
4, 44760, Note_on_c, 0, 66, 49
4, 44820, Note_on_c, 0, 66, 0
4, 44820, Note_on_c, 0, 69, 49
4, 44880, Note_on_c, 0, 69, 0
4, 44880, Control_c, 0, 64, 0
4, 45120, Control_c, 0, 64, 127
4, 45120, Note_on_c, 0, 57, 49
4, 45180, Note_on_c, 0, 57, 0
4, 45180, Note_on_c, 0, 60, 49
4, 45240, Note_on_c, 0, 60, 0
4, 45240, Note_on_c, 0, 63, 49
4, 45300, Note_on_c, 0, 63, 0
4, 45300, Note_on_c, 0, 66, 49
4, 45360, Note_on_c, 0, 66, 0
4, 45600, Note_on_c, 0, 54, 62
4, 45660, Note_on_c, 0, 54, 0
4, 45660, Note_on_c, 0, 57, 62
4, 45720, Note_on_c, 0, 57, 0
4, 45720, Note_on_c, 0, 60, 62
4, 45780, Note_on_c, 0, 60, 0
4, 45780, Note_on_c, 0, 63, 62
4, 45840, Note_on_c, 0, 63, 0
4, 45840, Control_c, 0, 64, 0
4, 46080, Control_c, 0, 64, 127
4, 46080, Note_on_c, 0, 51, 62
4, 46140, Note_on_c, 0, 51, 0
4, 46140, Note_on_c, 0, 54, 62
4, 46200, Note_on_c, 0, 54, 0
4, 46200, Note_on_c, 0, 57, 62
4, 46260, Note_on_c, 0, 57, 0
4, 46260, Note_on_c, 0, 60, 62
4, 46320, Note_on_c, 0, 60, 0
4, 46560, Note_on_c, 0, 48, 75
4, 46620, Note_on_c, 0, 48, 0
4, 46620, Note_on_c, 0, 51, 75
4, 46680, Note_on_c, 0, 51, 0
4, 46680, Note_on_c, 0, 54, 75
4, 46740, Note_on_c, 0, 54, 0
4, 46740, Note_on_c, 0, 57, 75
4, 46800, Note_on_c, 0, 57, 0
4, 46800, Control_c, 0, 64, 0
4, 47040, Control_c, 0, 64, 127
4, 47040, Note_on_c, 0, 47, 75
4, 47100, Note_on_c, 0, 47, 0
4, 47100, Note_on_c, 0, 51, 75
4, 47160, Note_on_c, 0, 51, 0
4, 47160, Note_on_c, 0, 54, 75
4, 47220, Note_on_c, 0, 54, 0
4, 47220, Note_on_c, 0, 57, 75
4, 47280, Note_on_c, 0, 57, 0
4, 47520, Note_on_c, 0, 45, 75
4, 47580, Note_on_c, 0, 45, 0
4, 47580, Note_on_c, 0, 47, 75
4, 47640, Note_on_c, 0, 47, 0
4, 47640, Note_on_c, 0, 51, 75
4, 47700, Note_on_c, 0, 51, 0
4, 47700, Note_on_c, 0, 54, 75
4, 47760, Note_on_c, 0, 54, 0
4, 47760, Control_c, 0, 64, 0
4, 48000, Control_c, 0, 64, 127
4, 48000, Note_on_c, 0, 43, 75
4, 48060, Note_on_c, 0, 43, 0
4, 48060, Note_on_c, 0, 47, 75
4, 48120, Note_on_c, 0, 47, 0
4, 48120, Note_on_c, 0, 52, 75
4, 48180, Note_on_c, 0, 52, 0
4, 48180, Note_on_c, 0, 55, 75
4, 48240, Note_on_c, 0, 55, 0
4, 48480, Note_on_c, 0, 48, 75
4, 48540, Note_on_c, 0, 48, 0
4, 48540, Note_on_c, 0, 52, 75
4, 48600, Note_on_c, 0, 52, 0
4, 48600, Note_on_c, 0, 55, 75
4, 48660, Note_on_c, 0, 55, 0
4, 48660, Note_on_c, 0, 60, 75
4, 48720, Note_on_c, 0, 60, 0
4, 48720, Control_c, 0, 64, 0
4, 48960, Control_c, 0, 64, 127
4, 48960, Note_on_c, 0, 45, 75
4, 49020, Note_on_c, 0, 45, 0
4, 49020, Note_on_c, 0, 52, 75
4, 49080, Note_on_c, 0, 52, 0
4, 49080, Note_on_c, 0, 54, 75
4, 49140, Note_on_c, 0, 54, 0
4, 49140, Note_on_c, 0, 60, 75
4, 49200, Note_on_c, 0, 60, 0
4, 49440, Note_on_c, 0, 47, 75
4, 49500, Note_on_c, 0, 47, 0
4, 49500, Note_on_c, 0, 51, 75
4, 49560, Note_on_c, 0, 51, 0
4, 49560, Note_on_c, 0, 57, 75
4, 49620, Note_on_c, 0, 57, 0
4, 49620, Note_on_c, 0, 59, 75
4, 49680, Note_on_c, 0, 59, 0
4, 49680, Control_c, 0, 64, 0
4, 49920, Control_c, 0, 64, 127
4, 49920, Note_on_c, 0, 40, 75
4, 49980, Note_on_c, 0, 40, 0
4, 49980, Note_on_c, 0, 47, 75
4, 50040, Note_on_c, 0, 47, 0
4, 50040, Note_on_c, 0, 52, 75
4, 50100, Note_on_c, 0, 52, 0
4, 50100, Note_on_c, 0, 55, 75
4, 50160, Note_on_c, 0, 55, 0
4, 50400, Note_on_c, 0, 52, 75
4, 50460, Note_on_c, 0, 52, 0
4, 50460, Note_on_c, 0, 55, 75
4, 50520, Note_on_c, 0, 55, 0
4, 50520, Note_on_c, 0, 60, 75
4, 50580, Note_on_c, 0, 60, 0
4, 50580, Note_on_c, 0, 64, 75
4, 50640, Note_on_c, 0, 64, 0
4, 50640, Control_c, 0, 64, 0
4, 50880, Control_c, 0, 64, 127
4, 50880, Note_on_c, 0, 51, 75
4, 50940, Note_on_c, 0, 51, 0
4, 50940, Note_on_c, 0, 57, 75
4, 51000, Note_on_c, 0, 57, 0
4, 51000, Note_on_c, 0, 60, 75
4, 51060, Note_on_c, 0, 60, 0
4, 51060, Note_on_c, 0, 66, 75
4, 51120, Note_on_c, 0, 66, 0
4, 51360, Note_on_c, 0, 51, 75
4, 51420, Note_on_c, 0, 51, 0
4, 51420, Note_on_c, 0, 54, 75
4, 51480, Note_on_c, 0, 54, 0
4, 51480, Note_on_c, 0, 57, 75
4, 51540, Note_on_c, 0, 57, 0
4, 51540, Note_on_c, 0, 59, 75
4, 51600, Note_on_c, 0, 59, 0
4, 51600, Control_c, 0, 64, 0
4, 51840, Control_c, 0, 64, 127
4, 51840, Note_on_c, 0, 38, 75
4, 51900, Note_on_c, 0, 38, 0
4, 51900, Note_on_c, 0, 44, 75
4, 51960, Note_on_c, 0, 44, 0
4, 51960, Note_on_c, 0, 47, 75
4, 52020, Note_on_c, 0, 47, 0
4, 52020, Note_on_c, 0, 50, 75
4, 52080, Note_on_c, 0, 50, 0
4, 52320, Note_on_c, 0, 50, 75
4, 52380, Note_on_c, 0, 50, 0
4, 52380, Note_on_c, 0, 56, 75
4, 52440, Note_on_c, 0, 56, 0
4, 52440, Note_on_c, 0, 59, 75
4, 52500, Note_on_c, 0, 59, 0
4, 52500, Note_on_c, 0, 65, 75
4, 52560, Note_on_c, 0, 65, 0
4, 52560, Control_c, 0, 64, 0
4, 52800, Control_c, 0, 64, 127
4, 52800, Note_on_c, 0, 49, 75
4, 52860, Note_on_c, 0, 49, 0
4, 52860, Note_on_c, 0, 56, 75
4, 52920, Note_on_c, 0, 56, 0
4, 52920, Note_on_c, 0, 59, 75
4, 52980, Note_on_c, 0, 59, 0
4, 52980, Note_on_c, 0, 64, 75
4, 53040, Note_on_c, 0, 64, 0
4, 53280, Note_on_c, 0, 49, 75
4, 53340, Note_on_c, 0, 49, 0
4, 53340, Note_on_c, 0, 52, 75
4, 53400, Note_on_c, 0, 52, 0
4, 53400, Note_on_c, 0, 57, 75
4, 53460, Note_on_c, 0, 57, 0
4, 53460, Note_on_c, 0, 61, 75
4, 53520, Note_on_c, 0, 61, 0
4, 53520, Control_c, 0, 64, 0
4, 53760, Control_c, 0, 64, 127
4, 53760, Note_on_c, 0, 48, 75
4, 53820, Note_on_c, 0, 48, 0
4, 53820, Note_on_c, 0, 52, 75
4, 53880, Note_on_c, 0, 52, 0
4, 53880, Note_on_c, 0, 57, 75
4, 53940, Note_on_c, 0, 57, 0
4, 53940, Note_on_c, 0, 60, 75
4, 54000, Note_on_c, 0, 60, 0
4, 54240, Note_on_c, 0, 45, 75
4, 54300, Note_on_c, 0, 45, 0
4, 54300, Note_on_c, 0, 48, 75
4, 54360, Note_on_c, 0, 48, 0
4, 54360, Note_on_c, 0, 54, 75
4, 54420, Note_on_c, 0, 54, 0
4, 54420, Note_on_c, 0, 57, 75
4, 54480, Note_on_c, 0, 57, 0
4, 54480, Control_c, 0, 64, 0
4, 54720, Control_c, 0, 64, 127
4, 54720, Note_on_c, 0, 47, 49
4, 54780, Note_on_c, 0, 47, 0
4, 54780, Note_on_c, 0, 51, 49
4, 54840, Note_on_c, 0, 51, 0
4, 54840, Note_on_c, 0, 54, 49
4, 54900, Note_on_c, 0, 54, 0
4, 54900, Note_on_c, 0, 57, 49
4, 54960, Note_on_c, 0, 57, 0
4, 55200, Note_on_c, 0, 47, 49
4, 55260, Note_on_c, 0, 47, 0
4, 55260, Note_on_c, 0, 51, 49
4, 55320, Note_on_c, 0, 51, 0
4, 55320, Note_on_c, 0, 54, 49
4, 55380, Note_on_c, 0, 54, 0
4, 55380, Note_on_c, 0, 57, 49
4, 55440, Note_on_c, 0, 57, 0
4, 55440, Control_c, 0, 64, 0
4, 55680, Control_c, 0, 64, 127
4, 55680, Note_on_c, 0, 47, 49
4, 55740, Note_on_c, 0, 47, 0
4, 55740, Note_on_c, 0, 52, 49
4, 55800, Note_on_c, 0, 52, 0
4, 55800, Note_on_c, 0, 55, 49
4, 55860, Note_on_c, 0, 55, 0
4, 55860, Note_on_c, 0, 59, 49
4, 55920, Note_on_c, 0, 59, 0
4, 56160, Note_on_c, 0, 47, 49
4, 56220, Note_on_c, 0, 47, 0
4, 56220, Note_on_c, 0, 52, 49
4, 56280, Note_on_c, 0, 52, 0
4, 56280, Note_on_c, 0, 55, 49
4, 56340, Note_on_c, 0, 55, 0
4, 56340, Note_on_c, 0, 59, 49
4, 56400, Note_on_c, 0, 59, 0
4, 56400, Control_c, 0, 64, 0
4, 56640, Control_c, 0, 64, 127
4, 56640, Note_on_c, 0, 47, 62
4, 56700, Note_on_c, 0, 47, 0
4, 56700, Note_on_c, 0, 51, 62
4, 56760, Note_on_c, 0, 51, 0
4, 56760, Note_on_c, 0, 54, 62
4, 56820, Note_on_c, 0, 54, 0
4, 56820, Note_on_c, 0, 57, 62
4, 56880, Note_on_c, 0, 57, 0
4, 57120, Note_on_c, 0, 47, 62
4, 57180, Note_on_c, 0, 47, 0
4, 57180, Note_on_c, 0, 51, 62
4, 57240, Note_on_c, 0, 51, 0
4, 57240, Note_on_c, 0, 54, 62
4, 57300, Note_on_c, 0, 54, 0
4, 57300, Note_on_c, 0, 57, 62
4, 57360, Note_on_c, 0, 57, 0
4, 57360, Control_c, 0, 64, 0
4, 57600, Control_c, 0, 64, 127
4, 57600, Note_on_c, 0, 47, 62
4, 57660, Note_on_c, 0, 47, 0
4, 57660, Note_on_c, 0, 52, 62
4, 57720, Note_on_c, 0, 52, 0
4, 57720, Note_on_c, 0, 55, 62
4, 57780, Note_on_c, 0, 55, 0
4, 57780, Note_on_c, 0, 59, 62
4, 57840, Note_on_c, 0, 59, 0
4, 58080, Note_on_c, 0, 47, 62
4, 58140, Note_on_c, 0, 47, 0
4, 58140, Note_on_c, 0, 51, 62
4, 58200, Note_on_c, 0, 51, 0
4, 58200, Note_on_c, 0, 52, 62
4, 58260, Note_on_c, 0, 52, 0
4, 58260, Note_on_c, 0, 55, 62
4, 58320, Note_on_c, 0, 55, 0
4, 58320, Control_c, 0, 64, 0
4, 58560, Control_c, 0, 64, 127
4, 58560, Note_on_c, 0, 48, 75
4, 58620, Note_on_c, 0, 48, 0
4, 58620, Note_on_c, 0, 52, 75
4, 58680, Note_on_c, 0, 52, 0
4, 58680, Note_on_c, 0, 57, 75
4, 58740, Note_on_c, 0, 57, 0
4, 58740, Note_on_c, 0, 60, 75
4, 58800, Note_on_c, 0, 60, 0
4, 59040, Note_on_c, 0, 47, 75
4, 59100, Note_on_c, 0, 47, 0
4, 59100, Note_on_c, 0, 52, 75
4, 59160, Note_on_c, 0, 52, 0
4, 59160, Note_on_c, 0, 55, 75
4, 59220, Note_on_c, 0, 55, 0
4, 59220, Note_on_c, 0, 59, 75
4, 59280, Note_on_c, 0, 59, 0
4, 59280, Control_c, 0, 64, 0
4, 59520, Control_c, 0, 64, 127
4, 59520, Note_on_c, 0, 45, 75
4, 59580, Note_on_c, 0, 45, 0
4, 59580, Note_on_c, 0, 48, 75
4, 59640, Note_on_c, 0, 48, 0
4, 59640, Note_on_c, 0, 54, 75
4, 59700, Note_on_c, 0, 54, 0
4, 59700, Note_on_c, 0, 57, 75
4, 59760, Note_on_c, 0, 57, 0
4, 60000, Note_on_c, 0, 48, 75
4, 60060, Note_on_c, 0, 48, 0
4, 60060, Note_on_c, 0, 52, 75
4, 60120, Note_on_c, 0, 52, 0
4, 60120, Note_on_c, 0, 54, 75
4, 60180, Note_on_c, 0, 54, 0
4, 60180, Note_on_c, 0, 57, 75
4, 60240, Note_on_c, 0, 57, 0
4, 60240, Control_c, 0, 64, 0
4, 60480, Control_c, 0, 64, 127
4, 60480, Note_on_c, 0, 47, 75
4, 60540, Note_on_c, 0, 47, 0
4, 60540, Note_on_c, 0, 52, 75
4, 60600, Note_on_c, 0, 52, 0
4, 60600, Note_on_c, 0, 55, 75
4, 60660, Note_on_c, 0, 55, 0
4, 60660, Note_on_c, 0, 59, 75
4, 60720, Note_on_c, 0, 59, 0
4, 60960, Note_on_c, 0, 47, 75
4, 61020, Note_on_c, 0, 47, 0
4, 61020, Note_on_c, 0, 51, 75
4, 61080, Note_on_c, 0, 51, 0
4, 61080, Note_on_c, 0, 57, 75
4, 61140, Note_on_c, 0, 57, 0
4, 61140, Note_on_c, 0, 59, 75
4, 61200, Note_on_c, 0, 59, 0
4, 61200, Control_c, 0, 64, 0
4, 61440, Control_c, 0, 64, 127
4, 61440, Note_on_c, 0, 40, 75
4, 61500, Note_on_c, 0, 40, 0
4, 61500, Note_on_c, 0, 47, 75
4, 61560, Note_on_c, 0, 47, 0
4, 61560, Note_on_c, 0, 52, 75
4, 61620, Note_on_c, 0, 52, 0
4, 61620, Note_on_c, 0, 55, 75
4, 61680, Note_on_c, 0, 55, 0
4, 61920, Note_on_c, 0, 52, 75
4, 61980, Note_on_c, 0, 52, 0
4, 61980, Note_on_c, 0, 56, 75
4, 62040, Note_on_c, 0, 56, 0
4, 62040, Note_on_c, 0, 59, 75
4, 62100, Note_on_c, 0, 59, 0
4, 62100, Note_on_c, 0, 62, 75
4, 62160, Note_on_c, 0, 62, 0
4, 62160, Control_c, 0, 64, 0
4, 62400, Control_c, 0, 64, 127
4, 62400, Note_on_c, 0, 40, 75
4, 62460, Note_on_c, 0, 40, 0
4, 62460, Note_on_c, 0, 45, 75
4, 62520, Note_on_c, 0, 45, 0
4, 62520, Note_on_c, 0, 48, 75
4, 62580, Note_on_c, 0, 48, 0
4, 62580, Note_on_c, 0, 52, 75
4, 62640, Note_on_c, 0, 52, 0
4, 62880, Note_on_c, 0, 52, 75
4, 62940, Note_on_c, 0, 52, 0
4, 62940, Note_on_c, 0, 57, 75
4, 63000, Note_on_c, 0, 57, 0
4, 63000, Note_on_c, 0, 60, 75
4, 63060, Note_on_c, 0, 60, 0
4, 63060, Note_on_c, 0, 64, 75
4, 63120, Note_on_c, 0, 64, 0
4, 63120, Control_c, 0, 64, 0
4, 63360, Control_c, 0, 64, 127
4, 63360, Note_on_c, 0, 40, 75
4, 63420, Note_on_c, 0, 40, 0
4, 63420, Note_on_c, 0, 43, 75
4, 63480, Note_on_c, 0, 43, 0
4, 63480, Note_on_c, 0, 47, 75
4, 63540, Note_on_c, 0, 47, 0
4, 63540, Note_on_c, 0, 52, 75
4, 63600, Note_on_c, 0, 52, 0
4, 63840, Note_on_c, 0, 52, 75
4, 63900, Note_on_c, 0, 52, 0
4, 63900, Note_on_c, 0, 56, 75
4, 63960, Note_on_c, 0, 56, 0
4, 63960, Note_on_c, 0, 59, 75
4, 64020, Note_on_c, 0, 59, 0
4, 64020, Note_on_c, 0, 62, 75
4, 64080, Note_on_c, 0, 62, 0
4, 64080, Control_c, 0, 64, 0
4, 64320, Control_c, 0, 64, 127
4, 64320, Note_on_c, 0, 40, 75
4, 64380, Note_on_c, 0, 40, 0
4, 64380, Note_on_c, 0, 45, 75
4, 64440, Note_on_c, 0, 45, 0
4, 64440, Note_on_c, 0, 48, 75
4, 64500, Note_on_c, 0, 48, 0
4, 64500, Note_on_c, 0, 52, 75
4, 64560, Note_on_c, 0, 52, 0
4, 64800, Note_on_c, 0, 52, 75
4, 64860, Note_on_c, 0, 52, 0
4, 64860, Note_on_c, 0, 57, 75
4, 64920, Note_on_c, 0, 57, 0
4, 64920, Note_on_c, 0, 60, 75
4, 64980, Note_on_c, 0, 60, 0
4, 64980, Note_on_c, 0, 64, 75
4, 65040, Note_on_c, 0, 64, 0
4, 65040, Control_c, 0, 64, 0
4, 65280, Control_c, 0, 64, 127
4, 65280, Note_on_c, 0, 40, 75
4, 65340, Note_on_c, 0, 40, 0
4, 65340, Note_on_c, 0, 43, 75
4, 65400, Note_on_c, 0, 43, 0
4, 65400, Note_on_c, 0, 47, 75
4, 65460, Note_on_c, 0, 47, 0
4, 65460, Note_on_c, 0, 52, 75
4, 65520, Note_on_c, 0, 52, 0
4, 65760, Note_on_c, 0, 52, 75
4, 65820, Note_on_c, 0, 52, 0
4, 65820, Note_on_c, 0, 55, 75
4, 65880, Note_on_c, 0, 55, 0
4, 65880, Note_on_c, 0, 59, 75
4, 65940, Note_on_c, 0, 59, 0
4, 65940, Note_on_c, 0, 64, 75
4, 66000, Note_on_c, 0, 64, 0
4, 66000, Control_c, 0, 64, 0
4, 66000, Note_on_c, 0, 51, 75
4, 66240, Note_on_c, 0, 51, 0
4, 66240, Note_on_c, 0, 52, 75
4, 66287, Note_on_c, 0, 52, 0
4, 66480, Note_on_c, 0, 50, 75
4, 66527, Note_on_c, 0, 50, 0
4, 66720, Note_on_c, 0, 48, 75
4, 66767, Note_on_c, 0, 48, 0
4, 66960, Note_on_c, 0, 47, 75
4, 67007, Note_on_c, 0, 47, 0
4, 67200, Control_c, 0, 64, 127
4, 67200, Note_on_c, 0, 45, 75
4, 67260, Note_on_c, 0, 45, 0
4, 67260, Note_on_c, 0, 48, 75
4, 67320, Note_on_c, 0, 48, 0
4, 67320, Note_on_c, 0, 52, 75
4, 67380, Note_on_c, 0, 52, 0
4, 67380, Note_on_c, 0, 57, 75
4, 67440, Note_on_c, 0, 57, 0
4, 67680, Note_on_c, 0, 42, 75
4, 67740, Note_on_c, 0, 42, 0
4, 67740, Note_on_c, 0, 45, 75
4, 67800, Note_on_c, 0, 45, 0
4, 67800, Note_on_c, 0, 51, 75
4, 67860, Note_on_c, 0, 51, 0
4, 67860, Note_on_c, 0, 54, 75
4, 67920, Note_on_c, 0, 54, 0
4, 67920, Control_c, 0, 64, 0
4, 68160, Control_c, 0, 64, 127
4, 68160, Note_on_c, 0, 47, 75
4, 68220, Note_on_c, 0, 47, 0
4, 68220, Note_on_c, 0, 54, 75
4, 68280, Note_on_c, 0, 54, 0
4, 68280, Note_on_c, 0, 57, 75
4, 68340, Note_on_c, 0, 57, 0
4, 68340, Note_on_c, 0, 60, 75
4, 68400, Note_on_c, 0, 60, 0
4, 68640, Note_on_c, 0, 47, 75
4, 68700, Note_on_c, 0, 47, 0
4, 68700, Note_on_c, 0, 54, 75
4, 68760, Note_on_c, 0, 54, 0
4, 68760, Note_on_c, 0, 57, 75
4, 68820, Note_on_c, 0, 57, 0
4, 68820, Note_on_c, 0, 59, 75
4, 68880, Note_on_c, 0, 59, 0
4, 68880, Control_c, 0, 64, 0
4, 69120, Control_c, 0, 64, 127
4, 69120, Note_on_c, 0, 40, 75
4, 69180, Note_on_c, 0, 40, 0
4, 69180, Note_on_c, 0, 47, 75
4, 69240, Note_on_c, 0, 47, 0
4, 69240, Note_on_c, 0, 52, 75
4, 69300, Note_on_c, 0, 52, 0
4, 69300, Note_on_c, 0, 55, 75
4, 69360, Note_on_c, 0, 55, 0
4, 69600, Note_on_c, 0, 52, 75
4, 69660, Note_on_c, 0, 52, 0
4, 69660, Note_on_c, 0, 56, 75
4, 69720, Note_on_c, 0, 56, 0
4, 69720, Note_on_c, 0, 59, 75
4, 69780, Note_on_c, 0, 59, 0
4, 69780, Note_on_c, 0, 62, 75
4, 69840, Note_on_c, 0, 62, 0
4, 69840, Control_c, 0, 64, 0
4, 70080, Control_c, 0, 64, 127
4, 70080, Note_on_c, 0, 40, 75
4, 70140, Note_on_c, 0, 40, 0
4, 70140, Note_on_c, 0, 45, 75
4, 70200, Note_on_c, 0, 45, 0
4, 70200, Note_on_c, 0, 48, 75
4, 70260, Note_on_c, 0, 48, 0
4, 70260, Note_on_c, 0, 52, 75
4, 70320, Note_on_c, 0, 52, 0
4, 70560, Note_on_c, 0, 52, 75
4, 70620, Note_on_c, 0, 52, 0
4, 70620, Note_on_c, 0, 54, 75
4, 70680, Note_on_c, 0, 54, 0
4, 70680, Note_on_c, 0, 57, 75
4, 70740, Note_on_c, 0, 57, 0
4, 70740, Note_on_c, 0, 63, 75
4, 70800, Note_on_c, 0, 63, 0
4, 70800, Control_c, 0, 64, 0
4, 71040, Control_c, 0, 64, 127
4, 71040, Note_on_c, 0, 40, 75
4, 71100, Note_on_c, 0, 40, 0
4, 71100, Note_on_c, 0, 44, 75
4, 71160, Note_on_c, 0, 44, 0
4, 71160, Note_on_c, 0, 47, 75
4, 71220, Note_on_c, 0, 47, 0
4, 71220, Note_on_c, 0, 52, 75
4, 71280, Note_on_c, 0, 52, 0
4, 71520, Note_on_c, 0, 52, 75
4, 71580, Note_on_c, 0, 52, 0
4, 71580, Note_on_c, 0, 56, 75
4, 71640, Note_on_c, 0, 56, 0
4, 71640, Note_on_c, 0, 59, 75
4, 71700, Note_on_c, 0, 59, 0
4, 71700, Note_on_c, 0, 62, 75
4, 71760, Note_on_c, 0, 62, 0
4, 71760, Control_c, 0, 64, 0
4, 72000, Control_c, 0, 64, 127
4, 72000, Note_on_c, 0, 40, 75
4, 72060, Note_on_c, 0, 40, 0
4, 72060, Note_on_c, 0, 45, 75
4, 72120, Note_on_c, 0, 45, 0
4, 72120, Note_on_c, 0, 48, 75
4, 72180, Note_on_c, 0, 48, 0
4, 72180, Note_on_c, 0, 52, 75
4, 72240, Note_on_c, 0, 52, 0
4, 72480, Note_on_c, 0, 52, 75
4, 72540, Note_on_c, 0, 52, 0
4, 72540, Note_on_c, 0, 54, 75
4, 72600, Note_on_c, 0, 54, 0
4, 72600, Note_on_c, 0, 57, 75
4, 72660, Note_on_c, 0, 57, 0
4, 72660, Note_on_c, 0, 63, 75
4, 72720, Note_on_c, 0, 63, 0
4, 72720, Control_c, 0, 64, 0
4, 72960, Control_c, 0, 64, 127
4, 72960, Note_on_c, 0, 52, 75
4, 73020, Note_on_c, 0, 52, 0
4, 73020, Note_on_c, 0, 55, 75
4, 73080, Note_on_c, 0, 55, 0
4, 73080, Note_on_c, 0, 59, 75
4, 73140, Note_on_c, 0, 59, 0
4, 73140, Note_on_c, 0, 64, 75
4, 73200, Note_on_c, 0, 64, 0
4, 73440, Note_on_c, 0, 55, 75
4, 73500, Note_on_c, 0, 55, 0
4, 73500, Note_on_c, 0, 59, 75
4, 73560, Note_on_c, 0, 59, 0
4, 73560, Note_on_c, 0, 64, 75
4, 73620, Note_on_c, 0, 64, 0
4, 73620, Note_on_c, 0, 67, 75
4, 73680, Note_on_c, 0, 67, 0
4, 73680, Control_c, 0, 64, 0
4, 73920, Control_c, 0, 64, 127
4, 73920, Note_on_c, 0, 52, 75
4, 73980, Note_on_c, 0, 52, 0
4, 73980, Note_on_c, 0, 55, 75
4, 74040, Note_on_c, 0, 55, 0
4, 74040, Note_on_c, 0, 59, 75
4, 74100, Note_on_c, 0, 59, 0
4, 74100, Note_on_c, 0, 64, 75
4, 74160, Note_on_c, 0, 64, 0
4, 74400, Note_on_c, 0, 48, 75
4, 74460, Note_on_c, 0, 48, 0
4, 74460, Note_on_c, 0, 52, 75
4, 74520, Note_on_c, 0, 52, 0
4, 74520, Note_on_c, 0, 57, 75
4, 74580, Note_on_c, 0, 57, 0
4, 74580, Note_on_c, 0, 60, 75
4, 74640, Note_on_c, 0, 60, 0
4, 74640, Control_c, 0, 64, 0
4, 74880, Control_c, 0, 64, 127
4, 74880, Note_on_c, 0, 45, 75
4, 74940, Note_on_c, 0, 45, 0
4, 74940, Note_on_c, 0, 48, 75
4, 75000, Note_on_c, 0, 48, 0
4, 75000, Note_on_c, 0, 52, 75
4, 75060, Note_on_c, 0, 52, 0
4, 75060, Note_on_c, 0, 57, 75
4, 75120, Note_on_c, 0, 57, 0
4, 75360, Note_on_c, 0, 42, 75
4, 75420, Note_on_c, 0, 42, 0
4, 75420, Note_on_c, 0, 45, 75
4, 75480, Note_on_c, 0, 45, 0
4, 75480, Note_on_c, 0, 51, 75
4, 75540, Note_on_c, 0, 51, 0
4, 75540, Note_on_c, 0, 54, 75
4, 75600, Note_on_c, 0, 54, 0
4, 75600, Control_c, 0, 64, 0
4, 75840, Control_c, 0, 64, 127
4, 75840, Note_on_c, 0, 47, 75
4, 75900, Note_on_c, 0, 47, 0
4, 75900, Note_on_c, 0, 54, 75
4, 75960, Note_on_c, 0, 54, 0
4, 75960, Note_on_c, 0, 57, 75
4, 76020, Note_on_c, 0, 57, 0
4, 76020, Note_on_c, 0, 60, 75
4, 76080, Note_on_c, 0, 60, 0
4, 76320, Note_on_c, 0, 47, 75
4, 76380, Note_on_c, 0, 47, 0
4, 76380, Note_on_c, 0, 54, 75
4, 76440, Note_on_c, 0, 54, 0
4, 76440, Note_on_c, 0, 57, 75
4, 76500, Note_on_c, 0, 57, 0
4, 76500, Note_on_c, 0, 59, 75
4, 76560, Note_on_c, 0, 59, 0
4, 76560, Control_c, 0, 64, 0
4, 76800, Control_c, 0, 64, 127
4, 76800, Note_on_c, 0, 40, 75
4, 76860, Note_on_c, 0, 40, 0
4, 76860, Note_on_c, 0, 43, 75
4, 76920, Note_on_c, 0, 43, 0
4, 76920, Note_on_c, 0, 47, 75
4, 76980, Note_on_c, 0, 47, 0
4, 76980, Note_on_c, 0, 52, 75
4, 77040, Note_on_c, 0, 52, 0
4, 77280, Note_on_c, 0, 35, 75
4, 77340, Note_on_c, 0, 35, 0
4, 77340, Note_on_c, 0, 40, 75
4, 77400, Note_on_c, 0, 40, 0
4, 77400, Note_on_c, 0, 43, 75
4, 77460, Note_on_c, 0, 43, 0
4, 77460, Note_on_c, 0, 47, 75
4, 77520, Note_on_c, 0, 47, 0
4, 77520, Control_c, 0, 64, 0
4, 77760, Control_c, 0, 64, 127
4, 77760, Note_on_c, 0, 40, 75
4, 77820, Note_on_c, 0, 40, 0
4, 77820, Note_on_c, 0, 43, 75
4, 77880, Note_on_c, 0, 43, 0
4, 77880, Note_on_c, 0, 47, 75
4, 77940, Note_on_c, 0, 47, 0
4, 77940, Note_on_c, 0, 52, 75
4, 78000, Note_on_c, 0, 52, 0
4, 78240, Note_on_c, 0, 43, 75
4, 78300, Note_on_c, 0, 43, 0
4, 78300, Note_on_c, 0, 47, 75
4, 78360, Note_on_c, 0, 47, 0
4, 78360, Note_on_c, 0, 52, 75
4, 78420, Note_on_c, 0, 52, 0
4, 78420, Note_on_c, 0, 55, 75
4, 78480, Note_on_c, 0, 55, 0
4, 78480, Control_c, 0, 64, 0
4, 78720, Control_c, 0, 64, 127
4, 78720, Note_on_c, 0, 47, 75
4, 78780, Note_on_c, 0, 47, 0
4, 78780, Note_on_c, 0, 52, 75
4, 78840, Note_on_c, 0, 52, 0
4, 78840, Note_on_c, 0, 55, 75
4, 78900, Note_on_c, 0, 55, 0
4, 78900, Note_on_c, 0, 59, 75
4, 78960, Note_on_c, 0, 59, 0
4, 79200, Note_on_c, 0, 40, 75
4, 79260, Note_on_c, 0, 40, 0
4, 79260, Note_on_c, 0, 43, 75
4, 79320, Note_on_c, 0, 43, 0
4, 79320, Note_on_c, 0, 47, 75
4, 79380, Note_on_c, 0, 47, 0
4, 79380, Note_on_c, 0, 52, 75
4, 79440, Note_on_c, 0, 52, 0
4, 79680, Note_on_c, 0, 43, 75
4, 79740, Note_on_c, 0, 43, 0
4, 79740, Note_on_c, 0, 47, 75
4, 79800, Note_on_c, 0, 47, 0
4, 79800, Note_on_c, 0, 52, 75
4, 79860, Note_on_c, 0, 52, 0
4, 79860, Note_on_c, 0, 55, 75
4, 79920, Note_on_c, 0, 55, 0
4, 80160, Note_on_c, 0, 47, 75
4, 80220, Note_on_c, 0, 47, 0
4, 80220, Note_on_c, 0, 52, 75
4, 80280, Note_on_c, 0, 52, 0
4, 80280, Note_on_c, 0, 55, 75
4, 80340, Note_on_c, 0, 55, 0
4, 80340, Note_on_c, 0, 59, 75
4, 80400, Note_on_c, 0, 59, 0
4, 80640, Note_on_c, 0, 52, 75
4, 80700, Note_on_c, 0, 52, 0
4, 80700, Note_on_c, 0, 55, 75
4, 80760, Note_on_c, 0, 55, 0
4, 80760, Note_on_c, 0, 59, 75
4, 80820, Note_on_c, 0, 59, 0
4, 80820, Note_on_c, 0, 64, 75
4, 80880, Note_on_c, 0, 64, 0
4, 81120, Note_on_c, 0, 47, 75
4, 81180, Note_on_c, 0, 47, 0
4, 81180, Note_on_c, 0, 52, 75
4, 81240, Note_on_c, 0, 52, 0
4, 81240, Note_on_c, 0, 55, 75
4, 81300, Note_on_c, 0, 55, 0
4, 81300, Note_on_c, 0, 59, 75
4, 81360, Note_on_c, 0, 59, 0
4, 81600, Note_on_c, 0, 52, 88
4, 81660, Note_on_c, 0, 52, 0
4, 81660, Note_on_c, 0, 55, 88
4, 81720, Note_on_c, 0, 55, 0
4, 81720, Note_on_c, 0, 59, 88
4, 81780, Note_on_c, 0, 59, 0
4, 81780, Note_on_c, 0, 64, 88
4, 81840, Note_on_c, 0, 64, 0
4, 82080, Note_on_c, 0, 55, 88
4, 82140, Note_on_c, 0, 55, 0
4, 82140, Note_on_c, 0, 59, 88
4, 82200, Note_on_c, 0, 59, 0
4, 82200, Note_on_c, 0, 64, 88
4, 82260, Note_on_c, 0, 64, 0
4, 82260, Note_on_c, 0, 67, 88
4, 82320, Note_on_c, 0, 67, 0
4, 82560, Note_on_c, 0, 59, 88
4, 82620, Note_on_c, 0, 59, 0
4, 82620, Note_on_c, 0, 64, 88
4, 82680, Note_on_c, 0, 64, 0
4, 82680, Note_on_c, 0, 67, 88
4, 82740, Note_on_c, 0, 67, 0
4, 82740, Note_on_c, 0, 71, 88
4, 82800, Note_on_c, 0, 71, 0
4, 83040, Note_on_c, 0, 64, 88
4, 83100, Note_on_c, 0, 64, 0
4, 83100, Note_on_c, 0, 67, 88
4, 83160, Note_on_c, 0, 67, 0
4, 83160, Note_on_c, 0, 71, 88
4, 83220, Note_on_c, 0, 71, 0
4, 83220, Note_on_c, 0, 76, 88
4, 83280, Note_on_c, 0, 76, 0
4, 83280, Control_c, 0, 64, 0
4, 83520, Note_on_c, 0, 71, 114
4, 83520, Note_on_c, 0, 76, 114
4, 83520, Note_on_c, 0, 79, 114
4, 83760, Note_on_c, 0, 79, 0
4, 83760, Note_on_c, 0, 76, 0
4, 83760, Note_on_c, 0, 71, 0
4, 84000, Note_on_c, 0, 35, 88
4, 84000, Note_on_c, 0, 47, 88
4, 84480, Note_on_c, 0, 47, 0
4, 84480, Note_on_c, 0, 35, 0
4, 84480, Note_on_c, 0, 40, 114
4, 84480, Note_on_c, 0, 52, 114
4, 84960, Note_on_c, 0, 52, 0
4, 84960, Note_on_c, 0, 40, 0
4, 84960, End_track
5, 0, Start_track
5, 0, Title_t, "Instrument19"
5, 0, Program_c, 0, 0
5, 0, Control_c, 0, 7, 115
5, 0, Control_c, 0, 10, 41
5, 66240, Control_c, 0, 64, 127
5, 66240, Note_on_c, 0, 52, 75
5, 66300, Note_on_c, 0, 52, 0
5, 66300, Note_on_c, 0, 55, 75
5, 66360, Note_on_c, 0, 55, 0
5, 66360, Note_on_c, 0, 59, 75
5, 66420, Note_on_c, 0, 59, 0
5, 66420, Note_on_c, 0, 64, 75
5, 66480, Note_on_c, 0, 64, 0
5, 66720, Note_on_c, 0, 48, 75
5, 66780, Note_on_c, 0, 48, 0
5, 66780, Note_on_c, 0, 52, 75
5, 66840, Note_on_c, 0, 52, 0
5, 66840, Note_on_c, 0, 57, 75
5, 66900, Note_on_c, 0, 57, 0
5, 66900, Note_on_c, 0, 60, 75
5, 66960, Note_on_c, 0, 60, 0
5, 66960, Control_c, 0, 64, 0
5, 67200, Note_on_c, 0, 45, 75
5, 67247, Note_on_c, 0, 45, 0
5, 67440, Note_on_c, 0, 43, 75
5, 67487, Note_on_c, 0, 43, 0
5, 67680, Note_on_c, 0, 42, 75
5, 67727, Note_on_c, 0, 42, 0
5, 67920, Note_on_c, 0, 40, 75
5, 67967, Note_on_c, 0, 40, 0
5, 68160, Note_on_c, 0, 47, 75
5, 68640, Note_on_c, 0, 47, 0
5, 68640, Note_on_c, 0, 47, 75
5, 69120, Note_on_c, 0, 47, 0
5, 72960, Note_on_c, 0, 52, 75
5, 73007, Note_on_c, 0, 52, 0
5, 73200, Note_on_c, 0, 54, 75
5, 73247, Note_on_c, 0, 54, 0
5, 73440, Note_on_c, 0, 55, 75
5, 73487, Note_on_c, 0, 55, 0
5, 73680, Note_on_c, 0, 54, 75
5, 73727, Note_on_c, 0, 54, 0
5, 73920, Note_on_c, 0, 52, 75
5, 73967, Note_on_c, 0, 52, 0
5, 74160, Note_on_c, 0, 50, 75
5, 74207, Note_on_c, 0, 50, 0
5, 74400, Note_on_c, 0, 48, 75
5, 74447, Note_on_c, 0, 48, 0
5, 74640, Note_on_c, 0, 47, 75
5, 74687, Note_on_c, 0, 47, 0
5, 74880, Note_on_c, 0, 45, 75
5, 74927, Note_on_c, 0, 45, 0
5, 75120, Note_on_c, 0, 43, 75
5, 75167, Note_on_c, 0, 43, 0
5, 75360, Note_on_c, 0, 42, 75
5, 75407, Note_on_c, 0, 42, 0
5, 75600, Note_on_c, 0, 40, 75
5, 75647, Note_on_c, 0, 40, 0
5, 75840, Note_on_c, 0, 47, 75
5, 76320, Note_on_c, 0, 47, 0
5, 76320, Note_on_c, 0, 47, 75
5, 76800, Note_on_c, 0, 47, 0
5, 76800, End_track
0, 0, End_of_file
