0, 0, Header, 1, 5, 480
1, 0, Start_track
1, 0, Title_t, "mendelssohn sechs praeludien und fugen op35 no.2b fuga"
1, 0, Copyright_t, "Segundo G. Yogore,  2007,  dody@pldtdsl.net"
1, 0, Text_t, "sequenced by Segundo G. Yogore,  2007\012"
1, 0, Time_signature, 3, 2, 24, 8
1, 0, Key_signature, 2, "major"
1, 0, Tempo, 600000
1, 53040, Tempo, 618557
1, 53280, Tempo, 638298
1, 53520, Tempo, 659341
1, 53760, Tempo, 689655
1, 54000, Tempo, 714286
1, 54240, Tempo, 740741
1, 54480, Tempo, 769231
1, 54720, Tempo, 625000
1, 89040, Tempo, 645161
1, 89280, Tempo, 666667
1, 89520, Tempo, 689655
1, 89760, Tempo, 722892
1, 90000, Tempo, 750000
1, 90240, Tempo, 779221
1, 90480, Tempo, 810811
1, 90720, Tempo, 625000
1, 101040, Tempo, 645161
1, 101280, Tempo, 666667
1, 101520, Tempo, 689655
1, 101760, Tempo, 722892
1, 102000, Tempo, 750000
1, 102240, Tempo, 779221
1, 102480, Tempo, 810811
1, 102720, Tempo, 857143
1, 103680, Time_signature, 8, 2, 24, 8
1, 103680, End_track
2, 0, Start_track
2, 0, Title_t, "Grand Piano"
2, 0, Program_c, 0, 0
2, 0, Control_c, 0, 7, 115
2, 0, Control_c, 0, 10, 86
2, 4320, Note_on_c, 0, 57, 62
2, 4800, Note_on_c, 0, 57, 0
2, 4800, Note_on_c, 0, 61, 62
2, 5280, Note_on_c, 0, 61, 0
2, 5280, Note_on_c, 0, 66, 75
2, 5760, Note_on_c, 0, 66, 0
2, 5760, Note_on_c, 0, 64, 75
2, 6480, Note_on_c, 0, 64, 0
2, 6480, Note_on_c, 0, 62, 62
2, 6720, Note_on_c, 0, 62, 0
2, 6720, Note_on_c, 0, 61, 62
2, 7440, Note_on_c, 0, 61, 0
2, 7440, Note_on_c, 0, 59, 62
2, 7680, Note_on_c, 0, 59, 0
2, 7680, Note_on_c, 0, 62, 62
2, 7920, Note_on_c, 0, 62, 0
2, 7920, Note_on_c, 0, 61, 62
2, 8160, Note_on_c, 0, 61, 0
2, 8160, Note_on_c, 0, 59, 62
2, 8400, Note_on_c, 0, 59, 0
2, 8400, Note_on_c, 0, 57, 62
2, 8640, Note_on_c, 0, 57, 0
2, 8640, Note_on_c, 0, 56, 62
2, 8880, Note_on_c, 0, 56, 0
2, 8880, Note_on_c, 0, 59, 62
2, 9120, Note_on_c, 0, 59, 0
2, 9120, Note_on_c, 0, 64, 62
2, 9360, Note_on_c, 0, 64, 0
2, 9360, Note_on_c, 0, 62, 62
2, 9600, Note_on_c, 0, 62, 0
2, 9600, Note_on_c, 0, 61, 62
2, 9840, Note_on_c, 0, 61, 0
2, 9840, Note_on_c, 0, 59, 62
2, 10080, Note_on_c, 0, 59, 0
2, 10080, Note_on_c, 0, 62, 62
2, 10560, Note_on_c, 0, 62, 0
2, 10560, Note_on_c, 0, 66, 75
2, 11040, Note_on_c, 0, 66, 0
2, 11040, Note_on_c, 0, 71, 75
2, 11520, Note_on_c, 0, 71, 0
2, 11520, Note_on_c, 0, 69, 101
2, 12240, Note_on_c, 0, 69, 0
2, 12240, Note_on_c, 0, 67, 62
2, 12480, Note_on_c, 0, 67, 0
2, 12480, Note_on_c, 0, 66, 62
2, 13200, Note_on_c, 0, 66, 0
2, 13200, Note_on_c, 0, 64, 62
2, 13440, Note_on_c, 0, 64, 0
2, 13440, Note_on_c, 0, 67, 62
2, 13680, Note_on_c, 0, 67, 0
2, 13680, Note_on_c, 0, 66, 62
2, 13920, Note_on_c, 0, 66, 0
2, 13920, Note_on_c, 0, 64, 62
2, 14160, Note_on_c, 0, 64, 0
2, 14160, Note_on_c, 0, 62, 62
2, 14400, Note_on_c, 0, 62, 0
2, 14400, Note_on_c, 0, 69, 62
2, 14880, Note_on_c, 0, 69, 0
2, 14880, Note_on_c, 0, 73, 75
2, 15360, Note_on_c, 0, 73, 0
2, 15360, Note_on_c, 0, 78, 75
2, 15840, Note_on_c, 0, 78, 0
2, 15840, Note_on_c, 0, 76, 75
2, 16560, Note_on_c, 0, 76, 0
2, 16560, Note_on_c, 0, 74, 62
2, 16800, Note_on_c, 0, 74, 0
2, 16800, Note_on_c, 0, 73, 62
2, 17520, Note_on_c, 0, 73, 0
2, 17520, Note_on_c, 0, 71, 62
2, 17760, Note_on_c, 0, 71, 0
2, 17760, Note_on_c, 0, 74, 62
2, 18000, Note_on_c, 0, 74, 0
2, 18000, Note_on_c, 0, 73, 62
2, 18240, Note_on_c, 0, 73, 0
2, 18240, Note_on_c, 0, 71, 62
2, 18480, Note_on_c, 0, 71, 0
2, 18480, Note_on_c, 0, 69, 62
2, 18720, Note_on_c, 0, 69, 0
2, 18720, Note_on_c, 0, 68, 62
2, 18960, Note_on_c, 0, 68, 0
2, 18960, Note_on_c, 0, 71, 62
2, 19200, Note_on_c, 0, 71, 0
2, 19200, Note_on_c, 0, 76, 62
2, 19440, Note_on_c, 0, 76, 0
2, 19440, Note_on_c, 0, 74, 62
2, 19680, Note_on_c, 0, 74, 0
2, 19680, Note_on_c, 0, 73, 62
2, 19920, Note_on_c, 0, 73, 0
2, 19920, Note_on_c, 0, 71, 62
2, 20160, Note_on_c, 0, 71, 0
2, 20160, Note_on_c, 0, 69, 62
2, 20400, Note_on_c, 0, 69, 0
2, 20400, Note_on_c, 0, 73, 62
2, 20640, Note_on_c, 0, 73, 0
2, 20640, Note_on_c, 0, 81, 62
2, 20880, Note_on_c, 0, 81, 0
2, 20880, Note_on_c, 0, 80, 62
2, 21120, Note_on_c, 0, 80, 0
2, 21120, Note_on_c, 0, 78, 62
2, 21360, Note_on_c, 0, 78, 0
2, 21360, Note_on_c, 0, 76, 62
2, 21600, Note_on_c, 0, 76, 0
2, 21600, Note_on_c, 0, 75, 62
2, 22080, Note_on_c, 0, 75, 0
2, 22080, Note_on_c, 0, 74, 62
2, 23280, Note_on_c, 0, 74, 0
2, 23280, Note_on_c, 0, 74, 62
2, 23520, Note_on_c, 0, 74, 0
2, 23520, Note_on_c, 0, 73, 62
2, 23760, Note_on_c, 0, 73, 0
2, 23760, Note_on_c, 0, 71, 62
2, 24000, Note_on_c, 0, 71, 0
2, 24000, Note_on_c, 0, 76, 62
2, 24240, Note_on_c, 0, 76, 0
2, 24240, Note_on_c, 0, 69, 62
2, 24480, Note_on_c, 0, 69, 0
2, 24480, Note_on_c, 0, 68, 62
2, 24720, Note_on_c, 0, 68, 0
2, 24720, Note_on_c, 0, 69, 62
2, 24960, Note_on_c, 0, 69, 0
2, 24960, Note_on_c, 0, 71, 62
2, 25200, Note_on_c, 0, 71, 0
2, 25200, Note_on_c, 0, 73, 62
2, 25440, Note_on_c, 0, 73, 0
2, 25440, Note_on_c, 0, 74, 62
2, 25920, Note_on_c, 0, 74, 0
2, 25920, Note_on_c, 0, 73, 62
2, 26640, Note_on_c, 0, 73, 0
2, 26640, Note_on_c, 0, 73, 75
2, 26880, Note_on_c, 0, 73, 0
2, 26880, Note_on_c, 0, 74, 75
2, 27120, Note_on_c, 0, 74, 0
2, 27120, Note_on_c, 0, 76, 75
2, 27360, Note_on_c, 0, 76, 0
2, 27360, Note_on_c, 0, 78, 75
2, 28080, Note_on_c, 0, 78, 0
2, 28080, Note_on_c, 0, 76, 75
2, 28320, Note_on_c, 0, 76, 0
2, 28320, Note_on_c, 0, 74, 75
2, 29040, Note_on_c, 0, 74, 0
2, 29040, Note_on_c, 0, 73, 75
2, 29280, Note_on_c, 0, 73, 0
2, 29280, Note_on_c, 0, 74, 88
2, 29520, Note_on_c, 0, 74, 0
2, 29520, Note_on_c, 0, 76, 88
2, 29760, Note_on_c, 0, 76, 0
2, 29760, Note_on_c, 0, 69, 88
2, 30480, Note_on_c, 0, 69, 0
2, 30480, Note_on_c, 0, 71, 88
2, 30720, Note_on_c, 0, 71, 0
2, 30720, Note_on_c, 0, 68, 88
2, 31440, Note_on_c, 0, 68, 0
2, 31440, Note_on_c, 0, 69, 75
2, 31680, Note_on_c, 0, 69, 0
2, 31680, Note_on_c, 0, 69, 62
2, 31920, Note_on_c, 0, 69, 0
2, 31920, Note_on_c, 0, 64, 62
2, 32160, Note_on_c, 0, 64, 0
2, 32160, Note_on_c, 0, 69, 62
2, 32400, Note_on_c, 0, 69, 0
2, 32400, Note_on_c, 0, 67, 62
2, 32640, Note_on_c, 0, 67, 0
2, 32640, Note_on_c, 0, 66, 62
2, 32880, Note_on_c, 0, 66, 0
2, 32880, Note_on_c, 0, 64, 62
2, 33120, Note_on_c, 0, 64, 0
2, 33120, Note_on_c, 0, 63, 62
2, 33360, Note_on_c, 0, 63, 0
2, 33360, Note_on_c, 0, 72, 62
2, 33600, Note_on_c, 0, 72, 0
2, 33600, Note_on_c, 0, 71, 62
2, 33840, Note_on_c, 0, 71, 0
2, 33840, Note_on_c, 0, 69, 62
2, 34080, Note_on_c, 0, 69, 0
2, 34080, Note_on_c, 0, 67, 62
2, 34320, Note_on_c, 0, 67, 0
2, 34320, Note_on_c, 0, 66, 62
2, 34560, Note_on_c, 0, 66, 0
2, 34560, Note_on_c, 0, 71, 75
2, 34800, Note_on_c, 0, 71, 0
2, 34800, Note_on_c, 0, 66, 75
2, 35040, Note_on_c, 0, 66, 0
2, 35040, Note_on_c, 0, 67, 75
2, 35280, Note_on_c, 0, 67, 0
2, 35280, Note_on_c, 0, 63, 75
2, 35520, Note_on_c, 0, 63, 0
2, 35520, Note_on_c, 0, 64, 75
2, 35760, Note_on_c, 0, 64, 0
2, 35760, Note_on_c, 0, 69, 75
2, 36000, Note_on_c, 0, 69, 0
2, 36000, Note_on_c, 0, 71, 75
2, 36480, Note_on_c, 0, 71, 0
2, 36480, Note_on_c, 0, 74, 88
2, 36960, Note_on_c, 0, 74, 0
2, 36960, Note_on_c, 0, 79, 88
2, 37440, Note_on_c, 0, 79, 0
2, 37440, Note_on_c, 0, 78, 88
2, 38160, Note_on_c, 0, 78, 0
2, 38160, Note_on_c, 0, 76, 75
2, 38400, Note_on_c, 0, 76, 0
2, 38400, Note_on_c, 0, 74, 75
2, 39120, Note_on_c, 0, 74, 0
2, 39120, Note_on_c, 0, 73, 75
2, 39360, Note_on_c, 0, 73, 0
2, 39360, Note_on_c, 0, 76, 75
2, 39600, Note_on_c, 0, 76, 0
2, 39600, Note_on_c, 0, 74, 75
2, 39840, Note_on_c, 0, 74, 0
2, 39840, Note_on_c, 0, 73, 75
2, 40080, Note_on_c, 0, 73, 0
2, 40080, Note_on_c, 0, 71, 75
2, 40320, Note_on_c, 0, 71, 0
2, 40320, Note_on_c, 0, 61, 75
2, 40320, Note_on_c, 0, 66, 75
2, 40320, Note_on_c, 0, 70, 75
2, 40800, Note_on_c, 0, 70, 0
2, 40800, Note_on_c, 0, 66, 0
2, 40800, Note_on_c, 0, 61, 0
2, 40800, Note_on_c, 0, 70, 75
2, 40800, Note_on_c, 0, 73, 75
2, 41280, Note_on_c, 0, 73, 0
2, 41280, Note_on_c, 0, 70, 0
2, 41280, Note_on_c, 0, 66, 88
2, 41280, Note_on_c, 0, 71, 88
2, 41280, Note_on_c, 0, 78, 88
2, 41760, Note_on_c, 0, 78, 0
2, 41760, Note_on_c, 0, 71, 0
2, 41760, Note_on_c, 0, 66, 0
2, 41760, Note_on_c, 0, 68, 88
2, 41760, Note_on_c, 0, 77, 88
2, 42480, Note_on_c, 0, 77, 0
2, 42480, Note_on_c, 0, 68, 0
2, 42480, Note_on_c, 0, 74, 88
2, 42720, Note_on_c, 0, 74, 0
2, 42720, Note_on_c, 0, 65, 88
2, 42720, Note_on_c, 0, 73, 88
2, 43200, Note_on_c, 0, 73, 0
2, 43200, Note_on_c, 0, 65, 0
2, 43200, Note_on_c, 0, 66, 88
2, 43200, Note_on_c, 0, 70, 88
2, 43680, Note_on_c, 0, 70, 0
2, 43680, Note_on_c, 0, 66, 0
2, 43680, Note_on_c, 0, 61, 88
2, 43680, Note_on_c, 0, 70, 88
2, 43680, Note_on_c, 0, 73, 88
2, 44160, Note_on_c, 0, 73, 0
2, 44160, Note_on_c, 0, 70, 0
2, 44160, Note_on_c, 0, 61, 0
2, 44160, Note_on_c, 0, 70, 88
2, 44160, Note_on_c, 0, 73, 88
2, 44160, Note_on_c, 0, 76, 88
2, 44640, Note_on_c, 0, 76, 0
2, 44640, Note_on_c, 0, 73, 0
2, 44640, Note_on_c, 0, 70, 0
2, 44640, Note_on_c, 0, 66, 114
2, 44640, Note_on_c, 0, 71, 114
2, 44640, Note_on_c, 0, 75, 114
2, 45360, Note_on_c, 0, 75, 0
2, 45360, Note_on_c, 0, 71, 0
2, 45360, Note_on_c, 0, 66, 0
2, 45360, Note_on_c, 0, 63, 88
2, 45360, Note_on_c, 0, 66, 88
2, 45360, Note_on_c, 0, 72, 88
2, 45600, Note_on_c, 0, 72, 0
2, 45600, Note_on_c, 0, 66, 0
2, 45600, Note_on_c, 0, 63, 0
2, 45600, Note_on_c, 0, 71, 88
2, 46320, Note_on_c, 0, 71, 0
2, 46320, Note_on_c, 0, 71, 62
2, 46560, Note_on_c, 0, 71, 0
2, 46560, Note_on_c, 0, 66, 62
2, 46560, Note_on_c, 0, 74, 62
2, 46800, Note_on_c, 0, 74, 0
2, 46800, Note_on_c, 0, 66, 0
2, 46800, Note_on_c, 0, 64, 62
2, 46800, Note_on_c, 0, 73, 62
2, 47040, Note_on_c, 0, 73, 0
2, 47040, Note_on_c, 0, 64, 0
2, 47040, Note_on_c, 0, 62, 62
2, 47040, Note_on_c, 0, 66, 62
2, 47040, Note_on_c, 0, 71, 62
2, 47280, Note_on_c, 0, 71, 0
2, 47280, Note_on_c, 0, 66, 0
2, 47280, Note_on_c, 0, 62, 0
2, 47280, Note_on_c, 0, 61, 62
2, 47280, Note_on_c, 0, 64, 62
2, 47280, Note_on_c, 0, 70, 62
2, 47520, Note_on_c, 0, 70, 0
2, 47520, Note_on_c, 0, 64, 0
2, 47520, Note_on_c, 0, 61, 0
2, 47520, Note_on_c, 0, 59, 75
2, 47520, Note_on_c, 0, 62, 75
2, 47520, Note_on_c, 0, 71, 75
2, 47760, Note_on_c, 0, 71, 0
2, 47760, Note_on_c, 0, 62, 0
2, 47760, Note_on_c, 0, 59, 0
2, 47760, Note_on_c, 0, 69, 75
2, 48000, Note_on_c, 0, 69, 0
2, 48000, Note_on_c, 0, 59, 75
2, 48000, Note_on_c, 0, 67, 75
2, 48240, Note_on_c, 0, 67, 0
2, 48240, Note_on_c, 0, 59, 0
2, 48240, Note_on_c, 0, 57, 75
2, 48240, Note_on_c, 0, 66, 75
2, 48480, Note_on_c, 0, 66, 0
2, 48480, Note_on_c, 0, 57, 0
2, 48480, Note_on_c, 0, 64, 75
2, 48720, Note_on_c, 0, 64, 0
2, 48720, Note_on_c, 0, 74, 75
2, 48960, Note_on_c, 0, 74, 0
2, 48960, Note_on_c, 0, 73, 75
2, 49200, Note_on_c, 0, 73, 0
2, 49200, Note_on_c, 0, 71, 75
2, 49440, Note_on_c, 0, 71, 0
2, 49440, Note_on_c, 0, 70, 75
2, 49680, Note_on_c, 0, 70, 0
2, 49680, Note_on_c, 0, 67, 75
2, 49920, Note_on_c, 0, 67, 0
2, 49920, Note_on_c, 0, 66, 75
2, 50160, Note_on_c, 0, 66, 0
2, 50160, Note_on_c, 0, 73, 75
2, 50400, Note_on_c, 0, 73, 0
2, 50400, Note_on_c, 0, 71, 88
2, 50880, Note_on_c, 0, 71, 0
2, 50880, Note_on_c, 0, 70, 88
2, 51360, Note_on_c, 0, 70, 0
2, 51360, Note_on_c, 0, 71, 88
2, 51840, Note_on_c, 0, 71, 0
2, 51840, Note_on_c, 0, 70, 88
2, 51840, Note_on_c, 0, 73, 88
2, 52080, Note_on_c, 0, 73, 0
2, 52080, Note_on_c, 0, 70, 0
2, 52080, Note_on_c, 0, 71, 88
2, 52320, Note_on_c, 0, 71, 0
2, 52320, Note_on_c, 0, 61, 88
2, 52320, Note_on_c, 0, 70, 88
2, 52800, Note_on_c, 0, 70, 0
2, 52800, Note_on_c, 0, 61, 0
2, 52800, Note_on_c, 0, 67, 75
2, 52800, Note_on_c, 0, 71, 75
2, 53040, Note_on_c, 0, 71, 0
2, 53040, Note_on_c, 0, 67, 0
2, 53040, Note_on_c, 0, 64, 75
2, 53040, Note_on_c, 0, 67, 75
2, 53280, Note_on_c, 0, 67, 0
2, 53280, Note_on_c, 0, 64, 0
2, 53280, Note_on_c, 0, 66, 75
2, 54000, Note_on_c, 0, 66, 0
2, 54000, Note_on_c, 0, 66, 75
2, 54240, Note_on_c, 0, 66, 0
2, 54240, Note_on_c, 0, 70, 75
2, 54600, Note_on_c, 0, 70, 0
2, 54600, Note_on_c, 0, 71, 75
2, 54720, Note_on_c, 0, 71, 0
2, 54720, Note_on_c, 0, 71, 62
2, 55200, Note_on_c, 0, 71, 0
2, 56160, Note_on_c, 0, 69, 62
2, 56880, Note_on_c, 0, 69, 0
2, 56880, Note_on_c, 0, 67, 62
2, 57120, Note_on_c, 0, 67, 0
2, 57120, Note_on_c, 0, 66, 62
2, 57360, Note_on_c, 0, 66, 0
2, 57360, Note_on_c, 0, 64, 62
2, 57600, Note_on_c, 0, 64, 0
2, 57600, Note_on_c, 0, 62, 62
2, 58080, Note_on_c, 0, 62, 0
2, 58080, Note_on_c, 0, 62, 62
2, 58560, Note_on_c, 0, 62, 0
2, 58560, Note_on_c, 0, 67, 62
2, 59040, Note_on_c, 0, 67, 0
2, 59040, Note_on_c, 0, 66, 62
2, 59760, Note_on_c, 0, 66, 0
2, 59760, Note_on_c, 0, 64, 62
2, 60000, Note_on_c, 0, 64, 0
2, 60000, Note_on_c, 0, 63, 62
2, 60240, Note_on_c, 0, 63, 0
2, 60240, Note_on_c, 0, 61, 62
2, 60480, Note_on_c, 0, 61, 0
2, 60480, Note_on_c, 0, 59, 62
2, 60960, Note_on_c, 0, 59, 0
2, 60960, Note_on_c, 0, 59, 62
2, 61440, Note_on_c, 0, 59, 0
2, 61440, Note_on_c, 0, 64, 62
2, 61920, Note_on_c, 0, 64, 0
2, 61920, Note_on_c, 0, 62, 62
2, 62640, Note_on_c, 0, 62, 0
2, 62640, Note_on_c, 0, 60, 62
2, 62880, Note_on_c, 0, 60, 0
2, 62880, Note_on_c, 0, 59, 62
2, 63120, Note_on_c, 0, 59, 0
2, 63120, Note_on_c, 0, 60, 62
2, 63360, Note_on_c, 0, 60, 0
2, 63360, Note_on_c, 0, 62, 62
2, 63840, Note_on_c, 0, 62, 0
2, 63840, Note_on_c, 0, 62, 62
2, 64320, Note_on_c, 0, 62, 0
2, 64320, Note_on_c, 0, 67, 62
2, 64800, Note_on_c, 0, 67, 0
2, 64800, Note_on_c, 0, 67, 62
2, 65280, Note_on_c, 0, 67, 0
2, 65280, Note_on_c, 0, 66, 62
2, 65520, Note_on_c, 0, 66, 0
2, 66480, Note_on_c, 0, 62, 75
2, 66720, Note_on_c, 0, 62, 0
2, 66720, Note_on_c, 0, 65, 75
2, 66960, Note_on_c, 0, 65, 0
2, 66960, Note_on_c, 0, 64, 75
2, 67200, Note_on_c, 0, 64, 0
2, 67200, Note_on_c, 0, 65, 75
2, 67440, Note_on_c, 0, 65, 0
2, 67440, Note_on_c, 0, 67, 75
2, 67680, Note_on_c, 0, 67, 0
2, 67680, Note_on_c, 0, 65, 75
2, 68160, Note_on_c, 0, 65, 0
2, 68160, Note_on_c, 0, 64, 75
2, 69360, Note_on_c, 0, 64, 0
2, 69360, Note_on_c, 0, 64, 75
2, 69600, Note_on_c, 0, 64, 0
2, 69600, Note_on_c, 0, 67, 75
2, 69840, Note_on_c, 0, 67, 0
2, 69840, Note_on_c, 0, 66, 75
2, 70080, Note_on_c, 0, 66, 0
2, 70080, Note_on_c, 0, 67, 75
2, 70320, Note_on_c, 0, 67, 0
2, 70320, Note_on_c, 0, 69, 75
2, 70560, Note_on_c, 0, 69, 0
2, 70560, Note_on_c, 0, 67, 75
2, 71040, Note_on_c, 0, 67, 0
2, 71040, Note_on_c, 0, 66, 75
2, 72240, Note_on_c, 0, 66, 0
2, 72240, Note_on_c, 0, 66, 88
2, 72480, Note_on_c, 0, 66, 0
2, 72480, Note_on_c, 0, 69, 88
2, 72720, Note_on_c, 0, 69, 0
2, 72720, Note_on_c, 0, 67, 88
2, 72960, Note_on_c, 0, 67, 0
2, 72960, Note_on_c, 0, 69, 88
2, 73200, Note_on_c, 0, 69, 0
2, 73200, Note_on_c, 0, 71, 88
2, 73440, Note_on_c, 0, 71, 0
2, 73440, Note_on_c, 0, 69, 88
2, 73920, Note_on_c, 0, 69, 0
2, 73920, Note_on_c, 0, 67, 88
2, 74400, Note_on_c, 0, 67, 0
2, 74400, Note_on_c, 0, 67, 88
2, 74880, Note_on_c, 0, 67, 0
2, 74880, Note_on_c, 0, 69, 62
2, 75360, Note_on_c, 0, 69, 0
2, 75360, Note_on_c, 0, 73, 62
2, 75840, Note_on_c, 0, 73, 0
2, 75840, Note_on_c, 0, 78, 62
2, 76320, Note_on_c, 0, 78, 0
2, 76320, Note_on_c, 0, 76, 62
2, 77040, Note_on_c, 0, 76, 0
2, 77040, Note_on_c, 0, 74, 62
2, 77280, Note_on_c, 0, 74, 0
2, 77280, Note_on_c, 0, 73, 62
2, 78000, Note_on_c, 0, 73, 0
2, 78000, Note_on_c, 0, 71, 62
2, 78240, Note_on_c, 0, 71, 0
2, 78240, Note_on_c, 0, 74, 62
2, 78480, Note_on_c, 0, 74, 0
2, 78480, Note_on_c, 0, 73, 62
2, 78720, Note_on_c, 0, 73, 0
2, 78720, Note_on_c, 0, 71, 62
2, 78960, Note_on_c, 0, 71, 0
2, 78960, Note_on_c, 0, 69, 62
2, 79200, Note_on_c, 0, 69, 0
2, 79200, Note_on_c, 0, 68, 62
2, 79680, Note_on_c, 0, 68, 0
2, 79680, Note_on_c, 0, 71, 62
2, 80160, Note_on_c, 0, 71, 0
2, 80160, Note_on_c, 0, 76, 62
2, 80640, Note_on_c, 0, 76, 0
2, 80640, Note_on_c, 0, 74, 75
2, 81120, Note_on_c, 0, 74, 0
2, 81120, Note_on_c, 0, 78, 75
2, 81600, Note_on_c, 0, 78, 0
2, 81600, Note_on_c, 0, 83, 75
2, 82080, Note_on_c, 0, 83, 0
2, 82080, Note_on_c, 0, 81, 88
2, 82800, Note_on_c, 0, 81, 0
2, 82800, Note_on_c, 0, 79, 88
2, 83040, Note_on_c, 0, 79, 0
2, 83040, Note_on_c, 0, 78, 88
2, 83760, Note_on_c, 0, 78, 0
2, 83760, Note_on_c, 0, 76, 88
2, 84000, Note_on_c, 0, 76, 0
2, 84000, Note_on_c, 0, 79, 88
2, 84240, Note_on_c, 0, 79, 0
2, 84240, Note_on_c, 0, 78, 88
2, 84480, Note_on_c, 0, 78, 0
2, 84480, Note_on_c, 0, 76, 88
2, 84720, Note_on_c, 0, 76, 0
2, 84720, Note_on_c, 0, 74, 88
2, 84960, Note_on_c, 0, 74, 0
2, 84960, Note_on_c, 0, 73, 88
2, 85200, Note_on_c, 0, 73, 0
2, 85200, Note_on_c, 0, 69, 88
2, 85440, Note_on_c, 0, 69, 0
2, 85440, Note_on_c, 0, 74, 88
2, 85680, Note_on_c, 0, 74, 0
2, 85680, Note_on_c, 0, 73, 88
2, 85920, Note_on_c, 0, 73, 0
2, 85920, Note_on_c, 0, 71, 75
2, 86160, Note_on_c, 0, 71, 0
2, 86160, Note_on_c, 0, 69, 75
2, 86400, Note_on_c, 0, 69, 0
2, 86400, Note_on_c, 0, 68, 75
2, 87360, Note_on_c, 0, 68, 0
2, 87360, Note_on_c, 0, 67, 75
2, 88320, Note_on_c, 0, 67, 0
2, 88320, Note_on_c, 0, 69, 62
2, 88560, Note_on_c, 0, 69, 0
2, 88560, Note_on_c, 0, 67, 62
2, 88800, Note_on_c, 0, 67, 0
2, 88800, Note_on_c, 0, 66, 62
2, 89520, Note_on_c, 0, 66, 0
2, 89520, Note_on_c, 0, 67, 62
2, 89760, Note_on_c, 0, 67, 0
2, 89760, Note_on_c, 0, 66, 62
2, 90240, Note_on_c, 0, 66, 0
2, 90240, Note_on_c, 0, 64, 62
2, 90720, Note_on_c, 0, 64, 0
2, 90720, Note_on_c, 0, 62, 62
2, 91200, Note_on_c, 0, 62, 0
2, 91200, Note_on_c, 0, 66, 62
2, 91680, Note_on_c, 0, 66, 0
2, 91680, Note_on_c, 0, 71, 75
2, 92160, Note_on_c, 0, 71, 0
2, 92160, Note_on_c, 0, 69, 75
2, 92880, Note_on_c, 0, 69, 0
2, 92880, Note_on_c, 0, 67, 62
2, 93120, Note_on_c, 0, 67, 0
2, 93120, Note_on_c, 0, 66, 62
2, 93360, Note_on_c, 0, 66, 0
2, 93360, Note_on_c, 0, 64, 62
2, 93600, Note_on_c, 0, 64, 0
2, 93600, Note_on_c, 0, 62, 62
2, 94080, Note_on_c, 0, 62, 0
2, 94080, Note_on_c, 0, 66, 62
2, 94560, Note_on_c, 0, 66, 0
2, 94560, Note_on_c, 0, 71, 75
2, 95040, Note_on_c, 0, 71, 0
2, 95040, Note_on_c, 0, 60, 75
2, 95040, Note_on_c, 0, 69, 75
2, 95760, Note_on_c, 0, 69, 0
2, 95760, Note_on_c, 0, 60, 0
2, 95760, Note_on_c, 0, 67, 62
2, 96000, Note_on_c, 0, 67, 0
2, 96000, Note_on_c, 0, 66, 62
2, 96720, Note_on_c, 0, 66, 0
2, 96720, Note_on_c, 0, 64, 62
2, 96960, Note_on_c, 0, 64, 0
2, 96960, Note_on_c, 0, 67, 62
2, 97200, Note_on_c, 0, 67, 0
2, 97200, Note_on_c, 0, 66, 62
2, 97440, Note_on_c, 0, 66, 0
2, 97440, Note_on_c, 0, 64, 62
2, 97680, Note_on_c, 0, 64, 0
2, 97680, Note_on_c, 0, 62, 62
2, 97920, Note_on_c, 0, 62, 0
2, 97920, Note_on_c, 0, 61, 62
2, 98400, Note_on_c, 0, 61, 0
2, 98400, Note_on_c, 0, 60, 62
2, 99840, Note_on_c, 0, 60, 0
2, 99840, Note_on_c, 0, 59, 62
2, 100320, Note_on_c, 0, 59, 0
2, 100320, Note_on_c, 0, 61, 49
2, 100800, Note_on_c, 0, 61, 0
2, 100800, Note_on_c, 0, 62, 49
2, 105600, Note_on_c, 0, 62, 0
2, 105600, Control_c, 0, 64, 127
2, 107040, Control_c, 0, 64, 0
2, 107040, End_track
3, 0, Start_track
3, 0, Title_t, "Grand Piano"
3, 0, Program_c, 0, 0
3, 0, Control_c, 0, 7, 115
3, 0, Control_c, 0, 10, 79
3, 11280, Note_on_c, 0, 67, 62
3, 11760, Note_on_c, 0, 67, 0
3, 11760, Note_on_c, 0, 67, 62
3, 12000, Note_on_c, 0, 67, 0
3, 12000, Note_on_c, 0, 66, 49
3, 12240, Note_on_c, 0, 66, 0
3, 12240, Note_on_c, 0, 64, 49
3, 12480, Note_on_c, 0, 64, 0
3, 14400, Note_on_c, 0, 61, 49
3, 14640, Note_on_c, 0, 61, 0
3, 14640, Note_on_c, 0, 64, 49
3, 14880, Note_on_c, 0, 64, 0
3, 14880, Note_on_c, 0, 69, 49
3, 15120, Note_on_c, 0, 69, 0
3, 15120, Note_on_c, 0, 67, 49
3, 15360, Note_on_c, 0, 67, 0
3, 15360, Note_on_c, 0, 66, 49
3, 15600, Note_on_c, 0, 66, 0
3, 15600, Note_on_c, 0, 74, 49
3, 16080, Note_on_c, 0, 74, 0
3, 16080, Note_on_c, 0, 74, 49
3, 16320, Note_on_c, 0, 74, 0
3, 16320, Note_on_c, 0, 69, 49
3, 16320, Note_on_c, 0, 73, 49
3, 16560, Note_on_c, 0, 73, 0
3, 16560, Note_on_c, 0, 69, 0
3, 16560, Note_on_c, 0, 64, 49
3, 16560, Note_on_c, 0, 71, 49
3, 16800, Note_on_c, 0, 71, 0
3, 16800, Note_on_c, 0, 64, 0
3, 16800, Note_on_c, 0, 66, 49
3, 16800, Note_on_c, 0, 69, 49
3, 17040, Note_on_c, 0, 69, 0
3, 17040, Note_on_c, 0, 66, 0
3, 17040, Note_on_c, 0, 64, 49
3, 17040, Note_on_c, 0, 67, 49
3, 17280, Note_on_c, 0, 67, 0
3, 17280, Note_on_c, 0, 64, 0
3, 17280, Note_on_c, 0, 62, 49
3, 17280, Note_on_c, 0, 66, 49
3, 18000, Note_on_c, 0, 66, 0
3, 18000, Note_on_c, 0, 62, 0
3, 18000, Note_on_c, 0, 64, 49
3, 18240, Note_on_c, 0, 64, 0
3, 18240, Note_on_c, 0, 62, 49
3, 18240, Note_on_c, 0, 66, 49
3, 18960, Note_on_c, 0, 66, 0
3, 18960, Note_on_c, 0, 62, 0
3, 18960, Note_on_c, 0, 66, 49
3, 19200, Note_on_c, 0, 66, 0
3, 19200, Note_on_c, 0, 64, 49
3, 19440, Note_on_c, 0, 64, 0
3, 19440, Note_on_c, 0, 68, 49
3, 19680, Note_on_c, 0, 68, 0
3, 19680, Note_on_c, 0, 69, 49
3, 20160, Note_on_c, 0, 69, 0
3, 20160, Note_on_c, 0, 69, 49
3, 21840, Note_on_c, 0, 69, 0
3, 21840, Note_on_c, 0, 66, 49
3, 22080, Note_on_c, 0, 66, 0
3, 22080, Note_on_c, 0, 71, 49
3, 22320, Note_on_c, 0, 71, 0
3, 22320, Note_on_c, 0, 69, 49
3, 22320, Note_on_c, 0, 73, 49
3, 22560, Note_on_c, 0, 73, 0
3, 22560, Note_on_c, 0, 69, 0
3, 22560, Note_on_c, 0, 68, 49
3, 22560, Note_on_c, 0, 71, 49
3, 22800, Note_on_c, 0, 71, 0
3, 22800, Note_on_c, 0, 68, 0
3, 22800, Note_on_c, 0, 66, 49
3, 22800, Note_on_c, 0, 69, 49
3, 23040, Note_on_c, 0, 69, 0
3, 23040, Note_on_c, 0, 66, 0
3, 23040, Note_on_c, 0, 68, 49
3, 23280, Note_on_c, 0, 68, 0
3, 23280, Note_on_c, 0, 66, 49
3, 23520, Note_on_c, 0, 66, 0
3, 23520, Note_on_c, 0, 64, 49
3, 24480, Note_on_c, 0, 64, 0
3, 24480, Note_on_c, 0, 62, 49
3, 24720, Note_on_c, 0, 62, 0
3, 24720, Note_on_c, 0, 69, 49
3, 24960, Note_on_c, 0, 69, 0
3, 24960, Note_on_c, 0, 68, 49
3, 25200, Note_on_c, 0, 68, 0
3, 25200, Note_on_c, 0, 66, 49
3, 25440, Note_on_c, 0, 66, 0
3, 25440, Note_on_c, 0, 65, 49
3, 25680, Note_on_c, 0, 65, 0
3, 25680, Note_on_c, 0, 71, 49
3, 25920, Note_on_c, 0, 71, 0
3, 25920, Note_on_c, 0, 69, 49
3, 26640, Note_on_c, 0, 69, 0
3, 26640, Note_on_c, 0, 69, 62
3, 26880, Note_on_c, 0, 69, 0
3, 26880, Note_on_c, 0, 71, 62
3, 27120, Note_on_c, 0, 71, 0
3, 27120, Note_on_c, 0, 73, 62
3, 27360, Note_on_c, 0, 73, 0
3, 27360, Note_on_c, 0, 66, 62
3, 27600, Note_on_c, 0, 66, 0
3, 27600, Note_on_c, 0, 68, 62
3, 27840, Note_on_c, 0, 68, 0
3, 27840, Note_on_c, 0, 69, 62
3, 28560, Note_on_c, 0, 69, 0
3, 28560, Note_on_c, 0, 62, 62
3, 28800, Note_on_c, 0, 62, 0
3, 28800, Note_on_c, 0, 71, 62
3, 29040, Note_on_c, 0, 71, 0
3, 29040, Note_on_c, 0, 69, 62
3, 29280, Note_on_c, 0, 69, 0
3, 29280, Note_on_c, 0, 68, 75
3, 29760, Note_on_c, 0, 68, 0
3, 29760, Note_on_c, 0, 69, 75
3, 30000, Note_on_c, 0, 69, 0
3, 30000, Note_on_c, 0, 68, 75
3, 30240, Note_on_c, 0, 68, 0
3, 30240, Note_on_c, 0, 66, 75
3, 30720, Note_on_c, 0, 66, 0
3, 30720, Note_on_c, 0, 68, 75
3, 30960, Note_on_c, 0, 68, 0
3, 30960, Note_on_c, 0, 66, 75
3, 31200, Note_on_c, 0, 66, 0
3, 31200, Note_on_c, 0, 64, 62
3, 31440, Note_on_c, 0, 64, 0
3, 31440, Note_on_c, 0, 62, 62
3, 31680, Note_on_c, 0, 62, 0
3, 31680, Note_on_c, 0, 61, 49
3, 32160, Note_on_c, 0, 61, 0
3, 32160, Note_on_c, 0, 61, 49
3, 32400, Note_on_c, 0, 61, 0
3, 32400, Note_on_c, 0, 64, 49
3, 32640, Note_on_c, 0, 64, 0
3, 32640, Note_on_c, 0, 69, 49
3, 32880, Note_on_c, 0, 69, 0
3, 32880, Note_on_c, 0, 67, 49
3, 33120, Note_on_c, 0, 67, 0
3, 33120, Note_on_c, 0, 66, 49
3, 33360, Note_on_c, 0, 66, 0
3, 33360, Note_on_c, 0, 64, 49
3, 33600, Note_on_c, 0, 64, 0
3, 33600, Note_on_c, 0, 66, 49
3, 33840, Note_on_c, 0, 66, 0
3, 33840, Note_on_c, 0, 63, 49
3, 34080, Note_on_c, 0, 63, 0
3, 34080, Note_on_c, 0, 64, 49
3, 34320, Note_on_c, 0, 64, 0
3, 34320, Note_on_c, 0, 66, 49
3, 34560, Note_on_c, 0, 66, 0
3, 34560, Note_on_c, 0, 64, 62
3, 34800, Note_on_c, 0, 64, 0
3, 34800, Note_on_c, 0, 60, 62
3, 35040, Note_on_c, 0, 60, 0
3, 35040, Note_on_c, 0, 59, 62
3, 35280, Note_on_c, 0, 59, 0
3, 35280, Note_on_c, 0, 57, 62
3, 35520, Note_on_c, 0, 57, 0
3, 35520, Note_on_c, 0, 59, 62
3, 35760, Note_on_c, 0, 59, 0
3, 35760, Note_on_c, 0, 66, 62
3, 36240, Note_on_c, 0, 66, 0
3, 36240, Note_on_c, 0, 67, 62
3, 36480, Note_on_c, 0, 67, 0
3, 36480, Note_on_c, 0, 66, 75
3, 36720, Note_on_c, 0, 69, 75
3, 36960, Note_on_c, 0, 69, 0
3, 36960, Note_on_c, 0, 66, 0
3, 36960, Note_on_c, 0, 67, 75
3, 37200, Note_on_c, 0, 67, 0
3, 37200, Note_on_c, 0, 71, 75
3, 37440, Note_on_c, 0, 71, 0
3, 37440, Note_on_c, 0, 70, 75
3, 38400, Note_on_c, 0, 70, 0
3, 38400, Note_on_c, 0, 71, 62
3, 39360, Note_on_c, 0, 71, 0
3, 39360, Note_on_c, 0, 67, 62
3, 39600, Note_on_c, 0, 67, 0
3, 39600, Note_on_c, 0, 71, 62
3, 39840, Note_on_c, 0, 71, 0
3, 39840, Note_on_c, 0, 70, 62
3, 40080, Note_on_c, 0, 70, 0
3, 40080, Note_on_c, 0, 71, 62
3, 40320, Note_on_c, 0, 71, 0
3, 41760, Note_on_c, 0, 74, 75
3, 42240, Note_on_c, 0, 74, 0
3, 42240, Note_on_c, 0, 73, 75
3, 42480, Note_on_c, 0, 73, 0
3, 42480, Note_on_c, 0, 65, 75
3, 42480, Note_on_c, 0, 68, 75
3, 42720, Note_on_c, 0, 68, 0
3, 42720, Note_on_c, 0, 65, 0
3, 42720, Note_on_c, 0, 73, 75
3, 42960, Note_on_c, 0, 73, 0
3, 42960, Note_on_c, 0, 71, 75
3, 43200, Note_on_c, 0, 71, 0
3, 45600, Note_on_c, 0, 64, 75
3, 45840, Note_on_c, 0, 64, 0
3, 45840, Note_on_c, 0, 63, 75
3, 45840, Note_on_c, 0, 66, 75
3, 46080, Note_on_c, 0, 66, 0
3, 46080, Note_on_c, 0, 63, 0
3, 46080, Note_on_c, 0, 62, 75
3, 46080, Note_on_c, 0, 68, 75
3, 46560, Note_on_c, 0, 68, 0
3, 46560, Note_on_c, 0, 62, 0
3, 48480, Note_on_c, 0, 64, 62
3, 48960, Note_on_c, 0, 64, 0
3, 48960, Note_on_c, 0, 64, 62
3, 49200, Note_on_c, 0, 64, 0
3, 49200, Note_on_c, 0, 67, 62
3, 49440, Note_on_c, 0, 67, 0
3, 49440, Note_on_c, 0, 66, 62
3, 49680, Note_on_c, 0, 66, 0
3, 49680, Note_on_c, 0, 64, 62
3, 49920, Note_on_c, 0, 64, 0
3, 49920, Note_on_c, 0, 66, 62
3, 50400, Note_on_c, 0, 66, 0
3, 50400, Note_on_c, 0, 66, 75
3, 50400, Note_on_c, 0, 78, 75
3, 50640, Note_on_c, 0, 78, 0
3, 50640, Note_on_c, 0, 66, 0
3, 50640, Note_on_c, 0, 67, 75
3, 50640, Note_on_c, 0, 76, 75
3, 50880, Note_on_c, 0, 76, 0
3, 50880, Note_on_c, 0, 67, 0
3, 50880, Note_on_c, 0, 66, 75
3, 50880, Note_on_c, 0, 74, 75
3, 51120, Note_on_c, 0, 74, 0
3, 51120, Note_on_c, 0, 66, 0
3, 51120, Note_on_c, 0, 64, 75
3, 51120, Note_on_c, 0, 73, 75
3, 51360, Note_on_c, 0, 73, 0
3, 51360, Note_on_c, 0, 64, 0
3, 51360, Note_on_c, 0, 67, 75
3, 51360, Note_on_c, 0, 76, 75
3, 51600, Note_on_c, 0, 76, 0
3, 51600, Note_on_c, 0, 67, 0
3, 51600, Note_on_c, 0, 66, 75
3, 51600, Note_on_c, 0, 74, 75
3, 51840, Note_on_c, 0, 74, 0
3, 51840, Note_on_c, 0, 66, 0
3, 51840, Note_on_c, 0, 64, 75
3, 52080, Note_on_c, 0, 64, 0
3, 52080, Note_on_c, 0, 62, 75
3, 52320, Note_on_c, 0, 62, 0
3, 52320, Note_on_c, 0, 64, 75
3, 52560, Note_on_c, 0, 64, 0
3, 52560, Note_on_c, 0, 66, 62
3, 52800, Note_on_c, 0, 66, 0
3, 53280, Note_on_c, 0, 58, 62
3, 53280, Note_on_c, 0, 61, 62
3, 53520, Note_on_c, 0, 61, 0
3, 53520, Note_on_c, 0, 58, 0
3, 53520, Note_on_c, 0, 59, 62
3, 53760, Note_on_c, 0, 59, 0
3, 53760, Note_on_c, 0, 62, 62
3, 54000, Note_on_c, 0, 62, 0
3, 54000, Note_on_c, 0, 61, 62
3, 54240, Note_on_c, 0, 61, 0
3, 54240, Note_on_c, 0, 66, 62
3, 54480, Note_on_c, 0, 66, 0
3, 54480, Note_on_c, 0, 64, 62
3, 54720, Note_on_c, 0, 64, 0
3, 54720, Note_on_c, 0, 62, 49
3, 55200, Note_on_c, 0, 62, 0
3, 55200, Note_on_c, 0, 62, 49
3, 55200, Note_on_c, 0, 66, 49
3, 55680, Note_on_c, 0, 66, 0
3, 55680, Note_on_c, 0, 71, 49
3, 56160, Note_on_c, 0, 71, 0
3, 56400, Note_on_c, 0, 62, 0
3, 56400, Note_on_c, 0, 57, 49
3, 56640, Note_on_c, 0, 57, 0
3, 56640, Note_on_c, 0, 60, 49
3, 57840, Note_on_c, 0, 60, 0
3, 57840, Note_on_c, 0, 60, 49
3, 58080, Note_on_c, 0, 60, 0
3, 58080, Note_on_c, 0, 59, 49
3, 58320, Note_on_c, 0, 59, 0
3, 58320, Note_on_c, 0, 57, 49
3, 58560, Note_on_c, 0, 57, 0
3, 58560, Note_on_c, 0, 59, 49
3, 58800, Note_on_c, 0, 59, 0
3, 58800, Note_on_c, 0, 60, 49
3, 59040, Note_on_c, 0, 60, 0
3, 67200, Note_on_c, 0, 62, 62
3, 67920, Note_on_c, 0, 62, 0
3, 67920, Note_on_c, 0, 59, 62
3, 68160, Note_on_c, 0, 59, 0
3, 68160, Note_on_c, 0, 64, 62
3, 68400, Note_on_c, 0, 64, 0
3, 68400, Note_on_c, 0, 62, 62
3, 68640, Note_on_c, 0, 62, 0
3, 68640, Note_on_c, 0, 61, 62
3, 68880, Note_on_c, 0, 61, 0
3, 68880, Note_on_c, 0, 59, 62
3, 69120, Note_on_c, 0, 59, 0
3, 69120, Note_on_c, 0, 58, 62
3, 69600, Note_on_c, 0, 58, 0
3, 70080, Note_on_c, 0, 64, 62
3, 70800, Note_on_c, 0, 64, 0
3, 70800, Note_on_c, 0, 61, 62
3, 71040, Note_on_c, 0, 61, 0
3, 71040, Note_on_c, 0, 66, 62
3, 71280, Note_on_c, 0, 66, 0
3, 71280, Note_on_c, 0, 64, 62
3, 71520, Note_on_c, 0, 64, 0
3, 71520, Note_on_c, 0, 63, 62
3, 71760, Note_on_c, 0, 63, 0
3, 71760, Note_on_c, 0, 61, 62
3, 72000, Note_on_c, 0, 61, 0
3, 72000, Note_on_c, 0, 59, 62
3, 72480, Note_on_c, 0, 59, 0
3, 72960, Note_on_c, 0, 63, 75
3, 72960, Note_on_c, 0, 66, 75
3, 73680, Note_on_c, 0, 66, 0
3, 73680, Note_on_c, 0, 63, 0
3, 73680, Note_on_c, 0, 59, 75
3, 73920, Note_on_c, 0, 59, 0
3, 73920, Note_on_c, 0, 67, 75
3, 74160, Note_on_c, 0, 67, 0
3, 74160, Note_on_c, 0, 66, 75
3, 74400, Note_on_c, 0, 66, 0
3, 74400, Note_on_c, 0, 64, 75
3, 74640, Note_on_c, 0, 64, 0
3, 74640, Note_on_c, 0, 62, 75
3, 74880, Note_on_c, 0, 62, 0
3, 74880, Note_on_c, 0, 67, 49
3, 75120, Note_on_c, 0, 67, 0
3, 75120, Note_on_c, 0, 64, 49
3, 75360, Note_on_c, 0, 64, 0
3, 75360, Note_on_c, 0, 69, 49
3, 75600, Note_on_c, 0, 69, 0
3, 75600, Note_on_c, 0, 67, 49
3, 75840, Note_on_c, 0, 67, 0
3, 75840, Note_on_c, 0, 66, 49
3, 76080, Note_on_c, 0, 66, 0
3, 76080, Note_on_c, 0, 69, 49
3, 76320, Note_on_c, 0, 69, 0
3, 76320, Note_on_c, 0, 67, 49
3, 77040, Note_on_c, 0, 67, 0
3, 77040, Note_on_c, 0, 66, 49
3, 77280, Note_on_c, 0, 66, 0
3, 77280, Note_on_c, 0, 67, 49
3, 77520, Note_on_c, 0, 67, 0
3, 77520, Note_on_c, 0, 69, 49
3, 77760, Note_on_c, 0, 69, 0
3, 77760, Note_on_c, 0, 66, 49
3, 79200, Note_on_c, 0, 66, 0
3, 79200, Note_on_c, 0, 64, 49
3, 79680, Note_on_c, 0, 64, 0
3, 79680, Note_on_c, 0, 68, 49
3, 80160, Note_on_c, 0, 68, 0
3, 80160, Note_on_c, 0, 69, 49
3, 81120, Note_on_c, 0, 69, 0
3, 82080, Note_on_c, 0, 69, 75
3, 82560, Note_on_c, 0, 69, 0
3, 82560, Note_on_c, 0, 73, 75
3, 83040, Note_on_c, 0, 73, 0
3, 83040, Note_on_c, 0, 76, 75
3, 83520, Note_on_c, 0, 76, 0
3, 83520, Note_on_c, 0, 74, 75
3, 84240, Note_on_c, 0, 74, 0
3, 84240, Note_on_c, 0, 73, 75
3, 84480, Note_on_c, 0, 73, 0
3, 84480, Note_on_c, 0, 71, 75
3, 84960, Note_on_c, 0, 64, 75
3, 85200, Note_on_c, 0, 64, 0
3, 85200, Note_on_c, 0, 71, 0
3, 85200, Note_on_c, 0, 69, 75
3, 85440, Note_on_c, 0, 69, 0
3, 85440, Note_on_c, 0, 62, 75
3, 85920, Note_on_c, 0, 62, 0
3, 85920, Note_on_c, 0, 62, 62
3, 86640, Note_on_c, 0, 62, 0
3, 86640, Note_on_c, 0, 59, 62
3, 86880, Note_on_c, 0, 59, 0
3, 86880, Note_on_c, 0, 64, 62
3, 87120, Note_on_c, 0, 64, 0
3, 87120, Note_on_c, 0, 62, 62
3, 87360, Note_on_c, 0, 62, 0
3, 87360, Note_on_c, 0, 61, 62
3, 87600, Note_on_c, 0, 61, 0
3, 87600, Note_on_c, 0, 59, 62
3, 87840, Note_on_c, 0, 59, 0
3, 87840, Note_on_c, 0, 57, 62
3, 88080, Note_on_c, 0, 57, 0
3, 88080, Note_on_c, 0, 64, 62
3, 88320, Note_on_c, 0, 64, 0
3, 88320, Note_on_c, 0, 66, 49
3, 88560, Note_on_c, 0, 66, 0
3, 88560, Note_on_c, 0, 64, 49
3, 88800, Note_on_c, 0, 64, 0
3, 88800, Note_on_c, 0, 62, 49
3, 89040, Note_on_c, 0, 62, 0
3, 89040, Note_on_c, 0, 64, 49
3, 89280, Note_on_c, 0, 64, 0
3, 89280, Note_on_c, 0, 62, 49
3, 90240, Note_on_c, 0, 62, 0
3, 90240, Note_on_c, 0, 60, 49
3, 90960, Note_on_c, 0, 60, 0
3, 90960, Note_on_c, 0, 57, 49
3, 91200, Note_on_c, 0, 57, 0
3, 91200, Note_on_c, 0, 62, 49
3, 91440, Note_on_c, 0, 62, 0
3, 91440, Note_on_c, 0, 60, 49
3, 91680, Note_on_c, 0, 60, 0
3, 91680, Note_on_c, 0, 59, 62
3, 91920, Note_on_c, 0, 59, 0
3, 91920, Note_on_c, 0, 67, 62
3, 92160, Note_on_c, 0, 67, 0
3, 92160, Note_on_c, 0, 60, 62
3, 92160, Note_on_c, 0, 66, 62
3, 92640, Note_on_c, 0, 66, 0
3, 92640, Note_on_c, 0, 60, 0
3, 92640, Note_on_c, 0, 57, 62
3, 92880, Note_on_c, 0, 57, 0
3, 92880, Note_on_c, 0, 59, 49
3, 93120, Note_on_c, 0, 59, 0
3, 93120, Note_on_c, 0, 60, 49
3, 93840, Note_on_c, 0, 60, 0
3, 93840, Note_on_c, 0, 57, 49
3, 94080, Note_on_c, 0, 57, 0
3, 94080, Note_on_c, 0, 62, 49
3, 94320, Note_on_c, 0, 62, 0
3, 94320, Note_on_c, 0, 60, 49
3, 94560, Note_on_c, 0, 60, 0
3, 94560, Note_on_c, 0, 59, 62
3, 94800, Note_on_c, 0, 59, 0
3, 94800, Note_on_c, 0, 67, 62
3, 95040, Note_on_c, 0, 67, 0
3, 95040, Note_on_c, 0, 66, 62
3, 95280, Note_on_c, 0, 66, 0
3, 95280, Note_on_c, 0, 64, 62
3, 95520, Note_on_c, 0, 64, 0
3, 95520, Note_on_c, 0, 66, 62
3, 95760, Note_on_c, 0, 66, 0
3, 95760, Note_on_c, 0, 57, 49
3, 96000, Note_on_c, 0, 57, 0
3, 96000, Note_on_c, 0, 62, 49
3, 96240, Note_on_c, 0, 62, 0
3, 96240, Note_on_c, 0, 60, 49
3, 96480, Note_on_c, 0, 60, 0
3, 96480, End_track
4, 0, Start_track
4, 0, Title_t, "Grand Piano"
4, 0, Program_c, 0, 0
4, 0, Control_c, 0, 7, 115
4, 0, Control_c, 0, 10, 48
4, 0, Note_on_c, 0, 50, 62
4, 480, Note_on_c, 0, 50, 0
4, 480, Note_on_c, 0, 54, 62
4, 960, Note_on_c, 0, 54, 0
4, 960, Note_on_c, 0, 59, 75
4, 1440, Note_on_c, 0, 59, 0
4, 1440, Note_on_c, 0, 57, 75
4, 2160, Note_on_c, 0, 57, 0
4, 2160, Note_on_c, 0, 55, 62
4, 2400, Note_on_c, 0, 55, 0
4, 2400, Note_on_c, 0, 54, 62
4, 3120, Note_on_c, 0, 54, 0
4, 3120, Note_on_c, 0, 52, 62
4, 3360, Note_on_c, 0, 52, 0
4, 3360, Note_on_c, 0, 55, 62
4, 3600, Note_on_c, 0, 55, 0
4, 3600, Note_on_c, 0, 54, 62
4, 3840, Note_on_c, 0, 54, 0
4, 3840, Note_on_c, 0, 52, 62
4, 4080, Note_on_c, 0, 52, 0
4, 4080, Note_on_c, 0, 50, 62
4, 4320, Note_on_c, 0, 50, 0
4, 4320, Note_on_c, 0, 49, 49
4, 4560, Note_on_c, 0, 49, 0
4, 4560, Note_on_c, 0, 55, 49
4, 4800, Note_on_c, 0, 55, 0
4, 4800, Note_on_c, 0, 54, 49
4, 5040, Note_on_c, 0, 54, 0
4, 5040, Note_on_c, 0, 52, 49
4, 5280, Note_on_c, 0, 52, 0
4, 5280, Note_on_c, 0, 50, 49
4, 5520, Note_on_c, 0, 50, 0
4, 5520, Note_on_c, 0, 62, 49
4, 6000, Note_on_c, 0, 62, 0
4, 6000, Note_on_c, 0, 62, 49
4, 6240, Note_on_c, 0, 62, 0
4, 6240, Note_on_c, 0, 61, 49
4, 6480, Note_on_c, 0, 61, 0
4, 6480, Note_on_c, 0, 59, 49
4, 6720, Note_on_c, 0, 59, 0
4, 6720, Note_on_c, 0, 57, 49
4, 6960, Note_on_c, 0, 57, 0
4, 6960, Note_on_c, 0, 54, 49
4, 7200, Note_on_c, 0, 54, 0
4, 7200, Note_on_c, 0, 50, 49
4, 7680, Note_on_c, 0, 50, 0
4, 8400, Note_on_c, 0, 54, 49
4, 8640, Note_on_c, 0, 54, 0
4, 8640, Note_on_c, 0, 52, 49
4, 8880, Note_on_c, 0, 52, 0
4, 8880, Note_on_c, 0, 50, 49
4, 9120, Note_on_c, 0, 50, 0
4, 9120, Note_on_c, 0, 49, 49
4, 9360, Note_on_c, 0, 49, 0
4, 9360, Note_on_c, 0, 52, 49
4, 9600, Note_on_c, 0, 52, 0
4, 9600, Note_on_c, 0, 57, 49
4, 9840, Note_on_c, 0, 57, 0
4, 9840, Note_on_c, 0, 55, 49
4, 10080, Note_on_c, 0, 55, 0
4, 10080, Note_on_c, 0, 57, 49
4, 10320, Note_on_c, 0, 57, 0
4, 10320, Note_on_c, 0, 60, 49
4, 10560, Note_on_c, 0, 60, 0
4, 10560, Note_on_c, 0, 59, 49
4, 10800, Note_on_c, 0, 59, 0
4, 10800, Note_on_c, 0, 57, 49
4, 11040, Note_on_c, 0, 57, 0
4, 11040, Note_on_c, 0, 55, 49
4, 11280, Note_on_c, 0, 55, 0
4, 11280, Note_on_c, 0, 64, 49
4, 11520, Note_on_c, 0, 64, 0
4, 11520, Note_on_c, 0, 61, 49
4, 12000, Note_on_c, 0, 61, 0
4, 12000, Note_on_c, 0, 62, 49
4, 12240, Note_on_c, 0, 62, 0
4, 12240, Note_on_c, 0, 58, 49
4, 12480, Note_on_c, 0, 58, 0
4, 12480, Note_on_c, 0, 62, 49
4, 12720, Note_on_c, 0, 62, 0
4, 12720, Note_on_c, 0, 61, 49
4, 12960, Note_on_c, 0, 61, 0
4, 12960, Note_on_c, 0, 59, 49
4, 13680, Note_on_c, 0, 59, 0
4, 13680, Note_on_c, 0, 57, 49
4, 13920, Note_on_c, 0, 57, 0
4, 13920, Note_on_c, 0, 55, 49
4, 14160, Note_on_c, 0, 55, 0
4, 14160, Note_on_c, 0, 59, 49
4, 14400, Note_on_c, 0, 59, 0
4, 14400, Note_on_c, 0, 57, 49
4, 14880, Note_on_c, 0, 57, 0
4, 15120, Note_on_c, 0, 57, 49
4, 15360, Note_on_c, 0, 57, 0
4, 15360, Note_on_c, 0, 62, 49
4, 15600, Note_on_c, 0, 62, 0
4, 15600, Note_on_c, 0, 59, 49
4, 15840, Note_on_c, 0, 59, 0
4, 15840, Note_on_c, 0, 52, 49
4, 16320, Note_on_c, 0, 52, 0
4, 16320, Note_on_c, 0, 54, 49
4, 16560, Note_on_c, 0, 54, 0
4, 16560, Note_on_c, 0, 56, 49
4, 16800, Note_on_c, 0, 56, 0
4, 16800, Note_on_c, 0, 57, 49
4, 17280, Note_on_c, 0, 57, 0
4, 17280, Note_on_c, 0, 50, 49
4, 17760, Note_on_c, 0, 50, 0
4, 17760, Note_on_c, 0, 54, 49
4, 18240, Note_on_c, 0, 54, 0
4, 18240, Note_on_c, 0, 59, 49
4, 18720, Note_on_c, 0, 59, 0
4, 18720, Note_on_c, 0, 52, 49
4, 18960, Note_on_c, 0, 52, 0
4, 18960, Note_on_c, 0, 62, 49
4, 19200, Note_on_c, 0, 62, 0
4, 19200, Note_on_c, 0, 61, 49
4, 19440, Note_on_c, 0, 61, 0
4, 19440, Note_on_c, 0, 59, 49
4, 19680, Note_on_c, 0, 59, 0
4, 19680, Note_on_c, 0, 57, 49
4, 19920, Note_on_c, 0, 57, 0
4, 19920, Note_on_c, 0, 56, 49
4, 20160, Note_on_c, 0, 56, 0
4, 20160, Note_on_c, 0, 54, 49
4, 20400, Note_on_c, 0, 54, 0
4, 20400, Note_on_c, 0, 61, 49
4, 20640, Note_on_c, 0, 61, 0
4, 20640, Note_on_c, 0, 66, 49
4, 20880, Note_on_c, 0, 66, 0
4, 20880, Note_on_c, 0, 64, 49
4, 21120, Note_on_c, 0, 64, 0
4, 21120, Note_on_c, 0, 63, 49
4, 21360, Note_on_c, 0, 63, 0
4, 21360, Note_on_c, 0, 61, 49
4, 21600, Note_on_c, 0, 61, 0
4, 21600, Note_on_c, 0, 59, 49
4, 22320, Note_on_c, 0, 59, 0
4, 23040, Note_on_c, 0, 52, 49
4, 23520, Note_on_c, 0, 52, 0
4, 23520, Note_on_c, 0, 56, 49
4, 24000, Note_on_c, 0, 56, 0
4, 24000, Note_on_c, 0, 61, 49
4, 24480, Note_on_c, 0, 61, 0
4, 24480, Note_on_c, 0, 59, 49
4, 25200, Note_on_c, 0, 59, 0
4, 25200, Note_on_c, 0, 57, 49
4, 25440, Note_on_c, 0, 57, 0
4, 25440, Note_on_c, 0, 56, 49
4, 26160, Note_on_c, 0, 56, 0
4, 26160, Note_on_c, 0, 54, 49
4, 26400, Note_on_c, 0, 54, 0
4, 26400, Note_on_c, 0, 57, 49
4, 26640, Note_on_c, 0, 57, 0
4, 26640, Note_on_c, 0, 56, 62
4, 26880, Note_on_c, 0, 56, 0
4, 26880, Note_on_c, 0, 54, 62
4, 27120, Note_on_c, 0, 54, 0
4, 27120, Note_on_c, 0, 52, 62
4, 27360, Note_on_c, 0, 52, 0
4, 27360, Note_on_c, 0, 57, 62
4, 27840, Note_on_c, 0, 57, 0
4, 27840, Note_on_c, 0, 61, 62
4, 28320, Note_on_c, 0, 61, 0
4, 28320, Note_on_c, 0, 66, 62
4, 28800, Note_on_c, 0, 66, 0
4, 28800, Note_on_c, 0, 64, 62
4, 29520, Note_on_c, 0, 64, 0
4, 29520, Note_on_c, 0, 62, 75
4, 29760, Note_on_c, 0, 62, 0
4, 29760, Note_on_c, 0, 61, 75
4, 30480, Note_on_c, 0, 61, 0
4, 30480, Note_on_c, 0, 59, 75
4, 30720, Note_on_c, 0, 59, 0
4, 30720, Note_on_c, 0, 64, 75
4, 30960, Note_on_c, 0, 64, 0
4, 30960, Note_on_c, 0, 62, 75
4, 31200, Note_on_c, 0, 62, 0
4, 31200, Note_on_c, 0, 61, 62
4, 31440, Note_on_c, 0, 61, 0
4, 31440, Note_on_c, 0, 59, 62
4, 31680, Note_on_c, 0, 59, 0
4, 31680, Note_on_c, 0, 57, 49
4, 32160, Note_on_c, 0, 57, 0
4, 33600, Note_on_c, 0, 51, 49
4, 33840, Note_on_c, 0, 51, 0
4, 33840, Note_on_c, 0, 54, 49
4, 34080, Note_on_c, 0, 54, 0
4, 34080, Note_on_c, 0, 59, 49
4, 34320, Note_on_c, 0, 59, 0
4, 34320, Note_on_c, 0, 57, 49
4, 34560, Note_on_c, 0, 57, 0
4, 34560, Note_on_c, 0, 55, 62
4, 34800, Note_on_c, 0, 55, 0
4, 34800, Note_on_c, 0, 51, 62
4, 35040, Note_on_c, 0, 51, 0
4, 35040, Note_on_c, 0, 52, 62
4, 35280, Note_on_c, 0, 52, 0
4, 35280, Note_on_c, 0, 54, 62
4, 35520, Note_on_c, 0, 54, 0
4, 35520, Note_on_c, 0, 55, 62
4, 35760, Note_on_c, 0, 55, 0
4, 35760, Note_on_c, 0, 59, 62
4, 36000, Note_on_c, 0, 59, 0
4, 36000, Note_on_c, 0, 64, 62
4, 36480, Note_on_c, 0, 64, 0
4, 36480, Note_on_c, 0, 59, 75
4, 36960, Note_on_c, 0, 59, 0
4, 36960, Note_on_c, 0, 64, 75
4, 37200, Note_on_c, 0, 64, 0
4, 37200, Note_on_c, 0, 62, 75
4, 37440, Note_on_c, 0, 62, 0
4, 37440, Note_on_c, 0, 61, 75
4, 37680, Note_on_c, 0, 61, 0
4, 37680, Note_on_c, 0, 64, 75
4, 37920, Note_on_c, 0, 64, 0
4, 37920, Note_on_c, 0, 62, 75
4, 38160, Note_on_c, 0, 62, 0
4, 38160, Note_on_c, 0, 61, 62
4, 38400, Note_on_c, 0, 61, 0
4, 38400, Note_on_c, 0, 59, 62
4, 38640, Note_on_c, 0, 59, 0
4, 38640, Note_on_c, 0, 57, 62
4, 38880, Note_on_c, 0, 57, 0
4, 38880, Note_on_c, 0, 55, 62
4, 39360, Note_on_c, 0, 55, 0
4, 39360, Note_on_c, 0, 59, 62
4, 39840, Note_on_c, 0, 59, 0
4, 39840, Note_on_c, 0, 64, 62
4, 40320, Note_on_c, 0, 64, 0
4, 40560, Note_on_c, 0, 49, 88
4, 40800, Note_on_c, 0, 49, 0
4, 40800, Note_on_c, 0, 54, 88
4, 41040, Note_on_c, 0, 54, 0
4, 41040, Note_on_c, 0, 52, 88
4, 41280, Note_on_c, 0, 52, 0
4, 41280, Note_on_c, 0, 50, 88
4, 41520, Note_on_c, 0, 50, 0
4, 41520, Note_on_c, 0, 49, 88
4, 41760, Note_on_c, 0, 49, 0
4, 41760, Note_on_c, 0, 47, 88
4, 42000, Note_on_c, 0, 47, 0
4, 42000, Note_on_c, 0, 56, 88
4, 42240, Note_on_c, 0, 56, 0
4, 42240, Note_on_c, 0, 61, 88
4, 42480, Note_on_c, 0, 61, 0
4, 42480, Note_on_c, 0, 59, 88
4, 42720, Note_on_c, 0, 59, 0
4, 42720, Note_on_c, 0, 58, 88
4, 42960, Note_on_c, 0, 58, 0
4, 42960, Note_on_c, 0, 56, 88
4, 43200, Note_on_c, 0, 56, 0
4, 43200, Note_on_c, 0, 54, 88
4, 43440, Note_on_c, 0, 54, 0
4, 43440, Note_on_c, 0, 49, 88
4, 43680, Note_on_c, 0, 49, 0
4, 43680, Note_on_c, 0, 54, 88
4, 43920, Note_on_c, 0, 54, 0
4, 43920, Note_on_c, 0, 52, 88
4, 44160, Note_on_c, 0, 52, 0
4, 44160, Note_on_c, 0, 51, 88
4, 44400, Note_on_c, 0, 51, 0
4, 44400, Note_on_c, 0, 49, 88
4, 44640, Note_on_c, 0, 49, 0
4, 44640, Note_on_c, 0, 47, 88
4, 44880, Note_on_c, 0, 47, 0
4, 44880, Note_on_c, 0, 54, 88
4, 45120, Note_on_c, 0, 54, 0
4, 45120, Note_on_c, 0, 59, 88
4, 45360, Note_on_c, 0, 59, 0
4, 45360, Note_on_c, 0, 57, 88
4, 45600, Note_on_c, 0, 57, 0
4, 45600, Note_on_c, 0, 56, 88
4, 45840, Note_on_c, 0, 56, 0
4, 45840, Note_on_c, 0, 54, 88
4, 46080, Note_on_c, 0, 54, 0
4, 46080, Note_on_c, 0, 53, 88
4, 46560, Note_on_c, 0, 53, 0
4, 46560, Note_on_c, 0, 55, 62
4, 47040, Note_on_c, 0, 55, 0
4, 47040, Note_on_c, 0, 42, 62
4, 47520, Note_on_c, 0, 42, 0
4, 47520, Note_on_c, 0, 43, 62
4, 48240, Note_on_c, 0, 43, 0
4, 48240, Note_on_c, 0, 57, 62
4, 48480, Note_on_c, 0, 57, 0
4, 48480, Note_on_c, 0, 55, 62
4, 48960, Note_on_c, 0, 55, 0
4, 48960, Note_on_c, 0, 46, 62
4, 49680, Note_on_c, 0, 46, 0
4, 49680, Note_on_c, 0, 59, 62
4, 49920, Note_on_c, 0, 59, 0
4, 49920, Note_on_c, 0, 58, 62
4, 50400, Note_on_c, 0, 58, 0
4, 50400, Note_on_c, 0, 50, 88
4, 50880, Note_on_c, 0, 50, 0
4, 50880, Note_on_c, 0, 54, 88
4, 51360, Note_on_c, 0, 54, 0
4, 51360, Note_on_c, 0, 59, 88
4, 51840, Note_on_c, 0, 59, 0
4, 51840, Note_on_c, 0, 55, 88
4, 52560, Note_on_c, 0, 55, 0
4, 52560, Note_on_c, 0, 54, 75
4, 52800, Note_on_c, 0, 54, 0
4, 52800, Note_on_c, 0, 52, 75
4, 53520, Note_on_c, 0, 52, 0
4, 53520, Note_on_c, 0, 50, 75
4, 53760, Note_on_c, 0, 50, 0
4, 53760, Note_on_c, 0, 54, 62
4, 54000, Note_on_c, 0, 54, 0
4, 54000, Note_on_c, 0, 52, 62
4, 54240, Note_on_c, 0, 52, 0
4, 54240, Note_on_c, 0, 50, 62
4, 54480, Note_on_c, 0, 50, 0
4, 54480, Note_on_c, 0, 49, 62
4, 54720, Note_on_c, 0, 49, 0
4, 54720, Note_on_c, 0, 47, 62
4, 54960, Note_on_c, 0, 47, 0
4, 54960, Note_on_c, 0, 54, 62
4, 55200, Note_on_c, 0, 54, 0
4, 55200, Note_on_c, 0, 59, 62
4, 55440, Note_on_c, 0, 59, 0
4, 55440, Note_on_c, 0, 61, 62
4, 55680, Note_on_c, 0, 61, 0
4, 55680, Note_on_c, 0, 62, 62
4, 55920, Note_on_c, 0, 62, 0
4, 55920, Note_on_c, 0, 59, 62
4, 56160, Note_on_c, 0, 59, 0
4, 56160, Note_on_c, 0, 54, 62
4, 56880, Note_on_c, 0, 54, 0
4, 56880, Note_on_c, 0, 52, 62
4, 57120, Note_on_c, 0, 52, 0
4, 57120, Note_on_c, 0, 50, 62
4, 57360, Note_on_c, 0, 50, 0
4, 57360, Note_on_c, 0, 54, 62
4, 57600, Note_on_c, 0, 54, 0
4, 57600, Note_on_c, 0, 55, 62
4, 57840, Note_on_c, 0, 55, 0
4, 57840, Note_on_c, 0, 50, 62
4, 58080, Note_on_c, 0, 50, 0
4, 58080, Note_on_c, 0, 55, 62
4, 58320, Note_on_c, 0, 55, 0
4, 58320, Note_on_c, 0, 54, 62
4, 58560, Note_on_c, 0, 54, 0
4, 58560, Note_on_c, 0, 52, 62
4, 59040, Note_on_c, 0, 57, 62
4, 59280, Note_on_c, 0, 57, 0
4, 59280, Note_on_c, 0, 52, 0
4, 59280, Note_on_c, 0, 54, 49
4, 59520, Note_on_c, 0, 54, 0
4, 59520, Note_on_c, 0, 59, 49
4, 60000, Note_on_c, 0, 59, 0
4, 60000, Note_on_c, 0, 57, 49
4, 60720, Note_on_c, 0, 57, 0
4, 60720, Note_on_c, 0, 54, 49
4, 60720, Note_on_c, 0, 57, 49
4, 60960, Note_on_c, 0, 57, 0
4, 60960, Note_on_c, 0, 54, 0
4, 60960, Note_on_c, 0, 52, 49
4, 60960, Note_on_c, 0, 55, 49
4, 61200, Note_on_c, 0, 55, 0
4, 61200, Note_on_c, 0, 52, 0
4, 61200, Note_on_c, 0, 51, 49
4, 61200, Note_on_c, 0, 54, 49
4, 61440, Note_on_c, 0, 54, 0
4, 61440, Note_on_c, 0, 51, 0
4, 61440, Note_on_c, 0, 52, 49
4, 61440, Note_on_c, 0, 55, 49
4, 61680, Note_on_c, 0, 55, 0
4, 61680, Note_on_c, 0, 52, 0
4, 61680, Note_on_c, 0, 54, 49
4, 61680, Note_on_c, 0, 57, 49
4, 61920, Note_on_c, 0, 57, 0
4, 61920, Note_on_c, 0, 54, 0
4, 61920, Note_on_c, 0, 55, 49
4, 61920, Note_on_c, 0, 59, 49
4, 62160, Note_on_c, 0, 59, 0
4, 62160, Note_on_c, 0, 55, 0
4, 62160, Note_on_c, 0, 50, 49
4, 62160, Note_on_c, 0, 54, 49
4, 62400, Note_on_c, 0, 54, 0
4, 62400, Note_on_c, 0, 50, 0
4, 62400, Note_on_c, 0, 52, 49
4, 62400, Note_on_c, 0, 55, 49
4, 62640, Note_on_c, 0, 55, 0
4, 62640, Note_on_c, 0, 52, 0
4, 62640, Note_on_c, 0, 54, 49
4, 62640, Note_on_c, 0, 57, 49
4, 62880, Note_on_c, 0, 57, 0
4, 62880, Note_on_c, 0, 54, 0
4, 62880, Note_on_c, 0, 55, 49
4, 62880, Note_on_c, 0, 59, 49
4, 63360, Note_on_c, 0, 59, 0
4, 63360, Note_on_c, 0, 55, 0
4, 63360, Note_on_c, 0, 50, 49
4, 63360, Note_on_c, 0, 57, 49
4, 63840, Note_on_c, 0, 57, 0
4, 63840, Note_on_c, 0, 50, 0
4, 63840, Note_on_c, 0, 55, 49
4, 63840, Note_on_c, 0, 59, 49
4, 64320, Note_on_c, 0, 59, 0
4, 64320, Note_on_c, 0, 55, 0
4, 64320, Note_on_c, 0, 58, 49
4, 64320, Note_on_c, 0, 61, 49
4, 64800, Note_on_c, 0, 61, 0
4, 64800, Note_on_c, 0, 58, 0
4, 64800, Note_on_c, 0, 59, 49
4, 64800, Note_on_c, 0, 62, 49
4, 65040, Note_on_c, 0, 62, 0
4, 65040, Note_on_c, 0, 59, 0
4, 65040, Note_on_c, 0, 57, 49
4, 65280, Note_on_c, 0, 57, 0
4, 65280, Note_on_c, 0, 62, 49
4, 65520, Note_on_c, 0, 62, 0
4, 65520, Note_on_c, 0, 60, 49
4, 65760, Note_on_c, 0, 60, 0
4, 65760, Note_on_c, 0, 59, 49
4, 66000, Note_on_c, 0, 59, 0
4, 66000, Note_on_c, 0, 57, 49
4, 66240, Note_on_c, 0, 57, 0
4, 66240, Note_on_c, 0, 50, 62
4, 66720, Note_on_c, 0, 50, 0
4, 66720, Note_on_c, 0, 55, 62
4, 67200, Note_on_c, 0, 55, 0
4, 67200, Note_on_c, 0, 59, 62
4, 68160, Note_on_c, 0, 59, 0
4, 68160, Note_on_c, 0, 56, 62
4, 68640, Note_on_c, 0, 56, 0
4, 68640, Note_on_c, 0, 52, 62
4, 69120, Note_on_c, 0, 52, 0
4, 69120, Note_on_c, 0, 52, 62
4, 69600, Note_on_c, 0, 52, 0
4, 69600, Note_on_c, 0, 58, 62
4, 70080, Note_on_c, 0, 58, 0
4, 70080, Note_on_c, 0, 61, 62
4, 71040, Note_on_c, 0, 61, 0
4, 71040, Note_on_c, 0, 58, 62
4, 71520, Note_on_c, 0, 58, 0
4, 71520, Note_on_c, 0, 54, 62
4, 72000, Note_on_c, 0, 54, 0
4, 72000, Note_on_c, 0, 54, 62
4, 72480, Note_on_c, 0, 54, 0
4, 72480, Note_on_c, 0, 59, 62
4, 72960, Note_on_c, 0, 59, 0
4, 72960, Note_on_c, 0, 47, 88
4, 73680, Note_on_c, 0, 47, 0
4, 73680, Note_on_c, 0, 47, 88
4, 73920, Note_on_c, 0, 47, 0
4, 73920, Note_on_c, 0, 52, 88
4, 74160, Note_on_c, 0, 52, 0
4, 74160, Note_on_c, 0, 50, 88
4, 74400, Note_on_c, 0, 50, 0
4, 74400, Note_on_c, 0, 49, 88
4, 74640, Note_on_c, 0, 49, 0
4, 74640, Note_on_c, 0, 47, 88
4, 74880, Note_on_c, 0, 47, 0
4, 74880, Note_on_c, 0, 45, 49
4, 74880, Note_on_c, 0, 61, 49
4, 75840, Note_on_c, 0, 61, 0
4, 75840, Note_on_c, 0, 45, 0
4, 75840, Note_on_c, 0, 62, 49
4, 76560, Note_on_c, 0, 62, 0
4, 76560, Note_on_c, 0, 62, 49
4, 76800, Note_on_c, 0, 62, 0
4, 76800, Note_on_c, 0, 61, 49
4, 77040, Note_on_c, 0, 61, 0
4, 77040, Note_on_c, 0, 62, 49
4, 77280, Note_on_c, 0, 62, 0
4, 77280, Note_on_c, 0, 64, 49
4, 77520, Note_on_c, 0, 64, 0
4, 77520, Note_on_c, 0, 66, 49
4, 77760, Note_on_c, 0, 66, 0
4, 77760, Note_on_c, 0, 62, 49
4, 79440, Note_on_c, 0, 62, 0
4, 79440, Note_on_c, 0, 59, 49
4, 79680, Note_on_c, 0, 59, 0
4, 79680, Note_on_c, 0, 64, 49
4, 79920, Note_on_c, 0, 64, 0
4, 79920, Note_on_c, 0, 62, 49
4, 80160, Note_on_c, 0, 62, 0
4, 80160, Note_on_c, 0, 61, 49
4, 80400, Note_on_c, 0, 61, 0
4, 80400, Note_on_c, 0, 67, 49
4, 80640, Note_on_c, 0, 67, 0
4, 80640, Note_on_c, 0, 66, 62
4, 80880, Note_on_c, 0, 66, 0
4, 80880, Note_on_c, 0, 64, 62
4, 81120, Note_on_c, 0, 64, 0
4, 81120, Note_on_c, 0, 62, 62
4, 81360, Note_on_c, 0, 62, 0
4, 81360, Note_on_c, 0, 69, 62
4, 81600, Note_on_c, 0, 69, 0
4, 81600, Note_on_c, 0, 67, 62
4, 81840, Note_on_c, 0, 67, 0
4, 81840, Note_on_c, 0, 64, 62
4, 82080, Note_on_c, 0, 64, 0
4, 82080, Note_on_c, 0, 61, 75
4, 82320, Note_on_c, 0, 61, 0
4, 82320, Note_on_c, 0, 62, 75
4, 82560, Note_on_c, 0, 62, 0
4, 82560, Note_on_c, 0, 64, 75
4, 82800, Note_on_c, 0, 64, 0
4, 82800, Note_on_c, 0, 61, 75
4, 83040, Note_on_c, 0, 61, 0
4, 83040, Note_on_c, 0, 58, 75
4, 83280, Note_on_c, 0, 58, 0
4, 83280, Note_on_c, 0, 61, 75
4, 83520, Note_on_c, 0, 61, 0
4, 83520, Note_on_c, 0, 59, 75
4, 84000, Note_on_c, 0, 59, 0
4, 84000, Note_on_c, 0, 71, 75
4, 84240, Note_on_c, 0, 71, 0
4, 84240, Note_on_c, 0, 69, 75
4, 84480, Note_on_c, 0, 69, 0
4, 84480, Note_on_c, 0, 67, 75
4, 84720, Note_on_c, 0, 67, 0
4, 84720, Note_on_c, 0, 66, 75
4, 84960, Note_on_c, 0, 66, 0
4, 85440, Note_on_c, 0, 57, 75
4, 85920, Note_on_c, 0, 57, 0
4, 85920, Note_on_c, 0, 56, 62
4, 86160, Note_on_c, 0, 56, 0
4, 86160, Note_on_c, 0, 57, 62
4, 86400, Note_on_c, 0, 57, 0
4, 86400, Note_on_c, 0, 52, 75
4, 87120, Note_on_c, 0, 52, 0
4, 87120, Note_on_c, 0, 47, 75
4, 87360, Note_on_c, 0, 47, 0
4, 87360, Note_on_c, 0, 52, 75
4, 87600, Note_on_c, 0, 52, 0
4, 87600, Note_on_c, 0, 50, 75
4, 87840, Note_on_c, 0, 50, 0
4, 87840, Note_on_c, 0, 49, 75
4, 88560, Note_on_c, 0, 49, 0
4, 88560, Note_on_c, 0, 45, 49
4, 88800, Note_on_c, 0, 45, 0
4, 88800, Note_on_c, 0, 50, 49
4, 89040, Note_on_c, 0, 50, 0
4, 89040, Note_on_c, 0, 58, 49
4, 89280, Note_on_c, 0, 58, 0
4, 89280, Note_on_c, 0, 59, 49
4, 89760, Note_on_c, 0, 59, 0
4, 90000, Note_on_c, 0, 50, 49
4, 90240, Note_on_c, 0, 50, 0
4, 90240, Note_on_c, 0, 57, 49
4, 90720, Note_on_c, 0, 57, 0
4, 90720, Note_on_c, 0, 50, 49
4, 91680, Note_on_c, 0, 50, 0
4, 91680, Note_on_c, 0, 43, 62
4, 92160, Note_on_c, 0, 43, 0
4, 92160, Note_on_c, 0, 50, 62
4, 94080, Note_on_c, 0, 50, 0
4, 94080, Note_on_c, 0, 50, 49
4, 94560, Note_on_c, 0, 50, 0
4, 94560, Note_on_c, 0, 59, 62
4, 95040, Note_on_c, 0, 59, 0
4, 95040, Note_on_c, 0, 38, 62
4, 96480, Note_on_c, 0, 38, 0
4, 96480, Note_on_c, 0, 55, 49
4, 96480, Note_on_c, 0, 59, 49
4, 98160, Note_on_c, 0, 59, 0
4, 98160, Note_on_c, 0, 55, 0
4, 98160, Note_on_c, 0, 54, 49
4, 98160, Note_on_c, 0, 57, 49
4, 98400, Note_on_c, 0, 57, 0
4, 98400, Note_on_c, 0, 54, 0
4, 98400, Note_on_c, 0, 57, 49
4, 98400, Note_on_c, 0, 60, 49
4, 98640, Note_on_c, 0, 60, 0
4, 98640, Note_on_c, 0, 57, 0
4, 98640, Note_on_c, 0, 55, 49
4, 98640, Note_on_c, 0, 59, 49
4, 98880, Note_on_c, 0, 59, 0
4, 98880, Note_on_c, 0, 55, 0
4, 98880, Note_on_c, 0, 54, 49
4, 98880, Note_on_c, 0, 57, 49
4, 99120, Note_on_c, 0, 57, 0
4, 99120, Note_on_c, 0, 54, 0
4, 99120, Note_on_c, 0, 52, 49
4, 99120, Note_on_c, 0, 55, 49
4, 99360, Note_on_c, 0, 55, 0
4, 99360, Note_on_c, 0, 52, 0
4, 99360, Note_on_c, 0, 54, 49
4, 99360, Note_on_c, 0, 57, 49
4, 99840, Note_on_c, 0, 57, 0
4, 99840, Note_on_c, 0, 54, 0
4, 99840, Note_on_c, 0, 50, 49
4, 100320, Note_on_c, 0, 50, 0
4, 100320, Note_on_c, 0, 55, 49
4, 100320, Note_on_c, 0, 58, 49
4, 101040, Note_on_c, 0, 58, 0
4, 101040, Note_on_c, 0, 55, 0
4, 101040, Note_on_c, 0, 54, 49
4, 101040, Note_on_c, 0, 57, 49
4, 101280, Note_on_c, 0, 57, 0
4, 101280, Note_on_c, 0, 54, 0
4, 101280, Note_on_c, 0, 57, 49
4, 101280, Note_on_c, 0, 60, 49
4, 101520, Note_on_c, 0, 60, 0
4, 101520, Note_on_c, 0, 57, 0
4, 101520, Note_on_c, 0, 55, 49
4, 101520, Note_on_c, 0, 58, 49
4, 101760, Note_on_c, 0, 58, 0
4, 101760, Note_on_c, 0, 55, 0
4, 101760, Note_on_c, 0, 54, 49
4, 101760, Note_on_c, 0, 57, 49
4, 102000, Note_on_c, 0, 57, 0
4, 102000, Note_on_c, 0, 54, 0
4, 102000, Note_on_c, 0, 52, 49
4, 102000, Note_on_c, 0, 55, 49
4, 102240, Note_on_c, 0, 55, 0
4, 102240, Note_on_c, 0, 52, 0
4, 102240, Note_on_c, 0, 55, 49
4, 102240, Note_on_c, 0, 58, 49
4, 102480, Note_on_c, 0, 58, 0
4, 102480, Note_on_c, 0, 55, 0
4, 102480, Note_on_c, 0, 54, 49
4, 102480, Note_on_c, 0, 57, 49
4, 102720, Note_on_c, 0, 57, 0
4, 102720, Note_on_c, 0, 54, 0
4, 102720, Note_on_c, 0, 57, 49
4, 102720, Note_on_c, 0, 60, 49
4, 102960, Note_on_c, 0, 60, 0
4, 102960, Note_on_c, 0, 57, 0
4, 102960, Note_on_c, 0, 55, 49
4, 102960, Note_on_c, 0, 58, 49
4, 103200, Note_on_c, 0, 58, 0
4, 103200, Note_on_c, 0, 55, 0
4, 103200, Note_on_c, 0, 54, 49
4, 103200, Note_on_c, 0, 57, 49
4, 103440, Note_on_c, 0, 57, 0
4, 103440, Note_on_c, 0, 54, 0
4, 103440, Note_on_c, 0, 52, 49
4, 103440, Note_on_c, 0, 55, 49
4, 103680, Note_on_c, 0, 55, 0
4, 103680, Note_on_c, 0, 52, 0
4, 103680, Note_on_c, 0, 54, 49
4, 103680, Note_on_c, 0, 57, 49
4, 105600, Note_on_c, 0, 57, 0
4, 105600, Note_on_c, 0, 54, 0
4, 105600, Control_c, 0, 64, 0
4, 105600, End_track
5, 0, Start_track
5, 0, Title_t, "Grand Piano"
5, 0, Program_c, 0, 0
5, 0, Control_c, 0, 7, 115
5, 0, Control_c, 0, 10, 42
5, 10080, Note_on_c, 0, 54, 62
5, 10320, Note_on_c, 0, 54, 0
5, 10320, Note_on_c, 0, 52, 62
5, 10560, Note_on_c, 0, 52, 0
5, 10560, Note_on_c, 0, 50, 62
5, 11040, Note_on_c, 0, 50, 0
5, 12480, Note_on_c, 0, 59, 62
5, 12720, Note_on_c, 0, 59, 0
5, 12720, Note_on_c, 0, 57, 62
5, 12960, Note_on_c, 0, 57, 0
5, 12960, Note_on_c, 0, 55, 62
5, 13920, Note_on_c, 0, 55, 0
5, 13920, Note_on_c, 0, 55, 62
5, 14640, Note_on_c, 0, 55, 0
5, 14640, Note_on_c, 0, 55, 62
5, 14880, Note_on_c, 0, 55, 0
5, 14880, Note_on_c, 0, 54, 62
5, 15120, Note_on_c, 0, 54, 0
5, 15120, Note_on_c, 0, 52, 62
5, 15360, Note_on_c, 0, 52, 0
5, 15360, Note_on_c, 0, 50, 62
5, 15840, Note_on_c, 0, 50, 0
5, 27360, Note_on_c, 0, 50, 75
5, 27840, Note_on_c, 0, 50, 0
5, 27840, Note_on_c, 0, 57, 75
5, 28320, Note_on_c, 0, 57, 0
5, 28320, Note_on_c, 0, 54, 75
5, 28800, Note_on_c, 0, 54, 0
5, 28800, Note_on_c, 0, 56, 75
5, 29280, Note_on_c, 0, 56, 0
5, 29280, Note_on_c, 0, 52, 88
5, 29760, Note_on_c, 0, 52, 0
5, 29760, Note_on_c, 0, 54, 88
5, 30240, Note_on_c, 0, 54, 0
5, 30240, Note_on_c, 0, 50, 88
5, 30720, Note_on_c, 0, 50, 0
5, 30720, Note_on_c, 0, 52, 75
5, 31200, Note_on_c, 0, 52, 0
5, 31200, Note_on_c, 0, 40, 75
5, 31680, Note_on_c, 0, 40, 0
5, 31680, Note_on_c, 0, 45, 62
5, 32160, Note_on_c, 0, 45, 0
5, 36960, Note_on_c, 0, 52, 88
5, 37440, Note_on_c, 0, 52, 0
5, 37440, Note_on_c, 0, 54, 88
5, 38160, Note_on_c, 0, 54, 0
5, 38160, Note_on_c, 0, 54, 75
5, 38400, Note_on_c, 0, 54, 0
5, 38400, Note_on_c, 0, 55, 75
5, 38640, Note_on_c, 0, 55, 0
5, 38640, Note_on_c, 0, 54, 75
5, 38880, Note_on_c, 0, 54, 0
5, 38880, Note_on_c, 0, 52, 75
5, 40560, Note_on_c, 0, 52, 0
5, 48000, Note_on_c, 0, 47, 62
5, 48480, Note_on_c, 0, 47, 0
5, 48480, Note_on_c, 0, 52, 62
5, 48960, Note_on_c, 0, 52, 0
5, 49440, Note_on_c, 0, 49, 62
5, 49920, Note_on_c, 0, 49, 0
5, 49920, Note_on_c, 0, 54, 62
5, 50400, Note_on_c, 0, 54, 0
5, 53760, Note_on_c, 0, 54, 75
5, 54240, Note_on_c, 0, 54, 0
5, 54240, Note_on_c, 0, 42, 75
5, 54720, Note_on_c, 0, 42, 0
5, 59280, Note_on_c, 0, 52, 62
5, 59520, Note_on_c, 0, 52, 0
5, 59520, Note_on_c, 0, 51, 62
5, 59760, Note_on_c, 0, 51, 0
5, 59760, Note_on_c, 0, 52, 62
5, 60000, Note_on_c, 0, 52, 0
5, 60000, Note_on_c, 0, 54, 62
5, 60480, Note_on_c, 0, 54, 0
5, 60480, Note_on_c, 0, 40, 62
5, 60960, Note_on_c, 0, 40, 0
5, 60960, Note_on_c, 0, 43, 62
5, 61440, Note_on_c, 0, 43, 0
5, 61440, Note_on_c, 0, 48, 75
5, 61920, Note_on_c, 0, 48, 0
5, 61920, Note_on_c, 0, 47, 75
5, 62640, Note_on_c, 0, 47, 0
5, 62640, Note_on_c, 0, 45, 62
5, 62880, Note_on_c, 0, 45, 0
5, 62880, Note_on_c, 0, 43, 62
5, 63600, Note_on_c, 0, 43, 0
5, 63600, Note_on_c, 0, 42, 62
5, 63840, Note_on_c, 0, 42, 0
5, 63840, Note_on_c, 0, 45, 62
5, 64080, Note_on_c, 0, 45, 0
5, 64080, Note_on_c, 0, 43, 62
5, 64320, Note_on_c, 0, 43, 0
5, 64320, Note_on_c, 0, 42, 62
5, 64560, Note_on_c, 0, 42, 0
5, 64560, Note_on_c, 0, 40, 62
5, 64800, Note_on_c, 0, 40, 0
5, 64800, Note_on_c, 0, 38, 62
5, 65520, Note_on_c, 0, 38, 0
5, 65520, Note_on_c, 0, 52, 62
5, 65760, Note_on_c, 0, 52, 0
5, 65760, Note_on_c, 0, 50, 62
5, 66000, Note_on_c, 0, 50, 0
5, 66000, Note_on_c, 0, 48, 62
5, 66240, Note_on_c, 0, 48, 0
5, 66240, Note_on_c, 0, 47, 75
5, 67200, Note_on_c, 0, 47, 0
5, 67200, Note_on_c, 0, 45, 75
5, 67680, Note_on_c, 0, 45, 0
5, 67680, Note_on_c, 0, 44, 75
5, 68160, Note_on_c, 0, 44, 0
5, 68160, Note_on_c, 0, 47, 75
5, 68640, Note_on_c, 0, 47, 0
5, 68640, Note_on_c, 0, 50, 75
5, 69120, Note_on_c, 0, 50, 0
5, 69120, Note_on_c, 0, 49, 75
5, 70080, Note_on_c, 0, 49, 0
5, 70080, Note_on_c, 0, 47, 75
5, 70560, Note_on_c, 0, 47, 0
5, 70560, Note_on_c, 0, 46, 75
5, 71040, Note_on_c, 0, 46, 0
5, 71040, Note_on_c, 0, 49, 75
5, 71520, Note_on_c, 0, 49, 0
5, 71520, Note_on_c, 0, 52, 75
5, 72000, Note_on_c, 0, 52, 0
5, 72000, Note_on_c, 0, 51, 75
5, 72960, Note_on_c, 0, 51, 0
5, 75840, Note_on_c, 0, 57, 62
5, 76320, Note_on_c, 0, 57, 0
5, 76320, Note_on_c, 0, 57, 62
5, 77760, Note_on_c, 0, 57, 0
5, 77760, Note_on_c, 0, 57, 62
5, 79200, Note_on_c, 0, 57, 0
5, 79200, Note_on_c, 0, 57, 62
5, 82080, Note_on_c, 0, 57, 0
5, 82080, Note_on_c, 0, 57, 88
5, 82560, Note_on_c, 0, 57, 0
5, 82560, Note_on_c, 0, 52, 88
5, 83040, Note_on_c, 0, 52, 0
5, 83040, Note_on_c, 0, 54, 88
5, 83520, Note_on_c, 0, 54, 0
5, 83520, Note_on_c, 0, 47, 88
5, 84240, Note_on_c, 0, 47, 0
5, 84240, Note_on_c, 0, 40, 88
5, 84480, Note_on_c, 0, 40, 0
5, 84480, Note_on_c, 0, 42, 88
5, 84720, Note_on_c, 0, 42, 0
5, 84720, Note_on_c, 0, 43, 88
5, 84960, Note_on_c, 0, 43, 0
5, 84960, Note_on_c, 0, 45, 88
5, 85200, Note_on_c, 0, 45, 0
5, 85200, Note_on_c, 0, 55, 88
5, 85440, Note_on_c, 0, 55, 0
5, 85440, Note_on_c, 0, 54, 88
5, 85920, Note_on_c, 0, 54, 0
5, 85920, Note_on_c, 0, 54, 75
5, 86400, Note_on_c, 0, 54, 0
5, 89040, Note_on_c, 0, 49, 62
5, 89280, Note_on_c, 0, 49, 0
5, 89280, Note_on_c, 0, 47, 62
5, 89520, Note_on_c, 0, 47, 0
5, 89520, Note_on_c, 0, 43, 62
5, 89760, Note_on_c, 0, 43, 0
5, 89760, Note_on_c, 0, 45, 62
5, 90480, Note_on_c, 0, 45, 0
5, 90480, Note_on_c, 0, 43, 62
5, 90720, Note_on_c, 0, 43, 0
5, 90720, Note_on_c, 0, 42, 62
5, 91680, Note_on_c, 0, 42, 0
5, 91680, Note_on_c, 0, 43, 75
5, 92160, Note_on_c, 0, 43, 0
5, 92160, Note_on_c, 0, 38, 75
5, 92400, Note_on_c, 0, 38, 0
5, 92400, Note_on_c, 0, 45, 75
5, 92640, Note_on_c, 0, 45, 0
5, 92640, Note_on_c, 0, 48, 75
5, 92880, Note_on_c, 0, 48, 0
5, 92880, Note_on_c, 0, 47, 62
5, 93120, Note_on_c, 0, 47, 0
5, 93120, Note_on_c, 0, 45, 62
5, 93360, Note_on_c, 0, 45, 0
5, 93360, Note_on_c, 0, 43, 62
5, 93600, Note_on_c, 0, 43, 0
5, 93600, Note_on_c, 0, 42, 62
5, 94560, Note_on_c, 0, 42, 0
5, 94560, Note_on_c, 0, 43, 75
5, 95040, Note_on_c, 0, 43, 0
5, 96480, Note_on_c, 0, 38, 62
5, 99360, Note_on_c, 0, 38, 0
5, 99600, Note_on_c, 0, 42, 49
5, 99840, Note_on_c, 0, 42, 0
5, 99840, Note_on_c, 0, 45, 49
5, 100080, Note_on_c, 0, 45, 0
5, 100080, Note_on_c, 0, 43, 49
5, 100320, Note_on_c, 0, 43, 0
5, 100320, Note_on_c, 0, 42, 49
5, 100560, Note_on_c, 0, 42, 0
5, 100560, Note_on_c, 0, 40, 49
5, 100800, Note_on_c, 0, 40, 0
5, 100800, Note_on_c, 0, 38, 49
5, 105600, Note_on_c, 0, 38, 0
5, 105600, End_track
0, 0, End_of_file
