0, 0, Header, 1, 5, 480
1, 0, Start_track
1, 0, Title_t, "mendelssohn sechs praeludien und fugen op35 no4a praeludium"
1, 0, Copyright_t, "Segundo G. Yogore,  2007,  dody@pldtdsl.net"
1, 0, Text_t, "sequenced by Segundo G. Yogore,  2007\012"
1, 0, Time_signature, 6, 3, 12, 8
1, 0, Key_signature, -4, "major"
1, 0, Tempo, 545455
1, 30240, Tempo, 545455
1, 90240, Tempo, 560748
1, 90480, Tempo, 576923
1, 90720, Tempo, 594059
1, 90960, Tempo, 618557
1, 91200, Tempo, 638298
1, 91440, Tempo, 659341
1, 91680, Tempo, 681818
1, 91920, Tempo, 714286
1, 92160, Tempo, 545455
1, 121920, Tempo, 560748
1, 122160, Tempo, 576923
1, 122400, Tempo, 594059
1, 122640, Tempo, 618557
1, 122880, Tempo, 638298
1, 123120, Tempo, 659341
1, 123360, Tempo, 681818
1, 123600, Tempo, 714286
1, 125280, Time_signature, 9, 2, 24, 8
1, 125280, End_track
2, 0, Start_track
2, 0, Title_t, "Grand Piano"
2, 0, Program_c, 0, 0
2, 0, Control_c, 0, 7, 115
2, 0, Control_c, 0, 10, 86
2, 0, Note_on_c, 0, 63, 62
2, 720, Note_on_c, 0, 63, 0
2, 720, Note_on_c, 0, 68, 62
2, 1440, Control_c, 0, 64, 127
2, 1680, Note_on_c, 0, 68, 0
2, 1680, Note_on_c, 0, 67, 62
2, 1920, Note_on_c, 0, 67, 0
2, 1920, Note_on_c, 0, 68, 62
2, 2160, Note_on_c, 0, 68, 0
2, 2160, Note_on_c, 0, 70, 62
2, 2400, Note_on_c, 0, 70, 0
2, 2400, Note_on_c, 0, 67, 62
2, 2640, Note_on_c, 0, 67, 0
2, 2640, Note_on_c, 0, 65, 62
2, 2880, Note_on_c, 0, 65, 0
2, 2880, Control_c, 0, 64, 0
2, 2880, Note_on_c, 0, 68, 62
2, 3600, Note_on_c, 0, 68, 0
2, 3600, Control_c, 0, 64, 127
2, 3600, Note_on_c, 0, 75, 62
2, 4560, Note_on_c, 0, 75, 0
2, 4560, Note_on_c, 0, 73, 62
2, 4800, Note_on_c, 0, 73, 0
2, 4800, Note_on_c, 0, 75, 62
2, 5040, Note_on_c, 0, 75, 0
2, 5040, Note_on_c, 0, 77, 62
2, 5280, Note_on_c, 0, 77, 0
2, 5280, Note_on_c, 0, 73, 62
2, 5520, Note_on_c, 0, 73, 0
2, 5520, Note_on_c, 0, 72, 62
2, 5760, Note_on_c, 0, 72, 0
2, 5760, Control_c, 0, 64, 0
2, 5760, Note_on_c, 0, 70, 62
2, 6240, Note_on_c, 0, 70, 0
2, 6240, Note_on_c, 0, 72, 62
2, 6480, Note_on_c, 0, 72, 0
2, 6480, Note_on_c, 0, 73, 62
2, 6560, Note_on_c, 0, 73, 0
2, 6560, Note_on_c, 0, 75, 62
2, 6639, Note_on_c, 0, 75, 0
2, 6639, Note_on_c, 0, 73, 62
2, 6720, Note_on_c, 0, 73, 0
2, 6720, Note_on_c, 0, 75, 62
2, 6800, Note_on_c, 0, 75, 0
2, 6800, Note_on_c, 0, 73, 62
2, 6879, Note_on_c, 0, 73, 0
2, 6879, Note_on_c, 0, 75, 62
2, 6960, Note_on_c, 0, 75, 0
2, 6960, Note_on_c, 0, 73, 62
2, 7040, Note_on_c, 0, 73, 0
2, 7040, Note_on_c, 0, 72, 62
2, 7119, Note_on_c, 0, 72, 0
2, 7119, Note_on_c, 0, 73, 62
2, 7200, Note_on_c, 0, 73, 0
2, 7200, Note_on_c, 0, 72, 62
2, 8160, Note_on_c, 0, 72, 0
2, 8160, Note_on_c, 0, 73, 62
2, 8400, Note_on_c, 0, 73, 0
2, 8400, Note_on_c, 0, 75, 62
2, 8640, Note_on_c, 0, 75, 0
2, 8640, Note_on_c, 0, 73, 62
2, 8640, Note_on_c, 0, 77, 62
2, 9240, Note_on_c, 0, 77, 0
2, 9240, Note_on_c, 0, 73, 0
2, 9240, Note_on_c, 0, 72, 62
2, 9240, Note_on_c, 0, 75, 62
2, 9360, Note_on_c, 0, 75, 0
2, 9360, Note_on_c, 0, 72, 0
2, 9360, Note_on_c, 0, 72, 62
2, 9360, Note_on_c, 0, 75, 62
2, 9600, Note_on_c, 0, 75, 0
2, 9600, Note_on_c, 0, 72, 0
2, 9600, Note_on_c, 0, 70, 62
2, 9600, Note_on_c, 0, 73, 62
2, 9960, Note_on_c, 0, 73, 0
2, 9960, Note_on_c, 0, 70, 0
2, 9960, Note_on_c, 0, 68, 62
2, 9960, Note_on_c, 0, 72, 62
2, 10080, Note_on_c, 0, 72, 0
2, 10080, Note_on_c, 0, 68, 0
2, 10080, Note_on_c, 0, 68, 62
2, 10080, Note_on_c, 0, 72, 62
2, 10800, Note_on_c, 0, 72, 0
2, 10800, Note_on_c, 0, 68, 0
2, 10800, Note_on_c, 0, 67, 62
2, 10800, Note_on_c, 0, 70, 62
2, 11280, Note_on_c, 0, 70, 0
2, 11280, Note_on_c, 0, 67, 0
2, 11520, Note_on_c, 0, 58, 75
2, 12240, Note_on_c, 0, 58, 0
2, 12240, Note_on_c, 0, 63, 75
2, 13680, Note_on_c, 0, 63, 0
2, 13680, Note_on_c, 0, 65, 75
2, 14640, Note_on_c, 0, 65, 0
2, 14640, Note_on_c, 0, 63, 75
2, 14880, Note_on_c, 0, 63, 0
2, 14880, Note_on_c, 0, 65, 75
2, 15120, Note_on_c, 0, 65, 0
2, 15120, Note_on_c, 0, 66, 75
2, 15360, Note_on_c, 0, 66, 0
2, 15360, Note_on_c, 0, 65, 75
2, 15600, Note_on_c, 0, 65, 0
2, 15600, Note_on_c, 0, 63, 75
2, 15840, Note_on_c, 0, 63, 0
2, 15840, Note_on_c, 0, 70, 101
2, 16560, Note_on_c, 0, 70, 0
2, 16560, Note_on_c, 0, 68, 75
2, 16800, Note_on_c, 0, 68, 0
2, 17040, Note_on_c, 0, 75, 75
2, 17280, Note_on_c, 0, 75, 0
2, 17280, Note_on_c, 0, 70, 114
2, 18000, Note_on_c, 0, 70, 0
2, 18000, Note_on_c, 0, 69, 88
2, 18240, Note_on_c, 0, 69, 0
2, 18480, Note_on_c, 0, 69, 88
2, 18720, Note_on_c, 0, 69, 0
2, 18720, Control_c, 0, 64, 127
2, 18720, Note_on_c, 0, 70, 75
2, 18960, Note_on_c, 0, 70, 0
2, 18960, Note_on_c, 0, 69, 75
2, 19200, Note_on_c, 0, 69, 0
2, 19200, Note_on_c, 0, 68, 75
2, 19440, Note_on_c, 0, 68, 0
2, 19440, Note_on_c, 0, 67, 75
2, 19920, Note_on_c, 0, 67, 0
2, 19920, Control_c, 0, 64, 0
2, 19920, Note_on_c, 0, 70, 75
2, 20160, Note_on_c, 0, 70, 0
2, 20160, Control_c, 0, 64, 127
2, 20160, Note_on_c, 0, 70, 62
2, 20400, Note_on_c, 0, 70, 0
2, 20400, Note_on_c, 0, 68, 62
2, 20640, Note_on_c, 0, 68, 0
2, 20640, Note_on_c, 0, 67, 62
2, 20880, Note_on_c, 0, 67, 0
2, 20880, Note_on_c, 0, 65, 62
2, 21120, Note_on_c, 0, 65, 0
2, 21120, Note_on_c, 0, 67, 62
2, 21360, Note_on_c, 0, 67, 0
2, 21360, Note_on_c, 0, 65, 62
2, 21600, Note_on_c, 0, 65, 0
2, 21600, Control_c, 0, 64, 0
2, 21600, Note_on_c, 0, 63, 62
2, 22080, Note_on_c, 0, 63, 0
2, 22560, Control_c, 0, 64, 127
2, 22560, Note_on_c, 0, 80, 62
2, 22800, Note_on_c, 0, 80, 0
2, 22800, Note_on_c, 0, 79, 62
2, 23040, Note_on_c, 0, 79, 0
2, 23040, Note_on_c, 0, 77, 62
2, 23280, Note_on_c, 0, 77, 0
2, 23280, Note_on_c, 0, 79, 62
2, 23520, Note_on_c, 0, 79, 0
2, 23520, Control_c, 0, 64, 0
2, 23520, Note_on_c, 0, 80, 62
2, 23760, Note_on_c, 0, 80, 0
2, 24000, Control_c, 0, 64, 127
2, 24000, Note_on_c, 0, 79, 62
2, 24240, Note_on_c, 0, 79, 0
2, 24240, Note_on_c, 0, 77, 62
2, 24480, Note_on_c, 0, 77, 0
2, 24480, Note_on_c, 0, 75, 62
2, 24720, Note_on_c, 0, 75, 0
2, 24720, Note_on_c, 0, 77, 62
2, 24960, Note_on_c, 0, 77, 0
2, 24960, Control_c, 0, 64, 0
2, 24960, Note_on_c, 0, 78, 62
2, 25440, Note_on_c, 0, 78, 0
2, 25440, Control_c, 0, 64, 127
2, 25440, Note_on_c, 0, 77, 62
2, 25680, Note_on_c, 0, 77, 0
2, 25680, Note_on_c, 0, 75, 62
2, 25920, Note_on_c, 0, 75, 0
2, 25920, Note_on_c, 0, 74, 62
2, 26400, Note_on_c, 0, 74, 0
2, 26400, Control_c, 0, 64, 0
2, 26400, Note_on_c, 0, 75, 62
2, 26640, Note_on_c, 0, 75, 0
2, 26640, Note_on_c, 0, 80, 62
2, 26880, Note_on_c, 0, 80, 0
2, 26880, Note_on_c, 0, 77, 62
2, 27120, Note_on_c, 0, 77, 0
2, 27120, Note_on_c, 0, 74, 62
2, 27360, Note_on_c, 0, 74, 0
2, 27360, Note_on_c, 0, 68, 62
2, 27360, Note_on_c, 0, 74, 62
2, 28080, Note_on_c, 0, 74, 0
2, 28080, Note_on_c, 0, 68, 0
2, 28080, Note_on_c, 0, 67, 62
2, 28080, Note_on_c, 0, 75, 62
2, 28800, Note_on_c, 0, 75, 0
2, 28800, Note_on_c, 0, 67, 0
2, 30240, Note_on_c, 0, 63, 62
2, 30960, Note_on_c, 0, 63, 0
2, 30960, Note_on_c, 0, 68, 62
2, 31680, Control_c, 0, 64, 127
2, 31920, Note_on_c, 0, 68, 0
2, 31920, Note_on_c, 0, 67, 62
2, 32160, Note_on_c, 0, 67, 0
2, 32160, Note_on_c, 0, 68, 62
2, 32400, Note_on_c, 0, 68, 0
2, 32400, Note_on_c, 0, 70, 62
2, 32640, Note_on_c, 0, 70, 0
2, 32640, Note_on_c, 0, 67, 62
2, 32880, Note_on_c, 0, 67, 0
2, 32880, Note_on_c, 0, 65, 62
2, 33120, Note_on_c, 0, 65, 0
2, 33120, Control_c, 0, 64, 0
2, 33120, Note_on_c, 0, 68, 62
2, 33840, Note_on_c, 0, 68, 0
2, 33840, Control_c, 0, 64, 127
2, 33840, Note_on_c, 0, 75, 62
2, 34800, Note_on_c, 0, 75, 0
2, 34800, Note_on_c, 0, 73, 62
2, 35040, Note_on_c, 0, 73, 0
2, 35040, Note_on_c, 0, 75, 62
2, 35280, Note_on_c, 0, 75, 0
2, 35280, Note_on_c, 0, 77, 62
2, 35520, Note_on_c, 0, 77, 0
2, 35520, Note_on_c, 0, 73, 62
2, 35760, Note_on_c, 0, 73, 0
2, 35760, Note_on_c, 0, 72, 62
2, 36000, Note_on_c, 0, 72, 0
2, 36000, Control_c, 0, 64, 0
2, 36000, Note_on_c, 0, 70, 62
2, 36480, Note_on_c, 0, 70, 0
2, 36480, Note_on_c, 0, 72, 62
2, 36720, Note_on_c, 0, 72, 0
2, 36720, Note_on_c, 0, 73, 62
2, 36800, Note_on_c, 0, 73, 0
2, 36800, Note_on_c, 0, 75, 62
2, 36879, Note_on_c, 0, 75, 0
2, 36879, Note_on_c, 0, 73, 62
2, 36960, Note_on_c, 0, 73, 0
2, 36960, Note_on_c, 0, 75, 62
2, 37040, Note_on_c, 0, 75, 0
2, 37040, Note_on_c, 0, 73, 62
2, 37119, Note_on_c, 0, 73, 0
2, 37119, Note_on_c, 0, 75, 62
2, 37200, Note_on_c, 0, 75, 0
2, 37200, Note_on_c, 0, 73, 62
2, 37280, Note_on_c, 0, 73, 0
2, 37280, Note_on_c, 0, 72, 62
2, 37359, Note_on_c, 0, 72, 0
2, 37359, Note_on_c, 0, 73, 62
2, 37440, Note_on_c, 0, 73, 0
2, 37440, Note_on_c, 0, 72, 62
2, 38400, Note_on_c, 0, 72, 0
2, 38400, Note_on_c, 0, 73, 62
2, 38640, Note_on_c, 0, 73, 0
2, 38640, Note_on_c, 0, 75, 62
2, 38880, Note_on_c, 0, 75, 0
2, 38880, Note_on_c, 0, 73, 62
2, 38880, Note_on_c, 0, 77, 62
2, 39480, Note_on_c, 0, 77, 0
2, 39480, Note_on_c, 0, 73, 0
2, 39480, Note_on_c, 0, 72, 62
2, 39480, Note_on_c, 0, 75, 62
2, 39600, Note_on_c, 0, 75, 0
2, 39600, Note_on_c, 0, 72, 0
2, 39600, Note_on_c, 0, 72, 62
2, 39600, Note_on_c, 0, 75, 62
2, 39840, Note_on_c, 0, 75, 0
2, 39840, Note_on_c, 0, 72, 0
2, 39840, Note_on_c, 0, 70, 62
2, 39840, Note_on_c, 0, 73, 62
2, 40200, Note_on_c, 0, 73, 0
2, 40200, Note_on_c, 0, 70, 0
2, 40200, Note_on_c, 0, 68, 62
2, 40200, Note_on_c, 0, 72, 62
2, 40320, Note_on_c, 0, 72, 0
2, 40320, Note_on_c, 0, 68, 0
2, 40320, Note_on_c, 0, 68, 62
2, 40320, Note_on_c, 0, 72, 62
2, 41040, Note_on_c, 0, 72, 0
2, 41040, Note_on_c, 0, 68, 0
2, 41040, Note_on_c, 0, 67, 62
2, 41040, Note_on_c, 0, 70, 62
2, 41520, Note_on_c, 0, 70, 0
2, 41520, Note_on_c, 0, 67, 0
2, 41760, Note_on_c, 0, 58, 75
2, 42480, Note_on_c, 0, 58, 0
2, 42480, Note_on_c, 0, 63, 75
2, 43920, Note_on_c, 0, 63, 0
2, 43920, Note_on_c, 0, 65, 75
2, 44880, Note_on_c, 0, 65, 0
2, 44880, Note_on_c, 0, 63, 75
2, 45120, Note_on_c, 0, 63, 0
2, 45120, Note_on_c, 0, 65, 75
2, 45360, Note_on_c, 0, 65, 0
2, 45360, Note_on_c, 0, 66, 75
2, 45600, Note_on_c, 0, 66, 0
2, 45600, Note_on_c, 0, 65, 75
2, 45840, Note_on_c, 0, 65, 0
2, 45840, Note_on_c, 0, 63, 75
2, 46080, Note_on_c, 0, 63, 0
2, 46080, Note_on_c, 0, 70, 101
2, 46800, Note_on_c, 0, 70, 0
2, 46800, Note_on_c, 0, 68, 75
2, 47040, Note_on_c, 0, 68, 0
2, 47280, Note_on_c, 0, 75, 75
2, 47520, Note_on_c, 0, 75, 0
2, 47520, Note_on_c, 0, 70, 114
2, 48240, Note_on_c, 0, 70, 0
2, 48240, Note_on_c, 0, 69, 88
2, 48480, Note_on_c, 0, 69, 0
2, 48720, Note_on_c, 0, 69, 88
2, 48960, Note_on_c, 0, 69, 0
2, 48960, Control_c, 0, 64, 127
2, 48960, Note_on_c, 0, 70, 75
2, 49200, Note_on_c, 0, 70, 0
2, 49200, Note_on_c, 0, 69, 75
2, 49440, Note_on_c, 0, 69, 0
2, 49440, Note_on_c, 0, 68, 75
2, 49680, Note_on_c, 0, 68, 0
2, 49680, Note_on_c, 0, 67, 75
2, 50160, Note_on_c, 0, 67, 0
2, 50160, Control_c, 0, 64, 0
2, 50160, Note_on_c, 0, 70, 75
2, 50400, Note_on_c, 0, 70, 0
2, 50400, Control_c, 0, 64, 127
2, 50400, Note_on_c, 0, 70, 62
2, 50640, Note_on_c, 0, 70, 0
2, 50640, Note_on_c, 0, 68, 62
2, 50880, Note_on_c, 0, 68, 0
2, 50880, Note_on_c, 0, 67, 62
2, 51120, Note_on_c, 0, 67, 0
2, 51120, Note_on_c, 0, 65, 62
2, 51360, Note_on_c, 0, 65, 0
2, 51360, Note_on_c, 0, 67, 62
2, 51600, Note_on_c, 0, 67, 0
2, 51600, Note_on_c, 0, 65, 62
2, 51840, Note_on_c, 0, 65, 0
2, 51840, Control_c, 0, 64, 0
2, 51840, Note_on_c, 0, 63, 62
2, 52320, Note_on_c, 0, 63, 0
2, 52800, Control_c, 0, 64, 127
2, 52800, Note_on_c, 0, 80, 62
2, 53040, Note_on_c, 0, 80, 0
2, 53040, Note_on_c, 0, 79, 62
2, 53280, Note_on_c, 0, 79, 0
2, 53280, Note_on_c, 0, 77, 62
2, 53520, Note_on_c, 0, 77, 0
2, 53520, Note_on_c, 0, 79, 62
2, 53760, Note_on_c, 0, 79, 0
2, 53760, Control_c, 0, 64, 0
2, 53760, Note_on_c, 0, 80, 62
2, 54000, Note_on_c, 0, 80, 0
2, 54240, Control_c, 0, 64, 127
2, 54240, Note_on_c, 0, 79, 62
2, 54480, Note_on_c, 0, 79, 0
2, 54480, Note_on_c, 0, 77, 62
2, 54720, Note_on_c, 0, 77, 0
2, 54720, Note_on_c, 0, 75, 62
2, 54960, Note_on_c, 0, 75, 0
2, 54960, Note_on_c, 0, 77, 62
2, 55200, Note_on_c, 0, 77, 0
2, 55200, Control_c, 0, 64, 0
2, 55200, Note_on_c, 0, 78, 62
2, 55680, Note_on_c, 0, 78, 0
2, 55680, Control_c, 0, 64, 127
2, 55680, Note_on_c, 0, 77, 62
2, 55920, Note_on_c, 0, 77, 0
2, 55920, Note_on_c, 0, 75, 62
2, 56160, Note_on_c, 0, 75, 0
2, 56160, Note_on_c, 0, 74, 62
2, 56640, Note_on_c, 0, 74, 0
2, 56640, Control_c, 0, 64, 0
2, 56640, Note_on_c, 0, 75, 62
2, 56880, Note_on_c, 0, 75, 0
2, 56880, Note_on_c, 0, 80, 62
2, 57120, Note_on_c, 0, 80, 0
2, 57120, Note_on_c, 0, 77, 62
2, 57360, Note_on_c, 0, 77, 0
2, 57360, Note_on_c, 0, 74, 62
2, 57600, Note_on_c, 0, 74, 0
2, 57600, Note_on_c, 0, 68, 62
2, 57600, Note_on_c, 0, 74, 62
2, 58320, Note_on_c, 0, 74, 0
2, 58320, Note_on_c, 0, 68, 0
2, 58320, Note_on_c, 0, 67, 62
2, 58320, Note_on_c, 0, 75, 62
2, 59040, Note_on_c, 0, 75, 0
2, 59040, Note_on_c, 0, 67, 0
2, 60480, Note_on_c, 0, 66, 75
2, 60720, Note_on_c, 0, 66, 0
2, 60720, Note_on_c, 0, 66, 75
2, 60960, Note_on_c, 0, 66, 0
2, 60960, Note_on_c, 0, 66, 75
2, 61200, Note_on_c, 0, 66, 0
2, 61200, Note_on_c, 0, 66, 75
2, 61280, Note_on_c, 0, 66, 0
2, 61280, Note_on_c, 0, 68, 75
2, 61359, Note_on_c, 0, 68, 0
2, 61359, Note_on_c, 0, 66, 75
2, 61440, Note_on_c, 0, 66, 0
2, 61440, Note_on_c, 0, 65, 75
2, 61680, Note_on_c, 0, 65, 0
2, 61680, Note_on_c, 0, 66, 75
2, 61920, Note_on_c, 0, 66, 0
2, 61920, Note_on_c, 0, 73, 75
2, 62640, Note_on_c, 0, 73, 0
2, 62640, Note_on_c, 0, 72, 75
2, 63120, Note_on_c, 0, 72, 0
2, 63360, Note_on_c, 0, 72, 75
2, 63600, Note_on_c, 0, 72, 0
2, 63600, Note_on_c, 0, 72, 75
2, 63840, Note_on_c, 0, 72, 0
2, 63840, Note_on_c, 0, 72, 75
2, 64080, Note_on_c, 0, 72, 0
2, 64080, Note_on_c, 0, 72, 88
2, 64160, Note_on_c, 0, 72, 0
2, 64160, Note_on_c, 0, 73, 88
2, 64239, Note_on_c, 0, 73, 0
2, 64239, Note_on_c, 0, 72, 88
2, 64320, Note_on_c, 0, 72, 0
2, 64320, Note_on_c, 0, 71, 88
2, 64560, Note_on_c, 0, 71, 0
2, 64560, Note_on_c, 0, 72, 88
2, 64800, Note_on_c, 0, 72, 0
2, 64800, Note_on_c, 0, 70, 114
2, 64800, Note_on_c, 0, 78, 114
2, 65520, Note_on_c, 0, 78, 0
2, 65520, Note_on_c, 0, 70, 0
2, 65520, Note_on_c, 0, 69, 88
2, 65520, Note_on_c, 0, 77, 88
2, 66000, Note_on_c, 0, 77, 0
2, 66000, Note_on_c, 0, 69, 0
2, 66240, Note_on_c, 0, 68, 62
2, 66480, Note_on_c, 0, 68, 0
2, 66480, Note_on_c, 0, 68, 62
2, 66720, Note_on_c, 0, 68, 0
2, 66720, Note_on_c, 0, 68, 62
2, 66960, Note_on_c, 0, 68, 0
2, 66960, Note_on_c, 0, 68, 62
2, 67040, Note_on_c, 0, 68, 0
2, 67040, Note_on_c, 0, 70, 62
2, 67119, Note_on_c, 0, 70, 0
2, 67119, Note_on_c, 0, 68, 62
2, 67200, Note_on_c, 0, 68, 0
2, 67200, Note_on_c, 0, 67, 62
2, 67440, Note_on_c, 0, 67, 0
2, 67440, Note_on_c, 0, 68, 62
2, 67680, Note_on_c, 0, 68, 0
2, 67680, Note_on_c, 0, 75, 75
2, 68400, Note_on_c, 0, 75, 0
2, 68400, Note_on_c, 0, 74, 75
2, 68880, Note_on_c, 0, 74, 0
2, 69120, Note_on_c, 0, 77, 75
2, 69360, Note_on_c, 0, 77, 0
2, 69360, Note_on_c, 0, 77, 75
2, 69600, Note_on_c, 0, 77, 0
2, 69600, Note_on_c, 0, 77, 75
2, 69840, Note_on_c, 0, 77, 0
2, 69840, Note_on_c, 0, 77, 75
2, 69920, Note_on_c, 0, 77, 0
2, 69920, Note_on_c, 0, 79, 75
2, 69999, Note_on_c, 0, 79, 0
2, 69999, Note_on_c, 0, 77, 75
2, 70080, Note_on_c, 0, 77, 0
2, 70080, Note_on_c, 0, 76, 75
2, 70320, Note_on_c, 0, 76, 0
2, 70320, Note_on_c, 0, 77, 75
2, 70560, Note_on_c, 0, 77, 0
2, 70560, Note_on_c, 0, 82, 88
2, 71280, Note_on_c, 0, 82, 0
2, 71280, Note_on_c, 0, 76, 88
2, 71760, Note_on_c, 0, 76, 0
2, 72000, Control_c, 0, 64, 127
2, 72000, Note_on_c, 0, 77, 88
2, 72240, Note_on_c, 0, 77, 0
2, 72240, Note_on_c, 0, 72, 88
2, 72480, Note_on_c, 0, 72, 0
2, 72480, Note_on_c, 0, 73, 88
2, 72720, Note_on_c, 0, 73, 0
2, 72720, Note_on_c, 0, 75, 88
2, 72960, Note_on_c, 0, 75, 0
2, 72960, Note_on_c, 0, 73, 88
2, 73200, Note_on_c, 0, 73, 0
2, 73200, Control_c, 0, 64, 0
2, 73200, Note_on_c, 0, 72, 88
2, 73320, Note_on_c, 0, 72, 0
2, 73320, Note_on_c, 0, 72, 88
2, 73359, Note_on_c, 0, 72, 0
2, 73359, Note_on_c, 0, 73, 88
2, 73400, Note_on_c, 0, 73, 0
2, 73400, Note_on_c, 0, 75, 88
2, 73440, Note_on_c, 0, 75, 0
2, 73440, Note_on_c, 0, 73, 88
2, 73680, Note_on_c, 0, 73, 0
2, 73680, Note_on_c, 0, 72, 88
2, 73920, Note_on_c, 0, 72, 0
2, 73920, Note_on_c, 0, 70, 88
2, 74160, Note_on_c, 0, 70, 0
2, 74160, Note_on_c, 0, 77, 88
2, 75120, Note_on_c, 0, 77, 0
2, 75120, Control_c, 0, 64, 127
2, 75120, Note_on_c, 0, 74, 88
2, 75360, Note_on_c, 0, 74, 0
2, 75360, Note_on_c, 0, 75, 88
2, 75600, Note_on_c, 0, 75, 0
2, 75600, Note_on_c, 0, 77, 88
2, 75840, Note_on_c, 0, 77, 0
2, 75840, Note_on_c, 0, 75, 88
2, 76080, Note_on_c, 0, 75, 0
2, 76080, Control_c, 0, 64, 0
2, 76080, Note_on_c, 0, 74, 88
2, 76200, Note_on_c, 0, 74, 0
2, 76200, Note_on_c, 0, 74, 88
2, 76239, Note_on_c, 0, 74, 0
2, 76239, Note_on_c, 0, 75, 88
2, 76280, Note_on_c, 0, 75, 0
2, 76280, Note_on_c, 0, 77, 88
2, 76320, Note_on_c, 0, 77, 0
2, 76320, Note_on_c, 0, 75, 88
2, 76560, Note_on_c, 0, 75, 0
2, 76560, Note_on_c, 0, 74, 88
2, 76800, Note_on_c, 0, 74, 0
2, 76800, Note_on_c, 0, 72, 88
2, 77040, Note_on_c, 0, 72, 0
2, 77040, Note_on_c, 0, 79, 88
2, 77520, Note_on_c, 0, 79, 0
2, 77760, Note_on_c, 0, 79, 88
2, 78000, Note_on_c, 0, 79, 0
2, 78000, Note_on_c, 0, 73, 88
2, 78240, Note_on_c, 0, 73, 0
2, 78240, Note_on_c, 0, 72, 88
2, 78720, Note_on_c, 0, 72, 0
2, 78720, Note_on_c, 0, 76, 88
2, 78960, Note_on_c, 0, 76, 0
2, 78960, Note_on_c, 0, 77, 88
2, 79200, Note_on_c, 0, 77, 0
2, 79200, Note_on_c, 0, 79, 88
2, 79440, Note_on_c, 0, 79, 0
2, 79440, Note_on_c, 0, 73, 88
2, 79680, Note_on_c, 0, 73, 0
2, 79680, Note_on_c, 0, 72, 88
2, 80160, Note_on_c, 0, 72, 0
2, 80160, Control_c, 0, 64, 127
2, 80160, Note_on_c, 0, 76, 88
2, 80400, Note_on_c, 0, 76, 0
2, 80400, Note_on_c, 0, 77, 88
2, 80880, Note_on_c, 0, 77, 0
2, 80880, Note_on_c, 0, 76, 88
2, 81120, Note_on_c, 0, 76, 0
2, 81120, Note_on_c, 0, 77, 88
2, 81600, Note_on_c, 0, 77, 0
2, 81600, Note_on_c, 0, 76, 88
2, 81840, Note_on_c, 0, 76, 0
2, 81840, Note_on_c, 0, 77, 88
2, 82320, Note_on_c, 0, 77, 0
2, 82320, Note_on_c, 0, 76, 88
2, 82560, Note_on_c, 0, 76, 0
2, 82560, Note_on_c, 0, 77, 88
2, 83040, Note_on_c, 0, 77, 0
2, 83040, Note_on_c, 0, 76, 88
2, 83280, Note_on_c, 0, 76, 0
2, 83280, Control_c, 0, 64, 0
2, 83280, Note_on_c, 0, 77, 88
2, 83520, Note_on_c, 0, 77, 0
2, 83520, Note_on_c, 0, 68, 88
2, 83760, Note_on_c, 0, 68, 0
2, 83760, Note_on_c, 0, 68, 88
2, 84000, Note_on_c, 0, 68, 0
2, 84000, Note_on_c, 0, 68, 88
2, 84240, Note_on_c, 0, 68, 0
2, 84240, Note_on_c, 0, 68, 88
2, 84320, Note_on_c, 0, 68, 0
2, 84320, Note_on_c, 0, 70, 88
2, 84399, Note_on_c, 0, 70, 0
2, 84399, Note_on_c, 0, 68, 88
2, 84480, Note_on_c, 0, 68, 0
2, 84480, Note_on_c, 0, 67, 88
2, 84720, Note_on_c, 0, 67, 0
2, 84720, Note_on_c, 0, 68, 88
2, 84960, Note_on_c, 0, 68, 0
2, 84960, Note_on_c, 0, 75, 88
2, 85680, Note_on_c, 0, 75, 0
2, 85680, Note_on_c, 0, 74, 88
2, 86160, Note_on_c, 0, 74, 0
2, 86400, Note_on_c, 0, 70, 88
2, 86640, Note_on_c, 0, 70, 0
2, 86640, Note_on_c, 0, 70, 88
2, 86880, Note_on_c, 0, 70, 0
2, 86880, Note_on_c, 0, 70, 88
2, 87120, Note_on_c, 0, 70, 0
2, 87120, Note_on_c, 0, 70, 88
2, 87200, Note_on_c, 0, 70, 0
2, 87200, Note_on_c, 0, 71, 88
2, 87279, Note_on_c, 0, 71, 0
2, 87279, Note_on_c, 0, 70, 88
2, 87360, Note_on_c, 0, 70, 0
2, 87360, Note_on_c, 0, 69, 88
2, 87600, Note_on_c, 0, 69, 0
2, 87600, Note_on_c, 0, 70, 88
2, 87840, Note_on_c, 0, 70, 0
2, 87840, Note_on_c, 0, 70, 88
2, 87920, Note_on_c, 0, 70, 0
2, 87920, Note_on_c, 0, 71, 88
2, 87999, Note_on_c, 0, 71, 0
2, 87999, Note_on_c, 0, 70, 88
2, 88080, Note_on_c, 0, 70, 0
2, 88080, Note_on_c, 0, 69, 88
2, 88320, Note_on_c, 0, 69, 0
2, 88320, Note_on_c, 0, 70, 101
2, 88560, Note_on_c, 0, 70, 0
2, 88560, Note_on_c, 0, 70, 101
2, 88640, Note_on_c, 0, 70, 0
2, 88640, Note_on_c, 0, 71, 101
2, 88719, Note_on_c, 0, 71, 0
2, 88719, Note_on_c, 0, 70, 101
2, 88800, Note_on_c, 0, 70, 0
2, 88800, Note_on_c, 0, 69, 101
2, 89040, Note_on_c, 0, 69, 0
2, 89040, Note_on_c, 0, 70, 101
2, 89280, Note_on_c, 0, 70, 0
2, 89280, Note_on_c, 0, 73, 101
2, 89280, Note_on_c, 0, 76, 101
2, 90720, Note_on_c, 0, 76, 0
2, 90720, Note_on_c, 0, 75, 88
2, 91440, Note_on_c, 0, 75, 0
2, 91440, Note_on_c, 0, 73, 0
2, 92160, Note_on_c, 0, 63, 62
2, 92880, Note_on_c, 0, 63, 0
2, 92880, Note_on_c, 0, 68, 62
2, 93600, Control_c, 0, 64, 127
2, 93840, Note_on_c, 0, 68, 0
2, 93840, Note_on_c, 0, 67, 62
2, 94080, Note_on_c, 0, 67, 0
2, 94080, Note_on_c, 0, 68, 62
2, 94320, Note_on_c, 0, 68, 0
2, 94320, Note_on_c, 0, 70, 62
2, 94560, Note_on_c, 0, 70, 0
2, 94560, Note_on_c, 0, 67, 62
2, 94800, Note_on_c, 0, 67, 0
2, 94800, Note_on_c, 0, 65, 62
2, 95040, Note_on_c, 0, 65, 0
2, 95040, Control_c, 0, 64, 0
2, 95040, Note_on_c, 0, 68, 62
2, 95760, Note_on_c, 0, 68, 0
2, 95760, Control_c, 0, 64, 127
2, 95760, Note_on_c, 0, 75, 62
2, 96720, Note_on_c, 0, 75, 0
2, 96720, Note_on_c, 0, 73, 62
2, 96960, Note_on_c, 0, 73, 0
2, 96960, Note_on_c, 0, 75, 62
2, 97200, Note_on_c, 0, 75, 0
2, 97200, Note_on_c, 0, 77, 62
2, 97440, Note_on_c, 0, 77, 0
2, 97440, Note_on_c, 0, 73, 62
2, 97680, Note_on_c, 0, 73, 0
2, 97680, Note_on_c, 0, 72, 62
2, 97920, Note_on_c, 0, 72, 0
2, 97920, Control_c, 0, 64, 0
2, 97920, Note_on_c, 0, 70, 62
2, 98400, Note_on_c, 0, 70, 0
2, 98400, Note_on_c, 0, 72, 62
2, 98640, Note_on_c, 0, 72, 0
2, 98640, Note_on_c, 0, 73, 62
2, 98720, Note_on_c, 0, 73, 0
2, 98720, Note_on_c, 0, 75, 62
2, 98799, Note_on_c, 0, 75, 0
2, 98799, Note_on_c, 0, 73, 62
2, 98880, Note_on_c, 0, 73, 0
2, 98880, Note_on_c, 0, 75, 62
2, 98960, Note_on_c, 0, 75, 0
2, 98960, Note_on_c, 0, 73, 62
2, 99039, Note_on_c, 0, 73, 0
2, 99039, Note_on_c, 0, 75, 62
2, 99120, Note_on_c, 0, 75, 0
2, 99120, Note_on_c, 0, 73, 62
2, 99200, Note_on_c, 0, 73, 0
2, 99200, Note_on_c, 0, 72, 62
2, 99279, Note_on_c, 0, 72, 0
2, 99279, Note_on_c, 0, 73, 62
2, 99360, Note_on_c, 0, 73, 0
2, 99360, Note_on_c, 0, 72, 62
2, 100320, Note_on_c, 0, 72, 0
2, 100320, Note_on_c, 0, 70, 62
2, 100560, Note_on_c, 0, 70, 0
2, 100560, Note_on_c, 0, 72, 75
2, 100800, Note_on_c, 0, 72, 0
2, 100800, Control_c, 0, 64, 127
2, 100800, Note_on_c, 0, 75, 75
2, 101040, Note_on_c, 0, 75, 0
2, 101040, Note_on_c, 0, 73, 62
2, 101280, Note_on_c, 0, 73, 0
2, 101280, Note_on_c, 0, 72, 62
2, 101520, Note_on_c, 0, 72, 0
2, 101520, Note_on_c, 0, 70, 62
2, 101760, Note_on_c, 0, 70, 0
2, 101760, Note_on_c, 0, 72, 62
2, 102000, Note_on_c, 0, 72, 0
2, 102000, Note_on_c, 0, 70, 62
2, 102240, Note_on_c, 0, 70, 0
2, 102240, Control_c, 0, 64, 0
2, 102240, Note_on_c, 0, 68, 62
2, 102480, Note_on_c, 0, 68, 0
2, 102480, Control_c, 0, 64, 127
2, 102480, Note_on_c, 0, 80, 62
2, 102720, Note_on_c, 0, 80, 0
2, 102720, Note_on_c, 0, 79, 62
2, 102960, Note_on_c, 0, 79, 0
2, 102960, Note_on_c, 0, 77, 62
2, 103200, Note_on_c, 0, 77, 0
2, 103200, Note_on_c, 0, 79, 62
2, 103440, Note_on_c, 0, 79, 0
2, 103440, Control_c, 0, 64, 0
2, 103440, Note_on_c, 0, 80, 62
2, 103680, Note_on_c, 0, 80, 0
2, 103920, Control_c, 0, 64, 127
2, 103920, Note_on_c, 0, 79, 62
2, 104160, Note_on_c, 0, 79, 0
2, 104160, Note_on_c, 0, 77, 62
2, 104400, Note_on_c, 0, 77, 0
2, 104400, Note_on_c, 0, 75, 62
2, 104640, Note_on_c, 0, 75, 0
2, 104640, Note_on_c, 0, 77, 62
2, 104880, Note_on_c, 0, 77, 0
2, 104880, Control_c, 0, 64, 0
2, 104880, Note_on_c, 0, 78, 62
2, 105120, Note_on_c, 0, 78, 0
2, 105360, Control_c, 0, 64, 127
2, 105360, Note_on_c, 0, 77, 62
2, 105600, Note_on_c, 0, 77, 0
2, 105600, Note_on_c, 0, 75, 62
2, 105840, Note_on_c, 0, 75, 0
2, 105840, Note_on_c, 0, 74, 62
2, 106080, Note_on_c, 0, 74, 0
2, 106080, Note_on_c, 0, 75, 62
2, 106320, Note_on_c, 0, 75, 0
2, 106320, Control_c, 0, 64, 0
2, 106320, Note_on_c, 0, 77, 62
2, 106560, Note_on_c, 0, 77, 0
2, 106560, Control_c, 0, 64, 127
2, 106560, Note_on_c, 0, 75, 62
2, 107040, Note_on_c, 0, 75, 0
2, 107040, Note_on_c, 0, 68, 62
2, 107280, Note_on_c, 0, 68, 0
2, 107280, Note_on_c, 0, 73, 62
2, 107520, Note_on_c, 0, 73, 0
2, 107520, Note_on_c, 0, 70, 62
2, 107760, Note_on_c, 0, 70, 0
2, 107760, Control_c, 0, 64, 0
2, 107760, Note_on_c, 0, 67, 62
2, 108000, Note_on_c, 0, 67, 0
2, 108000, Note_on_c, 0, 68, 75
2, 108240, Note_on_c, 0, 68, 0
2, 108240, Note_on_c, 0, 68, 75
2, 108480, Note_on_c, 0, 68, 0
2, 108480, Note_on_c, 0, 68, 75
2, 108720, Note_on_c, 0, 68, 0
2, 108720, Note_on_c, 0, 68, 75
2, 108800, Note_on_c, 0, 68, 0
2, 108800, Note_on_c, 0, 70, 75
2, 108879, Note_on_c, 0, 70, 0
2, 108879, Note_on_c, 0, 68, 75
2, 108960, Note_on_c, 0, 68, 0
2, 108960, Note_on_c, 0, 67, 75
2, 109200, Note_on_c, 0, 67, 0
2, 109200, Note_on_c, 0, 68, 75
2, 109440, Note_on_c, 0, 68, 0
2, 109440, Note_on_c, 0, 76, 88
2, 110160, Note_on_c, 0, 76, 0
2, 110160, Note_on_c, 0, 75, 88
2, 110640, Note_on_c, 0, 75, 0
2, 110880, Note_on_c, 0, 68, 88
2, 111120, Note_on_c, 0, 68, 0
2, 111120, Note_on_c, 0, 68, 88
2, 111360, Note_on_c, 0, 68, 0
2, 111360, Note_on_c, 0, 68, 88
2, 111600, Note_on_c, 0, 68, 0
2, 111600, Note_on_c, 0, 68, 88
2, 111680, Note_on_c, 0, 68, 0
2, 111680, Note_on_c, 0, 70, 88
2, 111759, Note_on_c, 0, 70, 0
2, 111759, Note_on_c, 0, 68, 88
2, 111840, Note_on_c, 0, 68, 0
2, 111840, Note_on_c, 0, 67, 88
2, 112080, Note_on_c, 0, 67, 0
2, 112080, Note_on_c, 0, 68, 88
2, 112320, Note_on_c, 0, 68, 0
2, 112320, Note_on_c, 0, 68, 88
2, 112320, Note_on_c, 0, 77, 88
2, 113040, Note_on_c, 0, 77, 0
2, 113040, Note_on_c, 0, 68, 0
2, 113040, Note_on_c, 0, 67, 88
2, 113040, Note_on_c, 0, 75, 88
2, 113520, Note_on_c, 0, 75, 0
2, 113520, Note_on_c, 0, 67, 0
2, 113760, Control_c, 0, 64, 127
2, 113760, Note_on_c, 0, 80, 62
2, 114240, Note_on_c, 0, 80, 0
2, 114240, Note_on_c, 0, 79, 62
2, 114720, Note_on_c, 0, 79, 0
2, 114720, Note_on_c, 0, 77, 62
2, 114960, Note_on_c, 0, 77, 0
2, 114960, Note_on_c, 0, 75, 62
2, 115440, Note_on_c, 0, 75, 0
2, 115440, Note_on_c, 0, 73, 62
2, 115680, Note_on_c, 0, 73, 0
2, 115680, Note_on_c, 0, 72, 62
2, 116160, Note_on_c, 0, 72, 0
2, 116160, Note_on_c, 0, 70, 62
2, 116400, Note_on_c, 0, 70, 0
2, 116400, Control_c, 0, 64, 0
2, 116400, Note_on_c, 0, 68, 62
2, 116640, Note_on_c, 0, 68, 0
2, 116640, Control_c, 0, 64, 127
2, 116640, Note_on_c, 0, 68, 62
2, 117600, Note_on_c, 0, 68, 0
2, 117600, Note_on_c, 0, 70, 62
2, 117840, Note_on_c, 0, 70, 0
2, 117840, Note_on_c, 0, 67, 62
2, 118080, Note_on_c, 0, 67, 0
2, 118080, Control_c, 0, 64, 0
2, 118080, Note_on_c, 0, 68, 62
2, 119520, Note_on_c, 0, 68, 0
2, 119520, Note_on_c, 0, 66, 75
2, 120960, Note_on_c, 0, 66, 0
2, 120960, Note_on_c, 0, 65, 75
2, 121680, Note_on_c, 0, 65, 0
2, 121680, Note_on_c, 0, 64, 75
2, 122640, Note_on_c, 0, 64, 0
2, 122640, Control_c, 0, 64, 127
2, 122640, Note_on_c, 0, 67, 62
2, 122880, Note_on_c, 0, 67, 0
2, 122880, Note_on_c, 0, 70, 62
2, 123120, Note_on_c, 0, 70, 0
2, 123120, Note_on_c, 0, 73, 62
2, 123360, Note_on_c, 0, 73, 0
2, 123360, Note_on_c, 0, 70, 62
2, 123600, Note_on_c, 0, 70, 0
2, 123600, Note_on_c, 0, 67, 62
2, 123840, Note_on_c, 0, 67, 0
2, 123840, Note_on_c, 0, 60, 62
2, 123840, Note_on_c, 0, 68, 62
2, 125280, Control_c, 0, 64, 0
2, 127200, Note_on_c, 0, 68, 0
2, 127200, Note_on_c, 0, 60, 0
2, 127200, Control_c, 0, 64, 127
2, 129120, Control_c, 0, 64, 0
2, 129120, End_track
3, 0, Start_track
3, 0, Title_t, "Grand Piano"
3, 0, Program_c, 0, 0
3, 0, Control_c, 0, 7, 114
3, 0, Control_c, 0, 10, 80
3, 2880, Note_on_c, 0, 63, 49
3, 3360, Note_on_c, 0, 63, 0
3, 3360, Note_on_c, 0, 65, 49
3, 3600, Note_on_c, 0, 65, 0
3, 3600, Note_on_c, 0, 66, 49
3, 3680, Note_on_c, 0, 66, 0
3, 3680, Note_on_c, 0, 68, 49
3, 3759, Note_on_c, 0, 68, 0
3, 3759, Note_on_c, 0, 66, 49
3, 3840, Note_on_c, 0, 66, 0
3, 3840, Note_on_c, 0, 68, 49
3, 3920, Note_on_c, 0, 68, 0
3, 3920, Note_on_c, 0, 66, 49
3, 3999, Note_on_c, 0, 66, 0
3, 3999, Note_on_c, 0, 68, 49
3, 4080, Note_on_c, 0, 68, 0
3, 4080, Note_on_c, 0, 66, 49
3, 4160, Note_on_c, 0, 66, 0
3, 4160, Note_on_c, 0, 65, 49
3, 4239, Note_on_c, 0, 65, 0
3, 4239, Note_on_c, 0, 66, 49
3, 4320, Note_on_c, 0, 66, 0
3, 4320, Note_on_c, 0, 65, 49
3, 5040, Note_on_c, 0, 65, 0
3, 5040, Note_on_c, 0, 68, 49
3, 6000, Note_on_c, 0, 68, 0
3, 6000, Note_on_c, 0, 67, 49
3, 6240, Note_on_c, 0, 67, 0
3, 6240, Note_on_c, 0, 68, 49
3, 6480, Note_on_c, 0, 68, 0
3, 6480, Note_on_c, 0, 67, 49
3, 7440, Note_on_c, 0, 67, 0
3, 7440, Note_on_c, 0, 68, 49
3, 7680, Note_on_c, 0, 68, 0
3, 7680, Note_on_c, 0, 70, 49
3, 7920, Note_on_c, 0, 70, 0
3, 7920, Note_on_c, 0, 68, 49
3, 8160, Note_on_c, 0, 68, 0
3, 8160, Note_on_c, 0, 70, 49
3, 8400, Note_on_c, 0, 70, 0
3, 8400, Note_on_c, 0, 72, 49
3, 8640, Note_on_c, 0, 72, 0
3, 12960, Note_on_c, 0, 59, 49
3, 13200, Note_on_c, 0, 59, 0
3, 13200, Note_on_c, 0, 62, 49
3, 13440, Note_on_c, 0, 62, 0
3, 13440, Note_on_c, 0, 63, 49
3, 13680, Note_on_c, 0, 63, 0
3, 13680, Note_on_c, 0, 65, 49
3, 13920, Note_on_c, 0, 65, 0
3, 13920, Note_on_c, 0, 62, 49
3, 14160, Note_on_c, 0, 62, 0
3, 14160, Note_on_c, 0, 60, 49
3, 14400, Note_on_c, 0, 60, 0
3, 14400, Note_on_c, 0, 58, 49
3, 15120, Note_on_c, 0, 58, 0
3, 15120, Note_on_c, 0, 66, 49
3, 16080, Note_on_c, 0, 66, 0
3, 16080, Note_on_c, 0, 63, 49
3, 16320, Note_on_c, 0, 63, 0
3, 16320, Note_on_c, 0, 65, 49
3, 16560, Note_on_c, 0, 65, 0
3, 16560, Note_on_c, 0, 66, 49
3, 16800, Note_on_c, 0, 66, 0
3, 16800, Note_on_c, 0, 65, 49
3, 17040, Note_on_c, 0, 65, 0
3, 17040, Note_on_c, 0, 63, 49
3, 17280, Note_on_c, 0, 63, 0
3, 17520, Note_on_c, 0, 63, 75
3, 17760, Note_on_c, 0, 63, 0
3, 17760, Note_on_c, 0, 65, 75
3, 18000, Note_on_c, 0, 65, 0
3, 18000, Note_on_c, 0, 66, 75
3, 18240, Note_on_c, 0, 66, 0
3, 18240, Note_on_c, 0, 65, 75
3, 18480, Note_on_c, 0, 65, 0
3, 18480, Note_on_c, 0, 63, 75
3, 18720, Note_on_c, 0, 63, 0
3, 18720, Note_on_c, 0, 65, 62
3, 19200, Note_on_c, 0, 65, 0
3, 19200, Note_on_c, 0, 58, 62
3, 19440, Note_on_c, 0, 58, 0
3, 19440, Note_on_c, 0, 63, 62
3, 19680, Note_on_c, 0, 63, 0
3, 19680, Note_on_c, 0, 62, 62
3, 19920, Note_on_c, 0, 62, 0
3, 19920, Note_on_c, 0, 61, 62
3, 20160, Note_on_c, 0, 61, 0
3, 20160, Note_on_c, 0, 60, 49
3, 20640, Note_on_c, 0, 60, 0
3, 20640, Note_on_c, 0, 63, 49
3, 20880, Note_on_c, 0, 63, 0
3, 20880, Note_on_c, 0, 62, 49
3, 21600, Note_on_c, 0, 62, 0
3, 21600, Note_on_c, 0, 63, 49
3, 21840, Note_on_c, 0, 63, 0
3, 21840, Control_c, 0, 64, 127
3, 21840, Note_on_c, 0, 75, 49
3, 22080, Note_on_c, 0, 75, 0
3, 22080, Note_on_c, 0, 74, 49
3, 22320, Note_on_c, 0, 74, 0
3, 22320, Note_on_c, 0, 72, 49
3, 22560, Note_on_c, 0, 72, 0
3, 22560, Note_on_c, 0, 74, 49
3, 22800, Note_on_c, 0, 74, 0
3, 22800, Control_c, 0, 64, 0
3, 22800, Note_on_c, 0, 75, 49
3, 23040, Note_on_c, 0, 75, 0
3, 23280, Control_c, 0, 64, 127
3, 23280, Note_on_c, 0, 74, 49
3, 23520, Note_on_c, 0, 74, 0
3, 23520, Note_on_c, 0, 72, 49
3, 23760, Note_on_c, 0, 72, 0
3, 23760, Note_on_c, 0, 70, 49
3, 24000, Note_on_c, 0, 70, 0
3, 24000, Note_on_c, 0, 72, 49
3, 24240, Note_on_c, 0, 72, 0
3, 24240, Control_c, 0, 64, 0
3, 24240, Note_on_c, 0, 73, 49
3, 24480, Note_on_c, 0, 73, 0
3, 24720, Control_c, 0, 64, 127
3, 24720, Note_on_c, 0, 72, 49
3, 24960, Note_on_c, 0, 72, 0
3, 24960, Note_on_c, 0, 70, 49
3, 25200, Note_on_c, 0, 70, 0
3, 25200, Note_on_c, 0, 69, 49
3, 25440, Note_on_c, 0, 69, 0
3, 25440, Note_on_c, 0, 70, 49
3, 25680, Note_on_c, 0, 70, 0
3, 25680, Note_on_c, 0, 72, 49
3, 25920, Note_on_c, 0, 72, 0
3, 25920, Control_c, 0, 64, 0
3, 25920, Note_on_c, 0, 70, 49
3, 26640, Note_on_c, 0, 70, 0
3, 26640, Note_on_c, 0, 70, 75
3, 27360, Note_on_c, 0, 70, 0
3, 33120, Note_on_c, 0, 63, 49
3, 33600, Note_on_c, 0, 63, 0
3, 33600, Note_on_c, 0, 65, 49
3, 33840, Note_on_c, 0, 65, 0
3, 33840, Note_on_c, 0, 66, 49
3, 33920, Note_on_c, 0, 66, 0
3, 33920, Note_on_c, 0, 68, 49
3, 33999, Note_on_c, 0, 68, 0
3, 33999, Note_on_c, 0, 66, 49
3, 34080, Note_on_c, 0, 66, 0
3, 34080, Note_on_c, 0, 68, 49
3, 34160, Note_on_c, 0, 68, 0
3, 34160, Note_on_c, 0, 66, 49
3, 34239, Note_on_c, 0, 66, 0
3, 34239, Note_on_c, 0, 68, 49
3, 34320, Note_on_c, 0, 68, 0
3, 34320, Note_on_c, 0, 66, 49
3, 34400, Note_on_c, 0, 66, 0
3, 34400, Note_on_c, 0, 65, 49
3, 34479, Note_on_c, 0, 65, 0
3, 34479, Note_on_c, 0, 66, 49
3, 34560, Note_on_c, 0, 66, 0
3, 34560, Note_on_c, 0, 65, 49
3, 35280, Note_on_c, 0, 65, 0
3, 35280, Note_on_c, 0, 68, 49
3, 36240, Note_on_c, 0, 68, 0
3, 36240, Note_on_c, 0, 67, 49
3, 36480, Note_on_c, 0, 67, 0
3, 36480, Note_on_c, 0, 68, 49
3, 36720, Note_on_c, 0, 68, 0
3, 36720, Note_on_c, 0, 67, 49
3, 37680, Note_on_c, 0, 67, 0
3, 37680, Note_on_c, 0, 68, 49
3, 37920, Note_on_c, 0, 68, 0
3, 37920, Note_on_c, 0, 70, 49
3, 38160, Note_on_c, 0, 70, 0
3, 38160, Note_on_c, 0, 68, 49
3, 38400, Note_on_c, 0, 68, 0
3, 38400, Note_on_c, 0, 70, 49
3, 38640, Note_on_c, 0, 70, 0
3, 38640, Note_on_c, 0, 72, 49
3, 38880, Note_on_c, 0, 72, 0
3, 43200, Note_on_c, 0, 59, 49
3, 43440, Note_on_c, 0, 59, 0
3, 43440, Note_on_c, 0, 62, 49
3, 43680, Note_on_c, 0, 62, 0
3, 43680, Note_on_c, 0, 63, 49
3, 43920, Note_on_c, 0, 63, 0
3, 43920, Note_on_c, 0, 65, 49
3, 44160, Note_on_c, 0, 65, 0
3, 44160, Note_on_c, 0, 62, 49
3, 44400, Note_on_c, 0, 62, 0
3, 44400, Note_on_c, 0, 60, 49
3, 44640, Note_on_c, 0, 60, 0
3, 44640, Note_on_c, 0, 58, 49
3, 45360, Note_on_c, 0, 58, 0
3, 45360, Note_on_c, 0, 66, 49
3, 46320, Note_on_c, 0, 66, 0
3, 46320, Note_on_c, 0, 63, 49
3, 46560, Note_on_c, 0, 63, 0
3, 46560, Note_on_c, 0, 65, 49
3, 46800, Note_on_c, 0, 65, 0
3, 46800, Note_on_c, 0, 66, 49
3, 47040, Note_on_c, 0, 66, 0
3, 47040, Note_on_c, 0, 65, 49
3, 47280, Note_on_c, 0, 65, 0
3, 47280, Note_on_c, 0, 63, 49
3, 47520, Note_on_c, 0, 63, 0
3, 47760, Note_on_c, 0, 63, 75
3, 48000, Note_on_c, 0, 63, 0
3, 48000, Note_on_c, 0, 65, 75
3, 48240, Note_on_c, 0, 65, 0
3, 48240, Note_on_c, 0, 66, 75
3, 48480, Note_on_c, 0, 66, 0
3, 48480, Note_on_c, 0, 65, 75
3, 48720, Note_on_c, 0, 65, 0
3, 48720, Note_on_c, 0, 63, 75
3, 48960, Note_on_c, 0, 63, 0
3, 48960, Note_on_c, 0, 65, 62
3, 49440, Note_on_c, 0, 65, 0
3, 49440, Note_on_c, 0, 58, 62
3, 49680, Note_on_c, 0, 58, 0
3, 49680, Note_on_c, 0, 63, 62
3, 49920, Note_on_c, 0, 63, 0
3, 49920, Note_on_c, 0, 62, 62
3, 50160, Note_on_c, 0, 62, 0
3, 50160, Note_on_c, 0, 61, 62
3, 50400, Note_on_c, 0, 61, 0
3, 50400, Note_on_c, 0, 60, 49
3, 50880, Note_on_c, 0, 60, 0
3, 50880, Note_on_c, 0, 63, 49
3, 51120, Note_on_c, 0, 63, 0
3, 51120, Note_on_c, 0, 62, 49
3, 51840, Note_on_c, 0, 62, 0
3, 51840, Note_on_c, 0, 63, 49
3, 52080, Note_on_c, 0, 63, 0
3, 52080, Control_c, 0, 64, 127
3, 52080, Note_on_c, 0, 75, 49
3, 52320, Note_on_c, 0, 75, 0
3, 52320, Note_on_c, 0, 74, 49
3, 52560, Note_on_c, 0, 74, 0
3, 52560, Note_on_c, 0, 72, 49
3, 52800, Note_on_c, 0, 72, 0
3, 52800, Note_on_c, 0, 74, 49
3, 53040, Note_on_c, 0, 74, 0
3, 53040, Control_c, 0, 64, 0
3, 53040, Note_on_c, 0, 75, 49
3, 53280, Note_on_c, 0, 75, 0
3, 53520, Control_c, 0, 64, 127
3, 53520, Note_on_c, 0, 74, 49
3, 53760, Note_on_c, 0, 74, 0
3, 53760, Note_on_c, 0, 72, 49
3, 54000, Note_on_c, 0, 72, 0
3, 54000, Note_on_c, 0, 70, 49
3, 54240, Note_on_c, 0, 70, 0
3, 54240, Note_on_c, 0, 72, 49
3, 54480, Note_on_c, 0, 72, 0
3, 54480, Control_c, 0, 64, 0
3, 54480, Note_on_c, 0, 73, 49
3, 54720, Note_on_c, 0, 73, 0
3, 54960, Control_c, 0, 64, 127
3, 54960, Note_on_c, 0, 72, 49
3, 55200, Note_on_c, 0, 72, 0
3, 55200, Note_on_c, 0, 70, 49
3, 55440, Note_on_c, 0, 70, 0
3, 55440, Note_on_c, 0, 69, 49
3, 55680, Note_on_c, 0, 69, 0
3, 55680, Note_on_c, 0, 70, 49
3, 55920, Note_on_c, 0, 70, 0
3, 55920, Note_on_c, 0, 72, 49
3, 56160, Note_on_c, 0, 72, 0
3, 56160, Control_c, 0, 64, 0
3, 56160, Note_on_c, 0, 70, 49
3, 56880, Note_on_c, 0, 70, 0
3, 56880, Note_on_c, 0, 70, 75
3, 57600, Note_on_c, 0, 70, 0
3, 61920, Note_on_c, 0, 66, 62
3, 62160, Note_on_c, 0, 66, 0
3, 62160, Note_on_c, 0, 66, 62
3, 62400, Note_on_c, 0, 66, 0
3, 62400, Note_on_c, 0, 66, 62
3, 62640, Note_on_c, 0, 66, 0
3, 62640, Note_on_c, 0, 66, 62
3, 62720, Note_on_c, 0, 66, 0
3, 62720, Note_on_c, 0, 68, 62
3, 62799, Note_on_c, 0, 68, 0
3, 62799, Note_on_c, 0, 66, 62
3, 62880, Note_on_c, 0, 66, 0
3, 62880, Note_on_c, 0, 65, 62
3, 63120, Note_on_c, 0, 65, 0
3, 63120, Note_on_c, 0, 66, 62
3, 63360, Note_on_c, 0, 66, 0
3, 63360, Note_on_c, 0, 66, 62
3, 64080, Note_on_c, 0, 66, 0
3, 64080, Note_on_c, 0, 70, 75
3, 64560, Note_on_c, 0, 70, 0
3, 67680, Note_on_c, 0, 68, 62
3, 67920, Note_on_c, 0, 68, 0
3, 67920, Note_on_c, 0, 68, 62
3, 68160, Note_on_c, 0, 68, 0
3, 68160, Note_on_c, 0, 68, 62
3, 68400, Note_on_c, 0, 68, 0
3, 68400, Note_on_c, 0, 68, 62
3, 68480, Note_on_c, 0, 68, 0
3, 68480, Note_on_c, 0, 70, 62
3, 68559, Note_on_c, 0, 70, 0
3, 68559, Note_on_c, 0, 68, 62
3, 68640, Note_on_c, 0, 68, 0
3, 68640, Note_on_c, 0, 67, 62
3, 68880, Note_on_c, 0, 67, 0
3, 68880, Note_on_c, 0, 68, 62
3, 69120, Note_on_c, 0, 68, 0
3, 69120, Note_on_c, 0, 71, 62
3, 69840, Note_on_c, 0, 71, 0
3, 69840, Note_on_c, 0, 70, 62
3, 70320, Note_on_c, 0, 70, 0
3, 70560, Note_on_c, 0, 77, 75
3, 71280, Note_on_c, 0, 77, 0
3, 71280, Note_on_c, 0, 70, 75
3, 71760, Note_on_c, 0, 70, 0
3, 72000, Note_on_c, 0, 65, 75
3, 72720, Note_on_c, 0, 65, 0
3, 72720, Note_on_c, 0, 70, 75
3, 73680, Note_on_c, 0, 70, 0
3, 73680, Note_on_c, 0, 69, 75
3, 73920, Note_on_c, 0, 69, 0
3, 73920, Note_on_c, 0, 70, 75
3, 74160, Note_on_c, 0, 70, 0
3, 74160, Note_on_c, 0, 72, 75
3, 74400, Note_on_c, 0, 72, 0
3, 74400, Note_on_c, 0, 69, 75
3, 74640, Note_on_c, 0, 69, 0
3, 74640, Note_on_c, 0, 66, 75
3, 74880, Note_on_c, 0, 66, 0
3, 74880, Note_on_c, 0, 65, 75
3, 75600, Note_on_c, 0, 65, 0
3, 75600, Note_on_c, 0, 72, 75
3, 76560, Note_on_c, 0, 72, 0
3, 76560, Note_on_c, 0, 71, 75
3, 76800, Note_on_c, 0, 71, 0
3, 76800, Note_on_c, 0, 72, 75
3, 77040, Note_on_c, 0, 72, 0
3, 77040, Note_on_c, 0, 74, 75
3, 77280, Note_on_c, 0, 74, 0
3, 77280, Note_on_c, 0, 71, 75
3, 77520, Note_on_c, 0, 71, 0
3, 77520, Note_on_c, 0, 68, 75
3, 77760, Note_on_c, 0, 68, 0
3, 77760, Note_on_c, 0, 67, 75
3, 78480, Note_on_c, 0, 67, 0
3, 78480, Note_on_c, 0, 68, 75
3, 78960, Note_on_c, 0, 68, 0
3, 79200, Note_on_c, 0, 70, 75
3, 79920, Note_on_c, 0, 70, 0
3, 79920, Note_on_c, 0, 68, 75
3, 80640, Note_on_c, 0, 68, 0
3, 80640, Note_on_c, 0, 70, 75
3, 81360, Note_on_c, 0, 70, 0
3, 81360, Note_on_c, 0, 72, 75
3, 82080, Note_on_c, 0, 72, 0
3, 82080, Note_on_c, 0, 75, 75
3, 82800, Note_on_c, 0, 75, 0
3, 82800, Note_on_c, 0, 73, 75
3, 83280, Note_on_c, 0, 73, 0
3, 84960, Note_on_c, 0, 68, 75
3, 85200, Note_on_c, 0, 68, 0
3, 85200, Note_on_c, 0, 68, 75
3, 85440, Note_on_c, 0, 68, 0
3, 85440, Note_on_c, 0, 68, 75
3, 85680, Note_on_c, 0, 68, 0
3, 85680, Note_on_c, 0, 68, 75
3, 85760, Note_on_c, 0, 68, 0
3, 85760, Note_on_c, 0, 70, 75
3, 85839, Note_on_c, 0, 70, 0
3, 85839, Note_on_c, 0, 68, 75
3, 85920, Note_on_c, 0, 68, 0
3, 85920, Note_on_c, 0, 67, 75
3, 86160, Note_on_c, 0, 67, 0
3, 86160, Note_on_c, 0, 68, 75
3, 86400, Note_on_c, 0, 68, 0
3, 86400, Note_on_c, 0, 68, 101
3, 87120, Note_on_c, 0, 68, 0
3, 87120, Note_on_c, 0, 68, 101
3, 87840, Note_on_c, 0, 68, 0
3, 87840, Note_on_c, 0, 68, 101
3, 88560, Note_on_c, 0, 68, 0
3, 88560, Note_on_c, 0, 68, 114
3, 89280, Note_on_c, 0, 68, 0
3, 95040, Note_on_c, 0, 63, 49
3, 95520, Note_on_c, 0, 63, 0
3, 95520, Note_on_c, 0, 65, 49
3, 95760, Note_on_c, 0, 65, 0
3, 95760, Note_on_c, 0, 66, 49
3, 95840, Note_on_c, 0, 66, 0
3, 95840, Note_on_c, 0, 68, 49
3, 95919, Note_on_c, 0, 68, 0
3, 95919, Note_on_c, 0, 66, 49
3, 96000, Note_on_c, 0, 66, 0
3, 96000, Note_on_c, 0, 68, 49
3, 96080, Note_on_c, 0, 68, 0
3, 96080, Note_on_c, 0, 66, 49
3, 96159, Note_on_c, 0, 66, 0
3, 96159, Note_on_c, 0, 68, 49
3, 96240, Note_on_c, 0, 68, 0
3, 96240, Note_on_c, 0, 66, 49
3, 96320, Note_on_c, 0, 66, 0
3, 96320, Note_on_c, 0, 65, 49
3, 96399, Note_on_c, 0, 65, 0
3, 96399, Note_on_c, 0, 66, 49
3, 96480, Note_on_c, 0, 66, 0
3, 96480, Note_on_c, 0, 65, 49
3, 97200, Note_on_c, 0, 65, 0
3, 97200, Note_on_c, 0, 68, 49
3, 98160, Note_on_c, 0, 68, 0
3, 98160, Note_on_c, 0, 67, 49
3, 98400, Note_on_c, 0, 67, 0
3, 98400, Note_on_c, 0, 68, 49
3, 98640, Note_on_c, 0, 68, 0
3, 98640, Note_on_c, 0, 67, 49
3, 99600, Note_on_c, 0, 67, 0
3, 99600, Note_on_c, 0, 68, 49
3, 99840, Note_on_c, 0, 68, 0
3, 99840, Note_on_c, 0, 70, 49
3, 100080, Note_on_c, 0, 70, 0
3, 100080, Note_on_c, 0, 68, 49
3, 100320, Note_on_c, 0, 68, 0
3, 100320, Note_on_c, 0, 67, 49
3, 100560, Note_on_c, 0, 67, 0
3, 100560, Note_on_c, 0, 68, 62
3, 100800, Note_on_c, 0, 68, 0
3, 100800, Note_on_c, 0, 72, 62
3, 101040, Note_on_c, 0, 72, 0
3, 101040, Note_on_c, 0, 70, 49
3, 101280, Note_on_c, 0, 70, 0
3, 101280, Note_on_c, 0, 68, 49
3, 101520, Note_on_c, 0, 68, 0
3, 101520, Note_on_c, 0, 67, 49
3, 102240, Note_on_c, 0, 67, 0
3, 102240, Note_on_c, 0, 68, 49
3, 102720, Note_on_c, 0, 68, 0
3, 103200, Control_c, 0, 64, 127
3, 103200, Note_on_c, 0, 73, 49
3, 103440, Note_on_c, 0, 73, 0
3, 103440, Note_on_c, 0, 72, 49
3, 103680, Note_on_c, 0, 72, 0
3, 103680, Note_on_c, 0, 70, 49
3, 103920, Note_on_c, 0, 70, 0
3, 103920, Note_on_c, 0, 72, 49
3, 104160, Note_on_c, 0, 72, 0
3, 104160, Control_c, 0, 64, 0
3, 104160, Note_on_c, 0, 73, 49
3, 104400, Note_on_c, 0, 73, 0
3, 104640, Control_c, 0, 64, 127
3, 104640, Note_on_c, 0, 72, 49
3, 104880, Note_on_c, 0, 72, 0
3, 104880, Note_on_c, 0, 70, 49
3, 105120, Note_on_c, 0, 70, 0
3, 105120, Note_on_c, 0, 68, 49
3, 105360, Note_on_c, 0, 68, 0
3, 105360, Note_on_c, 0, 70, 49
3, 105600, Note_on_c, 0, 70, 0
3, 105600, Control_c, 0, 64, 0
3, 105600, Note_on_c, 0, 71, 49
3, 106080, Note_on_c, 0, 71, 0
3, 106080, Note_on_c, 0, 70, 49
3, 106320, Note_on_c, 0, 70, 0
3, 106320, Note_on_c, 0, 68, 49
3, 106560, Note_on_c, 0, 68, 0
3, 106560, Note_on_c, 0, 67, 49
3, 107040, Note_on_c, 0, 67, 0
3, 107040, Note_on_c, 0, 68, 49
3, 107280, Note_on_c, 0, 68, 0
3, 109440, Note_on_c, 0, 68, 75
3, 109680, Note_on_c, 0, 68, 0
3, 109680, Note_on_c, 0, 68, 75
3, 109920, Note_on_c, 0, 68, 0
3, 109920, Note_on_c, 0, 68, 75
3, 110160, Note_on_c, 0, 68, 0
3, 110160, Note_on_c, 0, 68, 75
3, 110240, Note_on_c, 0, 68, 0
3, 110240, Note_on_c, 0, 70, 75
3, 110319, Note_on_c, 0, 70, 0
3, 110319, Note_on_c, 0, 68, 75
3, 110400, Note_on_c, 0, 68, 0
3, 110400, Note_on_c, 0, 67, 75
3, 110640, Note_on_c, 0, 67, 0
3, 110640, Note_on_c, 0, 68, 75
3, 110880, Note_on_c, 0, 68, 0
3, 110880, Note_on_c, 0, 62, 101
3, 111600, Note_on_c, 0, 62, 0
3, 111600, Note_on_c, 0, 63, 75
3, 112080, Note_on_c, 0, 63, 0
3, 113760, Note_on_c, 0, 75, 49
3, 114240, Note_on_c, 0, 75, 0
3, 114240, Note_on_c, 0, 73, 49
3, 114480, Note_on_c, 0, 73, 0
3, 114480, Note_on_c, 0, 72, 49
3, 114960, Note_on_c, 0, 72, 0
3, 114960, Note_on_c, 0, 70, 49
3, 115200, Note_on_c, 0, 70, 0
3, 115200, Note_on_c, 0, 68, 49
3, 115680, Note_on_c, 0, 68, 0
3, 115680, Note_on_c, 0, 67, 49
3, 115920, Note_on_c, 0, 67, 0
3, 115920, Note_on_c, 0, 65, 49
3, 116400, Note_on_c, 0, 65, 0
3, 116400, Note_on_c, 0, 64, 49
3, 116640, Note_on_c, 0, 64, 0
3, 116640, Note_on_c, 0, 63, 49
3, 116880, Note_on_c, 0, 63, 0
3, 119520, Note_on_c, 0, 56, 62
3, 120240, Note_on_c, 0, 56, 0
3, 120240, Note_on_c, 0, 63, 62
3, 121200, Note_on_c, 0, 63, 0
3, 121200, Note_on_c, 0, 61, 62
3, 121440, Note_on_c, 0, 61, 0
3, 121440, Note_on_c, 0, 63, 62
3, 121680, Note_on_c, 0, 63, 0
3, 121680, Note_on_c, 0, 64, 62
3, 121920, Note_on_c, 0, 64, 0
3, 121920, Note_on_c, 0, 61, 62
3, 122160, Note_on_c, 0, 61, 0
3, 122160, Note_on_c, 0, 59, 62
3, 122400, Note_on_c, 0, 59, 0
3, 122400, Note_on_c, 0, 58, 62
3, 122880, Note_on_c, 0, 58, 0
3, 122880, End_track
4, 0, Start_track
4, 0, Title_t, "Grand Piano"
4, 0, Program_c, 0, 0
4, 0, Control_c, 0, 7, 115
4, 0, Control_c, 0, 10, 41
4, 0, Control_c, 0, 64, 127
4, 0, Note_on_c, 0, 44, 49
4, 120, Note_on_c, 0, 44, 0
4, 120, Note_on_c, 0, 48, 49
4, 240, Note_on_c, 0, 48, 0
4, 240, Note_on_c, 0, 51, 49
4, 360, Note_on_c, 0, 51, 0
4, 360, Note_on_c, 0, 53, 49
4, 480, Note_on_c, 0, 53, 0
4, 480, Note_on_c, 0, 51, 49
4, 600, Note_on_c, 0, 51, 0
4, 600, Note_on_c, 0, 48, 49
4, 720, Note_on_c, 0, 48, 0
4, 720, Note_on_c, 0, 44, 49
4, 840, Note_on_c, 0, 44, 0
4, 840, Note_on_c, 0, 48, 49
4, 960, Note_on_c, 0, 48, 0
4, 960, Note_on_c, 0, 51, 49
4, 1080, Note_on_c, 0, 51, 0
4, 1080, Note_on_c, 0, 53, 49
4, 1200, Note_on_c, 0, 53, 0
4, 1200, Note_on_c, 0, 51, 49
4, 1320, Note_on_c, 0, 51, 0
4, 1320, Control_c, 0, 64, 0
4, 1320, Note_on_c, 0, 48, 49
4, 1440, Note_on_c, 0, 48, 0
4, 1440, Control_c, 0, 64, 127
4, 1440, Note_on_c, 0, 46, 49
4, 1560, Note_on_c, 0, 46, 0
4, 1560, Note_on_c, 0, 49, 49
4, 1680, Note_on_c, 0, 49, 0
4, 1680, Note_on_c, 0, 51, 49
4, 1800, Note_on_c, 0, 51, 0
4, 1800, Note_on_c, 0, 53, 49
4, 1920, Note_on_c, 0, 53, 0
4, 1920, Note_on_c, 0, 51, 49
4, 2040, Note_on_c, 0, 51, 0
4, 2040, Note_on_c, 0, 49, 49
4, 2160, Note_on_c, 0, 49, 0
4, 2160, Note_on_c, 0, 46, 49
4, 2280, Note_on_c, 0, 46, 0
4, 2280, Note_on_c, 0, 49, 49
4, 2400, Note_on_c, 0, 49, 0
4, 2400, Note_on_c, 0, 51, 49
4, 2520, Note_on_c, 0, 51, 0
4, 2520, Note_on_c, 0, 53, 49
4, 2640, Note_on_c, 0, 53, 0
4, 2640, Note_on_c, 0, 51, 49
4, 2760, Note_on_c, 0, 51, 0
4, 2760, Control_c, 0, 64, 0
4, 2760, Note_on_c, 0, 49, 49
4, 2880, Note_on_c, 0, 49, 0
4, 2880, Control_c, 0, 64, 127
4, 2880, Note_on_c, 0, 48, 49
4, 3000, Note_on_c, 0, 48, 0
4, 3000, Note_on_c, 0, 51, 49
4, 3120, Note_on_c, 0, 51, 0
4, 3120, Note_on_c, 0, 56, 49
4, 3240, Note_on_c, 0, 56, 0
4, 3240, Note_on_c, 0, 58, 49
4, 3360, Note_on_c, 0, 58, 0
4, 3360, Note_on_c, 0, 56, 49
4, 3480, Note_on_c, 0, 56, 0
4, 3480, Note_on_c, 0, 51, 49
4, 3600, Note_on_c, 0, 51, 0
4, 3600, Note_on_c, 0, 48, 49
4, 3720, Note_on_c, 0, 48, 0
4, 3720, Note_on_c, 0, 51, 49
4, 3840, Note_on_c, 0, 51, 0
4, 3840, Note_on_c, 0, 56, 49
4, 3960, Note_on_c, 0, 56, 0
4, 3960, Note_on_c, 0, 58, 49
4, 4080, Note_on_c, 0, 58, 0
4, 4080, Note_on_c, 0, 56, 49
4, 4200, Note_on_c, 0, 56, 0
4, 4200, Control_c, 0, 64, 0
4, 4200, Note_on_c, 0, 51, 49
4, 4320, Note_on_c, 0, 51, 0
4, 4320, Control_c, 0, 64, 127
4, 4320, Note_on_c, 0, 49, 49
4, 4440, Note_on_c, 0, 49, 0
4, 4440, Note_on_c, 0, 53, 49
4, 4560, Note_on_c, 0, 53, 0
4, 4560, Note_on_c, 0, 56, 49
4, 4680, Note_on_c, 0, 56, 0
4, 4680, Note_on_c, 0, 58, 49
4, 4800, Note_on_c, 0, 58, 0
4, 4800, Note_on_c, 0, 56, 49
4, 4920, Note_on_c, 0, 56, 0
4, 4920, Note_on_c, 0, 53, 49
4, 5040, Note_on_c, 0, 53, 0
4, 5040, Note_on_c, 0, 49, 49
4, 5160, Note_on_c, 0, 49, 0
4, 5160, Note_on_c, 0, 53, 49
4, 5280, Note_on_c, 0, 53, 0
4, 5280, Note_on_c, 0, 56, 49
4, 5400, Note_on_c, 0, 56, 0
4, 5400, Note_on_c, 0, 58, 49
4, 5520, Note_on_c, 0, 58, 0
4, 5520, Note_on_c, 0, 56, 49
4, 5640, Note_on_c, 0, 56, 0
4, 5640, Control_c, 0, 64, 0
4, 5640, Note_on_c, 0, 53, 49
4, 5760, Note_on_c, 0, 53, 0
4, 5760, Control_c, 0, 64, 127
4, 5760, Note_on_c, 0, 50, 49
4, 5880, Note_on_c, 0, 50, 0
4, 5880, Note_on_c, 0, 53, 49
4, 6000, Note_on_c, 0, 53, 0
4, 6000, Note_on_c, 0, 58, 49
4, 6120, Note_on_c, 0, 58, 0
4, 6120, Note_on_c, 0, 60, 49
4, 6240, Note_on_c, 0, 60, 0
4, 6240, Note_on_c, 0, 58, 49
4, 6360, Note_on_c, 0, 58, 0
4, 6360, Control_c, 0, 64, 0
4, 6360, Note_on_c, 0, 53, 49
4, 6480, Note_on_c, 0, 53, 0
4, 6480, Control_c, 0, 64, 127
4, 6480, Note_on_c, 0, 51, 49
4, 6600, Note_on_c, 0, 51, 0
4, 6600, Note_on_c, 0, 55, 49
4, 6720, Note_on_c, 0, 55, 0
4, 6720, Note_on_c, 0, 58, 49
4, 6840, Note_on_c, 0, 58, 0
4, 6840, Note_on_c, 0, 60, 49
4, 6960, Note_on_c, 0, 60, 0
4, 6960, Note_on_c, 0, 58, 49
4, 7080, Note_on_c, 0, 58, 0
4, 7080, Control_c, 0, 64, 0
4, 7080, Note_on_c, 0, 55, 49
4, 7200, Note_on_c, 0, 55, 0
4, 7200, Control_c, 0, 64, 127
4, 7200, Note_on_c, 0, 52, 49
4, 7320, Note_on_c, 0, 52, 0
4, 7320, Note_on_c, 0, 55, 49
4, 7440, Note_on_c, 0, 55, 0
4, 7440, Note_on_c, 0, 60, 49
4, 7560, Note_on_c, 0, 60, 0
4, 7560, Note_on_c, 0, 61, 49
4, 7680, Note_on_c, 0, 61, 0
4, 7680, Note_on_c, 0, 60, 49
4, 7800, Note_on_c, 0, 60, 0
4, 7800, Control_c, 0, 64, 0
4, 7800, Note_on_c, 0, 55, 49
4, 7920, Note_on_c, 0, 55, 0
4, 7920, Control_c, 0, 64, 127
4, 7920, Note_on_c, 0, 53, 49
4, 8040, Note_on_c, 0, 53, 0
4, 8040, Note_on_c, 0, 56, 49
4, 8160, Note_on_c, 0, 56, 0
4, 8160, Note_on_c, 0, 60, 49
4, 8280, Note_on_c, 0, 60, 0
4, 8280, Note_on_c, 0, 61, 49
4, 8400, Note_on_c, 0, 61, 0
4, 8400, Note_on_c, 0, 60, 49
4, 8520, Note_on_c, 0, 60, 0
4, 8520, Control_c, 0, 64, 0
4, 8520, Note_on_c, 0, 56, 49
4, 8640, Note_on_c, 0, 56, 0
4, 8640, Control_c, 0, 64, 127
4, 8640, Note_on_c, 0, 53, 49
4, 8760, Note_on_c, 0, 53, 0
4, 8760, Note_on_c, 0, 56, 49
4, 8880, Note_on_c, 0, 56, 0
4, 8880, Note_on_c, 0, 61, 49
4, 9000, Note_on_c, 0, 61, 0
4, 9000, Note_on_c, 0, 63, 49
4, 9120, Note_on_c, 0, 63, 0
4, 9120, Note_on_c, 0, 61, 49
4, 9240, Note_on_c, 0, 61, 0
4, 9240, Note_on_c, 0, 56, 49
4, 9360, Note_on_c, 0, 56, 0
4, 9360, Note_on_c, 0, 49, 49
4, 9480, Note_on_c, 0, 49, 0
4, 9480, Note_on_c, 0, 53, 49
4, 9600, Note_on_c, 0, 53, 0
4, 9600, Note_on_c, 0, 58, 49
4, 9720, Note_on_c, 0, 58, 0
4, 9720, Note_on_c, 0, 60, 49
4, 9840, Note_on_c, 0, 60, 0
4, 9840, Note_on_c, 0, 58, 49
4, 9960, Note_on_c, 0, 58, 0
4, 9960, Control_c, 0, 64, 0
4, 9960, Note_on_c, 0, 53, 49
4, 10080, Note_on_c, 0, 53, 0
4, 10080, Control_c, 0, 64, 127
4, 10080, Note_on_c, 0, 51, 49
4, 10200, Note_on_c, 0, 51, 0
4, 10200, Note_on_c, 0, 56, 49
4, 10320, Note_on_c, 0, 56, 0
4, 10320, Note_on_c, 0, 60, 49
4, 10440, Note_on_c, 0, 60, 0
4, 10440, Note_on_c, 0, 61, 49
4, 10560, Note_on_c, 0, 61, 0
4, 10560, Note_on_c, 0, 60, 49
4, 10680, Note_on_c, 0, 60, 0
4, 10680, Control_c, 0, 64, 0
4, 10680, Note_on_c, 0, 56, 49
4, 10800, Note_on_c, 0, 56, 0
4, 10800, Note_on_c, 0, 51, 49
4, 10920, Note_on_c, 0, 51, 0
4, 10920, Note_on_c, 0, 55, 49
4, 11040, Note_on_c, 0, 55, 0
4, 11040, Note_on_c, 0, 51, 49
4, 11160, Note_on_c, 0, 51, 0
4, 11160, Note_on_c, 0, 48, 49
4, 11280, Note_on_c, 0, 48, 0
4, 11280, Note_on_c, 0, 46, 49
4, 11400, Note_on_c, 0, 46, 0
4, 11400, Note_on_c, 0, 44, 49
4, 11520, Note_on_c, 0, 44, 0
4, 11520, Control_c, 0, 64, 127
4, 11520, Note_on_c, 0, 43, 62
4, 11640, Note_on_c, 0, 43, 0
4, 11640, Note_on_c, 0, 46, 62
4, 11760, Note_on_c, 0, 46, 0
4, 11760, Note_on_c, 0, 51, 62
4, 11880, Note_on_c, 0, 51, 0
4, 11880, Note_on_c, 0, 53, 62
4, 12000, Note_on_c, 0, 53, 0
4, 12000, Note_on_c, 0, 51, 62
4, 12120, Note_on_c, 0, 51, 0
4, 12120, Note_on_c, 0, 46, 62
4, 12240, Note_on_c, 0, 46, 0
4, 12240, Note_on_c, 0, 43, 62
4, 12360, Note_on_c, 0, 43, 0
4, 12360, Note_on_c, 0, 46, 62
4, 12480, Note_on_c, 0, 46, 0
4, 12480, Note_on_c, 0, 51, 62
4, 12600, Note_on_c, 0, 51, 0
4, 12600, Note_on_c, 0, 53, 62
4, 12720, Note_on_c, 0, 53, 0
4, 12720, Note_on_c, 0, 51, 62
4, 12840, Note_on_c, 0, 51, 0
4, 12840, Control_c, 0, 64, 0
4, 12840, Note_on_c, 0, 46, 62
4, 12960, Note_on_c, 0, 46, 0
4, 12960, Control_c, 0, 64, 127
4, 12960, Note_on_c, 0, 44, 62
4, 13080, Note_on_c, 0, 44, 0
4, 13080, Note_on_c, 0, 47, 62
4, 13200, Note_on_c, 0, 47, 0
4, 13200, Note_on_c, 0, 51, 62
4, 13320, Note_on_c, 0, 51, 0
4, 13320, Note_on_c, 0, 53, 62
4, 13440, Note_on_c, 0, 53, 0
4, 13440, Note_on_c, 0, 51, 62
4, 13560, Note_on_c, 0, 51, 0
4, 13560, Control_c, 0, 64, 0
4, 13560, Note_on_c, 0, 47, 62
4, 13680, Note_on_c, 0, 47, 0
4, 13680, Control_c, 0, 64, 127
4, 13680, Note_on_c, 0, 45, 62
4, 13800, Note_on_c, 0, 45, 0
4, 13800, Note_on_c, 0, 48, 62
4, 13920, Note_on_c, 0, 48, 0
4, 13920, Note_on_c, 0, 51, 62
4, 14040, Note_on_c, 0, 51, 0
4, 14040, Note_on_c, 0, 53, 62
4, 14160, Note_on_c, 0, 53, 0
4, 14160, Note_on_c, 0, 51, 62
4, 14280, Note_on_c, 0, 51, 0
4, 14280, Control_c, 0, 64, 0
4, 14280, Note_on_c, 0, 48, 62
4, 14400, Note_on_c, 0, 48, 0
4, 14400, Control_c, 0, 64, 127
4, 14400, Note_on_c, 0, 46, 62
4, 14520, Note_on_c, 0, 46, 0
4, 14520, Note_on_c, 0, 51, 62
4, 14640, Note_on_c, 0, 51, 0
4, 14640, Note_on_c, 0, 54, 62
4, 14760, Note_on_c, 0, 54, 0
4, 14760, Note_on_c, 0, 56, 62
4, 14880, Note_on_c, 0, 56, 0
4, 14880, Note_on_c, 0, 54, 62
4, 15000, Note_on_c, 0, 54, 0
4, 15000, Note_on_c, 0, 51, 62
4, 15120, Note_on_c, 0, 51, 0
4, 15120, Note_on_c, 0, 46, 62
4, 15240, Note_on_c, 0, 46, 0
4, 15240, Note_on_c, 0, 51, 62
4, 15360, Note_on_c, 0, 51, 0
4, 15360, Note_on_c, 0, 54, 62
4, 15480, Note_on_c, 0, 54, 0
4, 15480, Note_on_c, 0, 56, 62
4, 15600, Note_on_c, 0, 56, 0
4, 15600, Note_on_c, 0, 54, 62
4, 15720, Note_on_c, 0, 54, 0
4, 15720, Control_c, 0, 64, 0
4, 15720, Note_on_c, 0, 51, 62
4, 15840, Note_on_c, 0, 51, 0
4, 15840, Control_c, 0, 64, 127
4, 15840, Note_on_c, 0, 47, 62
4, 15960, Note_on_c, 0, 47, 0
4, 15960, Note_on_c, 0, 51, 62
4, 16080, Note_on_c, 0, 51, 0
4, 16080, Note_on_c, 0, 56, 62
4, 16200, Note_on_c, 0, 56, 0
4, 16200, Note_on_c, 0, 58, 62
4, 16320, Note_on_c, 0, 58, 0
4, 16320, Note_on_c, 0, 56, 62
4, 16440, Note_on_c, 0, 56, 0
4, 16440, Note_on_c, 0, 51, 62
4, 16560, Note_on_c, 0, 51, 0
4, 16560, Note_on_c, 0, 47, 62
4, 16680, Note_on_c, 0, 47, 0
4, 16680, Note_on_c, 0, 51, 62
4, 16800, Note_on_c, 0, 51, 0
4, 16800, Note_on_c, 0, 56, 62
4, 16920, Note_on_c, 0, 56, 0
4, 16920, Note_on_c, 0, 58, 62
4, 17040, Note_on_c, 0, 58, 0
4, 17040, Note_on_c, 0, 56, 62
4, 17160, Note_on_c, 0, 56, 0
4, 17160, Control_c, 0, 64, 0
4, 17160, Note_on_c, 0, 51, 62
4, 17280, Note_on_c, 0, 51, 0
4, 17280, Control_c, 0, 64, 127
4, 17280, Note_on_c, 0, 48, 75
4, 17400, Note_on_c, 0, 48, 0
4, 17400, Note_on_c, 0, 51, 75
4, 17520, Note_on_c, 0, 51, 0
4, 17520, Note_on_c, 0, 54, 75
4, 17640, Note_on_c, 0, 54, 0
4, 17640, Note_on_c, 0, 60, 75
4, 17760, Note_on_c, 0, 60, 0
4, 17760, Note_on_c, 0, 54, 75
4, 17880, Note_on_c, 0, 54, 0
4, 17880, Note_on_c, 0, 51, 75
4, 18000, Note_on_c, 0, 51, 0
4, 18000, Note_on_c, 0, 48, 75
4, 18120, Note_on_c, 0, 48, 0
4, 18120, Note_on_c, 0, 51, 75
4, 18240, Note_on_c, 0, 51, 0
4, 18240, Note_on_c, 0, 54, 75
4, 18360, Note_on_c, 0, 54, 0
4, 18360, Note_on_c, 0, 60, 75
4, 18480, Note_on_c, 0, 60, 0
4, 18480, Note_on_c, 0, 54, 75
4, 18600, Note_on_c, 0, 54, 0
4, 18600, Control_c, 0, 64, 0
4, 18600, Note_on_c, 0, 51, 75
4, 18720, Note_on_c, 0, 51, 0
4, 18720, Control_c, 0, 64, 127
4, 18720, Note_on_c, 0, 50, 62
4, 18840, Note_on_c, 0, 50, 0
4, 18840, Note_on_c, 0, 53, 62
4, 18960, Note_on_c, 0, 53, 0
4, 18960, Note_on_c, 0, 58, 62
4, 19080, Note_on_c, 0, 58, 0
4, 19080, Note_on_c, 0, 60, 62
4, 19200, Note_on_c, 0, 60, 0
4, 19200, Note_on_c, 0, 58, 62
4, 19320, Note_on_c, 0, 58, 0
4, 19320, Control_c, 0, 64, 0
4, 19320, Note_on_c, 0, 53, 62
4, 19440, Note_on_c, 0, 53, 0
4, 19440, Control_c, 0, 64, 127
4, 19440, Note_on_c, 0, 51, 62
4, 19560, Note_on_c, 0, 51, 0
4, 19560, Note_on_c, 0, 55, 62
4, 19680, Note_on_c, 0, 55, 0
4, 19680, Note_on_c, 0, 58, 62
4, 19800, Note_on_c, 0, 58, 0
4, 19800, Note_on_c, 0, 60, 62
4, 19920, Note_on_c, 0, 60, 0
4, 19920, Note_on_c, 0, 58, 62
4, 20040, Note_on_c, 0, 58, 0
4, 20040, Control_c, 0, 64, 0
4, 20040, Note_on_c, 0, 55, 62
4, 20160, Note_on_c, 0, 55, 0
4, 20160, Control_c, 0, 64, 127
4, 20160, Note_on_c, 0, 44, 49
4, 20280, Note_on_c, 0, 44, 0
4, 20280, Note_on_c, 0, 48, 49
4, 20400, Note_on_c, 0, 48, 0
4, 20400, Note_on_c, 0, 53, 49
4, 20520, Note_on_c, 0, 53, 0
4, 20520, Note_on_c, 0, 56, 49
4, 20640, Note_on_c, 0, 56, 0
4, 20640, Note_on_c, 0, 53, 49
4, 20760, Note_on_c, 0, 53, 0
4, 20760, Control_c, 0, 64, 0
4, 20760, Note_on_c, 0, 48, 49
4, 20880, Note_on_c, 0, 48, 0
4, 20880, Control_c, 0, 64, 127
4, 20880, Note_on_c, 0, 46, 49
4, 21000, Note_on_c, 0, 46, 0
4, 21000, Note_on_c, 0, 53, 49
4, 21120, Note_on_c, 0, 53, 0
4, 21120, Note_on_c, 0, 56, 49
4, 21240, Note_on_c, 0, 56, 0
4, 21240, Note_on_c, 0, 58, 49
4, 21360, Note_on_c, 0, 58, 0
4, 21360, Note_on_c, 0, 56, 49
4, 21480, Note_on_c, 0, 56, 0
4, 21480, Control_c, 0, 64, 0
4, 21480, Note_on_c, 0, 53, 49
4, 21600, Note_on_c, 0, 53, 0
4, 21600, Control_c, 0, 64, 127
4, 21600, Note_on_c, 0, 48, 49
4, 21720, Note_on_c, 0, 48, 0
4, 21720, Note_on_c, 0, 51, 49
4, 21840, Note_on_c, 0, 51, 0
4, 21840, Note_on_c, 0, 55, 49
4, 21960, Note_on_c, 0, 55, 0
4, 21960, Note_on_c, 0, 60, 49
4, 22080, Note_on_c, 0, 60, 0
4, 22080, Note_on_c, 0, 63, 49
4, 22200, Note_on_c, 0, 63, 0
4, 22200, Control_c, 0, 64, 0
4, 22200, Note_on_c, 0, 67, 49
4, 22320, Note_on_c, 0, 67, 0
4, 22320, Control_c, 0, 64, 127
4, 22320, Note_on_c, 0, 56, 49
4, 22440, Note_on_c, 0, 56, 0
4, 22440, Note_on_c, 0, 60, 49
4, 22560, Note_on_c, 0, 60, 0
4, 22560, Note_on_c, 0, 65, 49
4, 22680, Note_on_c, 0, 65, 0
4, 22680, Note_on_c, 0, 67, 49
4, 22800, Note_on_c, 0, 67, 0
4, 22800, Note_on_c, 0, 65, 49
4, 22920, Note_on_c, 0, 65, 0
4, 22920, Control_c, 0, 64, 0
4, 22920, Note_on_c, 0, 56, 49
4, 23040, Note_on_c, 0, 56, 0
4, 23040, Control_c, 0, 64, 127
4, 23040, Note_on_c, 0, 58, 49
4, 23160, Note_on_c, 0, 58, 0
4, 23160, Note_on_c, 0, 62, 49
4, 23280, Note_on_c, 0, 62, 0
4, 23280, Note_on_c, 0, 65, 49
4, 23400, Note_on_c, 0, 65, 0
4, 23400, Note_on_c, 0, 62, 49
4, 23520, Note_on_c, 0, 62, 0
4, 23520, Note_on_c, 0, 58, 49
4, 23640, Note_on_c, 0, 58, 0
4, 23640, Control_c, 0, 64, 0
4, 23640, Note_on_c, 0, 53, 49
4, 23760, Note_on_c, 0, 53, 0
4, 23760, Control_c, 0, 64, 127
4, 23760, Note_on_c, 0, 55, 49
4, 23880, Note_on_c, 0, 55, 0
4, 23880, Note_on_c, 0, 58, 49
4, 24000, Note_on_c, 0, 58, 0
4, 24000, Note_on_c, 0, 63, 49
4, 24120, Note_on_c, 0, 63, 0
4, 24120, Note_on_c, 0, 65, 49
4, 24240, Note_on_c, 0, 65, 0
4, 24240, Note_on_c, 0, 63, 49
4, 24360, Note_on_c, 0, 63, 0
4, 24360, Control_c, 0, 64, 0
4, 24360, Note_on_c, 0, 55, 49
4, 24480, Note_on_c, 0, 55, 0
4, 24480, Control_c, 0, 64, 127
4, 24480, Note_on_c, 0, 56, 49
4, 24600, Note_on_c, 0, 56, 0
4, 24600, Note_on_c, 0, 60, 49
4, 24720, Note_on_c, 0, 60, 0
4, 24720, Note_on_c, 0, 63, 49
4, 24840, Note_on_c, 0, 63, 0
4, 24840, Note_on_c, 0, 60, 49
4, 24960, Note_on_c, 0, 60, 0
4, 24960, Note_on_c, 0, 56, 49
4, 25080, Note_on_c, 0, 56, 0
4, 25080, Control_c, 0, 64, 0
4, 25080, Note_on_c, 0, 51, 49
4, 25200, Note_on_c, 0, 51, 0
4, 25200, Control_c, 0, 64, 127
4, 25200, Note_on_c, 0, 53, 49
4, 25320, Note_on_c, 0, 53, 0
4, 25320, Note_on_c, 0, 60, 49
4, 25440, Note_on_c, 0, 60, 0
4, 25440, Note_on_c, 0, 63, 49
4, 25560, Note_on_c, 0, 63, 0
4, 25560, Note_on_c, 0, 65, 49
4, 25680, Note_on_c, 0, 65, 0
4, 25680, Note_on_c, 0, 69, 49
4, 25800, Note_on_c, 0, 69, 0
4, 25800, Control_c, 0, 64, 0
4, 25800, Note_on_c, 0, 65, 49
4, 25920, Note_on_c, 0, 65, 0
4, 25920, Control_c, 0, 64, 127
4, 25920, Note_on_c, 0, 58, 49
4, 26040, Note_on_c, 0, 58, 0
4, 26040, Note_on_c, 0, 62, 49
4, 26160, Note_on_c, 0, 62, 0
4, 26160, Note_on_c, 0, 65, 49
4, 26280, Note_on_c, 0, 65, 0
4, 26280, Note_on_c, 0, 68, 49
4, 26400, Note_on_c, 0, 68, 0
4, 26400, Note_on_c, 0, 67, 49
4, 26520, Note_on_c, 0, 67, 0
4, 26520, Note_on_c, 0, 63, 49
4, 26640, Note_on_c, 0, 63, 0
4, 26640, Note_on_c, 0, 58, 49
4, 26760, Note_on_c, 0, 58, 0
4, 26760, Note_on_c, 0, 62, 49
4, 26880, Note_on_c, 0, 62, 0
4, 26880, Note_on_c, 0, 65, 49
4, 27000, Note_on_c, 0, 65, 0
4, 27000, Note_on_c, 0, 68, 49
4, 27120, Note_on_c, 0, 68, 0
4, 27120, Note_on_c, 0, 65, 49
4, 27240, Note_on_c, 0, 65, 0
4, 27240, Control_c, 0, 64, 0
4, 27240, Note_on_c, 0, 62, 49
4, 27360, Note_on_c, 0, 62, 0
4, 27360, Control_c, 0, 64, 127
4, 27360, Note_on_c, 0, 51, 49
4, 27480, Note_on_c, 0, 51, 0
4, 27480, Note_on_c, 0, 53, 49
4, 27600, Note_on_c, 0, 53, 0
4, 27600, Note_on_c, 0, 58, 49
4, 27720, Note_on_c, 0, 58, 0
4, 27720, Note_on_c, 0, 62, 49
4, 27840, Note_on_c, 0, 62, 0
4, 27840, Note_on_c, 0, 58, 49
4, 27960, Note_on_c, 0, 58, 0
4, 27960, Control_c, 0, 64, 0
4, 27960, Note_on_c, 0, 53, 49
4, 28080, Note_on_c, 0, 53, 0
4, 28080, Control_c, 0, 64, 127
4, 28080, Note_on_c, 0, 51, 49
4, 28200, Note_on_c, 0, 51, 0
4, 28200, Note_on_c, 0, 55, 49
4, 28320, Note_on_c, 0, 55, 0
4, 28320, Note_on_c, 0, 58, 49
4, 28440, Note_on_c, 0, 58, 0
4, 28440, Note_on_c, 0, 63, 49
4, 28560, Note_on_c, 0, 63, 0
4, 28560, Note_on_c, 0, 58, 49
4, 28680, Note_on_c, 0, 58, 0
4, 28680, Control_c, 0, 64, 0
4, 28680, Note_on_c, 0, 55, 49
4, 28800, Note_on_c, 0, 55, 0
4, 28800, Control_c, 0, 64, 127
4, 28800, Note_on_c, 0, 51, 49
4, 28920, Note_on_c, 0, 51, 0
4, 28920, Note_on_c, 0, 55, 49
4, 29040, Note_on_c, 0, 55, 0
4, 29040, Note_on_c, 0, 58, 49
4, 29160, Note_on_c, 0, 58, 0
4, 29160, Note_on_c, 0, 61, 49
4, 29280, Note_on_c, 0, 61, 0
4, 29280, Note_on_c, 0, 60, 49
4, 29400, Note_on_c, 0, 60, 0
4, 29400, Note_on_c, 0, 58, 49
4, 29520, Note_on_c, 0, 58, 0
4, 29520, Note_on_c, 0, 56, 49
4, 29640, Note_on_c, 0, 56, 0
4, 29640, Note_on_c, 0, 55, 49
4, 29760, Note_on_c, 0, 55, 0
4, 29760, Note_on_c, 0, 53, 49
4, 29880, Note_on_c, 0, 53, 0
4, 29880, Note_on_c, 0, 51, 49
4, 30000, Note_on_c, 0, 51, 0
4, 30000, Note_on_c, 0, 49, 49
4, 30120, Note_on_c, 0, 49, 0
4, 30120, Control_c, 0, 64, 0
4, 30120, Note_on_c, 0, 46, 49
4, 30240, Note_on_c, 0, 46, 0
4, 30240, Control_c, 0, 64, 127
4, 30240, Note_on_c, 0, 44, 49
4, 30360, Note_on_c, 0, 44, 0
4, 30360, Note_on_c, 0, 48, 49
4, 30480, Note_on_c, 0, 48, 0
4, 30480, Note_on_c, 0, 51, 49
4, 30600, Note_on_c, 0, 51, 0
4, 30600, Note_on_c, 0, 53, 49
4, 30720, Note_on_c, 0, 53, 0
4, 30720, Note_on_c, 0, 51, 49
4, 30840, Note_on_c, 0, 51, 0
4, 30840, Note_on_c, 0, 48, 49
4, 30960, Note_on_c, 0, 48, 0
4, 30960, Note_on_c, 0, 44, 49
4, 31080, Note_on_c, 0, 44, 0
4, 31080, Note_on_c, 0, 48, 49
4, 31200, Note_on_c, 0, 48, 0
4, 31200, Note_on_c, 0, 51, 49
4, 31320, Note_on_c, 0, 51, 0
4, 31320, Note_on_c, 0, 53, 49
4, 31440, Note_on_c, 0, 53, 0
4, 31440, Note_on_c, 0, 51, 49
4, 31560, Note_on_c, 0, 51, 0
4, 31560, Control_c, 0, 64, 0
4, 31560, Note_on_c, 0, 48, 49
4, 31680, Note_on_c, 0, 48, 0
4, 31680, Control_c, 0, 64, 127
4, 31680, Note_on_c, 0, 46, 49
4, 31800, Note_on_c, 0, 46, 0
4, 31800, Note_on_c, 0, 49, 49
4, 31920, Note_on_c, 0, 49, 0
4, 31920, Note_on_c, 0, 51, 49
4, 32040, Note_on_c, 0, 51, 0
4, 32040, Note_on_c, 0, 53, 49
4, 32160, Note_on_c, 0, 53, 0
4, 32160, Note_on_c, 0, 51, 49
4, 32280, Note_on_c, 0, 51, 0
4, 32280, Note_on_c, 0, 49, 49
4, 32400, Note_on_c, 0, 49, 0
4, 32400, Note_on_c, 0, 46, 49
4, 32520, Note_on_c, 0, 46, 0
4, 32520, Note_on_c, 0, 49, 49
4, 32640, Note_on_c, 0, 49, 0
4, 32640, Note_on_c, 0, 51, 49
4, 32760, Note_on_c, 0, 51, 0
4, 32760, Note_on_c, 0, 53, 49
4, 32880, Note_on_c, 0, 53, 0
4, 32880, Note_on_c, 0, 51, 49
4, 33000, Note_on_c, 0, 51, 0
4, 33000, Control_c, 0, 64, 0
4, 33000, Note_on_c, 0, 49, 49
4, 33120, Note_on_c, 0, 49, 0
4, 33120, Control_c, 0, 64, 127
4, 33120, Note_on_c, 0, 48, 49
4, 33240, Note_on_c, 0, 48, 0
4, 33240, Note_on_c, 0, 51, 49
4, 33360, Note_on_c, 0, 51, 0
4, 33360, Note_on_c, 0, 56, 49
4, 33480, Note_on_c, 0, 56, 0
4, 33480, Note_on_c, 0, 58, 49
4, 33600, Note_on_c, 0, 58, 0
4, 33600, Note_on_c, 0, 56, 49
4, 33720, Note_on_c, 0, 56, 0
4, 33720, Note_on_c, 0, 51, 49
4, 33840, Note_on_c, 0, 51, 0
4, 33840, Note_on_c, 0, 48, 49
4, 33960, Note_on_c, 0, 48, 0
4, 33960, Note_on_c, 0, 51, 49
4, 34080, Note_on_c, 0, 51, 0
4, 34080, Note_on_c, 0, 56, 49
4, 34200, Note_on_c, 0, 56, 0
4, 34200, Note_on_c, 0, 58, 49
4, 34320, Note_on_c, 0, 58, 0
4, 34320, Note_on_c, 0, 56, 49
4, 34440, Note_on_c, 0, 56, 0
4, 34440, Control_c, 0, 64, 0
4, 34440, Note_on_c, 0, 51, 49
4, 34560, Note_on_c, 0, 51, 0
4, 34560, Control_c, 0, 64, 127
4, 34560, Note_on_c, 0, 49, 49
4, 34680, Note_on_c, 0, 49, 0
4, 34680, Note_on_c, 0, 53, 49
4, 34800, Note_on_c, 0, 53, 0
4, 34800, Note_on_c, 0, 56, 49
4, 34920, Note_on_c, 0, 56, 0
4, 34920, Note_on_c, 0, 58, 49
4, 35040, Note_on_c, 0, 58, 0
4, 35040, Note_on_c, 0, 56, 49
4, 35160, Note_on_c, 0, 56, 0
4, 35160, Note_on_c, 0, 53, 49
4, 35280, Note_on_c, 0, 53, 0
4, 35280, Note_on_c, 0, 49, 49
4, 35400, Note_on_c, 0, 49, 0
4, 35400, Note_on_c, 0, 53, 49
4, 35520, Note_on_c, 0, 53, 0
4, 35520, Note_on_c, 0, 56, 49
4, 35640, Note_on_c, 0, 56, 0
4, 35640, Note_on_c, 0, 58, 49
4, 35760, Note_on_c, 0, 58, 0
4, 35760, Note_on_c, 0, 56, 49
4, 35880, Note_on_c, 0, 56, 0
4, 35880, Control_c, 0, 64, 0
4, 35880, Note_on_c, 0, 53, 49
4, 36000, Note_on_c, 0, 53, 0
4, 36000, Control_c, 0, 64, 127
4, 36000, Note_on_c, 0, 50, 49
4, 36120, Note_on_c, 0, 50, 0
4, 36120, Note_on_c, 0, 53, 49
4, 36240, Note_on_c, 0, 53, 0
4, 36240, Note_on_c, 0, 58, 49
4, 36360, Note_on_c, 0, 58, 0
4, 36360, Note_on_c, 0, 60, 49
4, 36480, Note_on_c, 0, 60, 0
4, 36480, Note_on_c, 0, 58, 49
4, 36600, Note_on_c, 0, 58, 0
4, 36600, Control_c, 0, 64, 0
4, 36600, Note_on_c, 0, 53, 49
4, 36720, Note_on_c, 0, 53, 0
4, 36720, Control_c, 0, 64, 127
4, 36720, Note_on_c, 0, 51, 49
4, 36840, Note_on_c, 0, 51, 0
4, 36840, Note_on_c, 0, 55, 49
4, 36960, Note_on_c, 0, 55, 0
4, 36960, Note_on_c, 0, 58, 49
4, 37080, Note_on_c, 0, 58, 0
4, 37080, Note_on_c, 0, 60, 49
4, 37200, Note_on_c, 0, 60, 0
4, 37200, Note_on_c, 0, 58, 49
4, 37320, Note_on_c, 0, 58, 0
4, 37320, Control_c, 0, 64, 0
4, 37320, Note_on_c, 0, 55, 49
4, 37440, Note_on_c, 0, 55, 0
4, 37440, Control_c, 0, 64, 127
4, 37440, Note_on_c, 0, 52, 49
4, 37560, Note_on_c, 0, 52, 0
4, 37560, Note_on_c, 0, 55, 49
4, 37680, Note_on_c, 0, 55, 0
4, 37680, Note_on_c, 0, 60, 49
4, 37800, Note_on_c, 0, 60, 0
4, 37800, Note_on_c, 0, 61, 49
4, 37920, Note_on_c, 0, 61, 0
4, 37920, Note_on_c, 0, 60, 49
4, 38040, Note_on_c, 0, 60, 0
4, 38040, Control_c, 0, 64, 0
4, 38040, Note_on_c, 0, 55, 49
4, 38160, Note_on_c, 0, 55, 0
4, 38160, Control_c, 0, 64, 127
4, 38160, Note_on_c, 0, 53, 49
4, 38280, Note_on_c, 0, 53, 0
4, 38280, Note_on_c, 0, 56, 49
4, 38400, Note_on_c, 0, 56, 0
4, 38400, Note_on_c, 0, 60, 49
4, 38520, Note_on_c, 0, 60, 0
4, 38520, Note_on_c, 0, 61, 49
4, 38640, Note_on_c, 0, 61, 0
4, 38640, Note_on_c, 0, 60, 49
4, 38760, Note_on_c, 0, 60, 0
4, 38760, Control_c, 0, 64, 0
4, 38760, Note_on_c, 0, 56, 49
4, 38880, Note_on_c, 0, 56, 0
4, 38880, Control_c, 0, 64, 127
4, 38880, Note_on_c, 0, 53, 49
4, 39000, Note_on_c, 0, 53, 0
4, 39000, Note_on_c, 0, 56, 49
4, 39120, Note_on_c, 0, 56, 0
4, 39120, Note_on_c, 0, 61, 49
4, 39240, Note_on_c, 0, 61, 0
4, 39240, Note_on_c, 0, 63, 49
4, 39360, Note_on_c, 0, 63, 0
4, 39360, Note_on_c, 0, 61, 49
4, 39480, Note_on_c, 0, 61, 0
4, 39480, Note_on_c, 0, 56, 49
4, 39600, Note_on_c, 0, 56, 0
4, 39600, Note_on_c, 0, 49, 49
4, 39720, Note_on_c, 0, 49, 0
4, 39720, Note_on_c, 0, 53, 49
4, 39840, Note_on_c, 0, 53, 0
4, 39840, Note_on_c, 0, 58, 49
4, 39960, Note_on_c, 0, 58, 0
4, 39960, Note_on_c, 0, 60, 49
4, 40080, Note_on_c, 0, 60, 0
4, 40080, Note_on_c, 0, 58, 49
4, 40200, Note_on_c, 0, 58, 0
4, 40200, Control_c, 0, 64, 0
4, 40200, Note_on_c, 0, 53, 49
4, 40320, Note_on_c, 0, 53, 0
4, 40320, Control_c, 0, 64, 127
4, 40320, Note_on_c, 0, 51, 49
4, 40440, Note_on_c, 0, 51, 0
4, 40440, Note_on_c, 0, 56, 49
4, 40560, Note_on_c, 0, 56, 0
4, 40560, Note_on_c, 0, 60, 49
4, 40680, Note_on_c, 0, 60, 0
4, 40680, Note_on_c, 0, 61, 49
4, 40800, Note_on_c, 0, 61, 0
4, 40800, Note_on_c, 0, 60, 49
4, 40920, Note_on_c, 0, 60, 0
4, 40920, Control_c, 0, 64, 0
4, 40920, Note_on_c, 0, 56, 49
4, 41040, Note_on_c, 0, 56, 0
4, 41040, Note_on_c, 0, 51, 49
4, 41160, Note_on_c, 0, 51, 0
4, 41160, Note_on_c, 0, 55, 49
4, 41280, Note_on_c, 0, 55, 0
4, 41280, Note_on_c, 0, 51, 49
4, 41400, Note_on_c, 0, 51, 0
4, 41400, Note_on_c, 0, 48, 49
4, 41520, Note_on_c, 0, 48, 0
4, 41520, Note_on_c, 0, 46, 49
4, 41640, Note_on_c, 0, 46, 0
4, 41640, Note_on_c, 0, 44, 49
4, 41760, Note_on_c, 0, 44, 0
4, 41760, Control_c, 0, 64, 127
4, 41760, Note_on_c, 0, 43, 62
4, 41880, Note_on_c, 0, 43, 0
4, 41880, Note_on_c, 0, 46, 62
4, 42000, Note_on_c, 0, 46, 0
4, 42000, Note_on_c, 0, 51, 62
4, 42120, Note_on_c, 0, 51, 0
4, 42120, Note_on_c, 0, 53, 62
4, 42240, Note_on_c, 0, 53, 0
4, 42240, Note_on_c, 0, 51, 62
4, 42360, Note_on_c, 0, 51, 0
4, 42360, Note_on_c, 0, 46, 62
4, 42480, Note_on_c, 0, 46, 0
4, 42480, Note_on_c, 0, 43, 62
4, 42600, Note_on_c, 0, 43, 0
4, 42600, Note_on_c, 0, 46, 62
4, 42720, Note_on_c, 0, 46, 0
4, 42720, Note_on_c, 0, 51, 62
4, 42840, Note_on_c, 0, 51, 0
4, 42840, Note_on_c, 0, 53, 62
4, 42960, Note_on_c, 0, 53, 0
4, 42960, Note_on_c, 0, 51, 62
4, 43080, Note_on_c, 0, 51, 0
4, 43080, Control_c, 0, 64, 0
4, 43080, Note_on_c, 0, 46, 62
4, 43200, Note_on_c, 0, 46, 0
4, 43200, Control_c, 0, 64, 127
4, 43200, Note_on_c, 0, 44, 62
4, 43320, Note_on_c, 0, 44, 0
4, 43320, Note_on_c, 0, 47, 62
4, 43440, Note_on_c, 0, 47, 0
4, 43440, Note_on_c, 0, 51, 62
4, 43560, Note_on_c, 0, 51, 0
4, 43560, Note_on_c, 0, 53, 62
4, 43680, Note_on_c, 0, 53, 0
4, 43680, Note_on_c, 0, 51, 62
4, 43800, Note_on_c, 0, 51, 0
4, 43800, Control_c, 0, 64, 0
4, 43800, Note_on_c, 0, 47, 62
4, 43920, Note_on_c, 0, 47, 0
4, 43920, Control_c, 0, 64, 127
4, 43920, Note_on_c, 0, 45, 62
4, 44040, Note_on_c, 0, 45, 0
4, 44040, Note_on_c, 0, 48, 62
4, 44160, Note_on_c, 0, 48, 0
4, 44160, Note_on_c, 0, 51, 62
4, 44280, Note_on_c, 0, 51, 0
4, 44280, Note_on_c, 0, 53, 62
4, 44400, Note_on_c, 0, 53, 0
4, 44400, Note_on_c, 0, 51, 62
4, 44520, Note_on_c, 0, 51, 0
4, 44520, Control_c, 0, 64, 0
4, 44520, Note_on_c, 0, 48, 62
4, 44640, Note_on_c, 0, 48, 0
4, 44640, Control_c, 0, 64, 127
4, 44640, Note_on_c, 0, 46, 62
4, 44760, Note_on_c, 0, 46, 0
4, 44760, Note_on_c, 0, 51, 62
4, 44880, Note_on_c, 0, 51, 0
4, 44880, Note_on_c, 0, 54, 62
4, 45000, Note_on_c, 0, 54, 0
4, 45000, Note_on_c, 0, 56, 62
4, 45120, Note_on_c, 0, 56, 0
4, 45120, Note_on_c, 0, 54, 62
4, 45240, Note_on_c, 0, 54, 0
4, 45240, Note_on_c, 0, 51, 62
4, 45360, Note_on_c, 0, 51, 0
4, 45360, Note_on_c, 0, 46, 62
4, 45480, Note_on_c, 0, 46, 0
4, 45480, Note_on_c, 0, 51, 62
4, 45600, Note_on_c, 0, 51, 0
4, 45600, Note_on_c, 0, 54, 62
4, 45720, Note_on_c, 0, 54, 0
4, 45720, Note_on_c, 0, 56, 62
4, 45840, Note_on_c, 0, 56, 0
4, 45840, Note_on_c, 0, 54, 62
4, 45960, Note_on_c, 0, 54, 0
4, 45960, Control_c, 0, 64, 0
4, 45960, Note_on_c, 0, 51, 62
4, 46080, Note_on_c, 0, 51, 0
4, 46080, Control_c, 0, 64, 127
4, 46080, Note_on_c, 0, 47, 62
4, 46200, Note_on_c, 0, 47, 0
4, 46200, Note_on_c, 0, 51, 62
4, 46320, Note_on_c, 0, 51, 0
4, 46320, Note_on_c, 0, 56, 62
4, 46440, Note_on_c, 0, 56, 0
4, 46440, Note_on_c, 0, 58, 62
4, 46560, Note_on_c, 0, 58, 0
4, 46560, Note_on_c, 0, 56, 62
4, 46680, Note_on_c, 0, 56, 0
4, 46680, Note_on_c, 0, 51, 62
4, 46800, Note_on_c, 0, 51, 0
4, 46800, Note_on_c, 0, 47, 62
4, 46920, Note_on_c, 0, 47, 0
4, 46920, Note_on_c, 0, 51, 62
4, 47040, Note_on_c, 0, 51, 0
4, 47040, Note_on_c, 0, 56, 62
4, 47160, Note_on_c, 0, 56, 0
4, 47160, Note_on_c, 0, 58, 62
4, 47280, Note_on_c, 0, 58, 0
4, 47280, Note_on_c, 0, 56, 62
4, 47400, Note_on_c, 0, 56, 0
4, 47400, Control_c, 0, 64, 0
4, 47400, Note_on_c, 0, 51, 62
4, 47520, Note_on_c, 0, 51, 0
4, 47520, Control_c, 0, 64, 127
4, 47520, Note_on_c, 0, 48, 75
4, 47640, Note_on_c, 0, 48, 0
4, 47640, Note_on_c, 0, 51, 75
4, 47760, Note_on_c, 0, 51, 0
4, 47760, Note_on_c, 0, 54, 75
4, 47880, Note_on_c, 0, 54, 0
4, 47880, Note_on_c, 0, 60, 75
4, 48000, Note_on_c, 0, 60, 0
4, 48000, Note_on_c, 0, 54, 75
4, 48120, Note_on_c, 0, 54, 0
4, 48120, Note_on_c, 0, 51, 75
4, 48240, Note_on_c, 0, 51, 0
4, 48240, Note_on_c, 0, 48, 75
4, 48360, Note_on_c, 0, 48, 0
4, 48360, Note_on_c, 0, 51, 75
4, 48480, Note_on_c, 0, 51, 0
4, 48480, Note_on_c, 0, 54, 75
4, 48600, Note_on_c, 0, 54, 0
4, 48600, Note_on_c, 0, 60, 75
4, 48720, Note_on_c, 0, 60, 0
4, 48720, Note_on_c, 0, 54, 75
4, 48840, Note_on_c, 0, 54, 0
4, 48840, Control_c, 0, 64, 0
4, 48840, Note_on_c, 0, 51, 75
4, 48960, Note_on_c, 0, 51, 0
4, 48960, Control_c, 0, 64, 127
4, 48960, Note_on_c, 0, 50, 62
4, 49080, Note_on_c, 0, 50, 0
4, 49080, Note_on_c, 0, 53, 62
4, 49200, Note_on_c, 0, 53, 0
4, 49200, Note_on_c, 0, 58, 62
4, 49320, Note_on_c, 0, 58, 0
4, 49320, Note_on_c, 0, 60, 62
4, 49440, Note_on_c, 0, 60, 0
4, 49440, Note_on_c, 0, 58, 62
4, 49560, Note_on_c, 0, 58, 0
4, 49560, Control_c, 0, 64, 0
4, 49560, Note_on_c, 0, 53, 62
4, 49680, Note_on_c, 0, 53, 0
4, 49680, Control_c, 0, 64, 127
4, 49680, Note_on_c, 0, 51, 62
4, 49800, Note_on_c, 0, 51, 0
4, 49800, Note_on_c, 0, 55, 62
4, 49920, Note_on_c, 0, 55, 0
4, 49920, Note_on_c, 0, 58, 62
4, 50040, Note_on_c, 0, 58, 0
4, 50040, Note_on_c, 0, 60, 62
4, 50160, Note_on_c, 0, 60, 0
4, 50160, Note_on_c, 0, 58, 62
4, 50280, Note_on_c, 0, 58, 0
4, 50280, Control_c, 0, 64, 0
4, 50280, Note_on_c, 0, 55, 62
4, 50400, Note_on_c, 0, 55, 0
4, 50400, Control_c, 0, 64, 127
4, 50400, Note_on_c, 0, 44, 49
4, 50520, Note_on_c, 0, 44, 0
4, 50520, Note_on_c, 0, 48, 49
4, 50640, Note_on_c, 0, 48, 0
4, 50640, Note_on_c, 0, 53, 49
4, 50760, Note_on_c, 0, 53, 0
4, 50760, Note_on_c, 0, 56, 49
4, 50880, Note_on_c, 0, 56, 0
4, 50880, Note_on_c, 0, 53, 49
4, 51000, Note_on_c, 0, 53, 0
4, 51000, Control_c, 0, 64, 0
4, 51000, Note_on_c, 0, 48, 49
4, 51120, Note_on_c, 0, 48, 0
4, 51120, Control_c, 0, 64, 127
4, 51120, Note_on_c, 0, 46, 49
4, 51240, Note_on_c, 0, 46, 0
4, 51240, Note_on_c, 0, 53, 49
4, 51360, Note_on_c, 0, 53, 0
4, 51360, Note_on_c, 0, 56, 49
4, 51480, Note_on_c, 0, 56, 0
4, 51480, Note_on_c, 0, 58, 49
4, 51600, Note_on_c, 0, 58, 0
4, 51600, Note_on_c, 0, 56, 49
4, 51720, Note_on_c, 0, 56, 0
4, 51720, Control_c, 0, 64, 0
4, 51720, Note_on_c, 0, 53, 49
4, 51840, Note_on_c, 0, 53, 0
4, 51840, Control_c, 0, 64, 127
4, 51840, Note_on_c, 0, 48, 49
4, 51960, Note_on_c, 0, 48, 0
4, 51960, Note_on_c, 0, 51, 49
4, 52080, Note_on_c, 0, 51, 0
4, 52080, Note_on_c, 0, 55, 49
4, 52200, Note_on_c, 0, 55, 0
4, 52200, Note_on_c, 0, 60, 49
4, 52320, Note_on_c, 0, 60, 0
4, 52320, Note_on_c, 0, 63, 49
4, 52440, Note_on_c, 0, 63, 0
4, 52440, Control_c, 0, 64, 0
4, 52440, Note_on_c, 0, 67, 49
4, 52560, Note_on_c, 0, 67, 0
4, 52560, Control_c, 0, 64, 127
4, 52560, Note_on_c, 0, 56, 49
4, 52680, Note_on_c, 0, 56, 0
4, 52680, Note_on_c, 0, 60, 49
4, 52800, Note_on_c, 0, 60, 0
4, 52800, Note_on_c, 0, 65, 49
4, 52920, Note_on_c, 0, 65, 0
4, 52920, Note_on_c, 0, 67, 49
4, 53040, Note_on_c, 0, 67, 0
4, 53040, Note_on_c, 0, 65, 49
4, 53160, Note_on_c, 0, 65, 0
4, 53160, Control_c, 0, 64, 0
4, 53160, Note_on_c, 0, 56, 49
4, 53280, Note_on_c, 0, 56, 0
4, 53280, Control_c, 0, 64, 127
4, 53280, Note_on_c, 0, 58, 49
4, 53400, Note_on_c, 0, 58, 0
4, 53400, Note_on_c, 0, 62, 49
4, 53520, Note_on_c, 0, 62, 0
4, 53520, Note_on_c, 0, 65, 49
4, 53640, Note_on_c, 0, 65, 0
4, 53640, Note_on_c, 0, 62, 49
4, 53760, Note_on_c, 0, 62, 0
4, 53760, Note_on_c, 0, 58, 49
4, 53880, Note_on_c, 0, 58, 0
4, 53880, Control_c, 0, 64, 0
4, 53880, Note_on_c, 0, 53, 49
4, 54000, Note_on_c, 0, 53, 0
4, 54000, Control_c, 0, 64, 127
4, 54000, Note_on_c, 0, 55, 49
4, 54120, Note_on_c, 0, 55, 0
4, 54120, Note_on_c, 0, 58, 49
4, 54240, Note_on_c, 0, 58, 0
4, 54240, Note_on_c, 0, 63, 49
4, 54360, Note_on_c, 0, 63, 0
4, 54360, Note_on_c, 0, 65, 49
4, 54480, Note_on_c, 0, 65, 0
4, 54480, Note_on_c, 0, 63, 49
4, 54600, Note_on_c, 0, 63, 0
4, 54600, Control_c, 0, 64, 0
4, 54600, Note_on_c, 0, 55, 49
4, 54720, Note_on_c, 0, 55, 0
4, 54720, Control_c, 0, 64, 127
4, 54720, Note_on_c, 0, 56, 49
4, 54840, Note_on_c, 0, 56, 0
4, 54840, Note_on_c, 0, 60, 49
4, 54960, Note_on_c, 0, 60, 0
4, 54960, Note_on_c, 0, 63, 49
4, 55080, Note_on_c, 0, 63, 0
4, 55080, Note_on_c, 0, 60, 49
4, 55200, Note_on_c, 0, 60, 0
4, 55200, Note_on_c, 0, 56, 49
4, 55320, Note_on_c, 0, 56, 0
4, 55320, Control_c, 0, 64, 0
4, 55320, Note_on_c, 0, 51, 49
4, 55440, Note_on_c, 0, 51, 0
4, 55440, Control_c, 0, 64, 127
4, 55440, Note_on_c, 0, 53, 49
4, 55560, Note_on_c, 0, 53, 0
4, 55560, Note_on_c, 0, 60, 49
4, 55680, Note_on_c, 0, 60, 0
4, 55680, Note_on_c, 0, 63, 49
4, 55800, Note_on_c, 0, 63, 0
4, 55800, Note_on_c, 0, 65, 49
4, 55920, Note_on_c, 0, 65, 0
4, 55920, Note_on_c, 0, 69, 49
4, 56040, Note_on_c, 0, 69, 0
4, 56040, Control_c, 0, 64, 0
4, 56040, Note_on_c, 0, 65, 49
4, 56160, Note_on_c, 0, 65, 0
4, 56160, Control_c, 0, 64, 127
4, 56160, Note_on_c, 0, 58, 49
4, 56280, Note_on_c, 0, 58, 0
4, 56280, Note_on_c, 0, 62, 49
4, 56400, Note_on_c, 0, 62, 0
4, 56400, Note_on_c, 0, 65, 49
4, 56520, Note_on_c, 0, 65, 0
4, 56520, Note_on_c, 0, 68, 49
4, 56640, Note_on_c, 0, 68, 0
4, 56640, Note_on_c, 0, 67, 49
4, 56760, Note_on_c, 0, 67, 0
4, 56760, Note_on_c, 0, 63, 49
4, 56880, Note_on_c, 0, 63, 0
4, 56880, Note_on_c, 0, 58, 49
4, 57000, Note_on_c, 0, 58, 0
4, 57000, Note_on_c, 0, 62, 49
4, 57120, Note_on_c, 0, 62, 0
4, 57120, Note_on_c, 0, 65, 49
4, 57240, Note_on_c, 0, 65, 0
4, 57240, Note_on_c, 0, 68, 49
4, 57360, Note_on_c, 0, 68, 0
4, 57360, Note_on_c, 0, 65, 49
4, 57480, Note_on_c, 0, 65, 0
4, 57480, Control_c, 0, 64, 0
4, 57480, Note_on_c, 0, 62, 49
4, 57600, Note_on_c, 0, 62, 0
4, 57600, Control_c, 0, 64, 127
4, 57600, Note_on_c, 0, 51, 49
4, 57720, Note_on_c, 0, 51, 0
4, 57720, Note_on_c, 0, 53, 49
4, 57840, Note_on_c, 0, 53, 0
4, 57840, Note_on_c, 0, 58, 49
4, 57960, Note_on_c, 0, 58, 0
4, 57960, Note_on_c, 0, 62, 49
4, 58080, Note_on_c, 0, 62, 0
4, 58080, Note_on_c, 0, 58, 49
4, 58200, Note_on_c, 0, 58, 0
4, 58200, Control_c, 0, 64, 0
4, 58200, Note_on_c, 0, 53, 49
4, 58320, Note_on_c, 0, 53, 0
4, 58320, Control_c, 0, 64, 127
4, 58320, Note_on_c, 0, 51, 49
4, 58440, Note_on_c, 0, 51, 0
4, 58440, Note_on_c, 0, 55, 49
4, 58560, Note_on_c, 0, 55, 0
4, 58560, Note_on_c, 0, 58, 49
4, 58680, Note_on_c, 0, 58, 0
4, 58680, Note_on_c, 0, 63, 49
4, 58800, Note_on_c, 0, 63, 0
4, 58800, Note_on_c, 0, 58, 49
4, 58920, Note_on_c, 0, 58, 0
4, 58920, Control_c, 0, 64, 0
4, 58920, Note_on_c, 0, 55, 49
4, 59040, Note_on_c, 0, 55, 0
4, 59040, Control_c, 0, 64, 127
4, 59040, Note_on_c, 0, 51, 49
4, 59160, Note_on_c, 0, 51, 0
4, 59160, Note_on_c, 0, 55, 49
4, 59280, Note_on_c, 0, 55, 0
4, 59280, Note_on_c, 0, 58, 49
4, 59400, Note_on_c, 0, 58, 0
4, 59400, Note_on_c, 0, 61, 49
4, 59520, Note_on_c, 0, 61, 0
4, 59520, Note_on_c, 0, 60, 49
4, 59640, Note_on_c, 0, 60, 0
4, 59640, Note_on_c, 0, 58, 49
4, 59760, Note_on_c, 0, 58, 0
4, 59760, Note_on_c, 0, 56, 49
4, 59880, Note_on_c, 0, 56, 0
4, 59880, Note_on_c, 0, 55, 49
4, 60000, Note_on_c, 0, 55, 0
4, 60000, Note_on_c, 0, 53, 49
4, 60120, Note_on_c, 0, 53, 0
4, 60120, Note_on_c, 0, 51, 49
4, 60240, Note_on_c, 0, 51, 0
4, 60240, Note_on_c, 0, 49, 49
4, 60360, Note_on_c, 0, 49, 0
4, 60360, Control_c, 0, 64, 0
4, 60360, Note_on_c, 0, 46, 49
4, 60480, Note_on_c, 0, 46, 0
4, 60480, Control_c, 0, 64, 127
4, 60480, Note_on_c, 0, 44, 62
4, 60600, Note_on_c, 0, 44, 0
4, 60600, Note_on_c, 0, 48, 62
4, 60720, Note_on_c, 0, 48, 0
4, 60720, Note_on_c, 0, 51, 62
4, 60840, Note_on_c, 0, 51, 0
4, 60840, Note_on_c, 0, 53, 62
4, 60960, Note_on_c, 0, 53, 0
4, 60960, Note_on_c, 0, 51, 62
4, 61080, Note_on_c, 0, 51, 0
4, 61080, Note_on_c, 0, 48, 62
4, 61200, Note_on_c, 0, 48, 0
4, 61200, Note_on_c, 0, 44, 62
4, 61320, Note_on_c, 0, 44, 0
4, 61320, Note_on_c, 0, 48, 62
4, 61440, Note_on_c, 0, 48, 0
4, 61440, Note_on_c, 0, 51, 62
4, 61560, Note_on_c, 0, 51, 0
4, 61560, Note_on_c, 0, 53, 62
4, 61680, Note_on_c, 0, 53, 0
4, 61680, Note_on_c, 0, 51, 62
4, 61800, Note_on_c, 0, 51, 0
4, 61800, Control_c, 0, 64, 0
4, 61800, Note_on_c, 0, 48, 62
4, 61920, Note_on_c, 0, 48, 0
4, 61920, Control_c, 0, 64, 127
4, 61920, Note_on_c, 0, 45, 62
4, 62040, Note_on_c, 0, 45, 0
4, 62040, Note_on_c, 0, 51, 62
4, 62160, Note_on_c, 0, 51, 0
4, 62160, Note_on_c, 0, 54, 62
4, 62280, Note_on_c, 0, 54, 0
4, 62280, Note_on_c, 0, 57, 62
4, 62400, Note_on_c, 0, 57, 0
4, 62400, Note_on_c, 0, 54, 62
4, 62520, Note_on_c, 0, 54, 0
4, 62520, Note_on_c, 0, 51, 62
4, 62640, Note_on_c, 0, 51, 0
4, 62640, Note_on_c, 0, 44, 62
4, 62760, Note_on_c, 0, 44, 0
4, 62760, Note_on_c, 0, 51, 62
4, 62880, Note_on_c, 0, 51, 0
4, 62880, Note_on_c, 0, 54, 62
4, 63000, Note_on_c, 0, 54, 0
4, 63000, Note_on_c, 0, 56, 62
4, 63120, Note_on_c, 0, 56, 0
4, 63120, Note_on_c, 0, 54, 62
4, 63240, Note_on_c, 0, 54, 0
4, 63240, Control_c, 0, 64, 0
4, 63240, Note_on_c, 0, 51, 62
4, 63360, Note_on_c, 0, 51, 0
4, 63360, Control_c, 0, 64, 127
4, 63360, Note_on_c, 0, 44, 62
4, 63480, Note_on_c, 0, 44, 0
4, 63480, Note_on_c, 0, 51, 62
4, 63600, Note_on_c, 0, 51, 0
4, 63600, Note_on_c, 0, 54, 62
4, 63720, Note_on_c, 0, 54, 0
4, 63720, Note_on_c, 0, 56, 62
4, 63840, Note_on_c, 0, 56, 0
4, 63840, Note_on_c, 0, 54, 62
4, 63960, Note_on_c, 0, 54, 0
4, 63960, Note_on_c, 0, 51, 62
4, 64080, Note_on_c, 0, 51, 0
4, 64080, Note_on_c, 0, 42, 75
4, 64200, Note_on_c, 0, 42, 0
4, 64200, Note_on_c, 0, 48, 75
4, 64320, Note_on_c, 0, 48, 0
4, 64320, Note_on_c, 0, 51, 75
4, 64440, Note_on_c, 0, 51, 0
4, 64440, Note_on_c, 0, 54, 75
4, 64560, Note_on_c, 0, 54, 0
4, 64560, Note_on_c, 0, 51, 75
4, 64680, Note_on_c, 0, 51, 0
4, 64680, Control_c, 0, 64, 0
4, 64680, Note_on_c, 0, 48, 75
4, 64800, Note_on_c, 0, 48, 0
4, 64800, Control_c, 0, 64, 127
4, 64800, Note_on_c, 0, 41, 75
4, 64920, Note_on_c, 0, 41, 0
4, 64920, Note_on_c, 0, 48, 75
4, 65040, Note_on_c, 0, 48, 0
4, 65040, Note_on_c, 0, 51, 75
4, 65160, Note_on_c, 0, 51, 0
4, 65160, Note_on_c, 0, 53, 75
4, 65280, Note_on_c, 0, 53, 0
4, 65280, Note_on_c, 0, 51, 75
4, 65400, Note_on_c, 0, 51, 0
4, 65400, Note_on_c, 0, 48, 75
4, 65520, Note_on_c, 0, 48, 0
4, 65520, Note_on_c, 0, 53, 75
4, 65640, Note_on_c, 0, 53, 0
4, 65640, Note_on_c, 0, 57, 75
4, 65760, Note_on_c, 0, 57, 0
4, 65760, Note_on_c, 0, 60, 75
4, 65880, Note_on_c, 0, 60, 0
4, 65880, Note_on_c, 0, 57, 75
4, 66000, Note_on_c, 0, 57, 0
4, 66000, Note_on_c, 0, 53, 75
4, 66120, Note_on_c, 0, 53, 0
4, 66120, Control_c, 0, 64, 0
4, 66120, Note_on_c, 0, 51, 75
4, 66240, Note_on_c, 0, 51, 0
4, 66240, Control_c, 0, 64, 127
4, 66240, Note_on_c, 0, 50, 49
4, 66360, Note_on_c, 0, 50, 0
4, 66360, Note_on_c, 0, 53, 49
4, 66480, Note_on_c, 0, 53, 0
4, 66480, Note_on_c, 0, 58, 49
4, 66600, Note_on_c, 0, 58, 0
4, 66600, Note_on_c, 0, 59, 49
4, 66720, Note_on_c, 0, 59, 0
4, 66720, Note_on_c, 0, 58, 49
4, 66840, Note_on_c, 0, 58, 0
4, 66840, Note_on_c, 0, 53, 49
4, 66960, Note_on_c, 0, 53, 0
4, 66960, Note_on_c, 0, 50, 49
4, 67080, Note_on_c, 0, 50, 0
4, 67080, Note_on_c, 0, 53, 49
4, 67200, Note_on_c, 0, 53, 0
4, 67200, Note_on_c, 0, 58, 49
4, 67320, Note_on_c, 0, 58, 0
4, 67320, Note_on_c, 0, 59, 49
4, 67440, Note_on_c, 0, 59, 0
4, 67440, Note_on_c, 0, 58, 49
4, 67560, Note_on_c, 0, 58, 0
4, 67560, Control_c, 0, 64, 0
4, 67560, Note_on_c, 0, 53, 49
4, 67680, Note_on_c, 0, 53, 0
4, 67680, Control_c, 0, 64, 127
4, 67680, Note_on_c, 0, 47, 62
4, 67800, Note_on_c, 0, 47, 0
4, 67800, Note_on_c, 0, 53, 62
4, 67920, Note_on_c, 0, 53, 0
4, 67920, Note_on_c, 0, 56, 62
4, 68040, Note_on_c, 0, 56, 0
4, 68040, Note_on_c, 0, 59, 62
4, 68160, Note_on_c, 0, 59, 0
4, 68160, Note_on_c, 0, 56, 62
4, 68280, Note_on_c, 0, 56, 0
4, 68280, Note_on_c, 0, 53, 62
4, 68400, Note_on_c, 0, 53, 0
4, 68400, Note_on_c, 0, 46, 62
4, 68520, Note_on_c, 0, 46, 0
4, 68520, Note_on_c, 0, 53, 62
4, 68640, Note_on_c, 0, 53, 0
4, 68640, Note_on_c, 0, 56, 62
4, 68760, Note_on_c, 0, 56, 0
4, 68760, Note_on_c, 0, 58, 62
4, 68880, Note_on_c, 0, 58, 0
4, 68880, Note_on_c, 0, 56, 62
4, 69000, Note_on_c, 0, 56, 0
4, 69000, Control_c, 0, 64, 0
4, 69000, Note_on_c, 0, 53, 62
4, 69120, Note_on_c, 0, 53, 0
4, 69120, Control_c, 0, 64, 127
4, 69120, Note_on_c, 0, 51, 62
4, 69240, Note_on_c, 0, 51, 0
4, 69240, Note_on_c, 0, 53, 62
4, 69360, Note_on_c, 0, 53, 0
4, 69360, Note_on_c, 0, 56, 62
4, 69480, Note_on_c, 0, 56, 0
4, 69480, Note_on_c, 0, 59, 62
4, 69600, Note_on_c, 0, 59, 0
4, 69600, Note_on_c, 0, 56, 62
4, 69720, Note_on_c, 0, 56, 0
4, 69720, Note_on_c, 0, 53, 62
4, 69840, Note_on_c, 0, 53, 0
4, 69840, Note_on_c, 0, 50, 62
4, 69960, Note_on_c, 0, 50, 0
4, 69960, Note_on_c, 0, 53, 62
4, 70080, Note_on_c, 0, 53, 0
4, 70080, Note_on_c, 0, 56, 62
4, 70200, Note_on_c, 0, 56, 0
4, 70200, Note_on_c, 0, 58, 62
4, 70320, Note_on_c, 0, 58, 0
4, 70320, Note_on_c, 0, 56, 62
4, 70440, Note_on_c, 0, 56, 0
4, 70440, Control_c, 0, 64, 0
4, 70440, Note_on_c, 0, 53, 62
4, 70560, Note_on_c, 0, 53, 0
4, 70560, Control_c, 0, 64, 127
4, 70560, Note_on_c, 0, 49, 75
4, 70680, Note_on_c, 0, 49, 0
4, 70680, Note_on_c, 0, 53, 75
4, 70800, Note_on_c, 0, 53, 0
4, 70800, Note_on_c, 0, 55, 75
4, 70920, Note_on_c, 0, 55, 0
4, 70920, Note_on_c, 0, 58, 75
4, 71040, Note_on_c, 0, 58, 0
4, 71040, Note_on_c, 0, 55, 75
4, 71160, Note_on_c, 0, 55, 0
4, 71160, Note_on_c, 0, 53, 75
4, 71280, Note_on_c, 0, 53, 0
4, 71280, Note_on_c, 0, 48, 75
4, 71400, Note_on_c, 0, 48, 0
4, 71400, Note_on_c, 0, 52, 75
4, 71520, Note_on_c, 0, 52, 0
4, 71520, Note_on_c, 0, 55, 75
4, 71640, Note_on_c, 0, 55, 0
4, 71640, Note_on_c, 0, 58, 75
4, 71760, Note_on_c, 0, 58, 0
4, 71760, Note_on_c, 0, 55, 75
4, 71880, Note_on_c, 0, 55, 0
4, 71880, Control_c, 0, 64, 0
4, 71880, Note_on_c, 0, 52, 75
4, 72000, Note_on_c, 0, 52, 0
4, 72000, Control_c, 0, 64, 127
4, 72000, Note_on_c, 0, 44, 75
4, 72120, Note_on_c, 0, 44, 0
4, 72120, Note_on_c, 0, 48, 75
4, 72240, Note_on_c, 0, 48, 0
4, 72240, Note_on_c, 0, 53, 75
4, 72360, Note_on_c, 0, 53, 0
4, 72360, Note_on_c, 0, 56, 75
4, 72480, Note_on_c, 0, 56, 0
4, 72480, Note_on_c, 0, 60, 75
4, 72600, Note_on_c, 0, 60, 0
4, 72600, Note_on_c, 0, 56, 75
4, 72720, Note_on_c, 0, 56, 0
4, 72720, Note_on_c, 0, 54, 75
4, 72840, Note_on_c, 0, 54, 0
4, 72840, Note_on_c, 0, 58, 75
4, 72960, Note_on_c, 0, 58, 0
4, 72960, Note_on_c, 0, 63, 75
4, 73080, Note_on_c, 0, 63, 0
4, 73080, Note_on_c, 0, 65, 75
4, 73200, Note_on_c, 0, 65, 0
4, 73200, Note_on_c, 0, 63, 75
4, 73320, Note_on_c, 0, 63, 0
4, 73320, Control_c, 0, 64, 0
4, 73320, Note_on_c, 0, 54, 75
4, 73440, Note_on_c, 0, 54, 0
4, 73440, Control_c, 0, 64, 127
4, 73440, Note_on_c, 0, 55, 75
4, 73560, Note_on_c, 0, 55, 0
4, 73560, Note_on_c, 0, 58, 75
4, 73680, Note_on_c, 0, 58, 0
4, 73680, Note_on_c, 0, 61, 75
4, 73800, Note_on_c, 0, 61, 0
4, 73800, Note_on_c, 0, 63, 75
4, 73920, Note_on_c, 0, 63, 0
4, 73920, Note_on_c, 0, 61, 75
4, 74040, Note_on_c, 0, 61, 0
4, 74040, Note_on_c, 0, 58, 75
4, 74160, Note_on_c, 0, 58, 0
4, 74160, Note_on_c, 0, 51, 75
4, 74280, Note_on_c, 0, 51, 0
4, 74280, Note_on_c, 0, 57, 75
4, 74400, Note_on_c, 0, 57, 0
4, 74400, Note_on_c, 0, 60, 75
4, 74520, Note_on_c, 0, 60, 0
4, 74520, Note_on_c, 0, 61, 75
4, 74640, Note_on_c, 0, 61, 0
4, 74640, Note_on_c, 0, 60, 75
4, 74760, Note_on_c, 0, 60, 0
4, 74760, Control_c, 0, 64, 0
4, 74760, Note_on_c, 0, 57, 75
4, 74880, Note_on_c, 0, 57, 0
4, 74880, Control_c, 0, 64, 127
4, 74880, Note_on_c, 0, 50, 75
4, 75000, Note_on_c, 0, 50, 0
4, 75000, Note_on_c, 0, 53, 75
4, 75120, Note_on_c, 0, 53, 0
4, 75120, Note_on_c, 0, 58, 75
4, 75240, Note_on_c, 0, 58, 0
4, 75240, Note_on_c, 0, 60, 75
4, 75360, Note_on_c, 0, 60, 0
4, 75360, Note_on_c, 0, 58, 75
4, 75480, Note_on_c, 0, 58, 0
4, 75480, Note_on_c, 0, 53, 75
4, 75600, Note_on_c, 0, 53, 0
4, 75600, Note_on_c, 0, 56, 75
4, 75720, Note_on_c, 0, 56, 0
4, 75720, Note_on_c, 0, 60, 75
4, 75840, Note_on_c, 0, 60, 0
4, 75840, Note_on_c, 0, 65, 75
4, 75960, Note_on_c, 0, 65, 0
4, 75960, Note_on_c, 0, 67, 75
4, 76080, Note_on_c, 0, 67, 0
4, 76080, Note_on_c, 0, 65, 75
4, 76200, Note_on_c, 0, 65, 0
4, 76200, Control_c, 0, 64, 0
4, 76200, Note_on_c, 0, 60, 75
4, 76320, Note_on_c, 0, 60, 0
4, 76320, Control_c, 0, 64, 127
4, 76320, Note_on_c, 0, 55, 75
4, 76440, Note_on_c, 0, 55, 0
4, 76440, Note_on_c, 0, 60, 75
4, 76560, Note_on_c, 0, 60, 0
4, 76560, Note_on_c, 0, 63, 75
4, 76680, Note_on_c, 0, 63, 0
4, 76680, Note_on_c, 0, 65, 75
4, 76800, Note_on_c, 0, 65, 0
4, 76800, Note_on_c, 0, 63, 75
4, 76920, Note_on_c, 0, 63, 0
4, 76920, Note_on_c, 0, 60, 75
4, 77040, Note_on_c, 0, 60, 0
4, 77040, Note_on_c, 0, 53, 75
4, 77160, Note_on_c, 0, 53, 0
4, 77160, Note_on_c, 0, 59, 75
4, 77280, Note_on_c, 0, 59, 0
4, 77280, Note_on_c, 0, 62, 75
4, 77400, Note_on_c, 0, 62, 0
4, 77400, Note_on_c, 0, 63, 75
4, 77520, Note_on_c, 0, 63, 0
4, 77520, Note_on_c, 0, 62, 75
4, 77640, Note_on_c, 0, 62, 0
4, 77640, Control_c, 0, 64, 0
4, 77640, Note_on_c, 0, 59, 75
4, 77760, Note_on_c, 0, 59, 0
4, 77760, Control_c, 0, 64, 127
4, 77760, Note_on_c, 0, 52, 75
4, 77880, Note_on_c, 0, 52, 0
4, 77880, Note_on_c, 0, 55, 75
4, 78000, Note_on_c, 0, 55, 0
4, 78000, Note_on_c, 0, 60, 75
4, 78120, Note_on_c, 0, 60, 0
4, 78120, Note_on_c, 0, 61, 75
4, 78240, Note_on_c, 0, 61, 0
4, 78240, Note_on_c, 0, 60, 75
4, 78360, Note_on_c, 0, 60, 0
4, 78360, Note_on_c, 0, 55, 75
4, 78480, Note_on_c, 0, 55, 0
4, 78480, Note_on_c, 0, 53, 75
4, 78600, Note_on_c, 0, 53, 0
4, 78600, Note_on_c, 0, 56, 75
4, 78720, Note_on_c, 0, 56, 0
4, 78720, Note_on_c, 0, 60, 75
4, 78840, Note_on_c, 0, 60, 0
4, 78840, Note_on_c, 0, 61, 75
4, 78960, Note_on_c, 0, 61, 0
4, 78960, Note_on_c, 0, 60, 75
4, 79080, Note_on_c, 0, 60, 0
4, 79080, Control_c, 0, 64, 0
4, 79080, Note_on_c, 0, 56, 75
4, 79200, Note_on_c, 0, 56, 0
4, 79200, Control_c, 0, 64, 127
4, 79200, Note_on_c, 0, 52, 75
4, 79320, Note_on_c, 0, 52, 0
4, 79320, Note_on_c, 0, 55, 75
4, 79440, Note_on_c, 0, 55, 0
4, 79440, Note_on_c, 0, 60, 75
4, 79560, Note_on_c, 0, 60, 0
4, 79560, Note_on_c, 0, 61, 75
4, 79680, Note_on_c, 0, 61, 0
4, 79680, Note_on_c, 0, 60, 75
4, 79800, Note_on_c, 0, 60, 0
4, 79800, Note_on_c, 0, 55, 75
4, 79920, Note_on_c, 0, 55, 0
4, 79920, Note_on_c, 0, 53, 75
4, 80040, Note_on_c, 0, 53, 0
4, 80040, Note_on_c, 0, 56, 75
4, 80160, Note_on_c, 0, 56, 0
4, 80160, Note_on_c, 0, 61, 75
4, 80280, Note_on_c, 0, 61, 0
4, 80280, Note_on_c, 0, 63, 75
4, 80400, Note_on_c, 0, 63, 0
4, 80400, Note_on_c, 0, 61, 75
4, 80520, Note_on_c, 0, 61, 0
4, 80520, Control_c, 0, 64, 0
4, 80520, Note_on_c, 0, 56, 75
4, 80640, Note_on_c, 0, 56, 0
4, 80640, Control_c, 0, 64, 127
4, 80640, Note_on_c, 0, 55, 75
4, 80760, Note_on_c, 0, 55, 0
4, 80760, Note_on_c, 0, 58, 75
4, 80880, Note_on_c, 0, 58, 0
4, 80880, Note_on_c, 0, 61, 75
4, 81000, Note_on_c, 0, 61, 0
4, 81000, Note_on_c, 0, 63, 75
4, 81120, Note_on_c, 0, 63, 0
4, 81120, Note_on_c, 0, 61, 75
4, 81240, Note_on_c, 0, 61, 0
4, 81240, Note_on_c, 0, 58, 75
4, 81360, Note_on_c, 0, 58, 0
4, 81360, Note_on_c, 0, 56, 75
4, 81480, Note_on_c, 0, 56, 0
4, 81480, Note_on_c, 0, 60, 75
4, 81600, Note_on_c, 0, 60, 0
4, 81600, Note_on_c, 0, 65, 75
4, 81720, Note_on_c, 0, 65, 0
4, 81720, Note_on_c, 0, 67, 75
4, 81840, Note_on_c, 0, 67, 0
4, 81840, Note_on_c, 0, 65, 75
4, 81960, Note_on_c, 0, 65, 0
4, 81960, Control_c, 0, 64, 0
4, 81960, Note_on_c, 0, 60, 75
4, 82080, Note_on_c, 0, 60, 0
4, 82080, Control_c, 0, 64, 127
4, 82080, Note_on_c, 0, 57, 75
4, 82200, Note_on_c, 0, 57, 0
4, 82200, Note_on_c, 0, 60, 75
4, 82320, Note_on_c, 0, 60, 0
4, 82320, Note_on_c, 0, 65, 75
4, 82440, Note_on_c, 0, 65, 0
4, 82440, Note_on_c, 0, 66, 75
4, 82560, Note_on_c, 0, 66, 0
4, 82560, Note_on_c, 0, 65, 75
4, 82680, Note_on_c, 0, 65, 0
4, 82680, Note_on_c, 0, 60, 75
4, 82800, Note_on_c, 0, 60, 0
4, 82800, Note_on_c, 0, 58, 75
4, 82920, Note_on_c, 0, 58, 0
4, 82920, Note_on_c, 0, 61, 75
4, 83040, Note_on_c, 0, 61, 0
4, 83040, Note_on_c, 0, 65, 75
4, 83160, Note_on_c, 0, 65, 0
4, 83160, Note_on_c, 0, 61, 75
4, 83280, Note_on_c, 0, 61, 0
4, 83280, Note_on_c, 0, 58, 75
4, 83400, Note_on_c, 0, 58, 0
4, 83400, Control_c, 0, 64, 0
4, 83400, Note_on_c, 0, 53, 75
4, 83520, Note_on_c, 0, 53, 0
4, 83520, Control_c, 0, 64, 127
4, 83520, Note_on_c, 0, 50, 75
4, 83640, Note_on_c, 0, 50, 0
4, 83640, Note_on_c, 0, 53, 75
4, 83760, Note_on_c, 0, 53, 0
4, 83760, Note_on_c, 0, 56, 75
4, 83880, Note_on_c, 0, 56, 0
4, 83880, Note_on_c, 0, 59, 75
4, 84000, Note_on_c, 0, 59, 0
4, 84000, Note_on_c, 0, 56, 75
4, 84120, Note_on_c, 0, 56, 0
4, 84120, Note_on_c, 0, 53, 75
4, 84240, Note_on_c, 0, 53, 0
4, 84240, Note_on_c, 0, 51, 75
4, 84360, Note_on_c, 0, 51, 0
4, 84360, Note_on_c, 0, 56, 75
4, 84480, Note_on_c, 0, 56, 0
4, 84480, Note_on_c, 0, 58, 75
4, 84600, Note_on_c, 0, 58, 0
4, 84600, Note_on_c, 0, 59, 75
4, 84720, Note_on_c, 0, 59, 0
4, 84720, Note_on_c, 0, 58, 75
4, 84840, Note_on_c, 0, 58, 0
4, 84840, Control_c, 0, 64, 0
4, 84840, Note_on_c, 0, 56, 75
4, 84960, Note_on_c, 0, 56, 0
4, 84960, Control_c, 0, 64, 127
4, 84960, Note_on_c, 0, 53, 75
4, 85080, Note_on_c, 0, 53, 0
4, 85080, Note_on_c, 0, 56, 75
4, 85200, Note_on_c, 0, 56, 0
4, 85200, Note_on_c, 0, 59, 75
4, 85320, Note_on_c, 0, 59, 0
4, 85320, Note_on_c, 0, 65, 75
4, 85440, Note_on_c, 0, 65, 0
4, 85440, Note_on_c, 0, 59, 75
4, 85560, Note_on_c, 0, 59, 0
4, 85560, Note_on_c, 0, 56, 75
4, 85680, Note_on_c, 0, 56, 0
4, 85680, Note_on_c, 0, 53, 75
4, 85800, Note_on_c, 0, 53, 0
4, 85800, Note_on_c, 0, 56, 75
4, 85920, Note_on_c, 0, 56, 0
4, 85920, Note_on_c, 0, 59, 75
4, 86040, Note_on_c, 0, 59, 0
4, 86040, Note_on_c, 0, 65, 75
4, 86160, Note_on_c, 0, 65, 0
4, 86160, Note_on_c, 0, 59, 75
4, 86280, Note_on_c, 0, 59, 0
4, 86280, Control_c, 0, 64, 0
4, 86280, Note_on_c, 0, 56, 75
4, 86400, Note_on_c, 0, 56, 0
4, 86400, Control_c, 0, 64, 127
4, 86400, Note_on_c, 0, 50, 75
4, 86520, Note_on_c, 0, 50, 0
4, 86520, Note_on_c, 0, 53, 75
4, 86640, Note_on_c, 0, 53, 0
4, 86640, Note_on_c, 0, 56, 75
4, 86760, Note_on_c, 0, 56, 0
4, 86760, Note_on_c, 0, 58, 75
4, 86880, Note_on_c, 0, 58, 0
4, 86880, Note_on_c, 0, 56, 75
4, 87000, Note_on_c, 0, 56, 0
4, 87000, Note_on_c, 0, 53, 75
4, 87120, Note_on_c, 0, 53, 0
4, 87120, Note_on_c, 0, 50, 75
4, 87240, Note_on_c, 0, 50, 0
4, 87240, Note_on_c, 0, 53, 75
4, 87360, Note_on_c, 0, 53, 0
4, 87360, Note_on_c, 0, 58, 75
4, 87480, Note_on_c, 0, 58, 0
4, 87480, Note_on_c, 0, 59, 75
4, 87600, Note_on_c, 0, 59, 0
4, 87600, Note_on_c, 0, 58, 75
4, 87720, Note_on_c, 0, 58, 0
4, 87720, Control_c, 0, 64, 0
4, 87720, Note_on_c, 0, 53, 75
4, 87840, Note_on_c, 0, 53, 0
4, 87840, Control_c, 0, 64, 127
4, 87840, Note_on_c, 0, 51, 75
4, 87960, Note_on_c, 0, 51, 0
4, 87960, Note_on_c, 0, 56, 75
4, 88080, Note_on_c, 0, 56, 0
4, 88080, Note_on_c, 0, 58, 75
4, 88200, Note_on_c, 0, 58, 0
4, 88200, Note_on_c, 0, 63, 75
4, 88320, Note_on_c, 0, 63, 0
4, 88320, Note_on_c, 0, 58, 75
4, 88440, Note_on_c, 0, 58, 0
4, 88440, Note_on_c, 0, 56, 75
4, 88560, Note_on_c, 0, 56, 0
4, 88560, Note_on_c, 0, 53, 75
4, 88680, Note_on_c, 0, 53, 0
4, 88680, Note_on_c, 0, 56, 75
4, 88800, Note_on_c, 0, 56, 0
4, 88800, Note_on_c, 0, 58, 75
4, 88920, Note_on_c, 0, 58, 0
4, 88920, Note_on_c, 0, 62, 75
4, 89040, Note_on_c, 0, 62, 0
4, 89040, Note_on_c, 0, 58, 75
4, 89160, Note_on_c, 0, 58, 0
4, 89160, Control_c, 0, 64, 0
4, 89160, Note_on_c, 0, 56, 75
4, 89280, Note_on_c, 0, 56, 0
4, 89280, Control_c, 0, 64, 127
4, 89280, Note_on_c, 0, 55, 88
4, 89400, Note_on_c, 0, 55, 0
4, 89400, Note_on_c, 0, 58, 88
4, 89520, Note_on_c, 0, 58, 0
4, 89520, Note_on_c, 0, 61, 88
4, 89640, Note_on_c, 0, 61, 0
4, 89640, Note_on_c, 0, 64, 88
4, 89760, Note_on_c, 0, 64, 0
4, 89760, Note_on_c, 0, 61, 88
4, 89880, Note_on_c, 0, 61, 0
4, 89880, Note_on_c, 0, 58, 88
4, 90000, Note_on_c, 0, 58, 0
4, 90000, Note_on_c, 0, 55, 75
4, 90120, Note_on_c, 0, 55, 0
4, 90120, Note_on_c, 0, 58, 75
4, 90240, Note_on_c, 0, 58, 0
4, 90240, Note_on_c, 0, 61, 75
4, 90360, Note_on_c, 0, 61, 0
4, 90360, Note_on_c, 0, 64, 75
4, 90480, Note_on_c, 0, 64, 0
4, 90480, Note_on_c, 0, 61, 75
4, 90600, Note_on_c, 0, 61, 0
4, 90600, Control_c, 0, 64, 0
4, 90600, Note_on_c, 0, 58, 75
4, 90720, Note_on_c, 0, 58, 0
4, 90720, Control_c, 0, 64, 127
4, 90720, Note_on_c, 0, 55, 62
4, 90840, Note_on_c, 0, 55, 0
4, 90840, Note_on_c, 0, 58, 62
4, 90960, Note_on_c, 0, 58, 0
4, 90960, Note_on_c, 0, 61, 62
4, 91080, Note_on_c, 0, 61, 0
4, 91080, Note_on_c, 0, 60, 62
4, 91200, Note_on_c, 0, 60, 0
4, 91200, Note_on_c, 0, 58, 62
4, 91320, Note_on_c, 0, 58, 0
4, 91320, Note_on_c, 0, 56, 62
4, 91440, Note_on_c, 0, 56, 0
4, 91440, Note_on_c, 0, 55, 62
4, 91560, Note_on_c, 0, 55, 0
4, 91560, Note_on_c, 0, 58, 49
4, 91680, Note_on_c, 0, 58, 0
4, 91680, Note_on_c, 0, 55, 49
4, 91800, Note_on_c, 0, 55, 0
4, 91800, Note_on_c, 0, 53, 49
4, 91920, Note_on_c, 0, 53, 0
4, 91920, Note_on_c, 0, 51, 49
4, 92040, Note_on_c, 0, 51, 0
4, 92040, Control_c, 0, 64, 0
4, 92040, Note_on_c, 0, 49, 49
4, 92160, Note_on_c, 0, 49, 0
4, 92160, Control_c, 0, 64, 127
4, 92160, Note_on_c, 0, 48, 49
4, 92280, Note_on_c, 0, 48, 0
4, 92280, Note_on_c, 0, 51, 49
4, 92400, Note_on_c, 0, 51, 0
4, 92400, Note_on_c, 0, 56, 49
4, 92520, Note_on_c, 0, 56, 0
4, 92520, Note_on_c, 0, 58, 49
4, 92640, Note_on_c, 0, 58, 0
4, 92640, Note_on_c, 0, 56, 49
4, 92760, Note_on_c, 0, 56, 0
4, 92760, Note_on_c, 0, 51, 49
4, 92880, Note_on_c, 0, 51, 0
4, 92880, Note_on_c, 0, 48, 49
4, 93000, Note_on_c, 0, 48, 0
4, 93000, Note_on_c, 0, 51, 49
4, 93120, Note_on_c, 0, 51, 0
4, 93120, Note_on_c, 0, 56, 49
4, 93240, Note_on_c, 0, 56, 0
4, 93240, Note_on_c, 0, 58, 49
4, 93360, Note_on_c, 0, 58, 0
4, 93360, Note_on_c, 0, 56, 49
4, 93480, Note_on_c, 0, 56, 0
4, 93480, Control_c, 0, 64, 0
4, 93480, Note_on_c, 0, 51, 49
4, 93600, Note_on_c, 0, 51, 0
4, 93600, Control_c, 0, 64, 127
4, 93600, Note_on_c, 0, 49, 49
4, 93720, Note_on_c, 0, 49, 0
4, 93720, Note_on_c, 0, 53, 49
4, 93840, Note_on_c, 0, 53, 0
4, 93840, Note_on_c, 0, 56, 49
4, 93960, Note_on_c, 0, 56, 0
4, 93960, Note_on_c, 0, 58, 49
4, 94080, Note_on_c, 0, 58, 0
4, 94080, Note_on_c, 0, 56, 49
4, 94200, Note_on_c, 0, 56, 0
4, 94200, Control_c, 0, 64, 0
4, 94200, Note_on_c, 0, 53, 49
4, 94320, Note_on_c, 0, 53, 0
4, 94320, Control_c, 0, 64, 127
4, 94320, Note_on_c, 0, 50, 49
4, 94440, Note_on_c, 0, 50, 0
4, 94440, Note_on_c, 0, 53, 49
4, 94560, Note_on_c, 0, 53, 0
4, 94560, Note_on_c, 0, 56, 49
4, 94680, Note_on_c, 0, 56, 0
4, 94680, Note_on_c, 0, 58, 49
4, 94800, Note_on_c, 0, 58, 0
4, 94800, Note_on_c, 0, 56, 49
4, 94920, Note_on_c, 0, 56, 0
4, 94920, Control_c, 0, 64, 0
4, 94920, Note_on_c, 0, 53, 49
4, 95040, Note_on_c, 0, 53, 0
4, 95040, Control_c, 0, 64, 127
4, 95040, Note_on_c, 0, 51, 49
4, 95160, Note_on_c, 0, 51, 0
4, 95160, Note_on_c, 0, 56, 49
4, 95280, Note_on_c, 0, 56, 0
4, 95280, Note_on_c, 0, 60, 49
4, 95400, Note_on_c, 0, 60, 0
4, 95400, Note_on_c, 0, 61, 49
4, 95520, Note_on_c, 0, 61, 0
4, 95520, Note_on_c, 0, 60, 49
4, 95640, Note_on_c, 0, 60, 0
4, 95640, Control_c, 0, 64, 0
4, 95640, Note_on_c, 0, 56, 49
4, 95760, Note_on_c, 0, 56, 0
4, 95760, Control_c, 0, 64, 127
4, 95760, Note_on_c, 0, 51, 49
4, 95880, Note_on_c, 0, 51, 0
4, 95880, Note_on_c, 0, 57, 49
4, 96000, Note_on_c, 0, 57, 0
4, 96000, Note_on_c, 0, 60, 49
4, 96120, Note_on_c, 0, 60, 0
4, 96120, Note_on_c, 0, 61, 49
4, 96240, Note_on_c, 0, 61, 0
4, 96240, Note_on_c, 0, 60, 49
4, 96360, Note_on_c, 0, 60, 0
4, 96360, Control_c, 0, 64, 0
4, 96360, Note_on_c, 0, 57, 49
4, 96480, Note_on_c, 0, 57, 0
4, 96480, Control_c, 0, 64, 127
4, 96480, Note_on_c, 0, 51, 49
4, 96600, Note_on_c, 0, 51, 0
4, 96600, Note_on_c, 0, 58, 49
4, 96720, Note_on_c, 0, 58, 0
4, 96720, Note_on_c, 0, 61, 49
4, 96840, Note_on_c, 0, 61, 0
4, 96840, Note_on_c, 0, 63, 49
4, 96960, Note_on_c, 0, 63, 0
4, 96960, Note_on_c, 0, 61, 49
4, 97080, Note_on_c, 0, 61, 0
4, 97080, Note_on_c, 0, 58, 49
4, 97200, Note_on_c, 0, 58, 0
4, 97200, Note_on_c, 0, 51, 49
4, 97320, Note_on_c, 0, 51, 0
4, 97320, Note_on_c, 0, 53, 49
4, 97440, Note_on_c, 0, 53, 0
4, 97440, Note_on_c, 0, 58, 49
4, 97560, Note_on_c, 0, 58, 0
4, 97560, Note_on_c, 0, 61, 49
4, 97680, Note_on_c, 0, 61, 0
4, 97680, Note_on_c, 0, 58, 49
4, 97800, Note_on_c, 0, 58, 0
4, 97800, Control_c, 0, 64, 0
4, 97800, Note_on_c, 0, 53, 49
4, 97920, Note_on_c, 0, 53, 0
4, 97920, Control_c, 0, 64, 127
4, 97920, Note_on_c, 0, 51, 49
4, 98040, Note_on_c, 0, 51, 0
4, 98040, Note_on_c, 0, 53, 49
4, 98160, Note_on_c, 0, 53, 0
4, 98160, Note_on_c, 0, 58, 49
4, 98280, Note_on_c, 0, 58, 0
4, 98280, Note_on_c, 0, 62, 49
4, 98400, Note_on_c, 0, 62, 0
4, 98400, Note_on_c, 0, 58, 49
4, 98520, Note_on_c, 0, 58, 0
4, 98520, Control_c, 0, 64, 0
4, 98520, Note_on_c, 0, 53, 49
4, 98640, Note_on_c, 0, 53, 0
4, 98640, Control_c, 0, 64, 127
4, 98640, Note_on_c, 0, 51, 49
4, 98760, Note_on_c, 0, 51, 0
4, 98760, Note_on_c, 0, 55, 49
4, 98880, Note_on_c, 0, 55, 0
4, 98880, Note_on_c, 0, 58, 49
4, 99000, Note_on_c, 0, 58, 0
4, 99000, Note_on_c, 0, 63, 49
4, 99120, Note_on_c, 0, 63, 0
4, 99120, Note_on_c, 0, 58, 49
4, 99240, Note_on_c, 0, 58, 0
4, 99240, Control_c, 0, 64, 0
4, 99240, Note_on_c, 0, 55, 49
4, 99360, Note_on_c, 0, 55, 0
4, 99360, Control_c, 0, 64, 127
4, 99360, Note_on_c, 0, 52, 49
4, 99480, Note_on_c, 0, 52, 0
4, 99480, Note_on_c, 0, 55, 49
4, 99600, Note_on_c, 0, 55, 0
4, 99600, Note_on_c, 0, 60, 49
4, 99720, Note_on_c, 0, 60, 0
4, 99720, Note_on_c, 0, 61, 49
4, 99840, Note_on_c, 0, 61, 0
4, 99840, Note_on_c, 0, 60, 49
4, 99960, Note_on_c, 0, 60, 0
4, 99960, Control_c, 0, 64, 0
4, 99960, Note_on_c, 0, 55, 49
4, 100080, Note_on_c, 0, 55, 0
4, 100080, Control_c, 0, 64, 127
4, 100080, Note_on_c, 0, 53, 49
4, 100200, Note_on_c, 0, 53, 0
4, 100200, Note_on_c, 0, 56, 49
4, 100320, Note_on_c, 0, 56, 0
4, 100320, Note_on_c, 0, 60, 49
4, 100440, Note_on_c, 0, 60, 0
4, 100440, Note_on_c, 0, 61, 49
4, 100560, Note_on_c, 0, 61, 0
4, 100560, Note_on_c, 0, 60, 49
4, 100680, Note_on_c, 0, 60, 0
4, 100680, Control_c, 0, 64, 0
4, 100680, Note_on_c, 0, 56, 49
4, 100800, Note_on_c, 0, 56, 0
4, 100800, Control_c, 0, 64, 127
4, 100800, Note_on_c, 0, 49, 49
4, 100920, Note_on_c, 0, 49, 0
4, 100920, Note_on_c, 0, 53, 49
4, 101040, Note_on_c, 0, 53, 0
4, 101040, Note_on_c, 0, 58, 49
4, 101160, Note_on_c, 0, 58, 0
4, 101160, Note_on_c, 0, 61, 49
4, 101280, Note_on_c, 0, 61, 0
4, 101280, Note_on_c, 0, 58, 49
4, 101400, Note_on_c, 0, 58, 0
4, 101400, Control_c, 0, 64, 0
4, 101400, Note_on_c, 0, 56, 49
4, 101520, Note_on_c, 0, 56, 0
4, 101520, Control_c, 0, 64, 127
4, 101520, Note_on_c, 0, 51, 49
4, 101640, Note_on_c, 0, 51, 0
4, 101640, Note_on_c, 0, 55, 49
4, 101760, Note_on_c, 0, 55, 0
4, 101760, Note_on_c, 0, 58, 49
4, 101880, Note_on_c, 0, 58, 0
4, 101880, Note_on_c, 0, 63, 49
4, 102000, Note_on_c, 0, 63, 0
4, 102000, Note_on_c, 0, 61, 49
4, 102120, Note_on_c, 0, 61, 0
4, 102120, Control_c, 0, 64, 0
4, 102120, Note_on_c, 0, 58, 49
4, 102240, Note_on_c, 0, 58, 0
4, 102240, Control_c, 0, 64, 127
4, 102240, Note_on_c, 0, 53, 49
4, 102360, Note_on_c, 0, 53, 0
4, 102360, Note_on_c, 0, 56, 49
4, 102480, Note_on_c, 0, 56, 0
4, 102480, Note_on_c, 0, 60, 49
4, 102600, Note_on_c, 0, 60, 0
4, 102600, Note_on_c, 0, 56, 49
4, 102720, Note_on_c, 0, 56, 0
4, 102720, Note_on_c, 0, 53, 49
4, 102840, Note_on_c, 0, 53, 0
4, 102840, Note_on_c, 0, 51, 49
4, 102960, Note_on_c, 0, 51, 0
4, 102960, Note_on_c, 0, 49, 49
4, 103080, Note_on_c, 0, 49, 0
4, 103080, Note_on_c, 0, 53, 49
4, 103200, Note_on_c, 0, 53, 0
4, 103200, Note_on_c, 0, 58, 49
4, 103320, Note_on_c, 0, 58, 0
4, 103320, Note_on_c, 0, 60, 49
4, 103440, Note_on_c, 0, 60, 0
4, 103440, Note_on_c, 0, 58, 49
4, 103560, Note_on_c, 0, 58, 0
4, 103560, Control_c, 0, 64, 0
4, 103560, Note_on_c, 0, 49, 49
4, 103680, Note_on_c, 0, 49, 0
4, 103680, Control_c, 0, 64, 127
4, 103680, Note_on_c, 0, 51, 49
4, 103800, Note_on_c, 0, 51, 0
4, 103800, Note_on_c, 0, 55, 49
4, 103920, Note_on_c, 0, 55, 0
4, 103920, Note_on_c, 0, 58, 49
4, 104040, Note_on_c, 0, 58, 0
4, 104040, Note_on_c, 0, 55, 49
4, 104160, Note_on_c, 0, 55, 0
4, 104160, Note_on_c, 0, 51, 49
4, 104280, Note_on_c, 0, 51, 0
4, 104280, Note_on_c, 0, 46, 49
4, 104400, Note_on_c, 0, 46, 0
4, 104400, Note_on_c, 0, 48, 49
4, 104520, Note_on_c, 0, 48, 0
4, 104520, Note_on_c, 0, 51, 49
4, 104640, Note_on_c, 0, 51, 0
4, 104640, Note_on_c, 0, 56, 49
4, 104760, Note_on_c, 0, 56, 0
4, 104760, Note_on_c, 0, 58, 49
4, 104880, Note_on_c, 0, 58, 0
4, 104880, Note_on_c, 0, 56, 49
4, 105000, Note_on_c, 0, 56, 0
4, 105000, Control_c, 0, 64, 0
4, 105000, Note_on_c, 0, 48, 49
4, 105120, Note_on_c, 0, 48, 0
4, 105120, Control_c, 0, 64, 127
4, 105120, Note_on_c, 0, 49, 49
4, 105240, Note_on_c, 0, 49, 0
4, 105240, Note_on_c, 0, 53, 49
4, 105360, Note_on_c, 0, 53, 0
4, 105360, Note_on_c, 0, 56, 49
4, 105480, Note_on_c, 0, 56, 0
4, 105480, Note_on_c, 0, 53, 49
4, 105600, Note_on_c, 0, 53, 0
4, 105600, Note_on_c, 0, 49, 49
4, 105720, Note_on_c, 0, 49, 0
4, 105720, Control_c, 0, 64, 0
4, 105720, Note_on_c, 0, 44, 49
4, 105840, Note_on_c, 0, 44, 0
4, 105840, Control_c, 0, 64, 127
4, 105840, Note_on_c, 0, 46, 49
4, 105960, Note_on_c, 0, 46, 0
4, 105960, Note_on_c, 0, 53, 49
4, 106080, Note_on_c, 0, 53, 0
4, 106080, Note_on_c, 0, 56, 49
4, 106200, Note_on_c, 0, 56, 0
4, 106200, Note_on_c, 0, 58, 49
4, 106320, Note_on_c, 0, 58, 0
4, 106320, Note_on_c, 0, 62, 49
4, 106440, Note_on_c, 0, 62, 0
4, 106440, Control_c, 0, 64, 0
4, 106440, Note_on_c, 0, 58, 49
4, 106560, Note_on_c, 0, 58, 0
4, 106560, Control_c, 0, 64, 127
4, 106560, Note_on_c, 0, 51, 49
4, 106680, Note_on_c, 0, 51, 0
4, 106680, Note_on_c, 0, 58, 49
4, 106800, Note_on_c, 0, 58, 0
4, 106800, Note_on_c, 0, 61, 49
4, 106920, Note_on_c, 0, 61, 0
4, 106920, Note_on_c, 0, 63, 49
4, 107040, Note_on_c, 0, 63, 0
4, 107040, Note_on_c, 0, 60, 49
4, 107160, Note_on_c, 0, 60, 0
4, 107160, Note_on_c, 0, 56, 49
4, 107280, Note_on_c, 0, 56, 0
4, 107280, Note_on_c, 0, 51, 49
4, 107400, Note_on_c, 0, 51, 0
4, 107400, Note_on_c, 0, 58, 49
4, 107520, Note_on_c, 0, 58, 0
4, 107520, Note_on_c, 0, 61, 49
4, 107640, Note_on_c, 0, 61, 0
4, 107640, Note_on_c, 0, 63, 49
4, 107760, Note_on_c, 0, 63, 0
4, 107760, Note_on_c, 0, 61, 49
4, 107880, Note_on_c, 0, 61, 0
4, 107880, Control_c, 0, 64, 0
4, 107880, Note_on_c, 0, 58, 49
4, 108000, Note_on_c, 0, 58, 0
4, 108000, Control_c, 0, 64, 127
4, 108000, Note_on_c, 0, 52, 62
4, 108120, Note_on_c, 0, 52, 0
4, 108120, Note_on_c, 0, 56, 62
4, 108240, Note_on_c, 0, 56, 0
4, 108240, Note_on_c, 0, 59, 62
4, 108360, Note_on_c, 0, 59, 0
4, 108360, Note_on_c, 0, 62, 62
4, 108480, Note_on_c, 0, 62, 0
4, 108480, Note_on_c, 0, 59, 62
4, 108600, Note_on_c, 0, 59, 0
4, 108600, Control_c, 0, 64, 0
4, 108600, Note_on_c, 0, 56, 62
4, 108720, Note_on_c, 0, 56, 0
4, 108720, Control_c, 0, 64, 127
4, 108720, Note_on_c, 0, 51, 62
4, 108840, Note_on_c, 0, 51, 0
4, 108840, Note_on_c, 0, 56, 62
4, 108960, Note_on_c, 0, 56, 0
4, 108960, Note_on_c, 0, 59, 62
4, 109080, Note_on_c, 0, 59, 0
4, 109080, Note_on_c, 0, 63, 62
4, 109200, Note_on_c, 0, 63, 0
4, 109200, Note_on_c, 0, 59, 62
4, 109320, Note_on_c, 0, 59, 0
4, 109320, Control_c, 0, 64, 0
4, 109320, Note_on_c, 0, 56, 62
4, 109440, Note_on_c, 0, 56, 0
4, 109440, Control_c, 0, 64, 127
4, 109440, Note_on_c, 0, 49, 75
4, 109560, Note_on_c, 0, 49, 0
4, 109560, Note_on_c, 0, 56, 75
4, 109680, Note_on_c, 0, 56, 0
4, 109680, Note_on_c, 0, 58, 75
4, 109800, Note_on_c, 0, 58, 0
4, 109800, Note_on_c, 0, 64, 75
4, 109920, Note_on_c, 0, 64, 0
4, 109920, Note_on_c, 0, 58, 75
4, 110040, Note_on_c, 0, 58, 0
4, 110040, Note_on_c, 0, 56, 75
4, 110160, Note_on_c, 0, 56, 0
4, 110160, Note_on_c, 0, 51, 75
4, 110280, Note_on_c, 0, 51, 0
4, 110280, Note_on_c, 0, 56, 75
4, 110400, Note_on_c, 0, 56, 0
4, 110400, Note_on_c, 0, 58, 75
4, 110520, Note_on_c, 0, 58, 0
4, 110520, Note_on_c, 0, 63, 75
4, 110640, Note_on_c, 0, 63, 0
4, 110640, Note_on_c, 0, 58, 75
4, 110760, Note_on_c, 0, 58, 0
4, 110760, Control_c, 0, 64, 0
4, 110760, Note_on_c, 0, 56, 75
4, 110880, Note_on_c, 0, 56, 0
4, 110880, Control_c, 0, 64, 127
4, 110880, Note_on_c, 0, 53, 75
4, 111000, Note_on_c, 0, 53, 0
4, 111000, Note_on_c, 0, 56, 75
4, 111120, Note_on_c, 0, 56, 0
4, 111120, Note_on_c, 0, 59, 75
4, 111240, Note_on_c, 0, 59, 0
4, 111240, Note_on_c, 0, 61, 75
4, 111360, Note_on_c, 0, 61, 0
4, 111360, Note_on_c, 0, 59, 75
4, 111480, Note_on_c, 0, 59, 0
4, 111480, Note_on_c, 0, 56, 75
4, 111600, Note_on_c, 0, 56, 0
4, 111600, Note_on_c, 0, 51, 75
4, 111720, Note_on_c, 0, 51, 0
4, 111720, Note_on_c, 0, 56, 75
4, 111840, Note_on_c, 0, 56, 0
4, 111840, Note_on_c, 0, 59, 75
4, 111960, Note_on_c, 0, 59, 0
4, 111960, Note_on_c, 0, 61, 75
4, 112080, Note_on_c, 0, 61, 0
4, 112080, Note_on_c, 0, 59, 75
4, 112200, Note_on_c, 0, 59, 0
4, 112200, Control_c, 0, 64, 0
4, 112200, Note_on_c, 0, 56, 75
4, 112320, Note_on_c, 0, 56, 0
4, 112320, Control_c, 0, 64, 127
4, 112320, Note_on_c, 0, 50, 75
4, 112440, Note_on_c, 0, 50, 0
4, 112440, Note_on_c, 0, 56, 75
4, 112560, Note_on_c, 0, 56, 0
4, 112560, Note_on_c, 0, 58, 75
4, 112680, Note_on_c, 0, 58, 0
4, 112680, Note_on_c, 0, 59, 75
4, 112800, Note_on_c, 0, 59, 0
4, 112800, Note_on_c, 0, 58, 75
4, 112920, Note_on_c, 0, 58, 0
4, 112920, Note_on_c, 0, 56, 75
4, 113040, Note_on_c, 0, 56, 0
4, 113040, Note_on_c, 0, 49, 75
4, 113160, Note_on_c, 0, 49, 0
4, 113160, Note_on_c, 0, 55, 75
4, 113280, Note_on_c, 0, 55, 0
4, 113280, Note_on_c, 0, 58, 75
4, 113400, Note_on_c, 0, 58, 0
4, 113400, Note_on_c, 0, 63, 75
4, 113520, Note_on_c, 0, 63, 0
4, 113520, Note_on_c, 0, 61, 75
4, 113640, Note_on_c, 0, 61, 0
4, 113640, Control_c, 0, 64, 0
4, 113640, Note_on_c, 0, 63, 75
4, 113760, Note_on_c, 0, 63, 0
4, 113760, Control_c, 0, 64, 127
4, 113760, Note_on_c, 0, 60, 49
4, 113880, Note_on_c, 0, 60, 0
4, 113880, Note_on_c, 0, 63, 49
4, 114000, Note_on_c, 0, 63, 0
4, 114000, Note_on_c, 0, 68, 49
4, 114120, Note_on_c, 0, 68, 0
4, 114120, Note_on_c, 0, 60, 49
4, 114240, Note_on_c, 0, 60, 0
4, 114240, Note_on_c, 0, 58, 49
4, 114360, Note_on_c, 0, 58, 0
4, 114360, Note_on_c, 0, 60, 49
4, 114480, Note_on_c, 0, 60, 0
4, 114480, Note_on_c, 0, 56, 49
4, 114600, Note_on_c, 0, 56, 0
4, 114600, Note_on_c, 0, 60, 49
4, 114720, Note_on_c, 0, 60, 0
4, 114720, Note_on_c, 0, 65, 49
4, 114840, Note_on_c, 0, 65, 0
4, 114840, Note_on_c, 0, 56, 49
4, 114960, Note_on_c, 0, 56, 0
4, 114960, Note_on_c, 0, 55, 49
4, 115080, Note_on_c, 0, 55, 0
4, 115080, Note_on_c, 0, 56, 49
4, 115200, Note_on_c, 0, 56, 0
4, 115200, Note_on_c, 0, 53, 49
4, 115320, Note_on_c, 0, 53, 0
4, 115320, Note_on_c, 0, 56, 49
4, 115440, Note_on_c, 0, 56, 0
4, 115440, Note_on_c, 0, 61, 49
4, 115560, Note_on_c, 0, 61, 0
4, 115560, Note_on_c, 0, 53, 49
4, 115680, Note_on_c, 0, 53, 0
4, 115680, Note_on_c, 0, 51, 49
4, 115800, Note_on_c, 0, 51, 0
4, 115800, Note_on_c, 0, 53, 49
4, 115920, Note_on_c, 0, 53, 0
4, 115920, Note_on_c, 0, 49, 49
4, 116040, Note_on_c, 0, 49, 0
4, 116040, Note_on_c, 0, 53, 49
4, 116160, Note_on_c, 0, 53, 0
4, 116160, Note_on_c, 0, 58, 49
4, 116280, Note_on_c, 0, 58, 0
4, 116280, Note_on_c, 0, 61, 49
4, 116400, Note_on_c, 0, 61, 0
4, 116400, Note_on_c, 0, 58, 49
4, 116520, Note_on_c, 0, 58, 0
4, 116520, Control_c, 0, 64, 0
4, 116520, Note_on_c, 0, 61, 49
4, 116640, Note_on_c, 0, 61, 0
4, 116640, Control_c, 0, 64, 127
4, 116640, Note_on_c, 0, 51, 49
4, 116760, Note_on_c, 0, 51, 0
4, 116760, Note_on_c, 0, 58, 49
4, 116880, Note_on_c, 0, 58, 0
4, 116880, Note_on_c, 0, 61, 49
4, 117000, Note_on_c, 0, 61, 0
4, 117000, Note_on_c, 0, 63, 49
4, 117120, Note_on_c, 0, 63, 0
4, 117120, Note_on_c, 0, 61, 49
4, 117240, Note_on_c, 0, 61, 0
4, 117240, Note_on_c, 0, 58, 49
4, 117360, Note_on_c, 0, 58, 0
4, 117360, Note_on_c, 0, 51, 49
4, 117480, Note_on_c, 0, 51, 0
4, 117480, Note_on_c, 0, 58, 49
4, 117600, Note_on_c, 0, 58, 0
4, 117600, Note_on_c, 0, 61, 49
4, 117720, Note_on_c, 0, 61, 0
4, 117720, Note_on_c, 0, 63, 49
4, 117840, Note_on_c, 0, 63, 0
4, 117840, Note_on_c, 0, 61, 49
4, 117960, Note_on_c, 0, 61, 0
4, 117960, Control_c, 0, 64, 0
4, 117960, Note_on_c, 0, 58, 49
4, 118080, Note_on_c, 0, 58, 0
4, 118080, Control_c, 0, 64, 127
4, 118080, Note_on_c, 0, 56, 49
4, 118200, Note_on_c, 0, 56, 0
4, 118200, Note_on_c, 0, 60, 49
4, 118320, Note_on_c, 0, 60, 0
4, 118320, Note_on_c, 0, 63, 49
4, 118440, Note_on_c, 0, 63, 0
4, 118440, Note_on_c, 0, 65, 49
4, 118560, Note_on_c, 0, 65, 0
4, 118560, Note_on_c, 0, 63, 49
4, 118680, Note_on_c, 0, 63, 0
4, 118680, Note_on_c, 0, 60, 49
4, 118800, Note_on_c, 0, 60, 0
4, 118800, Note_on_c, 0, 56, 49
4, 118920, Note_on_c, 0, 56, 0
4, 118920, Note_on_c, 0, 60, 49
4, 119040, Note_on_c, 0, 60, 0
4, 119040, Note_on_c, 0, 56, 49
4, 119160, Note_on_c, 0, 56, 0
4, 119160, Note_on_c, 0, 51, 49
4, 119280, Note_on_c, 0, 51, 0
4, 119280, Note_on_c, 0, 48, 49
4, 119400, Note_on_c, 0, 48, 0
4, 119400, Control_c, 0, 64, 0
4, 119400, Note_on_c, 0, 51, 49
4, 119520, Note_on_c, 0, 51, 0
4, 119520, Control_c, 0, 64, 127
4, 119520, Note_on_c, 0, 44, 62
4, 119640, Note_on_c, 0, 44, 0
4, 119640, Note_on_c, 0, 48, 62
4, 119760, Note_on_c, 0, 48, 0
4, 119760, Note_on_c, 0, 51, 62
4, 119880, Note_on_c, 0, 51, 0
4, 119880, Note_on_c, 0, 53, 62
4, 120000, Note_on_c, 0, 53, 0
4, 120000, Note_on_c, 0, 51, 62
4, 120120, Note_on_c, 0, 51, 0
4, 120120, Note_on_c, 0, 48, 62
4, 120240, Note_on_c, 0, 48, 0
4, 120240, Note_on_c, 0, 44, 62
4, 120360, Note_on_c, 0, 44, 0
4, 120360, Note_on_c, 0, 48, 62
4, 120480, Note_on_c, 0, 48, 0
4, 120480, Note_on_c, 0, 51, 62
4, 120600, Note_on_c, 0, 51, 0
4, 120600, Note_on_c, 0, 53, 62
4, 120720, Note_on_c, 0, 53, 0
4, 120720, Note_on_c, 0, 51, 62
4, 120840, Note_on_c, 0, 51, 0
4, 120840, Control_c, 0, 64, 0
4, 120840, Note_on_c, 0, 48, 62
4, 120960, Note_on_c, 0, 48, 0
4, 120960, Control_c, 0, 64, 127
4, 120960, Note_on_c, 0, 44, 62
4, 121080, Note_on_c, 0, 44, 0
4, 121080, Note_on_c, 0, 49, 62
4, 121200, Note_on_c, 0, 49, 0
4, 121200, Note_on_c, 0, 53, 62
4, 121320, Note_on_c, 0, 53, 0
4, 121320, Note_on_c, 0, 54, 62
4, 121440, Note_on_c, 0, 54, 0
4, 121440, Note_on_c, 0, 53, 62
4, 121560, Note_on_c, 0, 53, 0
4, 121560, Note_on_c, 0, 49, 62
4, 121680, Note_on_c, 0, 49, 0
4, 121680, Note_on_c, 0, 44, 62
4, 121800, Note_on_c, 0, 44, 0
4, 121800, Note_on_c, 0, 49, 62
4, 121920, Note_on_c, 0, 49, 0
4, 121920, Note_on_c, 0, 52, 62
4, 122040, Note_on_c, 0, 52, 0
4, 122040, Note_on_c, 0, 56, 62
4, 122160, Note_on_c, 0, 56, 0
4, 122160, Note_on_c, 0, 52, 62
4, 122280, Note_on_c, 0, 52, 0
4, 122280, Control_c, 0, 64, 0
4, 122280, Note_on_c, 0, 49, 62
4, 122400, Note_on_c, 0, 49, 0
4, 122400, Control_c, 0, 64, 127
4, 122400, Note_on_c, 0, 44, 49
4, 122520, Note_on_c, 0, 44, 0
4, 122520, Note_on_c, 0, 49, 49
4, 122640, Note_on_c, 0, 49, 0
4, 122640, Note_on_c, 0, 51, 49
4, 122760, Note_on_c, 0, 51, 0
4, 122760, Note_on_c, 0, 52, 49
4, 122880, Note_on_c, 0, 52, 0
4, 122880, Note_on_c, 0, 51, 49
4, 123000, Note_on_c, 0, 51, 0
4, 123000, Note_on_c, 0, 49, 49
4, 123120, Note_on_c, 0, 49, 0
4, 123120, Note_on_c, 0, 44, 49
4, 123240, Note_on_c, 0, 44, 0
4, 123240, Note_on_c, 0, 49, 49
4, 123360, Note_on_c, 0, 49, 0
4, 123360, Note_on_c, 0, 51, 49
4, 123480, Note_on_c, 0, 51, 0
4, 123480, Note_on_c, 0, 52, 49
4, 123600, Note_on_c, 0, 52, 0
4, 123600, Note_on_c, 0, 51, 49
4, 123720, Note_on_c, 0, 51, 0
4, 123720, Control_c, 0, 64, 0
4, 123720, Note_on_c, 0, 49, 49
4, 123840, Note_on_c, 0, 49, 0
4, 123840, Control_c, 0, 64, 127
4, 123840, Note_on_c, 0, 44, 49
4, 123960, Note_on_c, 0, 44, 0
4, 123960, Note_on_c, 0, 48, 49
4, 124080, Note_on_c, 0, 48, 0
4, 124080, Note_on_c, 0, 51, 49
4, 124200, Note_on_c, 0, 51, 0
4, 124200, Note_on_c, 0, 53, 49
4, 124320, Note_on_c, 0, 53, 0
4, 124320, Note_on_c, 0, 51, 49
4, 124440, Note_on_c, 0, 51, 0
4, 124440, Note_on_c, 0, 48, 49
4, 124560, Note_on_c, 0, 48, 0
4, 124560, Note_on_c, 0, 44, 49
4, 124680, Note_on_c, 0, 44, 0
4, 124680, Note_on_c, 0, 48, 49
4, 124800, Note_on_c, 0, 48, 0
4, 124800, Note_on_c, 0, 44, 49
4, 124920, Note_on_c, 0, 44, 0
4, 124920, Note_on_c, 0, 39, 49
4, 125040, Note_on_c, 0, 39, 0
4, 125040, Note_on_c, 0, 36, 49
4, 125160, Note_on_c, 0, 36, 0
4, 125160, Note_on_c, 0, 39, 49
4, 125280, Note_on_c, 0, 39, 0
4, 125280, Note_on_c, 0, 32, 49
4, 127200, Note_on_c, 0, 32, 0
4, 127200, Control_c, 0, 64, 0
4, 127200, End_track
5, 0, Start_track
5, 0, Title_t, "Grand Piano"
5, 0, Program_c, 0, 0
5, 0, Control_c, 0, 7, 115
5, 0, Control_c, 0, 10, 48
5, 125280, Control_c, 0, 64, 127
5, 129120, Control_c, 0, 64, 0
5, 129120, End_track
0, 0, End_of_file
