0, 0, Header, 1, 5, 480
1, 0, Start_track
1, 0, Title_t, "mendelssohn sechs praeludien und fugen op35 no5a praeludium"
1, 0, Copyright_t, "sequenced by Segundo G. Yogore,  2007,  dody@pldtdsl.net"
1, 0, Time_signature, 2, 2, 24, 8
1, 0, Key_signature, -4, "major"
1, 0, Tempo, 1200000
1, 6720, Tempo, 1333333
1, 7680, Tempo, 1200000
1, 11040, Tempo, 1333333
1, 11520, Tempo, 1200000
1, 18720, Tempo, 1333333
1, 19200, Tempo, 1200000
1, 21600, Tempo, 1333333
1, 22080, Tempo, 1200000
1, 26400, Tempo, 1333333
1, 26880, Tempo, 1200000
1, 29760, Tempo, 1333333
1, 30240, Tempo, 1200000
1, 40800, Tempo, 1333333
1, 41280, Tempo, 1200000
1, 48480, Tempo, 1333333
1, 48960, Tempo, 1200000
1, 55200, Tempo, 1333333
1, 56160, Tempo, 1200000
1, 67440, Tempo, 1276596
1, 67680, Tempo, 1363636
1, 67920, Tempo, 1463415
1, 68160, Tempo, 1621622
1, 68400, Tempo, 1764706
1, 68640, Tempo, 1935484
1, 68880, Tempo, 2142857
1, 69120, Time_signature, 6, 2, 24, 8
1, 69120, End_track
2, 0, Start_track
2, 0, Title_t, "Grand Piano"
2, 0, Program_c, 0, 0
2, 0, Control_c, 0, 7, 115
2, 0, Control_c, 0, 10, 86
2, 0, Control_c, 0, 64, 127
2, 0, Note_on_c, 0, 72, 67
2, 240, Note_on_c, 0, 72, 0
2, 240, Note_on_c, 0, 70, 67
2, 480, Note_on_c, 0, 70, 0
2, 480, Note_on_c, 0, 68, 67
2, 720, Note_on_c, 0, 68, 0
2, 720, Note_on_c, 0, 67, 67
2, 960, Note_on_c, 0, 67, 0
2, 960, Note_on_c, 0, 65, 67
2, 1200, Note_on_c, 0, 65, 0
2, 1200, Note_on_c, 0, 69, 67
2, 1440, Note_on_c, 0, 69, 0
2, 1440, Note_on_c, 0, 72, 80
2, 1680, Note_on_c, 0, 72, 0
2, 1680, Control_c, 0, 64, 0
2, 1680, Note_on_c, 0, 77, 80
2, 1920, Note_on_c, 0, 77, 0
2, 1920, Note_on_c, 0, 73, 80
2, 1920, Note_on_c, 0, 77, 80
2, 2280, Note_on_c, 0, 77, 0
2, 2280, Note_on_c, 0, 73, 0
2, 2280, Note_on_c, 0, 73, 80
2, 2280, Note_on_c, 0, 77, 80
2, 2400, Note_on_c, 0, 77, 0
2, 2400, Note_on_c, 0, 73, 0
2, 2400, Note_on_c, 0, 75, 67
2, 2640, Note_on_c, 0, 75, 0
2, 2640, Note_on_c, 0, 73, 67
2, 2880, Note_on_c, 0, 73, 0
2, 2880, Note_on_c, 0, 73, 93
2, 3360, Note_on_c, 0, 73, 0
2, 3360, Note_on_c, 0, 72, 67
2, 3600, Note_on_c, 0, 72, 0
2, 3840, Control_c, 0, 64, 127
2, 3840, Note_on_c, 0, 72, 67
2, 4080, Note_on_c, 0, 72, 0
2, 4080, Note_on_c, 0, 70, 67
2, 4320, Note_on_c, 0, 70, 0
2, 4320, Note_on_c, 0, 68, 67
2, 4560, Note_on_c, 0, 68, 0
2, 4560, Note_on_c, 0, 67, 67
2, 4800, Note_on_c, 0, 67, 0
2, 4800, Note_on_c, 0, 70, 67
2, 5040, Note_on_c, 0, 70, 0
2, 5040, Note_on_c, 0, 68, 67
2, 5280, Note_on_c, 0, 68, 0
2, 5280, Note_on_c, 0, 67, 67
2, 5520, Note_on_c, 0, 67, 0
2, 5520, Control_c, 0, 64, 0
2, 5520, Note_on_c, 0, 65, 67
2, 5760, Note_on_c, 0, 65, 0
2, 5760, Control_c, 0, 64, 127
2, 5760, Note_on_c, 0, 60, 67
2, 5760, Note_on_c, 0, 64, 67
2, 6000, Note_on_c, 0, 64, 0
2, 6000, Note_on_c, 0, 60, 0
2, 6000, Note_on_c, 0, 62, 67
2, 6000, Note_on_c, 0, 65, 67
2, 6240, Note_on_c, 0, 65, 0
2, 6240, Note_on_c, 0, 62, 0
2, 6240, Note_on_c, 0, 64, 80
2, 6240, Note_on_c, 0, 67, 80
2, 6480, Note_on_c, 0, 67, 0
2, 6480, Note_on_c, 0, 64, 0
2, 6480, Note_on_c, 0, 65, 80
2, 6480, Note_on_c, 0, 68, 80
2, 6720, Note_on_c, 0, 68, 0
2, 6720, Note_on_c, 0, 65, 0
2, 6720, Note_on_c, 0, 67, 80
2, 6960, Note_on_c, 0, 67, 0
2, 6960, Note_on_c, 0, 71, 93
2, 7200, Note_on_c, 0, 71, 0
2, 7200, Note_on_c, 0, 72, 93
2, 7440, Note_on_c, 0, 72, 0
2, 7440, Control_c, 0, 64, 0
2, 7440, Note_on_c, 0, 72, 93
2, 7680, Note_on_c, 0, 72, 0
2, 7680, Control_c, 0, 64, 127
2, 7680, Note_on_c, 0, 72, 67
2, 7920, Note_on_c, 0, 72, 0
2, 7920, Note_on_c, 0, 70, 67
2, 8160, Note_on_c, 0, 70, 0
2, 8160, Note_on_c, 0, 68, 67
2, 8400, Note_on_c, 0, 68, 0
2, 8400, Note_on_c, 0, 67, 67
2, 8640, Note_on_c, 0, 67, 0
2, 8640, Note_on_c, 0, 65, 67
2, 8880, Note_on_c, 0, 65, 0
2, 8880, Note_on_c, 0, 69, 67
2, 9120, Note_on_c, 0, 69, 0
2, 9120, Note_on_c, 0, 72, 80
2, 9360, Note_on_c, 0, 72, 0
2, 9360, Control_c, 0, 64, 0
2, 9360, Note_on_c, 0, 77, 93
2, 9600, Note_on_c, 0, 77, 0
2, 9600, Note_on_c, 0, 77, 119
2, 9960, Note_on_c, 0, 77, 0
2, 9960, Note_on_c, 0, 77, 80
2, 10080, Note_on_c, 0, 77, 0
2, 10080, Note_on_c, 0, 75, 67
2, 10320, Note_on_c, 0, 75, 0
2, 10320, Note_on_c, 0, 73, 67
2, 10560, Note_on_c, 0, 73, 0
2, 10560, Note_on_c, 0, 73, 93
2, 11520, Note_on_c, 0, 73, 0
2, 11520, Control_c, 0, 64, 127
2, 11520, Note_on_c, 0, 72, 67
2, 11760, Note_on_c, 0, 72, 0
2, 11760, Note_on_c, 0, 75, 67
2, 12000, Note_on_c, 0, 75, 0
2, 12000, Note_on_c, 0, 73, 67
2, 12240, Note_on_c, 0, 73, 0
2, 12240, Note_on_c, 0, 72, 67
2, 12480, Note_on_c, 0, 72, 0
2, 12480, Note_on_c, 0, 70, 67
2, 12720, Note_on_c, 0, 70, 0
2, 12720, Note_on_c, 0, 73, 67
2, 12960, Note_on_c, 0, 73, 0
2, 12960, Note_on_c, 0, 71, 67
2, 13200, Note_on_c, 0, 71, 0
2, 13200, Control_c, 0, 64, 0
2, 13200, Note_on_c, 0, 68, 67
2, 13440, Note_on_c, 0, 68, 0
2, 13440, Note_on_c, 0, 68, 67
2, 13920, Note_on_c, 0, 68, 0
2, 13920, Note_on_c, 0, 67, 67
2, 14400, Note_on_c, 0, 67, 0
2, 14400, Note_on_c, 0, 75, 119
2, 15360, Note_on_c, 0, 75, 0
2, 15360, Control_c, 0, 64, 127
2, 15360, Note_on_c, 0, 75, 93
2, 15600, Note_on_c, 0, 75, 0
2, 15600, Note_on_c, 0, 78, 93
2, 15840, Note_on_c, 0, 78, 0
2, 15840, Note_on_c, 0, 77, 93
2, 16080, Note_on_c, 0, 77, 0
2, 16080, Control_c, 0, 64, 0
2, 16080, Note_on_c, 0, 75, 93
2, 16320, Note_on_c, 0, 75, 0
2, 16320, Note_on_c, 0, 74, 93
2, 16800, Note_on_c, 0, 74, 0
2, 16800, Note_on_c, 0, 73, 93
2, 17280, Note_on_c, 0, 73, 0
2, 17280, Control_c, 0, 64, 127
2, 17280, Note_on_c, 0, 79, 119
2, 17520, Note_on_c, 0, 79, 0
2, 17520, Note_on_c, 0, 76, 93
2, 17760, Note_on_c, 0, 76, 0
2, 17760, Note_on_c, 0, 75, 93
2, 18000, Note_on_c, 0, 75, 0
2, 18000, Control_c, 0, 64, 0
2, 18000, Note_on_c, 0, 73, 93
2, 18240, Note_on_c, 0, 73, 0
2, 18240, Note_on_c, 0, 72, 80
2, 18720, Note_on_c, 0, 72, 0
2, 18720, Note_on_c, 0, 71, 67
2, 19200, Note_on_c, 0, 71, 0
2, 19200, Control_c, 0, 64, 127
2, 19200, Note_on_c, 0, 75, 67
2, 19440, Note_on_c, 0, 75, 0
2, 19440, Note_on_c, 0, 71, 67
2, 19680, Note_on_c, 0, 71, 0
2, 19680, Note_on_c, 0, 70, 67
2, 19920, Note_on_c, 0, 70, 0
2, 19920, Control_c, 0, 64, 0
2, 19920, Note_on_c, 0, 68, 67
2, 20160, Note_on_c, 0, 68, 0
2, 20160, Control_c, 0, 64, 127
2, 20160, Note_on_c, 0, 75, 93
2, 20400, Note_on_c, 0, 75, 0
2, 20400, Note_on_c, 0, 71, 67
2, 20640, Note_on_c, 0, 71, 0
2, 20640, Note_on_c, 0, 70, 67
2, 20880, Note_on_c, 0, 70, 0
2, 20880, Control_c, 0, 64, 0
2, 20880, Note_on_c, 0, 68, 67
2, 21120, Note_on_c, 0, 68, 0
2, 21120, Note_on_c, 0, 68, 67
2, 21360, Note_on_c, 0, 68, 0
2, 21360, Note_on_c, 0, 70, 67
2, 21600, Note_on_c, 0, 70, 0
2, 21600, Note_on_c, 0, 67, 67
2, 21960, Note_on_c, 0, 67, 0
2, 21960, Note_on_c, 0, 68, 67
2, 22080, Note_on_c, 0, 68, 0
2, 22080, Note_on_c, 0, 68, 67
2, 23040, Note_on_c, 0, 63, 54
2, 23160, Note_on_c, 0, 63, 0
2, 23160, Note_on_c, 0, 68, 0
2, 23160, Note_on_c, 0, 63, 54
2, 23160, Note_on_c, 0, 68, 54
2, 23280, Note_on_c, 0, 68, 0
2, 23280, Note_on_c, 0, 63, 0
2, 23280, Note_on_c, 0, 63, 54
2, 23280, Note_on_c, 0, 68, 54
2, 23400, Note_on_c, 0, 68, 0
2, 23400, Note_on_c, 0, 63, 0
2, 23400, Note_on_c, 0, 63, 54
2, 23400, Note_on_c, 0, 68, 54
2, 23520, Note_on_c, 0, 68, 0
2, 23520, Note_on_c, 0, 63, 0
2, 23520, Note_on_c, 0, 60, 54
2, 23520, Note_on_c, 0, 63, 54
2, 23520, Note_on_c, 0, 68, 54
2, 23640, Note_on_c, 0, 68, 0
2, 23640, Note_on_c, 0, 63, 0
2, 23640, Note_on_c, 0, 60, 0
2, 23640, Note_on_c, 0, 60, 54
2, 23640, Note_on_c, 0, 63, 54
2, 23640, Note_on_c, 0, 68, 54
2, 23760, Note_on_c, 0, 68, 0
2, 23760, Note_on_c, 0, 63, 0
2, 23760, Note_on_c, 0, 60, 0
2, 23760, Note_on_c, 0, 60, 54
2, 23760, Note_on_c, 0, 63, 54
2, 23760, Note_on_c, 0, 68, 54
2, 23880, Note_on_c, 0, 68, 0
2, 23880, Note_on_c, 0, 63, 0
2, 23880, Note_on_c, 0, 60, 0
2, 23880, Note_on_c, 0, 60, 54
2, 23880, Note_on_c, 0, 63, 54
2, 23880, Note_on_c, 0, 68, 54
2, 24000, Note_on_c, 0, 68, 0
2, 24000, Note_on_c, 0, 63, 0
2, 24000, Note_on_c, 0, 60, 0
2, 24000, Note_on_c, 0, 60, 54
2, 24000, Note_on_c, 0, 63, 54
2, 24000, Note_on_c, 0, 72, 54
2, 24120, Note_on_c, 0, 72, 0
2, 24120, Note_on_c, 0, 63, 0
2, 24120, Note_on_c, 0, 60, 0
2, 24120, Note_on_c, 0, 60, 54
2, 24120, Note_on_c, 0, 63, 54
2, 24120, Note_on_c, 0, 72, 54
2, 24240, Note_on_c, 0, 72, 0
2, 24240, Note_on_c, 0, 63, 0
2, 24240, Note_on_c, 0, 60, 0
2, 24240, Note_on_c, 0, 60, 54
2, 24240, Note_on_c, 0, 63, 54
2, 24240, Note_on_c, 0, 72, 54
2, 24360, Note_on_c, 0, 72, 0
2, 24360, Note_on_c, 0, 63, 0
2, 24360, Note_on_c, 0, 60, 0
2, 24360, Note_on_c, 0, 60, 54
2, 24360, Note_on_c, 0, 63, 54
2, 24360, Note_on_c, 0, 72, 54
2, 24480, Note_on_c, 0, 72, 0
2, 24480, Note_on_c, 0, 63, 0
2, 24480, Note_on_c, 0, 60, 0
2, 24480, Note_on_c, 0, 63, 54
2, 24480, Note_on_c, 0, 72, 54
2, 24600, Note_on_c, 0, 72, 0
2, 24600, Note_on_c, 0, 63, 0
2, 24600, Note_on_c, 0, 63, 54
2, 24600, Note_on_c, 0, 72, 54
2, 24720, Note_on_c, 0, 72, 0
2, 24720, Note_on_c, 0, 63, 0
2, 24720, Note_on_c, 0, 65, 54
2, 24720, Note_on_c, 0, 72, 54
2, 24840, Note_on_c, 0, 72, 0
2, 24840, Note_on_c, 0, 65, 0
2, 24840, Note_on_c, 0, 65, 54
2, 24840, Note_on_c, 0, 72, 54
2, 24960, Note_on_c, 0, 72, 0
2, 24960, Note_on_c, 0, 65, 0
2, 24960, Note_on_c, 0, 75, 93
2, 25320, Note_on_c, 0, 75, 0
2, 25320, Note_on_c, 0, 75, 93
2, 25440, Note_on_c, 0, 75, 0
2, 25440, Note_on_c, 0, 73, 93
2, 25680, Note_on_c, 0, 73, 0
2, 25680, Note_on_c, 0, 72, 93
2, 25920, Note_on_c, 0, 72, 0
2, 25920, Note_on_c, 0, 72, 93
2, 26400, Note_on_c, 0, 72, 0
2, 26400, Note_on_c, 0, 70, 80
2, 26880, Note_on_c, 0, 70, 0
2, 26880, Note_on_c, 0, 70, 54
2, 27000, Note_on_c, 0, 70, 0
2, 27000, Note_on_c, 0, 70, 54
2, 27120, Note_on_c, 0, 70, 0
2, 27120, Note_on_c, 0, 68, 54
2, 27240, Note_on_c, 0, 68, 0
2, 27240, Note_on_c, 0, 68, 54
2, 27360, Note_on_c, 0, 68, 0
2, 27360, Note_on_c, 0, 68, 54
2, 27480, Note_on_c, 0, 68, 0
2, 27480, Note_on_c, 0, 68, 54
2, 27600, Note_on_c, 0, 68, 0
2, 27600, Note_on_c, 0, 65, 54
2, 27600, Note_on_c, 0, 68, 54
2, 27720, Note_on_c, 0, 68, 0
2, 27720, Note_on_c, 0, 65, 0
2, 27720, Note_on_c, 0, 65, 54
2, 27720, Note_on_c, 0, 68, 54
2, 27840, Note_on_c, 0, 68, 0
2, 27840, Note_on_c, 0, 65, 0
2, 27840, Note_on_c, 0, 65, 54
2, 27840, Note_on_c, 0, 68, 54
2, 27960, Note_on_c, 0, 68, 0
2, 27960, Note_on_c, 0, 65, 0
2, 27960, Note_on_c, 0, 65, 54
2, 27960, Note_on_c, 0, 68, 54
2, 28080, Note_on_c, 0, 68, 0
2, 28080, Note_on_c, 0, 65, 0
2, 28080, Note_on_c, 0, 65, 54
2, 28080, Note_on_c, 0, 68, 54
2, 28200, Note_on_c, 0, 68, 0
2, 28200, Note_on_c, 0, 65, 0
2, 28200, Note_on_c, 0, 65, 54
2, 28200, Note_on_c, 0, 68, 54
2, 28320, Note_on_c, 0, 68, 0
2, 28320, Note_on_c, 0, 65, 0
2, 28320, Note_on_c, 0, 68, 54
2, 28320, Note_on_c, 0, 71, 54
2, 28440, Note_on_c, 0, 71, 0
2, 28440, Note_on_c, 0, 68, 0
2, 28440, Note_on_c, 0, 68, 54
2, 28440, Note_on_c, 0, 71, 54
2, 28560, Note_on_c, 0, 71, 0
2, 28560, Note_on_c, 0, 68, 0
2, 28560, Note_on_c, 0, 74, 54
2, 28680, Note_on_c, 0, 74, 0
2, 28680, Note_on_c, 0, 74, 54
2, 28800, Note_on_c, 0, 74, 0
2, 28800, Note_on_c, 0, 77, 93
2, 29160, Note_on_c, 0, 77, 0
2, 29160, Note_on_c, 0, 77, 93
2, 29280, Note_on_c, 0, 77, 0
2, 29280, Note_on_c, 0, 75, 93
2, 29520, Note_on_c, 0, 75, 0
2, 29520, Note_on_c, 0, 74, 93
2, 29760, Note_on_c, 0, 74, 0
2, 29760, Note_on_c, 0, 74, 80
2, 30000, Note_on_c, 0, 74, 0
2, 30000, Note_on_c, 0, 72, 67
2, 30240, Note_on_c, 0, 72, 0
2, 30240, Note_on_c, 0, 72, 67
2, 30240, Note_on_c, 0, 75, 67
2, 30240, Note_on_c, 0, 79, 67
2, 30480, Note_on_c, 0, 79, 0
2, 30480, Note_on_c, 0, 75, 0
2, 30480, Note_on_c, 0, 72, 0
2, 30480, Note_on_c, 0, 67, 67
2, 30480, Note_on_c, 0, 72, 67
2, 30480, Note_on_c, 0, 75, 67
2, 30720, Note_on_c, 0, 75, 0
2, 30720, Note_on_c, 0, 72, 0
2, 30720, Note_on_c, 0, 67, 0
2, 30720, Note_on_c, 0, 71, 67
2, 30720, Note_on_c, 0, 74, 67
2, 30960, Note_on_c, 0, 74, 0
2, 30960, Note_on_c, 0, 71, 0
2, 30960, Note_on_c, 0, 72, 67
2, 31200, Note_on_c, 0, 72, 0
2, 31200, Note_on_c, 0, 75, 67
2, 31440, Note_on_c, 0, 75, 0
2, 31440, Note_on_c, 0, 72, 80
2, 31680, Note_on_c, 0, 72, 0
2, 31680, Note_on_c, 0, 61, 80
2, 31680, Note_on_c, 0, 64, 80
2, 31680, Note_on_c, 0, 67, 80
2, 31680, Note_on_c, 0, 70, 80
2, 31920, Note_on_c, 0, 70, 0
2, 31920, Note_on_c, 0, 61, 0
2, 31920, Note_on_c, 0, 64, 0
2, 31920, Note_on_c, 0, 67, 0
2, 31920, Note_on_c, 0, 63, 67
2, 31920, Note_on_c, 0, 68, 67
2, 32160, Note_on_c, 0, 68, 0
2, 32160, Note_on_c, 0, 63, 0
2, 32160, Note_on_c, 0, 72, 67
2, 32160, Note_on_c, 0, 75, 67
2, 32160, Note_on_c, 0, 79, 67
2, 32400, Note_on_c, 0, 79, 0
2, 32400, Note_on_c, 0, 75, 0
2, 32400, Note_on_c, 0, 72, 0
2, 32400, Note_on_c, 0, 67, 67
2, 32400, Note_on_c, 0, 72, 67
2, 32400, Note_on_c, 0, 75, 67
2, 32640, Note_on_c, 0, 75, 0
2, 32640, Note_on_c, 0, 72, 0
2, 32640, Note_on_c, 0, 67, 0
2, 32640, Note_on_c, 0, 71, 67
2, 32640, Note_on_c, 0, 74, 67
2, 32880, Note_on_c, 0, 74, 0
2, 32880, Note_on_c, 0, 71, 0
2, 32880, Note_on_c, 0, 68, 67
2, 32880, Note_on_c, 0, 72, 67
2, 33120, Note_on_c, 0, 72, 0
2, 33120, Note_on_c, 0, 68, 0
2, 33120, Note_on_c, 0, 72, 80
2, 33120, Note_on_c, 0, 75, 80
2, 33360, Note_on_c, 0, 75, 0
2, 33360, Note_on_c, 0, 72, 0
2, 33360, Note_on_c, 0, 72, 80
2, 33600, Note_on_c, 0, 72, 0
2, 33600, Note_on_c, 0, 61, 80
2, 33600, Note_on_c, 0, 64, 80
2, 33600, Note_on_c, 0, 67, 80
2, 33600, Note_on_c, 0, 70, 80
2, 33840, Note_on_c, 0, 70, 0
2, 33840, Note_on_c, 0, 61, 0
2, 33840, Note_on_c, 0, 64, 0
2, 33840, Note_on_c, 0, 67, 0
2, 33840, Note_on_c, 0, 63, 67
2, 33840, Note_on_c, 0, 68, 67
2, 34080, Note_on_c, 0, 68, 0
2, 34080, Note_on_c, 0, 63, 0
2, 34080, Note_on_c, 0, 72, 67
2, 34320, Note_on_c, 0, 72, 0
2, 34320, Note_on_c, 0, 63, 67
2, 34320, Note_on_c, 0, 68, 67
2, 34560, Note_on_c, 0, 68, 0
2, 34560, Note_on_c, 0, 63, 0
2, 34560, Control_c, 0, 64, 127
2, 34560, Note_on_c, 0, 67, 80
2, 34800, Note_on_c, 0, 67, 0
2, 34800, Note_on_c, 0, 66, 80
2, 35040, Note_on_c, 0, 66, 0
2, 35040, Note_on_c, 0, 72, 80
2, 35280, Note_on_c, 0, 72, 0
2, 35280, Note_on_c, 0, 66, 80
2, 35520, Note_on_c, 0, 66, 0
2, 35520, Control_c, 0, 64, 0
2, 35520, Note_on_c, 0, 67, 106
2, 35760, Note_on_c, 0, 67, 0
2, 35760, Note_on_c, 0, 68, 106
2, 36000, Note_on_c, 0, 68, 0
2, 36000, Note_on_c, 0, 69, 106
2, 36240, Note_on_c, 0, 69, 0
2, 36240, Note_on_c, 0, 71, 106
2, 36480, Note_on_c, 0, 71, 0
2, 36480, Control_c, 0, 64, 127
2, 36480, Note_on_c, 0, 72, 80
2, 36720, Note_on_c, 0, 72, 0
2, 36720, Note_on_c, 0, 75, 80
2, 36840, Note_on_c, 0, 75, 0
2, 36840, Note_on_c, 0, 74, 80
2, 36960, Note_on_c, 0, 74, 0
2, 36960, Note_on_c, 0, 72, 80
2, 37200, Note_on_c, 0, 72, 0
2, 37200, Control_c, 0, 64, 0
2, 37200, Note_on_c, 0, 71, 80
2, 37440, Note_on_c, 0, 71, 0
2, 37440, Note_on_c, 0, 67, 106
2, 37440, Note_on_c, 0, 79, 106
2, 37680, Note_on_c, 0, 67, 0
2, 37680, Note_on_c, 0, 68, 106
2, 37920, Note_on_c, 0, 68, 0
2, 37920, Note_on_c, 0, 79, 0
2, 37920, Note_on_c, 0, 69, 106
2, 37920, Note_on_c, 0, 78, 106
2, 38160, Note_on_c, 0, 78, 0
2, 38160, Note_on_c, 0, 69, 0
2, 38160, Note_on_c, 0, 71, 106
2, 38160, Note_on_c, 0, 77, 106
2, 38400, Note_on_c, 0, 77, 0
2, 38400, Note_on_c, 0, 71, 0
2, 38400, Note_on_c, 0, 72, 106
2, 38400, Note_on_c, 0, 76, 106
2, 38640, Note_on_c, 0, 76, 0
2, 38640, Note_on_c, 0, 72, 0
2, 38640, Note_on_c, 0, 72, 106
2, 38640, Note_on_c, 0, 75, 106
2, 38880, Note_on_c, 0, 75, 0
2, 38880, Note_on_c, 0, 72, 0
2, 38880, Note_on_c, 0, 71, 106
2, 39120, Note_on_c, 0, 71, 0
2, 39120, Note_on_c, 0, 72, 106
2, 39360, Note_on_c, 0, 72, 0
2, 39360, Note_on_c, 0, 79, 119
2, 39840, Note_on_c, 0, 79, 0
2, 39840, Note_on_c, 0, 77, 93
2, 39960, Note_on_c, 0, 77, 0
2, 39960, Note_on_c, 0, 75, 93
2, 40080, Note_on_c, 0, 75, 0
2, 40080, Note_on_c, 0, 74, 93
2, 40200, Note_on_c, 0, 74, 0
2, 40200, Note_on_c, 0, 72, 93
2, 40320, Note_on_c, 0, 72, 0
2, 40320, Note_on_c, 0, 77, 119
2, 41040, Note_on_c, 0, 77, 0
2, 41040, Note_on_c, 0, 71, 80
2, 41160, Note_on_c, 0, 71, 0
2, 41160, Note_on_c, 0, 72, 80
2, 41280, Note_on_c, 0, 72, 0
2, 41280, Note_on_c, 0, 72, 67
2, 41760, Note_on_c, 0, 72, 0
2, 42000, Note_on_c, 0, 70, 67
2, 42000, Note_on_c, 0, 72, 67
2, 42120, Note_on_c, 0, 72, 0
2, 42120, Note_on_c, 0, 70, 0
2, 42120, Note_on_c, 0, 70, 67
2, 42120, Note_on_c, 0, 72, 67
2, 42240, Note_on_c, 0, 72, 0
2, 42240, Note_on_c, 0, 70, 0
2, 42240, Note_on_c, 0, 72, 80
2, 42840, Note_on_c, 0, 72, 0
2, 42840, Note_on_c, 0, 75, 80
2, 42960, Note_on_c, 0, 75, 0
2, 42960, Note_on_c, 0, 73, 80
2, 42983, Note_on_c, 0, 73, 0
2, 43080, Note_on_c, 0, 72, 80
2, 43103, Note_on_c, 0, 72, 0
2, 43200, Note_on_c, 0, 72, 80
2, 43440, Note_on_c, 0, 72, 0
2, 43440, Note_on_c, 0, 70, 80
2, 43680, Note_on_c, 0, 70, 0
2, 43680, Note_on_c, 0, 70, 80
2, 43727, Note_on_c, 0, 70, 0
2, 43920, Note_on_c, 0, 70, 93
2, 43967, Note_on_c, 0, 70, 0
2, 44160, Note_on_c, 0, 77, 93
2, 44640, Note_on_c, 0, 77, 0
2, 44640, Note_on_c, 0, 76, 80
2, 45120, Note_on_c, 0, 76, 0
2, 45120, Control_c, 0, 64, 127
2, 45120, Note_on_c, 0, 72, 67
2, 45360, Note_on_c, 0, 72, 0
2, 45360, Note_on_c, 0, 70, 67
2, 45600, Note_on_c, 0, 70, 0
2, 45600, Note_on_c, 0, 68, 67
2, 45840, Note_on_c, 0, 68, 0
2, 45840, Control_c, 0, 64, 0
2, 45840, Note_on_c, 0, 67, 67
2, 46080, Note_on_c, 0, 67, 0
2, 46080, Control_c, 0, 64, 127
2, 46080, Note_on_c, 0, 65, 67
2, 46080, Note_on_c, 0, 70, 67
2, 46320, Note_on_c, 0, 70, 0
2, 46320, Note_on_c, 0, 65, 0
2, 46320, Note_on_c, 0, 65, 67
2, 46320, Note_on_c, 0, 68, 67
2, 46560, Note_on_c, 0, 68, 0
2, 46560, Note_on_c, 0, 65, 0
2, 46560, Note_on_c, 0, 64, 67
2, 46560, Note_on_c, 0, 67, 67
2, 46800, Note_on_c, 0, 67, 0
2, 46800, Note_on_c, 0, 64, 0
2, 46800, Control_c, 0, 64, 0
2, 46800, Note_on_c, 0, 65, 67
2, 47040, Note_on_c, 0, 65, 0
2, 47040, Note_on_c, 0, 60, 67
2, 47040, Note_on_c, 0, 64, 67
2, 47280, Note_on_c, 0, 64, 0
2, 47280, Note_on_c, 0, 60, 0
2, 47280, Note_on_c, 0, 62, 67
2, 47280, Note_on_c, 0, 65, 67
2, 47520, Note_on_c, 0, 65, 0
2, 47520, Note_on_c, 0, 62, 0
2, 47520, Note_on_c, 0, 64, 93
2, 47520, Note_on_c, 0, 67, 93
2, 47760, Note_on_c, 0, 67, 0
2, 47760, Note_on_c, 0, 64, 0
2, 47760, Note_on_c, 0, 65, 93
2, 47760, Note_on_c, 0, 68, 93
2, 48000, Note_on_c, 0, 68, 0
2, 48000, Note_on_c, 0, 65, 0
2, 48000, Note_on_c, 0, 67, 93
2, 48240, Note_on_c, 0, 67, 0
2, 48240, Note_on_c, 0, 71, 93
2, 48480, Note_on_c, 0, 71, 0
2, 48480, Note_on_c, 0, 72, 93
2, 48720, Note_on_c, 0, 72, 0
2, 48720, Note_on_c, 0, 72, 93
2, 48960, Note_on_c, 0, 72, 0
2, 48960, Note_on_c, 0, 75, 93
2, 49320, Note_on_c, 0, 75, 0
2, 49320, Note_on_c, 0, 75, 93
2, 49440, Note_on_c, 0, 75, 0
2, 49440, Note_on_c, 0, 73, 80
2, 49680, Note_on_c, 0, 73, 0
2, 49680, Note_on_c, 0, 72, 80
2, 49920, Note_on_c, 0, 72, 0
2, 49920, Note_on_c, 0, 72, 80
2, 50160, Note_on_c, 0, 72, 0
2, 50160, Note_on_c, 0, 70, 80
2, 50400, Note_on_c, 0, 70, 0
2, 50400, Note_on_c, 0, 70, 80
2, 50640, Note_on_c, 0, 70, 0
2, 50880, Note_on_c, 0, 75, 93
2, 51240, Note_on_c, 0, 75, 0
2, 51240, Note_on_c, 0, 75, 93
2, 51360, Note_on_c, 0, 75, 0
2, 51360, Note_on_c, 0, 73, 80
2, 51600, Note_on_c, 0, 73, 0
2, 51600, Note_on_c, 0, 72, 80
2, 51840, Note_on_c, 0, 72, 0
2, 51840, Note_on_c, 0, 72, 80
2, 52080, Note_on_c, 0, 72, 0
2, 52080, Note_on_c, 0, 70, 80
2, 52560, Note_on_c, 0, 70, 0
2, 52560, Note_on_c, 0, 68, 80
2, 52800, Note_on_c, 0, 68, 0
2, 52800, Control_c, 0, 64, 127
2, 52800, Note_on_c, 0, 68, 67
2, 53040, Note_on_c, 0, 68, 0
2, 53040, Note_on_c, 0, 65, 67
2, 53280, Note_on_c, 0, 65, 0
2, 53280, Note_on_c, 0, 64, 67
2, 53520, Note_on_c, 0, 64, 0
2, 53520, Control_c, 0, 64, 0
2, 53520, Note_on_c, 0, 65, 67
2, 53760, Note_on_c, 0, 65, 0
2, 53760, Control_c, 0, 64, 127
2, 53760, Note_on_c, 0, 68, 67
2, 54000, Note_on_c, 0, 68, 0
2, 54000, Note_on_c, 0, 65, 67
2, 54240, Note_on_c, 0, 65, 0
2, 54240, Note_on_c, 0, 64, 67
2, 54480, Note_on_c, 0, 64, 0
2, 54480, Control_c, 0, 64, 0
2, 54480, Note_on_c, 0, 65, 67
2, 54720, Note_on_c, 0, 65, 0
2, 54720, Note_on_c, 0, 72, 93
2, 54960, Note_on_c, 0, 72, 0
2, 54960, Note_on_c, 0, 68, 93
2, 55200, Note_on_c, 0, 68, 0
2, 55200, Note_on_c, 0, 67, 80
2, 55560, Note_on_c, 0, 67, 0
2, 55560, Note_on_c, 0, 65, 80
2, 55680, Note_on_c, 0, 65, 0
2, 55680, Note_on_c, 0, 60, 80
2, 55680, Note_on_c, 0, 65, 80
2, 56160, Note_on_c, 0, 65, 0
2, 56160, Note_on_c, 0, 60, 0
2, 56160, Note_on_c, 0, 77, 93
2, 56160, Note_on_c, 0, 80, 93
2, 56160, Note_on_c, 0, 84, 93
2, 56400, Note_on_c, 0, 84, 0
2, 56400, Note_on_c, 0, 80, 0
2, 56400, Note_on_c, 0, 77, 0
2, 56400, Note_on_c, 0, 72, 67
2, 56400, Note_on_c, 0, 77, 67
2, 56400, Note_on_c, 0, 80, 67
2, 56640, Note_on_c, 0, 80, 0
2, 56640, Note_on_c, 0, 77, 0
2, 56640, Note_on_c, 0, 72, 0
2, 56640, Note_on_c, 0, 73, 93
2, 56640, Note_on_c, 0, 76, 93
2, 56640, Note_on_c, 0, 79, 93
2, 56880, Note_on_c, 0, 79, 0
2, 56880, Note_on_c, 0, 76, 0
2, 56880, Note_on_c, 0, 73, 0
2, 56880, Note_on_c, 0, 70, 67
2, 56880, Note_on_c, 0, 77, 67
2, 57120, Note_on_c, 0, 77, 0
2, 57120, Note_on_c, 0, 70, 0
2, 57120, Note_on_c, 0, 68, 93
2, 57120, Note_on_c, 0, 72, 93
2, 57120, Note_on_c, 0, 77, 93
2, 57120, Note_on_c, 0, 80, 93
2, 57360, Note_on_c, 0, 80, 0
2, 57360, Note_on_c, 0, 68, 0
2, 57360, Note_on_c, 0, 72, 0
2, 57360, Note_on_c, 0, 77, 0
2, 57360, Note_on_c, 0, 68, 67
2, 57360, Note_on_c, 0, 72, 67
2, 57360, Note_on_c, 0, 77, 67
2, 57600, Note_on_c, 0, 77, 0
2, 57600, Note_on_c, 0, 72, 0
2, 57600, Note_on_c, 0, 68, 0
2, 57600, Note_on_c, 0, 66, 93
2, 57600, Note_on_c, 0, 72, 93
2, 57600, Note_on_c, 0, 75, 93
2, 57840, Note_on_c, 0, 75, 0
2, 57840, Note_on_c, 0, 72, 0
2, 57840, Note_on_c, 0, 66, 0
2, 57840, Note_on_c, 0, 65, 67
2, 57840, Note_on_c, 0, 68, 67
2, 57840, Note_on_c, 0, 73, 67
2, 58080, Note_on_c, 0, 73, 0
2, 58080, Note_on_c, 0, 68, 0
2, 58080, Note_on_c, 0, 65, 0
2, 58080, Note_on_c, 0, 68, 93
2, 58080, Note_on_c, 0, 72, 93
2, 58320, Note_on_c, 0, 72, 0
2, 58320, Note_on_c, 0, 68, 0
2, 58320, Note_on_c, 0, 68, 67
2, 58560, Note_on_c, 0, 68, 0
2, 58560, Note_on_c, 0, 67, 93
2, 58800, Note_on_c, 0, 67, 0
2, 58800, Note_on_c, 0, 65, 67
2, 59040, Note_on_c, 0, 65, 0
2, 59040, Note_on_c, 0, 68, 93
2, 59280, Note_on_c, 0, 68, 0
2, 59280, Note_on_c, 0, 65, 67
2, 59520, Note_on_c, 0, 65, 0
2, 59520, Control_c, 0, 64, 127
2, 59520, Note_on_c, 0, 63, 67
2, 59760, Note_on_c, 0, 63, 0
2, 59760, Note_on_c, 0, 61, 67
2, 60000, Note_on_c, 0, 61, 0
2, 60000, Note_on_c, 0, 60, 67
2, 60240, Note_on_c, 0, 60, 0
2, 60240, Control_c, 0, 64, 0
2, 60240, Note_on_c, 0, 59, 67
2, 60480, Note_on_c, 0, 59, 0
2, 60480, Control_c, 0, 64, 127
2, 60480, Note_on_c, 0, 60, 67
2, 60720, Note_on_c, 0, 60, 0
2, 60720, Note_on_c, 0, 61, 67
2, 60960, Note_on_c, 0, 61, 0
2, 60960, Note_on_c, 0, 62, 80
2, 61200, Note_on_c, 0, 62, 0
2, 61200, Control_c, 0, 64, 0
2, 61200, Note_on_c, 0, 64, 80
2, 61440, Note_on_c, 0, 64, 0
2, 61440, Note_on_c, 0, 65, 80
2, 61680, Note_on_c, 0, 65, 0
2, 61680, Note_on_c, 0, 65, 80
2, 61920, Note_on_c, 0, 65, 0
2, 61920, Note_on_c, 0, 65, 80
2, 62160, Note_on_c, 0, 65, 0
2, 62160, Note_on_c, 0, 70, 80
2, 62280, Note_on_c, 0, 70, 0
2, 62280, Note_on_c, 0, 67, 80
2, 62400, Note_on_c, 0, 67, 0
2, 62400, Note_on_c, 0, 65, 80
2, 62880, Note_on_c, 0, 65, 0
2, 62880, Note_on_c, 0, 64, 80
2, 63240, Note_on_c, 0, 64, 0
2, 63240, Note_on_c, 0, 65, 80
2, 63360, Note_on_c, 0, 65, 0
2, 63360, Note_on_c, 0, 65, 80
2, 64320, Note_on_c, 0, 65, 0
2, 64320, Note_on_c, 0, 60, 80
2, 64560, Note_on_c, 0, 60, 0
2, 64560, Note_on_c, 0, 58, 80
2, 64800, Note_on_c, 0, 58, 0
2, 64800, Note_on_c, 0, 57, 67
2, 65040, Note_on_c, 0, 57, 0
2, 65040, Note_on_c, 0, 54, 67
2, 65280, Note_on_c, 0, 54, 0
2, 65280, Note_on_c, 0, 53, 67
2, 65520, Note_on_c, 0, 53, 0
2, 65520, Note_on_c, 0, 57, 67
2, 65760, Note_on_c, 0, 57, 0
2, 65760, Note_on_c, 0, 60, 67
2, 66000, Note_on_c, 0, 60, 0
2, 66000, Note_on_c, 0, 65, 67
2, 66240, Note_on_c, 0, 65, 0
2, 66240, Control_c, 0, 64, 127
2, 66240, Note_on_c, 0, 65, 67
2, 66600, Note_on_c, 0, 65, 0
2, 66600, Note_on_c, 0, 65, 67
2, 66720, Note_on_c, 0, 65, 0
2, 66720, Note_on_c, 0, 63, 67
2, 66960, Note_on_c, 0, 63, 0
2, 66960, Control_c, 0, 64, 0
2, 66960, Note_on_c, 0, 61, 67
2, 67200, Note_on_c, 0, 61, 0
2, 67200, Note_on_c, 0, 61, 93
2, 68160, Note_on_c, 0, 61, 0
2, 68160, Note_on_c, 0, 60, 54
2, 70560, Note_on_c, 0, 60, 0
2, 70560, Control_c, 0, 64, 127
2, 71520, Control_c, 0, 64, 0
2, 71520, End_track
3, 0, Start_track
3, 0, Title_t, "Grand Piano"
3, 0, Program_c, 0, 0
3, 0, Control_c, 0, 7, 115
3, 0, Control_c, 0, 10, 80
3, 0, Note_on_c, 0, 60, 41
3, 0, Note_on_c, 0, 68, 41
3, 120, Note_on_c, 0, 68, 0
3, 120, Note_on_c, 0, 60, 0
3, 120, Note_on_c, 0, 60, 41
3, 120, Note_on_c, 0, 68, 41
3, 240, Note_on_c, 0, 68, 0
3, 240, Note_on_c, 0, 60, 0
3, 240, Note_on_c, 0, 60, 41
3, 240, Note_on_c, 0, 67, 41
3, 360, Note_on_c, 0, 67, 0
3, 360, Note_on_c, 0, 60, 0
3, 360, Note_on_c, 0, 60, 41
3, 360, Note_on_c, 0, 67, 41
3, 480, Note_on_c, 0, 67, 0
3, 480, Note_on_c, 0, 60, 0
3, 480, Note_on_c, 0, 60, 41
3, 480, Note_on_c, 0, 65, 41
3, 600, Note_on_c, 0, 65, 0
3, 600, Note_on_c, 0, 60, 0
3, 600, Note_on_c, 0, 60, 41
3, 600, Note_on_c, 0, 65, 41
3, 720, Note_on_c, 0, 65, 0
3, 720, Note_on_c, 0, 60, 0
3, 720, Note_on_c, 0, 60, 41
3, 720, Note_on_c, 0, 64, 41
3, 840, Note_on_c, 0, 64, 0
3, 840, Note_on_c, 0, 60, 0
3, 840, Note_on_c, 0, 60, 41
3, 840, Note_on_c, 0, 64, 41
3, 960, Note_on_c, 0, 64, 0
3, 960, Note_on_c, 0, 60, 0
3, 1200, Note_on_c, 0, 65, 41
3, 1320, Note_on_c, 0, 65, 0
3, 1320, Note_on_c, 0, 65, 41
3, 1440, Note_on_c, 0, 65, 0
3, 1440, Note_on_c, 0, 65, 41
3, 1560, Note_on_c, 0, 65, 0
3, 1560, Note_on_c, 0, 65, 41
3, 1680, Note_on_c, 0, 65, 0
3, 1680, Note_on_c, 0, 65, 67
3, 1800, Note_on_c, 0, 65, 0
3, 1800, Note_on_c, 0, 65, 67
3, 1920, Note_on_c, 0, 65, 0
3, 1920, Note_on_c, 0, 65, 67
3, 1920, Note_on_c, 0, 70, 67
3, 2040, Note_on_c, 0, 70, 0
3, 2040, Note_on_c, 0, 65, 0
3, 2040, Note_on_c, 0, 65, 67
3, 2040, Note_on_c, 0, 70, 67
3, 2160, Note_on_c, 0, 70, 0
3, 2160, Note_on_c, 0, 65, 0
3, 2160, Note_on_c, 0, 65, 54
3, 2160, Note_on_c, 0, 70, 54
3, 2280, Note_on_c, 0, 70, 0
3, 2280, Note_on_c, 0, 65, 0
3, 2280, Note_on_c, 0, 65, 54
3, 2280, Note_on_c, 0, 70, 54
3, 2400, Note_on_c, 0, 70, 0
3, 2400, Note_on_c, 0, 65, 0
3, 2400, Note_on_c, 0, 65, 54
3, 2400, Note_on_c, 0, 70, 54
3, 2400, Note_on_c, 0, 72, 54
3, 2520, Note_on_c, 0, 72, 0
3, 2520, Note_on_c, 0, 70, 0
3, 2520, Note_on_c, 0, 65, 0
3, 2520, Note_on_c, 0, 65, 54
3, 2520, Note_on_c, 0, 70, 54
3, 2520, Note_on_c, 0, 72, 54
3, 2640, Note_on_c, 0, 72, 0
3, 2640, Note_on_c, 0, 70, 0
3, 2640, Note_on_c, 0, 65, 0
3, 2640, Note_on_c, 0, 65, 54
3, 2640, Note_on_c, 0, 70, 54
3, 2760, Note_on_c, 0, 70, 0
3, 2760, Note_on_c, 0, 65, 0
3, 2760, Note_on_c, 0, 65, 54
3, 2760, Note_on_c, 0, 70, 54
3, 2880, Note_on_c, 0, 70, 0
3, 2880, Note_on_c, 0, 65, 0
3, 2880, Note_on_c, 0, 64, 54
3, 2880, Note_on_c, 0, 67, 54
3, 2880, Note_on_c, 0, 70, 54
3, 3000, Note_on_c, 0, 70, 0
3, 3000, Note_on_c, 0, 67, 0
3, 3000, Note_on_c, 0, 64, 0
3, 3000, Note_on_c, 0, 64, 54
3, 3000, Note_on_c, 0, 67, 54
3, 3000, Note_on_c, 0, 70, 54
3, 3120, Note_on_c, 0, 70, 0
3, 3120, Note_on_c, 0, 67, 0
3, 3120, Note_on_c, 0, 64, 0
3, 3120, Note_on_c, 0, 64, 54
3, 3120, Note_on_c, 0, 67, 54
3, 3120, Note_on_c, 0, 70, 54
3, 3240, Note_on_c, 0, 70, 0
3, 3240, Note_on_c, 0, 67, 0
3, 3240, Note_on_c, 0, 64, 0
3, 3240, Note_on_c, 0, 64, 54
3, 3240, Note_on_c, 0, 67, 54
3, 3240, Note_on_c, 0, 70, 54
3, 3360, Note_on_c, 0, 70, 0
3, 3360, Note_on_c, 0, 67, 0
3, 3360, Note_on_c, 0, 64, 0
3, 3360, Note_on_c, 0, 64, 54
3, 3360, Note_on_c, 0, 67, 54
3, 3360, Note_on_c, 0, 70, 54
3, 3480, Note_on_c, 0, 70, 0
3, 3480, Note_on_c, 0, 67, 0
3, 3480, Note_on_c, 0, 64, 0
3, 3480, Note_on_c, 0, 64, 54
3, 3480, Note_on_c, 0, 67, 54
3, 3480, Note_on_c, 0, 70, 54
3, 3600, Note_on_c, 0, 70, 0
3, 3600, Note_on_c, 0, 67, 0
3, 3600, Note_on_c, 0, 64, 0
3, 3600, Note_on_c, 0, 64, 54
3, 3600, Note_on_c, 0, 67, 54
3, 3600, Note_on_c, 0, 70, 54
3, 3720, Note_on_c, 0, 70, 0
3, 3720, Note_on_c, 0, 67, 0
3, 3720, Note_on_c, 0, 64, 0
3, 3720, Note_on_c, 0, 64, 54
3, 3720, Note_on_c, 0, 67, 54
3, 3720, Note_on_c, 0, 70, 54
3, 3840, Note_on_c, 0, 70, 0
3, 3840, Note_on_c, 0, 67, 0
3, 3840, Note_on_c, 0, 64, 0
3, 3840, Note_on_c, 0, 60, 54
3, 3840, Note_on_c, 0, 68, 54
3, 3960, Note_on_c, 0, 68, 0
3, 3960, Note_on_c, 0, 60, 0
3, 3960, Note_on_c, 0, 60, 54
3, 3960, Note_on_c, 0, 68, 54
3, 4080, Note_on_c, 0, 68, 0
3, 4080, Note_on_c, 0, 60, 0
3, 4080, Note_on_c, 0, 60, 54
3, 4080, Note_on_c, 0, 67, 54
3, 4200, Note_on_c, 0, 67, 0
3, 4200, Note_on_c, 0, 60, 0
3, 4200, Note_on_c, 0, 60, 54
3, 4200, Note_on_c, 0, 67, 54
3, 4320, Note_on_c, 0, 67, 0
3, 4320, Note_on_c, 0, 60, 0
3, 4320, Note_on_c, 0, 60, 54
3, 4320, Note_on_c, 0, 65, 54
3, 4440, Note_on_c, 0, 65, 0
3, 4440, Note_on_c, 0, 60, 0
3, 4440, Note_on_c, 0, 60, 54
3, 4440, Note_on_c, 0, 65, 54
3, 4560, Note_on_c, 0, 65, 0
3, 4560, Note_on_c, 0, 60, 0
3, 4560, Note_on_c, 0, 60, 54
3, 4680, Note_on_c, 0, 60, 0
3, 4680, Note_on_c, 0, 60, 54
3, 4800, Note_on_c, 0, 60, 0
3, 4800, Note_on_c, 0, 65, 54
3, 4920, Note_on_c, 0, 65, 0
3, 4920, Note_on_c, 0, 65, 54
3, 5040, Note_on_c, 0, 65, 0
3, 5040, Note_on_c, 0, 65, 54
3, 5160, Note_on_c, 0, 65, 0
3, 5160, Note_on_c, 0, 65, 54
3, 5280, Note_on_c, 0, 65, 0
3, 5280, Note_on_c, 0, 61, 54
3, 5280, Note_on_c, 0, 64, 54
3, 5400, Note_on_c, 0, 64, 0
3, 5400, Note_on_c, 0, 61, 0
3, 5400, Note_on_c, 0, 61, 54
3, 5400, Note_on_c, 0, 64, 54
3, 5520, Note_on_c, 0, 64, 0
3, 5520, Note_on_c, 0, 61, 0
3, 5520, Note_on_c, 0, 58, 54
3, 5640, Note_on_c, 0, 58, 0
3, 5640, Note_on_c, 0, 58, 54
3, 5760, Note_on_c, 0, 58, 0
3, 5760, Note_on_c, 0, 55, 54
3, 5760, Note_on_c, 0, 60, 54
3, 5880, Note_on_c, 0, 60, 0
3, 5880, Note_on_c, 0, 55, 0
3, 5880, Note_on_c, 0, 55, 54
3, 6000, Note_on_c, 0, 55, 0
3, 6000, Note_on_c, 0, 59, 54
3, 6120, Note_on_c, 0, 59, 0
3, 6120, Note_on_c, 0, 59, 54
3, 6240, Note_on_c, 0, 59, 0
3, 6240, Note_on_c, 0, 60, 54
3, 6360, Note_on_c, 0, 60, 0
3, 6360, Note_on_c, 0, 60, 54
3, 6480, Note_on_c, 0, 60, 0
3, 6480, Note_on_c, 0, 59, 54
3, 6600, Note_on_c, 0, 59, 0
3, 6600, Note_on_c, 0, 59, 54
3, 6720, Note_on_c, 0, 59, 0
3, 6720, Note_on_c, 0, 60, 54
3, 6720, Note_on_c, 0, 64, 54
3, 6840, Note_on_c, 0, 64, 0
3, 6840, Note_on_c, 0, 60, 0
3, 6840, Note_on_c, 0, 60, 54
3, 6840, Note_on_c, 0, 64, 54
3, 6960, Note_on_c, 0, 64, 0
3, 6960, Note_on_c, 0, 60, 0
3, 6960, Note_on_c, 0, 65, 54
3, 6960, Note_on_c, 0, 68, 54
3, 7080, Note_on_c, 0, 68, 0
3, 7080, Note_on_c, 0, 65, 0
3, 7080, Note_on_c, 0, 65, 54
3, 7080, Note_on_c, 0, 68, 54
3, 7200, Note_on_c, 0, 68, 0
3, 7200, Note_on_c, 0, 65, 0
3, 7200, Note_on_c, 0, 67, 54
3, 7320, Note_on_c, 0, 67, 0
3, 7320, Note_on_c, 0, 67, 54
3, 7440, Note_on_c, 0, 67, 0
3, 7440, Note_on_c, 0, 67, 54
3, 7440, Note_on_c, 0, 70, 54
3, 7560, Note_on_c, 0, 70, 0
3, 7560, Note_on_c, 0, 67, 0
3, 7560, Note_on_c, 0, 67, 54
3, 7560, Note_on_c, 0, 70, 54
3, 7680, Note_on_c, 0, 70, 0
3, 7680, Note_on_c, 0, 67, 0
3, 7680, Note_on_c, 0, 60, 54
3, 7680, Note_on_c, 0, 68, 54
3, 7800, Note_on_c, 0, 68, 0
3, 7800, Note_on_c, 0, 60, 0
3, 7800, Note_on_c, 0, 60, 54
3, 7800, Note_on_c, 0, 68, 54
3, 7920, Note_on_c, 0, 68, 0
3, 7920, Note_on_c, 0, 60, 0
3, 7920, Note_on_c, 0, 60, 54
3, 7920, Note_on_c, 0, 67, 54
3, 8040, Note_on_c, 0, 67, 0
3, 8040, Note_on_c, 0, 60, 0
3, 8040, Note_on_c, 0, 60, 54
3, 8040, Note_on_c, 0, 67, 54
3, 8160, Note_on_c, 0, 67, 0
3, 8160, Note_on_c, 0, 60, 0
3, 8160, Note_on_c, 0, 60, 54
3, 8160, Note_on_c, 0, 65, 54
3, 8280, Note_on_c, 0, 65, 0
3, 8280, Note_on_c, 0, 60, 0
3, 8280, Note_on_c, 0, 60, 54
3, 8280, Note_on_c, 0, 65, 54
3, 8400, Note_on_c, 0, 65, 0
3, 8400, Note_on_c, 0, 60, 0
3, 8400, Note_on_c, 0, 60, 54
3, 8400, Note_on_c, 0, 64, 54
3, 8520, Note_on_c, 0, 64, 0
3, 8520, Note_on_c, 0, 60, 0
3, 8520, Note_on_c, 0, 60, 54
3, 8520, Note_on_c, 0, 64, 54
3, 8640, Note_on_c, 0, 64, 0
3, 8640, Note_on_c, 0, 60, 0
3, 8880, Note_on_c, 0, 65, 54
3, 9000, Note_on_c, 0, 65, 0
3, 9000, Note_on_c, 0, 65, 54
3, 9120, Note_on_c, 0, 65, 0
3, 9120, Note_on_c, 0, 65, 54
3, 9240, Note_on_c, 0, 65, 0
3, 9240, Note_on_c, 0, 65, 54
3, 9360, Note_on_c, 0, 65, 0
3, 9360, Note_on_c, 0, 65, 67
3, 9480, Note_on_c, 0, 65, 0
3, 9480, Note_on_c, 0, 65, 67
3, 9600, Note_on_c, 0, 65, 0
3, 9600, Note_on_c, 0, 65, 67
3, 9600, Note_on_c, 0, 73, 67
3, 9720, Note_on_c, 0, 73, 0
3, 9720, Note_on_c, 0, 65, 0
3, 9720, Note_on_c, 0, 65, 67
3, 9720, Note_on_c, 0, 73, 67
3, 9840, Note_on_c, 0, 73, 0
3, 9840, Note_on_c, 0, 65, 0
3, 9840, Note_on_c, 0, 65, 67
3, 9840, Note_on_c, 0, 73, 67
3, 9960, Note_on_c, 0, 73, 0
3, 9960, Note_on_c, 0, 65, 0
3, 9960, Note_on_c, 0, 65, 67
3, 9960, Note_on_c, 0, 73, 67
3, 10080, Note_on_c, 0, 73, 0
3, 10080, Note_on_c, 0, 65, 0
3, 10080, Note_on_c, 0, 65, 54
3, 10080, Note_on_c, 0, 72, 54
3, 10200, Note_on_c, 0, 72, 0
3, 10200, Note_on_c, 0, 65, 0
3, 10200, Note_on_c, 0, 65, 54
3, 10200, Note_on_c, 0, 72, 54
3, 10320, Note_on_c, 0, 72, 0
3, 10320, Note_on_c, 0, 65, 0
3, 10320, Note_on_c, 0, 65, 54
3, 10320, Note_on_c, 0, 70, 54
3, 10440, Note_on_c, 0, 70, 0
3, 10440, Note_on_c, 0, 65, 0
3, 10440, Note_on_c, 0, 65, 54
3, 10440, Note_on_c, 0, 70, 54
3, 10560, Note_on_c, 0, 70, 0
3, 10560, Note_on_c, 0, 65, 0
3, 10560, Note_on_c, 0, 64, 54
3, 10560, Note_on_c, 0, 70, 54
3, 10680, Note_on_c, 0, 70, 0
3, 10680, Note_on_c, 0, 64, 0
3, 10680, Note_on_c, 0, 64, 54
3, 10680, Note_on_c, 0, 70, 54
3, 10800, Note_on_c, 0, 70, 0
3, 10800, Note_on_c, 0, 64, 0
3, 10800, Note_on_c, 0, 64, 54
3, 10800, Note_on_c, 0, 70, 54
3, 10920, Note_on_c, 0, 70, 0
3, 10920, Note_on_c, 0, 64, 0
3, 10920, Note_on_c, 0, 64, 54
3, 10920, Note_on_c, 0, 70, 54
3, 11040, Note_on_c, 0, 70, 0
3, 11040, Note_on_c, 0, 64, 0
3, 11040, Note_on_c, 0, 64, 54
3, 11040, Note_on_c, 0, 70, 54
3, 11160, Note_on_c, 0, 70, 0
3, 11160, Note_on_c, 0, 64, 0
3, 11160, Note_on_c, 0, 63, 54
3, 11160, Note_on_c, 0, 70, 54
3, 11280, Note_on_c, 0, 70, 0
3, 11280, Note_on_c, 0, 63, 0
3, 11280, Note_on_c, 0, 63, 54
3, 11280, Note_on_c, 0, 70, 54
3, 11400, Note_on_c, 0, 70, 0
3, 11400, Note_on_c, 0, 63, 0
3, 11400, Note_on_c, 0, 63, 54
3, 11400, Note_on_c, 0, 70, 54
3, 11520, Note_on_c, 0, 70, 0
3, 11520, Note_on_c, 0, 63, 0
3, 11520, Note_on_c, 0, 63, 54
3, 11520, Note_on_c, 0, 68, 54
3, 11640, Note_on_c, 0, 68, 0
3, 11640, Note_on_c, 0, 63, 0
3, 11640, Note_on_c, 0, 63, 54
3, 11640, Note_on_c, 0, 68, 54
3, 11760, Note_on_c, 0, 68, 0
3, 11760, Note_on_c, 0, 63, 0
3, 11760, Note_on_c, 0, 63, 54
3, 11760, Note_on_c, 0, 68, 54
3, 11880, Note_on_c, 0, 68, 0
3, 11880, Note_on_c, 0, 63, 0
3, 11880, Note_on_c, 0, 63, 54
3, 11880, Note_on_c, 0, 68, 54
3, 12000, Note_on_c, 0, 68, 0
3, 12000, Note_on_c, 0, 63, 0
3, 12000, Note_on_c, 0, 61, 54
3, 12000, Note_on_c, 0, 68, 54
3, 12120, Note_on_c, 0, 68, 0
3, 12120, Note_on_c, 0, 61, 0
3, 12120, Note_on_c, 0, 61, 54
3, 12120, Note_on_c, 0, 68, 54
3, 12240, Note_on_c, 0, 68, 0
3, 12240, Note_on_c, 0, 61, 0
3, 12240, Note_on_c, 0, 63, 54
3, 12240, Note_on_c, 0, 68, 54
3, 12360, Note_on_c, 0, 68, 0
3, 12360, Note_on_c, 0, 63, 0
3, 12360, Note_on_c, 0, 63, 54
3, 12360, Note_on_c, 0, 68, 54
3, 12480, Note_on_c, 0, 68, 0
3, 12480, Note_on_c, 0, 63, 0
3, 12480, Note_on_c, 0, 65, 54
3, 12480, Note_on_c, 0, 68, 54
3, 12600, Note_on_c, 0, 68, 0
3, 12600, Note_on_c, 0, 65, 0
3, 12600, Note_on_c, 0, 65, 54
3, 12600, Note_on_c, 0, 68, 54
3, 12720, Note_on_c, 0, 68, 0
3, 12720, Note_on_c, 0, 65, 0
3, 12720, Note_on_c, 0, 65, 54
3, 12720, Note_on_c, 0, 68, 54
3, 12840, Note_on_c, 0, 68, 0
3, 12840, Note_on_c, 0, 65, 0
3, 12840, Note_on_c, 0, 65, 54
3, 12840, Note_on_c, 0, 68, 54
3, 12960, Note_on_c, 0, 68, 0
3, 12960, Note_on_c, 0, 65, 0
3, 12960, Note_on_c, 0, 65, 54
3, 13080, Note_on_c, 0, 65, 0
3, 13080, Note_on_c, 0, 65, 54
3, 13200, Note_on_c, 0, 65, 0
3, 13200, Note_on_c, 0, 65, 54
3, 13320, Note_on_c, 0, 65, 0
3, 13320, Note_on_c, 0, 65, 54
3, 13440, Note_on_c, 0, 65, 0
3, 13440, Note_on_c, 0, 62, 54
3, 13440, Note_on_c, 0, 65, 54
3, 13560, Note_on_c, 0, 65, 0
3, 13560, Note_on_c, 0, 62, 0
3, 13560, Note_on_c, 0, 62, 54
3, 13560, Note_on_c, 0, 65, 54
3, 13680, Note_on_c, 0, 65, 0
3, 13680, Note_on_c, 0, 62, 0
3, 13680, Note_on_c, 0, 62, 54
3, 13680, Note_on_c, 0, 65, 54
3, 13800, Note_on_c, 0, 65, 0
3, 13800, Note_on_c, 0, 62, 0
3, 13800, Note_on_c, 0, 62, 54
3, 13800, Note_on_c, 0, 65, 54
3, 13920, Note_on_c, 0, 65, 0
3, 13920, Note_on_c, 0, 62, 0
3, 13920, Note_on_c, 0, 63, 54
3, 14040, Note_on_c, 0, 63, 0
3, 14040, Note_on_c, 0, 63, 54
3, 14160, Note_on_c, 0, 63, 0
3, 14160, Note_on_c, 0, 63, 54
3, 14280, Note_on_c, 0, 63, 0
3, 14280, Note_on_c, 0, 63, 54
3, 14400, Note_on_c, 0, 63, 0
3, 14400, Note_on_c, 0, 63, 54
3, 14400, Note_on_c, 0, 66, 54
3, 14400, Note_on_c, 0, 72, 54
3, 14520, Note_on_c, 0, 72, 0
3, 14520, Note_on_c, 0, 66, 0
3, 14520, Note_on_c, 0, 63, 0
3, 14520, Note_on_c, 0, 63, 54
3, 14520, Note_on_c, 0, 66, 54
3, 14520, Note_on_c, 0, 72, 54
3, 14640, Note_on_c, 0, 72, 0
3, 14640, Note_on_c, 0, 66, 0
3, 14640, Note_on_c, 0, 63, 0
3, 14640, Note_on_c, 0, 63, 67
3, 14640, Note_on_c, 0, 66, 67
3, 14640, Note_on_c, 0, 72, 67
3, 14760, Note_on_c, 0, 72, 0
3, 14760, Note_on_c, 0, 66, 0
3, 14760, Note_on_c, 0, 63, 0
3, 14760, Note_on_c, 0, 63, 67
3, 14760, Note_on_c, 0, 66, 67
3, 14760, Note_on_c, 0, 72, 67
3, 14880, Note_on_c, 0, 72, 0
3, 14880, Note_on_c, 0, 66, 0
3, 14880, Note_on_c, 0, 63, 0
3, 14880, Note_on_c, 0, 63, 67
3, 14880, Note_on_c, 0, 66, 67
3, 14880, Note_on_c, 0, 72, 67
3, 15000, Note_on_c, 0, 72, 0
3, 15000, Note_on_c, 0, 66, 0
3, 15000, Note_on_c, 0, 63, 0
3, 15000, Note_on_c, 0, 63, 67
3, 15000, Note_on_c, 0, 66, 67
3, 15000, Note_on_c, 0, 72, 67
3, 15120, Note_on_c, 0, 72, 0
3, 15120, Note_on_c, 0, 66, 0
3, 15120, Note_on_c, 0, 63, 0
3, 15120, Note_on_c, 0, 63, 67
3, 15120, Note_on_c, 0, 70, 67
3, 15120, Note_on_c, 0, 72, 67
3, 15240, Note_on_c, 0, 72, 0
3, 15240, Note_on_c, 0, 70, 0
3, 15240, Note_on_c, 0, 63, 0
3, 15240, Note_on_c, 0, 63, 67
3, 15240, Note_on_c, 0, 70, 67
3, 15240, Note_on_c, 0, 72, 67
3, 15360, Note_on_c, 0, 72, 0
3, 15360, Note_on_c, 0, 70, 0
3, 15360, Note_on_c, 0, 63, 0
3, 15360, Note_on_c, 0, 69, 80
3, 15360, Note_on_c, 0, 72, 80
3, 15480, Note_on_c, 0, 72, 0
3, 15480, Note_on_c, 0, 69, 0
3, 15480, Note_on_c, 0, 69, 80
3, 15480, Note_on_c, 0, 72, 80
3, 15600, Note_on_c, 0, 72, 0
3, 15600, Note_on_c, 0, 69, 0
3, 15600, Note_on_c, 0, 69, 80
3, 15600, Note_on_c, 0, 72, 80
3, 15720, Note_on_c, 0, 72, 0
3, 15720, Note_on_c, 0, 69, 0
3, 15720, Note_on_c, 0, 69, 80
3, 15720, Note_on_c, 0, 72, 80
3, 15840, Note_on_c, 0, 72, 0
3, 15840, Note_on_c, 0, 69, 0
3, 15840, Note_on_c, 0, 69, 80
3, 15840, Note_on_c, 0, 72, 80
3, 15960, Note_on_c, 0, 72, 0
3, 15960, Note_on_c, 0, 69, 0
3, 15960, Note_on_c, 0, 69, 80
3, 15960, Note_on_c, 0, 72, 80
3, 16080, Note_on_c, 0, 72, 0
3, 16080, Note_on_c, 0, 69, 0
3, 16080, Note_on_c, 0, 69, 80
3, 16080, Note_on_c, 0, 72, 80
3, 16200, Note_on_c, 0, 72, 0
3, 16200, Note_on_c, 0, 69, 0
3, 16200, Note_on_c, 0, 69, 80
3, 16200, Note_on_c, 0, 72, 80
3, 16320, Note_on_c, 0, 72, 0
3, 16320, Note_on_c, 0, 69, 0
3, 16320, Note_on_c, 0, 68, 80
3, 16320, Note_on_c, 0, 71, 80
3, 16440, Note_on_c, 0, 71, 0
3, 16440, Note_on_c, 0, 68, 0
3, 16440, Note_on_c, 0, 68, 80
3, 16440, Note_on_c, 0, 71, 80
3, 16560, Note_on_c, 0, 71, 0
3, 16560, Note_on_c, 0, 68, 0
3, 16560, Note_on_c, 0, 68, 80
3, 16560, Note_on_c, 0, 71, 80
3, 16680, Note_on_c, 0, 71, 0
3, 16680, Note_on_c, 0, 68, 0
3, 16680, Note_on_c, 0, 68, 80
3, 16680, Note_on_c, 0, 71, 80
3, 16800, Note_on_c, 0, 71, 0
3, 16800, Note_on_c, 0, 68, 0
3, 16800, Note_on_c, 0, 68, 80
3, 16800, Note_on_c, 0, 70, 80
3, 16920, Note_on_c, 0, 70, 0
3, 16920, Note_on_c, 0, 68, 0
3, 16920, Note_on_c, 0, 68, 80
3, 16920, Note_on_c, 0, 70, 80
3, 17040, Note_on_c, 0, 70, 0
3, 17040, Note_on_c, 0, 68, 0
3, 17040, Note_on_c, 0, 68, 80
3, 17040, Note_on_c, 0, 70, 80
3, 17160, Note_on_c, 0, 70, 0
3, 17160, Note_on_c, 0, 68, 0
3, 17160, Note_on_c, 0, 68, 80
3, 17160, Note_on_c, 0, 70, 80
3, 17280, Note_on_c, 0, 70, 0
3, 17280, Note_on_c, 0, 68, 0
3, 17280, Note_on_c, 0, 67, 67
3, 17280, Note_on_c, 0, 70, 67
3, 17280, Note_on_c, 0, 73, 67
3, 17400, Note_on_c, 0, 73, 0
3, 17400, Note_on_c, 0, 70, 0
3, 17400, Note_on_c, 0, 67, 0
3, 17400, Note_on_c, 0, 67, 67
3, 17400, Note_on_c, 0, 70, 67
3, 17400, Note_on_c, 0, 73, 67
3, 17520, Note_on_c, 0, 73, 0
3, 17520, Note_on_c, 0, 70, 0
3, 17520, Note_on_c, 0, 67, 0
3, 17520, Note_on_c, 0, 67, 67
3, 17520, Note_on_c, 0, 70, 67
3, 17520, Note_on_c, 0, 73, 67
3, 17640, Note_on_c, 0, 73, 0
3, 17640, Note_on_c, 0, 70, 0
3, 17640, Note_on_c, 0, 67, 0
3, 17640, Note_on_c, 0, 67, 67
3, 17640, Note_on_c, 0, 70, 67
3, 17640, Note_on_c, 0, 73, 67
3, 17760, Note_on_c, 0, 73, 0
3, 17760, Note_on_c, 0, 70, 0
3, 17760, Note_on_c, 0, 67, 0
3, 17760, Note_on_c, 0, 67, 67
3, 17760, Note_on_c, 0, 70, 67
3, 17880, Note_on_c, 0, 70, 0
3, 17880, Note_on_c, 0, 67, 0
3, 17880, Note_on_c, 0, 67, 67
3, 17880, Note_on_c, 0, 70, 67
3, 18000, Note_on_c, 0, 70, 0
3, 18000, Note_on_c, 0, 67, 0
3, 18000, Note_on_c, 0, 67, 67
3, 18000, Note_on_c, 0, 70, 67
3, 18120, Note_on_c, 0, 70, 0
3, 18120, Note_on_c, 0, 67, 0
3, 18120, Note_on_c, 0, 67, 67
3, 18120, Note_on_c, 0, 70, 67
3, 18240, Note_on_c, 0, 70, 0
3, 18240, Note_on_c, 0, 67, 0
3, 18240, Note_on_c, 0, 63, 67
3, 18240, Note_on_c, 0, 68, 67
3, 18360, Note_on_c, 0, 68, 0
3, 18360, Note_on_c, 0, 63, 0
3, 18360, Note_on_c, 0, 63, 67
3, 18360, Note_on_c, 0, 68, 67
3, 18480, Note_on_c, 0, 68, 0
3, 18480, Note_on_c, 0, 63, 0
3, 18480, Note_on_c, 0, 63, 67
3, 18480, Note_on_c, 0, 68, 67
3, 18600, Note_on_c, 0, 68, 0
3, 18600, Note_on_c, 0, 63, 0
3, 18600, Note_on_c, 0, 63, 67
3, 18600, Note_on_c, 0, 68, 67
3, 18720, Note_on_c, 0, 68, 0
3, 18720, Note_on_c, 0, 63, 0
3, 18720, Note_on_c, 0, 63, 54
3, 18720, Note_on_c, 0, 68, 54
3, 18840, Note_on_c, 0, 68, 0
3, 18840, Note_on_c, 0, 63, 0
3, 18840, Note_on_c, 0, 63, 54
3, 18840, Note_on_c, 0, 68, 54
3, 18960, Note_on_c, 0, 68, 0
3, 18960, Note_on_c, 0, 63, 0
3, 18960, Note_on_c, 0, 63, 54
3, 18960, Note_on_c, 0, 68, 54
3, 19080, Note_on_c, 0, 68, 0
3, 19080, Note_on_c, 0, 63, 0
3, 19080, Note_on_c, 0, 63, 54
3, 19080, Note_on_c, 0, 68, 54
3, 19200, Note_on_c, 0, 68, 0
3, 19200, Note_on_c, 0, 63, 0
3, 19200, Note_on_c, 0, 63, 54
3, 19200, Note_on_c, 0, 68, 54
3, 19320, Note_on_c, 0, 68, 0
3, 19320, Note_on_c, 0, 63, 0
3, 19320, Note_on_c, 0, 63, 54
3, 19320, Note_on_c, 0, 68, 54
3, 19440, Note_on_c, 0, 68, 0
3, 19440, Note_on_c, 0, 63, 0
3, 19440, Note_on_c, 0, 63, 54
3, 19440, Note_on_c, 0, 68, 54
3, 19560, Note_on_c, 0, 68, 0
3, 19560, Note_on_c, 0, 63, 0
3, 19560, Note_on_c, 0, 63, 54
3, 19560, Note_on_c, 0, 68, 54
3, 19680, Note_on_c, 0, 68, 0
3, 19680, Note_on_c, 0, 63, 0
3, 19680, Note_on_c, 0, 63, 54
3, 19800, Note_on_c, 0, 63, 0
3, 19800, Note_on_c, 0, 63, 54
3, 19920, Note_on_c, 0, 63, 0
3, 19920, Note_on_c, 0, 63, 54
3, 20040, Note_on_c, 0, 63, 0
3, 20040, Note_on_c, 0, 63, 54
3, 20160, Note_on_c, 0, 63, 0
3, 20160, Note_on_c, 0, 63, 54
3, 20280, Note_on_c, 0, 63, 0
3, 20280, Note_on_c, 0, 63, 54
3, 20400, Note_on_c, 0, 63, 0
3, 20400, Note_on_c, 0, 63, 54
3, 20520, Note_on_c, 0, 63, 0
3, 20520, Note_on_c, 0, 63, 54
3, 20640, Note_on_c, 0, 63, 0
3, 20640, Note_on_c, 0, 62, 54
3, 20760, Note_on_c, 0, 62, 0
3, 20760, Note_on_c, 0, 62, 54
3, 20880, Note_on_c, 0, 62, 0
3, 20880, Note_on_c, 0, 62, 54
3, 21000, Note_on_c, 0, 62, 0
3, 21000, Note_on_c, 0, 62, 54
3, 21120, Note_on_c, 0, 62, 0
3, 21120, Note_on_c, 0, 63, 54
3, 21240, Note_on_c, 0, 63, 0
3, 21240, Note_on_c, 0, 63, 54
3, 21360, Note_on_c, 0, 63, 0
3, 21360, Note_on_c, 0, 63, 54
3, 21480, Note_on_c, 0, 63, 0
3, 21480, Note_on_c, 0, 63, 54
3, 21600, Note_on_c, 0, 63, 0
3, 21600, Note_on_c, 0, 61, 54
3, 21600, Note_on_c, 0, 63, 54
3, 21720, Note_on_c, 0, 63, 0
3, 21720, Note_on_c, 0, 61, 0
3, 21720, Note_on_c, 0, 61, 54
3, 21720, Note_on_c, 0, 63, 54
3, 21840, Note_on_c, 0, 63, 0
3, 21840, Note_on_c, 0, 61, 0
3, 21840, Note_on_c, 0, 61, 54
3, 21840, Note_on_c, 0, 63, 54
3, 21960, Note_on_c, 0, 63, 0
3, 21960, Note_on_c, 0, 61, 0
3, 21960, Note_on_c, 0, 61, 54
3, 21960, Note_on_c, 0, 63, 54
3, 22080, Note_on_c, 0, 63, 0
3, 22080, Note_on_c, 0, 61, 0
3, 22080, Note_on_c, 0, 60, 54
3, 22080, Note_on_c, 0, 63, 54
3, 22200, Note_on_c, 0, 63, 0
3, 22200, Note_on_c, 0, 60, 0
3, 22200, Note_on_c, 0, 60, 54
3, 22200, Note_on_c, 0, 63, 54
3, 22320, Note_on_c, 0, 63, 0
3, 22320, Note_on_c, 0, 60, 0
3, 22320, Note_on_c, 0, 60, 54
3, 22320, Note_on_c, 0, 63, 54
3, 22440, Note_on_c, 0, 63, 0
3, 22440, Note_on_c, 0, 60, 0
3, 22440, Note_on_c, 0, 60, 54
3, 22440, Note_on_c, 0, 63, 54
3, 22560, Note_on_c, 0, 63, 0
3, 22560, Note_on_c, 0, 60, 0
3, 22560, Note_on_c, 0, 60, 54
3, 22560, Note_on_c, 0, 63, 54
3, 22680, Note_on_c, 0, 63, 0
3, 22680, Note_on_c, 0, 60, 0
3, 22680, Note_on_c, 0, 60, 54
3, 22680, Note_on_c, 0, 63, 54
3, 22800, Note_on_c, 0, 63, 0
3, 22800, Note_on_c, 0, 60, 0
3, 22800, Note_on_c, 0, 60, 54
3, 22800, Note_on_c, 0, 63, 54
3, 22920, Note_on_c, 0, 63, 0
3, 22920, Note_on_c, 0, 60, 0
3, 22920, Note_on_c, 0, 60, 54
3, 22920, Note_on_c, 0, 63, 54
3, 23040, Note_on_c, 0, 63, 0
3, 23040, Note_on_c, 0, 60, 0
3, 23040, Control_c, 0, 64, 127
3, 23040, Note_on_c, 0, 60, 67
3, 23280, Note_on_c, 0, 60, 0
3, 23280, Note_on_c, 0, 58, 67
3, 23520, Note_on_c, 0, 58, 0
3, 23520, Note_on_c, 0, 56, 80
3, 23760, Note_on_c, 0, 56, 0
3, 23760, Note_on_c, 0, 54, 80
3, 24000, Note_on_c, 0, 54, 0
3, 24000, Note_on_c, 0, 53, 80
3, 24240, Note_on_c, 0, 53, 0
3, 24240, Note_on_c, 0, 57, 80
3, 24480, Note_on_c, 0, 57, 0
3, 24480, Note_on_c, 0, 60, 80
3, 24720, Note_on_c, 0, 60, 0
3, 24720, Control_c, 0, 64, 0
3, 24720, Note_on_c, 0, 63, 80
3, 24960, Note_on_c, 0, 63, 0
3, 24960, Note_on_c, 0, 66, 93
3, 25320, Note_on_c, 0, 66, 0
3, 25320, Note_on_c, 0, 66, 93
3, 25440, Note_on_c, 0, 66, 0
3, 25440, Note_on_c, 0, 65, 93
3, 25680, Note_on_c, 0, 65, 0
3, 25680, Note_on_c, 0, 63, 93
3, 25920, Note_on_c, 0, 63, 0
3, 25920, Note_on_c, 0, 63, 93
3, 26400, Note_on_c, 0, 63, 0
3, 26400, Note_on_c, 0, 61, 80
3, 26880, Note_on_c, 0, 61, 0
3, 26880, Control_c, 0, 64, 127
3, 26880, Note_on_c, 0, 65, 67
3, 27120, Note_on_c, 0, 65, 0
3, 27120, Note_on_c, 0, 63, 67
3, 27360, Note_on_c, 0, 63, 0
3, 27360, Note_on_c, 0, 62, 80
3, 27600, Note_on_c, 0, 62, 0
3, 27600, Note_on_c, 0, 60, 80
3, 27840, Note_on_c, 0, 60, 0
3, 27840, Note_on_c, 0, 59, 80
3, 28080, Note_on_c, 0, 59, 0
3, 28080, Note_on_c, 0, 62, 80
3, 28320, Note_on_c, 0, 62, 0
3, 28320, Note_on_c, 0, 65, 80
3, 28560, Note_on_c, 0, 65, 0
3, 28560, Control_c, 0, 64, 0
3, 28560, Note_on_c, 0, 68, 80
3, 28800, Note_on_c, 0, 68, 0
3, 28800, Note_on_c, 0, 68, 93
3, 29160, Note_on_c, 0, 68, 0
3, 29160, Note_on_c, 0, 68, 93
3, 29280, Note_on_c, 0, 68, 0
3, 29280, Note_on_c, 0, 67, 93
3, 29520, Note_on_c, 0, 67, 0
3, 29520, Note_on_c, 0, 65, 93
3, 29760, Note_on_c, 0, 65, 0
3, 29760, Note_on_c, 0, 65, 80
3, 30000, Note_on_c, 0, 65, 0
3, 30000, Note_on_c, 0, 63, 54
3, 30240, Note_on_c, 0, 63, 0
3, 30720, Note_on_c, 0, 68, 54
3, 30960, Note_on_c, 0, 68, 0
3, 30960, Note_on_c, 0, 65, 54
3, 31200, Note_on_c, 0, 65, 0
3, 31200, Note_on_c, 0, 63, 54
3, 31200, Note_on_c, 0, 67, 54
3, 31440, Note_on_c, 0, 67, 0
3, 31440, Note_on_c, 0, 63, 0
3, 31440, Note_on_c, 0, 63, 54
3, 31440, Note_on_c, 0, 67, 54
3, 31680, Note_on_c, 0, 67, 0
3, 31680, Note_on_c, 0, 63, 0
3, 32640, Note_on_c, 0, 68, 54
3, 32880, Note_on_c, 0, 68, 0
3, 32880, Note_on_c, 0, 65, 54
3, 33120, Note_on_c, 0, 65, 0
3, 33120, Note_on_c, 0, 63, 67
3, 33120, Note_on_c, 0, 67, 67
3, 33360, Note_on_c, 0, 67, 0
3, 33360, Note_on_c, 0, 63, 0
3, 33360, Note_on_c, 0, 63, 67
3, 33360, Note_on_c, 0, 67, 67
3, 33600, Note_on_c, 0, 67, 0
3, 33600, Note_on_c, 0, 63, 0
3, 34560, Note_on_c, 0, 60, 54
3, 34560, Note_on_c, 0, 63, 54
3, 34680, Note_on_c, 0, 63, 0
3, 34680, Note_on_c, 0, 60, 0
3, 34680, Note_on_c, 0, 60, 54
3, 34680, Note_on_c, 0, 63, 54
3, 34800, Note_on_c, 0, 63, 0
3, 34800, Note_on_c, 0, 60, 0
3, 34800, Note_on_c, 0, 60, 54
3, 34800, Note_on_c, 0, 63, 54
3, 34920, Note_on_c, 0, 63, 0
3, 34920, Note_on_c, 0, 60, 0
3, 34920, Note_on_c, 0, 60, 54
3, 34920, Note_on_c, 0, 63, 54
3, 35040, Note_on_c, 0, 63, 0
3, 35040, Note_on_c, 0, 60, 0
3, 35040, Note_on_c, 0, 60, 54
3, 35040, Note_on_c, 0, 63, 54
3, 35160, Note_on_c, 0, 63, 0
3, 35160, Note_on_c, 0, 60, 0
3, 35160, Note_on_c, 0, 60, 54
3, 35160, Note_on_c, 0, 63, 54
3, 35280, Note_on_c, 0, 63, 0
3, 35280, Note_on_c, 0, 60, 0
3, 35280, Note_on_c, 0, 60, 54
3, 35280, Note_on_c, 0, 63, 54
3, 35400, Note_on_c, 0, 63, 0
3, 35400, Note_on_c, 0, 60, 0
3, 35400, Note_on_c, 0, 60, 54
3, 35400, Note_on_c, 0, 63, 54
3, 35520, Note_on_c, 0, 63, 0
3, 35520, Note_on_c, 0, 60, 0
3, 35520, Note_on_c, 0, 62, 54
3, 35640, Note_on_c, 0, 62, 0
3, 35640, Note_on_c, 0, 62, 54
3, 35760, Note_on_c, 0, 62, 0
3, 35760, Note_on_c, 0, 62, 54
3, 35760, Note_on_c, 0, 65, 54
3, 35880, Note_on_c, 0, 65, 0
3, 35880, Note_on_c, 0, 62, 0
3, 35880, Note_on_c, 0, 62, 54
3, 35880, Note_on_c, 0, 65, 54
3, 36000, Note_on_c, 0, 65, 0
3, 36000, Note_on_c, 0, 62, 0
3, 36000, Note_on_c, 0, 63, 54
3, 36000, Note_on_c, 0, 66, 54
3, 36120, Note_on_c, 0, 66, 0
3, 36120, Note_on_c, 0, 63, 0
3, 36120, Note_on_c, 0, 63, 54
3, 36120, Note_on_c, 0, 66, 54
3, 36240, Note_on_c, 0, 66, 0
3, 36240, Note_on_c, 0, 63, 0
3, 36240, Note_on_c, 0, 65, 54
3, 36240, Note_on_c, 0, 68, 54
3, 36360, Note_on_c, 0, 68, 0
3, 36360, Note_on_c, 0, 65, 0
3, 36360, Note_on_c, 0, 65, 54
3, 36360, Note_on_c, 0, 68, 54
3, 36480, Note_on_c, 0, 68, 0
3, 36480, Note_on_c, 0, 65, 0
3, 36480, Note_on_c, 0, 67, 54
3, 36600, Note_on_c, 0, 67, 0
3, 36600, Note_on_c, 0, 67, 54
3, 36720, Note_on_c, 0, 67, 0
3, 36720, Note_on_c, 0, 69, 54
3, 36720, Note_on_c, 0, 72, 54
3, 36840, Note_on_c, 0, 72, 0
3, 36840, Note_on_c, 0, 69, 0
3, 36840, Note_on_c, 0, 69, 54
3, 36840, Note_on_c, 0, 72, 54
3, 36960, Note_on_c, 0, 72, 0
3, 36960, Note_on_c, 0, 69, 0
3, 36960, Note_on_c, 0, 67, 54
3, 37080, Note_on_c, 0, 67, 0
3, 37080, Note_on_c, 0, 67, 54
3, 37200, Note_on_c, 0, 67, 0
3, 37200, Note_on_c, 0, 67, 54
3, 37320, Note_on_c, 0, 67, 0
3, 37320, Note_on_c, 0, 67, 54
3, 37440, Note_on_c, 0, 67, 0
3, 37440, Note_on_c, 0, 72, 80
3, 37440, Note_on_c, 0, 75, 80
3, 37560, Note_on_c, 0, 75, 0
3, 37560, Note_on_c, 0, 72, 0
3, 37560, Note_on_c, 0, 72, 80
3, 37560, Note_on_c, 0, 75, 80
3, 37680, Note_on_c, 0, 75, 0
3, 37680, Note_on_c, 0, 72, 0
3, 37680, Note_on_c, 0, 72, 80
3, 37680, Note_on_c, 0, 75, 80
3, 37800, Note_on_c, 0, 75, 0
3, 37800, Note_on_c, 0, 72, 0
3, 37800, Note_on_c, 0, 72, 80
3, 37800, Note_on_c, 0, 75, 80
3, 37920, Note_on_c, 0, 75, 0
3, 37920, Note_on_c, 0, 72, 0
3, 37920, Note_on_c, 0, 72, 80
3, 37920, Note_on_c, 0, 74, 80
3, 38040, Note_on_c, 0, 74, 0
3, 38040, Note_on_c, 0, 72, 0
3, 38040, Note_on_c, 0, 72, 80
3, 38040, Note_on_c, 0, 74, 80
3, 38160, Note_on_c, 0, 74, 0
3, 38160, Note_on_c, 0, 72, 0
3, 38160, Note_on_c, 0, 74, 80
3, 38280, Note_on_c, 0, 74, 0
3, 38280, Note_on_c, 0, 74, 80
3, 38400, Note_on_c, 0, 74, 0
3, 38400, Note_on_c, 0, 67, 80
3, 38520, Note_on_c, 0, 67, 0
3, 38520, Note_on_c, 0, 67, 80
3, 38640, Note_on_c, 0, 67, 0
3, 38640, Note_on_c, 0, 66, 80
3, 38760, Note_on_c, 0, 66, 0
3, 38760, Note_on_c, 0, 66, 80
3, 38880, Note_on_c, 0, 66, 0
3, 38880, Note_on_c, 0, 66, 80
3, 38880, Note_on_c, 0, 68, 80
3, 39000, Note_on_c, 0, 68, 0
3, 39000, Note_on_c, 0, 66, 0
3, 39000, Note_on_c, 0, 66, 80
3, 39000, Note_on_c, 0, 68, 80
3, 39120, Note_on_c, 0, 68, 0
3, 39120, Note_on_c, 0, 66, 0
3, 39120, Note_on_c, 0, 66, 80
3, 39120, Note_on_c, 0, 68, 80
3, 39240, Note_on_c, 0, 68, 0
3, 39240, Note_on_c, 0, 66, 0
3, 39240, Note_on_c, 0, 66, 80
3, 39240, Note_on_c, 0, 68, 80
3, 39360, Note_on_c, 0, 68, 0
3, 39360, Note_on_c, 0, 66, 0
3, 39360, Note_on_c, 0, 67, 67
3, 39360, Note_on_c, 0, 72, 67
3, 39480, Note_on_c, 0, 72, 0
3, 39480, Note_on_c, 0, 67, 0
3, 39480, Note_on_c, 0, 67, 67
3, 39480, Note_on_c, 0, 72, 67
3, 39600, Note_on_c, 0, 72, 0
3, 39600, Note_on_c, 0, 67, 0
3, 39600, Note_on_c, 0, 67, 67
3, 39600, Note_on_c, 0, 72, 67
3, 39720, Note_on_c, 0, 72, 0
3, 39720, Note_on_c, 0, 67, 0
3, 39720, Note_on_c, 0, 67, 67
3, 39720, Note_on_c, 0, 72, 67
3, 39840, Note_on_c, 0, 72, 0
3, 39840, Note_on_c, 0, 67, 0
3, 39840, Note_on_c, 0, 67, 67
3, 39840, Note_on_c, 0, 72, 67
3, 39960, Note_on_c, 0, 72, 0
3, 39960, Note_on_c, 0, 67, 0
3, 39960, Note_on_c, 0, 67, 67
3, 39960, Note_on_c, 0, 72, 67
3, 40080, Note_on_c, 0, 72, 0
3, 40080, Note_on_c, 0, 67, 0
3, 40080, Note_on_c, 0, 67, 67
3, 40080, Note_on_c, 0, 72, 67
3, 40200, Note_on_c, 0, 72, 0
3, 40200, Note_on_c, 0, 67, 0
3, 40200, Note_on_c, 0, 67, 67
3, 40200, Note_on_c, 0, 72, 67
3, 40320, Note_on_c, 0, 72, 0
3, 40320, Note_on_c, 0, 67, 0
3, 40320, Note_on_c, 0, 65, 67
3, 40320, Note_on_c, 0, 68, 67
3, 40320, Note_on_c, 0, 72, 67
3, 40440, Note_on_c, 0, 72, 0
3, 40440, Note_on_c, 0, 68, 0
3, 40440, Note_on_c, 0, 65, 0
3, 40440, Note_on_c, 0, 65, 67
3, 40440, Note_on_c, 0, 68, 67
3, 40440, Note_on_c, 0, 72, 67
3, 40560, Note_on_c, 0, 72, 0
3, 40560, Note_on_c, 0, 68, 0
3, 40560, Note_on_c, 0, 65, 0
3, 40560, Note_on_c, 0, 65, 67
3, 40560, Note_on_c, 0, 68, 67
3, 40560, Note_on_c, 0, 72, 67
3, 40680, Note_on_c, 0, 72, 0
3, 40680, Note_on_c, 0, 68, 0
3, 40680, Note_on_c, 0, 65, 0
3, 40680, Note_on_c, 0, 65, 67
3, 40680, Note_on_c, 0, 68, 67
3, 40680, Note_on_c, 0, 72, 67
3, 40800, Note_on_c, 0, 72, 0
3, 40800, Note_on_c, 0, 68, 0
3, 40800, Note_on_c, 0, 65, 0
3, 40800, Note_on_c, 0, 65, 67
3, 40800, Note_on_c, 0, 67, 67
3, 40800, Note_on_c, 0, 71, 67
3, 40920, Note_on_c, 0, 71, 0
3, 40920, Note_on_c, 0, 67, 0
3, 40920, Note_on_c, 0, 65, 0
3, 40920, Note_on_c, 0, 65, 67
3, 40920, Note_on_c, 0, 67, 67
3, 40920, Note_on_c, 0, 71, 67
3, 41040, Note_on_c, 0, 71, 0
3, 41040, Note_on_c, 0, 67, 0
3, 41040, Note_on_c, 0, 65, 0
3, 41040, Note_on_c, 0, 65, 54
3, 41040, Note_on_c, 0, 67, 54
3, 41040, Note_on_c, 0, 71, 54
3, 41160, Note_on_c, 0, 71, 0
3, 41160, Note_on_c, 0, 67, 0
3, 41160, Note_on_c, 0, 65, 0
3, 41160, Note_on_c, 0, 65, 54
3, 41160, Note_on_c, 0, 67, 54
3, 41160, Note_on_c, 0, 71, 54
3, 41280, Note_on_c, 0, 71, 0
3, 41280, Note_on_c, 0, 67, 0
3, 41280, Note_on_c, 0, 65, 0
3, 41280, Note_on_c, 0, 60, 54
3, 41280, Note_on_c, 0, 64, 54
3, 41280, Note_on_c, 0, 67, 54
3, 41400, Note_on_c, 0, 67, 0
3, 41400, Note_on_c, 0, 64, 0
3, 41400, Note_on_c, 0, 60, 0
3, 41400, Note_on_c, 0, 60, 54
3, 41400, Note_on_c, 0, 64, 54
3, 41400, Note_on_c, 0, 67, 54
3, 41520, Note_on_c, 0, 67, 0
3, 41520, Note_on_c, 0, 64, 0
3, 41520, Note_on_c, 0, 60, 0
3, 41520, Note_on_c, 0, 60, 54
3, 41520, Note_on_c, 0, 64, 54
3, 41520, Note_on_c, 0, 67, 54
3, 41640, Note_on_c, 0, 67, 0
3, 41640, Note_on_c, 0, 64, 0
3, 41640, Note_on_c, 0, 60, 0
3, 41640, Note_on_c, 0, 60, 54
3, 41640, Note_on_c, 0, 64, 54
3, 41640, Note_on_c, 0, 67, 54
3, 41760, Note_on_c, 0, 67, 0
3, 41760, Note_on_c, 0, 64, 0
3, 41760, Note_on_c, 0, 60, 0
3, 41760, Note_on_c, 0, 60, 54
3, 41760, Note_on_c, 0, 64, 54
3, 41760, Note_on_c, 0, 67, 54
3, 41880, Note_on_c, 0, 67, 0
3, 41880, Note_on_c, 0, 64, 0
3, 41880, Note_on_c, 0, 60, 0
3, 41880, Note_on_c, 0, 60, 54
3, 41880, Note_on_c, 0, 64, 54
3, 41880, Note_on_c, 0, 67, 54
3, 42000, Note_on_c, 0, 67, 0
3, 42000, Note_on_c, 0, 64, 0
3, 42000, Note_on_c, 0, 60, 0
3, 42000, Note_on_c, 0, 60, 54
3, 42000, Note_on_c, 0, 64, 54
3, 42000, Note_on_c, 0, 67, 54
3, 42120, Note_on_c, 0, 67, 0
3, 42120, Note_on_c, 0, 64, 0
3, 42120, Note_on_c, 0, 60, 0
3, 42120, Note_on_c, 0, 60, 54
3, 42120, Note_on_c, 0, 64, 54
3, 42120, Note_on_c, 0, 67, 54
3, 42240, Note_on_c, 0, 67, 0
3, 42240, Note_on_c, 0, 64, 0
3, 42240, Note_on_c, 0, 60, 0
3, 42240, Note_on_c, 0, 63, 54
3, 42240, Note_on_c, 0, 65, 54
3, 42240, Note_on_c, 0, 69, 54
3, 42360, Note_on_c, 0, 69, 0
3, 42360, Note_on_c, 0, 65, 0
3, 42360, Note_on_c, 0, 63, 0
3, 42360, Note_on_c, 0, 63, 54
3, 42360, Note_on_c, 0, 65, 54
3, 42360, Note_on_c, 0, 69, 54
3, 42480, Note_on_c, 0, 69, 0
3, 42480, Note_on_c, 0, 65, 0
3, 42480, Note_on_c, 0, 63, 0
3, 42480, Note_on_c, 0, 63, 54
3, 42480, Note_on_c, 0, 65, 54
3, 42480, Note_on_c, 0, 69, 54
3, 42600, Note_on_c, 0, 69, 0
3, 42600, Note_on_c, 0, 65, 0
3, 42600, Note_on_c, 0, 63, 0
3, 42600, Note_on_c, 0, 63, 54
3, 42600, Note_on_c, 0, 65, 54
3, 42600, Note_on_c, 0, 69, 54
3, 42720, Note_on_c, 0, 69, 0
3, 42720, Note_on_c, 0, 65, 0
3, 42720, Note_on_c, 0, 63, 0
3, 42720, Note_on_c, 0, 63, 54
3, 42720, Note_on_c, 0, 65, 54
3, 42720, Note_on_c, 0, 69, 54
3, 42840, Note_on_c, 0, 69, 0
3, 42840, Note_on_c, 0, 65, 0
3, 42840, Note_on_c, 0, 63, 0
3, 42840, Note_on_c, 0, 63, 54
3, 42840, Note_on_c, 0, 65, 54
3, 42840, Note_on_c, 0, 69, 54
3, 42960, Note_on_c, 0, 69, 0
3, 42960, Note_on_c, 0, 65, 0
3, 42960, Note_on_c, 0, 63, 0
3, 42960, Note_on_c, 0, 63, 54
3, 42960, Note_on_c, 0, 65, 54
3, 42960, Note_on_c, 0, 69, 54
3, 43080, Note_on_c, 0, 69, 0
3, 43080, Note_on_c, 0, 65, 0
3, 43080, Note_on_c, 0, 63, 0
3, 43080, Note_on_c, 0, 63, 54
3, 43080, Note_on_c, 0, 65, 54
3, 43080, Note_on_c, 0, 69, 54
3, 43200, Note_on_c, 0, 69, 0
3, 43200, Note_on_c, 0, 65, 0
3, 43200, Note_on_c, 0, 63, 0
3, 43200, Note_on_c, 0, 65, 54
3, 43320, Note_on_c, 0, 65, 0
3, 43320, Note_on_c, 0, 65, 54
3, 43440, Note_on_c, 0, 65, 0
3, 43440, Note_on_c, 0, 65, 54
3, 43560, Note_on_c, 0, 65, 0
3, 43560, Note_on_c, 0, 65, 54
3, 43680, Note_on_c, 0, 65, 0
3, 43680, Note_on_c, 0, 65, 54
3, 43800, Note_on_c, 0, 65, 0
3, 43800, Note_on_c, 0, 65, 54
3, 43920, Note_on_c, 0, 65, 0
3, 43920, Note_on_c, 0, 65, 54
3, 44040, Note_on_c, 0, 65, 0
3, 44040, Note_on_c, 0, 65, 54
3, 44160, Note_on_c, 0, 65, 0
3, 44160, Note_on_c, 0, 67, 54
3, 44160, Note_on_c, 0, 70, 54
3, 44280, Note_on_c, 0, 70, 0
3, 44280, Note_on_c, 0, 67, 0
3, 44280, Note_on_c, 0, 67, 54
3, 44280, Note_on_c, 0, 70, 54
3, 44400, Note_on_c, 0, 70, 0
3, 44400, Note_on_c, 0, 67, 0
3, 44400, Note_on_c, 0, 67, 54
3, 44400, Note_on_c, 0, 70, 54
3, 44520, Note_on_c, 0, 70, 0
3, 44520, Note_on_c, 0, 67, 0
3, 44520, Note_on_c, 0, 67, 54
3, 44520, Note_on_c, 0, 70, 54
3, 44640, Note_on_c, 0, 70, 0
3, 44640, Note_on_c, 0, 67, 0
3, 44640, Note_on_c, 0, 67, 54
3, 44640, Note_on_c, 0, 70, 54
3, 44760, Note_on_c, 0, 70, 0
3, 44760, Note_on_c, 0, 67, 0
3, 44760, Note_on_c, 0, 67, 54
3, 44760, Note_on_c, 0, 70, 54
3, 44880, Note_on_c, 0, 70, 0
3, 44880, Note_on_c, 0, 67, 0
3, 44880, Note_on_c, 0, 67, 54
3, 44880, Note_on_c, 0, 70, 54
3, 45000, Note_on_c, 0, 70, 0
3, 45000, Note_on_c, 0, 67, 0
3, 45000, Note_on_c, 0, 67, 54
3, 45000, Note_on_c, 0, 70, 54
3, 45120, Note_on_c, 0, 70, 0
3, 45120, Note_on_c, 0, 67, 0
3, 45120, Note_on_c, 0, 65, 54
3, 45120, Note_on_c, 0, 68, 54
3, 45240, Note_on_c, 0, 68, 0
3, 45240, Note_on_c, 0, 65, 0
3, 45240, Note_on_c, 0, 65, 54
3, 45240, Note_on_c, 0, 68, 54
3, 45360, Note_on_c, 0, 68, 0
3, 45360, Note_on_c, 0, 65, 0
3, 45360, Note_on_c, 0, 61, 54
3, 45360, Note_on_c, 0, 65, 54
3, 45480, Note_on_c, 0, 65, 0
3, 45480, Note_on_c, 0, 61, 0
3, 45480, Note_on_c, 0, 61, 54
3, 45480, Note_on_c, 0, 65, 54
3, 45600, Note_on_c, 0, 65, 0
3, 45600, Note_on_c, 0, 61, 0
3, 45600, Note_on_c, 0, 60, 54
3, 45600, Note_on_c, 0, 65, 54
3, 45720, Note_on_c, 0, 65, 0
3, 45720, Note_on_c, 0, 60, 0
3, 45720, Note_on_c, 0, 60, 54
3, 45720, Note_on_c, 0, 65, 54
3, 45840, Note_on_c, 0, 65, 0
3, 45840, Note_on_c, 0, 60, 0
3, 45840, Note_on_c, 0, 60, 54
3, 45840, Note_on_c, 0, 64, 54
3, 45960, Note_on_c, 0, 64, 0
3, 45960, Note_on_c, 0, 60, 0
3, 45960, Note_on_c, 0, 60, 54
3, 45960, Note_on_c, 0, 64, 54
3, 46080, Note_on_c, 0, 64, 0
3, 46080, Note_on_c, 0, 60, 0
3, 46080, Note_on_c, 0, 58, 54
3, 46200, Note_on_c, 0, 58, 0
3, 46200, Note_on_c, 0, 58, 54
3, 46320, Note_on_c, 0, 58, 0
3, 46320, Note_on_c, 0, 60, 54
3, 46440, Note_on_c, 0, 60, 0
3, 46440, Note_on_c, 0, 60, 54
3, 46560, Note_on_c, 0, 60, 0
3, 46560, Note_on_c, 0, 61, 54
3, 46680, Note_on_c, 0, 61, 0
3, 46680, Note_on_c, 0, 61, 54
3, 46800, Note_on_c, 0, 61, 0
3, 46800, Note_on_c, 0, 58, 54
3, 46920, Note_on_c, 0, 58, 0
3, 46920, Note_on_c, 0, 58, 54
3, 47040, Note_on_c, 0, 58, 0
3, 47040, Note_on_c, 0, 55, 54
3, 47160, Note_on_c, 0, 55, 0
3, 47160, Note_on_c, 0, 55, 54
3, 47280, Note_on_c, 0, 55, 0
3, 47280, Note_on_c, 0, 59, 54
3, 47400, Note_on_c, 0, 59, 0
3, 47400, Note_on_c, 0, 59, 54
3, 47520, Note_on_c, 0, 59, 0
3, 47520, Note_on_c, 0, 55, 54
3, 47640, Note_on_c, 0, 55, 0
3, 47640, Note_on_c, 0, 55, 54
3, 47760, Note_on_c, 0, 55, 0
3, 47760, Note_on_c, 0, 59, 54
3, 47760, Note_on_c, 0, 62, 54
3, 47880, Note_on_c, 0, 62, 0
3, 47880, Note_on_c, 0, 59, 0
3, 47880, Note_on_c, 0, 59, 54
3, 47880, Note_on_c, 0, 62, 54
3, 48000, Note_on_c, 0, 62, 0
3, 48000, Note_on_c, 0, 59, 0
3, 48000, Note_on_c, 0, 60, 54
3, 48000, Note_on_c, 0, 64, 54
3, 48120, Note_on_c, 0, 64, 0
3, 48120, Note_on_c, 0, 60, 0
3, 48120, Note_on_c, 0, 60, 54
3, 48120, Note_on_c, 0, 64, 54
3, 48240, Note_on_c, 0, 64, 0
3, 48240, Note_on_c, 0, 60, 0
3, 48240, Note_on_c, 0, 65, 54
3, 48360, Note_on_c, 0, 65, 0
3, 48360, Note_on_c, 0, 65, 54
3, 48480, Note_on_c, 0, 65, 0
3, 48480, Note_on_c, 0, 67, 54
3, 48600, Note_on_c, 0, 67, 0
3, 48600, Note_on_c, 0, 67, 54
3, 48720, Note_on_c, 0, 67, 0
3, 48720, Note_on_c, 0, 67, 54
3, 48720, Note_on_c, 0, 70, 54
3, 48840, Note_on_c, 0, 70, 0
3, 48840, Note_on_c, 0, 67, 0
3, 48840, Note_on_c, 0, 67, 54
3, 48840, Note_on_c, 0, 70, 54
3, 48960, Note_on_c, 0, 70, 0
3, 48960, Note_on_c, 0, 67, 0
3, 48960, Note_on_c, 0, 63, 54
3, 48960, Note_on_c, 0, 65, 54
3, 48960, Note_on_c, 0, 69, 54
3, 49080, Note_on_c, 0, 69, 0
3, 49080, Note_on_c, 0, 65, 0
3, 49080, Note_on_c, 0, 63, 0
3, 49080, Note_on_c, 0, 63, 54
3, 49080, Note_on_c, 0, 65, 54
3, 49080, Note_on_c, 0, 69, 54
3, 49200, Note_on_c, 0, 69, 0
3, 49200, Note_on_c, 0, 65, 0
3, 49200, Note_on_c, 0, 63, 0
3, 49200, Note_on_c, 0, 63, 54
3, 49200, Note_on_c, 0, 65, 54
3, 49200, Note_on_c, 0, 69, 54
3, 49320, Note_on_c, 0, 69, 0
3, 49320, Note_on_c, 0, 65, 0
3, 49320, Note_on_c, 0, 63, 0
3, 49320, Note_on_c, 0, 63, 54
3, 49320, Note_on_c, 0, 65, 54
3, 49320, Note_on_c, 0, 69, 54
3, 49440, Note_on_c, 0, 69, 0
3, 49440, Note_on_c, 0, 65, 0
3, 49440, Note_on_c, 0, 63, 0
3, 49440, Note_on_c, 0, 63, 54
3, 49440, Note_on_c, 0, 65, 54
3, 49440, Note_on_c, 0, 69, 54
3, 49560, Note_on_c, 0, 69, 0
3, 49560, Note_on_c, 0, 65, 0
3, 49560, Note_on_c, 0, 63, 0
3, 49560, Note_on_c, 0, 63, 54
3, 49560, Note_on_c, 0, 65, 54
3, 49560, Note_on_c, 0, 69, 54
3, 49680, Note_on_c, 0, 69, 0
3, 49680, Note_on_c, 0, 65, 0
3, 49680, Note_on_c, 0, 63, 0
3, 49680, Note_on_c, 0, 63, 54
3, 49680, Note_on_c, 0, 65, 54
3, 49680, Note_on_c, 0, 69, 54
3, 49800, Note_on_c, 0, 69, 0
3, 49800, Note_on_c, 0, 65, 0
3, 49800, Note_on_c, 0, 63, 0
3, 49800, Note_on_c, 0, 63, 54
3, 49800, Note_on_c, 0, 65, 54
3, 49800, Note_on_c, 0, 69, 54
3, 49920, Note_on_c, 0, 69, 0
3, 49920, Note_on_c, 0, 65, 0
3, 49920, Note_on_c, 0, 63, 0
3, 49920, Note_on_c, 0, 61, 54
3, 49920, Note_on_c, 0, 65, 54
3, 50040, Note_on_c, 0, 65, 0
3, 50040, Note_on_c, 0, 61, 0
3, 50040, Note_on_c, 0, 61, 54
3, 50040, Note_on_c, 0, 65, 54
3, 50160, Note_on_c, 0, 65, 0
3, 50160, Note_on_c, 0, 61, 0
3, 50160, Note_on_c, 0, 61, 54
3, 50160, Note_on_c, 0, 65, 54
3, 50280, Note_on_c, 0, 65, 0
3, 50280, Note_on_c, 0, 61, 0
3, 50280, Note_on_c, 0, 61, 54
3, 50280, Note_on_c, 0, 65, 54
3, 50400, Note_on_c, 0, 65, 0
3, 50400, Note_on_c, 0, 61, 0
3, 50400, Note_on_c, 0, 60, 54
3, 50400, Note_on_c, 0, 63, 54
3, 50520, Note_on_c, 0, 63, 0
3, 50520, Note_on_c, 0, 60, 0
3, 50520, Note_on_c, 0, 60, 54
3, 50520, Note_on_c, 0, 63, 54
3, 50640, Note_on_c, 0, 63, 0
3, 50640, Note_on_c, 0, 60, 0
3, 50640, Note_on_c, 0, 61, 54
3, 50760, Note_on_c, 0, 61, 0
3, 50760, Note_on_c, 0, 61, 54
3, 50880, Note_on_c, 0, 61, 0
3, 50880, Note_on_c, 0, 63, 54
3, 50880, Note_on_c, 0, 65, 54
3, 50880, Note_on_c, 0, 69, 54
3, 51000, Note_on_c, 0, 69, 0
3, 51000, Note_on_c, 0, 65, 0
3, 51000, Note_on_c, 0, 63, 0
3, 51000, Note_on_c, 0, 63, 54
3, 51000, Note_on_c, 0, 65, 54
3, 51000, Note_on_c, 0, 69, 54
3, 51120, Note_on_c, 0, 69, 0
3, 51120, Note_on_c, 0, 65, 0
3, 51120, Note_on_c, 0, 63, 0
3, 51120, Note_on_c, 0, 63, 54
3, 51120, Note_on_c, 0, 65, 54
3, 51120, Note_on_c, 0, 69, 54
3, 51240, Note_on_c, 0, 69, 0
3, 51240, Note_on_c, 0, 65, 0
3, 51240, Note_on_c, 0, 63, 0
3, 51240, Note_on_c, 0, 63, 54
3, 51240, Note_on_c, 0, 65, 54
3, 51240, Note_on_c, 0, 69, 54
3, 51360, Note_on_c, 0, 69, 0
3, 51360, Note_on_c, 0, 65, 0
3, 51360, Note_on_c, 0, 63, 0
3, 51360, Note_on_c, 0, 63, 54
3, 51360, Note_on_c, 0, 65, 54
3, 51360, Note_on_c, 0, 69, 54
3, 51480, Note_on_c, 0, 69, 0
3, 51480, Note_on_c, 0, 65, 0
3, 51480, Note_on_c, 0, 63, 0
3, 51480, Note_on_c, 0, 63, 54
3, 51480, Note_on_c, 0, 65, 54
3, 51480, Note_on_c, 0, 69, 54
3, 51600, Note_on_c, 0, 69, 0
3, 51600, Note_on_c, 0, 65, 0
3, 51600, Note_on_c, 0, 63, 0
3, 51600, Note_on_c, 0, 63, 54
3, 51600, Note_on_c, 0, 65, 54
3, 51600, Note_on_c, 0, 69, 54
3, 51720, Note_on_c, 0, 69, 0
3, 51720, Note_on_c, 0, 65, 0
3, 51720, Note_on_c, 0, 63, 0
3, 51720, Note_on_c, 0, 63, 54
3, 51720, Note_on_c, 0, 65, 54
3, 51720, Note_on_c, 0, 69, 54
3, 51840, Note_on_c, 0, 69, 0
3, 51840, Note_on_c, 0, 65, 0
3, 51840, Note_on_c, 0, 63, 0
3, 51840, Note_on_c, 0, 61, 54
3, 51840, Note_on_c, 0, 65, 54
3, 51960, Note_on_c, 0, 65, 0
3, 51960, Note_on_c, 0, 61, 0
3, 51960, Note_on_c, 0, 61, 54
3, 51960, Note_on_c, 0, 65, 54
3, 52080, Note_on_c, 0, 65, 0
3, 52080, Note_on_c, 0, 61, 0
3, 52080, Note_on_c, 0, 61, 54
3, 52080, Note_on_c, 0, 65, 54
3, 52200, Note_on_c, 0, 65, 0
3, 52200, Note_on_c, 0, 61, 0
3, 52200, Note_on_c, 0, 61, 54
3, 52200, Note_on_c, 0, 65, 54
3, 52320, Note_on_c, 0, 65, 0
3, 52320, Note_on_c, 0, 61, 0
3, 52320, Note_on_c, 0, 61, 54
3, 52320, Note_on_c, 0, 65, 54
3, 52440, Note_on_c, 0, 65, 0
3, 52440, Note_on_c, 0, 61, 0
3, 52440, Note_on_c, 0, 61, 54
3, 52440, Note_on_c, 0, 65, 54
3, 52560, Note_on_c, 0, 65, 0
3, 52560, Note_on_c, 0, 61, 0
3, 52560, Note_on_c, 0, 60, 54
3, 52560, Note_on_c, 0, 65, 54
3, 52680, Note_on_c, 0, 65, 0
3, 52680, Note_on_c, 0, 60, 0
3, 52680, Note_on_c, 0, 60, 54
3, 52680, Note_on_c, 0, 65, 54
3, 52800, Note_on_c, 0, 65, 0
3, 52800, Note_on_c, 0, 60, 0
3, 52800, Note_on_c, 0, 59, 54
3, 52800, Note_on_c, 0, 61, 54
3, 52920, Note_on_c, 0, 61, 0
3, 52920, Note_on_c, 0, 59, 0
3, 52920, Note_on_c, 0, 59, 54
3, 52920, Note_on_c, 0, 61, 54
3, 53040, Note_on_c, 0, 61, 0
3, 53040, Note_on_c, 0, 59, 0
3, 53040, Note_on_c, 0, 59, 54
3, 53040, Note_on_c, 0, 61, 54
3, 53160, Note_on_c, 0, 61, 0
3, 53160, Note_on_c, 0, 59, 0
3, 53160, Note_on_c, 0, 59, 54
3, 53160, Note_on_c, 0, 61, 54
3, 53280, Note_on_c, 0, 61, 0
3, 53280, Note_on_c, 0, 59, 0
3, 53280, Note_on_c, 0, 59, 54
3, 53280, Note_on_c, 0, 61, 54
3, 53400, Note_on_c, 0, 61, 0
3, 53400, Note_on_c, 0, 59, 0
3, 53400, Note_on_c, 0, 59, 54
3, 53400, Note_on_c, 0, 61, 54
3, 53520, Note_on_c, 0, 61, 0
3, 53520, Note_on_c, 0, 59, 0
3, 53520, Note_on_c, 0, 59, 54
3, 53520, Note_on_c, 0, 61, 54
3, 53640, Note_on_c, 0, 61, 0
3, 53640, Note_on_c, 0, 59, 0
3, 53640, Note_on_c, 0, 59, 54
3, 53640, Note_on_c, 0, 61, 54
3, 53760, Note_on_c, 0, 61, 0
3, 53760, Note_on_c, 0, 59, 0
3, 53760, Note_on_c, 0, 59, 54
3, 53760, Note_on_c, 0, 61, 54
3, 53880, Note_on_c, 0, 61, 0
3, 53880, Note_on_c, 0, 59, 0
3, 53880, Note_on_c, 0, 59, 54
3, 53880, Note_on_c, 0, 61, 54
3, 54000, Note_on_c, 0, 61, 0
3, 54000, Note_on_c, 0, 59, 0
3, 54000, Note_on_c, 0, 59, 54
3, 54000, Note_on_c, 0, 61, 54
3, 54120, Note_on_c, 0, 61, 0
3, 54120, Note_on_c, 0, 59, 0
3, 54120, Note_on_c, 0, 59, 54
3, 54120, Note_on_c, 0, 61, 54
3, 54240, Note_on_c, 0, 61, 0
3, 54240, Note_on_c, 0, 59, 0
3, 54240, Note_on_c, 0, 59, 54
3, 54240, Note_on_c, 0, 61, 54
3, 54360, Note_on_c, 0, 61, 0
3, 54360, Note_on_c, 0, 59, 0
3, 54360, Note_on_c, 0, 59, 54
3, 54360, Note_on_c, 0, 61, 54
3, 54480, Note_on_c, 0, 61, 0
3, 54480, Note_on_c, 0, 59, 0
3, 54480, Note_on_c, 0, 59, 54
3, 54480, Note_on_c, 0, 61, 54
3, 54600, Note_on_c, 0, 61, 0
3, 54600, Note_on_c, 0, 59, 0
3, 54600, Note_on_c, 0, 59, 54
3, 54600, Note_on_c, 0, 61, 54
3, 54720, Note_on_c, 0, 61, 0
3, 54720, Note_on_c, 0, 59, 0
3, 54720, Note_on_c, 0, 65, 54
3, 54840, Note_on_c, 0, 65, 0
3, 54840, Note_on_c, 0, 65, 54
3, 54960, Note_on_c, 0, 65, 0
3, 54960, Note_on_c, 0, 65, 54
3, 55080, Note_on_c, 0, 65, 0
3, 55080, Note_on_c, 0, 65, 54
3, 55200, Note_on_c, 0, 65, 0
3, 55200, Note_on_c, 0, 60, 54
3, 55200, Note_on_c, 0, 64, 54
3, 55320, Note_on_c, 0, 64, 0
3, 55320, Note_on_c, 0, 60, 0
3, 55320, Note_on_c, 0, 60, 54
3, 55320, Note_on_c, 0, 64, 54
3, 55440, Note_on_c, 0, 64, 0
3, 55440, Note_on_c, 0, 60, 0
3, 55440, Note_on_c, 0, 60, 54
3, 55440, Note_on_c, 0, 64, 54
3, 55560, Note_on_c, 0, 64, 0
3, 55560, Note_on_c, 0, 60, 0
3, 55560, Note_on_c, 0, 60, 54
3, 55560, Note_on_c, 0, 64, 54
3, 55680, Note_on_c, 0, 64, 0
3, 55680, Note_on_c, 0, 60, 0
3, 58080, Note_on_c, 0, 65, 54
3, 58200, Note_on_c, 0, 65, 0
3, 58200, Note_on_c, 0, 65, 54
3, 58320, Note_on_c, 0, 65, 0
3, 58320, Note_on_c, 0, 65, 54
3, 58440, Note_on_c, 0, 65, 0
3, 58440, Note_on_c, 0, 65, 54
3, 58560, Note_on_c, 0, 65, 0
3, 58560, Note_on_c, 0, 61, 54
3, 58560, Note_on_c, 0, 64, 54
3, 58680, Note_on_c, 0, 64, 0
3, 58680, Note_on_c, 0, 61, 0
3, 58680, Note_on_c, 0, 61, 54
3, 58680, Note_on_c, 0, 64, 54
3, 58800, Note_on_c, 0, 64, 0
3, 58800, Note_on_c, 0, 61, 0
3, 58800, Note_on_c, 0, 58, 54
3, 58920, Note_on_c, 0, 58, 0
3, 58920, Note_on_c, 0, 58, 54
3, 59040, Note_on_c, 0, 58, 0
3, 59040, Note_on_c, 0, 56, 54
3, 59040, Note_on_c, 0, 60, 54
3, 59160, Note_on_c, 0, 60, 0
3, 59160, Note_on_c, 0, 56, 0
3, 59160, Note_on_c, 0, 56, 54
3, 59160, Note_on_c, 0, 60, 54
3, 59280, Note_on_c, 0, 60, 0
3, 59280, Note_on_c, 0, 56, 0
3, 59280, Note_on_c, 0, 56, 54
3, 59280, Note_on_c, 0, 60, 54
3, 59400, Note_on_c, 0, 60, 0
3, 59400, Note_on_c, 0, 56, 0
3, 59400, Note_on_c, 0, 56, 54
3, 59400, Note_on_c, 0, 60, 54
3, 59520, Note_on_c, 0, 60, 0
3, 59520, Note_on_c, 0, 56, 0
3, 59520, Note_on_c, 0, 57, 54
3, 59520, Note_on_c, 0, 60, 54
3, 59640, Note_on_c, 0, 60, 0
3, 59640, Note_on_c, 0, 57, 0
3, 59640, Note_on_c, 0, 57, 54
3, 59640, Note_on_c, 0, 60, 54
3, 59760, Note_on_c, 0, 60, 0
3, 59760, Note_on_c, 0, 57, 0
3, 59760, Note_on_c, 0, 56, 54
3, 59880, Note_on_c, 0, 56, 0
3, 59880, Note_on_c, 0, 56, 54
3, 60000, Note_on_c, 0, 56, 0
3, 61440, Note_on_c, 0, 56, 54
3, 61440, Note_on_c, 0, 60, 54
3, 61560, Note_on_c, 0, 60, 0
3, 61560, Note_on_c, 0, 56, 0
3, 61560, Note_on_c, 0, 56, 54
3, 61560, Note_on_c, 0, 60, 54
3, 61680, Note_on_c, 0, 60, 0
3, 61680, Note_on_c, 0, 56, 0
3, 61680, Note_on_c, 0, 57, 54
3, 61680, Note_on_c, 0, 60, 54
3, 61800, Note_on_c, 0, 60, 0
3, 61800, Note_on_c, 0, 57, 0
3, 61800, Note_on_c, 0, 57, 54
3, 61800, Note_on_c, 0, 60, 54
3, 61920, Note_on_c, 0, 60, 0
3, 61920, Note_on_c, 0, 57, 0
3, 61920, Note_on_c, 0, 58, 54
3, 62040, Note_on_c, 0, 58, 0
3, 62040, Note_on_c, 0, 58, 54
3, 62160, Note_on_c, 0, 58, 0
3, 62160, Note_on_c, 0, 58, 54
3, 62280, Note_on_c, 0, 58, 0
3, 62280, Note_on_c, 0, 58, 54
3, 62400, Note_on_c, 0, 58, 0
3, 62880, Note_on_c, 0, 58, 54
3, 62880, Note_on_c, 0, 60, 54
3, 63000, Note_on_c, 0, 60, 0
3, 63000, Note_on_c, 0, 58, 0
3, 63000, Note_on_c, 0, 58, 54
3, 63000, Note_on_c, 0, 60, 54
3, 63120, Note_on_c, 0, 60, 0
3, 63120, Note_on_c, 0, 58, 0
3, 63120, Note_on_c, 0, 58, 54
3, 63120, Note_on_c, 0, 60, 54
3, 63240, Note_on_c, 0, 60, 0
3, 63240, Note_on_c, 0, 58, 0
3, 63240, Note_on_c, 0, 58, 54
3, 63240, Note_on_c, 0, 60, 54
3, 63360, Note_on_c, 0, 60, 0
3, 63360, Note_on_c, 0, 58, 0
3, 63360, Note_on_c, 0, 56, 54
3, 63360, Note_on_c, 0, 60, 54
3, 63480, Note_on_c, 0, 60, 0
3, 63480, Note_on_c, 0, 56, 0
3, 63480, Note_on_c, 0, 56, 54
3, 63480, Note_on_c, 0, 60, 54
3, 63600, Note_on_c, 0, 60, 0
3, 63600, Note_on_c, 0, 56, 0
3, 63600, Note_on_c, 0, 56, 54
3, 63600, Note_on_c, 0, 60, 54
3, 63720, Note_on_c, 0, 60, 0
3, 63720, Note_on_c, 0, 56, 0
3, 63720, Note_on_c, 0, 56, 54
3, 63720, Note_on_c, 0, 60, 54
3, 63840, Note_on_c, 0, 60, 0
3, 63840, Note_on_c, 0, 56, 0
3, 63840, Note_on_c, 0, 56, 54
3, 63840, Note_on_c, 0, 60, 54
3, 63960, Note_on_c, 0, 60, 0
3, 63960, Note_on_c, 0, 56, 0
3, 63960, Note_on_c, 0, 56, 54
3, 63960, Note_on_c, 0, 60, 54
3, 64080, Note_on_c, 0, 60, 0
3, 64080, Note_on_c, 0, 56, 0
3, 64080, Note_on_c, 0, 56, 54
3, 64080, Note_on_c, 0, 60, 54
3, 64200, Note_on_c, 0, 60, 0
3, 64200, Note_on_c, 0, 56, 0
3, 64200, Note_on_c, 0, 56, 54
3, 64200, Note_on_c, 0, 60, 54
3, 64320, Note_on_c, 0, 60, 0
3, 64320, Note_on_c, 0, 56, 0
3, 64320, Note_on_c, 0, 63, 54
3, 64320, Note_on_c, 0, 65, 54
3, 64440, Note_on_c, 0, 65, 0
3, 64440, Note_on_c, 0, 63, 0
3, 64440, Note_on_c, 0, 63, 54
3, 64440, Note_on_c, 0, 65, 54
3, 64560, Note_on_c, 0, 65, 0
3, 64560, Note_on_c, 0, 63, 0
3, 64560, Note_on_c, 0, 63, 54
3, 64560, Note_on_c, 0, 65, 54
3, 64680, Note_on_c, 0, 65, 0
3, 64680, Note_on_c, 0, 63, 0
3, 64680, Note_on_c, 0, 63, 54
3, 64680, Note_on_c, 0, 65, 54
3, 64800, Note_on_c, 0, 65, 0
3, 64800, Note_on_c, 0, 63, 0
3, 64800, Note_on_c, 0, 63, 54
3, 64800, Note_on_c, 0, 65, 54
3, 64920, Note_on_c, 0, 65, 0
3, 64920, Note_on_c, 0, 63, 0
3, 64920, Note_on_c, 0, 63, 54
3, 64920, Note_on_c, 0, 65, 54
3, 65040, Note_on_c, 0, 65, 0
3, 65040, Note_on_c, 0, 63, 0
3, 65040, Note_on_c, 0, 63, 54
3, 65040, Note_on_c, 0, 65, 54
3, 65160, Note_on_c, 0, 65, 0
3, 65160, Note_on_c, 0, 63, 0
3, 65160, Note_on_c, 0, 63, 54
3, 65160, Note_on_c, 0, 65, 54
3, 65280, Note_on_c, 0, 65, 0
3, 65280, Note_on_c, 0, 63, 0
3, 65280, Note_on_c, 0, 63, 54
3, 65280, Note_on_c, 0, 65, 54
3, 65400, Note_on_c, 0, 65, 0
3, 65400, Note_on_c, 0, 63, 0
3, 65400, Note_on_c, 0, 63, 54
3, 65400, Note_on_c, 0, 65, 54
3, 65520, Note_on_c, 0, 65, 0
3, 65520, Note_on_c, 0, 63, 0
3, 65520, Note_on_c, 0, 63, 54
3, 65520, Note_on_c, 0, 65, 54
3, 65640, Note_on_c, 0, 65, 0
3, 65640, Note_on_c, 0, 63, 0
3, 65640, Note_on_c, 0, 63, 54
3, 65640, Note_on_c, 0, 65, 54
3, 65760, Note_on_c, 0, 65, 0
3, 65760, Note_on_c, 0, 63, 0
3, 65760, Note_on_c, 0, 63, 54
3, 65760, Note_on_c, 0, 65, 54
3, 65880, Note_on_c, 0, 65, 0
3, 65880, Note_on_c, 0, 63, 0
3, 65880, Note_on_c, 0, 63, 54
3, 65880, Note_on_c, 0, 65, 54
3, 66000, Note_on_c, 0, 65, 0
3, 66000, Note_on_c, 0, 63, 0
3, 66000, Note_on_c, 0, 60, 54
3, 66000, Note_on_c, 0, 63, 54
3, 66120, Note_on_c, 0, 63, 0
3, 66120, Note_on_c, 0, 60, 0
3, 66120, Note_on_c, 0, 60, 54
3, 66120, Note_on_c, 0, 63, 54
3, 66240, Note_on_c, 0, 63, 0
3, 66240, Note_on_c, 0, 60, 0
3, 66240, Note_on_c, 0, 61, 54
3, 66360, Note_on_c, 0, 61, 0
3, 66360, Note_on_c, 0, 61, 54
3, 66480, Note_on_c, 0, 61, 0
3, 66480, Note_on_c, 0, 61, 54
3, 66600, Note_on_c, 0, 61, 0
3, 66600, Note_on_c, 0, 61, 54
3, 66720, Note_on_c, 0, 61, 0
3, 66720, Note_on_c, 0, 60, 54
3, 66840, Note_on_c, 0, 60, 0
3, 66840, Note_on_c, 0, 60, 54
3, 66960, Note_on_c, 0, 60, 0
3, 66960, Note_on_c, 0, 58, 54
3, 67080, Note_on_c, 0, 58, 0
3, 67080, Note_on_c, 0, 58, 54
3, 67200, Note_on_c, 0, 58, 0
3, 67200, Note_on_c, 0, 55, 54
3, 67200, Note_on_c, 0, 58, 54
3, 67320, Note_on_c, 0, 58, 0
3, 67320, Note_on_c, 0, 55, 0
3, 67320, Note_on_c, 0, 55, 54
3, 67320, Note_on_c, 0, 58, 54
3, 67440, Note_on_c, 0, 58, 0
3, 67440, Note_on_c, 0, 55, 0
3, 67440, Note_on_c, 0, 55, 54
3, 67440, Note_on_c, 0, 58, 54
3, 67560, Note_on_c, 0, 58, 0
3, 67560, Note_on_c, 0, 55, 0
3, 67560, Note_on_c, 0, 55, 54
3, 67560, Note_on_c, 0, 58, 54
3, 67680, Note_on_c, 0, 58, 0
3, 67680, Note_on_c, 0, 55, 0
3, 67680, Note_on_c, 0, 55, 54
3, 67680, Note_on_c, 0, 58, 54
3, 67800, Note_on_c, 0, 58, 0
3, 67800, Note_on_c, 0, 55, 0
3, 67800, Note_on_c, 0, 55, 54
3, 67800, Note_on_c, 0, 58, 54
3, 67920, Note_on_c, 0, 58, 0
3, 67920, Note_on_c, 0, 55, 0
3, 67920, Note_on_c, 0, 55, 54
3, 67920, Note_on_c, 0, 58, 54
3, 68040, Note_on_c, 0, 58, 0
3, 68040, Note_on_c, 0, 55, 0
3, 68040, Note_on_c, 0, 55, 54
3, 68040, Note_on_c, 0, 58, 54
3, 68160, Note_on_c, 0, 58, 0
3, 68160, Note_on_c, 0, 55, 0
3, 68160, Note_on_c, 0, 57, 54
3, 68280, Note_on_c, 0, 57, 0
3, 68280, Note_on_c, 0, 57, 54
3, 68400, Note_on_c, 0, 57, 0
3, 68400, Note_on_c, 0, 57, 54
3, 68520, Note_on_c, 0, 57, 0
3, 68520, Note_on_c, 0, 57, 54
3, 68640, Note_on_c, 0, 57, 0
3, 68640, Note_on_c, 0, 57, 54
3, 68760, Note_on_c, 0, 57, 0
3, 68760, Note_on_c, 0, 57, 54
3, 68880, Note_on_c, 0, 57, 0
3, 68880, Note_on_c, 0, 57, 54
3, 69000, Note_on_c, 0, 57, 0
3, 69000, Note_on_c, 0, 57, 54
3, 69120, Note_on_c, 0, 57, 0
3, 69120, Note_on_c, 0, 57, 54
3, 70560, Note_on_c, 0, 57, 0
3, 70560, End_track
4, 0, Start_track
4, 0, Title_t, "Grand Piano"
4, 0, Program_c, 0, 0
4, 0, Control_c, 0, 7, 115
4, 0, Control_c, 0, 10, 41
4, 0, Note_on_c, 0, 53, 54
4, 0, Note_on_c, 0, 56, 54
4, 120, Note_on_c, 0, 56, 0
4, 120, Note_on_c, 0, 53, 0
4, 120, Note_on_c, 0, 53, 54
4, 120, Note_on_c, 0, 56, 54
4, 240, Note_on_c, 0, 56, 0
4, 240, Note_on_c, 0, 53, 0
4, 240, Note_on_c, 0, 53, 54
4, 240, Note_on_c, 0, 56, 54
4, 360, Note_on_c, 0, 56, 0
4, 360, Note_on_c, 0, 53, 0
4, 360, Note_on_c, 0, 53, 54
4, 360, Note_on_c, 0, 56, 54
4, 480, Note_on_c, 0, 56, 0
4, 480, Note_on_c, 0, 53, 0
4, 480, Note_on_c, 0, 53, 54
4, 480, Note_on_c, 0, 56, 54
4, 600, Note_on_c, 0, 56, 0
4, 600, Note_on_c, 0, 53, 0
4, 600, Note_on_c, 0, 53, 54
4, 600, Note_on_c, 0, 56, 54
4, 720, Note_on_c, 0, 56, 0
4, 720, Note_on_c, 0, 53, 0
4, 720, Note_on_c, 0, 53, 54
4, 720, Note_on_c, 0, 56, 54
4, 840, Note_on_c, 0, 56, 0
4, 840, Note_on_c, 0, 53, 0
4, 840, Note_on_c, 0, 53, 54
4, 840, Note_on_c, 0, 56, 54
4, 960, Note_on_c, 0, 56, 0
4, 960, Note_on_c, 0, 53, 0
4, 960, Note_on_c, 0, 53, 54
4, 960, Note_on_c, 0, 57, 54
4, 960, Note_on_c, 0, 60, 54
4, 960, Note_on_c, 0, 63, 54
4, 1080, Note_on_c, 0, 63, 0
4, 1080, Note_on_c, 0, 53, 0
4, 1080, Note_on_c, 0, 57, 0
4, 1080, Note_on_c, 0, 60, 0
4, 1080, Note_on_c, 0, 53, 54
4, 1080, Note_on_c, 0, 57, 54
4, 1080, Note_on_c, 0, 60, 54
4, 1080, Note_on_c, 0, 63, 54
4, 1200, Note_on_c, 0, 63, 0
4, 1200, Note_on_c, 0, 53, 0
4, 1200, Note_on_c, 0, 57, 0
4, 1200, Note_on_c, 0, 60, 0
4, 1200, Note_on_c, 0, 53, 54
4, 1200, Note_on_c, 0, 57, 54
4, 1200, Note_on_c, 0, 60, 54
4, 1200, Note_on_c, 0, 63, 54
4, 1320, Note_on_c, 0, 63, 0
4, 1320, Note_on_c, 0, 53, 0
4, 1320, Note_on_c, 0, 57, 0
4, 1320, Note_on_c, 0, 60, 0
4, 1320, Note_on_c, 0, 53, 54
4, 1320, Note_on_c, 0, 57, 54
4, 1320, Note_on_c, 0, 60, 54
4, 1320, Note_on_c, 0, 63, 54
4, 1440, Note_on_c, 0, 63, 0
4, 1440, Note_on_c, 0, 53, 0
4, 1440, Note_on_c, 0, 57, 0
4, 1440, Note_on_c, 0, 60, 0
4, 1440, Note_on_c, 0, 53, 54
4, 1440, Note_on_c, 0, 57, 54
4, 1440, Note_on_c, 0, 60, 54
4, 1440, Note_on_c, 0, 63, 54
4, 1560, Note_on_c, 0, 63, 0
4, 1560, Note_on_c, 0, 53, 0
4, 1560, Note_on_c, 0, 57, 0
4, 1560, Note_on_c, 0, 60, 0
4, 1560, Note_on_c, 0, 53, 54
4, 1560, Note_on_c, 0, 57, 54
4, 1560, Note_on_c, 0, 60, 54
4, 1560, Note_on_c, 0, 63, 54
4, 1680, Note_on_c, 0, 63, 0
4, 1680, Note_on_c, 0, 53, 0
4, 1680, Note_on_c, 0, 57, 0
4, 1680, Note_on_c, 0, 60, 0
4, 1680, Note_on_c, 0, 53, 67
4, 1680, Note_on_c, 0, 57, 67
4, 1680, Note_on_c, 0, 60, 67
4, 1680, Note_on_c, 0, 63, 67
4, 1800, Note_on_c, 0, 63, 0
4, 1800, Note_on_c, 0, 53, 0
4, 1800, Note_on_c, 0, 57, 0
4, 1800, Note_on_c, 0, 60, 0
4, 1800, Note_on_c, 0, 53, 67
4, 1800, Note_on_c, 0, 57, 67
4, 1800, Note_on_c, 0, 60, 67
4, 1800, Note_on_c, 0, 63, 67
4, 1920, Note_on_c, 0, 63, 0
4, 1920, Note_on_c, 0, 53, 0
4, 1920, Note_on_c, 0, 57, 0
4, 1920, Note_on_c, 0, 60, 0
4, 1920, Note_on_c, 0, 53, 67
4, 1920, Note_on_c, 0, 58, 67
4, 1920, Note_on_c, 0, 61, 67
4, 2040, Note_on_c, 0, 61, 0
4, 2040, Note_on_c, 0, 58, 0
4, 2040, Note_on_c, 0, 53, 0
4, 2040, Note_on_c, 0, 53, 67
4, 2040, Note_on_c, 0, 58, 67
4, 2040, Note_on_c, 0, 61, 67
4, 2160, Note_on_c, 0, 61, 0
4, 2160, Note_on_c, 0, 58, 0
4, 2160, Note_on_c, 0, 53, 0
4, 2160, Note_on_c, 0, 53, 54
4, 2160, Note_on_c, 0, 58, 54
4, 2160, Note_on_c, 0, 61, 54
4, 2280, Note_on_c, 0, 61, 0
4, 2280, Note_on_c, 0, 58, 0
4, 2280, Note_on_c, 0, 53, 0
4, 2280, Note_on_c, 0, 53, 54
4, 2280, Note_on_c, 0, 58, 54
4, 2280, Note_on_c, 0, 61, 54
4, 2400, Note_on_c, 0, 61, 0
4, 2400, Note_on_c, 0, 58, 0
4, 2400, Note_on_c, 0, 53, 0
4, 2400, Note_on_c, 0, 53, 54
4, 2400, Note_on_c, 0, 58, 54
4, 2400, Note_on_c, 0, 61, 54
4, 2520, Note_on_c, 0, 61, 0
4, 2520, Note_on_c, 0, 58, 0
4, 2520, Note_on_c, 0, 53, 0
4, 2520, Note_on_c, 0, 53, 54
4, 2520, Note_on_c, 0, 58, 54
4, 2520, Note_on_c, 0, 61, 54
4, 2640, Note_on_c, 0, 61, 0
4, 2640, Note_on_c, 0, 58, 0
4, 2640, Note_on_c, 0, 53, 0
4, 2640, Note_on_c, 0, 53, 54
4, 2640, Note_on_c, 0, 58, 54
4, 2640, Note_on_c, 0, 61, 54
4, 2760, Note_on_c, 0, 61, 0
4, 2760, Note_on_c, 0, 58, 0
4, 2760, Note_on_c, 0, 53, 0
4, 2760, Note_on_c, 0, 53, 54
4, 2760, Note_on_c, 0, 58, 54
4, 2760, Note_on_c, 0, 61, 54
4, 2880, Note_on_c, 0, 61, 0
4, 2880, Note_on_c, 0, 58, 0
4, 2880, Note_on_c, 0, 53, 0
4, 2880, Note_on_c, 0, 53, 54
4, 2880, Note_on_c, 0, 55, 54
4, 2880, Note_on_c, 0, 58, 54
4, 3000, Note_on_c, 0, 58, 0
4, 3000, Note_on_c, 0, 55, 0
4, 3000, Note_on_c, 0, 53, 0
4, 3000, Note_on_c, 0, 53, 54
4, 3000, Note_on_c, 0, 55, 54
4, 3000, Note_on_c, 0, 58, 54
4, 3120, Note_on_c, 0, 58, 0
4, 3120, Note_on_c, 0, 55, 0
4, 3120, Note_on_c, 0, 53, 0
4, 3120, Note_on_c, 0, 53, 54
4, 3120, Note_on_c, 0, 55, 54
4, 3120, Note_on_c, 0, 58, 54
4, 3240, Note_on_c, 0, 58, 0
4, 3240, Note_on_c, 0, 55, 0
4, 3240, Note_on_c, 0, 53, 0
4, 3240, Note_on_c, 0, 53, 54
4, 3240, Note_on_c, 0, 55, 54
4, 3240, Note_on_c, 0, 58, 54
4, 3360, Note_on_c, 0, 58, 0
4, 3360, Note_on_c, 0, 55, 0
4, 3360, Note_on_c, 0, 53, 0
4, 3360, Note_on_c, 0, 53, 54
4, 3360, Note_on_c, 0, 55, 54
4, 3360, Note_on_c, 0, 58, 54
4, 3480, Note_on_c, 0, 58, 0
4, 3480, Note_on_c, 0, 55, 0
4, 3480, Note_on_c, 0, 53, 0
4, 3480, Note_on_c, 0, 53, 54
4, 3480, Note_on_c, 0, 55, 54
4, 3480, Note_on_c, 0, 58, 54
4, 3600, Note_on_c, 0, 58, 0
4, 3600, Note_on_c, 0, 55, 0
4, 3600, Note_on_c, 0, 53, 0
4, 3600, Note_on_c, 0, 53, 54
4, 3600, Note_on_c, 0, 55, 54
4, 3600, Note_on_c, 0, 58, 54
4, 3720, Note_on_c, 0, 58, 0
4, 3720, Note_on_c, 0, 55, 0
4, 3720, Note_on_c, 0, 53, 0
4, 3720, Note_on_c, 0, 53, 54
4, 3720, Note_on_c, 0, 55, 54
4, 3720, Note_on_c, 0, 58, 54
4, 3840, Note_on_c, 0, 58, 0
4, 3840, Note_on_c, 0, 55, 0
4, 3840, Note_on_c, 0, 53, 0
4, 3840, Note_on_c, 0, 53, 54
4, 3840, Note_on_c, 0, 56, 54
4, 3960, Note_on_c, 0, 56, 0
4, 3960, Note_on_c, 0, 53, 0
4, 3960, Note_on_c, 0, 53, 54
4, 3960, Note_on_c, 0, 56, 54
4, 4080, Note_on_c, 0, 56, 0
4, 4080, Note_on_c, 0, 53, 0
4, 4080, Note_on_c, 0, 53, 54
4, 4080, Note_on_c, 0, 56, 54
4, 4200, Note_on_c, 0, 56, 0
4, 4200, Note_on_c, 0, 53, 0
4, 4200, Note_on_c, 0, 53, 54
4, 4200, Note_on_c, 0, 56, 54
4, 4320, Note_on_c, 0, 56, 0
4, 4320, Note_on_c, 0, 53, 0
4, 4320, Note_on_c, 0, 53, 54
4, 4320, Note_on_c, 0, 56, 54
4, 4440, Note_on_c, 0, 56, 0
4, 4440, Note_on_c, 0, 53, 0
4, 4440, Note_on_c, 0, 53, 54
4, 4440, Note_on_c, 0, 56, 54
4, 4560, Note_on_c, 0, 56, 0
4, 4560, Note_on_c, 0, 53, 0
4, 4560, Note_on_c, 0, 51, 54
4, 4560, Note_on_c, 0, 55, 54
4, 4680, Note_on_c, 0, 55, 0
4, 4680, Note_on_c, 0, 51, 0
4, 4680, Note_on_c, 0, 51, 54
4, 4680, Note_on_c, 0, 55, 54
4, 4800, Note_on_c, 0, 55, 0
4, 4800, Note_on_c, 0, 51, 0
4, 4800, Note_on_c, 0, 49, 54
4, 4800, Note_on_c, 0, 53, 54
4, 4800, Note_on_c, 0, 58, 54
4, 4920, Note_on_c, 0, 58, 0
4, 4920, Note_on_c, 0, 53, 0
4, 4920, Note_on_c, 0, 49, 0
4, 4920, Note_on_c, 0, 49, 54
4, 4920, Note_on_c, 0, 53, 54
4, 4920, Note_on_c, 0, 58, 54
4, 5040, Note_on_c, 0, 58, 0
4, 5040, Note_on_c, 0, 53, 0
4, 5040, Note_on_c, 0, 49, 0
4, 5040, Note_on_c, 0, 48, 54
4, 5040, Note_on_c, 0, 53, 54
4, 5040, Note_on_c, 0, 60, 54
4, 5160, Note_on_c, 0, 60, 0
4, 5160, Note_on_c, 0, 53, 0
4, 5160, Note_on_c, 0, 48, 0
4, 5160, Note_on_c, 0, 48, 54
4, 5160, Note_on_c, 0, 53, 54
4, 5160, Note_on_c, 0, 60, 54
4, 5280, Note_on_c, 0, 60, 0
4, 5280, Note_on_c, 0, 53, 0
4, 5280, Note_on_c, 0, 48, 0
4, 5280, Note_on_c, 0, 46, 54
4, 5280, Note_on_c, 0, 53, 54
4, 5280, Note_on_c, 0, 55, 54
4, 5400, Note_on_c, 0, 55, 0
4, 5400, Note_on_c, 0, 53, 0
4, 5400, Note_on_c, 0, 46, 0
4, 5400, Note_on_c, 0, 46, 54
4, 5400, Note_on_c, 0, 53, 54
4, 5400, Note_on_c, 0, 55, 54
4, 5520, Note_on_c, 0, 55, 0
4, 5520, Note_on_c, 0, 53, 0
4, 5520, Note_on_c, 0, 46, 0
4, 5520, Note_on_c, 0, 49, 54
4, 5520, Note_on_c, 0, 53, 54
4, 5520, Note_on_c, 0, 55, 54
4, 5640, Note_on_c, 0, 55, 0
4, 5640, Note_on_c, 0, 53, 0
4, 5640, Note_on_c, 0, 49, 0
4, 5640, Note_on_c, 0, 49, 54
4, 5640, Note_on_c, 0, 53, 54
4, 5640, Note_on_c, 0, 55, 54
4, 5760, Note_on_c, 0, 55, 0
4, 5760, Note_on_c, 0, 53, 0
4, 5760, Note_on_c, 0, 49, 0
4, 5760, Note_on_c, 0, 48, 54
4, 5760, Note_on_c, 0, 52, 54
4, 5880, Note_on_c, 0, 52, 0
4, 5880, Note_on_c, 0, 48, 0
4, 5880, Note_on_c, 0, 48, 54
4, 5880, Note_on_c, 0, 52, 54
4, 6000, Note_on_c, 0, 52, 0
4, 6000, Note_on_c, 0, 48, 0
4, 6000, Note_on_c, 0, 48, 54
4, 6000, Note_on_c, 0, 53, 54
4, 6000, Note_on_c, 0, 56, 54
4, 6120, Note_on_c, 0, 56, 0
4, 6120, Note_on_c, 0, 53, 0
4, 6120, Note_on_c, 0, 48, 0
4, 6120, Note_on_c, 0, 48, 54
4, 6120, Note_on_c, 0, 53, 54
4, 6120, Note_on_c, 0, 56, 54
4, 6240, Note_on_c, 0, 56, 0
4, 6240, Note_on_c, 0, 53, 0
4, 6240, Note_on_c, 0, 48, 0
4, 6240, Note_on_c, 0, 48, 54
4, 6240, Note_on_c, 0, 52, 54
4, 6240, Note_on_c, 0, 55, 54
4, 6360, Note_on_c, 0, 55, 0
4, 6360, Note_on_c, 0, 52, 0
4, 6360, Note_on_c, 0, 48, 0
4, 6360, Note_on_c, 0, 48, 54
4, 6360, Note_on_c, 0, 52, 54
4, 6360, Note_on_c, 0, 55, 54
4, 6480, Note_on_c, 0, 55, 0
4, 6480, Note_on_c, 0, 52, 0
4, 6480, Note_on_c, 0, 48, 0
4, 6480, Note_on_c, 0, 48, 54
4, 6480, Note_on_c, 0, 50, 54
4, 6480, Note_on_c, 0, 53, 54
4, 6600, Note_on_c, 0, 53, 0
4, 6600, Note_on_c, 0, 50, 0
4, 6600, Note_on_c, 0, 48, 0
4, 6600, Note_on_c, 0, 48, 54
4, 6600, Note_on_c, 0, 50, 54
4, 6600, Note_on_c, 0, 53, 54
4, 6720, Note_on_c, 0, 53, 0
4, 6720, Note_on_c, 0, 50, 0
4, 6720, Note_on_c, 0, 48, 0
4, 6720, Note_on_c, 0, 48, 54
4, 6720, Note_on_c, 0, 52, 54
4, 6720, Note_on_c, 0, 55, 54
4, 6840, Note_on_c, 0, 55, 0
4, 6840, Note_on_c, 0, 52, 0
4, 6840, Note_on_c, 0, 48, 0
4, 6840, Note_on_c, 0, 48, 54
4, 6840, Note_on_c, 0, 52, 54
4, 6840, Note_on_c, 0, 55, 54
4, 6960, Note_on_c, 0, 55, 0
4, 6960, Note_on_c, 0, 52, 0
4, 6960, Note_on_c, 0, 48, 0
4, 6960, Note_on_c, 0, 50, 54
4, 6960, Note_on_c, 0, 53, 54
4, 6960, Note_on_c, 0, 56, 54
4, 6960, Note_on_c, 0, 59, 54
4, 7080, Note_on_c, 0, 59, 0
4, 7080, Note_on_c, 0, 50, 0
4, 7080, Note_on_c, 0, 53, 0
4, 7080, Note_on_c, 0, 56, 0
4, 7080, Note_on_c, 0, 50, 54
4, 7080, Note_on_c, 0, 53, 54
4, 7080, Note_on_c, 0, 56, 54
4, 7080, Note_on_c, 0, 59, 54
4, 7200, Note_on_c, 0, 59, 0
4, 7200, Note_on_c, 0, 50, 0
4, 7200, Note_on_c, 0, 53, 0
4, 7200, Note_on_c, 0, 56, 0
4, 7200, Note_on_c, 0, 51, 54
4, 7200, Note_on_c, 0, 55, 54
4, 7200, Note_on_c, 0, 60, 54
4, 7320, Note_on_c, 0, 60, 0
4, 7320, Note_on_c, 0, 55, 0
4, 7320, Note_on_c, 0, 51, 0
4, 7320, Note_on_c, 0, 51, 54
4, 7320, Note_on_c, 0, 55, 54
4, 7320, Note_on_c, 0, 60, 54
4, 7440, Note_on_c, 0, 60, 0
4, 7440, Note_on_c, 0, 55, 0
4, 7440, Note_on_c, 0, 51, 0
4, 7440, Note_on_c, 0, 52, 54
4, 7440, Note_on_c, 0, 55, 54
4, 7440, Note_on_c, 0, 60, 54
4, 7560, Note_on_c, 0, 60, 0
4, 7560, Note_on_c, 0, 55, 0
4, 7560, Note_on_c, 0, 52, 0
4, 7560, Note_on_c, 0, 52, 54
4, 7560, Note_on_c, 0, 55, 54
4, 7560, Note_on_c, 0, 60, 54
4, 7680, Note_on_c, 0, 60, 0
4, 7680, Note_on_c, 0, 55, 0
4, 7680, Note_on_c, 0, 52, 0
4, 7680, Note_on_c, 0, 53, 54
4, 7680, Note_on_c, 0, 56, 54
4, 7800, Note_on_c, 0, 56, 0
4, 7800, Note_on_c, 0, 53, 0
4, 7800, Note_on_c, 0, 53, 54
4, 7800, Note_on_c, 0, 56, 54
4, 7920, Note_on_c, 0, 56, 0
4, 7920, Note_on_c, 0, 53, 0
4, 7920, Note_on_c, 0, 53, 54
4, 7920, Note_on_c, 0, 56, 54
4, 8040, Note_on_c, 0, 56, 0
4, 8040, Note_on_c, 0, 53, 0
4, 8040, Note_on_c, 0, 53, 54
4, 8040, Note_on_c, 0, 56, 54
4, 8160, Note_on_c, 0, 56, 0
4, 8160, Note_on_c, 0, 53, 0
4, 8160, Note_on_c, 0, 53, 54
4, 8160, Note_on_c, 0, 56, 54
4, 8280, Note_on_c, 0, 56, 0
4, 8280, Note_on_c, 0, 53, 0
4, 8280, Note_on_c, 0, 53, 54
4, 8280, Note_on_c, 0, 56, 54
4, 8400, Note_on_c, 0, 56, 0
4, 8400, Note_on_c, 0, 53, 0
4, 8400, Note_on_c, 0, 53, 54
4, 8400, Note_on_c, 0, 56, 54
4, 8520, Note_on_c, 0, 56, 0
4, 8520, Note_on_c, 0, 53, 0
4, 8520, Note_on_c, 0, 53, 54
4, 8520, Note_on_c, 0, 56, 54
4, 8640, Note_on_c, 0, 56, 0
4, 8640, Note_on_c, 0, 53, 0
4, 8640, Note_on_c, 0, 53, 54
4, 8640, Note_on_c, 0, 57, 54
4, 8640, Note_on_c, 0, 60, 54
4, 8640, Note_on_c, 0, 63, 54
4, 8760, Note_on_c, 0, 63, 0
4, 8760, Note_on_c, 0, 53, 0
4, 8760, Note_on_c, 0, 57, 0
4, 8760, Note_on_c, 0, 60, 0
4, 8760, Note_on_c, 0, 53, 54
4, 8760, Note_on_c, 0, 57, 54
4, 8760, Note_on_c, 0, 60, 54
4, 8760, Note_on_c, 0, 63, 54
4, 8880, Note_on_c, 0, 63, 0
4, 8880, Note_on_c, 0, 53, 0
4, 8880, Note_on_c, 0, 57, 0
4, 8880, Note_on_c, 0, 60, 0
4, 8880, Note_on_c, 0, 53, 54
4, 8880, Note_on_c, 0, 57, 54
4, 8880, Note_on_c, 0, 60, 54
4, 8880, Note_on_c, 0, 63, 54
4, 9000, Note_on_c, 0, 63, 0
4, 9000, Note_on_c, 0, 53, 0
4, 9000, Note_on_c, 0, 57, 0
4, 9000, Note_on_c, 0, 60, 0
4, 9000, Note_on_c, 0, 53, 54
4, 9000, Note_on_c, 0, 57, 54
4, 9000, Note_on_c, 0, 60, 54
4, 9000, Note_on_c, 0, 63, 54
4, 9120, Note_on_c, 0, 63, 0
4, 9120, Note_on_c, 0, 53, 0
4, 9120, Note_on_c, 0, 57, 0
4, 9120, Note_on_c, 0, 60, 0
4, 9120, Note_on_c, 0, 53, 54
4, 9120, Note_on_c, 0, 57, 54
4, 9120, Note_on_c, 0, 60, 54
4, 9120, Note_on_c, 0, 63, 54
4, 9240, Note_on_c, 0, 63, 0
4, 9240, Note_on_c, 0, 53, 0
4, 9240, Note_on_c, 0, 57, 0
4, 9240, Note_on_c, 0, 60, 0
4, 9240, Note_on_c, 0, 53, 54
4, 9240, Note_on_c, 0, 57, 54
4, 9240, Note_on_c, 0, 60, 54
4, 9240, Note_on_c, 0, 63, 54
4, 9360, Note_on_c, 0, 63, 0
4, 9360, Note_on_c, 0, 53, 0
4, 9360, Note_on_c, 0, 57, 0
4, 9360, Note_on_c, 0, 60, 0
4, 9360, Note_on_c, 0, 53, 67
4, 9360, Note_on_c, 0, 57, 67
4, 9360, Note_on_c, 0, 60, 67
4, 9360, Note_on_c, 0, 63, 67
4, 9480, Note_on_c, 0, 63, 0
4, 9480, Note_on_c, 0, 53, 0
4, 9480, Note_on_c, 0, 57, 0
4, 9480, Note_on_c, 0, 60, 0
4, 9480, Note_on_c, 0, 53, 67
4, 9480, Note_on_c, 0, 57, 67
4, 9480, Note_on_c, 0, 60, 67
4, 9480, Note_on_c, 0, 63, 67
4, 9600, Note_on_c, 0, 63, 0
4, 9600, Note_on_c, 0, 53, 0
4, 9600, Note_on_c, 0, 57, 0
4, 9600, Note_on_c, 0, 60, 0
4, 9600, Note_on_c, 0, 53, 67
4, 9600, Note_on_c, 0, 58, 67
4, 9600, Note_on_c, 0, 61, 67
4, 9720, Note_on_c, 0, 61, 0
4, 9720, Note_on_c, 0, 58, 0
4, 9720, Note_on_c, 0, 53, 0
4, 9720, Note_on_c, 0, 53, 67
4, 9720, Note_on_c, 0, 58, 67
4, 9720, Note_on_c, 0, 61, 67
4, 9840, Note_on_c, 0, 61, 0
4, 9840, Note_on_c, 0, 58, 0
4, 9840, Note_on_c, 0, 53, 0
4, 9840, Note_on_c, 0, 53, 67
4, 9840, Note_on_c, 0, 58, 67
4, 9840, Note_on_c, 0, 61, 67
4, 9960, Note_on_c, 0, 61, 0
4, 9960, Note_on_c, 0, 58, 0
4, 9960, Note_on_c, 0, 53, 0
4, 9960, Note_on_c, 0, 53, 67
4, 9960, Note_on_c, 0, 58, 67
4, 9960, Note_on_c, 0, 61, 67
4, 10080, Note_on_c, 0, 61, 0
4, 10080, Note_on_c, 0, 58, 0
4, 10080, Note_on_c, 0, 53, 0
4, 10080, Note_on_c, 0, 53, 54
4, 10080, Note_on_c, 0, 58, 54
4, 10080, Note_on_c, 0, 61, 54
4, 10200, Note_on_c, 0, 61, 0
4, 10200, Note_on_c, 0, 58, 0
4, 10200, Note_on_c, 0, 53, 0
4, 10200, Note_on_c, 0, 53, 54
4, 10200, Note_on_c, 0, 58, 54
4, 10200, Note_on_c, 0, 61, 54
4, 10320, Note_on_c, 0, 61, 0
4, 10320, Note_on_c, 0, 58, 0
4, 10320, Note_on_c, 0, 53, 0
4, 10320, Note_on_c, 0, 53, 54
4, 10320, Note_on_c, 0, 58, 54
4, 10320, Note_on_c, 0, 61, 54
4, 10440, Note_on_c, 0, 61, 0
4, 10440, Note_on_c, 0, 58, 0
4, 10440, Note_on_c, 0, 53, 0
4, 10440, Note_on_c, 0, 53, 54
4, 10440, Note_on_c, 0, 58, 54
4, 10440, Note_on_c, 0, 61, 54
4, 10560, Note_on_c, 0, 61, 0
4, 10560, Note_on_c, 0, 58, 0
4, 10560, Note_on_c, 0, 53, 0
4, 10560, Note_on_c, 0, 55, 54
4, 10560, Note_on_c, 0, 58, 54
4, 10560, Note_on_c, 0, 61, 54
4, 10680, Note_on_c, 0, 61, 0
4, 10680, Note_on_c, 0, 58, 0
4, 10680, Note_on_c, 0, 55, 0
4, 10680, Note_on_c, 0, 55, 54
4, 10680, Note_on_c, 0, 58, 54
4, 10680, Note_on_c, 0, 61, 54
4, 10800, Note_on_c, 0, 61, 0
4, 10800, Note_on_c, 0, 58, 0
4, 10800, Note_on_c, 0, 55, 0
4, 10800, Note_on_c, 0, 55, 54
4, 10800, Note_on_c, 0, 58, 54
4, 10800, Note_on_c, 0, 61, 54
4, 10920, Note_on_c, 0, 61, 0
4, 10920, Note_on_c, 0, 58, 0
4, 10920, Note_on_c, 0, 55, 0
4, 10920, Note_on_c, 0, 55, 54
4, 10920, Note_on_c, 0, 58, 54
4, 10920, Note_on_c, 0, 61, 54
4, 11040, Note_on_c, 0, 61, 0
4, 11040, Note_on_c, 0, 58, 0
4, 11040, Note_on_c, 0, 55, 0
4, 11040, Note_on_c, 0, 55, 54
4, 11040, Note_on_c, 0, 58, 54
4, 11040, Note_on_c, 0, 61, 54
4, 11160, Note_on_c, 0, 61, 0
4, 11160, Note_on_c, 0, 58, 0
4, 11160, Note_on_c, 0, 55, 0
4, 11160, Note_on_c, 0, 55, 54
4, 11160, Note_on_c, 0, 58, 54
4, 11160, Note_on_c, 0, 61, 54
4, 11280, Note_on_c, 0, 61, 0
4, 11280, Note_on_c, 0, 58, 0
4, 11280, Note_on_c, 0, 55, 0
4, 11280, Note_on_c, 0, 55, 54
4, 11280, Note_on_c, 0, 58, 54
4, 11280, Note_on_c, 0, 61, 54
4, 11400, Note_on_c, 0, 61, 0
4, 11400, Note_on_c, 0, 58, 0
4, 11400, Note_on_c, 0, 55, 0
4, 11400, Note_on_c, 0, 55, 54
4, 11400, Note_on_c, 0, 58, 54
4, 11400, Note_on_c, 0, 61, 54
4, 11520, Note_on_c, 0, 61, 0
4, 11520, Note_on_c, 0, 58, 0
4, 11520, Note_on_c, 0, 55, 0
4, 11520, Note_on_c, 0, 56, 54
4, 11520, Note_on_c, 0, 60, 54
4, 11640, Note_on_c, 0, 60, 0
4, 11640, Note_on_c, 0, 56, 0
4, 11640, Note_on_c, 0, 56, 54
4, 11640, Note_on_c, 0, 60, 54
4, 11760, Note_on_c, 0, 60, 0
4, 11760, Note_on_c, 0, 56, 0
4, 11760, Note_on_c, 0, 54, 54
4, 11760, Note_on_c, 0, 56, 54
4, 11760, Note_on_c, 0, 60, 54
4, 11880, Note_on_c, 0, 60, 0
4, 11880, Note_on_c, 0, 56, 0
4, 11880, Note_on_c, 0, 54, 0
4, 11880, Note_on_c, 0, 54, 54
4, 11880, Note_on_c, 0, 56, 54
4, 11880, Note_on_c, 0, 60, 54
4, 12000, Note_on_c, 0, 60, 0
4, 12000, Note_on_c, 0, 56, 0
4, 12000, Note_on_c, 0, 54, 0
4, 12000, Note_on_c, 0, 53, 54
4, 12000, Note_on_c, 0, 56, 54
4, 12120, Note_on_c, 0, 56, 0
4, 12120, Note_on_c, 0, 53, 0
4, 12120, Note_on_c, 0, 53, 54
4, 12120, Note_on_c, 0, 56, 54
4, 12240, Note_on_c, 0, 56, 0
4, 12240, Note_on_c, 0, 53, 0
4, 12240, Note_on_c, 0, 51, 54
4, 12240, Note_on_c, 0, 56, 54
4, 12360, Note_on_c, 0, 56, 0
4, 12360, Note_on_c, 0, 51, 0
4, 12360, Note_on_c, 0, 51, 54
4, 12360, Note_on_c, 0, 56, 54
4, 12480, Note_on_c, 0, 56, 0
4, 12480, Note_on_c, 0, 51, 0
4, 12480, Note_on_c, 0, 49, 54
4, 12480, Note_on_c, 0, 53, 54
4, 12480, Note_on_c, 0, 56, 54
4, 12480, Note_on_c, 0, 58, 54
4, 12600, Note_on_c, 0, 58, 0
4, 12600, Note_on_c, 0, 49, 0
4, 12600, Note_on_c, 0, 53, 0
4, 12600, Note_on_c, 0, 56, 0
4, 12600, Note_on_c, 0, 49, 54
4, 12600, Note_on_c, 0, 53, 54
4, 12600, Note_on_c, 0, 56, 54
4, 12600, Note_on_c, 0, 58, 54
4, 12720, Note_on_c, 0, 58, 0
4, 12720, Note_on_c, 0, 49, 0
4, 12720, Note_on_c, 0, 53, 0
4, 12720, Note_on_c, 0, 56, 0
4, 12720, Note_on_c, 0, 49, 54
4, 12720, Note_on_c, 0, 53, 54
4, 12720, Note_on_c, 0, 56, 54
4, 12720, Note_on_c, 0, 58, 54
4, 12840, Note_on_c, 0, 58, 0
4, 12840, Note_on_c, 0, 49, 0
4, 12840, Note_on_c, 0, 53, 0
4, 12840, Note_on_c, 0, 56, 0
4, 12840, Note_on_c, 0, 49, 54
4, 12840, Note_on_c, 0, 53, 54
4, 12840, Note_on_c, 0, 56, 54
4, 12840, Note_on_c, 0, 58, 54
4, 12960, Note_on_c, 0, 58, 0
4, 12960, Note_on_c, 0, 49, 0
4, 12960, Note_on_c, 0, 53, 0
4, 12960, Note_on_c, 0, 56, 0
4, 12960, Note_on_c, 0, 50, 54
4, 12960, Note_on_c, 0, 53, 54
4, 12960, Note_on_c, 0, 56, 54
4, 12960, Note_on_c, 0, 59, 54
4, 13080, Note_on_c, 0, 59, 0
4, 13080, Note_on_c, 0, 50, 0
4, 13080, Note_on_c, 0, 53, 0
4, 13080, Note_on_c, 0, 56, 0
4, 13080, Note_on_c, 0, 50, 54
4, 13080, Note_on_c, 0, 53, 54
4, 13080, Note_on_c, 0, 56, 54
4, 13080, Note_on_c, 0, 59, 54
4, 13200, Note_on_c, 0, 59, 0
4, 13200, Note_on_c, 0, 50, 0
4, 13200, Note_on_c, 0, 53, 0
4, 13200, Note_on_c, 0, 56, 0
4, 13200, Note_on_c, 0, 50, 54
4, 13200, Note_on_c, 0, 53, 54
4, 13200, Note_on_c, 0, 56, 54
4, 13200, Note_on_c, 0, 59, 54
4, 13320, Note_on_c, 0, 59, 0
4, 13320, Note_on_c, 0, 50, 0
4, 13320, Note_on_c, 0, 53, 0
4, 13320, Note_on_c, 0, 56, 0
4, 13320, Note_on_c, 0, 50, 54
4, 13320, Note_on_c, 0, 53, 54
4, 13320, Note_on_c, 0, 56, 54
4, 13320, Note_on_c, 0, 59, 54
4, 13440, Note_on_c, 0, 59, 0
4, 13440, Note_on_c, 0, 50, 0
4, 13440, Note_on_c, 0, 53, 0
4, 13440, Note_on_c, 0, 56, 0
4, 13440, Note_on_c, 0, 51, 54
4, 13440, Note_on_c, 0, 53, 54
4, 13440, Note_on_c, 0, 56, 54
4, 13440, Note_on_c, 0, 59, 54
4, 13560, Note_on_c, 0, 59, 0
4, 13560, Note_on_c, 0, 51, 0
4, 13560, Note_on_c, 0, 53, 0
4, 13560, Note_on_c, 0, 56, 0
4, 13560, Note_on_c, 0, 51, 54
4, 13560, Note_on_c, 0, 53, 54
4, 13560, Note_on_c, 0, 56, 54
4, 13560, Note_on_c, 0, 59, 54
4, 13680, Note_on_c, 0, 59, 0
4, 13680, Note_on_c, 0, 51, 0
4, 13680, Note_on_c, 0, 53, 0
4, 13680, Note_on_c, 0, 56, 0
4, 13680, Note_on_c, 0, 51, 54
4, 13680, Note_on_c, 0, 53, 54
4, 13680, Note_on_c, 0, 56, 54
4, 13680, Note_on_c, 0, 59, 54
4, 13800, Note_on_c, 0, 59, 0
4, 13800, Note_on_c, 0, 51, 0
4, 13800, Note_on_c, 0, 53, 0
4, 13800, Note_on_c, 0, 56, 0
4, 13800, Note_on_c, 0, 51, 54
4, 13800, Note_on_c, 0, 53, 54
4, 13800, Note_on_c, 0, 56, 54
4, 13800, Note_on_c, 0, 59, 54
4, 13920, Note_on_c, 0, 59, 0
4, 13920, Note_on_c, 0, 51, 0
4, 13920, Note_on_c, 0, 53, 0
4, 13920, Note_on_c, 0, 56, 0
4, 13920, Note_on_c, 0, 51, 54
4, 13920, Note_on_c, 0, 55, 54
4, 13920, Note_on_c, 0, 58, 54
4, 14040, Note_on_c, 0, 58, 0
4, 14040, Note_on_c, 0, 55, 0
4, 14040, Note_on_c, 0, 51, 0
4, 14040, Note_on_c, 0, 51, 54
4, 14040, Note_on_c, 0, 55, 54
4, 14040, Note_on_c, 0, 58, 54
4, 14160, Note_on_c, 0, 58, 0
4, 14160, Note_on_c, 0, 55, 0
4, 14160, Note_on_c, 0, 51, 0
4, 14160, Note_on_c, 0, 51, 54
4, 14160, Note_on_c, 0, 55, 54
4, 14160, Note_on_c, 0, 58, 54
4, 14160, Note_on_c, 0, 61, 54
4, 14280, Note_on_c, 0, 61, 0
4, 14280, Note_on_c, 0, 51, 0
4, 14280, Note_on_c, 0, 55, 0
4, 14280, Note_on_c, 0, 58, 0
4, 14280, Note_on_c, 0, 51, 54
4, 14280, Note_on_c, 0, 55, 54
4, 14280, Note_on_c, 0, 58, 54
4, 14280, Note_on_c, 0, 61, 54
4, 14400, Note_on_c, 0, 61, 0
4, 14400, Note_on_c, 0, 51, 0
4, 14400, Note_on_c, 0, 55, 0
4, 14400, Note_on_c, 0, 58, 0
4, 14400, Note_on_c, 0, 60, 54
4, 14520, Note_on_c, 0, 60, 0
4, 14520, Note_on_c, 0, 60, 54
4, 14640, Note_on_c, 0, 60, 0
4, 14640, Note_on_c, 0, 58, 67
4, 14640, Note_on_c, 0, 60, 67
4, 14760, Note_on_c, 0, 60, 0
4, 14760, Note_on_c, 0, 58, 0
4, 14760, Note_on_c, 0, 58, 67
4, 14760, Note_on_c, 0, 60, 67
4, 14880, Note_on_c, 0, 60, 0
4, 14880, Note_on_c, 0, 58, 0
4, 14880, Note_on_c, 0, 57, 67
4, 14880, Note_on_c, 0, 60, 67
4, 15000, Note_on_c, 0, 60, 0
4, 15000, Note_on_c, 0, 57, 0
4, 15000, Note_on_c, 0, 57, 67
4, 15000, Note_on_c, 0, 60, 67
4, 15120, Note_on_c, 0, 60, 0
4, 15120, Note_on_c, 0, 57, 0
4, 15120, Note_on_c, 0, 54, 67
4, 15120, Note_on_c, 0, 60, 67
4, 15240, Note_on_c, 0, 60, 0
4, 15240, Note_on_c, 0, 54, 0
4, 15240, Note_on_c, 0, 54, 67
4, 15240, Note_on_c, 0, 60, 67
4, 15360, Note_on_c, 0, 60, 0
4, 15360, Note_on_c, 0, 54, 0
4, 15360, Note_on_c, 0, 53, 54
4, 15360, Note_on_c, 0, 60, 54
4, 15360, Note_on_c, 0, 63, 54
4, 15480, Note_on_c, 0, 63, 0
4, 15480, Note_on_c, 0, 60, 0
4, 15480, Note_on_c, 0, 53, 0
4, 15480, Note_on_c, 0, 53, 54
4, 15480, Note_on_c, 0, 60, 54
4, 15480, Note_on_c, 0, 63, 54
4, 15600, Note_on_c, 0, 63, 0
4, 15600, Note_on_c, 0, 60, 0
4, 15600, Note_on_c, 0, 53, 0
4, 15600, Note_on_c, 0, 53, 54
4, 15600, Note_on_c, 0, 60, 54
4, 15600, Note_on_c, 0, 63, 54
4, 15720, Note_on_c, 0, 63, 0
4, 15720, Note_on_c, 0, 60, 0
4, 15720, Note_on_c, 0, 53, 0
4, 15720, Note_on_c, 0, 53, 54
4, 15720, Note_on_c, 0, 60, 54
4, 15720, Note_on_c, 0, 63, 54
4, 15840, Note_on_c, 0, 63, 0
4, 15840, Note_on_c, 0, 60, 0
4, 15840, Note_on_c, 0, 53, 0
4, 15840, Note_on_c, 0, 53, 54
4, 15840, Note_on_c, 0, 60, 54
4, 15840, Note_on_c, 0, 63, 54
4, 15960, Note_on_c, 0, 63, 0
4, 15960, Note_on_c, 0, 60, 0
4, 15960, Note_on_c, 0, 53, 0
4, 15960, Note_on_c, 0, 53, 54
4, 15960, Note_on_c, 0, 60, 54
4, 15960, Note_on_c, 0, 63, 54
4, 16080, Note_on_c, 0, 63, 0
4, 16080, Note_on_c, 0, 60, 0
4, 16080, Note_on_c, 0, 53, 0
4, 16080, Note_on_c, 0, 53, 54
4, 16080, Note_on_c, 0, 60, 54
4, 16080, Note_on_c, 0, 63, 54
4, 16200, Note_on_c, 0, 63, 0
4, 16200, Note_on_c, 0, 60, 0
4, 16200, Note_on_c, 0, 53, 0
4, 16200, Note_on_c, 0, 53, 54
4, 16200, Note_on_c, 0, 60, 54
4, 16200, Note_on_c, 0, 63, 54
4, 16320, Note_on_c, 0, 63, 0
4, 16320, Note_on_c, 0, 60, 0
4, 16320, Note_on_c, 0, 53, 0
4, 16320, Note_on_c, 0, 53, 54
4, 16320, Note_on_c, 0, 56, 54
4, 16320, Note_on_c, 0, 59, 54
4, 16440, Note_on_c, 0, 59, 0
4, 16440, Note_on_c, 0, 56, 0
4, 16440, Note_on_c, 0, 53, 0
4, 16440, Note_on_c, 0, 53, 54
4, 16440, Note_on_c, 0, 56, 54
4, 16440, Note_on_c, 0, 59, 54
4, 16560, Note_on_c, 0, 59, 0
4, 16560, Note_on_c, 0, 56, 0
4, 16560, Note_on_c, 0, 53, 0
4, 16560, Note_on_c, 0, 53, 54
4, 16560, Note_on_c, 0, 56, 54
4, 16560, Note_on_c, 0, 59, 54
4, 16680, Note_on_c, 0, 59, 0
4, 16680, Note_on_c, 0, 56, 0
4, 16680, Note_on_c, 0, 53, 0
4, 16680, Note_on_c, 0, 53, 54
4, 16680, Note_on_c, 0, 56, 54
4, 16680, Note_on_c, 0, 59, 54
4, 16800, Note_on_c, 0, 59, 0
4, 16800, Note_on_c, 0, 56, 0
4, 16800, Note_on_c, 0, 53, 0
4, 16800, Note_on_c, 0, 52, 54
4, 16800, Note_on_c, 0, 56, 54
4, 16800, Note_on_c, 0, 61, 54
4, 16920, Note_on_c, 0, 61, 0
4, 16920, Note_on_c, 0, 56, 0
4, 16920, Note_on_c, 0, 52, 0
4, 16920, Note_on_c, 0, 52, 54
4, 16920, Note_on_c, 0, 56, 54
4, 16920, Note_on_c, 0, 61, 54
4, 17040, Note_on_c, 0, 61, 0
4, 17040, Note_on_c, 0, 56, 0
4, 17040, Note_on_c, 0, 52, 0
4, 17040, Note_on_c, 0, 52, 54
4, 17040, Note_on_c, 0, 56, 54
4, 17040, Note_on_c, 0, 61, 54
4, 17160, Note_on_c, 0, 61, 0
4, 17160, Note_on_c, 0, 56, 0
4, 17160, Note_on_c, 0, 52, 0
4, 17160, Note_on_c, 0, 52, 54
4, 17160, Note_on_c, 0, 56, 54
4, 17160, Note_on_c, 0, 61, 54
4, 17280, Note_on_c, 0, 61, 0
4, 17280, Note_on_c, 0, 56, 0
4, 17280, Note_on_c, 0, 52, 0
4, 17280, Note_on_c, 0, 51, 54
4, 17280, Note_on_c, 0, 58, 54
4, 17280, Note_on_c, 0, 61, 54
4, 17400, Note_on_c, 0, 61, 0
4, 17400, Note_on_c, 0, 58, 0
4, 17400, Note_on_c, 0, 51, 0
4, 17400, Note_on_c, 0, 51, 54
4, 17400, Note_on_c, 0, 58, 54
4, 17400, Note_on_c, 0, 61, 54
4, 17520, Note_on_c, 0, 61, 0
4, 17520, Note_on_c, 0, 58, 0
4, 17520, Note_on_c, 0, 51, 0
4, 17520, Note_on_c, 0, 51, 54
4, 17520, Note_on_c, 0, 58, 54
4, 17520, Note_on_c, 0, 61, 54
4, 17640, Note_on_c, 0, 61, 0
4, 17640, Note_on_c, 0, 58, 0
4, 17640, Note_on_c, 0, 51, 0
4, 17640, Note_on_c, 0, 51, 54
4, 17640, Note_on_c, 0, 58, 54
4, 17640, Note_on_c, 0, 61, 54
4, 17760, Note_on_c, 0, 61, 0
4, 17760, Note_on_c, 0, 58, 0
4, 17760, Note_on_c, 0, 51, 0
4, 17760, Note_on_c, 0, 51, 54
4, 17760, Note_on_c, 0, 58, 54
4, 17760, Note_on_c, 0, 61, 54
4, 17880, Note_on_c, 0, 61, 0
4, 17880, Note_on_c, 0, 58, 0
4, 17880, Note_on_c, 0, 51, 0
4, 17880, Note_on_c, 0, 51, 54
4, 17880, Note_on_c, 0, 58, 54
4, 17880, Note_on_c, 0, 61, 54
4, 18000, Note_on_c, 0, 61, 0
4, 18000, Note_on_c, 0, 58, 0
4, 18000, Note_on_c, 0, 51, 0
4, 18000, Note_on_c, 0, 51, 54
4, 18000, Note_on_c, 0, 58, 54
4, 18000, Note_on_c, 0, 61, 54
4, 18120, Note_on_c, 0, 61, 0
4, 18120, Note_on_c, 0, 58, 0
4, 18120, Note_on_c, 0, 51, 0
4, 18120, Note_on_c, 0, 51, 54
4, 18120, Note_on_c, 0, 58, 54
4, 18120, Note_on_c, 0, 61, 54
4, 18240, Note_on_c, 0, 61, 0
4, 18240, Note_on_c, 0, 58, 0
4, 18240, Note_on_c, 0, 51, 0
4, 18240, Note_on_c, 0, 51, 54
4, 18240, Note_on_c, 0, 56, 54
4, 18240, Note_on_c, 0, 60, 54
4, 18360, Note_on_c, 0, 60, 0
4, 18360, Note_on_c, 0, 56, 0
4, 18360, Note_on_c, 0, 51, 0
4, 18360, Note_on_c, 0, 51, 54
4, 18360, Note_on_c, 0, 56, 54
4, 18360, Note_on_c, 0, 60, 54
4, 18480, Note_on_c, 0, 60, 0
4, 18480, Note_on_c, 0, 56, 0
4, 18480, Note_on_c, 0, 51, 0
4, 18480, Note_on_c, 0, 51, 54
4, 18480, Note_on_c, 0, 56, 54
4, 18480, Note_on_c, 0, 60, 54
4, 18600, Note_on_c, 0, 60, 0
4, 18600, Note_on_c, 0, 56, 0
4, 18600, Note_on_c, 0, 51, 0
4, 18600, Note_on_c, 0, 51, 54
4, 18600, Note_on_c, 0, 56, 54
4, 18600, Note_on_c, 0, 60, 54
4, 18720, Note_on_c, 0, 60, 0
4, 18720, Note_on_c, 0, 56, 0
4, 18720, Note_on_c, 0, 51, 0
4, 18720, Note_on_c, 0, 51, 54
4, 18720, Note_on_c, 0, 56, 54
4, 18720, Note_on_c, 0, 59, 54
4, 18840, Note_on_c, 0, 59, 0
4, 18840, Note_on_c, 0, 56, 0
4, 18840, Note_on_c, 0, 51, 0
4, 18840, Note_on_c, 0, 51, 54
4, 18840, Note_on_c, 0, 56, 54
4, 18840, Note_on_c, 0, 59, 54
4, 18960, Note_on_c, 0, 59, 0
4, 18960, Note_on_c, 0, 56, 0
4, 18960, Note_on_c, 0, 51, 0
4, 18960, Note_on_c, 0, 51, 54
4, 18960, Note_on_c, 0, 56, 54
4, 18960, Note_on_c, 0, 59, 54
4, 19080, Note_on_c, 0, 59, 0
4, 19080, Note_on_c, 0, 56, 0
4, 19080, Note_on_c, 0, 51, 0
4, 19080, Note_on_c, 0, 51, 54
4, 19080, Note_on_c, 0, 56, 54
4, 19080, Note_on_c, 0, 59, 54
4, 19200, Note_on_c, 0, 59, 0
4, 19200, Note_on_c, 0, 56, 0
4, 19200, Note_on_c, 0, 51, 0
4, 19200, Note_on_c, 0, 51, 54
4, 19200, Note_on_c, 0, 56, 54
4, 19200, Note_on_c, 0, 59, 54
4, 19320, Note_on_c, 0, 59, 0
4, 19320, Note_on_c, 0, 56, 0
4, 19320, Note_on_c, 0, 51, 0
4, 19320, Note_on_c, 0, 51, 54
4, 19320, Note_on_c, 0, 56, 54
4, 19320, Note_on_c, 0, 59, 54
4, 19440, Note_on_c, 0, 59, 0
4, 19440, Note_on_c, 0, 56, 0
4, 19440, Note_on_c, 0, 51, 0
4, 19440, Note_on_c, 0, 51, 54
4, 19440, Note_on_c, 0, 56, 54
4, 19440, Note_on_c, 0, 59, 54
4, 19560, Note_on_c, 0, 59, 0
4, 19560, Note_on_c, 0, 56, 0
4, 19560, Note_on_c, 0, 51, 0
4, 19560, Note_on_c, 0, 51, 54
4, 19560, Note_on_c, 0, 56, 54
4, 19560, Note_on_c, 0, 59, 54
4, 19680, Note_on_c, 0, 59, 0
4, 19680, Note_on_c, 0, 56, 0
4, 19680, Note_on_c, 0, 51, 0
4, 19680, Note_on_c, 0, 51, 54
4, 19680, Note_on_c, 0, 56, 54
4, 19680, Note_on_c, 0, 59, 54
4, 19800, Note_on_c, 0, 59, 0
4, 19800, Note_on_c, 0, 56, 0
4, 19800, Note_on_c, 0, 51, 0
4, 19800, Note_on_c, 0, 51, 54
4, 19800, Note_on_c, 0, 56, 54
4, 19800, Note_on_c, 0, 59, 54
4, 19920, Note_on_c, 0, 59, 0
4, 19920, Note_on_c, 0, 56, 0
4, 19920, Note_on_c, 0, 51, 0
4, 19920, Note_on_c, 0, 51, 54
4, 19920, Note_on_c, 0, 56, 54
4, 19920, Note_on_c, 0, 59, 54
4, 20040, Note_on_c, 0, 59, 0
4, 20040, Note_on_c, 0, 56, 0
4, 20040, Note_on_c, 0, 51, 0
4, 20040, Note_on_c, 0, 51, 54
4, 20040, Note_on_c, 0, 56, 54
4, 20040, Note_on_c, 0, 59, 54
4, 20160, Note_on_c, 0, 59, 0
4, 20160, Note_on_c, 0, 56, 0
4, 20160, Note_on_c, 0, 51, 0
4, 20160, Note_on_c, 0, 52, 54
4, 20160, Note_on_c, 0, 56, 54
4, 20160, Note_on_c, 0, 59, 54
4, 20280, Note_on_c, 0, 59, 0
4, 20280, Note_on_c, 0, 56, 0
4, 20280, Note_on_c, 0, 52, 0
4, 20280, Note_on_c, 0, 52, 54
4, 20280, Note_on_c, 0, 56, 54
4, 20280, Note_on_c, 0, 59, 54
4, 20400, Note_on_c, 0, 59, 0
4, 20400, Note_on_c, 0, 56, 0
4, 20400, Note_on_c, 0, 52, 0
4, 20400, Note_on_c, 0, 52, 54
4, 20400, Note_on_c, 0, 56, 54
4, 20400, Note_on_c, 0, 59, 54
4, 20520, Note_on_c, 0, 59, 0
4, 20520, Note_on_c, 0, 56, 0
4, 20520, Note_on_c, 0, 52, 0
4, 20520, Note_on_c, 0, 52, 54
4, 20520, Note_on_c, 0, 56, 54
4, 20520, Note_on_c, 0, 59, 54
4, 20640, Note_on_c, 0, 59, 0
4, 20640, Note_on_c, 0, 56, 0
4, 20640, Note_on_c, 0, 52, 0
4, 20640, Note_on_c, 0, 53, 54
4, 20640, Note_on_c, 0, 56, 54
4, 20640, Note_on_c, 0, 59, 54
4, 20760, Note_on_c, 0, 59, 0
4, 20760, Note_on_c, 0, 56, 0
4, 20760, Note_on_c, 0, 53, 0
4, 20760, Note_on_c, 0, 53, 54
4, 20760, Note_on_c, 0, 56, 54
4, 20760, Note_on_c, 0, 59, 54
4, 20880, Note_on_c, 0, 59, 0
4, 20880, Note_on_c, 0, 56, 0
4, 20880, Note_on_c, 0, 53, 0
4, 20880, Note_on_c, 0, 53, 54
4, 20880, Note_on_c, 0, 56, 54
4, 20880, Note_on_c, 0, 59, 54
4, 21000, Note_on_c, 0, 59, 0
4, 21000, Note_on_c, 0, 56, 0
4, 21000, Note_on_c, 0, 53, 0
4, 21000, Note_on_c, 0, 53, 54
4, 21000, Note_on_c, 0, 56, 54
4, 21000, Note_on_c, 0, 59, 54
4, 21120, Note_on_c, 0, 59, 0
4, 21120, Note_on_c, 0, 56, 0
4, 21120, Note_on_c, 0, 53, 0
4, 21120, Note_on_c, 0, 51, 54
4, 21120, Note_on_c, 0, 56, 54
4, 21120, Note_on_c, 0, 59, 54
4, 21240, Note_on_c, 0, 59, 0
4, 21240, Note_on_c, 0, 56, 0
4, 21240, Note_on_c, 0, 51, 0
4, 21240, Note_on_c, 0, 51, 54
4, 21240, Note_on_c, 0, 56, 54
4, 21240, Note_on_c, 0, 59, 54
4, 21360, Note_on_c, 0, 59, 0
4, 21360, Note_on_c, 0, 56, 0
4, 21360, Note_on_c, 0, 51, 0
4, 21360, Note_on_c, 0, 51, 54
4, 21360, Note_on_c, 0, 56, 54
4, 21360, Note_on_c, 0, 59, 54
4, 21480, Note_on_c, 0, 59, 0
4, 21480, Note_on_c, 0, 56, 0
4, 21480, Note_on_c, 0, 51, 0
4, 21480, Note_on_c, 0, 51, 54
4, 21480, Note_on_c, 0, 56, 54
4, 21480, Note_on_c, 0, 59, 54
4, 21600, Note_on_c, 0, 59, 0
4, 21600, Note_on_c, 0, 56, 0
4, 21600, Note_on_c, 0, 51, 0
4, 21600, Note_on_c, 0, 51, 54
4, 21600, Note_on_c, 0, 58, 54
4, 21720, Note_on_c, 0, 58, 0
4, 21720, Note_on_c, 0, 51, 0
4, 21720, Note_on_c, 0, 51, 54
4, 21720, Note_on_c, 0, 58, 54
4, 21840, Note_on_c, 0, 58, 0
4, 21840, Note_on_c, 0, 51, 0
4, 21840, Note_on_c, 0, 51, 54
4, 21840, Note_on_c, 0, 58, 54
4, 21960, Note_on_c, 0, 58, 0
4, 21960, Note_on_c, 0, 51, 0
4, 21960, Note_on_c, 0, 51, 54
4, 21960, Note_on_c, 0, 58, 54
4, 22080, Note_on_c, 0, 58, 0
4, 22080, Note_on_c, 0, 51, 0
4, 22080, Note_on_c, 0, 44, 54
4, 22080, Note_on_c, 0, 56, 54
4, 22200, Note_on_c, 0, 56, 0
4, 22200, Note_on_c, 0, 44, 0
4, 22200, Note_on_c, 0, 44, 54
4, 22200, Note_on_c, 0, 56, 54
4, 22320, Note_on_c, 0, 56, 0
4, 22320, Note_on_c, 0, 44, 0
4, 22320, Note_on_c, 0, 44, 54
4, 22320, Note_on_c, 0, 56, 54
4, 22440, Note_on_c, 0, 56, 0
4, 22440, Note_on_c, 0, 44, 0
4, 22440, Note_on_c, 0, 44, 54
4, 22440, Note_on_c, 0, 56, 54
4, 22560, Note_on_c, 0, 56, 0
4, 22560, Note_on_c, 0, 44, 0
4, 22560, Note_on_c, 0, 44, 54
4, 22560, Note_on_c, 0, 56, 54
4, 22680, Note_on_c, 0, 56, 0
4, 22680, Note_on_c, 0, 44, 0
4, 22680, Note_on_c, 0, 44, 54
4, 22680, Note_on_c, 0, 56, 54
4, 22800, Note_on_c, 0, 56, 0
4, 22800, Note_on_c, 0, 44, 0
4, 22800, Note_on_c, 0, 44, 54
4, 22800, Note_on_c, 0, 56, 54
4, 22920, Note_on_c, 0, 56, 0
4, 22920, Note_on_c, 0, 44, 0
4, 22920, Note_on_c, 0, 44, 54
4, 22920, Note_on_c, 0, 56, 54
4, 23040, Note_on_c, 0, 56, 0
4, 23040, Note_on_c, 0, 44, 0
4, 23040, Note_on_c, 0, 44, 54
4, 23160, Note_on_c, 0, 44, 0
4, 23160, Note_on_c, 0, 44, 54
4, 23280, Note_on_c, 0, 44, 0
4, 23280, Note_on_c, 0, 44, 54
4, 23400, Note_on_c, 0, 44, 0
4, 23400, Note_on_c, 0, 44, 54
4, 23520, Note_on_c, 0, 44, 0
4, 23520, Note_on_c, 0, 44, 54
4, 23640, Note_on_c, 0, 44, 0
4, 23640, Note_on_c, 0, 44, 54
4, 23760, Note_on_c, 0, 44, 0
4, 23760, Note_on_c, 0, 44, 54
4, 23880, Note_on_c, 0, 44, 0
4, 23880, Note_on_c, 0, 44, 54
4, 24000, Note_on_c, 0, 44, 0
4, 24000, Note_on_c, 0, 45, 54
4, 24120, Note_on_c, 0, 45, 0
4, 24120, Note_on_c, 0, 45, 54
4, 24240, Note_on_c, 0, 45, 0
4, 24240, Note_on_c, 0, 45, 54
4, 24360, Note_on_c, 0, 45, 0
4, 24360, Note_on_c, 0, 45, 54
4, 24480, Note_on_c, 0, 45, 0
4, 24480, Note_on_c, 0, 45, 54
4, 24600, Note_on_c, 0, 45, 0
4, 24600, Note_on_c, 0, 45, 54
4, 24720, Note_on_c, 0, 45, 0
4, 24720, Note_on_c, 0, 45, 54
4, 24840, Note_on_c, 0, 45, 0
4, 24840, Note_on_c, 0, 45, 54
4, 24960, Note_on_c, 0, 45, 0
4, 24960, Note_on_c, 0, 53, 54
4, 24960, Note_on_c, 0, 57, 54
4, 24960, Note_on_c, 0, 60, 54
4, 24960, Note_on_c, 0, 63, 54
4, 25080, Note_on_c, 0, 63, 0
4, 25080, Note_on_c, 0, 53, 0
4, 25080, Note_on_c, 0, 57, 0
4, 25080, Note_on_c, 0, 60, 0
4, 25080, Note_on_c, 0, 53, 54
4, 25080, Note_on_c, 0, 57, 54
4, 25080, Note_on_c, 0, 60, 54
4, 25080, Note_on_c, 0, 63, 54
4, 25200, Note_on_c, 0, 63, 0
4, 25200, Note_on_c, 0, 53, 0
4, 25200, Note_on_c, 0, 57, 0
4, 25200, Note_on_c, 0, 60, 0
4, 25200, Note_on_c, 0, 53, 54
4, 25200, Note_on_c, 0, 57, 54
4, 25200, Note_on_c, 0, 60, 54
4, 25200, Note_on_c, 0, 63, 54
4, 25320, Note_on_c, 0, 63, 0
4, 25320, Note_on_c, 0, 53, 0
4, 25320, Note_on_c, 0, 57, 0
4, 25320, Note_on_c, 0, 60, 0
4, 25320, Note_on_c, 0, 53, 54
4, 25320, Note_on_c, 0, 57, 54
4, 25320, Note_on_c, 0, 60, 54
4, 25320, Note_on_c, 0, 63, 54
4, 25440, Note_on_c, 0, 63, 0
4, 25440, Note_on_c, 0, 53, 0
4, 25440, Note_on_c, 0, 57, 0
4, 25440, Note_on_c, 0, 60, 0
4, 25440, Note_on_c, 0, 53, 54
4, 25440, Note_on_c, 0, 57, 54
4, 25560, Note_on_c, 0, 57, 0
4, 25560, Note_on_c, 0, 53, 0
4, 25560, Note_on_c, 0, 53, 54
4, 25560, Note_on_c, 0, 57, 54
4, 25680, Note_on_c, 0, 57, 0
4, 25680, Note_on_c, 0, 53, 0
4, 25680, Note_on_c, 0, 53, 54
4, 25680, Note_on_c, 0, 57, 54
4, 25800, Note_on_c, 0, 57, 0
4, 25800, Note_on_c, 0, 53, 0
4, 25800, Note_on_c, 0, 53, 54
4, 25800, Note_on_c, 0, 57, 54
4, 25920, Note_on_c, 0, 57, 0
4, 25920, Note_on_c, 0, 53, 0
4, 25920, Note_on_c, 0, 53, 54
4, 25920, Note_on_c, 0, 58, 54
4, 26040, Note_on_c, 0, 58, 0
4, 26040, Note_on_c, 0, 53, 0
4, 26040, Note_on_c, 0, 53, 54
4, 26040, Note_on_c, 0, 58, 54
4, 26160, Note_on_c, 0, 58, 0
4, 26160, Note_on_c, 0, 53, 0
4, 26160, Note_on_c, 0, 53, 54
4, 26160, Note_on_c, 0, 58, 54
4, 26280, Note_on_c, 0, 58, 0
4, 26280, Note_on_c, 0, 53, 0
4, 26280, Note_on_c, 0, 53, 54
4, 26280, Note_on_c, 0, 58, 54
4, 26400, Note_on_c, 0, 58, 0
4, 26400, Note_on_c, 0, 53, 0
4, 26400, Note_on_c, 0, 53, 54
4, 26400, Note_on_c, 0, 58, 54
4, 26520, Note_on_c, 0, 58, 0
4, 26520, Note_on_c, 0, 53, 0
4, 26520, Note_on_c, 0, 53, 54
4, 26520, Note_on_c, 0, 58, 54
4, 26640, Note_on_c, 0, 58, 0
4, 26640, Note_on_c, 0, 53, 0
4, 26640, Note_on_c, 0, 53, 54
4, 26640, Note_on_c, 0, 58, 54
4, 26760, Note_on_c, 0, 58, 0
4, 26760, Note_on_c, 0, 53, 0
4, 26760, Note_on_c, 0, 53, 54
4, 26760, Note_on_c, 0, 58, 54
4, 26880, Note_on_c, 0, 58, 0
4, 26880, Note_on_c, 0, 53, 0
4, 26880, Note_on_c, 0, 53, 54
4, 26880, Note_on_c, 0, 58, 54
4, 26880, Note_on_c, 0, 61, 54
4, 27000, Note_on_c, 0, 61, 0
4, 27000, Note_on_c, 0, 58, 0
4, 27000, Note_on_c, 0, 53, 0
4, 27000, Note_on_c, 0, 53, 54
4, 27000, Note_on_c, 0, 58, 54
4, 27000, Note_on_c, 0, 61, 54
4, 27120, Note_on_c, 0, 61, 0
4, 27120, Note_on_c, 0, 58, 0
4, 27120, Note_on_c, 0, 53, 0
4, 27120, Note_on_c, 0, 53, 54
4, 27120, Note_on_c, 0, 60, 54
4, 27240, Note_on_c, 0, 60, 0
4, 27240, Note_on_c, 0, 53, 0
4, 27240, Note_on_c, 0, 53, 54
4, 27240, Note_on_c, 0, 60, 54
4, 27360, Note_on_c, 0, 60, 0
4, 27360, Note_on_c, 0, 53, 0
4, 27360, Note_on_c, 0, 53, 54
4, 27360, Note_on_c, 0, 59, 54
4, 27480, Note_on_c, 0, 59, 0
4, 27480, Note_on_c, 0, 53, 0
4, 27480, Note_on_c, 0, 53, 54
4, 27480, Note_on_c, 0, 59, 54
4, 27600, Note_on_c, 0, 59, 0
4, 27600, Note_on_c, 0, 53, 0
4, 27600, Note_on_c, 0, 51, 54
4, 27600, Note_on_c, 0, 53, 54
4, 27600, Note_on_c, 0, 56, 54
4, 27720, Note_on_c, 0, 56, 0
4, 27720, Note_on_c, 0, 53, 0
4, 27720, Note_on_c, 0, 51, 0
4, 27720, Note_on_c, 0, 51, 54
4, 27720, Note_on_c, 0, 53, 54
4, 27720, Note_on_c, 0, 56, 54
4, 27840, Note_on_c, 0, 56, 0
4, 27840, Note_on_c, 0, 53, 0
4, 27840, Note_on_c, 0, 51, 0
4, 27840, Note_on_c, 0, 50, 54
4, 27840, Note_on_c, 0, 53, 54
4, 27840, Note_on_c, 0, 56, 54
4, 27960, Note_on_c, 0, 56, 0
4, 27960, Note_on_c, 0, 53, 0
4, 27960, Note_on_c, 0, 50, 0
4, 27960, Note_on_c, 0, 50, 54
4, 27960, Note_on_c, 0, 53, 54
4, 27960, Note_on_c, 0, 56, 54
4, 28080, Note_on_c, 0, 56, 0
4, 28080, Note_on_c, 0, 53, 0
4, 28080, Note_on_c, 0, 50, 0
4, 28080, Note_on_c, 0, 50, 54
4, 28080, Note_on_c, 0, 53, 54
4, 28080, Note_on_c, 0, 56, 54
4, 28200, Note_on_c, 0, 56, 0
4, 28200, Note_on_c, 0, 53, 0
4, 28200, Note_on_c, 0, 50, 0
4, 28200, Note_on_c, 0, 50, 54
4, 28200, Note_on_c, 0, 53, 54
4, 28200, Note_on_c, 0, 56, 54
4, 28320, Note_on_c, 0, 56, 0
4, 28320, Note_on_c, 0, 53, 0
4, 28320, Note_on_c, 0, 50, 0
4, 28320, Note_on_c, 0, 50, 54
4, 28320, Note_on_c, 0, 53, 54
4, 28320, Note_on_c, 0, 56, 54
4, 28440, Note_on_c, 0, 56, 0
4, 28440, Note_on_c, 0, 53, 0
4, 28440, Note_on_c, 0, 50, 0
4, 28440, Note_on_c, 0, 50, 54
4, 28440, Note_on_c, 0, 53, 54
4, 28440, Note_on_c, 0, 56, 54
4, 28560, Note_on_c, 0, 56, 0
4, 28560, Note_on_c, 0, 53, 0
4, 28560, Note_on_c, 0, 50, 0
4, 28560, Note_on_c, 0, 48, 54
4, 28560, Note_on_c, 0, 53, 54
4, 28560, Note_on_c, 0, 56, 54
4, 28680, Note_on_c, 0, 56, 0
4, 28680, Note_on_c, 0, 53, 0
4, 28680, Note_on_c, 0, 48, 0
4, 28680, Note_on_c, 0, 48, 54
4, 28680, Note_on_c, 0, 53, 54
4, 28680, Note_on_c, 0, 56, 54
4, 28800, Note_on_c, 0, 56, 0
4, 28800, Note_on_c, 0, 53, 0
4, 28800, Note_on_c, 0, 48, 0
4, 28800, Note_on_c, 0, 47, 54
4, 28800, Note_on_c, 0, 53, 54
4, 28800, Note_on_c, 0, 56, 54
4, 28920, Note_on_c, 0, 56, 0
4, 28920, Note_on_c, 0, 53, 0
4, 28920, Note_on_c, 0, 47, 0
4, 28920, Note_on_c, 0, 59, 54
4, 28920, Note_on_c, 0, 62, 54
4, 28920, Note_on_c, 0, 65, 54
4, 29040, Note_on_c, 0, 65, 0
4, 29040, Note_on_c, 0, 62, 0
4, 29040, Note_on_c, 0, 59, 0
4, 29040, Note_on_c, 0, 59, 54
4, 29040, Note_on_c, 0, 62, 54
4, 29040, Note_on_c, 0, 65, 54
4, 29160, Note_on_c, 0, 65, 0
4, 29160, Note_on_c, 0, 62, 0
4, 29160, Note_on_c, 0, 59, 0
4, 29160, Note_on_c, 0, 59, 54
4, 29160, Note_on_c, 0, 62, 54
4, 29160, Note_on_c, 0, 65, 54
4, 29280, Note_on_c, 0, 65, 0
4, 29280, Note_on_c, 0, 62, 0
4, 29280, Note_on_c, 0, 59, 0
4, 29280, Note_on_c, 0, 59, 54
4, 29280, Note_on_c, 0, 62, 54
4, 29400, Note_on_c, 0, 62, 0
4, 29400, Note_on_c, 0, 59, 0
4, 29400, Note_on_c, 0, 59, 54
4, 29400, Note_on_c, 0, 62, 54
4, 29520, Note_on_c, 0, 62, 0
4, 29520, Note_on_c, 0, 59, 0
4, 29520, Note_on_c, 0, 59, 54
4, 29520, Note_on_c, 0, 62, 54
4, 29640, Note_on_c, 0, 62, 0
4, 29640, Note_on_c, 0, 59, 0
4, 29640, Note_on_c, 0, 59, 54
4, 29640, Note_on_c, 0, 62, 54
4, 29760, Note_on_c, 0, 62, 0
4, 29760, Note_on_c, 0, 59, 0
4, 29760, Note_on_c, 0, 60, 54
4, 29760, Note_on_c, 0, 62, 54
4, 29880, Note_on_c, 0, 62, 0
4, 29880, Note_on_c, 0, 60, 0
4, 29880, Note_on_c, 0, 60, 54
4, 29880, Note_on_c, 0, 62, 54
4, 30000, Note_on_c, 0, 62, 0
4, 30000, Note_on_c, 0, 60, 0
4, 30000, Note_on_c, 0, 60, 54
4, 30000, Note_on_c, 0, 63, 54
4, 30120, Note_on_c, 0, 63, 0
4, 30120, Note_on_c, 0, 60, 0
4, 30120, Note_on_c, 0, 60, 54
4, 30120, Note_on_c, 0, 63, 54
4, 30240, Note_on_c, 0, 63, 0
4, 30240, Note_on_c, 0, 60, 0
4, 30240, Note_on_c, 0, 51, 54
4, 30240, Note_on_c, 0, 55, 54
4, 30240, Note_on_c, 0, 60, 54
4, 30360, Note_on_c, 0, 60, 0
4, 30360, Note_on_c, 0, 55, 0
4, 30360, Note_on_c, 0, 51, 0
4, 30360, Note_on_c, 0, 51, 54
4, 30360, Note_on_c, 0, 55, 54
4, 30360, Note_on_c, 0, 60, 54
4, 30480, Note_on_c, 0, 60, 0
4, 30480, Note_on_c, 0, 55, 0
4, 30480, Note_on_c, 0, 51, 0
4, 30480, Note_on_c, 0, 51, 54
4, 30480, Note_on_c, 0, 55, 54
4, 30480, Note_on_c, 0, 60, 54
4, 30600, Note_on_c, 0, 60, 0
4, 30600, Note_on_c, 0, 55, 0
4, 30600, Note_on_c, 0, 51, 0
4, 30600, Note_on_c, 0, 51, 54
4, 30600, Note_on_c, 0, 55, 54
4, 30600, Note_on_c, 0, 60, 54
4, 30720, Note_on_c, 0, 60, 0
4, 30720, Note_on_c, 0, 55, 0
4, 30720, Note_on_c, 0, 51, 0
4, 30720, Note_on_c, 0, 53, 54
4, 30720, Note_on_c, 0, 56, 54
4, 30720, Note_on_c, 0, 60, 54
4, 30840, Note_on_c, 0, 60, 0
4, 30840, Note_on_c, 0, 56, 0
4, 30840, Note_on_c, 0, 53, 0
4, 30840, Note_on_c, 0, 53, 54
4, 30840, Note_on_c, 0, 56, 54
4, 30840, Note_on_c, 0, 60, 54
4, 30960, Note_on_c, 0, 60, 0
4, 30960, Note_on_c, 0, 56, 0
4, 30960, Note_on_c, 0, 53, 0
4, 30960, Note_on_c, 0, 53, 54
4, 30960, Note_on_c, 0, 56, 54
4, 30960, Note_on_c, 0, 60, 54
4, 31080, Note_on_c, 0, 60, 0
4, 31080, Note_on_c, 0, 56, 0
4, 31080, Note_on_c, 0, 53, 0
4, 31080, Note_on_c, 0, 53, 54
4, 31080, Note_on_c, 0, 56, 54
4, 31080, Note_on_c, 0, 60, 54
4, 31200, Note_on_c, 0, 60, 0
4, 31200, Note_on_c, 0, 56, 0
4, 31200, Note_on_c, 0, 53, 0
4, 31200, Note_on_c, 0, 55, 54
4, 31200, Note_on_c, 0, 60, 54
4, 31320, Note_on_c, 0, 60, 0
4, 31320, Note_on_c, 0, 55, 0
4, 31320, Note_on_c, 0, 55, 54
4, 31320, Note_on_c, 0, 60, 54
4, 31440, Note_on_c, 0, 60, 0
4, 31440, Note_on_c, 0, 55, 0
4, 31440, Note_on_c, 0, 55, 67
4, 31440, Note_on_c, 0, 60, 67
4, 31560, Note_on_c, 0, 60, 0
4, 31560, Note_on_c, 0, 55, 0
4, 31560, Note_on_c, 0, 55, 67
4, 31560, Note_on_c, 0, 60, 67
4, 31680, Note_on_c, 0, 60, 0
4, 31680, Note_on_c, 0, 55, 0
4, 31680, Note_on_c, 0, 56, 67
4, 31680, Note_on_c, 0, 58, 67
4, 31800, Note_on_c, 0, 58, 0
4, 31800, Note_on_c, 0, 56, 0
4, 31800, Note_on_c, 0, 56, 67
4, 31800, Note_on_c, 0, 58, 67
4, 31920, Note_on_c, 0, 58, 0
4, 31920, Note_on_c, 0, 56, 0
4, 31920, Note_on_c, 0, 56, 54
4, 31920, Note_on_c, 0, 60, 54
4, 32040, Note_on_c, 0, 60, 0
4, 32040, Note_on_c, 0, 56, 0
4, 32040, Note_on_c, 0, 56, 54
4, 32040, Note_on_c, 0, 60, 54
4, 32160, Note_on_c, 0, 60, 0
4, 32160, Note_on_c, 0, 56, 0
4, 32160, Note_on_c, 0, 51, 54
4, 32160, Note_on_c, 0, 55, 54
4, 32160, Note_on_c, 0, 60, 54
4, 32280, Note_on_c, 0, 60, 0
4, 32280, Note_on_c, 0, 55, 0
4, 32280, Note_on_c, 0, 51, 0
4, 32280, Note_on_c, 0, 51, 54
4, 32280, Note_on_c, 0, 55, 54
4, 32280, Note_on_c, 0, 60, 54
4, 32400, Note_on_c, 0, 60, 0
4, 32400, Note_on_c, 0, 55, 0
4, 32400, Note_on_c, 0, 51, 0
4, 32400, Note_on_c, 0, 51, 54
4, 32400, Note_on_c, 0, 55, 54
4, 32400, Note_on_c, 0, 60, 54
4, 32520, Note_on_c, 0, 60, 0
4, 32520, Note_on_c, 0, 55, 0
4, 32520, Note_on_c, 0, 51, 0
4, 32520, Note_on_c, 0, 51, 54
4, 32520, Note_on_c, 0, 55, 54
4, 32520, Note_on_c, 0, 60, 54
4, 32640, Note_on_c, 0, 60, 0
4, 32640, Note_on_c, 0, 55, 0
4, 32640, Note_on_c, 0, 51, 0
4, 32640, Note_on_c, 0, 53, 54
4, 32640, Note_on_c, 0, 56, 54
4, 32640, Note_on_c, 0, 60, 54
4, 32760, Note_on_c, 0, 60, 0
4, 32760, Note_on_c, 0, 56, 0
4, 32760, Note_on_c, 0, 53, 0
4, 32760, Note_on_c, 0, 53, 54
4, 32760, Note_on_c, 0, 56, 54
4, 32760, Note_on_c, 0, 60, 54
4, 32880, Note_on_c, 0, 60, 0
4, 32880, Note_on_c, 0, 56, 0
4, 32880, Note_on_c, 0, 53, 0
4, 32880, Note_on_c, 0, 53, 54
4, 32880, Note_on_c, 0, 56, 54
4, 32880, Note_on_c, 0, 60, 54
4, 33000, Note_on_c, 0, 60, 0
4, 33000, Note_on_c, 0, 56, 0
4, 33000, Note_on_c, 0, 53, 0
4, 33000, Note_on_c, 0, 53, 54
4, 33000, Note_on_c, 0, 56, 54
4, 33000, Note_on_c, 0, 60, 54
4, 33120, Note_on_c, 0, 60, 0
4, 33120, Note_on_c, 0, 56, 0
4, 33120, Note_on_c, 0, 53, 0
4, 33120, Note_on_c, 0, 55, 54
4, 33120, Note_on_c, 0, 60, 54
4, 33240, Note_on_c, 0, 60, 0
4, 33240, Note_on_c, 0, 55, 0
4, 33240, Note_on_c, 0, 55, 54
4, 33240, Note_on_c, 0, 60, 54
4, 33360, Note_on_c, 0, 60, 0
4, 33360, Note_on_c, 0, 55, 0
4, 33360, Note_on_c, 0, 55, 67
4, 33360, Note_on_c, 0, 60, 67
4, 33480, Note_on_c, 0, 60, 0
4, 33480, Note_on_c, 0, 55, 0
4, 33480, Note_on_c, 0, 55, 67
4, 33480, Note_on_c, 0, 60, 67
4, 33600, Note_on_c, 0, 60, 0
4, 33600, Note_on_c, 0, 55, 0
4, 33600, Note_on_c, 0, 56, 67
4, 33600, Note_on_c, 0, 58, 67
4, 33720, Note_on_c, 0, 58, 0
4, 33720, Note_on_c, 0, 56, 0
4, 33720, Note_on_c, 0, 56, 67
4, 33720, Note_on_c, 0, 58, 67
4, 33840, Note_on_c, 0, 58, 0
4, 33840, Note_on_c, 0, 56, 0
4, 33840, Note_on_c, 0, 56, 54
4, 33840, Note_on_c, 0, 60, 54
4, 33960, Note_on_c, 0, 60, 0
4, 33960, Note_on_c, 0, 56, 0
4, 33960, Note_on_c, 0, 56, 54
4, 33960, Note_on_c, 0, 60, 54
4, 34080, Note_on_c, 0, 60, 0
4, 34080, Note_on_c, 0, 56, 0
4, 34080, Note_on_c, 0, 56, 54
4, 34080, Note_on_c, 0, 60, 54
4, 34200, Note_on_c, 0, 60, 0
4, 34200, Note_on_c, 0, 56, 0
4, 34200, Note_on_c, 0, 56, 54
4, 34200, Note_on_c, 0, 60, 54
4, 34320, Note_on_c, 0, 60, 0
4, 34320, Note_on_c, 0, 56, 0
4, 34320, Note_on_c, 0, 56, 54
4, 34320, Note_on_c, 0, 60, 54
4, 34440, Note_on_c, 0, 60, 0
4, 34440, Note_on_c, 0, 56, 0
4, 34440, Note_on_c, 0, 56, 54
4, 34440, Note_on_c, 0, 60, 54
4, 34560, Note_on_c, 0, 60, 0
4, 34560, Note_on_c, 0, 56, 0
4, 34560, Note_on_c, 0, 57, 54
4, 34680, Note_on_c, 0, 57, 0
4, 34680, Note_on_c, 0, 57, 54
4, 34800, Note_on_c, 0, 57, 0
4, 34800, Note_on_c, 0, 57, 54
4, 34920, Note_on_c, 0, 57, 0
4, 34920, Note_on_c, 0, 57, 54
4, 35040, Note_on_c, 0, 57, 0
4, 35040, Note_on_c, 0, 57, 54
4, 35160, Note_on_c, 0, 57, 0
4, 35160, Note_on_c, 0, 57, 54
4, 35280, Note_on_c, 0, 57, 0
4, 35280, Note_on_c, 0, 57, 54
4, 35400, Note_on_c, 0, 57, 0
4, 35400, Note_on_c, 0, 57, 54
4, 35520, Note_on_c, 0, 57, 0
4, 35520, Note_on_c, 0, 58, 54
4, 35640, Note_on_c, 0, 58, 0
4, 35640, Note_on_c, 0, 58, 54
4, 35760, Note_on_c, 0, 58, 0
4, 35760, Note_on_c, 0, 59, 54
4, 35880, Note_on_c, 0, 59, 0
4, 35880, Note_on_c, 0, 59, 54
4, 36000, Note_on_c, 0, 59, 0
4, 36000, Note_on_c, 0, 60, 54
4, 36120, Note_on_c, 0, 60, 0
4, 36120, Note_on_c, 0, 60, 54
4, 36240, Note_on_c, 0, 60, 0
4, 36240, Note_on_c, 0, 62, 54
4, 36360, Note_on_c, 0, 62, 0
4, 36360, Note_on_c, 0, 62, 54
4, 36480, Note_on_c, 0, 62, 0
4, 36480, Note_on_c, 0, 63, 54
4, 36600, Note_on_c, 0, 63, 0
4, 36600, Note_on_c, 0, 63, 54
4, 36720, Note_on_c, 0, 63, 0
4, 36720, Note_on_c, 0, 66, 54
4, 36840, Note_on_c, 0, 66, 0
4, 36840, Note_on_c, 0, 66, 54
4, 36960, Note_on_c, 0, 66, 0
4, 36960, Note_on_c, 0, 55, 54
4, 36960, Note_on_c, 0, 63, 54
4, 37080, Note_on_c, 0, 63, 0
4, 37080, Note_on_c, 0, 55, 0
4, 37080, Note_on_c, 0, 55, 54
4, 37080, Note_on_c, 0, 63, 54
4, 37200, Note_on_c, 0, 63, 0
4, 37200, Note_on_c, 0, 55, 0
4, 37200, Note_on_c, 0, 53, 54
4, 37200, Note_on_c, 0, 55, 54
4, 37200, Note_on_c, 0, 62, 54
4, 37320, Note_on_c, 0, 62, 0
4, 37320, Note_on_c, 0, 55, 0
4, 37320, Note_on_c, 0, 53, 0
4, 37320, Note_on_c, 0, 53, 54
4, 37320, Note_on_c, 0, 55, 54
4, 37320, Note_on_c, 0, 62, 54
4, 37440, Note_on_c, 0, 62, 0
4, 37440, Note_on_c, 0, 55, 0
4, 37440, Note_on_c, 0, 53, 0
4, 37440, Note_on_c, 0, 51, 67
4, 37440, Note_on_c, 0, 55, 67
4, 37440, Note_on_c, 0, 60, 67
4, 37560, Note_on_c, 0, 60, 0
4, 37560, Note_on_c, 0, 55, 0
4, 37560, Note_on_c, 0, 51, 0
4, 37560, Note_on_c, 0, 51, 67
4, 37560, Note_on_c, 0, 55, 67
4, 37560, Note_on_c, 0, 60, 67
4, 37680, Note_on_c, 0, 60, 0
4, 37680, Note_on_c, 0, 55, 0
4, 37680, Note_on_c, 0, 51, 0
4, 37680, Note_on_c, 0, 51, 67
4, 37680, Note_on_c, 0, 56, 67
4, 37680, Note_on_c, 0, 60, 67
4, 37800, Note_on_c, 0, 60, 0
4, 37800, Note_on_c, 0, 56, 0
4, 37800, Note_on_c, 0, 51, 0
4, 37800, Note_on_c, 0, 51, 67
4, 37800, Note_on_c, 0, 56, 67
4, 37800, Note_on_c, 0, 60, 67
4, 37920, Note_on_c, 0, 60, 0
4, 37920, Note_on_c, 0, 56, 0
4, 37920, Note_on_c, 0, 51, 0
4, 37920, Note_on_c, 0, 50, 67
4, 37920, Note_on_c, 0, 57, 67
4, 37920, Note_on_c, 0, 60, 67
4, 37920, Note_on_c, 0, 62, 67
4, 38040, Note_on_c, 0, 62, 0
4, 38040, Note_on_c, 0, 50, 0
4, 38040, Note_on_c, 0, 57, 0
4, 38040, Note_on_c, 0, 60, 0
4, 38040, Note_on_c, 0, 50, 67
4, 38040, Note_on_c, 0, 57, 67
4, 38040, Note_on_c, 0, 60, 67
4, 38040, Note_on_c, 0, 62, 67
4, 38160, Note_on_c, 0, 62, 0
4, 38160, Note_on_c, 0, 50, 0
4, 38160, Note_on_c, 0, 57, 0
4, 38160, Note_on_c, 0, 60, 0
4, 38160, Note_on_c, 0, 55, 67
4, 38160, Note_on_c, 0, 59, 67
4, 38160, Note_on_c, 0, 62, 67
4, 38280, Note_on_c, 0, 62, 0
4, 38280, Note_on_c, 0, 59, 0
4, 38280, Note_on_c, 0, 55, 0
4, 38280, Note_on_c, 0, 55, 67
4, 38280, Note_on_c, 0, 59, 67
4, 38280, Note_on_c, 0, 62, 67
4, 38400, Note_on_c, 0, 62, 0
4, 38400, Note_on_c, 0, 59, 0
4, 38400, Note_on_c, 0, 55, 0
4, 38400, Note_on_c, 0, 60, 67
4, 38520, Note_on_c, 0, 60, 0
4, 38520, Note_on_c, 0, 60, 67
4, 38640, Note_on_c, 0, 60, 0
4, 38640, Note_on_c, 0, 56, 67
4, 38640, Note_on_c, 0, 60, 67
4, 38640, Note_on_c, 0, 63, 67
4, 38760, Note_on_c, 0, 63, 0
4, 38760, Note_on_c, 0, 60, 0
4, 38760, Note_on_c, 0, 56, 0
4, 38760, Note_on_c, 0, 56, 67
4, 38760, Note_on_c, 0, 60, 67
4, 38760, Note_on_c, 0, 63, 67
4, 38880, Note_on_c, 0, 63, 0
4, 38880, Note_on_c, 0, 60, 0
4, 38880, Note_on_c, 0, 56, 0
4, 38880, Note_on_c, 0, 56, 67
4, 38880, Note_on_c, 0, 60, 67
4, 38880, Note_on_c, 0, 63, 67
4, 39000, Note_on_c, 0, 63, 0
4, 39000, Note_on_c, 0, 60, 0
4, 39000, Note_on_c, 0, 56, 0
4, 39000, Note_on_c, 0, 56, 67
4, 39000, Note_on_c, 0, 60, 67
4, 39000, Note_on_c, 0, 63, 67
4, 39120, Note_on_c, 0, 63, 0
4, 39120, Note_on_c, 0, 60, 0
4, 39120, Note_on_c, 0, 56, 0
4, 39120, Note_on_c, 0, 56, 67
4, 39120, Note_on_c, 0, 60, 67
4, 39120, Note_on_c, 0, 63, 67
4, 39240, Note_on_c, 0, 63, 0
4, 39240, Note_on_c, 0, 60, 0
4, 39240, Note_on_c, 0, 56, 0
4, 39240, Note_on_c, 0, 56, 67
4, 39240, Note_on_c, 0, 60, 67
4, 39240, Note_on_c, 0, 63, 67
4, 39360, Note_on_c, 0, 63, 0
4, 39360, Note_on_c, 0, 60, 0
4, 39360, Note_on_c, 0, 56, 0
4, 39360, Note_on_c, 0, 55, 67
4, 39360, Note_on_c, 0, 60, 67
4, 39360, Note_on_c, 0, 63, 67
4, 39480, Note_on_c, 0, 63, 0
4, 39480, Note_on_c, 0, 60, 0
4, 39480, Note_on_c, 0, 55, 0
4, 39480, Note_on_c, 0, 55, 67
4, 39480, Note_on_c, 0, 60, 67
4, 39480, Note_on_c, 0, 63, 67
4, 39600, Note_on_c, 0, 63, 0
4, 39600, Note_on_c, 0, 60, 0
4, 39600, Note_on_c, 0, 55, 0
4, 39600, Note_on_c, 0, 55, 67
4, 39600, Note_on_c, 0, 60, 67
4, 39600, Note_on_c, 0, 63, 67
4, 39720, Note_on_c, 0, 63, 0
4, 39720, Note_on_c, 0, 60, 0
4, 39720, Note_on_c, 0, 55, 0
4, 39720, Note_on_c, 0, 55, 67
4, 39720, Note_on_c, 0, 60, 67
4, 39720, Note_on_c, 0, 63, 67
4, 39840, Note_on_c, 0, 63, 0
4, 39840, Note_on_c, 0, 60, 0
4, 39840, Note_on_c, 0, 55, 0
4, 39840, Note_on_c, 0, 55, 67
4, 39840, Note_on_c, 0, 60, 67
4, 39840, Note_on_c, 0, 63, 67
4, 39960, Note_on_c, 0, 63, 0
4, 39960, Note_on_c, 0, 60, 0
4, 39960, Note_on_c, 0, 55, 0
4, 39960, Note_on_c, 0, 55, 67
4, 39960, Note_on_c, 0, 60, 67
4, 39960, Note_on_c, 0, 63, 67
4, 40080, Note_on_c, 0, 63, 0
4, 40080, Note_on_c, 0, 60, 0
4, 40080, Note_on_c, 0, 55, 0
4, 40080, Note_on_c, 0, 55, 67
4, 40080, Note_on_c, 0, 60, 67
4, 40080, Note_on_c, 0, 63, 67
4, 40200, Note_on_c, 0, 63, 0
4, 40200, Note_on_c, 0, 60, 0
4, 40200, Note_on_c, 0, 55, 0
4, 40200, Note_on_c, 0, 55, 67
4, 40200, Note_on_c, 0, 60, 67
4, 40200, Note_on_c, 0, 63, 67
4, 40320, Note_on_c, 0, 63, 0
4, 40320, Note_on_c, 0, 60, 0
4, 40320, Note_on_c, 0, 55, 0
4, 40320, Note_on_c, 0, 55, 67
4, 40320, Note_on_c, 0, 62, 67
4, 40440, Note_on_c, 0, 62, 0
4, 40440, Note_on_c, 0, 55, 0
4, 40440, Note_on_c, 0, 55, 67
4, 40440, Note_on_c, 0, 62, 67
4, 40560, Note_on_c, 0, 62, 0
4, 40560, Note_on_c, 0, 55, 0
4, 40560, Note_on_c, 0, 55, 67
4, 40560, Note_on_c, 0, 62, 67
4, 40680, Note_on_c, 0, 62, 0
4, 40680, Note_on_c, 0, 55, 0
4, 40680, Note_on_c, 0, 55, 67
4, 40680, Note_on_c, 0, 62, 67
4, 40800, Note_on_c, 0, 62, 0
4, 40800, Note_on_c, 0, 55, 0
4, 40800, Note_on_c, 0, 55, 67
4, 40800, Note_on_c, 0, 62, 67
4, 40920, Note_on_c, 0, 62, 0
4, 40920, Note_on_c, 0, 55, 0
4, 40920, Note_on_c, 0, 55, 67
4, 40920, Note_on_c, 0, 62, 67
4, 41040, Note_on_c, 0, 62, 0
4, 41040, Note_on_c, 0, 55, 0
4, 41040, Note_on_c, 0, 55, 67
4, 41040, Note_on_c, 0, 62, 67
4, 41160, Note_on_c, 0, 62, 0
4, 41160, Note_on_c, 0, 55, 0
4, 41160, Note_on_c, 0, 55, 67
4, 41160, Note_on_c, 0, 62, 67
4, 41280, Note_on_c, 0, 62, 0
4, 41280, Note_on_c, 0, 55, 0
4, 41280, Control_c, 0, 64, 127
4, 41280, Note_on_c, 0, 48, 67
4, 41520, Note_on_c, 0, 48, 0
4, 41520, Note_on_c, 0, 46, 67
4, 41760, Note_on_c, 0, 46, 0
4, 41760, Note_on_c, 0, 44, 67
4, 42000, Note_on_c, 0, 44, 0
4, 42000, Note_on_c, 0, 43, 67
4, 42240, Note_on_c, 0, 43, 0
4, 42240, Control_c, 0, 64, 127
4, 42240, Note_on_c, 0, 41, 67
4, 42480, Note_on_c, 0, 41, 0
4, 42480, Note_on_c, 0, 45, 67
4, 42720, Note_on_c, 0, 45, 0
4, 42720, Note_on_c, 0, 48, 67
4, 42960, Note_on_c, 0, 48, 0
4, 42960, Control_c, 0, 64, 0
4, 42960, Note_on_c, 0, 53, 67
4, 43200, Note_on_c, 0, 53, 0
4, 43200, Note_on_c, 0, 58, 54
4, 43200, Note_on_c, 0, 61, 54
4, 43320, Note_on_c, 0, 61, 0
4, 43320, Note_on_c, 0, 58, 0
4, 43320, Note_on_c, 0, 58, 54
4, 43320, Note_on_c, 0, 61, 54
4, 43440, Note_on_c, 0, 61, 0
4, 43440, Note_on_c, 0, 58, 0
4, 43440, Note_on_c, 0, 58, 54
4, 43440, Note_on_c, 0, 61, 54
4, 43560, Note_on_c, 0, 61, 0
4, 43560, Note_on_c, 0, 58, 0
4, 43560, Note_on_c, 0, 58, 54
4, 43560, Note_on_c, 0, 61, 54
4, 43680, Note_on_c, 0, 61, 0
4, 43680, Note_on_c, 0, 58, 0
4, 43680, Note_on_c, 0, 58, 54
4, 43680, Note_on_c, 0, 61, 54
4, 43800, Note_on_c, 0, 61, 0
4, 43800, Note_on_c, 0, 58, 0
4, 43800, Note_on_c, 0, 58, 54
4, 43800, Note_on_c, 0, 61, 54
4, 43920, Note_on_c, 0, 61, 0
4, 43920, Note_on_c, 0, 58, 0
4, 43920, Note_on_c, 0, 58, 54
4, 43920, Note_on_c, 0, 61, 54
4, 44040, Note_on_c, 0, 61, 0
4, 44040, Note_on_c, 0, 58, 0
4, 44040, Note_on_c, 0, 58, 54
4, 44040, Note_on_c, 0, 61, 54
4, 44160, Note_on_c, 0, 61, 0
4, 44160, Note_on_c, 0, 58, 0
4, 44160, Note_on_c, 0, 55, 54
4, 44160, Note_on_c, 0, 58, 54
4, 44280, Note_on_c, 0, 58, 0
4, 44280, Note_on_c, 0, 55, 0
4, 44280, Note_on_c, 0, 55, 54
4, 44280, Note_on_c, 0, 58, 54
4, 44400, Note_on_c, 0, 58, 0
4, 44400, Note_on_c, 0, 55, 0
4, 44400, Note_on_c, 0, 55, 54
4, 44400, Note_on_c, 0, 58, 54
4, 44520, Note_on_c, 0, 58, 0
4, 44520, Note_on_c, 0, 55, 0
4, 44520, Note_on_c, 0, 55, 54
4, 44520, Note_on_c, 0, 58, 54
4, 44640, Note_on_c, 0, 58, 0
4, 44640, Note_on_c, 0, 55, 0
4, 44640, Note_on_c, 0, 55, 54
4, 44640, Note_on_c, 0, 58, 54
4, 44760, Note_on_c, 0, 58, 0
4, 44760, Note_on_c, 0, 55, 0
4, 44760, Note_on_c, 0, 55, 54
4, 44760, Note_on_c, 0, 58, 54
4, 44880, Note_on_c, 0, 58, 0
4, 44880, Note_on_c, 0, 55, 0
4, 44880, Note_on_c, 0, 52, 54
4, 44880, Note_on_c, 0, 55, 54
4, 44880, Note_on_c, 0, 58, 54
4, 45000, Note_on_c, 0, 58, 0
4, 45000, Note_on_c, 0, 55, 0
4, 45000, Note_on_c, 0, 52, 0
4, 45000, Note_on_c, 0, 52, 54
4, 45000, Note_on_c, 0, 55, 54
4, 45000, Note_on_c, 0, 58, 54
4, 45120, Note_on_c, 0, 58, 0
4, 45120, Note_on_c, 0, 55, 0
4, 45120, Note_on_c, 0, 52, 0
4, 45120, Note_on_c, 0, 53, 54
4, 45120, Note_on_c, 0, 56, 54
4, 45240, Note_on_c, 0, 56, 0
4, 45240, Note_on_c, 0, 53, 0
4, 45240, Note_on_c, 0, 53, 54
4, 45240, Note_on_c, 0, 56, 54
4, 45360, Note_on_c, 0, 56, 0
4, 45360, Note_on_c, 0, 53, 0
4, 45360, Note_on_c, 0, 55, 54
4, 45480, Note_on_c, 0, 55, 0
4, 45480, Note_on_c, 0, 55, 54
4, 45600, Note_on_c, 0, 55, 0
4, 45600, Note_on_c, 0, 56, 54
4, 45720, Note_on_c, 0, 56, 0
4, 45720, Note_on_c, 0, 56, 54
4, 45840, Note_on_c, 0, 56, 0
4, 45840, Note_on_c, 0, 52, 54
4, 45840, Note_on_c, 0, 55, 54
4, 45960, Note_on_c, 0, 55, 0
4, 45960, Note_on_c, 0, 52, 0
4, 45960, Note_on_c, 0, 52, 54
4, 45960, Note_on_c, 0, 55, 54
4, 46080, Note_on_c, 0, 55, 0
4, 46080, Note_on_c, 0, 52, 0
4, 46080, Note_on_c, 0, 53, 54
4, 46200, Note_on_c, 0, 53, 0
4, 46200, Note_on_c, 0, 53, 54
4, 46320, Note_on_c, 0, 53, 0
4, 46320, Note_on_c, 0, 53, 54
4, 46440, Note_on_c, 0, 53, 0
4, 46440, Note_on_c, 0, 53, 54
4, 46560, Note_on_c, 0, 53, 0
4, 46560, Note_on_c, 0, 53, 54
4, 46560, Note_on_c, 0, 55, 54
4, 46680, Note_on_c, 0, 55, 0
4, 46680, Note_on_c, 0, 53, 0
4, 46680, Note_on_c, 0, 53, 54
4, 46680, Note_on_c, 0, 55, 54
4, 46800, Note_on_c, 0, 55, 0
4, 46800, Note_on_c, 0, 53, 0
4, 46800, Note_on_c, 0, 53, 54
4, 46800, Note_on_c, 0, 55, 54
4, 46920, Note_on_c, 0, 55, 0
4, 46920, Note_on_c, 0, 53, 0
4, 46920, Note_on_c, 0, 53, 54
4, 46920, Note_on_c, 0, 55, 54
4, 47040, Note_on_c, 0, 55, 0
4, 47040, Note_on_c, 0, 53, 0
4, 47040, Note_on_c, 0, 48, 54
4, 47040, Note_on_c, 0, 52, 54
4, 47160, Note_on_c, 0, 52, 0
4, 47160, Note_on_c, 0, 48, 0
4, 47160, Note_on_c, 0, 48, 54
4, 47160, Note_on_c, 0, 52, 54
4, 47280, Note_on_c, 0, 52, 0
4, 47280, Note_on_c, 0, 48, 0
4, 47280, Note_on_c, 0, 48, 54
4, 47280, Note_on_c, 0, 53, 54
4, 47280, Note_on_c, 0, 56, 54
4, 47400, Note_on_c, 0, 56, 0
4, 47400, Note_on_c, 0, 53, 0
4, 47400, Note_on_c, 0, 48, 0
4, 47400, Note_on_c, 0, 48, 54
4, 47400, Note_on_c, 0, 53, 54
4, 47400, Note_on_c, 0, 56, 54
4, 47520, Note_on_c, 0, 56, 0
4, 47520, Note_on_c, 0, 53, 0
4, 47520, Note_on_c, 0, 48, 0
4, 47520, Note_on_c, 0, 48, 54
4, 47520, Note_on_c, 0, 52, 54
4, 47640, Note_on_c, 0, 52, 0
4, 47640, Note_on_c, 0, 48, 0
4, 47640, Note_on_c, 0, 48, 54
4, 47640, Note_on_c, 0, 52, 54
4, 47760, Note_on_c, 0, 52, 0
4, 47760, Note_on_c, 0, 48, 0
4, 47760, Note_on_c, 0, 48, 54
4, 47760, Note_on_c, 0, 53, 54
4, 47760, Note_on_c, 0, 56, 54
4, 47880, Note_on_c, 0, 56, 0
4, 47880, Note_on_c, 0, 53, 0
4, 47880, Note_on_c, 0, 48, 0
4, 47880, Note_on_c, 0, 48, 54
4, 47880, Note_on_c, 0, 53, 54
4, 47880, Note_on_c, 0, 56, 54
4, 48000, Note_on_c, 0, 56, 0
4, 48000, Note_on_c, 0, 53, 0
4, 48000, Note_on_c, 0, 48, 0
4, 48000, Note_on_c, 0, 48, 54
4, 48000, Note_on_c, 0, 52, 54
4, 48000, Note_on_c, 0, 55, 54
4, 48120, Note_on_c, 0, 55, 0
4, 48120, Note_on_c, 0, 52, 0
4, 48120, Note_on_c, 0, 48, 0
4, 48120, Note_on_c, 0, 48, 54
4, 48120, Note_on_c, 0, 52, 54
4, 48120, Note_on_c, 0, 55, 54
4, 48240, Note_on_c, 0, 55, 0
4, 48240, Note_on_c, 0, 52, 0
4, 48240, Note_on_c, 0, 48, 0
4, 48240, Note_on_c, 0, 50, 54
4, 48240, Note_on_c, 0, 53, 54
4, 48240, Note_on_c, 0, 56, 54
4, 48240, Note_on_c, 0, 59, 54
4, 48360, Note_on_c, 0, 59, 0
4, 48360, Note_on_c, 0, 50, 0
4, 48360, Note_on_c, 0, 53, 0
4, 48360, Note_on_c, 0, 56, 0
4, 48360, Note_on_c, 0, 50, 54
4, 48360, Note_on_c, 0, 53, 54
4, 48360, Note_on_c, 0, 56, 54
4, 48360, Note_on_c, 0, 59, 54
4, 48480, Note_on_c, 0, 59, 0
4, 48480, Note_on_c, 0, 50, 0
4, 48480, Note_on_c, 0, 53, 0
4, 48480, Note_on_c, 0, 56, 0
4, 48480, Note_on_c, 0, 51, 54
4, 48480, Note_on_c, 0, 55, 54
4, 48480, Note_on_c, 0, 60, 54
4, 48600, Note_on_c, 0, 60, 0
4, 48600, Note_on_c, 0, 55, 0
4, 48600, Note_on_c, 0, 51, 0
4, 48600, Note_on_c, 0, 51, 54
4, 48600, Note_on_c, 0, 55, 54
4, 48600, Note_on_c, 0, 60, 54
4, 48720, Note_on_c, 0, 60, 0
4, 48720, Note_on_c, 0, 55, 0
4, 48720, Note_on_c, 0, 51, 0
4, 48720, Note_on_c, 0, 52, 54
4, 48720, Note_on_c, 0, 55, 54
4, 48720, Note_on_c, 0, 60, 54
4, 48840, Note_on_c, 0, 60, 0
4, 48840, Note_on_c, 0, 55, 0
4, 48840, Note_on_c, 0, 52, 0
4, 48840, Note_on_c, 0, 52, 54
4, 48840, Note_on_c, 0, 55, 54
4, 48840, Note_on_c, 0, 60, 54
4, 48960, Note_on_c, 0, 60, 0
4, 48960, Note_on_c, 0, 55, 0
4, 48960, Note_on_c, 0, 52, 0
4, 48960, Note_on_c, 0, 57, 54
4, 48960, Note_on_c, 0, 60, 54
4, 49080, Note_on_c, 0, 60, 0
4, 49080, Note_on_c, 0, 57, 0
4, 49080, Note_on_c, 0, 57, 54
4, 49080, Note_on_c, 0, 60, 54
4, 49200, Note_on_c, 0, 60, 0
4, 49200, Note_on_c, 0, 57, 0
4, 49200, Note_on_c, 0, 57, 54
4, 49200, Note_on_c, 0, 60, 54
4, 49320, Note_on_c, 0, 60, 0
4, 49320, Note_on_c, 0, 57, 0
4, 49320, Note_on_c, 0, 57, 54
4, 49320, Note_on_c, 0, 60, 54
4, 49440, Note_on_c, 0, 60, 0
4, 49440, Note_on_c, 0, 57, 0
4, 49440, Note_on_c, 0, 57, 54
4, 49440, Note_on_c, 0, 60, 54
4, 49560, Note_on_c, 0, 60, 0
4, 49560, Note_on_c, 0, 57, 0
4, 49560, Note_on_c, 0, 57, 54
4, 49560, Note_on_c, 0, 60, 54
4, 49680, Note_on_c, 0, 60, 0
4, 49680, Note_on_c, 0, 57, 0
4, 49680, Note_on_c, 0, 57, 54
4, 49680, Note_on_c, 0, 60, 54
4, 49800, Note_on_c, 0, 60, 0
4, 49800, Note_on_c, 0, 57, 0
4, 49800, Note_on_c, 0, 57, 54
4, 49800, Note_on_c, 0, 60, 54
4, 49920, Note_on_c, 0, 60, 0
4, 49920, Note_on_c, 0, 57, 0
4, 49920, Note_on_c, 0, 53, 54
4, 49920, Note_on_c, 0, 58, 54
4, 50040, Note_on_c, 0, 58, 0
4, 50040, Note_on_c, 0, 53, 0
4, 50040, Note_on_c, 0, 53, 54
4, 50040, Note_on_c, 0, 58, 54
4, 50160, Note_on_c, 0, 58, 0
4, 50160, Note_on_c, 0, 53, 0
4, 50160, Note_on_c, 0, 53, 54
4, 50160, Note_on_c, 0, 58, 54
4, 50280, Note_on_c, 0, 58, 0
4, 50280, Note_on_c, 0, 53, 0
4, 50280, Note_on_c, 0, 53, 54
4, 50280, Note_on_c, 0, 58, 54
4, 50400, Note_on_c, 0, 58, 0
4, 50400, Note_on_c, 0, 53, 0
4, 50400, Note_on_c, 0, 53, 54
4, 50400, Note_on_c, 0, 58, 54
4, 50520, Note_on_c, 0, 58, 0
4, 50520, Note_on_c, 0, 53, 0
4, 50520, Note_on_c, 0, 53, 54
4, 50520, Note_on_c, 0, 58, 54
4, 50640, Note_on_c, 0, 58, 0
4, 50640, Note_on_c, 0, 53, 0
4, 50640, Note_on_c, 0, 53, 54
4, 50640, Note_on_c, 0, 58, 54
4, 50760, Note_on_c, 0, 58, 0
4, 50760, Note_on_c, 0, 53, 0
4, 50760, Note_on_c, 0, 53, 54
4, 50760, Note_on_c, 0, 58, 54
4, 50880, Note_on_c, 0, 58, 0
4, 50880, Note_on_c, 0, 53, 0
4, 50880, Note_on_c, 0, 57, 54
4, 50880, Note_on_c, 0, 60, 54
4, 51000, Note_on_c, 0, 60, 0
4, 51000, Note_on_c, 0, 57, 0
4, 51000, Note_on_c, 0, 57, 54
4, 51000, Note_on_c, 0, 60, 54
4, 51120, Note_on_c, 0, 60, 0
4, 51120, Note_on_c, 0, 57, 0
4, 51120, Note_on_c, 0, 57, 54
4, 51120, Note_on_c, 0, 60, 54
4, 51240, Note_on_c, 0, 60, 0
4, 51240, Note_on_c, 0, 57, 0
4, 51240, Note_on_c, 0, 57, 54
4, 51240, Note_on_c, 0, 60, 54
4, 51360, Note_on_c, 0, 60, 0
4, 51360, Note_on_c, 0, 57, 0
4, 51360, Note_on_c, 0, 57, 54
4, 51360, Note_on_c, 0, 60, 54
4, 51480, Note_on_c, 0, 60, 0
4, 51480, Note_on_c, 0, 57, 0
4, 51480, Note_on_c, 0, 57, 54
4, 51480, Note_on_c, 0, 60, 54
4, 51600, Note_on_c, 0, 60, 0
4, 51600, Note_on_c, 0, 57, 0
4, 51600, Note_on_c, 0, 57, 54
4, 51600, Note_on_c, 0, 60, 54
4, 51720, Note_on_c, 0, 60, 0
4, 51720, Note_on_c, 0, 57, 0
4, 51720, Note_on_c, 0, 57, 54
4, 51720, Note_on_c, 0, 60, 54
4, 51840, Note_on_c, 0, 60, 0
4, 51840, Note_on_c, 0, 57, 0
4, 51840, Note_on_c, 0, 53, 54
4, 51840, Note_on_c, 0, 58, 54
4, 51960, Note_on_c, 0, 58, 0
4, 51960, Note_on_c, 0, 53, 0
4, 51960, Note_on_c, 0, 53, 54
4, 51960, Note_on_c, 0, 58, 54
4, 52080, Note_on_c, 0, 58, 0
4, 52080, Note_on_c, 0, 53, 0
4, 52080, Note_on_c, 0, 53, 54
4, 52080, Note_on_c, 0, 58, 54
4, 52200, Note_on_c, 0, 58, 0
4, 52200, Note_on_c, 0, 53, 0
4, 52200, Note_on_c, 0, 53, 54
4, 52200, Note_on_c, 0, 58, 54
4, 52320, Note_on_c, 0, 58, 0
4, 52320, Note_on_c, 0, 53, 0
4, 52320, Note_on_c, 0, 46, 54
4, 52320, Note_on_c, 0, 53, 54
4, 52440, Note_on_c, 0, 53, 0
4, 52440, Note_on_c, 0, 46, 0
4, 52440, Note_on_c, 0, 46, 54
4, 52440, Note_on_c, 0, 53, 54
4, 52560, Note_on_c, 0, 53, 0
4, 52560, Note_on_c, 0, 46, 0
4, 52560, Note_on_c, 0, 48, 54
4, 52560, Note_on_c, 0, 53, 54
4, 52680, Note_on_c, 0, 53, 0
4, 52680, Note_on_c, 0, 48, 0
4, 52680, Note_on_c, 0, 48, 54
4, 52680, Note_on_c, 0, 53, 54
4, 52800, Note_on_c, 0, 53, 0
4, 52800, Note_on_c, 0, 48, 0
4, 52800, Note_on_c, 0, 53, 54
4, 52800, Note_on_c, 0, 56, 54
4, 52920, Note_on_c, 0, 56, 0
4, 52920, Note_on_c, 0, 53, 0
4, 52920, Note_on_c, 0, 53, 54
4, 52920, Note_on_c, 0, 56, 54
4, 53040, Note_on_c, 0, 56, 0
4, 53040, Note_on_c, 0, 53, 0
4, 53040, Note_on_c, 0, 53, 54
4, 53040, Note_on_c, 0, 56, 54
4, 53160, Note_on_c, 0, 56, 0
4, 53160, Note_on_c, 0, 53, 0
4, 53160, Note_on_c, 0, 53, 54
4, 53160, Note_on_c, 0, 56, 54
4, 53280, Note_on_c, 0, 56, 0
4, 53280, Note_on_c, 0, 53, 0
4, 53280, Note_on_c, 0, 53, 54
4, 53280, Note_on_c, 0, 56, 54
4, 53400, Note_on_c, 0, 56, 0
4, 53400, Note_on_c, 0, 53, 0
4, 53400, Note_on_c, 0, 53, 54
4, 53400, Note_on_c, 0, 56, 54
4, 53520, Note_on_c, 0, 56, 0
4, 53520, Note_on_c, 0, 53, 0
4, 53520, Note_on_c, 0, 53, 54
4, 53520, Note_on_c, 0, 56, 54
4, 53640, Note_on_c, 0, 56, 0
4, 53640, Note_on_c, 0, 53, 0
4, 53640, Note_on_c, 0, 53, 54
4, 53640, Note_on_c, 0, 56, 54
4, 53760, Note_on_c, 0, 56, 0
4, 53760, Note_on_c, 0, 53, 0
4, 53760, Note_on_c, 0, 53, 54
4, 53760, Note_on_c, 0, 56, 54
4, 53880, Note_on_c, 0, 56, 0
4, 53880, Note_on_c, 0, 53, 0
4, 53880, Note_on_c, 0, 53, 54
4, 53880, Note_on_c, 0, 56, 54
4, 54000, Note_on_c, 0, 56, 0
4, 54000, Note_on_c, 0, 53, 0
4, 54000, Note_on_c, 0, 53, 54
4, 54000, Note_on_c, 0, 56, 54
4, 54120, Note_on_c, 0, 56, 0
4, 54120, Note_on_c, 0, 53, 0
4, 54120, Note_on_c, 0, 53, 54
4, 54120, Note_on_c, 0, 56, 54
4, 54240, Note_on_c, 0, 56, 0
4, 54240, Note_on_c, 0, 53, 0
4, 54240, Note_on_c, 0, 53, 54
4, 54240, Note_on_c, 0, 56, 54
4, 54360, Note_on_c, 0, 56, 0
4, 54360, Note_on_c, 0, 53, 0
4, 54360, Note_on_c, 0, 53, 54
4, 54360, Note_on_c, 0, 56, 54
4, 54480, Note_on_c, 0, 56, 0
4, 54480, Note_on_c, 0, 53, 0
4, 54480, Note_on_c, 0, 53, 54
4, 54480, Note_on_c, 0, 56, 54
4, 54600, Note_on_c, 0, 56, 0
4, 54600, Note_on_c, 0, 53, 0
4, 54600, Note_on_c, 0, 53, 54
4, 54600, Note_on_c, 0, 56, 54
4, 54720, Note_on_c, 0, 56, 0
4, 54720, Note_on_c, 0, 53, 0
4, 54720, Note_on_c, 0, 48, 54
4, 54720, Note_on_c, 0, 53, 54
4, 54720, Note_on_c, 0, 56, 54
4, 54720, Note_on_c, 0, 60, 54
4, 54840, Note_on_c, 0, 60, 0
4, 54840, Note_on_c, 0, 48, 0
4, 54840, Note_on_c, 0, 53, 0
4, 54840, Note_on_c, 0, 56, 0
4, 54840, Note_on_c, 0, 48, 54
4, 54840, Note_on_c, 0, 53, 54
4, 54840, Note_on_c, 0, 56, 54
4, 54840, Note_on_c, 0, 60, 54
4, 54960, Note_on_c, 0, 60, 0
4, 54960, Note_on_c, 0, 48, 0
4, 54960, Note_on_c, 0, 53, 0
4, 54960, Note_on_c, 0, 56, 0
4, 54960, Note_on_c, 0, 48, 54
4, 54960, Note_on_c, 0, 53, 54
4, 54960, Note_on_c, 0, 56, 54
4, 54960, Note_on_c, 0, 60, 54
4, 55080, Note_on_c, 0, 60, 0
4, 55080, Note_on_c, 0, 48, 0
4, 55080, Note_on_c, 0, 53, 0
4, 55080, Note_on_c, 0, 56, 0
4, 55080, Note_on_c, 0, 48, 54
4, 55080, Note_on_c, 0, 53, 54
4, 55080, Note_on_c, 0, 56, 54
4, 55080, Note_on_c, 0, 60, 54
4, 55200, Note_on_c, 0, 60, 0
4, 55200, Note_on_c, 0, 48, 0
4, 55200, Note_on_c, 0, 53, 0
4, 55200, Note_on_c, 0, 56, 0
4, 55200, Note_on_c, 0, 46, 54
4, 55200, Note_on_c, 0, 48, 54
4, 55200, Note_on_c, 0, 55, 54
4, 55320, Note_on_c, 0, 55, 0
4, 55320, Note_on_c, 0, 48, 0
4, 55320, Note_on_c, 0, 46, 0
4, 55320, Note_on_c, 0, 46, 54
4, 55320, Note_on_c, 0, 48, 54
4, 55320, Note_on_c, 0, 55, 54
4, 55440, Note_on_c, 0, 55, 0
4, 55440, Note_on_c, 0, 48, 0
4, 55440, Note_on_c, 0, 46, 0
4, 55440, Note_on_c, 0, 46, 54
4, 55440, Note_on_c, 0, 48, 54
4, 55440, Note_on_c, 0, 55, 54
4, 55560, Note_on_c, 0, 55, 0
4, 55560, Note_on_c, 0, 48, 0
4, 55560, Note_on_c, 0, 46, 0
4, 55560, Note_on_c, 0, 46, 54
4, 55560, Note_on_c, 0, 48, 54
4, 55560, Note_on_c, 0, 55, 54
4, 55680, Note_on_c, 0, 55, 0
4, 55680, Note_on_c, 0, 48, 0
4, 55680, Note_on_c, 0, 46, 0
4, 55680, Note_on_c, 0, 44, 54
4, 55680, Note_on_c, 0, 48, 54
4, 55680, Note_on_c, 0, 53, 54
4, 55680, Note_on_c, 0, 56, 54
4, 55800, Note_on_c, 0, 56, 0
4, 55800, Note_on_c, 0, 44, 0
4, 55800, Note_on_c, 0, 48, 0
4, 55800, Note_on_c, 0, 53, 0
4, 55800, Note_on_c, 0, 44, 54
4, 55800, Note_on_c, 0, 48, 54
4, 55800, Note_on_c, 0, 53, 54
4, 55800, Note_on_c, 0, 56, 54
4, 55920, Note_on_c, 0, 56, 0
4, 55920, Note_on_c, 0, 44, 0
4, 55920, Note_on_c, 0, 48, 0
4, 55920, Note_on_c, 0, 53, 0
4, 55920, Note_on_c, 0, 44, 54
4, 55920, Note_on_c, 0, 48, 54
4, 55920, Note_on_c, 0, 53, 54
4, 55920, Note_on_c, 0, 56, 54
4, 56040, Note_on_c, 0, 56, 0
4, 56040, Note_on_c, 0, 44, 0
4, 56040, Note_on_c, 0, 48, 0
4, 56040, Note_on_c, 0, 53, 0
4, 56040, Note_on_c, 0, 44, 54
4, 56040, Note_on_c, 0, 48, 54
4, 56040, Note_on_c, 0, 53, 54
4, 56040, Note_on_c, 0, 56, 54
4, 56160, Note_on_c, 0, 56, 0
4, 56160, Note_on_c, 0, 44, 0
4, 56160, Note_on_c, 0, 48, 0
4, 56160, Note_on_c, 0, 53, 0
4, 56160, Note_on_c, 0, 44, 54
4, 56160, Note_on_c, 0, 48, 54
4, 56160, Note_on_c, 0, 53, 54
4, 56280, Note_on_c, 0, 53, 0
4, 56280, Note_on_c, 0, 48, 0
4, 56280, Note_on_c, 0, 44, 0
4, 56280, Note_on_c, 0, 44, 54
4, 56280, Note_on_c, 0, 48, 54
4, 56280, Note_on_c, 0, 53, 54
4, 56400, Note_on_c, 0, 53, 0
4, 56400, Note_on_c, 0, 48, 0
4, 56400, Note_on_c, 0, 44, 0
4, 56400, Note_on_c, 0, 44, 54
4, 56400, Note_on_c, 0, 48, 54
4, 56400, Note_on_c, 0, 53, 54
4, 56520, Note_on_c, 0, 53, 0
4, 56520, Note_on_c, 0, 48, 0
4, 56520, Note_on_c, 0, 44, 0
4, 56520, Note_on_c, 0, 44, 54
4, 56520, Note_on_c, 0, 48, 54
4, 56520, Note_on_c, 0, 53, 54
4, 56640, Note_on_c, 0, 53, 0
4, 56640, Note_on_c, 0, 48, 0
4, 56640, Note_on_c, 0, 44, 0
4, 56640, Note_on_c, 0, 46, 54
4, 56640, Note_on_c, 0, 53, 54
4, 56640, Note_on_c, 0, 55, 54
4, 56760, Note_on_c, 0, 55, 0
4, 56760, Note_on_c, 0, 53, 0
4, 56760, Note_on_c, 0, 46, 0
4, 56760, Note_on_c, 0, 46, 54
4, 56760, Note_on_c, 0, 53, 54
4, 56760, Note_on_c, 0, 55, 54
4, 56880, Note_on_c, 0, 55, 0
4, 56880, Note_on_c, 0, 53, 0
4, 56880, Note_on_c, 0, 46, 0
4, 56880, Note_on_c, 0, 46, 54
4, 56880, Note_on_c, 0, 53, 54
4, 56880, Note_on_c, 0, 55, 54
4, 57000, Note_on_c, 0, 55, 0
4, 57000, Note_on_c, 0, 53, 0
4, 57000, Note_on_c, 0, 46, 0
4, 57000, Note_on_c, 0, 46, 54
4, 57000, Note_on_c, 0, 53, 54
4, 57000, Note_on_c, 0, 55, 54
4, 57120, Note_on_c, 0, 55, 0
4, 57120, Note_on_c, 0, 53, 0
4, 57120, Note_on_c, 0, 46, 0
4, 57120, Note_on_c, 0, 48, 54
4, 57120, Note_on_c, 0, 53, 54
4, 57120, Note_on_c, 0, 56, 54
4, 57240, Note_on_c, 0, 56, 0
4, 57240, Note_on_c, 0, 53, 0
4, 57240, Note_on_c, 0, 48, 0
4, 57240, Note_on_c, 0, 48, 54
4, 57240, Note_on_c, 0, 53, 54
4, 57240, Note_on_c, 0, 56, 54
4, 57360, Note_on_c, 0, 56, 0
4, 57360, Note_on_c, 0, 53, 0
4, 57360, Note_on_c, 0, 48, 0
4, 57360, Note_on_c, 0, 48, 54
4, 57360, Note_on_c, 0, 53, 54
4, 57360, Note_on_c, 0, 56, 54
4, 57480, Note_on_c, 0, 56, 0
4, 57480, Note_on_c, 0, 53, 0
4, 57480, Note_on_c, 0, 48, 0
4, 57480, Note_on_c, 0, 48, 54
4, 57480, Note_on_c, 0, 53, 54
4, 57480, Note_on_c, 0, 56, 54
4, 57600, Note_on_c, 0, 56, 0
4, 57600, Note_on_c, 0, 53, 0
4, 57600, Note_on_c, 0, 48, 0
4, 57600, Note_on_c, 0, 49, 54
4, 57600, Note_on_c, 0, 51, 54
4, 57600, Note_on_c, 0, 57, 54
4, 57720, Note_on_c, 0, 57, 0
4, 57720, Note_on_c, 0, 51, 0
4, 57720, Note_on_c, 0, 49, 0
4, 57720, Note_on_c, 0, 49, 54
4, 57720, Note_on_c, 0, 51, 54
4, 57720, Note_on_c, 0, 57, 54
4, 57840, Note_on_c, 0, 57, 0
4, 57840, Note_on_c, 0, 51, 0
4, 57840, Note_on_c, 0, 49, 0
4, 57840, Note_on_c, 0, 49, 54
4, 57840, Note_on_c, 0, 53, 54
4, 57840, Note_on_c, 0, 56, 54
4, 57960, Note_on_c, 0, 56, 0
4, 57960, Note_on_c, 0, 53, 0
4, 57960, Note_on_c, 0, 49, 0
4, 57960, Note_on_c, 0, 49, 54
4, 57960, Note_on_c, 0, 53, 54
4, 57960, Note_on_c, 0, 56, 54
4, 58080, Note_on_c, 0, 56, 0
4, 58080, Note_on_c, 0, 53, 0
4, 58080, Note_on_c, 0, 49, 0
4, 58080, Note_on_c, 0, 53, 54
4, 58200, Note_on_c, 0, 53, 0
4, 58200, Note_on_c, 0, 53, 54
4, 58320, Note_on_c, 0, 53, 0
4, 58320, Note_on_c, 0, 53, 54
4, 58440, Note_on_c, 0, 53, 0
4, 58440, Note_on_c, 0, 53, 54
4, 58560, Note_on_c, 0, 53, 0
4, 58560, Note_on_c, 0, 53, 54
4, 58560, Note_on_c, 0, 55, 54
4, 58680, Note_on_c, 0, 55, 0
4, 58680, Note_on_c, 0, 53, 0
4, 58680, Note_on_c, 0, 53, 54
4, 58680, Note_on_c, 0, 55, 54
4, 58800, Note_on_c, 0, 55, 0
4, 58800, Note_on_c, 0, 53, 0
4, 58800, Note_on_c, 0, 53, 54
4, 58800, Note_on_c, 0, 55, 54
4, 58920, Note_on_c, 0, 55, 0
4, 58920, Note_on_c, 0, 53, 0
4, 58920, Note_on_c, 0, 53, 54
4, 58920, Note_on_c, 0, 55, 54
4, 59040, Note_on_c, 0, 55, 0
4, 59040, Note_on_c, 0, 53, 0
4, 59040, Note_on_c, 0, 53, 54
4, 59160, Note_on_c, 0, 53, 0
4, 59160, Note_on_c, 0, 53, 54
4, 59280, Note_on_c, 0, 53, 0
4, 59280, Note_on_c, 0, 53, 54
4, 59400, Note_on_c, 0, 53, 0
4, 59400, Note_on_c, 0, 53, 54
4, 59520, Note_on_c, 0, 53, 0
4, 59520, Note_on_c, 0, 54, 54
4, 59640, Note_on_c, 0, 54, 0
4, 59640, Note_on_c, 0, 54, 54
4, 59760, Note_on_c, 0, 54, 0
4, 59760, Note_on_c, 0, 53, 54
4, 59880, Note_on_c, 0, 53, 0
4, 59880, Note_on_c, 0, 53, 54
4, 60000, Note_on_c, 0, 53, 0
4, 60000, Note_on_c, 0, 53, 54
4, 60120, Note_on_c, 0, 53, 0
4, 60120, Note_on_c, 0, 53, 54
4, 60240, Note_on_c, 0, 53, 0
4, 60240, Note_on_c, 0, 53, 54
4, 60360, Note_on_c, 0, 53, 0
4, 60360, Note_on_c, 0, 53, 54
4, 60480, Note_on_c, 0, 53, 0
4, 60480, Note_on_c, 0, 51, 54
4, 60480, Note_on_c, 0, 55, 54
4, 60600, Note_on_c, 0, 55, 0
4, 60600, Note_on_c, 0, 51, 0
4, 60600, Note_on_c, 0, 51, 54
4, 60600, Note_on_c, 0, 55, 54
4, 60720, Note_on_c, 0, 55, 0
4, 60720, Note_on_c, 0, 51, 0
4, 60720, Note_on_c, 0, 52, 54
4, 60720, Note_on_c, 0, 55, 54
4, 60720, Note_on_c, 0, 58, 54
4, 60840, Note_on_c, 0, 58, 0
4, 60840, Note_on_c, 0, 55, 0
4, 60840, Note_on_c, 0, 52, 0
4, 60840, Note_on_c, 0, 52, 54
4, 60840, Note_on_c, 0, 55, 54
4, 60840, Note_on_c, 0, 58, 54
4, 60960, Note_on_c, 0, 58, 0
4, 60960, Note_on_c, 0, 55, 0
4, 60960, Note_on_c, 0, 52, 0
4, 60960, Note_on_c, 0, 53, 54
4, 60960, Note_on_c, 0, 56, 54
4, 60960, Note_on_c, 0, 59, 54
4, 61080, Note_on_c, 0, 59, 0
4, 61080, Note_on_c, 0, 56, 0
4, 61080, Note_on_c, 0, 53, 0
4, 61080, Note_on_c, 0, 53, 54
4, 61080, Note_on_c, 0, 56, 54
4, 61080, Note_on_c, 0, 59, 54
4, 61200, Note_on_c, 0, 59, 0
4, 61200, Note_on_c, 0, 56, 0
4, 61200, Note_on_c, 0, 53, 0
4, 61200, Note_on_c, 0, 55, 54
4, 61200, Note_on_c, 0, 58, 54
4, 61200, Note_on_c, 0, 61, 54
4, 61320, Note_on_c, 0, 61, 0
4, 61320, Note_on_c, 0, 58, 0
4, 61320, Note_on_c, 0, 55, 0
4, 61320, Note_on_c, 0, 55, 54
4, 61320, Note_on_c, 0, 58, 54
4, 61320, Note_on_c, 0, 61, 54
4, 61440, Note_on_c, 0, 61, 0
4, 61440, Note_on_c, 0, 58, 0
4, 61440, Note_on_c, 0, 55, 0
4, 61680, Note_on_c, 0, 51, 54
4, 61800, Note_on_c, 0, 51, 0
4, 61800, Note_on_c, 0, 51, 54
4, 61920, Note_on_c, 0, 51, 0
4, 61920, Note_on_c, 0, 50, 54
4, 62040, Note_on_c, 0, 50, 0
4, 62040, Note_on_c, 0, 50, 54
4, 62160, Note_on_c, 0, 50, 0
4, 62160, Note_on_c, 0, 46, 54
4, 62160, Note_on_c, 0, 49, 54
4, 62160, Note_on_c, 0, 55, 54
4, 62280, Note_on_c, 0, 55, 0
4, 62280, Note_on_c, 0, 49, 0
4, 62280, Note_on_c, 0, 46, 0
4, 62280, Note_on_c, 0, 46, 54
4, 62280, Note_on_c, 0, 49, 54
4, 62280, Note_on_c, 0, 55, 54
4, 62400, Note_on_c, 0, 55, 0
4, 62400, Note_on_c, 0, 49, 0
4, 62400, Note_on_c, 0, 46, 0
4, 62400, Note_on_c, 0, 48, 54
4, 62400, Note_on_c, 0, 53, 54
4, 62400, Note_on_c, 0, 56, 54
4, 62520, Note_on_c, 0, 56, 0
4, 62520, Note_on_c, 0, 53, 0
4, 62520, Note_on_c, 0, 48, 0
4, 62520, Note_on_c, 0, 48, 54
4, 62520, Note_on_c, 0, 53, 54
4, 62520, Note_on_c, 0, 56, 54
4, 62640, Note_on_c, 0, 56, 0
4, 62640, Note_on_c, 0, 53, 0
4, 62640, Note_on_c, 0, 48, 0
4, 62640, Note_on_c, 0, 48, 54
4, 62640, Note_on_c, 0, 53, 54
4, 62640, Note_on_c, 0, 56, 54
4, 62760, Note_on_c, 0, 56, 0
4, 62760, Note_on_c, 0, 53, 0
4, 62760, Note_on_c, 0, 48, 0
4, 62760, Note_on_c, 0, 48, 54
4, 62760, Note_on_c, 0, 53, 54
4, 62760, Note_on_c, 0, 56, 54
4, 62880, Note_on_c, 0, 56, 0
4, 62880, Note_on_c, 0, 53, 0
4, 62880, Note_on_c, 0, 48, 0
4, 62880, Note_on_c, 0, 48, 54
4, 62880, Note_on_c, 0, 55, 54
4, 63000, Note_on_c, 0, 55, 0
4, 63000, Note_on_c, 0, 48, 0
4, 63000, Note_on_c, 0, 48, 54
4, 63000, Note_on_c, 0, 55, 54
4, 63120, Note_on_c, 0, 55, 0
4, 63120, Note_on_c, 0, 48, 0
4, 63120, Note_on_c, 0, 48, 54
4, 63120, Note_on_c, 0, 55, 54
4, 63240, Note_on_c, 0, 55, 0
4, 63240, Note_on_c, 0, 48, 0
4, 63240, Note_on_c, 0, 48, 54
4, 63240, Note_on_c, 0, 55, 54
4, 63360, Note_on_c, 0, 55, 0
4, 63360, Note_on_c, 0, 48, 0
4, 63360, Note_on_c, 0, 41, 54
4, 63360, Note_on_c, 0, 53, 54
4, 63480, Note_on_c, 0, 53, 0
4, 63480, Note_on_c, 0, 41, 0
4, 63480, Note_on_c, 0, 41, 54
4, 63480, Note_on_c, 0, 53, 54
4, 63600, Note_on_c, 0, 53, 0
4, 63600, Note_on_c, 0, 41, 0
4, 63600, Note_on_c, 0, 41, 54
4, 63600, Note_on_c, 0, 53, 54
4, 63720, Note_on_c, 0, 53, 0
4, 63720, Note_on_c, 0, 41, 0
4, 63720, Note_on_c, 0, 41, 54
4, 63720, Note_on_c, 0, 53, 54
4, 63840, Note_on_c, 0, 53, 0
4, 63840, Note_on_c, 0, 41, 0
4, 63840, Note_on_c, 0, 41, 54
4, 63840, Note_on_c, 0, 53, 54
4, 63960, Note_on_c, 0, 53, 0
4, 63960, Note_on_c, 0, 41, 0
4, 63960, Note_on_c, 0, 41, 54
4, 63960, Note_on_c, 0, 53, 54
4, 64080, Note_on_c, 0, 53, 0
4, 64080, Note_on_c, 0, 41, 0
4, 64080, Note_on_c, 0, 41, 54
4, 64080, Note_on_c, 0, 53, 54
4, 64200, Note_on_c, 0, 53, 0
4, 64200, Note_on_c, 0, 41, 0
4, 64200, Note_on_c, 0, 41, 54
4, 64200, Note_on_c, 0, 53, 54
4, 64320, Note_on_c, 0, 53, 0
4, 64320, Note_on_c, 0, 41, 0
4, 64320, Note_on_c, 0, 41, 54
4, 64440, Note_on_c, 0, 41, 0
4, 64440, Note_on_c, 0, 41, 54
4, 64560, Note_on_c, 0, 41, 0
4, 64560, Note_on_c, 0, 41, 54
4, 64680, Note_on_c, 0, 41, 0
4, 64680, Note_on_c, 0, 41, 54
4, 64800, Note_on_c, 0, 41, 0
4, 64800, Note_on_c, 0, 41, 54
4, 64920, Note_on_c, 0, 41, 0
4, 64920, Note_on_c, 0, 41, 54
4, 65040, Note_on_c, 0, 41, 0
4, 65040, Note_on_c, 0, 41, 54
4, 65160, Note_on_c, 0, 41, 0
4, 65160, Note_on_c, 0, 41, 54
4, 65280, Note_on_c, 0, 41, 0
4, 65280, Note_on_c, 0, 41, 54
4, 65400, Note_on_c, 0, 41, 0
4, 65400, Note_on_c, 0, 41, 54
4, 65520, Note_on_c, 0, 41, 0
4, 65520, Note_on_c, 0, 41, 54
4, 65640, Note_on_c, 0, 41, 0
4, 65640, Note_on_c, 0, 41, 54
4, 65760, Note_on_c, 0, 41, 0
4, 65760, Note_on_c, 0, 41, 54
4, 65880, Note_on_c, 0, 41, 0
4, 65880, Note_on_c, 0, 41, 54
4, 66000, Note_on_c, 0, 41, 0
4, 66000, Note_on_c, 0, 41, 54
4, 66120, Note_on_c, 0, 41, 0
4, 66120, Note_on_c, 0, 41, 54
4, 66240, Note_on_c, 0, 41, 0
4, 66240, Note_on_c, 0, 41, 54
4, 66240, Note_on_c, 0, 53, 54
4, 66360, Note_on_c, 0, 53, 0
4, 66360, Note_on_c, 0, 41, 0
4, 66360, Note_on_c, 0, 41, 54
4, 66360, Note_on_c, 0, 53, 54
4, 66480, Note_on_c, 0, 53, 0
4, 66480, Note_on_c, 0, 41, 0
4, 66480, Note_on_c, 0, 41, 54
4, 66480, Note_on_c, 0, 53, 54
4, 66600, Note_on_c, 0, 53, 0
4, 66600, Note_on_c, 0, 41, 0
4, 66600, Note_on_c, 0, 41, 54
4, 66600, Note_on_c, 0, 53, 54
4, 66720, Note_on_c, 0, 53, 0
4, 66720, Note_on_c, 0, 41, 0
4, 66720, Note_on_c, 0, 41, 54
4, 66720, Note_on_c, 0, 53, 54
4, 66840, Note_on_c, 0, 53, 0
4, 66840, Note_on_c, 0, 41, 0
4, 66840, Note_on_c, 0, 41, 54
4, 66840, Note_on_c, 0, 53, 54
4, 66960, Note_on_c, 0, 53, 0
4, 66960, Note_on_c, 0, 41, 0
4, 66960, Note_on_c, 0, 41, 54
4, 66960, Note_on_c, 0, 53, 54
4, 67080, Note_on_c, 0, 53, 0
4, 67080, Note_on_c, 0, 41, 0
4, 67080, Note_on_c, 0, 41, 54
4, 67080, Note_on_c, 0, 53, 54
4, 67200, Note_on_c, 0, 53, 0
4, 67200, Note_on_c, 0, 41, 0
4, 67200, Note_on_c, 0, 41, 54
4, 67200, Note_on_c, 0, 52, 54
4, 67320, Note_on_c, 0, 52, 0
4, 67320, Note_on_c, 0, 41, 0
4, 67320, Note_on_c, 0, 41, 54
4, 67320, Note_on_c, 0, 52, 54
4, 67440, Note_on_c, 0, 52, 0
4, 67440, Note_on_c, 0, 41, 0
4, 67440, Note_on_c, 0, 41, 54
4, 67440, Note_on_c, 0, 52, 54
4, 67560, Note_on_c, 0, 52, 0
4, 67560, Note_on_c, 0, 41, 0
4, 67560, Note_on_c, 0, 41, 54
4, 67560, Note_on_c, 0, 52, 54
4, 67680, Note_on_c, 0, 52, 0
4, 67680, Note_on_c, 0, 41, 0
4, 67680, Note_on_c, 0, 41, 54
4, 67680, Note_on_c, 0, 52, 54
4, 67800, Note_on_c, 0, 52, 0
4, 67800, Note_on_c, 0, 41, 0
4, 67800, Note_on_c, 0, 41, 54
4, 67800, Note_on_c, 0, 52, 54
4, 67920, Note_on_c, 0, 52, 0
4, 67920, Note_on_c, 0, 41, 0
4, 67920, Note_on_c, 0, 41, 54
4, 67920, Note_on_c, 0, 52, 54
4, 68040, Note_on_c, 0, 52, 0
4, 68040, Note_on_c, 0, 41, 0
4, 68040, Note_on_c, 0, 41, 54
4, 68040, Note_on_c, 0, 52, 54
4, 68160, Note_on_c, 0, 52, 0
4, 68160, Note_on_c, 0, 41, 0
4, 68160, Note_on_c, 0, 41, 54
4, 68160, Note_on_c, 0, 53, 54
4, 68280, Note_on_c, 0, 53, 0
4, 68280, Note_on_c, 0, 41, 0
4, 68280, Note_on_c, 0, 41, 54
4, 68280, Note_on_c, 0, 53, 54
4, 68400, Note_on_c, 0, 53, 0
4, 68400, Note_on_c, 0, 41, 0
4, 68400, Note_on_c, 0, 41, 54
4, 68400, Note_on_c, 0, 53, 54
4, 68520, Note_on_c, 0, 53, 0
4, 68520, Note_on_c, 0, 41, 0
4, 68520, Note_on_c, 0, 41, 54
4, 68520, Note_on_c, 0, 53, 54
4, 68640, Note_on_c, 0, 53, 0
4, 68640, Note_on_c, 0, 41, 0
4, 68640, Note_on_c, 0, 41, 54
4, 68640, Note_on_c, 0, 53, 54
4, 68760, Note_on_c, 0, 53, 0
4, 68760, Note_on_c, 0, 41, 0
4, 68760, Note_on_c, 0, 41, 54
4, 68760, Note_on_c, 0, 53, 54
4, 68880, Note_on_c, 0, 53, 0
4, 68880, Note_on_c, 0, 41, 0
4, 68880, Note_on_c, 0, 41, 54
4, 68880, Note_on_c, 0, 53, 54
4, 69000, Note_on_c, 0, 53, 0
4, 69000, Note_on_c, 0, 41, 0
4, 69000, Note_on_c, 0, 41, 54
4, 69000, Note_on_c, 0, 53, 54
4, 69120, Note_on_c, 0, 53, 0
4, 69120, Note_on_c, 0, 41, 0
4, 69120, Note_on_c, 0, 41, 54
4, 69120, Note_on_c, 0, 53, 54
4, 70560, Note_on_c, 0, 53, 0
4, 70560, Note_on_c, 0, 41, 0
4, 70560, End_track
5, 0, Start_track
5, 0, Title_t, "Grand Piano"
5, 0, Program_c, 0, 0
5, 0, Control_c, 0, 7, 115
5, 0, Control_c, 0, 10, 47
5, 43200, Note_on_c, 0, 53, 80
5, 43560, Note_on_c, 0, 53, 0
5, 43560, Note_on_c, 0, 53, 80
5, 43680, Note_on_c, 0, 53, 0
5, 43680, Note_on_c, 0, 51, 80
5, 43920, Note_on_c, 0, 51, 0
5, 43920, Note_on_c, 0, 49, 80
5, 44160, Note_on_c, 0, 49, 0
5, 44160, Note_on_c, 0, 49, 80
5, 44640, Note_on_c, 0, 49, 0
5, 44640, Note_on_c, 0, 48, 80
5, 45120, Note_on_c, 0, 48, 0
5, 45120, Note_on_c, 0, 48, 80
5, 45840, Note_on_c, 0, 48, 0
5, 45840, Note_on_c, 0, 48, 80
5, 46080, Note_on_c, 0, 48, 0
5, 46080, Note_on_c, 0, 49, 80
5, 46320, Note_on_c, 0, 49, 0
5, 46320, Note_on_c, 0, 48, 80
5, 46560, Note_on_c, 0, 48, 0
5, 46560, Note_on_c, 0, 46, 80
5, 46800, Note_on_c, 0, 46, 0
5, 46800, Note_on_c, 0, 49, 80
5, 47040, Note_on_c, 0, 49, 0
5, 48960, Note_on_c, 0, 53, 80
5, 49680, Note_on_c, 0, 53, 0
5, 49680, Note_on_c, 0, 53, 80
5, 49920, Note_on_c, 0, 53, 0
5, 50880, Note_on_c, 0, 53, 80
5, 51840, Note_on_c, 0, 53, 0
5, 52800, Note_on_c, 0, 49, 80
5, 53760, Note_on_c, 0, 49, 0
5, 53760, Note_on_c, 0, 49, 80
5, 54720, Note_on_c, 0, 49, 0
5, 58080, Note_on_c, 0, 44, 67
5, 58560, Note_on_c, 0, 44, 0
5, 58560, Note_on_c, 0, 46, 67
5, 59040, Note_on_c, 0, 46, 0
5, 59040, Note_on_c, 0, 48, 67
5, 59520, Note_on_c, 0, 48, 0
5, 59520, Note_on_c, 0, 49, 67
5, 60000, Note_on_c, 0, 49, 0
5, 60000, Note_on_c, 0, 50, 67
5, 60480, Note_on_c, 0, 50, 0
5, 60480, End_track
0, 0, End_of_file
