0, 0, Header, 0, 1, 384
1, 0, Start_track
1, 0, Title_t, "Song Without Words Op-85 No-01"
1, 0, Time_signature, 4, 2, 24, 8
1, 0, Key_signature, 0, "major"
1, 0, Tempo, 512821
1, 0, Program_c, 0, 0
1, 0, Control_c, 0, 7, 115
1, 0, Note_on_c, 0, 41, 41
1, 20, Control_c, 0, 64, 114
1, 159, Note_on_c, 0, 48, 29
1, 262, Note_on_c, 0, 41, 0
1, 328, Note_on_c, 0, 53, 38
1, 336, Note_on_c, 0, 48, 0
1, 462, Control_c, 0, 64, 113
1, 489, Note_on_c, 0, 53, 0
1, 489, Note_on_c, 0, 57, 22
1, 624, Note_on_c, 0, 57, 0
1, 628, Note_on_c, 0, 60, 43
1, 791, Note_on_c, 0, 65, 29
1, 796, Note_on_c, 0, 60, 0
1, 895, Note_on_c, 0, 65, 0
1, 900, Note_on_c, 0, 41, 29
1, 904, Control_c, 0, 64, 112
1, 932, Control_c, 0, 64, 116
1, 1075, Note_on_c, 0, 48, 10
1, 1103, Note_on_c, 0, 41, 0
1, 1260, Note_on_c, 0, 48, 0
1, 1260, Note_on_c, 0, 53, 33
1, 1397, Note_on_c, 0, 53, 0
1, 1403, Note_on_c, 0, 57, 18
1, 1552, Note_on_c, 0, 60, 36
1, 1567, Note_on_c, 0, 57, 0
1, 1733, Note_on_c, 0, 65, 32
1, 1743, Note_on_c, 0, 60, 0
1, 1852, Note_on_c, 0, 65, 0
1, 1971, Note_on_c, 0, 72, 73
1, 1975, Note_on_c, 0, 41, 27
1, 2175, Note_on_c, 0, 48, 21
1, 2208, Note_on_c, 0, 41, 0
1, 2258, Note_on_c, 0, 48, 0
1, 2331, Note_on_c, 0, 53, 57
1, 2389, Note_on_c, 0, 53, 0
1, 2515, Note_on_c, 0, 57, 33
1, 2583, Note_on_c, 0, 57, 0
1, 2691, Note_on_c, 0, 60, 27
1, 2741, Note_on_c, 0, 60, 0
1, 2843, Note_on_c, 0, 65, 39
1, 2950, Note_on_c, 0, 65, 0
1, 2966, Note_on_c, 0, 41, 45
1, 2983, Note_on_c, 0, 74, 88
1, 2999, Control_c, 0, 64, 116
1, 3067, Control_c, 0, 64, 0
1, 3078, Note_on_c, 0, 72, 0
1, 3125, Note_on_c, 0, 50, 62
1, 3198, Note_on_c, 0, 41, 0
1, 3198, Control_c, 0, 64, 127
1, 3250, Note_on_c, 0, 50, 0
1, 3297, Note_on_c, 0, 53, 73
1, 3336, Note_on_c, 0, 53, 0
1, 3417, Note_on_c, 0, 77, 91
1, 3426, Note_on_c, 0, 58, 35
1, 3488, Note_on_c, 0, 74, 0
1, 3512, Note_on_c, 0, 58, 0
1, 3582, Note_on_c, 0, 62, 51
1, 3632, Note_on_c, 0, 62, 0
1, 3721, Note_on_c, 0, 65, 51
1, 3768, Note_on_c, 0, 65, 0
1, 3905, Note_on_c, 0, 41, 40
1, 3914, Note_on_c, 0, 72, 75
1, 3955, Control_c, 0, 64, 0
1, 4017, Note_on_c, 0, 77, 0
1, 4097, Note_on_c, 0, 48, 40
1, 4134, Control_c, 0, 64, 127
1, 4141, Note_on_c, 0, 41, 0
1, 4166, Note_on_c, 0, 48, 0
1, 4278, Note_on_c, 0, 53, 49
1, 4337, Note_on_c, 0, 53, 0
1, 4445, Note_on_c, 0, 57, 34
1, 4538, Note_on_c, 0, 57, 0
1, 4621, Note_on_c, 0, 60, 37
1, 4674, Note_on_c, 0, 60, 0
1, 4754, Note_on_c, 0, 72, 0
1, 4754, Note_on_c, 0, 65, 31
1, 4977, Note_on_c, 0, 41, 41
1, 4992, Note_on_c, 0, 72, 53
1, 5033, Note_on_c, 0, 65, 0
1, 5126, Note_on_c, 0, 41, 0
1, 5165, Note_on_c, 0, 48, 46
1, 5223, Note_on_c, 0, 48, 0
1, 5247, Note_on_c, 0, 69, 67
1, 5332, Note_on_c, 0, 53, 73
1, 5382, Note_on_c, 0, 53, 0
1, 5482, Note_on_c, 0, 72, 0
1, 5482, Note_on_c, 0, 67, 82
1, 5510, Note_on_c, 0, 57, 47
1, 5566, Note_on_c, 0, 57, 0
1, 5594, Note_on_c, 0, 69, 0
1, 5660, Note_on_c, 0, 60, 62
1, 5750, Note_on_c, 0, 60, 0
1, 5757, Note_on_c, 0, 65, 81
1, 5786, Note_on_c, 0, 67, 0
1, 5953, Note_on_c, 0, 43, 46
1, 6030, Note_on_c, 0, 64, 81
1, 6064, Control_c, 0, 64, 0
1, 6108, Note_on_c, 0, 65, 0
1, 6181, Note_on_c, 0, 48, 41
1, 6243, Control_c, 0, 64, 127
1, 6272, Note_on_c, 0, 43, 0
1, 6304, Note_on_c, 0, 48, 0
1, 6342, Note_on_c, 0, 55, 55
1, 6390, Note_on_c, 0, 55, 0
1, 6491, Note_on_c, 0, 58, 44
1, 6565, Note_on_c, 0, 58, 0
1, 6640, Note_on_c, 0, 60, 42
1, 6744, Note_on_c, 0, 65, 76
1, 6825, Note_on_c, 0, 64, 0
1, 6947, Note_on_c, 0, 36, 34
1, 7008, Note_on_c, 0, 67, 67
1, 7034, Control_c, 0, 64, 0
1, 7066, Note_on_c, 0, 65, 0
1, 7145, Note_on_c, 0, 36, 0
1, 7159, Note_on_c, 0, 48, 37
1, 7167, Control_c, 0, 64, 127
1, 7206, Note_on_c, 0, 60, 0
1, 7279, Note_on_c, 0, 48, 0
1, 7312, Note_on_c, 0, 52, 56
1, 7379, Note_on_c, 0, 52, 0
1, 7476, Note_on_c, 0, 70, 62
1, 7504, Note_on_c, 0, 55, 47
1, 7538, Note_on_c, 0, 67, 0
1, 7579, Note_on_c, 0, 55, 0
1, 7644, Note_on_c, 0, 58, 38
1, 7693, Note_on_c, 0, 58, 0
1, 7831, Note_on_c, 0, 60, 49
1, 7897, Note_on_c, 0, 70, 0
1, 8005, Note_on_c, 0, 29, 54
1, 8109, Note_on_c, 0, 70, 66
1, 8125, Control_c, 0, 64, 0
1, 8140, Note_on_c, 0, 41, 64
1, 8159, Note_on_c, 0, 29, 0
1, 8159, Note_on_c, 0, 60, 0
1, 8232, Control_c, 0, 64, 127
1, 8236, Note_on_c, 0, 41, 0
1, 8382, Note_on_c, 0, 48, 49
1, 8496, Note_on_c, 0, 48, 0
1, 8558, Note_on_c, 0, 52, 45
1, 8621, Note_on_c, 0, 52, 0
1, 8724, Note_on_c, 0, 55, 38
1, 8821, Note_on_c, 0, 55, 0
1, 8897, Note_on_c, 0, 58, 19
1, 8958, Note_on_c, 0, 58, 0
1, 9050, Note_on_c, 0, 60, 28
1, 9204, Note_on_c, 0, 70, 0
1, 9242, Note_on_c, 0, 69, 33
1, 9250, Note_on_c, 0, 41, 18
1, 9348, Control_c, 0, 64, 0
1, 9395, Note_on_c, 0, 60, 0
1, 9420, Note_on_c, 0, 48, 23
1, 9576, Control_c, 0, 64, 127
1, 9607, Note_on_c, 0, 53, 42
1, 9739, Note_on_c, 0, 53, 0
1, 9739, Note_on_c, 0, 41, 0
1, 9755, Note_on_c, 0, 57, 26
1, 9775, Note_on_c, 0, 48, 0
1, 9897, Note_on_c, 0, 57, 0
1, 9919, Note_on_c, 0, 60, 32
1, 10026, Note_on_c, 0, 69, 0
1, 10064, Note_on_c, 0, 60, 0
1, 10128, Note_on_c, 0, 65, 24
1, 10221, Note_on_c, 0, 65, 0
1, 10412, Note_on_c, 0, 69, 66
1, 10435, Note_on_c, 0, 38, 35
1, 10487, Control_c, 0, 64, 0
1, 10618, Note_on_c, 0, 38, 0
1, 10618, Control_c, 0, 64, 127
1, 10647, Note_on_c, 0, 50, 33
1, 10713, Note_on_c, 0, 50, 0
1, 10828, Note_on_c, 0, 53, 43
1, 10945, Note_on_c, 0, 53, 0
1, 10970, Note_on_c, 0, 57, 27
1, 11031, Note_on_c, 0, 57, 0
1, 11126, Note_on_c, 0, 62, 34
1, 11215, Note_on_c, 0, 62, 0
1, 11278, Note_on_c, 0, 65, 31
1, 11324, Note_on_c, 0, 65, 0
1, 11401, Note_on_c, 0, 38, 29
1, 11405, Note_on_c, 0, 70, 76
1, 11463, Note_on_c, 0, 69, 0
1, 11493, Control_c, 0, 64, 0
1, 11560, Note_on_c, 0, 38, 0
1, 11577, Note_on_c, 0, 50, 51
1, 11590, Control_c, 0, 64, 127
1, 11630, Note_on_c, 0, 50, 0
1, 11725, Note_on_c, 0, 52, 39
1, 11839, Note_on_c, 0, 52, 0
1, 11870, Note_on_c, 0, 74, 87
1, 11902, Note_on_c, 0, 55, 39
1, 11945, Note_on_c, 0, 70, 0
1, 11962, Note_on_c, 0, 55, 0
1, 12040, Note_on_c, 0, 58, 30
1, 12111, Note_on_c, 0, 58, 0
1, 12196, Note_on_c, 0, 62, 47
1, 12263, Note_on_c, 0, 62, 0
1, 12376, Note_on_c, 0, 69, 64
1, 12382, Note_on_c, 0, 38, 36
1, 12404, Control_c, 0, 64, 0
1, 12490, Note_on_c, 0, 74, 0
1, 12527, Note_on_c, 0, 38, 0
1, 12547, Control_c, 0, 64, 127
1, 12558, Note_on_c, 0, 50, 39
1, 12628, Note_on_c, 0, 50, 0
1, 12725, Note_on_c, 0, 53, 56
1, 12825, Note_on_c, 0, 53, 0
1, 12883, Note_on_c, 0, 57, 40
1, 12956, Note_on_c, 0, 57, 0
1, 13033, Note_on_c, 0, 62, 53
1, 13121, Note_on_c, 0, 62, 0
1, 13179, Note_on_c, 0, 65, 59
1, 13285, Note_on_c, 0, 65, 0
1, 13323, Note_on_c, 0, 70, 71
1, 13338, Note_on_c, 0, 38, 39
1, 13374, Control_c, 0, 64, 0
1, 13377, Note_on_c, 0, 69, 0
1, 13469, Note_on_c, 0, 38, 0
1, 13491, Note_on_c, 0, 50, 64
1, 13494, Control_c, 0, 64, 127
1, 13541, Note_on_c, 0, 50, 0
1, 13632, Note_on_c, 0, 52, 67
1, 13711, Note_on_c, 0, 52, 0
1, 13781, Note_on_c, 0, 74, 89
1, 13817, Note_on_c, 0, 55, 45
1, 13877, Note_on_c, 0, 55, 0
1, 13877, Note_on_c, 0, 70, 0
1, 13953, Note_on_c, 0, 58, 51
1, 14015, Note_on_c, 0, 58, 0
1, 14117, Note_on_c, 0, 62, 46
1, 14207, Note_on_c, 0, 62, 0
1, 14323, Note_on_c, 0, 69, 70
1, 14323, Note_on_c, 0, 38, 36
1, 14393, Control_c, 0, 64, 0
1, 14415, Note_on_c, 0, 74, 0
1, 14508, Note_on_c, 0, 38, 0
1, 14525, Note_on_c, 0, 50, 54
1, 14525, Control_c, 0, 64, 127
1, 14583, Note_on_c, 0, 50, 0
1, 14692, Note_on_c, 0, 53, 56
1, 14797, Note_on_c, 0, 53, 0
1, 14842, Note_on_c, 0, 57, 37
1, 14931, Note_on_c, 0, 57, 0
1, 14964, Note_on_c, 0, 69, 0
1, 14987, Note_on_c, 0, 62, 70
1, 15079, Note_on_c, 0, 69, 72
1, 15093, Note_on_c, 0, 62, 0
1, 15229, Note_on_c, 0, 65, 41
1, 15352, Note_on_c, 0, 34, 34
1, 15387, Note_on_c, 0, 65, 0
1, 15401, Note_on_c, 0, 72, 83
1, 15436, Control_c, 0, 64, 0
1, 15469, Note_on_c, 0, 69, 0
1, 15566, Note_on_c, 0, 34, 0
1, 15566, Control_c, 0, 64, 127
1, 15569, Note_on_c, 0, 46, 34
1, 15636, Note_on_c, 0, 46, 0
1, 15697, Note_on_c, 0, 70, 71
1, 15809, Note_on_c, 0, 72, 0
1, 15812, Note_on_c, 0, 50, 35
1, 15875, Note_on_c, 0, 50, 0
1, 15964, Note_on_c, 0, 69, 68
1, 15998, Note_on_c, 0, 53, 60
1, 16043, Note_on_c, 0, 70, 0
1, 16048, Note_on_c, 0, 53, 0
1, 16153, Note_on_c, 0, 55, 37
1, 16245, Note_on_c, 0, 67, 69
1, 16248, Note_on_c, 0, 55, 0
1, 16299, Note_on_c, 0, 69, 0
1, 16402, Note_on_c, 0, 62, 46
1, 16410, Note_on_c, 0, 67, 0
1, 16572, Note_on_c, 0, 36, 28
1, 16608, Note_on_c, 0, 67, 69
1, 16622, Control_c, 0, 64, 0
1, 16628, Note_on_c, 0, 62, 0
1, 16777, Note_on_c, 0, 36, 0
1, 16791, Control_c, 0, 64, 127
1, 16805, Note_on_c, 0, 48, 43
1, 16862, Note_on_c, 0, 48, 0
1, 16982, Note_on_c, 0, 52, 51
1, 17068, Note_on_c, 0, 52, 0
1, 17157, Note_on_c, 0, 55, 44
1, 17304, Note_on_c, 0, 55, 0
1, 17332, Note_on_c, 0, 58, 20
1, 17413, Note_on_c, 0, 66, 52
1, 17447, Note_on_c, 0, 58, 0
1, 17447, Note_on_c, 0, 67, 0
1, 17571, Note_on_c, 0, 60, 27
1, 17649, Note_on_c, 0, 60, 0
1, 17747, Note_on_c, 0, 48, 9
1, 17747, Note_on_c, 0, 67, 58
1, 17869, Control_c, 0, 64, 0
1, 17893, Note_on_c, 0, 66, 0
1, 17939, Note_on_c, 0, 58, 19
1, 17965, Control_c, 0, 64, 127
1, 18014, Note_on_c, 0, 48, 0
1, 18020, Note_on_c, 0, 69, 53
1, 18043, Note_on_c, 0, 67, 0
1, 18145, Note_on_c, 0, 60, 32
1, 18251, Note_on_c, 0, 60, 0
1, 18266, Note_on_c, 0, 58, 0
1, 18299, Note_on_c, 0, 70, 55
1, 18330, Note_on_c, 0, 69, 0
1, 18346, Note_on_c, 0, 64, 18
1, 18469, Note_on_c, 0, 64, 0
1, 18522, Note_on_c, 0, 67, 23
1, 18666, Note_on_c, 0, 71, 77
1, 18712, Note_on_c, 0, 67, 0
1, 18836, Note_on_c, 0, 70, 0
1, 19095, Note_on_c, 0, 72, 63
1, 19129, Note_on_c, 0, 41, 36
1, 19190, Note_on_c, 0, 71, 0
1, 19223, Control_c, 0, 64, 0
1, 19349, Note_on_c, 0, 48, 33
1, 19414, Control_c, 0, 64, 127
1, 19455, Note_on_c, 0, 41, 0
1, 19482, Note_on_c, 0, 48, 0
1, 19536, Note_on_c, 0, 53, 62
1, 19581, Note_on_c, 0, 53, 0
1, 19705, Note_on_c, 0, 57, 49
1, 19814, Note_on_c, 0, 57, 0
1, 19858, Note_on_c, 0, 60, 60
1, 19929, Note_on_c, 0, 60, 0
1, 20004, Note_on_c, 0, 65, 61
1, 20092, Note_on_c, 0, 65, 0
1, 20162, Note_on_c, 0, 41, 36
1, 20162, Note_on_c, 0, 74, 90
1, 20263, Note_on_c, 0, 72, 0
1, 20313, Control_c, 0, 64, 0
1, 20332, Note_on_c, 0, 50, 44
1, 20397, Note_on_c, 0, 41, 0
1, 20446, Control_c, 0, 64, 127
1, 20463, Note_on_c, 0, 50, 0
1, 20497, Note_on_c, 0, 53, 73
1, 20597, Note_on_c, 0, 53, 0
1, 20641, Note_on_c, 0, 77, 85
1, 20659, Note_on_c, 0, 58, 56
1, 20708, Note_on_c, 0, 74, 0
1, 20750, Note_on_c, 0, 58, 0
1, 20823, Note_on_c, 0, 62, 59
1, 20881, Note_on_c, 0, 62, 0
1, 20970, Note_on_c, 0, 65, 52
1, 21042, Note_on_c, 0, 65, 0
1, 21180, Note_on_c, 0, 72, 76
1, 21198, Note_on_c, 0, 41, 36
1, 21224, Control_c, 0, 64, 0
1, 21277, Note_on_c, 0, 77, 0
1, 21385, Note_on_c, 0, 48, 39
1, 21439, Note_on_c, 0, 41, 0
1, 21439, Control_c, 0, 64, 127
1, 21446, Note_on_c, 0, 48, 0
1, 21561, Note_on_c, 0, 53, 53
1, 21617, Note_on_c, 0, 53, 0
1, 21726, Note_on_c, 0, 57, 46
1, 21817, Note_on_c, 0, 57, 0
1, 21886, Note_on_c, 0, 60, 47
1, 21951, Note_on_c, 0, 69, 68
1, 21978, Note_on_c, 0, 60, 0
1, 22062, Note_on_c, 0, 72, 0
1, 22113, Note_on_c, 0, 65, 40
1, 22268, Note_on_c, 0, 65, 0
1, 22268, Note_on_c, 0, 72, 69
1, 22277, Note_on_c, 0, 45, 23
1, 22315, Control_c, 0, 64, 0
1, 22354, Note_on_c, 0, 69, 0
1, 22455, Note_on_c, 0, 48, 40
1, 22460, Control_c, 0, 64, 127
1, 22508, Note_on_c, 0, 69, 67
1, 22522, Note_on_c, 0, 45, 0
1, 22597, Note_on_c, 0, 48, 0
1, 22630, Note_on_c, 0, 53, 73
1, 22681, Note_on_c, 0, 53, 0
1, 22698, Note_on_c, 0, 72, 0
1, 22747, Note_on_c, 0, 67, 84
1, 22804, Note_on_c, 0, 57, 34
1, 22879, Note_on_c, 0, 69, 0
1, 22920, Note_on_c, 0, 57, 0
1, 22948, Note_on_c, 0, 60, 63
1, 23001, Note_on_c, 0, 60, 0
1, 23013, Note_on_c, 0, 65, 85
1, 23080, Note_on_c, 0, 67, 0
1, 23271, Note_on_c, 0, 43, 47
1, 23293, Note_on_c, 0, 64, 85
1, 23344, Note_on_c, 0, 65, 0
1, 23358, Control_c, 0, 64, 0
1, 23460, Note_on_c, 0, 48, 39
1, 23550, Control_c, 0, 64, 127
1, 23578, Note_on_c, 0, 43, 0
1, 23591, Note_on_c, 0, 48, 0
1, 23628, Note_on_c, 0, 55, 52
1, 23737, Note_on_c, 0, 55, 0
1, 23781, Note_on_c, 0, 58, 34
1, 23903, Note_on_c, 0, 58, 0
1, 23970, Note_on_c, 0, 60, 43
1, 24026, Note_on_c, 0, 60, 0
1, 24088, Note_on_c, 0, 65, 65
1, 24201, Note_on_c, 0, 64, 0
1, 24280, Note_on_c, 0, 40, 56
1, 24357, Note_on_c, 0, 67, 61
1, 24405, Note_on_c, 0, 65, 0
1, 24436, Control_c, 0, 64, 0
1, 24516, Note_on_c, 0, 48, 41
1, 24556, Control_c, 0, 64, 127
1, 24572, Note_on_c, 0, 40, 0
1, 24583, Note_on_c, 0, 48, 0
1, 24670, Note_on_c, 0, 52, 64
1, 24714, Note_on_c, 0, 52, 0
1, 24826, Note_on_c, 0, 70, 68
1, 24848, Note_on_c, 0, 55, 50
1, 24887, Note_on_c, 0, 67, 0
1, 24910, Note_on_c, 0, 55, 0
1, 24992, Note_on_c, 0, 58, 35
1, 25046, Note_on_c, 0, 58, 0
1, 25137, Note_on_c, 0, 60, 43
1, 25168, Note_on_c, 0, 70, 0
1, 25318, Note_on_c, 0, 70, 69
1, 25335, Note_on_c, 0, 36, 36
1, 25361, Note_on_c, 0, 60, 0
1, 25396, Control_c, 0, 64, 0
1, 25478, Note_on_c, 0, 36, 0
1, 25505, Note_on_c, 0, 48, 43
1, 25516, Control_c, 0, 64, 127
1, 25556, Note_on_c, 0, 48, 0
1, 25661, Note_on_c, 0, 52, 45
1, 25731, Note_on_c, 0, 52, 0
1, 25821, Note_on_c, 0, 55, 37
1, 25896, Note_on_c, 0, 55, 0
1, 25984, Note_on_c, 0, 58, 28
1, 26052, Note_on_c, 0, 58, 0
1, 26160, Note_on_c, 0, 60, 26
1, 26299, Note_on_c, 0, 70, 0
1, 26328, Note_on_c, 0, 69, 35
1, 26339, Note_on_c, 0, 41, 29
1, 26353, Control_c, 0, 64, 0
1, 26478, Note_on_c, 0, 60, 0
1, 26494, Note_on_c, 0, 48, 23
1, 26653, Control_c, 0, 64, 127
1, 26653, Note_on_c, 0, 53, 44
1, 26718, Note_on_c, 0, 41, 0
1, 26762, Note_on_c, 0, 53, 0
1, 26798, Note_on_c, 0, 48, 0
1, 26814, Note_on_c, 0, 57, 32
1, 26945, Note_on_c, 0, 57, 0
1, 26987, Note_on_c, 0, 60, 33
1, 27055, Note_on_c, 0, 69, 0
1, 27146, Note_on_c, 0, 60, 0
1, 27171, Note_on_c, 0, 65, 30
1, 27288, Note_on_c, 0, 65, 0
1, 27438, Note_on_c, 0, 64, 72
1, 27456, Control_c, 0, 64, 0
1, 27456, Note_on_c, 0, 33, 21
1, 27595, Note_on_c, 0, 33, 0
1, 27612, Control_c, 0, 64, 127
1, 27631, Note_on_c, 0, 45, 30
1, 27692, Note_on_c, 0, 45, 0
1, 27781, Note_on_c, 0, 49, 27
1, 27923, Note_on_c, 0, 52, 41
1, 27949, Note_on_c, 0, 49, 0
1, 27998, Note_on_c, 0, 52, 0
1, 28062, Note_on_c, 0, 57, 43
1, 28141, Note_on_c, 0, 57, 0
1, 28204, Note_on_c, 0, 61, 48
1, 28264, Note_on_c, 0, 61, 0
1, 28341, Note_on_c, 0, 65, 73
1, 28352, Note_on_c, 0, 33, 31
1, 28380, Control_c, 0, 64, 0
1, 28386, Note_on_c, 0, 64, 0
1, 28483, Note_on_c, 0, 33, 0
1, 28506, Note_on_c, 0, 45, 47
1, 28523, Control_c, 0, 64, 127
1, 28556, Note_on_c, 0, 45, 0
1, 28639, Note_on_c, 0, 47, 38
1, 28754, Note_on_c, 0, 47, 0
1, 28779, Note_on_c, 0, 69, 69
1, 28809, Note_on_c, 0, 50, 49
1, 28862, Note_on_c, 0, 65, 0
1, 28884, Note_on_c, 0, 50, 0
1, 28963, Note_on_c, 0, 53, 70
1, 29007, Note_on_c, 0, 53, 0
1, 29096, Note_on_c, 0, 57, 51
1, 29160, Note_on_c, 0, 57, 0
1, 29253, Control_c, 0, 64, 0
1, 29257, Note_on_c, 0, 64, 75
1, 29271, Note_on_c, 0, 33, 40
1, 29312, Note_on_c, 0, 69, 0
1, 29383, Note_on_c, 0, 33, 0
1, 29398, Control_c, 0, 64, 127
1, 29408, Note_on_c, 0, 45, 42
1, 29455, Note_on_c, 0, 45, 0
1, 29553, Note_on_c, 0, 49, 41
1, 29650, Note_on_c, 0, 49, 0
1, 29707, Note_on_c, 0, 52, 47
1, 29765, Note_on_c, 0, 52, 0
1, 29848, Note_on_c, 0, 57, 32
1, 29955, Note_on_c, 0, 57, 0
1, 29987, Note_on_c, 0, 61, 45
1, 30124, Note_on_c, 0, 65, 64
1, 30132, Note_on_c, 0, 61, 0
1, 30141, Control_c, 0, 64, 0
1, 30150, Note_on_c, 0, 38, 32
1, 30180, Note_on_c, 0, 64, 0
1, 30289, Note_on_c, 0, 45, 31
1, 30345, Control_c, 0, 64, 127
1, 30353, Note_on_c, 0, 45, 0
1, 30372, Note_on_c, 0, 38, 0
1, 30444, Note_on_c, 0, 50, 31
1, 30514, Note_on_c, 0, 50, 0
1, 30597, Note_on_c, 0, 69, 46
1, 30615, Note_on_c, 0, 53, 60
1, 30640, Note_on_c, 0, 65, 0
1, 30671, Note_on_c, 0, 53, 0
1, 30788, Note_on_c, 0, 57, 35
1, 30849, Note_on_c, 0, 57, 0
1, 30912, Note_on_c, 0, 59, 48
1, 30997, Note_on_c, 0, 59, 0
1, 31072, Note_on_c, 0, 64, 75
1, 31100, Control_c, 0, 64, 0
1, 31103, Note_on_c, 0, 40, 43
1, 31166, Note_on_c, 0, 69, 0
1, 31249, Note_on_c, 0, 48, 34
1, 31291, Note_on_c, 0, 40, 0
1, 31291, Control_c, 0, 64, 127
1, 31345, Note_on_c, 0, 48, 0
1, 31394, Note_on_c, 0, 52, 55
1, 31447, Note_on_c, 0, 52, 0
1, 31531, Note_on_c, 0, 57, 41
1, 31584, Note_on_c, 0, 57, 0
1, 31661, Note_on_c, 0, 60, 62
1, 31682, Note_on_c, 0, 64, 0
1, 31799, Note_on_c, 0, 64, 91
1, 31821, Note_on_c, 0, 60, 0
1, 31988, Note_on_c, 0, 68, 76
1, 31994, Note_on_c, 0, 40, 40
1, 32043, Control_c, 0, 64, 0
1, 32047, Note_on_c, 0, 64, 0
1, 32136, Note_on_c, 0, 40, 0
1, 32153, Note_on_c, 0, 50, 56
1, 32178, Control_c, 0, 64, 127
1, 32224, Note_on_c, 0, 50, 0
1, 32320, Note_on_c, 0, 52, 49
1, 32430, Note_on_c, 0, 52, 0
1, 32506, Note_on_c, 0, 71, 91
1, 32523, Note_on_c, 0, 56, 35
1, 32593, Note_on_c, 0, 56, 0
1, 32618, Note_on_c, 0, 68, 0
1, 32695, Note_on_c, 0, 59, 42
1, 32735, Note_on_c, 0, 59, 0
1, 32820, Note_on_c, 0, 64, 49
1, 32862, Note_on_c, 0, 64, 0
1, 32996, Note_on_c, 0, 69, 71
1, 33002, Note_on_c, 0, 33, 37
1, 33030, Control_c, 0, 64, 0
1, 33057, Note_on_c, 0, 71, 0
1, 33161, Note_on_c, 0, 33, 0
1, 33174, Control_c, 0, 64, 127
1, 33174, Note_on_c, 0, 45, 44
1, 33241, Note_on_c, 0, 45, 0
1, 33330, Note_on_c, 0, 48, 34
1, 33431, Note_on_c, 0, 48, 0
1, 33484, Note_on_c, 0, 52, 40
1, 33534, Note_on_c, 0, 52, 0
1, 33589, Note_on_c, 0, 57, 34
1, 33710, Note_on_c, 0, 57, 0
1, 33748, Note_on_c, 0, 60, 36
1, 33854, Note_on_c, 0, 60, 0
1, 33877, Note_on_c, 0, 33, 42
1, 33999, Note_on_c, 0, 33, 0
1, 34052, Note_on_c, 0, 45, 20
1, 34116, Note_on_c, 0, 45, 0
1, 34180, Note_on_c, 0, 69, 0
1, 34222, Note_on_c, 0, 48, 31
1, 34352, Note_on_c, 0, 48, 0
1, 34445, Note_on_c, 0, 69, 47
1, 34472, Note_on_c, 0, 52, 36
1, 34635, Note_on_c, 0, 52, 0
1, 34635, Note_on_c, 0, 57, 40
1, 34762, Note_on_c, 0, 57, 0
1, 34791, Note_on_c, 0, 69, 0
1, 34798, Note_on_c, 0, 60, 45
1, 34935, Note_on_c, 0, 36, 40
1, 34958, Control_c, 0, 64, 0
1, 34958, Note_on_c, 0, 69, 62
1, 34968, Note_on_c, 0, 60, 0
1, 35085, Note_on_c, 0, 36, 0
1, 35103, Control_c, 0, 64, 127
1, 35108, Note_on_c, 0, 48, 48
1, 35164, Note_on_c, 0, 48, 0
1, 35228, Note_on_c, 0, 51, 50
1, 35269, Note_on_c, 0, 69, 0
1, 35326, Note_on_c, 0, 51, 0
1, 35375, Note_on_c, 0, 69, 77
1, 35401, Note_on_c, 0, 57, 33
1, 35468, Note_on_c, 0, 57, 0
1, 35532, Note_on_c, 0, 60, 56
1, 35634, Note_on_c, 0, 60, 0
1, 35665, Note_on_c, 0, 63, 58
1, 35710, Note_on_c, 0, 63, 0
1, 35802, Note_on_c, 0, 36, 43
1, 35810, Note_on_c, 0, 72, 81
1, 35890, Note_on_c, 0, 69, 0
1, 35930, Note_on_c, 0, 36, 0
1, 35960, Note_on_c, 0, 48, 49
1, 36074, Note_on_c, 0, 48, 0
1, 36083, Note_on_c, 0, 51, 68
1, 36284, Note_on_c, 0, 57, 14
1, 36292, Note_on_c, 0, 70, 75
1, 36330, Note_on_c, 0, 51, 0
1, 36347, Note_on_c, 0, 72, 0
1, 36387, Note_on_c, 0, 57, 0
1, 36414, Note_on_c, 0, 70, 0
1, 36473, Note_on_c, 0, 60, 40
1, 36489, Note_on_c, 0, 69, 77
1, 36525, Note_on_c, 0, 60, 0
1, 36606, Note_on_c, 0, 63, 50
1, 36648, Note_on_c, 0, 63, 0
1, 36734, Note_on_c, 0, 67, 80
1, 36751, Note_on_c, 0, 38, 50
1, 36780, Control_c, 0, 64, 0
1, 36846, Note_on_c, 0, 69, 0
1, 36905, Note_on_c, 0, 38, 0
1, 36911, Note_on_c, 0, 50, 63
1, 36936, Control_c, 0, 64, 127
1, 36964, Note_on_c, 0, 50, 0
1, 37064, Note_on_c, 0, 57, 43
1, 37177, Note_on_c, 0, 57, 0
1, 37200, Note_on_c, 0, 60, 57
1, 37261, Note_on_c, 0, 60, 0
1, 37326, Note_on_c, 0, 62, 58
1, 37462, Note_on_c, 0, 66, 67
1, 37504, Note_on_c, 0, 62, 0
1, 37548, Note_on_c, 0, 67, 0
1, 37606, Note_on_c, 0, 38, 42
1, 37656, Note_on_c, 0, 69, 66
1, 37668, Control_c, 0, 64, 0
1, 37726, Note_on_c, 0, 66, 0
1, 37766, Note_on_c, 0, 38, 0
1, 37799, Control_c, 0, 64, 127
1, 37802, Note_on_c, 0, 50, 58
1, 37886, Note_on_c, 0, 50, 0
1, 37941, Note_on_c, 0, 54, 56
1, 38124, Note_on_c, 0, 69, 0
1, 38130, Note_on_c, 0, 62, 86
1, 38147, Note_on_c, 0, 57, 44
1, 38167, Note_on_c, 0, 54, 0
1, 38222, Note_on_c, 0, 57, 0
1, 38267, Note_on_c, 0, 62, 0
1, 38295, Note_on_c, 0, 60, 59
1, 38364, Note_on_c, 0, 60, 0
1, 38401, Note_on_c, 0, 62, 63
1, 38542, Note_on_c, 0, 43, 72
1, 38546, Note_on_c, 0, 70, 78
1, 38579, Control_c, 0, 64, 0
1, 38598, Note_on_c, 0, 62, 0
1, 38701, Note_on_c, 0, 50, 62
1, 38758, Control_c, 0, 64, 127
1, 38782, Note_on_c, 0, 43, 0
1, 38807, Note_on_c, 0, 50, 0
1, 38816, Note_on_c, 0, 55, 70
1, 38868, Note_on_c, 0, 70, 0
1, 38907, Note_on_c, 0, 55, 0
1, 38943, Note_on_c, 0, 58, 55
1, 38958, Note_on_c, 0, 70, 89
1, 39089, Note_on_c, 0, 58, 0
1, 39111, Note_on_c, 0, 62, 59
1, 39194, Note_on_c, 0, 62, 0
1, 39245, Note_on_c, 0, 67, 52
1, 39368, Note_on_c, 0, 39, 62
1, 39368, Note_on_c, 0, 75, 82
1, 39406, Control_c, 0, 64, 0
1, 39425, Note_on_c, 0, 67, 0
1, 39485, Note_on_c, 0, 70, 0
1, 39556, Note_on_c, 0, 51, 66
1, 39560, Note_on_c, 0, 39, 0
1, 39560, Control_c, 0, 64, 127
1, 39593, Note_on_c, 0, 51, 0
1, 39713, Note_on_c, 0, 55, 69
1, 39821, Note_on_c, 0, 55, 0
1, 39889, Note_on_c, 0, 60, 57
1, 39889, Note_on_c, 0, 74, 93
1, 39943, Note_on_c, 0, 60, 0
1, 39982, Note_on_c, 0, 75, 0
1, 40044, Note_on_c, 0, 63, 64
1, 40120, Note_on_c, 0, 63, 0
1, 40133, Note_on_c, 0, 72, 90
1, 40197, Note_on_c, 0, 74, 0
1, 40261, Note_on_c, 0, 67, 61
1, 40326, Note_on_c, 0, 67, 0
1, 40342, Note_on_c, 0, 41, 71
1, 40375, Note_on_c, 0, 70, 80
1, 40412, Control_c, 0, 64, 0
1, 40442, Note_on_c, 0, 72, 0
1, 40531, Note_on_c, 0, 51, 64
1, 40570, Note_on_c, 0, 41, 0
1, 40581, Control_c, 0, 64, 127
1, 40643, Note_on_c, 0, 51, 0
1, 40673, Note_on_c, 0, 53, 87
1, 40705, Note_on_c, 0, 53, 0
1, 40824, Note_on_c, 0, 60, 70
1, 40919, Note_on_c, 0, 60, 0
1, 40969, Note_on_c, 0, 63, 77
1, 41039, Note_on_c, 0, 63, 0
1, 41059, Note_on_c, 0, 69, 84
1, 41148, Note_on_c, 0, 70, 0
1, 41223, Note_on_c, 0, 45, 71
1, 41269, Note_on_c, 0, 72, 83
1, 41337, Note_on_c, 0, 69, 0
1, 41382, Control_c, 0, 64, 0
1, 41406, Note_on_c, 0, 53, 94
1, 41492, Control_c, 0, 64, 127
1, 41507, Note_on_c, 0, 53, 0
1, 41507, Note_on_c, 0, 45, 0
1, 41540, Note_on_c, 0, 57, 77
1, 41588, Note_on_c, 0, 72, 0
1, 41593, Note_on_c, 0, 57, 0
1, 41683, Note_on_c, 0, 60, 74
1, 41683, Note_on_c, 0, 65, 99
1, 41755, Note_on_c, 0, 60, 0
1, 41833, Note_on_c, 0, 63, 78
1, 41847, Note_on_c, 0, 65, 0
1, 41944, Note_on_c, 0, 63, 0
1, 41966, Note_on_c, 0, 65, 74
1, 42084, Note_on_c, 0, 46, 82
1, 42128, Note_on_c, 0, 74, 103
1, 42173, Control_c, 0, 64, 0
1, 42198, Note_on_c, 0, 65, 0
1, 42272, Note_on_c, 0, 53, 97
1, 42308, Note_on_c, 0, 46, 0
1, 42317, Control_c, 0, 64, 127
1, 42376, Note_on_c, 0, 53, 0
1, 42392, Note_on_c, 0, 58, 69
1, 42398, Note_on_c, 0, 74, 0
1, 42443, Note_on_c, 0, 58, 0
1, 42529, Note_on_c, 0, 74, 109
1, 42545, Note_on_c, 0, 62, 74
1, 42590, Note_on_c, 0, 62, 0
1, 42699, Note_on_c, 0, 65, 68
1, 42744, Note_on_c, 0, 65, 0
1, 42768, Note_on_c, 0, 74, 0
1, 42825, Note_on_c, 0, 70, 63
1, 43008, Note_on_c, 0, 46, 44
1, 43091, Note_on_c, 0, 82, 99
1, 43145, Note_on_c, 0, 70, 0
1, 43228, Control_c, 0, 64, 0
1, 43328, Note_on_c, 0, 55, 59
1, 43384, Control_c, 0, 64, 127
1, 43404, Note_on_c, 0, 46, 0
1, 43445, Note_on_c, 0, 55, 0
1, 43478, Note_on_c, 0, 58, 50
1, 43538, Note_on_c, 0, 58, 0
1, 43665, Note_on_c, 0, 62, 59
1, 43669, Note_on_c, 0, 82, 0
1, 43672, Note_on_c, 0, 81, 92
1, 43710, Note_on_c, 0, 62, 0
1, 43835, Note_on_c, 0, 67, 55
1, 43903, Note_on_c, 0, 67, 0
1, 43963, Note_on_c, 0, 79, 96
1, 44042, Note_on_c, 0, 70, 41
1, 44095, Note_on_c, 0, 70, 0
1, 44211, Note_on_c, 0, 81, 0
1, 44217, Note_on_c, 0, 46, 55
1, 44223, Note_on_c, 0, 77, 95
1, 44272, Control_c, 0, 64, 0
1, 44282, Note_on_c, 0, 79, 0
1, 44399, Note_on_c, 0, 55, 52
1, 44403, Control_c, 0, 64, 127
1, 44429, Note_on_c, 0, 46, 0
1, 44465, Note_on_c, 0, 55, 0
1, 44524, Note_on_c, 0, 60, 50
1, 44621, Note_on_c, 0, 60, 0
1, 44666, Note_on_c, 0, 76, 90
1, 44676, Note_on_c, 0, 64, 49
1, 44738, Note_on_c, 0, 64, 0
1, 44746, Note_on_c, 0, 77, 0
1, 44835, Note_on_c, 0, 67, 48
1, 44961, Note_on_c, 0, 67, 0
1, 44961, Note_on_c, 0, 72, 51
1, 45084, Note_on_c, 0, 72, 0
1, 45098, Note_on_c, 0, 45, 45
1, 45101, Note_on_c, 0, 79, 90
1, 45134, Control_c, 0, 64, 0
1, 45175, Note_on_c, 0, 76, 0
1, 45245, Note_on_c, 0, 45, 0
1, 45262, Note_on_c, 0, 57, 55
1, 45278, Control_c, 0, 64, 127
1, 45306, Note_on_c, 0, 57, 0
1, 45398, Note_on_c, 0, 60, 48
1, 45443, Note_on_c, 0, 60, 0
1, 45520, Note_on_c, 0, 77, 95
1, 45552, Note_on_c, 0, 65, 41
1, 45571, Note_on_c, 0, 79, 0
1, 45604, Note_on_c, 0, 65, 0
1, 45669, Note_on_c, 0, 69, 41
1, 45793, Note_on_c, 0, 77, 0
1, 45803, Note_on_c, 0, 69, 0
1, 45822, Note_on_c, 0, 72, 46
1, 45864, Note_on_c, 0, 72, 0
1, 45964, Note_on_c, 0, 76, 80
1, 45970, Note_on_c, 0, 46, 37
1, 46033, Control_c, 0, 64, 0
1, 46115, Note_on_c, 0, 53, 62
1, 46176, Control_c, 0, 64, 127
1, 46235, Note_on_c, 0, 46, 0
1, 46273, Note_on_c, 0, 55, 53
1, 46317, Note_on_c, 0, 53, 0
1, 46324, Note_on_c, 0, 55, 0
1, 46392, Note_on_c, 0, 74, 89
1, 46418, Note_on_c, 0, 76, 0
1, 46432, Note_on_c, 0, 62, 40
1, 46491, Note_on_c, 0, 62, 0
1, 46551, Note_on_c, 0, 65, 36
1, 46647, Note_on_c, 0, 65, 0
1, 46696, Note_on_c, 0, 67, 45
1, 46749, Note_on_c, 0, 67, 0
1, 46825, Note_on_c, 0, 46, 37
1, 46831, Note_on_c, 0, 70, 65
1, 46894, Note_on_c, 0, 74, 0
1, 46908, Control_c, 0, 64, 0
1, 47023, Note_on_c, 0, 53, 42
1, 47028, Control_c, 0, 64, 127
1, 47090, Note_on_c, 0, 46, 0
1, 47094, Note_on_c, 0, 53, 0
1, 47165, Note_on_c, 0, 55, 28
1, 47222, Note_on_c, 0, 55, 0
1, 47292, Note_on_c, 0, 69, 55
1, 47309, Note_on_c, 0, 62, 32
1, 47346, Note_on_c, 0, 70, 0
1, 47402, Note_on_c, 0, 62, 0
1, 47468, Note_on_c, 0, 65, 19
1, 47565, Note_on_c, 0, 65, 0
1, 47585, Note_on_c, 0, 69, 0
1, 47585, Note_on_c, 0, 67, 38
1, 47641, Note_on_c, 0, 67, 0
1, 47735, Control_c, 0, 64, 0
1, 47761, Note_on_c, 0, 36, 26
1, 47772, Note_on_c, 0, 67, 49
1, 47874, Note_on_c, 0, 36, 0
1, 47900, Note_on_c, 0, 48, 32
1, 47900, Control_c, 0, 64, 127
1, 47966, Note_on_c, 0, 48, 0
1, 48053, Note_on_c, 0, 52, 31
1, 48101, Note_on_c, 0, 52, 0
1, 48168, Note_on_c, 0, 55, 35
1, 48245, Note_on_c, 0, 55, 0
1, 48304, Note_on_c, 0, 60, 19
1, 48432, Note_on_c, 0, 64, 39
1, 48468, Note_on_c, 0, 60, 0
1, 48562, Note_on_c, 0, 36, 37
1, 48607, Note_on_c, 0, 64, 0
1, 48619, Note_on_c, 0, 36, 0
1, 48705, Note_on_c, 0, 48, 21
1, 48769, Note_on_c, 0, 48, 0
1, 48847, Note_on_c, 0, 52, 29
1, 48903, Note_on_c, 0, 52, 0
1, 49008, Note_on_c, 0, 59, 24
1, 49090, Note_on_c, 0, 59, 0
1, 49164, Note_on_c, 0, 60, 11
1, 49271, Note_on_c, 0, 67, 0
1, 49303, Note_on_c, 0, 64, 35
1, 49307, Note_on_c, 0, 60, 0
1, 49521, Note_on_c, 0, 64, 0
1, 49546, Note_on_c, 0, 36, 27
1, 49571, Note_on_c, 0, 67, 45
1, 49580, Control_c, 0, 64, 0
1, 49691, Note_on_c, 0, 36, 0
1, 49711, Control_c, 0, 64, 127
1, 49732, Note_on_c, 0, 48, 20
1, 49802, Note_on_c, 0, 48, 0
1, 49897, Note_on_c, 0, 52, 36
1, 49972, Note_on_c, 0, 52, 0
1, 50026, Note_on_c, 0, 58, 22
1, 50142, Note_on_c, 0, 58, 0
1, 50189, Note_on_c, 0, 60, 17
1, 50276, Note_on_c, 0, 60, 0
1, 50320, Note_on_c, 0, 64, 41
1, 50370, Note_on_c, 0, 64, 0
1, 50488, Note_on_c, 0, 41, 30
1, 50502, Note_on_c, 0, 68, 69
1, 50540, Control_c, 0, 64, 0
1, 50557, Note_on_c, 0, 67, 0
1, 50668, Note_on_c, 0, 48, 24
1, 50719, Control_c, 0, 64, 127
1, 50739, Note_on_c, 0, 41, 0
1, 50746, Note_on_c, 0, 48, 0
1, 50811, Note_on_c, 0, 53, 56
1, 50884, Note_on_c, 0, 53, 0
1, 50925, Note_on_c, 0, 72, 66
1, 50945, Note_on_c, 0, 56, 31
1, 50962, Note_on_c, 0, 68, 0
1, 51037, Note_on_c, 0, 56, 0
1, 51084, Note_on_c, 0, 60, 35
1, 51182, Note_on_c, 0, 60, 0
1, 51221, Note_on_c, 0, 65, 33
1, 51284, Note_on_c, 0, 65, 0
1, 51410, Note_on_c, 0, 67, 50
1, 51410, Note_on_c, 0, 40, 49
1, 51426, Control_c, 0, 64, 0
1, 51429, Note_on_c, 0, 72, 0
1, 51588, Note_on_c, 0, 48, 29
1, 51605, Control_c, 0, 64, 127
1, 51644, Note_on_c, 0, 40, 0
1, 51742, Note_on_c, 0, 48, 0
1, 51742, Note_on_c, 0, 52, 44
1, 51817, Note_on_c, 0, 52, 0
1, 51881, Note_on_c, 0, 55, 46
1, 51970, Note_on_c, 0, 55, 0
1, 52026, Note_on_c, 0, 60, 27
1, 52137, Note_on_c, 0, 60, 0
1, 52160, Note_on_c, 0, 64, 37
1, 52253, Control_c, 0, 64, 0
1, 52284, Note_on_c, 0, 36, 45
1, 52287, Note_on_c, 0, 48, 33
1, 52309, Note_on_c, 0, 64, 0
1, 52360, Control_c, 0, 64, 127
1, 52395, Note_on_c, 0, 48, 0
1, 52395, Note_on_c, 0, 36, 0
1, 52491, Note_on_c, 0, 52, 22
1, 52547, Note_on_c, 0, 52, 0
1, 52569, Note_on_c, 0, 55, 48
1, 52653, Note_on_c, 0, 55, 0
1, 52727, Note_on_c, 0, 59, 38
1, 52784, Note_on_c, 0, 59, 0
1, 52869, Note_on_c, 0, 60, 34
1, 52976, Note_on_c, 0, 60, 0
1, 52981, Note_on_c, 0, 67, 0
1, 53000, Note_on_c, 0, 64, 43
1, 53182, Note_on_c, 0, 36, 45
1, 53237, Note_on_c, 0, 64, 0
1, 53248, Note_on_c, 0, 67, 60
1, 53259, Control_c, 0, 64, 0
1, 53360, Note_on_c, 0, 36, 0
1, 53391, Note_on_c, 0, 48, 37
1, 53391, Control_c, 0, 64, 127
1, 53458, Note_on_c, 0, 48, 0
1, 53546, Note_on_c, 0, 52, 45
1, 53594, Note_on_c, 0, 52, 0
1, 53686, Note_on_c, 0, 58, 34
1, 53816, Note_on_c, 0, 58, 0
1, 53841, Note_on_c, 0, 60, 41
1, 54004, Note_on_c, 0, 67, 0
1, 54011, Note_on_c, 0, 60, 0
1, 54017, Note_on_c, 0, 64, 30
1, 54182, Note_on_c, 0, 41, 36
1, 54185, Note_on_c, 0, 68, 41
1, 54206, Control_c, 0, 64, 0
1, 54209, Note_on_c, 0, 64, 0
1, 54374, Control_c, 0, 64, 127
1, 54390, Note_on_c, 0, 48, 37
1, 54447, Note_on_c, 0, 41, 0
1, 54494, Note_on_c, 0, 48, 0
1, 54549, Note_on_c, 0, 53, 50
1, 54633, Note_on_c, 0, 53, 0
1, 54717, Note_on_c, 0, 56, 30
1, 54725, Note_on_c, 0, 72, 58
1, 54770, Note_on_c, 0, 68, 0
1, 54794, Note_on_c, 0, 56, 0
1, 54878, Note_on_c, 0, 60, 26
1, 54970, Note_on_c, 0, 60, 0
1, 55028, Note_on_c, 0, 65, 11
1, 55123, Note_on_c, 0, 65, 0
1, 55154, Note_on_c, 0, 67, 49
1, 55154, Note_on_c, 0, 40, 40
1, 55178, Control_c, 0, 64, 0
1, 55201, Note_on_c, 0, 72, 0
1, 55318, Note_on_c, 0, 48, 37
1, 55349, Control_c, 0, 64, 127
1, 55374, Note_on_c, 0, 40, 0
1, 55422, Note_on_c, 0, 48, 0
1, 55465, Note_on_c, 0, 52, 50
1, 55532, Note_on_c, 0, 52, 0
1, 55610, Note_on_c, 0, 55, 69
1, 55691, Note_on_c, 0, 55, 0
1, 55742, Note_on_c, 0, 60, 55
1, 55878, Note_on_c, 0, 64, 66
1, 55903, Note_on_c, 0, 60, 0
1, 56007, Note_on_c, 0, 46, 59
1, 56007, Note_on_c, 0, 34, 77
1, 56034, Note_on_c, 0, 64, 0
1, 56056, Note_on_c, 0, 34, 0
1, 56089, Note_on_c, 0, 46, 0
1, 56159, Note_on_c, 0, 48, 61
1, 56246, Note_on_c, 0, 48, 0
1, 56293, Note_on_c, 0, 52, 77
1, 56371, Note_on_c, 0, 52, 0
1, 56436, Note_on_c, 0, 55, 73
1, 56536, Note_on_c, 0, 55, 0
1, 56574, Note_on_c, 0, 60, 78
1, 56695, Note_on_c, 0, 60, 0
1, 56727, Note_on_c, 0, 64, 83
1, 56811, Note_on_c, 0, 67, 0
1, 56834, Note_on_c, 0, 64, 0
1, 56975, Note_on_c, 0, 45, 76
1, 56975, Control_c, 0, 64, 0
1, 56975, Note_on_c, 0, 72, 93
1, 56982, Note_on_c, 0, 33, 76
1, 57068, Note_on_c, 0, 33, 0
1, 57106, Note_on_c, 0, 45, 0
1, 57106, Control_c, 0, 64, 127
1, 57179, Note_on_c, 0, 51, 75
1, 57308, Note_on_c, 0, 51, 0
1, 57321, Note_on_c, 0, 54, 81
1, 57393, Note_on_c, 0, 54, 0
1, 57449, Note_on_c, 0, 60, 90
1, 57585, Note_on_c, 0, 60, 0
1, 57585, Note_on_c, 0, 63, 85
1, 57741, Note_on_c, 0, 66, 70
1, 57744, Note_on_c, 0, 63, 0
1, 57886, Note_on_c, 0, 72, 0
1, 57906, Note_on_c, 0, 66, 0
1, 57951, Note_on_c, 0, 34, 73
1, 57970, Control_c, 0, 64, 0
1, 57975, Note_on_c, 0, 46, 72
1, 57981, Note_on_c, 0, 74, 98
1, 58071, Note_on_c, 0, 34, 0
1, 58101, Control_c, 0, 64, 127
1, 58104, Note_on_c, 0, 46, 0
1, 58226, Note_on_c, 0, 50, 78
1, 58333, Note_on_c, 0, 50, 0
1, 58410, Note_on_c, 0, 55, 76
1, 58457, Note_on_c, 0, 55, 0
1, 58569, Note_on_c, 0, 77, 96
1, 58595, Note_on_c, 0, 62, 66
1, 58599, Note_on_c, 0, 74, 0
1, 58647, Note_on_c, 0, 62, 0
1, 58680, Note_on_c, 0, 77, 0
1, 58728, Note_on_c, 0, 65, 66
1, 58870, Note_on_c, 0, 65, 0
1, 58870, Note_on_c, 0, 67, 74
1, 59017, Note_on_c, 0, 36, 59
1, 59024, Control_c, 0, 64, 0
1, 59027, Note_on_c, 0, 72, 87
1, 59034, Note_on_c, 0, 67, 0
1, 59163, Note_on_c, 0, 36, 0
1, 59182, Note_on_c, 0, 48, 51
1, 59191, Control_c, 0, 64, 127
1, 59233, Note_on_c, 0, 48, 0
1, 59324, Note_on_c, 0, 53, 69
1, 59405, Note_on_c, 0, 53, 0
1, 59464, Note_on_c, 0, 57, 54
1, 59561, Note_on_c, 0, 57, 0
1, 59625, Note_on_c, 0, 60, 56
1, 59798, Note_on_c, 0, 65, 48
1, 59804, Note_on_c, 0, 72, 0
1, 59817, Note_on_c, 0, 60, 0
1, 60017, Note_on_c, 0, 36, 32
1, 60026, Note_on_c, 0, 72, 70
1, 60054, Note_on_c, 0, 65, 0
1, 60141, Note_on_c, 0, 36, 0
1, 60196, Note_on_c, 0, 48, 39
1, 60276, Note_on_c, 0, 48, 0
1, 60293, Note_on_c, 0, 69, 65
1, 60399, Note_on_c, 0, 53, 47
1, 60452, Note_on_c, 0, 53, 0
1, 60478, Note_on_c, 0, 72, 0
1, 60528, Note_on_c, 0, 67, 75
1, 60550, Note_on_c, 0, 57, 34
1, 60614, Note_on_c, 0, 57, 0
1, 60641, Note_on_c, 0, 69, 0
1, 60714, Note_on_c, 0, 60, 37
1, 60776, Note_on_c, 0, 60, 0
1, 60806, Note_on_c, 0, 65, 70
1, 60940, Note_on_c, 0, 67, 0
1, 61062, Note_on_c, 0, 36, 41
1, 61126, Note_on_c, 0, 64, 76
1, 61134, Control_c, 0, 64, 0
1, 61190, Note_on_c, 0, 65, 0
1, 61240, Note_on_c, 0, 36, 0
1, 61286, Note_on_c, 0, 48, 49
1, 61302, Control_c, 0, 64, 127
1, 61335, Note_on_c, 0, 48, 0
1, 61455, Note_on_c, 0, 55, 55
1, 61520, Note_on_c, 0, 55, 0
1, 61603, Note_on_c, 0, 58, 33
1, 61694, Note_on_c, 0, 58, 0
1, 61797, Note_on_c, 0, 60, 38
1, 61845, Note_on_c, 0, 60, 0
1, 61904, Note_on_c, 0, 65, 60
1, 62024, Note_on_c, 0, 64, 0
1, 62110, Note_on_c, 0, 36, 26
1, 62149, Note_on_c, 0, 67, 60
1, 62188, Note_on_c, 0, 65, 0
1, 62188, Control_c, 0, 64, 0
1, 62291, Note_on_c, 0, 36, 0
1, 62308, Control_c, 0, 64, 127
1, 62311, Note_on_c, 0, 48, 43
1, 62375, Note_on_c, 0, 48, 0
1, 62466, Note_on_c, 0, 52, 55
1, 62603, Note_on_c, 0, 52, 0
1, 62636, Note_on_c, 0, 70, 56
1, 62645, Note_on_c, 0, 58, 36
1, 62704, Note_on_c, 0, 67, 0
1, 62736, Note_on_c, 0, 58, 0
1, 62829, Note_on_c, 0, 60, 24
1, 62884, Note_on_c, 0, 60, 0
1, 62967, Note_on_c, 0, 67, 43
1, 63026, Note_on_c, 0, 70, 0
1, 63110, Note_on_c, 0, 36, 43
1, 63149, Note_on_c, 0, 70, 47
1, 63219, Control_c, 0, 64, 0
1, 63227, Note_on_c, 0, 67, 0
1, 63285, Note_on_c, 0, 36, 0
1, 63308, Note_on_c, 0, 48, 41
1, 63314, Control_c, 0, 64, 127
1, 63377, Note_on_c, 0, 48, 0
1, 63472, Note_on_c, 0, 53, 72
1, 63559, Note_on_c, 0, 53, 0
1, 63622, Note_on_c, 0, 57, 37
1, 63644, Note_on_c, 0, 69, 54
1, 63694, Note_on_c, 0, 57, 0
1, 63764, Note_on_c, 0, 70, 0
1, 63764, Note_on_c, 0, 60, 68
1, 63806, Note_on_c, 0, 60, 0
1, 63909, Note_on_c, 0, 65, 68
1, 64001, Note_on_c, 0, 69, 0
1, 64105, Note_on_c, 0, 36, 42
1, 64108, Note_on_c, 0, 72, 86
1, 64151, Note_on_c, 0, 65, 0
1, 64196, Note_on_c, 0, 36, 0
1, 64286, Note_on_c, 0, 48, 50
1, 64336, Note_on_c, 0, 48, 0
1, 64360, Note_on_c, 0, 69, 80
1, 64469, Note_on_c, 0, 53, 68
1, 64534, Note_on_c, 0, 53, 0
1, 64541, Note_on_c, 0, 72, 0
1, 64597, Note_on_c, 0, 67, 84
1, 64617, Note_on_c, 0, 57, 49
1, 64673, Note_on_c, 0, 57, 0
1, 64709, Note_on_c, 0, 69, 0
1, 64772, Note_on_c, 0, 60, 62
1, 64825, Note_on_c, 0, 60, 0
1, 64845, Note_on_c, 0, 65, 89
1, 64910, Note_on_c, 0, 67, 0
1, 65032, Note_on_c, 0, 36, 62
1, 65094, Note_on_c, 0, 64, 94
1, 65112, Control_c, 0, 64, 0
1, 65124, Note_on_c, 0, 65, 0
1, 65215, Note_on_c, 0, 36, 0
1, 65221, Control_c, 0, 64, 127
1, 65235, Note_on_c, 0, 48, 58
1, 65275, Note_on_c, 0, 48, 0
1, 65338, Note_on_c, 0, 65, 92
1, 65391, Note_on_c, 0, 64, 0
1, 65391, Note_on_c, 0, 55, 56
1, 65525, Note_on_c, 0, 55, 0
1, 65534, Note_on_c, 0, 58, 58
1, 65558, Note_on_c, 0, 66, 87
1, 65598, Note_on_c, 0, 58, 0
1, 65614, Note_on_c, 0, 65, 0
1, 65693, Note_on_c, 0, 60, 63
1, 65740, Note_on_c, 0, 60, 0
1, 65775, Note_on_c, 0, 67, 98
1, 65840, Note_on_c, 0, 66, 0
1, 65882, Note_on_c, 0, 64, 59
1, 65976, Note_on_c, 0, 36, 63
1, 65993, Note_on_c, 0, 69, 89
1, 66035, Note_on_c, 0, 67, 0
1, 66035, Control_c, 0, 64, 0
1, 66140, Note_on_c, 0, 36, 0
1, 66147, Note_on_c, 0, 48, 69
1, 66155, Control_c, 0, 64, 127
1, 66185, Note_on_c, 0, 48, 0
1, 66211, Note_on_c, 0, 70, 87
1, 66268, Note_on_c, 0, 69, 0
1, 66311, Note_on_c, 0, 64, 0
1, 66327, Note_on_c, 0, 52, 74
1, 66487, Note_on_c, 0, 74, 95
1, 66490, Note_on_c, 0, 58, 48
1, 66556, Note_on_c, 0, 70, 0
1, 66614, Note_on_c, 0, 52, 0
1, 66659, Note_on_c, 0, 58, 0
1, 66728, Note_on_c, 0, 60, 54
1, 66785, Note_on_c, 0, 60, 0
1, 66785, Note_on_c, 0, 72, 93
1, 66921, Note_on_c, 0, 74, 0
1, 66946, Note_on_c, 0, 64, 53
1, 67052, Note_on_c, 0, 37, 79
1, 67118, Note_on_c, 0, 70, 79
1, 67124, Note_on_c, 0, 64, 0
1, 67205, Note_on_c, 0, 72, 0
1, 67210, Control_c, 0, 64, 0
1, 67313, Note_on_c, 0, 49, 63
1, 67331, Note_on_c, 0, 37, 0
1, 67341, Control_c, 0, 64, 127
1, 67420, Note_on_c, 0, 49, 0
1, 67487, Note_on_c, 0, 52, 87
1, 67528, Note_on_c, 0, 52, 0
1, 67615, Note_on_c, 0, 70, 0
1, 67650, Note_on_c, 0, 69, 72
1, 67668, Note_on_c, 0, 55, 63
1, 67723, Note_on_c, 0, 55, 0
1, 67792, Note_on_c, 0, 57, 55
1, 67895, Note_on_c, 0, 57, 0
1, 67945, Note_on_c, 0, 64, 73
1, 68069, Note_on_c, 0, 64, 0
1, 68076, Note_on_c, 0, 38, 79
1, 68144, Control_c, 0, 64, 0
1, 68247, Note_on_c, 0, 38, 0
1, 68252, Control_c, 0, 64, 127
1, 68255, Note_on_c, 0, 50, 77
1, 68286, Note_on_c, 0, 69, 0
1, 68352, Note_on_c, 0, 69, 78
1, 68380, Note_on_c, 0, 50, 0
1, 68455, Note_on_c, 0, 53, 98
1, 68558, Note_on_c, 0, 69, 0
1, 68564, Note_on_c, 0, 53, 0
1, 68622, Note_on_c, 0, 69, 77
1, 68650, Note_on_c, 0, 57, 64
1, 68725, Note_on_c, 0, 57, 0
1, 68767, Note_on_c, 0, 62, 73
1, 68806, Note_on_c, 0, 69, 0
1, 68856, Note_on_c, 0, 69, 86
1, 68885, Note_on_c, 0, 62, 0
1, 68988, Note_on_c, 0, 65, 73
1, 69093, Note_on_c, 0, 38, 69
1, 69124, Note_on_c, 0, 72, 98
1, 69157, Note_on_c, 0, 65, 0
1, 69175, Control_c, 0, 64, 0
1, 69197, Note_on_c, 0, 69, 0
1, 69269, Note_on_c, 0, 38, 0
1, 69280, Note_on_c, 0, 50, 66
1, 69295, Control_c, 0, 64, 127
1, 69319, Note_on_c, 0, 50, 0
1, 69406, Note_on_c, 0, 53, 91
1, 69512, Note_on_c, 0, 53, 0
1, 69544, Note_on_c, 0, 71, 111
1, 69558, Note_on_c, 0, 56, 71
1, 69603, Note_on_c, 0, 72, 0
1, 69629, Note_on_c, 0, 56, 0
1, 69712, Note_on_c, 0, 62, 80
1, 69776, Note_on_c, 0, 62, 0
1, 69854, Note_on_c, 0, 65, 83
1, 69913, Note_on_c, 0, 71, 0
1, 70083, Note_on_c, 0, 65, 0
1, 70116, Note_on_c, 0, 79, 107
1, 70125, Note_on_c, 0, 40, 93
1, 70230, Control_c, 0, 64, 0
1, 70356, Note_on_c, 0, 40, 0
1, 70356, Note_on_c, 0, 52, 84
1, 70373, Control_c, 0, 64, 127
1, 70406, Note_on_c, 0, 52, 0
1, 70528, Note_on_c, 0, 55, 74
1, 70643, Note_on_c, 0, 55, 0
1, 70699, Note_on_c, 0, 70, 91
1, 70703, Note_on_c, 0, 58, 69
1, 70740, Note_on_c, 0, 79, 0
1, 70763, Note_on_c, 0, 58, 0
1, 70880, Note_on_c, 0, 60, 66
1, 70938, Note_on_c, 0, 60, 0
1, 71007, Note_on_c, 0, 70, 0
1, 71015, Note_on_c, 0, 67, 74
1, 71180, Note_on_c, 0, 42, 76
1, 71180, Note_on_c, 0, 69, 81
1, 71213, Note_on_c, 0, 67, 0
1, 71213, Control_c, 0, 64, 0
1, 71330, Note_on_c, 0, 42, 0
1, 71336, Note_on_c, 0, 54, 69
1, 71344, Control_c, 0, 64, 127
1, 71375, Note_on_c, 0, 54, 0
1, 71497, Note_on_c, 0, 57, 72
1, 71573, Note_on_c, 0, 57, 0
1, 71643, Note_on_c, 0, 72, 87
1, 71665, Note_on_c, 0, 60, 67
1, 71679, Note_on_c, 0, 69, 0
1, 71756, Note_on_c, 0, 60, 0
1, 71799, Note_on_c, 0, 62, 61
1, 71902, Note_on_c, 0, 62, 0
1, 71943, Note_on_c, 0, 69, 57
1, 72089, Note_on_c, 0, 69, 0
1, 72119, Note_on_c, 0, 43, 40
1, 72122, Note_on_c, 0, 70, 70
1, 72196, Control_c, 0, 64, 0
1, 72199, Note_on_c, 0, 72, 0
1, 72292, Note_on_c, 0, 50, 43
1, 72339, Control_c, 0, 64, 127
1, 72369, Note_on_c, 0, 50, 0
1, 72369, Note_on_c, 0, 43, 0
1, 72451, Note_on_c, 0, 55, 49
1, 72536, Note_on_c, 0, 55, 0
1, 72595, Note_on_c, 0, 67, 75
1, 72617, Note_on_c, 0, 58, 30
1, 72729, Note_on_c, 0, 58, 0
1, 72740, Note_on_c, 0, 70, 0
1, 72785, Note_on_c, 0, 62, 36
1, 72824, Note_on_c, 0, 67, 0
1, 72918, Note_on_c, 0, 67, 28
1, 73086, Note_on_c, 0, 36, 27
1, 73119, Note_on_c, 0, 65, 68
1, 73149, Note_on_c, 0, 62, 0
1, 73166, Control_c, 0, 64, 0
1, 73186, Note_on_c, 0, 67, 0
1, 73269, Note_on_c, 0, 36, 0
1, 73295, Note_on_c, 0, 48, 33
1, 73298, Control_c, 0, 64, 127
1, 73356, Note_on_c, 0, 48, 0
1, 73459, Note_on_c, 0, 53, 72
1, 73515, Note_on_c, 0, 53, 0
1, 73621, Note_on_c, 0, 64, 79
1, 73635, Note_on_c, 0, 57, 47
1, 73681, Note_on_c, 0, 65, 0
1, 73738, Note_on_c, 0, 57, 0
1, 73816, Note_on_c, 0, 60, 41
1, 73871, Note_on_c, 0, 60, 0
1, 73908, Note_on_c, 0, 65, 80
1, 73955, Note_on_c, 0, 64, 0
1, 74188, Note_on_c, 0, 36, 32
1, 74209, Control_c, 0, 64, 0
1, 74258, Note_on_c, 0, 69, 45
1, 74280, Note_on_c, 0, 65, 0
1, 74401, Note_on_c, 0, 36, 0
1, 74437, Control_c, 0, 64, 127
1, 74447, Note_on_c, 0, 48, 23
1, 74509, Note_on_c, 0, 48, 0
1, 74654, Note_on_c, 0, 52, 30
1, 74780, Note_on_c, 0, 52, 0
1, 74834, Note_on_c, 0, 58, 20
1, 74936, Note_on_c, 0, 58, 0
1, 75019, Note_on_c, 0, 60, 25
1, 75203, Note_on_c, 0, 67, 40
1, 75209, Note_on_c, 0, 60, 0
1, 75409, Note_on_c, 0, 69, 0
1, 75472, Note_on_c, 0, 41, 36
1, 75472, Note_on_c, 0, 65, 46
1, 75492, Control_c, 0, 64, 0
1, 75509, Note_on_c, 0, 67, 0
1, 75665, Note_on_c, 0, 48, 24
1, 75670, Note_on_c, 0, 41, 0
1, 75695, Control_c, 0, 64, 127
1, 75799, Note_on_c, 0, 48, 0
1, 75837, Note_on_c, 0, 53, 52
1, 75888, Note_on_c, 0, 53, 0
1, 75901, Note_on_c, 0, 65, 0
1, 75991, Note_on_c, 0, 57, 31
1, 76078, Note_on_c, 0, 57, 0
1, 76155, Note_on_c, 0, 60, 36
1, 76255, Note_on_c, 0, 60, 0
1, 76298, Note_on_c, 0, 65, 45
1, 76440, Note_on_c, 0, 41, 40
1, 76481, Note_on_c, 0, 65, 0
1, 76510, Note_on_c, 0, 41, 0
1, 76596, Note_on_c, 0, 52, 37
1, 76643, Note_on_c, 0, 52, 0
1, 76751, Note_on_c, 0, 53, 54
1, 76832, Note_on_c, 0, 53, 0
1, 76913, Note_on_c, 0, 57, 32
1, 76980, Note_on_c, 0, 57, 0
1, 77075, Note_on_c, 0, 60, 37
1, 77169, Note_on_c, 0, 60, 0
1, 77259, Note_on_c, 0, 65, 36
1, 77395, Note_on_c, 0, 65, 0
1, 77535, Note_on_c, 0, 72, 72
1, 77546, Note_on_c, 0, 41, 37
1, 77613, Control_c, 0, 64, 0
1, 77734, Note_on_c, 0, 41, 0
1, 77757, Control_c, 0, 64, 127
1, 77763, Note_on_c, 0, 51, 35
1, 77893, Note_on_c, 0, 51, 0
1, 77947, Note_on_c, 0, 53, 43
1, 77994, Note_on_c, 0, 53, 0
1, 78089, Note_on_c, 0, 57, 28
1, 78147, Note_on_c, 0, 57, 0
1, 78234, Note_on_c, 0, 60, 40
1, 78286, Note_on_c, 0, 60, 0
1, 78398, Note_on_c, 0, 65, 18
1, 78512, Note_on_c, 0, 74, 82
1, 78518, Note_on_c, 0, 41, 41
1, 78534, Note_on_c, 0, 65, 0
1, 78537, Note_on_c, 0, 72, 0
1, 78548, Control_c, 0, 64, 0
1, 78666, Note_on_c, 0, 50, 38
1, 78679, Note_on_c, 0, 41, 0
1, 78691, Control_c, 0, 64, 127
1, 78749, Note_on_c, 0, 50, 0
1, 78826, Note_on_c, 0, 53, 63
1, 78882, Note_on_c, 0, 53, 0
1, 78983, Note_on_c, 0, 77, 84
1, 78987, Note_on_c, 0, 58, 45
1, 79036, Note_on_c, 0, 74, 0
1, 79061, Note_on_c, 0, 58, 0
1, 79148, Note_on_c, 0, 62, 42
1, 79198, Note_on_c, 0, 62, 0
1, 79294, Note_on_c, 0, 65, 49
1, 79353, Note_on_c, 0, 65, 0
1, 79495, Control_c, 0, 64, 0
1, 79512, Note_on_c, 0, 41, 28
1, 79517, Note_on_c, 0, 72, 69
1, 79551, Note_on_c, 0, 77, 0
1, 79643, Note_on_c, 0, 41, 0
1, 79649, Control_c, 0, 64, 127
1, 79740, Note_on_c, 0, 55, 26
1, 79804, Note_on_c, 0, 55, 0
1, 79880, Note_on_c, 0, 58, 25
1, 79983, Note_on_c, 0, 58, 0
1, 80039, Note_on_c, 0, 60, 35
1, 80136, Note_on_c, 0, 60, 0
1, 80205, Note_on_c, 0, 64, 37
1, 80290, Note_on_c, 0, 64, 0
1, 80314, Note_on_c, 0, 72, 0
1, 80336, Note_on_c, 0, 67, 49
1, 80509, Note_on_c, 0, 72, 60
1, 80509, Note_on_c, 0, 41, 31
1, 80509, Control_c, 0, 64, 0
1, 80521, Note_on_c, 0, 67, 0
1, 80643, Note_on_c, 0, 41, 0
1, 80657, Control_c, 0, 64, 127
1, 80676, Note_on_c, 0, 53, 62
1, 80724, Note_on_c, 0, 53, 0
1, 80825, Note_on_c, 0, 57, 29
1, 80877, Note_on_c, 0, 57, 0
1, 80955, Note_on_c, 0, 60, 38
1, 81053, Note_on_c, 0, 60, 0
1, 81108, Note_on_c, 0, 65, 41
1, 81219, Note_on_c, 0, 65, 0
1, 81225, Note_on_c, 0, 72, 0
1, 81258, Note_on_c, 0, 69, 40
1, 81393, Note_on_c, 0, 69, 0
1, 81460, Note_on_c, 0, 72, 72
1, 81470, Note_on_c, 0, 41, 37
1, 81507, Control_c, 0, 64, 0
1, 81627, Note_on_c, 0, 41, 0
1, 81646, Note_on_c, 0, 51, 44
1, 81651, Control_c, 0, 64, 127
1, 81796, Note_on_c, 0, 51, 0
1, 81843, Note_on_c, 0, 53, 35
1, 81889, Note_on_c, 0, 53, 0
1, 81985, Note_on_c, 0, 60, 38
1, 82075, Note_on_c, 0, 60, 0
1, 82144, Note_on_c, 0, 65, 33
1, 82239, Note_on_c, 0, 65, 0
1, 82273, Note_on_c, 0, 72, 0
1, 82293, Note_on_c, 0, 69, 26
1, 82481, Note_on_c, 0, 74, 56
1, 82490, Note_on_c, 0, 41, 27
1, 82515, Note_on_c, 0, 69, 0
1, 82515, Control_c, 0, 64, 0
1, 82669, Note_on_c, 0, 41, 0
1, 82669, Control_c, 0, 64, 127
1, 82687, Note_on_c, 0, 50, 34
1, 82775, Note_on_c, 0, 50, 0
1, 82888, Note_on_c, 0, 53, 27
1, 82949, Note_on_c, 0, 53, 0
1, 83066, Note_on_c, 0, 58, 20
1, 83077, Note_on_c, 0, 77, 45
1, 83109, Note_on_c, 0, 74, 0
1, 83141, Note_on_c, 0, 58, 0
1, 83251, Note_on_c, 0, 62, 16
1, 83309, Note_on_c, 0, 62, 0
1, 83401, Note_on_c, 0, 65, 20
1, 83463, Note_on_c, 0, 65, 0
1, 83555, Note_on_c, 0, 77, 0
1, 83555, Control_c, 0, 64, 0
1, 83568, Note_on_c, 0, 72, 36
1, 83587, Note_on_c, 0, 41, 28
1, 83641, Note_on_c, 0, 41, 0
1, 83677, Control_c, 0, 64, 127
1, 83757, Note_on_c, 0, 55, 11
1, 83814, Note_on_c, 0, 55, 0
1, 83900, Note_on_c, 0, 58, 24
1, 84014, Note_on_c, 0, 58, 0
1, 84041, Note_on_c, 0, 60, 26
1, 84126, Note_on_c, 0, 60, 0
1, 84203, Note_on_c, 0, 64, 30
1, 84265, Note_on_c, 0, 64, 0
1, 84329, Note_on_c, 0, 67, 30
1, 84337, Note_on_c, 0, 72, 0
1, 84462, Note_on_c, 0, 67, 0
1, 84490, Note_on_c, 0, 53, 55
1, 84573, Note_on_c, 0, 53, 0
1, 84624, Note_on_c, 0, 60, 33
1, 84700, Note_on_c, 0, 60, 0
1, 84769, Note_on_c, 0, 67, 45
1, 84825, Note_on_c, 0, 67, 0
1, 84924, Note_on_c, 0, 72, 74
1, 84938, Note_on_c, 0, 70, 31
1, 84998, Note_on_c, 0, 70, 0
1, 85106, Note_on_c, 0, 76, 39
1, 85126, Note_on_c, 0, 72, 0
1, 85271, Note_on_c, 0, 79, 61
1, 85281, Note_on_c, 0, 76, 0
1, 85509, Note_on_c, 0, 72, 71
1, 85512, Note_on_c, 0, 41, 37
1, 85534, Note_on_c, 0, 79, 0
1, 85534, Control_c, 0, 64, 0
1, 85679, Control_c, 0, 64, 127
1, 85700, Note_on_c, 0, 48, 33
1, 85749, Note_on_c, 0, 41, 0
1, 85775, Note_on_c, 0, 48, 0
1, 85866, Note_on_c, 0, 53, 43
1, 85914, Note_on_c, 0, 53, 0
1, 86033, Note_on_c, 0, 57, 30
1, 86089, Note_on_c, 0, 57, 0
1, 86186, Note_on_c, 0, 60, 21
1, 86256, Note_on_c, 0, 60, 0
1, 86332, Note_on_c, 0, 65, 22
1, 86384, Note_on_c, 0, 65, 0
1, 86491, Note_on_c, 0, 69, 62
1, 86502, Note_on_c, 0, 53, 49
1, 86538, Note_on_c, 0, 72, 0
1, 86555, Note_on_c, 0, 53, 0
1, 86665, Note_on_c, 0, 60, 18
1, 86722, Note_on_c, 0, 60, 0
1, 86786, Note_on_c, 0, 65, 41
1, 86835, Note_on_c, 0, 65, 0
1, 86955, Note_on_c, 0, 72, 33
1, 86966, Note_on_c, 0, 69, 0
1, 87087, Note_on_c, 0, 72, 0
1, 87097, Note_on_c, 0, 77, 37
1, 87242, Note_on_c, 0, 81, 60
1, 87264, Note_on_c, 0, 77, 0
1, 87278, Note_on_c, 0, 81, 0
1, 87465, Note_on_c, 0, 41, 33
1, 87535, Note_on_c, 0, 72, 78
1, 87547, Control_c, 0, 64, 0
1, 87655, Note_on_c, 0, 41, 0
1, 87668, Control_c, 0, 64, 127
1, 87728, Note_on_c, 0, 55, 22
1, 87819, Note_on_c, 0, 55, 0
1, 87883, Note_on_c, 0, 58, 20
1, 88031, Note_on_c, 0, 60, 33
1, 88047, Note_on_c, 0, 58, 0
1, 88114, Note_on_c, 0, 60, 0
1, 88179, Note_on_c, 0, 64, 40
1, 88240, Note_on_c, 0, 64, 0
1, 88320, Note_on_c, 0, 67, 33
1, 88345, Note_on_c, 0, 72, 0
1, 88409, Note_on_c, 0, 67, 0
1, 88476, Note_on_c, 0, 53, 34
1, 88530, Note_on_c, 0, 53, 0
1, 88629, Note_on_c, 0, 60, 13
1, 88693, Note_on_c, 0, 60, 0
1, 88753, Note_on_c, 0, 67, 39
1, 88805, Note_on_c, 0, 67, 0
1, 88895, Note_on_c, 0, 72, 65
1, 88902, Note_on_c, 0, 70, 34
1, 88956, Note_on_c, 0, 70, 0
1, 89081, Note_on_c, 0, 72, 0
1, 89097, Note_on_c, 0, 76, 24
1, 89195, Note_on_c, 0, 76, 0
1, 89240, Note_on_c, 0, 79, 53
1, 89491, Note_on_c, 0, 72, 60
1, 89501, Note_on_c, 0, 41, 26
1, 89519, Note_on_c, 0, 79, 0
1, 89536, Control_c, 0, 64, 0
1, 89694, Control_c, 0, 64, 127
1, 89736, Note_on_c, 0, 48, 16
1, 89780, Note_on_c, 0, 41, 0
1, 89838, Note_on_c, 0, 48, 0
1, 89912, Note_on_c, 0, 53, 39
1, 89972, Note_on_c, 0, 53, 0
1, 90098, Note_on_c, 0, 57, 24
1, 90156, Note_on_c, 0, 57, 0
1, 90234, Note_on_c, 0, 60, 24
1, 90323, Note_on_c, 0, 60, 0
1, 90368, Note_on_c, 0, 65, 24
1, 90499, Note_on_c, 0, 65, 0
1, 90521, Note_on_c, 0, 69, 41
1, 90554, Note_on_c, 0, 72, 0
1, 90560, Note_on_c, 0, 53, 38
1, 90638, Note_on_c, 0, 53, 0
1, 90700, Note_on_c, 0, 69, 0
1, 90713, Note_on_c, 0, 60, 6
1, 90802, Note_on_c, 0, 60, 0
1, 90834, Note_on_c, 0, 65, 27
1, 90886, Note_on_c, 0, 65, 0
1, 90997, Note_on_c, 0, 72, 46
1, 91126, Note_on_c, 0, 72, 0
1, 91132, Note_on_c, 0, 77, 44
1, 91274, Note_on_c, 0, 81, 38
1, 91291, Note_on_c, 0, 77, 0
1, 91357, Note_on_c, 0, 81, 0
1, 91412, Note_on_c, 0, 53, 44
1, 91419, Note_on_c, 0, 72, 81
1, 91493, Note_on_c, 0, 53, 0
1, 91575, Note_on_c, 0, 60, 28
1, 91652, Note_on_c, 0, 60, 0
1, 91706, Note_on_c, 0, 65, 17
1, 91763, Note_on_c, 0, 65, 0
1, 91819, Note_on_c, 0, 69, 29
1, 91894, Note_on_c, 0, 69, 0
1, 91925, Note_on_c, 0, 72, 0
1, 91964, Note_on_c, 0, 77, 36
1, 92031, Note_on_c, 0, 77, 0
1, 92115, Note_on_c, 0, 81, 18
1, 92207, Note_on_c, 0, 81, 0
1, 92260, Note_on_c, 0, 69, 33
1, 92284, Note_on_c, 0, 65, 17
1, 92343, Note_on_c, 0, 65, 0
1, 92398, Note_on_c, 0, 69, 0
1, 92412, Note_on_c, 0, 72, 35
1, 92544, Note_on_c, 0, 72, 0
1, 92571, Note_on_c, 0, 77, 25
1, 92616, Note_on_c, 0, 77, 0
1, 92699, Note_on_c, 0, 81, 26
1, 92777, Note_on_c, 0, 81, 0
1, 92853, Note_on_c, 0, 84, 35
1, 92986, Note_on_c, 0, 89, 62
1, 93003, Note_on_c, 0, 84, 0
1, 93025, Note_on_c, 0, 89, 0
1, 93251, Note_on_c, 0, 72, 73
1, 93315, Note_on_c, 0, 65, 5
1, 93418, Note_on_c, 0, 65, 0
1, 93418, Note_on_c, 0, 72, 0
1, 93486, Note_on_c, 0, 69, 16
1, 93592, Note_on_c, 0, 69, 0
1, 93642, Note_on_c, 0, 72, 23
1, 93699, Note_on_c, 0, 72, 0
1, 93772, Note_on_c, 0, 81, 31
1, 93844, Note_on_c, 0, 81, 0
1, 93906, Note_on_c, 0, 84, 35
1, 94074, Note_on_c, 0, 89, 28
1, 94142, Note_on_c, 0, 84, 0
1, 94224, Note_on_c, 0, 69, 20
1, 94241, Note_on_c, 0, 89, 0
1, 94301, Note_on_c, 0, 69, 0
1, 94405, Note_on_c, 0, 77, 34
1, 94532, Note_on_c, 0, 77, 0
1, 94575, Note_on_c, 0, 81, 36
1, 94691, Note_on_c, 0, 81, 0
1, 94738, Note_on_c, 0, 84, 45
1, 94859, Note_on_c, 0, 84, 0
1, 94889, Note_on_c, 0, 89, 29
1, 95050, Note_on_c, 0, 89, 0
1, 95050, Note_on_c, 0, 93, 28
1, 95290, Note_on_c, 0, 93, 0
1, 95338, Note_on_c, 0, 96, 24
1, 95652, Note_on_c, 0, 96, 0
1, 96402, Note_on_c, 0, 60, 14
1, 96410, Note_on_c, 0, 57, 14
1, 96410, Note_on_c, 0, 65, 16
1, 96416, Note_on_c, 0, 29, 10
1, 96425, Note_on_c, 0, 41, 15
1, 96861, Note_on_c, 0, 41, 0
1, 96873, Note_on_c, 0, 57, 0
1, 96879, Note_on_c, 0, 29, 0
1, 96918, Note_on_c, 0, 65, 0
1, 96929, Note_on_c, 0, 60, 0
1, 98048, Note_on_c, 0, 65, 22
1, 98059, Note_on_c, 0, 60, 20
1, 98059, Note_on_c, 0, 57, 15
1, 98059, Note_on_c, 0, 41, 24
1, 98062, Note_on_c, 0, 29, 21
1, 100144, Control_c, 0, 64, 0
1, 100584, Note_on_c, 0, 41, 0
1, 100588, Note_on_c, 0, 57, 0
1, 100620, Note_on_c, 0, 29, 0
1, 100662, Note_on_c, 0, 60, 0
1, 100675, Note_on_c, 0, 65, 0
1, 101837, Control_c, 0, 64, 0
1, 101837, End_track
0, 0, End_of_file
