0, 0, Header, 0, 1, 480
1, 0, Start_track
1, 0, Title_t, "Sonate Nr. 23 Op. 57"
1, 0, Title_t, "Appassionata"
1, 0, Copyright_t, "Copyright © 2001 by Bernd Krueger"
1, 0, Text_t, "Ludwig van Beethoven"
1, 0, Text_t, "Allegro assai"
1, 0, Text_t, "Fertiggestellt am 26.9.2001\012"
1, 0, Text_t, "Update am 23.10.01\012"
1, 0, Text_t, "Normierung: 23.12.2002\012"
1, 0, Text_t, "Update am 21.7.2012\012"
1, 0, Text_t, "Dauer: 9:22 Minuten\012"
1, 0, Time_signature, 4, 2, 24, 8
1, 0, Tempo, 361816
1, 0, Program_c, 1, 19
1, 2160, Note_on_c, 1, 60, 35
1, 2160, Note_on_c, 1, 36, 27
1, 2760, Note_on_c, 1, 36, 0
1, 2760, Note_on_c, 1, 60, 0
1, 2760, Note_on_c, 1, 56, 31
1, 2760, Note_on_c, 1, 32, 25
1, 2880, Note_on_c, 1, 32, 0
1, 2880, Note_on_c, 1, 56, 0
1, 2880, Note_on_c, 1, 53, 28
1, 2880, Note_on_c, 1, 29, 22
1, 5040, Note_on_c, 1, 29, 0
1, 5040, Note_on_c, 1, 53, 0
1, 5040, Note_on_c, 1, 56, 35
1, 5040, Note_on_c, 1, 32, 27
1, 5640, Note_on_c, 1, 32, 0
1, 5640, Note_on_c, 1, 56, 0
1, 5640, Note_on_c, 1, 60, 30
1, 5640, Note_on_c, 1, 36, 24
1, 5760, Note_on_c, 1, 36, 0
1, 5760, Note_on_c, 1, 60, 0
1, 5760, Note_on_c, 1, 65, 35
1, 5760, Note_on_c, 1, 41, 27
1, 6480, Note_on_c, 1, 41, 0
1, 6480, Note_on_c, 1, 65, 0
1, 6480, Note_on_c, 1, 68, 35
1, 6480, Note_on_c, 1, 44, 27
1, 7080, Note_on_c, 1, 44, 0
1, 7080, Note_on_c, 1, 68, 0
1, 7080, Note_on_c, 1, 72, 30
1, 7080, Note_on_c, 1, 48, 24
1, 7200, Note_on_c, 1, 48, 0
1, 7200, Note_on_c, 1, 72, 0
1, 7200, Note_on_c, 1, 77, 35
1, 7200, Note_on_c, 1, 53, 27
1, 7910, Note_on_c, 1, 53, 0
1, 7910, Note_on_c, 1, 77, 0
1, 7920, Note_on_c, 1, 65, 33
1, 7920, Note_on_c, 1, 56, 26
1, 8640, Note_on_c, 1, 56, 0
1, 8640, Note_on_c, 1, 65, 0
1, 8640, Note_on_c, 1, 72, 35
1, 8640, Note_on_c, 1, 55, 26
1, 8640, Note_on_c, 1, 60, 26
1, 8640, Note_on_c, 1, 52, 26
1, 9840, Note_on_c, 1, 72, 0
1, 9840, Note_on_c, 1, 74, 33
1, 10020, Note_on_c, 1, 74, 0
1, 10020, Note_on_c, 1, 72, 31
1, 10080, Note_on_c, 1, 72, 0
1, 10080, Note_on_c, 1, 55, 0
1, 10080, Note_on_c, 1, 60, 0
1, 10080, Note_on_c, 1, 52, 0
1, 10080, Note_on_c, 1, 74, 32
1, 10080, Note_on_c, 1, 53, 26
1, 10080, Note_on_c, 1, 59, 26
1, 10080, Note_on_c, 1, 56, 26
1, 10160, Note_on_c, 1, 74, 0
1, 10160, Note_on_c, 1, 76, 28
1, 10240, Note_on_c, 1, 76, 0
1, 10240, Note_on_c, 1, 74, 32
1, 10320, Note_on_c, 1, 74, 0
1, 10320, Note_on_c, 1, 76, 28
1, 10400, Note_on_c, 1, 76, 0
1, 10400, Note_on_c, 1, 74, 32
1, 10480, Note_on_c, 1, 74, 0
1, 10480, Note_on_c, 1, 76, 29
1, 10560, Note_on_c, 1, 76, 0
1, 10560, Note_on_c, 1, 74, 32
1, 10640, Note_on_c, 1, 74, 0
1, 10640, Note_on_c, 1, 76, 28
1, 10720, Note_on_c, 1, 76, 0
1, 10720, Note_on_c, 1, 74, 31
1, 10800, Note_on_c, 1, 74, 0
1, 10800, Note_on_c, 1, 76, 29
1, 10880, Note_on_c, 1, 76, 0
1, 10880, Note_on_c, 1, 74, 27
1, 10960, Note_on_c, 1, 74, 0
1, 10960, Note_on_c, 1, 76, 32
1, 11040, Note_on_c, 1, 76, 0
1, 11040, Note_on_c, 1, 74, 27
1, 11160, Note_on_c, 1, 74, 0
1, 11160, Note_on_c, 1, 72, 28
1, 11280, Note_on_c, 1, 72, 0
1, 11280, Note_on_c, 1, 76, 31
1, 11400, Note_on_c, 1, 76, 0
1, 11400, Note_on_c, 1, 74, 28
1, 11520, Note_on_c, 1, 74, 0
1, 11520, Note_on_c, 1, 56, 0
1, 11520, Note_on_c, 1, 59, 0
1, 11520, Note_on_c, 1, 53, 0
1, 11520, Note_on_c, 1, 72, 35
1, 11520, Note_on_c, 1, 55, 22
1, 11520, Note_on_c, 1, 52, 19
1, 11520, Note_on_c, 1, 60, 26
1, 12000, Note_on_c, 1, 60, 0
1, 12000, Note_on_c, 1, 72, 0
1, 12000, Note_on_c, 1, 55, 0
1, 12000, Note_on_c, 1, 52, 0
1, 13680, Note_on_c, 1, 61, 35
1, 13680, Note_on_c, 1, 37, 27
1, 14280, Note_on_c, 1, 37, 0
1, 14280, Note_on_c, 1, 61, 0
1, 14280, Note_on_c, 1, 58, 31
1, 14280, Note_on_c, 1, 34, 25
1, 14400, Note_on_c, 1, 34, 0
1, 14400, Note_on_c, 1, 58, 0
1, 14400, Note_on_c, 1, 54, 28
1, 14400, Note_on_c, 1, 30, 22
1, 16560, Note_on_c, 1, 30, 0
1, 16560, Note_on_c, 1, 54, 0
1, 16560, Note_on_c, 1, 58, 35
1, 16560, Note_on_c, 1, 34, 27
1, 17160, Note_on_c, 1, 34, 0
1, 17160, Note_on_c, 1, 58, 0
1, 17160, Note_on_c, 1, 61, 30
1, 17160, Note_on_c, 1, 37, 24
1, 17280, Note_on_c, 1, 37, 0
1, 17280, Note_on_c, 1, 61, 0
1, 17280, Note_on_c, 1, 66, 35
1, 17280, Note_on_c, 1, 42, 27
1, 18000, Note_on_c, 1, 42, 0
1, 18000, Note_on_c, 1, 66, 0
1, 18000, Note_on_c, 1, 70, 35
1, 18000, Note_on_c, 1, 46, 27
1, 18600, Note_on_c, 1, 46, 0
1, 18600, Note_on_c, 1, 70, 0
1, 18600, Note_on_c, 1, 73, 30
1, 18600, Note_on_c, 1, 49, 24
1, 18720, Note_on_c, 1, 49, 0
1, 18720, Note_on_c, 1, 73, 0
1, 18720, Note_on_c, 1, 78, 34
1, 18720, Note_on_c, 1, 54, 29
1, 19440, Note_on_c, 1, 54, 0
1, 19440, Note_on_c, 1, 78, 0
1, 19440, Note_on_c, 1, 66, 33
1, 19440, Note_on_c, 1, 58, 26
1, 20160, Note_on_c, 1, 58, 0
1, 20160, Note_on_c, 1, 66, 0
1, 20160, Note_on_c, 1, 73, 35
1, 20160, Note_on_c, 1, 53, 26
1, 20160, Note_on_c, 1, 61, 26
1, 20160, Note_on_c, 1, 56, 26
1, 21360, Note_on_c, 1, 73, 0
1, 21360, Note_on_c, 1, 75, 32
1, 21540, Note_on_c, 1, 75, 0
1, 21540, Note_on_c, 1, 73, 31
1, 21600, Note_on_c, 1, 73, 0
1, 21600, Note_on_c, 1, 53, 0
1, 21600, Note_on_c, 1, 61, 0
1, 21600, Note_on_c, 1, 56, 0
1, 21600, Note_on_c, 1, 75, 30
1, 21600, Note_on_c, 1, 57, 26
1, 21600, Note_on_c, 1, 60, 26
1, 21600, Note_on_c, 1, 54, 26
1, 21680, Note_on_c, 1, 75, 0
1, 21680, Note_on_c, 1, 77, 27
1, 21760, Note_on_c, 1, 77, 0
1, 21760, Note_on_c, 1, 75, 30
1, 21840, Note_on_c, 1, 75, 0
1, 21840, Note_on_c, 1, 77, 27
1, 21920, Note_on_c, 1, 77, 0
1, 21920, Note_on_c, 1, 75, 30
1, 22000, Note_on_c, 1, 75, 0
1, 22000, Note_on_c, 1, 77, 27
1, 22080, Note_on_c, 1, 77, 0
1, 22080, Note_on_c, 1, 75, 29
1, 22160, Note_on_c, 1, 75, 0
1, 22160, Note_on_c, 1, 77, 27
1, 22240, Note_on_c, 1, 77, 0
1, 22240, Note_on_c, 1, 75, 29
1, 22320, Note_on_c, 1, 75, 0
1, 22320, Note_on_c, 1, 77, 28
1, 22400, Note_on_c, 1, 77, 0
1, 22400, Note_on_c, 1, 75, 30
1, 22480, Note_on_c, 1, 75, 0
1, 22480, Note_on_c, 1, 77, 28
1, 22560, Note_on_c, 1, 77, 0
1, 22560, Note_on_c, 1, 75, 26
1, 22680, Note_on_c, 1, 75, 0
1, 22680, Note_on_c, 1, 73, 28
1, 22800, Note_on_c, 1, 73, 0
1, 22800, Note_on_c, 1, 77, 31
1, 22920, Note_on_c, 1, 77, 0
1, 22920, Note_on_c, 1, 75, 29
1, 23040, Note_on_c, 1, 75, 0
1, 23040, Note_on_c, 1, 54, 0
1, 23040, Note_on_c, 1, 60, 0
1, 23040, Note_on_c, 1, 57, 0
1, 23040, Note_on_c, 1, 73, 35
1, 23040, Note_on_c, 1, 53, 19
1, 23040, Note_on_c, 1, 56, 22
1, 23040, Note_on_c, 1, 61, 26
1, 23520, Note_on_c, 1, 61, 0
1, 23520, Note_on_c, 1, 73, 0
1, 23520, Note_on_c, 1, 53, 0
1, 23520, Note_on_c, 1, 56, 0
1, 25920, Note_on_c, 1, 72, 35
1, 25920, Note_on_c, 1, 67, 26
1, 25920, Note_on_c, 1, 64, 26
1, 27120, Note_on_c, 1, 72, 0
1, 27120, Note_on_c, 1, 74, 42
1, 27300, Note_on_c, 1, 74, 0
1, 27300, Note_on_c, 1, 72, 38
1, 27360, Note_on_c, 1, 72, 0
1, 27360, Note_on_c, 1, 64, 0
1, 27360, Note_on_c, 1, 67, 0
1, 27360, Note_on_c, 1, 74, 43
1, 27360, Note_on_c, 1, 68, 26
1, 27360, Note_on_c, 1, 71, 26
1, 27360, Note_on_c, 1, 65, 26
1, 27440, Note_on_c, 1, 74, 0
1, 27440, Note_on_c, 1, 76, 35
1, 27520, Note_on_c, 1, 76, 0
1, 27520, Note_on_c, 1, 74, 40
1, 27600, Note_on_c, 1, 74, 0
1, 27600, Note_on_c, 1, 76, 36
1, 27680, Note_on_c, 1, 76, 0
1, 27680, Note_on_c, 1, 74, 39
1, 27760, Note_on_c, 1, 74, 0
1, 27760, Note_on_c, 1, 76, 36
1, 27840, Note_on_c, 1, 76, 0
1, 27840, Note_on_c, 1, 74, 41
1, 27920, Note_on_c, 1, 74, 0
1, 27920, Note_on_c, 1, 76, 37
1, 28000, Note_on_c, 1, 76, 0
1, 28000, Note_on_c, 1, 74, 40
1, 28080, Note_on_c, 1, 74, 0
1, 28080, Note_on_c, 1, 76, 35
1, 28160, Note_on_c, 1, 76, 0
1, 28160, Note_on_c, 1, 74, 31
1, 28240, Note_on_c, 1, 74, 0
1, 28240, Note_on_c, 1, 76, 37
1, 28320, Note_on_c, 1, 76, 0
1, 28320, Note_on_c, 1, 74, 33
1, 28440, Note_on_c, 1, 74, 0
1, 28440, Note_on_c, 1, 72, 33
1, 28560, Note_on_c, 1, 72, 0
1, 28560, Note_on_c, 1, 76, 37
1, 28680, Note_on_c, 1, 76, 0
1, 28680, Note_on_c, 1, 74, 33
1, 28800, Note_on_c, 1, 74, 0
1, 28800, Note_on_c, 1, 65, 0
1, 28800, Note_on_c, 1, 71, 0
1, 28800, Note_on_c, 1, 68, 0
1, 28800, Note_on_c, 1, 72, 35
1, 28800, Note_on_c, 1, 64, 22
1, 28800, Note_on_c, 1, 67, 26
1, 29280, Note_on_c, 1, 67, 0
1, 29280, Note_on_c, 1, 64, 0
1, 29280, Note_on_c, 1, 72, 0
1, 29520, Note_on_c, 1, 37, 27
1, 29640, Note_on_c, 1, 37, 0
1, 29760, Note_on_c, 1, 37, 26
1, 29880, Note_on_c, 1, 37, 0
1, 30000, Note_on_c, 1, 37, 26
1, 30120, Note_on_c, 1, 37, 0
1, 30240, Note_on_c, 1, 36, 26
1, 30480, Note_on_c, 1, 36, 0
1, 31680, Note_on_c, 1, 76, 35
1, 31680, Note_on_c, 1, 67, 26
1, 31680, Note_on_c, 1, 73, 26
1, 31680, Note_on_c, 1, 70, 26
1, 32880, Note_on_c, 1, 76, 0
1, 32880, Note_on_c, 1, 77, 38
1, 33120, Note_on_c, 1, 77, 0
1, 33120, Note_on_c, 1, 70, 0
1, 33120, Note_on_c, 1, 73, 0
1, 33120, Note_on_c, 1, 67, 0
1, 33120, Note_on_c, 1, 77, 39
1, 33120, Note_on_c, 1, 70, 26
1, 33120, Note_on_c, 1, 73, 26
1, 33120, Note_on_c, 1, 68, 26
1, 33200, Note_on_c, 1, 77, 0
1, 33200, Note_on_c, 1, 79, 34
1, 33280, Note_on_c, 1, 79, 0
1, 33280, Note_on_c, 1, 77, 39
1, 33360, Note_on_c, 1, 77, 0
1, 33360, Note_on_c, 1, 79, 35
1, 33440, Note_on_c, 1, 79, 0
1, 33440, Note_on_c, 1, 77, 39
1, 33520, Note_on_c, 1, 77, 0
1, 33520, Note_on_c, 1, 79, 35
1, 33600, Note_on_c, 1, 79, 0
1, 33600, Note_on_c, 1, 77, 39
1, 33680, Note_on_c, 1, 77, 0
1, 33680, Note_on_c, 1, 79, 35
1, 33760, Note_on_c, 1, 79, 0
1, 33760, Note_on_c, 1, 77, 39
1, 33840, Note_on_c, 1, 77, 0
1, 33840, Note_on_c, 1, 79, 36
1, 33920, Note_on_c, 1, 79, 0
1, 33920, Note_on_c, 1, 77, 33
1, 34000, Note_on_c, 1, 77, 0
1, 34000, Note_on_c, 1, 79, 39
1, 34080, Note_on_c, 1, 79, 0
1, 34080, Note_on_c, 1, 77, 33
1, 34200, Note_on_c, 1, 77, 0
1, 34200, Note_on_c, 1, 76, 34
1, 34320, Note_on_c, 1, 76, 0
1, 34320, Note_on_c, 1, 79, 40
1, 34440, Note_on_c, 1, 79, 0
1, 34440, Note_on_c, 1, 77, 35
1, 34560, Note_on_c, 1, 77, 0
1, 34560, Note_on_c, 1, 68, 0
1, 34560, Note_on_c, 1, 73, 0
1, 34560, Note_on_c, 1, 70, 0
1, 34560, Note_on_c, 1, 76, 35
1, 34560, Note_on_c, 1, 67, 22
1, 34560, Note_on_c, 1, 70, 22
1, 34560, Note_on_c, 1, 73, 26
1, 35040, Note_on_c, 1, 73, 0
1, 35040, Note_on_c, 1, 76, 0
1, 35040, Note_on_c, 1, 67, 0
1, 35040, Note_on_c, 1, 70, 0
1, 35280, Note_on_c, 1, 37, 27
1, 35400, Note_on_c, 1, 37, 0
1, 35520, Note_on_c, 1, 37, 26
1, 35640, Note_on_c, 1, 37, 0
1, 35760, Note_on_c, 1, 37, 26
1, 35880, Note_on_c, 1, 37, 0
1, 36000, Note_on_c, 1, 36, 26
1, 36240, Note_on_c, 1, 36, 0
1, 36720, Note_on_c, 1, 76, 35
1, 36720, Note_on_c, 1, 79, 35
1, 36960, Note_on_c, 1, 79, 0
1, 36960, Note_on_c, 1, 76, 0
1, 36960, Note_on_c, 1, 79, 31
1, 36960, Note_on_c, 1, 76, 31
1, 37200, Note_on_c, 1, 76, 0
1, 37200, Note_on_c, 1, 79, 0
1, 37200, Note_on_c, 1, 76, 35
1, 37200, Note_on_c, 1, 79, 35
1, 37440, Note_on_c, 1, 79, 0
1, 37440, Note_on_c, 1, 76, 0
1, 37440, Note_on_c, 1, 79, 35
1, 37440, Note_on_c, 1, 82, 35
1, 37920, Note_on_c, 1, 82, 0
1, 37920, Note_on_c, 1, 79, 0
1, 38160, Note_on_c, 1, 37, 27
1, 38400, Note_on_c, 1, 37, 0
1, 38400, Note_on_c, 1, 37, 26
1, 38640, Note_on_c, 1, 37, 0
1, 38640, Note_on_c, 1, 37, 26
1, 38880, Note_on_c, 1, 37, 0
1, 38880, Note_on_c, 1, 36, 26
1, 39360, Note_on_c, 1, 36, 0
1, 39600, Note_on_c, 1, 82, 83
1, 39600, Note_on_c, 1, 79, 83
1, 39840, Note_on_c, 1, 79, 0
1, 39840, Note_on_c, 1, 82, 0
1, 39840, Note_on_c, 1, 82, 77
1, 39840, Note_on_c, 1, 79, 77
1, 40080, Note_on_c, 1, 79, 0
1, 40080, Note_on_c, 1, 82, 0
1, 40080, Note_on_c, 1, 79, 83
1, 40080, Note_on_c, 1, 82, 83
1, 40320, Note_on_c, 1, 82, 0
1, 40320, Note_on_c, 1, 79, 0
1, 40320, Note_on_c, 1, 88, 85
1, 40440, Note_on_c, 1, 88, 0
1, 40440, Note_on_c, 1, 82, 76
1, 40560, Note_on_c, 1, 82, 0
1, 40560, Note_on_c, 1, 91, 85
1, 40680, Note_on_c, 1, 91, 0
1, 40680, Note_on_c, 1, 88, 75
1, 40800, Note_on_c, 1, 88, 0
1, 40800, Note_on_c, 1, 94, 85
1, 40920, Note_on_c, 1, 94, 0
1, 40920, Note_on_c, 1, 91, 76
1, 41040, Note_on_c, 1, 91, 0
1, 41040, Note_on_c, 1, 88, 85
1, 41160, Note_on_c, 1, 88, 0
1, 41160, Note_on_c, 1, 91, 76
1, 41280, Note_on_c, 1, 91, 0
1, 41280, Note_on_c, 1, 82, 83
1, 41400, Note_on_c, 1, 82, 0
1, 41400, Note_on_c, 1, 88, 75
1, 41520, Note_on_c, 1, 88, 0
1, 41520, Note_on_c, 1, 79, 83
1, 41640, Note_on_c, 1, 79, 0
1, 41640, Note_on_c, 1, 82, 74
1, 41760, Note_on_c, 1, 82, 0
1, 41760, Note_on_c, 1, 76, 81
1, 41880, Note_on_c, 1, 76, 0
1, 41880, Note_on_c, 1, 79, 74
1, 42000, Note_on_c, 1, 79, 0
1, 42000, Note_on_c, 1, 70, 81
1, 42120, Note_on_c, 1, 70, 0
1, 42120, Note_on_c, 1, 76, 71
1, 42240, Note_on_c, 1, 76, 0
1, 42240, Note_on_c, 1, 67, 80
1, 42360, Note_on_c, 1, 67, 0
1, 42360, Note_on_c, 1, 70, 73
1, 42480, Note_on_c, 1, 70, 0
1, 42480, Note_on_c, 1, 64, 80
1, 42600, Note_on_c, 1, 64, 0
1, 42600, Note_on_c, 1, 67, 70
1, 42720, Note_on_c, 1, 67, 0
1, 42720, Note_on_c, 1, 58, 79
1, 42840, Note_on_c, 1, 58, 0
1, 42840, Note_on_c, 1, 64, 71
1, 42960, Note_on_c, 1, 64, 0
1, 42960, Note_on_c, 1, 55, 75
1, 43080, Note_on_c, 1, 55, 0
1, 43080, Note_on_c, 1, 58, 63
1, 43200, Note_on_c, 1, 58, 0
1, 43200, Note_on_c, 1, 52, 75
1, 43320, Note_on_c, 1, 52, 0
1, 43320, Note_on_c, 1, 55, 64
1, 43440, Note_on_c, 1, 55, 0
1, 43440, Note_on_c, 1, 46, 75
1, 43560, Note_on_c, 1, 46, 0
1, 43560, Note_on_c, 1, 52, 60
1, 43680, Note_on_c, 1, 52, 0
1, 43680, Note_on_c, 1, 31, 73
1, 43800, Note_on_c, 1, 31, 0
1, 43800, Note_on_c, 1, 34, 67
1, 43920, Note_on_c, 1, 34, 0
1, 43920, Note_on_c, 1, 40, 77
1, 44040, Note_on_c, 1, 40, 0
1, 44040, Note_on_c, 1, 43, 67
1, 44160, Note_on_c, 1, 43, 0
1, 44160, Note_on_c, 1, 46, 77
1, 44280, Note_on_c, 1, 46, 0
1, 44280, Note_on_c, 1, 49, 67
1, 44400, Note_on_c, 1, 49, 0
1, 44400, Note_on_c, 1, 52, 82
1, 44520, Note_on_c, 1, 52, 0
1, 44520, Note_on_c, 1, 55, 73
1, 44640, Note_on_c, 1, 55, 0
1, 44640, Note_on_c, 1, 58, 89
1, 44880, Note_on_c, 1, 58, 0
1, 45360, Note_on_c, 1, 41, 72
1, 45360, Note_on_c, 1, 29, 72
1, 45360, Note_on_c, 1, 56, 86
1, 45360, Note_on_c, 1, 61, 86
1, 45360, Note_on_c, 1, 49, 86
1, 45600, Note_on_c, 1, 49, 0
1, 45600, Note_on_c, 1, 56, 0
1, 45600, Note_on_c, 1, 41, 0
1, 45600, Note_on_c, 1, 29, 0
1, 45600, Note_on_c, 1, 61, 0
1, 46080, Note_on_c, 1, 40, 40
1, 46080, Note_on_c, 1, 52, 48
1, 46080, Note_on_c, 1, 48, 40
1, 46080, Note_on_c, 1, 60, 48
1, 46080, Note_on_c, 1, 55, 48
1, 48180, Note_on_c, 1, 55, 0
1, 48180, Note_on_c, 1, 48, 0
1, 48180, Note_on_c, 1, 40, 0
1, 48180, Note_on_c, 1, 52, 0
1, 48180, Note_on_c, 1, 60, 0
1, 48240, Note_on_c, 1, 60, 35
1, 48240, Note_on_c, 1, 36, 27
1, 48840, Note_on_c, 1, 36, 0
1, 48840, Note_on_c, 1, 60, 0
1, 48840, Note_on_c, 1, 56, 31
1, 48840, Note_on_c, 1, 32, 25
1, 48960, Note_on_c, 1, 32, 0
1, 48960, Note_on_c, 1, 56, 0
1, 48960, Note_on_c, 1, 53, 103
1, 48960, Note_on_c, 1, 29, 81
1, 49200, Note_on_c, 1, 29, 0
1, 49200, Note_on_c, 1, 53, 0
1, 49200, Note_on_c, 1, 60, 85
1, 49200, Note_on_c, 1, 65, 101
1, 49200, Note_on_c, 1, 56, 75
1, 49200, Note_on_c, 1, 53, 75
1, 49440, Note_on_c, 1, 32, 61
1, 49440, Note_on_c, 1, 29, 61
1, 49440, Note_on_c, 1, 41, 81
1, 49440, Note_on_c, 1, 36, 69
1, 49675, Note_on_c, 1, 53, 0
1, 49675, Note_on_c, 1, 56, 0
1, 49675, Note_on_c, 1, 60, 0
1, 49675, Note_on_c, 1, 65, 0
1, 49680, Note_on_c, 1, 60, 72
1, 49680, Note_on_c, 1, 56, 72
1, 49680, Note_on_c, 1, 65, 81
1, 49680, Note_on_c, 1, 68, 96
1, 49915, Note_on_c, 1, 32, 0
1, 49915, Note_on_c, 1, 41, 0
1, 49915, Note_on_c, 1, 36, 0
1, 49915, Note_on_c, 1, 29, 0
1, 49920, Note_on_c, 1, 32, 57
1, 49920, Note_on_c, 1, 36, 64
1, 49920, Note_on_c, 1, 41, 76
1, 49920, Note_on_c, 1, 29, 57
1, 50155, Note_on_c, 1, 60, 0
1, 50155, Note_on_c, 1, 65, 0
1, 50155, Note_on_c, 1, 68, 0
1, 50155, Note_on_c, 1, 56, 0
1, 50160, Note_on_c, 1, 60, 71
1, 50160, Note_on_c, 1, 72, 96
1, 50160, Note_on_c, 1, 65, 71
1, 50160, Note_on_c, 1, 68, 79
1, 50395, Note_on_c, 1, 32, 0
1, 50395, Note_on_c, 1, 41, 0
1, 50395, Note_on_c, 1, 29, 0
1, 50395, Note_on_c, 1, 36, 0
1, 50400, Note_on_c, 1, 32, 55
1, 50400, Note_on_c, 1, 36, 63
1, 50400, Note_on_c, 1, 41, 73
1, 50400, Note_on_c, 1, 29, 55
1, 50635, Note_on_c, 1, 60, 0
1, 50635, Note_on_c, 1, 65, 0
1, 50635, Note_on_c, 1, 68, 0
1, 50635, Note_on_c, 1, 72, 0
1, 50640, Note_on_c, 1, 72, 80
1, 50640, Note_on_c, 1, 77, 95
1, 50640, Note_on_c, 1, 65, 72
1, 50640, Note_on_c, 1, 68, 72
1, 50875, Note_on_c, 1, 32, 0
1, 50875, Note_on_c, 1, 41, 0
1, 50875, Note_on_c, 1, 29, 0
1, 50875, Note_on_c, 1, 36, 0
1, 50880, Note_on_c, 1, 32, 61
1, 50880, Note_on_c, 1, 29, 61
1, 50880, Note_on_c, 1, 41, 81
1, 50880, Note_on_c, 1, 36, 69
1, 51115, Note_on_c, 1, 72, 0
1, 51115, Note_on_c, 1, 65, 0
1, 51115, Note_on_c, 1, 68, 0
1, 51115, Note_on_c, 1, 77, 0
1, 51120, Note_on_c, 1, 77, 86
1, 51120, Note_on_c, 1, 68, 76
1, 51120, Note_on_c, 1, 72, 76
1, 51120, Note_on_c, 1, 80, 103
1, 51355, Note_on_c, 1, 32, 0
1, 51355, Note_on_c, 1, 41, 0
1, 51355, Note_on_c, 1, 36, 0
1, 51355, Note_on_c, 1, 29, 0
1, 51360, Note_on_c, 1, 32, 55
1, 51360, Note_on_c, 1, 36, 63
1, 51360, Note_on_c, 1, 41, 73
1, 51360, Note_on_c, 1, 29, 55
1, 51595, Note_on_c, 1, 77, 0
1, 51595, Note_on_c, 1, 72, 0
1, 51595, Note_on_c, 1, 80, 0
1, 51595, Note_on_c, 1, 68, 0
1, 51600, Note_on_c, 1, 77, 78
1, 51600, Note_on_c, 1, 84, 94
1, 51600, Note_on_c, 1, 80, 78
1, 51600, Note_on_c, 1, 72, 71
1, 51835, Note_on_c, 1, 32, 0
1, 51835, Note_on_c, 1, 41, 0
1, 51835, Note_on_c, 1, 29, 0
1, 51835, Note_on_c, 1, 36, 0
1, 51838, Note_on_c, 1, 77, 0
1, 51838, Note_on_c, 1, 72, 0
1, 51838, Note_on_c, 1, 84, 0
1, 51838, Note_on_c, 1, 80, 0
1, 51840, Note_on_c, 1, 89, 103
1, 51840, Note_on_c, 1, 77, 76
1, 51840, Note_on_c, 1, 84, 86
1, 51840, Note_on_c, 1, 80, 86
1, 51840, Note_on_c, 1, 29, 61
1, 51840, Note_on_c, 1, 36, 69
1, 51840, Note_on_c, 1, 41, 81
1, 51840, Note_on_c, 1, 32, 61
1, 54000, Note_on_c, 1, 32, 0
1, 54000, Note_on_c, 1, 89, 0
1, 54000, Note_on_c, 1, 29, 0
1, 54000, Note_on_c, 1, 77, 0
1, 54000, Note_on_c, 1, 84, 0
1, 54000, Note_on_c, 1, 80, 0
1, 54000, Note_on_c, 1, 36, 0
1, 54000, Note_on_c, 1, 41, 0
1, 54000, Note_on_c, 1, 56, 41
1, 54000, Note_on_c, 1, 32, 33
1, 54600, Note_on_c, 1, 32, 0
1, 54600, Note_on_c, 1, 56, 0
1, 54600, Note_on_c, 1, 60, 35
1, 54600, Note_on_c, 1, 36, 28
1, 54720, Note_on_c, 1, 36, 0
1, 54720, Note_on_c, 1, 60, 0
1, 54720, Note_on_c, 1, 65, 39
1, 54720, Note_on_c, 1, 41, 33
1, 55440, Note_on_c, 1, 41, 0
1, 55440, Note_on_c, 1, 65, 0
1, 55440, Note_on_c, 1, 68, 41
1, 55440, Note_on_c, 1, 44, 33
1, 56040, Note_on_c, 1, 44, 0
1, 56040, Note_on_c, 1, 68, 0
1, 56040, Note_on_c, 1, 72, 36
1, 56040, Note_on_c, 1, 48, 28
1, 56160, Note_on_c, 1, 48, 0
1, 56160, Note_on_c, 1, 72, 0
1, 56160, Note_on_c, 1, 77, 39
1, 56160, Note_on_c, 1, 53, 33
1, 56875, Note_on_c, 1, 53, 0
1, 56875, Note_on_c, 1, 77, 0
1, 56880, Note_on_c, 1, 65, 39
1, 56880, Note_on_c, 1, 41, 30
1, 57600, Note_on_c, 1, 41, 0
1, 57600, Note_on_c, 1, 65, 0
1, 57600, Note_on_c, 1, 60, 103
1, 57600, Note_on_c, 1, 55, 81
1, 57600, Note_on_c, 1, 52, 81
1, 57840, Note_on_c, 1, 52, 0
1, 57840, Note_on_c, 1, 55, 0
1, 57840, Note_on_c, 1, 60, 0
1, 57840, Note_on_c, 1, 60, 85
1, 57840, Note_on_c, 1, 64, 101
1, 57840, Note_on_c, 1, 55, 75
1, 58080, Note_on_c, 1, 43, 69
1, 58080, Note_on_c, 1, 48, 81
1, 58080, Note_on_c, 1, 40, 61
1, 58315, Note_on_c, 1, 55, 0
1, 58315, Note_on_c, 1, 60, 0
1, 58315, Note_on_c, 1, 64, 0
1, 58320, Note_on_c, 1, 64, 81
1, 58320, Note_on_c, 1, 67, 96
1, 58320, Note_on_c, 1, 60, 72
1, 58555, Note_on_c, 1, 43, 0
1, 58555, Note_on_c, 1, 40, 0
1, 58555, Note_on_c, 1, 48, 0
1, 58560, Note_on_c, 1, 40, 57
1, 58560, Note_on_c, 1, 48, 76
1, 58560, Note_on_c, 1, 43, 64
1, 58795, Note_on_c, 1, 64, 0
1, 58795, Note_on_c, 1, 60, 0
1, 58795, Note_on_c, 1, 67, 0
1, 58800, Note_on_c, 1, 72, 96
1, 58800, Note_on_c, 1, 64, 71
1, 58800, Note_on_c, 1, 67, 79
1, 59035, Note_on_c, 1, 40, 0
1, 59035, Note_on_c, 1, 43, 0
1, 59035, Note_on_c, 1, 48, 0
1, 59040, Note_on_c, 1, 43, 63
1, 59040, Note_on_c, 1, 40, 55
1, 59040, Note_on_c, 1, 48, 73
1, 59275, Note_on_c, 1, 72, 0
1, 59275, Note_on_c, 1, 67, 0
1, 59275, Note_on_c, 1, 64, 0
1, 59280, Note_on_c, 1, 76, 95
1, 59280, Note_on_c, 1, 67, 72
1, 59280, Note_on_c, 1, 72, 80
1, 59515, Note_on_c, 1, 43, 0
1, 59515, Note_on_c, 1, 48, 0
1, 59515, Note_on_c, 1, 40, 0
1, 59520, Note_on_c, 1, 40, 61
1, 59520, Note_on_c, 1, 48, 81
1, 59520, Note_on_c, 1, 43, 69
1, 59755, Note_on_c, 1, 76, 0
1, 59755, Note_on_c, 1, 72, 0
1, 59755, Note_on_c, 1, 67, 0
1, 59760, Note_on_c, 1, 79, 103
1, 59760, Note_on_c, 1, 72, 76
1, 59760, Note_on_c, 1, 76, 86
1, 59995, Note_on_c, 1, 40, 0
1, 59995, Note_on_c, 1, 43, 0
1, 59995, Note_on_c, 1, 48, 0
1, 60000, Note_on_c, 1, 43, 63
1, 60000, Note_on_c, 1, 48, 73
1, 60000, Note_on_c, 1, 40, 55
1, 60235, Note_on_c, 1, 79, 0
1, 60235, Note_on_c, 1, 76, 0
1, 60235, Note_on_c, 1, 72, 0
1, 60240, Note_on_c, 1, 84, 94
1, 60240, Note_on_c, 1, 76, 78
1, 60240, Note_on_c, 1, 79, 78
1, 60475, Note_on_c, 1, 43, 0
1, 60475, Note_on_c, 1, 40, 0
1, 60475, Note_on_c, 1, 48, 0
1, 60478, Note_on_c, 1, 84, 0
1, 60478, Note_on_c, 1, 76, 0
1, 60478, Note_on_c, 1, 79, 0
1, 60480, Note_on_c, 1, 72, 41
1, 60480, Note_on_c, 1, 67, 30
1, 60480, Note_on_c, 1, 64, 30
1, 61680, Note_on_c, 1, 72, 0
1, 61680, Note_on_c, 1, 74, 45
1, 61920, Note_on_c, 1, 74, 0
1, 61920, Note_on_c, 1, 64, 0
1, 61920, Note_on_c, 1, 67, 0
1, 61920, Note_on_c, 1, 74, 39
1, 61920, Note_on_c, 1, 68, 30
1, 61920, Note_on_c, 1, 71, 30
1, 61920, Note_on_c, 1, 65, 30
1, 62000, Note_on_c, 1, 74, 0
1, 62000, Note_on_c, 1, 76, 35
1, 62080, Note_on_c, 1, 74, 39
1, 62120, Note_on_c, 1, 76, 0
1, 62160, Note_on_c, 1, 74, 0
1, 62160, Note_on_c, 1, 76, 36
1, 62240, Note_on_c, 1, 76, 0
1, 62240, Note_on_c, 1, 74, 38
1, 62320, Note_on_c, 1, 74, 0
1, 62320, Note_on_c, 1, 76, 36
1, 62400, Note_on_c, 1, 76, 0
1, 62400, Note_on_c, 1, 74, 38
1, 62480, Note_on_c, 1, 74, 0
1, 62480, Note_on_c, 1, 76, 36
1, 62560, Note_on_c, 1, 76, 0
1, 62560, Note_on_c, 1, 74, 39
1, 62640, Note_on_c, 1, 74, 0
1, 62640, Note_on_c, 1, 76, 37
1, 62720, Note_on_c, 1, 76, 0
1, 62720, Note_on_c, 1, 74, 35
1, 62800, Note_on_c, 1, 74, 0
1, 62800, Note_on_c, 1, 76, 39
1, 62880, Note_on_c, 1, 76, 0
1, 62880, Note_on_c, 1, 74, 35
1, 63000, Note_on_c, 1, 74, 0
1, 63000, Note_on_c, 1, 72, 36
1, 63120, Note_on_c, 1, 72, 0
1, 63120, Note_on_c, 1, 76, 41
1, 63240, Note_on_c, 1, 76, 0
1, 63240, Note_on_c, 1, 74, 38
1, 63360, Note_on_c, 1, 74, 0
1, 63360, Note_on_c, 1, 68, 0
1, 63360, Note_on_c, 1, 71, 0
1, 63360, Note_on_c, 1, 65, 0
1, 63360, Note_on_c, 1, 60, 103
1, 63360, Note_on_c, 1, 55, 81
1, 63360, Note_on_c, 1, 52, 81
1, 63598, Note_on_c, 1, 52, 0
1, 63598, Note_on_c, 1, 55, 0
1, 63598, Note_on_c, 1, 60, 0
1, 63600, Note_on_c, 1, 60, 85
1, 63600, Note_on_c, 1, 64, 101
1, 63600, Note_on_c, 1, 55, 75
1, 63840, Note_on_c, 1, 43, 69
1, 63840, Note_on_c, 1, 48, 81
1, 63840, Note_on_c, 1, 40, 61
1, 64075, Note_on_c, 1, 55, 0
1, 64075, Note_on_c, 1, 60, 0
1, 64075, Note_on_c, 1, 64, 0
1, 64080, Note_on_c, 1, 60, 72
1, 64080, Note_on_c, 1, 64, 81
1, 64080, Note_on_c, 1, 67, 96
1, 64315, Note_on_c, 1, 43, 0
1, 64315, Note_on_c, 1, 40, 0
1, 64315, Note_on_c, 1, 48, 0
1, 64320, Note_on_c, 1, 40, 57
1, 64320, Note_on_c, 1, 48, 76
1, 64320, Note_on_c, 1, 43, 64
1, 64555, Note_on_c, 1, 60, 0
1, 64555, Note_on_c, 1, 67, 0
1, 64555, Note_on_c, 1, 64, 0
1, 64560, Note_on_c, 1, 64, 71
1, 64560, Note_on_c, 1, 67, 79
1, 64560, Note_on_c, 1, 72, 96
1, 64795, Note_on_c, 1, 40, 0
1, 64795, Note_on_c, 1, 43, 0
1, 64795, Note_on_c, 1, 48, 0
1, 64800, Note_on_c, 1, 43, 63
1, 64800, Note_on_c, 1, 40, 55
1, 64800, Note_on_c, 1, 48, 73
1, 65035, Note_on_c, 1, 64, 0
1, 65035, Note_on_c, 1, 72, 0
1, 65035, Note_on_c, 1, 67, 0
1, 65040, Note_on_c, 1, 67, 72
1, 65040, Note_on_c, 1, 72, 80
1, 65040, Note_on_c, 1, 76, 95
1, 65275, Note_on_c, 1, 43, 0
1, 65275, Note_on_c, 1, 48, 0
1, 65275, Note_on_c, 1, 40, 0
1, 65280, Note_on_c, 1, 40, 61
1, 65280, Note_on_c, 1, 48, 81
1, 65280, Note_on_c, 1, 43, 69
1, 65515, Note_on_c, 1, 67, 0
1, 65515, Note_on_c, 1, 76, 0
1, 65515, Note_on_c, 1, 72, 0
1, 65520, Note_on_c, 1, 72, 76
1, 65520, Note_on_c, 1, 76, 86
1, 65520, Note_on_c, 1, 79, 103
1, 65755, Note_on_c, 1, 40, 0
1, 65755, Note_on_c, 1, 43, 0
1, 65755, Note_on_c, 1, 48, 0
1, 65760, Note_on_c, 1, 43, 63
1, 65760, Note_on_c, 1, 48, 73
1, 65760, Note_on_c, 1, 40, 55
1, 65995, Note_on_c, 1, 72, 0
1, 65995, Note_on_c, 1, 79, 0
1, 65995, Note_on_c, 1, 76, 0
1, 66000, Note_on_c, 1, 76, 78
1, 66000, Note_on_c, 1, 84, 94
1, 66000, Note_on_c, 1, 79, 78
1, 66235, Note_on_c, 1, 43, 0
1, 66235, Note_on_c, 1, 40, 0
1, 66235, Note_on_c, 1, 48, 0
1, 66238, Note_on_c, 1, 76, 0
1, 66238, Note_on_c, 1, 84, 0
1, 66238, Note_on_c, 1, 79, 0
1, 66240, Note_on_c, 1, 72, 48
1, 66240, Note_on_c, 1, 67, 36
1, 66240, Note_on_c, 1, 64, 36
1, 67440, Note_on_c, 1, 72, 0
1, 67440, Note_on_c, 1, 73, 52
1, 67620, Note_on_c, 1, 73, 0
1, 67620, Note_on_c, 1, 72, 48
1, 67680, Note_on_c, 1, 72, 0
1, 67680, Note_on_c, 1, 64, 0
1, 67680, Note_on_c, 1, 67, 0
1, 67680, Note_on_c, 1, 73, 46
1, 67680, Note_on_c, 1, 67, 36
1, 67680, Note_on_c, 1, 63, 36
1, 67760, Note_on_c, 1, 73, 0
1, 67760, Note_on_c, 1, 75, 41
1, 67840, Note_on_c, 1, 75, 0
1, 67840, Note_on_c, 1, 73, 46
1, 67920, Note_on_c, 1, 73, 0
1, 67920, Note_on_c, 1, 75, 41
1, 68000, Note_on_c, 1, 75, 0
1, 68000, Note_on_c, 1, 73, 44
1, 68080, Note_on_c, 1, 73, 0
1, 68080, Note_on_c, 1, 75, 41
1, 68160, Note_on_c, 1, 75, 0
1, 68160, Note_on_c, 1, 73, 46
1, 68240, Note_on_c, 1, 73, 0
1, 68240, Note_on_c, 1, 75, 42
1, 68320, Note_on_c, 1, 75, 0
1, 68320, Note_on_c, 1, 73, 46
1, 68400, Note_on_c, 1, 73, 0
1, 68400, Note_on_c, 1, 75, 43
1, 68520, Note_on_c, 1, 75, 0
1, 68520, Note_on_c, 1, 73, 40
1, 68640, Note_on_c, 1, 73, 0
1, 68640, Note_on_c, 1, 75, 46
1, 68760, Note_on_c, 1, 75, 0
1, 68760, Note_on_c, 1, 73, 42
1, 68880, Note_on_c, 1, 73, 0
1, 68880, Note_on_c, 1, 72, 48
1, 69000, Note_on_c, 1, 72, 0
1, 69000, Note_on_c, 1, 73, 44
1, 69120, Note_on_c, 1, 73, 0
1, 69120, Note_on_c, 1, 79, 58
1, 69120, Note_on_c, 1, 82, 58
1, 69360, Note_on_c, 1, 63, 0
1, 69360, Note_on_c, 1, 67, 0
1, 69360, Note_on_c, 1, 75, 36
1, 69580, Note_on_c, 1, 75, 0
1, 69600, Note_on_c, 1, 75, 36
1, 69820, Note_on_c, 1, 75, 0
1, 69840, Note_on_c, 1, 79, 0
1, 69840, Note_on_c, 1, 82, 0
1, 69840, Note_on_c, 1, 75, 39
1, 70060, Note_on_c, 1, 75, 0
1, 70080, Note_on_c, 1, 75, 37
1, 70300, Note_on_c, 1, 75, 0
1, 70320, Note_on_c, 1, 75, 36
1, 70540, Note_on_c, 1, 75, 0
1, 70560, Note_on_c, 1, 75, 39
1, 70780, Note_on_c, 1, 75, 0
1, 70800, Note_on_c, 1, 75, 35
1, 71020, Note_on_c, 1, 75, 0
1, 71040, Note_on_c, 1, 75, 35
1, 71260, Note_on_c, 1, 75, 0
1, 71280, Note_on_c, 1, 75, 39
1, 71500, Note_on_c, 1, 75, 0
1, 71520, Note_on_c, 1, 75, 36
1, 71740, Note_on_c, 1, 75, 0
1, 71760, Note_on_c, 1, 75, 36
1, 71980, Note_on_c, 1, 75, 0
1, 72000, Note_on_c, 1, 83, 56
1, 72000, Note_on_c, 1, 80, 56
1, 72240, Note_on_c, 1, 75, 38
1, 72460, Note_on_c, 1, 75, 0
1, 72480, Note_on_c, 1, 75, 38
1, 72700, Note_on_c, 1, 75, 0
1, 72720, Note_on_c, 1, 80, 0
1, 72720, Note_on_c, 1, 83, 0
1, 72720, Note_on_c, 1, 71, 39
1, 72720, Note_on_c, 1, 68, 39
1, 72960, Note_on_c, 1, 68, 0
1, 72960, Note_on_c, 1, 71, 0
1, 72960, Note_on_c, 1, 75, 37
1, 73180, Note_on_c, 1, 75, 0
1, 73200, Note_on_c, 1, 75, 37
1, 73420, Note_on_c, 1, 75, 0
1, 73440, Note_on_c, 1, 75, 41
1, 73660, Note_on_c, 1, 75, 0
1, 73680, Note_on_c, 1, 75, 37
1, 73900, Note_on_c, 1, 75, 0
1, 73920, Note_on_c, 1, 75, 38
1, 74140, Note_on_c, 1, 75, 0
1, 74160, Note_on_c, 1, 75, 46
1, 74380, Note_on_c, 1, 75, 0
1, 74400, Note_on_c, 1, 75, 40
1, 74620, Note_on_c, 1, 75, 0
1, 74640, Note_on_c, 1, 75, 40
1, 74860, Note_on_c, 1, 75, 0
1, 74880, Note_on_c, 1, 88, 75
1, 74880, Note_on_c, 1, 80, 75
1, 74880, Note_on_c, 1, 83, 75
1, 75120, Note_on_c, 1, 75, 38
1, 75340, Note_on_c, 1, 75, 0
1, 75360, Note_on_c, 1, 75, 38
1, 75580, Note_on_c, 1, 75, 0
1, 75600, Note_on_c, 1, 68, 40
1, 75600, Note_on_c, 1, 71, 40
1, 75840, Note_on_c, 1, 71, 0
1, 75840, Note_on_c, 1, 68, 0
1, 75840, Note_on_c, 1, 75, 37
1, 76060, Note_on_c, 1, 75, 0
1, 76080, Note_on_c, 1, 75, 37
1, 76300, Note_on_c, 1, 75, 0
1, 76320, Note_on_c, 1, 68, 37
1, 76320, Note_on_c, 1, 71, 37
1, 76560, Note_on_c, 1, 71, 0
1, 76560, Note_on_c, 1, 68, 0
1, 76560, Note_on_c, 1, 75, 37
1, 76780, Note_on_c, 1, 75, 0
1, 76800, Note_on_c, 1, 75, 37
1, 77020, Note_on_c, 1, 75, 0
1, 77040, Note_on_c, 1, 68, 37
1, 77040, Note_on_c, 1, 71, 37
1, 77280, Note_on_c, 1, 71, 0
1, 77280, Note_on_c, 1, 68, 0
1, 77280, Note_on_c, 1, 75, 37
1, 77500, Note_on_c, 1, 75, 0
1, 77520, Note_on_c, 1, 75, 37
1, 77740, Note_on_c, 1, 75, 0
1, 77760, Note_on_c, 1, 88, 0
1, 77760, Note_on_c, 1, 80, 0
1, 77760, Note_on_c, 1, 83, 0
1, 77760, Note_on_c, 1, 82, 52
1, 77760, Note_on_c, 1, 87, 52
1, 77760, Note_on_c, 1, 79, 52
1, 77760, Note_on_c, 1, 67, 39
1, 77760, Note_on_c, 1, 70, 39
1, 78000, Note_on_c, 1, 70, 0
1, 78000, Note_on_c, 1, 67, 0
1, 78000, Note_on_c, 1, 63, 37
1, 78220, Note_on_c, 1, 63, 0
1, 78240, Note_on_c, 1, 79, 0
1, 78240, Note_on_c, 1, 87, 0
1, 78240, Note_on_c, 1, 82, 0
1, 78240, Note_on_c, 1, 63, 37
1, 78460, Note_on_c, 1, 63, 0
1, 78480, Note_on_c, 1, 63, 38
1, 78700, Note_on_c, 1, 63, 0
1, 78720, Note_on_c, 1, 63, 37
1, 78940, Note_on_c, 1, 63, 0
1, 78960, Note_on_c, 1, 63, 37
1, 79180, Note_on_c, 1, 63, 0
1, 79200, Note_on_c, 1, 63, 37
1, 79420, Note_on_c, 1, 63, 0
1, 79440, Note_on_c, 1, 63, 37
1, 79660, Note_on_c, 1, 63, 0
1, 79680, Note_on_c, 1, 63, 37
1, 79900, Note_on_c, 1, 63, 0
1, 79920, Note_on_c, 1, 79, 56
1, 79920, Note_on_c, 1, 82, 56
1, 79920, Note_on_c, 1, 63, 38
1, 80140, Note_on_c, 1, 63, 0
1, 80160, Note_on_c, 1, 63, 37
1, 80380, Note_on_c, 1, 63, 0
1, 80400, Note_on_c, 1, 63, 37
1, 80520, Note_on_c, 1, 82, 0
1, 80520, Note_on_c, 1, 79, 0
1, 80520, Note_on_c, 1, 82, 52
1, 80520, Note_on_c, 1, 79, 52
1, 80620, Note_on_c, 1, 63, 0
1, 80640, Note_on_c, 1, 79, 0
1, 80640, Note_on_c, 1, 82, 0
1, 80640, Note_on_c, 1, 83, 58
1, 80640, Note_on_c, 1, 80, 58
1, 80640, Note_on_c, 1, 63, 39
1, 80860, Note_on_c, 1, 63, 0
1, 80880, Note_on_c, 1, 63, 37
1, 81100, Note_on_c, 1, 63, 0
1, 81120, Note_on_c, 1, 80, 0
1, 81120, Note_on_c, 1, 83, 0
1, 81120, Note_on_c, 1, 79, 52
1, 81120, Note_on_c, 1, 82, 52
1, 81120, Note_on_c, 1, 63, 37
1, 81340, Note_on_c, 1, 63, 0
1, 81360, Note_on_c, 1, 82, 0
1, 81360, Note_on_c, 1, 79, 0
1, 81360, Note_on_c, 1, 63, 38
1, 81580, Note_on_c, 1, 63, 0
1, 81600, Note_on_c, 1, 63, 37
1, 81820, Note_on_c, 1, 63, 0
1, 81840, Note_on_c, 1, 70, 50
1, 81840, Note_on_c, 1, 67, 50
1, 81840, Note_on_c, 1, 63, 37
1, 82060, Note_on_c, 1, 63, 0
1, 82080, Note_on_c, 1, 67, 0
1, 82080, Note_on_c, 1, 70, 0
1, 82080, Note_on_c, 1, 63, 38
1, 82300, Note_on_c, 1, 63, 0
1, 82320, Note_on_c, 1, 63, 39
1, 82540, Note_on_c, 1, 63, 0
1, 82560, Note_on_c, 1, 58, 49
1, 82560, Note_on_c, 1, 55, 49
1, 82560, Note_on_c, 1, 63, 37
1, 82780, Note_on_c, 1, 63, 0
1, 82800, Note_on_c, 1, 55, 0
1, 82800, Note_on_c, 1, 58, 0
1, 82800, Note_on_c, 1, 58, 44
1, 82800, Note_on_c, 1, 61, 44
1, 83040, Note_on_c, 1, 61, 0
1, 83040, Note_on_c, 1, 58, 0
1, 83040, Note_on_c, 1, 63, 37
1, 83260, Note_on_c, 1, 63, 0
1, 83280, Note_on_c, 1, 63, 37
1, 83400, Note_on_c, 1, 79, 58
1, 83400, Note_on_c, 1, 82, 58
1, 83500, Note_on_c, 1, 63, 0
1, 83520, Note_on_c, 1, 82, 0
1, 83520, Note_on_c, 1, 79, 0
1, 83520, Note_on_c, 1, 85, 61
1, 83520, Note_on_c, 1, 82, 61
1, 83520, Note_on_c, 1, 63, 39
1, 83740, Note_on_c, 1, 63, 0
1, 83760, Note_on_c, 1, 63, 37
1, 83980, Note_on_c, 1, 63, 0
1, 84000, Note_on_c, 1, 82, 0
1, 84000, Note_on_c, 1, 85, 0
1, 84000, Note_on_c, 1, 83, 52
1, 84000, Note_on_c, 1, 80, 52
1, 84000, Note_on_c, 1, 63, 37
1, 84220, Note_on_c, 1, 63, 0
1, 84240, Note_on_c, 1, 80, 0
1, 84240, Note_on_c, 1, 83, 0
1, 84240, Note_on_c, 1, 63, 37
1, 84460, Note_on_c, 1, 63, 0
1, 84480, Note_on_c, 1, 63, 37
1, 84700, Note_on_c, 1, 63, 0
1, 84720, Note_on_c, 1, 71, 49
1, 84720, Note_on_c, 1, 68, 49
1, 84720, Note_on_c, 1, 63, 37
1, 84940, Note_on_c, 1, 63, 0
1, 84960, Note_on_c, 1, 68, 0
1, 84960, Note_on_c, 1, 71, 0
1, 84960, Note_on_c, 1, 63, 38
1, 85180, Note_on_c, 1, 63, 0
1, 85200, Note_on_c, 1, 63, 37
1, 85420, Note_on_c, 1, 63, 0
1, 85440, Note_on_c, 1, 59, 47
1, 85440, Note_on_c, 1, 56, 47
1, 85440, Note_on_c, 1, 63, 37
1, 85660, Note_on_c, 1, 63, 0
1, 85675, Note_on_c, 1, 56, 0
1, 85675, Note_on_c, 1, 59, 0
1, 85680, Note_on_c, 1, 59, 48
1, 85680, Note_on_c, 1, 56, 44
1, 85920, Note_on_c, 1, 56, 0
1, 85920, Note_on_c, 1, 59, 0
1, 85920, Note_on_c, 1, 63, 37
1, 86140, Note_on_c, 1, 63, 0
1, 86160, Note_on_c, 1, 63, 37
1, 86280, Note_on_c, 1, 80, 52
1, 86280, Note_on_c, 1, 83, 52
1, 86380, Note_on_c, 1, 63, 0
1, 86400, Note_on_c, 1, 83, 0
1, 86400, Note_on_c, 1, 80, 0
1, 86400, Note_on_c, 1, 80, 75
1, 86400, Note_on_c, 1, 88, 75
1, 86400, Note_on_c, 1, 83, 75
1, 86640, Note_on_c, 1, 63, 38
1, 86860, Note_on_c, 1, 63, 0
1, 86880, Note_on_c, 1, 63, 38
1, 87100, Note_on_c, 1, 63, 0
1, 87120, Note_on_c, 1, 56, 40
1, 87120, Note_on_c, 1, 59, 40
1, 87360, Note_on_c, 1, 59, 0
1, 87360, Note_on_c, 1, 56, 0
1, 87360, Note_on_c, 1, 63, 37
1, 87580, Note_on_c, 1, 63, 0
1, 87600, Note_on_c, 1, 63, 37
1, 87820, Note_on_c, 1, 63, 0
1, 87840, Note_on_c, 1, 59, 37
1, 87840, Note_on_c, 1, 56, 37
1, 88080, Note_on_c, 1, 56, 0
1, 88080, Note_on_c, 1, 59, 0
1, 88080, Note_on_c, 1, 63, 37
1, 88300, Note_on_c, 1, 63, 0
1, 88320, Note_on_c, 1, 63, 37
1, 88540, Note_on_c, 1, 63, 0
1, 88560, Note_on_c, 1, 59, 36
1, 88560, Note_on_c, 1, 56, 36
1, 88800, Note_on_c, 1, 56, 0
1, 88800, Note_on_c, 1, 59, 0
1, 88800, Note_on_c, 1, 63, 37
1, 89020, Note_on_c, 1, 63, 0
1, 89040, Note_on_c, 1, 63, 37
1, 89260, Note_on_c, 1, 63, 0
1, 89280, Note_on_c, 1, 80, 0
1, 89280, Note_on_c, 1, 88, 0
1, 89280, Note_on_c, 1, 83, 0
1, 89280, Note_on_c, 1, 79, 61
1, 89280, Note_on_c, 1, 87, 61
1, 89280, Note_on_c, 1, 82, 61
1, 89520, Note_on_c, 1, 63, 38
1, 89740, Note_on_c, 1, 63, 0
1, 89760, Note_on_c, 1, 79, 0
1, 89760, Note_on_c, 1, 87, 0
1, 89760, Note_on_c, 1, 82, 0
1, 89760, Note_on_c, 1, 63, 38
1, 89980, Note_on_c, 1, 63, 0
1, 90000, Note_on_c, 1, 58, 40
1, 90000, Note_on_c, 1, 55, 40
1, 90240, Note_on_c, 1, 55, 0
1, 90240, Note_on_c, 1, 58, 0
1, 90240, Note_on_c, 1, 63, 37
1, 90460, Note_on_c, 1, 63, 0
1, 90480, Note_on_c, 1, 63, 37
1, 90700, Note_on_c, 1, 63, 0
1, 90720, Note_on_c, 1, 75, 52
1, 90720, Note_on_c, 1, 66, 52
1, 90720, Note_on_c, 1, 69, 52
1, 90960, Note_on_c, 1, 63, 37
1, 91180, Note_on_c, 1, 63, 0
1, 91200, Note_on_c, 1, 63, 37
1, 91420, Note_on_c, 1, 63, 0
1, 91440, Note_on_c, 1, 54, 36
1, 91440, Note_on_c, 1, 57, 36
1, 91680, Note_on_c, 1, 57, 0
1, 91680, Note_on_c, 1, 54, 0
1, 91680, Note_on_c, 1, 63, 37
1, 91900, Note_on_c, 1, 63, 0
1, 91920, Note_on_c, 1, 63, 37
1, 92140, Note_on_c, 1, 63, 0
1, 92160, Note_on_c, 1, 75, 0
1, 92160, Note_on_c, 1, 66, 0
1, 92160, Note_on_c, 1, 69, 0
1, 92160, Note_on_c, 1, 74, 52
1, 92160, Note_on_c, 1, 65, 52
1, 92160, Note_on_c, 1, 68, 52
1, 92400, Note_on_c, 1, 63, 37
1, 92620, Note_on_c, 1, 63, 0
1, 92640, Note_on_c, 1, 74, 0
1, 92640, Note_on_c, 1, 65, 0
1, 92640, Note_on_c, 1, 68, 0
1, 92640, Note_on_c, 1, 63, 36
1, 92860, Note_on_c, 1, 63, 0
1, 92880, Note_on_c, 1, 56, 38
1, 92880, Note_on_c, 1, 53, 38
1, 93120, Note_on_c, 1, 53, 0
1, 93120, Note_on_c, 1, 56, 0
1, 93120, Note_on_c, 1, 63, 34
1, 93340, Note_on_c, 1, 63, 0
1, 93360, Note_on_c, 1, 63, 34
1, 93580, Note_on_c, 1, 63, 0
1, 93600, Note_on_c, 1, 73, 46
1, 93600, Note_on_c, 1, 64, 46
1, 93600, Note_on_c, 1, 67, 46
1, 93840, Note_on_c, 1, 63, 32
1, 94060, Note_on_c, 1, 63, 0
1, 94080, Note_on_c, 1, 73, 0
1, 94080, Note_on_c, 1, 64, 0
1, 94080, Note_on_c, 1, 67, 0
1, 94080, Note_on_c, 1, 63, 32
1, 94300, Note_on_c, 1, 63, 0
1, 94320, Note_on_c, 1, 52, 30
1, 94320, Note_on_c, 1, 55, 30
1, 94560, Note_on_c, 1, 55, 0
1, 94560, Note_on_c, 1, 52, 0
1, 94560, Note_on_c, 1, 63, 31
1, 94780, Note_on_c, 1, 63, 0
1, 94800, Note_on_c, 1, 63, 30
1, 95020, Note_on_c, 1, 63, 0
1, 95040, Note_on_c, 1, 73, 41
1, 95040, Note_on_c, 1, 63, 41
1, 95040, Note_on_c, 1, 67, 41
1, 95280, Note_on_c, 1, 51, 25
1, 95500, Note_on_c, 1, 51, 0
1, 95520, Note_on_c, 1, 51, 26
1, 95740, Note_on_c, 1, 51, 0
1, 95760, Note_on_c, 1, 67, 0
1, 95760, Note_on_c, 1, 63, 0
1, 95760, Note_on_c, 1, 73, 0
1, 95760, Note_on_c, 1, 51, 28
1, 95980, Note_on_c, 1, 51, 0
1, 96000, Note_on_c, 1, 51, 26
1, 96220, Note_on_c, 1, 51, 0
1, 96240, Note_on_c, 1, 51, 26
1, 96460, Note_on_c, 1, 51, 0
1, 96480, Note_on_c, 1, 51, 28
1, 96700, Note_on_c, 1, 51, 0
1, 96720, Note_on_c, 1, 51, 26
1, 96940, Note_on_c, 1, 51, 0
1, 96960, Note_on_c, 1, 51, 26
1, 97180, Note_on_c, 1, 51, 0
1, 97200, Note_on_c, 1, 51, 28
1, 97420, Note_on_c, 1, 51, 0
1, 97440, Note_on_c, 1, 51, 26
1, 97660, Note_on_c, 1, 51, 0
1, 97680, Note_on_c, 1, 51, 27
1, 97900, Note_on_c, 1, 51, 0
1, 97920, Note_on_c, 1, 58, 41
1, 97920, Note_on_c, 1, 61, 41
1, 97920, Note_on_c, 1, 55, 41
1, 98160, Note_on_c, 1, 39, 25
1, 98380, Note_on_c, 1, 39, 0
1, 98400, Note_on_c, 1, 39, 26
1, 98620, Note_on_c, 1, 39, 0
1, 98640, Note_on_c, 1, 55, 0
1, 98640, Note_on_c, 1, 61, 0
1, 98640, Note_on_c, 1, 58, 0
1, 98640, Note_on_c, 1, 39, 28
1, 98860, Note_on_c, 1, 39, 0
1, 98880, Note_on_c, 1, 39, 26
1, 99100, Note_on_c, 1, 39, 0
1, 99120, Note_on_c, 1, 39, 26
1, 99340, Note_on_c, 1, 39, 0
1, 99360, Note_on_c, 1, 39, 28
1, 99580, Note_on_c, 1, 39, 0
1, 99600, Note_on_c, 1, 39, 26
1, 99820, Note_on_c, 1, 39, 0
1, 99840, Note_on_c, 1, 39, 26
1, 100060, Note_on_c, 1, 39, 0
1, 100080, Note_on_c, 1, 39, 28
1, 100300, Note_on_c, 1, 39, 0
1, 100320, Note_on_c, 1, 39, 26
1, 100540, Note_on_c, 1, 39, 0
1, 100560, Note_on_c, 1, 39, 27
1, 100780, Note_on_c, 1, 39, 0
1, 100800, Note_on_c, 1, 32, 28
1, 101040, Note_on_c, 1, 32, 0
1, 101040, Note_on_c, 1, 44, 25
1, 101040, Note_on_c, 1, 36, 20
1, 101040, Note_on_c, 1, 39, 20
1, 101280, Note_on_c, 1, 39, 0
1, 101280, Note_on_c, 1, 36, 0
1, 101280, Note_on_c, 1, 44, 0
1, 101280, Note_on_c, 1, 32, 26
1, 101520, Note_on_c, 1, 32, 0
1, 101520, Note_on_c, 1, 44, 28
1, 101520, Note_on_c, 1, 36, 22
1, 101520, Note_on_c, 1, 39, 22
1, 101760, Note_on_c, 1, 39, 0
1, 101760, Note_on_c, 1, 36, 0
1, 101760, Note_on_c, 1, 44, 0
1, 101760, Note_on_c, 1, 32, 26
1, 102000, Note_on_c, 1, 32, 0
1, 102000, Note_on_c, 1, 44, 26
1, 102000, Note_on_c, 1, 36, 20
1, 102000, Note_on_c, 1, 39, 20
1, 102240, Note_on_c, 1, 39, 0
1, 102240, Note_on_c, 1, 36, 0
1, 102240, Note_on_c, 1, 44, 0
1, 102240, Note_on_c, 1, 32, 28
1, 102480, Note_on_c, 1, 32, 0
1, 102480, Note_on_c, 1, 44, 26
1, 102480, Note_on_c, 1, 39, 20
1, 102480, Note_on_c, 1, 36, 20
1, 102720, Note_on_c, 1, 36, 0
1, 102720, Note_on_c, 1, 39, 0
1, 102720, Note_on_c, 1, 44, 0
1, 102720, Note_on_c, 1, 32, 26
1, 102960, Note_on_c, 1, 32, 0
1, 102960, Note_on_c, 1, 60, 44
1, 102960, Note_on_c, 1, 36, 22
1, 102960, Note_on_c, 1, 48, 40
1, 102960, Note_on_c, 1, 44, 28
1, 102960, Note_on_c, 1, 39, 22
1, 103200, Note_on_c, 1, 39, 0
1, 103200, Note_on_c, 1, 36, 0
1, 103200, Note_on_c, 1, 44, 0
1, 103200, Note_on_c, 1, 32, 26
1, 103440, Note_on_c, 1, 32, 0
1, 103440, Note_on_c, 1, 36, 21
1, 103440, Note_on_c, 1, 39, 21
1, 103440, Note_on_c, 1, 44, 27
1, 103560, Note_on_c, 1, 48, 0
1, 103560, Note_on_c, 1, 60, 0
1, 103560, Note_on_c, 1, 63, 40
1, 103560, Note_on_c, 1, 51, 37
1, 103680, Note_on_c, 1, 51, 0
1, 103680, Note_on_c, 1, 39, 0
1, 103680, Note_on_c, 1, 44, 0
1, 103680, Note_on_c, 1, 36, 0
1, 103680, Note_on_c, 1, 63, 0
1, 103680, Note_on_c, 1, 56, 38
1, 103680, Note_on_c, 1, 68, 41
1, 103680, Note_on_c, 1, 32, 28
1, 103920, Note_on_c, 1, 32, 0
1, 103920, Note_on_c, 1, 44, 25
1, 103920, Note_on_c, 1, 36, 20
1, 103920, Note_on_c, 1, 39, 20
1, 104160, Note_on_c, 1, 39, 0
1, 104160, Note_on_c, 1, 44, 0
1, 104160, Note_on_c, 1, 36, 0
1, 104160, Note_on_c, 1, 32, 26
1, 104400, Note_on_c, 1, 32, 0
1, 104400, Note_on_c, 1, 68, 0
1, 104400, Note_on_c, 1, 56, 0
1, 104400, Note_on_c, 1, 72, 44
1, 104400, Note_on_c, 1, 60, 40
1, 104400, Note_on_c, 1, 44, 28
1, 104400, Note_on_c, 1, 36, 22
1, 104400, Note_on_c, 1, 39, 22
1, 104640, Note_on_c, 1, 39, 0
1, 104640, Note_on_c, 1, 44, 0
1, 104640, Note_on_c, 1, 36, 0
1, 104640, Note_on_c, 1, 32, 26
1, 104880, Note_on_c, 1, 32, 0
1, 104880, Note_on_c, 1, 36, 20
1, 104880, Note_on_c, 1, 39, 20
1, 104880, Note_on_c, 1, 44, 26
1, 105000, Note_on_c, 1, 60, 0
1, 105000, Note_on_c, 1, 72, 0
1, 105000, Note_on_c, 1, 56, 36
1, 105000, Note_on_c, 1, 68, 39
1, 105120, Note_on_c, 1, 68, 0
1, 105120, Note_on_c, 1, 39, 0
1, 105120, Note_on_c, 1, 44, 0
1, 105120, Note_on_c, 1, 36, 0
1, 105120, Note_on_c, 1, 56, 0
1, 105120, Note_on_c, 1, 67, 41
1, 105120, Note_on_c, 1, 55, 38
1, 105120, Note_on_c, 1, 34, 28
1, 105360, Note_on_c, 1, 34, 0
1, 105360, Note_on_c, 1, 46, 26
1, 105360, Note_on_c, 1, 39, 20
1, 105360, Note_on_c, 1, 37, 20
1, 105600, Note_on_c, 1, 37, 0
1, 105600, Note_on_c, 1, 46, 0
1, 105600, Note_on_c, 1, 39, 0
1, 105600, Note_on_c, 1, 34, 26
1, 105840, Note_on_c, 1, 34, 0
1, 105840, Note_on_c, 1, 55, 0
1, 105840, Note_on_c, 1, 67, 0
1, 105840, Note_on_c, 1, 58, 40
1, 105840, Note_on_c, 1, 70, 44
1, 105840, Note_on_c, 1, 39, 22
1, 105840, Note_on_c, 1, 46, 28
1, 105840, Note_on_c, 1, 37, 22
1, 106080, Note_on_c, 1, 37, 0
1, 106080, Note_on_c, 1, 39, 0
1, 106080, Note_on_c, 1, 46, 0
1, 106080, Note_on_c, 1, 34, 26
1, 106320, Note_on_c, 1, 34, 0
1, 106320, Note_on_c, 1, 37, 21
1, 106320, Note_on_c, 1, 46, 27
1, 106320, Note_on_c, 1, 39, 21
1, 106440, Note_on_c, 1, 70, 0
1, 106440, Note_on_c, 1, 58, 0
1, 106440, Note_on_c, 1, 55, 36
1, 106440, Note_on_c, 1, 67, 39
1, 106560, Note_on_c, 1, 67, 0
1, 106560, Note_on_c, 1, 46, 0
1, 106560, Note_on_c, 1, 39, 0
1, 106560, Note_on_c, 1, 37, 0
1, 106560, Note_on_c, 1, 55, 0
1, 106560, Note_on_c, 1, 68, 41
1, 106560, Note_on_c, 1, 56, 38
1, 106560, Note_on_c, 1, 36, 28
1, 106800, Note_on_c, 1, 36, 0
1, 106800, Note_on_c, 1, 39, 20
1, 106800, Note_on_c, 1, 44, 20
1, 106800, Note_on_c, 1, 48, 25
1, 107040, Note_on_c, 1, 48, 0
1, 107040, Note_on_c, 1, 39, 0
1, 107040, Note_on_c, 1, 44, 0
1, 107040, Note_on_c, 1, 36, 26
1, 107280, Note_on_c, 1, 36, 0
1, 107280, Note_on_c, 1, 56, 0
1, 107280, Note_on_c, 1, 68, 0
1, 107280, Note_on_c, 1, 63, 40
1, 107280, Note_on_c, 1, 39, 22
1, 107280, Note_on_c, 1, 51, 40
1, 107280, Note_on_c, 1, 44, 22
1, 107280, Note_on_c, 1, 48, 28
1, 107520, Note_on_c, 1, 48, 0
1, 107520, Note_on_c, 1, 39, 0
1, 107520, Note_on_c, 1, 44, 0
1, 107520, Note_on_c, 1, 36, 26
1, 107760, Note_on_c, 1, 36, 0
1, 107760, Note_on_c, 1, 44, 20
1, 107760, Note_on_c, 1, 48, 26
1, 107760, Note_on_c, 1, 39, 20
1, 108000, Note_on_c, 1, 39, 0
1, 108000, Note_on_c, 1, 44, 0
1, 108000, Note_on_c, 1, 48, 0
1, 108000, Note_on_c, 1, 36, 28
1, 108240, Note_on_c, 1, 36, 0
1, 108240, Note_on_c, 1, 39, 20
1, 108240, Note_on_c, 1, 44, 20
1, 108240, Note_on_c, 1, 48, 26
1, 108480, Note_on_c, 1, 48, 0
1, 108480, Note_on_c, 1, 39, 0
1, 108480, Note_on_c, 1, 44, 0
1, 108480, Note_on_c, 1, 36, 26
1, 108720, Note_on_c, 1, 36, 0
1, 108720, Note_on_c, 1, 51, 0
1, 108720, Note_on_c, 1, 63, 0
1, 108720, Note_on_c, 1, 65, 44
1, 108720, Note_on_c, 1, 53, 40
1, 108720, Note_on_c, 1, 44, 28
1, 108960, Note_on_c, 1, 44, 0
1, 108960, Note_on_c, 1, 37, 26
1, 109200, Note_on_c, 1, 37, 0
1, 109200, Note_on_c, 1, 44, 27
1, 109320, Note_on_c, 1, 53, 0
1, 109320, Note_on_c, 1, 65, 0
1, 109320, Note_on_c, 1, 61, 40
1, 109320, Note_on_c, 1, 49, 37
1, 109440, Note_on_c, 1, 49, 0
1, 109440, Note_on_c, 1, 61, 0
1, 109440, Note_on_c, 1, 44, 0
1, 109440, Note_on_c, 1, 60, 44
1, 109440, Note_on_c, 1, 48, 40
1, 109440, Note_on_c, 1, 39, 28
1, 109680, Note_on_c, 1, 39, 0
1, 109680, Note_on_c, 1, 44, 25
1, 109920, Note_on_c, 1, 44, 0
1, 109920, Note_on_c, 1, 39, 26
1, 110160, Note_on_c, 1, 39, 0
1, 110160, Note_on_c, 1, 48, 0
1, 110160, Note_on_c, 1, 60, 0
1, 110160, Note_on_c, 1, 63, 44
1, 110160, Note_on_c, 1, 44, 28
1, 110160, Note_on_c, 1, 51, 40
1, 110400, Note_on_c, 1, 44, 0
1, 110400, Note_on_c, 1, 39, 25
1, 110640, Note_on_c, 1, 39, 0
1, 110640, Note_on_c, 1, 44, 25
1, 110760, Note_on_c, 1, 51, 0
1, 110760, Note_on_c, 1, 63, 0
1, 110760, Note_on_c, 1, 60, 39
1, 110760, Note_on_c, 1, 48, 36
1, 110880, Note_on_c, 1, 48, 0
1, 110880, Note_on_c, 1, 60, 0
1, 110880, Note_on_c, 1, 44, 0
1, 110880, Note_on_c, 1, 58, 44
1, 110880, Note_on_c, 1, 46, 40
1, 110880, Note_on_c, 1, 39, 28
1, 111120, Note_on_c, 1, 39, 0
1, 111120, Note_on_c, 1, 43, 25
1, 111360, Note_on_c, 1, 43, 0
1, 111360, Note_on_c, 1, 39, 25
1, 111600, Note_on_c, 1, 39, 0
1, 111600, Note_on_c, 1, 46, 0
1, 111600, Note_on_c, 1, 58, 0
1, 111600, Note_on_c, 1, 63, 44
1, 111600, Note_on_c, 1, 51, 40
1, 111600, Note_on_c, 1, 43, 28
1, 111840, Note_on_c, 1, 43, 0
1, 111840, Note_on_c, 1, 39, 25
1, 112080, Note_on_c, 1, 39, 0
1, 112080, Note_on_c, 1, 43, 25
1, 112200, Note_on_c, 1, 51, 0
1, 112200, Note_on_c, 1, 63, 0
1, 112200, Note_on_c, 1, 61, 39
1, 112200, Note_on_c, 1, 49, 36
1, 112320, Note_on_c, 1, 49, 0
1, 112320, Note_on_c, 1, 61, 0
1, 112320, Note_on_c, 1, 43, 0
1, 112320, Note_on_c, 1, 60, 42
1, 112320, Note_on_c, 1, 44, 28
1, 112560, Note_on_c, 1, 44, 0
1, 112560, Note_on_c, 1, 56, 25
1, 112560, Note_on_c, 1, 48, 20
1, 112560, Note_on_c, 1, 51, 20
1, 112800, Note_on_c, 1, 51, 0
1, 112800, Note_on_c, 1, 48, 0
1, 112800, Note_on_c, 1, 56, 0
1, 112800, Note_on_c, 1, 44, 27
1, 113040, Note_on_c, 1, 44, 0
1, 113040, Note_on_c, 1, 60, 0
1, 113040, Note_on_c, 1, 63, 42
1, 113040, Note_on_c, 1, 56, 29
1, 113040, Note_on_c, 1, 48, 23
1, 113040, Note_on_c, 1, 51, 23
1, 113280, Note_on_c, 1, 51, 0
1, 113280, Note_on_c, 1, 48, 0
1, 113280, Note_on_c, 1, 56, 0
1, 113280, Note_on_c, 1, 44, 28
1, 113520, Note_on_c, 1, 44, 0
1, 113520, Note_on_c, 1, 56, 29
1, 113520, Note_on_c, 1, 48, 22
1, 113520, Note_on_c, 1, 51, 22
1, 113760, Note_on_c, 1, 51, 0
1, 113760, Note_on_c, 1, 48, 0
1, 113760, Note_on_c, 1, 56, 0
1, 113760, Note_on_c, 1, 44, 32
1, 114000, Note_on_c, 1, 44, 0
1, 114000, Note_on_c, 1, 56, 31
1, 114000, Note_on_c, 1, 51, 24
1, 114000, Note_on_c, 1, 48, 24
1, 114240, Note_on_c, 1, 48, 0
1, 114240, Note_on_c, 1, 51, 0
1, 114240, Note_on_c, 1, 56, 0
1, 114240, Note_on_c, 1, 44, 31
1, 114480, Note_on_c, 1, 44, 0
1, 114480, Note_on_c, 1, 63, 0
1, 114480, Note_on_c, 1, 72, 55
1, 114480, Note_on_c, 1, 48, 27
1, 114480, Note_on_c, 1, 51, 27
1, 114480, Note_on_c, 1, 56, 35
1, 114480, Note_on_c, 1, 60, 51
1, 114720, Note_on_c, 1, 56, 0
1, 114720, Note_on_c, 1, 51, 0
1, 114720, Note_on_c, 1, 48, 0
1, 114720, Note_on_c, 1, 44, 33
1, 114960, Note_on_c, 1, 44, 0
1, 114960, Note_on_c, 1, 48, 27
1, 114960, Note_on_c, 1, 51, 27
1, 114960, Note_on_c, 1, 56, 34
1, 115080, Note_on_c, 1, 72, 0
1, 115080, Note_on_c, 1, 60, 0
1, 115080, Note_on_c, 1, 75, 53
1, 115080, Note_on_c, 1, 63, 49
1, 115200, Note_on_c, 1, 63, 0
1, 115200, Note_on_c, 1, 51, 0
1, 115200, Note_on_c, 1, 56, 0
1, 115200, Note_on_c, 1, 48, 0
1, 115200, Note_on_c, 1, 75, 0
1, 115200, Note_on_c, 1, 80, 56
1, 115200, Note_on_c, 1, 68, 51
1, 115200, Note_on_c, 1, 44, 37
1, 115440, Note_on_c, 1, 44, 0
1, 115440, Note_on_c, 1, 56, 34
1, 115440, Note_on_c, 1, 51, 27
1, 115440, Note_on_c, 1, 48, 27
1, 115680, Note_on_c, 1, 48, 0
1, 115680, Note_on_c, 1, 56, 0
1, 115680, Note_on_c, 1, 51, 0
1, 115680, Note_on_c, 1, 44, 36
1, 115920, Note_on_c, 1, 44, 0
1, 115920, Note_on_c, 1, 68, 0
1, 115920, Note_on_c, 1, 80, 0
1, 115920, Note_on_c, 1, 72, 57
1, 115920, Note_on_c, 1, 84, 62
1, 115920, Note_on_c, 1, 56, 39
1, 115920, Note_on_c, 1, 51, 30
1, 115920, Note_on_c, 1, 48, 30
1, 116160, Note_on_c, 1, 48, 0
1, 116160, Note_on_c, 1, 56, 0
1, 116160, Note_on_c, 1, 51, 0
1, 116160, Note_on_c, 1, 44, 37
1, 116400, Note_on_c, 1, 44, 0
1, 116400, Note_on_c, 1, 48, 29
1, 116400, Note_on_c, 1, 56, 38
1, 116400, Note_on_c, 1, 51, 29
1, 116520, Note_on_c, 1, 84, 0
1, 116520, Note_on_c, 1, 72, 0
1, 116520, Note_on_c, 1, 80, 58
1, 116520, Note_on_c, 1, 68, 53
1, 116640, Note_on_c, 1, 68, 0
1, 116640, Note_on_c, 1, 56, 0
1, 116640, Note_on_c, 1, 51, 0
1, 116640, Note_on_c, 1, 48, 0
1, 116640, Note_on_c, 1, 80, 0
1, 116640, Note_on_c, 1, 67, 57
1, 116640, Note_on_c, 1, 79, 61
1, 116640, Note_on_c, 1, 46, 40
1, 116880, Note_on_c, 1, 46, 0
1, 116880, Note_on_c, 1, 58, 38
1, 116880, Note_on_c, 1, 51, 29
1, 116880, Note_on_c, 1, 49, 29
1, 117120, Note_on_c, 1, 49, 0
1, 117120, Note_on_c, 1, 58, 0
1, 117120, Note_on_c, 1, 51, 0
1, 117120, Note_on_c, 1, 46, 39
1, 117360, Note_on_c, 1, 46, 0
1, 117360, Note_on_c, 1, 79, 0
1, 117360, Note_on_c, 1, 67, 0
1, 117360, Note_on_c, 1, 70, 62
1, 117360, Note_on_c, 1, 82, 68
1, 117360, Note_on_c, 1, 51, 34
1, 117360, Note_on_c, 1, 58, 42
1, 117360, Note_on_c, 1, 49, 34
1, 117600, Note_on_c, 1, 49, 0
1, 117600, Note_on_c, 1, 51, 0
1, 117600, Note_on_c, 1, 58, 0
1, 117600, Note_on_c, 1, 46, 40
1, 117840, Note_on_c, 1, 46, 0
1, 117840, Note_on_c, 1, 49, 33
1, 117840, Note_on_c, 1, 58, 42
1, 117840, Note_on_c, 1, 51, 33
1, 117960, Note_on_c, 1, 82, 0
1, 117960, Note_on_c, 1, 70, 0
1, 117960, Note_on_c, 1, 79, 63
1, 117960, Note_on_c, 1, 67, 58
1, 118080, Note_on_c, 1, 67, 0
1, 118080, Note_on_c, 1, 58, 0
1, 118080, Note_on_c, 1, 51, 0
1, 118080, Note_on_c, 1, 49, 0
1, 118080, Note_on_c, 1, 79, 0
1, 118080, Note_on_c, 1, 68, 51
1, 118080, Note_on_c, 1, 80, 57
1, 118080, Note_on_c, 1, 60, 36
1, 118080, Note_on_c, 1, 51, 28
1, 118080, Note_on_c, 1, 48, 28
1, 118080, Note_on_c, 1, 56, 36
1, 118800, Note_on_c, 1, 80, 0
1, 118800, Note_on_c, 1, 68, 0
1, 118800, Note_on_c, 1, 63, 45
1, 118800, Note_on_c, 1, 75, 52
1, 120960, Note_on_c, 1, 75, 0
1, 120960, Note_on_c, 1, 56, 0
1, 120960, Note_on_c, 1, 60, 0
1, 120960, Note_on_c, 1, 51, 0
1, 120960, Note_on_c, 1, 63, 0
1, 120960, Note_on_c, 1, 48, 0
1, 120960, Note_on_c, 1, 76, 85
1, 120960, Note_on_c, 1, 64, 72
1, 120960, Note_on_c, 1, 56, 59
1, 120960, Note_on_c, 1, 49, 50
1, 120960, Note_on_c, 1, 52, 50
1, 121680, Note_on_c, 1, 56, 0
1, 121680, Note_on_c, 1, 76, 0
1, 121680, Note_on_c, 1, 64, 0
1, 121680, Note_on_c, 1, 61, 69
1, 121680, Note_on_c, 1, 73, 81
1, 121680, Note_on_c, 1, 57, 57
1, 123840, Note_on_c, 1, 57, 0
1, 123840, Note_on_c, 1, 61, 0
1, 123840, Note_on_c, 1, 52, 0
1, 123840, Note_on_c, 1, 49, 0
1, 123840, Note_on_c, 1, 73, 0
1, 123840, Note_on_c, 1, 71, 58
1, 123840, Note_on_c, 1, 56, 36
1, 123840, Note_on_c, 1, 51, 28
1, 123840, Note_on_c, 1, 59, 36
1, 126000, Note_on_c, 1, 71, 0
1, 126000, Note_on_c, 1, 70, 51
1, 126480, Note_on_c, 1, 70, 0
1, 126480, Note_on_c, 1, 68, 49
1, 126660, Note_on_c, 1, 68, 0
1, 126660, Note_on_c, 1, 69, 38
1, 126720, Note_on_c, 1, 69, 0
1, 126720, Note_on_c, 1, 59, 0
1, 126720, Note_on_c, 1, 51, 0
1, 126720, Note_on_c, 1, 56, 0
1, 126720, Note_on_c, 1, 70, 44
1, 126720, Note_on_c, 1, 55, 31
1, 126720, Note_on_c, 1, 61, 31
1, 126720, Note_on_c, 1, 51, 25
1, 126840, Note_on_c, 1, 70, 0
1, 126840, Note_on_c, 1, 71, 38
1, 126960, Note_on_c, 1, 71, 0
1, 126960, Note_on_c, 1, 70, 46
1, 127080, Note_on_c, 1, 70, 0
1, 127080, Note_on_c, 1, 71, 40
1, 127200, Note_on_c, 1, 71, 0
1, 127200, Note_on_c, 1, 70, 47
1, 127320, Note_on_c, 1, 70, 0
1, 127320, Note_on_c, 1, 71, 40
1, 127440, Note_on_c, 1, 71, 0
1, 127440, Note_on_c, 1, 70, 48
1, 127560, Note_on_c, 1, 70, 0
1, 127560, Note_on_c, 1, 71, 41
1, 127680, Note_on_c, 1, 71, 0
1, 127680, Note_on_c, 1, 70, 49
1, 127800, Note_on_c, 1, 70, 0
1, 127800, Note_on_c, 1, 71, 42
1, 127920, Note_on_c, 1, 71, 0
1, 127920, Note_on_c, 1, 70, 50
1, 128040, Note_on_c, 1, 70, 0
1, 128040, Note_on_c, 1, 71, 42
1, 128160, Note_on_c, 1, 71, 0
1, 128160, Note_on_c, 1, 70, 51
1, 128280, Note_on_c, 1, 70, 0
1, 128280, Note_on_c, 1, 71, 44
1, 128400, Note_on_c, 1, 71, 0
1, 128400, Note_on_c, 1, 70, 51
1, 128520, Note_on_c, 1, 70, 0
1, 128520, Note_on_c, 1, 71, 45
1, 128640, Note_on_c, 1, 71, 0
1, 128640, Note_on_c, 1, 70, 52
1, 128760, Note_on_c, 1, 70, 0
1, 128760, Note_on_c, 1, 71, 46
1, 128880, Note_on_c, 1, 71, 0
1, 128880, Note_on_c, 1, 70, 53
1, 129000, Note_on_c, 1, 70, 0
1, 129000, Note_on_c, 1, 71, 48
1, 129120, Note_on_c, 1, 71, 0
1, 129120, Note_on_c, 1, 70, 55
1, 129240, Note_on_c, 1, 70, 0
1, 129240, Note_on_c, 1, 71, 48
1, 129360, Note_on_c, 1, 71, 0
1, 129360, Note_on_c, 1, 70, 56
1, 129480, Note_on_c, 1, 70, 0
1, 129480, Note_on_c, 1, 71, 48
1, 129600, Note_on_c, 1, 71, 0
1, 129600, Note_on_c, 1, 51, 0
1, 129600, Note_on_c, 1, 61, 0
1, 129600, Note_on_c, 1, 55, 0
1, 129600, Note_on_c, 1, 76, 46
1, 129720, Note_on_c, 1, 76, 0
1, 129720, Note_on_c, 1, 75, 39
1, 129840, Note_on_c, 1, 75, 0
1, 129840, Note_on_c, 1, 76, 46
1, 129960, Note_on_c, 1, 76, 0
1, 129960, Note_on_c, 1, 75, 40
1, 130080, Note_on_c, 1, 75, 0
1, 130080, Note_on_c, 1, 76, 48
1, 130200, Note_on_c, 1, 76, 0
1, 130200, Note_on_c, 1, 75, 41
1, 130320, Note_on_c, 1, 75, 0
1, 130320, Note_on_c, 1, 76, 50
1, 130440, Note_on_c, 1, 76, 0
1, 130440, Note_on_c, 1, 75, 44
1, 130560, Note_on_c, 1, 75, 0
1, 130560, Note_on_c, 1, 76, 51
1, 130680, Note_on_c, 1, 76, 0
1, 130680, Note_on_c, 1, 75, 45
1, 130800, Note_on_c, 1, 75, 0
1, 130800, Note_on_c, 1, 76, 53
1, 130920, Note_on_c, 1, 76, 0
1, 130920, Note_on_c, 1, 75, 47
1, 131040, Note_on_c, 1, 75, 0
1, 131040, Note_on_c, 1, 76, 56
1, 131160, Note_on_c, 1, 76, 0
1, 131160, Note_on_c, 1, 75, 48
1, 131280, Note_on_c, 1, 75, 0
1, 131280, Note_on_c, 1, 76, 56
1, 131400, Note_on_c, 1, 76, 0
1, 131400, Note_on_c, 1, 75, 47
1, 131520, Note_on_c, 1, 75, 0
1, 131520, Note_on_c, 1, 76, 56
1, 131640, Note_on_c, 1, 76, 0
1, 131640, Note_on_c, 1, 75, 48
1, 131760, Note_on_c, 1, 75, 0
1, 131760, Note_on_c, 1, 76, 56
1, 131880, Note_on_c, 1, 76, 0
1, 131880, Note_on_c, 1, 75, 49
1, 132000, Note_on_c, 1, 75, 0
1, 132000, Note_on_c, 1, 76, 56
1, 132120, Note_on_c, 1, 76, 0
1, 132120, Note_on_c, 1, 75, 49
1, 132240, Note_on_c, 1, 75, 0
1, 132240, Note_on_c, 1, 74, 56
1, 132360, Note_on_c, 1, 74, 0
1, 132360, Note_on_c, 1, 75, 48
1, 132480, Note_on_c, 1, 75, 0
1, 132480, Note_on_c, 1, 88, 55
1, 132600, Note_on_c, 1, 88, 0
1, 132600, Note_on_c, 1, 87, 46
1, 132720, Note_on_c, 1, 87, 0
1, 132720, Note_on_c, 1, 88, 55
1, 132840, Note_on_c, 1, 88, 0
1, 132840, Note_on_c, 1, 87, 48
1, 132960, Note_on_c, 1, 87, 0
1, 132960, Note_on_c, 1, 88, 57
1, 133080, Note_on_c, 1, 88, 0
1, 133080, Note_on_c, 1, 87, 50
1, 133200, Note_on_c, 1, 87, 0
1, 133200, Note_on_c, 1, 88, 60
1, 133320, Note_on_c, 1, 88, 0
1, 133320, Note_on_c, 1, 87, 51
1, 133440, Note_on_c, 1, 87, 0
1, 133440, Note_on_c, 1, 88, 62
1, 133560, Note_on_c, 1, 88, 0
1, 133560, Note_on_c, 1, 87, 52
1, 133680, Note_on_c, 1, 87, 0
1, 133680, Note_on_c, 1, 88, 63
1, 133800, Note_on_c, 1, 88, 0
1, 133800, Note_on_c, 1, 87, 55
1, 133920, Note_on_c, 1, 87, 0
1, 133920, Note_on_c, 1, 88, 67
1, 134040, Note_on_c, 1, 88, 0
1, 134040, Note_on_c, 1, 87, 56
1, 134160, Note_on_c, 1, 87, 0
1, 134160, Note_on_c, 1, 88, 68
1, 134280, Note_on_c, 1, 88, 0
1, 134280, Note_on_c, 1, 87, 57
1, 134400, Note_on_c, 1, 87, 0
1, 134400, Note_on_c, 1, 88, 67
1, 134520, Note_on_c, 1, 88, 0
1, 134520, Note_on_c, 1, 87, 56
1, 134640, Note_on_c, 1, 87, 0
1, 134640, Note_on_c, 1, 88, 67
1, 134760, Note_on_c, 1, 88, 0
1, 134760, Note_on_c, 1, 87, 58
1, 134880, Note_on_c, 1, 87, 0
1, 134880, Note_on_c, 1, 88, 67
1, 135000, Note_on_c, 1, 88, 0
1, 135000, Note_on_c, 1, 87, 58
1, 135120, Note_on_c, 1, 87, 0
1, 135120, Note_on_c, 1, 86, 67
1, 135240, Note_on_c, 1, 86, 0
1, 135240, Note_on_c, 1, 87, 56
1, 135360, Note_on_c, 1, 87, 0
1, 135360, Note_on_c, 1, 88, 64
1, 135600, Note_on_c, 1, 88, 0
1, 135600, Note_on_c, 1, 87, 55
1, 135840, Note_on_c, 1, 87, 0
1, 135840, Note_on_c, 1, 85, 48
1, 136080, Note_on_c, 1, 85, 0
1, 136080, Note_on_c, 1, 83, 49
1, 136320, Note_on_c, 1, 83, 0
1, 136320, Note_on_c, 1, 82, 48
1, 136560, Note_on_c, 1, 82, 0
1, 136560, Note_on_c, 1, 80, 48
1, 136800, Note_on_c, 1, 80, 0
1, 136800, Note_on_c, 1, 79, 49
1, 137040, Note_on_c, 1, 79, 0
1, 137040, Note_on_c, 1, 78, 47
1, 137280, Note_on_c, 1, 78, 0
1, 137280, Note_on_c, 1, 76, 47
1, 137520, Note_on_c, 1, 76, 0
1, 137520, Note_on_c, 1, 75, 48
1, 137760, Note_on_c, 1, 75, 0
1, 137760, Note_on_c, 1, 73, 48
1, 138000, Note_on_c, 1, 73, 0
1, 138000, Note_on_c, 1, 71, 45
1, 138240, Note_on_c, 1, 71, 0
1, 138240, Note_on_c, 1, 70, 48
1, 138480, Note_on_c, 1, 70, 0
1, 138480, Note_on_c, 1, 68, 44
1, 138720, Note_on_c, 1, 68, 0
1, 138720, Note_on_c, 1, 67, 44
1, 138960, Note_on_c, 1, 67, 0
1, 138960, Note_on_c, 1, 66, 45
1, 139200, Note_on_c, 1, 66, 0
1, 139200, Note_on_c, 1, 64, 45
1, 139440, Note_on_c, 1, 64, 0
1, 139440, Note_on_c, 1, 63, 45
1, 139680, Note_on_c, 1, 63, 0
1, 139680, Note_on_c, 1, 61, 45
1, 139920, Note_on_c, 1, 61, 0
1, 139920, Note_on_c, 1, 59, 44
1, 140160, Note_on_c, 1, 59, 0
1, 140160, Note_on_c, 1, 58, 42
1, 140400, Note_on_c, 1, 58, 0
1, 140400, Note_on_c, 1, 56, 42
1, 140640, Note_on_c, 1, 56, 0
1, 140640, Note_on_c, 1, 55, 41
1, 140880, Note_on_c, 1, 55, 0
1, 140880, Note_on_c, 1, 54, 39
1, 141120, Note_on_c, 1, 54, 0
1, 141120, Note_on_c, 1, 52, 42
1, 141360, Note_on_c, 1, 52, 0
1, 141360, Note_on_c, 1, 51, 41
1, 141600, Note_on_c, 1, 51, 0
1, 141600, Note_on_c, 1, 49, 41
1, 141840, Note_on_c, 1, 49, 0
1, 141840, Note_on_c, 1, 47, 40
1, 142080, Note_on_c, 1, 47, 0
1, 142080, Note_on_c, 1, 46, 39
1, 142320, Note_on_c, 1, 46, 0
1, 142320, Note_on_c, 1, 44, 39
1, 142560, Note_on_c, 1, 44, 0
1, 142560, Note_on_c, 1, 43, 42
1, 142800, Note_on_c, 1, 43, 0
1, 142800, Note_on_c, 1, 42, 41
1, 143040, Note_on_c, 1, 42, 0
1, 143040, Note_on_c, 1, 41, 41
1, 143280, Note_on_c, 1, 41, 0
1, 143280, Note_on_c, 1, 39, 41
1, 143520, Note_on_c, 1, 39, 0
1, 143520, Note_on_c, 1, 37, 41
1, 143760, Note_on_c, 1, 37, 0
1, 143760, Note_on_c, 1, 35, 41
1, 144000, Note_on_c, 1, 35, 0
1, 144000, Note_on_c, 1, 34, 42
1, 144240, Note_on_c, 1, 34, 0
1, 144240, Note_on_c, 1, 35, 42
1, 144480, Note_on_c, 1, 35, 0
1, 144480, Note_on_c, 1, 37, 42
1, 144720, Note_on_c, 1, 37, 0
1, 144720, Note_on_c, 1, 39, 42
1, 144960, Note_on_c, 1, 39, 0
1, 144960, Note_on_c, 1, 40, 41
1, 145200, Note_on_c, 1, 40, 0
1, 145200, Note_on_c, 1, 39, 39
1, 145440, Note_on_c, 1, 39, 0
1, 145440, Note_on_c, 1, 37, 42
1, 145680, Note_on_c, 1, 37, 0
1, 145680, Note_on_c, 1, 35, 40
1, 145920, Note_on_c, 1, 35, 0
1, 145920, Note_on_c, 1, 34, 40
1, 146160, Note_on_c, 1, 34, 0
1, 146160, Note_on_c, 1, 39, 45
1, 146400, Note_on_c, 1, 39, 0
1, 146400, Note_on_c, 1, 37, 42
1, 146640, Note_on_c, 1, 37, 0
1, 146640, Note_on_c, 1, 39, 40
1, 146880, Note_on_c, 1, 39, 0
1, 146880, Note_on_c, 1, 56, 83
1, 146880, Note_on_c, 1, 32, 64
1, 147000, Note_on_c, 1, 32, 0
1, 147000, Note_on_c, 1, 56, 0
1, 147000, Note_on_c, 1, 51, 66
1, 147000, Note_on_c, 1, 39, 52
1, 147120, Note_on_c, 1, 39, 0
1, 147120, Note_on_c, 1, 51, 0
1, 147120, Note_on_c, 1, 47, 66
1, 147120, Note_on_c, 1, 44, 52
1, 147240, Note_on_c, 1, 44, 0
1, 147240, Note_on_c, 1, 47, 0
1, 147240, Note_on_c, 1, 51, 66
1, 147240, Note_on_c, 1, 39, 52
1, 147360, Note_on_c, 1, 39, 0
1, 147360, Note_on_c, 1, 51, 0
1, 147360, Note_on_c, 1, 56, 80
1, 147360, Note_on_c, 1, 32, 58
1, 147480, Note_on_c, 1, 32, 0
1, 147480, Note_on_c, 1, 56, 0
1, 147480, Note_on_c, 1, 51, 64
1, 147480, Note_on_c, 1, 39, 51
1, 147600, Note_on_c, 1, 39, 0
1, 147600, Note_on_c, 1, 51, 0
1, 147600, Note_on_c, 1, 59, 84
1, 147600, Note_on_c, 1, 32, 68
1, 147720, Note_on_c, 1, 32, 0
1, 147720, Note_on_c, 1, 59, 0
1, 147720, Note_on_c, 1, 51, 66
1, 147720, Note_on_c, 1, 39, 52
1, 147840, Note_on_c, 1, 39, 0
1, 147840, Note_on_c, 1, 51, 0
1, 147840, Note_on_c, 1, 58, 83
1, 147840, Note_on_c, 1, 32, 64
1, 147960, Note_on_c, 1, 32, 0
1, 147960, Note_on_c, 1, 58, 0
1, 147960, Note_on_c, 1, 51, 66
1, 147960, Note_on_c, 1, 39, 52
1, 148080, Note_on_c, 1, 39, 0
1, 148080, Note_on_c, 1, 51, 0
1, 148080, Note_on_c, 1, 56, 81
1, 148080, Note_on_c, 1, 32, 62
1, 148200, Note_on_c, 1, 32, 0
1, 148200, Note_on_c, 1, 56, 0
1, 148200, Note_on_c, 1, 51, 66
1, 148200, Note_on_c, 1, 39, 52
1, 148320, Note_on_c, 1, 39, 0
1, 148320, Note_on_c, 1, 51, 0
1, 148320, Note_on_c, 1, 56, 83
1, 148320, Note_on_c, 1, 32, 64
1, 148440, Note_on_c, 1, 32, 0
1, 148440, Note_on_c, 1, 56, 0
1, 148440, Note_on_c, 1, 51, 63
1, 148440, Note_on_c, 1, 39, 52
1, 148560, Note_on_c, 1, 39, 0
1, 148560, Note_on_c, 1, 51, 0
1, 148560, Note_on_c, 1, 47, 63
1, 148560, Note_on_c, 1, 44, 52
1, 148680, Note_on_c, 1, 44, 0
1, 148680, Note_on_c, 1, 47, 0
1, 148680, Note_on_c, 1, 51, 63
1, 148680, Note_on_c, 1, 39, 52
1, 148800, Note_on_c, 1, 39, 0
1, 148800, Note_on_c, 1, 51, 0
1, 148800, Note_on_c, 1, 56, 79
1, 148800, Note_on_c, 1, 32, 58
1, 148920, Note_on_c, 1, 32, 0
1, 148920, Note_on_c, 1, 56, 0
1, 148920, Note_on_c, 1, 51, 62
1, 148920, Note_on_c, 1, 39, 51
1, 149040, Note_on_c, 1, 39, 0
1, 149040, Note_on_c, 1, 51, 0
1, 149040, Note_on_c, 1, 59, 83
1, 149040, Note_on_c, 1, 32, 68
1, 149160, Note_on_c, 1, 32, 0
1, 149160, Note_on_c, 1, 59, 0
1, 149160, Note_on_c, 1, 51, 63
1, 149160, Note_on_c, 1, 39, 52
1, 149280, Note_on_c, 1, 39, 0
1, 149280, Note_on_c, 1, 51, 0
1, 149280, Note_on_c, 1, 58, 80
1, 149280, Note_on_c, 1, 32, 64
1, 149400, Note_on_c, 1, 32, 0
1, 149400, Note_on_c, 1, 58, 0
1, 149400, Note_on_c, 1, 51, 66
1, 149400, Note_on_c, 1, 39, 52
1, 149520, Note_on_c, 1, 39, 0
1, 149520, Note_on_c, 1, 51, 0
1, 149520, Note_on_c, 1, 56, 80
1, 149520, Note_on_c, 1, 32, 62
1, 149640, Note_on_c, 1, 32, 0
1, 149640, Note_on_c, 1, 56, 0
1, 149640, Note_on_c, 1, 51, 64
1, 149640, Note_on_c, 1, 39, 52
1, 149760, Note_on_c, 1, 39, 0
1, 149760, Note_on_c, 1, 51, 0
1, 149760, Note_on_c, 1, 64, 83
1, 149760, Note_on_c, 1, 32, 64
1, 149880, Note_on_c, 1, 32, 0
1, 149880, Note_on_c, 1, 64, 0
1, 149880, Note_on_c, 1, 59, 66
1, 149880, Note_on_c, 1, 40, 52
1, 150000, Note_on_c, 1, 40, 0
1, 150000, Note_on_c, 1, 59, 0
1, 150000, Note_on_c, 1, 56, 66
1, 150000, Note_on_c, 1, 44, 52
1, 150120, Note_on_c, 1, 44, 0
1, 150120, Note_on_c, 1, 56, 0
1, 150120, Note_on_c, 1, 59, 66
1, 150120, Note_on_c, 1, 40, 52
1, 150240, Note_on_c, 1, 40, 0
1, 150240, Note_on_c, 1, 59, 0
1, 150240, Note_on_c, 1, 64, 80
1, 150240, Note_on_c, 1, 32, 58
1, 150360, Note_on_c, 1, 32, 0
1, 150360, Note_on_c, 1, 64, 0
1, 150360, Note_on_c, 1, 59, 64
1, 150360, Note_on_c, 1, 40, 51
1, 150480, Note_on_c, 1, 40, 0
1, 150480, Note_on_c, 1, 59, 0
1, 150480, Note_on_c, 1, 68, 84
1, 150480, Note_on_c, 1, 32, 68
1, 150600, Note_on_c, 1, 32, 0
1, 150600, Note_on_c, 1, 68, 0
1, 150600, Note_on_c, 1, 59, 66
1, 150600, Note_on_c, 1, 40, 52
1, 150720, Note_on_c, 1, 40, 0
1, 150720, Note_on_c, 1, 59, 0
1, 150720, Note_on_c, 1, 66, 83
1, 150720, Note_on_c, 1, 32, 64
1, 150840, Note_on_c, 1, 32, 0
1, 150840, Note_on_c, 1, 66, 0
1, 150840, Note_on_c, 1, 59, 66
1, 150840, Note_on_c, 1, 40, 52
1, 150960, Note_on_c, 1, 40, 0
1, 150960, Note_on_c, 1, 59, 0
1, 150960, Note_on_c, 1, 64, 81
1, 150960, Note_on_c, 1, 32, 62
1, 151080, Note_on_c, 1, 32, 0
1, 151080, Note_on_c, 1, 64, 0
1, 151080, Note_on_c, 1, 59, 66
1, 151080, Note_on_c, 1, 40, 52
1, 151200, Note_on_c, 1, 40, 0
1, 151200, Note_on_c, 1, 59, 0
1, 151200, Note_on_c, 1, 64, 83
1, 151200, Note_on_c, 1, 32, 64
1, 151320, Note_on_c, 1, 32, 0
1, 151320, Note_on_c, 1, 64, 0
1, 151320, Note_on_c, 1, 59, 63
1, 151320, Note_on_c, 1, 40, 52
1, 151440, Note_on_c, 1, 40, 0
1, 151440, Note_on_c, 1, 59, 0
1, 151440, Note_on_c, 1, 56, 63
1, 151440, Note_on_c, 1, 44, 52
1, 151560, Note_on_c, 1, 44, 0
1, 151560, Note_on_c, 1, 56, 0
1, 151560, Note_on_c, 1, 59, 63
1, 151560, Note_on_c, 1, 40, 52
1, 151680, Note_on_c, 1, 40, 0
1, 151680, Note_on_c, 1, 59, 0
1, 151680, Note_on_c, 1, 64, 80
1, 151680, Note_on_c, 1, 32, 58
1, 151800, Note_on_c, 1, 32, 0
1, 151800, Note_on_c, 1, 64, 0
1, 151800, Note_on_c, 1, 59, 62
1, 151800, Note_on_c, 1, 40, 51
1, 151920, Note_on_c, 1, 40, 0
1, 151920, Note_on_c, 1, 59, 0
1, 151920, Note_on_c, 1, 68, 83
1, 151920, Note_on_c, 1, 32, 68
1, 152040, Note_on_c, 1, 32, 0
1, 152040, Note_on_c, 1, 68, 0
1, 152040, Note_on_c, 1, 59, 63
1, 152040, Note_on_c, 1, 40, 52
1, 152160, Note_on_c, 1, 40, 0
1, 152160, Note_on_c, 1, 59, 0
1, 152160, Note_on_c, 1, 66, 80
1, 152160, Note_on_c, 1, 32, 64
1, 152280, Note_on_c, 1, 32, 0
1, 152280, Note_on_c, 1, 66, 0
1, 152280, Note_on_c, 1, 59, 66
1, 152280, Note_on_c, 1, 40, 52
1, 152400, Note_on_c, 1, 40, 0
1, 152400, Note_on_c, 1, 59, 0
1, 152400, Note_on_c, 1, 64, 80
1, 152400, Note_on_c, 1, 32, 62
1, 152520, Note_on_c, 1, 32, 0
1, 152520, Note_on_c, 1, 64, 0
1, 152520, Note_on_c, 1, 59, 64
1, 152520, Note_on_c, 1, 40, 52
1, 152640, Note_on_c, 1, 40, 0
1, 152640, Note_on_c, 1, 59, 0
1, 152640, Note_on_c, 1, 73, 92
1, 152640, Note_on_c, 1, 33, 90
1, 152640, Note_on_c, 1, 45, 106
1, 152760, Note_on_c, 1, 73, 0
1, 152760, Note_on_c, 1, 76, 67
1, 152880, Note_on_c, 1, 76, 0
1, 152880, Note_on_c, 1, 73, 77
1, 153000, Note_on_c, 1, 73, 0
1, 153000, Note_on_c, 1, 76, 67
1, 153120, Note_on_c, 1, 76, 0
1, 153120, Note_on_c, 1, 73, 74
1, 153240, Note_on_c, 1, 73, 0
1, 153240, Note_on_c, 1, 76, 67
1, 153360, Note_on_c, 1, 76, 0
1, 153360, Note_on_c, 1, 73, 73
1, 153480, Note_on_c, 1, 73, 0
1, 153480, Note_on_c, 1, 76, 67
1, 153600, Note_on_c, 1, 76, 0
1, 153600, Note_on_c, 1, 73, 73
1, 153720, Note_on_c, 1, 73, 0
1, 153720, Note_on_c, 1, 76, 67
1, 153840, Note_on_c, 1, 76, 0
1, 153840, Note_on_c, 1, 73, 73
1, 153960, Note_on_c, 1, 73, 0
1, 153960, Note_on_c, 1, 76, 67
1, 154080, Note_on_c, 1, 76, 0
1, 154080, Note_on_c, 1, 73, 73
1, 154200, Note_on_c, 1, 73, 0
1, 154200, Note_on_c, 1, 76, 67
1, 154320, Note_on_c, 1, 76, 0
1, 154320, Note_on_c, 1, 73, 73
1, 154440, Note_on_c, 1, 73, 0
1, 154440, Note_on_c, 1, 76, 67
1, 154560, Note_on_c, 1, 76, 0
1, 154560, Note_on_c, 1, 73, 72
1, 154680, Note_on_c, 1, 73, 0
1, 154680, Note_on_c, 1, 76, 67
1, 154800, Note_on_c, 1, 76, 0
1, 154800, Note_on_c, 1, 45, 0
1, 154800, Note_on_c, 1, 33, 0
1, 154800, Note_on_c, 1, 73, 95
1, 154800, Note_on_c, 1, 46, 88
1, 154800, Note_on_c, 1, 34, 74
1, 154920, Note_on_c, 1, 73, 0
1, 154920, Note_on_c, 1, 76, 78
1, 155040, Note_on_c, 1, 76, 0
1, 155040, Note_on_c, 1, 34, 0
1, 155040, Note_on_c, 1, 46, 0
1, 155040, Note_on_c, 1, 70, 89
1, 155040, Note_on_c, 1, 37, 72
1, 155160, Note_on_c, 1, 70, 0
1, 155160, Note_on_c, 1, 73, 78
1, 155280, Note_on_c, 1, 73, 0
1, 155280, Note_on_c, 1, 37, 0
1, 155280, Note_on_c, 1, 67, 84
1, 155280, Note_on_c, 1, 40, 82
1, 155400, Note_on_c, 1, 67, 0
1, 155400, Note_on_c, 1, 70, 77
1, 155520, Note_on_c, 1, 70, 0
1, 155520, Note_on_c, 1, 40, 0
1, 155520, Note_on_c, 1, 64, 82
1, 155520, Note_on_c, 1, 43, 95
1, 155640, Note_on_c, 1, 64, 0
1, 155640, Note_on_c, 1, 67, 70
1, 155760, Note_on_c, 1, 67, 0
1, 155760, Note_on_c, 1, 43, 0
1, 155760, Note_on_c, 1, 61, 81
1, 155760, Note_on_c, 1, 46, 82
1, 155880, Note_on_c, 1, 61, 0
1, 155880, Note_on_c, 1, 64, 71
1, 156000, Note_on_c, 1, 64, 0
1, 156000, Note_on_c, 1, 46, 0
1, 156000, Note_on_c, 1, 58, 82
1, 156000, Note_on_c, 1, 49, 82
1, 156120, Note_on_c, 1, 58, 0
1, 156120, Note_on_c, 1, 61, 68
1, 156240, Note_on_c, 1, 61, 0
1, 156240, Note_on_c, 1, 49, 0
1, 156240, Note_on_c, 1, 56, 81
1, 156240, Note_on_c, 1, 52, 85
1, 156360, Note_on_c, 1, 56, 0
1, 156360, Note_on_c, 1, 58, 70
1, 156470, Note_on_c, 1, 52, 0
1, 156480, Note_on_c, 1, 58, 0
1, 156480, Note_on_c, 1, 61, 80
1, 156480, Note_on_c, 1, 52, 83
1, 156600, Note_on_c, 1, 61, 0
1, 156600, Note_on_c, 1, 58, 70
1, 156710, Note_on_c, 1, 52, 0
1, 156720, Note_on_c, 1, 58, 0
1, 156720, Note_on_c, 1, 56, 80
1, 156720, Note_on_c, 1, 52, 83
1, 156840, Note_on_c, 1, 56, 0
1, 156840, Note_on_c, 1, 58, 69
1, 156950, Note_on_c, 1, 52, 0
1, 156960, Note_on_c, 1, 58, 0
1, 156960, Note_on_c, 1, 52, 97
1, 157080, Note_on_c, 1, 56, 70
1, 157200, Note_on_c, 1, 56, 0
1, 157200, Note_on_c, 1, 61, 80
1, 157320, Note_on_c, 1, 61, 0
1, 157320, Note_on_c, 1, 58, 69
1, 157440, Note_on_c, 1, 58, 0
1, 157440, Note_on_c, 1, 56, 77
1, 157560, Note_on_c, 1, 56, 0
1, 157560, Note_on_c, 1, 61, 70
1, 157680, Note_on_c, 1, 61, 0
1, 157680, Note_on_c, 1, 52, 0
1, 157680, Note_on_c, 1, 51, 89
1, 157800, Note_on_c, 1, 55, 69
1, 157920, Note_on_c, 1, 55, 0
1, 157920, Note_on_c, 1, 61, 80
1, 158040, Note_on_c, 1, 61, 0
1, 158040, Note_on_c, 1, 58, 69
1, 158160, Note_on_c, 1, 58, 0
1, 158160, Note_on_c, 1, 55, 78
1, 158280, Note_on_c, 1, 55, 0
1, 158280, Note_on_c, 1, 61, 69
1, 158400, Note_on_c, 1, 61, 0
1, 158400, Note_on_c, 1, 51, 0
1, 158400, Note_on_c, 1, 68, 83
1, 158400, Note_on_c, 1, 44, 64
1, 158520, Note_on_c, 1, 44, 0
1, 158520, Note_on_c, 1, 68, 0
1, 158520, Note_on_c, 1, 63, 66
1, 158520, Note_on_c, 1, 51, 52
1, 158640, Note_on_c, 1, 51, 0
1, 158640, Note_on_c, 1, 63, 0
1, 158640, Note_on_c, 1, 59, 66
1, 158640, Note_on_c, 1, 56, 52
1, 158760, Note_on_c, 1, 56, 0
1, 158760, Note_on_c, 1, 59, 0
1, 158760, Note_on_c, 1, 63, 66
1, 158760, Note_on_c, 1, 51, 52
1, 158880, Note_on_c, 1, 51, 0
1, 158880, Note_on_c, 1, 63, 0
1, 158880, Note_on_c, 1, 68, 80
1, 158880, Note_on_c, 1, 44, 58
1, 159000, Note_on_c, 1, 44, 0
1, 159000, Note_on_c, 1, 68, 0
1, 159000, Note_on_c, 1, 63, 64
1, 159000, Note_on_c, 1, 51, 51
1, 159120, Note_on_c, 1, 51, 0
1, 159120, Note_on_c, 1, 63, 0
1, 159120, Note_on_c, 1, 71, 84
1, 159120, Note_on_c, 1, 44, 68
1, 159240, Note_on_c, 1, 44, 0
1, 159240, Note_on_c, 1, 71, 0
1, 159240, Note_on_c, 1, 63, 66
1, 159240, Note_on_c, 1, 51, 52
1, 159360, Note_on_c, 1, 51, 0
1, 159360, Note_on_c, 1, 63, 0
1, 159360, Note_on_c, 1, 70, 83
1, 159360, Note_on_c, 1, 44, 64
1, 159480, Note_on_c, 1, 44, 0
1, 159480, Note_on_c, 1, 70, 0
1, 159480, Note_on_c, 1, 63, 66
1, 159480, Note_on_c, 1, 51, 52
1, 159600, Note_on_c, 1, 51, 0
1, 159600, Note_on_c, 1, 63, 0
1, 159600, Note_on_c, 1, 68, 81
1, 159600, Note_on_c, 1, 44, 62
1, 159720, Note_on_c, 1, 44, 0
1, 159720, Note_on_c, 1, 68, 0
1, 159720, Note_on_c, 1, 63, 66
1, 159720, Note_on_c, 1, 51, 52
1, 159840, Note_on_c, 1, 51, 0
1, 159840, Note_on_c, 1, 63, 0
1, 159840, Note_on_c, 1, 68, 83
1, 159840, Note_on_c, 1, 44, 64
1, 159960, Note_on_c, 1, 44, 0
1, 159960, Note_on_c, 1, 68, 0
1, 159960, Note_on_c, 1, 63, 63
1, 159960, Note_on_c, 1, 51, 52
1, 160080, Note_on_c, 1, 51, 0
1, 160080, Note_on_c, 1, 63, 0
1, 160080, Note_on_c, 1, 59, 63
1, 160080, Note_on_c, 1, 56, 52
1, 160200, Note_on_c, 1, 56, 0
1, 160200, Note_on_c, 1, 59, 0
1, 160200, Note_on_c, 1, 63, 63
1, 160200, Note_on_c, 1, 51, 52
1, 160320, Note_on_c, 1, 51, 0
1, 160320, Note_on_c, 1, 63, 0
1, 160320, Note_on_c, 1, 68, 80
1, 160320, Note_on_c, 1, 44, 58
1, 160440, Note_on_c, 1, 44, 0
1, 160440, Note_on_c, 1, 68, 0
1, 160440, Note_on_c, 1, 63, 62
1, 160440, Note_on_c, 1, 51, 51
1, 160560, Note_on_c, 1, 51, 0
1, 160560, Note_on_c, 1, 63, 0
1, 160560, Note_on_c, 1, 71, 83
1, 160560, Note_on_c, 1, 44, 68
1, 160680, Note_on_c, 1, 44, 0
1, 160680, Note_on_c, 1, 71, 0
1, 160680, Note_on_c, 1, 63, 63
1, 160680, Note_on_c, 1, 51, 52
1, 160800, Note_on_c, 1, 51, 0
1, 160800, Note_on_c, 1, 63, 0
1, 160800, Note_on_c, 1, 70, 80
1, 160800, Note_on_c, 1, 44, 64
1, 160920, Note_on_c, 1, 44, 0
1, 160920, Note_on_c, 1, 70, 0
1, 160920, Note_on_c, 1, 63, 66
1, 160920, Note_on_c, 1, 51, 52
1, 161040, Note_on_c, 1, 51, 0
1, 161040, Note_on_c, 1, 63, 0
1, 161040, Note_on_c, 1, 68, 80
1, 161040, Note_on_c, 1, 44, 62
1, 161160, Note_on_c, 1, 44, 0
1, 161160, Note_on_c, 1, 68, 0
1, 161160, Note_on_c, 1, 63, 64
1, 161160, Note_on_c, 1, 51, 52
1, 161280, Note_on_c, 1, 51, 0
1, 161280, Note_on_c, 1, 63, 0
1, 161280, Note_on_c, 1, 76, 83
1, 161280, Note_on_c, 1, 44, 64
1, 161400, Note_on_c, 1, 44, 0
1, 161400, Note_on_c, 1, 76, 0
1, 161400, Note_on_c, 1, 71, 66
1, 161400, Note_on_c, 1, 52, 52
1, 161520, Note_on_c, 1, 52, 0
1, 161520, Note_on_c, 1, 71, 0
1, 161520, Note_on_c, 1, 68, 66
1, 161520, Note_on_c, 1, 56, 52
1, 161640, Note_on_c, 1, 56, 0
1, 161640, Note_on_c, 1, 68, 0
1, 161640, Note_on_c, 1, 71, 66
1, 161640, Note_on_c, 1, 52, 52
1, 161760, Note_on_c, 1, 52, 0
1, 161760, Note_on_c, 1, 71, 0
1, 161760, Note_on_c, 1, 76, 80
1, 161760, Note_on_c, 1, 44, 58
1, 161880, Note_on_c, 1, 44, 0
1, 161880, Note_on_c, 1, 76, 0
1, 161880, Note_on_c, 1, 71, 64
1, 161880, Note_on_c, 1, 52, 51
1, 162000, Note_on_c, 1, 52, 0
1, 162000, Note_on_c, 1, 71, 0
1, 162000, Note_on_c, 1, 80, 84
1, 162000, Note_on_c, 1, 44, 68
1, 162120, Note_on_c, 1, 44, 0
1, 162120, Note_on_c, 1, 80, 0
1, 162120, Note_on_c, 1, 71, 66
1, 162120, Note_on_c, 1, 52, 52
1, 162240, Note_on_c, 1, 52, 0
1, 162240, Note_on_c, 1, 71, 0
1, 162240, Note_on_c, 1, 78, 83
1, 162240, Note_on_c, 1, 44, 64
1, 162360, Note_on_c, 1, 44, 0
1, 162360, Note_on_c, 1, 78, 0
1, 162360, Note_on_c, 1, 71, 66
1, 162360, Note_on_c, 1, 52, 52
1, 162480, Note_on_c, 1, 52, 0
1, 162480, Note_on_c, 1, 71, 0
1, 162480, Note_on_c, 1, 76, 81
1, 162480, Note_on_c, 1, 44, 62
1, 162600, Note_on_c, 1, 44, 0
1, 162600, Note_on_c, 1, 76, 0
1, 162600, Note_on_c, 1, 71, 66
1, 162600, Note_on_c, 1, 52, 52
1, 162720, Note_on_c, 1, 52, 0
1, 162720, Note_on_c, 1, 71, 0
1, 162720, Note_on_c, 1, 76, 83
1, 162720, Note_on_c, 1, 44, 64
1, 162840, Note_on_c, 1, 44, 0
1, 162840, Note_on_c, 1, 76, 0
1, 162840, Note_on_c, 1, 71, 63
1, 162840, Note_on_c, 1, 52, 52
1, 162960, Note_on_c, 1, 52, 0
1, 162960, Note_on_c, 1, 71, 0
1, 162960, Note_on_c, 1, 68, 63
1, 162960, Note_on_c, 1, 56, 52
1, 163080, Note_on_c, 1, 56, 0
1, 163080, Note_on_c, 1, 68, 0
1, 163080, Note_on_c, 1, 71, 63
1, 163080, Note_on_c, 1, 52, 52
1, 163200, Note_on_c, 1, 52, 0
1, 163200, Note_on_c, 1, 71, 0
1, 163200, Note_on_c, 1, 76, 80
1, 163200, Note_on_c, 1, 44, 58
1, 163320, Note_on_c, 1, 44, 0
1, 163320, Note_on_c, 1, 76, 0
1, 163320, Note_on_c, 1, 71, 62
1, 163320, Note_on_c, 1, 52, 51
1, 163440, Note_on_c, 1, 52, 0
1, 163440, Note_on_c, 1, 71, 0
1, 163440, Note_on_c, 1, 80, 83
1, 163440, Note_on_c, 1, 44, 68
1, 163560, Note_on_c, 1, 44, 0
1, 163560, Note_on_c, 1, 80, 0
1, 163560, Note_on_c, 1, 71, 63
1, 163560, Note_on_c, 1, 52, 52
1, 163680, Note_on_c, 1, 52, 0
1, 163680, Note_on_c, 1, 71, 0
1, 163680, Note_on_c, 1, 78, 80
1, 163680, Note_on_c, 1, 44, 64
1, 163800, Note_on_c, 1, 44, 0
1, 163800, Note_on_c, 1, 78, 0
1, 163800, Note_on_c, 1, 71, 66
1, 163800, Note_on_c, 1, 52, 52
1, 163920, Note_on_c, 1, 52, 0
1, 163920, Note_on_c, 1, 71, 0
1, 163920, Note_on_c, 1, 76, 80
1, 163920, Note_on_c, 1, 44, 62
1, 164040, Note_on_c, 1, 44, 0
1, 164040, Note_on_c, 1, 76, 0
1, 164040, Note_on_c, 1, 71, 64
1, 164040, Note_on_c, 1, 52, 52
1, 164160, Note_on_c, 1, 52, 0
1, 164160, Note_on_c, 1, 71, 0
1, 164160, Note_on_c, 1, 85, 94
1, 164160, Note_on_c, 1, 57, 106
1, 164160, Note_on_c, 1, 45, 90
1, 164280, Note_on_c, 1, 85, 0
1, 164280, Note_on_c, 1, 88, 77
1, 164400, Note_on_c, 1, 88, 0
1, 164400, Note_on_c, 1, 85, 78
1, 164520, Note_on_c, 1, 85, 0
1, 164520, Note_on_c, 1, 88, 69
1, 164640, Note_on_c, 1, 88, 0
1, 164640, Note_on_c, 1, 85, 75
1, 164760, Note_on_c, 1, 85, 0
1, 164760, Note_on_c, 1, 88, 69
1, 164880, Note_on_c, 1, 88, 0
1, 164880, Note_on_c, 1, 85, 75
1, 165000, Note_on_c, 1, 85, 0
1, 165000, Note_on_c, 1, 88, 69
1, 165120, Note_on_c, 1, 88, 0
1, 165120, Note_on_c, 1, 85, 74
1, 165240, Note_on_c, 1, 85, 0
1, 165240, Note_on_c, 1, 88, 69
1, 165360, Note_on_c, 1, 88, 0
1, 165360, Note_on_c, 1, 85, 71
1, 165480, Note_on_c, 1, 85, 0
1, 165480, Note_on_c, 1, 88, 69
1, 165600, Note_on_c, 1, 88, 0
1, 165600, Note_on_c, 1, 85, 71
1, 165720, Note_on_c, 1, 85, 0
1, 165720, Note_on_c, 1, 88, 69
1, 165840, Note_on_c, 1, 88, 0
1, 165840, Note_on_c, 1, 85, 71
1, 165960, Note_on_c, 1, 85, 0
1, 165960, Note_on_c, 1, 88, 69
1, 166080, Note_on_c, 1, 88, 0
1, 166080, Note_on_c, 1, 85, 73
1, 166200, Note_on_c, 1, 85, 0
1, 166200, Note_on_c, 1, 88, 69
1, 166320, Note_on_c, 1, 88, 0
1, 166320, Note_on_c, 1, 45, 0
1, 166320, Note_on_c, 1, 57, 0
1, 166320, Note_on_c, 1, 85, 76
1, 166320, Note_on_c, 1, 46, 59
1, 166320, Note_on_c, 1, 58, 88
1, 166440, Note_on_c, 1, 85, 0
1, 166440, Note_on_c, 1, 88, 69
1, 166560, Note_on_c, 1, 88, 0
1, 166560, Note_on_c, 1, 58, 0
1, 166560, Note_on_c, 1, 46, 0
1, 166560, Note_on_c, 1, 85, 77
1, 166560, Note_on_c, 1, 61, 72
1, 166560, Note_on_c, 1, 49, 58
1, 166680, Note_on_c, 1, 85, 0
1, 166680, Note_on_c, 1, 88, 69
1, 166800, Note_on_c, 1, 88, 0
1, 166800, Note_on_c, 1, 49, 0
1, 166800, Note_on_c, 1, 61, 0
1, 166800, Note_on_c, 1, 85, 77
1, 166800, Note_on_c, 1, 64, 82
1, 166800, Note_on_c, 1, 52, 63
1, 166920, Note_on_c, 1, 85, 0
1, 166920, Note_on_c, 1, 88, 69
1, 167040, Note_on_c, 1, 88, 0
1, 167040, Note_on_c, 1, 52, 0
1, 167040, Note_on_c, 1, 64, 0
1, 167040, Note_on_c, 1, 85, 82
1, 167040, Note_on_c, 1, 67, 95
1, 167040, Note_on_c, 1, 55, 75
1, 167160, Note_on_c, 1, 85, 0
1, 167160, Note_on_c, 1, 88, 70
1, 167280, Note_on_c, 1, 88, 0
1, 167280, Note_on_c, 1, 55, 0
1, 167280, Note_on_c, 1, 67, 0
1, 167280, Note_on_c, 1, 82, 81
1, 167280, Note_on_c, 1, 70, 82
1, 167280, Note_on_c, 1, 58, 63
1, 167400, Note_on_c, 1, 82, 0
1, 167400, Note_on_c, 1, 85, 71
1, 167520, Note_on_c, 1, 85, 0
1, 167520, Note_on_c, 1, 58, 0
1, 167520, Note_on_c, 1, 70, 0
1, 167520, Note_on_c, 1, 80, 82
1, 167520, Note_on_c, 1, 73, 82
1, 167520, Note_on_c, 1, 61, 63
1, 167640, Note_on_c, 1, 80, 0
1, 167640, Note_on_c, 1, 82, 68
1, 167760, Note_on_c, 1, 82, 0
1, 167760, Note_on_c, 1, 61, 0
1, 167760, Note_on_c, 1, 73, 0
1, 167760, Note_on_c, 1, 80, 81
1, 167760, Note_on_c, 1, 64, 68
1, 167760, Note_on_c, 1, 76, 85
1, 167880, Note_on_c, 1, 80, 0
1, 167880, Note_on_c, 1, 82, 70
1, 167990, Note_on_c, 1, 76, 0
1, 167990, Note_on_c, 1, 64, 0
1, 168000, Note_on_c, 1, 82, 0
1, 168000, Note_on_c, 1, 85, 80
1, 168000, Note_on_c, 1, 76, 83
1, 168000, Note_on_c, 1, 64, 64
1, 168120, Note_on_c, 1, 85, 0
1, 168120, Note_on_c, 1, 82, 70
1, 168230, Note_on_c, 1, 64, 0
1, 168230, Note_on_c, 1, 76, 0
1, 168240, Note_on_c, 1, 82, 0
1, 168240, Note_on_c, 1, 80, 80
1, 168240, Note_on_c, 1, 76, 83
1, 168240, Note_on_c, 1, 64, 64
1, 168360, Note_on_c, 1, 80, 0
1, 168360, Note_on_c, 1, 82, 69
1, 168470, Note_on_c, 1, 64, 0
1, 168470, Note_on_c, 1, 76, 0
1, 168480, Note_on_c, 1, 82, 0
1, 168480, Note_on_c, 1, 64, 80
1, 168480, Note_on_c, 1, 76, 102
1, 168600, Note_on_c, 1, 80, 72
1, 168720, Note_on_c, 1, 80, 0
1, 168720, Note_on_c, 1, 85, 77
1, 168840, Note_on_c, 1, 85, 0
1, 168840, Note_on_c, 1, 82, 70
1, 168960, Note_on_c, 1, 82, 0
1, 168960, Note_on_c, 1, 80, 74
1, 169080, Note_on_c, 1, 80, 0
1, 169080, Note_on_c, 1, 85, 69
1, 169200, Note_on_c, 1, 85, 0
1, 169200, Note_on_c, 1, 76, 0
1, 169200, Note_on_c, 1, 64, 0
1, 169200, Note_on_c, 1, 75, 86
1, 169200, Note_on_c, 1, 63, 69
1, 169320, Note_on_c, 1, 79, 67
1, 169440, Note_on_c, 1, 79, 0
1, 169440, Note_on_c, 1, 85, 71
1, 169560, Note_on_c, 1, 85, 0
1, 169560, Note_on_c, 1, 82, 64
1, 169680, Note_on_c, 1, 82, 0
1, 169680, Note_on_c, 1, 79, 68
1, 169800, Note_on_c, 1, 79, 0
1, 169800, Note_on_c, 1, 85, 62
1, 169920, Note_on_c, 1, 85, 0
1, 169920, Note_on_c, 1, 63, 0
1, 169920, Note_on_c, 1, 75, 0
1, 169920, Note_on_c, 1, 68, 102
1, 170040, Note_on_c, 1, 76, 72
1, 170160, Note_on_c, 1, 76, 0
1, 170160, Note_on_c, 1, 85, 78
1, 170280, Note_on_c, 1, 85, 0
1, 170280, Note_on_c, 1, 82, 70
1, 170400, Note_on_c, 1, 82, 0
1, 170400, Note_on_c, 1, 76, 77
1, 170520, Note_on_c, 1, 76, 0
1, 170520, Note_on_c, 1, 85, 69
1, 170640, Note_on_c, 1, 85, 0
1, 170640, Note_on_c, 1, 68, 0
1, 170640, Note_on_c, 1, 67, 86
1, 170760, Note_on_c, 1, 75, 67
1, 170880, Note_on_c, 1, 75, 0
1, 170880, Note_on_c, 1, 85, 74
1, 171000, Note_on_c, 1, 85, 0
1, 171000, Note_on_c, 1, 82, 64
1, 171120, Note_on_c, 1, 82, 0
1, 171120, Note_on_c, 1, 75, 70
1, 171240, Note_on_c, 1, 75, 0
1, 171240, Note_on_c, 1, 85, 62
1, 171360, Note_on_c, 1, 85, 0
1, 171360, Note_on_c, 1, 67, 0
1, 171360, Note_on_c, 1, 76, 102
1, 171480, Note_on_c, 1, 80, 72
1, 171600, Note_on_c, 1, 80, 0
1, 171600, Note_on_c, 1, 85, 78
1, 171720, Note_on_c, 1, 85, 0
1, 171720, Note_on_c, 1, 82, 70
1, 171840, Note_on_c, 1, 82, 0
1, 171840, Note_on_c, 1, 80, 76
1, 171960, Note_on_c, 1, 80, 0
1, 171960, Note_on_c, 1, 85, 69
1, 172080, Note_on_c, 1, 85, 0
1, 172080, Note_on_c, 1, 76, 0
1, 172080, Note_on_c, 1, 75, 86
1, 172200, Note_on_c, 1, 79, 67
1, 172320, Note_on_c, 1, 79, 0
1, 172320, Note_on_c, 1, 85, 73
1, 172440, Note_on_c, 1, 85, 0
1, 172440, Note_on_c, 1, 82, 64
1, 172560, Note_on_c, 1, 82, 0
1, 172560, Note_on_c, 1, 79, 70
1, 172680, Note_on_c, 1, 79, 0
1, 172680, Note_on_c, 1, 85, 62
1, 172800, Note_on_c, 1, 85, 0
1, 172800, Note_on_c, 1, 75, 0
1, 172800, Note_on_c, 1, 74, 97
1, 172920, Note_on_c, 1, 77, 91
1, 173040, Note_on_c, 1, 80, 97
1, 173160, Note_on_c, 1, 83, 79
1, 173280, Note_on_c, 1, 83, 0
1, 173280, Note_on_c, 1, 86, 83
1, 173400, Note_on_c, 1, 86, 0
1, 173400, Note_on_c, 1, 89, 74
1, 173520, Note_on_c, 1, 89, 0
1, 173520, Note_on_c, 1, 92, 85
1, 173640, Note_on_c, 1, 92, 0
1, 173640, Note_on_c, 1, 89, 81
1, 173760, Note_on_c, 1, 89, 0
1, 173760, Note_on_c, 1, 86, 86
1, 173880, Note_on_c, 1, 86, 0
1, 173880, Note_on_c, 1, 95, 83
1, 174000, Note_on_c, 1, 95, 0
1, 174000, Note_on_c, 1, 94, 86
1, 174120, Note_on_c, 1, 94, 0
1, 174120, Note_on_c, 1, 92, 78
1, 174240, Note_on_c, 1, 92, 0
1, 174240, Note_on_c, 1, 74, 0
1, 174240, Note_on_c, 1, 77, 0
1, 174240, Note_on_c, 1, 80, 0
1, 174240, Note_on_c, 1, 91, 83
1, 174240, Note_on_c, 1, 75, 85
1, 174360, Note_on_c, 1, 91, 0
1, 174360, Note_on_c, 1, 94, 81
1, 174360, Note_on_c, 1, 79, 77
1, 174480, Note_on_c, 1, 94, 0
1, 174480, Note_on_c, 1, 92, 84
1, 174600, Note_on_c, 1, 92, 0
1, 174600, Note_on_c, 1, 91, 82
1, 174720, Note_on_c, 1, 91, 0
1, 174720, Note_on_c, 1, 88, 81
1, 174840, Note_on_c, 1, 88, 0
1, 174840, Note_on_c, 1, 87, 74
1, 174960, Note_on_c, 1, 87, 0
1, 174960, Note_on_c, 1, 85, 78
1, 175080, Note_on_c, 1, 85, 0
1, 175080, Note_on_c, 1, 88, 75
1, 175200, Note_on_c, 1, 88, 0
1, 175200, Note_on_c, 1, 87, 74
1, 175320, Note_on_c, 1, 87, 0
1, 175320, Note_on_c, 1, 85, 72
1, 175440, Note_on_c, 1, 85, 0
1, 175440, Note_on_c, 1, 83, 71
1, 175560, Note_on_c, 1, 83, 0
1, 175560, Note_on_c, 1, 82, 66
1, 175680, Note_on_c, 1, 82, 0
1, 175680, Note_on_c, 1, 79, 0
1, 175680, Note_on_c, 1, 75, 0
1, 175680, Note_on_c, 1, 68, 45
1, 175680, Note_on_c, 1, 71, 45
1, 175800, Note_on_c, 1, 80, 42
1, 175920, Note_on_c, 1, 80, 0
1, 175920, Note_on_c, 1, 83, 45
1, 176040, Note_on_c, 1, 83, 0
1, 176040, Note_on_c, 1, 87, 47
1, 176160, Note_on_c, 1, 87, 0
1, 176160, Note_on_c, 1, 92, 49
1, 176280, Note_on_c, 1, 92, 0
1, 176280, Note_on_c, 1, 80, 45
1, 176400, Note_on_c, 1, 80, 0
1, 176400, Note_on_c, 1, 71, 0
1, 176400, Note_on_c, 1, 68, 0
1, 176400, Note_on_c, 1, 73, 44
1, 176400, Note_on_c, 1, 76, 44
1, 176760, Note_on_c, 1, 92, 49
1, 176880, Note_on_c, 1, 92, 0
1, 176880, Note_on_c, 1, 80, 45
1, 177000, Note_on_c, 1, 80, 0
1, 177000, Note_on_c, 1, 92, 49
1, 177120, Note_on_c, 1, 92, 0
1, 177120, Note_on_c, 1, 76, 0
1, 177120, Note_on_c, 1, 73, 0
1, 177120, Note_on_c, 1, 71, 45
1, 177120, Note_on_c, 1, 75, 45
1, 177480, Note_on_c, 1, 92, 48
1, 177600, Note_on_c, 1, 92, 0
1, 177600, Note_on_c, 1, 80, 45
1, 177720, Note_on_c, 1, 80, 0
1, 177720, Note_on_c, 1, 92, 48
1, 177840, Note_on_c, 1, 92, 0
1, 177840, Note_on_c, 1, 75, 0
1, 177840, Note_on_c, 1, 71, 0
1, 177840, Note_on_c, 1, 75, 60
1, 177840, Note_on_c, 1, 70, 60
1, 177840, Note_on_c, 1, 73, 60
1, 178200, Note_on_c, 1, 91, 48
1, 178320, Note_on_c, 1, 91, 0
1, 178320, Note_on_c, 1, 79, 45
1, 178440, Note_on_c, 1, 79, 0
1, 178440, Note_on_c, 1, 91, 49
1, 178560, Note_on_c, 1, 91, 0
1, 178560, Note_on_c, 1, 75, 0
1, 178560, Note_on_c, 1, 70, 0
1, 178560, Note_on_c, 1, 73, 0
1, 178560, Note_on_c, 1, 68, 45
1, 178560, Note_on_c, 1, 71, 45
1, 178680, Note_on_c, 1, 80, 42
1, 178800, Note_on_c, 1, 80, 0
1, 178800, Note_on_c, 1, 83, 45
1, 178920, Note_on_c, 1, 83, 0
1, 178920, Note_on_c, 1, 87, 47
1, 179040, Note_on_c, 1, 87, 0
1, 179040, Note_on_c, 1, 92, 49
1, 179160, Note_on_c, 1, 92, 0
1, 179160, Note_on_c, 1, 80, 45
1, 179280, Note_on_c, 1, 80, 0
1, 179280, Note_on_c, 1, 71, 0
1, 179280, Note_on_c, 1, 68, 0
1, 179280, Note_on_c, 1, 61, 44
1, 179280, Note_on_c, 1, 64, 44
1, 179640, Note_on_c, 1, 80, 49
1, 179760, Note_on_c, 1, 80, 0
1, 179760, Note_on_c, 1, 68, 45
1, 179880, Note_on_c, 1, 68, 0
1, 179880, Note_on_c, 1, 80, 49
1, 180000, Note_on_c, 1, 80, 0
1, 180000, Note_on_c, 1, 64, 0
1, 180000, Note_on_c, 1, 61, 0
1, 180000, Note_on_c, 1, 59, 45
1, 180000, Note_on_c, 1, 63, 45
1, 180360, Note_on_c, 1, 80, 48
1, 180480, Note_on_c, 1, 80, 0
1, 180480, Note_on_c, 1, 68, 45
1, 180600, Note_on_c, 1, 68, 0
1, 180600, Note_on_c, 1, 80, 48
1, 180720, Note_on_c, 1, 80, 0
1, 180720, Note_on_c, 1, 63, 0
1, 180720, Note_on_c, 1, 59, 0
1, 180720, Note_on_c, 1, 58, 60
1, 180720, Note_on_c, 1, 61, 60
1, 180720, Note_on_c, 1, 63, 60
1, 181080, Note_on_c, 1, 79, 48
1, 181200, Note_on_c, 1, 79, 0
1, 181200, Note_on_c, 1, 67, 45
1, 181320, Note_on_c, 1, 67, 0
1, 181320, Note_on_c, 1, 79, 49
1, 181440, Note_on_c, 1, 79, 0
1, 181440, Note_on_c, 1, 58, 0
1, 181440, Note_on_c, 1, 61, 0
1, 181440, Note_on_c, 1, 63, 0
1, 181440, Note_on_c, 1, 59, 45
1, 181440, Note_on_c, 1, 56, 45
1, 181560, Note_on_c, 1, 80, 42
1, 181680, Note_on_c, 1, 80, 0
1, 181680, Note_on_c, 1, 83, 45
1, 181800, Note_on_c, 1, 83, 0
1, 181800, Note_on_c, 1, 87, 47
1, 181920, Note_on_c, 1, 87, 0
1, 181920, Note_on_c, 1, 92, 49
1, 182040, Note_on_c, 1, 92, 0
1, 182040, Note_on_c, 1, 80, 45
1, 182160, Note_on_c, 1, 80, 0
1, 182160, Note_on_c, 1, 56, 0
1, 182160, Note_on_c, 1, 59, 0
1, 182160, Note_on_c, 1, 52, 44
1, 182160, Note_on_c, 1, 49, 44
1, 182520, Note_on_c, 1, 92, 49
1, 182640, Note_on_c, 1, 92, 0
1, 182640, Note_on_c, 1, 80, 45
1, 182760, Note_on_c, 1, 80, 0
1, 182760, Note_on_c, 1, 92, 49
1, 182880, Note_on_c, 1, 92, 0
1, 182880, Note_on_c, 1, 49, 0
1, 182880, Note_on_c, 1, 52, 0
1, 182880, Note_on_c, 1, 51, 45
1, 182880, Note_on_c, 1, 47, 45
1, 183240, Note_on_c, 1, 92, 48
1, 183360, Note_on_c, 1, 92, 0
1, 183360, Note_on_c, 1, 80, 45
1, 183480, Note_on_c, 1, 80, 0
1, 183480, Note_on_c, 1, 92, 48
1, 183600, Note_on_c, 1, 92, 0
1, 183600, Note_on_c, 1, 47, 0
1, 183600, Note_on_c, 1, 51, 0
1, 183600, Note_on_c, 1, 51, 60
1, 183600, Note_on_c, 1, 49, 60
1, 183600, Note_on_c, 1, 46, 60
1, 183960, Note_on_c, 1, 91, 48
1, 184080, Note_on_c, 1, 91, 0
1, 184080, Note_on_c, 1, 79, 45
1, 184200, Note_on_c, 1, 79, 0
1, 184200, Note_on_c, 1, 91, 49
1, 184320, Note_on_c, 1, 91, 0
1, 184320, Note_on_c, 1, 51, 0
1, 184320, Note_on_c, 1, 49, 0
1, 184320, Note_on_c, 1, 46, 0
1, 184320, Note_on_c, 1, 92, 48
1, 184320, Note_on_c, 1, 44, 48
1, 184440, Note_on_c, 1, 92, 0
1, 184440, Note_on_c, 1, 87, 45
1, 184560, Note_on_c, 1, 87, 0
1, 184560, Note_on_c, 1, 83, 44
1, 184680, Note_on_c, 1, 83, 0
1, 184680, Note_on_c, 1, 87, 39
1, 184800, Note_on_c, 1, 87, 0
1, 184800, Note_on_c, 1, 92, 42
1, 184920, Note_on_c, 1, 92, 0
1, 184920, Note_on_c, 1, 87, 39
1, 185040, Note_on_c, 1, 87, 0
1, 185040, Note_on_c, 1, 83, 46
1, 185160, Note_on_c, 1, 83, 0
1, 185160, Note_on_c, 1, 87, 41
1, 185280, Note_on_c, 1, 87, 0
1, 185280, Note_on_c, 1, 92, 41
1, 185400, Note_on_c, 1, 92, 0
1, 185400, Note_on_c, 1, 87, 37
1, 185520, Note_on_c, 1, 87, 0
1, 185520, Note_on_c, 1, 83, 40
1, 185640, Note_on_c, 1, 83, 0
1, 185640, Note_on_c, 1, 87, 36
1, 185760, Note_on_c, 1, 87, 0
1, 185760, Note_on_c, 1, 44, 0
1, 185760, Note_on_c, 1, 92, 42
1, 185760, Note_on_c, 1, 39, 38
1, 185880, Note_on_c, 1, 92, 0
1, 185880, Note_on_c, 1, 87, 39
1, 186000, Note_on_c, 1, 87, 0
1, 186000, Note_on_c, 1, 83, 39
1, 186120, Note_on_c, 1, 83, 0
1, 186120, Note_on_c, 1, 87, 35
1, 186240, Note_on_c, 1, 87, 0
1, 186240, Note_on_c, 1, 92, 38
1, 186360, Note_on_c, 1, 92, 0
1, 186360, Note_on_c, 1, 87, 34
1, 186480, Note_on_c, 1, 87, 0
1, 186480, Note_on_c, 1, 39, 0
1, 186480, Note_on_c, 1, 92, 39
1, 186480, Note_on_c, 1, 35, 30
1, 186600, Note_on_c, 1, 92, 0
1, 186600, Note_on_c, 1, 87, 35
1, 186720, Note_on_c, 1, 87, 0
1, 186720, Note_on_c, 1, 92, 37
1, 186840, Note_on_c, 1, 92, 0
1, 186840, Note_on_c, 1, 87, 31
1, 186960, Note_on_c, 1, 87, 0
1, 186960, Note_on_c, 1, 92, 36
1, 187080, Note_on_c, 1, 92, 0
1, 187080, Note_on_c, 1, 87, 30
1, 187200, Note_on_c, 1, 87, 0
1, 187200, Note_on_c, 1, 35, 0
1, 187200, Note_on_c, 1, 92, 33
1, 187200, Note_on_c, 1, 32, 27
1, 189360, Note_on_c, 1, 32, 0
1, 189360, Note_on_c, 1, 92, 0
1, 189360, Note_on_c, 1, 59, 35
1, 189360, Note_on_c, 1, 47, 27
1, 189960, Note_on_c, 1, 47, 0
1, 189960, Note_on_c, 1, 59, 0
1, 189960, Note_on_c, 1, 56, 31
1, 189960, Note_on_c, 1, 44, 25
1, 190080, Note_on_c, 1, 44, 0
1, 190080, Note_on_c, 1, 56, 0
1, 190080, Note_on_c, 1, 51, 28
1, 190080, Note_on_c, 1, 39, 22
1, 192240, Note_on_c, 1, 39, 0
1, 192240, Note_on_c, 1, 51, 0
1, 192240, Note_on_c, 1, 59, 35
1, 192240, Note_on_c, 1, 47, 27
1, 192840, Note_on_c, 1, 47, 0
1, 192840, Note_on_c, 1, 59, 0
1, 192840, Note_on_c, 1, 56, 31
1, 192840, Note_on_c, 1, 44, 25
1, 192960, Note_on_c, 1, 44, 0
1, 192960, Note_on_c, 1, 56, 0
1, 192960, Note_on_c, 1, 52, 28
1, 192960, Note_on_c, 1, 40, 22
1, 195120, Note_on_c, 1, 40, 0
1, 195120, Note_on_c, 1, 52, 0
1, 195120, Note_on_c, 1, 56, 35
1, 195120, Note_on_c, 1, 44, 27
1, 195720, Note_on_c, 1, 44, 0
1, 195720, Note_on_c, 1, 56, 0
1, 195720, Note_on_c, 1, 59, 30
1, 195720, Note_on_c, 1, 47, 24
1, 195840, Note_on_c, 1, 47, 0
1, 195840, Note_on_c, 1, 59, 0
1, 195840, Note_on_c, 1, 64, 35
1, 195840, Note_on_c, 1, 52, 27
1, 196560, Note_on_c, 1, 52, 0
1, 196560, Note_on_c, 1, 64, 0
1, 196560, Note_on_c, 1, 68, 36
1, 196560, Note_on_c, 1, 56, 28
1, 197160, Note_on_c, 1, 56, 0
1, 197160, Note_on_c, 1, 68, 0
1, 197160, Note_on_c, 1, 71, 31
1, 197160, Note_on_c, 1, 59, 25
1, 197280, Note_on_c, 1, 59, 0
1, 197280, Note_on_c, 1, 71, 0
1, 197280, Note_on_c, 1, 76, 36
1, 197280, Note_on_c, 1, 64, 28
1, 197995, Note_on_c, 1, 64, 0
1, 197995, Note_on_c, 1, 76, 0
1, 198000, Note_on_c, 1, 64, 34
1, 198000, Note_on_c, 1, 52, 27
1, 198720, Note_on_c, 1, 52, 0
1, 198720, Note_on_c, 1, 64, 0
1, 198720, Note_on_c, 1, 71, 35
1, 198720, Note_on_c, 1, 54, 26
1, 198720, Note_on_c, 1, 51, 26
1, 198720, Note_on_c, 1, 59, 26
1, 199920, Note_on_c, 1, 71, 0
1, 199920, Note_on_c, 1, 73, 33
1, 200100, Note_on_c, 1, 73, 0
1, 200100, Note_on_c, 1, 71, 34
1, 200160, Note_on_c, 1, 71, 0
1, 200160, Note_on_c, 1, 54, 0
1, 200160, Note_on_c, 1, 51, 0
1, 200160, Note_on_c, 1, 59, 0
1, 200160, Note_on_c, 1, 73, 31
1, 200160, Note_on_c, 1, 52, 26
1, 200160, Note_on_c, 1, 58, 26
1, 200160, Note_on_c, 1, 55, 26
1, 200240, Note_on_c, 1, 73, 0
1, 200240, Note_on_c, 1, 75, 27
1, 200320, Note_on_c, 1, 75, 0
1, 200320, Note_on_c, 1, 73, 31
1, 200400, Note_on_c, 1, 73, 0
1, 200400, Note_on_c, 1, 75, 27
1, 200480, Note_on_c, 1, 75, 0
1, 200480, Note_on_c, 1, 73, 31
1, 200560, Note_on_c, 1, 73, 0
1, 200560, Note_on_c, 1, 75, 28
1, 200640, Note_on_c, 1, 75, 0
1, 200640, Note_on_c, 1, 73, 31
1, 200720, Note_on_c, 1, 73, 0
1, 200720, Note_on_c, 1, 75, 27
1, 200800, Note_on_c, 1, 75, 0
1, 200800, Note_on_c, 1, 73, 31
1, 200880, Note_on_c, 1, 73, 0
1, 200880, Note_on_c, 1, 75, 28
1, 200960, Note_on_c, 1, 75, 0
1, 200960, Note_on_c, 1, 73, 26
1, 201040, Note_on_c, 1, 73, 0
1, 201040, Note_on_c, 1, 75, 31
1, 201120, Note_on_c, 1, 75, 0
1, 201120, Note_on_c, 1, 73, 26
1, 201240, Note_on_c, 1, 73, 0
1, 201240, Note_on_c, 1, 71, 30
1, 201360, Note_on_c, 1, 71, 0
1, 201360, Note_on_c, 1, 75, 35
1, 201480, Note_on_c, 1, 75, 0
1, 201480, Note_on_c, 1, 73, 31
1, 201600, Note_on_c, 1, 73, 0
1, 201600, Note_on_c, 1, 55, 0
1, 201600, Note_on_c, 1, 58, 0
1, 201600, Note_on_c, 1, 52, 0
1, 201600, Note_on_c, 1, 71, 35
1, 201600, Note_on_c, 1, 54, 22
1, 201600, Note_on_c, 1, 51, 19
1, 201600, Note_on_c, 1, 59, 26
1, 202080, Note_on_c, 1, 59, 0
1, 202080, Note_on_c, 1, 71, 0
1, 202080, Note_on_c, 1, 54, 0
1, 202080, Note_on_c, 1, 51, 0
1, 204480, Note_on_c, 1, 78, 35
1, 204480, Note_on_c, 1, 73, 26
1, 204480, Note_on_c, 1, 69, 26
1, 205680, Note_on_c, 1, 78, 0
1, 205680, Note_on_c, 1, 80, 35
1, 205920, Note_on_c, 1, 80, 0
1, 205920, Note_on_c, 1, 69, 0
1, 205920, Note_on_c, 1, 73, 0
1, 205920, Note_on_c, 1, 77, 35
1, 205920, Note_on_c, 1, 80, 44
1, 205920, Note_on_c, 1, 71, 28
1, 205920, Note_on_c, 1, 74, 28
1, 206000, Note_on_c, 1, 80, 0
1, 206000, Note_on_c, 1, 81, 35
1, 206080, Note_on_c, 1, 81, 0
1, 206080, Note_on_c, 1, 80, 40
1, 206160, Note_on_c, 1, 80, 0
1, 206160, Note_on_c, 1, 81, 36
1, 206240, Note_on_c, 1, 81, 0
1, 206240, Note_on_c, 1, 80, 39
1, 206320, Note_on_c, 1, 80, 0
1, 206320, Note_on_c, 1, 81, 36
1, 206400, Note_on_c, 1, 81, 0
1, 206400, Note_on_c, 1, 80, 38
1, 206480, Note_on_c, 1, 80, 0
1, 206480, Note_on_c, 1, 81, 34
1, 206560, Note_on_c, 1, 81, 0
1, 206560, Note_on_c, 1, 80, 37
1, 206640, Note_on_c, 1, 80, 0
1, 206640, Note_on_c, 1, 81, 35
1, 206720, Note_on_c, 1, 81, 0
1, 206720, Note_on_c, 1, 80, 31
1, 206800, Note_on_c, 1, 80, 0
1, 206800, Note_on_c, 1, 81, 36
1, 206880, Note_on_c, 1, 81, 0
1, 206880, Note_on_c, 1, 80, 33
1, 207000, Note_on_c, 1, 80, 0
1, 207000, Note_on_c, 1, 78, 33
1, 207120, Note_on_c, 1, 78, 0
1, 207120, Note_on_c, 1, 81, 37
1, 207240, Note_on_c, 1, 81, 0
1, 207240, Note_on_c, 1, 80, 33
1, 207360, Note_on_c, 1, 80, 0
1, 207360, Note_on_c, 1, 74, 0
1, 207360, Note_on_c, 1, 71, 0
1, 207360, Note_on_c, 1, 77, 0
1, 207360, Note_on_c, 1, 78, 35
1, 207360, Note_on_c, 1, 69, 22
1, 207360, Note_on_c, 1, 73, 26
1, 207840, Note_on_c, 1, 73, 0
1, 207840, Note_on_c, 1, 69, 0
1, 207840, Note_on_c, 1, 78, 0
1, 210240, Note_on_c, 1, 64, 35
1, 210240, Note_on_c, 1, 59, 26
1, 210240, Note_on_c, 1, 56, 26
1, 211440, Note_on_c, 1, 64, 0
1, 211440, Note_on_c, 1, 66, 35
1, 211680, Note_on_c, 1, 66, 0
1, 211680, Note_on_c, 1, 56, 0
1, 211680, Note_on_c, 1, 59, 0
1, 211680, Note_on_c, 1, 63, 35
1, 211680, Note_on_c, 1, 66, 44
1, 211680, Note_on_c, 1, 57, 28
1, 211680, Note_on_c, 1, 60, 28
1, 211760, Note_on_c, 1, 66, 0
1, 211760, Note_on_c, 1, 68, 35
1, 211840, Note_on_c, 1, 68, 0
1, 211840, Note_on_c, 1, 66, 40
1, 211920, Note_on_c, 1, 66, 0
1, 211920, Note_on_c, 1, 68, 36
1, 212000, Note_on_c, 1, 68, 0
1, 212000, Note_on_c, 1, 66, 39
1, 212080, Note_on_c, 1, 66, 0
1, 212080, Note_on_c, 1, 68, 36
1, 212160, Note_on_c, 1, 68, 0
1, 212160, Note_on_c, 1, 66, 39
1, 212240, Note_on_c, 1, 66, 0
1, 212240, Note_on_c, 1, 68, 35
1, 212320, Note_on_c, 1, 68, 0
1, 212320, Note_on_c, 1, 66, 39
1, 212400, Note_on_c, 1, 66, 0
1, 212400, Note_on_c, 1, 68, 35
1, 212480, Note_on_c, 1, 68, 0
1, 212480, Note_on_c, 1, 66, 31
1, 212560, Note_on_c, 1, 66, 0
1, 212560, Note_on_c, 1, 68, 36
1, 212640, Note_on_c, 1, 68, 0
1, 212640, Note_on_c, 1, 66, 33
1, 212760, Note_on_c, 1, 66, 0
1, 212760, Note_on_c, 1, 64, 33
1, 212880, Note_on_c, 1, 64, 0
1, 212880, Note_on_c, 1, 68, 37
1, 213000, Note_on_c, 1, 68, 0
1, 213000, Note_on_c, 1, 66, 33
1, 213120, Note_on_c, 1, 66, 0
1, 213120, Note_on_c, 1, 60, 0
1, 213120, Note_on_c, 1, 57, 0
1, 213120, Note_on_c, 1, 63, 0
1, 213120, Note_on_c, 1, 64, 35
1, 213120, Note_on_c, 1, 56, 22
1, 213120, Note_on_c, 1, 59, 26
1, 213840, Note_on_c, 1, 59, 0
1, 213840, Note_on_c, 1, 56, 0
1, 213840, Note_on_c, 1, 64, 0
1, 213840, Note_on_c, 1, 57, 45
1, 213840, Note_on_c, 1, 61, 45
1, 213840, Note_on_c, 1, 69, 53
1, 213840, Note_on_c, 1, 42, 44
1, 215280, Note_on_c, 1, 42, 0
1, 215280, Note_on_c, 1, 57, 0
1, 215280, Note_on_c, 1, 61, 0
1, 215280, Note_on_c, 1, 69, 0
1, 215280, Note_on_c, 1, 57, 36
1, 215280, Note_on_c, 1, 61, 36
1, 215280, Note_on_c, 1, 66, 44
1, 215280, Note_on_c, 1, 45, 40
1, 215880, Note_on_c, 1, 66, 0
1, 215880, Note_on_c, 1, 68, 39
1, 216000, Note_on_c, 1, 68, 0
1, 216000, Note_on_c, 1, 45, 0
1, 216000, Note_on_c, 1, 61, 0
1, 216000, Note_on_c, 1, 57, 0
1, 216000, Note_on_c, 1, 64, 42
1, 216000, Note_on_c, 1, 56, 35
1, 216000, Note_on_c, 1, 59, 35
1, 216000, Note_on_c, 1, 47, 35
1, 217440, Note_on_c, 1, 47, 0
1, 217440, Note_on_c, 1, 64, 0
1, 217440, Note_on_c, 1, 56, 0
1, 217440, Note_on_c, 1, 59, 0
1, 217440, Note_on_c, 1, 63, 36
1, 217440, Note_on_c, 1, 57, 30
1, 217440, Note_on_c, 1, 54, 30
1, 217440, Note_on_c, 1, 35, 30
1, 218880, Note_on_c, 1, 35, 0
1, 218880, Note_on_c, 1, 63, 0
1, 218880, Note_on_c, 1, 57, 0
1, 218880, Note_on_c, 1, 54, 0
1, 218880, Note_on_c, 1, 76, 35
1, 218880, Note_on_c, 1, 71, 26
1, 218880, Note_on_c, 1, 68, 26
1, 220080, Note_on_c, 1, 76, 0
1, 220080, Note_on_c, 1, 78, 35
1, 220320, Note_on_c, 1, 78, 0
1, 220320, Note_on_c, 1, 68, 0
1, 220320, Note_on_c, 1, 71, 0
1, 220320, Note_on_c, 1, 78, 36
1, 220320, Note_on_c, 1, 75, 29
1, 220320, Note_on_c, 1, 69, 28
1, 220320, Note_on_c, 1, 72, 28
1, 220400, Note_on_c, 1, 78, 0
1, 220400, Note_on_c, 1, 80, 33
1, 220480, Note_on_c, 1, 80, 0
1, 220480, Note_on_c, 1, 78, 36
1, 220560, Note_on_c, 1, 78, 0
1, 220560, Note_on_c, 1, 80, 34
1, 220640, Note_on_c, 1, 80, 0
1, 220640, Note_on_c, 1, 78, 36
1, 220720, Note_on_c, 1, 78, 0
1, 220720, Note_on_c, 1, 80, 34
1, 220800, Note_on_c, 1, 80, 0
1, 220800, Note_on_c, 1, 78, 36
1, 220880, Note_on_c, 1, 78, 0
1, 220880, Note_on_c, 1, 80, 32
1, 220960, Note_on_c, 1, 80, 0
1, 220960, Note_on_c, 1, 78, 36
1, 221040, Note_on_c, 1, 78, 0
1, 221040, Note_on_c, 1, 80, 33
1, 221120, Note_on_c, 1, 80, 0
1, 221120, Note_on_c, 1, 78, 30
1, 221200, Note_on_c, 1, 78, 0
1, 221200, Note_on_c, 1, 80, 34
1, 221280, Note_on_c, 1, 80, 0
1, 221280, Note_on_c, 1, 78, 31
1, 221400, Note_on_c, 1, 78, 0
1, 221400, Note_on_c, 1, 76, 33
1, 221520, Note_on_c, 1, 76, 0
1, 221520, Note_on_c, 1, 80, 37
1, 221640, Note_on_c, 1, 80, 0
1, 221640, Note_on_c, 1, 78, 33
1, 221760, Note_on_c, 1, 78, 0
1, 221760, Note_on_c, 1, 72, 0
1, 221760, Note_on_c, 1, 69, 0
1, 221760, Note_on_c, 1, 75, 0
1, 221760, Note_on_c, 1, 76, 35
1, 221760, Note_on_c, 1, 68, 22
1, 221760, Note_on_c, 1, 71, 26
1, 222480, Note_on_c, 1, 71, 0
1, 222480, Note_on_c, 1, 68, 0
1, 222480, Note_on_c, 1, 76, 0
1, 222480, Note_on_c, 1, 69, 45
1, 222480, Note_on_c, 1, 73, 45
1, 222480, Note_on_c, 1, 81, 53
1, 222480, Note_on_c, 1, 66, 44
1, 222480, Note_on_c, 1, 54, 38
1, 223920, Note_on_c, 1, 54, 0
1, 223920, Note_on_c, 1, 81, 0
1, 223920, Note_on_c, 1, 69, 0
1, 223920, Note_on_c, 1, 73, 0
1, 223920, Note_on_c, 1, 66, 0
1, 223920, Note_on_c, 1, 69, 36
1, 223920, Note_on_c, 1, 73, 36
1, 223920, Note_on_c, 1, 78, 44
1, 223920, Note_on_c, 1, 57, 40
1, 224520, Note_on_c, 1, 78, 0
1, 224520, Note_on_c, 1, 80, 39
1, 224640, Note_on_c, 1, 80, 0
1, 224640, Note_on_c, 1, 57, 0
1, 224640, Note_on_c, 1, 73, 0
1, 224640, Note_on_c, 1, 69, 0
1, 224640, Note_on_c, 1, 68, 35
1, 224640, Note_on_c, 1, 76, 42
1, 224640, Note_on_c, 1, 71, 35
1, 224640, Note_on_c, 1, 59, 35
1, 226080, Note_on_c, 1, 59, 0
1, 226080, Note_on_c, 1, 68, 0
1, 226080, Note_on_c, 1, 76, 0
1, 226080, Note_on_c, 1, 71, 0
1, 226080, Note_on_c, 1, 75, 36
1, 226080, Note_on_c, 1, 69, 30
1, 226080, Note_on_c, 1, 66, 30
1, 226080, Note_on_c, 1, 47, 30
1, 226560, Note_on_c, 1, 47, 0
1, 226560, Note_on_c, 1, 75, 0
1, 226560, Note_on_c, 1, 69, 0
1, 226560, Note_on_c, 1, 66, 0
1, 226800, Note_on_c, 1, 47, 83
1, 227400, Note_on_c, 1, 47, 0
1, 227400, Note_on_c, 1, 43, 75
1, 227520, Note_on_c, 1, 43, 0
1, 227520, Note_on_c, 1, 71, 70
1, 227520, Note_on_c, 1, 40, 80
1, 227640, Note_on_c, 1, 71, 0
1, 227640, Note_on_c, 1, 67, 61
1, 227760, Note_on_c, 1, 67, 0
1, 227760, Note_on_c, 1, 71, 70
1, 227880, Note_on_c, 1, 71, 0
1, 227880, Note_on_c, 1, 67, 60
1, 228000, Note_on_c, 1, 67, 0
1, 228000, Note_on_c, 1, 71, 70
1, 228120, Note_on_c, 1, 71, 0
1, 228120, Note_on_c, 1, 67, 61
1, 228240, Note_on_c, 1, 67, 0
1, 228240, Note_on_c, 1, 71, 70
1, 228360, Note_on_c, 1, 71, 0
1, 228360, Note_on_c, 1, 67, 60
1, 228480, Note_on_c, 1, 67, 0
1, 228480, Note_on_c, 1, 71, 70
1, 228600, Note_on_c, 1, 71, 0
1, 228600, Note_on_c, 1, 67, 60
1, 228720, Note_on_c, 1, 67, 0
1, 228720, Note_on_c, 1, 71, 70
1, 228840, Note_on_c, 1, 71, 0
1, 228840, Note_on_c, 1, 67, 59
1, 228960, Note_on_c, 1, 67, 0
1, 228960, Note_on_c, 1, 71, 70
1, 229080, Note_on_c, 1, 71, 0
1, 229080, Note_on_c, 1, 67, 61
1, 229200, Note_on_c, 1, 67, 0
1, 229200, Note_on_c, 1, 71, 70
1, 229320, Note_on_c, 1, 71, 0
1, 229320, Note_on_c, 1, 67, 60
1, 229440, Note_on_c, 1, 67, 0
1, 229440, Note_on_c, 1, 71, 70
1, 229560, Note_on_c, 1, 71, 0
1, 229560, Note_on_c, 1, 67, 61
1, 229680, Note_on_c, 1, 67, 0
1, 229680, Note_on_c, 1, 40, 0
1, 229680, Note_on_c, 1, 71, 70
1, 229680, Note_on_c, 1, 43, 81
1, 229800, Note_on_c, 1, 71, 0
1, 229800, Note_on_c, 1, 67, 60
1, 229920, Note_on_c, 1, 67, 0
1, 229920, Note_on_c, 1, 71, 70
1, 230040, Note_on_c, 1, 71, 0
1, 230040, Note_on_c, 1, 67, 60
1, 230160, Note_on_c, 1, 67, 0
1, 230160, Note_on_c, 1, 71, 70
1, 230280, Note_on_c, 1, 71, 0
1, 230280, Note_on_c, 1, 43, 0
1, 230280, Note_on_c, 1, 67, 59
1, 230280, Note_on_c, 1, 47, 73
1, 230400, Note_on_c, 1, 47, 0
1, 230400, Note_on_c, 1, 67, 0
1, 230400, Note_on_c, 1, 71, 70
1, 230400, Note_on_c, 1, 52, 81
1, 230520, Note_on_c, 1, 71, 0
1, 230520, Note_on_c, 1, 67, 61
1, 230640, Note_on_c, 1, 67, 0
1, 230640, Note_on_c, 1, 71, 70
1, 230760, Note_on_c, 1, 71, 0
1, 230760, Note_on_c, 1, 67, 60
1, 230880, Note_on_c, 1, 67, 0
1, 230880, Note_on_c, 1, 71, 70
1, 231000, Note_on_c, 1, 71, 0
1, 231000, Note_on_c, 1, 67, 61
1, 231120, Note_on_c, 1, 67, 0
1, 231120, Note_on_c, 1, 52, 0
1, 231120, Note_on_c, 1, 71, 70
1, 231120, Note_on_c, 1, 55, 83
1, 231240, Note_on_c, 1, 71, 0
1, 231240, Note_on_c, 1, 67, 60
1, 231360, Note_on_c, 1, 67, 0
1, 231360, Note_on_c, 1, 71, 70
1, 231480, Note_on_c, 1, 71, 0
1, 231480, Note_on_c, 1, 67, 60
1, 231600, Note_on_c, 1, 67, 0
1, 231600, Note_on_c, 1, 71, 70
1, 231720, Note_on_c, 1, 71, 0
1, 231720, Note_on_c, 1, 55, 0
1, 231720, Note_on_c, 1, 67, 59
1, 231720, Note_on_c, 1, 59, 73
1, 231840, Note_on_c, 1, 59, 0
1, 231840, Note_on_c, 1, 67, 0
1, 231840, Note_on_c, 1, 71, 70
1, 231840, Note_on_c, 1, 64, 82
1, 231960, Note_on_c, 1, 71, 0
1, 231960, Note_on_c, 1, 67, 61
1, 232080, Note_on_c, 1, 67, 0
1, 232080, Note_on_c, 1, 71, 70
1, 232200, Note_on_c, 1, 71, 0
1, 232200, Note_on_c, 1, 67, 60
1, 232320, Note_on_c, 1, 67, 0
1, 232320, Note_on_c, 1, 71, 70
1, 232440, Note_on_c, 1, 71, 0
1, 232440, Note_on_c, 1, 67, 61
1, 232560, Note_on_c, 1, 67, 0
1, 232560, Note_on_c, 1, 64, 0
1, 232560, Note_on_c, 1, 71, 70
1, 232560, Note_on_c, 1, 64, 79
1, 232680, Note_on_c, 1, 71, 0
1, 232680, Note_on_c, 1, 67, 60
1, 232800, Note_on_c, 1, 67, 0
1, 232800, Note_on_c, 1, 71, 70
1, 232920, Note_on_c, 1, 71, 0
1, 232920, Note_on_c, 1, 67, 60
1, 233040, Note_on_c, 1, 67, 0
1, 233040, Note_on_c, 1, 71, 70
1, 233160, Note_on_c, 1, 71, 0
1, 233160, Note_on_c, 1, 67, 59
1, 233280, Note_on_c, 1, 67, 0
1, 233280, Note_on_c, 1, 64, 0
1, 233280, Note_on_c, 1, 65, 83
1, 233424, Note_on_c, 1, 65, 0
1, 233424, Note_on_c, 1, 67, 67
1, 233568, Note_on_c, 1, 67, 0
1, 233568, Note_on_c, 1, 71, 70
1, 233712, Note_on_c, 1, 71, 0
1, 233712, Note_on_c, 1, 67, 68
1, 233856, Note_on_c, 1, 67, 0
1, 233856, Note_on_c, 1, 65, 68
1, 234000, Note_on_c, 1, 65, 0
1, 234000, Note_on_c, 1, 62, 81
1, 234144, Note_on_c, 1, 62, 0
1, 234144, Note_on_c, 1, 65, 67
1, 234288, Note_on_c, 1, 65, 0
1, 234288, Note_on_c, 1, 67, 70
1, 234432, Note_on_c, 1, 67, 0
1, 234432, Note_on_c, 1, 65, 68
1, 234576, Note_on_c, 1, 65, 0
1, 234576, Note_on_c, 1, 62, 68
1, 234720, Note_on_c, 1, 62, 0
1, 234720, Note_on_c, 1, 59, 77
1, 234864, Note_on_c, 1, 59, 0
1, 234864, Note_on_c, 1, 62, 62
1, 235008, Note_on_c, 1, 62, 0
1, 235008, Note_on_c, 1, 65, 67
1, 235152, Note_on_c, 1, 65, 0
1, 235152, Note_on_c, 1, 62, 63
1, 235296, Note_on_c, 1, 62, 0
1, 235296, Note_on_c, 1, 59, 63
1, 235440, Note_on_c, 1, 59, 0
1, 235440, Note_on_c, 1, 71, 89
1, 235440, Note_on_c, 1, 55, 70
1, 235584, Note_on_c, 1, 55, 0
1, 235584, Note_on_c, 1, 59, 59
1, 235728, Note_on_c, 1, 59, 0
1, 235728, Note_on_c, 1, 62, 62
1, 235872, Note_on_c, 1, 62, 0
1, 235872, Note_on_c, 1, 59, 60
1, 236016, Note_on_c, 1, 59, 0
1, 236016, Note_on_c, 1, 55, 60
1, 236040, Note_on_c, 1, 71, 0
1, 236040, Note_on_c, 1, 74, 80
1, 236160, Note_on_c, 1, 74, 0
1, 236160, Note_on_c, 1, 55, 0
1, 236160, Note_on_c, 1, 79, 89
1, 236160, Note_on_c, 1, 53, 70
1, 236304, Note_on_c, 1, 53, 0
1, 236304, Note_on_c, 1, 55, 59
1, 236448, Note_on_c, 1, 55, 0
1, 236448, Note_on_c, 1, 59, 62
1, 236592, Note_on_c, 1, 59, 0
1, 236592, Note_on_c, 1, 55, 60
1, 236736, Note_on_c, 1, 55, 0
1, 236736, Note_on_c, 1, 53, 60
1, 236880, Note_on_c, 1, 53, 0
1, 236880, Note_on_c, 1, 79, 0
1, 236880, Note_on_c, 1, 83, 91
1, 236880, Note_on_c, 1, 50, 70
1, 237024, Note_on_c, 1, 50, 0
1, 237024, Note_on_c, 1, 53, 59
1, 237168, Note_on_c, 1, 53, 0
1, 237168, Note_on_c, 1, 55, 62
1, 237312, Note_on_c, 1, 55, 0
1, 237312, Note_on_c, 1, 53, 60
1, 237456, Note_on_c, 1, 53, 0
1, 237456, Note_on_c, 1, 50, 60
1, 237480, Note_on_c, 1, 83, 0
1, 237480, Note_on_c, 1, 86, 80
1, 237600, Note_on_c, 1, 86, 0
1, 237600, Note_on_c, 1, 50, 0
1, 237600, Note_on_c, 1, 79, 82
1, 237600, Note_on_c, 1, 91, 90
1, 237600, Note_on_c, 1, 47, 70
1, 237720, Note_on_c, 1, 47, 0
1, 237720, Note_on_c, 1, 50, 59
1, 237840, Note_on_c, 1, 50, 0
1, 237840, Note_on_c, 1, 53, 60
1, 237960, Note_on_c, 1, 53, 0
1, 237960, Note_on_c, 1, 50, 66
1, 238080, Note_on_c, 1, 50, 0
1, 238080, Note_on_c, 1, 47, 59
1, 238200, Note_on_c, 1, 47, 0
1, 238200, Note_on_c, 1, 43, 60
1, 238320, Note_on_c, 1, 43, 0
1, 238320, Note_on_c, 1, 91, 0
1, 238320, Note_on_c, 1, 79, 0
1, 238320, Note_on_c, 1, 91, 86
1, 238320, Note_on_c, 1, 79, 79
1, 238320, Note_on_c, 1, 41, 70
1, 238440, Note_on_c, 1, 41, 0
1, 238440, Note_on_c, 1, 43, 60
1, 238560, Note_on_c, 1, 43, 0
1, 238560, Note_on_c, 1, 47, 60
1, 238680, Note_on_c, 1, 47, 0
1, 238680, Note_on_c, 1, 43, 66
1, 238800, Note_on_c, 1, 43, 0
1, 238800, Note_on_c, 1, 41, 66
1, 238920, Note_on_c, 1, 41, 0
1, 238920, Note_on_c, 1, 38, 60
1, 239040, Note_on_c, 1, 38, 0
1, 239040, Note_on_c, 1, 79, 0
1, 239040, Note_on_c, 1, 91, 0
1, 239040, Note_on_c, 1, 79, 91
1, 239040, Note_on_c, 1, 91, 91
1, 239040, Note_on_c, 1, 36, 80
1, 239184, Note_on_c, 1, 91, 0
1, 239184, Note_on_c, 1, 79, 0
1, 239184, Note_on_c, 1, 87, 73
1, 239328, Note_on_c, 1, 87, 0
1, 239328, Note_on_c, 1, 91, 77
1, 239472, Note_on_c, 1, 91, 0
1, 239472, Note_on_c, 1, 87, 74
1, 239616, Note_on_c, 1, 87, 0
1, 239616, Note_on_c, 1, 84, 74
1, 239760, Note_on_c, 1, 84, 0
1, 239760, Note_on_c, 1, 79, 91
1, 239904, Note_on_c, 1, 79, 0
1, 239904, Note_on_c, 1, 84, 73
1, 240048, Note_on_c, 1, 84, 0
1, 240048, Note_on_c, 1, 87, 77
1, 240192, Note_on_c, 1, 87, 0
1, 240192, Note_on_c, 1, 84, 74
1, 240336, Note_on_c, 1, 84, 0
1, 240336, Note_on_c, 1, 79, 74
1, 240480, Note_on_c, 1, 79, 0
1, 240480, Note_on_c, 1, 75, 91
1, 240624, Note_on_c, 1, 75, 0
1, 240624, Note_on_c, 1, 79, 73
1, 240768, Note_on_c, 1, 79, 0
1, 240768, Note_on_c, 1, 84, 77
1, 240912, Note_on_c, 1, 84, 0
1, 240912, Note_on_c, 1, 79, 74
1, 241056, Note_on_c, 1, 79, 0
1, 241056, Note_on_c, 1, 75, 74
1, 241200, Note_on_c, 1, 75, 0
1, 241200, Note_on_c, 1, 36, 0
1, 241200, Note_on_c, 1, 72, 91
1, 241200, Note_on_c, 1, 39, 81
1, 241344, Note_on_c, 1, 72, 0
1, 241344, Note_on_c, 1, 75, 73
1, 241488, Note_on_c, 1, 75, 0
1, 241488, Note_on_c, 1, 79, 77
1, 241632, Note_on_c, 1, 79, 0
1, 241632, Note_on_c, 1, 75, 74
1, 241776, Note_on_c, 1, 75, 0
1, 241776, Note_on_c, 1, 72, 74
1, 241800, Note_on_c, 1, 39, 0
1, 241800, Note_on_c, 1, 43, 73
1, 241920, Note_on_c, 1, 43, 0
1, 241920, Note_on_c, 1, 72, 0
1, 241920, Note_on_c, 1, 67, 91
1, 241920, Note_on_c, 1, 48, 81
1, 242064, Note_on_c, 1, 67, 0
1, 242064, Note_on_c, 1, 72, 73
1, 242208, Note_on_c, 1, 72, 0
1, 242208, Note_on_c, 1, 75, 77
1, 242352, Note_on_c, 1, 75, 0
1, 242352, Note_on_c, 1, 72, 74
1, 242496, Note_on_c, 1, 72, 0
1, 242496, Note_on_c, 1, 67, 74
1, 242640, Note_on_c, 1, 67, 0
1, 242640, Note_on_c, 1, 48, 0
1, 242640, Note_on_c, 1, 63, 91
1, 242640, Note_on_c, 1, 51, 83
1, 242784, Note_on_c, 1, 63, 0
1, 242784, Note_on_c, 1, 67, 73
1, 242928, Note_on_c, 1, 67, 0
1, 242928, Note_on_c, 1, 72, 77
1, 243072, Note_on_c, 1, 72, 0
1, 243072, Note_on_c, 1, 67, 74
1, 243216, Note_on_c, 1, 67, 0
1, 243216, Note_on_c, 1, 63, 74
1, 243240, Note_on_c, 1, 51, 0
1, 243240, Note_on_c, 1, 55, 73
1, 243360, Note_on_c, 1, 55, 0
1, 243360, Note_on_c, 1, 63, 0
1, 243360, Note_on_c, 1, 63, 91
1, 243360, Note_on_c, 1, 60, 82
1, 243504, Note_on_c, 1, 63, 0
1, 243504, Note_on_c, 1, 67, 73
1, 243648, Note_on_c, 1, 67, 0
1, 243648, Note_on_c, 1, 72, 77
1, 243792, Note_on_c, 1, 72, 0
1, 243792, Note_on_c, 1, 67, 74
1, 243936, Note_on_c, 1, 67, 0
1, 243936, Note_on_c, 1, 63, 74
1, 244080, Note_on_c, 1, 63, 0
1, 244080, Note_on_c, 1, 60, 0
1, 244080, Note_on_c, 1, 63, 91
1, 244080, Note_on_c, 1, 60, 79
1, 244224, Note_on_c, 1, 63, 0
1, 244224, Note_on_c, 1, 67, 73
1, 244368, Note_on_c, 1, 67, 0
1, 244368, Note_on_c, 1, 72, 77
1, 244512, Note_on_c, 1, 72, 0
1, 244512, Note_on_c, 1, 67, 74
1, 244656, Note_on_c, 1, 67, 0
1, 244656, Note_on_c, 1, 63, 74
1, 244800, Note_on_c, 1, 63, 0
1, 244800, Note_on_c, 1, 60, 0
1, 244800, Note_on_c, 1, 61, 83
1, 244944, Note_on_c, 1, 61, 0
1, 244944, Note_on_c, 1, 63, 67
1, 245088, Note_on_c, 1, 63, 0
1, 245088, Note_on_c, 1, 67, 70
1, 245232, Note_on_c, 1, 67, 0
1, 245232, Note_on_c, 1, 63, 68
1, 245376, Note_on_c, 1, 63, 0
1, 245376, Note_on_c, 1, 61, 68
1, 245520, Note_on_c, 1, 61, 0
1, 245520, Note_on_c, 1, 58, 81
1, 245664, Note_on_c, 1, 58, 0
1, 245664, Note_on_c, 1, 61, 67
1, 245808, Note_on_c, 1, 61, 0
1, 245808, Note_on_c, 1, 63, 70
1, 245952, Note_on_c, 1, 63, 0
1, 245952, Note_on_c, 1, 61, 68
1, 246096, Note_on_c, 1, 61, 0
1, 246096, Note_on_c, 1, 58, 68
1, 246240, Note_on_c, 1, 58, 0
1, 246240, Note_on_c, 1, 55, 77
1, 246384, Note_on_c, 1, 55, 0
1, 246384, Note_on_c, 1, 58, 62
1, 246528, Note_on_c, 1, 58, 0
1, 246528, Note_on_c, 1, 61, 67
1, 246672, Note_on_c, 1, 61, 0
1, 246672, Note_on_c, 1, 58, 63
1, 246816, Note_on_c, 1, 58, 0
1, 246816, Note_on_c, 1, 55, 63
1, 246960, Note_on_c, 1, 55, 0
1, 246960, Note_on_c, 1, 67, 89
1, 246960, Note_on_c, 1, 51, 70
1, 247104, Note_on_c, 1, 51, 0
1, 247104, Note_on_c, 1, 55, 59
1, 247248, Note_on_c, 1, 55, 0
1, 247248, Note_on_c, 1, 58, 62
1, 247392, Note_on_c, 1, 58, 0
1, 247392, Note_on_c, 1, 55, 60
1, 247536, Note_on_c, 1, 55, 0
1, 247536, Note_on_c, 1, 51, 60
1, 247560, Note_on_c, 1, 67, 0
1, 247560, Note_on_c, 1, 70, 80
1, 247680, Note_on_c, 1, 70, 0
1, 247680, Note_on_c, 1, 51, 0
1, 247680, Note_on_c, 1, 75, 89
1, 247680, Note_on_c, 1, 49, 70
1, 247824, Note_on_c, 1, 49, 0
1, 247824, Note_on_c, 1, 51, 59
1, 247968, Note_on_c, 1, 51, 0
1, 247968, Note_on_c, 1, 55, 62
1, 248112, Note_on_c, 1, 55, 0
1, 248112, Note_on_c, 1, 51, 60
1, 248256, Note_on_c, 1, 51, 0
1, 248256, Note_on_c, 1, 49, 60
1, 248400, Note_on_c, 1, 49, 0
1, 248400, Note_on_c, 1, 75, 0
1, 248400, Note_on_c, 1, 79, 91
1, 248400, Note_on_c, 1, 46, 70
1, 248544, Note_on_c, 1, 46, 0
1, 248544, Note_on_c, 1, 49, 59
1, 248688, Note_on_c, 1, 49, 0
1, 248688, Note_on_c, 1, 51, 62
1, 248832, Note_on_c, 1, 51, 0
1, 248832, Note_on_c, 1, 49, 60
1, 248976, Note_on_c, 1, 49, 0
1, 248976, Note_on_c, 1, 46, 60
1, 249000, Note_on_c, 1, 79, 0
1, 249000, Note_on_c, 1, 82, 80
1, 249120, Note_on_c, 1, 82, 0
1, 249120, Note_on_c, 1, 46, 0
1, 249120, Note_on_c, 1, 75, 82
1, 249120, Note_on_c, 1, 87, 90
1, 249120, Note_on_c, 1, 43, 70
1, 249240, Note_on_c, 1, 43, 0
1, 249240, Note_on_c, 1, 46, 59
1, 249360, Note_on_c, 1, 46, 0
1, 249360, Note_on_c, 1, 49, 60
1, 249480, Note_on_c, 1, 49, 0
1, 249480, Note_on_c, 1, 46, 66
1, 249600, Note_on_c, 1, 46, 0
1, 249600, Note_on_c, 1, 43, 59
1, 249720, Note_on_c, 1, 43, 0
1, 249720, Note_on_c, 1, 39, 60
1, 249840, Note_on_c, 1, 39, 0
1, 249840, Note_on_c, 1, 87, 0
1, 249840, Note_on_c, 1, 75, 0
1, 249840, Note_on_c, 1, 75, 79
1, 249840, Note_on_c, 1, 87, 86
1, 249840, Note_on_c, 1, 37, 70
1, 249960, Note_on_c, 1, 37, 0
1, 249960, Note_on_c, 1, 39, 60
1, 250080, Note_on_c, 1, 39, 0
1, 250080, Note_on_c, 1, 43, 60
1, 250200, Note_on_c, 1, 43, 0
1, 250200, Note_on_c, 1, 39, 66
1, 250320, Note_on_c, 1, 39, 0
1, 250320, Note_on_c, 1, 37, 66
1, 250440, Note_on_c, 1, 37, 0
1, 250440, Note_on_c, 1, 34, 60
1, 250560, Note_on_c, 1, 34, 0
1, 250560, Note_on_c, 1, 87, 0
1, 250560, Note_on_c, 1, 75, 0
1, 250560, Note_on_c, 1, 87, 100
1, 250560, Note_on_c, 1, 32, 80
1, 250704, Note_on_c, 1, 87, 0
1, 250704, Note_on_c, 1, 92, 80
1, 250848, Note_on_c, 1, 92, 0
1, 250848, Note_on_c, 1, 96, 83
1, 250992, Note_on_c, 1, 96, 0
1, 250992, Note_on_c, 1, 92, 81
1, 251136, Note_on_c, 1, 92, 0
1, 251136, Note_on_c, 1, 87, 80
1, 251280, Note_on_c, 1, 87, 0
1, 251280, Note_on_c, 1, 84, 97
1, 251424, Note_on_c, 1, 84, 0
1, 251424, Note_on_c, 1, 87, 78
1, 251568, Note_on_c, 1, 87, 0
1, 251568, Note_on_c, 1, 92, 81
1, 251712, Note_on_c, 1, 92, 0
1, 251712, Note_on_c, 1, 87, 79
1, 251856, Note_on_c, 1, 87, 0
1, 251856, Note_on_c, 1, 84, 75
1, 252000, Note_on_c, 1, 84, 0
1, 252000, Note_on_c, 1, 80, 95
1, 252144, Note_on_c, 1, 80, 0
1, 252144, Note_on_c, 1, 84, 77
1, 252288, Note_on_c, 1, 84, 0
1, 252288, Note_on_c, 1, 87, 79
1, 252432, Note_on_c, 1, 87, 0
1, 252432, Note_on_c, 1, 84, 77
1, 252576, Note_on_c, 1, 84, 0
1, 252576, Note_on_c, 1, 80, 77
1, 252720, Note_on_c, 1, 80, 0
1, 252720, Note_on_c, 1, 32, 0
1, 252720, Note_on_c, 1, 75, 93
1, 252720, Note_on_c, 1, 36, 81
1, 252864, Note_on_c, 1, 75, 0
1, 252864, Note_on_c, 1, 80, 74
1, 253008, Note_on_c, 1, 80, 0
1, 253008, Note_on_c, 1, 84, 78
1, 253152, Note_on_c, 1, 84, 0
1, 253152, Note_on_c, 1, 80, 74
1, 253296, Note_on_c, 1, 80, 0
1, 253296, Note_on_c, 1, 75, 74
1, 253320, Note_on_c, 1, 36, 0
1, 253320, Note_on_c, 1, 39, 73
1, 253440, Note_on_c, 1, 39, 0
1, 253440, Note_on_c, 1, 75, 0
1, 253440, Note_on_c, 1, 72, 91
1, 253440, Note_on_c, 1, 44, 81
1, 253584, Note_on_c, 1, 72, 0
1, 253584, Note_on_c, 1, 75, 73
1, 253728, Note_on_c, 1, 75, 0
1, 253728, Note_on_c, 1, 80, 77
1, 253872, Note_on_c, 1, 80, 0
1, 253872, Note_on_c, 1, 75, 74
1, 254016, Note_on_c, 1, 75, 0
1, 254016, Note_on_c, 1, 72, 74
1, 254160, Note_on_c, 1, 72, 0
1, 254160, Note_on_c, 1, 44, 0
1, 254160, Note_on_c, 1, 68, 91
1, 254160, Note_on_c, 1, 48, 83
1, 254304, Note_on_c, 1, 68, 0
1, 254304, Note_on_c, 1, 72, 73
1, 254448, Note_on_c, 1, 72, 0
1, 254448, Note_on_c, 1, 75, 77
1, 254592, Note_on_c, 1, 75, 0
1, 254592, Note_on_c, 1, 72, 74
1, 254736, Note_on_c, 1, 72, 0
1, 254736, Note_on_c, 1, 68, 74
1, 254760, Note_on_c, 1, 48, 0
1, 254760, Note_on_c, 1, 51, 73
1, 254880, Note_on_c, 1, 51, 0
1, 254880, Note_on_c, 1, 68, 0
1, 254880, Note_on_c, 1, 63, 91
1, 254880, Note_on_c, 1, 56, 82
1, 255024, Note_on_c, 1, 63, 0
1, 255024, Note_on_c, 1, 68, 73
1, 255168, Note_on_c, 1, 68, 0
1, 255168, Note_on_c, 1, 72, 77
1, 255312, Note_on_c, 1, 72, 0
1, 255312, Note_on_c, 1, 68, 74
1, 255456, Note_on_c, 1, 68, 0
1, 255456, Note_on_c, 1, 63, 74
1, 255600, Note_on_c, 1, 63, 0
1, 255600, Note_on_c, 1, 56, 0
1, 255600, Note_on_c, 1, 60, 91
1, 255600, Note_on_c, 1, 56, 79
1, 255744, Note_on_c, 1, 60, 0
1, 255744, Note_on_c, 1, 63, 73
1, 255888, Note_on_c, 1, 63, 0
1, 255888, Note_on_c, 1, 68, 77
1, 256032, Note_on_c, 1, 68, 0
1, 256032, Note_on_c, 1, 63, 74
1, 256176, Note_on_c, 1, 63, 0
1, 256176, Note_on_c, 1, 60, 74
1, 256320, Note_on_c, 1, 60, 0
1, 256320, Note_on_c, 1, 56, 0
1, 256320, Note_on_c, 1, 66, 83
1, 256320, Note_on_c, 1, 57, 83
1, 256464, Note_on_c, 1, 57, 0
1, 256464, Note_on_c, 1, 60, 67
1, 256608, Note_on_c, 1, 60, 0
1, 256608, Note_on_c, 1, 63, 70
1, 256752, Note_on_c, 1, 63, 0
1, 256752, Note_on_c, 1, 60, 68
1, 256896, Note_on_c, 1, 60, 0
1, 256896, Note_on_c, 1, 57, 68
1, 257040, Note_on_c, 1, 57, 0
1, 257040, Note_on_c, 1, 54, 81
1, 257184, Note_on_c, 1, 54, 0
1, 257184, Note_on_c, 1, 57, 67
1, 257328, Note_on_c, 1, 57, 0
1, 257328, Note_on_c, 1, 60, 70
1, 257472, Note_on_c, 1, 60, 0
1, 257472, Note_on_c, 1, 57, 68
1, 257616, Note_on_c, 1, 57, 0
1, 257616, Note_on_c, 1, 54, 68
1, 257760, Note_on_c, 1, 54, 0
1, 257760, Note_on_c, 1, 51, 77
1, 257904, Note_on_c, 1, 51, 0
1, 257904, Note_on_c, 1, 54, 62
1, 258048, Note_on_c, 1, 54, 0
1, 258048, Note_on_c, 1, 57, 67
1, 258192, Note_on_c, 1, 57, 0
1, 258192, Note_on_c, 1, 54, 63
1, 258336, Note_on_c, 1, 54, 0
1, 258336, Note_on_c, 1, 51, 63
1, 258480, Note_on_c, 1, 51, 0
1, 258480, Note_on_c, 1, 66, 0
1, 258480, Note_on_c, 1, 72, 89
1, 258480, Note_on_c, 1, 48, 70
1, 258624, Note_on_c, 1, 48, 0
1, 258624, Note_on_c, 1, 51, 59
1, 258768, Note_on_c, 1, 51, 0
1, 258768, Note_on_c, 1, 54, 62
1, 258912, Note_on_c, 1, 54, 0
1, 258912, Note_on_c, 1, 51, 60
1, 259056, Note_on_c, 1, 51, 0
1, 259056, Note_on_c, 1, 48, 60
1, 259080, Note_on_c, 1, 72, 0
1, 259080, Note_on_c, 1, 75, 85
1, 259200, Note_on_c, 1, 75, 0
1, 259200, Note_on_c, 1, 48, 0
1, 259200, Note_on_c, 1, 78, 92
1, 259200, Note_on_c, 1, 45, 70
1, 259344, Note_on_c, 1, 45, 0
1, 259344, Note_on_c, 1, 48, 59
1, 259488, Note_on_c, 1, 48, 0
1, 259488, Note_on_c, 1, 51, 62
1, 259632, Note_on_c, 1, 51, 0
1, 259632, Note_on_c, 1, 48, 60
1, 259776, Note_on_c, 1, 48, 0
1, 259776, Note_on_c, 1, 45, 60
1, 259920, Note_on_c, 1, 45, 0
1, 259920, Note_on_c, 1, 78, 0
1, 259920, Note_on_c, 1, 84, 95
1, 259920, Note_on_c, 1, 42, 70
1, 260064, Note_on_c, 1, 42, 0
1, 260064, Note_on_c, 1, 45, 59
1, 260208, Note_on_c, 1, 45, 0
1, 260208, Note_on_c, 1, 48, 62
1, 260352, Note_on_c, 1, 48, 0
1, 260352, Note_on_c, 1, 45, 60
1, 260496, Note_on_c, 1, 45, 0
1, 260496, Note_on_c, 1, 42, 60
1, 260520, Note_on_c, 1, 84, 0
1, 260520, Note_on_c, 1, 87, 84
1, 260640, Note_on_c, 1, 87, 0
1, 260640, Note_on_c, 1, 42, 0
1, 260640, Note_on_c, 1, 90, 96
1, 260640, Note_on_c, 1, 39, 70
1, 260760, Note_on_c, 1, 39, 0
1, 260760, Note_on_c, 1, 42, 59
1, 260880, Note_on_c, 1, 42, 0
1, 260880, Note_on_c, 1, 45, 60
1, 261000, Note_on_c, 1, 45, 0
1, 261000, Note_on_c, 1, 42, 66
1, 261120, Note_on_c, 1, 42, 0
1, 261120, Note_on_c, 1, 39, 59
1, 261240, Note_on_c, 1, 39, 0
1, 261240, Note_on_c, 1, 36, 60
1, 261360, Note_on_c, 1, 36, 0
1, 261360, Note_on_c, 1, 90, 0
1, 261360, Note_on_c, 1, 90, 93
1, 261360, Note_on_c, 1, 33, 70
1, 261480, Note_on_c, 1, 33, 0
1, 261480, Note_on_c, 1, 36, 60
1, 261600, Note_on_c, 1, 36, 0
1, 261600, Note_on_c, 1, 39, 60
1, 261720, Note_on_c, 1, 39, 0
1, 261720, Note_on_c, 1, 42, 66
1, 261840, Note_on_c, 1, 42, 0
1, 261840, Note_on_c, 1, 39, 66
1, 261960, Note_on_c, 1, 39, 0
1, 261960, Note_on_c, 1, 36, 60
1, 262080, Note_on_c, 1, 36, 0
1, 262080, Note_on_c, 1, 90, 0
1, 262080, Note_on_c, 1, 90, 105
1, 262080, Note_on_c, 1, 32, 70
1, 262200, Note_on_c, 1, 32, 0
1, 262200, Note_on_c, 1, 36, 60
1, 262320, Note_on_c, 1, 36, 0
1, 262320, Note_on_c, 1, 39, 60
1, 262440, Note_on_c, 1, 39, 0
1, 262440, Note_on_c, 1, 42, 66
1, 262560, Note_on_c, 1, 42, 0
1, 262560, Note_on_c, 1, 39, 66
1, 262680, Note_on_c, 1, 39, 0
1, 262680, Note_on_c, 1, 36, 60
1, 262800, Note_on_c, 1, 36, 0
1, 262800, Note_on_c, 1, 33, 70
1, 262920, Note_on_c, 1, 33, 0
1, 262920, Note_on_c, 1, 36, 60
1, 263040, Note_on_c, 1, 36, 0
1, 263040, Note_on_c, 1, 90, 0
1, 263040, Note_on_c, 1, 90, 77
1, 263040, Note_on_c, 1, 39, 60
1, 263160, Note_on_c, 1, 39, 0
1, 263160, Note_on_c, 1, 90, 0
1, 263160, Note_on_c, 1, 87, 76
1, 263160, Note_on_c, 1, 42, 66
1, 263280, Note_on_c, 1, 42, 0
1, 263280, Note_on_c, 1, 87, 0
1, 263280, Note_on_c, 1, 84, 75
1, 263280, Note_on_c, 1, 39, 66
1, 263400, Note_on_c, 1, 39, 0
1, 263400, Note_on_c, 1, 84, 0
1, 263400, Note_on_c, 1, 78, 75
1, 263400, Note_on_c, 1, 36, 60
1, 263520, Note_on_c, 1, 36, 0
1, 263520, Note_on_c, 1, 78, 0
1, 263520, Note_on_c, 1, 90, 103
1, 263520, Note_on_c, 1, 32, 70
1, 263640, Note_on_c, 1, 32, 0
1, 263640, Note_on_c, 1, 36, 60
1, 263760, Note_on_c, 1, 36, 0
1, 263760, Note_on_c, 1, 39, 60
1, 263880, Note_on_c, 1, 39, 0
1, 263880, Note_on_c, 1, 42, 66
1, 264000, Note_on_c, 1, 42, 0
1, 264000, Note_on_c, 1, 39, 66
1, 264120, Note_on_c, 1, 39, 0
1, 264120, Note_on_c, 1, 36, 60
1, 264240, Note_on_c, 1, 36, 0
1, 264240, Note_on_c, 1, 33, 70
1, 264360, Note_on_c, 1, 33, 0
1, 264360, Note_on_c, 1, 36, 60
1, 264480, Note_on_c, 1, 36, 0
1, 264480, Note_on_c, 1, 90, 0
1, 264480, Note_on_c, 1, 78, 77
1, 264480, Note_on_c, 1, 39, 60
1, 264600, Note_on_c, 1, 39, 0
1, 264600, Note_on_c, 1, 78, 0
1, 264600, Note_on_c, 1, 75, 76
1, 264600, Note_on_c, 1, 42, 66
1, 264720, Note_on_c, 1, 42, 0
1, 264720, Note_on_c, 1, 75, 0
1, 264720, Note_on_c, 1, 72, 75
1, 264720, Note_on_c, 1, 39, 66
1, 264840, Note_on_c, 1, 39, 0
1, 264840, Note_on_c, 1, 72, 0
1, 264840, Note_on_c, 1, 66, 75
1, 264840, Note_on_c, 1, 36, 60
1, 264960, Note_on_c, 1, 36, 0
1, 264960, Note_on_c, 1, 66, 0
1, 264960, Note_on_c, 1, 78, 94
1, 264960, Note_on_c, 1, 32, 70
1, 265080, Note_on_c, 1, 32, 0
1, 265080, Note_on_c, 1, 36, 60
1, 265200, Note_on_c, 1, 36, 0
1, 265200, Note_on_c, 1, 39, 60
1, 265320, Note_on_c, 1, 39, 0
1, 265320, Note_on_c, 1, 42, 60
1, 265440, Note_on_c, 1, 42, 0
1, 265440, Note_on_c, 1, 39, 66
1, 265560, Note_on_c, 1, 39, 0
1, 265560, Note_on_c, 1, 36, 60
1, 265680, Note_on_c, 1, 36, 0
1, 265680, Note_on_c, 1, 33, 70
1, 265800, Note_on_c, 1, 33, 0
1, 265800, Note_on_c, 1, 36, 60
1, 265920, Note_on_c, 1, 36, 0
1, 265920, Note_on_c, 1, 78, 0
1, 265920, Note_on_c, 1, 66, 72
1, 265920, Note_on_c, 1, 39, 60
1, 266040, Note_on_c, 1, 39, 0
1, 266040, Note_on_c, 1, 66, 0
1, 266040, Note_on_c, 1, 63, 71
1, 266040, Note_on_c, 1, 42, 61
1, 266160, Note_on_c, 1, 42, 0
1, 266160, Note_on_c, 1, 63, 0
1, 266160, Note_on_c, 1, 60, 69
1, 266160, Note_on_c, 1, 39, 66
1, 266280, Note_on_c, 1, 39, 0
1, 266280, Note_on_c, 1, 60, 0
1, 266280, Note_on_c, 1, 54, 69
1, 266280, Note_on_c, 1, 36, 60
1, 266400, Note_on_c, 1, 36, 0
1, 266400, Note_on_c, 1, 54, 0
1, 266400, Note_on_c, 1, 66, 91
1, 266400, Note_on_c, 1, 32, 70
1, 266520, Note_on_c, 1, 32, 0
1, 266520, Note_on_c, 1, 36, 60
1, 266640, Note_on_c, 1, 36, 0
1, 266640, Note_on_c, 1, 66, 0
1, 266640, Note_on_c, 1, 66, 74
1, 266640, Note_on_c, 1, 39, 60
1, 266760, Note_on_c, 1, 39, 0
1, 266760, Note_on_c, 1, 66, 0
1, 266760, Note_on_c, 1, 63, 70
1, 266760, Note_on_c, 1, 42, 61
1, 266880, Note_on_c, 1, 42, 0
1, 266880, Note_on_c, 1, 63, 0
1, 266880, Note_on_c, 1, 60, 70
1, 266880, Note_on_c, 1, 39, 66
1, 267000, Note_on_c, 1, 39, 0
1, 267000, Note_on_c, 1, 60, 0
1, 267000, Note_on_c, 1, 54, 69
1, 267000, Note_on_c, 1, 36, 60
1, 267120, Note_on_c, 1, 36, 0
1, 267120, Note_on_c, 1, 54, 0
1, 267120, Note_on_c, 1, 66, 89
1, 267120, Note_on_c, 1, 33, 70
1, 267240, Note_on_c, 1, 33, 0
1, 267240, Note_on_c, 1, 36, 60
1, 267360, Note_on_c, 1, 36, 0
1, 267360, Note_on_c, 1, 66, 0
1, 267360, Note_on_c, 1, 66, 74
1, 267360, Note_on_c, 1, 39, 60
1, 267480, Note_on_c, 1, 39, 0
1, 267480, Note_on_c, 1, 66, 0
1, 267480, Note_on_c, 1, 63, 72
1, 267480, Note_on_c, 1, 42, 60
1, 267600, Note_on_c, 1, 42, 0
1, 267600, Note_on_c, 1, 63, 0
1, 267600, Note_on_c, 1, 60, 72
1, 267600, Note_on_c, 1, 39, 66
1, 267720, Note_on_c, 1, 39, 0
1, 267720, Note_on_c, 1, 60, 0
1, 267720, Note_on_c, 1, 54, 71
1, 267720, Note_on_c, 1, 36, 60
1, 267840, Note_on_c, 1, 36, 0
1, 267840, Note_on_c, 1, 54, 0
1, 267840, Note_on_c, 1, 66, 84
1, 267840, Note_on_c, 1, 32, 60
1, 267840, Note_on_c, 1, 44, 60
1, 268080, Note_on_c, 1, 44, 0
1, 268080, Note_on_c, 1, 32, 0
1, 268080, Note_on_c, 1, 56, 36
1, 268300, Note_on_c, 1, 56, 0
1, 268320, Note_on_c, 1, 56, 36
1, 268540, Note_on_c, 1, 56, 0
1, 268560, Note_on_c, 1, 66, 0
1, 268560, Note_on_c, 1, 56, 39
1, 268780, Note_on_c, 1, 56, 0
1, 268800, Note_on_c, 1, 56, 37
1, 269020, Note_on_c, 1, 56, 0
1, 269040, Note_on_c, 1, 56, 36
1, 269260, Note_on_c, 1, 56, 0
1, 269280, Note_on_c, 1, 56, 39
1, 269500, Note_on_c, 1, 56, 0
1, 269520, Note_on_c, 1, 56, 35
1, 269740, Note_on_c, 1, 56, 0
1, 269760, Note_on_c, 1, 56, 35
1, 269980, Note_on_c, 1, 56, 0
1, 270000, Note_on_c, 1, 56, 39
1, 270220, Note_on_c, 1, 56, 0
1, 270240, Note_on_c, 1, 56, 36
1, 270460, Note_on_c, 1, 56, 0
1, 270480, Note_on_c, 1, 56, 36
1, 270700, Note_on_c, 1, 56, 0
1, 270720, Note_on_c, 1, 63, 58
1, 270720, Note_on_c, 1, 60, 58
1, 270960, Note_on_c, 1, 56, 36
1, 271180, Note_on_c, 1, 56, 0
1, 271200, Note_on_c, 1, 56, 36
1, 271420, Note_on_c, 1, 56, 0
1, 271440, Note_on_c, 1, 60, 0
1, 271440, Note_on_c, 1, 63, 0
1, 271440, Note_on_c, 1, 56, 39
1, 271660, Note_on_c, 1, 56, 0
1, 271680, Note_on_c, 1, 56, 37
1, 271900, Note_on_c, 1, 56, 0
1, 271920, Note_on_c, 1, 56, 36
1, 272140, Note_on_c, 1, 56, 0
1, 272160, Note_on_c, 1, 72, 59
1, 272160, Note_on_c, 1, 75, 59
1, 272160, Note_on_c, 1, 54, 39
1, 272400, Note_on_c, 1, 54, 0
1, 272400, Note_on_c, 1, 56, 35
1, 272620, Note_on_c, 1, 56, 0
1, 272640, Note_on_c, 1, 56, 35
1, 272860, Note_on_c, 1, 56, 0
1, 272880, Note_on_c, 1, 75, 0
1, 272880, Note_on_c, 1, 72, 0
1, 272880, Note_on_c, 1, 56, 39
1, 273100, Note_on_c, 1, 56, 0
1, 273120, Note_on_c, 1, 56, 36
1, 273340, Note_on_c, 1, 56, 0
1, 273360, Note_on_c, 1, 56, 36
1, 273580, Note_on_c, 1, 56, 0
1, 273600, Note_on_c, 1, 65, 55
1, 273600, Note_on_c, 1, 61, 55
1, 273840, Note_on_c, 1, 56, 36
1, 274060, Note_on_c, 1, 56, 0
1, 274080, Note_on_c, 1, 56, 36
1, 274300, Note_on_c, 1, 56, 0
1, 274320, Note_on_c, 1, 61, 0
1, 274320, Note_on_c, 1, 65, 0
1, 274320, Note_on_c, 1, 56, 39
1, 274540, Note_on_c, 1, 56, 0
1, 274560, Note_on_c, 1, 56, 37
1, 274780, Note_on_c, 1, 56, 0
1, 274800, Note_on_c, 1, 56, 36
1, 275020, Note_on_c, 1, 56, 0
1, 275040, Note_on_c, 1, 73, 58
1, 275040, Note_on_c, 1, 77, 58
1, 275040, Note_on_c, 1, 53, 39
1, 275280, Note_on_c, 1, 53, 0
1, 275280, Note_on_c, 1, 56, 35
1, 275500, Note_on_c, 1, 56, 0
1, 275520, Note_on_c, 1, 56, 35
1, 275740, Note_on_c, 1, 56, 0
1, 275760, Note_on_c, 1, 77, 0
1, 275760, Note_on_c, 1, 73, 0
1, 275760, Note_on_c, 1, 56, 39
1, 275980, Note_on_c, 1, 56, 0
1, 276000, Note_on_c, 1, 56, 36
1, 276220, Note_on_c, 1, 56, 0
1, 276240, Note_on_c, 1, 56, 36
1, 276460, Note_on_c, 1, 56, 0
1, 276480, Note_on_c, 1, 61, 61
1, 276480, Note_on_c, 1, 70, 61
1, 276480, Note_on_c, 1, 65, 61
1, 276720, Note_on_c, 1, 56, 38
1, 276940, Note_on_c, 1, 56, 0
1, 276960, Note_on_c, 1, 56, 38
1, 277180, Note_on_c, 1, 56, 0
1, 277200, Note_on_c, 1, 53, 40
1, 277200, Note_on_c, 1, 49, 40
1, 277440, Note_on_c, 1, 49, 0
1, 277440, Note_on_c, 1, 53, 0
1, 277440, Note_on_c, 1, 56, 37
1, 277660, Note_on_c, 1, 56, 0
1, 277680, Note_on_c, 1, 56, 37
1, 277900, Note_on_c, 1, 56, 0
1, 277920, Note_on_c, 1, 49, 37
1, 277920, Note_on_c, 1, 53, 37
1, 278160, Note_on_c, 1, 53, 0
1, 278160, Note_on_c, 1, 49, 0
1, 278160, Note_on_c, 1, 56, 37
1, 278380, Note_on_c, 1, 56, 0
1, 278400, Note_on_c, 1, 56, 37
1, 278620, Note_on_c, 1, 56, 0
1, 278640, Note_on_c, 1, 49, 37
1, 278640, Note_on_c, 1, 53, 37
1, 278880, Note_on_c, 1, 53, 0
1, 278880, Note_on_c, 1, 49, 0
1, 278880, Note_on_c, 1, 56, 37
1, 279100, Note_on_c, 1, 56, 0
1, 279120, Note_on_c, 1, 56, 37
1, 279340, Note_on_c, 1, 56, 0
1, 279360, Note_on_c, 1, 61, 0
1, 279360, Note_on_c, 1, 70, 0
1, 279360, Note_on_c, 1, 65, 0
1, 279360, Note_on_c, 1, 60, 52
1, 279360, Note_on_c, 1, 63, 52
1, 279360, Note_on_c, 1, 68, 52
1, 279360, Note_on_c, 1, 48, 39
1, 279360, Note_on_c, 1, 51, 39
1, 279600, Note_on_c, 1, 51, 0
1, 279600, Note_on_c, 1, 48, 0
1, 279600, Note_on_c, 1, 56, 37
1, 279820, Note_on_c, 1, 56, 0
1, 279840, Note_on_c, 1, 68, 0
1, 279840, Note_on_c, 1, 63, 0
1, 279840, Note_on_c, 1, 60, 0
1, 279840, Note_on_c, 1, 56, 37
1, 280060, Note_on_c, 1, 56, 0
1, 280080, Note_on_c, 1, 56, 38
1, 280300, Note_on_c, 1, 56, 0
1, 280320, Note_on_c, 1, 56, 37
1, 280540, Note_on_c, 1, 56, 0
1, 280560, Note_on_c, 1, 56, 37
1, 280780, Note_on_c, 1, 56, 0
1, 280800, Note_on_c, 1, 56, 37
1, 281020, Note_on_c, 1, 56, 0
1, 281040, Note_on_c, 1, 56, 37
1, 281260, Note_on_c, 1, 56, 0
1, 281280, Note_on_c, 1, 56, 37
1, 281500, Note_on_c, 1, 56, 0
1, 281520, Note_on_c, 1, 60, 55
1, 281520, Note_on_c, 1, 63, 55
1, 281520, Note_on_c, 1, 56, 38
1, 281740, Note_on_c, 1, 56, 0
1, 281760, Note_on_c, 1, 56, 37
1, 281980, Note_on_c, 1, 56, 0
1, 282000, Note_on_c, 1, 56, 37
1, 282120, Note_on_c, 1, 63, 0
1, 282120, Note_on_c, 1, 60, 0
1, 282120, Note_on_c, 1, 60, 50
1, 282120, Note_on_c, 1, 63, 50
1, 282220, Note_on_c, 1, 56, 0
1, 282240, Note_on_c, 1, 63, 0
1, 282240, Note_on_c, 1, 60, 0
1, 282240, Note_on_c, 1, 61, 55
1, 282240, Note_on_c, 1, 65, 55
1, 282240, Note_on_c, 1, 56, 39
1, 282460, Note_on_c, 1, 56, 0
1, 282480, Note_on_c, 1, 56, 37
1, 282700, Note_on_c, 1, 56, 0
1, 282720, Note_on_c, 1, 65, 0
1, 282720, Note_on_c, 1, 61, 0
1, 282720, Note_on_c, 1, 60, 50
1, 282720, Note_on_c, 1, 63, 50
1, 282720, Note_on_c, 1, 56, 37
1, 282940, Note_on_c, 1, 56, 0
1, 282960, Note_on_c, 1, 63, 0
1, 282960, Note_on_c, 1, 60, 0
1, 282960, Note_on_c, 1, 56, 38
1, 283180, Note_on_c, 1, 56, 0
1, 283200, Note_on_c, 1, 56, 37
1, 283420, Note_on_c, 1, 56, 0
1, 283440, Note_on_c, 1, 72, 58
1, 283440, Note_on_c, 1, 75, 58
1, 283440, Note_on_c, 1, 56, 37
1, 283660, Note_on_c, 1, 56, 0
1, 283680, Note_on_c, 1, 75, 0
1, 283680, Note_on_c, 1, 72, 0
1, 283680, Note_on_c, 1, 56, 38
1, 283900, Note_on_c, 1, 56, 0
1, 283920, Note_on_c, 1, 56, 39
1, 284140, Note_on_c, 1, 56, 0
1, 284160, Note_on_c, 1, 87, 56
1, 284160, Note_on_c, 1, 84, 56
1, 284400, Note_on_c, 1, 84, 0
1, 284400, Note_on_c, 1, 87, 0
1, 284400, Note_on_c, 1, 54, 44
1, 284400, Note_on_c, 1, 51, 44
1, 284640, Note_on_c, 1, 51, 0
1, 284640, Note_on_c, 1, 54, 0
1, 284640, Note_on_c, 1, 56, 37
1, 284860, Note_on_c, 1, 56, 0
1, 284880, Note_on_c, 1, 56, 37
1, 285000, Note_on_c, 1, 60, 53
1, 285000, Note_on_c, 1, 63, 53
1, 285100, Note_on_c, 1, 56, 0
1, 285120, Note_on_c, 1, 63, 0
1, 285120, Note_on_c, 1, 60, 0
1, 285120, Note_on_c, 1, 63, 57
1, 285120, Note_on_c, 1, 66, 57
1, 285120, Note_on_c, 1, 56, 39
1, 285340, Note_on_c, 1, 56, 0
1, 285360, Note_on_c, 1, 56, 37
1, 285580, Note_on_c, 1, 56, 0
1, 285600, Note_on_c, 1, 66, 0
1, 285600, Note_on_c, 1, 63, 0
1, 285600, Note_on_c, 1, 65, 52
1, 285600, Note_on_c, 1, 61, 52
1, 285600, Note_on_c, 1, 56, 37
1, 285820, Note_on_c, 1, 56, 0
1, 285840, Note_on_c, 1, 61, 0
1, 285840, Note_on_c, 1, 65, 0
1, 285840, Note_on_c, 1, 56, 37
1, 286060, Note_on_c, 1, 56, 0
1, 286080, Note_on_c, 1, 56, 37
1, 286300, Note_on_c, 1, 56, 0
1, 286320, Note_on_c, 1, 73, 60
1, 286320, Note_on_c, 1, 77, 60
1, 286320, Note_on_c, 1, 56, 37
1, 286540, Note_on_c, 1, 56, 0
1, 286560, Note_on_c, 1, 77, 0
1, 286560, Note_on_c, 1, 73, 0
1, 286560, Note_on_c, 1, 56, 38
1, 286780, Note_on_c, 1, 56, 0
1, 286800, Note_on_c, 1, 56, 37
1, 287020, Note_on_c, 1, 56, 0
1, 287040, Note_on_c, 1, 89, 56
1, 287040, Note_on_c, 1, 85, 56
1, 287040, Note_on_c, 1, 56, 37
1, 287260, Note_on_c, 1, 56, 0
1, 287275, Note_on_c, 1, 85, 0
1, 287275, Note_on_c, 1, 89, 0
1, 287280, Note_on_c, 1, 49, 44
1, 287280, Note_on_c, 1, 53, 48
1, 287520, Note_on_c, 1, 53, 0
1, 287520, Note_on_c, 1, 49, 0
1, 287520, Note_on_c, 1, 56, 37
1, 287740, Note_on_c, 1, 56, 0
1, 287760, Note_on_c, 1, 56, 37
1, 287880, Note_on_c, 1, 65, 52
1, 287880, Note_on_c, 1, 61, 52
1, 287980, Note_on_c, 1, 56, 0
1, 288000, Note_on_c, 1, 61, 0
1, 288000, Note_on_c, 1, 65, 0
1, 288000, Note_on_c, 1, 61, 61
1, 288000, Note_on_c, 1, 65, 61
1, 288000, Note_on_c, 1, 70, 61
1, 288240, Note_on_c, 1, 56, 38
1, 288460, Note_on_c, 1, 56, 0
1, 288480, Note_on_c, 1, 56, 38
1, 288700, Note_on_c, 1, 56, 0
1, 288720, Note_on_c, 1, 53, 40
1, 288720, Note_on_c, 1, 49, 40
1, 288960, Note_on_c, 1, 49, 0
1, 288960, Note_on_c, 1, 53, 0
1, 288960, Note_on_c, 1, 56, 37
1, 289180, Note_on_c, 1, 56, 0
1, 289200, Note_on_c, 1, 56, 37
1, 289420, Note_on_c, 1, 56, 0
1, 289440, Note_on_c, 1, 49, 37
1, 289440, Note_on_c, 1, 53, 37
1, 289680, Note_on_c, 1, 53, 0
1, 289680, Note_on_c, 1, 49, 0
1, 289680, Note_on_c, 1, 56, 37
1, 289900, Note_on_c, 1, 56, 0
1, 289920, Note_on_c, 1, 56, 37
1, 290140, Note_on_c, 1, 56, 0
1, 290160, Note_on_c, 1, 49, 36
1, 290160, Note_on_c, 1, 53, 36
1, 290400, Note_on_c, 1, 53, 0
1, 290400, Note_on_c, 1, 49, 0
1, 290400, Note_on_c, 1, 56, 37
1, 290620, Note_on_c, 1, 56, 0
1, 290640, Note_on_c, 1, 56, 37
1, 290860, Note_on_c, 1, 56, 0
1, 290880, Note_on_c, 1, 61, 0
1, 290880, Note_on_c, 1, 65, 0
1, 290880, Note_on_c, 1, 70, 0
1, 290880, Note_on_c, 1, 60, 56
1, 290880, Note_on_c, 1, 63, 56
1, 290880, Note_on_c, 1, 68, 56
1, 291120, Note_on_c, 1, 56, 38
1, 291340, Note_on_c, 1, 56, 0
1, 291360, Note_on_c, 1, 60, 0
1, 291360, Note_on_c, 1, 63, 0
1, 291360, Note_on_c, 1, 68, 0
1, 291360, Note_on_c, 1, 56, 38
1, 291580, Note_on_c, 1, 56, 0
1, 291600, Note_on_c, 1, 51, 40
1, 291600, Note_on_c, 1, 48, 40
1, 291840, Note_on_c, 1, 48, 0
1, 291840, Note_on_c, 1, 51, 0
1, 291840, Note_on_c, 1, 56, 37
1, 292060, Note_on_c, 1, 56, 0
1, 292080, Note_on_c, 1, 56, 37
1, 292300, Note_on_c, 1, 56, 0
1, 292320, Note_on_c, 1, 61, 52
1, 292320, Note_on_c, 1, 64, 52
1, 292320, Note_on_c, 1, 69, 52
1, 292560, Note_on_c, 1, 56, 37
1, 292780, Note_on_c, 1, 56, 0
1, 292800, Note_on_c, 1, 56, 37
1, 293020, Note_on_c, 1, 56, 0
1, 293040, Note_on_c, 1, 49, 36
1, 293040, Note_on_c, 1, 52, 36
1, 293280, Note_on_c, 1, 52, 0
1, 293280, Note_on_c, 1, 49, 0
1, 293280, Note_on_c, 1, 56, 37
1, 293500, Note_on_c, 1, 56, 0
1, 293520, Note_on_c, 1, 56, 37
1, 293740, Note_on_c, 1, 56, 0
1, 293760, Note_on_c, 1, 61, 0
1, 293760, Note_on_c, 1, 64, 0
1, 293760, Note_on_c, 1, 69, 0
1, 293760, Note_on_c, 1, 60, 57
1, 293760, Note_on_c, 1, 68, 57
1, 293760, Note_on_c, 1, 63, 57
1, 294000, Note_on_c, 1, 56, 38
1, 294220, Note_on_c, 1, 56, 0
1, 294240, Note_on_c, 1, 60, 0
1, 294240, Note_on_c, 1, 68, 0
1, 294240, Note_on_c, 1, 63, 0
1, 294240, Note_on_c, 1, 56, 38
1, 294460, Note_on_c, 1, 56, 0
1, 294480, Note_on_c, 1, 51, 40
1, 294480, Note_on_c, 1, 48, 40
1, 294720, Note_on_c, 1, 48, 0
1, 294720, Note_on_c, 1, 51, 0
1, 294720, Note_on_c, 1, 56, 37
1, 294940, Note_on_c, 1, 56, 0
1, 294960, Note_on_c, 1, 56, 37
1, 295180, Note_on_c, 1, 56, 0
1, 295200, Note_on_c, 1, 73, 58
1, 295200, Note_on_c, 1, 81, 58
1, 295200, Note_on_c, 1, 76, 58
1, 295440, Note_on_c, 1, 56, 37
1, 295660, Note_on_c, 1, 56, 0
1, 295680, Note_on_c, 1, 56, 37
1, 295900, Note_on_c, 1, 56, 0
1, 295920, Note_on_c, 1, 49, 36
1, 295920, Note_on_c, 1, 52, 36
1, 296160, Note_on_c, 1, 52, 0
1, 296160, Note_on_c, 1, 49, 0
1, 296160, Note_on_c, 1, 56, 37
1, 296380, Note_on_c, 1, 56, 0
1, 296400, Note_on_c, 1, 56, 37
1, 296620, Note_on_c, 1, 56, 0
1, 296640, Note_on_c, 1, 73, 0
1, 296640, Note_on_c, 1, 81, 0
1, 296640, Note_on_c, 1, 76, 0
1, 296640, Note_on_c, 1, 75, 56
1, 296640, Note_on_c, 1, 80, 56
1, 296640, Note_on_c, 1, 72, 56
1, 296880, Note_on_c, 1, 56, 37
1, 297100, Note_on_c, 1, 56, 0
1, 297120, Note_on_c, 1, 75, 0
1, 297120, Note_on_c, 1, 80, 0
1, 297120, Note_on_c, 1, 72, 0
1, 297120, Note_on_c, 1, 56, 36
1, 297340, Note_on_c, 1, 56, 0
1, 297360, Note_on_c, 1, 51, 38
1, 297360, Note_on_c, 1, 48, 38
1, 297600, Note_on_c, 1, 48, 0
1, 297600, Note_on_c, 1, 51, 0
1, 297600, Note_on_c, 1, 56, 34
1, 297820, Note_on_c, 1, 56, 0
1, 297840, Note_on_c, 1, 56, 34
1, 298060, Note_on_c, 1, 56, 0
1, 298080, Note_on_c, 1, 62, 46
1, 298080, Note_on_c, 1, 59, 46
1, 298080, Note_on_c, 1, 68, 46
1, 298320, Note_on_c, 1, 56, 32
1, 298540, Note_on_c, 1, 56, 0
1, 298560, Note_on_c, 1, 62, 0
1, 298560, Note_on_c, 1, 59, 0
1, 298560, Note_on_c, 1, 68, 0
1, 298560, Note_on_c, 1, 56, 32
1, 298780, Note_on_c, 1, 56, 0
1, 298800, Note_on_c, 1, 47, 30
1, 298800, Note_on_c, 1, 50, 30
1, 299040, Note_on_c, 1, 50, 0
1, 299040, Note_on_c, 1, 47, 0
1, 299040, Note_on_c, 1, 56, 31
1, 299260, Note_on_c, 1, 56, 0
1, 299280, Note_on_c, 1, 56, 30
1, 299500, Note_on_c, 1, 56, 0
1, 299520, Note_on_c, 1, 61, 44
1, 299520, Note_on_c, 1, 58, 44
1, 299520, Note_on_c, 1, 67, 44
1, 299760, Note_on_c, 1, 56, 31
1, 299980, Note_on_c, 1, 56, 0
1, 300000, Note_on_c, 1, 61, 0
1, 300000, Note_on_c, 1, 58, 0
1, 300000, Note_on_c, 1, 67, 0
1, 300000, Note_on_c, 1, 56, 30
1, 300220, Note_on_c, 1, 56, 0
1, 300240, Note_on_c, 1, 49, 32
1, 300240, Note_on_c, 1, 46, 32
1, 300480, Note_on_c, 1, 46, 0
1, 300480, Note_on_c, 1, 49, 0
1, 300480, Note_on_c, 1, 56, 28
1, 300700, Note_on_c, 1, 56, 0
1, 300720, Note_on_c, 1, 56, 28
1, 300940, Note_on_c, 1, 56, 0
1, 300960, Note_on_c, 1, 57, 39
1, 300960, Note_on_c, 1, 60, 39
1, 300960, Note_on_c, 1, 66, 39
1, 301200, Note_on_c, 1, 56, 27
1, 301420, Note_on_c, 1, 56, 0
1, 301440, Note_on_c, 1, 57, 0
1, 301440, Note_on_c, 1, 60, 0
1, 301440, Note_on_c, 1, 66, 0
1, 301440, Note_on_c, 1, 56, 27
1, 301660, Note_on_c, 1, 56, 0
1, 301680, Note_on_c, 1, 48, 25
1, 301680, Note_on_c, 1, 45, 25
1, 301920, Note_on_c, 1, 45, 0
1, 301920, Note_on_c, 1, 48, 0
1, 301920, Note_on_c, 1, 56, 26
1, 302140, Note_on_c, 1, 56, 0
1, 302160, Note_on_c, 1, 56, 25
1, 302380, Note_on_c, 1, 56, 0
1, 302400, Note_on_c, 1, 66, 47
1, 302400, Note_on_c, 1, 60, 47
1, 302400, Note_on_c, 1, 56, 47
1, 302640, Note_on_c, 1, 44, 44
1, 302880, Note_on_c, 1, 56, 0
1, 302880, Note_on_c, 1, 66, 0
1, 302880, Note_on_c, 1, 60, 0
1, 302880, Note_on_c, 1, 43, 39
1, 303120, Note_on_c, 1, 43, 0
1, 303120, Note_on_c, 1, 44, 0
1, 303120, Note_on_c, 1, 44, 44
1, 303360, Note_on_c, 1, 46, 41
1, 303600, Note_on_c, 1, 46, 0
1, 303600, Note_on_c, 1, 44, 0
1, 303600, Note_on_c, 1, 44, 45
1, 303840, Note_on_c, 1, 75, 67
1, 303840, Note_on_c, 1, 42, 41
1, 304080, Note_on_c, 1, 42, 0
1, 304080, Note_on_c, 1, 75, 0
1, 304080, Note_on_c, 1, 44, 0
1, 304080, Note_on_c, 1, 77, 61
1, 304080, Note_on_c, 1, 44, 41
1, 304320, Note_on_c, 1, 77, 0
1, 304320, Note_on_c, 1, 75, 59
1, 304320, Note_on_c, 1, 42, 48
1, 304560, Note_on_c, 1, 42, 0
1, 304560, Note_on_c, 1, 75, 0
1, 304560, Note_on_c, 1, 73, 69
1, 304560, Note_on_c, 1, 41, 42
1, 304800, Note_on_c, 1, 41, 0
1, 304800, Note_on_c, 1, 73, 0
1, 304800, Note_on_c, 1, 75, 66
1, 304800, Note_on_c, 1, 42, 42
1, 305040, Note_on_c, 1, 42, 0
1, 305040, Note_on_c, 1, 75, 0
1, 305040, Note_on_c, 1, 73, 64
1, 305040, Note_on_c, 1, 41, 47
1, 305280, Note_on_c, 1, 41, 0
1, 305280, Note_on_c, 1, 73, 0
1, 305280, Note_on_c, 1, 44, 0
1, 305280, Note_on_c, 1, 72, 70
1, 305280, Note_on_c, 1, 39, 55
1, 305520, Note_on_c, 1, 39, 0
1, 305520, Note_on_c, 1, 72, 0
1, 305520, Note_on_c, 1, 78, 66
1, 305520, Note_on_c, 1, 44, 48
1, 305760, Note_on_c, 1, 78, 0
1, 305760, Note_on_c, 1, 43, 42
1, 306000, Note_on_c, 1, 43, 0
1, 306000, Note_on_c, 1, 44, 0
1, 306000, Note_on_c, 1, 44, 48
1, 306240, Note_on_c, 1, 46, 45
1, 306480, Note_on_c, 1, 46, 0
1, 306480, Note_on_c, 1, 44, 0
1, 306480, Note_on_c, 1, 44, 49
1, 306720, Note_on_c, 1, 78, 73
1, 306720, Note_on_c, 1, 39, 46
1, 306960, Note_on_c, 1, 39, 0
1, 306960, Note_on_c, 1, 78, 0
1, 306960, Note_on_c, 1, 80, 70
1, 306960, Note_on_c, 1, 41, 46
1, 307200, Note_on_c, 1, 41, 0
1, 307200, Note_on_c, 1, 80, 0
1, 307200, Note_on_c, 1, 78, 70
1, 307200, Note_on_c, 1, 39, 50
1, 307440, Note_on_c, 1, 39, 0
1, 307440, Note_on_c, 1, 78, 0
1, 307440, Note_on_c, 1, 77, 74
1, 307440, Note_on_c, 1, 37, 47
1, 307680, Note_on_c, 1, 37, 0
1, 307680, Note_on_c, 1, 77, 0
1, 307680, Note_on_c, 1, 78, 71
1, 307680, Note_on_c, 1, 39, 47
1, 307920, Note_on_c, 1, 39, 0
1, 307920, Note_on_c, 1, 78, 0
1, 307920, Note_on_c, 1, 77, 68
1, 307920, Note_on_c, 1, 37, 51
1, 308160, Note_on_c, 1, 37, 0
1, 308160, Note_on_c, 1, 77, 0
1, 308160, Note_on_c, 1, 44, 0
1, 308160, Note_on_c, 1, 75, 81
1, 308160, Note_on_c, 1, 36, 57
1, 308400, Note_on_c, 1, 36, 0
1, 308400, Note_on_c, 1, 75, 0
1, 308400, Note_on_c, 1, 87, 72
1, 308400, Note_on_c, 1, 44, 52
1, 308640, Note_on_c, 1, 87, 0
1, 308640, Note_on_c, 1, 43, 47
1, 308880, Note_on_c, 1, 43, 0
1, 308880, Note_on_c, 1, 44, 0
1, 308880, Note_on_c, 1, 44, 52
1, 309120, Note_on_c, 1, 46, 49
1, 309360, Note_on_c, 1, 46, 0
1, 309360, Note_on_c, 1, 44, 0
1, 309360, Note_on_c, 1, 44, 53
1, 309600, Note_on_c, 1, 87, 83
1, 309600, Note_on_c, 1, 36, 50
1, 309840, Note_on_c, 1, 36, 0
1, 309840, Note_on_c, 1, 87, 0
1, 309840, Note_on_c, 1, 89, 77
1, 309840, Note_on_c, 1, 37, 50
1, 310080, Note_on_c, 1, 37, 0
1, 310080, Note_on_c, 1, 89, 0
1, 310080, Note_on_c, 1, 87, 73
1, 310080, Note_on_c, 1, 36, 54
1, 310320, Note_on_c, 1, 36, 0
1, 310320, Note_on_c, 1, 87, 0
1, 310320, Note_on_c, 1, 85, 77
1, 310320, Note_on_c, 1, 34, 50
1, 310560, Note_on_c, 1, 34, 0
1, 310560, Note_on_c, 1, 85, 0
1, 310560, Note_on_c, 1, 87, 75
1, 310560, Note_on_c, 1, 36, 51
1, 310800, Note_on_c, 1, 36, 0
1, 310800, Note_on_c, 1, 87, 0
1, 310800, Note_on_c, 1, 85, 73
1, 310800, Note_on_c, 1, 34, 51
1, 311040, Note_on_c, 1, 34, 0
1, 311040, Note_on_c, 1, 85, 0
1, 311040, Note_on_c, 1, 44, 0
1, 311040, Note_on_c, 1, 84, 76
1, 311040, Note_on_c, 1, 32, 55
1, 311280, Note_on_c, 1, 32, 0
1, 311280, Note_on_c, 1, 84, 0
1, 311280, Note_on_c, 1, 85, 75
1, 311280, Note_on_c, 1, 31, 49
1, 311520, Note_on_c, 1, 31, 0
1, 311520, Note_on_c, 1, 85, 0
1, 311520, Note_on_c, 1, 84, 72
1, 311520, Note_on_c, 1, 32, 49
1, 311760, Note_on_c, 1, 32, 0
1, 311760, Note_on_c, 1, 84, 0
1, 311760, Note_on_c, 1, 82, 76
1, 311760, Note_on_c, 1, 34, 53
1, 312000, Note_on_c, 1, 34, 0
1, 312000, Note_on_c, 1, 82, 0
1, 312000, Note_on_c, 1, 84, 73
1, 312000, Note_on_c, 1, 32, 46
1, 312240, Note_on_c, 1, 32, 0
1, 312240, Note_on_c, 1, 84, 0
1, 312240, Note_on_c, 1, 82, 69
1, 312240, Note_on_c, 1, 34, 45
1, 312480, Note_on_c, 1, 34, 0
1, 312480, Note_on_c, 1, 82, 0
1, 312480, Note_on_c, 1, 80, 74
1, 312480, Note_on_c, 1, 35, 50
1, 312720, Note_on_c, 1, 35, 0
1, 312720, Note_on_c, 1, 80, 0
1, 312720, Note_on_c, 1, 82, 70
1, 312720, Note_on_c, 1, 34, 44
1, 312960, Note_on_c, 1, 34, 0
1, 312960, Note_on_c, 1, 82, 0
1, 312960, Note_on_c, 1, 80, 67
1, 312960, Note_on_c, 1, 35, 42
1, 313200, Note_on_c, 1, 35, 0
1, 313200, Note_on_c, 1, 80, 0
1, 313200, Note_on_c, 1, 78, 72
1, 313200, Note_on_c, 1, 36, 47
1, 313440, Note_on_c, 1, 36, 0
1, 313440, Note_on_c, 1, 78, 0
1, 313440, Note_on_c, 1, 80, 66
1, 313440, Note_on_c, 1, 35, 40
1, 313680, Note_on_c, 1, 35, 0
1, 313680, Note_on_c, 1, 80, 0
1, 313680, Note_on_c, 1, 78, 63
1, 313680, Note_on_c, 1, 36, 40
1, 313920, Note_on_c, 1, 36, 0
1, 313920, Note_on_c, 1, 78, 0
1, 313920, Note_on_c, 1, 77, 73
1, 313920, Note_on_c, 1, 37, 36
1, 314160, Note_on_c, 1, 37, 0
1, 314160, Note_on_c, 1, 49, 32
1, 314160, Note_on_c, 1, 41, 26
1, 314160, Note_on_c, 1, 44, 26
1, 314400, Note_on_c, 1, 44, 0
1, 314400, Note_on_c, 1, 77, 0
1, 314400, Note_on_c, 1, 49, 0
1, 314400, Note_on_c, 1, 41, 0
1, 314400, Note_on_c, 1, 37, 33
1, 314640, Note_on_c, 1, 37, 0
1, 314640, Note_on_c, 1, 49, 36
1, 314640, Note_on_c, 1, 41, 28
1, 314640, Note_on_c, 1, 44, 28
1, 314880, Note_on_c, 1, 44, 0
1, 314880, Note_on_c, 1, 41, 0
1, 314880, Note_on_c, 1, 49, 0
1, 314880, Note_on_c, 1, 37, 33
1, 315120, Note_on_c, 1, 37, 0
1, 315120, Note_on_c, 1, 49, 33
1, 315120, Note_on_c, 1, 44, 26
1, 315120, Note_on_c, 1, 41, 26
1, 315360, Note_on_c, 1, 41, 0
1, 315360, Note_on_c, 1, 44, 0
1, 315360, Note_on_c, 1, 49, 0
1, 315360, Note_on_c, 1, 37, 36
1, 315600, Note_on_c, 1, 37, 0
1, 315600, Note_on_c, 1, 49, 33
1, 315600, Note_on_c, 1, 41, 26
1, 315600, Note_on_c, 1, 44, 26
1, 315840, Note_on_c, 1, 44, 0
1, 315840, Note_on_c, 1, 41, 0
1, 315840, Note_on_c, 1, 49, 0
1, 315840, Note_on_c, 1, 37, 33
1, 316080, Note_on_c, 1, 37, 0
1, 316080, Note_on_c, 1, 65, 55
1, 316080, Note_on_c, 1, 53, 44
1, 316080, Note_on_c, 1, 44, 28
1, 316080, Note_on_c, 1, 41, 28
1, 316080, Note_on_c, 1, 49, 36
1, 316320, Note_on_c, 1, 49, 0
1, 316320, Note_on_c, 1, 44, 0
1, 316320, Note_on_c, 1, 41, 0
1, 316320, Note_on_c, 1, 37, 33
1, 316560, Note_on_c, 1, 37, 0
1, 316560, Note_on_c, 1, 49, 35
1, 316560, Note_on_c, 1, 41, 27
1, 316560, Note_on_c, 1, 44, 27
1, 316680, Note_on_c, 1, 53, 0
1, 316680, Note_on_c, 1, 65, 0
1, 316680, Note_on_c, 1, 68, 49
1, 316680, Note_on_c, 1, 56, 39
1, 316800, Note_on_c, 1, 56, 0
1, 316800, Note_on_c, 1, 41, 0
1, 316800, Note_on_c, 1, 44, 0
1, 316800, Note_on_c, 1, 49, 0
1, 316800, Note_on_c, 1, 68, 0
1, 316800, Note_on_c, 1, 73, 53
1, 316800, Note_on_c, 1, 61, 49
1, 316800, Note_on_c, 1, 37, 36
1, 317040, Note_on_c, 1, 37, 0
1, 317040, Note_on_c, 1, 49, 32
1, 317040, Note_on_c, 1, 44, 26
1, 317040, Note_on_c, 1, 41, 26
1, 317280, Note_on_c, 1, 41, 0
1, 317280, Note_on_c, 1, 49, 0
1, 317280, Note_on_c, 1, 44, 0
1, 317280, Note_on_c, 1, 37, 33
1, 317520, Note_on_c, 1, 37, 0
1, 317520, Note_on_c, 1, 61, 0
1, 317520, Note_on_c, 1, 73, 0
1, 317520, Note_on_c, 1, 77, 57
1, 317520, Note_on_c, 1, 65, 52
1, 317520, Note_on_c, 1, 49, 36
1, 317520, Note_on_c, 1, 44, 28
1, 317520, Note_on_c, 1, 41, 28
1, 317760, Note_on_c, 1, 41, 0
1, 317760, Note_on_c, 1, 49, 0
1, 317760, Note_on_c, 1, 44, 0
1, 317760, Note_on_c, 1, 37, 33
1, 318000, Note_on_c, 1, 37, 0
1, 318000, Note_on_c, 1, 41, 26
1, 318000, Note_on_c, 1, 49, 33
1, 318000, Note_on_c, 1, 44, 26
1, 318120, Note_on_c, 1, 65, 0
1, 318120, Note_on_c, 1, 77, 0
1, 318120, Note_on_c, 1, 73, 50
1, 318120, Note_on_c, 1, 61, 46
1, 318240, Note_on_c, 1, 61, 0
1, 318240, Note_on_c, 1, 49, 0
1, 318240, Note_on_c, 1, 44, 0
1, 318240, Note_on_c, 1, 41, 0
1, 318240, Note_on_c, 1, 73, 0
1, 318240, Note_on_c, 1, 72, 53
1, 318240, Note_on_c, 1, 60, 49
1, 318240, Note_on_c, 1, 39, 36
1, 318480, Note_on_c, 1, 39, 0
1, 318480, Note_on_c, 1, 51, 33
1, 318480, Note_on_c, 1, 42, 26
1, 318480, Note_on_c, 1, 44, 26
1, 318720, Note_on_c, 1, 44, 0
1, 318720, Note_on_c, 1, 51, 0
1, 318720, Note_on_c, 1, 42, 0
1, 318720, Note_on_c, 1, 39, 33
1, 318960, Note_on_c, 1, 39, 0
1, 318960, Note_on_c, 1, 60, 0
1, 318960, Note_on_c, 1, 72, 0
1, 318960, Note_on_c, 1, 63, 52
1, 318960, Note_on_c, 1, 75, 57
1, 318960, Note_on_c, 1, 44, 28
1, 318960, Note_on_c, 1, 42, 28
1, 318960, Note_on_c, 1, 51, 36
1, 319200, Note_on_c, 1, 51, 0
1, 319200, Note_on_c, 1, 44, 0
1, 319200, Note_on_c, 1, 42, 0
1, 319200, Note_on_c, 1, 39, 33
1, 319440, Note_on_c, 1, 39, 0
1, 319440, Note_on_c, 1, 42, 27
1, 319440, Note_on_c, 1, 44, 27
1, 319440, Note_on_c, 1, 51, 35
1, 319560, Note_on_c, 1, 75, 0
1, 319560, Note_on_c, 1, 63, 0
1, 319560, Note_on_c, 1, 60, 46
1, 319560, Note_on_c, 1, 72, 50
1, 319680, Note_on_c, 1, 72, 0
1, 319680, Note_on_c, 1, 44, 0
1, 319680, Note_on_c, 1, 51, 0
1, 319680, Note_on_c, 1, 42, 0
1, 319680, Note_on_c, 1, 60, 0
1, 319680, Note_on_c, 1, 73, 53
1, 319680, Note_on_c, 1, 61, 49
1, 319680, Note_on_c, 1, 41, 36
1, 319920, Note_on_c, 1, 41, 0
1, 319920, Note_on_c, 1, 44, 26
1, 319920, Note_on_c, 1, 53, 32
1, 319920, Note_on_c, 1, 49, 26
1, 320160, Note_on_c, 1, 49, 0
1, 320160, Note_on_c, 1, 44, 0
1, 320160, Note_on_c, 1, 53, 0
1, 320160, Note_on_c, 1, 41, 33
1, 320400, Note_on_c, 1, 41, 0
1, 320400, Note_on_c, 1, 61, 0
1, 320400, Note_on_c, 1, 73, 0
1, 320400, Note_on_c, 1, 56, 52
1, 320400, Note_on_c, 1, 68, 52
1, 320400, Note_on_c, 1, 53, 36
1, 320400, Note_on_c, 1, 49, 28
1, 320400, Note_on_c, 1, 44, 28
1, 320640, Note_on_c, 1, 44, 0
1, 320640, Note_on_c, 1, 53, 0
1, 320640, Note_on_c, 1, 49, 0
1, 320640, Note_on_c, 1, 41, 33
1, 320880, Note_on_c, 1, 41, 0
1, 320880, Note_on_c, 1, 44, 26
1, 320880, Note_on_c, 1, 53, 33
1, 320880, Note_on_c, 1, 49, 26
1, 321120, Note_on_c, 1, 49, 0
1, 321120, Note_on_c, 1, 44, 0
1, 321120, Note_on_c, 1, 53, 0
1, 321120, Note_on_c, 1, 41, 36
1, 321360, Note_on_c, 1, 41, 0
1, 321360, Note_on_c, 1, 53, 33
1, 321360, Note_on_c, 1, 44, 26
1, 321360, Note_on_c, 1, 49, 26
1, 321600, Note_on_c, 1, 49, 0
1, 321600, Note_on_c, 1, 53, 0
1, 321600, Note_on_c, 1, 44, 0
1, 321600, Note_on_c, 1, 41, 33
1, 321840, Note_on_c, 1, 41, 0
1, 321840, Note_on_c, 1, 68, 0
1, 321840, Note_on_c, 1, 56, 0
1, 321840, Note_on_c, 1, 58, 52
1, 321840, Note_on_c, 1, 70, 57
1, 321840, Note_on_c, 1, 49, 28
1, 321840, Note_on_c, 1, 54, 36
1, 321840, Note_on_c, 1, 51, 28
1, 322080, Note_on_c, 1, 51, 0
1, 322080, Note_on_c, 1, 49, 0
1, 322080, Note_on_c, 1, 54, 0
1, 322080, Note_on_c, 1, 42, 33
1, 322320, Note_on_c, 1, 42, 0
1, 322320, Note_on_c, 1, 49, 27
1, 322320, Note_on_c, 1, 54, 35
1, 322320, Note_on_c, 1, 51, 27
1, 322440, Note_on_c, 1, 70, 0
1, 322440, Note_on_c, 1, 58, 0
1, 322440, Note_on_c, 1, 66, 53
1, 322560, Note_on_c, 1, 66, 0
1, 322560, Note_on_c, 1, 51, 0
1, 322560, Note_on_c, 1, 49, 0
1, 322560, Note_on_c, 1, 54, 0
1, 322560, Note_on_c, 1, 65, 59
1, 322560, Note_on_c, 1, 44, 37
1, 322800, Note_on_c, 1, 44, 0
1, 322800, Note_on_c, 1, 49, 27
1, 322800, Note_on_c, 1, 56, 33
1, 322800, Note_on_c, 1, 53, 27
1, 323040, Note_on_c, 1, 53, 0
1, 323040, Note_on_c, 1, 56, 0
1, 323040, Note_on_c, 1, 49, 0
1, 323040, Note_on_c, 1, 44, 34
1, 323280, Note_on_c, 1, 44, 0
1, 323280, Note_on_c, 1, 65, 0
1, 323280, Note_on_c, 1, 68, 61
1, 323280, Note_on_c, 1, 49, 30
1, 323280, Note_on_c, 1, 56, 38
1, 323280, Note_on_c, 1, 53, 30
1, 323520, Note_on_c, 1, 53, 0
1, 323520, Note_on_c, 1, 56, 0
1, 323520, Note_on_c, 1, 49, 0
1, 323520, Note_on_c, 1, 44, 34
1, 323760, Note_on_c, 1, 44, 0
1, 323760, Note_on_c, 1, 49, 28
1, 323760, Note_on_c, 1, 56, 35
1, 323760, Note_on_c, 1, 53, 28
1, 323880, Note_on_c, 1, 68, 0
1, 323880, Note_on_c, 1, 65, 55
1, 324000, Note_on_c, 1, 65, 0
1, 324000, Note_on_c, 1, 53, 0
1, 324000, Note_on_c, 1, 56, 0
1, 324000, Note_on_c, 1, 49, 0
1, 324000, Note_on_c, 1, 63, 63
1, 324000, Note_on_c, 1, 44, 40
1, 324240, Note_on_c, 1, 44, 0
1, 324240, Note_on_c, 1, 48, 29
1, 324240, Note_on_c, 1, 56, 36
1, 324240, Note_on_c, 1, 51, 29
1, 324480, Note_on_c, 1, 51, 0
1, 324480, Note_on_c, 1, 56, 0
1, 324480, Note_on_c, 1, 48, 0
1, 324480, Note_on_c, 1, 44, 36
1, 324720, Note_on_c, 1, 44, 0
1, 324720, Note_on_c, 1, 63, 0
1, 324720, Note_on_c, 1, 66, 66
1, 324720, Note_on_c, 1, 48, 32
1, 324720, Note_on_c, 1, 56, 41
1, 324720, Note_on_c, 1, 51, 32
1, 324960, Note_on_c, 1, 51, 0
1, 324960, Note_on_c, 1, 56, 0
1, 324960, Note_on_c, 1, 48, 0
1, 324960, Note_on_c, 1, 44, 37
1, 325200, Note_on_c, 1, 44, 0
1, 325200, Note_on_c, 1, 48, 30
1, 325200, Note_on_c, 1, 56, 37
1, 325200, Note_on_c, 1, 51, 30
1, 325320, Note_on_c, 1, 66, 0
1, 325320, Note_on_c, 1, 63, 59
1, 325440, Note_on_c, 1, 63, 0
1, 325440, Note_on_c, 1, 51, 0
1, 325440, Note_on_c, 1, 56, 0
1, 325440, Note_on_c, 1, 48, 0
1, 325440, Note_on_c, 1, 60, 72
1, 325440, Note_on_c, 1, 45, 51
1, 325680, Note_on_c, 1, 45, 0
1, 325680, Note_on_c, 1, 48, 33
1, 325680, Note_on_c, 1, 53, 33
1, 325680, Note_on_c, 1, 57, 41
1, 325920, Note_on_c, 1, 57, 0
1, 325920, Note_on_c, 1, 53, 0
1, 325920, Note_on_c, 1, 48, 0
1, 325920, Note_on_c, 1, 45, 45
1, 326160, Note_on_c, 1, 45, 0
1, 326160, Note_on_c, 1, 60, 0
1, 326160, Note_on_c, 1, 65, 63
1, 326160, Note_on_c, 1, 48, 29
1, 326160, Note_on_c, 1, 53, 29
1, 326160, Note_on_c, 1, 57, 38
1, 326400, Note_on_c, 1, 57, 0
1, 326400, Note_on_c, 1, 53, 0
1, 326400, Note_on_c, 1, 48, 0
1, 326400, Note_on_c, 1, 45, 36
1, 326640, Note_on_c, 1, 45, 0
1, 326640, Note_on_c, 1, 48, 28
1, 326640, Note_on_c, 1, 53, 28
1, 326640, Note_on_c, 1, 57, 38
1, 326880, Note_on_c, 1, 57, 0
1, 326880, Note_on_c, 1, 53, 0
1, 326880, Note_on_c, 1, 48, 0
1, 326880, Note_on_c, 1, 45, 39
1, 327120, Note_on_c, 1, 45, 0
1, 327120, Note_on_c, 1, 48, 28
1, 327120, Note_on_c, 1, 53, 28
1, 327120, Note_on_c, 1, 57, 36
1, 327360, Note_on_c, 1, 57, 0
1, 327360, Note_on_c, 1, 53, 0
1, 327360, Note_on_c, 1, 48, 0
1, 327360, Note_on_c, 1, 45, 39
1, 327600, Note_on_c, 1, 45, 0
1, 327600, Note_on_c, 1, 65, 0
1, 327600, Note_on_c, 1, 73, 60
1, 327600, Note_on_c, 1, 61, 56
1, 327600, Note_on_c, 1, 53, 27
1, 327600, Note_on_c, 1, 58, 35
1, 327600, Note_on_c, 1, 49, 27
1, 327840, Note_on_c, 1, 49, 0
1, 327840, Note_on_c, 1, 53, 0
1, 327840, Note_on_c, 1, 58, 0
1, 327840, Note_on_c, 1, 46, 33
1, 328080, Note_on_c, 1, 46, 0
1, 328080, Note_on_c, 1, 49, 27
1, 328080, Note_on_c, 1, 53, 27
1, 328080, Note_on_c, 1, 58, 34
1, 328200, Note_on_c, 1, 61, 0
1, 328200, Note_on_c, 1, 73, 0
1, 328200, Note_on_c, 1, 77, 58
1, 328200, Note_on_c, 1, 65, 53
1, 328320, Note_on_c, 1, 65, 0
1, 328320, Note_on_c, 1, 53, 0
1, 328320, Note_on_c, 1, 58, 0
1, 328320, Note_on_c, 1, 49, 0
1, 328320, Note_on_c, 1, 77, 0
1, 328320, Note_on_c, 1, 82, 60
1, 328320, Note_on_c, 1, 70, 51
1, 328320, Note_on_c, 1, 46, 37
1, 328560, Note_on_c, 1, 46, 0
1, 328560, Note_on_c, 1, 49, 27
1, 328560, Note_on_c, 1, 53, 27
1, 328560, Note_on_c, 1, 58, 34
1, 328800, Note_on_c, 1, 58, 0
1, 328800, Note_on_c, 1, 49, 0
1, 328800, Note_on_c, 1, 53, 0
1, 328800, Note_on_c, 1, 46, 36
1, 329040, Note_on_c, 1, 46, 0
1, 329040, Note_on_c, 1, 70, 0
1, 329040, Note_on_c, 1, 82, 0
1, 329040, Note_on_c, 1, 85, 62
1, 329040, Note_on_c, 1, 73, 57
1, 329040, Note_on_c, 1, 49, 30
1, 329040, Note_on_c, 1, 53, 30
1, 329040, Note_on_c, 1, 58, 39
1, 329280, Note_on_c, 1, 58, 0
1, 329280, Note_on_c, 1, 49, 0
1, 329280, Note_on_c, 1, 53, 0
1, 329280, Note_on_c, 1, 46, 37
1, 329520, Note_on_c, 1, 46, 0
1, 329520, Note_on_c, 1, 53, 29
1, 329520, Note_on_c, 1, 58, 38
1, 329520, Note_on_c, 1, 49, 29
1, 329640, Note_on_c, 1, 73, 0
1, 329640, Note_on_c, 1, 85, 0
1, 329640, Note_on_c, 1, 70, 53
1, 329640, Note_on_c, 1, 82, 58
1, 329760, Note_on_c, 1, 82, 0
1, 329760, Note_on_c, 1, 58, 0
1, 329760, Note_on_c, 1, 49, 0
1, 329760, Note_on_c, 1, 53, 0
1, 329760, Note_on_c, 1, 70, 0
1, 329760, Note_on_c, 1, 81, 61
1, 329760, Note_on_c, 1, 69, 57
1, 329760, Note_on_c, 1, 48, 40
1, 330000, Note_on_c, 1, 48, 0
1, 330000, Note_on_c, 1, 51, 29
1, 330000, Note_on_c, 1, 53, 29
1, 330000, Note_on_c, 1, 60, 38
1, 330240, Note_on_c, 1, 60, 0
1, 330240, Note_on_c, 1, 51, 0
1, 330240, Note_on_c, 1, 53, 0
1, 330240, Note_on_c, 1, 48, 39
1, 330480, Note_on_c, 1, 48, 0
1, 330480, Note_on_c, 1, 69, 0
1, 330480, Note_on_c, 1, 81, 0
1, 330480, Note_on_c, 1, 72, 59
1, 330480, Note_on_c, 1, 84, 65
1, 330480, Note_on_c, 1, 51, 34
1, 330480, Note_on_c, 1, 60, 42
1, 330480, Note_on_c, 1, 53, 34
1, 330720, Note_on_c, 1, 53, 0
1, 330720, Note_on_c, 1, 51, 0
1, 330720, Note_on_c, 1, 60, 0
1, 330720, Note_on_c, 1, 48, 40
1, 330960, Note_on_c, 1, 48, 0
1, 330960, Note_on_c, 1, 53, 33
1, 330960, Note_on_c, 1, 60, 42
1, 330960, Note_on_c, 1, 51, 33
1, 331080, Note_on_c, 1, 84, 0
1, 331080, Note_on_c, 1, 72, 0
1, 331080, Note_on_c, 1, 69, 58
1, 331080, Note_on_c, 1, 81, 63
1, 331200, Note_on_c, 1, 81, 0
1, 331200, Note_on_c, 1, 60, 0
1, 331200, Note_on_c, 1, 51, 0
1, 331200, Note_on_c, 1, 53, 0
1, 331200, Note_on_c, 1, 69, 0
1, 331200, Note_on_c, 1, 70, 51
1, 331200, Note_on_c, 1, 82, 57
1, 331200, Note_on_c, 1, 49, 37
1, 331440, Note_on_c, 1, 49, 0
1, 331440, Note_on_c, 1, 53, 27
1, 331440, Note_on_c, 1, 58, 27
1, 331440, Note_on_c, 1, 61, 34
1, 331680, Note_on_c, 1, 61, 0
1, 331680, Note_on_c, 1, 53, 0
1, 331680, Note_on_c, 1, 58, 0
1, 331680, Note_on_c, 1, 49, 36
1, 331920, Note_on_c, 1, 49, 0
1, 331920, Note_on_c, 1, 82, 0
1, 331920, Note_on_c, 1, 70, 0
1, 331920, Note_on_c, 1, 77, 52
1, 331920, Note_on_c, 1, 65, 52
1, 331920, Note_on_c, 1, 53, 30
1, 331920, Note_on_c, 1, 58, 30
1, 331920, Note_on_c, 1, 61, 39
1, 332160, Note_on_c, 1, 61, 0
1, 332160, Note_on_c, 1, 53, 0
1, 332160, Note_on_c, 1, 58, 0
1, 332160, Note_on_c, 1, 49, 37
1, 332400, Note_on_c, 1, 49, 0
1, 332400, Note_on_c, 1, 58, 29
1, 332400, Note_on_c, 1, 61, 38
1, 332400, Note_on_c, 1, 53, 29
1, 332640, Note_on_c, 1, 53, 0
1, 332640, Note_on_c, 1, 58, 0
1, 332640, Note_on_c, 1, 61, 0
1, 332640, Note_on_c, 1, 49, 40
1, 332880, Note_on_c, 1, 49, 0
1, 332880, Note_on_c, 1, 53, 29
1, 332880, Note_on_c, 1, 58, 29
1, 332880, Note_on_c, 1, 61, 38
1, 333120, Note_on_c, 1, 61, 0
1, 333120, Note_on_c, 1, 53, 0
1, 333120, Note_on_c, 1, 58, 0
1, 333120, Note_on_c, 1, 49, 39
1, 333360, Note_on_c, 1, 49, 0
1, 333360, Note_on_c, 1, 65, 0
1, 333360, Note_on_c, 1, 77, 0
1, 333360, Note_on_c, 1, 78, 68
1, 333360, Note_on_c, 1, 66, 62
1, 333360, Note_on_c, 1, 54, 28
1, 333360, Note_on_c, 1, 63, 36
1, 333360, Note_on_c, 1, 58, 28
1, 333600, Note_on_c, 1, 58, 0
1, 333600, Note_on_c, 1, 54, 0
1, 333600, Note_on_c, 1, 63, 0
1, 333600, Note_on_c, 1, 51, 33
1, 333840, Note_on_c, 1, 51, 0
1, 333840, Note_on_c, 1, 54, 27
1, 333840, Note_on_c, 1, 63, 35
1, 333840, Note_on_c, 1, 58, 27
1, 333960, Note_on_c, 1, 78, 0
1, 333960, Note_on_c, 1, 75, 63
1, 334080, Note_on_c, 1, 75, 0
1, 334080, Note_on_c, 1, 58, 0
1, 334080, Note_on_c, 1, 66, 0
1, 334080, Note_on_c, 1, 54, 0
1, 334080, Note_on_c, 1, 63, 0
1, 334080, Note_on_c, 1, 73, 70
1, 334080, Note_on_c, 1, 53, 37
1, 334320, Note_on_c, 1, 53, 0
1, 334320, Note_on_c, 1, 58, 27
1, 334320, Note_on_c, 1, 65, 33
1, 334320, Note_on_c, 1, 61, 27
1, 334560, Note_on_c, 1, 61, 0
1, 334560, Note_on_c, 1, 65, 0
1, 334560, Note_on_c, 1, 58, 0
1, 334560, Note_on_c, 1, 53, 34
1, 334800, Note_on_c, 1, 53, 0
1, 334800, Note_on_c, 1, 73, 0
1, 334800, Note_on_c, 1, 77, 67
1, 334800, Note_on_c, 1, 58, 30
1, 334800, Note_on_c, 1, 65, 38
1, 334800, Note_on_c, 1, 61, 30
1, 335040, Note_on_c, 1, 61, 0
1, 335040, Note_on_c, 1, 65, 0
1, 335040, Note_on_c, 1, 58, 0
1, 335040, Note_on_c, 1, 53, 34
1, 335280, Note_on_c, 1, 53, 0
1, 335280, Note_on_c, 1, 61, 28
1, 335280, Note_on_c, 1, 65, 35
1, 335280, Note_on_c, 1, 58, 28
1, 335400, Note_on_c, 1, 77, 0
1, 335400, Note_on_c, 1, 73, 61
1, 335520, Note_on_c, 1, 73, 0
1, 335520, Note_on_c, 1, 58, 0
1, 335520, Note_on_c, 1, 65, 0
1, 335520, Note_on_c, 1, 61, 0
1, 335520, Note_on_c, 1, 72, 70
1, 335520, Note_on_c, 1, 53, 40
1, 335760, Note_on_c, 1, 53, 0
1, 335760, Note_on_c, 1, 60, 29
1, 335760, Note_on_c, 1, 57, 29
1, 335760, Note_on_c, 1, 63, 37
1, 336000, Note_on_c, 1, 63, 0
1, 336000, Note_on_c, 1, 57, 0
1, 336000, Note_on_c, 1, 60, 0
1, 336000, Note_on_c, 1, 53, 37
1, 336240, Note_on_c, 1, 53, 0
1, 336240, Note_on_c, 1, 72, 0
1, 336240, Note_on_c, 1, 75, 71
1, 336240, Note_on_c, 1, 60, 33
1, 336240, Note_on_c, 1, 57, 33
1, 336240, Note_on_c, 1, 63, 42
1, 336480, Note_on_c, 1, 63, 0
1, 336480, Note_on_c, 1, 57, 0
1, 336480, Note_on_c, 1, 60, 0
1, 336480, Note_on_c, 1, 53, 38
1, 336720, Note_on_c, 1, 53, 0
1, 336720, Note_on_c, 1, 60, 31
1, 336720, Note_on_c, 1, 57, 31
1, 336720, Note_on_c, 1, 63, 38
1, 336840, Note_on_c, 1, 75, 0
1, 336840, Note_on_c, 1, 72, 67
1, 336960, Note_on_c, 1, 72, 0
1, 336960, Note_on_c, 1, 63, 0
1, 336960, Note_on_c, 1, 57, 0
1, 336960, Note_on_c, 1, 60, 0
1, 336960, Note_on_c, 1, 70, 78
1, 336960, Note_on_c, 1, 54, 53
1, 337200, Note_on_c, 1, 54, 0
1, 337200, Note_on_c, 1, 66, 43
1, 337200, Note_on_c, 1, 61, 34
1, 337200, Note_on_c, 1, 58, 34
1, 337440, Note_on_c, 1, 58, 0
1, 337440, Note_on_c, 1, 61, 0
1, 337440, Note_on_c, 1, 66, 0
1, 337440, Note_on_c, 1, 54, 47
1, 337680, Note_on_c, 1, 54, 0
1, 337680, Note_on_c, 1, 70, 0
1, 337680, Note_on_c, 1, 73, 73
1, 337680, Note_on_c, 1, 66, 46
1, 337680, Note_on_c, 1, 61, 35
1, 337680, Note_on_c, 1, 58, 35
1, 337920, Note_on_c, 1, 58, 0
1, 337920, Note_on_c, 1, 61, 0
1, 337920, Note_on_c, 1, 66, 0
1, 337920, Note_on_c, 1, 54, 43
1, 338160, Note_on_c, 1, 54, 0
1, 338160, Note_on_c, 1, 66, 46
1, 338160, Note_on_c, 1, 61, 34
1, 338160, Note_on_c, 1, 58, 34
1, 338400, Note_on_c, 1, 58, 0
1, 338400, Note_on_c, 1, 61, 0
1, 338400, Note_on_c, 1, 66, 0
1, 338400, Note_on_c, 1, 54, 47
1, 338640, Note_on_c, 1, 54, 0
1, 338640, Note_on_c, 1, 66, 44
1, 338640, Note_on_c, 1, 61, 34
1, 338640, Note_on_c, 1, 58, 34
1, 338880, Note_on_c, 1, 58, 0
1, 338880, Note_on_c, 1, 61, 0
1, 338880, Note_on_c, 1, 66, 0
1, 338880, Note_on_c, 1, 54, 47
1, 339120, Note_on_c, 1, 54, 0
1, 339120, Note_on_c, 1, 73, 0
1, 339120, Note_on_c, 1, 70, 73
1, 339120, Note_on_c, 1, 82, 79
1, 339120, Note_on_c, 1, 58, 35
1, 339120, Note_on_c, 1, 61, 35
1, 339120, Note_on_c, 1, 66, 46
1, 339360, Note_on_c, 1, 66, 0
1, 339360, Note_on_c, 1, 58, 0
1, 339360, Note_on_c, 1, 61, 0
1, 339360, Note_on_c, 1, 54, 42
1, 339600, Note_on_c, 1, 54, 0
1, 339600, Note_on_c, 1, 66, 44
1, 339600, Note_on_c, 1, 58, 35
1, 339600, Note_on_c, 1, 61, 35
1, 339720, Note_on_c, 1, 82, 0
1, 339720, Note_on_c, 1, 70, 0
1, 339720, Note_on_c, 1, 85, 75
1, 339720, Note_on_c, 1, 73, 69
1, 339840, Note_on_c, 1, 73, 0
1, 339840, Note_on_c, 1, 58, 0
1, 339840, Note_on_c, 1, 61, 0
1, 339840, Note_on_c, 1, 66, 0
1, 339840, Note_on_c, 1, 85, 0
1, 339840, Note_on_c, 1, 78, 71
1, 339840, Note_on_c, 1, 90, 80
1, 339840, Note_on_c, 1, 54, 48
1, 340080, Note_on_c, 1, 54, 0
1, 340080, Note_on_c, 1, 66, 44
1, 340080, Note_on_c, 1, 61, 35
1, 340080, Note_on_c, 1, 58, 35
1, 340320, Note_on_c, 1, 58, 0
1, 340320, Note_on_c, 1, 66, 0
1, 340320, Note_on_c, 1, 61, 0
1, 340320, Note_on_c, 1, 54, 47
1, 340560, Note_on_c, 1, 54, 0
1, 340560, Note_on_c, 1, 90, 0
1, 340560, Note_on_c, 1, 78, 0
1, 340560, Note_on_c, 1, 82, 74
1, 340560, Note_on_c, 1, 94, 81
1, 340560, Note_on_c, 1, 66, 50
1, 340560, Note_on_c, 1, 61, 39
1, 340560, Note_on_c, 1, 58, 39
1, 340800, Note_on_c, 1, 58, 0
1, 340800, Note_on_c, 1, 66, 0
1, 340800, Note_on_c, 1, 61, 0
1, 340800, Note_on_c, 1, 54, 48
1, 341040, Note_on_c, 1, 54, 0
1, 341040, Note_on_c, 1, 58, 37
1, 341040, Note_on_c, 1, 66, 49
1, 341040, Note_on_c, 1, 61, 37
1, 341160, Note_on_c, 1, 94, 0
1, 341160, Note_on_c, 1, 82, 0
1, 341160, Note_on_c, 1, 90, 75
1, 341160, Note_on_c, 1, 78, 69
1, 341280, Note_on_c, 1, 78, 0
1, 341280, Note_on_c, 1, 66, 0
1, 341280, Note_on_c, 1, 61, 0
1, 341280, Note_on_c, 1, 58, 0
1, 341280, Note_on_c, 1, 90, 0
1, 341280, Note_on_c, 1, 77, 74
1, 341280, Note_on_c, 1, 89, 80
1, 341280, Note_on_c, 1, 56, 52
1, 341520, Note_on_c, 1, 56, 0
1, 341520, Note_on_c, 1, 68, 49
1, 341520, Note_on_c, 1, 59, 37
1, 341520, Note_on_c, 1, 61, 37
1, 341760, Note_on_c, 1, 61, 0
1, 341760, Note_on_c, 1, 68, 0
1, 341760, Note_on_c, 1, 59, 0
1, 341760, Note_on_c, 1, 56, 50
1, 342000, Note_on_c, 1, 56, 0
1, 342000, Note_on_c, 1, 89, 0
1, 342000, Note_on_c, 1, 77, 0
1, 342000, Note_on_c, 1, 80, 77
1, 342000, Note_on_c, 1, 92, 85
1, 342000, Note_on_c, 1, 61, 44
1, 342000, Note_on_c, 1, 68, 55
1, 342000, Note_on_c, 1, 59, 44
1, 342240, Note_on_c, 1, 59, 0
1, 342240, Note_on_c, 1, 61, 0
1, 342240, Note_on_c, 1, 68, 0
1, 342240, Note_on_c, 1, 56, 52
1, 342480, Note_on_c, 1, 56, 0
1, 342480, Note_on_c, 1, 59, 42
1, 342480, Note_on_c, 1, 68, 55
1, 342480, Note_on_c, 1, 61, 42
1, 342600, Note_on_c, 1, 92, 0
1, 342600, Note_on_c, 1, 80, 0
1, 342600, Note_on_c, 1, 77, 75
1, 342600, Note_on_c, 1, 89, 82
1, 342720, Note_on_c, 1, 89, 0
1, 342720, Note_on_c, 1, 68, 0
1, 342720, Note_on_c, 1, 61, 0
1, 342720, Note_on_c, 1, 59, 0
1, 342720, Note_on_c, 1, 77, 0
1, 342720, Note_on_c, 1, 78, 80
1, 342720, Note_on_c, 1, 90, 89
1, 342720, Note_on_c, 1, 58, 48
1, 342960, Note_on_c, 1, 58, 0
1, 342960, Note_on_c, 1, 70, 44
1, 342960, Note_on_c, 1, 61, 35
1, 342960, Note_on_c, 1, 66, 35
1, 343200, Note_on_c, 1, 66, 0
1, 343200, Note_on_c, 1, 70, 0
1, 343200, Note_on_c, 1, 61, 0
1, 343200, Note_on_c, 1, 58, 47
1, 343440, Note_on_c, 1, 58, 0
1, 343440, Note_on_c, 1, 90, 0
1, 343440, Note_on_c, 1, 78, 0
1, 343440, Note_on_c, 1, 73, 68
1, 343440, Note_on_c, 1, 85, 81
1, 343440, Note_on_c, 1, 70, 42
1, 343440, Note_on_c, 1, 61, 33
1, 343440, Note_on_c, 1, 66, 33
1, 343680, Note_on_c, 1, 66, 0
1, 343680, Note_on_c, 1, 70, 0
1, 343680, Note_on_c, 1, 61, 0
1, 343680, Note_on_c, 1, 58, 40
1, 343920, Note_on_c, 1, 58, 0
1, 343920, Note_on_c, 1, 61, 33
1, 343920, Note_on_c, 1, 66, 33
1, 343920, Note_on_c, 1, 70, 44
1, 344160, Note_on_c, 1, 70, 0
1, 344160, Note_on_c, 1, 61, 0
1, 344160, Note_on_c, 1, 66, 0
1, 344160, Note_on_c, 1, 58, 50
1, 344400, Note_on_c, 1, 58, 0
1, 344400, Note_on_c, 1, 70, 49
1, 344400, Note_on_c, 1, 66, 37
1, 344400, Note_on_c, 1, 61, 37
1, 344640, Note_on_c, 1, 61, 0
1, 344640, Note_on_c, 1, 70, 0
1, 344640, Note_on_c, 1, 66, 0
1, 344640, Note_on_c, 1, 58, 52
1, 344880, Note_on_c, 1, 58, 0
1, 344880, Note_on_c, 1, 66, 38
1, 344880, Note_on_c, 1, 70, 51
1, 344880, Note_on_c, 1, 61, 38
1, 345120, Note_on_c, 1, 61, 0
1, 345120, Note_on_c, 1, 66, 0
1, 345120, Note_on_c, 1, 70, 0
1, 345120, Note_on_c, 1, 58, 48
1, 345360, Note_on_c, 1, 58, 0
1, 345360, Note_on_c, 1, 66, 41
1, 345360, Note_on_c, 1, 70, 55
1, 345360, Note_on_c, 1, 61, 41
1, 345600, Note_on_c, 1, 61, 0
1, 345600, Note_on_c, 1, 66, 0
1, 345600, Note_on_c, 1, 73, 0
1, 345600, Note_on_c, 1, 85, 0
1, 345600, Note_on_c, 1, 70, 0
1, 345600, Note_on_c, 1, 90, 89
1, 345600, Note_on_c, 1, 78, 80
1, 345600, Note_on_c, 1, 59, 57
1, 345840, Note_on_c, 1, 59, 0
1, 345840, Note_on_c, 1, 71, 44
1, 345840, Note_on_c, 1, 62, 35
1, 345840, Note_on_c, 1, 66, 35
1, 346080, Note_on_c, 1, 66, 0
1, 346080, Note_on_c, 1, 71, 0
1, 346080, Note_on_c, 1, 62, 0
1, 346080, Note_on_c, 1, 59, 47
1, 346320, Note_on_c, 1, 59, 0
1, 346320, Note_on_c, 1, 78, 0
1, 346320, Note_on_c, 1, 90, 0
1, 346320, Note_on_c, 1, 86, 83
1, 346320, Note_on_c, 1, 74, 70
1, 346320, Note_on_c, 1, 71, 42
1, 346320, Note_on_c, 1, 62, 33
1, 346320, Note_on_c, 1, 66, 33
1, 346560, Note_on_c, 1, 66, 0
1, 346560, Note_on_c, 1, 71, 0
1, 346560, Note_on_c, 1, 62, 0
1, 346560, Note_on_c, 1, 59, 40
1, 346800, Note_on_c, 1, 59, 0
1, 346800, Note_on_c, 1, 62, 33
1, 346800, Note_on_c, 1, 66, 33
1, 346800, Note_on_c, 1, 71, 44
1, 347040, Note_on_c, 1, 71, 0
1, 347040, Note_on_c, 1, 62, 0
1, 347040, Note_on_c, 1, 66, 0
1, 347040, Note_on_c, 1, 59, 50
1, 347280, Note_on_c, 1, 59, 0
1, 347280, Note_on_c, 1, 71, 49
1, 347280, Note_on_c, 1, 66, 37
1, 347280, Note_on_c, 1, 62, 37
1, 347520, Note_on_c, 1, 62, 0
1, 347520, Note_on_c, 1, 71, 0
1, 347520, Note_on_c, 1, 66, 0
1, 347520, Note_on_c, 1, 59, 53
1, 347760, Note_on_c, 1, 59, 0
1, 347760, Note_on_c, 1, 66, 38
1, 347760, Note_on_c, 1, 71, 52
1, 347760, Note_on_c, 1, 62, 38
1, 348000, Note_on_c, 1, 62, 0
1, 348000, Note_on_c, 1, 66, 0
1, 348000, Note_on_c, 1, 71, 0
1, 348000, Note_on_c, 1, 59, 49
1, 348240, Note_on_c, 1, 59, 0
1, 348240, Note_on_c, 1, 66, 42
1, 348240, Note_on_c, 1, 71, 56
1, 348240, Note_on_c, 1, 62, 42
1, 348480, Note_on_c, 1, 62, 0
1, 348480, Note_on_c, 1, 66, 0
1, 348480, Note_on_c, 1, 86, 0
1, 348480, Note_on_c, 1, 74, 0
1, 348480, Note_on_c, 1, 71, 0
1, 348480, Note_on_c, 1, 79, 96
1, 348480, Note_on_c, 1, 91, 96
1, 348480, Note_on_c, 1, 59, 60
1, 348720, Note_on_c, 1, 59, 0
1, 348720, Note_on_c, 1, 62, 36
1, 348720, Note_on_c, 1, 67, 36
1, 348720, Note_on_c, 1, 71, 46
1, 348960, Note_on_c, 1, 71, 0
1, 348960, Note_on_c, 1, 62, 0
1, 348960, Note_on_c, 1, 67, 0
1, 348960, Note_on_c, 1, 59, 49
1, 349200, Note_on_c, 1, 59, 0
1, 349200, Note_on_c, 1, 91, 0
1, 349200, Note_on_c, 1, 79, 0
1, 349200, Note_on_c, 1, 74, 74
1, 349200, Note_on_c, 1, 86, 89
1, 349200, Note_on_c, 1, 62, 34
1, 349200, Note_on_c, 1, 67, 34
1, 349200, Note_on_c, 1, 71, 45
1, 349440, Note_on_c, 1, 71, 0
1, 349440, Note_on_c, 1, 62, 0
1, 349440, Note_on_c, 1, 67, 0
1, 349440, Note_on_c, 1, 59, 42
1, 349680, Note_on_c, 1, 59, 0
1, 349680, Note_on_c, 1, 67, 35
1, 349680, Note_on_c, 1, 71, 47
1, 349680, Note_on_c, 1, 62, 35
1, 349920, Note_on_c, 1, 62, 0
1, 349920, Note_on_c, 1, 67, 0
1, 349920, Note_on_c, 1, 71, 0
1, 349920, Note_on_c, 1, 59, 53
1, 350160, Note_on_c, 1, 59, 0
1, 350160, Note_on_c, 1, 62, 39
1, 350160, Note_on_c, 1, 67, 39
1, 350160, Note_on_c, 1, 71, 51
1, 350400, Note_on_c, 1, 71, 0
1, 350400, Note_on_c, 1, 62, 0
1, 350400, Note_on_c, 1, 67, 0
1, 350400, Note_on_c, 1, 59, 56
1, 350640, Note_on_c, 1, 59, 0
1, 350640, Note_on_c, 1, 62, 40
1, 350640, Note_on_c, 1, 71, 55
1, 350640, Note_on_c, 1, 67, 40
1, 350880, Note_on_c, 1, 67, 0
1, 350880, Note_on_c, 1, 62, 0
1, 350880, Note_on_c, 1, 71, 0
1, 350880, Note_on_c, 1, 59, 51
1, 351120, Note_on_c, 1, 59, 0
1, 351120, Note_on_c, 1, 62, 44
1, 351120, Note_on_c, 1, 71, 59
1, 351120, Note_on_c, 1, 67, 44
1, 351360, Note_on_c, 1, 67, 0
1, 351360, Note_on_c, 1, 62, 0
1, 351360, Note_on_c, 1, 74, 0
1, 351360, Note_on_c, 1, 86, 0
1, 351360, Note_on_c, 1, 71, 0
1, 351360, Note_on_c, 1, 79, 102
1, 351360, Note_on_c, 1, 91, 102
1, 351360, Note_on_c, 1, 60, 64
1, 351600, Note_on_c, 1, 60, 0
1, 351600, Note_on_c, 1, 64, 38
1, 351600, Note_on_c, 1, 67, 38
1, 351600, Note_on_c, 1, 72, 48
1, 351840, Note_on_c, 1, 72, 0
1, 351840, Note_on_c, 1, 64, 0
1, 351840, Note_on_c, 1, 67, 0
1, 351840, Note_on_c, 1, 60, 51
1, 352080, Note_on_c, 1, 60, 0
1, 352080, Note_on_c, 1, 91, 0
1, 352080, Note_on_c, 1, 79, 0
1, 352080, Note_on_c, 1, 88, 94
1, 352080, Note_on_c, 1, 76, 80
1, 352080, Note_on_c, 1, 64, 37
1, 352080, Note_on_c, 1, 67, 37
1, 352080, Note_on_c, 1, 72, 48
1, 352320, Note_on_c, 1, 72, 0
1, 352320, Note_on_c, 1, 64, 0
1, 352320, Note_on_c, 1, 67, 0
1, 352320, Note_on_c, 1, 60, 47
1, 352560, Note_on_c, 1, 60, 0
1, 352560, Note_on_c, 1, 67, 37
1, 352560, Note_on_c, 1, 72, 50
1, 352560, Note_on_c, 1, 64, 37
1, 352800, Note_on_c, 1, 64, 0
1, 352800, Note_on_c, 1, 67, 0
1, 352800, Note_on_c, 1, 72, 0
1, 352800, Note_on_c, 1, 60, 57
1, 353040, Note_on_c, 1, 60, 0
1, 353040, Note_on_c, 1, 64, 41
1, 353040, Note_on_c, 1, 67, 41
1, 353040, Note_on_c, 1, 72, 55
1, 353280, Note_on_c, 1, 72, 0
1, 353280, Note_on_c, 1, 64, 0
1, 353280, Note_on_c, 1, 67, 0
1, 353280, Note_on_c, 1, 60, 59
1, 353520, Note_on_c, 1, 60, 0
1, 353520, Note_on_c, 1, 64, 44
1, 353520, Note_on_c, 1, 72, 58
1, 353520, Note_on_c, 1, 67, 44
1, 353760, Note_on_c, 1, 67, 0
1, 353760, Note_on_c, 1, 64, 0
1, 353760, Note_on_c, 1, 72, 0
1, 353760, Note_on_c, 1, 60, 55
1, 354000, Note_on_c, 1, 60, 0
1, 354000, Note_on_c, 1, 64, 47
1, 354000, Note_on_c, 1, 72, 61
1, 354000, Note_on_c, 1, 67, 47
1, 354240, Note_on_c, 1, 67, 0
1, 354240, Note_on_c, 1, 64, 0
1, 354240, Note_on_c, 1, 88, 0
1, 354240, Note_on_c, 1, 76, 0
1, 354240, Note_on_c, 1, 72, 0
1, 354240, Note_on_c, 1, 61, 102
1, 354360, Note_on_c, 1, 64, 78
1, 354480, Note_on_c, 1, 67, 78
1, 354600, Note_on_c, 1, 70, 78
1, 354720, Note_on_c, 1, 73, 78
1, 354960, Note_on_c, 1, 79, 75
1, 355080, Note_on_c, 1, 82, 71
1, 355200, Note_on_c, 1, 85, 70
1, 355320, Note_on_c, 1, 85, 0
1, 355320, Note_on_c, 1, 88, 70
1, 355440, Note_on_c, 1, 82, 0
1, 355440, Note_on_c, 1, 91, 73
1, 355560, Note_on_c, 1, 91, 0
1, 355560, Note_on_c, 1, 88, 0
1, 355560, Note_on_c, 1, 79, 0
1, 355560, Note_on_c, 1, 79, 71
1, 355680, Note_on_c, 1, 79, 0
1, 355680, Note_on_c, 1, 73, 0
1, 355680, Note_on_c, 1, 67, 0
1, 355680, Note_on_c, 1, 70, 0
1, 355680, Note_on_c, 1, 64, 0
1, 355680, Note_on_c, 1, 61, 0
1, 355680, Note_on_c, 1, 64, 101
1, 355800, Note_on_c, 1, 67, 78
1, 355920, Note_on_c, 1, 70, 78
1, 356040, Note_on_c, 1, 73, 78
1, 356160, Note_on_c, 1, 76, 79
1, 356400, Note_on_c, 1, 79, 77
1, 356520, Note_on_c, 1, 82, 72
1, 356640, Note_on_c, 1, 85, 72
1, 356760, Note_on_c, 1, 85, 0
1, 356760, Note_on_c, 1, 88, 70
1, 356880, Note_on_c, 1, 82, 0
1, 356880, Note_on_c, 1, 91, 74
1, 357000, Note_on_c, 1, 91, 0
1, 357000, Note_on_c, 1, 88, 0
1, 357000, Note_on_c, 1, 79, 0
1, 357000, Note_on_c, 1, 79, 72
1, 357120, Note_on_c, 1, 79, 0
1, 357120, Note_on_c, 1, 76, 0
1, 357120, Note_on_c, 1, 70, 0
1, 357120, Note_on_c, 1, 73, 0
1, 357120, Note_on_c, 1, 67, 0
1, 357120, Note_on_c, 1, 64, 0
1, 357120, Note_on_c, 1, 67, 101
1, 357240, Note_on_c, 1, 70, 84
1, 357360, Note_on_c, 1, 73, 84
1, 357480, Note_on_c, 1, 76, 84
1, 357840, Note_on_c, 1, 79, 77
1, 357960, Note_on_c, 1, 82, 71
1, 358080, Note_on_c, 1, 85, 71
1, 358200, Note_on_c, 1, 85, 0
1, 358200, Note_on_c, 1, 88, 70
1, 358320, Note_on_c, 1, 82, 0
1, 358320, Note_on_c, 1, 91, 76
1, 358440, Note_on_c, 1, 91, 0
1, 358440, Note_on_c, 1, 88, 0
1, 358440, Note_on_c, 1, 79, 0
1, 358440, Note_on_c, 1, 79, 71
1, 358560, Note_on_c, 1, 79, 0
1, 358560, Note_on_c, 1, 76, 0
1, 358560, Note_on_c, 1, 67, 0
1, 358560, Note_on_c, 1, 70, 0
1, 358560, Note_on_c, 1, 73, 0
1, 358560, Note_on_c, 1, 70, 100
1, 358680, Note_on_c, 1, 73, 84
1, 358800, Note_on_c, 1, 76, 86
1, 359280, Note_on_c, 1, 79, 77
1, 359400, Note_on_c, 1, 82, 71
1, 359520, Note_on_c, 1, 85, 73
1, 359640, Note_on_c, 1, 85, 0
1, 359640, Note_on_c, 1, 88, 70
1, 359760, Note_on_c, 1, 82, 0
1, 359760, Note_on_c, 1, 91, 76
1, 359880, Note_on_c, 1, 91, 0
1, 359880, Note_on_c, 1, 88, 0
1, 359880, Note_on_c, 1, 79, 0
1, 359880, Note_on_c, 1, 79, 71
1, 360000, Note_on_c, 1, 79, 0
1, 360000, Note_on_c, 1, 73, 0
1, 360000, Note_on_c, 1, 76, 0
1, 360000, Note_on_c, 1, 70, 0
1, 360000, Note_on_c, 1, 73, 96
1, 360120, Note_on_c, 1, 76, 84
1, 360240, Note_on_c, 1, 82, 77
1, 360240, Note_on_c, 1, 79, 84
1, 360360, Note_on_c, 1, 85, 71
1, 360480, Note_on_c, 1, 88, 74
1, 360600, Note_on_c, 1, 88, 0
1, 360600, Note_on_c, 1, 91, 70
1, 360720, Note_on_c, 1, 91, 0
1, 360720, Note_on_c, 1, 85, 0
1, 360720, Note_on_c, 1, 82, 0
1, 360720, Note_on_c, 1, 73, 0
1, 360720, Note_on_c, 1, 76, 0
1, 360720, Note_on_c, 1, 79, 0
1, 360720, Note_on_c, 1, 76, 98
1, 360840, Note_on_c, 1, 79, 84
1, 360960, Note_on_c, 1, 85, 77
1, 360960, Note_on_c, 1, 82, 84
1, 361080, Note_on_c, 1, 88, 72
1, 361200, Note_on_c, 1, 91, 74
1, 361320, Note_on_c, 1, 91, 0
1, 361320, Note_on_c, 1, 94, 70
1, 361440, Note_on_c, 1, 94, 0
1, 361440, Note_on_c, 1, 88, 0
1, 361440, Note_on_c, 1, 85, 0
1, 361440, Note_on_c, 1, 76, 0
1, 361440, Note_on_c, 1, 79, 0
1, 361440, Note_on_c, 1, 82, 0
1, 361440, Note_on_c, 1, 79, 100
1, 361560, Note_on_c, 1, 79, 0
1, 361560, Note_on_c, 1, 82, 84
1, 361680, Note_on_c, 1, 82, 0
1, 361680, Note_on_c, 1, 85, 84
1, 361800, Note_on_c, 1, 85, 0
1, 361800, Note_on_c, 1, 88, 73
1, 361920, Note_on_c, 1, 88, 0
1, 361920, Note_on_c, 1, 91, 74
1, 362040, Note_on_c, 1, 91, 0
1, 362040, Note_on_c, 1, 94, 73
1, 362160, Note_on_c, 1, 94, 0
1, 362160, Note_on_c, 1, 82, 100
1, 362280, Note_on_c, 1, 82, 0
1, 362280, Note_on_c, 1, 85, 84
1, 362400, Note_on_c, 1, 85, 0
1, 362400, Note_on_c, 1, 88, 84
1, 362520, Note_on_c, 1, 88, 0
1, 362520, Note_on_c, 1, 88, 73
1, 362640, Note_on_c, 1, 88, 0
1, 362640, Note_on_c, 1, 91, 74
1, 362760, Note_on_c, 1, 91, 0
1, 362760, Note_on_c, 1, 94, 73
1, 362880, Note_on_c, 1, 94, 0
1, 362880, Note_on_c, 1, 85, 102
1, 363000, Note_on_c, 1, 85, 0
1, 363000, Note_on_c, 1, 88, 84
1, 363114, Note_on_c, 1, 88, 0
1, 363120, Note_on_c, 1, 88, 77
1, 363240, Note_on_c, 1, 88, 0
1, 363240, Note_on_c, 1, 91, 75
1, 363360, Note_on_c, 1, 91, 0
1, 363360, Note_on_c, 1, 94, 74
1, 363600, Note_on_c, 1, 94, 0
1, 363600, Note_on_c, 1, 82, 97
1, 363720, Note_on_c, 1, 82, 0
1, 363720, Note_on_c, 1, 85, 84
1, 363834, Note_on_c, 1, 85, 0
1, 363840, Note_on_c, 1, 85, 77
1, 363960, Note_on_c, 1, 85, 0
1, 363960, Note_on_c, 1, 88, 75
1, 364080, Note_on_c, 1, 88, 0
1, 364080, Note_on_c, 1, 91, 74
1, 364320, Note_on_c, 1, 91, 0
1, 364320, Note_on_c, 1, 79, 96
1, 364440, Note_on_c, 1, 79, 0
1, 364440, Note_on_c, 1, 82, 84
1, 364554, Note_on_c, 1, 82, 0
1, 364560, Note_on_c, 1, 82, 77
1, 364680, Note_on_c, 1, 82, 0
1, 364680, Note_on_c, 1, 85, 75
1, 364800, Note_on_c, 1, 85, 0
1, 364800, Note_on_c, 1, 88, 74
1, 365040, Note_on_c, 1, 88, 0
1, 365040, Note_on_c, 1, 76, 96
1, 365160, Note_on_c, 1, 76, 0
1, 365160, Note_on_c, 1, 79, 84
1, 365274, Note_on_c, 1, 79, 0
1, 365280, Note_on_c, 1, 79, 77
1, 365400, Note_on_c, 1, 79, 0
1, 365400, Note_on_c, 1, 82, 75
1, 365520, Note_on_c, 1, 82, 0
1, 365520, Note_on_c, 1, 85, 74
1, 365760, Note_on_c, 1, 85, 0
1, 365760, Note_on_c, 1, 73, 96
1, 365880, Note_on_c, 1, 73, 0
1, 365880, Note_on_c, 1, 76, 84
1, 365994, Note_on_c, 1, 76, 0
1, 366000, Note_on_c, 1, 76, 77
1, 366120, Note_on_c, 1, 76, 0
1, 366120, Note_on_c, 1, 79, 72
1, 366240, Note_on_c, 1, 79, 0
1, 366240, Note_on_c, 1, 82, 74
1, 366480, Note_on_c, 1, 82, 0
1, 366480, Note_on_c, 1, 70, 96
1, 366600, Note_on_c, 1, 70, 0
1, 366600, Note_on_c, 1, 73, 84
1, 366714, Note_on_c, 1, 73, 0
1, 366720, Note_on_c, 1, 73, 77
1, 366840, Note_on_c, 1, 73, 0
1, 366840, Note_on_c, 1, 76, 75
1, 366960, Note_on_c, 1, 76, 0
1, 366960, Note_on_c, 1, 79, 74
1, 367200, Note_on_c, 1, 79, 0
1, 367200, Note_on_c, 1, 67, 96
1, 367320, Note_on_c, 1, 67, 0
1, 367320, Note_on_c, 1, 70, 84
1, 367434, Note_on_c, 1, 70, 0
1, 367440, Note_on_c, 1, 70, 77
1, 367560, Note_on_c, 1, 70, 0
1, 367560, Note_on_c, 1, 73, 75
1, 367680, Note_on_c, 1, 73, 0
1, 367680, Note_on_c, 1, 76, 74
1, 367920, Note_on_c, 1, 76, 0
1, 367920, Note_on_c, 1, 64, 96
1, 368040, Note_on_c, 1, 64, 0
1, 368040, Note_on_c, 1, 67, 84
1, 368154, Note_on_c, 1, 67, 0
1, 368160, Note_on_c, 1, 67, 77
1, 368280, Note_on_c, 1, 67, 0
1, 368280, Note_on_c, 1, 70, 75
1, 368400, Note_on_c, 1, 70, 0
1, 368400, Note_on_c, 1, 73, 74
1, 368640, Note_on_c, 1, 73, 0
1, 368640, Note_on_c, 1, 61, 91
1, 368760, Note_on_c, 1, 61, 0
1, 368760, Note_on_c, 1, 64, 80
1, 368874, Note_on_c, 1, 64, 0
1, 368880, Note_on_c, 1, 64, 72
1, 369000, Note_on_c, 1, 64, 0
1, 369000, Note_on_c, 1, 67, 71
1, 369120, Note_on_c, 1, 67, 0
1, 369120, Note_on_c, 1, 70, 70
1, 369360, Note_on_c, 1, 70, 0
1, 369360, Note_on_c, 1, 58, 91
1, 369480, Note_on_c, 1, 58, 0
1, 369480, Note_on_c, 1, 61, 80
1, 369594, Note_on_c, 1, 61, 0
1, 369600, Note_on_c, 1, 61, 72
1, 369720, Note_on_c, 1, 61, 0
1, 369720, Note_on_c, 1, 64, 71
1, 369840, Note_on_c, 1, 64, 0
1, 369840, Note_on_c, 1, 67, 70
1, 370080, Note_on_c, 1, 67, 0
1, 370080, Note_on_c, 1, 55, 91
1, 370200, Note_on_c, 1, 55, 0
1, 370200, Note_on_c, 1, 58, 80
1, 370314, Note_on_c, 1, 58, 0
1, 370320, Note_on_c, 1, 58, 72
1, 370440, Note_on_c, 1, 58, 0
1, 370440, Note_on_c, 1, 61, 71
1, 370560, Note_on_c, 1, 61, 0
1, 370560, Note_on_c, 1, 64, 70
1, 370800, Note_on_c, 1, 64, 0
1, 370800, Note_on_c, 1, 52, 91
1, 370920, Note_on_c, 1, 52, 0
1, 370920, Note_on_c, 1, 55, 80
1, 371034, Note_on_c, 1, 55, 0
1, 371040, Note_on_c, 1, 55, 72
1, 371160, Note_on_c, 1, 55, 0
1, 371160, Note_on_c, 1, 58, 71
1, 371280, Note_on_c, 1, 58, 0
1, 371280, Note_on_c, 1, 61, 70
1, 371520, Note_on_c, 1, 61, 0
1, 371520, Note_on_c, 1, 49, 91
1, 371640, Note_on_c, 1, 49, 0
1, 371640, Note_on_c, 1, 52, 80
1, 371754, Note_on_c, 1, 52, 0
1, 371760, Note_on_c, 1, 52, 72
1, 371880, Note_on_c, 1, 52, 0
1, 371880, Note_on_c, 1, 55, 71
1, 372000, Note_on_c, 1, 55, 0
1, 372000, Note_on_c, 1, 58, 70
1, 372240, Note_on_c, 1, 58, 0
1, 372240, Note_on_c, 1, 46, 91
1, 372360, Note_on_c, 1, 46, 0
1, 372360, Note_on_c, 1, 49, 80
1, 372474, Note_on_c, 1, 49, 0
1, 372480, Note_on_c, 1, 49, 72
1, 372600, Note_on_c, 1, 49, 0
1, 372600, Note_on_c, 1, 52, 71
1, 372720, Note_on_c, 1, 52, 0
1, 372720, Note_on_c, 1, 55, 70
1, 372960, Note_on_c, 1, 55, 0
1, 372960, Note_on_c, 1, 43, 91
1, 373080, Note_on_c, 1, 43, 0
1, 373080, Note_on_c, 1, 46, 80
1, 373194, Note_on_c, 1, 46, 0
1, 373200, Note_on_c, 1, 46, 72
1, 373320, Note_on_c, 1, 46, 0
1, 373320, Note_on_c, 1, 49, 71
1, 373440, Note_on_c, 1, 49, 0
1, 373440, Note_on_c, 1, 52, 70
1, 373680, Note_on_c, 1, 52, 0
1, 373680, Note_on_c, 1, 40, 91
1, 373800, Note_on_c, 1, 40, 0
1, 373800, Note_on_c, 1, 43, 80
1, 373914, Note_on_c, 1, 43, 0
1, 373920, Note_on_c, 1, 43, 72
1, 374040, Note_on_c, 1, 43, 0
1, 374040, Note_on_c, 1, 46, 71
1, 374160, Note_on_c, 1, 46, 0
1, 374160, Note_on_c, 1, 49, 70
1, 374400, Note_on_c, 1, 49, 0
1, 374400, Note_on_c, 1, 46, 71
1, 374400, Note_on_c, 1, 43, 71
1, 374400, Note_on_c, 1, 37, 104
1, 374520, Note_on_c, 1, 43, 0
1, 374520, Note_on_c, 1, 46, 0
1, 374520, Note_on_c, 1, 52, 63
1, 374640, Note_on_c, 1, 52, 0
1, 374640, Note_on_c, 1, 46, 71
1, 374640, Note_on_c, 1, 43, 71
1, 374760, Note_on_c, 1, 43, 0
1, 374760, Note_on_c, 1, 46, 0
1, 374760, Note_on_c, 1, 52, 63
1, 374880, Note_on_c, 1, 52, 0
1, 374880, Note_on_c, 1, 37, 0
1, 374880, Note_on_c, 1, 46, 71
1, 374880, Note_on_c, 1, 43, 71
1, 375000, Note_on_c, 1, 43, 0
1, 375000, Note_on_c, 1, 46, 0
1, 375000, Note_on_c, 1, 52, 63
1, 375120, Note_on_c, 1, 52, 0
1, 375120, Note_on_c, 1, 46, 71
1, 375120, Note_on_c, 1, 43, 71
1, 375120, Note_on_c, 1, 73, 106
1, 375240, Note_on_c, 1, 43, 0
1, 375240, Note_on_c, 1, 46, 0
1, 375240, Note_on_c, 1, 52, 63
1, 375360, Note_on_c, 1, 52, 0
1, 375360, Note_on_c, 1, 73, 0
1, 375360, Note_on_c, 1, 46, 71
1, 375360, Note_on_c, 1, 43, 71
1, 375360, Note_on_c, 1, 73, 100
1, 375480, Note_on_c, 1, 43, 0
1, 375480, Note_on_c, 1, 46, 0
1, 375480, Note_on_c, 1, 52, 63
1, 375600, Note_on_c, 1, 52, 0
1, 375600, Note_on_c, 1, 73, 0
1, 375600, Note_on_c, 1, 43, 71
1, 375600, Note_on_c, 1, 46, 71
1, 375600, Note_on_c, 1, 73, 100
1, 375720, Note_on_c, 1, 46, 0
1, 375720, Note_on_c, 1, 43, 0
1, 375720, Note_on_c, 1, 52, 63
1, 375840, Note_on_c, 1, 52, 0
1, 375840, Note_on_c, 1, 73, 0
1, 375840, Note_on_c, 1, 46, 71
1, 375840, Note_on_c, 1, 43, 71
1, 375840, Note_on_c, 1, 73, 105
1, 375960, Note_on_c, 1, 43, 0
1, 375960, Note_on_c, 1, 46, 0
1, 375960, Note_on_c, 1, 52, 63
1, 376080, Note_on_c, 1, 52, 0
1, 376080, Note_on_c, 1, 43, 71
1, 376080, Note_on_c, 1, 46, 71
1, 376200, Note_on_c, 1, 46, 0
1, 376200, Note_on_c, 1, 43, 0
1, 376200, Note_on_c, 1, 52, 63
1, 376320, Note_on_c, 1, 52, 0
1, 376320, Note_on_c, 1, 73, 0
1, 376320, Note_on_c, 1, 46, 71
1, 376320, Note_on_c, 1, 43, 71
1, 376440, Note_on_c, 1, 43, 0
1, 376440, Note_on_c, 1, 46, 0
1, 376440, Note_on_c, 1, 52, 63
1, 376560, Note_on_c, 1, 52, 0
1, 376560, Note_on_c, 1, 46, 71
1, 376560, Note_on_c, 1, 43, 71
1, 376560, Note_on_c, 1, 37, 98
1, 376680, Note_on_c, 1, 43, 0
1, 376680, Note_on_c, 1, 46, 0
1, 376680, Note_on_c, 1, 52, 63
1, 376800, Note_on_c, 1, 52, 0
1, 376800, Note_on_c, 1, 37, 0
1, 376800, Note_on_c, 1, 46, 71
1, 376800, Note_on_c, 1, 43, 71
1, 376800, Note_on_c, 1, 37, 93
1, 376920, Note_on_c, 1, 43, 0
1, 376920, Note_on_c, 1, 46, 0
1, 376920, Note_on_c, 1, 52, 63
1, 377040, Note_on_c, 1, 52, 0
1, 377040, Note_on_c, 1, 37, 0
1, 377040, Note_on_c, 1, 43, 71
1, 377040, Note_on_c, 1, 46, 71
1, 377040, Note_on_c, 1, 37, 93
1, 377160, Note_on_c, 1, 46, 0
1, 377160, Note_on_c, 1, 43, 0
1, 377160, Note_on_c, 1, 52, 63
1, 377280, Note_on_c, 1, 52, 0
1, 377280, Note_on_c, 1, 37, 0
1, 377280, Note_on_c, 1, 43, 71
1, 377280, Note_on_c, 1, 46, 71
1, 377280, Note_on_c, 1, 37, 100
1, 377400, Note_on_c, 1, 46, 0
1, 377400, Note_on_c, 1, 43, 0
1, 377400, Note_on_c, 1, 52, 63
1, 377520, Note_on_c, 1, 52, 0
1, 377520, Note_on_c, 1, 46, 71
1, 377520, Note_on_c, 1, 43, 71
1, 377640, Note_on_c, 1, 43, 0
1, 377640, Note_on_c, 1, 46, 0
1, 377640, Note_on_c, 1, 52, 63
1, 377760, Note_on_c, 1, 52, 0
1, 377760, Note_on_c, 1, 37, 0
1, 377760, Note_on_c, 1, 43, 71
1, 377760, Note_on_c, 1, 46, 71
1, 377880, Note_on_c, 1, 46, 0
1, 377880, Note_on_c, 1, 43, 0
1, 377880, Note_on_c, 1, 52, 63
1, 378000, Note_on_c, 1, 52, 0
1, 378000, Note_on_c, 1, 43, 71
1, 378000, Note_on_c, 1, 46, 71
1, 378000, Note_on_c, 1, 73, 106
1, 378120, Note_on_c, 1, 46, 0
1, 378120, Note_on_c, 1, 43, 0
1, 378120, Note_on_c, 1, 52, 63
1, 378240, Note_on_c, 1, 52, 0
1, 378240, Note_on_c, 1, 73, 0
1, 378240, Note_on_c, 1, 46, 71
1, 378240, Note_on_c, 1, 43, 71
1, 378240, Note_on_c, 1, 73, 100
1, 378360, Note_on_c, 1, 43, 0
1, 378360, Note_on_c, 1, 46, 0
1, 378360, Note_on_c, 1, 52, 63
1, 378480, Note_on_c, 1, 52, 0
1, 378480, Note_on_c, 1, 73, 0
1, 378480, Note_on_c, 1, 43, 71
1, 378480, Note_on_c, 1, 46, 71
1, 378480, Note_on_c, 1, 73, 100
1, 378600, Note_on_c, 1, 46, 0
1, 378600, Note_on_c, 1, 43, 0
1, 378600, Note_on_c, 1, 52, 63
1, 378720, Note_on_c, 1, 52, 0
1, 378720, Note_on_c, 1, 73, 0
1, 378720, Note_on_c, 1, 43, 71
1, 378720, Note_on_c, 1, 46, 71
1, 378720, Note_on_c, 1, 73, 105
1, 378840, Note_on_c, 1, 46, 0
1, 378840, Note_on_c, 1, 43, 0
1, 378840, Note_on_c, 1, 52, 63
1, 378960, Note_on_c, 1, 52, 0
1, 378960, Note_on_c, 1, 43, 71
1, 378960, Note_on_c, 1, 46, 71
1, 379080, Note_on_c, 1, 46, 0
1, 379080, Note_on_c, 1, 43, 0
1, 379080, Note_on_c, 1, 52, 63
1, 379200, Note_on_c, 1, 52, 0
1, 379200, Note_on_c, 1, 73, 0
1, 379200, Note_on_c, 1, 43, 71
1, 379200, Note_on_c, 1, 46, 71
1, 379320, Note_on_c, 1, 46, 0
1, 379320, Note_on_c, 1, 43, 0
1, 379320, Note_on_c, 1, 52, 63
1, 379440, Note_on_c, 1, 52, 0
1, 379440, Note_on_c, 1, 46, 71
1, 379440, Note_on_c, 1, 43, 71
1, 379440, Note_on_c, 1, 37, 98
1, 379560, Note_on_c, 1, 43, 0
1, 379560, Note_on_c, 1, 46, 0
1, 379560, Note_on_c, 1, 52, 63
1, 379680, Note_on_c, 1, 52, 0
1, 379680, Note_on_c, 1, 37, 0
1, 379680, Note_on_c, 1, 43, 71
1, 379680, Note_on_c, 1, 46, 71
1, 379680, Note_on_c, 1, 37, 93
1, 379800, Note_on_c, 1, 46, 0
1, 379800, Note_on_c, 1, 43, 0
1, 379800, Note_on_c, 1, 52, 63
1, 379920, Note_on_c, 1, 52, 0
1, 379920, Note_on_c, 1, 37, 0
1, 379920, Note_on_c, 1, 46, 71
1, 379920, Note_on_c, 1, 43, 71
1, 379920, Note_on_c, 1, 37, 93
1, 380040, Note_on_c, 1, 43, 0
1, 380040, Note_on_c, 1, 46, 0
1, 380040, Note_on_c, 1, 52, 63
1, 380160, Note_on_c, 1, 52, 0
1, 380160, Note_on_c, 1, 37, 0
1, 380160, Note_on_c, 1, 46, 71
1, 380160, Note_on_c, 1, 43, 71
1, 380160, Note_on_c, 1, 36, 100
1, 380280, Note_on_c, 1, 43, 0
1, 380280, Note_on_c, 1, 46, 0
1, 380280, Note_on_c, 1, 52, 63
1, 380400, Note_on_c, 1, 52, 0
1, 380400, Note_on_c, 1, 43, 71
1, 380400, Note_on_c, 1, 46, 71
1, 380520, Note_on_c, 1, 46, 0
1, 380520, Note_on_c, 1, 43, 0
1, 380520, Note_on_c, 1, 52, 63
1, 380640, Note_on_c, 1, 52, 0
1, 380640, Note_on_c, 1, 36, 0
1, 380640, Note_on_c, 1, 43, 71
1, 380640, Note_on_c, 1, 46, 71
1, 380760, Note_on_c, 1, 46, 0
1, 380760, Note_on_c, 1, 43, 0
1, 380760, Note_on_c, 1, 52, 63
1, 380880, Note_on_c, 1, 52, 0
1, 380880, Note_on_c, 1, 46, 71
1, 380880, Note_on_c, 1, 43, 71
1, 380880, Note_on_c, 1, 73, 106
1, 381000, Note_on_c, 1, 43, 0
1, 381000, Note_on_c, 1, 46, 0
1, 381000, Note_on_c, 1, 52, 63
1, 381120, Note_on_c, 1, 52, 0
1, 381120, Note_on_c, 1, 73, 0
1, 381120, Note_on_c, 1, 43, 71
1, 381120, Note_on_c, 1, 46, 71
1, 381120, Note_on_c, 1, 73, 100
1, 381240, Note_on_c, 1, 46, 0
1, 381240, Note_on_c, 1, 43, 0
1, 381240, Note_on_c, 1, 52, 63
1, 381360, Note_on_c, 1, 52, 0
1, 381360, Note_on_c, 1, 73, 0
1, 381360, Note_on_c, 1, 46, 71
1, 381360, Note_on_c, 1, 43, 71
1, 381360, Note_on_c, 1, 73, 100
1, 381480, Note_on_c, 1, 43, 0
1, 381480, Note_on_c, 1, 46, 0
1, 381480, Note_on_c, 1, 52, 63
1, 381600, Note_on_c, 1, 52, 0
1, 381600, Note_on_c, 1, 73, 0
1, 381600, Note_on_c, 1, 46, 71
1, 381600, Note_on_c, 1, 43, 71
1, 381600, Note_on_c, 1, 72, 105
1, 381720, Note_on_c, 1, 43, 0
1, 381720, Note_on_c, 1, 46, 0
1, 381720, Note_on_c, 1, 52, 63
1, 381840, Note_on_c, 1, 52, 0
1, 381840, Note_on_c, 1, 43, 71
1, 381840, Note_on_c, 1, 46, 71
1, 381960, Note_on_c, 1, 46, 0
1, 381960, Note_on_c, 1, 43, 0
1, 381960, Note_on_c, 1, 52, 63
1, 382080, Note_on_c, 1, 52, 0
1, 382080, Note_on_c, 1, 72, 0
1, 382080, Note_on_c, 1, 43, 71
1, 382080, Note_on_c, 1, 46, 71
1, 382200, Note_on_c, 1, 46, 0
1, 382200, Note_on_c, 1, 43, 0
1, 382200, Note_on_c, 1, 52, 63
1, 382320, Note_on_c, 1, 52, 0
1, 382320, Note_on_c, 1, 46, 71
1, 382320, Note_on_c, 1, 43, 71
1, 382320, Note_on_c, 1, 37, 98
1, 382440, Note_on_c, 1, 43, 0
1, 382440, Note_on_c, 1, 46, 0
1, 382440, Note_on_c, 1, 52, 63
1, 382560, Note_on_c, 1, 52, 0
1, 382560, Note_on_c, 1, 37, 0
1, 382560, Note_on_c, 1, 43, 71
1, 382560, Note_on_c, 1, 46, 71
1, 382560, Note_on_c, 1, 37, 93
1, 382680, Note_on_c, 1, 46, 0
1, 382680, Note_on_c, 1, 43, 0
1, 382680, Note_on_c, 1, 52, 63
1, 382800, Note_on_c, 1, 52, 0
1, 382800, Note_on_c, 1, 37, 0
1, 382800, Note_on_c, 1, 43, 71
1, 382800, Note_on_c, 1, 46, 71
1, 382800, Note_on_c, 1, 37, 93
1, 382920, Note_on_c, 1, 46, 0
1, 382920, Note_on_c, 1, 43, 0
1, 382920, Note_on_c, 1, 52, 63
1, 383040, Note_on_c, 1, 52, 0
1, 383040, Note_on_c, 1, 37, 0
1, 383040, Note_on_c, 1, 43, 71
1, 383040, Note_on_c, 1, 46, 71
1, 383040, Note_on_c, 1, 36, 100
1, 383160, Note_on_c, 1, 46, 0
1, 383160, Note_on_c, 1, 43, 0
1, 383160, Note_on_c, 1, 52, 63
1, 383280, Note_on_c, 1, 52, 0
1, 383280, Note_on_c, 1, 43, 71
1, 383280, Note_on_c, 1, 46, 71
1, 383400, Note_on_c, 1, 46, 0
1, 383400, Note_on_c, 1, 43, 0
1, 383400, Note_on_c, 1, 52, 63
1, 383520, Note_on_c, 1, 52, 0
1, 383520, Note_on_c, 1, 36, 0
1, 383520, Note_on_c, 1, 43, 71
1, 383520, Note_on_c, 1, 46, 71
1, 383640, Note_on_c, 1, 46, 0
1, 383640, Note_on_c, 1, 43, 0
1, 383640, Note_on_c, 1, 52, 63
1, 383760, Note_on_c, 1, 52, 0
1, 383760, Note_on_c, 1, 46, 71
1, 383760, Note_on_c, 1, 43, 71
1, 383760, Note_on_c, 1, 73, 106
1, 383880, Note_on_c, 1, 43, 0
1, 383880, Note_on_c, 1, 46, 0
1, 383880, Note_on_c, 1, 52, 63
1, 384000, Note_on_c, 1, 52, 0
1, 384000, Note_on_c, 1, 73, 0
1, 384000, Note_on_c, 1, 43, 71
1, 384000, Note_on_c, 1, 46, 71
1, 384000, Note_on_c, 1, 73, 100
1, 384120, Note_on_c, 1, 46, 0
1, 384120, Note_on_c, 1, 43, 0
1, 384120, Note_on_c, 1, 52, 63
1, 384240, Note_on_c, 1, 52, 0
1, 384240, Note_on_c, 1, 73, 0
1, 384240, Note_on_c, 1, 46, 71
1, 384240, Note_on_c, 1, 43, 71
1, 384240, Note_on_c, 1, 73, 100
1, 384360, Note_on_c, 1, 43, 0
1, 384360, Note_on_c, 1, 46, 0
1, 384360, Note_on_c, 1, 52, 63
1, 384480, Note_on_c, 1, 52, 0
1, 384480, Note_on_c, 1, 73, 0
1, 384480, Note_on_c, 1, 46, 71
1, 384480, Note_on_c, 1, 43, 71
1, 384480, Note_on_c, 1, 72, 105
1, 384600, Note_on_c, 1, 43, 0
1, 384600, Note_on_c, 1, 46, 0
1, 384600, Note_on_c, 1, 52, 63
1, 384720, Note_on_c, 1, 52, 0
1, 384720, Note_on_c, 1, 43, 71
1, 384720, Note_on_c, 1, 46, 71
1, 384840, Note_on_c, 1, 46, 0
1, 384840, Note_on_c, 1, 43, 0
1, 384840, Note_on_c, 1, 52, 63
1, 384960, Note_on_c, 1, 52, 0
1, 384960, Note_on_c, 1, 72, 0
1, 384960, Note_on_c, 1, 43, 71
1, 384960, Note_on_c, 1, 46, 71
1, 385080, Note_on_c, 1, 46, 0
1, 385080, Note_on_c, 1, 43, 0
1, 385080, Note_on_c, 1, 52, 63
1, 385200, Note_on_c, 1, 52, 0
1, 385200, Note_on_c, 1, 43, 71
1, 385200, Note_on_c, 1, 46, 71
1, 385200, Note_on_c, 1, 37, 110
1, 385320, Note_on_c, 1, 46, 0
1, 385320, Note_on_c, 1, 43, 0
1, 385320, Note_on_c, 1, 52, 63
1, 385440, Note_on_c, 1, 52, 0
1, 385440, Note_on_c, 1, 37, 0
1, 385440, Note_on_c, 1, 46, 71
1, 385440, Note_on_c, 1, 43, 71
1, 385440, Note_on_c, 1, 37, 105
1, 385560, Note_on_c, 1, 43, 0
1, 385560, Note_on_c, 1, 46, 0
1, 385560, Note_on_c, 1, 52, 63
1, 385680, Note_on_c, 1, 52, 0
1, 385680, Note_on_c, 1, 37, 0
1, 385680, Note_on_c, 1, 43, 71
1, 385680, Note_on_c, 1, 46, 71
1, 385680, Note_on_c, 1, 37, 105
1, 385800, Note_on_c, 1, 46, 0
1, 385800, Note_on_c, 1, 43, 0
1, 385800, Note_on_c, 1, 52, 63
1, 385920, Note_on_c, 1, 52, 0
1, 385920, Note_on_c, 1, 37, 0
1, 385920, Note_on_c, 1, 43, 65
1, 385920, Note_on_c, 1, 52, 65
1, 385920, Note_on_c, 1, 46, 65
1, 385920, Note_on_c, 1, 36, 59
1, 386140, Note_on_c, 1, 36, 0
1, 386160, Note_on_c, 1, 36, 30
1, 386380, Note_on_c, 1, 36, 0
1, 386400, Note_on_c, 1, 46, 0
1, 386400, Note_on_c, 1, 52, 0
1, 386400, Note_on_c, 1, 43, 0
1, 386400, Note_on_c, 1, 36, 30
1, 386620, Note_on_c, 1, 36, 0
1, 386640, Note_on_c, 1, 36, 32
1, 386860, Note_on_c, 1, 36, 0
1, 386880, Note_on_c, 1, 36, 27
1, 387100, Note_on_c, 1, 36, 0
1, 387120, Note_on_c, 1, 36, 27
1, 387340, Note_on_c, 1, 36, 0
1, 387360, Note_on_c, 1, 36, 30
1, 387580, Note_on_c, 1, 36, 0
1, 387600, Note_on_c, 1, 36, 24
1, 387820, Note_on_c, 1, 36, 0
1, 387840, Note_on_c, 1, 36, 24
1, 388060, Note_on_c, 1, 36, 0
1, 388080, Note_on_c, 1, 36, 28
1, 388300, Note_on_c, 1, 36, 0
1, 388320, Note_on_c, 1, 36, 22
1, 388540, Note_on_c, 1, 36, 0
1, 388560, Note_on_c, 1, 36, 22
1, 388780, Note_on_c, 1, 36, 0
1, 388800, Note_on_c, 1, 36, 24
1, 389020, Note_on_c, 1, 36, 0
1, 389040, Note_on_c, 1, 36, 22
1, 389260, Note_on_c, 1, 36, 0
1, 389280, Note_on_c, 1, 36, 22
1, 389500, Note_on_c, 1, 36, 0
1, 389520, Note_on_c, 1, 36, 24
1, 389740, Note_on_c, 1, 36, 0
1, 389760, Note_on_c, 1, 36, 20
1, 389980, Note_on_c, 1, 36, 0
1, 390000, Note_on_c, 1, 36, 20
1, 390220, Note_on_c, 1, 36, 0
1, 390240, Note_on_c, 1, 36, 23
1, 390460, Note_on_c, 1, 36, 0
1, 390480, Note_on_c, 1, 36, 18
1, 390700, Note_on_c, 1, 36, 0
1, 390720, Note_on_c, 1, 36, 23
1, 390940, Note_on_c, 1, 36, 0
1, 390960, Note_on_c, 1, 48, 27
1, 390960, Note_on_c, 1, 60, 35
1, 390960, Note_on_c, 1, 36, 23
1, 391180, Note_on_c, 1, 36, 0
1, 391200, Note_on_c, 1, 36, 20
1, 391420, Note_on_c, 1, 36, 0
1, 391440, Note_on_c, 1, 36, 22
1, 391560, Note_on_c, 1, 60, 0
1, 391560, Note_on_c, 1, 48, 0
1, 391560, Note_on_c, 1, 56, 31
1, 391560, Note_on_c, 1, 44, 25
1, 391660, Note_on_c, 1, 36, 0
1, 391680, Note_on_c, 1, 44, 0
1, 391680, Note_on_c, 1, 56, 0
1, 391680, Note_on_c, 1, 41, 22
1, 391680, Note_on_c, 1, 53, 28
1, 391680, Note_on_c, 1, 36, 23
1, 391900, Note_on_c, 1, 36, 0
1, 391920, Note_on_c, 1, 36, 20
1, 392140, Note_on_c, 1, 36, 0
1, 392160, Note_on_c, 1, 36, 22
1, 392380, Note_on_c, 1, 36, 0
1, 392400, Note_on_c, 1, 36, 23
1, 392620, Note_on_c, 1, 36, 0
1, 392640, Note_on_c, 1, 36, 20
1, 392860, Note_on_c, 1, 36, 0
1, 392880, Note_on_c, 1, 36, 22
1, 393100, Note_on_c, 1, 36, 0
1, 393120, Note_on_c, 1, 36, 23
1, 393340, Note_on_c, 1, 36, 0
1, 393360, Note_on_c, 1, 36, 20
1, 393580, Note_on_c, 1, 36, 0
1, 393600, Note_on_c, 1, 36, 22
1, 393820, Note_on_c, 1, 36, 0
1, 393840, Note_on_c, 1, 53, 0
1, 393840, Note_on_c, 1, 41, 0
1, 393840, Note_on_c, 1, 56, 35
1, 393840, Note_on_c, 1, 44, 27
1, 393840, Note_on_c, 1, 36, 23
1, 394060, Note_on_c, 1, 36, 0
1, 394080, Note_on_c, 1, 36, 20
1, 394300, Note_on_c, 1, 36, 0
1, 394320, Note_on_c, 1, 36, 22
1, 394440, Note_on_c, 1, 44, 0
1, 394440, Note_on_c, 1, 56, 0
1, 394440, Note_on_c, 1, 48, 24
1, 394440, Note_on_c, 1, 60, 30
1, 394540, Note_on_c, 1, 36, 0
1, 394560, Note_on_c, 1, 60, 0
1, 394560, Note_on_c, 1, 48, 0
1, 394560, Note_on_c, 1, 65, 35
1, 394560, Note_on_c, 1, 53, 27
1, 394560, Note_on_c, 1, 36, 23
1, 394780, Note_on_c, 1, 36, 0
1, 394800, Note_on_c, 1, 36, 20
1, 395020, Note_on_c, 1, 36, 0
1, 395040, Note_on_c, 1, 36, 22
1, 395260, Note_on_c, 1, 36, 0
1, 395280, Note_on_c, 1, 53, 0
1, 395280, Note_on_c, 1, 65, 0
1, 395280, Note_on_c, 1, 68, 36
1, 395280, Note_on_c, 1, 56, 28
1, 395280, Note_on_c, 1, 36, 23
1, 395500, Note_on_c, 1, 36, 0
1, 395520, Note_on_c, 1, 36, 20
1, 395740, Note_on_c, 1, 36, 0
1, 395760, Note_on_c, 1, 36, 22
1, 395880, Note_on_c, 1, 56, 0
1, 395880, Note_on_c, 1, 68, 0
1, 395880, Note_on_c, 1, 72, 31
1, 395880, Note_on_c, 1, 60, 25
1, 395980, Note_on_c, 1, 36, 0
1, 396000, Note_on_c, 1, 60, 0
1, 396000, Note_on_c, 1, 72, 0
1, 396000, Note_on_c, 1, 77, 40
1, 396000, Note_on_c, 1, 65, 31
1, 396000, Note_on_c, 1, 36, 23
1, 396220, Note_on_c, 1, 36, 0
1, 396240, Note_on_c, 1, 36, 20
1, 396460, Note_on_c, 1, 36, 0
1, 396480, Note_on_c, 1, 36, 22
1, 396700, Note_on_c, 1, 36, 0
1, 396715, Note_on_c, 1, 65, 0
1, 396715, Note_on_c, 1, 77, 0
1, 396720, Note_on_c, 1, 65, 33
1, 396720, Note_on_c, 1, 53, 26
1, 396720, Note_on_c, 1, 36, 23
1, 396940, Note_on_c, 1, 36, 0
1, 396960, Note_on_c, 1, 36, 20
1, 397180, Note_on_c, 1, 36, 0
1, 397200, Note_on_c, 1, 36, 22
1, 397420, Note_on_c, 1, 36, 0
1, 397440, Note_on_c, 1, 53, 0
1, 397440, Note_on_c, 1, 65, 0
1, 397440, Note_on_c, 1, 67, 26
1, 397440, Note_on_c, 1, 64, 26
1, 397440, Note_on_c, 1, 72, 35
1, 397440, Note_on_c, 1, 36, 23
1, 397660, Note_on_c, 1, 36, 0
1, 397680, Note_on_c, 1, 36, 20
1, 397900, Note_on_c, 1, 36, 0
1, 397920, Note_on_c, 1, 36, 22
1, 398140, Note_on_c, 1, 36, 0
1, 398160, Note_on_c, 1, 36, 23
1, 398380, Note_on_c, 1, 36, 0
1, 398400, Note_on_c, 1, 36, 20
1, 398620, Note_on_c, 1, 36, 0
1, 398640, Note_on_c, 1, 72, 0
1, 398640, Note_on_c, 1, 74, 33
1, 398640, Note_on_c, 1, 36, 22
1, 398860, Note_on_c, 1, 36, 0
1, 398880, Note_on_c, 1, 67, 0
1, 398880, Note_on_c, 1, 64, 0
1, 398880, Note_on_c, 1, 74, 0
1, 398880, Note_on_c, 1, 65, 26
1, 398880, Note_on_c, 1, 71, 26
1, 398880, Note_on_c, 1, 74, 33
1, 398880, Note_on_c, 1, 36, 23
1, 398960, Note_on_c, 1, 74, 0
1, 398960, Note_on_c, 1, 76, 29
1, 399040, Note_on_c, 1, 76, 0
1, 399040, Note_on_c, 1, 74, 33
1, 399100, Note_on_c, 1, 36, 0
1, 399120, Note_on_c, 1, 74, 0
1, 399120, Note_on_c, 1, 76, 29
1, 399120, Note_on_c, 1, 36, 20
1, 399200, Note_on_c, 1, 76, 0
1, 399200, Note_on_c, 1, 74, 33
1, 399280, Note_on_c, 1, 74, 0
1, 399280, Note_on_c, 1, 76, 30
1, 399340, Note_on_c, 1, 36, 0
1, 399360, Note_on_c, 1, 76, 0
1, 399360, Note_on_c, 1, 74, 33
1, 399360, Note_on_c, 1, 36, 22
1, 399440, Note_on_c, 1, 74, 0
1, 399440, Note_on_c, 1, 76, 29
1, 399520, Note_on_c, 1, 76, 0
1, 399520, Note_on_c, 1, 74, 33
1, 399580, Note_on_c, 1, 36, 0
1, 399600, Note_on_c, 1, 74, 0
1, 399600, Note_on_c, 1, 76, 30
1, 399600, Note_on_c, 1, 36, 23
1, 399680, Note_on_c, 1, 76, 0
1, 399680, Note_on_c, 1, 74, 28
1, 399760, Note_on_c, 1, 74, 0
1, 399760, Note_on_c, 1, 76, 33
1, 399820, Note_on_c, 1, 36, 0
1, 399840, Note_on_c, 1, 76, 0
1, 399840, Note_on_c, 1, 74, 28
1, 399840, Note_on_c, 1, 36, 20
1, 399960, Note_on_c, 1, 74, 0
1, 399960, Note_on_c, 1, 72, 30
1, 400060, Note_on_c, 1, 36, 0
1, 400080, Note_on_c, 1, 72, 0
1, 400080, Note_on_c, 1, 76, 35
1, 400080, Note_on_c, 1, 36, 22
1, 400200, Note_on_c, 1, 76, 0
1, 400200, Note_on_c, 1, 74, 31
1, 400300, Note_on_c, 1, 36, 0
1, 400320, Note_on_c, 1, 65, 0
1, 400320, Note_on_c, 1, 71, 0
1, 400320, Note_on_c, 1, 74, 0
1, 400320, Note_on_c, 1, 72, 35
1, 400320, Note_on_c, 1, 64, 19
1, 400320, Note_on_c, 1, 67, 22
1, 400320, Note_on_c, 1, 36, 23
1, 400540, Note_on_c, 1, 36, 0
1, 400560, Note_on_c, 1, 36, 20
1, 400780, Note_on_c, 1, 36, 0
1, 400800, Note_on_c, 1, 67, 0
1, 400800, Note_on_c, 1, 64, 0
1, 400800, Note_on_c, 1, 72, 0
1, 400800, Note_on_c, 1, 36, 22
1, 401020, Note_on_c, 1, 36, 0
1, 401040, Note_on_c, 1, 36, 23
1, 401260, Note_on_c, 1, 36, 0
1, 401280, Note_on_c, 1, 36, 20
1, 401500, Note_on_c, 1, 36, 0
1, 401520, Note_on_c, 1, 36, 22
1, 401740, Note_on_c, 1, 36, 0
1, 401760, Note_on_c, 1, 36, 23
1, 401980, Note_on_c, 1, 36, 0
1, 402000, Note_on_c, 1, 37, 20
1, 402220, Note_on_c, 1, 37, 0
1, 402240, Note_on_c, 1, 37, 22
1, 402460, Note_on_c, 1, 37, 0
1, 402480, Note_on_c, 1, 61, 35
1, 402480, Note_on_c, 1, 49, 27
1, 402480, Note_on_c, 1, 37, 23
1, 402700, Note_on_c, 1, 37, 0
1, 402720, Note_on_c, 1, 37, 20
1, 402940, Note_on_c, 1, 37, 0
1, 402960, Note_on_c, 1, 37, 22
1, 403080, Note_on_c, 1, 49, 0
1, 403080, Note_on_c, 1, 61, 0
1, 403080, Note_on_c, 1, 58, 31
1, 403080, Note_on_c, 1, 46, 25
1, 403180, Note_on_c, 1, 37, 0
1, 403200, Note_on_c, 1, 46, 0
1, 403200, Note_on_c, 1, 58, 0
1, 403200, Note_on_c, 1, 54, 28
1, 403200, Note_on_c, 1, 42, 22
1, 403200, Note_on_c, 1, 37, 23
1, 403420, Note_on_c, 1, 37, 0
1, 403440, Note_on_c, 1, 37, 20
1, 403660, Note_on_c, 1, 37, 0
1, 403680, Note_on_c, 1, 37, 22
1, 403900, Note_on_c, 1, 37, 0
1, 403920, Note_on_c, 1, 37, 23
1, 404140, Note_on_c, 1, 37, 0
1, 404160, Note_on_c, 1, 37, 20
1, 404380, Note_on_c, 1, 37, 0
1, 404400, Note_on_c, 1, 37, 22
1, 404620, Note_on_c, 1, 37, 0
1, 404640, Note_on_c, 1, 37, 23
1, 404860, Note_on_c, 1, 37, 0
1, 404880, Note_on_c, 1, 37, 20
1, 405100, Note_on_c, 1, 37, 0
1, 405120, Note_on_c, 1, 37, 22
1, 405340, Note_on_c, 1, 37, 0
1, 405360, Note_on_c, 1, 42, 0
1, 405360, Note_on_c, 1, 54, 0
1, 405360, Note_on_c, 1, 46, 27
1, 405360, Note_on_c, 1, 58, 35
1, 405360, Note_on_c, 1, 37, 23
1, 405580, Note_on_c, 1, 37, 0
1, 405600, Note_on_c, 1, 37, 20
1, 405820, Note_on_c, 1, 37, 0
1, 405840, Note_on_c, 1, 37, 22
1, 405960, Note_on_c, 1, 58, 0
1, 405960, Note_on_c, 1, 46, 0
1, 405960, Note_on_c, 1, 61, 30
1, 405960, Note_on_c, 1, 49, 24
1, 406060, Note_on_c, 1, 37, 0
1, 406080, Note_on_c, 1, 49, 0
1, 406080, Note_on_c, 1, 61, 0
1, 406080, Note_on_c, 1, 54, 27
1, 406080, Note_on_c, 1, 66, 35
1, 406080, Note_on_c, 1, 37, 23
1, 406300, Note_on_c, 1, 37, 0
1, 406320, Note_on_c, 1, 37, 20
1, 406540, Note_on_c, 1, 37, 0
1, 406560, Note_on_c, 1, 37, 22
1, 406780, Note_on_c, 1, 37, 0
1, 406800, Note_on_c, 1, 66, 0
1, 406800, Note_on_c, 1, 54, 0
1, 406800, Note_on_c, 1, 70, 36
1, 406800, Note_on_c, 1, 58, 28
1, 406800, Note_on_c, 1, 37, 23
1, 407020, Note_on_c, 1, 37, 0
1, 407040, Note_on_c, 1, 37, 20
1, 407260, Note_on_c, 1, 37, 0
1, 407280, Note_on_c, 1, 37, 22
1, 407400, Note_on_c, 1, 58, 0
1, 407400, Note_on_c, 1, 70, 0
1, 407400, Note_on_c, 1, 61, 25
1, 407400, Note_on_c, 1, 73, 31
1, 407500, Note_on_c, 1, 37, 0
1, 407520, Note_on_c, 1, 73, 0
1, 407520, Note_on_c, 1, 61, 0
1, 407520, Note_on_c, 1, 78, 40
1, 407520, Note_on_c, 1, 66, 31
1, 407520, Note_on_c, 1, 37, 23
1, 407740, Note_on_c, 1, 37, 0
1, 407760, Note_on_c, 1, 37, 20
1, 407980, Note_on_c, 1, 37, 0
1, 408000, Note_on_c, 1, 37, 22
1, 408220, Note_on_c, 1, 37, 0
1, 408240, Note_on_c, 1, 66, 0
1, 408240, Note_on_c, 1, 78, 0
1, 408240, Note_on_c, 1, 54, 26
1, 408240, Note_on_c, 1, 66, 33
1, 408240, Note_on_c, 1, 37, 23
1, 408460, Note_on_c, 1, 37, 0
1, 408480, Note_on_c, 1, 37, 20
1, 408700, Note_on_c, 1, 37, 0
1, 408720, Note_on_c, 1, 37, 22
1, 408940, Note_on_c, 1, 37, 0
1, 408960, Note_on_c, 1, 66, 0
1, 408960, Note_on_c, 1, 54, 0
1, 408960, Note_on_c, 1, 65, 26
1, 408960, Note_on_c, 1, 68, 26
1, 408960, Note_on_c, 1, 73, 35
1, 408960, Note_on_c, 1, 37, 23
1, 409180, Note_on_c, 1, 37, 0
1, 409200, Note_on_c, 1, 37, 20
1, 409420, Note_on_c, 1, 37, 0
1, 409440, Note_on_c, 1, 37, 22
1, 409660, Note_on_c, 1, 37, 0
1, 409680, Note_on_c, 1, 37, 23
1, 409900, Note_on_c, 1, 37, 0
1, 409920, Note_on_c, 1, 37, 20
1, 410140, Note_on_c, 1, 37, 0
1, 410160, Note_on_c, 1, 73, 0
1, 410160, Note_on_c, 1, 75, 33
1, 410160, Note_on_c, 1, 37, 22
1, 410380, Note_on_c, 1, 37, 0
1, 410400, Note_on_c, 1, 65, 0
1, 410400, Note_on_c, 1, 68, 0
1, 410400, Note_on_c, 1, 75, 0
1, 410400, Note_on_c, 1, 75, 28
1, 410400, Note_on_c, 1, 66, 26
1, 410400, Note_on_c, 1, 72, 26
1, 410400, Note_on_c, 1, 37, 23
1, 410480, Note_on_c, 1, 75, 0
1, 410480, Note_on_c, 1, 77, 25
1, 410560, Note_on_c, 1, 77, 0
1, 410560, Note_on_c, 1, 75, 28
1, 410620, Note_on_c, 1, 37, 0
1, 410640, Note_on_c, 1, 75, 0
1, 410640, Note_on_c, 1, 77, 25
1, 410640, Note_on_c, 1, 37, 20
1, 410720, Note_on_c, 1, 77, 0
1, 410720, Note_on_c, 1, 75, 28
1, 410800, Note_on_c, 1, 75, 0
1, 410800, Note_on_c, 1, 77, 25
1, 410860, Note_on_c, 1, 37, 0
1, 410880, Note_on_c, 1, 77, 0
1, 410880, Note_on_c, 1, 75, 29
1, 410880, Note_on_c, 1, 37, 22
1, 410960, Note_on_c, 1, 75, 0
1, 410960, Note_on_c, 1, 77, 25
1, 411040, Note_on_c, 1, 77, 0
1, 411040, Note_on_c, 1, 75, 29
1, 411100, Note_on_c, 1, 37, 0
1, 411120, Note_on_c, 1, 75, 0
1, 411120, Note_on_c, 1, 77, 26
1, 411120, Note_on_c, 1, 37, 23
1, 411200, Note_on_c, 1, 77, 0
1, 411200, Note_on_c, 1, 75, 29
1, 411280, Note_on_c, 1, 75, 0
1, 411280, Note_on_c, 1, 77, 27
1, 411340, Note_on_c, 1, 37, 0
1, 411360, Note_on_c, 1, 77, 0
1, 411360, Note_on_c, 1, 75, 24
1, 411360, Note_on_c, 1, 37, 20
1, 411480, Note_on_c, 1, 75, 0
1, 411480, Note_on_c, 1, 73, 30
1, 411580, Note_on_c, 1, 37, 0
1, 411600, Note_on_c, 1, 73, 0
1, 411600, Note_on_c, 1, 77, 35
1, 411600, Note_on_c, 1, 37, 22
1, 411720, Note_on_c, 1, 77, 0
1, 411720, Note_on_c, 1, 75, 31
1, 411820, Note_on_c, 1, 37, 0
1, 411840, Note_on_c, 1, 66, 0
1, 411840, Note_on_c, 1, 72, 0
1, 411840, Note_on_c, 1, 75, 0
1, 411840, Note_on_c, 1, 73, 35
1, 411840, Note_on_c, 1, 65, 19
1, 411840, Note_on_c, 1, 68, 22
1, 411840, Note_on_c, 1, 37, 23
1, 412060, Note_on_c, 1, 37, 0
1, 412080, Note_on_c, 1, 41, 20
1, 412080, Note_on_c, 1, 35, 15
1, 412300, Note_on_c, 1, 35, 0
1, 412300, Note_on_c, 1, 41, 0
1, 412320, Note_on_c, 1, 68, 0
1, 412320, Note_on_c, 1, 65, 0
1, 412320, Note_on_c, 1, 73, 0
1, 412320, Note_on_c, 1, 41, 22
1, 412320, Note_on_c, 1, 35, 16
1, 412540, Note_on_c, 1, 35, 0
1, 412540, Note_on_c, 1, 41, 0
1, 412560, Note_on_c, 1, 41, 23
1, 412560, Note_on_c, 1, 35, 17
1, 412780, Note_on_c, 1, 35, 0
1, 412780, Note_on_c, 1, 41, 0
1, 412800, Note_on_c, 1, 41, 20
1, 412800, Note_on_c, 1, 35, 15
1, 413020, Note_on_c, 1, 35, 0
1, 413020, Note_on_c, 1, 41, 0
1, 413040, Note_on_c, 1, 41, 22
1, 413040, Note_on_c, 1, 35, 16
1, 413260, Note_on_c, 1, 35, 0
1, 413260, Note_on_c, 1, 41, 0
1, 413280, Note_on_c, 1, 41, 23
1, 413280, Note_on_c, 1, 35, 17
1, 413500, Note_on_c, 1, 35, 0
1, 413500, Note_on_c, 1, 41, 0
1, 413520, Note_on_c, 1, 35, 15
1, 413520, Note_on_c, 1, 41, 20
1, 413740, Note_on_c, 1, 41, 0
1, 413740, Note_on_c, 1, 35, 0
1, 413760, Note_on_c, 1, 35, 16
1, 413760, Note_on_c, 1, 41, 22
1, 413980, Note_on_c, 1, 41, 0
1, 413980, Note_on_c, 1, 35, 0
1, 414000, Note_on_c, 1, 35, 17
1, 414000, Note_on_c, 1, 41, 23
1, 414220, Note_on_c, 1, 41, 0
1, 414220, Note_on_c, 1, 35, 0
1, 414240, Note_on_c, 1, 35, 15
1, 414240, Note_on_c, 1, 41, 20
1, 414460, Note_on_c, 1, 41, 0
1, 414460, Note_on_c, 1, 35, 0
1, 414480, Note_on_c, 1, 35, 16
1, 414480, Note_on_c, 1, 41, 22
1, 414700, Note_on_c, 1, 41, 0
1, 414700, Note_on_c, 1, 35, 0
1, 414720, Note_on_c, 1, 72, 35
1, 414720, Note_on_c, 1, 40, 26
1, 414960, Note_on_c, 1, 36, 20
1, 415180, Note_on_c, 1, 36, 0
1, 415200, Note_on_c, 1, 36, 22
1, 415420, Note_on_c, 1, 36, 0
1, 415440, Note_on_c, 1, 36, 23
1, 415660, Note_on_c, 1, 36, 0
1, 415680, Note_on_c, 1, 36, 20
1, 415900, Note_on_c, 1, 36, 0
1, 415920, Note_on_c, 1, 72, 0
1, 415920, Note_on_c, 1, 74, 38
1, 415920, Note_on_c, 1, 36, 22
1, 416100, Note_on_c, 1, 74, 0
1, 416100, Note_on_c, 1, 72, 38
1, 416140, Note_on_c, 1, 36, 0
1, 416160, Note_on_c, 1, 72, 0
1, 416160, Note_on_c, 1, 40, 0
1, 416160, Note_on_c, 1, 74, 37
1, 416160, Note_on_c, 1, 41, 26
1, 416240, Note_on_c, 1, 74, 0
1, 416240, Note_on_c, 1, 76, 32
1, 416320, Note_on_c, 1, 76, 0
1, 416320, Note_on_c, 1, 74, 37
1, 416400, Note_on_c, 1, 74, 0
1, 416400, Note_on_c, 1, 76, 33
1, 416400, Note_on_c, 1, 36, 20
1, 416480, Note_on_c, 1, 76, 0
1, 416480, Note_on_c, 1, 74, 37
1, 416560, Note_on_c, 1, 74, 0
1, 416560, Note_on_c, 1, 76, 33
1, 416620, Note_on_c, 1, 36, 0
1, 416640, Note_on_c, 1, 76, 0
1, 416640, Note_on_c, 1, 74, 37
1, 416640, Note_on_c, 1, 36, 22
1, 416720, Note_on_c, 1, 74, 0
1, 416720, Note_on_c, 1, 76, 33
1, 416800, Note_on_c, 1, 76, 0
1, 416800, Note_on_c, 1, 74, 37
1, 416860, Note_on_c, 1, 36, 0
1, 416880, Note_on_c, 1, 74, 0
1, 416880, Note_on_c, 1, 76, 34
1, 416880, Note_on_c, 1, 36, 23
1, 416960, Note_on_c, 1, 76, 0
1, 416960, Note_on_c, 1, 74, 31
1, 417040, Note_on_c, 1, 74, 0
1, 417040, Note_on_c, 1, 76, 37
1, 417100, Note_on_c, 1, 36, 0
1, 417120, Note_on_c, 1, 76, 0
1, 417120, Note_on_c, 1, 74, 31
1, 417120, Note_on_c, 1, 36, 20
1, 417240, Note_on_c, 1, 74, 0
1, 417240, Note_on_c, 1, 72, 34
1, 417340, Note_on_c, 1, 36, 0
1, 417360, Note_on_c, 1, 72, 0
1, 417360, Note_on_c, 1, 76, 40
1, 417360, Note_on_c, 1, 36, 22
1, 417480, Note_on_c, 1, 76, 0
1, 417480, Note_on_c, 1, 74, 35
1, 417580, Note_on_c, 1, 36, 0
1, 417600, Note_on_c, 1, 74, 0
1, 417600, Note_on_c, 1, 41, 0
1, 417600, Note_on_c, 1, 72, 35
1, 417600, Note_on_c, 1, 40, 26
1, 417820, Note_on_c, 1, 40, 0
1, 417840, Note_on_c, 1, 36, 20
1, 418060, Note_on_c, 1, 36, 0
1, 418080, Note_on_c, 1, 72, 0
1, 418080, Note_on_c, 1, 36, 22
1, 418300, Note_on_c, 1, 36, 0
1, 418320, Note_on_c, 1, 49, 27
1, 418320, Note_on_c, 1, 36, 23
1, 418540, Note_on_c, 1, 36, 0
1, 418540, Note_on_c, 1, 49, 0
1, 418560, Note_on_c, 1, 36, 20
1, 418560, Note_on_c, 1, 49, 26
1, 418780, Note_on_c, 1, 49, 0
1, 418780, Note_on_c, 1, 36, 0
1, 418800, Note_on_c, 1, 49, 26
1, 418800, Note_on_c, 1, 36, 22
1, 419020, Note_on_c, 1, 36, 0
1, 419020, Note_on_c, 1, 49, 0
1, 419040, Note_on_c, 1, 48, 26
1, 419040, Note_on_c, 1, 36, 26
1, 419260, Note_on_c, 1, 36, 0
1, 419280, Note_on_c, 1, 36, 20
1, 419500, Note_on_c, 1, 36, 0
1, 419520, Note_on_c, 1, 48, 0
1, 419520, Note_on_c, 1, 36, 22
1, 419740, Note_on_c, 1, 36, 0
1, 419760, Note_on_c, 1, 36, 23
1, 419980, Note_on_c, 1, 36, 0
1, 420000, Note_on_c, 1, 36, 20
1, 420220, Note_on_c, 1, 36, 0
1, 420240, Note_on_c, 1, 36, 22
1, 420460, Note_on_c, 1, 36, 0
1, 420480, Note_on_c, 1, 76, 40
1, 420480, Note_on_c, 1, 43, 26
1, 420720, Note_on_c, 1, 36, 20
1, 420940, Note_on_c, 1, 36, 0
1, 420960, Note_on_c, 1, 36, 22
1, 421180, Note_on_c, 1, 36, 0
1, 421200, Note_on_c, 1, 36, 23
1, 421420, Note_on_c, 1, 36, 0
1, 421440, Note_on_c, 1, 36, 20
1, 421660, Note_on_c, 1, 36, 0
1, 421680, Note_on_c, 1, 76, 0
1, 421680, Note_on_c, 1, 77, 38
1, 421680, Note_on_c, 1, 36, 22
1, 421860, Note_on_c, 1, 77, 0
1, 421860, Note_on_c, 1, 76, 38
1, 421900, Note_on_c, 1, 36, 0
1, 421920, Note_on_c, 1, 76, 0
1, 421920, Note_on_c, 1, 43, 0
1, 421920, Note_on_c, 1, 77, 37
1, 421920, Note_on_c, 1, 44, 26
1, 422000, Note_on_c, 1, 77, 0
1, 422000, Note_on_c, 1, 79, 32
1, 422080, Note_on_c, 1, 79, 0
1, 422080, Note_on_c, 1, 77, 37
1, 422160, Note_on_c, 1, 77, 0
1, 422160, Note_on_c, 1, 79, 33
1, 422160, Note_on_c, 1, 36, 20
1, 422240, Note_on_c, 1, 79, 0
1, 422240, Note_on_c, 1, 77, 37
1, 422320, Note_on_c, 1, 77, 0
1, 422320, Note_on_c, 1, 79, 33
1, 422380, Note_on_c, 1, 36, 0
1, 422400, Note_on_c, 1, 79, 0
1, 422400, Note_on_c, 1, 77, 37
1, 422400, Note_on_c, 1, 36, 22
1, 422480, Note_on_c, 1, 77, 0
1, 422480, Note_on_c, 1, 79, 33
1, 422560, Note_on_c, 1, 79, 0
1, 422560, Note_on_c, 1, 77, 37
1, 422620, Note_on_c, 1, 36, 0
1, 422640, Note_on_c, 1, 77, 0
1, 422640, Note_on_c, 1, 79, 34
1, 422640, Note_on_c, 1, 36, 23
1, 422720, Note_on_c, 1, 79, 0
1, 422720, Note_on_c, 1, 77, 31
1, 422800, Note_on_c, 1, 77, 0
1, 422800, Note_on_c, 1, 79, 37
1, 422860, Note_on_c, 1, 36, 0
1, 422880, Note_on_c, 1, 79, 0
1, 422880, Note_on_c, 1, 77, 31
1, 422880, Note_on_c, 1, 36, 20
1, 423000, Note_on_c, 1, 77, 0
1, 423000, Note_on_c, 1, 76, 34
1, 423100, Note_on_c, 1, 36, 0
1, 423120, Note_on_c, 1, 76, 0
1, 423120, Note_on_c, 1, 79, 40
1, 423120, Note_on_c, 1, 36, 22
1, 423240, Note_on_c, 1, 79, 0
1, 423240, Note_on_c, 1, 77, 35
1, 423340, Note_on_c, 1, 36, 0
1, 423360, Note_on_c, 1, 77, 0
1, 423360, Note_on_c, 1, 44, 0
1, 423360, Note_on_c, 1, 76, 35
1, 423360, Note_on_c, 1, 43, 26
1, 423580, Note_on_c, 1, 43, 0
1, 423600, Note_on_c, 1, 36, 20
1, 423820, Note_on_c, 1, 36, 0
1, 423840, Note_on_c, 1, 76, 0
1, 423840, Note_on_c, 1, 36, 22
1, 424060, Note_on_c, 1, 36, 0
1, 424080, Note_on_c, 1, 36, 23
1, 424080, Note_on_c, 1, 49, 27
1, 424300, Note_on_c, 1, 49, 0
1, 424300, Note_on_c, 1, 36, 0
1, 424320, Note_on_c, 1, 49, 26
1, 424320, Note_on_c, 1, 36, 20
1, 424540, Note_on_c, 1, 36, 0
1, 424540, Note_on_c, 1, 49, 0
1, 424560, Note_on_c, 1, 49, 26
1, 424560, Note_on_c, 1, 36, 22
1, 424780, Note_on_c, 1, 36, 0
1, 424780, Note_on_c, 1, 49, 0
1, 424800, Note_on_c, 1, 48, 26
1, 424800, Note_on_c, 1, 36, 26
1, 425020, Note_on_c, 1, 36, 0
1, 425040, Note_on_c, 1, 36, 20
1, 425260, Note_on_c, 1, 36, 0
1, 425280, Note_on_c, 1, 48, 0
1, 425280, Note_on_c, 1, 36, 22
1, 425500, Note_on_c, 1, 36, 0
1, 425520, Note_on_c, 1, 76, 35
1, 425520, Note_on_c, 1, 79, 35
1, 425520, Note_on_c, 1, 36, 23
1, 425740, Note_on_c, 1, 36, 0
1, 425760, Note_on_c, 1, 79, 0
1, 425760, Note_on_c, 1, 76, 0
1, 425760, Note_on_c, 1, 76, 31
1, 425760, Note_on_c, 1, 79, 31
1, 425760, Note_on_c, 1, 36, 20
1, 425980, Note_on_c, 1, 36, 0
1, 426000, Note_on_c, 1, 79, 0
1, 426000, Note_on_c, 1, 76, 0
1, 426000, Note_on_c, 1, 79, 35
1, 426000, Note_on_c, 1, 76, 35
1, 426000, Note_on_c, 1, 36, 22
1, 426220, Note_on_c, 1, 36, 0
1, 426240, Note_on_c, 1, 76, 0
1, 426240, Note_on_c, 1, 79, 0
1, 426240, Note_on_c, 1, 82, 35
1, 426240, Note_on_c, 1, 79, 35
1, 426240, Note_on_c, 1, 36, 26
1, 426460, Note_on_c, 1, 36, 0
1, 426480, Note_on_c, 1, 36, 20
1, 426700, Note_on_c, 1, 36, 0
1, 426720, Note_on_c, 1, 79, 0
1, 426720, Note_on_c, 1, 82, 0
1, 426720, Note_on_c, 1, 36, 22
1, 426940, Note_on_c, 1, 36, 0
1, 426960, Note_on_c, 1, 49, 27
1, 426960, Note_on_c, 1, 36, 23
1, 427180, Note_on_c, 1, 36, 0
1, 427180, Note_on_c, 1, 49, 0
1, 427200, Note_on_c, 1, 36, 20
1, 427200, Note_on_c, 1, 49, 26
1, 427420, Note_on_c, 1, 49, 0
1, 427420, Note_on_c, 1, 36, 0
1, 427440, Note_on_c, 1, 36, 22
1, 427440, Note_on_c, 1, 49, 26
1, 427660, Note_on_c, 1, 49, 0
1, 427660, Note_on_c, 1, 36, 0
1, 427680, Note_on_c, 1, 48, 26
1, 427680, Note_on_c, 1, 36, 26
1, 427900, Note_on_c, 1, 36, 0
1, 427920, Note_on_c, 1, 36, 20
1, 428140, Note_on_c, 1, 36, 0
1, 428160, Note_on_c, 1, 48, 0
1, 428160, Note_on_c, 1, 36, 22
1, 428380, Note_on_c, 1, 36, 0
1, 428400, Note_on_c, 1, 79, 66
1, 428400, Note_on_c, 1, 82, 66
1, 428400, Note_on_c, 1, 36, 43
1, 428620, Note_on_c, 1, 36, 0
1, 428640, Note_on_c, 1, 82, 0
1, 428640, Note_on_c, 1, 79, 0
1, 428640, Note_on_c, 1, 79, 62
1, 428640, Note_on_c, 1, 82, 62
1, 428640, Note_on_c, 1, 36, 38
1, 428860, Note_on_c, 1, 36, 0
1, 428880, Note_on_c, 1, 82, 0
1, 428880, Note_on_c, 1, 79, 0
1, 428880, Note_on_c, 1, 82, 68
1, 428880, Note_on_c, 1, 79, 68
1, 428880, Note_on_c, 1, 36, 41
1, 429100, Note_on_c, 1, 36, 0
1, 429120, Note_on_c, 1, 79, 0
1, 429120, Note_on_c, 1, 82, 0
1, 429120, Note_on_c, 1, 88, 71
1, 429120, Note_on_c, 1, 36, 50
1, 429240, Note_on_c, 1, 88, 0
1, 429240, Note_on_c, 1, 82, 64
1, 429340, Note_on_c, 1, 36, 0
1, 429360, Note_on_c, 1, 82, 0
1, 429360, Note_on_c, 1, 91, 72
1, 429360, Note_on_c, 1, 36, 40
1, 429480, Note_on_c, 1, 91, 0
1, 429480, Note_on_c, 1, 88, 64
1, 429580, Note_on_c, 1, 36, 0
1, 429600, Note_on_c, 1, 88, 0
1, 429600, Note_on_c, 1, 94, 73
1, 429600, Note_on_c, 1, 36, 43
1, 429720, Note_on_c, 1, 94, 0
1, 429720, Note_on_c, 1, 91, 66
1, 429820, Note_on_c, 1, 36, 0
1, 429840, Note_on_c, 1, 91, 0
1, 429840, Note_on_c, 1, 88, 74
1, 429840, Note_on_c, 1, 36, 47
1, 429960, Note_on_c, 1, 88, 0
1, 429960, Note_on_c, 1, 91, 67
1, 430060, Note_on_c, 1, 36, 0
1, 430080, Note_on_c, 1, 91, 0
1, 430080, Note_on_c, 1, 82, 74
1, 430080, Note_on_c, 1, 36, 43
1, 430200, Note_on_c, 1, 82, 0
1, 430200, Note_on_c, 1, 88, 68
1, 430300, Note_on_c, 1, 36, 0
1, 430320, Note_on_c, 1, 88, 0
1, 430320, Note_on_c, 1, 79, 75
1, 430320, Note_on_c, 1, 36, 45
1, 430440, Note_on_c, 1, 79, 0
1, 430440, Note_on_c, 1, 82, 68
1, 430540, Note_on_c, 1, 36, 0
1, 430560, Note_on_c, 1, 82, 0
1, 430560, Note_on_c, 1, 76, 75
1, 430560, Note_on_c, 1, 36, 55
1, 430680, Note_on_c, 1, 76, 0
1, 430680, Note_on_c, 1, 79, 69
1, 430780, Note_on_c, 1, 36, 0
1, 430800, Note_on_c, 1, 79, 0
1, 430800, Note_on_c, 1, 70, 76
1, 430800, Note_on_c, 1, 36, 45
1, 430920, Note_on_c, 1, 70, 0
1, 430920, Note_on_c, 1, 76, 67
1, 431020, Note_on_c, 1, 36, 0
1, 431040, Note_on_c, 1, 76, 0
1, 431040, Note_on_c, 1, 67, 76
1, 431040, Note_on_c, 1, 36, 48
1, 431160, Note_on_c, 1, 67, 0
1, 431160, Note_on_c, 1, 70, 70
1, 431260, Note_on_c, 1, 36, 0
1, 431280, Note_on_c, 1, 70, 0
1, 431280, Note_on_c, 1, 64, 77
1, 431280, Note_on_c, 1, 36, 52
1, 431400, Note_on_c, 1, 64, 0
1, 431400, Note_on_c, 1, 67, 68
1, 431500, Note_on_c, 1, 36, 0
1, 431520, Note_on_c, 1, 67, 0
1, 431520, Note_on_c, 1, 58, 78
1, 431520, Note_on_c, 1, 36, 47
1, 431640, Note_on_c, 1, 58, 0
1, 431640, Note_on_c, 1, 64, 71
1, 431740, Note_on_c, 1, 36, 0
1, 431760, Note_on_c, 1, 64, 0
1, 431760, Note_on_c, 1, 55, 75
1, 431760, Note_on_c, 1, 36, 50
1, 431880, Note_on_c, 1, 55, 0
1, 431880, Note_on_c, 1, 58, 63
1, 431980, Note_on_c, 1, 36, 0
1, 432000, Note_on_c, 1, 58, 0
1, 432000, Note_on_c, 1, 36, 61
1, 432000, Note_on_c, 1, 52, 76
1, 432120, Note_on_c, 1, 52, 0
1, 432120, Note_on_c, 1, 55, 65
1, 432220, Note_on_c, 1, 36, 0
1, 432240, Note_on_c, 1, 55, 0
1, 432240, Note_on_c, 1, 36, 49
1, 432240, Note_on_c, 1, 46, 77
1, 432360, Note_on_c, 1, 46, 0
1, 432360, Note_on_c, 1, 52, 62
1, 432460, Note_on_c, 1, 36, 0
1, 432480, Note_on_c, 1, 52, 0
1, 432480, Note_on_c, 1, 43, 76
1, 432480, Note_on_c, 1, 36, 52
1, 432600, Note_on_c, 1, 43, 0
1, 432600, Note_on_c, 1, 46, 69
1, 432700, Note_on_c, 1, 36, 0
1, 432720, Note_on_c, 1, 46, 0
1, 432720, Note_on_c, 1, 36, 57
1, 432720, Note_on_c, 1, 49, 80
1, 432840, Note_on_c, 1, 49, 0
1, 432840, Note_on_c, 1, 46, 70
1, 432940, Note_on_c, 1, 36, 0
1, 432960, Note_on_c, 1, 46, 0
1, 432960, Note_on_c, 1, 52, 81
1, 432960, Note_on_c, 1, 36, 51
1, 433080, Note_on_c, 1, 52, 0
1, 433080, Note_on_c, 1, 49, 71
1, 433180, Note_on_c, 1, 36, 0
1, 433200, Note_on_c, 1, 49, 0
1, 433200, Note_on_c, 1, 36, 54
1, 433200, Note_on_c, 1, 55, 86
1, 433320, Note_on_c, 1, 55, 0
1, 433320, Note_on_c, 1, 52, 78
1, 433420, Note_on_c, 1, 36, 0
1, 433440, Note_on_c, 1, 52, 0
1, 433440, Note_on_c, 1, 58, 94
1, 433440, Note_on_c, 1, 43, 66
1, 433440, Note_on_c, 1, 31, 61
1, 433680, Note_on_c, 1, 31, 0
1, 433680, Note_on_c, 1, 43, 0
1, 433680, Note_on_c, 1, 58, 0
1, 433680, Note_on_c, 1, 36, 58
1, 433920, Note_on_c, 1, 36, 0
1, 433920, Note_on_c, 1, 36, 57
1, 434160, Note_on_c, 1, 36, 0
1, 434160, Note_on_c, 1, 49, 93
1, 434160, Note_on_c, 1, 61, 93
1, 434160, Note_on_c, 1, 56, 93
1, 434160, Note_on_c, 1, 41, 68
1, 434160, Note_on_c, 1, 29, 62
1, 434400, Note_on_c, 1, 29, 0
1, 434400, Note_on_c, 1, 56, 0
1, 434400, Note_on_c, 1, 49, 0
1, 434400, Note_on_c, 1, 61, 0
1, 434400, Note_on_c, 1, 41, 0
1, 434400, Note_on_c, 1, 36, 78
1, 434640, Note_on_c, 1, 36, 0
1, 434640, Note_on_c, 1, 36, 66
1, 434880, Note_on_c, 1, 36, 0
1, 434880, Note_on_c, 1, 52, 48
1, 434880, Note_on_c, 1, 36, 40
1, 434880, Note_on_c, 1, 60, 48
1, 434880, Note_on_c, 1, 40, 40
1, 434880, Note_on_c, 1, 55, 48
1, 436980, Note_on_c, 1, 55, 0
1, 436980, Note_on_c, 1, 60, 0
1, 436980, Note_on_c, 1, 52, 0
1, 436980, Note_on_c, 1, 36, 0
1, 436980, Note_on_c, 1, 40, 0
1, 437040, Note_on_c, 1, 60, 35
1, 437040, Note_on_c, 1, 36, 27
1, 437640, Note_on_c, 1, 36, 0
1, 437640, Note_on_c, 1, 60, 0
1, 437640, Note_on_c, 1, 57, 31
1, 437640, Note_on_c, 1, 33, 25
1, 437760, Note_on_c, 1, 33, 0
1, 437760, Note_on_c, 1, 57, 0
1, 437760, Note_on_c, 1, 53, 103
1, 437760, Note_on_c, 1, 29, 81
1, 437998, Note_on_c, 1, 53, 0
1, 438000, Note_on_c, 1, 29, 0
1, 438000, Note_on_c, 1, 57, 75
1, 438000, Note_on_c, 1, 53, 75
1, 438000, Note_on_c, 1, 60, 85
1, 438000, Note_on_c, 1, 65, 101
1, 438240, Note_on_c, 1, 33, 61
1, 438240, Note_on_c, 1, 29, 61
1, 438240, Note_on_c, 1, 41, 81
1, 438240, Note_on_c, 1, 36, 69
1, 438475, Note_on_c, 1, 65, 0
1, 438475, Note_on_c, 1, 60, 0
1, 438475, Note_on_c, 1, 57, 0
1, 438475, Note_on_c, 1, 53, 0
1, 438480, Note_on_c, 1, 60, 72
1, 438480, Note_on_c, 1, 65, 81
1, 438480, Note_on_c, 1, 69, 96
1, 438480, Note_on_c, 1, 57, 72
1, 438715, Note_on_c, 1, 33, 0
1, 438715, Note_on_c, 1, 41, 0
1, 438715, Note_on_c, 1, 36, 0
1, 438715, Note_on_c, 1, 29, 0
1, 438720, Note_on_c, 1, 33, 57
1, 438720, Note_on_c, 1, 36, 64
1, 438720, Note_on_c, 1, 41, 76
1, 438720, Note_on_c, 1, 29, 57
1, 438955, Note_on_c, 1, 60, 0
1, 438955, Note_on_c, 1, 69, 0
1, 438955, Note_on_c, 1, 57, 0
1, 438955, Note_on_c, 1, 65, 0
1, 438960, Note_on_c, 1, 60, 71
1, 438960, Note_on_c, 1, 65, 71
1, 438960, Note_on_c, 1, 72, 96
1, 438960, Note_on_c, 1, 69, 79
1, 439195, Note_on_c, 1, 33, 0
1, 439195, Note_on_c, 1, 41, 0
1, 439195, Note_on_c, 1, 29, 0
1, 439195, Note_on_c, 1, 36, 0
1, 439200, Note_on_c, 1, 33, 55
1, 439200, Note_on_c, 1, 29, 55
1, 439200, Note_on_c, 1, 41, 73
1, 439200, Note_on_c, 1, 36, 63
1, 439435, Note_on_c, 1, 60, 0
1, 439435, Note_on_c, 1, 72, 0
1, 439435, Note_on_c, 1, 69, 0
1, 439435, Note_on_c, 1, 65, 0
1, 439440, Note_on_c, 1, 69, 72
1, 439440, Note_on_c, 1, 77, 95
1, 439440, Note_on_c, 1, 72, 80
1, 439440, Note_on_c, 1, 65, 72
1, 439675, Note_on_c, 1, 33, 0
1, 439675, Note_on_c, 1, 41, 0
1, 439675, Note_on_c, 1, 36, 0
1, 439675, Note_on_c, 1, 29, 0
1, 439680, Note_on_c, 1, 33, 61
1, 439680, Note_on_c, 1, 36, 69
1, 439680, Note_on_c, 1, 41, 81
1, 439680, Note_on_c, 1, 29, 61
1, 439915, Note_on_c, 1, 69, 0
1, 439915, Note_on_c, 1, 72, 0
1, 439915, Note_on_c, 1, 65, 0
1, 439915, Note_on_c, 1, 77, 0
1, 439920, Note_on_c, 1, 77, 86
1, 439920, Note_on_c, 1, 69, 76
1, 439920, Note_on_c, 1, 72, 76
1, 439920, Note_on_c, 1, 81, 103
1, 440155, Note_on_c, 1, 33, 0
1, 440155, Note_on_c, 1, 41, 0
1, 440155, Note_on_c, 1, 29, 0
1, 440155, Note_on_c, 1, 36, 0
1, 440160, Note_on_c, 1, 33, 55
1, 440160, Note_on_c, 1, 29, 55
1, 440160, Note_on_c, 1, 41, 73
1, 440160, Note_on_c, 1, 36, 63
1, 440395, Note_on_c, 1, 77, 0
1, 440395, Note_on_c, 1, 72, 0
1, 440395, Note_on_c, 1, 81, 0
1, 440395, Note_on_c, 1, 69, 0
1, 440400, Note_on_c, 1, 77, 78
1, 440400, Note_on_c, 1, 84, 94
1, 440400, Note_on_c, 1, 72, 71
1, 440400, Note_on_c, 1, 81, 78
1, 440635, Note_on_c, 1, 33, 0
1, 440635, Note_on_c, 1, 41, 0
1, 440635, Note_on_c, 1, 36, 0
1, 440635, Note_on_c, 1, 29, 0
1, 440638, Note_on_c, 1, 77, 0
1, 440638, Note_on_c, 1, 81, 0
1, 440638, Note_on_c, 1, 84, 0
1, 440638, Note_on_c, 1, 72, 0
1, 440640, Note_on_c, 1, 81, 86
1, 440640, Note_on_c, 1, 84, 86
1, 440640, Note_on_c, 1, 89, 103
1, 440640, Note_on_c, 1, 77, 76
1, 440640, Note_on_c, 1, 29, 61
1, 440640, Note_on_c, 1, 33, 61
1, 440640, Note_on_c, 1, 36, 69
1, 440640, Note_on_c, 1, 41, 81
1, 442800, Note_on_c, 1, 41, 0
1, 442800, Note_on_c, 1, 81, 0
1, 442800, Note_on_c, 1, 29, 0
1, 442800, Note_on_c, 1, 84, 0
1, 442800, Note_on_c, 1, 89, 0
1, 442800, Note_on_c, 1, 77, 0
1, 442800, Note_on_c, 1, 33, 0
1, 442800, Note_on_c, 1, 36, 0
1, 442800, Note_on_c, 1, 57, 41
1, 442800, Note_on_c, 1, 33, 33
1, 443400, Note_on_c, 1, 33, 0
1, 443400, Note_on_c, 1, 57, 0
1, 443400, Note_on_c, 1, 60, 35
1, 443400, Note_on_c, 1, 36, 28
1, 443520, Note_on_c, 1, 36, 0
1, 443520, Note_on_c, 1, 60, 0
1, 443520, Note_on_c, 1, 65, 40
1, 443520, Note_on_c, 1, 41, 34
1, 444240, Note_on_c, 1, 41, 0
1, 444240, Note_on_c, 1, 65, 0
1, 444240, Note_on_c, 1, 69, 43
1, 444240, Note_on_c, 1, 45, 34
1, 444840, Note_on_c, 1, 45, 0
1, 444840, Note_on_c, 1, 69, 0
1, 444840, Note_on_c, 1, 72, 37
1, 444840, Note_on_c, 1, 48, 29
1, 444960, Note_on_c, 1, 48, 0
1, 444960, Note_on_c, 1, 72, 0
1, 444960, Note_on_c, 1, 77, 40
1, 444960, Note_on_c, 1, 53, 34
1, 445675, Note_on_c, 1, 53, 0
1, 445675, Note_on_c, 1, 77, 0
1, 445680, Note_on_c, 1, 65, 40
1, 445680, Note_on_c, 1, 41, 31
1, 446400, Note_on_c, 1, 41, 0
1, 446400, Note_on_c, 1, 65, 0
1, 446400, Note_on_c, 1, 60, 103
1, 446400, Note_on_c, 1, 52, 81
1, 446400, Note_on_c, 1, 55, 81
1, 446638, Note_on_c, 1, 55, 0
1, 446638, Note_on_c, 1, 52, 0
1, 446638, Note_on_c, 1, 60, 0
1, 446640, Note_on_c, 1, 60, 85
1, 446640, Note_on_c, 1, 64, 101
1, 446640, Note_on_c, 1, 55, 75
1, 446880, Note_on_c, 1, 40, 61
1, 446880, Note_on_c, 1, 48, 81
1, 446880, Note_on_c, 1, 43, 69
1, 447115, Note_on_c, 1, 55, 0
1, 447115, Note_on_c, 1, 60, 0
1, 447115, Note_on_c, 1, 64, 0
1, 447120, Note_on_c, 1, 60, 72
1, 447120, Note_on_c, 1, 67, 96
1, 447120, Note_on_c, 1, 64, 81
1, 447355, Note_on_c, 1, 40, 0
1, 447355, Note_on_c, 1, 43, 0
1, 447355, Note_on_c, 1, 48, 0
1, 447360, Note_on_c, 1, 43, 64
1, 447360, Note_on_c, 1, 40, 57
1, 447360, Note_on_c, 1, 48, 76
1, 447595, Note_on_c, 1, 60, 0
1, 447595, Note_on_c, 1, 64, 0
1, 447595, Note_on_c, 1, 67, 0
1, 447600, Note_on_c, 1, 67, 81
1, 447600, Note_on_c, 1, 72, 98
1, 447600, Note_on_c, 1, 64, 72
1, 447835, Note_on_c, 1, 43, 0
1, 447835, Note_on_c, 1, 48, 0
1, 447835, Note_on_c, 1, 40, 0
1, 447840, Note_on_c, 1, 40, 55
1, 447840, Note_on_c, 1, 48, 73
1, 447840, Note_on_c, 1, 43, 63
1, 448075, Note_on_c, 1, 67, 0
1, 448075, Note_on_c, 1, 64, 0
1, 448075, Note_on_c, 1, 72, 0
1, 448080, Note_on_c, 1, 76, 95
1, 448080, Note_on_c, 1, 67, 72
1, 448080, Note_on_c, 1, 72, 80
1, 448315, Note_on_c, 1, 40, 0
1, 448315, Note_on_c, 1, 43, 0
1, 448315, Note_on_c, 1, 48, 0
1, 448320, Note_on_c, 1, 43, 69
1, 448320, Note_on_c, 1, 48, 81
1, 448320, Note_on_c, 1, 40, 61
1, 448555, Note_on_c, 1, 76, 0
1, 448555, Note_on_c, 1, 72, 0
1, 448555, Note_on_c, 1, 67, 0
1, 448560, Note_on_c, 1, 79, 103
1, 448560, Note_on_c, 1, 72, 76
1, 448560, Note_on_c, 1, 76, 86
1, 448795, Note_on_c, 1, 43, 0
1, 448795, Note_on_c, 1, 40, 0
1, 448795, Note_on_c, 1, 48, 0
1, 448800, Note_on_c, 1, 40, 55
1, 448800, Note_on_c, 1, 48, 73
1, 448800, Note_on_c, 1, 43, 63
1, 449035, Note_on_c, 1, 79, 0
1, 449035, Note_on_c, 1, 76, 0
1, 449035, Note_on_c, 1, 72, 0
1, 449040, Note_on_c, 1, 84, 94
1, 449040, Note_on_c, 1, 76, 78
1, 449040, Note_on_c, 1, 79, 78
1, 449275, Note_on_c, 1, 40, 0
1, 449275, Note_on_c, 1, 43, 0
1, 449275, Note_on_c, 1, 48, 0
1, 449278, Note_on_c, 1, 84, 0
1, 449278, Note_on_c, 1, 76, 0
1, 449278, Note_on_c, 1, 79, 0
1, 449280, Note_on_c, 1, 72, 41
1, 449280, Note_on_c, 1, 64, 30
1, 449280, Note_on_c, 1, 67, 30
1, 450480, Note_on_c, 1, 72, 0
1, 450480, Note_on_c, 1, 74, 45
1, 450720, Note_on_c, 1, 74, 0
1, 450720, Note_on_c, 1, 67, 0
1, 450720, Note_on_c, 1, 64, 0
1, 450720, Note_on_c, 1, 74, 38
1, 450720, Note_on_c, 1, 65, 30
1, 450720, Note_on_c, 1, 71, 30
1, 450720, Note_on_c, 1, 68, 30
1, 450800, Note_on_c, 1, 74, 0
1, 450800, Note_on_c, 1, 76, 35
1, 450880, Note_on_c, 1, 74, 38
1, 450920, Note_on_c, 1, 76, 0
1, 450960, Note_on_c, 1, 74, 0
1, 450960, Note_on_c, 1, 76, 36
1, 451040, Note_on_c, 1, 76, 0
1, 451040, Note_on_c, 1, 74, 39
1, 451120, Note_on_c, 1, 74, 0
1, 451120, Note_on_c, 1, 76, 36
1, 451200, Note_on_c, 1, 76, 0
1, 451200, Note_on_c, 1, 74, 38
1, 451280, Note_on_c, 1, 74, 0
1, 451280, Note_on_c, 1, 76, 36
1, 451360, Note_on_c, 1, 76, 0
1, 451360, Note_on_c, 1, 74, 39
1, 451440, Note_on_c, 1, 74, 0
1, 451440, Note_on_c, 1, 76, 37
1, 451520, Note_on_c, 1, 76, 0
1, 451520, Note_on_c, 1, 74, 35
1, 451600, Note_on_c, 1, 74, 0
1, 451600, Note_on_c, 1, 76, 39
1, 451680, Note_on_c, 1, 76, 0
1, 451680, Note_on_c, 1, 74, 35
1, 451800, Note_on_c, 1, 74, 0
1, 451800, Note_on_c, 1, 72, 36
1, 451920, Note_on_c, 1, 72, 0
1, 451920, Note_on_c, 1, 76, 41
1, 452040, Note_on_c, 1, 76, 0
1, 452040, Note_on_c, 1, 74, 38
1, 452160, Note_on_c, 1, 74, 0
1, 452160, Note_on_c, 1, 65, 0
1, 452160, Note_on_c, 1, 71, 0
1, 452160, Note_on_c, 1, 68, 0
1, 452160, Note_on_c, 1, 60, 103
1, 452160, Note_on_c, 1, 55, 81
1, 452160, Note_on_c, 1, 52, 81
1, 452398, Note_on_c, 1, 52, 0
1, 452398, Note_on_c, 1, 55, 0
1, 452398, Note_on_c, 1, 60, 0
1, 452400, Note_on_c, 1, 64, 101
1, 452400, Note_on_c, 1, 60, 85
1, 452400, Note_on_c, 1, 55, 75
1, 452640, Note_on_c, 1, 43, 69
1, 452640, Note_on_c, 1, 40, 61
1, 452640, Note_on_c, 1, 48, 81
1, 452875, Note_on_c, 1, 55, 0
1, 452875, Note_on_c, 1, 64, 0
1, 452875, Note_on_c, 1, 60, 0
1, 452880, Note_on_c, 1, 64, 81
1, 452880, Note_on_c, 1, 67, 96
1, 452880, Note_on_c, 1, 60, 72
1, 453115, Note_on_c, 1, 43, 0
1, 453115, Note_on_c, 1, 48, 0
1, 453115, Note_on_c, 1, 40, 0
1, 453120, Note_on_c, 1, 40, 57
1, 453120, Note_on_c, 1, 48, 76
1, 453120, Note_on_c, 1, 43, 64
1, 453355, Note_on_c, 1, 64, 0
1, 453355, Note_on_c, 1, 60, 0
1, 453355, Note_on_c, 1, 67, 0
1, 453360, Note_on_c, 1, 72, 98
1, 453360, Note_on_c, 1, 64, 72
1, 453360, Note_on_c, 1, 67, 81
1, 453595, Note_on_c, 1, 40, 0
1, 453595, Note_on_c, 1, 43, 0
1, 453595, Note_on_c, 1, 48, 0
1, 453600, Note_on_c, 1, 43, 63
1, 453600, Note_on_c, 1, 48, 73
1, 453600, Note_on_c, 1, 40, 55
1, 453835, Note_on_c, 1, 72, 0
1, 453835, Note_on_c, 1, 67, 0
1, 453835, Note_on_c, 1, 64, 0
1, 453840, Note_on_c, 1, 76, 95
1, 453840, Note_on_c, 1, 67, 72
1, 453840, Note_on_c, 1, 72, 80
1, 454075, Note_on_c, 1, 43, 0
1, 454075, Note_on_c, 1, 40, 0
1, 454075, Note_on_c, 1, 48, 0
1, 454080, Note_on_c, 1, 40, 61
1, 454080, Note_on_c, 1, 48, 81
1, 454080, Note_on_c, 1, 43, 69
1, 454315, Note_on_c, 1, 76, 0
1, 454315, Note_on_c, 1, 72, 0
1, 454315, Note_on_c, 1, 67, 0
1, 454320, Note_on_c, 1, 79, 103
1, 454320, Note_on_c, 1, 72, 76
1, 454320, Note_on_c, 1, 76, 86
1, 454555, Note_on_c, 1, 40, 0
1, 454555, Note_on_c, 1, 43, 0
1, 454555, Note_on_c, 1, 48, 0
1, 454560, Note_on_c, 1, 43, 63
1, 454560, Note_on_c, 1, 48, 73
1, 454560, Note_on_c, 1, 40, 55
1, 454795, Note_on_c, 1, 79, 0
1, 454795, Note_on_c, 1, 76, 0
1, 454795, Note_on_c, 1, 72, 0
1, 454800, Note_on_c, 1, 76, 78
1, 454800, Note_on_c, 1, 84, 94
1, 454800, Note_on_c, 1, 79, 78
1, 455035, Note_on_c, 1, 43, 0
1, 455035, Note_on_c, 1, 40, 0
1, 455035, Note_on_c, 1, 48, 0
1, 455038, Note_on_c, 1, 76, 0
1, 455038, Note_on_c, 1, 84, 0
1, 455038, Note_on_c, 1, 79, 0
1, 455040, Note_on_c, 1, 72, 41
1, 455040, Note_on_c, 1, 67, 30
1, 455040, Note_on_c, 1, 64, 30
1, 456240, Note_on_c, 1, 72, 0
1, 456240, Note_on_c, 1, 74, 45
1, 456480, Note_on_c, 1, 74, 0
1, 456480, Note_on_c, 1, 64, 0
1, 456480, Note_on_c, 1, 67, 0
1, 456480, Note_on_c, 1, 74, 44
1, 456480, Note_on_c, 1, 68, 29
1, 456480, Note_on_c, 1, 65, 30
1, 456560, Note_on_c, 1, 74, 0
1, 456560, Note_on_c, 1, 76, 39
1, 456640, Note_on_c, 1, 76, 0
1, 456640, Note_on_c, 1, 74, 42
1, 456720, Note_on_c, 1, 74, 0
1, 456720, Note_on_c, 1, 76, 37
1, 456800, Note_on_c, 1, 76, 0
1, 456800, Note_on_c, 1, 74, 41
1, 456880, Note_on_c, 1, 74, 0
1, 456880, Note_on_c, 1, 76, 36
1, 456960, Note_on_c, 1, 76, 0
1, 456960, Note_on_c, 1, 74, 40
1, 457040, Note_on_c, 1, 74, 0
1, 457040, Note_on_c, 1, 76, 37
1, 457120, Note_on_c, 1, 76, 0
1, 457120, Note_on_c, 1, 74, 41
1, 457200, Note_on_c, 1, 74, 0
1, 457200, Note_on_c, 1, 76, 38
1, 457320, Note_on_c, 1, 76, 0
1, 457320, Note_on_c, 1, 74, 37
1, 457440, Note_on_c, 1, 74, 0
1, 457440, Note_on_c, 1, 76, 42
1, 457560, Note_on_c, 1, 76, 0
1, 457560, Note_on_c, 1, 74, 41
1, 457680, Note_on_c, 1, 74, 0
1, 457680, Note_on_c, 1, 72, 48
1, 457800, Note_on_c, 1, 72, 0
1, 457800, Note_on_c, 1, 74, 44
1, 457920, Note_on_c, 1, 74, 0
1, 457920, Note_on_c, 1, 65, 0
1, 457920, Note_on_c, 1, 68, 0
1, 457920, Note_on_c, 1, 55, 81
1, 457920, Note_on_c, 1, 64, 103
1, 457920, Note_on_c, 1, 58, 81
1, 458158, Note_on_c, 1, 58, 0
1, 458158, Note_on_c, 1, 64, 0
1, 458158, Note_on_c, 1, 55, 0
1, 458160, Note_on_c, 1, 64, 85
1, 458160, Note_on_c, 1, 58, 85
1, 458160, Note_on_c, 1, 67, 101
1, 458400, Note_on_c, 1, 43, 61
1, 458400, Note_on_c, 1, 52, 81
1, 458400, Note_on_c, 1, 46, 69
1, 458635, Note_on_c, 1, 67, 0
1, 458635, Note_on_c, 1, 64, 0
1, 458635, Note_on_c, 1, 58, 0
1, 458640, Note_on_c, 1, 67, 81
1, 458640, Note_on_c, 1, 70, 96
1, 458640, Note_on_c, 1, 64, 72
1, 458875, Note_on_c, 1, 43, 0
1, 458875, Note_on_c, 1, 46, 0
1, 458875, Note_on_c, 1, 52, 0
1, 458880, Note_on_c, 1, 46, 64
1, 458880, Note_on_c, 1, 43, 57
1, 458880, Note_on_c, 1, 52, 76
1, 459115, Note_on_c, 1, 67, 0
1, 459115, Note_on_c, 1, 64, 0
1, 459115, Note_on_c, 1, 70, 0
1, 459120, Note_on_c, 1, 70, 85
1, 459120, Note_on_c, 1, 76, 101
1, 459120, Note_on_c, 1, 67, 75
1, 459355, Note_on_c, 1, 46, 0
1, 459355, Note_on_c, 1, 52, 0
1, 459355, Note_on_c, 1, 43, 0
1, 459360, Note_on_c, 1, 43, 55
1, 459360, Note_on_c, 1, 52, 73
1, 459360, Note_on_c, 1, 46, 63
1, 459595, Note_on_c, 1, 70, 0
1, 459595, Note_on_c, 1, 67, 0
1, 459595, Note_on_c, 1, 76, 0
1, 459600, Note_on_c, 1, 70, 72
1, 459600, Note_on_c, 1, 79, 95
1, 459600, Note_on_c, 1, 76, 80
1, 459835, Note_on_c, 1, 43, 0
1, 459835, Note_on_c, 1, 46, 0
1, 459835, Note_on_c, 1, 52, 0
1, 459840, Note_on_c, 1, 46, 69
1, 459840, Note_on_c, 1, 52, 81
1, 459840, Note_on_c, 1, 43, 61
1, 460075, Note_on_c, 1, 70, 0
1, 460075, Note_on_c, 1, 76, 0
1, 460075, Note_on_c, 1, 79, 0
1, 460080, Note_on_c, 1, 76, 76
1, 460080, Note_on_c, 1, 82, 103
1, 460080, Note_on_c, 1, 79, 86
1, 460315, Note_on_c, 1, 46, 0
1, 460315, Note_on_c, 1, 43, 0
1, 460315, Note_on_c, 1, 52, 0
1, 460320, Note_on_c, 1, 43, 55
1, 460320, Note_on_c, 1, 52, 73
1, 460320, Note_on_c, 1, 46, 63
1, 460555, Note_on_c, 1, 76, 0
1, 460555, Note_on_c, 1, 79, 0
1, 460555, Note_on_c, 1, 82, 0
1, 460560, Note_on_c, 1, 79, 78
1, 460560, Note_on_c, 1, 88, 94
1, 460560, Note_on_c, 1, 82, 78
1, 460795, Note_on_c, 1, 43, 0
1, 460795, Note_on_c, 1, 46, 0
1, 460795, Note_on_c, 1, 52, 0
1, 460798, Note_on_c, 1, 79, 0
1, 460798, Note_on_c, 1, 88, 0
1, 460798, Note_on_c, 1, 82, 0
1, 460800, Note_on_c, 1, 76, 48
1, 460800, Note_on_c, 1, 67, 36
1, 460800, Note_on_c, 1, 70, 36
1, 462000, Note_on_c, 1, 76, 0
1, 462000, Note_on_c, 1, 77, 52
1, 462240, Note_on_c, 1, 77, 0
1, 462240, Note_on_c, 1, 70, 0
1, 462240, Note_on_c, 1, 67, 0
1, 462240, Note_on_c, 1, 77, 46
1, 462240, Note_on_c, 1, 68, 36
1, 462240, Note_on_c, 1, 72, 36
1, 462320, Note_on_c, 1, 77, 0
1, 462320, Note_on_c, 1, 79, 41
1, 462400, Note_on_c, 1, 79, 0
1, 462400, Note_on_c, 1, 77, 46
1, 462480, Note_on_c, 1, 77, 0
1, 462480, Note_on_c, 1, 79, 41
1, 462560, Note_on_c, 1, 79, 0
1, 462560, Note_on_c, 1, 77, 46
1, 462640, Note_on_c, 1, 77, 0
1, 462640, Note_on_c, 1, 79, 41
1, 462720, Note_on_c, 1, 79, 0
1, 462720, Note_on_c, 1, 77, 46
1, 462800, Note_on_c, 1, 77, 0
1, 462800, Note_on_c, 1, 79, 42
1, 462880, Note_on_c, 1, 79, 0
1, 462880, Note_on_c, 1, 77, 46
1, 462960, Note_on_c, 1, 77, 0
1, 462960, Note_on_c, 1, 79, 43
1, 463080, Note_on_c, 1, 79, 0
1, 463080, Note_on_c, 1, 77, 40
1, 463200, Note_on_c, 1, 77, 0
1, 463200, Note_on_c, 1, 79, 46
1, 463320, Note_on_c, 1, 79, 0
1, 463320, Note_on_c, 1, 77, 42
1, 463440, Note_on_c, 1, 77, 0
1, 463440, Note_on_c, 1, 76, 48
1, 463560, Note_on_c, 1, 76, 0
1, 463560, Note_on_c, 1, 77, 44
1, 463680, Note_on_c, 1, 77, 0
1, 463680, Note_on_c, 1, 72, 0
1, 463680, Note_on_c, 1, 68, 0
1, 463680, Note_on_c, 1, 67, 103
1, 463680, Note_on_c, 1, 64, 81
1, 463918, Note_on_c, 1, 64, 0
1, 463918, Note_on_c, 1, 67, 0
1, 463920, Note_on_c, 1, 76, 101
1, 463920, Note_on_c, 1, 73, 85
1, 464160, Note_on_c, 1, 46, 61
1, 464160, Note_on_c, 1, 52, 69
1, 464160, Note_on_c, 1, 55, 81
1, 464160, Note_on_c, 1, 49, 61
1, 464395, Note_on_c, 1, 73, 0
1, 464395, Note_on_c, 1, 76, 0
1, 464400, Note_on_c, 1, 76, 81
1, 464400, Note_on_c, 1, 79, 96
1, 464635, Note_on_c, 1, 55, 0
1, 464635, Note_on_c, 1, 46, 0
1, 464635, Note_on_c, 1, 52, 0
1, 464635, Note_on_c, 1, 49, 0
1, 464640, Note_on_c, 1, 58, 57
1, 464640, Note_on_c, 1, 64, 64
1, 464640, Note_on_c, 1, 61, 57
1, 464640, Note_on_c, 1, 67, 76
1, 464875, Note_on_c, 1, 79, 0
1, 464875, Note_on_c, 1, 76, 0
1, 464880, Note_on_c, 1, 82, 101
1, 464880, Note_on_c, 1, 79, 85
1, 465115, Note_on_c, 1, 61, 0
1, 465115, Note_on_c, 1, 58, 0
1, 465115, Note_on_c, 1, 64, 0
1, 465115, Note_on_c, 1, 67, 0
1, 465120, Note_on_c, 1, 58, 55
1, 465120, Note_on_c, 1, 64, 63
1, 465120, Note_on_c, 1, 67, 73
1, 465120, Note_on_c, 1, 61, 55
1, 465355, Note_on_c, 1, 79, 0
1, 465355, Note_on_c, 1, 82, 0
1, 465360, Note_on_c, 1, 82, 80
1, 465360, Note_on_c, 1, 85, 95
1, 465595, Note_on_c, 1, 67, 0
1, 465595, Note_on_c, 1, 58, 0
1, 465595, Note_on_c, 1, 64, 0
1, 465595, Note_on_c, 1, 61, 0
1, 465600, Note_on_c, 1, 61, 61
1, 465600, Note_on_c, 1, 64, 69
1, 465600, Note_on_c, 1, 67, 81
1, 465600, Note_on_c, 1, 58, 61
1, 465835, Note_on_c, 1, 85, 0
1, 465835, Note_on_c, 1, 82, 0
1, 465840, Note_on_c, 1, 85, 86
1, 465840, Note_on_c, 1, 88, 103
1, 466075, Note_on_c, 1, 67, 0
1, 466075, Note_on_c, 1, 61, 0
1, 466075, Note_on_c, 1, 64, 0
1, 466075, Note_on_c, 1, 58, 0
1, 466080, Note_on_c, 1, 61, 55
1, 466080, Note_on_c, 1, 58, 55
1, 466080, Note_on_c, 1, 67, 73
1, 466080, Note_on_c, 1, 64, 63
1, 466315, Note_on_c, 1, 88, 0
1, 466315, Note_on_c, 1, 85, 0
1, 466320, Note_on_c, 1, 88, 78
1, 466320, Note_on_c, 1, 91, 94
1, 466555, Note_on_c, 1, 67, 0
1, 466555, Note_on_c, 1, 61, 0
1, 466555, Note_on_c, 1, 58, 0
1, 466555, Note_on_c, 1, 64, 0
1, 466558, Note_on_c, 1, 91, 0
1, 466558, Note_on_c, 1, 88, 0
1, 466560, Note_on_c, 1, 79, 79
1, 466560, Note_on_c, 1, 76, 59
1, 466560, Note_on_c, 1, 70, 59
1, 466560, Note_on_c, 1, 73, 59
1, 467760, Note_on_c, 1, 79, 0
1, 467760, Note_on_c, 1, 80, 87
1, 468000, Note_on_c, 1, 80, 0
1, 468000, Note_on_c, 1, 73, 0
1, 468000, Note_on_c, 1, 70, 0
1, 468000, Note_on_c, 1, 76, 0
1, 468000, Note_on_c, 1, 77, 64
1, 468000, Note_on_c, 1, 80, 76
1, 468000, Note_on_c, 1, 71, 59
1, 468000, Note_on_c, 1, 74, 59
1, 468120, Note_on_c, 1, 80, 0
1, 468120, Note_on_c, 1, 82, 68
1, 468240, Note_on_c, 1, 82, 0
1, 468240, Note_on_c, 1, 80, 76
1, 468360, Note_on_c, 1, 80, 0
1, 468360, Note_on_c, 1, 82, 68
1, 468480, Note_on_c, 1, 82, 0
1, 468480, Note_on_c, 1, 80, 76
1, 468600, Note_on_c, 1, 80, 0
1, 468600, Note_on_c, 1, 82, 68
1, 468720, Note_on_c, 1, 82, 0
1, 468720, Note_on_c, 1, 80, 76
1, 468840, Note_on_c, 1, 80, 0
1, 468840, Note_on_c, 1, 82, 67
1, 468960, Note_on_c, 1, 82, 0
1, 468960, Note_on_c, 1, 80, 67
1, 469080, Note_on_c, 1, 80, 0
1, 469080, Note_on_c, 1, 79, 70
1, 469200, Note_on_c, 1, 79, 0
1, 469200, Note_on_c, 1, 82, 79
1, 469320, Note_on_c, 1, 82, 0
1, 469320, Note_on_c, 1, 80, 73
1, 469440, Note_on_c, 1, 80, 0
1, 469440, Note_on_c, 1, 74, 0
1, 469440, Note_on_c, 1, 71, 0
1, 469440, Note_on_c, 1, 77, 0
1, 469440, Note_on_c, 1, 76, 58
1, 469440, Note_on_c, 1, 79, 58
1, 469440, Note_on_c, 1, 60, 39
1, 469680, Note_on_c, 1, 60, 0
1, 469680, Note_on_c, 1, 72, 36
1, 469900, Note_on_c, 1, 72, 0
1, 469920, Note_on_c, 1, 72, 36
1, 470140, Note_on_c, 1, 72, 0
1, 470160, Note_on_c, 1, 79, 0
1, 470160, Note_on_c, 1, 76, 0
1, 470160, Note_on_c, 1, 72, 39
1, 470380, Note_on_c, 1, 72, 0
1, 470400, Note_on_c, 1, 72, 37
1, 470620, Note_on_c, 1, 72, 0
1, 470640, Note_on_c, 1, 72, 36
1, 470860, Note_on_c, 1, 72, 0
1, 470880, Note_on_c, 1, 72, 39
1, 471100, Note_on_c, 1, 72, 0
1, 471120, Note_on_c, 1, 72, 35
1, 471340, Note_on_c, 1, 72, 0
1, 471360, Note_on_c, 1, 72, 35
1, 471580, Note_on_c, 1, 72, 0
1, 471600, Note_on_c, 1, 72, 39
1, 471820, Note_on_c, 1, 72, 0
1, 471840, Note_on_c, 1, 72, 36
1, 472060, Note_on_c, 1, 72, 0
1, 472080, Note_on_c, 1, 72, 36
1, 472300, Note_on_c, 1, 72, 0
1, 472320, Note_on_c, 1, 77, 56
1, 472320, Note_on_c, 1, 80, 56
1, 472560, Note_on_c, 1, 72, 38
1, 472780, Note_on_c, 1, 72, 0
1, 472800, Note_on_c, 1, 72, 38
1, 473020, Note_on_c, 1, 72, 0
1, 473040, Note_on_c, 1, 80, 0
1, 473040, Note_on_c, 1, 77, 0
1, 473040, Note_on_c, 1, 68, 39
1, 473040, Note_on_c, 1, 65, 39
1, 473280, Note_on_c, 1, 65, 0
1, 473280, Note_on_c, 1, 68, 0
1, 473280, Note_on_c, 1, 72, 37
1, 473500, Note_on_c, 1, 72, 0
1, 473520, Note_on_c, 1, 72, 37
1, 473740, Note_on_c, 1, 72, 0
1, 473760, Note_on_c, 1, 72, 41
1, 473980, Note_on_c, 1, 72, 0
1, 474000, Note_on_c, 1, 72, 37
1, 474220, Note_on_c, 1, 72, 0
1, 474240, Note_on_c, 1, 72, 38
1, 474460, Note_on_c, 1, 72, 0
1, 474480, Note_on_c, 1, 72, 46
1, 474700, Note_on_c, 1, 72, 0
1, 474720, Note_on_c, 1, 72, 40
1, 474940, Note_on_c, 1, 72, 0
1, 474960, Note_on_c, 1, 72, 40
1, 475180, Note_on_c, 1, 72, 0
1, 475200, Note_on_c, 1, 80, 75
1, 475200, Note_on_c, 1, 77, 75
1, 475200, Note_on_c, 1, 85, 75
1, 475440, Note_on_c, 1, 72, 38
1, 475660, Note_on_c, 1, 72, 0
1, 475680, Note_on_c, 1, 72, 38
1, 475900, Note_on_c, 1, 72, 0
1, 475920, Note_on_c, 1, 68, 40
1, 475920, Note_on_c, 1, 65, 40
1, 476160, Note_on_c, 1, 65, 0
1, 476160, Note_on_c, 1, 68, 0
1, 476160, Note_on_c, 1, 72, 37
1, 476380, Note_on_c, 1, 72, 0
1, 476400, Note_on_c, 1, 72, 37
1, 476620, Note_on_c, 1, 72, 0
1, 476640, Note_on_c, 1, 65, 37
1, 476640, Note_on_c, 1, 68, 37
1, 476880, Note_on_c, 1, 68, 0
1, 476880, Note_on_c, 1, 65, 0
1, 476880, Note_on_c, 1, 72, 37
1, 477100, Note_on_c, 1, 72, 0
1, 477120, Note_on_c, 1, 72, 37
1, 477340, Note_on_c, 1, 72, 0
1, 477360, Note_on_c, 1, 65, 37
1, 477360, Note_on_c, 1, 68, 37
1, 477600, Note_on_c, 1, 68, 0
1, 477600, Note_on_c, 1, 65, 0
1, 477600, Note_on_c, 1, 72, 37
1, 477820, Note_on_c, 1, 72, 0
1, 477840, Note_on_c, 1, 72, 37
1, 478060, Note_on_c, 1, 72, 0
1, 478080, Note_on_c, 1, 80, 0
1, 478080, Note_on_c, 1, 77, 0
1, 478080, Note_on_c, 1, 85, 0
1, 478080, Note_on_c, 1, 79, 52
1, 478080, Note_on_c, 1, 76, 52
1, 478080, Note_on_c, 1, 84, 52
1, 478080, Note_on_c, 1, 64, 39
1, 478080, Note_on_c, 1, 67, 39
1, 478320, Note_on_c, 1, 67, 0
1, 478320, Note_on_c, 1, 64, 0
1, 478320, Note_on_c, 1, 60, 37
1, 478540, Note_on_c, 1, 60, 0
1, 478560, Note_on_c, 1, 84, 0
1, 478560, Note_on_c, 1, 76, 0
1, 478560, Note_on_c, 1, 79, 0
1, 478560, Note_on_c, 1, 60, 37
1, 478780, Note_on_c, 1, 60, 0
1, 478800, Note_on_c, 1, 60, 38
1, 479020, Note_on_c, 1, 60, 0
1, 479040, Note_on_c, 1, 60, 37
1, 479260, Note_on_c, 1, 60, 0
1, 479280, Note_on_c, 1, 60, 37
1, 479500, Note_on_c, 1, 60, 0
1, 479520, Note_on_c, 1, 60, 37
1, 479740, Note_on_c, 1, 60, 0
1, 479760, Note_on_c, 1, 60, 37
1, 479980, Note_on_c, 1, 60, 0
1, 480000, Note_on_c, 1, 60, 37
1, 480220, Note_on_c, 1, 60, 0
1, 480240, Note_on_c, 1, 76, 56
1, 480240, Note_on_c, 1, 79, 56
1, 480240, Note_on_c, 1, 60, 38
1, 480460, Note_on_c, 1, 60, 0
1, 480480, Note_on_c, 1, 60, 37
1, 480700, Note_on_c, 1, 60, 0
1, 480720, Note_on_c, 1, 60, 37
1, 480840, Note_on_c, 1, 79, 0
1, 480840, Note_on_c, 1, 76, 0
1, 480840, Note_on_c, 1, 79, 52
1, 480840, Note_on_c, 1, 76, 52
1, 480940, Note_on_c, 1, 60, 0
1, 480960, Note_on_c, 1, 76, 0
1, 480960, Note_on_c, 1, 79, 0
1, 480960, Note_on_c, 1, 80, 58
1, 480960, Note_on_c, 1, 77, 58
1, 480960, Note_on_c, 1, 60, 39
1, 481180, Note_on_c, 1, 60, 0
1, 481200, Note_on_c, 1, 60, 37
1, 481420, Note_on_c, 1, 60, 0
1, 481440, Note_on_c, 1, 77, 0
1, 481440, Note_on_c, 1, 80, 0
1, 481440, Note_on_c, 1, 79, 52
1, 481440, Note_on_c, 1, 76, 52
1, 481440, Note_on_c, 1, 60, 37
1, 481660, Note_on_c, 1, 60, 0
1, 481680, Note_on_c, 1, 76, 0
1, 481680, Note_on_c, 1, 79, 0
1, 481680, Note_on_c, 1, 60, 38
1, 481900, Note_on_c, 1, 60, 0
1, 481920, Note_on_c, 1, 60, 37
1, 482140, Note_on_c, 1, 60, 0
1, 482160, Note_on_c, 1, 67, 50
1, 482160, Note_on_c, 1, 64, 50
1, 482160, Note_on_c, 1, 60, 37
1, 482380, Note_on_c, 1, 60, 0
1, 482400, Note_on_c, 1, 64, 0
1, 482400, Note_on_c, 1, 67, 0
1, 482400, Note_on_c, 1, 60, 38
1, 482620, Note_on_c, 1, 60, 0
1, 482640, Note_on_c, 1, 60, 39
1, 482860, Note_on_c, 1, 60, 0
1, 482880, Note_on_c, 1, 55, 49
1, 482880, Note_on_c, 1, 52, 49
1, 482880, Note_on_c, 1, 60, 37
1, 483100, Note_on_c, 1, 60, 0
1, 483120, Note_on_c, 1, 52, 0
1, 483120, Note_on_c, 1, 55, 0
1, 483120, Note_on_c, 1, 55, 44
1, 483120, Note_on_c, 1, 58, 44
1, 483360, Note_on_c, 1, 58, 0
1, 483360, Note_on_c, 1, 55, 0
1, 483360, Note_on_c, 1, 60, 37
1, 483580, Note_on_c, 1, 60, 0
1, 483600, Note_on_c, 1, 60, 37
1, 483720, Note_on_c, 1, 79, 58
1, 483720, Note_on_c, 1, 76, 58
1, 483820, Note_on_c, 1, 60, 0
1, 483840, Note_on_c, 1, 76, 0
1, 483840, Note_on_c, 1, 79, 0
1, 483840, Note_on_c, 1, 82, 61
1, 483840, Note_on_c, 1, 79, 61
1, 483840, Note_on_c, 1, 60, 39
1, 484060, Note_on_c, 1, 60, 0
1, 484080, Note_on_c, 1, 60, 37
1, 484300, Note_on_c, 1, 60, 0
1, 484320, Note_on_c, 1, 79, 0
1, 484320, Note_on_c, 1, 82, 0
1, 484320, Note_on_c, 1, 77, 52
1, 484320, Note_on_c, 1, 80, 52
1, 484320, Note_on_c, 1, 60, 37
1, 484540, Note_on_c, 1, 60, 0
1, 484560, Note_on_c, 1, 80, 0
1, 484560, Note_on_c, 1, 77, 0
1, 484560, Note_on_c, 1, 60, 37
1, 484780, Note_on_c, 1, 60, 0
1, 484800, Note_on_c, 1, 60, 37
1, 485020, Note_on_c, 1, 60, 0
1, 485040, Note_on_c, 1, 65, 49
1, 485040, Note_on_c, 1, 68, 49
1, 485040, Note_on_c, 1, 60, 37
1, 485260, Note_on_c, 1, 60, 0
1, 485280, Note_on_c, 1, 68, 0
1, 485280, Note_on_c, 1, 65, 0
1, 485280, Note_on_c, 1, 60, 38
1, 485500, Note_on_c, 1, 60, 0
1, 485520, Note_on_c, 1, 60, 37
1, 485740, Note_on_c, 1, 60, 0
1, 485760, Note_on_c, 1, 53, 47
1, 485760, Note_on_c, 1, 56, 47
1, 485760, Note_on_c, 1, 60, 37
1, 485980, Note_on_c, 1, 60, 0
1, 485995, Note_on_c, 1, 56, 0
1, 485995, Note_on_c, 1, 53, 0
1, 486000, Note_on_c, 1, 56, 48
1, 486000, Note_on_c, 1, 53, 44
1, 486240, Note_on_c, 1, 53, 0
1, 486240, Note_on_c, 1, 56, 0
1, 486240, Note_on_c, 1, 60, 37
1, 486460, Note_on_c, 1, 60, 0
1, 486480, Note_on_c, 1, 60, 37
1, 486600, Note_on_c, 1, 77, 52
1, 486600, Note_on_c, 1, 80, 52
1, 486700, Note_on_c, 1, 60, 0
1, 486720, Note_on_c, 1, 80, 0
1, 486720, Note_on_c, 1, 77, 0
1, 486720, Note_on_c, 1, 80, 75
1, 486720, Note_on_c, 1, 77, 75
1, 486720, Note_on_c, 1, 85, 75
1, 486960, Note_on_c, 1, 60, 38
1, 487180, Note_on_c, 1, 60, 0
1, 487200, Note_on_c, 1, 60, 38
1, 487420, Note_on_c, 1, 60, 0
1, 487440, Note_on_c, 1, 53, 40
1, 487440, Note_on_c, 1, 56, 40
1, 487680, Note_on_c, 1, 56, 0
1, 487680, Note_on_c, 1, 53, 0
1, 487680, Note_on_c, 1, 60, 37
1, 487900, Note_on_c, 1, 60, 0
1, 487920, Note_on_c, 1, 60, 37
1, 488140, Note_on_c, 1, 60, 0
1, 488160, Note_on_c, 1, 56, 37
1, 488160, Note_on_c, 1, 53, 37
1, 488400, Note_on_c, 1, 53, 0
1, 488400, Note_on_c, 1, 56, 0
1, 488400, Note_on_c, 1, 60, 37
1, 488620, Note_on_c, 1, 60, 0
1, 488640, Note_on_c, 1, 60, 37
1, 488860, Note_on_c, 1, 60, 0
1, 488880, Note_on_c, 1, 56, 36
1, 488880, Note_on_c, 1, 53, 36
1, 489120, Note_on_c, 1, 53, 0
1, 489120, Note_on_c, 1, 56, 0
1, 489120, Note_on_c, 1, 60, 37
1, 489340, Note_on_c, 1, 60, 0
1, 489360, Note_on_c, 1, 60, 37
1, 489580, Note_on_c, 1, 60, 0
1, 489600, Note_on_c, 1, 80, 0
1, 489600, Note_on_c, 1, 77, 0
1, 489600, Note_on_c, 1, 85, 0
1, 489600, Note_on_c, 1, 79, 61
1, 489600, Note_on_c, 1, 76, 61
1, 489600, Note_on_c, 1, 84, 61
1, 489840, Note_on_c, 1, 60, 38
1, 490060, Note_on_c, 1, 60, 0
1, 490080, Note_on_c, 1, 79, 0
1, 490080, Note_on_c, 1, 76, 0
1, 490080, Note_on_c, 1, 84, 0
1, 490080, Note_on_c, 1, 60, 38
1, 490300, Note_on_c, 1, 60, 0
1, 490320, Note_on_c, 1, 52, 40
1, 490320, Note_on_c, 1, 55, 40
1, 490560, Note_on_c, 1, 55, 0
1, 490560, Note_on_c, 1, 52, 0
1, 490560, Note_on_c, 1, 60, 37
1, 490780, Note_on_c, 1, 60, 0
1, 490800, Note_on_c, 1, 60, 37
1, 491020, Note_on_c, 1, 60, 0
1, 491040, Note_on_c, 1, 66, 52
1, 491040, Note_on_c, 1, 63, 52
1, 491040, Note_on_c, 1, 72, 52
1, 491280, Note_on_c, 1, 60, 37
1, 491500, Note_on_c, 1, 60, 0
1, 491520, Note_on_c, 1, 60, 37
1, 491740, Note_on_c, 1, 60, 0
1, 491760, Note_on_c, 1, 54, 36
1, 491760, Note_on_c, 1, 51, 36
1, 492000, Note_on_c, 1, 51, 0
1, 492000, Note_on_c, 1, 54, 0
1, 492000, Note_on_c, 1, 60, 37
1, 492220, Note_on_c, 1, 60, 0
1, 492240, Note_on_c, 1, 60, 37
1, 492460, Note_on_c, 1, 60, 0
1, 492480, Note_on_c, 1, 66, 0
1, 492480, Note_on_c, 1, 63, 0
1, 492480, Note_on_c, 1, 72, 0
1, 492480, Note_on_c, 1, 65, 52
1, 492480, Note_on_c, 1, 71, 52
1, 492480, Note_on_c, 1, 62, 52
1, 492720, Note_on_c, 1, 60, 37
1, 492940, Note_on_c, 1, 60, 0
1, 492960, Note_on_c, 1, 65, 0
1, 492960, Note_on_c, 1, 71, 0
1, 492960, Note_on_c, 1, 62, 0
1, 492960, Note_on_c, 1, 60, 36
1, 493180, Note_on_c, 1, 60, 0
1, 493200, Note_on_c, 1, 50, 38
1, 493200, Note_on_c, 1, 53, 38
1, 493440, Note_on_c, 1, 53, 0
1, 493440, Note_on_c, 1, 50, 0
1, 493440, Note_on_c, 1, 60, 34
1, 493660, Note_on_c, 1, 60, 0
1, 493680, Note_on_c, 1, 60, 34
1, 493900, Note_on_c, 1, 60, 0
1, 493920, Note_on_c, 1, 61, 46
1, 493920, Note_on_c, 1, 70, 46
1, 493920, Note_on_c, 1, 65, 46
1, 494160, Note_on_c, 1, 60, 32
1, 494380, Note_on_c, 1, 60, 0
1, 494400, Note_on_c, 1, 61, 0
1, 494400, Note_on_c, 1, 70, 0
1, 494400, Note_on_c, 1, 65, 0
1, 494400, Note_on_c, 1, 60, 32
1, 494620, Note_on_c, 1, 60, 0
1, 494640, Note_on_c, 1, 53, 30
1, 494640, Note_on_c, 1, 49, 30
1, 494880, Note_on_c, 1, 49, 0
1, 494880, Note_on_c, 1, 53, 0
1, 494880, Note_on_c, 1, 60, 31
1, 495100, Note_on_c, 1, 60, 0
1, 495120, Note_on_c, 1, 60, 30
1, 495340, Note_on_c, 1, 60, 0
1, 495360, Note_on_c, 1, 60, 41
1, 495360, Note_on_c, 1, 68, 41
1, 495360, Note_on_c, 1, 65, 41
1, 495600, Note_on_c, 1, 48, 25
1, 495820, Note_on_c, 1, 48, 0
1, 495840, Note_on_c, 1, 48, 26
1, 496060, Note_on_c, 1, 48, 0
1, 496080, Note_on_c, 1, 65, 0
1, 496080, Note_on_c, 1, 68, 0
1, 496080, Note_on_c, 1, 60, 0
1, 496080, Note_on_c, 1, 48, 28
1, 496300, Note_on_c, 1, 48, 0
1, 496320, Note_on_c, 1, 48, 26
1, 496540, Note_on_c, 1, 48, 0
1, 496560, Note_on_c, 1, 48, 26
1, 496780, Note_on_c, 1, 48, 0
1, 496800, Note_on_c, 1, 48, 28
1, 497020, Note_on_c, 1, 48, 0
1, 497040, Note_on_c, 1, 48, 26
1, 497260, Note_on_c, 1, 48, 0
1, 497280, Note_on_c, 1, 48, 26
1, 497500, Note_on_c, 1, 48, 0
1, 497520, Note_on_c, 1, 48, 28
1, 497740, Note_on_c, 1, 48, 0
1, 497760, Note_on_c, 1, 48, 26
1, 497980, Note_on_c, 1, 48, 0
1, 498000, Note_on_c, 1, 48, 27
1, 498220, Note_on_c, 1, 48, 0
1, 498240, Note_on_c, 1, 55, 41
1, 498240, Note_on_c, 1, 46, 41
1, 498240, Note_on_c, 1, 52, 41
1, 498240, Note_on_c, 1, 48, 41
1, 498480, Note_on_c, 1, 36, 25
1, 498720, Note_on_c, 1, 36, 0
1, 498720, Note_on_c, 1, 36, 26
1, 498960, Note_on_c, 1, 36, 0
1, 498960, Note_on_c, 1, 48, 0
1, 498960, Note_on_c, 1, 55, 0
1, 498960, Note_on_c, 1, 46, 0
1, 498960, Note_on_c, 1, 52, 0
1, 498960, Note_on_c, 1, 36, 28
1, 499200, Note_on_c, 1, 36, 0
1, 499200, Note_on_c, 1, 36, 26
1, 499440, Note_on_c, 1, 36, 0
1, 499440, Note_on_c, 1, 36, 26
1, 499680, Note_on_c, 1, 36, 0
1, 499680, Note_on_c, 1, 36, 28
1, 499920, Note_on_c, 1, 36, 0
1, 499920, Note_on_c, 1, 36, 26
1, 500160, Note_on_c, 1, 36, 0
1, 500160, Note_on_c, 1, 36, 26
1, 500400, Note_on_c, 1, 36, 0
1, 500400, Note_on_c, 1, 36, 28
1, 500640, Note_on_c, 1, 36, 0
1, 500640, Note_on_c, 1, 36, 26
1, 500880, Note_on_c, 1, 36, 0
1, 500880, Note_on_c, 1, 36, 27
1, 501120, Note_on_c, 1, 36, 0
1, 501120, Note_on_c, 1, 29, 28
1, 501360, Note_on_c, 1, 29, 0
1, 501360, Note_on_c, 1, 33, 20
1, 501360, Note_on_c, 1, 36, 20
1, 501360, Note_on_c, 1, 41, 25
1, 501600, Note_on_c, 1, 41, 0
1, 501600, Note_on_c, 1, 36, 0
1, 501600, Note_on_c, 1, 33, 0
1, 501600, Note_on_c, 1, 29, 26
1, 501840, Note_on_c, 1, 29, 0
1, 501840, Note_on_c, 1, 33, 22
1, 501840, Note_on_c, 1, 36, 22
1, 501840, Note_on_c, 1, 41, 28
1, 502080, Note_on_c, 1, 41, 0
1, 502080, Note_on_c, 1, 36, 0
1, 502080, Note_on_c, 1, 33, 0
1, 502080, Note_on_c, 1, 29, 26
1, 502320, Note_on_c, 1, 29, 0
1, 502320, Note_on_c, 1, 33, 20
1, 502320, Note_on_c, 1, 36, 20
1, 502320, Note_on_c, 1, 41, 26
1, 502560, Note_on_c, 1, 41, 0
1, 502560, Note_on_c, 1, 36, 0
1, 502560, Note_on_c, 1, 33, 0
1, 502560, Note_on_c, 1, 29, 28
1, 502800, Note_on_c, 1, 29, 0
1, 502800, Note_on_c, 1, 33, 20
1, 502800, Note_on_c, 1, 36, 20
1, 502800, Note_on_c, 1, 41, 26
1, 503040, Note_on_c, 1, 41, 0
1, 503040, Note_on_c, 1, 36, 0
1, 503040, Note_on_c, 1, 33, 0
1, 503040, Note_on_c, 1, 29, 26
1, 503280, Note_on_c, 1, 29, 0
1, 503280, Note_on_c, 1, 57, 44
1, 503280, Note_on_c, 1, 45, 40
1, 503280, Note_on_c, 1, 36, 22
1, 503280, Note_on_c, 1, 33, 22
1, 503280, Note_on_c, 1, 41, 28
1, 503520, Note_on_c, 1, 41, 0
1, 503520, Note_on_c, 1, 36, 0
1, 503520, Note_on_c, 1, 33, 0
1, 503520, Note_on_c, 1, 29, 26
1, 503760, Note_on_c, 1, 29, 0
1, 503760, Note_on_c, 1, 41, 27
1, 503760, Note_on_c, 1, 33, 21
1, 503760, Note_on_c, 1, 36, 21
1, 503880, Note_on_c, 1, 45, 0
1, 503880, Note_on_c, 1, 57, 0
1, 503880, Note_on_c, 1, 60, 40
1, 503880, Note_on_c, 1, 48, 37
1, 504000, Note_on_c, 1, 48, 0
1, 504000, Note_on_c, 1, 33, 0
1, 504000, Note_on_c, 1, 36, 0
1, 504000, Note_on_c, 1, 41, 0
1, 504000, Note_on_c, 1, 60, 0
1, 504000, Note_on_c, 1, 53, 38
1, 504000, Note_on_c, 1, 65, 41
1, 504000, Note_on_c, 1, 29, 28
1, 504240, Note_on_c, 1, 29, 0
1, 504240, Note_on_c, 1, 33, 20
1, 504240, Note_on_c, 1, 36, 20
1, 504240, Note_on_c, 1, 41, 25
1, 504480, Note_on_c, 1, 41, 0
1, 504480, Note_on_c, 1, 33, 0
1, 504480, Note_on_c, 1, 36, 0
1, 504480, Note_on_c, 1, 29, 26
1, 504720, Note_on_c, 1, 29, 0
1, 504720, Note_on_c, 1, 65, 0
1, 504720, Note_on_c, 1, 53, 0
1, 504720, Note_on_c, 1, 57, 40
1, 504720, Note_on_c, 1, 69, 44
1, 504720, Note_on_c, 1, 41, 28
1, 504720, Note_on_c, 1, 36, 22
1, 504720, Note_on_c, 1, 33, 22
1, 504960, Note_on_c, 1, 33, 0
1, 504960, Note_on_c, 1, 41, 0
1, 504960, Note_on_c, 1, 36, 0
1, 504960, Note_on_c, 1, 29, 26
1, 505200, Note_on_c, 1, 29, 0
1, 505200, Note_on_c, 1, 36, 20
1, 505200, Note_on_c, 1, 41, 26
1, 505200, Note_on_c, 1, 33, 20
1, 505320, Note_on_c, 1, 69, 0
1, 505320, Note_on_c, 1, 57, 0
1, 505320, Note_on_c, 1, 65, 39
1, 505320, Note_on_c, 1, 53, 36
1, 505440, Note_on_c, 1, 53, 0
1, 505440, Note_on_c, 1, 41, 0
1, 505440, Note_on_c, 1, 33, 0
1, 505440, Note_on_c, 1, 36, 0
1, 505440, Note_on_c, 1, 65, 0
1, 505440, Note_on_c, 1, 64, 41
1, 505440, Note_on_c, 1, 52, 38
1, 505440, Note_on_c, 1, 31, 28
1, 505680, Note_on_c, 1, 31, 0
1, 505680, Note_on_c, 1, 34, 20
1, 505680, Note_on_c, 1, 40, 20
1, 505680, Note_on_c, 1, 43, 26
1, 505920, Note_on_c, 1, 43, 0
1, 505920, Note_on_c, 1, 34, 0
1, 505920, Note_on_c, 1, 40, 0
1, 505920, Note_on_c, 1, 31, 26
1, 506160, Note_on_c, 1, 31, 0
1, 506160, Note_on_c, 1, 52, 0
1, 506160, Note_on_c, 1, 64, 0
1, 506160, Note_on_c, 1, 67, 44
1, 506160, Note_on_c, 1, 55, 40
1, 506160, Note_on_c, 1, 34, 22
1, 506160, Note_on_c, 1, 43, 28
1, 506160, Note_on_c, 1, 40, 22
1, 506400, Note_on_c, 1, 40, 0
1, 506400, Note_on_c, 1, 34, 0
1, 506400, Note_on_c, 1, 43, 0
1, 506400, Note_on_c, 1, 31, 26
1, 506640, Note_on_c, 1, 31, 0
1, 506640, Note_on_c, 1, 40, 21
1, 506640, Note_on_c, 1, 43, 27
1, 506640, Note_on_c, 1, 34, 21
1, 506760, Note_on_c, 1, 55, 0
1, 506760, Note_on_c, 1, 67, 0
1, 506760, Note_on_c, 1, 64, 39
1, 506760, Note_on_c, 1, 52, 36
1, 506880, Note_on_c, 1, 52, 0
1, 506880, Note_on_c, 1, 43, 0
1, 506880, Note_on_c, 1, 34, 0
1, 506880, Note_on_c, 1, 40, 0
1, 506880, Note_on_c, 1, 64, 0
1, 506880, Note_on_c, 1, 53, 38
1, 506880, Note_on_c, 1, 65, 41
1, 506880, Note_on_c, 1, 33, 28
1, 507120, Note_on_c, 1, 33, 0
1, 507120, Note_on_c, 1, 41, 20
1, 507120, Note_on_c, 1, 45, 25
1, 507120, Note_on_c, 1, 36, 20
1, 507360, Note_on_c, 1, 36, 0
1, 507360, Note_on_c, 1, 41, 0
1, 507360, Note_on_c, 1, 45, 0
1, 507360, Note_on_c, 1, 33, 26
1, 507600, Note_on_c, 1, 33, 0
1, 507600, Note_on_c, 1, 65, 0
1, 507600, Note_on_c, 1, 53, 0
1, 507600, Note_on_c, 1, 60, 40
1, 507600, Note_on_c, 1, 48, 40
1, 507600, Note_on_c, 1, 45, 28
1, 507600, Note_on_c, 1, 41, 22
1, 507600, Note_on_c, 1, 36, 22
1, 507840, Note_on_c, 1, 36, 0
1, 507840, Note_on_c, 1, 45, 0
1, 507840, Note_on_c, 1, 41, 0
1, 507840, Note_on_c, 1, 33, 26
1, 508080, Note_on_c, 1, 33, 0
1, 508080, Note_on_c, 1, 36, 20
1, 508080, Note_on_c, 1, 45, 26
1, 508080, Note_on_c, 1, 41, 20
1, 508320, Note_on_c, 1, 41, 0
1, 508320, Note_on_c, 1, 36, 0
1, 508320, Note_on_c, 1, 45, 0
1, 508320, Note_on_c, 1, 33, 28
1, 508560, Note_on_c, 1, 33, 0
1, 508560, Note_on_c, 1, 45, 26
1, 508560, Note_on_c, 1, 36, 20
1, 508560, Note_on_c, 1, 41, 20
1, 508800, Note_on_c, 1, 41, 0
1, 508800, Note_on_c, 1, 45, 0
1, 508800, Note_on_c, 1, 36, 0
1, 508800, Note_on_c, 1, 33, 26
1, 509040, Note_on_c, 1, 33, 0
1, 509040, Note_on_c, 1, 48, 0
1, 509040, Note_on_c, 1, 60, 0
1, 509040, Note_on_c, 1, 62, 44
1, 509040, Note_on_c, 1, 41, 28
1, 509040, Note_on_c, 1, 50, 40
1, 509280, Note_on_c, 1, 41, 0
1, 509280, Note_on_c, 1, 34, 26
1, 509520, Note_on_c, 1, 34, 0
1, 509520, Note_on_c, 1, 41, 27
1, 509640, Note_on_c, 1, 50, 0
1, 509640, Note_on_c, 1, 62, 0
1, 509640, Note_on_c, 1, 58, 40
1, 509640, Note_on_c, 1, 46, 37
1, 509760, Note_on_c, 1, 46, 0
1, 509760, Note_on_c, 1, 58, 0
1, 509760, Note_on_c, 1, 41, 0
1, 509760, Note_on_c, 1, 57, 44
1, 509760, Note_on_c, 1, 45, 40
1, 509760, Note_on_c, 1, 36, 28
1, 510000, Note_on_c, 1, 36, 0
1, 510000, Note_on_c, 1, 41, 25
1, 510240, Note_on_c, 1, 41, 0
1, 510240, Note_on_c, 1, 36, 26
1, 510480, Note_on_c, 1, 36, 0
1, 510480, Note_on_c, 1, 45, 0
1, 510480, Note_on_c, 1, 57, 0
1, 510480, Note_on_c, 1, 60, 44
1, 510480, Note_on_c, 1, 41, 28
1, 510480, Note_on_c, 1, 48, 40
1, 510720, Note_on_c, 1, 41, 0
1, 510720, Note_on_c, 1, 36, 25
1, 510960, Note_on_c, 1, 36, 0
1, 510960, Note_on_c, 1, 41, 25
1, 511080, Note_on_c, 1, 48, 0
1, 511080, Note_on_c, 1, 60, 0
1, 511080, Note_on_c, 1, 57, 39
1, 511080, Note_on_c, 1, 45, 36
1, 511200, Note_on_c, 1, 45, 0
1, 511200, Note_on_c, 1, 57, 0
1, 511200, Note_on_c, 1, 41, 0
1, 511200, Note_on_c, 1, 55, 44
1, 511200, Note_on_c, 1, 43, 40
1, 511200, Note_on_c, 1, 36, 28
1, 511440, Note_on_c, 1, 36, 0
1, 511440, Note_on_c, 1, 40, 25
1, 511680, Note_on_c, 1, 40, 0
1, 511680, Note_on_c, 1, 36, 25
1, 511920, Note_on_c, 1, 36, 0
1, 511920, Note_on_c, 1, 43, 0
1, 511920, Note_on_c, 1, 55, 0
1, 511920, Note_on_c, 1, 60, 44
1, 511920, Note_on_c, 1, 48, 40
1, 511920, Note_on_c, 1, 40, 28
1, 512160, Note_on_c, 1, 40, 0
1, 512160, Note_on_c, 1, 36, 25
1, 512400, Note_on_c, 1, 36, 0
1, 512400, Note_on_c, 1, 40, 25
1, 512520, Note_on_c, 1, 48, 0
1, 512520, Note_on_c, 1, 60, 0
1, 512520, Note_on_c, 1, 58, 39
1, 512520, Note_on_c, 1, 46, 36
1, 512640, Note_on_c, 1, 46, 0
1, 512640, Note_on_c, 1, 58, 0
1, 512640, Note_on_c, 1, 40, 0
1, 512640, Note_on_c, 1, 57, 42
1, 512640, Note_on_c, 1, 41, 28
1, 512880, Note_on_c, 1, 41, 0
1, 512880, Note_on_c, 1, 45, 20
1, 512880, Note_on_c, 1, 48, 20
1, 512880, Note_on_c, 1, 53, 25
1, 513120, Note_on_c, 1, 53, 0
1, 513120, Note_on_c, 1, 48, 0
1, 513120, Note_on_c, 1, 45, 0
1, 513120, Note_on_c, 1, 41, 27
1, 513360, Note_on_c, 1, 41, 0
1, 513360, Note_on_c, 1, 57, 0
1, 513360, Note_on_c, 1, 60, 42
1, 513360, Note_on_c, 1, 45, 23
1, 513360, Note_on_c, 1, 48, 23
1, 513360, Note_on_c, 1, 53, 29
1, 513600, Note_on_c, 1, 53, 0
1, 513600, Note_on_c, 1, 48, 0
1, 513600, Note_on_c, 1, 45, 0
1, 513600, Note_on_c, 1, 41, 28
1, 513840, Note_on_c, 1, 41, 0
1, 513840, Note_on_c, 1, 45, 22
1, 513840, Note_on_c, 1, 48, 22
1, 513840, Note_on_c, 1, 53, 29
1, 514080, Note_on_c, 1, 53, 0
1, 514080, Note_on_c, 1, 48, 0
1, 514080, Note_on_c, 1, 45, 0
1, 514080, Note_on_c, 1, 41, 32
1, 514320, Note_on_c, 1, 41, 0
1, 514320, Note_on_c, 1, 45, 24
1, 514320, Note_on_c, 1, 48, 24
1, 514320, Note_on_c, 1, 53, 31
1, 514560, Note_on_c, 1, 53, 0
1, 514560, Note_on_c, 1, 48, 0
1, 514560, Note_on_c, 1, 45, 0
1, 514560, Note_on_c, 1, 41, 31
1, 514800, Note_on_c, 1, 41, 0
1, 514800, Note_on_c, 1, 60, 0
1, 514800, Note_on_c, 1, 69, 55
1, 514800, Note_on_c, 1, 57, 51
1, 514800, Note_on_c, 1, 48, 27
1, 514800, Note_on_c, 1, 45, 27
1, 514800, Note_on_c, 1, 53, 35
1, 515040, Note_on_c, 1, 53, 0
1, 515040, Note_on_c, 1, 48, 0
1, 515040, Note_on_c, 1, 45, 0
1, 515040, Note_on_c, 1, 41, 33
1, 515280, Note_on_c, 1, 41, 0
1, 515280, Note_on_c, 1, 53, 34
1, 515280, Note_on_c, 1, 45, 27
1, 515280, Note_on_c, 1, 48, 27
1, 515400, Note_on_c, 1, 57, 0
1, 515400, Note_on_c, 1, 69, 0
1, 515400, Note_on_c, 1, 72, 53
1, 515400, Note_on_c, 1, 60, 49
1, 515520, Note_on_c, 1, 60, 0
1, 515520, Note_on_c, 1, 45, 0
1, 515520, Note_on_c, 1, 48, 0
1, 515520, Note_on_c, 1, 53, 0
1, 515520, Note_on_c, 1, 72, 0
1, 515520, Note_on_c, 1, 65, 51
1, 515520, Note_on_c, 1, 77, 56
1, 515520, Note_on_c, 1, 41, 37
1, 515760, Note_on_c, 1, 41, 0
1, 515760, Note_on_c, 1, 45, 27
1, 515760, Note_on_c, 1, 48, 27
1, 515760, Note_on_c, 1, 53, 34
1, 516000, Note_on_c, 1, 53, 0
1, 516000, Note_on_c, 1, 45, 0
1, 516000, Note_on_c, 1, 48, 0
1, 516000, Note_on_c, 1, 41, 36
1, 516240, Note_on_c, 1, 41, 0
1, 516240, Note_on_c, 1, 77, 0
1, 516240, Note_on_c, 1, 65, 0
1, 516240, Note_on_c, 1, 81, 62
1, 516240, Note_on_c, 1, 69, 57
1, 516240, Note_on_c, 1, 45, 30
1, 516240, Note_on_c, 1, 48, 30
1, 516240, Note_on_c, 1, 53, 39
1, 516480, Note_on_c, 1, 53, 0
1, 516480, Note_on_c, 1, 45, 0
1, 516480, Note_on_c, 1, 48, 0
1, 516480, Note_on_c, 1, 41, 37
1, 516720, Note_on_c, 1, 41, 0
1, 516720, Note_on_c, 1, 48, 29
1, 516720, Note_on_c, 1, 53, 38
1, 516720, Note_on_c, 1, 45, 29
1, 516840, Note_on_c, 1, 69, 0
1, 516840, Note_on_c, 1, 81, 0
1, 516840, Note_on_c, 1, 77, 58
1, 516840, Note_on_c, 1, 65, 53
1, 516960, Note_on_c, 1, 65, 0
1, 516960, Note_on_c, 1, 53, 0
1, 516960, Note_on_c, 1, 45, 0
1, 516960, Note_on_c, 1, 48, 0
1, 516960, Note_on_c, 1, 77, 0
1, 516960, Note_on_c, 1, 76, 61
1, 516960, Note_on_c, 1, 64, 57
1, 516960, Note_on_c, 1, 43, 40
1, 517200, Note_on_c, 1, 43, 0
1, 517200, Note_on_c, 1, 46, 29
1, 517200, Note_on_c, 1, 48, 29
1, 517200, Note_on_c, 1, 55, 38
1, 517440, Note_on_c, 1, 55, 0
1, 517440, Note_on_c, 1, 46, 0
1, 517440, Note_on_c, 1, 48, 0
1, 517440, Note_on_c, 1, 43, 39
1, 517680, Note_on_c, 1, 43, 0
1, 517680, Note_on_c, 1, 64, 0
1, 517680, Note_on_c, 1, 76, 0
1, 517680, Note_on_c, 1, 79, 68
1, 517680, Note_on_c, 1, 67, 62
1, 517680, Note_on_c, 1, 46, 34
1, 517680, Note_on_c, 1, 55, 42
1, 517680, Note_on_c, 1, 48, 34
1, 517920, Note_on_c, 1, 48, 0
1, 517920, Note_on_c, 1, 46, 0
1, 517920, Note_on_c, 1, 55, 0
1, 517920, Note_on_c, 1, 43, 40
1, 518160, Note_on_c, 1, 43, 0
1, 518160, Note_on_c, 1, 48, 33
1, 518160, Note_on_c, 1, 55, 42
1, 518160, Note_on_c, 1, 46, 33
1, 518280, Note_on_c, 1, 67, 0
1, 518280, Note_on_c, 1, 79, 0
1, 518280, Note_on_c, 1, 76, 63
1, 518280, Note_on_c, 1, 64, 58
1, 518400, Note_on_c, 1, 64, 0
1, 518400, Note_on_c, 1, 55, 0
1, 518400, Note_on_c, 1, 46, 0
1, 518400, Note_on_c, 1, 48, 0
1, 518400, Note_on_c, 1, 76, 0
1, 518400, Note_on_c, 1, 77, 57
1, 518400, Note_on_c, 1, 65, 51
1, 518400, Note_on_c, 1, 57, 36
1, 518400, Note_on_c, 1, 48, 28
1, 518400, Note_on_c, 1, 45, 28
1, 518400, Note_on_c, 1, 53, 36
1, 519120, Note_on_c, 1, 65, 0
1, 519120, Note_on_c, 1, 77, 0
1, 519120, Note_on_c, 1, 60, 48
1, 519120, Note_on_c, 1, 72, 52
1, 521280, Note_on_c, 1, 72, 0
1, 521280, Note_on_c, 1, 53, 0
1, 521280, Note_on_c, 1, 57, 0
1, 521280, Note_on_c, 1, 48, 0
1, 521280, Note_on_c, 1, 60, 0
1, 521280, Note_on_c, 1, 45, 0
1, 521280, Note_on_c, 1, 61, 72
1, 521280, Note_on_c, 1, 73, 85
1, 521280, Note_on_c, 1, 49, 50
1, 521280, Note_on_c, 1, 53, 59
1, 521280, Note_on_c, 1, 46, 50
1, 522000, Note_on_c, 1, 53, 0
1, 522000, Note_on_c, 1, 73, 0
1, 522000, Note_on_c, 1, 61, 0
1, 522000, Note_on_c, 1, 58, 69
1, 522000, Note_on_c, 1, 70, 81
1, 522000, Note_on_c, 1, 54, 57
1, 524160, Note_on_c, 1, 54, 0
1, 524160, Note_on_c, 1, 58, 0
1, 524160, Note_on_c, 1, 46, 0
1, 524160, Note_on_c, 1, 49, 0
1, 524160, Note_on_c, 1, 70, 0
1, 524160, Note_on_c, 1, 68, 58
1, 524160, Note_on_c, 1, 48, 28
1, 524160, Note_on_c, 1, 56, 36
1, 524160, Note_on_c, 1, 53, 36
1, 526320, Note_on_c, 1, 68, 0
1, 526320, Note_on_c, 1, 67, 51
1, 526800, Note_on_c, 1, 67, 0
1, 526800, Note_on_c, 1, 65, 49
1, 527040, Note_on_c, 1, 65, 0
1, 527040, Note_on_c, 1, 48, 0
1, 527040, Note_on_c, 1, 56, 0
1, 527040, Note_on_c, 1, 53, 0
1, 527040, Note_on_c, 1, 67, 46
1, 527040, Note_on_c, 1, 48, 25
1, 527040, Note_on_c, 1, 52, 31
1, 527040, Note_on_c, 1, 58, 31
1, 527160, Note_on_c, 1, 67, 0
1, 527160, Note_on_c, 1, 68, 39
1, 527280, Note_on_c, 1, 68, 0
1, 527280, Note_on_c, 1, 67, 46
1, 527400, Note_on_c, 1, 67, 0
1, 527400, Note_on_c, 1, 68, 40
1, 527520, Note_on_c, 1, 68, 0
1, 527520, Note_on_c, 1, 67, 47
1, 527640, Note_on_c, 1, 67, 0
1, 527640, Note_on_c, 1, 68, 40
1, 527760, Note_on_c, 1, 68, 0
1, 527760, Note_on_c, 1, 67, 48
1, 527880, Note_on_c, 1, 67, 0
1, 527880, Note_on_c, 1, 68, 41
1, 528000, Note_on_c, 1, 68, 0
1, 528000, Note_on_c, 1, 67, 49
1, 528120, Note_on_c, 1, 67, 0
1, 528120, Note_on_c, 1, 68, 42
1, 528240, Note_on_c, 1, 68, 0
1, 528240, Note_on_c, 1, 67, 50
1, 528360, Note_on_c, 1, 67, 0
1, 528360, Note_on_c, 1, 68, 42
1, 528480, Note_on_c, 1, 68, 0
1, 528480, Note_on_c, 1, 67, 51
1, 528600, Note_on_c, 1, 67, 0
1, 528600, Note_on_c, 1, 68, 44
1, 528720, Note_on_c, 1, 68, 0
1, 528720, Note_on_c, 1, 67, 51
1, 528840, Note_on_c, 1, 67, 0
1, 528840, Note_on_c, 1, 68, 45
1, 528960, Note_on_c, 1, 68, 0
1, 528960, Note_on_c, 1, 67, 52
1, 529080, Note_on_c, 1, 67, 0
1, 529080, Note_on_c, 1, 68, 46
1, 529200, Note_on_c, 1, 68, 0
1, 529200, Note_on_c, 1, 67, 53
1, 529320, Note_on_c, 1, 67, 0
1, 529320, Note_on_c, 1, 68, 48
1, 529440, Note_on_c, 1, 68, 0
1, 529440, Note_on_c, 1, 67, 55
1, 529560, Note_on_c, 1, 67, 0
1, 529560, Note_on_c, 1, 68, 48
1, 529680, Note_on_c, 1, 68, 0
1, 529680, Note_on_c, 1, 67, 56
1, 529800, Note_on_c, 1, 67, 0
1, 529800, Note_on_c, 1, 68, 48
1, 529920, Note_on_c, 1, 68, 0
1, 529920, Note_on_c, 1, 58, 0
1, 529920, Note_on_c, 1, 52, 0
1, 529920, Note_on_c, 1, 48, 0
1, 529920, Note_on_c, 1, 73, 46
1, 530040, Note_on_c, 1, 73, 0
1, 530040, Note_on_c, 1, 72, 39
1, 530160, Note_on_c, 1, 72, 0
1, 530160, Note_on_c, 1, 73, 46
1, 530280, Note_on_c, 1, 73, 0
1, 530280, Note_on_c, 1, 72, 40
1, 530400, Note_on_c, 1, 72, 0
1, 530400, Note_on_c, 1, 73, 48
1, 530520, Note_on_c, 1, 73, 0
1, 530520, Note_on_c, 1, 72, 41
1, 530640, Note_on_c, 1, 72, 0
1, 530640, Note_on_c, 1, 73, 50
1, 530760, Note_on_c, 1, 73, 0
1, 530760, Note_on_c, 1, 72, 44
1, 530880, Note_on_c, 1, 72, 0
1, 530880, Note_on_c, 1, 73, 51
1, 531000, Note_on_c, 1, 73, 0
1, 531000, Note_on_c, 1, 72, 45
1, 531120, Note_on_c, 1, 72, 0
1, 531120, Note_on_c, 1, 73, 53
1, 531240, Note_on_c, 1, 73, 0
1, 531240, Note_on_c, 1, 72, 47
1, 531360, Note_on_c, 1, 72, 0
1, 531360, Note_on_c, 1, 73, 56
1, 531480, Note_on_c, 1, 73, 0
1, 531480, Note_on_c, 1, 72, 48
1, 531600, Note_on_c, 1, 72, 0
1, 531600, Note_on_c, 1, 73, 56
1, 531720, Note_on_c, 1, 73, 0
1, 531720, Note_on_c, 1, 72, 47
1, 531840, Note_on_c, 1, 72, 0
1, 531840, Note_on_c, 1, 73, 56
1, 531960, Note_on_c, 1, 73, 0
1, 531960, Note_on_c, 1, 72, 48
1, 532080, Note_on_c, 1, 72, 0
1, 532080, Note_on_c, 1, 73, 56
1, 532200, Note_on_c, 1, 73, 0
1, 532200, Note_on_c, 1, 72, 49
1, 532320, Note_on_c, 1, 72, 0
1, 532320, Note_on_c, 1, 73, 56
1, 532440, Note_on_c, 1, 73, 0
1, 532440, Note_on_c, 1, 72, 49
1, 532560, Note_on_c, 1, 72, 0
1, 532560, Note_on_c, 1, 71, 56
1, 532680, Note_on_c, 1, 71, 0
1, 532680, Note_on_c, 1, 72, 48
1, 532800, Note_on_c, 1, 72, 0
1, 532800, Note_on_c, 1, 85, 49
1, 532920, Note_on_c, 1, 85, 0
1, 532920, Note_on_c, 1, 84, 41
1, 533040, Note_on_c, 1, 84, 0
1, 533040, Note_on_c, 1, 85, 49
1, 533160, Note_on_c, 1, 85, 0
1, 533160, Note_on_c, 1, 84, 43
1, 533280, Note_on_c, 1, 84, 0
1, 533280, Note_on_c, 1, 85, 51
1, 533400, Note_on_c, 1, 85, 0
1, 533400, Note_on_c, 1, 84, 45
1, 533520, Note_on_c, 1, 84, 0
1, 533520, Note_on_c, 1, 85, 54
1, 533640, Note_on_c, 1, 85, 0
1, 533640, Note_on_c, 1, 84, 45
1, 533760, Note_on_c, 1, 84, 0
1, 533760, Note_on_c, 1, 85, 55
1, 533880, Note_on_c, 1, 85, 0
1, 533880, Note_on_c, 1, 84, 46
1, 534000, Note_on_c, 1, 84, 0
1, 534000, Note_on_c, 1, 85, 56
1, 534120, Note_on_c, 1, 85, 0
1, 534120, Note_on_c, 1, 84, 49
1, 534240, Note_on_c, 1, 84, 0
1, 534240, Note_on_c, 1, 85, 60
1, 534360, Note_on_c, 1, 85, 0
1, 534360, Note_on_c, 1, 84, 49
1, 534480, Note_on_c, 1, 84, 0
1, 534480, Note_on_c, 1, 85, 58
1, 534600, Note_on_c, 1, 85, 0
1, 534600, Note_on_c, 1, 84, 48
1, 534720, Note_on_c, 1, 84, 0
1, 534720, Note_on_c, 1, 85, 55
1, 534840, Note_on_c, 1, 85, 0
1, 534840, Note_on_c, 1, 84, 45
1, 534960, Note_on_c, 1, 84, 0
1, 534960, Note_on_c, 1, 85, 54
1, 535080, Note_on_c, 1, 85, 0
1, 535080, Note_on_c, 1, 84, 45
1, 535200, Note_on_c, 1, 84, 0
1, 535200, Note_on_c, 1, 85, 52
1, 535320, Note_on_c, 1, 85, 0
1, 535320, Note_on_c, 1, 84, 44
1, 535440, Note_on_c, 1, 84, 0
1, 535440, Note_on_c, 1, 83, 50
1, 535560, Note_on_c, 1, 83, 0
1, 535560, Note_on_c, 1, 84, 40
1, 535680, Note_on_c, 1, 84, 0
1, 535680, Note_on_c, 1, 85, 47
1, 535920, Note_on_c, 1, 85, 0
1, 535920, Note_on_c, 1, 84, 47
1, 536160, Note_on_c, 1, 84, 0
1, 536160, Note_on_c, 1, 82, 45
1, 536400, Note_on_c, 1, 82, 0
1, 536400, Note_on_c, 1, 80, 42
1, 536640, Note_on_c, 1, 80, 0
1, 536640, Note_on_c, 1, 79, 43
1, 536880, Note_on_c, 1, 79, 0
1, 536880, Note_on_c, 1, 78, 42
1, 537120, Note_on_c, 1, 78, 0
1, 537120, Note_on_c, 1, 77, 42
1, 537360, Note_on_c, 1, 77, 0
1, 537360, Note_on_c, 1, 76, 42
1, 537600, Note_on_c, 1, 76, 0
1, 537600, Note_on_c, 1, 75, 42
1, 537840, Note_on_c, 1, 75, 0
1, 537840, Note_on_c, 1, 73, 42
1, 538080, Note_on_c, 1, 73, 0
1, 538080, Note_on_c, 1, 72, 41
1, 538320, Note_on_c, 1, 72, 0
1, 538320, Note_on_c, 1, 70, 41
1, 538560, Note_on_c, 1, 70, 0
1, 538560, Note_on_c, 1, 68, 41
1, 538800, Note_on_c, 1, 68, 0
1, 538800, Note_on_c, 1, 67, 39
1, 539040, Note_on_c, 1, 67, 0
1, 539040, Note_on_c, 1, 66, 39
1, 539280, Note_on_c, 1, 66, 0
1, 539280, Note_on_c, 1, 65, 38
1, 539520, Note_on_c, 1, 65, 0
1, 539520, Note_on_c, 1, 64, 37
1, 539760, Note_on_c, 1, 64, 0
1, 539760, Note_on_c, 1, 63, 36
1, 540000, Note_on_c, 1, 63, 0
1, 540000, Note_on_c, 1, 61, 36
1, 540240, Note_on_c, 1, 61, 0
1, 540240, Note_on_c, 1, 60, 36
1, 540480, Note_on_c, 1, 60, 0
1, 540480, Note_on_c, 1, 58, 35
1, 540720, Note_on_c, 1, 58, 0
1, 540720, Note_on_c, 1, 56, 34
1, 540960, Note_on_c, 1, 56, 0
1, 540960, Note_on_c, 1, 55, 35
1, 541200, Note_on_c, 1, 55, 0
1, 541200, Note_on_c, 1, 54, 33
1, 541440, Note_on_c, 1, 54, 0
1, 541440, Note_on_c, 1, 53, 34
1, 541680, Note_on_c, 1, 53, 0
1, 541680, Note_on_c, 1, 52, 33
1, 541920, Note_on_c, 1, 52, 0
1, 541920, Note_on_c, 1, 51, 33
1, 542160, Note_on_c, 1, 51, 0
1, 542160, Note_on_c, 1, 49, 33
1, 542400, Note_on_c, 1, 49, 0
1, 542400, Note_on_c, 1, 48, 32
1, 542640, Note_on_c, 1, 48, 0
1, 542640, Note_on_c, 1, 46, 32
1, 542880, Note_on_c, 1, 46, 0
1, 542880, Note_on_c, 1, 44, 34
1, 543120, Note_on_c, 1, 44, 0
1, 543120, Note_on_c, 1, 43, 33
1, 543360, Note_on_c, 1, 43, 0
1, 543360, Note_on_c, 1, 42, 33
1, 543600, Note_on_c, 1, 42, 0
1, 543600, Note_on_c, 1, 41, 33
1, 543840, Note_on_c, 1, 41, 0
1, 543840, Note_on_c, 1, 40, 33
1, 544080, Note_on_c, 1, 40, 0
1, 544080, Note_on_c, 1, 39, 33
1, 544320, Note_on_c, 1, 39, 0
1, 544320, Note_on_c, 1, 37, 34
1, 544560, Note_on_c, 1, 37, 0
1, 544560, Note_on_c, 1, 36, 34
1, 544800, Note_on_c, 1, 36, 0
1, 544800, Note_on_c, 1, 34, 34
1, 545040, Note_on_c, 1, 34, 0
1, 545040, Note_on_c, 1, 32, 34
1, 545280, Note_on_c, 1, 32, 0
1, 545280, Note_on_c, 1, 31, 33
1, 545520, Note_on_c, 1, 31, 0
1, 545520, Note_on_c, 1, 32, 31
1, 545760, Note_on_c, 1, 32, 0
1, 545760, Note_on_c, 1, 34, 34
1, 546000, Note_on_c, 1, 34, 0
1, 546000, Note_on_c, 1, 36, 33
1, 546240, Note_on_c, 1, 36, 0
1, 546240, Note_on_c, 1, 35, 33
1, 546480, Note_on_c, 1, 35, 0
1, 546480, Note_on_c, 1, 36, 36
1, 546720, Note_on_c, 1, 36, 0
1, 546720, Note_on_c, 1, 35, 34
1, 546960, Note_on_c, 1, 35, 0
1, 546960, Note_on_c, 1, 36, 33
1, 547200, Note_on_c, 1, 36, 0
1, 547200, Note_on_c, 1, 53, 83
1, 547200, Note_on_c, 1, 29, 64
1, 547320, Note_on_c, 1, 29, 0
1, 547320, Note_on_c, 1, 53, 0
1, 547320, Note_on_c, 1, 48, 66
1, 547320, Note_on_c, 1, 36, 52
1, 547440, Note_on_c, 1, 36, 0
1, 547440, Note_on_c, 1, 48, 0
1, 547440, Note_on_c, 1, 44, 66
1, 547440, Note_on_c, 1, 41, 52
1, 547560, Note_on_c, 1, 41, 0
1, 547560, Note_on_c, 1, 44, 0
1, 547560, Note_on_c, 1, 48, 66
1, 547560, Note_on_c, 1, 36, 52
1, 547680, Note_on_c, 1, 36, 0
1, 547680, Note_on_c, 1, 48, 0
1, 547680, Note_on_c, 1, 53, 72
1, 547680, Note_on_c, 1, 29, 58
1, 547800, Note_on_c, 1, 29, 0
1, 547800, Note_on_c, 1, 53, 0
1, 547800, Note_on_c, 1, 48, 64
1, 547800, Note_on_c, 1, 36, 51
1, 547920, Note_on_c, 1, 36, 0
1, 547920, Note_on_c, 1, 48, 0
1, 547920, Note_on_c, 1, 56, 84
1, 547920, Note_on_c, 1, 29, 68
1, 548040, Note_on_c, 1, 29, 0
1, 548040, Note_on_c, 1, 56, 0
1, 548040, Note_on_c, 1, 48, 66
1, 548040, Note_on_c, 1, 36, 52
1, 548160, Note_on_c, 1, 36, 0
1, 548160, Note_on_c, 1, 48, 0
1, 548160, Note_on_c, 1, 55, 83
1, 548160, Note_on_c, 1, 29, 64
1, 548280, Note_on_c, 1, 29, 0
1, 548280, Note_on_c, 1, 55, 0
1, 548280, Note_on_c, 1, 48, 66
1, 548280, Note_on_c, 1, 36, 52
1, 548400, Note_on_c, 1, 36, 0
1, 548400, Note_on_c, 1, 48, 0
1, 548400, Note_on_c, 1, 53, 81
1, 548400, Note_on_c, 1, 29, 62
1, 548520, Note_on_c, 1, 29, 0
1, 548520, Note_on_c, 1, 53, 0
1, 548520, Note_on_c, 1, 48, 66
1, 548520, Note_on_c, 1, 36, 52
1, 548640, Note_on_c, 1, 36, 0
1, 548640, Note_on_c, 1, 48, 0
1, 548640, Note_on_c, 1, 53, 83
1, 548640, Note_on_c, 1, 29, 64
1, 548760, Note_on_c, 1, 29, 0
1, 548760, Note_on_c, 1, 53, 0
1, 548760, Note_on_c, 1, 48, 63
1, 548760, Note_on_c, 1, 36, 52
1, 548880, Note_on_c, 1, 36, 0
1, 548880, Note_on_c, 1, 48, 0
1, 548880, Note_on_c, 1, 44, 63
1, 548880, Note_on_c, 1, 41, 52
1, 549000, Note_on_c, 1, 41, 0
1, 549000, Note_on_c, 1, 44, 0
1, 549000, Note_on_c, 1, 48, 63
1, 549000, Note_on_c, 1, 36, 52
1, 549120, Note_on_c, 1, 36, 0
1, 549120, Note_on_c, 1, 48, 0
1, 549120, Note_on_c, 1, 53, 66
1, 549120, Note_on_c, 1, 29, 58
1, 549240, Note_on_c, 1, 29, 0
1, 549240, Note_on_c, 1, 53, 0
1, 549240, Note_on_c, 1, 48, 62
1, 549240, Note_on_c, 1, 36, 51
1, 549360, Note_on_c, 1, 36, 0
1, 549360, Note_on_c, 1, 48, 0
1, 549360, Note_on_c, 1, 56, 83
1, 549360, Note_on_c, 1, 29, 68
1, 549480, Note_on_c, 1, 29, 0
1, 549480, Note_on_c, 1, 56, 0
1, 549480, Note_on_c, 1, 48, 63
1, 549480, Note_on_c, 1, 36, 52
1, 549600, Note_on_c, 1, 36, 0
1, 549600, Note_on_c, 1, 48, 0
1, 549600, Note_on_c, 1, 55, 80
1, 549600, Note_on_c, 1, 29, 64
1, 549720, Note_on_c, 1, 29, 0
1, 549720, Note_on_c, 1, 55, 0
1, 549720, Note_on_c, 1, 48, 66
1, 549720, Note_on_c, 1, 36, 52
1, 549840, Note_on_c, 1, 36, 0
1, 549840, Note_on_c, 1, 48, 0
1, 549840, Note_on_c, 1, 53, 80
1, 549840, Note_on_c, 1, 29, 62
1, 549960, Note_on_c, 1, 29, 0
1, 549960, Note_on_c, 1, 53, 0
1, 549960, Note_on_c, 1, 48, 64
1, 549960, Note_on_c, 1, 36, 52
1, 550080, Note_on_c, 1, 36, 0
1, 550080, Note_on_c, 1, 48, 0
1, 550080, Note_on_c, 1, 61, 83
1, 550080, Note_on_c, 1, 29, 64
1, 550200, Note_on_c, 1, 29, 0
1, 550200, Note_on_c, 1, 61, 0
1, 550200, Note_on_c, 1, 56, 66
1, 550200, Note_on_c, 1, 37, 52
1, 550320, Note_on_c, 1, 37, 0
1, 550320, Note_on_c, 1, 56, 0
1, 550320, Note_on_c, 1, 53, 66
1, 550320, Note_on_c, 1, 41, 52
1, 550440, Note_on_c, 1, 41, 0
1, 550440, Note_on_c, 1, 53, 0
1, 550440, Note_on_c, 1, 56, 66
1, 550440, Note_on_c, 1, 37, 52
1, 550560, Note_on_c, 1, 37, 0
1, 550560, Note_on_c, 1, 56, 0
1, 550560, Note_on_c, 1, 61, 77
1, 550560, Note_on_c, 1, 29, 58
1, 550680, Note_on_c, 1, 29, 0
1, 550680, Note_on_c, 1, 61, 0
1, 550680, Note_on_c, 1, 56, 64
1, 550680, Note_on_c, 1, 37, 51
1, 550800, Note_on_c, 1, 37, 0
1, 550800, Note_on_c, 1, 56, 0
1, 550800, Note_on_c, 1, 65, 84
1, 550800, Note_on_c, 1, 29, 68
1, 550920, Note_on_c, 1, 29, 0
1, 550920, Note_on_c, 1, 65, 0
1, 550920, Note_on_c, 1, 56, 66
1, 550920, Note_on_c, 1, 37, 52
1, 551040, Note_on_c, 1, 37, 0
1, 551040, Note_on_c, 1, 56, 0
1, 551040, Note_on_c, 1, 63, 83
1, 551040, Note_on_c, 1, 29, 64
1, 551160, Note_on_c, 1, 29, 0
1, 551160, Note_on_c, 1, 63, 0
1, 551160, Note_on_c, 1, 56, 66
1, 551160, Note_on_c, 1, 37, 52
1, 551280, Note_on_c, 1, 37, 0
1, 551280, Note_on_c, 1, 56, 0
1, 551280, Note_on_c, 1, 61, 81
1, 551280, Note_on_c, 1, 29, 62
1, 551400, Note_on_c, 1, 29, 0
1, 551400, Note_on_c, 1, 61, 0
1, 551400, Note_on_c, 1, 56, 66
1, 551400, Note_on_c, 1, 37, 52
1, 551520, Note_on_c, 1, 37, 0
1, 551520, Note_on_c, 1, 56, 0
1, 551520, Note_on_c, 1, 61, 83
1, 551520, Note_on_c, 1, 29, 64
1, 551640, Note_on_c, 1, 29, 0
1, 551640, Note_on_c, 1, 61, 0
1, 551640, Note_on_c, 1, 56, 63
1, 551640, Note_on_c, 1, 37, 52
1, 551760, Note_on_c, 1, 37, 0
1, 551760, Note_on_c, 1, 56, 0
1, 551760, Note_on_c, 1, 53, 63
1, 551760, Note_on_c, 1, 41, 52
1, 551880, Note_on_c, 1, 41, 0
1, 551880, Note_on_c, 1, 53, 0
1, 551880, Note_on_c, 1, 56, 63
1, 551880, Note_on_c, 1, 37, 52
1, 552000, Note_on_c, 1, 37, 0
1, 552000, Note_on_c, 1, 56, 0
1, 552000, Note_on_c, 1, 61, 75
1, 552000, Note_on_c, 1, 29, 58
1, 552120, Note_on_c, 1, 29, 0
1, 552120, Note_on_c, 1, 61, 0
1, 552120, Note_on_c, 1, 56, 62
1, 552120, Note_on_c, 1, 37, 51
1, 552240, Note_on_c, 1, 37, 0
1, 552240, Note_on_c, 1, 56, 0
1, 552240, Note_on_c, 1, 65, 83
1, 552240, Note_on_c, 1, 29, 68
1, 552360, Note_on_c, 1, 29, 0
1, 552360, Note_on_c, 1, 65, 0
1, 552360, Note_on_c, 1, 56, 63
1, 552360, Note_on_c, 1, 37, 52
1, 552480, Note_on_c, 1, 37, 0
1, 552480, Note_on_c, 1, 56, 0
1, 552480, Note_on_c, 1, 63, 80
1, 552480, Note_on_c, 1, 29, 64
1, 552600, Note_on_c, 1, 29, 0
1, 552600, Note_on_c, 1, 63, 0
1, 552600, Note_on_c, 1, 56, 66
1, 552600, Note_on_c, 1, 37, 52
1, 552720, Note_on_c, 1, 37, 0
1, 552720, Note_on_c, 1, 56, 0
1, 552720, Note_on_c, 1, 61, 80
1, 552720, Note_on_c, 1, 29, 62
1, 552840, Note_on_c, 1, 29, 0
1, 552840, Note_on_c, 1, 61, 0
1, 552840, Note_on_c, 1, 56, 64
1, 552840, Note_on_c, 1, 37, 52
1, 552960, Note_on_c, 1, 37, 0
1, 552960, Note_on_c, 1, 56, 0
1, 552960, Note_on_c, 1, 70, 93
1, 552960, Note_on_c, 1, 42, 107
1, 552960, Note_on_c, 1, 30, 91
1, 553080, Note_on_c, 1, 70, 0
1, 553080, Note_on_c, 1, 73, 74
1, 553200, Note_on_c, 1, 73, 0
1, 553200, Note_on_c, 1, 70, 76
1, 553320, Note_on_c, 1, 70, 0
1, 553320, Note_on_c, 1, 73, 67
1, 553440, Note_on_c, 1, 73, 0
1, 553440, Note_on_c, 1, 70, 72
1, 553560, Note_on_c, 1, 70, 0
1, 553560, Note_on_c, 1, 73, 67
1, 553680, Note_on_c, 1, 73, 0
1, 553680, Note_on_c, 1, 70, 72
1, 553800, Note_on_c, 1, 70, 0
1, 553800, Note_on_c, 1, 73, 67
1, 553920, Note_on_c, 1, 73, 0
1, 553920, Note_on_c, 1, 70, 72
1, 554040, Note_on_c, 1, 70, 0
1, 554040, Note_on_c, 1, 73, 67
1, 554160, Note_on_c, 1, 73, 0
1, 554160, Note_on_c, 1, 70, 72
1, 554280, Note_on_c, 1, 70, 0
1, 554280, Note_on_c, 1, 73, 67
1, 554400, Note_on_c, 1, 73, 0
1, 554400, Note_on_c, 1, 70, 76
1, 554520, Note_on_c, 1, 70, 0
1, 554520, Note_on_c, 1, 73, 67
1, 554640, Note_on_c, 1, 73, 0
1, 554640, Note_on_c, 1, 70, 76
1, 554760, Note_on_c, 1, 70, 0
1, 554760, Note_on_c, 1, 73, 67
1, 554880, Note_on_c, 1, 73, 0
1, 554880, Note_on_c, 1, 70, 76
1, 555000, Note_on_c, 1, 70, 0
1, 555000, Note_on_c, 1, 73, 67
1, 555120, Note_on_c, 1, 73, 0
1, 555120, Note_on_c, 1, 30, 0
1, 555120, Note_on_c, 1, 42, 0
1, 555120, Note_on_c, 1, 70, 95
1, 555120, Note_on_c, 1, 31, 74
1, 555120, Note_on_c, 1, 43, 88
1, 555240, Note_on_c, 1, 70, 0
1, 555240, Note_on_c, 1, 73, 78
1, 555360, Note_on_c, 1, 73, 0
1, 555360, Note_on_c, 1, 43, 0
1, 555360, Note_on_c, 1, 31, 0
1, 555360, Note_on_c, 1, 67, 89
1, 555360, Note_on_c, 1, 34, 72
1, 555480, Note_on_c, 1, 67, 0
1, 555480, Note_on_c, 1, 70, 78
1, 555600, Note_on_c, 1, 70, 0
1, 555600, Note_on_c, 1, 34, 0
1, 555600, Note_on_c, 1, 64, 84
1, 555600, Note_on_c, 1, 37, 82
1, 555720, Note_on_c, 1, 64, 0
1, 555720, Note_on_c, 1, 67, 77
1, 555840, Note_on_c, 1, 67, 0
1, 555840, Note_on_c, 1, 37, 0
1, 555840, Note_on_c, 1, 61, 82
1, 555840, Note_on_c, 1, 40, 95
1, 555960, Note_on_c, 1, 61, 0
1, 555960, Note_on_c, 1, 64, 70
1, 556080, Note_on_c, 1, 64, 0
1, 556080, Note_on_c, 1, 40, 0
1, 556080, Note_on_c, 1, 58, 81
1, 556080, Note_on_c, 1, 43, 82
1, 556200, Note_on_c, 1, 58, 0
1, 556200, Note_on_c, 1, 61, 71
1, 556320, Note_on_c, 1, 61, 0
1, 556320, Note_on_c, 1, 43, 0
1, 556320, Note_on_c, 1, 55, 82
1, 556320, Note_on_c, 1, 46, 82
1, 556440, Note_on_c, 1, 55, 0
1, 556440, Note_on_c, 1, 58, 68
1, 556560, Note_on_c, 1, 58, 0
1, 556560, Note_on_c, 1, 46, 0
1, 556560, Note_on_c, 1, 53, 81
1, 556560, Note_on_c, 1, 49, 85
1, 556680, Note_on_c, 1, 53, 0
1, 556680, Note_on_c, 1, 55, 70
1, 556790, Note_on_c, 1, 49, 0
1, 556800, Note_on_c, 1, 55, 0
1, 556800, Note_on_c, 1, 58, 80
1, 556800, Note_on_c, 1, 49, 83
1, 556920, Note_on_c, 1, 58, 0
1, 556920, Note_on_c, 1, 55, 70
1, 557030, Note_on_c, 1, 49, 0
1, 557040, Note_on_c, 1, 55, 0
1, 557040, Note_on_c, 1, 53, 80
1, 557040, Note_on_c, 1, 49, 83
1, 557160, Note_on_c, 1, 53, 0
1, 557160, Note_on_c, 1, 55, 69
1, 557270, Note_on_c, 1, 49, 0
1, 557280, Note_on_c, 1, 55, 0
1, 557280, Note_on_c, 1, 49, 97
1, 557400, Note_on_c, 1, 53, 70
1, 557520, Note_on_c, 1, 53, 0
1, 557520, Note_on_c, 1, 58, 80
1, 557640, Note_on_c, 1, 58, 0
1, 557640, Note_on_c, 1, 55, 69
1, 557760, Note_on_c, 1, 55, 0
1, 557760, Note_on_c, 1, 53, 77
1, 557880, Note_on_c, 1, 53, 0
1, 557880, Note_on_c, 1, 58, 70
1, 558000, Note_on_c, 1, 58, 0
1, 558000, Note_on_c, 1, 49, 0
1, 558000, Note_on_c, 1, 48, 89
1, 558120, Note_on_c, 1, 52, 69
1, 558240, Note_on_c, 1, 52, 0
1, 558240, Note_on_c, 1, 58, 80
1, 558360, Note_on_c, 1, 58, 0
1, 558360, Note_on_c, 1, 55, 69
1, 558480, Note_on_c, 1, 55, 0
1, 558480, Note_on_c, 1, 52, 78
1, 558600, Note_on_c, 1, 52, 0
1, 558600, Note_on_c, 1, 58, 69
1, 558720, Note_on_c, 1, 58, 0
1, 558720, Note_on_c, 1, 48, 0
1, 558720, Note_on_c, 1, 65, 83
1, 558720, Note_on_c, 1, 41, 64
1, 558840, Note_on_c, 1, 41, 0
1, 558840, Note_on_c, 1, 65, 0
1, 558840, Note_on_c, 1, 60, 66
1, 558840, Note_on_c, 1, 48, 52
1, 558960, Note_on_c, 1, 48, 0
1, 558960, Note_on_c, 1, 60, 0
1, 558960, Note_on_c, 1, 56, 66
1, 558960, Note_on_c, 1, 53, 52
1, 559080, Note_on_c, 1, 53, 0
1, 559080, Note_on_c, 1, 56, 0
1, 559080, Note_on_c, 1, 60, 66
1, 559080, Note_on_c, 1, 48, 52
1, 559200, Note_on_c, 1, 48, 0
1, 559200, Note_on_c, 1, 60, 0
1, 559200, Note_on_c, 1, 65, 80
1, 559200, Note_on_c, 1, 41, 58
1, 559320, Note_on_c, 1, 41, 0
1, 559320, Note_on_c, 1, 65, 0
1, 559320, Note_on_c, 1, 60, 64
1, 559320, Note_on_c, 1, 48, 51
1, 559440, Note_on_c, 1, 48, 0
1, 559440, Note_on_c, 1, 60, 0
1, 559440, Note_on_c, 1, 68, 84
1, 559440, Note_on_c, 1, 41, 68
1, 559560, Note_on_c, 1, 41, 0
1, 559560, Note_on_c, 1, 68, 0
1, 559560, Note_on_c, 1, 60, 66
1, 559560, Note_on_c, 1, 48, 52
1, 559680, Note_on_c, 1, 48, 0
1, 559680, Note_on_c, 1, 60, 0
1, 559680, Note_on_c, 1, 67, 83
1, 559680, Note_on_c, 1, 41, 64
1, 559800, Note_on_c, 1, 41, 0
1, 559800, Note_on_c, 1, 67, 0
1, 559800, Note_on_c, 1, 60, 66
1, 559800, Note_on_c, 1, 48, 52
1, 559920, Note_on_c, 1, 48, 0
1, 559920, Note_on_c, 1, 60, 0
1, 559920, Note_on_c, 1, 65, 81
1, 559920, Note_on_c, 1, 41, 62
1, 560040, Note_on_c, 1, 41, 0
1, 560040, Note_on_c, 1, 65, 0
1, 560040, Note_on_c, 1, 60, 66
1, 560040, Note_on_c, 1, 48, 52
1, 560160, Note_on_c, 1, 48, 0
1, 560160, Note_on_c, 1, 60, 0
1, 560160, Note_on_c, 1, 65, 83
1, 560160, Note_on_c, 1, 41, 64
1, 560280, Note_on_c, 1, 41, 0
1, 560280, Note_on_c, 1, 65, 0
1, 560280, Note_on_c, 1, 60, 63
1, 560280, Note_on_c, 1, 48, 52
1, 560400, Note_on_c, 1, 48, 0
1, 560400, Note_on_c, 1, 60, 0
1, 560400, Note_on_c, 1, 56, 63
1, 560400, Note_on_c, 1, 53, 52
1, 560520, Note_on_c, 1, 53, 0
1, 560520, Note_on_c, 1, 56, 0
1, 560520, Note_on_c, 1, 60, 63
1, 560520, Note_on_c, 1, 48, 52
1, 560640, Note_on_c, 1, 48, 0
1, 560640, Note_on_c, 1, 60, 0
1, 560640, Note_on_c, 1, 65, 80
1, 560640, Note_on_c, 1, 41, 58
1, 560760, Note_on_c, 1, 41, 0
1, 560760, Note_on_c, 1, 65, 0
1, 560760, Note_on_c, 1, 60, 62
1, 560760, Note_on_c, 1, 48, 51
1, 560880, Note_on_c, 1, 48, 0
1, 560880, Note_on_c, 1, 60, 0
1, 560880, Note_on_c, 1, 68, 83
1, 560880, Note_on_c, 1, 41, 68
1, 561000, Note_on_c, 1, 41, 0
1, 561000, Note_on_c, 1, 68, 0
1, 561000, Note_on_c, 1, 60, 63
1, 561000, Note_on_c, 1, 48, 52
1, 561120, Note_on_c, 1, 48, 0
1, 561120, Note_on_c, 1, 60, 0
1, 561120, Note_on_c, 1, 67, 80
1, 561120, Note_on_c, 1, 41, 64
1, 561240, Note_on_c, 1, 41, 0
1, 561240, Note_on_c, 1, 67, 0
1, 561240, Note_on_c, 1, 60, 66
1, 561240, Note_on_c, 1, 48, 52
1, 561360, Note_on_c, 1, 48, 0
1, 561360, Note_on_c, 1, 60, 0
1, 561360, Note_on_c, 1, 65, 80
1, 561360, Note_on_c, 1, 41, 62
1, 561480, Note_on_c, 1, 41, 0
1, 561480, Note_on_c, 1, 65, 0
1, 561480, Note_on_c, 1, 60, 64
1, 561480, Note_on_c, 1, 48, 52
1, 561600, Note_on_c, 1, 48, 0
1, 561600, Note_on_c, 1, 60, 0
1, 561600, Note_on_c, 1, 73, 83
1, 561600, Note_on_c, 1, 41, 64
1, 561720, Note_on_c, 1, 41, 0
1, 561720, Note_on_c, 1, 73, 0
1, 561720, Note_on_c, 1, 68, 66
1, 561720, Note_on_c, 1, 49, 52
1, 561840, Note_on_c, 1, 49, 0
1, 561840, Note_on_c, 1, 68, 0
1, 561840, Note_on_c, 1, 65, 66
1, 561840, Note_on_c, 1, 53, 52
1, 561960, Note_on_c, 1, 53, 0
1, 561960, Note_on_c, 1, 65, 0
1, 561960, Note_on_c, 1, 68, 66
1, 561960, Note_on_c, 1, 49, 52
1, 562080, Note_on_c, 1, 49, 0
1, 562080, Note_on_c, 1, 68, 0
1, 562080, Note_on_c, 1, 73, 80
1, 562080, Note_on_c, 1, 41, 58
1, 562200, Note_on_c, 1, 41, 0
1, 562200, Note_on_c, 1, 73, 0
1, 562200, Note_on_c, 1, 68, 64
1, 562200, Note_on_c, 1, 49, 51
1, 562320, Note_on_c, 1, 49, 0
1, 562320, Note_on_c, 1, 68, 0
1, 562320, Note_on_c, 1, 77, 84
1, 562320, Note_on_c, 1, 41, 68
1, 562440, Note_on_c, 1, 41, 0
1, 562440, Note_on_c, 1, 77, 0
1, 562440, Note_on_c, 1, 68, 66
1, 562440, Note_on_c, 1, 49, 52
1, 562560, Note_on_c, 1, 49, 0
1, 562560, Note_on_c, 1, 68, 0
1, 562560, Note_on_c, 1, 75, 83
1, 562560, Note_on_c, 1, 41, 64
1, 562680, Note_on_c, 1, 41, 0
1, 562680, Note_on_c, 1, 75, 0
1, 562680, Note_on_c, 1, 68, 66
1, 562680, Note_on_c, 1, 49, 52
1, 562800, Note_on_c, 1, 49, 0
1, 562800, Note_on_c, 1, 68, 0
1, 562800, Note_on_c, 1, 73, 81
1, 562800, Note_on_c, 1, 41, 62
1, 562920, Note_on_c, 1, 41, 0
1, 562920, Note_on_c, 1, 73, 0
1, 562920, Note_on_c, 1, 68, 66
1, 562920, Note_on_c, 1, 49, 52
1, 563040, Note_on_c, 1, 49, 0
1, 563040, Note_on_c, 1, 68, 0
1, 563040, Note_on_c, 1, 73, 83
1, 563040, Note_on_c, 1, 41, 64
1, 563160, Note_on_c, 1, 41, 0
1, 563160, Note_on_c, 1, 73, 0
1, 563160, Note_on_c, 1, 68, 63
1, 563160, Note_on_c, 1, 49, 52
1, 563280, Note_on_c, 1, 49, 0
1, 563280, Note_on_c, 1, 68, 0
1, 563280, Note_on_c, 1, 65, 63
1, 563280, Note_on_c, 1, 53, 52
1, 563400, Note_on_c, 1, 53, 0
1, 563400, Note_on_c, 1, 65, 0
1, 563400, Note_on_c, 1, 68, 63
1, 563400, Note_on_c, 1, 49, 52
1, 563520, Note_on_c, 1, 49, 0
1, 563520, Note_on_c, 1, 68, 0
1, 563520, Note_on_c, 1, 73, 80
1, 563520, Note_on_c, 1, 41, 58
1, 563640, Note_on_c, 1, 41, 0
1, 563640, Note_on_c, 1, 73, 0
1, 563640, Note_on_c, 1, 68, 62
1, 563640, Note_on_c, 1, 49, 51
1, 563760, Note_on_c, 1, 49, 0
1, 563760, Note_on_c, 1, 68, 0
1, 563760, Note_on_c, 1, 77, 83
1, 563760, Note_on_c, 1, 41, 68
1, 563880, Note_on_c, 1, 41, 0
1, 563880, Note_on_c, 1, 77, 0
1, 563880, Note_on_c, 1, 68, 63
1, 563880, Note_on_c, 1, 49, 52
1, 564000, Note_on_c, 1, 49, 0
1, 564000, Note_on_c, 1, 68, 0
1, 564000, Note_on_c, 1, 75, 80
1, 564000, Note_on_c, 1, 41, 64
1, 564120, Note_on_c, 1, 41, 0
1, 564120, Note_on_c, 1, 75, 0
1, 564120, Note_on_c, 1, 68, 66
1, 564120, Note_on_c, 1, 49, 52
1, 564240, Note_on_c, 1, 49, 0
1, 564240, Note_on_c, 1, 68, 0
1, 564240, Note_on_c, 1, 73, 80
1, 564240, Note_on_c, 1, 41, 62
1, 564360, Note_on_c, 1, 41, 0
1, 564360, Note_on_c, 1, 73, 0
1, 564360, Note_on_c, 1, 68, 64
1, 564360, Note_on_c, 1, 49, 52
1, 564480, Note_on_c, 1, 49, 0
1, 564480, Note_on_c, 1, 68, 0
1, 564480, Note_on_c, 1, 82, 93
1, 564480, Note_on_c, 1, 42, 90
1, 564480, Note_on_c, 1, 54, 106
1, 564600, Note_on_c, 1, 82, 0
1, 564600, Note_on_c, 1, 85, 75
1, 564720, Note_on_c, 1, 85, 0
1, 564720, Note_on_c, 1, 82, 80
1, 564840, Note_on_c, 1, 82, 0
1, 564840, Note_on_c, 1, 85, 69
1, 564960, Note_on_c, 1, 85, 0
1, 564960, Note_on_c, 1, 82, 77
1, 565080, Note_on_c, 1, 82, 0
1, 565080, Note_on_c, 1, 85, 69
1, 565200, Note_on_c, 1, 85, 0
1, 565200, Note_on_c, 1, 82, 78
1, 565320, Note_on_c, 1, 82, 0
1, 565320, Note_on_c, 1, 85, 69
1, 565440, Note_on_c, 1, 85, 0
1, 565440, Note_on_c, 1, 82, 74
1, 565560, Note_on_c, 1, 82, 0
1, 565560, Note_on_c, 1, 85, 69
1, 565680, Note_on_c, 1, 85, 0
1, 565680, Note_on_c, 1, 82, 74
1, 565800, Note_on_c, 1, 82, 0
1, 565800, Note_on_c, 1, 85, 69
1, 565920, Note_on_c, 1, 85, 0
1, 565920, Note_on_c, 1, 82, 74
1, 566040, Note_on_c, 1, 82, 0
1, 566040, Note_on_c, 1, 85, 69
1, 566160, Note_on_c, 1, 85, 0
1, 566160, Note_on_c, 1, 82, 74
1, 566280, Note_on_c, 1, 82, 0
1, 566280, Note_on_c, 1, 85, 69
1, 566400, Note_on_c, 1, 85, 0
1, 566400, Note_on_c, 1, 82, 74
1, 566520, Note_on_c, 1, 82, 0
1, 566520, Note_on_c, 1, 85, 69
1, 566640, Note_on_c, 1, 85, 0
1, 566640, Note_on_c, 1, 54, 0
1, 566640, Note_on_c, 1, 42, 0
1, 566640, Note_on_c, 1, 82, 75
1, 566640, Note_on_c, 1, 55, 88
1, 566640, Note_on_c, 1, 43, 59
1, 566760, Note_on_c, 1, 82, 0
1, 566760, Note_on_c, 1, 85, 69
1, 566880, Note_on_c, 1, 85, 0
1, 566880, Note_on_c, 1, 43, 0
1, 566880, Note_on_c, 1, 55, 0
1, 566880, Note_on_c, 1, 82, 77
1, 566880, Note_on_c, 1, 46, 58
1, 566880, Note_on_c, 1, 58, 72
1, 567000, Note_on_c, 1, 82, 0
1, 567000, Note_on_c, 1, 85, 69
1, 567120, Note_on_c, 1, 85, 0
1, 567120, Note_on_c, 1, 58, 0
1, 567120, Note_on_c, 1, 46, 0
1, 567120, Note_on_c, 1, 82, 77
1, 567120, Note_on_c, 1, 49, 63
1, 567120, Note_on_c, 1, 61, 82
1, 567240, Note_on_c, 1, 82, 0
1, 567240, Note_on_c, 1, 85, 69
1, 567360, Note_on_c, 1, 85, 0
1, 567360, Note_on_c, 1, 61, 0
1, 567360, Note_on_c, 1, 49, 0
1, 567360, Note_on_c, 1, 82, 82
1, 567360, Note_on_c, 1, 64, 95
1, 567360, Note_on_c, 1, 52, 75
1, 567480, Note_on_c, 1, 82, 0
1, 567480, Note_on_c, 1, 85, 70
1, 567600, Note_on_c, 1, 85, 0
1, 567600, Note_on_c, 1, 52, 0
1, 567600, Note_on_c, 1, 64, 0
1, 567600, Note_on_c, 1, 79, 81
1, 567600, Note_on_c, 1, 55, 63
1, 567600, Note_on_c, 1, 67, 82
1, 567720, Note_on_c, 1, 79, 0
1, 567720, Note_on_c, 1, 82, 71
1, 567840, Note_on_c, 1, 82, 0
1, 567840, Note_on_c, 1, 67, 0
1, 567840, Note_on_c, 1, 55, 0
1, 567840, Note_on_c, 1, 77, 82
1, 567840, Note_on_c, 1, 58, 63
1, 567840, Note_on_c, 1, 70, 82
1, 567960, Note_on_c, 1, 77, 0
1, 567960, Note_on_c, 1, 79, 68
1, 568080, Note_on_c, 1, 79, 0
1, 568080, Note_on_c, 1, 70, 0
1, 568080, Note_on_c, 1, 58, 0
1, 568080, Note_on_c, 1, 77, 81
1, 568080, Note_on_c, 1, 73, 85
1, 568080, Note_on_c, 1, 61, 68
1, 568200, Note_on_c, 1, 77, 0
1, 568200, Note_on_c, 1, 79, 70
1, 568310, Note_on_c, 1, 61, 0
1, 568310, Note_on_c, 1, 73, 0
1, 568320, Note_on_c, 1, 79, 0
1, 568320, Note_on_c, 1, 82, 80
1, 568320, Note_on_c, 1, 61, 64
1, 568320, Note_on_c, 1, 73, 83
1, 568440, Note_on_c, 1, 82, 0
1, 568440, Note_on_c, 1, 79, 70
1, 568550, Note_on_c, 1, 73, 0
1, 568550, Note_on_c, 1, 61, 0
1, 568560, Note_on_c, 1, 79, 0
1, 568560, Note_on_c, 1, 77, 80
1, 568560, Note_on_c, 1, 61, 64
1, 568560, Note_on_c, 1, 73, 83
1, 568680, Note_on_c, 1, 77, 0
1, 568680, Note_on_c, 1, 79, 69
1, 568790, Note_on_c, 1, 73, 0
1, 568790, Note_on_c, 1, 61, 0
1, 568800, Note_on_c, 1, 79, 0
1, 568800, Note_on_c, 1, 73, 102
1, 568800, Note_on_c, 1, 61, 80
1, 568920, Note_on_c, 1, 77, 72
1, 569040, Note_on_c, 1, 77, 0
1, 569040, Note_on_c, 1, 82, 82
1, 569160, Note_on_c, 1, 82, 0
1, 569160, Note_on_c, 1, 79, 70
1, 569280, Note_on_c, 1, 79, 0
1, 569280, Note_on_c, 1, 77, 77
1, 569400, Note_on_c, 1, 77, 0
1, 569400, Note_on_c, 1, 82, 69
1, 569520, Note_on_c, 1, 82, 0
1, 569520, Note_on_c, 1, 61, 0
1, 569520, Note_on_c, 1, 73, 0
1, 569520, Note_on_c, 1, 60, 69
1, 569520, Note_on_c, 1, 72, 86
1, 569640, Note_on_c, 1, 76, 67
1, 569760, Note_on_c, 1, 76, 0
1, 569760, Note_on_c, 1, 82, 75
1, 569880, Note_on_c, 1, 82, 0
1, 569880, Note_on_c, 1, 79, 64
1, 570000, Note_on_c, 1, 79, 0
1, 570000, Note_on_c, 1, 76, 72
1, 570120, Note_on_c, 1, 76, 0
1, 570120, Note_on_c, 1, 82, 62
1, 570240, Note_on_c, 1, 82, 0
1, 570240, Note_on_c, 1, 72, 0
1, 570240, Note_on_c, 1, 60, 0
1, 570240, Note_on_c, 1, 65, 102
1, 570360, Note_on_c, 1, 73, 72
1, 570480, Note_on_c, 1, 73, 0
1, 570480, Note_on_c, 1, 82, 82
1, 570600, Note_on_c, 1, 82, 0
1, 570600, Note_on_c, 1, 79, 70
1, 570720, Note_on_c, 1, 79, 0
1, 570720, Note_on_c, 1, 73, 77
1, 570840, Note_on_c, 1, 73, 0
1, 570840, Note_on_c, 1, 82, 69
1, 570960, Note_on_c, 1, 82, 0
1, 570960, Note_on_c, 1, 65, 0
1, 570960, Note_on_c, 1, 64, 86
1, 571080, Note_on_c, 1, 72, 67
1, 571200, Note_on_c, 1, 72, 0
1, 571200, Note_on_c, 1, 82, 75
1, 571320, Note_on_c, 1, 82, 0
1, 571320, Note_on_c, 1, 79, 64
1, 571440, Note_on_c, 1, 79, 0
1, 571440, Note_on_c, 1, 72, 72
1, 571560, Note_on_c, 1, 72, 0
1, 571560, Note_on_c, 1, 82, 62
1, 571680, Note_on_c, 1, 82, 0
1, 571680, Note_on_c, 1, 64, 0
1, 571680, Note_on_c, 1, 73, 102
1, 571800, Note_on_c, 1, 77, 72
1, 571920, Note_on_c, 1, 77, 0
1, 571920, Note_on_c, 1, 82, 82
1, 572040, Note_on_c, 1, 82, 0
1, 572040, Note_on_c, 1, 79, 70
1, 572160, Note_on_c, 1, 79, 0
1, 572160, Note_on_c, 1, 77, 77
1, 572280, Note_on_c, 1, 77, 0
1, 572280, Note_on_c, 1, 82, 69
1, 572400, Note_on_c, 1, 82, 0
1, 572400, Note_on_c, 1, 73, 0
1, 572400, Note_on_c, 1, 72, 86
1, 572520, Note_on_c, 1, 76, 67
1, 572640, Note_on_c, 1, 76, 0
1, 572640, Note_on_c, 1, 82, 75
1, 572760, Note_on_c, 1, 82, 0
1, 572760, Note_on_c, 1, 79, 64
1, 572880, Note_on_c, 1, 79, 0
1, 572880, Note_on_c, 1, 76, 72
1, 573000, Note_on_c, 1, 76, 0
1, 573000, Note_on_c, 1, 82, 62
1, 573120, Note_on_c, 1, 82, 0
1, 573120, Note_on_c, 1, 72, 0
1, 573120, Note_on_c, 1, 71, 97
1, 573240, Note_on_c, 1, 74, 91
1, 573360, Note_on_c, 1, 77, 95
1, 573480, Note_on_c, 1, 80, 87
1, 573600, Note_on_c, 1, 83, 83
1, 573720, Note_on_c, 1, 83, 0
1, 573720, Note_on_c, 1, 86, 79
1, 573840, Note_on_c, 1, 86, 0
1, 573840, Note_on_c, 1, 89, 87
1, 573960, Note_on_c, 1, 89, 0
1, 573960, Note_on_c, 1, 86, 79
1, 574080, Note_on_c, 1, 86, 0
1, 574080, Note_on_c, 1, 83, 86
1, 574200, Note_on_c, 1, 83, 0
1, 574200, Note_on_c, 1, 92, 83
1, 574320, Note_on_c, 1, 92, 0
1, 574320, Note_on_c, 1, 91, 84
1, 574440, Note_on_c, 1, 91, 0
1, 574440, Note_on_c, 1, 89, 79
1, 574560, Note_on_c, 1, 89, 0
1, 574560, Note_on_c, 1, 80, 0
1, 574560, Note_on_c, 1, 71, 0
1, 574560, Note_on_c, 1, 74, 0
1, 574560, Note_on_c, 1, 77, 0
1, 574560, Note_on_c, 1, 88, 79
1, 574560, Note_on_c, 1, 72, 85
1, 574680, Note_on_c, 1, 88, 0
1, 574680, Note_on_c, 1, 91, 74
1, 574680, Note_on_c, 1, 76, 77
1, 574800, Note_on_c, 1, 91, 0
1, 574800, Note_on_c, 1, 89, 79
1, 574800, Note_on_c, 1, 79, 77
1, 574920, Note_on_c, 1, 89, 0
1, 574920, Note_on_c, 1, 88, 72
1, 575040, Note_on_c, 1, 88, 0
1, 575040, Note_on_c, 1, 85, 73
1, 575160, Note_on_c, 1, 85, 0
1, 575160, Note_on_c, 1, 84, 72
1, 575280, Note_on_c, 1, 84, 0
1, 575280, Note_on_c, 1, 82, 78
1, 575400, Note_on_c, 1, 82, 0
1, 575400, Note_on_c, 1, 85, 73
1, 575520, Note_on_c, 1, 85, 0
1, 575520, Note_on_c, 1, 84, 75
1, 575640, Note_on_c, 1, 84, 0
1, 575640, Note_on_c, 1, 82, 72
1, 575760, Note_on_c, 1, 82, 0
1, 575760, Note_on_c, 1, 80, 71
1, 575880, Note_on_c, 1, 80, 0
1, 575880, Note_on_c, 1, 79, 70
1, 576000, Note_on_c, 1, 79, 0
1, 576000, Note_on_c, 1, 79, 0
1, 576000, Note_on_c, 1, 76, 0
1, 576000, Note_on_c, 1, 72, 0
1, 576000, Note_on_c, 1, 68, 41
1, 576000, Note_on_c, 1, 65, 41
1, 576120, Note_on_c, 1, 77, 39
1, 576240, Note_on_c, 1, 77, 0
1, 576240, Note_on_c, 1, 80, 41
1, 576360, Note_on_c, 1, 80, 0
1, 576360, Note_on_c, 1, 84, 43
1, 576480, Note_on_c, 1, 84, 0
1, 576480, Note_on_c, 1, 89, 45
1, 576600, Note_on_c, 1, 89, 0
1, 576600, Note_on_c, 1, 77, 41
1, 576720, Note_on_c, 1, 77, 0
1, 576720, Note_on_c, 1, 65, 0
1, 576720, Note_on_c, 1, 68, 0
1, 576720, Note_on_c, 1, 73, 40
1, 576720, Note_on_c, 1, 70, 40
1, 577080, Note_on_c, 1, 89, 45
1, 577200, Note_on_c, 1, 89, 0
1, 577200, Note_on_c, 1, 77, 41
1, 577320, Note_on_c, 1, 77, 0
1, 577320, Note_on_c, 1, 89, 45
1, 577440, Note_on_c, 1, 89, 0
1, 577440, Note_on_c, 1, 70, 0
1, 577440, Note_on_c, 1, 73, 0
1, 577440, Note_on_c, 1, 72, 41
1, 577440, Note_on_c, 1, 68, 41
1, 577800, Note_on_c, 1, 89, 44
1, 577920, Note_on_c, 1, 89, 0
1, 577920, Note_on_c, 1, 77, 41
1, 578040, Note_on_c, 1, 77, 0
1, 578040, Note_on_c, 1, 89, 44
1, 578160, Note_on_c, 1, 89, 0
1, 578160, Note_on_c, 1, 68, 0
1, 578160, Note_on_c, 1, 72, 0
1, 578160, Note_on_c, 1, 72, 55
1, 578160, Note_on_c, 1, 70, 55
1, 578160, Note_on_c, 1, 67, 55
1, 578520, Note_on_c, 1, 88, 44
1, 578640, Note_on_c, 1, 88, 0
1, 578640, Note_on_c, 1, 76, 41
1, 578760, Note_on_c, 1, 76, 0
1, 578760, Note_on_c, 1, 88, 45
1, 578880, Note_on_c, 1, 88, 0
1, 578880, Note_on_c, 1, 72, 0
1, 578880, Note_on_c, 1, 70, 0
1, 578880, Note_on_c, 1, 67, 0
1, 578880, Note_on_c, 1, 65, 41
1, 578880, Note_on_c, 1, 68, 41
1, 579000, Note_on_c, 1, 77, 39
1, 579120, Note_on_c, 1, 77, 0
1, 579120, Note_on_c, 1, 80, 41
1, 579240, Note_on_c, 1, 80, 0
1, 579240, Note_on_c, 1, 84, 43
1, 579360, Note_on_c, 1, 84, 0
1, 579360, Note_on_c, 1, 89, 45
1, 579480, Note_on_c, 1, 89, 0
1, 579480, Note_on_c, 1, 77, 41
1, 579600, Note_on_c, 1, 77, 0
1, 579600, Note_on_c, 1, 68, 0
1, 579600, Note_on_c, 1, 65, 0
1, 579600, Note_on_c, 1, 58, 40
1, 579600, Note_on_c, 1, 61, 40
1, 579960, Note_on_c, 1, 77, 45
1, 580080, Note_on_c, 1, 77, 0
1, 580080, Note_on_c, 1, 65, 41
1, 580200, Note_on_c, 1, 65, 0
1, 580200, Note_on_c, 1, 77, 45
1, 580320, Note_on_c, 1, 77, 0
1, 580320, Note_on_c, 1, 61, 0
1, 580320, Note_on_c, 1, 58, 0
1, 580320, Note_on_c, 1, 56, 41
1, 580320, Note_on_c, 1, 60, 41
1, 580680, Note_on_c, 1, 77, 44
1, 580800, Note_on_c, 1, 77, 0
1, 580800, Note_on_c, 1, 65, 41
1, 580920, Note_on_c, 1, 65, 0
1, 580920, Note_on_c, 1, 77, 44
1, 581040, Note_on_c, 1, 77, 0
1, 581040, Note_on_c, 1, 60, 0
1, 581040, Note_on_c, 1, 56, 0
1, 581040, Note_on_c, 1, 60, 55
1, 581040, Note_on_c, 1, 58, 55
1, 581040, Note_on_c, 1, 55, 55
1, 581400, Note_on_c, 1, 76, 44
1, 581520, Note_on_c, 1, 76, 0
1, 581520, Note_on_c, 1, 64, 41
1, 581640, Note_on_c, 1, 64, 0
1, 581640, Note_on_c, 1, 76, 45
1, 581760, Note_on_c, 1, 76, 0
1, 581760, Note_on_c, 1, 60, 0
1, 581760, Note_on_c, 1, 58, 0
1, 581760, Note_on_c, 1, 55, 0
1, 581760, Note_on_c, 1, 53, 41
1, 581760, Note_on_c, 1, 56, 41
1, 581880, Note_on_c, 1, 77, 39
1, 582000, Note_on_c, 1, 77, 0
1, 582000, Note_on_c, 1, 80, 41
1, 582120, Note_on_c, 1, 80, 0
1, 582120, Note_on_c, 1, 84, 43
1, 582240, Note_on_c, 1, 84, 0
1, 582240, Note_on_c, 1, 89, 45
1, 582360, Note_on_c, 1, 89, 0
1, 582360, Note_on_c, 1, 77, 41
1, 582480, Note_on_c, 1, 77, 0
1, 582480, Note_on_c, 1, 56, 0
1, 582480, Note_on_c, 1, 53, 0
1, 582480, Note_on_c, 1, 46, 40
1, 582480, Note_on_c, 1, 49, 40
1, 582840, Note_on_c, 1, 89, 45
1, 582960, Note_on_c, 1, 89, 0
1, 582960, Note_on_c, 1, 77, 41
1, 583080, Note_on_c, 1, 77, 0
1, 583080, Note_on_c, 1, 89, 45
1, 583200, Note_on_c, 1, 89, 0
1, 583200, Note_on_c, 1, 49, 0
1, 583200, Note_on_c, 1, 46, 0
1, 583200, Note_on_c, 1, 44, 41
1, 583200, Note_on_c, 1, 48, 41
1, 583560, Note_on_c, 1, 89, 44
1, 583680, Note_on_c, 1, 89, 0
1, 583680, Note_on_c, 1, 77, 41
1, 583800, Note_on_c, 1, 77, 0
1, 583800, Note_on_c, 1, 89, 44
1, 583920, Note_on_c, 1, 89, 0
1, 583920, Note_on_c, 1, 48, 0
1, 583920, Note_on_c, 1, 44, 0
1, 583920, Note_on_c, 1, 43, 55
1, 583920, Note_on_c, 1, 46, 55
1, 583920, Note_on_c, 1, 48, 55
1, 584280, Note_on_c, 1, 88, 44
1, 584400, Note_on_c, 1, 88, 0
1, 584400, Note_on_c, 1, 76, 41
1, 584520, Note_on_c, 1, 76, 0
1, 584520, Note_on_c, 1, 88, 45
1, 584640, Note_on_c, 1, 88, 0
1, 584640, Note_on_c, 1, 43, 0
1, 584640, Note_on_c, 1, 46, 0
1, 584640, Note_on_c, 1, 48, 0
1, 584640, Note_on_c, 1, 89, 44
1, 584640, Note_on_c, 1, 41, 44
1, 584760, Note_on_c, 1, 89, 0
1, 584760, Note_on_c, 1, 84, 41
1, 584880, Note_on_c, 1, 84, 0
1, 584880, Note_on_c, 1, 80, 40
1, 585000, Note_on_c, 1, 80, 0
1, 585000, Note_on_c, 1, 84, 36
1, 585120, Note_on_c, 1, 84, 0
1, 585120, Note_on_c, 1, 89, 39
1, 585240, Note_on_c, 1, 89, 0
1, 585240, Note_on_c, 1, 84, 36
1, 585360, Note_on_c, 1, 84, 0
1, 585360, Note_on_c, 1, 80, 42
1, 585480, Note_on_c, 1, 80, 0
1, 585480, Note_on_c, 1, 84, 38
1, 585600, Note_on_c, 1, 84, 0
1, 585600, Note_on_c, 1, 89, 38
1, 585720, Note_on_c, 1, 89, 0
1, 585720, Note_on_c, 1, 84, 34
1, 585840, Note_on_c, 1, 84, 0
1, 585840, Note_on_c, 1, 80, 37
1, 585960, Note_on_c, 1, 80, 0
1, 585960, Note_on_c, 1, 84, 33
1, 586080, Note_on_c, 1, 84, 0
1, 586080, Note_on_c, 1, 41, 0
1, 586080, Note_on_c, 1, 89, 39
1, 586080, Note_on_c, 1, 36, 36
1, 586200, Note_on_c, 1, 89, 0
1, 586200, Note_on_c, 1, 84, 36
1, 586320, Note_on_c, 1, 84, 0
1, 586320, Note_on_c, 1, 80, 36
1, 586440, Note_on_c, 1, 80, 0
1, 586440, Note_on_c, 1, 84, 32
1, 586560, Note_on_c, 1, 84, 0
1, 586560, Note_on_c, 1, 89, 35
1, 586680, Note_on_c, 1, 89, 0
1, 586680, Note_on_c, 1, 84, 31
1, 586800, Note_on_c, 1, 84, 0
1, 586800, Note_on_c, 1, 36, 0
1, 586800, Note_on_c, 1, 89, 36
1, 586800, Note_on_c, 1, 32, 30
1, 586920, Note_on_c, 1, 89, 0
1, 586920, Note_on_c, 1, 84, 34
1, 587040, Note_on_c, 1, 84, 0
1, 587040, Note_on_c, 1, 89, 34
1, 587160, Note_on_c, 1, 89, 0
1, 587160, Note_on_c, 1, 84, 30
1, 587280, Note_on_c, 1, 84, 0
1, 587280, Note_on_c, 1, 89, 33
1, 587400, Note_on_c, 1, 89, 0
1, 587400, Note_on_c, 1, 84, 30
1, 587520, Note_on_c, 1, 84, 0
1, 587520, Note_on_c, 1, 32, 0
1, 587520, Note_on_c, 1, 89, 38
1, 587520, Note_on_c, 1, 29, 24
1, 587640, Note_on_c, 1, 89, 0
1, 587640, Note_on_c, 1, 84, 30
1, 587760, Note_on_c, 1, 84, 0
1, 587760, Note_on_c, 1, 80, 37
1, 587880, Note_on_c, 1, 80, 0
1, 587880, Note_on_c, 1, 84, 30
1, 588000, Note_on_c, 1, 84, 0
1, 588000, Note_on_c, 1, 89, 33
1, 588120, Note_on_c, 1, 89, 0
1, 588120, Note_on_c, 1, 84, 30
1, 588240, Note_on_c, 1, 84, 0
1, 588240, Note_on_c, 1, 80, 36
1, 588360, Note_on_c, 1, 80, 0
1, 588360, Note_on_c, 1, 84, 30
1, 588480, Note_on_c, 1, 84, 0
1, 588480, Note_on_c, 1, 89, 35
1, 588600, Note_on_c, 1, 89, 0
1, 588600, Note_on_c, 1, 84, 30
1, 588720, Note_on_c, 1, 84, 0
1, 588720, Note_on_c, 1, 80, 31
1, 588840, Note_on_c, 1, 80, 0
1, 588840, Note_on_c, 1, 84, 30
1, 588960, Note_on_c, 1, 84, 0
1, 588960, Note_on_c, 1, 89, 38
1, 589080, Note_on_c, 1, 89, 0
1, 589080, Note_on_c, 1, 84, 30
1, 589200, Note_on_c, 1, 84, 0
1, 589200, Note_on_c, 1, 80, 33
1, 589320, Note_on_c, 1, 80, 0
1, 589320, Note_on_c, 1, 84, 29
1, 589440, Note_on_c, 1, 84, 0
1, 589440, Note_on_c, 1, 89, 33
1, 589560, Note_on_c, 1, 89, 0
1, 589560, Note_on_c, 1, 84, 28
1, 589680, Note_on_c, 1, 84, 0
1, 589680, Note_on_c, 1, 29, 0
1, 589680, Note_on_c, 1, 89, 37
1, 589680, Note_on_c, 1, 32, 29
1, 589800, Note_on_c, 1, 89, 0
1, 589800, Note_on_c, 1, 84, 33
1, 589920, Note_on_c, 1, 84, 0
1, 589920, Note_on_c, 1, 80, 34
1, 590040, Note_on_c, 1, 80, 0
1, 590040, Note_on_c, 1, 84, 29
1, 590160, Note_on_c, 1, 84, 0
1, 590160, Note_on_c, 1, 89, 33
1, 590280, Note_on_c, 1, 89, 0
1, 590280, Note_on_c, 1, 32, 0
1, 590280, Note_on_c, 1, 84, 29
1, 590280, Note_on_c, 1, 36, 26
1, 590400, Note_on_c, 1, 36, 0
1, 590400, Note_on_c, 1, 84, 0
1, 590400, Note_on_c, 1, 89, 38
1, 590400, Note_on_c, 1, 41, 29
1, 590520, Note_on_c, 1, 89, 0
1, 590520, Note_on_c, 1, 84, 30
1, 590640, Note_on_c, 1, 84, 0
1, 590640, Note_on_c, 1, 80, 37
1, 590760, Note_on_c, 1, 80, 0
1, 590760, Note_on_c, 1, 84, 30
1, 590880, Note_on_c, 1, 84, 0
1, 590880, Note_on_c, 1, 89, 33
1, 591000, Note_on_c, 1, 89, 0
1, 591000, Note_on_c, 1, 84, 30
1, 591120, Note_on_c, 1, 84, 0
1, 591120, Note_on_c, 1, 41, 0
1, 591120, Note_on_c, 1, 89, 36
1, 591120, Note_on_c, 1, 44, 29
1, 591240, Note_on_c, 1, 89, 0
1, 591240, Note_on_c, 1, 84, 30
1, 591360, Note_on_c, 1, 84, 0
1, 591360, Note_on_c, 1, 80, 35
1, 591480, Note_on_c, 1, 80, 0
1, 591480, Note_on_c, 1, 84, 30
1, 591600, Note_on_c, 1, 84, 0
1, 591600, Note_on_c, 1, 89, 31
1, 591720, Note_on_c, 1, 89, 0
1, 591720, Note_on_c, 1, 44, 0
1, 591720, Note_on_c, 1, 84, 30
1, 591720, Note_on_c, 1, 48, 26
1, 591840, Note_on_c, 1, 48, 0
1, 591840, Note_on_c, 1, 84, 0
1, 591840, Note_on_c, 1, 89, 38
1, 591840, Note_on_c, 1, 53, 29
1, 591960, Note_on_c, 1, 89, 0
1, 591960, Note_on_c, 1, 84, 30
1, 592080, Note_on_c, 1, 84, 0
1, 592080, Note_on_c, 1, 80, 33
1, 592200, Note_on_c, 1, 80, 0
1, 592200, Note_on_c, 1, 84, 29
1, 592320, Note_on_c, 1, 84, 0
1, 592320, Note_on_c, 1, 89, 33
1, 592440, Note_on_c, 1, 89, 0
1, 592440, Note_on_c, 1, 84, 28
1, 592560, Note_on_c, 1, 84, 0
1, 592560, Note_on_c, 1, 53, 0
1, 592560, Note_on_c, 1, 89, 37
1, 592560, Note_on_c, 1, 41, 28
1, 592680, Note_on_c, 1, 89, 0
1, 592680, Note_on_c, 1, 84, 33
1, 592800, Note_on_c, 1, 84, 0
1, 592800, Note_on_c, 1, 80, 34
1, 592920, Note_on_c, 1, 80, 0
1, 592920, Note_on_c, 1, 84, 29
1, 593040, Note_on_c, 1, 84, 0
1, 593040, Note_on_c, 1, 89, 33
1, 593160, Note_on_c, 1, 89, 0
1, 593160, Note_on_c, 1, 84, 29
1, 593280, Note_on_c, 1, 84, 0
1, 593280, Note_on_c, 1, 41, 0
1, 593280, Note_on_c, 1, 87, 38
1, 593280, Note_on_c, 1, 42, 34
1, 593400, Note_on_c, 1, 87, 0
1, 593400, Note_on_c, 1, 84, 30
1, 593520, Note_on_c, 1, 84, 0
1, 593520, Note_on_c, 1, 80, 37
1, 593640, Note_on_c, 1, 80, 0
1, 593640, Note_on_c, 1, 84, 30
1, 593760, Note_on_c, 1, 84, 0
1, 593760, Note_on_c, 1, 87, 33
1, 593880, Note_on_c, 1, 87, 0
1, 593880, Note_on_c, 1, 84, 30
1, 594000, Note_on_c, 1, 84, 0
1, 594000, Note_on_c, 1, 80, 36
1, 594120, Note_on_c, 1, 80, 0
1, 594120, Note_on_c, 1, 84, 30
1, 594240, Note_on_c, 1, 84, 0
1, 594240, Note_on_c, 1, 87, 35
1, 594360, Note_on_c, 1, 87, 0
1, 594360, Note_on_c, 1, 84, 30
1, 594480, Note_on_c, 1, 84, 0
1, 594480, Note_on_c, 1, 80, 31
1, 594600, Note_on_c, 1, 80, 0
1, 594600, Note_on_c, 1, 84, 30
1, 594720, Note_on_c, 1, 84, 0
1, 594720, Note_on_c, 1, 87, 38
1, 594840, Note_on_c, 1, 87, 0
1, 594840, Note_on_c, 1, 84, 30
1, 594960, Note_on_c, 1, 84, 0
1, 594960, Note_on_c, 1, 80, 33
1, 595080, Note_on_c, 1, 80, 0
1, 595080, Note_on_c, 1, 84, 29
1, 595200, Note_on_c, 1, 84, 0
1, 595200, Note_on_c, 1, 87, 33
1, 595320, Note_on_c, 1, 87, 0
1, 595320, Note_on_c, 1, 84, 28
1, 595440, Note_on_c, 1, 84, 0
1, 595440, Note_on_c, 1, 42, 0
1, 595440, Note_on_c, 1, 87, 37
1, 595440, Note_on_c, 1, 48, 33
1, 595560, Note_on_c, 1, 87, 0
1, 595560, Note_on_c, 1, 84, 33
1, 595680, Note_on_c, 1, 84, 0
1, 595680, Note_on_c, 1, 80, 34
1, 595800, Note_on_c, 1, 80, 0
1, 595800, Note_on_c, 1, 84, 29
1, 595920, Note_on_c, 1, 84, 0
1, 595920, Note_on_c, 1, 87, 33
1, 596040, Note_on_c, 1, 87, 0
1, 596040, Note_on_c, 1, 48, 0
1, 596040, Note_on_c, 1, 84, 29
1, 596040, Note_on_c, 1, 51, 28
1, 596160, Note_on_c, 1, 51, 0
1, 596160, Note_on_c, 1, 84, 0
1, 596160, Note_on_c, 1, 87, 38
1, 596160, Note_on_c, 1, 54, 33
1, 596280, Note_on_c, 1, 87, 0
1, 596280, Note_on_c, 1, 84, 30
1, 596400, Note_on_c, 1, 84, 0
1, 596400, Note_on_c, 1, 80, 37
1, 596520, Note_on_c, 1, 80, 0
1, 596520, Note_on_c, 1, 84, 30
1, 596640, Note_on_c, 1, 84, 0
1, 596640, Note_on_c, 1, 87, 33
1, 596760, Note_on_c, 1, 87, 0
1, 596760, Note_on_c, 1, 84, 30
1, 596880, Note_on_c, 1, 84, 0
1, 596880, Note_on_c, 1, 54, 0
1, 596880, Note_on_c, 1, 87, 36
1, 596880, Note_on_c, 1, 60, 33
1, 597000, Note_on_c, 1, 87, 0
1, 597000, Note_on_c, 1, 84, 30
1, 597120, Note_on_c, 1, 84, 0
1, 597120, Note_on_c, 1, 80, 35
1, 597240, Note_on_c, 1, 80, 0
1, 597240, Note_on_c, 1, 84, 30
1, 597360, Note_on_c, 1, 84, 0
1, 597360, Note_on_c, 1, 87, 31
1, 597480, Note_on_c, 1, 87, 0
1, 597480, Note_on_c, 1, 60, 0
1, 597480, Note_on_c, 1, 84, 30
1, 597480, Note_on_c, 1, 63, 28
1, 597600, Note_on_c, 1, 63, 0
1, 597600, Note_on_c, 1, 84, 0
1, 597600, Note_on_c, 1, 87, 38
1, 597600, Note_on_c, 1, 66, 33
1, 597720, Note_on_c, 1, 87, 0
1, 597720, Note_on_c, 1, 84, 30
1, 597840, Note_on_c, 1, 84, 0
1, 597840, Note_on_c, 1, 80, 33
1, 597960, Note_on_c, 1, 80, 0
1, 597960, Note_on_c, 1, 84, 29
1, 598080, Note_on_c, 1, 84, 0
1, 598080, Note_on_c, 1, 87, 33
1, 598200, Note_on_c, 1, 87, 0
1, 598200, Note_on_c, 1, 84, 28
1, 598320, Note_on_c, 1, 84, 0
1, 598320, Note_on_c, 1, 66, 0
1, 598320, Note_on_c, 1, 87, 37
1, 598320, Note_on_c, 1, 54, 30
1, 598440, Note_on_c, 1, 87, 0
1, 598440, Note_on_c, 1, 84, 33
1, 598560, Note_on_c, 1, 84, 0
1, 598560, Note_on_c, 1, 80, 34
1, 598680, Note_on_c, 1, 80, 0
1, 598680, Note_on_c, 1, 84, 29
1, 598800, Note_on_c, 1, 84, 0
1, 598800, Note_on_c, 1, 87, 33
1, 598920, Note_on_c, 1, 87, 0
1, 598920, Note_on_c, 1, 84, 29
1, 599040, Note_on_c, 1, 84, 0
1, 599040, Note_on_c, 1, 54, 0
1, 599040, Note_on_c, 1, 89, 38
1, 599040, Note_on_c, 1, 53, 33
1, 599160, Note_on_c, 1, 89, 0
1, 599160, Note_on_c, 1, 85, 30
1, 599280, Note_on_c, 1, 85, 0
1, 599280, Note_on_c, 1, 80, 37
1, 599400, Note_on_c, 1, 80, 0
1, 599400, Note_on_c, 1, 85, 30
1, 599520, Note_on_c, 1, 85, 0
1, 599520, Note_on_c, 1, 89, 33
1, 599640, Note_on_c, 1, 89, 0
1, 599640, Note_on_c, 1, 85, 31
1, 599760, Note_on_c, 1, 85, 0
1, 599760, Note_on_c, 1, 53, 0
1, 599760, Note_on_c, 1, 89, 37
1, 599760, Note_on_c, 1, 56, 34
1, 599880, Note_on_c, 1, 89, 0
1, 599880, Note_on_c, 1, 85, 30
1, 600000, Note_on_c, 1, 85, 0
1, 600000, Note_on_c, 1, 80, 36
1, 600120, Note_on_c, 1, 80, 0
1, 600120, Note_on_c, 1, 85, 31
1, 600240, Note_on_c, 1, 85, 0
1, 600240, Note_on_c, 1, 89, 34
1, 600360, Note_on_c, 1, 89, 0
1, 600360, Note_on_c, 1, 56, 0
1, 600360, Note_on_c, 1, 85, 33
1, 600360, Note_on_c, 1, 61, 30
1, 600480, Note_on_c, 1, 61, 0
1, 600480, Note_on_c, 1, 85, 0
1, 600480, Note_on_c, 1, 89, 40
1, 600480, Note_on_c, 1, 65, 36
1, 600600, Note_on_c, 1, 89, 0
1, 600600, Note_on_c, 1, 85, 33
1, 600720, Note_on_c, 1, 85, 0
1, 600720, Note_on_c, 1, 80, 35
1, 600840, Note_on_c, 1, 80, 0
1, 600840, Note_on_c, 1, 85, 31
1, 600960, Note_on_c, 1, 85, 0
1, 600960, Note_on_c, 1, 89, 35
1, 601080, Note_on_c, 1, 89, 0
1, 601080, Note_on_c, 1, 85, 30
1, 601200, Note_on_c, 1, 85, 0
1, 601200, Note_on_c, 1, 65, 0
1, 601200, Note_on_c, 1, 89, 40
1, 601200, Note_on_c, 1, 53, 35
1, 601320, Note_on_c, 1, 89, 0
1, 601320, Note_on_c, 1, 85, 36
1, 601440, Note_on_c, 1, 85, 0
1, 601440, Note_on_c, 1, 80, 37
1, 601560, Note_on_c, 1, 80, 0
1, 601560, Note_on_c, 1, 85, 33
1, 601680, Note_on_c, 1, 85, 0
1, 601680, Note_on_c, 1, 89, 36
1, 601800, Note_on_c, 1, 89, 0
1, 601800, Note_on_c, 1, 85, 33
1, 601920, Note_on_c, 1, 85, 0
1, 601920, Note_on_c, 1, 53, 0
1, 601920, Note_on_c, 1, 90, 40
1, 601920, Note_on_c, 1, 51, 40
1, 602040, Note_on_c, 1, 90, 0
1, 602040, Note_on_c, 1, 84, 35
1, 602160, Note_on_c, 1, 84, 0
1, 602160, Note_on_c, 1, 80, 40
1, 602280, Note_on_c, 1, 80, 0
1, 602280, Note_on_c, 1, 84, 35
1, 602400, Note_on_c, 1, 84, 0
1, 602400, Note_on_c, 1, 90, 37
1, 602520, Note_on_c, 1, 90, 0
1, 602520, Note_on_c, 1, 51, 0
1, 602520, Note_on_c, 1, 84, 36
1, 602520, Note_on_c, 1, 54, 36
1, 602640, Note_on_c, 1, 54, 0
1, 602640, Note_on_c, 1, 84, 0
1, 602640, Note_on_c, 1, 90, 42
1, 602640, Note_on_c, 1, 56, 42
1, 602760, Note_on_c, 1, 90, 0
1, 602760, Note_on_c, 1, 84, 35
1, 602880, Note_on_c, 1, 84, 0
1, 602880, Note_on_c, 1, 80, 41
1, 603000, Note_on_c, 1, 80, 0
1, 603000, Note_on_c, 1, 84, 37
1, 603120, Note_on_c, 1, 84, 0
1, 603120, Note_on_c, 1, 90, 38
1, 603240, Note_on_c, 1, 90, 0
1, 603240, Note_on_c, 1, 56, 0
1, 603240, Note_on_c, 1, 84, 37
1, 603240, Note_on_c, 1, 60, 38
1, 603360, Note_on_c, 1, 60, 0
1, 603360, Note_on_c, 1, 84, 0
1, 603360, Note_on_c, 1, 90, 44
1, 603360, Note_on_c, 1, 63, 44
1, 603480, Note_on_c, 1, 90, 0
1, 603480, Note_on_c, 1, 84, 36
1, 603600, Note_on_c, 1, 84, 0
1, 603600, Note_on_c, 1, 80, 44
1, 603720, Note_on_c, 1, 80, 0
1, 603720, Note_on_c, 1, 84, 38
1, 603840, Note_on_c, 1, 84, 0
1, 603840, Note_on_c, 1, 90, 39
1, 603960, Note_on_c, 1, 90, 0
1, 603960, Note_on_c, 1, 63, 0
1, 603960, Note_on_c, 1, 84, 38
1, 603960, Note_on_c, 1, 66, 39
1, 604080, Note_on_c, 1, 66, 0
1, 604080, Note_on_c, 1, 84, 0
1, 604080, Note_on_c, 1, 90, 45
1, 604080, Note_on_c, 1, 68, 47
1, 604200, Note_on_c, 1, 90, 0
1, 604200, Note_on_c, 1, 87, 38
1, 604320, Note_on_c, 1, 87, 0
1, 604320, Note_on_c, 1, 80, 44
1, 604440, Note_on_c, 1, 80, 0
1, 604440, Note_on_c, 1, 87, 39
1, 604560, Note_on_c, 1, 87, 0
1, 604560, Note_on_c, 1, 90, 39
1, 604680, Note_on_c, 1, 90, 0
1, 604680, Note_on_c, 1, 68, 0
1, 604680, Note_on_c, 1, 87, 39
1, 604680, Note_on_c, 1, 72, 42
1, 604800, Note_on_c, 1, 72, 0
1, 604800, Note_on_c, 1, 87, 0
1, 604800, Note_on_c, 1, 89, 55
1, 604800, Note_on_c, 1, 61, 33
1, 605040, Note_on_c, 1, 61, 0
1, 605040, Note_on_c, 1, 65, 24
1, 605040, Note_on_c, 1, 68, 24
1, 605040, Note_on_c, 1, 73, 30
1, 605280, Note_on_c, 1, 73, 0
1, 605280, Note_on_c, 1, 89, 0
1, 605280, Note_on_c, 1, 65, 0
1, 605280, Note_on_c, 1, 68, 0
1, 605280, Note_on_c, 1, 61, 31
1, 605520, Note_on_c, 1, 61, 0
1, 605520, Note_on_c, 1, 65, 26
1, 605520, Note_on_c, 1, 68, 26
1, 605520, Note_on_c, 1, 73, 33
1, 605760, Note_on_c, 1, 73, 0
1, 605760, Note_on_c, 1, 68, 0
1, 605760, Note_on_c, 1, 65, 0
1, 605760, Note_on_c, 1, 61, 31
1, 606000, Note_on_c, 1, 61, 0
1, 606000, Note_on_c, 1, 65, 24
1, 606000, Note_on_c, 1, 68, 24
1, 606000, Note_on_c, 1, 73, 31
1, 606240, Note_on_c, 1, 73, 0
1, 606240, Note_on_c, 1, 68, 0
1, 606240, Note_on_c, 1, 65, 0
1, 606240, Note_on_c, 1, 61, 33
1, 606480, Note_on_c, 1, 61, 0
1, 606480, Note_on_c, 1, 65, 24
1, 606480, Note_on_c, 1, 68, 24
1, 606480, Note_on_c, 1, 73, 31
1, 606720, Note_on_c, 1, 73, 0
1, 606720, Note_on_c, 1, 68, 0
1, 606720, Note_on_c, 1, 65, 0
1, 606720, Note_on_c, 1, 61, 31
1, 606960, Note_on_c, 1, 61, 0
1, 606960, Note_on_c, 1, 77, 62
1, 606960, Note_on_c, 1, 65, 26
1, 606960, Note_on_c, 1, 73, 33
1, 606960, Note_on_c, 1, 68, 26
1, 607200, Note_on_c, 1, 68, 0
1, 607200, Note_on_c, 1, 73, 0
1, 607200, Note_on_c, 1, 65, 0
1, 607200, Note_on_c, 1, 61, 31
1, 607440, Note_on_c, 1, 61, 0
1, 607440, Note_on_c, 1, 65, 25
1, 607440, Note_on_c, 1, 68, 25
1, 607440, Note_on_c, 1, 73, 32
1, 607560, Note_on_c, 1, 77, 0
1, 607560, Note_on_c, 1, 80, 57
1, 607680, Note_on_c, 1, 80, 0
1, 607680, Note_on_c, 1, 73, 0
1, 607680, Note_on_c, 1, 68, 0
1, 607680, Note_on_c, 1, 65, 0
1, 607680, Note_on_c, 1, 85, 66
1, 607680, Note_on_c, 1, 61, 33
1, 607920, Note_on_c, 1, 61, 0
1, 607920, Note_on_c, 1, 65, 24
1, 607920, Note_on_c, 1, 68, 24
1, 607920, Note_on_c, 1, 73, 30
1, 608160, Note_on_c, 1, 73, 0
1, 608160, Note_on_c, 1, 68, 0
1, 608160, Note_on_c, 1, 65, 0
1, 608160, Note_on_c, 1, 61, 31
1, 608400, Note_on_c, 1, 61, 0
1, 608400, Note_on_c, 1, 85, 0
1, 608400, Note_on_c, 1, 89, 62
1, 608400, Note_on_c, 1, 65, 26
1, 608400, Note_on_c, 1, 68, 26
1, 608400, Note_on_c, 1, 73, 33
1, 608640, Note_on_c, 1, 73, 0
1, 608640, Note_on_c, 1, 68, 0
1, 608640, Note_on_c, 1, 65, 0
1, 608640, Note_on_c, 1, 61, 31
1, 608880, Note_on_c, 1, 61, 0
1, 608880, Note_on_c, 1, 68, 24
1, 608880, Note_on_c, 1, 73, 31
1, 608880, Note_on_c, 1, 65, 24
1, 609000, Note_on_c, 1, 89, 0
1, 609000, Note_on_c, 1, 85, 55
1, 609120, Note_on_c, 1, 85, 0
1, 609120, Note_on_c, 1, 65, 0
1, 609120, Note_on_c, 1, 73, 0
1, 609120, Note_on_c, 1, 68, 0
1, 609120, Note_on_c, 1, 84, 63
1, 609120, Note_on_c, 1, 63, 33
1, 609360, Note_on_c, 1, 63, 0
1, 609360, Note_on_c, 1, 66, 24
1, 609360, Note_on_c, 1, 68, 24
1, 609360, Note_on_c, 1, 75, 31
1, 609600, Note_on_c, 1, 75, 0
1, 609600, Note_on_c, 1, 68, 0
1, 609600, Note_on_c, 1, 66, 0
1, 609600, Note_on_c, 1, 63, 31
1, 609840, Note_on_c, 1, 63, 0
1, 609840, Note_on_c, 1, 84, 0
1, 609840, Note_on_c, 1, 87, 66
1, 609840, Note_on_c, 1, 68, 26
1, 609840, Note_on_c, 1, 66, 26
1, 609840, Note_on_c, 1, 75, 33
1, 610080, Note_on_c, 1, 75, 0
1, 610080, Note_on_c, 1, 66, 0
1, 610080, Note_on_c, 1, 68, 0
1, 610080, Note_on_c, 1, 63, 31
1, 610320, Note_on_c, 1, 63, 0
1, 610320, Note_on_c, 1, 66, 25
1, 610320, Note_on_c, 1, 68, 25
1, 610320, Note_on_c, 1, 75, 32
1, 610440, Note_on_c, 1, 87, 0
1, 610440, Note_on_c, 1, 84, 55
1, 610560, Note_on_c, 1, 84, 0
1, 610560, Note_on_c, 1, 75, 0
1, 610560, Note_on_c, 1, 68, 0
1, 610560, Note_on_c, 1, 66, 0
1, 610560, Note_on_c, 1, 85, 66
1, 610560, Note_on_c, 1, 65, 33
1, 610800, Note_on_c, 1, 65, 0
1, 610800, Note_on_c, 1, 68, 24
1, 610800, Note_on_c, 1, 77, 30
1, 610800, Note_on_c, 1, 73, 24
1, 611040, Note_on_c, 1, 73, 0
1, 611040, Note_on_c, 1, 77, 0
1, 611040, Note_on_c, 1, 68, 0
1, 611040, Note_on_c, 1, 65, 31
1, 611280, Note_on_c, 1, 65, 0
1, 611280, Note_on_c, 1, 85, 0
1, 611280, Note_on_c, 1, 80, 59
1, 611280, Note_on_c, 1, 77, 33
1, 611280, Note_on_c, 1, 73, 26
1, 611280, Note_on_c, 1, 68, 26
1, 611520, Note_on_c, 1, 68, 0
1, 611520, Note_on_c, 1, 73, 0
1, 611520, Note_on_c, 1, 77, 0
1, 611520, Note_on_c, 1, 65, 31
1, 611760, Note_on_c, 1, 65, 0
1, 611760, Note_on_c, 1, 68, 24
1, 611760, Note_on_c, 1, 77, 31
1, 611760, Note_on_c, 1, 73, 24
1, 612000, Note_on_c, 1, 73, 0
1, 612000, Note_on_c, 1, 77, 0
1, 612000, Note_on_c, 1, 68, 0
1, 612000, Note_on_c, 1, 65, 33
1, 612240, Note_on_c, 1, 65, 0
1, 612240, Note_on_c, 1, 77, 31
1, 612240, Note_on_c, 1, 68, 24
1, 612240, Note_on_c, 1, 73, 24
1, 612480, Note_on_c, 1, 73, 0
1, 612480, Note_on_c, 1, 68, 0
1, 612480, Note_on_c, 1, 77, 0
1, 612480, Note_on_c, 1, 65, 31
1, 612720, Note_on_c, 1, 65, 0
1, 612720, Note_on_c, 1, 80, 0
1, 612720, Note_on_c, 1, 77, 68
1, 612720, Note_on_c, 1, 73, 36
1, 612720, Note_on_c, 1, 68, 36
1, 612960, Note_on_c, 1, 68, 0
1, 612960, Note_on_c, 1, 73, 0
1, 612960, Note_on_c, 1, 68, 34
1, 613200, Note_on_c, 1, 68, 0
1, 613200, Note_on_c, 1, 68, 35
1, 613200, Note_on_c, 1, 73, 35
1, 613320, Note_on_c, 1, 77, 0
1, 613320, Note_on_c, 1, 80, 62
1, 613440, Note_on_c, 1, 80, 0
1, 613440, Note_on_c, 1, 73, 0
1, 613440, Note_on_c, 1, 68, 0
1, 613440, Note_on_c, 1, 85, 71
1, 613440, Note_on_c, 1, 65, 36
1, 613680, Note_on_c, 1, 65, 0
1, 613680, Note_on_c, 1, 68, 26
1, 613680, Note_on_c, 1, 73, 26
1, 613680, Note_on_c, 1, 77, 33
1, 613920, Note_on_c, 1, 77, 0
1, 613920, Note_on_c, 1, 73, 0
1, 613920, Note_on_c, 1, 68, 0
1, 613920, Note_on_c, 1, 65, 34
1, 614160, Note_on_c, 1, 65, 0
1, 614160, Note_on_c, 1, 85, 0
1, 614160, Note_on_c, 1, 89, 74
1, 614160, Note_on_c, 1, 73, 29
1, 614160, Note_on_c, 1, 68, 29
1, 614160, Note_on_c, 1, 77, 37
1, 614400, Note_on_c, 1, 77, 0
1, 614400, Note_on_c, 1, 68, 0
1, 614400, Note_on_c, 1, 73, 0
1, 614400, Note_on_c, 1, 65, 35
1, 614640, Note_on_c, 1, 65, 0
1, 614640, Note_on_c, 1, 77, 36
1, 614640, Note_on_c, 1, 73, 27
1, 614640, Note_on_c, 1, 68, 27
1, 614760, Note_on_c, 1, 89, 0
1, 614760, Note_on_c, 1, 85, 64
1, 614880, Note_on_c, 1, 85, 0
1, 614880, Note_on_c, 1, 68, 0
1, 614880, Note_on_c, 1, 73, 0
1, 614880, Note_on_c, 1, 77, 0
1, 614880, Note_on_c, 1, 84, 75
1, 614880, Note_on_c, 1, 66, 39
1, 615120, Note_on_c, 1, 66, 0
1, 615120, Note_on_c, 1, 69, 28
1, 615120, Note_on_c, 1, 75, 37
1, 615120, Note_on_c, 1, 72, 28
1, 615360, Note_on_c, 1, 72, 0
1, 615360, Note_on_c, 1, 75, 0
1, 615360, Note_on_c, 1, 69, 0
1, 615360, Note_on_c, 1, 66, 38
1, 615600, Note_on_c, 1, 66, 0
1, 615600, Note_on_c, 1, 84, 0
1, 615600, Note_on_c, 1, 87, 80
1, 615600, Note_on_c, 1, 75, 40
1, 615600, Note_on_c, 1, 69, 40
1, 615600, Note_on_c, 1, 72, 40
1, 615840, Note_on_c, 1, 72, 0
1, 615840, Note_on_c, 1, 69, 0
1, 615840, Note_on_c, 1, 75, 0
1, 615840, Note_on_c, 1, 66, 38
1, 616080, Note_on_c, 1, 66, 0
1, 616080, Note_on_c, 1, 75, 40
1, 616080, Note_on_c, 1, 69, 40
1, 616080, Note_on_c, 1, 72, 40
1, 616200, Note_on_c, 1, 87, 0
1, 616200, Note_on_c, 1, 84, 71
1, 616320, Note_on_c, 1, 84, 0
1, 616320, Note_on_c, 1, 72, 0
1, 616320, Note_on_c, 1, 69, 0
1, 616320, Note_on_c, 1, 75, 0
1, 616320, Note_on_c, 1, 83, 85
1, 616320, Note_on_c, 1, 65, 49
1, 616560, Note_on_c, 1, 65, 0
1, 616560, Note_on_c, 1, 74, 39
1, 616560, Note_on_c, 1, 71, 30
1, 616560, Note_on_c, 1, 68, 30
1, 616800, Note_on_c, 1, 68, 0
1, 616800, Note_on_c, 1, 71, 0
1, 616800, Note_on_c, 1, 74, 0
1, 616800, Note_on_c, 1, 65, 41
1, 617040, Note_on_c, 1, 65, 0
1, 617040, Note_on_c, 1, 83, 0
1, 617040, Note_on_c, 1, 86, 95
1, 617040, Note_on_c, 1, 68, 35
1, 617040, Note_on_c, 1, 74, 44
1, 617040, Note_on_c, 1, 71, 35
1, 617280, Note_on_c, 1, 71, 0
1, 617280, Note_on_c, 1, 74, 0
1, 617280, Note_on_c, 1, 68, 0
1, 617280, Note_on_c, 1, 65, 42
1, 617520, Note_on_c, 1, 65, 0
1, 617520, Note_on_c, 1, 68, 34
1, 617520, Note_on_c, 1, 74, 44
1, 617520, Note_on_c, 1, 71, 34
1, 617760, Note_on_c, 1, 71, 0
1, 617760, Note_on_c, 1, 74, 0
1, 617760, Note_on_c, 1, 68, 0
1, 617760, Note_on_c, 1, 65, 49
1, 618000, Note_on_c, 1, 65, 0
1, 618000, Note_on_c, 1, 68, 36
1, 618000, Note_on_c, 1, 71, 36
1, 618000, Note_on_c, 1, 74, 48
1, 618240, Note_on_c, 1, 74, 0
1, 618240, Note_on_c, 1, 71, 0
1, 618240, Note_on_c, 1, 68, 0
1, 618240, Note_on_c, 1, 65, 48
1, 618480, Note_on_c, 1, 65, 0
1, 618480, Note_on_c, 1, 86, 0
1, 618480, Note_on_c, 1, 86, 84
1, 618480, Note_on_c, 1, 71, 41
1, 618480, Note_on_c, 1, 68, 41
1, 618480, Note_on_c, 1, 74, 55
1, 618720, Note_on_c, 1, 74, 0
1, 618720, Note_on_c, 1, 68, 0
1, 618720, Note_on_c, 1, 71, 0
1, 618720, Note_on_c, 1, 65, 50
1, 618960, Note_on_c, 1, 65, 0
1, 618960, Note_on_c, 1, 74, 52
1, 618960, Note_on_c, 1, 68, 41
1, 618960, Note_on_c, 1, 71, 41
1, 619080, Note_on_c, 1, 86, 0
1, 619080, Note_on_c, 1, 83, 79
1, 619200, Note_on_c, 1, 83, 0
1, 619200, Note_on_c, 1, 71, 0
1, 619200, Note_on_c, 1, 68, 0
1, 619200, Note_on_c, 1, 74, 0
1, 619200, Note_on_c, 1, 84, 85
1, 619200, Note_on_c, 1, 64, 54
1, 619440, Note_on_c, 1, 64, 0
1, 619440, Note_on_c, 1, 76, 47
1, 619440, Note_on_c, 1, 72, 37
1, 619440, Note_on_c, 1, 67, 37
1, 619680, Note_on_c, 1, 67, 0
1, 619680, Note_on_c, 1, 72, 0
1, 619680, Note_on_c, 1, 76, 0
1, 619680, Note_on_c, 1, 64, 51
1, 619920, Note_on_c, 1, 64, 0
1, 619920, Note_on_c, 1, 84, 0
1, 619920, Note_on_c, 1, 88, 97
1, 619920, Note_on_c, 1, 67, 42
1, 619920, Note_on_c, 1, 76, 53
1, 619920, Note_on_c, 1, 72, 42
1, 620160, Note_on_c, 1, 72, 0
1, 620160, Note_on_c, 1, 76, 0
1, 620160, Note_on_c, 1, 67, 0
1, 620160, Note_on_c, 1, 64, 47
1, 620400, Note_on_c, 1, 64, 0
1, 620400, Note_on_c, 1, 67, 41
1, 620400, Note_on_c, 1, 76, 52
1, 620400, Note_on_c, 1, 72, 41
1, 620640, Note_on_c, 1, 72, 0
1, 620640, Note_on_c, 1, 76, 0
1, 620640, Note_on_c, 1, 67, 0
1, 620640, Note_on_c, 1, 64, 49
1, 620880, Note_on_c, 1, 64, 0
1, 620880, Note_on_c, 1, 67, 43
1, 620880, Note_on_c, 1, 72, 43
1, 620880, Note_on_c, 1, 76, 54
1, 621120, Note_on_c, 1, 76, 0
1, 621120, Note_on_c, 1, 72, 0
1, 621120, Note_on_c, 1, 67, 0
1, 621120, Note_on_c, 1, 64, 48
1, 621360, Note_on_c, 1, 64, 0
1, 621360, Note_on_c, 1, 88, 0
1, 621360, Note_on_c, 1, 91, 84
1, 621360, Note_on_c, 1, 79, 71
1, 621360, Note_on_c, 1, 72, 41
1, 621360, Note_on_c, 1, 67, 41
1, 621360, Note_on_c, 1, 76, 55
1, 621600, Note_on_c, 1, 76, 0
1, 621600, Note_on_c, 1, 72, 0
1, 621600, Note_on_c, 1, 67, 0
1, 621600, Note_on_c, 1, 64, 50
1, 621840, Note_on_c, 1, 64, 0
1, 621840, Note_on_c, 1, 76, 52
1, 621840, Note_on_c, 1, 67, 41
1, 621840, Note_on_c, 1, 72, 41
1, 621960, Note_on_c, 1, 79, 0
1, 621960, Note_on_c, 1, 91, 0
1, 621960, Note_on_c, 1, 77, 67
1, 621960, Note_on_c, 1, 89, 79
1, 622080, Note_on_c, 1, 89, 0
1, 622080, Note_on_c, 1, 67, 0
1, 622080, Note_on_c, 1, 72, 0
1, 622080, Note_on_c, 1, 76, 0
1, 622080, Note_on_c, 1, 77, 0
1, 622080, Note_on_c, 1, 88, 85
1, 622080, Note_on_c, 1, 76, 72
1, 622080, Note_on_c, 1, 58, 54
1, 622320, Note_on_c, 1, 58, 0
1, 622320, Note_on_c, 1, 67, 47
1, 622320, Note_on_c, 1, 64, 37
1, 622320, Note_on_c, 1, 61, 37
1, 622560, Note_on_c, 1, 61, 0
1, 622560, Note_on_c, 1, 67, 0
1, 622560, Note_on_c, 1, 64, 0
1, 622560, Note_on_c, 1, 58, 51
1, 622800, Note_on_c, 1, 58, 0
1, 622800, Note_on_c, 1, 76, 0
1, 622800, Note_on_c, 1, 88, 0
1, 622800, Note_on_c, 1, 79, 79
1, 622800, Note_on_c, 1, 91, 93
1, 622800, Note_on_c, 1, 61, 42
1, 622800, Note_on_c, 1, 67, 53
1, 622800, Note_on_c, 1, 64, 42
1, 623040, Note_on_c, 1, 64, 0
1, 623040, Note_on_c, 1, 61, 0
1, 623040, Note_on_c, 1, 67, 0
1, 623040, Note_on_c, 1, 58, 47
1, 623280, Note_on_c, 1, 58, 0
1, 623280, Note_on_c, 1, 61, 41
1, 623280, Note_on_c, 1, 67, 52
1, 623280, Note_on_c, 1, 64, 41
1, 623520, Note_on_c, 1, 64, 0
1, 623520, Note_on_c, 1, 61, 0
1, 623520, Note_on_c, 1, 67, 0
1, 623520, Note_on_c, 1, 58, 49
1, 623760, Note_on_c, 1, 58, 0
1, 623760, Note_on_c, 1, 64, 43
1, 623760, Note_on_c, 1, 67, 54
1, 623760, Note_on_c, 1, 61, 43
1, 624000, Note_on_c, 1, 61, 0
1, 624000, Note_on_c, 1, 64, 0
1, 624000, Note_on_c, 1, 67, 0
1, 624000, Note_on_c, 1, 58, 48
1, 624240, Note_on_c, 1, 58, 0
1, 624240, Note_on_c, 1, 91, 0
1, 624240, Note_on_c, 1, 79, 0
1, 624240, Note_on_c, 1, 79, 74
1, 624240, Note_on_c, 1, 91, 88
1, 624240, Note_on_c, 1, 61, 43
1, 624240, Note_on_c, 1, 67, 57
1, 624240, Note_on_c, 1, 64, 43
1, 624480, Note_on_c, 1, 64, 0
1, 624480, Note_on_c, 1, 61, 0
1, 624480, Note_on_c, 1, 67, 0
1, 624480, Note_on_c, 1, 58, 52
1, 624720, Note_on_c, 1, 58, 0
1, 624720, Note_on_c, 1, 61, 43
1, 624720, Note_on_c, 1, 64, 43
1, 624720, Note_on_c, 1, 67, 54
1, 624840, Note_on_c, 1, 91, 0
1, 624840, Note_on_c, 1, 79, 0
1, 624840, Note_on_c, 1, 76, 70
1, 624840, Note_on_c, 1, 88, 82
1, 624960, Note_on_c, 1, 88, 0
1, 624960, Note_on_c, 1, 64, 0
1, 624960, Note_on_c, 1, 67, 0
1, 624960, Note_on_c, 1, 61, 0
1, 624960, Note_on_c, 1, 76, 0
1, 624960, Note_on_c, 1, 89, 89
1, 624960, Note_on_c, 1, 77, 75
1, 624960, Note_on_c, 1, 56, 56
1, 625200, Note_on_c, 1, 56, 0
1, 625200, Note_on_c, 1, 60, 38
1, 625200, Note_on_c, 1, 65, 38
1, 625200, Note_on_c, 1, 68, 49
1, 625440, Note_on_c, 1, 68, 0
1, 625440, Note_on_c, 1, 60, 0
1, 625440, Note_on_c, 1, 65, 0
1, 625440, Note_on_c, 1, 56, 53
1, 625680, Note_on_c, 1, 56, 0
1, 625680, Note_on_c, 1, 77, 0
1, 625680, Note_on_c, 1, 89, 0
1, 625680, Note_on_c, 1, 92, 96
1, 625680, Note_on_c, 1, 80, 81
1, 625680, Note_on_c, 1, 65, 44
1, 625680, Note_on_c, 1, 68, 55
1, 625680, Note_on_c, 1, 60, 44
1, 625920, Note_on_c, 1, 60, 0
1, 625920, Note_on_c, 1, 65, 0
1, 625920, Note_on_c, 1, 68, 0
1, 625920, Note_on_c, 1, 56, 49
1, 626160, Note_on_c, 1, 56, 0
1, 626160, Note_on_c, 1, 65, 43
1, 626160, Note_on_c, 1, 68, 54
1, 626160, Note_on_c, 1, 60, 43
1, 626400, Note_on_c, 1, 60, 0
1, 626400, Note_on_c, 1, 65, 0
1, 626400, Note_on_c, 1, 68, 0
1, 626400, Note_on_c, 1, 56, 51
1, 626640, Note_on_c, 1, 56, 0
1, 626640, Note_on_c, 1, 65, 45
1, 626640, Note_on_c, 1, 68, 56
1, 626640, Note_on_c, 1, 60, 45
1, 626880, Note_on_c, 1, 60, 0
1, 626880, Note_on_c, 1, 65, 0
1, 626880, Note_on_c, 1, 68, 0
1, 626880, Note_on_c, 1, 56, 50
1, 627120, Note_on_c, 1, 56, 0
1, 627120, Note_on_c, 1, 80, 0
1, 627120, Note_on_c, 1, 92, 0
1, 627120, Note_on_c, 1, 92, 88
1, 627120, Note_on_c, 1, 80, 74
1, 627120, Note_on_c, 1, 60, 43
1, 627120, Note_on_c, 1, 68, 57
1, 627120, Note_on_c, 1, 65, 43
1, 627360, Note_on_c, 1, 65, 0
1, 627360, Note_on_c, 1, 60, 0
1, 627360, Note_on_c, 1, 68, 0
1, 627360, Note_on_c, 1, 56, 52
1, 627600, Note_on_c, 1, 56, 0
1, 627600, Note_on_c, 1, 60, 43
1, 627600, Note_on_c, 1, 65, 43
1, 627600, Note_on_c, 1, 68, 54
1, 627720, Note_on_c, 1, 80, 0
1, 627720, Note_on_c, 1, 92, 0
1, 627720, Note_on_c, 1, 89, 82
1, 627720, Note_on_c, 1, 77, 70
1, 627840, Note_on_c, 1, 77, 0
1, 627840, Note_on_c, 1, 65, 0
1, 627840, Note_on_c, 1, 68, 0
1, 627840, Note_on_c, 1, 60, 0
1, 627840, Note_on_c, 1, 89, 0
1, 627840, Note_on_c, 1, 34, 101
1, 627840, Note_on_c, 1, 46, 101
1, 627960, Note_on_c, 1, 61, 80
1, 628080, Note_on_c, 1, 61, 0
1, 628080, Note_on_c, 1, 46, 0
1, 628080, Note_on_c, 1, 34, 0
1, 628080, Note_on_c, 1, 58, 77
1, 628200, Note_on_c, 1, 58, 0
1, 628200, Note_on_c, 1, 66, 72
1, 628320, Note_on_c, 1, 66, 0
1, 628320, Note_on_c, 1, 49, 75
1, 628440, Note_on_c, 1, 49, 0
1, 628440, Note_on_c, 1, 54, 69
1, 628560, Note_on_c, 1, 54, 0
1, 628560, Note_on_c, 1, 58, 86
1, 628680, Note_on_c, 1, 66, 75
1, 628800, Note_on_c, 1, 66, 0
1, 628800, Note_on_c, 1, 58, 0
1, 628800, Note_on_c, 1, 61, 78
1, 628920, Note_on_c, 1, 61, 0
1, 628920, Note_on_c, 1, 70, 73
1, 629040, Note_on_c, 1, 70, 0
1, 629040, Note_on_c, 1, 54, 75
1, 629160, Note_on_c, 1, 54, 0
1, 629160, Note_on_c, 1, 58, 73
1, 629280, Note_on_c, 1, 58, 0
1, 629280, Note_on_c, 1, 61, 86
1, 629400, Note_on_c, 1, 70, 74
1, 629520, Note_on_c, 1, 70, 0
1, 629520, Note_on_c, 1, 61, 0
1, 629520, Note_on_c, 1, 66, 80
1, 629640, Note_on_c, 1, 66, 0
1, 629640, Note_on_c, 1, 73, 74
1, 629760, Note_on_c, 1, 73, 0
1, 629760, Note_on_c, 1, 58, 78
1, 629880, Note_on_c, 1, 58, 0
1, 629880, Note_on_c, 1, 61, 73
1, 630000, Note_on_c, 1, 61, 0
1, 630000, Note_on_c, 1, 66, 84
1, 630120, Note_on_c, 1, 73, 75
1, 630240, Note_on_c, 1, 73, 0
1, 630240, Note_on_c, 1, 66, 0
1, 630240, Note_on_c, 1, 70, 80
1, 630360, Note_on_c, 1, 70, 0
1, 630360, Note_on_c, 1, 78, 72
1, 630480, Note_on_c, 1, 78, 0
1, 630480, Note_on_c, 1, 61, 77
1, 630600, Note_on_c, 1, 61, 0
1, 630600, Note_on_c, 1, 66, 71
1, 630720, Note_on_c, 1, 66, 0
1, 630720, Note_on_c, 1, 70, 81
1, 630840, Note_on_c, 1, 78, 74
1, 630960, Note_on_c, 1, 78, 0
1, 630960, Note_on_c, 1, 70, 0
1, 630960, Note_on_c, 1, 73, 77
1, 631080, Note_on_c, 1, 73, 0
1, 631080, Note_on_c, 1, 82, 72
1, 631200, Note_on_c, 1, 82, 0
1, 631200, Note_on_c, 1, 66, 75
1, 631320, Note_on_c, 1, 66, 0
1, 631320, Note_on_c, 1, 70, 74
1, 631440, Note_on_c, 1, 70, 0
1, 631440, Note_on_c, 1, 73, 81
1, 631560, Note_on_c, 1, 82, 71
1, 631680, Note_on_c, 1, 82, 0
1, 631680, Note_on_c, 1, 73, 0
1, 631680, Note_on_c, 1, 78, 75
1, 631800, Note_on_c, 1, 78, 0
1, 631800, Note_on_c, 1, 85, 73
1, 631920, Note_on_c, 1, 85, 0
1, 631920, Note_on_c, 1, 70, 75
1, 632040, Note_on_c, 1, 70, 0
1, 632040, Note_on_c, 1, 73, 73
1, 632160, Note_on_c, 1, 73, 0
1, 632160, Note_on_c, 1, 78, 84
1, 632280, Note_on_c, 1, 85, 74
1, 632400, Note_on_c, 1, 85, 0
1, 632400, Note_on_c, 1, 78, 0
1, 632400, Note_on_c, 1, 82, 80
1, 632520, Note_on_c, 1, 82, 0
1, 632520, Note_on_c, 1, 90, 74
1, 632640, Note_on_c, 1, 90, 0
1, 632640, Note_on_c, 1, 73, 75
1, 632760, Note_on_c, 1, 73, 0
1, 632760, Note_on_c, 1, 78, 74
1, 632880, Note_on_c, 1, 78, 0
1, 632880, Note_on_c, 1, 82, 83
1, 633120, Note_on_c, 1, 82, 0
1, 633120, Note_on_c, 1, 90, 82
1, 633240, Note_on_c, 1, 90, 0
1, 633240, Note_on_c, 1, 85, 79
1, 633360, Note_on_c, 1, 85, 0
1, 633360, Note_on_c, 1, 94, 84
1, 633600, Note_on_c, 1, 94, 0
1, 633600, Note_on_c, 1, 48, 101
1, 633600, Note_on_c, 1, 36, 101
1, 633720, Note_on_c, 1, 63, 80
1, 633840, Note_on_c, 1, 63, 0
1, 633840, Note_on_c, 1, 36, 0
1, 633840, Note_on_c, 1, 48, 0
1, 633840, Note_on_c, 1, 60, 77
1, 633960, Note_on_c, 1, 60, 0
1, 633960, Note_on_c, 1, 69, 72
1, 634080, Note_on_c, 1, 69, 0
1, 634080, Note_on_c, 1, 51, 80
1, 634200, Note_on_c, 1, 51, 0
1, 634200, Note_on_c, 1, 57, 73
1, 634320, Note_on_c, 1, 57, 0
1, 634320, Note_on_c, 1, 60, 89
1, 634440, Note_on_c, 1, 69, 75
1, 634560, Note_on_c, 1, 69, 0
1, 634560, Note_on_c, 1, 60, 0
1, 634560, Note_on_c, 1, 63, 78
1, 634680, Note_on_c, 1, 63, 0
1, 634680, Note_on_c, 1, 72, 73
1, 634800, Note_on_c, 1, 72, 0
1, 634800, Note_on_c, 1, 57, 78
1, 634920, Note_on_c, 1, 57, 0
1, 634920, Note_on_c, 1, 60, 73
1, 635040, Note_on_c, 1, 60, 0
1, 635040, Note_on_c, 1, 63, 86
1, 635160, Note_on_c, 1, 72, 74
1, 635280, Note_on_c, 1, 72, 0
1, 635280, Note_on_c, 1, 63, 0
1, 635280, Note_on_c, 1, 69, 80
1, 635400, Note_on_c, 1, 69, 0
1, 635400, Note_on_c, 1, 75, 74
1, 635520, Note_on_c, 1, 75, 0
1, 635520, Note_on_c, 1, 60, 78
1, 635640, Note_on_c, 1, 60, 0
1, 635640, Note_on_c, 1, 63, 73
1, 635760, Note_on_c, 1, 63, 0
1, 635760, Note_on_c, 1, 69, 84
1, 635880, Note_on_c, 1, 75, 75
1, 636000, Note_on_c, 1, 75, 0
1, 636000, Note_on_c, 1, 69, 0
1, 636000, Note_on_c, 1, 72, 80
1, 636120, Note_on_c, 1, 72, 0
1, 636120, Note_on_c, 1, 81, 72
1, 636240, Note_on_c, 1, 81, 0
1, 636240, Note_on_c, 1, 63, 77
1, 636360, Note_on_c, 1, 63, 0
1, 636360, Note_on_c, 1, 69, 71
1, 636480, Note_on_c, 1, 69, 0
1, 636480, Note_on_c, 1, 72, 82
1, 636600, Note_on_c, 1, 81, 75
1, 636720, Note_on_c, 1, 81, 0
1, 636720, Note_on_c, 1, 72, 0
1, 636720, Note_on_c, 1, 75, 77
1, 636840, Note_on_c, 1, 75, 0
1, 636840, Note_on_c, 1, 84, 72
1, 636960, Note_on_c, 1, 84, 0
1, 636960, Note_on_c, 1, 69, 75
1, 637080, Note_on_c, 1, 69, 0
1, 637080, Note_on_c, 1, 72, 73
1, 637200, Note_on_c, 1, 72, 0
1, 637200, Note_on_c, 1, 75, 85
1, 637320, Note_on_c, 1, 84, 71
1, 637440, Note_on_c, 1, 84, 0
1, 637440, Note_on_c, 1, 75, 0
1, 637440, Note_on_c, 1, 81, 75
1, 637560, Note_on_c, 1, 81, 0
1, 637560, Note_on_c, 1, 87, 73
1, 637680, Note_on_c, 1, 87, 0
1, 637680, Note_on_c, 1, 72, 75
1, 637800, Note_on_c, 1, 72, 0
1, 637800, Note_on_c, 1, 75, 73
1, 637920, Note_on_c, 1, 75, 0
1, 637920, Note_on_c, 1, 81, 84
1, 638040, Note_on_c, 1, 87, 74
1, 638160, Note_on_c, 1, 87, 0
1, 638160, Note_on_c, 1, 81, 0
1, 638160, Note_on_c, 1, 84, 80
1, 638280, Note_on_c, 1, 84, 0
1, 638280, Note_on_c, 1, 93, 74
1, 638400, Note_on_c, 1, 93, 0
1, 638400, Note_on_c, 1, 75, 80
1, 638520, Note_on_c, 1, 75, 0
1, 638520, Note_on_c, 1, 81, 74
1, 638640, Note_on_c, 1, 81, 0
1, 638640, Note_on_c, 1, 84, 85
1, 638880, Note_on_c, 1, 84, 0
1, 638880, Note_on_c, 1, 93, 83
1, 639000, Note_on_c, 1, 93, 0
1, 639000, Note_on_c, 1, 87, 77
1, 639120, Note_on_c, 1, 87, 0
1, 639120, Note_on_c, 1, 96, 83
1, 639360, Note_on_c, 1, 96, 0
1, 639360, Note_on_c, 1, 37, 101
1, 639360, Note_on_c, 1, 49, 101
1, 639480, Note_on_c, 1, 65, 74
1, 639600, Note_on_c, 1, 65, 0
1, 639600, Note_on_c, 1, 49, 0
1, 639600, Note_on_c, 1, 37, 0
1, 639600, Note_on_c, 1, 61, 77
1, 639720, Note_on_c, 1, 61, 0
1, 639720, Note_on_c, 1, 70, 72
1, 639840, Note_on_c, 1, 70, 0
1, 639840, Note_on_c, 1, 53, 78
1, 639960, Note_on_c, 1, 53, 0
1, 639960, Note_on_c, 1, 58, 73
1, 640080, Note_on_c, 1, 58, 0
1, 640080, Note_on_c, 1, 61, 84
1, 640320, Note_on_c, 1, 61, 0
1, 640320, Note_on_c, 1, 70, 75
1, 640440, Note_on_c, 1, 70, 0
1, 640440, Note_on_c, 1, 65, 72
1, 640560, Note_on_c, 1, 65, 0
1, 640560, Note_on_c, 1, 73, 73
1, 640800, Note_on_c, 1, 73, 0
1, 640800, Note_on_c, 1, 52, 101
1, 640800, Note_on_c, 1, 40, 101
1, 640920, Note_on_c, 1, 67, 75
1, 641040, Note_on_c, 1, 67, 0
1, 641040, Note_on_c, 1, 40, 0
1, 641040, Note_on_c, 1, 52, 0
1, 641040, Note_on_c, 1, 64, 77
1, 641160, Note_on_c, 1, 64, 0
1, 641160, Note_on_c, 1, 72, 72
1, 641280, Note_on_c, 1, 72, 0
1, 641280, Note_on_c, 1, 55, 80
1, 641400, Note_on_c, 1, 55, 0
1, 641400, Note_on_c, 1, 60, 73
1, 641520, Note_on_c, 1, 60, 0
1, 641520, Note_on_c, 1, 64, 82
1, 641760, Note_on_c, 1, 64, 0
1, 641760, Note_on_c, 1, 72, 75
1, 641880, Note_on_c, 1, 72, 0
1, 641880, Note_on_c, 1, 67, 72
1, 642000, Note_on_c, 1, 67, 0
1, 642000, Note_on_c, 1, 76, 73
1, 642240, Note_on_c, 1, 76, 0
1, 642240, Note_on_c, 1, 53, 101
1, 642240, Note_on_c, 1, 41, 101
1, 642360, Note_on_c, 1, 68, 73
1, 642480, Note_on_c, 1, 68, 0
1, 642480, Note_on_c, 1, 41, 0
1, 642480, Note_on_c, 1, 53, 0
1, 642480, Note_on_c, 1, 65, 77
1, 642600, Note_on_c, 1, 65, 0
1, 642600, Note_on_c, 1, 73, 72
1, 642720, Note_on_c, 1, 73, 0
1, 642720, Note_on_c, 1, 56, 80
1, 642840, Note_on_c, 1, 56, 0
1, 642840, Note_on_c, 1, 61, 73
1, 642960, Note_on_c, 1, 61, 0
1, 642960, Note_on_c, 1, 65, 86
1, 643200, Note_on_c, 1, 65, 0
1, 643200, Note_on_c, 1, 73, 75
1, 643320, Note_on_c, 1, 73, 0
1, 643320, Note_on_c, 1, 68, 71
1, 643440, Note_on_c, 1, 68, 0
1, 643440, Note_on_c, 1, 77, 73
1, 643680, Note_on_c, 1, 77, 0
1, 643680, Note_on_c, 1, 43, 101
1, 643680, Note_on_c, 1, 55, 101
1, 643800, Note_on_c, 1, 70, 80
1, 643920, Note_on_c, 1, 70, 0
1, 643920, Note_on_c, 1, 55, 0
1, 643920, Note_on_c, 1, 43, 0
1, 643920, Note_on_c, 1, 67, 77
1, 644040, Note_on_c, 1, 67, 0
1, 644040, Note_on_c, 1, 76, 72
1, 644160, Note_on_c, 1, 76, 0
1, 644160, Note_on_c, 1, 58, 80
1, 644280, Note_on_c, 1, 58, 0
1, 644280, Note_on_c, 1, 64, 73
1, 644400, Note_on_c, 1, 64, 0
1, 644400, Note_on_c, 1, 67, 86
1, 644640, Note_on_c, 1, 67, 0
1, 644640, Note_on_c, 1, 76, 75
1, 644760, Note_on_c, 1, 76, 0
1, 644760, Note_on_c, 1, 70, 73
1, 644880, Note_on_c, 1, 70, 0
1, 644880, Note_on_c, 1, 79, 73
1, 645120, Note_on_c, 1, 79, 0
1, 645120, Note_on_c, 1, 44, 75
1, 645240, Note_on_c, 1, 72, 64
1, 645360, Note_on_c, 1, 72, 0
1, 645360, Note_on_c, 1, 44, 0
1, 645360, Note_on_c, 1, 68, 69
1, 645480, Note_on_c, 1, 68, 0
1, 645480, Note_on_c, 1, 77, 64
1, 645600, Note_on_c, 1, 77, 0
1, 645600, Note_on_c, 1, 56, 69
1, 645720, Note_on_c, 1, 56, 0
1, 645720, Note_on_c, 1, 60, 61
1, 645840, Note_on_c, 1, 60, 0
1, 645840, Note_on_c, 1, 46, 77
1, 645960, Note_on_c, 1, 73, 64
1, 646080, Note_on_c, 1, 73, 0
1, 646080, Note_on_c, 1, 46, 0
1, 646080, Note_on_c, 1, 70, 69
1, 646200, Note_on_c, 1, 70, 0
1, 646200, Note_on_c, 1, 79, 67
1, 646320, Note_on_c, 1, 79, 0
1, 646320, Note_on_c, 1, 58, 69
1, 646440, Note_on_c, 1, 58, 0
1, 646440, Note_on_c, 1, 61, 64
1, 646560, Note_on_c, 1, 61, 0
1, 646560, Note_on_c, 1, 48, 78
1, 646680, Note_on_c, 1, 75, 69
1, 646800, Note_on_c, 1, 75, 0
1, 646800, Note_on_c, 1, 48, 0
1, 646800, Note_on_c, 1, 72, 73
1, 646920, Note_on_c, 1, 72, 0
1, 646920, Note_on_c, 1, 81, 69
1, 647040, Note_on_c, 1, 81, 0
1, 647040, Note_on_c, 1, 60, 71
1, 647160, Note_on_c, 1, 60, 0
1, 647160, Note_on_c, 1, 63, 67
1, 647280, Note_on_c, 1, 63, 0
1, 647280, Note_on_c, 1, 49, 81
1, 647400, Note_on_c, 1, 77, 71
1, 647520, Note_on_c, 1, 77, 0
1, 647520, Note_on_c, 1, 49, 0
1, 647520, Note_on_c, 1, 73, 68
1, 647640, Note_on_c, 1, 73, 0
1, 647640, Note_on_c, 1, 82, 70
1, 647760, Note_on_c, 1, 82, 0
1, 647760, Note_on_c, 1, 61, 77
1, 647880, Note_on_c, 1, 61, 0
1, 647880, Note_on_c, 1, 65, 71
1, 648000, Note_on_c, 1, 65, 0
1, 648000, Note_on_c, 1, 52, 80
1, 648120, Note_on_c, 1, 79, 71
1, 648240, Note_on_c, 1, 79, 0
1, 648240, Note_on_c, 1, 52, 0
1, 648240, Note_on_c, 1, 76, 73
1, 648360, Note_on_c, 1, 76, 0
1, 648360, Note_on_c, 1, 84, 70
1, 648480, Note_on_c, 1, 84, 0
1, 648480, Note_on_c, 1, 64, 77
1, 648600, Note_on_c, 1, 64, 0
1, 648600, Note_on_c, 1, 67, 73
1, 648720, Note_on_c, 1, 67, 0
1, 648720, Note_on_c, 1, 53, 83
1, 648840, Note_on_c, 1, 80, 69
1, 648960, Note_on_c, 1, 80, 0
1, 648960, Note_on_c, 1, 53, 0
1, 648960, Note_on_c, 1, 77, 73
1, 649080, Note_on_c, 1, 77, 0
1, 649080, Note_on_c, 1, 85, 72
1, 649200, Note_on_c, 1, 85, 0
1, 649200, Note_on_c, 1, 65, 77
1, 649320, Note_on_c, 1, 65, 0
1, 649320, Note_on_c, 1, 68, 72
1, 649440, Note_on_c, 1, 68, 0
1, 649440, Note_on_c, 1, 55, 84
1, 649560, Note_on_c, 1, 82, 74
1, 649680, Note_on_c, 1, 82, 0
1, 649680, Note_on_c, 1, 55, 0
1, 649680, Note_on_c, 1, 79, 78
1, 649800, Note_on_c, 1, 79, 0
1, 649800, Note_on_c, 1, 88, 74
1, 649920, Note_on_c, 1, 88, 0
1, 649920, Note_on_c, 1, 67, 78
1, 650040, Note_on_c, 1, 67, 0
1, 650040, Note_on_c, 1, 70, 74
1, 650160, Note_on_c, 1, 70, 0
1, 650160, Note_on_c, 1, 56, 85
1, 650280, Note_on_c, 1, 84, 75
1, 650400, Note_on_c, 1, 84, 0
1, 650400, Note_on_c, 1, 56, 0
1, 650400, Note_on_c, 1, 80, 77
1, 650520, Note_on_c, 1, 80, 0
1, 650520, Note_on_c, 1, 89, 75
1, 650640, Note_on_c, 1, 89, 0
1, 650640, Note_on_c, 1, 68, 77
1, 650760, Note_on_c, 1, 68, 0
1, 650760, Note_on_c, 1, 72, 73
1, 650880, Note_on_c, 1, 72, 0
1, 650880, Note_on_c, 1, 58, 86
1, 651000, Note_on_c, 1, 85, 78
1, 651120, Note_on_c, 1, 85, 0
1, 651120, Note_on_c, 1, 58, 0
1, 651120, Note_on_c, 1, 82, 79
1, 651240, Note_on_c, 1, 82, 0
1, 651240, Note_on_c, 1, 91, 74
1, 651360, Note_on_c, 1, 91, 0
1, 651360, Note_on_c, 1, 70, 81
1, 651480, Note_on_c, 1, 70, 0
1, 651480, Note_on_c, 1, 73, 77
1, 651600, Note_on_c, 1, 73, 0
1, 651600, Note_on_c, 1, 60, 89
1, 651720, Note_on_c, 1, 87, 74
1, 651840, Note_on_c, 1, 87, 0
1, 651840, Note_on_c, 1, 60, 0
1, 651840, Note_on_c, 1, 84, 79
1, 651960, Note_on_c, 1, 84, 0
1, 651960, Note_on_c, 1, 93, 74
1, 652080, Note_on_c, 1, 93, 0
1, 652080, Note_on_c, 1, 72, 80
1, 652200, Note_on_c, 1, 72, 0
1, 652200, Note_on_c, 1, 75, 78
1, 652320, Note_on_c, 1, 75, 0
1, 652320, Note_on_c, 1, 61, 89
1, 652440, Note_on_c, 1, 89, 79
1, 652560, Note_on_c, 1, 89, 0
1, 652560, Note_on_c, 1, 61, 0
1, 652560, Note_on_c, 1, 85, 80
1, 652680, Note_on_c, 1, 85, 0
1, 652680, Note_on_c, 1, 94, 79
1, 652800, Note_on_c, 1, 94, 0
1, 652800, Note_on_c, 1, 73, 83
1, 652920, Note_on_c, 1, 73, 0
1, 652920, Note_on_c, 1, 77, 80
1, 653040, Note_on_c, 1, 77, 0
1, 653040, Note_on_c, 1, 61, 92
1, 653160, Note_on_c, 1, 89, 81
1, 653280, Note_on_c, 1, 89, 0
1, 653280, Note_on_c, 1, 61, 0
1, 653280, Note_on_c, 1, 85, 83
1, 653400, Note_on_c, 1, 85, 0
1, 653400, Note_on_c, 1, 94, 80
1, 653520, Note_on_c, 1, 94, 0
1, 653520, Note_on_c, 1, 73, 84
1, 653640, Note_on_c, 1, 73, 0
1, 653640, Note_on_c, 1, 77, 80
1, 653760, Note_on_c, 1, 77, 0
1, 653760, Note_on_c, 1, 41, 108
1, 653880, Note_on_c, 1, 41, 0
1, 653880, Note_on_c, 1, 53, 100
1, 654000, Note_on_c, 1, 53, 0
1, 654000, Note_on_c, 1, 56, 92
1, 654120, Note_on_c, 1, 56, 0
1, 654120, Note_on_c, 1, 89, 78
1, 654240, Note_on_c, 1, 89, 0
1, 654240, Note_on_c, 1, 85, 82
1, 654360, Note_on_c, 1, 85, 0
1, 654360, Note_on_c, 1, 94, 79
1, 654480, Note_on_c, 1, 94, 0
1, 654480, Note_on_c, 1, 89, 89
1, 654600, Note_on_c, 1, 89, 0
1, 654600, Note_on_c, 1, 85, 83
1, 654720, Note_on_c, 1, 85, 0
1, 654720, Note_on_c, 1, 82, 78
1, 654840, Note_on_c, 1, 82, 0
1, 654840, Note_on_c, 1, 77, 78
1, 654960, Note_on_c, 1, 77, 0
1, 654960, Note_on_c, 1, 73, 82
1, 655080, Note_on_c, 1, 73, 0
1, 655080, Note_on_c, 1, 82, 79
1, 655200, Note_on_c, 1, 82, 0
1, 655200, Note_on_c, 1, 77, 86
1, 655320, Note_on_c, 1, 77, 0
1, 655320, Note_on_c, 1, 73, 82
1, 655440, Note_on_c, 1, 73, 0
1, 655440, Note_on_c, 1, 70, 80
1, 655560, Note_on_c, 1, 70, 0
1, 655560, Note_on_c, 1, 65, 74
1, 655680, Note_on_c, 1, 65, 0
1, 655680, Note_on_c, 1, 61, 78
1, 655800, Note_on_c, 1, 61, 0
1, 655800, Note_on_c, 1, 70, 73
1, 655920, Note_on_c, 1, 70, 0
1, 655920, Note_on_c, 1, 65, 81
1, 656040, Note_on_c, 1, 65, 0
1, 656040, Note_on_c, 1, 61, 78
1, 656160, Note_on_c, 1, 61, 0
1, 656160, Note_on_c, 1, 58, 74
1, 656280, Note_on_c, 1, 58, 0
1, 656280, Note_on_c, 1, 53, 74
1, 656400, Note_on_c, 1, 53, 0
1, 656400, Note_on_c, 1, 49, 74
1, 656520, Note_on_c, 1, 49, 0
1, 656520, Note_on_c, 1, 58, 74
1, 656640, Note_on_c, 1, 58, 0
1, 656640, Note_on_c, 1, 53, 79
1, 656760, Note_on_c, 1, 53, 0
1, 656760, Note_on_c, 1, 49, 71
1, 656880, Note_on_c, 1, 49, 0
1, 656880, Note_on_c, 1, 46, 74
1, 657000, Note_on_c, 1, 46, 0
1, 657000, Note_on_c, 1, 49, 71
1, 657120, Note_on_c, 1, 49, 0
1, 657120, Note_on_c, 1, 53, 74
1, 657240, Note_on_c, 1, 53, 0
1, 657240, Note_on_c, 1, 58, 72
1, 657360, Note_on_c, 1, 58, 0
1, 657360, Note_on_c, 1, 61, 80
1, 657480, Note_on_c, 1, 61, 0
1, 657480, Note_on_c, 1, 65, 75
1, 657600, Note_on_c, 1, 65, 0
1, 657600, Note_on_c, 1, 70, 75
1, 657720, Note_on_c, 1, 70, 0
1, 657720, Note_on_c, 1, 73, 75
1, 657840, Note_on_c, 1, 73, 0
1, 657840, Note_on_c, 1, 77, 79
1, 657960, Note_on_c, 1, 77, 0
1, 657960, Note_on_c, 1, 73, 73
1, 658080, Note_on_c, 1, 73, 0
1, 658080, Note_on_c, 1, 70, 80
1, 658200, Note_on_c, 1, 70, 0
1, 658200, Note_on_c, 1, 73, 74
1, 658320, Note_on_c, 1, 73, 0
1, 658320, Note_on_c, 1, 77, 79
1, 658440, Note_on_c, 1, 77, 0
1, 658440, Note_on_c, 1, 82, 74
1, 658560, Note_on_c, 1, 82, 0
1, 658560, Note_on_c, 1, 85, 82
1, 658680, Note_on_c, 1, 85, 0
1, 658680, Note_on_c, 1, 82, 75
1, 658800, Note_on_c, 1, 82, 0
1, 658800, Note_on_c, 1, 89, 83
1, 658920, Note_on_c, 1, 89, 0
1, 658920, Note_on_c, 1, 85, 78
1, 659040, Note_on_c, 1, 85, 0
1, 659040, Note_on_c, 1, 94, 83
1, 659160, Note_on_c, 1, 94, 0
1, 659160, Note_on_c, 1, 89, 78
1, 659280, Note_on_c, 1, 89, 0
1, 659280, Note_on_c, 1, 85, 80
1, 659400, Note_on_c, 1, 85, 0
1, 659400, Note_on_c, 1, 82, 75
1, 659520, Note_on_c, 1, 82, 0
1, 659520, Note_on_c, 1, 62, 105
1, 659640, Note_on_c, 1, 62, 0
1, 659640, Note_on_c, 1, 74, 100
1, 659760, Note_on_c, 1, 74, 0
1, 659760, Note_on_c, 1, 77, 92
1, 659880, Note_on_c, 1, 77, 0
1, 659880, Note_on_c, 1, 92, 78
1, 660000, Note_on_c, 1, 92, 0
1, 660000, Note_on_c, 1, 89, 85
1, 660120, Note_on_c, 1, 89, 0
1, 660120, Note_on_c, 1, 95, 81
1, 660240, Note_on_c, 1, 95, 0
1, 660240, Note_on_c, 1, 92, 92
1, 660360, Note_on_c, 1, 92, 0
1, 660360, Note_on_c, 1, 89, 80
1, 660480, Note_on_c, 1, 89, 0
1, 660480, Note_on_c, 1, 86, 81
1, 660600, Note_on_c, 1, 86, 0
1, 660600, Note_on_c, 1, 83, 77
1, 660720, Note_on_c, 1, 83, 0
1, 660720, Note_on_c, 1, 80, 81
1, 660840, Note_on_c, 1, 80, 0
1, 660840, Note_on_c, 1, 77, 79
1, 660960, Note_on_c, 1, 77, 0
1, 660960, Note_on_c, 1, 83, 85
1, 661080, Note_on_c, 1, 83, 0
1, 661080, Note_on_c, 1, 80, 82
1, 661200, Note_on_c, 1, 80, 0
1, 661200, Note_on_c, 1, 77, 78
1, 661320, Note_on_c, 1, 77, 0
1, 661320, Note_on_c, 1, 74, 74
1, 661440, Note_on_c, 1, 74, 0
1, 661440, Note_on_c, 1, 71, 75
1, 661560, Note_on_c, 1, 71, 0
1, 661560, Note_on_c, 1, 68, 73
1, 661680, Note_on_c, 1, 68, 0
1, 661680, Note_on_c, 1, 74, 81
1, 661800, Note_on_c, 1, 74, 0
1, 661800, Note_on_c, 1, 71, 78
1, 661920, Note_on_c, 1, 71, 0
1, 661920, Note_on_c, 1, 68, 74
1, 662040, Note_on_c, 1, 68, 0
1, 662040, Note_on_c, 1, 65, 74
1, 662160, Note_on_c, 1, 65, 0
1, 662160, Note_on_c, 1, 62, 74
1, 662280, Note_on_c, 1, 62, 0
1, 662280, Note_on_c, 1, 59, 74
1, 662400, Note_on_c, 1, 59, 0
1, 662400, Note_on_c, 1, 68, 79
1, 662520, Note_on_c, 1, 68, 0
1, 662520, Note_on_c, 1, 65, 71
1, 662640, Note_on_c, 1, 65, 0
1, 662640, Note_on_c, 1, 62, 74
1, 662760, Note_on_c, 1, 62, 0
1, 662760, Note_on_c, 1, 59, 71
1, 662880, Note_on_c, 1, 59, 0
1, 662880, Note_on_c, 1, 56, 74
1, 663000, Note_on_c, 1, 56, 0
1, 663000, Note_on_c, 1, 53, 72
1, 663120, Note_on_c, 1, 53, 0
1, 663120, Note_on_c, 1, 50, 80
1, 663240, Note_on_c, 1, 50, 0
1, 663240, Note_on_c, 1, 47, 75
1, 663360, Note_on_c, 1, 47, 0
1, 663360, Note_on_c, 1, 50, 75
1, 663480, Note_on_c, 1, 50, 0
1, 663480, Note_on_c, 1, 53, 75
1, 663600, Note_on_c, 1, 53, 0
1, 663600, Note_on_c, 1, 56, 79
1, 663720, Note_on_c, 1, 56, 0
1, 663720, Note_on_c, 1, 59, 73
1, 663840, Note_on_c, 1, 59, 0
1, 663840, Note_on_c, 1, 62, 80
1, 663960, Note_on_c, 1, 62, 0
1, 663960, Note_on_c, 1, 65, 74
1, 664080, Note_on_c, 1, 65, 0
1, 664080, Note_on_c, 1, 68, 79
1, 664200, Note_on_c, 1, 68, 0
1, 664200, Note_on_c, 1, 71, 74
1, 664320, Note_on_c, 1, 71, 0
1, 664320, Note_on_c, 1, 74, 82
1, 664440, Note_on_c, 1, 74, 0
1, 664440, Note_on_c, 1, 77, 75
1, 664560, Note_on_c, 1, 77, 0
1, 664560, Note_on_c, 1, 80, 83
1, 664680, Note_on_c, 1, 80, 0
1, 664680, Note_on_c, 1, 83, 78
1, 664800, Note_on_c, 1, 83, 0
1, 664800, Note_on_c, 1, 86, 83
1, 664920, Note_on_c, 1, 86, 0
1, 664920, Note_on_c, 1, 89, 78
1, 665040, Note_on_c, 1, 89, 0
1, 665040, Note_on_c, 1, 92, 80
1, 665160, Note_on_c, 1, 92, 0
1, 665160, Note_on_c, 1, 95, 75
1, 665280, Note_on_c, 1, 95, 0
1, 665280, Note_on_c, 1, 36, 125
1, 665520, Note_on_c, 1, 36, 0
1, 665640, Note_on_c, 1, 92, 78
1, 665760, Note_on_c, 1, 92, 0
1, 665760, Note_on_c, 1, 89, 82
1, 665880, Note_on_c, 1, 89, 0
1, 665880, Note_on_c, 1, 96, 79
1, 666000, Note_on_c, 1, 96, 0
1, 666000, Note_on_c, 1, 92, 92
1, 666120, Note_on_c, 1, 92, 0
1, 666120, Note_on_c, 1, 89, 83
1, 666240, Note_on_c, 1, 89, 0
1, 666240, Note_on_c, 1, 84, 82
1, 666360, Note_on_c, 1, 84, 0
1, 666360, Note_on_c, 1, 80, 78
1, 666480, Note_on_c, 1, 80, 0
1, 666480, Note_on_c, 1, 77, 82
1, 666600, Note_on_c, 1, 77, 0
1, 666600, Note_on_c, 1, 84, 79
1, 666720, Note_on_c, 1, 84, 0
1, 666720, Note_on_c, 1, 80, 86
1, 666840, Note_on_c, 1, 80, 0
1, 666840, Note_on_c, 1, 77, 82
1, 666960, Note_on_c, 1, 77, 0
1, 666960, Note_on_c, 1, 72, 80
1, 667080, Note_on_c, 1, 72, 0
1, 667080, Note_on_c, 1, 68, 74
1, 667200, Note_on_c, 1, 68, 0
1, 667200, Note_on_c, 1, 65, 78
1, 667320, Note_on_c, 1, 65, 0
1, 667320, Note_on_c, 1, 72, 73
1, 667440, Note_on_c, 1, 72, 0
1, 667440, Note_on_c, 1, 68, 81
1, 667560, Note_on_c, 1, 68, 0
1, 667560, Note_on_c, 1, 65, 78
1, 667680, Note_on_c, 1, 65, 0
1, 667680, Note_on_c, 1, 60, 74
1, 667800, Note_on_c, 1, 60, 0
1, 667800, Note_on_c, 1, 56, 74
1, 667920, Note_on_c, 1, 56, 0
1, 667920, Note_on_c, 1, 53, 74
1, 668040, Note_on_c, 1, 53, 0
1, 668040, Note_on_c, 1, 60, 74
1, 668160, Note_on_c, 1, 60, 0
1, 668160, Note_on_c, 1, 56, 79
1, 668280, Note_on_c, 1, 56, 0
1, 668280, Note_on_c, 1, 53, 71
1, 668400, Note_on_c, 1, 53, 0
1, 668400, Note_on_c, 1, 48, 74
1, 668520, Note_on_c, 1, 48, 0
1, 668520, Note_on_c, 1, 44, 71
1, 668640, Note_on_c, 1, 44, 0
1, 668640, Note_on_c, 1, 41, 74
1, 668760, Note_on_c, 1, 41, 0
1, 668760, Note_on_c, 1, 36, 72
1, 668880, Note_on_c, 1, 36, 0
1, 668880, Note_on_c, 1, 41, 80
1, 669000, Note_on_c, 1, 41, 0
1, 669000, Note_on_c, 1, 44, 75
1, 669120, Note_on_c, 1, 44, 0
1, 669120, Note_on_c, 1, 48, 75
1, 669240, Note_on_c, 1, 48, 0
1, 669240, Note_on_c, 1, 53, 75
1, 669360, Note_on_c, 1, 53, 0
1, 669360, Note_on_c, 1, 56, 79
1, 669480, Note_on_c, 1, 56, 0
1, 669480, Note_on_c, 1, 60, 73
1, 669600, Note_on_c, 1, 60, 0
1, 669600, Note_on_c, 1, 65, 80
1, 669720, Note_on_c, 1, 65, 0
1, 669720, Note_on_c, 1, 68, 74
1, 669840, Note_on_c, 1, 68, 0
1, 669840, Note_on_c, 1, 72, 79
1, 669960, Note_on_c, 1, 72, 0
1, 669960, Note_on_c, 1, 77, 74
1, 670080, Note_on_c, 1, 77, 0
1, 670080, Note_on_c, 1, 80, 78
1, 670200, Note_on_c, 1, 80, 0
1, 670200, Note_on_c, 1, 84, 75
1, 670320, Note_on_c, 1, 84, 0
1, 670320, Note_on_c, 1, 89, 83
1, 670440, Note_on_c, 1, 89, 0
1, 670440, Note_on_c, 1, 92, 78
1, 670560, Note_on_c, 1, 92, 0
1, 670560, Note_on_c, 1, 96, 83
1, 670680, Note_on_c, 1, 96, 0
1, 670680, Note_on_c, 1, 92, 78
1, 670800, Note_on_c, 1, 92, 0
1, 670800, Note_on_c, 1, 89, 80
1, 670920, Note_on_c, 1, 89, 0
1, 670920, Note_on_c, 1, 84, 75
1, 671040, Note_on_c, 1, 84, 0
1, 671040, Note_on_c, 1, 36, 82
1, 671160, Note_on_c, 1, 36, 0
1, 671160, Note_on_c, 1, 48, 72
1, 671280, Note_on_c, 1, 48, 0
1, 671280, Note_on_c, 1, 52, 73
1, 671400, Note_on_c, 1, 52, 0
1, 671400, Note_on_c, 1, 91, 72
1, 671400, Note_on_c, 1, 55, 74
1, 671520, Note_on_c, 1, 55, 0
1, 671520, Note_on_c, 1, 91, 0
1, 671520, Note_on_c, 1, 88, 77
1, 671520, Note_on_c, 1, 58, 74
1, 671640, Note_on_c, 1, 88, 0
1, 671640, Note_on_c, 1, 94, 73
1, 671760, Note_on_c, 1, 94, 0
1, 671760, Note_on_c, 1, 58, 0
1, 671760, Note_on_c, 1, 91, 78
1, 671880, Note_on_c, 1, 91, 0
1, 671880, Note_on_c, 1, 88, 77
1, 672000, Note_on_c, 1, 88, 0
1, 672000, Note_on_c, 1, 84, 74
1, 672120, Note_on_c, 1, 84, 0
1, 672120, Note_on_c, 1, 82, 72
1, 672240, Note_on_c, 1, 82, 0
1, 672240, Note_on_c, 1, 79, 77
1, 672360, Note_on_c, 1, 79, 0
1, 672360, Note_on_c, 1, 76, 73
1, 672480, Note_on_c, 1, 76, 0
1, 672480, Note_on_c, 1, 72, 78
1, 672600, Note_on_c, 1, 72, 0
1, 672600, Note_on_c, 1, 70, 75
1, 672720, Note_on_c, 1, 70, 0
1, 672720, Note_on_c, 1, 67, 71
1, 672840, Note_on_c, 1, 67, 0
1, 672840, Note_on_c, 1, 64, 70
1, 672960, Note_on_c, 1, 64, 0
1, 672960, Note_on_c, 1, 60, 73
1, 673080, Note_on_c, 1, 60, 0
1, 673080, Note_on_c, 1, 58, 69
1, 673200, Note_on_c, 1, 58, 0
1, 673200, Note_on_c, 1, 55, 74
1, 673320, Note_on_c, 1, 55, 0
1, 673320, Note_on_c, 1, 52, 69
1, 673440, Note_on_c, 1, 52, 0
1, 673440, Note_on_c, 1, 48, 71
1, 673560, Note_on_c, 1, 48, 0
1, 673560, Note_on_c, 1, 46, 70
1, 673680, Note_on_c, 1, 46, 0
1, 673680, Note_on_c, 1, 43, 70
1, 673800, Note_on_c, 1, 43, 0
1, 673800, Note_on_c, 1, 40, 70
1, 673920, Note_on_c, 1, 40, 0
1, 673920, Note_on_c, 1, 36, 75
1, 674040, Note_on_c, 1, 36, 0
1, 674040, Note_on_c, 1, 40, 67
1, 674160, Note_on_c, 1, 40, 0
1, 674160, Note_on_c, 1, 43, 70
1, 674280, Note_on_c, 1, 43, 0
1, 674280, Note_on_c, 1, 46, 67
1, 674400, Note_on_c, 1, 46, 0
1, 674400, Note_on_c, 1, 48, 70
1, 674520, Note_on_c, 1, 48, 0
1, 674520, Note_on_c, 1, 52, 68
1, 674640, Note_on_c, 1, 52, 0
1, 674640, Note_on_c, 1, 55, 76
1, 674760, Note_on_c, 1, 55, 0
1, 674760, Note_on_c, 1, 58, 71
1, 674880, Note_on_c, 1, 58, 0
1, 674880, Note_on_c, 1, 60, 71
1, 675000, Note_on_c, 1, 60, 0
1, 675000, Note_on_c, 1, 64, 71
1, 675120, Note_on_c, 1, 64, 0
1, 675120, Note_on_c, 1, 67, 73
1, 675240, Note_on_c, 1, 67, 0
1, 675240, Note_on_c, 1, 70, 69
1, 675360, Note_on_c, 1, 70, 0
1, 675360, Note_on_c, 1, 72, 73
1, 675480, Note_on_c, 1, 72, 0
1, 675480, Note_on_c, 1, 76, 66
1, 675600, Note_on_c, 1, 76, 0
1, 675600, Note_on_c, 1, 79, 70
1, 675720, Note_on_c, 1, 79, 0
1, 675720, Note_on_c, 1, 76, 66
1, 675840, Note_on_c, 1, 76, 0
1, 675840, Note_on_c, 1, 72, 70
1, 675960, Note_on_c, 1, 72, 0
1, 675960, Note_on_c, 1, 76, 66
1, 676080, Note_on_c, 1, 76, 0
1, 676080, Note_on_c, 1, 79, 70
1, 676200, Note_on_c, 1, 79, 0
1, 676200, Note_on_c, 1, 76, 60
1, 676320, Note_on_c, 1, 76, 0
1, 676320, Note_on_c, 1, 82, 65
1, 676440, Note_on_c, 1, 82, 0
1, 676440, Note_on_c, 1, 79, 58
1, 676560, Note_on_c, 1, 79, 0
1, 676560, Note_on_c, 1, 76, 63
1, 676680, Note_on_c, 1, 76, 0
1, 676680, Note_on_c, 1, 79, 56
1, 676800, Note_on_c, 1, 79, 0
1, 676800, Note_on_c, 1, 82, 57
1, 677280, Note_on_c, 1, 82, 0
1, 677520, Note_on_c, 1, 49, 37
1, 677760, Note_on_c, 1, 49, 0
1, 677760, Note_on_c, 1, 49, 35
1, 678000, Note_on_c, 1, 49, 0
1, 678000, Note_on_c, 1, 49, 35
1, 678240, Note_on_c, 1, 49, 0
1, 678240, Note_on_c, 1, 48, 36
1, 678720, Note_on_c, 1, 48, 0
1, 678960, Note_on_c, 1, 79, 46
1, 678960, Note_on_c, 1, 76, 46
1, 679200, Note_on_c, 1, 76, 0
1, 679200, Note_on_c, 1, 79, 0
1, 679200, Note_on_c, 1, 76, 42
1, 679200, Note_on_c, 1, 79, 42
1, 679440, Note_on_c, 1, 79, 0
1, 679440, Note_on_c, 1, 76, 0
1, 679440, Note_on_c, 1, 76, 46
1, 679440, Note_on_c, 1, 79, 46
1, 679680, Note_on_c, 1, 79, 0
1, 679680, Note_on_c, 1, 76, 0
1, 679680, Note_on_c, 1, 82, 46
1, 679680, Note_on_c, 1, 79, 46
1, 680160, Note_on_c, 1, 79, 0
1, 680160, Note_on_c, 1, 82, 0
1, 680400, Note_on_c, 1, 49, 35
1, 680640, Note_on_c, 1, 49, 0
1, 680640, Note_on_c, 1, 49, 33
1, 680880, Note_on_c, 1, 49, 0
1, 680880, Note_on_c, 1, 49, 33
1, 681120, Note_on_c, 1, 49, 0
1, 681120, Note_on_c, 1, 48, 34
1, 681600, Note_on_c, 1, 48, 0
1, 681840, Note_on_c, 1, 64, 39
1, 681840, Note_on_c, 1, 67, 39
1, 682080, Note_on_c, 1, 67, 0
1, 682080, Note_on_c, 1, 64, 0
1, 682080, Note_on_c, 1, 64, 37
1, 682080, Note_on_c, 1, 67, 37
1, 682320, Note_on_c, 1, 67, 0
1, 682320, Note_on_c, 1, 64, 0
1, 682320, Note_on_c, 1, 67, 37
1, 682320, Note_on_c, 1, 64, 37
1, 682560, Note_on_c, 1, 64, 0
1, 682560, Note_on_c, 1, 67, 0
1, 682560, Note_on_c, 1, 67, 41
1, 682560, Note_on_c, 1, 70, 41
1, 683040, Note_on_c, 1, 70, 0
1, 683040, Note_on_c, 1, 67, 0
1, 683280, Note_on_c, 1, 37, 32
1, 683520, Note_on_c, 1, 37, 0
1, 683520, Note_on_c, 1, 37, 30
1, 683760, Note_on_c, 1, 37, 0
1, 683760, Note_on_c, 1, 37, 30
1, 684000, Note_on_c, 1, 37, 0
1, 684000, Note_on_c, 1, 36, 31
1, 684720, Note_on_c, 1, 36, 0
1, 684720, Note_on_c, 1, 37, 31
1, 684960, Note_on_c, 1, 37, 0
1, 684960, Note_on_c, 1, 37, 29
1, 685200, Note_on_c, 1, 37, 0
1, 685200, Note_on_c, 1, 37, 29
1, 685440, Note_on_c, 1, 37, 0
1, 685440, Note_on_c, 1, 36, 29
1, 686160, Note_on_c, 1, 36, 0
1, 686160, Note_on_c, 1, 70, 32
1, 686160, Note_on_c, 1, 67, 32
1, 686160, Note_on_c, 1, 76, 32
1, 686160, Note_on_c, 1, 37, 21
1, 686400, Note_on_c, 1, 37, 0
1, 686400, Note_on_c, 1, 70, 0
1, 686400, Note_on_c, 1, 67, 0
1, 686400, Note_on_c, 1, 76, 0
1, 686400, Note_on_c, 1, 76, 36
1, 686400, Note_on_c, 1, 70, 36
1, 686400, Note_on_c, 1, 67, 36
1, 686400, Note_on_c, 1, 37, 24
1, 686640, Note_on_c, 1, 37, 0
1, 686640, Note_on_c, 1, 76, 0
1, 686640, Note_on_c, 1, 70, 0
1, 686640, Note_on_c, 1, 67, 0
1, 686640, Note_on_c, 1, 76, 39
1, 686640, Note_on_c, 1, 67, 39
1, 686640, Note_on_c, 1, 70, 39
1, 686640, Note_on_c, 1, 37, 26
1, 686880, Note_on_c, 1, 37, 0
1, 686880, Note_on_c, 1, 76, 0
1, 686880, Note_on_c, 1, 67, 0
1, 686880, Note_on_c, 1, 70, 0
1, 686880, Note_on_c, 1, 76, 43
1, 686880, Note_on_c, 1, 70, 43
1, 686880, Note_on_c, 1, 67, 43
1, 686880, Note_on_c, 1, 36, 28
1, 687600, Note_on_c, 1, 36, 0
1, 687600, Note_on_c, 1, 76, 0
1, 687600, Note_on_c, 1, 70, 0
1, 687600, Note_on_c, 1, 67, 0
1, 687600, Note_on_c, 1, 84, 87
1, 687600, Note_on_c, 1, 82, 87
1, 687600, Note_on_c, 1, 79, 87
1, 687600, Note_on_c, 1, 76, 87
1, 687600, Note_on_c, 1, 88, 102
1, 687600, Note_on_c, 1, 36, 70
1, 687600, Note_on_c, 1, 48, 83
1, 687840, Note_on_c, 1, 48, 0
1, 687840, Note_on_c, 1, 88, 0
1, 687840, Note_on_c, 1, 82, 0
1, 687840, Note_on_c, 1, 79, 0
1, 687840, Note_on_c, 1, 84, 0
1, 687840, Note_on_c, 1, 36, 0
1, 687840, Note_on_c, 1, 76, 0
1, 687840, Note_on_c, 1, 76, 78
1, 687840, Note_on_c, 1, 84, 78
1, 687840, Note_on_c, 1, 79, 78
1, 687840, Note_on_c, 1, 88, 93
1, 687840, Note_on_c, 1, 82, 78
1, 687840, Note_on_c, 1, 48, 78
1, 687840, Note_on_c, 1, 36, 65
1, 688080, Note_on_c, 1, 36, 0
1, 688080, Note_on_c, 1, 82, 0
1, 688080, Note_on_c, 1, 84, 0
1, 688080, Note_on_c, 1, 79, 0
1, 688080, Note_on_c, 1, 76, 0
1, 688080, Note_on_c, 1, 48, 0
1, 688080, Note_on_c, 1, 88, 0
1, 688080, Note_on_c, 1, 79, 78
1, 688080, Note_on_c, 1, 76, 78
1, 688080, Note_on_c, 1, 82, 78
1, 688080, Note_on_c, 1, 84, 78
1, 688080, Note_on_c, 1, 88, 93
1, 688080, Note_on_c, 1, 48, 78
1, 688080, Note_on_c, 1, 36, 65
1, 688320, Note_on_c, 1, 36, 0
1, 688320, Note_on_c, 1, 88, 0
1, 688320, Note_on_c, 1, 76, 0
1, 688320, Note_on_c, 1, 82, 0
1, 688320, Note_on_c, 1, 79, 0
1, 688320, Note_on_c, 1, 48, 0
1, 688320, Note_on_c, 1, 84, 0
1, 688320, Note_on_c, 1, 84, 87
1, 688320, Note_on_c, 1, 80, 87
1, 688320, Note_on_c, 1, 89, 102
1, 688320, Note_on_c, 1, 77, 87
1, 688320, Note_on_c, 1, 29, 71
1, 688320, Note_on_c, 1, 41, 85
1, 688560, Note_on_c, 1, 41, 0
1, 688560, Note_on_c, 1, 29, 0
1, 688560, Note_on_c, 1, 65, 30
1, 688560, Note_on_c, 1, 60, 30
1, 688800, Note_on_c, 1, 60, 0
1, 688800, Note_on_c, 1, 80, 0
1, 688800, Note_on_c, 1, 77, 0
1, 688800, Note_on_c, 1, 84, 0
1, 688800, Note_on_c, 1, 65, 0
1, 688800, Note_on_c, 1, 89, 0
1, 688800, Note_on_c, 1, 56, 37
1, 689040, Note_on_c, 1, 56, 0
1, 689040, Note_on_c, 1, 65, 42
1, 689040, Note_on_c, 1, 60, 32
1, 689280, Note_on_c, 1, 60, 0
1, 689280, Note_on_c, 1, 65, 0
1, 689280, Note_on_c, 1, 56, 37
1, 689520, Note_on_c, 1, 56, 0
1, 689520, Note_on_c, 1, 60, 30
1, 689520, Note_on_c, 1, 65, 37
1, 689760, Note_on_c, 1, 65, 0
1, 689760, Note_on_c, 1, 60, 0
1, 689760, Note_on_c, 1, 56, 42
1, 690000, Note_on_c, 1, 56, 0
1, 690000, Note_on_c, 1, 65, 37
1, 690000, Note_on_c, 1, 60, 30
1, 690240, Note_on_c, 1, 60, 0
1, 690240, Note_on_c, 1, 65, 0
1, 690240, Note_on_c, 1, 56, 37
1, 690480, Note_on_c, 1, 56, 0
1, 690480, Note_on_c, 1, 68, 66
1, 690480, Note_on_c, 1, 65, 42
1, 690480, Note_on_c, 1, 60, 32
1, 690720, Note_on_c, 1, 60, 0
1, 690720, Note_on_c, 1, 65, 0
1, 690720, Note_on_c, 1, 56, 37
1, 690960, Note_on_c, 1, 56, 0
1, 690960, Note_on_c, 1, 65, 41
1, 690960, Note_on_c, 1, 60, 31
1, 691080, Note_on_c, 1, 68, 0
1, 691080, Note_on_c, 1, 72, 58
1, 691200, Note_on_c, 1, 72, 0
1, 691200, Note_on_c, 1, 60, 0
1, 691200, Note_on_c, 1, 65, 0
1, 691200, Note_on_c, 1, 77, 63
1, 691200, Note_on_c, 1, 56, 42
1, 691440, Note_on_c, 1, 56, 0
1, 691440, Note_on_c, 1, 60, 30
1, 691440, Note_on_c, 1, 65, 36
1, 691680, Note_on_c, 1, 65, 0
1, 691680, Note_on_c, 1, 60, 0
1, 691680, Note_on_c, 1, 56, 37
1, 691920, Note_on_c, 1, 56, 0
1, 691920, Note_on_c, 1, 77, 0
1, 691920, Note_on_c, 1, 80, 68
1, 691920, Note_on_c, 1, 65, 42
1, 691920, Note_on_c, 1, 60, 32
1, 692160, Note_on_c, 1, 60, 0
1, 692160, Note_on_c, 1, 65, 0
1, 692160, Note_on_c, 1, 56, 37
1, 692400, Note_on_c, 1, 56, 0
1, 692400, Note_on_c, 1, 65, 37
1, 692400, Note_on_c, 1, 60, 30
1, 692520, Note_on_c, 1, 80, 0
1, 692520, Note_on_c, 1, 77, 60
1, 692640, Note_on_c, 1, 77, 0
1, 692640, Note_on_c, 1, 60, 0
1, 692640, Note_on_c, 1, 65, 0
1, 692640, Note_on_c, 1, 76, 63
1, 692640, Note_on_c, 1, 58, 42
1, 692880, Note_on_c, 1, 58, 0
1, 692880, Note_on_c, 1, 67, 37
1, 692880, Note_on_c, 1, 60, 30
1, 693120, Note_on_c, 1, 60, 0
1, 693120, Note_on_c, 1, 67, 0
1, 693120, Note_on_c, 1, 58, 37
1, 693360, Note_on_c, 1, 58, 0
1, 693360, Note_on_c, 1, 76, 0
1, 693360, Note_on_c, 1, 79, 68
1, 693360, Note_on_c, 1, 67, 42
1, 693360, Note_on_c, 1, 60, 32
1, 693600, Note_on_c, 1, 60, 0
1, 693600, Note_on_c, 1, 67, 0
1, 693600, Note_on_c, 1, 58, 37
1, 693840, Note_on_c, 1, 58, 0
1, 693840, Note_on_c, 1, 67, 41
1, 693840, Note_on_c, 1, 60, 31
1, 693960, Note_on_c, 1, 79, 0
1, 693960, Note_on_c, 1, 76, 60
1, 694080, Note_on_c, 1, 76, 0
1, 694080, Note_on_c, 1, 60, 0
1, 694080, Note_on_c, 1, 67, 0
1, 694080, Note_on_c, 1, 77, 63
1, 694080, Note_on_c, 1, 56, 42
1, 694320, Note_on_c, 1, 56, 0
1, 694320, Note_on_c, 1, 60, 30
1, 694320, Note_on_c, 1, 65, 36
1, 694560, Note_on_c, 1, 65, 0
1, 694560, Note_on_c, 1, 60, 0
1, 694560, Note_on_c, 1, 56, 37
1, 694800, Note_on_c, 1, 56, 0
1, 694800, Note_on_c, 1, 77, 0
1, 694800, Note_on_c, 1, 72, 62
1, 694800, Note_on_c, 1, 60, 32
1, 694800, Note_on_c, 1, 65, 42
1, 695040, Note_on_c, 1, 65, 0
1, 695040, Note_on_c, 1, 60, 0
1, 695040, Note_on_c, 1, 56, 37
1, 695280, Note_on_c, 1, 56, 0
1, 695280, Note_on_c, 1, 60, 30
1, 695280, Note_on_c, 1, 65, 37
1, 695520, Note_on_c, 1, 65, 0
1, 695520, Note_on_c, 1, 60, 0
1, 695520, Note_on_c, 1, 56, 42
1, 695760, Note_on_c, 1, 56, 0
1, 695760, Note_on_c, 1, 60, 30
1, 695760, Note_on_c, 1, 65, 37
1, 696000, Note_on_c, 1, 65, 0
1, 696000, Note_on_c, 1, 60, 0
1, 696000, Note_on_c, 1, 56, 42
1, 696240, Note_on_c, 1, 56, 0
1, 696240, Note_on_c, 1, 72, 0
1, 696240, Note_on_c, 1, 80, 71
1, 696240, Note_on_c, 1, 68, 60
1, 696240, Note_on_c, 1, 60, 34
1, 696240, Note_on_c, 1, 65, 44
1, 696480, Note_on_c, 1, 65, 0
1, 696480, Note_on_c, 1, 60, 0
1, 696480, Note_on_c, 1, 56, 40
1, 696720, Note_on_c, 1, 56, 0
1, 696720, Note_on_c, 1, 60, 33
1, 696720, Note_on_c, 1, 65, 44
1, 696840, Note_on_c, 1, 68, 0
1, 696840, Note_on_c, 1, 80, 0
1, 696840, Note_on_c, 1, 84, 62
1, 696840, Note_on_c, 1, 72, 52
1, 696960, Note_on_c, 1, 72, 0
1, 696960, Note_on_c, 1, 65, 0
1, 696960, Note_on_c, 1, 60, 0
1, 696960, Note_on_c, 1, 84, 0
1, 696960, Note_on_c, 1, 77, 61
1, 696960, Note_on_c, 1, 89, 73
1, 696960, Note_on_c, 1, 56, 46
1, 697200, Note_on_c, 1, 56, 0
1, 697200, Note_on_c, 1, 68, 40
1, 697200, Note_on_c, 1, 60, 34
1, 697200, Note_on_c, 1, 65, 40
1, 697440, Note_on_c, 1, 65, 0
1, 697440, Note_on_c, 1, 68, 0
1, 697440, Note_on_c, 1, 60, 0
1, 697440, Note_on_c, 1, 56, 42
1, 697680, Note_on_c, 1, 56, 0
1, 697680, Note_on_c, 1, 89, 0
1, 697680, Note_on_c, 1, 77, 0
1, 697680, Note_on_c, 1, 92, 78
1, 697680, Note_on_c, 1, 80, 65
1, 697680, Note_on_c, 1, 68, 47
1, 697680, Note_on_c, 1, 60, 36
1, 697680, Note_on_c, 1, 65, 47
1, 697920, Note_on_c, 1, 65, 0
1, 697920, Note_on_c, 1, 68, 0
1, 697920, Note_on_c, 1, 60, 0
1, 697920, Note_on_c, 1, 56, 43
1, 698160, Note_on_c, 1, 56, 0
1, 698160, Note_on_c, 1, 68, 44
1, 698160, Note_on_c, 1, 65, 44
1, 698160, Note_on_c, 1, 60, 36
1, 698280, Note_on_c, 1, 80, 0
1, 698280, Note_on_c, 1, 92, 0
1, 698280, Note_on_c, 1, 89, 71
1, 698280, Note_on_c, 1, 77, 59
1, 698400, Note_on_c, 1, 77, 0
1, 698400, Note_on_c, 1, 65, 0
1, 698400, Note_on_c, 1, 60, 0
1, 698400, Note_on_c, 1, 68, 0
1, 698400, Note_on_c, 1, 89, 0
1, 698400, Note_on_c, 1, 88, 76
1, 698400, Note_on_c, 1, 76, 64
1, 698400, Note_on_c, 1, 58, 49
1, 698640, Note_on_c, 1, 58, 0
1, 698640, Note_on_c, 1, 64, 36
1, 698640, Note_on_c, 1, 60, 36
1, 698640, Note_on_c, 1, 67, 45
1, 698880, Note_on_c, 1, 67, 0
1, 698880, Note_on_c, 1, 64, 0
1, 698880, Note_on_c, 1, 60, 0
1, 698880, Note_on_c, 1, 58, 46
1, 699120, Note_on_c, 1, 58, 0
1, 699120, Note_on_c, 1, 76, 0
1, 699120, Note_on_c, 1, 88, 0
1, 699120, Note_on_c, 1, 91, 82
1, 699120, Note_on_c, 1, 79, 68
1, 699120, Note_on_c, 1, 64, 39
1, 699120, Note_on_c, 1, 67, 51
1, 699120, Note_on_c, 1, 60, 39
1, 699360, Note_on_c, 1, 60, 0
1, 699360, Note_on_c, 1, 64, 0
1, 699360, Note_on_c, 1, 67, 0
1, 699360, Note_on_c, 1, 58, 47
1, 699600, Note_on_c, 1, 58, 0
1, 699600, Note_on_c, 1, 64, 38
1, 699600, Note_on_c, 1, 67, 51
1, 699600, Note_on_c, 1, 60, 38
1, 699720, Note_on_c, 1, 79, 0
1, 699720, Note_on_c, 1, 91, 0
1, 699720, Note_on_c, 1, 88, 77
1, 699720, Note_on_c, 1, 76, 65
1, 699840, Note_on_c, 1, 76, 0
1, 699840, Note_on_c, 1, 67, 0
1, 699840, Note_on_c, 1, 60, 0
1, 699840, Note_on_c, 1, 64, 0
1, 699840, Note_on_c, 1, 88, 0
1, 699840, Note_on_c, 1, 90, 99
1, 699840, Note_on_c, 1, 78, 82
1, 699840, Note_on_c, 1, 57, 55
1, 700080, Note_on_c, 1, 57, 0
1, 700080, Note_on_c, 1, 66, 48
1, 700080, Note_on_c, 1, 63, 48
1, 700080, Note_on_c, 1, 60, 39
1, 700320, Note_on_c, 1, 60, 0
1, 700320, Note_on_c, 1, 66, 0
1, 700320, Note_on_c, 1, 63, 0
1, 700320, Note_on_c, 1, 57, 49
1, 700560, Note_on_c, 1, 57, 0
1, 700560, Note_on_c, 1, 78, 0
1, 700560, Note_on_c, 1, 90, 0
1, 700560, Note_on_c, 1, 72, 63
1, 700560, Note_on_c, 1, 84, 79
1, 700560, Note_on_c, 1, 66, 55
1, 700560, Note_on_c, 1, 60, 41
1, 700560, Note_on_c, 1, 63, 55
1, 700800, Note_on_c, 1, 63, 0
1, 700800, Note_on_c, 1, 66, 0
1, 700800, Note_on_c, 1, 60, 0
1, 700800, Note_on_c, 1, 57, 49
1, 701040, Note_on_c, 1, 57, 0
1, 701040, Note_on_c, 1, 60, 39
1, 701040, Note_on_c, 1, 63, 49
1, 701040, Note_on_c, 1, 66, 49
1, 701280, Note_on_c, 1, 66, 0
1, 701280, Note_on_c, 1, 60, 0
1, 701280, Note_on_c, 1, 63, 0
1, 701280, Note_on_c, 1, 57, 55
1, 701520, Note_on_c, 1, 57, 0
1, 701520, Note_on_c, 1, 66, 49
1, 701520, Note_on_c, 1, 60, 39
1, 701520, Note_on_c, 1, 63, 49
1, 701760, Note_on_c, 1, 63, 0
1, 701760, Note_on_c, 1, 66, 0
1, 701760, Note_on_c, 1, 60, 0
1, 701760, Note_on_c, 1, 57, 55
1, 702000, Note_on_c, 1, 57, 0
1, 702000, Note_on_c, 1, 84, 0
1, 702000, Note_on_c, 1, 72, 0
1, 702000, Note_on_c, 1, 75, 70
1, 702000, Note_on_c, 1, 87, 84
1, 702000, Note_on_c, 1, 63, 40
1, 702000, Note_on_c, 1, 66, 53
1, 702000, Note_on_c, 1, 60, 40
1, 702240, Note_on_c, 1, 60, 0
1, 702240, Note_on_c, 1, 63, 0
1, 702240, Note_on_c, 1, 66, 0
1, 702240, Note_on_c, 1, 57, 48
1, 702480, Note_on_c, 1, 57, 0
1, 702480, Note_on_c, 1, 63, 39
1, 702480, Note_on_c, 1, 66, 52
1, 702480, Note_on_c, 1, 60, 39
1, 702600, Note_on_c, 1, 87, 0
1, 702600, Note_on_c, 1, 75, 0
1, 702600, Note_on_c, 1, 72, 66
1, 702600, Note_on_c, 1, 84, 78
1, 702720, Note_on_c, 1, 84, 0
1, 702720, Note_on_c, 1, 66, 0
1, 702720, Note_on_c, 1, 60, 0
1, 702720, Note_on_c, 1, 63, 0
1, 702720, Note_on_c, 1, 72, 0
1, 702720, Note_on_c, 1, 89, 99
1, 702720, Note_on_c, 1, 77, 82
1, 702720, Note_on_c, 1, 57, 55
1, 702960, Note_on_c, 1, 57, 0
1, 702960, Note_on_c, 1, 65, 48
1, 702960, Note_on_c, 1, 63, 48
1, 702960, Note_on_c, 1, 60, 39
1, 703200, Note_on_c, 1, 60, 0
1, 703200, Note_on_c, 1, 65, 0
1, 703200, Note_on_c, 1, 63, 0
1, 703200, Note_on_c, 1, 57, 49
1, 703440, Note_on_c, 1, 57, 0
1, 703440, Note_on_c, 1, 77, 0
1, 703440, Note_on_c, 1, 89, 0
1, 703440, Note_on_c, 1, 70, 63
1, 703440, Note_on_c, 1, 82, 79
1, 703440, Note_on_c, 1, 65, 55
1, 703440, Note_on_c, 1, 61, 55
1, 703680, Note_on_c, 1, 61, 0
1, 703680, Note_on_c, 1, 65, 0
1, 703680, Note_on_c, 1, 58, 49
1, 703920, Note_on_c, 1, 58, 0
1, 703920, Note_on_c, 1, 61, 49
1, 703920, Note_on_c, 1, 65, 49
1, 704160, Note_on_c, 1, 65, 0
1, 704160, Note_on_c, 1, 61, 0
1, 704160, Note_on_c, 1, 58, 55
1, 704400, Note_on_c, 1, 58, 0
1, 704400, Note_on_c, 1, 65, 49
1, 704400, Note_on_c, 1, 61, 49
1, 704640, Note_on_c, 1, 61, 0
1, 704640, Note_on_c, 1, 65, 0
1, 704640, Note_on_c, 1, 58, 55
1, 704880, Note_on_c, 1, 58, 0
1, 704880, Note_on_c, 1, 82, 0
1, 704880, Note_on_c, 1, 70, 0
1, 704880, Note_on_c, 1, 73, 70
1, 704880, Note_on_c, 1, 85, 84
1, 704880, Note_on_c, 1, 67, 53
1, 704880, Note_on_c, 1, 64, 40
1, 705120, Note_on_c, 1, 64, 0
1, 705120, Note_on_c, 1, 67, 0
1, 705120, Note_on_c, 1, 58, 48
1, 705360, Note_on_c, 1, 58, 0
1, 705360, Note_on_c, 1, 64, 39
1, 705360, Note_on_c, 1, 67, 52
1, 705480, Note_on_c, 1, 85, 0
1, 705480, Note_on_c, 1, 73, 0
1, 705480, Note_on_c, 1, 82, 78
1, 705480, Note_on_c, 1, 70, 66
1, 705600, Note_on_c, 1, 70, 0
1, 705600, Note_on_c, 1, 67, 0
1, 705600, Note_on_c, 1, 64, 0
1, 705600, Note_on_c, 1, 82, 0
1, 705600, Note_on_c, 1, 68, 75
1, 705600, Note_on_c, 1, 80, 90
1, 705600, Note_on_c, 1, 48, 55
1, 705840, Note_on_c, 1, 48, 0
1, 705840, Note_on_c, 1, 53, 39
1, 705840, Note_on_c, 1, 56, 48
1, 705840, Note_on_c, 1, 60, 48
1, 706080, Note_on_c, 1, 60, 0
1, 706080, Note_on_c, 1, 53, 0
1, 706080, Note_on_c, 1, 56, 0
1, 706080, Note_on_c, 1, 48, 49
1, 706320, Note_on_c, 1, 48, 0
1, 706320, Note_on_c, 1, 80, 0
1, 706320, Note_on_c, 1, 68, 0
1, 706320, Note_on_c, 1, 84, 84
1, 706320, Note_on_c, 1, 72, 70
1, 706320, Note_on_c, 1, 56, 40
1, 706320, Note_on_c, 1, 60, 53
1, 706320, Note_on_c, 1, 53, 40
1, 706560, Note_on_c, 1, 53, 0
1, 706560, Note_on_c, 1, 56, 0
1, 706560, Note_on_c, 1, 60, 0
1, 706560, Note_on_c, 1, 48, 48
1, 706800, Note_on_c, 1, 48, 0
1, 706800, Note_on_c, 1, 56, 39
1, 706800, Note_on_c, 1, 53, 39
1, 706800, Note_on_c, 1, 60, 52
1, 706920, Note_on_c, 1, 72, 0
1, 706920, Note_on_c, 1, 84, 0
1, 706920, Note_on_c, 1, 80, 78
1, 706920, Note_on_c, 1, 68, 66
1, 707040, Note_on_c, 1, 68, 0
1, 707040, Note_on_c, 1, 53, 0
1, 707040, Note_on_c, 1, 60, 0
1, 707040, Note_on_c, 1, 56, 0
1, 707040, Note_on_c, 1, 80, 0
1, 707040, Note_on_c, 1, 79, 90
1, 707040, Note_on_c, 1, 67, 75
1, 707040, Note_on_c, 1, 46, 55
1, 707280, Note_on_c, 1, 46, 0
1, 707280, Note_on_c, 1, 48, 39
1, 707280, Note_on_c, 1, 52, 48
1, 707280, Note_on_c, 1, 55, 48
1, 707520, Note_on_c, 1, 55, 0
1, 707520, Note_on_c, 1, 48, 0
1, 707520, Note_on_c, 1, 52, 0
1, 707520, Note_on_c, 1, 46, 49
1, 707760, Note_on_c, 1, 46, 0
1, 707760, Note_on_c, 1, 67, 0
1, 707760, Note_on_c, 1, 79, 0
1, 707760, Note_on_c, 1, 79, 77
1, 707760, Note_on_c, 1, 91, 92
1, 707760, Note_on_c, 1, 52, 39
1, 707760, Note_on_c, 1, 48, 39
1, 707760, Note_on_c, 1, 55, 51
1, 708000, Note_on_c, 1, 55, 0
1, 708000, Note_on_c, 1, 52, 0
1, 708000, Note_on_c, 1, 48, 0
1, 708000, Note_on_c, 1, 46, 47
1, 708240, Note_on_c, 1, 46, 0
1, 708240, Note_on_c, 1, 55, 50
1, 708240, Note_on_c, 1, 48, 38
1, 708240, Note_on_c, 1, 52, 38
1, 708360, Note_on_c, 1, 91, 0
1, 708360, Note_on_c, 1, 79, 0
1, 708360, Note_on_c, 1, 76, 72
1, 708360, Note_on_c, 1, 88, 85
1, 708460, Note_on_c, 1, 78, 84
1, 708460, Note_on_c, 1, 90, 103
1, 708480, Note_on_c, 1, 88, 0
1, 708480, Note_on_c, 1, 76, 0
1, 708480, Note_on_c, 1, 52, 0
1, 708480, Note_on_c, 1, 48, 0
1, 708480, Note_on_c, 1, 55, 0
1, 708480, Note_on_c, 1, 45, 53
1, 708720, Note_on_c, 1, 45, 0
1, 708720, Note_on_c, 1, 51, 38
1, 708720, Note_on_c, 1, 57, 47
1, 708720, Note_on_c, 1, 54, 47
1, 708940, Note_on_c, 1, 45, 48
1, 708960, Note_on_c, 1, 54, 0
1, 708960, Note_on_c, 1, 57, 0
1, 708960, Note_on_c, 1, 51, 0
1, 709180, Note_on_c, 1, 78, 0
1, 709180, Note_on_c, 1, 45, 0
1, 709180, Note_on_c, 1, 90, 0
1, 709200, Note_on_c, 1, 72, 69
1, 709200, Note_on_c, 1, 84, 86
1, 709200, Note_on_c, 1, 51, 53
1, 709200, Note_on_c, 1, 57, 53
1, 709200, Note_on_c, 1, 54, 53
1, 709440, Note_on_c, 1, 54, 0
1, 709440, Note_on_c, 1, 51, 0
1, 709440, Note_on_c, 1, 57, 0
1, 709440, Note_on_c, 1, 45, 48
1, 709680, Note_on_c, 1, 45, 0
1, 709680, Note_on_c, 1, 51, 48
1, 709680, Note_on_c, 1, 57, 48
1, 709680, Note_on_c, 1, 54, 48
1, 709920, Note_on_c, 1, 54, 0
1, 709920, Note_on_c, 1, 51, 0
1, 709920, Note_on_c, 1, 57, 0
1, 709920, Note_on_c, 1, 45, 53
1, 710160, Note_on_c, 1, 45, 0
1, 710160, Note_on_c, 1, 51, 48
1, 710160, Note_on_c, 1, 57, 48
1, 710160, Note_on_c, 1, 54, 48
1, 710400, Note_on_c, 1, 54, 0
1, 710400, Note_on_c, 1, 51, 0
1, 710400, Note_on_c, 1, 57, 0
1, 710400, Note_on_c, 1, 45, 53
1, 710640, Note_on_c, 1, 45, 0
1, 710640, Note_on_c, 1, 84, 0
1, 710640, Note_on_c, 1, 72, 0
1, 710640, Note_on_c, 1, 87, 92
1, 710640, Note_on_c, 1, 75, 77
1, 710640, Note_on_c, 1, 54, 45
1, 710640, Note_on_c, 1, 57, 59
1, 710640, Note_on_c, 1, 51, 45
1, 710880, Note_on_c, 1, 51, 0
1, 710880, Note_on_c, 1, 54, 0
1, 710880, Note_on_c, 1, 57, 0
1, 710880, Note_on_c, 1, 45, 49
1, 711120, Note_on_c, 1, 45, 0
1, 711120, Note_on_c, 1, 54, 39
1, 711120, Note_on_c, 1, 57, 55
1, 711120, Note_on_c, 1, 51, 39
1, 711240, Note_on_c, 1, 75, 0
1, 711240, Note_on_c, 1, 87, 0
1, 711240, Note_on_c, 1, 72, 72
1, 711240, Note_on_c, 1, 84, 85
1, 711360, Note_on_c, 1, 84, 0
1, 711360, Note_on_c, 1, 57, 0
1, 711360, Note_on_c, 1, 51, 0
1, 711360, Note_on_c, 1, 54, 0
1, 711360, Note_on_c, 1, 72, 0
1, 711360, Note_on_c, 1, 89, 103
1, 711360, Note_on_c, 1, 77, 84
1, 711360, Note_on_c, 1, 45, 57
1, 711600, Note_on_c, 1, 45, 0
1, 711600, Note_on_c, 1, 57, 49
1, 711600, Note_on_c, 1, 53, 49
1, 711600, Note_on_c, 1, 51, 39
1, 711840, Note_on_c, 1, 51, 0
1, 711840, Note_on_c, 1, 57, 0
1, 711840, Note_on_c, 1, 53, 0
1, 711840, Note_on_c, 1, 45, 49
1, 712080, Note_on_c, 1, 45, 0
1, 712080, Note_on_c, 1, 77, 0
1, 712080, Note_on_c, 1, 89, 0
1, 712080, Note_on_c, 1, 82, 86
1, 712080, Note_on_c, 1, 70, 69
1, 712080, Note_on_c, 1, 49, 57
1, 712080, Note_on_c, 1, 53, 57
1, 712080, Note_on_c, 1, 58, 57
1, 712320, Note_on_c, 1, 58, 0
1, 712320, Note_on_c, 1, 49, 0
1, 712320, Note_on_c, 1, 53, 0
1, 712320, Note_on_c, 1, 46, 49
1, 712560, Note_on_c, 1, 46, 0
1, 712560, Note_on_c, 1, 49, 49
1, 712560, Note_on_c, 1, 53, 49
1, 712560, Note_on_c, 1, 58, 49
1, 712800, Note_on_c, 1, 58, 0
1, 712800, Note_on_c, 1, 49, 0
1, 712800, Note_on_c, 1, 53, 0
1, 712800, Note_on_c, 1, 46, 57
1, 713040, Note_on_c, 1, 46, 0
1, 713040, Note_on_c, 1, 49, 49
1, 713040, Note_on_c, 1, 53, 49
1, 713040, Note_on_c, 1, 58, 49
1, 713280, Note_on_c, 1, 58, 0
1, 713280, Note_on_c, 1, 49, 0
1, 713280, Note_on_c, 1, 53, 0
1, 713280, Note_on_c, 1, 46, 57
1, 713520, Note_on_c, 1, 46, 0
1, 713520, Note_on_c, 1, 70, 0
1, 713520, Note_on_c, 1, 82, 0
1, 713520, Note_on_c, 1, 73, 77
1, 713520, Note_on_c, 1, 85, 92
1, 713520, Note_on_c, 1, 55, 56
1, 713520, Note_on_c, 1, 58, 56
1, 713520, Note_on_c, 1, 52, 40
1, 713760, Note_on_c, 1, 52, 0
1, 713760, Note_on_c, 1, 55, 0
1, 713760, Note_on_c, 1, 58, 0
1, 713760, Note_on_c, 1, 46, 49
1, 714000, Note_on_c, 1, 46, 0
1, 714000, Note_on_c, 1, 52, 39
1, 714000, Note_on_c, 1, 58, 55
1, 714000, Note_on_c, 1, 55, 55
1, 714120, Note_on_c, 1, 85, 0
1, 714120, Note_on_c, 1, 73, 0
1, 714120, Note_on_c, 1, 70, 72
1, 714120, Note_on_c, 1, 82, 85
1, 714240, Note_on_c, 1, 82, 0
1, 714240, Note_on_c, 1, 58, 0
1, 714240, Note_on_c, 1, 55, 0
1, 714240, Note_on_c, 1, 52, 0
1, 714240, Note_on_c, 1, 70, 0
1, 714240, Note_on_c, 1, 68, 82
1, 714240, Note_on_c, 1, 80, 99
1, 714240, Note_on_c, 1, 48, 57
1, 714480, Note_on_c, 1, 48, 0
1, 714480, Note_on_c, 1, 60, 49
1, 714480, Note_on_c, 1, 56, 49
1, 714480, Note_on_c, 1, 53, 39
1, 714720, Note_on_c, 1, 53, 0
1, 714720, Note_on_c, 1, 60, 0
1, 714720, Note_on_c, 1, 56, 0
1, 714720, Note_on_c, 1, 48, 49
1, 714960, Note_on_c, 1, 48, 0
1, 714960, Note_on_c, 1, 80, 0
1, 714960, Note_on_c, 1, 68, 0
1, 714960, Note_on_c, 1, 84, 92
1, 714960, Note_on_c, 1, 72, 77
1, 714960, Note_on_c, 1, 53, 40
1, 714960, Note_on_c, 1, 60, 56
1, 714960, Note_on_c, 1, 56, 40
1, 715200, Note_on_c, 1, 56, 0
1, 715200, Note_on_c, 1, 53, 0
1, 715200, Note_on_c, 1, 60, 0
1, 715200, Note_on_c, 1, 48, 49
1, 715440, Note_on_c, 1, 48, 0
1, 715440, Note_on_c, 1, 53, 39
1, 715440, Note_on_c, 1, 60, 55
1, 715440, Note_on_c, 1, 56, 39
1, 715560, Note_on_c, 1, 72, 0
1, 715560, Note_on_c, 1, 84, 0
1, 715560, Note_on_c, 1, 80, 85
1, 715560, Note_on_c, 1, 68, 72
1, 715680, Note_on_c, 1, 68, 0
1, 715680, Note_on_c, 1, 60, 0
1, 715680, Note_on_c, 1, 56, 0
1, 715680, Note_on_c, 1, 53, 0
1, 715680, Note_on_c, 1, 80, 0
1, 715680, Note_on_c, 1, 79, 99
1, 715680, Note_on_c, 1, 67, 82
1, 715680, Note_on_c, 1, 48, 57
1, 715920, Note_on_c, 1, 48, 0
1, 715920, Note_on_c, 1, 60, 49
1, 715920, Note_on_c, 1, 52, 49
1, 715920, Note_on_c, 1, 55, 39
1, 716160, Note_on_c, 1, 55, 0
1, 716160, Note_on_c, 1, 60, 0
1, 716160, Note_on_c, 1, 52, 0
1, 716160, Note_on_c, 1, 48, 49
1, 716400, Note_on_c, 1, 48, 0
1, 716400, Note_on_c, 1, 67, 0
1, 716400, Note_on_c, 1, 79, 0
1, 716400, Note_on_c, 1, 84, 101
1, 716400, Note_on_c, 1, 72, 84
1, 716400, Note_on_c, 1, 60, 49
1, 716400, Note_on_c, 1, 55, 37
1, 716400, Note_on_c, 1, 52, 37
1, 716640, Note_on_c, 1, 52, 0
1, 716640, Note_on_c, 1, 60, 0
1, 716640, Note_on_c, 1, 55, 0
1, 716640, Note_on_c, 1, 48, 44
1, 716880, Note_on_c, 1, 48, 0
1, 716880, Note_on_c, 1, 72, 0
1, 716880, Note_on_c, 1, 84, 0
1, 716880, Note_on_c, 1, 84, 95
1, 716880, Note_on_c, 1, 72, 80
1, 716880, Note_on_c, 1, 60, 48
1, 716880, Note_on_c, 1, 55, 36
1, 716880, Note_on_c, 1, 52, 36
1, 717120, Note_on_c, 1, 52, 0
1, 717120, Note_on_c, 1, 60, 0
1, 717120, Note_on_c, 1, 84, 0
1, 717120, Note_on_c, 1, 72, 0
1, 717120, Note_on_c, 1, 55, 0
1, 717120, Note_on_c, 1, 84, 105
1, 717120, Note_on_c, 1, 72, 87
1, 717120, Note_on_c, 1, 41, 63
1, 717120, Note_on_c, 1, 48, 63
1, 717120, Note_on_c, 1, 53, 75
1, 717120, Note_on_c, 1, 44, 63
1, 717360, Note_on_c, 1, 72, 0
1, 717360, Note_on_c, 1, 84, 0
1, 717360, Note_on_c, 1, 65, 59
1, 717360, Note_on_c, 1, 60, 59
1, 717360, Note_on_c, 1, 72, 79
1, 717360, Note_on_c, 1, 68, 66
1, 717580, Note_on_c, 1, 68, 0
1, 717580, Note_on_c, 1, 72, 0
1, 717580, Note_on_c, 1, 65, 0
1, 717580, Note_on_c, 1, 60, 0
1, 717600, Note_on_c, 1, 41, 0
1, 717600, Note_on_c, 1, 53, 0
1, 717600, Note_on_c, 1, 44, 0
1, 717600, Note_on_c, 1, 48, 0
1, 717600, Note_on_c, 1, 68, 66
1, 717600, Note_on_c, 1, 72, 79
1, 717600, Note_on_c, 1, 60, 59
1, 717600, Note_on_c, 1, 65, 59
1, 717820, Note_on_c, 1, 65, 0
1, 717820, Note_on_c, 1, 68, 0
1, 717820, Note_on_c, 1, 72, 0
1, 717820, Note_on_c, 1, 60, 0
1, 717840, Note_on_c, 1, 68, 69
1, 717840, Note_on_c, 1, 65, 62
1, 717840, Note_on_c, 1, 72, 84
1, 717840, Note_on_c, 1, 60, 62
1, 718080, Note_on_c, 1, 53, 79
1, 718080, Note_on_c, 1, 56, 79
1, 718300, Note_on_c, 1, 56, 0
1, 718300, Note_on_c, 1, 53, 0
1, 718320, Note_on_c, 1, 53, 76
1, 718320, Note_on_c, 1, 56, 76
1, 718540, Note_on_c, 1, 56, 0
1, 718540, Note_on_c, 1, 53, 0
1, 718560, Note_on_c, 1, 60, 0
1, 718560, Note_on_c, 1, 68, 0
1, 718560, Note_on_c, 1, 65, 0
1, 718560, Note_on_c, 1, 72, 0
1, 718560, Note_on_c, 1, 52, 80
1, 718560, Note_on_c, 1, 55, 80
1, 718800, Note_on_c, 1, 60, 59
1, 718800, Note_on_c, 1, 72, 79
1, 718800, Note_on_c, 1, 64, 66
1, 718800, Note_on_c, 1, 67, 66
1, 719020, Note_on_c, 1, 67, 0
1, 719020, Note_on_c, 1, 72, 0
1, 719020, Note_on_c, 1, 60, 0
1, 719020, Note_on_c, 1, 64, 0
1, 719040, Note_on_c, 1, 52, 0
1, 719040, Note_on_c, 1, 55, 0
1, 719040, Note_on_c, 1, 72, 79
1, 719040, Note_on_c, 1, 60, 59
1, 719040, Note_on_c, 1, 64, 66
1, 719040, Note_on_c, 1, 67, 66
1, 719260, Note_on_c, 1, 67, 0
1, 719260, Note_on_c, 1, 72, 0
1, 719260, Note_on_c, 1, 60, 0
1, 719260, Note_on_c, 1, 64, 0
1, 719280, Note_on_c, 1, 72, 84
1, 719280, Note_on_c, 1, 70, 69
1, 719280, Note_on_c, 1, 67, 62
1, 719280, Note_on_c, 1, 60, 62
1, 719520, Note_on_c, 1, 55, 79
1, 719520, Note_on_c, 1, 58, 79
1, 719740, Note_on_c, 1, 58, 0
1, 719740, Note_on_c, 1, 55, 0
1, 719760, Note_on_c, 1, 55, 76
1, 719760, Note_on_c, 1, 58, 76
1, 719980, Note_on_c, 1, 58, 0
1, 719980, Note_on_c, 1, 55, 0
1, 720000, Note_on_c, 1, 60, 0
1, 720000, Note_on_c, 1, 72, 0
1, 720000, Note_on_c, 1, 70, 0
1, 720000, Note_on_c, 1, 67, 0
1, 720000, Note_on_c, 1, 53, 80
1, 720000, Note_on_c, 1, 56, 80
1, 720240, Note_on_c, 1, 68, 66
1, 720240, Note_on_c, 1, 60, 59
1, 720240, Note_on_c, 1, 65, 59
1, 720240, Note_on_c, 1, 72, 79
1, 720460, Note_on_c, 1, 72, 0
1, 720460, Note_on_c, 1, 60, 0
1, 720460, Note_on_c, 1, 68, 0
1, 720460, Note_on_c, 1, 65, 0
1, 720480, Note_on_c, 1, 53, 0
1, 720480, Note_on_c, 1, 56, 0
1, 720480, Note_on_c, 1, 68, 66
1, 720480, Note_on_c, 1, 72, 79
1, 720480, Note_on_c, 1, 60, 59
1, 720480, Note_on_c, 1, 65, 59
1, 720700, Note_on_c, 1, 65, 0
1, 720700, Note_on_c, 1, 68, 0
1, 720700, Note_on_c, 1, 72, 0
1, 720700, Note_on_c, 1, 60, 0
1, 720720, Note_on_c, 1, 60, 62
1, 720720, Note_on_c, 1, 68, 69
1, 720720, Note_on_c, 1, 65, 62
1, 720720, Note_on_c, 1, 72, 84
1, 720960, Note_on_c, 1, 56, 79
1, 720960, Note_on_c, 1, 53, 79
1, 721180, Note_on_c, 1, 53, 0
1, 721180, Note_on_c, 1, 56, 0
1, 721200, Note_on_c, 1, 56, 76
1, 721200, Note_on_c, 1, 53, 76
1, 721420, Note_on_c, 1, 53, 0
1, 721420, Note_on_c, 1, 56, 0
1, 721440, Note_on_c, 1, 72, 0
1, 721440, Note_on_c, 1, 60, 0
1, 721440, Note_on_c, 1, 68, 0
1, 721440, Note_on_c, 1, 65, 0
1, 721440, Note_on_c, 1, 55, 80
1, 721440, Note_on_c, 1, 52, 80
1, 721680, Note_on_c, 1, 64, 66
1, 721680, Note_on_c, 1, 60, 59
1, 721680, Note_on_c, 1, 72, 79
1, 721680, Note_on_c, 1, 67, 66
1, 721900, Note_on_c, 1, 67, 0
1, 721900, Note_on_c, 1, 60, 0
1, 721900, Note_on_c, 1, 64, 0
1, 721900, Note_on_c, 1, 72, 0
1, 721920, Note_on_c, 1, 55, 0
1, 721920, Note_on_c, 1, 52, 0
1, 721920, Note_on_c, 1, 64, 66
1, 721920, Note_on_c, 1, 67, 66
1, 721920, Note_on_c, 1, 60, 59
1, 721920, Note_on_c, 1, 72, 79
1, 722140, Note_on_c, 1, 72, 0
1, 722140, Note_on_c, 1, 64, 0
1, 722140, Note_on_c, 1, 67, 0
1, 722140, Note_on_c, 1, 60, 0
1, 722160, Note_on_c, 1, 72, 84
1, 722160, Note_on_c, 1, 67, 62
1, 722160, Note_on_c, 1, 70, 69
1, 722160, Note_on_c, 1, 60, 62
1, 722400, Note_on_c, 1, 58, 79
1, 722400, Note_on_c, 1, 55, 79
1, 722620, Note_on_c, 1, 55, 0
1, 722620, Note_on_c, 1, 58, 0
1, 722640, Note_on_c, 1, 55, 76
1, 722640, Note_on_c, 1, 58, 76
1, 722860, Note_on_c, 1, 58, 0
1, 722860, Note_on_c, 1, 55, 0
1, 722880, Note_on_c, 1, 60, 0
1, 722880, Note_on_c, 1, 72, 0
1, 722880, Note_on_c, 1, 67, 0
1, 722880, Note_on_c, 1, 70, 0
1, 722880, Note_on_c, 1, 56, 80
1, 722880, Note_on_c, 1, 53, 66
1, 723100, Note_on_c, 1, 53, 0
1, 723100, Note_on_c, 1, 56, 0
1, 723120, Note_on_c, 1, 65, 65
1, 723120, Note_on_c, 1, 60, 65
1, 723120, Note_on_c, 1, 72, 77
1, 723120, Note_on_c, 1, 68, 65
1, 723340, Note_on_c, 1, 68, 0
1, 723340, Note_on_c, 1, 65, 0
1, 723340, Note_on_c, 1, 60, 0
1, 723340, Note_on_c, 1, 72, 0
1, 723360, Note_on_c, 1, 56, 76
1, 723360, Note_on_c, 1, 53, 63
1, 723580, Note_on_c, 1, 53, 0
1, 723580, Note_on_c, 1, 56, 0
1, 723600, Note_on_c, 1, 65, 73
1, 723600, Note_on_c, 1, 61, 73
1, 723600, Note_on_c, 1, 73, 85
1, 723600, Note_on_c, 1, 67, 73
1, 723820, Note_on_c, 1, 67, 0
1, 723820, Note_on_c, 1, 65, 0
1, 723820, Note_on_c, 1, 61, 0
1, 723820, Note_on_c, 1, 73, 0
1, 723840, Note_on_c, 1, 53, 59
1, 723840, Note_on_c, 1, 46, 59
1, 723840, Note_on_c, 1, 55, 73
1, 724060, Note_on_c, 1, 55, 0
1, 724060, Note_on_c, 1, 46, 0
1, 724060, Note_on_c, 1, 53, 0
1, 724080, Note_on_c, 1, 61, 65
1, 724080, Note_on_c, 1, 65, 65
1, 724080, Note_on_c, 1, 67, 65
1, 724080, Note_on_c, 1, 73, 77
1, 724300, Note_on_c, 1, 73, 0
1, 724300, Note_on_c, 1, 61, 0
1, 724300, Note_on_c, 1, 65, 0
1, 724300, Note_on_c, 1, 67, 0
1, 724320, Note_on_c, 1, 53, 66
1, 724320, Note_on_c, 1, 56, 80
1, 724320, Note_on_c, 1, 48, 66
1, 724540, Note_on_c, 1, 48, 0
1, 724540, Note_on_c, 1, 56, 0
1, 724540, Note_on_c, 1, 53, 0
1, 724560, Note_on_c, 1, 60, 69
1, 724560, Note_on_c, 1, 72, 83
1, 724560, Note_on_c, 1, 68, 69
1, 724560, Note_on_c, 1, 65, 69
1, 724780, Note_on_c, 1, 65, 0
1, 724780, Note_on_c, 1, 60, 0
1, 724780, Note_on_c, 1, 72, 0
1, 724780, Note_on_c, 1, 68, 0
1, 724800, Note_on_c, 1, 53, 63
1, 724800, Note_on_c, 1, 56, 76
1, 724800, Note_on_c, 1, 48, 63
1, 725020, Note_on_c, 1, 48, 0
1, 725020, Note_on_c, 1, 56, 0
1, 725020, Note_on_c, 1, 53, 0
1, 725040, Note_on_c, 1, 60, 70
1, 725040, Note_on_c, 1, 64, 70
1, 725040, Note_on_c, 1, 72, 82
1, 725040, Note_on_c, 1, 67, 70
1, 725260, Note_on_c, 1, 67, 0
1, 725260, Note_on_c, 1, 60, 0
1, 725260, Note_on_c, 1, 64, 0
1, 725260, Note_on_c, 1, 72, 0
1, 725280, Note_on_c, 1, 48, 63
1, 725280, Note_on_c, 1, 55, 76
1, 725280, Note_on_c, 1, 52, 63
1, 725500, Note_on_c, 1, 52, 0
1, 725500, Note_on_c, 1, 55, 0
1, 725500, Note_on_c, 1, 48, 0
1, 725520, Note_on_c, 1, 64, 59
1, 725520, Note_on_c, 1, 67, 59
1, 725520, Note_on_c, 1, 60, 59
1, 725520, Note_on_c, 1, 72, 71
1, 725740, Note_on_c, 1, 72, 0
1, 725740, Note_on_c, 1, 64, 0
1, 725740, Note_on_c, 1, 67, 0
1, 725740, Note_on_c, 1, 60, 0
1, 725760, Note_on_c, 1, 65, 76
1, 725760, Note_on_c, 1, 68, 76
1, 725760, Note_on_c, 1, 60, 76
1, 725760, Note_on_c, 1, 72, 92
1, 725760, Note_on_c, 1, 44, 61
1, 725760, Note_on_c, 1, 48, 61
1, 725760, Note_on_c, 1, 53, 73
1, 725760, Note_on_c, 1, 41, 61
1, 726000, Note_on_c, 1, 72, 0
1, 726000, Note_on_c, 1, 60, 0
1, 726000, Note_on_c, 1, 65, 0
1, 726000, Note_on_c, 1, 68, 0
1, 726000, Note_on_c, 1, 53, 59
1, 726000, Note_on_c, 1, 48, 59
1, 726000, Note_on_c, 1, 56, 66
1, 726000, Note_on_c, 1, 60, 79
1, 726220, Note_on_c, 1, 60, 0
1, 726220, Note_on_c, 1, 56, 0
1, 726220, Note_on_c, 1, 53, 0
1, 726220, Note_on_c, 1, 48, 0
1, 726240, Note_on_c, 1, 53, 0
1, 726240, Note_on_c, 1, 44, 0
1, 726240, Note_on_c, 1, 48, 0
1, 726240, Note_on_c, 1, 41, 0
1, 726240, Note_on_c, 1, 48, 59
1, 726240, Note_on_c, 1, 60, 79
1, 726240, Note_on_c, 1, 56, 66
1, 726240, Note_on_c, 1, 53, 59
1, 726460, Note_on_c, 1, 53, 0
1, 726460, Note_on_c, 1, 48, 0
1, 726460, Note_on_c, 1, 60, 0
1, 726460, Note_on_c, 1, 56, 0
1, 726480, Note_on_c, 1, 48, 62
1, 726480, Note_on_c, 1, 53, 62
1, 726480, Note_on_c, 1, 60, 84
1, 726480, Note_on_c, 1, 56, 69
1, 726720, Note_on_c, 1, 44, 75
1, 726720, Note_on_c, 1, 41, 75
1, 726940, Note_on_c, 1, 41, 0
1, 726940, Note_on_c, 1, 44, 0
1, 726960, Note_on_c, 1, 44, 72
1, 726960, Note_on_c, 1, 41, 72
1, 727180, Note_on_c, 1, 41, 0
1, 727180, Note_on_c, 1, 44, 0
1, 727200, Note_on_c, 1, 56, 0
1, 727200, Note_on_c, 1, 48, 0
1, 727200, Note_on_c, 1, 53, 0
1, 727200, Note_on_c, 1, 60, 0
1, 727200, Note_on_c, 1, 43, 76
1, 727200, Note_on_c, 1, 40, 76
1, 727440, Note_on_c, 1, 48, 59
1, 727440, Note_on_c, 1, 55, 66
1, 727440, Note_on_c, 1, 60, 79
1, 727440, Note_on_c, 1, 52, 66
1, 727660, Note_on_c, 1, 52, 0
1, 727660, Note_on_c, 1, 55, 0
1, 727660, Note_on_c, 1, 48, 0
1, 727660, Note_on_c, 1, 60, 0
1, 727680, Note_on_c, 1, 43, 0
1, 727680, Note_on_c, 1, 40, 0
1, 727680, Note_on_c, 1, 55, 66
1, 727680, Note_on_c, 1, 52, 66
1, 727680, Note_on_c, 1, 48, 59
1, 727680, Note_on_c, 1, 60, 79
1, 727900, Note_on_c, 1, 60, 0
1, 727900, Note_on_c, 1, 55, 0
1, 727900, Note_on_c, 1, 52, 0
1, 727900, Note_on_c, 1, 48, 0
1, 727920, Note_on_c, 1, 55, 62
1, 727920, Note_on_c, 1, 58, 69
1, 727920, Note_on_c, 1, 60, 84
1, 727920, Note_on_c, 1, 48, 62
1, 728160, Note_on_c, 1, 46, 75
1, 728160, Note_on_c, 1, 43, 75
1, 728380, Note_on_c, 1, 43, 0
1, 728380, Note_on_c, 1, 46, 0
1, 728400, Note_on_c, 1, 46, 72
1, 728400, Note_on_c, 1, 43, 72
1, 728620, Note_on_c, 1, 43, 0
1, 728620, Note_on_c, 1, 46, 0
1, 728640, Note_on_c, 1, 48, 0
1, 728640, Note_on_c, 1, 55, 0
1, 728640, Note_on_c, 1, 58, 0
1, 728640, Note_on_c, 1, 60, 0
1, 728640, Note_on_c, 1, 44, 76
1, 728640, Note_on_c, 1, 41, 76
1, 728880, Note_on_c, 1, 48, 59
1, 728880, Note_on_c, 1, 53, 59
1, 728880, Note_on_c, 1, 56, 66
1, 728880, Note_on_c, 1, 60, 79
1, 729100, Note_on_c, 1, 60, 0
1, 729100, Note_on_c, 1, 53, 0
1, 729100, Note_on_c, 1, 48, 0
1, 729100, Note_on_c, 1, 56, 0
1, 729120, Note_on_c, 1, 44, 0
1, 729120, Note_on_c, 1, 41, 0
1, 729120, Note_on_c, 1, 48, 59
1, 729120, Note_on_c, 1, 56, 66
1, 729120, Note_on_c, 1, 60, 79
1, 729120, Note_on_c, 1, 53, 59
1, 729340, Note_on_c, 1, 53, 0
1, 729340, Note_on_c, 1, 48, 0
1, 729340, Note_on_c, 1, 56, 0
1, 729340, Note_on_c, 1, 60, 0
1, 729360, Note_on_c, 1, 53, 62
1, 729360, Note_on_c, 1, 48, 62
1, 729360, Note_on_c, 1, 56, 69
1, 729360, Note_on_c, 1, 60, 84
1, 729600, Note_on_c, 1, 44, 75
1, 729600, Note_on_c, 1, 41, 75
1, 729820, Note_on_c, 1, 41, 0
1, 729820, Note_on_c, 1, 44, 0
1, 729840, Note_on_c, 1, 44, 72
1, 729840, Note_on_c, 1, 41, 72
1, 730060, Note_on_c, 1, 41, 0
1, 730060, Note_on_c, 1, 44, 0
1, 730080, Note_on_c, 1, 60, 0
1, 730080, Note_on_c, 1, 53, 0
1, 730080, Note_on_c, 1, 48, 0
1, 730080, Note_on_c, 1, 56, 0
1, 730080, Note_on_c, 1, 43, 76
1, 730080, Note_on_c, 1, 40, 76
1, 730320, Note_on_c, 1, 52, 66
1, 730320, Note_on_c, 1, 55, 66
1, 730320, Note_on_c, 1, 48, 59
1, 730320, Note_on_c, 1, 60, 79
1, 730540, Note_on_c, 1, 60, 0
1, 730540, Note_on_c, 1, 55, 0
1, 730540, Note_on_c, 1, 52, 0
1, 730540, Note_on_c, 1, 48, 0
1, 730560, Note_on_c, 1, 43, 0
1, 730560, Note_on_c, 1, 40, 0
1, 730560, Note_on_c, 1, 55, 66
1, 730560, Note_on_c, 1, 60, 79
1, 730560, Note_on_c, 1, 52, 66
1, 730560, Note_on_c, 1, 48, 59
1, 730780, Note_on_c, 1, 48, 0
1, 730780, Note_on_c, 1, 55, 0
1, 730780, Note_on_c, 1, 60, 0
1, 730780, Note_on_c, 1, 52, 0
1, 730800, Note_on_c, 1, 58, 69
1, 730800, Note_on_c, 1, 48, 62
1, 730800, Note_on_c, 1, 55, 62
1, 730800, Note_on_c, 1, 60, 84
1, 731040, Note_on_c, 1, 46, 75
1, 731040, Note_on_c, 1, 43, 75
1, 731260, Note_on_c, 1, 43, 0
1, 731260, Note_on_c, 1, 46, 0
1, 731280, Note_on_c, 1, 46, 72
1, 731280, Note_on_c, 1, 43, 72
1, 731500, Note_on_c, 1, 43, 0
1, 731500, Note_on_c, 1, 46, 0
1, 731520, Note_on_c, 1, 60, 0
1, 731520, Note_on_c, 1, 58, 0
1, 731520, Note_on_c, 1, 48, 0
1, 731520, Note_on_c, 1, 55, 0
1, 731520, Note_on_c, 1, 41, 66
1, 731520, Note_on_c, 1, 44, 79
1, 731740, Note_on_c, 1, 44, 0
1, 731740, Note_on_c, 1, 41, 0
1, 731760, Note_on_c, 1, 53, 63
1, 731760, Note_on_c, 1, 56, 63
1, 731760, Note_on_c, 1, 60, 81
1, 731760, Note_on_c, 1, 48, 63
1, 731980, Note_on_c, 1, 48, 0
1, 731980, Note_on_c, 1, 53, 0
1, 731980, Note_on_c, 1, 56, 0
1, 731980, Note_on_c, 1, 60, 0
1, 732000, Note_on_c, 1, 44, 71
1, 732000, Note_on_c, 1, 41, 59
1, 732220, Note_on_c, 1, 41, 0
1, 732220, Note_on_c, 1, 44, 0
1, 732240, Note_on_c, 1, 49, 69
1, 732240, Note_on_c, 1, 61, 89
1, 732240, Note_on_c, 1, 55, 69
1, 732240, Note_on_c, 1, 53, 69
1, 732460, Note_on_c, 1, 53, 0
1, 732460, Note_on_c, 1, 49, 0
1, 732460, Note_on_c, 1, 61, 0
1, 732460, Note_on_c, 1, 55, 0
1, 732480, Note_on_c, 1, 34, 55
1, 732480, Note_on_c, 1, 43, 66
1, 732480, Note_on_c, 1, 41, 55
1, 732700, Note_on_c, 1, 41, 0
1, 732700, Note_on_c, 1, 43, 0
1, 732700, Note_on_c, 1, 34, 0
1, 732720, Note_on_c, 1, 49, 63
1, 732720, Note_on_c, 1, 53, 63
1, 732720, Note_on_c, 1, 55, 63
1, 732720, Note_on_c, 1, 61, 81
1, 732940, Note_on_c, 1, 61, 0
1, 732940, Note_on_c, 1, 49, 0
1, 732940, Note_on_c, 1, 53, 0
1, 732940, Note_on_c, 1, 55, 0
1, 732960, Note_on_c, 1, 44, 75
1, 732960, Note_on_c, 1, 36, 62
1, 732960, Note_on_c, 1, 41, 62
1, 733180, Note_on_c, 1, 41, 0
1, 733180, Note_on_c, 1, 36, 0
1, 733180, Note_on_c, 1, 44, 0
1, 733200, Note_on_c, 1, 56, 66
1, 733200, Note_on_c, 1, 60, 87
1, 733200, Note_on_c, 1, 48, 66
1, 733200, Note_on_c, 1, 53, 66
1, 733420, Note_on_c, 1, 53, 0
1, 733420, Note_on_c, 1, 56, 0
1, 733420, Note_on_c, 1, 60, 0
1, 733420, Note_on_c, 1, 48, 0
1, 733440, Note_on_c, 1, 44, 71
1, 733440, Note_on_c, 1, 36, 59
1, 733440, Note_on_c, 1, 41, 59
1, 733660, Note_on_c, 1, 41, 0
1, 733660, Note_on_c, 1, 36, 0
1, 733660, Note_on_c, 1, 44, 0
1, 733680, Note_on_c, 1, 55, 66
1, 733680, Note_on_c, 1, 52, 66
1, 733680, Note_on_c, 1, 60, 87
1, 733680, Note_on_c, 1, 48, 66
1, 733900, Note_on_c, 1, 48, 0
1, 733900, Note_on_c, 1, 55, 0
1, 733900, Note_on_c, 1, 52, 0
1, 733900, Note_on_c, 1, 60, 0
1, 733920, Note_on_c, 1, 40, 59
1, 733920, Note_on_c, 1, 43, 71
1, 733920, Note_on_c, 1, 36, 59
1, 734140, Note_on_c, 1, 36, 0
1, 734140, Note_on_c, 1, 43, 0
1, 734140, Note_on_c, 1, 40, 0
1, 734160, Note_on_c, 1, 52, 63
1, 734160, Note_on_c, 1, 55, 63
1, 734160, Note_on_c, 1, 48, 63
1, 734160, Note_on_c, 1, 60, 81
1, 734380, Note_on_c, 1, 60, 0
1, 734380, Note_on_c, 1, 52, 0
1, 734380, Note_on_c, 1, 55, 0
1, 734380, Note_on_c, 1, 48, 0
1, 734400, Note_on_c, 1, 36, 62
1, 734400, Note_on_c, 1, 41, 62
1, 734400, Note_on_c, 1, 44, 75
1, 734400, Note_on_c, 1, 32, 62
1, 734620, Note_on_c, 1, 32, 0
1, 734620, Note_on_c, 1, 36, 0
1, 734620, Note_on_c, 1, 41, 0
1, 734620, Note_on_c, 1, 44, 0
1, 734640, Note_on_c, 1, 68, 63
1, 734640, Note_on_c, 1, 72, 81
1, 734640, Note_on_c, 1, 65, 63
1, 734640, Note_on_c, 1, 60, 63
1, 734860, Note_on_c, 1, 60, 0
1, 734860, Note_on_c, 1, 68, 0
1, 734860, Note_on_c, 1, 72, 0
1, 734860, Note_on_c, 1, 65, 0
1, 734880, Note_on_c, 1, 32, 59
1, 734880, Note_on_c, 1, 41, 59
1, 734880, Note_on_c, 1, 36, 59
1, 734880, Note_on_c, 1, 44, 71
1, 735100, Note_on_c, 1, 44, 0
1, 735100, Note_on_c, 1, 32, 0
1, 735100, Note_on_c, 1, 41, 0
1, 735100, Note_on_c, 1, 36, 0
1, 735120, Note_on_c, 1, 65, 69
1, 735120, Note_on_c, 1, 61, 69
1, 735120, Note_on_c, 1, 73, 89
1, 735120, Note_on_c, 1, 67, 69
1, 735340, Note_on_c, 1, 67, 0
1, 735340, Note_on_c, 1, 65, 0
1, 735340, Note_on_c, 1, 61, 0
1, 735340, Note_on_c, 1, 73, 0
1, 735360, Note_on_c, 1, 46, 66
1, 735360, Note_on_c, 1, 41, 55
1, 735360, Note_on_c, 1, 43, 60
1, 735360, Note_on_c, 1, 34, 55
1, 735580, Note_on_c, 1, 34, 0
1, 735580, Note_on_c, 1, 46, 0
1, 735580, Note_on_c, 1, 41, 0
1, 735580, Note_on_c, 1, 43, 0
1, 735600, Note_on_c, 1, 65, 63
1, 735600, Note_on_c, 1, 61, 63
1, 735600, Note_on_c, 1, 67, 63
1, 735600, Note_on_c, 1, 73, 81
1, 735820, Note_on_c, 1, 73, 0
1, 735820, Note_on_c, 1, 65, 0
1, 735820, Note_on_c, 1, 61, 0
1, 735820, Note_on_c, 1, 67, 0
1, 735840, Note_on_c, 1, 48, 75
1, 735840, Note_on_c, 1, 44, 69
1, 735840, Note_on_c, 1, 41, 62
1, 735840, Note_on_c, 1, 36, 62
1, 736060, Note_on_c, 1, 36, 0
1, 736060, Note_on_c, 1, 48, 0
1, 736060, Note_on_c, 1, 44, 0
1, 736060, Note_on_c, 1, 41, 0
1, 736080, Note_on_c, 1, 72, 87
1, 736080, Note_on_c, 1, 65, 66
1, 736080, Note_on_c, 1, 60, 66
1, 736080, Note_on_c, 1, 68, 66
1, 736300, Note_on_c, 1, 68, 0
1, 736300, Note_on_c, 1, 72, 0
1, 736300, Note_on_c, 1, 65, 0
1, 736300, Note_on_c, 1, 60, 0
1, 736320, Note_on_c, 1, 48, 71
1, 736320, Note_on_c, 1, 41, 59
1, 736320, Note_on_c, 1, 44, 66
1, 736320, Note_on_c, 1, 36, 59
1, 736540, Note_on_c, 1, 36, 0
1, 736540, Note_on_c, 1, 48, 0
1, 736540, Note_on_c, 1, 41, 0
1, 736540, Note_on_c, 1, 44, 0
1, 736560, Note_on_c, 1, 60, 66
1, 736560, Note_on_c, 1, 64, 66
1, 736560, Note_on_c, 1, 72, 87
1, 736560, Note_on_c, 1, 67, 66
1, 736780, Note_on_c, 1, 67, 0
1, 736780, Note_on_c, 1, 60, 0
1, 736780, Note_on_c, 1, 64, 0
1, 736780, Note_on_c, 1, 72, 0
1, 736800, Note_on_c, 1, 46, 71
1, 736800, Note_on_c, 1, 40, 59
1, 736800, Note_on_c, 1, 43, 66
1, 736800, Note_on_c, 1, 34, 59
1, 737020, Note_on_c, 1, 34, 0
1, 737020, Note_on_c, 1, 46, 0
1, 737020, Note_on_c, 1, 40, 0
1, 737020, Note_on_c, 1, 43, 0
1, 737040, Note_on_c, 1, 64, 63
1, 737040, Note_on_c, 1, 67, 63
1, 737040, Note_on_c, 1, 60, 63
1, 737040, Note_on_c, 1, 72, 81
1, 737260, Note_on_c, 1, 72, 0
1, 737260, Note_on_c, 1, 64, 0
1, 737260, Note_on_c, 1, 67, 0
1, 737260, Note_on_c, 1, 60, 0
1, 737280, Note_on_c, 1, 36, 65
1, 737280, Note_on_c, 1, 41, 65
1, 737280, Note_on_c, 1, 44, 77
1, 737280, Note_on_c, 1, 32, 65
1, 737500, Note_on_c, 1, 32, 0
1, 737500, Note_on_c, 1, 36, 0
1, 737500, Note_on_c, 1, 41, 0
1, 737500, Note_on_c, 1, 44, 0
1, 737520, Note_on_c, 1, 80, 72
1, 737520, Note_on_c, 1, 84, 93
1, 737520, Note_on_c, 1, 77, 72
1, 737520, Note_on_c, 1, 72, 72
1, 737740, Note_on_c, 1, 72, 0
1, 737740, Note_on_c, 1, 80, 0
1, 737740, Note_on_c, 1, 84, 0
1, 737740, Note_on_c, 1, 77, 0
1, 737760, Note_on_c, 1, 32, 62
1, 737760, Note_on_c, 1, 41, 62
1, 737760, Note_on_c, 1, 36, 62
1, 737760, Note_on_c, 1, 44, 74
1, 737980, Note_on_c, 1, 44, 0
1, 737980, Note_on_c, 1, 32, 0
1, 737980, Note_on_c, 1, 41, 0
1, 737980, Note_on_c, 1, 36, 0
1, 738000, Note_on_c, 1, 79, 79
1, 738000, Note_on_c, 1, 73, 79
1, 738000, Note_on_c, 1, 77, 79
1, 738000, Note_on_c, 1, 85, 101
1, 738220, Note_on_c, 1, 85, 0
1, 738220, Note_on_c, 1, 79, 0
1, 738220, Note_on_c, 1, 73, 0
1, 738220, Note_on_c, 1, 77, 0
1, 738240, Note_on_c, 1, 46, 69
1, 738240, Note_on_c, 1, 41, 57
1, 738240, Note_on_c, 1, 43, 63
1, 738240, Note_on_c, 1, 34, 57
1, 738460, Note_on_c, 1, 34, 0
1, 738460, Note_on_c, 1, 46, 0
1, 738460, Note_on_c, 1, 41, 0
1, 738460, Note_on_c, 1, 43, 0
1, 738480, Note_on_c, 1, 85, 93
1, 738480, Note_on_c, 1, 73, 72
1, 738480, Note_on_c, 1, 77, 72
1, 738480, Note_on_c, 1, 79, 72
1, 738700, Note_on_c, 1, 79, 0
1, 738700, Note_on_c, 1, 85, 0
1, 738700, Note_on_c, 1, 73, 0
1, 738700, Note_on_c, 1, 77, 0
1, 738720, Note_on_c, 1, 48, 77
1, 738720, Note_on_c, 1, 41, 65
1, 738720, Note_on_c, 1, 36, 65
1, 738720, Note_on_c, 1, 44, 72
1, 738940, Note_on_c, 1, 44, 0
1, 738940, Note_on_c, 1, 48, 0
1, 738940, Note_on_c, 1, 41, 0
1, 738940, Note_on_c, 1, 36, 0
1, 738960, Note_on_c, 1, 84, 99
1, 738960, Note_on_c, 1, 80, 76
1, 738960, Note_on_c, 1, 77, 76
1, 738960, Note_on_c, 1, 72, 76
1, 739180, Note_on_c, 1, 72, 0
1, 739180, Note_on_c, 1, 84, 0
1, 739180, Note_on_c, 1, 80, 0
1, 739180, Note_on_c, 1, 77, 0
1, 739200, Note_on_c, 1, 44, 69
1, 739200, Note_on_c, 1, 41, 62
1, 739200, Note_on_c, 1, 36, 62
1, 739200, Note_on_c, 1, 48, 74
1, 739420, Note_on_c, 1, 48, 0
1, 739420, Note_on_c, 1, 44, 0
1, 739420, Note_on_c, 1, 41, 0
1, 739420, Note_on_c, 1, 36, 0
1, 739440, Note_on_c, 1, 84, 99
1, 739440, Note_on_c, 1, 72, 75
1, 739440, Note_on_c, 1, 76, 75
1, 739440, Note_on_c, 1, 79, 75
1, 739660, Note_on_c, 1, 79, 0
1, 739660, Note_on_c, 1, 84, 0
1, 739660, Note_on_c, 1, 72, 0
1, 739660, Note_on_c, 1, 76, 0
1, 739680, Note_on_c, 1, 36, 62
1, 739680, Note_on_c, 1, 48, 74
1, 739680, Note_on_c, 1, 43, 69
1, 739680, Note_on_c, 1, 40, 62
1, 739900, Note_on_c, 1, 40, 0
1, 739900, Note_on_c, 1, 36, 0
1, 739900, Note_on_c, 1, 48, 0
1, 739900, Note_on_c, 1, 43, 0
1, 739920, Note_on_c, 1, 84, 93
1, 739920, Note_on_c, 1, 76, 72
1, 739920, Note_on_c, 1, 72, 72
1, 739920, Note_on_c, 1, 79, 72
1, 740140, Note_on_c, 1, 79, 0
1, 740140, Note_on_c, 1, 84, 0
1, 740140, Note_on_c, 1, 76, 0
1, 740140, Note_on_c, 1, 72, 0
1, 740160, Note_on_c, 1, 60, 64
1, 740160, Note_on_c, 1, 29, 82
1, 740160, Note_on_c, 1, 41, 110
1, 740280, Note_on_c, 1, 60, 0
1, 740280, Note_on_c, 1, 56, 55
1, 740400, Note_on_c, 1, 56, 0
1, 740400, Note_on_c, 1, 60, 59
1, 740520, Note_on_c, 1, 60, 0
1, 740520, Note_on_c, 1, 56, 50
1, 740640, Note_on_c, 1, 56, 0
1, 740640, Note_on_c, 1, 41, 0
1, 740640, Note_on_c, 1, 29, 0
1, 740640, Note_on_c, 1, 60, 55
1, 740760, Note_on_c, 1, 60, 0
1, 740760, Note_on_c, 1, 56, 48
1, 740880, Note_on_c, 1, 56, 0
1, 740880, Note_on_c, 1, 60, 43
1, 740880, Note_on_c, 1, 68, 62
1, 741000, Note_on_c, 1, 60, 0
1, 741000, Note_on_c, 1, 56, 37
1, 741120, Note_on_c, 1, 56, 0
1, 741120, Note_on_c, 1, 60, 43
1, 741240, Note_on_c, 1, 60, 0
1, 741240, Note_on_c, 1, 56, 37
1, 741360, Note_on_c, 1, 56, 0
1, 741360, Note_on_c, 1, 60, 43
1, 741480, Note_on_c, 1, 60, 0
1, 741480, Note_on_c, 1, 68, 0
1, 741480, Note_on_c, 1, 56, 36
1, 741480, Note_on_c, 1, 72, 54
1, 741600, Note_on_c, 1, 72, 0
1, 741600, Note_on_c, 1, 56, 0
1, 741600, Note_on_c, 1, 60, 43
1, 741600, Note_on_c, 1, 77, 59
1, 741720, Note_on_c, 1, 60, 0
1, 741720, Note_on_c, 1, 56, 36
1, 741840, Note_on_c, 1, 56, 0
1, 741840, Note_on_c, 1, 60, 42
1, 741960, Note_on_c, 1, 60, 0
1, 741960, Note_on_c, 1, 56, 36
1, 742080, Note_on_c, 1, 56, 0
1, 742080, Note_on_c, 1, 60, 42
1, 742200, Note_on_c, 1, 60, 0
1, 742200, Note_on_c, 1, 56, 35
1, 742320, Note_on_c, 1, 56, 0
1, 742320, Note_on_c, 1, 77, 0
1, 742320, Note_on_c, 1, 60, 42
1, 742320, Note_on_c, 1, 80, 60
1, 742440, Note_on_c, 1, 60, 0
1, 742440, Note_on_c, 1, 56, 35
1, 742560, Note_on_c, 1, 56, 0
1, 742560, Note_on_c, 1, 60, 41
1, 742680, Note_on_c, 1, 60, 0
1, 742680, Note_on_c, 1, 56, 35
1, 742800, Note_on_c, 1, 56, 0
1, 742800, Note_on_c, 1, 60, 41
1, 742920, Note_on_c, 1, 60, 0
1, 742920, Note_on_c, 1, 80, 0
1, 742920, Note_on_c, 1, 56, 35
1, 742920, Note_on_c, 1, 84, 52
1, 743040, Note_on_c, 1, 84, 0
1, 743040, Note_on_c, 1, 56, 0
1, 743040, Note_on_c, 1, 60, 41
1, 743040, Note_on_c, 1, 89, 56
1, 743160, Note_on_c, 1, 60, 0
1, 743160, Note_on_c, 1, 56, 35
1, 743280, Note_on_c, 1, 56, 0
1, 743280, Note_on_c, 1, 60, 41
1, 743400, Note_on_c, 1, 60, 0
1, 743400, Note_on_c, 1, 56, 34
1, 743520, Note_on_c, 1, 56, 0
1, 743520, Note_on_c, 1, 60, 40
1, 743640, Note_on_c, 1, 60, 0
1, 743640, Note_on_c, 1, 56, 34
1, 743760, Note_on_c, 1, 56, 0
1, 743760, Note_on_c, 1, 89, 0
1, 743760, Note_on_c, 1, 60, 40
1, 743760, Note_on_c, 1, 84, 58
1, 743880, Note_on_c, 1, 60, 0
1, 743880, Note_on_c, 1, 56, 34
1, 744000, Note_on_c, 1, 56, 0
1, 744000, Note_on_c, 1, 60, 40
1, 744120, Note_on_c, 1, 60, 0
1, 744120, Note_on_c, 1, 56, 33
1, 744240, Note_on_c, 1, 56, 0
1, 744240, Note_on_c, 1, 60, 40
1, 744360, Note_on_c, 1, 60, 0
1, 744360, Note_on_c, 1, 84, 0
1, 744360, Note_on_c, 1, 56, 33
1, 744360, Note_on_c, 1, 80, 50
1, 744480, Note_on_c, 1, 80, 0
1, 744480, Note_on_c, 1, 56, 0
1, 744480, Note_on_c, 1, 60, 40
1, 744480, Note_on_c, 1, 77, 54
1, 744600, Note_on_c, 1, 60, 0
1, 744600, Note_on_c, 1, 56, 33
1, 744720, Note_on_c, 1, 56, 0
1, 744720, Note_on_c, 1, 60, 39
1, 744840, Note_on_c, 1, 60, 0
1, 744840, Note_on_c, 1, 56, 33
1, 744960, Note_on_c, 1, 56, 0
1, 744960, Note_on_c, 1, 60, 39
1, 745080, Note_on_c, 1, 60, 0
1, 745080, Note_on_c, 1, 56, 33
1, 745200, Note_on_c, 1, 56, 0
1, 745200, Note_on_c, 1, 77, 0
1, 745200, Note_on_c, 1, 60, 39
1, 745200, Note_on_c, 1, 72, 56
1, 745320, Note_on_c, 1, 60, 0
1, 745320, Note_on_c, 1, 56, 32
1, 745440, Note_on_c, 1, 56, 0
1, 745440, Note_on_c, 1, 60, 38
1, 745560, Note_on_c, 1, 60, 0
1, 745560, Note_on_c, 1, 56, 32
1, 745680, Note_on_c, 1, 56, 0
1, 745680, Note_on_c, 1, 60, 38
1, 745800, Note_on_c, 1, 60, 0
1, 745800, Note_on_c, 1, 72, 0
1, 745800, Note_on_c, 1, 56, 32
1, 745800, Note_on_c, 1, 68, 48
1, 745920, Note_on_c, 1, 68, 0
1, 745920, Note_on_c, 1, 56, 0
1, 745920, Note_on_c, 1, 60, 38
1, 745920, Note_on_c, 1, 65, 52
1, 746040, Note_on_c, 1, 60, 0
1, 746040, Note_on_c, 1, 56, 32
1, 746160, Note_on_c, 1, 56, 0
1, 746160, Note_on_c, 1, 60, 37
1, 746280, Note_on_c, 1, 60, 0
1, 746280, Note_on_c, 1, 56, 31
1, 746400, Note_on_c, 1, 56, 0
1, 746400, Note_on_c, 1, 60, 37
1, 746520, Note_on_c, 1, 60, 0
1, 746520, Note_on_c, 1, 56, 31
1, 746640, Note_on_c, 1, 56, 0
1, 746640, Note_on_c, 1, 65, 0
1, 746640, Note_on_c, 1, 72, 37
1, 746640, Note_on_c, 1, 60, 47
1, 746760, Note_on_c, 1, 72, 0
1, 746760, Note_on_c, 1, 68, 31
1, 746880, Note_on_c, 1, 68, 0
1, 746880, Note_on_c, 1, 72, 37
1, 747000, Note_on_c, 1, 72, 0
1, 747000, Note_on_c, 1, 68, 31
1, 747120, Note_on_c, 1, 68, 0
1, 747120, Note_on_c, 1, 72, 36
1, 747240, Note_on_c, 1, 72, 0
1, 747240, Note_on_c, 1, 60, 0
1, 747240, Note_on_c, 1, 68, 31
1, 747240, Note_on_c, 1, 56, 41
1, 747360, Note_on_c, 1, 56, 0
1, 747360, Note_on_c, 1, 68, 0
1, 747360, Note_on_c, 1, 72, 36
1, 747360, Note_on_c, 1, 53, 44
1, 747480, Note_on_c, 1, 72, 0
1, 747480, Note_on_c, 1, 68, 30
1, 747600, Note_on_c, 1, 68, 0
1, 747600, Note_on_c, 1, 72, 36
1, 747720, Note_on_c, 1, 72, 0
1, 747720, Note_on_c, 1, 68, 30
1, 747840, Note_on_c, 1, 68, 0
1, 747840, Note_on_c, 1, 72, 35
1, 747960, Note_on_c, 1, 72, 0
1, 747960, Note_on_c, 1, 68, 30
1, 748080, Note_on_c, 1, 68, 0
1, 748080, Note_on_c, 1, 53, 0
1, 748080, Note_on_c, 1, 72, 35
1, 748080, Note_on_c, 1, 48, 45
1, 748200, Note_on_c, 1, 72, 0
1, 748200, Note_on_c, 1, 68, 30
1, 748320, Note_on_c, 1, 68, 0
1, 748320, Note_on_c, 1, 72, 35
1, 748440, Note_on_c, 1, 72, 0
1, 748440, Note_on_c, 1, 68, 30
1, 748560, Note_on_c, 1, 68, 0
1, 748560, Note_on_c, 1, 72, 34
1, 748680, Note_on_c, 1, 72, 0
1, 748680, Note_on_c, 1, 48, 0
1, 748680, Note_on_c, 1, 68, 29
1, 748680, Note_on_c, 1, 44, 39
1, 748800, Note_on_c, 1, 44, 0
1, 748800, Note_on_c, 1, 68, 0
1, 748800, Note_on_c, 1, 72, 34
1, 748800, Note_on_c, 1, 41, 42
1, 748920, Note_on_c, 1, 72, 0
1, 748920, Note_on_c, 1, 68, 29
1, 749040, Note_on_c, 1, 68, 0
1, 749040, Note_on_c, 1, 72, 34
1, 749160, Note_on_c, 1, 72, 0
1, 749160, Note_on_c, 1, 68, 28
1, 749280, Note_on_c, 1, 68, 0
1, 749280, Note_on_c, 1, 72, 33
1, 749400, Note_on_c, 1, 72, 0
1, 749400, Note_on_c, 1, 68, 27
1, 749520, Note_on_c, 1, 68, 0
1, 749520, Note_on_c, 1, 41, 0
1, 749520, Note_on_c, 1, 72, 33
1, 749520, Note_on_c, 1, 36, 38
1, 749640, Note_on_c, 1, 72, 0
1, 749640, Note_on_c, 1, 68, 27
1, 749760, Note_on_c, 1, 68, 0
1, 749760, Note_on_c, 1, 72, 32
1, 749880, Note_on_c, 1, 72, 0
1, 749880, Note_on_c, 1, 68, 27
1, 750000, Note_on_c, 1, 68, 0
1, 750000, Note_on_c, 1, 72, 31
1, 750120, Note_on_c, 1, 72, 0
1, 750120, Note_on_c, 1, 36, 0
1, 750120, Note_on_c, 1, 68, 26
1, 750120, Note_on_c, 1, 32, 27
1, 750240, Note_on_c, 1, 32, 0
1, 750240, Note_on_c, 1, 68, 0
1, 750240, Note_on_c, 1, 72, 31
1, 750240, Note_on_c, 1, 29, 28
1, 750360, Note_on_c, 1, 72, 0
1, 750360, Note_on_c, 1, 68, 26
1, 750480, Note_on_c, 1, 68, 0
1, 750480, Note_on_c, 1, 72, 31
1, 750600, Note_on_c, 1, 72, 0
1, 750600, Note_on_c, 1, 68, 25
1, 750720, Note_on_c, 1, 68, 0
1, 750720, Note_on_c, 1, 72, 30
1, 750840, Note_on_c, 1, 72, 0
1, 750840, Note_on_c, 1, 68, 25
1, 750960, Note_on_c, 1, 68, 0
1, 750960, Note_on_c, 1, 29, 0
1, 750960, Note_on_c, 1, 72, 29
1, 750960, Note_on_c, 1, 29, 27
1, 751080, Note_on_c, 1, 72, 0
1, 751080, Note_on_c, 1, 68, 25
1, 751200, Note_on_c, 1, 68, 0
1, 751200, Note_on_c, 1, 72, 29
1, 751320, Note_on_c, 1, 72, 0
1, 751320, Note_on_c, 1, 68, 24
1, 751440, Note_on_c, 1, 68, 0
1, 751440, Note_on_c, 1, 72, 29
1, 751560, Note_on_c, 1, 72, 0
1, 751560, Note_on_c, 1, 68, 24
1, 751680, Note_on_c, 1, 68, 0
1, 751680, Note_on_c, 1, 29, 0
1, 751680, Note_on_c, 1, 72, 28
1, 751680, Note_on_c, 1, 29, 27
1, 751800, Note_on_c, 1, 72, 0
1, 751800, Note_on_c, 1, 68, 23
1, 751920, Note_on_c, 1, 68, 0
1, 751920, Note_on_c, 1, 72, 27
1, 752040, Note_on_c, 1, 72, 0
1, 752040, Note_on_c, 1, 68, 23
1, 752160, Note_on_c, 1, 68, 0
1, 752160, Note_on_c, 1, 72, 26
1, 752280, Note_on_c, 1, 72, 0
1, 752280, Note_on_c, 1, 68, 22
1, 752400, Note_on_c, 1, 68, 0
1, 752400, Note_on_c, 1, 72, 26
1, 752520, Note_on_c, 1, 72, 0
1, 752520, Note_on_c, 1, 68, 22
1, 752640, Note_on_c, 1, 68, 0
1, 752640, Note_on_c, 1, 72, 25
1, 752760, Note_on_c, 1, 72, 0
1, 752760, Note_on_c, 1, 68, 21
1, 752880, Note_on_c, 1, 68, 0
1, 752880, Note_on_c, 1, 72, 24
1, 753000, Note_on_c, 1, 72, 0
1, 753000, Note_on_c, 1, 68, 20
1, 753120, Note_on_c, 1, 68, 0
1, 753120, Note_on_c, 1, 29, 0
1, 753120, Note_on_c, 1, 72, 23
1, 753120, Note_on_c, 1, 29, 19
1, 753240, Note_on_c, 1, 72, 0
1, 753240, Note_on_c, 1, 68, 20
1, 753360, Note_on_c, 1, 68, 0
1, 753360, Note_on_c, 1, 72, 23
1, 753480, Note_on_c, 1, 72, 0
1, 753480, Note_on_c, 1, 68, 19
1, 753600, Note_on_c, 1, 68, 0
1, 753600, Note_on_c, 1, 72, 22
1, 753720, Note_on_c, 1, 72, 0
1, 753720, Note_on_c, 1, 68, 18
1, 753840, Note_on_c, 1, 68, 0
1, 753840, Note_on_c, 1, 72, 21
1, 753960, Note_on_c, 1, 72, 0
1, 753960, Note_on_c, 1, 68, 18
1, 754080, Note_on_c, 1, 68, 0
1, 754080, Note_on_c, 1, 72, 21
1, 754200, Note_on_c, 1, 72, 0
1, 754200, Note_on_c, 1, 68, 17
1, 754320, Note_on_c, 1, 68, 0
1, 754320, Note_on_c, 1, 72, 20
1, 754440, Note_on_c, 1, 72, 0
1, 754440, Note_on_c, 1, 68, 17
1, 754560, Note_on_c, 1, 68, 0
1, 754560, Note_on_c, 1, 29, 0
1, 754560, Note_on_c, 1, 72, 18
1, 754560, Note_on_c, 1, 68, 15
1, 754560, Note_on_c, 1, 29, 12
1, 757440, Note_on_c, 1, 29, 0
1, 757440, Note_on_c, 1, 68, 0
1, 757440, Note_on_c, 1, 72, 0
1, 757440, End_track
0, 0, End_of_file

