0, 0, Header, 1, 2, 240
1, 0, Start_track
1, 0, Title_t, "\203\211\203t\203}\203j\203m\203t\201@\201u\217M\211Ì\201v Op.10-3                   \211\211\221t\201@\217¬\214I\215\216\227T"
1, 0, Copyright_t, "___________________________________________________\012\012KUNSTDERFUGE.COM LARGE CLASSICAL MIDI COLLECTION\012ONCLASSICAL BY ALESSANDRO SIMONETTO, PROPRIETOR\012___________________________________________________\012\012! Attention: this file is under copyright !\012\012(c)onclassical, (c)oguri, 2010\012___________________________________________________\012\012NO ONE MAY REPUBLISH THIS FILE WITHOUT PERMISSION\012COMMERCIAL USES OF THIS FILE IS STRICTLY PROHIBITED\012___________________________________________________\012\012Files & contributor's list: http://kunstderfuge.com/\012Terms and conditions: http://kunstderfuge.com/notes.htm"
1, 0, Text_t, "CVS Ver5.05 Created\012"
1, 0, Text_t, "\203\211\203t\203}\203j\203m\203t\201u\217M\211Ì\201v\012"
1, 0, Text_t, "Op.10-3\012"
1, 0, Text_t, "RACHMANINOFF\012"
1, 0, Text_t, """BARCAROLLE""  Op.10-3\012"
1, 0, Text_t, "(4'45"")\012"
1, 0, Text_t, "\211\211\221t\201@\201@\217¬\214I\215\216\227T\012"
1, 0, Text_t, "PLAY BY KATSUHIRO\012"
1, 0, Text_t, "OGURI\012"
1, 0, Text_t, "<RESET>\012"
1, 0, Text_t, "<Master Volume>\012"
1, 0, System_exclusive, 10, 65, 16, 66, 18, 64, 0, 127, 0, 65, 247
1, 1, System_exclusive, 10, 65, 16, 66, 18, 64, 0, 4, 100, 88, 247
1, 2, System_exclusive, 10, 65, 16, 66, 18, 64, 1, 48, 3, 12, 247
1, 2, System_exclusive, 10, 65, 16, 66, 18, 64, 1, 51, 60, 80, 247
1, 2, System_exclusive, 10, 65, 16, 66, 18, 64, 1, 52, 60, 79, 247
1, 2, Time_signature, 4, 2, 24, 8
1, 2, Key_signature, -2, "major"
1, 2, Tempo, 500000
1, 2, End_track
2, 0, Start_track
2, 0, Title_t, "Piano"
2, 96, Text_t, "<Master Reverve>"
2, 240, Control_c, 0, 0, 0
2, 240, Control_c, 0, 32, 1
2, 241, Program_c, 0, 0
2, 241, Control_c, 0, 7, 105
2, 241, Control_c, 0, 10, 64
2, 241, Control_c, 0, 91, 90
2, 486, Control_c, 0, 11, 127
2, 678, Control_c, 0, 1, 0
2, 678, Text_t, "<part reverve>"
2, 727, Control_c, 0, 99, 1
2, 728, Control_c, 0, 98, 32
2, 729, Control_c, 0, 6, 62
2, 730, Control_c, 0, 38, 0
2, 733, Control_c, 0, 99, 1
2, 734, Control_c, 0, 98, 33
2, 735, Control_c, 0, 6, 54
2, 736, Control_c, 0, 38, 0
2, 739, Control_c, 0, 99, 1
2, 740, Control_c, 0, 98, 99
2, 741, Control_c, 0, 6, 62
2, 742, Control_c, 0, 38, 0
2, 745, Control_c, 0, 99, 1
2, 746, Control_c, 0, 98, 100
2, 747, Control_c, 0, 6, 60
2, 748, Control_c, 0, 38, 0
2, 751, Control_c, 0, 99, 1
2, 752, Control_c, 0, 98, 102
2, 753, Control_c, 0, 6, 70
2, 754, Control_c, 0, 38, 0
2, 856, Control_c, 0, 67, 127
2, 1207, Control_c, 0, 64, 63
2, 1218, Control_c, 0, 64, 127
2, 1530, Note_on_c, 0, 74, 51
2, 1536, Note_on_c, 0, 70, 49
2, 1607, Note_on_c, 0, 70, 0
2, 1609, Note_on_c, 0, 74, 0
2, 1612, Note_on_c, 0, 67, 40
2, 1675, Note_on_c, 0, 67, 0
2, 1680, Note_on_c, 0, 70, 45
2, 1690, Note_on_c, 0, 74, 48
2, 1762, Note_on_c, 0, 67, 36
2, 1765, Note_on_c, 0, 74, 0
2, 1770, Note_on_c, 0, 70, 0
2, 1892, Note_on_c, 0, 67, 0
2, 2001, Note_on_c, 0, 74, 64
2, 2011, Note_on_c, 0, 70, 56
2, 2076, Note_on_c, 0, 74, 0
2, 2090, Note_on_c, 0, 67, 53
2, 2093, Note_on_c, 0, 70, 0
2, 2146, Note_on_c, 0, 67, 0
2, 2161, Note_on_c, 0, 70, 30
2, 2168, Note_on_c, 0, 74, 35
2, 2215, Note_on_c, 0, 74, 0
2, 2235, Note_on_c, 0, 70, 0
2, 2238, Note_on_c, 0, 67, 38
2, 2358, Note_on_c, 0, 67, 0
2, 2466, Note_on_c, 0, 74, 52
2, 2473, Note_on_c, 0, 70, 56
2, 2525, Note_on_c, 0, 74, 0
2, 2539, Note_on_c, 0, 67, 33
2, 2541, Note_on_c, 0, 70, 0
2, 2604, Note_on_c, 0, 67, 0
2, 2618, Note_on_c, 0, 74, 21
2, 2619, Note_on_c, 0, 70, 43
2, 2680, Note_on_c, 0, 74, 0
2, 2695, Note_on_c, 0, 70, 0
2, 2707, Note_on_c, 0, 67, 37
2, 2802, Note_on_c, 0, 67, 0
2, 2996, Note_on_c, 0, 62, 98
2, 3013, Note_on_c, 0, 70, 60
2, 3018, Note_on_c, 0, 74, 47
2, 3076, Note_on_c, 0, 74, 0
2, 3082, Note_on_c, 0, 70, 0
2, 3093, Note_on_c, 0, 67, 34
2, 3162, Note_on_c, 0, 67, 0
2, 3168, Note_on_c, 0, 70, 48
2, 3177, Note_on_c, 0, 74, 38
2, 3233, Note_on_c, 0, 74, 0
2, 3241, Note_on_c, 0, 70, 0
2, 3254, Note_on_c, 0, 67, 18
2, 3369, Note_on_c, 0, 67, 0
2, 3494, Note_on_c, 0, 74, 54
2, 3496, Note_on_c, 0, 70, 59
2, 3557, Note_on_c, 0, 74, 0
2, 3566, Note_on_c, 0, 67, 32
2, 3568, Note_on_c, 0, 70, 0
2, 3643, Note_on_c, 0, 67, 0
2, 3647, Note_on_c, 0, 70, 48
2, 3649, Note_on_c, 0, 74, 45
2, 3730, Note_on_c, 0, 74, 0
2, 3734, Note_on_c, 0, 70, 0
2, 3734, Note_on_c, 0, 67, 34
2, 3885, Note_on_c, 0, 67, 0
2, 3941, Note_on_c, 0, 60, 89
2, 3966, Note_on_c, 0, 74, 42
2, 3970, Note_on_c, 0, 62, 0
2, 3975, Note_on_c, 0, 70, 34
2, 4013, Control_c, 0, 64, 63
2, 4023, Note_on_c, 0, 74, 0
2, 4027, Note_on_c, 0, 66, 44
2, 4033, Note_on_c, 0, 70, 0
2, 4038, Control_c, 0, 64, 127
2, 4096, Note_on_c, 0, 70, 50
2, 4098, Note_on_c, 0, 66, 0
2, 4104, Note_on_c, 0, 74, 58
2, 4194, Note_on_c, 0, 66, 45
2, 4215, Note_on_c, 0, 74, 0
2, 4224, Note_on_c, 0, 70, 0
2, 4330, Note_on_c, 0, 66, 0
2, 4435, Note_on_c, 0, 60, 0
2, 4443, Note_on_c, 0, 58, 96
2, 4458, Note_on_c, 0, 70, 54
2, 4461, Note_on_c, 0, 74, 56
2, 4498, Control_c, 0, 64, 63
2, 4533, Control_c, 0, 64, 127
2, 4545, Note_on_c, 0, 67, 52
2, 4559, Note_on_c, 0, 60, 96
2, 4578, Note_on_c, 0, 70, 0
2, 4579, Note_on_c, 0, 74, 0
2, 4599, Note_on_c, 0, 58, 0
2, 4635, Note_on_c, 0, 70, 56
2, 4635, Note_on_c, 0, 74, 43
2, 4674, Note_on_c, 0, 67, 0
2, 4685, Note_on_c, 0, 62, 81
2, 4690, Control_c, 0, 64, 63
2, 4701, Control_c, 0, 64, 0
2, 4714, Note_on_c, 0, 67, 29
2, 4715, Note_on_c, 0, 60, 0
2, 4721, Note_on_c, 0, 74, 0
2, 4738, Note_on_c, 0, 70, 0
2, 4755, Control_c, 0, 64, 63
2, 4761, Control_c, 0, 64, 127
2, 4859, Note_on_c, 0, 67, 0
2, 4946, Note_on_c, 0, 70, 48
2, 4949, Note_on_c, 0, 74, 49
2, 4977, Note_on_c, 0, 62, 0
2, 4996, Note_on_c, 0, 67, 39
2, 5018, Note_on_c, 0, 74, 0
2, 5024, Note_on_c, 0, 70, 0
2, 5077, Note_on_c, 0, 67, 0
2, 5085, Note_on_c, 0, 74, 45
2, 5089, Note_on_c, 0, 70, 38
2, 5155, Note_on_c, 0, 50, 70
2, 5160, Note_on_c, 0, 67, 48
2, 5173, Note_on_c, 0, 43, 48
2, 5182, Note_on_c, 0, 70, 0
2, 5183, Note_on_c, 0, 74, 0
2, 5243, Note_on_c, 0, 50, 0
2, 5248, Note_on_c, 0, 43, 0
2, 5270, Note_on_c, 0, 67, 0
2, 5394, Note_on_c, 0, 74, 50
2, 5403, Note_on_c, 0, 70, 36
2, 5462, Note_on_c, 0, 74, 0
2, 5474, Note_on_c, 0, 67, 21
2, 5485, Note_on_c, 0, 70, 0
2, 5534, Note_on_c, 0, 67, 0
2, 5546, Note_on_c, 0, 74, 35
2, 5547, Note_on_c, 0, 70, 15
2, 5606, Note_on_c, 0, 74, 0
2, 5621, Note_on_c, 0, 67, 27
2, 5640, Note_on_c, 0, 70, 0
2, 5758, Note_on_c, 0, 67, 0
2, 5861, Note_on_c, 0, 74, 53
2, 5864, Note_on_c, 0, 70, 64
2, 5920, Note_on_c, 0, 74, 0
2, 5934, Note_on_c, 0, 67, 28
2, 5936, Note_on_c, 0, 70, 0
2, 5998, Note_on_c, 0, 67, 0
2, 6002, Note_on_c, 0, 74, 34
2, 6017, Note_on_c, 0, 70, 37
2, 6078, Note_on_c, 0, 62, 92
2, 6079, Note_on_c, 0, 70, 0
2, 6084, Note_on_c, 0, 67, 22
2, 6087, Note_on_c, 0, 74, 0
2, 6236, Note_on_c, 0, 67, 0
2, 6345, Note_on_c, 0, 74, 53
2, 6350, Note_on_c, 0, 70, 48
2, 6413, Note_on_c, 0, 67, 34
2, 6415, Note_on_c, 0, 70, 0
2, 6428, Note_on_c, 0, 74, 0
2, 6481, Note_on_c, 0, 67, 0
2, 6493, Note_on_c, 0, 74, 36
2, 6497, Note_on_c, 0, 70, 37
2, 6582, Note_on_c, 0, 67, 46
2, 6648, Note_on_c, 0, 70, 0
2, 6674, Note_on_c, 0, 74, 0
2, 6717, Note_on_c, 0, 67, 0
2, 6788, Note_on_c, 0, 60, 95
2, 6811, Note_on_c, 0, 62, 0
2, 6812, Note_on_c, 0, 74, 62
2, 6817, Note_on_c, 0, 70, 41
2, 6861, Note_on_c, 0, 70, 0
2, 6878, Note_on_c, 0, 66, 36
2, 6880, Note_on_c, 0, 74, 0
2, 6930, Note_on_c, 0, 66, 0
2, 6946, Note_on_c, 0, 74, 64
2, 6953, Note_on_c, 0, 70, 32
2, 7028, Note_on_c, 0, 66, 66
2, 7076, Control_c, 0, 64, 63
2, 7120, Control_c, 0, 64, 127
2, 7158, Note_on_c, 0, 74, 0
2, 7178, Note_on_c, 0, 70, 0
2, 7241, Note_on_c, 0, 66, 0
2, 7263, Note_on_c, 0, 58, 102
2, 7290, Note_on_c, 0, 70, 62
2, 7298, Note_on_c, 0, 74, 50
2, 7300, Note_on_c, 0, 60, 0
2, 7313, Control_c, 0, 64, 63
2, 7320, Control_c, 0, 64, 0
2, 7349, Control_c, 0, 64, 63
2, 7362, Control_c, 0, 64, 127
2, 7365, Note_on_c, 0, 67, 46
2, 7372, Note_on_c, 0, 74, 0
2, 7379, Note_on_c, 0, 60, 92
2, 7382, Note_on_c, 0, 70, 0
2, 7422, Note_on_c, 0, 58, 0
2, 7455, Note_on_c, 0, 70, 45
2, 7455, Note_on_c, 0, 74, 53
2, 7460, Note_on_c, 0, 67, 0
2, 7503, Control_c, 0, 64, 63
2, 7508, Control_c, 0, 64, 0
2, 7523, Note_on_c, 0, 62, 94
2, 7540, Note_on_c, 0, 60, 0
2, 7549, Note_on_c, 0, 74, 0
2, 7552, Note_on_c, 0, 70, 0
2, 7555, Note_on_c, 0, 67, 26
2, 7567, Control_c, 0, 64, 63
2, 7572, Control_c, 0, 64, 127
2, 7765, Note_on_c, 0, 62, 0
2, 7773, Note_on_c, 0, 74, 46
2, 7780, Note_on_c, 0, 70, 51
2, 7790, Note_on_c, 0, 67, 0
2, 7857, Note_on_c, 0, 67, 40
2, 7858, Note_on_c, 0, 74, 0
2, 7875, Note_on_c, 0, 70, 0
2, 7933, Note_on_c, 0, 67, 0
2, 7940, Note_on_c, 0, 74, 42
2, 7944, Note_on_c, 0, 70, 27
2, 7995, Note_on_c, 0, 50, 65
2, 8011, Note_on_c, 0, 67, 55
2, 8019, Note_on_c, 0, 43, 65
2, 8020, Note_on_c, 0, 70, 0
2, 8032, Note_on_c, 0, 74, 0
2, 8068, Note_on_c, 0, 50, 0
2, 8075, Note_on_c, 0, 43, 0
2, 8114, Note_on_c, 0, 67, 0
2, 8239, Note_on_c, 0, 74, 44
2, 8246, Note_on_c, 0, 70, 48
2, 8308, Note_on_c, 0, 74, 0
2, 8310, Note_on_c, 0, 70, 0
2, 8326, Note_on_c, 0, 67, 21
2, 8402, Note_on_c, 0, 67, 0
2, 8410, Note_on_c, 0, 74, 37
2, 8422, Note_on_c, 0, 70, 20
2, 8506, Note_on_c, 0, 70, 0
2, 8516, Note_on_c, 0, 67, 15
2, 8580, Note_on_c, 0, 74, 0
2, 8676, Note_on_c, 0, 67, 0
2, 8750, Note_on_c, 0, 58, 100
2, 8805, Note_on_c, 0, 67, 36
2, 8839, Control_c, 0, 64, 63
2, 8856, Note_on_c, 0, 64, 18
2, 8864, Control_c, 0, 64, 127
2, 8911, Note_on_c, 0, 64, 0
2, 8920, Note_on_c, 0, 74, 48
2, 8990, Note_on_c, 0, 64, 45
2, 9021, Note_on_c, 0, 74, 0
2, 9037, Note_on_c, 0, 67, 0
2, 9158, Note_on_c, 0, 64, 0
2, 9235, Note_on_c, 0, 67, 26
2, 9285, Note_on_c, 0, 67, 0
2, 9285, Note_on_c, 0, 64, 32
2, 9359, Note_on_c, 0, 64, 0
2, 9363, Note_on_c, 0, 74, 26
2, 9366, Note_on_c, 0, 67, 40
2, 9445, Note_on_c, 0, 64, 51
2, 9485, Note_on_c, 0, 67, 0
2, 9514, Note_on_c, 0, 74, 0
2, 9548, Note_on_c, 0, 64, 0
2, 9618, Note_on_c, 0, 58, 0
2, 9659, Note_on_c, 0, 57, 84
2, 9666, Note_on_c, 0, 74, 41
2, 9674, Note_on_c, 0, 72, 56
2, 9724, Note_on_c, 0, 66, 63
2, 9727, Control_c, 0, 64, 63
2, 9765, Note_on_c, 0, 72, 0
2, 9766, Note_on_c, 0, 74, 0
2, 9771, Control_c, 0, 64, 127
2, 9801, Note_on_c, 0, 72, 49
2, 9804, Note_on_c, 0, 66, 0
2, 9804, Note_on_c, 0, 74, 36
2, 9880, Note_on_c, 0, 66, 64
2, 9909, Control_c, 0, 64, 63
2, 9938, Control_c, 0, 64, 127
2, 10000, Note_on_c, 0, 74, 0
2, 10033, Note_on_c, 0, 72, 0
2, 10047, Note_on_c, 0, 66, 0
2, 10084, Note_on_c, 0, 57, 0
2, 10111, Note_on_c, 0, 55, 92
2, 10118, Note_on_c, 0, 70, 66
2, 10119, Note_on_c, 0, 74, 66
2, 10172, Control_c, 0, 64, 63
2, 10187, Note_on_c, 0, 64, 60
2, 10190, Note_on_c, 0, 74, 0
2, 10199, Note_on_c, 0, 70, 0
2, 10226, Control_c, 0, 64, 127
2, 10263, Note_on_c, 0, 74, 61
2, 10265, Note_on_c, 0, 70, 75
2, 10305, Note_on_c, 0, 64, 0
2, 10320, Note_on_c, 0, 58, 88
2, 10331, Control_c, 0, 64, 63
2, 10345, Control_c, 0, 64, 0
2, 10352, Note_on_c, 0, 64, 63
2, 10402, Note_on_c, 0, 55, 0
2, 10403, Control_c, 0, 64, 63
2, 10408, Note_on_c, 0, 70, 0
2, 10410, Control_c, 0, 64, 127
2, 10501, Note_on_c, 0, 74, 0
2, 10501, Control_c, 0, 64, 63
2, 10517, Control_c, 0, 64, 0
2, 10536, Control_c, 0, 64, 63
2, 10549, Control_c, 0, 64, 127
2, 10566, Note_on_c, 0, 64, 0
2, 10571, Note_on_c, 0, 74, 72
2, 10579, Note_on_c, 0, 67, 54
2, 10649, Note_on_c, 0, 64, 53
2, 10650, Note_on_c, 0, 74, 0
2, 10656, Control_c, 0, 64, 63
2, 10669, Control_c, 0, 64, 0
2, 10678, Control_c, 0, 64, 63
2, 10682, Note_on_c, 0, 67, 0
2, 10695, Control_c, 0, 64, 127
2, 10724, Note_on_c, 0, 64, 0
2, 10724, Note_on_c, 0, 74, 48
2, 10725, Note_on_c, 0, 67, 61
2, 10798, Note_on_c, 0, 64, 47
2, 10800, Note_on_c, 0, 74, 0
2, 10830, Note_on_c, 0, 67, 0
2, 10914, Note_on_c, 0, 58, 0
2, 10934, Note_on_c, 0, 64, 0
2, 11020, Note_on_c, 0, 55, 87
2, 11033, Note_on_c, 0, 70, 73
2, 11034, Note_on_c, 0, 74, 60
2, 11101, Note_on_c, 0, 64, 48
2, 11102, Control_c, 0, 64, 63
2, 11109, Note_on_c, 0, 70, 0
2, 11113, Note_on_c, 0, 74, 0
2, 11148, Control_c, 0, 64, 127
2, 11173, Note_on_c, 0, 74, 51
2, 11184, Note_on_c, 0, 70, 73
2, 11186, Note_on_c, 0, 64, 0
2, 11268, Note_on_c, 0, 64, 64
2, 11346, Note_on_c, 0, 74, 0
2, 11371, Note_on_c, 0, 64, 0
2, 11416, Note_on_c, 0, 70, 0
2, 11462, Note_on_c, 0, 55, 0
2, 11547, Note_on_c, 0, 57, 88
2, 11552, Note_on_c, 0, 74, 57
2, 11565, Note_on_c, 0, 69, 58
2, 11605, Control_c, 0, 64, 63
2, 11629, Note_on_c, 0, 66, 59
2, 11656, Note_on_c, 0, 74, 0
2, 11660, Control_c, 0, 64, 127
2, 11661, Note_on_c, 0, 69, 0
2, 11706, Note_on_c, 0, 74, 64
2, 11710, Note_on_c, 0, 66, 0
2, 11710, Note_on_c, 0, 69, 50
2, 11782, Note_on_c, 0, 66, 63
2, 11849, Note_on_c, 0, 69, 0
2, 11891, Note_on_c, 0, 74, 0
2, 11892, Note_on_c, 0, 57, 0
2, 11935, Note_on_c, 0, 66, 0
2, 12011, Note_on_c, 0, 62, 107
2, 12026, Note_on_c, 0, 74, 72
2, 12038, Note_on_c, 0, 69, 56
2, 12072, Control_c, 0, 64, 63
2, 12082, Note_on_c, 0, 66, 75
2, 12104, Note_on_c, 0, 69, 0
2, 12121, Control_c, 0, 64, 127
2, 12155, Note_on_c, 0, 69, 54
2, 12228, Note_on_c, 0, 64, 101
2, 12230, Note_on_c, 0, 66, 0
2, 12231, Note_on_c, 0, 69, 0
2, 12238, Note_on_c, 0, 67, 78
2, 12239, Note_on_c, 0, 62, 0
2, 12286, Control_c, 0, 64, 63
2, 12310, Control_c, 0, 64, 0
2, 12318, Note_on_c, 0, 74, 0
2, 12327, Control_c, 0, 64, 63
2, 12342, Control_c, 0, 64, 127
2, 12398, Note_on_c, 0, 67, 0
2, 12462, Note_on_c, 0, 62, 108
2, 12464, Note_on_c, 0, 64, 0
2, 12465, Note_on_c, 0, 70, 80
2, 12468, Note_on_c, 0, 74, 73
2, 12526, Note_on_c, 0, 67, 57
2, 12526, Control_c, 0, 64, 63
2, 12537, Control_c, 0, 64, 0
2, 12543, Note_on_c, 0, 70, 0
2, 12583, Control_c, 0, 64, 63
2, 12591, Note_on_c, 0, 70, 73
2, 12592, Control_c, 0, 64, 127
2, 12626, Note_on_c, 0, 67, 0
2, 12676, Note_on_c, 0, 64, 102
2, 12678, Note_on_c, 0, 67, 65
2, 12697, Control_c, 0, 64, 63
2, 12711, Note_on_c, 0, 62, 0
2, 12711, Control_c, 0, 64, 0
2, 12751, Control_c, 0, 64, 63
2, 12764, Control_c, 0, 64, 127
2, 12806, Note_on_c, 0, 70, 0
2, 12812, Note_on_c, 0, 74, 0
2, 12818, Note_on_c, 0, 67, 0
2, 12917, Note_on_c, 0, 74, 75
2, 12921, Note_on_c, 0, 66, 113
2, 12960, Note_on_c, 0, 64, 0
2, 12985, Note_on_c, 0, 69, 37
2, 12998, Note_on_c, 0, 74, 0
2, 12999, Control_c, 0, 64, 63
2, 13006, Control_c, 0, 64, 0
2, 13050, Control_c, 0, 64, 63
2, 13059, Note_on_c, 0, 74, 64
2, 13060, Control_c, 0, 64, 127
2, 13086, Note_on_c, 0, 69, 0
2, 13151, Note_on_c, 0, 69, 65
2, 13169, Note_on_c, 0, 74, 0
2, 13283, Note_on_c, 0, 69, 0
2, 13373, Note_on_c, 0, 74, 64
2, 13450, Note_on_c, 0, 69, 29
2, 13452, Note_on_c, 0, 74, 0
2, 13520, Note_on_c, 0, 74, 65
2, 13544, Note_on_c, 0, 69, 0
2, 13629, Note_on_c, 0, 69, 46
2, 13667, Note_on_c, 0, 74, 0
2, 13746, Note_on_c, 0, 66, 0
2, 13774, Note_on_c, 0, 69, 0
2, 13858, Note_on_c, 0, 63, 70
2, 13868, Note_on_c, 0, 72, 49
2, 13873, Note_on_c, 0, 69, 57
2, 13948, Note_on_c, 0, 66, 31
2, 13952, Note_on_c, 0, 72, 0
2, 14016, Note_on_c, 0, 66, 0
2, 14030, Note_on_c, 0, 72, 52
2, 14121, Note_on_c, 0, 66, 51
2, 14183, Note_on_c, 0, 69, 0
2, 14207, Note_on_c, 0, 72, 0
2, 14245, Note_on_c, 0, 66, 0
2, 14338, Note_on_c, 0, 63, 0
2, 14459, Note_on_c, 0, 62, 96
2, 14475, Note_on_c, 0, 70, 48
2, 14482, Note_on_c, 0, 74, 51
2, 14554, Note_on_c, 0, 67, 51
2, 14555, Control_c, 0, 64, 63
2, 14564, Note_on_c, 0, 74, 0
2, 14580, Control_c, 0, 64, 0
2, 14586, Note_on_c, 0, 70, 0
2, 14597, Control_c, 0, 64, 63
2, 14614, Control_c, 0, 64, 127
2, 14639, Note_on_c, 0, 70, 45
2, 14642, Note_on_c, 0, 74, 57
2, 14645, Note_on_c, 0, 67, 0
2, 14720, Note_on_c, 0, 67, 35
2, 14725, Note_on_c, 0, 70, 0
2, 14745, Note_on_c, 0, 74, 0
2, 14861, Note_on_c, 0, 67, 0
2, 14947, Note_on_c, 0, 74, 51
2, 14949, Note_on_c, 0, 70, 53
2, 15013, Note_on_c, 0, 74, 0
2, 15019, Note_on_c, 0, 67, 32
2, 15025, Note_on_c, 0, 70, 0
2, 15103, Note_on_c, 0, 70, 52
2, 15108, Note_on_c, 0, 74, 41
2, 15117, Note_on_c, 0, 67, 0
2, 15192, Note_on_c, 0, 67, 45
2, 15217, Note_on_c, 0, 70, 0
2, 15224, Note_on_c, 0, 74, 0
2, 15284, Note_on_c, 0, 67, 0
2, 15366, Note_on_c, 0, 62, 0
2, 15431, Note_on_c, 0, 60, 80
2, 15433, Note_on_c, 0, 74, 56
2, 15444, Note_on_c, 0, 70, 56
2, 15513, Note_on_c, 0, 66, 56
2, 15521, Note_on_c, 0, 70, 0
2, 15522, Note_on_c, 0, 74, 0
2, 15527, Control_c, 0, 64, 63
2, 15574, Note_on_c, 0, 66, 0
2, 15574, Control_c, 0, 64, 127
2, 15589, Note_on_c, 0, 70, 49
2, 15592, Note_on_c, 0, 74, 52
2, 15695, Note_on_c, 0, 66, 40
2, 15704, Note_on_c, 0, 74, 0
2, 15729, Note_on_c, 0, 70, 0
2, 15812, Note_on_c, 0, 60, 0
2, 15812, Note_on_c, 0, 66, 0
2, 15922, Note_on_c, 0, 58, 91
2, 15939, Note_on_c, 0, 70, 70
2, 15941, Note_on_c, 0, 74, 60
2, 15991, Control_c, 0, 64, 63
2, 16006, Note_on_c, 0, 74, 0
2, 16010, Note_on_c, 0, 70, 0
2, 16010, Note_on_c, 0, 67, 40
2, 16015, Control_c, 0, 64, 127
2, 16094, Note_on_c, 0, 70, 48
2, 16098, Note_on_c, 0, 67, 0
2, 16099, Note_on_c, 0, 74, 47
2, 16159, Note_on_c, 0, 62, 87
2, 16161, Control_c, 0, 64, 63
2, 16187, Note_on_c, 0, 67, 38
2, 16196, Note_on_c, 0, 58, 0
2, 16214, Note_on_c, 0, 70, 0
2, 16215, Control_c, 0, 64, 127
2, 16216, Note_on_c, 0, 74, 0
2, 16354, Note_on_c, 0, 67, 0
2, 16440, Note_on_c, 0, 70, 50
2, 16444, Note_on_c, 0, 74, 47
2, 16484, Note_on_c, 0, 62, 0
2, 16517, Note_on_c, 0, 67, 39
2, 16525, Note_on_c, 0, 74, 0
2, 16529, Note_on_c, 0, 70, 0
2, 16598, Note_on_c, 0, 74, 46
2, 16601, Note_on_c, 0, 70, 33
2, 16616, Note_on_c, 0, 67, 0
2, 16671, Note_on_c, 0, 43, 65
2, 16672, Note_on_c, 0, 50, 65
2, 16681, Note_on_c, 0, 70, 0
2, 16686, Note_on_c, 0, 67, 30
2, 16690, Note_on_c, 0, 74, 0
2, 16721, Note_on_c, 0, 50, 0
2, 16721, Note_on_c, 0, 43, 0
2, 16773, Note_on_c, 0, 67, 0
2, 16900, Note_on_c, 0, 74, 44
2, 16908, Note_on_c, 0, 70, 52
2, 16975, Note_on_c, 0, 74, 0
2, 16978, Note_on_c, 0, 67, 38
2, 16992, Note_on_c, 0, 70, 0
2, 17053, Note_on_c, 0, 67, 0
2, 17061, Note_on_c, 0, 70, 34
2, 17066, Note_on_c, 0, 74, 31
2, 17140, Note_on_c, 0, 67, 33
2, 17152, Note_on_c, 0, 74, 0
2, 17161, Note_on_c, 0, 70, 0
2, 17248, Note_on_c, 0, 67, 0
2, 17374, Note_on_c, 0, 74, 60
2, 17386, Note_on_c, 0, 70, 59
2, 17448, Note_on_c, 0, 74, 0
2, 17453, Note_on_c, 0, 67, 29
2, 17460, Note_on_c, 0, 70, 0
2, 17517, Note_on_c, 0, 67, 0
2, 17529, Note_on_c, 0, 70, 30
2, 17536, Note_on_c, 0, 74, 33
2, 17604, Note_on_c, 0, 62, 93
2, 17615, Note_on_c, 0, 67, 27
2, 17616, Note_on_c, 0, 70, 0
2, 17617, Note_on_c, 0, 74, 0
2, 17767, Note_on_c, 0, 67, 0
2, 17856, Note_on_c, 0, 74, 55
2, 17860, Note_on_c, 0, 70, 65
2, 17916, Note_on_c, 0, 67, 43
2, 17935, Note_on_c, 0, 74, 0
2, 17936, Note_on_c, 0, 70, 0
2, 17997, Note_on_c, 0, 70, 69
2, 18001, Note_on_c, 0, 74, 66
2, 18012, Note_on_c, 0, 67, 0
2, 18082, Note_on_c, 0, 67, 59
2, 18134, Note_on_c, 0, 70, 0
2, 18143, Note_on_c, 0, 74, 0
2, 18167, Note_on_c, 0, 67, 0
2, 18247, Note_on_c, 0, 62, 0
2, 18298, Note_on_c, 0, 60, 104
2, 18306, Note_on_c, 0, 74, 68
2, 18313, Note_on_c, 0, 70, 69
2, 18375, Note_on_c, 0, 66, 56
2, 18398, Note_on_c, 0, 74, 0
2, 18400, Note_on_c, 0, 70, 0
2, 18406, Control_c, 0, 64, 63
2, 18436, Control_c, 0, 64, 127
2, 18449, Note_on_c, 0, 70, 68
2, 18457, Note_on_c, 0, 74, 81
2, 18468, Note_on_c, 0, 66, 0
2, 18527, Control_c, 0, 64, 63
2, 18541, Note_on_c, 0, 66, 77
2, 18547, Control_c, 0, 64, 127
2, 18653, Note_on_c, 0, 70, 0
2, 18660, Note_on_c, 0, 74, 0
2, 18701, Note_on_c, 0, 60, 0
2, 18729, Note_on_c, 0, 66, 0
2, 18781, Note_on_c, 0, 58, 109
2, 18799, Note_on_c, 0, 74, 64
2, 18801, Note_on_c, 0, 70, 60
2, 18859, Control_c, 0, 64, 63
2, 18883, Control_c, 0, 64, 127
2, 18893, Note_on_c, 0, 67, 50
2, 18909, Note_on_c, 0, 74, 0
2, 18910, Note_on_c, 0, 60, 104
2, 18926, Note_on_c, 0, 70, 0
2, 18949, Note_on_c, 0, 58, 0
2, 19002, Note_on_c, 0, 70, 38
2, 19007, Note_on_c, 0, 74, 46
2, 19034, Control_c, 0, 64, 63
2, 19039, Note_on_c, 0, 67, 0
2, 19041, Control_c, 0, 64, 0
2, 19042, Note_on_c, 0, 62, 90
2, 19062, Note_on_c, 0, 60, 0
2, 19106, Note_on_c, 0, 67, 36
2, 19107, Control_c, 0, 64, 63
2, 19112, Control_c, 0, 64, 127
2, 19129, Note_on_c, 0, 70, 0
2, 19137, Note_on_c, 0, 74, 0
2, 19294, Note_on_c, 0, 62, 0
2, 19301, Note_on_c, 0, 74, 57
2, 19302, Note_on_c, 0, 70, 49
2, 19304, Note_on_c, 0, 67, 0
2, 19382, Note_on_c, 0, 67, 39
2, 19386, Note_on_c, 0, 74, 0
2, 19406, Note_on_c, 0, 70, 0
2, 19468, Note_on_c, 0, 67, 0
2, 19474, Note_on_c, 0, 70, 21
2, 19476, Note_on_c, 0, 74, 51
2, 19510, Note_on_c, 0, 50, 54
2, 19524, Note_on_c, 0, 43, 55
2, 19548, Note_on_c, 0, 70, 0
2, 19553, Note_on_c, 0, 43, 0
2, 19553, Note_on_c, 0, 50, 0
2, 19554, Note_on_c, 0, 74, 0
2, 19558, Note_on_c, 0, 67, 20
2, 19606, Note_on_c, 0, 67, 0
2, 19744, Note_on_c, 0, 74, 53
2, 19749, Note_on_c, 0, 70, 54
2, 19809, Note_on_c, 0, 74, 0
2, 19810, Note_on_c, 0, 70, 0
2, 19810, Note_on_c, 0, 67, 30
2, 19877, Note_on_c, 0, 67, 0
2, 19892, Note_on_c, 0, 74, 33
2, 19899, Note_on_c, 0, 70, 25
2, 19975, Note_on_c, 0, 74, 0
2, 19981, Note_on_c, 0, 67, 46
2, 20001, Note_on_c, 0, 70, 0
2, 20050, Note_on_c, 0, 67, 0
2, 20210, Note_on_c, 0, 58, 103
2, 20216, Note_on_c, 0, 74, 61
2, 20221, Note_on_c, 0, 67, 49
2, 20284, Note_on_c, 0, 64, 52
2, 20288, Note_on_c, 0, 74, 0
2, 20294, Note_on_c, 0, 67, 0
2, 20304, Control_c, 0, 64, 63
2, 20324, Control_c, 0, 64, 127
2, 20364, Note_on_c, 0, 74, 54
2, 20370, Note_on_c, 0, 67, 51
2, 20372, Note_on_c, 0, 64, 0
2, 20452, Note_on_c, 0, 64, 44
2, 20528, Note_on_c, 0, 67, 0
2, 20616, Note_on_c, 0, 74, 0
2, 20628, Note_on_c, 0, 64, 0
2, 20690, Note_on_c, 0, 74, 40
2, 20702, Note_on_c, 0, 67, 48
2, 20764, Note_on_c, 0, 74, 0
2, 20764, Note_on_c, 0, 64, 35
2, 20777, Note_on_c, 0, 67, 0
2, 20832, Note_on_c, 0, 64, 0
2, 20846, Note_on_c, 0, 74, 33
2, 20847, Note_on_c, 0, 67, 33
2, 20932, Note_on_c, 0, 64, 58
2, 20956, Note_on_c, 0, 67, 0
2, 20979, Note_on_c, 0, 64, 0
2, 20984, Note_on_c, 0, 74, 0
2, 21148, Note_on_c, 0, 74, 70
2, 21155, Note_on_c, 0, 57, 81
2, 21179, Note_on_c, 0, 72, 41
2, 21182, Note_on_c, 0, 58, 0
2, 21211, Note_on_c, 0, 66, 48
2, 21218, Control_c, 0, 64, 63
2, 21235, Note_on_c, 0, 74, 0
2, 21254, Note_on_c, 0, 72, 0
2, 21255, Control_c, 0, 64, 127
2, 21288, Note_on_c, 0, 72, 55
2, 21290, Note_on_c, 0, 66, 0
2, 21291, Note_on_c, 0, 74, 61
2, 21368, Note_on_c, 0, 66, 54
2, 21385, Control_c, 0, 64, 63
2, 21402, Control_c, 0, 64, 127
2, 21509, Note_on_c, 0, 74, 0
2, 21531, Note_on_c, 0, 72, 0
2, 21566, Note_on_c, 0, 66, 0
2, 21595, Note_on_c, 0, 57, 0
2, 21626, Note_on_c, 0, 55, 93
2, 21652, Note_on_c, 0, 70, 62
2, 21654, Note_on_c, 0, 74, 67
2, 21685, Control_c, 0, 64, 63
2, 21716, Control_c, 0, 64, 127
2, 21735, Note_on_c, 0, 64, 28
2, 21739, Note_on_c, 0, 57, 82
2, 21746, Note_on_c, 0, 74, 0
2, 21757, Note_on_c, 0, 70, 0
2, 21763, Note_on_c, 0, 55, 0
2, 21853, Note_on_c, 0, 64, 0
2, 21854, Note_on_c, 0, 74, 42
2, 21859, Note_on_c, 0, 70, 43
2, 21867, Note_on_c, 0, 58, 81
2, 21879, Note_on_c, 0, 57, 0
2, 21918, Control_c, 0, 64, 63
2, 21922, Note_on_c, 0, 70, 0
2, 21932, Note_on_c, 0, 64, 39
2, 21945, Note_on_c, 0, 74, 0
2, 21959, Control_c, 0, 64, 127
2, 22032, Note_on_c, 0, 64, 0
2, 22125, Note_on_c, 0, 74, 53
2, 22127, Note_on_c, 0, 67, 50
2, 22177, Control_c, 0, 64, 63
2, 22182, Control_c, 0, 64, 0
2, 22200, Control_c, 0, 64, 63
2, 22205, Note_on_c, 0, 64, 48
2, 22210, Control_c, 0, 64, 127
2, 22233, Note_on_c, 0, 74, 0
2, 22246, Note_on_c, 0, 67, 0
2, 22277, Note_on_c, 0, 64, 0
2, 22286, Note_on_c, 0, 74, 45
2, 22290, Note_on_c, 0, 67, 39
2, 22365, Note_on_c, 0, 64, 58
2, 22403, Note_on_c, 0, 67, 0
2, 22412, Note_on_c, 0, 74, 0
2, 22443, Note_on_c, 0, 58, 0
2, 22459, Note_on_c, 0, 64, 0
2, 22590, Note_on_c, 0, 55, 91
2, 22594, Note_on_c, 0, 70, 72
2, 22601, Note_on_c, 0, 74, 55
2, 22664, Control_c, 0, 64, 63
2, 22667, Note_on_c, 0, 70, 0
2, 22673, Note_on_c, 0, 74, 0
2, 22675, Note_on_c, 0, 64, 22
2, 22687, Control_c, 0, 64, 127
2, 22738, Note_on_c, 0, 74, 65
2, 22742, Note_on_c, 0, 70, 77
2, 22763, Note_on_c, 0, 64, 0
2, 22832, Note_on_c, 0, 64, 70
2, 22900, Note_on_c, 0, 74, 0
2, 22905, Note_on_c, 0, 64, 0
2, 22922, Note_on_c, 0, 70, 0
2, 22943, Note_on_c, 0, 55, 0
2, 23060, Note_on_c, 0, 57, 102
2, 23069, Note_on_c, 0, 74, 64
2, 23075, Note_on_c, 0, 69, 57
2, 23092, Control_c, 0, 64, 63
2, 23103, Control_c, 0, 64, 0
2, 23137, Control_c, 0, 64, 63
2, 23138, Note_on_c, 0, 74, 0
2, 23140, Note_on_c, 0, 66, 57
2, 23150, Control_c, 0, 64, 127
2, 23175, Note_on_c, 0, 69, 0
2, 23207, Note_on_c, 0, 74, 57
2, 23213, Note_on_c, 0, 69, 60
2, 23216, Note_on_c, 0, 66, 0
2, 23275, Note_on_c, 0, 66, 67
2, 23309, Note_on_c, 0, 74, 0
2, 23324, Note_on_c, 0, 69, 0
2, 23471, Note_on_c, 0, 66, 0
2, 23517, Note_on_c, 0, 57, 0
2, 23522, Note_on_c, 0, 62, 107
2, 23539, Note_on_c, 0, 74, 74
2, 23547, Note_on_c, 0, 69, 52
2, 23578, Control_c, 0, 64, 63
2, 23603, Note_on_c, 0, 66, 60
2, 23611, Control_c, 0, 64, 127
2, 23635, Note_on_c, 0, 69, 0
2, 23682, Note_on_c, 0, 69, 64
2, 23700, Note_on_c, 0, 66, 0
2, 23758, Note_on_c, 0, 64, 98
2, 23759, Note_on_c, 0, 67, 84
2, 23764, Note_on_c, 0, 69, 0
2, 23792, Note_on_c, 0, 62, 0
2, 23795, Control_c, 0, 64, 63
2, 23803, Note_on_c, 0, 74, 0
2, 23815, Control_c, 0, 64, 0
2, 23830, Control_c, 0, 64, 63
2, 23848, Control_c, 0, 64, 127
2, 23915, Note_on_c, 0, 67, 0
2, 23954, Note_on_c, 0, 64, 0
2, 23985, Note_on_c, 0, 62, 97
2, 23992, Note_on_c, 0, 70, 82
2, 23994, Note_on_c, 0, 74, 72
2, 24049, Control_c, 0, 64, 63
2, 24052, Note_on_c, 0, 67, 52
2, 24067, Control_c, 0, 64, 0
2, 24072, Control_c, 0, 64, 63
2, 24073, Note_on_c, 0, 70, 0
2, 24096, Control_c, 0, 64, 127
2, 24122, Note_on_c, 0, 70, 76
2, 24154, Note_on_c, 0, 67, 0
2, 24186, Note_on_c, 0, 64, 109
2, 24202, Control_c, 0, 64, 63
2, 24204, Note_on_c, 0, 67, 71
2, 24225, Note_on_c, 0, 62, 0
2, 24225, Control_c, 0, 64, 127
2, 24249, Note_on_c, 0, 70, 0
2, 24276, Note_on_c, 0, 74, 0
2, 24327, Note_on_c, 0, 67, 0
2, 24431, Note_on_c, 0, 66, 118
2, 24446, Note_on_c, 0, 78, 86
2, 24469, Note_on_c, 0, 64, 0
2, 24492, Control_c, 0, 64, 63
2, 24507, Note_on_c, 0, 74, 57
2, 24531, Note_on_c, 0, 78, 0
2, 24542, Control_c, 0, 64, 127
2, 24587, Note_on_c, 0, 78, 94
2, 24616, Note_on_c, 0, 74, 0
2, 24690, Note_on_c, 0, 69, 103
2, 24701, Note_on_c, 0, 74, 69
2, 24715, Note_on_c, 0, 78, 0
2, 24756, Control_c, 0, 64, 63
2, 24761, Note_on_c, 0, 66, 0
2, 24763, Control_c, 0, 64, 0
2, 24806, Control_c, 0, 64, 63
2, 24815, Control_c, 0, 64, 127
2, 24869, Note_on_c, 0, 74, 0
2, 24958, Note_on_c, 0, 78, 77
2, 25039, Note_on_c, 0, 74, 62
2, 25050, Note_on_c, 0, 78, 0
2, 25108, Note_on_c, 0, 78, 86
2, 25132, Note_on_c, 0, 74, 0
2, 25174, Note_on_c, 0, 74, 66
2, 25214, Note_on_c, 0, 78, 0
2, 25310, Note_on_c, 0, 74, 0
2, 25416, Note_on_c, 0, 62, 103
2, 25416, Note_on_c, 0, 78, 70
2, 25493, Note_on_c, 0, 74, 67
2, 25506, Note_on_c, 0, 78, 0
2, 25554, Note_on_c, 0, 69, 0
2, 25577, Note_on_c, 0, 78, 81
2, 25605, Note_on_c, 0, 74, 0
2, 25667, Note_on_c, 0, 74, 73
2, 25711, Note_on_c, 0, 62, 0
2, 25754, Note_on_c, 0, 74, 0
2, 25772, Note_on_c, 0, 78, 0
2, 25996, Note_on_c, 0, 67, 71
2, 25997, Note_on_c, 0, 75, 85
2, 25999, Note_on_c, 0, 63, 70
2, 26001, Note_on_c, 0, 79, 75
2, 26008, Note_on_c, 0, 60, 65
2, 26023, Control_c, 0, 64, 63
2, 26032, Control_c, 0, 64, 0
2, 26082, Control_c, 0, 64, 63
2, 26085, Note_on_c, 0, 72, 65
2, 26089, Control_c, 0, 64, 127
2, 26125, Note_on_c, 0, 79, 0
2, 26132, Note_on_c, 0, 75, 0
2, 26164, Note_on_c, 0, 79, 74
2, 26169, Note_on_c, 0, 75, 81
2, 26178, Note_on_c, 0, 72, 0
2, 26240, Note_on_c, 0, 72, 89
2, 26259, Note_on_c, 0, 67, 0
2, 26265, Note_on_c, 0, 63, 0
2, 26300, Note_on_c, 0, 60, 0
2, 26308, Note_on_c, 0, 79, 0
2, 26315, Note_on_c, 0, 75, 0
2, 26405, Note_on_c, 0, 72, 0
2, 26463, Note_on_c, 0, 69, 61
2, 26470, Note_on_c, 0, 81, 102
2, 26472, Note_on_c, 0, 65, 64
2, 26476, Note_on_c, 0, 77, 82
2, 26536, Note_on_c, 0, 72, 72
2, 26553, Note_on_c, 0, 81, 0
2, 26560, Note_on_c, 0, 77, 0
2, 26605, Note_on_c, 0, 81, 83
2, 26615, Note_on_c, 0, 77, 72
2, 26634, Note_on_c, 0, 72, 0
2, 26688, Note_on_c, 0, 72, 76
2, 26780, Note_on_c, 0, 81, 0
2, 26788, Note_on_c, 0, 77, 0
2, 26791, Note_on_c, 0, 69, 0
2, 26829, Note_on_c, 0, 72, 0
2, 26847, Note_on_c, 0, 65, 0
2, 26905, Note_on_c, 0, 67, 99
2, 26907, Note_on_c, 0, 63, 95
2, 26914, Note_on_c, 0, 79, 71
2, 26916, Note_on_c, 0, 75, 68
2, 26926, Note_on_c, 0, 60, 52
2, 26961, Control_c, 0, 64, 63
2, 26970, Control_c, 0, 64, 0
2, 26979, Note_on_c, 0, 72, 62
2, 26982, Note_on_c, 0, 75, 0
2, 26997, Note_on_c, 0, 79, 0
2, 27031, Control_c, 0, 64, 63
2, 27039, Control_c, 0, 64, 127
2, 27053, Note_on_c, 0, 79, 76
2, 27057, Note_on_c, 0, 75, 83
2, 27076, Note_on_c, 0, 72, 0
2, 27134, Note_on_c, 0, 72, 81
2, 27193, Note_on_c, 0, 75, 0
2, 27196, Note_on_c, 0, 79, 0
2, 27199, Note_on_c, 0, 67, 0
2, 27225, Note_on_c, 0, 72, 0
2, 27247, Note_on_c, 0, 63, 0
2, 27266, Note_on_c, 0, 60, 0
2, 27352, Note_on_c, 0, 81, 94
2, 27353, Note_on_c, 0, 69, 85
2, 27355, Note_on_c, 0, 65, 80
2, 27359, Control_c, 0, 64, 63
2, 27364, Note_on_c, 0, 77, 75
2, 27375, Control_c, 0, 64, 0
2, 27398, Control_c, 0, 64, 63
2, 27414, Control_c, 0, 64, 127
2, 27419, Note_on_c, 0, 72, 83
2, 27433, Note_on_c, 0, 81, 0
2, 27454, Note_on_c, 0, 77, 0
2, 27472, Note_on_c, 0, 81, 70
2, 27476, Note_on_c, 0, 69, 0
2, 27487, Note_on_c, 0, 77, 78
2, 27496, Note_on_c, 0, 72, 0
2, 27553, Note_on_c, 0, 67, 81
2, 27555, Note_on_c, 0, 63, 86
2, 27562, Note_on_c, 0, 75, 81
2, 27566, Note_on_c, 0, 60, 68
2, 27570, Note_on_c, 0, 79, 83
2, 27573, Note_on_c, 0, 77, 0
2, 27584, Note_on_c, 0, 81, 0
2, 27585, Note_on_c, 0, 65, 0
2, 27591, Control_c, 0, 64, 63
2, 27611, Control_c, 0, 64, 0
2, 27632, Control_c, 0, 64, 63
2, 27639, Note_on_c, 0, 72, 65
2, 27646, Control_c, 0, 64, 127
2, 27664, Note_on_c, 0, 79, 0
2, 27670, Note_on_c, 0, 75, 0
2, 27709, Note_on_c, 0, 72, 0
2, 27714, Note_on_c, 0, 79, 50
2, 27715, Note_on_c, 0, 75, 63
2, 27747, Control_c, 0, 64, 63
2, 27761, Control_c, 0, 64, 0
2, 27780, Note_on_c, 0, 72, 41
2, 27788, Control_c, 0, 64, 63
2, 27805, Control_c, 0, 64, 127
2, 27829, Note_on_c, 0, 79, 0
2, 27834, Note_on_c, 0, 75, 0
2, 27904, Note_on_c, 0, 72, 0
2, 28015, Note_on_c, 0, 79, 65
2, 28021, Note_on_c, 0, 75, 50
2, 28079, Note_on_c, 0, 79, 0
2, 28083, Note_on_c, 0, 75, 0
2, 28093, Note_on_c, 0, 72, 28
2, 28148, Note_on_c, 0, 72, 0
2, 28149, Note_on_c, 0, 79, 38
2, 28161, Note_on_c, 0, 75, 54
2, 28239, Note_on_c, 0, 72, 65
2, 28257, Note_on_c, 0, 75, 0
2, 28263, Note_on_c, 0, 79, 0
2, 28320, Note_on_c, 0, 67, 0
2, 28328, Note_on_c, 0, 72, 0
2, 28416, Note_on_c, 0, 63, 0
2, 28454, Note_on_c, 0, 60, 0
2, 28461, Note_on_c, 0, 81, 69
2, 28466, Note_on_c, 0, 69, 78
2, 28471, Note_on_c, 0, 65, 76
2, 28473, Note_on_c, 0, 77, 65
2, 28497, Control_c, 0, 64, 63
2, 28535, Note_on_c, 0, 72, 50
2, 28537, Note_on_c, 0, 81, 0
2, 28539, Note_on_c, 0, 77, 0
2, 28539, Control_c, 0, 64, 127
2, 28591, Note_on_c, 0, 81, 37
2, 28601, Note_on_c, 0, 72, 0
2, 28610, Note_on_c, 0, 65, 0
2, 28628, Note_on_c, 0, 69, 0
2, 28634, Note_on_c, 0, 81, 0
2, 28692, Note_on_c, 0, 65, 80
2, 28694, Note_on_c, 0, 77, 65
2, 28699, Note_on_c, 0, 62, 73
2, 28702, Note_on_c, 0, 74, 62
2, 28744, Control_c, 0, 64, 63
2, 28759, Control_c, 0, 64, 0
2, 28764, Note_on_c, 0, 69, 69
2, 28767, Control_c, 0, 64, 63
2, 28790, Control_c, 0, 64, 127
2, 28796, Note_on_c, 0, 77, 0
2, 28799, Note_on_c, 0, 74, 0
2, 28840, Note_on_c, 0, 74, 65
2, 28842, Note_on_c, 0, 77, 67
2, 28844, Note_on_c, 0, 69, 0
2, 28931, Note_on_c, 0, 69, 65
2, 28960, Note_on_c, 0, 74, 0
2, 28965, Note_on_c, 0, 77, 0
2, 28991, Note_on_c, 0, 62, 0
2, 28992, Note_on_c, 0, 69, 0
2, 29009, Note_on_c, 0, 65, 0
2, 29188, Note_on_c, 0, 63, 72
2, 29193, Note_on_c, 0, 79, 84
2, 29195, Note_on_c, 0, 67, 64
2, 29196, Note_on_c, 0, 75, 80
2, 29201, Note_on_c, 0, 60, 73
2, 29203, Note_on_c, 0, 57, 46
2, 29241, Control_c, 0, 64, 63
2, 29272, Control_c, 0, 64, 127
2, 29274, Note_on_c, 0, 72, 46
2, 29281, Note_on_c, 0, 79, 0
2, 29286, Note_on_c, 0, 75, 0
2, 29345, Note_on_c, 0, 79, 47
2, 29350, Note_on_c, 0, 75, 60
2, 29351, Note_on_c, 0, 72, 0
2, 29444, Note_on_c, 0, 72, 50
2, 29510, Note_on_c, 0, 79, 0
2, 29540, Note_on_c, 0, 72, 0
2, 29546, Note_on_c, 0, 75, 0
2, 29559, Note_on_c, 0, 63, 0
2, 29578, Note_on_c, 0, 67, 0
2, 29614, Note_on_c, 0, 60, 0
2, 29639, Note_on_c, 0, 57, 0
2, 29675, Note_on_c, 0, 65, 79
2, 29677, Note_on_c, 0, 62, 76
2, 29679, Note_on_c, 0, 77, 76
2, 29687, Note_on_c, 0, 74, 62
2, 29704, Control_c, 0, 64, 63
2, 29737, Control_c, 0, 64, 127
2, 29752, Note_on_c, 0, 69, 51
2, 29760, Note_on_c, 0, 74, 0
2, 29771, Note_on_c, 0, 77, 0
2, 29835, Note_on_c, 0, 77, 63
2, 29836, Note_on_c, 0, 69, 0
2, 29838, Note_on_c, 0, 74, 65
2, 29923, Note_on_c, 0, 69, 55
2, 29973, Note_on_c, 0, 74, 0
2, 30026, Note_on_c, 0, 77, 0
2, 30038, Note_on_c, 0, 62, 0
2, 30059, Note_on_c, 0, 65, 0
2, 30068, Note_on_c, 0, 69, 0
2, 30198, Note_on_c, 0, 63, 68
2, 30202, Note_on_c, 0, 79, 86
2, 30205, Note_on_c, 0, 75, 82
2, 30206, Note_on_c, 0, 67, 49
2, 30211, Note_on_c, 0, 60, 67
2, 30213, Control_c, 0, 64, 63
2, 30216, Note_on_c, 0, 57, 36
2, 30257, Control_c, 0, 64, 127
2, 30285, Note_on_c, 0, 72, 73
2, 30308, Note_on_c, 0, 75, 0
2, 30325, Note_on_c, 0, 67, 0
2, 30338, Note_on_c, 0, 63, 0
2, 30356, Note_on_c, 0, 75, 77
2, 30368, Note_on_c, 0, 72, 0
2, 30372, Note_on_c, 0, 79, 0
2, 30377, Note_on_c, 0, 60, 0
2, 30399, Note_on_c, 0, 75, 0
2, 30416, Note_on_c, 0, 57, 0
2, 30427, Note_on_c, 0, 65, 65
2, 30430, Note_on_c, 0, 77, 85
2, 30434, Note_on_c, 0, 74, 73
2, 30437, Note_on_c, 0, 62, 55
2, 30494, Control_c, 0, 64, 63
2, 30509, Control_c, 0, 64, 0
2, 30517, Note_on_c, 0, 69, 46
2, 30521, Control_c, 0, 64, 63
2, 30525, Note_on_c, 0, 67, 29
2, 30534, Note_on_c, 0, 74, 0
2, 30538, Note_on_c, 0, 77, 0
2, 30538, Control_c, 0, 64, 127
2, 30554, Note_on_c, 0, 67, 0
2, 30587, Note_on_c, 0, 69, 0
2, 30587, Note_on_c, 0, 77, 57
2, 30588, Note_on_c, 0, 74, 60
2, 30629, Control_c, 0, 64, 63
2, 30667, Control_c, 0, 64, 127
2, 30681, Note_on_c, 0, 69, 67
2, 30795, Note_on_c, 0, 69, 0
2, 30807, Note_on_c, 0, 77, 0
2, 30817, Note_on_c, 0, 74, 0
2, 30885, Note_on_c, 0, 77, 80
2, 30887, Note_on_c, 0, 74, 74
2, 30956, Note_on_c, 0, 69, 51
2, 30966, Note_on_c, 0, 77, 0
2, 30981, Note_on_c, 0, 74, 0
2, 31020, Note_on_c, 0, 69, 0
2, 31024, Note_on_c, 0, 77, 52
2, 31037, Note_on_c, 0, 74, 50
2, 31129, Note_on_c, 0, 69, 54
2, 31199, Note_on_c, 0, 74, 0
2, 31202, Note_on_c, 0, 62, 0
2, 31209, Note_on_c, 0, 77, 0
2, 31218, Note_on_c, 0, 69, 0
2, 31219, Note_on_c, 0, 65, 0
2, 31405, Note_on_c, 0, 63, 51
2, 31406, Note_on_c, 0, 75, 71
2, 31408, Note_on_c, 0, 79, 60
2, 31417, Note_on_c, 0, 67, 29
2, 31419, Note_on_c, 0, 60, 46
2, 31424, Note_on_c, 0, 57, 30
2, 31431, Control_c, 0, 64, 63
2, 31462, Control_c, 0, 64, 127
2, 31492, Note_on_c, 0, 72, 50
2, 31500, Note_on_c, 0, 75, 0
2, 31545, Note_on_c, 0, 60, 0
2, 31554, Note_on_c, 0, 67, 0
2, 31564, Note_on_c, 0, 72, 0
2, 31576, Note_on_c, 0, 63, 0
2, 31589, Note_on_c, 0, 57, 0
2, 31593, Note_on_c, 0, 75, 48
2, 31631, Note_on_c, 0, 79, 0
2, 31651, Note_on_c, 0, 75, 0
2, 31750, Note_on_c, 0, 70, 63
2, 31756, Note_on_c, 0, 74, 68
2, 31759, Note_on_c, 0, 62, 70
2, 31775, Note_on_c, 0, 55, 65
2, 31806, Control_c, 0, 64, 63
2, 31842, Control_c, 0, 64, 127
2, 31866, Note_on_c, 0, 67, 70
2, 31891, Note_on_c, 0, 70, 0
2, 31902, Note_on_c, 0, 74, 0
2, 31949, Note_on_c, 0, 74, 51
2, 31953, Note_on_c, 0, 70, 57
2, 31973, Note_on_c, 0, 67, 0
2, 32039, Note_on_c, 0, 67, 47
2, 32074, Note_on_c, 0, 70, 0
2, 32106, Note_on_c, 0, 74, 0
2, 32134, Note_on_c, 0, 67, 0
2, 32263, Note_on_c, 0, 70, 63
2, 32273, Note_on_c, 0, 74, 48
2, 32336, Note_on_c, 0, 74, 0
2, 32337, Note_on_c, 0, 70, 0
2, 32338, Note_on_c, 0, 67, 40
2, 32412, Note_on_c, 0, 74, 47
2, 32413, Note_on_c, 0, 67, 0
2, 32414, Note_on_c, 0, 70, 50
2, 32511, Note_on_c, 0, 67, 31
2, 32525, Note_on_c, 0, 70, 0
2, 32535, Note_on_c, 0, 74, 0
2, 32592, Note_on_c, 0, 67, 0
2, 32735, Note_on_c, 0, 62, 0
2, 32737, Note_on_c, 0, 60, 78
2, 32737, Note_on_c, 0, 74, 65
2, 32769, Note_on_c, 0, 70, 32
2, 32800, Note_on_c, 0, 55, 0
2, 32816, Note_on_c, 0, 70, 0
2, 32823, Note_on_c, 0, 74, 0
2, 32835, Note_on_c, 0, 66, 19
2, 32870, Note_on_c, 0, 66, 0
2, 32911, Note_on_c, 0, 70, 16
2, 32913, Note_on_c, 0, 74, 51
2, 32999, Note_on_c, 0, 66, 40
2, 33044, Note_on_c, 0, 74, 0
2, 33053, Note_on_c, 0, 70, 0
2, 33088, Note_on_c, 0, 60, 0
2, 33117, Note_on_c, 0, 66, 0
2, 33231, Note_on_c, 0, 58, 64
2, 33254, Note_on_c, 0, 74, 53
2, 33254, Note_on_c, 0, 70, 62
2, 33308, Control_c, 0, 64, 63
2, 33325, Control_c, 0, 64, 127
2, 33346, Note_on_c, 0, 67, 41
2, 33346, Note_on_c, 0, 60, 79
2, 33351, Note_on_c, 0, 74, 0
2, 33354, Note_on_c, 0, 70, 0
2, 33373, Note_on_c, 0, 58, 0
2, 33448, Note_on_c, 0, 70, 46
2, 33462, Control_c, 0, 64, 63
2, 33468, Note_on_c, 0, 74, 33
2, 33479, Note_on_c, 0, 62, 70
2, 33485, Control_c, 0, 64, 127
2, 33498, Note_on_c, 0, 60, 0
2, 33566, Note_on_c, 0, 70, 0
2, 33572, Note_on_c, 0, 74, 0
2, 33617, Note_on_c, 0, 67, 0
2, 33696, Note_on_c, 0, 62, 0
2, 33721, Note_on_c, 0, 70, 66
2, 33729, Note_on_c, 0, 74, 58
2, 33806, Note_on_c, 0, 70, 0
2, 33820, Note_on_c, 0, 67, 27
2, 33821, Note_on_c, 0, 74, 0
2, 33885, Note_on_c, 0, 67, 0
2, 33889, Note_on_c, 0, 70, 46
2, 33906, Note_on_c, 0, 74, 28
2, 33966, Note_on_c, 0, 50, 43
2, 33968, Note_on_c, 0, 43, 55
2, 33975, Note_on_c, 0, 67, 42
2, 33982, Note_on_c, 0, 70, 0
2, 33996, Note_on_c, 0, 74, 0
2, 34034, Note_on_c, 0, 50, 0
2, 34050, Note_on_c, 0, 43, 0
2, 34085, Note_on_c, 0, 67, 0
2, 34207, Note_on_c, 0, 70, 58
2, 34209, Note_on_c, 0, 74, 56
2, 34271, Note_on_c, 0, 74, 0
2, 34282, Note_on_c, 0, 70, 0
2, 34282, Note_on_c, 0, 67, 33
2, 34354, Note_on_c, 0, 67, 0
2, 34355, Note_on_c, 0, 74, 43
2, 34359, Note_on_c, 0, 70, 47
2, 34440, Note_on_c, 0, 74, 0
2, 34454, Note_on_c, 0, 67, 35
2, 34459, Note_on_c, 0, 70, 0
2, 34502, Note_on_c, 0, 67, 0
2, 34747, Note_on_c, 0, 70, 62
2, 34751, Note_on_c, 0, 55, 64
2, 34758, Note_on_c, 0, 64, 47
2, 34788, Control_c, 0, 64, 63
2, 34816, Control_c, 0, 64, 127
2, 34836, Note_on_c, 0, 70, 0
2, 34842, Note_on_c, 0, 61, 55
2, 34852, Note_on_c, 0, 64, 0
2, 34910, Note_on_c, 0, 61, 0
2, 34921, Note_on_c, 0, 70, 50
2, 34925, Note_on_c, 0, 64, 46
2, 34991, Note_on_c, 0, 61, 47
2, 35049, Note_on_c, 0, 64, 0
2, 35064, Note_on_c, 0, 70, 0
2, 35110, Note_on_c, 0, 61, 0
2, 35203, Note_on_c, 0, 70, 56
2, 35219, Note_on_c, 0, 64, 50
2, 35259, Note_on_c, 0, 61, 61
2, 35262, Note_on_c, 0, 70, 0
2, 35279, Note_on_c, 0, 64, 0
2, 35317, Note_on_c, 0, 61, 0
2, 35330, Note_on_c, 0, 70, 51
2, 35334, Note_on_c, 0, 64, 43
2, 35407, Note_on_c, 0, 61, 79
2, 35453, Note_on_c, 0, 64, 0
2, 35465, Note_on_c, 0, 70, 0
2, 35495, Note_on_c, 0, 61, 0
2, 35649, Note_on_c, 0, 54, 104
2, 35652, Note_on_c, 0, 70, 59
2, 35667, Note_on_c, 0, 66, 58
2, 35684, Note_on_c, 0, 55, 0
2, 35715, Note_on_c, 0, 61, 59
2, 35733, Note_on_c, 0, 66, 0
2, 35735, Note_on_c, 0, 70, 0
2, 35807, Note_on_c, 0, 66, 80
2, 35808, Note_on_c, 0, 70, 62
2, 35817, Note_on_c, 0, 61, 0
2, 35892, Note_on_c, 0, 61, 77
2, 35906, Control_c, 0, 64, 63
2, 35925, Control_c, 0, 64, 0
2, 35950, Control_c, 0, 64, 63
2, 35967, Control_c, 0, 64, 127
2, 35994, Note_on_c, 0, 66, 0
2, 36005, Note_on_c, 0, 70, 0
2, 36073, Note_on_c, 0, 61, 0
2, 36076, Note_on_c, 0, 54, 0
2, 36135, Note_on_c, 0, 52, 99
2, 36150, Note_on_c, 0, 70, 66
2, 36158, Note_on_c, 0, 67, 63
2, 36180, Control_c, 0, 64, 63
2, 36221, Note_on_c, 0, 61, 65
2, 36222, Control_c, 0, 64, 127
2, 36242, Note_on_c, 0, 67, 0
2, 36249, Note_on_c, 0, 54, 102
2, 36265, Note_on_c, 0, 70, 0
2, 36293, Note_on_c, 0, 52, 0
2, 36317, Note_on_c, 0, 61, 0
2, 36319, Note_on_c, 0, 70, 35
2, 36325, Note_on_c, 0, 67, 48
2, 36394, Note_on_c, 0, 55, 92
2, 36406, Note_on_c, 0, 61, 59
2, 36414, Control_c, 0, 64, 63
2, 36415, Note_on_c, 0, 67, 0
2, 36429, Control_c, 0, 64, 0
2, 36441, Note_on_c, 0, 54, 0
2, 36475, Control_c, 0, 64, 63
2, 36483, Control_c, 0, 64, 127
2, 36504, Note_on_c, 0, 70, 0
2, 36574, Note_on_c, 0, 61, 0
2, 36641, Control_c, 0, 64, 63
2, 36642, Note_on_c, 0, 70, 65
2, 36651, Control_c, 0, 64, 0
2, 36652, Note_on_c, 0, 64, 51
2, 36680, Control_c, 0, 64, 63
2, 36693, Control_c, 0, 64, 127
2, 36708, Note_on_c, 0, 70, 0
2, 36714, Note_on_c, 0, 61, 51
2, 36750, Note_on_c, 0, 64, 0
2, 36791, Note_on_c, 0, 61, 0
2, 36799, Note_on_c, 0, 70, 28
2, 36804, Note_on_c, 0, 64, 49
2, 36872, Note_on_c, 0, 61, 56
2, 36872, Note_on_c, 0, 45, 59
2, 36893, Note_on_c, 0, 64, 0
2, 36919, Note_on_c, 0, 70, 0
2, 36937, Note_on_c, 0, 61, 0
2, 37096, Note_on_c, 0, 70, 63
2, 37109, Note_on_c, 0, 64, 49
2, 37155, Note_on_c, 0, 70, 0
2, 37166, Note_on_c, 0, 61, 63
2, 37187, Note_on_c, 0, 64, 0
2, 37223, Note_on_c, 0, 61, 0
2, 37229, Note_on_c, 0, 70, 34
2, 37236, Note_on_c, 0, 64, 39
2, 37327, Note_on_c, 0, 61, 64
2, 37373, Note_on_c, 0, 64, 0
2, 37403, Note_on_c, 0, 70, 0
2, 37459, Note_on_c, 0, 61, 0
2, 37488, Note_on_c, 0, 55, 0
2, 37583, Note_on_c, 0, 55, 92
2, 37591, Note_on_c, 0, 63, 63
2, 37600, Note_on_c, 0, 69, 40
2, 37643, Control_c, 0, 64, 63
2, 37657, Note_on_c, 0, 45, 0
2, 37663, Note_on_c, 0, 60, 58
2, 37677, Control_c, 0, 64, 127
2, 37697, Note_on_c, 0, 63, 0
2, 37712, Note_on_c, 0, 69, 0
2, 37745, Note_on_c, 0, 63, 45
2, 37747, Note_on_c, 0, 69, 30
2, 37749, Note_on_c, 0, 60, 0
2, 37829, Note_on_c, 0, 60, 38
2, 37872, Note_on_c, 0, 63, 0
2, 37896, Note_on_c, 0, 69, 0
2, 37958, Note_on_c, 0, 60, 0
2, 38074, Note_on_c, 0, 69, 37
2, 38075, Note_on_c, 0, 63, 62
2, 38130, Note_on_c, 0, 69, 0
2, 38145, Note_on_c, 0, 60, 29
2, 38154, Note_on_c, 0, 63, 0
2, 38213, Note_on_c, 0, 60, 0
2, 38224, Note_on_c, 0, 69, 34
2, 38228, Note_on_c, 0, 63, 38
2, 38315, Note_on_c, 0, 48, 52
2, 38322, Note_on_c, 0, 60, 39
2, 38339, Note_on_c, 0, 63, 0
2, 38373, Note_on_c, 0, 69, 0
2, 38396, Note_on_c, 0, 60, 0
2, 38538, Note_on_c, 0, 63, 60
2, 38549, Note_on_c, 0, 69, 20
2, 38602, Note_on_c, 0, 69, 0
2, 38609, Note_on_c, 0, 63, 0
2, 38615, Note_on_c, 0, 60, 19
2, 38683, Note_on_c, 0, 60, 0
2, 38684, Note_on_c, 0, 63, 44
2, 38687, Note_on_c, 0, 69, 29
2, 38785, Note_on_c, 0, 60, 49
2, 38813, Note_on_c, 0, 63, 0
2, 38845, Note_on_c, 0, 69, 0
2, 38870, Note_on_c, 0, 57, 73
2, 38875, Note_on_c, 0, 55, 0
2, 38876, Note_on_c, 0, 60, 0
2, 38897, Note_on_c, 0, 48, 0
2, 39045, Note_on_c, 0, 55, 70
2, 39061, Note_on_c, 0, 67, 54
2, 39077, Note_on_c, 0, 63, 45
2, 39090, Note_on_c, 0, 57, 0
2, 39101, Control_c, 0, 64, 63
2, 39146, Control_c, 0, 64, 127
2, 39164, Note_on_c, 0, 58, 51
2, 39201, Note_on_c, 0, 67, 0
2, 39209, Note_on_c, 0, 63, 0
2, 39246, Note_on_c, 0, 63, 42
2, 39249, Note_on_c, 0, 58, 0
2, 39250, Note_on_c, 0, 67, 42
2, 39336, Note_on_c, 0, 58, 41
2, 39381, Note_on_c, 0, 67, 0
2, 39382, Note_on_c, 0, 63, 0
2, 39461, Note_on_c, 0, 58, 0
2, 39563, Note_on_c, 0, 63, 47
2, 39571, Note_on_c, 0, 67, 20
2, 39623, Note_on_c, 0, 67, 0
2, 39629, Note_on_c, 0, 58, 42
2, 39645, Note_on_c, 0, 63, 0
2, 39696, Note_on_c, 0, 58, 0
2, 39702, Note_on_c, 0, 63, 44
2, 39703, Note_on_c, 0, 67, 35
2, 39768, Note_on_c, 0, 49, 67
2, 39782, Note_on_c, 0, 58, 48
2, 39786, Control_c, 0, 64, 63
2, 39817, Control_c, 0, 64, 127
2, 39838, Note_on_c, 0, 67, 0
2, 39852, Note_on_c, 0, 63, 0
2, 39884, Note_on_c, 0, 58, 0
2, 40014, Note_on_c, 0, 63, 44
2, 40021, Note_on_c, 0, 67, 35
2, 40077, Note_on_c, 0, 67, 0
2, 40077, Note_on_c, 0, 58, 42
2, 40103, Note_on_c, 0, 63, 0
2, 40166, Note_on_c, 0, 58, 0
2, 40166, Note_on_c, 0, 63, 53
2, 40171, Note_on_c, 0, 67, 30
2, 40271, Note_on_c, 0, 58, 53
2, 40274, Note_on_c, 0, 67, 0
2, 40310, Note_on_c, 0, 63, 0
2, 40348, Note_on_c, 0, 58, 0
2, 40378, Note_on_c, 0, 57, 50
2, 40409, Note_on_c, 0, 55, 0
2, 40494, Note_on_c, 0, 49, 0
2, 40583, Note_on_c, 0, 55, 47
2, 40595, Note_on_c, 0, 67, 33
2, 40615, Note_on_c, 0, 62, 32
2, 40633, Control_c, 0, 64, 63
2, 40635, Note_on_c, 0, 57, 0
2, 40657, Control_c, 0, 64, 127
2, 40715, Note_on_c, 0, 58, 35
2, 40722, Note_on_c, 0, 67, 0
2, 40737, Note_on_c, 0, 62, 0
2, 40788, Note_on_c, 0, 58, 0
2, 40802, Note_on_c, 0, 67, 42
2, 40804, Note_on_c, 0, 62, 29
2, 40879, Note_on_c, 0, 58, 47
2, 40923, Note_on_c, 0, 62, 0
2, 40962, Note_on_c, 0, 67, 0
2, 40973, Note_on_c, 0, 58, 0
2, 41159, Note_on_c, 0, 74, 74
2, 41159, Note_on_c, 0, 70, 66
2, 41233, Note_on_c, 0, 67, 44
2, 41234, Note_on_c, 0, 70, 0
2, 41235, Note_on_c, 0, 74, 0
2, 41306, Note_on_c, 0, 67, 0
2, 41311, Note_on_c, 0, 74, 35
2, 41313, Note_on_c, 0, 70, 47
2, 41390, Note_on_c, 0, 50, 47
2, 41405, Note_on_c, 0, 67, 39
2, 41411, Note_on_c, 0, 43, 33
2, 41518, Note_on_c, 0, 43, 0
2, 41535, Note_on_c, 0, 74, 0
2, 41536, Note_on_c, 0, 50, 0
2, 41541, Note_on_c, 0, 67, 0
2, 41550, Note_on_c, 0, 70, 0
2, 41583, Note_on_c, 0, 55, 0
2, 41649, Note_on_c, 0, 58, 85
2, 41663, Note_on_c, 0, 70, 59
2, 41672, Note_on_c, 0, 74, 60
2, 41720, Note_on_c, 0, 67, 56
2, 41728, Note_on_c, 0, 70, 0
2, 41733, Note_on_c, 0, 74, 0
2, 41799, Note_on_c, 0, 74, 75
2, 41800, Note_on_c, 0, 70, 85
2, 41820, Note_on_c, 0, 67, 0
2, 41837, Note_on_c, 0, 62, 105
2, 41866, Note_on_c, 0, 67, 78
2, 41885, Note_on_c, 0, 58, 0
2, 41894, Note_on_c, 0, 70, 0
2, 41931, Note_on_c, 0, 74, 0
2, 41972, Note_on_c, 0, 62, 0
2, 41982, Note_on_c, 0, 67, 0
2, 42073, Note_on_c, 0, 63, 113
2, 42079, Note_on_c, 0, 60, 89
2, 42085, Note_on_c, 0, 72, 86
2, 42089, Note_on_c, 0, 70, 71
2, 42090, Note_on_c, 0, 58, 63
2, 42163, Note_on_c, 0, 66, 70
2, 42181, Control_c, 0, 64, 63
2, 42192, Control_c, 0, 64, 0
2, 42210, Note_on_c, 0, 72, 0
2, 42211, Note_on_c, 0, 70, 0
2, 42238, Note_on_c, 0, 70, 71
2, 42244, Note_on_c, 0, 66, 0
2, 42247, Note_on_c, 0, 72, 68
2, 42249, Control_c, 0, 64, 63
2, 42256, Control_c, 0, 64, 127
2, 42309, Note_on_c, 0, 66, 72
2, 42335, Note_on_c, 0, 70, 0
2, 42355, Note_on_c, 0, 72, 0
2, 42383, Note_on_c, 0, 66, 0
2, 42432, Note_on_c, 0, 63, 0
2, 42436, Note_on_c, 0, 60, 0
2, 42450, Note_on_c, 0, 58, 0
2, 42522, Note_on_c, 0, 70, 53
2, 42526, Note_on_c, 0, 72, 61
2, 42580, Note_on_c, 0, 66, 51
2, 42592, Note_on_c, 0, 70, 0
2, 42614, Note_on_c, 0, 72, 0
2, 42661, Note_on_c, 0, 70, 71
2, 42662, Note_on_c, 0, 66, 0
2, 42671, Note_on_c, 0, 72, 41
2, 42718, Note_on_c, 0, 43, 89
2, 42721, Note_on_c, 0, 51, 92
2, 42730, Note_on_c, 0, 66, 72
2, 42742, Note_on_c, 0, 70, 0
2, 42760, Note_on_c, 0, 43, 0
2, 42763, Note_on_c, 0, 51, 0
2, 42785, Note_on_c, 0, 72, 0
2, 42826, Note_on_c, 0, 66, 0
2, 42933, Note_on_c, 0, 63, 118
2, 42965, Note_on_c, 0, 72, 58
2, 43014, Note_on_c, 0, 70, 76
2, 43039, Note_on_c, 0, 72, 0
2, 43108, Note_on_c, 0, 72, 25
2, 43109, Note_on_c, 0, 70, 0
2, 43122, Note_on_c, 0, 63, 0
2, 43136, Note_on_c, 0, 66, 120
2, 43177, Note_on_c, 0, 70, 52
2, 43229, Note_on_c, 0, 72, 0
2, 43278, Note_on_c, 0, 70, 0
2, 43284, Note_on_c, 0, 66, 0
2, 43363, Note_on_c, 0, 66, 112
2, 43370, Note_on_c, 0, 61, 95
2, 43373, Note_on_c, 0, 55, 51
2, 43377, Note_on_c, 0, 58, 82
2, 43387, Note_on_c, 0, 75, 81
2, 43433, Control_c, 0, 64, 63
2, 43444, Control_c, 0, 64, 0
2, 43487, Control_c, 0, 64, 63
2, 43494, Control_c, 0, 64, 127
2, 43507, Note_on_c, 0, 75, 0
2, 43518, Note_on_c, 0, 67, 24
2, 43566, Note_on_c, 0, 67, 0
2, 43575, Note_on_c, 0, 75, 63
2, 43608, Note_on_c, 0, 66, 0
2, 43609, Note_on_c, 0, 75, 0
2, 43622, Note_on_c, 0, 61, 0
2, 43625, Note_on_c, 0, 70, 17
2, 43668, Note_on_c, 0, 67, 79
2, 43669, Note_on_c, 0, 74, 74
2, 43672, Note_on_c, 0, 62, 70
2, 43734, Control_c, 0, 64, 63
2, 43745, Control_c, 0, 64, 0
2, 43775, Control_c, 0, 64, 63
2, 43792, Control_c, 0, 64, 127
2, 43804, Note_on_c, 0, 74, 0
2, 43833, Note_on_c, 0, 70, 0
2, 43908, Note_on_c, 0, 67, 0
2, 43911, Note_on_c, 0, 70, 80
2, 43926, Note_on_c, 0, 74, 64
2, 43960, Note_on_c, 0, 62, 0
2, 43979, Note_on_c, 0, 55, 0
2, 43981, Note_on_c, 0, 58, 0
2, 43981, Note_on_c, 0, 67, 54
2, 43985, Note_on_c, 0, 70, 0
2, 43987, Note_on_c, 0, 74, 0
2, 44046, Note_on_c, 0, 74, 40
2, 44055, Note_on_c, 0, 70, 62
2, 44066, Note_on_c, 0, 67, 0
2, 44137, Note_on_c, 0, 70, 0
2, 44140, Note_on_c, 0, 67, 61
2, 44149, Note_on_c, 0, 43, 81
2, 44150, Note_on_c, 0, 50, 76
2, 44161, Note_on_c, 0, 74, 0
2, 44170, Note_on_c, 0, 50, 0
2, 44174, Note_on_c, 0, 43, 0
2, 44199, Note_on_c, 0, 67, 0
2, 44366, Note_on_c, 0, 70, 79
2, 44367, Note_on_c, 0, 58, 111
2, 44369, Note_on_c, 0, 74, 70
2, 44426, Note_on_c, 0, 67, 52
2, 44437, Note_on_c, 0, 70, 0
2, 44444, Note_on_c, 0, 74, 0
2, 44510, Note_on_c, 0, 74, 74
2, 44514, Note_on_c, 0, 70, 81
2, 44528, Note_on_c, 0, 67, 0
2, 44578, Note_on_c, 0, 62, 121
2, 44594, Note_on_c, 0, 67, 86
2, 44625, Note_on_c, 0, 70, 0
2, 44713, Note_on_c, 0, 74, 0
2, 44730, Note_on_c, 0, 67, 0
2, 44749, Note_on_c, 0, 62, 0
2, 44777, Note_on_c, 0, 58, 0
2, 44809, Note_on_c, 0, 58, 75
2, 44810, Note_on_c, 0, 63, 119
2, 44814, Note_on_c, 0, 60, 78
2, 44829, Note_on_c, 0, 72, 80
2, 44831, Note_on_c, 0, 70, 65
2, 44906, Control_c, 0, 64, 63
2, 44915, Control_c, 0, 64, 0
2, 44916, Note_on_c, 0, 66, 59
2, 44952, Note_on_c, 0, 70, 0
2, 44957, Note_on_c, 0, 72, 0
2, 44975, Control_c, 0, 64, 63
2, 44982, Control_c, 0, 64, 127
2, 44993, Note_on_c, 0, 70, 71
2, 44997, Note_on_c, 0, 72, 73
2, 45008, Note_on_c, 0, 66, 0
2, 45067, Note_on_c, 0, 66, 70
2, 45157, Note_on_c, 0, 70, 0
2, 45161, Note_on_c, 0, 72, 0
2, 45191, Note_on_c, 0, 66, 0
2, 45285, Note_on_c, 0, 72, 73
2, 45290, Note_on_c, 0, 70, 72
2, 45312, Note_on_c, 0, 60, 0
2, 45314, Note_on_c, 0, 58, 0
2, 45318, Note_on_c, 0, 63, 0
2, 45347, Note_on_c, 0, 66, 68
2, 45386, Note_on_c, 0, 72, 0
2, 45388, Note_on_c, 0, 70, 0
2, 45436, Note_on_c, 0, 70, 63
2, 45445, Note_on_c, 0, 66, 0
2, 45445, Note_on_c, 0, 72, 47
2, 45507, Note_on_c, 0, 43, 76
2, 45509, Note_on_c, 0, 51, 85
2, 45526, Note_on_c, 0, 70, 0
2, 45527, Note_on_c, 0, 66, 70
2, 45532, Note_on_c, 0, 51, 0
2, 45537, Note_on_c, 0, 43, 0
2, 45545, Note_on_c, 0, 72, 0
2, 45612, Note_on_c, 0, 66, 0
2, 45732, Note_on_c, 0, 63, 109
2, 45770, Note_on_c, 0, 72, 63
2, 45779, Note_on_c, 0, 63, 0
2, 45822, Note_on_c, 0, 70, 77
2, 45855, Note_on_c, 0, 72, 0
2, 45919, Note_on_c, 0, 70, 0
2, 45919, Note_on_c, 0, 72, 43
2, 45954, Note_on_c, 0, 66, 127
2, 46015, Note_on_c, 0, 70, 67
2, 46028, Note_on_c, 0, 72, 0
2, 46175, Note_on_c, 0, 70, 0
2, 46178, Note_on_c, 0, 66, 0
2, 46270, Note_on_c, 0, 66, 110
2, 46276, Note_on_c, 0, 55, 54
2, 46288, Note_on_c, 0, 61, 87
2, 46289, Note_on_c, 0, 58, 77
2, 46294, Note_on_c, 0, 70, 66
2, 46298, Note_on_c, 0, 75, 81
2, 46333, Control_c, 0, 64, 63
2, 46373, Control_c, 0, 64, 127
2, 46375, Note_on_c, 0, 70, 0
2, 46421, Note_on_c, 0, 75, 0
2, 46423, Note_on_c, 0, 67, 27
2, 46481, Note_on_c, 0, 67, 0
2, 46496, Note_on_c, 0, 70, 57
2, 46527, Note_on_c, 0, 66, 0
2, 46555, Note_on_c, 0, 61, 0
2, 46560, Note_on_c, 0, 70, 0
2, 46584, Note_on_c, 0, 67, 89
2, 46586, Note_on_c, 0, 62, 90
2, 46603, Note_on_c, 0, 70, 71
2, 46603, Note_on_c, 0, 74, 69
2, 46638, Control_c, 0, 64, 63
2, 46652, Control_c, 0, 64, 0
2, 46661, Control_c, 0, 64, 63
2, 46683, Control_c, 0, 64, 127
2, 46751, Note_on_c, 0, 74, 0
2, 46771, Note_on_c, 0, 70, 0
2, 46831, Note_on_c, 0, 70, 65
2, 46848, Note_on_c, 0, 74, 52
2, 46850, Note_on_c, 0, 67, 0
2, 46917, Note_on_c, 0, 67, 38
2, 46923, Note_on_c, 0, 74, 0
2, 46934, Note_on_c, 0, 70, 0
2, 46984, Note_on_c, 0, 67, 0
2, 46985, Note_on_c, 0, 74, 47
2, 46986, Note_on_c, 0, 70, 68
2, 47000, Note_on_c, 0, 62, 0
2, 47014, Note_on_c, 0, 55, 0
2, 47015, Note_on_c, 0, 58, 0
2, 47084, Note_on_c, 0, 67, 57
2, 47093, Note_on_c, 0, 70, 0
2, 47093, Note_on_c, 0, 74, 0
2, 47097, Note_on_c, 0, 43, 88
2, 47129, Note_on_c, 0, 43, 0
2, 47184, Note_on_c, 0, 67, 0
2, 47313, Note_on_c, 0, 70, 65
2, 47315, Note_on_c, 0, 74, 62
2, 47392, Note_on_c, 0, 67, 45
2, 47396, Note_on_c, 0, 74, 0
2, 47404, Note_on_c, 0, 70, 0
2, 47469, Note_on_c, 0, 67, 0
2, 47474, Note_on_c, 0, 70, 44
2, 47476, Note_on_c, 0, 74, 42
2, 47575, Note_on_c, 0, 67, 47
2, 47595, Note_on_c, 0, 74, 0
2, 47610, Note_on_c, 0, 70, 0
2, 47631, Note_on_c, 0, 67, 0
2, 47797, Note_on_c, 0, 55, 48
2, 47798, Note_on_c, 0, 66, 72
2, 47800, Note_on_c, 0, 61, 75
2, 47801, Note_on_c, 0, 58, 60
2, 47807, Note_on_c, 0, 70, 60
2, 47810, Note_on_c, 0, 75, 70
2, 47815, Control_c, 0, 64, 63
2, 47835, Control_c, 0, 64, 127
2, 47878, Note_on_c, 0, 67, 33
2, 47886, Note_on_c, 0, 70, 0
2, 47948, Note_on_c, 0, 61, 0
2, 47950, Note_on_c, 0, 67, 0
2, 47953, Note_on_c, 0, 70, 61
2, 47961, Note_on_c, 0, 66, 0
2, 47980, Note_on_c, 0, 75, 0
2, 48031, Note_on_c, 0, 67, 49
2, 48037, Note_on_c, 0, 74, 76
2, 48037, Note_on_c, 0, 62, 54
2, 48056, Control_c, 0, 64, 63
2, 48066, Control_c, 0, 64, 0
2, 48098, Control_c, 0, 64, 63
2, 48110, Control_c, 0, 64, 127
2, 48169, Note_on_c, 0, 74, 0
2, 48189, Note_on_c, 0, 70, 0
2, 48203, Note_on_c, 0, 55, 0
2, 48216, Note_on_c, 0, 67, 0
2, 48253, Note_on_c, 0, 62, 0
2, 48265, Note_on_c, 0, 70, 64
2, 48268, Note_on_c, 0, 74, 46
2, 48283, Note_on_c, 0, 58, 0
2, 48336, Note_on_c, 0, 67, 34
2, 48342, Note_on_c, 0, 70, 0
2, 48345, Note_on_c, 0, 74, 0
2, 48413, Note_on_c, 0, 74, 32
2, 48414, Note_on_c, 0, 70, 63
2, 48417, Note_on_c, 0, 67, 0
2, 48517, Note_on_c, 0, 43, 57
2, 48520, Note_on_c, 0, 50, 46
2, 48521, Note_on_c, 0, 67, 39
2, 48537, Note_on_c, 0, 74, 0
2, 48552, Note_on_c, 0, 70, 0
2, 48562, Note_on_c, 0, 43, 0
2, 48567, Note_on_c, 0, 50, 0
2, 48592, Note_on_c, 0, 67, 0
2, 48755, Note_on_c, 0, 70, 52
2, 48756, Note_on_c, 0, 74, 47
2, 48821, Note_on_c, 0, 74, 0
2, 48835, Note_on_c, 0, 70, 0
2, 48837, Note_on_c, 0, 67, 19
2, 48901, Note_on_c, 0, 74, 43
2, 48910, Note_on_c, 0, 67, 0
2, 48912, Note_on_c, 0, 70, 42
2, 49017, Note_on_c, 0, 74, 0
2, 49018, Note_on_c, 0, 67, 35
2, 49045, Note_on_c, 0, 70, 0
2, 49075, Note_on_c, 0, 67, 0
2, 49280, Note_on_c, 0, 61, 61
2, 49287, Note_on_c, 0, 55, 43
2, 49290, Note_on_c, 0, 58, 43
2, 49291, Control_c, 0, 64, 63
2, 49291, Note_on_c, 0, 70, 59
2, 49292, Note_on_c, 0, 75, 70
2, 49318, Control_c, 0, 64, 127
2, 49383, Note_on_c, 0, 70, 0
2, 49385, Note_on_c, 0, 67, 41
2, 49452, Note_on_c, 0, 70, 46
2, 49527, Note_on_c, 0, 75, 0
2, 49533, Note_on_c, 0, 62, 60
2, 49546, Note_on_c, 0, 74, 67
2, 49572, Control_c, 0, 64, 63
2, 49586, Control_c, 0, 64, 0
2, 49595, Control_c, 0, 64, 63
2, 49600, Note_on_c, 0, 61, 0
2, 49618, Control_c, 0, 64, 127
2, 49678, Note_on_c, 0, 67, 0
2, 49700, Note_on_c, 0, 74, 0
2, 49714, Note_on_c, 0, 70, 0
2, 49769, Note_on_c, 0, 62, 0
2, 49792, Note_on_c, 0, 58, 0
2, 49795, Note_on_c, 0, 70, 48
2, 49799, Note_on_c, 0, 55, 0
2, 49803, Note_on_c, 0, 74, 54
2, 49872, Note_on_c, 0, 67, 31
2, 49876, Note_on_c, 0, 74, 0
2, 49898, Note_on_c, 0, 70, 0
2, 49943, Note_on_c, 0, 67, 0
2, 49944, Note_on_c, 0, 70, 35
2, 49944, Note_on_c, 0, 74, 37
2, 50017, Note_on_c, 0, 67, 41
2, 50021, Note_on_c, 0, 50, 39
2, 50025, Note_on_c, 0, 43, 41
2, 50064, Note_on_c, 0, 70, 0
2, 50070, Note_on_c, 0, 74, 0
2, 50095, Note_on_c, 0, 67, 0
2, 50123, Note_on_c, 0, 50, 0
2, 50129, Note_on_c, 0, 43, 0
2, 50250, Note_on_c, 0, 74, 51
2, 50256, Note_on_c, 0, 70, 55
2, 50319, Note_on_c, 0, 74, 0
2, 50323, Note_on_c, 0, 70, 0
2, 50323, Note_on_c, 0, 67, 26
2, 50395, Note_on_c, 0, 67, 0
2, 50400, Note_on_c, 0, 70, 51
2, 50401, Note_on_c, 0, 74, 36
2, 50498, Note_on_c, 0, 67, 36
2, 50516, Note_on_c, 0, 74, 0
2, 50518, Note_on_c, 0, 70, 0
2, 50566, Note_on_c, 0, 67, 0
2, 50740, Note_on_c, 0, 58, 44
2, 50741, Note_on_c, 0, 61, 60
2, 50753, Note_on_c, 0, 75, 70
2, 50755, Note_on_c, 0, 55, 32
2, 50755, Note_on_c, 0, 70, 72
2, 50756, Control_c, 0, 64, 63
2, 50790, Control_c, 0, 64, 127
2, 50835, Note_on_c, 0, 75, 0
2, 50840, Note_on_c, 0, 70, 0
2, 50840, Note_on_c, 0, 67, 27
2, 50909, Note_on_c, 0, 75, 64
2, 50987, Note_on_c, 0, 75, 0
2, 51003, Note_on_c, 0, 67, 0
2, 51016, Note_on_c, 0, 62, 52
2, 51022, Note_on_c, 0, 74, 70
2, 51025, Note_on_c, 0, 70, 44
2, 51039, Note_on_c, 0, 61, 0
2, 51054, Control_c, 0, 64, 63
2, 51088, Control_c, 0, 64, 127
2, 51188, Note_on_c, 0, 70, 0
2, 51196, Note_on_c, 0, 74, 0
2, 51248, Note_on_c, 0, 62, 0
2, 51273, Note_on_c, 0, 58, 0
2, 51281, Note_on_c, 0, 55, 0
2, 51290, Note_on_c, 0, 70, 48
2, 51293, Note_on_c, 0, 74, 50
2, 51368, Note_on_c, 0, 70, 0
2, 51372, Note_on_c, 0, 74, 0
2, 51377, Note_on_c, 0, 67, 24
2, 51450, Note_on_c, 0, 70, 27
2, 51457, Note_on_c, 0, 74, 42
2, 51492, Note_on_c, 0, 67, 0
2, 51528, Note_on_c, 0, 43, 47
2, 51531, Note_on_c, 0, 50, 33
2, 51550, Note_on_c, 0, 67, 28
2, 51567, Note_on_c, 0, 70, 0
2, 51568, Note_on_c, 0, 74, 0
2, 51578, Note_on_c, 0, 50, 0
2, 51584, Note_on_c, 0, 43, 0
2, 51599, Note_on_c, 0, 67, 0
2, 51787, Note_on_c, 0, 74, 49
2, 51787, Note_on_c, 0, 70, 53
2, 51852, Note_on_c, 0, 74, 0
2, 51859, Note_on_c, 0, 70, 0
2, 51936, Note_on_c, 0, 74, 29
2, 51951, Note_on_c, 0, 70, 41
2, 52091, Note_on_c, 0, 67, 15
2, 52129, Note_on_c, 0, 70, 0
2, 52142, Note_on_c, 0, 74, 0
2, 52175, Note_on_c, 0, 67, 0
2, 52429, Note_on_c, 0, 67, 48
2, 52454, Control_c, 0, 64, 63
2, 52468, Control_c, 0, 64, 127
2, 52577, Note_on_c, 0, 67, 0
2, 52707, Note_on_c, 0, 66, 72
2, 52740, Control_c, 0, 64, 63
2, 52770, Control_c, 0, 64, 127
2, 52772, Note_on_c, 0, 66, 0
2, 52775, Note_on_c, 0, 67, 63
2, 52836, Note_on_c, 0, 67, 0
2, 52838, Note_on_c, 0, 66, 69
2, 52879, Note_on_c, 0, 66, 0
2, 52889, Note_on_c, 0, 62, 55
2, 52934, Note_on_c, 0, 62, 0
2, 52948, Note_on_c, 0, 65, 75
2, 52992, Note_on_c, 0, 65, 0
2, 53001, Note_on_c, 0, 67, 59
2, 53048, Note_on_c, 0, 67, 0
2, 53049, Note_on_c, 0, 65, 65
2, 53078, Note_on_c, 0, 65, 0
2, 53099, Note_on_c, 0, 62, 70
2, 53121, Control_c, 0, 64, 63
2, 53131, Note_on_c, 0, 62, 0
2, 53145, Control_c, 0, 64, 127
2, 53158, Note_on_c, 0, 64, 69
2, 53158, Note_on_c, 0, 70, 32
2, 53163, Note_on_c, 0, 67, 49
2, 53201, Note_on_c, 0, 65, 84
2, 53203, Note_on_c, 0, 67, 0
2, 53204, Note_on_c, 0, 64, 0
2, 53209, Note_on_c, 0, 70, 0
2, 53254, Note_on_c, 0, 65, 0
2, 53272, Note_on_c, 0, 64, 34
2, 53301, Note_on_c, 0, 64, 0
2, 53309, Note_on_c, 0, 62, 62
2, 53351, Note_on_c, 0, 62, 0
2, 53359, Note_on_c, 0, 63, 79
2, 53408, Note_on_c, 0, 65, 68
2, 53409, Note_on_c, 0, 63, 0
2, 53464, Note_on_c, 0, 63, 75
2, 53465, Note_on_c, 0, 65, 0
2, 53507, Note_on_c, 0, 63, 0
2, 53513, Note_on_c, 0, 62, 73
2, 53562, Note_on_c, 0, 62, 0
2, 53567, Note_on_c, 0, 63, 81
2, 53628, Note_on_c, 0, 63, 0
2, 53630, Note_on_c, 0, 65, 87
2, 53682, Note_on_c, 0, 63, 76
2, 53691, Note_on_c, 0, 65, 0
2, 53732, Note_on_c, 0, 63, 0
2, 53735, Note_on_c, 0, 62, 64
2, 53823, Note_on_c, 0, 67, 58
2, 53843, Note_on_c, 0, 62, 0
2, 53865, Control_c, 0, 64, 63
2, 53890, Control_c, 0, 64, 0
2, 53922, Control_c, 0, 64, 63
2, 53938, Control_c, 0, 64, 127
2, 54024, Note_on_c, 0, 67, 0
2, 54062, Note_on_c, 0, 66, 79
2, 54110, Note_on_c, 0, 66, 0
2, 54110, Note_on_c, 0, 67, 65
2, 54161, Note_on_c, 0, 66, 75
2, 54169, Note_on_c, 0, 67, 0
2, 54202, Note_on_c, 0, 66, 0
2, 54207, Note_on_c, 0, 62, 72
2, 54251, Note_on_c, 0, 62, 0
2, 54261, Note_on_c, 0, 65, 90
2, 54306, Note_on_c, 0, 65, 0
2, 54311, Note_on_c, 0, 67, 76
2, 54354, Note_on_c, 0, 65, 73
2, 54361, Note_on_c, 0, 67, 0
2, 54381, Note_on_c, 0, 65, 0
2, 54394, Note_on_c, 0, 62, 70
2, 54410, Control_c, 0, 64, 63
2, 54418, Control_c, 0, 64, 0
2, 54437, Note_on_c, 0, 62, 0
2, 54448, Note_on_c, 0, 70, 88
2, 54453, Note_on_c, 0, 64, 83
2, 54454, Note_on_c, 0, 67, 70
2, 54455, Control_c, 0, 64, 63
2, 54461, Control_c, 0, 64, 127
2, 54497, Note_on_c, 0, 65, 87
2, 54500, Note_on_c, 0, 64, 0
2, 54505, Note_on_c, 0, 67, 0
2, 54506, Note_on_c, 0, 70, 0
2, 54555, Note_on_c, 0, 65, 0
2, 54560, Note_on_c, 0, 64, 54
2, 54598, Note_on_c, 0, 64, 0
2, 54599, Note_on_c, 0, 62, 75
2, 54649, Note_on_c, 0, 62, 0
2, 54654, Note_on_c, 0, 63, 97
2, 54704, Note_on_c, 0, 65, 84
2, 54706, Note_on_c, 0, 63, 0
2, 54758, Note_on_c, 0, 63, 77
2, 54759, Note_on_c, 0, 65, 0
2, 54796, Note_on_c, 0, 63, 0
2, 54801, Note_on_c, 0, 62, 65
2, 54843, Note_on_c, 0, 62, 0
2, 54845, Note_on_c, 0, 63, 91
2, 54897, Note_on_c, 0, 65, 84
2, 54898, Note_on_c, 0, 63, 0
2, 54950, Note_on_c, 0, 63, 85
2, 54954, Note_on_c, 0, 65, 0
2, 54986, Note_on_c, 0, 63, 0
2, 54993, Note_on_c, 0, 62, 77
2, 55043, Control_c, 0, 64, 63
2, 55044, Note_on_c, 0, 62, 0
2, 55054, Control_c, 0, 64, 0
2, 55056, Note_on_c, 0, 70, 93
2, 55136, Control_c, 0, 64, 63
2, 55145, Control_c, 0, 64, 127
2, 55163, Note_on_c, 0, 70, 0
2, 55286, Control_c, 0, 64, 63
2, 55300, Control_c, 0, 64, 0
2, 55318, Note_on_c, 0, 67, 75
2, 55340, Control_c, 0, 64, 63
2, 55351, Control_c, 0, 64, 127
2, 55366, Note_on_c, 0, 70, 87
2, 55370, Note_on_c, 0, 67, 0
2, 55410, Note_on_c, 0, 70, 0
2, 55414, Note_on_c, 0, 67, 64
2, 55457, Note_on_c, 0, 67, 0
2, 55461, Note_on_c, 0, 62, 75
2, 55503, Note_on_c, 0, 62, 0
2, 55511, Note_on_c, 0, 66, 93
2, 55555, Note_on_c, 0, 70, 95
2, 55560, Note_on_c, 0, 66, 0
2, 55605, Note_on_c, 0, 66, 84
2, 55610, Note_on_c, 0, 70, 0
2, 55639, Note_on_c, 0, 62, 81
2, 55643, Note_on_c, 0, 66, 0
2, 55684, Note_on_c, 0, 62, 0
2, 55700, Note_on_c, 0, 65, 99
2, 55701, Note_on_c, 0, 74, 84
2, 55702, Control_c, 0, 64, 63
2, 55703, Note_on_c, 0, 70, 90
2, 55743, Control_c, 0, 64, 127
2, 55759, Note_on_c, 0, 65, 0
2, 55760, Note_on_c, 0, 67, 83
2, 55808, Note_on_c, 0, 65, 68
2, 55810, Note_on_c, 0, 67, 0
2, 55842, Note_on_c, 0, 65, 0
2, 55848, Note_on_c, 0, 62, 76
2, 55880, Note_on_c, 0, 62, 0
2, 55900, Note_on_c, 0, 64, 91
2, 55931, Note_on_c, 0, 74, 0
2, 55942, Note_on_c, 0, 70, 0
2, 55943, Note_on_c, 0, 64, 0
2, 55943, Note_on_c, 0, 67, 84
2, 55986, Note_on_c, 0, 67, 0
2, 55997, Note_on_c, 0, 64, 67
2, 56036, Note_on_c, 0, 64, 0
2, 56041, Note_on_c, 0, 62, 72
2, 56086, Note_on_c, 0, 62, 0
2, 56090, Note_on_c, 0, 63, 89
2, 56135, Note_on_c, 0, 63, 0
2, 56141, Note_on_c, 0, 67, 58
2, 56188, Note_on_c, 0, 63, 77
2, 56189, Note_on_c, 0, 67, 0
2, 56231, Note_on_c, 0, 63, 0
2, 56240, Note_on_c, 0, 62, 61
2, 56297, Note_on_c, 0, 70, 76
2, 56300, Note_on_c, 0, 62, 0
2, 56325, Control_c, 0, 64, 63
2, 56332, Control_c, 0, 64, 0
2, 56396, Control_c, 0, 64, 63
2, 56406, Control_c, 0, 64, 127
2, 56438, Note_on_c, 0, 70, 0
2, 56532, Note_on_c, 0, 67, 64
2, 56575, Control_c, 0, 64, 63
2, 56576, Note_on_c, 0, 70, 79
2, 56585, Note_on_c, 0, 67, 0
2, 56600, Control_c, 0, 64, 127
2, 56629, Note_on_c, 0, 67, 70
2, 56631, Note_on_c, 0, 70, 0
2, 56680, Note_on_c, 0, 67, 0
2, 56683, Note_on_c, 0, 62, 76
2, 56731, Note_on_c, 0, 62, 0
2, 56731, Note_on_c, 0, 66, 95
2, 56773, Note_on_c, 0, 70, 97
2, 56779, Note_on_c, 0, 66, 0
2, 56818, Note_on_c, 0, 66, 76
2, 56834, Note_on_c, 0, 70, 0
2, 56855, Note_on_c, 0, 62, 87
2, 56859, Note_on_c, 0, 66, 0
2, 56897, Note_on_c, 0, 62, 0
2, 56908, Control_c, 0, 64, 63
2, 56913, Note_on_c, 0, 74, 90
2, 56914, Note_on_c, 0, 70, 88
2, 56915, Control_c, 0, 64, 0
2, 56918, Note_on_c, 0, 65, 96
2, 56941, Control_c, 0, 64, 63
2, 56955, Control_c, 0, 64, 127
2, 56974, Note_on_c, 0, 67, 81
2, 56975, Note_on_c, 0, 65, 0
2, 57015, Note_on_c, 0, 65, 86
2, 57029, Note_on_c, 0, 67, 0
2, 57045, Note_on_c, 0, 74, 0
2, 57055, Note_on_c, 0, 65, 0
2, 57059, Note_on_c, 0, 62, 88
2, 57073, Note_on_c, 0, 70, 0
2, 57096, Note_on_c, 0, 62, 0
2, 57104, Note_on_c, 0, 64, 97
2, 57155, Note_on_c, 0, 67, 87
2, 57156, Note_on_c, 0, 64, 0
2, 57203, Note_on_c, 0, 64, 89
2, 57205, Note_on_c, 0, 67, 0
2, 57243, Note_on_c, 0, 64, 0
2, 57251, Note_on_c, 0, 62, 88
2, 57294, Note_on_c, 0, 62, 0
2, 57294, Note_on_c, 0, 63, 113
2, 57309, Control_c, 0, 64, 63
2, 57333, Note_on_c, 0, 63, 0
2, 57342, Note_on_c, 0, 67, 84
2, 57353, Control_c, 0, 64, 127
2, 57384, Note_on_c, 0, 63, 102
2, 57395, Note_on_c, 0, 67, 0
2, 57421, Note_on_c, 0, 63, 0
2, 57432, Note_on_c, 0, 62, 90
2, 57474, Control_c, 0, 64, 63
2, 57480, Control_c, 0, 64, 0
2, 57481, Note_on_c, 0, 62, 0
2, 57503, Note_on_c, 0, 46, 75
2, 57503, Note_on_c, 0, 70, 93
2, 57531, Control_c, 0, 64, 63
2, 57536, Control_c, 0, 64, 127
2, 57597, Note_on_c, 0, 70, 0
2, 57606, Note_on_c, 0, 46, 0
2, 57769, Control_c, 0, 67, 127
2, 57771, Note_on_c, 0, 53, 51
2, 57773, Note_on_c, 0, 69, 80
2, 57786, Control_c, 0, 64, 63
2, 57796, Control_c, 0, 64, 0
2, 57842, Note_on_c, 0, 74, 68
2, 57872, Note_on_c, 0, 69, 0
2, 57891, Control_c, 0, 64, 63
2, 57892, Control_c, 0, 64, 127
2, 57899, Note_on_c, 0, 70, 85
2, 57911, Note_on_c, 0, 74, 0
2, 57937, Note_on_c, 0, 70, 0
2, 57940, Note_on_c, 0, 69, 72
2, 57970, Control_c, 0, 67, 0
2, 57992, Note_on_c, 0, 69, 0
2, 57998, Note_on_c, 0, 65, 55
2, 58001, Note_on_c, 0, 68, 76
2, 58006, Note_on_c, 0, 62, 55
2, 58034, Note_on_c, 0, 53, 0
2, 58049, Note_on_c, 0, 68, 0
2, 58056, Note_on_c, 0, 74, 65
2, 58060, Note_on_c, 0, 65, 0
2, 58073, Note_on_c, 0, 62, 0
2, 58103, Note_on_c, 0, 70, 84
2, 58108, Note_on_c, 0, 74, 0
2, 58148, Note_on_c, 0, 68, 77
2, 58160, Note_on_c, 0, 70, 0
2, 58194, Note_on_c, 0, 67, 81
2, 58206, Note_on_c, 0, 63, 66
2, 58210, Note_on_c, 0, 57, 60
2, 58212, Note_on_c, 0, 68, 0
2, 58236, Control_c, 0, 64, 63
2, 58250, Note_on_c, 0, 72, 71
2, 58268, Control_c, 0, 64, 127
2, 58286, Note_on_c, 0, 67, 0
2, 58300, Note_on_c, 0, 69, 67
2, 58305, Note_on_c, 0, 63, 0
2, 58316, Note_on_c, 0, 72, 0
2, 58341, Note_on_c, 0, 67, 79
2, 58346, Note_on_c, 0, 69, 0
2, 58393, Note_on_c, 0, 67, 0
2, 58396, Note_on_c, 0, 66, 95
2, 58398, Note_on_c, 0, 53, 43
2, 58421, Control_c, 0, 64, 63
2, 58446, Note_on_c, 0, 72, 72
2, 58459, Control_c, 0, 64, 127
2, 58473, Note_on_c, 0, 66, 0
2, 58497, Note_on_c, 0, 69, 46
2, 58514, Note_on_c, 0, 72, 0
2, 58538, Note_on_c, 0, 66, 81
2, 58560, Note_on_c, 0, 69, 0
2, 58587, Note_on_c, 0, 65, 87
2, 58594, Note_on_c, 0, 66, 0
2, 58610, Note_on_c, 0, 57, 0
2, 58622, Note_on_c, 0, 53, 0
2, 58641, Note_on_c, 0, 72, 65
2, 58685, Note_on_c, 0, 69, 49
2, 58687, Note_on_c, 0, 65, 0
2, 58697, Note_on_c, 0, 72, 0
2, 58728, Note_on_c, 0, 69, 0
2, 58741, Note_on_c, 0, 65, 60
2, 58788, Note_on_c, 0, 46, 60
2, 58803, Note_on_c, 0, 70, 76
2, 58807, Control_c, 0, 64, 63
2, 58813, Note_on_c, 0, 65, 0
2, 58813, Control_c, 0, 64, 0
2, 58841, Control_c, 0, 64, 63
2, 58852, Control_c, 0, 64, 127
2, 58874, Note_on_c, 0, 46, 0
2, 58927, Note_on_c, 0, 70, 0
2, 59020, Note_on_c, 0, 53, 59
2, 59031, Note_on_c, 0, 69, 95
2, 59090, Note_on_c, 0, 74, 62
2, 59125, Note_on_c, 0, 69, 0
2, 59142, Note_on_c, 0, 70, 80
2, 59152, Note_on_c, 0, 74, 0
2, 59188, Note_on_c, 0, 70, 0
2, 59192, Note_on_c, 0, 69, 83
2, 59227, Note_on_c, 0, 65, 63
2, 59230, Note_on_c, 0, 62, 68
2, 59234, Control_c, 0, 64, 63
2, 59241, Note_on_c, 0, 68, 109
2, 59257, Note_on_c, 0, 69, 0
2, 59260, Control_c, 0, 64, 127
2, 59289, Note_on_c, 0, 53, 0
2, 59293, Note_on_c, 0, 74, 70
2, 59304, Note_on_c, 0, 68, 0
2, 59306, Note_on_c, 0, 65, 0
2, 59316, Note_on_c, 0, 62, 0
2, 59336, Note_on_c, 0, 70, 82
2, 59354, Note_on_c, 0, 74, 0
2, 59381, Note_on_c, 0, 68, 85
2, 59407, Note_on_c, 0, 70, 0
2, 59431, Note_on_c, 0, 57, 62
2, 59434, Note_on_c, 0, 67, 98
2, 59441, Note_on_c, 0, 63, 86
2, 59457, Control_c, 0, 64, 63
2, 59458, Note_on_c, 0, 68, 0
2, 59486, Note_on_c, 0, 72, 80
2, 59497, Control_c, 0, 64, 127
2, 59521, Note_on_c, 0, 63, 0
2, 59534, Note_on_c, 0, 67, 0
2, 59535, Note_on_c, 0, 69, 70
2, 59559, Note_on_c, 0, 72, 0
2, 59582, Note_on_c, 0, 67, 76
2, 59583, Note_on_c, 0, 69, 0
2, 59623, Control_c, 0, 64, 63
2, 59628, Note_on_c, 0, 53, 76
2, 59628, Note_on_c, 0, 66, 105
2, 59630, Note_on_c, 0, 67, 0
2, 59633, Control_c, 0, 64, 0
2, 59649, Control_c, 0, 64, 63
2, 59664, Control_c, 0, 64, 127
2, 59674, Note_on_c, 0, 72, 79
2, 59689, Note_on_c, 0, 66, 0
2, 59727, Note_on_c, 0, 69, 60
2, 59747, Note_on_c, 0, 72, 0
2, 59768, Note_on_c, 0, 66, 83
2, 59781, Note_on_c, 0, 57, 0
2, 59784, Note_on_c, 0, 69, 0
2, 59791, Note_on_c, 0, 53, 0
2, 59821, Note_on_c, 0, 66, 0
2, 59823, Note_on_c, 0, 65, 82
2, 59865, Note_on_c, 0, 72, 72
2, 59875, Note_on_c, 0, 65, 0
2, 59917, Note_on_c, 0, 69, 60
2, 59923, Note_on_c, 0, 72, 0
2, 59959, Note_on_c, 0, 69, 0
2, 59968, Note_on_c, 0, 65, 76
2, 60011, Control_c, 0, 64, 63
2, 60019, Note_on_c, 0, 46, 62
2, 60020, Control_c, 0, 64, 0
2, 60025, Note_on_c, 0, 65, 0
2, 60033, Note_on_c, 0, 70, 98
2, 60054, Control_c, 0, 64, 63
2, 60065, Control_c, 0, 64, 127
2, 60088, Note_on_c, 0, 46, 0
2, 60091, Note_on_c, 0, 70, 0
2, 60232, Note_on_c, 0, 58, 68
2, 60234, Note_on_c, 0, 74, 101
2, 60236, Note_on_c, 0, 62, 54
2, 60243, Control_c, 0, 64, 63
2, 60255, Control_c, 0, 64, 127
2, 60285, Note_on_c, 0, 70, 89
2, 60306, Note_on_c, 0, 74, 0
2, 60313, Note_on_c, 0, 58, 0
2, 60319, Note_on_c, 0, 62, 0
2, 60333, Note_on_c, 0, 65, 67
2, 60335, Note_on_c, 0, 70, 0
2, 60382, Note_on_c, 0, 65, 0
2, 60382, Note_on_c, 0, 70, 96
2, 60426, Note_on_c, 0, 70, 0
2, 60435, Note_on_c, 0, 76, 103
2, 60436, Note_on_c, 0, 64, 75
2, 60437, Note_on_c, 0, 58, 74
2, 60438, Note_on_c, 0, 62, 83
2, 60451, Control_c, 0, 64, 63
2, 60480, Control_c, 0, 64, 127
2, 60486, Note_on_c, 0, 74, 106
2, 60509, Note_on_c, 0, 76, 0
2, 60530, Note_on_c, 0, 62, 0
2, 60537, Note_on_c, 0, 64, 0
2, 60537, Note_on_c, 0, 67, 73
2, 60538, Note_on_c, 0, 74, 0
2, 60548, Note_on_c, 0, 58, 0
2, 60574, Note_on_c, 0, 67, 0
2, 60579, Note_on_c, 0, 74, 102
2, 60645, Note_on_c, 0, 74, 0
2, 60653, Note_on_c, 0, 55, 58
2, 60653, Note_on_c, 0, 64, 55
2, 60654, Note_on_c, 0, 62, 71
2, 60659, Note_on_c, 0, 82, 104
2, 60699, Control_c, 0, 64, 63
2, 60717, Control_c, 0, 64, 0
2, 60727, Control_c, 0, 64, 63
2, 60738, Note_on_c, 0, 74, 77
2, 60743, Control_c, 0, 64, 127
2, 60765, Note_on_c, 0, 55, 0
2, 60786, Note_on_c, 0, 62, 0
2, 60788, Note_on_c, 0, 64, 0
2, 60789, Note_on_c, 0, 70, 86
2, 60793, Note_on_c, 0, 74, 0
2, 60813, Note_on_c, 0, 82, 0
2, 60824, Note_on_c, 0, 70, 0
2, 60829, Note_on_c, 0, 74, 65
2, 60880, Note_on_c, 0, 66, 98
2, 60880, Note_on_c, 0, 81, 98
2, 60884, Note_on_c, 0, 74, 0
2, 60884, Note_on_c, 0, 57, 70
2, 60886, Note_on_c, 0, 62, 79
2, 60896, Control_c, 0, 64, 63
2, 60925, Control_c, 0, 64, 127
2, 60931, Note_on_c, 0, 74, 84
2, 60937, Note_on_c, 0, 81, 0
2, 60972, Note_on_c, 0, 57, 0
2, 60975, Note_on_c, 0, 69, 76
2, 60982, Note_on_c, 0, 66, 0
2, 60983, Note_on_c, 0, 74, 0
2, 60985, Note_on_c, 0, 62, 0
2, 61022, Note_on_c, 0, 69, 0
2, 61024, Note_on_c, 0, 74, 81
2, 61075, Note_on_c, 0, 74, 0
2, 61077, Note_on_c, 0, 76, 106
2, 61079, Note_on_c, 0, 64, 89
2, 61082, Note_on_c, 0, 62, 83
2, 61090, Note_on_c, 0, 55, 60
2, 61092, Control_c, 0, 64, 63
2, 61130, Control_c, 0, 64, 127
2, 61139, Note_on_c, 0, 74, 89
2, 61162, Note_on_c, 0, 76, 0
2, 61185, Note_on_c, 0, 67, 70
2, 61192, Note_on_c, 0, 74, 0
2, 61199, Note_on_c, 0, 55, 0
2, 61206, Note_on_c, 0, 62, 0
2, 61217, Note_on_c, 0, 64, 0
2, 61226, Note_on_c, 0, 67, 0
2, 61231, Note_on_c, 0, 74, 79
2, 61271, Note_on_c, 0, 74, 0
2, 61301, Note_on_c, 0, 76, 111
2, 61301, Note_on_c, 0, 64, 96
2, 61305, Note_on_c, 0, 58, 84
2, 61305, Note_on_c, 0, 55, 78
2, 61307, Control_c, 0, 64, 63
2, 61342, Control_c, 0, 64, 127
2, 61364, Note_on_c, 0, 73, 89
2, 61392, Note_on_c, 0, 76, 0
2, 61394, Note_on_c, 0, 58, 0
2, 61397, Note_on_c, 0, 55, 0
2, 61404, Note_on_c, 0, 64, 0
2, 61405, Note_on_c, 0, 70, 82
2, 61411, Note_on_c, 0, 73, 0
2, 61454, Note_on_c, 0, 70, 0
2, 61457, Note_on_c, 0, 73, 93
2, 61501, Note_on_c, 0, 78, 106
2, 61506, Note_on_c, 0, 73, 0
2, 61506, Note_on_c, 0, 62, 86
2, 61508, Note_on_c, 0, 57, 72
2, 61514, Note_on_c, 0, 54, 70
2, 61519, Control_c, 0, 64, 63
2, 61544, Control_c, 0, 64, 127
2, 61548, Note_on_c, 0, 74, 89
2, 61583, Note_on_c, 0, 62, 0
2, 61586, Note_on_c, 0, 78, 0
2, 61592, Note_on_c, 0, 57, 0
2, 61598, Note_on_c, 0, 74, 0
2, 61600, Note_on_c, 0, 69, 63
2, 61635, Note_on_c, 0, 54, 0
2, 61643, Note_on_c, 0, 74, 70
2, 61656, Note_on_c, 0, 69, 0
2, 61674, Note_on_c, 0, 74, 0
2, 61708, Note_on_c, 0, 58, 98
2, 61709, Note_on_c, 0, 50, 86
2, 61712, Note_on_c, 0, 73, 109
2, 61748, Control_c, 0, 64, 63
2, 61755, Note_on_c, 0, 70, 88
2, 61784, Control_c, 0, 64, 127
2, 61797, Note_on_c, 0, 67, 63
2, 61799, Note_on_c, 0, 70, 0
2, 61838, Note_on_c, 0, 73, 0
2, 61846, Note_on_c, 0, 70, 95
2, 61861, Note_on_c, 0, 67, 0
2, 61901, Note_on_c, 0, 70, 0
2, 61903, Note_on_c, 0, 57, 80
2, 61912, Control_c, 0, 64, 63
2, 61912, Note_on_c, 0, 74, 70
2, 61921, Note_on_c, 0, 58, 0
2, 61946, Control_c, 0, 64, 127
2, 61965, Note_on_c, 0, 69, 73
2, 61991, Note_on_c, 0, 74, 0
2, 62010, Note_on_c, 0, 66, 91
2, 62017, Note_on_c, 0, 69, 0
2, 62027, Note_on_c, 0, 50, 0
2, 62052, Note_on_c, 0, 69, 66
2, 62057, Note_on_c, 0, 66, 0
2, 62058, Note_on_c, 0, 57, 0
2, 62071, Note_on_c, 0, 69, 0
2, 62112, Note_on_c, 0, 62, 108
2, 62118, Control_c, 0, 64, 63
2, 62120, Note_on_c, 0, 69, 119
2, 62141, Control_c, 0, 64, 127
2, 62173, Note_on_c, 0, 62, 0
2, 62177, Note_on_c, 0, 67, 92
2, 62208, Note_on_c, 0, 69, 0
2, 62224, Note_on_c, 0, 63, 100
2, 62242, Note_on_c, 0, 67, 0
2, 62271, Note_on_c, 0, 63, 0
2, 62274, Note_on_c, 0, 60, 87
2, 62308, Note_on_c, 0, 60, 0
2, 62310, Note_on_c, 0, 57, 88
2, 62318, Note_on_c, 0, 69, 96
2, 62365, Note_on_c, 0, 66, 96
2, 62372, Control_c, 0, 64, 63
2, 62391, Control_c, 0, 64, 127
2, 62416, Note_on_c, 0, 66, 0
2, 62418, Note_on_c, 0, 62, 78
2, 62456, Note_on_c, 0, 69, 0
2, 62462, Note_on_c, 0, 66, 100
2, 62472, Note_on_c, 0, 62, 0
2, 62503, Note_on_c, 0, 69, 93
2, 62509, Note_on_c, 0, 50, 92
2, 62510, Note_on_c, 0, 66, 0
2, 62525, Control_c, 0, 64, 63
2, 62528, Note_on_c, 0, 57, 0
2, 62547, Control_c, 0, 64, 127
2, 62553, Note_on_c, 0, 67, 72
2, 62580, Note_on_c, 0, 50, 0
2, 62597, Note_on_c, 0, 63, 74
2, 62622, Note_on_c, 0, 67, 0
2, 62622, Note_on_c, 0, 69, 0
2, 62644, Note_on_c, 0, 60, 65
2, 62647, Note_on_c, 0, 63, 0
2, 62687, Note_on_c, 0, 60, 0
2, 62703, Note_on_c, 0, 69, 85
2, 62707, Note_on_c, 0, 45, 81
2, 62742, Control_c, 0, 64, 63
2, 62750, Note_on_c, 0, 66, 92
2, 62756, Control_c, 0, 64, 127
2, 62797, Note_on_c, 0, 62, 65
2, 62800, Note_on_c, 0, 66, 0
2, 62827, Note_on_c, 0, 69, 0
2, 62844, Note_on_c, 0, 66, 91
2, 62854, Note_on_c, 0, 62, 0
2, 62889, Note_on_c, 0, 66, 0
2, 62890, Note_on_c, 0, 69, 71
2, 62901, Note_on_c, 0, 38, 58
2, 62909, Note_on_c, 0, 45, 0
2, 62922, Control_c, 0, 64, 63
2, 62936, Note_on_c, 0, 67, 77
2, 62954, Control_c, 0, 64, 127
2, 62963, Note_on_c, 0, 69, 0
2, 62994, Note_on_c, 0, 63, 77
2, 63008, Note_on_c, 0, 67, 0
2, 63035, Note_on_c, 0, 60, 68
2, 63039, Note_on_c, 0, 63, 0
2, 63077, Note_on_c, 0, 60, 0
2, 63084, Note_on_c, 0, 69, 82
2, 63087, Note_on_c, 0, 45, 71
2, 63102, Control_c, 0, 64, 63
2, 63105, Note_on_c, 0, 38, 0
2, 63129, Control_c, 0, 64, 127
2, 63134, Note_on_c, 0, 66, 84
2, 63149, Note_on_c, 0, 69, 0
2, 63181, Note_on_c, 0, 62, 70
2, 63182, Note_on_c, 0, 66, 0
2, 63231, Note_on_c, 0, 66, 86
2, 63233, Note_on_c, 0, 62, 0
2, 63268, Control_c, 0, 64, 63
2, 63270, Note_on_c, 0, 45, 0
2, 63271, Note_on_c, 0, 66, 0
2, 63277, Note_on_c, 0, 69, 62
2, 63287, Note_on_c, 0, 50, 72
2, 63293, Control_c, 0, 64, 127
2, 63325, Note_on_c, 0, 67, 74
2, 63334, Note_on_c, 0, 69, 0
2, 63360, Note_on_c, 0, 50, 0
2, 63376, Note_on_c, 0, 63, 72
2, 63382, Note_on_c, 0, 67, 0
2, 63417, Note_on_c, 0, 63, 0
2, 63418, Note_on_c, 0, 60, 58
2, 63454, Note_on_c, 0, 60, 0
2, 63475, Note_on_c, 0, 69, 70
2, 63482, Note_on_c, 0, 57, 75
2, 63499, Control_c, 0, 64, 63
2, 63519, Control_c, 0, 64, 127
2, 63527, Note_on_c, 0, 66, 84
2, 63535, Note_on_c, 0, 69, 0
2, 63570, Note_on_c, 0, 66, 0
2, 63571, Note_on_c, 0, 62, 59
2, 63613, Note_on_c, 0, 57, 0
2, 63619, Note_on_c, 0, 62, 0
2, 63619, Note_on_c, 0, 66, 84
2, 63666, Note_on_c, 0, 66, 0
2, 63707, Note_on_c, 0, 62, 76
2, 63718, Note_on_c, 0, 69, 51
2, 63729, Control_c, 0, 64, 63
2, 63744, Control_c, 0, 64, 127
2, 63784, Note_on_c, 0, 69, 0
2, 63786, Note_on_c, 0, 66, 60
2, 63812, Note_on_c, 0, 62, 0
2, 63826, Note_on_c, 0, 66, 0
2, 63840, Note_on_c, 0, 62, 68
2, 63873, Note_on_c, 0, 62, 0
2, 63875, Note_on_c, 0, 66, 86
2, 63918, Note_on_c, 0, 66, 0
2, 63925, Note_on_c, 0, 67, 63
2, 63973, Note_on_c, 0, 63, 81
2, 63976, Note_on_c, 0, 67, 0
2, 64008, Note_on_c, 0, 63, 0
2, 64014, Note_on_c, 0, 62, 70
2, 64055, Note_on_c, 0, 62, 0
2, 64057, Note_on_c, 0, 63, 97
2, 64103, Note_on_c, 0, 69, 79
2, 64108, Note_on_c, 0, 63, 0
2, 64154, Note_on_c, 0, 66, 94
2, 64176, Note_on_c, 0, 69, 0
2, 64194, Note_on_c, 0, 66, 0
2, 64196, Note_on_c, 0, 62, 79
2, 64239, Note_on_c, 0, 66, 99
2, 64243, Note_on_c, 0, 62, 0
2, 64280, Note_on_c, 0, 67, 92
2, 64285, Note_on_c, 0, 66, 0
2, 64326, Note_on_c, 0, 63, 100
2, 64337, Note_on_c, 0, 67, 0
2, 64367, Note_on_c, 0, 63, 0
2, 64373, Note_on_c, 0, 62, 81
2, 64414, Note_on_c, 0, 63, 104
2, 64415, Note_on_c, 0, 62, 0
2, 64466, Note_on_c, 0, 63, 0
2, 64469, Note_on_c, 0, 69, 81
2, 64512, Note_on_c, 0, 66, 103
2, 64522, Note_on_c, 0, 69, 0
2, 64553, Note_on_c, 0, 66, 0
2, 64558, Note_on_c, 0, 62, 84
2, 64605, Note_on_c, 0, 62, 0
2, 64608, Note_on_c, 0, 61, 96
2, 64631, Control_c, 0, 64, 63
2, 64648, Note_on_c, 0, 61, 0
2, 64652, Note_on_c, 0, 62, 88
2, 64679, Control_c, 0, 64, 0
2, 64702, Note_on_c, 0, 62, 0
2, 64704, Note_on_c, 0, 63, 94
2, 64751, Note_on_c, 0, 63, 0
2, 64756, Note_on_c, 0, 64, 73
2, 64807, Note_on_c, 0, 66, 72
2, 64811, Note_on_c, 0, 64, 0
2, 64812, Note_on_c, 0, 43, 61
2, 64865, Note_on_c, 0, 43, 0
2, 64866, Note_on_c, 0, 50, 57
2, 64905, Note_on_c, 0, 66, 0
2, 64924, Note_on_c, 0, 67, 60
2, 64945, Note_on_c, 0, 58, 52
2, 64984, Control_c, 0, 64, 63
2, 64985, Control_c, 0, 64, 127
2, 65050, Note_on_c, 0, 67, 0
2, 65178, Note_on_c, 0, 66, 70
2, 65191, Note_on_c, 0, 58, 0
2, 65226, Note_on_c, 0, 66, 0
2, 65226, Note_on_c, 0, 50, 0
2, 65234, Note_on_c, 0, 67, 50
2, 65270, Note_on_c, 0, 66, 77
2, 65278, Note_on_c, 0, 67, 0
2, 65306, Note_on_c, 0, 66, 0
2, 65314, Note_on_c, 0, 62, 74
2, 65352, Note_on_c, 0, 62, 0
2, 65364, Note_on_c, 0, 65, 84
2, 65413, Note_on_c, 0, 67, 80
2, 65414, Note_on_c, 0, 65, 0
2, 65454, Note_on_c, 0, 65, 70
2, 65465, Note_on_c, 0, 67, 0
2, 65483, Note_on_c, 0, 65, 0
2, 65492, Note_on_c, 0, 62, 81
2, 65536, Note_on_c, 0, 62, 0
2, 65545, Control_c, 0, 64, 63
2, 65550, Control_c, 0, 64, 0
2, 65555, Note_on_c, 0, 70, 90
2, 65561, Note_on_c, 0, 64, 76
2, 65563, Note_on_c, 0, 67, 73
2, 65569, Control_c, 0, 64, 63
2, 65577, Control_c, 0, 64, 127
2, 65611, Note_on_c, 0, 64, 0
2, 65625, Note_on_c, 0, 65, 61
2, 65630, Note_on_c, 0, 70, 0
2, 65634, Note_on_c, 0, 67, 0
2, 65663, Note_on_c, 0, 64, 65
2, 65668, Note_on_c, 0, 65, 0
2, 65698, Note_on_c, 0, 64, 0
2, 65705, Note_on_c, 0, 62, 68
2, 65752, Note_on_c, 0, 62, 0
2, 65757, Note_on_c, 0, 63, 83
2, 65815, Note_on_c, 0, 63, 0
2, 65816, Note_on_c, 0, 65, 56
2, 65863, Note_on_c, 0, 63, 79
2, 65870, Note_on_c, 0, 65, 0
2, 65900, Note_on_c, 0, 63, 0
2, 65903, Note_on_c, 0, 62, 64
2, 65942, Note_on_c, 0, 62, 0
2, 65942, Note_on_c, 0, 63, 77
2, 65988, Note_on_c, 0, 63, 0
2, 65992, Note_on_c, 0, 65, 77
2, 66040, Note_on_c, 0, 63, 76
2, 66044, Note_on_c, 0, 65, 0
2, 66078, Note_on_c, 0, 63, 0
2, 66082, Note_on_c, 0, 43, 68
2, 66087, Note_on_c, 0, 62, 61
2, 66126, Note_on_c, 0, 43, 0
2, 66135, Note_on_c, 0, 50, 56
2, 66161, Control_c, 0, 64, 63
2, 66166, Note_on_c, 0, 62, 0
2, 66166, Control_c, 0, 64, 0
2, 66184, Note_on_c, 0, 67, 65
2, 66188, Note_on_c, 0, 58, 54
2, 66230, Control_c, 0, 64, 63
2, 66233, Control_c, 0, 64, 127
2, 66302, Note_on_c, 0, 50, 0
2, 66303, Note_on_c, 0, 67, 0
2, 66324, Note_on_c, 0, 58, 0
2, 66406, Note_on_c, 0, 66, 90
2, 66446, Note_on_c, 0, 66, 0
2, 66455, Note_on_c, 0, 67, 54
2, 66499, Note_on_c, 0, 66, 74
2, 66501, Note_on_c, 0, 67, 0
2, 66533, Note_on_c, 0, 66, 0
2, 66545, Note_on_c, 0, 62, 65
2, 66572, Note_on_c, 0, 62, 0
2, 66592, Note_on_c, 0, 65, 82
2, 66641, Note_on_c, 0, 65, 0
2, 66644, Note_on_c, 0, 67, 68
2, 66690, Note_on_c, 0, 65, 52
2, 66693, Note_on_c, 0, 67, 0
2, 66715, Note_on_c, 0, 65, 0
2, 66725, Note_on_c, 0, 62, 60
2, 66748, Note_on_c, 0, 62, 0
2, 66778, Note_on_c, 0, 64, 84
2, 66780, Note_on_c, 0, 70, 81
2, 66781, Control_c, 0, 64, 63
2, 66787, Control_c, 0, 64, 0
2, 66793, Note_on_c, 0, 67, 64
2, 66822, Control_c, 0, 64, 63
2, 66829, Control_c, 0, 64, 127
2, 66831, Note_on_c, 0, 64, 0
2, 66835, Note_on_c, 0, 65, 64
2, 66887, Note_on_c, 0, 65, 0
2, 66889, Note_on_c, 0, 64, 43
2, 66901, Note_on_c, 0, 70, 0
2, 66911, Note_on_c, 0, 67, 0
2, 66918, Note_on_c, 0, 64, 0
2, 66926, Note_on_c, 0, 62, 59
2, 66967, Note_on_c, 0, 62, 0
2, 66973, Note_on_c, 0, 63, 89
2, 67024, Note_on_c, 0, 63, 0
2, 67029, Note_on_c, 0, 65, 62
2, 67075, Note_on_c, 0, 63, 79
2, 67077, Note_on_c, 0, 65, 0
2, 67106, Note_on_c, 0, 63, 0
2, 67115, Note_on_c, 0, 62, 67
2, 67157, Note_on_c, 0, 62, 0
2, 67160, Note_on_c, 0, 63, 86
2, 67201, Note_on_c, 0, 63, 0
2, 67210, Note_on_c, 0, 65, 59
2, 67252, Note_on_c, 0, 63, 83
2, 67260, Note_on_c, 0, 65, 0
2, 67270, Note_on_c, 0, 43, 62
2, 67296, Note_on_c, 0, 63, 0
2, 67305, Note_on_c, 0, 62, 56
2, 67314, Note_on_c, 0, 43, 0
2, 67328, Note_on_c, 0, 50, 62
2, 67360, Note_on_c, 0, 62, 0
2, 67369, Note_on_c, 0, 70, 85
2, 67382, Note_on_c, 0, 58, 50
2, 67387, Control_c, 0, 64, 63
2, 67394, Control_c, 0, 64, 0
2, 67461, Control_c, 0, 64, 63
2, 67468, Control_c, 0, 64, 127
2, 67509, Note_on_c, 0, 70, 0
2, 67573, Note_on_c, 0, 67, 80
2, 67592, Note_on_c, 0, 58, 0
2, 67608, Note_on_c, 0, 50, 0
2, 67613, Note_on_c, 0, 67, 0
2, 67615, Note_on_c, 0, 70, 77
2, 67649, Note_on_c, 0, 67, 48
2, 67652, Note_on_c, 0, 70, 0
2, 67699, Note_on_c, 0, 67, 0
2, 67709, Note_on_c, 0, 62, 76
2, 67741, Note_on_c, 0, 62, 0
2, 67761, Note_on_c, 0, 66, 100
2, 67803, Note_on_c, 0, 70, 72
2, 67806, Note_on_c, 0, 66, 0
2, 67853, Note_on_c, 0, 66, 82
2, 67860, Note_on_c, 0, 70, 0
2, 67896, Note_on_c, 0, 66, 0
2, 67899, Note_on_c, 0, 62, 70
2, 67940, Note_on_c, 0, 62, 0
2, 67955, Note_on_c, 0, 65, 98
2, 67960, Note_on_c, 0, 74, 81
2, 67960, Note_on_c, 0, 70, 87
2, 67979, Control_c, 0, 64, 63
2, 67989, Control_c, 0, 64, 0
2, 68004, Control_c, 0, 64, 63
2, 68018, Control_c, 0, 64, 127
2, 68022, Note_on_c, 0, 67, 76
2, 68023, Note_on_c, 0, 65, 0
2, 68072, Note_on_c, 0, 65, 59
2, 68076, Note_on_c, 0, 67, 0
2, 68105, Note_on_c, 0, 65, 0
2, 68108, Note_on_c, 0, 62, 79
2, 68140, Note_on_c, 0, 74, 0
2, 68142, Note_on_c, 0, 62, 0
2, 68156, Note_on_c, 0, 64, 91
2, 68188, Note_on_c, 0, 70, 0
2, 68206, Note_on_c, 0, 64, 0
2, 68206, Note_on_c, 0, 67, 85
2, 68255, Note_on_c, 0, 67, 0
2, 68257, Note_on_c, 0, 64, 79
2, 68291, Note_on_c, 0, 64, 0
2, 68299, Note_on_c, 0, 62, 76
2, 68338, Note_on_c, 0, 62, 0
2, 68345, Note_on_c, 0, 63, 109
2, 68384, Note_on_c, 0, 63, 0
2, 68393, Note_on_c, 0, 67, 79
2, 68438, Note_on_c, 0, 63, 88
2, 68450, Note_on_c, 0, 67, 0
2, 68469, Note_on_c, 0, 43, 71
2, 68470, Note_on_c, 0, 63, 0
2, 68485, Note_on_c, 0, 62, 81
2, 68516, Note_on_c, 0, 50, 77
2, 68526, Note_on_c, 0, 43, 0
2, 68548, Note_on_c, 0, 62, 0
2, 68552, Note_on_c, 0, 70, 104
2, 68564, Control_c, 0, 64, 63
2, 68570, Control_c, 0, 64, 0
2, 68572, Note_on_c, 0, 58, 85
2, 68648, Control_c, 0, 64, 63
2, 68652, Control_c, 0, 64, 127
2, 68694, Note_on_c, 0, 50, 0
2, 68704, Note_on_c, 0, 58, 0
2, 68711, Note_on_c, 0, 70, 0
2, 68766, Note_on_c, 0, 67, 91
2, 68813, Note_on_c, 0, 70, 87
2, 68815, Note_on_c, 0, 67, 0
2, 68859, Note_on_c, 0, 67, 64
2, 68868, Note_on_c, 0, 70, 0
2, 68899, Note_on_c, 0, 67, 0
2, 68903, Note_on_c, 0, 62, 76
2, 68946, Note_on_c, 0, 62, 0
2, 68953, Note_on_c, 0, 66, 104
2, 68991, Note_on_c, 0, 70, 102
2, 68998, Note_on_c, 0, 66, 0
2, 69037, Note_on_c, 0, 66, 88
2, 69051, Note_on_c, 0, 70, 0
2, 69076, Note_on_c, 0, 62, 91
2, 69082, Note_on_c, 0, 66, 0
2, 69123, Note_on_c, 0, 62, 0
2, 69141, Note_on_c, 0, 65, 103
2, 69144, Note_on_c, 0, 70, 98
2, 69145, Note_on_c, 0, 74, 90
2, 69162, Control_c, 0, 64, 63
2, 69168, Control_c, 0, 64, 0
2, 69199, Note_on_c, 0, 67, 87
2, 69202, Note_on_c, 0, 65, 0
2, 69215, Control_c, 0, 64, 63
2, 69221, Control_c, 0, 64, 127
2, 69242, Note_on_c, 0, 65, 76
2, 69256, Note_on_c, 0, 67, 0
2, 69279, Note_on_c, 0, 62, 90
2, 69282, Note_on_c, 0, 65, 0
2, 69295, Note_on_c, 0, 74, 0
2, 69316, Note_on_c, 0, 62, 0
2, 69328, Note_on_c, 0, 64, 94
2, 69338, Note_on_c, 0, 70, 0
2, 69372, Note_on_c, 0, 67, 93
2, 69379, Note_on_c, 0, 64, 0
2, 69421, Note_on_c, 0, 64, 68
2, 69424, Note_on_c, 0, 67, 0
2, 69456, Note_on_c, 0, 64, 0
2, 69460, Note_on_c, 0, 62, 88
2, 69498, Note_on_c, 0, 62, 0
2, 69511, Note_on_c, 0, 63, 111
2, 69554, Note_on_c, 0, 63, 0
2, 69555, Note_on_c, 0, 67, 89
2, 69601, Note_on_c, 0, 63, 101
2, 69610, Note_on_c, 0, 67, 0
2, 69640, Note_on_c, 0, 63, 0
2, 69653, Note_on_c, 0, 62, 88
2, 69720, Note_on_c, 0, 62, 0
2, 69736, Control_c, 0, 64, 63
2, 69737, Note_on_c, 0, 34, 90
2, 69743, Note_on_c, 0, 70, 102
2, 69743, Control_c, 0, 64, 0
2, 69812, Control_c, 0, 64, 63
2, 69815, Control_c, 0, 64, 127
2, 69878, Note_on_c, 0, 34, 0
2, 69893, Note_on_c, 0, 70, 0
2, 70022, Note_on_c, 0, 69, 84
2, 70030, Note_on_c, 0, 53, 57
2, 70058, Control_c, 0, 64, 63
2, 70065, Control_c, 0, 64, 0
2, 70079, Control_c, 0, 64, 63
2, 70086, Note_on_c, 0, 74, 73
2, 70091, Control_c, 0, 64, 127
2, 70123, Note_on_c, 0, 69, 0
2, 70142, Note_on_c, 0, 70, 77
2, 70153, Note_on_c, 0, 74, 0
2, 70182, Note_on_c, 0, 70, 0
2, 70183, Note_on_c, 0, 69, 77
2, 70229, Note_on_c, 0, 69, 0
2, 70232, Note_on_c, 0, 68, 102
2, 70234, Note_on_c, 0, 65, 61
2, 70237, Note_on_c, 0, 62, 70
2, 70264, Note_on_c, 0, 53, 0
2, 70283, Note_on_c, 0, 74, 85
2, 70288, Note_on_c, 0, 65, 0
2, 70298, Note_on_c, 0, 62, 0
2, 70299, Note_on_c, 0, 68, 0
2, 70337, Note_on_c, 0, 70, 87
2, 70343, Note_on_c, 0, 74, 0
2, 70381, Note_on_c, 0, 68, 90
2, 70406, Note_on_c, 0, 70, 0
2, 70426, Note_on_c, 0, 63, 87
2, 70428, Note_on_c, 0, 67, 97
2, 70431, Note_on_c, 0, 57, 73
2, 70441, Control_c, 0, 64, 63
2, 70446, Control_c, 0, 64, 0
2, 70456, Note_on_c, 0, 68, 0
2, 70472, Control_c, 0, 64, 63
2, 70482, Control_c, 0, 64, 127
2, 70483, Note_on_c, 0, 72, 73
2, 70520, Note_on_c, 0, 63, 0
2, 70527, Note_on_c, 0, 67, 0
2, 70528, Note_on_c, 0, 69, 73
2, 70549, Note_on_c, 0, 72, 0
2, 70573, Note_on_c, 0, 69, 0
2, 70575, Note_on_c, 0, 67, 76
2, 70616, Note_on_c, 0, 67, 0
2, 70630, Note_on_c, 0, 66, 103
2, 70642, Note_on_c, 0, 53, 46
2, 70669, Control_c, 0, 64, 63
2, 70680, Note_on_c, 0, 72, 70
2, 70701, Control_c, 0, 64, 127
2, 70719, Note_on_c, 0, 66, 0
2, 70732, Note_on_c, 0, 69, 68
2, 70752, Note_on_c, 0, 72, 0
2, 70780, Note_on_c, 0, 66, 85
2, 70805, Note_on_c, 0, 69, 0
2, 70831, Note_on_c, 0, 65, 94
2, 70836, Note_on_c, 0, 57, 0
2, 70842, Note_on_c, 0, 66, 0
2, 70849, Note_on_c, 0, 53, 0
2, 70883, Note_on_c, 0, 72, 72
2, 70924, Note_on_c, 0, 65, 0
2, 70934, Note_on_c, 0, 69, 47
2, 70945, Note_on_c, 0, 72, 0
2, 70970, Note_on_c, 0, 69, 0
2, 70979, Note_on_c, 0, 65, 60
2, 71030, Note_on_c, 0, 65, 0
2, 71033, Note_on_c, 0, 34, 95
2, 71038, Note_on_c, 0, 70, 90
2, 71044, Control_c, 0, 64, 63
2, 71048, Control_c, 0, 64, 0
2, 71092, Control_c, 0, 64, 63
2, 71097, Control_c, 0, 64, 127
2, 71104, Note_on_c, 0, 34, 0
2, 71151, Note_on_c, 0, 70, 0
2, 71238, Note_on_c, 0, 69, 96
2, 71249, Note_on_c, 0, 53, 57
2, 71293, Note_on_c, 0, 74, 70
2, 71332, Note_on_c, 0, 69, 0
2, 71350, Note_on_c, 0, 70, 79
2, 71367, Note_on_c, 0, 74, 0
2, 71392, Note_on_c, 0, 69, 76
2, 71396, Note_on_c, 0, 70, 0
2, 71436, Note_on_c, 0, 65, 76
2, 71436, Note_on_c, 0, 68, 113
2, 71438, Note_on_c, 0, 62, 78
2, 71441, Control_c, 0, 64, 63
2, 71450, Note_on_c, 0, 69, 0
2, 71476, Control_c, 0, 64, 127
2, 71490, Note_on_c, 0, 74, 89
2, 71507, Note_on_c, 0, 53, 0
2, 71515, Note_on_c, 0, 68, 0
2, 71524, Note_on_c, 0, 65, 0
2, 71536, Note_on_c, 0, 62, 0
2, 71545, Note_on_c, 0, 70, 88
2, 71558, Note_on_c, 0, 74, 0
2, 71582, Note_on_c, 0, 68, 96
2, 71612, Note_on_c, 0, 70, 0
2, 71634, Note_on_c, 0, 67, 104
2, 71634, Note_on_c, 0, 63, 102
2, 71636, Note_on_c, 0, 57, 80
2, 71651, Control_c, 0, 64, 63
2, 71660, Note_on_c, 0, 68, 0
2, 71686, Note_on_c, 0, 72, 81
2, 71693, Control_c, 0, 64, 127
2, 71729, Note_on_c, 0, 63, 0
2, 71730, Note_on_c, 0, 67, 0
2, 71735, Note_on_c, 0, 69, 73
2, 71753, Note_on_c, 0, 72, 0
2, 71782, Note_on_c, 0, 69, 0
2, 71785, Note_on_c, 0, 67, 72
2, 71828, Note_on_c, 0, 53, 82
2, 71832, Note_on_c, 0, 66, 105
2, 71838, Note_on_c, 0, 67, 0
2, 71842, Control_c, 0, 64, 63
2, 71853, Control_c, 0, 64, 0
2, 71872, Control_c, 0, 64, 63
2, 71881, Note_on_c, 0, 72, 83
2, 71887, Control_c, 0, 64, 127
2, 71903, Note_on_c, 0, 66, 0
2, 71933, Note_on_c, 0, 69, 59
2, 71962, Note_on_c, 0, 72, 0
2, 71977, Note_on_c, 0, 66, 90
2, 71991, Note_on_c, 0, 57, 0
2, 71997, Note_on_c, 0, 69, 0
2, 72008, Note_on_c, 0, 53, 0
2, 72032, Note_on_c, 0, 65, 71
2, 72036, Note_on_c, 0, 66, 0
2, 72074, Note_on_c, 0, 72, 72
2, 72083, Note_on_c, 0, 65, 0
2, 72121, Note_on_c, 0, 69, 73
2, 72137, Note_on_c, 0, 72, 0
2, 72173, Note_on_c, 0, 69, 0
2, 72174, Note_on_c, 0, 65, 85
2, 72229, Note_on_c, 0, 34, 99
2, 72231, Control_c, 0, 64, 63
2, 72236, Note_on_c, 0, 70, 109
2, 72236, Control_c, 0, 64, 0
2, 72238, Note_on_c, 0, 65, 0
2, 72261, Control_c, 0, 64, 63
2, 72273, Control_c, 0, 64, 127
2, 72286, Note_on_c, 0, 34, 0
2, 72293, Note_on_c, 0, 70, 0
2, 72426, Note_on_c, 0, 58, 85
2, 72427, Note_on_c, 0, 74, 111
2, 72431, Note_on_c, 0, 62, 80
2, 72438, Control_c, 0, 64, 63
2, 72469, Control_c, 0, 64, 127
2, 72484, Note_on_c, 0, 70, 99
2, 72510, Note_on_c, 0, 74, 0
2, 72524, Note_on_c, 0, 58, 0
2, 72527, Note_on_c, 0, 62, 0
2, 72528, Note_on_c, 0, 70, 0
2, 72529, Note_on_c, 0, 65, 73
2, 72574, Note_on_c, 0, 70, 97
2, 72580, Note_on_c, 0, 65, 0
2, 72627, Note_on_c, 0, 70, 0
2, 72640, Note_on_c, 0, 76, 105
2, 72642, Note_on_c, 0, 64, 95
2, 72645, Note_on_c, 0, 58, 85
2, 72646, Note_on_c, 0, 62, 83
2, 72668, Control_c, 0, 64, 63
2, 72688, Note_on_c, 0, 74, 106
2, 72696, Control_c, 0, 64, 127
2, 72713, Note_on_c, 0, 76, 0
2, 72738, Note_on_c, 0, 67, 82
2, 72742, Note_on_c, 0, 74, 0
2, 72757, Note_on_c, 0, 62, 0
2, 72763, Note_on_c, 0, 64, 0
2, 72782, Note_on_c, 0, 67, 0
2, 72783, Note_on_c, 0, 74, 105
2, 72806, Note_on_c, 0, 58, 0
2, 72846, Note_on_c, 0, 55, 67
2, 72853, Note_on_c, 0, 64, 69
2, 72853, Note_on_c, 0, 62, 73
2, 72864, Note_on_c, 0, 82, 117
2, 72886, Note_on_c, 0, 74, 0
2, 72890, Control_c, 0, 64, 63
2, 72901, Control_c, 0, 64, 0
2, 72933, Control_c, 0, 64, 63
2, 72941, Control_c, 0, 64, 127
2, 72947, Note_on_c, 0, 74, 76
2, 72963, Note_on_c, 0, 55, 0
2, 72988, Note_on_c, 0, 62, 0
2, 72995, Note_on_c, 0, 64, 0
2, 73006, Note_on_c, 0, 70, 93
2, 73011, Note_on_c, 0, 74, 0
2, 73047, Note_on_c, 0, 82, 0
2, 73055, Note_on_c, 0, 70, 0
2, 73056, Note_on_c, 0, 74, 82
2, 73097, Note_on_c, 0, 66, 99
2, 73103, Note_on_c, 0, 62, 74
2, 73105, Note_on_c, 0, 81, 102
2, 73105, Note_on_c, 0, 57, 62
2, 73114, Note_on_c, 0, 74, 0
2, 73122, Control_c, 0, 64, 63
2, 73143, Control_c, 0, 64, 127
2, 73158, Note_on_c, 0, 74, 95
2, 73160, Note_on_c, 0, 81, 0
2, 73193, Note_on_c, 0, 57, 0
2, 73203, Note_on_c, 0, 62, 0
2, 73203, Note_on_c, 0, 69, 60
2, 73205, Note_on_c, 0, 74, 0
2, 73208, Note_on_c, 0, 66, 0
2, 73236, Note_on_c, 0, 74, 82
2, 73244, Note_on_c, 0, 69, 0
2, 73286, Note_on_c, 0, 74, 0
2, 73297, Note_on_c, 0, 76, 105
2, 73303, Note_on_c, 0, 64, 93
2, 73310, Note_on_c, 0, 55, 70
2, 73311, Note_on_c, 0, 58, 80
2, 73312, Control_c, 0, 64, 63
2, 73322, Control_c, 0, 64, 0
2, 73336, Control_c, 0, 64, 63
2, 73352, Control_c, 0, 64, 127
2, 73356, Note_on_c, 0, 74, 86
2, 73379, Note_on_c, 0, 76, 0
2, 73405, Note_on_c, 0, 74, 0
2, 73405, Note_on_c, 0, 67, 68
2, 73429, Note_on_c, 0, 58, 0
2, 73429, Note_on_c, 0, 55, 0
2, 73438, Note_on_c, 0, 67, 0
2, 73439, Note_on_c, 0, 74, 64
2, 73447, Note_on_c, 0, 64, 0
2, 73481, Note_on_c, 0, 74, 0
2, 73505, Note_on_c, 0, 64, 96
2, 73506, Note_on_c, 0, 58, 88
2, 73506, Note_on_c, 0, 76, 111
2, 73508, Note_on_c, 0, 55, 88
2, 73515, Control_c, 0, 64, 63
2, 73552, Control_c, 0, 64, 127
2, 73564, Note_on_c, 0, 73, 86
2, 73574, Note_on_c, 0, 76, 0
2, 73594, Note_on_c, 0, 58, 0
2, 73601, Note_on_c, 0, 55, 0
2, 73605, Note_on_c, 0, 64, 0
2, 73608, Note_on_c, 0, 73, 0
2, 73609, Note_on_c, 0, 70, 75
2, 73654, Note_on_c, 0, 70, 0
2, 73665, Note_on_c, 0, 73, 89
2, 73704, Note_on_c, 0, 73, 0
2, 73710, Note_on_c, 0, 78, 106
2, 73711, Note_on_c, 0, 62, 97
2, 73713, Note_on_c, 0, 57, 85
2, 73718, Control_c, 0, 64, 63
2, 73719, Note_on_c, 0, 54, 84
2, 73748, Control_c, 0, 64, 127
2, 73759, Note_on_c, 0, 74, 84
2, 73794, Note_on_c, 0, 78, 0
2, 73801, Note_on_c, 0, 57, 0
2, 73805, Note_on_c, 0, 69, 48
2, 73807, Note_on_c, 0, 74, 0
2, 73814, Note_on_c, 0, 62, 0
2, 73847, Note_on_c, 0, 74, 65
2, 73853, Note_on_c, 0, 54, 0
2, 73857, Note_on_c, 0, 69, 0
2, 73882, Note_on_c, 0, 74, 0
2, 73923, Note_on_c, 0, 58, 110
2, 73927, Note_on_c, 0, 51, 106
2, 73932, Note_on_c, 0, 73, 110
2, 73938, Control_c, 0, 64, 63
2, 73972, Note_on_c, 0, 70, 83
2, 73980, Control_c, 0, 64, 127
2, 74024, Note_on_c, 0, 70, 0
2, 74024, Note_on_c, 0, 67, 63
2, 74064, Note_on_c, 0, 58, 0
2, 74069, Note_on_c, 0, 73, 0
2, 74071, Note_on_c, 0, 70, 98
2, 74088, Note_on_c, 0, 67, 0
2, 74125, Note_on_c, 0, 70, 0
2, 74125, Note_on_c, 0, 51, 0
2, 74154, Note_on_c, 0, 50, 93
2, 74158, Note_on_c, 0, 58, 97
2, 74161, Note_on_c, 0, 73, 112
2, 74186, Control_c, 0, 64, 63
2, 74219, Note_on_c, 0, 70, 58
2, 74234, Control_c, 0, 64, 127
2, 74249, Note_on_c, 0, 67, 57
2, 74255, Note_on_c, 0, 70, 0
2, 74303, Note_on_c, 0, 70, 91
2, 74317, Note_on_c, 0, 67, 0
2, 74324, Note_on_c, 0, 73, 0
2, 74352, Note_on_c, 0, 70, 0
2, 74361, Note_on_c, 0, 57, 81
2, 74363, Note_on_c, 0, 74, 83
2, 74366, Note_on_c, 0, 58, 0
2, 74375, Control_c, 0, 64, 63
2, 74400, Control_c, 0, 64, 127
2, 74420, Note_on_c, 0, 69, 80
2, 74443, Note_on_c, 0, 74, 0
2, 74465, Note_on_c, 0, 66, 83
2, 74469, Note_on_c, 0, 69, 0
2, 74492, Note_on_c, 0, 57, 0
2, 74500, Note_on_c, 0, 69, 62
2, 74506, Note_on_c, 0, 66, 0
2, 74521, Note_on_c, 0, 69, 0
2, 74530, Note_on_c, 0, 50, 0
2, 74559, Note_on_c, 0, 62, 93
2, 74569, Note_on_c, 0, 69, 88
2, 74601, Note_on_c, 0, 62, 0
2, 74613, Note_on_c, 0, 67, 81
2, 74622, Note_on_c, 0, 69, 0
2, 74649, Note_on_c, 0, 63, 99
2, 74662, Note_on_c, 0, 67, 0
2, 74694, Note_on_c, 0, 63, 0
2, 74704, Note_on_c, 0, 60, 71
2, 74742, Note_on_c, 0, 60, 0
2, 74756, Note_on_c, 0, 69, 97
2, 74757, Note_on_c, 0, 57, 90
2, 74771, Control_c, 0, 64, 63
2, 74800, Control_c, 0, 64, 127
2, 74807, Note_on_c, 0, 66, 89
2, 74831, Note_on_c, 0, 69, 0
2, 74849, Note_on_c, 0, 62, 64
2, 74851, Note_on_c, 0, 66, 0
2, 74862, Note_on_c, 0, 57, 0
2, 74900, Note_on_c, 0, 66, 85
2, 74901, Note_on_c, 0, 62, 0
2, 74936, Note_on_c, 0, 66, 0
2, 74942, Note_on_c, 0, 69, 84
2, 74948, Control_c, 0, 64, 63
2, 74949, Note_on_c, 0, 50, 96
2, 74958, Control_c, 0, 64, 127
2, 74981, Note_on_c, 0, 67, 83
2, 74998, Note_on_c, 0, 69, 0
2, 75004, Note_on_c, 0, 50, 0
2, 75027, Note_on_c, 0, 63, 85
2, 75037, Note_on_c, 0, 67, 0
2, 75072, Note_on_c, 0, 63, 0
2, 75082, Note_on_c, 0, 60, 59
2, 75118, Note_on_c, 0, 60, 0
2, 75134, Note_on_c, 0, 69, 81
2, 75136, Note_on_c, 0, 45, 79
2, 75157, Control_c, 0, 64, 63
2, 75169, Control_c, 0, 64, 127
2, 75186, Note_on_c, 0, 66, 75
2, 75201, Note_on_c, 0, 69, 0
2, 75232, Note_on_c, 0, 66, 0
2, 75234, Note_on_c, 0, 62, 64
2, 75282, Note_on_c, 0, 66, 81
2, 75286, Note_on_c, 0, 62, 0
2, 75300, Note_on_c, 0, 45, 0
2, 75323, Note_on_c, 0, 38, 81
2, 75325, Note_on_c, 0, 69, 75
2, 75328, Note_on_c, 0, 66, 0
2, 75330, Control_c, 0, 64, 63
2, 75352, Control_c, 0, 64, 127
2, 75367, Note_on_c, 0, 67, 75
2, 75379, Note_on_c, 0, 69, 0
2, 75422, Note_on_c, 0, 63, 72
2, 75424, Note_on_c, 0, 67, 0
2, 75462, Note_on_c, 0, 63, 0
2, 75468, Note_on_c, 0, 60, 65
2, 75496, Note_on_c, 0, 38, 0
2, 75498, Note_on_c, 0, 60, 0
2, 75517, Note_on_c, 0, 69, 79
2, 75520, Note_on_c, 0, 45, 59
2, 75540, Control_c, 0, 64, 63
2, 75546, Control_c, 0, 64, 0
2, 75559, Control_c, 0, 64, 63
2, 75570, Note_on_c, 0, 66, 79
2, 75570, Control_c, 0, 64, 127
2, 75582, Note_on_c, 0, 69, 0
2, 75608, Note_on_c, 0, 66, 0
2, 75612, Note_on_c, 0, 62, 65
2, 75658, Note_on_c, 0, 66, 82
2, 75661, Note_on_c, 0, 62, 0
2, 75703, Note_on_c, 0, 66, 0
2, 75703, Note_on_c, 0, 69, 64
2, 75707, Control_c, 0, 64, 63
2, 75712, Note_on_c, 0, 45, 0
2, 75719, Note_on_c, 0, 50, 54
2, 75722, Control_c, 0, 64, 127
2, 75747, Note_on_c, 0, 67, 76
2, 75752, Note_on_c, 0, 69, 0
2, 75774, Note_on_c, 0, 50, 0
2, 75797, Note_on_c, 0, 67, 0
2, 75798, Note_on_c, 0, 63, 64
2, 75830, Note_on_c, 0, 63, 0
2, 75844, Note_on_c, 0, 60, 47
2, 75876, Note_on_c, 0, 60, 0
2, 75893, Control_c, 0, 67, 127
2, 75914, Note_on_c, 0, 69, 70
2, 75919, Note_on_c, 0, 57, 61
2, 75944, Control_c, 0, 64, 63
2, 75950, Control_c, 0, 64, 0
2, 75972, Note_on_c, 0, 66, 83
2, 75978, Note_on_c, 0, 69, 0
2, 75992, Control_c, 0, 64, 63
2, 75997, Control_c, 0, 64, 127
2, 76022, Note_on_c, 0, 62, 73
2, 76026, Note_on_c, 0, 66, 0
2, 76072, Note_on_c, 0, 62, 0
2, 76073, Note_on_c, 0, 66, 93
2, 76086, Note_on_c, 0, 57, 0
2, 76099, Note_on_c, 0, 66, 0
2, 76125, Control_c, 0, 64, 63
2, 76129, Note_on_c, 0, 62, 87
2, 76136, Note_on_c, 0, 69, 62
2, 76142, Control_c, 0, 64, 127
2, 76181, Note_on_c, 0, 67, 75
2, 76184, Note_on_c, 0, 69, 0
2, 76195, Note_on_c, 0, 62, 0
2, 76228, Note_on_c, 0, 67, 0
2, 76230, Note_on_c, 0, 63, 77
2, 76266, Note_on_c, 0, 63, 0
2, 76271, Note_on_c, 0, 60, 64
2, 76312, Note_on_c, 0, 60, 0
2, 76315, Note_on_c, 0, 69, 75
2, 76362, Note_on_c, 0, 67, 63
2, 76371, Note_on_c, 0, 69, 0
2, 76417, Note_on_c, 0, 63, 63
2, 76440, Note_on_c, 0, 67, 0
2, 76460, Note_on_c, 0, 60, 57
2, 76467, Note_on_c, 0, 63, 0
2, 76506, Note_on_c, 0, 60, 0
2, 76507, Note_on_c, 0, 69, 70
2, 76562, Note_on_c, 0, 66, 68
2, 76569, Note_on_c, 0, 69, 0
2, 76603, Note_on_c, 0, 66, 0
2, 76610, Note_on_c, 0, 62, 49
2, 76656, Note_on_c, 0, 66, 77
2, 76657, Note_on_c, 0, 62, 0
2, 76705, Note_on_c, 0, 66, 0
2, 76705, Note_on_c, 0, 69, 64
2, 76757, Note_on_c, 0, 69, 0
2, 76758, Note_on_c, 0, 66, 62
2, 76816, Note_on_c, 0, 62, 57
2, 76823, Note_on_c, 0, 66, 0
2, 76863, Note_on_c, 0, 62, 0
2, 76866, Note_on_c, 0, 66, 58
2, 76929, Note_on_c, 0, 66, 0
2, 76941, Note_on_c, 0, 69, 41
2, 76989, Note_on_c, 0, 66, 65
2, 76997, Note_on_c, 0, 69, 0
2, 77051, Note_on_c, 0, 62, 53
2, 77058, Note_on_c, 0, 66, 0
2, 77106, Note_on_c, 0, 62, 0
2, 77108, Note_on_c, 0, 66, 26
2, 77156, Note_on_c, 0, 66, 0
2, 77201, Note_on_c, 0, 60, 34
2, 77251, Control_c, 0, 64, 63
2, 77256, Control_c, 0, 64, 0
2, 77284, Note_on_c, 0, 63, 66
2, 77293, Control_c, 0, 64, 63
2, 77308, Control_c, 0, 64, 127
2, 77364, Note_on_c, 0, 65, 37
2, 77381, Note_on_c, 0, 60, 0
2, 77395, Note_on_c, 0, 63, 0
2, 77407, Note_on_c, 0, 67, 58
2, 77415, Note_on_c, 0, 65, 0
2, 77466, Note_on_c, 0, 67, 0
2, 77481, Note_on_c, 0, 75, 83
2, 77528, Note_on_c, 0, 72, 49
2, 77538, Note_on_c, 0, 75, 0
2, 77578, Note_on_c, 0, 69, 59
2, 77586, Note_on_c, 0, 72, 0
2, 77629, Note_on_c, 0, 69, 0
2, 77629, Note_on_c, 0, 72, 64
2, 77668, Note_on_c, 0, 72, 0
2, 77675, Note_on_c, 0, 65, 78
2, 77717, Note_on_c, 0, 69, 60
2, 77734, Control_c, 0, 64, 63
2, 77754, Control_c, 0, 64, 0
2, 77768, Control_c, 0, 64, 63
2, 77774, Note_on_c, 0, 70, 83
2, 77787, Control_c, 0, 64, 127
2, 77792, Note_on_c, 0, 69, 0
2, 77807, Note_on_c, 0, 72, 79
2, 77829, Note_on_c, 0, 70, 0
2, 77850, Note_on_c, 0, 72, 0
2, 77864, Note_on_c, 0, 79, 99
2, 77871, Note_on_c, 0, 65, 0
2, 77905, Note_on_c, 0, 75, 88
2, 77919, Note_on_c, 0, 79, 0
2, 77950, Note_on_c, 0, 72, 55
2, 77953, Note_on_c, 0, 75, 0
2, 77997, Note_on_c, 0, 75, 101
2, 78005, Note_on_c, 0, 72, 0
2, 78030, Note_on_c, 0, 75, 0
2, 78036, Note_on_c, 0, 60, 89
2, 78050, Control_c, 0, 64, 63
2, 78058, Control_c, 0, 64, 0
2, 78080, Note_on_c, 0, 63, 81
2, 78093, Control_c, 0, 64, 63
2, 78106, Control_c, 0, 64, 127
2, 78139, Note_on_c, 0, 65, 76
2, 78176, Note_on_c, 0, 63, 0
2, 78179, Note_on_c, 0, 67, 78
2, 78198, Note_on_c, 0, 65, 0
2, 78198, Note_on_c, 0, 60, 0
2, 78227, Note_on_c, 0, 75, 103
2, 78231, Note_on_c, 0, 67, 0
2, 78262, Note_on_c, 0, 72, 69
2, 78283, Note_on_c, 0, 75, 0
2, 78308, Note_on_c, 0, 69, 65
2, 78311, Note_on_c, 0, 72, 0
2, 78355, Note_on_c, 0, 72, 91
2, 78360, Note_on_c, 0, 69, 0
2, 78393, Note_on_c, 0, 72, 0
2, 78401, Note_on_c, 0, 65, 85
2, 78412, Control_c, 0, 64, 63
2, 78423, Control_c, 0, 64, 0
2, 78446, Note_on_c, 0, 69, 76
2, 78456, Control_c, 0, 64, 63
2, 78473, Control_c, 0, 64, 127
2, 78496, Note_on_c, 0, 70, 97
2, 78517, Note_on_c, 0, 69, 0
2, 78536, Note_on_c, 0, 72, 86
2, 78554, Note_on_c, 0, 70, 0
2, 78572, Note_on_c, 0, 79, 104
2, 78584, Note_on_c, 0, 72, 0
2, 78607, Note_on_c, 0, 65, 0
2, 78620, Note_on_c, 0, 75, 92
2, 78650, Note_on_c, 0, 79, 0
2, 78663, Note_on_c, 0, 75, 0
2, 78666, Note_on_c, 0, 72, 65
2, 78700, Note_on_c, 0, 75, 100
2, 78709, Note_on_c, 0, 72, 0
2, 78722, Control_c, 0, 64, 63
2, 78726, Control_c, 0, 64, 0
2, 78729, Note_on_c, 0, 75, 0
2, 78743, Note_on_c, 0, 60, 85
2, 78745, Note_on_c, 0, 63, 98
2, 78757, Control_c, 0, 64, 63
2, 78769, Control_c, 0, 64, 127
2, 78781, Note_on_c, 0, 67, 81
2, 78790, Note_on_c, 0, 60, 0
2, 78791, Note_on_c, 0, 63, 0
2, 78819, Note_on_c, 0, 67, 0
2, 78831, Note_on_c, 0, 75, 93
2, 78842, Note_on_c, 0, 72, 93
2, 78883, Note_on_c, 0, 69, 60
2, 78885, Note_on_c, 0, 72, 0
2, 78885, Note_on_c, 0, 75, 0
2, 78905, Note_on_c, 0, 69, 0
2, 78909, Control_c, 0, 64, 63
2, 78910, Note_on_c, 0, 65, 88
2, 78917, Note_on_c, 0, 69, 70
2, 78928, Control_c, 0, 64, 127
2, 78956, Note_on_c, 0, 72, 92
2, 78959, Note_on_c, 0, 69, 0
2, 78969, Note_on_c, 0, 65, 0
2, 78992, Note_on_c, 0, 72, 0
2, 79004, Note_on_c, 0, 79, 92
2, 79009, Note_on_c, 0, 75, 100
2, 79045, Note_on_c, 0, 72, 92
2, 79053, Note_on_c, 0, 75, 0
2, 79058, Note_on_c, 0, 79, 0
2, 79074, Control_c, 0, 64, 63
2, 79084, Note_on_c, 0, 60, 93
2, 79086, Note_on_c, 0, 72, 0
2, 79087, Note_on_c, 0, 63, 103
2, 79094, Control_c, 0, 64, 127
2, 79115, Note_on_c, 0, 67, 90
2, 79123, Note_on_c, 0, 63, 0
2, 79127, Note_on_c, 0, 60, 0
2, 79150, Note_on_c, 0, 67, 0
2, 79155, Note_on_c, 0, 75, 105
2, 79168, Note_on_c, 0, 72, 94
2, 79203, Note_on_c, 0, 69, 72
2, 79209, Note_on_c, 0, 75, 0
2, 79211, Note_on_c, 0, 72, 0
2, 79226, Note_on_c, 0, 69, 0
2, 79232, Control_c, 0, 64, 63
2, 79244, Note_on_c, 0, 65, 91
2, 79245, Note_on_c, 0, 69, 101
2, 79262, Control_c, 0, 64, 127
2, 79285, Note_on_c, 0, 69, 0
2, 79287, Note_on_c, 0, 65, 0
2, 79295, Note_on_c, 0, 72, 67
2, 79315, Note_on_c, 0, 72, 0
2, 79329, Note_on_c, 0, 79, 82
2, 79348, Note_on_c, 0, 75, 94
2, 79384, Note_on_c, 0, 72, 78
2, 79385, Note_on_c, 0, 79, 0
2, 79390, Note_on_c, 0, 75, 0
2, 79420, Note_on_c, 0, 72, 0
2, 79441, Note_on_c, 0, 67, 58
2, 79449, Control_c, 0, 64, 63
2, 79465, Control_c, 0, 64, 0
2, 79478, Note_on_c, 0, 70, 81
2, 79480, Control_c, 0, 64, 63
2, 79500, Control_c, 0, 64, 127
2, 79534, Note_on_c, 0, 72, 60
2, 79564, Note_on_c, 0, 74, 77
2, 79599, Note_on_c, 0, 70, 0
2, 79608, Note_on_c, 0, 82, 91
2, 79610, Note_on_c, 0, 72, 0
2, 79617, Note_on_c, 0, 67, 0
2, 79637, Note_on_c, 0, 74, 0
2, 79648, Note_on_c, 0, 79, 73
2, 79662, Note_on_c, 0, 82, 0
2, 79687, Note_on_c, 0, 75, 85
2, 79692, Note_on_c, 0, 79, 0
2, 79729, Note_on_c, 0, 75, 0
2, 79730, Note_on_c, 0, 79, 79
2, 79751, Note_on_c, 0, 79, 0
2, 79773, Note_on_c, 0, 72, 88
2, 79807, Control_c, 0, 64, 63
2, 79817, Note_on_c, 0, 75, 91
2, 79852, Control_c, 0, 64, 127
2, 79867, Note_on_c, 0, 77, 95
2, 79905, Note_on_c, 0, 79, 86
2, 79947, Note_on_c, 0, 77, 0
2, 79955, Note_on_c, 0, 86, 103
2, 79958, Note_on_c, 0, 79, 0
2, 79967, Note_on_c, 0, 75, 0
2, 79976, Note_on_c, 0, 72, 0
2, 80002, Note_on_c, 0, 82, 94
2, 80023, Note_on_c, 0, 86, 0
2, 80044, Note_on_c, 0, 79, 58
2, 80048, Note_on_c, 0, 82, 0
2, 80087, Note_on_c, 0, 82, 87
2, 80092, Note_on_c, 0, 79, 0
2, 80119, Note_on_c, 0, 82, 0
2, 80132, Note_on_c, 0, 67, 90
2, 80148, Control_c, 0, 64, 63
2, 80155, Control_c, 0, 64, 0
2, 80170, Note_on_c, 0, 70, 92
2, 80187, Control_c, 0, 64, 63
2, 80202, Control_c, 0, 64, 127
2, 80217, Note_on_c, 0, 72, 99
2, 80253, Note_on_c, 0, 74, 97
2, 80272, Note_on_c, 0, 70, 0
2, 80277, Note_on_c, 0, 72, 0
2, 80286, Note_on_c, 0, 67, 0
2, 80297, Note_on_c, 0, 82, 105
2, 80311, Note_on_c, 0, 74, 0
2, 80332, Note_on_c, 0, 79, 85
2, 80361, Note_on_c, 0, 82, 0
2, 80374, Note_on_c, 0, 75, 95
2, 80378, Note_on_c, 0, 79, 0
2, 80411, Note_on_c, 0, 75, 0
2, 80414, Note_on_c, 0, 79, 80
2, 80446, Note_on_c, 0, 79, 0
2, 80463, Note_on_c, 0, 72, 103
2, 80479, Control_c, 0, 64, 63
2, 80489, Control_c, 0, 64, 0
2, 80505, Note_on_c, 0, 75, 99
2, 80514, Control_c, 0, 64, 63
2, 80532, Control_c, 0, 64, 127
2, 80555, Note_on_c, 0, 77, 101
2, 80591, Note_on_c, 0, 79, 101
2, 80627, Note_on_c, 0, 77, 0
2, 80637, Note_on_c, 0, 75, 0
2, 80643, Note_on_c, 0, 86, 109
2, 80648, Note_on_c, 0, 79, 0
2, 80670, Note_on_c, 0, 72, 0
2, 80682, Note_on_c, 0, 82, 98
2, 80700, Note_on_c, 0, 86, 0
2, 80730, Note_on_c, 0, 82, 0
2, 80734, Note_on_c, 0, 79, 60
2, 80772, Note_on_c, 0, 82, 85
2, 80781, Note_on_c, 0, 79, 0
2, 80797, Note_on_c, 0, 82, 0
2, 80826, Note_on_c, 0, 67, 72
2, 80829, Control_c, 0, 64, 63
2, 80833, Note_on_c, 0, 70, 79
2, 80866, Control_c, 0, 64, 127
2, 80883, Note_on_c, 0, 74, 70
2, 80887, Note_on_c, 0, 67, 0
2, 80888, Note_on_c, 0, 70, 0
2, 80910, Note_on_c, 0, 74, 0
2, 80919, Note_on_c, 0, 82, 93
2, 80931, Note_on_c, 0, 79, 87
2, 80969, Note_on_c, 0, 82, 0
2, 80978, Note_on_c, 0, 75, 84
2, 80979, Note_on_c, 0, 79, 0
2, 80995, Note_on_c, 0, 75, 0
2, 81012, Note_on_c, 0, 72, 78
2, 81017, Note_on_c, 0, 75, 101
2, 81031, Control_c, 0, 64, 63
2, 81041, Control_c, 0, 64, 127
2, 81058, Note_on_c, 0, 79, 88
2, 81075, Note_on_c, 0, 72, 0
2, 81080, Note_on_c, 0, 75, 0
2, 81090, Note_on_c, 0, 79, 0
2, 81101, Note_on_c, 0, 86, 96
2, 81104, Note_on_c, 0, 82, 98
2, 81142, Note_on_c, 0, 79, 91
2, 81149, Note_on_c, 0, 86, 0
2, 81151, Note_on_c, 0, 82, 0
2, 81172, Control_c, 0, 64, 63
2, 81178, Note_on_c, 0, 67, 95
2, 81180, Note_on_c, 0, 79, 0
2, 81180, Note_on_c, 0, 70, 106
2, 81187, Control_c, 0, 64, 127
2, 81214, Note_on_c, 0, 74, 91
2, 81220, Note_on_c, 0, 70, 0
2, 81223, Note_on_c, 0, 67, 0
2, 81250, Note_on_c, 0, 74, 0
2, 81250, Note_on_c, 0, 82, 88
2, 81259, Note_on_c, 0, 79, 82
2, 81293, Note_on_c, 0, 75, 105
2, 81302, Note_on_c, 0, 79, 0
2, 81312, Note_on_c, 0, 82, 0
2, 81321, Note_on_c, 0, 75, 0
2, 81339, Note_on_c, 0, 72, 95
2, 81344, Control_c, 0, 64, 63
2, 81344, Note_on_c, 0, 75, 98
2, 81356, Control_c, 0, 64, 127
2, 81376, Note_on_c, 0, 72, 0
2, 81389, Note_on_c, 0, 79, 93
2, 81394, Note_on_c, 0, 75, 0
2, 81415, Note_on_c, 0, 86, 102
2, 81417, Note_on_c, 0, 82, 108
2, 81426, Note_on_c, 0, 79, 0
2, 81455, Note_on_c, 0, 79, 93
2, 81469, Note_on_c, 0, 82, 0
2, 81471, Note_on_c, 0, 86, 0
2, 81484, Note_on_c, 0, 79, 0
2, 81512, Note_on_c, 0, 77, 93
2, 81522, Control_c, 0, 64, 63
2, 81528, Note_on_c, 0, 81, 99
2, 81565, Control_c, 0, 64, 127
2, 81591, Note_on_c, 0, 84, 102
2, 81620, Note_on_c, 0, 81, 0
2, 81626, Note_on_c, 0, 84, 0
2, 81636, Note_on_c, 0, 77, 0
2, 81649, Note_on_c, 0, 91, 92
2, 81652, Note_on_c, 0, 87, 101
2, 81696, Note_on_c, 0, 84, 95
2, 81698, Note_on_c, 0, 91, 0
2, 81709, Note_on_c, 0, 87, 0
2, 81723, Note_on_c, 0, 84, 0
2, 81742, Note_on_c, 0, 72, 91
2, 81743, Note_on_c, 0, 75, 100
2, 81775, Note_on_c, 0, 79, 86
2, 81782, Note_on_c, 0, 75, 0
2, 81790, Note_on_c, 0, 72, 0
2, 81811, Note_on_c, 0, 79, 0
2, 81829, Note_on_c, 0, 86, 88
2, 81830, Note_on_c, 0, 82, 98
2, 81870, Note_on_c, 0, 79, 70
2, 81874, Note_on_c, 0, 86, 0
2, 81877, Note_on_c, 0, 82, 0
2, 81905, Note_on_c, 0, 79, 0
2, 81915, Note_on_c, 0, 70, 92
2, 81917, Note_on_c, 0, 67, 72
2, 81926, Control_c, 0, 64, 63
2, 81949, Note_on_c, 0, 74, 88
2, 81962, Control_c, 0, 64, 127
2, 81968, Note_on_c, 0, 70, 0
2, 81972, Note_on_c, 0, 67, 0
2, 81992, Note_on_c, 0, 74, 0
2, 81994, Note_on_c, 0, 82, 85
2, 82002, Note_on_c, 0, 79, 84
2, 82042, Note_on_c, 0, 75, 95
2, 82047, Note_on_c, 0, 79, 0
2, 82047, Note_on_c, 0, 82, 0
2, 82069, Note_on_c, 0, 75, 0
2, 82087, Note_on_c, 0, 72, 96
2, 82090, Note_on_c, 0, 75, 96
2, 82100, Control_c, 0, 64, 63
2, 82123, Control_c, 0, 64, 127
2, 82136, Note_on_c, 0, 79, 84
2, 82151, Note_on_c, 0, 72, 0
2, 82161, Note_on_c, 0, 75, 0
2, 82176, Note_on_c, 0, 79, 0
2, 82183, Note_on_c, 0, 86, 81
2, 82186, Note_on_c, 0, 82, 80
2, 82227, Note_on_c, 0, 86, 0
2, 82228, Note_on_c, 0, 79, 67
2, 82232, Note_on_c, 0, 82, 0
2, 82257, Note_on_c, 0, 79, 0
2, 82271, Note_on_c, 0, 75, 75
2, 82280, Note_on_c, 0, 72, 52
2, 82311, Note_on_c, 0, 79, 67
2, 82323, Note_on_c, 0, 72, 0
2, 82331, Note_on_c, 0, 75, 0
2, 82344, Note_on_c, 0, 79, 0
2, 82355, Note_on_c, 0, 82, 79
2, 82359, Note_on_c, 0, 86, 59
2, 82399, Note_on_c, 0, 79, 66
2, 82414, Note_on_c, 0, 86, 0
2, 82415, Note_on_c, 0, 82, 0
2, 82449, Note_on_c, 0, 67, 68
2, 82450, Note_on_c, 0, 79, 0
2, 82451, Note_on_c, 0, 70, 87
2, 82474, Control_c, 0, 64, 63
2, 82487, Note_on_c, 0, 74, 83
2, 82491, Control_c, 0, 64, 127
2, 82504, Note_on_c, 0, 70, 0
2, 82518, Note_on_c, 0, 67, 0
2, 82525, Note_on_c, 0, 74, 0
2, 82537, Note_on_c, 0, 82, 73
2, 82547, Note_on_c, 0, 79, 73
2, 82583, Note_on_c, 0, 75, 89
2, 82586, Note_on_c, 0, 82, 0
2, 82588, Note_on_c, 0, 79, 0
2, 82620, Note_on_c, 0, 75, 0
2, 82633, Note_on_c, 0, 63, 78
2, 82636, Note_on_c, 0, 67, 73
2, 82650, Control_c, 0, 64, 63
2, 82665, Note_on_c, 0, 70, 92
2, 82666, Control_c, 0, 64, 127
2, 82683, Note_on_c, 0, 67, 0
2, 82688, Note_on_c, 0, 63, 0
2, 82700, Note_on_c, 0, 79, 39
2, 82703, Note_on_c, 0, 70, 0
2, 82708, Note_on_c, 0, 75, 68
2, 82753, Note_on_c, 0, 72, 68
2, 82764, Note_on_c, 0, 75, 0
2, 82767, Note_on_c, 0, 79, 0
2, 82785, Note_on_c, 0, 72, 0
2, 82797, Note_on_c, 0, 70, 92
2, 82800, Note_on_c, 0, 67, 76
2, 82811, Control_c, 0, 64, 63
2, 82830, Control_c, 0, 64, 127
2, 82852, Note_on_c, 0, 74, 74
2, 82861, Note_on_c, 0, 70, 0
2, 82864, Note_on_c, 0, 67, 0
2, 82881, Note_on_c, 0, 82, 70
2, 82886, Note_on_c, 0, 79, 69
2, 82889, Note_on_c, 0, 74, 0
2, 82934, Note_on_c, 0, 75, 78
2, 82939, Note_on_c, 0, 79, 0
2, 82943, Note_on_c, 0, 82, 0
2, 82973, Note_on_c, 0, 75, 0
2, 82980, Note_on_c, 0, 70, 77
2, 82986, Note_on_c, 0, 67, 64
2, 83016, Note_on_c, 0, 74, 64
2, 83030, Note_on_c, 0, 67, 0
2, 83034, Note_on_c, 0, 70, 0
2, 83053, Note_on_c, 0, 74, 0
2, 83062, Note_on_c, 0, 82, 58
2, 83076, Note_on_c, 0, 79, 50
2, 83107, Note_on_c, 0, 75, 60
2, 83115, Note_on_c, 0, 79, 0
2, 83119, Note_on_c, 0, 82, 0
2, 83147, Note_on_c, 0, 75, 0
2, 83159, Note_on_c, 0, 63, 68
2, 83160, Note_on_c, 0, 67, 59
2, 83167, Control_c, 0, 64, 63
2, 83191, Control_c, 0, 64, 127
2, 83194, Note_on_c, 0, 70, 82
2, 83211, Note_on_c, 0, 67, 0
2, 83228, Note_on_c, 0, 63, 0
2, 83241, Note_on_c, 0, 70, 0
2, 83241, Note_on_c, 0, 79, 59
2, 83243, Note_on_c, 0, 75, 58
2, 83292, Note_on_c, 0, 79, 0
2, 83292, Note_on_c, 0, 72, 63
2, 83300, Note_on_c, 0, 75, 0
2, 83327, Note_on_c, 0, 72, 0
2, 83328, Note_on_c, 0, 63, 81
2, 83332, Note_on_c, 0, 60, 78
2, 83358, Note_on_c, 0, 67, 67
2, 83378, Note_on_c, 0, 60, 0
2, 83382, Note_on_c, 0, 63, 0
2, 83396, Note_on_c, 0, 75, 75
2, 83400, Note_on_c, 0, 72, 46
2, 83401, Note_on_c, 0, 67, 0
2, 83439, Note_on_c, 0, 69, 58
2, 83447, Note_on_c, 0, 72, 0
2, 83465, Note_on_c, 0, 75, 0
2, 83486, Note_on_c, 0, 69, 0
2, 83499, Note_on_c, 0, 67, 51
2, 83503, Note_on_c, 0, 63, 58
2, 83518, Control_c, 0, 64, 63
2, 83529, Control_c, 0, 64, 127
2, 83536, Note_on_c, 0, 70, 82
2, 83548, Note_on_c, 0, 67, 0
2, 83556, Note_on_c, 0, 63, 0
2, 83579, Note_on_c, 0, 70, 0
2, 83582, Note_on_c, 0, 79, 60
2, 83593, Note_on_c, 0, 75, 81
2, 83644, Note_on_c, 0, 72, 56
2, 83649, Note_on_c, 0, 75, 0
2, 83652, Note_on_c, 0, 79, 0
2, 83678, Note_on_c, 0, 63, 77
2, 83681, Note_on_c, 0, 72, 0
2, 83684, Note_on_c, 0, 60, 65
2, 83704, Control_c, 0, 64, 63
2, 83711, Control_c, 0, 64, 127
2, 83712, Note_on_c, 0, 67, 60
2, 83730, Note_on_c, 0, 60, 0
2, 83734, Note_on_c, 0, 63, 0
2, 83751, Note_on_c, 0, 75, 70
2, 83762, Note_on_c, 0, 72, 72
2, 83764, Note_on_c, 0, 67, 0
2, 83807, Note_on_c, 0, 69, 64
2, 83810, Note_on_c, 0, 72, 0
2, 83816, Note_on_c, 0, 75, 0
2, 83847, Note_on_c, 0, 69, 0
2, 83859, Note_on_c, 0, 67, 46
2, 83859, Note_on_c, 0, 63, 66
2, 83891, Control_c, 0, 64, 63
2, 83894, Note_on_c, 0, 70, 71
2, 83904, Control_c, 0, 64, 127
2, 83910, Note_on_c, 0, 67, 0
2, 83925, Note_on_c, 0, 63, 0
2, 83935, Note_on_c, 0, 70, 0
2, 83949, Note_on_c, 0, 79, 60
2, 83952, Note_on_c, 0, 75, 74
2, 84004, Note_on_c, 0, 72, 53
2, 84007, Note_on_c, 0, 75, 0
2, 84007, Note_on_c, 0, 79, 0
2, 84037, Note_on_c, 0, 72, 0
2, 84042, Note_on_c, 0, 63, 71
2, 84051, Note_on_c, 0, 60, 61
2, 84071, Control_c, 0, 64, 63
2, 84080, Note_on_c, 0, 67, 71
2, 84081, Control_c, 0, 64, 127
2, 84102, Note_on_c, 0, 60, 0
2, 84107, Note_on_c, 0, 63, 0
2, 84127, Note_on_c, 0, 67, 0
2, 84138, Note_on_c, 0, 75, 73
2, 84146, Note_on_c, 0, 72, 72
2, 84193, Note_on_c, 0, 69, 57
2, 84194, Note_on_c, 0, 72, 0
2, 84207, Note_on_c, 0, 75, 0
2, 84225, Note_on_c, 0, 69, 0
2, 84242, Note_on_c, 0, 63, 63
2, 84244, Note_on_c, 0, 67, 42
2, 84253, Control_c, 0, 64, 63
2, 84265, Control_c, 0, 64, 127
2, 84277, Note_on_c, 0, 70, 78
2, 84300, Note_on_c, 0, 67, 0
2, 84304, Note_on_c, 0, 63, 0
2, 84318, Note_on_c, 0, 70, 0
2, 84339, Note_on_c, 0, 79, 65
2, 84343, Note_on_c, 0, 75, 77
2, 84391, Note_on_c, 0, 72, 61
2, 84396, Note_on_c, 0, 75, 0
2, 84398, Note_on_c, 0, 79, 0
2, 84428, Note_on_c, 0, 72, 0
2, 84434, Note_on_c, 0, 63, 81
2, 84445, Note_on_c, 0, 60, 53
2, 84452, Control_c, 0, 64, 63
2, 84467, Control_c, 0, 64, 127
2, 84489, Note_on_c, 0, 67, 56
2, 84495, Note_on_c, 0, 60, 0
2, 84501, Note_on_c, 0, 63, 0
2, 84527, Note_on_c, 0, 67, 0
2, 84542, Note_on_c, 0, 75, 76
2, 84550, Note_on_c, 0, 72, 66
2, 84600, Note_on_c, 0, 69, 62
2, 84610, Note_on_c, 0, 72, 0
2, 84613, Note_on_c, 0, 75, 0
2, 84640, Note_on_c, 0, 69, 0
2, 84666, Note_on_c, 0, 62, 62
2, 84675, Control_c, 0, 64, 63
2, 84697, Control_c, 0, 64, 0
2, 84706, Control_c, 0, 64, 63
2, 84720, Note_on_c, 0, 69, 57
2, 84724, Control_c, 0, 64, 127
2, 84787, Note_on_c, 0, 62, 0
2, 84795, Note_on_c, 0, 69, 0
2, 84800, Note_on_c, 0, 78, 86
2, 84869, Note_on_c, 0, 72, 52
2, 84943, Note_on_c, 0, 72, 0
2, 84979, Note_on_c, 0, 78, 0
2, 85038, Note_on_c, 0, 79, 60
2, 85042, Note_on_c, 0, 62, 36
2, 85043, Note_on_c, 0, 55, 33
2, 85050, Note_on_c, 0, 70, 44
2, 85068, Control_c, 0, 64, 63
2, 85078, Control_c, 0, 64, 0
2, 85102, Control_c, 0, 64, 63
2, 85116, Control_c, 0, 64, 127
2, 85171, Note_on_c, 0, 70, 0
2, 85190, Note_on_c, 0, 79, 0
2, 85211, Note_on_c, 0, 55, 0
2, 85216, Note_on_c, 0, 62, 0
2, 85393, Note_on_c, 0, 62, 88
2, 85402, Note_on_c, 0, 78, 70
2, 85418, Control_c, 0, 67, 127
2, 85491, Note_on_c, 0, 79, 64
2, 85494, Note_on_c, 0, 78, 0
2, 85535, Control_c, 0, 64, 63
2, 85538, Control_c, 0, 64, 127
2, 85569, Note_on_c, 0, 74, 73
2, 85572, Note_on_c, 0, 79, 0
2, 85626, Note_on_c, 0, 74, 0
2, 85630, Note_on_c, 0, 70, 68
2, 85691, Note_on_c, 0, 70, 0
2, 85694, Note_on_c, 0, 77, 81
2, 85747, Note_on_c, 0, 79, 70
2, 85761, Note_on_c, 0, 77, 0
2, 85793, Note_on_c, 0, 79, 0
2, 85793, Note_on_c, 0, 74, 70
2, 85851, Note_on_c, 0, 74, 0
2, 85851, Note_on_c, 0, 70, 88
2, 85884, Note_on_c, 0, 70, 0
2, 85910, Note_on_c, 0, 76, 81
2, 85911, Control_c, 0, 64, 63
2, 85921, Control_c, 0, 64, 127
2, 85959, Note_on_c, 0, 79, 86
2, 85967, Note_on_c, 0, 76, 0
2, 86014, Note_on_c, 0, 79, 0
2, 86014, Note_on_c, 0, 72, 88
2, 86021, Note_on_c, 0, 62, 0
2, 86055, Note_on_c, 0, 72, 0
2, 86061, Note_on_c, 0, 69, 77
2, 86112, Note_on_c, 0, 69, 0
2, 86115, Note_on_c, 0, 75, 101
2, 86115, Note_on_c, 0, 60, 113
2, 86154, Control_c, 0, 64, 63
2, 86170, Note_on_c, 0, 79, 84
2, 86175, Control_c, 0, 64, 127
2, 86180, Note_on_c, 0, 75, 0
2, 86227, Note_on_c, 0, 79, 0
2, 86232, Note_on_c, 0, 72, 81
2, 86274, Note_on_c, 0, 69, 73
2, 86277, Note_on_c, 0, 72, 0
2, 86323, Note_on_c, 0, 69, 0
2, 86323, Note_on_c, 0, 74, 80
2, 86380, Note_on_c, 0, 78, 89
2, 86385, Note_on_c, 0, 74, 0
2, 86431, Note_on_c, 0, 78, 0
2, 86438, Note_on_c, 0, 72, 65
2, 86485, Note_on_c, 0, 72, 0
2, 86485, Note_on_c, 0, 69, 69
2, 86533, Note_on_c, 0, 60, 0
2, 86565, Note_on_c, 0, 69, 0
2, 86570, Note_on_c, 0, 58, 100
2, 86575, Note_on_c, 0, 70, 72
2, 86602, Control_c, 0, 64, 63
2, 86638, Note_on_c, 0, 70, 0
2, 86642, Note_on_c, 0, 74, 68
2, 86647, Control_c, 0, 64, 127
2, 86684, Note_on_c, 0, 60, 105
2, 86711, Note_on_c, 0, 70, 81
2, 86712, Note_on_c, 0, 58, 0
2, 86713, Note_on_c, 0, 74, 0
2, 86770, Note_on_c, 0, 70, 0
2, 86772, Note_on_c, 0, 67, 69
2, 86794, Note_on_c, 0, 62, 112
2, 86812, Control_c, 0, 64, 63
2, 86816, Note_on_c, 0, 69, 80
2, 86817, Note_on_c, 0, 60, 0
2, 86819, Control_c, 0, 64, 0
2, 86821, Note_on_c, 0, 67, 0
2, 86859, Note_on_c, 0, 74, 70
2, 86864, Note_on_c, 0, 69, 0
2, 86865, Control_c, 0, 64, 63
2, 86875, Control_c, 0, 64, 127
2, 86900, Note_on_c, 0, 74, 0
2, 86901, Note_on_c, 0, 69, 57
2, 86952, Note_on_c, 0, 66, 92
2, 86953, Note_on_c, 0, 69, 0
2, 86960, Control_c, 0, 64, 63
2, 86964, Control_c, 0, 64, 0
2, 86995, Control_c, 0, 64, 63
2, 86999, Note_on_c, 0, 66, 0
2, 86999, Control_c, 0, 64, 127
2, 87001, Note_on_c, 0, 68, 96
2, 87054, Note_on_c, 0, 68, 0
2, 87054, Note_on_c, 0, 74, 79
2, 87058, Note_on_c, 0, 62, 0
2, 87098, Note_on_c, 0, 68, 69
2, 87103, Note_on_c, 0, 74, 0
2, 87147, Note_on_c, 0, 68, 0
2, 87156, Note_on_c, 0, 65, 57
2, 87197, Note_on_c, 0, 50, 74
2, 87201, Note_on_c, 0, 65, 0
2, 87202, Note_on_c, 0, 43, 73
2, 87203, Note_on_c, 0, 67, 75
2, 87251, Note_on_c, 0, 67, 0
2, 87255, Note_on_c, 0, 70, 74
2, 87309, Note_on_c, 0, 70, 0
2, 87310, Note_on_c, 0, 67, 43
2, 87357, Note_on_c, 0, 67, 0
2, 87374, Note_on_c, 0, 64, 60
2, 87407, Note_on_c, 0, 64, 0
2, 87422, Note_on_c, 0, 66, 85
2, 87475, Note_on_c, 0, 66, 0
2, 87479, Note_on_c, 0, 70, 63
2, 87522, Note_on_c, 0, 70, 0
2, 87528, Note_on_c, 0, 66, 63
2, 87563, Note_on_c, 0, 66, 0
2, 87570, Note_on_c, 0, 63, 80
2, 87609, Note_on_c, 0, 63, 0
2, 87622, Note_on_c, 0, 67, 59
2, 87668, Note_on_c, 0, 70, 87
2, 87669, Note_on_c, 0, 67, 0
2, 87686, Note_on_c, 0, 43, 0
2, 87694, Note_on_c, 0, 50, 0
2, 87717, Note_on_c, 0, 70, 0
2, 87721, Note_on_c, 0, 67, 55
2, 87787, Note_on_c, 0, 67, 0
2, 87787, Note_on_c, 0, 62, 75
2, 87854, Note_on_c, 0, 62, 0
2, 87893, Note_on_c, 0, 62, 113
2, 88004, Control_c, 0, 64, 63
2, 88022, Control_c, 0, 64, 0
2, 88164, Note_on_c, 0, 78, 85
2, 88202, Control_c, 0, 64, 63
2, 88203, Control_c, 0, 64, 127
2, 88245, Note_on_c, 0, 78, 0
2, 88246, Note_on_c, 0, 79, 52
2, 88297, Note_on_c, 0, 79, 0
2, 88303, Note_on_c, 0, 74, 63
2, 88346, Note_on_c, 0, 70, 72
2, 88354, Note_on_c, 0, 74, 0
2, 88387, Note_on_c, 0, 70, 0
2, 88401, Note_on_c, 0, 77, 92
2, 88421, Control_c, 0, 64, 63
2, 88442, Control_c, 0, 64, 127
2, 88451, Note_on_c, 0, 79, 73
2, 88457, Note_on_c, 0, 77, 0
2, 88499, Note_on_c, 0, 79, 0
2, 88503, Note_on_c, 0, 74, 58
2, 88551, Note_on_c, 0, 74, 0
2, 88552, Note_on_c, 0, 70, 74
2, 88589, Note_on_c, 0, 70, 0
2, 88594, Note_on_c, 0, 60, 117
2, 88602, Note_on_c, 0, 62, 0
2, 88614, Note_on_c, 0, 76, 84
2, 88649, Control_c, 0, 64, 63
2, 88669, Control_c, 0, 64, 127
2, 88675, Note_on_c, 0, 79, 47
2, 88679, Note_on_c, 0, 76, 0
2, 88713, Note_on_c, 0, 79, 0
2, 88721, Note_on_c, 0, 72, 78
2, 88762, Note_on_c, 0, 72, 0
2, 88768, Note_on_c, 0, 69, 63
2, 88820, Note_on_c, 0, 69, 0
2, 88820, Note_on_c, 0, 75, 94
2, 88866, Note_on_c, 0, 79, 83
2, 88871, Note_on_c, 0, 75, 0
2, 88922, Note_on_c, 0, 79, 0
2, 88927, Note_on_c, 0, 72, 62
2, 88966, Note_on_c, 0, 69, 69
2, 88971, Note_on_c, 0, 72, 0
2, 89010, Note_on_c, 0, 74, 78
2, 89013, Note_on_c, 0, 69, 0
2, 89060, Note_on_c, 0, 78, 93
2, 89071, Note_on_c, 0, 74, 0
2, 89114, Note_on_c, 0, 78, 0
2, 89115, Note_on_c, 0, 72, 52
2, 89118, Note_on_c, 0, 60, 0
2, 89165, Note_on_c, 0, 72, 0
2, 89165, Note_on_c, 0, 69, 62
2, 89234, Note_on_c, 0, 69, 0
2, 89242, Note_on_c, 0, 58, 101
2, 89244, Note_on_c, 0, 70, 78
2, 89273, Control_c, 0, 64, 63
2, 89287, Control_c, 0, 64, 0
2, 89309, Control_c, 0, 64, 63
2, 89310, Note_on_c, 0, 70, 0
2, 89310, Note_on_c, 0, 74, 68
2, 89319, Control_c, 0, 64, 127
2, 89368, Note_on_c, 0, 70, 76
2, 89382, Note_on_c, 0, 74, 0
2, 89417, Note_on_c, 0, 70, 0
2, 89418, Note_on_c, 0, 67, 69
2, 89500, Note_on_c, 0, 62, 104
2, 89509, Note_on_c, 0, 69, 67
2, 89515, Note_on_c, 0, 67, 0
2, 89539, Note_on_c, 0, 58, 0
2, 89555, Control_c, 0, 64, 63
2, 89560, Control_c, 0, 64, 0
2, 89569, Note_on_c, 0, 74, 71
2, 89582, Note_on_c, 0, 69, 0
2, 89587, Control_c, 0, 64, 63
2, 89593, Control_c, 0, 64, 127
2, 89631, Note_on_c, 0, 74, 0
2, 89632, Note_on_c, 0, 69, 72
2, 89678, Note_on_c, 0, 69, 0
2, 89680, Note_on_c, 0, 66, 83
2, 89728, Note_on_c, 0, 66, 0
2, 89734, Note_on_c, 0, 68, 80
2, 89745, Note_on_c, 0, 62, 0
2, 89774, Note_on_c, 0, 74, 76
2, 89777, Note_on_c, 0, 68, 0
2, 89827, Note_on_c, 0, 68, 70
2, 89829, Note_on_c, 0, 74, 0
2, 89871, Note_on_c, 0, 65, 71
2, 89875, Note_on_c, 0, 68, 0
2, 89920, Note_on_c, 0, 65, 0
2, 89920, Note_on_c, 0, 50, 85
2, 89924, Note_on_c, 0, 43, 68
2, 89929, Note_on_c, 0, 67, 65
2, 89978, Note_on_c, 0, 70, 84
2, 89984, Note_on_c, 0, 67, 0
2, 90028, Note_on_c, 0, 67, 63
2, 90033, Note_on_c, 0, 70, 0
2, 90078, Note_on_c, 0, 67, 0
2, 90089, Note_on_c, 0, 64, 53
2, 90120, Note_on_c, 0, 64, 0
2, 90128, Note_on_c, 0, 66, 94
2, 90177, Note_on_c, 0, 70, 75
2, 90178, Note_on_c, 0, 66, 0
2, 90227, Note_on_c, 0, 70, 0
2, 90232, Note_on_c, 0, 66, 57
2, 90268, Note_on_c, 0, 66, 0
2, 90274, Note_on_c, 0, 63, 76
2, 90320, Note_on_c, 0, 63, 0
2, 90328, Note_on_c, 0, 67, 70
2, 90380, Control_c, 0, 64, 63
2, 90382, Note_on_c, 0, 70, 87
2, 90386, Note_on_c, 0, 67, 0
2, 90389, Control_c, 0, 64, 0
2, 90403, Control_c, 0, 64, 63
2, 90416, Control_c, 0, 64, 127
2, 90440, Note_on_c, 0, 70, 0
2, 90444, Note_on_c, 0, 67, 49
2, 90449, Note_on_c, 0, 43, 0
2, 90465, Note_on_c, 0, 50, 0
2, 90508, Note_on_c, 0, 62, 68
2, 90528, Note_on_c, 0, 67, 0
2, 90565, Note_on_c, 0, 62, 0
2, 90613, Note_on_c, 0, 58, 111
2, 90756, Control_c, 0, 64, 63
2, 90776, Control_c, 0, 64, 0
2, 90850, Control_c, 0, 64, 63
2, 90854, Note_on_c, 0, 72, 91
2, 90858, Control_c, 0, 64, 127
2, 90904, Note_on_c, 0, 72, 0
2, 90908, Note_on_c, 0, 74, 62
2, 90954, Note_on_c, 0, 74, 0
2, 90955, Note_on_c, 0, 72, 70
2, 91008, Note_on_c, 0, 72, 0
2, 91015, Note_on_c, 0, 67, 52
2, 91056, Note_on_c, 0, 67, 0
2, 91061, Note_on_c, 0, 70, 93
2, 91106, Note_on_c, 0, 70, 0
2, 91112, Note_on_c, 0, 74, 60
2, 91136, Note_on_c, 0, 58, 0
2, 91157, Note_on_c, 0, 70, 75
2, 91161, Note_on_c, 0, 74, 0
2, 91196, Note_on_c, 0, 70, 0
2, 91203, Note_on_c, 0, 67, 57
2, 91254, Note_on_c, 0, 57, 113
2, 91261, Note_on_c, 0, 67, 0
2, 91268, Note_on_c, 0, 69, 73
2, 91298, Control_c, 0, 64, 63
2, 91310, Note_on_c, 0, 74, 78
2, 91315, Control_c, 0, 64, 127
2, 91316, Note_on_c, 0, 69, 0
2, 91355, Note_on_c, 0, 74, 0
2, 91357, Note_on_c, 0, 69, 54
2, 91394, Note_on_c, 0, 69, 0
2, 91399, Note_on_c, 0, 66, 95
2, 91422, Note_on_c, 0, 66, 0
2, 91458, Note_on_c, 0, 67, 85
2, 91509, Note_on_c, 0, 67, 0
2, 91512, Note_on_c, 0, 74, 88
2, 91554, Note_on_c, 0, 74, 0
2, 91561, Note_on_c, 0, 67, 58
2, 91601, Note_on_c, 0, 67, 0
2, 91612, Note_on_c, 0, 64, 60
2, 91652, Note_on_c, 0, 64, 0
2, 91657, Note_on_c, 0, 66, 106
2, 91696, Note_on_c, 0, 66, 0
2, 91701, Note_on_c, 0, 74, 81
2, 91729, Note_on_c, 0, 57, 0
2, 91748, Note_on_c, 0, 74, 0
2, 91751, Note_on_c, 0, 66, 88
2, 91785, Note_on_c, 0, 66, 0
2, 91798, Note_on_c, 0, 62, 47
2, 91841, Note_on_c, 0, 62, 0
2, 91860, Note_on_c, 0, 55, 107
2, 91867, Note_on_c, 0, 64, 70
2, 91890, Control_c, 0, 64, 63
2, 91896, Control_c, 0, 64, 0
2, 91933, Note_on_c, 0, 70, 90
2, 91936, Note_on_c, 0, 64, 0
2, 91965, Control_c, 0, 64, 63
2, 91967, Note_on_c, 0, 57, 111
2, 91971, Control_c, 0, 64, 127
2, 92002, Note_on_c, 0, 70, 0
2, 92002, Note_on_c, 0, 55, 0
2, 92004, Note_on_c, 0, 64, 49
2, 92053, Note_on_c, 0, 64, 0
2, 92059, Note_on_c, 0, 62, 69
2, 92089, Note_on_c, 0, 58, 119
2, 92112, Control_c, 0, 64, 63
2, 92115, Note_on_c, 0, 57, 0
2, 92115, Control_c, 0, 64, 0
2, 92120, Note_on_c, 0, 62, 0
2, 92127, Note_on_c, 0, 65, 62
2, 92174, Note_on_c, 0, 70, 86
2, 92178, Note_on_c, 0, 65, 0
2, 92189, Control_c, 0, 64, 63
2, 92189, Control_c, 0, 64, 127
2, 92211, Note_on_c, 0, 65, 57
2, 92216, Note_on_c, 0, 70, 0
2, 92249, Note_on_c, 0, 65, 0
2, 92255, Note_on_c, 0, 62, 79
2, 92289, Note_on_c, 0, 62, 0
2, 92302, Note_on_c, 0, 66, 106
2, 92330, Note_on_c, 0, 58, 0
2, 92346, Note_on_c, 0, 70, 93
2, 92351, Note_on_c, 0, 66, 0
2, 92390, Note_on_c, 0, 66, 68
2, 92400, Note_on_c, 0, 70, 0
2, 92449, Note_on_c, 0, 62, 60
2, 92463, Note_on_c, 0, 66, 0
2, 92502, Note_on_c, 0, 50, 95
2, 92503, Note_on_c, 0, 43, 82
2, 92505, Note_on_c, 0, 62, 0
2, 92517, Note_on_c, 0, 67, 59
2, 92530, Note_on_c, 0, 50, 0
2, 92534, Note_on_c, 0, 43, 0
2, 92555, Note_on_c, 0, 70, 85
2, 92569, Note_on_c, 0, 67, 0
2, 92604, Note_on_c, 0, 67, 43
2, 92607, Note_on_c, 0, 70, 0
2, 92667, Note_on_c, 0, 62, 55
2, 92673, Note_on_c, 0, 67, 0
2, 92716, Note_on_c, 0, 62, 0
2, 92717, Note_on_c, 0, 66, 85
2, 92766, Note_on_c, 0, 70, 80
2, 92767, Note_on_c, 0, 66, 0
2, 92814, Note_on_c, 0, 66, 81
2, 92818, Note_on_c, 0, 70, 0
2, 92869, Note_on_c, 0, 62, 77
2, 92870, Note_on_c, 0, 66, 0
2, 92903, Note_on_c, 0, 62, 0
2, 92909, Note_on_c, 0, 67, 57
2, 92945, Note_on_c, 0, 70, 91
2, 92955, Note_on_c, 0, 67, 0
2, 92993, Note_on_c, 0, 70, 0
2, 92998, Note_on_c, 0, 67, 43
2, 93052, Note_on_c, 0, 62, 67
2, 93055, Note_on_c, 0, 67, 0
2, 93121, Note_on_c, 0, 57, 105
2, 93123, Note_on_c, 0, 45, 91
2, 93130, Note_on_c, 0, 62, 0
2, 93134, Note_on_c, 0, 66, 104
2, 93209, Control_c, 0, 64, 63
2, 93215, Control_c, 0, 64, 0
2, 93218, Note_on_c, 0, 69, 76
2, 93225, Note_on_c, 0, 66, 0
2, 93253, Control_c, 0, 64, 63
2, 93259, Control_c, 0, 64, 127
2, 93281, Note_on_c, 0, 66, 75
2, 93295, Note_on_c, 0, 69, 0
2, 93303, Note_on_c, 0, 45, 0
2, 93323, Note_on_c, 0, 62, 76
2, 93324, Note_on_c, 0, 66, 0
2, 93363, Note_on_c, 0, 62, 0
2, 93365, Note_on_c, 0, 67, 88
2, 93411, Note_on_c, 0, 70, 96
2, 93418, Note_on_c, 0, 67, 0
2, 93461, Note_on_c, 0, 67, 48
2, 93476, Note_on_c, 0, 70, 0
2, 93502, Note_on_c, 0, 62, 73
2, 93517, Note_on_c, 0, 67, 0
2, 93544, Note_on_c, 0, 62, 0
2, 93563, Note_on_c, 0, 62, 119
2, 93572, Note_on_c, 0, 69, 86
2, 93617, Note_on_c, 0, 74, 96
2, 93624, Note_on_c, 0, 69, 0
2, 93659, Note_on_c, 0, 74, 0
2, 93660, Note_on_c, 0, 69, 68
2, 93683, Note_on_c, 0, 57, 0
2, 93717, Note_on_c, 0, 69, 0
2, 93717, Note_on_c, 0, 66, 94
2, 93762, Note_on_c, 0, 66, 0
2, 93775, Note_on_c, 0, 64, 119
2, 93779, Note_on_c, 0, 57, 96
2, 93780, Note_on_c, 0, 62, 0
2, 93780, Note_on_c, 0, 70, 100
2, 93828, Note_on_c, 0, 74, 92
2, 93829, Control_c, 0, 64, 63
2, 93835, Control_c, 0, 64, 0
2, 93839, Note_on_c, 0, 70, 0
2, 93874, Note_on_c, 0, 70, 87
2, 93880, Control_c, 0, 64, 63
2, 93887, Control_c, 0, 64, 127
2, 93908, Note_on_c, 0, 74, 0
2, 93923, Note_on_c, 0, 67, 88
2, 93935, Note_on_c, 0, 70, 0
2, 93973, Note_on_c, 0, 62, 118
2, 93985, Note_on_c, 0, 70, 111
2, 93996, Note_on_c, 0, 64, 0
2, 93997, Note_on_c, 0, 67, 0
2, 94031, Note_on_c, 0, 76, 92
2, 94050, Note_on_c, 0, 70, 0
2, 94084, Note_on_c, 0, 70, 76
2, 94128, Note_on_c, 0, 67, 87
2, 94134, Note_on_c, 0, 76, 0
2, 94152, Note_on_c, 0, 70, 0
2, 94182, Note_on_c, 0, 64, 116
2, 94194, Note_on_c, 0, 70, 117
2, 94197, Note_on_c, 0, 62, 0
2, 94200, Note_on_c, 0, 67, 0
2, 94215, Control_c, 0, 64, 63
2, 94224, Control_c, 0, 64, 0
2, 94234, Note_on_c, 0, 74, 105
2, 94247, Note_on_c, 0, 70, 0
2, 94261, Control_c, 0, 64, 63
2, 94269, Control_c, 0, 64, 127
2, 94271, Note_on_c, 0, 57, 0
2, 94286, Note_on_c, 0, 70, 109
2, 94316, Note_on_c, 0, 74, 0
2, 94332, Note_on_c, 0, 67, 89
2, 94336, Note_on_c, 0, 70, 0
2, 94356, Note_on_c, 0, 64, 0
2, 94372, Note_on_c, 0, 67, 0
2, 94420, Note_on_c, 0, 66, 119
2, 94426, Note_on_c, 0, 62, 97
2, 94428, Note_on_c, 0, 74, 103
2, 94455, Control_c, 0, 64, 63
2, 94457, Control_c, 0, 64, 0
2, 94492, Control_c, 0, 64, 63
2, 94493, Note_on_c, 0, 78, 111
2, 94497, Control_c, 0, 64, 127
2, 94511, Note_on_c, 0, 74, 0
2, 94542, Note_on_c, 0, 74, 88
2, 94582, Note_on_c, 0, 78, 0
2, 94587, Note_on_c, 0, 69, 94
2, 94599, Note_on_c, 0, 66, 0
2, 94605, Note_on_c, 0, 74, 0
2, 94622, Note_on_c, 0, 69, 0
2, 94662, Note_on_c, 0, 69, 108
2, 94668, Note_on_c, 0, 78, 118
2, 94668, Control_c, 0, 64, 63
2, 94670, Control_c, 0, 64, 0
2, 94704, Control_c, 0, 64, 63
2, 94707, Control_c, 0, 64, 127
2, 94729, Note_on_c, 0, 81, 94
2, 94747, Note_on_c, 0, 78, 0
2, 94780, Note_on_c, 0, 78, 86
2, 94809, Note_on_c, 0, 81, 0
2, 94821, Note_on_c, 0, 74, 95
2, 94842, Note_on_c, 0, 78, 0
2, 94868, Note_on_c, 0, 78, 98
2, 94878, Note_on_c, 0, 74, 0
2, 94914, Note_on_c, 0, 81, 103
2, 94928, Note_on_c, 0, 78, 0
2, 94929, Note_on_c, 0, 69, 0
2, 94955, Note_on_c, 0, 62, 0
2, 94967, Note_on_c, 0, 78, 101
2, 94991, Note_on_c, 0, 81, 0
2, 95008, Note_on_c, 0, 74, 89
2, 95028, Note_on_c, 0, 78, 0
2, 95060, Note_on_c, 0, 74, 0
2, 95071, Note_on_c, 0, 70, 114
2, 95072, Note_on_c, 0, 67, 93
2, 95079, Note_on_c, 0, 75, 115
2, 95100, Control_c, 0, 64, 63
2, 95132, Control_c, 0, 64, 127
2, 95140, Note_on_c, 0, 79, 93
2, 95146, Note_on_c, 0, 75, 0
2, 95194, Note_on_c, 0, 75, 98
2, 95215, Note_on_c, 0, 79, 0
2, 95236, Note_on_c, 0, 72, 89
2, 95262, Note_on_c, 0, 70, 0
2, 95263, Note_on_c, 0, 75, 0
2, 95294, Note_on_c, 0, 69, 96
2, 95302, Note_on_c, 0, 72, 0
2, 95303, Note_on_c, 0, 78, 100
2, 95307, Note_on_c, 0, 62, 87
2, 95318, Note_on_c, 0, 67, 0
2, 95345, Control_c, 0, 64, 63
2, 95349, Control_c, 0, 64, 0
2, 95352, Note_on_c, 0, 81, 74
2, 95367, Note_on_c, 0, 78, 0
2, 95382, Control_c, 0, 64, 63
2, 95390, Control_c, 0, 64, 127
2, 95407, Note_on_c, 0, 78, 60
2, 95419, Note_on_c, 0, 81, 0
2, 95451, Note_on_c, 0, 74, 70
2, 95455, Note_on_c, 0, 78, 0
2, 95498, Note_on_c, 0, 78, 71
2, 95499, Note_on_c, 0, 74, 0
2, 95546, Note_on_c, 0, 81, 79
2, 95555, Note_on_c, 0, 78, 0
2, 95599, Note_on_c, 0, 62, 0
2, 95602, Note_on_c, 0, 78, 85
2, 95617, Note_on_c, 0, 81, 0
2, 95626, Note_on_c, 0, 69, 0
2, 95673, Note_on_c, 0, 74, 63
2, 95674, Note_on_c, 0, 78, 0
2, 95723, Note_on_c, 0, 74, 0
2, 95784, Note_on_c, 0, 67, 50
2, 95791, Note_on_c, 0, 63, 60
2, 95798, Note_on_c, 0, 79, 79
2, 95804, Note_on_c, 0, 60, 51
2, 95820, Control_c, 0, 64, 63
2, 95831, Control_c, 0, 64, 0
2, 95859, Control_c, 0, 64, 63
2, 95870, Control_c, 0, 64, 127
2, 95878, Note_on_c, 0, 75, 69
2, 95891, Note_on_c, 0, 79, 0
2, 95924, Note_on_c, 0, 75, 0
2, 95933, Note_on_c, 0, 72, 49
2, 95978, Note_on_c, 0, 75, 70
2, 95986, Note_on_c, 0, 72, 0
2, 96033, Note_on_c, 0, 75, 0
2, 96038, Note_on_c, 0, 79, 76
2, 96094, Note_on_c, 0, 75, 69
2, 96109, Note_on_c, 0, 79, 0
2, 96125, Note_on_c, 0, 67, 0
2, 96126, Note_on_c, 0, 63, 0
2, 96141, Note_on_c, 0, 75, 0
2, 96149, Note_on_c, 0, 72, 52
2, 96190, Note_on_c, 0, 75, 91
2, 96200, Note_on_c, 0, 72, 0
2, 96233, Note_on_c, 0, 69, 96
2, 96235, Note_on_c, 0, 81, 81
2, 96237, Note_on_c, 0, 75, 0
2, 96239, Note_on_c, 0, 60, 0
2, 96241, Note_on_c, 0, 65, 83
2, 96261, Control_c, 0, 64, 63
2, 96271, Control_c, 0, 64, 0
2, 96297, Note_on_c, 0, 77, 73
2, 96300, Control_c, 0, 64, 63
2, 96313, Control_c, 0, 64, 127
2, 96327, Note_on_c, 0, 81, 0
2, 96340, Note_on_c, 0, 72, 69
2, 96343, Note_on_c, 0, 77, 0
2, 96386, Note_on_c, 0, 72, 0
2, 96388, Note_on_c, 0, 77, 81
2, 96426, Note_on_c, 0, 77, 0
2, 96438, Note_on_c, 0, 81, 106
2, 96487, Note_on_c, 0, 77, 71
2, 96513, Note_on_c, 0, 81, 0
2, 96521, Note_on_c, 0, 69, 0
2, 96533, Note_on_c, 0, 72, 63
2, 96536, Note_on_c, 0, 77, 0
2, 96582, Note_on_c, 0, 77, 84
2, 96592, Note_on_c, 0, 72, 0
2, 96630, Note_on_c, 0, 77, 0
2, 96634, Note_on_c, 0, 65, 0
2, 96649, Note_on_c, 0, 67, 90
2, 96651, Note_on_c, 0, 79, 104
2, 96653, Note_on_c, 0, 63, 82
2, 96669, Note_on_c, 0, 60, 56
2, 96679, Control_c, 0, 64, 63
2, 96690, Control_c, 0, 64, 0
2, 96700, Note_on_c, 0, 75, 97
2, 96705, Control_c, 0, 64, 63
2, 96717, Note_on_c, 0, 79, 0
2, 96724, Control_c, 0, 64, 127
2, 96755, Note_on_c, 0, 75, 0
2, 96756, Note_on_c, 0, 72, 64
2, 96795, Note_on_c, 0, 75, 87
2, 96811, Note_on_c, 0, 72, 0
2, 96837, Note_on_c, 0, 75, 0
2, 96850, Note_on_c, 0, 79, 106
2, 96897, Note_on_c, 0, 75, 91
2, 96916, Note_on_c, 0, 67, 0
2, 96919, Note_on_c, 0, 79, 0
2, 96945, Note_on_c, 0, 63, 0
2, 96947, Note_on_c, 0, 60, 0
2, 96947, Note_on_c, 0, 72, 67
2, 96949, Note_on_c, 0, 75, 0
2, 96990, Note_on_c, 0, 75, 108
2, 97012, Note_on_c, 0, 72, 0
2, 97050, Note_on_c, 0, 75, 0
2, 97058, Note_on_c, 0, 69, 91
2, 97059, Note_on_c, 0, 81, 107
2, 97062, Control_c, 0, 64, 63
2, 97063, Note_on_c, 0, 65, 82
2, 97068, Control_c, 0, 64, 0
2, 97098, Control_c, 0, 64, 63
2, 97111, Control_c, 0, 64, 127
2, 97120, Note_on_c, 0, 77, 85
2, 97167, Note_on_c, 0, 69, 0
2, 97171, Note_on_c, 0, 77, 0
2, 97171, Note_on_c, 0, 72, 65
2, 97190, Note_on_c, 0, 81, 0
2, 97210, Note_on_c, 0, 77, 70
2, 97215, Note_on_c, 0, 72, 0
2, 97235, Note_on_c, 0, 65, 0
2, 97236, Note_on_c, 0, 77, 0
2, 97258, Note_on_c, 0, 67, 89
2, 97259, Note_on_c, 0, 79, 104
2, 97260, Note_on_c, 0, 63, 85
2, 97267, Note_on_c, 0, 60, 70
2, 97277, Control_c, 0, 64, 63
2, 97301, Control_c, 0, 64, 127
2, 97304, Note_on_c, 0, 75, 92
2, 97352, Note_on_c, 0, 72, 58
2, 97354, Note_on_c, 0, 67, 0
2, 97357, Note_on_c, 0, 75, 0
2, 97390, Note_on_c, 0, 75, 64
2, 97395, Note_on_c, 0, 79, 0
2, 97408, Note_on_c, 0, 72, 0
2, 97413, Note_on_c, 0, 63, 0
2, 97455, Note_on_c, 0, 75, 0
2, 97467, Note_on_c, 0, 60, 0
2, 97471, Note_on_c, 0, 69, 72
2, 97473, Note_on_c, 0, 65, 66
2, 97481, Note_on_c, 0, 81, 96
2, 97505, Control_c, 0, 64, 63
2, 97540, Control_c, 0, 64, 127
2, 97543, Note_on_c, 0, 77, 74
2, 97589, Note_on_c, 0, 72, 68
2, 97591, Note_on_c, 0, 77, 0
2, 97627, Note_on_c, 0, 81, 0
2, 97634, Note_on_c, 0, 77, 74
2, 97636, Note_on_c, 0, 72, 0
2, 97674, Note_on_c, 0, 81, 97
2, 97677, Note_on_c, 0, 77, 0
2, 97724, Note_on_c, 0, 77, 60
2, 97745, Note_on_c, 0, 81, 0
2, 97748, Note_on_c, 0, 69, 0
2, 97765, Note_on_c, 0, 72, 53
2, 97783, Note_on_c, 0, 77, 0
2, 97818, Note_on_c, 0, 65, 0
2, 97829, Note_on_c, 0, 72, 0
2, 97864, Note_on_c, 0, 63, 78
2, 97866, Note_on_c, 0, 67, 70
2, 97871, Note_on_c, 0, 79, 83
2, 97872, Note_on_c, 0, 60, 60
2, 97878, Control_c, 0, 64, 63
2, 97898, Control_c, 0, 64, 127
2, 97929, Note_on_c, 0, 75, 85
2, 97942, Note_on_c, 0, 79, 0
2, 97944, Note_on_c, 0, 67, 0
2, 97970, Note_on_c, 0, 75, 0
2, 97974, Note_on_c, 0, 72, 56
2, 98007, Note_on_c, 0, 75, 80
2, 98017, Note_on_c, 0, 72, 0
2, 98028, Note_on_c, 0, 63, 0
2, 98047, Note_on_c, 0, 81, 88
2, 98051, Note_on_c, 0, 75, 0
2, 98054, Note_on_c, 0, 60, 0
2, 98056, Note_on_c, 0, 69, 61
2, 98063, Note_on_c, 0, 65, 57
2, 98064, Control_c, 0, 64, 63
2, 98091, Control_c, 0, 64, 127
2, 98107, Note_on_c, 0, 77, 66
2, 98124, Note_on_c, 0, 81, 0
2, 98150, Note_on_c, 0, 72, 53
2, 98152, Note_on_c, 0, 77, 0
2, 98170, Note_on_c, 0, 65, 0
2, 98174, Note_on_c, 0, 69, 0
2, 98189, Note_on_c, 0, 77, 72
2, 98196, Note_on_c, 0, 72, 0
2, 98227, Note_on_c, 0, 77, 0
2, 98267, Note_on_c, 0, 77, 102
2, 98276, Note_on_c, 0, 65, 71
2, 98283, Note_on_c, 0, 62, 72
2, 98312, Control_c, 0, 64, 63
2, 98320, Note_on_c, 0, 74, 68
2, 98321, Control_c, 0, 64, 0
2, 98343, Control_c, 0, 64, 63
2, 98355, Control_c, 0, 64, 127
2, 98379, Note_on_c, 0, 69, 70
2, 98384, Note_on_c, 0, 74, 0
2, 98405, Note_on_c, 0, 77, 0
2, 98422, Note_on_c, 0, 74, 67
2, 98432, Note_on_c, 0, 69, 0
2, 98472, Note_on_c, 0, 77, 104
2, 98475, Note_on_c, 0, 74, 0
2, 98501, Note_on_c, 0, 62, 0
2, 98509, Note_on_c, 0, 74, 68
2, 98530, Note_on_c, 0, 65, 0
2, 98555, Note_on_c, 0, 69, 76
2, 98562, Note_on_c, 0, 74, 0
2, 98586, Note_on_c, 0, 77, 0
2, 98604, Note_on_c, 0, 74, 106
2, 98612, Note_on_c, 0, 69, 0
2, 98683, Note_on_c, 0, 67, 79
2, 98684, Note_on_c, 0, 79, 107
2, 98686, Note_on_c, 0, 57, 62
2, 98686, Note_on_c, 0, 63, 84
2, 98689, Note_on_c, 0, 60, 81
2, 98700, Note_on_c, 0, 74, 0
2, 98745, Note_on_c, 0, 75, 92
2, 98748, Control_c, 0, 64, 63
2, 98759, Control_c, 0, 64, 0
2, 98775, Control_c, 0, 64, 63
2, 98792, Control_c, 0, 64, 127
2, 98802, Note_on_c, 0, 72, 81
2, 98813, Note_on_c, 0, 75, 0
2, 98848, Note_on_c, 0, 75, 83
2, 98857, Note_on_c, 0, 79, 0
2, 98862, Note_on_c, 0, 72, 0
2, 98898, Note_on_c, 0, 79, 96
2, 98910, Note_on_c, 0, 75, 0
2, 98948, Note_on_c, 0, 75, 80
2, 98951, Note_on_c, 0, 67, 0
2, 98976, Note_on_c, 0, 63, 0
2, 98976, Note_on_c, 0, 79, 0
2, 98991, Note_on_c, 0, 72, 61
2, 98992, Note_on_c, 0, 75, 0
2, 99034, Note_on_c, 0, 75, 87
2, 99041, Note_on_c, 0, 72, 0
2, 99057, Note_on_c, 0, 60, 0
2, 99074, Note_on_c, 0, 57, 0
2, 99081, Note_on_c, 0, 77, 90
2, 99084, Note_on_c, 0, 65, 71
2, 99084, Note_on_c, 0, 62, 72
2, 99086, Note_on_c, 0, 75, 0
2, 99108, Control_c, 0, 64, 63
2, 99127, Note_on_c, 0, 74, 74
2, 99146, Control_c, 0, 64, 127
2, 99168, Note_on_c, 0, 77, 0
2, 99179, Note_on_c, 0, 69, 70
2, 99184, Note_on_c, 0, 74, 0
2, 99228, Note_on_c, 0, 74, 69
2, 99230, Note_on_c, 0, 69, 0
2, 99277, Note_on_c, 0, 77, 82
2, 99282, Note_on_c, 0, 74, 0
2, 99320, Note_on_c, 0, 74, 61
2, 99333, Note_on_c, 0, 65, 0
2, 99336, Note_on_c, 0, 62, 0
2, 99342, Note_on_c, 0, 77, 0
2, 99370, Note_on_c, 0, 74, 0
2, 99375, Note_on_c, 0, 69, 53
2, 99416, Note_on_c, 0, 74, 73
2, 99420, Note_on_c, 0, 69, 0
2, 99469, Note_on_c, 0, 74, 0
2, 99474, Note_on_c, 0, 63, 75
2, 99478, Note_on_c, 0, 79, 91
2, 99478, Note_on_c, 0, 67, 60
2, 99482, Control_c, 0, 64, 63
2, 99485, Note_on_c, 0, 60, 66
2, 99486, Note_on_c, 0, 57, 36
2, 99500, Control_c, 0, 64, 0
2, 99506, Control_c, 0, 64, 63
2, 99527, Control_c, 0, 64, 127
2, 99540, Note_on_c, 0, 75, 93
2, 99558, Note_on_c, 0, 79, 0
2, 99580, Note_on_c, 0, 75, 0
2, 99583, Note_on_c, 0, 72, 64
2, 99591, Note_on_c, 0, 67, 0
2, 99592, Note_on_c, 0, 63, 0
2, 99623, Note_on_c, 0, 75, 94
2, 99629, Note_on_c, 0, 72, 0
2, 99640, Note_on_c, 0, 60, 0
2, 99661, Note_on_c, 0, 57, 0
2, 99665, Note_on_c, 0, 77, 102
2, 99669, Note_on_c, 0, 65, 95
2, 99670, Note_on_c, 0, 62, 96
2, 99678, Control_c, 0, 64, 63
2, 99679, Note_on_c, 0, 75, 0
2, 99717, Note_on_c, 0, 74, 98
2, 99720, Control_c, 0, 64, 127
2, 99745, Note_on_c, 0, 77, 0
2, 99765, Note_on_c, 0, 69, 65
2, 99770, Note_on_c, 0, 74, 0
2, 99771, Note_on_c, 0, 62, 0
2, 99782, Note_on_c, 0, 65, 0
2, 99810, Note_on_c, 0, 74, 94
2, 99820, Note_on_c, 0, 69, 0
2, 99865, Note_on_c, 0, 63, 92
2, 99866, Note_on_c, 0, 67, 95
2, 99869, Note_on_c, 0, 79, 102
2, 99870, Note_on_c, 0, 57, 63
2, 99871, Note_on_c, 0, 60, 82
2, 99883, Note_on_c, 0, 74, 0
2, 99900, Control_c, 0, 64, 63
2, 99909, Control_c, 0, 64, 0
2, 99928, Note_on_c, 0, 75, 93
2, 99952, Control_c, 0, 64, 63
2, 99959, Control_c, 0, 64, 127
2, 99978, Note_on_c, 0, 72, 72
2, 99980, Note_on_c, 0, 75, 0
2, 100014, Note_on_c, 0, 75, 90
2, 100029, Note_on_c, 0, 79, 0
2, 100030, Note_on_c, 0, 72, 0
2, 100050, Control_c, 0, 64, 63
2, 100068, Note_on_c, 0, 79, 91
2, 100072, Control_c, 0, 64, 127
2, 100087, Note_on_c, 0, 75, 0
2, 100126, Note_on_c, 0, 75, 61
2, 100146, Note_on_c, 0, 67, 0
2, 100164, Note_on_c, 0, 63, 0
2, 100169, Note_on_c, 0, 72, 51
2, 100170, Note_on_c, 0, 75, 0
2, 100205, Note_on_c, 0, 79, 0
2, 100213, Note_on_c, 0, 75, 86
2, 100218, Note_on_c, 0, 72, 0
2, 100251, Note_on_c, 0, 60, 0
2, 100257, Note_on_c, 0, 57, 0
2, 100261, Note_on_c, 0, 65, 67
2, 100262, Note_on_c, 0, 77, 87
2, 100263, Note_on_c, 0, 62, 74
2, 100271, Note_on_c, 0, 75, 0
2, 100285, Control_c, 0, 64, 63
2, 100311, Note_on_c, 0, 74, 66
2, 100312, Control_c, 0, 64, 127
2, 100364, Note_on_c, 0, 74, 0
2, 100367, Note_on_c, 0, 69, 59
2, 100383, Note_on_c, 0, 62, 0
2, 100386, Note_on_c, 0, 77, 0
2, 100393, Note_on_c, 0, 65, 0
2, 100419, Note_on_c, 0, 74, 63
2, 100421, Note_on_c, 0, 69, 0
2, 100483, Note_on_c, 0, 74, 0
2, 100483, Note_on_c, 0, 79, 84
2, 100484, Note_on_c, 0, 63, 65
2, 100489, Note_on_c, 0, 57, 33
2, 100489, Note_on_c, 0, 67, 39
2, 100499, Note_on_c, 0, 60, 53
2, 100515, Control_c, 0, 64, 63
2, 100529, Control_c, 0, 64, 0
2, 100540, Control_c, 0, 64, 63
2, 100548, Note_on_c, 0, 75, 74
2, 100560, Control_c, 0, 64, 127
2, 100579, Note_on_c, 0, 79, 0
2, 100611, Note_on_c, 0, 72, 48
2, 100616, Note_on_c, 0, 75, 0
2, 100621, Note_on_c, 0, 63, 0
2, 100630, Note_on_c, 0, 67, 0
2, 100634, Note_on_c, 0, 57, 0
2, 100635, Note_on_c, 0, 60, 0
2, 100681, Note_on_c, 0, 75, 72
2, 100705, Note_on_c, 0, 72, 0
2, 100765, Note_on_c, 0, 75, 0
2, 100783, Note_on_c, 0, 62, 89
2, 100859, Control_c, 0, 64, 63
2, 100867, Control_c, 0, 64, 0
2, 101043, Note_on_c, 0, 78, 79
2, 101048, Control_c, 0, 64, 127
2, 101106, Note_on_c, 0, 79, 56
2, 101115, Note_on_c, 0, 78, 0
2, 101147, Note_on_c, 0, 79, 0
2, 101147, Note_on_c, 0, 74, 62
2, 101199, Note_on_c, 0, 70, 81
2, 101204, Note_on_c, 0, 74, 0
2, 101244, Note_on_c, 0, 77, 86
2, 101250, Note_on_c, 0, 70, 0
2, 101299, Note_on_c, 0, 79, 68
2, 101311, Note_on_c, 0, 77, 0
2, 101331, Note_on_c, 0, 74, 64
2, 101342, Note_on_c, 0, 79, 0
2, 101362, Note_on_c, 0, 62, 0
2, 101383, Note_on_c, 0, 70, 88
2, 101395, Note_on_c, 0, 74, 0
2, 101417, Note_on_c, 0, 70, 0
2, 101420, Control_c, 0, 64, 63
2, 101426, Control_c, 0, 64, 0
2, 101435, Note_on_c, 0, 76, 76
2, 101437, Note_on_c, 0, 60, 109
2, 101438, Control_c, 0, 64, 63
2, 101452, Control_c, 0, 64, 127
2, 101475, Note_on_c, 0, 79, 83
2, 101485, Note_on_c, 0, 76, 0
2, 101490, Note_on_c, 0, 60, 0
2, 101531, Note_on_c, 0, 79, 0
2, 101532, Note_on_c, 0, 72, 76
2, 101579, Note_on_c, 0, 72, 0
2, 101582, Note_on_c, 0, 69, 60
2, 101634, Note_on_c, 0, 75, 94
2, 101638, Note_on_c, 0, 69, 0
2, 101684, Note_on_c, 0, 79, 84
2, 101687, Note_on_c, 0, 75, 0
2, 101737, Note_on_c, 0, 79, 0
2, 101747, Note_on_c, 0, 72, 46
2, 101786, Note_on_c, 0, 69, 70
2, 101795, Note_on_c, 0, 72, 0
2, 101842, Note_on_c, 0, 74, 78
2, 101843, Note_on_c, 0, 69, 0
2, 101906, Note_on_c, 0, 74, 0
2, 101906, Note_on_c, 0, 78, 85
2, 101965, Note_on_c, 0, 78, 0
2, 101969, Note_on_c, 0, 72, 60
2, 102030, Note_on_c, 0, 69, 62
2, 102035, Note_on_c, 0, 72, 0
2, 102121, Note_on_c, 0, 58, 93
2, 102128, Note_on_c, 0, 70, 79
2, 102129, Note_on_c, 0, 69, 0
2, 102168, Control_c, 0, 64, 63
2, 102189, Note_on_c, 0, 70, 0
2, 102193, Note_on_c, 0, 74, 68
2, 102198, Control_c, 0, 64, 127
2, 102227, Note_on_c, 0, 60, 107
2, 102247, Note_on_c, 0, 70, 75
2, 102263, Note_on_c, 0, 58, 0
2, 102264, Note_on_c, 0, 74, 0
2, 102312, Note_on_c, 0, 67, 62
2, 102314, Note_on_c, 0, 70, 0
2, 102334, Note_on_c, 0, 62, 114
2, 102344, Control_c, 0, 64, 63
2, 102350, Control_c, 0, 64, 0
2, 102362, Note_on_c, 0, 60, 0
2, 102365, Note_on_c, 0, 69, 65
2, 102370, Note_on_c, 0, 67, 0
2, 102415, Note_on_c, 0, 74, 71
2, 102422, Control_c, 0, 64, 63
2, 102423, Note_on_c, 0, 69, 0
2, 102425, Control_c, 0, 64, 127
2, 102455, Note_on_c, 0, 69, 65
2, 102464, Note_on_c, 0, 74, 0
2, 102510, Note_on_c, 0, 69, 0
2, 102516, Note_on_c, 0, 66, 99
2, 102567, Note_on_c, 0, 68, 95
2, 102570, Note_on_c, 0, 66, 0
2, 102580, Note_on_c, 0, 62, 0
2, 102624, Note_on_c, 0, 74, 77
2, 102626, Note_on_c, 0, 68, 0
2, 102657, Note_on_c, 0, 68, 59
2, 102681, Note_on_c, 0, 74, 0
2, 102711, Note_on_c, 0, 65, 63
2, 102712, Note_on_c, 0, 68, 0
2, 102749, Note_on_c, 0, 50, 79
2, 102761, Note_on_c, 0, 43, 52
2, 102762, Note_on_c, 0, 65, 0
2, 102767, Note_on_c, 0, 67, 65
2, 102809, Note_on_c, 0, 70, 87
2, 102812, Note_on_c, 0, 67, 0
2, 102857, Note_on_c, 0, 70, 0
2, 102862, Note_on_c, 0, 67, 60
2, 102908, Note_on_c, 0, 67, 0
2, 102917, Note_on_c, 0, 64, 68
2, 102942, Note_on_c, 0, 64, 0
2, 102958, Note_on_c, 0, 66, 103
2, 103007, Note_on_c, 0, 66, 0
2, 103023, Note_on_c, 0, 70, 53
2, 103059, Note_on_c, 0, 70, 0
2, 103075, Note_on_c, 0, 66, 38
2, 103104, Note_on_c, 0, 66, 0
2, 103114, Note_on_c, 0, 63, 54
2, 103155, Note_on_c, 0, 63, 0
2, 103161, Note_on_c, 0, 67, 70
2, 103190, Control_c, 0, 64, 63
2, 103215, Note_on_c, 0, 70, 88
2, 103217, Control_c, 0, 64, 127
2, 103222, Note_on_c, 0, 67, 0
2, 103272, Note_on_c, 0, 67, 42
2, 103285, Note_on_c, 0, 70, 0
2, 103289, Note_on_c, 0, 43, 0
2, 103305, Note_on_c, 0, 50, 0
2, 103329, Note_on_c, 0, 62, 64
2, 103342, Note_on_c, 0, 67, 0
2, 103383, Note_on_c, 0, 62, 0
2, 103402, Note_on_c, 0, 55, 96
2, 103456, Control_c, 0, 64, 63
2, 103469, Control_c, 0, 64, 0
2, 103591, Control_c, 0, 64, 63
2, 103604, Control_c, 0, 64, 127
2, 103631, Note_on_c, 0, 73, 105
2, 103713, Note_on_c, 0, 73, 0
2, 103715, Note_on_c, 0, 76, 54
2, 103760, Note_on_c, 0, 70, 81
2, 103764, Note_on_c, 0, 76, 0
2, 103818, Note_on_c, 0, 64, 36
2, 103820, Note_on_c, 0, 70, 0
2, 103858, Note_on_c, 0, 64, 0
2, 103870, Note_on_c, 0, 72, 97
2, 103940, Note_on_c, 0, 72, 0
2, 103949, Note_on_c, 0, 76, 28
2, 103989, Note_on_c, 0, 70, 70
2, 103990, Note_on_c, 0, 76, 0
2, 104043, Note_on_c, 0, 70, 0
2, 104055, Note_on_c, 0, 64, 14
2, 104089, Note_on_c, 0, 64, 0
2, 104106, Note_on_c, 0, 54, 87
2, 104118, Note_on_c, 0, 71, 97
2, 104147, Note_on_c, 0, 55, 0
2, 104150, Control_c, 0, 64, 63
2, 104176, Control_c, 0, 64, 127
2, 104211, Note_on_c, 0, 73, 93
2, 104225, Note_on_c, 0, 71, 0
2, 104272, Note_on_c, 0, 73, 0
2, 104302, Note_on_c, 0, 64, 34
2, 104365, Note_on_c, 0, 70, 89
2, 104377, Note_on_c, 0, 64, 0
2, 104422, Note_on_c, 0, 73, 84
2, 104426, Note_on_c, 0, 70, 0
2, 104465, Note_on_c, 0, 70, 83
2, 104476, Note_on_c, 0, 73, 0
2, 104515, Note_on_c, 0, 70, 0
2, 104520, Note_on_c, 0, 64, 75
2, 104561, Note_on_c, 0, 64, 0
2, 104563, Note_on_c, 0, 69, 86
2, 104611, Note_on_c, 0, 73, 94
2, 104620, Note_on_c, 0, 69, 0
2, 104663, Note_on_c, 0, 69, 57
2, 104677, Note_on_c, 0, 73, 0
2, 104711, Note_on_c, 0, 69, 0
2, 104715, Note_on_c, 0, 54, 0
2, 104720, Note_on_c, 0, 64, 51
2, 104768, Note_on_c, 0, 52, 104
2, 104781, Note_on_c, 0, 64, 0
2, 104784, Note_on_c, 0, 68, 83
2, 104827, Control_c, 0, 64, 63
2, 104874, Control_c, 0, 64, 127
2, 104874, Note_on_c, 0, 54, 100
2, 104877, Note_on_c, 0, 70, 95
2, 104890, Note_on_c, 0, 68, 0
2, 104926, Note_on_c, 0, 52, 0
2, 104930, Note_on_c, 0, 68, 82
2, 104943, Note_on_c, 0, 70, 0
2, 104986, Note_on_c, 0, 68, 0
2, 104989, Note_on_c, 0, 61, 83
2, 104994, Note_on_c, 0, 55, 99
2, 105018, Note_on_c, 0, 54, 0
2, 105021, Note_on_c, 0, 61, 0
2, 105022, Note_on_c, 0, 67, 70
2, 105027, Control_c, 0, 64, 63
2, 105071, Note_on_c, 0, 70, 81
2, 105073, Control_c, 0, 64, 127
2, 105077, Note_on_c, 0, 67, 0
2, 105107, Note_on_c, 0, 67, 70
2, 105118, Note_on_c, 0, 70, 0
2, 105163, Note_on_c, 0, 61, 85
2, 105171, Note_on_c, 0, 67, 0
2, 105211, Note_on_c, 0, 66, 104
2, 105217, Control_c, 0, 64, 63
2, 105221, Note_on_c, 0, 61, 0
2, 105260, Control_c, 0, 64, 127
2, 105263, Note_on_c, 0, 70, 73
2, 105279, Note_on_c, 0, 66, 0
2, 105309, Note_on_c, 0, 66, 74
2, 105323, Note_on_c, 0, 70, 0
2, 105347, Note_on_c, 0, 61, 76
2, 105360, Note_on_c, 0, 66, 0
2, 105406, Note_on_c, 0, 52, 83
2, 105408, Note_on_c, 0, 61, 0
2, 105413, Note_on_c, 0, 64, 81
2, 105414, Note_on_c, 0, 45, 60
2, 105430, Control_c, 0, 64, 63
2, 105438, Control_c, 0, 64, 0
2, 105470, Note_on_c, 0, 70, 81
2, 105482, Control_c, 0, 64, 63
2, 105483, Note_on_c, 0, 64, 0
2, 105491, Control_c, 0, 64, 127
2, 105525, Note_on_c, 0, 64, 50
2, 105529, Note_on_c, 0, 70, 0
2, 105573, Note_on_c, 0, 61, 72
2, 105577, Note_on_c, 0, 64, 0
2, 105629, Note_on_c, 0, 61, 0
2, 105633, Note_on_c, 0, 63, 81
2, 105633, Control_c, 0, 64, 63
2, 105676, Control_c, 0, 64, 127
2, 105677, Note_on_c, 0, 70, 73
2, 105684, Note_on_c, 0, 63, 0
2, 105734, Note_on_c, 0, 63, 64
2, 105735, Note_on_c, 0, 70, 0
2, 105776, Note_on_c, 0, 63, 0
2, 105778, Note_on_c, 0, 61, 65
2, 105811, Note_on_c, 0, 52, 0
2, 105812, Note_on_c, 0, 45, 0
2, 105830, Note_on_c, 0, 61, 0
2, 105837, Note_on_c, 0, 64, 65
2, 105885, Note_on_c, 0, 70, 75
2, 105892, Note_on_c, 0, 64, 0
2, 105902, Note_on_c, 0, 55, 0
2, 105953, Note_on_c, 0, 70, 0
2, 105961, Note_on_c, 0, 64, 14
2, 105980, Note_on_c, 0, 55, 12
2, 106009, Note_on_c, 0, 64, 0
2, 106010, Note_on_c, 0, 61, 56
2, 106098, Control_c, 0, 64, 63
2, 106103, Control_c, 0, 64, 0
2, 106130, Note_on_c, 0, 61, 0
2, 106160, Control_c, 0, 64, 63
2, 106168, Control_c, 0, 64, 127
2, 106183, Note_on_c, 0, 54, 80
2, 106260, Note_on_c, 0, 55, 0
2, 106307, Note_on_c, 0, 63, 73
2, 106313, Note_on_c, 0, 55, 65
2, 106345, Note_on_c, 0, 54, 0
2, 106359, Control_c, 0, 64, 63
2, 106383, Note_on_c, 0, 69, 64
2, 106393, Note_on_c, 0, 63, 0
2, 106393, Control_c, 0, 64, 127
2, 106430, Note_on_c, 0, 63, 60
2, 106442, Note_on_c, 0, 69, 0
2, 106477, Note_on_c, 0, 60, 62
2, 106482, Note_on_c, 0, 63, 0
2, 106527, Note_on_c, 0, 60, 0
2, 106528, Note_on_c, 0, 62, 87
2, 106575, Note_on_c, 0, 69, 72
2, 106580, Note_on_c, 0, 62, 0
2, 106621, Note_on_c, 0, 62, 55
2, 106636, Note_on_c, 0, 69, 0
2, 106670, Note_on_c, 0, 62, 0
2, 106670, Note_on_c, 0, 60, 64
2, 106714, Note_on_c, 0, 48, 62
2, 106731, Note_on_c, 0, 60, 0
2, 106735, Note_on_c, 0, 63, 91
2, 106747, Control_c, 0, 64, 63
2, 106757, Control_c, 0, 64, 0
2, 106771, Control_c, 0, 64, 63
2, 106791, Note_on_c, 0, 63, 0
2, 106791, Control_c, 0, 64, 127
2, 106792, Note_on_c, 0, 69, 59
2, 106831, Note_on_c, 0, 63, 59
2, 106856, Note_on_c, 0, 69, 0
2, 106889, Note_on_c, 0, 63, 0
2, 106891, Note_on_c, 0, 60, 68
2, 106945, Note_on_c, 0, 60, 0
2, 106947, Note_on_c, 0, 62, 73
2, 106966, Control_c, 0, 64, 63
2, 106983, Control_c, 0, 64, 127
2, 107010, Note_on_c, 0, 62, 0
2, 107010, Note_on_c, 0, 69, 67
2, 107071, Note_on_c, 0, 62, 47
2, 107075, Note_on_c, 0, 69, 0
2, 107110, Note_on_c, 0, 62, 0
2, 107118, Note_on_c, 0, 60, 58
2, 107154, Control_c, 0, 64, 63
2, 107168, Note_on_c, 0, 60, 0
2, 107172, Note_on_c, 0, 63, 82
2, 107182, Control_c, 0, 64, 127
2, 107220, Note_on_c, 0, 63, 0
2, 107222, Note_on_c, 0, 69, 58
2, 107265, Note_on_c, 0, 63, 51
2, 107272, Note_on_c, 0, 48, 0
2, 107290, Note_on_c, 0, 69, 0
2, 107338, Note_on_c, 0, 63, 0
2, 107338, Note_on_c, 0, 60, 46
2, 107416, Control_c, 0, 64, 63
2, 107420, Note_on_c, 0, 60, 0
2, 107424, Control_c, 0, 64, 0
2, 107464, Control_c, 0, 64, 63
2, 107473, Control_c, 0, 64, 127
2, 107480, Note_on_c, 0, 54, 76
2, 107537, Note_on_c, 0, 55, 0
2, 107615, Note_on_c, 0, 63, 80
2, 107619, Note_on_c, 0, 55, 59
2, 107632, Control_c, 0, 64, 63
2, 107640, Control_c, 0, 64, 0
2, 107660, Note_on_c, 0, 54, 0
2, 107660, Control_c, 0, 64, 63
2, 107676, Note_on_c, 0, 67, 66
2, 107676, Control_c, 0, 64, 127
2, 107679, Note_on_c, 0, 63, 0
2, 107732, Note_on_c, 0, 63, 63
2, 107735, Note_on_c, 0, 67, 0
2, 107784, Note_on_c, 0, 58, 73
2, 107795, Note_on_c, 0, 63, 0
2, 107842, Note_on_c, 0, 58, 0
2, 107844, Note_on_c, 0, 62, 81
2, 107887, Note_on_c, 0, 62, 0
2, 107887, Note_on_c, 0, 67, 69
2, 107931, Note_on_c, 0, 67, 0
2, 107935, Note_on_c, 0, 62, 50
2, 107977, Note_on_c, 0, 58, 63
2, 107979, Note_on_c, 0, 62, 0
2, 108032, Note_on_c, 0, 49, 49
2, 108040, Control_c, 0, 64, 63
2, 108048, Note_on_c, 0, 63, 69
2, 108076, Note_on_c, 0, 58, 0
2, 108080, Control_c, 0, 64, 127
2, 108099, Note_on_c, 0, 67, 60
2, 108108, Note_on_c, 0, 63, 0
2, 108147, Note_on_c, 0, 63, 58
2, 108158, Note_on_c, 0, 67, 0
2, 108212, Note_on_c, 0, 58, 52
2, 108224, Note_on_c, 0, 63, 0
2, 108275, Note_on_c, 0, 58, 0
2, 108280, Note_on_c, 0, 62, 65
2, 108335, Note_on_c, 0, 62, 0
2, 108336, Note_on_c, 0, 67, 63
2, 108392, Note_on_c, 0, 67, 0
2, 108400, Note_on_c, 0, 62, 36
2, 108452, Note_on_c, 0, 62, 0
2, 108452, Note_on_c, 0, 58, 59
2, 108516, Control_c, 0, 64, 63
2, 108535, Note_on_c, 0, 63, 69
2, 108555, Control_c, 0, 64, 127
2, 108560, Note_on_c, 0, 58, 0
2, 108596, Note_on_c, 0, 63, 0
2, 108597, Note_on_c, 0, 67, 53
2, 108682, Note_on_c, 0, 63, 60
2, 108708, Note_on_c, 0, 49, 0
2, 108730, Note_on_c, 0, 55, 0
2, 108765, Note_on_c, 0, 58, 45
2, 108769, Note_on_c, 0, 67, 0
2, 108780, Note_on_c, 0, 63, 0
2, 108825, Note_on_c, 0, 58, 0
2, 108905, Note_on_c, 0, 55, 18
2, 108912, Note_on_c, 0, 43, 43
2, 108912, Note_on_c, 0, 50, 41
2, 108912, Note_on_c, 0, 58, 37
2, 108915, Note_on_c, 0, 62, 56
2, 108919, Note_on_c, 0, 67, 52
2, 108945, Control_c, 0, 64, 63
2, 108952, Control_c, 0, 64, 0
2, 108998, Control_c, 0, 64, 63
2, 109005, Control_c, 0, 64, 127
2, 109079, Note_on_c, 0, 62, 0
2, 109087, Note_on_c, 0, 58, 0
2, 109109, Note_on_c, 0, 67, 0
2, 109262, Note_on_c, 0, 70, 68
2, 109345, Note_on_c, 0, 70, 0
2, 109346, Note_on_c, 0, 74, 68
2, 109406, Note_on_c, 0, 70, 75
2, 109411, Note_on_c, 0, 74, 0
2, 109456, Note_on_c, 0, 67, 55
2, 109458, Note_on_c, 0, 70, 0
2, 109508, Note_on_c, 0, 70, 74
2, 109514, Note_on_c, 0, 67, 0
2, 109563, Note_on_c, 0, 74, 76
2, 109571, Note_on_c, 0, 70, 0
2, 109622, Note_on_c, 0, 70, 74
2, 109643, Note_on_c, 0, 74, 0
2, 109669, Note_on_c, 0, 67, 65
2, 109677, Note_on_c, 0, 70, 0
2, 109693, Note_on_c, 0, 43, 0
2, 109714, Note_on_c, 0, 50, 0
2, 109721, Note_on_c, 0, 70, 96
2, 109731, Note_on_c, 0, 67, 0
2, 109776, Note_on_c, 0, 74, 92
2, 109791, Note_on_c, 0, 70, 0
2, 109828, Note_on_c, 0, 55, 0
2, 109830, Note_on_c, 0, 70, 89
2, 109851, Note_on_c, 0, 74, 0
2, 109876, Note_on_c, 0, 67, 69
2, 109890, Note_on_c, 0, 70, 0
2, 109936, Note_on_c, 0, 58, 114
2, 109936, Note_on_c, 0, 70, 93
2, 109943, Note_on_c, 0, 67, 0
2, 110001, Note_on_c, 0, 74, 92
2, 110008, Note_on_c, 0, 70, 0
2, 110046, Note_on_c, 0, 70, 85
2, 110064, Note_on_c, 0, 74, 0
2, 110095, Note_on_c, 0, 67, 73
2, 110102, Note_on_c, 0, 70, 0
2, 110150, Note_on_c, 0, 70, 93
2, 110156, Note_on_c, 0, 67, 0
2, 110157, Note_on_c, 0, 62, 114
2, 110214, Note_on_c, 0, 74, 97
2, 110223, Note_on_c, 0, 70, 0
2, 110268, Note_on_c, 0, 70, 102
2, 110288, Note_on_c, 0, 58, 0
2, 110296, Note_on_c, 0, 74, 0
2, 110305, Note_on_c, 0, 62, 0
2, 110313, Note_on_c, 0, 67, 76
2, 110341, Note_on_c, 0, 70, 0
2, 110401, Note_on_c, 0, 63, 118
2, 110402, Note_on_c, 0, 60, 85
2, 110404, Note_on_c, 0, 70, 99
2, 110409, Note_on_c, 0, 58, 82
2, 110412, Note_on_c, 0, 54, 69
2, 110415, Note_on_c, 0, 67, 0
2, 110483, Control_c, 0, 64, 63
2, 110489, Control_c, 0, 64, 0
2, 110495, Note_on_c, 0, 72, 75
2, 110516, Note_on_c, 0, 70, 0
2, 110531, Control_c, 0, 64, 63
2, 110537, Control_c, 0, 64, 127
2, 110566, Note_on_c, 0, 72, 0
2, 110566, Note_on_c, 0, 70, 81
2, 110608, Note_on_c, 0, 58, 0
2, 110608, Note_on_c, 0, 60, 0
2, 110613, Note_on_c, 0, 63, 0
2, 110615, Note_on_c, 0, 70, 0
2, 110619, Note_on_c, 0, 66, 65
2, 110625, Note_on_c, 0, 54, 0
2, 110669, Note_on_c, 0, 70, 65
2, 110670, Note_on_c, 0, 66, 0
2, 110726, Note_on_c, 0, 70, 0
2, 110734, Note_on_c, 0, 72, 70
2, 110787, Note_on_c, 0, 70, 71
2, 110790, Note_on_c, 0, 72, 0
2, 110837, Note_on_c, 0, 70, 0
2, 110839, Note_on_c, 0, 66, 58
2, 110891, Note_on_c, 0, 70, 65
2, 110894, Note_on_c, 0, 66, 0
2, 110955, Note_on_c, 0, 70, 0
2, 110958, Note_on_c, 0, 72, 73
2, 111009, Note_on_c, 0, 70, 66
2, 111012, Note_on_c, 0, 72, 0
2, 111056, Note_on_c, 0, 66, 63
2, 111059, Note_on_c, 0, 70, 0
2, 111104, Note_on_c, 0, 51, 78
2, 111109, Note_on_c, 0, 43, 57
2, 111114, Note_on_c, 0, 70, 72
2, 111117, Note_on_c, 0, 66, 0
2, 111168, Note_on_c, 0, 43, 0
2, 111171, Note_on_c, 0, 70, 0
2, 111178, Note_on_c, 0, 72, 65
2, 111189, Note_on_c, 0, 51, 0
2, 111229, Note_on_c, 0, 70, 58
2, 111232, Note_on_c, 0, 72, 0
2, 111270, Note_on_c, 0, 66, 60
2, 111275, Note_on_c, 0, 70, 0
2, 111333, Note_on_c, 0, 66, 0
2, 111337, Note_on_c, 0, 70, 76
2, 111344, Note_on_c, 0, 63, 111
2, 111413, Note_on_c, 0, 70, 0
2, 111413, Note_on_c, 0, 72, 67
2, 111464, Note_on_c, 0, 70, 90
2, 111477, Note_on_c, 0, 72, 0
2, 111518, Note_on_c, 0, 72, 101
2, 111530, Note_on_c, 0, 70, 0
2, 111547, Note_on_c, 0, 63, 0
2, 111554, Note_on_c, 0, 66, 121
2, 111576, Note_on_c, 0, 70, 94
2, 111596, Note_on_c, 0, 72, 0
2, 111623, Note_on_c, 0, 66, 0
2, 111623, Note_on_c, 0, 72, 88
2, 111637, Note_on_c, 0, 70, 0
2, 111672, Note_on_c, 0, 70, 90
2, 111684, Note_on_c, 0, 72, 0
2, 111713, Note_on_c, 0, 72, 81
2, 111735, Note_on_c, 0, 70, 0
2, 111795, Note_on_c, 0, 66, 115
2, 111797, Note_on_c, 0, 61, 100
2, 111803, Note_on_c, 0, 58, 85
2, 111804, Note_on_c, 0, 70, 95
2, 111804, Note_on_c, 0, 55, 69
2, 111833, Note_on_c, 0, 72, 0
2, 111850, Control_c, 0, 64, 63
2, 111855, Control_c, 0, 64, 0
2, 111887, Control_c, 0, 64, 63
2, 111891, Note_on_c, 0, 75, 96
2, 111895, Control_c, 0, 64, 127
2, 111902, Note_on_c, 0, 70, 0
2, 111938, Note_on_c, 0, 66, 0
2, 111948, Note_on_c, 0, 70, 86
2, 111955, Note_on_c, 0, 75, 0
2, 111970, Note_on_c, 0, 61, 0
2, 111993, Note_on_c, 0, 67, 75
2, 111999, Note_on_c, 0, 70, 0
2, 112036, Note_on_c, 0, 67, 0
2, 112062, Note_on_c, 0, 62, 90
2, 112066, Note_on_c, 0, 67, 98
2, 112073, Note_on_c, 0, 70, 99
2, 112112, Control_c, 0, 64, 63
2, 112116, Control_c, 0, 64, 0
2, 112131, Note_on_c, 0, 74, 80
2, 112140, Note_on_c, 0, 70, 0
2, 112164, Control_c, 0, 64, 63
2, 112168, Control_c, 0, 64, 127
2, 112184, Note_on_c, 0, 70, 86
2, 112196, Note_on_c, 0, 74, 0
2, 112209, Note_on_c, 0, 67, 0
2, 112234, Note_on_c, 0, 70, 0
2, 112237, Note_on_c, 0, 67, 71
2, 112253, Note_on_c, 0, 62, 0
2, 112279, Note_on_c, 0, 67, 0
2, 112281, Note_on_c, 0, 70, 82
2, 112290, Note_on_c, 0, 58, 0
2, 112296, Note_on_c, 0, 55, 0
2, 112334, Note_on_c, 0, 74, 65
2, 112339, Note_on_c, 0, 70, 0
2, 112390, Note_on_c, 0, 70, 70
2, 112401, Note_on_c, 0, 74, 0
2, 112446, Note_on_c, 0, 70, 0
2, 112452, Note_on_c, 0, 67, 44
2, 112506, Note_on_c, 0, 50, 63
2, 112506, Note_on_c, 0, 70, 63
2, 112510, Note_on_c, 0, 43, 68
2, 112514, Note_on_c, 0, 67, 0
2, 112534, Note_on_c, 0, 43, 0
2, 112539, Note_on_c, 0, 50, 0
2, 112575, Note_on_c, 0, 70, 0
2, 112576, Note_on_c, 0, 74, 65
2, 112624, Note_on_c, 0, 70, 72
2, 112626, Note_on_c, 0, 74, 0
2, 112671, Note_on_c, 0, 70, 0
2, 112677, Note_on_c, 0, 67, 46
2, 112723, Note_on_c, 0, 58, 100
2, 112730, Note_on_c, 0, 70, 81
2, 112738, Note_on_c, 0, 67, 0
2, 112785, Note_on_c, 0, 74, 75
2, 112787, Note_on_c, 0, 70, 0
2, 112837, Note_on_c, 0, 70, 90
2, 112865, Note_on_c, 0, 74, 0
2, 112886, Note_on_c, 0, 67, 83
2, 112898, Note_on_c, 0, 70, 0
2, 112931, Note_on_c, 0, 62, 109
2, 112933, Note_on_c, 0, 70, 91
2, 112945, Note_on_c, 0, 67, 0
2, 112975, Note_on_c, 0, 74, 92
2, 112990, Note_on_c, 0, 70, 0
2, 113025, Note_on_c, 0, 58, 0
2, 113029, Note_on_c, 0, 70, 99
2, 113038, Note_on_c, 0, 62, 0
2, 113060, Note_on_c, 0, 74, 0
2, 113068, Note_on_c, 0, 67, 89
2, 113083, Note_on_c, 0, 70, 0
2, 113138, Note_on_c, 0, 63, 114
2, 113142, Note_on_c, 0, 60, 87
2, 113144, Note_on_c, 0, 58, 74
2, 113145, Note_on_c, 0, 70, 100
2, 113146, Note_on_c, 0, 54, 77
2, 113148, Note_on_c, 0, 67, 0
2, 113182, Control_c, 0, 64, 63
2, 113187, Control_c, 0, 64, 0
2, 113198, Note_on_c, 0, 72, 81
2, 113212, Note_on_c, 0, 70, 0
2, 113243, Control_c, 0, 64, 63
2, 113248, Control_c, 0, 64, 127
2, 113260, Note_on_c, 0, 70, 89
2, 113264, Note_on_c, 0, 72, 0
2, 113299, Note_on_c, 0, 70, 0
2, 113305, Note_on_c, 0, 66, 58
2, 113357, Note_on_c, 0, 70, 81
2, 113359, Note_on_c, 0, 66, 0
2, 113400, Control_c, 0, 64, 63
2, 113404, Control_c, 0, 64, 0
2, 113417, Note_on_c, 0, 70, 0
2, 113417, Note_on_c, 0, 72, 70
2, 113426, Control_c, 0, 64, 63
2, 113434, Control_c, 0, 64, 127
2, 113466, Note_on_c, 0, 70, 74
2, 113470, Note_on_c, 0, 72, 0
2, 113509, Note_on_c, 0, 70, 0
2, 113510, Note_on_c, 0, 66, 70
2, 113542, Note_on_c, 0, 63, 0
2, 113545, Note_on_c, 0, 60, 0
2, 113555, Note_on_c, 0, 58, 0
2, 113560, Note_on_c, 0, 66, 0
2, 113561, Note_on_c, 0, 70, 80
2, 113568, Note_on_c, 0, 54, 0
2, 113621, Note_on_c, 0, 70, 0
2, 113624, Note_on_c, 0, 72, 68
2, 113672, Note_on_c, 0, 70, 68
2, 113673, Note_on_c, 0, 72, 0
2, 113716, Note_on_c, 0, 70, 0
2, 113716, Note_on_c, 0, 66, 62
2, 113771, Note_on_c, 0, 51, 70
2, 113772, Note_on_c, 0, 70, 63
2, 113774, Note_on_c, 0, 66, 0
2, 113776, Note_on_c, 0, 43, 61
2, 113813, Note_on_c, 0, 43, 0
2, 113823, Note_on_c, 0, 51, 0
2, 113824, Note_on_c, 0, 70, 0
2, 113836, Note_on_c, 0, 72, 61
2, 113877, Note_on_c, 0, 70, 64
2, 113880, Note_on_c, 0, 72, 0
2, 113922, Note_on_c, 0, 70, 0
2, 113923, Note_on_c, 0, 66, 63
2, 113982, Note_on_c, 0, 66, 0
2, 113990, Note_on_c, 0, 63, 94
2, 113990, Note_on_c, 0, 70, 72
2, 114056, Note_on_c, 0, 70, 0
2, 114056, Note_on_c, 0, 72, 63
2, 114101, Note_on_c, 0, 70, 96
2, 114113, Note_on_c, 0, 72, 0
2, 114146, Note_on_c, 0, 72, 94
2, 114153, Note_on_c, 0, 63, 0
2, 114158, Note_on_c, 0, 70, 0
2, 114196, Note_on_c, 0, 66, 112
2, 114199, Note_on_c, 0, 70, 97
2, 114214, Note_on_c, 0, 72, 0
2, 114246, Note_on_c, 0, 72, 93
2, 114262, Note_on_c, 0, 70, 0
2, 114274, Note_on_c, 0, 66, 0
2, 114304, Note_on_c, 0, 70, 104
2, 114314, Note_on_c, 0, 72, 0
2, 114345, Note_on_c, 0, 72, 97
2, 114367, Note_on_c, 0, 70, 0
2, 114420, Note_on_c, 0, 66, 111
2, 114423, Note_on_c, 0, 61, 95
2, 114427, Note_on_c, 0, 58, 78
2, 114428, Note_on_c, 0, 72, 0
2, 114428, Note_on_c, 0, 55, 66
2, 114435, Note_on_c, 0, 70, 102
2, 114465, Control_c, 0, 64, 63
2, 114469, Control_c, 0, 64, 0
2, 114507, Note_on_c, 0, 75, 93
2, 114507, Control_c, 0, 64, 63
2, 114516, Control_c, 0, 64, 127
2, 114517, Note_on_c, 0, 70, 0
2, 114563, Note_on_c, 0, 75, 0
2, 114566, Note_on_c, 0, 66, 0
2, 114566, Note_on_c, 0, 70, 87
2, 114582, Note_on_c, 0, 61, 0
2, 114608, Note_on_c, 0, 70, 0
2, 114612, Note_on_c, 0, 67, 76
2, 114638, Note_on_c, 0, 67, 0
2, 114684, Note_on_c, 0, 62, 72
2, 114686, Note_on_c, 0, 67, 89
2, 114702, Note_on_c, 0, 70, 93
2, 114729, Control_c, 0, 64, 63
2, 114731, Control_c, 0, 64, 0
2, 114751, Note_on_c, 0, 70, 0
2, 114753, Note_on_c, 0, 74, 68
2, 114770, Control_c, 0, 64, 63
2, 114774, Control_c, 0, 64, 127
2, 114805, Note_on_c, 0, 67, 0
2, 114806, Note_on_c, 0, 70, 85
2, 114817, Note_on_c, 0, 74, 0
2, 114843, Note_on_c, 0, 62, 0
2, 114852, Note_on_c, 0, 70, 0
2, 114861, Note_on_c, 0, 67, 64
2, 114875, Note_on_c, 0, 58, 0
2, 114877, Note_on_c, 0, 55, 0
2, 114901, Note_on_c, 0, 67, 0
2, 114903, Note_on_c, 0, 70, 72
2, 114956, Note_on_c, 0, 70, 0
2, 114959, Note_on_c, 0, 74, 58
2, 115006, Note_on_c, 0, 70, 72
2, 115014, Note_on_c, 0, 74, 0
2, 115052, Note_on_c, 0, 70, 0
2, 115061, Note_on_c, 0, 67, 46
2, 115111, Note_on_c, 0, 70, 72
2, 115118, Note_on_c, 0, 67, 0
2, 115118, Note_on_c, 0, 50, 57
2, 115120, Note_on_c, 0, 43, 46
2, 115161, Note_on_c, 0, 70, 0
2, 115164, Note_on_c, 0, 74, 68
2, 115224, Note_on_c, 0, 70, 69
2, 115228, Note_on_c, 0, 74, 0
2, 115261, Note_on_c, 0, 70, 0
2, 115271, Note_on_c, 0, 67, 47
2, 115310, Note_on_c, 0, 70, 80
2, 115315, Note_on_c, 0, 67, 0
2, 115321, Note_on_c, 0, 43, 0
2, 115336, Note_on_c, 0, 50, 0
2, 115363, Note_on_c, 0, 70, 0
2, 115364, Note_on_c, 0, 74, 72
2, 115419, Note_on_c, 0, 70, 65
2, 115429, Note_on_c, 0, 74, 0
2, 115462, Note_on_c, 0, 70, 0
2, 115470, Note_on_c, 0, 67, 43
2, 115513, Note_on_c, 0, 70, 70
2, 115515, Note_on_c, 0, 67, 0
2, 115569, Note_on_c, 0, 70, 0
2, 115572, Note_on_c, 0, 74, 68
2, 115621, Note_on_c, 0, 70, 73
2, 115631, Note_on_c, 0, 74, 0
2, 115671, Note_on_c, 0, 70, 0
2, 115684, Note_on_c, 0, 67, 46
2, 115734, Note_on_c, 0, 61, 78
2, 115738, Note_on_c, 0, 58, 63
2, 115740, Note_on_c, 0, 55, 53
2, 115743, Note_on_c, 0, 67, 0
2, 115748, Note_on_c, 0, 70, 75
2, 115757, Control_c, 0, 64, 63
2, 115792, Control_c, 0, 64, 127
2, 115800, Note_on_c, 0, 75, 77
2, 115802, Note_on_c, 0, 70, 0
2, 115854, Note_on_c, 0, 70, 65
2, 115861, Note_on_c, 0, 75, 0
2, 115904, Note_on_c, 0, 70, 0
2, 115909, Note_on_c, 0, 67, 57
2, 115933, Control_c, 0, 64, 63
2, 115936, Control_c, 0, 64, 0
2, 115948, Note_on_c, 0, 61, 0
2, 115953, Note_on_c, 0, 62, 79
2, 115964, Note_on_c, 0, 70, 73
2, 115968, Control_c, 0, 64, 63
2, 115970, Note_on_c, 0, 67, 0
2, 115974, Control_c, 0, 64, 127
2, 116014, Note_on_c, 0, 70, 0
2, 116015, Note_on_c, 0, 74, 56
2, 116028, Note_on_c, 0, 62, 0
2, 116039, Note_on_c, 0, 58, 0
2, 116049, Note_on_c, 0, 55, 0
2, 116062, Note_on_c, 0, 70, 75
2, 116069, Note_on_c, 0, 74, 0
2, 116112, Note_on_c, 0, 70, 0
2, 116122, Note_on_c, 0, 67, 41
2, 116176, Note_on_c, 0, 70, 67
2, 116184, Note_on_c, 0, 67, 0
2, 116199, Note_on_c, 0, 43, 56
2, 116200, Note_on_c, 0, 50, 58
2, 116233, Note_on_c, 0, 43, 0
2, 116235, Note_on_c, 0, 70, 0
2, 116236, Note_on_c, 0, 50, 0
2, 116238, Note_on_c, 0, 74, 60
2, 116309, Note_on_c, 0, 70, 58
2, 116315, Note_on_c, 0, 74, 0
2, 116357, Note_on_c, 0, 70, 0
2, 116365, Note_on_c, 0, 67, 26
2, 116418, Note_on_c, 0, 67, 0
2, 116422, Note_on_c, 0, 70, 66
2, 116427, Note_on_c, 0, 61, 59
2, 116431, Note_on_c, 0, 58, 56
2, 116437, Note_on_c, 0, 55, 47
2, 116456, Control_c, 0, 64, 63
2, 116478, Control_c, 0, 64, 127
2, 116486, Note_on_c, 0, 75, 67
2, 116491, Note_on_c, 0, 70, 0
2, 116551, Note_on_c, 0, 70, 69
2, 116562, Note_on_c, 0, 75, 0
2, 116608, Note_on_c, 0, 70, 0
2, 116613, Note_on_c, 0, 67, 54
2, 116646, Note_on_c, 0, 61, 0
2, 116670, Note_on_c, 0, 62, 44
2, 116674, Note_on_c, 0, 70, 75
2, 116681, Note_on_c, 0, 67, 0
2, 116682, Control_c, 0, 64, 63
2, 116702, Control_c, 0, 64, 127
2, 116740, Note_on_c, 0, 74, 62
2, 116741, Note_on_c, 0, 70, 0
2, 116762, Note_on_c, 0, 62, 0
2, 116774, Note_on_c, 0, 58, 0
2, 116786, Note_on_c, 0, 55, 0
2, 116807, Note_on_c, 0, 70, 60
2, 116819, Note_on_c, 0, 74, 0
2, 116880, Note_on_c, 0, 70, 0
2, 116887, Note_on_c, 0, 67, 22
2, 116953, Note_on_c, 0, 70, 59
2, 116955, Note_on_c, 0, 43, 39
2, 116956, Note_on_c, 0, 67, 0
2, 116959, Note_on_c, 0, 50, 31
2, 117033, Note_on_c, 0, 70, 0
2, 117035, Note_on_c, 0, 74, 55
2, 117114, Note_on_c, 0, 70, 68
2, 117122, Note_on_c, 0, 74, 0
2, 117188, Note_on_c, 0, 70, 0
2, 117210, Note_on_c, 0, 67, 32
2, 117283, Note_on_c, 0, 67, 0
2, 117351, Note_on_c, 0, 79, 57
2, 117396, Control_c, 0, 64, 63
2, 117429, Control_c, 0, 64, 127
2, 117505, Note_on_c, 0, 79, 0
2, 117517, Note_on_c, 0, 43, 0
2, 117540, Note_on_c, 0, 50, 0
2, 117617, Note_on_c, 0, 78, 79
2, 117677, Note_on_c, 0, 78, 0
2, 117681, Note_on_c, 0, 79, 67
2, 117716, Control_c, 0, 64, 63
2, 117727, Control_c, 0, 64, 127
2, 117742, Note_on_c, 0, 78, 71
2, 117747, Note_on_c, 0, 79, 0
2, 117782, Note_on_c, 0, 78, 0
2, 117783, Note_on_c, 0, 74, 64
2, 117842, Note_on_c, 0, 74, 0
2, 117850, Note_on_c, 0, 77, 55
2, 117865, Control_c, 0, 64, 63
2, 117881, Control_c, 0, 64, 127
2, 117899, Note_on_c, 0, 79, 78
2, 117903, Note_on_c, 0, 77, 0
2, 117956, Note_on_c, 0, 77, 79
2, 117963, Note_on_c, 0, 79, 0
2, 118001, Note_on_c, 0, 77, 0
2, 118005, Note_on_c, 0, 74, 70
2, 118052, Note_on_c, 0, 74, 0
2, 118059, Note_on_c, 0, 76, 89
2, 118059, Control_c, 0, 64, 63
2, 118062, Note_on_c, 0, 70, 79
2, 118066, Note_on_c, 0, 65, 63
2, 118067, Control_c, 0, 64, 0
2, 118097, Control_c, 0, 64, 63
2, 118101, Note_on_c, 0, 79, 82
2, 118107, Control_c, 0, 64, 127
2, 118112, Note_on_c, 0, 76, 0
2, 118151, Note_on_c, 0, 79, 0
2, 118159, Note_on_c, 0, 76, 72
2, 118220, Note_on_c, 0, 76, 0
2, 118223, Note_on_c, 0, 73, 91
2, 118269, Note_on_c, 0, 73, 0
2, 118272, Note_on_c, 0, 75, 94
2, 118318, Note_on_c, 0, 79, 85
2, 118322, Note_on_c, 0, 75, 0
2, 118370, Note_on_c, 0, 75, 99
2, 118386, Note_on_c, 0, 79, 0
2, 118420, Note_on_c, 0, 75, 0
2, 118421, Note_on_c, 0, 73, 95
2, 118466, Note_on_c, 0, 75, 105
2, 118467, Note_on_c, 0, 73, 0
2, 118521, Note_on_c, 0, 79, 103
2, 118531, Note_on_c, 0, 75, 0
2, 118570, Note_on_c, 0, 75, 96
2, 118580, Note_on_c, 0, 79, 0
2, 118619, Note_on_c, 0, 75, 0
2, 118623, Note_on_c, 0, 74, 90
2, 118701, Note_on_c, 0, 79, 92
2, 118708, Note_on_c, 0, 74, 0
2, 118714, Control_c, 0, 64, 63
2, 118721, Control_c, 0, 64, 0
2, 118740, Control_c, 0, 64, 63
2, 118750, Control_c, 0, 64, 127
2, 118768, Note_on_c, 0, 82, 94
2, 118785, Note_on_c, 0, 79, 0
2, 118822, Note_on_c, 0, 79, 64
2, 118830, Note_on_c, 0, 82, 0
2, 118881, Note_on_c, 0, 79, 0
2, 118882, Note_on_c, 0, 74, 83
2, 118924, Note_on_c, 0, 78, 113
2, 118925, Note_on_c, 0, 74, 0
2, 118973, Note_on_c, 0, 82, 96
2, 118980, Note_on_c, 0, 78, 0
2, 119027, Note_on_c, 0, 82, 0
2, 119030, Note_on_c, 0, 78, 91
2, 119072, Note_on_c, 0, 78, 0
2, 119075, Note_on_c, 0, 74, 90
2, 119107, Note_on_c, 0, 74, 0
2, 119119, Note_on_c, 0, 77, 111
2, 119163, Note_on_c, 0, 82, 113
2, 119175, Note_on_c, 0, 77, 0
2, 119180, Note_on_c, 0, 70, 0
2, 119203, Note_on_c, 0, 65, 0
2, 119211, Note_on_c, 0, 77, 79
2, 119223, Note_on_c, 0, 82, 0
2, 119257, Note_on_c, 0, 74, 85
2, 119262, Note_on_c, 0, 77, 0
2, 119293, Note_on_c, 0, 74, 0
2, 119307, Note_on_c, 0, 76, 112
2, 119308, Note_on_c, 0, 67, 98
2, 119309, Note_on_c, 0, 70, 104
2, 119314, Control_c, 0, 64, 63
2, 119318, Control_c, 0, 64, 0
2, 119351, Note_on_c, 0, 82, 108
2, 119355, Control_c, 0, 64, 63
2, 119361, Note_on_c, 0, 76, 0
2, 119361, Control_c, 0, 64, 127
2, 119408, Note_on_c, 0, 76, 71
2, 119412, Note_on_c, 0, 82, 0
2, 119457, Note_on_c, 0, 73, 105
2, 119458, Note_on_c, 0, 76, 0
2, 119495, Note_on_c, 0, 73, 0
2, 119510, Note_on_c, 0, 75, 115
2, 119552, Note_on_c, 0, 82, 109
2, 119565, Note_on_c, 0, 75, 0
2, 119610, Note_on_c, 0, 75, 111
2, 119626, Note_on_c, 0, 82, 0
2, 119648, Note_on_c, 0, 73, 97
2, 119658, Note_on_c, 0, 75, 0
2, 119693, Note_on_c, 0, 73, 0
2, 119696, Control_c, 0, 64, 63
2, 119702, Control_c, 0, 64, 0
2, 119706, Note_on_c, 0, 75, 114
2, 119735, Control_c, 0, 64, 63
2, 119743, Control_c, 0, 64, 127
2, 119755, Note_on_c, 0, 82, 115
2, 119773, Note_on_c, 0, 75, 0
2, 119807, Note_on_c, 0, 75, 97
2, 119832, Note_on_c, 0, 67, 0
2, 119842, Note_on_c, 0, 82, 0
2, 119856, Note_on_c, 0, 74, 93
2, 119859, Note_on_c, 0, 70, 0
2, 119859, Note_on_c, 0, 75, 0
2, 119892, Note_on_c, 0, 74, 0
2, 119960, Note_on_c, 0, 73, 114
2, 119960, Note_on_c, 0, 82, 112
2, 119962, Note_on_c, 0, 66, 104
2, 119995, Control_c, 0, 64, 63
2, 120000, Control_c, 0, 64, 0
2, 120031, Note_on_c, 0, 85, 89
2, 120046, Control_c, 0, 64, 63
2, 120048, Note_on_c, 0, 82, 0
2, 120050, Control_c, 0, 64, 127
2, 120096, Note_on_c, 0, 82, 85
2, 120100, Note_on_c, 0, 85, 0
2, 120142, Note_on_c, 0, 78, 85
2, 120145, Note_on_c, 0, 82, 0
2, 120197, Note_on_c, 0, 82, 95
2, 120198, Note_on_c, 0, 78, 0
2, 120238, Note_on_c, 0, 85, 100
2, 120254, Note_on_c, 0, 82, 0
2, 120286, Note_on_c, 0, 82, 83
2, 120302, Note_on_c, 0, 85, 0
2, 120305, Note_on_c, 0, 73, 0
2, 120333, Note_on_c, 0, 78, 96
2, 120341, Note_on_c, 0, 82, 0
2, 120371, Note_on_c, 0, 66, 0
2, 120372, Note_on_c, 0, 78, 0
2, 120394, Note_on_c, 0, 74, 109
2, 120396, Note_on_c, 0, 81, 96
2, 120399, Note_on_c, 0, 69, 93
2, 120399, Control_c, 0, 64, 63
2, 120405, Control_c, 0, 64, 0
2, 120427, Control_c, 0, 64, 63
2, 120435, Control_c, 0, 64, 127
2, 120446, Note_on_c, 0, 84, 92
2, 120451, Note_on_c, 0, 81, 0
2, 120486, Note_on_c, 0, 81, 89
2, 120506, Note_on_c, 0, 84, 0
2, 120507, Note_on_c, 0, 69, 0
2, 120532, Note_on_c, 0, 81, 0
2, 120535, Note_on_c, 0, 78, 87
2, 120552, Note_on_c, 0, 74, 0
2, 120574, Note_on_c, 0, 78, 0
2, 120583, Control_c, 0, 64, 63
2, 120588, Note_on_c, 0, 73, 114
2, 120589, Control_c, 0, 64, 0
2, 120591, Note_on_c, 0, 66, 104
2, 120599, Note_on_c, 0, 82, 108
2, 120619, Control_c, 0, 64, 63
2, 120623, Control_c, 0, 64, 127
2, 120641, Note_on_c, 0, 82, 0
2, 120654, Note_on_c, 0, 85, 97
2, 120690, Note_on_c, 0, 82, 96
2, 120705, Note_on_c, 0, 85, 0
2, 120711, Note_on_c, 0, 66, 0
2, 120734, Note_on_c, 0, 73, 0
2, 120735, Note_on_c, 0, 78, 95
2, 120738, Note_on_c, 0, 82, 0
2, 120769, Note_on_c, 0, 78, 0
2, 120786, Note_on_c, 0, 69, 106
2, 120788, Note_on_c, 0, 74, 106
2, 120795, Note_on_c, 0, 81, 95
2, 120798, Control_c, 0, 64, 63
2, 120808, Control_c, 0, 64, 0
2, 120813, Control_c, 0, 64, 63
2, 120825, Control_c, 0, 64, 127
2, 120844, Note_on_c, 0, 84, 101
2, 120851, Note_on_c, 0, 81, 0
2, 120877, Note_on_c, 0, 74, 0
2, 120893, Note_on_c, 0, 81, 85
2, 120897, Note_on_c, 0, 69, 0
2, 120911, Note_on_c, 0, 84, 0
2, 120940, Note_on_c, 0, 81, 0
2, 120940, Note_on_c, 0, 78, 89
2, 120976, Note_on_c, 0, 78, 0
2, 120978, Control_c, 0, 64, 63
2, 120985, Control_c, 0, 64, 0
2, 120986, Note_on_c, 0, 73, 117
2, 120986, Note_on_c, 0, 66, 113
2, 120991, Note_on_c, 0, 82, 111
2, 121000, Control_c, 0, 64, 63
2, 121009, Control_c, 0, 64, 127
2, 121036, Note_on_c, 0, 85, 105
2, 121041, Note_on_c, 0, 82, 0
2, 121055, Note_on_c, 0, 66, 0
2, 121069, Note_on_c, 0, 73, 0
2, 121088, Note_on_c, 0, 82, 103
2, 121101, Note_on_c, 0, 85, 0
2, 121124, Note_on_c, 0, 78, 96
2, 121129, Note_on_c, 0, 82, 0
2, 121169, Note_on_c, 0, 78, 0
2, 121212, Note_on_c, 0, 76, 104
2, 121212, Note_on_c, 0, 69, 95
2, 121219, Note_on_c, 0, 85, 104
2, 121234, Control_c, 0, 64, 63
2, 121242, Control_c, 0, 64, 0
2, 121278, Control_c, 0, 64, 63
2, 121284, Note_on_c, 0, 88, 95
2, 121285, Control_c, 0, 64, 127
2, 121294, Note_on_c, 0, 85, 0
2, 121338, Note_on_c, 0, 85, 99
2, 121355, Note_on_c, 0, 88, 0
2, 121371, Note_on_c, 0, 81, 88
2, 121386, Note_on_c, 0, 85, 0
2, 121419, Note_on_c, 0, 85, 103
2, 121430, Note_on_c, 0, 81, 0
2, 121466, Note_on_c, 0, 88, 107
2, 121482, Note_on_c, 0, 85, 0
2, 121482, Note_on_c, 0, 76, 0
2, 121488, Note_on_c, 0, 69, 0
2, 121512, Note_on_c, 0, 85, 100
2, 121539, Note_on_c, 0, 88, 0
2, 121558, Note_on_c, 0, 81, 93
2, 121568, Note_on_c, 0, 85, 0
2, 121602, Note_on_c, 0, 81, 0
2, 121610, Note_on_c, 0, 78, 111
2, 121610, Note_on_c, 0, 73, 103
2, 121613, Note_on_c, 0, 84, 108
2, 121640, Control_c, 0, 64, 63
2, 121663, Note_on_c, 0, 87, 109
2, 121672, Note_on_c, 0, 84, 0
2, 121673, Control_c, 0, 64, 127
2, 121696, Note_on_c, 0, 78, 0
2, 121703, Note_on_c, 0, 84, 86
2, 121729, Note_on_c, 0, 87, 0
2, 121747, Note_on_c, 0, 81, 91
2, 121762, Note_on_c, 0, 84, 0
2, 121767, Note_on_c, 0, 73, 0
2, 121791, Note_on_c, 0, 76, 113
2, 121794, Note_on_c, 0, 69, 101
2, 121800, Note_on_c, 0, 85, 112
2, 121803, Note_on_c, 0, 81, 0
2, 121809, Control_c, 0, 64, 63
2, 121836, Control_c, 0, 64, 127
2, 121845, Note_on_c, 0, 88, 98
2, 121857, Note_on_c, 0, 85, 0
2, 121868, Note_on_c, 0, 76, 0
2, 121873, Note_on_c, 0, 69, 0
2, 121888, Note_on_c, 0, 85, 90
2, 121910, Note_on_c, 0, 88, 0
2, 121931, Note_on_c, 0, 81, 83
2, 121939, Note_on_c, 0, 85, 0
2, 121978, Note_on_c, 0, 81, 0
2, 121981, Control_c, 0, 64, 63
2, 121987, Control_c, 0, 64, 0
2, 121992, Note_on_c, 0, 84, 97
2, 121994, Note_on_c, 0, 78, 115
2, 121995, Note_on_c, 0, 73, 105
2, 121996, Control_c, 0, 64, 63
2, 122004, Control_c, 0, 64, 127
2, 122042, Note_on_c, 0, 87, 104
2, 122055, Note_on_c, 0, 84, 0
2, 122077, Note_on_c, 0, 78, 0
2, 122083, Note_on_c, 0, 73, 0
2, 122098, Note_on_c, 0, 84, 88
2, 122113, Note_on_c, 0, 87, 0
2, 122137, Note_on_c, 0, 81, 82
2, 122149, Note_on_c, 0, 84, 0
2, 122195, Note_on_c, 0, 81, 0
2, 122197, Note_on_c, 0, 76, 113
2, 122199, Note_on_c, 0, 69, 99
2, 122202, Note_on_c, 0, 85, 112
2, 122208, Control_c, 0, 67, 127
2, 122226, Control_c, 0, 64, 63
2, 122230, Control_c, 0, 64, 0
2, 122249, Note_on_c, 0, 88, 93
2, 122260, Note_on_c, 0, 85, 0
2, 122264, Control_c, 0, 64, 63
2, 122268, Control_c, 0, 64, 127
2, 122295, Note_on_c, 0, 85, 92
2, 122299, Note_on_c, 0, 69, 0
2, 122308, Note_on_c, 0, 76, 0
2, 122318, Note_on_c, 0, 88, 0
2, 122350, Note_on_c, 0, 85, 0
2, 122353, Note_on_c, 0, 81, 91
2, 122377, Control_c, 0, 67, 0
2, 122416, Note_on_c, 0, 81, 0
2, 122453, Note_on_c, 0, 68, 66
2, 122456, Note_on_c, 0, 75, 85
2, 122460, Note_on_c, 0, 80, 85
2, 122462, Note_on_c, 0, 87, 101
2, 122465, Note_on_c, 0, 72, 76
2, 122481, Control_c, 0, 64, 63
2, 122488, Control_c, 0, 64, 0
2, 122526, Control_c, 0, 64, 63
2, 122530, Control_c, 0, 64, 127
2, 122552, Note_on_c, 0, 89, 79
2, 122565, Note_on_c, 0, 87, 0
2, 122612, Note_on_c, 0, 87, 94
2, 122638, Note_on_c, 0, 89, 0
2, 122663, Note_on_c, 0, 84, 77
2, 122665, Note_on_c, 0, 87, 0
2, 122714, Note_on_c, 0, 87, 101
2, 122720, Note_on_c, 0, 84, 0
2, 122764, Note_on_c, 0, 89, 90
2, 122772, Note_on_c, 0, 87, 0
2, 122814, Note_on_c, 0, 87, 104
2, 122843, Note_on_c, 0, 89, 0
2, 122861, Note_on_c, 0, 84, 83
2, 122864, Note_on_c, 0, 87, 0
2, 122907, Note_on_c, 0, 87, 114
2, 122908, Note_on_c, 0, 84, 0
2, 122956, Note_on_c, 0, 89, 101
2, 122968, Note_on_c, 0, 72, 0
2, 122970, Note_on_c, 0, 68, 0
2, 122971, Note_on_c, 0, 87, 0
2, 122982, Note_on_c, 0, 75, 0
2, 122988, Note_on_c, 0, 80, 0
2, 123009, Note_on_c, 0, 87, 103
2, 123033, Note_on_c, 0, 89, 0
2, 123050, Note_on_c, 0, 84, 87
2, 123066, Note_on_c, 0, 87, 0
2, 123098, Note_on_c, 0, 84, 0
2, 123113, Note_on_c, 0, 81, 97
2, 123113, Note_on_c, 0, 78, 93
2, 123115, Note_on_c, 0, 72, 89
2, 123116, Control_c, 0, 64, 63
2, 123117, Note_on_c, 0, 86, 106
2, 123119, Note_on_c, 0, 74, 83
2, 123126, Control_c, 0, 64, 0
2, 123140, Control_c, 0, 64, 63
2, 123153, Control_c, 0, 64, 127
2, 123170, Note_on_c, 0, 87, 105
2, 123174, Note_on_c, 0, 86, 0
2, 123192, Note_on_c, 0, 74, 0
2, 123192, Note_on_c, 0, 81, 0
2, 123197, Note_on_c, 0, 78, 0
2, 123203, Note_on_c, 0, 72, 0
2, 123217, Note_on_c, 0, 86, 95
2, 123238, Note_on_c, 0, 87, 0
2, 123268, Note_on_c, 0, 84, 81
2, 123272, Note_on_c, 0, 86, 0
2, 123320, Control_c, 0, 64, 63
2, 123321, Note_on_c, 0, 84, 0
2, 123321, Note_on_c, 0, 80, 108
2, 123321, Note_on_c, 0, 68, 87
2, 123322, Note_on_c, 0, 75, 99
2, 123323, Note_on_c, 0, 72, 89
2, 123326, Note_on_c, 0, 87, 97
2, 123351, Control_c, 0, 64, 127
2, 123377, Note_on_c, 0, 89, 90
2, 123387, Note_on_c, 0, 87, 0
2, 123400, Note_on_c, 0, 72, 0
2, 123403, Note_on_c, 0, 68, 0
2, 123411, Note_on_c, 0, 75, 0
2, 123424, Note_on_c, 0, 80, 0
2, 123424, Note_on_c, 0, 87, 85
2, 123447, Note_on_c, 0, 89, 0
2, 123470, Note_on_c, 0, 84, 79
2, 123479, Note_on_c, 0, 87, 0
2, 123506, Note_on_c, 0, 84, 0
2, 123510, Note_on_c, 0, 78, 100
2, 123510, Note_on_c, 0, 72, 93
2, 123511, Note_on_c, 0, 81, 107
2, 123514, Note_on_c, 0, 74, 92
2, 123518, Control_c, 0, 64, 63
2, 123520, Note_on_c, 0, 86, 109
2, 123544, Control_c, 0, 64, 127
2, 123571, Note_on_c, 0, 87, 115
2, 123585, Note_on_c, 0, 86, 0
2, 123598, Note_on_c, 0, 74, 0
2, 123605, Note_on_c, 0, 78, 0
2, 123608, Note_on_c, 0, 72, 0
2, 123609, Note_on_c, 0, 81, 0
2, 123622, Note_on_c, 0, 86, 106
2, 123646, Note_on_c, 0, 87, 0
2, 123666, Note_on_c, 0, 84, 84
2, 123675, Note_on_c, 0, 86, 0
2, 123707, Note_on_c, 0, 84, 0
2, 123717, Note_on_c, 0, 70, 87
2, 123718, Note_on_c, 0, 77, 101
2, 123719, Note_on_c, 0, 82, 118
2, 123720, Note_on_c, 0, 74, 84
2, 123723, Note_on_c, 0, 86, 113
2, 123727, Control_c, 0, 64, 63
2, 123757, Control_c, 0, 64, 127
2, 123779, Note_on_c, 0, 89, 109
2, 123785, Note_on_c, 0, 86, 0
2, 123816, Note_on_c, 0, 82, 0
2, 123820, Note_on_c, 0, 70, 0
2, 123820, Note_on_c, 0, 77, 0
2, 123826, Note_on_c, 0, 74, 0
2, 123829, Note_on_c, 0, 86, 102
2, 123847, Note_on_c, 0, 89, 0
2, 123869, Note_on_c, 0, 84, 96
2, 123878, Note_on_c, 0, 86, 0
2, 123913, Note_on_c, 0, 84, 0
2, 123919, Control_c, 0, 64, 63
2, 123920, Note_on_c, 0, 81, 108
2, 123921, Note_on_c, 0, 86, 108
2, 123921, Note_on_c, 0, 78, 103
2, 123922, Note_on_c, 0, 72, 90
2, 123924, Note_on_c, 0, 74, 79
2, 123931, Control_c, 0, 64, 0
2, 123939, Control_c, 0, 64, 63
2, 123952, Control_c, 0, 64, 127
2, 123976, Note_on_c, 0, 87, 111
2, 123988, Note_on_c, 0, 86, 0
2, 124015, Note_on_c, 0, 72, 0
2, 124018, Note_on_c, 0, 74, 0
2, 124021, Note_on_c, 0, 81, 0
2, 124022, Note_on_c, 0, 78, 0
2, 124023, Note_on_c, 0, 86, 86
2, 124043, Note_on_c, 0, 87, 0
2, 124071, Note_on_c, 0, 84, 93
2, 124077, Note_on_c, 0, 86, 0
2, 124114, Control_c, 0, 64, 63
2, 124116, Note_on_c, 0, 84, 0
2, 124119, Note_on_c, 0, 78, 104
2, 124120, Note_on_c, 0, 86, 109
2, 124120, Note_on_c, 0, 70, 87
2, 124120, Note_on_c, 0, 82, 117
2, 124121, Note_on_c, 0, 74, 81
2, 124145, Control_c, 0, 64, 127
2, 124174, Note_on_c, 0, 89, 112
2, 124188, Note_on_c, 0, 86, 0
2, 124195, Note_on_c, 0, 82, 0
2, 124195, Note_on_c, 0, 78, 0
2, 124203, Note_on_c, 0, 70, 0
2, 124213, Note_on_c, 0, 74, 0
2, 124223, Note_on_c, 0, 86, 106
2, 124250, Note_on_c, 0, 89, 0
2, 124276, Note_on_c, 0, 84, 103
2, 124288, Note_on_c, 0, 86, 0
2, 124327, Note_on_c, 0, 84, 0
2, 124328, Note_on_c, 0, 78, 106
2, 124329, Note_on_c, 0, 74, 81
2, 124329, Note_on_c, 0, 81, 111
2, 124332, Note_on_c, 0, 86, 112
2, 124332, Note_on_c, 0, 72, 83
2, 124337, Control_c, 0, 64, 63
2, 124345, Control_c, 0, 64, 0
2, 124363, Control_c, 0, 64, 63
2, 124373, Control_c, 0, 64, 127
2, 124388, Note_on_c, 0, 87, 117
2, 124404, Note_on_c, 0, 86, 0
2, 124438, Note_on_c, 0, 86, 106
2, 124450, Note_on_c, 0, 72, 0
2, 124454, Note_on_c, 0, 81, 0
2, 124459, Note_on_c, 0, 74, 0
2, 124464, Note_on_c, 0, 78, 0
2, 124469, Note_on_c, 0, 87, 0
2, 124491, Note_on_c, 0, 84, 105
2, 124517, Note_on_c, 0, 86, 0
2, 124553, Note_on_c, 0, 84, 0
2, 124553, Note_on_c, 0, 78, 104
2, 124553, Note_on_c, 0, 70, 93
2, 124554, Note_on_c, 0, 82, 118
2, 124555, Note_on_c, 0, 86, 114
2, 124556, Note_on_c, 0, 74, 82
2, 124562, Control_c, 0, 64, 63
2, 124570, Control_c, 0, 64, 0
2, 124595, Control_c, 0, 64, 63
2, 124604, Control_c, 0, 64, 127
2, 124615, Note_on_c, 0, 89, 109
2, 124631, Note_on_c, 0, 86, 0
2, 124660, Note_on_c, 0, 82, 0
2, 124665, Note_on_c, 0, 78, 0
2, 124674, Note_on_c, 0, 86, 111
2, 124675, Note_on_c, 0, 70, 0
2, 124676, Note_on_c, 0, 74, 0
2, 124703, Note_on_c, 0, 89, 0
2, 124728, Note_on_c, 0, 84, 106
2, 124750, Note_on_c, 0, 86, 0
2, 124794, Note_on_c, 0, 78, 102
2, 124796, Note_on_c, 0, 86, 114
2, 124796, Note_on_c, 0, 81, 109
2, 124798, Note_on_c, 0, 72, 84
2, 124798, Note_on_c, 0, 74, 84
2, 124810, Control_c, 0, 64, 63
2, 124812, Note_on_c, 0, 84, 0
2, 124818, Control_c, 0, 64, 0
2, 124844, Control_c, 0, 64, 63
2, 124853, Control_c, 0, 64, 127
2, 124869, Note_on_c, 0, 87, 113
2, 124886, Note_on_c, 0, 86, 0
2, 124943, Note_on_c, 0, 81, 0
2, 124946, Note_on_c, 0, 86, 113
2, 124947, Note_on_c, 0, 78, 0
2, 124962, Note_on_c, 0, 74, 0
2, 124972, Note_on_c, 0, 72, 0
2, 124978, Note_on_c, 0, 87, 0
2, 125033, Note_on_c, 0, 84, 106
2, 125057, Note_on_c, 0, 86, 0
2, 125169, Control_c, 0, 64, 63
2, 125175, Note_on_c, 0, 84, 0
2, 125175, Note_on_c, 0, 79, 81
2, 125176, Note_on_c, 0, 70, 80
2, 125176, Control_c, 0, 64, 0
2, 125176, Note_on_c, 0, 67, 70
2, 125177, Note_on_c, 0, 91, 112
2, 125177, Note_on_c, 0, 74, 84
2, 125216, Control_c, 0, 64, 63
2, 125222, Control_c, 0, 64, 127
2, 125245, Note_on_c, 0, 79, 0
2, 125260, Note_on_c, 0, 74, 0
2, 125275, Note_on_c, 0, 67, 0
2, 125282, Note_on_c, 0, 70, 0
2, 125350, Note_on_c, 0, 91, 0
2, 125367, Control_c, 0, 67, 127
2, 125464, Note_on_c, 0, 90, 80
2, 125491, Control_c, 0, 64, 63
2, 125494, Control_c, 0, 64, 127
2, 125538, Note_on_c, 0, 91, 70
2, 125543, Note_on_c, 0, 90, 0
2, 125595, Note_on_c, 0, 86, 59
2, 125596, Note_on_c, 0, 91, 0
2, 125643, Note_on_c, 0, 82, 60
2, 125646, Note_on_c, 0, 86, 0
2, 125699, Note_on_c, 0, 89, 68
2, 125707, Note_on_c, 0, 82, 0
2, 125757, Note_on_c, 0, 91, 73
2, 125773, Note_on_c, 0, 89, 0
2, 125811, Note_on_c, 0, 86, 67
2, 125820, Note_on_c, 0, 91, 0
2, 125862, Note_on_c, 0, 82, 75
2, 125869, Note_on_c, 0, 86, 0
2, 125906, Note_on_c, 0, 82, 0
2, 125912, Note_on_c, 0, 71, 67
2, 125918, Note_on_c, 0, 77, 57
2, 125919, Note_on_c, 0, 67, 59
2, 125921, Note_on_c, 0, 88, 83
2, 125940, Control_c, 0, 64, 63
2, 125960, Control_c, 0, 64, 127
2, 125968, Note_on_c, 0, 83, 73
2, 125989, Note_on_c, 0, 88, 0
2, 126026, Note_on_c, 0, 88, 83
2, 126046, Note_on_c, 0, 83, 0
2, 126077, Note_on_c, 0, 91, 77
2, 126093, Note_on_c, 0, 88, 0
2, 126130, Note_on_c, 0, 87, 98
2, 126139, Note_on_c, 0, 91, 0
2, 126181, Note_on_c, 0, 83, 80
2, 126190, Note_on_c, 0, 87, 0
2, 126240, Note_on_c, 0, 87, 96
2, 126263, Note_on_c, 0, 83, 0
2, 126270, Note_on_c, 0, 77, 0
2, 126286, Note_on_c, 0, 91, 81
2, 126291, Note_on_c, 0, 71, 0
2, 126305, Note_on_c, 0, 87, 0
2, 126305, Note_on_c, 0, 67, 0
2, 126347, Note_on_c, 0, 86, 98
2, 126370, Note_on_c, 0, 91, 0
2, 126395, Note_on_c, 0, 83, 81
2, 126409, Note_on_c, 0, 86, 0
2, 126420, Note_on_c, 0, 55, 80
2, 126444, Control_c, 0, 64, 63
2, 126459, Control_c, 0, 64, 127
2, 126460, Note_on_c, 0, 86, 80
2, 126472, Note_on_c, 0, 55, 0
2, 126476, Note_on_c, 0, 65, 77
2, 126501, Note_on_c, 0, 83, 0
2, 126516, Note_on_c, 0, 65, 0
2, 126516, Note_on_c, 0, 91, 81
2, 126519, Note_on_c, 0, 86, 0
2, 126534, Note_on_c, 0, 70, 67
2, 126554, Note_on_c, 0, 70, 0
2, 126592, Note_on_c, 0, 73, 113
2, 126594, Note_on_c, 0, 91, 0
2, 126602, Note_on_c, 0, 85, 88
2, 126616, Note_on_c, 0, 73, 0
2, 126654, Note_on_c, 0, 85, 0
2, 126658, Note_on_c, 0, 82, 68
2, 126719, Note_on_c, 0, 82, 0
2, 126719, Note_on_c, 0, 85, 75
2, 126767, Note_on_c, 0, 89, 68
2, 126770, Note_on_c, 0, 85, 0
2, 126826, Note_on_c, 0, 84, 98
2, 126828, Note_on_c, 0, 89, 0
2, 126876, Note_on_c, 0, 84, 0
2, 126877, Note_on_c, 0, 81, 65
2, 126930, Note_on_c, 0, 81, 0
2, 126934, Note_on_c, 0, 84, 65
2, 126983, Note_on_c, 0, 84, 0
2, 126994, Note_on_c, 0, 89, 80
2, 127045, Note_on_c, 0, 83, 90
2, 127048, Note_on_c, 0, 89, 0
2, 127094, Note_on_c, 0, 83, 0
2, 127094, Note_on_c, 0, 80, 88
2, 127141, Note_on_c, 0, 80, 0
2, 127150, Note_on_c, 0, 83, 69
2, 127200, Note_on_c, 0, 83, 0
2, 127203, Note_on_c, 0, 89, 76
2, 127256, Note_on_c, 0, 89, 0
2, 127257, Note_on_c, 0, 73, 92
2, 127259, Note_on_c, 0, 82, 95
2, 127266, Note_on_c, 0, 64, 77
2, 127267, Control_c, 0, 64, 63
2, 127273, Control_c, 0, 64, 0
2, 127287, Control_c, 0, 64, 63
2, 127303, Control_c, 0, 64, 127
2, 127309, Note_on_c, 0, 81, 71
2, 127311, Note_on_c, 0, 82, 0
2, 127363, Note_on_c, 0, 81, 0
2, 127373, Note_on_c, 0, 82, 90
2, 127421, Note_on_c, 0, 82, 0
2, 127421, Note_on_c, 0, 85, 85
2, 127423, Note_on_c, 0, 73, 0
2, 127469, Note_on_c, 0, 72, 99
2, 127477, Note_on_c, 0, 81, 90
2, 127480, Note_on_c, 0, 85, 0
2, 127480, Control_c, 0, 64, 63
2, 127498, Control_c, 0, 64, 127
2, 127527, Note_on_c, 0, 80, 92
2, 127532, Note_on_c, 0, 81, 0
2, 127582, Note_on_c, 0, 80, 0
2, 127583, Note_on_c, 0, 81, 81
2, 127600, Note_on_c, 0, 72, 0
2, 127632, Note_on_c, 0, 84, 101
2, 127640, Note_on_c, 0, 81, 0
2, 127657, Note_on_c, 0, 64, 0
2, 127689, Note_on_c, 0, 71, 99
2, 127692, Note_on_c, 0, 80, 101
2, 127701, Note_on_c, 0, 63, 88
2, 127706, Note_on_c, 0, 84, 0
2, 127717, Control_c, 0, 64, 63
2, 127738, Control_c, 0, 64, 127
2, 127744, Note_on_c, 0, 79, 76
2, 127746, Note_on_c, 0, 80, 0
2, 127763, Note_on_c, 0, 63, 0
2, 127777, Note_on_c, 0, 71, 0
2, 127795, Note_on_c, 0, 80, 99
2, 127811, Note_on_c, 0, 79, 0
2, 127829, Note_on_c, 0, 55, 72
2, 127848, Note_on_c, 0, 83, 91
2, 127857, Note_on_c, 0, 80, 0
2, 127861, Note_on_c, 0, 62, 81
2, 127879, Note_on_c, 0, 55, 0
2, 127925, Note_on_c, 0, 70, 98
2, 127933, Note_on_c, 0, 79, 69
2, 127936, Note_on_c, 0, 83, 0
2, 127976, Control_c, 0, 64, 63
2, 127988, Note_on_c, 0, 78, 90
2, 127996, Control_c, 0, 64, 127
2, 127999, Note_on_c, 0, 79, 0
2, 128045, Note_on_c, 0, 79, 76
2, 128047, Note_on_c, 0, 78, 0
2, 128095, Note_on_c, 0, 79, 0
2, 128096, Note_on_c, 0, 82, 86
2, 128155, Note_on_c, 0, 78, 82
2, 128156, Note_on_c, 0, 82, 0
2, 128201, Note_on_c, 0, 78, 0
2, 128202, Note_on_c, 0, 77, 68
2, 128249, Note_on_c, 0, 77, 0
2, 128253, Note_on_c, 0, 78, 85
2, 128306, Note_on_c, 0, 78, 0
2, 128307, Note_on_c, 0, 81, 82
2, 128348, Note_on_c, 0, 70, 0
2, 128364, Note_on_c, 0, 77, 88
2, 128365, Note_on_c, 0, 81, 0
2, 128409, Note_on_c, 0, 77, 0
2, 128416, Note_on_c, 0, 76, 61
2, 128440, Note_on_c, 0, 62, 0
2, 128461, Note_on_c, 0, 77, 68
2, 128470, Note_on_c, 0, 76, 0
2, 128518, Note_on_c, 0, 80, 77
2, 128523, Note_on_c, 0, 77, 0
2, 128528, Note_on_c, 0, 55, 64
2, 128565, Note_on_c, 0, 59, 68
2, 128573, Control_c, 0, 64, 63
2, 128579, Control_c, 0, 64, 0
2, 128583, Note_on_c, 0, 80, 0
2, 128588, Note_on_c, 0, 65, 89
2, 128594, Note_on_c, 0, 76, 65
2, 128596, Control_c, 0, 64, 63
2, 128608, Control_c, 0, 64, 127
2, 128654, Note_on_c, 0, 75, 79
2, 128656, Note_on_c, 0, 76, 0
2, 128708, Note_on_c, 0, 75, 0
2, 128709, Note_on_c, 0, 76, 75
2, 128755, Note_on_c, 0, 76, 0
2, 128759, Note_on_c, 0, 79, 68
2, 128812, Note_on_c, 0, 79, 0
2, 128817, Note_on_c, 0, 75, 77
2, 128862, Note_on_c, 0, 75, 0
2, 128867, Note_on_c, 0, 74, 69
2, 128920, Note_on_c, 0, 74, 0
2, 128921, Note_on_c, 0, 75, 92
2, 128931, Note_on_c, 0, 65, 0
2, 128962, Note_on_c, 0, 59, 0
2, 128973, Note_on_c, 0, 78, 92
2, 128981, Note_on_c, 0, 55, 0
2, 128984, Note_on_c, 0, 75, 0
2, 129040, Note_on_c, 0, 74, 78
2, 129041, Note_on_c, 0, 78, 0
2, 129087, Note_on_c, 0, 73, 96
2, 129091, Note_on_c, 0, 74, 0
2, 129141, Note_on_c, 0, 74, 73
2, 129145, Note_on_c, 0, 73, 0
2, 129164, Control_c, 0, 64, 63
2, 129166, Note_on_c, 0, 43, 84
2, 129168, Control_c, 0, 64, 0
2, 129186, Control_c, 0, 64, 63
2, 129188, Note_on_c, 0, 77, 81
2, 129194, Note_on_c, 0, 74, 0
2, 129195, Control_c, 0, 64, 127
2, 129209, Note_on_c, 0, 53, 87
2, 129210, Note_on_c, 0, 43, 0
2, 129239, Note_on_c, 0, 53, 0
2, 129258, Note_on_c, 0, 77, 0
2, 129259, Note_on_c, 0, 58, 94
2, 129266, Note_on_c, 0, 73, 81
2, 129273, Note_on_c, 0, 58, 0
2, 129297, Note_on_c, 0, 61, 99
2, 129328, Note_on_c, 0, 61, 0
2, 129354, Note_on_c, 0, 73, 0
2, 129356, Note_on_c, 0, 72, 68
2, 129413, Note_on_c, 0, 73, 93
2, 129416, Note_on_c, 0, 72, 0
2, 129465, Note_on_c, 0, 76, 86
2, 129467, Note_on_c, 0, 73, 0
2, 129531, Note_on_c, 0, 72, 89
2, 129536, Note_on_c, 0, 76, 0
2, 129581, Note_on_c, 0, 71, 73
2, 129582, Note_on_c, 0, 72, 0
2, 129634, Note_on_c, 0, 72, 80
2, 129635, Note_on_c, 0, 71, 0
2, 129684, Note_on_c, 0, 75, 89
2, 129685, Note_on_c, 0, 72, 0
2, 129743, Note_on_c, 0, 75, 0
2, 129749, Note_on_c, 0, 71, 81
2, 129797, Note_on_c, 0, 71, 0
2, 129800, Note_on_c, 0, 70, 85
2, 129851, Note_on_c, 0, 70, 0
2, 129852, Note_on_c, 0, 71, 81
2, 129901, Note_on_c, 0, 71, 0
2, 129904, Note_on_c, 0, 74, 75
2, 129965, Note_on_c, 0, 52, 79
2, 129971, Note_on_c, 0, 70, 77
2, 129972, Note_on_c, 0, 74, 0
2, 129972, Note_on_c, 0, 61, 92
2, 129994, Control_c, 0, 64, 63
2, 129998, Control_c, 0, 64, 0
2, 130023, Note_on_c, 0, 69, 60
2, 130024, Note_on_c, 0, 70, 0
2, 130031, Control_c, 0, 64, 63
2, 130039, Control_c, 0, 64, 127
2, 130079, Note_on_c, 0, 70, 82
2, 130083, Note_on_c, 0, 69, 0
2, 130127, Note_on_c, 0, 70, 0
2, 130127, Note_on_c, 0, 73, 78
2, 130163, Note_on_c, 0, 61, 0
2, 130188, Note_on_c, 0, 73, 0
2, 130193, Note_on_c, 0, 69, 63
2, 130194, Note_on_c, 0, 60, 99
2, 130204, Control_c, 0, 64, 63
2, 130223, Control_c, 0, 64, 127
2, 130246, Note_on_c, 0, 68, 69
2, 130250, Note_on_c, 0, 69, 0
2, 130300, Note_on_c, 0, 68, 0
2, 130302, Note_on_c, 0, 69, 55
2, 130338, Note_on_c, 0, 60, 0
2, 130352, Note_on_c, 0, 69, 0
2, 130355, Note_on_c, 0, 72, 54
2, 130400, Note_on_c, 0, 59, 91
2, 130413, Note_on_c, 0, 68, 76
2, 130420, Note_on_c, 0, 72, 0
2, 130424, Control_c, 0, 64, 63
2, 130449, Control_c, 0, 64, 127
2, 130456, Note_on_c, 0, 52, 0
2, 130456, Note_on_c, 0, 68, 0
2, 130462, Note_on_c, 0, 67, 57
2, 130505, Note_on_c, 0, 59, 0
2, 130508, Note_on_c, 0, 68, 74
2, 130520, Note_on_c, 0, 67, 0
2, 130548, Note_on_c, 0, 43, 58
2, 130564, Note_on_c, 0, 71, 71
2, 130568, Note_on_c, 0, 68, 0
2, 130588, Note_on_c, 0, 43, 0
2, 130592, Note_on_c, 0, 50, 69
2, 130642, Note_on_c, 0, 58, 101
2, 130650, Note_on_c, 0, 71, 0
2, 130659, Note_on_c, 0, 67, 53
2, 130670, Control_c, 0, 64, 63
2, 130692, Control_c, 0, 64, 127
2, 130722, Note_on_c, 0, 66, 77
2, 130725, Note_on_c, 0, 67, 0
2, 130773, Note_on_c, 0, 66, 0
2, 130774, Note_on_c, 0, 67, 65
2, 130777, Note_on_c, 0, 50, 0
2, 130816, Note_on_c, 0, 58, 0
2, 130824, Note_on_c, 0, 70, 96
2, 130826, Note_on_c, 0, 67, 0
2, 130844, Note_on_c, 0, 70, 0
2, 130900, Note_on_c, 0, 62, 74
2, 130903, Note_on_c, 0, 52, 71
2, 130941, Control_c, 0, 64, 63
2, 130957, Control_c, 0, 64, 127
2, 130961, Note_on_c, 0, 61, 93
2, 130970, Note_on_c, 0, 62, 0
2, 131013, Note_on_c, 0, 62, 85
2, 131015, Note_on_c, 0, 61, 0
2, 131041, Note_on_c, 0, 52, 0
2, 131055, Note_on_c, 0, 67, 85
2, 131062, Note_on_c, 0, 62, 0
2, 131128, Note_on_c, 0, 54, 75
2, 131130, Note_on_c, 0, 66, 88
2, 131133, Note_on_c, 0, 60, 70
2, 131134, Note_on_c, 0, 67, 0
2, 131137, Note_on_c, 0, 51, 80
2, 131154, Control_c, 0, 64, 63
2, 131178, Control_c, 0, 64, 127
2, 131191, Note_on_c, 0, 66, 0
2, 131227, Note_on_c, 0, 60, 0
2, 131230, Note_on_c, 0, 51, 0
2, 131234, Note_on_c, 0, 54, 0
2, 131244, Note_on_c, 0, 66, 72
2, 131291, Note_on_c, 0, 69, 81
2, 131298, Note_on_c, 0, 66, 0
2, 131315, Note_on_c, 0, 43, 44
2, 131316, Note_on_c, 0, 45, 29
2, 131341, Note_on_c, 0, 45, 0
2, 131341, Note_on_c, 0, 43, 0
2, 131349, Note_on_c, 0, 50, 60
2, 131372, Note_on_c, 0, 69, 0
2, 131379, Note_on_c, 0, 67, 64
2, 131384, Note_on_c, 0, 58, 90
2, 131395, Control_c, 0, 64, 63
2, 131402, Control_c, 0, 64, 0
2, 131422, Control_c, 0, 64, 63
2, 131434, Control_c, 0, 64, 127
2, 131450, Note_on_c, 0, 66, 78
2, 131460, Note_on_c, 0, 67, 0
2, 131497, Note_on_c, 0, 50, 0
2, 131506, Note_on_c, 0, 67, 77
2, 131509, Note_on_c, 0, 66, 0
2, 131532, Note_on_c, 0, 58, 0
2, 131550, Note_on_c, 0, 67, 0
2, 131553, Note_on_c, 0, 70, 88
2, 131581, Note_on_c, 0, 70, 0
2, 131616, Note_on_c, 0, 52, 95
2, 131617, Note_on_c, 0, 62, 89
2, 131670, Control_c, 0, 64, 63
2, 131671, Note_on_c, 0, 61, 96
2, 131674, Note_on_c, 0, 62, 0
2, 131696, Control_c, 0, 64, 127
2, 131725, Note_on_c, 0, 62, 86
2, 131728, Note_on_c, 0, 61, 0
2, 131747, Note_on_c, 0, 52, 0
2, 131775, Note_on_c, 0, 67, 75
2, 131776, Note_on_c, 0, 62, 0
2, 131805, Note_on_c, 0, 51, 82
2, 131844, Note_on_c, 0, 67, 0
2, 131854, Control_c, 0, 64, 63
2, 131860, Note_on_c, 0, 66, 68
2, 131862, Note_on_c, 0, 60, 83
2, 131863, Control_c, 0, 64, 0
2, 131864, Note_on_c, 0, 54, 72
2, 131876, Control_c, 0, 64, 63
2, 131889, Control_c, 0, 64, 127
2, 131924, Note_on_c, 0, 65, 61
2, 131925, Note_on_c, 0, 66, 0
2, 131938, Note_on_c, 0, 60, 0
2, 131953, Note_on_c, 0, 54, 0
2, 131960, Note_on_c, 0, 51, 0
2, 131988, Note_on_c, 0, 65, 0
2, 131989, Note_on_c, 0, 66, 74
2, 132040, Note_on_c, 0, 43, 68
2, 132054, Note_on_c, 0, 66, 0
2, 132055, Note_on_c, 0, 69, 38
2, 132136, Note_on_c, 0, 43, 0
2, 132147, Note_on_c, 0, 50, 54
2, 132188, Control_c, 0, 64, 63
2, 132192, Note_on_c, 0, 58, 69
2, 132193, Control_c, 0, 64, 0
2, 132194, Note_on_c, 0, 67, 68
2, 132204, Note_on_c, 0, 69, 0
2, 132224, Control_c, 0, 64, 63
2, 132231, Control_c, 0, 64, 127
2, 132273, Note_on_c, 0, 50, 0
2, 132319, Note_on_c, 0, 58, 0
2, 132333, Note_on_c, 0, 67, 0
2, 132509, Note_on_c, 0, 61, 62
2, 132527, Control_c, 0, 64, 63
2, 132562, Control_c, 0, 64, 127
2, 132566, Note_on_c, 0, 62, 59
2, 132590, Note_on_c, 0, 61, 0
2, 132613, Note_on_c, 0, 62, 0
2, 132617, Note_on_c, 0, 66, 79
2, 132649, Note_on_c, 0, 66, 0
2, 132653, Note_on_c, 0, 67, 60
2, 132690, Note_on_c, 0, 69, 64
2, 132694, Note_on_c, 0, 67, 0
2, 132728, Note_on_c, 0, 70, 91
2, 132741, Note_on_c, 0, 69, 0
2, 132763, Note_on_c, 0, 70, 0
2, 132772, Note_on_c, 0, 66, 85
2, 132802, Note_on_c, 0, 67, 78
2, 132805, Control_c, 0, 64, 63
2, 132822, Note_on_c, 0, 66, 0
2, 132835, Control_c, 0, 64, 127
2, 132852, Note_on_c, 0, 69, 71
2, 132865, Note_on_c, 0, 67, 0
2, 132887, Note_on_c, 0, 70, 86
2, 132894, Note_on_c, 0, 69, 0
2, 132928, Note_on_c, 0, 73, 81
2, 132947, Note_on_c, 0, 70, 0
2, 132960, Note_on_c, 0, 74, 85
2, 132971, Note_on_c, 0, 73, 0
2, 132988, Note_on_c, 0, 74, 0
2, 132999, Note_on_c, 0, 69, 87
2, 133007, Control_c, 0, 64, 63
2, 133037, Control_c, 0, 64, 127
2, 133042, Note_on_c, 0, 70, 96
2, 133070, Note_on_c, 0, 69, 0
2, 133084, Note_on_c, 0, 74, 82
2, 133095, Note_on_c, 0, 70, 0
2, 133120, Note_on_c, 0, 75, 93
2, 133129, Note_on_c, 0, 74, 0
2, 133155, Note_on_c, 0, 78, 96
2, 133180, Note_on_c, 0, 75, 0
2, 133185, Note_on_c, 0, 79, 93
2, 133202, Note_on_c, 0, 78, 0
2, 133219, Note_on_c, 0, 79, 0
2, 133223, Note_on_c, 0, 73, 110
2, 133228, Control_c, 0, 64, 63
2, 133254, Control_c, 0, 64, 127
2, 133258, Note_on_c, 0, 74, 89
2, 133301, Note_on_c, 0, 78, 95
2, 133303, Note_on_c, 0, 73, 0
2, 133324, Note_on_c, 0, 74, 0
2, 133334, Note_on_c, 0, 79, 84
2, 133346, Note_on_c, 0, 78, 0
2, 133366, Note_on_c, 0, 81, 89
2, 133385, Note_on_c, 0, 79, 0
2, 133406, Note_on_c, 0, 82, 102
2, 133418, Note_on_c, 0, 81, 0
2, 133438, Note_on_c, 0, 82, 0
2, 133444, Note_on_c, 0, 78, 110
2, 133456, Control_c, 0, 64, 63
2, 133476, Note_on_c, 0, 79, 88
2, 133483, Control_c, 0, 64, 127
2, 133502, Note_on_c, 0, 78, 0
2, 133521, Note_on_c, 0, 81, 96
2, 133538, Note_on_c, 0, 79, 0
2, 133552, Note_on_c, 0, 82, 104
2, 133559, Note_on_c, 0, 81, 0
2, 133587, Note_on_c, 0, 85, 103
2, 133609, Note_on_c, 0, 82, 0
2, 133618, Note_on_c, 0, 86, 104
2, 133630, Note_on_c, 0, 85, 0
2, 133641, Note_on_c, 0, 86, 0
2, 133648, Note_on_c, 0, 81, 99
2, 133688, Note_on_c, 0, 82, 109
2, 133696, Note_on_c, 0, 81, 0
2, 133723, Note_on_c, 0, 82, 0
2, 133728, Note_on_c, 0, 86, 101
2, 133758, Note_on_c, 0, 87, 106
2, 133766, Note_on_c, 0, 86, 0
2, 133795, Note_on_c, 0, 90, 106
2, 133815, Note_on_c, 0, 87, 0
2, 133824, Note_on_c, 0, 91, 103
2, 133839, Note_on_c, 0, 90, 0
2, 133854, Note_on_c, 0, 91, 0
2, 133857, Note_on_c, 0, 85, 113
2, 133891, Note_on_c, 0, 86, 104
2, 133908, Note_on_c, 0, 85, 0
2, 133932, Note_on_c, 0, 90, 98
2, 133934, Note_on_c, 0, 86, 0
2, 133956, Note_on_c, 0, 91, 85
2, 133986, Note_on_c, 0, 90, 0
2, 133993, Note_on_c, 0, 93, 88
2, 134008, Note_on_c, 0, 91, 0
2, 134027, Note_on_c, 0, 94, 99
2, 134034, Note_on_c, 0, 93, 0
2, 134051, Note_on_c, 0, 94, 0
2, 134054, Note_on_c, 0, 90, 102
2, 134091, Note_on_c, 0, 91, 84
2, 134143, Note_on_c, 0, 93, 73
2, 134177, Note_on_c, 0, 94, 87
2, 134178, Note_on_c, 0, 93, 0
2, 134228, Note_on_c, 0, 94, 0
2, 134229, Note_on_c, 0, 97, 81
2, 134245, Note_on_c, 0, 97, 0
2, 134281, Note_on_c, 0, 98, 80
2, 134372, Note_on_c, 0, 103, 78
2, 134375, Note_on_c, 0, 98, 0
2, 134396, Control_c, 0, 64, 63
2, 134405, Control_c, 0, 64, 0
2, 134426, Control_c, 0, 64, 63
2, 134438, Control_c, 0, 64, 127
2, 134443, Note_on_c, 0, 91, 0
2, 134447, Note_on_c, 0, 90, 0
2, 134527, Note_on_c, 0, 103, 0
2, 134795, Note_on_c, 0, 26, 47
2, 134830, Note_on_c, 0, 38, 57
2, 134841, Control_c, 0, 64, 63
2, 134850, Control_c, 0, 64, 0
2, 134855, Note_on_c, 0, 52, 64
2, 134894, Note_on_c, 0, 55, 60
2, 134911, Note_on_c, 0, 58, 72
2, 134912, Control_c, 0, 64, 63
2, 134919, Control_c, 0, 64, 127
2, 134952, Note_on_c, 0, 61, 75
2, 134994, Note_on_c, 0, 64, 82
2, 136172, Note_on_c, 0, 52, 0
2, 136190, Note_on_c, 0, 64, 0
2, 136193, Note_on_c, 0, 26, 0
2, 136203, Note_on_c, 0, 55, 0
2, 136219, Note_on_c, 0, 58, 0
2, 136224, Note_on_c, 0, 61, 0
2, 136227, Note_on_c, 0, 38, 0
2, 136303, Control_c, 0, 64, 63
2, 136344, Control_c, 0, 64, 0
2, 136452, Control_c, 0, 64, 63
2, 136488, Control_c, 0, 64, 127
2, 136578, Note_on_c, 0, 38, 42
2, 136583, Note_on_c, 0, 70, 39
2, 136586, Note_on_c, 0, 66, 51
2, 136590, Note_on_c, 0, 60, 39
2, 136713, Note_on_c, 0, 60, 0
2, 136763, Note_on_c, 0, 70, 0
2, 136764, Note_on_c, 0, 66, 0
2, 136887, Note_on_c, 0, 38, 0
2, 137119, Note_on_c, 0, 58, 22
2, 137126, Note_on_c, 0, 67, 43
2, 137133, Note_on_c, 0, 31, 30
2, 137138, Note_on_c, 0, 43, 16
2, 137175, Control_c, 0, 64, 63
2, 137188, Control_c, 0, 64, 0
2, 137262, Control_c, 0, 64, 63
2, 137269, Control_c, 0, 64, 127
2, 137326, Note_on_c, 0, 31, 0
2, 137352, Note_on_c, 0, 58, 0
2, 137363, Note_on_c, 0, 43, 0
2, 137400, Note_on_c, 0, 67, 0
2, 137662, Control_c, 0, 64, 63
2, 137692, Control_c, 0, 64, 0
2, 137809, Control_c, 0, 67, 0
2, 137809, End_track
0, 0, End_of_file
