0, 0, Header, 1, 3, 360
1, 0, Start_track
1, 0, Title_t, "Sonata for Cello and Piano Op 19 Part IV"
1, 0, Copyright_t, "Copyright (C) "
1, 0, Text_t, "Rachmaninoff\012"
1, 0, Time_signature, 4, 2, 24, 8
1, 0, Key_signature, 1, "major"
1, 0, Tempo, 416667
1, 1080, Tempo, 416667
1, 19080, Tempo, 416667
1, 19136, Tempo, 422863
1, 19193, Tempo, 429246
1, 19249, Tempo, 435825
1, 19305, Tempo, 442641
1, 19361, Tempo, 449640
1, 19418, Tempo, 456864
1, 19474, Tempo, 464324
1, 19530, Tempo, 472032
1, 19586, Tempo, 480000
1, 19643, Tempo, 488242
1, 19699, Tempo, 496812
1, 19755, Tempo, 505646
1, 19811, Tempo, 514801
1, 19868, Tempo, 524292
1, 19924, Tempo, 534140
1, 19980, Tempo, 544366
1, 20039, Tempo, 555556
1, 20160, Tempo, 416667
1, 46080, Tempo, 428571
1, 46440, Tempo, 437956
1, 46800, Tempo, 447761
1, 47160, Tempo, 458015
1, 47520, Tempo, 468750
1, 47880, Tempo, 480000
1, 48240, Tempo, 491803
1, 48600, Tempo, 504202
1, 48960, Tempo, 508475
1, 49320, Tempo, 512821
1, 49680, Tempo, 517241
1, 50040, Tempo, 521739
1, 51120, Tempo, 545455
1, 58680, Tempo, 600000
1, 59040, Tempo, 545455
1, 60120, Tempo, 600000
1, 60480, Tempo, 545455
1, 70200, Tempo, 600000
1, 70560, Tempo, 545455
1, 71640, Tempo, 600000
1, 72000, Tempo, 545455
1, 74880, Tempo, 400000
1, 84960, Tempo, 400000
1, 85033, Tempo, 405981
1, 85106, Tempo, 412116
1, 85179, Tempo, 418468
1, 85253, Tempo, 424989
1, 85326, Tempo, 431748
1, 85399, Tempo, 438693
1, 85472, Tempo, 445898
1, 85545, Tempo, 453309
1, 85618, Tempo, 461007
1, 85691, Tempo, 468933
1, 85764, Tempo, 477175
1, 85838, Tempo, 485673
1, 85911, Tempo, 494519
1, 85984, Tempo, 503651
1, 86057, Tempo, 513171
1, 86130, Tempo, 523058
1, 86220, Tempo, 535714
1, 86400, Tempo, 444444
1, 109440, Time_signature, 3, 1, 48, 8
1, 111600, Time_signature, 4, 2, 24, 8
1, 114840, Tempo, 444444
1, 114892, Tempo, 451026
1, 114944, Tempo, 457771
1, 114996, Tempo, 464756
1, 115048, Tempo, 471921
1, 115100, Tempo, 479348
1, 115152, Tempo, 486973
1, 115204, Tempo, 494886
1, 115256, Tempo, 503018
1, 115308, Tempo, 511465
1, 115361, Tempo, 520201
1, 115412, Tempo, 529194
1, 115464, Tempo, 538551
1, 115517, Tempo, 548196
1, 115569, Tempo, 558243
1, 115620, Tempo, 568613
1, 115673, Tempo, 579430
1, 115740, Tempo, 594059
1, 115920, Tempo, 444444
1, 121680, Tempo, 416667
1, 130320, Key_signature, 0, "major"
1, 149040, Tempo, 416667
1, 149113, Tempo, 422803
1, 149186, Tempo, 429123
1, 149259, Tempo, 435635
1, 149333, Tempo, 442347
1, 149406, Tempo, 449270
1, 149479, Tempo, 456413
1, 149552, Tempo, 463750
1, 149625, Tempo, 471365
1, 149698, Tempo, 479233
1, 149771, Tempo, 487369
1, 149844, Tempo, 495786
1, 149918, Tempo, 504498
1, 149991, Tempo, 513523
1, 150064, Tempo, 522876
1, 150137, Tempo, 532576
1, 150210, Tempo, 542643
1, 150300, Tempo, 555556
1, 150480, Tempo, 500000
1, 151920, Tempo, 416667
1, 172080, Tempo, 416667
1, 172159, Tempo, 422803
1, 172238, Tempo, 429123
1, 172316, Tempo, 435635
1, 172395, Tempo, 442347
1, 172474, Tempo, 449270
1, 172553, Tempo, 456378
1, 172631, Tempo, 463750
1, 172710, Tempo, 471365
1, 172789, Tempo, 479233
1, 172868, Tempo, 487369
1, 172946, Tempo, 495786
1, 173025, Tempo, 504498
1, 173104, Tempo, 513523
1, 173183, Tempo, 522876
1, 173261, Tempo, 532576
1, 173340, Tempo, 542643
1, 173437, Tempo, 555556
1, 173520, Tempo, 500000
1, 174960, Tempo, 416667
1, 178560, Tempo, 416667
1, 178591, Tempo, 422714
1, 178622, Tempo, 428939
1, 178653, Tempo, 435382
1, 178684, Tempo, 441989
1, 178715, Tempo, 448799
1, 178746, Tempo, 455823
1, 178777, Tempo, 463106
1, 178808, Tempo, 470588
1, 178839, Tempo, 478316
1, 178869, Tempo, 486302
1, 178901, Tempo, 494601
1, 178931, Tempo, 503145
1, 178962, Tempo, 511989
1, 178993, Tempo, 521150
1, 179024, Tempo, 530692
1, 179055, Tempo, 540541
1, 179100, Tempo, 555556
1, 179280, Tempo, 480000
1, 180720, Tempo, 416667
1, 196560, Tempo, 416667
1, 196633, Tempo, 422803
1, 196706, Tempo, 429123
1, 196779, Tempo, 435635
1, 196853, Tempo, 442347
1, 196926, Tempo, 449270
1, 196999, Tempo, 456413
1, 197072, Tempo, 463750
1, 197145, Tempo, 471365
1, 197218, Tempo, 479233
1, 197291, Tempo, 487369
1, 197364, Tempo, 495786
1, 197438, Tempo, 504498
1, 197511, Tempo, 513523
1, 197584, Tempo, 522876
1, 197657, Tempo, 532576
1, 197730, Tempo, 542643
1, 197820, Tempo, 555556
1, 198000, Tempo, 545455
1, 212400, Tempo, 416667
1, 216720, Tempo, 416667
1, 216793, Tempo, 422803
1, 216866, Tempo, 429123
1, 216939, Tempo, 435635
1, 217013, Tempo, 442347
1, 217086, Tempo, 449270
1, 217159, Tempo, 456413
1, 217232, Tempo, 463750
1, 217305, Tempo, 471365
1, 217378, Tempo, 479233
1, 217451, Tempo, 487369
1, 217524, Tempo, 495786
1, 217598, Tempo, 504498
1, 217671, Tempo, 513523
1, 217744, Tempo, 522876
1, 217817, Tempo, 532576
1, 217890, Tempo, 542643
1, 217980, Tempo, 555556
1, 218160, Tempo, 545455
1, 234720, Tempo, 545455
1, 234751, Tempo, 553506
1, 234782, Tempo, 561850
1, 234813, Tempo, 570396
1, 234844, Tempo, 579262
1, 234875, Tempo, 588351
1, 234906, Tempo, 597729
1, 234937, Tempo, 607472
1, 234968, Tempo, 617475
1, 234999, Tempo, 627878
1, 235029, Tempo, 638570
1, 235061, Tempo, 649702
1, 235091, Tempo, 661157
1, 235122, Tempo, 673023
1, 235153, Tempo, 685401
1, 235184, Tempo, 698162
1, 235215, Tempo, 711491
1, 235260, Tempo, 731707
1, 235440, Tempo, 545455
1, 238320, Tempo, 545455
1, 238680, Tempo, 542250
1, 239040, Tempo, 539132
1, 239400, Tempo, 536001
1, 239760, Tempo, 532954
1, 240120, Tempo, 529895
1, 240480, Tempo, 526917
1, 240840, Tempo, 523926
1, 241200, Tempo, 521014
1, 241560, Tempo, 518090
1, 241920, Tempo, 515243
1, 242280, Tempo, 512383
1, 242640, Tempo, 509597
1, 243000, Tempo, 506800
1, 243360, Tempo, 504075
1, 243720, Tempo, 501337
1, 244080, Tempo, 498670
1, 244440, Tempo, 495991
1, 244800, Tempo, 493380
1, 245160, Tempo, 490757
1, 245520, Tempo, 488202
1, 245880, Tempo, 485633
1, 246240, Tempo, 483131
1, 246600, Tempo, 480615
1, 246960, Tempo, 478164
1, 247320, Tempo, 475700
1, 247680, Tempo, 473261
1, 248040, Tempo, 470884
1, 248400, Tempo, 468494
1, 248760, Tempo, 466164
1, 249120, Tempo, 463822
1, 249480, Tempo, 461538
1, 249840, Tempo, 459242
1, 250200, Tempo, 457004
1, 250560, Tempo, 454752
1, 250920, Tempo, 452557
1, 251280, Tempo, 450349
1, 251640, Tempo, 448196
1, 252000, Tempo, 446030
1, 252360, Tempo, 443918
1, 252720, Tempo, 441794
1, 253080, Tempo, 439722
1, 253440, Tempo, 437637
1, 253800, Tempo, 435603
1, 254160, Tempo, 433557
1, 254520, Tempo, 431562
1, 254880, Tempo, 429553
1, 255240, Tempo, 427594
1, 255600, Tempo, 425622
1, 255960, Tempo, 423699
1, 256320, Tempo, 421763
1, 256680, Tempo, 419845
1, 257040, Tempo, 417973
1, 257400, Tempo, 416089
1, 257760, Tempo, 414250
1, 258407, Tempo, 410959
1, 258480, Tempo, 416667
1, 259920, Tempo, 416667
1, 259997, Tempo, 422803
1, 260075, Tempo, 429154
1, 260152, Tempo, 435698
1, 260229, Tempo, 442413
1, 260307, Tempo, 449371
1, 260384, Tempo, 456517
1, 260462, Tempo, 463929
1, 260539, Tempo, 471550
1, 260616, Tempo, 479463
1, 260694, Tempo, 487607
1, 260771, Tempo, 496073
1, 260848, Tempo, 504796
1, 260925, Tempo, 513875
1, 261003, Tempo, 523241
1, 261080, Tempo, 533002
1, 261158, Tempo, 543085
1, 261249, Tempo, 555556
1, 261360, Tempo, 480000
1, 262800, Tempo, 416667
1, 263160, Tempo, 416667
1, 263202, Tempo, 422863
1, 263244, Tempo, 429246
1, 263287, Tempo, 435825
1, 263329, Tempo, 442608
1, 263371, Tempo, 449607
1, 263413, Tempo, 456830
1, 263456, Tempo, 464288
1, 263498, Tempo, 471958
1, 263540, Tempo, 479923
1, 263582, Tempo, 488162
1, 263624, Tempo, 496689
1, 263666, Tempo, 505519
1, 263709, Tempo, 514668
1, 263751, Tempo, 524155
1, 263793, Tempo, 533998
1, 263835, Tempo, 544218
1, 263880, Tempo, 555556
1, 264240, Key_signature, 1, "major"
1, 264240, Tempo, 416667
1, 281880, Tempo, 416667
1, 281936, Tempo, 422863
1, 281993, Tempo, 429246
1, 282049, Tempo, 435825
1, 282105, Tempo, 442641
1, 282161, Tempo, 449640
1, 282218, Tempo, 456864
1, 282274, Tempo, 464324
1, 282330, Tempo, 472032
1, 282386, Tempo, 480000
1, 282443, Tempo, 488242
1, 282499, Tempo, 496812
1, 282555, Tempo, 505646
1, 282611, Tempo, 514801
1, 282668, Tempo, 524292
1, 282724, Tempo, 534140
1, 282780, Tempo, 544366
1, 282839, Tempo, 555556
1, 282960, Tempo, 416667
1, 309240, Tempo, 428571
1, 309600, Tempo, 437956
1, 309960, Tempo, 447761
1, 310320, Tempo, 458015
1, 310680, Tempo, 468750
1, 311040, Tempo, 480000
1, 311400, Tempo, 491803
1, 311760, Tempo, 504202
1, 312120, Tempo, 517241
1, 312480, Tempo, 526316
1, 312840, Tempo, 535714
1, 313200, Tempo, 545455
1, 321480, Tempo, 600000
1, 321840, Tempo, 545455
1, 322920, Tempo, 600000
1, 323280, Tempo, 545455
1, 333000, Tempo, 600000
1, 333360, Tempo, 545455
1, 334440, Tempo, 600000
1, 334800, Tempo, 545455
1, 337680, Tempo, 400000
1, 347760, Tempo, 400000
1, 347839, Tempo, 406009
1, 347918, Tempo, 412173
1, 347996, Tempo, 418556
1, 348075, Tempo, 425140
1, 348154, Tempo, 431903
1, 348233, Tempo, 438917
1, 348311, Tempo, 446163
1, 348390, Tempo, 453618
1, 348469, Tempo, 461361
1, 348548, Tempo, 469373
1, 348626, Tempo, 477631
1, 348705, Tempo, 486224
1, 348784, Tempo, 495131
1, 348863, Tempo, 504329
1, 348941, Tempo, 513919
1, 349020, Tempo, 523880
1, 349110, Tempo, 535714
1, 349200, Tempo, 444444
1, 372240, Time_signature, 3, 1, 48, 8
1, 374400, Time_signature, 4, 2, 24, 8
1, 377280, Tempo, 444444
1, 377353, Tempo, 451026
1, 377426, Tempo, 457841
1, 377499, Tempo, 464828
1, 377573, Tempo, 472032
1, 377646, Tempo, 479501
1, 377719, Tempo, 487171
1, 377792, Tempo, 495090
1, 377865, Tempo, 503313
1, 377938, Tempo, 511771
1, 378011, Tempo, 520517
1, 378084, Tempo, 529614
1, 378158, Tempo, 538987
1, 378231, Tempo, 548697
1, 378304, Tempo, 558763
1, 378377, Tempo, 569260
1, 378450, Tempo, 580102
1, 378540, Tempo, 594059
1, 378720, Tempo, 444444
1, 384480, Tempo, 416667
1, 390240, Tempo, 416667
1, 390303, Tempo, 422863
1, 390367, Tempo, 429246
1, 390430, Tempo, 435825
1, 390493, Tempo, 442608
1, 390557, Tempo, 449607
1, 390620, Tempo, 456830
1, 390683, Tempo, 464288
1, 390746, Tempo, 471958
1, 390810, Tempo, 479923
1, 390873, Tempo, 488162
1, 390936, Tempo, 496689
1, 390999, Tempo, 505519
1, 391063, Tempo, 514668
1, 391126, Tempo, 524155
1, 391189, Tempo, 533998
1, 391253, Tempo, 544218
1, 391320, Tempo, 555556
1, 392040, Tempo, 666667
1, 413280, Tempo, 666667
1, 413322, Tempo, 676819
1, 413364, Tempo, 687285
1, 413407, Tempo, 697999
1, 413449, Tempo, 709136
1, 413491, Tempo, 720634
1, 413533, Tempo, 732511
1, 413576, Tempo, 744694
1, 413618, Tempo, 757384
1, 413660, Tempo, 770515
1, 413702, Tempo, 784109
1, 413744, Tempo, 798085
1, 413786, Tempo, 812678
1, 413829, Tempo, 827815
1, 413871, Tempo, 843526
1, 413913, Tempo, 859722
1, 413955, Tempo, 876680
1, 414000, Tempo, 895522
1, 414720, Tempo, 895522
1, 414775, Tempo, 909091
1, 414830, Tempo, 923077
1, 414885, Tempo, 937500
1, 414939, Tempo, 952381
1, 414994, Tempo, 967742
1, 415049, Tempo, 983607
1, 415104, Tempo, 1000000
1, 415159, Tempo, 1016949
1, 415214, Tempo, 1034483
1, 415269, Tempo, 1052632
1, 415323, Tempo, 1071429
1, 415378, Tempo, 1090909
1, 415433, Tempo, 1111111
1, 415488, Tempo, 1132075
1, 415543, Tempo, 1153846
1, 415598, Tempo, 1176471
1, 415652, Tempo, 1200000
1, 416070, Tempo, 5000000
1, 416160, Tempo, 1200000
1, 416520, Tempo, 375000
1, 446040, Tempo, 387097
1, 446400, Tempo, 400000
1, 446760, Tempo, 389610
1, 447120, Tempo, 389610
1, 447143, Tempo, 395883
1, 447165, Tempo, 402334
1, 447188, Tempo, 409026
1, 447210, Tempo, 415945
1, 447233, Tempo, 423101
1, 447255, Tempo, 430478
1, 447278, Tempo, 438148
1, 447300, Tempo, 446097
1, 447323, Tempo, 454339
1, 447345, Tempo, 462856
1, 447368, Tempo, 471735
1, 447390, Tempo, 480962
1, 447413, Tempo, 490557
1, 447435, Tempo, 500501
1, 447458, Tempo, 510899
1, 447480, Tempo, 521739
1, 447840, Tempo, 428571
1, 448560, Tempo, 428571
1, 448583, Tempo, 435382
1, 448605, Tempo, 442380
1, 448628, Tempo, 449640
1, 448650, Tempo, 457143
1, 448673, Tempo, 464900
1, 448695, Tempo, 472888
1, 448718, Tempo, 481193
1, 448740, Tempo, 489796
1, 448763, Tempo, 498712
1, 448785, Tempo, 507915
1, 448808, Tempo, 517509
1, 448830, Tempo, 527473
1, 448853, Tempo, 537827
1, 448875, Tempo, 548546
1, 448898, Tempo, 559754
1, 448920, Tempo, 571429
1, 450630, Tempo, 5000000
1, 450720, Tempo, 571429
1, 450720, End_track
2, 0, Start_track
2, 0, Title_t, "Violoncello (piano)"
2, 0, Program_c, 0, 0
2, 0, Control_c, 0, 7, 100
2, 0, Control_c, 0, 10, 76
2, 0, Control_c, 0, 91, 60
2, 1080, Control_c, 0, 121, 0
2, 1080, Control_c, 0, 64, 0
2, 7200, Note_on_c, 0, 71, 74
2, 7680, Note_on_c, 0, 71, 0
2, 7680, Note_on_c, 0, 69, 81
2, 7799, Note_on_c, 0, 69, 0
2, 7799, Note_on_c, 0, 67, 78
2, 7895, Note_on_c, 0, 67, 0
2, 7920, Note_on_c, 0, 67, 79
2, 8040, Note_on_c, 0, 67, 0
2, 8040, Note_on_c, 0, 64, 72
2, 8159, Note_on_c, 0, 64, 0
2, 8159, Note_on_c, 0, 62, 74
2, 8280, Note_on_c, 0, 62, 0
2, 8280, Note_on_c, 0, 71, 75
2, 8519, Note_on_c, 0, 71, 0
2, 8519, Note_on_c, 0, 72, 91
2, 8615, Note_on_c, 0, 72, 0
2, 8640, Note_on_c, 0, 71, 96
2, 9120, Note_on_c, 0, 71, 0
2, 9120, Note_on_c, 0, 69, 81
2, 9239, Note_on_c, 0, 69, 0
2, 9239, Note_on_c, 0, 67, 72
2, 9335, Note_on_c, 0, 67, 0
2, 9360, Note_on_c, 0, 67, 71
2, 9480, Note_on_c, 0, 67, 0
2, 9480, Note_on_c, 0, 64, 76
2, 9599, Note_on_c, 0, 64, 0
2, 9599, Note_on_c, 0, 62, 70
2, 9720, Note_on_c, 0, 62, 0
2, 9720, Note_on_c, 0, 71, 75
2, 9959, Note_on_c, 0, 71, 0
2, 9959, Note_on_c, 0, 72, 92
2, 10055, Note_on_c, 0, 72, 0
2, 10080, Note_on_c, 0, 71, 87
2, 10200, Note_on_c, 0, 71, 0
2, 10200, Note_on_c, 0, 74, 92
2, 10319, Note_on_c, 0, 74, 0
2, 10319, Note_on_c, 0, 76, 96
2, 10415, Note_on_c, 0, 76, 0
2, 10440, Note_on_c, 0, 76, 112
2, 11039, Note_on_c, 0, 76, 0
2, 11039, Note_on_c, 0, 74, 94
2, 11160, Note_on_c, 0, 74, 0
2, 11160, Note_on_c, 0, 72, 100
2, 11399, Note_on_c, 0, 72, 0
2, 11399, Note_on_c, 0, 71, 82
2, 11495, Note_on_c, 0, 71, 0
2, 11520, Note_on_c, 0, 71, 87
2, 11640, Note_on_c, 0, 71, 0
2, 11640, Note_on_c, 0, 74, 92
2, 11759, Note_on_c, 0, 74, 0
2, 11759, Note_on_c, 0, 76, 96
2, 11880, Note_on_c, 0, 76, 0
2, 11880, Note_on_c, 0, 76, 109
2, 12479, Note_on_c, 0, 76, 0
2, 12479, Note_on_c, 0, 74, 90
2, 12600, Note_on_c, 0, 74, 0
2, 12600, Note_on_c, 0, 72, 100
2, 12839, Note_on_c, 0, 72, 0
2, 12839, Note_on_c, 0, 71, 80
2, 12960, Note_on_c, 0, 71, 0
2, 12960, Note_on_c, 0, 71, 87
2, 13140, Note_on_c, 0, 71, 0
2, 13140, Note_on_c, 0, 74, 91
2, 13320, Note_on_c, 0, 74, 0
2, 13320, Note_on_c, 0, 78, 95
2, 13500, Note_on_c, 0, 78, 0
2, 13500, Note_on_c, 0, 79, 99
2, 13680, Note_on_c, 0, 79, 0
2, 13680, Note_on_c, 0, 78, 81
2, 14160, Note_on_c, 0, 78, 0
2, 14160, Note_on_c, 0, 76, 82
2, 14279, Note_on_c, 0, 76, 0
2, 14279, Note_on_c, 0, 74, 75
2, 14400, Note_on_c, 0, 74, 0
2, 14400, Note_on_c, 0, 76, 87
2, 14874, Note_on_c, 0, 76, 0
2, 14940, Note_on_c, 0, 74, 71
2, 15120, Note_on_c, 0, 74, 0
2, 15120, Note_on_c, 0, 72, 75
2, 15300, Note_on_c, 0, 72, 0
2, 15300, Note_on_c, 0, 76, 78
2, 15480, Note_on_c, 0, 76, 0
2, 15480, Note_on_c, 0, 78, 81
2, 15660, Note_on_c, 0, 78, 0
2, 15660, Note_on_c, 0, 79, 84
2, 15840, Note_on_c, 0, 79, 0
2, 15840, Note_on_c, 0, 76, 92
2, 16320, Note_on_c, 0, 76, 0
2, 16320, Note_on_c, 0, 74, 82
2, 16439, Note_on_c, 0, 74, 0
2, 16439, Note_on_c, 0, 72, 76
2, 16560, Note_on_c, 0, 72, 0
2, 16560, Note_on_c, 0, 74, 101
2, 17040, Note_on_c, 0, 74, 0
2, 17040, Note_on_c, 0, 72, 81
2, 17159, Note_on_c, 0, 72, 0
2, 17159, Note_on_c, 0, 71, 74
2, 17280, Note_on_c, 0, 71, 0
2, 17280, Note_on_c, 0, 71, 78
2, 17400, Note_on_c, 0, 71, 0
2, 17400, Note_on_c, 0, 72, 79
2, 17519, Note_on_c, 0, 72, 0
2, 17519, Note_on_c, 0, 71, 73
2, 17640, Note_on_c, 0, 71, 0
2, 17640, Note_on_c, 0, 69, 75
2, 17760, Note_on_c, 0, 69, 0
2, 17760, Note_on_c, 0, 67, 77
2, 17879, Note_on_c, 0, 67, 0
2, 17879, Note_on_c, 0, 69, 79
2, 18000, Note_on_c, 0, 69, 0
2, 18000, Note_on_c, 0, 71, 81
2, 18120, Note_on_c, 0, 71, 0
2, 18120, Note_on_c, 0, 72, 83
2, 18239, Note_on_c, 0, 72, 0
2, 18239, Note_on_c, 0, 76, 85
2, 18360, Note_on_c, 0, 76, 0
2, 18360, Note_on_c, 0, 79, 98
2, 19080, Note_on_c, 0, 79, 0
2, 19080, Note_on_c, 0, 81, 90
2, 19397, Note_on_c, 0, 81, 0
2, 19440, Note_on_c, 0, 83, 94
2, 19757, Note_on_c, 0, 83, 0
2, 19800, Note_on_c, 0, 84, 97
2, 20117, Note_on_c, 0, 84, 0
2, 20160, Note_on_c, 0, 71, 100
2, 20640, Note_on_c, 0, 71, 0
2, 20640, Note_on_c, 0, 69, 96
2, 20759, Note_on_c, 0, 69, 0
2, 20759, Note_on_c, 0, 67, 92
2, 20880, Note_on_c, 0, 67, 0
2, 20880, Note_on_c, 0, 67, 87
2, 21000, Note_on_c, 0, 67, 0
2, 21000, Note_on_c, 0, 64, 83
2, 21119, Note_on_c, 0, 64, 0
2, 21119, Note_on_c, 0, 62, 87
2, 21240, Note_on_c, 0, 62, 0
2, 21240, Note_on_c, 0, 71, 87
2, 21479, Note_on_c, 0, 71, 0
2, 21479, Note_on_c, 0, 72, 102
2, 21600, Note_on_c, 0, 72, 0
2, 21600, Note_on_c, 0, 71, 86
2, 22080, Note_on_c, 0, 71, 0
2, 22080, Note_on_c, 0, 69, 83
2, 22199, Note_on_c, 0, 69, 0
2, 22199, Note_on_c, 0, 67, 79
2, 22320, Note_on_c, 0, 67, 0
2, 22320, Note_on_c, 0, 67, 76
2, 22440, Note_on_c, 0, 67, 0
2, 22440, Note_on_c, 0, 64, 69
2, 22559, Note_on_c, 0, 64, 0
2, 22559, Note_on_c, 0, 62, 75
2, 22680, Note_on_c, 0, 62, 0
2, 22680, Note_on_c, 0, 71, 75
2, 22919, Note_on_c, 0, 71, 0
2, 22919, Note_on_c, 0, 72, 93
2, 23040, Note_on_c, 0, 72, 0
2, 23040, Note_on_c, 0, 71, 87
2, 23160, Note_on_c, 0, 71, 0
2, 23160, Note_on_c, 0, 74, 94
2, 23279, Note_on_c, 0, 74, 0
2, 23279, Note_on_c, 0, 76, 110
2, 23400, Note_on_c, 0, 76, 0
2, 23400, Note_on_c, 0, 76, 105
2, 23999, Note_on_c, 0, 76, 0
2, 23999, Note_on_c, 0, 74, 78
2, 24120, Note_on_c, 0, 74, 0
2, 24120, Note_on_c, 0, 72, 87
2, 24359, Note_on_c, 0, 72, 0
2, 24359, Note_on_c, 0, 71, 73
2, 24480, Note_on_c, 0, 71, 0
2, 24480, Note_on_c, 0, 71, 75
2, 24600, Note_on_c, 0, 71, 0
2, 24600, Note_on_c, 0, 74, 81
2, 24719, Note_on_c, 0, 74, 0
2, 24719, Note_on_c, 0, 76, 98
2, 24840, Note_on_c, 0, 76, 0
2, 24840, Note_on_c, 0, 79, 97
2, 25439, Note_on_c, 0, 79, 0
2, 25439, Note_on_c, 0, 78, 82
2, 25560, Note_on_c, 0, 78, 0
2, 25560, Note_on_c, 0, 76, 87
2, 25799, Note_on_c, 0, 76, 0
2, 25799, Note_on_c, 0, 74, 64
2, 25920, Note_on_c, 0, 74, 0
2, 25920, Note_on_c, 0, 74, 75
2, 26040, Note_on_c, 0, 74, 0
2, 26040, Note_on_c, 0, 78, 81
2, 26159, Note_on_c, 0, 78, 0
2, 26159, Note_on_c, 0, 79, 95
2, 26280, Note_on_c, 0, 79, 0
2, 26280, Note_on_c, 0, 79, 97
2, 26280, Note_on_c, 0, 83, 97
2, 26820, Note_on_c, 0, 83, 0
2, 26820, Note_on_c, 0, 79, 0
2, 26820, Note_on_c, 0, 78, 84
2, 26820, Note_on_c, 0, 81, 84
2, 27000, Note_on_c, 0, 81, 0
2, 27000, Note_on_c, 0, 78, 0
2, 27000, Note_on_c, 0, 79, 96
2, 27000, Note_on_c, 0, 83, 96
2, 27540, Note_on_c, 0, 83, 0
2, 27540, Note_on_c, 0, 79, 0
2, 27540, Note_on_c, 0, 78, 81
2, 27540, Note_on_c, 0, 81, 81
2, 27720, Note_on_c, 0, 81, 0
2, 27720, Note_on_c, 0, 78, 0
2, 27720, Note_on_c, 0, 79, 93
2, 27720, Note_on_c, 0, 83, 93
2, 27900, Note_on_c, 0, 83, 0
2, 27900, Note_on_c, 0, 79, 0
2, 27900, Note_on_c, 0, 78, 83
2, 27900, Note_on_c, 0, 81, 83
2, 28080, Note_on_c, 0, 81, 0
2, 28080, Note_on_c, 0, 78, 0
2, 28080, Note_on_c, 0, 79, 96
2, 28080, Note_on_c, 0, 83, 96
2, 28620, Note_on_c, 0, 83, 0
2, 28620, Note_on_c, 0, 79, 0
2, 28620, Note_on_c, 0, 81, 84
2, 28800, Note_on_c, 0, 81, 0
2, 28800, Note_on_c, 0, 83, 86
2, 28920, Note_on_c, 0, 83, 0
2, 28920, Note_on_c, 0, 81, 84
2, 29039, Note_on_c, 0, 81, 0
2, 29039, Note_on_c, 0, 83, 94
2, 29160, Note_on_c, 0, 83, 0
2, 29160, Note_on_c, 0, 86, 87
2, 29880, Note_on_c, 0, 86, 0
2, 29880, Note_on_c, 0, 86, 91
2, 30600, Note_on_c, 0, 86, 0
2, 30600, Note_on_c, 0, 86, 87
2, 31320, Note_on_c, 0, 86, 0
2, 31320, Note_on_c, 0, 86, 98
2, 31680, Note_on_c, 0, 86, 0
2, 31680, Note_on_c, 0, 87, 109
2, 34200, Note_on_c, 0, 87, 0
2, 34200, Note_on_c, 0, 86, 94
2, 34508, Note_on_c, 0, 86, 0
2, 34508, Note_on_c, 0, 55, 83
2, 34560, Note_on_c, 0, 55, 0
2, 34560, Note_on_c, 0, 74, 117
2, 34560, Note_on_c, 0, 83, 117
2, 35280, Note_on_c, 0, 83, 0
2, 35280, Note_on_c, 0, 74, 0
2, 35280, Note_on_c, 0, 79, 89
2, 35640, Note_on_c, 0, 79, 0
2, 35640, Note_on_c, 0, 74, 88
2, 35954, Note_on_c, 0, 74, 0
2, 35954, Note_on_c, 0, 55, 86
2, 36000, Note_on_c, 0, 55, 0
2, 36000, Note_on_c, 0, 71, 117
2, 36000, Note_on_c, 0, 79, 117
2, 36720, Note_on_c, 0, 79, 0
2, 36720, Note_on_c, 0, 71, 0
2, 36720, Note_on_c, 0, 74, 90
2, 37080, Note_on_c, 0, 74, 0
2, 37080, Note_on_c, 0, 71, 94
2, 37392, Note_on_c, 0, 71, 0
2, 37392, Note_on_c, 0, 55, 84
2, 37440, Note_on_c, 0, 55, 0
2, 37440, Note_on_c, 0, 62, 117
2, 37440, Note_on_c, 0, 74, 117
2, 38160, Note_on_c, 0, 74, 0
2, 38160, Note_on_c, 0, 62, 0
2, 38160, Note_on_c, 0, 71, 101
2, 38520, Note_on_c, 0, 71, 0
2, 38520, Note_on_c, 0, 67, 100
2, 38834, Note_on_c, 0, 67, 0
2, 38834, Note_on_c, 0, 55, 82
2, 38880, Note_on_c, 0, 55, 0
2, 38880, Note_on_c, 0, 62, 117
2, 38880, Note_on_c, 0, 71, 117
2, 39600, Note_on_c, 0, 71, 0
2, 39600, Note_on_c, 0, 62, 0
2, 39600, Note_on_c, 0, 67, 97
2, 39960, Note_on_c, 0, 67, 0
2, 39960, Program_c, 0, 45
2, 39960, Note_on_c, 0, 57, 116
2, 39960, Note_on_c, 0, 67, 116
2, 39960, Note_on_c, 0, 73, 116
2, 40320, Note_on_c, 0, 73, 0
2, 40320, Note_on_c, 0, 67, 0
2, 40320, Note_on_c, 0, 57, 0
2, 40320, Note_on_c, 0, 50, 103
2, 40320, Note_on_c, 0, 57, 103
2, 40320, Note_on_c, 0, 66, 103
2, 40320, Note_on_c, 0, 74, 103
2, 40680, Note_on_c, 0, 74, 0
2, 40680, Note_on_c, 0, 50, 0
2, 40680, Note_on_c, 0, 57, 0
2, 40680, Note_on_c, 0, 66, 0
2, 41400, Program_c, 0, 48
2, 41400, Note_on_c, 0, 78, 90
2, 41520, Note_on_c, 0, 78, 0
2, 41520, Note_on_c, 0, 76, 95
2, 41639, Note_on_c, 0, 76, 0
2, 41639, Note_on_c, 0, 74, 91
2, 41760, Note_on_c, 0, 74, 0
2, 41760, Note_on_c, 0, 74, 104
2, 42120, Note_on_c, 0, 74, 0
2, 42840, Note_on_c, 0, 66, 88
2, 42960, Note_on_c, 0, 66, 0
2, 42960, Note_on_c, 0, 64, 94
2, 43079, Note_on_c, 0, 64, 0
2, 43079, Note_on_c, 0, 62, 96
2, 43200, Note_on_c, 0, 62, 0
2, 43200, Note_on_c, 0, 62, 106
2, 43560, Note_on_c, 0, 62, 0
2, 44280, Note_on_c, 0, 66, 88
2, 44400, Note_on_c, 0, 66, 0
2, 44400, Note_on_c, 0, 64, 96
2, 44519, Note_on_c, 0, 64, 0
2, 44519, Note_on_c, 0, 62, 93
2, 44640, Note_on_c, 0, 62, 0
2, 44640, Note_on_c, 0, 62, 101
2, 45000, Note_on_c, 0, 62, 0
2, 45720, Note_on_c, 0, 54, 92
2, 45840, Note_on_c, 0, 54, 0
2, 45840, Note_on_c, 0, 52, 99
2, 45959, Note_on_c, 0, 52, 0
2, 45959, Note_on_c, 0, 50, 97
2, 46080, Note_on_c, 0, 50, 0
2, 46080, Note_on_c, 0, 50, 98
2, 46440, Note_on_c, 0, 50, 0
2, 51120, Note_on_c, 0, 62, 66
2, 51480, Note_on_c, 0, 62, 0
2, 51480, Note_on_c, 0, 64, 74
2, 51840, Note_on_c, 0, 64, 0
2, 51840, Note_on_c, 0, 66, 76
2, 52920, Note_on_c, 0, 66, 0
2, 52920, Note_on_c, 0, 64, 79
2, 53237, Note_on_c, 0, 64, 0
2, 53280, Note_on_c, 0, 66, 70
2, 54000, Note_on_c, 0, 66, 0
2, 54000, Note_on_c, 0, 67, 86
2, 54158, Note_on_c, 0, 67, 0
2, 54180, Note_on_c, 0, 66, 81
2, 54338, Note_on_c, 0, 66, 0
2, 54360, Note_on_c, 0, 64, 83
2, 54518, Note_on_c, 0, 64, 0
2, 54540, Note_on_c, 0, 62, 78
2, 54698, Note_on_c, 0, 62, 0
2, 54720, Note_on_c, 0, 69, 89
2, 56520, Note_on_c, 0, 69, 0
2, 56520, Note_on_c, 0, 69, 74
2, 56880, Note_on_c, 0, 69, 0
2, 56880, Note_on_c, 0, 71, 74
2, 57240, Note_on_c, 0, 71, 0
2, 57240, Note_on_c, 0, 69, 68
2, 57420, Note_on_c, 0, 69, 0
2, 57420, Note_on_c, 0, 71, 74
2, 57600, Note_on_c, 0, 71, 0
2, 57600, Note_on_c, 0, 67, 72
2, 58500, Note_on_c, 0, 67, 0
2, 58500, Note_on_c, 0, 69, 81
2, 58680, Note_on_c, 0, 69, 0
2, 58680, Note_on_c, 0, 71, 85
2, 58997, Note_on_c, 0, 71, 0
2, 59040, Note_on_c, 0, 66, 68
2, 59940, Note_on_c, 0, 66, 0
2, 59940, Note_on_c, 0, 69, 78
2, 60120, Note_on_c, 0, 69, 0
2, 60120, Note_on_c, 0, 71, 91
2, 60437, Note_on_c, 0, 71, 0
2, 60480, Note_on_c, 0, 64, 66
2, 60660, Note_on_c, 0, 64, 0
2, 60660, Note_on_c, 0, 62, 66
2, 60840, Note_on_c, 0, 62, 0
2, 60840, Note_on_c, 0, 64, 75
2, 61200, Note_on_c, 0, 64, 0
2, 61200, Note_on_c, 0, 66, 76
2, 62640, Note_on_c, 0, 66, 0
2, 62640, Note_on_c, 0, 62, 65
2, 63000, Note_on_c, 0, 62, 0
2, 63000, Note_on_c, 0, 64, 75
2, 63360, Note_on_c, 0, 64, 0
2, 63360, Note_on_c, 0, 66, 77
2, 64440, Note_on_c, 0, 66, 0
2, 64440, Note_on_c, 0, 64, 83
2, 64757, Note_on_c, 0, 64, 0
2, 64800, Note_on_c, 0, 66, 80
2, 65520, Note_on_c, 0, 66, 0
2, 65520, Note_on_c, 0, 67, 90
2, 65678, Note_on_c, 0, 67, 0
2, 65700, Note_on_c, 0, 66, 83
2, 65858, Note_on_c, 0, 66, 0
2, 65880, Note_on_c, 0, 64, 82
2, 66038, Note_on_c, 0, 64, 0
2, 66060, Note_on_c, 0, 62, 86
2, 66218, Note_on_c, 0, 62, 0
2, 66240, Note_on_c, 0, 69, 75
2, 68040, Note_on_c, 0, 69, 0
2, 68040, Note_on_c, 0, 69, 84
2, 68357, Note_on_c, 0, 69, 0
2, 68400, Note_on_c, 0, 74, 80
2, 68760, Note_on_c, 0, 74, 0
2, 68760, Note_on_c, 0, 73, 73
2, 68940, Note_on_c, 0, 73, 0
2, 68940, Note_on_c, 0, 74, 76
2, 69120, Note_on_c, 0, 74, 0
2, 69120, Note_on_c, 0, 71, 70
2, 70020, Note_on_c, 0, 71, 0
2, 70020, Note_on_c, 0, 73, 83
2, 70200, Note_on_c, 0, 73, 0
2, 70200, Note_on_c, 0, 74, 87
2, 70517, Note_on_c, 0, 74, 0
2, 70560, Note_on_c, 0, 69, 73
2, 71460, Note_on_c, 0, 69, 0
2, 71460, Note_on_c, 0, 73, 81
2, 71640, Note_on_c, 0, 73, 0
2, 71640, Note_on_c, 0, 74, 93
2, 71957, Note_on_c, 0, 74, 0
2, 72000, Note_on_c, 0, 67, 69
2, 72180, Note_on_c, 0, 67, 0
2, 72180, Note_on_c, 0, 69, 75
2, 72360, Note_on_c, 0, 69, 0
2, 72360, Note_on_c, 0, 71, 83
2, 72677, Note_on_c, 0, 71, 0
2, 72720, Note_on_c, 0, 66, 69
2, 73620, Note_on_c, 0, 66, 0
2, 73620, Note_on_c, 0, 69, 73
2, 73800, Note_on_c, 0, 69, 0
2, 73800, Note_on_c, 0, 71, 90
2, 74117, Note_on_c, 0, 71, 0
2, 74160, Note_on_c, 0, 64, 65
2, 74340, Note_on_c, 0, 64, 0
2, 74340, Note_on_c, 0, 62, 66
2, 74520, Note_on_c, 0, 62, 0
2, 74520, Note_on_c, 0, 64, 78
2, 74880, Note_on_c, 0, 64, 0
2, 74880, Note_on_c, 0, 66, 75
2, 76680, Note_on_c, 0, 66, 0
2, 80640, Note_on_c, 0, 66, 67
2, 81000, Note_on_c, 0, 66, 0
2, 81000, Note_on_c, 0, 67, 70
2, 81720, Note_on_c, 0, 67, 0
2, 81720, Note_on_c, 0, 69, 77
2, 82440, Note_on_c, 0, 69, 0
2, 82440, Note_on_c, 0, 71, 74
2, 83160, Note_on_c, 0, 71, 0
2, 83160, Note_on_c, 0, 73, 78
2, 83520, Note_on_c, 0, 73, 0
2, 83520, Note_on_c, 0, 74, 79
2, 85320, Note_on_c, 0, 74, 0
2, 85320, Note_on_c, 0, 76, 80
2, 85680, Note_on_c, 0, 76, 0
2, 85680, Note_on_c, 0, 74, 69
2, 86040, Note_on_c, 0, 74, 0
2, 86040, Note_on_c, 0, 76, 73
2, 86400, Note_on_c, 0, 76, 0
2, 86400, Note_on_c, 0, 78, 76
2, 87480, Note_on_c, 0, 78, 0
2, 87480, Note_on_c, 0, 76, 69
2, 87840, Note_on_c, 0, 76, 0
2, 87840, Note_on_c, 0, 78, 77
2, 88560, Note_on_c, 0, 78, 0
2, 88560, Note_on_c, 0, 79, 81
2, 88740, Note_on_c, 0, 79, 0
2, 88740, Note_on_c, 0, 78, 70
2, 88920, Note_on_c, 0, 78, 0
2, 88920, Note_on_c, 0, 76, 68
2, 89100, Note_on_c, 0, 76, 0
2, 89100, Note_on_c, 0, 74, 67
2, 89280, Note_on_c, 0, 74, 0
2, 89280, Note_on_c, 0, 81, 93
2, 91080, Note_on_c, 0, 81, 0
2, 91080, Note_on_c, 0, 81, 73
2, 91440, Note_on_c, 0, 81, 0
2, 91440, Note_on_c, 0, 83, 77
2, 91800, Note_on_c, 0, 83, 0
2, 91800, Note_on_c, 0, 81, 69
2, 91980, Note_on_c, 0, 81, 0
2, 91980, Note_on_c, 0, 83, 80
2, 92160, Note_on_c, 0, 83, 0
2, 92160, Note_on_c, 0, 79, 64
2, 93060, Note_on_c, 0, 79, 0
2, 93060, Note_on_c, 0, 81, 79
2, 93240, Note_on_c, 0, 81, 0
2, 93240, Note_on_c, 0, 83, 82
2, 93600, Note_on_c, 0, 83, 0
2, 93600, Note_on_c, 0, 78, 62
2, 94500, Note_on_c, 0, 78, 0
2, 94500, Note_on_c, 0, 81, 83
2, 94680, Note_on_c, 0, 81, 0
2, 94680, Note_on_c, 0, 83, 76
2, 95040, Note_on_c, 0, 83, 0
2, 95040, Note_on_c, 0, 76, 58
2, 95220, Note_on_c, 0, 76, 0
2, 95220, Note_on_c, 0, 74, 61
2, 95400, Note_on_c, 0, 74, 0
2, 95400, Note_on_c, 0, 76, 74
2, 95760, Note_on_c, 0, 76, 0
2, 95760, Note_on_c, 0, 78, 83
2, 96660, Note_on_c, 0, 78, 0
2, 100080, Note_on_c, 0, 62, 63
2, 100440, Note_on_c, 0, 62, 0
2, 100440, Note_on_c, 0, 64, 73
2, 100800, Note_on_c, 0, 64, 0
2, 100800, Note_on_c, 0, 66, 78
2, 101880, Note_on_c, 0, 66, 0
2, 101880, Note_on_c, 0, 64, 69
2, 102240, Note_on_c, 0, 64, 0
2, 102240, Note_on_c, 0, 66, 75
2, 102600, Note_on_c, 0, 66, 0
2, 102600, Note_on_c, 0, 69, 74
2, 102960, Note_on_c, 0, 69, 0
2, 102960, Note_on_c, 0, 74, 86
2, 103320, Note_on_c, 0, 74, 0
2, 103320, Note_on_c, 0, 73, 71
2, 103680, Note_on_c, 0, 73, 0
2, 103680, Note_on_c, 0, 71, 65
2, 104220, Note_on_c, 0, 71, 0
2, 104220, Note_on_c, 0, 69, 72
2, 104400, Note_on_c, 0, 69, 0
2, 104400, Note_on_c, 0, 67, 71
2, 104580, Note_on_c, 0, 67, 0
2, 104580, Note_on_c, 0, 66, 75
2, 104760, Note_on_c, 0, 66, 0
2, 104760, Note_on_c, 0, 64, 77
2, 105120, Note_on_c, 0, 64, 0
2, 105120, Note_on_c, 0, 71, 79
2, 105840, Note_on_c, 0, 71, 0
2, 105840, Note_on_c, 0, 78, 89
2, 106200, Note_on_c, 0, 78, 0
2, 106200, Note_on_c, 0, 76, 67
2, 106560, Note_on_c, 0, 76, 0
2, 106560, Note_on_c, 0, 74, 72
2, 107100, Note_on_c, 0, 74, 0
2, 107100, Note_on_c, 0, 73, 67
2, 107280, Note_on_c, 0, 73, 0
2, 107280, Note_on_c, 0, 71, 71
2, 107460, Note_on_c, 0, 71, 0
2, 107460, Note_on_c, 0, 69, 76
2, 107640, Note_on_c, 0, 69, 0
2, 107640, Note_on_c, 0, 67, 73
2, 108000, Note_on_c, 0, 67, 0
2, 108000, Note_on_c, 0, 74, 84
2, 108720, Note_on_c, 0, 74, 0
2, 108720, Note_on_c, 0, 81, 90
2, 109080, Note_on_c, 0, 81, 0
2, 109080, Note_on_c, 0, 79, 72
2, 109260, Note_on_c, 0, 79, 0
2, 109260, Note_on_c, 0, 78, 71
2, 109440, Note_on_c, 0, 78, 0
2, 109440, Note_on_c, 0, 78, 76
2, 110160, Note_on_c, 0, 78, 0
2, 110160, Note_on_c, 0, 78, 74
2, 110520, Note_on_c, 0, 78, 0
2, 110520, Note_on_c, 0, 76, 68
2, 110700, Note_on_c, 0, 76, 0
2, 110700, Note_on_c, 0, 74, 69
2, 110880, Note_on_c, 0, 74, 0
2, 110880, Note_on_c, 0, 76, 80
2, 111420, Note_on_c, 0, 76, 0
2, 111420, Note_on_c, 0, 78, 76
2, 111600, Note_on_c, 0, 78, 0
2, 111600, Note_on_c, 0, 74, 66
2, 112680, Note_on_c, 0, 74, 0
2, 112680, Note_on_c, 0, 73, 70
2, 112860, Note_on_c, 0, 73, 0
2, 112860, Note_on_c, 0, 71, 74
2, 113040, Note_on_c, 0, 71, 0
2, 113040, Note_on_c, 0, 74, 73
2, 114120, Note_on_c, 0, 74, 0
2, 114120, Note_on_c, 0, 72, 55
2, 114300, Note_on_c, 0, 72, 0
2, 114300, Note_on_c, 0, 70, 59
2, 114480, Note_on_c, 0, 70, 0
2, 114480, Note_on_c, 0, 72, 64
2, 114840, Note_on_c, 0, 72, 0
2, 114840, Note_on_c, 0, 70, 66
2, 115020, Note_on_c, 0, 70, 0
2, 115020, Note_on_c, 0, 69, 60
2, 115200, Note_on_c, 0, 69, 0
2, 115200, Note_on_c, 0, 70, 60
2, 115560, Note_on_c, 0, 70, 0
2, 115560, Note_on_c, 0, 69, 60
2, 115740, Note_on_c, 0, 69, 0
2, 115740, Note_on_c, 0, 67, 64
2, 115920, Note_on_c, 0, 67, 0
2, 115920, Note_on_c, 0, 69, 52
2, 117360, Note_on_c, 0, 69, 0
2, 117360, Note_on_c, 0, 81, 50
2, 118080, Note_on_c, 0, 81, 0
2, 118080, Note_on_c, 0, 83, 115
2, 120240, Note_on_c, 0, 83, 0
2, 120240, Note_on_c, 0, 71, 88
2, 121320, Note_on_c, 0, 71, 0
2, 121320, Note_on_c, 0, 73, 106
2, 121680, Note_on_c, 0, 73, 0
2, 121680, Note_on_c, 0, 50, 107
2, 121680, Note_on_c, 0, 57, 107
2, 121680, Note_on_c, 0, 66, 107
2, 121680, Note_on_c, 0, 74, 107
2, 122040, Note_on_c, 0, 74, 0
2, 122040, Note_on_c, 0, 50, 0
2, 122040, Note_on_c, 0, 57, 0
2, 122040, Note_on_c, 0, 66, 0
2, 131760, Note_on_c, 0, 65, 68
2, 131880, Note_on_c, 0, 65, 0
2, 131880, Note_on_c, 0, 64, 73
2, 131999, Note_on_c, 0, 64, 0
2, 131999, Note_on_c, 0, 62, 70
2, 132120, Note_on_c, 0, 62, 0
2, 132120, Note_on_c, 0, 62, 74
2, 132480, Note_on_c, 0, 62, 0
2, 133200, Note_on_c, 0, 65, 61
2, 133320, Note_on_c, 0, 65, 0
2, 133320, Note_on_c, 0, 64, 66
2, 133439, Note_on_c, 0, 64, 0
2, 133439, Note_on_c, 0, 62, 74
2, 133560, Note_on_c, 0, 62, 0
2, 133560, Note_on_c, 0, 62, 74
2, 133920, Note_on_c, 0, 62, 0
2, 137520, Note_on_c, 0, 78, 94
2, 137640, Note_on_c, 0, 78, 0
2, 137640, Note_on_c, 0, 75, 65
2, 137759, Note_on_c, 0, 75, 0
2, 137759, Note_on_c, 0, 74, 66
2, 137880, Note_on_c, 0, 74, 0
2, 137880, Note_on_c, 0, 74, 71
2, 138240, Note_on_c, 0, 74, 0
2, 138960, Note_on_c, 0, 66, 94
2, 139080, Note_on_c, 0, 66, 0
2, 139080, Note_on_c, 0, 63, 70
2, 139199, Note_on_c, 0, 63, 0
2, 139199, Note_on_c, 0, 62, 69
2, 139320, Note_on_c, 0, 62, 0
2, 139320, Note_on_c, 0, 62, 78
2, 139680, Note_on_c, 0, 62, 0
2, 141480, Note_on_c, 0, 67, 34
2, 141600, Note_on_c, 0, 67, 0
2, 141600, Note_on_c, 0, 69, 40
2, 141719, Note_on_c, 0, 69, 0
2, 141719, Note_on_c, 0, 71, 39
2, 141840, Note_on_c, 0, 71, 0
2, 141840, Note_on_c, 0, 72, 46
2, 141929, Note_on_c, 0, 72, 0
2, 142020, Note_on_c, 0, 63, 32
2, 142109, Note_on_c, 0, 63, 0
2, 142200, Note_on_c, 0, 71, 42
2, 142289, Note_on_c, 0, 71, 0
2, 142380, Note_on_c, 0, 63, 38
2, 142469, Note_on_c, 0, 63, 0
2, 142560, Note_on_c, 0, 70, 42
2, 142649, Note_on_c, 0, 70, 0
2, 142740, Note_on_c, 0, 63, 35
2, 142829, Note_on_c, 0, 63, 0
2, 142920, Note_on_c, 0, 71, 43
2, 143009, Note_on_c, 0, 71, 0
2, 143100, Note_on_c, 0, 63, 41
2, 143189, Note_on_c, 0, 63, 0
2, 143280, Note_on_c, 0, 72, 51
2, 143369, Note_on_c, 0, 72, 0
2, 143460, Note_on_c, 0, 63, 39
2, 143549, Note_on_c, 0, 63, 0
2, 143640, Note_on_c, 0, 71, 44
2, 143729, Note_on_c, 0, 71, 0
2, 143820, Note_on_c, 0, 63, 37
2, 143909, Note_on_c, 0, 63, 0
2, 144000, Note_on_c, 0, 70, 49
2, 144089, Note_on_c, 0, 70, 0
2, 144180, Note_on_c, 0, 63, 36
2, 144269, Note_on_c, 0, 63, 0
2, 144360, Note_on_c, 0, 71, 46
2, 144449, Note_on_c, 0, 71, 0
2, 144540, Note_on_c, 0, 63, 41
2, 144629, Note_on_c, 0, 63, 0
2, 144720, Note_on_c, 0, 72, 40
2, 144900, Note_on_c, 0, 72, 0
2, 145080, Note_on_c, 0, 66, 41
2, 145169, Note_on_c, 0, 66, 0
2, 145260, Note_on_c, 0, 67, 42
2, 145349, Note_on_c, 0, 67, 0
2, 145440, Note_on_c, 0, 72, 42
2, 145620, Note_on_c, 0, 72, 0
2, 145800, Note_on_c, 0, 71, 43
2, 145889, Note_on_c, 0, 71, 0
2, 145980, Note_on_c, 0, 72, 44
2, 146069, Note_on_c, 0, 72, 0
2, 146160, Note_on_c, 0, 75, 45
2, 146340, Note_on_c, 0, 75, 0
2, 146520, Note_on_c, 0, 74, 46
2, 146609, Note_on_c, 0, 74, 0
2, 146700, Note_on_c, 0, 75, 46
2, 146789, Note_on_c, 0, 75, 0
2, 146880, Note_on_c, 0, 79, 47
2, 147960, Note_on_c, 0, 79, 0
2, 147960, Note_on_c, 0, 80, 50
2, 148680, Note_on_c, 0, 80, 0
2, 148680, Note_on_c, 0, 81, 52
2, 149040, Note_on_c, 0, 81, 0
2, 149040, Note_on_c, 0, 82, 54
2, 150480, Note_on_c, 0, 82, 0
2, 152280, Note_on_c, 0, 72, 76
2, 152400, Note_on_c, 0, 72, 0
2, 152400, Note_on_c, 0, 75, 96
2, 152519, Note_on_c, 0, 75, 0
2, 152519, Note_on_c, 0, 77, 91
2, 152640, Note_on_c, 0, 77, 0
2, 152640, Note_on_c, 0, 77, 112
2, 153000, Note_on_c, 0, 77, 0
2, 153000, Note_on_c, 0, 65, 101
2, 153360, Note_on_c, 0, 65, 0
2, 153360, Note_on_c, 0, 58, 103
2, 153720, Note_on_c, 0, 58, 0
2, 154800, Note_on_c, 0, 61, 70
2, 154920, Note_on_c, 0, 61, 0
2, 154920, Note_on_c, 0, 60, 47
2, 155039, Note_on_c, 0, 60, 0
2, 155039, Note_on_c, 0, 58, 42
2, 155160, Note_on_c, 0, 58, 0
2, 155160, Note_on_c, 0, 58, 53
2, 155520, Note_on_c, 0, 58, 0
2, 156240, Note_on_c, 0, 61, 72
2, 156360, Note_on_c, 0, 61, 0
2, 156360, Note_on_c, 0, 60, 51
2, 156479, Note_on_c, 0, 60, 0
2, 156479, Note_on_c, 0, 58, 51
2, 156600, Note_on_c, 0, 58, 0
2, 156600, Note_on_c, 0, 58, 49
2, 156960, Note_on_c, 0, 58, 0
2, 160560, Note_on_c, 0, 74, 64
2, 160680, Note_on_c, 0, 74, 0
2, 160680, Note_on_c, 0, 71, 46
2, 160799, Note_on_c, 0, 71, 0
2, 160799, Note_on_c, 0, 70, 49
2, 160920, Note_on_c, 0, 70, 0
2, 160920, Note_on_c, 0, 70, 49
2, 161280, Note_on_c, 0, 70, 0
2, 162000, Note_on_c, 0, 62, 70
2, 162120, Note_on_c, 0, 62, 0
2, 162120, Note_on_c, 0, 59, 44
2, 162239, Note_on_c, 0, 59, 0
2, 162239, Note_on_c, 0, 58, 53
2, 162360, Note_on_c, 0, 58, 0
2, 162360, Note_on_c, 0, 58, 49
2, 162720, Note_on_c, 0, 58, 0
2, 164520, Note_on_c, 0, 63, 44
2, 164640, Note_on_c, 0, 63, 0
2, 164640, Note_on_c, 0, 65, 50
2, 164759, Note_on_c, 0, 65, 0
2, 164759, Note_on_c, 0, 67, 51
2, 164880, Note_on_c, 0, 67, 0
2, 164880, Note_on_c, 0, 68, 57
2, 164969, Note_on_c, 0, 68, 0
2, 165060, Note_on_c, 0, 59, 42
2, 165149, Note_on_c, 0, 59, 0
2, 165240, Note_on_c, 0, 67, 57
2, 165329, Note_on_c, 0, 67, 0
2, 165420, Note_on_c, 0, 59, 47
2, 165509, Note_on_c, 0, 59, 0
2, 165600, Note_on_c, 0, 66, 56
2, 165689, Note_on_c, 0, 66, 0
2, 165780, Note_on_c, 0, 59, 47
2, 165869, Note_on_c, 0, 59, 0
2, 165960, Note_on_c, 0, 67, 52
2, 166049, Note_on_c, 0, 67, 0
2, 166140, Note_on_c, 0, 59, 44
2, 166229, Note_on_c, 0, 59, 0
2, 166320, Note_on_c, 0, 68, 55
2, 166409, Note_on_c, 0, 68, 0
2, 166500, Note_on_c, 0, 59, 48
2, 166589, Note_on_c, 0, 59, 0
2, 166680, Note_on_c, 0, 67, 56
2, 166769, Note_on_c, 0, 67, 0
2, 166860, Note_on_c, 0, 59, 48
2, 166949, Note_on_c, 0, 59, 0
2, 167040, Note_on_c, 0, 66, 54
2, 167129, Note_on_c, 0, 66, 0
2, 167220, Note_on_c, 0, 59, 48
2, 167309, Note_on_c, 0, 59, 0
2, 167400, Note_on_c, 0, 67, 55
2, 167489, Note_on_c, 0, 67, 0
2, 167580, Note_on_c, 0, 59, 44
2, 167669, Note_on_c, 0, 59, 0
2, 167760, Note_on_c, 0, 68, 55
2, 167940, Note_on_c, 0, 68, 0
2, 168120, Note_on_c, 0, 62, 47
2, 168209, Note_on_c, 0, 62, 0
2, 168300, Note_on_c, 0, 63, 52
2, 168389, Note_on_c, 0, 63, 0
2, 168480, Note_on_c, 0, 68, 53
2, 168660, Note_on_c, 0, 68, 0
2, 168840, Note_on_c, 0, 67, 45
2, 168929, Note_on_c, 0, 67, 0
2, 169020, Note_on_c, 0, 68, 50
2, 169109, Note_on_c, 0, 68, 0
2, 169200, Note_on_c, 0, 71, 52
2, 169380, Note_on_c, 0, 71, 0
2, 169560, Note_on_c, 0, 70, 40
2, 169649, Note_on_c, 0, 70, 0
2, 169740, Note_on_c, 0, 71, 54
2, 169829, Note_on_c, 0, 71, 0
2, 169920, Note_on_c, 0, 75, 60
2, 171000, Note_on_c, 0, 75, 0
2, 171000, Note_on_c, 0, 76, 50
2, 171720, Note_on_c, 0, 76, 0
2, 171720, Note_on_c, 0, 77, 71
2, 172080, Note_on_c, 0, 77, 0
2, 172080, Note_on_c, 0, 78, 96
2, 173520, Note_on_c, 0, 78, 0
2, 175320, Note_on_c, 0, 68, 81
2, 175440, Note_on_c, 0, 68, 0
2, 175440, Note_on_c, 0, 71, 86
2, 175559, Note_on_c, 0, 71, 0
2, 175559, Note_on_c, 0, 73, 94
2, 175680, Note_on_c, 0, 73, 0
2, 175680, Note_on_c, 0, 73, 115
2, 176040, Note_on_c, 0, 73, 0
2, 176040, Note_on_c, 0, 61, 102
2, 176400, Note_on_c, 0, 61, 0
2, 176400, Note_on_c, 0, 66, 112
2, 176760, Note_on_c, 0, 66, 0
2, 178200, Note_on_c, 0, 66, 79
2, 178320, Note_on_c, 0, 66, 0
2, 178320, Note_on_c, 0, 69, 89
2, 178439, Note_on_c, 0, 69, 0
2, 178439, Note_on_c, 0, 71, 90
2, 178560, Note_on_c, 0, 71, 0
2, 178560, Note_on_c, 0, 71, 110
2, 178920, Note_on_c, 0, 71, 0
2, 178920, Note_on_c, 0, 59, 100
2, 179280, Note_on_c, 0, 59, 0
2, 179280, Note_on_c, 0, 64, 117
2, 179640, Note_on_c, 0, 64, 0
2, 181080, Note_on_c, 0, 64, 82
2, 181200, Note_on_c, 0, 64, 0
2, 181200, Note_on_c, 0, 67, 88
2, 181319, Note_on_c, 0, 67, 0
2, 181319, Note_on_c, 0, 69, 92
2, 181440, Note_on_c, 0, 69, 0
2, 181440, Note_on_c, 0, 69, 112
2, 181800, Note_on_c, 0, 69, 0
2, 181800, Note_on_c, 0, 57, 100
2, 182160, Note_on_c, 0, 57, 0
2, 182160, Note_on_c, 0, 62, 110
2, 182520, Note_on_c, 0, 62, 0
2, 182520, Note_on_c, 0, 50, 47
2, 182640, Note_on_c, 0, 50, 0
2, 182640, Note_on_c, 0, 52, 48
2, 182759, Note_on_c, 0, 52, 0
2, 182759, Note_on_c, 0, 54, 51
2, 182880, Note_on_c, 0, 54, 0
2, 182880, Note_on_c, 0, 55, 47
2, 182969, Note_on_c, 0, 55, 0
2, 183060, Note_on_c, 0, 57, 54
2, 183149, Note_on_c, 0, 57, 0
2, 183240, Note_on_c, 0, 58, 79
2, 183960, Note_on_c, 0, 58, 0
2, 183960, Note_on_c, 0, 54, 50
2, 184080, Note_on_c, 0, 54, 0
2, 184080, Note_on_c, 0, 56, 51
2, 184199, Note_on_c, 0, 56, 0
2, 184199, Note_on_c, 0, 58, 51
2, 184320, Note_on_c, 0, 58, 0
2, 184320, Note_on_c, 0, 59, 51
2, 184409, Note_on_c, 0, 59, 0
2, 184500, Note_on_c, 0, 61, 52
2, 184589, Note_on_c, 0, 61, 0
2, 184680, Note_on_c, 0, 62, 52
2, 185400, Note_on_c, 0, 62, 0
2, 185400, Note_on_c, 0, 58, 54
2, 185520, Note_on_c, 0, 58, 0
2, 185520, Note_on_c, 0, 60, 54
2, 185639, Note_on_c, 0, 60, 0
2, 185639, Note_on_c, 0, 62, 54
2, 185760, Note_on_c, 0, 62, 0
2, 185760, Note_on_c, 0, 63, 55
2, 185940, Note_on_c, 0, 63, 0
2, 185940, Note_on_c, 0, 65, 55
2, 186120, Note_on_c, 0, 65, 0
2, 186120, Note_on_c, 0, 66, 56
2, 186840, Note_on_c, 0, 66, 0
2, 186840, Note_on_c, 0, 62, 57
2, 186960, Note_on_c, 0, 62, 0
2, 186960, Note_on_c, 0, 64, 58
2, 187079, Note_on_c, 0, 64, 0
2, 187079, Note_on_c, 0, 66, 58
2, 187200, Note_on_c, 0, 66, 0
2, 187200, Note_on_c, 0, 67, 58
2, 187380, Note_on_c, 0, 67, 0
2, 187380, Note_on_c, 0, 69, 59
2, 187560, Note_on_c, 0, 69, 0
2, 187560, Note_on_c, 0, 70, 59
2, 187920, Note_on_c, 0, 70, 0
2, 187920, Note_on_c, 0, 66, 60
2, 188280, Note_on_c, 0, 66, 0
2, 188280, Note_on_c, 0, 74, 61
2, 188640, Note_on_c, 0, 74, 0
2, 188640, Note_on_c, 0, 70, 61
2, 189000, Note_on_c, 0, 70, 0
2, 189000, Note_on_c, 0, 78, 62
2, 189360, Note_on_c, 0, 78, 0
2, 189360, Note_on_c, 0, 66, 86
2, 189480, Note_on_c, 0, 66, 0
2, 189480, Note_on_c, 0, 67, 100
2, 189599, Note_on_c, 0, 67, 0
2, 189599, Note_on_c, 0, 69, 111
2, 189720, Note_on_c, 0, 69, 0
2, 189720, Note_on_c, 0, 70, 107
2, 190080, Note_on_c, 0, 70, 0
2, 190080, Note_on_c, 0, 78, 116
2, 190200, Note_on_c, 0, 78, 0
2, 190200, Note_on_c, 0, 79, 116
2, 190319, Note_on_c, 0, 79, 0
2, 190319, Note_on_c, 0, 81, 113
2, 190440, Note_on_c, 0, 81, 0
2, 190440, Note_on_c, 0, 82, 109
2, 190800, Note_on_c, 0, 82, 0
2, 190800, Note_on_c, 0, 66, 90
2, 190920, Note_on_c, 0, 66, 0
2, 190920, Note_on_c, 0, 67, 99
2, 191039, Note_on_c, 0, 67, 0
2, 191039, Note_on_c, 0, 69, 106
2, 191160, Note_on_c, 0, 69, 0
2, 191160, Note_on_c, 0, 70, 111
2, 191520, Note_on_c, 0, 70, 0
2, 191520, Note_on_c, 0, 78, 116
2, 191640, Note_on_c, 0, 78, 0
2, 191640, Note_on_c, 0, 79, 114
2, 191759, Note_on_c, 0, 79, 0
2, 191759, Note_on_c, 0, 81, 109
2, 191880, Note_on_c, 0, 81, 0
2, 191880, Note_on_c, 0, 82, 109
2, 192240, Note_on_c, 0, 82, 0
2, 192240, Note_on_c, 0, 50, 112
2, 192240, Note_on_c, 0, 57, 112
2, 192240, Note_on_c, 0, 66, 112
2, 192240, Note_on_c, 0, 74, 112
2, 192600, Note_on_c, 0, 74, 0
2, 192600, Note_on_c, 0, 50, 0
2, 192600, Note_on_c, 0, 57, 0
2, 192600, Note_on_c, 0, 66, 0
2, 199800, Note_on_c, 0, 66, 48
2, 199920, Note_on_c, 0, 66, 0
2, 199920, Note_on_c, 0, 69, 50
2, 200039, Note_on_c, 0, 69, 0
2, 200039, Note_on_c, 0, 71, 50
2, 200160, Note_on_c, 0, 71, 0
2, 200160, Note_on_c, 0, 71, 52
2, 200280, Note_on_c, 0, 71, 0
2, 200280, Note_on_c, 0, 69, 51
2, 200399, Note_on_c, 0, 69, 0
2, 200399, Note_on_c, 0, 66, 47
2, 200520, Note_on_c, 0, 66, 0
2, 200520, Note_on_c, 0, 69, 56
2, 200640, Note_on_c, 0, 69, 0
2, 200640, Note_on_c, 0, 66, 46
2, 200759, Note_on_c, 0, 66, 0
2, 200759, Note_on_c, 0, 61, 47
2, 200880, Note_on_c, 0, 61, 0
2, 200880, Note_on_c, 0, 66, 52
2, 201240, Note_on_c, 0, 66, 0
2, 201240, Note_on_c, 0, 57, 47
2, 201360, Note_on_c, 0, 57, 0
2, 201360, Note_on_c, 0, 56, 49
2, 201479, Note_on_c, 0, 56, 0
2, 201479, Note_on_c, 0, 54, 48
2, 201600, Note_on_c, 0, 54, 0
2, 201600, Note_on_c, 0, 54, 55
2, 201960, Note_on_c, 0, 54, 0
2, 202680, Program_c, 0, 45
2, 202680, Note_on_c, 0, 69, 41
2, 203040, Note_on_c, 0, 69, 0
2, 203040, Note_on_c, 0, 66, 46
2, 203400, Note_on_c, 0, 66, 0
2, 204480, Program_c, 0, 48
2, 204480, Note_on_c, 0, 54, 45
2, 204600, Note_on_c, 0, 54, 0
2, 204600, Note_on_c, 0, 64, 55
2, 204719, Note_on_c, 0, 64, 0
2, 204719, Note_on_c, 0, 72, 60
2, 204840, Note_on_c, 0, 72, 0
2, 204840, Note_on_c, 0, 72, 67
2, 204944, Note_on_c, 0, 72, 0
2, 204960, Note_on_c, 0, 64, 42
2, 205079, Note_on_c, 0, 64, 0
2, 205079, Note_on_c, 0, 54, 41
2, 205200, Note_on_c, 0, 54, 0
2, 205200, Note_on_c, 0, 54, 53
2, 205320, Note_on_c, 0, 54, 0
2, 205320, Note_on_c, 0, 64, 60
2, 205439, Note_on_c, 0, 64, 0
2, 205439, Note_on_c, 0, 71, 54
2, 205560, Note_on_c, 0, 71, 0
2, 205560, Note_on_c, 0, 71, 64
2, 205664, Note_on_c, 0, 71, 0
2, 205680, Note_on_c, 0, 64, 48
2, 205799, Note_on_c, 0, 64, 0
2, 205799, Note_on_c, 0, 54, 50
2, 205920, Note_on_c, 0, 54, 0
2, 205920, Note_on_c, 0, 54, 52
2, 206040, Note_on_c, 0, 54, 0
2, 206040, Note_on_c, 0, 64, 59
2, 206159, Note_on_c, 0, 64, 0
2, 206159, Note_on_c, 0, 69, 58
2, 206280, Note_on_c, 0, 69, 0
2, 206280, Note_on_c, 0, 69, 62
2, 206384, Note_on_c, 0, 69, 0
2, 206400, Note_on_c, 0, 64, 45
2, 206519, Note_on_c, 0, 64, 0
2, 206519, Note_on_c, 0, 54, 38
2, 206640, Note_on_c, 0, 54, 0
2, 206640, Note_on_c, 0, 54, 47
2, 206760, Note_on_c, 0, 54, 0
2, 206760, Note_on_c, 0, 63, 55
2, 206879, Note_on_c, 0, 63, 0
2, 206879, Note_on_c, 0, 71, 60
2, 207000, Note_on_c, 0, 71, 0
2, 207000, Note_on_c, 0, 71, 62
2, 207158, Note_on_c, 0, 71, 0
2, 207720, Program_c, 0, 45
2, 207720, Note_on_c, 0, 57, 42
2, 208080, Note_on_c, 0, 57, 0
2, 208080, Note_on_c, 0, 54, 49
2, 208440, Note_on_c, 0, 54, 0
2, 208440, Program_c, 0, 48
2, 208440, Note_on_c, 0, 66, 62
2, 208560, Note_on_c, 0, 66, 0
2, 208560, Note_on_c, 0, 69, 50
2, 208679, Note_on_c, 0, 69, 0
2, 208679, Note_on_c, 0, 71, 49
2, 208800, Note_on_c, 0, 71, 0
2, 208800, Note_on_c, 0, 71, 50
2, 208920, Note_on_c, 0, 71, 0
2, 208920, Note_on_c, 0, 69, 51
2, 209039, Note_on_c, 0, 69, 0
2, 209039, Note_on_c, 0, 66, 49
2, 209160, Note_on_c, 0, 66, 0
2, 209160, Note_on_c, 0, 67, 52
2, 209280, Note_on_c, 0, 67, 0
2, 209280, Note_on_c, 0, 66, 50
2, 209399, Note_on_c, 0, 66, 0
2, 209399, Note_on_c, 0, 59, 44
2, 209520, Note_on_c, 0, 59, 0
2, 209520, Note_on_c, 0, 64, 57
2, 209880, Note_on_c, 0, 64, 0
2, 209880, Note_on_c, 0, 55, 42
2, 210000, Note_on_c, 0, 55, 0
2, 210000, Note_on_c, 0, 54, 44
2, 210119, Note_on_c, 0, 54, 0
2, 210119, Note_on_c, 0, 52, 49
2, 210240, Note_on_c, 0, 52, 0
2, 210240, Note_on_c, 0, 52, 48
2, 210600, Note_on_c, 0, 52, 0
2, 211320, Program_c, 0, 45
2, 211320, Note_on_c, 0, 67, 47
2, 211680, Note_on_c, 0, 67, 0
2, 211680, Note_on_c, 0, 64, 51
2, 212040, Note_on_c, 0, 64, 0
2, 212400, Note_on_c, 0, 59, 42
2, 212400, Note_on_c, 0, 66, 42
2, 212400, Note_on_c, 0, 74, 42
2, 212760, Note_on_c, 0, 74, 0
2, 212760, Note_on_c, 0, 66, 0
2, 212760, Note_on_c, 0, 59, 0
2, 219960, Program_c, 0, 48
2, 219960, Note_on_c, 0, 62, 44
2, 220080, Note_on_c, 0, 62, 0
2, 220080, Note_on_c, 0, 65, 52
2, 220199, Note_on_c, 0, 65, 0
2, 220199, Note_on_c, 0, 67, 57
2, 220320, Note_on_c, 0, 67, 0
2, 220320, Note_on_c, 0, 67, 54
2, 220440, Note_on_c, 0, 67, 0
2, 220440, Note_on_c, 0, 65, 48
2, 220559, Note_on_c, 0, 65, 0
2, 220559, Note_on_c, 0, 62, 50
2, 220680, Note_on_c, 0, 62, 0
2, 220680, Note_on_c, 0, 65, 53
2, 220800, Note_on_c, 0, 65, 0
2, 220800, Note_on_c, 0, 62, 50
2, 220919, Note_on_c, 0, 62, 0
2, 220919, Note_on_c, 0, 57, 44
2, 221040, Note_on_c, 0, 57, 0
2, 221040, Note_on_c, 0, 62, 54
2, 221400, Note_on_c, 0, 62, 0
2, 221400, Note_on_c, 0, 53, 51
2, 221520, Note_on_c, 0, 53, 0
2, 221520, Note_on_c, 0, 52, 44
2, 221639, Note_on_c, 0, 52, 0
2, 221639, Note_on_c, 0, 50, 53
2, 221760, Note_on_c, 0, 50, 0
2, 221760, Note_on_c, 0, 50, 50
2, 222120, Note_on_c, 0, 50, 0
2, 222840, Program_c, 0, 45
2, 222840, Note_on_c, 0, 65, 41
2, 223200, Note_on_c, 0, 65, 0
2, 223200, Note_on_c, 0, 62, 48
2, 223560, Note_on_c, 0, 62, 0
2, 224640, Program_c, 0, 48
2, 224640, Note_on_c, 0, 50, 46
2, 224760, Note_on_c, 0, 50, 0
2, 224760, Note_on_c, 0, 60, 60
2, 224879, Note_on_c, 0, 60, 0
2, 224879, Note_on_c, 0, 68, 53
2, 225000, Note_on_c, 0, 68, 0
2, 225000, Note_on_c, 0, 68, 65
2, 225104, Note_on_c, 0, 68, 0
2, 225120, Note_on_c, 0, 60, 43
2, 225239, Note_on_c, 0, 60, 0
2, 225239, Note_on_c, 0, 50, 41
2, 225360, Note_on_c, 0, 50, 0
2, 225360, Note_on_c, 0, 50, 44
2, 225480, Note_on_c, 0, 50, 0
2, 225480, Note_on_c, 0, 60, 60
2, 225599, Note_on_c, 0, 60, 0
2, 225599, Note_on_c, 0, 67, 57
2, 225720, Note_on_c, 0, 67, 0
2, 225720, Note_on_c, 0, 67, 60
2, 225824, Note_on_c, 0, 67, 0
2, 225840, Note_on_c, 0, 60, 45
2, 225959, Note_on_c, 0, 60, 0
2, 225959, Note_on_c, 0, 50, 37
2, 226080, Note_on_c, 0, 50, 0
2, 226080, Note_on_c, 0, 50, 49
2, 226200, Note_on_c, 0, 50, 0
2, 226200, Note_on_c, 0, 60, 61
2, 226319, Note_on_c, 0, 60, 0
2, 226319, Note_on_c, 0, 65, 51
2, 226440, Note_on_c, 0, 65, 0
2, 226440, Note_on_c, 0, 65, 60
2, 226544, Note_on_c, 0, 65, 0
2, 226560, Note_on_c, 0, 60, 49
2, 226679, Note_on_c, 0, 60, 0
2, 226679, Note_on_c, 0, 50, 47
2, 226800, Note_on_c, 0, 50, 0
2, 226800, Note_on_c, 0, 50, 52
2, 226920, Note_on_c, 0, 50, 0
2, 226920, Note_on_c, 0, 59, 56
2, 227039, Note_on_c, 0, 59, 0
2, 227039, Note_on_c, 0, 67, 59
2, 227160, Note_on_c, 0, 67, 0
2, 227160, Note_on_c, 0, 67, 66
2, 227318, Note_on_c, 0, 67, 0
2, 227880, Program_c, 0, 45
2, 227880, Note_on_c, 0, 53, 47
2, 228240, Note_on_c, 0, 53, 0
2, 228240, Note_on_c, 0, 50, 42
2, 228600, Note_on_c, 0, 50, 0
2, 228600, Program_c, 0, 48
2, 228600, Note_on_c, 0, 62, 62
2, 228720, Note_on_c, 0, 62, 0
2, 228720, Note_on_c, 0, 65, 57
2, 228839, Note_on_c, 0, 65, 0
2, 228839, Note_on_c, 0, 67, 58
2, 228960, Note_on_c, 0, 67, 0
2, 228960, Note_on_c, 0, 67, 49
2, 229080, Note_on_c, 0, 67, 0
2, 229080, Note_on_c, 0, 65, 45
2, 229199, Note_on_c, 0, 65, 0
2, 229199, Note_on_c, 0, 62, 55
2, 229320, Note_on_c, 0, 62, 0
2, 229320, Note_on_c, 0, 63, 52
2, 229440, Note_on_c, 0, 63, 0
2, 229440, Note_on_c, 0, 62, 48
2, 229559, Note_on_c, 0, 62, 0
2, 229559, Note_on_c, 0, 55, 49
2, 229680, Note_on_c, 0, 55, 0
2, 229680, Note_on_c, 0, 60, 53
2, 230040, Note_on_c, 0, 60, 0
2, 230040, Note_on_c, 0, 51, 45
2, 230160, Note_on_c, 0, 51, 0
2, 230160, Note_on_c, 0, 50, 48
2, 230279, Note_on_c, 0, 50, 0
2, 230279, Note_on_c, 0, 48, 50
2, 230400, Note_on_c, 0, 48, 0
2, 230400, Note_on_c, 0, 48, 51
2, 230760, Note_on_c, 0, 48, 0
2, 231480, Note_on_c, 0, 63, 42
2, 231840, Note_on_c, 0, 63, 0
2, 231840, Note_on_c, 0, 60, 48
2, 232200, Note_on_c, 0, 60, 0
2, 232560, Note_on_c, 0, 55, 46
2, 232560, Note_on_c, 0, 62, 46
2, 232560, Note_on_c, 0, 70, 46
2, 232920, Note_on_c, 0, 70, 0
2, 232920, Note_on_c, 0, 62, 0
2, 232920, Note_on_c, 0, 55, 0
2, 235080, Note_on_c, 0, 67, 44
2, 235440, Note_on_c, 0, 67, 0
2, 235440, Note_on_c, 0, 66, 45
2, 235920, Note_on_c, 0, 66, 0
2, 235920, Note_on_c, 0, 63, 50
2, 236039, Note_on_c, 0, 63, 0
2, 236039, Note_on_c, 0, 62, 51
2, 236160, Note_on_c, 0, 62, 0
2, 236160, Note_on_c, 0, 62, 46
2, 236280, Note_on_c, 0, 62, 0
2, 236280, Note_on_c, 0, 58, 42
2, 236399, Note_on_c, 0, 58, 0
2, 236399, Note_on_c, 0, 57, 48
2, 236520, Note_on_c, 0, 57, 0
2, 236520, Note_on_c, 0, 66, 51
2, 236759, Note_on_c, 0, 66, 0
2, 236759, Note_on_c, 0, 67, 54
2, 236880, Note_on_c, 0, 67, 0
2, 236880, Note_on_c, 0, 66, 51
2, 237360, Note_on_c, 0, 66, 0
2, 237360, Note_on_c, 0, 63, 49
2, 237479, Note_on_c, 0, 63, 0
2, 237479, Note_on_c, 0, 62, 48
2, 237600, Note_on_c, 0, 62, 0
2, 237600, Note_on_c, 0, 62, 53
2, 237720, Note_on_c, 0, 62, 0
2, 237720, Note_on_c, 0, 58, 48
2, 237839, Note_on_c, 0, 58, 0
2, 237839, Note_on_c, 0, 57, 44
2, 237960, Note_on_c, 0, 57, 0
2, 237960, Note_on_c, 0, 66, 53
2, 238199, Note_on_c, 0, 66, 0
2, 238199, Note_on_c, 0, 68, 54
2, 238320, Note_on_c, 0, 68, 0
2, 238320, Note_on_c, 0, 66, 50
2, 238440, Note_on_c, 0, 66, 0
2, 238440, Note_on_c, 0, 69, 51
2, 238559, Note_on_c, 0, 69, 0
2, 238559, Note_on_c, 0, 70, 51
2, 238680, Note_on_c, 0, 70, 0
2, 238680, Note_on_c, 0, 70, 51
2, 239160, Note_on_c, 0, 70, 0
2, 239160, Note_on_c, 0, 69, 51
2, 239279, Note_on_c, 0, 69, 0
2, 239279, Note_on_c, 0, 66, 51
2, 239400, Note_on_c, 0, 66, 0
2, 239400, Note_on_c, 0, 67, 51
2, 239520, Note_on_c, 0, 67, 0
2, 239520, Note_on_c, 0, 66, 51
2, 239639, Note_on_c, 0, 66, 0
2, 239639, Note_on_c, 0, 62, 51
2, 239760, Note_on_c, 0, 62, 0
2, 239760, Note_on_c, 0, 66, 51
2, 239880, Note_on_c, 0, 66, 0
2, 239880, Note_on_c, 0, 69, 51
2, 239999, Note_on_c, 0, 69, 0
2, 239999, Note_on_c, 0, 70, 51
2, 240120, Note_on_c, 0, 70, 0
2, 240120, Note_on_c, 0, 70, 52
2, 240359, Note_on_c, 0, 70, 0
2, 240359, Note_on_c, 0, 69, 52
2, 240480, Note_on_c, 0, 69, 0
2, 240480, Note_on_c, 0, 69, 52
2, 240600, Note_on_c, 0, 69, 0
2, 240600, Note_on_c, 0, 72, 52
2, 240719, Note_on_c, 0, 72, 0
2, 240719, Note_on_c, 0, 74, 52
2, 240840, Note_on_c, 0, 74, 0
2, 240840, Note_on_c, 0, 74, 52
2, 241079, Note_on_c, 0, 74, 0
2, 241079, Note_on_c, 0, 72, 52
2, 241200, Note_on_c, 0, 72, 0
2, 241200, Note_on_c, 0, 74, 52
2, 241680, Note_on_c, 0, 74, 0
2, 241680, Note_on_c, 0, 72, 52
2, 241799, Note_on_c, 0, 72, 0
2, 241799, Note_on_c, 0, 71, 53
2, 241920, Note_on_c, 0, 71, 0
2, 241920, Note_on_c, 0, 71, 53
2, 242040, Note_on_c, 0, 71, 0
2, 242040, Note_on_c, 0, 68, 53
2, 242159, Note_on_c, 0, 68, 0
2, 242159, Note_on_c, 0, 67, 53
2, 242280, Note_on_c, 0, 67, 0
2, 242280, Note_on_c, 0, 74, 53
2, 242519, Note_on_c, 0, 74, 0
2, 242519, Note_on_c, 0, 72, 53
2, 242640, Note_on_c, 0, 72, 0
2, 242640, Note_on_c, 0, 74, 53
2, 243120, Note_on_c, 0, 74, 0
2, 243120, Note_on_c, 0, 72, 53
2, 243239, Note_on_c, 0, 72, 0
2, 243239, Note_on_c, 0, 71, 53
2, 243360, Note_on_c, 0, 71, 0
2, 243360, Note_on_c, 0, 71, 53
2, 243480, Note_on_c, 0, 71, 0
2, 243480, Note_on_c, 0, 68, 53
2, 243599, Note_on_c, 0, 68, 0
2, 243599, Note_on_c, 0, 67, 54
2, 243720, Note_on_c, 0, 67, 0
2, 243720, Note_on_c, 0, 74, 54
2, 243959, Note_on_c, 0, 74, 0
2, 243959, Note_on_c, 0, 72, 54
2, 244080, Note_on_c, 0, 72, 0
2, 244080, Note_on_c, 0, 71, 54
2, 244200, Note_on_c, 0, 71, 0
2, 244200, Note_on_c, 0, 74, 54
2, 244319, Note_on_c, 0, 74, 0
2, 244319, Note_on_c, 0, 75, 54
2, 244440, Note_on_c, 0, 75, 0
2, 244440, Note_on_c, 0, 75, 54
2, 244920, Note_on_c, 0, 75, 0
2, 244920, Note_on_c, 0, 74, 54
2, 245039, Note_on_c, 0, 74, 0
2, 245039, Note_on_c, 0, 71, 54
2, 245160, Note_on_c, 0, 71, 0
2, 245160, Note_on_c, 0, 72, 54
2, 245280, Note_on_c, 0, 72, 0
2, 245280, Note_on_c, 0, 71, 55
2, 245399, Note_on_c, 0, 71, 0
2, 245399, Note_on_c, 0, 67, 55
2, 245520, Note_on_c, 0, 67, 0
2, 245520, Note_on_c, 0, 71, 55
2, 245640, Note_on_c, 0, 71, 0
2, 245640, Note_on_c, 0, 74, 55
2, 245759, Note_on_c, 0, 74, 0
2, 245759, Note_on_c, 0, 75, 55
2, 245880, Note_on_c, 0, 75, 0
2, 245880, Note_on_c, 0, 75, 55
2, 246119, Note_on_c, 0, 75, 0
2, 246119, Note_on_c, 0, 74, 55
2, 246240, Note_on_c, 0, 74, 0
2, 246240, Note_on_c, 0, 74, 55
2, 246360, Note_on_c, 0, 74, 0
2, 246360, Note_on_c, 0, 77, 55
2, 246479, Note_on_c, 0, 77, 0
2, 246479, Note_on_c, 0, 79, 55
2, 246600, Note_on_c, 0, 79, 0
2, 246600, Note_on_c, 0, 79, 55
2, 246839, Note_on_c, 0, 79, 0
2, 246839, Note_on_c, 0, 77, 55
2, 246960, Note_on_c, 0, 77, 0
2, 246960, Note_on_c, 0, 79, 56
2, 247320, Note_on_c, 0, 79, 0
2, 247320, Note_on_c, 0, 67, 56
2, 248040, Note_on_c, 0, 67, 0
2, 248040, Note_on_c, 0, 79, 56
2, 248279, Note_on_c, 0, 79, 0
2, 248279, Note_on_c, 0, 78, 56
2, 248400, Note_on_c, 0, 78, 0
2, 248400, Note_on_c, 0, 79, 56
2, 248760, Note_on_c, 0, 79, 0
2, 248760, Note_on_c, 0, 67, 57
2, 249480, Note_on_c, 0, 67, 0
2, 249480, Note_on_c, 0, 73, 57
2, 249840, Note_on_c, 0, 73, 0
2, 249840, Note_on_c, 0, 74, 57
2, 250200, Note_on_c, 0, 74, 0
2, 250200, Note_on_c, 0, 62, 57
2, 250320, Note_on_c, 0, 62, 0
2, 250320, Note_on_c, 0, 62, 58
2, 250439, Note_on_c, 0, 62, 0
2, 250439, Note_on_c, 0, 62, 58
2, 250560, Note_on_c, 0, 62, 0
2, 250560, Note_on_c, 0, 62, 58
2, 250680, Note_on_c, 0, 62, 0
2, 250680, Note_on_c, 0, 62, 58
2, 250799, Note_on_c, 0, 62, 0
2, 250799, Note_on_c, 0, 62, 58
2, 250920, Note_on_c, 0, 62, 0
2, 250920, Note_on_c, 0, 60, 58
2, 251040, Note_on_c, 0, 60, 0
2, 251040, Note_on_c, 0, 60, 58
2, 251159, Note_on_c, 0, 60, 0
2, 251159, Note_on_c, 0, 60, 58
2, 251280, Note_on_c, 0, 60, 0
2, 251280, Note_on_c, 0, 58, 58
2, 251280, Note_on_c, 0, 62, 58
2, 251400, Note_on_c, 0, 62, 0
2, 251400, Note_on_c, 0, 58, 0
2, 251400, Note_on_c, 0, 58, 58
2, 251400, Note_on_c, 0, 62, 58
2, 251519, Note_on_c, 0, 62, 0
2, 251519, Note_on_c, 0, 58, 0
2, 251519, Note_on_c, 0, 58, 58
2, 251519, Note_on_c, 0, 62, 58
2, 251640, Note_on_c, 0, 62, 0
2, 251640, Note_on_c, 0, 58, 0
2, 251640, Note_on_c, 0, 62, 58
2, 251640, Note_on_c, 0, 74, 58
2, 251760, Note_on_c, 0, 74, 0
2, 251760, Note_on_c, 0, 62, 0
2, 251760, Note_on_c, 0, 58, 58
2, 251760, Note_on_c, 0, 62, 58
2, 251879, Note_on_c, 0, 62, 0
2, 251879, Note_on_c, 0, 58, 0
2, 251879, Note_on_c, 0, 58, 58
2, 251879, Note_on_c, 0, 62, 58
2, 252000, Note_on_c, 0, 62, 0
2, 252000, Note_on_c, 0, 58, 0
2, 252000, Note_on_c, 0, 56, 59
2, 252000, Note_on_c, 0, 62, 59
2, 252120, Note_on_c, 0, 62, 0
2, 252120, Note_on_c, 0, 56, 0
2, 252120, Note_on_c, 0, 56, 59
2, 252120, Note_on_c, 0, 62, 59
2, 252239, Note_on_c, 0, 62, 0
2, 252239, Note_on_c, 0, 56, 0
2, 252239, Note_on_c, 0, 56, 59
2, 252239, Note_on_c, 0, 62, 59
2, 252360, Note_on_c, 0, 62, 0
2, 252360, Note_on_c, 0, 56, 0
2, 252360, Note_on_c, 0, 62, 59
2, 252360, Note_on_c, 0, 74, 59
2, 252480, Note_on_c, 0, 74, 0
2, 252480, Note_on_c, 0, 62, 0
2, 252480, Note_on_c, 0, 56, 59
2, 252480, Note_on_c, 0, 62, 59
2, 252599, Note_on_c, 0, 62, 0
2, 252599, Note_on_c, 0, 56, 0
2, 252599, Note_on_c, 0, 56, 59
2, 252599, Note_on_c, 0, 62, 59
2, 252720, Note_on_c, 0, 62, 0
2, 252720, Note_on_c, 0, 56, 0
2, 252720, Note_on_c, 0, 55, 59
2, 252720, Note_on_c, 0, 62, 59
2, 252840, Note_on_c, 0, 62, 0
2, 252840, Note_on_c, 0, 55, 0
2, 252840, Note_on_c, 0, 55, 59
2, 252840, Note_on_c, 0, 62, 59
2, 252959, Note_on_c, 0, 62, 0
2, 252959, Note_on_c, 0, 55, 0
2, 252959, Note_on_c, 0, 55, 59
2, 252959, Note_on_c, 0, 62, 59
2, 253080, Note_on_c, 0, 62, 0
2, 253080, Note_on_c, 0, 55, 0
2, 253080, Note_on_c, 0, 62, 59
2, 253080, Note_on_c, 0, 74, 59
2, 253200, Note_on_c, 0, 74, 0
2, 253200, Note_on_c, 0, 62, 0
2, 253200, Note_on_c, 0, 55, 59
2, 253200, Note_on_c, 0, 62, 59
2, 253319, Note_on_c, 0, 62, 0
2, 253319, Note_on_c, 0, 55, 0
2, 253319, Note_on_c, 0, 55, 59
2, 253319, Note_on_c, 0, 62, 59
2, 253440, Note_on_c, 0, 62, 0
2, 253440, Note_on_c, 0, 55, 0
2, 253440, Note_on_c, 0, 55, 59
2, 253440, Note_on_c, 0, 62, 59
2, 253560, Note_on_c, 0, 62, 0
2, 253560, Note_on_c, 0, 55, 0
2, 253560, Note_on_c, 0, 55, 59
2, 253560, Note_on_c, 0, 62, 59
2, 253679, Note_on_c, 0, 62, 0
2, 253679, Note_on_c, 0, 55, 0
2, 253679, Note_on_c, 0, 55, 59
2, 253679, Note_on_c, 0, 62, 59
2, 253800, Note_on_c, 0, 62, 0
2, 253800, Note_on_c, 0, 55, 0
2, 253800, Note_on_c, 0, 53, 60
2, 253800, Note_on_c, 0, 55, 60
2, 253920, Note_on_c, 0, 55, 0
2, 253920, Note_on_c, 0, 53, 0
2, 253920, Note_on_c, 0, 53, 60
2, 253920, Note_on_c, 0, 55, 60
2, 254039, Note_on_c, 0, 55, 0
2, 254039, Note_on_c, 0, 53, 0
2, 254039, Note_on_c, 0, 53, 60
2, 254039, Note_on_c, 0, 55, 60
2, 254160, Note_on_c, 0, 55, 0
2, 254160, Note_on_c, 0, 53, 0
2, 254160, Note_on_c, 0, 51, 60
2, 254160, Note_on_c, 0, 55, 60
2, 254280, Note_on_c, 0, 55, 0
2, 254280, Note_on_c, 0, 51, 0
2, 254280, Note_on_c, 0, 51, 60
2, 254280, Note_on_c, 0, 55, 60
2, 254399, Note_on_c, 0, 55, 0
2, 254399, Note_on_c, 0, 51, 0
2, 254399, Note_on_c, 0, 51, 60
2, 254399, Note_on_c, 0, 55, 60
2, 254520, Note_on_c, 0, 55, 0
2, 254520, Note_on_c, 0, 51, 0
2, 254520, Note_on_c, 0, 55, 60
2, 254520, Note_on_c, 0, 67, 60
2, 254640, Note_on_c, 0, 67, 0
2, 254640, Note_on_c, 0, 55, 0
2, 254640, Note_on_c, 0, 51, 60
2, 254640, Note_on_c, 0, 55, 60
2, 254759, Note_on_c, 0, 55, 0
2, 254759, Note_on_c, 0, 51, 0
2, 254759, Note_on_c, 0, 51, 60
2, 254759, Note_on_c, 0, 55, 60
2, 254880, Note_on_c, 0, 55, 0
2, 254880, Note_on_c, 0, 51, 0
2, 254880, Note_on_c, 0, 50, 60
2, 254880, Note_on_c, 0, 55, 60
2, 255000, Note_on_c, 0, 55, 0
2, 255000, Note_on_c, 0, 50, 0
2, 255000, Note_on_c, 0, 50, 60
2, 255000, Note_on_c, 0, 55, 60
2, 255119, Note_on_c, 0, 55, 0
2, 255119, Note_on_c, 0, 50, 0
2, 255119, Note_on_c, 0, 50, 60
2, 255119, Note_on_c, 0, 55, 60
2, 255240, Note_on_c, 0, 55, 0
2, 255240, Note_on_c, 0, 50, 0
2, 255240, Note_on_c, 0, 55, 60
2, 255240, Note_on_c, 0, 67, 60
2, 255420, Note_on_c, 0, 67, 0
2, 255420, Note_on_c, 0, 55, 0
2, 255600, Note_on_c, 0, 49, 61
2, 255600, Note_on_c, 0, 55, 61
2, 255600, Note_on_c, 0, 64, 61
2, 255600, Note_on_c, 0, 69, 61
2, 255960, Note_on_c, 0, 69, 0
2, 255960, Note_on_c, 0, 49, 0
2, 255960, Note_on_c, 0, 55, 0
2, 255960, Note_on_c, 0, 64, 0
2, 256320, Note_on_c, 0, 49, 61
2, 256320, Note_on_c, 0, 57, 61
2, 256440, Note_on_c, 0, 57, 0
2, 256440, Note_on_c, 0, 49, 0
2, 256440, Note_on_c, 0, 49, 61
2, 256440, Note_on_c, 0, 57, 61
2, 256559, Note_on_c, 0, 57, 0
2, 256559, Note_on_c, 0, 49, 0
2, 256559, Note_on_c, 0, 49, 61
2, 256559, Note_on_c, 0, 57, 61
2, 256680, Note_on_c, 0, 57, 0
2, 256680, Note_on_c, 0, 49, 0
2, 256680, Note_on_c, 0, 57, 61
2, 256680, Note_on_c, 0, 64, 61
2, 256800, Note_on_c, 0, 64, 0
2, 256800, Note_on_c, 0, 57, 0
2, 256800, Note_on_c, 0, 57, 61
2, 256800, Note_on_c, 0, 64, 61
2, 256919, Note_on_c, 0, 64, 0
2, 256919, Note_on_c, 0, 57, 0
2, 256919, Note_on_c, 0, 57, 61
2, 256919, Note_on_c, 0, 64, 61
2, 257040, Note_on_c, 0, 64, 0
2, 257040, Note_on_c, 0, 57, 0
2, 257040, Note_on_c, 0, 64, 61
2, 257040, Note_on_c, 0, 69, 61
2, 257160, Note_on_c, 0, 69, 0
2, 257160, Note_on_c, 0, 64, 0
2, 257160, Note_on_c, 0, 64, 62
2, 257160, Note_on_c, 0, 69, 62
2, 257279, Note_on_c, 0, 69, 0
2, 257279, Note_on_c, 0, 64, 0
2, 257279, Note_on_c, 0, 64, 62
2, 257279, Note_on_c, 0, 69, 62
2, 257400, Note_on_c, 0, 69, 0
2, 257400, Note_on_c, 0, 64, 0
2, 257400, Note_on_c, 0, 67, 62
2, 257400, Note_on_c, 0, 69, 62
2, 257520, Note_on_c, 0, 69, 0
2, 257520, Note_on_c, 0, 67, 0
2, 257520, Note_on_c, 0, 67, 62
2, 257520, Note_on_c, 0, 69, 62
2, 257639, Note_on_c, 0, 69, 0
2, 257639, Note_on_c, 0, 67, 0
2, 257639, Note_on_c, 0, 67, 62
2, 257639, Note_on_c, 0, 69, 62
2, 257760, Note_on_c, 0, 69, 0
2, 257760, Note_on_c, 0, 67, 0
2, 257760, Note_on_c, 0, 69, 62
2, 257880, Note_on_c, 0, 69, 0
2, 257880, Note_on_c, 0, 69, 62
2, 257999, Note_on_c, 0, 69, 0
2, 257999, Note_on_c, 0, 69, 62
2, 258120, Note_on_c, 0, 69, 0
2, 258120, Note_on_c, 0, 69, 62
2, 258120, Note_on_c, 0, 76, 62
2, 258240, Note_on_c, 0, 76, 0
2, 258240, Note_on_c, 0, 69, 0
2, 258240, Note_on_c, 0, 69, 62
2, 258240, Note_on_c, 0, 76, 62
2, 258359, Note_on_c, 0, 76, 0
2, 258359, Note_on_c, 0, 69, 0
2, 258359, Note_on_c, 0, 69, 62
2, 258359, Note_on_c, 0, 76, 62
2, 258480, Note_on_c, 0, 76, 0
2, 258480, Note_on_c, 0, 69, 0
2, 258480, Note_on_c, 0, 69, 62
2, 258480, Note_on_c, 0, 81, 62
2, 258840, Note_on_c, 0, 81, 0
2, 258840, Note_on_c, 0, 69, 0
2, 258840, Note_on_c, 0, 70, 63
2, 258840, Note_on_c, 0, 82, 63
2, 259560, Note_on_c, 0, 82, 0
2, 259560, Note_on_c, 0, 70, 0
2, 259560, Note_on_c, 0, 71, 63
2, 259560, Note_on_c, 0, 83, 63
2, 259920, Note_on_c, 0, 83, 0
2, 259920, Note_on_c, 0, 71, 0
2, 259920, Note_on_c, 0, 72, 63
2, 259920, Note_on_c, 0, 84, 63
2, 261360, Note_on_c, 0, 84, 0
2, 261360, Note_on_c, 0, 72, 0
2, 263160, Note_on_c, 0, 69, 55
2, 263280, Note_on_c, 0, 69, 0
2, 263280, Note_on_c, 0, 72, 70
2, 263399, Note_on_c, 0, 72, 0
2, 263399, Note_on_c, 0, 74, 68
2, 263520, Note_on_c, 0, 74, 0
2, 263520, Note_on_c, 0, 74, 89
2, 263880, Note_on_c, 0, 74, 0
2, 263880, Note_on_c, 0, 62, 82
2, 264240, Note_on_c, 0, 62, 0
2, 270000, Note_on_c, 0, 71, 76
2, 270480, Note_on_c, 0, 71, 0
2, 270480, Note_on_c, 0, 69, 81
2, 270599, Note_on_c, 0, 69, 0
2, 270599, Note_on_c, 0, 67, 72
2, 270695, Note_on_c, 0, 67, 0
2, 270720, Note_on_c, 0, 67, 74
2, 270840, Note_on_c, 0, 67, 0
2, 270840, Note_on_c, 0, 64, 73
2, 270959, Note_on_c, 0, 64, 0
2, 270959, Note_on_c, 0, 62, 73
2, 271080, Note_on_c, 0, 62, 0
2, 271080, Note_on_c, 0, 71, 75
2, 271319, Note_on_c, 0, 71, 0
2, 271319, Note_on_c, 0, 72, 95
2, 271415, Note_on_c, 0, 72, 0
2, 271440, Note_on_c, 0, 71, 99
2, 271920, Note_on_c, 0, 71, 0
2, 271920, Note_on_c, 0, 69, 81
2, 272039, Note_on_c, 0, 69, 0
2, 272039, Note_on_c, 0, 67, 70
2, 272135, Note_on_c, 0, 67, 0
2, 272160, Note_on_c, 0, 67, 74
2, 272280, Note_on_c, 0, 67, 0
2, 272280, Note_on_c, 0, 64, 71
2, 272399, Note_on_c, 0, 64, 0
2, 272399, Note_on_c, 0, 62, 72
2, 272520, Note_on_c, 0, 62, 0
2, 272520, Note_on_c, 0, 71, 75
2, 272759, Note_on_c, 0, 71, 0
2, 272759, Note_on_c, 0, 72, 90
2, 272855, Note_on_c, 0, 72, 0
2, 272880, Note_on_c, 0, 71, 87
2, 273000, Note_on_c, 0, 71, 0
2, 273000, Note_on_c, 0, 74, 92
2, 273119, Note_on_c, 0, 74, 0
2, 273119, Note_on_c, 0, 76, 96
2, 273215, Note_on_c, 0, 76, 0
2, 273240, Note_on_c, 0, 76, 114
2, 273839, Note_on_c, 0, 76, 0
2, 273839, Note_on_c, 0, 74, 90
2, 273960, Note_on_c, 0, 74, 0
2, 273960, Note_on_c, 0, 72, 100
2, 274199, Note_on_c, 0, 72, 0
2, 274199, Note_on_c, 0, 71, 81
2, 274295, Note_on_c, 0, 71, 0
2, 274320, Note_on_c, 0, 71, 87
2, 274440, Note_on_c, 0, 71, 0
2, 274440, Note_on_c, 0, 74, 92
2, 274559, Note_on_c, 0, 74, 0
2, 274559, Note_on_c, 0, 76, 96
2, 274680, Note_on_c, 0, 76, 0
2, 274680, Note_on_c, 0, 76, 108
2, 275279, Note_on_c, 0, 76, 0
2, 275279, Note_on_c, 0, 74, 92
2, 275400, Note_on_c, 0, 74, 0
2, 275400, Note_on_c, 0, 72, 100
2, 275639, Note_on_c, 0, 72, 0
2, 275639, Note_on_c, 0, 71, 86
2, 275760, Note_on_c, 0, 71, 0
2, 275760, Note_on_c, 0, 71, 87
2, 275940, Note_on_c, 0, 71, 0
2, 275940, Note_on_c, 0, 74, 91
2, 276120, Note_on_c, 0, 74, 0
2, 276120, Note_on_c, 0, 78, 95
2, 276300, Note_on_c, 0, 78, 0
2, 276300, Note_on_c, 0, 79, 99
2, 276480, Note_on_c, 0, 79, 0
2, 276480, Note_on_c, 0, 78, 82
2, 276960, Note_on_c, 0, 78, 0
2, 276960, Note_on_c, 0, 76, 83
2, 277079, Note_on_c, 0, 76, 0
2, 277079, Note_on_c, 0, 74, 81
2, 277200, Note_on_c, 0, 74, 0
2, 277200, Note_on_c, 0, 76, 87
2, 277674, Note_on_c, 0, 76, 0
2, 277740, Note_on_c, 0, 74, 73
2, 277920, Note_on_c, 0, 74, 0
2, 277920, Note_on_c, 0, 72, 75
2, 278100, Note_on_c, 0, 72, 0
2, 278100, Note_on_c, 0, 76, 78
2, 278280, Note_on_c, 0, 76, 0
2, 278280, Note_on_c, 0, 78, 81
2, 278460, Note_on_c, 0, 78, 0
2, 278460, Note_on_c, 0, 79, 84
2, 278640, Note_on_c, 0, 79, 0
2, 278640, Note_on_c, 0, 76, 92
2, 279120, Note_on_c, 0, 76, 0
2, 279120, Note_on_c, 0, 74, 80
2, 279239, Note_on_c, 0, 74, 0
2, 279239, Note_on_c, 0, 72, 81
2, 279360, Note_on_c, 0, 72, 0
2, 279360, Note_on_c, 0, 74, 107
2, 279840, Note_on_c, 0, 74, 0
2, 279840, Note_on_c, 0, 72, 81
2, 279959, Note_on_c, 0, 72, 0
2, 279959, Note_on_c, 0, 71, 70
2, 280080, Note_on_c, 0, 71, 0
2, 280080, Note_on_c, 0, 71, 73
2, 280200, Note_on_c, 0, 71, 0
2, 280200, Note_on_c, 0, 72, 78
2, 280319, Note_on_c, 0, 72, 0
2, 280319, Note_on_c, 0, 71, 70
2, 280440, Note_on_c, 0, 71, 0
2, 280440, Note_on_c, 0, 69, 75
2, 280560, Note_on_c, 0, 69, 0
2, 280560, Note_on_c, 0, 67, 77
2, 280679, Note_on_c, 0, 67, 0
2, 280679, Note_on_c, 0, 69, 79
2, 280800, Note_on_c, 0, 69, 0
2, 280800, Note_on_c, 0, 71, 81
2, 280920, Note_on_c, 0, 71, 0
2, 280920, Note_on_c, 0, 72, 83
2, 281039, Note_on_c, 0, 72, 0
2, 281039, Note_on_c, 0, 76, 85
2, 281160, Note_on_c, 0, 76, 0
2, 281160, Note_on_c, 0, 79, 98
2, 281880, Note_on_c, 0, 79, 0
2, 281880, Note_on_c, 0, 81, 90
2, 282197, Note_on_c, 0, 81, 0
2, 282240, Note_on_c, 0, 83, 94
2, 282557, Note_on_c, 0, 83, 0
2, 282600, Note_on_c, 0, 84, 97
2, 282917, Note_on_c, 0, 84, 0
2, 282960, Note_on_c, 0, 71, 100
2, 283440, Note_on_c, 0, 71, 0
2, 283440, Note_on_c, 0, 69, 96
2, 283559, Note_on_c, 0, 69, 0
2, 283559, Note_on_c, 0, 67, 92
2, 283680, Note_on_c, 0, 67, 0
2, 283680, Note_on_c, 0, 67, 86
2, 283800, Note_on_c, 0, 67, 0
2, 283800, Note_on_c, 0, 64, 82
2, 283919, Note_on_c, 0, 64, 0
2, 283919, Note_on_c, 0, 62, 84
2, 284040, Note_on_c, 0, 62, 0
2, 284040, Note_on_c, 0, 71, 87
2, 284279, Note_on_c, 0, 71, 0
2, 284279, Note_on_c, 0, 72, 103
2, 284400, Note_on_c, 0, 72, 0
2, 284400, Note_on_c, 0, 71, 87
2, 284880, Note_on_c, 0, 71, 0
2, 284880, Note_on_c, 0, 69, 83
2, 284999, Note_on_c, 0, 69, 0
2, 284999, Note_on_c, 0, 67, 79
2, 285120, Note_on_c, 0, 67, 0
2, 285120, Note_on_c, 0, 67, 76
2, 285240, Note_on_c, 0, 67, 0
2, 285240, Note_on_c, 0, 64, 66
2, 285359, Note_on_c, 0, 64, 0
2, 285359, Note_on_c, 0, 62, 76
2, 285480, Note_on_c, 0, 62, 0
2, 285480, Note_on_c, 0, 71, 75
2, 285719, Note_on_c, 0, 71, 0
2, 285719, Note_on_c, 0, 72, 97
2, 285840, Note_on_c, 0, 72, 0
2, 285840, Note_on_c, 0, 71, 87
2, 285960, Note_on_c, 0, 71, 0
2, 285960, Note_on_c, 0, 74, 94
2, 286079, Note_on_c, 0, 74, 0
2, 286079, Note_on_c, 0, 76, 110
2, 286200, Note_on_c, 0, 76, 0
2, 286200, Note_on_c, 0, 76, 101
2, 286799, Note_on_c, 0, 76, 0
2, 286799, Note_on_c, 0, 74, 85
2, 286920, Note_on_c, 0, 74, 0
2, 286920, Note_on_c, 0, 72, 87
2, 287159, Note_on_c, 0, 72, 0
2, 287159, Note_on_c, 0, 71, 72
2, 287280, Note_on_c, 0, 71, 0
2, 287280, Note_on_c, 0, 71, 75
2, 287400, Note_on_c, 0, 71, 0
2, 287400, Note_on_c, 0, 74, 81
2, 287519, Note_on_c, 0, 74, 0
2, 287519, Note_on_c, 0, 76, 96
2, 287640, Note_on_c, 0, 76, 0
2, 287640, Note_on_c, 0, 79, 93
2, 288239, Note_on_c, 0, 79, 0
2, 288239, Note_on_c, 0, 78, 90
2, 288360, Note_on_c, 0, 78, 0
2, 288360, Note_on_c, 0, 76, 87
2, 288599, Note_on_c, 0, 76, 0
2, 288599, Note_on_c, 0, 74, 73
2, 288720, Note_on_c, 0, 74, 0
2, 288720, Note_on_c, 0, 74, 75
2, 288840, Note_on_c, 0, 74, 0
2, 288840, Note_on_c, 0, 78, 81
2, 288959, Note_on_c, 0, 78, 0
2, 288959, Note_on_c, 0, 79, 91
2, 289080, Note_on_c, 0, 79, 0
2, 289080, Note_on_c, 0, 79, 99
2, 289080, Note_on_c, 0, 83, 99
2, 289620, Note_on_c, 0, 83, 0
2, 289620, Note_on_c, 0, 79, 0
2, 289620, Note_on_c, 0, 78, 76
2, 289620, Note_on_c, 0, 81, 76
2, 289800, Note_on_c, 0, 81, 0
2, 289800, Note_on_c, 0, 78, 0
2, 289800, Note_on_c, 0, 79, 94
2, 289800, Note_on_c, 0, 83, 94
2, 290340, Note_on_c, 0, 83, 0
2, 290340, Note_on_c, 0, 79, 0
2, 290340, Note_on_c, 0, 78, 82
2, 290340, Note_on_c, 0, 81, 82
2, 290520, Note_on_c, 0, 81, 0
2, 290520, Note_on_c, 0, 78, 0
2, 290520, Note_on_c, 0, 79, 91
2, 290520, Note_on_c, 0, 83, 91
2, 290700, Note_on_c, 0, 83, 0
2, 290700, Note_on_c, 0, 79, 0
2, 290700, Note_on_c, 0, 78, 82
2, 290700, Note_on_c, 0, 81, 82
2, 290880, Note_on_c, 0, 81, 0
2, 290880, Note_on_c, 0, 78, 0
2, 290880, Note_on_c, 0, 79, 91
2, 290880, Note_on_c, 0, 83, 91
2, 291420, Note_on_c, 0, 83, 0
2, 291420, Note_on_c, 0, 79, 0
2, 291420, Note_on_c, 0, 81, 80
2, 291600, Note_on_c, 0, 81, 0
2, 291600, Note_on_c, 0, 83, 89
2, 291720, Note_on_c, 0, 83, 0
2, 291720, Note_on_c, 0, 81, 82
2, 291839, Note_on_c, 0, 81, 0
2, 291839, Note_on_c, 0, 83, 97
2, 291960, Note_on_c, 0, 83, 0
2, 291960, Note_on_c, 0, 86, 87
2, 292680, Note_on_c, 0, 86, 0
2, 292680, Note_on_c, 0, 86, 91
2, 293400, Note_on_c, 0, 86, 0
2, 293400, Note_on_c, 0, 86, 87
2, 294120, Note_on_c, 0, 86, 0
2, 294120, Note_on_c, 0, 86, 98
2, 294480, Note_on_c, 0, 86, 0
2, 294480, Note_on_c, 0, 87, 106
2, 297000, Note_on_c, 0, 87, 0
2, 297000, Note_on_c, 0, 86, 95
2, 297360, Note_on_c, 0, 86, 0
2, 297360, Note_on_c, 0, 55, 1
2, 297360, Note_on_c, 0, 55, 0
2, 297360, Note_on_c, 0, 55, 80
2, 297360, Note_on_c, 0, 74, 117
2, 297360, Note_on_c, 0, 83, 117
2, 298080, Note_on_c, 0, 83, 0
2, 298080, Note_on_c, 0, 74, 0
2, 298080, Note_on_c, 0, 79, 93
2, 298440, Note_on_c, 0, 79, 0
2, 298440, Note_on_c, 0, 74, 84
2, 298744, Note_on_c, 0, 74, 0
2, 298744, Note_on_c, 0, 55, 80
2, 298800, Note_on_c, 0, 55, 0
2, 298800, Note_on_c, 0, 71, 117
2, 298800, Note_on_c, 0, 79, 117
2, 299520, Note_on_c, 0, 79, 0
2, 299520, Note_on_c, 0, 71, 0
2, 299520, Note_on_c, 0, 74, 93
2, 299880, Note_on_c, 0, 74, 0
2, 299880, Note_on_c, 0, 71, 97
2, 300176, Note_on_c, 0, 71, 0
2, 300176, Note_on_c, 0, 55, 90
2, 300240, Note_on_c, 0, 55, 0
2, 300240, Note_on_c, 0, 62, 117
2, 300240, Note_on_c, 0, 74, 117
2, 300960, Note_on_c, 0, 74, 0
2, 300960, Note_on_c, 0, 62, 0
2, 300960, Note_on_c, 0, 71, 104
2, 301320, Note_on_c, 0, 71, 0
2, 301320, Note_on_c, 0, 67, 96
2, 301616, Note_on_c, 0, 67, 0
2, 301616, Note_on_c, 0, 55, 83
2, 301680, Note_on_c, 0, 55, 0
2, 301680, Note_on_c, 0, 62, 117
2, 301680, Note_on_c, 0, 71, 117
2, 302400, Note_on_c, 0, 71, 0
2, 302400, Note_on_c, 0, 62, 0
2, 302400, Note_on_c, 0, 67, 99
2, 302760, Note_on_c, 0, 67, 0
2, 302760, Program_c, 0, 45
2, 302760, Note_on_c, 0, 57, 116
2, 302760, Note_on_c, 0, 67, 116
2, 302760, Note_on_c, 0, 73, 116
2, 303120, Note_on_c, 0, 73, 0
2, 303120, Note_on_c, 0, 67, 0
2, 303120, Note_on_c, 0, 57, 0
2, 303120, Note_on_c, 0, 50, 104
2, 303120, Note_on_c, 0, 57, 104
2, 303120, Note_on_c, 0, 66, 104
2, 303120, Note_on_c, 0, 74, 104
2, 303480, Note_on_c, 0, 74, 0
2, 303480, Note_on_c, 0, 57, 0
2, 303480, Note_on_c, 0, 66, 0
2, 303480, Note_on_c, 0, 50, 0
2, 304200, Program_c, 0, 48
2, 304200, Note_on_c, 0, 78, 94
2, 304320, Note_on_c, 0, 78, 0
2, 304320, Note_on_c, 0, 76, 91
2, 304439, Note_on_c, 0, 76, 0
2, 304439, Note_on_c, 0, 74, 96
2, 304560, Note_on_c, 0, 74, 0
2, 304560, Note_on_c, 0, 74, 102
2, 304920, Note_on_c, 0, 74, 0
2, 305640, Note_on_c, 0, 66, 90
2, 305760, Note_on_c, 0, 66, 0
2, 305760, Note_on_c, 0, 64, 97
2, 305879, Note_on_c, 0, 64, 0
2, 305879, Note_on_c, 0, 62, 99
2, 306000, Note_on_c, 0, 62, 0
2, 306000, Note_on_c, 0, 62, 103
2, 306360, Note_on_c, 0, 62, 0
2, 307080, Note_on_c, 0, 66, 92
2, 307200, Note_on_c, 0, 66, 0
2, 307200, Note_on_c, 0, 64, 102
2, 307319, Note_on_c, 0, 64, 0
2, 307319, Note_on_c, 0, 62, 98
2, 307440, Note_on_c, 0, 62, 0
2, 307440, Note_on_c, 0, 62, 104
2, 307800, Note_on_c, 0, 62, 0
2, 308520, Note_on_c, 0, 54, 92
2, 308640, Note_on_c, 0, 54, 0
2, 308640, Note_on_c, 0, 52, 97
2, 308759, Note_on_c, 0, 52, 0
2, 308759, Note_on_c, 0, 50, 104
2, 308880, Note_on_c, 0, 50, 0
2, 308880, Note_on_c, 0, 50, 106
2, 309240, Note_on_c, 0, 50, 0
2, 313560, Note_on_c, 0, 66, 76
2, 313877, Note_on_c, 0, 66, 0
2, 313920, Note_on_c, 0, 67, 88
2, 314237, Note_on_c, 0, 67, 0
2, 314280, Note_on_c, 0, 69, 90
2, 314597, Note_on_c, 0, 69, 0
2, 314640, Note_on_c, 0, 71, 73
2, 315720, Note_on_c, 0, 71, 0
2, 315720, Note_on_c, 0, 69, 86
2, 316037, Note_on_c, 0, 69, 0
2, 316080, Note_on_c, 0, 71, 75
2, 316800, Note_on_c, 0, 71, 0
2, 316800, Note_on_c, 0, 72, 89
2, 316958, Note_on_c, 0, 72, 0
2, 316980, Note_on_c, 0, 71, 82
2, 317138, Note_on_c, 0, 71, 0
2, 317160, Note_on_c, 0, 69, 78
2, 317318, Note_on_c, 0, 69, 0
2, 317340, Note_on_c, 0, 67, 78
2, 317498, Note_on_c, 0, 67, 0
2, 317520, Note_on_c, 0, 74, 100
2, 319320, Note_on_c, 0, 74, 0
2, 319320, Note_on_c, 0, 74, 75
2, 319680, Note_on_c, 0, 74, 0
2, 319680, Note_on_c, 0, 76, 82
2, 320040, Note_on_c, 0, 76, 0
2, 320040, Note_on_c, 0, 74, 71
2, 320220, Note_on_c, 0, 74, 0
2, 320220, Note_on_c, 0, 76, 78
2, 320400, Note_on_c, 0, 76, 0
2, 320400, Note_on_c, 0, 72, 63
2, 321300, Note_on_c, 0, 72, 0
2, 321300, Note_on_c, 0, 74, 82
2, 321480, Note_on_c, 0, 74, 0
2, 321480, Note_on_c, 0, 76, 92
2, 321797, Note_on_c, 0, 76, 0
2, 321840, Note_on_c, 0, 71, 67
2, 322740, Note_on_c, 0, 71, 0
2, 322740, Note_on_c, 0, 74, 83
2, 322920, Note_on_c, 0, 74, 0
2, 322920, Note_on_c, 0, 76, 91
2, 323237, Note_on_c, 0, 76, 0
2, 323280, Note_on_c, 0, 69, 65
2, 323460, Note_on_c, 0, 69, 0
2, 323460, Note_on_c, 0, 67, 69
2, 323640, Note_on_c, 0, 67, 0
2, 323640, Note_on_c, 0, 69, 72
2, 324000, Note_on_c, 0, 69, 0
2, 324000, Note_on_c, 0, 71, 74
2, 325440, Note_on_c, 0, 71, 0
2, 325440, Note_on_c, 0, 67, 65
2, 325800, Note_on_c, 0, 67, 0
2, 325800, Note_on_c, 0, 69, 78
2, 326160, Note_on_c, 0, 69, 0
2, 326160, Note_on_c, 0, 71, 77
2, 327240, Note_on_c, 0, 71, 0
2, 327240, Note_on_c, 0, 69, 88
2, 327557, Note_on_c, 0, 69, 0
2, 327600, Note_on_c, 0, 71, 80
2, 328320, Note_on_c, 0, 71, 0
2, 328320, Note_on_c, 0, 72, 89
2, 328478, Note_on_c, 0, 72, 0
2, 328500, Note_on_c, 0, 71, 86
2, 328658, Note_on_c, 0, 71, 0
2, 328680, Note_on_c, 0, 69, 83
2, 328838, Note_on_c, 0, 69, 0
2, 328860, Note_on_c, 0, 67, 82
2, 329018, Note_on_c, 0, 67, 0
2, 329040, Note_on_c, 0, 74, 90
2, 330840, Note_on_c, 0, 74, 0
2, 330840, Note_on_c, 0, 74, 74
2, 331200, Note_on_c, 0, 74, 0
2, 331200, Note_on_c, 0, 79, 85
2, 331560, Note_on_c, 0, 79, 0
2, 331560, Note_on_c, 0, 78, 68
2, 331740, Note_on_c, 0, 78, 0
2, 331740, Note_on_c, 0, 79, 79
2, 331920, Note_on_c, 0, 79, 0
2, 331920, Note_on_c, 0, 76, 64
2, 332820, Note_on_c, 0, 76, 0
2, 332820, Note_on_c, 0, 78, 80
2, 333000, Note_on_c, 0, 78, 0
2, 333000, Note_on_c, 0, 79, 89
2, 333317, Note_on_c, 0, 79, 0
2, 333360, Note_on_c, 0, 74, 62
2, 334260, Note_on_c, 0, 74, 0
2, 334260, Note_on_c, 0, 78, 84
2, 334440, Note_on_c, 0, 78, 0
2, 334440, Note_on_c, 0, 79, 90
2, 334757, Note_on_c, 0, 79, 0
2, 334800, Note_on_c, 0, 72, 61
2, 334980, Note_on_c, 0, 72, 0
2, 334980, Note_on_c, 0, 74, 78
2, 335160, Note_on_c, 0, 74, 0
2, 335160, Note_on_c, 0, 76, 91
2, 335477, Note_on_c, 0, 76, 0
2, 335520, Note_on_c, 0, 71, 64
2, 336420, Note_on_c, 0, 71, 0
2, 336420, Note_on_c, 0, 74, 80
2, 336600, Note_on_c, 0, 74, 0
2, 336600, Note_on_c, 0, 76, 91
2, 336917, Note_on_c, 0, 76, 0
2, 336960, Note_on_c, 0, 69, 69
2, 337140, Note_on_c, 0, 69, 0
2, 337140, Note_on_c, 0, 67, 72
2, 337320, Note_on_c, 0, 67, 0
2, 337320, Note_on_c, 0, 69, 76
2, 337680, Note_on_c, 0, 69, 0
2, 337680, Note_on_c, 0, 71, 78
2, 339480, Note_on_c, 0, 71, 0
2, 343440, Note_on_c, 0, 71, 66
2, 343800, Note_on_c, 0, 71, 0
2, 343800, Note_on_c, 0, 72, 76
2, 344520, Note_on_c, 0, 72, 0
2, 344520, Note_on_c, 0, 74, 79
2, 345240, Note_on_c, 0, 74, 0
2, 345240, Note_on_c, 0, 76, 79
2, 345960, Note_on_c, 0, 76, 0
2, 345960, Note_on_c, 0, 78, 80
2, 346320, Note_on_c, 0, 78, 0
2, 346320, Note_on_c, 0, 79, 78
2, 348120, Note_on_c, 0, 79, 0
2, 348120, Note_on_c, 0, 81, 79
2, 348480, Note_on_c, 0, 81, 0
2, 348480, Note_on_c, 0, 79, 71
2, 348840, Note_on_c, 0, 79, 0
2, 348840, Note_on_c, 0, 81, 78
2, 349200, Note_on_c, 0, 81, 0
2, 349200, Note_on_c, 0, 83, 81
2, 350280, Note_on_c, 0, 83, 0
2, 350280, Note_on_c, 0, 81, 70
2, 350640, Note_on_c, 0, 81, 0
2, 350640, Note_on_c, 0, 83, 71
2, 351360, Note_on_c, 0, 83, 0
2, 351360, Note_on_c, 0, 84, 77
2, 351540, Note_on_c, 0, 84, 0
2, 351540, Note_on_c, 0, 83, 71
2, 351720, Note_on_c, 0, 83, 0
2, 351720, Note_on_c, 0, 81, 67
2, 351900, Note_on_c, 0, 81, 0
2, 351900, Note_on_c, 0, 79, 68
2, 352080, Note_on_c, 0, 79, 0
2, 352080, Note_on_c, 0, 86, 89
2, 353880, Note_on_c, 0, 86, 0
2, 353880, Note_on_c, 0, 86, 70
2, 354240, Note_on_c, 0, 86, 0
2, 354240, Note_on_c, 0, 88, 82
2, 354600, Note_on_c, 0, 88, 0
2, 354600, Note_on_c, 0, 86, 65
2, 354780, Note_on_c, 0, 86, 0
2, 354780, Note_on_c, 0, 88, 77
2, 354960, Note_on_c, 0, 88, 0
2, 354960, Note_on_c, 0, 84, 62
2, 355860, Note_on_c, 0, 84, 0
2, 355860, Note_on_c, 0, 86, 79
2, 356040, Note_on_c, 0, 86, 0
2, 356040, Note_on_c, 0, 88, 83
2, 356400, Note_on_c, 0, 88, 0
2, 356400, Note_on_c, 0, 83, 64
2, 357300, Note_on_c, 0, 83, 0
2, 357300, Note_on_c, 0, 86, 77
2, 357480, Note_on_c, 0, 86, 0
2, 357480, Note_on_c, 0, 88, 81
2, 357840, Note_on_c, 0, 88, 0
2, 357840, Note_on_c, 0, 81, 66
2, 358020, Note_on_c, 0, 81, 0
2, 358020, Note_on_c, 0, 79, 69
2, 358200, Note_on_c, 0, 79, 0
2, 358200, Note_on_c, 0, 81, 76
2, 358560, Note_on_c, 0, 81, 0
2, 358560, Note_on_c, 0, 83, 77
2, 359460, Note_on_c, 0, 83, 0
2, 362880, Note_on_c, 0, 67, 81
2, 363240, Note_on_c, 0, 67, 0
2, 363240, Note_on_c, 0, 69, 92
2, 363600, Note_on_c, 0, 69, 0
2, 363600, Note_on_c, 0, 71, 88
2, 364680, Note_on_c, 0, 71, 0
2, 364680, Note_on_c, 0, 69, 86
2, 365040, Note_on_c, 0, 69, 0
2, 365040, Note_on_c, 0, 71, 93
2, 365400, Note_on_c, 0, 71, 0
2, 365400, Note_on_c, 0, 74, 98
2, 365760, Note_on_c, 0, 74, 0
2, 365760, Note_on_c, 0, 79, 102
2, 366120, Note_on_c, 0, 79, 0
2, 366120, Note_on_c, 0, 78, 84
2, 366480, Note_on_c, 0, 78, 0
2, 366480, Note_on_c, 0, 76, 82
2, 367020, Note_on_c, 0, 76, 0
2, 367020, Note_on_c, 0, 74, 81
2, 367200, Note_on_c, 0, 74, 0
2, 367200, Note_on_c, 0, 72, 83
2, 367380, Note_on_c, 0, 72, 0
2, 367380, Note_on_c, 0, 71, 91
2, 367560, Note_on_c, 0, 71, 0
2, 367560, Note_on_c, 0, 69, 86
2, 367920, Note_on_c, 0, 69, 0
2, 367920, Note_on_c, 0, 76, 105
2, 368640, Note_on_c, 0, 76, 0
2, 368640, Note_on_c, 0, 83, 108
2, 369000, Note_on_c, 0, 83, 0
2, 369000, Note_on_c, 0, 81, 87
2, 369360, Note_on_c, 0, 81, 0
2, 369360, Note_on_c, 0, 79, 84
2, 369900, Note_on_c, 0, 79, 0
2, 369900, Note_on_c, 0, 78, 85
2, 370080, Note_on_c, 0, 78, 0
2, 370080, Note_on_c, 0, 76, 79
2, 370260, Note_on_c, 0, 76, 0
2, 370260, Note_on_c, 0, 74, 78
2, 370440, Note_on_c, 0, 74, 0
2, 370440, Note_on_c, 0, 72, 81
2, 370800, Note_on_c, 0, 72, 0
2, 370800, Note_on_c, 0, 79, 105
2, 371520, Note_on_c, 0, 79, 0
2, 371520, Note_on_c, 0, 86, 107
2, 371880, Note_on_c, 0, 86, 0
2, 371880, Note_on_c, 0, 84, 81
2, 372060, Note_on_c, 0, 84, 0
2, 372060, Note_on_c, 0, 83, 84
2, 372240, Note_on_c, 0, 83, 0
2, 372240, Note_on_c, 0, 83, 89
2, 372960, Note_on_c, 0, 83, 0
2, 372960, Note_on_c, 0, 83, 86
2, 373320, Note_on_c, 0, 83, 0
2, 373320, Note_on_c, 0, 81, 82
2, 373500, Note_on_c, 0, 81, 0
2, 373500, Note_on_c, 0, 79, 82
2, 373680, Note_on_c, 0, 79, 0
2, 373680, Note_on_c, 0, 81, 93
2, 374220, Note_on_c, 0, 81, 0
2, 374220, Note_on_c, 0, 83, 95
2, 374400, Note_on_c, 0, 83, 0
2, 374400, Note_on_c, 0, 79, 76
2, 375480, Note_on_c, 0, 79, 0
2, 375480, Note_on_c, 0, 78, 86
2, 375660, Note_on_c, 0, 78, 0
2, 375660, Note_on_c, 0, 76, 87
2, 375840, Note_on_c, 0, 76, 0
2, 375840, Note_on_c, 0, 79, 90
2, 376920, Note_on_c, 0, 79, 0
2, 376920, Note_on_c, 0, 77, 78
2, 377100, Note_on_c, 0, 77, 0
2, 377100, Note_on_c, 0, 75, 77
2, 377280, Note_on_c, 0, 75, 0
2, 377280, Note_on_c, 0, 77, 91
2, 377640, Note_on_c, 0, 77, 0
2, 377640, Note_on_c, 0, 75, 84
2, 377820, Note_on_c, 0, 75, 0
2, 377820, Note_on_c, 0, 74, 84
2, 378000, Note_on_c, 0, 74, 0
2, 378000, Note_on_c, 0, 75, 89
2, 378360, Note_on_c, 0, 75, 0
2, 378360, Note_on_c, 0, 74, 85
2, 378540, Note_on_c, 0, 74, 0
2, 378540, Note_on_c, 0, 72, 82
2, 378720, Note_on_c, 0, 72, 0
2, 378720, Note_on_c, 0, 74, 96
2, 380160, Note_on_c, 0, 74, 0
2, 380160, Note_on_c, 0, 86, 115
2, 380880, Note_on_c, 0, 86, 0
2, 380880, Note_on_c, 0, 88, 101
2, 383040, Note_on_c, 0, 88, 0
2, 383040, Note_on_c, 0, 76, 60
2, 384120, Note_on_c, 0, 76, 0
2, 384120, Note_on_c, 0, 78, 93
2, 384480, Note_on_c, 0, 78, 0
2, 384480, Note_on_c, 0, 55, 93
2, 384480, Note_on_c, 0, 62, 93
2, 384480, Note_on_c, 0, 71, 93
2, 384480, Note_on_c, 0, 79, 93
2, 384840, Note_on_c, 0, 79, 0
2, 384840, Note_on_c, 0, 62, 0
2, 384840, Note_on_c, 0, 71, 0
2, 384840, Note_on_c, 0, 55, 0
2, 392040, Note_on_c, 0, 74, 45
2, 392400, Note_on_c, 0, 74, 0
2, 392400, Note_on_c, 0, 79, 54
2, 392760, Note_on_c, 0, 79, 0
2, 392760, Note_on_c, 0, 78, 46
2, 393120, Note_on_c, 0, 78, 0
2, 393120, Note_on_c, 0, 76, 44
2, 393300, Note_on_c, 0, 76, 0
2, 393300, Note_on_c, 0, 78, 50
2, 393480, Note_on_c, 0, 78, 0
2, 393480, Note_on_c, 0, 79, 64
2, 393797, Note_on_c, 0, 79, 0
2, 393840, Note_on_c, 0, 74, 42
2, 394740, Note_on_c, 0, 74, 0
2, 394740, Note_on_c, 0, 76, 55
2, 394920, Note_on_c, 0, 76, 0
2, 394920, Note_on_c, 0, 78, 68
2, 395237, Note_on_c, 0, 78, 0
2, 395280, Note_on_c, 0, 72, 40
2, 395460, Note_on_c, 0, 72, 0
2, 395460, Note_on_c, 0, 74, 45
2, 395640, Note_on_c, 0, 74, 0
2, 395640, Note_on_c, 0, 76, 66
2, 395957, Note_on_c, 0, 76, 0
2, 396000, Note_on_c, 0, 71, 46
2, 396900, Note_on_c, 0, 71, 0
2, 396900, Note_on_c, 0, 74, 61
2, 397080, Note_on_c, 0, 74, 0
2, 397080, Note_on_c, 0, 76, 67
2, 397397, Note_on_c, 0, 76, 0
2, 397440, Note_on_c, 0, 71, 51
2, 398340, Note_on_c, 0, 71, 0
2, 398340, Note_on_c, 0, 72, 54
2, 398520, Note_on_c, 0, 72, 0
2, 398520, Note_on_c, 0, 74, 62
2, 398837, Note_on_c, 0, 74, 0
2, 398880, Note_on_c, 0, 69, 43
2, 399060, Note_on_c, 0, 69, 0
2, 399060, Note_on_c, 0, 72, 57
2, 399240, Note_on_c, 0, 72, 0
2, 399240, Note_on_c, 0, 74, 66
2, 399557, Note_on_c, 0, 74, 0
2, 399600, Note_on_c, 0, 69, 49
2, 399780, Note_on_c, 0, 69, 0
2, 399780, Note_on_c, 0, 72, 55
2, 400140, Note_on_c, 0, 72, 0
2, 400140, Note_on_c, 0, 74, 66
2, 400298, Note_on_c, 0, 74, 0
2, 400320, Note_on_c, 0, 67, 60
2, 401220, Note_on_c, 0, 67, 0
2, 401220, Note_on_c, 0, 71, 54
2, 401400, Note_on_c, 0, 71, 0
2, 401400, Note_on_c, 0, 72, 70
2, 401717, Note_on_c, 0, 72, 0
2, 401760, Note_on_c, 0, 67, 45
2, 401940, Note_on_c, 0, 67, 0
2, 401940, Note_on_c, 0, 69, 56
2, 402120, Note_on_c, 0, 69, 0
2, 402120, Note_on_c, 0, 71, 63
2, 402437, Note_on_c, 0, 71, 0
2, 402480, Note_on_c, 0, 67, 46
2, 404100, Note_on_c, 0, 67, 0
2, 404100, Note_on_c, 0, 69, 51
2, 404280, Note_on_c, 0, 69, 0
2, 404280, Note_on_c, 0, 71, 64
2, 404597, Note_on_c, 0, 71, 0
2, 404640, Note_on_c, 0, 66, 46
2, 404820, Note_on_c, 0, 66, 0
2, 404820, Note_on_c, 0, 67, 54
2, 405000, Note_on_c, 0, 67, 0
2, 405000, Note_on_c, 0, 69, 65
2, 405317, Note_on_c, 0, 69, 0
2, 405360, Note_on_c, 0, 64, 49
2, 406260, Note_on_c, 0, 64, 0
2, 406260, Note_on_c, 0, 66, 48
2, 406440, Note_on_c, 0, 66, 0
2, 406440, Note_on_c, 0, 67, 62
2, 406757, Note_on_c, 0, 67, 0
2, 406800, Note_on_c, 0, 63, 45
2, 407700, Note_on_c, 0, 63, 0
2, 407700, Note_on_c, 0, 66, 50
2, 407880, Note_on_c, 0, 66, 0
2, 407880, Note_on_c, 0, 67, 61
2, 408197, Note_on_c, 0, 67, 0
2, 408240, Note_on_c, 0, 62, 44
2, 408420, Note_on_c, 0, 62, 0
2, 408420, Note_on_c, 0, 66, 54
2, 408600, Note_on_c, 0, 66, 0
2, 408600, Note_on_c, 0, 67, 67
2, 408917, Note_on_c, 0, 67, 0
2, 408960, Note_on_c, 0, 61, 44
2, 409860, Note_on_c, 0, 61, 0
2, 409860, Note_on_c, 0, 66, 60
2, 410040, Note_on_c, 0, 66, 0
2, 410040, Note_on_c, 0, 67, 65
2, 410357, Note_on_c, 0, 67, 0
2, 410400, Note_on_c, 0, 60, 45
2, 411300, Note_on_c, 0, 60, 0
2, 411300, Note_on_c, 0, 66, 57
2, 411480, Note_on_c, 0, 66, 0
2, 411480, Note_on_c, 0, 67, 66
2, 413280, Note_on_c, 0, 67, 0
2, 413280, Note_on_c, 0, 48, 43
2, 414180, Note_on_c, 0, 48, 0
2, 414180, Note_on_c, 0, 54, 49
2, 414360, Note_on_c, 0, 54, 0
2, 414360, Note_on_c, 0, 55, 64
2, 416160, Note_on_c, 0, 55, 0
2, 416520, Note_on_c, 0, 62, 69
2, 416609, Note_on_c, 0, 62, 0
2, 416700, Note_on_c, 0, 64, 71
2, 416789, Note_on_c, 0, 64, 0
2, 416880, Note_on_c, 0, 64, 85
2, 417197, Note_on_c, 0, 64, 0
2, 417240, Note_on_c, 0, 66, 78
2, 417329, Note_on_c, 0, 66, 0
2, 417420, Note_on_c, 0, 67, 75
2, 417509, Note_on_c, 0, 67, 0
2, 417600, Note_on_c, 0, 67, 72
2, 417960, Note_on_c, 0, 67, 0
2, 417960, Note_on_c, 0, 69, 77
2, 418049, Note_on_c, 0, 69, 0
2, 418140, Note_on_c, 0, 71, 78
2, 418229, Note_on_c, 0, 71, 0
2, 418320, Note_on_c, 0, 71, 84
2, 418637, Note_on_c, 0, 71, 0
2, 418680, Note_on_c, 0, 72, 79
2, 418769, Note_on_c, 0, 72, 0
2, 418860, Note_on_c, 0, 74, 81
2, 418949, Note_on_c, 0, 74, 0
2, 419040, Note_on_c, 0, 74, 71
2, 419400, Note_on_c, 0, 74, 0
2, 419400, Note_on_c, 0, 67, 73
2, 419489, Note_on_c, 0, 67, 0
2, 419580, Note_on_c, 0, 69, 74
2, 419669, Note_on_c, 0, 69, 0
2, 419760, Note_on_c, 0, 69, 75
2, 420120, Note_on_c, 0, 69, 0
2, 420120, Note_on_c, 0, 71, 76
2, 420209, Note_on_c, 0, 71, 0
2, 420300, Note_on_c, 0, 72, 77
2, 420389, Note_on_c, 0, 72, 0
2, 420480, Note_on_c, 0, 72, 78
2, 420840, Note_on_c, 0, 72, 0
2, 420840, Note_on_c, 0, 74, 80
2, 420929, Note_on_c, 0, 74, 0
2, 421020, Note_on_c, 0, 76, 80
2, 421109, Note_on_c, 0, 76, 0
2, 421200, Note_on_c, 0, 76, 81
2, 421379, Note_on_c, 0, 76, 0
2, 421560, Note_on_c, 0, 78, 83
2, 421649, Note_on_c, 0, 78, 0
2, 421740, Note_on_c, 0, 79, 84
2, 421829, Note_on_c, 0, 79, 0
2, 421920, Note_on_c, 0, 79, 84
2, 422280, Note_on_c, 0, 79, 0
2, 422280, Note_on_c, 0, 72, 73
2, 422640, Note_on_c, 0, 72, 0
2, 422640, Note_on_c, 0, 74, 91
2, 424440, Note_on_c, 0, 74, 0
2, 424440, Note_on_c, 0, 74, 88
2, 424800, Note_on_c, 0, 74, 0
2, 424800, Note_on_c, 0, 76, 91
2, 426600, Note_on_c, 0, 76, 0
2, 426600, Note_on_c, 0, 72, 90
2, 426917, Note_on_c, 0, 72, 0
2, 426960, Note_on_c, 0, 71, 80
2, 427320, Note_on_c, 0, 71, 0
2, 427320, Note_on_c, 0, 69, 93
2, 427680, Note_on_c, 0, 69, 0
2, 427680, Note_on_c, 0, 67, 87
2, 428040, Note_on_c, 0, 67, 0
2, 428040, Note_on_c, 0, 84, 117
2, 428357, Note_on_c, 0, 84, 0
2, 428400, Note_on_c, 0, 83, 114
2, 428717, Note_on_c, 0, 83, 0
2, 428760, Note_on_c, 0, 81, 106
2, 429077, Note_on_c, 0, 81, 0
2, 429120, Note_on_c, 0, 79, 106
2, 429437, Note_on_c, 0, 79, 0
2, 429480, Note_on_c, 0, 76, 107
2, 429797, Note_on_c, 0, 76, 0
2, 429840, Note_on_c, 0, 74, 112
2, 430157, Note_on_c, 0, 74, 0
2, 430200, Note_on_c, 0, 71, 110
2, 430517, Note_on_c, 0, 71, 0
2, 430560, Note_on_c, 0, 69, 109
2, 430877, Note_on_c, 0, 69, 0
2, 431280, Note_on_c, 0, 85, 101
2, 431913, Note_on_c, 0, 85, 0
2, 432000, Note_on_c, 0, 86, 117
2, 432633, Note_on_c, 0, 86, 0
2, 432720, Note_on_c, 0, 87, 117
2, 433353, Note_on_c, 0, 87, 0
2, 433440, Note_on_c, 0, 88, 117
2, 434073, Note_on_c, 0, 88, 0
2, 434520, Note_on_c, 0, 52, 90
2, 434640, Note_on_c, 0, 52, 0
2, 434640, Note_on_c, 0, 57, 107
2, 434759, Note_on_c, 0, 57, 0
2, 434759, Note_on_c, 0, 59, 106
2, 434880, Note_on_c, 0, 59, 0
2, 434880, Note_on_c, 0, 59, 90
2, 435600, Note_on_c, 0, 59, 0
2, 435600, Note_on_c, 0, 64, 94
2, 436140, Note_on_c, 0, 48, 91
2, 436140, Note_on_c, 0, 55, 91
2, 436320, Note_on_c, 0, 48, 0
2, 436320, Note_on_c, 0, 55, 0
2, 436320, Note_on_c, 0, 64, 0
2, 436320, Note_on_c, 0, 67, 91
2, 437040, Note_on_c, 0, 67, 0
2, 437040, Note_on_c, 0, 72, 105
2, 437760, Note_on_c, 0, 72, 0
2, 437760, Note_on_c, 0, 75, 87
2, 438120, Note_on_c, 0, 75, 0
2, 438120, Note_on_c, 0, 79, 90
2, 438840, Note_on_c, 0, 79, 0
2, 438840, Note_on_c, 0, 81, 97
2, 439020, Note_on_c, 0, 48, 114
2, 439020, Note_on_c, 0, 55, 114
2, 439200, Note_on_c, 0, 48, 0
2, 439200, Note_on_c, 0, 55, 0
2, 439200, Note_on_c, 0, 81, 0
2, 439200, Note_on_c, 0, 74, 100
2, 439200, Note_on_c, 0, 83, 100
2, 439920, Note_on_c, 0, 83, 0
2, 439920, Note_on_c, 0, 74, 0
2, 439920, Note_on_c, 0, 79, 85
2, 440280, Note_on_c, 0, 79, 0
2, 440280, Note_on_c, 0, 74, 81
2, 440460, Note_on_c, 0, 48, 114
2, 440460, Note_on_c, 0, 55, 114
2, 440640, Note_on_c, 0, 48, 0
2, 440640, Note_on_c, 0, 55, 0
2, 440640, Note_on_c, 0, 74, 0
2, 440640, Note_on_c, 0, 71, 108
2, 440640, Note_on_c, 0, 79, 108
2, 441360, Note_on_c, 0, 79, 0
2, 441360, Note_on_c, 0, 71, 0
2, 441360, Note_on_c, 0, 74, 87
2, 441720, Note_on_c, 0, 74, 0
2, 441720, Note_on_c, 0, 71, 94
2, 441900, Note_on_c, 0, 48, 116
2, 441900, Note_on_c, 0, 55, 116
2, 442080, Note_on_c, 0, 48, 0
2, 442080, Note_on_c, 0, 55, 0
2, 442080, Note_on_c, 0, 71, 0
2, 442080, Note_on_c, 0, 62, 110
2, 442080, Note_on_c, 0, 74, 110
2, 442800, Note_on_c, 0, 74, 0
2, 442800, Note_on_c, 0, 62, 0
2, 442800, Note_on_c, 0, 71, 92
2, 443160, Note_on_c, 0, 71, 0
2, 443160, Note_on_c, 0, 67, 90
2, 443340, Note_on_c, 0, 48, 112
2, 443340, Note_on_c, 0, 55, 112
2, 443520, Note_on_c, 0, 48, 0
2, 443520, Note_on_c, 0, 55, 0
2, 443520, Note_on_c, 0, 67, 0
2, 443520, Note_on_c, 0, 62, 107
2, 443520, Note_on_c, 0, 71, 107
2, 444240, Note_on_c, 0, 71, 0
2, 444240, Note_on_c, 0, 62, 0
2, 444240, Note_on_c, 0, 67, 95
2, 444600, Note_on_c, 0, 67, 0
2, 444600, Note_on_c, 0, 62, 90
2, 444960, Note_on_c, 0, 62, 0
2, 444960, Note_on_c, 0, 55, 101
2, 444960, Note_on_c, 0, 67, 101
2, 445320, Note_on_c, 0, 67, 0
2, 445320, Note_on_c, 0, 55, 0
2, 448560, Note_on_c, 0, 55, 94
2, 448560, Note_on_c, 0, 62, 94
2, 448560, Note_on_c, 0, 71, 94
2, 448920, Note_on_c, 0, 71, 0
2, 448920, Note_on_c, 0, 62, 0
2, 448920, Note_on_c, 0, 55, 0
2, 449280, Note_on_c, 0, 55, 91
2, 450720, Note_on_c, 0, 55, 0
2, 450722, Note_on_c, 0, 55, 0
2, 450722, End_track
3, 0, Start_track
3, 0, Title_t, "Piano"
3, 0, Program_c, 0, 0
3, 0, Control_c, 0, 7, 100
3, 0, Control_c, 0, 10, 51
3, 0, Control_c, 0, 91, 48
3, 1080, Control_c, 0, 121, 0
3, 1080, Control_c, 0, 64, 0
3, 1080, Control_c, 0, 121, 0
3, 1080, Control_c, 0, 64, 0
3, 1080, Control_c, 0, 91, 48
3, 1080, Control_c, 0, 10, 51
3, 1080, Control_c, 0, 7, 100
3, 1080, Note_on_c, 0, 31, 97
3, 1080, Note_on_c, 0, 43, 97
3, 1440, Note_on_c, 0, 43, 0
3, 1440, Note_on_c, 0, 31, 0
3, 1440, Note_on_c, 0, 67, 102
3, 1440, Note_on_c, 0, 71, 102
3, 1440, Note_on_c, 0, 74, 102
3, 1440, Note_on_c, 0, 79, 102
3, 1440, Note_on_c, 0, 50, 117
3, 1440, Note_on_c, 0, 55, 117
3, 1440, Note_on_c, 0, 59, 117
3, 1727, Note_on_c, 0, 59, 0
3, 1727, Note_on_c, 0, 50, 0
3, 1727, Note_on_c, 0, 55, 0
3, 1800, Note_on_c, 0, 74, 0
3, 1800, Note_on_c, 0, 67, 0
3, 1800, Note_on_c, 0, 71, 0
3, 1800, Note_on_c, 0, 79, 0
3, 1800, Note_on_c, 0, 57, 70
3, 1800, Note_on_c, 0, 33, 77
3, 1800, Note_on_c, 0, 45, 77
3, 1889, Note_on_c, 0, 45, 0
3, 1889, Note_on_c, 0, 33, 0
3, 1889, Note_on_c, 0, 57, 0
3, 1980, Note_on_c, 0, 59, 92
3, 1980, Note_on_c, 0, 35, 86
3, 1980, Note_on_c, 0, 47, 86
3, 2069, Note_on_c, 0, 47, 0
3, 2069, Note_on_c, 0, 35, 0
3, 2069, Note_on_c, 0, 59, 0
3, 2160, Note_on_c, 0, 60, 91
3, 2160, Note_on_c, 0, 36, 88
3, 2160, Note_on_c, 0, 48, 88
3, 2249, Note_on_c, 0, 48, 0
3, 2249, Note_on_c, 0, 36, 0
3, 2249, Note_on_c, 0, 60, 0
3, 2340, Note_on_c, 0, 63, 97
3, 2340, Note_on_c, 0, 39, 95
3, 2340, Note_on_c, 0, 51, 95
3, 2429, Note_on_c, 0, 51, 0
3, 2429, Note_on_c, 0, 39, 0
3, 2429, Note_on_c, 0, 63, 0
3, 2520, Note_on_c, 0, 67, 117
3, 2520, Note_on_c, 0, 43, 114
3, 2520, Note_on_c, 0, 55, 114
3, 3240, Note_on_c, 0, 55, 0
3, 3240, Note_on_c, 0, 43, 0
3, 3240, Note_on_c, 0, 67, 0
3, 3240, Note_on_c, 0, 57, 80
3, 3240, Note_on_c, 0, 63, 80
3, 3240, Note_on_c, 0, 66, 80
3, 3240, Note_on_c, 0, 36, 77
3, 3240, Note_on_c, 0, 48, 77
3, 3420, Note_on_c, 0, 48, 0
3, 3420, Note_on_c, 0, 66, 0
3, 3420, Note_on_c, 0, 57, 0
3, 3420, Note_on_c, 0, 63, 0
3, 3420, Note_on_c, 0, 36, 0
3, 3600, Note_on_c, 0, 55, 79
3, 3600, Note_on_c, 0, 62, 79
3, 3600, Note_on_c, 0, 67, 79
3, 3600, Note_on_c, 0, 35, 81
3, 3600, Note_on_c, 0, 47, 81
3, 3780, Note_on_c, 0, 47, 0
3, 3780, Note_on_c, 0, 67, 0
3, 3780, Note_on_c, 0, 55, 0
3, 3780, Note_on_c, 0, 62, 0
3, 3780, Note_on_c, 0, 35, 0
3, 3960, Note_on_c, 0, 60, 79
3, 3960, Note_on_c, 0, 63, 79
3, 3960, Note_on_c, 0, 69, 79
3, 3960, Note_on_c, 0, 42, 73
3, 3960, Note_on_c, 0, 54, 73
3, 4140, Note_on_c, 0, 54, 0
3, 4140, Note_on_c, 0, 69, 0
3, 4140, Note_on_c, 0, 60, 0
3, 4140, Note_on_c, 0, 63, 0
3, 4140, Note_on_c, 0, 42, 0
3, 4320, Note_on_c, 0, 59, 76
3, 4320, Note_on_c, 0, 62, 76
3, 4320, Note_on_c, 0, 67, 76
3, 4320, Note_on_c, 0, 71, 76
3, 4320, Control_c, 0, 64, 127
3, 4320, Note_on_c, 0, 43, 81
3, 4320, Note_on_c, 0, 55, 81
3, 4440, Note_on_c, 0, 71, 0
3, 4440, Note_on_c, 0, 67, 0
3, 4440, Note_on_c, 0, 59, 0
3, 4440, Note_on_c, 0, 62, 0
3, 4440, Note_on_c, 0, 59, 73
3, 4500, Note_on_c, 0, 55, 0
3, 4500, Note_on_c, 0, 43, 0
3, 4559, Note_on_c, 0, 59, 0
3, 4559, Note_on_c, 0, 62, 86
3, 4680, Note_on_c, 0, 62, 0
3, 4680, Note_on_c, 0, 67, 87
3, 4680, Note_on_c, 0, 71, 87
3, 4680, Control_c, 0, 64, 0
3, 4680, Control_c, 0, 64, 127
3, 4680, Note_on_c, 0, 43, 87
3, 4680, Note_on_c, 0, 55, 87
3, 4776, Note_on_c, 0, 71, 0
3, 4776, Note_on_c, 0, 67, 0
3, 4800, Note_on_c, 0, 62, 88
3, 4919, Note_on_c, 0, 62, 0
3, 4919, Note_on_c, 0, 67, 90
3, 5040, Note_on_c, 0, 67, 0
3, 5040, Note_on_c, 0, 43, 0
3, 5040, Note_on_c, 0, 55, 0
3, 5040, Note_on_c, 0, 71, 91
3, 5040, Note_on_c, 0, 74, 91
3, 5040, Control_c, 0, 64, 0
3, 5040, Control_c, 0, 64, 127
3, 5040, Note_on_c, 0, 42, 91
3, 5040, Note_on_c, 0, 54, 91
3, 5160, Note_on_c, 0, 74, 0
3, 5160, Note_on_c, 0, 71, 0
3, 5160, Note_on_c, 0, 67, 92
3, 5255, Note_on_c, 0, 67, 0
3, 5279, Note_on_c, 0, 71, 93
3, 5400, Note_on_c, 0, 71, 0
3, 5400, Note_on_c, 0, 42, 0
3, 5400, Note_on_c, 0, 54, 0
3, 5400, Note_on_c, 0, 74, 94
3, 5400, Note_on_c, 0, 79, 94
3, 5400, Control_c, 0, 64, 0
3, 5400, Control_c, 0, 64, 127
3, 5400, Note_on_c, 0, 40, 95
3, 5400, Note_on_c, 0, 52, 95
3, 5496, Note_on_c, 0, 79, 0
3, 5496, Note_on_c, 0, 74, 0
3, 5520, Note_on_c, 0, 71, 95
3, 5639, Note_on_c, 0, 71, 0
3, 5639, Note_on_c, 0, 74, 97
3, 5760, Note_on_c, 0, 74, 0
3, 5760, Note_on_c, 0, 40, 0
3, 5760, Note_on_c, 0, 52, 0
3, 5760, Note_on_c, 0, 79, 98
3, 5760, Note_on_c, 0, 83, 98
3, 5760, Control_c, 0, 64, 0
3, 5760, Note_on_c, 0, 38, 117
3, 5760, Note_on_c, 0, 50, 117
3, 5856, Note_on_c, 0, 83, 0
3, 5856, Note_on_c, 0, 79, 0
3, 5880, Note_on_c, 0, 76, 99
3, 5999, Note_on_c, 0, 76, 0
3, 5999, Note_on_c, 0, 79, 103
3, 6120, Note_on_c, 0, 79, 0
3, 6120, Note_on_c, 0, 76, 117
3, 6120, Note_on_c, 0, 79, 117
3, 6120, Note_on_c, 0, 83, 117
3, 6120, Note_on_c, 0, 88, 117
3, 6120, Note_on_c, 0, 61, 117
3, 6120, Note_on_c, 0, 64, 117
3, 6120, Note_on_c, 0, 67, 117
3, 6120, Note_on_c, 0, 71, 117
3, 6840, Note_on_c, 0, 71, 0
3, 6840, Note_on_c, 0, 76, 0
3, 6840, Note_on_c, 0, 79, 0
3, 6840, Note_on_c, 0, 67, 0
3, 6840, Note_on_c, 0, 83, 0
3, 6840, Note_on_c, 0, 61, 0
3, 6840, Note_on_c, 0, 64, 0
3, 6840, Note_on_c, 0, 88, 0
3, 6840, Note_on_c, 0, 72, 117
3, 6840, Note_on_c, 0, 74, 117
3, 6840, Note_on_c, 0, 78, 117
3, 6840, Note_on_c, 0, 81, 117
3, 6840, Note_on_c, 0, 86, 117
3, 6840, Note_on_c, 0, 60, 117
3, 6840, Note_on_c, 0, 62, 117
3, 6840, Note_on_c, 0, 66, 117
3, 6840, Note_on_c, 0, 69, 117
3, 7020, Note_on_c, 0, 69, 0
3, 7020, Note_on_c, 0, 60, 0
3, 7020, Note_on_c, 0, 72, 0
3, 7020, Note_on_c, 0, 74, 0
3, 7020, Note_on_c, 0, 66, 0
3, 7020, Note_on_c, 0, 78, 0
3, 7020, Note_on_c, 0, 86, 0
3, 7020, Note_on_c, 0, 62, 0
3, 7020, Note_on_c, 0, 81, 0
3, 7200, Note_on_c, 0, 38, 0
3, 7200, Note_on_c, 0, 50, 0
3, 7200, Note_on_c, 0, 67, 88
3, 7200, Note_on_c, 0, 71, 88
3, 7200, Note_on_c, 0, 74, 88
3, 7200, Note_on_c, 0, 79, 88
3, 7200, Note_on_c, 0, 43, 89
3, 7200, Note_on_c, 0, 50, 89
3, 7200, Note_on_c, 0, 59, 89
3, 7320, Note_on_c, 0, 59, 0
3, 7320, Note_on_c, 0, 43, 0
3, 7320, Note_on_c, 0, 71, 0
3, 7320, Note_on_c, 0, 74, 0
3, 7320, Note_on_c, 0, 67, 0
3, 7320, Note_on_c, 0, 50, 0
3, 7320, Note_on_c, 0, 79, 0
3, 7439, Note_on_c, 0, 50, 66
3, 7439, Note_on_c, 0, 38, 68
3, 7560, Note_on_c, 0, 38, 0
3, 7560, Note_on_c, 0, 50, 0
3, 7560, Note_on_c, 0, 55, 78
3, 7560, Control_c, 0, 64, 127
3, 7560, Note_on_c, 0, 31, 81
3, 7560, Note_on_c, 0, 43, 81
3, 7847, Note_on_c, 0, 43, 0
3, 7847, Note_on_c, 0, 31, 0
3, 7847, Note_on_c, 0, 55, 0
3, 7920, Control_c, 0, 64, 0
3, 8280, Note_on_c, 0, 59, 65
3, 8280, Note_on_c, 0, 71, 65
3, 8280, Note_on_c, 0, 43, 66
3, 8280, Note_on_c, 0, 50, 66
3, 8400, Note_on_c, 0, 71, 0
3, 8400, Note_on_c, 0, 59, 0
3, 8400, Note_on_c, 0, 69, 66
3, 8519, Note_on_c, 0, 69, 0
3, 8519, Note_on_c, 0, 43, 0
3, 8519, Note_on_c, 0, 50, 0
3, 8519, Note_on_c, 0, 67, 65
3, 8519, Note_on_c, 0, 60, 89
3, 8615, Note_on_c, 0, 60, 0
3, 8615, Note_on_c, 0, 67, 0
3, 8640, Note_on_c, 0, 59, 76
3, 8640, Note_on_c, 0, 67, 76
3, 8640, Note_on_c, 0, 43, 69
3, 8640, Note_on_c, 0, 50, 69
3, 8879, Note_on_c, 0, 50, 0
3, 8879, Note_on_c, 0, 59, 0
3, 8879, Note_on_c, 0, 67, 0
3, 8879, Note_on_c, 0, 43, 0
3, 8879, Note_on_c, 0, 50, 60
3, 8879, Note_on_c, 0, 38, 58
3, 9000, Note_on_c, 0, 38, 0
3, 9000, Note_on_c, 0, 50, 0
3, 9000, Note_on_c, 0, 55, 73
3, 9000, Control_c, 0, 64, 127
3, 9000, Note_on_c, 0, 31, 72
3, 9000, Note_on_c, 0, 43, 72
3, 9287, Note_on_c, 0, 43, 0
3, 9287, Note_on_c, 0, 31, 0
3, 9287, Note_on_c, 0, 55, 0
3, 9360, Control_c, 0, 64, 0
3, 9720, Note_on_c, 0, 59, 64
3, 9720, Note_on_c, 0, 71, 64
3, 9720, Note_on_c, 0, 43, 63
3, 9720, Note_on_c, 0, 50, 63
3, 9840, Note_on_c, 0, 71, 0
3, 9840, Note_on_c, 0, 59, 0
3, 9840, Note_on_c, 0, 69, 66
3, 9959, Note_on_c, 0, 69, 0
3, 9959, Note_on_c, 0, 43, 0
3, 9959, Note_on_c, 0, 50, 0
3, 9959, Note_on_c, 0, 67, 71
3, 9959, Note_on_c, 0, 60, 91
3, 10055, Note_on_c, 0, 60, 0
3, 10055, Note_on_c, 0, 67, 0
3, 10080, Note_on_c, 0, 59, 73
3, 10080, Note_on_c, 0, 67, 73
3, 10080, Note_on_c, 0, 43, 64
3, 10080, Note_on_c, 0, 50, 64
3, 10319, Note_on_c, 0, 50, 0
3, 10319, Note_on_c, 0, 43, 0
3, 10319, Note_on_c, 0, 38, 61
3, 10440, Note_on_c, 0, 38, 0
3, 10440, Note_on_c, 0, 67, 0
3, 10440, Note_on_c, 0, 59, 0
3, 10440, Note_on_c, 0, 59, 64
3, 10440, Note_on_c, 0, 31, 75
3, 10440, Note_on_c, 0, 43, 75
3, 10560, Note_on_c, 0, 59, 0
3, 10560, Note_on_c, 0, 62, 83
3, 10679, Note_on_c, 0, 62, 0
3, 10679, Note_on_c, 0, 43, 0
3, 10679, Note_on_c, 0, 31, 0
3, 10679, Note_on_c, 0, 64, 79
3, 10679, Note_on_c, 0, 53, 82
3, 10800, Note_on_c, 0, 64, 0
3, 10800, Note_on_c, 0, 67, 83
3, 10800, Note_on_c, 0, 64, 70
3, 10800, Note_on_c, 0, 55, 81
3, 10800, Note_on_c, 0, 59, 81
3, 10920, Note_on_c, 0, 64, 0
3, 10920, Note_on_c, 0, 62, 69
3, 11039, Note_on_c, 0, 62, 0
3, 11039, Note_on_c, 0, 59, 75
3, 11160, Note_on_c, 0, 59, 0
3, 11160, Note_on_c, 0, 55, 0
3, 11160, Note_on_c, 0, 59, 0
3, 11160, Note_on_c, 0, 53, 0
3, 11160, Note_on_c, 0, 59, 79
3, 11160, Note_on_c, 0, 43, 68
3, 11160, Note_on_c, 0, 52, 68
3, 11280, Note_on_c, 0, 59, 0
3, 11280, Note_on_c, 0, 60, 84
3, 11399, Note_on_c, 0, 60, 0
3, 11399, Note_on_c, 0, 52, 0
3, 11399, Note_on_c, 0, 43, 0
3, 11399, Note_on_c, 0, 59, 77
3, 11399, Note_on_c, 0, 51, 74
3, 11520, Note_on_c, 0, 51, 0
3, 11520, Note_on_c, 0, 59, 0
3, 11520, Note_on_c, 0, 59, 78
3, 11520, Note_on_c, 0, 43, 70
3, 11520, Note_on_c, 0, 50, 70
3, 11759, Note_on_c, 0, 50, 0
3, 11759, Note_on_c, 0, 43, 0
3, 11759, Note_on_c, 0, 38, 62
3, 11880, Note_on_c, 0, 38, 0
3, 11880, Note_on_c, 0, 59, 0
3, 11880, Note_on_c, 0, 67, 0
3, 11880, Note_on_c, 0, 71, 83
3, 11880, Note_on_c, 0, 31, 78
3, 11880, Note_on_c, 0, 43, 78
3, 12000, Note_on_c, 0, 71, 0
3, 12000, Note_on_c, 0, 74, 81
3, 12119, Note_on_c, 0, 74, 0
3, 12119, Note_on_c, 0, 43, 0
3, 12119, Note_on_c, 0, 31, 0
3, 12119, Note_on_c, 0, 76, 75
3, 12119, Note_on_c, 0, 53, 81
3, 12240, Note_on_c, 0, 76, 0
3, 12240, Note_on_c, 0, 76, 74
3, 12240, Note_on_c, 0, 55, 97
3, 12240, Note_on_c, 0, 59, 97
3, 12240, Note_on_c, 0, 64, 97
3, 12360, Note_on_c, 0, 76, 0
3, 12360, Note_on_c, 0, 74, 69
3, 12479, Note_on_c, 0, 74, 0
3, 12479, Note_on_c, 0, 64, 0
3, 12479, Note_on_c, 0, 53, 0
3, 12479, Note_on_c, 0, 55, 0
3, 12479, Note_on_c, 0, 59, 0
3, 12479, Note_on_c, 0, 71, 68
3, 12479, Note_on_c, 0, 62, 74
3, 12600, Note_on_c, 0, 62, 0
3, 12600, Note_on_c, 0, 71, 0
3, 12600, Note_on_c, 0, 72, 75
3, 12600, Note_on_c, 0, 52, 65
3, 12600, Note_on_c, 0, 55, 65
3, 12600, Note_on_c, 0, 60, 65
3, 12720, Note_on_c, 0, 72, 0
3, 12720, Note_on_c, 0, 71, 71
3, 12839, Note_on_c, 0, 71, 0
3, 12839, Note_on_c, 0, 60, 0
3, 12839, Note_on_c, 0, 55, 0
3, 12839, Note_on_c, 0, 52, 0
3, 12839, Note_on_c, 0, 67, 64
3, 12839, Note_on_c, 0, 59, 74
3, 12960, Note_on_c, 0, 59, 0
3, 12960, Note_on_c, 0, 67, 0
3, 12960, Note_on_c, 0, 67, 81
3, 12960, Note_on_c, 0, 71, 81
3, 12960, Note_on_c, 0, 50, 74
3, 12960, Note_on_c, 0, 55, 74
3, 12960, Note_on_c, 0, 59, 74
3, 13080, Note_on_c, 0, 71, 0
3, 13080, Note_on_c, 0, 67, 0
3, 13080, Note_on_c, 0, 74, 81
3, 13199, Note_on_c, 0, 74, 0
3, 13199, Note_on_c, 0, 76, 76
3, 13320, Note_on_c, 0, 76, 0
3, 13320, Note_on_c, 0, 55, 0
3, 13320, Note_on_c, 0, 50, 0
3, 13320, Note_on_c, 0, 59, 0
3, 13320, Note_on_c, 0, 78, 78
3, 13320, Note_on_c, 0, 62, 82
3, 13440, Note_on_c, 0, 78, 0
3, 13440, Note_on_c, 0, 79, 82
3, 13500, Note_on_c, 0, 62, 0
3, 13500, Note_on_c, 0, 67, 88
3, 13559, Note_on_c, 0, 79, 0
3, 13559, Note_on_c, 0, 78, 75
3, 13680, Note_on_c, 0, 78, 0
3, 13680, Note_on_c, 0, 67, 0
3, 13680, Note_on_c, 0, 78, 88
3, 13680, Note_on_c, 0, 74, 100
3, 13680, Note_on_c, 0, 35, 61
3, 13800, Note_on_c, 0, 35, 0
3, 13800, Note_on_c, 0, 66, 68
3, 13800, Note_on_c, 0, 47, 80
3, 13919, Note_on_c, 0, 47, 0
3, 13919, Note_on_c, 0, 55, 79
3, 14040, Note_on_c, 0, 55, 0
3, 14040, Note_on_c, 0, 62, 90
3, 14160, Note_on_c, 0, 78, 0
3, 14160, Note_on_c, 0, 76, 70
3, 14220, Note_on_c, 0, 62, 0
3, 14279, Note_on_c, 0, 76, 0
3, 14279, Note_on_c, 0, 74, 68
3, 14400, Note_on_c, 0, 74, 0
3, 14400, Note_on_c, 0, 66, 0
3, 14400, Note_on_c, 0, 74, 0
3, 14400, Note_on_c, 0, 76, 88
3, 14400, Note_on_c, 0, 72, 74
3, 14400, Control_c, 0, 64, 127
3, 14400, Note_on_c, 0, 36, 67
3, 14520, Note_on_c, 0, 36, 0
3, 14520, Note_on_c, 0, 64, 60
3, 14520, Note_on_c, 0, 48, 77
3, 14639, Note_on_c, 0, 48, 0
3, 14639, Note_on_c, 0, 55, 84
3, 14760, Note_on_c, 0, 55, 0
3, 14760, Control_c, 0, 64, 0
3, 14760, Note_on_c, 0, 60, 90
3, 14880, Note_on_c, 0, 76, 0
3, 14880, Note_on_c, 0, 74, 68
3, 14940, Note_on_c, 0, 60, 0
3, 14999, Note_on_c, 0, 74, 0
3, 14999, Note_on_c, 0, 72, 64
3, 15120, Note_on_c, 0, 72, 0
3, 15120, Note_on_c, 0, 64, 0
3, 15120, Note_on_c, 0, 72, 0
3, 15120, Note_on_c, 0, 72, 71
3, 15240, Note_on_c, 0, 72, 0
3, 15240, Note_on_c, 0, 74, 78
3, 15359, Note_on_c, 0, 74, 0
3, 15359, Note_on_c, 0, 76, 80
3, 15480, Note_on_c, 0, 76, 0
3, 15480, Note_on_c, 0, 76, 74
3, 15600, Note_on_c, 0, 76, 0
3, 15600, Note_on_c, 0, 78, 80
3, 15719, Note_on_c, 0, 78, 0
3, 15719, Note_on_c, 0, 79, 75
3, 15840, Note_on_c, 0, 79, 0
3, 15840, Note_on_c, 0, 76, 85
3, 15840, Note_on_c, 0, 72, 84
3, 15840, Control_c, 0, 64, 127
3, 15840, Note_on_c, 0, 33, 63
3, 15960, Note_on_c, 0, 33, 0
3, 15960, Note_on_c, 0, 64, 61
3, 15960, Note_on_c, 0, 45, 84
3, 16079, Note_on_c, 0, 45, 0
3, 16079, Note_on_c, 0, 54, 86
3, 16200, Note_on_c, 0, 54, 0
3, 16200, Control_c, 0, 64, 0
3, 16200, Note_on_c, 0, 60, 89
3, 16320, Note_on_c, 0, 76, 0
3, 16320, Note_on_c, 0, 74, 68
3, 16380, Note_on_c, 0, 60, 0
3, 16439, Note_on_c, 0, 74, 0
3, 16439, Note_on_c, 0, 72, 68
3, 16560, Note_on_c, 0, 72, 0
3, 16560, Note_on_c, 0, 64, 0
3, 16560, Note_on_c, 0, 72, 0
3, 16560, Note_on_c, 0, 74, 92
3, 16560, Note_on_c, 0, 71, 76
3, 16560, Control_c, 0, 64, 127
3, 16560, Note_on_c, 0, 35, 65
3, 16680, Note_on_c, 0, 35, 0
3, 16680, Note_on_c, 0, 62, 57
3, 16680, Note_on_c, 0, 47, 84
3, 16799, Note_on_c, 0, 47, 0
3, 16799, Note_on_c, 0, 54, 85
3, 16920, Note_on_c, 0, 54, 0
3, 16920, Control_c, 0, 64, 0
3, 16920, Note_on_c, 0, 59, 82
3, 17040, Note_on_c, 0, 74, 0
3, 17040, Note_on_c, 0, 72, 65
3, 17100, Note_on_c, 0, 59, 0
3, 17159, Note_on_c, 0, 72, 0
3, 17159, Note_on_c, 0, 71, 70
3, 17280, Note_on_c, 0, 71, 0
3, 17280, Note_on_c, 0, 62, 0
3, 17280, Note_on_c, 0, 71, 0
3, 17280, Note_on_c, 0, 71, 73
3, 17280, Note_on_c, 0, 64, 64
3, 17280, Note_on_c, 0, 36, 73
3, 17400, Note_on_c, 0, 71, 0
3, 17400, Note_on_c, 0, 72, 75
3, 17519, Note_on_c, 0, 72, 0
3, 17519, Note_on_c, 0, 36, 0
3, 17519, Note_on_c, 0, 71, 76
3, 17519, Note_on_c, 0, 55, 76
3, 17640, Note_on_c, 0, 55, 0
3, 17640, Note_on_c, 0, 71, 0
3, 17640, Note_on_c, 0, 69, 78
3, 17640, Note_on_c, 0, 57, 78
3, 17760, Note_on_c, 0, 57, 0
3, 17760, Note_on_c, 0, 69, 0
3, 17760, Note_on_c, 0, 67, 80
3, 17760, Note_on_c, 0, 59, 80
3, 17879, Note_on_c, 0, 59, 0
3, 17879, Note_on_c, 0, 67, 0
3, 17879, Note_on_c, 0, 69, 81
3, 17879, Note_on_c, 0, 60, 81
3, 18000, Note_on_c, 0, 60, 0
3, 18000, Note_on_c, 0, 69, 0
3, 18000, Note_on_c, 0, 64, 0
3, 18000, Note_on_c, 0, 71, 83
3, 18000, Note_on_c, 0, 64, 83
3, 18120, Note_on_c, 0, 71, 0
3, 18120, Note_on_c, 0, 72, 84
3, 18180, Note_on_c, 0, 64, 0
3, 18180, Note_on_c, 0, 66, 85
3, 18239, Note_on_c, 0, 72, 0
3, 18239, Note_on_c, 0, 76, 100
3, 18360, Note_on_c, 0, 76, 0
3, 18360, Note_on_c, 0, 66, 0
3, 18360, Note_on_c, 0, 72, 117
3, 18360, Note_on_c, 0, 76, 117
3, 18360, Note_on_c, 0, 79, 117
3, 18360, Note_on_c, 0, 67, 115
3, 18419, Note_on_c, 0, 79, 0
3, 18419, Note_on_c, 0, 72, 0
3, 18419, Note_on_c, 0, 76, 0
3, 18480, Note_on_c, 0, 72, 93
3, 18480, Note_on_c, 0, 76, 93
3, 18480, Note_on_c, 0, 79, 93
3, 18539, Note_on_c, 0, 79, 0
3, 18539, Note_on_c, 0, 76, 0
3, 18539, Note_on_c, 0, 72, 0
3, 18599, Note_on_c, 0, 72, 88
3, 18599, Note_on_c, 0, 76, 88
3, 18599, Note_on_c, 0, 79, 88
3, 18658, Note_on_c, 0, 79, 0
3, 18658, Note_on_c, 0, 76, 0
3, 18658, Note_on_c, 0, 72, 0
3, 18720, Note_on_c, 0, 72, 85
3, 18720, Note_on_c, 0, 76, 85
3, 18720, Note_on_c, 0, 79, 85
3, 18779, Note_on_c, 0, 79, 0
3, 18779, Note_on_c, 0, 76, 0
3, 18779, Note_on_c, 0, 72, 0
3, 18840, Note_on_c, 0, 72, 89
3, 18840, Note_on_c, 0, 76, 89
3, 18840, Note_on_c, 0, 79, 89
3, 18899, Note_on_c, 0, 79, 0
3, 18899, Note_on_c, 0, 76, 0
3, 18899, Note_on_c, 0, 72, 0
3, 18959, Note_on_c, 0, 72, 89
3, 18959, Note_on_c, 0, 76, 89
3, 18959, Note_on_c, 0, 79, 89
3, 19018, Note_on_c, 0, 79, 0
3, 19018, Note_on_c, 0, 76, 0
3, 19018, Note_on_c, 0, 72, 0
3, 19080, Note_on_c, 0, 67, 0
3, 19080, Note_on_c, 0, 72, 116
3, 19080, Note_on_c, 0, 75, 116
3, 19080, Note_on_c, 0, 81, 116
3, 19080, Note_on_c, 0, 69, 105
3, 19200, Note_on_c, 0, 81, 0
3, 19200, Note_on_c, 0, 72, 0
3, 19200, Note_on_c, 0, 75, 0
3, 19200, Note_on_c, 0, 72, 85
3, 19200, Note_on_c, 0, 75, 85
3, 19200, Note_on_c, 0, 79, 85
3, 19319, Note_on_c, 0, 79, 0
3, 19319, Note_on_c, 0, 75, 0
3, 19319, Note_on_c, 0, 72, 0
3, 19319, Note_on_c, 0, 72, 87
3, 19319, Note_on_c, 0, 75, 87
3, 19319, Note_on_c, 0, 79, 87
3, 19378, Note_on_c, 0, 79, 0
3, 19378, Note_on_c, 0, 75, 0
3, 19378, Note_on_c, 0, 72, 0
3, 19397, Note_on_c, 0, 69, 0
3, 19440, Note_on_c, 0, 72, 117
3, 19440, Note_on_c, 0, 75, 117
3, 19440, Note_on_c, 0, 83, 117
3, 19440, Note_on_c, 0, 71, 105
3, 19560, Note_on_c, 0, 83, 0
3, 19560, Note_on_c, 0, 72, 0
3, 19560, Note_on_c, 0, 75, 0
3, 19560, Note_on_c, 0, 72, 79
3, 19560, Note_on_c, 0, 75, 79
3, 19560, Note_on_c, 0, 79, 79
3, 19679, Note_on_c, 0, 79, 0
3, 19679, Note_on_c, 0, 75, 0
3, 19679, Note_on_c, 0, 72, 0
3, 19679, Note_on_c, 0, 72, 83
3, 19679, Note_on_c, 0, 75, 83
3, 19679, Note_on_c, 0, 79, 83
3, 19738, Note_on_c, 0, 79, 0
3, 19738, Note_on_c, 0, 75, 0
3, 19738, Note_on_c, 0, 72, 0
3, 19757, Note_on_c, 0, 71, 0
3, 19800, Note_on_c, 0, 72, 117
3, 19800, Note_on_c, 0, 75, 117
3, 19800, Note_on_c, 0, 84, 117
3, 19800, Note_on_c, 0, 72, 108
3, 19920, Note_on_c, 0, 84, 0
3, 19920, Note_on_c, 0, 72, 0
3, 19920, Note_on_c, 0, 75, 0
3, 19920, Note_on_c, 0, 72, 75
3, 19920, Note_on_c, 0, 75, 75
3, 19920, Note_on_c, 0, 79, 75
3, 20039, Note_on_c, 0, 79, 0
3, 20039, Note_on_c, 0, 75, 0
3, 20039, Note_on_c, 0, 72, 0
3, 20039, Note_on_c, 0, 72, 80
3, 20039, Note_on_c, 0, 75, 80
3, 20039, Note_on_c, 0, 79, 80
3, 20098, Note_on_c, 0, 79, 0
3, 20098, Note_on_c, 0, 75, 0
3, 20098, Note_on_c, 0, 72, 0
3, 20117, Note_on_c, 0, 72, 0
3, 20160, Note_on_c, 0, 59, 62
3, 20160, Note_on_c, 0, 67, 62
3, 20160, Note_on_c, 0, 71, 62
3, 20160, Note_on_c, 0, 43, 64
3, 20160, Note_on_c, 0, 50, 64
3, 20399, Note_on_c, 0, 50, 0
3, 20399, Note_on_c, 0, 71, 0
3, 20399, Note_on_c, 0, 59, 0
3, 20399, Note_on_c, 0, 67, 0
3, 20399, Note_on_c, 0, 43, 0
3, 20399, Note_on_c, 0, 50, 55
3, 20399, Note_on_c, 0, 38, 65
3, 20520, Note_on_c, 0, 38, 0
3, 20520, Note_on_c, 0, 50, 0
3, 20520, Note_on_c, 0, 55, 74
3, 20520, Note_on_c, 0, 31, 74
3, 20520, Note_on_c, 0, 43, 74
3, 20880, Note_on_c, 0, 43, 0
3, 20880, Note_on_c, 0, 31, 0
3, 20880, Note_on_c, 0, 55, 0
3, 21240, Note_on_c, 0, 59, 62
3, 21240, Note_on_c, 0, 71, 62
3, 21240, Note_on_c, 0, 43, 63
3, 21240, Note_on_c, 0, 50, 63
3, 21360, Note_on_c, 0, 71, 0
3, 21360, Note_on_c, 0, 59, 0
3, 21360, Note_on_c, 0, 69, 64
3, 21479, Note_on_c, 0, 69, 0
3, 21479, Note_on_c, 0, 43, 0
3, 21479, Note_on_c, 0, 50, 0
3, 21479, Note_on_c, 0, 67, 68
3, 21479, Note_on_c, 0, 60, 94
3, 21600, Note_on_c, 0, 60, 0
3, 21600, Note_on_c, 0, 67, 0
3, 21600, Note_on_c, 0, 59, 71
3, 21600, Note_on_c, 0, 67, 71
3, 21600, Note_on_c, 0, 43, 63
3, 21600, Note_on_c, 0, 50, 63
3, 21839, Note_on_c, 0, 50, 0
3, 21839, Note_on_c, 0, 59, 0
3, 21839, Note_on_c, 0, 67, 0
3, 21839, Note_on_c, 0, 43, 0
3, 21839, Note_on_c, 0, 50, 61
3, 21839, Note_on_c, 0, 38, 65
3, 21960, Note_on_c, 0, 38, 0
3, 21960, Note_on_c, 0, 50, 0
3, 21960, Note_on_c, 0, 55, 79
3, 21960, Note_on_c, 0, 31, 77
3, 21960, Note_on_c, 0, 43, 77
3, 22320, Note_on_c, 0, 43, 0
3, 22320, Note_on_c, 0, 31, 0
3, 22320, Note_on_c, 0, 55, 0
3, 22680, Note_on_c, 0, 59, 62
3, 22680, Note_on_c, 0, 71, 62
3, 22680, Note_on_c, 0, 43, 67
3, 22680, Note_on_c, 0, 50, 67
3, 22800, Note_on_c, 0, 71, 0
3, 22800, Note_on_c, 0, 59, 0
3, 22800, Note_on_c, 0, 69, 67
3, 22919, Note_on_c, 0, 69, 0
3, 22919, Note_on_c, 0, 43, 0
3, 22919, Note_on_c, 0, 50, 0
3, 22919, Note_on_c, 0, 67, 70
3, 22919, Note_on_c, 0, 60, 94
3, 23040, Note_on_c, 0, 60, 0
3, 23040, Note_on_c, 0, 67, 0
3, 23040, Note_on_c, 0, 59, 76
3, 23040, Note_on_c, 0, 67, 76
3, 23040, Note_on_c, 0, 43, 68
3, 23040, Note_on_c, 0, 50, 68
3, 23279, Note_on_c, 0, 50, 0
3, 23279, Note_on_c, 0, 43, 0
3, 23279, Note_on_c, 0, 38, 68
3, 23400, Note_on_c, 0, 38, 0
3, 23400, Note_on_c, 0, 67, 0
3, 23400, Note_on_c, 0, 59, 0
3, 23400, Note_on_c, 0, 59, 69
3, 23400, Note_on_c, 0, 31, 77
3, 23400, Note_on_c, 0, 43, 77
3, 23520, Note_on_c, 0, 59, 0
3, 23520, Note_on_c, 0, 62, 77
3, 23639, Note_on_c, 0, 62, 0
3, 23639, Note_on_c, 0, 43, 0
3, 23639, Note_on_c, 0, 31, 0
3, 23639, Note_on_c, 0, 64, 86
3, 23639, Note_on_c, 0, 53, 81
3, 23760, Note_on_c, 0, 64, 0
3, 23760, Note_on_c, 0, 67, 79
3, 23760, Note_on_c, 0, 64, 89
3, 23760, Note_on_c, 0, 55, 78
3, 23760, Note_on_c, 0, 59, 78
3, 23880, Note_on_c, 0, 64, 0
3, 23880, Note_on_c, 0, 62, 84
3, 23999, Note_on_c, 0, 62, 0
3, 23999, Note_on_c, 0, 59, 86
3, 24120, Note_on_c, 0, 59, 0
3, 24120, Note_on_c, 0, 55, 0
3, 24120, Note_on_c, 0, 59, 0
3, 24120, Note_on_c, 0, 53, 0
3, 24120, Note_on_c, 0, 60, 89
3, 24120, Note_on_c, 0, 43, 67
3, 24120, Note_on_c, 0, 52, 67
3, 24240, Note_on_c, 0, 60, 0
3, 24240, Note_on_c, 0, 59, 88
3, 24359, Note_on_c, 0, 59, 0
3, 24359, Note_on_c, 0, 52, 0
3, 24359, Note_on_c, 0, 43, 0
3, 24359, Note_on_c, 0, 55, 86
3, 24359, Note_on_c, 0, 51, 70
3, 24480, Note_on_c, 0, 51, 0
3, 24480, Note_on_c, 0, 55, 0
3, 24480, Note_on_c, 0, 59, 74
3, 24480, Note_on_c, 0, 43, 72
3, 24480, Note_on_c, 0, 50, 72
3, 24719, Note_on_c, 0, 50, 0
3, 24719, Note_on_c, 0, 43, 0
3, 24719, Note_on_c, 0, 38, 62
3, 24840, Note_on_c, 0, 38, 0
3, 24840, Note_on_c, 0, 59, 0
3, 24840, Note_on_c, 0, 67, 0
3, 24840, Note_on_c, 0, 67, 74
3, 24840, Note_on_c, 0, 35, 86
3, 24840, Note_on_c, 0, 47, 86
3, 24960, Note_on_c, 0, 67, 0
3, 24960, Note_on_c, 0, 74, 88
3, 25079, Note_on_c, 0, 74, 0
3, 25079, Note_on_c, 0, 47, 0
3, 25079, Note_on_c, 0, 35, 0
3, 25079, Note_on_c, 0, 76, 81
3, 25079, Note_on_c, 0, 55, 101
3, 25200, Note_on_c, 0, 76, 0
3, 25200, Note_on_c, 0, 79, 83
3, 25200, Note_on_c, 0, 62, 60
3, 25200, Note_on_c, 0, 67, 60
3, 25320, Note_on_c, 0, 79, 0
3, 25320, Note_on_c, 0, 78, 73
3, 25439, Note_on_c, 0, 78, 0
3, 25439, Note_on_c, 0, 67, 0
3, 25439, Note_on_c, 0, 62, 0
3, 25439, Note_on_c, 0, 74, 64
3, 25439, Note_on_c, 0, 66, 71
3, 25560, Note_on_c, 0, 66, 0
3, 25560, Note_on_c, 0, 74, 0
3, 25560, Note_on_c, 0, 76, 80
3, 25560, Note_on_c, 0, 59, 65
3, 25560, Note_on_c, 0, 64, 65
3, 25680, Note_on_c, 0, 76, 0
3, 25680, Note_on_c, 0, 74, 69
3, 25799, Note_on_c, 0, 74, 0
3, 25799, Note_on_c, 0, 64, 0
3, 25799, Note_on_c, 0, 59, 0
3, 25799, Note_on_c, 0, 71, 68
3, 25799, Note_on_c, 0, 62, 73
3, 25920, Note_on_c, 0, 62, 0
3, 25920, Note_on_c, 0, 71, 0
3, 25920, Note_on_c, 0, 55, 0
3, 25920, Note_on_c, 0, 71, 81
3, 25920, Note_on_c, 0, 74, 81
3, 25920, Note_on_c, 0, 54, 72
3, 25920, Note_on_c, 0, 59, 72
3, 25920, Note_on_c, 0, 62, 72
3, 26280, Note_on_c, 0, 62, 0
3, 26280, Note_on_c, 0, 54, 0
3, 26280, Note_on_c, 0, 71, 0
3, 26280, Note_on_c, 0, 74, 0
3, 26280, Note_on_c, 0, 59, 0
3, 26280, Note_on_c, 0, 64, 69
3, 26280, Note_on_c, 0, 71, 69
3, 26280, Note_on_c, 0, 36, 60
3, 26400, Note_on_c, 0, 36, 0
3, 26400, Note_on_c, 0, 71, 0
3, 26400, Note_on_c, 0, 64, 0
3, 26400, Note_on_c, 0, 66, 61
3, 26400, Note_on_c, 0, 48, 81
3, 26519, Note_on_c, 0, 48, 0
3, 26519, Note_on_c, 0, 66, 0
3, 26519, Note_on_c, 0, 67, 78
3, 26519, Note_on_c, 0, 52, 80
3, 26640, Note_on_c, 0, 52, 0
3, 26640, Note_on_c, 0, 67, 0
3, 26640, Note_on_c, 0, 64, 109
3, 26640, Note_on_c, 0, 71, 109
3, 26640, Note_on_c, 0, 55, 107
3, 26640, Note_on_c, 0, 59, 107
3, 27000, Note_on_c, 0, 59, 0
3, 27000, Note_on_c, 0, 64, 0
3, 27000, Note_on_c, 0, 71, 0
3, 27000, Note_on_c, 0, 55, 0
3, 27000, Note_on_c, 0, 71, 95
3, 27000, Note_on_c, 0, 76, 95
3, 27000, Note_on_c, 0, 83, 95
3, 27000, Note_on_c, 0, 37, 63
3, 27120, Note_on_c, 0, 37, 0
3, 27120, Note_on_c, 0, 71, 0
3, 27120, Note_on_c, 0, 76, 0
3, 27120, Note_on_c, 0, 83, 0
3, 27120, Note_on_c, 0, 78, 63
3, 27120, Note_on_c, 0, 49, 82
3, 27239, Note_on_c, 0, 49, 0
3, 27239, Note_on_c, 0, 78, 0
3, 27239, Note_on_c, 0, 79, 77
3, 27239, Note_on_c, 0, 52, 80
3, 27360, Note_on_c, 0, 52, 0
3, 27360, Note_on_c, 0, 79, 0
3, 27360, Note_on_c, 0, 71, 104
3, 27360, Note_on_c, 0, 76, 104
3, 27360, Note_on_c, 0, 83, 104
3, 27360, Note_on_c, 0, 55, 110
3, 27360, Note_on_c, 0, 59, 110
3, 27720, Note_on_c, 0, 59, 0
3, 27720, Note_on_c, 0, 83, 0
3, 27720, Note_on_c, 0, 71, 0
3, 27720, Note_on_c, 0, 76, 0
3, 27720, Note_on_c, 0, 55, 0
3, 27720, Note_on_c, 0, 59, 52
3, 27720, Note_on_c, 0, 66, 52
3, 27720, Note_on_c, 0, 38, 68
3, 27840, Note_on_c, 0, 38, 0
3, 27840, Note_on_c, 0, 66, 0
3, 27840, Note_on_c, 0, 59, 0
3, 27840, Note_on_c, 0, 67, 74
3, 27840, Note_on_c, 0, 50, 81
3, 27959, Note_on_c, 0, 50, 0
3, 27959, Note_on_c, 0, 67, 0
3, 27959, Note_on_c, 0, 69, 83
3, 27959, Note_on_c, 0, 55, 79
3, 28080, Note_on_c, 0, 55, 0
3, 28080, Note_on_c, 0, 69, 0
3, 28080, Note_on_c, 0, 67, 80
3, 28080, Note_on_c, 0, 71, 80
3, 28080, Note_on_c, 0, 59, 109
3, 28200, Note_on_c, 0, 71, 0
3, 28200, Note_on_c, 0, 67, 0
3, 28200, Note_on_c, 0, 74, 81
3, 28319, Note_on_c, 0, 74, 0
3, 28319, Note_on_c, 0, 76, 78
3, 28440, Note_on_c, 0, 76, 0
3, 28440, Note_on_c, 0, 59, 0
3, 28440, Note_on_c, 0, 71, 77
3, 28440, Note_on_c, 0, 78, 77
3, 28440, Note_on_c, 0, 40, 67
3, 28560, Note_on_c, 0, 40, 0
3, 28560, Note_on_c, 0, 78, 0
3, 28560, Note_on_c, 0, 71, 0
3, 28560, Note_on_c, 0, 79, 76
3, 28560, Note_on_c, 0, 47, 79
3, 28679, Note_on_c, 0, 47, 0
3, 28679, Note_on_c, 0, 79, 0
3, 28679, Note_on_c, 0, 81, 82
3, 28679, Note_on_c, 0, 55, 76
3, 28800, Note_on_c, 0, 55, 0
3, 28800, Note_on_c, 0, 81, 0
3, 28800, Note_on_c, 0, 79, 104
3, 28800, Note_on_c, 0, 83, 104
3, 28800, Note_on_c, 0, 59, 102
3, 29160, Note_on_c, 0, 59, 0
3, 29160, Note_on_c, 0, 83, 0
3, 29160, Note_on_c, 0, 79, 0
3, 29160, Note_on_c, 0, 62, 82
3, 29160, Note_on_c, 0, 50, 86
3, 29280, Note_on_c, 0, 50, 0
3, 29280, Note_on_c, 0, 62, 0
3, 29280, Note_on_c, 0, 64, 97
3, 29280, Note_on_c, 0, 52, 96
3, 29399, Note_on_c, 0, 52, 0
3, 29399, Note_on_c, 0, 64, 0
3, 29399, Note_on_c, 0, 66, 99
3, 29399, Note_on_c, 0, 54, 94
3, 29520, Note_on_c, 0, 54, 0
3, 29520, Note_on_c, 0, 66, 0
3, 29520, Note_on_c, 0, 62, 87
3, 29520, Note_on_c, 0, 66, 87
3, 29520, Note_on_c, 0, 69, 87
3, 29520, Note_on_c, 0, 74, 87
3, 29520, Note_on_c, 0, 48, 91
3, 29520, Note_on_c, 0, 54, 91
3, 29520, Note_on_c, 0, 57, 91
3, 29880, Note_on_c, 0, 62, 84
3, 29880, Note_on_c, 0, 50, 85
3, 30000, Note_on_c, 0, 50, 0
3, 30000, Note_on_c, 0, 62, 0
3, 30000, Note_on_c, 0, 64, 93
3, 30000, Note_on_c, 0, 52, 93
3, 30119, Note_on_c, 0, 52, 0
3, 30119, Note_on_c, 0, 64, 0
3, 30119, Note_on_c, 0, 66, 99
3, 30119, Note_on_c, 0, 54, 97
3, 30240, Note_on_c, 0, 54, 0
3, 30240, Note_on_c, 0, 48, 0
3, 30240, Note_on_c, 0, 66, 0
3, 30240, Note_on_c, 0, 54, 0
3, 30240, Note_on_c, 0, 69, 0
3, 30240, Note_on_c, 0, 74, 0
3, 30240, Note_on_c, 0, 62, 0
3, 30240, Note_on_c, 0, 57, 0
3, 30240, Note_on_c, 0, 66, 0
3, 30240, Note_on_c, 0, 62, 96
3, 30240, Note_on_c, 0, 66, 96
3, 30240, Note_on_c, 0, 71, 96
3, 30240, Note_on_c, 0, 74, 96
3, 30240, Note_on_c, 0, 47, 96
3, 30240, Note_on_c, 0, 54, 96
3, 30240, Note_on_c, 0, 59, 96
3, 30600, Note_on_c, 0, 62, 82
3, 30600, Note_on_c, 0, 50, 86
3, 30720, Note_on_c, 0, 50, 0
3, 30720, Note_on_c, 0, 62, 0
3, 30720, Note_on_c, 0, 64, 94
3, 30720, Note_on_c, 0, 52, 95
3, 30839, Note_on_c, 0, 52, 0
3, 30839, Note_on_c, 0, 64, 0
3, 30839, Note_on_c, 0, 66, 95
3, 30839, Note_on_c, 0, 54, 96
3, 30960, Note_on_c, 0, 54, 0
3, 30960, Note_on_c, 0, 47, 0
3, 30960, Note_on_c, 0, 66, 0
3, 30960, Note_on_c, 0, 54, 0
3, 30960, Note_on_c, 0, 71, 0
3, 30960, Note_on_c, 0, 74, 0
3, 30960, Note_on_c, 0, 62, 0
3, 30960, Note_on_c, 0, 59, 0
3, 30960, Note_on_c, 0, 66, 0
3, 30960, Note_on_c, 0, 62, 96
3, 30960, Note_on_c, 0, 66, 96
3, 30960, Note_on_c, 0, 72, 96
3, 30960, Note_on_c, 0, 74, 96
3, 30960, Note_on_c, 0, 45, 106
3, 30960, Note_on_c, 0, 54, 106
3, 30960, Note_on_c, 0, 60, 106
3, 31320, Note_on_c, 0, 62, 81
3, 31320, Note_on_c, 0, 50, 83
3, 31440, Note_on_c, 0, 50, 0
3, 31440, Note_on_c, 0, 62, 0
3, 31440, Note_on_c, 0, 64, 91
3, 31440, Note_on_c, 0, 52, 95
3, 31466, Note_on_c, 0, 66, 0
3, 31466, Note_on_c, 0, 74, 0
3, 31466, Note_on_c, 0, 62, 0
3, 31466, Note_on_c, 0, 72, 0
3, 31466, Note_on_c, 0, 60, 58
3, 31515, Note_on_c, 0, 60, 0
3, 31515, Note_on_c, 0, 63, 88
3, 31552, Note_on_c, 0, 63, 0
3, 31552, Note_on_c, 0, 72, 110
3, 31559, Note_on_c, 0, 52, 0
3, 31559, Note_on_c, 0, 64, 0
3, 31559, Note_on_c, 0, 66, 95
3, 31559, Note_on_c, 0, 54, 90
3, 31590, Note_on_c, 0, 72, 0
3, 31590, Note_on_c, 0, 72, 93
3, 31634, Note_on_c, 0, 72, 0
3, 31634, Note_on_c, 0, 75, 95
3, 31680, Note_on_c, 0, 75, 0
3, 31680, Note_on_c, 0, 45, 0
3, 31680, Note_on_c, 0, 60, 0
3, 31680, Note_on_c, 0, 54, 0
3, 31680, Note_on_c, 0, 54, 0
3, 31680, Note_on_c, 0, 66, 0
3, 31680, Note_on_c, 0, 84, 108
3, 31680, Note_on_c, 0, 32, 75
3, 31680, Note_on_c, 0, 44, 75
3, 31800, Note_on_c, 0, 44, 0
3, 31800, Note_on_c, 0, 32, 0
3, 31800, Note_on_c, 0, 51, 94
3, 31919, Note_on_c, 0, 51, 0
3, 31919, Note_on_c, 0, 54, 94
3, 32040, Note_on_c, 0, 54, 0
3, 32040, Note_on_c, 0, 60, 102
3, 32160, Note_on_c, 0, 60, 0
3, 32160, Note_on_c, 0, 84, 0
3, 32160, Note_on_c, 0, 82, 82
3, 32160, Note_on_c, 0, 63, 97
3, 32279, Note_on_c, 0, 63, 0
3, 32279, Note_on_c, 0, 82, 0
3, 32279, Note_on_c, 0, 80, 84
3, 32279, Note_on_c, 0, 66, 101
3, 32400, Note_on_c, 0, 66, 0
3, 32400, Note_on_c, 0, 80, 0
3, 32400, Note_on_c, 0, 80, 85
3, 32400, Note_on_c, 0, 72, 103
3, 32520, Note_on_c, 0, 72, 0
3, 32520, Note_on_c, 0, 80, 0
3, 32520, Note_on_c, 0, 77, 81
3, 32520, Note_on_c, 0, 66, 76
3, 32639, Note_on_c, 0, 66, 0
3, 32639, Note_on_c, 0, 77, 0
3, 32639, Note_on_c, 0, 75, 78
3, 32639, Note_on_c, 0, 63, 77
3, 32760, Note_on_c, 0, 63, 0
3, 32760, Note_on_c, 0, 75, 0
3, 32760, Note_on_c, 0, 75, 86
3, 32760, Note_on_c, 0, 60, 75
3, 32880, Note_on_c, 0, 60, 0
3, 32880, Note_on_c, 0, 75, 0
3, 32880, Note_on_c, 0, 72, 77
3, 32880, Note_on_c, 0, 54, 77
3, 32999, Note_on_c, 0, 54, 0
3, 32999, Note_on_c, 0, 72, 0
3, 32999, Note_on_c, 0, 75, 92
3, 32999, Note_on_c, 0, 51, 80
3, 33120, Note_on_c, 0, 51, 0
3, 33120, Note_on_c, 0, 75, 0
3, 33120, Note_on_c, 0, 84, 107
3, 33120, Note_on_c, 0, 44, 78
3, 33240, Note_on_c, 0, 84, 0
3, 33240, Note_on_c, 0, 75, 72
3, 33359, Note_on_c, 0, 75, 0
3, 33359, Note_on_c, 0, 84, 108
3, 33480, Note_on_c, 0, 84, 0
3, 33480, Note_on_c, 0, 44, 0
3, 33480, Note_on_c, 0, 75, 102
3, 33480, Note_on_c, 0, 87, 102
3, 33480, Note_on_c, 0, 45, 117
3, 33480, Note_on_c, 0, 51, 117
3, 33480, Note_on_c, 0, 55, 117
3, 33480, Note_on_c, 0, 60, 117
3, 33600, Note_on_c, 0, 87, 0
3, 33600, Note_on_c, 0, 75, 0
3, 33600, Note_on_c, 0, 84, 82
3, 33719, Note_on_c, 0, 84, 0
3, 33719, Note_on_c, 0, 87, 92
3, 33840, Note_on_c, 0, 87, 0
3, 33840, Note_on_c, 0, 79, 87
3, 33840, Note_on_c, 0, 91, 87
3, 33960, Note_on_c, 0, 91, 0
3, 33960, Note_on_c, 0, 79, 0
3, 33960, Note_on_c, 0, 84, 90
3, 34079, Note_on_c, 0, 84, 0
3, 34079, Note_on_c, 0, 91, 92
3, 34200, Note_on_c, 0, 91, 0
3, 34200, Note_on_c, 0, 45, 0
3, 34200, Note_on_c, 0, 51, 0
3, 34200, Note_on_c, 0, 60, 0
3, 34200, Note_on_c, 0, 55, 0
3, 34200, Note_on_c, 0, 81, 95
3, 34200, Note_on_c, 0, 90, 95
3, 34200, Note_on_c, 0, 93, 95
3, 34200, Note_on_c, 0, 50, 95
3, 34200, Note_on_c, 0, 54, 95
3, 34200, Note_on_c, 0, 60, 95
3, 34200, Note_on_c, 0, 62, 95
3, 34320, Note_on_c, 0, 93, 0
3, 34320, Note_on_c, 0, 81, 0
3, 34320, Note_on_c, 0, 90, 0
3, 34320, Note_on_c, 0, 86, 97
3, 34439, Note_on_c, 0, 86, 0
3, 34439, Note_on_c, 0, 62, 0
3, 34439, Note_on_c, 0, 50, 0
3, 34439, Note_on_c, 0, 60, 0
3, 34439, Note_on_c, 0, 54, 0
3, 34439, Note_on_c, 0, 93, 116
3, 34439, Note_on_c, 0, 43, 91
3, 34439, Note_on_c, 0, 50, 91
3, 34560, Note_on_c, 0, 50, 0
3, 34560, Note_on_c, 0, 43, 0
3, 34560, Note_on_c, 0, 93, 0
3, 34560, Note_on_c, 0, 83, 117
3, 34560, Note_on_c, 0, 91, 117
3, 34560, Note_on_c, 0, 95, 117
3, 34560, Note_on_c, 0, 59, 117
3, 34560, Note_on_c, 0, 62, 117
3, 34560, Note_on_c, 0, 67, 117
3, 35040, Note_on_c, 0, 67, 0
3, 35040, Note_on_c, 0, 91, 0
3, 35040, Note_on_c, 0, 95, 0
3, 35040, Note_on_c, 0, 83, 0
3, 35040, Note_on_c, 0, 62, 0
3, 35040, Note_on_c, 0, 59, 0
3, 35040, Note_on_c, 0, 81, 97
3, 35040, Note_on_c, 0, 93, 97
3, 35040, Note_on_c, 0, 69, 107
3, 35159, Note_on_c, 0, 69, 0
3, 35159, Note_on_c, 0, 93, 0
3, 35159, Note_on_c, 0, 81, 0
3, 35159, Note_on_c, 0, 91, 99
3, 35159, Note_on_c, 0, 67, 100
3, 35280, Note_on_c, 0, 67, 0
3, 35280, Note_on_c, 0, 91, 0
3, 35280, Note_on_c, 0, 79, 117
3, 35280, Note_on_c, 0, 91, 117
3, 35280, Note_on_c, 0, 67, 117
3, 35400, Note_on_c, 0, 67, 0
3, 35400, Note_on_c, 0, 91, 0
3, 35400, Note_on_c, 0, 79, 0
3, 35400, Note_on_c, 0, 88, 96
3, 35400, Note_on_c, 0, 64, 93
3, 35519, Note_on_c, 0, 64, 0
3, 35519, Note_on_c, 0, 88, 0
3, 35519, Note_on_c, 0, 86, 86
3, 35519, Note_on_c, 0, 62, 91
3, 35640, Note_on_c, 0, 62, 0
3, 35640, Note_on_c, 0, 86, 0
3, 35640, Note_on_c, 0, 74, 117
3, 35640, Note_on_c, 0, 86, 117
3, 35640, Note_on_c, 0, 62, 117
3, 35760, Note_on_c, 0, 86, 0
3, 35760, Note_on_c, 0, 74, 0
3, 35760, Note_on_c, 0, 84, 98
3, 35879, Note_on_c, 0, 84, 0
3, 35879, Note_on_c, 0, 62, 0
3, 35879, Note_on_c, 0, 83, 97
3, 35879, Note_on_c, 0, 43, 86
3, 35879, Note_on_c, 0, 50, 86
3, 36000, Note_on_c, 0, 50, 0
3, 36000, Note_on_c, 0, 43, 0
3, 36000, Note_on_c, 0, 83, 0
3, 36000, Note_on_c, 0, 79, 117
3, 36000, Note_on_c, 0, 83, 117
3, 36000, Note_on_c, 0, 86, 117
3, 36000, Note_on_c, 0, 91, 117
3, 36000, Note_on_c, 0, 59, 117
3, 36000, Note_on_c, 0, 62, 117
3, 36000, Note_on_c, 0, 67, 117
3, 36480, Note_on_c, 0, 67, 0
3, 36480, Note_on_c, 0, 59, 0
3, 36480, Note_on_c, 0, 83, 0
3, 36480, Note_on_c, 0, 86, 0
3, 36480, Note_on_c, 0, 79, 0
3, 36480, Note_on_c, 0, 62, 0
3, 36480, Note_on_c, 0, 91, 0
3, 36480, Note_on_c, 0, 76, 96
3, 36480, Note_on_c, 0, 88, 96
3, 36480, Note_on_c, 0, 64, 94
3, 36599, Note_on_c, 0, 64, 0
3, 36599, Note_on_c, 0, 88, 0
3, 36599, Note_on_c, 0, 76, 0
3, 36599, Note_on_c, 0, 86, 90
3, 36599, Note_on_c, 0, 62, 92
3, 36720, Note_on_c, 0, 62, 0
3, 36720, Note_on_c, 0, 86, 0
3, 36720, Note_on_c, 0, 74, 117
3, 36720, Note_on_c, 0, 86, 117
3, 36720, Note_on_c, 0, 62, 117
3, 36840, Note_on_c, 0, 62, 0
3, 36840, Note_on_c, 0, 86, 0
3, 36840, Note_on_c, 0, 74, 0
3, 36840, Note_on_c, 0, 84, 91
3, 36840, Note_on_c, 0, 60, 96
3, 36959, Note_on_c, 0, 60, 0
3, 36959, Note_on_c, 0, 84, 0
3, 36959, Note_on_c, 0, 83, 92
3, 36959, Note_on_c, 0, 59, 100
3, 37080, Note_on_c, 0, 59, 0
3, 37080, Note_on_c, 0, 83, 0
3, 37080, Note_on_c, 0, 71, 117
3, 37080, Note_on_c, 0, 83, 117
3, 37080, Note_on_c, 0, 59, 117
3, 37200, Note_on_c, 0, 83, 0
3, 37200, Note_on_c, 0, 71, 0
3, 37200, Note_on_c, 0, 81, 98
3, 37319, Note_on_c, 0, 81, 0
3, 37319, Note_on_c, 0, 59, 0
3, 37319, Note_on_c, 0, 79, 94
3, 37319, Note_on_c, 0, 43, 89
3, 37319, Note_on_c, 0, 50, 89
3, 37440, Note_on_c, 0, 50, 0
3, 37440, Note_on_c, 0, 43, 0
3, 37440, Note_on_c, 0, 79, 0
3, 37440, Note_on_c, 0, 74, 117
3, 37440, Note_on_c, 0, 79, 117
3, 37440, Note_on_c, 0, 83, 117
3, 37440, Note_on_c, 0, 86, 117
3, 37440, Note_on_c, 0, 55, 117
3, 37440, Note_on_c, 0, 59, 117
3, 37440, Note_on_c, 0, 62, 117
3, 37920, Note_on_c, 0, 62, 0
3, 37920, Note_on_c, 0, 55, 0
3, 37920, Note_on_c, 0, 79, 0
3, 37920, Note_on_c, 0, 83, 0
3, 37920, Note_on_c, 0, 74, 0
3, 37920, Note_on_c, 0, 59, 0
3, 37920, Note_on_c, 0, 86, 0
3, 37920, Note_on_c, 0, 72, 92
3, 37920, Note_on_c, 0, 84, 92
3, 37920, Note_on_c, 0, 60, 98
3, 38039, Note_on_c, 0, 60, 0
3, 38039, Note_on_c, 0, 84, 0
3, 38039, Note_on_c, 0, 72, 0
3, 38039, Note_on_c, 0, 83, 96
3, 38039, Note_on_c, 0, 59, 101
3, 38160, Note_on_c, 0, 59, 0
3, 38160, Note_on_c, 0, 83, 0
3, 38160, Note_on_c, 0, 71, 117
3, 38160, Note_on_c, 0, 83, 117
3, 38160, Note_on_c, 0, 59, 117
3, 38280, Note_on_c, 0, 59, 0
3, 38280, Note_on_c, 0, 83, 0
3, 38280, Note_on_c, 0, 71, 0
3, 38280, Note_on_c, 0, 81, 94
3, 38280, Note_on_c, 0, 57, 99
3, 38399, Note_on_c, 0, 57, 0
3, 38399, Note_on_c, 0, 81, 0
3, 38399, Note_on_c, 0, 79, 91
3, 38399, Note_on_c, 0, 55, 98
3, 38520, Note_on_c, 0, 55, 0
3, 38520, Note_on_c, 0, 79, 0
3, 38520, Note_on_c, 0, 67, 117
3, 38520, Note_on_c, 0, 79, 117
3, 38520, Note_on_c, 0, 55, 117
3, 38640, Note_on_c, 0, 79, 0
3, 38640, Note_on_c, 0, 67, 0
3, 38640, Note_on_c, 0, 76, 94
3, 38759, Note_on_c, 0, 76, 0
3, 38759, Note_on_c, 0, 55, 0
3, 38759, Note_on_c, 0, 74, 95
3, 38759, Note_on_c, 0, 43, 91
3, 38759, Note_on_c, 0, 50, 91
3, 38880, Note_on_c, 0, 50, 0
3, 38880, Note_on_c, 0, 43, 0
3, 38880, Note_on_c, 0, 74, 0
3, 38880, Note_on_c, 0, 71, 117
3, 38880, Note_on_c, 0, 74, 117
3, 38880, Note_on_c, 0, 79, 117
3, 38880, Note_on_c, 0, 83, 117
3, 38880, Note_on_c, 0, 50, 117
3, 38880, Note_on_c, 0, 55, 117
3, 38880, Note_on_c, 0, 59, 117
3, 39360, Note_on_c, 0, 59, 0
3, 39360, Note_on_c, 0, 50, 0
3, 39360, Note_on_c, 0, 74, 0
3, 39360, Note_on_c, 0, 79, 0
3, 39360, Note_on_c, 0, 71, 0
3, 39360, Note_on_c, 0, 55, 0
3, 39360, Note_on_c, 0, 83, 0
3, 39360, Note_on_c, 0, 69, 100
3, 39360, Note_on_c, 0, 81, 100
3, 39360, Note_on_c, 0, 57, 101
3, 39479, Note_on_c, 0, 57, 0
3, 39479, Note_on_c, 0, 81, 0
3, 39479, Note_on_c, 0, 69, 0
3, 39479, Note_on_c, 0, 79, 93
3, 39479, Note_on_c, 0, 55, 98
3, 39600, Note_on_c, 0, 55, 0
3, 39600, Note_on_c, 0, 79, 0
3, 39600, Note_on_c, 0, 67, 117
3, 39600, Note_on_c, 0, 79, 117
3, 39600, Note_on_c, 0, 55, 117
3, 39720, Note_on_c, 0, 55, 0
3, 39720, Note_on_c, 0, 79, 0
3, 39720, Note_on_c, 0, 67, 0
3, 39720, Note_on_c, 0, 76, 94
3, 39720, Note_on_c, 0, 52, 101
3, 39839, Note_on_c, 0, 52, 0
3, 39839, Note_on_c, 0, 76, 0
3, 39839, Note_on_c, 0, 74, 98
3, 39839, Note_on_c, 0, 50, 103
3, 39960, Note_on_c, 0, 50, 0
3, 39960, Note_on_c, 0, 74, 0
3, 39960, Note_on_c, 0, 73, 117
3, 39960, Note_on_c, 0, 79, 117
3, 39960, Note_on_c, 0, 85, 117
3, 39960, Note_on_c, 0, 45, 117
3, 39960, Note_on_c, 0, 52, 117
3, 39960, Note_on_c, 0, 55, 117
3, 40320, Note_on_c, 0, 55, 0
3, 40320, Note_on_c, 0, 79, 0
3, 40320, Note_on_c, 0, 85, 0
3, 40320, Note_on_c, 0, 73, 0
3, 40320, Note_on_c, 0, 52, 0
3, 40320, Note_on_c, 0, 45, 0
3, 40320, Note_on_c, 0, 74, 112
3, 40320, Note_on_c, 0, 78, 112
3, 40320, Note_on_c, 0, 81, 112
3, 40320, Note_on_c, 0, 86, 112
3, 40320, Note_on_c, 0, 50, 116
3, 40320, Note_on_c, 0, 54, 116
3, 40320, Note_on_c, 0, 57, 116
3, 40320, Note_on_c, 0, 62, 116
3, 40559, Note_on_c, 0, 62, 0
3, 40559, Note_on_c, 0, 57, 0
3, 40559, Note_on_c, 0, 50, 0
3, 40559, Note_on_c, 0, 54, 0
3, 40559, Note_on_c, 0, 45, 92
3, 40680, Note_on_c, 0, 45, 0
3, 40680, Note_on_c, 0, 38, 91
3, 40800, Note_on_c, 0, 74, 0
3, 40800, Note_on_c, 0, 81, 0
3, 40800, Note_on_c, 0, 86, 0
3, 40800, Note_on_c, 0, 78, 0
3, 40800, Note_on_c, 0, 71, 96
3, 40800, Note_on_c, 0, 83, 96
3, 40919, Note_on_c, 0, 83, 0
3, 40919, Note_on_c, 0, 71, 0
3, 40919, Note_on_c, 0, 81, 95
3, 41040, Note_on_c, 0, 81, 0
3, 41040, Note_on_c, 0, 38, 0
3, 41040, Note_on_c, 0, 69, 102
3, 41040, Note_on_c, 0, 81, 102
3, 41040, Note_on_c, 0, 57, 116
3, 41160, Note_on_c, 0, 57, 0
3, 41160, Note_on_c, 0, 81, 0
3, 41160, Note_on_c, 0, 69, 0
3, 41160, Note_on_c, 0, 79, 93
3, 41160, Note_on_c, 0, 55, 105
3, 41279, Note_on_c, 0, 55, 0
3, 41279, Note_on_c, 0, 79, 0
3, 41279, Note_on_c, 0, 78, 98
3, 41279, Note_on_c, 0, 54, 99
3, 41400, Note_on_c, 0, 69, 115
3, 41400, Note_on_c, 0, 74, 115
3, 41400, Note_on_c, 0, 81, 115
3, 41400, Note_on_c, 0, 57, 116
3, 41400, Note_on_c, 0, 62, 116
3, 41639, Note_on_c, 0, 62, 0
3, 41639, Note_on_c, 0, 81, 0
3, 41639, Note_on_c, 0, 54, 0
3, 41639, Note_on_c, 0, 69, 0
3, 41639, Note_on_c, 0, 78, 0
3, 41639, Note_on_c, 0, 57, 0
3, 41639, Note_on_c, 0, 74, 0
3, 41639, Note_on_c, 0, 71, 117
3, 41639, Note_on_c, 0, 79, 117
3, 41639, Note_on_c, 0, 83, 117
3, 41639, Note_on_c, 0, 55, 117
3, 41639, Note_on_c, 0, 59, 117
3, 41639, Note_on_c, 0, 62, 117
3, 41760, Note_on_c, 0, 62, 0
3, 41760, Note_on_c, 0, 79, 0
3, 41760, Note_on_c, 0, 83, 0
3, 41760, Note_on_c, 0, 71, 0
3, 41760, Note_on_c, 0, 59, 0
3, 41760, Note_on_c, 0, 55, 0
3, 41760, Note_on_c, 0, 69, 98
3, 41760, Note_on_c, 0, 74, 98
3, 41760, Note_on_c, 0, 81, 98
3, 41760, Note_on_c, 0, 54, 106
3, 41760, Note_on_c, 0, 57, 106
3, 41760, Note_on_c, 0, 62, 106
3, 41999, Note_on_c, 0, 62, 0
3, 41999, Note_on_c, 0, 54, 0
3, 41999, Note_on_c, 0, 57, 0
3, 41999, Note_on_c, 0, 45, 86
3, 42120, Note_on_c, 0, 45, 0
3, 42120, Note_on_c, 0, 38, 89
3, 42240, Note_on_c, 0, 74, 0
3, 42240, Note_on_c, 0, 69, 0
3, 42240, Note_on_c, 0, 81, 0
3, 42240, Note_on_c, 0, 67, 91
3, 42240, Note_on_c, 0, 79, 91
3, 42359, Note_on_c, 0, 79, 0
3, 42359, Note_on_c, 0, 67, 0
3, 42359, Note_on_c, 0, 78, 97
3, 42480, Note_on_c, 0, 78, 0
3, 42480, Note_on_c, 0, 38, 0
3, 42480, Note_on_c, 0, 66, 100
3, 42480, Note_on_c, 0, 78, 100
3, 42480, Note_on_c, 0, 54, 113
3, 42600, Note_on_c, 0, 54, 0
3, 42600, Note_on_c, 0, 78, 0
3, 42600, Note_on_c, 0, 66, 0
3, 42600, Note_on_c, 0, 76, 97
3, 42600, Note_on_c, 0, 52, 97
3, 42719, Note_on_c, 0, 52, 0
3, 42719, Note_on_c, 0, 76, 0
3, 42719, Note_on_c, 0, 74, 93
3, 42719, Note_on_c, 0, 50, 102
3, 42840, Note_on_c, 0, 50, 0
3, 42840, Note_on_c, 0, 66, 117
3, 42840, Note_on_c, 0, 78, 117
3, 42840, Note_on_c, 0, 54, 117
3, 42840, Note_on_c, 0, 57, 117
3, 42840, Note_on_c, 0, 62, 117
3, 43079, Note_on_c, 0, 62, 0
3, 43079, Note_on_c, 0, 66, 0
3, 43079, Note_on_c, 0, 78, 0
3, 43079, Note_on_c, 0, 74, 0
3, 43079, Note_on_c, 0, 57, 0
3, 43079, Note_on_c, 0, 54, 0
3, 43079, Note_on_c, 0, 67, 117
3, 43079, Note_on_c, 0, 74, 117
3, 43079, Note_on_c, 0, 79, 117
3, 43079, Note_on_c, 0, 55, 117
3, 43079, Note_on_c, 0, 59, 117
3, 43079, Note_on_c, 0, 62, 117
3, 43200, Note_on_c, 0, 62, 0
3, 43200, Note_on_c, 0, 74, 0
3, 43200, Note_on_c, 0, 79, 0
3, 43200, Note_on_c, 0, 67, 0
3, 43200, Note_on_c, 0, 59, 0
3, 43200, Note_on_c, 0, 55, 0
3, 43200, Note_on_c, 0, 66, 98
3, 43200, Note_on_c, 0, 74, 98
3, 43200, Note_on_c, 0, 78, 98
3, 43200, Note_on_c, 0, 54, 117
3, 43200, Note_on_c, 0, 57, 117
3, 43200, Note_on_c, 0, 62, 117
3, 43439, Note_on_c, 0, 62, 0
3, 43439, Note_on_c, 0, 54, 0
3, 43439, Note_on_c, 0, 57, 0
3, 43439, Note_on_c, 0, 45, 88
3, 43560, Note_on_c, 0, 45, 0
3, 43560, Note_on_c, 0, 38, 92
3, 43680, Note_on_c, 0, 74, 0
3, 43680, Note_on_c, 0, 66, 0
3, 43680, Note_on_c, 0, 78, 0
3, 43680, Note_on_c, 0, 64, 90
3, 43680, Note_on_c, 0, 76, 90
3, 43799, Note_on_c, 0, 76, 0
3, 43799, Note_on_c, 0, 64, 0
3, 43799, Note_on_c, 0, 74, 96
3, 43920, Note_on_c, 0, 74, 0
3, 43920, Note_on_c, 0, 38, 0
3, 43920, Note_on_c, 0, 62, 103
3, 43920, Note_on_c, 0, 74, 103
3, 43920, Note_on_c, 0, 50, 116
3, 44040, Note_on_c, 0, 50, 0
3, 44040, Note_on_c, 0, 74, 0
3, 44040, Note_on_c, 0, 62, 0
3, 44040, Note_on_c, 0, 71, 99
3, 44040, Note_on_c, 0, 47, 100
3, 44159, Note_on_c, 0, 47, 0
3, 44159, Note_on_c, 0, 71, 0
3, 44159, Note_on_c, 0, 69, 97
3, 44159, Note_on_c, 0, 45, 104
3, 44280, Note_on_c, 0, 45, 0
3, 44280, Note_on_c, 0, 69, 0
3, 44280, Note_on_c, 0, 57, 117
3, 44280, Note_on_c, 0, 62, 117
3, 44280, Note_on_c, 0, 69, 117
3, 44280, Note_on_c, 0, 45, 117
3, 44280, Note_on_c, 0, 50, 117
3, 44280, Note_on_c, 0, 54, 117
3, 44519, Note_on_c, 0, 54, 0
3, 44519, Note_on_c, 0, 62, 0
3, 44519, Note_on_c, 0, 69, 0
3, 44519, Note_on_c, 0, 57, 0
3, 44519, Note_on_c, 0, 50, 0
3, 44519, Note_on_c, 0, 45, 0
3, 44519, Note_on_c, 0, 59, 117
3, 44519, Note_on_c, 0, 67, 117
3, 44519, Note_on_c, 0, 71, 117
3, 44519, Note_on_c, 0, 47, 117
3, 44519, Note_on_c, 0, 50, 117
3, 44519, Note_on_c, 0, 55, 117
3, 44640, Note_on_c, 0, 55, 0
3, 44640, Note_on_c, 0, 67, 0
3, 44640, Note_on_c, 0, 71, 0
3, 44640, Note_on_c, 0, 59, 0
3, 44640, Note_on_c, 0, 50, 0
3, 44640, Note_on_c, 0, 47, 0
3, 44640, Note_on_c, 0, 57, 103
3, 44640, Note_on_c, 0, 62, 103
3, 44640, Note_on_c, 0, 69, 103
3, 44640, Note_on_c, 0, 45, 103
3, 44640, Note_on_c, 0, 50, 103
3, 44640, Note_on_c, 0, 54, 103
3, 44879, Note_on_c, 0, 54, 0
3, 44879, Note_on_c, 0, 45, 0
3, 44879, Note_on_c, 0, 50, 0
3, 44879, Note_on_c, 0, 45, 100
3, 45000, Note_on_c, 0, 45, 0
3, 45000, Note_on_c, 0, 38, 99
3, 45120, Note_on_c, 0, 62, 0
3, 45120, Note_on_c, 0, 57, 0
3, 45120, Note_on_c, 0, 69, 0
3, 45120, Note_on_c, 0, 67, 98
3, 45239, Note_on_c, 0, 67, 0
3, 45239, Note_on_c, 0, 66, 97
3, 45360, Note_on_c, 0, 66, 0
3, 45360, Note_on_c, 0, 38, 0
3, 45360, Note_on_c, 0, 66, 96
3, 45360, Note_on_c, 0, 54, 96
3, 45480, Note_on_c, 0, 54, 0
3, 45480, Note_on_c, 0, 66, 0
3, 45480, Note_on_c, 0, 64, 95
3, 45480, Note_on_c, 0, 52, 95
3, 45599, Note_on_c, 0, 52, 0
3, 45599, Note_on_c, 0, 64, 0
3, 45599, Note_on_c, 0, 62, 94
3, 45599, Note_on_c, 0, 50, 94
3, 45720, Note_on_c, 0, 50, 0
3, 45720, Note_on_c, 0, 62, 0
3, 45720, Note_on_c, 0, 54, 93
3, 45720, Note_on_c, 0, 57, 93
3, 45720, Note_on_c, 0, 62, 93
3, 45720, Note_on_c, 0, 45, 93
3, 45720, Note_on_c, 0, 50, 93
3, 45959, Note_on_c, 0, 50, 0
3, 45959, Note_on_c, 0, 62, 0
3, 45959, Note_on_c, 0, 54, 0
3, 45959, Note_on_c, 0, 57, 0
3, 45959, Note_on_c, 0, 45, 0
3, 45959, Note_on_c, 0, 55, 91
3, 45959, Note_on_c, 0, 59, 91
3, 45959, Note_on_c, 0, 62, 91
3, 45959, Note_on_c, 0, 47, 91
3, 45959, Note_on_c, 0, 50, 91
3, 46080, Note_on_c, 0, 50, 0
3, 46080, Note_on_c, 0, 62, 0
3, 46080, Note_on_c, 0, 55, 0
3, 46080, Note_on_c, 0, 59, 0
3, 46080, Note_on_c, 0, 47, 0
3, 46080, Note_on_c, 0, 54, 90
3, 46080, Note_on_c, 0, 57, 90
3, 46080, Note_on_c, 0, 62, 90
3, 46080, Note_on_c, 0, 38, 90
3, 46080, Note_on_c, 0, 45, 90
3, 46080, Note_on_c, 0, 50, 90
3, 46260, Note_on_c, 0, 50, 0
3, 46260, Note_on_c, 0, 57, 0
3, 46260, Note_on_c, 0, 62, 0
3, 46260, Note_on_c, 0, 54, 0
3, 46260, Note_on_c, 0, 45, 0
3, 46260, Note_on_c, 0, 38, 0
3, 46440, Note_on_c, 0, 62, 77
3, 46440, Note_on_c, 0, 50, 80
3, 46620, Note_on_c, 0, 50, 0
3, 46620, Note_on_c, 0, 62, 0
3, 46620, Note_on_c, 0, 57, 81
3, 46620, Note_on_c, 0, 38, 72
3, 46800, Note_on_c, 0, 38, 0
3, 46800, Note_on_c, 0, 57, 0
3, 46800, Note_on_c, 0, 52, 80
3, 46800, Note_on_c, 0, 50, 98
3, 46980, Note_on_c, 0, 50, 0
3, 46980, Note_on_c, 0, 52, 0
3, 46980, Note_on_c, 0, 62, 114
3, 46980, Note_on_c, 0, 38, 77
3, 47160, Note_on_c, 0, 38, 0
3, 47160, Note_on_c, 0, 62, 0
3, 47160, Note_on_c, 0, 55, 88
3, 47160, Note_on_c, 0, 52, 100
3, 47160, Note_on_c, 0, 50, 105
3, 47160, Note_on_c, 0, 47, 100
3, 47340, Note_on_c, 0, 50, 0
3, 47340, Note_on_c, 0, 55, 0
3, 47340, Note_on_c, 0, 62, 105
3, 47340, Note_on_c, 0, 38, 78
3, 47520, Note_on_c, 0, 38, 0
3, 47520, Note_on_c, 0, 47, 0
3, 47520, Note_on_c, 0, 52, 0
3, 47520, Note_on_c, 0, 62, 0
3, 47520, Note_on_c, 0, 54, 76
3, 47520, Note_on_c, 0, 45, 84
3, 47700, Note_on_c, 0, 57, 46
3, 47700, Note_on_c, 0, 38, 44
3, 47880, Note_on_c, 0, 38, 0
3, 47880, Note_on_c, 0, 57, 0
3, 47880, Note_on_c, 0, 62, 55
3, 47880, Note_on_c, 0, 50, 53
3, 48060, Note_on_c, 0, 50, 0
3, 48060, Note_on_c, 0, 62, 0
3, 48060, Note_on_c, 0, 57, 46
3, 48060, Note_on_c, 0, 38, 46
3, 48240, Note_on_c, 0, 38, 0
3, 48240, Note_on_c, 0, 57, 0
3, 48240, Note_on_c, 0, 54, 47
3, 48240, Note_on_c, 0, 50, 55
3, 48420, Note_on_c, 0, 50, 0
3, 48420, Note_on_c, 0, 54, 0
3, 48420, Note_on_c, 0, 62, 63
3, 48420, Note_on_c, 0, 38, 43
3, 48600, Note_on_c, 0, 38, 0
3, 48600, Note_on_c, 0, 45, 0
3, 48600, Note_on_c, 0, 54, 0
3, 48600, Note_on_c, 0, 62, 0
3, 48600, Note_on_c, 0, 55, 44
3, 48600, Note_on_c, 0, 52, 71
3, 48600, Note_on_c, 0, 50, 85
3, 48600, Note_on_c, 0, 47, 64
3, 48780, Note_on_c, 0, 47, 0
3, 48780, Note_on_c, 0, 55, 0
3, 48780, Note_on_c, 0, 62, 64
3, 48780, Note_on_c, 0, 38, 53
3, 48960, Note_on_c, 0, 38, 0
3, 48960, Note_on_c, 0, 52, 0
3, 48960, Note_on_c, 0, 50, 0
3, 48960, Note_on_c, 0, 62, 0
3, 48960, Note_on_c, 0, 54, 81
3, 48960, Note_on_c, 0, 45, 87
3, 49140, Note_on_c, 0, 57, 45
3, 49140, Note_on_c, 0, 38, 45
3, 49320, Note_on_c, 0, 38, 0
3, 49320, Note_on_c, 0, 57, 0
3, 49320, Note_on_c, 0, 62, 62
3, 49320, Note_on_c, 0, 50, 55
3, 49500, Note_on_c, 0, 50, 0
3, 49500, Note_on_c, 0, 62, 0
3, 49500, Note_on_c, 0, 57, 48
3, 49500, Note_on_c, 0, 38, 44
3, 49680, Note_on_c, 0, 38, 0
3, 49680, Note_on_c, 0, 57, 0
3, 49680, Note_on_c, 0, 54, 49
3, 49680, Note_on_c, 0, 50, 61
3, 49860, Note_on_c, 0, 50, 0
3, 49860, Note_on_c, 0, 54, 0
3, 49860, Note_on_c, 0, 62, 59
3, 49860, Note_on_c, 0, 38, 41
3, 50040, Note_on_c, 0, 38, 0
3, 50040, Note_on_c, 0, 45, 0
3, 50040, Note_on_c, 0, 54, 0
3, 50040, Note_on_c, 0, 62, 0
3, 50040, Note_on_c, 0, 55, 48
3, 50040, Note_on_c, 0, 52, 75
3, 50040, Note_on_c, 0, 50, 82
3, 50040, Note_on_c, 0, 47, 64
3, 50220, Note_on_c, 0, 47, 0
3, 50220, Note_on_c, 0, 55, 0
3, 50220, Note_on_c, 0, 62, 61
3, 50220, Note_on_c, 0, 38, 46
3, 50400, Note_on_c, 0, 38, 0
3, 50400, Note_on_c, 0, 52, 0
3, 50400, Note_on_c, 0, 50, 0
3, 50400, Note_on_c, 0, 62, 0
3, 50400, Note_on_c, 0, 54, 62
3, 50400, Note_on_c, 0, 45, 64
3, 50580, Note_on_c, 0, 57, 41
3, 50580, Note_on_c, 0, 38, 50
3, 50760, Note_on_c, 0, 38, 0
3, 50760, Note_on_c, 0, 57, 0
3, 50760, Note_on_c, 0, 62, 57
3, 50760, Note_on_c, 0, 50, 57
3, 50940, Note_on_c, 0, 50, 0
3, 50940, Note_on_c, 0, 62, 0
3, 50940, Note_on_c, 0, 57, 48
3, 50940, Note_on_c, 0, 38, 42
3, 51120, Note_on_c, 0, 38, 0
3, 51120, Note_on_c, 0, 57, 0
3, 51120, Note_on_c, 0, 54, 51
3, 51120, Note_on_c, 0, 50, 54
3, 51300, Note_on_c, 0, 50, 0
3, 51300, Note_on_c, 0, 54, 0
3, 51300, Note_on_c, 0, 62, 59
3, 51300, Note_on_c, 0, 38, 41
3, 51349, Note_on_c, 0, 54, 0
3, 51480, Note_on_c, 0, 45, 0
3, 51480, Note_on_c, 0, 62, 0
3, 51480, Note_on_c, 0, 38, 0
3, 51480, Note_on_c, 0, 55, 47
3, 51480, Note_on_c, 0, 52, 61
3, 51480, Note_on_c, 0, 50, 71
3, 51480, Note_on_c, 0, 47, 58
3, 51660, Note_on_c, 0, 47, 0
3, 51660, Note_on_c, 0, 55, 0
3, 51660, Note_on_c, 0, 62, 63
3, 51660, Note_on_c, 0, 38, 56
3, 51797, Note_on_c, 0, 50, 0
3, 51797, Note_on_c, 0, 52, 0
3, 51840, Note_on_c, 0, 62, 0
3, 51840, Note_on_c, 0, 38, 0
3, 51840, Note_on_c, 0, 54, 66
3, 51840, Note_on_c, 0, 45, 64
3, 52020, Note_on_c, 0, 57, 43
3, 52020, Note_on_c, 0, 38, 46
3, 52200, Note_on_c, 0, 38, 0
3, 52200, Note_on_c, 0, 57, 0
3, 52200, Note_on_c, 0, 62, 53
3, 52200, Note_on_c, 0, 50, 60
3, 52380, Note_on_c, 0, 50, 0
3, 52380, Note_on_c, 0, 62, 0
3, 52380, Note_on_c, 0, 57, 48
3, 52380, Note_on_c, 0, 38, 44
3, 52560, Note_on_c, 0, 38, 0
3, 52560, Note_on_c, 0, 57, 0
3, 52560, Note_on_c, 0, 54, 48
3, 52560, Note_on_c, 0, 50, 58
3, 52740, Note_on_c, 0, 50, 0
3, 52740, Note_on_c, 0, 54, 0
3, 52740, Note_on_c, 0, 62, 62
3, 52740, Note_on_c, 0, 38, 47
3, 52789, Note_on_c, 0, 54, 0
3, 52920, Note_on_c, 0, 45, 0
3, 52920, Note_on_c, 0, 62, 0
3, 52920, Note_on_c, 0, 38, 0
3, 52920, Note_on_c, 0, 55, 50
3, 52920, Note_on_c, 0, 52, 63
3, 52920, Note_on_c, 0, 50, 70
3, 52920, Note_on_c, 0, 47, 58
3, 53100, Note_on_c, 0, 47, 0
3, 53100, Note_on_c, 0, 55, 0
3, 53100, Note_on_c, 0, 62, 60
3, 53100, Note_on_c, 0, 38, 47
3, 53237, Note_on_c, 0, 50, 0
3, 53237, Note_on_c, 0, 52, 0
3, 53280, Note_on_c, 0, 62, 0
3, 53280, Note_on_c, 0, 38, 0
3, 53280, Note_on_c, 0, 54, 62
3, 53280, Note_on_c, 0, 45, 81
3, 53460, Note_on_c, 0, 57, 42
3, 53460, Note_on_c, 0, 38, 44
3, 53640, Note_on_c, 0, 38, 0
3, 53640, Note_on_c, 0, 57, 0
3, 53640, Note_on_c, 0, 62, 60
3, 53640, Note_on_c, 0, 50, 54
3, 53820, Note_on_c, 0, 50, 0
3, 53820, Note_on_c, 0, 62, 0
3, 53820, Note_on_c, 0, 54, 48
3, 53820, Note_on_c, 0, 38, 47
3, 53913, Note_on_c, 0, 45, 0
3, 53913, Note_on_c, 0, 54, 0
3, 54000, Note_on_c, 0, 54, 0
3, 54000, Note_on_c, 0, 38, 0
3, 54000, Note_on_c, 0, 52, 67
3, 54000, Note_on_c, 0, 55, 67
3, 54000, Note_on_c, 0, 47, 73
3, 54000, Note_on_c, 0, 50, 73
3, 54180, Note_on_c, 0, 59, 40
3, 54180, Note_on_c, 0, 38, 48
3, 54360, Note_on_c, 0, 38, 0
3, 54360, Note_on_c, 0, 59, 0
3, 54360, Note_on_c, 0, 62, 58
3, 54360, Note_on_c, 0, 50, 56
3, 54540, Note_on_c, 0, 62, 0
3, 54540, Note_on_c, 0, 50, 0
3, 54540, Note_on_c, 0, 52, 45
3, 54540, Note_on_c, 0, 38, 44
3, 54633, Note_on_c, 0, 47, 0
3, 54633, Note_on_c, 0, 55, 0
3, 54633, Note_on_c, 0, 52, 0
3, 54633, Note_on_c, 0, 50, 0
3, 54720, Note_on_c, 0, 38, 0
3, 54720, Note_on_c, 0, 52, 0
3, 54720, Note_on_c, 0, 54, 64
3, 54720, Note_on_c, 0, 57, 64
3, 54720, Note_on_c, 0, 50, 75
3, 54900, Note_on_c, 0, 57, 42
3, 54900, Note_on_c, 0, 38, 47
3, 55080, Note_on_c, 0, 38, 0
3, 55080, Note_on_c, 0, 57, 0
3, 55080, Note_on_c, 0, 62, 61
3, 55080, Note_on_c, 0, 45, 55
3, 55260, Note_on_c, 0, 45, 0
3, 55260, Note_on_c, 0, 62, 0
3, 55260, Note_on_c, 0, 57, 47
3, 55260, Note_on_c, 0, 38, 44
3, 55440, Note_on_c, 0, 38, 0
3, 55440, Note_on_c, 0, 57, 0
3, 55440, Note_on_c, 0, 54, 51
3, 55440, Note_on_c, 0, 45, 50
3, 55620, Note_on_c, 0, 45, 0
3, 55620, Note_on_c, 0, 54, 0
3, 55620, Note_on_c, 0, 57, 51
3, 55620, Note_on_c, 0, 38, 38
3, 55669, Note_on_c, 0, 57, 0
3, 55669, Note_on_c, 0, 54, 0
3, 55669, Note_on_c, 0, 50, 0
3, 55800, Note_on_c, 0, 57, 0
3, 55800, Note_on_c, 0, 38, 0
3, 55800, Note_on_c, 0, 55, 48
3, 55800, Note_on_c, 0, 52, 63
3, 55800, Note_on_c, 0, 45, 71
3, 55980, Note_on_c, 0, 55, 0
3, 55980, Note_on_c, 0, 62, 58
3, 55980, Note_on_c, 0, 38, 48
3, 56117, Note_on_c, 0, 45, 0
3, 56117, Note_on_c, 0, 52, 0
3, 56160, Note_on_c, 0, 62, 0
3, 56160, Note_on_c, 0, 38, 0
3, 56160, Note_on_c, 0, 54, 64
3, 56160, Note_on_c, 0, 50, 75
3, 56340, Note_on_c, 0, 57, 46
3, 56340, Note_on_c, 0, 38, 44
3, 56520, Note_on_c, 0, 38, 0
3, 56520, Note_on_c, 0, 57, 0
3, 56520, Note_on_c, 0, 62, 60
3, 56520, Note_on_c, 0, 45, 51
3, 56700, Note_on_c, 0, 45, 0
3, 56700, Note_on_c, 0, 62, 0
3, 56700, Note_on_c, 0, 57, 53
3, 56700, Note_on_c, 0, 38, 45
3, 56793, Note_on_c, 0, 50, 0
3, 56880, Note_on_c, 0, 38, 0
3, 56880, Note_on_c, 0, 57, 0
3, 56880, Note_on_c, 0, 54, 45
3, 56880, Note_on_c, 0, 50, 73
3, 57060, Note_on_c, 0, 54, 0
3, 57060, Note_on_c, 0, 62, 65
3, 57060, Note_on_c, 0, 38, 43
3, 57197, Note_on_c, 0, 50, 0
3, 57240, Note_on_c, 0, 38, 0
3, 57240, Note_on_c, 0, 62, 0
3, 57240, Note_on_c, 0, 54, 49
3, 57240, Note_on_c, 0, 49, 68
3, 57420, Note_on_c, 0, 54, 0
3, 57420, Note_on_c, 0, 50, 47
3, 57420, Note_on_c, 0, 38, 45
3, 57427, Note_on_c, 0, 54, 0
3, 57557, Note_on_c, 0, 49, 0
3, 57600, Note_on_c, 0, 50, 0
3, 57600, Note_on_c, 0, 38, 0
3, 57600, Note_on_c, 0, 55, 67
3, 57600, Note_on_c, 0, 47, 73
3, 57780, Note_on_c, 0, 59, 47
3, 57780, Note_on_c, 0, 38, 44
3, 57960, Note_on_c, 0, 38, 0
3, 57960, Note_on_c, 0, 59, 0
3, 57960, Note_on_c, 0, 62, 54
3, 57960, Note_on_c, 0, 50, 57
3, 58140, Note_on_c, 0, 50, 0
3, 58140, Note_on_c, 0, 62, 0
3, 58140, Note_on_c, 0, 59, 48
3, 58140, Note_on_c, 0, 38, 48
3, 58320, Note_on_c, 0, 38, 0
3, 58320, Note_on_c, 0, 59, 0
3, 58320, Note_on_c, 0, 62, 57
3, 58320, Note_on_c, 0, 50, 58
3, 58500, Note_on_c, 0, 50, 0
3, 58500, Note_on_c, 0, 62, 0
3, 58500, Note_on_c, 0, 50, 42
3, 58500, Note_on_c, 0, 38, 42
3, 58549, Note_on_c, 0, 47, 0
3, 58549, Note_on_c, 0, 55, 0
3, 58680, Note_on_c, 0, 50, 0
3, 58680, Note_on_c, 0, 38, 0
3, 58680, Note_on_c, 0, 55, 61
3, 58680, Note_on_c, 0, 47, 75
3, 58860, Note_on_c, 0, 62, 41
3, 58860, Note_on_c, 0, 38, 45
3, 58997, Note_on_c, 0, 47, 0
3, 58997, Note_on_c, 0, 55, 0
3, 59040, Note_on_c, 0, 62, 0
3, 59040, Note_on_c, 0, 38, 0
3, 59040, Note_on_c, 0, 54, 58
3, 59040, Note_on_c, 0, 47, 72
3, 59220, Note_on_c, 0, 59, 47
3, 59220, Note_on_c, 0, 38, 41
3, 59400, Note_on_c, 0, 38, 0
3, 59400, Note_on_c, 0, 59, 0
3, 59400, Note_on_c, 0, 62, 55
3, 59400, Note_on_c, 0, 50, 51
3, 59580, Note_on_c, 0, 50, 0
3, 59580, Note_on_c, 0, 62, 0
3, 59580, Note_on_c, 0, 59, 46
3, 59580, Note_on_c, 0, 38, 49
3, 59760, Note_on_c, 0, 38, 0
3, 59760, Note_on_c, 0, 59, 0
3, 59760, Note_on_c, 0, 62, 56
3, 59760, Note_on_c, 0, 50, 60
3, 59940, Note_on_c, 0, 50, 0
3, 59940, Note_on_c, 0, 62, 0
3, 59940, Note_on_c, 0, 50, 45
3, 59940, Note_on_c, 0, 38, 45
3, 59989, Note_on_c, 0, 47, 0
3, 59989, Note_on_c, 0, 54, 0
3, 60120, Note_on_c, 0, 50, 0
3, 60120, Note_on_c, 0, 38, 0
3, 60120, Note_on_c, 0, 54, 62
3, 60120, Note_on_c, 0, 47, 71
3, 60300, Note_on_c, 0, 62, 42
3, 60300, Note_on_c, 0, 38, 47
3, 60437, Note_on_c, 0, 47, 0
3, 60437, Note_on_c, 0, 54, 0
3, 60480, Note_on_c, 0, 62, 0
3, 60480, Note_on_c, 0, 38, 0
3, 60480, Note_on_c, 0, 52, 61
3, 60480, Note_on_c, 0, 47, 69
3, 60660, Note_on_c, 0, 57, 44
3, 60660, Note_on_c, 0, 38, 44
3, 60840, Note_on_c, 0, 38, 0
3, 60840, Note_on_c, 0, 57, 0
3, 60840, Note_on_c, 0, 62, 59
3, 60840, Note_on_c, 0, 50, 57
3, 61020, Note_on_c, 0, 50, 0
3, 61020, Note_on_c, 0, 62, 0
3, 61020, Note_on_c, 0, 52, 40
3, 61020, Note_on_c, 0, 38, 38
3, 61113, Note_on_c, 0, 47, 0
3, 61113, Note_on_c, 0, 52, 0
3, 61200, Note_on_c, 0, 52, 0
3, 61200, Note_on_c, 0, 38, 0
3, 61200, Note_on_c, 0, 54, 62
3, 61200, Note_on_c, 0, 47, 76
3, 61200, Note_on_c, 0, 50, 76
3, 61380, Note_on_c, 0, 59, 44
3, 61380, Note_on_c, 0, 38, 42
3, 61560, Note_on_c, 0, 38, 0
3, 61560, Note_on_c, 0, 59, 0
3, 61560, Note_on_c, 0, 62, 55
3, 61560, Note_on_c, 0, 47, 57
3, 61740, Note_on_c, 0, 62, 0
3, 61740, Note_on_c, 0, 47, 0
3, 61740, Note_on_c, 0, 59, 48
3, 61740, Note_on_c, 0, 38, 46
3, 61920, Note_on_c, 0, 38, 0
3, 61920, Note_on_c, 0, 59, 0
3, 61920, Note_on_c, 0, 62, 57
3, 62100, Note_on_c, 0, 62, 0
3, 62100, Note_on_c, 0, 54, 46
3, 62100, Note_on_c, 0, 38, 46
3, 62280, Note_on_c, 0, 38, 0
3, 62280, Note_on_c, 0, 54, 0
3, 62280, Note_on_c, 0, 59, 53
3, 62280, Note_on_c, 0, 47, 55
3, 62460, Note_on_c, 0, 59, 0
3, 62460, Note_on_c, 0, 47, 0
3, 62460, Note_on_c, 0, 62, 58
3, 62460, Note_on_c, 0, 38, 46
3, 62640, Note_on_c, 0, 38, 0
3, 62640, Note_on_c, 0, 54, 0
3, 62640, Note_on_c, 0, 47, 0
3, 62640, Note_on_c, 0, 50, 0
3, 62640, Note_on_c, 0, 62, 0
3, 62640, Note_on_c, 0, 54, 52
3, 62640, Note_on_c, 0, 50, 72
3, 62820, Note_on_c, 0, 62, 44
3, 62820, Note_on_c, 0, 38, 44
3, 62957, Note_on_c, 0, 50, 0
3, 63000, Note_on_c, 0, 54, 0
3, 63000, Note_on_c, 0, 62, 0
3, 63000, Note_on_c, 0, 38, 0
3, 63000, Note_on_c, 0, 55, 41
3, 63000, Note_on_c, 0, 52, 48
3, 63000, Note_on_c, 0, 47, 58
3, 63000, Note_on_c, 0, 50, 74
3, 63180, Note_on_c, 0, 47, 0
3, 63180, Note_on_c, 0, 55, 0
3, 63180, Note_on_c, 0, 62, 58
3, 63180, Note_on_c, 0, 38, 45
3, 63317, Note_on_c, 0, 50, 0
3, 63360, Note_on_c, 0, 52, 0
3, 63360, Note_on_c, 0, 62, 0
3, 63360, Note_on_c, 0, 38, 0
3, 63360, Note_on_c, 0, 54, 62
3, 63360, Note_on_c, 0, 45, 55
3, 63540, Note_on_c, 0, 57, 41
3, 63540, Note_on_c, 0, 38, 45
3, 63720, Note_on_c, 0, 38, 0
3, 63720, Note_on_c, 0, 57, 0
3, 63720, Note_on_c, 0, 62, 58
3, 63720, Note_on_c, 0, 50, 56
3, 63900, Note_on_c, 0, 50, 0
3, 63900, Note_on_c, 0, 62, 0
3, 63900, Note_on_c, 0, 57, 51
3, 63900, Note_on_c, 0, 38, 44
3, 64080, Note_on_c, 0, 38, 0
3, 64080, Note_on_c, 0, 57, 0
3, 64080, Note_on_c, 0, 54, 50
3, 64080, Note_on_c, 0, 50, 59
3, 64260, Note_on_c, 0, 50, 0
3, 64260, Note_on_c, 0, 54, 0
3, 64260, Note_on_c, 0, 62, 64
3, 64260, Note_on_c, 0, 38, 43
3, 64309, Note_on_c, 0, 54, 0
3, 64440, Note_on_c, 0, 45, 0
3, 64440, Note_on_c, 0, 62, 0
3, 64440, Note_on_c, 0, 38, 0
3, 64440, Note_on_c, 0, 55, 49
3, 64440, Note_on_c, 0, 52, 61
3, 64440, Note_on_c, 0, 50, 73
3, 64440, Note_on_c, 0, 47, 65
3, 64620, Note_on_c, 0, 47, 0
3, 64620, Note_on_c, 0, 55, 0
3, 64620, Note_on_c, 0, 62, 58
3, 64620, Note_on_c, 0, 38, 51
3, 64757, Note_on_c, 0, 50, 0
3, 64757, Note_on_c, 0, 52, 0
3, 64800, Note_on_c, 0, 62, 0
3, 64800, Note_on_c, 0, 38, 0
3, 64800, Note_on_c, 0, 54, 63
3, 64800, Note_on_c, 0, 45, 79
3, 64980, Note_on_c, 0, 57, 46
3, 64980, Note_on_c, 0, 38, 44
3, 65160, Note_on_c, 0, 38, 0
3, 65160, Note_on_c, 0, 57, 0
3, 65160, Note_on_c, 0, 62, 55
3, 65160, Note_on_c, 0, 50, 58
3, 65340, Note_on_c, 0, 50, 0
3, 65340, Note_on_c, 0, 62, 0
3, 65340, Note_on_c, 0, 54, 45
3, 65340, Note_on_c, 0, 38, 42
3, 65433, Note_on_c, 0, 45, 0
3, 65433, Note_on_c, 0, 54, 0
3, 65520, Note_on_c, 0, 54, 0
3, 65520, Note_on_c, 0, 38, 0
3, 65520, Note_on_c, 0, 52, 67
3, 65520, Note_on_c, 0, 55, 67
3, 65520, Note_on_c, 0, 47, 74
3, 65520, Note_on_c, 0, 50, 74
3, 65700, Note_on_c, 0, 59, 45
3, 65700, Note_on_c, 0, 38, 47
3, 65880, Note_on_c, 0, 38, 0
3, 65880, Note_on_c, 0, 59, 0
3, 65880, Note_on_c, 0, 62, 55
3, 65880, Note_on_c, 0, 50, 58
3, 66060, Note_on_c, 0, 62, 0
3, 66060, Note_on_c, 0, 50, 0
3, 66060, Note_on_c, 0, 52, 43
3, 66060, Note_on_c, 0, 38, 39
3, 66153, Note_on_c, 0, 47, 0
3, 66153, Note_on_c, 0, 55, 0
3, 66153, Note_on_c, 0, 52, 0
3, 66153, Note_on_c, 0, 50, 0
3, 66240, Note_on_c, 0, 38, 0
3, 66240, Note_on_c, 0, 52, 0
3, 66240, Note_on_c, 0, 54, 63
3, 66240, Note_on_c, 0, 57, 63
3, 66240, Note_on_c, 0, 50, 77
3, 66420, Note_on_c, 0, 57, 45
3, 66420, Note_on_c, 0, 38, 46
3, 66600, Note_on_c, 0, 38, 0
3, 66600, Note_on_c, 0, 57, 0
3, 66600, Note_on_c, 0, 62, 57
3, 66600, Note_on_c, 0, 45, 53
3, 66780, Note_on_c, 0, 45, 0
3, 66780, Note_on_c, 0, 62, 0
3, 66780, Note_on_c, 0, 57, 48
3, 66780, Note_on_c, 0, 38, 47
3, 66960, Note_on_c, 0, 38, 0
3, 66960, Note_on_c, 0, 57, 0
3, 66960, Note_on_c, 0, 54, 46
3, 66960, Note_on_c, 0, 45, 56
3, 67140, Note_on_c, 0, 45, 0
3, 67140, Note_on_c, 0, 54, 0
3, 67140, Note_on_c, 0, 57, 56
3, 67140, Note_on_c, 0, 38, 48
3, 67189, Note_on_c, 0, 57, 0
3, 67189, Note_on_c, 0, 54, 0
3, 67189, Note_on_c, 0, 50, 0
3, 67320, Note_on_c, 0, 57, 0
3, 67320, Note_on_c, 0, 38, 0
3, 67320, Note_on_c, 0, 55, 51
3, 67320, Note_on_c, 0, 52, 57
3, 67320, Note_on_c, 0, 45, 73
3, 67500, Note_on_c, 0, 55, 0
3, 67500, Note_on_c, 0, 62, 66
3, 67500, Note_on_c, 0, 38, 44
3, 67637, Note_on_c, 0, 45, 0
3, 67637, Note_on_c, 0, 52, 0
3, 67680, Note_on_c, 0, 62, 0
3, 67680, Note_on_c, 0, 38, 0
3, 67680, Note_on_c, 0, 54, 66
3, 67680, Note_on_c, 0, 50, 81
3, 67860, Note_on_c, 0, 57, 48
3, 67860, Note_on_c, 0, 38, 43
3, 68040, Note_on_c, 0, 38, 0
3, 68040, Note_on_c, 0, 57, 0
3, 68040, Note_on_c, 0, 62, 56
3, 68040, Note_on_c, 0, 45, 57
3, 68220, Note_on_c, 0, 45, 0
3, 68220, Note_on_c, 0, 62, 0
3, 68220, Note_on_c, 0, 57, 48
3, 68220, Note_on_c, 0, 38, 45
3, 68313, Note_on_c, 0, 50, 0
3, 68400, Note_on_c, 0, 38, 0
3, 68400, Note_on_c, 0, 57, 0
3, 68400, Note_on_c, 0, 54, 49
3, 68400, Note_on_c, 0, 50, 74
3, 68580, Note_on_c, 0, 54, 0
3, 68580, Note_on_c, 0, 62, 66
3, 68580, Note_on_c, 0, 38, 43
3, 68717, Note_on_c, 0, 50, 0
3, 68760, Note_on_c, 0, 38, 0
3, 68760, Note_on_c, 0, 62, 0
3, 68760, Note_on_c, 0, 54, 46
3, 68760, Note_on_c, 0, 45, 66
3, 68940, Note_on_c, 0, 54, 0
3, 68940, Note_on_c, 0, 50, 46
3, 68940, Note_on_c, 0, 38, 43
3, 68947, Note_on_c, 0, 54, 0
3, 69077, Note_on_c, 0, 45, 0
3, 69120, Note_on_c, 0, 50, 0
3, 69120, Note_on_c, 0, 38, 0
3, 69120, Note_on_c, 0, 55, 66
3, 69120, Note_on_c, 0, 40, 55
3, 69300, Note_on_c, 0, 62, 45
3, 69300, Note_on_c, 0, 50, 45
3, 69480, Note_on_c, 0, 50, 0
3, 69480, Note_on_c, 0, 62, 0
3, 69480, Note_on_c, 0, 67, 59
3, 69480, Note_on_c, 0, 55, 52
3, 69660, Note_on_c, 0, 67, 0
3, 69660, Note_on_c, 0, 55, 0
3, 69660, Note_on_c, 0, 62, 45
3, 69660, Note_on_c, 0, 50, 49
3, 69840, Note_on_c, 0, 50, 0
3, 69840, Note_on_c, 0, 62, 0
3, 69840, Note_on_c, 0, 67, 54
3, 69840, Note_on_c, 0, 55, 52
3, 70020, Note_on_c, 0, 67, 0
3, 70020, Note_on_c, 0, 55, 0
3, 70020, Note_on_c, 0, 55, 49
3, 70020, Note_on_c, 0, 40, 44
3, 70200, Note_on_c, 0, 40, 0
3, 70200, Note_on_c, 0, 55, 0
3, 70200, Note_on_c, 0, 62, 59
3, 70200, Note_on_c, 0, 50, 57
3, 70380, Note_on_c, 0, 50, 0
3, 70380, Note_on_c, 0, 62, 0
3, 70380, Note_on_c, 0, 67, 61
3, 70380, Note_on_c, 0, 55, 56
3, 70387, Note_on_c, 0, 55, 0
3, 70560, Note_on_c, 0, 40, 0
3, 70560, Note_on_c, 0, 67, 0
3, 70560, Note_on_c, 0, 55, 0
3, 70560, Note_on_c, 0, 57, 67
3, 70560, Note_on_c, 0, 42, 61
3, 70740, Note_on_c, 0, 62, 45
3, 70740, Note_on_c, 0, 50, 39
3, 70920, Note_on_c, 0, 50, 0
3, 70920, Note_on_c, 0, 62, 0
3, 70920, Note_on_c, 0, 66, 56
3, 70920, Note_on_c, 0, 57, 54
3, 71100, Note_on_c, 0, 66, 0
3, 71100, Note_on_c, 0, 57, 0
3, 71100, Note_on_c, 0, 62, 45
3, 71100, Note_on_c, 0, 50, 49
3, 71280, Note_on_c, 0, 50, 0
3, 71280, Note_on_c, 0, 62, 0
3, 71280, Note_on_c, 0, 66, 56
3, 71280, Note_on_c, 0, 57, 56
3, 71460, Note_on_c, 0, 66, 0
3, 71460, Note_on_c, 0, 57, 0
3, 71460, Note_on_c, 0, 57, 46
3, 71460, Note_on_c, 0, 42, 45
3, 71640, Note_on_c, 0, 42, 0
3, 71640, Note_on_c, 0, 57, 0
3, 71640, Note_on_c, 0, 62, 59
3, 71640, Note_on_c, 0, 50, 53
3, 71820, Note_on_c, 0, 50, 0
3, 71820, Note_on_c, 0, 62, 0
3, 71820, Note_on_c, 0, 66, 54
3, 71820, Note_on_c, 0, 57, 53
3, 71827, Note_on_c, 0, 57, 0
3, 72000, Note_on_c, 0, 42, 0
3, 72000, Note_on_c, 0, 66, 0
3, 72000, Note_on_c, 0, 57, 0
3, 72000, Note_on_c, 0, 59, 61
3, 72000, Note_on_c, 0, 43, 60
3, 72180, Note_on_c, 0, 62, 43
3, 72180, Note_on_c, 0, 52, 42
3, 72360, Note_on_c, 0, 52, 0
3, 72360, Note_on_c, 0, 62, 0
3, 72360, Note_on_c, 0, 64, 57
3, 72360, Note_on_c, 0, 59, 54
3, 72540, Note_on_c, 0, 64, 0
3, 72540, Note_on_c, 0, 59, 0
3, 72540, Note_on_c, 0, 59, 49
3, 72540, Note_on_c, 0, 50, 46
3, 72633, Note_on_c, 0, 59, 0
3, 72720, Note_on_c, 0, 43, 0
3, 72720, Note_on_c, 0, 59, 0
3, 72720, Note_on_c, 0, 50, 0
3, 72720, Note_on_c, 0, 50, 58
3, 72720, Note_on_c, 0, 54, 58
3, 72720, Note_on_c, 0, 42, 43
3, 72720, Note_on_c, 0, 35, 67
3, 72900, Note_on_c, 0, 42, 0
3, 72900, Note_on_c, 0, 59, 42
3, 72900, Note_on_c, 0, 47, 55
3, 73080, Note_on_c, 0, 47, 0
3, 73080, Note_on_c, 0, 59, 0
3, 73080, Note_on_c, 0, 62, 57
3, 73080, Note_on_c, 0, 50, 53
3, 73260, Note_on_c, 0, 62, 0
3, 73260, Note_on_c, 0, 50, 0
3, 73260, Note_on_c, 0, 59, 48
3, 73260, Note_on_c, 0, 47, 50
3, 73440, Note_on_c, 0, 47, 0
3, 73440, Note_on_c, 0, 59, 0
3, 73440, Note_on_c, 0, 62, 62
3, 73440, Note_on_c, 0, 50, 57
3, 73620, Note_on_c, 0, 62, 0
3, 73620, Note_on_c, 0, 50, 0
3, 73620, Note_on_c, 0, 54, 48
3, 73620, Note_on_c, 0, 42, 42
3, 73800, Note_on_c, 0, 42, 0
3, 73800, Note_on_c, 0, 54, 0
3, 73800, Note_on_c, 0, 59, 56
3, 73800, Note_on_c, 0, 47, 50
3, 73980, Note_on_c, 0, 47, 0
3, 73980, Note_on_c, 0, 59, 0
3, 73980, Note_on_c, 0, 62, 54
3, 73980, Note_on_c, 0, 50, 52
3, 74160, Note_on_c, 0, 50, 0
3, 74160, Note_on_c, 0, 54, 0
3, 74160, Note_on_c, 0, 50, 0
3, 74160, Note_on_c, 0, 35, 0
3, 74160, Note_on_c, 0, 62, 0
3, 74160, Note_on_c, 0, 52, 58
3, 74160, Note_on_c, 0, 43, 70
3, 74340, Note_on_c, 0, 59, 42
3, 74340, Note_on_c, 0, 52, 45
3, 74520, Note_on_c, 0, 59, 0
3, 74520, Note_on_c, 0, 52, 0
3, 74520, Note_on_c, 0, 64, 55
3, 74520, Note_on_c, 0, 59, 56
3, 74700, Note_on_c, 0, 59, 0
3, 74700, Note_on_c, 0, 64, 0
3, 74700, Note_on_c, 0, 59, 47
3, 74700, Note_on_c, 0, 52, 47
3, 74793, Note_on_c, 0, 52, 0
3, 74880, Note_on_c, 0, 43, 0
3, 74880, Note_on_c, 0, 59, 0
3, 74880, Note_on_c, 0, 52, 0
3, 74880, Note_on_c, 0, 54, 56
3, 74880, Note_on_c, 0, 54, 53
3, 75060, Note_on_c, 0, 54, 0
3, 75060, Note_on_c, 0, 49, 48
3, 75197, Note_on_c, 0, 54, 0
3, 75240, Note_on_c, 0, 49, 0
3, 75240, Note_on_c, 0, 70, 55
3, 75240, Note_on_c, 0, 42, 47
3, 75330, Note_on_c, 0, 70, 0
3, 75330, Note_on_c, 0, 79, 50
3, 75420, Note_on_c, 0, 79, 0
3, 75420, Note_on_c, 0, 42, 0
3, 75420, Note_on_c, 0, 76, 39
3, 75420, Note_on_c, 0, 49, 54
3, 75510, Note_on_c, 0, 76, 0
3, 75510, Note_on_c, 0, 78, 44
3, 75600, Note_on_c, 0, 78, 0
3, 75600, Note_on_c, 0, 49, 0
3, 75600, Note_on_c, 0, 86, 42
3, 75600, Note_on_c, 0, 58, 54
3, 75690, Note_on_c, 0, 79, 39
3, 75780, Note_on_c, 0, 79, 0
3, 75780, Note_on_c, 0, 58, 0
3, 75780, Note_on_c, 0, 76, 33
3, 75780, Note_on_c, 0, 64, 66
3, 75870, Note_on_c, 0, 76, 0
3, 75870, Note_on_c, 0, 78, 38
3, 75960, Note_on_c, 0, 78, 0
3, 75960, Note_on_c, 0, 64, 0
3, 75960, Note_on_c, 0, 86, 0
3, 75960, Note_on_c, 0, 70, 35
3, 75960, Note_on_c, 0, 67, 61
3, 76050, Note_on_c, 0, 70, 0
3, 76050, Note_on_c, 0, 79, 51
3, 76140, Note_on_c, 0, 79, 0
3, 76140, Note_on_c, 0, 67, 0
3, 76140, Note_on_c, 0, 76, 36
3, 76140, Note_on_c, 0, 66, 48
3, 76230, Note_on_c, 0, 76, 0
3, 76230, Note_on_c, 0, 78, 42
3, 76320, Note_on_c, 0, 78, 0
3, 76320, Note_on_c, 0, 66, 0
3, 76320, Note_on_c, 0, 85, 45
3, 76320, Note_on_c, 0, 64, 42
3, 76410, Note_on_c, 0, 79, 29
3, 76500, Note_on_c, 0, 79, 0
3, 76500, Note_on_c, 0, 64, 0
3, 76500, Note_on_c, 0, 76, 33
3, 76500, Note_on_c, 0, 58, 45
3, 76590, Note_on_c, 0, 76, 0
3, 76590, Note_on_c, 0, 78, 44
3, 76680, Note_on_c, 0, 78, 0
3, 76680, Note_on_c, 0, 58, 0
3, 76680, Note_on_c, 0, 85, 0
3, 76680, Note_on_c, 0, 71, 27
3, 76680, Note_on_c, 0, 59, 53
3, 76770, Note_on_c, 0, 71, 0
3, 76770, Note_on_c, 0, 79, 54
3, 76860, Note_on_c, 0, 79, 0
3, 76860, Note_on_c, 0, 59, 0
3, 76860, Note_on_c, 0, 76, 38
3, 76860, Note_on_c, 0, 55, 45
3, 76950, Note_on_c, 0, 76, 0
3, 76950, Note_on_c, 0, 78, 42
3, 77040, Note_on_c, 0, 78, 0
3, 77040, Note_on_c, 0, 55, 0
3, 77040, Note_on_c, 0, 83, 43
3, 77040, Note_on_c, 0, 52, 47
3, 77130, Note_on_c, 0, 79, 34
3, 77220, Note_on_c, 0, 79, 0
3, 77220, Note_on_c, 0, 52, 0
3, 77220, Note_on_c, 0, 76, 34
3, 77220, Note_on_c, 0, 49, 49
3, 77310, Note_on_c, 0, 76, 0
3, 77310, Note_on_c, 0, 78, 42
3, 77400, Note_on_c, 0, 78, 0
3, 77400, Note_on_c, 0, 49, 0
3, 77400, Note_on_c, 0, 83, 0
3, 77400, Note_on_c, 0, 70, 27
3, 77400, Note_on_c, 0, 42, 41
3, 77490, Note_on_c, 0, 70, 0
3, 77490, Note_on_c, 0, 79, 52
3, 77580, Note_on_c, 0, 79, 0
3, 77580, Note_on_c, 0, 42, 0
3, 77580, Note_on_c, 0, 76, 40
3, 77580, Note_on_c, 0, 49, 54
3, 77670, Note_on_c, 0, 76, 0
3, 77670, Note_on_c, 0, 78, 38
3, 77760, Note_on_c, 0, 78, 0
3, 77760, Note_on_c, 0, 49, 0
3, 77760, Note_on_c, 0, 85, 43
3, 77760, Note_on_c, 0, 58, 56
3, 77850, Note_on_c, 0, 79, 33
3, 77940, Note_on_c, 0, 79, 0
3, 77940, Note_on_c, 0, 58, 0
3, 77940, Note_on_c, 0, 76, 36
3, 77940, Note_on_c, 0, 64, 62
3, 78030, Note_on_c, 0, 76, 0
3, 78030, Note_on_c, 0, 78, 43
3, 78120, Note_on_c, 0, 78, 0
3, 78120, Note_on_c, 0, 64, 0
3, 78120, Note_on_c, 0, 85, 0
3, 78120, Note_on_c, 0, 69, 28
3, 78120, Note_on_c, 0, 35, 38
3, 78210, Note_on_c, 0, 69, 0
3, 78210, Note_on_c, 0, 79, 51
3, 78300, Note_on_c, 0, 79, 0
3, 78300, Note_on_c, 0, 35, 0
3, 78300, Note_on_c, 0, 76, 34
3, 78300, Note_on_c, 0, 47, 57
3, 78390, Note_on_c, 0, 76, 0
3, 78390, Note_on_c, 0, 78, 40
3, 78480, Note_on_c, 0, 78, 0
3, 78480, Note_on_c, 0, 47, 0
3, 78480, Note_on_c, 0, 84, 40
3, 78480, Note_on_c, 0, 54, 55
3, 78570, Note_on_c, 0, 79, 33
3, 78660, Note_on_c, 0, 79, 0
3, 78660, Note_on_c, 0, 54, 0
3, 78660, Note_on_c, 0, 76, 37
3, 78660, Note_on_c, 0, 57, 52
3, 78750, Note_on_c, 0, 76, 0
3, 78750, Note_on_c, 0, 78, 42
3, 78840, Note_on_c, 0, 78, 0
3, 78840, Note_on_c, 0, 57, 0
3, 78840, Note_on_c, 0, 84, 0
3, 78840, Note_on_c, 0, 71, 34
3, 78840, Note_on_c, 0, 64, 60
3, 78930, Note_on_c, 0, 71, 0
3, 78930, Note_on_c, 0, 79, 53
3, 79020, Note_on_c, 0, 79, 0
3, 79020, Note_on_c, 0, 64, 0
3, 79020, Note_on_c, 0, 76, 32
3, 79020, Note_on_c, 0, 60, 43
3, 79110, Note_on_c, 0, 76, 0
3, 79110, Note_on_c, 0, 78, 49
3, 79200, Note_on_c, 0, 78, 0
3, 79200, Note_on_c, 0, 60, 0
3, 79200, Note_on_c, 0, 83, 43
3, 79200, Note_on_c, 0, 59, 47
3, 79290, Note_on_c, 0, 79, 38
3, 79380, Note_on_c, 0, 79, 0
3, 79380, Note_on_c, 0, 59, 0
3, 79380, Note_on_c, 0, 76, 35
3, 79380, Note_on_c, 0, 57, 49
3, 79470, Note_on_c, 0, 76, 0
3, 79470, Note_on_c, 0, 78, 43
3, 79560, Note_on_c, 0, 78, 0
3, 79560, Note_on_c, 0, 57, 0
3, 79560, Note_on_c, 0, 83, 0
3, 79560, Note_on_c, 0, 72, 32
3, 79560, Note_on_c, 0, 59, 47
3, 79650, Note_on_c, 0, 72, 0
3, 79650, Note_on_c, 0, 79, 51
3, 79740, Note_on_c, 0, 79, 0
3, 79740, Note_on_c, 0, 59, 0
3, 79740, Note_on_c, 0, 76, 32
3, 79740, Note_on_c, 0, 57, 45
3, 79830, Note_on_c, 0, 76, 0
3, 79830, Note_on_c, 0, 78, 44
3, 79920, Note_on_c, 0, 78, 0
3, 79920, Note_on_c, 0, 57, 0
3, 79920, Note_on_c, 0, 81, 48
3, 79920, Note_on_c, 0, 52, 50
3, 80010, Note_on_c, 0, 79, 31
3, 80100, Note_on_c, 0, 79, 0
3, 80100, Note_on_c, 0, 52, 0
3, 80100, Note_on_c, 0, 76, 35
3, 80100, Note_on_c, 0, 48, 44
3, 80190, Note_on_c, 0, 76, 0
3, 80190, Note_on_c, 0, 78, 38
3, 80280, Note_on_c, 0, 78, 0
3, 80280, Note_on_c, 0, 48, 0
3, 80280, Note_on_c, 0, 81, 0
3, 80280, Note_on_c, 0, 71, 34
3, 80280, Note_on_c, 0, 47, 51
3, 80370, Note_on_c, 0, 71, 0
3, 80370, Note_on_c, 0, 79, 49
3, 80460, Note_on_c, 0, 79, 0
3, 80460, Note_on_c, 0, 47, 0
3, 80460, Note_on_c, 0, 77, 33
3, 80460, Note_on_c, 0, 57, 51
3, 80550, Note_on_c, 0, 77, 0
3, 80550, Note_on_c, 0, 78, 39
3, 80640, Note_on_c, 0, 78, 0
3, 80640, Note_on_c, 0, 57, 0
3, 80640, Note_on_c, 0, 83, 45
3, 80640, Note_on_c, 0, 63, 60
3, 80730, Note_on_c, 0, 79, 37
3, 80820, Note_on_c, 0, 79, 0
3, 80820, Note_on_c, 0, 63, 0
3, 80820, Note_on_c, 0, 77, 34
3, 80820, Note_on_c, 0, 57, 49
3, 80910, Note_on_c, 0, 77, 0
3, 80910, Note_on_c, 0, 78, 40
3, 81000, Note_on_c, 0, 78, 0
3, 81000, Note_on_c, 0, 57, 0
3, 81000, Note_on_c, 0, 83, 0
3, 81000, Note_on_c, 0, 67, 29
3, 81000, Note_on_c, 0, 40, 43
3, 81090, Note_on_c, 0, 67, 0
3, 81090, Note_on_c, 0, 76, 49
3, 81180, Note_on_c, 0, 76, 0
3, 81180, Note_on_c, 0, 40, 0
3, 81180, Note_on_c, 0, 73, 36
3, 81180, Note_on_c, 0, 47, 51
3, 81270, Note_on_c, 0, 73, 0
3, 81270, Note_on_c, 0, 74, 42
3, 81360, Note_on_c, 0, 74, 0
3, 81360, Note_on_c, 0, 47, 0
3, 81360, Note_on_c, 0, 83, 44
3, 81360, Note_on_c, 0, 55, 56
3, 81450, Note_on_c, 0, 76, 34
3, 81540, Note_on_c, 0, 76, 0
3, 81540, Note_on_c, 0, 55, 0
3, 81540, Note_on_c, 0, 73, 38
3, 81540, Note_on_c, 0, 59, 56
3, 81630, Note_on_c, 0, 73, 0
3, 81630, Note_on_c, 0, 74, 40
3, 81720, Note_on_c, 0, 74, 0
3, 81720, Note_on_c, 0, 59, 0
3, 81720, Note_on_c, 0, 83, 0
3, 81720, Note_on_c, 0, 69, 34
3, 81720, Note_on_c, 0, 61, 53
3, 81810, Note_on_c, 0, 69, 0
3, 81810, Note_on_c, 0, 76, 52
3, 81900, Note_on_c, 0, 76, 0
3, 81900, Note_on_c, 0, 61, 0
3, 81900, Note_on_c, 0, 73, 41
3, 81900, Note_on_c, 0, 59, 47
3, 81990, Note_on_c, 0, 73, 0
3, 81990, Note_on_c, 0, 74, 43
3, 82080, Note_on_c, 0, 74, 0
3, 82080, Note_on_c, 0, 59, 0
3, 82080, Note_on_c, 0, 81, 42
3, 82080, Note_on_c, 0, 52, 49
3, 82170, Note_on_c, 0, 76, 36
3, 82260, Note_on_c, 0, 76, 0
3, 82260, Note_on_c, 0, 52, 0
3, 82260, Note_on_c, 0, 73, 37
3, 82260, Note_on_c, 0, 47, 51
3, 82350, Note_on_c, 0, 73, 0
3, 82350, Note_on_c, 0, 74, 44
3, 82440, Note_on_c, 0, 74, 0
3, 82440, Note_on_c, 0, 47, 0
3, 82440, Note_on_c, 0, 81, 0
3, 82440, Note_on_c, 0, 71, 35
3, 82440, Note_on_c, 0, 55, 55
3, 82530, Note_on_c, 0, 71, 0
3, 82530, Note_on_c, 0, 76, 48
3, 82620, Note_on_c, 0, 76, 0
3, 82620, Note_on_c, 0, 55, 0
3, 82620, Note_on_c, 0, 73, 38
3, 82620, Note_on_c, 0, 52, 50
3, 82710, Note_on_c, 0, 73, 0
3, 82710, Note_on_c, 0, 74, 44
3, 82800, Note_on_c, 0, 74, 0
3, 82800, Note_on_c, 0, 52, 0
3, 82800, Note_on_c, 0, 79, 47
3, 82800, Note_on_c, 0, 47, 49
3, 82890, Note_on_c, 0, 76, 39
3, 82980, Note_on_c, 0, 76, 0
3, 82980, Note_on_c, 0, 47, 0
3, 82980, Note_on_c, 0, 73, 34
3, 82980, Note_on_c, 0, 40, 48
3, 83070, Note_on_c, 0, 73, 0
3, 83070, Note_on_c, 0, 74, 39
3, 83160, Note_on_c, 0, 74, 0
3, 83160, Note_on_c, 0, 40, 0
3, 83160, Note_on_c, 0, 79, 0
3, 83160, Note_on_c, 0, 61, 24
3, 83160, Note_on_c, 0, 47, 53
3, 83250, Note_on_c, 0, 61, 0
3, 83250, Note_on_c, 0, 71, 49
3, 83340, Note_on_c, 0, 71, 0
3, 83340, Note_on_c, 0, 47, 0
3, 83340, Note_on_c, 0, 66, 34
3, 83340, Note_on_c, 0, 54, 53
3, 83430, Note_on_c, 0, 66, 0
3, 83430, Note_on_c, 0, 71, 46
3, 83520, Note_on_c, 0, 71, 0
3, 83520, Note_on_c, 0, 54, 0
3, 83520, Note_on_c, 0, 74, 50
3, 83520, Note_on_c, 0, 62, 40
3, 83520, Note_on_c, 0, 59, 50
3, 83610, Note_on_c, 0, 62, 0
3, 83610, Note_on_c, 0, 71, 41
3, 83700, Note_on_c, 0, 71, 0
3, 83700, Note_on_c, 0, 59, 0
3, 83700, Note_on_c, 0, 66, 42
3, 83790, Note_on_c, 0, 66, 0
3, 83790, Note_on_c, 0, 71, 43
3, 83880, Note_on_c, 0, 71, 0
3, 83880, Note_on_c, 0, 74, 0
3, 83880, Note_on_c, 0, 66, 54
3, 83880, Note_on_c, 0, 54, 54
3, 83970, Note_on_c, 0, 78, 45
3, 84060, Note_on_c, 0, 78, 0
3, 84060, Note_on_c, 0, 54, 0
3, 84060, Note_on_c, 0, 69, 45
3, 84060, Note_on_c, 0, 57, 56
3, 84150, Note_on_c, 0, 69, 0
3, 84150, Note_on_c, 0, 71, 46
3, 84240, Note_on_c, 0, 71, 0
3, 84240, Note_on_c, 0, 57, 0
3, 84240, Note_on_c, 0, 66, 0
3, 84240, Note_on_c, 0, 67, 57
3, 84240, Note_on_c, 0, 62, 57
3, 84330, Note_on_c, 0, 79, 48
3, 84420, Note_on_c, 0, 79, 0
3, 84420, Note_on_c, 0, 62, 0
3, 84420, Note_on_c, 0, 71, 49
3, 84420, Note_on_c, 0, 64, 59
3, 84510, Note_on_c, 0, 71, 0
3, 84510, Note_on_c, 0, 72, 50
3, 84600, Note_on_c, 0, 72, 0
3, 84600, Note_on_c, 0, 64, 0
3, 84600, Note_on_c, 0, 67, 0
3, 84600, Note_on_c, 0, 69, 61
3, 84600, Note_on_c, 0, 66, 61
3, 84690, Note_on_c, 0, 81, 51
3, 84780, Note_on_c, 0, 81, 0
3, 84780, Note_on_c, 0, 66, 0
3, 84780, Note_on_c, 0, 73, 52
3, 84780, Note_on_c, 0, 64, 62
3, 84870, Note_on_c, 0, 73, 0
3, 84870, Note_on_c, 0, 74, 51
3, 84960, Note_on_c, 0, 74, 0
3, 84960, Note_on_c, 0, 64, 0
3, 84960, Note_on_c, 0, 69, 0
3, 84960, Note_on_c, 0, 71, 64
3, 84960, Note_on_c, 0, 62, 57
3, 85050, Note_on_c, 0, 83, 82
3, 85140, Note_on_c, 0, 83, 0
3, 85140, Note_on_c, 0, 62, 0
3, 85140, Note_on_c, 0, 74, 66
3, 85140, Note_on_c, 0, 59, 61
3, 85230, Note_on_c, 0, 74, 0
3, 85230, Note_on_c, 0, 76, 85
3, 85320, Note_on_c, 0, 76, 0
3, 85320, Note_on_c, 0, 59, 0
3, 85320, Note_on_c, 0, 71, 0
3, 85320, Note_on_c, 0, 73, 63
3, 85320, Note_on_c, 0, 57, 63
3, 85410, Note_on_c, 0, 85, 72
3, 85500, Note_on_c, 0, 85, 0
3, 85500, Note_on_c, 0, 57, 0
3, 85500, Note_on_c, 0, 76, 62
3, 85500, Note_on_c, 0, 54, 61
3, 85590, Note_on_c, 0, 76, 0
3, 85590, Note_on_c, 0, 78, 91
3, 85680, Note_on_c, 0, 78, 0
3, 85680, Note_on_c, 0, 54, 0
3, 85680, Note_on_c, 0, 73, 0
3, 85680, Note_on_c, 0, 71, 58
3, 85680, Note_on_c, 0, 45, 58
3, 85680, Note_on_c, 0, 55, 58
3, 85770, Note_on_c, 0, 83, 77
3, 85860, Note_on_c, 0, 83, 0
3, 85860, Note_on_c, 0, 55, 0
3, 85860, Note_on_c, 0, 45, 0
3, 85860, Note_on_c, 0, 74, 69
3, 85860, Note_on_c, 0, 52, 56
3, 85950, Note_on_c, 0, 74, 0
3, 85950, Note_on_c, 0, 76, 89
3, 86040, Note_on_c, 0, 76, 0
3, 86040, Note_on_c, 0, 52, 0
3, 86040, Note_on_c, 0, 71, 0
3, 86040, Note_on_c, 0, 73, 53
3, 86040, Note_on_c, 0, 61, 53
3, 86130, Note_on_c, 0, 85, 78
3, 86220, Note_on_c, 0, 85, 0
3, 86220, Note_on_c, 0, 61, 0
3, 86220, Note_on_c, 0, 76, 54
3, 86220, Note_on_c, 0, 55, 43
3, 86310, Note_on_c, 0, 76, 0
3, 86310, Note_on_c, 0, 78, 73
3, 86400, Note_on_c, 0, 78, 0
3, 86400, Note_on_c, 0, 55, 0
3, 86400, Note_on_c, 0, 73, 0
3, 86400, Note_on_c, 0, 74, 71
3, 86400, Note_on_c, 0, 78, 71
3, 86400, Note_on_c, 0, 86, 71
3, 86400, Note_on_c, 0, 38, 42
3, 86520, Note_on_c, 0, 38, 0
3, 86520, Note_on_c, 0, 45, 58
3, 86639, Note_on_c, 0, 45, 0
3, 86639, Note_on_c, 0, 50, 54
3, 86760, Note_on_c, 0, 50, 0
3, 86760, Note_on_c, 0, 54, 54
3, 86880, Note_on_c, 0, 54, 0
3, 86880, Note_on_c, 0, 86, 0
3, 86880, Note_on_c, 0, 78, 0
3, 86880, Note_on_c, 0, 74, 0
3, 86880, Note_on_c, 0, 83, 45
3, 86880, Note_on_c, 0, 57, 54
3, 86999, Note_on_c, 0, 57, 0
3, 86999, Note_on_c, 0, 83, 0
3, 86999, Note_on_c, 0, 81, 51
3, 86999, Note_on_c, 0, 62, 60
3, 87120, Note_on_c, 0, 62, 0
3, 87120, Note_on_c, 0, 81, 0
3, 87120, Note_on_c, 0, 81, 46
3, 87120, Note_on_c, 0, 66, 61
3, 87240, Note_on_c, 0, 81, 0
3, 87240, Note_on_c, 0, 79, 49
3, 87359, Note_on_c, 0, 79, 0
3, 87359, Note_on_c, 0, 78, 46
3, 87480, Note_on_c, 0, 78, 0
3, 87480, Note_on_c, 0, 66, 0
3, 87480, Note_on_c, 0, 74, 54
3, 87480, Note_on_c, 0, 79, 54
3, 87480, Note_on_c, 0, 81, 54
3, 87480, Note_on_c, 0, 62, 54
3, 87480, Note_on_c, 0, 67, 54
3, 87480, Note_on_c, 0, 69, 54
3, 87719, Note_on_c, 0, 81, 0
3, 87719, Note_on_c, 0, 74, 0
3, 87719, Note_on_c, 0, 79, 0
3, 87719, Note_on_c, 0, 71, 53
3, 87719, Note_on_c, 0, 83, 53
3, 87840, Note_on_c, 0, 83, 0
3, 87840, Note_on_c, 0, 62, 0
3, 87840, Note_on_c, 0, 69, 0
3, 87840, Note_on_c, 0, 67, 0
3, 87840, Note_on_c, 0, 71, 0
3, 87840, Note_on_c, 0, 69, 43
3, 87840, Note_on_c, 0, 74, 43
3, 87840, Note_on_c, 0, 81, 43
3, 87840, Note_on_c, 0, 38, 42
3, 87960, Note_on_c, 0, 38, 0
3, 87960, Note_on_c, 0, 45, 54
3, 88079, Note_on_c, 0, 45, 0
3, 88079, Note_on_c, 0, 50, 54
3, 88200, Note_on_c, 0, 50, 0
3, 88200, Note_on_c, 0, 54, 56
3, 88320, Note_on_c, 0, 54, 0
3, 88320, Note_on_c, 0, 81, 0
3, 88320, Note_on_c, 0, 74, 0
3, 88320, Note_on_c, 0, 69, 0
3, 88320, Note_on_c, 0, 79, 45
3, 88320, Note_on_c, 0, 57, 54
3, 88439, Note_on_c, 0, 57, 0
3, 88439, Note_on_c, 0, 79, 0
3, 88439, Note_on_c, 0, 78, 47
3, 88439, Note_on_c, 0, 62, 60
3, 88560, Note_on_c, 0, 78, 0
3, 88560, Note_on_c, 0, 78, 53
3, 88560, Note_on_c, 0, 67, 53
3, 88560, Note_on_c, 0, 59, 54
3, 88680, Note_on_c, 0, 78, 0
3, 88680, Note_on_c, 0, 76, 48
3, 88799, Note_on_c, 0, 76, 0
3, 88799, Note_on_c, 0, 74, 49
3, 88920, Note_on_c, 0, 74, 0
3, 88920, Note_on_c, 0, 74, 50
3, 89040, Note_on_c, 0, 74, 0
3, 89040, Note_on_c, 0, 73, 49
3, 89159, Note_on_c, 0, 73, 0
3, 89159, Note_on_c, 0, 71, 52
3, 89280, Note_on_c, 0, 71, 0
3, 89280, Note_on_c, 0, 59, 0
3, 89280, Note_on_c, 0, 67, 0
3, 89280, Note_on_c, 0, 62, 0
3, 89280, Note_on_c, 0, 66, 59
3, 89280, Note_on_c, 0, 74, 59
3, 89280, Note_on_c, 0, 57, 47
3, 89280, Note_on_c, 0, 50, 88
3, 89400, Note_on_c, 0, 74, 0
3, 89400, Note_on_c, 0, 66, 0
3, 89400, Note_on_c, 0, 66, 42
3, 89519, Note_on_c, 0, 69, 54
3, 89640, Note_on_c, 0, 69, 0
3, 89640, Note_on_c, 0, 50, 0
3, 89640, Note_on_c, 0, 57, 0
3, 89640, Note_on_c, 0, 71, 52
3, 89640, Note_on_c, 0, 62, 58
3, 90000, Note_on_c, 0, 61, 96
3, 90120, Note_on_c, 0, 71, 0
3, 90120, Note_on_c, 0, 66, 0
3, 90120, Note_on_c, 0, 69, 47
3, 90239, Note_on_c, 0, 69, 0
3, 90239, Note_on_c, 0, 66, 44
3, 90360, Note_on_c, 0, 66, 0
3, 90360, Note_on_c, 0, 61, 0
3, 90360, Note_on_c, 0, 67, 50
3, 90360, Note_on_c, 0, 59, 78
3, 90480, Note_on_c, 0, 67, 0
3, 90480, Note_on_c, 0, 66, 49
3, 90599, Note_on_c, 0, 66, 0
3, 90599, Note_on_c, 0, 62, 45
3, 90720, Note_on_c, 0, 62, 0
3, 90720, Note_on_c, 0, 59, 0
3, 90720, Note_on_c, 0, 62, 0
3, 90720, Note_on_c, 0, 66, 56
3, 90720, Note_on_c, 0, 57, 50
3, 90720, Note_on_c, 0, 62, 50
3, 90840, Note_on_c, 0, 66, 0
3, 90840, Note_on_c, 0, 69, 57
3, 90959, Note_on_c, 0, 69, 0
3, 90959, Note_on_c, 0, 71, 55
3, 91080, Note_on_c, 0, 71, 0
3, 91080, Note_on_c, 0, 73, 51
3, 91080, Note_on_c, 0, 54, 75
3, 91200, Note_on_c, 0, 73, 0
3, 91200, Note_on_c, 0, 74, 57
3, 91319, Note_on_c, 0, 74, 0
3, 91319, Note_on_c, 0, 73, 46
3, 91440, Note_on_c, 0, 73, 0
3, 91440, Note_on_c, 0, 71, 47
3, 91440, Note_on_c, 0, 50, 70
3, 91560, Note_on_c, 0, 71, 0
3, 91560, Note_on_c, 0, 69, 42
3, 91679, Note_on_c, 0, 69, 0
3, 91679, Note_on_c, 0, 71, 50
3, 91800, Note_on_c, 0, 71, 0
3, 91800, Note_on_c, 0, 73, 51
3, 91800, Note_on_c, 0, 45, 74
3, 91920, Note_on_c, 0, 73, 0
3, 91920, Note_on_c, 0, 74, 56
3, 92039, Note_on_c, 0, 74, 0
3, 92039, Note_on_c, 0, 78, 60
3, 92160, Note_on_c, 0, 78, 0
3, 92160, Note_on_c, 0, 62, 0
3, 92160, Note_on_c, 0, 50, 0
3, 92160, Note_on_c, 0, 54, 0
3, 92160, Note_on_c, 0, 45, 0
3, 92160, Note_on_c, 0, 57, 0
3, 92160, Note_on_c, 0, 67, 40
3, 92160, Note_on_c, 0, 38, 46
3, 92250, Note_on_c, 0, 76, 37
3, 92340, Note_on_c, 0, 76, 0
3, 92340, Note_on_c, 0, 38, 0
3, 92340, Note_on_c, 0, 73, 38
3, 92340, Note_on_c, 0, 55, 54
3, 92430, Note_on_c, 0, 73, 0
3, 92430, Note_on_c, 0, 74, 43
3, 92520, Note_on_c, 0, 74, 0
3, 92520, Note_on_c, 0, 55, 0
3, 92520, Note_on_c, 0, 67, 0
3, 92520, Note_on_c, 0, 83, 69
3, 92520, Note_on_c, 0, 59, 51
3, 92610, Note_on_c, 0, 76, 35
3, 92700, Note_on_c, 0, 76, 0
3, 92700, Note_on_c, 0, 59, 0
3, 92700, Note_on_c, 0, 73, 34
3, 92700, Note_on_c, 0, 64, 58
3, 92790, Note_on_c, 0, 73, 0
3, 92790, Note_on_c, 0, 74, 40
3, 92880, Note_on_c, 0, 74, 0
3, 92880, Note_on_c, 0, 64, 0
3, 92880, Note_on_c, 0, 83, 0
3, 92880, Note_on_c, 0, 71, 33
3, 92880, Note_on_c, 0, 62, 48
3, 92970, Note_on_c, 0, 76, 31
3, 93060, Note_on_c, 0, 76, 0
3, 93060, Note_on_c, 0, 62, 0
3, 93060, Note_on_c, 0, 73, 34
3, 93060, Note_on_c, 0, 59, 46
3, 93150, Note_on_c, 0, 73, 0
3, 93150, Note_on_c, 0, 74, 43
3, 93240, Note_on_c, 0, 74, 0
3, 93240, Note_on_c, 0, 59, 0
3, 93240, Note_on_c, 0, 71, 0
3, 93240, Note_on_c, 0, 79, 59
3, 93240, Note_on_c, 0, 55, 43
3, 93330, Note_on_c, 0, 76, 33
3, 93420, Note_on_c, 0, 76, 0
3, 93420, Note_on_c, 0, 55, 0
3, 93420, Note_on_c, 0, 73, 33
3, 93420, Note_on_c, 0, 47, 46
3, 93510, Note_on_c, 0, 73, 0
3, 93510, Note_on_c, 0, 74, 42
3, 93600, Note_on_c, 0, 74, 0
3, 93600, Note_on_c, 0, 47, 0
3, 93600, Note_on_c, 0, 79, 0
3, 93600, Note_on_c, 0, 66, 33
3, 93600, Note_on_c, 0, 38, 41
3, 93690, Note_on_c, 0, 76, 36
3, 93780, Note_on_c, 0, 76, 0
3, 93780, Note_on_c, 0, 38, 0
3, 93780, Note_on_c, 0, 73, 37
3, 93780, Note_on_c, 0, 54, 58
3, 93870, Note_on_c, 0, 73, 0
3, 93870, Note_on_c, 0, 74, 41
3, 93960, Note_on_c, 0, 74, 0
3, 93960, Note_on_c, 0, 54, 0
3, 93960, Note_on_c, 0, 66, 0
3, 93960, Note_on_c, 0, 83, 67
3, 93960, Note_on_c, 0, 59, 52
3, 94050, Note_on_c, 0, 76, 38
3, 94140, Note_on_c, 0, 76, 0
3, 94140, Note_on_c, 0, 59, 0
3, 94140, Note_on_c, 0, 73, 33
3, 94140, Note_on_c, 0, 64, 65
3, 94230, Note_on_c, 0, 73, 0
3, 94230, Note_on_c, 0, 74, 44
3, 94320, Note_on_c, 0, 74, 0
3, 94320, Note_on_c, 0, 64, 0
3, 94320, Note_on_c, 0, 83, 0
3, 94320, Note_on_c, 0, 71, 33
3, 94320, Note_on_c, 0, 62, 52
3, 94410, Note_on_c, 0, 76, 36
3, 94500, Note_on_c, 0, 76, 0
3, 94500, Note_on_c, 0, 62, 0
3, 94500, Note_on_c, 0, 73, 33
3, 94500, Note_on_c, 0, 59, 48
3, 94590, Note_on_c, 0, 73, 0
3, 94590, Note_on_c, 0, 74, 37
3, 94680, Note_on_c, 0, 74, 0
3, 94680, Note_on_c, 0, 59, 0
3, 94680, Note_on_c, 0, 71, 0
3, 94680, Note_on_c, 0, 78, 61
3, 94680, Note_on_c, 0, 54, 45
3, 94770, Note_on_c, 0, 76, 36
3, 94860, Note_on_c, 0, 76, 0
3, 94860, Note_on_c, 0, 54, 0
3, 94860, Note_on_c, 0, 73, 33
3, 94860, Note_on_c, 0, 47, 45
3, 94950, Note_on_c, 0, 73, 0
3, 94950, Note_on_c, 0, 74, 43
3, 95040, Note_on_c, 0, 74, 0
3, 95040, Note_on_c, 0, 47, 0
3, 95040, Note_on_c, 0, 78, 0
3, 95040, Note_on_c, 0, 64, 39
3, 95040, Note_on_c, 0, 38, 44
3, 95130, Note_on_c, 0, 74, 33
3, 95220, Note_on_c, 0, 74, 0
3, 95220, Note_on_c, 0, 38, 0
3, 95220, Note_on_c, 0, 71, 36
3, 95220, Note_on_c, 0, 55, 59
3, 95310, Note_on_c, 0, 71, 0
3, 95310, Note_on_c, 0, 73, 44
3, 95400, Note_on_c, 0, 73, 0
3, 95400, Note_on_c, 0, 55, 0
3, 95400, Note_on_c, 0, 64, 0
3, 95400, Note_on_c, 0, 79, 63
3, 95400, Note_on_c, 0, 59, 51
3, 95490, Note_on_c, 0, 74, 34
3, 95580, Note_on_c, 0, 74, 0
3, 95580, Note_on_c, 0, 59, 0
3, 95580, Note_on_c, 0, 71, 37
3, 95580, Note_on_c, 0, 64, 60
3, 95670, Note_on_c, 0, 71, 0
3, 95670, Note_on_c, 0, 73, 43
3, 95760, Note_on_c, 0, 73, 0
3, 95760, Note_on_c, 0, 64, 0
3, 95760, Note_on_c, 0, 79, 0
3, 95760, Note_on_c, 0, 66, 38
3, 95760, Note_on_c, 0, 62, 48
3, 95850, Note_on_c, 0, 76, 33
3, 95940, Note_on_c, 0, 76, 0
3, 95940, Note_on_c, 0, 62, 0
3, 95940, Note_on_c, 0, 73, 32
3, 95940, Note_on_c, 0, 59, 43
3, 96030, Note_on_c, 0, 73, 0
3, 96030, Note_on_c, 0, 74, 41
3, 96120, Note_on_c, 0, 74, 0
3, 96120, Note_on_c, 0, 59, 0
3, 96120, Note_on_c, 0, 66, 0
3, 96120, Note_on_c, 0, 78, 65
3, 96120, Note_on_c, 0, 54, 46
3, 96210, Note_on_c, 0, 76, 35
3, 96300, Note_on_c, 0, 76, 0
3, 96300, Note_on_c, 0, 54, 0
3, 96300, Note_on_c, 0, 73, 38
3, 96300, Note_on_c, 0, 59, 49
3, 96390, Note_on_c, 0, 73, 0
3, 96390, Note_on_c, 0, 74, 51
3, 96480, Note_on_c, 0, 74, 0
3, 96480, Note_on_c, 0, 59, 0
3, 96480, Note_on_c, 0, 78, 0
3, 96480, Note_on_c, 0, 73, 42
3, 96480, Note_on_c, 0, 62, 58
3, 96570, Note_on_c, 0, 73, 0
3, 96570, Note_on_c, 0, 71, 45
3, 96660, Note_on_c, 0, 71, 0
3, 96660, Note_on_c, 0, 62, 0
3, 96660, Note_on_c, 0, 66, 45
3, 96660, Note_on_c, 0, 59, 44
3, 96750, Note_on_c, 0, 66, 0
3, 96750, Note_on_c, 0, 62, 42
3, 96840, Note_on_c, 0, 62, 0
3, 96840, Note_on_c, 0, 59, 0
3, 96840, Note_on_c, 0, 61, 52
3, 96930, Note_on_c, 0, 61, 0
3, 96930, Note_on_c, 0, 59, 49
3, 97020, Note_on_c, 0, 59, 0
3, 97020, Note_on_c, 0, 54, 49
3, 97110, Note_on_c, 0, 54, 0
3, 97110, Note_on_c, 0, 50, 48
3, 97200, Note_on_c, 0, 62, 86
3, 97200, Note_on_c, 0, 66, 86
3, 97200, Note_on_c, 0, 69, 86
3, 97200, Note_on_c, 0, 74, 86
3, 97200, Control_c, 0, 64, 127
3, 97200, Note_on_c, 0, 54, 99
3, 97200, Note_on_c, 0, 57, 99
3, 97380, Note_on_c, 0, 57, 0
3, 97380, Note_on_c, 0, 50, 0
3, 97380, Note_on_c, 0, 54, 0
3, 97380, Control_c, 0, 64, 0
3, 97380, Note_on_c, 0, 45, 76
3, 97517, Note_on_c, 0, 69, 0
3, 97517, Note_on_c, 0, 74, 0
3, 97517, Note_on_c, 0, 62, 0
3, 97517, Note_on_c, 0, 66, 0
3, 97560, Note_on_c, 0, 45, 0
3, 97560, Note_on_c, 0, 64, 104
3, 97560, Note_on_c, 0, 67, 104
3, 97560, Note_on_c, 0, 69, 104
3, 97560, Note_on_c, 0, 73, 104
3, 97560, Note_on_c, 0, 76, 104
3, 97560, Control_c, 0, 64, 127
3, 97560, Note_on_c, 0, 52, 97
3, 97560, Note_on_c, 0, 55, 97
3, 97560, Note_on_c, 0, 57, 97
3, 97740, Note_on_c, 0, 57, 0
3, 97740, Note_on_c, 0, 55, 0
3, 97740, Note_on_c, 0, 52, 0
3, 97740, Control_c, 0, 64, 0
3, 97740, Note_on_c, 0, 45, 78
3, 97877, Note_on_c, 0, 67, 0
3, 97877, Note_on_c, 0, 64, 0
3, 97877, Note_on_c, 0, 69, 0
3, 97877, Note_on_c, 0, 73, 0
3, 97877, Note_on_c, 0, 76, 0
3, 97920, Note_on_c, 0, 45, 0
3, 97920, Note_on_c, 0, 66, 105
3, 97920, Note_on_c, 0, 69, 105
3, 97920, Note_on_c, 0, 74, 105
3, 97920, Note_on_c, 0, 78, 105
3, 97920, Control_c, 0, 64, 127
3, 97920, Note_on_c, 0, 50, 95
3, 97920, Note_on_c, 0, 54, 95
3, 97920, Note_on_c, 0, 57, 95
3, 98100, Note_on_c, 0, 57, 0
3, 98100, Note_on_c, 0, 50, 0
3, 98100, Note_on_c, 0, 54, 0
3, 98100, Note_on_c, 0, 45, 78
3, 98280, Note_on_c, 0, 45, 0
3, 98280, Note_on_c, 0, 45, 86
3, 98460, Note_on_c, 0, 45, 0
3, 98460, Control_c, 0, 64, 0
3, 98460, Note_on_c, 0, 38, 75
3, 98640, Note_on_c, 0, 38, 0
3, 98640, Control_c, 0, 64, 127
3, 98640, Note_on_c, 0, 45, 94
3, 98820, Note_on_c, 0, 45, 0
3, 98820, Note_on_c, 0, 45, 91
3, 98869, Note_on_c, 0, 74, 0
3, 98869, Note_on_c, 0, 78, 0
3, 98869, Note_on_c, 0, 66, 0
3, 98869, Note_on_c, 0, 69, 0
3, 99000, Note_on_c, 0, 45, 0
3, 99000, Note_on_c, 0, 64, 97
3, 99000, Note_on_c, 0, 67, 97
3, 99000, Note_on_c, 0, 69, 97
3, 99000, Note_on_c, 0, 76, 97
3, 99000, Note_on_c, 0, 50, 99
3, 99000, Note_on_c, 0, 55, 99
3, 99000, Note_on_c, 0, 57, 99
3, 99180, Note_on_c, 0, 57, 0
3, 99180, Note_on_c, 0, 50, 0
3, 99180, Note_on_c, 0, 55, 0
3, 99180, Control_c, 0, 64, 0
3, 99180, Note_on_c, 0, 45, 74
3, 99317, Note_on_c, 0, 69, 0
3, 99317, Note_on_c, 0, 76, 0
3, 99317, Note_on_c, 0, 64, 0
3, 99317, Note_on_c, 0, 67, 0
3, 99360, Note_on_c, 0, 45, 0
3, 99360, Note_on_c, 0, 66, 104
3, 99360, Note_on_c, 0, 69, 104
3, 99360, Note_on_c, 0, 74, 104
3, 99360, Note_on_c, 0, 78, 104
3, 99360, Control_c, 0, 64, 127
3, 99360, Note_on_c, 0, 50, 97
3, 99360, Note_on_c, 0, 54, 97
3, 99360, Note_on_c, 0, 57, 97
3, 99540, Note_on_c, 0, 57, 0
3, 99540, Note_on_c, 0, 50, 0
3, 99540, Note_on_c, 0, 54, 0
3, 99540, Note_on_c, 0, 45, 80
3, 99720, Note_on_c, 0, 45, 0
3, 99720, Note_on_c, 0, 45, 87
3, 99900, Note_on_c, 0, 45, 0
3, 99900, Note_on_c, 0, 38, 81
3, 99993, Note_on_c, 0, 74, 0
3, 99993, Note_on_c, 0, 78, 0
3, 99993, Note_on_c, 0, 66, 0
3, 99993, Note_on_c, 0, 69, 0
3, 100080, Note_on_c, 0, 38, 0
3, 100080, Note_on_c, 0, 67, 90
3, 100080, Note_on_c, 0, 71, 90
3, 100080, Note_on_c, 0, 74, 90
3, 100080, Note_on_c, 0, 79, 90
3, 100080, Control_c, 0, 64, 0
3, 100080, Control_c, 0, 64, 127
3, 100080, Note_on_c, 0, 50, 101
3, 100080, Note_on_c, 0, 55, 101
3, 100080, Note_on_c, 0, 59, 101
3, 100260, Note_on_c, 0, 59, 0
3, 100260, Note_on_c, 0, 50, 0
3, 100260, Note_on_c, 0, 71, 0
3, 100260, Note_on_c, 0, 74, 0
3, 100260, Note_on_c, 0, 67, 0
3, 100260, Note_on_c, 0, 55, 0
3, 100260, Note_on_c, 0, 79, 0
3, 100260, Note_on_c, 0, 66, 88
3, 100260, Note_on_c, 0, 78, 88
3, 100260, Note_on_c, 0, 47, 75
3, 100440, Note_on_c, 0, 47, 0
3, 100440, Note_on_c, 0, 78, 0
3, 100440, Note_on_c, 0, 66, 0
3, 100440, Note_on_c, 0, 64, 81
3, 100440, Note_on_c, 0, 76, 81
3, 100440, Note_on_c, 0, 47, 88
3, 100620, Note_on_c, 0, 47, 0
3, 100620, Note_on_c, 0, 76, 0
3, 100620, Note_on_c, 0, 64, 0
3, 100620, Note_on_c, 0, 62, 78
3, 100620, Note_on_c, 0, 74, 78
3, 100620, Note_on_c, 0, 38, 78
3, 100800, Note_on_c, 0, 38, 0
3, 100800, Note_on_c, 0, 74, 0
3, 100800, Note_on_c, 0, 62, 0
3, 100800, Note_on_c, 0, 69, 109
3, 100800, Note_on_c, 0, 81, 109
3, 100800, Note_on_c, 0, 74, 47
3, 100800, Note_on_c, 0, 78, 47
3, 100800, Control_c, 0, 64, 0
3, 100800, Control_c, 0, 64, 127
3, 100800, Note_on_c, 0, 50, 96
3, 100800, Note_on_c, 0, 54, 96
3, 100800, Note_on_c, 0, 57, 96
3, 100980, Note_on_c, 0, 57, 0
3, 100980, Note_on_c, 0, 50, 0
3, 100980, Note_on_c, 0, 54, 0
3, 100980, Note_on_c, 0, 45, 76
3, 101160, Note_on_c, 0, 45, 0
3, 101160, Note_on_c, 0, 45, 83
3, 101340, Note_on_c, 0, 45, 0
3, 101340, Note_on_c, 0, 38, 83
3, 101520, Note_on_c, 0, 38, 0
3, 101520, Control_c, 0, 64, 0
3, 101520, Control_c, 0, 64, 127
3, 101520, Note_on_c, 0, 45, 90
3, 101700, Note_on_c, 0, 45, 0
3, 101700, Note_on_c, 0, 45, 90
3, 101880, Note_on_c, 0, 45, 0
3, 101880, Note_on_c, 0, 78, 0
3, 101880, Note_on_c, 0, 74, 0
3, 101880, Note_on_c, 0, 76, 45
3, 101880, Note_on_c, 0, 79, 45
3, 101880, Note_on_c, 0, 52, 103
3, 101880, Note_on_c, 0, 55, 103
3, 101880, Note_on_c, 0, 57, 103
3, 102060, Note_on_c, 0, 57, 0
3, 102060, Note_on_c, 0, 52, 0
3, 102060, Note_on_c, 0, 55, 0
3, 102060, Control_c, 0, 64, 0
3, 102060, Note_on_c, 0, 45, 80
3, 102240, Note_on_c, 0, 45, 0
3, 102240, Note_on_c, 0, 79, 0
3, 102240, Note_on_c, 0, 76, 0
3, 102240, Note_on_c, 0, 74, 40
3, 102240, Note_on_c, 0, 78, 40
3, 102240, Control_c, 0, 64, 127
3, 102240, Note_on_c, 0, 50, 97
3, 102240, Note_on_c, 0, 54, 97
3, 102240, Note_on_c, 0, 57, 97
3, 102420, Note_on_c, 0, 57, 0
3, 102420, Note_on_c, 0, 50, 0
3, 102420, Note_on_c, 0, 54, 0
3, 102420, Note_on_c, 0, 45, 74
3, 102600, Note_on_c, 0, 45, 0
3, 102600, Note_on_c, 0, 81, 0
3, 102600, Note_on_c, 0, 69, 0
3, 102600, Note_on_c, 0, 69, 84
3, 102600, Note_on_c, 0, 81, 84
3, 102600, Note_on_c, 0, 45, 83
3, 102780, Note_on_c, 0, 45, 0
3, 102780, Note_on_c, 0, 38, 87
3, 102960, Note_on_c, 0, 38, 0
3, 102960, Note_on_c, 0, 81, 0
3, 102960, Note_on_c, 0, 78, 0
3, 102960, Note_on_c, 0, 74, 0
3, 102960, Note_on_c, 0, 69, 0
3, 102960, Note_on_c, 0, 71, 94
3, 102960, Note_on_c, 0, 83, 94
3, 102960, Note_on_c, 0, 74, 40
3, 102960, Note_on_c, 0, 78, 40
3, 102960, Control_c, 0, 64, 0
3, 102960, Control_c, 0, 64, 127
3, 102960, Note_on_c, 0, 54, 116
3, 102960, Note_on_c, 0, 62, 116
3, 103140, Note_on_c, 0, 62, 0
3, 103140, Note_on_c, 0, 54, 0
3, 103140, Note_on_c, 0, 50, 83
3, 103320, Note_on_c, 0, 50, 0
3, 103320, Note_on_c, 0, 83, 0
3, 103320, Note_on_c, 0, 71, 0
3, 103320, Note_on_c, 0, 69, 86
3, 103320, Note_on_c, 0, 81, 86
3, 103320, Note_on_c, 0, 54, 111
3, 103320, Note_on_c, 0, 61, 111
3, 103500, Note_on_c, 0, 61, 0
3, 103500, Note_on_c, 0, 81, 0
3, 103500, Note_on_c, 0, 69, 0
3, 103500, Note_on_c, 0, 54, 0
3, 103500, Note_on_c, 0, 71, 92
3, 103500, Note_on_c, 0, 83, 92
3, 103500, Note_on_c, 0, 50, 76
3, 103680, Note_on_c, 0, 50, 0
3, 103680, Note_on_c, 0, 71, 0
3, 103680, Note_on_c, 0, 74, 0
3, 103680, Note_on_c, 0, 78, 0
3, 103680, Note_on_c, 0, 83, 0
3, 103680, Note_on_c, 0, 67, 81
3, 103680, Note_on_c, 0, 79, 81
3, 103680, Note_on_c, 0, 74, 34
3, 103680, Control_c, 0, 64, 0
3, 103680, Control_c, 0, 64, 127
3, 103680, Note_on_c, 0, 55, 99
3, 103680, Note_on_c, 0, 59, 99
3, 103860, Note_on_c, 0, 59, 0
3, 103860, Note_on_c, 0, 55, 0
3, 103860, Note_on_c, 0, 50, 81
3, 104040, Note_on_c, 0, 50, 0
3, 104040, Note_on_c, 0, 50, 81
3, 104220, Note_on_c, 0, 50, 0
3, 104220, Control_c, 0, 64, 0
3, 104220, Note_on_c, 0, 38, 75
3, 104400, Note_on_c, 0, 38, 0
3, 104400, Control_c, 0, 64, 127
3, 104400, Note_on_c, 0, 50, 98
3, 104580, Note_on_c, 0, 50, 0
3, 104580, Note_on_c, 0, 67, 0
3, 104580, Note_on_c, 0, 79, 0
3, 104580, Note_on_c, 0, 69, 94
3, 104580, Note_on_c, 0, 81, 94
3, 104580, Note_on_c, 0, 50, 89
3, 104760, Note_on_c, 0, 50, 0
3, 104760, Note_on_c, 0, 74, 0
3, 104760, Note_on_c, 0, 69, 0
3, 104760, Note_on_c, 0, 81, 0
3, 104760, Note_on_c, 0, 71, 93
3, 104760, Note_on_c, 0, 83, 93
3, 104760, Note_on_c, 0, 74, 48
3, 104760, Note_on_c, 0, 79, 48
3, 104760, Note_on_c, 0, 55, 112
3, 104760, Note_on_c, 0, 59, 112
3, 104760, Note_on_c, 0, 62, 112
3, 104940, Note_on_c, 0, 62, 0
3, 104940, Note_on_c, 0, 55, 0
3, 104940, Note_on_c, 0, 59, 0
3, 104940, Note_on_c, 0, 50, 82
3, 105120, Note_on_c, 0, 50, 0
3, 105120, Note_on_c, 0, 79, 0
3, 105120, Note_on_c, 0, 71, 0
3, 105120, Note_on_c, 0, 83, 0
3, 105120, Note_on_c, 0, 74, 0
3, 105120, Note_on_c, 0, 66, 76
3, 105120, Note_on_c, 0, 78, 76
3, 105120, Note_on_c, 0, 71, 35
3, 105120, Note_on_c, 0, 74, 35
3, 105120, Control_c, 0, 64, 0
3, 105120, Control_c, 0, 64, 127
3, 105120, Note_on_c, 0, 54, 96
3, 105120, Note_on_c, 0, 59, 96
3, 105300, Note_on_c, 0, 59, 0
3, 105300, Note_on_c, 0, 54, 0
3, 105300, Note_on_c, 0, 50, 79
3, 105480, Note_on_c, 0, 50, 0
3, 105480, Note_on_c, 0, 78, 0
3, 105480, Note_on_c, 0, 66, 0
3, 105480, Note_on_c, 0, 71, 100
3, 105480, Note_on_c, 0, 83, 100
3, 105480, Note_on_c, 0, 50, 84
3, 105660, Note_on_c, 0, 50, 0
3, 105660, Note_on_c, 0, 38, 71
3, 105840, Note_on_c, 0, 38, 0
3, 105840, Note_on_c, 0, 83, 0
3, 105840, Note_on_c, 0, 74, 0
3, 105840, Note_on_c, 0, 71, 0
3, 105840, Note_on_c, 0, 71, 0
3, 105840, Note_on_c, 0, 74, 98
3, 105840, Note_on_c, 0, 86, 98
3, 105840, Note_on_c, 0, 78, 42
3, 105840, Control_c, 0, 64, 0
3, 105840, Control_c, 0, 64, 127
3, 105840, Note_on_c, 0, 50, 101
3, 106020, Note_on_c, 0, 50, 0
3, 106020, Note_on_c, 0, 50, 88
3, 106200, Note_on_c, 0, 50, 0
3, 106200, Note_on_c, 0, 86, 0
3, 106200, Note_on_c, 0, 74, 0
3, 106200, Note_on_c, 0, 73, 79
3, 106200, Note_on_c, 0, 85, 79
3, 106200, Note_on_c, 0, 54, 98
3, 106200, Note_on_c, 0, 59, 98
3, 106380, Note_on_c, 0, 59, 0
3, 106380, Note_on_c, 0, 85, 0
3, 106380, Note_on_c, 0, 54, 0
3, 106380, Note_on_c, 0, 73, 0
3, 106380, Note_on_c, 0, 74, 91
3, 106380, Note_on_c, 0, 86, 91
3, 106380, Control_c, 0, 64, 0
3, 106380, Note_on_c, 0, 50, 81
3, 106560, Note_on_c, 0, 50, 0
3, 106560, Note_on_c, 0, 78, 0
3, 106560, Note_on_c, 0, 74, 0
3, 106560, Note_on_c, 0, 86, 0
3, 106560, Note_on_c, 0, 71, 78
3, 106560, Note_on_c, 0, 83, 78
3, 106560, Note_on_c, 0, 79, 42
3, 106560, Note_on_c, 0, 40, 106
3, 106560, Note_on_c, 0, 55, 106
3, 106740, Note_on_c, 0, 50, 75
3, 106920, Note_on_c, 0, 50, 0
3, 106920, Note_on_c, 0, 55, 94
3, 107100, Note_on_c, 0, 55, 0
3, 107100, Note_on_c, 0, 55, 96
3, 107280, Note_on_c, 0, 55, 0
3, 107280, Note_on_c, 0, 62, 113
3, 107280, Note_on_c, 0, 67, 113
3, 107460, Note_on_c, 0, 67, 0
3, 107460, Note_on_c, 0, 83, 0
3, 107460, Note_on_c, 0, 71, 0
3, 107460, Note_on_c, 0, 62, 0
3, 107460, Note_on_c, 0, 73, 97
3, 107460, Note_on_c, 0, 85, 97
3, 107460, Note_on_c, 0, 55, 78
3, 107640, Note_on_c, 0, 85, 0
3, 107640, Note_on_c, 0, 73, 0
3, 107640, Note_on_c, 0, 55, 0
3, 107640, Note_on_c, 0, 79, 0
3, 107640, Note_on_c, 0, 74, 89
3, 107640, Note_on_c, 0, 86, 89
3, 107640, Note_on_c, 0, 79, 43
3, 107640, Note_on_c, 0, 55, 89
3, 107820, Note_on_c, 0, 55, 0
3, 107820, Note_on_c, 0, 50, 83
3, 107827, Note_on_c, 0, 40, 0
3, 107827, Note_on_c, 0, 55, 0
3, 108000, Note_on_c, 0, 79, 0
3, 108000, Note_on_c, 0, 86, 0
3, 108000, Note_on_c, 0, 50, 0
3, 108000, Note_on_c, 0, 74, 0
3, 108000, Note_on_c, 0, 69, 75
3, 108000, Note_on_c, 0, 81, 75
3, 108000, Note_on_c, 0, 74, 33
3, 108000, Note_on_c, 0, 42, 104
3, 108000, Note_on_c, 0, 50, 104
3, 108000, Note_on_c, 0, 57, 104
3, 108180, Note_on_c, 0, 50, 76
3, 108360, Note_on_c, 0, 50, 0
3, 108360, Note_on_c, 0, 81, 0
3, 108360, Note_on_c, 0, 69, 0
3, 108360, Note_on_c, 0, 74, 97
3, 108360, Note_on_c, 0, 86, 97
3, 108360, Note_on_c, 0, 57, 95
3, 108540, Note_on_c, 0, 57, 0
3, 108540, Note_on_c, 0, 57, 89
3, 108720, Note_on_c, 0, 86, 0
3, 108720, Note_on_c, 0, 74, 0
3, 108720, Note_on_c, 0, 74, 0
3, 108720, Note_on_c, 0, 57, 0
3, 108720, Note_on_c, 0, 78, 95
3, 108720, Note_on_c, 0, 90, 95
3, 108720, Note_on_c, 0, 81, 53
3, 108720, Note_on_c, 0, 62, 111
3, 108720, Note_on_c, 0, 69, 111
3, 108900, Note_on_c, 0, 69, 0
3, 108900, Note_on_c, 0, 62, 0
3, 108900, Note_on_c, 0, 57, 83
3, 109080, Note_on_c, 0, 78, 0
3, 109080, Note_on_c, 0, 57, 0
3, 109080, Note_on_c, 0, 90, 0
3, 109080, Note_on_c, 0, 76, 85
3, 109080, Note_on_c, 0, 88, 85
3, 109080, Note_on_c, 0, 57, 86
3, 109260, Note_on_c, 0, 88, 0
3, 109260, Note_on_c, 0, 57, 0
3, 109260, Note_on_c, 0, 76, 0
3, 109260, Note_on_c, 0, 78, 92
3, 109260, Note_on_c, 0, 90, 92
3, 109260, Note_on_c, 0, 50, 82
3, 109267, Note_on_c, 0, 50, 0
3, 109267, Note_on_c, 0, 57, 0
3, 109267, Note_on_c, 0, 42, 0
3, 109440, Note_on_c, 0, 78, 0
3, 109440, Note_on_c, 0, 90, 0
3, 109440, Note_on_c, 0, 50, 0
3, 109440, Note_on_c, 0, 81, 0
3, 109440, Note_on_c, 0, 74, 75
3, 109440, Note_on_c, 0, 86, 75
3, 109440, Note_on_c, 0, 78, 46
3, 109440, Note_on_c, 0, 83, 46
3, 109440, Note_on_c, 0, 44, 102
3, 109505, Note_on_c, 0, 54, 102
3, 109569, Note_on_c, 0, 59, 102
3, 109620, Note_on_c, 0, 54, 78
3, 109800, Note_on_c, 0, 54, 0
3, 109800, Note_on_c, 0, 59, 92
3, 109980, Note_on_c, 0, 59, 0
3, 109980, Note_on_c, 0, 54, 81
3, 110160, Note_on_c, 0, 54, 0
3, 110160, Note_on_c, 0, 59, 111
3, 110160, Note_on_c, 0, 66, 111
3, 110340, Note_on_c, 0, 66, 0
3, 110340, Note_on_c, 0, 74, 0
3, 110340, Note_on_c, 0, 59, 0
3, 110340, Note_on_c, 0, 86, 0
3, 110340, Note_on_c, 0, 76, 95
3, 110340, Note_on_c, 0, 88, 95
3, 110340, Note_on_c, 0, 54, 77
3, 110520, Note_on_c, 0, 88, 0
3, 110520, Note_on_c, 0, 54, 0
3, 110520, Note_on_c, 0, 78, 0
3, 110520, Note_on_c, 0, 83, 0
3, 110520, Note_on_c, 0, 76, 0
3, 110520, Note_on_c, 0, 78, 106
3, 110520, Note_on_c, 0, 90, 106
3, 110520, Note_on_c, 0, 83, 42
3, 110520, Note_on_c, 0, 59, 98
3, 110700, Note_on_c, 0, 59, 0
3, 110700, Note_on_c, 0, 54, 85
3, 110837, Note_on_c, 0, 90, 0
3, 110837, Note_on_c, 0, 78, 0
3, 110880, Note_on_c, 0, 44, 0
3, 110880, Note_on_c, 0, 83, 0
3, 110880, Note_on_c, 0, 54, 0
3, 110880, Note_on_c, 0, 54, 0
3, 110880, Note_on_c, 0, 59, 0
3, 110880, Note_on_c, 0, 73, 76
3, 110880, Note_on_c, 0, 85, 76
3, 110880, Note_on_c, 0, 78, 38
3, 110880, Note_on_c, 0, 46, 107
3, 110945, Note_on_c, 0, 54, 107
3, 111009, Note_on_c, 0, 61, 107
3, 111060, Note_on_c, 0, 85, 0
3, 111060, Note_on_c, 0, 73, 0
3, 111060, Note_on_c, 0, 74, 95
3, 111060, Note_on_c, 0, 86, 95
3, 111060, Note_on_c, 0, 54, 77
3, 111240, Note_on_c, 0, 86, 0
3, 111240, Note_on_c, 0, 54, 0
3, 111240, Note_on_c, 0, 74, 0
3, 111240, Note_on_c, 0, 76, 101
3, 111240, Note_on_c, 0, 88, 101
3, 111240, Note_on_c, 0, 64, 112
3, 111240, Note_on_c, 0, 66, 112
3, 111420, Note_on_c, 0, 66, 0
3, 111420, Note_on_c, 0, 64, 0
3, 111420, Note_on_c, 0, 54, 78
3, 111557, Note_on_c, 0, 76, 0
3, 111557, Note_on_c, 0, 88, 0
3, 111600, Note_on_c, 0, 61, 0
3, 111600, Note_on_c, 0, 54, 0
3, 111600, Note_on_c, 0, 78, 0
3, 111600, Note_on_c, 0, 54, 0
3, 111600, Note_on_c, 0, 46, 0
3, 111600, Note_on_c, 0, 71, 77
3, 111600, Note_on_c, 0, 83, 77
3, 111600, Note_on_c, 0, 74, 36
3, 111600, Note_on_c, 0, 78, 36
3, 111600, Note_on_c, 0, 47, 103
3, 111665, Note_on_c, 0, 54, 103
3, 111729, Note_on_c, 0, 62, 103
3, 111780, Note_on_c, 0, 54, 81
3, 111960, Note_on_c, 0, 54, 0
3, 111960, Note_on_c, 0, 59, 93
3, 112140, Note_on_c, 0, 59, 0
3, 112140, Note_on_c, 0, 54, 79
3, 112320, Note_on_c, 0, 54, 0
3, 112320, Note_on_c, 0, 59, 108
3, 112320, Note_on_c, 0, 66, 108
3, 112500, Note_on_c, 0, 66, 0
3, 112500, Note_on_c, 0, 59, 0
3, 112500, Note_on_c, 0, 71, 0
3, 112500, Note_on_c, 0, 83, 0
3, 112500, Note_on_c, 0, 73, 95
3, 112500, Note_on_c, 0, 85, 95
3, 112500, Note_on_c, 0, 54, 80
3, 112680, Note_on_c, 0, 85, 0
3, 112680, Note_on_c, 0, 78, 0
3, 112680, Note_on_c, 0, 54, 0
3, 112680, Note_on_c, 0, 74, 0
3, 112680, Note_on_c, 0, 73, 0
3, 112680, Note_on_c, 0, 74, 98
3, 112680, Note_on_c, 0, 86, 98
3, 112680, Note_on_c, 0, 78, 41
3, 112680, Note_on_c, 0, 59, 93
3, 112860, Note_on_c, 0, 59, 0
3, 112860, Note_on_c, 0, 54, 81
3, 112997, Note_on_c, 0, 74, 0
3, 112997, Note_on_c, 0, 86, 0
3, 113040, Note_on_c, 0, 47, 0
3, 113040, Note_on_c, 0, 54, 0
3, 113040, Note_on_c, 0, 62, 0
3, 113040, Note_on_c, 0, 54, 0
3, 113040, Note_on_c, 0, 78, 0
3, 113040, Note_on_c, 0, 70, 87
3, 113040, Note_on_c, 0, 82, 87
3, 113040, Note_on_c, 0, 74, 40
3, 113040, Note_on_c, 0, 79, 40
3, 113040, Note_on_c, 0, 43, 87
3, 113040, Note_on_c, 0, 50, 87
3, 113040, Note_on_c, 0, 58, 87
3, 113220, Note_on_c, 0, 50, 86
3, 113400, Note_on_c, 0, 50, 0
3, 113400, Note_on_c, 0, 55, 84
3, 113580, Note_on_c, 0, 55, 0
3, 113580, Note_on_c, 0, 50, 83
3, 113760, Note_on_c, 0, 50, 0
3, 113760, Note_on_c, 0, 55, 81
3, 113760, Note_on_c, 0, 62, 81
3, 113940, Note_on_c, 0, 62, 0
3, 113940, Note_on_c, 0, 55, 0
3, 113940, Note_on_c, 0, 70, 0
3, 113940, Note_on_c, 0, 82, 0
3, 113940, Note_on_c, 0, 72, 79
3, 113940, Note_on_c, 0, 84, 79
3, 113940, Note_on_c, 0, 50, 79
3, 114120, Note_on_c, 0, 84, 0
3, 114120, Note_on_c, 0, 79, 0
3, 114120, Note_on_c, 0, 50, 0
3, 114120, Note_on_c, 0, 74, 0
3, 114120, Note_on_c, 0, 72, 0
3, 114120, Note_on_c, 0, 74, 78
3, 114120, Note_on_c, 0, 86, 78
3, 114120, Note_on_c, 0, 79, 31
3, 114120, Note_on_c, 0, 55, 78
3, 114300, Note_on_c, 0, 55, 0
3, 114300, Note_on_c, 0, 50, 76
3, 114307, Note_on_c, 0, 43, 0
3, 114307, Note_on_c, 0, 58, 0
3, 114307, Note_on_c, 0, 50, 0
3, 114437, Note_on_c, 0, 86, 0
3, 114437, Note_on_c, 0, 74, 0
3, 114480, Note_on_c, 0, 79, 0
3, 114480, Note_on_c, 0, 50, 0
3, 114480, Note_on_c, 0, 69, 75
3, 114480, Note_on_c, 0, 81, 75
3, 114480, Note_on_c, 0, 74, 28
3, 114480, Note_on_c, 0, 42, 75
3, 114528, Note_on_c, 0, 50, 74
3, 114576, Note_on_c, 0, 57, 74
3, 114660, Note_on_c, 0, 81, 0
3, 114660, Note_on_c, 0, 69, 0
3, 114660, Note_on_c, 0, 70, 73
3, 114660, Note_on_c, 0, 82, 73
3, 114660, Note_on_c, 0, 50, 62
3, 114840, Note_on_c, 0, 82, 0
3, 114840, Note_on_c, 0, 50, 0
3, 114840, Note_on_c, 0, 70, 0
3, 114840, Note_on_c, 0, 72, 89
3, 114840, Note_on_c, 0, 84, 89
3, 114840, Note_on_c, 0, 60, 95
3, 115020, Note_on_c, 0, 60, 0
3, 115020, Note_on_c, 0, 50, 68
3, 115157, Note_on_c, 0, 72, 0
3, 115157, Note_on_c, 0, 84, 0
3, 115200, Note_on_c, 0, 57, 0
3, 115200, Note_on_c, 0, 50, 0
3, 115200, Note_on_c, 0, 42, 0
3, 115200, Note_on_c, 0, 50, 0
3, 115200, Note_on_c, 0, 74, 0
3, 115200, Note_on_c, 0, 67, 64
3, 115200, Note_on_c, 0, 79, 64
3, 115200, Note_on_c, 0, 74, 31
3, 115200, Note_on_c, 0, 40, 83
3, 115248, Note_on_c, 0, 50, 83
3, 115296, Note_on_c, 0, 55, 83
3, 115380, Note_on_c, 0, 79, 0
3, 115380, Note_on_c, 0, 67, 0
3, 115380, Note_on_c, 0, 69, 76
3, 115380, Note_on_c, 0, 81, 76
3, 115380, Note_on_c, 0, 50, 61
3, 115560, Note_on_c, 0, 81, 0
3, 115560, Note_on_c, 0, 50, 0
3, 115560, Note_on_c, 0, 69, 0
3, 115560, Note_on_c, 0, 70, 96
3, 115560, Note_on_c, 0, 82, 96
3, 115560, Note_on_c, 0, 58, 80
3, 115740, Note_on_c, 0, 58, 0
3, 115740, Note_on_c, 0, 50, 68
3, 115877, Note_on_c, 0, 70, 0
3, 115877, Note_on_c, 0, 82, 0
3, 115920, Note_on_c, 0, 55, 0
3, 115920, Note_on_c, 0, 50, 0
3, 115920, Note_on_c, 0, 40, 0
3, 115920, Note_on_c, 0, 50, 0
3, 115920, Note_on_c, 0, 74, 0
3, 115920, Note_on_c, 0, 66, 43
3, 115920, Note_on_c, 0, 78, 43
3, 115920, Note_on_c, 0, 74, 28
3, 115920, Note_on_c, 0, 78, 28
3, 115920, Note_on_c, 0, 33, 68
3, 115920, Note_on_c, 0, 45, 68
3, 116100, Note_on_c, 0, 54, 61
3, 116280, Note_on_c, 0, 54, 0
3, 116280, Note_on_c, 0, 66, 0
3, 116280, Note_on_c, 0, 78, 0
3, 116280, Note_on_c, 0, 69, 68
3, 116280, Note_on_c, 0, 81, 68
3, 116280, Note_on_c, 0, 57, 67
3, 116460, Note_on_c, 0, 57, 0
3, 116460, Note_on_c, 0, 62, 83
3, 116640, Note_on_c, 0, 62, 0
3, 116640, Note_on_c, 0, 66, 73
3, 116820, Note_on_c, 0, 66, 0
3, 116820, Note_on_c, 0, 62, 76
3, 117000, Note_on_c, 0, 62, 0
3, 117000, Note_on_c, 0, 81, 0
3, 117000, Note_on_c, 0, 69, 0
3, 117000, Note_on_c, 0, 74, 87
3, 117000, Note_on_c, 0, 86, 87
3, 117000, Note_on_c, 0, 57, 80
3, 117180, Note_on_c, 0, 57, 0
3, 117180, Note_on_c, 0, 54, 83
3, 117360, Note_on_c, 0, 54, 0
3, 117360, Note_on_c, 0, 86, 0
3, 117360, Note_on_c, 0, 74, 0
3, 117360, Note_on_c, 0, 33, 0
3, 117360, Note_on_c, 0, 78, 0
3, 117360, Note_on_c, 0, 74, 0
3, 117360, Note_on_c, 0, 45, 0
3, 117360, Note_on_c, 0, 78, 87
3, 117360, Note_on_c, 0, 90, 87
3, 117360, Note_on_c, 0, 86, 27
3, 117360, Note_on_c, 0, 57, 87
3, 117540, Note_on_c, 0, 57, 0
3, 117540, Note_on_c, 0, 62, 91
3, 117720, Note_on_c, 0, 62, 0
3, 117720, Note_on_c, 0, 90, 0
3, 117720, Note_on_c, 0, 78, 0
3, 117720, Note_on_c, 0, 81, 95
3, 117720, Note_on_c, 0, 93, 95
3, 117720, Note_on_c, 0, 66, 95
3, 117900, Note_on_c, 0, 66, 0
3, 117900, Note_on_c, 0, 69, 99
3, 118080, Note_on_c, 0, 69, 0
3, 118080, Note_on_c, 0, 93, 0
3, 118080, Note_on_c, 0, 81, 0
3, 118080, Note_on_c, 0, 86, 0
3, 118080, Note_on_c, 0, 83, 117
3, 118080, Note_on_c, 0, 95, 117
3, 118080, Note_on_c, 0, 87, 45
3, 118080, Note_on_c, 0, 90, 45
3, 118080, Note_on_c, 0, 54, 117
3, 118145, Note_on_c, 0, 59, 117
3, 118209, Note_on_c, 0, 63, 117
3, 118274, Note_on_c, 0, 69, 117
3, 118339, Note_on_c, 0, 71, 117
3, 118440, Note_on_c, 0, 71, 0
3, 118440, Note_on_c, 0, 95, 0
3, 118440, Note_on_c, 0, 69, 0
3, 118440, Note_on_c, 0, 54, 0
3, 118440, Note_on_c, 0, 63, 0
3, 118440, Note_on_c, 0, 83, 0
3, 118440, Note_on_c, 0, 59, 0
3, 118440, Note_on_c, 0, 81, 117
3, 118440, Note_on_c, 0, 93, 117
3, 118440, Note_on_c, 0, 69, 117
3, 118757, Note_on_c, 0, 69, 0
3, 118757, Note_on_c, 0, 33, 86
3, 118757, Note_on_c, 0, 45, 86
3, 118800, Note_on_c, 0, 45, 0
3, 118800, Note_on_c, 0, 90, 0
3, 118800, Note_on_c, 0, 93, 0
3, 118800, Note_on_c, 0, 87, 0
3, 118800, Note_on_c, 0, 33, 0
3, 118800, Note_on_c, 0, 81, 0
3, 118800, Note_on_c, 0, 78, 117
3, 118800, Note_on_c, 0, 90, 117
3, 118800, Note_on_c, 0, 83, 32
3, 118800, Note_on_c, 0, 86, 32
3, 118800, Note_on_c, 0, 55, 117
3, 118800, Note_on_c, 0, 59, 117
3, 118800, Note_on_c, 0, 62, 117
3, 118800, Note_on_c, 0, 66, 117
3, 119039, Note_on_c, 0, 66, 0
3, 119039, Note_on_c, 0, 62, 0
3, 119039, Note_on_c, 0, 55, 0
3, 119039, Note_on_c, 0, 59, 0
3, 119039, Note_on_c, 0, 55, 93
3, 119160, Note_on_c, 0, 55, 0
3, 119160, Note_on_c, 0, 90, 0
3, 119160, Note_on_c, 0, 78, 0
3, 119160, Note_on_c, 0, 76, 97
3, 119160, Note_on_c, 0, 88, 97
3, 119160, Note_on_c, 0, 59, 110
3, 119280, Note_on_c, 0, 59, 0
3, 119280, Note_on_c, 0, 62, 110
3, 119399, Note_on_c, 0, 62, 0
3, 119399, Note_on_c, 0, 64, 107
3, 119520, Note_on_c, 0, 64, 0
3, 119520, Note_on_c, 0, 76, 0
3, 119520, Note_on_c, 0, 86, 0
3, 119520, Note_on_c, 0, 83, 0
3, 119520, Note_on_c, 0, 88, 0
3, 119520, Note_on_c, 0, 74, 117
3, 119520, Note_on_c, 0, 86, 117
3, 119520, Note_on_c, 0, 79, 49
3, 119520, Note_on_c, 0, 83, 49
3, 119520, Note_on_c, 0, 66, 111
3, 119640, Note_on_c, 0, 66, 0
3, 119640, Note_on_c, 0, 64, 96
3, 119759, Note_on_c, 0, 64, 0
3, 119759, Note_on_c, 0, 62, 103
3, 119880, Note_on_c, 0, 62, 0
3, 119880, Note_on_c, 0, 74, 0
3, 119880, Note_on_c, 0, 86, 0
3, 119880, Note_on_c, 0, 71, 117
3, 119880, Note_on_c, 0, 83, 117
3, 119880, Note_on_c, 0, 59, 95
3, 120000, Note_on_c, 0, 59, 0
3, 120000, Note_on_c, 0, 57, 92
3, 120119, Note_on_c, 0, 57, 0
3, 120119, Note_on_c, 0, 55, 100
3, 120240, Note_on_c, 0, 55, 0
3, 120240, Note_on_c, 0, 71, 0
3, 120240, Note_on_c, 0, 83, 0
3, 120240, Note_on_c, 0, 79, 0
3, 120240, Note_on_c, 0, 83, 0
3, 120240, Note_on_c, 0, 66, 107
3, 120240, Note_on_c, 0, 78, 107
3, 120240, Note_on_c, 0, 74, 27
3, 120240, Note_on_c, 0, 62, 116
3, 120360, Note_on_c, 0, 62, 0
3, 120360, Note_on_c, 0, 59, 106
3, 120479, Note_on_c, 0, 59, 0
3, 120479, Note_on_c, 0, 57, 96
3, 120600, Note_on_c, 0, 57, 0
3, 120600, Note_on_c, 0, 66, 0
3, 120600, Note_on_c, 0, 78, 0
3, 120600, Note_on_c, 0, 67, 104
3, 120600, Note_on_c, 0, 79, 104
3, 120600, Note_on_c, 0, 55, 97
3, 120720, Note_on_c, 0, 55, 0
3, 120720, Note_on_c, 0, 54, 99
3, 120839, Note_on_c, 0, 54, 0
3, 120839, Note_on_c, 0, 52, 97
3, 120960, Note_on_c, 0, 52, 0
3, 120960, Note_on_c, 0, 74, 0
3, 120960, Note_on_c, 0, 67, 0
3, 120960, Note_on_c, 0, 79, 0
3, 120960, Note_on_c, 0, 71, 117
3, 120960, Note_on_c, 0, 83, 117
3, 120960, Note_on_c, 0, 79, 43
3, 120960, Note_on_c, 0, 55, 111
3, 121080, Note_on_c, 0, 55, 0
3, 121080, Note_on_c, 0, 54, 100
3, 121199, Note_on_c, 0, 54, 0
3, 121199, Note_on_c, 0, 52, 105
3, 121320, Note_on_c, 0, 52, 0
3, 121320, Note_on_c, 0, 71, 0
3, 121320, Note_on_c, 0, 83, 0
3, 121320, Note_on_c, 0, 73, 117
3, 121320, Note_on_c, 0, 85, 117
3, 121320, Note_on_c, 0, 52, 100
3, 121440, Note_on_c, 0, 52, 0
3, 121440, Note_on_c, 0, 47, 96
3, 121559, Note_on_c, 0, 47, 0
3, 121559, Note_on_c, 0, 45, 96
3, 121680, Note_on_c, 0, 45, 0
3, 121680, Note_on_c, 0, 79, 0
3, 121680, Note_on_c, 0, 73, 0
3, 121680, Note_on_c, 0, 85, 0
3, 121680, Note_on_c, 0, 74, 117
3, 121680, Note_on_c, 0, 78, 117
3, 121680, Note_on_c, 0, 81, 117
3, 121680, Note_on_c, 0, 86, 117
3, 121680, Note_on_c, 0, 38, 117
3, 121680, Note_on_c, 0, 42, 117
3, 121680, Note_on_c, 0, 45, 117
3, 121680, Note_on_c, 0, 50, 117
3, 122040, Note_on_c, 0, 50, 0
3, 122040, Note_on_c, 0, 74, 0
3, 122040, Note_on_c, 0, 38, 0
3, 122040, Note_on_c, 0, 78, 0
3, 122040, Note_on_c, 0, 81, 0
3, 122040, Note_on_c, 0, 86, 0
3, 122040, Note_on_c, 0, 42, 0
3, 122040, Note_on_c, 0, 45, 0
3, 122040, Note_on_c, 0, 62, 76
3, 122040, Note_on_c, 0, 38, 103
3, 122040, Note_on_c, 0, 50, 103
3, 122160, Note_on_c, 0, 62, 0
3, 122160, Note_on_c, 0, 64, 105
3, 122279, Note_on_c, 0, 64, 0
3, 122279, Note_on_c, 0, 66, 108
3, 122400, Note_on_c, 0, 66, 0
3, 122400, Note_on_c, 0, 50, 0
3, 122400, Note_on_c, 0, 38, 0
3, 122400, Note_on_c, 0, 54, 117
3, 122400, Note_on_c, 0, 62, 117
3, 122400, Note_on_c, 0, 66, 117
3, 122400, Note_on_c, 0, 37, 97
3, 122400, Note_on_c, 0, 49, 97
3, 122760, Note_on_c, 0, 49, 0
3, 122760, Note_on_c, 0, 37, 0
3, 122760, Note_on_c, 0, 38, 105
3, 122760, Note_on_c, 0, 50, 105
3, 123120, Note_on_c, 0, 50, 0
3, 123120, Note_on_c, 0, 38, 0
3, 123120, Note_on_c, 0, 37, 103
3, 123120, Note_on_c, 0, 49, 103
3, 123359, Note_on_c, 0, 66, 0
3, 123359, Note_on_c, 0, 54, 0
3, 123359, Note_on_c, 0, 62, 0
3, 123359, Note_on_c, 0, 69, 113
3, 123480, Note_on_c, 0, 69, 0
3, 123480, Note_on_c, 0, 37, 0
3, 123480, Note_on_c, 0, 49, 0
3, 123480, Note_on_c, 0, 59, 110
3, 123480, Note_on_c, 0, 62, 110
3, 123480, Note_on_c, 0, 66, 110
3, 123480, Note_on_c, 0, 71, 110
3, 123480, Note_on_c, 0, 35, 97
3, 123480, Note_on_c, 0, 47, 97
3, 123840, Note_on_c, 0, 47, 0
3, 123840, Note_on_c, 0, 35, 0
3, 123840, Note_on_c, 0, 33, 99
3, 123840, Note_on_c, 0, 45, 99
3, 124079, Note_on_c, 0, 66, 0
3, 124079, Note_on_c, 0, 71, 0
3, 124079, Note_on_c, 0, 59, 0
3, 124079, Note_on_c, 0, 62, 0
3, 124079, Note_on_c, 0, 73, 108
3, 124200, Note_on_c, 0, 73, 0
3, 124200, Note_on_c, 0, 45, 0
3, 124200, Note_on_c, 0, 33, 0
3, 124200, Note_on_c, 0, 62, 110
3, 124200, Note_on_c, 0, 69, 110
3, 124200, Note_on_c, 0, 74, 110
3, 124200, Note_on_c, 0, 30, 101
3, 124200, Note_on_c, 0, 42, 101
3, 124439, Note_on_c, 0, 74, 0
3, 124439, Note_on_c, 0, 62, 0
3, 124439, Note_on_c, 0, 69, 0
3, 124439, Note_on_c, 0, 76, 111
3, 124560, Note_on_c, 0, 76, 0
3, 124560, Note_on_c, 0, 30, 0
3, 124560, Note_on_c, 0, 42, 0
3, 124560, Note_on_c, 0, 66, 117
3, 124560, Note_on_c, 0, 74, 117
3, 124560, Note_on_c, 0, 78, 117
3, 124560, Control_c, 0, 64, 127
3, 124560, Note_on_c, 0, 47, 116
3, 124560, Note_on_c, 0, 59, 116
3, 124680, Note_on_c, 0, 78, 0
3, 124680, Note_on_c, 0, 66, 0
3, 124680, Note_on_c, 0, 74, 0
3, 124680, Note_on_c, 0, 54, 92
3, 124799, Note_on_c, 0, 54, 0
3, 124799, Note_on_c, 0, 62, 116
3, 124920, Note_on_c, 0, 62, 0
3, 124920, Note_on_c, 0, 47, 0
3, 124920, Note_on_c, 0, 59, 0
3, 124920, Note_on_c, 0, 66, 117
3, 124920, Control_c, 0, 64, 0
3, 124920, Control_c, 0, 64, 127
3, 124920, Note_on_c, 0, 45, 100
3, 124920, Note_on_c, 0, 57, 100
3, 125040, Note_on_c, 0, 66, 0
3, 125040, Note_on_c, 0, 57, 92
3, 125159, Note_on_c, 0, 57, 0
3, 125159, Note_on_c, 0, 62, 115
3, 125280, Note_on_c, 0, 62, 0
3, 125280, Note_on_c, 0, 57, 0
3, 125280, Note_on_c, 0, 45, 0
3, 125280, Note_on_c, 0, 66, 117
3, 125280, Note_on_c, 0, 69, 117
3, 125280, Control_c, 0, 64, 0
3, 125280, Control_c, 0, 64, 127
3, 125280, Note_on_c, 0, 42, 97
3, 125280, Note_on_c, 0, 54, 97
3, 125400, Note_on_c, 0, 69, 0
3, 125400, Note_on_c, 0, 66, 0
3, 125400, Note_on_c, 0, 62, 80
3, 125519, Note_on_c, 0, 62, 0
3, 125519, Note_on_c, 0, 66, 113
3, 125640, Note_on_c, 0, 66, 0
3, 125640, Note_on_c, 0, 42, 0
3, 125640, Note_on_c, 0, 54, 0
3, 125640, Note_on_c, 0, 69, 117
3, 125640, Note_on_c, 0, 74, 117
3, 125640, Control_c, 0, 64, 0
3, 125640, Control_c, 0, 64, 127
3, 125640, Note_on_c, 0, 38, 97
3, 125640, Note_on_c, 0, 50, 97
3, 125760, Note_on_c, 0, 74, 0
3, 125760, Note_on_c, 0, 69, 0
3, 125760, Note_on_c, 0, 66, 83
3, 125879, Note_on_c, 0, 66, 0
3, 125879, Note_on_c, 0, 69, 109
3, 126000, Note_on_c, 0, 69, 0
3, 126000, Note_on_c, 0, 38, 0
3, 126000, Note_on_c, 0, 50, 0
3, 126000, Note_on_c, 0, 74, 117
3, 126000, Note_on_c, 0, 78, 117
3, 126000, Control_c, 0, 64, 0
3, 126120, Note_on_c, 0, 78, 0
3, 126120, Note_on_c, 0, 74, 0
3, 126120, Note_on_c, 0, 71, 86
3, 126239, Note_on_c, 0, 71, 0
3, 126239, Note_on_c, 0, 74, 109
3, 126360, Note_on_c, 0, 74, 0
3, 126360, Note_on_c, 0, 71, 117
3, 126360, Note_on_c, 0, 74, 117
3, 126360, Note_on_c, 0, 78, 117
3, 126360, Note_on_c, 0, 83, 117
3, 126360, Note_on_c, 0, 56, 115
3, 126360, Note_on_c, 0, 59, 115
3, 126360, Note_on_c, 0, 62, 115
3, 126360, Note_on_c, 0, 66, 115
3, 127080, Note_on_c, 0, 66, 0
3, 127080, Note_on_c, 0, 71, 0
3, 127080, Note_on_c, 0, 56, 0
3, 127080, Note_on_c, 0, 74, 0
3, 127080, Note_on_c, 0, 78, 0
3, 127080, Note_on_c, 0, 83, 0
3, 127080, Note_on_c, 0, 59, 0
3, 127080, Note_on_c, 0, 62, 0
3, 127080, Note_on_c, 0, 67, 117
3, 127080, Note_on_c, 0, 69, 117
3, 127080, Note_on_c, 0, 73, 117
3, 127080, Note_on_c, 0, 76, 117
3, 127080, Note_on_c, 0, 81, 117
3, 127080, Note_on_c, 0, 55, 117
3, 127080, Note_on_c, 0, 57, 117
3, 127080, Note_on_c, 0, 61, 117
3, 127080, Note_on_c, 0, 64, 117
3, 127260, Note_on_c, 0, 64, 0
3, 127260, Note_on_c, 0, 76, 0
3, 127260, Note_on_c, 0, 67, 0
3, 127260, Note_on_c, 0, 81, 0
3, 127260, Note_on_c, 0, 69, 0
3, 127260, Note_on_c, 0, 73, 0
3, 127260, Note_on_c, 0, 57, 0
3, 127260, Note_on_c, 0, 55, 0
3, 127260, Note_on_c, 0, 61, 0
3, 127440, Note_on_c, 0, 62, 117
3, 127440, Note_on_c, 0, 66, 117
3, 127440, Note_on_c, 0, 69, 117
3, 127440, Note_on_c, 0, 74, 117
3, 127440, Note_on_c, 0, 38, 113
3, 127440, Note_on_c, 0, 42, 113
3, 127440, Note_on_c, 0, 45, 113
3, 127440, Note_on_c, 0, 50, 113
3, 127620, Note_on_c, 0, 50, 0
3, 127620, Note_on_c, 0, 62, 0
3, 127620, Note_on_c, 0, 38, 0
3, 127620, Note_on_c, 0, 66, 0
3, 127620, Note_on_c, 0, 69, 0
3, 127620, Note_on_c, 0, 74, 0
3, 127620, Note_on_c, 0, 42, 0
3, 127620, Note_on_c, 0, 45, 0
3, 127800, Note_on_c, 0, 45, 45
3, 127920, Note_on_c, 0, 45, 0
3, 127920, Note_on_c, 0, 43, 47
3, 128039, Note_on_c, 0, 43, 0
3, 128039, Note_on_c, 0, 42, 46
3, 128160, Note_on_c, 0, 42, 0
3, 128160, Note_on_c, 0, 42, 50
3, 128280, Note_on_c, 0, 42, 0
3, 128280, Note_on_c, 0, 40, 46
3, 128399, Note_on_c, 0, 40, 0
3, 128399, Note_on_c, 0, 38, 48
3, 128520, Note_on_c, 0, 52, 45
3, 128520, Note_on_c, 0, 55, 45
3, 128520, Note_on_c, 0, 62, 45
3, 128520, Note_on_c, 0, 45, 55
3, 128699, Note_on_c, 0, 62, 0
3, 128699, Note_on_c, 0, 55, 0
3, 128699, Note_on_c, 0, 52, 0
3, 128759, Note_on_c, 0, 38, 0
3, 128759, Note_on_c, 0, 45, 0
3, 128759, Note_on_c, 0, 47, 49
3, 128880, Note_on_c, 0, 47, 0
3, 128880, Note_on_c, 0, 50, 49
3, 128880, Note_on_c, 0, 54, 49
3, 128880, Note_on_c, 0, 62, 49
3, 128880, Note_on_c, 0, 38, 72
3, 128880, Note_on_c, 0, 45, 72
3, 129059, Note_on_c, 0, 62, 0
3, 129059, Note_on_c, 0, 50, 0
3, 129059, Note_on_c, 0, 54, 0
3, 129360, Note_on_c, 0, 38, 0
3, 129360, Note_on_c, 0, 45, 0
3, 129360, Note_on_c, 0, 43, 45
3, 129479, Note_on_c, 0, 43, 0
3, 129479, Note_on_c, 0, 42, 46
3, 129600, Note_on_c, 0, 42, 0
3, 129600, Note_on_c, 0, 42, 59
3, 129720, Note_on_c, 0, 42, 0
3, 129720, Note_on_c, 0, 40, 49
3, 129839, Note_on_c, 0, 40, 0
3, 129839, Note_on_c, 0, 38, 49
3, 129960, Note_on_c, 0, 38, 0
3, 129960, Note_on_c, 0, 52, 48
3, 129960, Note_on_c, 0, 55, 48
3, 129960, Note_on_c, 0, 62, 48
3, 129960, Note_on_c, 0, 38, 59
3, 129960, Note_on_c, 0, 45, 59
3, 130139, Note_on_c, 0, 62, 0
3, 130139, Note_on_c, 0, 52, 0
3, 130139, Note_on_c, 0, 55, 0
3, 130199, Note_on_c, 0, 38, 0
3, 130199, Note_on_c, 0, 45, 0
3, 130199, Note_on_c, 0, 46, 54
3, 130320, Note_on_c, 0, 46, 0
3, 130320, Note_on_c, 0, 50, 51
3, 130320, Note_on_c, 0, 53, 51
3, 130320, Note_on_c, 0, 62, 51
3, 130320, Note_on_c, 0, 38, 72
3, 130320, Note_on_c, 0, 45, 72
3, 130499, Note_on_c, 0, 62, 0
3, 130499, Note_on_c, 0, 50, 0
3, 130499, Note_on_c, 0, 53, 0
3, 130800, Note_on_c, 0, 38, 0
3, 130800, Note_on_c, 0, 45, 0
3, 130800, Note_on_c, 0, 43, 45
3, 130919, Note_on_c, 0, 43, 0
3, 130919, Note_on_c, 0, 41, 50
3, 131040, Note_on_c, 0, 41, 0
3, 131040, Note_on_c, 0, 41, 54
3, 131160, Note_on_c, 0, 41, 0
3, 131160, Note_on_c, 0, 40, 52
3, 131279, Note_on_c, 0, 40, 0
3, 131279, Note_on_c, 0, 38, 50
3, 131400, Note_on_c, 0, 53, 44
3, 131400, Note_on_c, 0, 65, 44
3, 131400, Note_on_c, 0, 45, 58
3, 131520, Note_on_c, 0, 65, 0
3, 131520, Note_on_c, 0, 53, 0
3, 131520, Note_on_c, 0, 64, 44
3, 131639, Note_on_c, 0, 64, 0
3, 131639, Note_on_c, 0, 38, 0
3, 131639, Note_on_c, 0, 45, 0
3, 131639, Note_on_c, 0, 62, 46
3, 131639, Note_on_c, 0, 46, 53
3, 131760, Note_on_c, 0, 46, 0
3, 131760, Note_on_c, 0, 62, 0
3, 131760, Note_on_c, 0, 53, 50
3, 131760, Note_on_c, 0, 62, 50
3, 131760, Note_on_c, 0, 38, 70
3, 131760, Note_on_c, 0, 45, 70
3, 131939, Note_on_c, 0, 62, 0
3, 131939, Note_on_c, 0, 53, 0
3, 132240, Note_on_c, 0, 38, 0
3, 132240, Note_on_c, 0, 45, 0
3, 132240, Note_on_c, 0, 43, 48
3, 132359, Note_on_c, 0, 43, 0
3, 132359, Note_on_c, 0, 41, 50
3, 132480, Note_on_c, 0, 41, 0
3, 132480, Note_on_c, 0, 41, 50
3, 132600, Note_on_c, 0, 41, 0
3, 132600, Note_on_c, 0, 40, 48
3, 132719, Note_on_c, 0, 40, 0
3, 132719, Note_on_c, 0, 38, 44
3, 132840, Note_on_c, 0, 53, 42
3, 132840, Note_on_c, 0, 65, 42
3, 132840, Note_on_c, 0, 45, 55
3, 132960, Note_on_c, 0, 65, 0
3, 132960, Note_on_c, 0, 53, 0
3, 132960, Note_on_c, 0, 64, 45
3, 133079, Note_on_c, 0, 64, 0
3, 133079, Note_on_c, 0, 38, 0
3, 133079, Note_on_c, 0, 45, 0
3, 133079, Note_on_c, 0, 62, 46
3, 133079, Note_on_c, 0, 46, 52
3, 133200, Note_on_c, 0, 46, 0
3, 133200, Note_on_c, 0, 62, 0
3, 133200, Note_on_c, 0, 53, 51
3, 133200, Note_on_c, 0, 62, 51
3, 133200, Note_on_c, 0, 45, 49
3, 133200, Note_on_c, 0, 38, 44
3, 133320, Note_on_c, 0, 62, 0
3, 133320, Note_on_c, 0, 53, 0
3, 133320, Note_on_c, 0, 53, 43
3, 133439, Note_on_c, 0, 53, 0
3, 133439, Note_on_c, 0, 57, 49
3, 133560, Note_on_c, 0, 57, 0
3, 133560, Note_on_c, 0, 45, 0
3, 133560, Note_on_c, 0, 53, 54
3, 133560, Note_on_c, 0, 58, 54
3, 133560, Note_on_c, 0, 50, 56
3, 133920, Note_on_c, 0, 50, 0
3, 133920, Note_on_c, 0, 48, 50
3, 134040, Note_on_c, 0, 58, 0
3, 134040, Note_on_c, 0, 53, 0
3, 134040, Note_on_c, 0, 57, 50
3, 134159, Note_on_c, 0, 57, 0
3, 134159, Note_on_c, 0, 53, 48
3, 134280, Note_on_c, 0, 53, 0
3, 134280, Note_on_c, 0, 48, 0
3, 134280, Note_on_c, 0, 55, 52
3, 134280, Note_on_c, 0, 46, 44
3, 134400, Note_on_c, 0, 55, 0
3, 134400, Note_on_c, 0, 53, 50
3, 134519, Note_on_c, 0, 53, 0
3, 134519, Note_on_c, 0, 50, 49
3, 134640, Note_on_c, 0, 50, 0
3, 134640, Note_on_c, 0, 46, 0
3, 134640, Note_on_c, 0, 38, 0
3, 134640, Note_on_c, 0, 53, 52
3, 134640, Note_on_c, 0, 45, 49
3, 134640, Note_on_c, 0, 38, 44
3, 134760, Note_on_c, 0, 53, 0
3, 134760, Note_on_c, 0, 50, 49
3, 134879, Note_on_c, 0, 50, 0
3, 134879, Note_on_c, 0, 53, 56
3, 135000, Note_on_c, 0, 53, 0
3, 135000, Note_on_c, 0, 45, 0
3, 135000, Note_on_c, 0, 50, 50
3, 135000, Note_on_c, 0, 55, 50
3, 135000, Note_on_c, 0, 46, 50
3, 135360, Note_on_c, 0, 46, 0
3, 135360, Note_on_c, 0, 45, 48
3, 135480, Note_on_c, 0, 55, 0
3, 135480, Note_on_c, 0, 50, 0
3, 135480, Note_on_c, 0, 53, 50
3, 135599, Note_on_c, 0, 53, 0
3, 135599, Note_on_c, 0, 50, 53
3, 135720, Note_on_c, 0, 50, 0
3, 135720, Note_on_c, 0, 45, 0
3, 135720, Note_on_c, 0, 52, 50
3, 135720, Note_on_c, 0, 43, 46
3, 135840, Note_on_c, 0, 52, 0
3, 135840, Note_on_c, 0, 50, 50
3, 135959, Note_on_c, 0, 50, 0
3, 135959, Note_on_c, 0, 49, 48
3, 136080, Note_on_c, 0, 49, 0
3, 136080, Note_on_c, 0, 43, 0
3, 136080, Note_on_c, 0, 38, 0
3, 136080, Note_on_c, 0, 50, 54
3, 136080, Note_on_c, 0, 38, 46
3, 136080, Note_on_c, 0, 42, 46
3, 136440, Note_on_c, 0, 42, 0
3, 136440, Note_on_c, 0, 38, 0
3, 136440, Note_on_c, 0, 50, 0
3, 136440, Note_on_c, 0, 45, 71
3, 136560, Note_on_c, 0, 45, 0
3, 136560, Note_on_c, 0, 43, 51
3, 136679, Note_on_c, 0, 43, 0
3, 136679, Note_on_c, 0, 42, 54
3, 136800, Note_on_c, 0, 42, 0
3, 136800, Note_on_c, 0, 42, 75
3, 136920, Note_on_c, 0, 42, 0
3, 136920, Note_on_c, 0, 39, 50
3, 137039, Note_on_c, 0, 39, 0
3, 137039, Note_on_c, 0, 38, 53
3, 137160, Note_on_c, 0, 66, 71
3, 137160, Note_on_c, 0, 72, 71
3, 137160, Note_on_c, 0, 78, 71
3, 137160, Note_on_c, 0, 45, 53
3, 137280, Note_on_c, 0, 78, 0
3, 137280, Note_on_c, 0, 72, 0
3, 137280, Note_on_c, 0, 66, 0
3, 137280, Note_on_c, 0, 75, 44
3, 137399, Note_on_c, 0, 75, 0
3, 137399, Note_on_c, 0, 38, 0
3, 137399, Note_on_c, 0, 45, 0
3, 137399, Note_on_c, 0, 74, 47
3, 137399, Note_on_c, 0, 46, 49
3, 137520, Note_on_c, 0, 46, 0
3, 137520, Note_on_c, 0, 74, 0
3, 137520, Note_on_c, 0, 66, 75
3, 137520, Note_on_c, 0, 72, 75
3, 137520, Note_on_c, 0, 74, 75
3, 137520, Note_on_c, 0, 38, 74
3, 137520, Note_on_c, 0, 45, 74
3, 137880, Note_on_c, 0, 74, 0
3, 137880, Note_on_c, 0, 66, 0
3, 137880, Note_on_c, 0, 72, 0
3, 138000, Note_on_c, 0, 38, 0
3, 138000, Note_on_c, 0, 45, 0
3, 138000, Note_on_c, 0, 43, 53
3, 138119, Note_on_c, 0, 43, 0
3, 138119, Note_on_c, 0, 42, 49
3, 138240, Note_on_c, 0, 42, 0
3, 138240, Note_on_c, 0, 42, 50
3, 138360, Note_on_c, 0, 42, 0
3, 138360, Note_on_c, 0, 39, 45
3, 138479, Note_on_c, 0, 39, 0
3, 138479, Note_on_c, 0, 38, 49
3, 138600, Note_on_c, 0, 54, 49
3, 138600, Note_on_c, 0, 60, 49
3, 138600, Note_on_c, 0, 66, 49
3, 138600, Note_on_c, 0, 45, 57
3, 138720, Note_on_c, 0, 66, 0
3, 138720, Note_on_c, 0, 60, 0
3, 138720, Note_on_c, 0, 54, 0
3, 138720, Note_on_c, 0, 63, 40
3, 138839, Note_on_c, 0, 63, 0
3, 138839, Note_on_c, 0, 38, 0
3, 138839, Note_on_c, 0, 45, 0
3, 138839, Note_on_c, 0, 62, 50
3, 138839, Note_on_c, 0, 46, 53
3, 138960, Note_on_c, 0, 46, 0
3, 138960, Note_on_c, 0, 62, 0
3, 138960, Note_on_c, 0, 54, 55
3, 138960, Note_on_c, 0, 60, 55
3, 138960, Note_on_c, 0, 62, 55
3, 138960, Note_on_c, 0, 45, 40
3, 138960, Note_on_c, 0, 38, 48
3, 139080, Note_on_c, 0, 62, 0
3, 139080, Note_on_c, 0, 54, 0
3, 139080, Note_on_c, 0, 60, 0
3, 139080, Note_on_c, 0, 54, 47
3, 139199, Note_on_c, 0, 54, 0
3, 139199, Note_on_c, 0, 57, 50
3, 139320, Note_on_c, 0, 57, 0
3, 139320, Note_on_c, 0, 45, 0
3, 139320, Note_on_c, 0, 54, 51
3, 139320, Note_on_c, 0, 58, 51
3, 139320, Note_on_c, 0, 50, 53
3, 139680, Note_on_c, 0, 50, 0
3, 139680, Note_on_c, 0, 48, 49
3, 139800, Note_on_c, 0, 58, 0
3, 139800, Note_on_c, 0, 54, 0
3, 139800, Note_on_c, 0, 57, 46
3, 139919, Note_on_c, 0, 57, 0
3, 139919, Note_on_c, 0, 54, 50
3, 140040, Note_on_c, 0, 54, 0
3, 140040, Note_on_c, 0, 48, 0
3, 140040, Note_on_c, 0, 55, 52
3, 140040, Note_on_c, 0, 46, 47
3, 140160, Note_on_c, 0, 55, 0
3, 140160, Note_on_c, 0, 54, 52
3, 140279, Note_on_c, 0, 54, 0
3, 140279, Note_on_c, 0, 50, 47
3, 140400, Note_on_c, 0, 50, 0
3, 140400, Note_on_c, 0, 46, 0
3, 140400, Note_on_c, 0, 38, 0
3, 140400, Note_on_c, 0, 54, 52
3, 140400, Note_on_c, 0, 45, 49
3, 140400, Note_on_c, 0, 38, 47
3, 140520, Note_on_c, 0, 54, 0
3, 140520, Note_on_c, 0, 57, 51
3, 140639, Note_on_c, 0, 57, 0
3, 140639, Note_on_c, 0, 58, 51
3, 140760, Note_on_c, 0, 58, 0
3, 140760, Note_on_c, 0, 45, 0
3, 140760, Note_on_c, 0, 54, 50
3, 140760, Note_on_c, 0, 58, 50
3, 140760, Note_on_c, 0, 50, 54
3, 140999, Note_on_c, 0, 58, 0
3, 140999, Note_on_c, 0, 54, 0
3, 140999, Note_on_c, 0, 57, 50
3, 141120, Note_on_c, 0, 57, 0
3, 141120, Note_on_c, 0, 50, 0
3, 141120, Note_on_c, 0, 53, 49
3, 141120, Note_on_c, 0, 56, 49
3, 141120, Note_on_c, 0, 48, 50
3, 141240, Note_on_c, 0, 56, 0
3, 141240, Note_on_c, 0, 53, 0
3, 141240, Note_on_c, 0, 60, 60
3, 141359, Note_on_c, 0, 60, 0
3, 141359, Note_on_c, 0, 62, 52
3, 141480, Note_on_c, 0, 62, 0
3, 141480, Note_on_c, 0, 38, 0
3, 141480, Note_on_c, 0, 48, 0
3, 141480, Note_on_c, 0, 55, 61
3, 141480, Note_on_c, 0, 67, 61
3, 141480, Note_on_c, 0, 47, 52
3, 141480, Note_on_c, 0, 43, 56
3, 141719, Note_on_c, 0, 47, 0
3, 141719, Note_on_c, 0, 43, 40
3, 141840, Note_on_c, 0, 43, 0
3, 141840, Note_on_c, 0, 43, 0
3, 141840, Note_on_c, 0, 67, 0
3, 141840, Note_on_c, 0, 55, 0
3, 141840, Note_on_c, 0, 63, 44
3, 141840, Note_on_c, 0, 60, 29
3, 141840, Note_on_c, 0, 36, 52
3, 141840, Note_on_c, 0, 48, 52
3, 141960, Note_on_c, 0, 63, 0
3, 141960, Note_on_c, 0, 67, 59
3, 142020, Note_on_c, 0, 60, 0
3, 142020, Note_on_c, 0, 48, 0
3, 142020, Note_on_c, 0, 36, 0
3, 142079, Note_on_c, 0, 67, 0
3, 142079, Note_on_c, 0, 68, 53
3, 142200, Note_on_c, 0, 68, 0
3, 142200, Note_on_c, 0, 68, 62
3, 142200, Note_on_c, 0, 59, 33
3, 142200, Note_on_c, 0, 44, 46
3, 142200, Note_on_c, 0, 51, 46
3, 142380, Note_on_c, 0, 51, 0
3, 142380, Note_on_c, 0, 44, 0
3, 142380, Note_on_c, 0, 59, 0
3, 142560, Note_on_c, 0, 58, 36
3, 142560, Note_on_c, 0, 39, 50
3, 142560, Note_on_c, 0, 51, 50
3, 142680, Note_on_c, 0, 68, 0
3, 142680, Note_on_c, 0, 67, 50
3, 142740, Note_on_c, 0, 58, 0
3, 142740, Note_on_c, 0, 51, 0
3, 142740, Note_on_c, 0, 39, 0
3, 142799, Note_on_c, 0, 67, 0
3, 142799, Note_on_c, 0, 63, 45
3, 142920, Note_on_c, 0, 63, 0
3, 142920, Note_on_c, 0, 65, 56
3, 142920, Note_on_c, 0, 59, 33
3, 142920, Note_on_c, 0, 44, 42
3, 142920, Note_on_c, 0, 51, 42
3, 143040, Note_on_c, 0, 51, 0
3, 143040, Note_on_c, 0, 44, 0
3, 143040, Note_on_c, 0, 65, 0
3, 143040, Note_on_c, 0, 63, 46
3, 143100, Note_on_c, 0, 59, 0
3, 143159, Note_on_c, 0, 63, 0
3, 143159, Note_on_c, 0, 65, 55
3, 143159, Note_on_c, 0, 43, 49
3, 143280, Note_on_c, 0, 43, 0
3, 143280, Note_on_c, 0, 65, 0
3, 143280, Note_on_c, 0, 63, 47
3, 143280, Note_on_c, 0, 60, 38
3, 143280, Note_on_c, 0, 36, 49
3, 143280, Note_on_c, 0, 48, 49
3, 143400, Note_on_c, 0, 63, 0
3, 143400, Note_on_c, 0, 67, 63
3, 143460, Note_on_c, 0, 60, 0
3, 143460, Note_on_c, 0, 48, 0
3, 143460, Note_on_c, 0, 36, 0
3, 143519, Note_on_c, 0, 67, 0
3, 143519, Note_on_c, 0, 68, 56
3, 143640, Note_on_c, 0, 68, 0
3, 143640, Note_on_c, 0, 68, 60
3, 143640, Note_on_c, 0, 59, 39
3, 143640, Note_on_c, 0, 44, 43
3, 143640, Note_on_c, 0, 51, 43
3, 143820, Note_on_c, 0, 51, 0
3, 143820, Note_on_c, 0, 44, 0
3, 143820, Note_on_c, 0, 59, 0
3, 144000, Note_on_c, 0, 58, 32
3, 144000, Note_on_c, 0, 39, 43
3, 144000, Note_on_c, 0, 51, 43
3, 144120, Note_on_c, 0, 68, 0
3, 144120, Note_on_c, 0, 67, 44
3, 144180, Note_on_c, 0, 58, 0
3, 144180, Note_on_c, 0, 51, 0
3, 144180, Note_on_c, 0, 39, 0
3, 144239, Note_on_c, 0, 67, 0
3, 144239, Note_on_c, 0, 63, 43
3, 144360, Note_on_c, 0, 63, 0
3, 144360, Note_on_c, 0, 65, 53
3, 144360, Note_on_c, 0, 59, 38
3, 144360, Note_on_c, 0, 44, 45
3, 144360, Note_on_c, 0, 51, 45
3, 144480, Note_on_c, 0, 51, 0
3, 144480, Note_on_c, 0, 44, 0
3, 144480, Note_on_c, 0, 65, 0
3, 144480, Note_on_c, 0, 63, 48
3, 144540, Note_on_c, 0, 59, 0
3, 144599, Note_on_c, 0, 63, 0
3, 144599, Note_on_c, 0, 65, 52
3, 144599, Note_on_c, 0, 43, 36
3, 144720, Note_on_c, 0, 43, 0
3, 144720, Note_on_c, 0, 65, 0
3, 144720, Note_on_c, 0, 60, 46
3, 144720, Note_on_c, 0, 63, 46
3, 144720, Note_on_c, 0, 36, 52
3, 144720, Note_on_c, 0, 48, 52
3, 144840, Note_on_c, 0, 63, 0
3, 144840, Note_on_c, 0, 60, 0
3, 144840, Note_on_c, 0, 67, 57
3, 144900, Note_on_c, 0, 36, 0
3, 144900, Note_on_c, 0, 48, 0
3, 144959, Note_on_c, 0, 67, 0
3, 144959, Note_on_c, 0, 68, 52
3, 145080, Note_on_c, 0, 68, 0
3, 145080, Note_on_c, 0, 63, 69
3, 145080, Note_on_c, 0, 72, 69
3, 145080, Note_on_c, 0, 54, 43
3, 145200, Note_on_c, 0, 54, 0
3, 145200, Note_on_c, 0, 55, 51
3, 145319, Note_on_c, 0, 55, 0
3, 145319, Note_on_c, 0, 59, 55
3, 145397, Note_on_c, 0, 72, 0
3, 145397, Note_on_c, 0, 63, 0
3, 145440, Note_on_c, 0, 59, 0
3, 145440, Note_on_c, 0, 63, 40
3, 145440, Note_on_c, 0, 67, 40
3, 145440, Note_on_c, 0, 60, 56
3, 145560, Note_on_c, 0, 60, 0
3, 145560, Note_on_c, 0, 62, 56
3, 145679, Note_on_c, 0, 62, 0
3, 145679, Note_on_c, 0, 63, 52
3, 145800, Note_on_c, 0, 63, 0
3, 145800, Note_on_c, 0, 67, 0
3, 145800, Note_on_c, 0, 63, 0
3, 145800, Note_on_c, 0, 75, 77
3, 145800, Note_on_c, 0, 79, 77
3, 145800, Note_on_c, 0, 59, 46
3, 145920, Note_on_c, 0, 59, 0
3, 145920, Note_on_c, 0, 60, 54
3, 146039, Note_on_c, 0, 60, 0
3, 146039, Note_on_c, 0, 62, 54
3, 146117, Note_on_c, 0, 79, 0
3, 146117, Note_on_c, 0, 75, 0
3, 146160, Note_on_c, 0, 62, 0
3, 146160, Note_on_c, 0, 67, 41
3, 146160, Note_on_c, 0, 72, 41
3, 146160, Note_on_c, 0, 63, 55
3, 146280, Note_on_c, 0, 63, 0
3, 146280, Note_on_c, 0, 66, 60
3, 146399, Note_on_c, 0, 66, 0
3, 146399, Note_on_c, 0, 67, 53
3, 146520, Note_on_c, 0, 67, 0
3, 146520, Note_on_c, 0, 72, 0
3, 146520, Note_on_c, 0, 67, 0
3, 146520, Note_on_c, 0, 79, 75
3, 146520, Note_on_c, 0, 84, 75
3, 146520, Note_on_c, 0, 62, 39
3, 146640, Note_on_c, 0, 62, 0
3, 146640, Note_on_c, 0, 63, 49
3, 146759, Note_on_c, 0, 63, 0
3, 146759, Note_on_c, 0, 66, 54
3, 146837, Note_on_c, 0, 84, 0
3, 146837, Note_on_c, 0, 79, 0
3, 146880, Note_on_c, 0, 66, 0
3, 146880, Note_on_c, 0, 72, 44
3, 146880, Note_on_c, 0, 75, 44
3, 146880, Note_on_c, 0, 67, 53
3, 147000, Note_on_c, 0, 67, 0
3, 147000, Note_on_c, 0, 71, 57
3, 147119, Note_on_c, 0, 71, 0
3, 147119, Note_on_c, 0, 72, 55
3, 147240, Note_on_c, 0, 72, 0
3, 147240, Note_on_c, 0, 75, 0
3, 147240, Note_on_c, 0, 72, 0
3, 147240, Note_on_c, 0, 79, 56
3, 147240, Note_on_c, 0, 55, 45
3, 147360, Note_on_c, 0, 55, 0
3, 147360, Note_on_c, 0, 79, 0
3, 147360, Note_on_c, 0, 84, 60
3, 147360, Note_on_c, 0, 60, 56
3, 147479, Note_on_c, 0, 60, 0
3, 147479, Note_on_c, 0, 84, 0
3, 147479, Note_on_c, 0, 87, 54
3, 147479, Note_on_c, 0, 63, 55
3, 147600, Note_on_c, 0, 63, 0
3, 147600, Note_on_c, 0, 87, 0
3, 147600, Note_on_c, 0, 79, 63
3, 147600, Note_on_c, 0, 84, 63
3, 147600, Note_on_c, 0, 91, 63
3, 147600, Control_c, 0, 64, 127
3, 147600, Note_on_c, 0, 55, 82
3, 147600, Note_on_c, 0, 60, 82
3, 147600, Note_on_c, 0, 67, 82
3, 147780, Note_on_c, 0, 67, 0
3, 147780, Note_on_c, 0, 84, 0
3, 147780, Note_on_c, 0, 91, 0
3, 147780, Note_on_c, 0, 79, 0
3, 147780, Note_on_c, 0, 60, 0
3, 147780, Note_on_c, 0, 55, 0
3, 147780, Note_on_c, 0, 79, 48
3, 147780, Note_on_c, 0, 84, 48
3, 147780, Note_on_c, 0, 87, 48
3, 147780, Note_on_c, 0, 91, 48
3, 147780, Note_on_c, 0, 55, 49
3, 147780, Note_on_c, 0, 60, 49
3, 147780, Note_on_c, 0, 63, 49
3, 147780, Note_on_c, 0, 67, 49
3, 147960, Note_on_c, 0, 67, 0
3, 147960, Note_on_c, 0, 79, 0
3, 147960, Note_on_c, 0, 55, 0
3, 147960, Note_on_c, 0, 84, 0
3, 147960, Note_on_c, 0, 87, 0
3, 147960, Note_on_c, 0, 91, 0
3, 147960, Note_on_c, 0, 60, 0
3, 147960, Note_on_c, 0, 63, 0
3, 147960, Note_on_c, 0, 79, 50
3, 147960, Note_on_c, 0, 80, 50
3, 147960, Note_on_c, 0, 84, 50
3, 147960, Note_on_c, 0, 87, 50
3, 147960, Note_on_c, 0, 91, 50
3, 147960, Control_c, 0, 64, 0
3, 147960, Control_c, 0, 64, 127
3, 147960, Note_on_c, 0, 55, 50
3, 147960, Note_on_c, 0, 56, 50
3, 147960, Note_on_c, 0, 60, 50
3, 147960, Note_on_c, 0, 63, 50
3, 147960, Note_on_c, 0, 67, 50
3, 148140, Note_on_c, 0, 67, 0
3, 148140, Note_on_c, 0, 84, 0
3, 148140, Note_on_c, 0, 87, 0
3, 148140, Note_on_c, 0, 79, 0
3, 148140, Note_on_c, 0, 91, 0
3, 148140, Note_on_c, 0, 80, 0
3, 148140, Note_on_c, 0, 60, 0
3, 148140, Note_on_c, 0, 56, 0
3, 148140, Note_on_c, 0, 55, 0
3, 148140, Note_on_c, 0, 63, 0
3, 148140, Note_on_c, 0, 79, 53
3, 148140, Note_on_c, 0, 80, 53
3, 148140, Note_on_c, 0, 84, 53
3, 148140, Note_on_c, 0, 87, 53
3, 148140, Note_on_c, 0, 91, 53
3, 148140, Note_on_c, 0, 55, 53
3, 148140, Note_on_c, 0, 56, 53
3, 148140, Note_on_c, 0, 60, 53
3, 148140, Note_on_c, 0, 63, 53
3, 148140, Note_on_c, 0, 67, 53
3, 148320, Note_on_c, 0, 67, 0
3, 148320, Note_on_c, 0, 84, 0
3, 148320, Note_on_c, 0, 87, 0
3, 148320, Note_on_c, 0, 79, 0
3, 148320, Note_on_c, 0, 91, 0
3, 148320, Note_on_c, 0, 80, 0
3, 148320, Note_on_c, 0, 60, 0
3, 148320, Note_on_c, 0, 56, 0
3, 148320, Note_on_c, 0, 55, 0
3, 148320, Note_on_c, 0, 63, 0
3, 148320, Note_on_c, 0, 79, 55
3, 148320, Note_on_c, 0, 80, 55
3, 148320, Note_on_c, 0, 84, 55
3, 148320, Note_on_c, 0, 87, 55
3, 148320, Note_on_c, 0, 91, 55
3, 148320, Note_on_c, 0, 55, 55
3, 148320, Note_on_c, 0, 56, 55
3, 148320, Note_on_c, 0, 60, 55
3, 148320, Note_on_c, 0, 63, 55
3, 148320, Note_on_c, 0, 67, 55
3, 148500, Note_on_c, 0, 67, 0
3, 148500, Note_on_c, 0, 84, 0
3, 148500, Note_on_c, 0, 87, 0
3, 148500, Note_on_c, 0, 79, 0
3, 148500, Note_on_c, 0, 91, 0
3, 148500, Note_on_c, 0, 80, 0
3, 148500, Note_on_c, 0, 60, 0
3, 148500, Note_on_c, 0, 56, 0
3, 148500, Note_on_c, 0, 55, 0
3, 148500, Note_on_c, 0, 63, 0
3, 148500, Note_on_c, 0, 79, 57
3, 148500, Note_on_c, 0, 80, 57
3, 148500, Note_on_c, 0, 84, 57
3, 148500, Note_on_c, 0, 87, 57
3, 148500, Note_on_c, 0, 91, 57
3, 148500, Control_c, 0, 64, 0
3, 148500, Note_on_c, 0, 55, 57
3, 148500, Note_on_c, 0, 56, 57
3, 148500, Note_on_c, 0, 60, 57
3, 148500, Note_on_c, 0, 63, 57
3, 148500, Note_on_c, 0, 67, 57
3, 148680, Note_on_c, 0, 67, 0
3, 148680, Note_on_c, 0, 84, 0
3, 148680, Note_on_c, 0, 87, 0
3, 148680, Note_on_c, 0, 79, 0
3, 148680, Note_on_c, 0, 91, 0
3, 148680, Note_on_c, 0, 80, 0
3, 148680, Note_on_c, 0, 60, 0
3, 148680, Note_on_c, 0, 56, 0
3, 148680, Note_on_c, 0, 55, 0
3, 148680, Note_on_c, 0, 63, 0
3, 148680, Note_on_c, 0, 79, 59
3, 148680, Note_on_c, 0, 81, 59
3, 148680, Note_on_c, 0, 84, 59
3, 148680, Note_on_c, 0, 87, 59
3, 148680, Note_on_c, 0, 91, 59
3, 148680, Control_c, 0, 64, 127
3, 148680, Note_on_c, 0, 55, 60
3, 148680, Note_on_c, 0, 57, 60
3, 148680, Note_on_c, 0, 60, 60
3, 148680, Note_on_c, 0, 63, 60
3, 148680, Note_on_c, 0, 67, 60
3, 148860, Note_on_c, 0, 67, 0
3, 148860, Note_on_c, 0, 84, 0
3, 148860, Note_on_c, 0, 87, 0
3, 148860, Note_on_c, 0, 79, 0
3, 148860, Note_on_c, 0, 91, 0
3, 148860, Note_on_c, 0, 81, 0
3, 148860, Note_on_c, 0, 60, 0
3, 148860, Note_on_c, 0, 57, 0
3, 148860, Note_on_c, 0, 55, 0
3, 148860, Note_on_c, 0, 63, 0
3, 148860, Note_on_c, 0, 79, 61
3, 148860, Note_on_c, 0, 81, 61
3, 148860, Note_on_c, 0, 84, 61
3, 148860, Note_on_c, 0, 87, 61
3, 148860, Note_on_c, 0, 91, 61
3, 148860, Note_on_c, 0, 55, 62
3, 148860, Note_on_c, 0, 57, 62
3, 148860, Note_on_c, 0, 60, 62
3, 148860, Note_on_c, 0, 63, 62
3, 148860, Note_on_c, 0, 67, 62
3, 149040, Note_on_c, 0, 67, 0
3, 149040, Note_on_c, 0, 84, 0
3, 149040, Note_on_c, 0, 87, 0
3, 149040, Note_on_c, 0, 79, 0
3, 149040, Note_on_c, 0, 91, 0
3, 149040, Note_on_c, 0, 81, 0
3, 149040, Note_on_c, 0, 60, 0
3, 149040, Note_on_c, 0, 57, 0
3, 149040, Note_on_c, 0, 55, 0
3, 149040, Note_on_c, 0, 63, 0
3, 149040, Note_on_c, 0, 79, 79
3, 149040, Note_on_c, 0, 82, 79
3, 149040, Note_on_c, 0, 84, 79
3, 149040, Note_on_c, 0, 87, 79
3, 149040, Note_on_c, 0, 91, 79
3, 149040, Control_c, 0, 64, 0
3, 149040, Control_c, 0, 64, 127
3, 149040, Note_on_c, 0, 55, 74
3, 149040, Note_on_c, 0, 58, 74
3, 149040, Note_on_c, 0, 60, 74
3, 149040, Note_on_c, 0, 63, 74
3, 149040, Note_on_c, 0, 67, 74
3, 149198, Note_on_c, 0, 67, 0
3, 149198, Note_on_c, 0, 84, 0
3, 149198, Note_on_c, 0, 87, 0
3, 149198, Note_on_c, 0, 79, 0
3, 149198, Note_on_c, 0, 91, 0
3, 149198, Note_on_c, 0, 82, 0
3, 149198, Note_on_c, 0, 60, 0
3, 149198, Note_on_c, 0, 58, 0
3, 149198, Note_on_c, 0, 55, 0
3, 149198, Note_on_c, 0, 63, 0
3, 149220, Note_on_c, 0, 79, 78
3, 149220, Note_on_c, 0, 82, 78
3, 149220, Note_on_c, 0, 84, 78
3, 149220, Note_on_c, 0, 87, 78
3, 149220, Note_on_c, 0, 91, 78
3, 149220, Note_on_c, 0, 55, 74
3, 149220, Note_on_c, 0, 58, 74
3, 149220, Note_on_c, 0, 60, 74
3, 149220, Note_on_c, 0, 63, 74
3, 149220, Note_on_c, 0, 67, 74
3, 149378, Note_on_c, 0, 67, 0
3, 149378, Note_on_c, 0, 84, 0
3, 149378, Note_on_c, 0, 87, 0
3, 149378, Note_on_c, 0, 79, 0
3, 149378, Note_on_c, 0, 91, 0
3, 149378, Note_on_c, 0, 82, 0
3, 149378, Note_on_c, 0, 60, 0
3, 149378, Note_on_c, 0, 58, 0
3, 149378, Note_on_c, 0, 55, 0
3, 149378, Note_on_c, 0, 63, 0
3, 149400, Note_on_c, 0, 79, 69
3, 149400, Note_on_c, 0, 82, 69
3, 149400, Note_on_c, 0, 84, 69
3, 149400, Note_on_c, 0, 87, 69
3, 149400, Note_on_c, 0, 91, 69
3, 149400, Note_on_c, 0, 55, 79
3, 149400, Note_on_c, 0, 58, 79
3, 149400, Note_on_c, 0, 60, 79
3, 149400, Note_on_c, 0, 63, 79
3, 149400, Note_on_c, 0, 67, 79
3, 149558, Note_on_c, 0, 67, 0
3, 149558, Note_on_c, 0, 84, 0
3, 149558, Note_on_c, 0, 87, 0
3, 149558, Note_on_c, 0, 79, 0
3, 149558, Note_on_c, 0, 91, 0
3, 149558, Note_on_c, 0, 82, 0
3, 149558, Note_on_c, 0, 60, 0
3, 149558, Note_on_c, 0, 58, 0
3, 149558, Note_on_c, 0, 55, 0
3, 149558, Note_on_c, 0, 63, 0
3, 149580, Note_on_c, 0, 79, 75
3, 149580, Note_on_c, 0, 82, 75
3, 149580, Note_on_c, 0, 84, 75
3, 149580, Note_on_c, 0, 87, 75
3, 149580, Note_on_c, 0, 91, 75
3, 149580, Note_on_c, 0, 55, 73
3, 149580, Note_on_c, 0, 58, 73
3, 149580, Note_on_c, 0, 60, 73
3, 149580, Note_on_c, 0, 63, 73
3, 149580, Note_on_c, 0, 67, 73
3, 149738, Note_on_c, 0, 67, 0
3, 149738, Note_on_c, 0, 84, 0
3, 149738, Note_on_c, 0, 87, 0
3, 149738, Note_on_c, 0, 79, 0
3, 149738, Note_on_c, 0, 91, 0
3, 149738, Note_on_c, 0, 82, 0
3, 149738, Note_on_c, 0, 60, 0
3, 149738, Note_on_c, 0, 58, 0
3, 149738, Note_on_c, 0, 55, 0
3, 149738, Note_on_c, 0, 63, 0
3, 149760, Note_on_c, 0, 79, 73
3, 149760, Note_on_c, 0, 82, 73
3, 149760, Note_on_c, 0, 84, 73
3, 149760, Note_on_c, 0, 87, 73
3, 149760, Note_on_c, 0, 91, 73
3, 149760, Control_c, 0, 64, 0
3, 149760, Control_c, 0, 64, 127
3, 149760, Note_on_c, 0, 55, 71
3, 149760, Note_on_c, 0, 58, 71
3, 149760, Note_on_c, 0, 60, 71
3, 149760, Note_on_c, 0, 63, 71
3, 149760, Note_on_c, 0, 67, 71
3, 149918, Note_on_c, 0, 67, 0
3, 149918, Note_on_c, 0, 84, 0
3, 149918, Note_on_c, 0, 87, 0
3, 149918, Note_on_c, 0, 79, 0
3, 149918, Note_on_c, 0, 91, 0
3, 149918, Note_on_c, 0, 82, 0
3, 149918, Note_on_c, 0, 60, 0
3, 149918, Note_on_c, 0, 58, 0
3, 149918, Note_on_c, 0, 55, 0
3, 149918, Note_on_c, 0, 63, 0
3, 149940, Note_on_c, 0, 79, 78
3, 149940, Note_on_c, 0, 82, 78
3, 149940, Note_on_c, 0, 84, 78
3, 149940, Note_on_c, 0, 87, 78
3, 149940, Note_on_c, 0, 91, 78
3, 149940, Note_on_c, 0, 55, 76
3, 149940, Note_on_c, 0, 58, 76
3, 149940, Note_on_c, 0, 60, 76
3, 149940, Note_on_c, 0, 63, 76
3, 149940, Note_on_c, 0, 67, 76
3, 150098, Note_on_c, 0, 67, 0
3, 150098, Note_on_c, 0, 84, 0
3, 150098, Note_on_c, 0, 87, 0
3, 150098, Note_on_c, 0, 79, 0
3, 150098, Note_on_c, 0, 91, 0
3, 150098, Note_on_c, 0, 82, 0
3, 150098, Note_on_c, 0, 60, 0
3, 150098, Note_on_c, 0, 58, 0
3, 150098, Note_on_c, 0, 55, 0
3, 150098, Note_on_c, 0, 63, 0
3, 150120, Note_on_c, 0, 79, 70
3, 150120, Note_on_c, 0, 82, 70
3, 150120, Note_on_c, 0, 84, 70
3, 150120, Note_on_c, 0, 87, 70
3, 150120, Note_on_c, 0, 91, 70
3, 150120, Note_on_c, 0, 55, 74
3, 150120, Note_on_c, 0, 58, 74
3, 150120, Note_on_c, 0, 60, 74
3, 150120, Note_on_c, 0, 63, 74
3, 150120, Note_on_c, 0, 67, 74
3, 150278, Note_on_c, 0, 67, 0
3, 150278, Note_on_c, 0, 84, 0
3, 150278, Note_on_c, 0, 87, 0
3, 150278, Note_on_c, 0, 79, 0
3, 150278, Note_on_c, 0, 91, 0
3, 150278, Note_on_c, 0, 82, 0
3, 150278, Note_on_c, 0, 60, 0
3, 150278, Note_on_c, 0, 58, 0
3, 150278, Note_on_c, 0, 55, 0
3, 150278, Note_on_c, 0, 63, 0
3, 150300, Note_on_c, 0, 67, 74
3, 150300, Note_on_c, 0, 70, 74
3, 150300, Note_on_c, 0, 72, 74
3, 150300, Note_on_c, 0, 75, 74
3, 150300, Note_on_c, 0, 79, 74
3, 150300, Control_c, 0, 64, 0
3, 150300, Note_on_c, 0, 55, 74
3, 150300, Note_on_c, 0, 58, 74
3, 150300, Note_on_c, 0, 60, 74
3, 150300, Note_on_c, 0, 63, 74
3, 150300, Note_on_c, 0, 67, 74
3, 150458, Note_on_c, 0, 67, 0
3, 150458, Note_on_c, 0, 72, 0
3, 150458, Note_on_c, 0, 75, 0
3, 150458, Note_on_c, 0, 67, 0
3, 150458, Note_on_c, 0, 79, 0
3, 150458, Note_on_c, 0, 70, 0
3, 150458, Note_on_c, 0, 60, 0
3, 150458, Note_on_c, 0, 58, 0
3, 150458, Note_on_c, 0, 55, 0
3, 150458, Note_on_c, 0, 63, 0
3, 150480, Note_on_c, 0, 48, 117
3, 150480, Note_on_c, 0, 60, 117
3, 150480, Note_on_c, 0, 24, 117
3, 150480, Note_on_c, 0, 36, 117
3, 150840, Note_on_c, 0, 79, 89
3, 150840, Note_on_c, 0, 82, 89
3, 150840, Note_on_c, 0, 84, 89
3, 150840, Note_on_c, 0, 87, 89
3, 150840, Note_on_c, 0, 91, 89
3, 150840, Note_on_c, 0, 55, 93
3, 150840, Note_on_c, 0, 58, 93
3, 150840, Note_on_c, 0, 60, 93
3, 150840, Note_on_c, 0, 63, 93
3, 150840, Note_on_c, 0, 67, 93
3, 151020, Note_on_c, 0, 67, 0
3, 151020, Note_on_c, 0, 79, 0
3, 151020, Note_on_c, 0, 55, 0
3, 151020, Note_on_c, 0, 84, 0
3, 151020, Note_on_c, 0, 87, 0
3, 151020, Note_on_c, 0, 60, 0
3, 151020, Note_on_c, 0, 91, 0
3, 151020, Note_on_c, 0, 63, 0
3, 151020, Note_on_c, 0, 58, 0
3, 151020, Note_on_c, 0, 82, 0
3, 151020, Note_on_c, 0, 79, 100
3, 151020, Note_on_c, 0, 82, 100
3, 151020, Note_on_c, 0, 84, 100
3, 151020, Note_on_c, 0, 87, 100
3, 151020, Note_on_c, 0, 91, 100
3, 151020, Note_on_c, 0, 55, 100
3, 151020, Note_on_c, 0, 58, 100
3, 151020, Note_on_c, 0, 60, 100
3, 151020, Note_on_c, 0, 63, 100
3, 151020, Note_on_c, 0, 67, 100
3, 151200, Note_on_c, 0, 67, 0
3, 151200, Note_on_c, 0, 79, 0
3, 151200, Note_on_c, 0, 55, 0
3, 151200, Note_on_c, 0, 84, 0
3, 151200, Note_on_c, 0, 87, 0
3, 151200, Note_on_c, 0, 60, 0
3, 151200, Note_on_c, 0, 91, 0
3, 151200, Note_on_c, 0, 63, 0
3, 151200, Note_on_c, 0, 58, 0
3, 151200, Note_on_c, 0, 82, 0
3, 151200, Note_on_c, 0, 79, 108
3, 151200, Note_on_c, 0, 82, 108
3, 151200, Note_on_c, 0, 84, 108
3, 151200, Note_on_c, 0, 87, 108
3, 151200, Note_on_c, 0, 91, 108
3, 151200, Note_on_c, 0, 55, 108
3, 151200, Note_on_c, 0, 58, 108
3, 151200, Note_on_c, 0, 60, 108
3, 151200, Note_on_c, 0, 63, 108
3, 151200, Note_on_c, 0, 67, 108
3, 151380, Note_on_c, 0, 67, 0
3, 151380, Note_on_c, 0, 79, 0
3, 151380, Note_on_c, 0, 55, 0
3, 151380, Note_on_c, 0, 84, 0
3, 151380, Note_on_c, 0, 87, 0
3, 151380, Note_on_c, 0, 60, 0
3, 151380, Note_on_c, 0, 91, 0
3, 151380, Note_on_c, 0, 63, 0
3, 151380, Note_on_c, 0, 58, 0
3, 151380, Note_on_c, 0, 82, 0
3, 151380, Note_on_c, 0, 79, 102
3, 151380, Note_on_c, 0, 82, 102
3, 151380, Note_on_c, 0, 84, 102
3, 151380, Note_on_c, 0, 87, 102
3, 151380, Note_on_c, 0, 91, 102
3, 151380, Note_on_c, 0, 55, 103
3, 151380, Note_on_c, 0, 58, 103
3, 151380, Note_on_c, 0, 60, 103
3, 151380, Note_on_c, 0, 63, 103
3, 151380, Note_on_c, 0, 67, 103
3, 151560, Note_on_c, 0, 67, 0
3, 151560, Note_on_c, 0, 79, 0
3, 151560, Note_on_c, 0, 55, 0
3, 151560, Note_on_c, 0, 84, 0
3, 151560, Note_on_c, 0, 87, 0
3, 151560, Note_on_c, 0, 60, 0
3, 151560, Note_on_c, 0, 91, 0
3, 151560, Note_on_c, 0, 63, 0
3, 151560, Note_on_c, 0, 58, 0
3, 151560, Note_on_c, 0, 82, 0
3, 151560, Note_on_c, 0, 67, 105
3, 151560, Note_on_c, 0, 70, 105
3, 151560, Note_on_c, 0, 72, 105
3, 151560, Note_on_c, 0, 75, 105
3, 151560, Note_on_c, 0, 79, 105
3, 151560, Note_on_c, 0, 55, 102
3, 151560, Note_on_c, 0, 58, 102
3, 151560, Note_on_c, 0, 60, 102
3, 151560, Note_on_c, 0, 63, 102
3, 151560, Note_on_c, 0, 67, 102
3, 151740, Note_on_c, 0, 67, 0
3, 151740, Note_on_c, 0, 67, 0
3, 151740, Note_on_c, 0, 70, 0
3, 151740, Note_on_c, 0, 24, 0
3, 151740, Note_on_c, 0, 75, 0
3, 151740, Note_on_c, 0, 60, 0
3, 151740, Note_on_c, 0, 36, 0
3, 151740, Note_on_c, 0, 48, 0
3, 151740, Note_on_c, 0, 60, 0
3, 151740, Note_on_c, 0, 58, 0
3, 151740, Note_on_c, 0, 79, 0
3, 151740, Note_on_c, 0, 72, 0
3, 151740, Note_on_c, 0, 63, 0
3, 151740, Note_on_c, 0, 55, 0
3, 151740, Note_on_c, 0, 51, 117
3, 151740, Note_on_c, 0, 63, 117
3, 151740, Note_on_c, 0, 27, 117
3, 151740, Note_on_c, 0, 39, 117
3, 151920, Note_on_c, 0, 39, 0
3, 151920, Note_on_c, 0, 51, 0
3, 151920, Note_on_c, 0, 63, 0
3, 151920, Note_on_c, 0, 27, 0
3, 151920, Note_on_c, 0, 53, 117
3, 151920, Note_on_c, 0, 65, 117
3, 151920, Note_on_c, 0, 29, 117
3, 151920, Note_on_c, 0, 41, 117
3, 152280, Note_on_c, 0, 67, 114
3, 152280, Note_on_c, 0, 70, 114
3, 152280, Note_on_c, 0, 72, 114
3, 152280, Note_on_c, 0, 75, 114
3, 152280, Note_on_c, 0, 79, 114
3, 152280, Note_on_c, 0, 55, 115
3, 152280, Note_on_c, 0, 58, 115
3, 152280, Note_on_c, 0, 60, 115
3, 152280, Note_on_c, 0, 63, 115
3, 152460, Note_on_c, 0, 63, 0
3, 152460, Note_on_c, 0, 70, 0
3, 152460, Note_on_c, 0, 55, 0
3, 152460, Note_on_c, 0, 75, 0
3, 152460, Note_on_c, 0, 72, 0
3, 152460, Note_on_c, 0, 79, 0
3, 152460, Note_on_c, 0, 60, 0
3, 152460, Note_on_c, 0, 67, 0
3, 152460, Note_on_c, 0, 58, 0
3, 152460, Note_on_c, 0, 67, 117
3, 152460, Note_on_c, 0, 70, 117
3, 152460, Note_on_c, 0, 72, 117
3, 152460, Note_on_c, 0, 75, 117
3, 152460, Note_on_c, 0, 79, 117
3, 152460, Note_on_c, 0, 55, 117
3, 152460, Note_on_c, 0, 58, 117
3, 152460, Note_on_c, 0, 60, 117
3, 152460, Note_on_c, 0, 63, 117
3, 152640, Note_on_c, 0, 63, 0
3, 152640, Note_on_c, 0, 70, 0
3, 152640, Note_on_c, 0, 55, 0
3, 152640, Note_on_c, 0, 75, 0
3, 152640, Note_on_c, 0, 72, 0
3, 152640, Note_on_c, 0, 79, 0
3, 152640, Note_on_c, 0, 60, 0
3, 152640, Note_on_c, 0, 67, 0
3, 152640, Note_on_c, 0, 58, 0
3, 152640, Note_on_c, 0, 69, 117
3, 152640, Note_on_c, 0, 72, 117
3, 152640, Note_on_c, 0, 75, 117
3, 152640, Note_on_c, 0, 77, 117
3, 152640, Note_on_c, 0, 81, 117
3, 152640, Note_on_c, 0, 57, 117
3, 152640, Note_on_c, 0, 60, 117
3, 152640, Note_on_c, 0, 63, 117
3, 152640, Note_on_c, 0, 65, 117
3, 152820, Note_on_c, 0, 63, 0
3, 152820, Note_on_c, 0, 57, 0
3, 152820, Note_on_c, 0, 75, 0
3, 152820, Note_on_c, 0, 77, 0
3, 152820, Note_on_c, 0, 65, 0
3, 152820, Note_on_c, 0, 81, 0
3, 152820, Note_on_c, 0, 60, 0
3, 152820, Note_on_c, 0, 69, 0
3, 152820, Note_on_c, 0, 72, 0
3, 152820, Note_on_c, 0, 69, 117
3, 152820, Note_on_c, 0, 72, 117
3, 152820, Note_on_c, 0, 75, 117
3, 152820, Note_on_c, 0, 77, 117
3, 152820, Note_on_c, 0, 81, 117
3, 152820, Note_on_c, 0, 57, 117
3, 152820, Note_on_c, 0, 60, 117
3, 152820, Note_on_c, 0, 63, 117
3, 152820, Note_on_c, 0, 65, 117
3, 153000, Note_on_c, 0, 63, 0
3, 153000, Note_on_c, 0, 57, 0
3, 153000, Note_on_c, 0, 75, 0
3, 153000, Note_on_c, 0, 77, 0
3, 153000, Note_on_c, 0, 65, 0
3, 153000, Note_on_c, 0, 81, 0
3, 153000, Note_on_c, 0, 60, 0
3, 153000, Note_on_c, 0, 69, 0
3, 153000, Note_on_c, 0, 72, 0
3, 153180, Note_on_c, 0, 65, 95
3, 153180, Note_on_c, 0, 41, 88
3, 153360, Note_on_c, 0, 41, 0
3, 153360, Note_on_c, 0, 29, 0
3, 153360, Note_on_c, 0, 65, 0
3, 153360, Note_on_c, 0, 53, 0
3, 153360, Note_on_c, 0, 65, 0
3, 153360, Note_on_c, 0, 41, 0
3, 153360, Note_on_c, 0, 58, 80
3, 153360, Note_on_c, 0, 61, 80
3, 153360, Note_on_c, 0, 70, 80
3, 153360, Note_on_c, 0, 34, 68
3, 153360, Note_on_c, 0, 41, 68
3, 153720, Note_on_c, 0, 70, 0
3, 153720, Note_on_c, 0, 58, 0
3, 153720, Note_on_c, 0, 61, 0
3, 153840, Note_on_c, 0, 34, 0
3, 153840, Note_on_c, 0, 41, 0
3, 153840, Note_on_c, 0, 39, 49
3, 153959, Note_on_c, 0, 39, 0
3, 153959, Note_on_c, 0, 37, 51
3, 154080, Note_on_c, 0, 37, 0
3, 154080, Note_on_c, 0, 37, 48
3, 154200, Note_on_c, 0, 37, 0
3, 154200, Note_on_c, 0, 36, 51
3, 154319, Note_on_c, 0, 36, 0
3, 154319, Note_on_c, 0, 34, 44
3, 154440, Note_on_c, 0, 49, 45
3, 154440, Note_on_c, 0, 61, 45
3, 154440, Note_on_c, 0, 41, 50
3, 154560, Note_on_c, 0, 61, 0
3, 154560, Note_on_c, 0, 49, 0
3, 154560, Note_on_c, 0, 60, 50
3, 154679, Note_on_c, 0, 60, 0
3, 154679, Note_on_c, 0, 34, 0
3, 154679, Note_on_c, 0, 41, 0
3, 154679, Note_on_c, 0, 58, 46
3, 154679, Note_on_c, 0, 42, 50
3, 154800, Note_on_c, 0, 42, 0
3, 154800, Note_on_c, 0, 58, 0
3, 154800, Note_on_c, 0, 49, 54
3, 154800, Note_on_c, 0, 58, 54
3, 154800, Note_on_c, 0, 34, 70
3, 154800, Note_on_c, 0, 41, 70
3, 154979, Note_on_c, 0, 58, 0
3, 154979, Note_on_c, 0, 49, 0
3, 155280, Note_on_c, 0, 34, 0
3, 155280, Note_on_c, 0, 41, 0
3, 155280, Note_on_c, 0, 39, 45
3, 155399, Note_on_c, 0, 39, 0
3, 155399, Note_on_c, 0, 37, 53
3, 155520, Note_on_c, 0, 37, 0
3, 155520, Note_on_c, 0, 37, 50
3, 155640, Note_on_c, 0, 37, 0
3, 155640, Note_on_c, 0, 36, 50
3, 155759, Note_on_c, 0, 36, 0
3, 155759, Note_on_c, 0, 34, 50
3, 155880, Note_on_c, 0, 49, 45
3, 155880, Note_on_c, 0, 61, 45
3, 155880, Note_on_c, 0, 41, 52
3, 156000, Note_on_c, 0, 61, 0
3, 156000, Note_on_c, 0, 49, 0
3, 156000, Note_on_c, 0, 60, 47
3, 156119, Note_on_c, 0, 60, 0
3, 156119, Note_on_c, 0, 34, 0
3, 156119, Note_on_c, 0, 41, 0
3, 156119, Note_on_c, 0, 58, 44
3, 156119, Note_on_c, 0, 42, 54
3, 156240, Note_on_c, 0, 42, 0
3, 156240, Note_on_c, 0, 58, 0
3, 156240, Note_on_c, 0, 49, 49
3, 156240, Note_on_c, 0, 58, 49
3, 156240, Note_on_c, 0, 41, 45
3, 156240, Note_on_c, 0, 34, 42
3, 156360, Note_on_c, 0, 58, 0
3, 156360, Note_on_c, 0, 49, 0
3, 156360, Note_on_c, 0, 49, 43
3, 156479, Note_on_c, 0, 49, 0
3, 156479, Note_on_c, 0, 53, 52
3, 156600, Note_on_c, 0, 53, 0
3, 156600, Note_on_c, 0, 41, 0
3, 156600, Note_on_c, 0, 49, 59
3, 156600, Note_on_c, 0, 54, 59
3, 156600, Note_on_c, 0, 46, 56
3, 156960, Note_on_c, 0, 46, 0
3, 156960, Note_on_c, 0, 44, 48
3, 157080, Note_on_c, 0, 54, 0
3, 157080, Note_on_c, 0, 49, 0
3, 157080, Note_on_c, 0, 53, 50
3, 157199, Note_on_c, 0, 53, 0
3, 157199, Note_on_c, 0, 49, 49
3, 157320, Note_on_c, 0, 49, 0
3, 157320, Note_on_c, 0, 44, 0
3, 157320, Note_on_c, 0, 51, 50
3, 157320, Note_on_c, 0, 42, 50
3, 157440, Note_on_c, 0, 51, 0
3, 157440, Note_on_c, 0, 49, 50
3, 157559, Note_on_c, 0, 49, 0
3, 157559, Note_on_c, 0, 47, 50
3, 157680, Note_on_c, 0, 47, 0
3, 157680, Note_on_c, 0, 42, 0
3, 157680, Note_on_c, 0, 34, 0
3, 157680, Note_on_c, 0, 49, 54
3, 157680, Note_on_c, 0, 41, 49
3, 157680, Note_on_c, 0, 34, 46
3, 157800, Note_on_c, 0, 49, 0
3, 157800, Note_on_c, 0, 46, 47
3, 157919, Note_on_c, 0, 46, 0
3, 157919, Note_on_c, 0, 49, 50
3, 158040, Note_on_c, 0, 49, 0
3, 158040, Note_on_c, 0, 41, 0
3, 158040, Note_on_c, 0, 46, 51
3, 158040, Note_on_c, 0, 51, 51
3, 158040, Note_on_c, 0, 42, 51
3, 158400, Note_on_c, 0, 42, 0
3, 158400, Note_on_c, 0, 41, 49
3, 158520, Note_on_c, 0, 51, 0
3, 158520, Note_on_c, 0, 46, 0
3, 158520, Note_on_c, 0, 49, 50
3, 158639, Note_on_c, 0, 49, 0
3, 158639, Note_on_c, 0, 46, 47
3, 158760, Note_on_c, 0, 46, 0
3, 158760, Note_on_c, 0, 41, 0
3, 158760, Note_on_c, 0, 48, 54
3, 158760, Note_on_c, 0, 39, 53
3, 158880, Note_on_c, 0, 48, 0
3, 158880, Note_on_c, 0, 46, 48
3, 158999, Note_on_c, 0, 46, 0
3, 158999, Note_on_c, 0, 45, 52
3, 159120, Note_on_c, 0, 45, 0
3, 159120, Note_on_c, 0, 39, 0
3, 159120, Note_on_c, 0, 34, 0
3, 159120, Note_on_c, 0, 46, 55
3, 159120, Note_on_c, 0, 34, 50
3, 159120, Note_on_c, 0, 38, 50
3, 159480, Note_on_c, 0, 38, 0
3, 159480, Note_on_c, 0, 34, 0
3, 159480, Note_on_c, 0, 46, 0
3, 159480, Note_on_c, 0, 41, 78
3, 159600, Note_on_c, 0, 41, 0
3, 159600, Note_on_c, 0, 39, 52
3, 159719, Note_on_c, 0, 39, 0
3, 159719, Note_on_c, 0, 38, 48
3, 159840, Note_on_c, 0, 38, 0
3, 159840, Note_on_c, 0, 38, 76
3, 159960, Note_on_c, 0, 38, 0
3, 159960, Note_on_c, 0, 35, 49
3, 160079, Note_on_c, 0, 35, 0
3, 160079, Note_on_c, 0, 34, 50
3, 160200, Note_on_c, 0, 62, 72
3, 160200, Note_on_c, 0, 68, 72
3, 160200, Note_on_c, 0, 74, 72
3, 160200, Note_on_c, 0, 41, 59
3, 160320, Note_on_c, 0, 74, 0
3, 160320, Note_on_c, 0, 68, 0
3, 160320, Note_on_c, 0, 62, 0
3, 160320, Note_on_c, 0, 71, 48
3, 160439, Note_on_c, 0, 71, 0
3, 160439, Note_on_c, 0, 34, 0
3, 160439, Note_on_c, 0, 41, 0
3, 160439, Note_on_c, 0, 70, 50
3, 160439, Note_on_c, 0, 42, 54
3, 160560, Note_on_c, 0, 42, 0
3, 160560, Note_on_c, 0, 70, 0
3, 160560, Note_on_c, 0, 62, 71
3, 160560, Note_on_c, 0, 68, 71
3, 160560, Note_on_c, 0, 70, 71
3, 160560, Note_on_c, 0, 34, 75
3, 160560, Note_on_c, 0, 41, 75
3, 160920, Note_on_c, 0, 70, 0
3, 160920, Note_on_c, 0, 62, 0
3, 160920, Note_on_c, 0, 68, 0
3, 161040, Note_on_c, 0, 34, 0
3, 161040, Note_on_c, 0, 41, 0
3, 161040, Note_on_c, 0, 39, 55
3, 161159, Note_on_c, 0, 39, 0
3, 161159, Note_on_c, 0, 38, 47
3, 161280, Note_on_c, 0, 38, 0
3, 161280, Note_on_c, 0, 38, 48
3, 161400, Note_on_c, 0, 38, 0
3, 161400, Note_on_c, 0, 35, 46
3, 161519, Note_on_c, 0, 35, 0
3, 161519, Note_on_c, 0, 34, 53
3, 161640, Note_on_c, 0, 50, 45
3, 161640, Note_on_c, 0, 56, 45
3, 161640, Note_on_c, 0, 62, 45
3, 161640, Note_on_c, 0, 41, 57
3, 161760, Note_on_c, 0, 62, 0
3, 161760, Note_on_c, 0, 56, 0
3, 161760, Note_on_c, 0, 50, 0
3, 161760, Note_on_c, 0, 59, 43
3, 161879, Note_on_c, 0, 59, 0
3, 161879, Note_on_c, 0, 34, 0
3, 161879, Note_on_c, 0, 41, 0
3, 161879, Note_on_c, 0, 58, 47
3, 161879, Note_on_c, 0, 42, 48
3, 162000, Note_on_c, 0, 42, 0
3, 162000, Note_on_c, 0, 58, 0
3, 162000, Note_on_c, 0, 50, 59
3, 162000, Note_on_c, 0, 56, 59
3, 162000, Note_on_c, 0, 58, 59
3, 162000, Note_on_c, 0, 41, 48
3, 162000, Note_on_c, 0, 34, 50
3, 162120, Note_on_c, 0, 58, 0
3, 162120, Note_on_c, 0, 50, 0
3, 162120, Note_on_c, 0, 56, 0
3, 162120, Note_on_c, 0, 50, 48
3, 162239, Note_on_c, 0, 50, 0
3, 162239, Note_on_c, 0, 53, 49
3, 162360, Note_on_c, 0, 53, 0
3, 162360, Note_on_c, 0, 41, 0
3, 162360, Note_on_c, 0, 50, 47
3, 162360, Note_on_c, 0, 54, 47
3, 162360, Note_on_c, 0, 46, 53
3, 162720, Note_on_c, 0, 46, 0
3, 162720, Note_on_c, 0, 44, 50
3, 162840, Note_on_c, 0, 54, 0
3, 162840, Note_on_c, 0, 50, 0
3, 162840, Note_on_c, 0, 53, 49
3, 162959, Note_on_c, 0, 53, 0
3, 162959, Note_on_c, 0, 50, 43
3, 163080, Note_on_c, 0, 50, 0
3, 163080, Note_on_c, 0, 44, 0
3, 163080, Note_on_c, 0, 51, 51
3, 163080, Note_on_c, 0, 42, 52
3, 163200, Note_on_c, 0, 51, 0
3, 163200, Note_on_c, 0, 50, 49
3, 163319, Note_on_c, 0, 50, 0
3, 163319, Note_on_c, 0, 46, 47
3, 163440, Note_on_c, 0, 46, 0
3, 163440, Note_on_c, 0, 42, 0
3, 163440, Note_on_c, 0, 34, 0
3, 163440, Note_on_c, 0, 50, 58
3, 163440, Note_on_c, 0, 41, 50
3, 163440, Note_on_c, 0, 34, 50
3, 163560, Note_on_c, 0, 50, 0
3, 163560, Note_on_c, 0, 53, 56
3, 163679, Note_on_c, 0, 53, 0
3, 163679, Note_on_c, 0, 54, 51
3, 163800, Note_on_c, 0, 54, 0
3, 163800, Note_on_c, 0, 41, 0
3, 163800, Note_on_c, 0, 50, 50
3, 163800, Note_on_c, 0, 54, 50
3, 163800, Note_on_c, 0, 46, 54
3, 164039, Note_on_c, 0, 54, 0
3, 164039, Note_on_c, 0, 50, 0
3, 164039, Note_on_c, 0, 53, 48
3, 164160, Note_on_c, 0, 53, 0
3, 164160, Note_on_c, 0, 46, 0
3, 164160, Note_on_c, 0, 49, 53
3, 164160, Note_on_c, 0, 52, 53
3, 164160, Note_on_c, 0, 44, 48
3, 164280, Note_on_c, 0, 52, 0
3, 164280, Note_on_c, 0, 49, 0
3, 164280, Note_on_c, 0, 56, 55
3, 164399, Note_on_c, 0, 56, 0
3, 164399, Note_on_c, 0, 58, 58
3, 164520, Note_on_c, 0, 58, 0
3, 164520, Note_on_c, 0, 34, 0
3, 164520, Note_on_c, 0, 44, 0
3, 164520, Note_on_c, 0, 51, 59
3, 164520, Note_on_c, 0, 63, 59
3, 164520, Note_on_c, 0, 43, 48
3, 164520, Note_on_c, 0, 39, 55
3, 164759, Note_on_c, 0, 43, 0
3, 164759, Note_on_c, 0, 39, 46
3, 164880, Note_on_c, 0, 39, 0
3, 164880, Note_on_c, 0, 39, 0
3, 164880, Note_on_c, 0, 63, 0
3, 164880, Note_on_c, 0, 51, 0
3, 164880, Note_on_c, 0, 59, 50
3, 164880, Note_on_c, 0, 56, 47
3, 164880, Note_on_c, 0, 32, 54
3, 164880, Note_on_c, 0, 44, 54
3, 165000, Note_on_c, 0, 59, 0
3, 165000, Note_on_c, 0, 63, 56
3, 165060, Note_on_c, 0, 56, 0
3, 165060, Note_on_c, 0, 44, 0
3, 165060, Note_on_c, 0, 32, 0
3, 165119, Note_on_c, 0, 63, 0
3, 165119, Note_on_c, 0, 64, 59
3, 165240, Note_on_c, 0, 64, 0
3, 165240, Note_on_c, 0, 64, 62
3, 165240, Note_on_c, 0, 55, 40
3, 165240, Note_on_c, 0, 40, 44
3, 165240, Note_on_c, 0, 47, 44
3, 165420, Note_on_c, 0, 47, 0
3, 165420, Note_on_c, 0, 40, 0
3, 165420, Note_on_c, 0, 55, 0
3, 165600, Note_on_c, 0, 54, 46
3, 165600, Note_on_c, 0, 35, 46
3, 165600, Note_on_c, 0, 47, 46
3, 165720, Note_on_c, 0, 64, 0
3, 165720, Note_on_c, 0, 63, 46
3, 165780, Note_on_c, 0, 54, 0
3, 165780, Note_on_c, 0, 47, 0
3, 165780, Note_on_c, 0, 35, 0
3, 165839, Note_on_c, 0, 63, 0
3, 165839, Note_on_c, 0, 59, 42
3, 165960, Note_on_c, 0, 59, 0
3, 165960, Note_on_c, 0, 61, 56
3, 165960, Note_on_c, 0, 55, 43
3, 165960, Note_on_c, 0, 40, 39
3, 165960, Note_on_c, 0, 47, 39
3, 166080, Note_on_c, 0, 47, 0
3, 166080, Note_on_c, 0, 40, 0
3, 166080, Note_on_c, 0, 61, 0
3, 166080, Note_on_c, 0, 59, 49
3, 166140, Note_on_c, 0, 55, 0
3, 166199, Note_on_c, 0, 59, 0
3, 166199, Note_on_c, 0, 61, 55
3, 166199, Note_on_c, 0, 39, 45
3, 166320, Note_on_c, 0, 39, 0
3, 166320, Note_on_c, 0, 61, 0
3, 166320, Note_on_c, 0, 59, 53
3, 166320, Note_on_c, 0, 56, 45
3, 166320, Note_on_c, 0, 32, 57
3, 166320, Note_on_c, 0, 44, 57
3, 166440, Note_on_c, 0, 59, 0
3, 166440, Note_on_c, 0, 63, 57
3, 166500, Note_on_c, 0, 56, 0
3, 166500, Note_on_c, 0, 44, 0
3, 166500, Note_on_c, 0, 32, 0
3, 166559, Note_on_c, 0, 63, 0
3, 166559, Note_on_c, 0, 64, 51
3, 166680, Note_on_c, 0, 64, 0
3, 166680, Note_on_c, 0, 64, 63
3, 166680, Note_on_c, 0, 55, 43
3, 166680, Note_on_c, 0, 40, 40
3, 166680, Note_on_c, 0, 47, 40
3, 166860, Note_on_c, 0, 47, 0
3, 166860, Note_on_c, 0, 40, 0
3, 166860, Note_on_c, 0, 55, 0
3, 167040, Note_on_c, 0, 54, 45
3, 167040, Note_on_c, 0, 35, 43
3, 167040, Note_on_c, 0, 47, 43
3, 167160, Note_on_c, 0, 64, 0
3, 167160, Note_on_c, 0, 63, 47
3, 167220, Note_on_c, 0, 54, 0
3, 167220, Note_on_c, 0, 47, 0
3, 167220, Note_on_c, 0, 35, 0
3, 167279, Note_on_c, 0, 63, 0
3, 167279, Note_on_c, 0, 59, 49
3, 167400, Note_on_c, 0, 59, 0
3, 167400, Note_on_c, 0, 61, 53
3, 167400, Note_on_c, 0, 55, 41
3, 167400, Note_on_c, 0, 40, 49
3, 167400, Note_on_c, 0, 47, 49
3, 167520, Note_on_c, 0, 47, 0
3, 167520, Note_on_c, 0, 40, 0
3, 167520, Note_on_c, 0, 61, 0
3, 167520, Note_on_c, 0, 59, 50
3, 167580, Note_on_c, 0, 55, 0
3, 167639, Note_on_c, 0, 59, 0
3, 167639, Note_on_c, 0, 61, 60
3, 167639, Note_on_c, 0, 39, 47
3, 167760, Note_on_c, 0, 39, 0
3, 167760, Note_on_c, 0, 61, 0
3, 167760, Note_on_c, 0, 56, 49
3, 167760, Note_on_c, 0, 59, 49
3, 167760, Note_on_c, 0, 32, 54
3, 167760, Note_on_c, 0, 44, 54
3, 167880, Note_on_c, 0, 59, 0
3, 167880, Note_on_c, 0, 56, 0
3, 167880, Note_on_c, 0, 63, 57
3, 167940, Note_on_c, 0, 32, 0
3, 167940, Note_on_c, 0, 44, 0
3, 167999, Note_on_c, 0, 63, 0
3, 167999, Note_on_c, 0, 64, 57
3, 168120, Note_on_c, 0, 64, 0
3, 168120, Note_on_c, 0, 59, 73
3, 168120, Note_on_c, 0, 68, 73
3, 168120, Note_on_c, 0, 50, 44
3, 168240, Note_on_c, 0, 50, 0
3, 168240, Note_on_c, 0, 51, 51
3, 168359, Note_on_c, 0, 51, 0
3, 168359, Note_on_c, 0, 55, 52
3, 168437, Note_on_c, 0, 68, 0
3, 168437, Note_on_c, 0, 59, 0
3, 168480, Note_on_c, 0, 55, 0
3, 168480, Note_on_c, 0, 59, 39
3, 168480, Note_on_c, 0, 63, 39
3, 168480, Note_on_c, 0, 56, 51
3, 168600, Note_on_c, 0, 56, 0
3, 168600, Note_on_c, 0, 58, 52
3, 168719, Note_on_c, 0, 58, 0
3, 168719, Note_on_c, 0, 59, 50
3, 168840, Note_on_c, 0, 59, 0
3, 168840, Note_on_c, 0, 63, 0
3, 168840, Note_on_c, 0, 59, 0
3, 168840, Note_on_c, 0, 71, 76
3, 168840, Note_on_c, 0, 75, 76
3, 168840, Note_on_c, 0, 55, 46
3, 168960, Note_on_c, 0, 55, 0
3, 168960, Note_on_c, 0, 56, 53
3, 169079, Note_on_c, 0, 56, 0
3, 169079, Note_on_c, 0, 58, 48
3, 169157, Note_on_c, 0, 75, 0
3, 169157, Note_on_c, 0, 71, 0
3, 169200, Note_on_c, 0, 58, 0
3, 169200, Note_on_c, 0, 63, 37
3, 169200, Note_on_c, 0, 68, 37
3, 169200, Note_on_c, 0, 59, 49
3, 169320, Note_on_c, 0, 59, 0
3, 169320, Note_on_c, 0, 61, 55
3, 169439, Note_on_c, 0, 61, 0
3, 169439, Note_on_c, 0, 63, 54
3, 169560, Note_on_c, 0, 63, 0
3, 169560, Note_on_c, 0, 68, 0
3, 169560, Note_on_c, 0, 63, 0
3, 169560, Note_on_c, 0, 75, 81
3, 169560, Note_on_c, 0, 80, 81
3, 169560, Note_on_c, 0, 58, 44
3, 169680, Note_on_c, 0, 58, 0
3, 169680, Note_on_c, 0, 59, 49
3, 169799, Note_on_c, 0, 59, 0
3, 169799, Note_on_c, 0, 61, 56
3, 169877, Note_on_c, 0, 80, 0
3, 169877, Note_on_c, 0, 75, 0
3, 169920, Note_on_c, 0, 61, 0
3, 169920, Note_on_c, 0, 68, 41
3, 169920, Note_on_c, 0, 71, 41
3, 169920, Note_on_c, 0, 63, 56
3, 170040, Note_on_c, 0, 63, 0
3, 170040, Note_on_c, 0, 67, 60
3, 170159, Note_on_c, 0, 67, 0
3, 170159, Note_on_c, 0, 67, 52
3, 170280, Note_on_c, 0, 67, 0
3, 170280, Note_on_c, 0, 71, 0
3, 170280, Note_on_c, 0, 68, 0
3, 170280, Note_on_c, 0, 75, 50
3, 170280, Note_on_c, 0, 51, 50
3, 170400, Note_on_c, 0, 51, 0
3, 170400, Note_on_c, 0, 75, 0
3, 170400, Note_on_c, 0, 80, 55
3, 170400, Note_on_c, 0, 56, 57
3, 170519, Note_on_c, 0, 56, 0
3, 170519, Note_on_c, 0, 80, 0
3, 170519, Note_on_c, 0, 83, 59
3, 170519, Note_on_c, 0, 59, 59
3, 170640, Note_on_c, 0, 59, 0
3, 170640, Note_on_c, 0, 83, 0
3, 170640, Note_on_c, 0, 75, 99
3, 170640, Note_on_c, 0, 80, 99
3, 170640, Note_on_c, 0, 87, 99
3, 170640, Note_on_c, 0, 51, 94
3, 170640, Note_on_c, 0, 56, 94
3, 170640, Note_on_c, 0, 63, 94
3, 170820, Note_on_c, 0, 63, 0
3, 170820, Note_on_c, 0, 80, 0
3, 170820, Note_on_c, 0, 87, 0
3, 170820, Note_on_c, 0, 75, 0
3, 170820, Note_on_c, 0, 56, 0
3, 170820, Note_on_c, 0, 51, 0
3, 170820, Note_on_c, 0, 75, 65
3, 170820, Note_on_c, 0, 80, 65
3, 170820, Note_on_c, 0, 83, 65
3, 170820, Note_on_c, 0, 87, 65
3, 170820, Note_on_c, 0, 51, 61
3, 170820, Note_on_c, 0, 56, 61
3, 170820, Note_on_c, 0, 59, 61
3, 170820, Note_on_c, 0, 63, 61
3, 171000, Note_on_c, 0, 63, 0
3, 171000, Note_on_c, 0, 75, 0
3, 171000, Note_on_c, 0, 51, 0
3, 171000, Note_on_c, 0, 80, 0
3, 171000, Note_on_c, 0, 83, 0
3, 171000, Note_on_c, 0, 87, 0
3, 171000, Note_on_c, 0, 56, 0
3, 171000, Note_on_c, 0, 59, 0
3, 171000, Note_on_c, 0, 75, 63
3, 171000, Note_on_c, 0, 76, 63
3, 171000, Note_on_c, 0, 80, 63
3, 171000, Note_on_c, 0, 83, 63
3, 171000, Note_on_c, 0, 87, 63
3, 171000, Note_on_c, 0, 51, 63
3, 171000, Note_on_c, 0, 52, 63
3, 171000, Note_on_c, 0, 56, 63
3, 171000, Note_on_c, 0, 59, 63
3, 171000, Note_on_c, 0, 63, 63
3, 171180, Note_on_c, 0, 63, 0
3, 171180, Note_on_c, 0, 80, 0
3, 171180, Note_on_c, 0, 83, 0
3, 171180, Note_on_c, 0, 75, 0
3, 171180, Note_on_c, 0, 87, 0
3, 171180, Note_on_c, 0, 76, 0
3, 171180, Note_on_c, 0, 56, 0
3, 171180, Note_on_c, 0, 52, 0
3, 171180, Note_on_c, 0, 51, 0
3, 171180, Note_on_c, 0, 59, 0
3, 171180, Note_on_c, 0, 75, 66
3, 171180, Note_on_c, 0, 76, 66
3, 171180, Note_on_c, 0, 80, 66
3, 171180, Note_on_c, 0, 83, 66
3, 171180, Note_on_c, 0, 87, 66
3, 171180, Note_on_c, 0, 51, 65
3, 171180, Note_on_c, 0, 52, 65
3, 171180, Note_on_c, 0, 56, 65
3, 171180, Note_on_c, 0, 59, 65
3, 171180, Note_on_c, 0, 63, 65
3, 171360, Note_on_c, 0, 63, 0
3, 171360, Note_on_c, 0, 80, 0
3, 171360, Note_on_c, 0, 83, 0
3, 171360, Note_on_c, 0, 75, 0
3, 171360, Note_on_c, 0, 87, 0
3, 171360, Note_on_c, 0, 76, 0
3, 171360, Note_on_c, 0, 56, 0
3, 171360, Note_on_c, 0, 52, 0
3, 171360, Note_on_c, 0, 51, 0
3, 171360, Note_on_c, 0, 59, 0
3, 171360, Note_on_c, 0, 75, 68
3, 171360, Note_on_c, 0, 76, 68
3, 171360, Note_on_c, 0, 80, 68
3, 171360, Note_on_c, 0, 83, 68
3, 171360, Note_on_c, 0, 87, 68
3, 171360, Note_on_c, 0, 51, 68
3, 171360, Note_on_c, 0, 52, 68
3, 171360, Note_on_c, 0, 56, 68
3, 171360, Note_on_c, 0, 59, 68
3, 171360, Note_on_c, 0, 63, 68
3, 171540, Note_on_c, 0, 63, 0
3, 171540, Note_on_c, 0, 80, 0
3, 171540, Note_on_c, 0, 83, 0
3, 171540, Note_on_c, 0, 75, 0
3, 171540, Note_on_c, 0, 87, 0
3, 171540, Note_on_c, 0, 76, 0
3, 171540, Note_on_c, 0, 56, 0
3, 171540, Note_on_c, 0, 52, 0
3, 171540, Note_on_c, 0, 51, 0
3, 171540, Note_on_c, 0, 59, 0
3, 171540, Note_on_c, 0, 75, 71
3, 171540, Note_on_c, 0, 76, 71
3, 171540, Note_on_c, 0, 80, 71
3, 171540, Note_on_c, 0, 83, 71
3, 171540, Note_on_c, 0, 87, 71
3, 171540, Note_on_c, 0, 51, 70
3, 171540, Note_on_c, 0, 52, 70
3, 171540, Note_on_c, 0, 56, 70
3, 171540, Note_on_c, 0, 59, 70
3, 171540, Note_on_c, 0, 63, 70
3, 171720, Note_on_c, 0, 63, 0
3, 171720, Note_on_c, 0, 80, 0
3, 171720, Note_on_c, 0, 83, 0
3, 171720, Note_on_c, 0, 75, 0
3, 171720, Note_on_c, 0, 87, 0
3, 171720, Note_on_c, 0, 76, 0
3, 171720, Note_on_c, 0, 56, 0
3, 171720, Note_on_c, 0, 52, 0
3, 171720, Note_on_c, 0, 51, 0
3, 171720, Note_on_c, 0, 59, 0
3, 171720, Note_on_c, 0, 75, 73
3, 171720, Note_on_c, 0, 77, 73
3, 171720, Note_on_c, 0, 80, 73
3, 171720, Note_on_c, 0, 83, 73
3, 171720, Note_on_c, 0, 87, 73
3, 171720, Note_on_c, 0, 51, 72
3, 171720, Note_on_c, 0, 53, 72
3, 171720, Note_on_c, 0, 56, 72
3, 171720, Note_on_c, 0, 59, 72
3, 171720, Note_on_c, 0, 63, 72
3, 171900, Note_on_c, 0, 63, 0
3, 171900, Note_on_c, 0, 80, 0
3, 171900, Note_on_c, 0, 83, 0
3, 171900, Note_on_c, 0, 75, 0
3, 171900, Note_on_c, 0, 87, 0
3, 171900, Note_on_c, 0, 77, 0
3, 171900, Note_on_c, 0, 56, 0
3, 171900, Note_on_c, 0, 53, 0
3, 171900, Note_on_c, 0, 51, 0
3, 171900, Note_on_c, 0, 59, 0
3, 171900, Note_on_c, 0, 75, 80
3, 171900, Note_on_c, 0, 77, 80
3, 171900, Note_on_c, 0, 80, 80
3, 171900, Note_on_c, 0, 83, 80
3, 171900, Note_on_c, 0, 87, 80
3, 171900, Note_on_c, 0, 51, 75
3, 171900, Note_on_c, 0, 53, 75
3, 171900, Note_on_c, 0, 56, 75
3, 171900, Note_on_c, 0, 59, 75
3, 171900, Note_on_c, 0, 63, 75
3, 172080, Note_on_c, 0, 63, 0
3, 172080, Note_on_c, 0, 80, 0
3, 172080, Note_on_c, 0, 83, 0
3, 172080, Note_on_c, 0, 75, 0
3, 172080, Note_on_c, 0, 87, 0
3, 172080, Note_on_c, 0, 77, 0
3, 172080, Note_on_c, 0, 56, 0
3, 172080, Note_on_c, 0, 53, 0
3, 172080, Note_on_c, 0, 51, 0
3, 172080, Note_on_c, 0, 59, 0
3, 172080, Note_on_c, 0, 75, 84
3, 172080, Note_on_c, 0, 78, 84
3, 172080, Note_on_c, 0, 80, 84
3, 172080, Note_on_c, 0, 83, 84
3, 172080, Note_on_c, 0, 87, 84
3, 172080, Note_on_c, 0, 51, 83
3, 172080, Note_on_c, 0, 54, 83
3, 172080, Note_on_c, 0, 56, 83
3, 172080, Note_on_c, 0, 59, 83
3, 172080, Note_on_c, 0, 63, 83
3, 172238, Note_on_c, 0, 63, 0
3, 172238, Note_on_c, 0, 80, 0
3, 172238, Note_on_c, 0, 83, 0
3, 172238, Note_on_c, 0, 75, 0
3, 172238, Note_on_c, 0, 87, 0
3, 172238, Note_on_c, 0, 78, 0
3, 172238, Note_on_c, 0, 56, 0
3, 172238, Note_on_c, 0, 54, 0
3, 172238, Note_on_c, 0, 51, 0
3, 172238, Note_on_c, 0, 59, 0
3, 172260, Note_on_c, 0, 75, 89
3, 172260, Note_on_c, 0, 78, 89
3, 172260, Note_on_c, 0, 80, 89
3, 172260, Note_on_c, 0, 83, 89
3, 172260, Note_on_c, 0, 87, 89
3, 172260, Note_on_c, 0, 51, 90
3, 172260, Note_on_c, 0, 54, 90
3, 172260, Note_on_c, 0, 56, 90
3, 172260, Note_on_c, 0, 59, 90
3, 172260, Note_on_c, 0, 63, 90
3, 172418, Note_on_c, 0, 63, 0
3, 172418, Note_on_c, 0, 80, 0
3, 172418, Note_on_c, 0, 83, 0
3, 172418, Note_on_c, 0, 75, 0
3, 172418, Note_on_c, 0, 87, 0
3, 172418, Note_on_c, 0, 78, 0
3, 172418, Note_on_c, 0, 56, 0
3, 172418, Note_on_c, 0, 54, 0
3, 172418, Note_on_c, 0, 51, 0
3, 172418, Note_on_c, 0, 59, 0
3, 172440, Note_on_c, 0, 75, 87
3, 172440, Note_on_c, 0, 78, 87
3, 172440, Note_on_c, 0, 80, 87
3, 172440, Note_on_c, 0, 83, 87
3, 172440, Note_on_c, 0, 87, 87
3, 172440, Note_on_c, 0, 51, 86
3, 172440, Note_on_c, 0, 54, 86
3, 172440, Note_on_c, 0, 56, 86
3, 172440, Note_on_c, 0, 59, 86
3, 172440, Note_on_c, 0, 63, 86
3, 172598, Note_on_c, 0, 63, 0
3, 172598, Note_on_c, 0, 80, 0
3, 172598, Note_on_c, 0, 83, 0
3, 172598, Note_on_c, 0, 75, 0
3, 172598, Note_on_c, 0, 87, 0
3, 172598, Note_on_c, 0, 78, 0
3, 172598, Note_on_c, 0, 56, 0
3, 172598, Note_on_c, 0, 54, 0
3, 172598, Note_on_c, 0, 51, 0
3, 172598, Note_on_c, 0, 59, 0
3, 172620, Note_on_c, 0, 75, 91
3, 172620, Note_on_c, 0, 78, 91
3, 172620, Note_on_c, 0, 80, 91
3, 172620, Note_on_c, 0, 83, 91
3, 172620, Note_on_c, 0, 87, 91
3, 172620, Note_on_c, 0, 51, 86
3, 172620, Note_on_c, 0, 54, 86
3, 172620, Note_on_c, 0, 56, 86
3, 172620, Note_on_c, 0, 59, 86
3, 172620, Note_on_c, 0, 63, 86
3, 172778, Note_on_c, 0, 63, 0
3, 172778, Note_on_c, 0, 80, 0
3, 172778, Note_on_c, 0, 83, 0
3, 172778, Note_on_c, 0, 75, 0
3, 172778, Note_on_c, 0, 87, 0
3, 172778, Note_on_c, 0, 78, 0
3, 172778, Note_on_c, 0, 56, 0
3, 172778, Note_on_c, 0, 54, 0
3, 172778, Note_on_c, 0, 51, 0
3, 172778, Note_on_c, 0, 59, 0
3, 172800, Note_on_c, 0, 75, 88
3, 172800, Note_on_c, 0, 78, 88
3, 172800, Note_on_c, 0, 80, 88
3, 172800, Note_on_c, 0, 83, 88
3, 172800, Note_on_c, 0, 87, 88
3, 172800, Note_on_c, 0, 51, 88
3, 172800, Note_on_c, 0, 54, 88
3, 172800, Note_on_c, 0, 56, 88
3, 172800, Note_on_c, 0, 59, 88
3, 172800, Note_on_c, 0, 63, 88
3, 172958, Note_on_c, 0, 63, 0
3, 172958, Note_on_c, 0, 80, 0
3, 172958, Note_on_c, 0, 83, 0
3, 172958, Note_on_c, 0, 75, 0
3, 172958, Note_on_c, 0, 87, 0
3, 172958, Note_on_c, 0, 78, 0
3, 172958, Note_on_c, 0, 56, 0
3, 172958, Note_on_c, 0, 54, 0
3, 172958, Note_on_c, 0, 51, 0
3, 172958, Note_on_c, 0, 59, 0
3, 172980, Note_on_c, 0, 75, 90
3, 172980, Note_on_c, 0, 78, 90
3, 172980, Note_on_c, 0, 80, 90
3, 172980, Note_on_c, 0, 83, 90
3, 172980, Note_on_c, 0, 87, 90
3, 172980, Note_on_c, 0, 51, 91
3, 172980, Note_on_c, 0, 54, 91
3, 172980, Note_on_c, 0, 56, 91
3, 172980, Note_on_c, 0, 59, 91
3, 172980, Note_on_c, 0, 63, 91
3, 173138, Note_on_c, 0, 63, 0
3, 173138, Note_on_c, 0, 80, 0
3, 173138, Note_on_c, 0, 83, 0
3, 173138, Note_on_c, 0, 75, 0
3, 173138, Note_on_c, 0, 87, 0
3, 173138, Note_on_c, 0, 78, 0
3, 173138, Note_on_c, 0, 56, 0
3, 173138, Note_on_c, 0, 54, 0
3, 173138, Note_on_c, 0, 51, 0
3, 173138, Note_on_c, 0, 59, 0
3, 173160, Note_on_c, 0, 75, 85
3, 173160, Note_on_c, 0, 78, 85
3, 173160, Note_on_c, 0, 80, 85
3, 173160, Note_on_c, 0, 83, 85
3, 173160, Note_on_c, 0, 87, 85
3, 173160, Note_on_c, 0, 51, 90
3, 173160, Note_on_c, 0, 54, 90
3, 173160, Note_on_c, 0, 56, 90
3, 173160, Note_on_c, 0, 59, 90
3, 173160, Note_on_c, 0, 63, 90
3, 173318, Note_on_c, 0, 63, 0
3, 173318, Note_on_c, 0, 80, 0
3, 173318, Note_on_c, 0, 83, 0
3, 173318, Note_on_c, 0, 75, 0
3, 173318, Note_on_c, 0, 87, 0
3, 173318, Note_on_c, 0, 78, 0
3, 173318, Note_on_c, 0, 56, 0
3, 173318, Note_on_c, 0, 54, 0
3, 173318, Note_on_c, 0, 51, 0
3, 173318, Note_on_c, 0, 59, 0
3, 173340, Note_on_c, 0, 75, 86
3, 173340, Note_on_c, 0, 78, 86
3, 173340, Note_on_c, 0, 80, 86
3, 173340, Note_on_c, 0, 83, 86
3, 173340, Note_on_c, 0, 87, 86
3, 173340, Note_on_c, 0, 51, 86
3, 173340, Note_on_c, 0, 54, 86
3, 173340, Note_on_c, 0, 56, 86
3, 173340, Note_on_c, 0, 59, 86
3, 173340, Note_on_c, 0, 63, 86
3, 173498, Note_on_c, 0, 63, 0
3, 173498, Note_on_c, 0, 80, 0
3, 173498, Note_on_c, 0, 83, 0
3, 173498, Note_on_c, 0, 75, 0
3, 173498, Note_on_c, 0, 87, 0
3, 173498, Note_on_c, 0, 78, 0
3, 173498, Note_on_c, 0, 56, 0
3, 173498, Note_on_c, 0, 54, 0
3, 173498, Note_on_c, 0, 51, 0
3, 173498, Note_on_c, 0, 59, 0
3, 173520, Note_on_c, 0, 56, 117
3, 173520, Note_on_c, 0, 32, 117
3, 173520, Note_on_c, 0, 44, 117
3, 173880, Note_on_c, 0, 75, 91
3, 173880, Note_on_c, 0, 78, 91
3, 173880, Note_on_c, 0, 80, 91
3, 173880, Note_on_c, 0, 83, 91
3, 173880, Note_on_c, 0, 87, 91
3, 173880, Note_on_c, 0, 51, 89
3, 173880, Note_on_c, 0, 54, 89
3, 173880, Note_on_c, 0, 56, 89
3, 173880, Note_on_c, 0, 59, 89
3, 173880, Note_on_c, 0, 63, 89
3, 174060, Note_on_c, 0, 63, 0
3, 174060, Note_on_c, 0, 80, 0
3, 174060, Note_on_c, 0, 51, 0
3, 174060, Note_on_c, 0, 83, 0
3, 174060, Note_on_c, 0, 56, 0
3, 174060, Note_on_c, 0, 75, 0
3, 174060, Note_on_c, 0, 87, 0
3, 174060, Note_on_c, 0, 78, 0
3, 174060, Note_on_c, 0, 54, 0
3, 174060, Note_on_c, 0, 59, 0
3, 174060, Note_on_c, 0, 75, 104
3, 174060, Note_on_c, 0, 78, 104
3, 174060, Note_on_c, 0, 80, 104
3, 174060, Note_on_c, 0, 83, 104
3, 174060, Note_on_c, 0, 87, 104
3, 174060, Note_on_c, 0, 51, 98
3, 174060, Note_on_c, 0, 54, 98
3, 174060, Note_on_c, 0, 56, 98
3, 174060, Note_on_c, 0, 59, 98
3, 174060, Note_on_c, 0, 63, 98
3, 174240, Note_on_c, 0, 63, 0
3, 174240, Note_on_c, 0, 80, 0
3, 174240, Note_on_c, 0, 51, 0
3, 174240, Note_on_c, 0, 83, 0
3, 174240, Note_on_c, 0, 56, 0
3, 174240, Note_on_c, 0, 75, 0
3, 174240, Note_on_c, 0, 87, 0
3, 174240, Note_on_c, 0, 78, 0
3, 174240, Note_on_c, 0, 54, 0
3, 174240, Note_on_c, 0, 59, 0
3, 174240, Note_on_c, 0, 75, 105
3, 174240, Note_on_c, 0, 78, 105
3, 174240, Note_on_c, 0, 80, 105
3, 174240, Note_on_c, 0, 83, 105
3, 174240, Note_on_c, 0, 87, 105
3, 174240, Note_on_c, 0, 51, 103
3, 174240, Note_on_c, 0, 54, 103
3, 174240, Note_on_c, 0, 56, 103
3, 174240, Note_on_c, 0, 59, 103
3, 174240, Note_on_c, 0, 63, 103
3, 174420, Note_on_c, 0, 63, 0
3, 174420, Note_on_c, 0, 80, 0
3, 174420, Note_on_c, 0, 51, 0
3, 174420, Note_on_c, 0, 83, 0
3, 174420, Note_on_c, 0, 56, 0
3, 174420, Note_on_c, 0, 75, 0
3, 174420, Note_on_c, 0, 87, 0
3, 174420, Note_on_c, 0, 78, 0
3, 174420, Note_on_c, 0, 54, 0
3, 174420, Note_on_c, 0, 59, 0
3, 174420, Note_on_c, 0, 75, 102
3, 174420, Note_on_c, 0, 78, 102
3, 174420, Note_on_c, 0, 80, 102
3, 174420, Note_on_c, 0, 83, 102
3, 174420, Note_on_c, 0, 87, 102
3, 174420, Note_on_c, 0, 51, 105
3, 174420, Note_on_c, 0, 54, 105
3, 174420, Note_on_c, 0, 56, 105
3, 174420, Note_on_c, 0, 59, 105
3, 174420, Note_on_c, 0, 63, 105
3, 174600, Note_on_c, 0, 63, 0
3, 174600, Note_on_c, 0, 80, 0
3, 174600, Note_on_c, 0, 51, 0
3, 174600, Note_on_c, 0, 83, 0
3, 174600, Note_on_c, 0, 56, 0
3, 174600, Note_on_c, 0, 75, 0
3, 174600, Note_on_c, 0, 87, 0
3, 174600, Note_on_c, 0, 78, 0
3, 174600, Note_on_c, 0, 54, 0
3, 174600, Note_on_c, 0, 59, 0
3, 174600, Note_on_c, 0, 75, 96
3, 174600, Note_on_c, 0, 78, 96
3, 174600, Note_on_c, 0, 80, 96
3, 174600, Note_on_c, 0, 83, 96
3, 174600, Note_on_c, 0, 87, 96
3, 174600, Note_on_c, 0, 51, 102
3, 174600, Note_on_c, 0, 54, 102
3, 174600, Note_on_c, 0, 56, 102
3, 174600, Note_on_c, 0, 59, 102
3, 174600, Note_on_c, 0, 63, 102
3, 174780, Note_on_c, 0, 63, 0
3, 174780, Note_on_c, 0, 80, 0
3, 174780, Note_on_c, 0, 44, 0
3, 174780, Note_on_c, 0, 87, 0
3, 174780, Note_on_c, 0, 56, 0
3, 174780, Note_on_c, 0, 75, 0
3, 174780, Note_on_c, 0, 32, 0
3, 174780, Note_on_c, 0, 78, 0
3, 174780, Note_on_c, 0, 56, 0
3, 174780, Note_on_c, 0, 51, 0
3, 174780, Note_on_c, 0, 83, 0
3, 174780, Note_on_c, 0, 59, 0
3, 174780, Note_on_c, 0, 54, 0
3, 174780, Note_on_c, 0, 59, 117
3, 174780, Note_on_c, 0, 35, 117
3, 174780, Note_on_c, 0, 47, 117
3, 174960, Note_on_c, 0, 47, 0
3, 174960, Note_on_c, 0, 35, 0
3, 174960, Note_on_c, 0, 59, 0
3, 174960, Note_on_c, 0, 61, 114
3, 174960, Note_on_c, 0, 37, 117
3, 174960, Note_on_c, 0, 49, 117
3, 175320, Note_on_c, 0, 68, 89
3, 175320, Note_on_c, 0, 71, 89
3, 175320, Note_on_c, 0, 73, 89
3, 175320, Note_on_c, 0, 77, 89
3, 175320, Note_on_c, 0, 56, 95
3, 175320, Note_on_c, 0, 59, 95
3, 175320, Note_on_c, 0, 61, 95
3, 175320, Note_on_c, 0, 65, 95
3, 175500, Note_on_c, 0, 65, 0
3, 175500, Note_on_c, 0, 61, 0
3, 175500, Note_on_c, 0, 59, 0
3, 175500, Note_on_c, 0, 77, 0
3, 175500, Note_on_c, 0, 68, 0
3, 175500, Note_on_c, 0, 71, 0
3, 175500, Note_on_c, 0, 56, 0
3, 175500, Note_on_c, 0, 73, 0
3, 175500, Note_on_c, 0, 68, 103
3, 175500, Note_on_c, 0, 71, 103
3, 175500, Note_on_c, 0, 73, 103
3, 175500, Note_on_c, 0, 77, 103
3, 175500, Note_on_c, 0, 56, 99
3, 175500, Note_on_c, 0, 59, 99
3, 175500, Note_on_c, 0, 61, 99
3, 175500, Note_on_c, 0, 65, 99
3, 175680, Note_on_c, 0, 65, 0
3, 175680, Note_on_c, 0, 61, 0
3, 175680, Note_on_c, 0, 59, 0
3, 175680, Note_on_c, 0, 77, 0
3, 175680, Note_on_c, 0, 68, 0
3, 175680, Note_on_c, 0, 71, 0
3, 175680, Note_on_c, 0, 56, 0
3, 175680, Note_on_c, 0, 73, 0
3, 175680, Note_on_c, 0, 69, 108
3, 175680, Note_on_c, 0, 73, 108
3, 175680, Note_on_c, 0, 76, 108
3, 175680, Note_on_c, 0, 78, 108
3, 175680, Note_on_c, 0, 57, 107
3, 175680, Note_on_c, 0, 61, 107
3, 175680, Note_on_c, 0, 64, 107
3, 175680, Note_on_c, 0, 66, 107
3, 175860, Note_on_c, 0, 66, 0
3, 175860, Note_on_c, 0, 78, 0
3, 175860, Note_on_c, 0, 61, 0
3, 175860, Note_on_c, 0, 64, 0
3, 175860, Note_on_c, 0, 69, 0
3, 175860, Note_on_c, 0, 73, 0
3, 175860, Note_on_c, 0, 57, 0
3, 175860, Note_on_c, 0, 76, 0
3, 175860, Note_on_c, 0, 69, 104
3, 175860, Note_on_c, 0, 73, 104
3, 175860, Note_on_c, 0, 76, 104
3, 175860, Note_on_c, 0, 78, 104
3, 175860, Note_on_c, 0, 57, 101
3, 175860, Note_on_c, 0, 61, 101
3, 175860, Note_on_c, 0, 64, 101
3, 175860, Note_on_c, 0, 66, 101
3, 176040, Note_on_c, 0, 66, 0
3, 176040, Note_on_c, 0, 78, 0
3, 176040, Note_on_c, 0, 61, 0
3, 176040, Note_on_c, 0, 64, 0
3, 176040, Note_on_c, 0, 69, 0
3, 176040, Note_on_c, 0, 73, 0
3, 176040, Note_on_c, 0, 57, 0
3, 176040, Note_on_c, 0, 76, 0
3, 176040, Note_on_c, 0, 69, 101
3, 176040, Note_on_c, 0, 73, 101
3, 176040, Note_on_c, 0, 76, 101
3, 176040, Note_on_c, 0, 78, 101
3, 176040, Note_on_c, 0, 57, 101
3, 176040, Note_on_c, 0, 61, 101
3, 176040, Note_on_c, 0, 64, 101
3, 176040, Note_on_c, 0, 66, 101
3, 176220, Note_on_c, 0, 66, 0
3, 176220, Note_on_c, 0, 78, 0
3, 176220, Note_on_c, 0, 61, 0
3, 176220, Note_on_c, 0, 64, 0
3, 176220, Note_on_c, 0, 69, 0
3, 176220, Note_on_c, 0, 73, 0
3, 176220, Note_on_c, 0, 57, 0
3, 176220, Note_on_c, 0, 76, 0
3, 176220, Note_on_c, 0, 69, 106
3, 176220, Note_on_c, 0, 73, 106
3, 176220, Note_on_c, 0, 76, 106
3, 176220, Note_on_c, 0, 78, 106
3, 176220, Note_on_c, 0, 57, 104
3, 176220, Note_on_c, 0, 61, 104
3, 176220, Note_on_c, 0, 64, 104
3, 176220, Note_on_c, 0, 66, 104
3, 176400, Note_on_c, 0, 66, 0
3, 176400, Note_on_c, 0, 57, 0
3, 176400, Note_on_c, 0, 61, 0
3, 176400, Note_on_c, 0, 69, 0
3, 176400, Note_on_c, 0, 49, 0
3, 176400, Note_on_c, 0, 73, 0
3, 176400, Note_on_c, 0, 37, 0
3, 176400, Note_on_c, 0, 61, 0
3, 176400, Note_on_c, 0, 78, 0
3, 176400, Note_on_c, 0, 76, 0
3, 176400, Note_on_c, 0, 64, 0
3, 176400, Note_on_c, 0, 54, 117
3, 176400, Note_on_c, 0, 66, 117
3, 176400, Note_on_c, 0, 30, 117
3, 176400, Note_on_c, 0, 42, 117
3, 176760, Note_on_c, 0, 78, 89
3, 176760, Note_on_c, 0, 81, 89
3, 176760, Note_on_c, 0, 85, 89
3, 176760, Note_on_c, 0, 88, 89
3, 176760, Note_on_c, 0, 90, 89
3, 176760, Note_on_c, 0, 54, 89
3, 176760, Note_on_c, 0, 57, 89
3, 176760, Note_on_c, 0, 61, 89
3, 176760, Note_on_c, 0, 64, 89
3, 176760, Note_on_c, 0, 66, 89
3, 176940, Note_on_c, 0, 64, 0
3, 176940, Note_on_c, 0, 90, 0
3, 176940, Note_on_c, 0, 81, 0
3, 176940, Note_on_c, 0, 85, 0
3, 176940, Note_on_c, 0, 54, 0
3, 176940, Note_on_c, 0, 66, 0
3, 176940, Note_on_c, 0, 88, 0
3, 176940, Note_on_c, 0, 61, 0
3, 176940, Note_on_c, 0, 78, 0
3, 176940, Note_on_c, 0, 57, 0
3, 176940, Note_on_c, 0, 78, 102
3, 176940, Note_on_c, 0, 81, 102
3, 176940, Note_on_c, 0, 85, 102
3, 176940, Note_on_c, 0, 88, 102
3, 176940, Note_on_c, 0, 90, 102
3, 176940, Note_on_c, 0, 54, 102
3, 176940, Note_on_c, 0, 57, 102
3, 176940, Note_on_c, 0, 61, 102
3, 176940, Note_on_c, 0, 64, 102
3, 176940, Note_on_c, 0, 66, 102
3, 177120, Note_on_c, 0, 64, 0
3, 177120, Note_on_c, 0, 90, 0
3, 177120, Note_on_c, 0, 81, 0
3, 177120, Note_on_c, 0, 85, 0
3, 177120, Note_on_c, 0, 66, 0
3, 177120, Note_on_c, 0, 54, 0
3, 177120, Note_on_c, 0, 88, 0
3, 177120, Note_on_c, 0, 61, 0
3, 177120, Note_on_c, 0, 78, 0
3, 177120, Note_on_c, 0, 57, 0
3, 177120, Note_on_c, 0, 78, 104
3, 177120, Note_on_c, 0, 81, 104
3, 177120, Note_on_c, 0, 85, 104
3, 177120, Note_on_c, 0, 88, 104
3, 177120, Note_on_c, 0, 90, 104
3, 177120, Note_on_c, 0, 54, 102
3, 177120, Note_on_c, 0, 57, 102
3, 177120, Note_on_c, 0, 61, 102
3, 177120, Note_on_c, 0, 64, 102
3, 177120, Note_on_c, 0, 66, 102
3, 177300, Note_on_c, 0, 64, 0
3, 177300, Note_on_c, 0, 90, 0
3, 177300, Note_on_c, 0, 81, 0
3, 177300, Note_on_c, 0, 85, 0
3, 177300, Note_on_c, 0, 66, 0
3, 177300, Note_on_c, 0, 54, 0
3, 177300, Note_on_c, 0, 88, 0
3, 177300, Note_on_c, 0, 61, 0
3, 177300, Note_on_c, 0, 78, 0
3, 177300, Note_on_c, 0, 57, 0
3, 177300, Note_on_c, 0, 78, 103
3, 177300, Note_on_c, 0, 81, 103
3, 177300, Note_on_c, 0, 85, 103
3, 177300, Note_on_c, 0, 88, 103
3, 177300, Note_on_c, 0, 90, 103
3, 177300, Note_on_c, 0, 54, 101
3, 177300, Note_on_c, 0, 57, 101
3, 177300, Note_on_c, 0, 61, 101
3, 177300, Note_on_c, 0, 64, 101
3, 177300, Note_on_c, 0, 66, 101
3, 177480, Note_on_c, 0, 64, 0
3, 177480, Note_on_c, 0, 90, 0
3, 177480, Note_on_c, 0, 81, 0
3, 177480, Note_on_c, 0, 85, 0
3, 177480, Note_on_c, 0, 66, 0
3, 177480, Note_on_c, 0, 54, 0
3, 177480, Note_on_c, 0, 88, 0
3, 177480, Note_on_c, 0, 61, 0
3, 177480, Note_on_c, 0, 78, 0
3, 177480, Note_on_c, 0, 57, 0
3, 177480, Note_on_c, 0, 78, 103
3, 177480, Note_on_c, 0, 81, 103
3, 177480, Note_on_c, 0, 85, 103
3, 177480, Note_on_c, 0, 88, 103
3, 177480, Note_on_c, 0, 90, 103
3, 177480, Note_on_c, 0, 54, 103
3, 177480, Note_on_c, 0, 57, 103
3, 177480, Note_on_c, 0, 61, 103
3, 177480, Note_on_c, 0, 64, 103
3, 177480, Note_on_c, 0, 66, 103
3, 177660, Note_on_c, 0, 66, 0
3, 177660, Note_on_c, 0, 78, 0
3, 177660, Note_on_c, 0, 81, 0
3, 177660, Note_on_c, 0, 30, 0
3, 177660, Note_on_c, 0, 88, 0
3, 177660, Note_on_c, 0, 66, 0
3, 177660, Note_on_c, 0, 54, 0
3, 177660, Note_on_c, 0, 42, 0
3, 177660, Note_on_c, 0, 61, 0
3, 177660, Note_on_c, 0, 57, 0
3, 177660, Note_on_c, 0, 90, 0
3, 177660, Note_on_c, 0, 85, 0
3, 177660, Note_on_c, 0, 64, 0
3, 177660, Note_on_c, 0, 54, 0
3, 177660, Note_on_c, 0, 57, 117
3, 177660, Note_on_c, 0, 69, 117
3, 177660, Note_on_c, 0, 33, 117
3, 177660, Note_on_c, 0, 45, 117
3, 177840, Note_on_c, 0, 45, 0
3, 177840, Note_on_c, 0, 57, 0
3, 177840, Note_on_c, 0, 69, 0
3, 177840, Note_on_c, 0, 33, 0
3, 177840, Note_on_c, 0, 59, 115
3, 177840, Note_on_c, 0, 71, 115
3, 177840, Note_on_c, 0, 35, 117
3, 177840, Note_on_c, 0, 47, 117
3, 178200, Note_on_c, 0, 66, 117
3, 178200, Note_on_c, 0, 69, 117
3, 178200, Note_on_c, 0, 71, 117
3, 178200, Note_on_c, 0, 75, 117
3, 178200, Note_on_c, 0, 78, 117
3, 178200, Note_on_c, 0, 54, 117
3, 178200, Note_on_c, 0, 57, 117
3, 178200, Note_on_c, 0, 59, 117
3, 178200, Note_on_c, 0, 63, 117
3, 178380, Note_on_c, 0, 63, 0
3, 178380, Note_on_c, 0, 54, 0
3, 178380, Note_on_c, 0, 69, 0
3, 178380, Note_on_c, 0, 75, 0
3, 178380, Note_on_c, 0, 59, 0
3, 178380, Note_on_c, 0, 71, 0
3, 178380, Note_on_c, 0, 78, 0
3, 178380, Note_on_c, 0, 57, 0
3, 178380, Note_on_c, 0, 66, 0
3, 178380, Note_on_c, 0, 66, 117
3, 178380, Note_on_c, 0, 69, 117
3, 178380, Note_on_c, 0, 71, 117
3, 178380, Note_on_c, 0, 75, 117
3, 178380, Note_on_c, 0, 78, 117
3, 178380, Note_on_c, 0, 54, 117
3, 178380, Note_on_c, 0, 57, 117
3, 178380, Note_on_c, 0, 59, 117
3, 178380, Note_on_c, 0, 63, 117
3, 178560, Note_on_c, 0, 63, 0
3, 178560, Note_on_c, 0, 71, 0
3, 178560, Note_on_c, 0, 54, 0
3, 178560, Note_on_c, 0, 75, 0
3, 178560, Note_on_c, 0, 69, 0
3, 178560, Note_on_c, 0, 59, 0
3, 178560, Note_on_c, 0, 78, 0
3, 178560, Note_on_c, 0, 57, 0
3, 178560, Note_on_c, 0, 66, 0
3, 178560, Note_on_c, 0, 67, 117
3, 178560, Note_on_c, 0, 71, 117
3, 178560, Note_on_c, 0, 74, 117
3, 178560, Note_on_c, 0, 76, 117
3, 178560, Note_on_c, 0, 79, 117
3, 178560, Note_on_c, 0, 55, 117
3, 178560, Note_on_c, 0, 59, 117
3, 178560, Note_on_c, 0, 62, 117
3, 178560, Note_on_c, 0, 64, 117
3, 178740, Note_on_c, 0, 64, 0
3, 178740, Note_on_c, 0, 67, 0
3, 178740, Note_on_c, 0, 79, 0
3, 178740, Note_on_c, 0, 74, 0
3, 178740, Note_on_c, 0, 59, 0
3, 178740, Note_on_c, 0, 76, 0
3, 178740, Note_on_c, 0, 62, 0
3, 178740, Note_on_c, 0, 71, 0
3, 178740, Note_on_c, 0, 55, 0
3, 178740, Note_on_c, 0, 67, 101
3, 178740, Note_on_c, 0, 71, 101
3, 178740, Note_on_c, 0, 74, 101
3, 178740, Note_on_c, 0, 76, 101
3, 178740, Note_on_c, 0, 79, 101
3, 178740, Note_on_c, 0, 55, 104
3, 178740, Note_on_c, 0, 59, 104
3, 178740, Note_on_c, 0, 62, 104
3, 178740, Note_on_c, 0, 64, 104
3, 178920, Note_on_c, 0, 64, 0
3, 178920, Note_on_c, 0, 67, 0
3, 178920, Note_on_c, 0, 79, 0
3, 178920, Note_on_c, 0, 74, 0
3, 178920, Note_on_c, 0, 59, 0
3, 178920, Note_on_c, 0, 71, 0
3, 178920, Note_on_c, 0, 76, 0
3, 178920, Note_on_c, 0, 62, 0
3, 178920, Note_on_c, 0, 55, 0
3, 178920, Note_on_c, 0, 67, 102
3, 178920, Note_on_c, 0, 71, 102
3, 178920, Note_on_c, 0, 74, 102
3, 178920, Note_on_c, 0, 76, 102
3, 178920, Note_on_c, 0, 79, 102
3, 178920, Note_on_c, 0, 55, 103
3, 178920, Note_on_c, 0, 59, 103
3, 178920, Note_on_c, 0, 62, 103
3, 178920, Note_on_c, 0, 64, 103
3, 179100, Note_on_c, 0, 64, 0
3, 179100, Note_on_c, 0, 67, 0
3, 179100, Note_on_c, 0, 79, 0
3, 179100, Note_on_c, 0, 74, 0
3, 179100, Note_on_c, 0, 59, 0
3, 179100, Note_on_c, 0, 76, 0
3, 179100, Note_on_c, 0, 62, 0
3, 179100, Note_on_c, 0, 71, 0
3, 179100, Note_on_c, 0, 55, 0
3, 179100, Note_on_c, 0, 67, 97
3, 179100, Note_on_c, 0, 71, 97
3, 179100, Note_on_c, 0, 74, 97
3, 179100, Note_on_c, 0, 76, 97
3, 179100, Note_on_c, 0, 79, 97
3, 179100, Note_on_c, 0, 55, 107
3, 179100, Note_on_c, 0, 59, 107
3, 179100, Note_on_c, 0, 62, 107
3, 179100, Note_on_c, 0, 64, 107
3, 179280, Note_on_c, 0, 64, 0
3, 179280, Note_on_c, 0, 71, 0
3, 179280, Note_on_c, 0, 35, 0
3, 179280, Note_on_c, 0, 76, 0
3, 179280, Note_on_c, 0, 71, 0
3, 179280, Note_on_c, 0, 47, 0
3, 179280, Note_on_c, 0, 59, 0
3, 179280, Note_on_c, 0, 67, 0
3, 179280, Note_on_c, 0, 59, 0
3, 179280, Note_on_c, 0, 79, 0
3, 179280, Note_on_c, 0, 74, 0
3, 179280, Note_on_c, 0, 62, 0
3, 179280, Note_on_c, 0, 55, 0
3, 179280, Note_on_c, 0, 64, 117
3, 179280, Note_on_c, 0, 76, 117
3, 179280, Note_on_c, 0, 28, 117
3, 179280, Note_on_c, 0, 40, 117
3, 179640, Note_on_c, 0, 79, 92
3, 179640, Note_on_c, 0, 83, 92
3, 179640, Note_on_c, 0, 86, 92
3, 179640, Note_on_c, 0, 88, 92
3, 179640, Note_on_c, 0, 91, 92
3, 179640, Note_on_c, 0, 55, 93
3, 179640, Note_on_c, 0, 59, 93
3, 179640, Note_on_c, 0, 62, 93
3, 179640, Note_on_c, 0, 64, 93
3, 179640, Note_on_c, 0, 67, 93
3, 179820, Note_on_c, 0, 67, 0
3, 179820, Note_on_c, 0, 79, 0
3, 179820, Note_on_c, 0, 55, 0
3, 179820, Note_on_c, 0, 86, 0
3, 179820, Note_on_c, 0, 88, 0
3, 179820, Note_on_c, 0, 64, 0
3, 179820, Note_on_c, 0, 91, 0
3, 179820, Note_on_c, 0, 62, 0
3, 179820, Note_on_c, 0, 59, 0
3, 179820, Note_on_c, 0, 83, 0
3, 179820, Note_on_c, 0, 79, 99
3, 179820, Note_on_c, 0, 83, 99
3, 179820, Note_on_c, 0, 86, 99
3, 179820, Note_on_c, 0, 88, 99
3, 179820, Note_on_c, 0, 91, 99
3, 179820, Note_on_c, 0, 55, 106
3, 179820, Note_on_c, 0, 59, 106
3, 179820, Note_on_c, 0, 62, 106
3, 179820, Note_on_c, 0, 64, 106
3, 179820, Note_on_c, 0, 67, 106
3, 180000, Note_on_c, 0, 67, 0
3, 180000, Note_on_c, 0, 79, 0
3, 180000, Note_on_c, 0, 55, 0
3, 180000, Note_on_c, 0, 86, 0
3, 180000, Note_on_c, 0, 88, 0
3, 180000, Note_on_c, 0, 64, 0
3, 180000, Note_on_c, 0, 91, 0
3, 180000, Note_on_c, 0, 62, 0
3, 180000, Note_on_c, 0, 59, 0
3, 180000, Note_on_c, 0, 83, 0
3, 180000, Note_on_c, 0, 79, 105
3, 180000, Note_on_c, 0, 83, 105
3, 180000, Note_on_c, 0, 86, 105
3, 180000, Note_on_c, 0, 88, 105
3, 180000, Note_on_c, 0, 91, 105
3, 180000, Note_on_c, 0, 55, 100
3, 180000, Note_on_c, 0, 59, 100
3, 180000, Note_on_c, 0, 62, 100
3, 180000, Note_on_c, 0, 64, 100
3, 180000, Note_on_c, 0, 67, 100
3, 180180, Note_on_c, 0, 67, 0
3, 180180, Note_on_c, 0, 79, 0
3, 180180, Note_on_c, 0, 55, 0
3, 180180, Note_on_c, 0, 86, 0
3, 180180, Note_on_c, 0, 88, 0
3, 180180, Note_on_c, 0, 64, 0
3, 180180, Note_on_c, 0, 91, 0
3, 180180, Note_on_c, 0, 62, 0
3, 180180, Note_on_c, 0, 59, 0
3, 180180, Note_on_c, 0, 83, 0
3, 180180, Note_on_c, 0, 79, 103
3, 180180, Note_on_c, 0, 83, 103
3, 180180, Note_on_c, 0, 86, 103
3, 180180, Note_on_c, 0, 88, 103
3, 180180, Note_on_c, 0, 91, 103
3, 180180, Note_on_c, 0, 55, 103
3, 180180, Note_on_c, 0, 59, 103
3, 180180, Note_on_c, 0, 62, 103
3, 180180, Note_on_c, 0, 64, 103
3, 180180, Note_on_c, 0, 67, 103
3, 180360, Note_on_c, 0, 67, 0
3, 180360, Note_on_c, 0, 79, 0
3, 180360, Note_on_c, 0, 55, 0
3, 180360, Note_on_c, 0, 86, 0
3, 180360, Note_on_c, 0, 88, 0
3, 180360, Note_on_c, 0, 64, 0
3, 180360, Note_on_c, 0, 91, 0
3, 180360, Note_on_c, 0, 62, 0
3, 180360, Note_on_c, 0, 59, 0
3, 180360, Note_on_c, 0, 83, 0
3, 180360, Note_on_c, 0, 67, 108
3, 180360, Note_on_c, 0, 71, 108
3, 180360, Note_on_c, 0, 74, 108
3, 180360, Note_on_c, 0, 76, 108
3, 180360, Note_on_c, 0, 79, 108
3, 180360, Note_on_c, 0, 55, 104
3, 180360, Note_on_c, 0, 59, 104
3, 180360, Note_on_c, 0, 62, 104
3, 180360, Note_on_c, 0, 64, 104
3, 180360, Note_on_c, 0, 67, 104
3, 180540, Note_on_c, 0, 67, 0
3, 180540, Note_on_c, 0, 67, 0
3, 180540, Note_on_c, 0, 71, 0
3, 180540, Note_on_c, 0, 28, 0
3, 180540, Note_on_c, 0, 76, 0
3, 180540, Note_on_c, 0, 64, 0
3, 180540, Note_on_c, 0, 40, 0
3, 180540, Note_on_c, 0, 76, 0
3, 180540, Note_on_c, 0, 62, 0
3, 180540, Note_on_c, 0, 59, 0
3, 180540, Note_on_c, 0, 79, 0
3, 180540, Note_on_c, 0, 74, 0
3, 180540, Note_on_c, 0, 64, 0
3, 180540, Note_on_c, 0, 55, 0
3, 180540, Note_on_c, 0, 67, 117
3, 180540, Note_on_c, 0, 79, 117
3, 180540, Note_on_c, 0, 31, 117
3, 180540, Note_on_c, 0, 43, 117
3, 180720, Note_on_c, 0, 43, 0
3, 180720, Note_on_c, 0, 67, 0
3, 180720, Note_on_c, 0, 79, 0
3, 180720, Note_on_c, 0, 31, 0
3, 180720, Note_on_c, 0, 69, 111
3, 180720, Note_on_c, 0, 81, 111
3, 180720, Note_on_c, 0, 33, 117
3, 180720, Note_on_c, 0, 45, 117
3, 181080, Note_on_c, 0, 67, 117
3, 181080, Note_on_c, 0, 71, 117
3, 181080, Note_on_c, 0, 74, 117
3, 181080, Note_on_c, 0, 76, 117
3, 181080, Note_on_c, 0, 79, 117
3, 181080, Note_on_c, 0, 55, 117
3, 181080, Note_on_c, 0, 59, 117
3, 181080, Note_on_c, 0, 62, 117
3, 181080, Note_on_c, 0, 64, 117
3, 181260, Note_on_c, 0, 64, 0
3, 181260, Note_on_c, 0, 71, 0
3, 181260, Note_on_c, 0, 55, 0
3, 181260, Note_on_c, 0, 76, 0
3, 181260, Note_on_c, 0, 74, 0
3, 181260, Note_on_c, 0, 79, 0
3, 181260, Note_on_c, 0, 62, 0
3, 181260, Note_on_c, 0, 67, 0
3, 181260, Note_on_c, 0, 59, 0
3, 181260, Note_on_c, 0, 67, 117
3, 181260, Note_on_c, 0, 71, 117
3, 181260, Note_on_c, 0, 74, 117
3, 181260, Note_on_c, 0, 76, 117
3, 181260, Note_on_c, 0, 79, 117
3, 181260, Note_on_c, 0, 55, 117
3, 181260, Note_on_c, 0, 59, 117
3, 181260, Note_on_c, 0, 62, 117
3, 181260, Note_on_c, 0, 64, 117
3, 181440, Note_on_c, 0, 64, 0
3, 181440, Note_on_c, 0, 71, 0
3, 181440, Note_on_c, 0, 55, 0
3, 181440, Note_on_c, 0, 76, 0
3, 181440, Note_on_c, 0, 74, 0
3, 181440, Note_on_c, 0, 79, 0
3, 181440, Note_on_c, 0, 62, 0
3, 181440, Note_on_c, 0, 67, 0
3, 181440, Note_on_c, 0, 59, 0
3, 181440, Note_on_c, 0, 69, 117
3, 181440, Note_on_c, 0, 74, 117
3, 181440, Note_on_c, 0, 76, 117
3, 181440, Note_on_c, 0, 81, 117
3, 181440, Note_on_c, 0, 55, 117
3, 181440, Note_on_c, 0, 57, 117
3, 181440, Note_on_c, 0, 62, 117
3, 181440, Note_on_c, 0, 64, 117
3, 181620, Note_on_c, 0, 64, 0
3, 181620, Note_on_c, 0, 57, 0
3, 181620, Note_on_c, 0, 76, 0
3, 181620, Note_on_c, 0, 69, 0
3, 181620, Note_on_c, 0, 55, 0
3, 181620, Note_on_c, 0, 62, 0
3, 181620, Note_on_c, 0, 81, 0
3, 181620, Note_on_c, 0, 74, 0
3, 181620, Note_on_c, 0, 69, 117
3, 181620, Note_on_c, 0, 74, 117
3, 181620, Note_on_c, 0, 76, 117
3, 181620, Note_on_c, 0, 81, 117
3, 181620, Note_on_c, 0, 55, 117
3, 181620, Note_on_c, 0, 57, 117
3, 181620, Note_on_c, 0, 62, 117
3, 181620, Note_on_c, 0, 64, 117
3, 181800, Note_on_c, 0, 64, 0
3, 181800, Note_on_c, 0, 57, 0
3, 181800, Note_on_c, 0, 76, 0
3, 181800, Note_on_c, 0, 81, 0
3, 181800, Note_on_c, 0, 55, 0
3, 181800, Note_on_c, 0, 62, 0
3, 181800, Note_on_c, 0, 69, 0
3, 181800, Note_on_c, 0, 74, 0
3, 181800, Note_on_c, 0, 69, 117
3, 181800, Note_on_c, 0, 73, 117
3, 181800, Note_on_c, 0, 76, 117
3, 181800, Note_on_c, 0, 81, 117
3, 181800, Note_on_c, 0, 55, 117
3, 181800, Note_on_c, 0, 57, 117
3, 181800, Note_on_c, 0, 61, 117
3, 181800, Note_on_c, 0, 64, 117
3, 181980, Note_on_c, 0, 64, 0
3, 181980, Note_on_c, 0, 57, 0
3, 181980, Note_on_c, 0, 76, 0
3, 181980, Note_on_c, 0, 81, 0
3, 181980, Note_on_c, 0, 55, 0
3, 181980, Note_on_c, 0, 61, 0
3, 181980, Note_on_c, 0, 69, 0
3, 181980, Note_on_c, 0, 73, 0
3, 181980, Note_on_c, 0, 69, 117
3, 181980, Note_on_c, 0, 73, 117
3, 181980, Note_on_c, 0, 76, 117
3, 181980, Note_on_c, 0, 81, 117
3, 181980, Note_on_c, 0, 55, 117
3, 181980, Note_on_c, 0, 57, 117
3, 181980, Note_on_c, 0, 61, 117
3, 181980, Note_on_c, 0, 64, 117
3, 182160, Note_on_c, 0, 64, 0
3, 182160, Note_on_c, 0, 45, 0
3, 182160, Note_on_c, 0, 81, 0
3, 182160, Note_on_c, 0, 81, 0
3, 182160, Note_on_c, 0, 69, 0
3, 182160, Note_on_c, 0, 33, 0
3, 182160, Note_on_c, 0, 69, 0
3, 182160, Note_on_c, 0, 73, 0
3, 182160, Note_on_c, 0, 55, 0
3, 182160, Note_on_c, 0, 76, 0
3, 182160, Note_on_c, 0, 61, 0
3, 182160, Note_on_c, 0, 57, 0
3, 182160, Note_on_c, 0, 26, 112
3, 182340, Note_on_c, 0, 26, 0
3, 182340, Note_on_c, 0, 38, 116
3, 182520, Note_on_c, 0, 38, 0
3, 182520, Note_on_c, 0, 50, 47
3, 182520, Note_on_c, 0, 54, 47
3, 182520, Note_on_c, 0, 62, 47
3, 182520, Note_on_c, 0, 38, 58
3, 182520, Note_on_c, 0, 45, 58
3, 182640, Note_on_c, 0, 45, 0
3, 182640, Note_on_c, 0, 38, 0
3, 182640, Note_on_c, 0, 40, 52
3, 182759, Note_on_c, 0, 40, 0
3, 182759, Note_on_c, 0, 42, 52
3, 182880, Note_on_c, 0, 42, 0
3, 182880, Note_on_c, 0, 43, 51
3, 182969, Note_on_c, 0, 43, 0
3, 183060, Note_on_c, 0, 45, 58
3, 183149, Note_on_c, 0, 45, 0
3, 183240, Note_on_c, 0, 50, 0
3, 183240, Note_on_c, 0, 54, 0
3, 183240, Note_on_c, 0, 62, 0
3, 183240, Note_on_c, 0, 55, 53
3, 183240, Note_on_c, 0, 62, 53
3, 183240, Note_on_c, 0, 34, 72
3, 183240, Note_on_c, 0, 46, 72
3, 183360, Note_on_c, 0, 62, 0
3, 183360, Note_on_c, 0, 55, 0
3, 183360, Note_on_c, 0, 64, 54
3, 183479, Note_on_c, 0, 64, 0
3, 183479, Note_on_c, 0, 65, 59
3, 183600, Note_on_c, 0, 65, 0
3, 183600, Note_on_c, 0, 34, 0
3, 183600, Note_on_c, 0, 46, 0
3, 183600, Note_on_c, 0, 58, 52
3, 183600, Note_on_c, 0, 61, 52
3, 183600, Note_on_c, 0, 66, 52
3, 183600, Note_on_c, 0, 30, 51
3, 183600, Note_on_c, 0, 42, 51
3, 183689, Note_on_c, 0, 66, 0
3, 183689, Note_on_c, 0, 58, 0
3, 183689, Note_on_c, 0, 61, 0
3, 183780, Note_on_c, 0, 56, 50
3, 183780, Note_on_c, 0, 61, 50
3, 183780, Note_on_c, 0, 66, 50
3, 183780, Note_on_c, 0, 68, 50
3, 183869, Note_on_c, 0, 68, 0
3, 183869, Note_on_c, 0, 61, 0
3, 183869, Note_on_c, 0, 56, 0
3, 183869, Note_on_c, 0, 66, 0
3, 183960, Note_on_c, 0, 42, 0
3, 183960, Note_on_c, 0, 30, 0
3, 183960, Note_on_c, 0, 58, 50
3, 183960, Note_on_c, 0, 61, 50
3, 183960, Note_on_c, 0, 66, 50
3, 183960, Note_on_c, 0, 70, 50
3, 183960, Note_on_c, 0, 30, 50
3, 183960, Note_on_c, 0, 42, 50
3, 184080, Note_on_c, 0, 42, 0
3, 184080, Note_on_c, 0, 30, 0
3, 184080, Note_on_c, 0, 44, 51
3, 184199, Note_on_c, 0, 44, 0
3, 184199, Note_on_c, 0, 46, 51
3, 184320, Note_on_c, 0, 46, 0
3, 184320, Note_on_c, 0, 47, 51
3, 184409, Note_on_c, 0, 47, 0
3, 184500, Note_on_c, 0, 49, 52
3, 184589, Note_on_c, 0, 49, 0
3, 184680, Note_on_c, 0, 66, 0
3, 184680, Note_on_c, 0, 58, 0
3, 184680, Note_on_c, 0, 61, 0
3, 184680, Note_on_c, 0, 70, 0
3, 184680, Note_on_c, 0, 59, 52
3, 184680, Note_on_c, 0, 66, 52
3, 184680, Note_on_c, 0, 38, 52
3, 184680, Note_on_c, 0, 50, 52
3, 184800, Note_on_c, 0, 66, 0
3, 184800, Note_on_c, 0, 59, 0
3, 184800, Note_on_c, 0, 68, 52
3, 184919, Note_on_c, 0, 68, 0
3, 184919, Note_on_c, 0, 69, 53
3, 185040, Note_on_c, 0, 69, 0
3, 185040, Note_on_c, 0, 38, 0
3, 185040, Note_on_c, 0, 50, 0
3, 185040, Note_on_c, 0, 62, 53
3, 185040, Note_on_c, 0, 65, 53
3, 185040, Note_on_c, 0, 70, 53
3, 185040, Note_on_c, 0, 34, 53
3, 185040, Note_on_c, 0, 46, 53
3, 185129, Note_on_c, 0, 70, 0
3, 185129, Note_on_c, 0, 62, 0
3, 185129, Note_on_c, 0, 65, 0
3, 185220, Note_on_c, 0, 60, 53
3, 185220, Note_on_c, 0, 65, 53
3, 185220, Note_on_c, 0, 70, 53
3, 185220, Note_on_c, 0, 72, 53
3, 185309, Note_on_c, 0, 72, 0
3, 185309, Note_on_c, 0, 65, 0
3, 185309, Note_on_c, 0, 60, 0
3, 185309, Note_on_c, 0, 70, 0
3, 185400, Note_on_c, 0, 46, 0
3, 185400, Note_on_c, 0, 34, 0
3, 185400, Note_on_c, 0, 62, 54
3, 185400, Note_on_c, 0, 65, 54
3, 185400, Note_on_c, 0, 70, 54
3, 185400, Note_on_c, 0, 74, 54
3, 185400, Note_on_c, 0, 34, 54
3, 185400, Note_on_c, 0, 46, 54
3, 185520, Note_on_c, 0, 46, 0
3, 185520, Note_on_c, 0, 34, 0
3, 185520, Note_on_c, 0, 48, 54
3, 185639, Note_on_c, 0, 48, 0
3, 185639, Note_on_c, 0, 50, 54
3, 185760, Note_on_c, 0, 50, 0
3, 185760, Note_on_c, 0, 51, 55
3, 185849, Note_on_c, 0, 51, 0
3, 185940, Note_on_c, 0, 53, 55
3, 186029, Note_on_c, 0, 53, 0
3, 186120, Note_on_c, 0, 70, 0
3, 186120, Note_on_c, 0, 62, 0
3, 186120, Note_on_c, 0, 65, 0
3, 186120, Note_on_c, 0, 74, 0
3, 186120, Note_on_c, 0, 63, 56
3, 186120, Note_on_c, 0, 70, 56
3, 186120, Note_on_c, 0, 42, 56
3, 186120, Note_on_c, 0, 54, 56
3, 186240, Note_on_c, 0, 70, 0
3, 186240, Note_on_c, 0, 63, 0
3, 186240, Note_on_c, 0, 72, 56
3, 186359, Note_on_c, 0, 72, 0
3, 186359, Note_on_c, 0, 73, 56
3, 186480, Note_on_c, 0, 73, 0
3, 186480, Note_on_c, 0, 42, 0
3, 186480, Note_on_c, 0, 54, 0
3, 186480, Note_on_c, 0, 62, 56
3, 186480, Note_on_c, 0, 66, 56
3, 186480, Note_on_c, 0, 69, 56
3, 186480, Note_on_c, 0, 74, 56
3, 186480, Note_on_c, 0, 38, 56
3, 186480, Note_on_c, 0, 50, 56
3, 186569, Note_on_c, 0, 74, 0
3, 186569, Note_on_c, 0, 69, 0
3, 186569, Note_on_c, 0, 62, 0
3, 186569, Note_on_c, 0, 66, 0
3, 186660, Note_on_c, 0, 64, 57
3, 186660, Note_on_c, 0, 69, 57
3, 186660, Note_on_c, 0, 74, 57
3, 186660, Note_on_c, 0, 76, 57
3, 186749, Note_on_c, 0, 76, 0
3, 186749, Note_on_c, 0, 69, 0
3, 186749, Note_on_c, 0, 64, 0
3, 186749, Note_on_c, 0, 74, 0
3, 186840, Note_on_c, 0, 38, 0
3, 186840, Note_on_c, 0, 50, 0
3, 186840, Note_on_c, 0, 66, 57
3, 186840, Note_on_c, 0, 69, 57
3, 186840, Note_on_c, 0, 74, 57
3, 186840, Note_on_c, 0, 78, 57
3, 186840, Note_on_c, 0, 38, 57
3, 186840, Note_on_c, 0, 50, 57
3, 186960, Note_on_c, 0, 50, 0
3, 186960, Note_on_c, 0, 38, 0
3, 186960, Note_on_c, 0, 52, 58
3, 187079, Note_on_c, 0, 52, 0
3, 187079, Note_on_c, 0, 54, 58
3, 187200, Note_on_c, 0, 54, 0
3, 187200, Note_on_c, 0, 43, 58
3, 187200, Note_on_c, 0, 55, 58
3, 187289, Note_on_c, 0, 55, 0
3, 187289, Note_on_c, 0, 43, 0
3, 187380, Note_on_c, 0, 45, 59
3, 187380, Note_on_c, 0, 57, 59
3, 187469, Note_on_c, 0, 57, 0
3, 187469, Note_on_c, 0, 45, 0
3, 187560, Note_on_c, 0, 74, 0
3, 187560, Note_on_c, 0, 66, 0
3, 187560, Note_on_c, 0, 69, 0
3, 187560, Note_on_c, 0, 78, 0
3, 187560, Note_on_c, 0, 62, 59
3, 187560, Note_on_c, 0, 67, 59
3, 187560, Note_on_c, 0, 74, 59
3, 187560, Note_on_c, 0, 46, 59
3, 187560, Note_on_c, 0, 58, 59
3, 187680, Note_on_c, 0, 74, 0
3, 187680, Note_on_c, 0, 62, 0
3, 187680, Note_on_c, 0, 67, 0
3, 187680, Note_on_c, 0, 64, 59
3, 187680, Note_on_c, 0, 76, 59
3, 187799, Note_on_c, 0, 76, 0
3, 187799, Note_on_c, 0, 64, 0
3, 187799, Note_on_c, 0, 65, 59
3, 187799, Note_on_c, 0, 77, 59
3, 187920, Note_on_c, 0, 77, 0
3, 187920, Note_on_c, 0, 58, 0
3, 187920, Note_on_c, 0, 46, 0
3, 187920, Note_on_c, 0, 65, 0
3, 187920, Note_on_c, 0, 66, 60
3, 187920, Note_on_c, 0, 70, 60
3, 187920, Note_on_c, 0, 73, 60
3, 187920, Note_on_c, 0, 78, 60
3, 187920, Note_on_c, 0, 42, 60
3, 187920, Note_on_c, 0, 54, 60
3, 188040, Note_on_c, 0, 54, 0
3, 188040, Note_on_c, 0, 42, 0
3, 188040, Note_on_c, 0, 58, 60
3, 188159, Note_on_c, 0, 58, 0
3, 188159, Note_on_c, 0, 61, 60
3, 188280, Note_on_c, 0, 61, 0
3, 188280, Note_on_c, 0, 73, 0
3, 188280, Note_on_c, 0, 66, 0
3, 188280, Note_on_c, 0, 70, 0
3, 188280, Note_on_c, 0, 78, 0
3, 188280, Note_on_c, 0, 66, 61
3, 188280, Note_on_c, 0, 71, 61
3, 188280, Note_on_c, 0, 78, 61
3, 188280, Note_on_c, 0, 50, 61
3, 188280, Note_on_c, 0, 62, 61
3, 188400, Note_on_c, 0, 78, 0
3, 188400, Note_on_c, 0, 66, 0
3, 188400, Note_on_c, 0, 71, 0
3, 188400, Note_on_c, 0, 68, 61
3, 188400, Note_on_c, 0, 80, 61
3, 188519, Note_on_c, 0, 80, 0
3, 188519, Note_on_c, 0, 68, 0
3, 188519, Note_on_c, 0, 69, 61
3, 188519, Note_on_c, 0, 81, 61
3, 188640, Note_on_c, 0, 81, 0
3, 188640, Note_on_c, 0, 62, 0
3, 188640, Note_on_c, 0, 50, 0
3, 188640, Note_on_c, 0, 69, 0
3, 188640, Note_on_c, 0, 70, 61
3, 188640, Note_on_c, 0, 74, 61
3, 188640, Note_on_c, 0, 82, 61
3, 188640, Note_on_c, 0, 46, 61
3, 188640, Note_on_c, 0, 58, 61
3, 188760, Note_on_c, 0, 58, 0
3, 188760, Note_on_c, 0, 46, 0
3, 188760, Note_on_c, 0, 62, 62
3, 188879, Note_on_c, 0, 62, 0
3, 188879, Note_on_c, 0, 65, 62
3, 189000, Note_on_c, 0, 65, 0
3, 189000, Note_on_c, 0, 70, 0
3, 189000, Note_on_c, 0, 74, 0
3, 189000, Note_on_c, 0, 82, 0
3, 189000, Note_on_c, 0, 70, 62
3, 189000, Note_on_c, 0, 75, 62
3, 189000, Note_on_c, 0, 82, 62
3, 189000, Note_on_c, 0, 54, 62
3, 189000, Note_on_c, 0, 66, 62
3, 189120, Note_on_c, 0, 82, 0
3, 189120, Note_on_c, 0, 70, 0
3, 189120, Note_on_c, 0, 75, 0
3, 189120, Note_on_c, 0, 72, 63
3, 189120, Note_on_c, 0, 84, 63
3, 189239, Note_on_c, 0, 84, 0
3, 189239, Note_on_c, 0, 72, 0
3, 189239, Note_on_c, 0, 73, 63
3, 189239, Note_on_c, 0, 85, 63
3, 189360, Note_on_c, 0, 85, 0
3, 189360, Note_on_c, 0, 66, 0
3, 189360, Note_on_c, 0, 54, 0
3, 189360, Note_on_c, 0, 73, 0
3, 189360, Note_on_c, 0, 74, 105
3, 189360, Note_on_c, 0, 78, 105
3, 189360, Note_on_c, 0, 86, 105
3, 189360, Note_on_c, 0, 38, 112
3, 189399, Note_on_c, 0, 45, 112
3, 189439, Note_on_c, 0, 54, 112
3, 189480, Note_on_c, 0, 54, 0
3, 189480, Note_on_c, 0, 38, 0
3, 189480, Note_on_c, 0, 45, 0
3, 189480, Note_on_c, 0, 57, 109
3, 189599, Note_on_c, 0, 57, 0
3, 189599, Note_on_c, 0, 62, 116
3, 189720, Note_on_c, 0, 62, 0
3, 189720, Note_on_c, 0, 74, 0
3, 189720, Note_on_c, 0, 86, 0
3, 189720, Note_on_c, 0, 78, 0
3, 189720, Note_on_c, 0, 73, 102
3, 189720, Note_on_c, 0, 82, 102
3, 189720, Note_on_c, 0, 85, 102
3, 189720, Note_on_c, 0, 55, 103
3, 189720, Note_on_c, 0, 58, 103
3, 189720, Note_on_c, 0, 61, 103
3, 189840, Note_on_c, 0, 85, 0
3, 189840, Note_on_c, 0, 73, 0
3, 189840, Note_on_c, 0, 82, 0
3, 189840, Note_on_c, 0, 86, 105
3, 189959, Note_on_c, 0, 86, 0
3, 189959, Note_on_c, 0, 88, 109
3, 190080, Note_on_c, 0, 88, 0
3, 190080, Note_on_c, 0, 55, 0
3, 190080, Note_on_c, 0, 58, 0
3, 190080, Note_on_c, 0, 61, 0
3, 190080, Note_on_c, 0, 78, 117
3, 190080, Note_on_c, 0, 86, 117
3, 190080, Note_on_c, 0, 90, 117
3, 190080, Note_on_c, 0, 38, 117
3, 190119, Note_on_c, 0, 45, 117
3, 190159, Note_on_c, 0, 54, 117
3, 190200, Note_on_c, 0, 54, 0
3, 190200, Note_on_c, 0, 38, 0
3, 190200, Note_on_c, 0, 45, 0
3, 190200, Note_on_c, 0, 57, 101
3, 190319, Note_on_c, 0, 57, 0
3, 190319, Note_on_c, 0, 62, 115
3, 190440, Note_on_c, 0, 62, 0
3, 190440, Note_on_c, 0, 78, 0
3, 190440, Note_on_c, 0, 90, 0
3, 190440, Note_on_c, 0, 86, 0
3, 190440, Note_on_c, 0, 85, 90
3, 190440, Note_on_c, 0, 94, 90
3, 190440, Note_on_c, 0, 97, 90
3, 190440, Note_on_c, 0, 55, 95
3, 190440, Note_on_c, 0, 58, 95
3, 190440, Note_on_c, 0, 61, 95
3, 190560, Note_on_c, 0, 97, 0
3, 190560, Note_on_c, 0, 85, 0
3, 190560, Note_on_c, 0, 94, 0
3, 190560, Note_on_c, 0, 98, 109
3, 190679, Note_on_c, 0, 98, 0
3, 190679, Note_on_c, 0, 100, 108
3, 190800, Note_on_c, 0, 100, 0
3, 190800, Note_on_c, 0, 55, 0
3, 190800, Note_on_c, 0, 58, 0
3, 190800, Note_on_c, 0, 61, 0
3, 190800, Note_on_c, 0, 90, 117
3, 190800, Note_on_c, 0, 98, 117
3, 190800, Note_on_c, 0, 102, 117
3, 190800, Note_on_c, 0, 38, 117
3, 190839, Note_on_c, 0, 45, 117
3, 190879, Note_on_c, 0, 54, 117
3, 190920, Note_on_c, 0, 54, 0
3, 190920, Note_on_c, 0, 38, 0
3, 190920, Note_on_c, 0, 45, 0
3, 190920, Note_on_c, 0, 57, 107
3, 191039, Note_on_c, 0, 57, 0
3, 191039, Note_on_c, 0, 62, 116
3, 191160, Note_on_c, 0, 62, 0
3, 191160, Note_on_c, 0, 90, 0
3, 191160, Note_on_c, 0, 102, 0
3, 191160, Note_on_c, 0, 98, 0
3, 191160, Note_on_c, 0, 73, 90
3, 191160, Note_on_c, 0, 82, 90
3, 191160, Note_on_c, 0, 85, 90
3, 191160, Note_on_c, 0, 55, 98
3, 191160, Note_on_c, 0, 58, 98
3, 191160, Note_on_c, 0, 61, 98
3, 191280, Note_on_c, 0, 85, 0
3, 191280, Note_on_c, 0, 73, 0
3, 191280, Note_on_c, 0, 82, 0
3, 191280, Note_on_c, 0, 86, 100
3, 191399, Note_on_c, 0, 86, 0
3, 191399, Note_on_c, 0, 88, 106
3, 191520, Note_on_c, 0, 88, 0
3, 191520, Note_on_c, 0, 55, 0
3, 191520, Note_on_c, 0, 58, 0
3, 191520, Note_on_c, 0, 61, 0
3, 191520, Note_on_c, 0, 78, 117
3, 191520, Note_on_c, 0, 86, 117
3, 191520, Note_on_c, 0, 90, 117
3, 191520, Note_on_c, 0, 38, 117
3, 191559, Note_on_c, 0, 45, 117
3, 191599, Note_on_c, 0, 54, 117
3, 191640, Note_on_c, 0, 54, 0
3, 191640, Note_on_c, 0, 38, 0
3, 191640, Note_on_c, 0, 45, 0
3, 191640, Note_on_c, 0, 57, 107
3, 191759, Note_on_c, 0, 57, 0
3, 191759, Note_on_c, 0, 62, 116
3, 191880, Note_on_c, 0, 62, 0
3, 191880, Note_on_c, 0, 78, 0
3, 191880, Note_on_c, 0, 90, 0
3, 191880, Note_on_c, 0, 86, 0
3, 191880, Note_on_c, 0, 85, 86
3, 191880, Note_on_c, 0, 94, 86
3, 191880, Note_on_c, 0, 97, 86
3, 191880, Note_on_c, 0, 55, 97
3, 191880, Note_on_c, 0, 58, 97
3, 191880, Note_on_c, 0, 61, 97
3, 192000, Note_on_c, 0, 97, 0
3, 192000, Note_on_c, 0, 85, 0
3, 192000, Note_on_c, 0, 94, 0
3, 192000, Note_on_c, 0, 98, 106
3, 192119, Note_on_c, 0, 98, 0
3, 192119, Note_on_c, 0, 100, 108
3, 192240, Note_on_c, 0, 100, 0
3, 192240, Note_on_c, 0, 55, 0
3, 192240, Note_on_c, 0, 58, 0
3, 192240, Note_on_c, 0, 61, 0
3, 192240, Note_on_c, 0, 90, 117
3, 192240, Note_on_c, 0, 98, 117
3, 192240, Note_on_c, 0, 102, 117
3, 192240, Note_on_c, 0, 38, 117
3, 192240, Note_on_c, 0, 45, 117
3, 192240, Note_on_c, 0, 54, 117
3, 192420, Note_on_c, 0, 54, 0
3, 192420, Note_on_c, 0, 98, 0
3, 192420, Note_on_c, 0, 102, 0
3, 192420, Note_on_c, 0, 90, 0
3, 192420, Note_on_c, 0, 45, 0
3, 192420, Note_on_c, 0, 38, 0
3, 192420, Note_on_c, 0, 73, 76
3, 192420, Note_on_c, 0, 61, 116
3, 192509, Note_on_c, 0, 61, 0
3, 192509, Note_on_c, 0, 73, 0
3, 192600, Note_on_c, 0, 74, 101
3, 192600, Note_on_c, 0, 62, 112
3, 192689, Note_on_c, 0, 62, 0
3, 192689, Note_on_c, 0, 74, 0
3, 192780, Note_on_c, 0, 76, 110
3, 192780, Note_on_c, 0, 64, 109
3, 192869, Note_on_c, 0, 64, 0
3, 192869, Note_on_c, 0, 76, 0
3, 192960, Note_on_c, 0, 78, 104
3, 192960, Note_on_c, 0, 66, 112
3, 193049, Note_on_c, 0, 66, 0
3, 193049, Note_on_c, 0, 78, 0
3, 193140, Note_on_c, 0, 73, 116
3, 193140, Note_on_c, 0, 85, 116
3, 193140, Note_on_c, 0, 61, 93
3, 193229, Note_on_c, 0, 61, 0
3, 193229, Note_on_c, 0, 85, 0
3, 193229, Note_on_c, 0, 73, 0
3, 193320, Note_on_c, 0, 74, 107
3, 193320, Note_on_c, 0, 86, 107
3, 193320, Note_on_c, 0, 62, 107
3, 193409, Note_on_c, 0, 62, 0
3, 193409, Note_on_c, 0, 86, 0
3, 193409, Note_on_c, 0, 74, 0
3, 193500, Note_on_c, 0, 76, 105
3, 193500, Note_on_c, 0, 88, 105
3, 193500, Note_on_c, 0, 64, 108
3, 193589, Note_on_c, 0, 64, 0
3, 193589, Note_on_c, 0, 88, 0
3, 193589, Note_on_c, 0, 76, 0
3, 193680, Note_on_c, 0, 78, 110
3, 193680, Note_on_c, 0, 90, 110
3, 193680, Note_on_c, 0, 66, 108
3, 193769, Note_on_c, 0, 66, 0
3, 193769, Note_on_c, 0, 90, 0
3, 193769, Note_on_c, 0, 78, 0
3, 193860, Note_on_c, 0, 74, 71
3, 193860, Note_on_c, 0, 62, 91
3, 193949, Note_on_c, 0, 62, 0
3, 193949, Note_on_c, 0, 74, 0
3, 194040, Note_on_c, 0, 76, 107
3, 194040, Note_on_c, 0, 64, 109
3, 194129, Note_on_c, 0, 64, 0
3, 194129, Note_on_c, 0, 76, 0
3, 194220, Note_on_c, 0, 78, 111
3, 194220, Note_on_c, 0, 66, 110
3, 194309, Note_on_c, 0, 66, 0
3, 194309, Note_on_c, 0, 78, 0
3, 194400, Note_on_c, 0, 74, 116
3, 194400, Note_on_c, 0, 86, 116
3, 194400, Note_on_c, 0, 62, 91
3, 194489, Note_on_c, 0, 62, 0
3, 194489, Note_on_c, 0, 86, 0
3, 194489, Note_on_c, 0, 74, 0
3, 194580, Note_on_c, 0, 76, 115
3, 194580, Note_on_c, 0, 88, 115
3, 194580, Note_on_c, 0, 64, 112
3, 194669, Note_on_c, 0, 64, 0
3, 194669, Note_on_c, 0, 88, 0
3, 194669, Note_on_c, 0, 76, 0
3, 194760, Note_on_c, 0, 78, 114
3, 194760, Note_on_c, 0, 90, 114
3, 194760, Note_on_c, 0, 66, 110
3, 194849, Note_on_c, 0, 66, 0
3, 194849, Note_on_c, 0, 90, 0
3, 194849, Note_on_c, 0, 78, 0
3, 194940, Note_on_c, 0, 76, 77
3, 194940, Note_on_c, 0, 64, 98
3, 195029, Note_on_c, 0, 64, 0
3, 195029, Note_on_c, 0, 76, 0
3, 195120, Note_on_c, 0, 78, 103
3, 195120, Note_on_c, 0, 66, 103
3, 195209, Note_on_c, 0, 78, 0
3, 195299, Note_on_c, 0, 66, 0
3, 195300, Note_on_c, 0, 78, 101
3, 195389, Note_on_c, 0, 78, 0
3, 195480, Note_on_c, 0, 78, 99
3, 195569, Note_on_c, 0, 78, 0
3, 195660, Note_on_c, 0, 78, 98
3, 195749, Note_on_c, 0, 78, 0
3, 195840, Note_on_c, 0, 76, 96
3, 195840, Note_on_c, 0, 78, 96
3, 195929, Note_on_c, 0, 78, 0
3, 195929, Note_on_c, 0, 76, 0
3, 196020, Note_on_c, 0, 76, 95
3, 196020, Note_on_c, 0, 78, 95
3, 196109, Note_on_c, 0, 78, 0
3, 196109, Note_on_c, 0, 76, 0
3, 196200, Note_on_c, 0, 76, 93
3, 196200, Note_on_c, 0, 78, 93
3, 196289, Note_on_c, 0, 78, 0
3, 196289, Note_on_c, 0, 76, 0
3, 196380, Note_on_c, 0, 76, 91
3, 196380, Note_on_c, 0, 78, 91
3, 196469, Note_on_c, 0, 78, 0
3, 196469, Note_on_c, 0, 76, 0
3, 196560, Note_on_c, 0, 74, 103
3, 196560, Note_on_c, 0, 78, 103
3, 196649, Note_on_c, 0, 78, 0
3, 196649, Note_on_c, 0, 74, 0
3, 196740, Note_on_c, 0, 74, 101
3, 196740, Note_on_c, 0, 78, 101
3, 196829, Note_on_c, 0, 78, 0
3, 196829, Note_on_c, 0, 74, 0
3, 196920, Note_on_c, 0, 74, 99
3, 196920, Note_on_c, 0, 78, 99
3, 196920, Note_on_c, 0, 73, 103
3, 197009, Note_on_c, 0, 78, 0
3, 197009, Note_on_c, 0, 74, 0
3, 197099, Note_on_c, 0, 73, 0
3, 197100, Note_on_c, 0, 74, 98
3, 197100, Note_on_c, 0, 78, 98
3, 197189, Note_on_c, 0, 78, 0
3, 197189, Note_on_c, 0, 74, 0
3, 197280, Note_on_c, 0, 74, 96
3, 197280, Note_on_c, 0, 78, 96
3, 197280, Note_on_c, 0, 71, 98
3, 197369, Note_on_c, 0, 78, 0
3, 197369, Note_on_c, 0, 74, 0
3, 197459, Note_on_c, 0, 71, 0
3, 197460, Note_on_c, 0, 74, 95
3, 197460, Note_on_c, 0, 78, 95
3, 197549, Note_on_c, 0, 78, 0
3, 197549, Note_on_c, 0, 74, 0
3, 197640, Note_on_c, 0, 74, 93
3, 197640, Note_on_c, 0, 78, 93
3, 197640, Note_on_c, 0, 69, 94
3, 197729, Note_on_c, 0, 78, 0
3, 197729, Note_on_c, 0, 74, 0
3, 197819, Note_on_c, 0, 69, 0
3, 197820, Note_on_c, 0, 74, 91
3, 197820, Note_on_c, 0, 78, 91
3, 197909, Note_on_c, 0, 78, 0
3, 197909, Note_on_c, 0, 74, 0
3, 198000, Note_on_c, 0, 74, 50
3, 198000, Note_on_c, 0, 78, 50
3, 198000, Note_on_c, 0, 66, 50
3, 198000, Control_c, 0, 64, 127
3, 198000, Note_on_c, 0, 30, 50
3, 198000, Note_on_c, 0, 42, 50
3, 198120, Note_on_c, 0, 78, 0
3, 198120, Note_on_c, 0, 74, 0
3, 198120, Note_on_c, 0, 66, 49
3, 198180, Note_on_c, 0, 30, 0
3, 198180, Note_on_c, 0, 42, 0
3, 198180, Note_on_c, 0, 50, 49
3, 198239, Note_on_c, 0, 66, 0
3, 198239, Note_on_c, 0, 74, 48
3, 198360, Note_on_c, 0, 74, 0
3, 198360, Note_on_c, 0, 50, 0
3, 198360, Note_on_c, 0, 78, 47
3, 198360, Control_c, 0, 64, 0
3, 198360, Control_c, 0, 64, 127
3, 198360, Note_on_c, 0, 54, 47
3, 198480, Note_on_c, 0, 78, 0
3, 198480, Note_on_c, 0, 74, 46
3, 198540, Note_on_c, 0, 54, 0
3, 198540, Control_c, 0, 64, 0
3, 198540, Note_on_c, 0, 57, 46
3, 198599, Note_on_c, 0, 74, 0
3, 198599, Note_on_c, 0, 66, 45
3, 198720, Note_on_c, 0, 57, 0
3, 198720, Note_on_c, 0, 66, 0
3, 198720, Note_on_c, 0, 74, 44
3, 198720, Note_on_c, 0, 59, 44
3, 198840, Note_on_c, 0, 74, 0
3, 198840, Note_on_c, 0, 66, 43
3, 198959, Note_on_c, 0, 66, 0
3, 198959, Note_on_c, 0, 74, 42
3, 199080, Note_on_c, 0, 74, 0
3, 199080, Note_on_c, 0, 78, 41
3, 199200, Note_on_c, 0, 78, 0
3, 199200, Note_on_c, 0, 74, 40
3, 199260, Note_on_c, 0, 59, 0
3, 199260, Note_on_c, 0, 57, 39
3, 199267, Note_on_c, 0, 66, 0
3, 199319, Note_on_c, 0, 74, 0
3, 199319, Note_on_c, 0, 66, 39
3, 199440, Note_on_c, 0, 66, 0
3, 199440, Note_on_c, 0, 57, 0
3, 199440, Note_on_c, 0, 74, 38
3, 199440, Control_c, 0, 64, 127
3, 199440, Note_on_c, 0, 54, 38
3, 199560, Note_on_c, 0, 74, 0
3, 199560, Note_on_c, 0, 66, 31
3, 199620, Note_on_c, 0, 54, 0
3, 199620, Note_on_c, 0, 62, 48
3, 199679, Note_on_c, 0, 66, 0
3, 199679, Note_on_c, 0, 74, 47
3, 199800, Note_on_c, 0, 74, 0
3, 199800, Note_on_c, 0, 62, 0
3, 199800, Note_on_c, 0, 78, 43
3, 199800, Note_on_c, 0, 66, 42
3, 199920, Note_on_c, 0, 78, 0
3, 199920, Note_on_c, 0, 74, 32
3, 199980, Note_on_c, 0, 66, 0
3, 199980, Note_on_c, 0, 69, 44
3, 200039, Note_on_c, 0, 74, 0
3, 200039, Note_on_c, 0, 66, 23
3, 200160, Note_on_c, 0, 66, 0
3, 200160, Note_on_c, 0, 69, 0
3, 200160, Note_on_c, 0, 74, 46
3, 200160, Control_c, 0, 64, 0
3, 200160, Note_on_c, 0, 71, 43
3, 200280, Note_on_c, 0, 74, 0
3, 200280, Note_on_c, 0, 66, 30
3, 200399, Note_on_c, 0, 66, 0
3, 200399, Note_on_c, 0, 74, 46
3, 200520, Note_on_c, 0, 74, 0
3, 200520, Note_on_c, 0, 78, 45
3, 200640, Note_on_c, 0, 78, 0
3, 200640, Note_on_c, 0, 74, 30
3, 200700, Note_on_c, 0, 71, 0
3, 200700, Note_on_c, 0, 69, 29
3, 200759, Note_on_c, 0, 74, 0
3, 200759, Note_on_c, 0, 66, 26
3, 200880, Note_on_c, 0, 66, 0
3, 200880, Note_on_c, 0, 69, 0
3, 200880, Note_on_c, 0, 73, 47
3, 200880, Note_on_c, 0, 42, 32
3, 201000, Note_on_c, 0, 73, 0
3, 201000, Note_on_c, 0, 66, 35
3, 201060, Note_on_c, 0, 42, 0
3, 201060, Note_on_c, 0, 49, 41
3, 201119, Note_on_c, 0, 66, 0
3, 201119, Note_on_c, 0, 73, 47
3, 201240, Note_on_c, 0, 73, 0
3, 201240, Note_on_c, 0, 49, 0
3, 201240, Note_on_c, 0, 78, 45
3, 201240, Note_on_c, 0, 54, 39
3, 201360, Note_on_c, 0, 78, 0
3, 201360, Note_on_c, 0, 73, 34
3, 201420, Note_on_c, 0, 54, 0
3, 201420, Note_on_c, 0, 57, 37
3, 201479, Note_on_c, 0, 73, 0
3, 201479, Note_on_c, 0, 66, 28
3, 201600, Note_on_c, 0, 66, 0
3, 201600, Note_on_c, 0, 57, 0
3, 201600, Note_on_c, 0, 73, 48
3, 201600, Note_on_c, 0, 59, 44
3, 201720, Note_on_c, 0, 73, 0
3, 201720, Note_on_c, 0, 66, 31
3, 201839, Note_on_c, 0, 66, 0
3, 201839, Note_on_c, 0, 73, 45
3, 201960, Note_on_c, 0, 73, 0
3, 201960, Note_on_c, 0, 78, 45
3, 202080, Note_on_c, 0, 78, 0
3, 202080, Note_on_c, 0, 73, 31
3, 202140, Note_on_c, 0, 59, 0
3, 202140, Note_on_c, 0, 57, 36
3, 202199, Note_on_c, 0, 73, 0
3, 202199, Note_on_c, 0, 66, 25
3, 202320, Note_on_c, 0, 66, 0
3, 202320, Note_on_c, 0, 57, 0
3, 202320, Note_on_c, 0, 73, 46
3, 202320, Note_on_c, 0, 54, 35
3, 202440, Note_on_c, 0, 73, 0
3, 202440, Note_on_c, 0, 66, 28
3, 202500, Note_on_c, 0, 54, 0
3, 202500, Note_on_c, 0, 61, 49
3, 202559, Note_on_c, 0, 66, 0
3, 202559, Note_on_c, 0, 73, 43
3, 202680, Note_on_c, 0, 73, 0
3, 202680, Note_on_c, 0, 61, 0
3, 202680, Note_on_c, 0, 78, 48
3, 202680, Note_on_c, 0, 66, 47
3, 202800, Note_on_c, 0, 78, 0
3, 202800, Note_on_c, 0, 73, 34
3, 202860, Note_on_c, 0, 66, 0
3, 202860, Note_on_c, 0, 69, 46
3, 202919, Note_on_c, 0, 73, 0
3, 202919, Note_on_c, 0, 66, 27
3, 203040, Note_on_c, 0, 66, 0
3, 203040, Note_on_c, 0, 69, 0
3, 203040, Note_on_c, 0, 73, 40
3, 203040, Note_on_c, 0, 71, 42
3, 203160, Note_on_c, 0, 73, 0
3, 203160, Note_on_c, 0, 66, 32
3, 203279, Note_on_c, 0, 66, 0
3, 203279, Note_on_c, 0, 73, 48
3, 203400, Note_on_c, 0, 73, 0
3, 203400, Note_on_c, 0, 78, 45
3, 203520, Note_on_c, 0, 78, 0
3, 203520, Note_on_c, 0, 73, 31
3, 203580, Note_on_c, 0, 71, 0
3, 203580, Note_on_c, 0, 69, 37
3, 203639, Note_on_c, 0, 73, 0
3, 203639, Note_on_c, 0, 66, 22
3, 203760, Note_on_c, 0, 66, 0
3, 203760, Note_on_c, 0, 69, 0
3, 203760, Note_on_c, 0, 72, 45
3, 203760, Note_on_c, 0, 42, 29
3, 203880, Note_on_c, 0, 72, 0
3, 203880, Note_on_c, 0, 64, 32
3, 203940, Note_on_c, 0, 42, 0
3, 203940, Note_on_c, 0, 48, 42
3, 203999, Note_on_c, 0, 64, 0
3, 203999, Note_on_c, 0, 72, 44
3, 204120, Note_on_c, 0, 72, 0
3, 204120, Note_on_c, 0, 48, 0
3, 204120, Note_on_c, 0, 76, 43
3, 204120, Note_on_c, 0, 52, 42
3, 204240, Note_on_c, 0, 76, 0
3, 204240, Note_on_c, 0, 72, 30
3, 204300, Note_on_c, 0, 52, 0
3, 204300, Note_on_c, 0, 57, 43
3, 204359, Note_on_c, 0, 72, 0
3, 204359, Note_on_c, 0, 64, 24
3, 204480, Note_on_c, 0, 64, 0
3, 204480, Note_on_c, 0, 57, 0
3, 204480, Note_on_c, 0, 72, 49
3, 204480, Note_on_c, 0, 59, 39
3, 204600, Note_on_c, 0, 72, 0
3, 204600, Note_on_c, 0, 64, 27
3, 204719, Note_on_c, 0, 64, 0
3, 204719, Note_on_c, 0, 72, 48
3, 204840, Note_on_c, 0, 72, 0
3, 204840, Note_on_c, 0, 76, 47
3, 204960, Note_on_c, 0, 76, 0
3, 204960, Note_on_c, 0, 72, 32
3, 205020, Note_on_c, 0, 59, 0
3, 205020, Note_on_c, 0, 57, 39
3, 205079, Note_on_c, 0, 72, 0
3, 205079, Note_on_c, 0, 64, 27
3, 205200, Note_on_c, 0, 64, 0
3, 205200, Note_on_c, 0, 57, 0
3, 205200, Note_on_c, 0, 72, 42
3, 205200, Note_on_c, 0, 54, 31
3, 205320, Note_on_c, 0, 72, 0
3, 205320, Note_on_c, 0, 64, 27
3, 205380, Note_on_c, 0, 54, 0
3, 205380, Note_on_c, 0, 60, 47
3, 205439, Note_on_c, 0, 64, 0
3, 205439, Note_on_c, 0, 72, 54
3, 205560, Note_on_c, 0, 72, 0
3, 205560, Note_on_c, 0, 60, 0
3, 205560, Note_on_c, 0, 76, 46
3, 205560, Note_on_c, 0, 64, 44
3, 205680, Note_on_c, 0, 76, 0
3, 205680, Note_on_c, 0, 72, 32
3, 205740, Note_on_c, 0, 64, 0
3, 205740, Note_on_c, 0, 69, 41
3, 205799, Note_on_c, 0, 72, 0
3, 205799, Note_on_c, 0, 64, 28
3, 205920, Note_on_c, 0, 64, 0
3, 205920, Note_on_c, 0, 69, 0
3, 205920, Note_on_c, 0, 72, 46
3, 205920, Note_on_c, 0, 71, 44
3, 206040, Note_on_c, 0, 72, 0
3, 206040, Note_on_c, 0, 64, 32
3, 206159, Note_on_c, 0, 64, 0
3, 206159, Note_on_c, 0, 72, 43
3, 206280, Note_on_c, 0, 72, 0
3, 206280, Note_on_c, 0, 76, 43
3, 206400, Note_on_c, 0, 76, 0
3, 206400, Note_on_c, 0, 72, 33
3, 206460, Note_on_c, 0, 71, 0
3, 206460, Note_on_c, 0, 69, 37
3, 206519, Note_on_c, 0, 72, 0
3, 206519, Note_on_c, 0, 64, 29
3, 206640, Note_on_c, 0, 64, 0
3, 206640, Note_on_c, 0, 69, 0
3, 206640, Note_on_c, 0, 71, 39
3, 206640, Note_on_c, 0, 42, 30
3, 206760, Note_on_c, 0, 71, 0
3, 206760, Note_on_c, 0, 63, 31
3, 206820, Note_on_c, 0, 42, 0
3, 206820, Note_on_c, 0, 47, 38
3, 206879, Note_on_c, 0, 63, 0
3, 206879, Note_on_c, 0, 71, 49
3, 207000, Note_on_c, 0, 71, 0
3, 207000, Note_on_c, 0, 47, 0
3, 207000, Note_on_c, 0, 75, 39
3, 207000, Note_on_c, 0, 51, 36
3, 207120, Note_on_c, 0, 75, 0
3, 207120, Note_on_c, 0, 71, 34
3, 207180, Note_on_c, 0, 51, 0
3, 207180, Note_on_c, 0, 57, 40
3, 207239, Note_on_c, 0, 71, 0
3, 207239, Note_on_c, 0, 63, 29
3, 207360, Note_on_c, 0, 63, 0
3, 207360, Note_on_c, 0, 57, 0
3, 207360, Note_on_c, 0, 71, 45
3, 207360, Note_on_c, 0, 59, 42
3, 207480, Note_on_c, 0, 71, 0
3, 207480, Note_on_c, 0, 63, 25
3, 207599, Note_on_c, 0, 63, 0
3, 207599, Note_on_c, 0, 71, 40
3, 207720, Note_on_c, 0, 71, 0
3, 207720, Note_on_c, 0, 75, 45
3, 207840, Note_on_c, 0, 75, 0
3, 207840, Note_on_c, 0, 71, 38
3, 207900, Note_on_c, 0, 59, 0
3, 207900, Note_on_c, 0, 57, 40
3, 207959, Note_on_c, 0, 71, 0
3, 207959, Note_on_c, 0, 63, 30
3, 208080, Note_on_c, 0, 63, 0
3, 208080, Note_on_c, 0, 57, 0
3, 208080, Note_on_c, 0, 71, 44
3, 208080, Note_on_c, 0, 54, 32
3, 208200, Note_on_c, 0, 71, 0
3, 208200, Note_on_c, 0, 63, 27
3, 208260, Note_on_c, 0, 54, 0
3, 208260, Note_on_c, 0, 59, 40
3, 208319, Note_on_c, 0, 63, 0
3, 208319, Note_on_c, 0, 71, 43
3, 208440, Note_on_c, 0, 71, 0
3, 208440, Note_on_c, 0, 59, 0
3, 208440, Note_on_c, 0, 75, 47
3, 208440, Note_on_c, 0, 63, 45
3, 208560, Note_on_c, 0, 75, 0
3, 208560, Note_on_c, 0, 71, 34
3, 208620, Note_on_c, 0, 63, 0
3, 208620, Note_on_c, 0, 69, 46
3, 208679, Note_on_c, 0, 71, 0
3, 208679, Note_on_c, 0, 63, 27
3, 208800, Note_on_c, 0, 63, 0
3, 208800, Note_on_c, 0, 69, 0
3, 208800, Note_on_c, 0, 71, 47
3, 208920, Note_on_c, 0, 63, 33
3, 209039, Note_on_c, 0, 63, 0
3, 209039, Note_on_c, 0, 71, 49
3, 209160, Note_on_c, 0, 71, 0
3, 209160, Note_on_c, 0, 75, 44
3, 209280, Note_on_c, 0, 75, 0
3, 209280, Note_on_c, 0, 71, 32
3, 209340, Note_on_c, 0, 71, 0
3, 209340, Note_on_c, 0, 69, 32
3, 209399, Note_on_c, 0, 71, 0
3, 209399, Note_on_c, 0, 63, 30
3, 209520, Note_on_c, 0, 63, 0
3, 209520, Note_on_c, 0, 69, 0
3, 209520, Note_on_c, 0, 71, 43
3, 209520, Note_on_c, 0, 40, 34
3, 209640, Note_on_c, 0, 71, 0
3, 209640, Note_on_c, 0, 62, 29
3, 209700, Note_on_c, 0, 40, 0
3, 209700, Note_on_c, 0, 47, 41
3, 209759, Note_on_c, 0, 62, 0
3, 209759, Note_on_c, 0, 71, 49
3, 209880, Note_on_c, 0, 71, 0
3, 209880, Note_on_c, 0, 47, 0
3, 209880, Note_on_c, 0, 74, 43
3, 209880, Note_on_c, 0, 50, 39
3, 210000, Note_on_c, 0, 74, 0
3, 210000, Note_on_c, 0, 71, 37
3, 210060, Note_on_c, 0, 50, 0
3, 210060, Note_on_c, 0, 55, 40
3, 210119, Note_on_c, 0, 71, 0
3, 210119, Note_on_c, 0, 62, 31
3, 210240, Note_on_c, 0, 62, 0
3, 210240, Note_on_c, 0, 55, 0
3, 210240, Note_on_c, 0, 71, 46
3, 210240, Note_on_c, 0, 57, 46
3, 210360, Note_on_c, 0, 71, 0
3, 210360, Note_on_c, 0, 62, 29
3, 210479, Note_on_c, 0, 62, 0
3, 210479, Note_on_c, 0, 71, 43
3, 210600, Note_on_c, 0, 71, 0
3, 210600, Note_on_c, 0, 74, 37
3, 210720, Note_on_c, 0, 74, 0
3, 210720, Note_on_c, 0, 71, 31
3, 210780, Note_on_c, 0, 57, 0
3, 210780, Note_on_c, 0, 55, 38
3, 210839, Note_on_c, 0, 71, 0
3, 210839, Note_on_c, 0, 62, 25
3, 210960, Note_on_c, 0, 62, 0
3, 210960, Note_on_c, 0, 55, 0
3, 210960, Note_on_c, 0, 70, 44
3, 210960, Note_on_c, 0, 52, 37
3, 211080, Note_on_c, 0, 70, 0
3, 211080, Note_on_c, 0, 62, 28
3, 211140, Note_on_c, 0, 52, 0
3, 211140, Note_on_c, 0, 58, 44
3, 211199, Note_on_c, 0, 62, 0
3, 211199, Note_on_c, 0, 70, 49
3, 211320, Note_on_c, 0, 70, 0
3, 211320, Note_on_c, 0, 58, 0
3, 211320, Note_on_c, 0, 74, 47
3, 211320, Note_on_c, 0, 62, 43
3, 211440, Note_on_c, 0, 74, 0
3, 211440, Note_on_c, 0, 70, 34
3, 211500, Note_on_c, 0, 62, 0
3, 211500, Note_on_c, 0, 67, 44
3, 211559, Note_on_c, 0, 70, 0
3, 211559, Note_on_c, 0, 62, 25
3, 211680, Note_on_c, 0, 62, 0
3, 211680, Note_on_c, 0, 67, 0
3, 211680, Note_on_c, 0, 70, 46
3, 211680, Note_on_c, 0, 69, 43
3, 211800, Note_on_c, 0, 70, 0
3, 211800, Note_on_c, 0, 62, 31
3, 211919, Note_on_c, 0, 62, 0
3, 211919, Note_on_c, 0, 70, 44
3, 212040, Note_on_c, 0, 70, 0
3, 212040, Note_on_c, 0, 74, 44
3, 212160, Note_on_c, 0, 74, 0
3, 212160, Note_on_c, 0, 70, 34
3, 212220, Note_on_c, 0, 69, 0
3, 212220, Note_on_c, 0, 67, 36
3, 212279, Note_on_c, 0, 70, 0
3, 212279, Note_on_c, 0, 62, 29
3, 212400, Note_on_c, 0, 62, 0
3, 212400, Note_on_c, 0, 67, 0
3, 212400, Note_on_c, 0, 62, 55
3, 212400, Note_on_c, 0, 66, 55
3, 212400, Note_on_c, 0, 71, 55
3, 212400, Note_on_c, 0, 74, 55
3, 212400, Note_on_c, 0, 47, 31
3, 212400, Note_on_c, 0, 54, 31
3, 212400, Note_on_c, 0, 59, 31
3, 212580, Note_on_c, 0, 59, 0
3, 212580, Note_on_c, 0, 47, 0
3, 212580, Note_on_c, 0, 66, 0
3, 212580, Note_on_c, 0, 71, 0
3, 212580, Note_on_c, 0, 62, 0
3, 212580, Note_on_c, 0, 54, 0
3, 212580, Note_on_c, 0, 74, 0
3, 212580, Note_on_c, 0, 70, 35
3, 212580, Note_on_c, 0, 58, 37
3, 212669, Note_on_c, 0, 58, 0
3, 212669, Note_on_c, 0, 70, 0
3, 212760, Note_on_c, 0, 71, 43
3, 212760, Note_on_c, 0, 59, 36
3, 212849, Note_on_c, 0, 59, 0
3, 212849, Note_on_c, 0, 71, 0
3, 212940, Note_on_c, 0, 73, 43
3, 212940, Note_on_c, 0, 61, 39
3, 213029, Note_on_c, 0, 61, 0
3, 213029, Note_on_c, 0, 73, 0
3, 213120, Note_on_c, 0, 74, 46
3, 213120, Note_on_c, 0, 62, 41
3, 213209, Note_on_c, 0, 62, 0
3, 213209, Note_on_c, 0, 74, 0
3, 213300, Note_on_c, 0, 70, 47
3, 213300, Note_on_c, 0, 82, 47
3, 213300, Note_on_c, 0, 58, 31
3, 213389, Note_on_c, 0, 58, 0
3, 213389, Note_on_c, 0, 82, 0
3, 213389, Note_on_c, 0, 70, 0
3, 213480, Note_on_c, 0, 71, 40
3, 213480, Note_on_c, 0, 83, 40
3, 213480, Note_on_c, 0, 59, 37
3, 213569, Note_on_c, 0, 59, 0
3, 213569, Note_on_c, 0, 83, 0
3, 213569, Note_on_c, 0, 71, 0
3, 213660, Note_on_c, 0, 73, 41
3, 213660, Note_on_c, 0, 85, 41
3, 213660, Note_on_c, 0, 61, 36
3, 213749, Note_on_c, 0, 61, 0
3, 213749, Note_on_c, 0, 85, 0
3, 213749, Note_on_c, 0, 73, 0
3, 213840, Note_on_c, 0, 74, 41
3, 213840, Note_on_c, 0, 86, 41
3, 213840, Note_on_c, 0, 62, 40
3, 213929, Note_on_c, 0, 62, 0
3, 213929, Note_on_c, 0, 86, 0
3, 213929, Note_on_c, 0, 74, 0
3, 214020, Note_on_c, 0, 71, 26
3, 214020, Note_on_c, 0, 59, 36
3, 214109, Note_on_c, 0, 59, 0
3, 214109, Note_on_c, 0, 71, 0
3, 214200, Note_on_c, 0, 73, 38
3, 214200, Note_on_c, 0, 61, 44
3, 214289, Note_on_c, 0, 61, 0
3, 214289, Note_on_c, 0, 73, 0
3, 214380, Note_on_c, 0, 74, 42
3, 214380, Note_on_c, 0, 62, 40
3, 214469, Note_on_c, 0, 62, 0
3, 214469, Note_on_c, 0, 74, 0
3, 214560, Note_on_c, 0, 71, 51
3, 214560, Note_on_c, 0, 83, 51
3, 214560, Note_on_c, 0, 59, 31
3, 214649, Note_on_c, 0, 59, 0
3, 214649, Note_on_c, 0, 83, 0
3, 214649, Note_on_c, 0, 71, 0
3, 214740, Note_on_c, 0, 73, 43
3, 214740, Note_on_c, 0, 85, 43
3, 214740, Note_on_c, 0, 61, 40
3, 214829, Note_on_c, 0, 61, 0
3, 214829, Note_on_c, 0, 85, 0
3, 214829, Note_on_c, 0, 73, 0
3, 214920, Note_on_c, 0, 74, 41
3, 214920, Note_on_c, 0, 86, 41
3, 214920, Note_on_c, 0, 62, 42
3, 215009, Note_on_c, 0, 62, 0
3, 215009, Note_on_c, 0, 86, 0
3, 215009, Note_on_c, 0, 74, 0
3, 215100, Note_on_c, 0, 73, 25
3, 215100, Note_on_c, 0, 61, 37
3, 215189, Note_on_c, 0, 61, 0
3, 215189, Note_on_c, 0, 73, 0
3, 215280, Note_on_c, 0, 74, 59
3, 215280, Note_on_c, 0, 62, 41
3, 215369, Note_on_c, 0, 74, 0
3, 215460, Note_on_c, 0, 62, 0
3, 215460, Note_on_c, 0, 74, 36
3, 215549, Note_on_c, 0, 74, 0
3, 215640, Note_on_c, 0, 74, 40
3, 215729, Note_on_c, 0, 74, 0
3, 215820, Note_on_c, 0, 74, 37
3, 215909, Note_on_c, 0, 74, 0
3, 216000, Note_on_c, 0, 72, 61
3, 216000, Note_on_c, 0, 74, 61
3, 216089, Note_on_c, 0, 74, 0
3, 216089, Note_on_c, 0, 72, 0
3, 216180, Note_on_c, 0, 72, 37
3, 216180, Note_on_c, 0, 74, 37
3, 216269, Note_on_c, 0, 74, 0
3, 216269, Note_on_c, 0, 72, 0
3, 216360, Note_on_c, 0, 72, 38
3, 216360, Note_on_c, 0, 74, 38
3, 216449, Note_on_c, 0, 74, 0
3, 216449, Note_on_c, 0, 72, 0
3, 216540, Note_on_c, 0, 72, 34
3, 216540, Note_on_c, 0, 74, 34
3, 216629, Note_on_c, 0, 74, 0
3, 216629, Note_on_c, 0, 72, 0
3, 216720, Note_on_c, 0, 70, 60
3, 216720, Note_on_c, 0, 74, 60
3, 216809, Note_on_c, 0, 74, 0
3, 216809, Note_on_c, 0, 70, 0
3, 216900, Note_on_c, 0, 70, 37
3, 216900, Note_on_c, 0, 74, 37
3, 216989, Note_on_c, 0, 74, 0
3, 216989, Note_on_c, 0, 70, 0
3, 217080, Note_on_c, 0, 70, 38
3, 217080, Note_on_c, 0, 74, 38
3, 217080, Note_on_c, 0, 69, 60
3, 217169, Note_on_c, 0, 74, 0
3, 217169, Note_on_c, 0, 70, 0
3, 217259, Note_on_c, 0, 69, 0
3, 217260, Note_on_c, 0, 70, 40
3, 217260, Note_on_c, 0, 74, 40
3, 217349, Note_on_c, 0, 74, 0
3, 217349, Note_on_c, 0, 70, 0
3, 217440, Note_on_c, 0, 70, 32
3, 217440, Note_on_c, 0, 74, 32
3, 217440, Note_on_c, 0, 67, 64
3, 217619, Note_on_c, 0, 67, 0
3, 217620, Note_on_c, 0, 74, 0
3, 217620, Note_on_c, 0, 70, 0
3, 217620, Note_on_c, 0, 70, 37
3, 217620, Note_on_c, 0, 74, 37
3, 217800, Note_on_c, 0, 74, 0
3, 217800, Note_on_c, 0, 70, 0
3, 217800, Note_on_c, 0, 70, 35
3, 217800, Note_on_c, 0, 74, 35
3, 217800, Note_on_c, 0, 65, 59
3, 217979, Note_on_c, 0, 65, 0
3, 217980, Note_on_c, 0, 74, 0
3, 217980, Note_on_c, 0, 70, 0
3, 217980, Note_on_c, 0, 70, 43
3, 217980, Note_on_c, 0, 74, 43
3, 218160, Note_on_c, 0, 74, 0
3, 218160, Note_on_c, 0, 70, 0
3, 218160, Note_on_c, 0, 70, 37
3, 218160, Note_on_c, 0, 74, 37
3, 218160, Note_on_c, 0, 62, 45
3, 218160, Note_on_c, 0, 26, 32
3, 218160, Note_on_c, 0, 38, 32
3, 218280, Note_on_c, 0, 74, 0
3, 218280, Note_on_c, 0, 70, 0
3, 218280, Note_on_c, 0, 62, 24
3, 218340, Note_on_c, 0, 26, 0
3, 218340, Note_on_c, 0, 38, 0
3, 218340, Note_on_c, 0, 46, 40
3, 218399, Note_on_c, 0, 62, 0
3, 218399, Note_on_c, 0, 70, 48
3, 218520, Note_on_c, 0, 70, 0
3, 218520, Note_on_c, 0, 46, 0
3, 218520, Note_on_c, 0, 74, 46
3, 218520, Note_on_c, 0, 50, 43
3, 218640, Note_on_c, 0, 74, 0
3, 218640, Note_on_c, 0, 70, 35
3, 218700, Note_on_c, 0, 50, 0
3, 218700, Note_on_c, 0, 53, 42
3, 218759, Note_on_c, 0, 70, 0
3, 218759, Note_on_c, 0, 62, 29
3, 218880, Note_on_c, 0, 53, 0
3, 218880, Note_on_c, 0, 62, 0
3, 218880, Note_on_c, 0, 70, 46
3, 218880, Note_on_c, 0, 55, 35
3, 219000, Note_on_c, 0, 70, 0
3, 219000, Note_on_c, 0, 62, 28
3, 219119, Note_on_c, 0, 62, 0
3, 219119, Note_on_c, 0, 70, 43
3, 219240, Note_on_c, 0, 70, 0
3, 219240, Note_on_c, 0, 74, 43
3, 219360, Note_on_c, 0, 74, 0
3, 219360, Note_on_c, 0, 70, 35
3, 219420, Note_on_c, 0, 55, 0
3, 219420, Note_on_c, 0, 53, 34
3, 219427, Note_on_c, 0, 62, 0
3, 219479, Note_on_c, 0, 70, 0
3, 219479, Note_on_c, 0, 62, 27
3, 219600, Note_on_c, 0, 62, 0
3, 219600, Note_on_c, 0, 53, 0
3, 219600, Note_on_c, 0, 70, 45
3, 219600, Note_on_c, 0, 50, 35
3, 219720, Note_on_c, 0, 70, 0
3, 219720, Note_on_c, 0, 62, 31
3, 219780, Note_on_c, 0, 50, 0
3, 219780, Note_on_c, 0, 58, 42
3, 219839, Note_on_c, 0, 62, 0
3, 219839, Note_on_c, 0, 70, 48
3, 219960, Note_on_c, 0, 70, 0
3, 219960, Note_on_c, 0, 58, 0
3, 219960, Note_on_c, 0, 74, 44
3, 219960, Note_on_c, 0, 62, 45
3, 220080, Note_on_c, 0, 74, 0
3, 220080, Note_on_c, 0, 70, 35
3, 220140, Note_on_c, 0, 62, 0
3, 220140, Note_on_c, 0, 65, 47
3, 220199, Note_on_c, 0, 70, 0
3, 220199, Note_on_c, 0, 62, 28
3, 220320, Note_on_c, 0, 62, 0
3, 220320, Note_on_c, 0, 65, 0
3, 220320, Note_on_c, 0, 70, 47
3, 220320, Note_on_c, 0, 67, 41
3, 220440, Note_on_c, 0, 70, 0
3, 220440, Note_on_c, 0, 62, 29
3, 220559, Note_on_c, 0, 62, 0
3, 220559, Note_on_c, 0, 70, 46
3, 220680, Note_on_c, 0, 70, 0
3, 220680, Note_on_c, 0, 74, 46
3, 220800, Note_on_c, 0, 74, 0
3, 220800, Note_on_c, 0, 70, 35
3, 220860, Note_on_c, 0, 67, 0
3, 220860, Note_on_c, 0, 65, 39
3, 220919, Note_on_c, 0, 70, 0
3, 220919, Note_on_c, 0, 62, 26
3, 221040, Note_on_c, 0, 62, 0
3, 221040, Note_on_c, 0, 65, 0
3, 221040, Note_on_c, 0, 69, 41
3, 221040, Note_on_c, 0, 38, 30
3, 221160, Note_on_c, 0, 69, 0
3, 221160, Note_on_c, 0, 62, 26
3, 221220, Note_on_c, 0, 38, 0
3, 221220, Note_on_c, 0, 45, 40
3, 221279, Note_on_c, 0, 62, 0
3, 221279, Note_on_c, 0, 69, 51
3, 221400, Note_on_c, 0, 69, 0
3, 221400, Note_on_c, 0, 45, 0
3, 221400, Note_on_c, 0, 74, 48
3, 221400, Note_on_c, 0, 50, 40
3, 221520, Note_on_c, 0, 74, 0
3, 221520, Note_on_c, 0, 69, 32
3, 221580, Note_on_c, 0, 50, 0
3, 221580, Note_on_c, 0, 53, 45
3, 221639, Note_on_c, 0, 69, 0
3, 221639, Note_on_c, 0, 62, 30
3, 221760, Note_on_c, 0, 62, 0
3, 221760, Note_on_c, 0, 53, 0
3, 221760, Note_on_c, 0, 69, 45
3, 221760, Note_on_c, 0, 55, 35
3, 221880, Note_on_c, 0, 69, 0
3, 221880, Note_on_c, 0, 62, 33
3, 221999, Note_on_c, 0, 62, 0
3, 221999, Note_on_c, 0, 69, 50
3, 222120, Note_on_c, 0, 69, 0
3, 222120, Note_on_c, 0, 74, 45
3, 222240, Note_on_c, 0, 74, 0
3, 222240, Note_on_c, 0, 69, 30
3, 222300, Note_on_c, 0, 55, 0
3, 222300, Note_on_c, 0, 53, 39
3, 222359, Note_on_c, 0, 69, 0
3, 222359, Note_on_c, 0, 62, 33
3, 222480, Note_on_c, 0, 62, 0
3, 222480, Note_on_c, 0, 53, 0
3, 222480, Note_on_c, 0, 69, 46
3, 222480, Note_on_c, 0, 50, 35
3, 222600, Note_on_c, 0, 69, 0
3, 222600, Note_on_c, 0, 62, 32
3, 222660, Note_on_c, 0, 50, 0
3, 222660, Note_on_c, 0, 57, 38
3, 222719, Note_on_c, 0, 62, 0
3, 222719, Note_on_c, 0, 69, 45
3, 222840, Note_on_c, 0, 69, 0
3, 222840, Note_on_c, 0, 57, 0
3, 222840, Note_on_c, 0, 74, 48
3, 222840, Note_on_c, 0, 62, 46
3, 222960, Note_on_c, 0, 74, 0
3, 222960, Note_on_c, 0, 69, 34
3, 223020, Note_on_c, 0, 62, 0
3, 223020, Note_on_c, 0, 65, 45
3, 223079, Note_on_c, 0, 69, 0
3, 223079, Note_on_c, 0, 62, 28
3, 223200, Note_on_c, 0, 62, 0
3, 223200, Note_on_c, 0, 65, 0
3, 223200, Note_on_c, 0, 69, 48
3, 223200, Note_on_c, 0, 67, 38
3, 223320, Note_on_c, 0, 69, 0
3, 223320, Note_on_c, 0, 62, 29
3, 223439, Note_on_c, 0, 62, 0
3, 223439, Note_on_c, 0, 69, 43
3, 223560, Note_on_c, 0, 69, 0
3, 223560, Note_on_c, 0, 74, 47
3, 223680, Note_on_c, 0, 74, 0
3, 223680, Note_on_c, 0, 69, 35
3, 223740, Note_on_c, 0, 67, 0
3, 223740, Note_on_c, 0, 65, 32
3, 223799, Note_on_c, 0, 69, 0
3, 223799, Note_on_c, 0, 62, 29
3, 223920, Note_on_c, 0, 62, 0
3, 223920, Note_on_c, 0, 65, 0
3, 223920, Note_on_c, 0, 68, 45
3, 223920, Note_on_c, 0, 38, 32
3, 224040, Note_on_c, 0, 68, 0
3, 224040, Note_on_c, 0, 60, 32
3, 224100, Note_on_c, 0, 38, 0
3, 224100, Note_on_c, 0, 44, 41
3, 224159, Note_on_c, 0, 60, 0
3, 224159, Note_on_c, 0, 68, 47
3, 224280, Note_on_c, 0, 68, 0
3, 224280, Note_on_c, 0, 44, 0
3, 224280, Note_on_c, 0, 72, 44
3, 224280, Note_on_c, 0, 48, 45
3, 224400, Note_on_c, 0, 72, 0
3, 224400, Note_on_c, 0, 68, 34
3, 224460, Note_on_c, 0, 48, 0
3, 224460, Note_on_c, 0, 53, 43
3, 224519, Note_on_c, 0, 68, 0
3, 224519, Note_on_c, 0, 60, 30
3, 224640, Note_on_c, 0, 60, 0
3, 224640, Note_on_c, 0, 53, 0
3, 224640, Note_on_c, 0, 68, 48
3, 224640, Note_on_c, 0, 55, 42
3, 224760, Note_on_c, 0, 68, 0
3, 224760, Note_on_c, 0, 60, 30
3, 224879, Note_on_c, 0, 60, 0
3, 224879, Note_on_c, 0, 68, 42
3, 225000, Note_on_c, 0, 68, 0
3, 225000, Note_on_c, 0, 72, 45
3, 225120, Note_on_c, 0, 72, 0
3, 225120, Note_on_c, 0, 68, 32
3, 225180, Note_on_c, 0, 55, 0
3, 225180, Note_on_c, 0, 53, 40
3, 225239, Note_on_c, 0, 68, 0
3, 225239, Note_on_c, 0, 60, 28
3, 225360, Note_on_c, 0, 60, 0
3, 225360, Note_on_c, 0, 53, 0
3, 225360, Note_on_c, 0, 68, 45
3, 225360, Note_on_c, 0, 50, 37
3, 225480, Note_on_c, 0, 68, 0
3, 225480, Note_on_c, 0, 60, 29
3, 225540, Note_on_c, 0, 50, 0
3, 225540, Note_on_c, 0, 56, 40
3, 225599, Note_on_c, 0, 60, 0
3, 225599, Note_on_c, 0, 68, 45
3, 225720, Note_on_c, 0, 68, 0
3, 225720, Note_on_c, 0, 56, 0
3, 225720, Note_on_c, 0, 72, 42
3, 225720, Note_on_c, 0, 60, 45
3, 225840, Note_on_c, 0, 72, 0
3, 225840, Note_on_c, 0, 68, 36
3, 225900, Note_on_c, 0, 60, 0
3, 225900, Note_on_c, 0, 65, 44
3, 225959, Note_on_c, 0, 68, 0
3, 225959, Note_on_c, 0, 60, 26
3, 226080, Note_on_c, 0, 60, 0
3, 226080, Note_on_c, 0, 65, 0
3, 226080, Note_on_c, 0, 68, 45
3, 226080, Note_on_c, 0, 67, 42
3, 226200, Note_on_c, 0, 68, 0
3, 226200, Note_on_c, 0, 60, 27
3, 226319, Note_on_c, 0, 60, 0
3, 226319, Note_on_c, 0, 68, 44
3, 226440, Note_on_c, 0, 68, 0
3, 226440, Note_on_c, 0, 72, 43
3, 226560, Note_on_c, 0, 72, 0
3, 226560, Note_on_c, 0, 68, 35
3, 226620, Note_on_c, 0, 67, 0
3, 226620, Note_on_c, 0, 65, 36
3, 226679, Note_on_c, 0, 68, 0
3, 226679, Note_on_c, 0, 60, 28
3, 226800, Note_on_c, 0, 60, 0
3, 226800, Note_on_c, 0, 65, 0
3, 226800, Note_on_c, 0, 67, 44
3, 226800, Note_on_c, 0, 38, 31
3, 226920, Note_on_c, 0, 67, 0
3, 226920, Note_on_c, 0, 59, 37
3, 226980, Note_on_c, 0, 38, 0
3, 226980, Note_on_c, 0, 43, 40
3, 227039, Note_on_c, 0, 59, 0
3, 227039, Note_on_c, 0, 67, 44
3, 227160, Note_on_c, 0, 67, 0
3, 227160, Note_on_c, 0, 43, 0
3, 227160, Note_on_c, 0, 71, 46
3, 227160, Note_on_c, 0, 47, 44
3, 227280, Note_on_c, 0, 71, 0
3, 227280, Note_on_c, 0, 67, 35
3, 227340, Note_on_c, 0, 47, 0
3, 227340, Note_on_c, 0, 53, 39
3, 227399, Note_on_c, 0, 67, 0
3, 227399, Note_on_c, 0, 59, 33
3, 227520, Note_on_c, 0, 59, 0
3, 227520, Note_on_c, 0, 53, 0
3, 227520, Note_on_c, 0, 67, 43
3, 227520, Note_on_c, 0, 55, 38
3, 227640, Note_on_c, 0, 67, 0
3, 227640, Note_on_c, 0, 59, 31
3, 227759, Note_on_c, 0, 59, 0
3, 227759, Note_on_c, 0, 67, 45
3, 227880, Note_on_c, 0, 67, 0
3, 227880, Note_on_c, 0, 71, 45
3, 228000, Note_on_c, 0, 71, 0
3, 228000, Note_on_c, 0, 67, 34
3, 228060, Note_on_c, 0, 55, 0
3, 228060, Note_on_c, 0, 53, 35
3, 228119, Note_on_c, 0, 67, 0
3, 228119, Note_on_c, 0, 59, 31
3, 228240, Note_on_c, 0, 59, 0
3, 228240, Note_on_c, 0, 53, 0
3, 228240, Note_on_c, 0, 67, 51
3, 228240, Note_on_c, 0, 50, 39
3, 228360, Note_on_c, 0, 67, 0
3, 228360, Note_on_c, 0, 59, 33
3, 228420, Note_on_c, 0, 50, 0
3, 228420, Note_on_c, 0, 55, 42
3, 228479, Note_on_c, 0, 59, 0
3, 228479, Note_on_c, 0, 67, 44
3, 228600, Note_on_c, 0, 67, 0
3, 228600, Note_on_c, 0, 55, 0
3, 228600, Note_on_c, 0, 71, 43
3, 228600, Note_on_c, 0, 59, 37
3, 228720, Note_on_c, 0, 71, 0
3, 228720, Note_on_c, 0, 67, 35
3, 228780, Note_on_c, 0, 59, 0
3, 228780, Note_on_c, 0, 65, 47
3, 228839, Note_on_c, 0, 67, 0
3, 228839, Note_on_c, 0, 59, 35
3, 228960, Note_on_c, 0, 59, 0
3, 228960, Note_on_c, 0, 65, 0
3, 228960, Note_on_c, 0, 67, 46
3, 229080, Note_on_c, 0, 59, 34
3, 229199, Note_on_c, 0, 59, 0
3, 229199, Note_on_c, 0, 67, 50
3, 229320, Note_on_c, 0, 67, 0
3, 229320, Note_on_c, 0, 71, 44
3, 229440, Note_on_c, 0, 71, 0
3, 229440, Note_on_c, 0, 67, 36
3, 229500, Note_on_c, 0, 67, 0
3, 229500, Note_on_c, 0, 65, 35
3, 229559, Note_on_c, 0, 67, 0
3, 229559, Note_on_c, 0, 59, 31
3, 229680, Note_on_c, 0, 59, 0
3, 229680, Note_on_c, 0, 65, 0
3, 229680, Note_on_c, 0, 67, 45
3, 229680, Note_on_c, 0, 36, 31
3, 229800, Note_on_c, 0, 67, 0
3, 229800, Note_on_c, 0, 58, 33
3, 229860, Note_on_c, 0, 36, 0
3, 229860, Note_on_c, 0, 43, 44
3, 229919, Note_on_c, 0, 58, 0
3, 229919, Note_on_c, 0, 67, 48
3, 230040, Note_on_c, 0, 67, 0
3, 230040, Note_on_c, 0, 43, 0
3, 230040, Note_on_c, 0, 70, 47
3, 230040, Note_on_c, 0, 46, 42
3, 230160, Note_on_c, 0, 70, 0
3, 230160, Note_on_c, 0, 67, 37
3, 230220, Note_on_c, 0, 46, 0
3, 230220, Note_on_c, 0, 51, 40
3, 230279, Note_on_c, 0, 67, 0
3, 230279, Note_on_c, 0, 58, 34
3, 230400, Note_on_c, 0, 58, 0
3, 230400, Note_on_c, 0, 51, 0
3, 230400, Note_on_c, 0, 67, 51
3, 230400, Note_on_c, 0, 53, 40
3, 230520, Note_on_c, 0, 67, 0
3, 230520, Note_on_c, 0, 58, 34
3, 230639, Note_on_c, 0, 58, 0
3, 230639, Note_on_c, 0, 67, 47
3, 230760, Note_on_c, 0, 67, 0
3, 230760, Note_on_c, 0, 70, 44
3, 230880, Note_on_c, 0, 70, 0
3, 230880, Note_on_c, 0, 67, 40
3, 230940, Note_on_c, 0, 53, 0
3, 230940, Note_on_c, 0, 51, 37
3, 230999, Note_on_c, 0, 67, 0
3, 230999, Note_on_c, 0, 58, 32
3, 231120, Note_on_c, 0, 58, 0
3, 231120, Note_on_c, 0, 51, 0
3, 231120, Note_on_c, 0, 66, 44
3, 231120, Note_on_c, 0, 48, 33
3, 231240, Note_on_c, 0, 66, 0
3, 231240, Note_on_c, 0, 58, 37
3, 231300, Note_on_c, 0, 48, 0
3, 231300, Note_on_c, 0, 54, 42
3, 231359, Note_on_c, 0, 58, 0
3, 231359, Note_on_c, 0, 66, 45
3, 231480, Note_on_c, 0, 66, 0
3, 231480, Note_on_c, 0, 54, 0
3, 231480, Note_on_c, 0, 70, 49
3, 231480, Note_on_c, 0, 58, 35
3, 231600, Note_on_c, 0, 70, 0
3, 231600, Note_on_c, 0, 66, 36
3, 231660, Note_on_c, 0, 58, 0
3, 231660, Note_on_c, 0, 63, 45
3, 231719, Note_on_c, 0, 66, 0
3, 231719, Note_on_c, 0, 58, 33
3, 231840, Note_on_c, 0, 58, 0
3, 231840, Note_on_c, 0, 63, 0
3, 231840, Note_on_c, 0, 66, 46
3, 231840, Note_on_c, 0, 65, 40
3, 231960, Note_on_c, 0, 66, 0
3, 231960, Note_on_c, 0, 58, 33
3, 232079, Note_on_c, 0, 58, 0
3, 232079, Note_on_c, 0, 66, 47
3, 232200, Note_on_c, 0, 66, 0
3, 232200, Note_on_c, 0, 70, 43
3, 232320, Note_on_c, 0, 70, 0
3, 232320, Note_on_c, 0, 66, 31
3, 232380, Note_on_c, 0, 65, 0
3, 232380, Note_on_c, 0, 63, 32
3, 232439, Note_on_c, 0, 66, 0
3, 232439, Note_on_c, 0, 58, 35
3, 232560, Note_on_c, 0, 58, 0
3, 232560, Note_on_c, 0, 63, 0
3, 232560, Note_on_c, 0, 67, 46
3, 232560, Note_on_c, 0, 43, 31
3, 232680, Note_on_c, 0, 67, 0
3, 232680, Note_on_c, 0, 58, 34
3, 232740, Note_on_c, 0, 43, 0
3, 232740, Note_on_c, 0, 50, 42
3, 232799, Note_on_c, 0, 58, 0
3, 232799, Note_on_c, 0, 67, 50
3, 232920, Note_on_c, 0, 67, 0
3, 232920, Note_on_c, 0, 50, 0
3, 232920, Note_on_c, 0, 70, 46
3, 232920, Note_on_c, 0, 55, 41
3, 233040, Note_on_c, 0, 70, 0
3, 233040, Note_on_c, 0, 67, 37
3, 233100, Note_on_c, 0, 55, 0
3, 233100, Note_on_c, 0, 58, 38
3, 233159, Note_on_c, 0, 67, 0
3, 233159, Note_on_c, 0, 58, 32
3, 233280, Note_on_c, 0, 58, 0
3, 233280, Note_on_c, 0, 58, 0
3, 233280, Note_on_c, 0, 67, 46
3, 233280, Note_on_c, 0, 63, 41
3, 233400, Note_on_c, 0, 67, 0
3, 233400, Note_on_c, 0, 58, 38
3, 233519, Note_on_c, 0, 58, 0
3, 233519, Note_on_c, 0, 67, 49
3, 233640, Note_on_c, 0, 67, 0
3, 233640, Note_on_c, 0, 70, 40
3, 233760, Note_on_c, 0, 70, 0
3, 233760, Note_on_c, 0, 67, 31
3, 233820, Note_on_c, 0, 63, 0
3, 233820, Note_on_c, 0, 62, 38
3, 233879, Note_on_c, 0, 67, 0
3, 233879, Note_on_c, 0, 58, 27
3, 234000, Note_on_c, 0, 58, 0
3, 234000, Note_on_c, 0, 62, 0
3, 234000, Note_on_c, 0, 67, 44
3, 234000, Note_on_c, 0, 51, 44
3, 234120, Note_on_c, 0, 67, 0
3, 234120, Note_on_c, 0, 58, 37
3, 234158, Note_on_c, 0, 51, 0
3, 234180, Note_on_c, 0, 52, 54
3, 234239, Note_on_c, 0, 58, 0
3, 234239, Note_on_c, 0, 67, 42
3, 234338, Note_on_c, 0, 52, 0
3, 234360, Note_on_c, 0, 67, 0
3, 234360, Note_on_c, 0, 70, 44
3, 234360, Note_on_c, 0, 55, 53
3, 234480, Note_on_c, 0, 70, 0
3, 234480, Note_on_c, 0, 67, 37
3, 234518, Note_on_c, 0, 55, 0
3, 234540, Note_on_c, 0, 61, 53
3, 234599, Note_on_c, 0, 67, 0
3, 234599, Note_on_c, 0, 58, 33
3, 234698, Note_on_c, 0, 61, 0
3, 234720, Note_on_c, 0, 58, 0
3, 234720, Note_on_c, 0, 67, 47
3, 234720, Note_on_c, 0, 62, 52
3, 234840, Note_on_c, 0, 67, 0
3, 234840, Note_on_c, 0, 58, 31
3, 234959, Note_on_c, 0, 58, 0
3, 234959, Note_on_c, 0, 67, 52
3, 235080, Note_on_c, 0, 67, 0
3, 235080, Note_on_c, 0, 70, 42
3, 235194, Note_on_c, 0, 62, 0
3, 235200, Note_on_c, 0, 70, 0
3, 235200, Note_on_c, 0, 67, 34
3, 235260, Note_on_c, 0, 61, 52
3, 235319, Note_on_c, 0, 67, 0
3, 235319, Note_on_c, 0, 58, 30
3, 235418, Note_on_c, 0, 61, 0
3, 235440, Note_on_c, 0, 58, 0
3, 235440, Note_on_c, 0, 62, 44
3, 235440, Note_on_c, 0, 45, 30
3, 235560, Note_on_c, 0, 62, 0
3, 235560, Note_on_c, 0, 54, 33
3, 235620, Note_on_c, 0, 45, 0
3, 235620, Note_on_c, 0, 38, 31
3, 235679, Note_on_c, 0, 54, 0
3, 235679, Note_on_c, 0, 62, 44
3, 235800, Note_on_c, 0, 62, 0
3, 235800, Note_on_c, 0, 38, 0
3, 235800, Note_on_c, 0, 66, 47
3, 235800, Note_on_c, 0, 45, 43
3, 235920, Note_on_c, 0, 66, 0
3, 235920, Note_on_c, 0, 57, 30
3, 235980, Note_on_c, 0, 45, 0
3, 235980, Note_on_c, 0, 50, 40
3, 236039, Note_on_c, 0, 57, 0
3, 236039, Note_on_c, 0, 54, 37
3, 236160, Note_on_c, 0, 54, 0
3, 236160, Note_on_c, 0, 50, 0
3, 236160, Note_on_c, 0, 62, 48
3, 236160, Note_on_c, 0, 54, 42
3, 236280, Note_on_c, 0, 62, 0
3, 236280, Note_on_c, 0, 54, 39
3, 236399, Note_on_c, 0, 54, 0
3, 236399, Note_on_c, 0, 62, 46
3, 236520, Note_on_c, 0, 62, 0
3, 236520, Note_on_c, 0, 54, 0
3, 236520, Note_on_c, 0, 66, 45
3, 236520, Note_on_c, 0, 50, 37
3, 236640, Note_on_c, 0, 50, 0
3, 236640, Note_on_c, 0, 66, 0
3, 236640, Note_on_c, 0, 62, 33
3, 236640, Note_on_c, 0, 48, 38
3, 236759, Note_on_c, 0, 48, 0
3, 236759, Note_on_c, 0, 62, 0
3, 236759, Note_on_c, 0, 55, 36
3, 236759, Note_on_c, 0, 46, 27
3, 236880, Note_on_c, 0, 46, 0
3, 236880, Note_on_c, 0, 55, 0
3, 236880, Note_on_c, 0, 62, 43
3, 236880, Note_on_c, 0, 45, 36
3, 237000, Note_on_c, 0, 62, 0
3, 237000, Note_on_c, 0, 54, 35
3, 237060, Note_on_c, 0, 45, 0
3, 237060, Note_on_c, 0, 38, 34
3, 237119, Note_on_c, 0, 54, 0
3, 237119, Note_on_c, 0, 62, 47
3, 237240, Note_on_c, 0, 62, 0
3, 237240, Note_on_c, 0, 38, 0
3, 237240, Note_on_c, 0, 66, 42
3, 237240, Note_on_c, 0, 45, 43
3, 237360, Note_on_c, 0, 66, 0
3, 237360, Note_on_c, 0, 57, 35
3, 237420, Note_on_c, 0, 45, 0
3, 237420, Note_on_c, 0, 50, 41
3, 237479, Note_on_c, 0, 57, 0
3, 237479, Note_on_c, 0, 54, 37
3, 237600, Note_on_c, 0, 54, 0
3, 237600, Note_on_c, 0, 50, 0
3, 237600, Note_on_c, 0, 62, 45
3, 237600, Note_on_c, 0, 54, 40
3, 237720, Note_on_c, 0, 62, 0
3, 237720, Note_on_c, 0, 54, 33
3, 237839, Note_on_c, 0, 54, 0
3, 237839, Note_on_c, 0, 62, 51
3, 237960, Note_on_c, 0, 62, 0
3, 237960, Note_on_c, 0, 54, 0
3, 237960, Note_on_c, 0, 66, 46
3, 237960, Note_on_c, 0, 50, 35
3, 238080, Note_on_c, 0, 50, 0
3, 238080, Note_on_c, 0, 66, 0
3, 238080, Note_on_c, 0, 62, 34
3, 238080, Note_on_c, 0, 48, 36
3, 238199, Note_on_c, 0, 48, 0
3, 238199, Note_on_c, 0, 62, 0
3, 238199, Note_on_c, 0, 55, 33
3, 238199, Note_on_c, 0, 46, 34
3, 238320, Note_on_c, 0, 46, 0
3, 238320, Note_on_c, 0, 55, 0
3, 238320, Note_on_c, 0, 62, 38
3, 238320, Note_on_c, 0, 45, 38
3, 238320, Note_on_c, 0, 38, 38
3, 238440, Note_on_c, 0, 62, 0
3, 238440, Note_on_c, 0, 54, 38
3, 238559, Note_on_c, 0, 54, 0
3, 238559, Note_on_c, 0, 62, 38
3, 238680, Note_on_c, 0, 62, 0
3, 238680, Note_on_c, 0, 45, 0
3, 238680, Note_on_c, 0, 66, 38
3, 238680, Note_on_c, 0, 50, 38
3, 238800, Note_on_c, 0, 50, 0
3, 238800, Note_on_c, 0, 66, 0
3, 238800, Note_on_c, 0, 62, 38
3, 238800, Note_on_c, 0, 48, 38
3, 238919, Note_on_c, 0, 48, 0
3, 238919, Note_on_c, 0, 62, 0
3, 238919, Note_on_c, 0, 54, 38
3, 238919, Note_on_c, 0, 46, 38
3, 239040, Note_on_c, 0, 46, 0
3, 239040, Note_on_c, 0, 54, 0
3, 239040, Note_on_c, 0, 62, 38
3, 239040, Note_on_c, 0, 48, 38
3, 239160, Note_on_c, 0, 62, 0
3, 239160, Note_on_c, 0, 54, 38
3, 239279, Note_on_c, 0, 54, 0
3, 239279, Note_on_c, 0, 62, 38
3, 239400, Note_on_c, 0, 62, 0
3, 239400, Note_on_c, 0, 48, 0
3, 239400, Note_on_c, 0, 64, 38
3, 239400, Note_on_c, 0, 46, 38
3, 239520, Note_on_c, 0, 64, 0
3, 239520, Note_on_c, 0, 62, 38
3, 239639, Note_on_c, 0, 62, 0
3, 239639, Note_on_c, 0, 55, 39
3, 239760, Note_on_c, 0, 55, 0
3, 239760, Note_on_c, 0, 46, 0
3, 239760, Note_on_c, 0, 38, 0
3, 239760, Note_on_c, 0, 62, 39
3, 239760, Note_on_c, 0, 45, 39
3, 239760, Note_on_c, 0, 38, 39
3, 239880, Note_on_c, 0, 62, 0
3, 239880, Note_on_c, 0, 54, 39
3, 239999, Note_on_c, 0, 54, 0
3, 239999, Note_on_c, 0, 50, 39
3, 240120, Note_on_c, 0, 50, 0
3, 240120, Note_on_c, 0, 45, 0
3, 240120, Note_on_c, 0, 62, 39
3, 240120, Note_on_c, 0, 43, 39
3, 240240, Note_on_c, 0, 43, 0
3, 240240, Note_on_c, 0, 62, 0
3, 240240, Note_on_c, 0, 58, 39
3, 240240, Note_on_c, 0, 42, 39
3, 240359, Note_on_c, 0, 42, 0
3, 240359, Note_on_c, 0, 58, 0
3, 240359, Note_on_c, 0, 50, 39
3, 240359, Note_on_c, 0, 43, 39
3, 240480, Note_on_c, 0, 43, 0
3, 240480, Note_on_c, 0, 50, 0
3, 240480, Note_on_c, 0, 62, 39
3, 240480, Note_on_c, 0, 42, 39
3, 240600, Note_on_c, 0, 62, 0
3, 240600, Note_on_c, 0, 57, 39
3, 240719, Note_on_c, 0, 57, 0
3, 240719, Note_on_c, 0, 50, 39
3, 240840, Note_on_c, 0, 50, 0
3, 240840, Note_on_c, 0, 42, 0
3, 240840, Note_on_c, 0, 65, 39
3, 240840, Note_on_c, 0, 68, 39
3, 240840, Note_on_c, 0, 41, 39
3, 240960, Note_on_c, 0, 68, 0
3, 240960, Note_on_c, 0, 65, 0
3, 240960, Note_on_c, 0, 60, 39
3, 241079, Note_on_c, 0, 60, 0
3, 241079, Note_on_c, 0, 56, 39
3, 241200, Note_on_c, 0, 56, 0
3, 241200, Note_on_c, 0, 38, 0
3, 241200, Note_on_c, 0, 65, 39
3, 241200, Note_on_c, 0, 67, 39
3, 241200, Note_on_c, 0, 38, 39
3, 241320, Note_on_c, 0, 67, 0
3, 241320, Note_on_c, 0, 65, 0
3, 241320, Note_on_c, 0, 59, 40
3, 241439, Note_on_c, 0, 59, 0
3, 241439, Note_on_c, 0, 55, 40
3, 241560, Note_on_c, 0, 55, 0
3, 241560, Note_on_c, 0, 41, 0
3, 241560, Note_on_c, 0, 59, 40
3, 241560, Note_on_c, 0, 53, 40
3, 241680, Note_on_c, 0, 53, 0
3, 241680, Note_on_c, 0, 59, 0
3, 241680, Note_on_c, 0, 60, 40
3, 241680, Note_on_c, 0, 51, 40
3, 241799, Note_on_c, 0, 51, 0
3, 241799, Note_on_c, 0, 60, 0
3, 241799, Note_on_c, 0, 59, 40
3, 241799, Note_on_c, 0, 50, 40
3, 241920, Note_on_c, 0, 50, 0
3, 241920, Note_on_c, 0, 59, 0
3, 241920, Note_on_c, 0, 59, 40
3, 241920, Note_on_c, 0, 50, 40
3, 242040, Note_on_c, 0, 50, 0
3, 242040, Note_on_c, 0, 59, 0
3, 242040, Note_on_c, 0, 56, 40
3, 242040, Note_on_c, 0, 48, 40
3, 242159, Note_on_c, 0, 48, 0
3, 242159, Note_on_c, 0, 56, 0
3, 242159, Note_on_c, 0, 55, 40
3, 242159, Note_on_c, 0, 47, 40
3, 242280, Note_on_c, 0, 47, 0
3, 242280, Note_on_c, 0, 55, 0
3, 242280, Note_on_c, 0, 38, 0
3, 242280, Note_on_c, 0, 65, 40
3, 242280, Note_on_c, 0, 68, 40
3, 242280, Note_on_c, 0, 47, 40
3, 242280, Note_on_c, 0, 38, 40
3, 242400, Note_on_c, 0, 68, 0
3, 242400, Note_on_c, 0, 65, 0
3, 242400, Note_on_c, 0, 62, 40
3, 242519, Note_on_c, 0, 62, 0
3, 242519, Note_on_c, 0, 47, 0
3, 242519, Note_on_c, 0, 56, 40
3, 242519, Note_on_c, 0, 48, 40
3, 242640, Note_on_c, 0, 48, 0
3, 242640, Note_on_c, 0, 56, 0
3, 242640, Note_on_c, 0, 38, 0
3, 242640, Note_on_c, 0, 65, 40
3, 242640, Note_on_c, 0, 67, 40
3, 242640, Note_on_c, 0, 47, 40
3, 242640, Note_on_c, 0, 38, 40
3, 242760, Note_on_c, 0, 67, 0
3, 242760, Note_on_c, 0, 65, 0
3, 242760, Note_on_c, 0, 59, 40
3, 242879, Note_on_c, 0, 59, 0
3, 242879, Note_on_c, 0, 55, 40
3, 243000, Note_on_c, 0, 55, 0
3, 243000, Note_on_c, 0, 47, 0
3, 243000, Note_on_c, 0, 59, 41
3, 243000, Note_on_c, 0, 53, 41
3, 243120, Note_on_c, 0, 53, 0
3, 243120, Note_on_c, 0, 59, 0
3, 243120, Note_on_c, 0, 60, 41
3, 243120, Note_on_c, 0, 51, 41
3, 243239, Note_on_c, 0, 51, 0
3, 243239, Note_on_c, 0, 60, 0
3, 243239, Note_on_c, 0, 59, 41
3, 243239, Note_on_c, 0, 50, 41
3, 243360, Note_on_c, 0, 50, 0
3, 243360, Note_on_c, 0, 59, 0
3, 243360, Note_on_c, 0, 59, 41
3, 243360, Note_on_c, 0, 50, 41
3, 243480, Note_on_c, 0, 50, 0
3, 243480, Note_on_c, 0, 59, 0
3, 243480, Note_on_c, 0, 56, 41
3, 243480, Note_on_c, 0, 48, 41
3, 243599, Note_on_c, 0, 48, 0
3, 243599, Note_on_c, 0, 56, 0
3, 243599, Note_on_c, 0, 55, 41
3, 243599, Note_on_c, 0, 47, 41
3, 243720, Note_on_c, 0, 47, 0
3, 243720, Note_on_c, 0, 55, 0
3, 243720, Note_on_c, 0, 38, 0
3, 243720, Note_on_c, 0, 65, 41
3, 243720, Note_on_c, 0, 68, 41
3, 243720, Note_on_c, 0, 47, 41
3, 243720, Note_on_c, 0, 38, 41
3, 243840, Note_on_c, 0, 68, 0
3, 243840, Note_on_c, 0, 65, 0
3, 243840, Note_on_c, 0, 62, 41
3, 243959, Note_on_c, 0, 62, 0
3, 243959, Note_on_c, 0, 47, 0
3, 243959, Note_on_c, 0, 56, 41
3, 243959, Note_on_c, 0, 48, 41
3, 244080, Note_on_c, 0, 48, 0
3, 244080, Note_on_c, 0, 56, 0
3, 244080, Note_on_c, 0, 38, 0
3, 244080, Note_on_c, 0, 65, 41
3, 244080, Note_on_c, 0, 67, 41
3, 244080, Note_on_c, 0, 47, 41
3, 244080, Note_on_c, 0, 38, 41
3, 244200, Note_on_c, 0, 67, 0
3, 244200, Note_on_c, 0, 65, 0
3, 244200, Note_on_c, 0, 62, 41
3, 244319, Note_on_c, 0, 62, 0
3, 244319, Note_on_c, 0, 55, 41
3, 244440, Note_on_c, 0, 55, 0
3, 244440, Note_on_c, 0, 47, 0
3, 244440, Note_on_c, 0, 59, 41
3, 244440, Note_on_c, 0, 55, 41
3, 244560, Note_on_c, 0, 55, 0
3, 244560, Note_on_c, 0, 59, 0
3, 244560, Note_on_c, 0, 62, 41
3, 244560, Note_on_c, 0, 53, 41
3, 244679, Note_on_c, 0, 53, 0
3, 244679, Note_on_c, 0, 62, 0
3, 244679, Note_on_c, 0, 63, 41
3, 244679, Note_on_c, 0, 55, 41
3, 244800, Note_on_c, 0, 55, 0
3, 244800, Note_on_c, 0, 63, 0
3, 244800, Note_on_c, 0, 63, 42
3, 244800, Note_on_c, 0, 67, 42
3, 244800, Note_on_c, 0, 53, 42
3, 244920, Note_on_c, 0, 67, 0
3, 244920, Note_on_c, 0, 63, 0
3, 244920, Note_on_c, 0, 62, 42
3, 245039, Note_on_c, 0, 62, 0
3, 245039, Note_on_c, 0, 59, 42
3, 245160, Note_on_c, 0, 59, 0
3, 245160, Note_on_c, 0, 53, 0
3, 245160, Note_on_c, 0, 60, 42
3, 245160, Note_on_c, 0, 67, 42
3, 245160, Note_on_c, 0, 51, 42
3, 245280, Note_on_c, 0, 67, 0
3, 245280, Note_on_c, 0, 60, 0
3, 245280, Note_on_c, 0, 59, 42
3, 245399, Note_on_c, 0, 59, 0
3, 245399, Note_on_c, 0, 55, 42
3, 245520, Note_on_c, 0, 55, 0
3, 245520, Note_on_c, 0, 38, 0
3, 245520, Note_on_c, 0, 51, 0
3, 245520, Note_on_c, 0, 67, 42
3, 245520, Note_on_c, 0, 50, 42
3, 245520, Note_on_c, 0, 38, 42
3, 245640, Note_on_c, 0, 67, 0
3, 245640, Note_on_c, 0, 59, 42
3, 245759, Note_on_c, 0, 59, 0
3, 245759, Note_on_c, 0, 55, 42
3, 245880, Note_on_c, 0, 55, 0
3, 245880, Note_on_c, 0, 50, 0
3, 245880, Note_on_c, 0, 67, 42
3, 245880, Note_on_c, 0, 48, 42
3, 246000, Note_on_c, 0, 67, 0
3, 246000, Note_on_c, 0, 63, 42
3, 246119, Note_on_c, 0, 63, 0
3, 246119, Note_on_c, 0, 55, 42
3, 246119, Note_on_c, 0, 62, 42
3, 246240, Note_on_c, 0, 62, 0
3, 246240, Note_on_c, 0, 55, 0
3, 246240, Note_on_c, 0, 48, 0
3, 246240, Note_on_c, 0, 67, 42
3, 246240, Note_on_c, 0, 47, 42
3, 246360, Note_on_c, 0, 67, 0
3, 246360, Note_on_c, 0, 62, 42
3, 246479, Note_on_c, 0, 62, 0
3, 246479, Note_on_c, 0, 55, 43
3, 246600, Note_on_c, 0, 55, 0
3, 246600, Note_on_c, 0, 47, 0
3, 246600, Note_on_c, 0, 67, 43
3, 246600, Note_on_c, 0, 71, 43
3, 246600, Note_on_c, 0, 43, 43
3, 246720, Note_on_c, 0, 71, 0
3, 246720, Note_on_c, 0, 67, 0
3, 246720, Note_on_c, 0, 65, 43
3, 246839, Note_on_c, 0, 65, 0
3, 246839, Note_on_c, 0, 43, 0
3, 246839, Note_on_c, 0, 59, 43
3, 246839, Note_on_c, 0, 44, 43
3, 246960, Note_on_c, 0, 44, 0
3, 246960, Note_on_c, 0, 59, 0
3, 246960, Note_on_c, 0, 38, 0
3, 246960, Note_on_c, 0, 67, 43
3, 246960, Note_on_c, 0, 72, 43
3, 246960, Note_on_c, 0, 43, 43
3, 246960, Note_on_c, 0, 38, 43
3, 247080, Note_on_c, 0, 72, 0
3, 247080, Note_on_c, 0, 67, 0
3, 247080, Note_on_c, 0, 63, 43
3, 247199, Note_on_c, 0, 63, 0
3, 247199, Note_on_c, 0, 60, 43
3, 247320, Note_on_c, 0, 60, 0
3, 247320, Note_on_c, 0, 43, 0
3, 247320, Note_on_c, 0, 63, 43
3, 247320, Note_on_c, 0, 55, 43
3, 247440, Note_on_c, 0, 63, 0
3, 247440, Note_on_c, 0, 65, 43
3, 247559, Note_on_c, 0, 65, 0
3, 247559, Note_on_c, 0, 63, 43
3, 247680, Note_on_c, 0, 63, 0
3, 247680, Note_on_c, 0, 63, 43
3, 247680, Note_on_c, 0, 67, 43
3, 247800, Note_on_c, 0, 67, 0
3, 247800, Note_on_c, 0, 63, 0
3, 247800, Note_on_c, 0, 55, 0
3, 247800, Note_on_c, 0, 62, 43
3, 247800, Note_on_c, 0, 53, 43
3, 247919, Note_on_c, 0, 53, 0
3, 247919, Note_on_c, 0, 62, 0
3, 247919, Note_on_c, 0, 60, 43
3, 247919, Note_on_c, 0, 51, 43
3, 248040, Note_on_c, 0, 51, 0
3, 248040, Note_on_c, 0, 60, 0
3, 248040, Note_on_c, 0, 67, 43
3, 248040, Note_on_c, 0, 72, 43
3, 248040, Note_on_c, 0, 51, 43
3, 248160, Note_on_c, 0, 72, 0
3, 248160, Note_on_c, 0, 67, 0
3, 248160, Note_on_c, 0, 63, 44
3, 248279, Note_on_c, 0, 63, 0
3, 248279, Note_on_c, 0, 60, 44
3, 248400, Note_on_c, 0, 60, 0
3, 248400, Note_on_c, 0, 38, 0
3, 248400, Note_on_c, 0, 51, 0
3, 248400, Note_on_c, 0, 67, 44
3, 248400, Note_on_c, 0, 73, 44
3, 248400, Note_on_c, 0, 52, 44
3, 248400, Note_on_c, 0, 38, 44
3, 248520, Note_on_c, 0, 73, 0
3, 248520, Note_on_c, 0, 67, 0
3, 248520, Note_on_c, 0, 64, 44
3, 248639, Note_on_c, 0, 64, 0
3, 248639, Note_on_c, 0, 61, 44
3, 248760, Note_on_c, 0, 61, 0
3, 248760, Note_on_c, 0, 52, 0
3, 248760, Note_on_c, 0, 67, 44
3, 248760, Note_on_c, 0, 58, 44
3, 248880, Note_on_c, 0, 67, 0
3, 248880, Note_on_c, 0, 69, 44
3, 248999, Note_on_c, 0, 69, 0
3, 248999, Note_on_c, 0, 67, 44
3, 249120, Note_on_c, 0, 67, 0
3, 249120, Note_on_c, 0, 67, 44
3, 249240, Note_on_c, 0, 67, 0
3, 249240, Note_on_c, 0, 58, 0
3, 249240, Note_on_c, 0, 66, 44
3, 249240, Note_on_c, 0, 57, 44
3, 249359, Note_on_c, 0, 57, 0
3, 249359, Note_on_c, 0, 66, 0
3, 249359, Note_on_c, 0, 64, 44
3, 249359, Note_on_c, 0, 55, 44
3, 249480, Note_on_c, 0, 55, 0
3, 249480, Note_on_c, 0, 64, 0
3, 249480, Note_on_c, 0, 64, 44
3, 249480, Note_on_c, 0, 73, 44
3, 249480, Note_on_c, 0, 55, 44
3, 249600, Note_on_c, 0, 73, 0
3, 249600, Note_on_c, 0, 64, 0
3, 249600, Note_on_c, 0, 61, 44
3, 249660, Note_on_c, 0, 55, 0
3, 249719, Note_on_c, 0, 61, 0
3, 249719, Note_on_c, 0, 64, 44
3, 249840, Note_on_c, 0, 64, 0
3, 249840, Note_on_c, 0, 38, 0
3, 249840, Note_on_c, 0, 67, 45
3, 249840, Note_on_c, 0, 74, 45
3, 249840, Note_on_c, 0, 55, 45
3, 249840, Note_on_c, 0, 59, 45
3, 249840, Note_on_c, 0, 62, 45
3, 249960, Note_on_c, 0, 74, 0
3, 249960, Note_on_c, 0, 67, 0
3, 249960, Note_on_c, 0, 68, 45
3, 250079, Note_on_c, 0, 68, 0
3, 250079, Note_on_c, 0, 67, 45
3, 250200, Note_on_c, 0, 67, 0
3, 250200, Note_on_c, 0, 59, 0
3, 250200, Note_on_c, 0, 55, 0
3, 250200, Note_on_c, 0, 62, 0
3, 250200, Note_on_c, 0, 65, 45
3, 250200, Note_on_c, 0, 38, 45
3, 250200, Note_on_c, 0, 50, 45
3, 250320, Note_on_c, 0, 65, 0
3, 250320, Note_on_c, 0, 63, 45
3, 250439, Note_on_c, 0, 63, 0
3, 250439, Note_on_c, 0, 62, 45
3, 250560, Note_on_c, 0, 62, 0
3, 250560, Note_on_c, 0, 50, 0
3, 250560, Note_on_c, 0, 38, 0
3, 250560, Note_on_c, 0, 62, 45
3, 250920, Note_on_c, 0, 62, 0
3, 250920, Note_on_c, 0, 63, 45
3, 250920, Note_on_c, 0, 67, 45
3, 250920, Note_on_c, 0, 72, 45
3, 250920, Note_on_c, 0, 75, 45
3, 250920, Note_on_c, 0, 51, 45
3, 250920, Note_on_c, 0, 55, 45
3, 250920, Note_on_c, 0, 60, 45
3, 251280, Note_on_c, 0, 60, 0
3, 251280, Note_on_c, 0, 51, 0
3, 251280, Note_on_c, 0, 67, 0
3, 251280, Note_on_c, 0, 72, 0
3, 251280, Note_on_c, 0, 63, 0
3, 251280, Note_on_c, 0, 55, 0
3, 251280, Note_on_c, 0, 75, 0
3, 251280, Note_on_c, 0, 65, 45
3, 251280, Note_on_c, 0, 70, 45
3, 251280, Note_on_c, 0, 74, 45
3, 251280, Note_on_c, 0, 77, 45
3, 251280, Note_on_c, 0, 53, 45
3, 251280, Note_on_c, 0, 58, 45
3, 251280, Note_on_c, 0, 62, 45
3, 251640, Note_on_c, 0, 62, 0
3, 251640, Note_on_c, 0, 53, 0
3, 251640, Note_on_c, 0, 70, 0
3, 251640, Note_on_c, 0, 74, 0
3, 251640, Note_on_c, 0, 65, 0
3, 251640, Note_on_c, 0, 58, 0
3, 251640, Note_on_c, 0, 77, 0
3, 251640, Note_on_c, 0, 58, 46
3, 251640, Note_on_c, 0, 34, 46
3, 251640, Note_on_c, 0, 46, 46
3, 252000, Note_on_c, 0, 46, 0
3, 252000, Note_on_c, 0, 34, 0
3, 252000, Note_on_c, 0, 58, 0
3, 252000, Note_on_c, 0, 65, 46
3, 252000, Note_on_c, 0, 72, 46
3, 252000, Note_on_c, 0, 74, 46
3, 252000, Note_on_c, 0, 77, 46
3, 252000, Note_on_c, 0, 53, 46
3, 252000, Note_on_c, 0, 60, 46
3, 252000, Note_on_c, 0, 62, 46
3, 252360, Note_on_c, 0, 62, 0
3, 252360, Note_on_c, 0, 53, 0
3, 252360, Note_on_c, 0, 72, 0
3, 252360, Note_on_c, 0, 74, 0
3, 252360, Note_on_c, 0, 65, 0
3, 252360, Note_on_c, 0, 60, 0
3, 252360, Note_on_c, 0, 77, 0
3, 252360, Note_on_c, 0, 56, 46
3, 252360, Note_on_c, 0, 32, 46
3, 252360, Note_on_c, 0, 44, 46
3, 252720, Note_on_c, 0, 44, 0
3, 252720, Note_on_c, 0, 32, 0
3, 252720, Note_on_c, 0, 56, 0
3, 252720, Note_on_c, 0, 67, 46
3, 252720, Note_on_c, 0, 79, 46
3, 252720, Note_on_c, 0, 50, 46
3, 252720, Note_on_c, 0, 55, 46
3, 252720, Note_on_c, 0, 59, 46
3, 252720, Note_on_c, 0, 62, 46
3, 252840, Note_on_c, 0, 79, 0
3, 252840, Note_on_c, 0, 67, 0
3, 252840, Note_on_c, 0, 72, 46
3, 252959, Note_on_c, 0, 72, 0
3, 252959, Note_on_c, 0, 71, 46
3, 253080, Note_on_c, 0, 71, 0
3, 253080, Note_on_c, 0, 59, 0
3, 253080, Note_on_c, 0, 55, 0
3, 253080, Note_on_c, 0, 62, 0
3, 253080, Note_on_c, 0, 50, 0
3, 253080, Note_on_c, 0, 71, 46
3, 253080, Note_on_c, 0, 31, 46
3, 253080, Note_on_c, 0, 43, 46
3, 253200, Note_on_c, 0, 71, 0
3, 253200, Note_on_c, 0, 68, 47
3, 253319, Note_on_c, 0, 68, 0
3, 253319, Note_on_c, 0, 67, 47
3, 253440, Note_on_c, 0, 67, 0
3, 253440, Note_on_c, 0, 43, 0
3, 253440, Note_on_c, 0, 31, 0
3, 253440, Note_on_c, 0, 67, 47
3, 253800, Note_on_c, 0, 67, 0
3, 253800, Note_on_c, 0, 67, 47
3, 253800, Note_on_c, 0, 71, 47
3, 253800, Note_on_c, 0, 74, 47
3, 253800, Note_on_c, 0, 79, 47
3, 253800, Note_on_c, 0, 53, 47
3, 253800, Note_on_c, 0, 55, 47
3, 253800, Note_on_c, 0, 59, 47
3, 253800, Note_on_c, 0, 62, 47
3, 254160, Note_on_c, 0, 62, 0
3, 254160, Note_on_c, 0, 67, 0
3, 254160, Note_on_c, 0, 53, 0
3, 254160, Note_on_c, 0, 71, 0
3, 254160, Note_on_c, 0, 74, 0
3, 254160, Note_on_c, 0, 79, 0
3, 254160, Note_on_c, 0, 55, 0
3, 254160, Note_on_c, 0, 59, 0
3, 254160, Note_on_c, 0, 70, 47
3, 254160, Note_on_c, 0, 75, 47
3, 254160, Note_on_c, 0, 79, 47
3, 254160, Note_on_c, 0, 82, 47
3, 254160, Note_on_c, 0, 55, 47
3, 254160, Note_on_c, 0, 58, 47
3, 254160, Note_on_c, 0, 63, 47
3, 254160, Note_on_c, 0, 67, 47
3, 254520, Note_on_c, 0, 67, 0
3, 254520, Note_on_c, 0, 70, 0
3, 254520, Note_on_c, 0, 55, 0
3, 254520, Note_on_c, 0, 75, 0
3, 254520, Note_on_c, 0, 79, 0
3, 254520, Note_on_c, 0, 82, 0
3, 254520, Note_on_c, 0, 58, 0
3, 254520, Note_on_c, 0, 63, 0
3, 254520, Note_on_c, 0, 63, 47
3, 254520, Note_on_c, 0, 39, 47
3, 254520, Note_on_c, 0, 51, 47
3, 254880, Note_on_c, 0, 51, 0
3, 254880, Note_on_c, 0, 39, 0
3, 254880, Note_on_c, 0, 63, 0
3, 254880, Note_on_c, 0, 70, 47
3, 254880, Note_on_c, 0, 76, 47
3, 254880, Note_on_c, 0, 79, 47
3, 254880, Note_on_c, 0, 82, 47
3, 254880, Note_on_c, 0, 55, 47
3, 254880, Note_on_c, 0, 58, 47
3, 254880, Note_on_c, 0, 64, 47
3, 254880, Note_on_c, 0, 67, 47
3, 255240, Note_on_c, 0, 67, 0
3, 255240, Note_on_c, 0, 70, 0
3, 255240, Note_on_c, 0, 55, 0
3, 255240, Note_on_c, 0, 76, 0
3, 255240, Note_on_c, 0, 79, 0
3, 255240, Note_on_c, 0, 82, 0
3, 255240, Note_on_c, 0, 58, 0
3, 255240, Note_on_c, 0, 64, 0
3, 255240, Note_on_c, 0, 62, 48
3, 255240, Note_on_c, 0, 38, 48
3, 255240, Note_on_c, 0, 50, 48
3, 255600, Note_on_c, 0, 50, 0
3, 255600, Note_on_c, 0, 38, 0
3, 255600, Note_on_c, 0, 62, 0
3, 255600, Note_on_c, 0, 76, 48
3, 255600, Note_on_c, 0, 79, 48
3, 255600, Note_on_c, 0, 81, 48
3, 255600, Note_on_c, 0, 88, 48
3, 255600, Note_on_c, 0, 55, 48
3, 255600, Note_on_c, 0, 57, 48
3, 255600, Note_on_c, 0, 64, 48
3, 255600, Note_on_c, 0, 67, 48
3, 255960, Note_on_c, 0, 67, 0
3, 255960, Note_on_c, 0, 76, 0
3, 255960, Note_on_c, 0, 55, 0
3, 255960, Note_on_c, 0, 79, 0
3, 255960, Note_on_c, 0, 81, 0
3, 255960, Note_on_c, 0, 88, 0
3, 255960, Note_on_c, 0, 57, 0
3, 255960, Note_on_c, 0, 64, 0
3, 255960, Note_on_c, 0, 61, 48
3, 255960, Note_on_c, 0, 37, 48
3, 255960, Note_on_c, 0, 49, 48
3, 256320, Note_on_c, 0, 49, 0
3, 256320, Note_on_c, 0, 37, 0
3, 256320, Note_on_c, 0, 61, 0
3, 256680, Note_on_c, 0, 57, 49
3, 256680, Note_on_c, 0, 45, 49
3, 256800, Note_on_c, 0, 45, 0
3, 256800, Note_on_c, 0, 57, 0
3, 256800, Note_on_c, 0, 64, 49
3, 256800, Note_on_c, 0, 52, 49
3, 256919, Note_on_c, 0, 52, 0
3, 256919, Note_on_c, 0, 64, 0
3, 256919, Note_on_c, 0, 67, 49
3, 256919, Note_on_c, 0, 55, 49
3, 257040, Note_on_c, 0, 55, 0
3, 257040, Note_on_c, 0, 67, 0
3, 257040, Note_on_c, 0, 67, 49
3, 257040, Note_on_c, 0, 55, 49
3, 257160, Note_on_c, 0, 55, 0
3, 257160, Note_on_c, 0, 67, 0
3, 257160, Note_on_c, 0, 69, 49
3, 257160, Note_on_c, 0, 57, 49
3, 257279, Note_on_c, 0, 57, 0
3, 257279, Note_on_c, 0, 69, 0
3, 257279, Note_on_c, 0, 76, 49
3, 257279, Note_on_c, 0, 64, 49
3, 257400, Note_on_c, 0, 64, 0
3, 257400, Note_on_c, 0, 76, 0
3, 257400, Note_on_c, 0, 69, 49
3, 257400, Note_on_c, 0, 57, 49
3, 257520, Note_on_c, 0, 57, 0
3, 257520, Note_on_c, 0, 69, 0
3, 257520, Note_on_c, 0, 76, 49
3, 257520, Note_on_c, 0, 64, 49
3, 257639, Note_on_c, 0, 64, 0
3, 257639, Note_on_c, 0, 76, 0
3, 257639, Note_on_c, 0, 79, 49
3, 257639, Note_on_c, 0, 67, 49
3, 257760, Note_on_c, 0, 67, 0
3, 257760, Note_on_c, 0, 79, 0
3, 257760, Note_on_c, 0, 76, 49
3, 257760, Note_on_c, 0, 64, 49
3, 257880, Note_on_c, 0, 64, 0
3, 257880, Note_on_c, 0, 76, 0
3, 257880, Note_on_c, 0, 79, 49
3, 257880, Note_on_c, 0, 67, 49
3, 257999, Note_on_c, 0, 67, 0
3, 257999, Note_on_c, 0, 79, 0
3, 257999, Note_on_c, 0, 81, 49
3, 257999, Note_on_c, 0, 69, 49
3, 258120, Note_on_c, 0, 69, 0
3, 258120, Note_on_c, 0, 81, 0
3, 258120, Note_on_c, 0, 79, 49
3, 258120, Note_on_c, 0, 76, 49
3, 258240, Note_on_c, 0, 79, 0
3, 258240, Note_on_c, 0, 81, 49
3, 258300, Note_on_c, 0, 76, 0
3, 258359, Note_on_c, 0, 81, 0
3, 258359, Note_on_c, 0, 88, 50
3, 258480, Note_on_c, 0, 88, 0
3, 258480, Note_on_c, 0, 79, 50
3, 258480, Note_on_c, 0, 81, 50
3, 258480, Note_on_c, 0, 88, 50
3, 258480, Note_on_c, 0, 91, 50
3, 258480, Note_on_c, 0, 55, 50
3, 258480, Note_on_c, 0, 57, 50
3, 258480, Note_on_c, 0, 64, 50
3, 258480, Note_on_c, 0, 67, 50
3, 258660, Note_on_c, 0, 67, 0
3, 258660, Note_on_c, 0, 79, 0
3, 258660, Note_on_c, 0, 55, 0
3, 258660, Note_on_c, 0, 81, 0
3, 258660, Note_on_c, 0, 88, 0
3, 258660, Note_on_c, 0, 91, 0
3, 258660, Note_on_c, 0, 57, 0
3, 258660, Note_on_c, 0, 64, 0
3, 258660, Note_on_c, 0, 79, 50
3, 258660, Note_on_c, 0, 81, 50
3, 258660, Note_on_c, 0, 88, 50
3, 258660, Note_on_c, 0, 91, 50
3, 258660, Note_on_c, 0, 55, 50
3, 258660, Note_on_c, 0, 57, 50
3, 258660, Note_on_c, 0, 64, 50
3, 258660, Note_on_c, 0, 67, 50
3, 258840, Note_on_c, 0, 67, 0
3, 258840, Note_on_c, 0, 79, 0
3, 258840, Note_on_c, 0, 55, 0
3, 258840, Note_on_c, 0, 81, 0
3, 258840, Note_on_c, 0, 88, 0
3, 258840, Note_on_c, 0, 91, 0
3, 258840, Note_on_c, 0, 57, 0
3, 258840, Note_on_c, 0, 64, 0
3, 258840, Note_on_c, 0, 79, 50
3, 258840, Note_on_c, 0, 82, 50
3, 258840, Note_on_c, 0, 88, 50
3, 258840, Note_on_c, 0, 91, 50
3, 258840, Note_on_c, 0, 55, 50
3, 258840, Note_on_c, 0, 58, 50
3, 258840, Note_on_c, 0, 64, 50
3, 258840, Note_on_c, 0, 67, 50
3, 259020, Note_on_c, 0, 67, 0
3, 259020, Note_on_c, 0, 79, 0
3, 259020, Note_on_c, 0, 55, 0
3, 259020, Note_on_c, 0, 82, 0
3, 259020, Note_on_c, 0, 88, 0
3, 259020, Note_on_c, 0, 91, 0
3, 259020, Note_on_c, 0, 58, 0
3, 259020, Note_on_c, 0, 64, 0
3, 259020, Note_on_c, 0, 79, 50
3, 259020, Note_on_c, 0, 82, 50
3, 259020, Note_on_c, 0, 88, 50
3, 259020, Note_on_c, 0, 91, 50
3, 259020, Note_on_c, 0, 55, 50
3, 259020, Note_on_c, 0, 58, 50
3, 259020, Note_on_c, 0, 64, 50
3, 259020, Note_on_c, 0, 67, 50
3, 259200, Note_on_c, 0, 67, 0
3, 259200, Note_on_c, 0, 79, 0
3, 259200, Note_on_c, 0, 55, 0
3, 259200, Note_on_c, 0, 82, 0
3, 259200, Note_on_c, 0, 88, 0
3, 259200, Note_on_c, 0, 91, 0
3, 259200, Note_on_c, 0, 58, 0
3, 259200, Note_on_c, 0, 64, 0
3, 259200, Note_on_c, 0, 79, 50
3, 259200, Note_on_c, 0, 82, 50
3, 259200, Note_on_c, 0, 88, 50
3, 259200, Note_on_c, 0, 91, 50
3, 259200, Note_on_c, 0, 55, 50
3, 259200, Note_on_c, 0, 58, 50
3, 259200, Note_on_c, 0, 64, 50
3, 259200, Note_on_c, 0, 67, 50
3, 259380, Note_on_c, 0, 67, 0
3, 259380, Note_on_c, 0, 79, 0
3, 259380, Note_on_c, 0, 55, 0
3, 259380, Note_on_c, 0, 82, 0
3, 259380, Note_on_c, 0, 88, 0
3, 259380, Note_on_c, 0, 91, 0
3, 259380, Note_on_c, 0, 58, 0
3, 259380, Note_on_c, 0, 64, 0
3, 259380, Note_on_c, 0, 79, 50
3, 259380, Note_on_c, 0, 82, 50
3, 259380, Note_on_c, 0, 88, 50
3, 259380, Note_on_c, 0, 91, 50
3, 259380, Note_on_c, 0, 55, 50
3, 259380, Note_on_c, 0, 58, 50
3, 259380, Note_on_c, 0, 64, 50
3, 259380, Note_on_c, 0, 67, 50
3, 259560, Note_on_c, 0, 67, 0
3, 259560, Note_on_c, 0, 79, 0
3, 259560, Note_on_c, 0, 55, 0
3, 259560, Note_on_c, 0, 82, 0
3, 259560, Note_on_c, 0, 88, 0
3, 259560, Note_on_c, 0, 91, 0
3, 259560, Note_on_c, 0, 58, 0
3, 259560, Note_on_c, 0, 64, 0
3, 259560, Note_on_c, 0, 79, 50
3, 259560, Note_on_c, 0, 83, 50
3, 259560, Note_on_c, 0, 88, 50
3, 259560, Note_on_c, 0, 91, 50
3, 259560, Note_on_c, 0, 55, 50
3, 259560, Note_on_c, 0, 59, 50
3, 259560, Note_on_c, 0, 64, 50
3, 259560, Note_on_c, 0, 67, 50
3, 259740, Note_on_c, 0, 67, 0
3, 259740, Note_on_c, 0, 79, 0
3, 259740, Note_on_c, 0, 55, 0
3, 259740, Note_on_c, 0, 83, 0
3, 259740, Note_on_c, 0, 88, 0
3, 259740, Note_on_c, 0, 91, 0
3, 259740, Note_on_c, 0, 59, 0
3, 259740, Note_on_c, 0, 64, 0
3, 259740, Note_on_c, 0, 79, 50
3, 259740, Note_on_c, 0, 83, 50
3, 259740, Note_on_c, 0, 88, 50
3, 259740, Note_on_c, 0, 91, 50
3, 259740, Note_on_c, 0, 55, 50
3, 259740, Note_on_c, 0, 59, 50
3, 259740, Note_on_c, 0, 64, 50
3, 259740, Note_on_c, 0, 67, 50
3, 259920, Note_on_c, 0, 67, 0
3, 259920, Note_on_c, 0, 79, 0
3, 259920, Note_on_c, 0, 55, 0
3, 259920, Note_on_c, 0, 83, 0
3, 259920, Note_on_c, 0, 88, 0
3, 259920, Note_on_c, 0, 91, 0
3, 259920, Note_on_c, 0, 59, 0
3, 259920, Note_on_c, 0, 64, 0
3, 259920, Note_on_c, 0, 79, 85
3, 259920, Note_on_c, 0, 84, 85
3, 259920, Note_on_c, 0, 88, 85
3, 259920, Note_on_c, 0, 91, 85
3, 259920, Note_on_c, 0, 55, 50
3, 259920, Note_on_c, 0, 60, 50
3, 259920, Note_on_c, 0, 64, 50
3, 259920, Note_on_c, 0, 67, 50
3, 260100, Note_on_c, 0, 67, 0
3, 260100, Note_on_c, 0, 79, 0
3, 260100, Note_on_c, 0, 55, 0
3, 260100, Note_on_c, 0, 84, 0
3, 260100, Note_on_c, 0, 88, 0
3, 260100, Note_on_c, 0, 91, 0
3, 260100, Note_on_c, 0, 60, 0
3, 260100, Note_on_c, 0, 64, 0
3, 260100, Note_on_c, 0, 79, 87
3, 260100, Note_on_c, 0, 84, 87
3, 260100, Note_on_c, 0, 88, 87
3, 260100, Note_on_c, 0, 91, 87
3, 260100, Note_on_c, 0, 55, 50
3, 260100, Note_on_c, 0, 60, 50
3, 260100, Note_on_c, 0, 64, 50
3, 260100, Note_on_c, 0, 67, 50
3, 260280, Note_on_c, 0, 67, 0
3, 260280, Note_on_c, 0, 79, 0
3, 260280, Note_on_c, 0, 55, 0
3, 260280, Note_on_c, 0, 84, 0
3, 260280, Note_on_c, 0, 88, 0
3, 260280, Note_on_c, 0, 91, 0
3, 260280, Note_on_c, 0, 60, 0
3, 260280, Note_on_c, 0, 64, 0
3, 260280, Note_on_c, 0, 79, 89
3, 260280, Note_on_c, 0, 84, 89
3, 260280, Note_on_c, 0, 88, 89
3, 260280, Note_on_c, 0, 91, 89
3, 260280, Note_on_c, 0, 55, 52
3, 260280, Note_on_c, 0, 60, 52
3, 260280, Note_on_c, 0, 64, 52
3, 260280, Note_on_c, 0, 67, 52
3, 260460, Note_on_c, 0, 67, 0
3, 260460, Note_on_c, 0, 79, 0
3, 260460, Note_on_c, 0, 55, 0
3, 260460, Note_on_c, 0, 84, 0
3, 260460, Note_on_c, 0, 88, 0
3, 260460, Note_on_c, 0, 91, 0
3, 260460, Note_on_c, 0, 60, 0
3, 260460, Note_on_c, 0, 64, 0
3, 260460, Note_on_c, 0, 79, 92
3, 260460, Note_on_c, 0, 84, 92
3, 260460, Note_on_c, 0, 88, 92
3, 260460, Note_on_c, 0, 91, 92
3, 260460, Note_on_c, 0, 55, 54
3, 260460, Note_on_c, 0, 60, 54
3, 260460, Note_on_c, 0, 64, 54
3, 260460, Note_on_c, 0, 67, 54
3, 260640, Note_on_c, 0, 67, 0
3, 260640, Note_on_c, 0, 79, 0
3, 260640, Note_on_c, 0, 55, 0
3, 260640, Note_on_c, 0, 84, 0
3, 260640, Note_on_c, 0, 88, 0
3, 260640, Note_on_c, 0, 91, 0
3, 260640, Note_on_c, 0, 60, 0
3, 260640, Note_on_c, 0, 64, 0
3, 260640, Note_on_c, 0, 79, 94
3, 260640, Note_on_c, 0, 84, 94
3, 260640, Note_on_c, 0, 88, 94
3, 260640, Note_on_c, 0, 91, 94
3, 260640, Note_on_c, 0, 55, 56
3, 260640, Note_on_c, 0, 60, 56
3, 260640, Note_on_c, 0, 64, 56
3, 260640, Note_on_c, 0, 67, 56
3, 260820, Note_on_c, 0, 67, 0
3, 260820, Note_on_c, 0, 79, 0
3, 260820, Note_on_c, 0, 55, 0
3, 260820, Note_on_c, 0, 84, 0
3, 260820, Note_on_c, 0, 88, 0
3, 260820, Note_on_c, 0, 91, 0
3, 260820, Note_on_c, 0, 60, 0
3, 260820, Note_on_c, 0, 64, 0
3, 260820, Note_on_c, 0, 79, 96
3, 260820, Note_on_c, 0, 84, 96
3, 260820, Note_on_c, 0, 88, 96
3, 260820, Note_on_c, 0, 91, 96
3, 260820, Note_on_c, 0, 55, 58
3, 260820, Note_on_c, 0, 60, 58
3, 260820, Note_on_c, 0, 64, 58
3, 260820, Note_on_c, 0, 67, 58
3, 261000, Note_on_c, 0, 67, 0
3, 261000, Note_on_c, 0, 79, 0
3, 261000, Note_on_c, 0, 55, 0
3, 261000, Note_on_c, 0, 84, 0
3, 261000, Note_on_c, 0, 88, 0
3, 261000, Note_on_c, 0, 91, 0
3, 261000, Note_on_c, 0, 60, 0
3, 261000, Note_on_c, 0, 64, 0
3, 261000, Note_on_c, 0, 79, 98
3, 261000, Note_on_c, 0, 84, 98
3, 261000, Note_on_c, 0, 88, 98
3, 261000, Note_on_c, 0, 91, 98
3, 261000, Note_on_c, 0, 55, 60
3, 261000, Note_on_c, 0, 60, 60
3, 261000, Note_on_c, 0, 64, 60
3, 261000, Note_on_c, 0, 67, 60
3, 261180, Note_on_c, 0, 67, 0
3, 261180, Note_on_c, 0, 79, 0
3, 261180, Note_on_c, 0, 55, 0
3, 261180, Note_on_c, 0, 84, 0
3, 261180, Note_on_c, 0, 88, 0
3, 261180, Note_on_c, 0, 91, 0
3, 261180, Note_on_c, 0, 60, 0
3, 261180, Note_on_c, 0, 64, 0
3, 261180, Note_on_c, 0, 79, 102
3, 261180, Note_on_c, 0, 84, 102
3, 261180, Note_on_c, 0, 88, 102
3, 261180, Note_on_c, 0, 91, 102
3, 261180, Note_on_c, 0, 55, 63
3, 261180, Note_on_c, 0, 60, 63
3, 261180, Note_on_c, 0, 64, 63
3, 261180, Note_on_c, 0, 67, 63
3, 261360, Note_on_c, 0, 67, 0
3, 261360, Note_on_c, 0, 79, 0
3, 261360, Note_on_c, 0, 55, 0
3, 261360, Note_on_c, 0, 84, 0
3, 261360, Note_on_c, 0, 88, 0
3, 261360, Note_on_c, 0, 91, 0
3, 261360, Note_on_c, 0, 60, 0
3, 261360, Note_on_c, 0, 64, 0
3, 261360, Note_on_c, 0, 57, 116
3, 261360, Note_on_c, 0, 69, 116
3, 261360, Note_on_c, 0, 33, 110
3, 261360, Note_on_c, 0, 45, 110
3, 261720, Note_on_c, 0, 79, 92
3, 261720, Note_on_c, 0, 84, 92
3, 261720, Note_on_c, 0, 88, 92
3, 261720, Note_on_c, 0, 91, 92
3, 261720, Note_on_c, 0, 55, 94
3, 261720, Note_on_c, 0, 60, 94
3, 261720, Note_on_c, 0, 64, 94
3, 261720, Note_on_c, 0, 67, 94
3, 261900, Note_on_c, 0, 67, 0
3, 261900, Note_on_c, 0, 60, 0
3, 261900, Note_on_c, 0, 91, 0
3, 261900, Note_on_c, 0, 88, 0
3, 261900, Note_on_c, 0, 55, 0
3, 261900, Note_on_c, 0, 64, 0
3, 261900, Note_on_c, 0, 79, 0
3, 261900, Note_on_c, 0, 84, 0
3, 261900, Note_on_c, 0, 79, 101
3, 261900, Note_on_c, 0, 84, 101
3, 261900, Note_on_c, 0, 88, 101
3, 261900, Note_on_c, 0, 91, 101
3, 261900, Note_on_c, 0, 55, 98
3, 261900, Note_on_c, 0, 60, 98
3, 261900, Note_on_c, 0, 64, 98
3, 261900, Note_on_c, 0, 67, 98
3, 262080, Note_on_c, 0, 67, 0
3, 262080, Note_on_c, 0, 60, 0
3, 262080, Note_on_c, 0, 91, 0
3, 262080, Note_on_c, 0, 88, 0
3, 262080, Note_on_c, 0, 55, 0
3, 262080, Note_on_c, 0, 64, 0
3, 262080, Note_on_c, 0, 79, 0
3, 262080, Note_on_c, 0, 84, 0
3, 262080, Note_on_c, 0, 79, 107
3, 262080, Note_on_c, 0, 84, 107
3, 262080, Note_on_c, 0, 88, 107
3, 262080, Note_on_c, 0, 91, 107
3, 262080, Note_on_c, 0, 55, 106
3, 262080, Note_on_c, 0, 60, 106
3, 262080, Note_on_c, 0, 64, 106
3, 262080, Note_on_c, 0, 67, 106
3, 262260, Note_on_c, 0, 67, 0
3, 262260, Note_on_c, 0, 60, 0
3, 262260, Note_on_c, 0, 91, 0
3, 262260, Note_on_c, 0, 88, 0
3, 262260, Note_on_c, 0, 55, 0
3, 262260, Note_on_c, 0, 64, 0
3, 262260, Note_on_c, 0, 79, 0
3, 262260, Note_on_c, 0, 84, 0
3, 262260, Note_on_c, 0, 79, 105
3, 262260, Note_on_c, 0, 84, 105
3, 262260, Note_on_c, 0, 88, 105
3, 262260, Note_on_c, 0, 91, 105
3, 262260, Note_on_c, 0, 55, 100
3, 262260, Note_on_c, 0, 60, 100
3, 262260, Note_on_c, 0, 64, 100
3, 262260, Note_on_c, 0, 67, 100
3, 262440, Note_on_c, 0, 67, 0
3, 262440, Note_on_c, 0, 60, 0
3, 262440, Note_on_c, 0, 91, 0
3, 262440, Note_on_c, 0, 88, 0
3, 262440, Note_on_c, 0, 55, 0
3, 262440, Note_on_c, 0, 64, 0
3, 262440, Note_on_c, 0, 79, 0
3, 262440, Note_on_c, 0, 84, 0
3, 262440, Note_on_c, 0, 79, 101
3, 262440, Note_on_c, 0, 84, 101
3, 262440, Note_on_c, 0, 88, 101
3, 262440, Note_on_c, 0, 91, 101
3, 262440, Note_on_c, 0, 55, 102
3, 262440, Note_on_c, 0, 60, 102
3, 262440, Note_on_c, 0, 64, 102
3, 262440, Note_on_c, 0, 67, 102
3, 262620, Note_on_c, 0, 67, 0
3, 262620, Note_on_c, 0, 69, 0
3, 262620, Note_on_c, 0, 91, 0
3, 262620, Note_on_c, 0, 33, 0
3, 262620, Note_on_c, 0, 45, 0
3, 262620, Note_on_c, 0, 57, 0
3, 262620, Note_on_c, 0, 79, 0
3, 262620, Note_on_c, 0, 84, 0
3, 262620, Note_on_c, 0, 55, 0
3, 262620, Note_on_c, 0, 88, 0
3, 262620, Note_on_c, 0, 64, 0
3, 262620, Note_on_c, 0, 60, 0
3, 262620, Note_on_c, 0, 60, 116
3, 262620, Note_on_c, 0, 72, 116
3, 262620, Note_on_c, 0, 36, 108
3, 262620, Note_on_c, 0, 48, 108
3, 262800, Note_on_c, 0, 48, 0
3, 262800, Note_on_c, 0, 60, 0
3, 262800, Note_on_c, 0, 72, 0
3, 262800, Note_on_c, 0, 36, 0
3, 262800, Note_on_c, 0, 62, 110
3, 262800, Note_on_c, 0, 74, 110
3, 262800, Note_on_c, 0, 38, 103
3, 262800, Note_on_c, 0, 50, 103
3, 263160, Note_on_c, 0, 67, 116
3, 263160, Note_on_c, 0, 72, 116
3, 263160, Note_on_c, 0, 76, 116
3, 263160, Note_on_c, 0, 79, 116
3, 263160, Note_on_c, 0, 55, 117
3, 263160, Note_on_c, 0, 60, 117
3, 263160, Note_on_c, 0, 64, 117
3, 263340, Note_on_c, 0, 64, 0
3, 263340, Note_on_c, 0, 79, 0
3, 263340, Note_on_c, 0, 60, 0
3, 263340, Note_on_c, 0, 76, 0
3, 263340, Note_on_c, 0, 55, 0
3, 263340, Note_on_c, 0, 67, 0
3, 263340, Note_on_c, 0, 72, 0
3, 263340, Note_on_c, 0, 67, 117
3, 263340, Note_on_c, 0, 72, 117
3, 263340, Note_on_c, 0, 76, 117
3, 263340, Note_on_c, 0, 79, 117
3, 263340, Note_on_c, 0, 55, 117
3, 263340, Note_on_c, 0, 60, 117
3, 263340, Note_on_c, 0, 64, 117
3, 263520, Note_on_c, 0, 64, 0
3, 263520, Note_on_c, 0, 79, 0
3, 263520, Note_on_c, 0, 60, 0
3, 263520, Note_on_c, 0, 76, 0
3, 263520, Note_on_c, 0, 55, 0
3, 263520, Note_on_c, 0, 67, 0
3, 263520, Note_on_c, 0, 72, 0
3, 263520, Note_on_c, 0, 69, 117
3, 263520, Note_on_c, 0, 72, 117
3, 263520, Note_on_c, 0, 76, 117
3, 263520, Note_on_c, 0, 81, 117
3, 263520, Note_on_c, 0, 57, 117
3, 263520, Note_on_c, 0, 60, 117
3, 263520, Note_on_c, 0, 64, 117
3, 263520, Note_on_c, 0, 67, 117
3, 263700, Note_on_c, 0, 67, 0
3, 263700, Note_on_c, 0, 60, 0
3, 263700, Note_on_c, 0, 81, 0
3, 263700, Note_on_c, 0, 76, 0
3, 263700, Note_on_c, 0, 57, 0
3, 263700, Note_on_c, 0, 64, 0
3, 263700, Note_on_c, 0, 69, 0
3, 263700, Note_on_c, 0, 72, 0
3, 263700, Note_on_c, 0, 69, 117
3, 263700, Note_on_c, 0, 72, 117
3, 263700, Note_on_c, 0, 74, 117
3, 263700, Note_on_c, 0, 81, 117
3, 263700, Note_on_c, 0, 57, 117
3, 263700, Note_on_c, 0, 60, 117
3, 263700, Note_on_c, 0, 62, 117
3, 263700, Note_on_c, 0, 66, 117
3, 263880, Note_on_c, 0, 66, 0
3, 263880, Note_on_c, 0, 62, 0
3, 263880, Note_on_c, 0, 81, 0
3, 263880, Note_on_c, 0, 50, 0
3, 263880, Note_on_c, 0, 38, 0
3, 263880, Note_on_c, 0, 74, 0
3, 263880, Note_on_c, 0, 69, 0
3, 263880, Note_on_c, 0, 72, 0
3, 263880, Note_on_c, 0, 57, 0
3, 263880, Note_on_c, 0, 74, 0
3, 263880, Note_on_c, 0, 62, 0
3, 263880, Note_on_c, 0, 60, 0
3, 264060, Note_on_c, 0, 31, 90
3, 264060, Note_on_c, 0, 43, 90
3, 264240, Note_on_c, 0, 43, 0
3, 264240, Note_on_c, 0, 31, 0
3, 264240, Note_on_c, 0, 67, 103
3, 264240, Note_on_c, 0, 71, 103
3, 264240, Note_on_c, 0, 74, 103
3, 264240, Note_on_c, 0, 79, 103
3, 264240, Note_on_c, 0, 50, 117
3, 264240, Note_on_c, 0, 55, 117
3, 264240, Note_on_c, 0, 59, 117
3, 264600, Note_on_c, 0, 59, 0
3, 264600, Note_on_c, 0, 50, 0
3, 264600, Note_on_c, 0, 71, 0
3, 264600, Note_on_c, 0, 74, 0
3, 264600, Note_on_c, 0, 67, 0
3, 264600, Note_on_c, 0, 55, 0
3, 264600, Note_on_c, 0, 79, 0
3, 264600, Note_on_c, 0, 57, 74
3, 264600, Note_on_c, 0, 33, 77
3, 264600, Note_on_c, 0, 45, 77
3, 264689, Note_on_c, 0, 45, 0
3, 264689, Note_on_c, 0, 33, 0
3, 264689, Note_on_c, 0, 57, 0
3, 264780, Note_on_c, 0, 59, 85
3, 264780, Note_on_c, 0, 35, 89
3, 264780, Note_on_c, 0, 47, 89
3, 264869, Note_on_c, 0, 47, 0
3, 264869, Note_on_c, 0, 35, 0
3, 264869, Note_on_c, 0, 59, 0
3, 264960, Note_on_c, 0, 60, 95
3, 264960, Note_on_c, 0, 36, 91
3, 264960, Note_on_c, 0, 48, 91
3, 265049, Note_on_c, 0, 48, 0
3, 265049, Note_on_c, 0, 36, 0
3, 265049, Note_on_c, 0, 60, 0
3, 265140, Note_on_c, 0, 63, 96
3, 265140, Note_on_c, 0, 39, 90
3, 265140, Note_on_c, 0, 51, 90
3, 265229, Note_on_c, 0, 51, 0
3, 265229, Note_on_c, 0, 39, 0
3, 265229, Note_on_c, 0, 63, 0
3, 265320, Note_on_c, 0, 67, 117
3, 265320, Note_on_c, 0, 43, 113
3, 265320, Note_on_c, 0, 55, 113
3, 266040, Note_on_c, 0, 55, 0
3, 266040, Note_on_c, 0, 43, 0
3, 266040, Note_on_c, 0, 67, 0
3, 266040, Note_on_c, 0, 57, 83
3, 266040, Note_on_c, 0, 63, 83
3, 266040, Note_on_c, 0, 66, 83
3, 266040, Note_on_c, 0, 36, 81
3, 266040, Note_on_c, 0, 48, 81
3, 266220, Note_on_c, 0, 48, 0
3, 266220, Note_on_c, 0, 66, 0
3, 266220, Note_on_c, 0, 57, 0
3, 266220, Note_on_c, 0, 63, 0
3, 266220, Note_on_c, 0, 36, 0
3, 266400, Note_on_c, 0, 55, 80
3, 266400, Note_on_c, 0, 62, 80
3, 266400, Note_on_c, 0, 67, 80
3, 266400, Note_on_c, 0, 35, 75
3, 266400, Note_on_c, 0, 47, 75
3, 266580, Note_on_c, 0, 47, 0
3, 266580, Note_on_c, 0, 67, 0
3, 266580, Note_on_c, 0, 55, 0
3, 266580, Note_on_c, 0, 62, 0
3, 266580, Note_on_c, 0, 35, 0
3, 266760, Note_on_c, 0, 60, 79
3, 266760, Note_on_c, 0, 63, 79
3, 266760, Note_on_c, 0, 69, 79
3, 266760, Note_on_c, 0, 42, 78
3, 266760, Note_on_c, 0, 54, 78
3, 266940, Note_on_c, 0, 54, 0
3, 266940, Note_on_c, 0, 69, 0
3, 266940, Note_on_c, 0, 60, 0
3, 266940, Note_on_c, 0, 63, 0
3, 266940, Note_on_c, 0, 42, 0
3, 267120, Note_on_c, 0, 59, 78
3, 267120, Note_on_c, 0, 62, 78
3, 267120, Note_on_c, 0, 67, 78
3, 267120, Note_on_c, 0, 71, 78
3, 267120, Note_on_c, 0, 43, 78
3, 267120, Note_on_c, 0, 55, 78
3, 267240, Note_on_c, 0, 71, 0
3, 267240, Note_on_c, 0, 67, 0
3, 267240, Note_on_c, 0, 59, 0
3, 267240, Note_on_c, 0, 62, 0
3, 267240, Note_on_c, 0, 59, 75
3, 267300, Note_on_c, 0, 55, 0
3, 267300, Note_on_c, 0, 43, 0
3, 267359, Note_on_c, 0, 59, 0
3, 267359, Note_on_c, 0, 62, 96
3, 267480, Note_on_c, 0, 62, 0
3, 267480, Note_on_c, 0, 67, 87
3, 267480, Note_on_c, 0, 71, 87
3, 267480, Note_on_c, 0, 43, 87
3, 267480, Note_on_c, 0, 55, 87
3, 267576, Note_on_c, 0, 71, 0
3, 267576, Note_on_c, 0, 67, 0
3, 267600, Note_on_c, 0, 62, 88
3, 267719, Note_on_c, 0, 62, 0
3, 267719, Note_on_c, 0, 67, 90
3, 267840, Note_on_c, 0, 67, 0
3, 267840, Note_on_c, 0, 43, 0
3, 267840, Note_on_c, 0, 55, 0
3, 267840, Note_on_c, 0, 71, 91
3, 267840, Note_on_c, 0, 74, 91
3, 267840, Note_on_c, 0, 42, 91
3, 267840, Note_on_c, 0, 54, 91
3, 267960, Note_on_c, 0, 74, 0
3, 267960, Note_on_c, 0, 71, 0
3, 267960, Note_on_c, 0, 67, 92
3, 268055, Note_on_c, 0, 67, 0
3, 268079, Note_on_c, 0, 71, 93
3, 268200, Note_on_c, 0, 71, 0
3, 268200, Note_on_c, 0, 42, 0
3, 268200, Note_on_c, 0, 54, 0
3, 268200, Note_on_c, 0, 74, 94
3, 268200, Note_on_c, 0, 79, 94
3, 268200, Note_on_c, 0, 40, 95
3, 268200, Note_on_c, 0, 52, 95
3, 268296, Note_on_c, 0, 79, 0
3, 268296, Note_on_c, 0, 74, 0
3, 268320, Note_on_c, 0, 71, 95
3, 268439, Note_on_c, 0, 71, 0
3, 268439, Note_on_c, 0, 74, 97
3, 268560, Note_on_c, 0, 74, 0
3, 268560, Note_on_c, 0, 40, 0
3, 268560, Note_on_c, 0, 52, 0
3, 268560, Note_on_c, 0, 79, 98
3, 268560, Note_on_c, 0, 83, 98
3, 268560, Note_on_c, 0, 38, 117
3, 268560, Note_on_c, 0, 50, 117
3, 268656, Note_on_c, 0, 83, 0
3, 268656, Note_on_c, 0, 79, 0
3, 268680, Note_on_c, 0, 76, 99
3, 268799, Note_on_c, 0, 76, 0
3, 268799, Note_on_c, 0, 79, 105
3, 268920, Note_on_c, 0, 79, 0
3, 268920, Note_on_c, 0, 76, 117
3, 268920, Note_on_c, 0, 79, 117
3, 268920, Note_on_c, 0, 83, 117
3, 268920, Note_on_c, 0, 88, 117
3, 268920, Note_on_c, 0, 61, 117
3, 268920, Note_on_c, 0, 64, 117
3, 268920, Note_on_c, 0, 67, 117
3, 268920, Note_on_c, 0, 71, 117
3, 269640, Note_on_c, 0, 71, 0
3, 269640, Note_on_c, 0, 76, 0
3, 269640, Note_on_c, 0, 79, 0
3, 269640, Note_on_c, 0, 67, 0
3, 269640, Note_on_c, 0, 83, 0
3, 269640, Note_on_c, 0, 61, 0
3, 269640, Note_on_c, 0, 64, 0
3, 269640, Note_on_c, 0, 88, 0
3, 269640, Note_on_c, 0, 72, 117
3, 269640, Note_on_c, 0, 74, 117
3, 269640, Note_on_c, 0, 78, 117
3, 269640, Note_on_c, 0, 81, 117
3, 269640, Note_on_c, 0, 86, 117
3, 269640, Note_on_c, 0, 60, 116
3, 269640, Note_on_c, 0, 62, 116
3, 269640, Note_on_c, 0, 66, 116
3, 269640, Note_on_c, 0, 69, 116
3, 269820, Note_on_c, 0, 69, 0
3, 269820, Note_on_c, 0, 60, 0
3, 269820, Note_on_c, 0, 72, 0
3, 269820, Note_on_c, 0, 74, 0
3, 269820, Note_on_c, 0, 66, 0
3, 269820, Note_on_c, 0, 78, 0
3, 269820, Note_on_c, 0, 86, 0
3, 269820, Note_on_c, 0, 62, 0
3, 269820, Note_on_c, 0, 81, 0
3, 270000, Note_on_c, 0, 38, 0
3, 270000, Note_on_c, 0, 50, 0
3, 270000, Note_on_c, 0, 67, 93
3, 270000, Note_on_c, 0, 71, 93
3, 270000, Note_on_c, 0, 74, 93
3, 270000, Note_on_c, 0, 79, 93
3, 270000, Note_on_c, 0, 43, 89
3, 270000, Note_on_c, 0, 50, 89
3, 270000, Note_on_c, 0, 59, 89
3, 270120, Note_on_c, 0, 59, 0
3, 270120, Note_on_c, 0, 43, 0
3, 270120, Note_on_c, 0, 71, 0
3, 270120, Note_on_c, 0, 74, 0
3, 270120, Note_on_c, 0, 67, 0
3, 270120, Note_on_c, 0, 50, 0
3, 270120, Note_on_c, 0, 79, 0
3, 270239, Note_on_c, 0, 50, 61
3, 270239, Note_on_c, 0, 38, 63
3, 270360, Note_on_c, 0, 38, 0
3, 270360, Note_on_c, 0, 50, 0
3, 270360, Note_on_c, 0, 55, 75
3, 270360, Note_on_c, 0, 31, 77
3, 270360, Note_on_c, 0, 43, 77
3, 270647, Note_on_c, 0, 43, 0
3, 270647, Note_on_c, 0, 31, 0
3, 270647, Note_on_c, 0, 55, 0
3, 271080, Note_on_c, 0, 59, 64
3, 271080, Note_on_c, 0, 71, 64
3, 271080, Note_on_c, 0, 43, 63
3, 271080, Note_on_c, 0, 50, 63
3, 271200, Note_on_c, 0, 71, 0
3, 271200, Note_on_c, 0, 59, 0
3, 271200, Note_on_c, 0, 69, 68
3, 271319, Note_on_c, 0, 69, 0
3, 271319, Note_on_c, 0, 43, 0
3, 271319, Note_on_c, 0, 50, 0
3, 271319, Note_on_c, 0, 67, 66
3, 271319, Note_on_c, 0, 60, 94
3, 271415, Note_on_c, 0, 60, 0
3, 271415, Note_on_c, 0, 67, 0
3, 271440, Note_on_c, 0, 59, 78
3, 271440, Note_on_c, 0, 67, 78
3, 271440, Note_on_c, 0, 43, 69
3, 271440, Note_on_c, 0, 50, 69
3, 271679, Note_on_c, 0, 50, 0
3, 271679, Note_on_c, 0, 59, 0
3, 271679, Note_on_c, 0, 67, 0
3, 271679, Note_on_c, 0, 43, 0
3, 271679, Note_on_c, 0, 50, 64
3, 271679, Note_on_c, 0, 38, 61
3, 271800, Note_on_c, 0, 38, 0
3, 271800, Note_on_c, 0, 50, 0
3, 271800, Note_on_c, 0, 55, 76
3, 271800, Note_on_c, 0, 31, 79
3, 271800, Note_on_c, 0, 43, 79
3, 272087, Note_on_c, 0, 43, 0
3, 272087, Note_on_c, 0, 31, 0
3, 272087, Note_on_c, 0, 55, 0
3, 272520, Note_on_c, 0, 59, 68
3, 272520, Note_on_c, 0, 71, 68
3, 272520, Note_on_c, 0, 43, 65
3, 272520, Note_on_c, 0, 50, 65
3, 272640, Note_on_c, 0, 71, 0
3, 272640, Note_on_c, 0, 59, 0
3, 272640, Note_on_c, 0, 69, 67
3, 272759, Note_on_c, 0, 69, 0
3, 272759, Note_on_c, 0, 43, 0
3, 272759, Note_on_c, 0, 50, 0
3, 272759, Note_on_c, 0, 67, 65
3, 272759, Note_on_c, 0, 60, 89
3, 272855, Note_on_c, 0, 60, 0
3, 272855, Note_on_c, 0, 67, 0
3, 272880, Note_on_c, 0, 59, 71
3, 272880, Note_on_c, 0, 67, 71
3, 272880, Note_on_c, 0, 43, 61
3, 272880, Note_on_c, 0, 50, 61
3, 273119, Note_on_c, 0, 50, 0
3, 273119, Note_on_c, 0, 43, 0
3, 273119, Note_on_c, 0, 38, 62
3, 273240, Note_on_c, 0, 38, 0
3, 273240, Note_on_c, 0, 67, 0
3, 273240, Note_on_c, 0, 59, 0
3, 273240, Note_on_c, 0, 59, 68
3, 273240, Note_on_c, 0, 31, 77
3, 273240, Note_on_c, 0, 43, 77
3, 273360, Note_on_c, 0, 59, 0
3, 273360, Note_on_c, 0, 62, 78
3, 273479, Note_on_c, 0, 62, 0
3, 273479, Note_on_c, 0, 43, 0
3, 273479, Note_on_c, 0, 31, 0
3, 273479, Note_on_c, 0, 64, 81
3, 273479, Note_on_c, 0, 53, 81
3, 273600, Note_on_c, 0, 64, 0
3, 273600, Note_on_c, 0, 67, 80
3, 273600, Note_on_c, 0, 64, 104
3, 273600, Note_on_c, 0, 55, 84
3, 273600, Note_on_c, 0, 59, 84
3, 273720, Note_on_c, 0, 64, 0
3, 273720, Note_on_c, 0, 62, 101
3, 273839, Note_on_c, 0, 62, 0
3, 273839, Note_on_c, 0, 59, 110
3, 273960, Note_on_c, 0, 59, 0
3, 273960, Note_on_c, 0, 55, 0
3, 273960, Note_on_c, 0, 59, 0
3, 273960, Note_on_c, 0, 53, 0
3, 273960, Note_on_c, 0, 59, 116
3, 273960, Note_on_c, 0, 43, 70
3, 273960, Note_on_c, 0, 52, 70
3, 274080, Note_on_c, 0, 59, 0
3, 274080, Note_on_c, 0, 60, 116
3, 274199, Note_on_c, 0, 60, 0
3, 274199, Note_on_c, 0, 52, 0
3, 274199, Note_on_c, 0, 43, 0
3, 274199, Note_on_c, 0, 59, 116
3, 274199, Note_on_c, 0, 51, 66
3, 274320, Note_on_c, 0, 51, 0
3, 274320, Note_on_c, 0, 59, 0
3, 274320, Note_on_c, 0, 59, 71
3, 274320, Note_on_c, 0, 43, 73
3, 274320, Note_on_c, 0, 50, 73
3, 274559, Note_on_c, 0, 50, 0
3, 274559, Note_on_c, 0, 43, 0
3, 274559, Note_on_c, 0, 38, 63
3, 274680, Note_on_c, 0, 38, 0
3, 274680, Note_on_c, 0, 59, 0
3, 274680, Note_on_c, 0, 67, 0
3, 274680, Note_on_c, 0, 71, 80
3, 274680, Note_on_c, 0, 31, 78
3, 274680, Note_on_c, 0, 43, 78
3, 274800, Note_on_c, 0, 71, 0
3, 274800, Note_on_c, 0, 74, 87
3, 274919, Note_on_c, 0, 74, 0
3, 274919, Note_on_c, 0, 43, 0
3, 274919, Note_on_c, 0, 31, 0
3, 274919, Note_on_c, 0, 76, 76
3, 274919, Note_on_c, 0, 53, 88
3, 275040, Note_on_c, 0, 76, 0
3, 275040, Note_on_c, 0, 76, 74
3, 275040, Note_on_c, 0, 55, 101
3, 275040, Note_on_c, 0, 59, 101
3, 275040, Note_on_c, 0, 64, 101
3, 275160, Note_on_c, 0, 76, 0
3, 275160, Note_on_c, 0, 74, 69
3, 275279, Note_on_c, 0, 74, 0
3, 275279, Note_on_c, 0, 64, 0
3, 275279, Note_on_c, 0, 53, 0
3, 275279, Note_on_c, 0, 55, 0
3, 275279, Note_on_c, 0, 59, 0
3, 275279, Note_on_c, 0, 71, 64
3, 275279, Note_on_c, 0, 62, 72
3, 275400, Note_on_c, 0, 62, 0
3, 275400, Note_on_c, 0, 71, 0
3, 275400, Note_on_c, 0, 72, 75
3, 275400, Note_on_c, 0, 52, 73
3, 275400, Note_on_c, 0, 55, 73
3, 275400, Note_on_c, 0, 60, 73
3, 275520, Note_on_c, 0, 72, 0
3, 275520, Note_on_c, 0, 71, 68
3, 275639, Note_on_c, 0, 71, 0
3, 275639, Note_on_c, 0, 60, 0
3, 275639, Note_on_c, 0, 55, 0
3, 275639, Note_on_c, 0, 52, 0
3, 275639, Note_on_c, 0, 67, 64
3, 275639, Note_on_c, 0, 59, 72
3, 275760, Note_on_c, 0, 59, 0
3, 275760, Note_on_c, 0, 67, 0
3, 275760, Note_on_c, 0, 67, 79
3, 275760, Note_on_c, 0, 71, 79
3, 275760, Note_on_c, 0, 50, 75
3, 275760, Note_on_c, 0, 55, 75
3, 275760, Note_on_c, 0, 59, 75
3, 275880, Note_on_c, 0, 71, 0
3, 275880, Note_on_c, 0, 67, 0
3, 275880, Note_on_c, 0, 74, 84
3, 275999, Note_on_c, 0, 74, 0
3, 275999, Note_on_c, 0, 76, 84
3, 276120, Note_on_c, 0, 76, 0
3, 276120, Note_on_c, 0, 55, 0
3, 276120, Note_on_c, 0, 50, 0
3, 276120, Note_on_c, 0, 59, 0
3, 276120, Note_on_c, 0, 78, 75
3, 276120, Note_on_c, 0, 62, 77
3, 276240, Note_on_c, 0, 78, 0
3, 276240, Note_on_c, 0, 79, 77
3, 276300, Note_on_c, 0, 62, 0
3, 276300, Note_on_c, 0, 67, 86
3, 276359, Note_on_c, 0, 79, 0
3, 276359, Note_on_c, 0, 78, 73
3, 276480, Note_on_c, 0, 78, 0
3, 276480, Note_on_c, 0, 67, 0
3, 276480, Note_on_c, 0, 78, 83
3, 276480, Note_on_c, 0, 74, 103
3, 276480, Note_on_c, 0, 35, 66
3, 276600, Note_on_c, 0, 35, 0
3, 276600, Note_on_c, 0, 66, 90
3, 276600, Note_on_c, 0, 47, 82
3, 276719, Note_on_c, 0, 47, 0
3, 276719, Note_on_c, 0, 55, 83
3, 276840, Note_on_c, 0, 55, 0
3, 276840, Note_on_c, 0, 62, 91
3, 276960, Note_on_c, 0, 78, 0
3, 276960, Note_on_c, 0, 76, 68
3, 277020, Note_on_c, 0, 62, 0
3, 277079, Note_on_c, 0, 76, 0
3, 277079, Note_on_c, 0, 74, 66
3, 277200, Note_on_c, 0, 74, 0
3, 277200, Note_on_c, 0, 66, 0
3, 277200, Note_on_c, 0, 74, 0
3, 277200, Note_on_c, 0, 76, 88
3, 277200, Note_on_c, 0, 72, 111
3, 277200, Note_on_c, 0, 36, 62
3, 277320, Note_on_c, 0, 36, 0
3, 277320, Note_on_c, 0, 64, 94
3, 277320, Note_on_c, 0, 48, 83
3, 277439, Note_on_c, 0, 48, 0
3, 277439, Note_on_c, 0, 55, 78
3, 277560, Note_on_c, 0, 55, 0
3, 277560, Note_on_c, 0, 60, 87
3, 277680, Note_on_c, 0, 76, 0
3, 277680, Note_on_c, 0, 74, 68
3, 277740, Note_on_c, 0, 60, 0
3, 277799, Note_on_c, 0, 74, 0
3, 277799, Note_on_c, 0, 72, 65
3, 277920, Note_on_c, 0, 72, 0
3, 277920, Note_on_c, 0, 64, 0
3, 277920, Note_on_c, 0, 72, 0
3, 277920, Note_on_c, 0, 72, 73
3, 278040, Note_on_c, 0, 72, 0
3, 278040, Note_on_c, 0, 74, 79
3, 278159, Note_on_c, 0, 74, 0
3, 278159, Note_on_c, 0, 76, 73
3, 278280, Note_on_c, 0, 76, 0
3, 278280, Note_on_c, 0, 76, 77
3, 278400, Note_on_c, 0, 76, 0
3, 278400, Note_on_c, 0, 78, 76
3, 278519, Note_on_c, 0, 78, 0
3, 278519, Note_on_c, 0, 79, 76
3, 278640, Note_on_c, 0, 79, 0
3, 278640, Note_on_c, 0, 76, 76
3, 278640, Note_on_c, 0, 72, 102
3, 278640, Note_on_c, 0, 33, 64
3, 278760, Note_on_c, 0, 33, 0
3, 278760, Note_on_c, 0, 64, 91
3, 278760, Note_on_c, 0, 45, 81
3, 278879, Note_on_c, 0, 45, 0
3, 278879, Note_on_c, 0, 54, 79
3, 279000, Note_on_c, 0, 54, 0
3, 279000, Note_on_c, 0, 60, 89
3, 279120, Note_on_c, 0, 76, 0
3, 279120, Note_on_c, 0, 74, 69
3, 279180, Note_on_c, 0, 60, 0
3, 279239, Note_on_c, 0, 74, 0
3, 279239, Note_on_c, 0, 72, 72
3, 279360, Note_on_c, 0, 72, 0
3, 279360, Note_on_c, 0, 64, 0
3, 279360, Note_on_c, 0, 72, 0
3, 279360, Note_on_c, 0, 74, 93
3, 279360, Note_on_c, 0, 71, 108
3, 279360, Note_on_c, 0, 35, 64
3, 279480, Note_on_c, 0, 35, 0
3, 279480, Note_on_c, 0, 62, 87
3, 279480, Note_on_c, 0, 47, 82
3, 279599, Note_on_c, 0, 47, 0
3, 279599, Note_on_c, 0, 54, 80
3, 279720, Note_on_c, 0, 54, 0
3, 279720, Note_on_c, 0, 59, 75
3, 279840, Note_on_c, 0, 74, 0
3, 279840, Note_on_c, 0, 72, 68
3, 279900, Note_on_c, 0, 59, 0
3, 279959, Note_on_c, 0, 72, 0
3, 279959, Note_on_c, 0, 71, 69
3, 280080, Note_on_c, 0, 71, 0
3, 280080, Note_on_c, 0, 62, 0
3, 280080, Note_on_c, 0, 71, 0
3, 280080, Note_on_c, 0, 71, 73
3, 280080, Note_on_c, 0, 64, 98
3, 280080, Note_on_c, 0, 36, 73
3, 280200, Note_on_c, 0, 71, 0
3, 280200, Note_on_c, 0, 72, 75
3, 280319, Note_on_c, 0, 72, 0
3, 280319, Note_on_c, 0, 36, 0
3, 280319, Note_on_c, 0, 71, 76
3, 280319, Note_on_c, 0, 55, 76
3, 280440, Note_on_c, 0, 55, 0
3, 280440, Note_on_c, 0, 71, 0
3, 280440, Note_on_c, 0, 69, 78
3, 280440, Note_on_c, 0, 57, 78
3, 280560, Note_on_c, 0, 57, 0
3, 280560, Note_on_c, 0, 69, 0
3, 280560, Note_on_c, 0, 67, 80
3, 280560, Note_on_c, 0, 59, 80
3, 280679, Note_on_c, 0, 59, 0
3, 280679, Note_on_c, 0, 67, 0
3, 280679, Note_on_c, 0, 69, 81
3, 280679, Note_on_c, 0, 60, 81
3, 280800, Note_on_c, 0, 60, 0
3, 280800, Note_on_c, 0, 69, 0
3, 280800, Note_on_c, 0, 64, 0
3, 280800, Note_on_c, 0, 71, 83
3, 280800, Note_on_c, 0, 64, 83
3, 280920, Note_on_c, 0, 71, 0
3, 280920, Note_on_c, 0, 72, 84
3, 280980, Note_on_c, 0, 64, 0
3, 280980, Note_on_c, 0, 66, 85
3, 281039, Note_on_c, 0, 72, 0
3, 281039, Note_on_c, 0, 76, 91
3, 281160, Note_on_c, 0, 76, 0
3, 281160, Note_on_c, 0, 66, 0
3, 281160, Note_on_c, 0, 72, 117
3, 281160, Note_on_c, 0, 76, 117
3, 281160, Note_on_c, 0, 79, 117
3, 281160, Note_on_c, 0, 67, 117
3, 281219, Note_on_c, 0, 79, 0
3, 281219, Note_on_c, 0, 72, 0
3, 281219, Note_on_c, 0, 76, 0
3, 281280, Note_on_c, 0, 72, 91
3, 281280, Note_on_c, 0, 76, 91
3, 281280, Note_on_c, 0, 79, 91
3, 281339, Note_on_c, 0, 79, 0
3, 281339, Note_on_c, 0, 76, 0
3, 281339, Note_on_c, 0, 72, 0
3, 281399, Note_on_c, 0, 72, 86
3, 281399, Note_on_c, 0, 76, 86
3, 281399, Note_on_c, 0, 79, 86
3, 281458, Note_on_c, 0, 79, 0
3, 281458, Note_on_c, 0, 76, 0
3, 281458, Note_on_c, 0, 72, 0
3, 281520, Note_on_c, 0, 72, 88
3, 281520, Note_on_c, 0, 76, 88
3, 281520, Note_on_c, 0, 79, 88
3, 281579, Note_on_c, 0, 79, 0
3, 281579, Note_on_c, 0, 76, 0
3, 281579, Note_on_c, 0, 72, 0
3, 281640, Note_on_c, 0, 72, 88
3, 281640, Note_on_c, 0, 76, 88
3, 281640, Note_on_c, 0, 79, 88
3, 281699, Note_on_c, 0, 79, 0
3, 281699, Note_on_c, 0, 76, 0
3, 281699, Note_on_c, 0, 72, 0
3, 281759, Note_on_c, 0, 72, 90
3, 281759, Note_on_c, 0, 76, 90
3, 281759, Note_on_c, 0, 79, 90
3, 281818, Note_on_c, 0, 79, 0
3, 281818, Note_on_c, 0, 76, 0
3, 281818, Note_on_c, 0, 72, 0
3, 281880, Note_on_c, 0, 67, 0
3, 281880, Note_on_c, 0, 72, 117
3, 281880, Note_on_c, 0, 75, 117
3, 281880, Note_on_c, 0, 81, 117
3, 281880, Note_on_c, 0, 69, 102
3, 282000, Note_on_c, 0, 81, 0
3, 282000, Note_on_c, 0, 72, 0
3, 282000, Note_on_c, 0, 75, 0
3, 282000, Note_on_c, 0, 72, 86
3, 282000, Note_on_c, 0, 75, 86
3, 282000, Note_on_c, 0, 79, 86
3, 282119, Note_on_c, 0, 79, 0
3, 282119, Note_on_c, 0, 75, 0
3, 282119, Note_on_c, 0, 72, 0
3, 282119, Note_on_c, 0, 72, 85
3, 282119, Note_on_c, 0, 75, 85
3, 282119, Note_on_c, 0, 79, 85
3, 282178, Note_on_c, 0, 79, 0
3, 282178, Note_on_c, 0, 75, 0
3, 282178, Note_on_c, 0, 72, 0
3, 282197, Note_on_c, 0, 69, 0
3, 282240, Note_on_c, 0, 72, 117
3, 282240, Note_on_c, 0, 75, 117
3, 282240, Note_on_c, 0, 83, 117
3, 282240, Note_on_c, 0, 71, 107
3, 282360, Note_on_c, 0, 83, 0
3, 282360, Note_on_c, 0, 72, 0
3, 282360, Note_on_c, 0, 75, 0
3, 282360, Note_on_c, 0, 72, 74
3, 282360, Note_on_c, 0, 75, 74
3, 282360, Note_on_c, 0, 79, 74
3, 282479, Note_on_c, 0, 79, 0
3, 282479, Note_on_c, 0, 75, 0
3, 282479, Note_on_c, 0, 72, 0
3, 282479, Note_on_c, 0, 72, 83
3, 282479, Note_on_c, 0, 75, 83
3, 282479, Note_on_c, 0, 79, 83
3, 282538, Note_on_c, 0, 79, 0
3, 282538, Note_on_c, 0, 75, 0
3, 282538, Note_on_c, 0, 72, 0
3, 282557, Note_on_c, 0, 71, 0
3, 282600, Note_on_c, 0, 72, 117
3, 282600, Note_on_c, 0, 75, 117
3, 282600, Note_on_c, 0, 84, 117
3, 282600, Note_on_c, 0, 72, 104
3, 282720, Note_on_c, 0, 84, 0
3, 282720, Note_on_c, 0, 72, 0
3, 282720, Note_on_c, 0, 75, 0
3, 282720, Note_on_c, 0, 72, 76
3, 282720, Note_on_c, 0, 75, 76
3, 282720, Note_on_c, 0, 79, 76
3, 282839, Note_on_c, 0, 79, 0
3, 282839, Note_on_c, 0, 75, 0
3, 282839, Note_on_c, 0, 72, 0
3, 282839, Note_on_c, 0, 72, 84
3, 282839, Note_on_c, 0, 75, 84
3, 282839, Note_on_c, 0, 79, 84
3, 282898, Note_on_c, 0, 79, 0
3, 282898, Note_on_c, 0, 75, 0
3, 282898, Note_on_c, 0, 72, 0
3, 282917, Note_on_c, 0, 72, 0
3, 282960, Note_on_c, 0, 59, 55
3, 282960, Note_on_c, 0, 67, 55
3, 282960, Note_on_c, 0, 71, 55
3, 282960, Note_on_c, 0, 43, 59
3, 282960, Note_on_c, 0, 50, 59
3, 283199, Note_on_c, 0, 50, 0
3, 283199, Note_on_c, 0, 71, 0
3, 283199, Note_on_c, 0, 59, 0
3, 283199, Note_on_c, 0, 67, 0
3, 283199, Note_on_c, 0, 43, 0
3, 283199, Note_on_c, 0, 50, 59
3, 283199, Note_on_c, 0, 38, 63
3, 283320, Note_on_c, 0, 38, 0
3, 283320, Note_on_c, 0, 50, 0
3, 283320, Note_on_c, 0, 55, 74
3, 283320, Note_on_c, 0, 31, 73
3, 283320, Note_on_c, 0, 43, 73
3, 283680, Note_on_c, 0, 43, 0
3, 283680, Note_on_c, 0, 31, 0
3, 283680, Note_on_c, 0, 55, 0
3, 284040, Note_on_c, 0, 59, 66
3, 284040, Note_on_c, 0, 71, 66
3, 284040, Note_on_c, 0, 43, 63
3, 284040, Note_on_c, 0, 50, 63
3, 284160, Note_on_c, 0, 71, 0
3, 284160, Note_on_c, 0, 59, 0
3, 284160, Note_on_c, 0, 69, 68
3, 284279, Note_on_c, 0, 69, 0
3, 284279, Note_on_c, 0, 43, 0
3, 284279, Note_on_c, 0, 50, 0
3, 284279, Note_on_c, 0, 67, 67
3, 284279, Note_on_c, 0, 60, 92
3, 284400, Note_on_c, 0, 60, 0
3, 284400, Note_on_c, 0, 67, 0
3, 284400, Note_on_c, 0, 59, 70
3, 284400, Note_on_c, 0, 67, 70
3, 284400, Note_on_c, 0, 43, 65
3, 284400, Note_on_c, 0, 50, 65
3, 284639, Note_on_c, 0, 50, 0
3, 284639, Note_on_c, 0, 59, 0
3, 284639, Note_on_c, 0, 67, 0
3, 284639, Note_on_c, 0, 43, 0
3, 284639, Note_on_c, 0, 50, 60
3, 284639, Note_on_c, 0, 38, 64
3, 284760, Note_on_c, 0, 38, 0
3, 284760, Note_on_c, 0, 50, 0
3, 284760, Note_on_c, 0, 55, 77
3, 284760, Note_on_c, 0, 31, 74
3, 284760, Note_on_c, 0, 43, 74
3, 285120, Note_on_c, 0, 43, 0
3, 285120, Note_on_c, 0, 31, 0
3, 285120, Note_on_c, 0, 55, 0
3, 285480, Note_on_c, 0, 59, 64
3, 285480, Note_on_c, 0, 71, 64
3, 285480, Note_on_c, 0, 43, 60
3, 285480, Note_on_c, 0, 50, 60
3, 285600, Note_on_c, 0, 71, 0
3, 285600, Note_on_c, 0, 59, 0
3, 285600, Note_on_c, 0, 69, 70
3, 285719, Note_on_c, 0, 69, 0
3, 285719, Note_on_c, 0, 43, 0
3, 285719, Note_on_c, 0, 50, 0
3, 285719, Note_on_c, 0, 67, 70
3, 285719, Note_on_c, 0, 60, 94
3, 285840, Note_on_c, 0, 60, 0
3, 285840, Note_on_c, 0, 67, 0
3, 285840, Note_on_c, 0, 59, 73
3, 285840, Note_on_c, 0, 67, 73
3, 285840, Note_on_c, 0, 43, 65
3, 285840, Note_on_c, 0, 50, 65
3, 286079, Note_on_c, 0, 50, 0
3, 286079, Note_on_c, 0, 43, 0
3, 286079, Note_on_c, 0, 38, 58
3, 286200, Note_on_c, 0, 38, 0
3, 286200, Note_on_c, 0, 67, 0
3, 286200, Note_on_c, 0, 59, 0
3, 286200, Note_on_c, 0, 59, 64
3, 286200, Note_on_c, 0, 31, 77
3, 286200, Note_on_c, 0, 43, 77
3, 286320, Note_on_c, 0, 59, 0
3, 286320, Note_on_c, 0, 62, 77
3, 286439, Note_on_c, 0, 62, 0
3, 286439, Note_on_c, 0, 43, 0
3, 286439, Note_on_c, 0, 31, 0
3, 286439, Note_on_c, 0, 64, 78
3, 286439, Note_on_c, 0, 53, 82
3, 286560, Note_on_c, 0, 64, 0
3, 286560, Note_on_c, 0, 67, 81
3, 286560, Note_on_c, 0, 64, 107
3, 286560, Note_on_c, 0, 55, 83
3, 286560, Note_on_c, 0, 59, 83
3, 286680, Note_on_c, 0, 64, 0
3, 286680, Note_on_c, 0, 62, 107
3, 286799, Note_on_c, 0, 62, 0
3, 286799, Note_on_c, 0, 59, 111
3, 286920, Note_on_c, 0, 59, 0
3, 286920, Note_on_c, 0, 55, 0
3, 286920, Note_on_c, 0, 59, 0
3, 286920, Note_on_c, 0, 53, 0
3, 286920, Note_on_c, 0, 60, 116
3, 286920, Note_on_c, 0, 43, 66
3, 286920, Note_on_c, 0, 52, 66
3, 287040, Note_on_c, 0, 60, 0
3, 287040, Note_on_c, 0, 59, 110
3, 287159, Note_on_c, 0, 59, 0
3, 287159, Note_on_c, 0, 52, 0
3, 287159, Note_on_c, 0, 43, 0
3, 287159, Note_on_c, 0, 55, 112
3, 287159, Note_on_c, 0, 51, 72
3, 287280, Note_on_c, 0, 51, 0
3, 287280, Note_on_c, 0, 55, 0
3, 287280, Note_on_c, 0, 59, 77
3, 287280, Note_on_c, 0, 43, 70
3, 287280, Note_on_c, 0, 50, 70
3, 287519, Note_on_c, 0, 50, 0
3, 287519, Note_on_c, 0, 43, 0
3, 287519, Note_on_c, 0, 38, 64
3, 287640, Note_on_c, 0, 38, 0
3, 287640, Note_on_c, 0, 59, 0
3, 287640, Note_on_c, 0, 67, 0
3, 287640, Note_on_c, 0, 67, 71
3, 287640, Note_on_c, 0, 35, 101
3, 287640, Note_on_c, 0, 47, 101
3, 287760, Note_on_c, 0, 67, 0
3, 287760, Note_on_c, 0, 74, 87
3, 287879, Note_on_c, 0, 74, 0
3, 287879, Note_on_c, 0, 47, 0
3, 287879, Note_on_c, 0, 35, 0
3, 287879, Note_on_c, 0, 76, 75
3, 287879, Note_on_c, 0, 55, 116
3, 288000, Note_on_c, 0, 76, 0
3, 288000, Note_on_c, 0, 79, 84
3, 288000, Note_on_c, 0, 62, 66
3, 288000, Note_on_c, 0, 67, 66
3, 288120, Note_on_c, 0, 79, 0
3, 288120, Note_on_c, 0, 78, 73
3, 288239, Note_on_c, 0, 78, 0
3, 288239, Note_on_c, 0, 67, 0
3, 288239, Note_on_c, 0, 62, 0
3, 288239, Note_on_c, 0, 74, 67
3, 288239, Note_on_c, 0, 66, 66
3, 288360, Note_on_c, 0, 66, 0
3, 288360, Note_on_c, 0, 74, 0
3, 288360, Note_on_c, 0, 76, 73
3, 288360, Note_on_c, 0, 59, 65
3, 288360, Note_on_c, 0, 64, 65
3, 288480, Note_on_c, 0, 76, 0
3, 288480, Note_on_c, 0, 74, 69
3, 288599, Note_on_c, 0, 74, 0
3, 288599, Note_on_c, 0, 64, 0
3, 288599, Note_on_c, 0, 59, 0
3, 288599, Note_on_c, 0, 71, 61
3, 288599, Note_on_c, 0, 62, 66
3, 288720, Note_on_c, 0, 62, 0
3, 288720, Note_on_c, 0, 71, 0
3, 288720, Note_on_c, 0, 55, 0
3, 288720, Note_on_c, 0, 71, 78
3, 288720, Note_on_c, 0, 74, 78
3, 288720, Note_on_c, 0, 54, 73
3, 288720, Note_on_c, 0, 59, 73
3, 288720, Note_on_c, 0, 62, 73
3, 289080, Note_on_c, 0, 62, 0
3, 289080, Note_on_c, 0, 54, 0
3, 289080, Note_on_c, 0, 71, 0
3, 289080, Note_on_c, 0, 74, 0
3, 289080, Note_on_c, 0, 59, 0
3, 289080, Note_on_c, 0, 64, 66
3, 289080, Note_on_c, 0, 71, 66
3, 289080, Note_on_c, 0, 36, 60
3, 289200, Note_on_c, 0, 36, 0
3, 289200, Note_on_c, 0, 71, 0
3, 289200, Note_on_c, 0, 64, 0
3, 289200, Note_on_c, 0, 66, 64
3, 289200, Note_on_c, 0, 48, 82
3, 289319, Note_on_c, 0, 48, 0
3, 289319, Note_on_c, 0, 66, 0
3, 289319, Note_on_c, 0, 67, 72
3, 289319, Note_on_c, 0, 52, 80
3, 289440, Note_on_c, 0, 52, 0
3, 289440, Note_on_c, 0, 67, 0
3, 289440, Note_on_c, 0, 64, 105
3, 289440, Note_on_c, 0, 71, 105
3, 289440, Note_on_c, 0, 55, 103
3, 289440, Note_on_c, 0, 59, 103
3, 289800, Note_on_c, 0, 59, 0
3, 289800, Note_on_c, 0, 64, 0
3, 289800, Note_on_c, 0, 71, 0
3, 289800, Note_on_c, 0, 55, 0
3, 289800, Note_on_c, 0, 71, 100
3, 289800, Note_on_c, 0, 76, 100
3, 289800, Note_on_c, 0, 83, 100
3, 289800, Note_on_c, 0, 37, 62
3, 289920, Note_on_c, 0, 37, 0
3, 289920, Note_on_c, 0, 71, 0
3, 289920, Note_on_c, 0, 76, 0
3, 289920, Note_on_c, 0, 83, 0
3, 289920, Note_on_c, 0, 78, 67
3, 289920, Note_on_c, 0, 49, 87
3, 290039, Note_on_c, 0, 49, 0
3, 290039, Note_on_c, 0, 78, 0
3, 290039, Note_on_c, 0, 79, 78
3, 290039, Note_on_c, 0, 52, 78
3, 290160, Note_on_c, 0, 52, 0
3, 290160, Note_on_c, 0, 79, 0
3, 290160, Note_on_c, 0, 71, 107
3, 290160, Note_on_c, 0, 76, 107
3, 290160, Note_on_c, 0, 83, 107
3, 290160, Note_on_c, 0, 55, 107
3, 290160, Note_on_c, 0, 59, 107
3, 290520, Note_on_c, 0, 59, 0
3, 290520, Note_on_c, 0, 83, 0
3, 290520, Note_on_c, 0, 71, 0
3, 290520, Note_on_c, 0, 76, 0
3, 290520, Note_on_c, 0, 55, 0
3, 290520, Note_on_c, 0, 59, 53
3, 290520, Note_on_c, 0, 66, 53
3, 290520, Note_on_c, 0, 38, 69
3, 290640, Note_on_c, 0, 38, 0
3, 290640, Note_on_c, 0, 66, 0
3, 290640, Note_on_c, 0, 59, 0
3, 290640, Note_on_c, 0, 67, 70
3, 290640, Note_on_c, 0, 50, 79
3, 290759, Note_on_c, 0, 50, 0
3, 290759, Note_on_c, 0, 67, 0
3, 290759, Note_on_c, 0, 69, 77
3, 290759, Note_on_c, 0, 55, 83
3, 290880, Note_on_c, 0, 55, 0
3, 290880, Note_on_c, 0, 69, 0
3, 290880, Note_on_c, 0, 67, 81
3, 290880, Note_on_c, 0, 71, 81
3, 290880, Note_on_c, 0, 59, 106
3, 291000, Note_on_c, 0, 71, 0
3, 291000, Note_on_c, 0, 67, 0
3, 291000, Note_on_c, 0, 74, 82
3, 291119, Note_on_c, 0, 74, 0
3, 291119, Note_on_c, 0, 76, 81
3, 291240, Note_on_c, 0, 76, 0
3, 291240, Note_on_c, 0, 59, 0
3, 291240, Note_on_c, 0, 71, 80
3, 291240, Note_on_c, 0, 78, 80
3, 291240, Note_on_c, 0, 40, 64
3, 291360, Note_on_c, 0, 40, 0
3, 291360, Note_on_c, 0, 78, 0
3, 291360, Note_on_c, 0, 71, 0
3, 291360, Note_on_c, 0, 79, 75
3, 291360, Note_on_c, 0, 47, 80
3, 291479, Note_on_c, 0, 47, 0
3, 291479, Note_on_c, 0, 79, 0
3, 291479, Note_on_c, 0, 81, 80
3, 291479, Note_on_c, 0, 55, 82
3, 291600, Note_on_c, 0, 55, 0
3, 291600, Note_on_c, 0, 81, 0
3, 291600, Note_on_c, 0, 79, 106
3, 291600, Note_on_c, 0, 83, 106
3, 291600, Note_on_c, 0, 59, 101
3, 291960, Note_on_c, 0, 59, 0
3, 291960, Note_on_c, 0, 83, 0
3, 291960, Note_on_c, 0, 79, 0
3, 291960, Note_on_c, 0, 62, 104
3, 291960, Note_on_c, 0, 50, 101
3, 292080, Note_on_c, 0, 50, 0
3, 292080, Note_on_c, 0, 62, 0
3, 292080, Note_on_c, 0, 64, 116
3, 292080, Note_on_c, 0, 52, 116
3, 292199, Note_on_c, 0, 52, 0
3, 292199, Note_on_c, 0, 64, 0
3, 292199, Note_on_c, 0, 66, 116
3, 292199, Note_on_c, 0, 54, 116
3, 292320, Note_on_c, 0, 54, 0
3, 292320, Note_on_c, 0, 66, 0
3, 292320, Note_on_c, 0, 62, 86
3, 292320, Note_on_c, 0, 66, 86
3, 292320, Note_on_c, 0, 69, 86
3, 292320, Note_on_c, 0, 74, 86
3, 292320, Note_on_c, 0, 48, 92
3, 292320, Note_on_c, 0, 54, 92
3, 292320, Note_on_c, 0, 57, 92
3, 292680, Note_on_c, 0, 62, 104
3, 292680, Note_on_c, 0, 50, 108
3, 292800, Note_on_c, 0, 50, 0
3, 292800, Note_on_c, 0, 62, 0
3, 292800, Note_on_c, 0, 64, 116
3, 292800, Note_on_c, 0, 52, 116
3, 292919, Note_on_c, 0, 52, 0
3, 292919, Note_on_c, 0, 64, 0
3, 292919, Note_on_c, 0, 66, 116
3, 292919, Note_on_c, 0, 54, 116
3, 293040, Note_on_c, 0, 54, 0
3, 293040, Note_on_c, 0, 48, 0
3, 293040, Note_on_c, 0, 66, 0
3, 293040, Note_on_c, 0, 54, 0
3, 293040, Note_on_c, 0, 69, 0
3, 293040, Note_on_c, 0, 74, 0
3, 293040, Note_on_c, 0, 62, 0
3, 293040, Note_on_c, 0, 57, 0
3, 293040, Note_on_c, 0, 66, 0
3, 293040, Note_on_c, 0, 62, 98
3, 293040, Note_on_c, 0, 66, 98
3, 293040, Note_on_c, 0, 71, 98
3, 293040, Note_on_c, 0, 74, 98
3, 293040, Note_on_c, 0, 47, 98
3, 293040, Note_on_c, 0, 54, 98
3, 293040, Note_on_c, 0, 59, 98
3, 293400, Note_on_c, 0, 62, 107
3, 293400, Note_on_c, 0, 50, 101
3, 293520, Note_on_c, 0, 50, 0
3, 293520, Note_on_c, 0, 62, 0
3, 293520, Note_on_c, 0, 64, 116
3, 293520, Note_on_c, 0, 52, 116
3, 293639, Note_on_c, 0, 52, 0
3, 293639, Note_on_c, 0, 64, 0
3, 293639, Note_on_c, 0, 66, 116
3, 293639, Note_on_c, 0, 54, 116
3, 293760, Note_on_c, 0, 54, 0
3, 293760, Note_on_c, 0, 47, 0
3, 293760, Note_on_c, 0, 66, 0
3, 293760, Note_on_c, 0, 54, 0
3, 293760, Note_on_c, 0, 71, 0
3, 293760, Note_on_c, 0, 74, 0
3, 293760, Note_on_c, 0, 62, 0
3, 293760, Note_on_c, 0, 59, 0
3, 293760, Note_on_c, 0, 66, 0
3, 293760, Note_on_c, 0, 62, 97
3, 293760, Note_on_c, 0, 66, 97
3, 293760, Note_on_c, 0, 72, 97
3, 293760, Note_on_c, 0, 74, 97
3, 293760, Note_on_c, 0, 45, 101
3, 293760, Note_on_c, 0, 54, 101
3, 293760, Note_on_c, 0, 60, 101
3, 294120, Note_on_c, 0, 62, 105
3, 294120, Note_on_c, 0, 50, 105
3, 294240, Note_on_c, 0, 50, 0
3, 294240, Note_on_c, 0, 62, 0
3, 294240, Note_on_c, 0, 64, 116
3, 294240, Note_on_c, 0, 52, 116
3, 294318, Note_on_c, 0, 66, 0
3, 294318, Note_on_c, 0, 74, 0
3, 294318, Note_on_c, 0, 62, 0
3, 294318, Note_on_c, 0, 72, 0
3, 294318, Note_on_c, 0, 60, 56
3, 294359, Note_on_c, 0, 64, 0
3, 294359, Note_on_c, 0, 52, 0
3, 294359, Note_on_c, 0, 66, 116
3, 294359, Note_on_c, 0, 54, 116
3, 294362, Note_on_c, 0, 60, 0
3, 294362, Note_on_c, 0, 63, 92
3, 294400, Note_on_c, 0, 63, 0
3, 294400, Note_on_c, 0, 72, 113
3, 294438, Note_on_c, 0, 72, 0
3, 294438, Note_on_c, 0, 72, 95
3, 294480, Note_on_c, 0, 72, 0
3, 294480, Note_on_c, 0, 54, 0
3, 294480, Note_on_c, 0, 60, 0
3, 294480, Note_on_c, 0, 54, 0
3, 294480, Note_on_c, 0, 45, 0
3, 294480, Note_on_c, 0, 66, 0
3, 294480, Note_on_c, 0, 75, 1
3, 294480, Note_on_c, 0, 75, 0
3, 294480, Note_on_c, 0, 75, 98
3, 294480, Note_on_c, 0, 84, 112
3, 294480, Note_on_c, 0, 32, 74
3, 294480, Note_on_c, 0, 44, 74
3, 294600, Note_on_c, 0, 44, 0
3, 294600, Note_on_c, 0, 32, 0
3, 294600, Note_on_c, 0, 51, 95
3, 294719, Note_on_c, 0, 51, 0
3, 294719, Note_on_c, 0, 54, 95
3, 294840, Note_on_c, 0, 54, 0
3, 294840, Note_on_c, 0, 60, 102
3, 294960, Note_on_c, 0, 60, 0
3, 294960, Note_on_c, 0, 84, 0
3, 294960, Note_on_c, 0, 82, 83
3, 294960, Note_on_c, 0, 63, 97
3, 295079, Note_on_c, 0, 63, 0
3, 295079, Note_on_c, 0, 82, 0
3, 295079, Note_on_c, 0, 80, 78
3, 295079, Note_on_c, 0, 66, 95
3, 295200, Note_on_c, 0, 66, 0
3, 295200, Note_on_c, 0, 80, 0
3, 295200, Note_on_c, 0, 80, 88
3, 295200, Note_on_c, 0, 72, 103
3, 295320, Note_on_c, 0, 72, 0
3, 295320, Note_on_c, 0, 80, 0
3, 295320, Note_on_c, 0, 77, 79
3, 295320, Note_on_c, 0, 66, 76
3, 295439, Note_on_c, 0, 66, 0
3, 295439, Note_on_c, 0, 77, 0
3, 295439, Note_on_c, 0, 75, 76
3, 295439, Note_on_c, 0, 63, 72
3, 295560, Note_on_c, 0, 63, 0
3, 295560, Note_on_c, 0, 75, 0
3, 295560, Note_on_c, 0, 75, 88
3, 295560, Note_on_c, 0, 60, 75
3, 295680, Note_on_c, 0, 60, 0
3, 295680, Note_on_c, 0, 75, 0
3, 295680, Note_on_c, 0, 72, 82
3, 295680, Note_on_c, 0, 54, 78
3, 295799, Note_on_c, 0, 54, 0
3, 295799, Note_on_c, 0, 72, 0
3, 295799, Note_on_c, 0, 75, 96
3, 295799, Note_on_c, 0, 51, 82
3, 295920, Note_on_c, 0, 51, 0
3, 295920, Note_on_c, 0, 75, 0
3, 295920, Note_on_c, 0, 84, 110
3, 295920, Note_on_c, 0, 44, 77
3, 296040, Note_on_c, 0, 84, 0
3, 296040, Note_on_c, 0, 75, 70
3, 296159, Note_on_c, 0, 75, 0
3, 296159, Note_on_c, 0, 84, 105
3, 296280, Note_on_c, 0, 84, 0
3, 296280, Note_on_c, 0, 44, 0
3, 296280, Note_on_c, 0, 75, 101
3, 296280, Note_on_c, 0, 87, 101
3, 296280, Note_on_c, 0, 45, 117
3, 296280, Note_on_c, 0, 51, 117
3, 296280, Note_on_c, 0, 55, 117
3, 296280, Note_on_c, 0, 60, 117
3, 296400, Note_on_c, 0, 87, 0
3, 296400, Note_on_c, 0, 75, 0
3, 296400, Note_on_c, 0, 84, 78
3, 296519, Note_on_c, 0, 84, 0
3, 296519, Note_on_c, 0, 87, 94
3, 296640, Note_on_c, 0, 87, 0
3, 296640, Note_on_c, 0, 79, 87
3, 296640, Note_on_c, 0, 91, 87
3, 296760, Note_on_c, 0, 91, 0
3, 296760, Note_on_c, 0, 79, 0
3, 296760, Note_on_c, 0, 84, 90
3, 296879, Note_on_c, 0, 84, 0
3, 296879, Note_on_c, 0, 91, 92
3, 297000, Note_on_c, 0, 91, 0
3, 297000, Note_on_c, 0, 60, 0
3, 297000, Note_on_c, 0, 45, 0
3, 297000, Note_on_c, 0, 51, 0
3, 297000, Note_on_c, 0, 55, 0
3, 297000, Note_on_c, 0, 81, 95
3, 297000, Note_on_c, 0, 90, 95
3, 297000, Note_on_c, 0, 93, 95
3, 297000, Note_on_c, 0, 50, 95
3, 297000, Note_on_c, 0, 54, 95
3, 297000, Note_on_c, 0, 60, 95
3, 297000, Note_on_c, 0, 62, 95
3, 297120, Note_on_c, 0, 93, 0
3, 297120, Note_on_c, 0, 90, 0
3, 297120, Note_on_c, 0, 81, 0
3, 297120, Note_on_c, 0, 86, 97
3, 297239, Note_on_c, 0, 86, 0
3, 297239, Note_on_c, 0, 60, 0
3, 297239, Note_on_c, 0, 50, 0
3, 297239, Note_on_c, 0, 62, 0
3, 297239, Note_on_c, 0, 54, 0
3, 297239, Note_on_c, 0, 93, 116
3, 297239, Note_on_c, 0, 43, 89
3, 297239, Note_on_c, 0, 50, 89
3, 297360, Note_on_c, 0, 50, 0
3, 297360, Note_on_c, 0, 43, 0
3, 297360, Note_on_c, 0, 93, 0
3, 297360, Note_on_c, 0, 83, 117
3, 297360, Note_on_c, 0, 91, 117
3, 297360, Note_on_c, 0, 95, 117
3, 297360, Note_on_c, 0, 59, 117
3, 297360, Note_on_c, 0, 62, 117
3, 297360, Note_on_c, 0, 67, 117
3, 297840, Note_on_c, 0, 67, 0
3, 297840, Note_on_c, 0, 59, 0
3, 297840, Note_on_c, 0, 83, 0
3, 297840, Note_on_c, 0, 91, 0
3, 297840, Note_on_c, 0, 95, 0
3, 297840, Note_on_c, 0, 62, 0
3, 297840, Note_on_c, 0, 81, 98
3, 297840, Note_on_c, 0, 93, 98
3, 297840, Note_on_c, 0, 69, 111
3, 297959, Note_on_c, 0, 69, 0
3, 297959, Note_on_c, 0, 93, 0
3, 297959, Note_on_c, 0, 81, 0
3, 297959, Note_on_c, 0, 91, 94
3, 297959, Note_on_c, 0, 67, 91
3, 298080, Note_on_c, 0, 67, 0
3, 298080, Note_on_c, 0, 91, 0
3, 298080, Note_on_c, 0, 79, 117
3, 298080, Note_on_c, 0, 91, 117
3, 298080, Note_on_c, 0, 67, 117
3, 298200, Note_on_c, 0, 67, 0
3, 298200, Note_on_c, 0, 91, 0
3, 298200, Note_on_c, 0, 79, 0
3, 298200, Note_on_c, 0, 88, 95
3, 298200, Note_on_c, 0, 64, 94
3, 298319, Note_on_c, 0, 64, 0
3, 298319, Note_on_c, 0, 88, 0
3, 298319, Note_on_c, 0, 86, 92
3, 298319, Note_on_c, 0, 62, 98
3, 298440, Note_on_c, 0, 62, 0
3, 298440, Note_on_c, 0, 86, 0
3, 298440, Note_on_c, 0, 74, 117
3, 298440, Note_on_c, 0, 86, 117
3, 298440, Note_on_c, 0, 62, 117
3, 298560, Note_on_c, 0, 86, 0
3, 298560, Note_on_c, 0, 74, 0
3, 298560, Note_on_c, 0, 84, 102
3, 298679, Note_on_c, 0, 84, 0
3, 298679, Note_on_c, 0, 62, 0
3, 298679, Note_on_c, 0, 83, 102
3, 298679, Note_on_c, 0, 43, 87
3, 298679, Note_on_c, 0, 50, 87
3, 298800, Note_on_c, 0, 50, 0
3, 298800, Note_on_c, 0, 43, 0
3, 298800, Note_on_c, 0, 83, 0
3, 298800, Note_on_c, 0, 79, 117
3, 298800, Note_on_c, 0, 83, 117
3, 298800, Note_on_c, 0, 86, 117
3, 298800, Note_on_c, 0, 91, 117
3, 298800, Note_on_c, 0, 59, 117
3, 298800, Note_on_c, 0, 62, 117
3, 298800, Note_on_c, 0, 67, 117
3, 299280, Note_on_c, 0, 67, 0
3, 299280, Note_on_c, 0, 62, 0
3, 299280, Note_on_c, 0, 91, 0
3, 299280, Note_on_c, 0, 79, 0
3, 299280, Note_on_c, 0, 83, 0
3, 299280, Note_on_c, 0, 86, 0
3, 299280, Note_on_c, 0, 59, 0
3, 299280, Note_on_c, 0, 76, 93
3, 299280, Note_on_c, 0, 88, 93
3, 299280, Note_on_c, 0, 64, 95
3, 299399, Note_on_c, 0, 64, 0
3, 299399, Note_on_c, 0, 88, 0
3, 299399, Note_on_c, 0, 76, 0
3, 299399, Note_on_c, 0, 86, 92
3, 299399, Note_on_c, 0, 62, 93
3, 299520, Note_on_c, 0, 62, 0
3, 299520, Note_on_c, 0, 86, 0
3, 299520, Note_on_c, 0, 74, 117
3, 299520, Note_on_c, 0, 86, 117
3, 299520, Note_on_c, 0, 62, 117
3, 299640, Note_on_c, 0, 62, 0
3, 299640, Note_on_c, 0, 86, 0
3, 299640, Note_on_c, 0, 74, 0
3, 299640, Note_on_c, 0, 84, 99
3, 299640, Note_on_c, 0, 60, 90
3, 299759, Note_on_c, 0, 60, 0
3, 299759, Note_on_c, 0, 84, 0
3, 299759, Note_on_c, 0, 83, 95
3, 299759, Note_on_c, 0, 59, 103
3, 299880, Note_on_c, 0, 59, 0
3, 299880, Note_on_c, 0, 83, 0
3, 299880, Note_on_c, 0, 71, 117
3, 299880, Note_on_c, 0, 83, 117
3, 299880, Note_on_c, 0, 59, 117
3, 300000, Note_on_c, 0, 83, 0
3, 300000, Note_on_c, 0, 71, 0
3, 300000, Note_on_c, 0, 81, 97
3, 300119, Note_on_c, 0, 81, 0
3, 300119, Note_on_c, 0, 59, 0
3, 300119, Note_on_c, 0, 79, 95
3, 300119, Note_on_c, 0, 43, 90
3, 300119, Note_on_c, 0, 50, 90
3, 300240, Note_on_c, 0, 50, 0
3, 300240, Note_on_c, 0, 43, 0
3, 300240, Note_on_c, 0, 79, 0
3, 300240, Note_on_c, 0, 74, 117
3, 300240, Note_on_c, 0, 79, 117
3, 300240, Note_on_c, 0, 83, 117
3, 300240, Note_on_c, 0, 86, 117
3, 300240, Note_on_c, 0, 55, 117
3, 300240, Note_on_c, 0, 59, 117
3, 300240, Note_on_c, 0, 62, 117
3, 300720, Note_on_c, 0, 62, 0
3, 300720, Note_on_c, 0, 59, 0
3, 300720, Note_on_c, 0, 86, 0
3, 300720, Note_on_c, 0, 74, 0
3, 300720, Note_on_c, 0, 79, 0
3, 300720, Note_on_c, 0, 83, 0
3, 300720, Note_on_c, 0, 55, 0
3, 300720, Note_on_c, 0, 72, 100
3, 300720, Note_on_c, 0, 84, 100
3, 300720, Note_on_c, 0, 60, 100
3, 300839, Note_on_c, 0, 60, 0
3, 300839, Note_on_c, 0, 84, 0
3, 300839, Note_on_c, 0, 72, 0
3, 300839, Note_on_c, 0, 83, 99
3, 300839, Note_on_c, 0, 59, 97
3, 300960, Note_on_c, 0, 59, 0
3, 300960, Note_on_c, 0, 83, 0
3, 300960, Note_on_c, 0, 71, 117
3, 300960, Note_on_c, 0, 83, 117
3, 300960, Note_on_c, 0, 59, 117
3, 301080, Note_on_c, 0, 59, 0
3, 301080, Note_on_c, 0, 83, 0
3, 301080, Note_on_c, 0, 71, 0
3, 301080, Note_on_c, 0, 81, 96
3, 301080, Note_on_c, 0, 57, 95
3, 301199, Note_on_c, 0, 57, 0
3, 301199, Note_on_c, 0, 81, 0
3, 301199, Note_on_c, 0, 79, 96
3, 301199, Note_on_c, 0, 55, 100
3, 301320, Note_on_c, 0, 55, 0
3, 301320, Note_on_c, 0, 79, 0
3, 301320, Note_on_c, 0, 67, 117
3, 301320, Note_on_c, 0, 79, 117
3, 301320, Note_on_c, 0, 55, 117
3, 301440, Note_on_c, 0, 79, 0
3, 301440, Note_on_c, 0, 67, 0
3, 301440, Note_on_c, 0, 76, 93
3, 301559, Note_on_c, 0, 76, 0
3, 301559, Note_on_c, 0, 55, 0
3, 301559, Note_on_c, 0, 74, 94
3, 301559, Note_on_c, 0, 43, 94
3, 301559, Note_on_c, 0, 50, 94
3, 301680, Note_on_c, 0, 50, 0
3, 301680, Note_on_c, 0, 43, 0
3, 301680, Note_on_c, 0, 74, 0
3, 301680, Note_on_c, 0, 71, 117
3, 301680, Note_on_c, 0, 74, 117
3, 301680, Note_on_c, 0, 79, 117
3, 301680, Note_on_c, 0, 83, 117
3, 301680, Note_on_c, 0, 50, 117
3, 301680, Note_on_c, 0, 55, 117
3, 301680, Note_on_c, 0, 59, 117
3, 302160, Note_on_c, 0, 59, 0
3, 302160, Note_on_c, 0, 55, 0
3, 302160, Note_on_c, 0, 83, 0
3, 302160, Note_on_c, 0, 71, 0
3, 302160, Note_on_c, 0, 74, 0
3, 302160, Note_on_c, 0, 79, 0
3, 302160, Note_on_c, 0, 50, 0
3, 302160, Note_on_c, 0, 69, 96
3, 302160, Note_on_c, 0, 81, 96
3, 302160, Note_on_c, 0, 57, 99
3, 302279, Note_on_c, 0, 57, 0
3, 302279, Note_on_c, 0, 81, 0
3, 302279, Note_on_c, 0, 69, 0
3, 302279, Note_on_c, 0, 79, 94
3, 302279, Note_on_c, 0, 55, 100
3, 302400, Note_on_c, 0, 55, 0
3, 302400, Note_on_c, 0, 79, 0
3, 302400, Note_on_c, 0, 67, 117
3, 302400, Note_on_c, 0, 79, 117
3, 302400, Note_on_c, 0, 55, 117
3, 302520, Note_on_c, 0, 55, 0
3, 302520, Note_on_c, 0, 79, 0
3, 302520, Note_on_c, 0, 67, 0
3, 302520, Note_on_c, 0, 76, 92
3, 302520, Note_on_c, 0, 52, 97
3, 302639, Note_on_c, 0, 52, 0
3, 302639, Note_on_c, 0, 76, 0
3, 302639, Note_on_c, 0, 74, 94
3, 302639, Note_on_c, 0, 50, 98
3, 302760, Note_on_c, 0, 50, 0
3, 302760, Note_on_c, 0, 74, 0
3, 302760, Note_on_c, 0, 73, 117
3, 302760, Note_on_c, 0, 79, 117
3, 302760, Note_on_c, 0, 85, 117
3, 302760, Note_on_c, 0, 45, 117
3, 302760, Note_on_c, 0, 52, 117
3, 302760, Note_on_c, 0, 55, 117
3, 303120, Note_on_c, 0, 55, 0
3, 303120, Note_on_c, 0, 45, 0
3, 303120, Note_on_c, 0, 73, 0
3, 303120, Note_on_c, 0, 79, 0
3, 303120, Note_on_c, 0, 85, 0
3, 303120, Note_on_c, 0, 52, 0
3, 303120, Note_on_c, 0, 74, 116
3, 303120, Note_on_c, 0, 78, 116
3, 303120, Note_on_c, 0, 81, 116
3, 303120, Note_on_c, 0, 86, 116
3, 303120, Note_on_c, 0, 50, 116
3, 303120, Note_on_c, 0, 54, 116
3, 303120, Note_on_c, 0, 57, 116
3, 303120, Note_on_c, 0, 62, 116
3, 303359, Note_on_c, 0, 62, 0
3, 303359, Note_on_c, 0, 57, 0
3, 303359, Note_on_c, 0, 54, 0
3, 303359, Note_on_c, 0, 50, 0
3, 303359, Note_on_c, 0, 45, 92
3, 303480, Note_on_c, 0, 45, 0
3, 303480, Note_on_c, 0, 38, 97
3, 303600, Note_on_c, 0, 86, 0
3, 303600, Note_on_c, 0, 81, 0
3, 303600, Note_on_c, 0, 78, 0
3, 303600, Note_on_c, 0, 74, 0
3, 303600, Note_on_c, 0, 71, 91
3, 303600, Note_on_c, 0, 83, 91
3, 303719, Note_on_c, 0, 83, 0
3, 303719, Note_on_c, 0, 71, 0
3, 303719, Note_on_c, 0, 81, 96
3, 303840, Note_on_c, 0, 81, 0
3, 303840, Note_on_c, 0, 38, 0
3, 303840, Note_on_c, 0, 69, 96
3, 303840, Note_on_c, 0, 81, 96
3, 303840, Note_on_c, 0, 57, 116
3, 303960, Note_on_c, 0, 57, 0
3, 303960, Note_on_c, 0, 81, 0
3, 303960, Note_on_c, 0, 69, 0
3, 303960, Note_on_c, 0, 79, 95
3, 303960, Note_on_c, 0, 55, 97
3, 304079, Note_on_c, 0, 55, 0
3, 304079, Note_on_c, 0, 79, 0
3, 304079, Note_on_c, 0, 78, 98
3, 304079, Note_on_c, 0, 54, 102
3, 304200, Note_on_c, 0, 69, 115
3, 304200, Note_on_c, 0, 74, 115
3, 304200, Note_on_c, 0, 81, 115
3, 304200, Note_on_c, 0, 57, 116
3, 304200, Note_on_c, 0, 62, 116
3, 304439, Note_on_c, 0, 62, 0
3, 304439, Note_on_c, 0, 57, 0
3, 304439, Note_on_c, 0, 74, 0
3, 304439, Note_on_c, 0, 78, 0
3, 304439, Note_on_c, 0, 54, 0
3, 304439, Note_on_c, 0, 69, 0
3, 304439, Note_on_c, 0, 81, 0
3, 304439, Note_on_c, 0, 71, 117
3, 304439, Note_on_c, 0, 79, 117
3, 304439, Note_on_c, 0, 83, 117
3, 304439, Note_on_c, 0, 55, 117
3, 304439, Note_on_c, 0, 59, 117
3, 304439, Note_on_c, 0, 62, 117
3, 304560, Note_on_c, 0, 62, 0
3, 304560, Note_on_c, 0, 55, 0
3, 304560, Note_on_c, 0, 71, 0
3, 304560, Note_on_c, 0, 79, 0
3, 304560, Note_on_c, 0, 83, 0
3, 304560, Note_on_c, 0, 59, 0
3, 304560, Note_on_c, 0, 69, 91
3, 304560, Note_on_c, 0, 74, 91
3, 304560, Note_on_c, 0, 81, 91
3, 304560, Note_on_c, 0, 54, 101
3, 304560, Note_on_c, 0, 57, 101
3, 304560, Note_on_c, 0, 62, 101
3, 304799, Note_on_c, 0, 62, 0
3, 304799, Note_on_c, 0, 54, 0
3, 304799, Note_on_c, 0, 57, 0
3, 304799, Note_on_c, 0, 45, 88
3, 304920, Note_on_c, 0, 45, 0
3, 304920, Note_on_c, 0, 38, 90
3, 305040, Note_on_c, 0, 81, 0
3, 305040, Note_on_c, 0, 74, 0
3, 305040, Note_on_c, 0, 69, 0
3, 305040, Note_on_c, 0, 67, 96
3, 305040, Note_on_c, 0, 79, 96
3, 305159, Note_on_c, 0, 79, 0
3, 305159, Note_on_c, 0, 67, 0
3, 305159, Note_on_c, 0, 78, 102
3, 305280, Note_on_c, 0, 78, 0
3, 305280, Note_on_c, 0, 38, 0
3, 305280, Note_on_c, 0, 66, 99
3, 305280, Note_on_c, 0, 78, 99
3, 305280, Note_on_c, 0, 54, 110
3, 305400, Note_on_c, 0, 54, 0
3, 305400, Note_on_c, 0, 78, 0
3, 305400, Note_on_c, 0, 66, 0
3, 305400, Note_on_c, 0, 76, 93
3, 305400, Note_on_c, 0, 52, 98
3, 305519, Note_on_c, 0, 52, 0
3, 305519, Note_on_c, 0, 76, 0
3, 305519, Note_on_c, 0, 74, 95
3, 305519, Note_on_c, 0, 50, 100
3, 305640, Note_on_c, 0, 50, 0
3, 305640, Note_on_c, 0, 66, 117
3, 305640, Note_on_c, 0, 78, 117
3, 305640, Note_on_c, 0, 54, 117
3, 305640, Note_on_c, 0, 57, 117
3, 305640, Note_on_c, 0, 62, 117
3, 305879, Note_on_c, 0, 62, 0
3, 305879, Note_on_c, 0, 54, 0
3, 305879, Note_on_c, 0, 74, 0
3, 305879, Note_on_c, 0, 66, 0
3, 305879, Note_on_c, 0, 78, 0
3, 305879, Note_on_c, 0, 57, 0
3, 305879, Note_on_c, 0, 67, 117
3, 305879, Note_on_c, 0, 74, 117
3, 305879, Note_on_c, 0, 79, 117
3, 305879, Note_on_c, 0, 55, 117
3, 305879, Note_on_c, 0, 59, 117
3, 305879, Note_on_c, 0, 62, 117
3, 306000, Note_on_c, 0, 62, 0
3, 306000, Note_on_c, 0, 55, 0
3, 306000, Note_on_c, 0, 67, 0
3, 306000, Note_on_c, 0, 74, 0
3, 306000, Note_on_c, 0, 79, 0
3, 306000, Note_on_c, 0, 59, 0
3, 306000, Note_on_c, 0, 66, 95
3, 306000, Note_on_c, 0, 74, 95
3, 306000, Note_on_c, 0, 78, 95
3, 306000, Note_on_c, 0, 54, 117
3, 306000, Note_on_c, 0, 57, 117
3, 306000, Note_on_c, 0, 62, 117
3, 306239, Note_on_c, 0, 62, 0
3, 306239, Note_on_c, 0, 54, 0
3, 306239, Note_on_c, 0, 57, 0
3, 306239, Note_on_c, 0, 45, 88
3, 306360, Note_on_c, 0, 45, 0
3, 306360, Note_on_c, 0, 38, 90
3, 306480, Note_on_c, 0, 78, 0
3, 306480, Note_on_c, 0, 74, 0
3, 306480, Note_on_c, 0, 66, 0
3, 306480, Note_on_c, 0, 64, 95
3, 306480, Note_on_c, 0, 76, 95
3, 306599, Note_on_c, 0, 76, 0
3, 306599, Note_on_c, 0, 64, 0
3, 306599, Note_on_c, 0, 74, 90
3, 306720, Note_on_c, 0, 74, 0
3, 306720, Note_on_c, 0, 38, 0
3, 306720, Note_on_c, 0, 62, 100
3, 306720, Note_on_c, 0, 74, 100
3, 306720, Note_on_c, 0, 50, 116
3, 306840, Note_on_c, 0, 50, 0
3, 306840, Note_on_c, 0, 74, 0
3, 306840, Note_on_c, 0, 62, 0
3, 306840, Note_on_c, 0, 71, 94
3, 306840, Note_on_c, 0, 47, 99
3, 306959, Note_on_c, 0, 47, 0
3, 306959, Note_on_c, 0, 71, 0
3, 306959, Note_on_c, 0, 69, 94
3, 306959, Note_on_c, 0, 45, 96
3, 307080, Note_on_c, 0, 45, 0
3, 307080, Note_on_c, 0, 69, 0
3, 307080, Note_on_c, 0, 57, 117
3, 307080, Note_on_c, 0, 62, 117
3, 307080, Note_on_c, 0, 69, 117
3, 307080, Note_on_c, 0, 45, 117
3, 307080, Note_on_c, 0, 50, 117
3, 307080, Note_on_c, 0, 54, 117
3, 307319, Note_on_c, 0, 54, 0
3, 307319, Note_on_c, 0, 45, 0
3, 307319, Note_on_c, 0, 57, 0
3, 307319, Note_on_c, 0, 62, 0
3, 307319, Note_on_c, 0, 69, 0
3, 307319, Note_on_c, 0, 50, 0
3, 307319, Note_on_c, 0, 59, 117
3, 307319, Note_on_c, 0, 67, 117
3, 307319, Note_on_c, 0, 71, 117
3, 307319, Note_on_c, 0, 47, 117
3, 307319, Note_on_c, 0, 50, 117
3, 307319, Note_on_c, 0, 55, 117
3, 307440, Note_on_c, 0, 55, 0
3, 307440, Note_on_c, 0, 47, 0
3, 307440, Note_on_c, 0, 59, 0
3, 307440, Note_on_c, 0, 67, 0
3, 307440, Note_on_c, 0, 71, 0
3, 307440, Note_on_c, 0, 50, 0
3, 307440, Note_on_c, 0, 57, 103
3, 307440, Note_on_c, 0, 62, 103
3, 307440, Note_on_c, 0, 69, 103
3, 307440, Note_on_c, 0, 45, 103
3, 307440, Note_on_c, 0, 50, 103
3, 307440, Note_on_c, 0, 54, 103
3, 307679, Note_on_c, 0, 54, 0
3, 307679, Note_on_c, 0, 45, 0
3, 307679, Note_on_c, 0, 50, 0
3, 307679, Note_on_c, 0, 45, 100
3, 307800, Note_on_c, 0, 45, 0
3, 307800, Note_on_c, 0, 38, 99
3, 307920, Note_on_c, 0, 69, 0
3, 307920, Note_on_c, 0, 62, 0
3, 307920, Note_on_c, 0, 57, 0
3, 307920, Note_on_c, 0, 67, 98
3, 308039, Note_on_c, 0, 67, 0
3, 308039, Note_on_c, 0, 66, 97
3, 308160, Note_on_c, 0, 66, 0
3, 308160, Note_on_c, 0, 38, 0
3, 308160, Note_on_c, 0, 66, 96
3, 308160, Note_on_c, 0, 54, 96
3, 308280, Note_on_c, 0, 54, 0
3, 308280, Note_on_c, 0, 66, 0
3, 308280, Note_on_c, 0, 64, 95
3, 308280, Note_on_c, 0, 52, 95
3, 308399, Note_on_c, 0, 52, 0
3, 308399, Note_on_c, 0, 64, 0
3, 308399, Note_on_c, 0, 62, 94
3, 308399, Note_on_c, 0, 50, 94
3, 308520, Note_on_c, 0, 50, 0
3, 308520, Note_on_c, 0, 62, 0
3, 308520, Note_on_c, 0, 54, 93
3, 308520, Note_on_c, 0, 57, 93
3, 308520, Note_on_c, 0, 62, 93
3, 308520, Note_on_c, 0, 45, 93
3, 308520, Note_on_c, 0, 50, 93
3, 308759, Note_on_c, 0, 50, 0
3, 308759, Note_on_c, 0, 54, 0
3, 308759, Note_on_c, 0, 57, 0
3, 308759, Note_on_c, 0, 62, 0
3, 308759, Note_on_c, 0, 45, 0
3, 308759, Note_on_c, 0, 55, 91
3, 308759, Note_on_c, 0, 59, 91
3, 308759, Note_on_c, 0, 62, 91
3, 308759, Note_on_c, 0, 47, 91
3, 308759, Note_on_c, 0, 50, 91
3, 308880, Note_on_c, 0, 50, 0
3, 308880, Note_on_c, 0, 55, 0
3, 308880, Note_on_c, 0, 59, 0
3, 308880, Note_on_c, 0, 62, 0
3, 308880, Note_on_c, 0, 47, 0
3, 308880, Note_on_c, 0, 54, 90
3, 308880, Note_on_c, 0, 57, 90
3, 308880, Note_on_c, 0, 62, 90
3, 308880, Note_on_c, 0, 38, 90
3, 308880, Note_on_c, 0, 45, 90
3, 308880, Note_on_c, 0, 50, 90
3, 309060, Note_on_c, 0, 50, 0
3, 309060, Note_on_c, 0, 38, 0
3, 309060, Note_on_c, 0, 54, 0
3, 309060, Note_on_c, 0, 57, 0
3, 309060, Note_on_c, 0, 62, 0
3, 309060, Note_on_c, 0, 45, 0
3, 309240, Note_on_c, 0, 62, 79
3, 309240, Note_on_c, 0, 50, 83
3, 309420, Note_on_c, 0, 50, 0
3, 309420, Note_on_c, 0, 62, 0
3, 309420, Note_on_c, 0, 57, 83
3, 309420, Note_on_c, 0, 38, 70
3, 309600, Note_on_c, 0, 38, 0
3, 309600, Note_on_c, 0, 57, 0
3, 309600, Note_on_c, 0, 52, 89
3, 309600, Note_on_c, 0, 50, 101
3, 309780, Note_on_c, 0, 50, 0
3, 309780, Note_on_c, 0, 52, 0
3, 309780, Note_on_c, 0, 62, 111
3, 309780, Note_on_c, 0, 38, 83
3, 309960, Note_on_c, 0, 38, 0
3, 309960, Note_on_c, 0, 62, 0
3, 309960, Note_on_c, 0, 55, 86
3, 309960, Note_on_c, 0, 52, 103
3, 309960, Note_on_c, 0, 50, 101
3, 309960, Note_on_c, 0, 47, 103
3, 310140, Note_on_c, 0, 50, 0
3, 310140, Note_on_c, 0, 55, 0
3, 310140, Note_on_c, 0, 62, 106
3, 310140, Note_on_c, 0, 38, 79
3, 310320, Note_on_c, 0, 38, 0
3, 310320, Note_on_c, 0, 47, 0
3, 310320, Note_on_c, 0, 62, 0
3, 310320, Note_on_c, 0, 52, 0
3, 310320, Note_on_c, 0, 54, 87
3, 310320, Note_on_c, 0, 45, 73
3, 310500, Note_on_c, 0, 57, 88
3, 310500, Note_on_c, 0, 38, 88
3, 310680, Note_on_c, 0, 38, 0
3, 310680, Note_on_c, 0, 57, 0
3, 310680, Note_on_c, 0, 62, 87
3, 310680, Note_on_c, 0, 50, 87
3, 310860, Note_on_c, 0, 50, 0
3, 310860, Note_on_c, 0, 62, 0
3, 310860, Note_on_c, 0, 57, 85
3, 310860, Note_on_c, 0, 38, 85
3, 311040, Note_on_c, 0, 38, 0
3, 311040, Note_on_c, 0, 57, 0
3, 311040, Note_on_c, 0, 54, 83
3, 311040, Note_on_c, 0, 50, 83
3, 311220, Note_on_c, 0, 50, 0
3, 311220, Note_on_c, 0, 54, 0
3, 311220, Note_on_c, 0, 62, 82
3, 311220, Note_on_c, 0, 38, 82
3, 311400, Note_on_c, 0, 38, 0
3, 311400, Note_on_c, 0, 54, 0
3, 311400, Note_on_c, 0, 62, 0
3, 311400, Note_on_c, 0, 45, 0
3, 311400, Note_on_c, 0, 55, 80
3, 311400, Note_on_c, 0, 52, 78
3, 311400, Note_on_c, 0, 50, 80
3, 311400, Note_on_c, 0, 47, 64
3, 311580, Note_on_c, 0, 47, 0
3, 311580, Note_on_c, 0, 55, 0
3, 311580, Note_on_c, 0, 62, 79
3, 311580, Note_on_c, 0, 38, 62
3, 311760, Note_on_c, 0, 38, 0
3, 311760, Note_on_c, 0, 50, 0
3, 311760, Note_on_c, 0, 62, 0
3, 311760, Note_on_c, 0, 52, 0
3, 311760, Note_on_c, 0, 54, 50
3, 311760, Note_on_c, 0, 45, 61
3, 311940, Note_on_c, 0, 57, 50
3, 311940, Note_on_c, 0, 38, 50
3, 312120, Note_on_c, 0, 38, 0
3, 312120, Note_on_c, 0, 57, 0
3, 312120, Note_on_c, 0, 62, 48
3, 312120, Note_on_c, 0, 50, 48
3, 312300, Note_on_c, 0, 50, 0
3, 312300, Note_on_c, 0, 62, 0
3, 312300, Note_on_c, 0, 57, 46
3, 312300, Note_on_c, 0, 38, 46
3, 312480, Note_on_c, 0, 38, 0
3, 312480, Note_on_c, 0, 57, 0
3, 312480, Note_on_c, 0, 54, 44
3, 312480, Note_on_c, 0, 50, 44
3, 312660, Note_on_c, 0, 50, 0
3, 312660, Note_on_c, 0, 54, 0
3, 312660, Note_on_c, 0, 62, 42
3, 312660, Note_on_c, 0, 38, 42
3, 312840, Note_on_c, 0, 38, 0
3, 312840, Note_on_c, 0, 54, 0
3, 312840, Note_on_c, 0, 62, 0
3, 312840, Note_on_c, 0, 45, 0
3, 312840, Note_on_c, 0, 55, 40
3, 312840, Note_on_c, 0, 52, 61
3, 312840, Note_on_c, 0, 50, 40
3, 312840, Note_on_c, 0, 47, 62
3, 313020, Note_on_c, 0, 47, 0
3, 313020, Note_on_c, 0, 55, 0
3, 313020, Note_on_c, 0, 62, 47
3, 313020, Note_on_c, 0, 38, 36
3, 313200, Note_on_c, 0, 38, 0
3, 313200, Note_on_c, 0, 50, 0
3, 313200, Note_on_c, 0, 62, 0
3, 313200, Note_on_c, 0, 52, 0
3, 313200, Note_on_c, 0, 54, 76
3, 313200, Note_on_c, 0, 45, 59
3, 313380, Note_on_c, 0, 57, 26
3, 313380, Note_on_c, 0, 38, 27
3, 313560, Note_on_c, 0, 38, 0
3, 313560, Note_on_c, 0, 57, 0
3, 313560, Note_on_c, 0, 62, 41
3, 313560, Note_on_c, 0, 50, 42
3, 313740, Note_on_c, 0, 50, 0
3, 313740, Note_on_c, 0, 62, 0
3, 313740, Note_on_c, 0, 57, 30
3, 313740, Note_on_c, 0, 38, 28
3, 313833, Note_on_c, 0, 45, 0
3, 313833, Note_on_c, 0, 54, 0
3, 313920, Note_on_c, 0, 38, 0
3, 313920, Note_on_c, 0, 57, 0
3, 313920, Note_on_c, 0, 55, 75
3, 313920, Note_on_c, 0, 40, 56
3, 314100, Note_on_c, 0, 62, 31
3, 314100, Note_on_c, 0, 50, 31
3, 314237, Note_on_c, 0, 40, 0
3, 314237, Note_on_c, 0, 55, 0
3, 314280, Note_on_c, 0, 50, 0
3, 314280, Note_on_c, 0, 62, 0
3, 314280, Note_on_c, 0, 57, 73
3, 314280, Note_on_c, 0, 42, 65
3, 314460, Note_on_c, 0, 60, 37
3, 314460, Note_on_c, 0, 62, 37
3, 314460, Note_on_c, 0, 50, 32
3, 314597, Note_on_c, 0, 42, 0
3, 314597, Note_on_c, 0, 57, 0
3, 314640, Note_on_c, 0, 60, 0
3, 314640, Note_on_c, 0, 62, 0
3, 314640, Note_on_c, 0, 50, 0
3, 314640, Note_on_c, 0, 59, 78
3, 314640, Note_on_c, 0, 50, 55
3, 314820, Note_on_c, 0, 62, 31
3, 314820, Note_on_c, 0, 43, 33
3, 315000, Note_on_c, 0, 43, 0
3, 315000, Note_on_c, 0, 62, 0
3, 315000, Note_on_c, 0, 67, 42
3, 315000, Note_on_c, 0, 55, 41
3, 315180, Note_on_c, 0, 55, 0
3, 315180, Note_on_c, 0, 67, 0
3, 315180, Note_on_c, 0, 62, 33
3, 315180, Note_on_c, 0, 43, 32
3, 315360, Note_on_c, 0, 43, 0
3, 315360, Note_on_c, 0, 62, 0
3, 315360, Note_on_c, 0, 59, 40
3, 315360, Note_on_c, 0, 55, 48
3, 315540, Note_on_c, 0, 55, 0
3, 315540, Note_on_c, 0, 59, 0
3, 315540, Note_on_c, 0, 67, 46
3, 315540, Note_on_c, 0, 43, 33
3, 315589, Note_on_c, 0, 59, 0
3, 315720, Note_on_c, 0, 67, 0
3, 315720, Note_on_c, 0, 43, 0
3, 315720, Note_on_c, 0, 50, 0
3, 315720, Note_on_c, 0, 60, 30
3, 315720, Note_on_c, 0, 57, 69
3, 315720, Note_on_c, 0, 55, 51
3, 315720, Note_on_c, 0, 52, 52
3, 315900, Note_on_c, 0, 52, 0
3, 315900, Note_on_c, 0, 60, 0
3, 315900, Note_on_c, 0, 67, 46
3, 315900, Note_on_c, 0, 43, 43
3, 316037, Note_on_c, 0, 55, 0
3, 316037, Note_on_c, 0, 57, 0
3, 316080, Note_on_c, 0, 43, 0
3, 316080, Note_on_c, 0, 67, 0
3, 316080, Note_on_c, 0, 59, 77
3, 316080, Note_on_c, 0, 50, 64
3, 316260, Note_on_c, 0, 62, 35
3, 316260, Note_on_c, 0, 43, 35
3, 316440, Note_on_c, 0, 43, 0
3, 316440, Note_on_c, 0, 62, 0
3, 316440, Note_on_c, 0, 67, 45
3, 316440, Note_on_c, 0, 55, 47
3, 316620, Note_on_c, 0, 55, 0
3, 316620, Note_on_c, 0, 67, 0
3, 316620, Note_on_c, 0, 59, 34
3, 316620, Note_on_c, 0, 43, 32
3, 316713, Note_on_c, 0, 50, 0
3, 316713, Note_on_c, 0, 59, 0
3, 316800, Note_on_c, 0, 43, 0
3, 316800, Note_on_c, 0, 59, 0
3, 316800, Note_on_c, 0, 57, 77
3, 316800, Note_on_c, 0, 60, 77
3, 316800, Note_on_c, 0, 52, 67
3, 316800, Note_on_c, 0, 55, 67
3, 316980, Note_on_c, 0, 64, 37
3, 316980, Note_on_c, 0, 43, 31
3, 317160, Note_on_c, 0, 43, 0
3, 317160, Note_on_c, 0, 64, 0
3, 317160, Note_on_c, 0, 67, 43
3, 317160, Note_on_c, 0, 55, 43
3, 317340, Note_on_c, 0, 67, 0
3, 317340, Note_on_c, 0, 55, 0
3, 317340, Note_on_c, 0, 57, 30
3, 317340, Note_on_c, 0, 43, 32
3, 317433, Note_on_c, 0, 57, 0
3, 317433, Note_on_c, 0, 52, 0
3, 317433, Note_on_c, 0, 60, 0
3, 317433, Note_on_c, 0, 55, 0
3, 317520, Note_on_c, 0, 57, 0
3, 317520, Note_on_c, 0, 43, 0
3, 317520, Note_on_c, 0, 59, 79
3, 317520, Note_on_c, 0, 62, 79
3, 317520, Note_on_c, 0, 55, 56
3, 317700, Note_on_c, 0, 62, 31
3, 317700, Note_on_c, 0, 43, 32
3, 317880, Note_on_c, 0, 43, 0
3, 317880, Note_on_c, 0, 62, 0
3, 317880, Note_on_c, 0, 67, 43
3, 317880, Note_on_c, 0, 50, 40
3, 318060, Note_on_c, 0, 50, 0
3, 318060, Note_on_c, 0, 67, 0
3, 318060, Note_on_c, 0, 62, 36
3, 318060, Note_on_c, 0, 43, 31
3, 318240, Note_on_c, 0, 43, 0
3, 318240, Note_on_c, 0, 62, 0
3, 318240, Note_on_c, 0, 59, 39
3, 318240, Note_on_c, 0, 50, 36
3, 318420, Note_on_c, 0, 50, 0
3, 318420, Note_on_c, 0, 59, 0
3, 318420, Note_on_c, 0, 62, 44
3, 318420, Note_on_c, 0, 43, 31
3, 318469, Note_on_c, 0, 62, 0
3, 318469, Note_on_c, 0, 59, 0
3, 318469, Note_on_c, 0, 55, 0
3, 318600, Note_on_c, 0, 43, 0
3, 318600, Note_on_c, 0, 62, 0
3, 318600, Note_on_c, 0, 60, 32
3, 318600, Note_on_c, 0, 57, 70
3, 318600, Note_on_c, 0, 50, 61
3, 318780, Note_on_c, 0, 60, 0
3, 318780, Note_on_c, 0, 67, 47
3, 318780, Note_on_c, 0, 43, 32
3, 318917, Note_on_c, 0, 50, 0
3, 318917, Note_on_c, 0, 57, 0
3, 318960, Note_on_c, 0, 43, 0
3, 318960, Note_on_c, 0, 67, 0
3, 318960, Note_on_c, 0, 59, 73
3, 318960, Note_on_c, 0, 55, 62
3, 319140, Note_on_c, 0, 62, 34
3, 319140, Note_on_c, 0, 43, 33
3, 319320, Note_on_c, 0, 43, 0
3, 319320, Note_on_c, 0, 62, 0
3, 319320, Note_on_c, 0, 67, 40
3, 319320, Note_on_c, 0, 50, 45
3, 319500, Note_on_c, 0, 50, 0
3, 319500, Note_on_c, 0, 67, 0
3, 319500, Note_on_c, 0, 62, 36
3, 319500, Note_on_c, 0, 43, 32
3, 319593, Note_on_c, 0, 55, 0
3, 319680, Note_on_c, 0, 62, 0
3, 319680, Note_on_c, 0, 43, 0
3, 319680, Note_on_c, 0, 59, 37
3, 319680, Note_on_c, 0, 55, 57
3, 319860, Note_on_c, 0, 59, 0
3, 319860, Note_on_c, 0, 67, 49
3, 319860, Note_on_c, 0, 43, 33
3, 319997, Note_on_c, 0, 55, 0
3, 320040, Note_on_c, 0, 67, 0
3, 320040, Note_on_c, 0, 43, 0
3, 320040, Note_on_c, 0, 59, 35
3, 320040, Note_on_c, 0, 54, 59
3, 320220, Note_on_c, 0, 59, 0
3, 320220, Note_on_c, 0, 55, 36
3, 320220, Note_on_c, 0, 43, 37
3, 320227, Note_on_c, 0, 59, 0
3, 320357, Note_on_c, 0, 54, 0
3, 320400, Note_on_c, 0, 55, 0
3, 320400, Note_on_c, 0, 43, 0
3, 320400, Note_on_c, 0, 60, 75
3, 320400, Note_on_c, 0, 52, 57
3, 320580, Note_on_c, 0, 64, 37
3, 320580, Note_on_c, 0, 43, 34
3, 320760, Note_on_c, 0, 43, 0
3, 320760, Note_on_c, 0, 64, 0
3, 320760, Note_on_c, 0, 67, 39
3, 320760, Note_on_c, 0, 55, 39
3, 320940, Note_on_c, 0, 55, 0
3, 320940, Note_on_c, 0, 67, 0
3, 320940, Note_on_c, 0, 64, 31
3, 320940, Note_on_c, 0, 43, 31
3, 321120, Note_on_c, 0, 43, 0
3, 321120, Note_on_c, 0, 64, 0
3, 321120, Note_on_c, 0, 67, 46
3, 321120, Note_on_c, 0, 55, 47
3, 321300, Note_on_c, 0, 55, 0
3, 321300, Note_on_c, 0, 67, 0
3, 321300, Note_on_c, 0, 55, 30
3, 321300, Note_on_c, 0, 43, 33
3, 321349, Note_on_c, 0, 52, 0
3, 321349, Note_on_c, 0, 60, 0
3, 321480, Note_on_c, 0, 43, 0
3, 321480, Note_on_c, 0, 55, 0
3, 321480, Note_on_c, 0, 60, 76
3, 321480, Note_on_c, 0, 52, 62
3, 321660, Note_on_c, 0, 67, 36
3, 321660, Note_on_c, 0, 43, 33
3, 321797, Note_on_c, 0, 52, 0
3, 321797, Note_on_c, 0, 60, 0
3, 321840, Note_on_c, 0, 43, 0
3, 321840, Note_on_c, 0, 67, 0
3, 321840, Note_on_c, 0, 59, 70
3, 321840, Note_on_c, 0, 52, 59
3, 322020, Note_on_c, 0, 64, 33
3, 322020, Note_on_c, 0, 43, 34
3, 322200, Note_on_c, 0, 43, 0
3, 322200, Note_on_c, 0, 64, 0
3, 322200, Note_on_c, 0, 67, 42
3, 322200, Note_on_c, 0, 55, 42
3, 322380, Note_on_c, 0, 55, 0
3, 322380, Note_on_c, 0, 67, 0
3, 322380, Note_on_c, 0, 64, 34
3, 322380, Note_on_c, 0, 43, 33
3, 322560, Note_on_c, 0, 43, 0
3, 322560, Note_on_c, 0, 64, 0
3, 322560, Note_on_c, 0, 67, 40
3, 322560, Note_on_c, 0, 55, 43
3, 322740, Note_on_c, 0, 55, 0
3, 322740, Note_on_c, 0, 67, 0
3, 322740, Note_on_c, 0, 55, 30
3, 322740, Note_on_c, 0, 43, 32
3, 322789, Note_on_c, 0, 52, 0
3, 322789, Note_on_c, 0, 59, 0
3, 322920, Note_on_c, 0, 43, 0
3, 322920, Note_on_c, 0, 55, 0
3, 322920, Note_on_c, 0, 59, 72
3, 322920, Note_on_c, 0, 52, 61
3, 323100, Note_on_c, 0, 67, 35
3, 323100, Note_on_c, 0, 43, 32
3, 323237, Note_on_c, 0, 52, 0
3, 323237, Note_on_c, 0, 59, 0
3, 323280, Note_on_c, 0, 43, 0
3, 323280, Note_on_c, 0, 67, 0
3, 323280, Note_on_c, 0, 57, 67
3, 323280, Note_on_c, 0, 52, 59
3, 323460, Note_on_c, 0, 62, 35
3, 323460, Note_on_c, 0, 43, 32
3, 323640, Note_on_c, 0, 43, 0
3, 323640, Note_on_c, 0, 62, 0
3, 323640, Note_on_c, 0, 67, 43
3, 323640, Note_on_c, 0, 55, 46
3, 323820, Note_on_c, 0, 55, 0
3, 323820, Note_on_c, 0, 67, 0
3, 323820, Note_on_c, 0, 57, 36
3, 323820, Note_on_c, 0, 43, 30
3, 323913, Note_on_c, 0, 52, 0
3, 323913, Note_on_c, 0, 57, 0
3, 324000, Note_on_c, 0, 43, 0
3, 324000, Note_on_c, 0, 57, 0
3, 324000, Note_on_c, 0, 59, 76
3, 324000, Note_on_c, 0, 52, 63
3, 324000, Note_on_c, 0, 55, 63
3, 324180, Note_on_c, 0, 64, 39
3, 324180, Note_on_c, 0, 43, 37
3, 324360, Note_on_c, 0, 43, 0
3, 324360, Note_on_c, 0, 64, 0
3, 324360, Note_on_c, 0, 67, 42
3, 324360, Note_on_c, 0, 52, 42
3, 324540, Note_on_c, 0, 67, 0
3, 324540, Note_on_c, 0, 52, 0
3, 324540, Note_on_c, 0, 64, 34
3, 324540, Note_on_c, 0, 43, 31
3, 324720, Note_on_c, 0, 43, 0
3, 324720, Note_on_c, 0, 64, 0
3, 324720, Note_on_c, 0, 67, 38
3, 324900, Note_on_c, 0, 67, 0
3, 324900, Note_on_c, 0, 59, 29
3, 324900, Note_on_c, 0, 43, 32
3, 325080, Note_on_c, 0, 43, 0
3, 325080, Note_on_c, 0, 59, 0
3, 325080, Note_on_c, 0, 64, 45
3, 325080, Note_on_c, 0, 52, 43
3, 325260, Note_on_c, 0, 64, 0
3, 325260, Note_on_c, 0, 52, 0
3, 325260, Note_on_c, 0, 67, 43
3, 325260, Note_on_c, 0, 43, 28
3, 325440, Note_on_c, 0, 43, 0
3, 325440, Note_on_c, 0, 52, 0
3, 325440, Note_on_c, 0, 55, 0
3, 325440, Note_on_c, 0, 59, 0
3, 325440, Note_on_c, 0, 67, 0
3, 325440, Note_on_c, 0, 59, 64
3, 325440, Note_on_c, 0, 55, 62
3, 325620, Note_on_c, 0, 67, 30
3, 325620, Note_on_c, 0, 43, 37
3, 325757, Note_on_c, 0, 55, 0
3, 325800, Note_on_c, 0, 67, 0
3, 325800, Note_on_c, 0, 43, 0
3, 325800, Note_on_c, 0, 59, 0
3, 325800, Note_on_c, 0, 60, 30
3, 325800, Note_on_c, 0, 57, 62
3, 325800, Note_on_c, 0, 52, 43
3, 325800, Note_on_c, 0, 55, 61
3, 325980, Note_on_c, 0, 52, 0
3, 325980, Note_on_c, 0, 60, 0
3, 325980, Note_on_c, 0, 67, 47
3, 325980, Note_on_c, 0, 43, 32
3, 326117, Note_on_c, 0, 55, 0
3, 326160, Note_on_c, 0, 67, 0
3, 326160, Note_on_c, 0, 43, 0
3, 326160, Note_on_c, 0, 57, 0
3, 326160, Note_on_c, 0, 59, 79
3, 326160, Note_on_c, 0, 50, 50
3, 326340, Note_on_c, 0, 62, 31
3, 326340, Note_on_c, 0, 43, 36
3, 326520, Note_on_c, 0, 43, 0
3, 326520, Note_on_c, 0, 62, 0
3, 326520, Note_on_c, 0, 67, 44
3, 326520, Note_on_c, 0, 55, 51
3, 326700, Note_on_c, 0, 55, 0
3, 326700, Note_on_c, 0, 67, 0
3, 326700, Note_on_c, 0, 62, 34
3, 326700, Note_on_c, 0, 43, 34
3, 326880, Note_on_c, 0, 43, 0
3, 326880, Note_on_c, 0, 62, 0
3, 326880, Note_on_c, 0, 59, 34
3, 326880, Note_on_c, 0, 55, 43
3, 327060, Note_on_c, 0, 55, 0
3, 327060, Note_on_c, 0, 59, 0
3, 327060, Note_on_c, 0, 67, 47
3, 327060, Note_on_c, 0, 43, 30
3, 327109, Note_on_c, 0, 59, 0
3, 327240, Note_on_c, 0, 67, 0
3, 327240, Note_on_c, 0, 43, 0
3, 327240, Note_on_c, 0, 50, 0
3, 327240, Note_on_c, 0, 60, 29
3, 327240, Note_on_c, 0, 57, 76
3, 327240, Note_on_c, 0, 55, 55
3, 327240, Note_on_c, 0, 52, 53
3, 327420, Note_on_c, 0, 52, 0
3, 327420, Note_on_c, 0, 60, 0
3, 327420, Note_on_c, 0, 67, 48
3, 327420, Note_on_c, 0, 43, 44
3, 327557, Note_on_c, 0, 55, 0
3, 327557, Note_on_c, 0, 57, 0
3, 327600, Note_on_c, 0, 43, 0
3, 327600, Note_on_c, 0, 67, 0
3, 327600, Note_on_c, 0, 59, 78
3, 327600, Note_on_c, 0, 50, 66
3, 327780, Note_on_c, 0, 62, 25
3, 327780, Note_on_c, 0, 43, 33
3, 327960, Note_on_c, 0, 43, 0
3, 327960, Note_on_c, 0, 62, 0
3, 327960, Note_on_c, 0, 67, 46
3, 327960, Note_on_c, 0, 55, 44
3, 328140, Note_on_c, 0, 55, 0
3, 328140, Note_on_c, 0, 67, 0
3, 328140, Note_on_c, 0, 59, 39
3, 328140, Note_on_c, 0, 43, 34
3, 328233, Note_on_c, 0, 50, 0
3, 328233, Note_on_c, 0, 59, 0
3, 328320, Note_on_c, 0, 43, 0
3, 328320, Note_on_c, 0, 59, 0
3, 328320, Note_on_c, 0, 57, 74
3, 328320, Note_on_c, 0, 60, 74
3, 328320, Note_on_c, 0, 52, 64
3, 328320, Note_on_c, 0, 55, 64
3, 328500, Note_on_c, 0, 64, 33
3, 328500, Note_on_c, 0, 43, 30
3, 328680, Note_on_c, 0, 43, 0
3, 328680, Note_on_c, 0, 64, 0
3, 328680, Note_on_c, 0, 67, 45
3, 328680, Note_on_c, 0, 55, 45
3, 328860, Note_on_c, 0, 67, 0
3, 328860, Note_on_c, 0, 55, 0
3, 328860, Note_on_c, 0, 57, 33
3, 328860, Note_on_c, 0, 43, 30
3, 328953, Note_on_c, 0, 57, 0
3, 328953, Note_on_c, 0, 52, 0
3, 328953, Note_on_c, 0, 60, 0
3, 328953, Note_on_c, 0, 55, 0
3, 329040, Note_on_c, 0, 57, 0
3, 329040, Note_on_c, 0, 43, 0
3, 329040, Note_on_c, 0, 59, 79
3, 329040, Note_on_c, 0, 62, 79
3, 329040, Note_on_c, 0, 55, 58
3, 329220, Note_on_c, 0, 62, 34
3, 329220, Note_on_c, 0, 43, 30
3, 329400, Note_on_c, 0, 43, 0
3, 329400, Note_on_c, 0, 62, 0
3, 329400, Note_on_c, 0, 67, 41
3, 329400, Note_on_c, 0, 50, 40
3, 329580, Note_on_c, 0, 50, 0
3, 329580, Note_on_c, 0, 67, 0
3, 329580, Note_on_c, 0, 62, 35
3, 329580, Note_on_c, 0, 43, 36
3, 329760, Note_on_c, 0, 43, 0
3, 329760, Note_on_c, 0, 62, 0
3, 329760, Note_on_c, 0, 59, 37
3, 329760, Note_on_c, 0, 50, 40
3, 329940, Note_on_c, 0, 50, 0
3, 329940, Note_on_c, 0, 59, 0
3, 329940, Note_on_c, 0, 62, 44
3, 329940, Note_on_c, 0, 43, 36
3, 329989, Note_on_c, 0, 62, 0
3, 329989, Note_on_c, 0, 59, 0
3, 329989, Note_on_c, 0, 55, 0
3, 330120, Note_on_c, 0, 43, 0
3, 330120, Note_on_c, 0, 62, 0
3, 330120, Note_on_c, 0, 60, 38
3, 330120, Note_on_c, 0, 57, 73
3, 330120, Note_on_c, 0, 50, 60
3, 330300, Note_on_c, 0, 60, 0
3, 330300, Note_on_c, 0, 67, 47
3, 330300, Note_on_c, 0, 43, 31
3, 330437, Note_on_c, 0, 50, 0
3, 330437, Note_on_c, 0, 57, 0
3, 330480, Note_on_c, 0, 43, 0
3, 330480, Note_on_c, 0, 67, 0
3, 330480, Note_on_c, 0, 59, 76
3, 330480, Note_on_c, 0, 55, 62
3, 330660, Note_on_c, 0, 62, 32
3, 330660, Note_on_c, 0, 43, 38
3, 330840, Note_on_c, 0, 43, 0
3, 330840, Note_on_c, 0, 62, 0
3, 330840, Note_on_c, 0, 67, 40
3, 330840, Note_on_c, 0, 50, 43
3, 331020, Note_on_c, 0, 50, 0
3, 331020, Note_on_c, 0, 67, 0
3, 331020, Note_on_c, 0, 62, 29
3, 331020, Note_on_c, 0, 43, 31
3, 331113, Note_on_c, 0, 55, 0
3, 331200, Note_on_c, 0, 62, 0
3, 331200, Note_on_c, 0, 43, 0
3, 331200, Note_on_c, 0, 59, 37
3, 331200, Note_on_c, 0, 55, 60
3, 331380, Note_on_c, 0, 59, 0
3, 331380, Note_on_c, 0, 67, 47
3, 331380, Note_on_c, 0, 43, 36
3, 331517, Note_on_c, 0, 55, 0
3, 331560, Note_on_c, 0, 67, 0
3, 331560, Note_on_c, 0, 43, 0
3, 331560, Note_on_c, 0, 59, 37
3, 331560, Note_on_c, 0, 50, 53
3, 331740, Note_on_c, 0, 59, 0
3, 331740, Note_on_c, 0, 55, 35
3, 331740, Note_on_c, 0, 43, 34
3, 331747, Note_on_c, 0, 59, 0
3, 331877, Note_on_c, 0, 50, 0
3, 331920, Note_on_c, 0, 55, 0
3, 331920, Note_on_c, 0, 43, 0
3, 331920, Note_on_c, 0, 60, 74
3, 331920, Note_on_c, 0, 45, 46
3, 332100, Note_on_c, 0, 67, 36
3, 332100, Note_on_c, 0, 55, 33
3, 332280, Note_on_c, 0, 55, 0
3, 332280, Note_on_c, 0, 67, 0
3, 332280, Note_on_c, 0, 72, 41
3, 332280, Note_on_c, 0, 60, 40
3, 332460, Note_on_c, 0, 72, 0
3, 332460, Note_on_c, 0, 60, 0
3, 332460, Note_on_c, 0, 67, 30
3, 332460, Note_on_c, 0, 55, 32
3, 332640, Note_on_c, 0, 55, 0
3, 332640, Note_on_c, 0, 67, 0
3, 332640, Note_on_c, 0, 72, 40
3, 332640, Note_on_c, 0, 60, 43
3, 332820, Note_on_c, 0, 72, 0
3, 332820, Note_on_c, 0, 60, 0
3, 332820, Note_on_c, 0, 60, 27
3, 332820, Note_on_c, 0, 45, 29
3, 333000, Note_on_c, 0, 60, 0
3, 333000, Note_on_c, 0, 45, 0
3, 333000, Note_on_c, 0, 67, 45
3, 333000, Note_on_c, 0, 55, 42
3, 333180, Note_on_c, 0, 55, 0
3, 333180, Note_on_c, 0, 67, 0
3, 333180, Note_on_c, 0, 72, 46
3, 333180, Note_on_c, 0, 60, 46
3, 333187, Note_on_c, 0, 60, 0
3, 333360, Note_on_c, 0, 72, 0
3, 333360, Note_on_c, 0, 60, 0
3, 333360, Note_on_c, 0, 45, 0
3, 333360, Note_on_c, 0, 62, 82
3, 333360, Note_on_c, 0, 47, 48
3, 333540, Note_on_c, 0, 67, 33
3, 333540, Note_on_c, 0, 55, 31
3, 333720, Note_on_c, 0, 55, 0
3, 333720, Note_on_c, 0, 67, 0
3, 333720, Note_on_c, 0, 71, 43
3, 333720, Note_on_c, 0, 62, 50
3, 333900, Note_on_c, 0, 71, 0
3, 333900, Note_on_c, 0, 62, 0
3, 333900, Note_on_c, 0, 67, 31
3, 333900, Note_on_c, 0, 55, 34
3, 334080, Note_on_c, 0, 55, 0
3, 334080, Note_on_c, 0, 67, 0
3, 334080, Note_on_c, 0, 71, 45
3, 334080, Note_on_c, 0, 62, 51
3, 334260, Note_on_c, 0, 71, 0
3, 334260, Note_on_c, 0, 62, 0
3, 334260, Note_on_c, 0, 62, 31
3, 334260, Note_on_c, 0, 47, 32
3, 334440, Note_on_c, 0, 62, 0
3, 334440, Note_on_c, 0, 47, 0
3, 334440, Note_on_c, 0, 67, 45
3, 334440, Note_on_c, 0, 55, 42
3, 334620, Note_on_c, 0, 55, 0
3, 334620, Note_on_c, 0, 67, 0
3, 334620, Note_on_c, 0, 71, 48
3, 334620, Note_on_c, 0, 62, 44
3, 334627, Note_on_c, 0, 62, 0
3, 334800, Note_on_c, 0, 71, 0
3, 334800, Note_on_c, 0, 62, 0
3, 334800, Note_on_c, 0, 47, 0
3, 334800, Note_on_c, 0, 64, 79
3, 334800, Note_on_c, 0, 48, 46
3, 334980, Note_on_c, 0, 67, 32
3, 334980, Note_on_c, 0, 57, 30
3, 335160, Note_on_c, 0, 57, 0
3, 335160, Note_on_c, 0, 67, 0
3, 335160, Note_on_c, 0, 69, 37
3, 335160, Note_on_c, 0, 64, 41
3, 335340, Note_on_c, 0, 69, 0
3, 335340, Note_on_c, 0, 64, 0
3, 335340, Note_on_c, 0, 64, 32
3, 335340, Note_on_c, 0, 55, 33
3, 335433, Note_on_c, 0, 64, 0
3, 335520, Note_on_c, 0, 64, 0
3, 335520, Note_on_c, 0, 55, 0
3, 335520, Note_on_c, 0, 48, 0
3, 335520, Note_on_c, 0, 55, 71
3, 335520, Note_on_c, 0, 59, 71
3, 335520, Note_on_c, 0, 47, 28
3, 335520, Note_on_c, 0, 40, 56
3, 335700, Note_on_c, 0, 47, 0
3, 335700, Note_on_c, 0, 64, 31
3, 335700, Note_on_c, 0, 52, 47
3, 335880, Note_on_c, 0, 52, 0
3, 335880, Note_on_c, 0, 64, 0
3, 335880, Note_on_c, 0, 67, 43
3, 335880, Note_on_c, 0, 55, 44
3, 336060, Note_on_c, 0, 67, 0
3, 336060, Note_on_c, 0, 55, 0
3, 336060, Note_on_c, 0, 64, 31
3, 336060, Note_on_c, 0, 52, 39
3, 336240, Note_on_c, 0, 52, 0
3, 336240, Note_on_c, 0, 64, 0
3, 336240, Note_on_c, 0, 67, 41
3, 336240, Note_on_c, 0, 55, 37
3, 336420, Note_on_c, 0, 67, 0
3, 336420, Note_on_c, 0, 55, 0
3, 336420, Note_on_c, 0, 59, 31
3, 336420, Note_on_c, 0, 47, 31
3, 336600, Note_on_c, 0, 47, 0
3, 336600, Note_on_c, 0, 59, 0
3, 336600, Note_on_c, 0, 64, 43
3, 336600, Note_on_c, 0, 52, 40
3, 336780, Note_on_c, 0, 52, 0
3, 336780, Note_on_c, 0, 64, 0
3, 336780, Note_on_c, 0, 67, 37
3, 336780, Note_on_c, 0, 55, 43
3, 336960, Note_on_c, 0, 55, 0
3, 336960, Note_on_c, 0, 55, 0
3, 336960, Note_on_c, 0, 40, 0
3, 336960, Note_on_c, 0, 59, 0
3, 336960, Note_on_c, 0, 67, 0
3, 336960, Note_on_c, 0, 57, 75
3, 336960, Note_on_c, 0, 48, 52
3, 337140, Note_on_c, 0, 64, 30
3, 337140, Note_on_c, 0, 57, 27
3, 337320, Note_on_c, 0, 64, 0
3, 337320, Note_on_c, 0, 57, 0
3, 337320, Note_on_c, 0, 69, 44
3, 337320, Note_on_c, 0, 64, 47
3, 337500, Note_on_c, 0, 64, 0
3, 337500, Note_on_c, 0, 69, 0
3, 337500, Note_on_c, 0, 64, 32
3, 337500, Note_on_c, 0, 57, 40
3, 337593, Note_on_c, 0, 57, 0
3, 337680, Note_on_c, 0, 64, 0
3, 337680, Note_on_c, 0, 57, 0
3, 337680, Note_on_c, 0, 48, 0
3, 337680, Note_on_c, 0, 59, 46
3, 337680, Note_on_c, 0, 59, 40
3, 337860, Note_on_c, 0, 59, 0
3, 337860, Note_on_c, 0, 54, 34
3, 337997, Note_on_c, 0, 59, 0
3, 338040, Note_on_c, 0, 54, 0
3, 338040, Note_on_c, 0, 75, 35
3, 338040, Note_on_c, 0, 35, 42
3, 338040, Note_on_c, 0, 47, 42
3, 338130, Note_on_c, 0, 75, 0
3, 338130, Note_on_c, 0, 84, 51
3, 338220, Note_on_c, 0, 84, 0
3, 338220, Note_on_c, 0, 47, 0
3, 338220, Note_on_c, 0, 35, 0
3, 338220, Note_on_c, 0, 81, 37
3, 338220, Note_on_c, 0, 54, 60
3, 338310, Note_on_c, 0, 81, 0
3, 338310, Note_on_c, 0, 83, 42
3, 338400, Note_on_c, 0, 83, 0
3, 338400, Note_on_c, 0, 54, 0
3, 338400, Note_on_c, 0, 91, 35
3, 338400, Note_on_c, 0, 63, 66
3, 338490, Note_on_c, 0, 84, 37
3, 338580, Note_on_c, 0, 84, 0
3, 338580, Note_on_c, 0, 63, 0
3, 338580, Note_on_c, 0, 81, 37
3, 338580, Note_on_c, 0, 69, 62
3, 338670, Note_on_c, 0, 81, 0
3, 338670, Note_on_c, 0, 83, 42
3, 338760, Note_on_c, 0, 83, 0
3, 338760, Note_on_c, 0, 69, 0
3, 338760, Note_on_c, 0, 91, 0
3, 338760, Note_on_c, 0, 75, 25
3, 338760, Note_on_c, 0, 72, 57
3, 338850, Note_on_c, 0, 75, 0
3, 338850, Note_on_c, 0, 84, 52
3, 338940, Note_on_c, 0, 84, 0
3, 338940, Note_on_c, 0, 72, 0
3, 338940, Note_on_c, 0, 81, 39
3, 338940, Note_on_c, 0, 71, 48
3, 339030, Note_on_c, 0, 81, 0
3, 339030, Note_on_c, 0, 83, 45
3, 339120, Note_on_c, 0, 83, 0
3, 339120, Note_on_c, 0, 71, 0
3, 339120, Note_on_c, 0, 90, 34
3, 339120, Note_on_c, 0, 69, 48
3, 339210, Note_on_c, 0, 84, 33
3, 339300, Note_on_c, 0, 84, 0
3, 339300, Note_on_c, 0, 69, 0
3, 339300, Note_on_c, 0, 81, 35
3, 339300, Note_on_c, 0, 63, 45
3, 339390, Note_on_c, 0, 81, 0
3, 339390, Note_on_c, 0, 83, 45
3, 339480, Note_on_c, 0, 83, 0
3, 339480, Note_on_c, 0, 63, 0
3, 339480, Note_on_c, 0, 90, 0
3, 339480, Note_on_c, 0, 76, 32
3, 339480, Note_on_c, 0, 64, 53
3, 339570, Note_on_c, 0, 76, 0
3, 339570, Note_on_c, 0, 84, 52
3, 339660, Note_on_c, 0, 84, 0
3, 339660, Note_on_c, 0, 64, 0
3, 339660, Note_on_c, 0, 81, 37
3, 339660, Note_on_c, 0, 60, 45
3, 339750, Note_on_c, 0, 81, 0
3, 339750, Note_on_c, 0, 83, 43
3, 339840, Note_on_c, 0, 83, 0
3, 339840, Note_on_c, 0, 60, 0
3, 339840, Note_on_c, 0, 88, 32
3, 339840, Note_on_c, 0, 57, 46
3, 339930, Note_on_c, 0, 84, 37
3, 340020, Note_on_c, 0, 84, 0
3, 340020, Note_on_c, 0, 57, 0
3, 340020, Note_on_c, 0, 81, 33
3, 340020, Note_on_c, 0, 54, 48
3, 340110, Note_on_c, 0, 81, 0
3, 340110, Note_on_c, 0, 83, 42
3, 340200, Note_on_c, 0, 83, 0
3, 340200, Note_on_c, 0, 54, 0
3, 340200, Note_on_c, 0, 88, 0
3, 340200, Note_on_c, 0, 75, 27
3, 340200, Note_on_c, 0, 47, 48
3, 340290, Note_on_c, 0, 75, 0
3, 340290, Note_on_c, 0, 84, 48
3, 340380, Note_on_c, 0, 84, 0
3, 340380, Note_on_c, 0, 47, 0
3, 340380, Note_on_c, 0, 81, 40
3, 340380, Note_on_c, 0, 54, 56
3, 340470, Note_on_c, 0, 81, 0
3, 340470, Note_on_c, 0, 83, 41
3, 340560, Note_on_c, 0, 83, 0
3, 340560, Note_on_c, 0, 54, 0
3, 340560, Note_on_c, 0, 90, 29
3, 340560, Note_on_c, 0, 63, 67
3, 340650, Note_on_c, 0, 84, 32
3, 340740, Note_on_c, 0, 84, 0
3, 340740, Note_on_c, 0, 63, 0
3, 340740, Note_on_c, 0, 81, 37
3, 340740, Note_on_c, 0, 69, 63
3, 340830, Note_on_c, 0, 81, 0
3, 340830, Note_on_c, 0, 83, 43
3, 340920, Note_on_c, 0, 83, 0
3, 340920, Note_on_c, 0, 69, 0
3, 340920, Note_on_c, 0, 90, 0
3, 340920, Note_on_c, 0, 74, 24
3, 340920, Note_on_c, 0, 40, 46
3, 341010, Note_on_c, 0, 74, 0
3, 341010, Note_on_c, 0, 84, 47
3, 341100, Note_on_c, 0, 84, 0
3, 341100, Note_on_c, 0, 40, 0
3, 341100, Note_on_c, 0, 81, 35
3, 341100, Note_on_c, 0, 52, 63
3, 341190, Note_on_c, 0, 81, 0
3, 341190, Note_on_c, 0, 83, 41
3, 341280, Note_on_c, 0, 83, 0
3, 341280, Note_on_c, 0, 52, 0
3, 341280, Note_on_c, 0, 89, 34
3, 341280, Note_on_c, 0, 59, 58
3, 341370, Note_on_c, 0, 84, 33
3, 341460, Note_on_c, 0, 84, 0
3, 341460, Note_on_c, 0, 59, 0
3, 341460, Note_on_c, 0, 81, 37
3, 341460, Note_on_c, 0, 62, 56
3, 341550, Note_on_c, 0, 81, 0
3, 341550, Note_on_c, 0, 83, 44
3, 341640, Note_on_c, 0, 83, 0
3, 341640, Note_on_c, 0, 62, 0
3, 341640, Note_on_c, 0, 89, 0
3, 341640, Note_on_c, 0, 76, 30
3, 341640, Note_on_c, 0, 69, 63
3, 341730, Note_on_c, 0, 76, 0
3, 341730, Note_on_c, 0, 84, 47
3, 341820, Note_on_c, 0, 84, 0
3, 341820, Note_on_c, 0, 69, 0
3, 341820, Note_on_c, 0, 81, 37
3, 341820, Note_on_c, 0, 65, 47
3, 341910, Note_on_c, 0, 81, 0
3, 341910, Note_on_c, 0, 83, 45
3, 342000, Note_on_c, 0, 83, 0
3, 342000, Note_on_c, 0, 65, 0
3, 342000, Note_on_c, 0, 88, 32
3, 342000, Note_on_c, 0, 64, 48
3, 342090, Note_on_c, 0, 84, 34
3, 342180, Note_on_c, 0, 84, 0
3, 342180, Note_on_c, 0, 64, 0
3, 342180, Note_on_c, 0, 81, 37
3, 342180, Note_on_c, 0, 62, 47
3, 342270, Note_on_c, 0, 81, 0
3, 342270, Note_on_c, 0, 83, 41
3, 342360, Note_on_c, 0, 83, 0
3, 342360, Note_on_c, 0, 62, 0
3, 342360, Note_on_c, 0, 88, 0
3, 342360, Note_on_c, 0, 77, 31
3, 342360, Note_on_c, 0, 64, 49
3, 342450, Note_on_c, 0, 77, 0
3, 342450, Note_on_c, 0, 84, 50
3, 342540, Note_on_c, 0, 84, 0
3, 342540, Note_on_c, 0, 64, 0
3, 342540, Note_on_c, 0, 81, 31
3, 342540, Note_on_c, 0, 62, 50
3, 342630, Note_on_c, 0, 81, 0
3, 342630, Note_on_c, 0, 83, 43
3, 342720, Note_on_c, 0, 83, 0
3, 342720, Note_on_c, 0, 62, 0
3, 342720, Note_on_c, 0, 86, 26
3, 342720, Note_on_c, 0, 57, 50
3, 342810, Note_on_c, 0, 84, 37
3, 342900, Note_on_c, 0, 84, 0
3, 342900, Note_on_c, 0, 57, 0
3, 342900, Note_on_c, 0, 81, 38
3, 342900, Note_on_c, 0, 53, 50
3, 342990, Note_on_c, 0, 81, 0
3, 342990, Note_on_c, 0, 83, 45
3, 343080, Note_on_c, 0, 83, 0
3, 343080, Note_on_c, 0, 53, 0
3, 343080, Note_on_c, 0, 86, 0
3, 343080, Note_on_c, 0, 76, 31
3, 343080, Note_on_c, 0, 52, 50
3, 343170, Note_on_c, 0, 76, 0
3, 343170, Note_on_c, 0, 84, 48
3, 343260, Note_on_c, 0, 84, 0
3, 343260, Note_on_c, 0, 52, 0
3, 343260, Note_on_c, 0, 82, 39
3, 343260, Note_on_c, 0, 62, 63
3, 343350, Note_on_c, 0, 82, 0
3, 343350, Note_on_c, 0, 83, 43
3, 343440, Note_on_c, 0, 83, 0
3, 343440, Note_on_c, 0, 62, 0
3, 343440, Note_on_c, 0, 88, 33
3, 343440, Note_on_c, 0, 68, 59
3, 343530, Note_on_c, 0, 84, 40
3, 343620, Note_on_c, 0, 84, 0
3, 343620, Note_on_c, 0, 68, 0
3, 343620, Note_on_c, 0, 82, 36
3, 343620, Note_on_c, 0, 62, 42
3, 343710, Note_on_c, 0, 82, 0
3, 343710, Note_on_c, 0, 83, 47
3, 343800, Note_on_c, 0, 83, 0
3, 343800, Note_on_c, 0, 62, 0
3, 343800, Note_on_c, 0, 88, 0
3, 343800, Note_on_c, 0, 72, 23
3, 343800, Note_on_c, 0, 45, 39
3, 343890, Note_on_c, 0, 72, 0
3, 343890, Note_on_c, 0, 81, 46
3, 343980, Note_on_c, 0, 81, 0
3, 343980, Note_on_c, 0, 45, 0
3, 343980, Note_on_c, 0, 78, 35
3, 343980, Note_on_c, 0, 52, 56
3, 344070, Note_on_c, 0, 78, 0
3, 344070, Note_on_c, 0, 79, 47
3, 344160, Note_on_c, 0, 79, 0
3, 344160, Note_on_c, 0, 52, 0
3, 344160, Note_on_c, 0, 88, 31
3, 344160, Note_on_c, 0, 60, 64
3, 344250, Note_on_c, 0, 81, 28
3, 344340, Note_on_c, 0, 81, 0
3, 344340, Note_on_c, 0, 60, 0
3, 344340, Note_on_c, 0, 78, 32
3, 344340, Note_on_c, 0, 64, 59
3, 344430, Note_on_c, 0, 78, 0
3, 344430, Note_on_c, 0, 79, 43
3, 344520, Note_on_c, 0, 79, 0
3, 344520, Note_on_c, 0, 64, 0
3, 344520, Note_on_c, 0, 88, 0
3, 344520, Note_on_c, 0, 74, 36
3, 344520, Note_on_c, 0, 66, 62
3, 344610, Note_on_c, 0, 74, 0
3, 344610, Note_on_c, 0, 81, 51
3, 344700, Note_on_c, 0, 81, 0
3, 344700, Note_on_c, 0, 66, 0
3, 344700, Note_on_c, 0, 78, 39
3, 344700, Note_on_c, 0, 64, 54
3, 344790, Note_on_c, 0, 78, 0
3, 344790, Note_on_c, 0, 79, 44
3, 344880, Note_on_c, 0, 79, 0
3, 344880, Note_on_c, 0, 64, 0
3, 344880, Note_on_c, 0, 86, 30
3, 344880, Note_on_c, 0, 57, 50
3, 344970, Note_on_c, 0, 81, 39
3, 345060, Note_on_c, 0, 81, 0
3, 345060, Note_on_c, 0, 57, 0
3, 345060, Note_on_c, 0, 78, 34
3, 345060, Note_on_c, 0, 52, 46
3, 345150, Note_on_c, 0, 78, 0
3, 345150, Note_on_c, 0, 79, 43
3, 345240, Note_on_c, 0, 79, 0
3, 345240, Note_on_c, 0, 52, 0
3, 345240, Note_on_c, 0, 86, 0
3, 345240, Note_on_c, 0, 76, 39
3, 345240, Note_on_c, 0, 60, 62
3, 345330, Note_on_c, 0, 76, 0
3, 345330, Note_on_c, 0, 81, 46
3, 345420, Note_on_c, 0, 81, 0
3, 345420, Note_on_c, 0, 60, 0
3, 345420, Note_on_c, 0, 78, 42
3, 345420, Note_on_c, 0, 57, 47
3, 345510, Note_on_c, 0, 78, 0
3, 345510, Note_on_c, 0, 79, 39
3, 345600, Note_on_c, 0, 79, 0
3, 345600, Note_on_c, 0, 57, 0
3, 345600, Note_on_c, 0, 84, 29
3, 345600, Note_on_c, 0, 52, 42
3, 345690, Note_on_c, 0, 81, 35
3, 345780, Note_on_c, 0, 81, 0
3, 345780, Note_on_c, 0, 52, 0
3, 345780, Note_on_c, 0, 78, 34
3, 345780, Note_on_c, 0, 45, 41
3, 345870, Note_on_c, 0, 78, 0
3, 345870, Note_on_c, 0, 79, 40
3, 345960, Note_on_c, 0, 79, 0
3, 345960, Note_on_c, 0, 45, 0
3, 345960, Note_on_c, 0, 84, 0
3, 345960, Note_on_c, 0, 66, 25
3, 345960, Note_on_c, 0, 52, 50
3, 346050, Note_on_c, 0, 66, 0
3, 346050, Note_on_c, 0, 76, 48
3, 346140, Note_on_c, 0, 76, 0
3, 346140, Note_on_c, 0, 52, 0
3, 346140, Note_on_c, 0, 71, 38
3, 346140, Note_on_c, 0, 59, 57
3, 346230, Note_on_c, 0, 71, 0
3, 346230, Note_on_c, 0, 76, 55
3, 346320, Note_on_c, 0, 76, 0
3, 346320, Note_on_c, 0, 59, 0
3, 346320, Note_on_c, 0, 79, 35
3, 346320, Note_on_c, 0, 67, 31
3, 346320, Note_on_c, 0, 64, 60
3, 346410, Note_on_c, 0, 67, 0
3, 346410, Note_on_c, 0, 76, 52
3, 346500, Note_on_c, 0, 76, 0
3, 346500, Note_on_c, 0, 64, 0
3, 346500, Note_on_c, 0, 71, 36
3, 346500, Note_on_c, 0, 38, 47
3, 346500, Note_on_c, 0, 50, 47
3, 346590, Note_on_c, 0, 71, 0
3, 346590, Note_on_c, 0, 76, 48
3, 346680, Note_on_c, 0, 76, 0
3, 346680, Note_on_c, 0, 79, 0
3, 346680, Note_on_c, 0, 71, 30
3, 346680, Note_on_c, 0, 59, 45
3, 346770, Note_on_c, 0, 83, 33
3, 346860, Note_on_c, 0, 83, 0
3, 346860, Note_on_c, 0, 59, 0
3, 346860, Note_on_c, 0, 74, 28
3, 346860, Note_on_c, 0, 62, 56
3, 346950, Note_on_c, 0, 74, 0
3, 346950, Note_on_c, 0, 76, 43
3, 347040, Note_on_c, 0, 76, 0
3, 347040, Note_on_c, 0, 62, 0
3, 347040, Note_on_c, 0, 71, 0
3, 347040, Note_on_c, 0, 50, 0
3, 347040, Note_on_c, 0, 38, 0
3, 347040, Note_on_c, 0, 72, 38
3, 347040, Note_on_c, 0, 67, 61
3, 347130, Note_on_c, 0, 84, 34
3, 347220, Note_on_c, 0, 84, 0
3, 347220, Note_on_c, 0, 67, 0
3, 347220, Note_on_c, 0, 76, 31
3, 347220, Note_on_c, 0, 69, 54
3, 347310, Note_on_c, 0, 76, 0
3, 347310, Note_on_c, 0, 78, 44
3, 347400, Note_on_c, 0, 78, 0
3, 347400, Note_on_c, 0, 69, 0
3, 347400, Note_on_c, 0, 72, 0
3, 347400, Note_on_c, 0, 74, 39
3, 347400, Note_on_c, 0, 71, 51
3, 347490, Note_on_c, 0, 86, 30
3, 347580, Note_on_c, 0, 86, 0
3, 347580, Note_on_c, 0, 71, 0
3, 347580, Note_on_c, 0, 78, 28
3, 347580, Note_on_c, 0, 69, 49
3, 347670, Note_on_c, 0, 78, 0
3, 347670, Note_on_c, 0, 79, 44
3, 347760, Note_on_c, 0, 79, 0
3, 347760, Note_on_c, 0, 69, 0
3, 347760, Note_on_c, 0, 74, 0
3, 347760, Note_on_c, 0, 76, 37
3, 347760, Note_on_c, 0, 67, 45
3, 347850, Note_on_c, 0, 88, 33
3, 347940, Note_on_c, 0, 88, 0
3, 347940, Note_on_c, 0, 67, 0
3, 347940, Note_on_c, 0, 79, 36
3, 347940, Note_on_c, 0, 64, 44
3, 348030, Note_on_c, 0, 79, 0
3, 348030, Note_on_c, 0, 81, 41
3, 348120, Note_on_c, 0, 81, 0
3, 348120, Note_on_c, 0, 64, 0
3, 348120, Note_on_c, 0, 76, 0
3, 348120, Note_on_c, 0, 78, 43
3, 348120, Note_on_c, 0, 62, 46
3, 348210, Note_on_c, 0, 90, 35
3, 348300, Note_on_c, 0, 90, 0
3, 348300, Note_on_c, 0, 62, 0
3, 348300, Note_on_c, 0, 81, 28
3, 348300, Note_on_c, 0, 59, 46
3, 348390, Note_on_c, 0, 81, 0
3, 348390, Note_on_c, 0, 83, 43
3, 348480, Note_on_c, 0, 83, 0
3, 348480, Note_on_c, 0, 59, 0
3, 348480, Note_on_c, 0, 78, 0
3, 348480, Note_on_c, 0, 76, 34
3, 348480, Note_on_c, 0, 50, 55
3, 348480, Note_on_c, 0, 60, 55
3, 348570, Note_on_c, 0, 88, 36
3, 348660, Note_on_c, 0, 88, 0
3, 348660, Note_on_c, 0, 50, 0
3, 348660, Note_on_c, 0, 60, 0
3, 348660, Note_on_c, 0, 79, 28
3, 348660, Note_on_c, 0, 57, 51
3, 348750, Note_on_c, 0, 79, 0
3, 348750, Note_on_c, 0, 81, 42
3, 348840, Note_on_c, 0, 81, 0
3, 348840, Note_on_c, 0, 57, 0
3, 348840, Note_on_c, 0, 76, 0
3, 348840, Note_on_c, 0, 78, 41
3, 348840, Note_on_c, 0, 66, 63
3, 348930, Note_on_c, 0, 90, 38
3, 349020, Note_on_c, 0, 90, 0
3, 349020, Note_on_c, 0, 66, 0
3, 349020, Note_on_c, 0, 81, 28
3, 349020, Note_on_c, 0, 60, 39
3, 349110, Note_on_c, 0, 81, 0
3, 349110, Note_on_c, 0, 83, 37
3, 349200, Note_on_c, 0, 83, 0
3, 349200, Note_on_c, 0, 60, 0
3, 349200, Note_on_c, 0, 78, 0
3, 349200, Note_on_c, 0, 79, 53
3, 349200, Note_on_c, 0, 83, 53
3, 349200, Note_on_c, 0, 91, 53
3, 349200, Note_on_c, 0, 43, 45
3, 349320, Note_on_c, 0, 43, 0
3, 349320, Note_on_c, 0, 50, 57
3, 349439, Note_on_c, 0, 50, 0
3, 349439, Note_on_c, 0, 55, 58
3, 349560, Note_on_c, 0, 55, 0
3, 349560, Note_on_c, 0, 59, 62
3, 349680, Note_on_c, 0, 59, 0
3, 349680, Note_on_c, 0, 91, 0
3, 349680, Note_on_c, 0, 83, 0
3, 349680, Note_on_c, 0, 79, 0
3, 349680, Note_on_c, 0, 76, 34
3, 349680, Note_on_c, 0, 88, 34
3, 349680, Note_on_c, 0, 62, 55
3, 349799, Note_on_c, 0, 62, 0
3, 349799, Note_on_c, 0, 88, 0
3, 349799, Note_on_c, 0, 76, 0
3, 349799, Note_on_c, 0, 86, 31
3, 349799, Note_on_c, 0, 67, 60
3, 349920, Note_on_c, 0, 67, 0
3, 349920, Note_on_c, 0, 86, 0
3, 349920, Note_on_c, 0, 74, 38
3, 349920, Note_on_c, 0, 86, 38
3, 349920, Note_on_c, 0, 71, 62
3, 350040, Note_on_c, 0, 86, 0
3, 350040, Note_on_c, 0, 74, 0
3, 350040, Note_on_c, 0, 84, 33
3, 350159, Note_on_c, 0, 84, 0
3, 350159, Note_on_c, 0, 83, 34
3, 350280, Note_on_c, 0, 83, 0
3, 350280, Note_on_c, 0, 71, 0
3, 350280, Note_on_c, 0, 79, 39
3, 350280, Note_on_c, 0, 84, 39
3, 350280, Note_on_c, 0, 86, 39
3, 350280, Note_on_c, 0, 67, 55
3, 350280, Note_on_c, 0, 72, 55
3, 350280, Note_on_c, 0, 74, 55
3, 350519, Note_on_c, 0, 86, 0
3, 350519, Note_on_c, 0, 84, 0
3, 350519, Note_on_c, 0, 79, 0
3, 350519, Note_on_c, 0, 76, 41
3, 350519, Note_on_c, 0, 88, 41
3, 350640, Note_on_c, 0, 88, 0
3, 350640, Note_on_c, 0, 72, 0
3, 350640, Note_on_c, 0, 74, 0
3, 350640, Note_on_c, 0, 67, 0
3, 350640, Note_on_c, 0, 76, 0
3, 350640, Note_on_c, 0, 74, 33
3, 350640, Note_on_c, 0, 79, 33
3, 350640, Note_on_c, 0, 86, 33
3, 350640, Note_on_c, 0, 43, 43
3, 350760, Note_on_c, 0, 43, 0
3, 350760, Note_on_c, 0, 50, 58
3, 350879, Note_on_c, 0, 50, 0
3, 350879, Note_on_c, 0, 55, 59
3, 351000, Note_on_c, 0, 55, 0
3, 351000, Note_on_c, 0, 59, 54
3, 351120, Note_on_c, 0, 59, 0
3, 351120, Note_on_c, 0, 86, 0
3, 351120, Note_on_c, 0, 79, 0
3, 351120, Note_on_c, 0, 74, 0
3, 351120, Note_on_c, 0, 84, 33
3, 351120, Note_on_c, 0, 62, 59
3, 351239, Note_on_c, 0, 62, 0
3, 351239, Note_on_c, 0, 84, 0
3, 351239, Note_on_c, 0, 83, 34
3, 351239, Note_on_c, 0, 67, 59
3, 351360, Note_on_c, 0, 83, 0
3, 351360, Note_on_c, 0, 83, 37
3, 351360, Note_on_c, 0, 72, 30
3, 351360, Note_on_c, 0, 64, 51
3, 351480, Note_on_c, 0, 83, 0
3, 351480, Note_on_c, 0, 81, 37
3, 351599, Note_on_c, 0, 81, 0
3, 351599, Note_on_c, 0, 79, 32
3, 351720, Note_on_c, 0, 79, 0
3, 351720, Note_on_c, 0, 79, 39
3, 351840, Note_on_c, 0, 79, 0
3, 351840, Note_on_c, 0, 78, 34
3, 351959, Note_on_c, 0, 78, 0
3, 351959, Note_on_c, 0, 76, 33
3, 352080, Note_on_c, 0, 76, 0
3, 352080, Note_on_c, 0, 64, 0
3, 352080, Note_on_c, 0, 72, 0
3, 352080, Note_on_c, 0, 67, 0
3, 352080, Note_on_c, 0, 71, 46
3, 352080, Note_on_c, 0, 79, 46
3, 352080, Note_on_c, 0, 62, 44
3, 352080, Note_on_c, 0, 55, 42
3, 352200, Note_on_c, 0, 79, 0
3, 352200, Note_on_c, 0, 71, 0
3, 352200, Note_on_c, 0, 71, 29
3, 352319, Note_on_c, 0, 74, 39
3, 352440, Note_on_c, 0, 74, 0
3, 352440, Note_on_c, 0, 55, 0
3, 352440, Note_on_c, 0, 62, 0
3, 352440, Note_on_c, 0, 76, 37
3, 352440, Note_on_c, 0, 67, 57
3, 352800, Note_on_c, 0, 66, 35
3, 352920, Note_on_c, 0, 76, 0
3, 352920, Note_on_c, 0, 71, 0
3, 352920, Note_on_c, 0, 74, 33
3, 353039, Note_on_c, 0, 74, 0
3, 353039, Note_on_c, 0, 71, 33
3, 353160, Note_on_c, 0, 71, 0
3, 353160, Note_on_c, 0, 66, 0
3, 353160, Note_on_c, 0, 72, 37
3, 353160, Note_on_c, 0, 64, 33
3, 353280, Note_on_c, 0, 72, 0
3, 353280, Note_on_c, 0, 71, 34
3, 353399, Note_on_c, 0, 71, 0
3, 353399, Note_on_c, 0, 67, 28
3, 353520, Note_on_c, 0, 67, 0
3, 353520, Note_on_c, 0, 64, 0
3, 353520, Note_on_c, 0, 67, 0
3, 353520, Note_on_c, 0, 71, 43
3, 353520, Note_on_c, 0, 62, 51
3, 353520, Note_on_c, 0, 67, 51
3, 353640, Note_on_c, 0, 71, 0
3, 353640, Note_on_c, 0, 74, 40
3, 353759, Note_on_c, 0, 74, 0
3, 353759, Note_on_c, 0, 76, 43
3, 353880, Note_on_c, 0, 76, 0
3, 353880, Note_on_c, 0, 78, 39
3, 353880, Note_on_c, 0, 59, 35
3, 354000, Note_on_c, 0, 78, 0
3, 354000, Note_on_c, 0, 79, 41
3, 354119, Note_on_c, 0, 79, 0
3, 354119, Note_on_c, 0, 78, 34
3, 354240, Note_on_c, 0, 78, 0
3, 354240, Note_on_c, 0, 76, 39
3, 354240, Note_on_c, 0, 55, 39
3, 354360, Note_on_c, 0, 76, 0
3, 354360, Note_on_c, 0, 74, 37
3, 354479, Note_on_c, 0, 74, 0
3, 354479, Note_on_c, 0, 76, 40
3, 354600, Note_on_c, 0, 76, 0
3, 354600, Note_on_c, 0, 78, 41
3, 354600, Note_on_c, 0, 50, 43
3, 354720, Note_on_c, 0, 78, 0
3, 354720, Note_on_c, 0, 79, 40
3, 354839, Note_on_c, 0, 79, 0
3, 354839, Note_on_c, 0, 83, 42
3, 354960, Note_on_c, 0, 83, 0
3, 354960, Note_on_c, 0, 62, 0
3, 354960, Note_on_c, 0, 55, 0
3, 354960, Note_on_c, 0, 59, 0
3, 354960, Note_on_c, 0, 67, 0
3, 354960, Note_on_c, 0, 50, 0
3, 354960, Note_on_c, 0, 72, 25
3, 354960, Note_on_c, 0, 43, 44
3, 355050, Note_on_c, 0, 81, 34
3, 355140, Note_on_c, 0, 81, 0
3, 355140, Note_on_c, 0, 43, 0
3, 355140, Note_on_c, 0, 78, 36
3, 355140, Note_on_c, 0, 60, 67
3, 355230, Note_on_c, 0, 78, 0
3, 355230, Note_on_c, 0, 79, 46
3, 355320, Note_on_c, 0, 79, 0
3, 355320, Note_on_c, 0, 60, 0
3, 355320, Note_on_c, 0, 72, 0
3, 355320, Note_on_c, 0, 88, 54
3, 355320, Note_on_c, 0, 64, 62
3, 355410, Note_on_c, 0, 81, 35
3, 355500, Note_on_c, 0, 81, 0
3, 355500, Note_on_c, 0, 64, 0
3, 355500, Note_on_c, 0, 78, 37
3, 355500, Note_on_c, 0, 69, 62
3, 355590, Note_on_c, 0, 78, 0
3, 355590, Note_on_c, 0, 79, 44
3, 355680, Note_on_c, 0, 79, 0
3, 355680, Note_on_c, 0, 69, 0
3, 355680, Note_on_c, 0, 88, 0
3, 355680, Note_on_c, 0, 76, 27
3, 355680, Note_on_c, 0, 67, 52
3, 355770, Note_on_c, 0, 81, 36
3, 355860, Note_on_c, 0, 81, 0
3, 355860, Note_on_c, 0, 67, 0
3, 355860, Note_on_c, 0, 78, 37
3, 355860, Note_on_c, 0, 64, 47
3, 355950, Note_on_c, 0, 78, 0
3, 355950, Note_on_c, 0, 79, 41
3, 356040, Note_on_c, 0, 79, 0
3, 356040, Note_on_c, 0, 64, 0
3, 356040, Note_on_c, 0, 76, 0
3, 356040, Note_on_c, 0, 84, 47
3, 356040, Note_on_c, 0, 60, 38
3, 356130, Note_on_c, 0, 81, 39
3, 356220, Note_on_c, 0, 81, 0
3, 356220, Note_on_c, 0, 60, 0
3, 356220, Note_on_c, 0, 78, 41
3, 356220, Note_on_c, 0, 52, 42
3, 356310, Note_on_c, 0, 78, 0
3, 356310, Note_on_c, 0, 79, 47
3, 356400, Note_on_c, 0, 79, 0
3, 356400, Note_on_c, 0, 52, 0
3, 356400, Note_on_c, 0, 84, 0
3, 356400, Note_on_c, 0, 71, 29
3, 356400, Note_on_c, 0, 43, 44
3, 356490, Note_on_c, 0, 81, 34
3, 356580, Note_on_c, 0, 81, 0
3, 356580, Note_on_c, 0, 43, 0
3, 356580, Note_on_c, 0, 78, 38
3, 356580, Note_on_c, 0, 59, 60
3, 356670, Note_on_c, 0, 78, 0
3, 356670, Note_on_c, 0, 79, 39
3, 356760, Note_on_c, 0, 79, 0
3, 356760, Note_on_c, 0, 59, 0
3, 356760, Note_on_c, 0, 71, 0
3, 356760, Note_on_c, 0, 88, 51
3, 356760, Note_on_c, 0, 64, 61
3, 356850, Note_on_c, 0, 81, 36
3, 356940, Note_on_c, 0, 81, 0
3, 356940, Note_on_c, 0, 64, 0
3, 356940, Note_on_c, 0, 78, 33
3, 356940, Note_on_c, 0, 69, 59
3, 357030, Note_on_c, 0, 78, 0
3, 357030, Note_on_c, 0, 79, 40
3, 357120, Note_on_c, 0, 79, 0
3, 357120, Note_on_c, 0, 69, 0
3, 357120, Note_on_c, 0, 88, 0
3, 357120, Note_on_c, 0, 76, 31
3, 357120, Note_on_c, 0, 67, 49
3, 357210, Note_on_c, 0, 81, 37
3, 357300, Note_on_c, 0, 81, 0
3, 357300, Note_on_c, 0, 67, 0
3, 357300, Note_on_c, 0, 78, 35
3, 357300, Note_on_c, 0, 64, 45
3, 357390, Note_on_c, 0, 78, 0
3, 357390, Note_on_c, 0, 79, 43
3, 357480, Note_on_c, 0, 79, 0
3, 357480, Note_on_c, 0, 64, 0
3, 357480, Note_on_c, 0, 76, 0
3, 357480, Note_on_c, 0, 83, 50
3, 357480, Note_on_c, 0, 59, 45
3, 357570, Note_on_c, 0, 81, 33
3, 357660, Note_on_c, 0, 81, 0
3, 357660, Note_on_c, 0, 59, 0
3, 357660, Note_on_c, 0, 78, 31
3, 357660, Note_on_c, 0, 52, 49
3, 357750, Note_on_c, 0, 78, 0
3, 357750, Note_on_c, 0, 79, 43
3, 357840, Note_on_c, 0, 79, 0
3, 357840, Note_on_c, 0, 52, 0
3, 357840, Note_on_c, 0, 83, 0
3, 357840, Note_on_c, 0, 69, 31
3, 357840, Note_on_c, 0, 43, 42
3, 357930, Note_on_c, 0, 79, 35
3, 358020, Note_on_c, 0, 79, 0
3, 358020, Note_on_c, 0, 43, 0
3, 358020, Note_on_c, 0, 76, 40
3, 358020, Note_on_c, 0, 60, 64
3, 358110, Note_on_c, 0, 76, 0
3, 358110, Note_on_c, 0, 78, 43
3, 358200, Note_on_c, 0, 78, 0
3, 358200, Note_on_c, 0, 60, 0
3, 358200, Note_on_c, 0, 69, 0
3, 358200, Note_on_c, 0, 84, 52
3, 358200, Note_on_c, 0, 64, 59
3, 358290, Note_on_c, 0, 79, 35
3, 358380, Note_on_c, 0, 79, 0
3, 358380, Note_on_c, 0, 64, 0
3, 358380, Note_on_c, 0, 76, 37
3, 358380, Note_on_c, 0, 69, 62
3, 358470, Note_on_c, 0, 76, 0
3, 358470, Note_on_c, 0, 78, 43
3, 358560, Note_on_c, 0, 78, 0
3, 358560, Note_on_c, 0, 69, 0
3, 358560, Note_on_c, 0, 84, 0
3, 358560, Note_on_c, 0, 71, 29
3, 358560, Note_on_c, 0, 67, 44
3, 358650, Note_on_c, 0, 81, 37
3, 358740, Note_on_c, 0, 81, 0
3, 358740, Note_on_c, 0, 67, 0
3, 358740, Note_on_c, 0, 78, 36
3, 358740, Note_on_c, 0, 64, 47
3, 358830, Note_on_c, 0, 78, 0
3, 358830, Note_on_c, 0, 79, 38
3, 358920, Note_on_c, 0, 79, 0
3, 358920, Note_on_c, 0, 64, 0
3, 358920, Note_on_c, 0, 71, 0
3, 358920, Note_on_c, 0, 83, 46
3, 358920, Note_on_c, 0, 59, 43
3, 359010, Note_on_c, 0, 81, 29
3, 359100, Note_on_c, 0, 81, 0
3, 359100, Note_on_c, 0, 59, 0
3, 359100, Note_on_c, 0, 78, 33
3, 359100, Note_on_c, 0, 64, 58
3, 359190, Note_on_c, 0, 78, 0
3, 359190, Note_on_c, 0, 79, 42
3, 359280, Note_on_c, 0, 79, 0
3, 359280, Note_on_c, 0, 64, 0
3, 359280, Note_on_c, 0, 83, 0
3, 359280, Note_on_c, 0, 78, 30
3, 359280, Note_on_c, 0, 67, 56
3, 359370, Note_on_c, 0, 78, 0
3, 359370, Note_on_c, 0, 76, 36
3, 359460, Note_on_c, 0, 76, 0
3, 359460, Note_on_c, 0, 67, 0
3, 359460, Note_on_c, 0, 71, 27
3, 359460, Note_on_c, 0, 64, 44
3, 359550, Note_on_c, 0, 71, 0
3, 359550, Note_on_c, 0, 67, 31
3, 359640, Note_on_c, 0, 67, 0
3, 359640, Note_on_c, 0, 64, 0
3, 359640, Note_on_c, 0, 66, 61
3, 359730, Note_on_c, 0, 66, 0
3, 359730, Note_on_c, 0, 64, 41
3, 359820, Note_on_c, 0, 64, 0
3, 359820, Note_on_c, 0, 59, 48
3, 359910, Note_on_c, 0, 59, 0
3, 359910, Note_on_c, 0, 55, 49
3, 360000, Note_on_c, 0, 67, 87
3, 360000, Note_on_c, 0, 71, 87
3, 360000, Note_on_c, 0, 74, 87
3, 360000, Note_on_c, 0, 79, 87
3, 360000, Control_c, 0, 64, 127
3, 360000, Note_on_c, 0, 59, 105
3, 360000, Note_on_c, 0, 62, 105
3, 360180, Note_on_c, 0, 62, 0
3, 360180, Note_on_c, 0, 59, 0
3, 360180, Note_on_c, 0, 55, 0
3, 360180, Note_on_c, 0, 50, 79
3, 360317, Note_on_c, 0, 67, 0
3, 360317, Note_on_c, 0, 74, 0
3, 360317, Note_on_c, 0, 71, 0
3, 360317, Note_on_c, 0, 79, 0
3, 360360, Note_on_c, 0, 50, 0
3, 360360, Note_on_c, 0, 69, 106
3, 360360, Note_on_c, 0, 72, 106
3, 360360, Note_on_c, 0, 74, 106
3, 360360, Note_on_c, 0, 81, 106
3, 360360, Control_c, 0, 64, 0
3, 360360, Control_c, 0, 64, 127
3, 360360, Note_on_c, 0, 57, 109
3, 360360, Note_on_c, 0, 60, 109
3, 360360, Note_on_c, 0, 62, 109
3, 360540, Note_on_c, 0, 62, 0
3, 360540, Note_on_c, 0, 60, 0
3, 360540, Note_on_c, 0, 57, 0
3, 360540, Control_c, 0, 64, 0
3, 360540, Note_on_c, 0, 50, 77
3, 360677, Note_on_c, 0, 69, 0
3, 360677, Note_on_c, 0, 74, 0
3, 360677, Note_on_c, 0, 72, 0
3, 360677, Note_on_c, 0, 81, 0
3, 360720, Note_on_c, 0, 50, 0
3, 360720, Note_on_c, 0, 71, 111
3, 360720, Note_on_c, 0, 74, 111
3, 360720, Note_on_c, 0, 79, 111
3, 360720, Note_on_c, 0, 83, 111
3, 360720, Control_c, 0, 64, 127
3, 360720, Note_on_c, 0, 55, 116
3, 360720, Note_on_c, 0, 59, 116
3, 360720, Note_on_c, 0, 62, 116
3, 360900, Note_on_c, 0, 62, 0
3, 360900, Note_on_c, 0, 59, 0
3, 360900, Note_on_c, 0, 55, 0
3, 360900, Note_on_c, 0, 50, 83
3, 361080, Note_on_c, 0, 50, 0
3, 361080, Note_on_c, 0, 43, 79
3, 361260, Note_on_c, 0, 43, 0
3, 361260, Control_c, 0, 64, 0
3, 361260, Note_on_c, 0, 31, 73
3, 361440, Note_on_c, 0, 31, 0
3, 361440, Note_on_c, 0, 43, 101
3, 361620, Note_on_c, 0, 43, 0
3, 361620, Note_on_c, 0, 50, 96
3, 361669, Note_on_c, 0, 71, 0
3, 361669, Note_on_c, 0, 79, 0
3, 361669, Note_on_c, 0, 74, 0
3, 361669, Note_on_c, 0, 83, 0
3, 361800, Note_on_c, 0, 50, 0
3, 361800, Note_on_c, 0, 69, 91
3, 361800, Note_on_c, 0, 72, 91
3, 361800, Note_on_c, 0, 74, 91
3, 361800, Note_on_c, 0, 81, 91
3, 361800, Note_on_c, 0, 55, 116
3, 361800, Note_on_c, 0, 60, 116
3, 361800, Note_on_c, 0, 62, 116
3, 361980, Note_on_c, 0, 62, 0
3, 361980, Note_on_c, 0, 60, 0
3, 361980, Note_on_c, 0, 55, 0
3, 361980, Note_on_c, 0, 50, 77
3, 362117, Note_on_c, 0, 69, 0
3, 362117, Note_on_c, 0, 74, 0
3, 362117, Note_on_c, 0, 72, 0
3, 362117, Note_on_c, 0, 81, 0
3, 362160, Note_on_c, 0, 50, 0
3, 362160, Note_on_c, 0, 71, 109
3, 362160, Note_on_c, 0, 74, 109
3, 362160, Note_on_c, 0, 79, 109
3, 362160, Note_on_c, 0, 83, 109
3, 362160, Control_c, 0, 64, 127
3, 362160, Note_on_c, 0, 55, 116
3, 362160, Note_on_c, 0, 59, 116
3, 362160, Note_on_c, 0, 62, 116
3, 362340, Note_on_c, 0, 62, 0
3, 362340, Note_on_c, 0, 59, 0
3, 362340, Note_on_c, 0, 55, 0
3, 362340, Note_on_c, 0, 50, 77
3, 362520, Note_on_c, 0, 50, 0
3, 362520, Note_on_c, 0, 43, 74
3, 362700, Note_on_c, 0, 43, 0
3, 362700, Note_on_c, 0, 31, 74
3, 362793, Note_on_c, 0, 71, 0
3, 362793, Note_on_c, 0, 79, 0
3, 362793, Note_on_c, 0, 74, 0
3, 362793, Note_on_c, 0, 83, 0
3, 362880, Note_on_c, 0, 31, 0
3, 362880, Note_on_c, 0, 72, 96
3, 362880, Note_on_c, 0, 76, 96
3, 362880, Note_on_c, 0, 79, 96
3, 362880, Note_on_c, 0, 84, 96
3, 362880, Control_c, 0, 64, 0
3, 362880, Control_c, 0, 64, 127
3, 362880, Note_on_c, 0, 55, 110
3, 362880, Note_on_c, 0, 60, 110
3, 362880, Note_on_c, 0, 64, 110
3, 363060, Note_on_c, 0, 64, 0
3, 363060, Note_on_c, 0, 60, 0
3, 363060, Note_on_c, 0, 84, 0
3, 363060, Note_on_c, 0, 72, 0
3, 363060, Note_on_c, 0, 76, 0
3, 363060, Note_on_c, 0, 79, 0
3, 363060, Note_on_c, 0, 55, 0
3, 363060, Note_on_c, 0, 71, 83
3, 363060, Note_on_c, 0, 83, 83
3, 363060, Note_on_c, 0, 52, 77
3, 363240, Note_on_c, 0, 52, 0
3, 363240, Note_on_c, 0, 83, 0
3, 363240, Note_on_c, 0, 71, 0
3, 363240, Note_on_c, 0, 69, 83
3, 363240, Note_on_c, 0, 81, 83
3, 363240, Note_on_c, 0, 43, 80
3, 363420, Note_on_c, 0, 43, 0
3, 363420, Note_on_c, 0, 81, 0
3, 363420, Note_on_c, 0, 69, 0
3, 363420, Note_on_c, 0, 67, 84
3, 363420, Note_on_c, 0, 79, 84
3, 363420, Control_c, 0, 64, 0
3, 363420, Note_on_c, 0, 31, 73
3, 363600, Note_on_c, 0, 31, 0
3, 363600, Note_on_c, 0, 79, 0
3, 363600, Note_on_c, 0, 67, 0
3, 363600, Note_on_c, 0, 74, 101
3, 363600, Note_on_c, 0, 86, 101
3, 363600, Note_on_c, 0, 79, 83
3, 363600, Note_on_c, 0, 83, 83
3, 363600, Control_c, 0, 64, 127
3, 363600, Note_on_c, 0, 55, 113
3, 363600, Note_on_c, 0, 59, 113
3, 363600, Note_on_c, 0, 62, 113
3, 363780, Note_on_c, 0, 62, 0
3, 363780, Note_on_c, 0, 59, 0
3, 363780, Note_on_c, 0, 55, 0
3, 363780, Note_on_c, 0, 50, 77
3, 363960, Note_on_c, 0, 50, 0
3, 363960, Note_on_c, 0, 43, 75
3, 364140, Note_on_c, 0, 43, 0
3, 364140, Note_on_c, 0, 31, 74
3, 364320, Note_on_c, 0, 31, 0
3, 364320, Control_c, 0, 64, 0
3, 364320, Control_c, 0, 64, 127
3, 364320, Note_on_c, 0, 43, 96
3, 364500, Note_on_c, 0, 43, 0
3, 364500, Note_on_c, 0, 50, 95
3, 364680, Note_on_c, 0, 50, 0
3, 364680, Note_on_c, 0, 83, 0
3, 364680, Note_on_c, 0, 79, 0
3, 364680, Note_on_c, 0, 81, 80
3, 364680, Note_on_c, 0, 84, 80
3, 364680, Note_on_c, 0, 57, 115
3, 364680, Note_on_c, 0, 60, 115
3, 364860, Note_on_c, 0, 60, 0
3, 364860, Note_on_c, 0, 57, 0
3, 364860, Control_c, 0, 64, 0
3, 364860, Note_on_c, 0, 50, 84
3, 365040, Note_on_c, 0, 50, 0
3, 365040, Note_on_c, 0, 84, 0
3, 365040, Note_on_c, 0, 81, 0
3, 365040, Note_on_c, 0, 79, 73
3, 365040, Note_on_c, 0, 83, 73
3, 365040, Control_c, 0, 64, 127
3, 365040, Note_on_c, 0, 55, 109
3, 365040, Note_on_c, 0, 59, 109
3, 365040, Note_on_c, 0, 62, 109
3, 365220, Note_on_c, 0, 62, 0
3, 365220, Note_on_c, 0, 59, 0
3, 365220, Note_on_c, 0, 55, 0
3, 365220, Note_on_c, 0, 50, 82
3, 365400, Note_on_c, 0, 50, 0
3, 365400, Note_on_c, 0, 86, 0
3, 365400, Note_on_c, 0, 74, 0
3, 365400, Note_on_c, 0, 74, 88
3, 365400, Note_on_c, 0, 86, 88
3, 365400, Note_on_c, 0, 50, 86
3, 365580, Note_on_c, 0, 50, 0
3, 365580, Control_c, 0, 64, 0
3, 365580, Note_on_c, 0, 43, 81
3, 365760, Note_on_c, 0, 43, 0
3, 365760, Note_on_c, 0, 86, 0
3, 365760, Note_on_c, 0, 83, 0
3, 365760, Note_on_c, 0, 74, 0
3, 365760, Note_on_c, 0, 79, 0
3, 365760, Note_on_c, 0, 76, 94
3, 365760, Note_on_c, 0, 88, 94
3, 365760, Note_on_c, 0, 79, 71
3, 365760, Note_on_c, 0, 83, 71
3, 365760, Control_c, 0, 64, 127
3, 365760, Note_on_c, 0, 59, 111
3, 365760, Note_on_c, 0, 67, 111
3, 365940, Note_on_c, 0, 67, 0
3, 365940, Note_on_c, 0, 59, 0
3, 365940, Note_on_c, 0, 55, 80
3, 366120, Note_on_c, 0, 55, 0
3, 366120, Note_on_c, 0, 88, 0
3, 366120, Note_on_c, 0, 76, 0
3, 366120, Note_on_c, 0, 74, 80
3, 366120, Note_on_c, 0, 86, 80
3, 366120, Note_on_c, 0, 59, 109
3, 366120, Note_on_c, 0, 66, 109
3, 366300, Note_on_c, 0, 66, 0
3, 366300, Note_on_c, 0, 86, 0
3, 366300, Note_on_c, 0, 74, 0
3, 366300, Note_on_c, 0, 59, 0
3, 366300, Note_on_c, 0, 76, 91
3, 366300, Note_on_c, 0, 88, 91
3, 366300, Control_c, 0, 64, 0
3, 366300, Note_on_c, 0, 55, 78
3, 366480, Note_on_c, 0, 55, 0
3, 366480, Note_on_c, 0, 83, 0
3, 366480, Note_on_c, 0, 79, 0
3, 366480, Note_on_c, 0, 76, 0
3, 366480, Note_on_c, 0, 88, 0
3, 366480, Note_on_c, 0, 72, 76
3, 366480, Note_on_c, 0, 84, 76
3, 366480, Note_on_c, 0, 79, 64
3, 366480, Control_c, 0, 64, 127
3, 366480, Note_on_c, 0, 60, 108
3, 366480, Note_on_c, 0, 64, 108
3, 366660, Note_on_c, 0, 64, 0
3, 366660, Note_on_c, 0, 60, 0
3, 366660, Note_on_c, 0, 55, 77
3, 366840, Note_on_c, 0, 55, 0
3, 366840, Note_on_c, 0, 55, 84
3, 367020, Note_on_c, 0, 55, 0
3, 367020, Note_on_c, 0, 43, 74
3, 367200, Note_on_c, 0, 43, 0
3, 367200, Control_c, 0, 64, 0
3, 367200, Control_c, 0, 64, 127
3, 367200, Note_on_c, 0, 55, 97
3, 367380, Note_on_c, 0, 55, 0
3, 367380, Note_on_c, 0, 84, 0
3, 367380, Note_on_c, 0, 72, 0
3, 367380, Note_on_c, 0, 74, 92
3, 367380, Note_on_c, 0, 86, 92
3, 367380, Note_on_c, 0, 55, 89
3, 367560, Note_on_c, 0, 55, 0
3, 367560, Note_on_c, 0, 74, 0
3, 367560, Note_on_c, 0, 86, 0
3, 367560, Note_on_c, 0, 79, 0
3, 367560, Note_on_c, 0, 76, 96
3, 367560, Note_on_c, 0, 88, 96
3, 367560, Note_on_c, 0, 79, 84
3, 367560, Note_on_c, 0, 84, 84
3, 367560, Note_on_c, 0, 60, 115
3, 367560, Note_on_c, 0, 64, 115
3, 367560, Note_on_c, 0, 67, 115
3, 367740, Note_on_c, 0, 67, 0
3, 367740, Note_on_c, 0, 64, 0
3, 367740, Note_on_c, 0, 60, 0
3, 367740, Control_c, 0, 64, 0
3, 367740, Note_on_c, 0, 55, 83
3, 367920, Note_on_c, 0, 55, 0
3, 367920, Note_on_c, 0, 84, 0
3, 367920, Note_on_c, 0, 88, 0
3, 367920, Note_on_c, 0, 79, 0
3, 367920, Note_on_c, 0, 76, 0
3, 367920, Note_on_c, 0, 71, 72
3, 367920, Note_on_c, 0, 83, 72
3, 367920, Note_on_c, 0, 76, 63
3, 367920, Note_on_c, 0, 79, 63
3, 367920, Control_c, 0, 64, 127
3, 367920, Note_on_c, 0, 59, 103
3, 367920, Note_on_c, 0, 64, 103
3, 368100, Note_on_c, 0, 64, 0
3, 368100, Note_on_c, 0, 59, 0
3, 368100, Note_on_c, 0, 55, 81
3, 368280, Note_on_c, 0, 55, 0
3, 368280, Note_on_c, 0, 83, 0
3, 368280, Note_on_c, 0, 71, 0
3, 368280, Note_on_c, 0, 76, 94
3, 368280, Note_on_c, 0, 88, 94
3, 368280, Note_on_c, 0, 55, 88
3, 368460, Note_on_c, 0, 55, 0
3, 368460, Control_c, 0, 64, 0
3, 368460, Note_on_c, 0, 43, 74
3, 368640, Note_on_c, 0, 43, 0
3, 368640, Note_on_c, 0, 88, 0
3, 368640, Note_on_c, 0, 79, 0
3, 368640, Note_on_c, 0, 76, 0
3, 368640, Note_on_c, 0, 76, 0
3, 368640, Note_on_c, 0, 79, 68
3, 368640, Note_on_c, 0, 91, 68
3, 368640, Note_on_c, 0, 83, 55
3, 368640, Control_c, 0, 64, 127
3, 368640, Note_on_c, 0, 55, 100
3, 368820, Note_on_c, 0, 55, 0
3, 368820, Note_on_c, 0, 55, 88
3, 369000, Note_on_c, 0, 55, 0
3, 369000, Note_on_c, 0, 91, 0
3, 369000, Note_on_c, 0, 79, 0
3, 369000, Note_on_c, 0, 78, 81
3, 369000, Note_on_c, 0, 90, 81
3, 369000, Note_on_c, 0, 59, 107
3, 369000, Note_on_c, 0, 64, 107
3, 369180, Note_on_c, 0, 64, 0
3, 369180, Note_on_c, 0, 90, 0
3, 369180, Note_on_c, 0, 78, 0
3, 369180, Note_on_c, 0, 59, 0
3, 369180, Note_on_c, 0, 79, 93
3, 369180, Note_on_c, 0, 91, 93
3, 369180, Note_on_c, 0, 55, 79
3, 369360, Note_on_c, 0, 55, 0
3, 369360, Note_on_c, 0, 79, 0
3, 369360, Note_on_c, 0, 91, 0
3, 369360, Note_on_c, 0, 83, 0
3, 369360, Note_on_c, 0, 76, 79
3, 369360, Note_on_c, 0, 88, 79
3, 369360, Note_on_c, 0, 84, 74
3, 369360, Control_c, 0, 64, 0
3, 369360, Note_on_c, 0, 33, 62
3, 369360, Note_on_c, 0, 45, 62
3, 369540, Note_on_c, 0, 55, 78
3, 369720, Note_on_c, 0, 55, 0
3, 369720, Note_on_c, 0, 60, 113
3, 369720, Note_on_c, 0, 67, 113
3, 369900, Note_on_c, 0, 67, 0
3, 369900, Note_on_c, 0, 60, 0
3, 369900, Note_on_c, 0, 60, 78
3, 370080, Note_on_c, 0, 60, 0
3, 370080, Note_on_c, 0, 67, 111
3, 370080, Note_on_c, 0, 72, 111
3, 370260, Note_on_c, 0, 72, 0
3, 370260, Note_on_c, 0, 67, 0
3, 370260, Note_on_c, 0, 88, 0
3, 370260, Note_on_c, 0, 76, 0
3, 370260, Note_on_c, 0, 78, 96
3, 370260, Note_on_c, 0, 90, 96
3, 370260, Note_on_c, 0, 60, 67
3, 370440, Note_on_c, 0, 60, 0
3, 370440, Note_on_c, 0, 78, 0
3, 370440, Note_on_c, 0, 84, 0
3, 370440, Note_on_c, 0, 90, 0
3, 370440, Note_on_c, 0, 79, 91
3, 370440, Note_on_c, 0, 91, 91
3, 370440, Note_on_c, 0, 84, 70
3, 370440, Note_on_c, 0, 60, 96
3, 370440, Note_on_c, 0, 67, 96
3, 370620, Note_on_c, 0, 67, 0
3, 370620, Note_on_c, 0, 60, 0
3, 370620, Note_on_c, 0, 55, 77
3, 370800, Note_on_c, 0, 55, 0
3, 370800, Note_on_c, 0, 84, 0
3, 370800, Note_on_c, 0, 33, 0
3, 370800, Note_on_c, 0, 45, 0
3, 370800, Note_on_c, 0, 79, 0
3, 370800, Note_on_c, 0, 91, 0
3, 370800, Note_on_c, 0, 74, 75
3, 370800, Note_on_c, 0, 86, 75
3, 370800, Note_on_c, 0, 79, 63
3, 370800, Note_on_c, 0, 35, 72
3, 370800, Note_on_c, 0, 47, 72
3, 370980, Note_on_c, 0, 55, 81
3, 371160, Note_on_c, 0, 55, 0
3, 371160, Note_on_c, 0, 74, 0
3, 371160, Note_on_c, 0, 86, 0
3, 371160, Note_on_c, 0, 79, 99
3, 371160, Note_on_c, 0, 91, 99
3, 371160, Note_on_c, 0, 62, 112
3, 371160, Note_on_c, 0, 67, 112
3, 371340, Note_on_c, 0, 67, 0
3, 371340, Note_on_c, 0, 62, 0
3, 371340, Note_on_c, 0, 62, 80
3, 371520, Note_on_c, 0, 62, 0
3, 371520, Note_on_c, 0, 91, 0
3, 371520, Note_on_c, 0, 79, 0
3, 371520, Note_on_c, 0, 79, 0
3, 371520, Note_on_c, 0, 83, 103
3, 371520, Note_on_c, 0, 95, 103
3, 371520, Note_on_c, 0, 86, 83
3, 371520, Note_on_c, 0, 67, 114
3, 371520, Note_on_c, 0, 74, 114
3, 371700, Note_on_c, 0, 74, 0
3, 371700, Note_on_c, 0, 67, 0
3, 371700, Note_on_c, 0, 62, 69
3, 371880, Note_on_c, 0, 62, 0
3, 371880, Note_on_c, 0, 95, 0
3, 371880, Note_on_c, 0, 83, 0
3, 371880, Note_on_c, 0, 81, 80
3, 371880, Note_on_c, 0, 93, 80
3, 371880, Note_on_c, 0, 62, 94
3, 371880, Note_on_c, 0, 67, 94
3, 372060, Note_on_c, 0, 67, 0
3, 372060, Note_on_c, 0, 62, 0
3, 372060, Note_on_c, 0, 81, 0
3, 372060, Note_on_c, 0, 93, 0
3, 372060, Note_on_c, 0, 83, 96
3, 372060, Note_on_c, 0, 95, 96
3, 372060, Note_on_c, 0, 55, 77
3, 372240, Note_on_c, 0, 55, 0
3, 372240, Note_on_c, 0, 83, 0
3, 372240, Note_on_c, 0, 35, 0
3, 372240, Note_on_c, 0, 47, 0
3, 372240, Note_on_c, 0, 86, 0
3, 372240, Note_on_c, 0, 95, 0
3, 372240, Note_on_c, 0, 79, 79
3, 372240, Note_on_c, 0, 91, 79
3, 372240, Note_on_c, 0, 83, 80
3, 372240, Note_on_c, 0, 88, 80
3, 372240, Note_on_c, 0, 37, 77
3, 372240, Note_on_c, 0, 49, 77
3, 372420, Note_on_c, 0, 55, 81
3, 372600, Note_on_c, 0, 55, 0
3, 372600, Note_on_c, 0, 59, 111
3, 372600, Note_on_c, 0, 64, 111
3, 372780, Note_on_c, 0, 64, 0
3, 372780, Note_on_c, 0, 59, 0
3, 372780, Note_on_c, 0, 59, 86
3, 372960, Note_on_c, 0, 59, 0
3, 372960, Note_on_c, 0, 64, 116
3, 372960, Note_on_c, 0, 71, 116
3, 373140, Note_on_c, 0, 71, 0
3, 373140, Note_on_c, 0, 64, 0
3, 373140, Note_on_c, 0, 91, 0
3, 373140, Note_on_c, 0, 79, 0
3, 373140, Note_on_c, 0, 81, 92
3, 373140, Note_on_c, 0, 93, 92
3, 373140, Note_on_c, 0, 59, 81
3, 373320, Note_on_c, 0, 59, 0
3, 373320, Note_on_c, 0, 93, 0
3, 373320, Note_on_c, 0, 88, 0
3, 373320, Note_on_c, 0, 83, 0
3, 373320, Note_on_c, 0, 81, 0
3, 373320, Note_on_c, 0, 83, 106
3, 373320, Note_on_c, 0, 95, 106
3, 373320, Note_on_c, 0, 88, 73
3, 373320, Note_on_c, 0, 59, 102
3, 373320, Note_on_c, 0, 64, 102
3, 373500, Note_on_c, 0, 64, 0
3, 373500, Note_on_c, 0, 59, 0
3, 373500, Note_on_c, 0, 55, 76
3, 373637, Note_on_c, 0, 83, 0
3, 373637, Note_on_c, 0, 95, 0
3, 373680, Note_on_c, 0, 37, 0
3, 373680, Note_on_c, 0, 49, 0
3, 373680, Note_on_c, 0, 88, 0
3, 373680, Note_on_c, 0, 55, 0
3, 373680, Note_on_c, 0, 78, 75
3, 373680, Note_on_c, 0, 90, 75
3, 373680, Note_on_c, 0, 83, 63
3, 373680, Note_on_c, 0, 39, 75
3, 373680, Note_on_c, 0, 51, 75
3, 373860, Note_on_c, 0, 90, 0
3, 373860, Note_on_c, 0, 78, 0
3, 373860, Note_on_c, 0, 79, 88
3, 373860, Note_on_c, 0, 91, 88
3, 373860, Note_on_c, 0, 59, 74
3, 374040, Note_on_c, 0, 59, 0
3, 374040, Note_on_c, 0, 79, 0
3, 374040, Note_on_c, 0, 91, 0
3, 374040, Note_on_c, 0, 81, 112
3, 374040, Note_on_c, 0, 93, 112
3, 374040, Note_on_c, 0, 66, 110
3, 374040, Note_on_c, 0, 69, 110
3, 374040, Note_on_c, 0, 71, 110
3, 374220, Note_on_c, 0, 71, 0
3, 374220, Note_on_c, 0, 69, 0
3, 374220, Note_on_c, 0, 66, 0
3, 374220, Note_on_c, 0, 59, 77
3, 374357, Note_on_c, 0, 81, 0
3, 374357, Note_on_c, 0, 93, 0
3, 374400, Note_on_c, 0, 51, 0
3, 374400, Note_on_c, 0, 83, 0
3, 374400, Note_on_c, 0, 39, 0
3, 374400, Note_on_c, 0, 59, 0
3, 374400, Note_on_c, 0, 76, 75
3, 374400, Note_on_c, 0, 88, 75
3, 374400, Note_on_c, 0, 79, 74
3, 374400, Note_on_c, 0, 83, 74
3, 374400, Note_on_c, 0, 40, 80
3, 374400, Note_on_c, 0, 52, 80
3, 374580, Note_on_c, 0, 55, 82
3, 374760, Note_on_c, 0, 55, 0
3, 374760, Note_on_c, 0, 59, 110
3, 374760, Note_on_c, 0, 64, 110
3, 374940, Note_on_c, 0, 64, 0
3, 374940, Note_on_c, 0, 59, 0
3, 374940, Note_on_c, 0, 59, 84
3, 375120, Note_on_c, 0, 59, 0
3, 375120, Note_on_c, 0, 64, 111
3, 375120, Note_on_c, 0, 71, 111
3, 375300, Note_on_c, 0, 71, 0
3, 375300, Note_on_c, 0, 64, 0
3, 375300, Note_on_c, 0, 88, 0
3, 375300, Note_on_c, 0, 76, 0
3, 375300, Note_on_c, 0, 78, 97
3, 375300, Note_on_c, 0, 90, 97
3, 375300, Note_on_c, 0, 59, 78
3, 375480, Note_on_c, 0, 59, 0
3, 375480, Note_on_c, 0, 90, 0
3, 375480, Note_on_c, 0, 83, 0
3, 375480, Note_on_c, 0, 79, 0
3, 375480, Note_on_c, 0, 78, 0
3, 375480, Note_on_c, 0, 79, 107
3, 375480, Note_on_c, 0, 91, 107
3, 375480, Note_on_c, 0, 83, 72
3, 375480, Note_on_c, 0, 59, 98
3, 375480, Note_on_c, 0, 64, 98
3, 375660, Note_on_c, 0, 64, 0
3, 375660, Note_on_c, 0, 59, 0
3, 375660, Note_on_c, 0, 55, 78
3, 375797, Note_on_c, 0, 79, 0
3, 375797, Note_on_c, 0, 91, 0
3, 375840, Note_on_c, 0, 40, 0
3, 375840, Note_on_c, 0, 52, 0
3, 375840, Note_on_c, 0, 83, 0
3, 375840, Note_on_c, 0, 55, 0
3, 375840, Note_on_c, 0, 75, 76
3, 375840, Note_on_c, 0, 87, 76
3, 375840, Note_on_c, 0, 79, 76
3, 375840, Note_on_c, 0, 84, 76
3, 375840, Note_on_c, 0, 48, 102
3, 375905, Note_on_c, 0, 55, 102
3, 375969, Note_on_c, 0, 63, 102
3, 376020, Note_on_c, 0, 55, 82
3, 376200, Note_on_c, 0, 55, 0
3, 376200, Note_on_c, 0, 60, 92
3, 376380, Note_on_c, 0, 60, 0
3, 376380, Note_on_c, 0, 55, 83
3, 376560, Note_on_c, 0, 55, 0
3, 376560, Note_on_c, 0, 60, 116
3, 376560, Note_on_c, 0, 67, 116
3, 376740, Note_on_c, 0, 67, 0
3, 376740, Note_on_c, 0, 60, 0
3, 376740, Note_on_c, 0, 87, 0
3, 376740, Note_on_c, 0, 75, 0
3, 376740, Note_on_c, 0, 77, 97
3, 376740, Note_on_c, 0, 89, 97
3, 376740, Note_on_c, 0, 55, 78
3, 376920, Note_on_c, 0, 89, 0
3, 376920, Note_on_c, 0, 77, 0
3, 376920, Note_on_c, 0, 55, 0
3, 376920, Note_on_c, 0, 79, 0
3, 376920, Note_on_c, 0, 84, 0
3, 376920, Note_on_c, 0, 79, 108
3, 376920, Note_on_c, 0, 91, 108
3, 376920, Note_on_c, 0, 84, 75
3, 376920, Note_on_c, 0, 60, 98
3, 377100, Note_on_c, 0, 60, 0
3, 377100, Note_on_c, 0, 55, 78
3, 377237, Note_on_c, 0, 91, 0
3, 377237, Note_on_c, 0, 79, 0
3, 377280, Note_on_c, 0, 84, 0
3, 377280, Note_on_c, 0, 55, 0
3, 377280, Note_on_c, 0, 48, 0
3, 377280, Note_on_c, 0, 55, 0
3, 377280, Note_on_c, 0, 63, 0
3, 377280, Note_on_c, 0, 74, 105
3, 377280, Note_on_c, 0, 86, 105
3, 377280, Note_on_c, 0, 79, 91
3, 377280, Note_on_c, 0, 47, 113
3, 377328, Note_on_c, 0, 55, 113
3, 377376, Note_on_c, 0, 62, 113
3, 377460, Note_on_c, 0, 86, 0
3, 377460, Note_on_c, 0, 74, 0
3, 377460, Note_on_c, 0, 75, 98
3, 377460, Note_on_c, 0, 87, 98
3, 377460, Note_on_c, 0, 55, 66
3, 377640, Note_on_c, 0, 87, 0
3, 377640, Note_on_c, 0, 75, 0
3, 377640, Note_on_c, 0, 55, 0
3, 377640, Note_on_c, 0, 77, 105
3, 377640, Note_on_c, 0, 89, 105
3, 377640, Note_on_c, 0, 65, 89
3, 377820, Note_on_c, 0, 65, 0
3, 377820, Note_on_c, 0, 55, 60
3, 377957, Note_on_c, 0, 89, 0
3, 377957, Note_on_c, 0, 77, 0
3, 378000, Note_on_c, 0, 55, 0
3, 378000, Note_on_c, 0, 55, 0
3, 378000, Note_on_c, 0, 47, 0
3, 378000, Note_on_c, 0, 62, 0
3, 378000, Note_on_c, 0, 79, 0
3, 378000, Note_on_c, 0, 72, 75
3, 378000, Note_on_c, 0, 84, 75
3, 378000, Note_on_c, 0, 79, 79
3, 378000, Note_on_c, 0, 45, 99
3, 378000, Note_on_c, 0, 55, 99
3, 378000, Note_on_c, 0, 60, 99
3, 378180, Note_on_c, 0, 84, 0
3, 378180, Note_on_c, 0, 72, 0
3, 378180, Note_on_c, 0, 74, 90
3, 378180, Note_on_c, 0, 86, 90
3, 378180, Note_on_c, 0, 55, 66
3, 378360, Note_on_c, 0, 86, 0
3, 378360, Note_on_c, 0, 74, 0
3, 378360, Note_on_c, 0, 55, 0
3, 378360, Note_on_c, 0, 75, 102
3, 378360, Note_on_c, 0, 87, 102
3, 378360, Note_on_c, 0, 63, 84
3, 378540, Note_on_c, 0, 63, 0
3, 378540, Note_on_c, 0, 55, 68
3, 378633, Note_on_c, 0, 55, 0
3, 378633, Note_on_c, 0, 45, 0
3, 378633, Note_on_c, 0, 60, 0
3, 378677, Note_on_c, 0, 75, 0
3, 378677, Note_on_c, 0, 87, 0
3, 378720, Note_on_c, 0, 55, 0
3, 378720, Note_on_c, 0, 79, 0
3, 378720, Note_on_c, 0, 71, 87
3, 378720, Note_on_c, 0, 83, 87
3, 378720, Note_on_c, 0, 79, 73
3, 378720, Note_on_c, 0, 83, 73
3, 378720, Note_on_c, 0, 38, 73
3, 378720, Note_on_c, 0, 50, 73
3, 378900, Note_on_c, 0, 59, 88
3, 379080, Note_on_c, 0, 59, 0
3, 379080, Note_on_c, 0, 83, 0
3, 379080, Note_on_c, 0, 71, 0
3, 379080, Note_on_c, 0, 74, 89
3, 379080, Note_on_c, 0, 86, 89
3, 379080, Note_on_c, 0, 62, 89
3, 379260, Note_on_c, 0, 62, 0
3, 379260, Note_on_c, 0, 67, 90
3, 379440, Note_on_c, 0, 67, 0
3, 379440, Note_on_c, 0, 71, 92
3, 379620, Note_on_c, 0, 71, 0
3, 379620, Note_on_c, 0, 67, 93
3, 379800, Note_on_c, 0, 67, 0
3, 379800, Note_on_c, 0, 86, 0
3, 379800, Note_on_c, 0, 74, 0
3, 379800, Note_on_c, 0, 79, 94
3, 379800, Note_on_c, 0, 91, 94
3, 379800, Note_on_c, 0, 62, 94
3, 379980, Note_on_c, 0, 62, 0
3, 379980, Note_on_c, 0, 59, 95
3, 380160, Note_on_c, 0, 59, 0
3, 380160, Note_on_c, 0, 91, 0
3, 380160, Note_on_c, 0, 50, 0
3, 380160, Note_on_c, 0, 38, 0
3, 380160, Note_on_c, 0, 79, 0
3, 380160, Note_on_c, 0, 83, 0
3, 380160, Note_on_c, 0, 79, 0
3, 380160, Note_on_c, 0, 83, 96
3, 380160, Note_on_c, 0, 95, 96
3, 380160, Note_on_c, 0, 91, 82
3, 380160, Note_on_c, 0, 62, 96
3, 380340, Note_on_c, 0, 62, 0
3, 380340, Note_on_c, 0, 67, 97
3, 380520, Note_on_c, 0, 67, 0
3, 380520, Note_on_c, 0, 95, 0
3, 380520, Note_on_c, 0, 83, 0
3, 380520, Note_on_c, 0, 86, 98
3, 380520, Note_on_c, 0, 98, 98
3, 380520, Note_on_c, 0, 71, 98
3, 380700, Note_on_c, 0, 71, 0
3, 380700, Note_on_c, 0, 74, 99
3, 380880, Note_on_c, 0, 74, 0
3, 380880, Note_on_c, 0, 98, 0
3, 380880, Note_on_c, 0, 86, 0
3, 380880, Note_on_c, 0, 91, 0
3, 380880, Note_on_c, 0, 88, 117
3, 380880, Note_on_c, 0, 100, 117
3, 380880, Note_on_c, 0, 92, 95
3, 380880, Note_on_c, 0, 95, 95
3, 380880, Note_on_c, 0, 59, 117
3, 380945, Note_on_c, 0, 64, 117
3, 381009, Note_on_c, 0, 68, 117
3, 381074, Note_on_c, 0, 74, 117
3, 381139, Note_on_c, 0, 76, 117
3, 381240, Note_on_c, 0, 76, 0
3, 381240, Note_on_c, 0, 74, 0
3, 381240, Note_on_c, 0, 64, 0
3, 381240, Note_on_c, 0, 68, 0
3, 381240, Note_on_c, 0, 100, 0
3, 381240, Note_on_c, 0, 88, 0
3, 381240, Note_on_c, 0, 59, 0
3, 381240, Note_on_c, 0, 86, 117
3, 381240, Note_on_c, 0, 98, 117
3, 381240, Note_on_c, 0, 74, 117
3, 381509, Note_on_c, 0, 74, 0
3, 381509, Note_on_c, 0, 38, 88
3, 381509, Note_on_c, 0, 50, 88
3, 381600, Note_on_c, 0, 50, 0
3, 381600, Note_on_c, 0, 95, 0
3, 381600, Note_on_c, 0, 98, 0
3, 381600, Note_on_c, 0, 92, 0
3, 381600, Note_on_c, 0, 86, 0
3, 381600, Note_on_c, 0, 38, 0
3, 381600, Note_on_c, 0, 83, 115
3, 381600, Note_on_c, 0, 95, 115
3, 381600, Note_on_c, 0, 88, 78
3, 381600, Note_on_c, 0, 91, 78
3, 381600, Note_on_c, 0, 60, 117
3, 381600, Note_on_c, 0, 64, 117
3, 381600, Note_on_c, 0, 67, 117
3, 381600, Note_on_c, 0, 71, 117
3, 381839, Note_on_c, 0, 71, 0
3, 381839, Note_on_c, 0, 67, 0
3, 381839, Note_on_c, 0, 64, 0
3, 381839, Note_on_c, 0, 60, 0
3, 381839, Note_on_c, 0, 60, 76
3, 381960, Note_on_c, 0, 60, 0
3, 381960, Note_on_c, 0, 95, 0
3, 381960, Note_on_c, 0, 83, 0
3, 381960, Note_on_c, 0, 81, 93
3, 381960, Note_on_c, 0, 93, 93
3, 381960, Note_on_c, 0, 64, 110
3, 382080, Note_on_c, 0, 64, 0
3, 382080, Note_on_c, 0, 67, 110
3, 382199, Note_on_c, 0, 67, 0
3, 382199, Note_on_c, 0, 69, 114
3, 382320, Note_on_c, 0, 69, 0
3, 382320, Note_on_c, 0, 88, 0
3, 382320, Note_on_c, 0, 91, 0
3, 382320, Note_on_c, 0, 81, 0
3, 382320, Note_on_c, 0, 93, 0
3, 382320, Note_on_c, 0, 79, 116
3, 382320, Note_on_c, 0, 91, 116
3, 382320, Note_on_c, 0, 84, 75
3, 382320, Note_on_c, 0, 88, 75
3, 382320, Note_on_c, 0, 71, 106
3, 382440, Note_on_c, 0, 71, 0
3, 382440, Note_on_c, 0, 69, 98
3, 382559, Note_on_c, 0, 69, 0
3, 382559, Note_on_c, 0, 67, 97
3, 382680, Note_on_c, 0, 67, 0
3, 382680, Note_on_c, 0, 79, 0
3, 382680, Note_on_c, 0, 91, 0
3, 382680, Note_on_c, 0, 84, 0
3, 382680, Note_on_c, 0, 88, 0
3, 382680, Note_on_c, 0, 76, 116
3, 382680, Note_on_c, 0, 88, 116
3, 382680, Note_on_c, 0, 79, 79
3, 382680, Note_on_c, 0, 84, 79
3, 382680, Note_on_c, 0, 64, 88
3, 382800, Note_on_c, 0, 64, 0
3, 382800, Note_on_c, 0, 62, 93
3, 382919, Note_on_c, 0, 62, 0
3, 382919, Note_on_c, 0, 60, 98
3, 383040, Note_on_c, 0, 60, 0
3, 383040, Note_on_c, 0, 76, 0
3, 383040, Note_on_c, 0, 88, 0
3, 383040, Note_on_c, 0, 79, 0
3, 383040, Note_on_c, 0, 84, 0
3, 383040, Note_on_c, 0, 71, 117
3, 383040, Note_on_c, 0, 83, 117
3, 383040, Note_on_c, 0, 79, 100
3, 383040, Note_on_c, 0, 67, 116
3, 383160, Note_on_c, 0, 67, 0
3, 383160, Note_on_c, 0, 64, 95
3, 383279, Note_on_c, 0, 64, 0
3, 383279, Note_on_c, 0, 62, 96
3, 383400, Note_on_c, 0, 62, 0
3, 383400, Note_on_c, 0, 83, 0
3, 383400, Note_on_c, 0, 71, 0
3, 383400, Note_on_c, 0, 72, 111
3, 383400, Note_on_c, 0, 84, 111
3, 383400, Note_on_c, 0, 60, 96
3, 383520, Note_on_c, 0, 60, 0
3, 383520, Note_on_c, 0, 59, 97
3, 383639, Note_on_c, 0, 59, 0
3, 383639, Note_on_c, 0, 57, 101
3, 383760, Note_on_c, 0, 57, 0
3, 383760, Note_on_c, 0, 72, 0
3, 383760, Note_on_c, 0, 84, 0
3, 383760, Note_on_c, 0, 79, 0
3, 383760, Note_on_c, 0, 76, 117
3, 383760, Note_on_c, 0, 88, 117
3, 383760, Note_on_c, 0, 84, 99
3, 383760, Note_on_c, 0, 60, 113
3, 383880, Note_on_c, 0, 60, 0
3, 383880, Note_on_c, 0, 59, 96
3, 383999, Note_on_c, 0, 59, 0
3, 383999, Note_on_c, 0, 57, 101
3, 384120, Note_on_c, 0, 57, 0
3, 384120, Note_on_c, 0, 88, 0
3, 384120, Note_on_c, 0, 84, 0
3, 384120, Note_on_c, 0, 76, 0
3, 384120, Note_on_c, 0, 78, 117
3, 384120, Note_on_c, 0, 90, 117
3, 384120, Note_on_c, 0, 84, 84
3, 384120, Note_on_c, 0, 57, 98
3, 384240, Note_on_c, 0, 57, 0
3, 384240, Note_on_c, 0, 52, 94
3, 384359, Note_on_c, 0, 52, 0
3, 384359, Note_on_c, 0, 50, 100
3, 384480, Note_on_c, 0, 50, 0
3, 384480, Note_on_c, 0, 90, 0
3, 384480, Note_on_c, 0, 84, 0
3, 384480, Note_on_c, 0, 78, 0
3, 384480, Note_on_c, 0, 79, 117
3, 384480, Note_on_c, 0, 83, 117
3, 384480, Note_on_c, 0, 86, 117
3, 384480, Note_on_c, 0, 91, 117
3, 384480, Note_on_c, 0, 43, 117
3, 384480, Note_on_c, 0, 47, 117
3, 384480, Note_on_c, 0, 50, 117
3, 384480, Note_on_c, 0, 55, 117
3, 384840, Note_on_c, 0, 55, 0
3, 384840, Note_on_c, 0, 86, 0
3, 384840, Note_on_c, 0, 50, 0
3, 384840, Note_on_c, 0, 91, 0
3, 384840, Note_on_c, 0, 79, 0
3, 384840, Note_on_c, 0, 83, 0
3, 384840, Note_on_c, 0, 47, 0
3, 384840, Note_on_c, 0, 43, 0
3, 384840, Note_on_c, 0, 67, 73
3, 384840, Note_on_c, 0, 43, 102
3, 384840, Note_on_c, 0, 55, 102
3, 384960, Note_on_c, 0, 67, 0
3, 384960, Note_on_c, 0, 69, 102
3, 385079, Note_on_c, 0, 69, 0
3, 385079, Note_on_c, 0, 71, 108
3, 385200, Note_on_c, 0, 71, 0
3, 385200, Note_on_c, 0, 55, 0
3, 385200, Note_on_c, 0, 43, 0
3, 385200, Note_on_c, 0, 59, 117
3, 385200, Note_on_c, 0, 67, 117
3, 385200, Note_on_c, 0, 71, 117
3, 385200, Note_on_c, 0, 42, 103
3, 385200, Note_on_c, 0, 54, 103
3, 385560, Note_on_c, 0, 54, 0
3, 385560, Note_on_c, 0, 42, 0
3, 385560, Note_on_c, 0, 43, 103
3, 385560, Note_on_c, 0, 55, 103
3, 385920, Note_on_c, 0, 55, 0
3, 385920, Note_on_c, 0, 43, 0
3, 385920, Note_on_c, 0, 42, 100
3, 385920, Note_on_c, 0, 54, 100
3, 386159, Note_on_c, 0, 71, 0
3, 386159, Note_on_c, 0, 67, 0
3, 386159, Note_on_c, 0, 59, 0
3, 386159, Note_on_c, 0, 74, 111
3, 386280, Note_on_c, 0, 74, 0
3, 386280, Note_on_c, 0, 54, 0
3, 386280, Note_on_c, 0, 42, 0
3, 386280, Note_on_c, 0, 64, 112
3, 386280, Note_on_c, 0, 67, 112
3, 386280, Note_on_c, 0, 71, 112
3, 386280, Note_on_c, 0, 76, 112
3, 386280, Note_on_c, 0, 40, 102
3, 386280, Note_on_c, 0, 52, 102
3, 386640, Note_on_c, 0, 52, 0
3, 386640, Note_on_c, 0, 40, 0
3, 386640, Note_on_c, 0, 38, 98
3, 386640, Note_on_c, 0, 50, 98
3, 386879, Note_on_c, 0, 64, 0
3, 386879, Note_on_c, 0, 71, 0
3, 386879, Note_on_c, 0, 67, 0
3, 386879, Note_on_c, 0, 76, 0
3, 386879, Note_on_c, 0, 78, 112
3, 387000, Note_on_c, 0, 78, 0
3, 387000, Note_on_c, 0, 38, 0
3, 387000, Note_on_c, 0, 50, 0
3, 387000, Note_on_c, 0, 67, 106
3, 387000, Note_on_c, 0, 74, 106
3, 387000, Note_on_c, 0, 79, 106
3, 387000, Note_on_c, 0, 35, 98
3, 387000, Note_on_c, 0, 47, 98
3, 387239, Note_on_c, 0, 79, 0
3, 387239, Note_on_c, 0, 74, 0
3, 387239, Note_on_c, 0, 67, 0
3, 387239, Note_on_c, 0, 81, 108
3, 387360, Note_on_c, 0, 81, 0
3, 387360, Note_on_c, 0, 47, 0
3, 387360, Note_on_c, 0, 35, 0
3, 387360, Note_on_c, 0, 71, 117
3, 387360, Note_on_c, 0, 79, 117
3, 387360, Note_on_c, 0, 83, 117
3, 387360, Note_on_c, 0, 40, 108
3, 387360, Note_on_c, 0, 52, 108
3, 387480, Note_on_c, 0, 83, 0
3, 387480, Note_on_c, 0, 79, 0
3, 387480, Note_on_c, 0, 71, 0
3, 387480, Note_on_c, 0, 59, 89
3, 387599, Note_on_c, 0, 59, 0
3, 387599, Note_on_c, 0, 62, 114
3, 387720, Note_on_c, 0, 62, 0
3, 387720, Note_on_c, 0, 52, 0
3, 387720, Note_on_c, 0, 40, 0
3, 387720, Note_on_c, 0, 67, 117
3, 387720, Note_on_c, 0, 71, 117
3, 387720, Note_on_c, 0, 38, 99
3, 387720, Note_on_c, 0, 50, 99
3, 387840, Note_on_c, 0, 71, 0
3, 387840, Note_on_c, 0, 67, 0
3, 387840, Note_on_c, 0, 62, 80
3, 387959, Note_on_c, 0, 62, 0
3, 387959, Note_on_c, 0, 67, 115
3, 388080, Note_on_c, 0, 67, 0
3, 388080, Note_on_c, 0, 50, 0
3, 388080, Note_on_c, 0, 38, 0
3, 388080, Note_on_c, 0, 71, 117
3, 388080, Note_on_c, 0, 74, 117
3, 388080, Note_on_c, 0, 35, 97
3, 388080, Note_on_c, 0, 47, 97
3, 388200, Note_on_c, 0, 74, 0
3, 388200, Note_on_c, 0, 71, 0
3, 388200, Note_on_c, 0, 67, 82
3, 388319, Note_on_c, 0, 67, 0
3, 388319, Note_on_c, 0, 71, 115
3, 388440, Note_on_c, 0, 71, 0
3, 388440, Note_on_c, 0, 47, 0
3, 388440, Note_on_c, 0, 35, 0
3, 388440, Note_on_c, 0, 74, 117
3, 388440, Note_on_c, 0, 79, 117
3, 388440, Note_on_c, 0, 31, 98
3, 388440, Note_on_c, 0, 43, 98
3, 388560, Note_on_c, 0, 79, 0
3, 388560, Note_on_c, 0, 74, 0
3, 388560, Note_on_c, 0, 71, 84
3, 388679, Note_on_c, 0, 71, 0
3, 388679, Note_on_c, 0, 74, 112
3, 388800, Note_on_c, 0, 74, 0
3, 388800, Note_on_c, 0, 43, 0
3, 388800, Note_on_c, 0, 31, 0
3, 388800, Note_on_c, 0, 79, 117
3, 388800, Note_on_c, 0, 83, 117
3, 388800, Note_on_c, 0, 26, 73
3, 388800, Note_on_c, 0, 38, 73
3, 388920, Note_on_c, 0, 83, 0
3, 388920, Note_on_c, 0, 79, 0
3, 388920, Note_on_c, 0, 76, 86
3, 389039, Note_on_c, 0, 76, 0
3, 389039, Note_on_c, 0, 79, 110
3, 389160, Note_on_c, 0, 79, 0
3, 389160, Note_on_c, 0, 76, 117
3, 389160, Note_on_c, 0, 79, 117
3, 389160, Note_on_c, 0, 83, 117
3, 389160, Note_on_c, 0, 88, 117
3, 389160, Note_on_c, 0, 61, 117
3, 389160, Note_on_c, 0, 64, 117
3, 389160, Note_on_c, 0, 67, 117
3, 389160, Note_on_c, 0, 71, 117
3, 389880, Note_on_c, 0, 71, 0
3, 389880, Note_on_c, 0, 61, 0
3, 389880, Note_on_c, 0, 67, 0
3, 389880, Note_on_c, 0, 88, 0
3, 389880, Note_on_c, 0, 76, 0
3, 389880, Note_on_c, 0, 79, 0
3, 389880, Note_on_c, 0, 64, 0
3, 389880, Note_on_c, 0, 83, 0
3, 389880, Note_on_c, 0, 72, 117
3, 389880, Note_on_c, 0, 74, 117
3, 389880, Note_on_c, 0, 78, 117
3, 389880, Note_on_c, 0, 81, 117
3, 389880, Note_on_c, 0, 86, 117
3, 389880, Note_on_c, 0, 60, 117
3, 389880, Note_on_c, 0, 62, 117
3, 389880, Note_on_c, 0, 66, 117
3, 389880, Note_on_c, 0, 69, 117
3, 390060, Note_on_c, 0, 69, 0
3, 390060, Note_on_c, 0, 62, 0
3, 390060, Note_on_c, 0, 86, 0
3, 390060, Note_on_c, 0, 81, 0
3, 390060, Note_on_c, 0, 72, 0
3, 390060, Note_on_c, 0, 60, 0
3, 390060, Note_on_c, 0, 74, 0
3, 390060, Note_on_c, 0, 78, 0
3, 390060, Note_on_c, 0, 66, 0
3, 390240, Note_on_c, 0, 38, 0
3, 390240, Note_on_c, 0, 26, 0
3, 390240, Note_on_c, 0, 67, 113
3, 390240, Note_on_c, 0, 71, 113
3, 390240, Note_on_c, 0, 74, 113
3, 390240, Note_on_c, 0, 79, 113
3, 390240, Note_on_c, 0, 43, 103
3, 390240, Note_on_c, 0, 50, 103
3, 390240, Note_on_c, 0, 59, 103
3, 390420, Note_on_c, 0, 59, 0
3, 390420, Note_on_c, 0, 50, 0
3, 390420, Note_on_c, 0, 79, 0
3, 390420, Note_on_c, 0, 67, 0
3, 390420, Note_on_c, 0, 71, 0
3, 390420, Note_on_c, 0, 74, 0
3, 390420, Note_on_c, 0, 43, 0
3, 390600, Note_on_c, 0, 31, 99
3, 391233, Note_on_c, 0, 31, 0
3, 391320, Note_on_c, 0, 31, 93
3, 391499, Note_on_c, 0, 31, 0
3, 391680, Note_on_c, 0, 31, 73
3, 391859, Note_on_c, 0, 31, 0
3, 392040, Note_on_c, 0, 31, 73
3, 392673, Note_on_c, 0, 31, 0
3, 392760, Note_on_c, 0, 31, 76
3, 393120, Note_on_c, 0, 67, 45
3, 393120, Note_on_c, 0, 71, 45
3, 393120, Note_on_c, 0, 76, 45
3, 393120, Note_on_c, 0, 79, 45
3, 393120, Note_on_c, 0, 52, 45
3, 393162, Note_on_c, 0, 55, 45
3, 393204, Note_on_c, 0, 59, 45
3, 393247, Note_on_c, 0, 64, 45
3, 393480, Note_on_c, 0, 31, 0
3, 393480, Note_on_c, 0, 31, 76
3, 393840, Note_on_c, 0, 71, 0
3, 393840, Note_on_c, 0, 64, 0
3, 393840, Note_on_c, 0, 55, 0
3, 393840, Note_on_c, 0, 76, 0
3, 393840, Note_on_c, 0, 79, 0
3, 393840, Note_on_c, 0, 67, 0
3, 393840, Note_on_c, 0, 59, 0
3, 393840, Note_on_c, 0, 52, 0
3, 393840, Note_on_c, 0, 66, 45
3, 393840, Note_on_c, 0, 50, 48
3, 393840, Note_on_c, 0, 54, 48
3, 393840, Note_on_c, 0, 59, 48
3, 393840, Note_on_c, 0, 62, 48
3, 393882, Note_on_c, 0, 71, 45
3, 393924, Note_on_c, 0, 74, 45
3, 393967, Note_on_c, 0, 78, 45
3, 394113, Note_on_c, 0, 31, 0
3, 394200, Note_on_c, 0, 31, 61
3, 394920, Note_on_c, 0, 31, 0
3, 394920, Note_on_c, 0, 31, 72
3, 395280, Note_on_c, 0, 74, 0
3, 395280, Note_on_c, 0, 50, 0
3, 395280, Note_on_c, 0, 71, 0
3, 395280, Note_on_c, 0, 54, 0
3, 395280, Note_on_c, 0, 59, 0
3, 395280, Note_on_c, 0, 66, 0
3, 395280, Note_on_c, 0, 78, 0
3, 395280, Note_on_c, 0, 62, 0
3, 395280, Note_on_c, 0, 64, 40
3, 395280, Note_on_c, 0, 52, 43
3, 395280, Note_on_c, 0, 55, 43
3, 395280, Note_on_c, 0, 60, 43
3, 395322, Note_on_c, 0, 67, 40
3, 395364, Note_on_c, 0, 72, 40
3, 395407, Note_on_c, 0, 76, 40
3, 395553, Note_on_c, 0, 31, 0
3, 395640, Note_on_c, 0, 31, 64
3, 396000, Note_on_c, 0, 55, 0
3, 396000, Note_on_c, 0, 76, 0
3, 396000, Note_on_c, 0, 72, 0
3, 396000, Note_on_c, 0, 60, 0
3, 396000, Note_on_c, 0, 64, 0
3, 396000, Note_on_c, 0, 52, 0
3, 396000, Note_on_c, 0, 67, 0
3, 396000, Note_on_c, 0, 64, 49
3, 396000, Note_on_c, 0, 67, 49
3, 396000, Note_on_c, 0, 71, 49
3, 396000, Note_on_c, 0, 76, 49
3, 396000, Note_on_c, 0, 52, 50
3, 396042, Note_on_c, 0, 55, 50
3, 396084, Note_on_c, 0, 59, 50
3, 396360, Note_on_c, 0, 31, 0
3, 396360, Note_on_c, 0, 31, 75
3, 396993, Note_on_c, 0, 31, 0
3, 397080, Note_on_c, 0, 31, 63
3, 397440, Note_on_c, 0, 55, 0
3, 397440, Note_on_c, 0, 71, 0
3, 397440, Note_on_c, 0, 59, 0
3, 397440, Note_on_c, 0, 76, 0
3, 397440, Note_on_c, 0, 64, 0
3, 397440, Note_on_c, 0, 67, 0
3, 397440, Note_on_c, 0, 52, 0
3, 397440, Note_on_c, 0, 62, 46
3, 397440, Note_on_c, 0, 50, 49
3, 397440, Note_on_c, 0, 55, 49
3, 397440, Note_on_c, 0, 59, 49
3, 397482, Note_on_c, 0, 67, 46
3, 397524, Note_on_c, 0, 71, 46
3, 397567, Note_on_c, 0, 74, 46
3, 397800, Note_on_c, 0, 31, 0
3, 397800, Note_on_c, 0, 31, 70
3, 398433, Note_on_c, 0, 31, 0
3, 398520, Note_on_c, 0, 31, 63
3, 398880, Note_on_c, 0, 71, 0
3, 398880, Note_on_c, 0, 55, 0
3, 398880, Note_on_c, 0, 74, 0
3, 398880, Note_on_c, 0, 59, 0
3, 398880, Note_on_c, 0, 62, 0
3, 398880, Note_on_c, 0, 50, 0
3, 398880, Note_on_c, 0, 67, 0
3, 398880, Note_on_c, 0, 60, 51
3, 398880, Note_on_c, 0, 50, 50
3, 398880, Note_on_c, 0, 57, 50
3, 398922, Note_on_c, 0, 62, 51
3, 398964, Note_on_c, 0, 66, 51
3, 399007, Note_on_c, 0, 69, 51
3, 399049, Note_on_c, 0, 74, 51
3, 399240, Note_on_c, 0, 31, 0
3, 399240, Note_on_c, 0, 31, 76
3, 399600, Note_on_c, 0, 57, 0
3, 399600, Note_on_c, 0, 74, 0
3, 399600, Note_on_c, 0, 69, 0
3, 399600, Note_on_c, 0, 62, 0
3, 399600, Note_on_c, 0, 60, 0
3, 399600, Note_on_c, 0, 50, 0
3, 399600, Note_on_c, 0, 66, 0
3, 399600, Note_on_c, 0, 60, 47
3, 399600, Note_on_c, 0, 50, 52
3, 399600, Note_on_c, 0, 57, 52
3, 399642, Note_on_c, 0, 65, 47
3, 399684, Note_on_c, 0, 69, 47
3, 399727, Note_on_c, 0, 72, 47
3, 399873, Note_on_c, 0, 31, 0
3, 399960, Note_on_c, 0, 31, 61
3, 400320, Note_on_c, 0, 72, 0
3, 400320, Note_on_c, 0, 57, 0
3, 400320, Note_on_c, 0, 65, 0
3, 400320, Note_on_c, 0, 60, 0
3, 400320, Note_on_c, 0, 50, 0
3, 400320, Note_on_c, 0, 69, 0
3, 400320, Note_on_c, 0, 60, 50
3, 400320, Note_on_c, 0, 52, 45
3, 400320, Note_on_c, 0, 55, 45
3, 400362, Note_on_c, 0, 64, 50
3, 400404, Note_on_c, 0, 67, 50
3, 400447, Note_on_c, 0, 72, 50
3, 400680, Note_on_c, 0, 31, 0
3, 400680, Note_on_c, 0, 31, 75
3, 401313, Note_on_c, 0, 31, 0
3, 401400, Note_on_c, 0, 31, 58
3, 401760, Note_on_c, 0, 72, 0
3, 401760, Note_on_c, 0, 55, 0
3, 401760, Note_on_c, 0, 64, 0
3, 401760, Note_on_c, 0, 60, 0
3, 401760, Note_on_c, 0, 52, 0
3, 401760, Note_on_c, 0, 67, 0
3, 401760, Note_on_c, 0, 59, 47
3, 401760, Note_on_c, 0, 51, 50
3, 401760, Note_on_c, 0, 55, 50
3, 401802, Note_on_c, 0, 63, 47
3, 401844, Note_on_c, 0, 67, 47
3, 401887, Note_on_c, 0, 71, 47
3, 402120, Note_on_c, 0, 31, 0
3, 402120, Note_on_c, 0, 31, 70
3, 402480, Note_on_c, 0, 71, 0
3, 402480, Note_on_c, 0, 55, 0
3, 402480, Note_on_c, 0, 63, 0
3, 402480, Note_on_c, 0, 59, 0
3, 402480, Note_on_c, 0, 51, 0
3, 402480, Note_on_c, 0, 67, 0
3, 402480, Note_on_c, 0, 59, 46
3, 402480, Note_on_c, 0, 50, 54
3, 402480, Note_on_c, 0, 55, 54
3, 402522, Note_on_c, 0, 62, 46
3, 402564, Note_on_c, 0, 67, 46
3, 402607, Note_on_c, 0, 71, 46
3, 402753, Note_on_c, 0, 31, 0
3, 402840, Note_on_c, 0, 31, 62
3, 403560, Note_on_c, 0, 31, 0
3, 403560, Note_on_c, 0, 31, 69
3, 404193, Note_on_c, 0, 31, 0
3, 404280, Note_on_c, 0, 31, 63
3, 404640, Note_on_c, 0, 71, 0
3, 404640, Note_on_c, 0, 55, 0
3, 404640, Note_on_c, 0, 62, 0
3, 404640, Note_on_c, 0, 59, 0
3, 404640, Note_on_c, 0, 50, 0
3, 404640, Note_on_c, 0, 67, 0
3, 404640, Note_on_c, 0, 57, 50
3, 404640, Note_on_c, 0, 50, 45
3, 404640, Note_on_c, 0, 54, 45
3, 404682, Note_on_c, 0, 62, 50
3, 404724, Note_on_c, 0, 66, 50
3, 404767, Note_on_c, 0, 69, 50
3, 405000, Note_on_c, 0, 31, 0
3, 405000, Note_on_c, 0, 31, 71
3, 405360, Note_on_c, 0, 69, 0
3, 405360, Note_on_c, 0, 54, 0
3, 405360, Note_on_c, 0, 62, 0
3, 405360, Note_on_c, 0, 57, 0
3, 405360, Note_on_c, 0, 50, 0
3, 405360, Note_on_c, 0, 66, 0
3, 405360, Note_on_c, 0, 55, 46
3, 405360, Note_on_c, 0, 52, 53
3, 405402, Note_on_c, 0, 60, 46
3, 405444, Note_on_c, 0, 64, 46
3, 405487, Note_on_c, 0, 67, 46
3, 405633, Note_on_c, 0, 31, 0
3, 405720, Note_on_c, 0, 31, 57
3, 406440, Note_on_c, 0, 31, 0
3, 406440, Note_on_c, 0, 31, 73
3, 406800, Note_on_c, 0, 67, 0
3, 406800, Note_on_c, 0, 60, 0
3, 406800, Note_on_c, 0, 55, 0
3, 406800, Note_on_c, 0, 52, 0
3, 406800, Note_on_c, 0, 64, 0
3, 406800, Note_on_c, 0, 55, 48
3, 406800, Note_on_c, 0, 51, 49
3, 406842, Note_on_c, 0, 57, 48
3, 406884, Note_on_c, 0, 60, 48
3, 406927, Note_on_c, 0, 67, 48
3, 407073, Note_on_c, 0, 31, 0
3, 407160, Note_on_c, 0, 31, 65
3, 407880, Note_on_c, 0, 31, 0
3, 407880, Note_on_c, 0, 31, 74
3, 408240, Note_on_c, 0, 67, 0
3, 408240, Note_on_c, 0, 57, 0
3, 408240, Note_on_c, 0, 55, 0
3, 408240, Note_on_c, 0, 51, 0
3, 408240, Note_on_c, 0, 60, 0
3, 408240, Note_on_c, 0, 55, 51
3, 408240, Note_on_c, 0, 50, 48
3, 408282, Note_on_c, 0, 59, 51
3, 408324, Note_on_c, 0, 62, 51
3, 408367, Note_on_c, 0, 67, 51
3, 408513, Note_on_c, 0, 31, 0
3, 408600, Note_on_c, 0, 31, 63
3, 408960, Note_on_c, 0, 62, 0
3, 408960, Note_on_c, 0, 59, 0
3, 408960, Note_on_c, 0, 55, 0
3, 408960, Note_on_c, 0, 50, 0
3, 408960, Note_on_c, 0, 67, 0
3, 408960, Note_on_c, 0, 55, 51
3, 408960, Note_on_c, 0, 49, 50
3, 409002, Note_on_c, 0, 58, 51
3, 409044, Note_on_c, 0, 64, 51
3, 409087, Note_on_c, 0, 67, 51
3, 409320, Note_on_c, 0, 31, 0
3, 409320, Note_on_c, 0, 31, 74
3, 409953, Note_on_c, 0, 31, 0
3, 410040, Note_on_c, 0, 31, 58
3, 410400, Note_on_c, 0, 67, 0
3, 410400, Note_on_c, 0, 58, 0
3, 410400, Note_on_c, 0, 55, 0
3, 410400, Note_on_c, 0, 49, 0
3, 410400, Note_on_c, 0, 64, 0
3, 410400, Note_on_c, 0, 55, 51
3, 410400, Note_on_c, 0, 49, 48
3, 410442, Note_on_c, 0, 57, 51
3, 410484, Note_on_c, 0, 60, 51
3, 410527, Note_on_c, 0, 63, 51
3, 410569, Note_on_c, 0, 67, 51
3, 410760, Note_on_c, 0, 31, 0
3, 410760, Note_on_c, 0, 31, 72
3, 411393, Note_on_c, 0, 31, 0
3, 411480, Note_on_c, 0, 31, 60
3, 412200, Note_on_c, 0, 31, 0
3, 412200, Note_on_c, 0, 31, 71
3, 412833, Note_on_c, 0, 31, 0
3, 412920, Note_on_c, 0, 31, 64
3, 413280, Note_on_c, 0, 67, 0
3, 413280, Note_on_c, 0, 57, 0
3, 413280, Note_on_c, 0, 60, 0
3, 413280, Note_on_c, 0, 55, 0
3, 413280, Note_on_c, 0, 49, 0
3, 413280, Note_on_c, 0, 63, 0
3, 413280, Note_on_c, 0, 43, 44
3, 413280, Note_on_c, 0, 36, 42
3, 413311, Note_on_c, 0, 45, 44
3, 413342, Note_on_c, 0, 48, 44
3, 413373, Note_on_c, 0, 51, 44
3, 413404, Note_on_c, 0, 55, 44
3, 413640, Note_on_c, 0, 31, 0
3, 413640, Note_on_c, 0, 31, 74
3, 414273, Note_on_c, 0, 31, 0
3, 414360, Note_on_c, 0, 31, 61
3, 414539, Note_on_c, 0, 31, 0
3, 414720, Note_on_c, 0, 31, 58
3, 415080, Note_on_c, 0, 31, 0
3, 415080, Note_on_c, 0, 31, 75
3, 415713, Note_on_c, 0, 31, 0
3, 415800, Note_on_c, 0, 31, 56
3, 415979, Note_on_c, 0, 31, 0
3, 416160, Note_on_c, 0, 55, 0
3, 416160, Note_on_c, 0, 48, 0
3, 416160, Note_on_c, 0, 43, 0
3, 416160, Note_on_c, 0, 36, 0
3, 416160, Note_on_c, 0, 45, 0
3, 416160, Note_on_c, 0, 51, 0
3, 416520, Note_on_c, 0, 55, 44
3, 416520, Note_on_c, 0, 62, 44
3, 416520, Note_on_c, 0, 35, 43
3, 416520, Note_on_c, 0, 47, 43
3, 416609, Note_on_c, 0, 47, 0
3, 416609, Note_on_c, 0, 35, 0
3, 416640, Note_on_c, 0, 62, 0
3, 416640, Note_on_c, 0, 55, 0
3, 416640, Note_on_c, 0, 64, 54
3, 416700, Note_on_c, 0, 33, 49
3, 416700, Note_on_c, 0, 45, 49
3, 416759, Note_on_c, 0, 64, 0
3, 416759, Note_on_c, 0, 62, 42
3, 416789, Note_on_c, 0, 45, 0
3, 416789, Note_on_c, 0, 33, 0
3, 416880, Note_on_c, 0, 62, 0
3, 416880, Note_on_c, 0, 55, 47
3, 416880, Note_on_c, 0, 60, 47
3, 416880, Note_on_c, 0, 33, 61
3, 416880, Note_on_c, 0, 45, 61
3, 417000, Note_on_c, 0, 60, 0
3, 417000, Note_on_c, 0, 55, 0
3, 417000, Note_on_c, 0, 64, 58
3, 417119, Note_on_c, 0, 64, 0
3, 417119, Note_on_c, 0, 67, 57
3, 417197, Note_on_c, 0, 45, 0
3, 417197, Note_on_c, 0, 33, 0
3, 417240, Note_on_c, 0, 67, 0
3, 417240, Note_on_c, 0, 60, 50
3, 417240, Note_on_c, 0, 66, 50
3, 417240, Note_on_c, 0, 38, 55
3, 417240, Note_on_c, 0, 50, 55
3, 417329, Note_on_c, 0, 50, 0
3, 417329, Note_on_c, 0, 38, 0
3, 417360, Note_on_c, 0, 66, 0
3, 417360, Note_on_c, 0, 60, 0
3, 417360, Note_on_c, 0, 69, 53
3, 417420, Note_on_c, 0, 35, 49
3, 417420, Note_on_c, 0, 47, 49
3, 417479, Note_on_c, 0, 69, 0
3, 417479, Note_on_c, 0, 71, 55
3, 417509, Note_on_c, 0, 47, 0
3, 417509, Note_on_c, 0, 35, 0
3, 417600, Note_on_c, 0, 71, 0
3, 417600, Note_on_c, 0, 62, 45
3, 417600, Note_on_c, 0, 67, 45
3, 417600, Note_on_c, 0, 35, 52
3, 417600, Note_on_c, 0, 47, 52
3, 417720, Note_on_c, 0, 67, 0
3, 417720, Note_on_c, 0, 62, 0
3, 417720, Note_on_c, 0, 66, 46
3, 417839, Note_on_c, 0, 66, 0
3, 417839, Note_on_c, 0, 67, 55
3, 417960, Note_on_c, 0, 67, 0
3, 417960, Note_on_c, 0, 47, 0
3, 417960, Note_on_c, 0, 35, 0
3, 417960, Note_on_c, 0, 60, 57
3, 417960, Note_on_c, 0, 69, 57
3, 417960, Note_on_c, 0, 42, 55
3, 417960, Note_on_c, 0, 50, 55
3, 418049, Note_on_c, 0, 50, 0
3, 418049, Note_on_c, 0, 42, 0
3, 418080, Note_on_c, 0, 69, 0
3, 418080, Note_on_c, 0, 60, 0
3, 418080, Note_on_c, 0, 71, 55
3, 418140, Note_on_c, 0, 43, 51
3, 418140, Note_on_c, 0, 50, 51
3, 418199, Note_on_c, 0, 71, 0
3, 418199, Note_on_c, 0, 69, 45
3, 418229, Note_on_c, 0, 50, 0
3, 418229, Note_on_c, 0, 43, 0
3, 418320, Note_on_c, 0, 69, 0
3, 418320, Note_on_c, 0, 59, 56
3, 418320, Note_on_c, 0, 71, 56
3, 418320, Note_on_c, 0, 43, 55
3, 418320, Note_on_c, 0, 50, 55
3, 418440, Note_on_c, 0, 71, 0
3, 418440, Note_on_c, 0, 59, 0
3, 418440, Note_on_c, 0, 66, 43
3, 418559, Note_on_c, 0, 66, 0
3, 418559, Note_on_c, 0, 67, 51
3, 418680, Note_on_c, 0, 67, 0
3, 418680, Note_on_c, 0, 50, 0
3, 418680, Note_on_c, 0, 43, 0
3, 418680, Note_on_c, 0, 69, 52
3, 418680, Note_on_c, 0, 52, 67
3, 418680, Note_on_c, 0, 55, 67
3, 418680, Note_on_c, 0, 60, 67
3, 418769, Note_on_c, 0, 60, 0
3, 418769, Note_on_c, 0, 52, 0
3, 418769, Note_on_c, 0, 55, 0
3, 418800, Note_on_c, 0, 69, 0
3, 418800, Note_on_c, 0, 72, 52
3, 418860, Note_on_c, 0, 47, 59
3, 418860, Note_on_c, 0, 55, 59
3, 418860, Note_on_c, 0, 62, 59
3, 418919, Note_on_c, 0, 72, 0
3, 418919, Note_on_c, 0, 79, 59
3, 418949, Note_on_c, 0, 55, 0
3, 418949, Note_on_c, 0, 62, 0
3, 418949, Note_on_c, 0, 47, 0
3, 419040, Note_on_c, 0, 79, 0
3, 419040, Note_on_c, 0, 74, 46
3, 419040, Note_on_c, 0, 47, 49
3, 419040, Note_on_c, 0, 55, 49
3, 419040, Note_on_c, 0, 62, 49
3, 419160, Note_on_c, 0, 74, 0
3, 419160, Note_on_c, 0, 71, 41
3, 419279, Note_on_c, 0, 71, 0
3, 419279, Note_on_c, 0, 67, 42
3, 419400, Note_on_c, 0, 67, 0
3, 419400, Note_on_c, 0, 55, 0
3, 419400, Note_on_c, 0, 62, 0
3, 419400, Note_on_c, 0, 47, 0
3, 419400, Note_on_c, 0, 59, 50
3, 419400, Note_on_c, 0, 64, 50
3, 419400, Note_on_c, 0, 67, 50
3, 419400, Note_on_c, 0, 40, 50
3, 419400, Note_on_c, 0, 52, 50
3, 419489, Note_on_c, 0, 52, 0
3, 419489, Note_on_c, 0, 40, 0
3, 419520, Note_on_c, 0, 64, 0
3, 419520, Note_on_c, 0, 67, 0
3, 419520, Note_on_c, 0, 59, 0
3, 419520, Note_on_c, 0, 66, 51
3, 419580, Note_on_c, 0, 42, 51
3, 419580, Note_on_c, 0, 50, 51
3, 419639, Note_on_c, 0, 66, 0
3, 419639, Note_on_c, 0, 67, 52
3, 419669, Note_on_c, 0, 50, 0
3, 419669, Note_on_c, 0, 42, 0
3, 419760, Note_on_c, 0, 67, 0
3, 419760, Note_on_c, 0, 57, 52
3, 419760, Note_on_c, 0, 62, 52
3, 419760, Note_on_c, 0, 69, 52
3, 419760, Note_on_c, 0, 42, 52
3, 419760, Note_on_c, 0, 50, 52
3, 419880, Note_on_c, 0, 69, 0
3, 419880, Note_on_c, 0, 62, 0
3, 419880, Note_on_c, 0, 57, 0
3, 419880, Note_on_c, 0, 64, 53
3, 419999, Note_on_c, 0, 64, 0
3, 419999, Note_on_c, 0, 62, 53
3, 420120, Note_on_c, 0, 62, 0
3, 420120, Note_on_c, 0, 50, 0
3, 420120, Note_on_c, 0, 42, 0
3, 420120, Note_on_c, 0, 67, 54
3, 420120, Note_on_c, 0, 71, 54
3, 420120, Note_on_c, 0, 43, 54
3, 420120, Note_on_c, 0, 55, 54
3, 420209, Note_on_c, 0, 55, 0
3, 420209, Note_on_c, 0, 43, 0
3, 420240, Note_on_c, 0, 71, 0
3, 420240, Note_on_c, 0, 67, 0
3, 420240, Note_on_c, 0, 69, 54
3, 420300, Note_on_c, 0, 40, 55
3, 420300, Note_on_c, 0, 52, 55
3, 420359, Note_on_c, 0, 69, 0
3, 420359, Note_on_c, 0, 71, 55
3, 420389, Note_on_c, 0, 52, 0
3, 420389, Note_on_c, 0, 40, 0
3, 420480, Note_on_c, 0, 71, 0
3, 420480, Note_on_c, 0, 60, 55
3, 420480, Note_on_c, 0, 67, 55
3, 420480, Note_on_c, 0, 72, 55
3, 420480, Note_on_c, 0, 40, 56
3, 420480, Note_on_c, 0, 52, 56
3, 420600, Note_on_c, 0, 72, 0
3, 420600, Note_on_c, 0, 67, 0
3, 420600, Note_on_c, 0, 60, 0
3, 420600, Note_on_c, 0, 69, 56
3, 420719, Note_on_c, 0, 69, 0
3, 420719, Note_on_c, 0, 67, 56
3, 420840, Note_on_c, 0, 67, 0
3, 420840, Note_on_c, 0, 52, 0
3, 420840, Note_on_c, 0, 40, 0
3, 420840, Note_on_c, 0, 67, 57
3, 420840, Note_on_c, 0, 74, 57
3, 420840, Note_on_c, 0, 47, 57
3, 420840, Note_on_c, 0, 55, 57
3, 420840, Note_on_c, 0, 62, 57
3, 420960, Note_on_c, 0, 74, 0
3, 420960, Note_on_c, 0, 67, 0
3, 420960, Note_on_c, 0, 72, 57
3, 421020, Note_on_c, 0, 47, 0
3, 421020, Note_on_c, 0, 55, 0
3, 421020, Note_on_c, 0, 62, 0
3, 421079, Note_on_c, 0, 72, 0
3, 421079, Note_on_c, 0, 74, 58
3, 421200, Note_on_c, 0, 74, 0
3, 421200, Note_on_c, 0, 67, 58
3, 421200, Note_on_c, 0, 76, 58
3, 421200, Note_on_c, 0, 48, 59
3, 421200, Note_on_c, 0, 55, 59
3, 421200, Note_on_c, 0, 64, 59
3, 421320, Note_on_c, 0, 76, 0
3, 421320, Note_on_c, 0, 67, 0
3, 421320, Note_on_c, 0, 74, 59
3, 421380, Note_on_c, 0, 48, 0
3, 421380, Note_on_c, 0, 55, 0
3, 421380, Note_on_c, 0, 64, 0
3, 421439, Note_on_c, 0, 74, 0
3, 421439, Note_on_c, 0, 72, 59
3, 421560, Note_on_c, 0, 72, 0
3, 421560, Note_on_c, 0, 71, 60
3, 421560, Note_on_c, 0, 78, 60
3, 421560, Note_on_c, 0, 51, 61
3, 421560, Note_on_c, 0, 59, 61
3, 421560, Note_on_c, 0, 66, 61
3, 421680, Note_on_c, 0, 78, 0
3, 421680, Note_on_c, 0, 71, 0
3, 421680, Note_on_c, 0, 72, 61
3, 421740, Note_on_c, 0, 51, 0
3, 421740, Note_on_c, 0, 59, 0
3, 421740, Note_on_c, 0, 66, 0
3, 421799, Note_on_c, 0, 72, 0
3, 421799, Note_on_c, 0, 71, 61
3, 421920, Note_on_c, 0, 71, 0
3, 421920, Note_on_c, 0, 71, 62
3, 421920, Note_on_c, 0, 79, 62
3, 421920, Note_on_c, 0, 52, 62
3, 421920, Note_on_c, 0, 59, 62
3, 421920, Note_on_c, 0, 67, 62
3, 422040, Note_on_c, 0, 79, 0
3, 422040, Note_on_c, 0, 71, 0
3, 422040, Note_on_c, 0, 76, 62
3, 422100, Note_on_c, 0, 52, 0
3, 422100, Note_on_c, 0, 59, 0
3, 422100, Note_on_c, 0, 67, 0
3, 422159, Note_on_c, 0, 76, 0
3, 422159, Note_on_c, 0, 79, 63
3, 422280, Note_on_c, 0, 79, 0
3, 422280, Note_on_c, 0, 79, 99
3, 422280, Note_on_c, 0, 84, 99
3, 422280, Note_on_c, 0, 38, 76
3, 422280, Note_on_c, 0, 50, 76
3, 422400, Note_on_c, 0, 84, 0
3, 422400, Note_on_c, 0, 79, 0
3, 422400, Note_on_c, 0, 72, 65
3, 422460, Note_on_c, 0, 50, 0
3, 422460, Note_on_c, 0, 38, 0
3, 422460, Note_on_c, 0, 52, 112
3, 422460, Note_on_c, 0, 55, 112
3, 422460, Note_on_c, 0, 60, 112
3, 422519, Note_on_c, 0, 72, 0
3, 422519, Note_on_c, 0, 79, 109
3, 422519, Note_on_c, 0, 84, 109
3, 422640, Note_on_c, 0, 84, 0
3, 422640, Note_on_c, 0, 52, 0
3, 422640, Note_on_c, 0, 60, 0
3, 422640, Note_on_c, 0, 55, 0
3, 422640, Note_on_c, 0, 79, 0
3, 422640, Note_on_c, 0, 81, 97
3, 422640, Note_on_c, 0, 84, 97
3, 422640, Note_on_c, 0, 86, 97
3, 422640, Note_on_c, 0, 54, 110
3, 422640, Note_on_c, 0, 57, 110
3, 422640, Note_on_c, 0, 62, 110
3, 422760, Note_on_c, 0, 86, 0
3, 422760, Note_on_c, 0, 84, 0
3, 422760, Note_on_c, 0, 81, 0
3, 422760, Note_on_c, 0, 74, 63
3, 422879, Note_on_c, 0, 74, 0
3, 422879, Note_on_c, 0, 81, 108
3, 422879, Note_on_c, 0, 84, 108
3, 422879, Note_on_c, 0, 86, 108
3, 422957, Note_on_c, 0, 62, 0
3, 422957, Note_on_c, 0, 54, 0
3, 422957, Note_on_c, 0, 57, 0
3, 423000, Note_on_c, 0, 81, 0
3, 423000, Note_on_c, 0, 86, 0
3, 423000, Note_on_c, 0, 84, 0
3, 423000, Note_on_c, 0, 71, 70
3, 423000, Note_on_c, 0, 74, 70
3, 423000, Note_on_c, 0, 76, 70
3, 423000, Note_on_c, 0, 55, 105
3, 423000, Note_on_c, 0, 59, 105
3, 423000, Note_on_c, 0, 62, 105
3, 423120, Note_on_c, 0, 76, 0
3, 423120, Note_on_c, 0, 74, 0
3, 423120, Note_on_c, 0, 71, 0
3, 423120, Note_on_c, 0, 64, 58
3, 423239, Note_on_c, 0, 64, 0
3, 423239, Note_on_c, 0, 71, 114
3, 423239, Note_on_c, 0, 74, 114
3, 423239, Note_on_c, 0, 76, 114
3, 423317, Note_on_c, 0, 62, 0
3, 423317, Note_on_c, 0, 55, 0
3, 423317, Note_on_c, 0, 59, 0
3, 423360, Note_on_c, 0, 71, 0
3, 423360, Note_on_c, 0, 76, 0
3, 423360, Note_on_c, 0, 74, 0
3, 423360, Note_on_c, 0, 72, 93
3, 423360, Note_on_c, 0, 78, 93
3, 423360, Note_on_c, 0, 57, 100
3, 423360, Note_on_c, 0, 60, 100
3, 423360, Note_on_c, 0, 62, 100
3, 423480, Note_on_c, 0, 78, 0
3, 423480, Note_on_c, 0, 72, 0
3, 423480, Note_on_c, 0, 66, 65
3, 423599, Note_on_c, 0, 66, 0
3, 423599, Note_on_c, 0, 72, 113
3, 423599, Note_on_c, 0, 78, 113
3, 423677, Note_on_c, 0, 60, 0
3, 423677, Note_on_c, 0, 57, 0
3, 423677, Note_on_c, 0, 62, 0
3, 423720, Note_on_c, 0, 78, 0
3, 423720, Note_on_c, 0, 72, 0
3, 423720, Note_on_c, 0, 74, 103
3, 423720, Note_on_c, 0, 79, 103
3, 423720, Note_on_c, 0, 55, 102
3, 423720, Note_on_c, 0, 59, 102
3, 423720, Note_on_c, 0, 62, 102
3, 423840, Note_on_c, 0, 79, 0
3, 423840, Note_on_c, 0, 74, 0
3, 423840, Note_on_c, 0, 67, 61
3, 423959, Note_on_c, 0, 67, 0
3, 423959, Note_on_c, 0, 74, 109
3, 423959, Note_on_c, 0, 79, 109
3, 424037, Note_on_c, 0, 59, 0
3, 424037, Note_on_c, 0, 55, 0
3, 424037, Note_on_c, 0, 62, 0
3, 424080, Note_on_c, 0, 79, 0
3, 424080, Note_on_c, 0, 74, 0
3, 424080, Note_on_c, 0, 74, 98
3, 424080, Note_on_c, 0, 81, 98
3, 424080, Note_on_c, 0, 54, 98
3, 424080, Note_on_c, 0, 57, 98
3, 424080, Note_on_c, 0, 62, 98
3, 424200, Note_on_c, 0, 81, 0
3, 424200, Note_on_c, 0, 74, 0
3, 424200, Note_on_c, 0, 69, 62
3, 424319, Note_on_c, 0, 69, 0
3, 424319, Note_on_c, 0, 74, 110
3, 424319, Note_on_c, 0, 81, 110
3, 424397, Note_on_c, 0, 57, 0
3, 424397, Note_on_c, 0, 54, 0
3, 424397, Note_on_c, 0, 62, 0
3, 424440, Note_on_c, 0, 81, 0
3, 424440, Note_on_c, 0, 74, 0
3, 424440, Note_on_c, 0, 81, 105
3, 424440, Note_on_c, 0, 86, 105
3, 424440, Note_on_c, 0, 38, 75
3, 424440, Note_on_c, 0, 50, 75
3, 424560, Note_on_c, 0, 86, 0
3, 424560, Note_on_c, 0, 81, 0
3, 424560, Note_on_c, 0, 74, 66
3, 424620, Note_on_c, 0, 50, 0
3, 424620, Note_on_c, 0, 38, 0
3, 424620, Note_on_c, 0, 53, 110
3, 424620, Note_on_c, 0, 57, 110
3, 424620, Note_on_c, 0, 62, 110
3, 424679, Note_on_c, 0, 74, 0
3, 424679, Note_on_c, 0, 81, 109
3, 424679, Note_on_c, 0, 86, 109
3, 424800, Note_on_c, 0, 86, 0
3, 424800, Note_on_c, 0, 53, 0
3, 424800, Note_on_c, 0, 62, 0
3, 424800, Note_on_c, 0, 57, 0
3, 424800, Note_on_c, 0, 81, 0
3, 424800, Note_on_c, 0, 80, 99
3, 424800, Note_on_c, 0, 83, 99
3, 424800, Note_on_c, 0, 88, 99
3, 424800, Note_on_c, 0, 52, 113
3, 424800, Note_on_c, 0, 56, 113
3, 424800, Note_on_c, 0, 59, 113
3, 424800, Note_on_c, 0, 64, 113
3, 424920, Note_on_c, 0, 88, 0
3, 424920, Note_on_c, 0, 83, 0
3, 424920, Note_on_c, 0, 80, 0
3, 424920, Note_on_c, 0, 76, 63
3, 425039, Note_on_c, 0, 76, 0
3, 425039, Note_on_c, 0, 80, 113
3, 425039, Note_on_c, 0, 83, 113
3, 425039, Note_on_c, 0, 88, 113
3, 425117, Note_on_c, 0, 59, 0
3, 425117, Note_on_c, 0, 64, 0
3, 425117, Note_on_c, 0, 52, 0
3, 425117, Note_on_c, 0, 56, 0
3, 425160, Note_on_c, 0, 83, 0
3, 425160, Note_on_c, 0, 88, 0
3, 425160, Note_on_c, 0, 80, 0
3, 425160, Note_on_c, 0, 69, 87
3, 425160, Note_on_c, 0, 76, 87
3, 425160, Note_on_c, 0, 78, 87
3, 425160, Note_on_c, 0, 60, 87
3, 425160, Note_on_c, 0, 64, 87
3, 425280, Note_on_c, 0, 78, 0
3, 425280, Note_on_c, 0, 76, 0
3, 425280, Note_on_c, 0, 69, 0
3, 425280, Note_on_c, 0, 66, 88
3, 425399, Note_on_c, 0, 66, 0
3, 425399, Note_on_c, 0, 69, 89
3, 425399, Note_on_c, 0, 76, 89
3, 425399, Note_on_c, 0, 78, 89
3, 425477, Note_on_c, 0, 64, 0
3, 425477, Note_on_c, 0, 60, 0
3, 425520, Note_on_c, 0, 69, 0
3, 425520, Note_on_c, 0, 76, 0
3, 425520, Note_on_c, 0, 78, 0
3, 425520, Note_on_c, 0, 71, 89
3, 425520, Note_on_c, 0, 76, 89
3, 425520, Note_on_c, 0, 80, 89
3, 425520, Note_on_c, 0, 59, 89
3, 425520, Note_on_c, 0, 62, 89
3, 425520, Note_on_c, 0, 64, 89
3, 425640, Note_on_c, 0, 80, 0
3, 425640, Note_on_c, 0, 76, 0
3, 425640, Note_on_c, 0, 71, 0
3, 425640, Note_on_c, 0, 68, 90
3, 425759, Note_on_c, 0, 68, 0
3, 425759, Note_on_c, 0, 71, 91
3, 425759, Note_on_c, 0, 76, 91
3, 425759, Note_on_c, 0, 80, 91
3, 425837, Note_on_c, 0, 64, 0
3, 425837, Note_on_c, 0, 59, 0
3, 425837, Note_on_c, 0, 62, 0
3, 425880, Note_on_c, 0, 71, 0
3, 425880, Note_on_c, 0, 80, 0
3, 425880, Note_on_c, 0, 76, 0
3, 425880, Note_on_c, 0, 72, 92
3, 425880, Note_on_c, 0, 76, 92
3, 425880, Note_on_c, 0, 81, 92
3, 425880, Note_on_c, 0, 57, 92
3, 425880, Note_on_c, 0, 60, 92
3, 425880, Note_on_c, 0, 64, 92
3, 426000, Note_on_c, 0, 81, 0
3, 426000, Note_on_c, 0, 76, 0
3, 426000, Note_on_c, 0, 72, 0
3, 426000, Note_on_c, 0, 69, 92
3, 426119, Note_on_c, 0, 69, 0
3, 426119, Note_on_c, 0, 72, 93
3, 426119, Note_on_c, 0, 76, 93
3, 426119, Note_on_c, 0, 81, 93
3, 426197, Note_on_c, 0, 64, 0
3, 426197, Note_on_c, 0, 57, 0
3, 426197, Note_on_c, 0, 60, 0
3, 426240, Note_on_c, 0, 72, 0
3, 426240, Note_on_c, 0, 81, 0
3, 426240, Note_on_c, 0, 76, 0
3, 426240, Note_on_c, 0, 76, 94
3, 426240, Note_on_c, 0, 83, 94
3, 426240, Note_on_c, 0, 56, 94
3, 426240, Note_on_c, 0, 59, 94
3, 426240, Note_on_c, 0, 64, 94
3, 426360, Note_on_c, 0, 83, 0
3, 426360, Note_on_c, 0, 76, 0
3, 426360, Note_on_c, 0, 71, 94
3, 426479, Note_on_c, 0, 71, 0
3, 426479, Note_on_c, 0, 76, 95
3, 426479, Note_on_c, 0, 83, 95
3, 426557, Note_on_c, 0, 59, 0
3, 426557, Note_on_c, 0, 56, 0
3, 426557, Note_on_c, 0, 64, 0
3, 426600, Note_on_c, 0, 83, 0
3, 426600, Note_on_c, 0, 76, 0
3, 426600, Note_on_c, 0, 76, 96
3, 426600, Note_on_c, 0, 84, 96
3, 426600, Note_on_c, 0, 56, 96
3, 426600, Note_on_c, 0, 60, 96
3, 426600, Note_on_c, 0, 64, 96
3, 426720, Note_on_c, 0, 84, 0
3, 426720, Note_on_c, 0, 76, 0
3, 426720, Note_on_c, 0, 72, 96
3, 426839, Note_on_c, 0, 72, 0
3, 426839, Note_on_c, 0, 83, 97
3, 426917, Note_on_c, 0, 56, 0
3, 426960, Note_on_c, 0, 83, 0
3, 426960, Note_on_c, 0, 76, 98
3, 426960, Note_on_c, 0, 84, 98
3, 426960, Note_on_c, 0, 55, 98
3, 427080, Note_on_c, 0, 84, 0
3, 427080, Note_on_c, 0, 76, 0
3, 427080, Note_on_c, 0, 72, 99
3, 427199, Note_on_c, 0, 72, 0
3, 427199, Note_on_c, 0, 76, 99
3, 427199, Note_on_c, 0, 84, 99
3, 427320, Note_on_c, 0, 84, 0
3, 427320, Note_on_c, 0, 55, 0
3, 427320, Note_on_c, 0, 60, 0
3, 427320, Note_on_c, 0, 64, 0
3, 427320, Note_on_c, 0, 76, 0
3, 427320, Note_on_c, 0, 84, 116
3, 427320, Note_on_c, 0, 88, 116
3, 427320, Note_on_c, 0, 31, 85
3, 427320, Note_on_c, 0, 43, 85
3, 427440, Note_on_c, 0, 88, 0
3, 427440, Note_on_c, 0, 84, 0
3, 427440, Note_on_c, 0, 76, 79
3, 427500, Note_on_c, 0, 43, 0
3, 427500, Note_on_c, 0, 31, 0
3, 427500, Note_on_c, 0, 54, 116
3, 427500, Note_on_c, 0, 60, 116
3, 427500, Note_on_c, 0, 64, 116
3, 427559, Note_on_c, 0, 76, 0
3, 427559, Note_on_c, 0, 84, 116
3, 427559, Note_on_c, 0, 88, 116
3, 427680, Note_on_c, 0, 88, 0
3, 427680, Note_on_c, 0, 54, 0
3, 427680, Note_on_c, 0, 64, 0
3, 427680, Note_on_c, 0, 60, 0
3, 427680, Note_on_c, 0, 84, 0
3, 427680, Note_on_c, 0, 83, 115
3, 427680, Note_on_c, 0, 86, 115
3, 427680, Note_on_c, 0, 91, 115
3, 427680, Note_on_c, 0, 53, 108
3, 427680, Note_on_c, 0, 55, 108
3, 427680, Note_on_c, 0, 59, 108
3, 427680, Note_on_c, 0, 62, 108
3, 427800, Note_on_c, 0, 91, 0
3, 427800, Note_on_c, 0, 86, 0
3, 427800, Note_on_c, 0, 83, 0
3, 427800, Note_on_c, 0, 79, 78
3, 427919, Note_on_c, 0, 79, 0
3, 427919, Note_on_c, 0, 83, 116
3, 427919, Note_on_c, 0, 86, 116
3, 427919, Note_on_c, 0, 91, 116
3, 427997, Note_on_c, 0, 59, 0
3, 427997, Note_on_c, 0, 62, 0
3, 427997, Note_on_c, 0, 53, 0
3, 427997, Note_on_c, 0, 55, 0
3, 428040, Note_on_c, 0, 86, 0
3, 428040, Note_on_c, 0, 91, 0
3, 428040, Note_on_c, 0, 83, 0
3, 428040, Note_on_c, 0, 74, 82
3, 428040, Note_on_c, 0, 77, 82
3, 428040, Note_on_c, 0, 81, 82
3, 428040, Note_on_c, 0, 60, 117
3, 428040, Note_on_c, 0, 62, 117
3, 428040, Note_on_c, 0, 65, 117
3, 428160, Note_on_c, 0, 81, 0
3, 428160, Note_on_c, 0, 77, 0
3, 428160, Note_on_c, 0, 74, 0
3, 428160, Note_on_c, 0, 69, 67
3, 428279, Note_on_c, 0, 69, 0
3, 428279, Note_on_c, 0, 74, 116
3, 428279, Note_on_c, 0, 77, 116
3, 428279, Note_on_c, 0, 81, 116
3, 428357, Note_on_c, 0, 65, 0
3, 428357, Note_on_c, 0, 60, 0
3, 428357, Note_on_c, 0, 62, 0
3, 428400, Note_on_c, 0, 74, 0
3, 428400, Note_on_c, 0, 81, 0
3, 428400, Note_on_c, 0, 77, 0
3, 428400, Note_on_c, 0, 74, 113
3, 428400, Note_on_c, 0, 77, 113
3, 428400, Note_on_c, 0, 83, 113
3, 428400, Note_on_c, 0, 59, 117
3, 428400, Note_on_c, 0, 62, 117
3, 428400, Note_on_c, 0, 65, 117
3, 428520, Note_on_c, 0, 83, 0
3, 428520, Note_on_c, 0, 77, 0
3, 428520, Note_on_c, 0, 74, 0
3, 428520, Note_on_c, 0, 71, 73
3, 428639, Note_on_c, 0, 71, 0
3, 428639, Note_on_c, 0, 74, 116
3, 428639, Note_on_c, 0, 77, 116
3, 428639, Note_on_c, 0, 83, 116
3, 428717, Note_on_c, 0, 65, 0
3, 428717, Note_on_c, 0, 59, 0
3, 428717, Note_on_c, 0, 62, 0
3, 428760, Note_on_c, 0, 74, 0
3, 428760, Note_on_c, 0, 83, 0
3, 428760, Note_on_c, 0, 77, 0
3, 428760, Note_on_c, 0, 77, 116
3, 428760, Note_on_c, 0, 81, 116
3, 428760, Note_on_c, 0, 84, 116
3, 428760, Note_on_c, 0, 57, 114
3, 428760, Note_on_c, 0, 60, 114
3, 428760, Note_on_c, 0, 62, 114
3, 428760, Note_on_c, 0, 65, 114
3, 428880, Note_on_c, 0, 84, 0
3, 428880, Note_on_c, 0, 81, 0
3, 428880, Note_on_c, 0, 77, 0
3, 428880, Note_on_c, 0, 72, 73
3, 428999, Note_on_c, 0, 72, 0
3, 428999, Note_on_c, 0, 77, 116
3, 428999, Note_on_c, 0, 81, 116
3, 428999, Note_on_c, 0, 84, 116
3, 429077, Note_on_c, 0, 62, 0
3, 429077, Note_on_c, 0, 65, 0
3, 429077, Note_on_c, 0, 57, 0
3, 429077, Note_on_c, 0, 60, 0
3, 429120, Note_on_c, 0, 81, 0
3, 429120, Note_on_c, 0, 84, 0
3, 429120, Note_on_c, 0, 77, 0
3, 429120, Note_on_c, 0, 77, 112
3, 429120, Note_on_c, 0, 83, 112
3, 429120, Note_on_c, 0, 86, 112
3, 429120, Note_on_c, 0, 55, 117
3, 429120, Note_on_c, 0, 59, 117
3, 429120, Note_on_c, 0, 62, 117
3, 429120, Note_on_c, 0, 65, 117
3, 429240, Note_on_c, 0, 86, 0
3, 429240, Note_on_c, 0, 83, 0
3, 429240, Note_on_c, 0, 77, 0
3, 429240, Note_on_c, 0, 74, 72
3, 429359, Note_on_c, 0, 74, 0
3, 429359, Note_on_c, 0, 77, 116
3, 429359, Note_on_c, 0, 83, 116
3, 429359, Note_on_c, 0, 86, 116
3, 429437, Note_on_c, 0, 62, 0
3, 429437, Note_on_c, 0, 65, 0
3, 429437, Note_on_c, 0, 55, 0
3, 429437, Note_on_c, 0, 59, 0
3, 429480, Note_on_c, 0, 83, 0
3, 429480, Note_on_c, 0, 86, 0
3, 429480, Note_on_c, 0, 77, 0
3, 429480, Note_on_c, 0, 84, 111
3, 429480, Note_on_c, 0, 88, 111
3, 429480, Note_on_c, 0, 48, 109
3, 429480, Note_on_c, 0, 55, 109
3, 429480, Note_on_c, 0, 64, 109
3, 429600, Note_on_c, 0, 88, 0
3, 429600, Note_on_c, 0, 84, 0
3, 429600, Note_on_c, 0, 76, 74
3, 429719, Note_on_c, 0, 76, 0
3, 429719, Note_on_c, 0, 84, 116
3, 429719, Note_on_c, 0, 88, 116
3, 429797, Note_on_c, 0, 55, 0
3, 429797, Note_on_c, 0, 48, 0
3, 429797, Note_on_c, 0, 64, 0
3, 429840, Note_on_c, 0, 88, 0
3, 429840, Note_on_c, 0, 84, 0
3, 429840, Note_on_c, 0, 86, 115
3, 429840, Note_on_c, 0, 90, 115
3, 429840, Note_on_c, 0, 47, 107
3, 429840, Note_on_c, 0, 55, 107
3, 429840, Note_on_c, 0, 62, 107
3, 429960, Note_on_c, 0, 90, 0
3, 429960, Note_on_c, 0, 86, 0
3, 429960, Note_on_c, 0, 78, 74
3, 430079, Note_on_c, 0, 78, 0
3, 430079, Note_on_c, 0, 86, 116
3, 430079, Note_on_c, 0, 90, 116
3, 430157, Note_on_c, 0, 55, 0
3, 430157, Note_on_c, 0, 47, 0
3, 430157, Note_on_c, 0, 62, 0
3, 430200, Note_on_c, 0, 90, 0
3, 430200, Note_on_c, 0, 86, 0
3, 430200, Note_on_c, 0, 86, 113
3, 430200, Note_on_c, 0, 88, 113
3, 430200, Note_on_c, 0, 91, 113
3, 430200, Note_on_c, 0, 33, 86
3, 430200, Note_on_c, 0, 45, 86
3, 430320, Note_on_c, 0, 91, 0
3, 430320, Note_on_c, 0, 88, 0
3, 430320, Note_on_c, 0, 86, 0
3, 430320, Note_on_c, 0, 79, 76
3, 430380, Note_on_c, 0, 45, 0
3, 430380, Note_on_c, 0, 33, 0
3, 430380, Note_on_c, 0, 55, 116
3, 430380, Note_on_c, 0, 62, 116
3, 430380, Note_on_c, 0, 67, 116
3, 430439, Note_on_c, 0, 79, 0
3, 430439, Note_on_c, 0, 86, 116
3, 430439, Note_on_c, 0, 88, 116
3, 430439, Note_on_c, 0, 91, 116
3, 430560, Note_on_c, 0, 91, 0
3, 430560, Note_on_c, 0, 86, 0
3, 430560, Note_on_c, 0, 55, 0
3, 430560, Note_on_c, 0, 67, 0
3, 430560, Note_on_c, 0, 62, 0
3, 430560, Note_on_c, 0, 88, 0
3, 430560, Note_on_c, 0, 85, 86
3, 430560, Note_on_c, 0, 91, 86
3, 430560, Note_on_c, 0, 93, 86
3, 430560, Note_on_c, 0, 69, 116
3, 430560, Note_on_c, 0, 55, 112
3, 430560, Note_on_c, 0, 61, 112
3, 430560, Note_on_c, 0, 67, 112
3, 430680, Note_on_c, 0, 93, 0
3, 430680, Note_on_c, 0, 91, 0
3, 430680, Note_on_c, 0, 85, 0
3, 430680, Note_on_c, 0, 81, 69
3, 430799, Note_on_c, 0, 81, 0
3, 430799, Note_on_c, 0, 85, 116
3, 430799, Note_on_c, 0, 91, 116
3, 430799, Note_on_c, 0, 93, 116
3, 430920, Note_on_c, 0, 93, 0
3, 430920, Note_on_c, 0, 91, 0
3, 430920, Note_on_c, 0, 69, 0
3, 430920, Note_on_c, 0, 85, 0
3, 430920, Note_on_c, 0, 85, 113
3, 430920, Note_on_c, 0, 91, 113
3, 430920, Note_on_c, 0, 95, 113
3, 430920, Note_on_c, 0, 71, 113
3, 431040, Note_on_c, 0, 95, 0
3, 431040, Note_on_c, 0, 91, 0
3, 431040, Note_on_c, 0, 85, 0
3, 431040, Note_on_c, 0, 83, 77
3, 431159, Note_on_c, 0, 83, 0
3, 431159, Note_on_c, 0, 85, 116
3, 431159, Note_on_c, 0, 91, 116
3, 431159, Note_on_c, 0, 95, 116
3, 431280, Note_on_c, 0, 95, 0
3, 431280, Note_on_c, 0, 91, 0
3, 431280, Note_on_c, 0, 61, 0
3, 431280, Note_on_c, 0, 71, 0
3, 431280, Note_on_c, 0, 55, 0
3, 431280, Note_on_c, 0, 67, 0
3, 431280, Note_on_c, 0, 85, 0
3, 431280, Note_on_c, 0, 85, 117
3, 431280, Note_on_c, 0, 91, 117
3, 431280, Note_on_c, 0, 95, 117
3, 431280, Note_on_c, 0, 67, 117
3, 431280, Note_on_c, 0, 71, 117
3, 431280, Note_on_c, 0, 55, 78
3, 431280, Note_on_c, 0, 61, 78
3, 431400, Note_on_c, 0, 95, 0
3, 431400, Note_on_c, 0, 91, 0
3, 431400, Note_on_c, 0, 85, 0
3, 431400, Note_on_c, 0, 83, 71
3, 431519, Note_on_c, 0, 83, 0
3, 431519, Note_on_c, 0, 85, 116
3, 431519, Note_on_c, 0, 91, 116
3, 431519, Note_on_c, 0, 95, 116
3, 431640, Note_on_c, 0, 95, 0
3, 431640, Note_on_c, 0, 91, 0
3, 431640, Note_on_c, 0, 71, 0
3, 431640, Note_on_c, 0, 67, 0
3, 431640, Note_on_c, 0, 85, 0
3, 431640, Note_on_c, 0, 85, 100
3, 431640, Note_on_c, 0, 90, 100
3, 431640, Note_on_c, 0, 93, 100
3, 431640, Note_on_c, 0, 66, 94
3, 431640, Note_on_c, 0, 69, 94
3, 431760, Note_on_c, 0, 93, 0
3, 431760, Note_on_c, 0, 85, 0
3, 431760, Note_on_c, 0, 90, 0
3, 431760, Note_on_c, 0, 81, 67
3, 431879, Note_on_c, 0, 81, 0
3, 431879, Note_on_c, 0, 85, 116
3, 431879, Note_on_c, 0, 90, 116
3, 431879, Note_on_c, 0, 93, 116
3, 432000, Note_on_c, 0, 93, 0
3, 432000, Note_on_c, 0, 90, 0
3, 432000, Note_on_c, 0, 66, 0
3, 432000, Note_on_c, 0, 61, 0
3, 432000, Note_on_c, 0, 55, 0
3, 432000, Note_on_c, 0, 69, 0
3, 432000, Note_on_c, 0, 85, 0
3, 432000, Note_on_c, 0, 86, 112
3, 432000, Note_on_c, 0, 91, 112
3, 432000, Note_on_c, 0, 95, 112
3, 432000, Note_on_c, 0, 55, 117
3, 432000, Note_on_c, 0, 62, 117
3, 432000, Note_on_c, 0, 67, 117
3, 432000, Note_on_c, 0, 71, 117
3, 432120, Note_on_c, 0, 95, 0
3, 432120, Note_on_c, 0, 91, 0
3, 432120, Note_on_c, 0, 86, 0
3, 432120, Note_on_c, 0, 83, 68
3, 432239, Note_on_c, 0, 83, 0
3, 432239, Note_on_c, 0, 86, 116
3, 432239, Note_on_c, 0, 91, 116
3, 432239, Note_on_c, 0, 95, 116
3, 432360, Note_on_c, 0, 95, 0
3, 432360, Note_on_c, 0, 91, 0
3, 432360, Note_on_c, 0, 86, 0
3, 432360, Note_on_c, 0, 86, 97
3, 432360, Note_on_c, 0, 90, 97
3, 432360, Note_on_c, 0, 93, 97
3, 432360, Note_on_c, 0, 35, 75
3, 432360, Note_on_c, 0, 47, 75
3, 432480, Note_on_c, 0, 93, 0
3, 432480, Note_on_c, 0, 90, 0
3, 432480, Note_on_c, 0, 86, 0
3, 432480, Note_on_c, 0, 81, 69
3, 432599, Note_on_c, 0, 81, 0
3, 432599, Note_on_c, 0, 86, 116
3, 432599, Note_on_c, 0, 90, 116
3, 432599, Note_on_c, 0, 93, 116
3, 432720, Note_on_c, 0, 93, 0
3, 432720, Note_on_c, 0, 90, 0
3, 432720, Note_on_c, 0, 71, 0
3, 432720, Note_on_c, 0, 55, 0
3, 432720, Note_on_c, 0, 62, 0
3, 432720, Note_on_c, 0, 86, 0
3, 432720, Note_on_c, 0, 67, 0
3, 432720, Note_on_c, 0, 87, 112
3, 432720, Note_on_c, 0, 91, 112
3, 432720, Note_on_c, 0, 95, 112
3, 432720, Note_on_c, 0, 57, 117
3, 432720, Note_on_c, 0, 63, 117
3, 432720, Note_on_c, 0, 67, 117
3, 432720, Note_on_c, 0, 71, 117
3, 432840, Note_on_c, 0, 95, 0
3, 432840, Note_on_c, 0, 87, 0
3, 432840, Note_on_c, 0, 91, 0
3, 432840, Note_on_c, 0, 83, 74
3, 432959, Note_on_c, 0, 83, 0
3, 432959, Note_on_c, 0, 87, 116
3, 432959, Note_on_c, 0, 91, 116
3, 432959, Note_on_c, 0, 95, 116
3, 433080, Note_on_c, 0, 95, 0
3, 433080, Note_on_c, 0, 91, 0
3, 433080, Note_on_c, 0, 35, 0
3, 433080, Note_on_c, 0, 47, 0
3, 433080, Note_on_c, 0, 87, 0
3, 433080, Note_on_c, 0, 87, 101
3, 433080, Note_on_c, 0, 90, 101
3, 433080, Note_on_c, 0, 93, 101
3, 433080, Note_on_c, 0, 28, 76
3, 433080, Note_on_c, 0, 40, 76
3, 433200, Note_on_c, 0, 93, 0
3, 433200, Note_on_c, 0, 90, 0
3, 433200, Note_on_c, 0, 87, 0
3, 433200, Note_on_c, 0, 81, 73
3, 433319, Note_on_c, 0, 81, 0
3, 433319, Note_on_c, 0, 87, 116
3, 433319, Note_on_c, 0, 90, 116
3, 433319, Note_on_c, 0, 93, 116
3, 433440, Note_on_c, 0, 93, 0
3, 433440, Note_on_c, 0, 40, 0
3, 433440, Note_on_c, 0, 28, 0
3, 433440, Note_on_c, 0, 90, 0
3, 433440, Note_on_c, 0, 57, 0
3, 433440, Note_on_c, 0, 67, 0
3, 433440, Note_on_c, 0, 87, 0
3, 433440, Note_on_c, 0, 71, 0
3, 433440, Note_on_c, 0, 63, 0
3, 433440, Note_on_c, 0, 83, 113
3, 433440, Note_on_c, 0, 88, 113
3, 433440, Note_on_c, 0, 91, 113
3, 433440, Note_on_c, 0, 95, 113
3, 433440, Note_on_c, 0, 59, 103
3, 433440, Note_on_c, 0, 64, 103
3, 433440, Note_on_c, 0, 67, 103
3, 433440, Note_on_c, 0, 71, 103
3, 433800, Note_on_c, 0, 71, 0
3, 433800, Note_on_c, 0, 91, 0
3, 433800, Note_on_c, 0, 67, 0
3, 433800, Note_on_c, 0, 95, 0
3, 433800, Note_on_c, 0, 83, 0
3, 433800, Note_on_c, 0, 88, 0
3, 433800, Note_on_c, 0, 64, 0
3, 433800, Note_on_c, 0, 59, 0
3, 433800, Note_on_c, 0, 43, 59
3, 433800, Note_on_c, 0, 52, 59
3, 433890, Note_on_c, 0, 52, 0
3, 433890, Note_on_c, 0, 43, 0
3, 433890, Note_on_c, 0, 48, 65
3, 433980, Note_on_c, 0, 48, 0
3, 433980, Note_on_c, 0, 47, 68
3, 434070, Note_on_c, 0, 47, 0
3, 434070, Note_on_c, 0, 43, 65
3, 434160, Note_on_c, 0, 43, 0
3, 434160, Note_on_c, 0, 64, 73
3, 434160, Note_on_c, 0, 67, 73
3, 434250, Note_on_c, 0, 67, 0
3, 434250, Note_on_c, 0, 64, 0
3, 434250, Note_on_c, 0, 60, 74
3, 434340, Note_on_c, 0, 60, 0
3, 434340, Note_on_c, 0, 59, 74
3, 434430, Note_on_c, 0, 59, 0
3, 434430, Note_on_c, 0, 55, 74
3, 434520, Note_on_c, 0, 55, 0
3, 434520, Note_on_c, 0, 47, 75
3, 434520, Note_on_c, 0, 55, 75
3, 434610, Note_on_c, 0, 55, 0
3, 434610, Note_on_c, 0, 47, 0
3, 434610, Note_on_c, 0, 54, 75
3, 434700, Note_on_c, 0, 54, 0
3, 434700, Note_on_c, 0, 52, 75
3, 434790, Note_on_c, 0, 52, 0
3, 434790, Note_on_c, 0, 47, 76
3, 434880, Note_on_c, 0, 47, 0
3, 434880, Note_on_c, 0, 67, 76
3, 434880, Note_on_c, 0, 71, 76
3, 434970, Note_on_c, 0, 71, 0
3, 434970, Note_on_c, 0, 67, 0
3, 434970, Note_on_c, 0, 66, 76
3, 435060, Note_on_c, 0, 66, 0
3, 435060, Note_on_c, 0, 64, 76
3, 435150, Note_on_c, 0, 64, 0
3, 435150, Note_on_c, 0, 59, 77
3, 435240, Note_on_c, 0, 59, 0
3, 435240, Note_on_c, 0, 52, 77
3, 435240, Note_on_c, 0, 59, 77
3, 435330, Note_on_c, 0, 59, 0
3, 435330, Note_on_c, 0, 52, 0
3, 435330, Note_on_c, 0, 57, 77
3, 435420, Note_on_c, 0, 57, 0
3, 435420, Note_on_c, 0, 55, 78
3, 435510, Note_on_c, 0, 55, 0
3, 435510, Note_on_c, 0, 52, 78
3, 435600, Note_on_c, 0, 52, 0
3, 435600, Note_on_c, 0, 71, 78
3, 435600, Note_on_c, 0, 76, 78
3, 435690, Note_on_c, 0, 76, 0
3, 435690, Note_on_c, 0, 71, 0
3, 435690, Note_on_c, 0, 69, 79
3, 435780, Note_on_c, 0, 69, 0
3, 435780, Note_on_c, 0, 67, 79
3, 435870, Note_on_c, 0, 67, 0
3, 435870, Note_on_c, 0, 64, 79
3, 435960, Note_on_c, 0, 64, 0
3, 435960, Note_on_c, 0, 55, 80
3, 435960, Note_on_c, 0, 64, 80
3, 436050, Note_on_c, 0, 64, 0
3, 436050, Note_on_c, 0, 55, 0
3, 436050, Note_on_c, 0, 60, 80
3, 436140, Note_on_c, 0, 60, 0
3, 436140, Note_on_c, 0, 59, 80
3, 436230, Note_on_c, 0, 59, 0
3, 436230, Note_on_c, 0, 55, 81
3, 436320, Note_on_c, 0, 55, 0
3, 436320, Note_on_c, 0, 75, 81
3, 436320, Note_on_c, 0, 79, 81
3, 436320, Note_on_c, 0, 36, 94
3, 436320, Note_on_c, 0, 43, 94
3, 436410, Note_on_c, 0, 79, 0
3, 436410, Note_on_c, 0, 75, 0
3, 436410, Note_on_c, 0, 72, 81
3, 436500, Note_on_c, 0, 72, 0
3, 436500, Note_on_c, 0, 68, 82
3, 436590, Note_on_c, 0, 68, 0
3, 436590, Note_on_c, 0, 67, 82
3, 436680, Note_on_c, 0, 67, 0
3, 436680, Note_on_c, 0, 55, 82
3, 436680, Note_on_c, 0, 63, 82
3, 436770, Note_on_c, 0, 63, 0
3, 436770, Note_on_c, 0, 55, 0
3, 436770, Note_on_c, 0, 60, 83
3, 436860, Note_on_c, 0, 60, 0
3, 436860, Note_on_c, 0, 56, 83
3, 436950, Note_on_c, 0, 56, 0
3, 436950, Note_on_c, 0, 55, 83
3, 437040, Note_on_c, 0, 55, 0
3, 437040, Note_on_c, 0, 79, 83
3, 437040, Note_on_c, 0, 84, 83
3, 437130, Note_on_c, 0, 84, 0
3, 437130, Note_on_c, 0, 79, 0
3, 437130, Note_on_c, 0, 77, 84
3, 437220, Note_on_c, 0, 77, 0
3, 437220, Note_on_c, 0, 75, 84
3, 437310, Note_on_c, 0, 75, 0
3, 437310, Note_on_c, 0, 72, 84
3, 437400, Note_on_c, 0, 72, 0
3, 437400, Note_on_c, 0, 60, 85
3, 437400, Note_on_c, 0, 66, 85
3, 437490, Note_on_c, 0, 66, 0
3, 437490, Note_on_c, 0, 60, 0
3, 437490, Note_on_c, 0, 65, 85
3, 437580, Note_on_c, 0, 65, 0
3, 437580, Note_on_c, 0, 63, 85
3, 437670, Note_on_c, 0, 63, 0
3, 437670, Note_on_c, 0, 60, 86
3, 437760, Note_on_c, 0, 60, 0
3, 437760, Note_on_c, 0, 36, 0
3, 437760, Note_on_c, 0, 43, 0
3, 437760, Note_on_c, 0, 84, 99
3, 437760, Note_on_c, 0, 87, 99
3, 437880, Note_on_c, 0, 87, 0
3, 437880, Note_on_c, 0, 84, 0
3, 437880, Note_on_c, 0, 79, 67
3, 437999, Note_on_c, 0, 79, 0
3, 437999, Note_on_c, 0, 75, 70
3, 438120, Note_on_c, 0, 75, 0
3, 438120, Note_on_c, 0, 79, 86
3, 438120, Note_on_c, 0, 84, 86
3, 438120, Note_on_c, 0, 87, 86
3, 438120, Note_on_c, 0, 91, 86
3, 438120, Note_on_c, 0, 63, 86
3, 438120, Note_on_c, 0, 72, 86
3, 438240, Note_on_c, 0, 72, 0
3, 438240, Note_on_c, 0, 63, 0
3, 438240, Note_on_c, 0, 68, 88
3, 438359, Note_on_c, 0, 68, 0
3, 438359, Note_on_c, 0, 67, 89
3, 438480, Note_on_c, 0, 67, 0
3, 438480, Note_on_c, 0, 60, 91
3, 438480, Note_on_c, 0, 67, 91
3, 438600, Note_on_c, 0, 67, 0
3, 438600, Note_on_c, 0, 60, 0
3, 438600, Note_on_c, 0, 65, 93
3, 438719, Note_on_c, 0, 65, 0
3, 438719, Note_on_c, 0, 63, 94
3, 438840, Note_on_c, 0, 63, 0
3, 438840, Note_on_c, 0, 91, 0
3, 438840, Note_on_c, 0, 84, 0
3, 438840, Note_on_c, 0, 87, 0
3, 438840, Note_on_c, 0, 79, 0
3, 438840, Note_on_c, 0, 87, 109
3, 438840, Note_on_c, 0, 93, 109
3, 438840, Note_on_c, 0, 31, 96
3, 438840, Note_on_c, 0, 43, 96
3, 438960, Note_on_c, 0, 93, 0
3, 438960, Note_on_c, 0, 87, 0
3, 438960, Note_on_c, 0, 84, 78
3, 439079, Note_on_c, 0, 84, 0
3, 439079, Note_on_c, 0, 81, 79
3, 439200, Note_on_c, 0, 81, 0
3, 439200, Note_on_c, 0, 43, 0
3, 439200, Note_on_c, 0, 31, 0
3, 439200, Note_on_c, 0, 83, 117
3, 439200, Note_on_c, 0, 86, 117
3, 439200, Note_on_c, 0, 91, 117
3, 439200, Note_on_c, 0, 95, 117
3, 439200, Note_on_c, 0, 59, 117
3, 439200, Note_on_c, 0, 62, 117
3, 439200, Note_on_c, 0, 67, 117
3, 439200, Note_on_c, 0, 71, 117
3, 439680, Note_on_c, 0, 71, 0
3, 439680, Note_on_c, 0, 91, 0
3, 439680, Note_on_c, 0, 67, 0
3, 439680, Note_on_c, 0, 95, 0
3, 439680, Note_on_c, 0, 83, 0
3, 439680, Note_on_c, 0, 86, 0
3, 439680, Note_on_c, 0, 62, 0
3, 439680, Note_on_c, 0, 59, 0
3, 439680, Note_on_c, 0, 93, 97
3, 439680, Note_on_c, 0, 69, 96
3, 439799, Note_on_c, 0, 69, 0
3, 439799, Note_on_c, 0, 93, 0
3, 439799, Note_on_c, 0, 91, 95
3, 439799, Note_on_c, 0, 67, 99
3, 439920, Note_on_c, 0, 67, 0
3, 439920, Note_on_c, 0, 91, 0
3, 439920, Note_on_c, 0, 79, 117
3, 439920, Note_on_c, 0, 91, 117
3, 439920, Note_on_c, 0, 67, 117
3, 440040, Note_on_c, 0, 67, 0
3, 440040, Note_on_c, 0, 91, 0
3, 440040, Note_on_c, 0, 79, 0
3, 440040, Note_on_c, 0, 88, 95
3, 440040, Note_on_c, 0, 64, 90
3, 440159, Note_on_c, 0, 64, 0
3, 440159, Note_on_c, 0, 88, 0
3, 440159, Note_on_c, 0, 86, 94
3, 440159, Note_on_c, 0, 62, 101
3, 440280, Note_on_c, 0, 62, 0
3, 440280, Note_on_c, 0, 86, 0
3, 440280, Note_on_c, 0, 74, 117
3, 440280, Note_on_c, 0, 86, 117
3, 440280, Note_on_c, 0, 62, 100
3, 440400, Note_on_c, 0, 86, 0
3, 440400, Note_on_c, 0, 74, 0
3, 440400, Note_on_c, 0, 84, 95
3, 440519, Note_on_c, 0, 84, 0
3, 440519, Note_on_c, 0, 62, 0
3, 440519, Note_on_c, 0, 83, 96
3, 440519, Note_on_c, 0, 43, 83
3, 440519, Note_on_c, 0, 50, 83
3, 440640, Note_on_c, 0, 50, 0
3, 440640, Note_on_c, 0, 43, 0
3, 440640, Note_on_c, 0, 83, 0
3, 440640, Note_on_c, 0, 79, 117
3, 440640, Note_on_c, 0, 83, 117
3, 440640, Note_on_c, 0, 86, 117
3, 440640, Note_on_c, 0, 91, 117
3, 440640, Note_on_c, 0, 59, 117
3, 440640, Note_on_c, 0, 62, 117
3, 440640, Note_on_c, 0, 67, 117
3, 441120, Note_on_c, 0, 67, 0
3, 441120, Note_on_c, 0, 62, 0
3, 441120, Note_on_c, 0, 91, 0
3, 441120, Note_on_c, 0, 79, 0
3, 441120, Note_on_c, 0, 83, 0
3, 441120, Note_on_c, 0, 86, 0
3, 441120, Note_on_c, 0, 59, 0
3, 441120, Note_on_c, 0, 88, 94
3, 441120, Note_on_c, 0, 64, 88
3, 441239, Note_on_c, 0, 64, 0
3, 441239, Note_on_c, 0, 88, 0
3, 441239, Note_on_c, 0, 86, 94
3, 441239, Note_on_c, 0, 62, 96
3, 441360, Note_on_c, 0, 62, 0
3, 441360, Note_on_c, 0, 86, 0
3, 441360, Note_on_c, 0, 74, 117
3, 441360, Note_on_c, 0, 86, 117
3, 441360, Note_on_c, 0, 62, 117
3, 441480, Note_on_c, 0, 62, 0
3, 441480, Note_on_c, 0, 86, 0
3, 441480, Note_on_c, 0, 74, 0
3, 441480, Note_on_c, 0, 84, 99
3, 441480, Note_on_c, 0, 60, 99
3, 441599, Note_on_c, 0, 60, 0
3, 441599, Note_on_c, 0, 84, 0
3, 441599, Note_on_c, 0, 83, 97
3, 441599, Note_on_c, 0, 59, 103
3, 441720, Note_on_c, 0, 59, 0
3, 441720, Note_on_c, 0, 83, 0
3, 441720, Note_on_c, 0, 71, 117
3, 441720, Note_on_c, 0, 83, 117
3, 441720, Note_on_c, 0, 50, 117
3, 441720, Note_on_c, 0, 59, 117
3, 441840, Note_on_c, 0, 83, 0
3, 441840, Note_on_c, 0, 71, 0
3, 441840, Note_on_c, 0, 81, 99
3, 441959, Note_on_c, 0, 81, 0
3, 441959, Note_on_c, 0, 59, 0
3, 441959, Note_on_c, 0, 50, 0
3, 441959, Note_on_c, 0, 79, 95
3, 441959, Note_on_c, 0, 43, 88
3, 441959, Note_on_c, 0, 50, 88
3, 442080, Note_on_c, 0, 50, 0
3, 442080, Note_on_c, 0, 43, 0
3, 442080, Note_on_c, 0, 79, 0
3, 442080, Note_on_c, 0, 74, 117
3, 442080, Note_on_c, 0, 79, 117
3, 442080, Note_on_c, 0, 83, 117
3, 442080, Note_on_c, 0, 86, 117
3, 442080, Note_on_c, 0, 55, 117
3, 442080, Note_on_c, 0, 59, 117
3, 442080, Note_on_c, 0, 62, 117
3, 442560, Note_on_c, 0, 62, 0
3, 442560, Note_on_c, 0, 59, 0
3, 442560, Note_on_c, 0, 86, 0
3, 442560, Note_on_c, 0, 74, 0
3, 442560, Note_on_c, 0, 79, 0
3, 442560, Note_on_c, 0, 83, 0
3, 442560, Note_on_c, 0, 55, 0
3, 442560, Note_on_c, 0, 84, 96
3, 442560, Note_on_c, 0, 60, 94
3, 442679, Note_on_c, 0, 60, 0
3, 442679, Note_on_c, 0, 84, 0
3, 442679, Note_on_c, 0, 83, 97
3, 442679, Note_on_c, 0, 59, 104
3, 442800, Note_on_c, 0, 59, 0
3, 442800, Note_on_c, 0, 83, 0
3, 442800, Note_on_c, 0, 71, 117
3, 442800, Note_on_c, 0, 83, 117
3, 442800, Note_on_c, 0, 59, 117
3, 442920, Note_on_c, 0, 59, 0
3, 442920, Note_on_c, 0, 83, 0
3, 442920, Note_on_c, 0, 71, 0
3, 442920, Note_on_c, 0, 81, 95
3, 442920, Note_on_c, 0, 57, 99
3, 443039, Note_on_c, 0, 57, 0
3, 443039, Note_on_c, 0, 81, 0
3, 443039, Note_on_c, 0, 79, 91
3, 443039, Note_on_c, 0, 55, 100
3, 443160, Note_on_c, 0, 55, 0
3, 443160, Note_on_c, 0, 79, 0
3, 443160, Note_on_c, 0, 67, 117
3, 443160, Note_on_c, 0, 79, 117
3, 443160, Note_on_c, 0, 55, 117
3, 443280, Note_on_c, 0, 79, 0
3, 443280, Note_on_c, 0, 67, 0
3, 443280, Note_on_c, 0, 76, 89
3, 443399, Note_on_c, 0, 76, 0
3, 443399, Note_on_c, 0, 55, 0
3, 443399, Note_on_c, 0, 74, 93
3, 443399, Note_on_c, 0, 43, 94
3, 443399, Note_on_c, 0, 50, 94
3, 443520, Note_on_c, 0, 50, 0
3, 443520, Note_on_c, 0, 43, 0
3, 443520, Note_on_c, 0, 74, 0
3, 443520, Note_on_c, 0, 71, 117
3, 443520, Note_on_c, 0, 74, 117
3, 443520, Note_on_c, 0, 79, 117
3, 443520, Note_on_c, 0, 83, 117
3, 443520, Note_on_c, 0, 50, 117
3, 443520, Note_on_c, 0, 55, 117
3, 443520, Note_on_c, 0, 59, 117
3, 444000, Note_on_c, 0, 59, 0
3, 444000, Note_on_c, 0, 55, 0
3, 444000, Note_on_c, 0, 83, 0
3, 444000, Note_on_c, 0, 71, 0
3, 444000, Note_on_c, 0, 74, 0
3, 444000, Note_on_c, 0, 79, 0
3, 444000, Note_on_c, 0, 50, 0
3, 444000, Note_on_c, 0, 81, 95
3, 444000, Note_on_c, 0, 57, 99
3, 444119, Note_on_c, 0, 57, 0
3, 444119, Note_on_c, 0, 81, 0
3, 444119, Note_on_c, 0, 79, 90
3, 444119, Note_on_c, 0, 55, 98
3, 444240, Note_on_c, 0, 55, 0
3, 444240, Note_on_c, 0, 79, 0
3, 444240, Note_on_c, 0, 67, 117
3, 444240, Note_on_c, 0, 79, 117
3, 444240, Note_on_c, 0, 55, 117
3, 444360, Note_on_c, 0, 55, 0
3, 444360, Note_on_c, 0, 79, 0
3, 444360, Note_on_c, 0, 67, 0
3, 444360, Note_on_c, 0, 76, 93
3, 444360, Note_on_c, 0, 52, 100
3, 444479, Note_on_c, 0, 52, 0
3, 444479, Note_on_c, 0, 76, 0
3, 444479, Note_on_c, 0, 74, 89
3, 444479, Note_on_c, 0, 50, 97
3, 444600, Note_on_c, 0, 50, 0
3, 444600, Note_on_c, 0, 74, 0
3, 444600, Note_on_c, 0, 62, 117
3, 444600, Note_on_c, 0, 74, 117
3, 444600, Note_on_c, 0, 50, 117
3, 444720, Note_on_c, 0, 74, 0
3, 444720, Note_on_c, 0, 62, 0
3, 444720, Note_on_c, 0, 72, 96
3, 444780, Note_on_c, 0, 50, 0
3, 444839, Note_on_c, 0, 72, 0
3, 444839, Note_on_c, 0, 71, 94
3, 444960, Note_on_c, 0, 71, 0
3, 444960, Note_on_c, 0, 67, 116
3, 444960, Note_on_c, 0, 71, 116
3, 444960, Note_on_c, 0, 74, 116
3, 444960, Note_on_c, 0, 79, 116
3, 444960, Note_on_c, 0, 43, 86
3, 444960, Note_on_c, 0, 47, 86
3, 444960, Note_on_c, 0, 50, 86
3, 444960, Note_on_c, 0, 55, 86
3, 445320, Note_on_c, 0, 55, 0
3, 445320, Note_on_c, 0, 74, 0
3, 445320, Note_on_c, 0, 50, 0
3, 445320, Note_on_c, 0, 79, 0
3, 445320, Note_on_c, 0, 67, 0
3, 445320, Note_on_c, 0, 71, 0
3, 445320, Note_on_c, 0, 47, 0
3, 445320, Note_on_c, 0, 43, 0
3, 445320, Note_on_c, 0, 73, 116
3, 445320, Note_on_c, 0, 79, 116
3, 445320, Note_on_c, 0, 83, 116
3, 445320, Note_on_c, 0, 85, 116
3, 445320, Note_on_c, 0, 49, 116
3, 445320, Note_on_c, 0, 55, 116
3, 445320, Note_on_c, 0, 59, 116
3, 445320, Note_on_c, 0, 61, 116
3, 445680, Note_on_c, 0, 61, 0
3, 445680, Note_on_c, 0, 83, 0
3, 445680, Note_on_c, 0, 59, 0
3, 445680, Note_on_c, 0, 85, 0
3, 445680, Note_on_c, 0, 73, 0
3, 445680, Note_on_c, 0, 79, 0
3, 445680, Note_on_c, 0, 55, 0
3, 445680, Note_on_c, 0, 49, 0
3, 445680, Note_on_c, 0, 76, 116
3, 445680, Note_on_c, 0, 79, 116
3, 445680, Note_on_c, 0, 83, 116
3, 445680, Note_on_c, 0, 88, 116
3, 445680, Note_on_c, 0, 52, 116
3, 445680, Note_on_c, 0, 55, 116
3, 445680, Note_on_c, 0, 59, 116
3, 445680, Note_on_c, 0, 64, 116
3, 446040, Note_on_c, 0, 64, 0
3, 446040, Note_on_c, 0, 83, 0
3, 446040, Note_on_c, 0, 59, 0
3, 446040, Note_on_c, 0, 88, 0
3, 446040, Note_on_c, 0, 76, 0
3, 446040, Note_on_c, 0, 79, 0
3, 446040, Note_on_c, 0, 55, 0
3, 446040, Note_on_c, 0, 52, 0
3, 446040, Note_on_c, 0, 74, 101
3, 446040, Note_on_c, 0, 79, 101
3, 446040, Note_on_c, 0, 83, 101
3, 446040, Note_on_c, 0, 86, 101
3, 446040, Note_on_c, 0, 50, 97
3, 446040, Note_on_c, 0, 55, 97
3, 446040, Note_on_c, 0, 59, 97
3, 446040, Note_on_c, 0, 62, 97
3, 446400, Note_on_c, 0, 62, 0
3, 446400, Note_on_c, 0, 83, 0
3, 446400, Note_on_c, 0, 59, 0
3, 446400, Note_on_c, 0, 86, 0
3, 446400, Note_on_c, 0, 74, 0
3, 446400, Note_on_c, 0, 79, 0
3, 446400, Note_on_c, 0, 55, 0
3, 446400, Note_on_c, 0, 50, 0
3, 446400, Note_on_c, 0, 71, 93
3, 446400, Note_on_c, 0, 74, 93
3, 446400, Note_on_c, 0, 79, 93
3, 446400, Note_on_c, 0, 83, 93
3, 446400, Note_on_c, 0, 47, 100
3, 446400, Note_on_c, 0, 50, 100
3, 446400, Note_on_c, 0, 55, 100
3, 446400, Note_on_c, 0, 59, 100
3, 446760, Note_on_c, 0, 59, 0
3, 446760, Note_on_c, 0, 79, 0
3, 446760, Note_on_c, 0, 55, 0
3, 446760, Note_on_c, 0, 83, 0
3, 446760, Note_on_c, 0, 71, 0
3, 446760, Note_on_c, 0, 74, 0
3, 446760, Note_on_c, 0, 50, 0
3, 446760, Note_on_c, 0, 47, 0
3, 446760, Note_on_c, 0, 67, 90
3, 446760, Note_on_c, 0, 74, 90
3, 446760, Note_on_c, 0, 79, 90
3, 446760, Note_on_c, 0, 43, 96
3, 446760, Note_on_c, 0, 50, 96
3, 446760, Note_on_c, 0, 55, 96
3, 447120, Note_on_c, 0, 55, 0
3, 447120, Note_on_c, 0, 43, 0
3, 447120, Note_on_c, 0, 67, 0
3, 447120, Note_on_c, 0, 74, 0
3, 447120, Note_on_c, 0, 79, 0
3, 447120, Note_on_c, 0, 50, 0
3, 447120, Note_on_c, 0, 64, 90
3, 447120, Note_on_c, 0, 67, 90
3, 447120, Note_on_c, 0, 71, 90
3, 447120, Note_on_c, 0, 76, 90
3, 447120, Note_on_c, 0, 37, 91
3, 447120, Note_on_c, 0, 49, 91
3, 447480, Note_on_c, 0, 49, 0
3, 447480, Note_on_c, 0, 76, 0
3, 447480, Note_on_c, 0, 64, 0
3, 447480, Note_on_c, 0, 67, 0
3, 447480, Note_on_c, 0, 71, 0
3, 447480, Note_on_c, 0, 37, 0
3, 447480, Note_on_c, 0, 62, 96
3, 447480, Note_on_c, 0, 66, 96
3, 447480, Note_on_c, 0, 72, 96
3, 447480, Note_on_c, 0, 74, 96
3, 447480, Note_on_c, 0, 38, 104
3, 447480, Note_on_c, 0, 50, 104
3, 447840, Note_on_c, 0, 50, 0
3, 447840, Note_on_c, 0, 74, 0
3, 447840, Note_on_c, 0, 62, 0
3, 447840, Note_on_c, 0, 66, 0
3, 447840, Note_on_c, 0, 72, 0
3, 447840, Note_on_c, 0, 38, 0
3, 447840, Note_on_c, 0, 59, 84
3, 447840, Note_on_c, 0, 67, 84
3, 447840, Note_on_c, 0, 43, 114
3, 447840, Note_on_c, 0, 50, 114
3, 447840, Note_on_c, 0, 55, 114
3, 448200, Note_on_c, 0, 55, 0
3, 448200, Note_on_c, 0, 59, 0
3, 448200, Note_on_c, 0, 67, 0
3, 448200, Note_on_c, 0, 43, 0
3, 448200, Note_on_c, 0, 50, 0
3, 448560, Note_on_c, 0, 55, 86
3, 448560, Note_on_c, 0, 59, 86
3, 448560, Note_on_c, 0, 43, 90
3, 448560, Note_on_c, 0, 50, 90
3, 448920, Note_on_c, 0, 50, 0
3, 448920, Note_on_c, 0, 59, 0
3, 448920, Note_on_c, 0, 43, 0
3, 448920, Note_on_c, 0, 55, 0
3, 448920, Note_on_c, 0, 47, 85
3, 448920, Note_on_c, 0, 35, 86
3, 449040, Note_on_c, 0, 35, 0
3, 449040, Note_on_c, 0, 47, 0
3, 449040, Note_on_c, 0, 45, 100
3, 449040, Note_on_c, 0, 33, 97
3, 449159, Note_on_c, 0, 33, 0
3, 449159, Note_on_c, 0, 45, 0
3, 449159, Note_on_c, 0, 43, 99
3, 449159, Note_on_c, 0, 31, 105
3, 449280, Note_on_c, 0, 31, 0
3, 449280, Note_on_c, 0, 43, 0
3, 449280, Note_on_c, 0, 43, 98
3, 449280, Note_on_c, 0, 31, 104
3, 450720, Note_on_c, 0, 31, 0
3, 450720, Note_on_c, 0, 43, 0
3, 450722, Note_on_c, 0, 75, 0
3, 450722, End_track
0, 0, End_of_file
