0, 0, Header, 1, 2, 360
1, 0, Start_track
1, 0, Title_t, "untitled"
1, 0, Time_signature, 4, 2, 24, 8
1, 0, Key_signature, 4, "major"
1, 0, Tempo, 923077
1, 7920, Tempo, 923077
1, 8036, Tempo, 906071
1, 8151, Tempo, 889548
1, 8266, Tempo, 873744
1, 8381, Tempo, 858369
1, 8497, Tempo, 843645
1, 8727, Tempo, 815550
1, 8843, Tempo, 802246
1, 8958, Tempo, 789370
1, 9073, Tempo, 776800
1, 9189, Tempo, 764721
1, 9304, Tempo, 752918
1, 9419, Tempo, 741565
1, 9534, Tempo, 730549
1, 9650, Tempo, 719770
1, 9765, Tempo, 709388
1, 9899, Tempo, 697674
1, 11520, Tempo, 923077
1, 23880, Tempo, 923077
1, 23988, Tempo, 906071
1, 24096, Tempo, 889548
1, 24204, Tempo, 873744
1, 24313, Tempo, 858492
1, 24529, Tempo, 829417
1, 24638, Tempo, 815661
1, 24746, Tempo, 802246
1, 24854, Tempo, 789370
1, 24962, Tempo, 776900
1, 25071, Tempo, 764818
1, 25179, Tempo, 753012
1, 25287, Tempo, 741656
1, 25395, Tempo, 730638
1, 25504, Tempo, 719856
1, 25612, Tempo, 709471
1, 25739, Tempo, 697674
1, 25920, Time_signature, 2, 2, 24, 8
1, 26640, Time_signature, 3, 2, 24, 8
1, 26640, Tempo, 923077
1, 33120, Time_signature, 4, 2, 24, 8
1, 34560, Time_signature, 3, 2, 24, 8
1, 43200, Time_signature, 4, 2, 24, 8
1, 44640, Tempo, 1000000
1, 53280, Tempo, 983607
1, 53640, Tempo, 967742
1, 54000, Tempo, 952381
1, 54360, Tempo, 937500
1, 54720, Tempo, 923077
1, 56070, Tempo, 5000000
1, 56160, Tempo, 923077
1, 56160, End_track
2, 0, Start_track
2, 0, Title_t, "Piano"
2, 0, Program_c, 0, 0
2, 0, Control_c, 0, 7, 105
2, 0, Control_c, 0, 10, 63
2, 0, Control_c, 0, 91, 60
2, 0, Control_c, 0, 121, 0
2, 0, Control_c, 0, 121, 0
2, 0, Control_c, 0, 91, 60
2, 0, Control_c, 0, 10, 51
2, 0, Control_c, 0, 7, 100
2, 0, Note_on_c, 0, 61, 111
2, 0, Note_on_c, 0, 37, 80
2, 0, Note_on_c, 0, 49, 80
2, 360, Note_on_c, 0, 61, 71
2, 360, Note_on_c, 0, 68, 71
2, 360, Note_on_c, 0, 73, 71
2, 360, Note_on_c, 0, 52, 68
2, 360, Note_on_c, 0, 56, 68
2, 360, Note_on_c, 0, 64, 68
2, 675, Note_on_c, 0, 49, 0
2, 675, Note_on_c, 0, 61, 0
2, 675, Note_on_c, 0, 37, 0
2, 675, Note_on_c, 0, 51, 114
2, 675, Note_on_c, 0, 27, 80
2, 675, Note_on_c, 0, 39, 80
2, 677, Note_on_c, 0, 52, 0
2, 677, Note_on_c, 0, 56, 0
2, 677, Note_on_c, 0, 64, 0
2, 677, Note_on_c, 0, 68, 0
2, 677, Note_on_c, 0, 73, 0
2, 677, Note_on_c, 0, 61, 0
2, 720, Note_on_c, 0, 39, 0
2, 720, Note_on_c, 0, 27, 0
2, 720, Note_on_c, 0, 51, 0
2, 720, Note_on_c, 0, 55, 117
2, 720, Note_on_c, 0, 31, 95
2, 720, Note_on_c, 0, 43, 95
2, 900, Note_on_c, 0, 64, 73
2, 900, Note_on_c, 0, 71, 73
2, 900, Note_on_c, 0, 73, 73
2, 900, Note_on_c, 0, 76, 73
2, 900, Note_on_c, 0, 49, 59
2, 900, Note_on_c, 0, 52, 59
2, 900, Note_on_c, 0, 59, 59
2, 900, Note_on_c, 0, 61, 59
2, 1080, Note_on_c, 0, 61, 0
2, 1080, Note_on_c, 0, 49, 0
2, 1080, Note_on_c, 0, 43, 0
2, 1080, Note_on_c, 0, 64, 0
2, 1080, Note_on_c, 0, 55, 0
2, 1080, Note_on_c, 0, 71, 0
2, 1080, Note_on_c, 0, 31, 0
2, 1080, Note_on_c, 0, 52, 0
2, 1080, Note_on_c, 0, 76, 0
2, 1080, Note_on_c, 0, 73, 0
2, 1080, Note_on_c, 0, 59, 0
2, 1440, Note_on_c, 0, 66, 117
2, 1440, Note_on_c, 0, 42, 96
2, 1440, Note_on_c, 0, 54, 96
2, 1800, Note_on_c, 0, 66, 69
2, 1800, Note_on_c, 0, 73, 69
2, 1800, Note_on_c, 0, 78, 69
2, 1800, Note_on_c, 0, 57, 69
2, 1800, Note_on_c, 0, 61, 69
2, 1800, Note_on_c, 0, 69, 69
2, 2115, Note_on_c, 0, 54, 0
2, 2115, Note_on_c, 0, 66, 0
2, 2115, Note_on_c, 0, 42, 0
2, 2115, Note_on_c, 0, 56, 117
2, 2115, Note_on_c, 0, 32, 80
2, 2115, Note_on_c, 0, 44, 80
2, 2117, Note_on_c, 0, 57, 0
2, 2117, Note_on_c, 0, 61, 0
2, 2117, Note_on_c, 0, 69, 0
2, 2117, Note_on_c, 0, 73, 0
2, 2117, Note_on_c, 0, 78, 0
2, 2117, Note_on_c, 0, 66, 0
2, 2160, Note_on_c, 0, 44, 0
2, 2160, Note_on_c, 0, 32, 0
2, 2160, Note_on_c, 0, 56, 0
2, 2160, Note_on_c, 0, 60, 117
2, 2160, Note_on_c, 0, 36, 93
2, 2160, Note_on_c, 0, 48, 93
2, 2340, Note_on_c, 0, 69, 76
2, 2340, Note_on_c, 0, 76, 76
2, 2340, Note_on_c, 0, 78, 76
2, 2340, Note_on_c, 0, 81, 76
2, 2340, Note_on_c, 0, 54, 61
2, 2340, Note_on_c, 0, 57, 61
2, 2340, Note_on_c, 0, 64, 61
2, 2340, Note_on_c, 0, 66, 61
2, 2520, Note_on_c, 0, 66, 0
2, 2520, Note_on_c, 0, 54, 0
2, 2520, Note_on_c, 0, 48, 0
2, 2520, Note_on_c, 0, 69, 0
2, 2520, Note_on_c, 0, 60, 0
2, 2520, Note_on_c, 0, 76, 0
2, 2520, Note_on_c, 0, 36, 0
2, 2520, Note_on_c, 0, 57, 0
2, 2520, Note_on_c, 0, 81, 0
2, 2520, Note_on_c, 0, 78, 0
2, 2520, Note_on_c, 0, 64, 0
2, 2880, Note_on_c, 0, 76, 117
2, 2880, Note_on_c, 0, 52, 111
2, 2880, Note_on_c, 0, 64, 111
2, 3240, Note_on_c, 0, 70, 70
2, 3240, Note_on_c, 0, 73, 70
2, 3240, Note_on_c, 0, 80, 70
2, 3240, Note_on_c, 0, 82, 70
2, 3240, Note_on_c, 0, 56, 77
2, 3240, Note_on_c, 0, 58, 77
2, 3240, Note_on_c, 0, 61, 77
2, 3240, Note_on_c, 0, 68, 77
2, 3557, Note_on_c, 0, 68, 0
2, 3557, Note_on_c, 0, 56, 0
2, 3557, Note_on_c, 0, 61, 0
2, 3557, Note_on_c, 0, 82, 0
2, 3557, Note_on_c, 0, 70, 0
2, 3557, Note_on_c, 0, 73, 0
2, 3557, Note_on_c, 0, 58, 0
2, 3557, Note_on_c, 0, 80, 0
2, 3600, Note_on_c, 0, 64, 0
2, 3600, Note_on_c, 0, 76, 0
2, 3600, Note_on_c, 0, 52, 0
2, 3600, Note_on_c, 0, 63, 117
2, 3600, Note_on_c, 0, 75, 117
2, 3600, Note_on_c, 0, 39, 84
2, 3600, Note_on_c, 0, 51, 84
2, 3960, Note_on_c, 0, 72, 73
2, 3960, Note_on_c, 0, 78, 73
2, 3960, Note_on_c, 0, 80, 73
2, 3960, Note_on_c, 0, 84, 73
2, 3960, Note_on_c, 0, 54, 73
2, 3960, Note_on_c, 0, 56, 73
2, 3960, Note_on_c, 0, 60, 73
2, 3960, Note_on_c, 0, 66, 73
2, 4277, Note_on_c, 0, 66, 0
2, 4277, Note_on_c, 0, 56, 0
2, 4277, Note_on_c, 0, 84, 0
2, 4277, Note_on_c, 0, 80, 0
2, 4277, Note_on_c, 0, 54, 0
2, 4277, Note_on_c, 0, 60, 0
2, 4277, Note_on_c, 0, 72, 0
2, 4277, Note_on_c, 0, 78, 0
2, 4320, Note_on_c, 0, 39, 0
2, 4320, Note_on_c, 0, 75, 0
2, 4320, Note_on_c, 0, 63, 0
2, 4320, Note_on_c, 0, 51, 0
2, 4320, Note_on_c, 0, 61, 117
2, 4320, Note_on_c, 0, 73, 117
2, 4320, Note_on_c, 0, 37, 85
2, 4320, Note_on_c, 0, 49, 85
2, 4500, Note_on_c, 0, 73, 71
2, 4500, Note_on_c, 0, 76, 71
2, 4500, Note_on_c, 0, 80, 71
2, 4500, Note_on_c, 0, 85, 71
2, 4500, Note_on_c, 0, 52, 69
2, 4500, Note_on_c, 0, 56, 69
2, 4500, Note_on_c, 0, 61, 69
2, 4500, Note_on_c, 0, 64, 69
2, 4974, Note_on_c, 0, 64, 0
2, 4974, Note_on_c, 0, 52, 0
2, 4974, Note_on_c, 0, 80, 0
2, 4974, Note_on_c, 0, 61, 0
2, 4974, Note_on_c, 0, 85, 0
2, 4974, Note_on_c, 0, 56, 0
2, 4974, Note_on_c, 0, 73, 0
2, 4974, Note_on_c, 0, 76, 0
2, 5040, Note_on_c, 0, 73, 0
2, 5040, Note_on_c, 0, 61, 0
2, 5040, Note_on_c, 0, 49, 0
2, 5040, Note_on_c, 0, 37, 0
2, 5310, Note_on_c, 0, 25, 62
2, 5310, Note_on_c, 0, 37, 62
2, 5400, Note_on_c, 0, 37, 0
2, 5400, Note_on_c, 0, 25, 0
2, 5400, Note_on_c, 0, 44, 73
2, 5400, Note_on_c, 0, 56, 73
2, 5459, Note_on_c, 0, 56, 0
2, 5459, Note_on_c, 0, 44, 0
2, 5459, Note_on_c, 0, 49, 59
2, 5520, Note_on_c, 0, 49, 0
2, 5520, Note_on_c, 0, 44, 62
2, 5580, Note_on_c, 0, 44, 0
2, 5580, Note_on_c, 0, 37, 58
2, 5639, Note_on_c, 0, 37, 0
2, 5639, Note_on_c, 0, 25, 56
2, 5700, Note_on_c, 0, 25, 0
2, 5700, Note_on_c, 0, 44, 74
2, 5760, Note_on_c, 0, 44, 0
2, 5760, Note_on_c, 0, 52, 83
2, 5760, Note_on_c, 0, 64, 83
2, 5760, Note_on_c, 0, 56, 77
2, 5819, Note_on_c, 0, 56, 0
2, 5819, Note_on_c, 0, 49, 59
2, 5880, Note_on_c, 0, 49, 0
2, 5880, Note_on_c, 0, 44, 65
2, 5940, Note_on_c, 0, 44, 0
2, 5940, Note_on_c, 0, 37, 60
2, 5999, Note_on_c, 0, 37, 0
2, 5999, Note_on_c, 0, 25, 56
2, 6060, Note_on_c, 0, 25, 0
2, 6060, Note_on_c, 0, 44, 73
2, 6120, Note_on_c, 0, 44, 0
2, 6120, Note_on_c, 0, 64, 0
2, 6120, Note_on_c, 0, 52, 0
2, 6120, Note_on_c, 0, 52, 91
2, 6120, Note_on_c, 0, 64, 91
2, 6120, Note_on_c, 0, 56, 76
2, 6179, Note_on_c, 0, 56, 0
2, 6179, Note_on_c, 0, 49, 57
2, 6240, Note_on_c, 0, 49, 0
2, 6240, Note_on_c, 0, 44, 63
2, 6300, Note_on_c, 0, 44, 0
2, 6300, Note_on_c, 0, 37, 55
2, 6359, Note_on_c, 0, 37, 0
2, 6359, Note_on_c, 0, 25, 56
2, 6420, Note_on_c, 0, 25, 0
2, 6420, Note_on_c, 0, 44, 73
2, 6480, Note_on_c, 0, 44, 0
2, 6480, Note_on_c, 0, 64, 0
2, 6480, Note_on_c, 0, 52, 0
2, 6480, Note_on_c, 0, 52, 82
2, 6480, Note_on_c, 0, 64, 82
2, 6480, Note_on_c, 0, 56, 76
2, 6539, Note_on_c, 0, 56, 0
2, 6539, Note_on_c, 0, 49, 60
2, 6600, Note_on_c, 0, 49, 0
2, 6600, Note_on_c, 0, 44, 64
2, 6660, Note_on_c, 0, 44, 0
2, 6660, Note_on_c, 0, 37, 56
2, 6719, Note_on_c, 0, 37, 0
2, 6719, Note_on_c, 0, 25, 55
2, 6780, Note_on_c, 0, 25, 0
2, 6780, Note_on_c, 0, 44, 69
2, 6840, Note_on_c, 0, 44, 0
2, 6840, Note_on_c, 0, 64, 0
2, 6840, Note_on_c, 0, 52, 0
2, 6840, Note_on_c, 0, 52, 92
2, 6840, Note_on_c, 0, 64, 92
2, 6840, Note_on_c, 0, 56, 72
2, 6899, Note_on_c, 0, 56, 0
2, 6899, Note_on_c, 0, 49, 56
2, 6960, Note_on_c, 0, 49, 0
2, 6960, Note_on_c, 0, 44, 63
2, 7020, Note_on_c, 0, 44, 0
2, 7020, Note_on_c, 0, 37, 58
2, 7079, Note_on_c, 0, 37, 0
2, 7079, Note_on_c, 0, 25, 52
2, 7140, Note_on_c, 0, 25, 0
2, 7140, Note_on_c, 0, 44, 72
2, 7200, Note_on_c, 0, 44, 0
2, 7200, Note_on_c, 0, 64, 0
2, 7200, Note_on_c, 0, 52, 0
2, 7200, Note_on_c, 0, 56, 96
2, 7200, Note_on_c, 0, 61, 96
2, 7200, Note_on_c, 0, 49, 72
2, 7200, Note_on_c, 0, 49, 87
2, 7259, Note_on_c, 0, 49, 0
2, 7259, Note_on_c, 0, 44, 64
2, 7320, Note_on_c, 0, 44, 0
2, 7320, Note_on_c, 0, 65, 66
2, 7320, Note_on_c, 0, 69, 66
2, 7320, Note_on_c, 0, 77, 66
2, 7320, Note_on_c, 0, 37, 57
2, 7380, Note_on_c, 0, 37, 0
2, 7380, Note_on_c, 0, 69, 0
2, 7380, Note_on_c, 0, 65, 0
2, 7380, Note_on_c, 0, 77, 0
2, 7380, Note_on_c, 0, 64, 69
2, 7380, Note_on_c, 0, 73, 69
2, 7380, Note_on_c, 0, 76, 69
2, 7380, Note_on_c, 0, 25, 55
2, 7439, Note_on_c, 0, 25, 0
2, 7439, Note_on_c, 0, 37, 75
2, 7500, Note_on_c, 0, 37, 0
2, 7500, Note_on_c, 0, 44, 73
2, 7560, Note_on_c, 0, 44, 0
2, 7560, Note_on_c, 0, 56, 77
2, 7619, Note_on_c, 0, 56, 0
2, 7619, Note_on_c, 0, 49, 62
2, 7680, Note_on_c, 0, 73, 0
2, 7680, Note_on_c, 0, 49, 0
2, 7680, Note_on_c, 0, 64, 0
2, 7680, Note_on_c, 0, 76, 0
2, 7680, Note_on_c, 0, 65, 75
2, 7680, Note_on_c, 0, 69, 75
2, 7680, Note_on_c, 0, 77, 75
2, 7680, Note_on_c, 0, 44, 57
2, 7740, Note_on_c, 0, 44, 0
2, 7740, Note_on_c, 0, 69, 0
2, 7740, Note_on_c, 0, 65, 0
2, 7740, Note_on_c, 0, 77, 0
2, 7740, Note_on_c, 0, 64, 73
2, 7740, Note_on_c, 0, 73, 73
2, 7740, Note_on_c, 0, 76, 73
2, 7740, Note_on_c, 0, 37, 58
2, 7799, Note_on_c, 0, 37, 0
2, 7799, Note_on_c, 0, 25, 57
2, 7860, Note_on_c, 0, 25, 0
2, 7860, Note_on_c, 0, 44, 73
2, 7920, Note_on_c, 0, 44, 0
2, 7920, Note_on_c, 0, 56, 76
2, 7979, Note_on_c, 0, 56, 0
2, 7979, Note_on_c, 0, 49, 61
2, 8040, Note_on_c, 0, 73, 0
2, 8040, Note_on_c, 0, 64, 0
2, 8040, Note_on_c, 0, 49, 0
2, 8040, Note_on_c, 0, 76, 0
2, 8040, Note_on_c, 0, 65, 77
2, 8040, Note_on_c, 0, 69, 77
2, 8040, Note_on_c, 0, 77, 77
2, 8040, Note_on_c, 0, 44, 62
2, 8100, Note_on_c, 0, 44, 0
2, 8100, Note_on_c, 0, 69, 0
2, 8100, Note_on_c, 0, 65, 0
2, 8100, Note_on_c, 0, 77, 0
2, 8100, Note_on_c, 0, 64, 78
2, 8100, Note_on_c, 0, 73, 78
2, 8100, Note_on_c, 0, 76, 78
2, 8100, Note_on_c, 0, 37, 58
2, 8159, Note_on_c, 0, 37, 0
2, 8159, Note_on_c, 0, 25, 55
2, 8220, Note_on_c, 0, 25, 0
2, 8220, Note_on_c, 0, 44, 76
2, 8280, Note_on_c, 0, 44, 0
2, 8280, Note_on_c, 0, 56, 73
2, 8339, Note_on_c, 0, 56, 0
2, 8339, Note_on_c, 0, 49, 62
2, 8400, Note_on_c, 0, 73, 0
2, 8400, Note_on_c, 0, 64, 0
2, 8400, Note_on_c, 0, 49, 0
2, 8400, Note_on_c, 0, 76, 0
2, 8400, Note_on_c, 0, 65, 82
2, 8400, Note_on_c, 0, 69, 82
2, 8400, Note_on_c, 0, 77, 82
2, 8400, Note_on_c, 0, 44, 60
2, 8460, Note_on_c, 0, 44, 0
2, 8460, Note_on_c, 0, 69, 0
2, 8460, Note_on_c, 0, 65, 0
2, 8460, Note_on_c, 0, 77, 0
2, 8460, Note_on_c, 0, 64, 83
2, 8460, Note_on_c, 0, 73, 83
2, 8460, Note_on_c, 0, 76, 83
2, 8460, Note_on_c, 0, 37, 59
2, 8519, Note_on_c, 0, 37, 0
2, 8519, Note_on_c, 0, 25, 53
2, 8580, Note_on_c, 0, 25, 0
2, 8580, Note_on_c, 0, 44, 72
2, 8640, Note_on_c, 0, 44, 0
2, 8640, Note_on_c, 0, 61, 0
2, 8640, Note_on_c, 0, 56, 0
2, 8640, Note_on_c, 0, 49, 0
2, 8640, Note_on_c, 0, 56, 75
2, 8699, Note_on_c, 0, 56, 0
2, 8699, Note_on_c, 0, 49, 61
2, 8730, Note_on_c, 0, 76, 0
2, 8730, Note_on_c, 0, 64, 0
2, 8730, Note_on_c, 0, 73, 0
2, 8730, Note_on_c, 0, 65, 87
2, 8730, Note_on_c, 0, 69, 87
2, 8730, Note_on_c, 0, 77, 87
2, 8760, Note_on_c, 0, 49, 0
2, 8760, Note_on_c, 0, 44, 67
2, 8820, Note_on_c, 0, 44, 0
2, 8820, Note_on_c, 0, 77, 0
2, 8820, Note_on_c, 0, 69, 0
2, 8820, Note_on_c, 0, 65, 0
2, 8820, Note_on_c, 0, 64, 88
2, 8820, Note_on_c, 0, 73, 88
2, 8820, Note_on_c, 0, 76, 88
2, 8820, Note_on_c, 0, 37, 59
2, 8879, Note_on_c, 0, 37, 0
2, 8879, Note_on_c, 0, 25, 57
2, 8910, Note_on_c, 0, 64, 0
2, 8910, Note_on_c, 0, 76, 0
2, 8910, Note_on_c, 0, 73, 0
2, 8910, Note_on_c, 0, 65, 89
2, 8910, Note_on_c, 0, 69, 89
2, 8910, Note_on_c, 0, 77, 89
2, 8940, Note_on_c, 0, 25, 0
2, 8940, Note_on_c, 0, 44, 76
2, 9000, Note_on_c, 0, 44, 0
2, 9000, Note_on_c, 0, 77, 0
2, 9000, Note_on_c, 0, 69, 0
2, 9000, Note_on_c, 0, 65, 0
2, 9000, Note_on_c, 0, 64, 90
2, 9000, Note_on_c, 0, 73, 90
2, 9000, Note_on_c, 0, 76, 90
2, 9000, Note_on_c, 0, 56, 76
2, 9059, Note_on_c, 0, 56, 0
2, 9059, Note_on_c, 0, 49, 59
2, 9090, Note_on_c, 0, 64, 0
2, 9090, Note_on_c, 0, 76, 0
2, 9090, Note_on_c, 0, 73, 0
2, 9090, Note_on_c, 0, 65, 91
2, 9090, Note_on_c, 0, 69, 91
2, 9090, Note_on_c, 0, 77, 91
2, 9120, Note_on_c, 0, 49, 0
2, 9120, Note_on_c, 0, 44, 60
2, 9180, Note_on_c, 0, 44, 0
2, 9180, Note_on_c, 0, 77, 0
2, 9180, Note_on_c, 0, 69, 0
2, 9180, Note_on_c, 0, 65, 0
2, 9180, Note_on_c, 0, 64, 93
2, 9180, Note_on_c, 0, 73, 93
2, 9180, Note_on_c, 0, 76, 93
2, 9180, Note_on_c, 0, 37, 58
2, 9239, Note_on_c, 0, 37, 0
2, 9239, Note_on_c, 0, 25, 56
2, 9270, Note_on_c, 0, 64, 0
2, 9270, Note_on_c, 0, 76, 0
2, 9270, Note_on_c, 0, 73, 0
2, 9270, Note_on_c, 0, 65, 94
2, 9270, Note_on_c, 0, 69, 94
2, 9270, Note_on_c, 0, 77, 94
2, 9300, Note_on_c, 0, 25, 0
2, 9300, Note_on_c, 0, 44, 79
2, 9360, Note_on_c, 0, 44, 0
2, 9360, Note_on_c, 0, 77, 0
2, 9360, Note_on_c, 0, 69, 0
2, 9360, Note_on_c, 0, 65, 0
2, 9360, Note_on_c, 0, 64, 95
2, 9360, Note_on_c, 0, 73, 95
2, 9360, Note_on_c, 0, 76, 95
2, 9360, Note_on_c, 0, 56, 76
2, 9419, Note_on_c, 0, 56, 0
2, 9419, Note_on_c, 0, 49, 59
2, 9450, Note_on_c, 0, 64, 0
2, 9450, Note_on_c, 0, 76, 0
2, 9450, Note_on_c, 0, 73, 0
2, 9450, Note_on_c, 0, 65, 96
2, 9450, Note_on_c, 0, 69, 96
2, 9450, Note_on_c, 0, 77, 96
2, 9480, Note_on_c, 0, 49, 0
2, 9480, Note_on_c, 0, 44, 60
2, 9540, Note_on_c, 0, 44, 0
2, 9540, Note_on_c, 0, 77, 0
2, 9540, Note_on_c, 0, 69, 0
2, 9540, Note_on_c, 0, 65, 0
2, 9540, Note_on_c, 0, 64, 97
2, 9540, Note_on_c, 0, 73, 97
2, 9540, Note_on_c, 0, 76, 97
2, 9540, Note_on_c, 0, 37, 58
2, 9599, Note_on_c, 0, 37, 0
2, 9599, Note_on_c, 0, 25, 47
2, 9630, Note_on_c, 0, 64, 0
2, 9630, Note_on_c, 0, 76, 0
2, 9630, Note_on_c, 0, 73, 0
2, 9630, Note_on_c, 0, 65, 99
2, 9630, Note_on_c, 0, 69, 99
2, 9630, Note_on_c, 0, 77, 99
2, 9660, Note_on_c, 0, 25, 0
2, 9660, Note_on_c, 0, 44, 75
2, 9720, Note_on_c, 0, 44, 0
2, 9720, Note_on_c, 0, 77, 0
2, 9720, Note_on_c, 0, 69, 0
2, 9720, Note_on_c, 0, 65, 0
2, 9720, Note_on_c, 0, 64, 112
2, 9720, Note_on_c, 0, 73, 112
2, 9720, Note_on_c, 0, 76, 112
2, 9720, Note_on_c, 0, 49, 77
2, 9720, Note_on_c, 0, 52, 77
2, 9720, Note_on_c, 0, 56, 77
2, 9900, Note_on_c, 0, 56, 0
2, 9900, Note_on_c, 0, 73, 0
2, 9900, Note_on_c, 0, 76, 0
2, 9900, Note_on_c, 0, 64, 0
2, 9900, Note_on_c, 0, 52, 0
2, 9900, Note_on_c, 0, 49, 0
2, 11520, Note_on_c, 0, 64, 116
2, 11520, Note_on_c, 0, 40, 87
2, 11520, Note_on_c, 0, 52, 87
2, 11866, Note_on_c, 0, 61, 89
2, 11866, Note_on_c, 0, 68, 89
2, 11866, Note_on_c, 0, 73, 89
2, 11866, Note_on_c, 0, 49, 55
2, 11866, Note_on_c, 0, 56, 55
2, 11880, Note_on_c, 0, 56, 0
2, 11880, Note_on_c, 0, 49, 0
2, 11880, Note_on_c, 0, 68, 0
2, 11880, Note_on_c, 0, 61, 0
2, 11880, Note_on_c, 0, 73, 0
2, 11880, Note_on_c, 0, 61, 109
2, 11880, Note_on_c, 0, 68, 109
2, 11880, Note_on_c, 0, 73, 109
2, 11880, Note_on_c, 0, 49, 76
2, 11880, Note_on_c, 0, 56, 76
2, 12150, Note_on_c, 0, 64, 0
2, 12150, Note_on_c, 0, 40, 0
2, 12150, Note_on_c, 0, 52, 0
2, 12150, Note_on_c, 0, 53, 89
2, 12150, Note_on_c, 0, 41, 59
2, 12180, Note_on_c, 0, 41, 0
2, 12180, Note_on_c, 0, 53, 0
2, 12180, Note_on_c, 0, 54, 99
2, 12180, Note_on_c, 0, 42, 65
2, 12197, Note_on_c, 0, 49, 0
2, 12197, Note_on_c, 0, 61, 0
2, 12197, Note_on_c, 0, 56, 0
2, 12197, Note_on_c, 0, 68, 0
2, 12197, Note_on_c, 0, 73, 0
2, 12209, Note_on_c, 0, 42, 0
2, 12209, Note_on_c, 0, 54, 0
2, 12209, Note_on_c, 0, 56, 106
2, 12209, Note_on_c, 0, 44, 69
2, 12240, Note_on_c, 0, 44, 0
2, 12240, Note_on_c, 0, 56, 0
2, 12240, Note_on_c, 0, 57, 117
2, 12240, Note_on_c, 0, 33, 90
2, 12240, Note_on_c, 0, 45, 90
2, 12420, Note_on_c, 0, 73, 108
2, 12420, Note_on_c, 0, 76, 108
2, 12420, Note_on_c, 0, 81, 108
2, 12420, Note_on_c, 0, 85, 108
2, 12420, Note_on_c, 0, 52, 60
2, 12420, Note_on_c, 0, 57, 60
2, 12420, Note_on_c, 0, 61, 60
2, 12420, Note_on_c, 0, 64, 60
2, 12600, Note_on_c, 0, 64, 0
2, 12600, Note_on_c, 0, 52, 0
2, 12600, Note_on_c, 0, 45, 0
2, 12600, Note_on_c, 0, 73, 0
2, 12600, Note_on_c, 0, 57, 0
2, 12600, Note_on_c, 0, 76, 0
2, 12600, Note_on_c, 0, 33, 0
2, 12600, Note_on_c, 0, 57, 0
2, 12600, Note_on_c, 0, 85, 0
2, 12600, Note_on_c, 0, 81, 0
2, 12600, Note_on_c, 0, 61, 0
2, 12960, Note_on_c, 0, 61, 117
2, 12960, Note_on_c, 0, 73, 117
2, 12960, Note_on_c, 0, 49, 86
2, 13306, Note_on_c, 0, 64, 84
2, 13306, Note_on_c, 0, 69, 84
2, 13306, Note_on_c, 0, 76, 84
2, 13306, Note_on_c, 0, 52, 58
2, 13306, Note_on_c, 0, 57, 58
2, 13320, Note_on_c, 0, 57, 0
2, 13320, Note_on_c, 0, 52, 0
2, 13320, Note_on_c, 0, 69, 0
2, 13320, Note_on_c, 0, 64, 0
2, 13320, Note_on_c, 0, 76, 0
2, 13320, Note_on_c, 0, 64, 110
2, 13320, Note_on_c, 0, 69, 110
2, 13320, Note_on_c, 0, 76, 110
2, 13320, Note_on_c, 0, 52, 75
2, 13320, Note_on_c, 0, 57, 75
2, 13590, Note_on_c, 0, 61, 0
2, 13590, Note_on_c, 0, 73, 0
2, 13590, Note_on_c, 0, 49, 0
2, 13590, Note_on_c, 0, 63, 77
2, 13590, Note_on_c, 0, 51, 65
2, 13620, Note_on_c, 0, 51, 0
2, 13620, Note_on_c, 0, 63, 0
2, 13620, Note_on_c, 0, 64, 106
2, 13620, Note_on_c, 0, 52, 66
2, 13637, Note_on_c, 0, 52, 0
2, 13637, Note_on_c, 0, 64, 0
2, 13637, Note_on_c, 0, 57, 0
2, 13637, Note_on_c, 0, 69, 0
2, 13637, Note_on_c, 0, 76, 0
2, 13649, Note_on_c, 0, 52, 0
2, 13649, Note_on_c, 0, 64, 0
2, 13649, Note_on_c, 0, 66, 109
2, 13649, Note_on_c, 0, 54, 67
2, 13680, Note_on_c, 0, 54, 0
2, 13680, Note_on_c, 0, 66, 0
2, 13680, Note_on_c, 0, 67, 117
2, 13680, Note_on_c, 0, 43, 92
2, 13680, Note_on_c, 0, 55, 92
2, 13860, Note_on_c, 0, 76, 105
2, 13860, Note_on_c, 0, 83, 105
2, 13860, Note_on_c, 0, 85, 105
2, 13860, Note_on_c, 0, 88, 105
2, 13860, Note_on_c, 0, 61, 61
2, 13860, Note_on_c, 0, 64, 61
2, 13860, Note_on_c, 0, 71, 61
2, 14040, Note_on_c, 0, 71, 0
2, 14040, Note_on_c, 0, 55, 0
2, 14040, Note_on_c, 0, 76, 0
2, 14040, Note_on_c, 0, 67, 0
2, 14040, Note_on_c, 0, 83, 0
2, 14040, Note_on_c, 0, 43, 0
2, 14040, Note_on_c, 0, 61, 0
2, 14040, Note_on_c, 0, 88, 0
2, 14040, Note_on_c, 0, 85, 0
2, 14040, Note_on_c, 0, 64, 0
2, 14310, Note_on_c, 0, 71, 86
2, 14310, Note_on_c, 0, 47, 59
2, 14310, Note_on_c, 0, 59, 59
2, 14340, Note_on_c, 0, 59, 0
2, 14340, Note_on_c, 0, 47, 0
2, 14340, Note_on_c, 0, 71, 0
2, 14340, Note_on_c, 0, 76, 108
2, 14340, Note_on_c, 0, 64, 78
2, 14369, Note_on_c, 0, 64, 0
2, 14369, Note_on_c, 0, 76, 0
2, 14369, Note_on_c, 0, 79, 110
2, 14369, Note_on_c, 0, 67, 71
2, 14400, Note_on_c, 0, 67, 0
2, 14400, Note_on_c, 0, 79, 0
2, 14400, Note_on_c, 0, 83, 117
2, 14400, Note_on_c, 0, 59, 100
2, 14400, Note_on_c, 0, 71, 100
2, 14760, Note_on_c, 0, 77, 99
2, 14760, Note_on_c, 0, 80, 99
2, 14760, Note_on_c, 0, 87, 99
2, 14760, Note_on_c, 0, 89, 99
2, 14760, Note_on_c, 0, 63, 71
2, 14760, Note_on_c, 0, 65, 71
2, 14760, Note_on_c, 0, 68, 71
2, 14760, Note_on_c, 0, 75, 71
2, 15077, Note_on_c, 0, 75, 0
2, 15077, Note_on_c, 0, 63, 0
2, 15077, Note_on_c, 0, 68, 0
2, 15077, Note_on_c, 0, 89, 0
2, 15077, Note_on_c, 0, 77, 0
2, 15077, Note_on_c, 0, 80, 0
2, 15077, Note_on_c, 0, 65, 0
2, 15077, Note_on_c, 0, 87, 0
2, 15120, Note_on_c, 0, 71, 0
2, 15120, Note_on_c, 0, 83, 0
2, 15120, Note_on_c, 0, 59, 0
2, 15120, Note_on_c, 0, 82, 117
2, 15120, Note_on_c, 0, 58, 84
2, 15120, Note_on_c, 0, 70, 84
2, 15480, Note_on_c, 0, 79, 101
2, 15480, Note_on_c, 0, 85, 101
2, 15480, Note_on_c, 0, 87, 101
2, 15480, Note_on_c, 0, 91, 101
2, 15480, Note_on_c, 0, 61, 69
2, 15480, Note_on_c, 0, 63, 69
2, 15480, Note_on_c, 0, 67, 69
2, 15480, Note_on_c, 0, 73, 69
2, 15797, Note_on_c, 0, 73, 0
2, 15797, Note_on_c, 0, 61, 0
2, 15797, Note_on_c, 0, 67, 0
2, 15797, Note_on_c, 0, 91, 0
2, 15797, Note_on_c, 0, 79, 0
2, 15797, Note_on_c, 0, 85, 0
2, 15797, Note_on_c, 0, 63, 0
2, 15797, Note_on_c, 0, 87, 0
2, 15840, Note_on_c, 0, 70, 0
2, 15840, Note_on_c, 0, 82, 0
2, 15840, Note_on_c, 0, 58, 0
2, 15840, Note_on_c, 0, 68, 101
2, 15840, Note_on_c, 0, 75, 101
2, 15840, Note_on_c, 0, 80, 101
2, 15840, Note_on_c, 0, 56, 94
2, 15840, Note_on_c, 0, 63, 94
2, 15840, Note_on_c, 0, 71, 94
2, 16020, Note_on_c, 0, 80, 114
2, 16020, Note_on_c, 0, 87, 114
2, 16020, Note_on_c, 0, 92, 114
2, 16020, Note_on_c, 0, 68, 79
2, 16020, Note_on_c, 0, 75, 79
2, 16020, Note_on_c, 0, 83, 79
2, 16920, Note_on_c, 0, 83, 0
2, 16920, Note_on_c, 0, 75, 0
2, 16920, Note_on_c, 0, 87, 0
2, 16920, Note_on_c, 0, 80, 0
2, 16920, Note_on_c, 0, 56, 0
2, 16920, Note_on_c, 0, 68, 0
2, 16920, Note_on_c, 0, 63, 0
2, 16920, Note_on_c, 0, 71, 0
2, 16920, Note_on_c, 0, 92, 0
2, 16920, Note_on_c, 0, 80, 0
2, 16920, Note_on_c, 0, 75, 0
2, 16920, Note_on_c, 0, 68, 0
2, 17010, Note_on_c, 0, 88, 92
2, 17010, Note_on_c, 0, 76, 74
2, 17055, Note_on_c, 0, 76, 0
2, 17055, Note_on_c, 0, 88, 0
2, 17055, Note_on_c, 0, 87, 96
2, 17055, Note_on_c, 0, 75, 61
2, 17100, Note_on_c, 0, 75, 0
2, 17100, Note_on_c, 0, 87, 0
2, 17100, Note_on_c, 0, 85, 96
2, 17100, Note_on_c, 0, 73, 55
2, 17145, Note_on_c, 0, 73, 0
2, 17145, Note_on_c, 0, 85, 0
2, 17145, Note_on_c, 0, 83, 93
2, 17145, Note_on_c, 0, 71, 61
2, 17190, Note_on_c, 0, 71, 0
2, 17190, Note_on_c, 0, 83, 0
2, 17190, Note_on_c, 0, 82, 102
2, 17190, Note_on_c, 0, 70, 63
2, 17235, Note_on_c, 0, 70, 0
2, 17235, Note_on_c, 0, 82, 0
2, 17235, Note_on_c, 0, 80, 95
2, 17235, Note_on_c, 0, 68, 62
2, 17280, Note_on_c, 0, 68, 0
2, 17280, Note_on_c, 0, 80, 0
2, 17280, Note_on_c, 0, 79, 98
2, 17280, Note_on_c, 0, 67, 55
2, 17325, Note_on_c, 0, 67, 0
2, 17325, Note_on_c, 0, 79, 0
2, 17325, Note_on_c, 0, 80, 107
2, 17325, Note_on_c, 0, 68, 74
2, 17370, Note_on_c, 0, 68, 0
2, 17370, Note_on_c, 0, 80, 0
2, 17370, Note_on_c, 0, 88, 116
2, 17370, Note_on_c, 0, 76, 88
2, 17415, Note_on_c, 0, 76, 0
2, 17415, Note_on_c, 0, 88, 0
2, 17415, Note_on_c, 0, 87, 99
2, 17415, Note_on_c, 0, 75, 64
2, 17460, Note_on_c, 0, 75, 0
2, 17460, Note_on_c, 0, 87, 0
2, 17460, Note_on_c, 0, 85, 94
2, 17460, Note_on_c, 0, 73, 59
2, 17505, Note_on_c, 0, 73, 0
2, 17505, Note_on_c, 0, 85, 0
2, 17505, Note_on_c, 0, 83, 94
2, 17505, Note_on_c, 0, 71, 61
2, 17550, Note_on_c, 0, 71, 0
2, 17550, Note_on_c, 0, 83, 0
2, 17550, Note_on_c, 0, 82, 98
2, 17550, Note_on_c, 0, 70, 58
2, 17595, Note_on_c, 0, 70, 0
2, 17595, Note_on_c, 0, 82, 0
2, 17595, Note_on_c, 0, 80, 92
2, 17595, Note_on_c, 0, 68, 58
2, 17640, Note_on_c, 0, 68, 0
2, 17640, Note_on_c, 0, 80, 0
2, 17640, Note_on_c, 0, 78, 95
2, 17640, Note_on_c, 0, 66, 62
2, 17685, Note_on_c, 0, 66, 0
2, 17685, Note_on_c, 0, 78, 0
2, 17685, Note_on_c, 0, 76, 95
2, 17685, Note_on_c, 0, 64, 59
2, 17730, Note_on_c, 0, 64, 0
2, 17730, Note_on_c, 0, 76, 0
2, 17730, Note_on_c, 0, 75, 100
2, 17730, Note_on_c, 0, 63, 60
2, 17775, Note_on_c, 0, 63, 0
2, 17775, Note_on_c, 0, 75, 0
2, 17775, Note_on_c, 0, 73, 96
2, 17775, Note_on_c, 0, 61, 62
2, 17820, Note_on_c, 0, 61, 0
2, 17820, Note_on_c, 0, 73, 0
2, 17820, Note_on_c, 0, 71, 95
2, 17820, Note_on_c, 0, 59, 59
2, 17865, Note_on_c, 0, 59, 0
2, 17865, Note_on_c, 0, 71, 0
2, 17865, Note_on_c, 0, 70, 96
2, 17865, Note_on_c, 0, 58, 61
2, 17910, Note_on_c, 0, 58, 0
2, 17910, Note_on_c, 0, 70, 0
2, 17910, Note_on_c, 0, 69, 99
2, 17910, Note_on_c, 0, 57, 63
2, 17955, Note_on_c, 0, 57, 0
2, 17955, Note_on_c, 0, 69, 0
2, 17955, Note_on_c, 0, 68, 96
2, 17955, Note_on_c, 0, 56, 57
2, 18000, Note_on_c, 0, 56, 0
2, 18000, Note_on_c, 0, 68, 0
2, 18000, Note_on_c, 0, 67, 93
2, 18000, Note_on_c, 0, 55, 65
2, 18045, Note_on_c, 0, 55, 0
2, 18045, Note_on_c, 0, 67, 0
2, 18045, Note_on_c, 0, 68, 110
2, 18045, Note_on_c, 0, 56, 71
2, 18090, Note_on_c, 0, 56, 0
2, 18090, Note_on_c, 0, 68, 0
2, 18090, Note_on_c, 0, 76, 116
2, 18090, Note_on_c, 0, 64, 78
2, 18135, Note_on_c, 0, 64, 0
2, 18135, Note_on_c, 0, 76, 0
2, 18135, Note_on_c, 0, 75, 99
2, 18135, Note_on_c, 0, 63, 63
2, 18180, Note_on_c, 0, 63, 0
2, 18180, Note_on_c, 0, 75, 0
2, 18180, Note_on_c, 0, 73, 94
2, 18180, Note_on_c, 0, 61, 57
2, 18225, Note_on_c, 0, 61, 0
2, 18225, Note_on_c, 0, 73, 0
2, 18225, Note_on_c, 0, 71, 96
2, 18225, Note_on_c, 0, 59, 66
2, 18270, Note_on_c, 0, 59, 0
2, 18270, Note_on_c, 0, 71, 0
2, 18270, Note_on_c, 0, 70, 96
2, 18270, Note_on_c, 0, 58, 65
2, 18315, Note_on_c, 0, 58, 0
2, 18315, Note_on_c, 0, 70, 0
2, 18315, Note_on_c, 0, 68, 95
2, 18315, Note_on_c, 0, 56, 63
2, 18360, Note_on_c, 0, 56, 0
2, 18360, Note_on_c, 0, 68, 0
2, 18360, Note_on_c, 0, 66, 89
2, 18360, Note_on_c, 0, 54, 65
2, 18405, Note_on_c, 0, 54, 0
2, 18405, Note_on_c, 0, 66, 0
2, 18405, Note_on_c, 0, 64, 98
2, 18405, Note_on_c, 0, 52, 65
2, 18450, Note_on_c, 0, 52, 0
2, 18450, Note_on_c, 0, 64, 0
2, 18450, Note_on_c, 0, 63, 96
2, 18450, Note_on_c, 0, 51, 61
2, 18495, Note_on_c, 0, 51, 0
2, 18495, Note_on_c, 0, 63, 0
2, 18495, Note_on_c, 0, 61, 92
2, 18495, Note_on_c, 0, 49, 66
2, 18540, Note_on_c, 0, 49, 0
2, 18540, Note_on_c, 0, 61, 0
2, 18540, Note_on_c, 0, 59, 98
2, 18540, Note_on_c, 0, 47, 66
2, 18585, Note_on_c, 0, 47, 0
2, 18585, Note_on_c, 0, 59, 0
2, 18585, Note_on_c, 0, 58, 98
2, 18585, Note_on_c, 0, 46, 63
2, 18630, Note_on_c, 0, 46, 0
2, 18630, Note_on_c, 0, 58, 0
2, 18630, Note_on_c, 0, 57, 99
2, 18630, Note_on_c, 0, 45, 63
2, 18675, Note_on_c, 0, 45, 0
2, 18675, Note_on_c, 0, 57, 0
2, 18675, Note_on_c, 0, 56, 98
2, 18675, Note_on_c, 0, 44, 63
2, 18720, Note_on_c, 0, 44, 0
2, 18720, Note_on_c, 0, 56, 0
2, 18720, Note_on_c, 0, 55, 97
2, 18720, Note_on_c, 0, 43, 65
2, 18765, Note_on_c, 0, 43, 0
2, 18765, Note_on_c, 0, 55, 0
2, 18765, Note_on_c, 0, 56, 107
2, 18765, Note_on_c, 0, 44, 70
2, 18810, Note_on_c, 0, 44, 0
2, 18810, Note_on_c, 0, 56, 0
2, 18810, Note_on_c, 0, 64, 116
2, 18810, Note_on_c, 0, 52, 70
2, 18855, Note_on_c, 0, 52, 0
2, 18855, Note_on_c, 0, 64, 0
2, 18855, Note_on_c, 0, 63, 104
2, 18855, Note_on_c, 0, 51, 63
2, 18900, Note_on_c, 0, 51, 0
2, 18900, Note_on_c, 0, 63, 0
2, 18900, Note_on_c, 0, 61, 97
2, 18900, Note_on_c, 0, 49, 66
2, 18945, Note_on_c, 0, 49, 0
2, 18945, Note_on_c, 0, 61, 0
2, 18945, Note_on_c, 0, 59, 98
2, 18945, Note_on_c, 0, 47, 64
2, 18990, Note_on_c, 0, 47, 0
2, 18990, Note_on_c, 0, 59, 0
2, 18990, Note_on_c, 0, 53, 96
2, 18990, Note_on_c, 0, 41, 58
2, 19035, Note_on_c, 0, 41, 0
2, 19035, Note_on_c, 0, 53, 0
2, 19035, Note_on_c, 0, 54, 105
2, 19035, Note_on_c, 0, 42, 69
2, 19080, Note_on_c, 0, 42, 0
2, 19080, Note_on_c, 0, 54, 0
2, 19080, Note_on_c, 0, 62, 116
2, 19080, Note_on_c, 0, 50, 71
2, 19125, Note_on_c, 0, 50, 0
2, 19125, Note_on_c, 0, 62, 0
2, 19125, Note_on_c, 0, 61, 100
2, 19125, Note_on_c, 0, 49, 63
2, 19170, Note_on_c, 0, 49, 0
2, 19170, Note_on_c, 0, 61, 0
2, 19170, Note_on_c, 0, 59, 100
2, 19170, Note_on_c, 0, 47, 60
2, 19215, Note_on_c, 0, 47, 0
2, 19215, Note_on_c, 0, 59, 0
2, 19215, Note_on_c, 0, 57, 95
2, 19215, Note_on_c, 0, 45, 61
2, 19260, Note_on_c, 0, 45, 0
2, 19260, Note_on_c, 0, 57, 0
2, 19260, Note_on_c, 0, 52, 98
2, 19260, Note_on_c, 0, 40, 60
2, 19305, Note_on_c, 0, 40, 0
2, 19305, Note_on_c, 0, 52, 0
2, 19305, Note_on_c, 0, 54, 105
2, 19305, Note_on_c, 0, 42, 70
2, 19350, Note_on_c, 0, 42, 0
2, 19350, Note_on_c, 0, 54, 0
2, 19350, Note_on_c, 0, 61, 116
2, 19350, Note_on_c, 0, 49, 78
2, 19395, Note_on_c, 0, 49, 0
2, 19395, Note_on_c, 0, 61, 0
2, 19395, Note_on_c, 0, 59, 105
2, 19395, Note_on_c, 0, 47, 65
2, 19440, Note_on_c, 0, 47, 0
2, 19440, Note_on_c, 0, 59, 0
2, 19440, Note_on_c, 0, 57, 101
2, 19440, Note_on_c, 0, 45, 62
2, 19485, Note_on_c, 0, 45, 0
2, 19485, Note_on_c, 0, 57, 0
2, 19485, Note_on_c, 0, 56, 98
2, 19485, Note_on_c, 0, 44, 60
2, 19530, Note_on_c, 0, 44, 0
2, 19530, Note_on_c, 0, 56, 0
2, 19530, Note_on_c, 0, 54, 98
2, 19530, Note_on_c, 0, 42, 64
2, 19575, Note_on_c, 0, 42, 0
2, 19575, Note_on_c, 0, 54, 0
2, 19575, Note_on_c, 0, 52, 98
2, 19575, Note_on_c, 0, 40, 66
2, 19620, Note_on_c, 0, 40, 0
2, 19620, Note_on_c, 0, 52, 0
2, 19620, Note_on_c, 0, 50, 102
2, 19620, Note_on_c, 0, 38, 58
2, 19665, Note_on_c, 0, 38, 0
2, 19665, Note_on_c, 0, 50, 0
2, 19665, Note_on_c, 0, 51, 105
2, 19665, Note_on_c, 0, 39, 66
2, 19710, Note_on_c, 0, 39, 0
2, 19710, Note_on_c, 0, 51, 0
2, 19710, Note_on_c, 0, 59, 111
2, 19710, Note_on_c, 0, 47, 74
2, 19755, Note_on_c, 0, 47, 0
2, 19755, Note_on_c, 0, 59, 0
2, 19755, Note_on_c, 0, 58, 104
2, 19755, Note_on_c, 0, 46, 71
2, 19800, Note_on_c, 0, 46, 0
2, 19800, Note_on_c, 0, 58, 0
2, 19800, Note_on_c, 0, 56, 96
2, 19800, Note_on_c, 0, 44, 62
2, 19845, Note_on_c, 0, 44, 0
2, 19845, Note_on_c, 0, 56, 0
2, 19845, Note_on_c, 0, 54, 101
2, 19845, Note_on_c, 0, 42, 65
2, 19890, Note_on_c, 0, 42, 0
2, 19890, Note_on_c, 0, 54, 0
2, 19890, Note_on_c, 0, 52, 99
2, 19890, Note_on_c, 0, 40, 63
2, 19935, Note_on_c, 0, 40, 0
2, 19935, Note_on_c, 0, 52, 0
2, 19935, Note_on_c, 0, 51, 102
2, 19935, Note_on_c, 0, 39, 65
2, 19980, Note_on_c, 0, 39, 0
2, 19980, Note_on_c, 0, 51, 0
2, 19980, Note_on_c, 0, 49, 97
2, 19980, Note_on_c, 0, 37, 63
2, 20025, Note_on_c, 0, 37, 0
2, 20025, Note_on_c, 0, 49, 0
2, 20025, Note_on_c, 0, 47, 99
2, 20025, Note_on_c, 0, 35, 63
2, 20070, Note_on_c, 0, 35, 0
2, 20070, Note_on_c, 0, 47, 0
2, 20070, Note_on_c, 0, 46, 100
2, 20070, Note_on_c, 0, 34, 68
2, 20115, Note_on_c, 0, 34, 0
2, 20115, Note_on_c, 0, 46, 0
2, 20115, Note_on_c, 0, 45, 105
2, 20115, Note_on_c, 0, 33, 64
2, 20160, Note_on_c, 0, 33, 0
2, 20160, Note_on_c, 0, 45, 0
2, 20160, Note_on_c, 0, 32, 112
2, 20160, Note_on_c, 0, 44, 112
2, 20430, Note_on_c, 0, 51, 60
2, 20520, Note_on_c, 0, 51, 0
2, 20520, Note_on_c, 0, 63, 84
2, 20579, Note_on_c, 0, 63, 0
2, 20579, Note_on_c, 0, 56, 66
2, 20640, Note_on_c, 0, 56, 0
2, 20640, Note_on_c, 0, 51, 62
2, 20700, Note_on_c, 0, 51, 0
2, 20700, Note_on_c, 0, 44, 60
2, 20759, Note_on_c, 0, 44, 0
2, 20759, Note_on_c, 0, 32, 55
2, 20820, Note_on_c, 0, 32, 0
2, 20820, Note_on_c, 0, 51, 72
2, 20880, Note_on_c, 0, 51, 0
2, 20880, Note_on_c, 0, 63, 85
2, 20939, Note_on_c, 0, 63, 0
2, 20939, Note_on_c, 0, 56, 58
2, 21000, Note_on_c, 0, 56, 0
2, 21000, Note_on_c, 0, 51, 56
2, 21060, Note_on_c, 0, 51, 0
2, 21060, Note_on_c, 0, 44, 63
2, 21119, Note_on_c, 0, 44, 0
2, 21119, Note_on_c, 0, 32, 55
2, 21180, Note_on_c, 0, 32, 0
2, 21180, Note_on_c, 0, 51, 75
2, 21240, Note_on_c, 0, 51, 0
2, 21240, Note_on_c, 0, 63, 87
2, 21299, Note_on_c, 0, 63, 0
2, 21299, Note_on_c, 0, 56, 66
2, 21360, Note_on_c, 0, 56, 0
2, 21360, Note_on_c, 0, 51, 62
2, 21420, Note_on_c, 0, 51, 0
2, 21420, Note_on_c, 0, 44, 55
2, 21479, Note_on_c, 0, 44, 0
2, 21479, Note_on_c, 0, 32, 52
2, 21540, Note_on_c, 0, 32, 0
2, 21540, Note_on_c, 0, 51, 74
2, 21600, Note_on_c, 0, 51, 0
2, 21600, Note_on_c, 0, 32, 0
2, 21600, Note_on_c, 0, 44, 0
2, 21600, Note_on_c, 0, 59, 114
2, 21600, Note_on_c, 0, 71, 114
2, 21600, Note_on_c, 0, 63, 91
2, 21659, Note_on_c, 0, 63, 0
2, 21659, Note_on_c, 0, 56, 62
2, 21720, Note_on_c, 0, 56, 0
2, 21720, Note_on_c, 0, 51, 60
2, 21780, Note_on_c, 0, 51, 0
2, 21780, Note_on_c, 0, 44, 59
2, 21839, Note_on_c, 0, 44, 0
2, 21839, Note_on_c, 0, 32, 53
2, 21900, Note_on_c, 0, 32, 0
2, 21900, Note_on_c, 0, 51, 71
2, 21960, Note_on_c, 0, 51, 0
2, 21960, Note_on_c, 0, 71, 0
2, 21960, Note_on_c, 0, 59, 0
2, 21960, Note_on_c, 0, 59, 117
2, 21960, Note_on_c, 0, 71, 117
2, 21960, Note_on_c, 0, 63, 91
2, 22019, Note_on_c, 0, 63, 0
2, 22019, Note_on_c, 0, 56, 68
2, 22080, Note_on_c, 0, 56, 0
2, 22080, Note_on_c, 0, 51, 60
2, 22140, Note_on_c, 0, 51, 0
2, 22140, Note_on_c, 0, 44, 59
2, 22199, Note_on_c, 0, 44, 0
2, 22199, Note_on_c, 0, 32, 55
2, 22260, Note_on_c, 0, 32, 0
2, 22260, Note_on_c, 0, 51, 75
2, 22320, Note_on_c, 0, 51, 0
2, 22320, Note_on_c, 0, 71, 0
2, 22320, Note_on_c, 0, 59, 0
2, 22320, Note_on_c, 0, 59, 117
2, 22320, Note_on_c, 0, 71, 117
2, 22320, Note_on_c, 0, 63, 83
2, 22379, Note_on_c, 0, 63, 0
2, 22379, Note_on_c, 0, 56, 64
2, 22440, Note_on_c, 0, 56, 0
2, 22440, Note_on_c, 0, 51, 61
2, 22500, Note_on_c, 0, 51, 0
2, 22500, Note_on_c, 0, 44, 57
2, 22559, Note_on_c, 0, 44, 0
2, 22559, Note_on_c, 0, 32, 50
2, 22620, Note_on_c, 0, 32, 0
2, 22620, Note_on_c, 0, 51, 74
2, 22680, Note_on_c, 0, 51, 0
2, 22680, Note_on_c, 0, 71, 0
2, 22680, Note_on_c, 0, 59, 0
2, 22680, Note_on_c, 0, 59, 117
2, 22680, Note_on_c, 0, 71, 117
2, 22680, Note_on_c, 0, 63, 83
2, 22739, Note_on_c, 0, 63, 0
2, 22739, Note_on_c, 0, 56, 63
2, 22800, Note_on_c, 0, 56, 0
2, 22800, Note_on_c, 0, 51, 64
2, 22860, Note_on_c, 0, 51, 0
2, 22860, Note_on_c, 0, 44, 57
2, 22919, Note_on_c, 0, 44, 0
2, 22919, Note_on_c, 0, 32, 56
2, 22980, Note_on_c, 0, 32, 0
2, 22980, Note_on_c, 0, 51, 71
2, 23040, Note_on_c, 0, 51, 0
2, 23040, Note_on_c, 0, 71, 0
2, 23040, Note_on_c, 0, 59, 0
2, 23040, Note_on_c, 0, 63, 102
2, 23040, Note_on_c, 0, 68, 102
2, 23040, Note_on_c, 0, 56, 73
2, 23040, Note_on_c, 0, 56, 117
2, 23099, Note_on_c, 0, 56, 0
2, 23099, Note_on_c, 0, 51, 61
2, 23160, Note_on_c, 0, 51, 0
2, 23160, Note_on_c, 0, 72, 97
2, 23160, Note_on_c, 0, 76, 97
2, 23160, Note_on_c, 0, 84, 97
2, 23160, Note_on_c, 0, 44, 60
2, 23220, Note_on_c, 0, 44, 0
2, 23220, Note_on_c, 0, 76, 0
2, 23220, Note_on_c, 0, 72, 0
2, 23220, Note_on_c, 0, 84, 0
2, 23220, Note_on_c, 0, 71, 106
2, 23220, Note_on_c, 0, 80, 106
2, 23220, Note_on_c, 0, 83, 106
2, 23220, Note_on_c, 0, 32, 52
2, 23279, Note_on_c, 0, 32, 0
2, 23279, Note_on_c, 0, 44, 74
2, 23340, Note_on_c, 0, 44, 0
2, 23340, Note_on_c, 0, 51, 70
2, 23400, Note_on_c, 0, 51, 0
2, 23400, Note_on_c, 0, 63, 88
2, 23459, Note_on_c, 0, 63, 0
2, 23459, Note_on_c, 0, 56, 64
2, 23520, Note_on_c, 0, 80, 0
2, 23520, Note_on_c, 0, 56, 0
2, 23520, Note_on_c, 0, 71, 0
2, 23520, Note_on_c, 0, 83, 0
2, 23520, Note_on_c, 0, 72, 111
2, 23520, Note_on_c, 0, 76, 111
2, 23520, Note_on_c, 0, 84, 111
2, 23520, Note_on_c, 0, 51, 62
2, 23580, Note_on_c, 0, 51, 0
2, 23580, Note_on_c, 0, 76, 0
2, 23580, Note_on_c, 0, 72, 0
2, 23580, Note_on_c, 0, 84, 0
2, 23580, Note_on_c, 0, 71, 110
2, 23580, Note_on_c, 0, 80, 110
2, 23580, Note_on_c, 0, 83, 110
2, 23580, Note_on_c, 0, 44, 58
2, 23639, Note_on_c, 0, 44, 0
2, 23639, Note_on_c, 0, 32, 57
2, 23700, Note_on_c, 0, 32, 0
2, 23700, Note_on_c, 0, 51, 68
2, 23760, Note_on_c, 0, 51, 0
2, 23760, Note_on_c, 0, 63, 89
2, 23819, Note_on_c, 0, 63, 0
2, 23819, Note_on_c, 0, 56, 61
2, 23880, Note_on_c, 0, 80, 0
2, 23880, Note_on_c, 0, 71, 0
2, 23880, Note_on_c, 0, 56, 0
2, 23880, Note_on_c, 0, 83, 0
2, 23880, Note_on_c, 0, 72, 108
2, 23880, Note_on_c, 0, 76, 108
2, 23880, Note_on_c, 0, 84, 108
2, 23880, Note_on_c, 0, 51, 60
2, 23940, Note_on_c, 0, 51, 0
2, 23940, Note_on_c, 0, 76, 0
2, 23940, Note_on_c, 0, 72, 0
2, 23940, Note_on_c, 0, 84, 0
2, 23940, Note_on_c, 0, 71, 103
2, 23940, Note_on_c, 0, 80, 103
2, 23940, Note_on_c, 0, 83, 103
2, 23940, Note_on_c, 0, 44, 54
2, 23999, Note_on_c, 0, 44, 0
2, 23999, Note_on_c, 0, 32, 53
2, 24060, Note_on_c, 0, 32, 0
2, 24060, Note_on_c, 0, 51, 78
2, 24120, Note_on_c, 0, 51, 0
2, 24120, Note_on_c, 0, 63, 86
2, 24179, Note_on_c, 0, 63, 0
2, 24179, Note_on_c, 0, 56, 60
2, 24240, Note_on_c, 0, 80, 0
2, 24240, Note_on_c, 0, 71, 0
2, 24240, Note_on_c, 0, 56, 0
2, 24240, Note_on_c, 0, 83, 0
2, 24240, Note_on_c, 0, 72, 108
2, 24240, Note_on_c, 0, 76, 108
2, 24240, Note_on_c, 0, 84, 108
2, 24240, Note_on_c, 0, 51, 62
2, 24300, Note_on_c, 0, 51, 0
2, 24300, Note_on_c, 0, 76, 0
2, 24300, Note_on_c, 0, 72, 0
2, 24300, Note_on_c, 0, 84, 0
2, 24300, Note_on_c, 0, 71, 109
2, 24300, Note_on_c, 0, 80, 109
2, 24300, Note_on_c, 0, 83, 109
2, 24300, Note_on_c, 0, 44, 59
2, 24359, Note_on_c, 0, 44, 0
2, 24359, Note_on_c, 0, 32, 55
2, 24420, Note_on_c, 0, 32, 0
2, 24420, Note_on_c, 0, 51, 74
2, 24480, Note_on_c, 0, 51, 0
2, 24480, Note_on_c, 0, 68, 0
2, 24480, Note_on_c, 0, 63, 0
2, 24480, Note_on_c, 0, 56, 0
2, 24480, Note_on_c, 0, 63, 88
2, 24539, Note_on_c, 0, 63, 0
2, 24539, Note_on_c, 0, 56, 61
2, 24570, Note_on_c, 0, 83, 0
2, 24570, Note_on_c, 0, 71, 0
2, 24570, Note_on_c, 0, 80, 0
2, 24570, Note_on_c, 0, 72, 114
2, 24570, Note_on_c, 0, 76, 114
2, 24570, Note_on_c, 0, 84, 114
2, 24600, Note_on_c, 0, 56, 0
2, 24600, Note_on_c, 0, 51, 63
2, 24660, Note_on_c, 0, 51, 0
2, 24660, Note_on_c, 0, 84, 0
2, 24660, Note_on_c, 0, 76, 0
2, 24660, Note_on_c, 0, 72, 0
2, 24660, Note_on_c, 0, 71, 115
2, 24660, Note_on_c, 0, 80, 115
2, 24660, Note_on_c, 0, 83, 115
2, 24660, Note_on_c, 0, 44, 59
2, 24719, Note_on_c, 0, 44, 0
2, 24719, Note_on_c, 0, 32, 55
2, 24750, Note_on_c, 0, 71, 0
2, 24750, Note_on_c, 0, 83, 0
2, 24750, Note_on_c, 0, 80, 0
2, 24750, Note_on_c, 0, 72, 117
2, 24750, Note_on_c, 0, 76, 117
2, 24750, Note_on_c, 0, 84, 117
2, 24780, Note_on_c, 0, 32, 0
2, 24780, Note_on_c, 0, 51, 77
2, 24840, Note_on_c, 0, 51, 0
2, 24840, Note_on_c, 0, 84, 0
2, 24840, Note_on_c, 0, 76, 0
2, 24840, Note_on_c, 0, 72, 0
2, 24840, Note_on_c, 0, 71, 117
2, 24840, Note_on_c, 0, 80, 117
2, 24840, Note_on_c, 0, 83, 117
2, 24840, Note_on_c, 0, 63, 91
2, 24899, Note_on_c, 0, 63, 0
2, 24899, Note_on_c, 0, 56, 60
2, 24930, Note_on_c, 0, 71, 0
2, 24930, Note_on_c, 0, 83, 0
2, 24930, Note_on_c, 0, 80, 0
2, 24930, Note_on_c, 0, 72, 117
2, 24930, Note_on_c, 0, 76, 117
2, 24930, Note_on_c, 0, 84, 117
2, 24960, Note_on_c, 0, 56, 0
2, 24960, Note_on_c, 0, 51, 61
2, 25020, Note_on_c, 0, 51, 0
2, 25020, Note_on_c, 0, 84, 0
2, 25020, Note_on_c, 0, 76, 0
2, 25020, Note_on_c, 0, 72, 0
2, 25020, Note_on_c, 0, 71, 117
2, 25020, Note_on_c, 0, 80, 117
2, 25020, Note_on_c, 0, 83, 117
2, 25020, Note_on_c, 0, 44, 59
2, 25079, Note_on_c, 0, 44, 0
2, 25079, Note_on_c, 0, 32, 55
2, 25110, Note_on_c, 0, 71, 0
2, 25110, Note_on_c, 0, 83, 0
2, 25110, Note_on_c, 0, 80, 0
2, 25110, Note_on_c, 0, 72, 117
2, 25110, Note_on_c, 0, 76, 117
2, 25110, Note_on_c, 0, 84, 117
2, 25140, Note_on_c, 0, 32, 0
2, 25140, Note_on_c, 0, 51, 72
2, 25200, Note_on_c, 0, 51, 0
2, 25200, Note_on_c, 0, 84, 0
2, 25200, Note_on_c, 0, 76, 0
2, 25200, Note_on_c, 0, 72, 0
2, 25200, Note_on_c, 0, 71, 117
2, 25200, Note_on_c, 0, 80, 117
2, 25200, Note_on_c, 0, 83, 117
2, 25200, Note_on_c, 0, 63, 89
2, 25259, Note_on_c, 0, 63, 0
2, 25259, Note_on_c, 0, 56, 64
2, 25290, Note_on_c, 0, 71, 0
2, 25290, Note_on_c, 0, 83, 0
2, 25290, Note_on_c, 0, 80, 0
2, 25290, Note_on_c, 0, 72, 117
2, 25290, Note_on_c, 0, 76, 117
2, 25290, Note_on_c, 0, 84, 117
2, 25320, Note_on_c, 0, 56, 0
2, 25320, Note_on_c, 0, 51, 63
2, 25380, Note_on_c, 0, 51, 0
2, 25380, Note_on_c, 0, 84, 0
2, 25380, Note_on_c, 0, 76, 0
2, 25380, Note_on_c, 0, 72, 0
2, 25380, Note_on_c, 0, 71, 117
2, 25380, Note_on_c, 0, 80, 117
2, 25380, Note_on_c, 0, 83, 117
2, 25380, Note_on_c, 0, 44, 60
2, 25439, Note_on_c, 0, 44, 0
2, 25439, Note_on_c, 0, 32, 53
2, 25470, Note_on_c, 0, 71, 0
2, 25470, Note_on_c, 0, 83, 0
2, 25470, Note_on_c, 0, 80, 0
2, 25470, Note_on_c, 0, 72, 116
2, 25470, Note_on_c, 0, 76, 116
2, 25470, Note_on_c, 0, 84, 116
2, 25500, Note_on_c, 0, 32, 0
2, 25500, Note_on_c, 0, 51, 76
2, 25560, Note_on_c, 0, 51, 0
2, 25560, Note_on_c, 0, 84, 0
2, 25560, Note_on_c, 0, 76, 0
2, 25560, Note_on_c, 0, 72, 0
2, 25560, Note_on_c, 0, 71, 117
2, 25560, Note_on_c, 0, 80, 117
2, 25560, Note_on_c, 0, 83, 117
2, 25560, Note_on_c, 0, 56, 92
2, 25560, Note_on_c, 0, 59, 92
2, 25560, Note_on_c, 0, 63, 92
2, 25740, Note_on_c, 0, 63, 0
2, 25740, Note_on_c, 0, 80, 0
2, 25740, Note_on_c, 0, 83, 0
2, 25740, Note_on_c, 0, 71, 0
2, 25740, Note_on_c, 0, 59, 0
2, 25740, Note_on_c, 0, 56, 0
2, 26280, Note_on_c, 0, 68, 107
2, 26306, Note_on_c, 0, 68, 0
2, 26306, Note_on_c, 0, 70, 116
2, 26331, Note_on_c, 0, 70, 0
2, 26331, Note_on_c, 0, 71, 116
2, 26356, Note_on_c, 0, 71, 0
2, 26356, Note_on_c, 0, 73, 116
2, 26383, Note_on_c, 0, 73, 0
2, 26383, Note_on_c, 0, 75, 116
2, 26408, Note_on_c, 0, 75, 0
2, 26408, Note_on_c, 0, 77, 116
2, 26433, Note_on_c, 0, 77, 0
2, 26433, Note_on_c, 0, 79, 116
2, 26460, Note_on_c, 0, 79, 0
2, 26460, Note_on_c, 0, 80, 116
2, 26486, Note_on_c, 0, 80, 0
2, 26486, Note_on_c, 0, 82, 117
2, 26511, Note_on_c, 0, 82, 0
2, 26511, Note_on_c, 0, 83, 117
2, 26536, Note_on_c, 0, 83, 0
2, 26536, Note_on_c, 0, 85, 117
2, 26563, Note_on_c, 0, 85, 0
2, 26563, Note_on_c, 0, 87, 117
2, 26588, Note_on_c, 0, 87, 0
2, 26588, Note_on_c, 0, 89, 117
2, 26613, Note_on_c, 0, 89, 0
2, 26613, Note_on_c, 0, 91, 117
2, 26640, Note_on_c, 0, 91, 0
2, 26640, Note_on_c, 0, 92, 117
2, 26640, Note_on_c, 0, 33, 60
2, 26640, Note_on_c, 0, 40, 60
2, 26760, Note_on_c, 0, 40, 0
2, 26760, Note_on_c, 0, 33, 0
2, 26760, Note_on_c, 0, 40, 72
2, 26760, Note_on_c, 0, 49, 72
2, 26820, Note_on_c, 0, 49, 0
2, 26820, Note_on_c, 0, 40, 0
2, 26820, Note_on_c, 0, 92, 0
2, 26820, Note_on_c, 0, 52, 69
2, 26940, Note_on_c, 0, 52, 0
2, 26940, Note_on_c, 0, 85, 117
2, 26940, Note_on_c, 0, 49, 67
2, 26940, Note_on_c, 0, 52, 67
2, 27000, Note_on_c, 0, 52, 0
2, 27000, Note_on_c, 0, 49, 0
2, 27000, Note_on_c, 0, 85, 0
2, 27000, Note_on_c, 0, 80, 109
2, 27000, Note_on_c, 0, 61, 83
2, 27120, Note_on_c, 0, 61, 0
2, 27120, Note_on_c, 0, 52, 71
2, 27120, Note_on_c, 0, 61, 71
2, 27180, Note_on_c, 0, 61, 0
2, 27180, Note_on_c, 0, 52, 0
2, 27180, Note_on_c, 0, 64, 74
2, 27300, Note_on_c, 0, 64, 0
2, 27300, Note_on_c, 0, 61, 68
2, 27300, Note_on_c, 0, 64, 68
2, 27360, Note_on_c, 0, 64, 0
2, 27360, Note_on_c, 0, 61, 0
2, 27360, Note_on_c, 0, 73, 85
2, 27480, Note_on_c, 0, 73, 0
2, 27480, Note_on_c, 0, 54, 50
2, 27480, Note_on_c, 0, 61, 50
2, 27540, Note_on_c, 0, 61, 0
2, 27540, Note_on_c, 0, 54, 0
2, 27540, Note_on_c, 0, 64, 69
2, 27599, Note_on_c, 0, 64, 0
2, 27599, Note_on_c, 0, 61, 61
2, 27660, Note_on_c, 0, 61, 0
2, 27660, Note_on_c, 0, 52, 59
2, 27675, Note_on_c, 0, 80, 0
2, 27675, Note_on_c, 0, 75, 116
2, 27675, Note_on_c, 0, 80, 116
2, 27675, Note_on_c, 0, 87, 116
2, 27720, Note_on_c, 0, 87, 0
2, 27720, Note_on_c, 0, 80, 0
2, 27720, Note_on_c, 0, 75, 0
2, 27720, Note_on_c, 0, 73, 117
2, 27720, Note_on_c, 0, 80, 117
2, 27720, Note_on_c, 0, 85, 117
2, 27720, Note_on_c, 0, 58, 114
2, 27720, Note_on_c, 0, 61, 114
2, 27720, Note_on_c, 0, 68, 114
2, 27840, Note_on_c, 0, 55, 104
2, 27840, Note_on_c, 0, 59, 104
2, 27840, Note_on_c, 0, 50, 91
2, 27900, Note_on_c, 0, 50, 0
2, 27900, Note_on_c, 0, 59, 0
2, 27900, Note_on_c, 0, 55, 0
2, 27900, Note_on_c, 0, 56, 117
2, 27900, Note_on_c, 0, 58, 117
2, 27900, Note_on_c, 0, 46, 117
2, 27900, Note_on_c, 0, 49, 117
2, 28020, Note_on_c, 0, 49, 0
2, 28020, Note_on_c, 0, 46, 0
2, 28020, Note_on_c, 0, 40, 90
2, 28080, Note_on_c, 0, 40, 0
2, 28080, Note_on_c, 0, 58, 0
2, 28080, Note_on_c, 0, 56, 0
2, 28080, Note_on_c, 0, 56, 117
2, 28200, Note_on_c, 0, 56, 0
2, 28200, Note_on_c, 0, 67, 103
2, 28200, Note_on_c, 0, 71, 103
2, 28200, Note_on_c, 0, 62, 116
2, 28260, Note_on_c, 0, 62, 0
2, 28260, Note_on_c, 0, 71, 0
2, 28260, Note_on_c, 0, 67, 0
2, 28260, Note_on_c, 0, 68, 117
2, 28260, Note_on_c, 0, 70, 117
2, 28260, Note_on_c, 0, 58, 117
2, 28260, Note_on_c, 0, 61, 117
2, 28380, Note_on_c, 0, 58, 0
2, 28380, Note_on_c, 0, 61, 0
2, 28380, Note_on_c, 0, 52, 90
2, 28440, Note_on_c, 0, 52, 0
2, 28440, Note_on_c, 0, 58, 0
2, 28440, Note_on_c, 0, 85, 0
2, 28440, Note_on_c, 0, 52, 0
2, 28440, Note_on_c, 0, 68, 0
2, 28440, Note_on_c, 0, 73, 0
2, 28440, Note_on_c, 0, 61, 0
2, 28440, Note_on_c, 0, 68, 0
2, 28440, Note_on_c, 0, 70, 0
2, 28440, Note_on_c, 0, 80, 0
2, 28440, Note_on_c, 0, 68, 117
2, 28560, Note_on_c, 0, 68, 0
2, 28560, Note_on_c, 0, 79, 103
2, 28560, Note_on_c, 0, 83, 103
2, 28560, Note_on_c, 0, 74, 116
2, 28620, Note_on_c, 0, 74, 0
2, 28620, Note_on_c, 0, 83, 0
2, 28620, Note_on_c, 0, 79, 0
2, 28620, Note_on_c, 0, 80, 117
2, 28620, Note_on_c, 0, 82, 117
2, 28620, Note_on_c, 0, 70, 117
2, 28620, Note_on_c, 0, 73, 117
2, 28740, Note_on_c, 0, 73, 0
2, 28740, Note_on_c, 0, 70, 0
2, 28740, Note_on_c, 0, 64, 76
2, 28800, Note_on_c, 0, 64, 0
2, 28800, Note_on_c, 0, 82, 0
2, 28800, Note_on_c, 0, 80, 0
2, 28800, Note_on_c, 0, 80, 117
2, 28800, Note_on_c, 0, 33, 60
2, 28800, Note_on_c, 0, 40, 60
2, 28920, Note_on_c, 0, 40, 0
2, 28920, Note_on_c, 0, 33, 0
2, 28920, Note_on_c, 0, 80, 0
2, 28920, Note_on_c, 0, 85, 116
2, 28920, Note_on_c, 0, 92, 116
2, 28920, Note_on_c, 0, 97, 116
2, 28920, Note_on_c, 0, 40, 72
2, 28920, Note_on_c, 0, 49, 72
2, 28980, Note_on_c, 0, 49, 0
2, 28980, Note_on_c, 0, 97, 0
2, 28980, Note_on_c, 0, 85, 0
2, 28980, Note_on_c, 0, 92, 0
2, 28980, Note_on_c, 0, 40, 0
2, 28980, Note_on_c, 0, 80, 102
2, 28980, Note_on_c, 0, 85, 102
2, 28980, Note_on_c, 0, 92, 102
2, 28980, Note_on_c, 0, 52, 69
2, 29100, Note_on_c, 0, 52, 0
2, 29100, Note_on_c, 0, 49, 67
2, 29100, Note_on_c, 0, 52, 67
2, 29160, Note_on_c, 0, 52, 0
2, 29160, Note_on_c, 0, 49, 0
2, 29160, Note_on_c, 0, 61, 82
2, 29280, Note_on_c, 0, 61, 0
2, 29280, Note_on_c, 0, 80, 0
2, 29280, Note_on_c, 0, 85, 0
2, 29280, Note_on_c, 0, 92, 0
2, 29280, Note_on_c, 0, 73, 85
2, 29280, Note_on_c, 0, 80, 85
2, 29280, Note_on_c, 0, 85, 85
2, 29280, Note_on_c, 0, 52, 73
2, 29280, Note_on_c, 0, 61, 73
2, 29340, Note_on_c, 0, 61, 0
2, 29340, Note_on_c, 0, 85, 0
2, 29340, Note_on_c, 0, 73, 0
2, 29340, Note_on_c, 0, 80, 0
2, 29340, Note_on_c, 0, 52, 0
2, 29340, Note_on_c, 0, 68, 93
2, 29340, Note_on_c, 0, 73, 93
2, 29340, Note_on_c, 0, 80, 93
2, 29340, Note_on_c, 0, 64, 73
2, 29460, Note_on_c, 0, 64, 0
2, 29460, Note_on_c, 0, 61, 67
2, 29460, Note_on_c, 0, 64, 67
2, 29520, Note_on_c, 0, 64, 0
2, 29520, Note_on_c, 0, 61, 0
2, 29520, Note_on_c, 0, 73, 85
2, 29610, Note_on_c, 0, 80, 0
2, 29610, Note_on_c, 0, 68, 0
2, 29610, Note_on_c, 0, 73, 0
2, 29610, Note_on_c, 0, 75, 116
2, 29610, Note_on_c, 0, 80, 116
2, 29610, Note_on_c, 0, 87, 116
2, 29640, Note_on_c, 0, 73, 0
2, 29640, Note_on_c, 0, 54, 49
2, 29640, Note_on_c, 0, 61, 49
2, 29700, Note_on_c, 0, 61, 0
2, 29700, Note_on_c, 0, 75, 0
2, 29700, Note_on_c, 0, 87, 0
2, 29700, Note_on_c, 0, 80, 0
2, 29700, Note_on_c, 0, 54, 0
2, 29700, Note_on_c, 0, 75, 108
2, 29700, Note_on_c, 0, 80, 108
2, 29700, Note_on_c, 0, 87, 108
2, 29700, Note_on_c, 0, 64, 66
2, 29759, Note_on_c, 0, 64, 0
2, 29759, Note_on_c, 0, 61, 56
2, 29790, Note_on_c, 0, 75, 0
2, 29790, Note_on_c, 0, 87, 0
2, 29790, Note_on_c, 0, 80, 0
2, 29790, Note_on_c, 0, 73, 97
2, 29790, Note_on_c, 0, 80, 97
2, 29790, Note_on_c, 0, 85, 97
2, 29820, Note_on_c, 0, 61, 0
2, 29820, Note_on_c, 0, 52, 58
2, 29880, Note_on_c, 0, 73, 0
2, 29880, Note_on_c, 0, 85, 0
2, 29880, Note_on_c, 0, 80, 0
2, 29880, Note_on_c, 0, 73, 117
2, 29880, Note_on_c, 0, 80, 117
2, 29880, Note_on_c, 0, 85, 117
2, 29880, Note_on_c, 0, 58, 112
2, 29880, Note_on_c, 0, 61, 112
2, 29880, Note_on_c, 0, 68, 112
2, 30000, Note_on_c, 0, 55, 100
2, 30000, Note_on_c, 0, 59, 100
2, 30000, Note_on_c, 0, 50, 94
2, 30060, Note_on_c, 0, 50, 0
2, 30060, Note_on_c, 0, 59, 0
2, 30060, Note_on_c, 0, 55, 0
2, 30060, Note_on_c, 0, 56, 117
2, 30060, Note_on_c, 0, 58, 117
2, 30060, Note_on_c, 0, 46, 117
2, 30060, Note_on_c, 0, 49, 117
2, 30180, Note_on_c, 0, 49, 0
2, 30180, Note_on_c, 0, 46, 0
2, 30180, Note_on_c, 0, 40, 93
2, 30240, Note_on_c, 0, 40, 0
2, 30240, Note_on_c, 0, 58, 0
2, 30240, Note_on_c, 0, 56, 0
2, 30240, Note_on_c, 0, 56, 117
2, 30360, Note_on_c, 0, 56, 0
2, 30360, Note_on_c, 0, 67, 100
2, 30360, Note_on_c, 0, 71, 100
2, 30360, Note_on_c, 0, 62, 116
2, 30420, Note_on_c, 0, 62, 0
2, 30420, Note_on_c, 0, 71, 0
2, 30420, Note_on_c, 0, 67, 0
2, 30420, Note_on_c, 0, 68, 117
2, 30420, Note_on_c, 0, 70, 117
2, 30420, Note_on_c, 0, 58, 117
2, 30420, Note_on_c, 0, 61, 117
2, 30540, Note_on_c, 0, 58, 0
2, 30540, Note_on_c, 0, 61, 0
2, 30540, Note_on_c, 0, 52, 89
2, 30600, Note_on_c, 0, 52, 0
2, 30600, Note_on_c, 0, 58, 0
2, 30600, Note_on_c, 0, 85, 0
2, 30600, Note_on_c, 0, 52, 0
2, 30600, Note_on_c, 0, 68, 0
2, 30600, Note_on_c, 0, 73, 0
2, 30600, Note_on_c, 0, 61, 0
2, 30600, Note_on_c, 0, 68, 0
2, 30600, Note_on_c, 0, 70, 0
2, 30600, Note_on_c, 0, 80, 0
2, 30600, Note_on_c, 0, 68, 117
2, 30720, Note_on_c, 0, 68, 0
2, 30720, Note_on_c, 0, 79, 107
2, 30720, Note_on_c, 0, 83, 107
2, 30720, Note_on_c, 0, 74, 116
2, 30780, Note_on_c, 0, 74, 0
2, 30780, Note_on_c, 0, 83, 0
2, 30780, Note_on_c, 0, 79, 0
2, 30780, Note_on_c, 0, 80, 117
2, 30780, Note_on_c, 0, 82, 117
2, 30780, Note_on_c, 0, 70, 117
2, 30780, Note_on_c, 0, 73, 117
2, 30900, Note_on_c, 0, 73, 0
2, 30900, Note_on_c, 0, 70, 0
2, 30900, Note_on_c, 0, 64, 84
2, 30960, Note_on_c, 0, 64, 0
2, 30960, Note_on_c, 0, 82, 0
2, 30960, Note_on_c, 0, 80, 0
2, 30960, Note_on_c, 0, 80, 115
2, 30960, Note_on_c, 0, 33, 61
2, 30960, Note_on_c, 0, 40, 61
2, 31080, Note_on_c, 0, 40, 0
2, 31080, Note_on_c, 0, 33, 0
2, 31080, Note_on_c, 0, 40, 72
2, 31080, Note_on_c, 0, 49, 72
2, 31140, Note_on_c, 0, 49, 0
2, 31140, Note_on_c, 0, 40, 0
2, 31140, Note_on_c, 0, 80, 0
2, 31140, Note_on_c, 0, 80, 105
2, 31140, Note_on_c, 0, 85, 105
2, 31140, Note_on_c, 0, 92, 105
2, 31140, Note_on_c, 0, 52, 70
2, 31260, Note_on_c, 0, 52, 0
2, 31260, Note_on_c, 0, 49, 64
2, 31260, Note_on_c, 0, 52, 64
2, 31320, Note_on_c, 0, 52, 0
2, 31320, Note_on_c, 0, 49, 0
2, 31320, Note_on_c, 0, 61, 83
2, 31440, Note_on_c, 0, 61, 0
2, 31440, Note_on_c, 0, 52, 72
2, 31440, Note_on_c, 0, 61, 72
2, 31457, Note_on_c, 0, 80, 0
2, 31457, Note_on_c, 0, 92, 0
2, 31457, Note_on_c, 0, 85, 0
2, 31500, Note_on_c, 0, 52, 0
2, 31500, Note_on_c, 0, 61, 0
2, 31500, Note_on_c, 0, 80, 90
2, 31500, Note_on_c, 0, 85, 90
2, 31500, Note_on_c, 0, 92, 90
2, 31500, Note_on_c, 0, 64, 73
2, 31620, Note_on_c, 0, 64, 0
2, 31620, Note_on_c, 0, 56, 65
2, 31620, Note_on_c, 0, 61, 65
2, 31680, Note_on_c, 0, 61, 0
2, 31680, Note_on_c, 0, 56, 0
2, 31680, Note_on_c, 0, 68, 74
2, 31770, Note_on_c, 0, 92, 0
2, 31770, Note_on_c, 0, 80, 0
2, 31770, Note_on_c, 0, 85, 0
2, 31770, Note_on_c, 0, 80, 68
2, 31770, Note_on_c, 0, 85, 68
2, 31770, Note_on_c, 0, 92, 68
2, 31800, Note_on_c, 0, 68, 0
2, 31800, Note_on_c, 0, 52, 51
2, 31800, Note_on_c, 0, 61, 51
2, 31860, Note_on_c, 0, 61, 0
2, 31860, Note_on_c, 0, 80, 0
2, 31860, Note_on_c, 0, 92, 0
2, 31860, Note_on_c, 0, 85, 0
2, 31860, Note_on_c, 0, 52, 0
2, 31860, Note_on_c, 0, 80, 88
2, 31860, Note_on_c, 0, 85, 88
2, 31860, Note_on_c, 0, 92, 88
2, 31860, Note_on_c, 0, 64, 70
2, 31980, Note_on_c, 0, 64, 0
2, 31980, Note_on_c, 0, 32, 56
2, 31980, Note_on_c, 0, 40, 56
2, 32040, Note_on_c, 0, 40, 0
2, 32040, Note_on_c, 0, 32, 0
2, 32040, Note_on_c, 0, 44, 72
2, 32160, Note_on_c, 0, 44, 0
2, 32160, Note_on_c, 0, 40, 76
2, 32160, Note_on_c, 0, 49, 76
2, 32220, Note_on_c, 0, 49, 0
2, 32220, Note_on_c, 0, 80, 0
2, 32220, Note_on_c, 0, 92, 0
2, 32220, Note_on_c, 0, 85, 0
2, 32220, Note_on_c, 0, 40, 0
2, 32220, Note_on_c, 0, 80, 75
2, 32220, Note_on_c, 0, 85, 75
2, 32220, Note_on_c, 0, 92, 75
2, 32220, Note_on_c, 0, 52, 71
2, 32340, Note_on_c, 0, 52, 0
2, 32340, Note_on_c, 0, 49, 66
2, 32340, Note_on_c, 0, 52, 66
2, 32400, Note_on_c, 0, 52, 0
2, 32400, Note_on_c, 0, 80, 0
2, 32400, Note_on_c, 0, 92, 0
2, 32400, Note_on_c, 0, 85, 0
2, 32400, Note_on_c, 0, 49, 0
2, 32400, Note_on_c, 0, 80, 77
2, 32400, Note_on_c, 0, 85, 77
2, 32400, Note_on_c, 0, 92, 77
2, 32400, Note_on_c, 0, 61, 84
2, 32520, Note_on_c, 0, 61, 0
2, 32520, Note_on_c, 0, 80, 0
2, 32520, Note_on_c, 0, 85, 0
2, 32520, Note_on_c, 0, 92, 0
2, 32520, Note_on_c, 0, 80, 78
2, 32520, Note_on_c, 0, 85, 78
2, 32520, Note_on_c, 0, 92, 78
2, 32520, Note_on_c, 0, 52, 63
2, 32520, Note_on_c, 0, 61, 63
2, 32580, Note_on_c, 0, 61, 0
2, 32580, Note_on_c, 0, 52, 0
2, 32580, Note_on_c, 0, 64, 73
2, 32639, Note_on_c, 0, 80, 0
2, 32639, Note_on_c, 0, 92, 0
2, 32639, Note_on_c, 0, 85, 0
2, 32639, Note_on_c, 0, 80, 79
2, 32639, Note_on_c, 0, 85, 79
2, 32639, Note_on_c, 0, 92, 79
2, 32700, Note_on_c, 0, 64, 0
2, 32700, Note_on_c, 0, 57, 60
2, 32700, Note_on_c, 0, 61, 60
2, 32760, Note_on_c, 0, 61, 0
2, 32760, Note_on_c, 0, 80, 0
2, 32760, Note_on_c, 0, 92, 0
2, 32760, Note_on_c, 0, 85, 0
2, 32760, Note_on_c, 0, 57, 0
2, 32760, Note_on_c, 0, 80, 81
2, 32760, Note_on_c, 0, 85, 81
2, 32760, Note_on_c, 0, 92, 81
2, 32760, Note_on_c, 0, 69, 78
2, 32850, Note_on_c, 0, 92, 0
2, 32850, Note_on_c, 0, 80, 0
2, 32850, Note_on_c, 0, 85, 0
2, 32850, Note_on_c, 0, 80, 82
2, 32850, Note_on_c, 0, 85, 82
2, 32850, Note_on_c, 0, 92, 82
2, 32880, Note_on_c, 0, 69, 0
2, 32880, Note_on_c, 0, 52, 54
2, 32880, Note_on_c, 0, 61, 54
2, 32940, Note_on_c, 0, 61, 0
2, 32940, Note_on_c, 0, 80, 0
2, 32940, Note_on_c, 0, 92, 0
2, 32940, Note_on_c, 0, 85, 0
2, 32940, Note_on_c, 0, 52, 0
2, 32940, Note_on_c, 0, 80, 83
2, 32940, Note_on_c, 0, 85, 83
2, 32940, Note_on_c, 0, 92, 83
2, 32940, Note_on_c, 0, 64, 71
2, 33030, Note_on_c, 0, 92, 0
2, 33030, Note_on_c, 0, 80, 0
2, 33030, Note_on_c, 0, 85, 0
2, 33030, Note_on_c, 0, 80, 83
2, 33030, Note_on_c, 0, 85, 83
2, 33030, Note_on_c, 0, 92, 83
2, 33060, Note_on_c, 0, 64, 0
2, 33060, Note_on_c, 0, 30, 53
2, 33060, Note_on_c, 0, 37, 53
2, 33120, Note_on_c, 0, 37, 0
2, 33120, Note_on_c, 0, 80, 0
2, 33120, Note_on_c, 0, 92, 0
2, 33120, Note_on_c, 0, 85, 0
2, 33120, Note_on_c, 0, 30, 0
2, 33120, Note_on_c, 0, 80, 84
2, 33120, Note_on_c, 0, 85, 84
2, 33120, Note_on_c, 0, 92, 84
2, 33120, Note_on_c, 0, 42, 71
2, 33210, Note_on_c, 0, 92, 0
2, 33210, Note_on_c, 0, 80, 0
2, 33210, Note_on_c, 0, 85, 0
2, 33210, Note_on_c, 0, 75, 85
2, 33210, Note_on_c, 0, 80, 85
2, 33210, Note_on_c, 0, 87, 85
2, 33240, Note_on_c, 0, 42, 0
2, 33240, Note_on_c, 0, 42, 67
2, 33300, Note_on_c, 0, 42, 0
2, 33300, Note_on_c, 0, 87, 0
2, 33300, Note_on_c, 0, 80, 0
2, 33300, Note_on_c, 0, 75, 0
2, 33300, Note_on_c, 0, 75, 86
2, 33300, Note_on_c, 0, 80, 86
2, 33300, Note_on_c, 0, 87, 86
2, 33300, Note_on_c, 0, 52, 74
2, 33300, Note_on_c, 0, 58, 74
2, 33390, Note_on_c, 0, 87, 0
2, 33390, Note_on_c, 0, 75, 0
2, 33390, Note_on_c, 0, 80, 0
2, 33390, Note_on_c, 0, 73, 87
2, 33390, Note_on_c, 0, 80, 87
2, 33390, Note_on_c, 0, 85, 87
2, 33420, Note_on_c, 0, 52, 0
2, 33420, Note_on_c, 0, 58, 0
2, 33420, Note_on_c, 0, 52, 66
2, 33480, Note_on_c, 0, 52, 0
2, 33480, Note_on_c, 0, 85, 0
2, 33480, Note_on_c, 0, 73, 0
2, 33480, Note_on_c, 0, 80, 0
2, 33480, Note_on_c, 0, 73, 88
2, 33480, Note_on_c, 0, 80, 88
2, 33480, Note_on_c, 0, 85, 88
2, 33480, Note_on_c, 0, 58, 85
2, 33480, Note_on_c, 0, 64, 85
2, 33570, Note_on_c, 0, 85, 0
2, 33570, Note_on_c, 0, 73, 0
2, 33570, Note_on_c, 0, 80, 0
2, 33570, Note_on_c, 0, 68, 89
2, 33570, Note_on_c, 0, 75, 89
2, 33570, Note_on_c, 0, 80, 89
2, 33600, Note_on_c, 0, 58, 0
2, 33600, Note_on_c, 0, 64, 0
2, 33600, Note_on_c, 0, 58, 63
2, 33660, Note_on_c, 0, 58, 0
2, 33660, Note_on_c, 0, 80, 0
2, 33660, Note_on_c, 0, 68, 0
2, 33660, Note_on_c, 0, 75, 0
2, 33660, Note_on_c, 0, 68, 90
2, 33660, Note_on_c, 0, 75, 90
2, 33660, Note_on_c, 0, 80, 90
2, 33660, Note_on_c, 0, 64, 86
2, 33660, Note_on_c, 0, 70, 86
2, 33750, Note_on_c, 0, 80, 0
2, 33750, Note_on_c, 0, 68, 0
2, 33750, Note_on_c, 0, 75, 0
2, 33750, Note_on_c, 0, 63, 91
2, 33750, Note_on_c, 0, 68, 91
2, 33750, Note_on_c, 0, 75, 91
2, 33780, Note_on_c, 0, 64, 0
2, 33780, Note_on_c, 0, 70, 0
2, 33780, Note_on_c, 0, 52, 58
2, 33840, Note_on_c, 0, 52, 0
2, 33840, Note_on_c, 0, 75, 0
2, 33840, Note_on_c, 0, 63, 0
2, 33840, Note_on_c, 0, 68, 0
2, 33840, Note_on_c, 0, 63, 92
2, 33840, Note_on_c, 0, 68, 92
2, 33840, Note_on_c, 0, 75, 92
2, 33840, Note_on_c, 0, 58, 88
2, 33840, Note_on_c, 0, 64, 88
2, 33930, Note_on_c, 0, 75, 0
2, 33930, Note_on_c, 0, 63, 0
2, 33930, Note_on_c, 0, 68, 0
2, 33930, Note_on_c, 0, 61, 93
2, 33930, Note_on_c, 0, 68, 93
2, 33930, Note_on_c, 0, 73, 93
2, 33984, Note_on_c, 0, 58, 0
2, 33984, Note_on_c, 0, 64, 0
2, 33984, Note_on_c, 0, 42, 67
2, 34020, Note_on_c, 0, 68, 0
2, 34020, Note_on_c, 0, 73, 0
2, 34020, Note_on_c, 0, 61, 0
2, 34020, Note_on_c, 0, 61, 94
2, 34020, Note_on_c, 0, 68, 94
2, 34020, Note_on_c, 0, 73, 94
2, 34055, Note_on_c, 0, 42, 0
2, 34055, Note_on_c, 0, 52, 73
2, 34055, Note_on_c, 0, 58, 73
2, 34110, Note_on_c, 0, 61, 0
2, 34110, Note_on_c, 0, 73, 0
2, 34110, Note_on_c, 0, 68, 0
2, 34110, Note_on_c, 0, 56, 95
2, 34110, Note_on_c, 0, 63, 95
2, 34110, Note_on_c, 0, 68, 95
2, 34200, Note_on_c, 0, 68, 0
2, 34200, Note_on_c, 0, 56, 0
2, 34200, Note_on_c, 0, 63, 0
2, 34200, Note_on_c, 0, 56, 95
2, 34200, Note_on_c, 0, 61, 95
2, 34200, Note_on_c, 0, 68, 95
2, 34290, Note_on_c, 0, 68, 0
2, 34290, Note_on_c, 0, 56, 0
2, 34290, Note_on_c, 0, 61, 0
2, 34290, Note_on_c, 0, 51, 96
2, 34290, Note_on_c, 0, 56, 96
2, 34290, Note_on_c, 0, 63, 96
2, 34344, Note_on_c, 0, 52, 0
2, 34344, Note_on_c, 0, 58, 0
2, 34344, Note_on_c, 0, 42, 55
2, 34380, Note_on_c, 0, 56, 0
2, 34380, Note_on_c, 0, 63, 0
2, 34380, Note_on_c, 0, 51, 0
2, 34380, Note_on_c, 0, 51, 97
2, 34380, Note_on_c, 0, 56, 97
2, 34380, Note_on_c, 0, 63, 97
2, 34415, Note_on_c, 0, 42, 0
2, 34415, Note_on_c, 0, 52, 74
2, 34470, Note_on_c, 0, 51, 0
2, 34470, Note_on_c, 0, 63, 0
2, 34470, Note_on_c, 0, 56, 0
2, 34470, Note_on_c, 0, 49, 98
2, 34470, Note_on_c, 0, 56, 98
2, 34470, Note_on_c, 0, 61, 98
2, 34515, Note_on_c, 0, 61, 0
2, 34515, Note_on_c, 0, 56, 0
2, 34515, Note_on_c, 0, 49, 0
2, 34515, Note_on_c, 0, 48, 99
2, 34515, Note_on_c, 0, 60, 99
2, 34560, Note_on_c, 0, 60, 0
2, 34560, Note_on_c, 0, 48, 0
2, 34560, Note_on_c, 0, 52, 0
2, 34560, Note_on_c, 0, 47, 117
2, 34560, Note_on_c, 0, 56, 117
2, 34560, Note_on_c, 0, 59, 117
2, 34560, Note_on_c, 0, 28, 108
2, 34560, Note_on_c, 0, 40, 108
2, 34619, Note_on_c, 0, 47, 60
2, 34680, Note_on_c, 0, 47, 0
2, 34680, Note_on_c, 0, 56, 71
2, 34740, Note_on_c, 0, 56, 0
2, 34740, Note_on_c, 0, 59, 76
2, 34799, Note_on_c, 0, 59, 0
2, 34799, Note_on_c, 0, 56, 63
2, 34860, Note_on_c, 0, 56, 0
2, 34860, Note_on_c, 0, 81, 104
2, 34860, Note_on_c, 0, 84, 104
2, 34860, Note_on_c, 0, 93, 104
2, 34860, Note_on_c, 0, 64, 78
2, 34920, Note_on_c, 0, 64, 0
2, 34920, Note_on_c, 0, 93, 0
2, 34920, Note_on_c, 0, 84, 0
2, 34920, Note_on_c, 0, 81, 0
2, 34920, Note_on_c, 0, 80, 108
2, 34920, Note_on_c, 0, 88, 108
2, 34920, Note_on_c, 0, 92, 108
2, 34979, Note_on_c, 0, 76, 61
2, 35040, Note_on_c, 0, 76, 0
2, 35040, Note_on_c, 0, 68, 45
2, 35100, Note_on_c, 0, 68, 0
2, 35100, Note_on_c, 0, 71, 69
2, 35159, Note_on_c, 0, 71, 0
2, 35159, Note_on_c, 0, 64, 56
2, 35220, Note_on_c, 0, 64, 0
2, 35220, Note_on_c, 0, 92, 0
2, 35220, Note_on_c, 0, 88, 0
2, 35220, Note_on_c, 0, 80, 0
2, 35220, Note_on_c, 0, 69, 85
2, 35220, Note_on_c, 0, 72, 85
2, 35220, Note_on_c, 0, 81, 85
2, 35220, Note_on_c, 0, 59, 60
2, 35280, Note_on_c, 0, 81, 0
2, 35280, Note_on_c, 0, 72, 0
2, 35280, Note_on_c, 0, 69, 0
2, 35280, Note_on_c, 0, 59, 0
2, 35280, Note_on_c, 0, 68, 105
2, 35280, Note_on_c, 0, 76, 105
2, 35280, Note_on_c, 0, 80, 105
2, 35339, Note_on_c, 0, 52, 59
2, 35400, Note_on_c, 0, 52, 0
2, 35400, Note_on_c, 0, 47, 59
2, 35460, Note_on_c, 0, 47, 0
2, 35460, Note_on_c, 0, 40, 55
2, 35519, Note_on_c, 0, 40, 0
2, 35519, Note_on_c, 0, 80, 0
2, 35519, Note_on_c, 0, 76, 0
2, 35519, Note_on_c, 0, 68, 0
2, 35519, Note_on_c, 0, 46, 96
2, 35519, Note_on_c, 0, 58, 96
2, 35519, Note_on_c, 0, 40, 62
2, 35580, Note_on_c, 0, 58, 0
2, 35580, Note_on_c, 0, 46, 0
2, 35580, Note_on_c, 0, 40, 0
2, 35580, Note_on_c, 0, 45, 110
2, 35580, Note_on_c, 0, 57, 110
2, 35580, Note_on_c, 0, 28, 58
2, 35640, Note_on_c, 0, 28, 0
2, 35640, Note_on_c, 0, 28, 0
2, 35640, Note_on_c, 0, 59, 0
2, 35640, Note_on_c, 0, 47, 0
2, 35640, Note_on_c, 0, 56, 0
2, 35640, Note_on_c, 0, 40, 0
2, 35640, Note_on_c, 0, 45, 0
2, 35640, Note_on_c, 0, 57, 0
2, 35640, Note_on_c, 0, 44, 117
2, 35640, Note_on_c, 0, 48, 117
2, 35640, Note_on_c, 0, 54, 117
2, 35640, Note_on_c, 0, 56, 117
2, 35640, Note_on_c, 0, 27, 117
2, 35640, Note_on_c, 0, 39, 117
2, 35699, Note_on_c, 0, 44, 59
2, 35760, Note_on_c, 0, 44, 0
2, 35760, Note_on_c, 0, 54, 73
2, 35820, Note_on_c, 0, 54, 0
2, 35820, Note_on_c, 0, 60, 76
2, 35879, Note_on_c, 0, 60, 0
2, 35879, Note_on_c, 0, 56, 63
2, 35940, Note_on_c, 0, 56, 0
2, 35940, Note_on_c, 0, 69, 104
2, 35940, Note_on_c, 0, 78, 104
2, 35940, Note_on_c, 0, 81, 104
2, 35940, Note_on_c, 0, 66, 81
2, 36000, Note_on_c, 0, 66, 0
2, 36000, Note_on_c, 0, 81, 0
2, 36000, Note_on_c, 0, 69, 0
2, 36000, Note_on_c, 0, 78, 0
2, 36000, Note_on_c, 0, 68, 106
2, 36000, Note_on_c, 0, 72, 106
2, 36000, Note_on_c, 0, 80, 106
2, 36059, Note_on_c, 0, 78, 59
2, 36120, Note_on_c, 0, 78, 0
2, 36120, Note_on_c, 0, 68, 46
2, 36180, Note_on_c, 0, 68, 0
2, 36180, Note_on_c, 0, 72, 65
2, 36239, Note_on_c, 0, 72, 0
2, 36239, Note_on_c, 0, 66, 54
2, 36300, Note_on_c, 0, 66, 0
2, 36300, Note_on_c, 0, 80, 0
2, 36300, Note_on_c, 0, 68, 0
2, 36300, Note_on_c, 0, 72, 0
2, 36300, Note_on_c, 0, 81, 116
2, 36300, Note_on_c, 0, 90, 116
2, 36300, Note_on_c, 0, 93, 116
2, 36300, Note_on_c, 0, 56, 57
2, 36360, Note_on_c, 0, 93, 0
2, 36360, Note_on_c, 0, 90, 0
2, 36360, Note_on_c, 0, 81, 0
2, 36360, Note_on_c, 0, 56, 0
2, 36360, Note_on_c, 0, 80, 113
2, 36360, Note_on_c, 0, 84, 113
2, 36360, Note_on_c, 0, 92, 113
2, 36419, Note_on_c, 0, 54, 60
2, 36480, Note_on_c, 0, 54, 0
2, 36480, Note_on_c, 0, 44, 51
2, 36540, Note_on_c, 0, 44, 0
2, 36540, Note_on_c, 0, 44, 64
2, 36599, Note_on_c, 0, 44, 0
2, 36599, Note_on_c, 0, 84, 0
2, 36599, Note_on_c, 0, 92, 0
2, 36599, Note_on_c, 0, 80, 0
2, 36599, Note_on_c, 0, 42, 102
2, 36599, Note_on_c, 0, 54, 102
2, 36599, Note_on_c, 0, 32, 62
2, 36660, Note_on_c, 0, 32, 0
2, 36660, Note_on_c, 0, 42, 0
2, 36660, Note_on_c, 0, 54, 0
2, 36660, Note_on_c, 0, 41, 108
2, 36660, Note_on_c, 0, 53, 108
2, 36720, Note_on_c, 0, 53, 0
2, 36720, Note_on_c, 0, 54, 0
2, 36720, Note_on_c, 0, 56, 0
2, 36720, Note_on_c, 0, 39, 0
2, 36720, Note_on_c, 0, 44, 0
2, 36720, Note_on_c, 0, 48, 0
2, 36720, Note_on_c, 0, 27, 0
2, 36720, Note_on_c, 0, 41, 0
2, 36720, Note_on_c, 0, 40, 117
2, 36720, Note_on_c, 0, 52, 117
2, 36720, Note_on_c, 0, 25, 57
2, 36720, Note_on_c, 0, 37, 57
2, 36900, Note_on_c, 0, 37, 0
2, 36900, Note_on_c, 0, 25, 0
2, 36900, Note_on_c, 0, 37, 68
2, 36959, Note_on_c, 0, 37, 0
2, 36959, Note_on_c, 0, 44, 70
2, 37020, Note_on_c, 0, 44, 0
2, 37020, Note_on_c, 0, 49, 67
2, 37080, Note_on_c, 0, 49, 0
2, 37080, Note_on_c, 0, 52, 0
2, 37080, Note_on_c, 0, 40, 0
2, 37080, Note_on_c, 0, 64, 116
2, 37080, Note_on_c, 0, 56, 76
2, 37139, Note_on_c, 0, 56, 0
2, 37139, Note_on_c, 0, 49, 61
2, 37200, Note_on_c, 0, 49, 0
2, 37200, Note_on_c, 0, 44, 63
2, 37260, Note_on_c, 0, 44, 0
2, 37260, Note_on_c, 0, 37, 59
2, 37319, Note_on_c, 0, 37, 0
2, 37319, Note_on_c, 0, 25, 54
2, 37380, Note_on_c, 0, 25, 0
2, 37380, Note_on_c, 0, 44, 70
2, 37440, Note_on_c, 0, 44, 0
2, 37440, Note_on_c, 0, 56, 74
2, 37499, Note_on_c, 0, 56, 0
2, 37499, Note_on_c, 0, 49, 61
2, 37560, Note_on_c, 0, 49, 0
2, 37560, Note_on_c, 0, 44, 61
2, 37620, Note_on_c, 0, 44, 0
2, 37620, Note_on_c, 0, 37, 64
2, 37679, Note_on_c, 0, 37, 0
2, 37679, Note_on_c, 0, 25, 54
2, 37740, Note_on_c, 0, 25, 0
2, 37740, Note_on_c, 0, 43, 69
2, 37755, Note_on_c, 0, 64, 0
2, 37755, Note_on_c, 0, 63, 97
2, 37769, Note_on_c, 0, 63, 0
2, 37769, Note_on_c, 0, 61, 95
2, 37785, Note_on_c, 0, 61, 0
2, 37785, Note_on_c, 0, 59, 95
2, 37800, Note_on_c, 0, 59, 0
2, 37800, Note_on_c, 0, 43, 0
2, 37800, Note_on_c, 0, 58, 116
2, 37800, Note_on_c, 0, 55, 74
2, 37859, Note_on_c, 0, 55, 0
2, 37859, Note_on_c, 0, 49, 62
2, 37920, Note_on_c, 0, 49, 0
2, 37920, Note_on_c, 0, 47, 86
2, 37920, Note_on_c, 0, 43, 58
2, 37980, Note_on_c, 0, 43, 0
2, 37980, Note_on_c, 0, 47, 0
2, 37980, Note_on_c, 0, 46, 117
2, 37980, Note_on_c, 0, 37, 60
2, 38039, Note_on_c, 0, 37, 0
2, 38039, Note_on_c, 0, 25, 55
2, 38100, Note_on_c, 0, 25, 0
2, 38100, Note_on_c, 0, 43, 70
2, 38160, Note_on_c, 0, 43, 0
2, 38160, Note_on_c, 0, 55, 78
2, 38219, Note_on_c, 0, 55, 0
2, 38219, Note_on_c, 0, 49, 57
2, 38280, Note_on_c, 0, 49, 0
2, 38280, Note_on_c, 0, 43, 56
2, 38340, Note_on_c, 0, 43, 0
2, 38340, Note_on_c, 0, 46, 0
2, 38340, Note_on_c, 0, 34, 113
2, 38340, Note_on_c, 0, 37, 57
2, 38399, Note_on_c, 0, 37, 0
2, 38399, Note_on_c, 0, 25, 54
2, 38460, Note_on_c, 0, 25, 0
2, 38460, Note_on_c, 0, 43, 74
2, 38520, Note_on_c, 0, 43, 0
2, 38520, Note_on_c, 0, 55, 75
2, 38579, Note_on_c, 0, 55, 0
2, 38579, Note_on_c, 0, 49, 62
2, 38640, Note_on_c, 0, 49, 0
2, 38640, Note_on_c, 0, 34, 0
2, 38640, Note_on_c, 0, 47, 114
2, 38640, Note_on_c, 0, 43, 54
2, 38700, Note_on_c, 0, 43, 0
2, 38700, Note_on_c, 0, 47, 0
2, 38700, Note_on_c, 0, 46, 117
2, 38700, Note_on_c, 0, 37, 60
2, 38759, Note_on_c, 0, 37, 0
2, 38759, Note_on_c, 0, 25, 56
2, 38820, Note_on_c, 0, 25, 0
2, 38820, Note_on_c, 0, 42, 72
2, 38880, Note_on_c, 0, 42, 0
2, 38880, Note_on_c, 0, 46, 0
2, 38880, Note_on_c, 0, 58, 0
2, 38880, Note_on_c, 0, 54, 111
2, 38880, Note_on_c, 0, 54, 80
2, 38901, Note_on_c, 0, 54, 0
2, 38901, Note_on_c, 0, 57, 109
2, 38927, Note_on_c, 0, 57, 0
2, 38927, Note_on_c, 0, 69, 117
2, 38939, Note_on_c, 0, 54, 0
2, 38939, Note_on_c, 0, 45, 58
2, 39000, Note_on_c, 0, 45, 0
2, 39000, Note_on_c, 0, 42, 62
2, 39060, Note_on_c, 0, 42, 0
2, 39060, Note_on_c, 0, 37, 59
2, 39119, Note_on_c, 0, 37, 0
2, 39119, Note_on_c, 0, 25, 54
2, 39180, Note_on_c, 0, 25, 0
2, 39180, Note_on_c, 0, 42, 69
2, 39240, Note_on_c, 0, 42, 0
2, 39240, Note_on_c, 0, 54, 76
2, 39299, Note_on_c, 0, 54, 0
2, 39299, Note_on_c, 0, 45, 60
2, 39360, Note_on_c, 0, 45, 0
2, 39360, Note_on_c, 0, 42, 57
2, 39420, Note_on_c, 0, 42, 0
2, 39420, Note_on_c, 0, 37, 58
2, 39479, Note_on_c, 0, 37, 0
2, 39479, Note_on_c, 0, 25, 56
2, 39540, Note_on_c, 0, 25, 0
2, 39540, Note_on_c, 0, 42, 77
2, 39600, Note_on_c, 0, 42, 0
2, 39600, Note_on_c, 0, 69, 0
2, 39600, Note_on_c, 0, 69, 105
2, 39600, Note_on_c, 0, 54, 77
2, 39659, Note_on_c, 0, 54, 0
2, 39659, Note_on_c, 0, 45, 63
2, 39720, Note_on_c, 0, 45, 0
2, 39720, Note_on_c, 0, 42, 58
2, 39780, Note_on_c, 0, 42, 0
2, 39780, Note_on_c, 0, 37, 59
2, 39839, Note_on_c, 0, 37, 0
2, 39839, Note_on_c, 0, 25, 54
2, 39900, Note_on_c, 0, 25, 0
2, 39900, Note_on_c, 0, 43, 73
2, 39915, Note_on_c, 0, 69, 0
2, 39915, Note_on_c, 0, 68, 99
2, 39929, Note_on_c, 0, 68, 0
2, 39929, Note_on_c, 0, 66, 93
2, 39945, Note_on_c, 0, 66, 0
2, 39945, Note_on_c, 0, 64, 98
2, 39960, Note_on_c, 0, 64, 0
2, 39960, Note_on_c, 0, 43, 0
2, 39960, Note_on_c, 0, 63, 117
2, 39960, Note_on_c, 0, 55, 80
2, 40019, Note_on_c, 0, 55, 0
2, 40019, Note_on_c, 0, 49, 61
2, 40080, Note_on_c, 0, 49, 0
2, 40080, Note_on_c, 0, 52, 89
2, 40080, Note_on_c, 0, 43, 61
2, 40140, Note_on_c, 0, 43, 0
2, 40140, Note_on_c, 0, 52, 0
2, 40140, Note_on_c, 0, 51, 117
2, 40140, Note_on_c, 0, 37, 57
2, 40199, Note_on_c, 0, 37, 0
2, 40199, Note_on_c, 0, 25, 52
2, 40260, Note_on_c, 0, 25, 0
2, 40260, Note_on_c, 0, 43, 71
2, 40320, Note_on_c, 0, 43, 0
2, 40320, Note_on_c, 0, 55, 74
2, 40379, Note_on_c, 0, 55, 0
2, 40379, Note_on_c, 0, 49, 67
2, 40440, Note_on_c, 0, 49, 0
2, 40440, Note_on_c, 0, 51, 0
2, 40440, Note_on_c, 0, 40, 92
2, 40440, Note_on_c, 0, 43, 57
2, 40500, Note_on_c, 0, 43, 0
2, 40500, Note_on_c, 0, 40, 0
2, 40500, Note_on_c, 0, 39, 117
2, 40500, Note_on_c, 0, 37, 55
2, 40559, Note_on_c, 0, 37, 0
2, 40559, Note_on_c, 0, 25, 55
2, 40620, Note_on_c, 0, 25, 0
2, 40620, Note_on_c, 0, 43, 70
2, 40680, Note_on_c, 0, 43, 0
2, 40680, Note_on_c, 0, 55, 77
2, 40739, Note_on_c, 0, 55, 0
2, 40739, Note_on_c, 0, 49, 63
2, 40800, Note_on_c, 0, 49, 0
2, 40800, Note_on_c, 0, 39, 0
2, 40800, Note_on_c, 0, 52, 116
2, 40800, Note_on_c, 0, 43, 55
2, 40860, Note_on_c, 0, 43, 0
2, 40860, Note_on_c, 0, 52, 0
2, 40860, Note_on_c, 0, 51, 117
2, 40860, Note_on_c, 0, 37, 59
2, 40919, Note_on_c, 0, 37, 0
2, 40919, Note_on_c, 0, 25, 54
2, 40980, Note_on_c, 0, 25, 0
2, 40980, Note_on_c, 0, 44, 79
2, 41040, Note_on_c, 0, 44, 0
2, 41040, Note_on_c, 0, 51, 0
2, 41040, Note_on_c, 0, 63, 0
2, 41040, Note_on_c, 0, 56, 110
2, 41040, Note_on_c, 0, 56, 78
2, 41057, Note_on_c, 0, 56, 0
2, 41057, Note_on_c, 0, 61, 116
2, 41082, Note_on_c, 0, 61, 0
2, 41082, Note_on_c, 0, 64, 112
2, 41099, Note_on_c, 0, 56, 0
2, 41099, Note_on_c, 0, 49, 59
2, 41112, Note_on_c, 0, 64, 0
2, 41112, Note_on_c, 0, 76, 116
2, 41160, Note_on_c, 0, 49, 0
2, 41160, Note_on_c, 0, 44, 60
2, 41220, Note_on_c, 0, 44, 0
2, 41220, Note_on_c, 0, 37, 56
2, 41279, Note_on_c, 0, 37, 0
2, 41279, Note_on_c, 0, 25, 60
2, 41340, Note_on_c, 0, 25, 0
2, 41340, Note_on_c, 0, 44, 72
2, 41400, Note_on_c, 0, 44, 0
2, 41400, Note_on_c, 0, 56, 87
2, 41459, Note_on_c, 0, 56, 0
2, 41459, Note_on_c, 0, 49, 64
2, 41520, Note_on_c, 0, 49, 0
2, 41520, Note_on_c, 0, 44, 59
2, 41580, Note_on_c, 0, 44, 0
2, 41580, Note_on_c, 0, 37, 56
2, 41639, Note_on_c, 0, 37, 0
2, 41639, Note_on_c, 0, 25, 56
2, 41700, Note_on_c, 0, 25, 0
2, 41700, Note_on_c, 0, 44, 80
2, 41760, Note_on_c, 0, 44, 0
2, 41760, Note_on_c, 0, 76, 0
2, 41760, Note_on_c, 0, 76, 109
2, 41760, Note_on_c, 0, 56, 77
2, 41819, Note_on_c, 0, 56, 0
2, 41819, Note_on_c, 0, 49, 63
2, 41880, Note_on_c, 0, 49, 0
2, 41880, Note_on_c, 0, 44, 64
2, 41940, Note_on_c, 0, 44, 0
2, 41940, Note_on_c, 0, 37, 56
2, 41999, Note_on_c, 0, 37, 0
2, 41999, Note_on_c, 0, 25, 54
2, 42060, Note_on_c, 0, 25, 0
2, 42060, Note_on_c, 0, 46, 75
2, 42075, Note_on_c, 0, 76, 0
2, 42075, Note_on_c, 0, 75, 99
2, 42084, Note_on_c, 0, 75, 0
2, 42084, Note_on_c, 0, 73, 99
2, 42092, Note_on_c, 0, 73, 0
2, 42092, Note_on_c, 0, 71, 94
2, 42102, Note_on_c, 0, 71, 0
2, 42102, Note_on_c, 0, 70, 95
2, 42110, Note_on_c, 0, 70, 0
2, 42110, Note_on_c, 0, 68, 96
2, 42120, Note_on_c, 0, 68, 0
2, 42120, Note_on_c, 0, 46, 0
2, 42120, Note_on_c, 0, 67, 117
2, 42120, Note_on_c, 0, 58, 80
2, 42179, Note_on_c, 0, 58, 0
2, 42179, Note_on_c, 0, 49, 55
2, 42240, Note_on_c, 0, 49, 0
2, 42240, Note_on_c, 0, 56, 91
2, 42240, Note_on_c, 0, 46, 62
2, 42300, Note_on_c, 0, 46, 0
2, 42300, Note_on_c, 0, 56, 0
2, 42300, Note_on_c, 0, 55, 117
2, 42300, Note_on_c, 0, 37, 53
2, 42359, Note_on_c, 0, 37, 0
2, 42359, Note_on_c, 0, 25, 50
2, 42420, Note_on_c, 0, 25, 0
2, 42420, Note_on_c, 0, 46, 69
2, 42480, Note_on_c, 0, 46, 0
2, 42480, Note_on_c, 0, 58, 75
2, 42539, Note_on_c, 0, 58, 0
2, 42539, Note_on_c, 0, 49, 57
2, 42600, Note_on_c, 0, 49, 0
2, 42600, Note_on_c, 0, 55, 0
2, 42600, Note_on_c, 0, 44, 95
2, 42600, Note_on_c, 0, 46, 63
2, 42660, Note_on_c, 0, 46, 0
2, 42660, Note_on_c, 0, 44, 0
2, 42660, Note_on_c, 0, 43, 117
2, 42660, Note_on_c, 0, 37, 61
2, 42719, Note_on_c, 0, 37, 0
2, 42719, Note_on_c, 0, 25, 55
2, 42780, Note_on_c, 0, 25, 0
2, 42780, Note_on_c, 0, 46, 72
2, 42840, Note_on_c, 0, 46, 0
2, 42840, Note_on_c, 0, 58, 80
2, 42899, Note_on_c, 0, 58, 0
2, 42899, Note_on_c, 0, 49, 56
2, 42960, Note_on_c, 0, 49, 0
2, 42960, Note_on_c, 0, 43, 0
2, 42960, Note_on_c, 0, 56, 116
2, 42960, Note_on_c, 0, 46, 62
2, 43020, Note_on_c, 0, 46, 0
2, 43020, Note_on_c, 0, 56, 0
2, 43020, Note_on_c, 0, 55, 117
2, 43020, Note_on_c, 0, 37, 58
2, 43079, Note_on_c, 0, 37, 0
2, 43079, Note_on_c, 0, 25, 59
2, 43140, Note_on_c, 0, 25, 0
2, 43140, Note_on_c, 0, 47, 80
2, 43200, Note_on_c, 0, 47, 0
2, 43200, Note_on_c, 0, 55, 0
2, 43200, Note_on_c, 0, 67, 0
2, 43200, Note_on_c, 0, 59, 112
2, 43200, Note_on_c, 0, 59, 81
2, 43215, Note_on_c, 0, 59, 0
2, 43215, Note_on_c, 0, 64, 116
2, 43239, Note_on_c, 0, 64, 0
2, 43239, Note_on_c, 0, 67, 116
2, 43259, Note_on_c, 0, 59, 0
2, 43259, Note_on_c, 0, 52, 64
2, 43269, Note_on_c, 0, 67, 0
2, 43269, Note_on_c, 0, 79, 116
2, 43320, Note_on_c, 0, 52, 0
2, 43320, Note_on_c, 0, 47, 59
2, 43380, Note_on_c, 0, 47, 0
2, 43380, Note_on_c, 0, 47, 62
2, 43439, Note_on_c, 0, 47, 0
2, 43439, Note_on_c, 0, 37, 58
2, 43500, Note_on_c, 0, 37, 0
2, 43500, Note_on_c, 0, 47, 72
2, 43560, Note_on_c, 0, 47, 0
2, 43560, Note_on_c, 0, 59, 81
2, 43619, Note_on_c, 0, 59, 0
2, 43619, Note_on_c, 0, 52, 60
2, 43680, Note_on_c, 0, 52, 0
2, 43680, Note_on_c, 0, 47, 60
2, 43740, Note_on_c, 0, 47, 0
2, 43740, Note_on_c, 0, 47, 65
2, 43799, Note_on_c, 0, 47, 0
2, 43799, Note_on_c, 0, 37, 63
2, 43860, Note_on_c, 0, 37, 0
2, 43860, Note_on_c, 0, 48, 71
2, 43920, Note_on_c, 0, 48, 0
2, 43920, Note_on_c, 0, 79, 0
2, 43920, Note_on_c, 0, 78, 114
2, 43920, Note_on_c, 0, 60, 84
2, 43979, Note_on_c, 0, 60, 0
2, 43979, Note_on_c, 0, 51, 65
2, 44040, Note_on_c, 0, 51, 0
2, 44040, Note_on_c, 0, 48, 57
2, 44100, Note_on_c, 0, 48, 0
2, 44100, Note_on_c, 0, 48, 66
2, 44159, Note_on_c, 0, 48, 0
2, 44159, Note_on_c, 0, 37, 56
2, 44220, Note_on_c, 0, 37, 0
2, 44220, Note_on_c, 0, 48, 73
2, 44280, Note_on_c, 0, 48, 0
2, 44280, Note_on_c, 0, 60, 93
2, 44339, Note_on_c, 0, 60, 0
2, 44339, Note_on_c, 0, 51, 55
2, 44400, Note_on_c, 0, 51, 0
2, 44400, Note_on_c, 0, 48, 66
2, 44460, Note_on_c, 0, 48, 0
2, 44460, Note_on_c, 0, 48, 67
2, 44519, Note_on_c, 0, 48, 0
2, 44519, Note_on_c, 0, 37, 57
2, 44553, Note_on_c, 0, 78, 0
2, 44580, Note_on_c, 0, 37, 0
2, 44580, Note_on_c, 0, 47, 70
2, 44640, Note_on_c, 0, 47, 0
2, 44640, Note_on_c, 0, 77, 105
2, 44640, Note_on_c, 0, 61, 116
2, 44699, Note_on_c, 0, 61, 0
2, 44699, Note_on_c, 0, 53, 97
2, 44760, Note_on_c, 0, 53, 0
2, 44760, Note_on_c, 0, 47, 96
2, 44820, Note_on_c, 0, 47, 0
2, 44820, Note_on_c, 0, 57, 84
2, 44820, Note_on_c, 0, 69, 84
2, 44820, Note_on_c, 0, 37, 88
2, 44879, Note_on_c, 0, 37, 0
2, 44879, Note_on_c, 0, 25, 87
2, 44940, Note_on_c, 0, 25, 0
2, 44940, Note_on_c, 0, 47, 111
2, 44955, Note_on_c, 0, 77, 0
2, 44955, Note_on_c, 0, 78, 116
2, 45000, Note_on_c, 0, 78, 0
2, 45000, Note_on_c, 0, 47, 0
2, 45000, Note_on_c, 0, 77, 111
2, 45000, Note_on_c, 0, 61, 116
2, 45059, Note_on_c, 0, 61, 0
2, 45059, Note_on_c, 0, 53, 92
2, 45120, Note_on_c, 0, 53, 0
2, 45120, Note_on_c, 0, 47, 96
2, 45180, Note_on_c, 0, 47, 0
2, 45180, Note_on_c, 0, 37, 87
2, 45239, Note_on_c, 0, 37, 0
2, 45239, Note_on_c, 0, 25, 89
2, 45300, Note_on_c, 0, 25, 0
2, 45300, Note_on_c, 0, 47, 116
2, 45360, Note_on_c, 0, 47, 0
2, 45360, Note_on_c, 0, 61, 116
2, 45419, Note_on_c, 0, 61, 0
2, 45419, Note_on_c, 0, 53, 92
2, 45480, Note_on_c, 0, 53, 0
2, 45480, Note_on_c, 0, 47, 90
2, 45540, Note_on_c, 0, 47, 0
2, 45540, Note_on_c, 0, 57, 0
2, 45540, Note_on_c, 0, 69, 0
2, 45540, Note_on_c, 0, 56, 91
2, 45540, Note_on_c, 0, 68, 91
2, 45540, Note_on_c, 0, 37, 84
2, 45599, Note_on_c, 0, 37, 0
2, 45599, Note_on_c, 0, 25, 82
2, 45660, Note_on_c, 0, 25, 0
2, 45660, Note_on_c, 0, 47, 110
2, 45675, Note_on_c, 0, 77, 0
2, 45675, Note_on_c, 0, 83, 116
2, 45686, Note_on_c, 0, 83, 0
2, 45686, Note_on_c, 0, 81, 108
2, 45698, Note_on_c, 0, 81, 0
2, 45698, Note_on_c, 0, 80, 108
2, 45709, Note_on_c, 0, 80, 0
2, 45709, Note_on_c, 0, 78, 112
2, 45720, Note_on_c, 0, 78, 0
2, 45720, Note_on_c, 0, 47, 0
2, 45720, Note_on_c, 0, 77, 117
2, 45720, Note_on_c, 0, 61, 116
2, 45779, Note_on_c, 0, 61, 0
2, 45779, Note_on_c, 0, 53, 98
2, 45840, Note_on_c, 0, 53, 0
2, 45840, Note_on_c, 0, 47, 91
2, 45900, Note_on_c, 0, 47, 0
2, 45900, Note_on_c, 0, 56, 0
2, 45900, Note_on_c, 0, 68, 0
2, 45900, Note_on_c, 0, 55, 90
2, 45900, Note_on_c, 0, 67, 90
2, 45900, Note_on_c, 0, 37, 87
2, 45959, Note_on_c, 0, 37, 0
2, 45959, Note_on_c, 0, 25, 85
2, 46020, Note_on_c, 0, 25, 0
2, 46020, Note_on_c, 0, 49, 114
2, 46035, Note_on_c, 0, 77, 0
2, 46035, Note_on_c, 0, 76, 113
2, 46049, Note_on_c, 0, 76, 0
2, 46049, Note_on_c, 0, 75, 107
2, 46065, Note_on_c, 0, 75, 0
2, 46065, Note_on_c, 0, 74, 109
2, 46080, Note_on_c, 0, 74, 0
2, 46080, Note_on_c, 0, 49, 0
2, 46080, Note_on_c, 0, 67, 0
2, 46080, Note_on_c, 0, 55, 0
2, 46080, Note_on_c, 0, 73, 107
2, 46080, Note_on_c, 0, 61, 116
2, 46139, Note_on_c, 0, 61, 0
2, 46139, Note_on_c, 0, 55, 99
2, 46200, Note_on_c, 0, 55, 0
2, 46200, Note_on_c, 0, 45, 89
2, 46260, Note_on_c, 0, 45, 0
2, 46260, Note_on_c, 0, 53, 84
2, 46260, Note_on_c, 0, 65, 84
2, 46260, Note_on_c, 0, 37, 93
2, 46319, Note_on_c, 0, 37, 0
2, 46319, Note_on_c, 0, 25, 82
2, 46380, Note_on_c, 0, 25, 0
2, 46380, Note_on_c, 0, 49, 116
2, 46395, Note_on_c, 0, 73, 0
2, 46395, Note_on_c, 0, 74, 116
2, 46440, Note_on_c, 0, 74, 0
2, 46440, Note_on_c, 0, 49, 0
2, 46440, Note_on_c, 0, 73, 117
2, 46440, Note_on_c, 0, 61, 116
2, 46499, Note_on_c, 0, 61, 0
2, 46499, Note_on_c, 0, 55, 101
2, 46560, Note_on_c, 0, 55, 0
2, 46560, Note_on_c, 0, 45, 85
2, 46620, Note_on_c, 0, 45, 0
2, 46620, Note_on_c, 0, 37, 87
2, 46679, Note_on_c, 0, 37, 0
2, 46679, Note_on_c, 0, 25, 84
2, 46740, Note_on_c, 0, 25, 0
2, 46740, Note_on_c, 0, 49, 115
2, 46800, Note_on_c, 0, 49, 0
2, 46800, Note_on_c, 0, 61, 116
2, 46859, Note_on_c, 0, 61, 0
2, 46859, Note_on_c, 0, 55, 103
2, 46920, Note_on_c, 0, 55, 0
2, 46920, Note_on_c, 0, 45, 90
2, 46980, Note_on_c, 0, 45, 0
2, 46980, Note_on_c, 0, 53, 0
2, 46980, Note_on_c, 0, 65, 0
2, 46980, Note_on_c, 0, 52, 90
2, 46980, Note_on_c, 0, 64, 90
2, 46980, Note_on_c, 0, 37, 91
2, 47039, Note_on_c, 0, 37, 0
2, 47039, Note_on_c, 0, 25, 88
2, 47100, Note_on_c, 0, 25, 0
2, 47100, Note_on_c, 0, 49, 116
2, 47115, Note_on_c, 0, 73, 0
2, 47115, Note_on_c, 0, 80, 116
2, 47126, Note_on_c, 0, 80, 0
2, 47126, Note_on_c, 0, 77, 109
2, 47138, Note_on_c, 0, 77, 0
2, 47138, Note_on_c, 0, 76, 108
2, 47149, Note_on_c, 0, 76, 0
2, 47149, Note_on_c, 0, 74, 107
2, 47160, Note_on_c, 0, 74, 0
2, 47160, Note_on_c, 0, 49, 0
2, 47160, Note_on_c, 0, 73, 117
2, 47160, Note_on_c, 0, 61, 116
2, 47219, Note_on_c, 0, 61, 0
2, 47219, Note_on_c, 0, 55, 99
2, 47280, Note_on_c, 0, 55, 0
2, 47280, Note_on_c, 0, 45, 89
2, 47340, Note_on_c, 0, 45, 0
2, 47340, Note_on_c, 0, 52, 0
2, 47340, Note_on_c, 0, 64, 0
2, 47340, Note_on_c, 0, 51, 87
2, 47340, Note_on_c, 0, 63, 87
2, 47340, Note_on_c, 0, 37, 90
2, 47399, Note_on_c, 0, 37, 0
2, 47399, Note_on_c, 0, 25, 84
2, 47460, Note_on_c, 0, 25, 0
2, 47460, Note_on_c, 0, 46, 112
2, 47475, Note_on_c, 0, 73, 0
2, 47475, Note_on_c, 0, 74, 116
2, 47486, Note_on_c, 0, 74, 0
2, 47486, Note_on_c, 0, 73, 109
2, 47498, Note_on_c, 0, 73, 0
2, 47498, Note_on_c, 0, 72, 109
2, 47509, Note_on_c, 0, 72, 0
2, 47509, Note_on_c, 0, 71, 112
2, 47520, Note_on_c, 0, 71, 0
2, 47520, Note_on_c, 0, 51, 0
2, 47520, Note_on_c, 0, 63, 0
2, 47520, Note_on_c, 0, 46, 0
2, 47520, Note_on_c, 0, 70, 107
2, 47520, Note_on_c, 0, 58, 116
2, 47579, Note_on_c, 0, 58, 0
2, 47579, Note_on_c, 0, 52, 99
2, 47640, Note_on_c, 0, 52, 0
2, 47640, Note_on_c, 0, 42, 84
2, 47700, Note_on_c, 0, 42, 0
2, 47700, Note_on_c, 0, 50, 80
2, 47700, Note_on_c, 0, 62, 80
2, 47700, Note_on_c, 0, 37, 94
2, 47759, Note_on_c, 0, 37, 0
2, 47759, Note_on_c, 0, 25, 86
2, 47820, Note_on_c, 0, 25, 0
2, 47820, Note_on_c, 0, 46, 113
2, 47835, Note_on_c, 0, 70, 0
2, 47835, Note_on_c, 0, 71, 116
2, 47880, Note_on_c, 0, 71, 0
2, 47880, Note_on_c, 0, 46, 0
2, 47880, Note_on_c, 0, 70, 117
2, 47880, Note_on_c, 0, 58, 116
2, 47939, Note_on_c, 0, 58, 0
2, 47939, Note_on_c, 0, 52, 96
2, 48000, Note_on_c, 0, 52, 0
2, 48000, Note_on_c, 0, 42, 88
2, 48060, Note_on_c, 0, 42, 0
2, 48060, Note_on_c, 0, 37, 91
2, 48119, Note_on_c, 0, 37, 0
2, 48119, Note_on_c, 0, 25, 86
2, 48180, Note_on_c, 0, 25, 0
2, 48180, Note_on_c, 0, 46, 115
2, 48240, Note_on_c, 0, 46, 0
2, 48240, Note_on_c, 0, 58, 116
2, 48299, Note_on_c, 0, 58, 0
2, 48299, Note_on_c, 0, 52, 95
2, 48360, Note_on_c, 0, 52, 0
2, 48360, Note_on_c, 0, 42, 90
2, 48420, Note_on_c, 0, 42, 0
2, 48420, Note_on_c, 0, 50, 0
2, 48420, Note_on_c, 0, 62, 0
2, 48420, Note_on_c, 0, 49, 83
2, 48420, Note_on_c, 0, 61, 83
2, 48420, Note_on_c, 0, 37, 91
2, 48479, Note_on_c, 0, 37, 0
2, 48479, Note_on_c, 0, 25, 88
2, 48540, Note_on_c, 0, 25, 0
2, 48540, Note_on_c, 0, 46, 116
2, 48555, Note_on_c, 0, 70, 0
2, 48555, Note_on_c, 0, 76, 116
2, 48566, Note_on_c, 0, 76, 0
2, 48566, Note_on_c, 0, 74, 108
2, 48578, Note_on_c, 0, 74, 0
2, 48578, Note_on_c, 0, 73, 110
2, 48589, Note_on_c, 0, 73, 0
2, 48589, Note_on_c, 0, 71, 103
2, 48600, Note_on_c, 0, 71, 0
2, 48600, Note_on_c, 0, 46, 0
2, 48600, Note_on_c, 0, 70, 117
2, 48600, Note_on_c, 0, 58, 116
2, 48659, Note_on_c, 0, 58, 0
2, 48659, Note_on_c, 0, 52, 100
2, 48720, Note_on_c, 0, 52, 0
2, 48720, Note_on_c, 0, 42, 89
2, 48780, Note_on_c, 0, 42, 0
2, 48780, Note_on_c, 0, 49, 0
2, 48780, Note_on_c, 0, 61, 0
2, 48780, Note_on_c, 0, 48, 80
2, 48780, Note_on_c, 0, 60, 80
2, 48780, Note_on_c, 0, 37, 96
2, 48839, Note_on_c, 0, 37, 0
2, 48839, Note_on_c, 0, 25, 83
2, 48900, Note_on_c, 0, 25, 0
2, 48900, Note_on_c, 0, 43, 113
2, 48915, Note_on_c, 0, 70, 0
2, 48915, Note_on_c, 0, 71, 116
2, 48926, Note_on_c, 0, 71, 0
2, 48926, Note_on_c, 0, 70, 113
2, 48938, Note_on_c, 0, 70, 0
2, 48938, Note_on_c, 0, 69, 113
2, 48949, Note_on_c, 0, 69, 0
2, 48949, Note_on_c, 0, 68, 112
2, 48960, Note_on_c, 0, 68, 0
2, 48960, Note_on_c, 0, 48, 0
2, 48960, Note_on_c, 0, 60, 0
2, 48960, Note_on_c, 0, 43, 0
2, 48960, Note_on_c, 0, 67, 117
2, 48960, Note_on_c, 0, 55, 116
2, 48960, Note_on_c, 0, 55, 65
2, 49019, Note_on_c, 0, 55, 0
2, 49019, Note_on_c, 0, 49, 93
2, 49080, Note_on_c, 0, 49, 0
2, 49080, Note_on_c, 0, 43, 93
2, 49140, Note_on_c, 0, 43, 0
2, 49140, Note_on_c, 0, 47, 83
2, 49140, Note_on_c, 0, 59, 83
2, 49140, Note_on_c, 0, 37, 95
2, 49199, Note_on_c, 0, 37, 0
2, 49199, Note_on_c, 0, 25, 90
2, 49260, Note_on_c, 0, 25, 0
2, 49260, Note_on_c, 0, 43, 116
2, 49275, Note_on_c, 0, 67, 0
2, 49275, Note_on_c, 0, 73, 116
2, 49277, Note_on_c, 0, 55, 0
2, 49286, Note_on_c, 0, 73, 0
2, 49286, Note_on_c, 0, 71, 112
2, 49298, Note_on_c, 0, 71, 0
2, 49298, Note_on_c, 0, 70, 109
2, 49309, Note_on_c, 0, 70, 0
2, 49309, Note_on_c, 0, 68, 108
2, 49320, Note_on_c, 0, 68, 0
2, 49320, Note_on_c, 0, 43, 0
2, 49320, Note_on_c, 0, 67, 117
2, 49320, Note_on_c, 0, 55, 116
2, 49379, Note_on_c, 0, 55, 0
2, 49379, Note_on_c, 0, 49, 99
2, 49440, Note_on_c, 0, 49, 0
2, 49440, Note_on_c, 0, 43, 89
2, 49500, Note_on_c, 0, 43, 0
2, 49500, Note_on_c, 0, 37, 95
2, 49559, Note_on_c, 0, 37, 0
2, 49559, Note_on_c, 0, 25, 81
2, 49620, Note_on_c, 0, 25, 0
2, 49620, Note_on_c, 0, 43, 115
2, 49680, Note_on_c, 0, 43, 0
2, 49680, Note_on_c, 0, 47, 0
2, 49680, Note_on_c, 0, 59, 0
2, 49680, Note_on_c, 0, 58, 87
2, 49680, Note_on_c, 0, 46, 116
2, 49680, Note_on_c, 0, 55, 116
2, 49739, Note_on_c, 0, 55, 0
2, 49739, Note_on_c, 0, 46, 0
2, 49739, Note_on_c, 0, 49, 98
2, 49770, Note_on_c, 0, 67, 0
2, 49770, Note_on_c, 0, 61, 94
2, 49793, Note_on_c, 0, 61, 0
2, 49793, Note_on_c, 0, 63, 116
2, 49800, Note_on_c, 0, 49, 0
2, 49800, Note_on_c, 0, 43, 93
2, 49815, Note_on_c, 0, 63, 0
2, 49815, Note_on_c, 0, 64, 116
2, 49838, Note_on_c, 0, 64, 0
2, 49838, Note_on_c, 0, 66, 116
2, 49860, Note_on_c, 0, 66, 0
2, 49860, Note_on_c, 0, 43, 0
2, 49860, Note_on_c, 0, 67, 116
2, 49860, Note_on_c, 0, 37, 93
2, 49919, Note_on_c, 0, 37, 0
2, 49919, Note_on_c, 0, 25, 87
2, 49980, Note_on_c, 0, 25, 0
2, 49980, Note_on_c, 0, 43, 116
2, 50040, Note_on_c, 0, 43, 0
2, 50040, Note_on_c, 0, 58, 0
2, 50040, Note_on_c, 0, 57, 88
2, 50040, Note_on_c, 0, 45, 116
2, 50040, Note_on_c, 0, 55, 116
2, 50099, Note_on_c, 0, 55, 0
2, 50099, Note_on_c, 0, 45, 0
2, 50099, Note_on_c, 0, 49, 98
2, 50160, Note_on_c, 0, 49, 0
2, 50160, Note_on_c, 0, 43, 94
2, 50220, Note_on_c, 0, 43, 0
2, 50220, Note_on_c, 0, 37, 92
2, 50279, Note_on_c, 0, 37, 0
2, 50279, Note_on_c, 0, 25, 83
2, 50310, Note_on_c, 0, 67, 0
2, 50310, Note_on_c, 0, 66, 117
2, 50340, Note_on_c, 0, 25, 0
2, 50340, Note_on_c, 0, 44, 115
2, 50340, Note_on_c, 0, 56, 115
2, 50355, Note_on_c, 0, 66, 0
2, 50355, Note_on_c, 0, 65, 117
2, 50369, Note_on_c, 0, 56, 0
2, 50369, Note_on_c, 0, 44, 0
2, 50369, Note_on_c, 0, 43, 102
2, 50369, Note_on_c, 0, 55, 102
2, 50400, Note_on_c, 0, 55, 0
2, 50400, Note_on_c, 0, 65, 0
2, 50400, Note_on_c, 0, 57, 0
2, 50400, Note_on_c, 0, 43, 0
2, 50400, Note_on_c, 0, 57, 111
2, 50400, Note_on_c, 0, 61, 111
2, 50400, Note_on_c, 0, 64, 111
2, 50400, Note_on_c, 0, 42, 66
2, 50400, Note_on_c, 0, 54, 66
2, 50459, Note_on_c, 0, 54, 0
2, 50459, Note_on_c, 0, 42, 0
2, 50459, Note_on_c, 0, 49, 63
2, 50520, Note_on_c, 0, 49, 0
2, 50520, Note_on_c, 0, 42, 59
2, 50580, Note_on_c, 0, 42, 0
2, 50580, Note_on_c, 0, 37, 57
2, 50639, Note_on_c, 0, 37, 0
2, 50639, Note_on_c, 0, 25, 52
2, 50700, Note_on_c, 0, 25, 0
2, 50700, Note_on_c, 0, 42, 74
2, 50760, Note_on_c, 0, 42, 0
2, 50760, Note_on_c, 0, 64, 0
2, 50760, Note_on_c, 0, 61, 0
2, 50760, Note_on_c, 0, 57, 0
2, 50760, Note_on_c, 0, 52, 117
2, 50760, Note_on_c, 0, 57, 117
2, 50760, Note_on_c, 0, 61, 117
2, 50760, Note_on_c, 0, 64, 117
2, 50760, Note_on_c, 0, 54, 73
2, 50819, Note_on_c, 0, 54, 0
2, 50819, Note_on_c, 0, 49, 63
2, 50880, Note_on_c, 0, 49, 0
2, 50880, Note_on_c, 0, 42, 59
2, 50940, Note_on_c, 0, 42, 0
2, 50940, Note_on_c, 0, 37, 61
2, 50999, Note_on_c, 0, 37, 0
2, 50999, Note_on_c, 0, 25, 58
2, 51060, Note_on_c, 0, 25, 0
2, 51060, Note_on_c, 0, 43, 70
2, 51120, Note_on_c, 0, 43, 0
2, 51120, Note_on_c, 0, 64, 0
2, 51120, Note_on_c, 0, 52, 0
2, 51120, Note_on_c, 0, 57, 0
2, 51120, Note_on_c, 0, 61, 0
2, 51120, Note_on_c, 0, 52, 117
2, 51120, Note_on_c, 0, 57, 117
2, 51120, Note_on_c, 0, 60, 117
2, 51120, Note_on_c, 0, 64, 117
2, 51120, Note_on_c, 0, 55, 75
2, 51179, Note_on_c, 0, 55, 0
2, 51179, Note_on_c, 0, 48, 60
2, 51240, Note_on_c, 0, 48, 0
2, 51240, Note_on_c, 0, 43, 61
2, 51300, Note_on_c, 0, 43, 0
2, 51300, Note_on_c, 0, 37, 60
2, 51359, Note_on_c, 0, 37, 0
2, 51359, Note_on_c, 0, 25, 51
2, 51420, Note_on_c, 0, 25, 0
2, 51420, Note_on_c, 0, 43, 78
2, 51480, Note_on_c, 0, 43, 0
2, 51480, Note_on_c, 0, 64, 0
2, 51480, Note_on_c, 0, 52, 0
2, 51480, Note_on_c, 0, 57, 0
2, 51480, Note_on_c, 0, 60, 0
2, 51480, Note_on_c, 0, 52, 117
2, 51480, Note_on_c, 0, 57, 117
2, 51480, Note_on_c, 0, 60, 117
2, 51480, Note_on_c, 0, 64, 117
2, 51480, Note_on_c, 0, 55, 76
2, 51539, Note_on_c, 0, 55, 0
2, 51539, Note_on_c, 0, 48, 62
2, 51600, Note_on_c, 0, 48, 0
2, 51600, Note_on_c, 0, 43, 62
2, 51660, Note_on_c, 0, 43, 0
2, 51660, Note_on_c, 0, 37, 58
2, 51719, Note_on_c, 0, 37, 0
2, 51719, Note_on_c, 0, 25, 49
2, 51780, Note_on_c, 0, 25, 0
2, 51780, Note_on_c, 0, 44, 69
2, 51840, Note_on_c, 0, 44, 0
2, 51840, Note_on_c, 0, 64, 0
2, 51840, Note_on_c, 0, 52, 0
2, 51840, Note_on_c, 0, 57, 0
2, 51840, Note_on_c, 0, 60, 0
2, 51840, Note_on_c, 0, 52, 105
2, 51840, Note_on_c, 0, 61, 105
2, 51840, Note_on_c, 0, 56, 78
2, 51899, Note_on_c, 0, 56, 0
2, 51899, Note_on_c, 0, 49, 61
2, 51960, Note_on_c, 0, 49, 0
2, 51960, Note_on_c, 0, 65, 107
2, 51960, Note_on_c, 0, 69, 107
2, 51960, Note_on_c, 0, 77, 107
2, 51960, Note_on_c, 0, 44, 66
2, 52020, Note_on_c, 0, 44, 0
2, 52020, Note_on_c, 0, 69, 0
2, 52020, Note_on_c, 0, 65, 0
2, 52020, Note_on_c, 0, 77, 0
2, 52020, Note_on_c, 0, 64, 109
2, 52020, Note_on_c, 0, 73, 109
2, 52020, Note_on_c, 0, 76, 109
2, 52020, Note_on_c, 0, 37, 62
2, 52079, Note_on_c, 0, 37, 0
2, 52079, Note_on_c, 0, 25, 54
2, 52140, Note_on_c, 0, 25, 0
2, 52140, Note_on_c, 0, 44, 70
2, 52172, Note_on_c, 0, 61, 116
2, 52186, Note_on_c, 0, 61, 0
2, 52186, Note_on_c, 0, 61, 116
2, 52200, Note_on_c, 0, 61, 0
2, 52200, Note_on_c, 0, 61, 0
2, 52200, Note_on_c, 0, 64, 0
2, 52200, Note_on_c, 0, 73, 0
2, 52200, Note_on_c, 0, 52, 0
2, 52200, Note_on_c, 0, 44, 0
2, 52200, Note_on_c, 0, 76, 0
2, 52200, Note_on_c, 0, 61, 117
2, 52200, Note_on_c, 0, 56, 75
2, 52259, Note_on_c, 0, 56, 0
2, 52259, Note_on_c, 0, 49, 59
2, 52320, Note_on_c, 0, 49, 0
2, 52320, Note_on_c, 0, 65, 102
2, 52320, Note_on_c, 0, 69, 102
2, 52320, Note_on_c, 0, 77, 102
2, 52320, Note_on_c, 0, 44, 59
2, 52380, Note_on_c, 0, 44, 0
2, 52380, Note_on_c, 0, 69, 0
2, 52380, Note_on_c, 0, 77, 0
2, 52380, Note_on_c, 0, 65, 0
2, 52380, Note_on_c, 0, 64, 109
2, 52380, Note_on_c, 0, 73, 109
2, 52380, Note_on_c, 0, 76, 109
2, 52380, Note_on_c, 0, 37, 58
2, 52439, Note_on_c, 0, 37, 0
2, 52439, Note_on_c, 0, 25, 53
2, 52500, Note_on_c, 0, 25, 0
2, 52500, Note_on_c, 0, 44, 73
2, 52532, Note_on_c, 0, 61, 116
2, 52546, Note_on_c, 0, 61, 0
2, 52546, Note_on_c, 0, 61, 114
2, 52560, Note_on_c, 0, 61, 0
2, 52560, Note_on_c, 0, 61, 0
2, 52560, Note_on_c, 0, 76, 0
2, 52560, Note_on_c, 0, 64, 0
2, 52560, Note_on_c, 0, 73, 0
2, 52560, Note_on_c, 0, 44, 0
2, 52560, Note_on_c, 0, 61, 117
2, 52560, Note_on_c, 0, 56, 81
2, 52619, Note_on_c, 0, 56, 0
2, 52619, Note_on_c, 0, 49, 61
2, 52680, Note_on_c, 0, 49, 0
2, 52680, Note_on_c, 0, 65, 102
2, 52680, Note_on_c, 0, 69, 102
2, 52680, Note_on_c, 0, 77, 102
2, 52680, Note_on_c, 0, 44, 68
2, 52740, Note_on_c, 0, 44, 0
2, 52740, Note_on_c, 0, 69, 0
2, 52740, Note_on_c, 0, 77, 0
2, 52740, Note_on_c, 0, 65, 0
2, 52740, Note_on_c, 0, 64, 108
2, 52740, Note_on_c, 0, 73, 108
2, 52740, Note_on_c, 0, 76, 108
2, 52740, Note_on_c, 0, 37, 58
2, 52799, Note_on_c, 0, 37, 0
2, 52799, Note_on_c, 0, 25, 57
2, 52860, Note_on_c, 0, 25, 0
2, 52860, Note_on_c, 0, 44, 72
2, 52892, Note_on_c, 0, 61, 116
2, 52906, Note_on_c, 0, 61, 0
2, 52906, Note_on_c, 0, 61, 112
2, 52920, Note_on_c, 0, 61, 0
2, 52920, Note_on_c, 0, 61, 0
2, 52920, Note_on_c, 0, 76, 0
2, 52920, Note_on_c, 0, 64, 0
2, 52920, Note_on_c, 0, 73, 0
2, 52920, Note_on_c, 0, 44, 0
2, 52920, Note_on_c, 0, 61, 117
2, 52920, Note_on_c, 0, 56, 82
2, 52979, Note_on_c, 0, 56, 0
2, 52979, Note_on_c, 0, 49, 60
2, 53040, Note_on_c, 0, 49, 0
2, 53040, Note_on_c, 0, 65, 101
2, 53040, Note_on_c, 0, 69, 101
2, 53040, Note_on_c, 0, 77, 101
2, 53040, Note_on_c, 0, 44, 55
2, 53100, Note_on_c, 0, 44, 0
2, 53100, Note_on_c, 0, 69, 0
2, 53100, Note_on_c, 0, 77, 0
2, 53100, Note_on_c, 0, 65, 0
2, 53100, Note_on_c, 0, 64, 106
2, 53100, Note_on_c, 0, 73, 106
2, 53100, Note_on_c, 0, 76, 106
2, 53100, Note_on_c, 0, 37, 57
2, 53159, Note_on_c, 0, 37, 0
2, 53159, Note_on_c, 0, 25, 53
2, 53220, Note_on_c, 0, 25, 0
2, 53280, Note_on_c, 0, 76, 0
2, 53280, Note_on_c, 0, 61, 0
2, 53280, Note_on_c, 0, 64, 0
2, 53280, Note_on_c, 0, 73, 0
2, 53280, Note_on_c, 0, 61, 117
2, 53370, Note_on_c, 0, 69, 68
2, 53370, Note_on_c, 0, 73, 68
2, 53370, Note_on_c, 0, 77, 68
2, 53370, Note_on_c, 0, 57, 57
2, 53370, Note_on_c, 0, 61, 57
2, 53370, Note_on_c, 0, 65, 57
2, 53460, Note_on_c, 0, 65, 0
2, 53460, Note_on_c, 0, 69, 0
2, 53460, Note_on_c, 0, 77, 0
2, 53460, Note_on_c, 0, 73, 0
2, 53460, Note_on_c, 0, 61, 0
2, 53460, Note_on_c, 0, 57, 0
2, 53460, Note_on_c, 0, 68, 70
2, 53460, Note_on_c, 0, 73, 70
2, 53460, Note_on_c, 0, 76, 70
2, 53460, Note_on_c, 0, 56, 60
2, 53460, Note_on_c, 0, 61, 60
2, 53460, Note_on_c, 0, 64, 60
2, 53550, Note_on_c, 0, 64, 0
2, 53550, Note_on_c, 0, 68, 0
2, 53550, Note_on_c, 0, 76, 0
2, 53550, Note_on_c, 0, 73, 0
2, 53550, Note_on_c, 0, 61, 0
2, 53550, Note_on_c, 0, 56, 0
2, 53550, Note_on_c, 0, 69, 78
2, 53550, Note_on_c, 0, 73, 78
2, 53550, Note_on_c, 0, 77, 78
2, 53550, Note_on_c, 0, 57, 68
2, 53550, Note_on_c, 0, 61, 68
2, 53550, Note_on_c, 0, 65, 68
2, 53640, Note_on_c, 0, 65, 0
2, 53640, Note_on_c, 0, 69, 0
2, 53640, Note_on_c, 0, 77, 0
2, 53640, Note_on_c, 0, 73, 0
2, 53640, Note_on_c, 0, 61, 0
2, 53640, Note_on_c, 0, 57, 0
2, 53640, Note_on_c, 0, 68, 73
2, 53640, Note_on_c, 0, 73, 73
2, 53640, Note_on_c, 0, 76, 73
2, 53640, Note_on_c, 0, 56, 63
2, 53640, Note_on_c, 0, 61, 63
2, 53640, Note_on_c, 0, 64, 63
2, 53730, Note_on_c, 0, 64, 0
2, 53730, Note_on_c, 0, 68, 0
2, 53730, Note_on_c, 0, 76, 0
2, 53730, Note_on_c, 0, 73, 0
2, 53730, Note_on_c, 0, 61, 0
2, 53730, Note_on_c, 0, 56, 0
2, 53730, Note_on_c, 0, 69, 76
2, 53730, Note_on_c, 0, 73, 76
2, 53730, Note_on_c, 0, 77, 76
2, 53730, Note_on_c, 0, 57, 70
2, 53730, Note_on_c, 0, 61, 70
2, 53730, Note_on_c, 0, 65, 70
2, 53820, Note_on_c, 0, 65, 0
2, 53820, Note_on_c, 0, 69, 0
2, 53820, Note_on_c, 0, 77, 0
2, 53820, Note_on_c, 0, 73, 0
2, 53820, Note_on_c, 0, 61, 0
2, 53820, Note_on_c, 0, 57, 0
2, 53820, Note_on_c, 0, 68, 78
2, 53820, Note_on_c, 0, 73, 78
2, 53820, Note_on_c, 0, 76, 78
2, 53820, Note_on_c, 0, 56, 64
2, 53820, Note_on_c, 0, 61, 64
2, 53820, Note_on_c, 0, 64, 64
2, 53910, Note_on_c, 0, 64, 0
2, 53910, Note_on_c, 0, 68, 0
2, 53910, Note_on_c, 0, 76, 0
2, 53910, Note_on_c, 0, 73, 0
2, 53910, Note_on_c, 0, 61, 0
2, 53910, Note_on_c, 0, 56, 0
2, 53910, Note_on_c, 0, 69, 80
2, 53910, Note_on_c, 0, 73, 80
2, 53910, Note_on_c, 0, 77, 80
2, 53910, Note_on_c, 0, 57, 65
2, 53910, Note_on_c, 0, 61, 65
2, 53910, Note_on_c, 0, 65, 65
2, 54000, Note_on_c, 0, 65, 0
2, 54000, Note_on_c, 0, 69, 0
2, 54000, Note_on_c, 0, 77, 0
2, 54000, Note_on_c, 0, 73, 0
2, 54000, Note_on_c, 0, 61, 0
2, 54000, Note_on_c, 0, 57, 0
2, 54000, Note_on_c, 0, 68, 83
2, 54000, Note_on_c, 0, 73, 83
2, 54000, Note_on_c, 0, 76, 83
2, 54000, Note_on_c, 0, 56, 58
2, 54000, Note_on_c, 0, 61, 58
2, 54000, Note_on_c, 0, 64, 58
2, 54090, Note_on_c, 0, 64, 0
2, 54090, Note_on_c, 0, 68, 0
2, 54090, Note_on_c, 0, 76, 0
2, 54090, Note_on_c, 0, 73, 0
2, 54090, Note_on_c, 0, 61, 0
2, 54090, Note_on_c, 0, 56, 0
2, 54090, Note_on_c, 0, 77, 85
2, 54090, Note_on_c, 0, 81, 85
2, 54090, Note_on_c, 0, 89, 85
2, 54090, Note_on_c, 0, 45, 55
2, 54090, Note_on_c, 0, 49, 55
2, 54090, Note_on_c, 0, 57, 55
2, 54180, Note_on_c, 0, 57, 0
2, 54180, Note_on_c, 0, 45, 0
2, 54180, Note_on_c, 0, 77, 0
2, 54180, Note_on_c, 0, 81, 0
2, 54180, Note_on_c, 0, 89, 0
2, 54180, Note_on_c, 0, 49, 0
2, 54180, Note_on_c, 0, 76, 87
2, 54180, Note_on_c, 0, 85, 87
2, 54180, Note_on_c, 0, 88, 87
2, 54180, Note_on_c, 0, 44, 64
2, 54180, Note_on_c, 0, 49, 64
2, 54180, Note_on_c, 0, 56, 64
2, 54270, Note_on_c, 0, 56, 0
2, 54270, Note_on_c, 0, 44, 0
2, 54270, Note_on_c, 0, 76, 0
2, 54270, Note_on_c, 0, 85, 0
2, 54270, Note_on_c, 0, 88, 0
2, 54270, Note_on_c, 0, 49, 0
2, 54270, Note_on_c, 0, 77, 89
2, 54270, Note_on_c, 0, 81, 89
2, 54270, Note_on_c, 0, 89, 89
2, 54270, Note_on_c, 0, 45, 64
2, 54270, Note_on_c, 0, 49, 64
2, 54270, Note_on_c, 0, 57, 64
2, 54360, Note_on_c, 0, 57, 0
2, 54360, Note_on_c, 0, 45, 0
2, 54360, Note_on_c, 0, 77, 0
2, 54360, Note_on_c, 0, 81, 0
2, 54360, Note_on_c, 0, 89, 0
2, 54360, Note_on_c, 0, 49, 0
2, 54360, Note_on_c, 0, 76, 92
2, 54360, Note_on_c, 0, 85, 92
2, 54360, Note_on_c, 0, 88, 92
2, 54360, Note_on_c, 0, 44, 69
2, 54360, Note_on_c, 0, 49, 69
2, 54360, Note_on_c, 0, 56, 69
2, 54450, Note_on_c, 0, 56, 0
2, 54450, Note_on_c, 0, 44, 0
2, 54450, Note_on_c, 0, 76, 0
2, 54450, Note_on_c, 0, 85, 0
2, 54450, Note_on_c, 0, 88, 0
2, 54450, Note_on_c, 0, 49, 0
2, 54450, Note_on_c, 0, 77, 94
2, 54450, Note_on_c, 0, 81, 94
2, 54450, Note_on_c, 0, 89, 94
2, 54450, Note_on_c, 0, 45, 67
2, 54450, Note_on_c, 0, 49, 67
2, 54450, Note_on_c, 0, 57, 67
2, 54540, Note_on_c, 0, 57, 0
2, 54540, Note_on_c, 0, 45, 0
2, 54540, Note_on_c, 0, 77, 0
2, 54540, Note_on_c, 0, 81, 0
2, 54540, Note_on_c, 0, 89, 0
2, 54540, Note_on_c, 0, 49, 0
2, 54540, Note_on_c, 0, 76, 96
2, 54540, Note_on_c, 0, 85, 96
2, 54540, Note_on_c, 0, 88, 96
2, 54540, Note_on_c, 0, 44, 70
2, 54540, Note_on_c, 0, 49, 70
2, 54540, Note_on_c, 0, 56, 70
2, 54630, Note_on_c, 0, 56, 0
2, 54630, Note_on_c, 0, 44, 0
2, 54630, Note_on_c, 0, 76, 0
2, 54630, Note_on_c, 0, 85, 0
2, 54630, Note_on_c, 0, 88, 0
2, 54630, Note_on_c, 0, 49, 0
2, 54630, Note_on_c, 0, 77, 99
2, 54630, Note_on_c, 0, 81, 99
2, 54630, Note_on_c, 0, 89, 99
2, 54630, Note_on_c, 0, 45, 68
2, 54630, Note_on_c, 0, 49, 68
2, 54630, Note_on_c, 0, 57, 68
2, 54720, Note_on_c, 0, 57, 0
2, 54720, Note_on_c, 0, 45, 0
2, 54720, Note_on_c, 0, 77, 0
2, 54720, Note_on_c, 0, 81, 0
2, 54720, Note_on_c, 0, 61, 0
2, 54720, Note_on_c, 0, 49, 0
2, 54720, Note_on_c, 0, 89, 0
2, 54720, Note_on_c, 0, 25, 85
2, 54720, Note_on_c, 0, 37, 85
2, 54810, Note_on_c, 0, 76, 89
2, 54810, Note_on_c, 0, 80, 89
2, 54810, Note_on_c, 0, 85, 89
2, 54810, Note_on_c, 0, 88, 89
2, 54810, Note_on_c, 0, 44, 59
2, 54810, Note_on_c, 0, 49, 59
2, 54810, Note_on_c, 0, 52, 59
2, 54810, Note_on_c, 0, 56, 59
2, 54900, Note_on_c, 0, 56, 0
2, 54900, Note_on_c, 0, 76, 0
2, 54900, Note_on_c, 0, 80, 0
2, 54900, Note_on_c, 0, 52, 0
2, 54900, Note_on_c, 0, 85, 0
2, 54900, Note_on_c, 0, 44, 0
2, 54900, Note_on_c, 0, 49, 0
2, 54900, Note_on_c, 0, 88, 0
2, 54900, Note_on_c, 0, 76, 99
2, 54900, Note_on_c, 0, 80, 99
2, 54900, Note_on_c, 0, 85, 99
2, 54900, Note_on_c, 0, 88, 99
2, 54900, Note_on_c, 0, 52, 84
2, 54900, Note_on_c, 0, 56, 84
2, 54900, Note_on_c, 0, 61, 84
2, 54900, Note_on_c, 0, 64, 84
2, 54990, Note_on_c, 0, 64, 0
2, 54990, Note_on_c, 0, 76, 0
2, 54990, Note_on_c, 0, 80, 0
2, 54990, Note_on_c, 0, 61, 0
2, 54990, Note_on_c, 0, 85, 0
2, 54990, Note_on_c, 0, 52, 0
2, 54990, Note_on_c, 0, 56, 0
2, 54990, Note_on_c, 0, 88, 0
2, 54990, Note_on_c, 0, 76, 104
2, 54990, Note_on_c, 0, 80, 104
2, 54990, Note_on_c, 0, 85, 104
2, 54990, Note_on_c, 0, 88, 104
2, 54990, Note_on_c, 0, 52, 68
2, 54990, Note_on_c, 0, 56, 68
2, 54990, Note_on_c, 0, 61, 68
2, 54990, Note_on_c, 0, 64, 68
2, 55080, Note_on_c, 0, 64, 0
2, 55080, Note_on_c, 0, 76, 0
2, 55080, Note_on_c, 0, 80, 0
2, 55080, Note_on_c, 0, 61, 0
2, 55080, Note_on_c, 0, 85, 0
2, 55080, Note_on_c, 0, 52, 0
2, 55080, Note_on_c, 0, 56, 0
2, 55080, Note_on_c, 0, 88, 0
2, 55080, Note_on_c, 0, 76, 99
2, 55080, Note_on_c, 0, 80, 99
2, 55080, Note_on_c, 0, 85, 99
2, 55080, Note_on_c, 0, 88, 99
2, 55080, Note_on_c, 0, 52, 63
2, 55080, Note_on_c, 0, 56, 63
2, 55080, Note_on_c, 0, 61, 63
2, 55080, Note_on_c, 0, 64, 63
2, 55139, Note_on_c, 0, 64, 0
2, 55139, Note_on_c, 0, 76, 0
2, 55139, Note_on_c, 0, 80, 0
2, 55139, Note_on_c, 0, 61, 0
2, 55139, Note_on_c, 0, 85, 0
2, 55139, Note_on_c, 0, 52, 0
2, 55139, Note_on_c, 0, 56, 0
2, 55139, Note_on_c, 0, 88, 0
2, 55139, Note_on_c, 0, 76, 103
2, 55139, Note_on_c, 0, 80, 103
2, 55139, Note_on_c, 0, 85, 103
2, 55139, Note_on_c, 0, 88, 103
2, 55139, Note_on_c, 0, 52, 66
2, 55139, Note_on_c, 0, 56, 66
2, 55139, Note_on_c, 0, 61, 66
2, 55139, Note_on_c, 0, 64, 66
2, 55200, Note_on_c, 0, 64, 0
2, 55200, Note_on_c, 0, 76, 0
2, 55200, Note_on_c, 0, 80, 0
2, 55200, Note_on_c, 0, 61, 0
2, 55200, Note_on_c, 0, 85, 0
2, 55200, Note_on_c, 0, 52, 0
2, 55200, Note_on_c, 0, 56, 0
2, 55200, Note_on_c, 0, 88, 0
2, 55200, Note_on_c, 0, 76, 102
2, 55200, Note_on_c, 0, 80, 102
2, 55200, Note_on_c, 0, 85, 102
2, 55200, Note_on_c, 0, 88, 102
2, 55200, Note_on_c, 0, 52, 64
2, 55200, Note_on_c, 0, 56, 64
2, 55200, Note_on_c, 0, 61, 64
2, 55200, Note_on_c, 0, 64, 64
2, 55260, Note_on_c, 0, 64, 0
2, 55260, Note_on_c, 0, 76, 0
2, 55260, Note_on_c, 0, 80, 0
2, 55260, Note_on_c, 0, 61, 0
2, 55260, Note_on_c, 0, 85, 0
2, 55260, Note_on_c, 0, 52, 0
2, 55260, Note_on_c, 0, 56, 0
2, 55260, Note_on_c, 0, 88, 0
2, 55260, Note_on_c, 0, 76, 101
2, 55260, Note_on_c, 0, 80, 101
2, 55260, Note_on_c, 0, 85, 101
2, 55260, Note_on_c, 0, 88, 101
2, 55260, Note_on_c, 0, 52, 67
2, 55260, Note_on_c, 0, 56, 67
2, 55260, Note_on_c, 0, 61, 67
2, 55260, Note_on_c, 0, 64, 67
2, 55319, Note_on_c, 0, 64, 0
2, 55319, Note_on_c, 0, 76, 0
2, 55319, Note_on_c, 0, 80, 0
2, 55319, Note_on_c, 0, 61, 0
2, 55319, Note_on_c, 0, 85, 0
2, 55319, Note_on_c, 0, 52, 0
2, 55319, Note_on_c, 0, 56, 0
2, 55319, Note_on_c, 0, 88, 0
2, 55319, Note_on_c, 0, 76, 103
2, 55319, Note_on_c, 0, 80, 103
2, 55319, Note_on_c, 0, 85, 103
2, 55319, Note_on_c, 0, 88, 103
2, 55319, Note_on_c, 0, 52, 63
2, 55319, Note_on_c, 0, 56, 63
2, 55319, Note_on_c, 0, 61, 63
2, 55319, Note_on_c, 0, 64, 63
2, 55380, Note_on_c, 0, 64, 0
2, 55380, Note_on_c, 0, 76, 0
2, 55380, Note_on_c, 0, 80, 0
2, 55380, Note_on_c, 0, 61, 0
2, 55380, Note_on_c, 0, 85, 0
2, 55380, Note_on_c, 0, 52, 0
2, 55380, Note_on_c, 0, 56, 0
2, 55380, Note_on_c, 0, 88, 0
2, 55380, Note_on_c, 0, 76, 101
2, 55380, Note_on_c, 0, 80, 101
2, 55380, Note_on_c, 0, 85, 101
2, 55380, Note_on_c, 0, 88, 101
2, 55380, Note_on_c, 0, 52, 67
2, 55380, Note_on_c, 0, 56, 67
2, 55380, Note_on_c, 0, 61, 67
2, 55380, Note_on_c, 0, 64, 67
2, 55440, Note_on_c, 0, 64, 0
2, 55440, Note_on_c, 0, 76, 0
2, 55440, Note_on_c, 0, 80, 0
2, 55440, Note_on_c, 0, 61, 0
2, 55440, Note_on_c, 0, 85, 0
2, 55440, Note_on_c, 0, 52, 0
2, 55440, Note_on_c, 0, 56, 0
2, 55440, Note_on_c, 0, 88, 0
2, 55440, Note_on_c, 0, 85, 116
2, 55440, Note_on_c, 0, 97, 116
2, 55440, Note_on_c, 0, 61, 83
2, 55440, Note_on_c, 0, 73, 83
2, 56160, Note_on_c, 0, 73, 0
2, 56160, Note_on_c, 0, 25, 0
2, 56160, Note_on_c, 0, 85, 0
2, 56160, Note_on_c, 0, 37, 0
2, 56160, Note_on_c, 0, 61, 0
2, 56160, Note_on_c, 0, 97, 0
2, 56160, End_track
0, 0, End_of_file
