0, 0, Header, 1, 2, 360
1, 0, Start_track
1, 0, Title_t, "untitled"
1, 0, Time_signature, 4, 2, 24, 8
1, 0, Key_signature, -3, "major"
1, 0, Tempo, 600000
1, 11520, Time_signature, 2, 2, 24, 8
1, 12240, Time_signature, 4, 2, 24, 8
1, 23760, Time_signature, 2, 2, 24, 8
1, 24480, Time_signature, 4, 2, 24, 8
1, 30240, Time_signature, 2, 2, 24, 8
1, 30960, Time_signature, 4, 2, 24, 8
1, 30960, Tempo, 600000
1, 31098, Tempo, 606061
1, 31236, Tempo, 612245
1, 31374, Tempo, 618557
1, 31511, Tempo, 625000
1, 31649, Tempo, 631579
1, 31787, Tempo, 638298
1, 31925, Tempo, 645161
1, 32063, Tempo, 652174
1, 32201, Tempo, 659341
1, 32338, Tempo, 666667
1, 32400, Tempo, 600000
1, 32538, Tempo, 600000
1, 32676, Tempo, 600000
1, 32814, Tempo, 600000
1, 32951, Tempo, 600000
1, 33089, Tempo, 600000
1, 33227, Tempo, 600000
1, 33365, Tempo, 600000
1, 33503, Tempo, 600000
1, 33641, Tempo, 600000
1, 33778, Tempo, 600000
1, 42480, Tempo, 600000
1, 42618, Tempo, 606061
1, 42756, Tempo, 612245
1, 42894, Tempo, 618557
1, 43031, Tempo, 625000
1, 43169, Tempo, 631579
1, 43307, Tempo, 638298
1, 43445, Tempo, 645161
1, 43583, Tempo, 652174
1, 43721, Tempo, 659341
1, 43858, Tempo, 666667
1, 44100, Tempo, 600000
1, 44220, Tempo, 600000
1, 44339, Tempo, 600000
1, 44459, Tempo, 600000
1, 44578, Tempo, 600000
1, 44698, Tempo, 600000
1, 44817, Tempo, 600000
1, 44937, Tempo, 600000
1, 45056, Tempo, 600000
1, 45176, Tempo, 600000
1, 45296, Tempo, 600000
1, 52560, Time_signature, 2, 2, 24, 8
1, 53280, Time_signature, 4, 2, 24, 8
1, 57600, Time_signature, 2, 2, 24, 8
1, 58320, Time_signature, 4, 2, 24, 8
1, 59760, Tempo, 600000
1, 59832, Tempo, 609137
1, 59904, Tempo, 618557
1, 59975, Tempo, 628272
1, 60047, Tempo, 638298
1, 60119, Tempo, 648649
1, 60191, Tempo, 659341
1, 60262, Tempo, 670391
1, 60334, Tempo, 681818
1, 60405, Tempo, 693642
1, 60477, Tempo, 705882
1, 61200, Tempo, 600000
1, 61338, Tempo, 600000
1, 61476, Tempo, 600000
1, 61614, Tempo, 600000
1, 61751, Tempo, 600000
1, 61889, Tempo, 600000
1, 62027, Tempo, 600000
1, 62165, Tempo, 600000
1, 62303, Tempo, 600000
1, 62441, Tempo, 600000
1, 62578, Tempo, 600000
1, 71280, Time_signature, 3, 2, 24, 8
1, 77760, Time_signature, 4, 2, 24, 8
1, 83520, Time_signature, 2, 2, 24, 8
1, 84240, Time_signature, 4, 2, 24, 8
1, 87840, Tempo, 600000
1, 87899, Tempo, 625000
1, 87958, Tempo, 652174
1, 88017, Tempo, 681818
1, 88076, Tempo, 714286
1, 88136, Tempo, 750000
1, 88194, Tempo, 789474
1, 88254, Tempo, 833333
1, 88313, Tempo, 882353
1, 88372, Tempo, 937500
1, 88431, Tempo, 1000000
1, 88698, Tempo, 600000
1, 88836, Tempo, 600000
1, 88974, Tempo, 600000
1, 89111, Tempo, 600000
1, 89249, Tempo, 600000
1, 89387, Tempo, 600000
1, 89525, Tempo, 600000
1, 89663, Tempo, 600000
1, 89801, Tempo, 600000
1, 89938, Tempo, 600000
1, 100620, Tempo, 600000
1, 100800, Tempo, 586510
1, 100980, Tempo, 573614
1, 101160, Tempo, 561272
1, 101340, Tempo, 549451
1, 101520, Tempo, 538117
1, 101700, Tempo, 527241
1, 101880, Tempo, 516796
1, 102060, Tempo, 506757
1, 102240, Tempo, 497100
1, 102420, Tempo, 487805
1, 102600, Tempo, 478851
1, 102780, Tempo, 470219
1, 102960, Time_signature, 3, 2, 24, 8
1, 102960, Tempo, 600000
1, 103050, Tempo, 600000
1, 103140, Tempo, 600000
1, 103230, Tempo, 600000
1, 103320, Tempo, 600000
1, 103410, Tempo, 600000
1, 103500, Tempo, 600000
1, 103590, Tempo, 600000
1, 104040, Tempo, 600000
1, 104085, Tempo, 623377
1, 104130, Tempo, 648649
1, 104175, Tempo, 676056
1, 104220, Tempo, 705882
1, 104265, Tempo, 738462
1, 104310, Tempo, 774194
1, 104355, Tempo, 813559
1, 104400, Tempo, 857143
1, 105005, Tempo, 3750000
1, 105050, Tempo, 857143
1, 105050, End_track
2, 0, Start_track
2, 0, Title_t, "Piano"
2, 0, Control_c, 0, 0, 0
2, 0, Control_c, 0, 32, 0
2, 0, Program_c, 0, 0
2, 0, Control_c, 0, 7, 105
2, 0, Control_c, 0, 10, 63
2, 0, Control_c, 0, 91, 58
2, 0, Control_c, 0, 91, 58
2, 0, Control_c, 0, 10, 56
2, 0, Note_on_c, 0, 56, 58
2, 0, Control_c, 0, 64, 127
2, 0, Note_on_c, 0, 29, 45
2, 0, Note_on_c, 0, 41, 45
2, 54, Note_on_c, 0, 56, 0
2, 59, Note_on_c, 0, 48, 49
2, 114, Note_on_c, 0, 48, 0
2, 120, Note_on_c, 0, 60, 78
2, 163, Note_on_c, 0, 41, 0
2, 163, Note_on_c, 0, 29, 0
2, 174, Note_on_c, 0, 60, 0
2, 180, Note_on_c, 0, 61, 68
2, 180, Note_on_c, 0, 36, 61
2, 180, Note_on_c, 0, 48, 64
2, 234, Note_on_c, 0, 61, 0
2, 239, Note_on_c, 0, 56, 54
2, 294, Note_on_c, 0, 56, 0
2, 300, Note_on_c, 0, 68, 80
2, 354, Note_on_c, 0, 68, 0
2, 360, Note_on_c, 0, 62, 57
2, 414, Note_on_c, 0, 62, 0
2, 419, Note_on_c, 0, 60, 60
2, 474, Note_on_c, 0, 60, 0
2, 480, Note_on_c, 0, 72, 81
2, 534, Note_on_c, 0, 72, 0
2, 540, Note_on_c, 0, 48, 0
2, 540, Note_on_c, 0, 36, 0
2, 540, Note_on_c, 0, 68, 59
2, 540, Control_c, 0, 64, 0
2, 540, Note_on_c, 0, 48, 69
2, 540, Note_on_c, 0, 60, 69
2, 594, Note_on_c, 0, 68, 0
2, 599, Note_on_c, 0, 63, 54
2, 654, Note_on_c, 0, 63, 0
2, 660, Note_on_c, 0, 75, 80
2, 714, Note_on_c, 0, 75, 0
2, 720, Note_on_c, 0, 62, 50
2, 774, Note_on_c, 0, 62, 0
2, 779, Note_on_c, 0, 60, 58
2, 834, Note_on_c, 0, 60, 0
2, 840, Note_on_c, 0, 72, 78
2, 894, Note_on_c, 0, 72, 0
2, 900, Note_on_c, 0, 60, 0
2, 900, Note_on_c, 0, 48, 0
2, 900, Note_on_c, 0, 63, 52
2, 900, Note_on_c, 0, 47, 40
2, 954, Note_on_c, 0, 63, 0
2, 959, Note_on_c, 0, 56, 51
2, 1014, Note_on_c, 0, 56, 0
2, 1020, Note_on_c, 0, 68, 79
2, 1074, Note_on_c, 0, 68, 0
2, 1080, Note_on_c, 0, 47, 0
2, 1080, Note_on_c, 0, 59, 55
2, 1080, Note_on_c, 0, 42, 37
2, 1134, Note_on_c, 0, 59, 0
2, 1139, Note_on_c, 0, 56, 53
2, 1194, Note_on_c, 0, 56, 0
2, 1200, Note_on_c, 0, 62, 72
2, 1243, Note_on_c, 0, 42, 0
2, 1254, Note_on_c, 0, 62, 0
2, 1260, Note_on_c, 0, 60, 61
2, 1260, Note_on_c, 0, 36, 41
2, 1314, Note_on_c, 0, 60, 0
2, 1319, Note_on_c, 0, 55, 53
2, 1374, Note_on_c, 0, 55, 0
2, 1380, Note_on_c, 0, 63, 74
2, 1423, Note_on_c, 0, 36, 0
2, 1434, Note_on_c, 0, 63, 0
2, 1440, Note_on_c, 0, 56, 57
2, 1440, Control_c, 0, 64, 127
2, 1440, Note_on_c, 0, 29, 55
2, 1440, Note_on_c, 0, 41, 54
2, 1494, Note_on_c, 0, 56, 0
2, 1499, Note_on_c, 0, 48, 48
2, 1554, Note_on_c, 0, 48, 0
2, 1560, Note_on_c, 0, 60, 77
2, 1603, Note_on_c, 0, 41, 0
2, 1603, Note_on_c, 0, 29, 0
2, 1614, Note_on_c, 0, 60, 0
2, 1620, Note_on_c, 0, 61, 69
2, 1620, Note_on_c, 0, 36, 64
2, 1620, Note_on_c, 0, 48, 62
2, 1674, Note_on_c, 0, 61, 0
2, 1679, Note_on_c, 0, 56, 54
2, 1734, Note_on_c, 0, 56, 0
2, 1740, Note_on_c, 0, 68, 78
2, 1794, Note_on_c, 0, 68, 0
2, 1800, Note_on_c, 0, 62, 59
2, 1854, Note_on_c, 0, 62, 0
2, 1859, Note_on_c, 0, 60, 60
2, 1914, Note_on_c, 0, 60, 0
2, 1920, Note_on_c, 0, 72, 80
2, 1974, Note_on_c, 0, 72, 0
2, 1980, Note_on_c, 0, 48, 0
2, 1980, Note_on_c, 0, 36, 0
2, 1980, Note_on_c, 0, 68, 60
2, 1980, Control_c, 0, 64, 0
2, 1980, Note_on_c, 0, 48, 69
2, 1980, Note_on_c, 0, 60, 72
2, 2034, Note_on_c, 0, 68, 0
2, 2039, Note_on_c, 0, 63, 54
2, 2094, Note_on_c, 0, 63, 0
2, 2100, Note_on_c, 0, 75, 78
2, 2154, Note_on_c, 0, 75, 0
2, 2160, Note_on_c, 0, 62, 49
2, 2214, Note_on_c, 0, 62, 0
2, 2219, Note_on_c, 0, 60, 58
2, 2274, Note_on_c, 0, 60, 0
2, 2280, Note_on_c, 0, 72, 78
2, 2334, Note_on_c, 0, 72, 0
2, 2340, Note_on_c, 0, 60, 0
2, 2340, Note_on_c, 0, 48, 0
2, 2340, Note_on_c, 0, 63, 53
2, 2340, Note_on_c, 0, 47, 40
2, 2394, Note_on_c, 0, 63, 0
2, 2399, Note_on_c, 0, 56, 49
2, 2454, Note_on_c, 0, 56, 0
2, 2460, Note_on_c, 0, 68, 78
2, 2514, Note_on_c, 0, 68, 0
2, 2520, Note_on_c, 0, 47, 0
2, 2520, Note_on_c, 0, 59, 53
2, 2520, Note_on_c, 0, 42, 38
2, 2574, Note_on_c, 0, 59, 0
2, 2579, Note_on_c, 0, 56, 55
2, 2634, Note_on_c, 0, 56, 0
2, 2640, Note_on_c, 0, 62, 72
2, 2683, Note_on_c, 0, 42, 0
2, 2694, Note_on_c, 0, 62, 0
2, 2700, Note_on_c, 0, 60, 59
2, 2700, Note_on_c, 0, 36, 41
2, 2754, Note_on_c, 0, 60, 0
2, 2759, Note_on_c, 0, 55, 55
2, 2814, Note_on_c, 0, 55, 0
2, 2820, Note_on_c, 0, 63, 73
2, 2863, Note_on_c, 0, 36, 0
2, 2874, Note_on_c, 0, 63, 0
2, 2880, Note_on_c, 0, 56, 55
2, 2880, Control_c, 0, 64, 127
2, 2880, Note_on_c, 0, 29, 54
2, 2880, Note_on_c, 0, 41, 56
2, 2934, Note_on_c, 0, 56, 0
2, 2939, Note_on_c, 0, 48, 48
2, 2994, Note_on_c, 0, 48, 0
2, 3000, Note_on_c, 0, 60, 75
2, 3043, Note_on_c, 0, 41, 0
2, 3043, Note_on_c, 0, 29, 0
2, 3054, Note_on_c, 0, 60, 0
2, 3060, Note_on_c, 0, 61, 69
2, 3060, Note_on_c, 0, 36, 64
2, 3060, Note_on_c, 0, 48, 64
2, 3114, Note_on_c, 0, 61, 0
2, 3119, Note_on_c, 0, 56, 56
2, 3174, Note_on_c, 0, 56, 0
2, 3180, Note_on_c, 0, 68, 78
2, 3234, Note_on_c, 0, 68, 0
2, 3240, Note_on_c, 0, 62, 60
2, 3294, Note_on_c, 0, 62, 0
2, 3299, Note_on_c, 0, 60, 57
2, 3354, Note_on_c, 0, 60, 0
2, 3360, Note_on_c, 0, 72, 80
2, 3414, Note_on_c, 0, 72, 0
2, 3420, Note_on_c, 0, 48, 0
2, 3420, Note_on_c, 0, 36, 0
2, 3420, Note_on_c, 0, 68, 58
2, 3420, Control_c, 0, 64, 0
2, 3420, Note_on_c, 0, 48, 61
2, 3420, Note_on_c, 0, 60, 63
2, 3474, Note_on_c, 0, 68, 0
2, 3479, Note_on_c, 0, 63, 55
2, 3534, Note_on_c, 0, 63, 0
2, 3540, Note_on_c, 0, 75, 77
2, 3583, Note_on_c, 0, 60, 0
2, 3583, Note_on_c, 0, 48, 0
2, 3594, Note_on_c, 0, 75, 0
2, 3600, Control_c, 0, 64, 127
2, 3600, Note_on_c, 0, 32, 38
2, 3600, Note_on_c, 0, 44, 39
2, 3720, Note_on_c, 0, 60, 55
2, 3763, Note_on_c, 0, 44, 0
2, 3763, Note_on_c, 0, 32, 0
2, 3774, Note_on_c, 0, 60, 0
2, 3780, Note_on_c, 0, 65, 71
2, 3780, Note_on_c, 0, 39, 59
2, 3780, Note_on_c, 0, 51, 61
2, 3834, Note_on_c, 0, 65, 0
2, 3839, Note_on_c, 0, 60, 56
2, 3894, Note_on_c, 0, 60, 0
2, 3900, Note_on_c, 0, 72, 80
2, 3954, Note_on_c, 0, 72, 0
2, 3960, Note_on_c, 0, 66, 60
2, 4014, Note_on_c, 0, 66, 0
2, 4019, Note_on_c, 0, 62, 56
2, 4074, Note_on_c, 0, 62, 0
2, 4080, Note_on_c, 0, 74, 78
2, 4134, Note_on_c, 0, 74, 0
2, 4140, Note_on_c, 0, 51, 0
2, 4140, Note_on_c, 0, 39, 0
2, 4140, Note_on_c, 0, 72, 64
2, 4140, Control_c, 0, 64, 0
2, 4140, Note_on_c, 0, 51, 62
2, 4140, Note_on_c, 0, 63, 62
2, 4194, Note_on_c, 0, 72, 0
2, 4199, Note_on_c, 0, 67, 54
2, 4254, Note_on_c, 0, 67, 0
2, 4260, Note_on_c, 0, 79, 79
2, 4303, Note_on_c, 0, 63, 0
2, 4303, Note_on_c, 0, 51, 0
2, 4314, Note_on_c, 0, 79, 0
2, 4320, Control_c, 0, 64, 127
2, 4320, Note_on_c, 0, 36, 41
2, 4320, Note_on_c, 0, 48, 39
2, 4440, Note_on_c, 0, 63, 45
2, 4483, Note_on_c, 0, 48, 0
2, 4483, Note_on_c, 0, 36, 0
2, 4494, Note_on_c, 0, 63, 0
2, 4500, Note_on_c, 0, 60, 45
2, 4500, Note_on_c, 0, 44, 63
2, 4500, Note_on_c, 0, 56, 63
2, 4554, Note_on_c, 0, 60, 0
2, 4559, Note_on_c, 0, 66, 61
2, 4614, Note_on_c, 0, 66, 0
2, 4620, Note_on_c, 0, 72, 69
2, 4674, Note_on_c, 0, 72, 0
2, 4680, Note_on_c, 0, 67, 59
2, 4734, Note_on_c, 0, 67, 0
2, 4739, Note_on_c, 0, 63, 60
2, 4794, Note_on_c, 0, 63, 0
2, 4800, Note_on_c, 0, 74, 93
2, 4854, Note_on_c, 0, 74, 0
2, 4860, Note_on_c, 0, 56, 0
2, 4860, Note_on_c, 0, 44, 0
2, 4860, Note_on_c, 0, 63, 65
2, 4860, Control_c, 0, 64, 0
2, 4860, Note_on_c, 0, 45, 74
2, 4860, Note_on_c, 0, 57, 74
2, 4914, Note_on_c, 0, 63, 0
2, 4919, Note_on_c, 0, 71, 99
2, 4974, Note_on_c, 0, 71, 0
2, 4980, Note_on_c, 0, 75, 104
2, 5023, Note_on_c, 0, 57, 0
2, 5023, Note_on_c, 0, 45, 0
2, 5034, Note_on_c, 0, 75, 0
2, 5040, Note_on_c, 0, 67, 84
2, 5040, Note_on_c, 0, 39, 71
2, 5040, Note_on_c, 0, 51, 69
2, 5094, Note_on_c, 0, 67, 0
2, 5099, Note_on_c, 0, 74, 121
2, 5154, Note_on_c, 0, 74, 0
2, 5160, Note_on_c, 0, 79, 127
2, 5203, Note_on_c, 0, 51, 0
2, 5203, Note_on_c, 0, 39, 0
2, 5214, Note_on_c, 0, 79, 0
2, 5220, Note_on_c, 0, 75, 106
2, 5220, Note_on_c, 0, 47, 107
2, 5220, Note_on_c, 0, 59, 108
2, 5274, Note_on_c, 0, 75, 0
2, 5279, Note_on_c, 0, 68, 97
2, 5334, Note_on_c, 0, 68, 0
2, 5340, Note_on_c, 0, 80, 127
2, 5383, Note_on_c, 0, 59, 0
2, 5383, Note_on_c, 0, 47, 0
2, 5394, Note_on_c, 0, 80, 0
2, 5400, Note_on_c, 0, 71, 82
2, 5400, Note_on_c, 0, 50, 110
2, 5400, Note_on_c, 0, 62, 112
2, 5454, Note_on_c, 0, 71, 0
2, 5459, Note_on_c, 0, 66, 80
2, 5514, Note_on_c, 0, 66, 0
2, 5520, Note_on_c, 0, 78, 121
2, 5563, Note_on_c, 0, 62, 0
2, 5563, Note_on_c, 0, 50, 0
2, 5574, Note_on_c, 0, 78, 0
2, 5580, Note_on_c, 0, 72, 85
2, 5580, Note_on_c, 0, 45, 84
2, 5580, Note_on_c, 0, 57, 82
2, 5634, Note_on_c, 0, 72, 0
2, 5639, Note_on_c, 0, 67, 80
2, 5694, Note_on_c, 0, 67, 0
2, 5700, Note_on_c, 0, 79, 122
2, 5743, Note_on_c, 0, 57, 0
2, 5743, Note_on_c, 0, 45, 0
2, 5754, Note_on_c, 0, 79, 0
2, 5760, Note_on_c, 0, 66, 79
2, 5760, Note_on_c, 0, 47, 103
2, 5760, Note_on_c, 0, 59, 105
2, 5814, Note_on_c, 0, 66, 0
2, 5819, Note_on_c, 0, 62, 82
2, 5874, Note_on_c, 0, 62, 0
2, 5880, Note_on_c, 0, 74, 121
2, 5923, Note_on_c, 0, 59, 0
2, 5923, Note_on_c, 0, 47, 0
2, 5934, Note_on_c, 0, 74, 0
2, 5940, Note_on_c, 0, 71, 93
2, 5940, Note_on_c, 0, 43, 86
2, 5940, Note_on_c, 0, 55, 87
2, 5994, Note_on_c, 0, 71, 0
2, 5999, Note_on_c, 0, 63, 77
2, 6054, Note_on_c, 0, 63, 0
2, 6060, Note_on_c, 0, 75, 120
2, 6103, Note_on_c, 0, 55, 0
2, 6103, Note_on_c, 0, 43, 0
2, 6114, Note_on_c, 0, 75, 0
2, 6120, Note_on_c, 0, 59, 75
2, 6120, Note_on_c, 0, 44, 100
2, 6120, Note_on_c, 0, 56, 103
2, 6174, Note_on_c, 0, 59, 0
2, 6179, Note_on_c, 0, 63, 98
2, 6234, Note_on_c, 0, 63, 0
2, 6240, Note_on_c, 0, 71, 105
2, 6283, Note_on_c, 0, 56, 0
2, 6283, Note_on_c, 0, 44, 0
2, 6294, Note_on_c, 0, 71, 0
2, 6300, Note_on_c, 0, 68, 76
2, 6300, Note_on_c, 0, 39, 76
2, 6300, Note_on_c, 0, 51, 73
2, 6354, Note_on_c, 0, 68, 0
2, 6359, Note_on_c, 0, 60, 62
2, 6414, Note_on_c, 0, 60, 0
2, 6420, Note_on_c, 0, 72, 90
2, 6474, Note_on_c, 0, 72, 0
2, 6480, Note_on_c, 0, 60, 53
2, 6534, Note_on_c, 0, 60, 0
2, 6539, Note_on_c, 0, 55, 52
2, 6594, Note_on_c, 0, 55, 0
2, 6600, Note_on_c, 0, 67, 72
2, 6643, Note_on_c, 0, 51, 0
2, 6643, Note_on_c, 0, 39, 0
2, 6654, Note_on_c, 0, 67, 0
2, 6660, Note_on_c, 0, 56, 40
2, 6660, Note_on_c, 0, 35, 60
2, 6660, Note_on_c, 0, 47, 62
2, 6714, Note_on_c, 0, 56, 0
2, 6719, Note_on_c, 0, 64, 58
2, 6774, Note_on_c, 0, 64, 0
2, 6780, Note_on_c, 0, 68, 54
2, 6823, Note_on_c, 0, 47, 0
2, 6823, Note_on_c, 0, 35, 0
2, 6834, Note_on_c, 0, 68, 0
2, 6840, Note_on_c, 0, 59, 35
2, 6840, Note_on_c, 0, 32, 57
2, 6840, Note_on_c, 0, 44, 55
2, 6894, Note_on_c, 0, 59, 0
2, 6899, Note_on_c, 0, 51, 27
2, 6954, Note_on_c, 0, 51, 0
2, 6960, Note_on_c, 0, 63, 42
2, 7003, Note_on_c, 0, 44, 0
2, 7003, Note_on_c, 0, 32, 0
2, 7014, Note_on_c, 0, 63, 0
2, 7020, Note_on_c, 0, 55, 23
2, 7020, Note_on_c, 0, 31, 47
2, 7020, Note_on_c, 0, 43, 45
2, 7074, Note_on_c, 0, 55, 0
2, 7079, Note_on_c, 0, 53, 20
2, 7134, Note_on_c, 0, 53, 0
2, 7140, Note_on_c, 0, 59, 29
2, 7183, Note_on_c, 0, 43, 0
2, 7183, Note_on_c, 0, 31, 0
2, 7194, Note_on_c, 0, 59, 0
2, 7200, Note_on_c, 0, 56, 46
2, 7200, Control_c, 0, 64, 127
2, 7200, Note_on_c, 0, 29, 47
2, 7200, Note_on_c, 0, 41, 47
2, 7254, Note_on_c, 0, 56, 0
2, 7259, Note_on_c, 0, 48, 40
2, 7314, Note_on_c, 0, 48, 0
2, 7320, Note_on_c, 0, 60, 57
2, 7363, Note_on_c, 0, 41, 0
2, 7363, Note_on_c, 0, 29, 0
2, 7374, Note_on_c, 0, 60, 0
2, 7380, Note_on_c, 0, 61, 53
2, 7380, Note_on_c, 0, 36, 63
2, 7380, Note_on_c, 0, 48, 62
2, 7434, Note_on_c, 0, 61, 0
2, 7439, Note_on_c, 0, 56, 42
2, 7494, Note_on_c, 0, 56, 0
2, 7500, Note_on_c, 0, 68, 60
2, 7554, Note_on_c, 0, 68, 0
2, 7560, Note_on_c, 0, 62, 46
2, 7614, Note_on_c, 0, 62, 0
2, 7619, Note_on_c, 0, 60, 44
2, 7674, Note_on_c, 0, 60, 0
2, 7680, Note_on_c, 0, 72, 60
2, 7734, Note_on_c, 0, 72, 0
2, 7740, Note_on_c, 0, 48, 0
2, 7740, Note_on_c, 0, 36, 0
2, 7740, Note_on_c, 0, 68, 46
2, 7740, Control_c, 0, 64, 0
2, 7740, Note_on_c, 0, 48, 69
2, 7740, Note_on_c, 0, 60, 68
2, 7794, Note_on_c, 0, 68, 0
2, 7799, Note_on_c, 0, 63, 40
2, 7854, Note_on_c, 0, 63, 0
2, 7860, Note_on_c, 0, 75, 58
2, 7914, Note_on_c, 0, 75, 0
2, 7920, Note_on_c, 0, 60, 0
2, 7920, Note_on_c, 0, 48, 0
2, 7920, Note_on_c, 0, 62, 42
2, 7920, Note_on_c, 0, 42, 69
2, 7920, Note_on_c, 0, 54, 68
2, 7974, Note_on_c, 0, 62, 0
2, 7979, Note_on_c, 0, 60, 44
2, 8034, Note_on_c, 0, 60, 0
2, 8040, Note_on_c, 0, 72, 60
2, 8083, Note_on_c, 0, 54, 0
2, 8083, Note_on_c, 0, 42, 0
2, 8094, Note_on_c, 0, 72, 0
2, 8100, Note_on_c, 0, 63, 40
2, 8100, Note_on_c, 0, 35, 39
2, 8100, Note_on_c, 0, 47, 40
2, 8154, Note_on_c, 0, 63, 0
2, 8159, Note_on_c, 0, 56, 36
2, 8189, Note_on_c, 0, 47, 0
2, 8189, Note_on_c, 0, 35, 0
2, 8214, Note_on_c, 0, 56, 0
2, 8220, Note_on_c, 0, 68, 59
2, 8274, Note_on_c, 0, 68, 0
2, 8280, Note_on_c, 0, 59, 41
2, 8280, Note_on_c, 0, 30, 40
2, 8280, Note_on_c, 0, 42, 41
2, 8334, Note_on_c, 0, 59, 0
2, 8339, Note_on_c, 0, 56, 40
2, 8369, Note_on_c, 0, 42, 0
2, 8369, Note_on_c, 0, 30, 0
2, 8394, Note_on_c, 0, 56, 0
2, 8400, Note_on_c, 0, 62, 53
2, 8454, Note_on_c, 0, 62, 0
2, 8460, Note_on_c, 0, 60, 46
2, 8460, Note_on_c, 0, 24, 37
2, 8460, Note_on_c, 0, 36, 37
2, 8514, Note_on_c, 0, 60, 0
2, 8519, Note_on_c, 0, 55, 40
2, 8549, Note_on_c, 0, 36, 0
2, 8549, Note_on_c, 0, 24, 0
2, 8574, Note_on_c, 0, 55, 0
2, 8580, Note_on_c, 0, 63, 56
2, 8634, Note_on_c, 0, 63, 0
2, 8640, Note_on_c, 0, 56, 43
2, 8640, Control_c, 0, 64, 127
2, 8640, Note_on_c, 0, 29, 53
2, 8640, Note_on_c, 0, 41, 57
2, 8694, Note_on_c, 0, 56, 0
2, 8699, Note_on_c, 0, 48, 39
2, 8754, Note_on_c, 0, 48, 0
2, 8760, Note_on_c, 0, 60, 60
2, 8803, Note_on_c, 0, 41, 0
2, 8803, Note_on_c, 0, 29, 0
2, 8814, Note_on_c, 0, 60, 0
2, 8820, Note_on_c, 0, 61, 50
2, 8820, Note_on_c, 0, 36, 66
2, 8820, Note_on_c, 0, 48, 64
2, 8874, Note_on_c, 0, 61, 0
2, 8879, Note_on_c, 0, 56, 41
2, 8934, Note_on_c, 0, 56, 0
2, 8940, Note_on_c, 0, 68, 58
2, 8994, Note_on_c, 0, 68, 0
2, 9000, Note_on_c, 0, 62, 46
2, 9054, Note_on_c, 0, 62, 0
2, 9059, Note_on_c, 0, 60, 45
2, 9114, Note_on_c, 0, 60, 0
2, 9120, Note_on_c, 0, 72, 60
2, 9174, Note_on_c, 0, 72, 0
2, 9180, Note_on_c, 0, 48, 0
2, 9180, Note_on_c, 0, 36, 0
2, 9180, Note_on_c, 0, 68, 46
2, 9180, Control_c, 0, 64, 0
2, 9180, Note_on_c, 0, 48, 63
2, 9180, Note_on_c, 0, 60, 62
2, 9234, Note_on_c, 0, 68, 0
2, 9239, Note_on_c, 0, 63, 41
2, 9294, Note_on_c, 0, 63, 0
2, 9300, Note_on_c, 0, 75, 59
2, 9343, Note_on_c, 0, 60, 0
2, 9343, Note_on_c, 0, 48, 0
2, 9354, Note_on_c, 0, 75, 0
2, 9360, Note_on_c, 0, 62, 40
2, 9360, Note_on_c, 0, 42, 69
2, 9360, Note_on_c, 0, 54, 69
2, 9414, Note_on_c, 0, 62, 0
2, 9419, Note_on_c, 0, 60, 42
2, 9474, Note_on_c, 0, 60, 0
2, 9480, Note_on_c, 0, 72, 59
2, 9523, Note_on_c, 0, 54, 0
2, 9523, Note_on_c, 0, 42, 0
2, 9534, Note_on_c, 0, 72, 0
2, 9540, Note_on_c, 0, 63, 41
2, 9540, Note_on_c, 0, 35, 38
2, 9540, Note_on_c, 0, 47, 39
2, 9594, Note_on_c, 0, 63, 0
2, 9599, Note_on_c, 0, 56, 39
2, 9629, Note_on_c, 0, 47, 0
2, 9629, Note_on_c, 0, 35, 0
2, 9654, Note_on_c, 0, 56, 0
2, 9660, Note_on_c, 0, 68, 57
2, 9714, Note_on_c, 0, 68, 0
2, 9720, Note_on_c, 0, 59, 43
2, 9720, Note_on_c, 0, 30, 39
2, 9720, Note_on_c, 0, 42, 40
2, 9774, Note_on_c, 0, 59, 0
2, 9779, Note_on_c, 0, 56, 41
2, 9809, Note_on_c, 0, 42, 0
2, 9809, Note_on_c, 0, 30, 0
2, 9834, Note_on_c, 0, 56, 0
2, 9840, Note_on_c, 0, 62, 54
2, 9894, Note_on_c, 0, 62, 0
2, 9900, Note_on_c, 0, 60, 44
2, 9900, Note_on_c, 0, 24, 39
2, 9900, Note_on_c, 0, 36, 41
2, 9954, Note_on_c, 0, 60, 0
2, 9959, Note_on_c, 0, 55, 41
2, 9989, Note_on_c, 0, 36, 0
2, 9989, Note_on_c, 0, 24, 0
2, 10014, Note_on_c, 0, 55, 0
2, 10020, Note_on_c, 0, 63, 57
2, 10074, Note_on_c, 0, 63, 0
2, 10080, Note_on_c, 0, 56, 44
2, 10080, Control_c, 0, 64, 127
2, 10080, Note_on_c, 0, 29, 55
2, 10080, Note_on_c, 0, 41, 56
2, 10134, Note_on_c, 0, 56, 0
2, 10139, Note_on_c, 0, 48, 37
2, 10194, Note_on_c, 0, 48, 0
2, 10200, Note_on_c, 0, 60, 58
2, 10243, Note_on_c, 0, 41, 0
2, 10243, Note_on_c, 0, 29, 0
2, 10254, Note_on_c, 0, 60, 0
2, 10260, Note_on_c, 0, 61, 50
2, 10260, Note_on_c, 0, 36, 63
2, 10260, Note_on_c, 0, 48, 65
2, 10314, Note_on_c, 0, 61, 0
2, 10319, Note_on_c, 0, 56, 40
2, 10374, Note_on_c, 0, 56, 0
2, 10380, Note_on_c, 0, 68, 62
2, 10434, Note_on_c, 0, 68, 0
2, 10440, Note_on_c, 0, 62, 45
2, 10494, Note_on_c, 0, 62, 0
2, 10499, Note_on_c, 0, 60, 45
2, 10554, Note_on_c, 0, 60, 0
2, 10560, Note_on_c, 0, 72, 61
2, 10614, Note_on_c, 0, 72, 0
2, 10620, Note_on_c, 0, 48, 0
2, 10620, Note_on_c, 0, 36, 0
2, 10620, Note_on_c, 0, 68, 44
2, 10620, Control_c, 0, 64, 0
2, 10620, Note_on_c, 0, 48, 64
2, 10620, Note_on_c, 0, 60, 63
2, 10674, Note_on_c, 0, 68, 0
2, 10679, Note_on_c, 0, 63, 41
2, 10734, Note_on_c, 0, 63, 0
2, 10740, Note_on_c, 0, 75, 60
2, 10783, Note_on_c, 0, 60, 0
2, 10783, Note_on_c, 0, 48, 0
2, 10794, Note_on_c, 0, 75, 0
2, 10800, Note_on_c, 0, 32, 41
2, 10800, Note_on_c, 0, 44, 40
2, 10920, Note_on_c, 0, 60, 43
2, 10963, Note_on_c, 0, 44, 0
2, 10963, Note_on_c, 0, 32, 0
2, 10974, Note_on_c, 0, 60, 0
2, 10980, Note_on_c, 0, 65, 52
2, 10980, Note_on_c, 0, 39, 60
2, 10980, Note_on_c, 0, 51, 62
2, 11034, Note_on_c, 0, 65, 0
2, 11039, Note_on_c, 0, 60, 42
2, 11094, Note_on_c, 0, 60, 0
2, 11100, Note_on_c, 0, 72, 59
2, 11154, Note_on_c, 0, 72, 0
2, 11160, Note_on_c, 0, 66, 45
2, 11214, Note_on_c, 0, 66, 0
2, 11219, Note_on_c, 0, 62, 42
2, 11274, Note_on_c, 0, 62, 0
2, 11280, Note_on_c, 0, 74, 59
2, 11334, Note_on_c, 0, 74, 0
2, 11340, Note_on_c, 0, 51, 0
2, 11340, Note_on_c, 0, 39, 0
2, 11340, Note_on_c, 0, 72, 47
2, 11340, Note_on_c, 0, 51, 64
2, 11340, Note_on_c, 0, 63, 62
2, 11394, Note_on_c, 0, 72, 0
2, 11399, Note_on_c, 0, 67, 39
2, 11454, Note_on_c, 0, 67, 0
2, 11460, Note_on_c, 0, 79, 61
2, 11503, Note_on_c, 0, 63, 0
2, 11503, Note_on_c, 0, 51, 0
2, 11514, Note_on_c, 0, 79, 0
2, 11520, Note_on_c, 0, 36, 41
2, 11520, Note_on_c, 0, 48, 41
2, 11640, Note_on_c, 0, 63, 42
2, 11683, Note_on_c, 0, 48, 0
2, 11683, Note_on_c, 0, 36, 0
2, 11694, Note_on_c, 0, 63, 0
2, 11700, Note_on_c, 0, 68, 51
2, 11700, Note_on_c, 0, 43, 60
2, 11700, Note_on_c, 0, 55, 59
2, 11754, Note_on_c, 0, 68, 0
2, 11759, Note_on_c, 0, 63, 44
2, 11814, Note_on_c, 0, 63, 0
2, 11820, Note_on_c, 0, 75, 62
2, 11874, Note_on_c, 0, 75, 0
2, 11880, Note_on_c, 0, 69, 47
2, 11934, Note_on_c, 0, 69, 0
2, 11939, Note_on_c, 0, 65, 42
2, 11994, Note_on_c, 0, 65, 0
2, 12000, Note_on_c, 0, 77, 60
2, 12054, Note_on_c, 0, 77, 0
2, 12060, Note_on_c, 0, 55, 0
2, 12060, Note_on_c, 0, 43, 0
2, 12060, Note_on_c, 0, 75, 46
2, 12060, Note_on_c, 0, 55, 123
2, 12060, Note_on_c, 0, 67, 123
2, 12114, Note_on_c, 0, 75, 0
2, 12119, Note_on_c, 0, 70, 42
2, 12174, Note_on_c, 0, 70, 0
2, 12180, Note_on_c, 0, 82, 60
2, 12223, Note_on_c, 0, 67, 0
2, 12223, Note_on_c, 0, 55, 0
2, 12234, Note_on_c, 0, 82, 0
2, 12240, Note_on_c, 0, 82, 102
2, 12240, Note_on_c, 0, 62, 127
2, 12240, Note_on_c, 0, 67, 127
2, 12240, Note_on_c, 0, 74, 127
2, 12294, Note_on_c, 0, 82, 0
2, 12299, Note_on_c, 0, 94, 122
2, 12354, Note_on_c, 0, 94, 0
2, 12360, Note_on_c, 0, 87, 85
2, 12403, Note_on_c, 0, 74, 0
2, 12403, Note_on_c, 0, 62, 0
2, 12403, Note_on_c, 0, 67, 0
2, 12414, Note_on_c, 0, 87, 0
2, 12420, Note_on_c, 0, 91, 105
2, 12420, Note_on_c, 0, 63, 105
2, 12420, Note_on_c, 0, 75, 106
2, 12474, Note_on_c, 0, 91, 0
2, 12479, Note_on_c, 0, 84, 78
2, 12534, Note_on_c, 0, 84, 0
2, 12540, Note_on_c, 0, 79, 83
2, 12594, Note_on_c, 0, 79, 0
2, 12600, Note_on_c, 0, 86, 115
2, 12654, Note_on_c, 0, 86, 0
2, 12659, Note_on_c, 0, 78, 77
2, 12714, Note_on_c, 0, 78, 0
2, 12720, Note_on_c, 0, 74, 82
2, 12745, Note_on_c, 0, 75, 0
2, 12745, Note_on_c, 0, 63, 0
2, 12774, Note_on_c, 0, 74, 0
2, 12780, Note_on_c, 0, 79, 105
2, 12780, Note_on_c, 0, 51, 70
2, 12780, Note_on_c, 0, 63, 71
2, 12834, Note_on_c, 0, 79, 0
2, 12839, Note_on_c, 0, 84, 109
2, 12894, Note_on_c, 0, 84, 0
2, 12900, Note_on_c, 0, 72, 73
2, 12943, Note_on_c, 0, 63, 0
2, 12943, Note_on_c, 0, 51, 0
2, 12954, Note_on_c, 0, 72, 0
2, 12960, Note_on_c, 0, 81, 115
2, 12960, Note_on_c, 0, 60, 127
2, 12960, Note_on_c, 0, 67, 127
2, 12960, Note_on_c, 0, 72, 127
2, 13014, Note_on_c, 0, 81, 0
2, 13019, Note_on_c, 0, 75, 85
2, 13074, Note_on_c, 0, 75, 0
2, 13080, Note_on_c, 0, 69, 77
2, 13123, Note_on_c, 0, 72, 0
2, 13123, Note_on_c, 0, 60, 0
2, 13123, Note_on_c, 0, 67, 0
2, 13134, Note_on_c, 0, 69, 0
2, 13140, Note_on_c, 0, 75, 107
2, 13140, Note_on_c, 0, 61, 103
2, 13140, Note_on_c, 0, 73, 102
2, 13194, Note_on_c, 0, 75, 0
2, 13199, Note_on_c, 0, 82, 116
2, 13254, Note_on_c, 0, 82, 0
2, 13260, Note_on_c, 0, 70, 72
2, 13314, Note_on_c, 0, 70, 0
2, 13320, Note_on_c, 0, 78, 112
2, 13374, Note_on_c, 0, 78, 0
2, 13379, Note_on_c, 0, 73, 87
2, 13434, Note_on_c, 0, 73, 0
2, 13440, Note_on_c, 0, 66, 79
2, 13465, Note_on_c, 0, 73, 0
2, 13465, Note_on_c, 0, 61, 0
2, 13494, Note_on_c, 0, 66, 0
2, 13500, Note_on_c, 0, 67, 96
2, 13500, Note_on_c, 0, 45, 71
2, 13500, Note_on_c, 0, 57, 71
2, 13554, Note_on_c, 0, 67, 0
2, 13559, Note_on_c, 0, 73, 112
2, 13614, Note_on_c, 0, 73, 0
2, 13620, Note_on_c, 0, 61, 70
2, 13663, Note_on_c, 0, 57, 0
2, 13663, Note_on_c, 0, 45, 0
2, 13674, Note_on_c, 0, 61, 0
2, 13680, Control_c, 0, 64, 127
2, 13680, Note_on_c, 0, 38, 95
2, 13680, Note_on_c, 0, 50, 96
2, 13788, Note_on_c, 0, 50, 0
2, 13788, Note_on_c, 0, 38, 0
2, 13800, Note_on_c, 0, 75, 69
2, 13800, Note_on_c, 0, 79, 71
2, 13800, Note_on_c, 0, 82, 70
2, 13800, Note_on_c, 0, 58, 118
2, 13800, Note_on_c, 0, 63, 117
2, 13800, Note_on_c, 0, 67, 118
2, 13800, Note_on_c, 0, 70, 119
2, 13908, Note_on_c, 0, 70, 0
2, 13908, Note_on_c, 0, 63, 0
2, 13908, Note_on_c, 0, 79, 0
2, 13908, Note_on_c, 0, 82, 0
2, 13908, Note_on_c, 0, 75, 0
2, 13908, Note_on_c, 0, 67, 0
2, 13908, Note_on_c, 0, 58, 0
2, 13919, Note_on_c, 0, 75, 78
2, 13919, Note_on_c, 0, 79, 81
2, 13919, Note_on_c, 0, 82, 80
2, 13919, Note_on_c, 0, 58, 98
2, 13919, Note_on_c, 0, 63, 99
2, 13919, Note_on_c, 0, 67, 98
2, 13919, Note_on_c, 0, 70, 99
2, 14029, Note_on_c, 0, 70, 0
2, 14029, Note_on_c, 0, 63, 0
2, 14029, Note_on_c, 0, 79, 0
2, 14029, Note_on_c, 0, 82, 0
2, 14029, Note_on_c, 0, 75, 0
2, 14029, Note_on_c, 0, 67, 0
2, 14029, Note_on_c, 0, 58, 0
2, 14040, Note_on_c, 0, 75, 88
2, 14040, Note_on_c, 0, 79, 87
2, 14040, Note_on_c, 0, 82, 88
2, 14040, Note_on_c, 0, 58, 101
2, 14040, Note_on_c, 0, 63, 99
2, 14040, Note_on_c, 0, 67, 99
2, 14040, Note_on_c, 0, 70, 100
2, 14148, Note_on_c, 0, 70, 0
2, 14148, Note_on_c, 0, 63, 0
2, 14148, Note_on_c, 0, 79, 0
2, 14148, Note_on_c, 0, 82, 0
2, 14148, Note_on_c, 0, 75, 0
2, 14148, Note_on_c, 0, 67, 0
2, 14148, Note_on_c, 0, 58, 0
2, 14160, Note_on_c, 0, 74, 85
2, 14160, Note_on_c, 0, 79, 87
2, 14160, Note_on_c, 0, 82, 87
2, 14160, Note_on_c, 0, 58, 95
2, 14160, Note_on_c, 0, 62, 98
2, 14160, Note_on_c, 0, 67, 95
2, 14160, Note_on_c, 0, 70, 97
2, 14268, Note_on_c, 0, 70, 0
2, 14268, Note_on_c, 0, 62, 0
2, 14268, Note_on_c, 0, 79, 0
2, 14268, Note_on_c, 0, 82, 0
2, 14268, Note_on_c, 0, 74, 0
2, 14268, Note_on_c, 0, 67, 0
2, 14268, Note_on_c, 0, 58, 0
2, 14279, Note_on_c, 0, 74, 89
2, 14279, Note_on_c, 0, 79, 88
2, 14279, Note_on_c, 0, 82, 90
2, 14279, Note_on_c, 0, 58, 97
2, 14279, Note_on_c, 0, 62, 98
2, 14279, Note_on_c, 0, 67, 98
2, 14279, Note_on_c, 0, 70, 96
2, 14389, Note_on_c, 0, 70, 0
2, 14389, Note_on_c, 0, 62, 0
2, 14389, Note_on_c, 0, 79, 0
2, 14389, Note_on_c, 0, 82, 0
2, 14389, Note_on_c, 0, 74, 0
2, 14389, Note_on_c, 0, 67, 0
2, 14389, Note_on_c, 0, 58, 0
2, 14400, Note_on_c, 0, 74, 93
2, 14400, Note_on_c, 0, 79, 94
2, 14400, Note_on_c, 0, 82, 94
2, 14400, Note_on_c, 0, 58, 99
2, 14400, Note_on_c, 0, 62, 99
2, 14400, Note_on_c, 0, 67, 98
2, 14400, Note_on_c, 0, 70, 98
2, 14508, Note_on_c, 0, 70, 0
2, 14508, Note_on_c, 0, 62, 0
2, 14508, Note_on_c, 0, 79, 0
2, 14508, Note_on_c, 0, 82, 0
2, 14508, Note_on_c, 0, 74, 0
2, 14508, Note_on_c, 0, 67, 0
2, 14508, Note_on_c, 0, 58, 0
2, 14520, Note_on_c, 0, 73, 94
2, 14520, Note_on_c, 0, 78, 92
2, 14520, Note_on_c, 0, 82, 92
2, 14520, Note_on_c, 0, 58, 96
2, 14520, Note_on_c, 0, 61, 96
2, 14520, Note_on_c, 0, 66, 96
2, 14520, Note_on_c, 0, 70, 96
2, 14628, Note_on_c, 0, 70, 0
2, 14628, Note_on_c, 0, 61, 0
2, 14628, Note_on_c, 0, 78, 0
2, 14628, Note_on_c, 0, 82, 0
2, 14628, Note_on_c, 0, 73, 0
2, 14628, Note_on_c, 0, 66, 0
2, 14628, Note_on_c, 0, 58, 0
2, 14639, Note_on_c, 0, 73, 97
2, 14639, Note_on_c, 0, 78, 94
2, 14639, Note_on_c, 0, 82, 97
2, 14639, Note_on_c, 0, 58, 96
2, 14639, Note_on_c, 0, 61, 96
2, 14639, Note_on_c, 0, 66, 98
2, 14639, Note_on_c, 0, 70, 95
2, 14749, Note_on_c, 0, 70, 0
2, 14749, Note_on_c, 0, 61, 0
2, 14749, Note_on_c, 0, 78, 0
2, 14749, Note_on_c, 0, 82, 0
2, 14749, Note_on_c, 0, 73, 0
2, 14749, Note_on_c, 0, 66, 0
2, 14749, Note_on_c, 0, 58, 0
2, 14760, Note_on_c, 0, 73, 100
2, 14760, Note_on_c, 0, 78, 102
2, 14760, Note_on_c, 0, 82, 101
2, 14760, Note_on_c, 0, 58, 100
2, 14760, Note_on_c, 0, 61, 100
2, 14760, Note_on_c, 0, 66, 98
2, 14760, Note_on_c, 0, 70, 101
2, 14842, Note_on_c, 0, 70, 0
2, 14842, Note_on_c, 0, 61, 0
2, 14842, Note_on_c, 0, 78, 0
2, 14842, Note_on_c, 0, 82, 0
2, 14842, Note_on_c, 0, 73, 0
2, 14842, Note_on_c, 0, 66, 0
2, 14842, Note_on_c, 0, 58, 0
2, 14850, Note_on_c, 0, 73, 95
2, 14850, Note_on_c, 0, 77, 92
2, 14850, Note_on_c, 0, 81, 94
2, 14850, Note_on_c, 0, 58, 89
2, 14850, Note_on_c, 0, 61, 92
2, 14850, Note_on_c, 0, 65, 90
2, 14850, Note_on_c, 0, 69, 89
2, 14932, Note_on_c, 0, 69, 0
2, 14932, Note_on_c, 0, 61, 0
2, 14932, Note_on_c, 0, 77, 0
2, 14932, Note_on_c, 0, 81, 0
2, 14932, Note_on_c, 0, 73, 0
2, 14932, Note_on_c, 0, 65, 0
2, 14932, Note_on_c, 0, 58, 0
2, 14940, Note_on_c, 0, 73, 100
2, 14940, Note_on_c, 0, 77, 98
2, 14940, Note_on_c, 0, 81, 98
2, 14940, Note_on_c, 0, 58, 96
2, 14940, Note_on_c, 0, 61, 97
2, 14940, Note_on_c, 0, 65, 93
2, 14940, Note_on_c, 0, 69, 96
2, 15022, Note_on_c, 0, 69, 0
2, 15022, Note_on_c, 0, 61, 0
2, 15022, Note_on_c, 0, 77, 0
2, 15022, Note_on_c, 0, 81, 0
2, 15022, Note_on_c, 0, 73, 0
2, 15022, Note_on_c, 0, 65, 0
2, 15022, Note_on_c, 0, 58, 0
2, 15030, Note_on_c, 0, 73, 101
2, 15030, Note_on_c, 0, 77, 100
2, 15030, Note_on_c, 0, 81, 99
2, 15030, Control_c, 0, 64, 0
2, 15030, Note_on_c, 0, 58, 95
2, 15030, Note_on_c, 0, 61, 95
2, 15030, Note_on_c, 0, 65, 97
2, 15030, Note_on_c, 0, 69, 97
2, 15112, Note_on_c, 0, 69, 0
2, 15112, Note_on_c, 0, 61, 0
2, 15112, Note_on_c, 0, 77, 0
2, 15112, Note_on_c, 0, 81, 0
2, 15112, Note_on_c, 0, 73, 0
2, 15112, Note_on_c, 0, 65, 0
2, 15112, Note_on_c, 0, 58, 0
2, 15120, Note_on_c, 0, 69, 115
2, 15120, Note_on_c, 0, 73, 114
2, 15120, Note_on_c, 0, 77, 113
2, 15120, Note_on_c, 0, 81, 113
2, 15120, Note_on_c, 0, 31, 91
2, 15120, Note_on_c, 0, 43, 88
2, 15283, Note_on_c, 0, 43, 0
2, 15283, Note_on_c, 0, 73, 0
2, 15283, Note_on_c, 0, 77, 0
2, 15283, Note_on_c, 0, 69, 0
2, 15283, Note_on_c, 0, 31, 0
2, 15283, Note_on_c, 0, 81, 0
2, 15300, Note_on_c, 0, 89, 127
2, 15300, Note_on_c, 0, 93, 127
2, 15300, Note_on_c, 0, 50, 117
2, 15300, Note_on_c, 0, 58, 116
2, 15300, Note_on_c, 0, 61, 117
2, 15354, Note_on_c, 0, 93, 0
2, 15354, Note_on_c, 0, 89, 0
2, 15359, Note_on_c, 0, 81, 94
2, 15359, Note_on_c, 0, 85, 95
2, 15414, Note_on_c, 0, 85, 0
2, 15414, Note_on_c, 0, 81, 0
2, 15420, Note_on_c, 0, 89, 127
2, 15420, Note_on_c, 0, 93, 127
2, 15463, Note_on_c, 0, 61, 0
2, 15463, Note_on_c, 0, 58, 0
2, 15463, Note_on_c, 0, 50, 0
2, 15474, Note_on_c, 0, 89, 0
2, 15474, Note_on_c, 0, 93, 0
2, 15480, Note_on_c, 0, 81, 95
2, 15480, Note_on_c, 0, 85, 96
2, 15480, Note_on_c, 0, 65, 127
2, 15480, Note_on_c, 0, 69, 127
2, 15480, Note_on_c, 0, 58, 42
2, 15480, Note_on_c, 0, 61, 41
2, 15534, Note_on_c, 0, 85, 0
2, 15534, Note_on_c, 0, 81, 0
2, 15539, Note_on_c, 0, 89, 127
2, 15539, Note_on_c, 0, 93, 126
2, 15594, Note_on_c, 0, 93, 0
2, 15594, Note_on_c, 0, 89, 0
2, 15600, Note_on_c, 0, 81, 92
2, 15600, Note_on_c, 0, 85, 93
2, 15643, Note_on_c, 0, 69, 0
2, 15643, Note_on_c, 0, 65, 0
2, 15654, Note_on_c, 0, 81, 0
2, 15654, Note_on_c, 0, 85, 0
2, 15660, Note_on_c, 0, 87, 124
2, 15660, Note_on_c, 0, 91, 125
2, 15660, Note_on_c, 0, 63, 102
2, 15660, Note_on_c, 0, 67, 103
2, 15660, Note_on_c, 0, 70, 105
2, 15714, Note_on_c, 0, 91, 0
2, 15714, Note_on_c, 0, 87, 0
2, 15719, Note_on_c, 0, 79, 88
2, 15719, Note_on_c, 0, 82, 89
2, 15774, Note_on_c, 0, 82, 0
2, 15774, Note_on_c, 0, 79, 0
2, 15780, Note_on_c, 0, 87, 127
2, 15780, Note_on_c, 0, 91, 127
2, 15805, Note_on_c, 0, 61, 0
2, 15805, Note_on_c, 0, 58, 0
2, 15823, Note_on_c, 0, 67, 0
2, 15823, Note_on_c, 0, 63, 0
2, 15823, Note_on_c, 0, 70, 0
2, 15834, Note_on_c, 0, 91, 0
2, 15834, Note_on_c, 0, 87, 0
2, 15840, Note_on_c, 0, 31, 91
2, 15840, Note_on_c, 0, 43, 94
2, 16003, Note_on_c, 0, 43, 0
2, 16003, Note_on_c, 0, 31, 0
2, 16020, Note_on_c, 0, 89, 114
2, 16020, Note_on_c, 0, 93, 114
2, 16020, Note_on_c, 0, 50, 116
2, 16020, Note_on_c, 0, 58, 117
2, 16020, Note_on_c, 0, 61, 116
2, 16074, Note_on_c, 0, 93, 0
2, 16074, Note_on_c, 0, 89, 0
2, 16079, Note_on_c, 0, 81, 86
2, 16079, Note_on_c, 0, 85, 87
2, 16134, Note_on_c, 0, 85, 0
2, 16134, Note_on_c, 0, 81, 0
2, 16140, Note_on_c, 0, 89, 127
2, 16140, Note_on_c, 0, 93, 127
2, 16183, Note_on_c, 0, 61, 0
2, 16183, Note_on_c, 0, 58, 0
2, 16183, Note_on_c, 0, 50, 0
2, 16194, Note_on_c, 0, 89, 0
2, 16194, Note_on_c, 0, 93, 0
2, 16200, Note_on_c, 0, 81, 93
2, 16200, Note_on_c, 0, 85, 94
2, 16200, Note_on_c, 0, 65, 127
2, 16200, Note_on_c, 0, 69, 127
2, 16200, Note_on_c, 0, 58, 46
2, 16200, Note_on_c, 0, 61, 49
2, 16254, Note_on_c, 0, 85, 0
2, 16254, Note_on_c, 0, 81, 0
2, 16259, Note_on_c, 0, 89, 127
2, 16259, Note_on_c, 0, 93, 125
2, 16314, Note_on_c, 0, 93, 0
2, 16314, Note_on_c, 0, 89, 0
2, 16320, Note_on_c, 0, 81, 93
2, 16320, Note_on_c, 0, 85, 91
2, 16363, Note_on_c, 0, 69, 0
2, 16363, Note_on_c, 0, 65, 0
2, 16374, Note_on_c, 0, 81, 0
2, 16374, Note_on_c, 0, 85, 0
2, 16380, Note_on_c, 0, 87, 123
2, 16380, Note_on_c, 0, 91, 126
2, 16380, Note_on_c, 0, 63, 105
2, 16380, Note_on_c, 0, 67, 103
2, 16380, Note_on_c, 0, 70, 106
2, 16434, Note_on_c, 0, 91, 0
2, 16434, Note_on_c, 0, 87, 0
2, 16439, Note_on_c, 0, 79, 90
2, 16439, Note_on_c, 0, 82, 89
2, 16494, Note_on_c, 0, 82, 0
2, 16494, Note_on_c, 0, 79, 0
2, 16500, Note_on_c, 0, 87, 126
2, 16500, Note_on_c, 0, 91, 127
2, 16525, Note_on_c, 0, 61, 0
2, 16525, Note_on_c, 0, 58, 0
2, 16543, Note_on_c, 0, 67, 0
2, 16543, Note_on_c, 0, 63, 0
2, 16543, Note_on_c, 0, 70, 0
2, 16554, Note_on_c, 0, 91, 0
2, 16554, Note_on_c, 0, 87, 0
2, 16560, Note_on_c, 0, 31, 75
2, 16560, Note_on_c, 0, 43, 75
2, 16723, Note_on_c, 0, 43, 0
2, 16723, Note_on_c, 0, 31, 0
2, 16740, Note_on_c, 0, 86, 114
2, 16740, Note_on_c, 0, 89, 114
2, 16740, Note_on_c, 0, 50, 116
2, 16740, Note_on_c, 0, 55, 118
2, 16740, Note_on_c, 0, 58, 117
2, 16794, Note_on_c, 0, 89, 0
2, 16794, Note_on_c, 0, 86, 0
2, 16799, Note_on_c, 0, 77, 90
2, 16799, Note_on_c, 0, 82, 90
2, 16854, Note_on_c, 0, 82, 0
2, 16854, Note_on_c, 0, 77, 0
2, 16860, Note_on_c, 0, 86, 127
2, 16860, Note_on_c, 0, 89, 127
2, 16903, Note_on_c, 0, 58, 0
2, 16903, Note_on_c, 0, 55, 0
2, 16903, Note_on_c, 0, 50, 0
2, 16914, Note_on_c, 0, 86, 0
2, 16914, Note_on_c, 0, 89, 0
2, 16920, Note_on_c, 0, 77, 97
2, 16920, Note_on_c, 0, 82, 95
2, 16920, Note_on_c, 0, 62, 127
2, 16920, Note_on_c, 0, 65, 127
2, 16920, Note_on_c, 0, 58, 41
2, 16974, Note_on_c, 0, 82, 0
2, 16974, Note_on_c, 0, 77, 0
2, 16979, Note_on_c, 0, 86, 125
2, 16979, Note_on_c, 0, 89, 126
2, 17034, Note_on_c, 0, 89, 0
2, 17034, Note_on_c, 0, 86, 0
2, 17040, Note_on_c, 0, 77, 93
2, 17040, Note_on_c, 0, 82, 91
2, 17083, Note_on_c, 0, 65, 0
2, 17083, Note_on_c, 0, 62, 0
2, 17094, Note_on_c, 0, 82, 0
2, 17094, Note_on_c, 0, 77, 0
2, 17100, Note_on_c, 0, 82, 123
2, 17100, Note_on_c, 0, 87, 123
2, 17100, Note_on_c, 0, 63, 105
2, 17100, Note_on_c, 0, 67, 104
2, 17154, Note_on_c, 0, 87, 0
2, 17154, Note_on_c, 0, 82, 0
2, 17159, Note_on_c, 0, 75, 93
2, 17159, Note_on_c, 0, 79, 92
2, 17214, Note_on_c, 0, 79, 0
2, 17214, Note_on_c, 0, 75, 0
2, 17220, Note_on_c, 0, 82, 126
2, 17220, Note_on_c, 0, 87, 127
2, 17245, Note_on_c, 0, 58, 0
2, 17263, Note_on_c, 0, 63, 0
2, 17263, Note_on_c, 0, 67, 0
2, 17274, Note_on_c, 0, 82, 0
2, 17274, Note_on_c, 0, 87, 0
2, 17280, Note_on_c, 0, 31, 75
2, 17280, Note_on_c, 0, 43, 76
2, 17443, Note_on_c, 0, 43, 0
2, 17443, Note_on_c, 0, 31, 0
2, 17460, Note_on_c, 0, 82, 114
2, 17460, Note_on_c, 0, 86, 113
2, 17460, Note_on_c, 0, 51, 118
2, 17460, Note_on_c, 0, 54, 119
2, 17460, Note_on_c, 0, 58, 115
2, 17514, Note_on_c, 0, 86, 0
2, 17514, Note_on_c, 0, 82, 0
2, 17519, Note_on_c, 0, 74, 88
2, 17519, Note_on_c, 0, 78, 88
2, 17574, Note_on_c, 0, 78, 0
2, 17574, Note_on_c, 0, 74, 0
2, 17580, Note_on_c, 0, 82, 126
2, 17580, Note_on_c, 0, 86, 126
2, 17623, Note_on_c, 0, 58, 0
2, 17623, Note_on_c, 0, 54, 0
2, 17623, Note_on_c, 0, 51, 0
2, 17634, Note_on_c, 0, 82, 0
2, 17634, Note_on_c, 0, 86, 0
2, 17640, Note_on_c, 0, 74, 92
2, 17640, Note_on_c, 0, 78, 94
2, 17640, Note_on_c, 0, 58, 127
2, 17640, Note_on_c, 0, 62, 127
2, 17640, Note_on_c, 0, 54, 42
2, 17694, Note_on_c, 0, 78, 0
2, 17694, Note_on_c, 0, 74, 0
2, 17699, Note_on_c, 0, 82, 125
2, 17699, Note_on_c, 0, 86, 127
2, 17754, Note_on_c, 0, 86, 0
2, 17754, Note_on_c, 0, 82, 0
2, 17760, Note_on_c, 0, 74, 90
2, 17760, Note_on_c, 0, 78, 91
2, 17803, Note_on_c, 0, 62, 0
2, 17803, Note_on_c, 0, 58, 0
2, 17814, Note_on_c, 0, 78, 0
2, 17814, Note_on_c, 0, 74, 0
2, 17820, Note_on_c, 0, 81, 127
2, 17820, Note_on_c, 0, 85, 125
2, 17820, Note_on_c, 0, 57, 101
2, 17820, Note_on_c, 0, 63, 101
2, 17874, Note_on_c, 0, 85, 0
2, 17874, Note_on_c, 0, 81, 0
2, 17879, Note_on_c, 0, 73, 93
2, 17879, Note_on_c, 0, 78, 94
2, 17934, Note_on_c, 0, 78, 0
2, 17934, Note_on_c, 0, 73, 0
2, 17940, Note_on_c, 0, 81, 125
2, 17940, Note_on_c, 0, 85, 127
2, 17965, Note_on_c, 0, 54, 0
2, 17983, Note_on_c, 0, 57, 0
2, 17983, Note_on_c, 0, 63, 0
2, 17994, Note_on_c, 0, 81, 0
2, 17994, Note_on_c, 0, 85, 0
2, 18000, Note_on_c, 0, 70, 100
2, 18000, Note_on_c, 0, 79, 102
2, 18000, Note_on_c, 0, 82, 100
2, 18000, Note_on_c, 0, 43, 72
2, 18054, Note_on_c, 0, 43, 0
2, 18059, Note_on_c, 0, 50, 108
2, 18114, Note_on_c, 0, 50, 0
2, 18120, Note_on_c, 0, 55, 111
2, 18163, Note_on_c, 0, 82, 0
2, 18163, Note_on_c, 0, 70, 0
2, 18163, Note_on_c, 0, 79, 0
2, 18174, Note_on_c, 0, 55, 0
2, 18180, Note_on_c, 0, 77, 81
2, 18180, Note_on_c, 0, 81, 81
2, 18180, Note_on_c, 0, 58, 107
2, 18221, Note_on_c, 0, 58, 0
2, 18225, Note_on_c, 0, 81, 0
2, 18225, Note_on_c, 0, 77, 0
2, 18225, Note_on_c, 0, 69, 62
2, 18225, Note_on_c, 0, 73, 61
2, 18225, Note_on_c, 0, 61, 103
2, 18266, Note_on_c, 0, 61, 0
2, 18266, Note_on_c, 0, 73, 0
2, 18266, Note_on_c, 0, 69, 0
2, 18270, Note_on_c, 0, 77, 94
2, 18270, Note_on_c, 0, 81, 91
2, 18270, Note_on_c, 0, 65, 108
2, 18311, Note_on_c, 0, 65, 0
2, 18311, Note_on_c, 0, 81, 0
2, 18311, Note_on_c, 0, 77, 0
2, 18315, Note_on_c, 0, 69, 68
2, 18315, Note_on_c, 0, 73, 68
2, 18315, Note_on_c, 0, 67, 104
2, 18356, Note_on_c, 0, 67, 0
2, 18356, Note_on_c, 0, 73, 0
2, 18356, Note_on_c, 0, 69, 0
2, 18360, Note_on_c, 0, 77, 95
2, 18360, Note_on_c, 0, 81, 96
2, 18360, Note_on_c, 0, 69, 106
2, 18401, Note_on_c, 0, 69, 0
2, 18401, Note_on_c, 0, 81, 0
2, 18401, Note_on_c, 0, 77, 0
2, 18405, Note_on_c, 0, 69, 67
2, 18405, Note_on_c, 0, 73, 66
2, 18405, Note_on_c, 0, 67, 88
2, 18446, Note_on_c, 0, 67, 0
2, 18446, Note_on_c, 0, 73, 0
2, 18446, Note_on_c, 0, 69, 0
2, 18450, Note_on_c, 0, 77, 94
2, 18450, Note_on_c, 0, 81, 94
2, 18450, Note_on_c, 0, 65, 91
2, 18491, Note_on_c, 0, 65, 0
2, 18491, Note_on_c, 0, 81, 0
2, 18491, Note_on_c, 0, 77, 0
2, 18495, Note_on_c, 0, 69, 64
2, 18495, Note_on_c, 0, 73, 64
2, 18495, Note_on_c, 0, 61, 85
2, 18536, Note_on_c, 0, 61, 0
2, 18536, Note_on_c, 0, 73, 0
2, 18536, Note_on_c, 0, 69, 0
2, 18540, Note_on_c, 0, 75, 90
2, 18540, Note_on_c, 0, 79, 92
2, 18540, Note_on_c, 0, 58, 86
2, 18594, Note_on_c, 0, 58, 0
2, 18594, Note_on_c, 0, 79, 0
2, 18594, Note_on_c, 0, 75, 0
2, 18599, Note_on_c, 0, 67, 63
2, 18599, Note_on_c, 0, 70, 64
2, 18599, Note_on_c, 0, 55, 86
2, 18654, Note_on_c, 0, 55, 0
2, 18654, Note_on_c, 0, 70, 0
2, 18654, Note_on_c, 0, 67, 0
2, 18660, Note_on_c, 0, 75, 93
2, 18660, Note_on_c, 0, 79, 96
2, 18660, Note_on_c, 0, 50, 82
2, 18714, Note_on_c, 0, 50, 0
2, 18714, Note_on_c, 0, 79, 0
2, 18714, Note_on_c, 0, 75, 0
2, 18720, Note_on_c, 0, 43, 78
2, 18774, Note_on_c, 0, 43, 0
2, 18779, Note_on_c, 0, 50, 110
2, 18834, Note_on_c, 0, 50, 0
2, 18840, Note_on_c, 0, 55, 112
2, 18894, Note_on_c, 0, 55, 0
2, 18900, Note_on_c, 0, 77, 79
2, 18900, Note_on_c, 0, 81, 81
2, 18900, Note_on_c, 0, 58, 107
2, 18941, Note_on_c, 0, 58, 0
2, 18945, Note_on_c, 0, 81, 0
2, 18945, Note_on_c, 0, 77, 0
2, 18945, Note_on_c, 0, 69, 62
2, 18945, Note_on_c, 0, 73, 65
2, 18945, Note_on_c, 0, 61, 106
2, 18986, Note_on_c, 0, 61, 0
2, 18986, Note_on_c, 0, 73, 0
2, 18986, Note_on_c, 0, 69, 0
2, 18990, Note_on_c, 0, 77, 92
2, 18990, Note_on_c, 0, 81, 93
2, 18990, Note_on_c, 0, 65, 109
2, 19031, Note_on_c, 0, 65, 0
2, 19031, Note_on_c, 0, 81, 0
2, 19031, Note_on_c, 0, 77, 0
2, 19035, Note_on_c, 0, 69, 66
2, 19035, Note_on_c, 0, 73, 65
2, 19035, Note_on_c, 0, 67, 106
2, 19076, Note_on_c, 0, 67, 0
2, 19076, Note_on_c, 0, 73, 0
2, 19076, Note_on_c, 0, 69, 0
2, 19080, Note_on_c, 0, 77, 94
2, 19080, Note_on_c, 0, 81, 97
2, 19080, Note_on_c, 0, 69, 107
2, 19121, Note_on_c, 0, 69, 0
2, 19121, Note_on_c, 0, 81, 0
2, 19121, Note_on_c, 0, 77, 0
2, 19125, Note_on_c, 0, 69, 65
2, 19125, Note_on_c, 0, 73, 65
2, 19125, Note_on_c, 0, 67, 89
2, 19166, Note_on_c, 0, 67, 0
2, 19166, Note_on_c, 0, 73, 0
2, 19166, Note_on_c, 0, 69, 0
2, 19170, Note_on_c, 0, 77, 94
2, 19170, Note_on_c, 0, 81, 92
2, 19170, Note_on_c, 0, 65, 87
2, 19211, Note_on_c, 0, 65, 0
2, 19211, Note_on_c, 0, 81, 0
2, 19211, Note_on_c, 0, 77, 0
2, 19215, Note_on_c, 0, 69, 67
2, 19215, Note_on_c, 0, 73, 66
2, 19215, Note_on_c, 0, 61, 86
2, 19256, Note_on_c, 0, 61, 0
2, 19256, Note_on_c, 0, 73, 0
2, 19256, Note_on_c, 0, 69, 0
2, 19260, Note_on_c, 0, 75, 91
2, 19260, Note_on_c, 0, 79, 90
2, 19260, Note_on_c, 0, 58, 87
2, 19314, Note_on_c, 0, 58, 0
2, 19314, Note_on_c, 0, 79, 0
2, 19314, Note_on_c, 0, 75, 0
2, 19319, Note_on_c, 0, 67, 62
2, 19319, Note_on_c, 0, 70, 64
2, 19319, Note_on_c, 0, 55, 88
2, 19374, Note_on_c, 0, 55, 0
2, 19374, Note_on_c, 0, 70, 0
2, 19374, Note_on_c, 0, 67, 0
2, 19380, Note_on_c, 0, 75, 93
2, 19380, Note_on_c, 0, 79, 95
2, 19380, Note_on_c, 0, 50, 82
2, 19434, Note_on_c, 0, 50, 0
2, 19434, Note_on_c, 0, 79, 0
2, 19434, Note_on_c, 0, 75, 0
2, 19440, Note_on_c, 0, 43, 80
2, 19494, Note_on_c, 0, 43, 0
2, 19499, Note_on_c, 0, 50, 109
2, 19554, Note_on_c, 0, 50, 0
2, 19560, Note_on_c, 0, 55, 112
2, 19614, Note_on_c, 0, 55, 0
2, 19620, Note_on_c, 0, 74, 78
2, 19620, Note_on_c, 0, 77, 77
2, 19620, Note_on_c, 0, 57, 105
2, 19674, Note_on_c, 0, 57, 0
2, 19679, Note_on_c, 0, 77, 0
2, 19679, Note_on_c, 0, 74, 0
2, 19679, Note_on_c, 0, 65, 64
2, 19679, Note_on_c, 0, 70, 63
2, 19679, Note_on_c, 0, 58, 101
2, 19734, Note_on_c, 0, 58, 0
2, 19734, Note_on_c, 0, 70, 0
2, 19734, Note_on_c, 0, 65, 0
2, 19740, Note_on_c, 0, 74, 91
2, 19740, Note_on_c, 0, 77, 89
2, 19740, Note_on_c, 0, 62, 108
2, 19794, Note_on_c, 0, 62, 0
2, 19794, Note_on_c, 0, 77, 0
2, 19794, Note_on_c, 0, 74, 0
2, 19800, Note_on_c, 0, 65, 70
2, 19800, Note_on_c, 0, 70, 69
2, 19800, Note_on_c, 0, 65, 107
2, 19854, Note_on_c, 0, 65, 0
2, 19854, Note_on_c, 0, 70, 0
2, 19854, Note_on_c, 0, 65, 0
2, 19859, Note_on_c, 0, 74, 93
2, 19859, Note_on_c, 0, 77, 91
2, 19859, Note_on_c, 0, 62, 90
2, 19914, Note_on_c, 0, 62, 0
2, 19914, Note_on_c, 0, 77, 0
2, 19914, Note_on_c, 0, 74, 0
2, 19920, Note_on_c, 0, 65, 66
2, 19920, Note_on_c, 0, 70, 66
2, 19920, Note_on_c, 0, 58, 86
2, 19974, Note_on_c, 0, 58, 0
2, 19974, Note_on_c, 0, 70, 0
2, 19974, Note_on_c, 0, 65, 0
2, 19980, Note_on_c, 0, 70, 90
2, 19980, Note_on_c, 0, 75, 88
2, 19980, Note_on_c, 0, 55, 86
2, 20034, Note_on_c, 0, 55, 0
2, 20034, Note_on_c, 0, 75, 0
2, 20034, Note_on_c, 0, 70, 0
2, 20039, Note_on_c, 0, 63, 67
2, 20039, Note_on_c, 0, 67, 65
2, 20039, Note_on_c, 0, 51, 83
2, 20094, Note_on_c, 0, 51, 0
2, 20094, Note_on_c, 0, 67, 0
2, 20094, Note_on_c, 0, 63, 0
2, 20100, Note_on_c, 0, 50, 88
2, 20154, Note_on_c, 0, 50, 0
2, 20160, Note_on_c, 0, 43, 82
2, 20214, Note_on_c, 0, 43, 0
2, 20219, Note_on_c, 0, 50, 110
2, 20274, Note_on_c, 0, 50, 0
2, 20280, Note_on_c, 0, 51, 101
2, 20334, Note_on_c, 0, 51, 0
2, 20340, Note_on_c, 0, 70, 69
2, 20340, Note_on_c, 0, 74, 73
2, 20340, Note_on_c, 0, 54, 105
2, 20394, Note_on_c, 0, 54, 0
2, 20394, Note_on_c, 0, 74, 0
2, 20394, Note_on_c, 0, 70, 0
2, 20399, Note_on_c, 0, 62, 63
2, 20399, Note_on_c, 0, 66, 63
2, 20399, Note_on_c, 0, 58, 107
2, 20454, Note_on_c, 0, 58, 0
2, 20454, Note_on_c, 0, 66, 0
2, 20454, Note_on_c, 0, 62, 0
2, 20460, Note_on_c, 0, 70, 90
2, 20460, Note_on_c, 0, 74, 93
2, 20460, Note_on_c, 0, 61, 107
2, 20514, Note_on_c, 0, 61, 0
2, 20514, Note_on_c, 0, 74, 0
2, 20514, Note_on_c, 0, 70, 0
2, 20520, Note_on_c, 0, 62, 69
2, 20520, Note_on_c, 0, 66, 68
2, 20520, Note_on_c, 0, 62, 104
2, 20574, Note_on_c, 0, 62, 0
2, 20574, Note_on_c, 0, 66, 0
2, 20574, Note_on_c, 0, 62, 0
2, 20579, Note_on_c, 0, 70, 92
2, 20579, Note_on_c, 0, 74, 92
2, 20579, Note_on_c, 0, 61, 94
2, 20634, Note_on_c, 0, 61, 0
2, 20634, Note_on_c, 0, 74, 0
2, 20634, Note_on_c, 0, 70, 0
2, 20640, Note_on_c, 0, 62, 66
2, 20640, Note_on_c, 0, 66, 65
2, 20640, Note_on_c, 0, 58, 88
2, 20694, Note_on_c, 0, 58, 0
2, 20694, Note_on_c, 0, 66, 0
2, 20694, Note_on_c, 0, 62, 0
2, 20700, Note_on_c, 0, 69, 92
2, 20700, Note_on_c, 0, 73, 93
2, 20700, Note_on_c, 0, 54, 84
2, 20754, Note_on_c, 0, 54, 0
2, 20754, Note_on_c, 0, 73, 0
2, 20754, Note_on_c, 0, 69, 0
2, 20759, Note_on_c, 0, 61, 67
2, 20759, Note_on_c, 0, 66, 68
2, 20759, Note_on_c, 0, 51, 85
2, 20814, Note_on_c, 0, 51, 0
2, 20814, Note_on_c, 0, 66, 0
2, 20814, Note_on_c, 0, 61, 0
2, 20820, Note_on_c, 0, 50, 88
2, 20880, Note_on_c, 0, 58, 68
2, 20880, Note_on_c, 0, 67, 67
2, 20880, Note_on_c, 0, 43, 84
2, 20880, Note_on_c, 0, 55, 86
2, 20934, Note_on_c, 0, 67, 0
2, 20934, Note_on_c, 0, 58, 0
2, 20939, Note_on_c, 0, 62, 40
2, 20994, Note_on_c, 0, 62, 0
2, 21000, Note_on_c, 0, 70, 54
2, 21043, Note_on_c, 0, 55, 0
2, 21043, Note_on_c, 0, 50, 0
2, 21043, Note_on_c, 0, 43, 0
2, 21054, Note_on_c, 0, 70, 0
2, 21060, Note_on_c, 0, 66, 45
2, 21060, Note_on_c, 0, 36, 41
2, 21060, Note_on_c, 0, 48, 39
2, 21114, Note_on_c, 0, 66, 0
2, 21119, Note_on_c, 0, 63, 45
2, 21174, Note_on_c, 0, 63, 0
2, 21180, Note_on_c, 0, 69, 54
2, 21223, Note_on_c, 0, 48, 0
2, 21223, Note_on_c, 0, 36, 0
2, 21234, Note_on_c, 0, 69, 0
2, 21240, Note_on_c, 0, 58, 72
2, 21240, Note_on_c, 0, 67, 73
2, 21240, Note_on_c, 0, 43, 86
2, 21240, Note_on_c, 0, 50, 89
2, 21240, Note_on_c, 0, 55, 86
2, 21294, Note_on_c, 0, 67, 0
2, 21294, Note_on_c, 0, 58, 0
2, 21299, Note_on_c, 0, 62, 40
2, 21354, Note_on_c, 0, 62, 0
2, 21360, Note_on_c, 0, 70, 55
2, 21403, Note_on_c, 0, 55, 0
2, 21403, Note_on_c, 0, 50, 0
2, 21403, Note_on_c, 0, 43, 0
2, 21414, Note_on_c, 0, 70, 0
2, 21420, Note_on_c, 0, 66, 43
2, 21420, Note_on_c, 0, 35, 39
2, 21420, Note_on_c, 0, 47, 38
2, 21474, Note_on_c, 0, 66, 0
2, 21479, Note_on_c, 0, 63, 44
2, 21534, Note_on_c, 0, 63, 0
2, 21540, Note_on_c, 0, 69, 55
2, 21583, Note_on_c, 0, 47, 0
2, 21583, Note_on_c, 0, 35, 0
2, 21594, Note_on_c, 0, 69, 0
2, 21600, Note_on_c, 0, 58, 74
2, 21600, Note_on_c, 0, 67, 72
2, 21600, Note_on_c, 0, 43, 88
2, 21600, Note_on_c, 0, 50, 86
2, 21600, Note_on_c, 0, 55, 87
2, 21654, Note_on_c, 0, 67, 0
2, 21654, Note_on_c, 0, 58, 0
2, 21659, Note_on_c, 0, 62, 40
2, 21714, Note_on_c, 0, 62, 0
2, 21720, Note_on_c, 0, 70, 57
2, 21763, Note_on_c, 0, 55, 0
2, 21763, Note_on_c, 0, 50, 0
2, 21763, Note_on_c, 0, 43, 0
2, 21774, Note_on_c, 0, 70, 0
2, 21780, Note_on_c, 0, 66, 44
2, 21780, Note_on_c, 0, 34, 37
2, 21780, Note_on_c, 0, 46, 36
2, 21834, Note_on_c, 0, 66, 0
2, 21839, Note_on_c, 0, 63, 42
2, 21894, Note_on_c, 0, 63, 0
2, 21900, Note_on_c, 0, 69, 54
2, 21943, Note_on_c, 0, 46, 0
2, 21943, Note_on_c, 0, 34, 0
2, 21954, Note_on_c, 0, 69, 0
2, 21960, Note_on_c, 0, 58, 74
2, 21960, Note_on_c, 0, 67, 73
2, 21960, Note_on_c, 0, 43, 91
2, 21960, Note_on_c, 0, 50, 88
2, 21960, Note_on_c, 0, 55, 91
2, 22014, Note_on_c, 0, 67, 0
2, 22014, Note_on_c, 0, 58, 0
2, 22019, Note_on_c, 0, 62, 43
2, 22074, Note_on_c, 0, 62, 0
2, 22080, Note_on_c, 0, 70, 58
2, 22123, Note_on_c, 0, 55, 0
2, 22123, Note_on_c, 0, 50, 0
2, 22123, Note_on_c, 0, 43, 0
2, 22134, Note_on_c, 0, 70, 0
2, 22140, Note_on_c, 0, 66, 46
2, 22140, Note_on_c, 0, 33, 39
2, 22140, Note_on_c, 0, 45, 40
2, 22194, Note_on_c, 0, 66, 0
2, 22199, Note_on_c, 0, 61, 42
2, 22254, Note_on_c, 0, 61, 0
2, 22260, Note_on_c, 0, 69, 56
2, 22303, Note_on_c, 0, 45, 0
2, 22303, Note_on_c, 0, 33, 0
2, 22314, Note_on_c, 0, 69, 0
2, 22320, Note_on_c, 0, 58, 49
2, 22320, Note_on_c, 0, 67, 51
2, 22320, Note_on_c, 0, 43, 59
2, 22320, Note_on_c, 0, 50, 61
2, 22320, Note_on_c, 0, 55, 60
2, 22374, Note_on_c, 0, 67, 0
2, 22374, Note_on_c, 0, 58, 0
2, 22379, Note_on_c, 0, 62, 40
2, 22434, Note_on_c, 0, 62, 0
2, 22440, Note_on_c, 0, 70, 54
2, 22483, Note_on_c, 0, 55, 0
2, 22483, Note_on_c, 0, 50, 0
2, 22483, Note_on_c, 0, 43, 0
2, 22494, Note_on_c, 0, 70, 0
2, 22500, Note_on_c, 0, 67, 44
2, 22500, Note_on_c, 0, 31, 39
2, 22500, Note_on_c, 0, 43, 41
2, 22554, Note_on_c, 0, 67, 0
2, 22559, Note_on_c, 0, 63, 40
2, 22614, Note_on_c, 0, 63, 0
2, 22620, Note_on_c, 0, 72, 57
2, 22674, Note_on_c, 0, 72, 0
2, 22680, Note_on_c, 0, 67, 46
2, 22734, Note_on_c, 0, 67, 0
2, 22739, Note_on_c, 0, 62, 39
2, 22794, Note_on_c, 0, 62, 0
2, 22800, Note_on_c, 0, 71, 56
2, 22854, Note_on_c, 0, 71, 0
2, 22860, Note_on_c, 0, 43, 0
2, 22860, Note_on_c, 0, 31, 0
2, 22860, Note_on_c, 0, 67, 44
2, 22860, Note_on_c, 0, 33, 56
2, 22860, Note_on_c, 0, 45, 56
2, 22914, Note_on_c, 0, 67, 0
2, 22919, Note_on_c, 0, 61, 41
2, 22974, Note_on_c, 0, 61, 0
2, 22980, Note_on_c, 0, 70, 57
2, 23034, Note_on_c, 0, 70, 0
2, 23040, Note_on_c, 0, 66, 45
2, 23094, Note_on_c, 0, 66, 0
2, 23099, Note_on_c, 0, 61, 42
2, 23154, Note_on_c, 0, 61, 0
2, 23160, Note_on_c, 0, 68, 53
2, 23214, Note_on_c, 0, 68, 0
2, 23220, Note_on_c, 0, 45, 0
2, 23220, Note_on_c, 0, 33, 0
2, 23220, Note_on_c, 0, 65, 47
2, 23220, Note_on_c, 0, 35, 52
2, 23220, Note_on_c, 0, 47, 52
2, 23274, Note_on_c, 0, 65, 0
2, 23279, Note_on_c, 0, 62, 44
2, 23334, Note_on_c, 0, 62, 0
2, 23340, Note_on_c, 0, 68, 54
2, 23394, Note_on_c, 0, 68, 0
2, 23400, Note_on_c, 0, 64, 47
2, 23454, Note_on_c, 0, 64, 0
2, 23459, Note_on_c, 0, 55, 35
2, 23514, Note_on_c, 0, 55, 0
2, 23520, Note_on_c, 0, 67, 58
2, 23545, Note_on_c, 0, 47, 0
2, 23545, Note_on_c, 0, 35, 0
2, 23574, Note_on_c, 0, 67, 0
2, 23580, Note_on_c, 0, 63, 44
2, 23580, Note_on_c, 0, 36, 51
2, 23580, Note_on_c, 0, 48, 48
2, 23634, Note_on_c, 0, 63, 0
2, 23639, Note_on_c, 0, 57, 38
2, 23694, Note_on_c, 0, 57, 0
2, 23700, Note_on_c, 0, 67, 58
2, 23743, Note_on_c, 0, 48, 0
2, 23743, Note_on_c, 0, 36, 0
2, 23754, Note_on_c, 0, 67, 0
2, 23760, Note_on_c, 0, 62, 45
2, 23760, Note_on_c, 0, 40, 58
2, 23760, Note_on_c, 0, 52, 55
2, 23814, Note_on_c, 0, 62, 0
2, 23819, Note_on_c, 0, 58, 42
2, 23874, Note_on_c, 0, 58, 0
2, 23880, Note_on_c, 0, 67, 57
2, 23923, Note_on_c, 0, 52, 0
2, 23923, Note_on_c, 0, 40, 0
2, 23934, Note_on_c, 0, 67, 0
2, 23940, Note_on_c, 0, 61, 42
2, 23940, Note_on_c, 0, 39, 46
2, 23940, Note_on_c, 0, 51, 45
2, 23994, Note_on_c, 0, 61, 0
2, 23999, Note_on_c, 0, 57, 43
2, 24054, Note_on_c, 0, 57, 0
2, 24060, Note_on_c, 0, 66, 59
2, 24103, Note_on_c, 0, 51, 0
2, 24103, Note_on_c, 0, 39, 0
2, 24114, Note_on_c, 0, 66, 0
2, 24120, Note_on_c, 0, 60, 46
2, 24120, Note_on_c, 0, 44, 43
2, 24174, Note_on_c, 0, 60, 0
2, 24179, Note_on_c, 0, 56, 40
2, 24234, Note_on_c, 0, 56, 0
2, 24240, Note_on_c, 0, 67, 60
2, 24283, Note_on_c, 0, 44, 0
2, 24294, Note_on_c, 0, 67, 0
2, 24300, Note_on_c, 0, 60, 39
2, 24300, Note_on_c, 0, 38, 54
2, 24300, Note_on_c, 0, 50, 52
2, 24354, Note_on_c, 0, 60, 0
2, 24359, Note_on_c, 0, 57, 40
2, 24414, Note_on_c, 0, 57, 0
2, 24420, Note_on_c, 0, 66, 58
2, 24463, Note_on_c, 0, 50, 0
2, 24463, Note_on_c, 0, 38, 0
2, 24474, Note_on_c, 0, 66, 0
2, 24480, Note_on_c, 0, 58, 43
2, 24480, Note_on_c, 0, 31, 43
2, 24480, Note_on_c, 0, 43, 43
2, 24534, Note_on_c, 0, 58, 0
2, 24539, Note_on_c, 0, 50, 35
2, 24594, Note_on_c, 0, 50, 0
2, 24600, Note_on_c, 0, 62, 61
2, 24643, Note_on_c, 0, 43, 0
2, 24643, Note_on_c, 0, 31, 0
2, 24654, Note_on_c, 0, 62, 0
2, 24660, Note_on_c, 0, 63, 52
2, 24660, Note_on_c, 0, 38, 61
2, 24660, Note_on_c, 0, 50, 62
2, 24714, Note_on_c, 0, 63, 0
2, 24719, Note_on_c, 0, 58, 41
2, 24774, Note_on_c, 0, 58, 0
2, 24780, Note_on_c, 0, 70, 62
2, 24834, Note_on_c, 0, 70, 0
2, 24840, Note_on_c, 0, 64, 43
2, 24894, Note_on_c, 0, 64, 0
2, 24899, Note_on_c, 0, 62, 46
2, 24954, Note_on_c, 0, 62, 0
2, 24960, Note_on_c, 0, 74, 59
2, 25014, Note_on_c, 0, 74, 0
2, 25020, Note_on_c, 0, 50, 0
2, 25020, Note_on_c, 0, 38, 0
2, 25020, Note_on_c, 0, 70, 46
2, 25020, Note_on_c, 0, 50, 70
2, 25020, Note_on_c, 0, 62, 71
2, 25074, Note_on_c, 0, 70, 0
2, 25079, Note_on_c, 0, 65, 43
2, 25134, Note_on_c, 0, 65, 0
2, 25140, Note_on_c, 0, 77, 61
2, 25194, Note_on_c, 0, 77, 0
2, 25200, Note_on_c, 0, 64, 39
2, 25254, Note_on_c, 0, 64, 0
2, 25259, Note_on_c, 0, 62, 42
2, 25314, Note_on_c, 0, 62, 0
2, 25320, Note_on_c, 0, 74, 61
2, 25374, Note_on_c, 0, 74, 0
2, 25380, Note_on_c, 0, 62, 0
2, 25380, Note_on_c, 0, 50, 0
2, 25380, Note_on_c, 0, 65, 40
2, 25380, Note_on_c, 0, 49, 40
2, 25434, Note_on_c, 0, 65, 0
2, 25439, Note_on_c, 0, 58, 37
2, 25494, Note_on_c, 0, 58, 0
2, 25500, Note_on_c, 0, 70, 60
2, 25554, Note_on_c, 0, 70, 0
2, 25560, Note_on_c, 0, 49, 0
2, 25560, Note_on_c, 0, 61, 40
2, 25560, Note_on_c, 0, 43, 38
2, 25614, Note_on_c, 0, 61, 0
2, 25619, Note_on_c, 0, 58, 42
2, 25674, Note_on_c, 0, 58, 0
2, 25680, Note_on_c, 0, 64, 53
2, 25723, Note_on_c, 0, 43, 0
2, 25734, Note_on_c, 0, 64, 0
2, 25740, Note_on_c, 0, 62, 45
2, 25740, Note_on_c, 0, 38, 40
2, 25794, Note_on_c, 0, 62, 0
2, 25799, Note_on_c, 0, 57, 40
2, 25854, Note_on_c, 0, 57, 0
2, 25860, Note_on_c, 0, 65, 55
2, 25903, Note_on_c, 0, 38, 0
2, 25914, Note_on_c, 0, 65, 0
2, 25920, Note_on_c, 0, 58, 42
2, 25920, Note_on_c, 0, 31, 55
2, 25920, Note_on_c, 0, 43, 55
2, 25974, Note_on_c, 0, 58, 0
2, 25979, Note_on_c, 0, 48, 36
2, 26034, Note_on_c, 0, 48, 0
2, 26040, Note_on_c, 0, 60, 58
2, 26083, Note_on_c, 0, 43, 0
2, 26083, Note_on_c, 0, 31, 0
2, 26094, Note_on_c, 0, 60, 0
2, 26100, Note_on_c, 0, 61, 54
2, 26100, Note_on_c, 0, 36, 61
2, 26100, Note_on_c, 0, 48, 63
2, 26154, Note_on_c, 0, 61, 0
2, 26159, Note_on_c, 0, 58, 44
2, 26214, Note_on_c, 0, 58, 0
2, 26220, Note_on_c, 0, 70, 58
2, 26274, Note_on_c, 0, 70, 0
2, 26280, Note_on_c, 0, 62, 42
2, 26334, Note_on_c, 0, 62, 0
2, 26339, Note_on_c, 0, 60, 43
2, 26394, Note_on_c, 0, 60, 0
2, 26400, Note_on_c, 0, 72, 62
2, 26454, Note_on_c, 0, 72, 0
2, 26460, Note_on_c, 0, 48, 0
2, 26460, Note_on_c, 0, 36, 0
2, 26460, Note_on_c, 0, 70, 46
2, 26460, Note_on_c, 0, 48, 69
2, 26460, Note_on_c, 0, 60, 68
2, 26514, Note_on_c, 0, 70, 0
2, 26519, Note_on_c, 0, 63, 41
2, 26574, Note_on_c, 0, 63, 0
2, 26580, Note_on_c, 0, 75, 60
2, 26634, Note_on_c, 0, 75, 0
2, 26640, Note_on_c, 0, 62, 39
2, 26694, Note_on_c, 0, 62, 0
2, 26699, Note_on_c, 0, 60, 45
2, 26754, Note_on_c, 0, 60, 0
2, 26760, Note_on_c, 0, 72, 60
2, 26814, Note_on_c, 0, 72, 0
2, 26820, Note_on_c, 0, 60, 0
2, 26820, Note_on_c, 0, 48, 0
2, 26820, Note_on_c, 0, 63, 39
2, 26820, Note_on_c, 0, 36, 38
2, 26820, Note_on_c, 0, 48, 38
2, 26874, Note_on_c, 0, 63, 0
2, 26879, Note_on_c, 0, 58, 41
2, 26934, Note_on_c, 0, 58, 0
2, 26940, Note_on_c, 0, 70, 61
2, 26983, Note_on_c, 0, 48, 0
2, 26983, Note_on_c, 0, 36, 0
2, 26994, Note_on_c, 0, 70, 0
2, 27000, Note_on_c, 0, 62, 43
2, 27000, Note_on_c, 0, 30, 42
2, 27000, Note_on_c, 0, 42, 44
2, 27054, Note_on_c, 0, 62, 0
2, 27059, Note_on_c, 0, 57, 42
2, 27114, Note_on_c, 0, 57, 0
2, 27120, Note_on_c, 0, 69, 62
2, 27174, Note_on_c, 0, 69, 0
2, 27180, Note_on_c, 0, 42, 0
2, 27180, Note_on_c, 0, 30, 0
2, 27180, Note_on_c, 0, 63, 41
2, 27180, Note_on_c, 0, 36, 53
2, 27180, Note_on_c, 0, 48, 55
2, 27234, Note_on_c, 0, 63, 0
2, 27239, Note_on_c, 0, 58, 42
2, 27294, Note_on_c, 0, 58, 0
2, 27300, Note_on_c, 0, 70, 60
2, 27343, Note_on_c, 0, 48, 0
2, 27343, Note_on_c, 0, 36, 0
2, 27354, Note_on_c, 0, 70, 0
2, 27360, Note_on_c, 0, 56, 41
2, 27360, Note_on_c, 0, 29, 42
2, 27360, Note_on_c, 0, 41, 43
2, 27414, Note_on_c, 0, 56, 0
2, 27419, Note_on_c, 0, 48, 37
2, 27474, Note_on_c, 0, 48, 0
2, 27480, Note_on_c, 0, 60, 59
2, 27523, Note_on_c, 0, 41, 0
2, 27523, Note_on_c, 0, 29, 0
2, 27534, Note_on_c, 0, 60, 0
2, 27540, Note_on_c, 0, 61, 52
2, 27540, Note_on_c, 0, 36, 63
2, 27540, Note_on_c, 0, 48, 62
2, 27594, Note_on_c, 0, 61, 0
2, 27599, Note_on_c, 0, 56, 44
2, 27654, Note_on_c, 0, 56, 0
2, 27660, Note_on_c, 0, 68, 62
2, 27714, Note_on_c, 0, 68, 0
2, 27720, Note_on_c, 0, 62, 44
2, 27774, Note_on_c, 0, 62, 0
2, 27779, Note_on_c, 0, 60, 45
2, 27834, Note_on_c, 0, 60, 0
2, 27840, Note_on_c, 0, 72, 60
2, 27894, Note_on_c, 0, 72, 0
2, 27900, Note_on_c, 0, 48, 0
2, 27900, Note_on_c, 0, 36, 0
2, 27900, Note_on_c, 0, 68, 43
2, 27900, Note_on_c, 0, 48, 71
2, 27900, Note_on_c, 0, 60, 70
2, 27954, Note_on_c, 0, 68, 0
2, 27959, Note_on_c, 0, 63, 41
2, 28014, Note_on_c, 0, 63, 0
2, 28020, Note_on_c, 0, 75, 60
2, 28074, Note_on_c, 0, 75, 0
2, 28080, Note_on_c, 0, 62, 41
2, 28134, Note_on_c, 0, 62, 0
2, 28139, Note_on_c, 0, 60, 41
2, 28194, Note_on_c, 0, 60, 0
2, 28200, Note_on_c, 0, 72, 59
2, 28254, Note_on_c, 0, 72, 0
2, 28260, Note_on_c, 0, 60, 0
2, 28260, Note_on_c, 0, 48, 0
2, 28260, Note_on_c, 0, 63, 38
2, 28260, Note_on_c, 0, 47, 43
2, 28314, Note_on_c, 0, 63, 0
2, 28319, Note_on_c, 0, 56, 35
2, 28374, Note_on_c, 0, 56, 0
2, 28380, Note_on_c, 0, 68, 60
2, 28434, Note_on_c, 0, 68, 0
2, 28440, Note_on_c, 0, 47, 0
2, 28440, Note_on_c, 0, 59, 41
2, 28440, Note_on_c, 0, 42, 40
2, 28494, Note_on_c, 0, 59, 0
2, 28499, Note_on_c, 0, 56, 42
2, 28554, Note_on_c, 0, 56, 0
2, 28560, Note_on_c, 0, 62, 55
2, 28603, Note_on_c, 0, 42, 0
2, 28614, Note_on_c, 0, 62, 0
2, 28620, Note_on_c, 0, 60, 48
2, 28620, Note_on_c, 0, 36, 41
2, 28674, Note_on_c, 0, 60, 0
2, 28679, Note_on_c, 0, 55, 41
2, 28734, Note_on_c, 0, 55, 0
2, 28740, Note_on_c, 0, 63, 56
2, 28783, Note_on_c, 0, 36, 0
2, 28794, Note_on_c, 0, 63, 0
2, 28800, Note_on_c, 0, 56, 45
2, 28800, Note_on_c, 0, 29, 54
2, 28800, Note_on_c, 0, 41, 56
2, 28854, Note_on_c, 0, 56, 0
2, 28859, Note_on_c, 0, 46, 33
2, 28914, Note_on_c, 0, 46, 0
2, 28920, Note_on_c, 0, 58, 57
2, 28963, Note_on_c, 0, 41, 0
2, 28963, Note_on_c, 0, 29, 0
2, 28974, Note_on_c, 0, 58, 0
2, 28980, Note_on_c, 0, 60, 53
2, 28980, Note_on_c, 0, 34, 63
2, 28980, Note_on_c, 0, 46, 64
2, 29034, Note_on_c, 0, 60, 0
2, 29039, Note_on_c, 0, 56, 44
2, 29094, Note_on_c, 0, 56, 0
2, 29100, Note_on_c, 0, 68, 62
2, 29154, Note_on_c, 0, 68, 0
2, 29160, Note_on_c, 0, 61, 46
2, 29214, Note_on_c, 0, 61, 0
2, 29219, Note_on_c, 0, 60, 45
2, 29274, Note_on_c, 0, 60, 0
2, 29280, Note_on_c, 0, 72, 58
2, 29334, Note_on_c, 0, 72, 0
2, 29340, Note_on_c, 0, 46, 0
2, 29340, Note_on_c, 0, 34, 0
2, 29340, Note_on_c, 0, 68, 47
2, 29340, Note_on_c, 0, 46, 70
2, 29340, Note_on_c, 0, 58, 70
2, 29394, Note_on_c, 0, 68, 0
2, 29399, Note_on_c, 0, 62, 39
2, 29454, Note_on_c, 0, 62, 0
2, 29460, Note_on_c, 0, 74, 58
2, 29514, Note_on_c, 0, 74, 0
2, 29520, Note_on_c, 0, 61, 41
2, 29574, Note_on_c, 0, 61, 0
2, 29579, Note_on_c, 0, 55, 37
2, 29634, Note_on_c, 0, 55, 0
2, 29640, Note_on_c, 0, 67, 57
2, 29694, Note_on_c, 0, 67, 0
2, 29700, Note_on_c, 0, 58, 0
2, 29700, Note_on_c, 0, 46, 0
2, 29700, Note_on_c, 0, 62, 43
2, 29700, Note_on_c, 0, 34, 38
2, 29700, Note_on_c, 0, 46, 38
2, 29754, Note_on_c, 0, 62, 0
2, 29759, Note_on_c, 0, 56, 38
2, 29814, Note_on_c, 0, 56, 0
2, 29820, Note_on_c, 0, 68, 57
2, 29863, Note_on_c, 0, 46, 0
2, 29863, Note_on_c, 0, 34, 0
2, 29874, Note_on_c, 0, 68, 0
2, 29880, Note_on_c, 0, 61, 46
2, 29880, Note_on_c, 0, 28, 44
2, 29880, Note_on_c, 0, 40, 43
2, 29934, Note_on_c, 0, 61, 0
2, 29939, Note_on_c, 0, 55, 39
2, 29994, Note_on_c, 0, 55, 0
2, 30000, Note_on_c, 0, 70, 58
2, 30054, Note_on_c, 0, 70, 0
2, 30060, Note_on_c, 0, 40, 0
2, 30060, Note_on_c, 0, 28, 0
2, 30060, Note_on_c, 0, 62, 41
2, 30060, Note_on_c, 0, 34, 54
2, 30060, Note_on_c, 0, 46, 54
2, 30114, Note_on_c, 0, 62, 0
2, 30119, Note_on_c, 0, 56, 38
2, 30174, Note_on_c, 0, 56, 0
2, 30180, Note_on_c, 0, 68, 61
2, 30223, Note_on_c, 0, 46, 0
2, 30223, Note_on_c, 0, 34, 0
2, 30234, Note_on_c, 0, 68, 0
2, 30240, Note_on_c, 0, 27, 43
2, 30240, Note_on_c, 0, 39, 41
2, 30360, Note_on_c, 0, 55, 45
2, 30403, Note_on_c, 0, 39, 0
2, 30403, Note_on_c, 0, 27, 0
2, 30414, Note_on_c, 0, 55, 0
2, 30420, Note_on_c, 0, 60, 54
2, 30420, Note_on_c, 0, 34, 63
2, 30420, Note_on_c, 0, 46, 62
2, 30474, Note_on_c, 0, 60, 0
2, 30479, Note_on_c, 0, 55, 42
2, 30534, Note_on_c, 0, 55, 0
2, 30540, Note_on_c, 0, 67, 62
2, 30594, Note_on_c, 0, 67, 0
2, 30600, Note_on_c, 0, 61, 47
2, 30654, Note_on_c, 0, 61, 0
2, 30659, Note_on_c, 0, 55, 40
2, 30714, Note_on_c, 0, 55, 0
2, 30720, Note_on_c, 0, 67, 57
2, 30774, Note_on_c, 0, 67, 0
2, 30780, Note_on_c, 0, 46, 0
2, 30780, Note_on_c, 0, 34, 0
2, 30780, Note_on_c, 0, 67, 49
2, 30780, Note_on_c, 0, 46, 62
2, 30780, Note_on_c, 0, 58, 62
2, 30834, Note_on_c, 0, 67, 0
2, 30839, Note_on_c, 0, 62, 39
2, 30894, Note_on_c, 0, 62, 0
2, 30900, Note_on_c, 0, 74, 61
2, 30943, Note_on_c, 0, 58, 0
2, 30943, Note_on_c, 0, 46, 0
2, 30954, Note_on_c, 0, 74, 0
2, 30960, Note_on_c, 0, 66, 43
2, 30960, Note_on_c, 0, 39, 46
2, 30960, Note_on_c, 0, 51, 46
2, 31014, Note_on_c, 0, 66, 0
2, 31019, Note_on_c, 0, 58, 37
2, 31074, Note_on_c, 0, 58, 0
2, 31080, Note_on_c, 0, 73, 61
2, 31123, Note_on_c, 0, 51, 0
2, 31123, Note_on_c, 0, 39, 0
2, 31134, Note_on_c, 0, 73, 0
2, 31140, Note_on_c, 0, 67, 40
2, 31140, Note_on_c, 0, 46, 61
2, 31140, Note_on_c, 0, 58, 60
2, 31194, Note_on_c, 0, 67, 0
2, 31199, Note_on_c, 0, 62, 40
2, 31254, Note_on_c, 0, 62, 0
2, 31260, Note_on_c, 0, 74, 60
2, 31314, Note_on_c, 0, 74, 0
2, 31320, Note_on_c, 0, 70, 47
2, 31374, Note_on_c, 0, 70, 0
2, 31379, Note_on_c, 0, 66, 43
2, 31434, Note_on_c, 0, 66, 0
2, 31440, Note_on_c, 0, 78, 59
2, 31494, Note_on_c, 0, 78, 0
2, 31500, Note_on_c, 0, 58, 0
2, 31500, Note_on_c, 0, 46, 0
2, 31500, Note_on_c, 0, 73, 42
2, 31500, Note_on_c, 0, 51, 62
2, 31500, Note_on_c, 0, 63, 63
2, 31554, Note_on_c, 0, 73, 0
2, 31559, Note_on_c, 0, 67, 40
2, 31614, Note_on_c, 0, 67, 0
2, 31620, Note_on_c, 0, 79, 59
2, 31674, Note_on_c, 0, 79, 0
2, 31680, Note_on_c, 0, 74, 46
2, 31734, Note_on_c, 0, 74, 0
2, 31739, Note_on_c, 0, 70, 41
2, 31794, Note_on_c, 0, 70, 0
2, 31800, Note_on_c, 0, 82, 60
2, 31854, Note_on_c, 0, 82, 0
2, 31860, Note_on_c, 0, 63, 0
2, 31860, Note_on_c, 0, 51, 0
2, 31860, Note_on_c, 0, 78, 44
2, 31860, Note_on_c, 0, 58, 63
2, 31860, Note_on_c, 0, 70, 62
2, 31914, Note_on_c, 0, 78, 0
2, 31919, Note_on_c, 0, 73, 40
2, 31974, Note_on_c, 0, 73, 0
2, 31980, Note_on_c, 0, 85, 61
2, 32034, Note_on_c, 0, 85, 0
2, 32040, Note_on_c, 0, 79, 44
2, 32094, Note_on_c, 0, 79, 0
2, 32099, Note_on_c, 0, 74, 39
2, 32154, Note_on_c, 0, 74, 0
2, 32160, Note_on_c, 0, 86, 60
2, 32214, Note_on_c, 0, 86, 0
2, 32220, Note_on_c, 0, 70, 0
2, 32220, Note_on_c, 0, 58, 0
2, 32220, Note_on_c, 0, 85, 49
2, 32220, Note_on_c, 0, 82, 69
2, 32274, Note_on_c, 0, 85, 0
2, 32279, Note_on_c, 0, 78, 40
2, 32334, Note_on_c, 0, 78, 0
2, 32340, Note_on_c, 0, 90, 57
2, 32394, Note_on_c, 0, 90, 0
2, 32400, Note_on_c, 0, 82, 0
2, 32400, Note_on_c, 0, 86, 45
2, 32400, Note_on_c, 0, 26, 39
2, 32400, Note_on_c, 0, 38, 36
2, 32563, Note_on_c, 0, 38, 0
2, 32563, Note_on_c, 0, 26, 0
2, 32563, Note_on_c, 0, 86, 0
2, 32580, Note_on_c, 0, 83, 71
2, 32580, Note_on_c, 0, 45, 97
2, 32580, Note_on_c, 0, 54, 98
2, 32634, Note_on_c, 0, 83, 0
2, 32639, Note_on_c, 0, 85, 84
2, 32669, Note_on_c, 0, 54, 0
2, 32669, Note_on_c, 0, 45, 0
2, 32694, Note_on_c, 0, 85, 0
2, 32700, Note_on_c, 0, 83, 77
2, 32754, Note_on_c, 0, 83, 0
2, 32760, Note_on_c, 0, 90, 95
2, 32760, Note_on_c, 0, 54, 89
2, 32760, Note_on_c, 0, 57, 88
2, 32786, Note_on_c, 0, 90, 0
2, 32811, Note_on_c, 0, 85, 70
2, 32849, Note_on_c, 0, 57, 0
2, 32849, Note_on_c, 0, 54, 0
2, 32859, Note_on_c, 0, 85, 0
2, 32863, Note_on_c, 0, 83, 73
2, 32909, Note_on_c, 0, 83, 0
2, 32913, Note_on_c, 0, 78, 67
2, 32940, Note_on_c, 0, 45, 73
2, 32940, Note_on_c, 0, 54, 74
2, 32961, Note_on_c, 0, 78, 0
2, 32966, Note_on_c, 0, 81, 86
2, 33012, Note_on_c, 0, 81, 0
2, 33016, Note_on_c, 0, 83, 86
2, 33029, Note_on_c, 0, 54, 0
2, 33029, Note_on_c, 0, 45, 0
2, 33064, Note_on_c, 0, 83, 0
2, 33068, Note_on_c, 0, 81, 77
2, 33116, Note_on_c, 0, 81, 0
2, 33120, Note_on_c, 0, 86, 93
2, 33146, Note_on_c, 0, 86, 0
2, 33171, Note_on_c, 0, 83, 73
2, 33219, Note_on_c, 0, 83, 0
2, 33223, Note_on_c, 0, 81, 73
2, 33269, Note_on_c, 0, 81, 0
2, 33273, Note_on_c, 0, 74, 67
2, 33300, Note_on_c, 0, 54, 71
2, 33300, Note_on_c, 0, 57, 73
2, 33321, Note_on_c, 0, 74, 0
2, 33326, Note_on_c, 0, 76, 80
2, 33372, Note_on_c, 0, 76, 0
2, 33376, Note_on_c, 0, 78, 84
2, 33389, Note_on_c, 0, 57, 0
2, 33389, Note_on_c, 0, 54, 0
2, 33424, Note_on_c, 0, 78, 0
2, 33428, Note_on_c, 0, 76, 75
2, 33476, Note_on_c, 0, 76, 0
2, 33480, Note_on_c, 0, 83, 96
2, 33480, Note_on_c, 0, 66, 69
2, 33480, Note_on_c, 0, 62, 90
2, 33506, Note_on_c, 0, 83, 0
2, 33531, Note_on_c, 0, 78, 70
2, 33569, Note_on_c, 0, 62, 0
2, 33579, Note_on_c, 0, 78, 0
2, 33583, Note_on_c, 0, 76, 72
2, 33629, Note_on_c, 0, 76, 0
2, 33633, Note_on_c, 0, 71, 68
2, 33660, Note_on_c, 0, 54, 72
2, 33660, Note_on_c, 0, 57, 71
2, 33681, Note_on_c, 0, 71, 0
2, 33686, Note_on_c, 0, 74, 87
2, 33732, Note_on_c, 0, 74, 0
2, 33736, Note_on_c, 0, 76, 83
2, 33749, Note_on_c, 0, 57, 0
2, 33749, Note_on_c, 0, 54, 0
2, 33784, Note_on_c, 0, 76, 0
2, 33788, Note_on_c, 0, 74, 74
2, 33836, Note_on_c, 0, 74, 0
2, 33840, Note_on_c, 0, 66, 0
2, 33840, Note_on_c, 0, 81, 94
2, 33866, Note_on_c, 0, 81, 0
2, 33891, Note_on_c, 0, 76, 71
2, 33939, Note_on_c, 0, 76, 0
2, 33943, Note_on_c, 0, 74, 71
2, 33989, Note_on_c, 0, 74, 0
2, 33993, Note_on_c, 0, 69, 67
2, 34020, Note_on_c, 0, 45, 70
2, 34020, Note_on_c, 0, 54, 70
2, 34041, Note_on_c, 0, 69, 0
2, 34046, Note_on_c, 0, 71, 83
2, 34092, Note_on_c, 0, 71, 0
2, 34096, Note_on_c, 0, 73, 87
2, 34109, Note_on_c, 0, 54, 0
2, 34109, Note_on_c, 0, 45, 0
2, 34144, Note_on_c, 0, 73, 0
2, 34148, Note_on_c, 0, 71, 76
2, 34196, Note_on_c, 0, 71, 0
2, 34200, Note_on_c, 0, 78, 96
2, 34200, Note_on_c, 0, 62, 74
2, 34200, Note_on_c, 0, 54, 78
2, 34226, Note_on_c, 0, 78, 0
2, 34251, Note_on_c, 0, 73, 73
2, 34289, Note_on_c, 0, 54, 0
2, 34299, Note_on_c, 0, 73, 0
2, 34303, Note_on_c, 0, 71, 74
2, 34349, Note_on_c, 0, 71, 0
2, 34353, Note_on_c, 0, 66, 70
2, 34380, Note_on_c, 0, 45, 78
2, 34380, Note_on_c, 0, 54, 78
2, 34401, Note_on_c, 0, 66, 0
2, 34406, Note_on_c, 0, 69, 87
2, 34452, Note_on_c, 0, 69, 0
2, 34456, Note_on_c, 0, 71, 86
2, 34469, Note_on_c, 0, 54, 0
2, 34469, Note_on_c, 0, 45, 0
2, 34504, Note_on_c, 0, 71, 0
2, 34508, Note_on_c, 0, 69, 73
2, 34556, Note_on_c, 0, 69, 0
2, 34560, Note_on_c, 0, 62, 0
2, 34560, Note_on_c, 0, 74, 92
2, 34586, Note_on_c, 0, 74, 0
2, 34611, Note_on_c, 0, 71, 76
2, 34659, Note_on_c, 0, 71, 0
2, 34663, Note_on_c, 0, 69, 75
2, 34709, Note_on_c, 0, 69, 0
2, 34713, Note_on_c, 0, 62, 64
2, 34740, Note_on_c, 0, 45, 70
2, 34740, Note_on_c, 0, 54, 70
2, 34761, Note_on_c, 0, 62, 0
2, 34766, Note_on_c, 0, 62, 79
2, 34812, Note_on_c, 0, 62, 0
2, 34816, Note_on_c, 0, 64, 86
2, 34829, Note_on_c, 0, 54, 0
2, 34829, Note_on_c, 0, 45, 0
2, 34864, Note_on_c, 0, 64, 0
2, 34868, Note_on_c, 0, 62, 74
2, 34916, Note_on_c, 0, 62, 0
2, 34920, Note_on_c, 0, 69, 97
2, 34920, Note_on_c, 0, 57, 73
2, 34920, Note_on_c, 0, 57, 87
2, 34946, Note_on_c, 0, 69, 0
2, 34971, Note_on_c, 0, 64, 70
2, 35009, Note_on_c, 0, 57, 0
2, 35019, Note_on_c, 0, 64, 0
2, 35023, Note_on_c, 0, 62, 73
2, 35069, Note_on_c, 0, 62, 0
2, 35073, Note_on_c, 0, 57, 68
2, 35100, Note_on_c, 0, 45, 59
2, 35121, Note_on_c, 0, 57, 0
2, 35126, Note_on_c, 0, 58, 80
2, 35172, Note_on_c, 0, 58, 0
2, 35176, Note_on_c, 0, 60, 85
2, 35189, Note_on_c, 0, 45, 0
2, 35224, Note_on_c, 0, 60, 0
2, 35228, Note_on_c, 0, 58, 76
2, 35280, Note_on_c, 0, 57, 0
2, 35280, Note_on_c, 0, 62, 105
2, 35280, Note_on_c, 0, 65, 102
2, 35280, Note_on_c, 0, 53, 73
2, 35280, Note_on_c, 0, 26, 65
2, 35280, Note_on_c, 0, 38, 62
2, 35443, Note_on_c, 0, 38, 0
2, 35443, Note_on_c, 0, 26, 0
2, 35460, Note_on_c, 0, 58, 0
2, 35460, Note_on_c, 0, 65, 0
2, 35460, Note_on_c, 0, 62, 0
2, 35460, Note_on_c, 0, 82, 104
2, 35460, Note_on_c, 0, 45, 100
2, 35460, Note_on_c, 0, 53, 100
2, 35514, Note_on_c, 0, 82, 0
2, 35519, Note_on_c, 0, 84, 90
2, 35549, Note_on_c, 0, 53, 0
2, 35549, Note_on_c, 0, 45, 0
2, 35574, Note_on_c, 0, 84, 0
2, 35580, Note_on_c, 0, 82, 75
2, 35605, Note_on_c, 0, 53, 0
2, 35634, Note_on_c, 0, 82, 0
2, 35640, Note_on_c, 0, 89, 94
2, 35640, Note_on_c, 0, 53, 91
2, 35640, Note_on_c, 0, 57, 90
2, 35687, Note_on_c, 0, 89, 0
2, 35691, Note_on_c, 0, 84, 70
2, 35729, Note_on_c, 0, 57, 0
2, 35729, Note_on_c, 0, 53, 0
2, 35739, Note_on_c, 0, 84, 0
2, 35743, Note_on_c, 0, 82, 74
2, 35789, Note_on_c, 0, 82, 0
2, 35793, Note_on_c, 0, 77, 70
2, 35820, Note_on_c, 0, 45, 73
2, 35820, Note_on_c, 0, 53, 73
2, 35841, Note_on_c, 0, 77, 0
2, 35846, Note_on_c, 0, 81, 85
2, 35892, Note_on_c, 0, 81, 0
2, 35896, Note_on_c, 0, 82, 86
2, 35909, Note_on_c, 0, 53, 0
2, 35909, Note_on_c, 0, 45, 0
2, 35944, Note_on_c, 0, 82, 0
2, 35948, Note_on_c, 0, 81, 77
2, 35996, Note_on_c, 0, 81, 0
2, 36000, Note_on_c, 0, 86, 93
2, 36047, Note_on_c, 0, 86, 0
2, 36051, Note_on_c, 0, 82, 73
2, 36099, Note_on_c, 0, 82, 0
2, 36103, Note_on_c, 0, 81, 76
2, 36149, Note_on_c, 0, 81, 0
2, 36153, Note_on_c, 0, 74, 66
2, 36180, Note_on_c, 0, 53, 73
2, 36180, Note_on_c, 0, 57, 72
2, 36201, Note_on_c, 0, 74, 0
2, 36206, Note_on_c, 0, 76, 81
2, 36252, Note_on_c, 0, 76, 0
2, 36256, Note_on_c, 0, 77, 84
2, 36269, Note_on_c, 0, 57, 0
2, 36269, Note_on_c, 0, 53, 0
2, 36304, Note_on_c, 0, 77, 0
2, 36308, Note_on_c, 0, 76, 74
2, 36356, Note_on_c, 0, 76, 0
2, 36360, Note_on_c, 0, 82, 94
2, 36360, Note_on_c, 0, 65, 107
2, 36360, Note_on_c, 0, 62, 90
2, 36407, Note_on_c, 0, 82, 0
2, 36411, Note_on_c, 0, 77, 73
2, 36449, Note_on_c, 0, 62, 0
2, 36459, Note_on_c, 0, 77, 0
2, 36463, Note_on_c, 0, 76, 77
2, 36509, Note_on_c, 0, 76, 0
2, 36513, Note_on_c, 0, 70, 65
2, 36540, Note_on_c, 0, 53, 69
2, 36540, Note_on_c, 0, 57, 69
2, 36561, Note_on_c, 0, 70, 0
2, 36566, Note_on_c, 0, 74, 85
2, 36612, Note_on_c, 0, 74, 0
2, 36616, Note_on_c, 0, 76, 84
2, 36629, Note_on_c, 0, 57, 0
2, 36629, Note_on_c, 0, 53, 0
2, 36664, Note_on_c, 0, 76, 0
2, 36668, Note_on_c, 0, 74, 77
2, 36716, Note_on_c, 0, 74, 0
2, 36720, Note_on_c, 0, 65, 0
2, 36720, Note_on_c, 0, 81, 98
2, 36746, Note_on_c, 0, 81, 0
2, 36771, Note_on_c, 0, 76, 72
2, 36819, Note_on_c, 0, 76, 0
2, 36823, Note_on_c, 0, 74, 75
2, 36869, Note_on_c, 0, 74, 0
2, 36873, Note_on_c, 0, 69, 69
2, 36900, Note_on_c, 0, 45, 71
2, 36900, Note_on_c, 0, 53, 71
2, 36921, Note_on_c, 0, 69, 0
2, 36926, Note_on_c, 0, 70, 82
2, 36972, Note_on_c, 0, 70, 0
2, 36976, Note_on_c, 0, 72, 84
2, 36989, Note_on_c, 0, 53, 0
2, 36989, Note_on_c, 0, 45, 0
2, 37024, Note_on_c, 0, 72, 0
2, 37028, Note_on_c, 0, 70, 74
2, 37076, Note_on_c, 0, 70, 0
2, 37080, Note_on_c, 0, 77, 96
2, 37080, Note_on_c, 0, 62, 83
2, 37080, Note_on_c, 0, 53, 78
2, 37106, Note_on_c, 0, 77, 0
2, 37131, Note_on_c, 0, 72, 71
2, 37169, Note_on_c, 0, 53, 0
2, 37179, Note_on_c, 0, 72, 0
2, 37183, Note_on_c, 0, 70, 73
2, 37229, Note_on_c, 0, 70, 0
2, 37233, Note_on_c, 0, 65, 66
2, 37260, Note_on_c, 0, 45, 79
2, 37260, Note_on_c, 0, 53, 79
2, 37281, Note_on_c, 0, 65, 0
2, 37286, Note_on_c, 0, 69, 87
2, 37332, Note_on_c, 0, 69, 0
2, 37336, Note_on_c, 0, 70, 83
2, 37349, Note_on_c, 0, 53, 0
2, 37349, Note_on_c, 0, 45, 0
2, 37384, Note_on_c, 0, 70, 0
2, 37388, Note_on_c, 0, 69, 76
2, 37436, Note_on_c, 0, 69, 0
2, 37440, Note_on_c, 0, 62, 0
2, 37440, Note_on_c, 0, 74, 92
2, 37466, Note_on_c, 0, 74, 0
2, 37491, Note_on_c, 0, 70, 72
2, 37539, Note_on_c, 0, 70, 0
2, 37543, Note_on_c, 0, 69, 76
2, 37589, Note_on_c, 0, 69, 0
2, 37593, Note_on_c, 0, 62, 64
2, 37620, Note_on_c, 0, 38, 72
2, 37620, Note_on_c, 0, 45, 69
2, 37641, Note_on_c, 0, 62, 0
2, 37646, Note_on_c, 0, 65, 82
2, 37692, Note_on_c, 0, 65, 0
2, 37696, Note_on_c, 0, 67, 86
2, 37744, Note_on_c, 0, 67, 0
2, 37748, Note_on_c, 0, 65, 76
2, 37783, Note_on_c, 0, 45, 0
2, 37783, Note_on_c, 0, 38, 0
2, 37796, Note_on_c, 0, 65, 0
2, 37800, Note_on_c, 0, 70, 92
2, 37800, Note_on_c, 0, 58, 75
2, 37800, Note_on_c, 0, 53, 93
2, 37826, Note_on_c, 0, 70, 0
2, 37851, Note_on_c, 0, 67, 73
2, 37899, Note_on_c, 0, 67, 0
2, 37903, Note_on_c, 0, 65, 74
2, 37949, Note_on_c, 0, 65, 0
2, 37953, Note_on_c, 0, 58, 64
2, 38001, Note_on_c, 0, 58, 0
2, 38006, Note_on_c, 0, 58, 78
2, 38052, Note_on_c, 0, 58, 0
2, 38056, Note_on_c, 0, 60, 84
2, 38104, Note_on_c, 0, 60, 0
2, 38108, Note_on_c, 0, 58, 74
2, 38125, Note_on_c, 0, 53, 0
2, 38160, Note_on_c, 0, 58, 0
2, 38160, Note_on_c, 0, 61, 105
2, 38160, Note_on_c, 0, 65, 101
2, 38160, Note_on_c, 0, 53, 69
2, 38160, Note_on_c, 0, 25, 61
2, 38160, Note_on_c, 0, 37, 61
2, 38323, Note_on_c, 0, 37, 0
2, 38323, Note_on_c, 0, 25, 0
2, 38340, Note_on_c, 0, 58, 0
2, 38340, Note_on_c, 0, 65, 0
2, 38340, Note_on_c, 0, 61, 0
2, 38340, Note_on_c, 0, 82, 103
2, 38340, Note_on_c, 0, 44, 99
2, 38340, Note_on_c, 0, 53, 99
2, 38394, Note_on_c, 0, 82, 0
2, 38399, Note_on_c, 0, 84, 90
2, 38429, Note_on_c, 0, 53, 0
2, 38429, Note_on_c, 0, 44, 0
2, 38454, Note_on_c, 0, 84, 0
2, 38460, Note_on_c, 0, 82, 76
2, 38485, Note_on_c, 0, 53, 0
2, 38514, Note_on_c, 0, 82, 0
2, 38520, Note_on_c, 0, 89, 95
2, 38520, Note_on_c, 0, 53, 92
2, 38520, Note_on_c, 0, 56, 91
2, 38546, Note_on_c, 0, 89, 0
2, 38571, Note_on_c, 0, 84, 71
2, 38609, Note_on_c, 0, 56, 0
2, 38609, Note_on_c, 0, 53, 0
2, 38619, Note_on_c, 0, 84, 0
2, 38623, Note_on_c, 0, 82, 72
2, 38669, Note_on_c, 0, 82, 0
2, 38673, Note_on_c, 0, 77, 68
2, 38700, Note_on_c, 0, 44, 73
2, 38700, Note_on_c, 0, 53, 76
2, 38721, Note_on_c, 0, 77, 0
2, 38726, Note_on_c, 0, 80, 84
2, 38772, Note_on_c, 0, 80, 0
2, 38776, Note_on_c, 0, 82, 86
2, 38789, Note_on_c, 0, 53, 0
2, 38789, Note_on_c, 0, 44, 0
2, 38824, Note_on_c, 0, 82, 0
2, 38828, Note_on_c, 0, 80, 76
2, 38876, Note_on_c, 0, 80, 0
2, 38880, Note_on_c, 0, 85, 93
2, 38880, Note_on_c, 0, 65, 108
2, 38880, Note_on_c, 0, 56, 90
2, 38906, Note_on_c, 0, 85, 0
2, 38931, Note_on_c, 0, 82, 73
2, 38969, Note_on_c, 0, 56, 0
2, 38979, Note_on_c, 0, 82, 0
2, 38983, Note_on_c, 0, 80, 76
2, 39029, Note_on_c, 0, 80, 0
2, 39033, Note_on_c, 0, 73, 65
2, 39060, Note_on_c, 0, 53, 78
2, 39060, Note_on_c, 0, 56, 79
2, 39081, Note_on_c, 0, 73, 0
2, 39086, Note_on_c, 0, 75, 81
2, 39132, Note_on_c, 0, 75, 0
2, 39136, Note_on_c, 0, 77, 86
2, 39149, Note_on_c, 0, 56, 0
2, 39149, Note_on_c, 0, 53, 0
2, 39184, Note_on_c, 0, 77, 0
2, 39188, Note_on_c, 0, 75, 74
2, 39236, Note_on_c, 0, 75, 0
2, 39240, Note_on_c, 0, 65, 0
2, 39240, Note_on_c, 0, 82, 94
2, 39240, Note_on_c, 0, 61, 78
2, 39240, Note_on_c, 0, 53, 75
2, 39266, Note_on_c, 0, 82, 0
2, 39291, Note_on_c, 0, 77, 69
2, 39329, Note_on_c, 0, 53, 0
2, 39339, Note_on_c, 0, 77, 0
2, 39343, Note_on_c, 0, 75, 74
2, 39389, Note_on_c, 0, 75, 0
2, 39393, Note_on_c, 0, 70, 68
2, 39420, Note_on_c, 0, 44, 79
2, 39420, Note_on_c, 0, 53, 79
2, 39441, Note_on_c, 0, 70, 0
2, 39446, Note_on_c, 0, 73, 86
2, 39492, Note_on_c, 0, 73, 0
2, 39496, Note_on_c, 0, 75, 83
2, 39509, Note_on_c, 0, 53, 0
2, 39509, Note_on_c, 0, 44, 0
2, 39544, Note_on_c, 0, 75, 0
2, 39548, Note_on_c, 0, 73, 74
2, 39596, Note_on_c, 0, 73, 0
2, 39600, Note_on_c, 0, 80, 95
2, 39626, Note_on_c, 0, 80, 0
2, 39651, Note_on_c, 0, 75, 69
2, 39699, Note_on_c, 0, 75, 0
2, 39703, Note_on_c, 0, 73, 72
2, 39749, Note_on_c, 0, 73, 0
2, 39753, Note_on_c, 0, 68, 70
2, 39780, Note_on_c, 0, 37, 72
2, 39780, Note_on_c, 0, 44, 71
2, 39801, Note_on_c, 0, 68, 0
2, 39806, Note_on_c, 0, 70, 84
2, 39852, Note_on_c, 0, 70, 0
2, 39856, Note_on_c, 0, 72, 84
2, 39869, Note_on_c, 0, 44, 0
2, 39869, Note_on_c, 0, 37, 0
2, 39904, Note_on_c, 0, 72, 0
2, 39908, Note_on_c, 0, 70, 77
2, 39925, Note_on_c, 0, 61, 0
2, 39956, Note_on_c, 0, 70, 0
2, 39960, Note_on_c, 0, 77, 96
2, 39960, Note_on_c, 0, 58, 80
2, 39960, Note_on_c, 0, 53, 97
2, 39986, Note_on_c, 0, 77, 0
2, 40011, Note_on_c, 0, 72, 72
2, 40049, Note_on_c, 0, 53, 0
2, 40059, Note_on_c, 0, 72, 0
2, 40063, Note_on_c, 0, 70, 72
2, 40109, Note_on_c, 0, 70, 0
2, 40113, Note_on_c, 0, 65, 67
2, 40140, Note_on_c, 0, 44, 83
2, 40140, Note_on_c, 0, 53, 83
2, 40161, Note_on_c, 0, 65, 0
2, 40166, Note_on_c, 0, 68, 85
2, 40212, Note_on_c, 0, 68, 0
2, 40216, Note_on_c, 0, 70, 84
2, 40229, Note_on_c, 0, 53, 0
2, 40229, Note_on_c, 0, 44, 0
2, 40264, Note_on_c, 0, 70, 0
2, 40268, Note_on_c, 0, 68, 75
2, 40316, Note_on_c, 0, 68, 0
2, 40320, Note_on_c, 0, 73, 95
2, 40346, Note_on_c, 0, 73, 0
2, 40371, Note_on_c, 0, 70, 74
2, 40419, Note_on_c, 0, 70, 0
2, 40423, Note_on_c, 0, 68, 74
2, 40469, Note_on_c, 0, 68, 0
2, 40473, Note_on_c, 0, 61, 63
2, 40500, Note_on_c, 0, 44, 70
2, 40521, Note_on_c, 0, 61, 0
2, 40526, Note_on_c, 0, 63, 83
2, 40572, Note_on_c, 0, 63, 0
2, 40576, Note_on_c, 0, 65, 84
2, 40624, Note_on_c, 0, 65, 0
2, 40628, Note_on_c, 0, 63, 74
2, 40663, Note_on_c, 0, 44, 0
2, 40676, Note_on_c, 0, 63, 0
2, 40680, Note_on_c, 0, 58, 0
2, 40680, Note_on_c, 0, 70, 98
2, 40680, Note_on_c, 0, 56, 79
2, 40680, Note_on_c, 0, 56, 99
2, 40706, Note_on_c, 0, 70, 0
2, 40731, Note_on_c, 0, 65, 71
2, 40779, Note_on_c, 0, 65, 0
2, 40783, Note_on_c, 0, 63, 71
2, 40829, Note_on_c, 0, 63, 0
2, 40833, Note_on_c, 0, 58, 67
2, 40881, Note_on_c, 0, 58, 0
2, 40886, Note_on_c, 0, 58, 80
2, 40932, Note_on_c, 0, 58, 0
2, 40936, Note_on_c, 0, 60, 85
2, 40984, Note_on_c, 0, 60, 0
2, 40988, Note_on_c, 0, 58, 75
2, 41005, Note_on_c, 0, 56, 0
2, 41040, Note_on_c, 0, 56, 0
2, 41040, Note_on_c, 0, 61, 102
2, 41040, Note_on_c, 0, 64, 103
2, 41040, Note_on_c, 0, 52, 73
2, 41040, Note_on_c, 0, 25, 63
2, 41040, Note_on_c, 0, 37, 63
2, 41203, Note_on_c, 0, 37, 0
2, 41203, Note_on_c, 0, 25, 0
2, 41220, Note_on_c, 0, 58, 0
2, 41220, Note_on_c, 0, 64, 0
2, 41220, Note_on_c, 0, 61, 0
2, 41220, Note_on_c, 0, 82, 105
2, 41220, Note_on_c, 0, 44, 96
2, 41220, Note_on_c, 0, 52, 99
2, 41274, Note_on_c, 0, 82, 0
2, 41279, Note_on_c, 0, 84, 89
2, 41309, Note_on_c, 0, 52, 0
2, 41309, Note_on_c, 0, 44, 0
2, 41334, Note_on_c, 0, 84, 0
2, 41340, Note_on_c, 0, 82, 76
2, 41365, Note_on_c, 0, 52, 0
2, 41394, Note_on_c, 0, 82, 0
2, 41400, Note_on_c, 0, 88, 96
2, 41400, Note_on_c, 0, 68, 110
2, 41400, Note_on_c, 0, 58, 93
2, 41426, Note_on_c, 0, 88, 0
2, 41451, Note_on_c, 0, 84, 72
2, 41489, Note_on_c, 0, 58, 0
2, 41499, Note_on_c, 0, 84, 0
2, 41503, Note_on_c, 0, 82, 72
2, 41549, Note_on_c, 0, 82, 0
2, 41553, Note_on_c, 0, 76, 67
2, 41580, Note_on_c, 0, 56, 91
2, 41580, Note_on_c, 0, 61, 90
2, 41601, Note_on_c, 0, 76, 0
2, 41606, Note_on_c, 0, 80, 87
2, 41652, Note_on_c, 0, 80, 0
2, 41656, Note_on_c, 0, 82, 85
2, 41669, Note_on_c, 0, 61, 0
2, 41669, Note_on_c, 0, 56, 0
2, 41704, Note_on_c, 0, 82, 0
2, 41708, Note_on_c, 0, 80, 74
2, 41756, Note_on_c, 0, 80, 0
2, 41760, Note_on_c, 0, 68, 0
2, 41760, Note_on_c, 0, 85, 93
2, 41760, Note_on_c, 0, 63, 79
2, 41760, Note_on_c, 0, 56, 72
2, 41786, Note_on_c, 0, 85, 0
2, 41811, Note_on_c, 0, 82, 77
2, 41859, Note_on_c, 0, 82, 0
2, 41863, Note_on_c, 0, 80, 73
2, 41909, Note_on_c, 0, 80, 0
2, 41913, Note_on_c, 0, 73, 64
2, 41923, Note_on_c, 0, 56, 0
2, 41940, Note_on_c, 0, 52, 83
2, 41940, Note_on_c, 0, 58, 85
2, 41961, Note_on_c, 0, 73, 0
2, 41966, Note_on_c, 0, 75, 81
2, 42012, Note_on_c, 0, 75, 0
2, 42016, Note_on_c, 0, 76, 82
2, 42029, Note_on_c, 0, 58, 0
2, 42029, Note_on_c, 0, 52, 0
2, 42064, Note_on_c, 0, 76, 0
2, 42068, Note_on_c, 0, 75, 78
2, 42116, Note_on_c, 0, 75, 0
2, 42120, Note_on_c, 0, 63, 0
2, 42120, Note_on_c, 0, 82, 98
2, 42120, Note_on_c, 0, 61, 79
2, 42120, Note_on_c, 0, 56, 77
2, 42146, Note_on_c, 0, 82, 0
2, 42171, Note_on_c, 0, 76, 71
2, 42209, Note_on_c, 0, 56, 0
2, 42219, Note_on_c, 0, 76, 0
2, 42223, Note_on_c, 0, 75, 74
2, 42269, Note_on_c, 0, 75, 0
2, 42273, Note_on_c, 0, 70, 67
2, 42300, Note_on_c, 0, 52, 86
2, 42300, Note_on_c, 0, 58, 84
2, 42321, Note_on_c, 0, 70, 0
2, 42326, Note_on_c, 0, 73, 84
2, 42372, Note_on_c, 0, 73, 0
2, 42376, Note_on_c, 0, 75, 83
2, 42389, Note_on_c, 0, 58, 0
2, 42389, Note_on_c, 0, 52, 0
2, 42424, Note_on_c, 0, 75, 0
2, 42428, Note_on_c, 0, 73, 76
2, 42476, Note_on_c, 0, 73, 0
2, 42480, Note_on_c, 0, 80, 96
2, 42506, Note_on_c, 0, 80, 0
2, 42531, Note_on_c, 0, 75, 72
2, 42579, Note_on_c, 0, 75, 0
2, 42583, Note_on_c, 0, 73, 73
2, 42629, Note_on_c, 0, 73, 0
2, 42633, Note_on_c, 0, 68, 66
2, 42660, Note_on_c, 0, 37, 70
2, 42660, Note_on_c, 0, 44, 70
2, 42681, Note_on_c, 0, 68, 0
2, 42686, Note_on_c, 0, 70, 84
2, 42732, Note_on_c, 0, 70, 0
2, 42736, Note_on_c, 0, 72, 86
2, 42749, Note_on_c, 0, 44, 0
2, 42749, Note_on_c, 0, 37, 0
2, 42784, Note_on_c, 0, 72, 0
2, 42788, Note_on_c, 0, 70, 76
2, 42805, Note_on_c, 0, 61, 0
2, 42836, Note_on_c, 0, 70, 0
2, 42840, Note_on_c, 0, 76, 95
2, 42840, Note_on_c, 0, 58, 77
2, 42840, Note_on_c, 0, 52, 93
2, 42866, Note_on_c, 0, 76, 0
2, 42891, Note_on_c, 0, 72, 74
2, 42929, Note_on_c, 0, 52, 0
2, 42939, Note_on_c, 0, 72, 0
2, 42943, Note_on_c, 0, 70, 73
2, 42989, Note_on_c, 0, 70, 0
2, 42993, Note_on_c, 0, 64, 64
2, 43020, Note_on_c, 0, 44, 82
2, 43020, Note_on_c, 0, 52, 81
2, 43041, Note_on_c, 0, 64, 0
2, 43046, Note_on_c, 0, 68, 85
2, 43092, Note_on_c, 0, 68, 0
2, 43096, Note_on_c, 0, 70, 86
2, 43109, Note_on_c, 0, 52, 0
2, 43109, Note_on_c, 0, 44, 0
2, 43144, Note_on_c, 0, 70, 0
2, 43148, Note_on_c, 0, 68, 74
2, 43196, Note_on_c, 0, 68, 0
2, 43200, Note_on_c, 0, 73, 92
2, 43226, Note_on_c, 0, 73, 0
2, 43251, Note_on_c, 0, 70, 75
2, 43299, Note_on_c, 0, 70, 0
2, 43303, Note_on_c, 0, 68, 75
2, 43349, Note_on_c, 0, 68, 0
2, 43353, Note_on_c, 0, 61, 63
2, 43380, Note_on_c, 0, 44, 70
2, 43401, Note_on_c, 0, 61, 0
2, 43406, Note_on_c, 0, 63, 82
2, 43452, Note_on_c, 0, 63, 0
2, 43456, Note_on_c, 0, 64, 84
2, 43504, Note_on_c, 0, 64, 0
2, 43508, Note_on_c, 0, 63, 77
2, 43543, Note_on_c, 0, 44, 0
2, 43556, Note_on_c, 0, 63, 0
2, 43560, Note_on_c, 0, 58, 0
2, 43560, Note_on_c, 0, 70, 95
2, 43560, Note_on_c, 0, 56, 78
2, 43560, Note_on_c, 0, 56, 101
2, 43586, Note_on_c, 0, 70, 0
2, 43611, Note_on_c, 0, 64, 71
2, 43659, Note_on_c, 0, 64, 0
2, 43663, Note_on_c, 0, 63, 75
2, 43709, Note_on_c, 0, 63, 0
2, 43713, Note_on_c, 0, 58, 66
2, 43761, Note_on_c, 0, 58, 0
2, 43766, Note_on_c, 0, 58, 77
2, 43812, Note_on_c, 0, 58, 0
2, 43816, Note_on_c, 0, 60, 84
2, 43864, Note_on_c, 0, 60, 0
2, 43868, Note_on_c, 0, 58, 75
2, 43885, Note_on_c, 0, 56, 0
2, 43920, Note_on_c, 0, 56, 0
2, 43920, Note_on_c, 0, 61, 89
2, 43920, Note_on_c, 0, 52, 74
2, 43920, Note_on_c, 0, 24, 66
2, 43920, Note_on_c, 0, 36, 66
2, 44083, Note_on_c, 0, 36, 0
2, 44083, Note_on_c, 0, 52, 0
2, 44083, Note_on_c, 0, 58, 0
2, 44083, Note_on_c, 0, 61, 0
2, 44083, Note_on_c, 0, 24, 0
2, 44100, Note_on_c, 0, 68, 92
2, 44100, Note_on_c, 0, 73, 92
2, 44100, Note_on_c, 0, 80, 94
2, 44100, Note_on_c, 0, 64, 66
2, 44100, Note_on_c, 0, 61, 61
2, 44182, Note_on_c, 0, 80, 0
2, 44182, Note_on_c, 0, 68, 0
2, 44182, Note_on_c, 0, 73, 0
2, 44189, Note_on_c, 0, 61, 0
2, 44190, Note_on_c, 0, 68, 49
2, 44190, Note_on_c, 0, 73, 48
2, 44190, Note_on_c, 0, 80, 50
2, 44235, Note_on_c, 0, 80, 0
2, 44235, Note_on_c, 0, 73, 0
2, 44235, Note_on_c, 0, 68, 0
2, 44280, Note_on_c, 0, 60, 47
2, 44369, Note_on_c, 0, 60, 0
2, 44460, Note_on_c, 0, 64, 0
2, 44460, Note_on_c, 0, 64, 44
2, 44460, Note_on_c, 0, 68, 44
2, 44460, Note_on_c, 0, 61, 52
2, 44460, Note_on_c, 0, 59, 49
2, 44505, Note_on_c, 0, 68, 0
2, 44505, Note_on_c, 0, 64, 0
2, 44549, Note_on_c, 0, 59, 0
2, 44550, Note_on_c, 0, 64, 47
2, 44550, Note_on_c, 0, 68, 47
2, 44595, Note_on_c, 0, 68, 0
2, 44595, Note_on_c, 0, 64, 0
2, 44640, Note_on_c, 0, 58, 45
2, 44729, Note_on_c, 0, 58, 0
2, 44820, Note_on_c, 0, 72, 41
2, 44820, Note_on_c, 0, 57, 48
2, 44874, Note_on_c, 0, 72, 0
2, 44879, Note_on_c, 0, 64, 39
2, 44909, Note_on_c, 0, 57, 0
2, 44934, Note_on_c, 0, 64, 0
2, 44940, Note_on_c, 0, 73, 58
2, 44994, Note_on_c, 0, 73, 0
2, 45000, Note_on_c, 0, 76, 55
2, 45000, Note_on_c, 0, 56, 44
2, 45054, Note_on_c, 0, 76, 0
2, 45059, Note_on_c, 0, 70, 41
2, 45089, Note_on_c, 0, 56, 0
2, 45114, Note_on_c, 0, 70, 0
2, 45120, Note_on_c, 0, 64, 40
2, 45174, Note_on_c, 0, 64, 0
2, 45180, Note_on_c, 0, 61, 42
2, 45180, Note_on_c, 0, 55, 45
2, 45234, Note_on_c, 0, 61, 0
2, 45239, Note_on_c, 0, 58, 45
2, 45269, Note_on_c, 0, 55, 0
2, 45290, Note_on_c, 0, 61, 0
2, 45294, Note_on_c, 0, 58, 0
2, 45300, Note_on_c, 0, 55, 43
2, 45354, Note_on_c, 0, 55, 0
2, 45360, Note_on_c, 0, 54, 48
2, 45360, Note_on_c, 0, 36, 37
2, 45523, Note_on_c, 0, 36, 0
2, 45523, Note_on_c, 0, 54, 0
2, 45540, Note_on_c, 0, 68, 92
2, 45540, Note_on_c, 0, 73, 92
2, 45540, Note_on_c, 0, 80, 91
2, 45540, Note_on_c, 0, 64, 47
2, 45540, Note_on_c, 0, 61, 61
2, 45622, Note_on_c, 0, 80, 0
2, 45622, Note_on_c, 0, 68, 0
2, 45622, Note_on_c, 0, 73, 0
2, 45629, Note_on_c, 0, 61, 0
2, 45630, Note_on_c, 0, 68, 50
2, 45630, Note_on_c, 0, 73, 51
2, 45630, Note_on_c, 0, 80, 49
2, 45675, Note_on_c, 0, 80, 0
2, 45675, Note_on_c, 0, 73, 0
2, 45675, Note_on_c, 0, 68, 0
2, 45720, Note_on_c, 0, 60, 47
2, 45779, Note_on_c, 0, 66, 44
2, 45809, Note_on_c, 0, 60, 0
2, 45834, Note_on_c, 0, 66, 0
2, 45840, Note_on_c, 0, 67, 50
2, 45894, Note_on_c, 0, 67, 0
2, 45900, Note_on_c, 0, 64, 0
2, 45900, Note_on_c, 0, 64, 79
2, 45900, Note_on_c, 0, 68, 79
2, 45900, Note_on_c, 0, 61, 47
2, 45900, Note_on_c, 0, 59, 50
2, 45982, Note_on_c, 0, 68, 0
2, 45982, Note_on_c, 0, 64, 0
2, 45989, Note_on_c, 0, 59, 0
2, 45990, Note_on_c, 0, 64, 48
2, 45990, Note_on_c, 0, 68, 49
2, 46035, Note_on_c, 0, 68, 0
2, 46035, Note_on_c, 0, 64, 0
2, 46080, Note_on_c, 0, 58, 46
2, 46169, Note_on_c, 0, 58, 0
2, 46200, Note_on_c, 0, 71, 41
2, 46254, Note_on_c, 0, 71, 0
2, 46260, Note_on_c, 0, 72, 48
2, 46260, Note_on_c, 0, 57, 49
2, 46314, Note_on_c, 0, 72, 0
2, 46319, Note_on_c, 0, 64, 37
2, 46349, Note_on_c, 0, 57, 0
2, 46374, Note_on_c, 0, 64, 0
2, 46380, Note_on_c, 0, 73, 56
2, 46434, Note_on_c, 0, 73, 0
2, 46440, Note_on_c, 0, 76, 55
2, 46440, Note_on_c, 0, 56, 45
2, 46494, Note_on_c, 0, 76, 0
2, 46499, Note_on_c, 0, 70, 41
2, 46529, Note_on_c, 0, 56, 0
2, 46554, Note_on_c, 0, 70, 0
2, 46560, Note_on_c, 0, 64, 39
2, 46614, Note_on_c, 0, 64, 0
2, 46620, Note_on_c, 0, 61, 42
2, 46620, Note_on_c, 0, 55, 47
2, 46661, Note_on_c, 0, 61, 0
2, 46665, Note_on_c, 0, 58, 44
2, 46706, Note_on_c, 0, 58, 0
2, 46709, Note_on_c, 0, 55, 0
2, 46710, Note_on_c, 0, 55, 42
2, 46730, Note_on_c, 0, 61, 0
2, 46751, Note_on_c, 0, 55, 0
2, 46755, Note_on_c, 0, 54, 45
2, 46796, Note_on_c, 0, 54, 0
2, 46800, Note_on_c, 0, 53, 48
2, 46800, Note_on_c, 0, 36, 37
2, 46963, Note_on_c, 0, 36, 0
2, 46963, Note_on_c, 0, 53, 0
2, 46980, Note_on_c, 0, 69, 92
2, 46980, Note_on_c, 0, 75, 93
2, 46980, Note_on_c, 0, 81, 93
2, 46980, Note_on_c, 0, 63, 47
2, 46980, Note_on_c, 0, 61, 61
2, 46980, Note_on_c, 0, 65, 62
2, 47062, Note_on_c, 0, 81, 0
2, 47062, Note_on_c, 0, 69, 0
2, 47062, Note_on_c, 0, 75, 0
2, 47069, Note_on_c, 0, 65, 0
2, 47069, Note_on_c, 0, 61, 0
2, 47070, Note_on_c, 0, 69, 50
2, 47070, Note_on_c, 0, 75, 50
2, 47070, Note_on_c, 0, 81, 48
2, 47115, Note_on_c, 0, 81, 0
2, 47115, Note_on_c, 0, 75, 0
2, 47115, Note_on_c, 0, 69, 0
2, 47160, Note_on_c, 0, 60, 45
2, 47249, Note_on_c, 0, 60, 0
2, 47340, Note_on_c, 0, 63, 0
2, 47340, Note_on_c, 0, 66, 67
2, 47340, Note_on_c, 0, 72, 65
2, 47340, Note_on_c, 0, 60, 49
2, 47340, Note_on_c, 0, 58, 48
2, 47422, Note_on_c, 0, 72, 0
2, 47422, Note_on_c, 0, 66, 0
2, 47429, Note_on_c, 0, 58, 0
2, 47430, Note_on_c, 0, 66, 48
2, 47430, Note_on_c, 0, 72, 48
2, 47475, Note_on_c, 0, 72, 0
2, 47475, Note_on_c, 0, 66, 0
2, 47520, Note_on_c, 0, 57, 45
2, 47609, Note_on_c, 0, 57, 0
2, 47700, Note_on_c, 0, 71, 41
2, 47700, Note_on_c, 0, 56, 47
2, 47754, Note_on_c, 0, 71, 0
2, 47759, Note_on_c, 0, 63, 35
2, 47789, Note_on_c, 0, 56, 0
2, 47814, Note_on_c, 0, 63, 0
2, 47820, Note_on_c, 0, 72, 55
2, 47874, Note_on_c, 0, 72, 0
2, 47880, Note_on_c, 0, 75, 55
2, 47880, Note_on_c, 0, 55, 46
2, 47934, Note_on_c, 0, 75, 0
2, 47939, Note_on_c, 0, 70, 43
2, 47969, Note_on_c, 0, 55, 0
2, 47994, Note_on_c, 0, 70, 0
2, 48000, Note_on_c, 0, 63, 37
2, 48054, Note_on_c, 0, 63, 0
2, 48060, Note_on_c, 0, 63, 46
2, 48060, Note_on_c, 0, 54, 46
2, 48114, Note_on_c, 0, 63, 0
2, 48119, Note_on_c, 0, 57, 40
2, 48149, Note_on_c, 0, 54, 0
2, 48170, Note_on_c, 0, 60, 0
2, 48174, Note_on_c, 0, 57, 0
2, 48180, Note_on_c, 0, 54, 42
2, 48234, Note_on_c, 0, 54, 0
2, 48240, Note_on_c, 0, 53, 50
2, 48240, Note_on_c, 0, 36, 38
2, 48403, Note_on_c, 0, 36, 0
2, 48403, Note_on_c, 0, 53, 0
2, 48420, Note_on_c, 0, 69, 91
2, 48420, Note_on_c, 0, 75, 92
2, 48420, Note_on_c, 0, 81, 93
2, 48420, Note_on_c, 0, 63, 48
2, 48420, Note_on_c, 0, 61, 62
2, 48420, Note_on_c, 0, 65, 61
2, 48502, Note_on_c, 0, 81, 0
2, 48502, Note_on_c, 0, 69, 0
2, 48502, Note_on_c, 0, 75, 0
2, 48509, Note_on_c, 0, 65, 0
2, 48509, Note_on_c, 0, 61, 0
2, 48510, Note_on_c, 0, 69, 50
2, 48510, Note_on_c, 0, 75, 52
2, 48510, Note_on_c, 0, 81, 49
2, 48555, Note_on_c, 0, 81, 0
2, 48555, Note_on_c, 0, 75, 0
2, 48555, Note_on_c, 0, 69, 0
2, 48600, Note_on_c, 0, 60, 44
2, 48659, Note_on_c, 0, 63, 45
2, 48689, Note_on_c, 0, 60, 0
2, 48714, Note_on_c, 0, 63, 0
2, 48720, Note_on_c, 0, 65, 48
2, 48774, Note_on_c, 0, 65, 0
2, 48780, Note_on_c, 0, 63, 0
2, 48780, Note_on_c, 0, 66, 89
2, 48780, Note_on_c, 0, 72, 88
2, 48780, Note_on_c, 0, 60, 47
2, 48780, Note_on_c, 0, 58, 46
2, 48862, Note_on_c, 0, 72, 0
2, 48862, Note_on_c, 0, 66, 0
2, 48869, Note_on_c, 0, 58, 0
2, 48870, Note_on_c, 0, 66, 50
2, 48870, Note_on_c, 0, 72, 50
2, 48915, Note_on_c, 0, 72, 0
2, 48915, Note_on_c, 0, 66, 0
2, 48960, Note_on_c, 0, 57, 44
2, 49019, Note_on_c, 0, 69, 43
2, 49049, Note_on_c, 0, 57, 0
2, 49074, Note_on_c, 0, 69, 0
2, 49080, Note_on_c, 0, 70, 49
2, 49134, Note_on_c, 0, 70, 0
2, 49140, Note_on_c, 0, 71, 52
2, 49140, Note_on_c, 0, 56, 49
2, 49194, Note_on_c, 0, 71, 0
2, 49199, Note_on_c, 0, 63, 38
2, 49229, Note_on_c, 0, 56, 0
2, 49254, Note_on_c, 0, 63, 0
2, 49260, Note_on_c, 0, 72, 56
2, 49314, Note_on_c, 0, 72, 0
2, 49320, Note_on_c, 0, 75, 57
2, 49320, Note_on_c, 0, 54, 43
2, 49374, Note_on_c, 0, 75, 0
2, 49379, Note_on_c, 0, 70, 43
2, 49409, Note_on_c, 0, 54, 0
2, 49434, Note_on_c, 0, 70, 0
2, 49440, Note_on_c, 0, 63, 37
2, 49494, Note_on_c, 0, 63, 0
2, 49500, Note_on_c, 0, 63, 46
2, 49500, Note_on_c, 0, 53, 46
2, 49541, Note_on_c, 0, 63, 0
2, 49545, Note_on_c, 0, 57, 39
2, 49586, Note_on_c, 0, 57, 0
2, 49589, Note_on_c, 0, 53, 0
2, 49590, Note_on_c, 0, 54, 42
2, 49610, Note_on_c, 0, 60, 0
2, 49631, Note_on_c, 0, 54, 0
2, 49635, Note_on_c, 0, 53, 46
2, 49676, Note_on_c, 0, 53, 0
2, 49680, Note_on_c, 0, 52, 49
2, 49680, Note_on_c, 0, 36, 36
2, 49843, Note_on_c, 0, 36, 0
2, 49843, Note_on_c, 0, 52, 0
2, 49860, Note_on_c, 0, 76, 127
2, 49860, Note_on_c, 0, 81, 127
2, 49860, Note_on_c, 0, 88, 127
2, 49860, Note_on_c, 0, 64, 77
2, 49860, Note_on_c, 0, 69, 76
2, 49860, Note_on_c, 0, 60, 102
2, 49942, Note_on_c, 0, 88, 0
2, 49942, Note_on_c, 0, 76, 0
2, 49942, Note_on_c, 0, 81, 0
2, 49949, Note_on_c, 0, 60, 0
2, 49950, Note_on_c, 0, 76, 85
2, 49950, Note_on_c, 0, 81, 83
2, 49950, Note_on_c, 0, 88, 83
2, 49995, Note_on_c, 0, 88, 0
2, 49995, Note_on_c, 0, 76, 0
2, 49995, Note_on_c, 0, 81, 0
2, 50040, Note_on_c, 0, 59, 79
2, 50129, Note_on_c, 0, 59, 0
2, 50220, Note_on_c, 0, 69, 0
2, 50220, Note_on_c, 0, 64, 0
2, 50220, Note_on_c, 0, 72, 96
2, 50220, Note_on_c, 0, 76, 93
2, 50220, Note_on_c, 0, 84, 94
2, 50220, Note_on_c, 0, 60, 80
2, 50220, Note_on_c, 0, 64, 82
2, 50220, Note_on_c, 0, 68, 82
2, 50220, Note_on_c, 0, 58, 77
2, 50302, Note_on_c, 0, 84, 0
2, 50302, Note_on_c, 0, 72, 0
2, 50302, Note_on_c, 0, 76, 0
2, 50309, Note_on_c, 0, 58, 0
2, 50310, Note_on_c, 0, 72, 78
2, 50310, Note_on_c, 0, 76, 78
2, 50310, Note_on_c, 0, 84, 79
2, 50355, Note_on_c, 0, 84, 0
2, 50355, Note_on_c, 0, 72, 0
2, 50355, Note_on_c, 0, 76, 0
2, 50400, Note_on_c, 0, 57, 76
2, 50489, Note_on_c, 0, 57, 0
2, 50580, Note_on_c, 0, 68, 0
2, 50580, Note_on_c, 0, 60, 0
2, 50580, Note_on_c, 0, 64, 0
2, 50580, Note_on_c, 0, 72, 94
2, 50580, Note_on_c, 0, 76, 93
2, 50580, Note_on_c, 0, 60, 81
2, 50580, Note_on_c, 0, 67, 81
2, 50580, Note_on_c, 0, 56, 77
2, 50634, Note_on_c, 0, 76, 0
2, 50634, Note_on_c, 0, 72, 0
2, 50639, Note_on_c, 0, 71, 75
2, 50639, Note_on_c, 0, 75, 73
2, 50669, Note_on_c, 0, 56, 0
2, 50694, Note_on_c, 0, 71, 0
2, 50694, Note_on_c, 0, 75, 0
2, 50700, Note_on_c, 0, 72, 83
2, 50700, Note_on_c, 0, 76, 83
2, 50754, Note_on_c, 0, 76, 0
2, 50754, Note_on_c, 0, 72, 0
2, 50760, Note_on_c, 0, 54, 73
2, 50849, Note_on_c, 0, 54, 0
2, 50940, Note_on_c, 0, 60, 0
2, 50940, Note_on_c, 0, 67, 0
2, 50940, Note_on_c, 0, 64, 93
2, 50940, Note_on_c, 0, 72, 95
2, 50940, Note_on_c, 0, 60, 73
2, 50940, Note_on_c, 0, 66, 75
2, 50940, Note_on_c, 0, 54, 79
2, 51029, Note_on_c, 0, 54, 0
2, 51103, Note_on_c, 0, 60, 0
2, 51103, Note_on_c, 0, 64, 0
2, 51103, Note_on_c, 0, 72, 0
2, 51103, Note_on_c, 0, 66, 0
2, 51120, Note_on_c, 0, 53, 72
2, 51120, Note_on_c, 0, 53, 71
2, 51120, Note_on_c, 0, 36, 90
2, 51174, Note_on_c, 0, 53, 0
2, 51179, Note_on_c, 0, 54, 94
2, 51234, Note_on_c, 0, 54, 0
2, 51240, Note_on_c, 0, 55, 100
2, 51283, Note_on_c, 0, 53, 0
2, 51294, Note_on_c, 0, 55, 0
2, 51300, Note_on_c, 0, 56, 126
2, 51300, Note_on_c, 0, 59, 127
2, 51300, Note_on_c, 0, 52, 86
2, 51389, Note_on_c, 0, 52, 0
2, 51463, Note_on_c, 0, 59, 0
2, 51463, Note_on_c, 0, 56, 0
2, 51480, Note_on_c, 0, 51, 92
2, 51569, Note_on_c, 0, 51, 0
2, 51660, Note_on_c, 0, 59, 86
2, 51660, Note_on_c, 0, 65, 84
2, 51660, Note_on_c, 0, 50, 91
2, 51714, Note_on_c, 0, 65, 0
2, 51714, Note_on_c, 0, 59, 0
2, 51719, Note_on_c, 0, 60, 79
2, 51749, Note_on_c, 0, 50, 0
2, 51774, Note_on_c, 0, 60, 0
2, 51780, Note_on_c, 0, 61, 99
2, 51834, Note_on_c, 0, 61, 0
2, 51840, Note_on_c, 0, 62, 103
2, 51840, Note_on_c, 0, 49, 92
2, 51894, Note_on_c, 0, 62, 0
2, 51899, Note_on_c, 0, 63, 99
2, 51929, Note_on_c, 0, 49, 0
2, 51954, Note_on_c, 0, 63, 0
2, 51960, Note_on_c, 0, 64, 101
2, 52014, Note_on_c, 0, 64, 0
2, 52020, Note_on_c, 0, 65, 118
2, 52020, Note_on_c, 0, 74, 118
2, 52020, Note_on_c, 0, 48, 88
2, 52109, Note_on_c, 0, 48, 0
2, 52183, Note_on_c, 0, 74, 0
2, 52183, Note_on_c, 0, 65, 0
2, 52200, Note_on_c, 0, 47, 94
2, 52289, Note_on_c, 0, 47, 0
2, 52380, Note_on_c, 0, 49, 84
2, 52380, Note_on_c, 0, 52, 84
2, 52380, Note_on_c, 0, 56, 85
2, 52380, Note_on_c, 0, 46, 92
2, 52469, Note_on_c, 0, 46, 0
2, 52469, Note_on_c, 0, 52, 0
2, 52469, Note_on_c, 0, 56, 0
2, 52469, Note_on_c, 0, 49, 0
2, 52560, Note_on_c, 0, 50, 103
2, 52560, Note_on_c, 0, 53, 104
2, 52560, Note_on_c, 0, 57, 102
2, 52560, Note_on_c, 0, 45, 93
2, 52649, Note_on_c, 0, 45, 0
2, 52649, Note_on_c, 0, 53, 0
2, 52649, Note_on_c, 0, 57, 0
2, 52649, Note_on_c, 0, 50, 0
2, 52740, Note_on_c, 0, 51, 99
2, 52740, Note_on_c, 0, 54, 101
2, 52740, Note_on_c, 0, 58, 100
2, 52740, Note_on_c, 0, 44, 89
2, 52829, Note_on_c, 0, 44, 0
2, 52829, Note_on_c, 0, 54, 0
2, 52829, Note_on_c, 0, 58, 0
2, 52829, Note_on_c, 0, 51, 0
2, 52920, Note_on_c, 0, 43, 93
2, 53009, Note_on_c, 0, 43, 0
2, 53100, Note_on_c, 0, 53, 84
2, 53100, Note_on_c, 0, 44, 98
2, 53154, Note_on_c, 0, 53, 0
2, 53159, Note_on_c, 0, 54, 98
2, 53189, Note_on_c, 0, 44, 0
2, 53214, Note_on_c, 0, 54, 0
2, 53220, Note_on_c, 0, 55, 100
2, 53274, Note_on_c, 0, 55, 0
2, 53280, Note_on_c, 0, 56, 127
2, 53280, Note_on_c, 0, 59, 127
2, 53280, Note_on_c, 0, 40, 110
2, 53334, Note_on_c, 0, 59, 0
2, 53334, Note_on_c, 0, 56, 0
2, 53339, Note_on_c, 0, 55, 88
2, 53394, Note_on_c, 0, 55, 0
2, 53400, Note_on_c, 0, 54, 92
2, 53443, Note_on_c, 0, 40, 0
2, 53454, Note_on_c, 0, 54, 0
2, 53460, Note_on_c, 0, 53, 89
2, 53460, Note_on_c, 0, 44, 106
2, 53514, Note_on_c, 0, 53, 0
2, 53519, Note_on_c, 0, 54, 99
2, 53549, Note_on_c, 0, 44, 0
2, 53574, Note_on_c, 0, 54, 0
2, 53580, Note_on_c, 0, 55, 102
2, 53634, Note_on_c, 0, 55, 0
2, 53640, Note_on_c, 0, 56, 127
2, 53640, Note_on_c, 0, 59, 127
2, 53640, Note_on_c, 0, 39, 111
2, 53694, Note_on_c, 0, 59, 0
2, 53694, Note_on_c, 0, 56, 0
2, 53699, Note_on_c, 0, 55, 81
2, 53754, Note_on_c, 0, 55, 0
2, 53760, Note_on_c, 0, 54, 83
2, 53803, Note_on_c, 0, 39, 0
2, 53814, Note_on_c, 0, 54, 0
2, 53820, Note_on_c, 0, 53, 76
2, 53820, Note_on_c, 0, 44, 97
2, 53874, Note_on_c, 0, 53, 0
2, 53879, Note_on_c, 0, 54, 80
2, 53909, Note_on_c, 0, 44, 0
2, 53934, Note_on_c, 0, 54, 0
2, 53940, Note_on_c, 0, 55, 76
2, 53994, Note_on_c, 0, 55, 0
2, 54000, Note_on_c, 0, 56, 110
2, 54000, Note_on_c, 0, 59, 109
2, 54000, Note_on_c, 0, 38, 93
2, 54054, Note_on_c, 0, 59, 0
2, 54054, Note_on_c, 0, 56, 0
2, 54059, Note_on_c, 0, 55, 60
2, 54114, Note_on_c, 0, 55, 0
2, 54120, Note_on_c, 0, 54, 57
2, 54163, Note_on_c, 0, 38, 0
2, 54174, Note_on_c, 0, 54, 0
2, 54180, Note_on_c, 0, 53, 50
2, 54180, Note_on_c, 0, 44, 80
2, 54234, Note_on_c, 0, 53, 0
2, 54239, Note_on_c, 0, 54, 52
2, 54269, Note_on_c, 0, 44, 0
2, 54294, Note_on_c, 0, 54, 0
2, 54300, Note_on_c, 0, 55, 50
2, 54354, Note_on_c, 0, 55, 0
2, 54360, Note_on_c, 0, 56, 78
2, 54360, Note_on_c, 0, 59, 79
2, 54360, Note_on_c, 0, 37, 73
2, 54414, Note_on_c, 0, 59, 0
2, 54414, Note_on_c, 0, 56, 0
2, 54419, Note_on_c, 0, 55, 33
2, 54474, Note_on_c, 0, 55, 0
2, 54480, Note_on_c, 0, 54, 30
2, 54523, Note_on_c, 0, 37, 0
2, 54534, Note_on_c, 0, 54, 0
2, 54540, Note_on_c, 0, 53, 25
2, 54540, Note_on_c, 0, 44, 60
2, 54594, Note_on_c, 0, 53, 0
2, 54599, Note_on_c, 0, 54, 24
2, 54629, Note_on_c, 0, 44, 0
2, 54650, Note_on_c, 0, 36, 0
2, 54654, Note_on_c, 0, 54, 0
2, 54660, Note_on_c, 0, 55, 25
2, 54714, Note_on_c, 0, 55, 0
2, 54720, Note_on_c, 0, 36, 57
2, 54720, Note_on_c, 0, 48, 58
2, 54779, Note_on_c, 0, 52, 44
2, 54809, Note_on_c, 0, 48, 0
2, 54809, Note_on_c, 0, 36, 0
2, 54834, Note_on_c, 0, 52, 0
2, 54840, Note_on_c, 0, 55, 52
2, 54894, Note_on_c, 0, 55, 0
2, 54900, Note_on_c, 0, 56, 77
2, 54900, Note_on_c, 0, 47, 44
2, 54954, Note_on_c, 0, 56, 0
2, 54959, Note_on_c, 0, 61, 56
2, 54989, Note_on_c, 0, 47, 0
2, 55014, Note_on_c, 0, 61, 0
2, 55080, Note_on_c, 0, 36, 51
2, 55080, Note_on_c, 0, 48, 53
2, 55139, Note_on_c, 0, 52, 42
2, 55169, Note_on_c, 0, 48, 0
2, 55169, Note_on_c, 0, 36, 0
2, 55194, Note_on_c, 0, 52, 0
2, 55200, Note_on_c, 0, 55, 53
2, 55254, Note_on_c, 0, 55, 0
2, 55260, Note_on_c, 0, 57, 76
2, 55260, Note_on_c, 0, 45, 44
2, 55314, Note_on_c, 0, 57, 0
2, 55319, Note_on_c, 0, 62, 54
2, 55349, Note_on_c, 0, 45, 0
2, 55374, Note_on_c, 0, 62, 0
2, 55440, Note_on_c, 0, 36, 56
2, 55440, Note_on_c, 0, 48, 53
2, 55499, Note_on_c, 0, 52, 43
2, 55529, Note_on_c, 0, 48, 0
2, 55529, Note_on_c, 0, 36, 0
2, 55554, Note_on_c, 0, 52, 0
2, 55560, Note_on_c, 0, 55, 51
2, 55614, Note_on_c, 0, 55, 0
2, 55620, Note_on_c, 0, 58, 78
2, 55620, Note_on_c, 0, 44, 41
2, 55674, Note_on_c, 0, 58, 0
2, 55679, Note_on_c, 0, 63, 56
2, 55709, Note_on_c, 0, 44, 0
2, 55734, Note_on_c, 0, 63, 0
2, 55800, Note_on_c, 0, 36, 55
2, 55800, Note_on_c, 0, 48, 54
2, 55859, Note_on_c, 0, 52, 43
2, 55889, Note_on_c, 0, 48, 0
2, 55889, Note_on_c, 0, 36, 0
2, 55914, Note_on_c, 0, 52, 0
2, 55920, Note_on_c, 0, 55, 51
2, 55974, Note_on_c, 0, 55, 0
2, 55980, Note_on_c, 0, 59, 81
2, 55980, Note_on_c, 0, 43, 42
2, 56034, Note_on_c, 0, 59, 0
2, 56039, Note_on_c, 0, 64, 57
2, 56069, Note_on_c, 0, 43, 0
2, 56094, Note_on_c, 0, 64, 0
2, 56160, Note_on_c, 0, 30, 70
2, 56160, Note_on_c, 0, 42, 71
2, 56219, Note_on_c, 0, 49, 42
2, 56274, Note_on_c, 0, 49, 0
2, 56280, Note_on_c, 0, 54, 52
2, 56323, Note_on_c, 0, 42, 0
2, 56323, Note_on_c, 0, 30, 0
2, 56334, Note_on_c, 0, 54, 0
2, 56340, Note_on_c, 0, 55, 76
2, 56340, Note_on_c, 0, 41, 45
2, 56394, Note_on_c, 0, 55, 0
2, 56399, Note_on_c, 0, 59, 55
2, 56429, Note_on_c, 0, 41, 0
2, 56454, Note_on_c, 0, 59, 0
2, 56460, Note_on_c, 0, 49, 36
2, 56514, Note_on_c, 0, 49, 0
2, 56520, Note_on_c, 0, 30, 77
2, 56520, Note_on_c, 0, 42, 78
2, 56579, Note_on_c, 0, 49, 43
2, 56634, Note_on_c, 0, 49, 0
2, 56640, Note_on_c, 0, 54, 53
2, 56683, Note_on_c, 0, 42, 0
2, 56683, Note_on_c, 0, 30, 0
2, 56694, Note_on_c, 0, 54, 0
2, 56700, Note_on_c, 0, 57, 81
2, 56700, Note_on_c, 0, 39, 44
2, 56754, Note_on_c, 0, 57, 0
2, 56759, Note_on_c, 0, 60, 53
2, 56789, Note_on_c, 0, 39, 0
2, 56814, Note_on_c, 0, 60, 0
2, 56820, Note_on_c, 0, 49, 34
2, 56874, Note_on_c, 0, 49, 0
2, 56880, Note_on_c, 0, 30, 81
2, 56880, Note_on_c, 0, 42, 81
2, 56939, Note_on_c, 0, 49, 45
2, 56994, Note_on_c, 0, 49, 0
2, 57000, Note_on_c, 0, 54, 54
2, 57043, Note_on_c, 0, 42, 0
2, 57043, Note_on_c, 0, 30, 0
2, 57054, Note_on_c, 0, 54, 0
2, 57060, Note_on_c, 0, 58, 83
2, 57060, Note_on_c, 0, 38, 42
2, 57114, Note_on_c, 0, 58, 0
2, 57119, Note_on_c, 0, 61, 55
2, 57149, Note_on_c, 0, 38, 0
2, 57174, Note_on_c, 0, 61, 0
2, 57180, Note_on_c, 0, 49, 36
2, 57234, Note_on_c, 0, 49, 0
2, 57240, Note_on_c, 0, 30, 81
2, 57240, Note_on_c, 0, 42, 81
2, 57299, Note_on_c, 0, 49, 42
2, 57354, Note_on_c, 0, 49, 0
2, 57360, Note_on_c, 0, 54, 54
2, 57403, Note_on_c, 0, 42, 0
2, 57403, Note_on_c, 0, 30, 0
2, 57414, Note_on_c, 0, 54, 0
2, 57420, Note_on_c, 0, 58, 83
2, 57420, Note_on_c, 0, 37, 42
2, 57474, Note_on_c, 0, 58, 0
2, 57479, Note_on_c, 0, 63, 54
2, 57509, Note_on_c, 0, 37, 0
2, 57534, Note_on_c, 0, 63, 0
2, 57540, Note_on_c, 0, 49, 38
2, 57594, Note_on_c, 0, 49, 0
2, 57600, Note_on_c, 0, 30, 83
2, 57600, Note_on_c, 0, 42, 84
2, 57659, Note_on_c, 0, 49, 44
2, 57714, Note_on_c, 0, 49, 0
2, 57720, Note_on_c, 0, 54, 55
2, 57763, Note_on_c, 0, 42, 0
2, 57763, Note_on_c, 0, 30, 0
2, 57774, Note_on_c, 0, 54, 0
2, 57780, Note_on_c, 0, 58, 54
2, 57780, Note_on_c, 0, 36, 39
2, 57834, Note_on_c, 0, 58, 0
2, 57839, Note_on_c, 0, 63, 57
2, 57869, Note_on_c, 0, 36, 0
2, 57894, Note_on_c, 0, 63, 0
2, 57900, Note_on_c, 0, 48, 37
2, 57954, Note_on_c, 0, 48, 0
2, 57960, Note_on_c, 0, 30, 83
2, 57960, Note_on_c, 0, 42, 84
2, 58019, Note_on_c, 0, 49, 44
2, 58074, Note_on_c, 0, 49, 0
2, 58080, Note_on_c, 0, 54, 51
2, 58123, Note_on_c, 0, 42, 0
2, 58123, Note_on_c, 0, 30, 0
2, 58134, Note_on_c, 0, 54, 0
2, 58140, Note_on_c, 0, 58, 54
2, 58140, Note_on_c, 0, 36, 43
2, 58194, Note_on_c, 0, 58, 0
2, 58199, Note_on_c, 0, 63, 56
2, 58229, Note_on_c, 0, 36, 0
2, 58254, Note_on_c, 0, 63, 0
2, 58260, Note_on_c, 0, 48, 37
2, 58314, Note_on_c, 0, 48, 0
2, 58320, Note_on_c, 0, 37, 40
2, 58374, Note_on_c, 0, 37, 0
2, 58379, Note_on_c, 0, 49, 32
2, 58379, Note_on_c, 0, 42, 38
2, 58434, Note_on_c, 0, 42, 0
2, 58434, Note_on_c, 0, 49, 0
2, 58440, Note_on_c, 0, 54, 40
2, 58440, Note_on_c, 0, 37, 32
2, 58494, Note_on_c, 0, 37, 0
2, 58494, Note_on_c, 0, 54, 0
2, 58500, Note_on_c, 0, 58, 38
2, 58500, Note_on_c, 0, 36, 33
2, 58554, Note_on_c, 0, 36, 0
2, 58554, Note_on_c, 0, 58, 0
2, 58559, Note_on_c, 0, 64, 46
2, 58559, Note_on_c, 0, 29, 26
2, 58614, Note_on_c, 0, 29, 0
2, 58614, Note_on_c, 0, 64, 0
2, 58620, Note_on_c, 0, 48, 33
2, 58620, Note_on_c, 0, 36, 41
2, 58674, Note_on_c, 0, 36, 0
2, 58674, Note_on_c, 0, 48, 0
2, 58680, Note_on_c, 0, 37, 39
2, 58734, Note_on_c, 0, 37, 0
2, 58739, Note_on_c, 0, 49, 46
2, 58739, Note_on_c, 0, 42, 53
2, 58794, Note_on_c, 0, 42, 0
2, 58794, Note_on_c, 0, 49, 0
2, 58800, Note_on_c, 0, 54, 64
2, 58800, Note_on_c, 0, 37, 52
2, 58854, Note_on_c, 0, 37, 0
2, 58854, Note_on_c, 0, 54, 0
2, 58860, Note_on_c, 0, 58, 68
2, 58860, Note_on_c, 0, 36, 65
2, 58914, Note_on_c, 0, 36, 0
2, 58914, Note_on_c, 0, 58, 0
2, 58919, Note_on_c, 0, 64, 79
2, 58919, Note_on_c, 0, 29, 64
2, 58974, Note_on_c, 0, 29, 0
2, 58974, Note_on_c, 0, 64, 0
2, 58980, Note_on_c, 0, 48, 56
2, 58980, Note_on_c, 0, 36, 104
2, 59034, Note_on_c, 0, 36, 0
2, 59034, Note_on_c, 0, 48, 0
2, 59040, Note_on_c, 0, 37, 115
2, 59094, Note_on_c, 0, 37, 0
2, 59099, Note_on_c, 0, 49, 74
2, 59099, Note_on_c, 0, 42, 127
2, 59154, Note_on_c, 0, 42, 0
2, 59154, Note_on_c, 0, 49, 0
2, 59160, Note_on_c, 0, 54, 95
2, 59160, Note_on_c, 0, 37, 113
2, 59214, Note_on_c, 0, 37, 0
2, 59214, Note_on_c, 0, 54, 0
2, 59220, Note_on_c, 0, 58, 99
2, 59220, Note_on_c, 0, 36, 117
2, 59274, Note_on_c, 0, 36, 0
2, 59274, Note_on_c, 0, 58, 0
2, 59279, Note_on_c, 0, 64, 114
2, 59279, Note_on_c, 0, 29, 104
2, 59334, Note_on_c, 0, 29, 0
2, 59334, Note_on_c, 0, 64, 0
2, 59340, Note_on_c, 0, 48, 76
2, 59340, Note_on_c, 0, 36, 127
2, 59394, Note_on_c, 0, 36, 0
2, 59394, Note_on_c, 0, 48, 0
2, 59400, Note_on_c, 0, 37, 127
2, 59454, Note_on_c, 0, 37, 0
2, 59459, Note_on_c, 0, 49, 97
2, 59459, Note_on_c, 0, 42, 127
2, 59514, Note_on_c, 0, 42, 0
2, 59514, Note_on_c, 0, 49, 0
2, 59520, Note_on_c, 0, 54, 126
2, 59520, Note_on_c, 0, 37, 113
2, 59574, Note_on_c, 0, 37, 0
2, 59574, Note_on_c, 0, 54, 0
2, 59580, Note_on_c, 0, 58, 127
2, 59580, Note_on_c, 0, 36, 116
2, 59634, Note_on_c, 0, 36, 0
2, 59634, Note_on_c, 0, 58, 0
2, 59639, Note_on_c, 0, 64, 125
2, 59639, Note_on_c, 0, 29, 102
2, 59694, Note_on_c, 0, 29, 0
2, 59694, Note_on_c, 0, 64, 0
2, 59700, Note_on_c, 0, 48, 93
2, 59754, Note_on_c, 0, 48, 0
2, 59760, Note_on_c, 0, 54, 127
2, 59760, Note_on_c, 0, 58, 127
2, 59760, Note_on_c, 0, 64, 127
2, 59940, Note_on_c, 0, 36, 112
2, 59940, Note_on_c, 0, 48, 112
2, 60029, Note_on_c, 0, 48, 0
2, 60029, Note_on_c, 0, 36, 0
2, 60120, Note_on_c, 0, 28, 94
2, 60120, Note_on_c, 0, 40, 94
2, 60209, Note_on_c, 0, 40, 0
2, 60209, Note_on_c, 0, 28, 0
2, 60300, Note_on_c, 0, 36, 122
2, 60300, Note_on_c, 0, 48, 119
2, 60389, Note_on_c, 0, 48, 0
2, 60389, Note_on_c, 0, 36, 0
2, 60410, Note_on_c, 0, 54, 0
2, 60410, Note_on_c, 0, 58, 0
2, 60410, Note_on_c, 0, 64, 0
2, 60480, Note_on_c, 0, 27, 96
2, 60480, Note_on_c, 0, 39, 95
2, 60643, Note_on_c, 0, 39, 0
2, 60643, Note_on_c, 0, 27, 0
2, 60660, Note_on_c, 0, 36, 95
2, 60660, Note_on_c, 0, 48, 97
2, 60749, Note_on_c, 0, 48, 0
2, 60749, Note_on_c, 0, 36, 0
2, 60840, Note_on_c, 0, 26, 60
2, 60840, Note_on_c, 0, 38, 57
2, 60885, Note_on_c, 0, 38, 0
2, 60885, Note_on_c, 0, 26, 0
2, 60930, Note_on_c, 0, 25, 60
2, 60930, Note_on_c, 0, 37, 61
2, 60975, Note_on_c, 0, 37, 0
2, 60975, Note_on_c, 0, 25, 0
2, 61020, Note_on_c, 0, 24, 54
2, 61020, Note_on_c, 0, 36, 54
2, 61109, Note_on_c, 0, 36, 0
2, 61109, Note_on_c, 0, 24, 0
2, 61200, Note_on_c, 0, 56, 45
2, 61200, Note_on_c, 0, 29, 86
2, 61200, Note_on_c, 0, 41, 84
2, 61254, Note_on_c, 0, 56, 0
2, 61259, Note_on_c, 0, 48, 39
2, 61314, Note_on_c, 0, 48, 0
2, 61320, Note_on_c, 0, 60, 58
2, 61363, Note_on_c, 0, 41, 0
2, 61363, Note_on_c, 0, 29, 0
2, 61374, Note_on_c, 0, 60, 0
2, 61380, Note_on_c, 0, 61, 51
2, 61380, Note_on_c, 0, 36, 57
2, 61380, Note_on_c, 0, 48, 56
2, 61434, Note_on_c, 0, 61, 0
2, 61439, Note_on_c, 0, 56, 41
2, 61469, Note_on_c, 0, 48, 0
2, 61469, Note_on_c, 0, 36, 0
2, 61494, Note_on_c, 0, 56, 0
2, 61500, Note_on_c, 0, 68, 61
2, 61554, Note_on_c, 0, 68, 0
2, 61560, Note_on_c, 0, 62, 47
2, 61560, Note_on_c, 0, 28, 65
2, 61560, Note_on_c, 0, 40, 64
2, 61614, Note_on_c, 0, 62, 0
2, 61619, Note_on_c, 0, 60, 43
2, 61674, Note_on_c, 0, 60, 0
2, 61680, Note_on_c, 0, 72, 62
2, 61723, Note_on_c, 0, 40, 0
2, 61723, Note_on_c, 0, 28, 0
2, 61734, Note_on_c, 0, 72, 0
2, 61740, Note_on_c, 0, 68, 46
2, 61740, Note_on_c, 0, 36, 54
2, 61740, Note_on_c, 0, 48, 54
2, 61794, Note_on_c, 0, 68, 0
2, 61799, Note_on_c, 0, 63, 42
2, 61829, Note_on_c, 0, 48, 0
2, 61829, Note_on_c, 0, 36, 0
2, 61854, Note_on_c, 0, 63, 0
2, 61860, Note_on_c, 0, 75, 59
2, 61914, Note_on_c, 0, 75, 0
2, 61920, Note_on_c, 0, 62, 39
2, 61920, Note_on_c, 0, 27, 62
2, 61920, Note_on_c, 0, 39, 64
2, 61974, Note_on_c, 0, 62, 0
2, 61979, Note_on_c, 0, 60, 44
2, 62034, Note_on_c, 0, 60, 0
2, 62040, Note_on_c, 0, 72, 60
2, 62083, Note_on_c, 0, 39, 0
2, 62083, Note_on_c, 0, 27, 0
2, 62094, Note_on_c, 0, 72, 0
2, 62100, Note_on_c, 0, 63, 40
2, 62100, Note_on_c, 0, 36, 57
2, 62100, Note_on_c, 0, 48, 57
2, 62154, Note_on_c, 0, 63, 0
2, 62159, Note_on_c, 0, 56, 36
2, 62189, Note_on_c, 0, 48, 0
2, 62189, Note_on_c, 0, 36, 0
2, 62214, Note_on_c, 0, 56, 0
2, 62220, Note_on_c, 0, 68, 57
2, 62274, Note_on_c, 0, 68, 0
2, 62280, Note_on_c, 0, 59, 40
2, 62280, Note_on_c, 0, 26, 61
2, 62280, Note_on_c, 0, 38, 63
2, 62334, Note_on_c, 0, 59, 0
2, 62339, Note_on_c, 0, 56, 40
2, 62362, Note_on_c, 0, 38, 0
2, 62362, Note_on_c, 0, 26, 0
2, 62370, Note_on_c, 0, 25, 66
2, 62370, Note_on_c, 0, 37, 67
2, 62394, Note_on_c, 0, 56, 0
2, 62400, Note_on_c, 0, 62, 53
2, 62452, Note_on_c, 0, 37, 0
2, 62452, Note_on_c, 0, 25, 0
2, 62454, Note_on_c, 0, 62, 0
2, 62460, Note_on_c, 0, 60, 46
2, 62460, Note_on_c, 0, 24, 68
2, 62460, Note_on_c, 0, 36, 69
2, 62514, Note_on_c, 0, 60, 0
2, 62519, Note_on_c, 0, 55, 40
2, 62574, Note_on_c, 0, 55, 0
2, 62580, Note_on_c, 0, 63, 55
2, 62623, Note_on_c, 0, 36, 0
2, 62623, Note_on_c, 0, 24, 0
2, 62634, Note_on_c, 0, 63, 0
2, 62640, Note_on_c, 0, 56, 44
2, 62640, Note_on_c, 0, 29, 86
2, 62640, Note_on_c, 0, 41, 85
2, 62694, Note_on_c, 0, 56, 0
2, 62699, Note_on_c, 0, 48, 36
2, 62754, Note_on_c, 0, 48, 0
2, 62760, Note_on_c, 0, 60, 61
2, 62803, Note_on_c, 0, 41, 0
2, 62803, Note_on_c, 0, 29, 0
2, 62814, Note_on_c, 0, 60, 0
2, 62820, Note_on_c, 0, 61, 51
2, 62820, Note_on_c, 0, 36, 57
2, 62820, Note_on_c, 0, 48, 57
2, 62874, Note_on_c, 0, 61, 0
2, 62879, Note_on_c, 0, 56, 41
2, 62909, Note_on_c, 0, 48, 0
2, 62909, Note_on_c, 0, 36, 0
2, 62934, Note_on_c, 0, 56, 0
2, 62940, Note_on_c, 0, 68, 62
2, 62994, Note_on_c, 0, 68, 0
2, 63000, Note_on_c, 0, 62, 47
2, 63000, Note_on_c, 0, 28, 62
2, 63000, Note_on_c, 0, 40, 64
2, 63054, Note_on_c, 0, 62, 0
2, 63059, Note_on_c, 0, 60, 45
2, 63114, Note_on_c, 0, 60, 0
2, 63120, Note_on_c, 0, 72, 61
2, 63163, Note_on_c, 0, 40, 0
2, 63163, Note_on_c, 0, 28, 0
2, 63174, Note_on_c, 0, 72, 0
2, 63180, Note_on_c, 0, 68, 45
2, 63180, Note_on_c, 0, 36, 58
2, 63180, Note_on_c, 0, 48, 54
2, 63234, Note_on_c, 0, 68, 0
2, 63239, Note_on_c, 0, 63, 42
2, 63269, Note_on_c, 0, 48, 0
2, 63269, Note_on_c, 0, 36, 0
2, 63294, Note_on_c, 0, 63, 0
2, 63300, Note_on_c, 0, 75, 60
2, 63354, Note_on_c, 0, 75, 0
2, 63360, Note_on_c, 0, 62, 38
2, 63360, Note_on_c, 0, 27, 63
2, 63360, Note_on_c, 0, 39, 62
2, 63414, Note_on_c, 0, 62, 0
2, 63419, Note_on_c, 0, 60, 44
2, 63474, Note_on_c, 0, 60, 0
2, 63480, Note_on_c, 0, 72, 58
2, 63523, Note_on_c, 0, 39, 0
2, 63523, Note_on_c, 0, 27, 0
2, 63534, Note_on_c, 0, 72, 0
2, 63540, Note_on_c, 0, 63, 40
2, 63540, Note_on_c, 0, 36, 58
2, 63540, Note_on_c, 0, 48, 58
2, 63594, Note_on_c, 0, 63, 0
2, 63599, Note_on_c, 0, 56, 37
2, 63629, Note_on_c, 0, 48, 0
2, 63629, Note_on_c, 0, 36, 0
2, 63654, Note_on_c, 0, 56, 0
2, 63660, Note_on_c, 0, 68, 60
2, 63714, Note_on_c, 0, 68, 0
2, 63720, Note_on_c, 0, 59, 42
2, 63720, Note_on_c, 0, 26, 62
2, 63720, Note_on_c, 0, 38, 60
2, 63774, Note_on_c, 0, 59, 0
2, 63779, Note_on_c, 0, 56, 41
2, 63802, Note_on_c, 0, 38, 0
2, 63802, Note_on_c, 0, 26, 0
2, 63810, Note_on_c, 0, 25, 66
2, 63810, Note_on_c, 0, 37, 66
2, 63834, Note_on_c, 0, 56, 0
2, 63840, Note_on_c, 0, 62, 52
2, 63892, Note_on_c, 0, 37, 0
2, 63892, Note_on_c, 0, 25, 0
2, 63894, Note_on_c, 0, 62, 0
2, 63900, Note_on_c, 0, 60, 47
2, 63900, Note_on_c, 0, 24, 69
2, 63900, Note_on_c, 0, 36, 68
2, 63954, Note_on_c, 0, 60, 0
2, 63959, Note_on_c, 0, 55, 43
2, 64014, Note_on_c, 0, 55, 0
2, 64020, Note_on_c, 0, 63, 56
2, 64063, Note_on_c, 0, 36, 0
2, 64063, Note_on_c, 0, 24, 0
2, 64074, Note_on_c, 0, 63, 0
2, 64080, Note_on_c, 0, 56, 43
2, 64080, Note_on_c, 0, 29, 59
2, 64080, Note_on_c, 0, 41, 57
2, 64134, Note_on_c, 0, 56, 0
2, 64139, Note_on_c, 0, 48, 38
2, 64194, Note_on_c, 0, 48, 0
2, 64200, Note_on_c, 0, 60, 61
2, 64243, Note_on_c, 0, 41, 0
2, 64243, Note_on_c, 0, 29, 0
2, 64254, Note_on_c, 0, 60, 0
2, 64260, Note_on_c, 0, 61, 53
2, 64260, Note_on_c, 0, 36, 65
2, 64260, Note_on_c, 0, 48, 66
2, 64314, Note_on_c, 0, 61, 0
2, 64319, Note_on_c, 0, 56, 42
2, 64374, Note_on_c, 0, 56, 0
2, 64380, Note_on_c, 0, 68, 60
2, 64434, Note_on_c, 0, 68, 0
2, 64440, Note_on_c, 0, 62, 46
2, 64494, Note_on_c, 0, 62, 0
2, 64499, Note_on_c, 0, 60, 44
2, 64554, Note_on_c, 0, 60, 0
2, 64560, Note_on_c, 0, 72, 61
2, 64614, Note_on_c, 0, 72, 0
2, 64620, Note_on_c, 0, 48, 0
2, 64620, Note_on_c, 0, 36, 0
2, 64620, Note_on_c, 0, 68, 45
2, 64620, Note_on_c, 0, 48, 63
2, 64620, Note_on_c, 0, 60, 62
2, 64674, Note_on_c, 0, 68, 0
2, 64679, Note_on_c, 0, 63, 39
2, 64734, Note_on_c, 0, 63, 0
2, 64740, Note_on_c, 0, 75, 61
2, 64783, Note_on_c, 0, 60, 0
2, 64783, Note_on_c, 0, 48, 0
2, 64794, Note_on_c, 0, 75, 0
2, 64800, Note_on_c, 0, 32, 40
2, 64800, Note_on_c, 0, 44, 41
2, 64920, Note_on_c, 0, 60, 43
2, 64963, Note_on_c, 0, 44, 0
2, 64963, Note_on_c, 0, 32, 0
2, 64974, Note_on_c, 0, 60, 0
2, 64980, Note_on_c, 0, 65, 52
2, 64980, Note_on_c, 0, 39, 61
2, 64980, Note_on_c, 0, 51, 60
2, 65034, Note_on_c, 0, 65, 0
2, 65039, Note_on_c, 0, 60, 42
2, 65094, Note_on_c, 0, 60, 0
2, 65100, Note_on_c, 0, 72, 59
2, 65154, Note_on_c, 0, 72, 0
2, 65160, Note_on_c, 0, 66, 45
2, 65214, Note_on_c, 0, 66, 0
2, 65219, Note_on_c, 0, 62, 43
2, 65274, Note_on_c, 0, 62, 0
2, 65280, Note_on_c, 0, 74, 59
2, 65334, Note_on_c, 0, 74, 0
2, 65340, Note_on_c, 0, 51, 0
2, 65340, Note_on_c, 0, 39, 0
2, 65340, Note_on_c, 0, 72, 47
2, 65340, Note_on_c, 0, 51, 63
2, 65340, Note_on_c, 0, 63, 61
2, 65394, Note_on_c, 0, 72, 0
2, 65399, Note_on_c, 0, 67, 40
2, 65454, Note_on_c, 0, 67, 0
2, 65460, Note_on_c, 0, 79, 59
2, 65503, Note_on_c, 0, 63, 0
2, 65503, Note_on_c, 0, 51, 0
2, 65514, Note_on_c, 0, 79, 0
2, 65520, Note_on_c, 0, 36, 40
2, 65520, Note_on_c, 0, 48, 42
2, 65640, Note_on_c, 0, 63, 43
2, 65683, Note_on_c, 0, 48, 0
2, 65683, Note_on_c, 0, 36, 0
2, 65694, Note_on_c, 0, 63, 0
2, 65700, Note_on_c, 0, 60, 49
2, 65700, Note_on_c, 0, 44, 61
2, 65700, Note_on_c, 0, 56, 64
2, 65754, Note_on_c, 0, 60, 0
2, 65759, Note_on_c, 0, 66, 67
2, 65814, Note_on_c, 0, 66, 0
2, 65820, Note_on_c, 0, 72, 73
2, 65874, Note_on_c, 0, 72, 0
2, 65880, Note_on_c, 0, 67, 65
2, 65934, Note_on_c, 0, 67, 0
2, 65939, Note_on_c, 0, 63, 62
2, 65994, Note_on_c, 0, 63, 0
2, 66000, Note_on_c, 0, 74, 97
2, 66054, Note_on_c, 0, 74, 0
2, 66060, Note_on_c, 0, 56, 0
2, 66060, Note_on_c, 0, 44, 0
2, 66060, Note_on_c, 0, 63, 67
2, 66060, Note_on_c, 0, 45, 73
2, 66060, Note_on_c, 0, 57, 73
2, 66114, Note_on_c, 0, 63, 0
2, 66119, Note_on_c, 0, 71, 101
2, 66174, Note_on_c, 0, 71, 0
2, 66180, Note_on_c, 0, 75, 106
2, 66223, Note_on_c, 0, 57, 0
2, 66223, Note_on_c, 0, 45, 0
2, 66234, Note_on_c, 0, 75, 0
2, 66240, Note_on_c, 0, 67, 84
2, 66240, Note_on_c, 0, 39, 73
2, 66240, Note_on_c, 0, 51, 71
2, 66294, Note_on_c, 0, 67, 0
2, 66299, Note_on_c, 0, 74, 121
2, 66354, Note_on_c, 0, 74, 0
2, 66360, Note_on_c, 0, 79, 126
2, 66403, Note_on_c, 0, 51, 0
2, 66403, Note_on_c, 0, 39, 0
2, 66414, Note_on_c, 0, 79, 0
2, 66420, Note_on_c, 0, 75, 106
2, 66420, Note_on_c, 0, 47, 106
2, 66420, Note_on_c, 0, 59, 107
2, 66474, Note_on_c, 0, 75, 0
2, 66479, Note_on_c, 0, 68, 94
2, 66534, Note_on_c, 0, 68, 0
2, 66540, Note_on_c, 0, 80, 127
2, 66583, Note_on_c, 0, 59, 0
2, 66583, Note_on_c, 0, 47, 0
2, 66594, Note_on_c, 0, 80, 0
2, 66600, Note_on_c, 0, 71, 82
2, 66600, Note_on_c, 0, 50, 118
2, 66600, Note_on_c, 0, 62, 119
2, 66654, Note_on_c, 0, 71, 0
2, 66659, Note_on_c, 0, 66, 79
2, 66714, Note_on_c, 0, 66, 0
2, 66720, Note_on_c, 0, 78, 121
2, 66763, Note_on_c, 0, 62, 0
2, 66763, Note_on_c, 0, 50, 0
2, 66774, Note_on_c, 0, 78, 0
2, 66780, Note_on_c, 0, 72, 83
2, 66780, Note_on_c, 0, 45, 89
2, 66780, Note_on_c, 0, 57, 90
2, 66834, Note_on_c, 0, 72, 0
2, 66839, Note_on_c, 0, 67, 79
2, 66894, Note_on_c, 0, 67, 0
2, 66900, Note_on_c, 0, 79, 120
2, 66943, Note_on_c, 0, 57, 0
2, 66943, Note_on_c, 0, 45, 0
2, 66954, Note_on_c, 0, 79, 0
2, 66960, Note_on_c, 0, 66, 76
2, 66960, Note_on_c, 0, 47, 111
2, 66960, Note_on_c, 0, 59, 113
2, 67014, Note_on_c, 0, 66, 0
2, 67019, Note_on_c, 0, 62, 83
2, 67074, Note_on_c, 0, 62, 0
2, 67080, Note_on_c, 0, 74, 121
2, 67123, Note_on_c, 0, 59, 0
2, 67123, Note_on_c, 0, 47, 0
2, 67134, Note_on_c, 0, 74, 0
2, 67140, Note_on_c, 0, 71, 93
2, 67140, Note_on_c, 0, 43, 91
2, 67140, Note_on_c, 0, 55, 94
2, 67194, Note_on_c, 0, 71, 0
2, 67199, Note_on_c, 0, 63, 77
2, 67254, Note_on_c, 0, 63, 0
2, 67260, Note_on_c, 0, 75, 121
2, 67303, Note_on_c, 0, 55, 0
2, 67303, Note_on_c, 0, 43, 0
2, 67314, Note_on_c, 0, 75, 0
2, 67320, Note_on_c, 0, 59, 76
2, 67320, Note_on_c, 0, 44, 110
2, 67320, Note_on_c, 0, 56, 110
2, 67374, Note_on_c, 0, 59, 0
2, 67379, Note_on_c, 0, 63, 98
2, 67434, Note_on_c, 0, 63, 0
2, 67440, Note_on_c, 0, 71, 104
2, 67483, Note_on_c, 0, 56, 0
2, 67483, Note_on_c, 0, 44, 0
2, 67494, Note_on_c, 0, 71, 0
2, 67500, Note_on_c, 0, 68, 79
2, 67500, Note_on_c, 0, 39, 80
2, 67500, Note_on_c, 0, 51, 81
2, 67554, Note_on_c, 0, 68, 0
2, 67559, Note_on_c, 0, 60, 63
2, 67614, Note_on_c, 0, 60, 0
2, 67620, Note_on_c, 0, 72, 91
2, 67674, Note_on_c, 0, 72, 0
2, 67680, Note_on_c, 0, 60, 56
2, 67734, Note_on_c, 0, 60, 0
2, 67739, Note_on_c, 0, 55, 55
2, 67794, Note_on_c, 0, 55, 0
2, 67800, Note_on_c, 0, 67, 77
2, 67843, Note_on_c, 0, 51, 0
2, 67843, Note_on_c, 0, 39, 0
2, 67854, Note_on_c, 0, 67, 0
2, 67860, Note_on_c, 0, 56, 43
2, 67860, Note_on_c, 0, 35, 65
2, 67860, Note_on_c, 0, 47, 65
2, 67914, Note_on_c, 0, 56, 0
2, 67919, Note_on_c, 0, 64, 59
2, 67974, Note_on_c, 0, 64, 0
2, 67980, Note_on_c, 0, 68, 54
2, 68023, Note_on_c, 0, 47, 0
2, 68023, Note_on_c, 0, 35, 0
2, 68034, Note_on_c, 0, 68, 0
2, 68040, Note_on_c, 0, 59, 37
2, 68040, Note_on_c, 0, 32, 62
2, 68040, Note_on_c, 0, 44, 62
2, 68094, Note_on_c, 0, 59, 0
2, 68099, Note_on_c, 0, 51, 31
2, 68154, Note_on_c, 0, 51, 0
2, 68160, Note_on_c, 0, 63, 43
2, 68203, Note_on_c, 0, 44, 0
2, 68203, Note_on_c, 0, 32, 0
2, 68214, Note_on_c, 0, 63, 0
2, 68220, Note_on_c, 0, 55, 25
2, 68220, Note_on_c, 0, 31, 49
2, 68220, Note_on_c, 0, 43, 52
2, 68274, Note_on_c, 0, 55, 0
2, 68279, Note_on_c, 0, 53, 24
2, 68334, Note_on_c, 0, 53, 0
2, 68340, Note_on_c, 0, 59, 23
2, 68383, Note_on_c, 0, 43, 0
2, 68383, Note_on_c, 0, 31, 0
2, 68394, Note_on_c, 0, 59, 0
2, 68400, Note_on_c, 0, 56, 49
2, 68400, Note_on_c, 0, 29, 47
2, 68400, Note_on_c, 0, 41, 49
2, 68454, Note_on_c, 0, 56, 0
2, 68459, Note_on_c, 0, 48, 38
2, 68514, Note_on_c, 0, 48, 0
2, 68520, Note_on_c, 0, 60, 60
2, 68563, Note_on_c, 0, 41, 0
2, 68563, Note_on_c, 0, 29, 0
2, 68574, Note_on_c, 0, 60, 0
2, 68580, Note_on_c, 0, 61, 53
2, 68580, Note_on_c, 0, 36, 64
2, 68580, Note_on_c, 0, 48, 62
2, 68634, Note_on_c, 0, 61, 0
2, 68639, Note_on_c, 0, 56, 44
2, 68694, Note_on_c, 0, 56, 0
2, 68700, Note_on_c, 0, 68, 59
2, 68754, Note_on_c, 0, 68, 0
2, 68760, Note_on_c, 0, 62, 46
2, 68814, Note_on_c, 0, 62, 0
2, 68819, Note_on_c, 0, 60, 44
2, 68874, Note_on_c, 0, 60, 0
2, 68880, Note_on_c, 0, 72, 60
2, 68934, Note_on_c, 0, 72, 0
2, 68940, Note_on_c, 0, 48, 0
2, 68940, Note_on_c, 0, 36, 0
2, 68940, Note_on_c, 0, 68, 46
2, 68940, Note_on_c, 0, 48, 61
2, 68940, Note_on_c, 0, 60, 60
2, 68994, Note_on_c, 0, 68, 0
2, 68999, Note_on_c, 0, 63, 40
2, 69054, Note_on_c, 0, 63, 0
2, 69060, Note_on_c, 0, 75, 60
2, 69103, Note_on_c, 0, 60, 0
2, 69103, Note_on_c, 0, 48, 0
2, 69114, Note_on_c, 0, 75, 0
2, 69120, Note_on_c, 0, 62, 41
2, 69120, Note_on_c, 0, 42, 68
2, 69120, Note_on_c, 0, 54, 67
2, 69174, Note_on_c, 0, 62, 0
2, 69179, Note_on_c, 0, 60, 42
2, 69234, Note_on_c, 0, 60, 0
2, 69240, Note_on_c, 0, 72, 60
2, 69283, Note_on_c, 0, 54, 0
2, 69283, Note_on_c, 0, 42, 0
2, 69294, Note_on_c, 0, 72, 0
2, 69300, Note_on_c, 0, 63, 37
2, 69300, Note_on_c, 0, 35, 36
2, 69300, Note_on_c, 0, 47, 36
2, 69354, Note_on_c, 0, 63, 0
2, 69359, Note_on_c, 0, 56, 39
2, 69389, Note_on_c, 0, 47, 0
2, 69389, Note_on_c, 0, 35, 0
2, 69414, Note_on_c, 0, 56, 0
2, 69420, Note_on_c, 0, 68, 60
2, 69474, Note_on_c, 0, 68, 0
2, 69480, Note_on_c, 0, 59, 42
2, 69480, Note_on_c, 0, 30, 40
2, 69480, Note_on_c, 0, 42, 39
2, 69534, Note_on_c, 0, 59, 0
2, 69539, Note_on_c, 0, 56, 42
2, 69569, Note_on_c, 0, 42, 0
2, 69569, Note_on_c, 0, 30, 0
2, 69594, Note_on_c, 0, 56, 0
2, 69600, Note_on_c, 0, 62, 53
2, 69654, Note_on_c, 0, 62, 0
2, 69660, Note_on_c, 0, 60, 45
2, 69660, Note_on_c, 0, 24, 38
2, 69660, Note_on_c, 0, 36, 40
2, 69714, Note_on_c, 0, 60, 0
2, 69719, Note_on_c, 0, 55, 43
2, 69749, Note_on_c, 0, 36, 0
2, 69749, Note_on_c, 0, 24, 0
2, 69774, Note_on_c, 0, 55, 0
2, 69780, Note_on_c, 0, 63, 57
2, 69834, Note_on_c, 0, 63, 0
2, 69840, Note_on_c, 0, 56, 43
2, 69840, Note_on_c, 0, 29, 54
2, 69840, Note_on_c, 0, 41, 55
2, 69894, Note_on_c, 0, 56, 0
2, 69899, Note_on_c, 0, 48, 38
2, 69954, Note_on_c, 0, 48, 0
2, 69960, Note_on_c, 0, 60, 59
2, 70003, Note_on_c, 0, 41, 0
2, 70003, Note_on_c, 0, 29, 0
2, 70014, Note_on_c, 0, 60, 0
2, 70020, Note_on_c, 0, 61, 52
2, 70020, Note_on_c, 0, 36, 65
2, 70020, Note_on_c, 0, 48, 62
2, 70074, Note_on_c, 0, 61, 0
2, 70079, Note_on_c, 0, 56, 41
2, 70134, Note_on_c, 0, 56, 0
2, 70140, Note_on_c, 0, 68, 60
2, 70194, Note_on_c, 0, 68, 0
2, 70200, Note_on_c, 0, 62, 46
2, 70254, Note_on_c, 0, 62, 0
2, 70259, Note_on_c, 0, 60, 44
2, 70314, Note_on_c, 0, 60, 0
2, 70320, Note_on_c, 0, 72, 58
2, 70374, Note_on_c, 0, 72, 0
2, 70380, Note_on_c, 0, 48, 0
2, 70380, Note_on_c, 0, 36, 0
2, 70380, Note_on_c, 0, 68, 46
2, 70380, Note_on_c, 0, 48, 61
2, 70380, Note_on_c, 0, 60, 63
2, 70434, Note_on_c, 0, 68, 0
2, 70439, Note_on_c, 0, 63, 42
2, 70494, Note_on_c, 0, 63, 0
2, 70500, Note_on_c, 0, 75, 61
2, 70543, Note_on_c, 0, 60, 0
2, 70543, Note_on_c, 0, 48, 0
2, 70554, Note_on_c, 0, 75, 0
2, 70560, Note_on_c, 0, 62, 41
2, 70560, Note_on_c, 0, 42, 67
2, 70560, Note_on_c, 0, 54, 68
2, 70614, Note_on_c, 0, 62, 0
2, 70619, Note_on_c, 0, 60, 43
2, 70668, Note_on_c, 0, 54, 0
2, 70668, Note_on_c, 0, 42, 0
2, 70674, Note_on_c, 0, 60, 0
2, 70680, Note_on_c, 0, 72, 60
2, 70680, Note_on_c, 0, 39, 43
2, 70680, Note_on_c, 0, 51, 41
2, 70734, Note_on_c, 0, 72, 0
2, 70740, Note_on_c, 0, 63, 40
2, 70788, Note_on_c, 0, 51, 0
2, 70788, Note_on_c, 0, 39, 0
2, 70794, Note_on_c, 0, 63, 0
2, 70799, Note_on_c, 0, 56, 36
2, 70799, Note_on_c, 0, 35, 44
2, 70799, Note_on_c, 0, 47, 44
2, 70854, Note_on_c, 0, 56, 0
2, 70860, Note_on_c, 0, 68, 59
2, 70909, Note_on_c, 0, 47, 0
2, 70909, Note_on_c, 0, 35, 0
2, 70914, Note_on_c, 0, 68, 0
2, 70920, Note_on_c, 0, 59, 42
2, 70920, Note_on_c, 0, 30, 43
2, 70920, Note_on_c, 0, 42, 43
2, 70974, Note_on_c, 0, 59, 0
2, 70979, Note_on_c, 0, 56, 42
2, 71028, Note_on_c, 0, 42, 0
2, 71028, Note_on_c, 0, 30, 0
2, 71034, Note_on_c, 0, 56, 0
2, 71040, Note_on_c, 0, 62, 55
2, 71040, Note_on_c, 0, 27, 40
2, 71040, Note_on_c, 0, 39, 43
2, 71094, Note_on_c, 0, 62, 0
2, 71100, Note_on_c, 0, 60, 46
2, 71148, Note_on_c, 0, 39, 0
2, 71148, Note_on_c, 0, 27, 0
2, 71154, Note_on_c, 0, 60, 0
2, 71159, Note_on_c, 0, 55, 40
2, 71159, Note_on_c, 0, 24, 42
2, 71159, Note_on_c, 0, 36, 44
2, 71214, Note_on_c, 0, 55, 0
2, 71220, Note_on_c, 0, 63, 57
2, 71269, Note_on_c, 0, 36, 0
2, 71269, Note_on_c, 0, 24, 0
2, 71274, Note_on_c, 0, 63, 0
2, 71280, Note_on_c, 0, 56, 43
2, 71280, Note_on_c, 0, 29, 57
2, 71280, Note_on_c, 0, 41, 57
2, 71334, Note_on_c, 0, 56, 0
2, 71339, Note_on_c, 0, 48, 39
2, 71394, Note_on_c, 0, 48, 0
2, 71400, Note_on_c, 0, 60, 57
2, 71443, Note_on_c, 0, 41, 0
2, 71443, Note_on_c, 0, 29, 0
2, 71454, Note_on_c, 0, 60, 0
2, 71460, Note_on_c, 0, 61, 52
2, 71460, Note_on_c, 0, 48, 59
2, 71514, Note_on_c, 0, 61, 0
2, 71519, Note_on_c, 0, 56, 42
2, 71574, Note_on_c, 0, 56, 0
2, 71580, Note_on_c, 0, 68, 59
2, 71623, Note_on_c, 0, 48, 0
2, 71634, Note_on_c, 0, 68, 0
2, 71640, Note_on_c, 0, 62, 44
2, 71640, Note_on_c, 0, 56, 60
2, 71694, Note_on_c, 0, 62, 0
2, 71699, Note_on_c, 0, 60, 44
2, 71754, Note_on_c, 0, 60, 0
2, 71760, Note_on_c, 0, 72, 60
2, 71803, Note_on_c, 0, 56, 0
2, 71814, Note_on_c, 0, 72, 0
2, 71820, Note_on_c, 0, 70, 46
2, 71820, Note_on_c, 0, 30, 41
2, 71820, Note_on_c, 0, 42, 37
2, 71874, Note_on_c, 0, 70, 0
2, 71879, Note_on_c, 0, 63, 38
2, 71934, Note_on_c, 0, 63, 0
2, 71940, Note_on_c, 0, 75, 58
2, 71983, Note_on_c, 0, 42, 0
2, 71983, Note_on_c, 0, 30, 0
2, 71994, Note_on_c, 0, 75, 0
2, 72000, Note_on_c, 0, 71, 49
2, 72000, Note_on_c, 0, 48, 54
2, 72054, Note_on_c, 0, 71, 0
2, 72059, Note_on_c, 0, 64, 39
2, 72114, Note_on_c, 0, 64, 0
2, 72120, Note_on_c, 0, 76, 58
2, 72163, Note_on_c, 0, 48, 0
2, 72174, Note_on_c, 0, 76, 0
2, 72180, Note_on_c, 0, 76, 48
2, 72180, Note_on_c, 0, 58, 58
2, 72234, Note_on_c, 0, 76, 0
2, 72239, Note_on_c, 0, 72, 42
2, 72294, Note_on_c, 0, 72, 0
2, 72300, Note_on_c, 0, 84, 60
2, 72343, Note_on_c, 0, 58, 0
2, 72354, Note_on_c, 0, 84, 0
2, 72360, Note_on_c, 0, 32, 39
2, 72360, Note_on_c, 0, 44, 40
2, 72480, Note_on_c, 0, 60, 44
2, 72523, Note_on_c, 0, 44, 0
2, 72523, Note_on_c, 0, 32, 0
2, 72534, Note_on_c, 0, 60, 0
2, 72540, Note_on_c, 0, 65, 55
2, 72540, Note_on_c, 0, 51, 55
2, 72594, Note_on_c, 0, 65, 0
2, 72599, Note_on_c, 0, 60, 44
2, 72654, Note_on_c, 0, 60, 0
2, 72660, Note_on_c, 0, 72, 66
2, 72703, Note_on_c, 0, 51, 0
2, 72714, Note_on_c, 0, 72, 0
2, 72720, Note_on_c, 0, 66, 53
2, 72720, Note_on_c, 0, 60, 65
2, 72774, Note_on_c, 0, 66, 0
2, 72779, Note_on_c, 0, 63, 49
2, 72834, Note_on_c, 0, 63, 0
2, 72840, Note_on_c, 0, 75, 71
2, 72883, Note_on_c, 0, 60, 0
2, 72894, Note_on_c, 0, 75, 0
2, 72900, Note_on_c, 0, 73, 57
2, 72900, Note_on_c, 0, 33, 43
2, 72900, Note_on_c, 0, 45, 44
2, 72954, Note_on_c, 0, 73, 0
2, 72959, Note_on_c, 0, 65, 47
2, 73014, Note_on_c, 0, 65, 0
2, 73020, Note_on_c, 0, 77, 74
2, 73063, Note_on_c, 0, 45, 0
2, 73063, Note_on_c, 0, 33, 0
2, 73074, Note_on_c, 0, 77, 0
2, 73080, Note_on_c, 0, 75, 61
2, 73080, Note_on_c, 0, 54, 66
2, 73134, Note_on_c, 0, 75, 0
2, 73139, Note_on_c, 0, 72, 56
2, 73194, Note_on_c, 0, 72, 0
2, 73200, Note_on_c, 0, 84, 76
2, 73243, Note_on_c, 0, 54, 0
2, 73254, Note_on_c, 0, 84, 0
2, 73260, Note_on_c, 0, 77, 55
2, 73260, Note_on_c, 0, 63, 71
2, 73314, Note_on_c, 0, 77, 0
2, 73319, Note_on_c, 0, 73, 55
2, 73374, Note_on_c, 0, 73, 0
2, 73380, Note_on_c, 0, 85, 83
2, 73423, Note_on_c, 0, 63, 0
2, 73434, Note_on_c, 0, 85, 0
2, 73440, Note_on_c, 0, 34, 50
2, 73440, Note_on_c, 0, 46, 48
2, 73560, Note_on_c, 0, 61, 62
2, 73603, Note_on_c, 0, 46, 0
2, 73603, Note_on_c, 0, 34, 0
2, 73614, Note_on_c, 0, 61, 0
2, 73620, Note_on_c, 0, 66, 77
2, 73620, Note_on_c, 0, 53, 72
2, 73674, Note_on_c, 0, 66, 0
2, 73679, Note_on_c, 0, 61, 62
2, 73734, Note_on_c, 0, 61, 0
2, 73740, Note_on_c, 0, 73, 91
2, 73783, Note_on_c, 0, 53, 0
2, 73794, Note_on_c, 0, 73, 0
2, 73800, Note_on_c, 0, 67, 69
2, 73800, Note_on_c, 0, 61, 77
2, 73854, Note_on_c, 0, 67, 0
2, 73859, Note_on_c, 0, 65, 70
2, 73914, Note_on_c, 0, 65, 0
2, 73920, Note_on_c, 0, 77, 93
2, 73963, Note_on_c, 0, 61, 0
2, 73974, Note_on_c, 0, 77, 0
2, 73980, Note_on_c, 0, 68, 64
2, 73980, Note_on_c, 0, 35, 51
2, 73980, Note_on_c, 0, 47, 53
2, 74034, Note_on_c, 0, 68, 0
2, 74039, Note_on_c, 0, 62, 63
2, 74094, Note_on_c, 0, 62, 0
2, 74100, Note_on_c, 0, 74, 95
2, 74143, Note_on_c, 0, 47, 0
2, 74143, Note_on_c, 0, 35, 0
2, 74154, Note_on_c, 0, 74, 0
2, 74160, Note_on_c, 0, 76, 91
2, 74160, Note_on_c, 0, 55, 78
2, 74214, Note_on_c, 0, 76, 0
2, 74219, Note_on_c, 0, 67, 62
2, 74274, Note_on_c, 0, 67, 0
2, 74280, Note_on_c, 0, 79, 100
2, 74323, Note_on_c, 0, 55, 0
2, 74334, Note_on_c, 0, 79, 0
2, 74340, Note_on_c, 0, 80, 89
2, 74340, Note_on_c, 0, 65, 87
2, 74394, Note_on_c, 0, 80, 0
2, 74399, Note_on_c, 0, 74, 72
2, 74454, Note_on_c, 0, 74, 0
2, 74460, Note_on_c, 0, 86, 106
2, 74503, Note_on_c, 0, 65, 0
2, 74514, Note_on_c, 0, 86, 0
2, 74520, Note_on_c, 0, 36, 59
2, 74520, Note_on_c, 0, 48, 61
2, 74640, Note_on_c, 0, 65, 79
2, 74683, Note_on_c, 0, 48, 0
2, 74683, Note_on_c, 0, 36, 0
2, 74694, Note_on_c, 0, 65, 0
2, 74700, Note_on_c, 0, 71, 99
2, 74700, Note_on_c, 0, 56, 84
2, 74754, Note_on_c, 0, 71, 0
2, 74759, Note_on_c, 0, 65, 79
2, 74814, Note_on_c, 0, 65, 0
2, 74820, Note_on_c, 0, 77, 111
2, 74863, Note_on_c, 0, 56, 0
2, 74874, Note_on_c, 0, 77, 0
2, 74880, Note_on_c, 0, 72, 85
2, 74880, Note_on_c, 0, 68, 98
2, 74934, Note_on_c, 0, 72, 0
2, 74939, Note_on_c, 0, 65, 74
2, 74994, Note_on_c, 0, 65, 0
2, 75000, Note_on_c, 0, 77, 116
2, 75043, Note_on_c, 0, 68, 0
2, 75054, Note_on_c, 0, 77, 0
2, 75060, Note_on_c, 0, 76, 93
2, 75060, Note_on_c, 0, 37, 65
2, 75060, Note_on_c, 0, 49, 64
2, 75114, Note_on_c, 0, 76, 0
2, 75119, Note_on_c, 0, 67, 75
2, 75174, Note_on_c, 0, 67, 0
2, 75180, Note_on_c, 0, 79, 117
2, 75223, Note_on_c, 0, 49, 0
2, 75223, Note_on_c, 0, 37, 0
2, 75234, Note_on_c, 0, 79, 0
2, 75240, Note_on_c, 0, 77, 95
2, 75240, Note_on_c, 0, 59, 97
2, 75294, Note_on_c, 0, 77, 0
2, 75299, Note_on_c, 0, 68, 75
2, 75354, Note_on_c, 0, 68, 0
2, 75360, Note_on_c, 0, 80, 124
2, 75403, Note_on_c, 0, 59, 0
2, 75420, Note_on_c, 0, 71, 107
2, 75474, Note_on_c, 0, 80, 0
2, 75479, Note_on_c, 0, 77, 94
2, 75534, Note_on_c, 0, 77, 0
2, 75540, Note_on_c, 0, 89, 127
2, 75583, Note_on_c, 0, 71, 0
2, 75594, Note_on_c, 0, 89, 0
2, 75600, Note_on_c, 0, 38, 69
2, 75600, Note_on_c, 0, 50, 69
2, 75659, Note_on_c, 0, 65, 94
2, 75714, Note_on_c, 0, 65, 0
2, 75720, Note_on_c, 0, 68, 114
2, 75763, Note_on_c, 0, 50, 0
2, 75763, Note_on_c, 0, 38, 0
2, 75774, Note_on_c, 0, 68, 0
2, 75780, Note_on_c, 0, 77, 126
2, 75780, Note_on_c, 0, 44, 96
2, 75780, Note_on_c, 0, 56, 96
2, 75834, Note_on_c, 0, 77, 0
2, 75839, Note_on_c, 0, 68, 89
2, 75894, Note_on_c, 0, 68, 0
2, 75900, Note_on_c, 0, 80, 127
2, 75943, Note_on_c, 0, 56, 0
2, 75943, Note_on_c, 0, 44, 0
2, 75954, Note_on_c, 0, 80, 0
2, 75960, Note_on_c, 0, 68, 88
2, 75960, Note_on_c, 0, 59, 117
2, 75960, Note_on_c, 0, 71, 116
2, 76014, Note_on_c, 0, 68, 0
2, 76019, Note_on_c, 0, 76, 127
2, 76074, Note_on_c, 0, 76, 0
2, 76080, Note_on_c, 0, 80, 125
2, 76123, Note_on_c, 0, 71, 0
2, 76123, Note_on_c, 0, 59, 0
2, 76134, Note_on_c, 0, 80, 0
2, 76140, Note_on_c, 0, 75, 99
2, 76140, Note_on_c, 0, 53, 80
2, 76140, Note_on_c, 0, 65, 81
2, 76194, Note_on_c, 0, 75, 0
2, 76199, Note_on_c, 0, 71, 100
2, 76254, Note_on_c, 0, 71, 0
2, 76260, Note_on_c, 0, 83, 127
2, 76303, Note_on_c, 0, 65, 0
2, 76303, Note_on_c, 0, 53, 0
2, 76314, Note_on_c, 0, 83, 0
2, 76320, Note_on_c, 0, 73, 96
2, 76320, Note_on_c, 0, 47, 78
2, 76320, Note_on_c, 0, 59, 82
2, 76374, Note_on_c, 0, 73, 0
2, 76379, Note_on_c, 0, 80, 125
2, 76434, Note_on_c, 0, 80, 0
2, 76440, Note_on_c, 0, 85, 127
2, 76483, Note_on_c, 0, 59, 0
2, 76483, Note_on_c, 0, 47, 0
2, 76494, Note_on_c, 0, 85, 0
2, 76500, Note_on_c, 0, 83, 113
2, 76500, Note_on_c, 0, 44, 84
2, 76500, Note_on_c, 0, 56, 81
2, 76554, Note_on_c, 0, 83, 0
2, 76559, Note_on_c, 0, 74, 91
2, 76614, Note_on_c, 0, 74, 0
2, 76620, Note_on_c, 0, 86, 125
2, 76663, Note_on_c, 0, 56, 0
2, 76663, Note_on_c, 0, 44, 0
2, 76674, Note_on_c, 0, 86, 0
2, 76680, Note_on_c, 0, 89, 110
2, 76680, Note_on_c, 0, 35, 77
2, 76680, Note_on_c, 0, 47, 75
2, 76734, Note_on_c, 0, 89, 0
2, 76739, Note_on_c, 0, 80, 79
2, 76794, Note_on_c, 0, 80, 0
2, 76800, Note_on_c, 0, 92, 120
2, 76843, Note_on_c, 0, 47, 0
2, 76843, Note_on_c, 0, 35, 0
2, 76854, Note_on_c, 0, 92, 0
2, 76860, Note_on_c, 0, 88, 88
2, 76860, Note_on_c, 0, 25, 71
2, 76860, Note_on_c, 0, 37, 69
2, 76914, Note_on_c, 0, 88, 0
2, 76919, Note_on_c, 0, 79, 73
2, 76974, Note_on_c, 0, 79, 0
2, 76980, Note_on_c, 0, 91, 117
2, 77023, Note_on_c, 0, 37, 0
2, 77023, Note_on_c, 0, 25, 0
2, 77034, Note_on_c, 0, 91, 0
2, 77040, Note_on_c, 0, 85, 88
2, 77040, Note_on_c, 0, 26, 99
2, 77040, Note_on_c, 0, 38, 100
2, 77094, Note_on_c, 0, 85, 0
2, 77099, Note_on_c, 0, 76, 73
2, 77154, Note_on_c, 0, 76, 0
2, 77160, Note_on_c, 0, 88, 118
2, 77203, Note_on_c, 0, 38, 0
2, 77203, Note_on_c, 0, 26, 0
2, 77214, Note_on_c, 0, 88, 0
2, 77220, Note_on_c, 0, 83, 85
2, 77220, Note_on_c, 0, 32, 111
2, 77220, Note_on_c, 0, 44, 112
2, 77274, Note_on_c, 0, 83, 0
2, 77279, Note_on_c, 0, 74, 72
2, 77334, Note_on_c, 0, 74, 0
2, 77340, Note_on_c, 0, 86, 118
2, 77383, Note_on_c, 0, 44, 0
2, 77383, Note_on_c, 0, 32, 0
2, 77394, Note_on_c, 0, 86, 0
2, 77400, Note_on_c, 0, 79, 84
2, 77400, Note_on_c, 0, 40, 121
2, 77400, Note_on_c, 0, 52, 119
2, 77454, Note_on_c, 0, 79, 0
2, 77459, Note_on_c, 0, 70, 71
2, 77514, Note_on_c, 0, 70, 0
2, 77520, Note_on_c, 0, 85, 117
2, 77563, Note_on_c, 0, 52, 0
2, 77563, Note_on_c, 0, 40, 0
2, 77574, Note_on_c, 0, 85, 0
2, 77580, Note_on_c, 0, 74, 73
2, 77580, Note_on_c, 0, 41, 103
2, 77580, Note_on_c, 0, 53, 105
2, 77634, Note_on_c, 0, 74, 0
2, 77639, Note_on_c, 0, 68, 79
2, 77694, Note_on_c, 0, 68, 0
2, 77700, Note_on_c, 0, 80, 118
2, 77743, Note_on_c, 0, 53, 0
2, 77743, Note_on_c, 0, 41, 0
2, 77754, Note_on_c, 0, 80, 0
2, 77760, Note_on_c, 0, 68, 75
2, 77760, Note_on_c, 0, 59, 115
2, 77760, Note_on_c, 0, 43, 125
2, 77760, Note_on_c, 0, 51, 127
2, 77814, Note_on_c, 0, 68, 0
2, 77819, Note_on_c, 0, 74, 106
2, 77874, Note_on_c, 0, 74, 0
2, 77880, Note_on_c, 0, 80, 112
2, 77923, Note_on_c, 0, 59, 0
2, 77934, Note_on_c, 0, 80, 0
2, 77940, Note_on_c, 0, 75, 85
2, 77940, Note_on_c, 0, 60, 101
2, 77994, Note_on_c, 0, 75, 0
2, 77999, Note_on_c, 0, 67, 76
2, 78054, Note_on_c, 0, 67, 0
2, 78060, Note_on_c, 0, 79, 119
2, 78114, Note_on_c, 0, 79, 0
2, 78120, Note_on_c, 0, 74, 83
2, 78120, Note_on_c, 0, 77, 80
2, 78174, Note_on_c, 0, 77, 0
2, 78174, Note_on_c, 0, 74, 0
2, 78179, Note_on_c, 0, 67, 59
2, 78234, Note_on_c, 0, 67, 0
2, 78240, Note_on_c, 0, 79, 97
2, 78247, Note_on_c, 0, 51, 0
2, 78247, Note_on_c, 0, 43, 0
2, 78265, Note_on_c, 0, 60, 0
2, 78294, Note_on_c, 0, 79, 0
2, 78300, Note_on_c, 0, 72, 72
2, 78300, Note_on_c, 0, 75, 75
2, 78300, Note_on_c, 0, 31, 61
2, 78354, Note_on_c, 0, 75, 0
2, 78354, Note_on_c, 0, 72, 0
2, 78359, Note_on_c, 0, 67, 65
2, 78414, Note_on_c, 0, 67, 0
2, 78420, Note_on_c, 0, 79, 97
2, 78463, Note_on_c, 0, 31, 0
2, 78474, Note_on_c, 0, 79, 0
2, 78480, Note_on_c, 0, 71, 76
2, 78480, Note_on_c, 0, 75, 77
2, 78480, Note_on_c, 0, 49, 102
2, 78534, Note_on_c, 0, 75, 0
2, 78534, Note_on_c, 0, 71, 0
2, 78539, Note_on_c, 0, 67, 64
2, 78594, Note_on_c, 0, 67, 0
2, 78600, Note_on_c, 0, 79, 99
2, 78643, Note_on_c, 0, 49, 0
2, 78654, Note_on_c, 0, 79, 0
2, 78660, Note_on_c, 0, 70, 72
2, 78660, Note_on_c, 0, 74, 70
2, 78660, Note_on_c, 0, 50, 86
2, 78714, Note_on_c, 0, 74, 0
2, 78714, Note_on_c, 0, 70, 0
2, 78719, Note_on_c, 0, 66, 63
2, 78774, Note_on_c, 0, 66, 0
2, 78780, Note_on_c, 0, 78, 98
2, 78823, Note_on_c, 0, 50, 0
2, 78834, Note_on_c, 0, 78, 0
2, 78840, Note_on_c, 0, 69, 73
2, 78840, Note_on_c, 0, 73, 74
2, 78840, Note_on_c, 0, 53, 91
2, 78894, Note_on_c, 0, 73, 0
2, 78894, Note_on_c, 0, 69, 0
2, 78899, Note_on_c, 0, 65, 62
2, 78954, Note_on_c, 0, 65, 0
2, 78960, Note_on_c, 0, 77, 100
2, 79003, Note_on_c, 0, 53, 0
2, 79014, Note_on_c, 0, 77, 0
2, 79020, Note_on_c, 0, 68, 71
2, 79020, Note_on_c, 0, 71, 69
2, 79020, Note_on_c, 0, 56, 90
2, 79074, Note_on_c, 0, 71, 0
2, 79074, Note_on_c, 0, 68, 0
2, 79079, Note_on_c, 0, 64, 66
2, 79134, Note_on_c, 0, 64, 0
2, 79140, Note_on_c, 0, 76, 100
2, 79194, Note_on_c, 0, 76, 0
2, 79200, Note_on_c, 0, 68, 71
2, 79200, Note_on_c, 0, 59, 80
2, 79200, Note_on_c, 0, 51, 82
2, 79254, Note_on_c, 0, 68, 0
2, 79259, Note_on_c, 0, 63, 68
2, 79314, Note_on_c, 0, 63, 0
2, 79320, Note_on_c, 0, 75, 102
2, 79363, Note_on_c, 0, 59, 0
2, 79374, Note_on_c, 0, 75, 0
2, 79380, Note_on_c, 0, 67, 68
2, 79380, Note_on_c, 0, 55, 83
2, 79380, Note_on_c, 0, 60, 84
2, 79434, Note_on_c, 0, 67, 0
2, 79439, Note_on_c, 0, 63, 71
2, 79494, Note_on_c, 0, 63, 0
2, 79500, Note_on_c, 0, 75, 101
2, 79554, Note_on_c, 0, 75, 0
2, 79560, Note_on_c, 0, 74, 92
2, 79560, Note_on_c, 0, 77, 93
2, 79614, Note_on_c, 0, 77, 0
2, 79614, Note_on_c, 0, 74, 0
2, 79619, Note_on_c, 0, 67, 61
2, 79674, Note_on_c, 0, 67, 0
2, 79680, Note_on_c, 0, 79, 99
2, 79687, Note_on_c, 0, 51, 0
2, 79687, Note_on_c, 0, 56, 0
2, 79705, Note_on_c, 0, 55, 0
2, 79705, Note_on_c, 0, 60, 0
2, 79734, Note_on_c, 0, 79, 0
2, 79740, Note_on_c, 0, 72, 72
2, 79740, Note_on_c, 0, 75, 72
2, 79740, Note_on_c, 0, 31, 59
2, 79794, Note_on_c, 0, 75, 0
2, 79794, Note_on_c, 0, 72, 0
2, 79799, Note_on_c, 0, 67, 63
2, 79854, Note_on_c, 0, 67, 0
2, 79860, Note_on_c, 0, 79, 99
2, 79903, Note_on_c, 0, 31, 0
2, 79914, Note_on_c, 0, 79, 0
2, 79920, Note_on_c, 0, 71, 77
2, 79920, Note_on_c, 0, 75, 75
2, 79920, Note_on_c, 0, 49, 102
2, 79974, Note_on_c, 0, 75, 0
2, 79974, Note_on_c, 0, 71, 0
2, 79979, Note_on_c, 0, 67, 63
2, 80034, Note_on_c, 0, 67, 0
2, 80040, Note_on_c, 0, 79, 97
2, 80083, Note_on_c, 0, 49, 0
2, 80094, Note_on_c, 0, 79, 0
2, 80100, Note_on_c, 0, 70, 72
2, 80100, Note_on_c, 0, 74, 72
2, 80100, Note_on_c, 0, 50, 86
2, 80154, Note_on_c, 0, 74, 0
2, 80154, Note_on_c, 0, 70, 0
2, 80159, Note_on_c, 0, 66, 62
2, 80214, Note_on_c, 0, 66, 0
2, 80220, Note_on_c, 0, 78, 98
2, 80263, Note_on_c, 0, 50, 0
2, 80274, Note_on_c, 0, 78, 0
2, 80280, Note_on_c, 0, 69, 77
2, 80280, Note_on_c, 0, 73, 75
2, 80280, Note_on_c, 0, 53, 90
2, 80334, Note_on_c, 0, 73, 0
2, 80334, Note_on_c, 0, 69, 0
2, 80339, Note_on_c, 0, 65, 63
2, 80394, Note_on_c, 0, 65, 0
2, 80400, Note_on_c, 0, 77, 98
2, 80443, Note_on_c, 0, 53, 0
2, 80454, Note_on_c, 0, 77, 0
2, 80460, Note_on_c, 0, 68, 71
2, 80460, Note_on_c, 0, 71, 68
2, 80460, Note_on_c, 0, 56, 88
2, 80514, Note_on_c, 0, 71, 0
2, 80514, Note_on_c, 0, 68, 0
2, 80519, Note_on_c, 0, 64, 63
2, 80574, Note_on_c, 0, 64, 0
2, 80580, Note_on_c, 0, 76, 101
2, 80634, Note_on_c, 0, 76, 0
2, 80640, Note_on_c, 0, 68, 72
2, 80640, Note_on_c, 0, 59, 81
2, 80640, Note_on_c, 0, 51, 84
2, 80694, Note_on_c, 0, 68, 0
2, 80699, Note_on_c, 0, 63, 66
2, 80754, Note_on_c, 0, 63, 0
2, 80760, Note_on_c, 0, 75, 99
2, 80803, Note_on_c, 0, 59, 0
2, 80814, Note_on_c, 0, 75, 0
2, 80820, Note_on_c, 0, 67, 66
2, 80820, Note_on_c, 0, 55, 83
2, 80820, Note_on_c, 0, 60, 85
2, 80874, Note_on_c, 0, 67, 0
2, 80879, Note_on_c, 0, 63, 71
2, 80934, Note_on_c, 0, 63, 0
2, 80940, Note_on_c, 0, 75, 99
2, 80994, Note_on_c, 0, 75, 0
2, 81000, Note_on_c, 0, 74, 92
2, 81000, Note_on_c, 0, 77, 92
2, 81054, Note_on_c, 0, 77, 0
2, 81054, Note_on_c, 0, 74, 0
2, 81059, Note_on_c, 0, 67, 63
2, 81114, Note_on_c, 0, 67, 0
2, 81120, Note_on_c, 0, 79, 99
2, 81127, Note_on_c, 0, 51, 0
2, 81127, Note_on_c, 0, 56, 0
2, 81145, Note_on_c, 0, 55, 0
2, 81145, Note_on_c, 0, 60, 0
2, 81174, Note_on_c, 0, 79, 0
2, 81180, Note_on_c, 0, 72, 75
2, 81180, Note_on_c, 0, 75, 76
2, 81180, Note_on_c, 0, 43, 58
2, 81234, Note_on_c, 0, 75, 0
2, 81234, Note_on_c, 0, 72, 0
2, 81239, Note_on_c, 0, 67, 64
2, 81294, Note_on_c, 0, 67, 0
2, 81300, Note_on_c, 0, 79, 99
2, 81343, Note_on_c, 0, 43, 0
2, 81354, Note_on_c, 0, 79, 0
2, 81360, Note_on_c, 0, 71, 78
2, 81360, Note_on_c, 0, 75, 79
2, 81360, Note_on_c, 0, 53, 97
2, 81414, Note_on_c, 0, 75, 0
2, 81414, Note_on_c, 0, 71, 0
2, 81419, Note_on_c, 0, 67, 66
2, 81474, Note_on_c, 0, 67, 0
2, 81480, Note_on_c, 0, 79, 100
2, 81523, Note_on_c, 0, 53, 0
2, 81534, Note_on_c, 0, 79, 0
2, 81540, Note_on_c, 0, 71, 74
2, 81540, Note_on_c, 0, 74, 73
2, 81540, Note_on_c, 0, 59, 97
2, 81594, Note_on_c, 0, 74, 0
2, 81594, Note_on_c, 0, 71, 0
2, 81599, Note_on_c, 0, 66, 64
2, 81654, Note_on_c, 0, 66, 0
2, 81660, Note_on_c, 0, 80, 104
2, 81703, Note_on_c, 0, 59, 0
2, 81714, Note_on_c, 0, 80, 0
2, 81720, Note_on_c, 0, 74, 82
2, 81720, Note_on_c, 0, 78, 83
2, 81720, Note_on_c, 0, 31, 67
2, 81774, Note_on_c, 0, 78, 0
2, 81774, Note_on_c, 0, 74, 0
2, 81779, Note_on_c, 0, 68, 64
2, 81834, Note_on_c, 0, 68, 0
2, 81840, Note_on_c, 0, 80, 103
2, 81883, Note_on_c, 0, 31, 0
2, 81894, Note_on_c, 0, 80, 0
2, 81900, Note_on_c, 0, 73, 78
2, 81900, Note_on_c, 0, 77, 80
2, 81900, Note_on_c, 0, 43, 99
2, 81954, Note_on_c, 0, 77, 0
2, 81954, Note_on_c, 0, 73, 0
2, 81959, Note_on_c, 0, 68, 66
2, 82014, Note_on_c, 0, 68, 0
2, 82020, Note_on_c, 0, 80, 103
2, 82063, Note_on_c, 0, 43, 0
2, 82074, Note_on_c, 0, 80, 0
2, 82080, Note_on_c, 0, 73, 84
2, 82080, Note_on_c, 0, 77, 83
2, 82080, Note_on_c, 0, 52, 107
2, 82134, Note_on_c, 0, 77, 0
2, 82134, Note_on_c, 0, 73, 0
2, 82139, Note_on_c, 0, 68, 67
2, 82194, Note_on_c, 0, 68, 0
2, 82200, Note_on_c, 0, 80, 108
2, 82243, Note_on_c, 0, 52, 0
2, 82254, Note_on_c, 0, 80, 0
2, 82260, Note_on_c, 0, 72, 78
2, 82260, Note_on_c, 0, 76, 77
2, 82260, Note_on_c, 0, 60, 104
2, 82314, Note_on_c, 0, 76, 0
2, 82314, Note_on_c, 0, 72, 0
2, 82319, Note_on_c, 0, 67, 66
2, 82374, Note_on_c, 0, 67, 0
2, 82380, Note_on_c, 0, 81, 105
2, 82423, Note_on_c, 0, 60, 0
2, 82434, Note_on_c, 0, 81, 0
2, 82440, Note_on_c, 0, 75, 86
2, 82440, Note_on_c, 0, 79, 89
2, 82440, Note_on_c, 0, 31, 66
2, 82494, Note_on_c, 0, 79, 0
2, 82494, Note_on_c, 0, 75, 0
2, 82499, Note_on_c, 0, 70, 70
2, 82554, Note_on_c, 0, 70, 0
2, 82560, Note_on_c, 0, 82, 107
2, 82603, Note_on_c, 0, 31, 0
2, 82614, Note_on_c, 0, 82, 0
2, 82620, Note_on_c, 0, 73, 81
2, 82620, Note_on_c, 0, 78, 80
2, 82620, Note_on_c, 0, 43, 103
2, 82674, Note_on_c, 0, 78, 0
2, 82674, Note_on_c, 0, 73, 0
2, 82679, Note_on_c, 0, 70, 71
2, 82734, Note_on_c, 0, 70, 0
2, 82740, Note_on_c, 0, 82, 112
2, 82783, Note_on_c, 0, 43, 0
2, 82794, Note_on_c, 0, 82, 0
2, 82800, Note_on_c, 0, 73, 85
2, 82800, Note_on_c, 0, 78, 84
2, 82800, Note_on_c, 0, 51, 109
2, 82854, Note_on_c, 0, 78, 0
2, 82854, Note_on_c, 0, 73, 0
2, 82859, Note_on_c, 0, 70, 71
2, 82914, Note_on_c, 0, 70, 0
2, 82920, Note_on_c, 0, 82, 112
2, 82963, Note_on_c, 0, 51, 0
2, 82974, Note_on_c, 0, 82, 0
2, 82980, Note_on_c, 0, 73, 80
2, 82980, Note_on_c, 0, 77, 83
2, 82980, Note_on_c, 0, 61, 111
2, 83034, Note_on_c, 0, 77, 0
2, 83034, Note_on_c, 0, 73, 0
2, 83039, Note_on_c, 0, 69, 71
2, 83094, Note_on_c, 0, 69, 0
2, 83100, Note_on_c, 0, 83, 112
2, 83143, Note_on_c, 0, 61, 0
2, 83154, Note_on_c, 0, 83, 0
2, 83160, Note_on_c, 0, 77, 92
2, 83160, Note_on_c, 0, 81, 91
2, 83160, Note_on_c, 0, 31, 72
2, 83214, Note_on_c, 0, 81, 0
2, 83214, Note_on_c, 0, 77, 0
2, 83219, Note_on_c, 0, 72, 69
2, 83274, Note_on_c, 0, 72, 0
2, 83280, Note_on_c, 0, 84, 112
2, 83323, Note_on_c, 0, 31, 0
2, 83334, Note_on_c, 0, 84, 0
2, 83340, Note_on_c, 0, 76, 86
2, 83340, Note_on_c, 0, 80, 86
2, 83340, Note_on_c, 0, 43, 110
2, 83394, Note_on_c, 0, 80, 0
2, 83394, Note_on_c, 0, 76, 0
2, 83399, Note_on_c, 0, 72, 72
2, 83454, Note_on_c, 0, 72, 0
2, 83460, Note_on_c, 0, 84, 115
2, 83503, Note_on_c, 0, 43, 0
2, 83514, Note_on_c, 0, 84, 0
2, 83520, Note_on_c, 0, 76, 88
2, 83520, Note_on_c, 0, 80, 88
2, 83520, Note_on_c, 0, 50, 108
2, 83574, Note_on_c, 0, 80, 0
2, 83574, Note_on_c, 0, 76, 0
2, 83579, Note_on_c, 0, 72, 74
2, 83634, Note_on_c, 0, 72, 0
2, 83640, Note_on_c, 0, 85, 115
2, 83683, Note_on_c, 0, 50, 0
2, 83694, Note_on_c, 0, 85, 0
2, 83700, Note_on_c, 0, 77, 85
2, 83700, Note_on_c, 0, 80, 85
2, 83700, Note_on_c, 0, 62, 115
2, 83754, Note_on_c, 0, 80, 0
2, 83754, Note_on_c, 0, 77, 0
2, 83759, Note_on_c, 0, 71, 72
2, 83814, Note_on_c, 0, 71, 0
2, 83820, Note_on_c, 0, 85, 117
2, 83863, Note_on_c, 0, 62, 0
2, 83874, Note_on_c, 0, 85, 0
2, 83880, Note_on_c, 0, 81, 102
2, 83880, Note_on_c, 0, 85, 100
2, 83880, Note_on_c, 0, 31, 73
2, 83934, Note_on_c, 0, 85, 0
2, 83934, Note_on_c, 0, 81, 0
2, 83939, Note_on_c, 0, 74, 73
2, 83994, Note_on_c, 0, 74, 0
2, 84000, Note_on_c, 0, 85, 117
2, 84043, Note_on_c, 0, 31, 0
2, 84054, Note_on_c, 0, 85, 0
2, 84060, Note_on_c, 0, 80, 94
2, 84060, Note_on_c, 0, 84, 96
2, 84060, Note_on_c, 0, 43, 112
2, 84114, Note_on_c, 0, 84, 0
2, 84114, Note_on_c, 0, 80, 0
2, 84119, Note_on_c, 0, 74, 76
2, 84174, Note_on_c, 0, 74, 0
2, 84180, Note_on_c, 0, 85, 120
2, 84223, Note_on_c, 0, 43, 0
2, 84234, Note_on_c, 0, 85, 0
2, 84240, Note_on_c, 0, 74, 99
2, 84240, Note_on_c, 0, 80, 97
2, 84240, Note_on_c, 0, 84, 100
2, 84240, Note_on_c, 0, 50, 75
2, 84322, Note_on_c, 0, 50, 0
2, 84322, Note_on_c, 0, 74, 0
2, 84322, Note_on_c, 0, 80, 0
2, 84322, Note_on_c, 0, 84, 0
2, 84330, Note_on_c, 0, 86, 103
2, 84330, Note_on_c, 0, 43, 65
2, 84412, Note_on_c, 0, 43, 0
2, 84412, Note_on_c, 0, 86, 0
2, 84420, Note_on_c, 0, 77, 88
2, 84420, Note_on_c, 0, 83, 90
2, 84420, Note_on_c, 0, 53, 96
2, 84502, Note_on_c, 0, 53, 0
2, 84502, Note_on_c, 0, 83, 0
2, 84502, Note_on_c, 0, 77, 0
2, 84510, Note_on_c, 0, 89, 112
2, 84510, Note_on_c, 0, 47, 70
2, 84592, Note_on_c, 0, 47, 0
2, 84592, Note_on_c, 0, 89, 0
2, 84600, Note_on_c, 0, 74, 85
2, 84600, Note_on_c, 0, 82, 85
2, 84600, Note_on_c, 0, 56, 98
2, 84682, Note_on_c, 0, 56, 0
2, 84682, Note_on_c, 0, 82, 0
2, 84682, Note_on_c, 0, 74, 0
2, 84690, Note_on_c, 0, 86, 106
2, 84690, Note_on_c, 0, 50, 71
2, 84772, Note_on_c, 0, 50, 0
2, 84772, Note_on_c, 0, 86, 0
2, 84780, Note_on_c, 0, 77, 87
2, 84780, Note_on_c, 0, 81, 86
2, 84780, Note_on_c, 0, 59, 98
2, 84862, Note_on_c, 0, 59, 0
2, 84862, Note_on_c, 0, 81, 0
2, 84862, Note_on_c, 0, 77, 0
2, 84870, Note_on_c, 0, 89, 115
2, 84870, Note_on_c, 0, 53, 71
2, 84952, Note_on_c, 0, 53, 0
2, 84952, Note_on_c, 0, 89, 0
2, 84960, Note_on_c, 0, 74, 83
2, 84960, Note_on_c, 0, 80, 83
2, 84960, Note_on_c, 0, 62, 100
2, 85042, Note_on_c, 0, 62, 0
2, 85042, Note_on_c, 0, 80, 0
2, 85042, Note_on_c, 0, 74, 0
2, 85050, Note_on_c, 0, 86, 111
2, 85050, Note_on_c, 0, 56, 71
2, 85132, Note_on_c, 0, 56, 0
2, 85132, Note_on_c, 0, 86, 0
2, 85140, Note_on_c, 0, 77, 88
2, 85140, Note_on_c, 0, 81, 90
2, 85140, Note_on_c, 0, 65, 98
2, 85222, Note_on_c, 0, 65, 0
2, 85222, Note_on_c, 0, 81, 0
2, 85222, Note_on_c, 0, 77, 0
2, 85230, Note_on_c, 0, 89, 119
2, 85230, Note_on_c, 0, 59, 70
2, 85312, Note_on_c, 0, 59, 0
2, 85312, Note_on_c, 0, 89, 0
2, 85320, Note_on_c, 0, 74, 90
2, 85320, Note_on_c, 0, 82, 90
2, 85320, Note_on_c, 0, 68, 102
2, 85402, Note_on_c, 0, 68, 0
2, 85402, Note_on_c, 0, 82, 0
2, 85402, Note_on_c, 0, 74, 0
2, 85410, Note_on_c, 0, 86, 110
2, 85410, Note_on_c, 0, 62, 74
2, 85492, Note_on_c, 0, 62, 0
2, 85492, Note_on_c, 0, 86, 0
2, 85500, Note_on_c, 0, 77, 94
2, 85500, Note_on_c, 0, 83, 92
2, 85500, Note_on_c, 0, 71, 98
2, 85582, Note_on_c, 0, 71, 0
2, 85582, Note_on_c, 0, 83, 0
2, 85582, Note_on_c, 0, 77, 0
2, 85590, Note_on_c, 0, 89, 116
2, 85590, Note_on_c, 0, 65, 75
2, 85672, Note_on_c, 0, 89, 0
2, 85680, Note_on_c, 0, 74, 94
2, 85680, Note_on_c, 0, 80, 95
2, 85680, Note_on_c, 0, 84, 91
2, 85680, Note_on_c, 0, 86, 93
2, 85680, Note_on_c, 0, 68, 116
2, 85680, Note_on_c, 0, 72, 114
2, 85788, Note_on_c, 0, 86, 0
2, 85788, Note_on_c, 0, 84, 0
2, 85788, Note_on_c, 0, 80, 0
2, 85788, Note_on_c, 0, 74, 0
2, 85800, Note_on_c, 0, 74, 95
2, 85800, Note_on_c, 0, 80, 97
2, 85800, Note_on_c, 0, 84, 94
2, 85800, Note_on_c, 0, 86, 96
2, 85843, Note_on_c, 0, 65, 0
2, 85843, Note_on_c, 0, 68, 0
2, 85843, Note_on_c, 0, 72, 0
2, 85860, Note_on_c, 0, 31, 88
2, 85860, Note_on_c, 0, 43, 92
2, 85908, Note_on_c, 0, 80, 0
2, 85908, Note_on_c, 0, 86, 0
2, 85908, Note_on_c, 0, 74, 0
2, 85908, Note_on_c, 0, 84, 0
2, 85919, Note_on_c, 0, 74, 96
2, 85919, Note_on_c, 0, 80, 96
2, 85919, Note_on_c, 0, 84, 97
2, 85919, Note_on_c, 0, 86, 97
2, 86023, Note_on_c, 0, 43, 0
2, 86023, Note_on_c, 0, 31, 0
2, 86029, Note_on_c, 0, 84, 0
2, 86029, Note_on_c, 0, 80, 0
2, 86029, Note_on_c, 0, 86, 0
2, 86029, Note_on_c, 0, 74, 0
2, 86040, Note_on_c, 0, 74, 97
2, 86040, Note_on_c, 0, 80, 98
2, 86040, Note_on_c, 0, 84, 100
2, 86040, Note_on_c, 0, 86, 97
2, 86040, Note_on_c, 0, 53, 127
2, 86040, Note_on_c, 0, 56, 127
2, 86040, Note_on_c, 0, 60, 127
2, 86148, Note_on_c, 0, 86, 0
2, 86148, Note_on_c, 0, 84, 0
2, 86148, Note_on_c, 0, 74, 0
2, 86148, Note_on_c, 0, 80, 0
2, 86160, Note_on_c, 0, 74, 95
2, 86160, Note_on_c, 0, 80, 94
2, 86160, Note_on_c, 0, 84, 97
2, 86160, Note_on_c, 0, 86, 95
2, 86203, Note_on_c, 0, 60, 0
2, 86203, Note_on_c, 0, 56, 0
2, 86203, Note_on_c, 0, 53, 0
2, 86220, Note_on_c, 0, 62, 127
2, 86220, Note_on_c, 0, 65, 127
2, 86268, Note_on_c, 0, 80, 0
2, 86268, Note_on_c, 0, 86, 0
2, 86268, Note_on_c, 0, 74, 0
2, 86268, Note_on_c, 0, 84, 0
2, 86279, Note_on_c, 0, 74, 97
2, 86279, Note_on_c, 0, 80, 95
2, 86279, Note_on_c, 0, 84, 94
2, 86279, Note_on_c, 0, 86, 98
2, 86383, Note_on_c, 0, 65, 0
2, 86383, Note_on_c, 0, 62, 0
2, 86389, Note_on_c, 0, 84, 0
2, 86389, Note_on_c, 0, 80, 0
2, 86389, Note_on_c, 0, 86, 0
2, 86389, Note_on_c, 0, 74, 0
2, 86400, Note_on_c, 0, 74, 100
2, 86400, Note_on_c, 0, 80, 98
2, 86400, Note_on_c, 0, 84, 99
2, 86400, Note_on_c, 0, 86, 98
2, 86400, Note_on_c, 0, 65, 127
2, 86400, Note_on_c, 0, 68, 127
2, 86400, Note_on_c, 0, 72, 127
2, 86508, Note_on_c, 0, 72, 0
2, 86508, Note_on_c, 0, 65, 0
2, 86508, Note_on_c, 0, 80, 0
2, 86508, Note_on_c, 0, 84, 0
2, 86508, Note_on_c, 0, 74, 0
2, 86508, Note_on_c, 0, 68, 0
2, 86508, Note_on_c, 0, 86, 0
2, 86520, Note_on_c, 0, 74, 97
2, 86520, Note_on_c, 0, 80, 96
2, 86520, Note_on_c, 0, 84, 97
2, 86520, Note_on_c, 0, 86, 96
2, 86520, Note_on_c, 0, 60, 101
2, 86520, Note_on_c, 0, 65, 97
2, 86520, Note_on_c, 0, 68, 98
2, 86520, Note_on_c, 0, 72, 101
2, 86628, Note_on_c, 0, 72, 0
2, 86628, Note_on_c, 0, 74, 0
2, 86628, Note_on_c, 0, 60, 0
2, 86628, Note_on_c, 0, 80, 0
2, 86628, Note_on_c, 0, 84, 0
2, 86628, Note_on_c, 0, 86, 0
2, 86628, Note_on_c, 0, 65, 0
2, 86628, Note_on_c, 0, 68, 0
2, 86639, Note_on_c, 0, 74, 97
2, 86639, Note_on_c, 0, 80, 95
2, 86639, Note_on_c, 0, 84, 95
2, 86639, Note_on_c, 0, 86, 97
2, 86639, Note_on_c, 0, 60, 95
2, 86639, Note_on_c, 0, 65, 95
2, 86639, Note_on_c, 0, 68, 98
2, 86639, Note_on_c, 0, 72, 96
2, 86749, Note_on_c, 0, 72, 0
2, 86749, Note_on_c, 0, 74, 0
2, 86749, Note_on_c, 0, 60, 0
2, 86749, Note_on_c, 0, 80, 0
2, 86749, Note_on_c, 0, 84, 0
2, 86749, Note_on_c, 0, 86, 0
2, 86749, Note_on_c, 0, 65, 0
2, 86749, Note_on_c, 0, 68, 0
2, 86760, Note_on_c, 0, 74, 100
2, 86760, Note_on_c, 0, 80, 99
2, 86760, Note_on_c, 0, 84, 99
2, 86760, Note_on_c, 0, 86, 98
2, 86760, Note_on_c, 0, 60, 97
2, 86760, Note_on_c, 0, 65, 98
2, 86760, Note_on_c, 0, 68, 99
2, 86760, Note_on_c, 0, 72, 99
2, 86868, Note_on_c, 0, 72, 0
2, 86868, Note_on_c, 0, 74, 0
2, 86868, Note_on_c, 0, 60, 0
2, 86868, Note_on_c, 0, 80, 0
2, 86868, Note_on_c, 0, 84, 0
2, 86868, Note_on_c, 0, 86, 0
2, 86868, Note_on_c, 0, 65, 0
2, 86868, Note_on_c, 0, 68, 0
2, 86880, Note_on_c, 0, 74, 98
2, 86880, Note_on_c, 0, 80, 96
2, 86880, Note_on_c, 0, 84, 95
2, 86880, Note_on_c, 0, 86, 97
2, 86880, Note_on_c, 0, 60, 98
2, 86880, Note_on_c, 0, 65, 97
2, 86880, Note_on_c, 0, 68, 96
2, 86880, Note_on_c, 0, 72, 96
2, 86988, Note_on_c, 0, 72, 0
2, 86988, Note_on_c, 0, 74, 0
2, 86988, Note_on_c, 0, 60, 0
2, 86988, Note_on_c, 0, 80, 0
2, 86988, Note_on_c, 0, 84, 0
2, 86988, Note_on_c, 0, 86, 0
2, 86988, Note_on_c, 0, 65, 0
2, 86988, Note_on_c, 0, 68, 0
2, 86999, Note_on_c, 0, 74, 97
2, 86999, Note_on_c, 0, 80, 95
2, 86999, Note_on_c, 0, 84, 96
2, 86999, Note_on_c, 0, 86, 94
2, 86999, Note_on_c, 0, 60, 97
2, 86999, Note_on_c, 0, 65, 96
2, 86999, Note_on_c, 0, 68, 97
2, 86999, Note_on_c, 0, 72, 94
2, 87109, Note_on_c, 0, 72, 0
2, 87109, Note_on_c, 0, 74, 0
2, 87109, Note_on_c, 0, 60, 0
2, 87109, Note_on_c, 0, 80, 0
2, 87109, Note_on_c, 0, 84, 0
2, 87109, Note_on_c, 0, 86, 0
2, 87109, Note_on_c, 0, 65, 0
2, 87109, Note_on_c, 0, 68, 0
2, 87120, Note_on_c, 0, 74, 99
2, 87120, Note_on_c, 0, 79, 99
2, 87120, Note_on_c, 0, 83, 99
2, 87120, Note_on_c, 0, 86, 101
2, 87120, Note_on_c, 0, 59, 93
2, 87120, Note_on_c, 0, 64, 93
2, 87120, Note_on_c, 0, 67, 95
2, 87120, Note_on_c, 0, 71, 96
2, 87228, Note_on_c, 0, 71, 0
2, 87228, Note_on_c, 0, 74, 0
2, 87228, Note_on_c, 0, 59, 0
2, 87228, Note_on_c, 0, 79, 0
2, 87228, Note_on_c, 0, 83, 0
2, 87228, Note_on_c, 0, 86, 0
2, 87228, Note_on_c, 0, 64, 0
2, 87228, Note_on_c, 0, 67, 0
2, 87240, Note_on_c, 0, 74, 96
2, 87240, Note_on_c, 0, 79, 97
2, 87240, Note_on_c, 0, 83, 97
2, 87240, Note_on_c, 0, 86, 96
2, 87240, Note_on_c, 0, 59, 95
2, 87240, Note_on_c, 0, 64, 94
2, 87240, Note_on_c, 0, 67, 94
2, 87240, Note_on_c, 0, 71, 94
2, 87348, Note_on_c, 0, 71, 0
2, 87348, Note_on_c, 0, 74, 0
2, 87348, Note_on_c, 0, 59, 0
2, 87348, Note_on_c, 0, 79, 0
2, 87348, Note_on_c, 0, 83, 0
2, 87348, Note_on_c, 0, 86, 0
2, 87348, Note_on_c, 0, 64, 0
2, 87348, Note_on_c, 0, 67, 0
2, 87359, Note_on_c, 0, 74, 94
2, 87359, Note_on_c, 0, 79, 98
2, 87359, Note_on_c, 0, 83, 95
2, 87359, Note_on_c, 0, 86, 95
2, 87359, Note_on_c, 0, 59, 97
2, 87359, Note_on_c, 0, 64, 97
2, 87359, Note_on_c, 0, 67, 95
2, 87359, Note_on_c, 0, 71, 94
2, 87469, Note_on_c, 0, 71, 0
2, 87469, Note_on_c, 0, 74, 0
2, 87469, Note_on_c, 0, 59, 0
2, 87469, Note_on_c, 0, 79, 0
2, 87469, Note_on_c, 0, 83, 0
2, 87469, Note_on_c, 0, 86, 0
2, 87469, Note_on_c, 0, 64, 0
2, 87469, Note_on_c, 0, 67, 0
2, 87480, Note_on_c, 0, 74, 101
2, 87480, Note_on_c, 0, 79, 98
2, 87480, Note_on_c, 0, 83, 99
2, 87480, Note_on_c, 0, 86, 100
2, 87480, Note_on_c, 0, 59, 99
2, 87480, Note_on_c, 0, 64, 100
2, 87480, Note_on_c, 0, 67, 98
2, 87480, Note_on_c, 0, 71, 98
2, 87588, Note_on_c, 0, 71, 0
2, 87588, Note_on_c, 0, 74, 0
2, 87588, Note_on_c, 0, 59, 0
2, 87588, Note_on_c, 0, 79, 0
2, 87588, Note_on_c, 0, 83, 0
2, 87588, Note_on_c, 0, 86, 0
2, 87588, Note_on_c, 0, 64, 0
2, 87588, Note_on_c, 0, 67, 0
2, 87600, Note_on_c, 0, 74, 94
2, 87600, Note_on_c, 0, 79, 95
2, 87600, Note_on_c, 0, 83, 94
2, 87600, Note_on_c, 0, 86, 97
2, 87600, Note_on_c, 0, 59, 98
2, 87600, Note_on_c, 0, 64, 96
2, 87600, Note_on_c, 0, 67, 97
2, 87600, Note_on_c, 0, 71, 96
2, 87708, Note_on_c, 0, 71, 0
2, 87708, Note_on_c, 0, 74, 0
2, 87708, Note_on_c, 0, 59, 0
2, 87708, Note_on_c, 0, 79, 0
2, 87708, Note_on_c, 0, 83, 0
2, 87708, Note_on_c, 0, 86, 0
2, 87708, Note_on_c, 0, 64, 0
2, 87708, Note_on_c, 0, 67, 0
2, 87719, Note_on_c, 0, 74, 95
2, 87719, Note_on_c, 0, 79, 97
2, 87719, Note_on_c, 0, 83, 98
2, 87719, Note_on_c, 0, 86, 95
2, 87719, Note_on_c, 0, 59, 95
2, 87719, Note_on_c, 0, 64, 94
2, 87719, Note_on_c, 0, 67, 97
2, 87719, Note_on_c, 0, 71, 95
2, 87829, Note_on_c, 0, 71, 0
2, 87829, Note_on_c, 0, 74, 0
2, 87829, Note_on_c, 0, 59, 0
2, 87829, Note_on_c, 0, 79, 0
2, 87829, Note_on_c, 0, 83, 0
2, 87829, Note_on_c, 0, 86, 0
2, 87829, Note_on_c, 0, 64, 0
2, 87829, Note_on_c, 0, 67, 0
2, 87840, Note_on_c, 0, 74, 99
2, 87840, Note_on_c, 0, 78, 98
2, 87840, Note_on_c, 0, 82, 100
2, 87840, Note_on_c, 0, 86, 98
2, 87840, Note_on_c, 0, 58, 96
2, 87840, Note_on_c, 0, 63, 92
2, 87840, Note_on_c, 0, 66, 92
2, 87840, Note_on_c, 0, 70, 96
2, 87948, Note_on_c, 0, 70, 0
2, 87948, Note_on_c, 0, 74, 0
2, 87948, Note_on_c, 0, 58, 0
2, 87948, Note_on_c, 0, 78, 0
2, 87948, Note_on_c, 0, 82, 0
2, 87948, Note_on_c, 0, 86, 0
2, 87948, Note_on_c, 0, 63, 0
2, 87948, Note_on_c, 0, 66, 0
2, 87960, Note_on_c, 0, 74, 94
2, 87960, Note_on_c, 0, 78, 94
2, 87960, Note_on_c, 0, 82, 96
2, 87960, Note_on_c, 0, 86, 95
2, 87960, Note_on_c, 0, 58, 94
2, 87960, Note_on_c, 0, 63, 97
2, 87960, Note_on_c, 0, 66, 95
2, 87960, Note_on_c, 0, 70, 94
2, 88068, Note_on_c, 0, 70, 0
2, 88068, Note_on_c, 0, 74, 0
2, 88068, Note_on_c, 0, 58, 0
2, 88068, Note_on_c, 0, 78, 0
2, 88068, Note_on_c, 0, 82, 0
2, 88068, Note_on_c, 0, 86, 0
2, 88068, Note_on_c, 0, 63, 0
2, 88068, Note_on_c, 0, 66, 0
2, 88079, Note_on_c, 0, 74, 97
2, 88079, Note_on_c, 0, 78, 97
2, 88079, Note_on_c, 0, 82, 96
2, 88079, Note_on_c, 0, 86, 95
2, 88079, Note_on_c, 0, 58, 97
2, 88079, Note_on_c, 0, 63, 97
2, 88079, Note_on_c, 0, 66, 97
2, 88079, Note_on_c, 0, 70, 97
2, 88189, Note_on_c, 0, 70, 0
2, 88189, Note_on_c, 0, 74, 0
2, 88189, Note_on_c, 0, 58, 0
2, 88189, Note_on_c, 0, 78, 0
2, 88189, Note_on_c, 0, 82, 0
2, 88189, Note_on_c, 0, 86, 0
2, 88189, Note_on_c, 0, 63, 0
2, 88189, Note_on_c, 0, 66, 0
2, 88200, Note_on_c, 0, 74, 100
2, 88200, Note_on_c, 0, 78, 100
2, 88200, Note_on_c, 0, 82, 101
2, 88200, Note_on_c, 0, 86, 100
2, 88200, Note_on_c, 0, 58, 100
2, 88200, Note_on_c, 0, 63, 101
2, 88200, Note_on_c, 0, 66, 100
2, 88200, Note_on_c, 0, 70, 100
2, 88308, Note_on_c, 0, 70, 0
2, 88308, Note_on_c, 0, 74, 0
2, 88308, Note_on_c, 0, 58, 0
2, 88308, Note_on_c, 0, 78, 0
2, 88308, Note_on_c, 0, 82, 0
2, 88308, Note_on_c, 0, 86, 0
2, 88308, Note_on_c, 0, 63, 0
2, 88308, Note_on_c, 0, 66, 0
2, 88320, Note_on_c, 0, 74, 98
2, 88320, Note_on_c, 0, 78, 97
2, 88320, Note_on_c, 0, 82, 94
2, 88320, Note_on_c, 0, 86, 98
2, 88320, Note_on_c, 0, 58, 97
2, 88320, Note_on_c, 0, 63, 95
2, 88320, Note_on_c, 0, 66, 97
2, 88320, Note_on_c, 0, 70, 97
2, 88428, Note_on_c, 0, 70, 0
2, 88428, Note_on_c, 0, 74, 0
2, 88428, Note_on_c, 0, 58, 0
2, 88428, Note_on_c, 0, 78, 0
2, 88428, Note_on_c, 0, 82, 0
2, 88428, Note_on_c, 0, 86, 0
2, 88428, Note_on_c, 0, 63, 0
2, 88428, Note_on_c, 0, 66, 0
2, 88439, Note_on_c, 0, 74, 97
2, 88439, Note_on_c, 0, 78, 95
2, 88439, Note_on_c, 0, 82, 96
2, 88439, Note_on_c, 0, 86, 95
2, 88439, Note_on_c, 0, 58, 96
2, 88439, Note_on_c, 0, 63, 97
2, 88439, Note_on_c, 0, 66, 96
2, 88439, Note_on_c, 0, 70, 96
2, 88549, Note_on_c, 0, 70, 0
2, 88549, Note_on_c, 0, 74, 0
2, 88549, Note_on_c, 0, 58, 0
2, 88549, Note_on_c, 0, 78, 0
2, 88549, Note_on_c, 0, 82, 0
2, 88549, Note_on_c, 0, 86, 0
2, 88549, Note_on_c, 0, 63, 0
2, 88549, Note_on_c, 0, 66, 0
2, 88560, Note_on_c, 0, 54, 92
2, 88560, Note_on_c, 0, 58, 94
2, 88560, Note_on_c, 0, 62, 96
2, 88560, Note_on_c, 0, 66, 96
2, 88560, Control_c, 0, 64, 127
2, 88560, Note_on_c, 0, 24, 85
2, 88560, Note_on_c, 0, 36, 84
2, 88668, Note_on_c, 0, 36, 0
2, 88668, Note_on_c, 0, 58, 0
2, 88668, Note_on_c, 0, 62, 0
2, 88668, Note_on_c, 0, 54, 0
2, 88668, Note_on_c, 0, 24, 0
2, 88668, Note_on_c, 0, 66, 0
2, 88680, Note_on_c, 0, 74, 127
2, 88680, Note_on_c, 0, 78, 127
2, 88680, Note_on_c, 0, 43, 125
2, 88680, Note_on_c, 0, 51, 126
2, 88734, Note_on_c, 0, 51, 0
2, 88734, Note_on_c, 0, 74, 0
2, 88734, Note_on_c, 0, 78, 0
2, 88734, Note_on_c, 0, 43, 0
2, 88740, Note_on_c, 0, 82, 127
2, 88740, Note_on_c, 0, 86, 126
2, 88740, Note_on_c, 0, 54, 123
2, 88794, Note_on_c, 0, 86, 0
2, 88794, Note_on_c, 0, 82, 0
2, 88799, Note_on_c, 0, 74, 91
2, 88799, Note_on_c, 0, 78, 91
2, 88848, Note_on_c, 0, 54, 0
2, 88854, Note_on_c, 0, 78, 0
2, 88854, Note_on_c, 0, 74, 0
2, 88860, Note_on_c, 0, 82, 126
2, 88860, Note_on_c, 0, 86, 126
2, 88860, Note_on_c, 0, 58, 127
2, 88914, Note_on_c, 0, 58, 0
2, 88914, Note_on_c, 0, 86, 0
2, 88914, Note_on_c, 0, 82, 0
2, 88920, Note_on_c, 0, 74, 95
2, 88920, Note_on_c, 0, 78, 95
2, 88920, Note_on_c, 0, 63, 127
2, 88974, Note_on_c, 0, 63, 0
2, 88974, Note_on_c, 0, 78, 0
2, 88974, Note_on_c, 0, 74, 0
2, 88979, Note_on_c, 0, 82, 126
2, 88979, Note_on_c, 0, 86, 127
2, 88979, Note_on_c, 0, 66, 122
2, 89034, Note_on_c, 0, 66, 0
2, 89034, Note_on_c, 0, 86, 0
2, 89034, Note_on_c, 0, 82, 0
2, 89040, Note_on_c, 0, 74, 93
2, 89040, Note_on_c, 0, 78, 91
2, 89040, Note_on_c, 0, 70, 124
2, 89094, Note_on_c, 0, 70, 0
2, 89094, Note_on_c, 0, 78, 0
2, 89094, Note_on_c, 0, 74, 0
2, 89100, Note_on_c, 0, 80, 125
2, 89100, Note_on_c, 0, 84, 126
2, 89100, Note_on_c, 0, 63, 127
2, 89100, Note_on_c, 0, 68, 127
2, 89100, Note_on_c, 0, 72, 127
2, 89154, Note_on_c, 0, 84, 0
2, 89154, Note_on_c, 0, 80, 0
2, 89159, Note_on_c, 0, 74, 94
2, 89159, Note_on_c, 0, 78, 96
2, 89214, Note_on_c, 0, 78, 0
2, 89214, Note_on_c, 0, 74, 0
2, 89220, Note_on_c, 0, 80, 124
2, 89220, Note_on_c, 0, 84, 123
2, 89263, Note_on_c, 0, 72, 0
2, 89263, Note_on_c, 0, 68, 0
2, 89263, Note_on_c, 0, 63, 0
2, 89274, Note_on_c, 0, 80, 0
2, 89274, Note_on_c, 0, 84, 0
2, 89280, Note_on_c, 0, 54, 96
2, 89280, Note_on_c, 0, 58, 98
2, 89280, Note_on_c, 0, 62, 98
2, 89280, Note_on_c, 0, 66, 96
2, 89280, Control_c, 0, 64, 0
2, 89280, Note_on_c, 0, 24, 86
2, 89280, Note_on_c, 0, 36, 84
2, 89388, Note_on_c, 0, 36, 0
2, 89388, Note_on_c, 0, 58, 0
2, 89388, Note_on_c, 0, 62, 0
2, 89388, Note_on_c, 0, 54, 0
2, 89388, Note_on_c, 0, 24, 0
2, 89388, Note_on_c, 0, 66, 0
2, 89400, Note_on_c, 0, 74, 127
2, 89400, Note_on_c, 0, 78, 127
2, 89400, Note_on_c, 0, 43, 127
2, 89400, Note_on_c, 0, 51, 127
2, 89454, Note_on_c, 0, 51, 0
2, 89454, Note_on_c, 0, 74, 0
2, 89454, Note_on_c, 0, 78, 0
2, 89454, Note_on_c, 0, 43, 0
2, 89460, Note_on_c, 0, 82, 125
2, 89460, Note_on_c, 0, 86, 127
2, 89460, Note_on_c, 0, 54, 126
2, 89514, Note_on_c, 0, 86, 0
2, 89514, Note_on_c, 0, 82, 0
2, 89519, Note_on_c, 0, 74, 91
2, 89519, Note_on_c, 0, 78, 94
2, 89568, Note_on_c, 0, 54, 0
2, 89574, Note_on_c, 0, 78, 0
2, 89574, Note_on_c, 0, 74, 0
2, 89580, Note_on_c, 0, 82, 127
2, 89580, Note_on_c, 0, 86, 127
2, 89580, Note_on_c, 0, 58, 125
2, 89634, Note_on_c, 0, 58, 0
2, 89634, Note_on_c, 0, 86, 0
2, 89634, Note_on_c, 0, 82, 0
2, 89640, Note_on_c, 0, 74, 93
2, 89640, Note_on_c, 0, 78, 94
2, 89640, Note_on_c, 0, 63, 127
2, 89694, Note_on_c, 0, 63, 0
2, 89694, Note_on_c, 0, 78, 0
2, 89694, Note_on_c, 0, 74, 0
2, 89699, Note_on_c, 0, 82, 127
2, 89699, Note_on_c, 0, 86, 126
2, 89699, Note_on_c, 0, 66, 122
2, 89754, Note_on_c, 0, 66, 0
2, 89754, Note_on_c, 0, 86, 0
2, 89754, Note_on_c, 0, 82, 0
2, 89760, Note_on_c, 0, 74, 91
2, 89760, Note_on_c, 0, 78, 93
2, 89760, Note_on_c, 0, 70, 123
2, 89814, Note_on_c, 0, 70, 0
2, 89814, Note_on_c, 0, 78, 0
2, 89814, Note_on_c, 0, 74, 0
2, 89820, Note_on_c, 0, 80, 127
2, 89820, Note_on_c, 0, 84, 126
2, 89820, Note_on_c, 0, 63, 126
2, 89820, Note_on_c, 0, 68, 126
2, 89820, Note_on_c, 0, 72, 127
2, 89874, Note_on_c, 0, 84, 0
2, 89874, Note_on_c, 0, 80, 0
2, 89879, Note_on_c, 0, 74, 97
2, 89879, Note_on_c, 0, 78, 96
2, 89934, Note_on_c, 0, 78, 0
2, 89934, Note_on_c, 0, 74, 0
2, 89940, Note_on_c, 0, 80, 126
2, 89940, Note_on_c, 0, 84, 127
2, 89983, Note_on_c, 0, 72, 0
2, 89983, Note_on_c, 0, 68, 0
2, 89983, Note_on_c, 0, 63, 0
2, 89994, Note_on_c, 0, 80, 0
2, 89994, Note_on_c, 0, 84, 0
2, 90000, Note_on_c, 0, 72, 93
2, 90000, Note_on_c, 0, 75, 93
2, 90000, Note_on_c, 0, 36, 86
2, 90000, Note_on_c, 0, 43, 83
2, 90108, Note_on_c, 0, 43, 0
2, 90108, Note_on_c, 0, 36, 0
2, 90120, Note_on_c, 0, 43, 126
2, 90120, Note_on_c, 0, 51, 127
2, 90163, Note_on_c, 0, 75, 0
2, 90163, Note_on_c, 0, 72, 0
2, 90174, Note_on_c, 0, 43, 0
2, 90174, Note_on_c, 0, 51, 0
2, 90180, Note_on_c, 0, 79, 127
2, 90180, Note_on_c, 0, 82, 127
2, 90180, Note_on_c, 0, 55, 126
2, 90234, Note_on_c, 0, 55, 0
2, 90234, Note_on_c, 0, 82, 0
2, 90234, Note_on_c, 0, 79, 0
2, 90239, Note_on_c, 0, 70, 93
2, 90239, Note_on_c, 0, 75, 93
2, 90239, Note_on_c, 0, 56, 119
2, 90294, Note_on_c, 0, 56, 0
2, 90294, Note_on_c, 0, 75, 0
2, 90294, Note_on_c, 0, 70, 0
2, 90300, Note_on_c, 0, 79, 126
2, 90300, Note_on_c, 0, 82, 127
2, 90300, Note_on_c, 0, 58, 116
2, 90354, Note_on_c, 0, 58, 0
2, 90354, Note_on_c, 0, 82, 0
2, 90354, Note_on_c, 0, 79, 0
2, 90360, Note_on_c, 0, 70, 97
2, 90360, Note_on_c, 0, 75, 98
2, 90360, Note_on_c, 0, 60, 122
2, 90414, Note_on_c, 0, 60, 0
2, 90414, Note_on_c, 0, 75, 0
2, 90414, Note_on_c, 0, 70, 0
2, 90419, Note_on_c, 0, 79, 126
2, 90419, Note_on_c, 0, 82, 125
2, 90419, Note_on_c, 0, 63, 122
2, 90474, Note_on_c, 0, 63, 0
2, 90474, Note_on_c, 0, 82, 0
2, 90474, Note_on_c, 0, 79, 0
2, 90480, Note_on_c, 0, 70, 93
2, 90480, Note_on_c, 0, 75, 93
2, 90480, Note_on_c, 0, 67, 124
2, 90534, Note_on_c, 0, 67, 0
2, 90534, Note_on_c, 0, 75, 0
2, 90534, Note_on_c, 0, 70, 0
2, 90540, Note_on_c, 0, 75, 126
2, 90540, Note_on_c, 0, 80, 125
2, 90540, Note_on_c, 0, 60, 126
2, 90540, Note_on_c, 0, 68, 126
2, 90594, Note_on_c, 0, 80, 0
2, 90594, Note_on_c, 0, 75, 0
2, 90599, Note_on_c, 0, 68, 90
2, 90599, Note_on_c, 0, 72, 91
2, 90654, Note_on_c, 0, 72, 0
2, 90654, Note_on_c, 0, 68, 0
2, 90660, Note_on_c, 0, 75, 126
2, 90660, Note_on_c, 0, 80, 127
2, 90703, Note_on_c, 0, 68, 0
2, 90703, Note_on_c, 0, 60, 0
2, 90714, Note_on_c, 0, 75, 0
2, 90714, Note_on_c, 0, 80, 0
2, 90720, Note_on_c, 0, 68, 93
2, 90720, Note_on_c, 0, 72, 96
2, 90720, Note_on_c, 0, 36, 83
2, 90720, Note_on_c, 0, 44, 85
2, 90828, Note_on_c, 0, 44, 0
2, 90828, Note_on_c, 0, 36, 0
2, 90840, Note_on_c, 0, 44, 106
2, 90883, Note_on_c, 0, 72, 0
2, 90883, Note_on_c, 0, 68, 0
2, 90894, Note_on_c, 0, 44, 0
2, 90900, Note_on_c, 0, 75, 126
2, 90900, Note_on_c, 0, 79, 126
2, 90900, Note_on_c, 0, 51, 127
2, 90954, Note_on_c, 0, 51, 0
2, 90954, Note_on_c, 0, 79, 0
2, 90954, Note_on_c, 0, 75, 0
2, 90959, Note_on_c, 0, 67, 92
2, 90959, Note_on_c, 0, 71, 91
2, 90959, Note_on_c, 0, 54, 123
2, 91014, Note_on_c, 0, 54, 0
2, 91014, Note_on_c, 0, 71, 0
2, 91014, Note_on_c, 0, 67, 0
2, 91020, Note_on_c, 0, 75, 127
2, 91020, Note_on_c, 0, 79, 126
2, 91020, Note_on_c, 0, 55, 118
2, 91074, Note_on_c, 0, 55, 0
2, 91074, Note_on_c, 0, 79, 0
2, 91074, Note_on_c, 0, 75, 0
2, 91080, Note_on_c, 0, 67, 96
2, 91080, Note_on_c, 0, 71, 94
2, 91080, Note_on_c, 0, 56, 121
2, 91134, Note_on_c, 0, 56, 0
2, 91134, Note_on_c, 0, 71, 0
2, 91134, Note_on_c, 0, 67, 0
2, 91139, Note_on_c, 0, 75, 127
2, 91139, Note_on_c, 0, 79, 126
2, 91139, Note_on_c, 0, 59, 121
2, 91194, Note_on_c, 0, 59, 0
2, 91194, Note_on_c, 0, 79, 0
2, 91194, Note_on_c, 0, 75, 0
2, 91200, Note_on_c, 0, 67, 90
2, 91200, Note_on_c, 0, 71, 91
2, 91200, Note_on_c, 0, 62, 120
2, 91254, Note_on_c, 0, 62, 0
2, 91254, Note_on_c, 0, 71, 0
2, 91254, Note_on_c, 0, 67, 0
2, 91260, Note_on_c, 0, 74, 127
2, 91260, Note_on_c, 0, 78, 125
2, 91260, Note_on_c, 0, 56, 127
2, 91260, Note_on_c, 0, 66, 125
2, 91314, Note_on_c, 0, 78, 0
2, 91314, Note_on_c, 0, 74, 0
2, 91319, Note_on_c, 0, 66, 91
2, 91319, Note_on_c, 0, 71, 91
2, 91374, Note_on_c, 0, 71, 0
2, 91374, Note_on_c, 0, 66, 0
2, 91380, Note_on_c, 0, 74, 127
2, 91380, Note_on_c, 0, 78, 127
2, 91423, Note_on_c, 0, 66, 0
2, 91423, Note_on_c, 0, 56, 0
2, 91434, Note_on_c, 0, 74, 0
2, 91434, Note_on_c, 0, 78, 0
2, 91440, Note_on_c, 0, 63, 115
2, 91440, Note_on_c, 0, 72, 117
2, 91440, Note_on_c, 0, 75, 114
2, 91440, Note_on_c, 0, 24, 73
2, 91440, Note_on_c, 0, 36, 76
2, 91548, Note_on_c, 0, 36, 0
2, 91548, Note_on_c, 0, 24, 0
2, 91560, Note_on_c, 0, 51, 115
2, 91603, Note_on_c, 0, 63, 0
2, 91603, Note_on_c, 0, 75, 0
2, 91603, Note_on_c, 0, 72, 0
2, 91614, Note_on_c, 0, 51, 0
2, 91620, Note_on_c, 0, 70, 114
2, 91620, Note_on_c, 0, 74, 113
2, 91620, Note_on_c, 0, 43, 107
2, 91620, Note_on_c, 0, 54, 108
2, 91674, Note_on_c, 0, 74, 0
2, 91674, Note_on_c, 0, 70, 0
2, 91679, Note_on_c, 0, 62, 75
2, 91679, Note_on_c, 0, 66, 76
2, 91728, Note_on_c, 0, 43, 0
2, 91728, Note_on_c, 0, 54, 0
2, 91734, Note_on_c, 0, 62, 0
2, 91734, Note_on_c, 0, 66, 0
2, 91740, Note_on_c, 0, 70, 111
2, 91740, Note_on_c, 0, 74, 111
2, 91740, Note_on_c, 0, 56, 105
2, 91794, Note_on_c, 0, 56, 0
2, 91794, Note_on_c, 0, 74, 0
2, 91794, Note_on_c, 0, 70, 0
2, 91800, Note_on_c, 0, 62, 81
2, 91800, Note_on_c, 0, 66, 84
2, 91800, Note_on_c, 0, 54, 116
2, 91800, Note_on_c, 0, 62, 115
2, 91854, Note_on_c, 0, 66, 0
2, 91854, Note_on_c, 0, 62, 0
2, 91859, Note_on_c, 0, 70, 111
2, 91859, Note_on_c, 0, 74, 111
2, 91914, Note_on_c, 0, 74, 0
2, 91914, Note_on_c, 0, 70, 0
2, 91920, Note_on_c, 0, 62, 78
2, 91920, Note_on_c, 0, 66, 78
2, 91963, Note_on_c, 0, 54, 0
2, 91963, Note_on_c, 0, 62, 0
2, 91974, Note_on_c, 0, 62, 0
2, 91974, Note_on_c, 0, 66, 0
2, 91980, Note_on_c, 0, 68, 127
2, 91980, Note_on_c, 0, 72, 126
2, 92034, Note_on_c, 0, 72, 0
2, 92034, Note_on_c, 0, 68, 0
2, 92039, Note_on_c, 0, 60, 78
2, 92039, Note_on_c, 0, 63, 77
2, 92094, Note_on_c, 0, 63, 0
2, 92094, Note_on_c, 0, 60, 0
2, 92100, Note_on_c, 0, 68, 113
2, 92100, Note_on_c, 0, 72, 113
2, 92154, Note_on_c, 0, 72, 0
2, 92154, Note_on_c, 0, 68, 0
2, 92160, Note_on_c, 0, 60, 77
2, 92160, Note_on_c, 0, 63, 80
2, 92160, Note_on_c, 0, 36, 89
2, 92160, Note_on_c, 0, 43, 90
2, 92214, Note_on_c, 0, 43, 0
2, 92214, Note_on_c, 0, 36, 0
2, 92219, Note_on_c, 0, 48, 108
2, 92274, Note_on_c, 0, 48, 0
2, 92280, Note_on_c, 0, 51, 105
2, 92323, Note_on_c, 0, 63, 0
2, 92323, Note_on_c, 0, 60, 0
2, 92334, Note_on_c, 0, 51, 0
2, 92340, Note_on_c, 0, 70, 127
2, 92340, Note_on_c, 0, 74, 127
2, 92340, Note_on_c, 0, 53, 103
2, 92394, Note_on_c, 0, 53, 0
2, 92394, Note_on_c, 0, 74, 0
2, 92394, Note_on_c, 0, 70, 0
2, 92399, Note_on_c, 0, 62, 82
2, 92399, Note_on_c, 0, 66, 81
2, 92399, Note_on_c, 0, 58, 108
2, 92454, Note_on_c, 0, 58, 0
2, 92454, Note_on_c, 0, 66, 0
2, 92454, Note_on_c, 0, 62, 0
2, 92460, Note_on_c, 0, 70, 113
2, 92460, Note_on_c, 0, 74, 113
2, 92460, Note_on_c, 0, 60, 104
2, 92514, Note_on_c, 0, 60, 0
2, 92514, Note_on_c, 0, 74, 0
2, 92514, Note_on_c, 0, 70, 0
2, 92520, Note_on_c, 0, 62, 84
2, 92520, Note_on_c, 0, 66, 84
2, 92520, Note_on_c, 0, 62, 105
2, 92574, Note_on_c, 0, 66, 0
2, 92574, Note_on_c, 0, 62, 0
2, 92579, Note_on_c, 0, 70, 111
2, 92579, Note_on_c, 0, 74, 112
2, 92634, Note_on_c, 0, 74, 0
2, 92634, Note_on_c, 0, 70, 0
2, 92640, Note_on_c, 0, 62, 80
2, 92640, Note_on_c, 0, 66, 82
2, 92683, Note_on_c, 0, 62, 0
2, 92694, Note_on_c, 0, 66, 0
2, 92694, Note_on_c, 0, 62, 0
2, 92700, Note_on_c, 0, 68, 127
2, 92700, Note_on_c, 0, 72, 127
2, 92754, Note_on_c, 0, 72, 0
2, 92754, Note_on_c, 0, 68, 0
2, 92759, Note_on_c, 0, 60, 77
2, 92759, Note_on_c, 0, 63, 77
2, 92814, Note_on_c, 0, 63, 0
2, 92814, Note_on_c, 0, 60, 0
2, 92820, Note_on_c, 0, 68, 113
2, 92820, Note_on_c, 0, 72, 115
2, 92874, Note_on_c, 0, 72, 0
2, 92874, Note_on_c, 0, 68, 0
2, 92880, Note_on_c, 0, 60, 80
2, 92880, Note_on_c, 0, 63, 82
2, 92880, Note_on_c, 0, 36, 89
2, 92880, Note_on_c, 0, 43, 90
2, 92988, Note_on_c, 0, 43, 0
2, 92988, Note_on_c, 0, 36, 0
2, 93000, Note_on_c, 0, 44, 91
2, 93043, Note_on_c, 0, 63, 0
2, 93043, Note_on_c, 0, 60, 0
2, 93054, Note_on_c, 0, 44, 0
2, 93060, Note_on_c, 0, 67, 127
2, 93060, Note_on_c, 0, 70, 126
2, 93060, Note_on_c, 0, 51, 104
2, 93114, Note_on_c, 0, 70, 0
2, 93114, Note_on_c, 0, 67, 0
2, 93119, Note_on_c, 0, 60, 72
2, 93119, Note_on_c, 0, 63, 70
2, 93168, Note_on_c, 0, 51, 0
2, 93174, Note_on_c, 0, 63, 0
2, 93174, Note_on_c, 0, 60, 0
2, 93180, Note_on_c, 0, 67, 94
2, 93180, Note_on_c, 0, 70, 91
2, 93180, Note_on_c, 0, 55, 91
2, 93234, Note_on_c, 0, 55, 0
2, 93234, Note_on_c, 0, 70, 0
2, 93234, Note_on_c, 0, 67, 0
2, 93240, Note_on_c, 0, 60, 67
2, 93240, Note_on_c, 0, 63, 67
2, 93240, Note_on_c, 0, 58, 89
2, 93294, Note_on_c, 0, 63, 0
2, 93294, Note_on_c, 0, 60, 0
2, 93299, Note_on_c, 0, 67, 83
2, 93299, Note_on_c, 0, 70, 85
2, 93354, Note_on_c, 0, 70, 0
2, 93354, Note_on_c, 0, 67, 0
2, 93360, Note_on_c, 0, 60, 58
2, 93360, Note_on_c, 0, 63, 58
2, 93403, Note_on_c, 0, 58, 0
2, 93414, Note_on_c, 0, 63, 0
2, 93414, Note_on_c, 0, 60, 0
2, 93420, Note_on_c, 0, 65, 77
2, 93420, Note_on_c, 0, 68, 75
2, 93474, Note_on_c, 0, 68, 0
2, 93474, Note_on_c, 0, 65, 0
2, 93479, Note_on_c, 0, 60, 56
2, 93479, Note_on_c, 0, 63, 57
2, 93534, Note_on_c, 0, 63, 0
2, 93534, Note_on_c, 0, 60, 0
2, 93540, Note_on_c, 0, 65, 67
2, 93540, Note_on_c, 0, 68, 69
2, 93594, Note_on_c, 0, 68, 0
2, 93594, Note_on_c, 0, 65, 0
2, 93600, Note_on_c, 0, 60, 52
2, 93600, Note_on_c, 0, 63, 49
2, 93600, Note_on_c, 0, 36, 61
2, 93600, Note_on_c, 0, 43, 63
2, 93654, Note_on_c, 0, 43, 0
2, 93654, Note_on_c, 0, 36, 0
2, 93659, Note_on_c, 0, 44, 63
2, 93714, Note_on_c, 0, 44, 0
2, 93720, Note_on_c, 0, 48, 65
2, 93763, Note_on_c, 0, 63, 0
2, 93763, Note_on_c, 0, 60, 0
2, 93774, Note_on_c, 0, 48, 0
2, 93780, Note_on_c, 0, 63, 80
2, 93780, Note_on_c, 0, 67, 80
2, 93780, Note_on_c, 0, 50, 59
2, 93834, Note_on_c, 0, 50, 0
2, 93834, Note_on_c, 0, 67, 0
2, 93834, Note_on_c, 0, 63, 0
2, 93839, Note_on_c, 0, 59, 39
2, 93839, Note_on_c, 0, 54, 59
2, 93894, Note_on_c, 0, 54, 0
2, 93894, Note_on_c, 0, 59, 0
2, 93900, Note_on_c, 0, 63, 50
2, 93900, Note_on_c, 0, 67, 46
2, 93900, Note_on_c, 0, 55, 53
2, 93954, Note_on_c, 0, 55, 0
2, 93954, Note_on_c, 0, 67, 0
2, 93954, Note_on_c, 0, 63, 0
2, 93960, Note_on_c, 0, 59, 34
2, 93960, Note_on_c, 0, 56, 53
2, 94014, Note_on_c, 0, 59, 0
2, 94019, Note_on_c, 0, 63, 40
2, 94019, Note_on_c, 0, 67, 42
2, 94074, Note_on_c, 0, 67, 0
2, 94074, Note_on_c, 0, 63, 0
2, 94080, Note_on_c, 0, 59, 25
2, 94123, Note_on_c, 0, 56, 0
2, 94134, Note_on_c, 0, 59, 0
2, 94140, Note_on_c, 0, 62, 34
2, 94140, Note_on_c, 0, 66, 34
2, 94194, Note_on_c, 0, 66, 0
2, 94194, Note_on_c, 0, 62, 0
2, 94199, Note_on_c, 0, 59, 21
2, 94254, Note_on_c, 0, 59, 0
2, 94260, Note_on_c, 0, 62, 26
2, 94260, Note_on_c, 0, 66, 28
2, 94314, Note_on_c, 0, 66, 0
2, 94314, Note_on_c, 0, 62, 0
2, 94320, Note_on_c, 0, 60, 67
2, 94320, Note_on_c, 0, 48, 45
2, 94374, Note_on_c, 0, 60, 0
2, 94379, Note_on_c, 0, 55, 41
2, 94409, Note_on_c, 0, 48, 0
2, 94434, Note_on_c, 0, 55, 0
2, 94440, Note_on_c, 0, 63, 54
2, 94494, Note_on_c, 0, 63, 0
2, 94500, Note_on_c, 0, 59, 44
2, 94500, Note_on_c, 0, 29, 59
2, 94500, Note_on_c, 0, 41, 57
2, 94554, Note_on_c, 0, 59, 0
2, 94559, Note_on_c, 0, 56, 43
2, 94614, Note_on_c, 0, 56, 0
2, 94620, Note_on_c, 0, 62, 54
2, 94663, Note_on_c, 0, 41, 0
2, 94663, Note_on_c, 0, 29, 0
2, 94674, Note_on_c, 0, 62, 0
2, 94680, Note_on_c, 0, 60, 75
2, 94680, Note_on_c, 0, 48, 56
2, 94734, Note_on_c, 0, 60, 0
2, 94739, Note_on_c, 0, 55, 40
2, 94769, Note_on_c, 0, 48, 0
2, 94794, Note_on_c, 0, 55, 0
2, 94800, Note_on_c, 0, 63, 54
2, 94854, Note_on_c, 0, 63, 0
2, 94860, Note_on_c, 0, 59, 43
2, 94860, Note_on_c, 0, 28, 61
2, 94860, Note_on_c, 0, 40, 61
2, 94914, Note_on_c, 0, 59, 0
2, 94919, Note_on_c, 0, 56, 45
2, 94974, Note_on_c, 0, 56, 0
2, 94980, Note_on_c, 0, 62, 54
2, 95023, Note_on_c, 0, 40, 0
2, 95023, Note_on_c, 0, 28, 0
2, 95034, Note_on_c, 0, 62, 0
2, 95040, Note_on_c, 0, 60, 74
2, 95040, Note_on_c, 0, 48, 59
2, 95094, Note_on_c, 0, 60, 0
2, 95099, Note_on_c, 0, 55, 39
2, 95129, Note_on_c, 0, 48, 0
2, 95154, Note_on_c, 0, 55, 0
2, 95160, Note_on_c, 0, 63, 57
2, 95214, Note_on_c, 0, 63, 0
2, 95220, Note_on_c, 0, 59, 46
2, 95220, Note_on_c, 0, 27, 57
2, 95220, Note_on_c, 0, 39, 59
2, 95274, Note_on_c, 0, 59, 0
2, 95279, Note_on_c, 0, 56, 44
2, 95334, Note_on_c, 0, 56, 0
2, 95340, Note_on_c, 0, 62, 55
2, 95383, Note_on_c, 0, 39, 0
2, 95383, Note_on_c, 0, 27, 0
2, 95394, Note_on_c, 0, 62, 0
2, 95400, Note_on_c, 0, 60, 74
2, 95400, Note_on_c, 0, 48, 60
2, 95454, Note_on_c, 0, 60, 0
2, 95459, Note_on_c, 0, 55, 41
2, 95489, Note_on_c, 0, 48, 0
2, 95514, Note_on_c, 0, 55, 0
2, 95520, Note_on_c, 0, 63, 55
2, 95574, Note_on_c, 0, 63, 0
2, 95580, Note_on_c, 0, 59, 42
2, 95580, Note_on_c, 0, 26, 58
2, 95580, Note_on_c, 0, 38, 59
2, 95634, Note_on_c, 0, 59, 0
2, 95639, Note_on_c, 0, 54, 42
2, 95694, Note_on_c, 0, 54, 0
2, 95700, Note_on_c, 0, 62, 56
2, 95743, Note_on_c, 0, 38, 0
2, 95743, Note_on_c, 0, 26, 0
2, 95754, Note_on_c, 0, 62, 0
2, 95760, Note_on_c, 0, 60, 50
2, 95760, Note_on_c, 0, 48, 62
2, 95814, Note_on_c, 0, 60, 0
2, 95819, Note_on_c, 0, 55, 39
2, 95849, Note_on_c, 0, 48, 0
2, 95874, Note_on_c, 0, 55, 0
2, 95880, Note_on_c, 0, 63, 56
2, 95934, Note_on_c, 0, 63, 0
2, 95940, Note_on_c, 0, 60, 46
2, 95940, Note_on_c, 0, 24, 38
2, 95940, Note_on_c, 0, 36, 39
2, 95994, Note_on_c, 0, 60, 0
2, 95999, Note_on_c, 0, 56, 43
2, 96054, Note_on_c, 0, 56, 0
2, 96060, Note_on_c, 0, 65, 55
2, 96114, Note_on_c, 0, 65, 0
2, 96120, Note_on_c, 0, 60, 44
2, 96174, Note_on_c, 0, 60, 0
2, 96179, Note_on_c, 0, 55, 40
2, 96234, Note_on_c, 0, 55, 0
2, 96240, Note_on_c, 0, 64, 59
2, 96294, Note_on_c, 0, 64, 0
2, 96300, Note_on_c, 0, 36, 0
2, 96300, Note_on_c, 0, 24, 0
2, 96300, Note_on_c, 0, 60, 44
2, 96300, Note_on_c, 0, 26, 55
2, 96300, Note_on_c, 0, 38, 54
2, 96354, Note_on_c, 0, 60, 0
2, 96359, Note_on_c, 0, 54, 41
2, 96414, Note_on_c, 0, 54, 0
2, 96420, Note_on_c, 0, 63, 55
2, 96474, Note_on_c, 0, 63, 0
2, 96480, Note_on_c, 0, 59, 47
2, 96534, Note_on_c, 0, 59, 0
2, 96539, Note_on_c, 0, 55, 42
2, 96594, Note_on_c, 0, 55, 0
2, 96600, Note_on_c, 0, 62, 55
2, 96654, Note_on_c, 0, 62, 0
2, 96660, Note_on_c, 0, 38, 0
2, 96660, Note_on_c, 0, 26, 0
2, 96660, Note_on_c, 0, 58, 43
2, 96660, Note_on_c, 0, 28, 59
2, 96660, Note_on_c, 0, 40, 58
2, 96714, Note_on_c, 0, 58, 0
2, 96719, Note_on_c, 0, 55, 44
2, 96774, Note_on_c, 0, 55, 0
2, 96780, Note_on_c, 0, 61, 54
2, 96834, Note_on_c, 0, 61, 0
2, 96840, Note_on_c, 0, 57, 44
2, 96894, Note_on_c, 0, 57, 0
2, 96899, Note_on_c, 0, 48, 38
2, 96954, Note_on_c, 0, 48, 0
2, 96960, Note_on_c, 0, 60, 57
2, 97014, Note_on_c, 0, 60, 0
2, 97020, Note_on_c, 0, 40, 0
2, 97020, Note_on_c, 0, 28, 0
2, 97020, Note_on_c, 0, 56, 45
2, 97020, Note_on_c, 0, 29, 54
2, 97020, Note_on_c, 0, 41, 57
2, 97074, Note_on_c, 0, 56, 0
2, 97079, Note_on_c, 0, 50, 39
2, 97134, Note_on_c, 0, 50, 0
2, 97140, Note_on_c, 0, 60, 56
2, 97194, Note_on_c, 0, 60, 0
2, 97200, Note_on_c, 0, 41, 0
2, 97200, Note_on_c, 0, 29, 0
2, 97200, Note_on_c, 0, 55, 46
2, 97200, Note_on_c, 0, 34, 59
2, 97200, Note_on_c, 0, 46, 59
2, 97254, Note_on_c, 0, 55, 0
2, 97259, Note_on_c, 0, 51, 43
2, 97314, Note_on_c, 0, 51, 0
2, 97320, Note_on_c, 0, 60, 56
2, 97363, Note_on_c, 0, 46, 0
2, 97363, Note_on_c, 0, 34, 0
2, 97374, Note_on_c, 0, 60, 0
2, 97380, Note_on_c, 0, 54, 40
2, 97380, Note_on_c, 0, 32, 46
2, 97380, Note_on_c, 0, 44, 45
2, 97434, Note_on_c, 0, 54, 0
2, 97439, Note_on_c, 0, 50, 42
2, 97494, Note_on_c, 0, 50, 0
2, 97500, Note_on_c, 0, 59, 57
2, 97543, Note_on_c, 0, 44, 0
2, 97543, Note_on_c, 0, 32, 0
2, 97554, Note_on_c, 0, 59, 0
2, 97560, Note_on_c, 0, 53, 46
2, 97560, Note_on_c, 0, 37, 40
2, 97614, Note_on_c, 0, 53, 0
2, 97619, Note_on_c, 0, 49, 41
2, 97674, Note_on_c, 0, 49, 0
2, 97680, Note_on_c, 0, 60, 57
2, 97723, Note_on_c, 0, 37, 0
2, 97734, Note_on_c, 0, 60, 0
2, 97740, Note_on_c, 0, 53, 42
2, 97740, Note_on_c, 0, 31, 52
2, 97740, Note_on_c, 0, 43, 54
2, 97794, Note_on_c, 0, 53, 0
2, 97799, Note_on_c, 0, 50, 42
2, 97854, Note_on_c, 0, 50, 0
2, 97860, Note_on_c, 0, 59, 59
2, 97914, Note_on_c, 0, 59, 0
2, 97920, Note_on_c, 0, 52, 44
2, 97974, Note_on_c, 0, 52, 0
2, 97979, Note_on_c, 0, 48, 42
2, 98034, Note_on_c, 0, 48, 0
2, 98040, Note_on_c, 0, 58, 57
2, 98083, Note_on_c, 0, 43, 0
2, 98083, Note_on_c, 0, 31, 0
2, 98094, Note_on_c, 0, 58, 0
2, 98100, Note_on_c, 0, 51, 42
2, 98100, Note_on_c, 0, 30, 47
2, 98100, Note_on_c, 0, 42, 46
2, 98154, Note_on_c, 0, 51, 0
2, 98159, Note_on_c, 0, 48, 41
2, 98214, Note_on_c, 0, 48, 0
2, 98220, Note_on_c, 0, 57, 57
2, 98263, Note_on_c, 0, 42, 0
2, 98263, Note_on_c, 0, 30, 0
2, 98274, Note_on_c, 0, 57, 0
2, 98280, Note_on_c, 0, 51, 47
2, 98280, Note_on_c, 0, 35, 43
2, 98334, Note_on_c, 0, 51, 0
2, 98339, Note_on_c, 0, 47, 40
2, 98394, Note_on_c, 0, 47, 0
2, 98400, Note_on_c, 0, 57, 57
2, 98443, Note_on_c, 0, 35, 0
2, 98454, Note_on_c, 0, 57, 0
2, 98460, Note_on_c, 0, 50, 40
2, 98460, Note_on_c, 0, 29, 56
2, 98460, Note_on_c, 0, 41, 52
2, 98514, Note_on_c, 0, 50, 0
2, 98519, Note_on_c, 0, 47, 43
2, 98574, Note_on_c, 0, 47, 0
2, 98580, Note_on_c, 0, 56, 59
2, 98634, Note_on_c, 0, 56, 0
2, 98640, Note_on_c, 0, 50, 45
2, 98694, Note_on_c, 0, 50, 0
2, 98699, Note_on_c, 0, 47, 40
2, 98754, Note_on_c, 0, 47, 0
2, 98760, Note_on_c, 0, 55, 55
2, 98803, Note_on_c, 0, 41, 0
2, 98803, Note_on_c, 0, 29, 0
2, 98814, Note_on_c, 0, 55, 0
2, 98820, Note_on_c, 0, 47, 43
2, 98820, Note_on_c, 0, 51, 45
2, 98820, Note_on_c, 0, 32, 52
2, 98820, Note_on_c, 0, 44, 53
2, 98909, Note_on_c, 0, 44, 0
2, 98909, Note_on_c, 0, 47, 0
2, 98909, Note_on_c, 0, 51, 0
2, 98909, Note_on_c, 0, 32, 0
2, 99000, Note_on_c, 0, 44, 53
2, 99000, Note_on_c, 0, 49, 53
2, 99000, Note_on_c, 0, 53, 53
2, 99000, Note_on_c, 0, 25, 43
2, 99000, Note_on_c, 0, 37, 44
2, 99089, Note_on_c, 0, 37, 0
2, 99089, Note_on_c, 0, 53, 0
2, 99089, Note_on_c, 0, 44, 0
2, 99089, Note_on_c, 0, 49, 0
2, 99089, Note_on_c, 0, 25, 0
2, 99180, Note_on_c, 0, 49, 55
2, 99180, Note_on_c, 0, 52, 53
2, 99180, Note_on_c, 0, 55, 53
2, 99180, Note_on_c, 0, 34, 58
2, 99180, Note_on_c, 0, 46, 60
2, 99269, Note_on_c, 0, 46, 0
2, 99269, Note_on_c, 0, 55, 0
2, 99269, Note_on_c, 0, 49, 0
2, 99269, Note_on_c, 0, 52, 0
2, 99269, Note_on_c, 0, 34, 0
2, 99360, Note_on_c, 0, 47, 56
2, 99360, Note_on_c, 0, 53, 56
2, 99360, Note_on_c, 0, 56, 55
2, 99360, Note_on_c, 0, 26, 45
2, 99360, Note_on_c, 0, 38, 47
2, 99449, Note_on_c, 0, 38, 0
2, 99449, Note_on_c, 0, 56, 0
2, 99449, Note_on_c, 0, 47, 0
2, 99449, Note_on_c, 0, 53, 0
2, 99449, Note_on_c, 0, 26, 0
2, 99540, Note_on_c, 0, 51, 58
2, 99540, Note_on_c, 0, 54, 58
2, 99540, Note_on_c, 0, 57, 57
2, 99540, Note_on_c, 0, 36, 67
2, 99540, Note_on_c, 0, 48, 64
2, 99629, Note_on_c, 0, 48, 0
2, 99629, Note_on_c, 0, 57, 0
2, 99629, Note_on_c, 0, 51, 0
2, 99629, Note_on_c, 0, 54, 0
2, 99629, Note_on_c, 0, 36, 0
2, 99720, Note_on_c, 0, 49, 64
2, 99720, Note_on_c, 0, 55, 62
2, 99720, Note_on_c, 0, 58, 64
2, 99720, Note_on_c, 0, 28, 53
2, 99720, Note_on_c, 0, 40, 52
2, 99809, Note_on_c, 0, 40, 0
2, 99809, Note_on_c, 0, 58, 0
2, 99809, Note_on_c, 0, 49, 0
2, 99809, Note_on_c, 0, 55, 0
2, 99809, Note_on_c, 0, 28, 0
2, 99900, Note_on_c, 0, 53, 62
2, 99900, Note_on_c, 0, 56, 60
2, 99900, Note_on_c, 0, 59, 62
2, 99900, Note_on_c, 0, 38, 70
2, 99900, Note_on_c, 0, 50, 70
2, 99989, Note_on_c, 0, 50, 0
2, 99989, Note_on_c, 0, 59, 0
2, 99989, Note_on_c, 0, 53, 0
2, 99989, Note_on_c, 0, 56, 0
2, 99989, Note_on_c, 0, 38, 0
2, 100080, Note_on_c, 0, 51, 66
2, 100080, Note_on_c, 0, 57, 68
2, 100080, Note_on_c, 0, 60, 69
2, 100080, Note_on_c, 0, 29, 54
2, 100080, Note_on_c, 0, 41, 53
2, 100169, Note_on_c, 0, 60, 0
2, 100169, Note_on_c, 0, 51, 0
2, 100169, Note_on_c, 0, 57, 0
2, 100243, Note_on_c, 0, 29, 0
2, 100243, Note_on_c, 0, 41, 0
2, 100260, Note_on_c, 0, 56, 68
2, 100260, Note_on_c, 0, 59, 69
2, 100260, Note_on_c, 0, 62, 66
2, 100260, Note_on_c, 0, 41, 81
2, 100260, Note_on_c, 0, 53, 80
2, 100349, Note_on_c, 0, 62, 0
2, 100349, Note_on_c, 0, 56, 0
2, 100349, Note_on_c, 0, 59, 0
2, 100423, Note_on_c, 0, 41, 0
2, 100423, Note_on_c, 0, 53, 0
2, 100440, Note_on_c, 0, 57, 72
2, 100440, Note_on_c, 0, 60, 72
2, 100440, Note_on_c, 0, 63, 73
2, 100440, Note_on_c, 0, 30, 53
2, 100440, Note_on_c, 0, 42, 53
2, 100529, Note_on_c, 0, 63, 0
2, 100529, Note_on_c, 0, 57, 0
2, 100529, Note_on_c, 0, 60, 0
2, 100603, Note_on_c, 0, 30, 0
2, 100603, Note_on_c, 0, 42, 0
2, 100620, Note_on_c, 0, 53, 73
2, 100620, Note_on_c, 0, 59, 74
2, 100620, Note_on_c, 0, 62, 73
2, 100620, Note_on_c, 0, 65, 71
2, 100620, Note_on_c, 0, 44, 81
2, 100620, Note_on_c, 0, 56, 83
2, 100783, Note_on_c, 0, 56, 0
2, 100783, Note_on_c, 0, 59, 0
2, 100783, Note_on_c, 0, 62, 0
2, 100783, Note_on_c, 0, 53, 0
2, 100783, Note_on_c, 0, 44, 0
2, 100783, Note_on_c, 0, 65, 0
2, 100800, Note_on_c, 0, 55, 76
2, 100800, Note_on_c, 0, 59, 76
2, 100800, Note_on_c, 0, 62, 77
2, 100800, Note_on_c, 0, 67, 77
2, 100800, Note_on_c, 0, 41, 68
2, 100800, Note_on_c, 0, 53, 68
2, 100963, Note_on_c, 0, 53, 0
2, 100963, Note_on_c, 0, 59, 0
2, 100963, Note_on_c, 0, 62, 0
2, 100963, Note_on_c, 0, 55, 0
2, 100963, Note_on_c, 0, 41, 0
2, 100963, Note_on_c, 0, 67, 0
2, 100980, Note_on_c, 0, 56, 75
2, 100980, Note_on_c, 0, 61, 75
2, 100980, Note_on_c, 0, 65, 75
2, 100980, Note_on_c, 0, 68, 77
2, 100980, Note_on_c, 0, 37, 62
2, 100980, Note_on_c, 0, 49, 64
2, 101143, Note_on_c, 0, 49, 0
2, 101143, Note_on_c, 0, 61, 0
2, 101143, Note_on_c, 0, 65, 0
2, 101143, Note_on_c, 0, 56, 0
2, 101143, Note_on_c, 0, 37, 0
2, 101143, Note_on_c, 0, 68, 0
2, 101160, Note_on_c, 0, 57, 84
2, 101160, Note_on_c, 0, 62, 82
2, 101160, Note_on_c, 0, 66, 82
2, 101160, Note_on_c, 0, 69, 81
2, 101160, Note_on_c, 0, 35, 72
2, 101160, Note_on_c, 0, 47, 72
2, 101323, Note_on_c, 0, 47, 0
2, 101323, Note_on_c, 0, 62, 0
2, 101323, Note_on_c, 0, 66, 0
2, 101323, Note_on_c, 0, 57, 0
2, 101323, Note_on_c, 0, 35, 0
2, 101323, Note_on_c, 0, 69, 0
2, 101340, Note_on_c, 0, 58, 81
2, 101340, Note_on_c, 0, 62, 80
2, 101340, Note_on_c, 0, 67, 81
2, 101340, Note_on_c, 0, 70, 79
2, 101340, Note_on_c, 0, 32, 69
2, 101340, Note_on_c, 0, 44, 68
2, 101503, Note_on_c, 0, 44, 0
2, 101503, Note_on_c, 0, 62, 0
2, 101503, Note_on_c, 0, 67, 0
2, 101503, Note_on_c, 0, 58, 0
2, 101503, Note_on_c, 0, 32, 0
2, 101503, Note_on_c, 0, 70, 0
2, 101520, Note_on_c, 0, 60, 85
2, 101520, Note_on_c, 0, 62, 87
2, 101520, Note_on_c, 0, 68, 84
2, 101520, Note_on_c, 0, 71, 86
2, 101520, Note_on_c, 0, 29, 72
2, 101520, Note_on_c, 0, 41, 72
2, 101683, Note_on_c, 0, 41, 0
2, 101683, Note_on_c, 0, 62, 0
2, 101683, Note_on_c, 0, 68, 0
2, 101683, Note_on_c, 0, 60, 0
2, 101683, Note_on_c, 0, 29, 0
2, 101683, Note_on_c, 0, 71, 0
2, 101700, Note_on_c, 0, 60, 87
2, 101700, Note_on_c, 0, 64, 86
2, 101700, Note_on_c, 0, 69, 85
2, 101700, Note_on_c, 0, 72, 85
2, 101700, Note_on_c, 0, 46, 105
2, 101700, Note_on_c, 0, 58, 103
2, 101863, Note_on_c, 0, 58, 0
2, 101863, Note_on_c, 0, 64, 0
2, 101863, Note_on_c, 0, 69, 0
2, 101863, Note_on_c, 0, 60, 0
2, 101863, Note_on_c, 0, 46, 0
2, 101863, Note_on_c, 0, 72, 0
2, 101880, Note_on_c, 0, 61, 89
2, 101880, Note_on_c, 0, 66, 93
2, 101880, Note_on_c, 0, 70, 90
2, 101880, Note_on_c, 0, 73, 89
2, 101880, Note_on_c, 0, 42, 80
2, 101880, Note_on_c, 0, 54, 81
2, 102043, Note_on_c, 0, 54, 0
2, 102043, Note_on_c, 0, 66, 0
2, 102043, Note_on_c, 0, 70, 0
2, 102043, Note_on_c, 0, 61, 0
2, 102043, Note_on_c, 0, 42, 0
2, 102043, Note_on_c, 0, 73, 0
2, 102060, Note_on_c, 0, 62, 90
2, 102060, Note_on_c, 0, 67, 90
2, 102060, Note_on_c, 0, 71, 92
2, 102060, Note_on_c, 0, 74, 90
2, 102060, Note_on_c, 0, 40, 79
2, 102060, Note_on_c, 0, 52, 79
2, 102223, Note_on_c, 0, 52, 0
2, 102223, Note_on_c, 0, 67, 0
2, 102223, Note_on_c, 0, 71, 0
2, 102223, Note_on_c, 0, 62, 0
2, 102223, Note_on_c, 0, 40, 0
2, 102223, Note_on_c, 0, 74, 0
2, 102240, Note_on_c, 0, 63, 96
2, 102240, Note_on_c, 0, 67, 94
2, 102240, Note_on_c, 0, 72, 96
2, 102240, Note_on_c, 0, 75, 94
2, 102240, Note_on_c, 0, 37, 83
2, 102240, Note_on_c, 0, 49, 81
2, 102403, Note_on_c, 0, 49, 0
2, 102403, Note_on_c, 0, 67, 0
2, 102403, Note_on_c, 0, 72, 0
2, 102403, Note_on_c, 0, 63, 0
2, 102403, Note_on_c, 0, 37, 0
2, 102403, Note_on_c, 0, 75, 0
2, 102420, Note_on_c, 0, 64, 93
2, 102420, Note_on_c, 0, 67, 96
2, 102420, Note_on_c, 0, 73, 96
2, 102420, Note_on_c, 0, 76, 96
2, 102420, Note_on_c, 0, 34, 80
2, 102420, Note_on_c, 0, 46, 80
2, 102583, Note_on_c, 0, 46, 0
2, 102583, Note_on_c, 0, 67, 0
2, 102583, Note_on_c, 0, 73, 0
2, 102583, Note_on_c, 0, 64, 0
2, 102583, Note_on_c, 0, 34, 0
2, 102583, Note_on_c, 0, 76, 0
2, 102600, Note_on_c, 0, 65, 102
2, 102600, Note_on_c, 0, 69, 101
2, 102600, Note_on_c, 0, 74, 103
2, 102600, Note_on_c, 0, 77, 101
2, 102600, Note_on_c, 0, 51, 118
2, 102600, Note_on_c, 0, 63, 118
2, 102708, Note_on_c, 0, 63, 0
2, 102708, Note_on_c, 0, 69, 0
2, 102708, Note_on_c, 0, 74, 0
2, 102708, Note_on_c, 0, 65, 0
2, 102708, Note_on_c, 0, 51, 0
2, 102708, Note_on_c, 0, 77, 0
2, 102720, Note_on_c, 0, 66, 102
2, 102720, Note_on_c, 0, 70, 100
2, 102720, Note_on_c, 0, 75, 101
2, 102720, Note_on_c, 0, 78, 99
2, 102720, Note_on_c, 0, 48, 91
2, 102720, Note_on_c, 0, 60, 92
2, 102828, Note_on_c, 0, 60, 0
2, 102828, Note_on_c, 0, 70, 0
2, 102828, Note_on_c, 0, 75, 0
2, 102828, Note_on_c, 0, 66, 0
2, 102828, Note_on_c, 0, 48, 0
2, 102828, Note_on_c, 0, 78, 0
2, 102839, Note_on_c, 0, 67, 104
2, 102839, Note_on_c, 0, 72, 105
2, 102839, Note_on_c, 0, 76, 101
2, 102839, Note_on_c, 0, 79, 104
2, 102839, Note_on_c, 0, 44, 86
2, 102839, Note_on_c, 0, 56, 85
2, 102949, Note_on_c, 0, 56, 0
2, 102949, Note_on_c, 0, 72, 0
2, 102949, Note_on_c, 0, 76, 0
2, 102949, Note_on_c, 0, 67, 0
2, 102949, Note_on_c, 0, 44, 0
2, 102949, Note_on_c, 0, 79, 0
2, 102960, Note_on_c, 0, 68, 121
2, 102960, Note_on_c, 0, 73, 120
2, 102960, Note_on_c, 0, 77, 121
2, 102960, Note_on_c, 0, 80, 120
2, 102960, Note_on_c, 0, 41, 100
2, 102960, Note_on_c, 0, 49, 103
2, 102960, Note_on_c, 0, 53, 102
2, 103123, Note_on_c, 0, 53, 0
2, 103123, Note_on_c, 0, 41, 0
2, 103123, Note_on_c, 0, 73, 0
2, 103123, Note_on_c, 0, 77, 0
2, 103123, Note_on_c, 0, 68, 0
2, 103123, Note_on_c, 0, 49, 0
2, 103123, Note_on_c, 0, 80, 0
2, 103320, Note_on_c, 0, 60, 100
2, 103320, Note_on_c, 0, 63, 103
2, 103320, Note_on_c, 0, 69, 104
2, 103320, Note_on_c, 0, 72, 102
2, 103320, Note_on_c, 0, 42, 102
2, 103320, Note_on_c, 0, 48, 102
2, 103320, Note_on_c, 0, 54, 101
2, 103483, Note_on_c, 0, 54, 0
2, 103483, Note_on_c, 0, 42, 0
2, 103483, Note_on_c, 0, 63, 0
2, 103483, Note_on_c, 0, 69, 0
2, 103483, Note_on_c, 0, 60, 0
2, 103483, Note_on_c, 0, 48, 0
2, 103483, Note_on_c, 0, 72, 0
2, 103680, Note_on_c, 0, 53, 101
2, 103680, Note_on_c, 0, 55, 104
2, 103680, Note_on_c, 0, 59, 101
2, 103680, Note_on_c, 0, 31, 104
2, 103680, Note_on_c, 0, 38, 102
2, 103680, Note_on_c, 0, 43, 104
2, 103843, Note_on_c, 0, 43, 0
2, 103843, Note_on_c, 0, 55, 0
2, 103843, Note_on_c, 0, 59, 0
2, 103843, Note_on_c, 0, 53, 0
2, 103843, Note_on_c, 0, 38, 0
2, 103843, Note_on_c, 0, 31, 0
2, 104040, Note_on_c, 0, 48, 103
2, 104040, Note_on_c, 0, 24, 99
2, 104040, Note_on_c, 0, 36, 97
2, 104310, Note_on_c, 0, 75, 99
2, 104310, Note_on_c, 0, 79, 100
2, 104310, Note_on_c, 0, 84, 100
2, 104310, Note_on_c, 0, 87, 99
2, 104310, Note_on_c, 0, 43, 101
2, 104310, Note_on_c, 0, 48, 101
2, 104310, Note_on_c, 0, 51, 98
2, 104310, Note_on_c, 0, 55, 100
2, 104392, Note_on_c, 0, 55, 0
2, 104392, Note_on_c, 0, 87, 0
2, 104392, Note_on_c, 0, 48, 0
2, 104392, Note_on_c, 0, 51, 0
2, 104392, Note_on_c, 0, 75, 0
2, 104392, Note_on_c, 0, 79, 0
2, 104392, Note_on_c, 0, 43, 0
2, 104392, Note_on_c, 0, 84, 0
2, 104400, Note_on_c, 0, 72, 97
2, 104400, Note_on_c, 0, 84, 100
2, 104400, Note_on_c, 0, 51, 127
2, 104400, Note_on_c, 0, 63, 126
2, 105050, Note_on_c, 0, 63, 0
2, 105050, Note_on_c, 0, 84, 0
2, 105050, Note_on_c, 0, 24, 0
2, 105050, Note_on_c, 0, 48, 0
2, 105050, Note_on_c, 0, 36, 0
2, 105050, Note_on_c, 0, 51, 0
2, 105050, Note_on_c, 0, 72, 0
2, 105050, End_track
0, 0, End_of_file
