0, 0, Header, 1, 2, 360
1, 0, Start_track
1, 0, Title_t, "untitled"
1, 0, Time_signature, 1, 3, 12, 8
1, 0, Key_signature, 2, "major"
1, 0, Tempo, 600000
1, 180, Time_signature, 3, 2, 24, 8
1, 2340, Time_signature, 2, 2, 24, 8
1, 3060, Time_signature, 4, 2, 24, 8
1, 4500, Time_signature, 3, 2, 24, 8
1, 6660, Time_signature, 4, 2, 24, 8
1, 12420, Time_signature, 3, 2, 24, 8
1, 14580, Time_signature, 2, 2, 24, 8
1, 16020, Time_signature, 3, 2, 24, 8
1, 18180, Time_signature, 2, 2, 24, 8
1, 18900, Time_signature, 4, 2, 24, 8
1, 20340, Time_signature, 3, 2, 24, 8
1, 22500, Time_signature, 4, 2, 24, 8
1, 28260, Time_signature, 3, 2, 24, 8
1, 30420, Time_signature, 2, 2, 24, 8
1, 31860, Time_signature, 3, 2, 24, 8
1, 38340, Time_signature, 4, 2, 24, 8
1, 39780, Time_signature, 3, 2, 24, 8
1, 44100, Time_signature, 4, 2, 24, 8
1, 46980, Time_signature, 2, 2, 24, 8
1, 47700, Time_signature, 3, 2, 24, 8
1, 47700, Tempo, 631579
1, 49860, Tempo, 600000
1, 54180, Time_signature, 2, 2, 24, 8
1, 54900, Time_signature, 4, 2, 24, 8
1, 56340, Time_signature, 3, 2, 24, 8
1, 57420, Time_signature, 4, 2, 24, 8
1, 58860, Time_signature, 2, 2, 24, 8
1, 59580, Time_signature, 4, 2, 24, 8
1, 65340, Time_signature, 3, 2, 24, 8
1, 67500, Time_signature, 2, 2, 24, 8
1, 68940, Time_signature, 3, 2, 24, 8
1, 75420, Time_signature, 4, 2, 24, 8
1, 76860, Time_signature, 3, 2, 24, 8
1, 81180, Time_signature, 4, 2, 24, 8
1, 84060, Time_signature, 2, 2, 24, 8
1, 84780, Time_signature, 3, 2, 24, 8
1, 84780, Tempo, 631579
1, 86940, Tempo, 600000
1, 91260, Time_signature, 2, 2, 24, 8
1, 91980, Time_signature, 4, 2, 24, 8
1, 93420, Time_signature, 3, 2, 24, 8
1, 94500, Time_signature, 4, 2, 24, 8
1, 95940, Time_signature, 2, 2, 24, 8
1, 96660, Time_signature, 4, 2, 24, 8
1, 102420, Time_signature, 3, 2, 24, 8
1, 104580, Time_signature, 2, 2, 24, 8
1, 106020, Time_signature, 4, 2, 24, 8
1, 126090, Tempo, 5000000
1, 126180, Tempo, 600000
1, 126180, End_track
2, 0, Start_track
2, 0, Title_t, "Piano"
2, 0, Program_c, 0, 0
2, 0, Control_c, 0, 7, 105
2, 0, Control_c, 0, 10, 64
2, 0, Control_c, 0, 91, 60
2, 0, Control_c, 0, 121, 0
2, 0, Control_c, 0, 121, 0
2, 0, Control_c, 0, 91, 60
2, 0, Control_c, 0, 10, 51
2, 0, Control_c, 0, 7, 100
2, 0, Note_on_c, 0, 71, 83
2, 0, Note_on_c, 0, 74, 83
2, 0, Note_on_c, 0, 66, 64
2, 90, Note_on_c, 0, 66, 0
2, 90, Note_on_c, 0, 74, 0
2, 90, Note_on_c, 0, 71, 0
2, 90, Note_on_c, 0, 76, 96
2, 90, Note_on_c, 0, 73, 89
2, 180, Note_on_c, 0, 73, 0
2, 180, Note_on_c, 0, 76, 0
2, 180, Note_on_c, 0, 71, 109
2, 180, Note_on_c, 0, 74, 109
2, 180, Note_on_c, 0, 78, 109
2, 360, Note_on_c, 0, 78, 0
2, 360, Note_on_c, 0, 74, 0
2, 360, Note_on_c, 0, 71, 0
2, 360, Note_on_c, 0, 62, 51
2, 360, Note_on_c, 0, 71, 51
2, 360, Note_on_c, 0, 54, 52
2, 360, Note_on_c, 0, 59, 52
2, 449, Note_on_c, 0, 59, 0
2, 449, Note_on_c, 0, 54, 0
2, 540, Note_on_c, 0, 71, 0
2, 540, Note_on_c, 0, 62, 0
2, 540, Note_on_c, 0, 66, 66
2, 540, Note_on_c, 0, 74, 66
2, 540, Note_on_c, 0, 57, 64
2, 540, Note_on_c, 0, 62, 64
2, 629, Note_on_c, 0, 62, 0
2, 629, Note_on_c, 0, 66, 0
2, 629, Note_on_c, 0, 74, 0
2, 629, Note_on_c, 0, 57, 0
2, 720, Note_on_c, 0, 69, 63
2, 720, Note_on_c, 0, 76, 63
2, 720, Note_on_c, 0, 61, 65
2, 720, Note_on_c, 0, 66, 65
2, 809, Note_on_c, 0, 76, 0
2, 809, Note_on_c, 0, 69, 0
2, 810, Note_on_c, 0, 61, 0
2, 810, Note_on_c, 0, 66, 0
2, 810, Note_on_c, 0, 67, 63
2, 900, Note_on_c, 0, 67, 0
2, 900, Note_on_c, 0, 74, 65
2, 900, Note_on_c, 0, 78, 65
2, 900, Note_on_c, 0, 62, 66
2, 900, Note_on_c, 0, 69, 66
2, 989, Note_on_c, 0, 69, 0
2, 989, Note_on_c, 0, 74, 0
2, 989, Note_on_c, 0, 78, 0
2, 989, Note_on_c, 0, 62, 0
2, 1080, Note_on_c, 0, 71, 60
2, 1080, Note_on_c, 0, 76, 60
2, 1080, Note_on_c, 0, 79, 60
2, 1080, Note_on_c, 0, 64, 56
2, 1080, Note_on_c, 0, 67, 56
2, 1170, Note_on_c, 0, 67, 0
2, 1170, Note_on_c, 0, 79, 0
2, 1170, Note_on_c, 0, 71, 0
2, 1170, Note_on_c, 0, 76, 0
2, 1170, Note_on_c, 0, 64, 0
2, 1170, Note_on_c, 0, 81, 73
2, 1170, Note_on_c, 0, 73, 65
2, 1260, Note_on_c, 0, 73, 0
2, 1260, Note_on_c, 0, 81, 0
2, 1260, Note_on_c, 0, 74, 86
2, 1260, Note_on_c, 0, 83, 86
2, 1260, Note_on_c, 0, 59, 77
2, 1260, Note_on_c, 0, 66, 77
2, 1350, Note_on_c, 0, 83, 0
2, 1350, Note_on_c, 0, 74, 0
2, 1350, Note_on_c, 0, 83, 89
2, 1440, Note_on_c, 0, 83, 0
2, 1440, Note_on_c, 0, 59, 0
2, 1440, Note_on_c, 0, 66, 0
2, 1440, Note_on_c, 0, 83, 83
2, 1530, Note_on_c, 0, 83, 0
2, 1530, Note_on_c, 0, 83, 88
2, 1620, Note_on_c, 0, 83, 0
2, 1620, Note_on_c, 0, 83, 82
2, 1800, Note_on_c, 0, 83, 0
2, 1800, Note_on_c, 0, 71, 93
2, 1800, Note_on_c, 0, 74, 93
2, 1800, Note_on_c, 0, 81, 93
2, 1800, Note_on_c, 0, 66, 51
2, 1890, Note_on_c, 0, 66, 0
2, 1890, Note_on_c, 0, 67, 61
2, 1980, Note_on_c, 0, 67, 0
2, 1980, Note_on_c, 0, 69, 89
2, 2117, Note_on_c, 0, 81, 0
2, 2117, Note_on_c, 0, 71, 0
2, 2117, Note_on_c, 0, 74, 0
2, 2160, Note_on_c, 0, 69, 0
2, 2160, Note_on_c, 0, 73, 98
2, 2160, Note_on_c, 0, 75, 98
2, 2160, Note_on_c, 0, 79, 98
2, 2160, Note_on_c, 0, 67, 60
2, 2250, Note_on_c, 0, 67, 0
2, 2250, Note_on_c, 0, 69, 73
2, 2340, Note_on_c, 0, 69, 0
2, 2340, Note_on_c, 0, 71, 86
2, 2430, Note_on_c, 0, 71, 0
2, 2430, Note_on_c, 0, 71, 86
2, 2520, Note_on_c, 0, 71, 0
2, 2520, Note_on_c, 0, 79, 0
2, 2520, Note_on_c, 0, 75, 0
2, 2520, Note_on_c, 0, 73, 0
2, 2520, Note_on_c, 0, 69, 79
2, 2520, Note_on_c, 0, 78, 79
2, 2520, Note_on_c, 0, 71, 82
2, 2609, Note_on_c, 0, 78, 0
2, 2609, Note_on_c, 0, 69, 0
2, 2610, Note_on_c, 0, 71, 0
2, 2610, Note_on_c, 0, 71, 83
2, 2700, Note_on_c, 0, 71, 0
2, 2700, Note_on_c, 0, 67, 75
2, 2700, Note_on_c, 0, 76, 75
2, 2700, Note_on_c, 0, 71, 86
2, 2744, Note_on_c, 0, 76, 0
2, 2744, Note_on_c, 0, 67, 0
2, 2790, Note_on_c, 0, 74, 83
2, 2834, Note_on_c, 0, 74, 0
2, 2880, Note_on_c, 0, 71, 0
2, 2880, Note_on_c, 0, 73, 81
2, 2880, Note_on_c, 0, 62, 67
2, 2924, Note_on_c, 0, 73, 0
2, 2970, Note_on_c, 0, 62, 0
2, 2970, Note_on_c, 0, 71, 83
2, 2970, Note_on_c, 0, 64, 93
2, 3060, Note_on_c, 0, 64, 0
2, 3060, Note_on_c, 0, 74, 120
2, 3060, Note_on_c, 0, 83, 120
2, 3060, Note_on_c, 0, 59, 117
2, 3060, Note_on_c, 0, 66, 117
2, 3240, Note_on_c, 0, 66, 0
2, 3240, Note_on_c, 0, 59, 0
2, 3240, Note_on_c, 0, 54, 80
2, 3240, Note_on_c, 0, 59, 80
2, 3240, Note_on_c, 0, 47, 87
2, 3240, Note_on_c, 0, 50, 87
2, 3329, Note_on_c, 0, 50, 0
2, 3329, Note_on_c, 0, 59, 0
2, 3329, Note_on_c, 0, 54, 0
2, 3329, Note_on_c, 0, 47, 0
2, 3420, Note_on_c, 0, 57, 94
2, 3420, Note_on_c, 0, 62, 94
2, 3420, Note_on_c, 0, 42, 95
2, 3420, Note_on_c, 0, 50, 95
2, 3509, Note_on_c, 0, 50, 0
2, 3509, Note_on_c, 0, 62, 0
2, 3509, Note_on_c, 0, 57, 0
2, 3509, Note_on_c, 0, 42, 0
2, 3534, Note_on_c, 0, 74, 0
2, 3534, Note_on_c, 0, 83, 0
2, 3534, Note_on_c, 0, 71, 0
2, 3600, Note_on_c, 0, 69, 86
2, 3600, Note_on_c, 0, 76, 86
2, 3600, Note_on_c, 0, 81, 86
2, 3600, Note_on_c, 0, 49, 89
2, 3600, Note_on_c, 0, 57, 89
2, 3600, Note_on_c, 0, 64, 89
2, 3689, Note_on_c, 0, 64, 0
2, 3689, Note_on_c, 0, 49, 0
2, 3689, Note_on_c, 0, 57, 0
2, 3690, Note_on_c, 0, 69, 0
2, 3690, Note_on_c, 0, 81, 0
2, 3690, Note_on_c, 0, 76, 0
2, 3690, Note_on_c, 0, 79, 80
2, 3780, Note_on_c, 0, 79, 0
2, 3780, Note_on_c, 0, 74, 81
2, 3780, Note_on_c, 0, 78, 81
2, 3780, Note_on_c, 0, 50, 90
2, 3780, Note_on_c, 0, 57, 90
2, 3780, Note_on_c, 0, 66, 90
2, 3869, Note_on_c, 0, 66, 0
2, 3869, Note_on_c, 0, 50, 0
2, 3869, Note_on_c, 0, 74, 0
2, 3869, Note_on_c, 0, 78, 0
2, 3869, Note_on_c, 0, 57, 0
2, 3960, Note_on_c, 0, 76, 79
2, 3960, Note_on_c, 0, 67, 113
2, 3960, Note_on_c, 0, 52, 81
2, 3960, Note_on_c, 0, 59, 81
2, 3960, Note_on_c, 0, 64, 81
2, 4049, Note_on_c, 0, 64, 0
2, 4049, Note_on_c, 0, 52, 0
2, 4049, Note_on_c, 0, 59, 0
2, 4049, Note_on_c, 0, 76, 0
2, 4050, Note_on_c, 0, 67, 0
2, 4050, Note_on_c, 0, 69, 126
2, 4140, Note_on_c, 0, 69, 0
2, 4140, Note_on_c, 0, 74, 80
2, 4140, Note_on_c, 0, 71, 126
2, 4140, Note_on_c, 0, 55, 118
2, 4140, Note_on_c, 0, 59, 118
2, 4140, Note_on_c, 0, 67, 118
2, 4229, Note_on_c, 0, 67, 0
2, 4229, Note_on_c, 0, 55, 0
2, 4229, Note_on_c, 0, 59, 0
2, 4229, Note_on_c, 0, 74, 0
2, 4230, Note_on_c, 0, 71, 0
2, 4230, Note_on_c, 0, 71, 126
2, 4320, Note_on_c, 0, 71, 0
2, 4320, Note_on_c, 0, 73, 79
2, 4320, Note_on_c, 0, 71, 126
2, 4320, Note_on_c, 0, 57, 84
2, 4320, Note_on_c, 0, 61, 84
2, 4320, Note_on_c, 0, 67, 84
2, 4409, Note_on_c, 0, 67, 0
2, 4409, Note_on_c, 0, 57, 0
2, 4409, Note_on_c, 0, 61, 0
2, 4409, Note_on_c, 0, 73, 0
2, 4410, Note_on_c, 0, 71, 0
2, 4410, Note_on_c, 0, 71, 126
2, 4500, Note_on_c, 0, 71, 0
2, 4500, Note_on_c, 0, 71, 81
2, 4500, Note_on_c, 0, 71, 122
2, 4500, Note_on_c, 0, 59, 85
2, 4500, Note_on_c, 0, 62, 85
2, 4500, Note_on_c, 0, 67, 85
2, 4589, Note_on_c, 0, 67, 0
2, 4589, Note_on_c, 0, 59, 0
2, 4589, Note_on_c, 0, 62, 0
2, 4589, Note_on_c, 0, 71, 0
2, 4680, Note_on_c, 0, 71, 0
2, 4680, Note_on_c, 0, 83, 122
2, 4680, Note_on_c, 0, 71, 126
2, 4680, Note_on_c, 0, 74, 126
2, 4680, Note_on_c, 0, 62, 90
2, 4680, Note_on_c, 0, 68, 90
2, 4724, Note_on_c, 0, 68, 0
2, 4724, Note_on_c, 0, 62, 0
2, 4770, Note_on_c, 0, 52, 73
2, 4814, Note_on_c, 0, 52, 0
2, 4860, Note_on_c, 0, 74, 0
2, 4860, Note_on_c, 0, 73, 121
2, 4860, Note_on_c, 0, 61, 107
2, 4860, Note_on_c, 0, 67, 107
2, 4904, Note_on_c, 0, 67, 0
2, 4904, Note_on_c, 0, 61, 0
2, 4950, Note_on_c, 0, 57, 75
2, 4994, Note_on_c, 0, 57, 0
2, 4997, Note_on_c, 0, 83, 0
2, 5040, Note_on_c, 0, 73, 0
2, 5040, Note_on_c, 0, 71, 0
2, 5040, Note_on_c, 0, 81, 82
2, 5040, Note_on_c, 0, 69, 121
2, 5040, Note_on_c, 0, 72, 121
2, 5040, Note_on_c, 0, 60, 103
2, 5040, Note_on_c, 0, 66, 103
2, 5084, Note_on_c, 0, 66, 0
2, 5084, Note_on_c, 0, 60, 0
2, 5130, Note_on_c, 0, 81, 0
2, 5130, Note_on_c, 0, 79, 81
2, 5130, Note_on_c, 0, 50, 78
2, 5174, Note_on_c, 0, 50, 0
2, 5220, Note_on_c, 0, 69, 0
2, 5220, Note_on_c, 0, 72, 0
2, 5220, Note_on_c, 0, 79, 0
2, 5220, Note_on_c, 0, 69, 86
2, 5220, Note_on_c, 0, 78, 86
2, 5220, Note_on_c, 0, 59, 90
2, 5264, Note_on_c, 0, 59, 0
2, 5264, Note_on_c, 0, 78, 0
2, 5264, Note_on_c, 0, 69, 0
2, 5310, Note_on_c, 0, 67, 80
2, 5310, Note_on_c, 0, 76, 80
2, 5310, Note_on_c, 0, 55, 80
2, 5354, Note_on_c, 0, 55, 0
2, 5354, Note_on_c, 0, 76, 0
2, 5354, Note_on_c, 0, 67, 0
2, 5400, Note_on_c, 0, 66, 73
2, 5400, Note_on_c, 0, 74, 73
2, 5400, Note_on_c, 0, 58, 91
2, 5444, Note_on_c, 0, 58, 0
2, 5444, Note_on_c, 0, 74, 0
2, 5444, Note_on_c, 0, 66, 0
2, 5490, Note_on_c, 0, 64, 67
2, 5490, Note_on_c, 0, 73, 67
2, 5490, Note_on_c, 0, 54, 84
2, 5534, Note_on_c, 0, 54, 0
2, 5534, Note_on_c, 0, 73, 0
2, 5534, Note_on_c, 0, 64, 0
2, 5580, Note_on_c, 0, 62, 61
2, 5580, Note_on_c, 0, 71, 61
2, 5580, Note_on_c, 0, 47, 58
2, 5580, Note_on_c, 0, 54, 58
2, 5669, Note_on_c, 0, 71, 0
2, 5669, Note_on_c, 0, 62, 0
2, 5760, Note_on_c, 0, 47, 0
2, 5760, Note_on_c, 0, 54, 0
2, 5760, Note_on_c, 0, 78, 75
2, 5760, Note_on_c, 0, 69, 74
2, 5760, Note_on_c, 0, 74, 74
2, 5850, Note_on_c, 0, 74, 0
2, 5850, Note_on_c, 0, 69, 0
2, 5850, Note_on_c, 0, 78, 0
2, 5850, Note_on_c, 0, 76, 62
2, 5850, Note_on_c, 0, 79, 62
2, 5850, Note_on_c, 0, 73, 66
2, 5940, Note_on_c, 0, 73, 0
2, 5940, Note_on_c, 0, 79, 0
2, 5940, Note_on_c, 0, 76, 0
2, 5940, Note_on_c, 0, 74, 57
2, 5940, Note_on_c, 0, 78, 57
2, 5940, Note_on_c, 0, 71, 60
2, 6029, Note_on_c, 0, 78, 0
2, 6029, Note_on_c, 0, 74, 0
2, 6030, Note_on_c, 0, 71, 0
2, 6030, Note_on_c, 0, 66, 48
2, 6120, Note_on_c, 0, 66, 0
2, 6120, Note_on_c, 0, 73, 56
2, 6120, Note_on_c, 0, 76, 56
2, 6120, Note_on_c, 0, 64, 67
2, 6120, Note_on_c, 0, 69, 67
2, 6210, Note_on_c, 0, 69, 0
2, 6210, Note_on_c, 0, 73, 0
2, 6210, Note_on_c, 0, 76, 0
2, 6210, Note_on_c, 0, 64, 0
2, 6210, Note_on_c, 0, 79, 64
2, 6210, Note_on_c, 0, 67, 58
2, 6300, Note_on_c, 0, 67, 0
2, 6300, Note_on_c, 0, 79, 0
2, 6300, Note_on_c, 0, 73, 56
2, 6300, Note_on_c, 0, 78, 56
2, 6300, Note_on_c, 0, 66, 63
2, 6300, Note_on_c, 0, 69, 63
2, 6389, Note_on_c, 0, 78, 0
2, 6389, Note_on_c, 0, 73, 0
2, 6390, Note_on_c, 0, 66, 0
2, 6390, Note_on_c, 0, 69, 0
2, 6390, Note_on_c, 0, 61, 52
2, 6480, Note_on_c, 0, 61, 0
2, 6480, Note_on_c, 0, 71, 57
2, 6480, Note_on_c, 0, 74, 57
2, 6480, Note_on_c, 0, 62, 70
2, 6480, Note_on_c, 0, 69, 70
2, 6570, Note_on_c, 0, 69, 0
2, 6570, Note_on_c, 0, 71, 0
2, 6570, Note_on_c, 0, 74, 0
2, 6570, Note_on_c, 0, 73, 60
2, 6570, Note_on_c, 0, 76, 60
2, 6570, Note_on_c, 0, 67, 60
2, 6660, Note_on_c, 0, 67, 0
2, 6660, Note_on_c, 0, 76, 0
2, 6660, Note_on_c, 0, 73, 0
2, 6660, Note_on_c, 0, 74, 63
2, 6660, Note_on_c, 0, 78, 63
2, 6660, Note_on_c, 0, 66, 58
2, 6749, Note_on_c, 0, 78, 0
2, 6749, Note_on_c, 0, 74, 0
2, 6750, Note_on_c, 0, 62, 0
2, 6750, Note_on_c, 0, 66, 0
2, 6750, Note_on_c, 0, 59, 55
2, 6840, Note_on_c, 0, 59, 0
2, 6840, Note_on_c, 0, 72, 49
2, 6840, Note_on_c, 0, 69, 78
2, 6930, Note_on_c, 0, 69, 0
2, 6930, Note_on_c, 0, 72, 0
2, 6930, Note_on_c, 0, 76, 62
2, 6930, Note_on_c, 0, 54, 55
2, 7020, Note_on_c, 0, 54, 0
2, 7020, Note_on_c, 0, 76, 0
2, 7020, Note_on_c, 0, 73, 74
2, 7020, Note_on_c, 0, 78, 74
2, 7020, Note_on_c, 0, 64, 75
2, 7110, Note_on_c, 0, 64, 0
2, 7110, Note_on_c, 0, 54, 52
2, 7178, Note_on_c, 0, 78, 0
2, 7178, Note_on_c, 0, 73, 0
2, 7200, Note_on_c, 0, 54, 0
2, 7200, Note_on_c, 0, 70, 54
2, 7200, Note_on_c, 0, 67, 78
2, 7290, Note_on_c, 0, 67, 0
2, 7290, Note_on_c, 0, 70, 0
2, 7290, Note_on_c, 0, 76, 66
2, 7290, Note_on_c, 0, 54, 56
2, 7380, Note_on_c, 0, 54, 0
2, 7380, Note_on_c, 0, 76, 0
2, 7380, Note_on_c, 0, 71, 74
2, 7380, Note_on_c, 0, 78, 74
2, 7380, Note_on_c, 0, 62, 72
2, 7470, Note_on_c, 0, 62, 0
2, 7470, Note_on_c, 0, 54, 61
2, 7538, Note_on_c, 0, 78, 0
2, 7538, Note_on_c, 0, 71, 0
2, 7560, Note_on_c, 0, 54, 0
2, 7560, Note_on_c, 0, 69, 49
2, 7560, Note_on_c, 0, 66, 76
2, 7650, Note_on_c, 0, 66, 0
2, 7650, Note_on_c, 0, 69, 0
2, 7650, Note_on_c, 0, 76, 65
2, 7650, Note_on_c, 0, 54, 54
2, 7740, Note_on_c, 0, 54, 0
2, 7740, Note_on_c, 0, 76, 0
2, 7740, Note_on_c, 0, 70, 78
2, 7740, Note_on_c, 0, 78, 78
2, 7740, Note_on_c, 0, 61, 72
2, 7830, Note_on_c, 0, 61, 0
2, 7830, Note_on_c, 0, 54, 58
2, 7898, Note_on_c, 0, 78, 0
2, 7898, Note_on_c, 0, 70, 0
2, 7920, Note_on_c, 0, 54, 0
2, 7920, Note_on_c, 0, 64, 47
2, 7920, Note_on_c, 0, 67, 47
2, 7920, Note_on_c, 0, 62, 70
2, 8010, Note_on_c, 0, 62, 0
2, 8010, Note_on_c, 0, 67, 0
2, 8010, Note_on_c, 0, 64, 0
2, 8010, Note_on_c, 0, 66, 57
2, 8010, Note_on_c, 0, 69, 57
2, 8010, Note_on_c, 0, 61, 59
2, 8100, Note_on_c, 0, 61, 0
2, 8100, Note_on_c, 0, 69, 0
2, 8100, Note_on_c, 0, 66, 0
2, 8100, Note_on_c, 0, 67, 74
2, 8100, Note_on_c, 0, 71, 74
2, 8100, Note_on_c, 0, 59, 56
2, 8190, Note_on_c, 0, 59, 0
2, 8190, Note_on_c, 0, 52, 55
2, 8258, Note_on_c, 0, 71, 0
2, 8258, Note_on_c, 0, 67, 0
2, 8280, Note_on_c, 0, 52, 0
2, 8280, Note_on_c, 0, 65, 57
2, 8280, Note_on_c, 0, 57, 64
2, 8370, Note_on_c, 0, 57, 0
2, 8370, Note_on_c, 0, 65, 0
2, 8370, Note_on_c, 0, 69, 64
2, 8370, Note_on_c, 0, 42, 53
2, 8460, Note_on_c, 0, 42, 0
2, 8460, Note_on_c, 0, 69, 0
2, 8460, Note_on_c, 0, 66, 87
2, 8460, Note_on_c, 0, 71, 87
2, 8460, Note_on_c, 0, 50, 70
2, 8550, Note_on_c, 0, 50, 0
2, 8550, Note_on_c, 0, 42, 51
2, 8618, Note_on_c, 0, 71, 0
2, 8618, Note_on_c, 0, 66, 0
2, 8640, Note_on_c, 0, 42, 0
2, 8640, Note_on_c, 0, 63, 53
2, 8640, Note_on_c, 0, 55, 67
2, 8730, Note_on_c, 0, 55, 0
2, 8730, Note_on_c, 0, 63, 0
2, 8730, Note_on_c, 0, 69, 66
2, 8730, Note_on_c, 0, 42, 54
2, 8820, Note_on_c, 0, 42, 0
2, 8820, Note_on_c, 0, 69, 0
2, 8820, Note_on_c, 0, 64, 75
2, 8820, Note_on_c, 0, 71, 75
2, 8820, Note_on_c, 0, 49, 65
2, 8910, Note_on_c, 0, 49, 0
2, 8910, Note_on_c, 0, 42, 62
2, 8978, Note_on_c, 0, 71, 0
2, 8978, Note_on_c, 0, 64, 0
2, 9000, Note_on_c, 0, 42, 0
2, 9000, Note_on_c, 0, 61, 49
2, 9000, Note_on_c, 0, 54, 69
2, 9090, Note_on_c, 0, 54, 0
2, 9090, Note_on_c, 0, 61, 0
2, 9090, Note_on_c, 0, 69, 76
2, 9090, Note_on_c, 0, 42, 51
2, 9180, Note_on_c, 0, 42, 0
2, 9180, Note_on_c, 0, 69, 0
2, 9180, Note_on_c, 0, 62, 78
2, 9180, Note_on_c, 0, 71, 78
2, 9180, Note_on_c, 0, 47, 66
2, 9270, Note_on_c, 0, 47, 0
2, 9270, Note_on_c, 0, 42, 55
2, 9338, Note_on_c, 0, 71, 0
2, 9338, Note_on_c, 0, 62, 0
2, 9360, Note_on_c, 0, 42, 0
2, 9360, Note_on_c, 0, 62, 56
2, 9360, Note_on_c, 0, 66, 56
2, 9360, Note_on_c, 0, 54, 71
2, 9450, Note_on_c, 0, 54, 0
2, 9450, Note_on_c, 0, 66, 0
2, 9450, Note_on_c, 0, 62, 0
2, 9450, Note_on_c, 0, 64, 66
2, 9450, Note_on_c, 0, 67, 66
2, 9450, Note_on_c, 0, 47, 52
2, 9540, Note_on_c, 0, 47, 0
2, 9540, Note_on_c, 0, 67, 0
2, 9540, Note_on_c, 0, 64, 0
2, 9540, Note_on_c, 0, 66, 77
2, 9540, Note_on_c, 0, 69, 77
2, 9540, Note_on_c, 0, 62, 87
2, 9540, Note_on_c, 0, 46, 71
2, 9619, Note_on_c, 0, 46, 0
2, 9630, Note_on_c, 0, 38, 56
2, 9720, Note_on_c, 0, 38, 0
2, 9720, Note_on_c, 0, 62, 0
2, 9720, Note_on_c, 0, 61, 101
2, 9720, Note_on_c, 0, 45, 70
2, 9810, Note_on_c, 0, 45, 0
2, 9810, Note_on_c, 0, 54, 73
2, 9900, Note_on_c, 0, 54, 0
2, 9900, Note_on_c, 0, 61, 0
2, 9900, Note_on_c, 0, 60, 76
2, 9900, Note_on_c, 0, 44, 58
2, 9990, Note_on_c, 0, 44, 0
2, 9990, Note_on_c, 0, 38, 55
2, 10014, Note_on_c, 0, 66, 0
2, 10014, Note_on_c, 0, 69, 0
2, 10080, Note_on_c, 0, 60, 0
2, 10080, Note_on_c, 0, 38, 0
2, 10080, Note_on_c, 0, 60, 35
2, 10080, Note_on_c, 0, 64, 35
2, 10080, Note_on_c, 0, 52, 69
2, 10170, Note_on_c, 0, 52, 0
2, 10170, Note_on_c, 0, 64, 0
2, 10170, Note_on_c, 0, 60, 0
2, 10170, Note_on_c, 0, 62, 48
2, 10170, Note_on_c, 0, 66, 48
2, 10170, Note_on_c, 0, 45, 49
2, 10260, Note_on_c, 0, 45, 0
2, 10260, Note_on_c, 0, 66, 0
2, 10260, Note_on_c, 0, 62, 0
2, 10260, Note_on_c, 0, 64, 60
2, 10260, Note_on_c, 0, 67, 60
2, 10260, Note_on_c, 0, 60, 79
2, 10260, Note_on_c, 0, 44, 70
2, 10339, Note_on_c, 0, 44, 0
2, 10350, Note_on_c, 0, 36, 59
2, 10440, Note_on_c, 0, 36, 0
2, 10440, Note_on_c, 0, 60, 0
2, 10440, Note_on_c, 0, 59, 101
2, 10440, Note_on_c, 0, 43, 68
2, 10530, Note_on_c, 0, 43, 0
2, 10530, Note_on_c, 0, 52, 67
2, 10620, Note_on_c, 0, 52, 0
2, 10620, Note_on_c, 0, 59, 0
2, 10620, Note_on_c, 0, 58, 76
2, 10620, Note_on_c, 0, 42, 52
2, 10710, Note_on_c, 0, 42, 0
2, 10710, Note_on_c, 0, 36, 56
2, 10734, Note_on_c, 0, 64, 0
2, 10734, Note_on_c, 0, 67, 0
2, 10800, Note_on_c, 0, 58, 0
2, 10800, Note_on_c, 0, 36, 0
2, 10800, Note_on_c, 0, 59, 56
2, 10800, Note_on_c, 0, 62, 56
2, 10800, Note_on_c, 0, 50, 66
2, 10890, Note_on_c, 0, 50, 0
2, 10890, Note_on_c, 0, 62, 0
2, 10890, Note_on_c, 0, 59, 0
2, 10890, Note_on_c, 0, 61, 60
2, 10890, Note_on_c, 0, 64, 60
2, 10890, Note_on_c, 0, 43, 60
2, 10980, Note_on_c, 0, 43, 0
2, 10980, Note_on_c, 0, 64, 0
2, 10980, Note_on_c, 0, 61, 0
2, 10980, Note_on_c, 0, 62, 63
2, 10980, Note_on_c, 0, 66, 63
2, 10980, Note_on_c, 0, 42, 76
2, 11059, Note_on_c, 0, 42, 0
2, 11069, Note_on_c, 0, 66, 0
2, 11069, Note_on_c, 0, 62, 0
2, 11070, Note_on_c, 0, 35, 49
2, 11160, Note_on_c, 0, 35, 0
2, 11160, Note_on_c, 0, 54, 60
2, 11160, Note_on_c, 0, 62, 60
2, 11160, Note_on_c, 0, 66, 60
2, 11160, Note_on_c, 0, 50, 71
2, 11250, Note_on_c, 0, 50, 0
2, 11250, Note_on_c, 0, 54, 0
2, 11250, Note_on_c, 0, 62, 0
2, 11250, Note_on_c, 0, 66, 0
2, 11250, Note_on_c, 0, 64, 57
2, 11250, Note_on_c, 0, 43, 58
2, 11340, Note_on_c, 0, 43, 0
2, 11340, Note_on_c, 0, 64, 0
2, 11340, Note_on_c, 0, 54, 70
2, 11340, Note_on_c, 0, 62, 70
2, 11340, Note_on_c, 0, 66, 70
2, 11340, Note_on_c, 0, 42, 71
2, 11419, Note_on_c, 0, 42, 0
2, 11429, Note_on_c, 0, 54, 0
2, 11429, Note_on_c, 0, 62, 0
2, 11429, Note_on_c, 0, 66, 0
2, 11430, Note_on_c, 0, 34, 52
2, 11520, Note_on_c, 0, 34, 0
2, 11520, Note_on_c, 0, 54, 58
2, 11520, Note_on_c, 0, 61, 58
2, 11520, Note_on_c, 0, 66, 58
2, 11520, Note_on_c, 0, 50, 62
2, 11609, Note_on_c, 0, 66, 0
2, 11609, Note_on_c, 0, 54, 0
2, 11609, Note_on_c, 0, 61, 0
2, 11610, Note_on_c, 0, 50, 0
2, 11610, Note_on_c, 0, 42, 58
2, 11700, Note_on_c, 0, 42, 0
2, 11700, Note_on_c, 0, 54, 60
2, 11700, Note_on_c, 0, 60, 60
2, 11700, Note_on_c, 0, 66, 60
2, 11700, Note_on_c, 0, 40, 70
2, 11779, Note_on_c, 0, 40, 0
2, 11789, Note_on_c, 0, 54, 0
2, 11789, Note_on_c, 0, 60, 0
2, 11789, Note_on_c, 0, 66, 0
2, 11790, Note_on_c, 0, 33, 67
2, 11869, Note_on_c, 0, 33, 0
2, 11880, Note_on_c, 0, 59, 77
2, 11880, Note_on_c, 0, 66, 77
2, 11880, Note_on_c, 0, 50, 67
2, 11970, Note_on_c, 0, 50, 0
2, 11970, Note_on_c, 0, 66, 0
2, 11970, Note_on_c, 0, 59, 0
2, 11970, Note_on_c, 0, 69, 86
2, 11970, Note_on_c, 0, 40, 50
2, 12060, Note_on_c, 0, 40, 0
2, 12060, Note_on_c, 0, 69, 0
2, 12060, Note_on_c, 0, 59, 93
2, 12060, Note_on_c, 0, 67, 93
2, 12060, Note_on_c, 0, 71, 93
2, 12060, Note_on_c, 0, 38, 67
2, 12139, Note_on_c, 0, 38, 0
2, 12149, Note_on_c, 0, 59, 0
2, 12149, Note_on_c, 0, 67, 0
2, 12149, Note_on_c, 0, 71, 0
2, 12150, Note_on_c, 0, 31, 59
2, 12240, Note_on_c, 0, 57, 75
2, 12240, Note_on_c, 0, 61, 75
2, 12240, Note_on_c, 0, 66, 75
2, 12240, Note_on_c, 0, 43, 63
2, 12284, Note_on_c, 0, 43, 0
2, 12284, Note_on_c, 0, 31, 0
2, 12330, Note_on_c, 0, 57, 0
2, 12330, Note_on_c, 0, 61, 0
2, 12330, Note_on_c, 0, 66, 0
2, 12330, Note_on_c, 0, 64, 78
2, 12330, Note_on_c, 0, 33, 67
2, 12330, Note_on_c, 0, 45, 67
2, 12374, Note_on_c, 0, 45, 0
2, 12374, Note_on_c, 0, 33, 0
2, 12420, Note_on_c, 0, 64, 0
2, 12420, Note_on_c, 0, 54, 99
2, 12420, Note_on_c, 0, 59, 99
2, 12420, Note_on_c, 0, 62, 99
2, 12420, Note_on_c, 0, 35, 112
2, 12420, Note_on_c, 0, 47, 112
2, 12600, Note_on_c, 0, 47, 0
2, 12600, Note_on_c, 0, 62, 0
2, 12600, Note_on_c, 0, 54, 0
2, 12600, Note_on_c, 0, 59, 0
2, 12600, Note_on_c, 0, 35, 0
2, 12600, Note_on_c, 0, 57, 92
2, 12600, Note_on_c, 0, 61, 92
2, 12600, Note_on_c, 0, 66, 92
2, 12600, Note_on_c, 0, 31, 81
2, 12600, Note_on_c, 0, 43, 81
2, 12644, Note_on_c, 0, 43, 0
2, 12644, Note_on_c, 0, 31, 0
2, 12689, Note_on_c, 0, 57, 0
2, 12689, Note_on_c, 0, 61, 0
2, 12689, Note_on_c, 0, 66, 0
2, 12690, Note_on_c, 0, 33, 81
2, 12690, Note_on_c, 0, 45, 81
2, 12734, Note_on_c, 0, 45, 0
2, 12734, Note_on_c, 0, 33, 0
2, 12780, Note_on_c, 0, 54, 94
2, 12780, Note_on_c, 0, 58, 94
2, 12780, Note_on_c, 0, 62, 94
2, 12780, Note_on_c, 0, 34, 110
2, 12780, Note_on_c, 0, 46, 110
2, 12960, Note_on_c, 0, 46, 0
2, 12960, Note_on_c, 0, 62, 0
2, 12960, Note_on_c, 0, 54, 0
2, 12960, Note_on_c, 0, 58, 0
2, 12960, Note_on_c, 0, 34, 0
2, 12960, Note_on_c, 0, 57, 90
2, 12960, Note_on_c, 0, 61, 90
2, 12960, Note_on_c, 0, 66, 90
2, 12960, Note_on_c, 0, 31, 75
2, 12960, Note_on_c, 0, 43, 75
2, 13004, Note_on_c, 0, 43, 0
2, 13004, Note_on_c, 0, 31, 0
2, 13049, Note_on_c, 0, 57, 0
2, 13049, Note_on_c, 0, 61, 0
2, 13049, Note_on_c, 0, 66, 0
2, 13050, Note_on_c, 0, 32, 88
2, 13050, Note_on_c, 0, 44, 88
2, 13094, Note_on_c, 0, 44, 0
2, 13094, Note_on_c, 0, 32, 0
2, 13140, Note_on_c, 0, 54, 101
2, 13140, Note_on_c, 0, 57, 101
2, 13140, Note_on_c, 0, 62, 101
2, 13140, Note_on_c, 0, 33, 110
2, 13140, Note_on_c, 0, 45, 110
2, 13320, Note_on_c, 0, 45, 0
2, 13320, Note_on_c, 0, 62, 0
2, 13320, Note_on_c, 0, 54, 0
2, 13320, Note_on_c, 0, 57, 0
2, 13320, Note_on_c, 0, 33, 0
2, 13320, Note_on_c, 0, 51, 82
2, 13320, Note_on_c, 0, 57, 82
2, 13320, Note_on_c, 0, 61, 82
2, 13320, Note_on_c, 0, 29, 82
2, 13320, Note_on_c, 0, 41, 82
2, 13409, Note_on_c, 0, 41, 0
2, 13409, Note_on_c, 0, 29, 0
2, 13410, Note_on_c, 0, 51, 0
2, 13410, Note_on_c, 0, 57, 0
2, 13410, Note_on_c, 0, 61, 0
2, 13410, Note_on_c, 0, 62, 87
2, 13500, Note_on_c, 0, 62, 0
2, 13500, Note_on_c, 0, 52, 83
2, 13500, Note_on_c, 0, 58, 83
2, 13500, Note_on_c, 0, 61, 83
2, 13500, Note_on_c, 0, 30, 83
2, 13500, Note_on_c, 0, 42, 83
2, 13680, Note_on_c, 0, 42, 0
2, 13680, Note_on_c, 0, 61, 0
2, 13680, Note_on_c, 0, 52, 0
2, 13680, Note_on_c, 0, 58, 0
2, 13680, Note_on_c, 0, 30, 0
2, 13680, Note_on_c, 0, 50, 71
2, 13680, Note_on_c, 0, 59, 71
2, 13680, Note_on_c, 0, 35, 71
2, 13680, Note_on_c, 0, 42, 71
2, 13769, Note_on_c, 0, 59, 0
2, 13769, Note_on_c, 0, 50, 0
2, 13860, Note_on_c, 0, 35, 0
2, 13860, Note_on_c, 0, 42, 0
2, 13860, Note_on_c, 0, 50, 58
2, 13860, Note_on_c, 0, 59, 58
2, 13860, Note_on_c, 0, 35, 58
2, 13860, Note_on_c, 0, 42, 58
2, 14177, Note_on_c, 0, 42, 0
2, 14177, Note_on_c, 0, 50, 0
2, 14177, Note_on_c, 0, 59, 0
2, 14177, Note_on_c, 0, 35, 0
2, 14400, Note_on_c, 0, 54, 49
2, 14400, Note_on_c, 0, 59, 49
2, 14400, Note_on_c, 0, 62, 49
2, 14400, Note_on_c, 0, 35, 53
2, 14400, Note_on_c, 0, 47, 53
2, 14490, Note_on_c, 0, 62, 0
2, 14490, Note_on_c, 0, 54, 0
2, 14490, Note_on_c, 0, 59, 0
2, 14490, Note_on_c, 0, 64, 64
2, 14580, Note_on_c, 0, 64, 0
2, 14580, Note_on_c, 0, 35, 0
2, 14580, Note_on_c, 0, 47, 0
2, 14580, Note_on_c, 0, 54, 88
2, 14580, Note_on_c, 0, 61, 88
2, 14580, Note_on_c, 0, 66, 88
2, 14580, Note_on_c, 0, 33, 79
2, 14580, Note_on_c, 0, 45, 79
2, 14760, Note_on_c, 0, 45, 0
2, 14760, Note_on_c, 0, 66, 0
2, 14760, Note_on_c, 0, 54, 0
2, 14760, Note_on_c, 0, 61, 0
2, 14760, Note_on_c, 0, 33, 0
2, 14760, Note_on_c, 0, 50, 80
2, 14760, Note_on_c, 0, 55, 80
2, 14760, Note_on_c, 0, 59, 80
2, 14760, Note_on_c, 0, 38, 73
2, 14849, Note_on_c, 0, 59, 0
2, 14849, Note_on_c, 0, 50, 0
2, 14849, Note_on_c, 0, 55, 0
2, 14850, Note_on_c, 0, 38, 0
2, 14850, Note_on_c, 0, 40, 85
2, 14940, Note_on_c, 0, 40, 0
2, 14940, Note_on_c, 0, 50, 90
2, 14940, Note_on_c, 0, 57, 90
2, 14940, Note_on_c, 0, 62, 90
2, 14940, Note_on_c, 0, 30, 84
2, 14940, Note_on_c, 0, 42, 84
2, 15029, Note_on_c, 0, 42, 0
2, 15029, Note_on_c, 0, 62, 0
2, 15029, Note_on_c, 0, 50, 0
2, 15029, Note_on_c, 0, 57, 0
2, 15029, Note_on_c, 0, 30, 0
2, 15120, Note_on_c, 0, 56, 89
2, 15120, Note_on_c, 0, 61, 89
2, 15120, Note_on_c, 0, 64, 89
2, 15120, Note_on_c, 0, 37, 91
2, 15120, Note_on_c, 0, 49, 91
2, 15209, Note_on_c, 0, 49, 0
2, 15209, Note_on_c, 0, 64, 0
2, 15209, Note_on_c, 0, 56, 0
2, 15209, Note_on_c, 0, 61, 0
2, 15209, Note_on_c, 0, 37, 0
2, 15300, Note_on_c, 0, 57, 97
2, 15300, Note_on_c, 0, 61, 97
2, 15300, Note_on_c, 0, 66, 97
2, 15300, Note_on_c, 0, 30, 90
2, 15300, Note_on_c, 0, 42, 90
2, 15617, Note_on_c, 0, 42, 0
2, 15617, Note_on_c, 0, 66, 0
2, 15617, Note_on_c, 0, 57, 0
2, 15617, Note_on_c, 0, 61, 0
2, 15617, Note_on_c, 0, 30, 0
2, 15840, Note_on_c, 0, 71, 73
2, 15840, Note_on_c, 0, 74, 73
2, 15840, Note_on_c, 0, 66, 73
2, 15930, Note_on_c, 0, 66, 0
2, 15930, Note_on_c, 0, 74, 0
2, 15930, Note_on_c, 0, 71, 0
2, 15930, Note_on_c, 0, 76, 86
2, 15930, Note_on_c, 0, 73, 96
2, 16020, Note_on_c, 0, 73, 0
2, 16020, Note_on_c, 0, 76, 0
2, 16020, Note_on_c, 0, 71, 117
2, 16020, Note_on_c, 0, 74, 117
2, 16020, Note_on_c, 0, 78, 117
2, 16200, Note_on_c, 0, 78, 0
2, 16200, Note_on_c, 0, 74, 0
2, 16200, Note_on_c, 0, 71, 0
2, 16200, Note_on_c, 0, 62, 52
2, 16200, Note_on_c, 0, 71, 52
2, 16200, Note_on_c, 0, 54, 55
2, 16200, Note_on_c, 0, 59, 55
2, 16289, Note_on_c, 0, 59, 0
2, 16289, Note_on_c, 0, 54, 0
2, 16380, Note_on_c, 0, 71, 0
2, 16380, Note_on_c, 0, 62, 0
2, 16380, Note_on_c, 0, 66, 68
2, 16380, Note_on_c, 0, 74, 68
2, 16380, Note_on_c, 0, 57, 63
2, 16380, Note_on_c, 0, 62, 63
2, 16469, Note_on_c, 0, 62, 0
2, 16469, Note_on_c, 0, 66, 0
2, 16469, Note_on_c, 0, 74, 0
2, 16469, Note_on_c, 0, 57, 0
2, 16560, Note_on_c, 0, 69, 65
2, 16560, Note_on_c, 0, 76, 65
2, 16560, Note_on_c, 0, 61, 70
2, 16560, Note_on_c, 0, 66, 70
2, 16649, Note_on_c, 0, 76, 0
2, 16649, Note_on_c, 0, 69, 0
2, 16650, Note_on_c, 0, 61, 0
2, 16650, Note_on_c, 0, 66, 0
2, 16650, Note_on_c, 0, 67, 60
2, 16740, Note_on_c, 0, 67, 0
2, 16740, Note_on_c, 0, 74, 65
2, 16740, Note_on_c, 0, 78, 65
2, 16740, Note_on_c, 0, 62, 61
2, 16740, Note_on_c, 0, 69, 61
2, 16829, Note_on_c, 0, 69, 0
2, 16829, Note_on_c, 0, 74, 0
2, 16829, Note_on_c, 0, 78, 0
2, 16829, Note_on_c, 0, 62, 0
2, 16920, Note_on_c, 0, 71, 60
2, 16920, Note_on_c, 0, 76, 60
2, 16920, Note_on_c, 0, 79, 60
2, 16920, Note_on_c, 0, 64, 56
2, 16920, Note_on_c, 0, 67, 56
2, 17010, Note_on_c, 0, 67, 0
2, 17010, Note_on_c, 0, 79, 0
2, 17010, Note_on_c, 0, 71, 0
2, 17010, Note_on_c, 0, 76, 0
2, 17010, Note_on_c, 0, 64, 0
2, 17010, Note_on_c, 0, 81, 73
2, 17010, Note_on_c, 0, 73, 69
2, 17100, Note_on_c, 0, 73, 0
2, 17100, Note_on_c, 0, 81, 0
2, 17100, Note_on_c, 0, 74, 86
2, 17100, Note_on_c, 0, 83, 86
2, 17100, Note_on_c, 0, 59, 80
2, 17100, Note_on_c, 0, 66, 80
2, 17190, Note_on_c, 0, 83, 0
2, 17190, Note_on_c, 0, 74, 0
2, 17190, Note_on_c, 0, 83, 83
2, 17280, Note_on_c, 0, 83, 0
2, 17280, Note_on_c, 0, 59, 0
2, 17280, Note_on_c, 0, 66, 0
2, 17280, Note_on_c, 0, 83, 90
2, 17370, Note_on_c, 0, 83, 0
2, 17370, Note_on_c, 0, 83, 87
2, 17460, Note_on_c, 0, 83, 0
2, 17460, Note_on_c, 0, 83, 89
2, 17640, Note_on_c, 0, 83, 0
2, 17640, Note_on_c, 0, 71, 93
2, 17640, Note_on_c, 0, 74, 93
2, 17640, Note_on_c, 0, 81, 93
2, 17640, Note_on_c, 0, 66, 54
2, 17730, Note_on_c, 0, 66, 0
2, 17730, Note_on_c, 0, 67, 63
2, 17820, Note_on_c, 0, 67, 0
2, 17820, Note_on_c, 0, 69, 89
2, 17957, Note_on_c, 0, 81, 0
2, 17957, Note_on_c, 0, 71, 0
2, 17957, Note_on_c, 0, 74, 0
2, 18000, Note_on_c, 0, 69, 0
2, 18000, Note_on_c, 0, 73, 94
2, 18000, Note_on_c, 0, 75, 94
2, 18000, Note_on_c, 0, 79, 94
2, 18000, Note_on_c, 0, 67, 60
2, 18090, Note_on_c, 0, 67, 0
2, 18090, Note_on_c, 0, 69, 73
2, 18180, Note_on_c, 0, 69, 0
2, 18180, Note_on_c, 0, 71, 86
2, 18270, Note_on_c, 0, 71, 0
2, 18270, Note_on_c, 0, 71, 82
2, 18360, Note_on_c, 0, 71, 0
2, 18360, Note_on_c, 0, 79, 0
2, 18360, Note_on_c, 0, 75, 0
2, 18360, Note_on_c, 0, 73, 0
2, 18360, Note_on_c, 0, 69, 84
2, 18360, Note_on_c, 0, 78, 84
2, 18360, Note_on_c, 0, 71, 87
2, 18449, Note_on_c, 0, 78, 0
2, 18449, Note_on_c, 0, 69, 0
2, 18450, Note_on_c, 0, 71, 0
2, 18450, Note_on_c, 0, 71, 83
2, 18540, Note_on_c, 0, 71, 0
2, 18540, Note_on_c, 0, 67, 84
2, 18540, Note_on_c, 0, 76, 84
2, 18540, Note_on_c, 0, 71, 88
2, 18584, Note_on_c, 0, 76, 0
2, 18584, Note_on_c, 0, 67, 0
2, 18630, Note_on_c, 0, 74, 75
2, 18674, Note_on_c, 0, 74, 0
2, 18720, Note_on_c, 0, 71, 0
2, 18720, Note_on_c, 0, 73, 80
2, 18720, Note_on_c, 0, 62, 70
2, 18764, Note_on_c, 0, 73, 0
2, 18810, Note_on_c, 0, 62, 0
2, 18810, Note_on_c, 0, 71, 76
2, 18810, Note_on_c, 0, 64, 90
2, 18900, Note_on_c, 0, 64, 0
2, 18900, Note_on_c, 0, 74, 121
2, 18900, Note_on_c, 0, 83, 121
2, 18900, Note_on_c, 0, 59, 120
2, 18900, Note_on_c, 0, 66, 120
2, 19080, Note_on_c, 0, 66, 0
2, 19080, Note_on_c, 0, 59, 0
2, 19080, Note_on_c, 0, 54, 78
2, 19080, Note_on_c, 0, 59, 78
2, 19080, Note_on_c, 0, 47, 103
2, 19080, Note_on_c, 0, 50, 103
2, 19169, Note_on_c, 0, 50, 0
2, 19169, Note_on_c, 0, 59, 0
2, 19169, Note_on_c, 0, 54, 0
2, 19169, Note_on_c, 0, 47, 0
2, 19260, Note_on_c, 0, 57, 89
2, 19260, Note_on_c, 0, 62, 89
2, 19260, Note_on_c, 0, 42, 99
2, 19260, Note_on_c, 0, 50, 99
2, 19349, Note_on_c, 0, 50, 0
2, 19349, Note_on_c, 0, 62, 0
2, 19349, Note_on_c, 0, 57, 0
2, 19349, Note_on_c, 0, 42, 0
2, 19374, Note_on_c, 0, 74, 0
2, 19374, Note_on_c, 0, 83, 0
2, 19374, Note_on_c, 0, 71, 0
2, 19440, Note_on_c, 0, 69, 88
2, 19440, Note_on_c, 0, 76, 88
2, 19440, Note_on_c, 0, 81, 88
2, 19440, Note_on_c, 0, 49, 94
2, 19440, Note_on_c, 0, 57, 94
2, 19440, Note_on_c, 0, 64, 94
2, 19529, Note_on_c, 0, 64, 0
2, 19529, Note_on_c, 0, 49, 0
2, 19529, Note_on_c, 0, 57, 0
2, 19530, Note_on_c, 0, 69, 0
2, 19530, Note_on_c, 0, 81, 0
2, 19530, Note_on_c, 0, 76, 0
2, 19530, Note_on_c, 0, 79, 76
2, 19620, Note_on_c, 0, 79, 0
2, 19620, Note_on_c, 0, 74, 78
2, 19620, Note_on_c, 0, 78, 78
2, 19620, Note_on_c, 0, 50, 94
2, 19620, Note_on_c, 0, 57, 94
2, 19620, Note_on_c, 0, 66, 94
2, 19709, Note_on_c, 0, 66, 0
2, 19709, Note_on_c, 0, 50, 0
2, 19709, Note_on_c, 0, 74, 0
2, 19709, Note_on_c, 0, 78, 0
2, 19709, Note_on_c, 0, 57, 0
2, 19800, Note_on_c, 0, 76, 80
2, 19800, Note_on_c, 0, 67, 89
2, 19800, Note_on_c, 0, 52, 78
2, 19800, Note_on_c, 0, 59, 78
2, 19800, Note_on_c, 0, 64, 78
2, 19889, Note_on_c, 0, 64, 0
2, 19889, Note_on_c, 0, 52, 0
2, 19889, Note_on_c, 0, 59, 0
2, 19889, Note_on_c, 0, 76, 0
2, 19890, Note_on_c, 0, 67, 0
2, 19890, Note_on_c, 0, 69, 104
2, 19980, Note_on_c, 0, 69, 0
2, 19980, Note_on_c, 0, 74, 80
2, 19980, Note_on_c, 0, 71, 108
2, 19980, Note_on_c, 0, 55, 121
2, 19980, Note_on_c, 0, 59, 121
2, 19980, Note_on_c, 0, 67, 121
2, 20069, Note_on_c, 0, 67, 0
2, 20069, Note_on_c, 0, 55, 0
2, 20069, Note_on_c, 0, 59, 0
2, 20069, Note_on_c, 0, 74, 0
2, 20070, Note_on_c, 0, 71, 0
2, 20070, Note_on_c, 0, 71, 100
2, 20160, Note_on_c, 0, 71, 0
2, 20160, Note_on_c, 0, 73, 81
2, 20160, Note_on_c, 0, 71, 101
2, 20160, Note_on_c, 0, 57, 87
2, 20160, Note_on_c, 0, 61, 87
2, 20160, Note_on_c, 0, 67, 87
2, 20249, Note_on_c, 0, 67, 0
2, 20249, Note_on_c, 0, 57, 0
2, 20249, Note_on_c, 0, 61, 0
2, 20249, Note_on_c, 0, 73, 0
2, 20250, Note_on_c, 0, 71, 0
2, 20250, Note_on_c, 0, 71, 100
2, 20340, Note_on_c, 0, 71, 0
2, 20340, Note_on_c, 0, 71, 74
2, 20340, Note_on_c, 0, 71, 104
2, 20340, Note_on_c, 0, 59, 89
2, 20340, Note_on_c, 0, 62, 89
2, 20340, Note_on_c, 0, 67, 89
2, 20429, Note_on_c, 0, 67, 0
2, 20429, Note_on_c, 0, 59, 0
2, 20429, Note_on_c, 0, 62, 0
2, 20429, Note_on_c, 0, 71, 0
2, 20520, Note_on_c, 0, 71, 0
2, 20520, Note_on_c, 0, 83, 118
2, 20520, Note_on_c, 0, 71, 108
2, 20520, Note_on_c, 0, 74, 108
2, 20520, Note_on_c, 0, 62, 88
2, 20520, Note_on_c, 0, 68, 88
2, 20564, Note_on_c, 0, 68, 0
2, 20564, Note_on_c, 0, 62, 0
2, 20610, Note_on_c, 0, 52, 72
2, 20654, Note_on_c, 0, 52, 0
2, 20700, Note_on_c, 0, 74, 0
2, 20700, Note_on_c, 0, 73, 96
2, 20700, Note_on_c, 0, 61, 106
2, 20700, Note_on_c, 0, 67, 106
2, 20744, Note_on_c, 0, 67, 0
2, 20744, Note_on_c, 0, 61, 0
2, 20790, Note_on_c, 0, 57, 77
2, 20834, Note_on_c, 0, 57, 0
2, 20837, Note_on_c, 0, 83, 0
2, 20880, Note_on_c, 0, 73, 0
2, 20880, Note_on_c, 0, 71, 0
2, 20880, Note_on_c, 0, 81, 86
2, 20880, Note_on_c, 0, 69, 97
2, 20880, Note_on_c, 0, 72, 97
2, 20880, Note_on_c, 0, 60, 106
2, 20880, Note_on_c, 0, 66, 106
2, 20924, Note_on_c, 0, 66, 0
2, 20924, Note_on_c, 0, 60, 0
2, 20970, Note_on_c, 0, 81, 0
2, 20970, Note_on_c, 0, 79, 79
2, 20970, Note_on_c, 0, 50, 79
2, 21014, Note_on_c, 0, 50, 0
2, 21060, Note_on_c, 0, 69, 0
2, 21060, Note_on_c, 0, 72, 0
2, 21060, Note_on_c, 0, 79, 0
2, 21060, Note_on_c, 0, 69, 86
2, 21060, Note_on_c, 0, 78, 86
2, 21060, Note_on_c, 0, 59, 96
2, 21104, Note_on_c, 0, 59, 0
2, 21104, Note_on_c, 0, 78, 0
2, 21104, Note_on_c, 0, 69, 0
2, 21150, Note_on_c, 0, 67, 80
2, 21150, Note_on_c, 0, 76, 80
2, 21150, Note_on_c, 0, 55, 78
2, 21194, Note_on_c, 0, 55, 0
2, 21194, Note_on_c, 0, 76, 0
2, 21194, Note_on_c, 0, 67, 0
2, 21240, Note_on_c, 0, 66, 73
2, 21240, Note_on_c, 0, 74, 73
2, 21240, Note_on_c, 0, 58, 86
2, 21284, Note_on_c, 0, 58, 0
2, 21284, Note_on_c, 0, 74, 0
2, 21284, Note_on_c, 0, 66, 0
2, 21330, Note_on_c, 0, 64, 67
2, 21330, Note_on_c, 0, 73, 67
2, 21330, Note_on_c, 0, 54, 82
2, 21374, Note_on_c, 0, 54, 0
2, 21374, Note_on_c, 0, 73, 0
2, 21374, Note_on_c, 0, 64, 0
2, 21420, Note_on_c, 0, 62, 61
2, 21420, Note_on_c, 0, 71, 61
2, 21420, Note_on_c, 0, 47, 60
2, 21420, Note_on_c, 0, 54, 60
2, 21509, Note_on_c, 0, 71, 0
2, 21509, Note_on_c, 0, 62, 0
2, 21600, Note_on_c, 0, 47, 0
2, 21600, Note_on_c, 0, 54, 0
2, 21600, Note_on_c, 0, 78, 74
2, 21600, Note_on_c, 0, 69, 76
2, 21600, Note_on_c, 0, 74, 76
2, 21690, Note_on_c, 0, 74, 0
2, 21690, Note_on_c, 0, 69, 0
2, 21690, Note_on_c, 0, 78, 0
2, 21690, Note_on_c, 0, 76, 70
2, 21690, Note_on_c, 0, 79, 70
2, 21690, Note_on_c, 0, 73, 63
2, 21780, Note_on_c, 0, 73, 0
2, 21780, Note_on_c, 0, 79, 0
2, 21780, Note_on_c, 0, 76, 0
2, 21780, Note_on_c, 0, 74, 60
2, 21780, Note_on_c, 0, 78, 60
2, 21780, Note_on_c, 0, 71, 58
2, 21869, Note_on_c, 0, 78, 0
2, 21869, Note_on_c, 0, 74, 0
2, 21870, Note_on_c, 0, 71, 0
2, 21870, Note_on_c, 0, 66, 52
2, 21960, Note_on_c, 0, 66, 0
2, 21960, Note_on_c, 0, 73, 59
2, 21960, Note_on_c, 0, 76, 59
2, 21960, Note_on_c, 0, 64, 65
2, 21960, Note_on_c, 0, 69, 65
2, 22050, Note_on_c, 0, 69, 0
2, 22050, Note_on_c, 0, 73, 0
2, 22050, Note_on_c, 0, 76, 0
2, 22050, Note_on_c, 0, 64, 0
2, 22050, Note_on_c, 0, 79, 68
2, 22050, Note_on_c, 0, 67, 59
2, 22140, Note_on_c, 0, 67, 0
2, 22140, Note_on_c, 0, 79, 0
2, 22140, Note_on_c, 0, 73, 55
2, 22140, Note_on_c, 0, 78, 55
2, 22140, Note_on_c, 0, 66, 65
2, 22140, Note_on_c, 0, 69, 65
2, 22229, Note_on_c, 0, 78, 0
2, 22229, Note_on_c, 0, 73, 0
2, 22230, Note_on_c, 0, 66, 0
2, 22230, Note_on_c, 0, 69, 0
2, 22230, Note_on_c, 0, 61, 48
2, 22320, Note_on_c, 0, 61, 0
2, 22320, Note_on_c, 0, 71, 57
2, 22320, Note_on_c, 0, 74, 57
2, 22320, Note_on_c, 0, 62, 71
2, 22320, Note_on_c, 0, 69, 71
2, 22410, Note_on_c, 0, 69, 0
2, 22410, Note_on_c, 0, 71, 0
2, 22410, Note_on_c, 0, 74, 0
2, 22410, Note_on_c, 0, 73, 59
2, 22410, Note_on_c, 0, 76, 59
2, 22410, Note_on_c, 0, 67, 60
2, 22500, Note_on_c, 0, 67, 0
2, 22500, Note_on_c, 0, 76, 0
2, 22500, Note_on_c, 0, 73, 0
2, 22500, Note_on_c, 0, 74, 66
2, 22500, Note_on_c, 0, 78, 66
2, 22500, Note_on_c, 0, 66, 55
2, 22589, Note_on_c, 0, 78, 0
2, 22589, Note_on_c, 0, 74, 0
2, 22590, Note_on_c, 0, 62, 0
2, 22590, Note_on_c, 0, 66, 0
2, 22590, Note_on_c, 0, 59, 52
2, 22680, Note_on_c, 0, 59, 0
2, 22680, Note_on_c, 0, 72, 51
2, 22680, Note_on_c, 0, 69, 74
2, 22770, Note_on_c, 0, 69, 0
2, 22770, Note_on_c, 0, 72, 0
2, 22770, Note_on_c, 0, 76, 63
2, 22770, Note_on_c, 0, 54, 51
2, 22860, Note_on_c, 0, 54, 0
2, 22860, Note_on_c, 0, 76, 0
2, 22860, Note_on_c, 0, 73, 78
2, 22860, Note_on_c, 0, 78, 78
2, 22860, Note_on_c, 0, 64, 74
2, 22950, Note_on_c, 0, 64, 0
2, 22950, Note_on_c, 0, 54, 56
2, 23018, Note_on_c, 0, 78, 0
2, 23018, Note_on_c, 0, 73, 0
2, 23040, Note_on_c, 0, 54, 0
2, 23040, Note_on_c, 0, 70, 50
2, 23040, Note_on_c, 0, 67, 78
2, 23130, Note_on_c, 0, 67, 0
2, 23130, Note_on_c, 0, 70, 0
2, 23130, Note_on_c, 0, 76, 70
2, 23130, Note_on_c, 0, 54, 58
2, 23220, Note_on_c, 0, 54, 0
2, 23220, Note_on_c, 0, 76, 0
2, 23220, Note_on_c, 0, 71, 75
2, 23220, Note_on_c, 0, 78, 75
2, 23220, Note_on_c, 0, 62, 68
2, 23310, Note_on_c, 0, 62, 0
2, 23310, Note_on_c, 0, 54, 54
2, 23378, Note_on_c, 0, 78, 0
2, 23378, Note_on_c, 0, 71, 0
2, 23400, Note_on_c, 0, 54, 0
2, 23400, Note_on_c, 0, 69, 48
2, 23400, Note_on_c, 0, 66, 76
2, 23490, Note_on_c, 0, 66, 0
2, 23490, Note_on_c, 0, 69, 0
2, 23490, Note_on_c, 0, 76, 70
2, 23490, Note_on_c, 0, 54, 56
2, 23580, Note_on_c, 0, 54, 0
2, 23580, Note_on_c, 0, 76, 0
2, 23580, Note_on_c, 0, 70, 81
2, 23580, Note_on_c, 0, 78, 81
2, 23580, Note_on_c, 0, 61, 71
2, 23670, Note_on_c, 0, 61, 0
2, 23670, Note_on_c, 0, 54, 53
2, 23738, Note_on_c, 0, 78, 0
2, 23738, Note_on_c, 0, 70, 0
2, 23760, Note_on_c, 0, 54, 0
2, 23760, Note_on_c, 0, 64, 48
2, 23760, Note_on_c, 0, 67, 48
2, 23760, Note_on_c, 0, 62, 76
2, 23850, Note_on_c, 0, 62, 0
2, 23850, Note_on_c, 0, 67, 0
2, 23850, Note_on_c, 0, 64, 0
2, 23850, Note_on_c, 0, 66, 62
2, 23850, Note_on_c, 0, 69, 62
2, 23850, Note_on_c, 0, 61, 59
2, 23940, Note_on_c, 0, 61, 0
2, 23940, Note_on_c, 0, 69, 0
2, 23940, Note_on_c, 0, 66, 0
2, 23940, Note_on_c, 0, 67, 77
2, 23940, Note_on_c, 0, 71, 77
2, 23940, Note_on_c, 0, 59, 59
2, 24030, Note_on_c, 0, 59, 0
2, 24030, Note_on_c, 0, 52, 56
2, 24098, Note_on_c, 0, 71, 0
2, 24098, Note_on_c, 0, 67, 0
2, 24120, Note_on_c, 0, 52, 0
2, 24120, Note_on_c, 0, 65, 53
2, 24120, Note_on_c, 0, 57, 63
2, 24210, Note_on_c, 0, 57, 0
2, 24210, Note_on_c, 0, 65, 0
2, 24210, Note_on_c, 0, 69, 64
2, 24210, Note_on_c, 0, 42, 51
2, 24300, Note_on_c, 0, 42, 0
2, 24300, Note_on_c, 0, 69, 0
2, 24300, Note_on_c, 0, 66, 72
2, 24300, Note_on_c, 0, 71, 72
2, 24300, Note_on_c, 0, 50, 65
2, 24390, Note_on_c, 0, 50, 0
2, 24390, Note_on_c, 0, 42, 57
2, 24458, Note_on_c, 0, 71, 0
2, 24458, Note_on_c, 0, 66, 0
2, 24480, Note_on_c, 0, 42, 0
2, 24480, Note_on_c, 0, 63, 44
2, 24480, Note_on_c, 0, 55, 69
2, 24570, Note_on_c, 0, 55, 0
2, 24570, Note_on_c, 0, 63, 0
2, 24570, Note_on_c, 0, 69, 66
2, 24570, Note_on_c, 0, 42, 51
2, 24660, Note_on_c, 0, 42, 0
2, 24660, Note_on_c, 0, 69, 0
2, 24660, Note_on_c, 0, 64, 83
2, 24660, Note_on_c, 0, 71, 83
2, 24660, Note_on_c, 0, 49, 60
2, 24750, Note_on_c, 0, 49, 0
2, 24750, Note_on_c, 0, 42, 56
2, 24818, Note_on_c, 0, 71, 0
2, 24818, Note_on_c, 0, 64, 0
2, 24840, Note_on_c, 0, 42, 0
2, 24840, Note_on_c, 0, 61, 43
2, 24840, Note_on_c, 0, 54, 67
2, 24930, Note_on_c, 0, 54, 0
2, 24930, Note_on_c, 0, 61, 0
2, 24930, Note_on_c, 0, 69, 73
2, 24930, Note_on_c, 0, 42, 53
2, 25020, Note_on_c, 0, 42, 0
2, 25020, Note_on_c, 0, 69, 0
2, 25020, Note_on_c, 0, 62, 78
2, 25020, Note_on_c, 0, 71, 78
2, 25020, Note_on_c, 0, 47, 64
2, 25110, Note_on_c, 0, 47, 0
2, 25110, Note_on_c, 0, 42, 58
2, 25178, Note_on_c, 0, 71, 0
2, 25178, Note_on_c, 0, 62, 0
2, 25200, Note_on_c, 0, 42, 0
2, 25200, Note_on_c, 0, 62, 49
2, 25200, Note_on_c, 0, 66, 49
2, 25200, Note_on_c, 0, 54, 63
2, 25290, Note_on_c, 0, 54, 0
2, 25290, Note_on_c, 0, 66, 0
2, 25290, Note_on_c, 0, 62, 0
2, 25290, Note_on_c, 0, 64, 66
2, 25290, Note_on_c, 0, 67, 66
2, 25290, Note_on_c, 0, 47, 58
2, 25380, Note_on_c, 0, 47, 0
2, 25380, Note_on_c, 0, 67, 0
2, 25380, Note_on_c, 0, 64, 0
2, 25380, Note_on_c, 0, 66, 77
2, 25380, Note_on_c, 0, 69, 77
2, 25380, Note_on_c, 0, 62, 66
2, 25380, Note_on_c, 0, 46, 70
2, 25459, Note_on_c, 0, 46, 0
2, 25470, Note_on_c, 0, 38, 53
2, 25560, Note_on_c, 0, 38, 0
2, 25560, Note_on_c, 0, 62, 0
2, 25560, Note_on_c, 0, 61, 76
2, 25560, Note_on_c, 0, 45, 64
2, 25650, Note_on_c, 0, 45, 0
2, 25650, Note_on_c, 0, 54, 72
2, 25740, Note_on_c, 0, 54, 0
2, 25740, Note_on_c, 0, 61, 0
2, 25740, Note_on_c, 0, 60, 50
2, 25740, Note_on_c, 0, 44, 54
2, 25830, Note_on_c, 0, 44, 0
2, 25830, Note_on_c, 0, 38, 62
2, 25854, Note_on_c, 0, 66, 0
2, 25854, Note_on_c, 0, 69, 0
2, 25920, Note_on_c, 0, 60, 0
2, 25920, Note_on_c, 0, 38, 0
2, 25920, Note_on_c, 0, 60, 35
2, 25920, Note_on_c, 0, 64, 35
2, 25920, Note_on_c, 0, 52, 67
2, 26010, Note_on_c, 0, 52, 0
2, 26010, Note_on_c, 0, 64, 0
2, 26010, Note_on_c, 0, 60, 0
2, 26010, Note_on_c, 0, 62, 48
2, 26010, Note_on_c, 0, 66, 48
2, 26010, Note_on_c, 0, 45, 59
2, 26100, Note_on_c, 0, 45, 0
2, 26100, Note_on_c, 0, 66, 0
2, 26100, Note_on_c, 0, 62, 0
2, 26100, Note_on_c, 0, 64, 60
2, 26100, Note_on_c, 0, 67, 60
2, 26100, Note_on_c, 0, 60, 50
2, 26100, Note_on_c, 0, 44, 68
2, 26179, Note_on_c, 0, 44, 0
2, 26190, Note_on_c, 0, 36, 60
2, 26280, Note_on_c, 0, 36, 0
2, 26280, Note_on_c, 0, 60, 0
2, 26280, Note_on_c, 0, 59, 76
2, 26280, Note_on_c, 0, 43, 63
2, 26370, Note_on_c, 0, 43, 0
2, 26370, Note_on_c, 0, 52, 63
2, 26460, Note_on_c, 0, 52, 0
2, 26460, Note_on_c, 0, 59, 0
2, 26460, Note_on_c, 0, 58, 50
2, 26460, Note_on_c, 0, 42, 53
2, 26550, Note_on_c, 0, 42, 0
2, 26550, Note_on_c, 0, 36, 53
2, 26574, Note_on_c, 0, 64, 0
2, 26574, Note_on_c, 0, 67, 0
2, 26640, Note_on_c, 0, 58, 0
2, 26640, Note_on_c, 0, 36, 0
2, 26640, Note_on_c, 0, 59, 50
2, 26640, Note_on_c, 0, 62, 50
2, 26640, Note_on_c, 0, 50, 68
2, 26730, Note_on_c, 0, 50, 0
2, 26730, Note_on_c, 0, 62, 0
2, 26730, Note_on_c, 0, 59, 0
2, 26730, Note_on_c, 0, 61, 62
2, 26730, Note_on_c, 0, 64, 62
2, 26730, Note_on_c, 0, 43, 54
2, 26820, Note_on_c, 0, 43, 0
2, 26820, Note_on_c, 0, 64, 0
2, 26820, Note_on_c, 0, 61, 0
2, 26820, Note_on_c, 0, 62, 63
2, 26820, Note_on_c, 0, 66, 63
2, 26820, Note_on_c, 0, 42, 70
2, 26899, Note_on_c, 0, 42, 0
2, 26909, Note_on_c, 0, 66, 0
2, 26909, Note_on_c, 0, 62, 0
2, 26910, Note_on_c, 0, 35, 50
2, 27000, Note_on_c, 0, 35, 0
2, 27000, Note_on_c, 0, 54, 64
2, 27000, Note_on_c, 0, 62, 64
2, 27000, Note_on_c, 0, 66, 64
2, 27000, Note_on_c, 0, 50, 69
2, 27090, Note_on_c, 0, 50, 0
2, 27090, Note_on_c, 0, 54, 0
2, 27090, Note_on_c, 0, 62, 0
2, 27090, Note_on_c, 0, 66, 0
2, 27090, Note_on_c, 0, 64, 59
2, 27090, Note_on_c, 0, 43, 52
2, 27180, Note_on_c, 0, 43, 0
2, 27180, Note_on_c, 0, 64, 0
2, 27180, Note_on_c, 0, 54, 65
2, 27180, Note_on_c, 0, 62, 65
2, 27180, Note_on_c, 0, 66, 65
2, 27180, Note_on_c, 0, 42, 70
2, 27259, Note_on_c, 0, 42, 0
2, 27269, Note_on_c, 0, 54, 0
2, 27269, Note_on_c, 0, 62, 0
2, 27269, Note_on_c, 0, 66, 0
2, 27270, Note_on_c, 0, 34, 55
2, 27360, Note_on_c, 0, 34, 0
2, 27360, Note_on_c, 0, 54, 60
2, 27360, Note_on_c, 0, 61, 60
2, 27360, Note_on_c, 0, 66, 60
2, 27360, Note_on_c, 0, 50, 67
2, 27449, Note_on_c, 0, 66, 0
2, 27449, Note_on_c, 0, 54, 0
2, 27449, Note_on_c, 0, 61, 0
2, 27450, Note_on_c, 0, 50, 0
2, 27450, Note_on_c, 0, 42, 54
2, 27540, Note_on_c, 0, 42, 0
2, 27540, Note_on_c, 0, 54, 60
2, 27540, Note_on_c, 0, 60, 60
2, 27540, Note_on_c, 0, 66, 60
2, 27540, Note_on_c, 0, 40, 70
2, 27619, Note_on_c, 0, 40, 0
2, 27629, Note_on_c, 0, 54, 0
2, 27629, Note_on_c, 0, 60, 0
2, 27629, Note_on_c, 0, 66, 0
2, 27630, Note_on_c, 0, 33, 69
2, 27709, Note_on_c, 0, 33, 0
2, 27720, Note_on_c, 0, 59, 77
2, 27720, Note_on_c, 0, 66, 77
2, 27720, Note_on_c, 0, 50, 69
2, 27810, Note_on_c, 0, 50, 0
2, 27810, Note_on_c, 0, 66, 0
2, 27810, Note_on_c, 0, 59, 0
2, 27810, Note_on_c, 0, 69, 86
2, 27810, Note_on_c, 0, 40, 56
2, 27900, Note_on_c, 0, 40, 0
2, 27900, Note_on_c, 0, 69, 0
2, 27900, Note_on_c, 0, 59, 94
2, 27900, Note_on_c, 0, 67, 94
2, 27900, Note_on_c, 0, 71, 94
2, 27900, Note_on_c, 0, 38, 66
2, 27979, Note_on_c, 0, 38, 0
2, 27989, Note_on_c, 0, 59, 0
2, 27989, Note_on_c, 0, 67, 0
2, 27989, Note_on_c, 0, 71, 0
2, 27990, Note_on_c, 0, 31, 51
2, 28080, Note_on_c, 0, 57, 77
2, 28080, Note_on_c, 0, 61, 77
2, 28080, Note_on_c, 0, 66, 77
2, 28080, Note_on_c, 0, 43, 64
2, 28124, Note_on_c, 0, 43, 0
2, 28124, Note_on_c, 0, 31, 0
2, 28170, Note_on_c, 0, 57, 0
2, 28170, Note_on_c, 0, 61, 0
2, 28170, Note_on_c, 0, 66, 0
2, 28170, Note_on_c, 0, 64, 81
2, 28170, Note_on_c, 0, 33, 65
2, 28170, Note_on_c, 0, 45, 65
2, 28214, Note_on_c, 0, 45, 0
2, 28214, Note_on_c, 0, 33, 0
2, 28260, Note_on_c, 0, 64, 0
2, 28260, Note_on_c, 0, 54, 99
2, 28260, Note_on_c, 0, 59, 99
2, 28260, Note_on_c, 0, 62, 99
2, 28260, Note_on_c, 0, 35, 109
2, 28260, Note_on_c, 0, 47, 109
2, 28440, Note_on_c, 0, 47, 0
2, 28440, Note_on_c, 0, 62, 0
2, 28440, Note_on_c, 0, 54, 0
2, 28440, Note_on_c, 0, 59, 0
2, 28440, Note_on_c, 0, 35, 0
2, 28440, Note_on_c, 0, 57, 97
2, 28440, Note_on_c, 0, 61, 97
2, 28440, Note_on_c, 0, 66, 97
2, 28440, Note_on_c, 0, 31, 81
2, 28440, Note_on_c, 0, 43, 81
2, 28484, Note_on_c, 0, 43, 0
2, 28484, Note_on_c, 0, 31, 0
2, 28529, Note_on_c, 0, 57, 0
2, 28529, Note_on_c, 0, 61, 0
2, 28529, Note_on_c, 0, 66, 0
2, 28530, Note_on_c, 0, 33, 82
2, 28530, Note_on_c, 0, 45, 82
2, 28574, Note_on_c, 0, 45, 0
2, 28574, Note_on_c, 0, 33, 0
2, 28620, Note_on_c, 0, 54, 100
2, 28620, Note_on_c, 0, 58, 100
2, 28620, Note_on_c, 0, 62, 100
2, 28620, Note_on_c, 0, 34, 111
2, 28620, Note_on_c, 0, 46, 111
2, 28800, Note_on_c, 0, 46, 0
2, 28800, Note_on_c, 0, 62, 0
2, 28800, Note_on_c, 0, 54, 0
2, 28800, Note_on_c, 0, 58, 0
2, 28800, Note_on_c, 0, 34, 0
2, 28800, Note_on_c, 0, 57, 97
2, 28800, Note_on_c, 0, 61, 97
2, 28800, Note_on_c, 0, 66, 97
2, 28800, Note_on_c, 0, 31, 79
2, 28800, Note_on_c, 0, 43, 79
2, 28844, Note_on_c, 0, 43, 0
2, 28844, Note_on_c, 0, 31, 0
2, 28889, Note_on_c, 0, 57, 0
2, 28889, Note_on_c, 0, 61, 0
2, 28889, Note_on_c, 0, 66, 0
2, 28890, Note_on_c, 0, 32, 84
2, 28890, Note_on_c, 0, 44, 84
2, 28934, Note_on_c, 0, 44, 0
2, 28934, Note_on_c, 0, 32, 0
2, 28980, Note_on_c, 0, 54, 101
2, 28980, Note_on_c, 0, 57, 101
2, 28980, Note_on_c, 0, 62, 101
2, 28980, Note_on_c, 0, 33, 111
2, 28980, Note_on_c, 0, 45, 111
2, 29160, Note_on_c, 0, 45, 0
2, 29160, Note_on_c, 0, 62, 0
2, 29160, Note_on_c, 0, 54, 0
2, 29160, Note_on_c, 0, 57, 0
2, 29160, Note_on_c, 0, 33, 0
2, 29160, Note_on_c, 0, 51, 78
2, 29160, Note_on_c, 0, 57, 78
2, 29160, Note_on_c, 0, 61, 78
2, 29160, Note_on_c, 0, 29, 77
2, 29160, Note_on_c, 0, 41, 77
2, 29249, Note_on_c, 0, 41, 0
2, 29249, Note_on_c, 0, 29, 0
2, 29250, Note_on_c, 0, 51, 0
2, 29250, Note_on_c, 0, 57, 0
2, 29250, Note_on_c, 0, 61, 0
2, 29250, Note_on_c, 0, 62, 84
2, 29340, Note_on_c, 0, 62, 0
2, 29340, Note_on_c, 0, 52, 83
2, 29340, Note_on_c, 0, 58, 83
2, 29340, Note_on_c, 0, 61, 83
2, 29340, Note_on_c, 0, 30, 83
2, 29340, Note_on_c, 0, 42, 83
2, 29520, Note_on_c, 0, 42, 0
2, 29520, Note_on_c, 0, 61, 0
2, 29520, Note_on_c, 0, 52, 0
2, 29520, Note_on_c, 0, 58, 0
2, 29520, Note_on_c, 0, 30, 0
2, 29520, Note_on_c, 0, 50, 71
2, 29520, Note_on_c, 0, 59, 71
2, 29520, Note_on_c, 0, 35, 71
2, 29520, Note_on_c, 0, 42, 71
2, 29609, Note_on_c, 0, 59, 0
2, 29609, Note_on_c, 0, 50, 0
2, 29700, Note_on_c, 0, 35, 0
2, 29700, Note_on_c, 0, 42, 0
2, 29700, Note_on_c, 0, 50, 58
2, 29700, Note_on_c, 0, 59, 58
2, 29700, Note_on_c, 0, 35, 58
2, 29700, Note_on_c, 0, 42, 58
2, 30017, Note_on_c, 0, 42, 0
2, 30017, Note_on_c, 0, 50, 0
2, 30017, Note_on_c, 0, 59, 0
2, 30017, Note_on_c, 0, 35, 0
2, 30240, Note_on_c, 0, 54, 57
2, 30240, Note_on_c, 0, 59, 57
2, 30240, Note_on_c, 0, 62, 57
2, 30240, Note_on_c, 0, 35, 49
2, 30240, Note_on_c, 0, 47, 49
2, 30330, Note_on_c, 0, 62, 0
2, 30330, Note_on_c, 0, 54, 0
2, 30330, Note_on_c, 0, 59, 0
2, 30330, Note_on_c, 0, 64, 61
2, 30420, Note_on_c, 0, 64, 0
2, 30420, Note_on_c, 0, 35, 0
2, 30420, Note_on_c, 0, 47, 0
2, 30420, Note_on_c, 0, 54, 90
2, 30420, Note_on_c, 0, 61, 90
2, 30420, Note_on_c, 0, 66, 90
2, 30420, Note_on_c, 0, 33, 77
2, 30420, Note_on_c, 0, 45, 77
2, 30600, Note_on_c, 0, 45, 0
2, 30600, Note_on_c, 0, 66, 0
2, 30600, Note_on_c, 0, 54, 0
2, 30600, Note_on_c, 0, 61, 0
2, 30600, Note_on_c, 0, 33, 0
2, 30600, Note_on_c, 0, 50, 77
2, 30600, Note_on_c, 0, 55, 77
2, 30600, Note_on_c, 0, 59, 77
2, 30600, Note_on_c, 0, 38, 76
2, 30689, Note_on_c, 0, 59, 0
2, 30689, Note_on_c, 0, 50, 0
2, 30689, Note_on_c, 0, 55, 0
2, 30690, Note_on_c, 0, 38, 0
2, 30690, Note_on_c, 0, 40, 88
2, 30780, Note_on_c, 0, 40, 0
2, 30780, Note_on_c, 0, 50, 92
2, 30780, Note_on_c, 0, 57, 92
2, 30780, Note_on_c, 0, 62, 92
2, 30780, Note_on_c, 0, 30, 90
2, 30780, Note_on_c, 0, 42, 90
2, 30869, Note_on_c, 0, 42, 0
2, 30869, Note_on_c, 0, 62, 0
2, 30869, Note_on_c, 0, 50, 0
2, 30869, Note_on_c, 0, 57, 0
2, 30869, Note_on_c, 0, 30, 0
2, 30960, Note_on_c, 0, 56, 88
2, 30960, Note_on_c, 0, 61, 88
2, 30960, Note_on_c, 0, 64, 88
2, 30960, Note_on_c, 0, 37, 91
2, 30960, Note_on_c, 0, 49, 91
2, 31049, Note_on_c, 0, 49, 0
2, 31049, Note_on_c, 0, 64, 0
2, 31049, Note_on_c, 0, 56, 0
2, 31049, Note_on_c, 0, 61, 0
2, 31049, Note_on_c, 0, 37, 0
2, 31140, Note_on_c, 0, 57, 104
2, 31140, Note_on_c, 0, 61, 104
2, 31140, Note_on_c, 0, 66, 104
2, 31140, Note_on_c, 0, 30, 90
2, 31140, Note_on_c, 0, 42, 90
2, 31457, Note_on_c, 0, 42, 0
2, 31457, Note_on_c, 0, 66, 0
2, 31457, Note_on_c, 0, 57, 0
2, 31457, Note_on_c, 0, 61, 0
2, 31457, Note_on_c, 0, 30, 0
2, 31860, Note_on_c, 0, 69, 59
2, 31860, Note_on_c, 0, 78, 59
2, 31860, Note_on_c, 0, 61, 52
2, 31860, Note_on_c, 0, 66, 52
2, 31949, Note_on_c, 0, 78, 0
2, 31949, Note_on_c, 0, 69, 0
2, 31950, Note_on_c, 0, 61, 0
2, 31950, Note_on_c, 0, 66, 0
2, 31950, Note_on_c, 0, 54, 55
2, 32040, Note_on_c, 0, 54, 0
2, 32040, Note_on_c, 0, 66, 43
2, 32040, Note_on_c, 0, 61, 76
2, 32040, Note_on_c, 0, 69, 76
2, 32130, Note_on_c, 0, 69, 0
2, 32130, Note_on_c, 0, 61, 0
2, 32130, Note_on_c, 0, 54, 53
2, 32220, Note_on_c, 0, 54, 0
2, 32220, Note_on_c, 0, 66, 0
2, 32220, Note_on_c, 0, 69, 68
2, 32220, Note_on_c, 0, 78, 68
2, 32220, Note_on_c, 0, 61, 70
2, 32220, Note_on_c, 0, 66, 70
2, 32309, Note_on_c, 0, 78, 0
2, 32309, Note_on_c, 0, 69, 0
2, 32310, Note_on_c, 0, 61, 0
2, 32310, Note_on_c, 0, 66, 0
2, 32310, Note_on_c, 0, 54, 55
2, 32400, Note_on_c, 0, 54, 0
2, 32400, Note_on_c, 0, 66, 49
2, 32400, Note_on_c, 0, 61, 81
2, 32400, Note_on_c, 0, 69, 81
2, 32490, Note_on_c, 0, 69, 0
2, 32490, Note_on_c, 0, 61, 0
2, 32490, Note_on_c, 0, 54, 55
2, 32580, Note_on_c, 0, 54, 0
2, 32580, Note_on_c, 0, 66, 0
2, 32580, Note_on_c, 0, 69, 76
2, 32580, Note_on_c, 0, 78, 76
2, 32580, Note_on_c, 0, 61, 75
2, 32580, Note_on_c, 0, 66, 75
2, 32669, Note_on_c, 0, 78, 0
2, 32669, Note_on_c, 0, 69, 0
2, 32670, Note_on_c, 0, 61, 0
2, 32670, Note_on_c, 0, 66, 0
2, 32670, Note_on_c, 0, 54, 56
2, 32760, Note_on_c, 0, 54, 0
2, 32760, Note_on_c, 0, 66, 46
2, 32760, Note_on_c, 0, 61, 78
2, 32760, Note_on_c, 0, 69, 78
2, 32850, Note_on_c, 0, 69, 0
2, 32850, Note_on_c, 0, 61, 0
2, 32850, Note_on_c, 0, 54, 56
2, 32940, Note_on_c, 0, 54, 0
2, 32940, Note_on_c, 0, 66, 0
2, 32940, Note_on_c, 0, 69, 77
2, 32940, Note_on_c, 0, 78, 77
2, 32940, Note_on_c, 0, 61, 74
2, 32940, Note_on_c, 0, 66, 74
2, 33030, Note_on_c, 0, 66, 0
2, 33030, Note_on_c, 0, 61, 0
2, 33030, Note_on_c, 0, 54, 58
2, 33120, Note_on_c, 0, 54, 0
2, 33120, Note_on_c, 0, 78, 0
2, 33120, Note_on_c, 0, 69, 0
2, 33120, Note_on_c, 0, 54, 126
2, 33120, Note_on_c, 0, 64, 76
2, 33120, Note_on_c, 0, 69, 76
2, 33210, Note_on_c, 0, 69, 0
2, 33210, Note_on_c, 0, 64, 0
2, 33210, Note_on_c, 0, 60, 51
2, 33300, Note_on_c, 0, 60, 0
2, 33300, Note_on_c, 0, 63, 73
2, 33300, Note_on_c, 0, 69, 73
2, 33390, Note_on_c, 0, 69, 0
2, 33390, Note_on_c, 0, 63, 0
2, 33390, Note_on_c, 0, 59, 55
2, 33480, Note_on_c, 0, 59, 0
2, 33480, Note_on_c, 0, 54, 0
2, 33480, Note_on_c, 0, 52, 97
2, 33480, Note_on_c, 0, 62, 72
2, 33480, Note_on_c, 0, 67, 72
2, 33524, Note_on_c, 0, 52, 0
2, 33570, Note_on_c, 0, 67, 0
2, 33570, Note_on_c, 0, 62, 0
2, 33570, Note_on_c, 0, 50, 89
2, 33570, Note_on_c, 0, 58, 59
2, 33614, Note_on_c, 0, 50, 0
2, 33660, Note_on_c, 0, 58, 0
2, 33660, Note_on_c, 0, 49, 80
2, 33660, Note_on_c, 0, 62, 71
2, 33660, Note_on_c, 0, 66, 71
2, 33704, Note_on_c, 0, 49, 0
2, 33750, Note_on_c, 0, 66, 0
2, 33750, Note_on_c, 0, 62, 0
2, 33750, Note_on_c, 0, 47, 72
2, 33750, Note_on_c, 0, 59, 53
2, 33794, Note_on_c, 0, 47, 0
2, 33840, Note_on_c, 0, 59, 0
2, 33840, Note_on_c, 0, 45, 95
2, 33840, Note_on_c, 0, 61, 70
2, 33840, Note_on_c, 0, 65, 70
2, 33884, Note_on_c, 0, 45, 0
2, 33930, Note_on_c, 0, 65, 0
2, 33930, Note_on_c, 0, 61, 0
2, 33930, Note_on_c, 0, 44, 91
2, 33930, Note_on_c, 0, 59, 56
2, 33974, Note_on_c, 0, 44, 0
2, 34020, Note_on_c, 0, 59, 0
2, 34020, Note_on_c, 0, 42, 74
2, 34020, Note_on_c, 0, 61, 71
2, 34020, Note_on_c, 0, 66, 71
2, 34109, Note_on_c, 0, 42, 0
2, 34110, Note_on_c, 0, 66, 0
2, 34110, Note_on_c, 0, 61, 0
2, 34110, Note_on_c, 0, 57, 52
2, 34200, Note_on_c, 0, 57, 0
2, 34200, Note_on_c, 0, 69, 72
2, 34200, Note_on_c, 0, 78, 72
2, 34200, Note_on_c, 0, 61, 69
2, 34200, Note_on_c, 0, 66, 69
2, 34290, Note_on_c, 0, 66, 0
2, 34290, Note_on_c, 0, 69, 0
2, 34290, Note_on_c, 0, 78, 0
2, 34290, Note_on_c, 0, 61, 0
2, 34290, Note_on_c, 0, 79, 84
2, 34290, Note_on_c, 0, 54, 50
2, 34380, Note_on_c, 0, 54, 0
2, 34380, Note_on_c, 0, 79, 0
2, 34380, Note_on_c, 0, 72, 97
2, 34380, Note_on_c, 0, 81, 97
2, 34380, Note_on_c, 0, 64, 77
2, 34380, Note_on_c, 0, 69, 77
2, 34470, Note_on_c, 0, 69, 0
2, 34470, Note_on_c, 0, 72, 0
2, 34470, Note_on_c, 0, 81, 0
2, 34470, Note_on_c, 0, 64, 0
2, 34470, Note_on_c, 0, 79, 93
2, 34470, Note_on_c, 0, 54, 55
2, 34560, Note_on_c, 0, 54, 0
2, 34560, Note_on_c, 0, 79, 0
2, 34560, Note_on_c, 0, 71, 94
2, 34560, Note_on_c, 0, 78, 94
2, 34560, Note_on_c, 0, 63, 74
2, 34560, Note_on_c, 0, 67, 74
2, 34650, Note_on_c, 0, 67, 0
2, 34650, Note_on_c, 0, 71, 0
2, 34650, Note_on_c, 0, 78, 0
2, 34650, Note_on_c, 0, 63, 0
2, 34650, Note_on_c, 0, 79, 105
2, 34650, Note_on_c, 0, 54, 56
2, 34740, Note_on_c, 0, 54, 0
2, 34740, Note_on_c, 0, 79, 0
2, 34740, Note_on_c, 0, 70, 97
2, 34740, Note_on_c, 0, 78, 97
2, 34740, Note_on_c, 0, 62, 80
2, 34740, Note_on_c, 0, 66, 80
2, 34830, Note_on_c, 0, 66, 0
2, 34830, Note_on_c, 0, 70, 0
2, 34830, Note_on_c, 0, 78, 0
2, 34830, Note_on_c, 0, 62, 0
2, 34830, Note_on_c, 0, 77, 89
2, 34830, Note_on_c, 0, 54, 57
2, 34920, Note_on_c, 0, 54, 0
2, 34920, Note_on_c, 0, 77, 0
2, 34920, Note_on_c, 0, 69, 80
2, 34920, Note_on_c, 0, 76, 80
2, 34920, Note_on_c, 0, 60, 75
2, 34920, Note_on_c, 0, 65, 75
2, 35010, Note_on_c, 0, 65, 0
2, 35010, Note_on_c, 0, 69, 0
2, 35010, Note_on_c, 0, 76, 0
2, 35010, Note_on_c, 0, 60, 0
2, 35010, Note_on_c, 0, 77, 72
2, 35010, Note_on_c, 0, 54, 56
2, 35100, Note_on_c, 0, 54, 0
2, 35100, Note_on_c, 0, 77, 0
2, 35100, Note_on_c, 0, 69, 61
2, 35100, Note_on_c, 0, 78, 61
2, 35100, Note_on_c, 0, 61, 76
2, 35100, Note_on_c, 0, 66, 76
2, 35189, Note_on_c, 0, 78, 0
2, 35189, Note_on_c, 0, 69, 0
2, 35190, Note_on_c, 0, 61, 0
2, 35190, Note_on_c, 0, 66, 0
2, 35190, Note_on_c, 0, 54, 55
2, 35280, Note_on_c, 0, 54, 0
2, 35280, Note_on_c, 0, 66, 46
2, 35280, Note_on_c, 0, 61, 77
2, 35280, Note_on_c, 0, 69, 77
2, 35370, Note_on_c, 0, 69, 0
2, 35370, Note_on_c, 0, 61, 0
2, 35370, Note_on_c, 0, 54, 54
2, 35460, Note_on_c, 0, 54, 0
2, 35460, Note_on_c, 0, 66, 0
2, 35460, Note_on_c, 0, 69, 73
2, 35460, Note_on_c, 0, 78, 73
2, 35460, Note_on_c, 0, 61, 76
2, 35460, Note_on_c, 0, 66, 76
2, 35549, Note_on_c, 0, 78, 0
2, 35549, Note_on_c, 0, 69, 0
2, 35550, Note_on_c, 0, 61, 0
2, 35550, Note_on_c, 0, 66, 0
2, 35550, Note_on_c, 0, 54, 58
2, 35640, Note_on_c, 0, 54, 0
2, 35640, Note_on_c, 0, 66, 45
2, 35640, Note_on_c, 0, 61, 78
2, 35640, Note_on_c, 0, 69, 78
2, 35730, Note_on_c, 0, 69, 0
2, 35730, Note_on_c, 0, 61, 0
2, 35730, Note_on_c, 0, 54, 55
2, 35820, Note_on_c, 0, 54, 0
2, 35820, Note_on_c, 0, 66, 0
2, 35820, Note_on_c, 0, 69, 70
2, 35820, Note_on_c, 0, 78, 70
2, 35820, Note_on_c, 0, 61, 76
2, 35820, Note_on_c, 0, 66, 76
2, 35909, Note_on_c, 0, 78, 0
2, 35909, Note_on_c, 0, 69, 0
2, 35910, Note_on_c, 0, 61, 0
2, 35910, Note_on_c, 0, 66, 0
2, 35910, Note_on_c, 0, 54, 54
2, 36000, Note_on_c, 0, 54, 0
2, 36000, Note_on_c, 0, 66, 42
2, 36000, Note_on_c, 0, 61, 74
2, 36000, Note_on_c, 0, 69, 74
2, 36090, Note_on_c, 0, 69, 0
2, 36090, Note_on_c, 0, 61, 0
2, 36090, Note_on_c, 0, 54, 55
2, 36180, Note_on_c, 0, 54, 0
2, 36180, Note_on_c, 0, 66, 0
2, 36180, Note_on_c, 0, 69, 72
2, 36180, Note_on_c, 0, 78, 72
2, 36180, Note_on_c, 0, 61, 80
2, 36180, Note_on_c, 0, 66, 80
2, 36270, Note_on_c, 0, 66, 0
2, 36270, Note_on_c, 0, 61, 0
2, 36270, Note_on_c, 0, 54, 55
2, 36360, Note_on_c, 0, 54, 0
2, 36360, Note_on_c, 0, 78, 0
2, 36360, Note_on_c, 0, 69, 0
2, 36360, Note_on_c, 0, 90, 121
2, 36360, Note_on_c, 0, 78, 108
2, 36360, Note_on_c, 0, 81, 108
2, 36360, Note_on_c, 0, 64, 76
2, 36360, Note_on_c, 0, 72, 76
2, 36450, Note_on_c, 0, 72, 0
2, 36450, Note_on_c, 0, 64, 0
2, 36450, Note_on_c, 0, 66, 55
2, 36540, Note_on_c, 0, 66, 0
2, 36540, Note_on_c, 0, 81, 0
2, 36540, Note_on_c, 0, 80, 80
2, 36540, Note_on_c, 0, 63, 68
2, 36540, Note_on_c, 0, 71, 68
2, 36630, Note_on_c, 0, 71, 0
2, 36630, Note_on_c, 0, 63, 0
2, 36630, Note_on_c, 0, 66, 51
2, 36720, Note_on_c, 0, 66, 0
2, 36720, Note_on_c, 0, 80, 0
2, 36720, Note_on_c, 0, 78, 0
2, 36720, Note_on_c, 0, 90, 0
2, 36720, Note_on_c, 0, 88, 81
2, 36720, Note_on_c, 0, 76, 78
2, 36720, Note_on_c, 0, 79, 78
2, 36720, Note_on_c, 0, 62, 66
2, 36720, Note_on_c, 0, 70, 66
2, 36764, Note_on_c, 0, 88, 0
2, 36810, Note_on_c, 0, 62, 0
2, 36810, Note_on_c, 0, 70, 0
2, 36810, Note_on_c, 0, 86, 80
2, 36810, Note_on_c, 0, 66, 57
2, 36854, Note_on_c, 0, 86, 0
2, 36900, Note_on_c, 0, 76, 0
2, 36900, Note_on_c, 0, 79, 0
2, 36900, Note_on_c, 0, 66, 0
2, 36900, Note_on_c, 0, 85, 81
2, 36900, Note_on_c, 0, 74, 78
2, 36900, Note_on_c, 0, 78, 78
2, 36900, Note_on_c, 0, 61, 64
2, 36900, Note_on_c, 0, 69, 64
2, 36944, Note_on_c, 0, 85, 0
2, 36990, Note_on_c, 0, 61, 0
2, 36990, Note_on_c, 0, 69, 0
2, 36990, Note_on_c, 0, 83, 79
2, 36990, Note_on_c, 0, 66, 55
2, 37034, Note_on_c, 0, 83, 0
2, 37080, Note_on_c, 0, 74, 0
2, 37080, Note_on_c, 0, 78, 0
2, 37080, Note_on_c, 0, 66, 0
2, 37080, Note_on_c, 0, 81, 76
2, 37080, Note_on_c, 0, 73, 72
2, 37080, Note_on_c, 0, 59, 55
2, 37080, Note_on_c, 0, 65, 55
2, 37124, Note_on_c, 0, 81, 0
2, 37170, Note_on_c, 0, 65, 0
2, 37170, Note_on_c, 0, 59, 0
2, 37170, Note_on_c, 0, 80, 79
2, 37170, Note_on_c, 0, 61, 54
2, 37214, Note_on_c, 0, 80, 0
2, 37260, Note_on_c, 0, 61, 0
2, 37260, Note_on_c, 0, 73, 0
2, 37260, Note_on_c, 0, 78, 77
2, 37260, Note_on_c, 0, 73, 78
2, 37260, Note_on_c, 0, 57, 66
2, 37260, Note_on_c, 0, 66, 66
2, 37350, Note_on_c, 0, 66, 0
2, 37350, Note_on_c, 0, 57, 0
2, 37350, Note_on_c, 0, 61, 49
2, 37440, Note_on_c, 0, 61, 0
2, 37440, Note_on_c, 0, 73, 0
2, 37440, Note_on_c, 0, 78, 0
2, 37440, Note_on_c, 0, 83, 96
2, 37440, Note_on_c, 0, 71, 83
2, 37440, Note_on_c, 0, 62, 74
2, 37440, Note_on_c, 0, 67, 74
2, 37530, Note_on_c, 0, 67, 0
2, 37530, Note_on_c, 0, 83, 0
2, 37530, Note_on_c, 0, 71, 0
2, 37530, Note_on_c, 0, 62, 0
2, 37530, Note_on_c, 0, 81, 79
2, 37530, Note_on_c, 0, 73, 96
2, 37530, Note_on_c, 0, 54, 51
2, 37620, Note_on_c, 0, 54, 0
2, 37620, Note_on_c, 0, 73, 0
2, 37620, Note_on_c, 0, 81, 0
2, 37620, Note_on_c, 0, 83, 114
2, 37620, Note_on_c, 0, 74, 109
2, 37620, Note_on_c, 0, 66, 98
2, 37620, Note_on_c, 0, 71, 98
2, 37710, Note_on_c, 0, 71, 0
2, 37710, Note_on_c, 0, 83, 0
2, 37710, Note_on_c, 0, 74, 0
2, 37710, Note_on_c, 0, 66, 0
2, 37710, Note_on_c, 0, 81, 102
2, 37710, Note_on_c, 0, 75, 111
2, 37710, Note_on_c, 0, 54, 56
2, 37800, Note_on_c, 0, 54, 0
2, 37800, Note_on_c, 0, 75, 0
2, 37800, Note_on_c, 0, 81, 0
2, 37800, Note_on_c, 0, 81, 109
2, 37800, Note_on_c, 0, 72, 97
2, 37800, Note_on_c, 0, 64, 77
2, 37800, Note_on_c, 0, 69, 77
2, 37890, Note_on_c, 0, 69, 0
2, 37890, Note_on_c, 0, 81, 0
2, 37890, Note_on_c, 0, 72, 0
2, 37890, Note_on_c, 0, 64, 0
2, 37890, Note_on_c, 0, 79, 101
2, 37890, Note_on_c, 0, 73, 112
2, 37890, Note_on_c, 0, 54, 59
2, 37980, Note_on_c, 0, 54, 0
2, 37980, Note_on_c, 0, 73, 0
2, 37980, Note_on_c, 0, 79, 0
2, 37980, Note_on_c, 0, 81, 112
2, 37980, Note_on_c, 0, 71, 109
2, 37980, Note_on_c, 0, 63, 71
2, 37980, Note_on_c, 0, 67, 71
2, 38070, Note_on_c, 0, 67, 0
2, 38070, Note_on_c, 0, 81, 0
2, 38070, Note_on_c, 0, 71, 0
2, 38070, Note_on_c, 0, 63, 0
2, 38070, Note_on_c, 0, 79, 104
2, 38070, Note_on_c, 0, 72, 100
2, 38070, Note_on_c, 0, 54, 53
2, 38160, Note_on_c, 0, 54, 0
2, 38160, Note_on_c, 0, 72, 0
2, 38160, Note_on_c, 0, 79, 0
2, 38160, Note_on_c, 0, 79, 109
2, 38160, Note_on_c, 0, 70, 92
2, 38160, Note_on_c, 0, 62, 74
2, 38160, Note_on_c, 0, 66, 74
2, 38250, Note_on_c, 0, 66, 0
2, 38250, Note_on_c, 0, 79, 0
2, 38250, Note_on_c, 0, 70, 0
2, 38250, Note_on_c, 0, 62, 0
2, 38250, Note_on_c, 0, 78, 101
2, 38250, Note_on_c, 0, 71, 83
2, 38250, Note_on_c, 0, 54, 54
2, 38340, Note_on_c, 0, 54, 0
2, 38340, Note_on_c, 0, 71, 0
2, 38340, Note_on_c, 0, 78, 0
2, 38340, Note_on_c, 0, 69, 64
2, 38340, Note_on_c, 0, 78, 64
2, 38340, Note_on_c, 0, 61, 73
2, 38340, Note_on_c, 0, 66, 73
2, 38429, Note_on_c, 0, 78, 0
2, 38429, Note_on_c, 0, 69, 0
2, 38430, Note_on_c, 0, 61, 0
2, 38430, Note_on_c, 0, 66, 0
2, 38430, Note_on_c, 0, 54, 55
2, 38520, Note_on_c, 0, 54, 0
2, 38520, Note_on_c, 0, 66, 47
2, 38520, Note_on_c, 0, 61, 76
2, 38520, Note_on_c, 0, 69, 76
2, 38609, Note_on_c, 0, 66, 0
2, 38610, Note_on_c, 0, 69, 0
2, 38610, Note_on_c, 0, 61, 0
2, 38610, Note_on_c, 0, 54, 56
2, 38700, Note_on_c, 0, 54, 0
2, 38700, Note_on_c, 0, 68, 104
2, 38700, Note_on_c, 0, 78, 104
2, 38700, Note_on_c, 0, 60, 71
2, 38700, Note_on_c, 0, 64, 71
2, 38790, Note_on_c, 0, 64, 0
2, 38790, Note_on_c, 0, 68, 0
2, 38790, Note_on_c, 0, 78, 0
2, 38790, Note_on_c, 0, 60, 0
2, 38790, Note_on_c, 0, 76, 63
2, 38790, Note_on_c, 0, 54, 56
2, 38834, Note_on_c, 0, 76, 0
2, 38880, Note_on_c, 0, 54, 0
2, 38880, Note_on_c, 0, 64, 61
2, 38880, Note_on_c, 0, 74, 61
2, 38880, Note_on_c, 0, 60, 73
2, 38880, Note_on_c, 0, 68, 73
2, 38924, Note_on_c, 0, 74, 0
2, 38924, Note_on_c, 0, 64, 0
2, 38970, Note_on_c, 0, 60, 0
2, 38970, Note_on_c, 0, 68, 0
2, 38970, Note_on_c, 0, 72, 55
2, 38970, Note_on_c, 0, 54, 55
2, 39014, Note_on_c, 0, 72, 0
2, 39060, Note_on_c, 0, 54, 0
2, 39060, Note_on_c, 0, 67, 57
2, 39060, Note_on_c, 0, 71, 57
2, 39060, Note_on_c, 0, 59, 72
2, 39060, Note_on_c, 0, 63, 72
2, 39149, Note_on_c, 0, 71, 0
2, 39149, Note_on_c, 0, 67, 0
2, 39150, Note_on_c, 0, 59, 0
2, 39150, Note_on_c, 0, 63, 0
2, 39150, Note_on_c, 0, 54, 55
2, 39240, Note_on_c, 0, 54, 0
2, 39240, Note_on_c, 0, 63, 49
2, 39240, Note_on_c, 0, 59, 83
2, 39240, Note_on_c, 0, 67, 83
2, 39329, Note_on_c, 0, 63, 0
2, 39330, Note_on_c, 0, 67, 0
2, 39330, Note_on_c, 0, 59, 0
2, 39330, Note_on_c, 0, 54, 60
2, 39420, Note_on_c, 0, 54, 0
2, 39420, Note_on_c, 0, 66, 94
2, 39420, Note_on_c, 0, 71, 94
2, 39420, Note_on_c, 0, 59, 115
2, 39510, Note_on_c, 0, 59, 0
2, 39510, Note_on_c, 0, 71, 0
2, 39510, Note_on_c, 0, 66, 0
2, 39510, Note_on_c, 0, 59, 52
2, 39510, Note_on_c, 0, 57, 110
2, 39554, Note_on_c, 0, 57, 0
2, 39600, Note_on_c, 0, 59, 0
2, 39600, Note_on_c, 0, 63, 66
2, 39600, Note_on_c, 0, 55, 109
2, 39644, Note_on_c, 0, 55, 0
2, 39690, Note_on_c, 0, 63, 0
2, 39690, Note_on_c, 0, 59, 57
2, 39690, Note_on_c, 0, 54, 110
2, 39734, Note_on_c, 0, 54, 0
2, 39780, Note_on_c, 0, 59, 0
2, 39780, Note_on_c, 0, 64, 100
2, 39780, Note_on_c, 0, 67, 100
2, 39780, Note_on_c, 0, 71, 100
2, 39780, Note_on_c, 0, 55, 114
2, 39780, Note_on_c, 0, 59, 114
2, 39870, Note_on_c, 0, 59, 0
2, 39870, Note_on_c, 0, 55, 0
2, 39870, Note_on_c, 0, 52, 77
2, 39914, Note_on_c, 0, 52, 0
2, 39960, Note_on_c, 0, 71, 0
2, 39960, Note_on_c, 0, 67, 0
2, 39960, Note_on_c, 0, 64, 0
2, 39960, Note_on_c, 0, 55, 52
2, 39960, Note_on_c, 0, 40, 75
2, 39960, Note_on_c, 0, 47, 75
2, 40004, Note_on_c, 0, 47, 0
2, 40004, Note_on_c, 0, 40, 0
2, 40049, Note_on_c, 0, 55, 0
2, 40050, Note_on_c, 0, 52, 89
2, 40094, Note_on_c, 0, 52, 0
2, 40140, Note_on_c, 0, 64, 95
2, 40140, Note_on_c, 0, 67, 95
2, 40140, Note_on_c, 0, 71, 95
2, 40140, Note_on_c, 0, 55, 118
2, 40140, Note_on_c, 0, 59, 118
2, 40230, Note_on_c, 0, 59, 0
2, 40230, Note_on_c, 0, 55, 0
2, 40230, Note_on_c, 0, 52, 76
2, 40274, Note_on_c, 0, 52, 0
2, 40320, Note_on_c, 0, 71, 0
2, 40320, Note_on_c, 0, 67, 0
2, 40320, Note_on_c, 0, 64, 0
2, 40320, Note_on_c, 0, 55, 55
2, 40320, Note_on_c, 0, 40, 79
2, 40320, Note_on_c, 0, 47, 79
2, 40364, Note_on_c, 0, 47, 0
2, 40364, Note_on_c, 0, 40, 0
2, 40409, Note_on_c, 0, 55, 0
2, 40410, Note_on_c, 0, 52, 90
2, 40454, Note_on_c, 0, 52, 0
2, 40500, Note_on_c, 0, 64, 103
2, 40500, Note_on_c, 0, 67, 103
2, 40500, Note_on_c, 0, 71, 103
2, 40500, Note_on_c, 0, 55, 114
2, 40500, Note_on_c, 0, 59, 114
2, 40590, Note_on_c, 0, 59, 0
2, 40590, Note_on_c, 0, 55, 0
2, 40590, Note_on_c, 0, 52, 77
2, 40634, Note_on_c, 0, 52, 0
2, 40680, Note_on_c, 0, 71, 0
2, 40680, Note_on_c, 0, 67, 0
2, 40680, Note_on_c, 0, 64, 0
2, 40680, Note_on_c, 0, 55, 52
2, 40680, Note_on_c, 0, 40, 78
2, 40680, Note_on_c, 0, 47, 78
2, 40724, Note_on_c, 0, 47, 0
2, 40724, Note_on_c, 0, 40, 0
2, 40769, Note_on_c, 0, 55, 0
2, 40770, Note_on_c, 0, 52, 89
2, 40814, Note_on_c, 0, 52, 0
2, 40860, Note_on_c, 0, 64, 107
2, 40860, Note_on_c, 0, 67, 107
2, 40860, Note_on_c, 0, 71, 107
2, 40860, Note_on_c, 0, 55, 123
2, 40860, Note_on_c, 0, 59, 123
2, 40950, Note_on_c, 0, 71, 0
2, 40950, Note_on_c, 0, 64, 0
2, 40950, Note_on_c, 0, 67, 0
2, 40950, Note_on_c, 0, 59, 55
2, 40994, Note_on_c, 0, 59, 0
2, 41040, Note_on_c, 0, 59, 0
2, 41040, Note_on_c, 0, 55, 0
2, 41040, Note_on_c, 0, 62, 127
2, 41040, Note_on_c, 0, 67, 127
2, 41040, Note_on_c, 0, 70, 127
2, 41040, Note_on_c, 0, 40, 87
2, 41040, Note_on_c, 0, 52, 87
2, 41130, Note_on_c, 0, 70, 0
2, 41130, Note_on_c, 0, 62, 0
2, 41130, Note_on_c, 0, 67, 0
2, 41130, Note_on_c, 0, 58, 75
2, 41174, Note_on_c, 0, 58, 0
2, 41220, Note_on_c, 0, 61, 127
2, 41220, Note_on_c, 0, 66, 127
2, 41220, Note_on_c, 0, 69, 127
2, 41310, Note_on_c, 0, 69, 0
2, 41310, Note_on_c, 0, 61, 0
2, 41310, Note_on_c, 0, 66, 0
2, 41310, Note_on_c, 0, 57, 74
2, 41354, Note_on_c, 0, 57, 0
2, 41378, Note_on_c, 0, 40, 0
2, 41378, Note_on_c, 0, 52, 0
2, 41400, Note_on_c, 0, 60, 127
2, 41400, Note_on_c, 0, 65, 127
2, 41400, Note_on_c, 0, 68, 127
2, 41400, Note_on_c, 0, 38, 82
2, 41400, Note_on_c, 0, 50, 82
2, 41490, Note_on_c, 0, 50, 0
2, 41490, Note_on_c, 0, 68, 0
2, 41490, Note_on_c, 0, 60, 0
2, 41490, Note_on_c, 0, 65, 0
2, 41490, Note_on_c, 0, 38, 0
2, 41490, Note_on_c, 0, 56, 74
2, 41490, Note_on_c, 0, 36, 81
2, 41490, Note_on_c, 0, 48, 81
2, 41534, Note_on_c, 0, 48, 0
2, 41534, Note_on_c, 0, 36, 0
2, 41534, Note_on_c, 0, 56, 0
2, 41580, Note_on_c, 0, 59, 83
2, 41580, Note_on_c, 0, 64, 83
2, 41580, Note_on_c, 0, 67, 83
2, 41580, Note_on_c, 0, 35, 83
2, 41580, Note_on_c, 0, 47, 83
2, 41624, Note_on_c, 0, 47, 0
2, 41624, Note_on_c, 0, 35, 0
2, 41670, Note_on_c, 0, 59, 0
2, 41670, Note_on_c, 0, 64, 0
2, 41670, Note_on_c, 0, 67, 0
2, 41670, Note_on_c, 0, 55, 75
2, 41670, Note_on_c, 0, 33, 75
2, 41670, Note_on_c, 0, 45, 75
2, 41714, Note_on_c, 0, 45, 0
2, 41714, Note_on_c, 0, 33, 0
2, 41714, Note_on_c, 0, 55, 0
2, 41760, Note_on_c, 0, 59, 66
2, 41760, Note_on_c, 0, 63, 66
2, 41760, Note_on_c, 0, 31, 66
2, 41760, Note_on_c, 0, 43, 66
2, 41804, Note_on_c, 0, 43, 0
2, 41804, Note_on_c, 0, 59, 0
2, 41804, Note_on_c, 0, 63, 0
2, 41804, Note_on_c, 0, 31, 0
2, 41850, Note_on_c, 0, 57, 58
2, 41850, Note_on_c, 0, 30, 58
2, 41850, Note_on_c, 0, 42, 58
2, 41894, Note_on_c, 0, 42, 0
2, 41894, Note_on_c, 0, 30, 0
2, 41894, Note_on_c, 0, 57, 0
2, 41940, Note_on_c, 0, 59, 67
2, 41940, Note_on_c, 0, 64, 67
2, 41940, Note_on_c, 0, 28, 61
2, 41940, Note_on_c, 0, 40, 61
2, 41984, Note_on_c, 0, 64, 0
2, 41984, Note_on_c, 0, 59, 0
2, 42029, Note_on_c, 0, 28, 0
2, 42029, Note_on_c, 0, 40, 0
2, 42030, Note_on_c, 0, 55, 56
2, 42120, Note_on_c, 0, 55, 0
2, 42120, Note_on_c, 0, 64, 58
2, 42120, Note_on_c, 0, 59, 59
2, 42210, Note_on_c, 0, 64, 0
2, 42210, Note_on_c, 0, 66, 71
2, 42300, Note_on_c, 0, 66, 0
2, 42300, Note_on_c, 0, 59, 0
2, 42300, Note_on_c, 0, 67, 83
2, 42300, Note_on_c, 0, 58, 60
2, 42300, Note_on_c, 0, 61, 60
2, 42390, Note_on_c, 0, 67, 0
2, 42390, Note_on_c, 0, 66, 78
2, 42480, Note_on_c, 0, 66, 0
2, 42480, Note_on_c, 0, 61, 0
2, 42480, Note_on_c, 0, 58, 0
2, 42480, Note_on_c, 0, 74, 51
2, 42480, Note_on_c, 0, 72, 46
2, 42480, Note_on_c, 0, 65, 78
2, 42480, Note_on_c, 0, 57, 71
2, 42480, Note_on_c, 0, 60, 71
2, 42570, Note_on_c, 0, 65, 0
2, 42570, Note_on_c, 0, 74, 0
2, 42570, Note_on_c, 0, 75, 59
2, 42570, Note_on_c, 0, 66, 87
2, 42660, Note_on_c, 0, 66, 0
2, 42660, Note_on_c, 0, 72, 0
2, 42660, Note_on_c, 0, 60, 0
2, 42660, Note_on_c, 0, 57, 0
2, 42660, Note_on_c, 0, 75, 0
2, 42660, Note_on_c, 0, 76, 88
2, 42660, Note_on_c, 0, 71, 58
2, 42660, Note_on_c, 0, 65, 83
2, 42660, Note_on_c, 0, 55, 73
2, 42660, Note_on_c, 0, 59, 73
2, 42750, Note_on_c, 0, 65, 0
2, 42750, Note_on_c, 0, 76, 0
2, 42750, Note_on_c, 0, 76, 60
2, 42750, Note_on_c, 0, 64, 75
2, 42794, Note_on_c, 0, 76, 0
2, 42840, Note_on_c, 0, 71, 0
2, 42840, Note_on_c, 0, 59, 0
2, 42840, Note_on_c, 0, 55, 0
2, 42840, Note_on_c, 0, 64, 0
2, 42840, Note_on_c, 0, 76, 57
2, 42840, Note_on_c, 0, 69, 33
2, 42840, Note_on_c, 0, 62, 66
2, 42840, Note_on_c, 0, 54, 70
2, 42884, Note_on_c, 0, 76, 0
2, 42930, Note_on_c, 0, 62, 0
2, 42930, Note_on_c, 0, 76, 29
2, 42930, Note_on_c, 0, 63, 58
2, 42974, Note_on_c, 0, 76, 0
2, 43020, Note_on_c, 0, 54, 0
2, 43020, Note_on_c, 0, 69, 0
2, 43020, Note_on_c, 0, 63, 0
2, 43020, Note_on_c, 0, 76, 29
2, 43020, Note_on_c, 0, 67, 26
2, 43020, Note_on_c, 0, 59, 62
2, 43020, Note_on_c, 0, 64, 62
2, 43110, Note_on_c, 0, 64, 0
2, 43110, Note_on_c, 0, 59, 0
2, 43110, Note_on_c, 0, 52, 50
2, 43200, Note_on_c, 0, 52, 0
2, 43200, Note_on_c, 0, 67, 0
2, 43200, Note_on_c, 0, 76, 0
2, 43200, Note_on_c, 0, 88, 119
2, 43200, Note_on_c, 0, 76, 43
2, 43200, Note_on_c, 0, 79, 43
2, 43200, Note_on_c, 0, 62, 71
2, 43200, Note_on_c, 0, 70, 71
2, 43290, Note_on_c, 0, 70, 0
2, 43290, Note_on_c, 0, 62, 0
2, 43290, Note_on_c, 0, 52, 49
2, 43380, Note_on_c, 0, 52, 0
2, 43380, Note_on_c, 0, 79, 0
2, 43380, Note_on_c, 0, 76, 0
2, 43380, Note_on_c, 0, 76, 31
2, 43380, Note_on_c, 0, 78, 31
2, 43380, Note_on_c, 0, 61, 71
2, 43380, Note_on_c, 0, 69, 71
2, 43470, Note_on_c, 0, 69, 0
2, 43470, Note_on_c, 0, 61, 0
2, 43470, Note_on_c, 0, 52, 50
2, 43560, Note_on_c, 0, 52, 0
2, 43560, Note_on_c, 0, 78, 0
2, 43560, Note_on_c, 0, 76, 0
2, 43560, Note_on_c, 0, 88, 0
2, 43560, Note_on_c, 0, 86, 89
2, 43560, Note_on_c, 0, 74, 31
2, 43560, Note_on_c, 0, 77, 31
2, 43560, Note_on_c, 0, 60, 73
2, 43560, Note_on_c, 0, 68, 73
2, 43639, Note_on_c, 0, 86, 0
2, 43650, Note_on_c, 0, 60, 0
2, 43650, Note_on_c, 0, 68, 0
2, 43650, Note_on_c, 0, 84, 80
2, 43650, Note_on_c, 0, 52, 51
2, 43740, Note_on_c, 0, 52, 0
2, 43740, Note_on_c, 0, 74, 0
2, 43740, Note_on_c, 0, 77, 0
2, 43740, Note_on_c, 0, 84, 0
2, 43740, Note_on_c, 0, 83, 79
2, 43740, Note_on_c, 0, 72, 32
2, 43740, Note_on_c, 0, 76, 32
2, 43740, Note_on_c, 0, 59, 74
2, 43740, Note_on_c, 0, 67, 74
2, 43830, Note_on_c, 0, 67, 0
2, 43830, Note_on_c, 0, 83, 0
2, 43830, Note_on_c, 0, 59, 0
2, 43830, Note_on_c, 0, 81, 79
2, 43830, Note_on_c, 0, 52, 52
2, 43920, Note_on_c, 0, 52, 0
2, 43920, Note_on_c, 0, 72, 0
2, 43920, Note_on_c, 0, 76, 0
2, 43920, Note_on_c, 0, 81, 0
2, 43920, Note_on_c, 0, 79, 76
2, 43920, Note_on_c, 0, 71, 29
2, 43920, Note_on_c, 0, 57, 69
2, 43920, Note_on_c, 0, 63, 69
2, 44010, Note_on_c, 0, 63, 0
2, 44010, Note_on_c, 0, 57, 0
2, 44010, Note_on_c, 0, 79, 0
2, 44010, Note_on_c, 0, 78, 78
2, 44010, Note_on_c, 0, 52, 53
2, 44100, Note_on_c, 0, 52, 0
2, 44100, Note_on_c, 0, 78, 0
2, 44100, Note_on_c, 0, 71, 0
2, 44100, Note_on_c, 0, 71, 78
2, 44100, Note_on_c, 0, 76, 78
2, 44100, Note_on_c, 0, 55, 97
2, 44100, Note_on_c, 0, 64, 97
2, 44190, Note_on_c, 0, 64, 0
2, 44190, Note_on_c, 0, 55, 0
2, 44190, Note_on_c, 0, 52, 53
2, 44280, Note_on_c, 0, 52, 0
2, 44280, Note_on_c, 0, 76, 0
2, 44280, Note_on_c, 0, 71, 0
2, 44280, Note_on_c, 0, 64, 49
2, 44280, Note_on_c, 0, 59, 76
2, 44280, Note_on_c, 0, 67, 76
2, 44369, Note_on_c, 0, 64, 0
2, 44370, Note_on_c, 0, 67, 0
2, 44370, Note_on_c, 0, 59, 0
2, 44370, Note_on_c, 0, 52, 47
2, 44460, Note_on_c, 0, 52, 0
2, 44460, Note_on_c, 0, 67, 99
2, 44460, Note_on_c, 0, 76, 99
2, 44460, Note_on_c, 0, 58, 96
2, 44460, Note_on_c, 0, 62, 96
2, 44550, Note_on_c, 0, 62, 0
2, 44550, Note_on_c, 0, 67, 0
2, 44550, Note_on_c, 0, 76, 0
2, 44550, Note_on_c, 0, 58, 0
2, 44550, Note_on_c, 0, 74, 62
2, 44550, Note_on_c, 0, 52, 51
2, 44594, Note_on_c, 0, 74, 0
2, 44640, Note_on_c, 0, 52, 0
2, 44640, Note_on_c, 0, 64, 55
2, 44640, Note_on_c, 0, 72, 55
2, 44640, Note_on_c, 0, 58, 79
2, 44640, Note_on_c, 0, 67, 79
2, 44684, Note_on_c, 0, 72, 0
2, 44684, Note_on_c, 0, 64, 0
2, 44730, Note_on_c, 0, 58, 0
2, 44730, Note_on_c, 0, 67, 0
2, 44730, Note_on_c, 0, 70, 56
2, 44730, Note_on_c, 0, 52, 55
2, 44774, Note_on_c, 0, 70, 0
2, 44820, Note_on_c, 0, 52, 0
2, 44820, Note_on_c, 0, 67, 82
2, 44820, Note_on_c, 0, 69, 82
2, 44820, Note_on_c, 0, 57, 67
2, 44820, Note_on_c, 0, 61, 67
2, 44910, Note_on_c, 0, 61, 0
2, 44910, Note_on_c, 0, 57, 0
2, 44910, Note_on_c, 0, 52, 51
2, 45000, Note_on_c, 0, 52, 0
2, 45000, Note_on_c, 0, 69, 0
2, 45000, Note_on_c, 0, 67, 0
2, 45000, Note_on_c, 0, 64, 54
2, 45000, Note_on_c, 0, 57, 78
2, 45000, Note_on_c, 0, 67, 78
2, 45089, Note_on_c, 0, 64, 0
2, 45090, Note_on_c, 0, 67, 0
2, 45090, Note_on_c, 0, 57, 0
2, 45090, Note_on_c, 0, 52, 50
2, 45180, Note_on_c, 0, 52, 0
2, 45180, Note_on_c, 0, 67, 80
2, 45180, Note_on_c, 0, 69, 80
2, 45180, Note_on_c, 0, 62, 24
2, 45180, Note_on_c, 0, 50, 53
2, 45224, Note_on_c, 0, 50, 0
2, 45224, Note_on_c, 0, 62, 0
2, 45270, Note_on_c, 0, 57, 27
2, 45270, Note_on_c, 0, 49, 58
2, 45314, Note_on_c, 0, 49, 0
2, 45314, Note_on_c, 0, 57, 0
2, 45360, Note_on_c, 0, 61, 31
2, 45360, Note_on_c, 0, 47, 58
2, 45404, Note_on_c, 0, 47, 0
2, 45404, Note_on_c, 0, 61, 0
2, 45450, Note_on_c, 0, 57, 33
2, 45450, Note_on_c, 0, 45, 53
2, 45494, Note_on_c, 0, 45, 0
2, 45494, Note_on_c, 0, 57, 0
2, 45497, Note_on_c, 0, 69, 0
2, 45497, Note_on_c, 0, 67, 0
2, 45540, Note_on_c, 0, 64, 72
2, 45540, Note_on_c, 0, 67, 72
2, 45540, Note_on_c, 0, 60, 33
2, 45540, Note_on_c, 0, 43, 58
2, 45584, Note_on_c, 0, 43, 0
2, 45584, Note_on_c, 0, 60, 0
2, 45630, Note_on_c, 0, 55, 41
2, 45630, Note_on_c, 0, 42, 66
2, 45674, Note_on_c, 0, 42, 0
2, 45674, Note_on_c, 0, 55, 0
2, 45720, Note_on_c, 0, 59, 49
2, 45720, Note_on_c, 0, 40, 75
2, 45764, Note_on_c, 0, 40, 0
2, 45764, Note_on_c, 0, 59, 0
2, 45810, Note_on_c, 0, 55, 58
2, 45810, Note_on_c, 0, 38, 83
2, 45854, Note_on_c, 0, 38, 0
2, 45854, Note_on_c, 0, 55, 0
2, 45857, Note_on_c, 0, 67, 0
2, 45857, Note_on_c, 0, 64, 0
2, 45900, Note_on_c, 0, 58, 103
2, 45900, Note_on_c, 0, 64, 103
2, 45900, Note_on_c, 0, 66, 103
2, 45900, Note_on_c, 0, 37, 107
2, 45990, Note_on_c, 0, 66, 0
2, 45990, Note_on_c, 0, 58, 0
2, 45990, Note_on_c, 0, 64, 0
2, 45990, Note_on_c, 0, 54, 75
2, 46034, Note_on_c, 0, 54, 0
2, 46080, Note_on_c, 0, 58, 106
2, 46080, Note_on_c, 0, 64, 106
2, 46080, Note_on_c, 0, 66, 106
2, 46170, Note_on_c, 0, 66, 0
2, 46170, Note_on_c, 0, 64, 0
2, 46170, Note_on_c, 0, 58, 0
2, 46170, Note_on_c, 0, 54, 75
2, 46214, Note_on_c, 0, 54, 0
2, 46260, Note_on_c, 0, 37, 0
2, 46260, Note_on_c, 0, 64, 122
2, 46260, Note_on_c, 0, 67, 122
2, 46260, Note_on_c, 0, 60, 67
2, 46260, Note_on_c, 0, 43, 92
2, 46304, Note_on_c, 0, 43, 0
2, 46304, Note_on_c, 0, 60, 0
2, 46350, Note_on_c, 0, 55, 54
2, 46350, Note_on_c, 0, 42, 78
2, 46394, Note_on_c, 0, 42, 0
2, 46394, Note_on_c, 0, 55, 0
2, 46440, Note_on_c, 0, 59, 62
2, 46440, Note_on_c, 0, 40, 81
2, 46484, Note_on_c, 0, 40, 0
2, 46484, Note_on_c, 0, 59, 0
2, 46530, Note_on_c, 0, 55, 55
2, 46530, Note_on_c, 0, 38, 79
2, 46574, Note_on_c, 0, 38, 0
2, 46574, Note_on_c, 0, 55, 0
2, 46577, Note_on_c, 0, 67, 0
2, 46577, Note_on_c, 0, 64, 0
2, 46620, Note_on_c, 0, 58, 110
2, 46620, Note_on_c, 0, 64, 110
2, 46620, Note_on_c, 0, 66, 110
2, 46620, Note_on_c, 0, 36, 108
2, 46710, Note_on_c, 0, 66, 0
2, 46710, Note_on_c, 0, 58, 0
2, 46710, Note_on_c, 0, 64, 0
2, 46710, Note_on_c, 0, 54, 74
2, 46754, Note_on_c, 0, 54, 0
2, 46800, Note_on_c, 0, 58, 107
2, 46800, Note_on_c, 0, 64, 107
2, 46800, Note_on_c, 0, 66, 107
2, 46890, Note_on_c, 0, 66, 0
2, 46890, Note_on_c, 0, 64, 0
2, 46890, Note_on_c, 0, 58, 0
2, 46890, Note_on_c, 0, 54, 79
2, 46934, Note_on_c, 0, 54, 0
2, 46980, Note_on_c, 0, 36, 0
2, 46980, Note_on_c, 0, 64, 118
2, 46980, Note_on_c, 0, 67, 118
2, 46980, Note_on_c, 0, 59, 65
2, 46980, Note_on_c, 0, 43, 93
2, 47024, Note_on_c, 0, 43, 0
2, 47024, Note_on_c, 0, 59, 0
2, 47070, Note_on_c, 0, 55, 53
2, 47070, Note_on_c, 0, 42, 80
2, 47114, Note_on_c, 0, 42, 0
2, 47114, Note_on_c, 0, 55, 0
2, 47160, Note_on_c, 0, 60, 68
2, 47160, Note_on_c, 0, 40, 83
2, 47204, Note_on_c, 0, 40, 0
2, 47204, Note_on_c, 0, 60, 0
2, 47250, Note_on_c, 0, 55, 53
2, 47250, Note_on_c, 0, 37, 79
2, 47294, Note_on_c, 0, 37, 0
2, 47294, Note_on_c, 0, 55, 0
2, 47297, Note_on_c, 0, 67, 0
2, 47297, Note_on_c, 0, 64, 0
2, 47340, Note_on_c, 0, 61, 82
2, 47340, Note_on_c, 0, 64, 82
2, 47340, Note_on_c, 0, 66, 82
2, 47340, Note_on_c, 0, 34, 105
2, 47430, Note_on_c, 0, 66, 0
2, 47430, Note_on_c, 0, 61, 0
2, 47430, Note_on_c, 0, 64, 0
2, 47430, Note_on_c, 0, 54, 73
2, 47520, Note_on_c, 0, 54, 0
2, 47520, Note_on_c, 0, 61, 127
2, 47610, Note_on_c, 0, 61, 0
2, 47610, Note_on_c, 0, 64, 97
2, 47700, Note_on_c, 0, 34, 0
2, 47700, Note_on_c, 0, 66, 78
2, 47700, Note_on_c, 0, 60, 52
2, 47700, Note_on_c, 0, 50, 80
2, 47779, Note_on_c, 0, 50, 0
2, 47790, Note_on_c, 0, 43, 53
2, 47858, Note_on_c, 0, 64, 0
2, 47858, Note_on_c, 0, 66, 0
2, 47880, Note_on_c, 0, 60, 0
2, 47880, Note_on_c, 0, 43, 0
2, 47880, Note_on_c, 0, 59, 56
2, 47880, Note_on_c, 0, 59, 55
2, 47880, Note_on_c, 0, 38, 53
2, 47970, Note_on_c, 0, 38, 0
2, 47970, Note_on_c, 0, 59, 0
2, 47970, Note_on_c, 0, 64, 67
2, 47970, Note_on_c, 0, 31, 52
2, 48060, Note_on_c, 0, 31, 0
2, 48060, Note_on_c, 0, 59, 0
2, 48060, Note_on_c, 0, 66, 78
2, 48060, Note_on_c, 0, 58, 57
2, 48060, Note_on_c, 0, 49, 80
2, 48139, Note_on_c, 0, 49, 0
2, 48150, Note_on_c, 0, 43, 51
2, 48218, Note_on_c, 0, 64, 0
2, 48218, Note_on_c, 0, 66, 0
2, 48240, Note_on_c, 0, 58, 0
2, 48240, Note_on_c, 0, 43, 0
2, 48240, Note_on_c, 0, 59, 58
2, 48240, Note_on_c, 0, 59, 58
2, 48240, Note_on_c, 0, 38, 57
2, 48330, Note_on_c, 0, 38, 0
2, 48330, Note_on_c, 0, 59, 0
2, 48330, Note_on_c, 0, 64, 72
2, 48330, Note_on_c, 0, 31, 51
2, 48420, Note_on_c, 0, 31, 0
2, 48420, Note_on_c, 0, 59, 0
2, 48420, Note_on_c, 0, 66, 85
2, 48420, Note_on_c, 0, 71, 85
2, 48420, Note_on_c, 0, 60, 83
2, 48420, Note_on_c, 0, 50, 83
2, 48499, Note_on_c, 0, 50, 0
2, 48510, Note_on_c, 0, 43, 60
2, 48578, Note_on_c, 0, 64, 0
2, 48578, Note_on_c, 0, 71, 0
2, 48578, Note_on_c, 0, 66, 0
2, 48600, Note_on_c, 0, 60, 0
2, 48600, Note_on_c, 0, 43, 0
2, 48600, Note_on_c, 0, 61, 70
2, 48600, Note_on_c, 0, 61, 83
2, 48600, Note_on_c, 0, 38, 59
2, 48690, Note_on_c, 0, 38, 0
2, 48690, Note_on_c, 0, 61, 0
2, 48690, Note_on_c, 0, 64, 94
2, 48690, Note_on_c, 0, 31, 54
2, 48780, Note_on_c, 0, 31, 0
2, 48780, Note_on_c, 0, 61, 0
2, 48780, Note_on_c, 0, 66, 103
2, 48780, Note_on_c, 0, 60, 58
2, 48780, Note_on_c, 0, 50, 85
2, 48859, Note_on_c, 0, 50, 0
2, 48870, Note_on_c, 0, 43, 54
2, 48938, Note_on_c, 0, 64, 0
2, 48938, Note_on_c, 0, 66, 0
2, 48960, Note_on_c, 0, 60, 0
2, 48960, Note_on_c, 0, 43, 0
2, 48960, Note_on_c, 0, 59, 57
2, 48960, Note_on_c, 0, 59, 60
2, 48960, Note_on_c, 0, 38, 54
2, 49050, Note_on_c, 0, 38, 0
2, 49050, Note_on_c, 0, 59, 0
2, 49050, Note_on_c, 0, 64, 72
2, 49050, Note_on_c, 0, 31, 51
2, 49140, Note_on_c, 0, 31, 0
2, 49140, Note_on_c, 0, 59, 0
2, 49140, Note_on_c, 0, 66, 79
2, 49140, Note_on_c, 0, 58, 57
2, 49140, Note_on_c, 0, 49, 82
2, 49219, Note_on_c, 0, 49, 0
2, 49230, Note_on_c, 0, 43, 55
2, 49298, Note_on_c, 0, 64, 0
2, 49298, Note_on_c, 0, 66, 0
2, 49320, Note_on_c, 0, 58, 0
2, 49320, Note_on_c, 0, 43, 0
2, 49320, Note_on_c, 0, 59, 59
2, 49320, Note_on_c, 0, 59, 55
2, 49320, Note_on_c, 0, 38, 58
2, 49410, Note_on_c, 0, 38, 0
2, 49410, Note_on_c, 0, 59, 0
2, 49410, Note_on_c, 0, 64, 70
2, 49410, Note_on_c, 0, 31, 53
2, 49500, Note_on_c, 0, 31, 0
2, 49500, Note_on_c, 0, 59, 0
2, 49500, Note_on_c, 0, 66, 85
2, 49500, Note_on_c, 0, 71, 85
2, 49500, Note_on_c, 0, 60, 57
2, 49500, Note_on_c, 0, 50, 79
2, 49579, Note_on_c, 0, 50, 0
2, 49590, Note_on_c, 0, 43, 56
2, 49658, Note_on_c, 0, 64, 0
2, 49658, Note_on_c, 0, 71, 0
2, 49658, Note_on_c, 0, 66, 0
2, 49680, Note_on_c, 0, 60, 0
2, 49680, Note_on_c, 0, 43, 0
2, 49680, Note_on_c, 0, 59, 50
2, 49680, Note_on_c, 0, 59, 59
2, 49680, Note_on_c, 0, 38, 56
2, 49770, Note_on_c, 0, 38, 0
2, 49770, Note_on_c, 0, 59, 0
2, 49770, Note_on_c, 0, 64, 65
2, 49770, Note_on_c, 0, 31, 54
2, 49860, Note_on_c, 0, 31, 0
2, 49860, Note_on_c, 0, 59, 0
2, 49860, Note_on_c, 0, 66, 81
2, 49860, Note_on_c, 0, 60, 58
2, 49860, Note_on_c, 0, 50, 71
2, 49950, Note_on_c, 0, 50, 0
2, 49950, Note_on_c, 0, 43, 60
2, 50018, Note_on_c, 0, 64, 0
2, 50018, Note_on_c, 0, 66, 0
2, 50040, Note_on_c, 0, 60, 0
2, 50040, Note_on_c, 0, 43, 0
2, 50040, Note_on_c, 0, 60, 46
2, 50040, Note_on_c, 0, 60, 60
2, 50040, Note_on_c, 0, 38, 62
2, 50130, Note_on_c, 0, 38, 0
2, 50130, Note_on_c, 0, 60, 0
2, 50130, Note_on_c, 0, 64, 64
2, 50130, Note_on_c, 0, 31, 54
2, 50220, Note_on_c, 0, 31, 0
2, 50220, Note_on_c, 0, 60, 0
2, 50220, Note_on_c, 0, 66, 78
2, 50220, Note_on_c, 0, 61, 62
2, 50220, Note_on_c, 0, 52, 68
2, 50310, Note_on_c, 0, 52, 0
2, 50310, Note_on_c, 0, 45, 65
2, 50378, Note_on_c, 0, 64, 0
2, 50378, Note_on_c, 0, 66, 0
2, 50400, Note_on_c, 0, 61, 0
2, 50400, Note_on_c, 0, 45, 0
2, 50400, Note_on_c, 0, 61, 51
2, 50400, Note_on_c, 0, 61, 64
2, 50400, Note_on_c, 0, 40, 55
2, 50490, Note_on_c, 0, 40, 0
2, 50490, Note_on_c, 0, 61, 0
2, 50490, Note_on_c, 0, 66, 65
2, 50490, Note_on_c, 0, 33, 51
2, 50580, Note_on_c, 0, 33, 0
2, 50580, Note_on_c, 0, 61, 0
2, 50580, Note_on_c, 0, 71, 85
2, 50580, Note_on_c, 0, 62, 66
2, 50580, Note_on_c, 0, 54, 68
2, 50670, Note_on_c, 0, 54, 0
2, 50670, Note_on_c, 0, 47, 56
2, 50738, Note_on_c, 0, 66, 0
2, 50738, Note_on_c, 0, 71, 0
2, 50760, Note_on_c, 0, 62, 0
2, 50760, Note_on_c, 0, 47, 0
2, 50760, Note_on_c, 0, 62, 49
2, 50760, Note_on_c, 0, 62, 68
2, 50760, Note_on_c, 0, 42, 54
2, 50850, Note_on_c, 0, 42, 0
2, 50850, Note_on_c, 0, 62, 0
2, 50850, Note_on_c, 0, 69, 70
2, 50850, Note_on_c, 0, 35, 55
2, 50940, Note_on_c, 0, 35, 0
2, 50940, Note_on_c, 0, 62, 0
2, 50940, Note_on_c, 0, 71, 81
2, 50940, Note_on_c, 0, 63, 71
2, 50940, Note_on_c, 0, 55, 73
2, 51030, Note_on_c, 0, 55, 0
2, 51030, Note_on_c, 0, 49, 59
2, 51098, Note_on_c, 0, 69, 0
2, 51098, Note_on_c, 0, 71, 0
2, 51120, Note_on_c, 0, 63, 0
2, 51120, Note_on_c, 0, 49, 0
2, 51120, Note_on_c, 0, 64, 50
2, 51120, Note_on_c, 0, 64, 73
2, 51120, Note_on_c, 0, 43, 50
2, 51210, Note_on_c, 0, 43, 0
2, 51210, Note_on_c, 0, 64, 0
2, 51210, Note_on_c, 0, 69, 65
2, 51210, Note_on_c, 0, 37, 53
2, 51300, Note_on_c, 0, 37, 0
2, 51300, Note_on_c, 0, 64, 0
2, 51300, Note_on_c, 0, 71, 76
2, 51300, Note_on_c, 0, 65, 75
2, 51300, Note_on_c, 0, 57, 70
2, 51390, Note_on_c, 0, 57, 0
2, 51390, Note_on_c, 0, 50, 53
2, 51458, Note_on_c, 0, 69, 0
2, 51458, Note_on_c, 0, 71, 0
2, 51480, Note_on_c, 0, 65, 0
2, 51480, Note_on_c, 0, 50, 0
2, 51480, Note_on_c, 0, 66, 56
2, 51480, Note_on_c, 0, 66, 77
2, 51480, Note_on_c, 0, 45, 55
2, 51570, Note_on_c, 0, 45, 0
2, 51570, Note_on_c, 0, 66, 0
2, 51570, Note_on_c, 0, 71, 68
2, 51570, Note_on_c, 0, 38, 55
2, 51660, Note_on_c, 0, 38, 0
2, 51660, Note_on_c, 0, 66, 0
2, 51660, Note_on_c, 0, 76, 82
2, 51660, Note_on_c, 0, 67, 79
2, 51660, Note_on_c, 0, 59, 68
2, 51750, Note_on_c, 0, 59, 0
2, 51750, Note_on_c, 0, 52, 56
2, 51818, Note_on_c, 0, 71, 0
2, 51818, Note_on_c, 0, 76, 0
2, 51840, Note_on_c, 0, 67, 0
2, 51840, Note_on_c, 0, 52, 0
2, 51840, Note_on_c, 0, 67, 54
2, 51840, Note_on_c, 0, 67, 81
2, 51840, Note_on_c, 0, 47, 54
2, 51930, Note_on_c, 0, 47, 0
2, 51930, Note_on_c, 0, 67, 0
2, 51930, Note_on_c, 0, 73, 68
2, 51930, Note_on_c, 0, 40, 52
2, 52020, Note_on_c, 0, 40, 0
2, 52020, Note_on_c, 0, 67, 0
2, 52020, Note_on_c, 0, 78, 71
2, 52020, Note_on_c, 0, 66, 83
2, 52020, Note_on_c, 0, 61, 75
2, 52110, Note_on_c, 0, 61, 0
2, 52110, Note_on_c, 0, 54, 53
2, 52200, Note_on_c, 0, 54, 0
2, 52200, Note_on_c, 0, 66, 0
2, 52200, Note_on_c, 0, 78, 0
2, 52200, Note_on_c, 0, 73, 0
2, 52200, Note_on_c, 0, 67, 105
2, 52200, Note_on_c, 0, 79, 105
2, 52200, Note_on_c, 0, 74, 96
2, 52200, Note_on_c, 0, 50, 57
2, 52290, Note_on_c, 0, 50, 0
2, 52290, Note_on_c, 0, 74, 0
2, 52290, Note_on_c, 0, 76, 95
2, 52290, Note_on_c, 0, 42, 54
2, 52380, Note_on_c, 0, 42, 0
2, 52380, Note_on_c, 0, 67, 0
2, 52380, Note_on_c, 0, 79, 0
2, 52380, Note_on_c, 0, 76, 0
2, 52380, Note_on_c, 0, 70, 127
2, 52380, Note_on_c, 0, 82, 127
2, 52380, Note_on_c, 0, 79, 86
2, 52380, Note_on_c, 0, 50, 107
2, 52380, Note_on_c, 0, 58, 107
2, 52380, Note_on_c, 0, 62, 107
2, 52470, Note_on_c, 0, 79, 0
2, 52470, Note_on_c, 0, 78, 79
2, 52560, Note_on_c, 0, 78, 0
2, 52560, Note_on_c, 0, 77, 79
2, 52650, Note_on_c, 0, 77, 0
2, 52650, Note_on_c, 0, 76, 81
2, 52740, Note_on_c, 0, 76, 0
2, 52740, Note_on_c, 0, 82, 0
2, 52740, Note_on_c, 0, 70, 0
2, 52740, Note_on_c, 0, 67, 92
2, 52740, Note_on_c, 0, 79, 92
2, 52740, Note_on_c, 0, 75, 77
2, 52830, Note_on_c, 0, 75, 0
2, 52830, Note_on_c, 0, 74, 83
2, 52920, Note_on_c, 0, 74, 0
2, 52920, Note_on_c, 0, 50, 0
2, 52920, Note_on_c, 0, 62, 0
2, 52920, Note_on_c, 0, 73, 71
2, 52920, Note_on_c, 0, 52, 67
2, 52920, Note_on_c, 0, 64, 67
2, 52992, Note_on_c, 0, 64, 0
2, 52992, Note_on_c, 0, 58, 0
2, 52992, Note_on_c, 0, 52, 0
2, 53010, Note_on_c, 0, 73, 0
2, 53010, Note_on_c, 0, 72, 58
2, 53100, Note_on_c, 0, 72, 0
2, 53100, Note_on_c, 0, 79, 0
2, 53100, Note_on_c, 0, 67, 0
2, 53100, Note_on_c, 0, 66, 67
2, 53100, Note_on_c, 0, 78, 67
2, 53100, Note_on_c, 0, 73, 58
2, 53100, Note_on_c, 0, 61, 57
2, 53190, Note_on_c, 0, 61, 0
2, 53190, Note_on_c, 0, 54, 60
2, 53280, Note_on_c, 0, 54, 0
2, 53280, Note_on_c, 0, 73, 0
2, 53280, Note_on_c, 0, 78, 0
2, 53280, Note_on_c, 0, 66, 0
2, 53280, Note_on_c, 0, 67, 75
2, 53280, Note_on_c, 0, 79, 75
2, 53280, Note_on_c, 0, 74, 58
2, 53280, Note_on_c, 0, 50, 57
2, 53370, Note_on_c, 0, 50, 0
2, 53370, Note_on_c, 0, 74, 0
2, 53370, Note_on_c, 0, 76, 83
2, 53370, Note_on_c, 0, 42, 52
2, 53460, Note_on_c, 0, 42, 0
2, 53460, Note_on_c, 0, 67, 0
2, 53460, Note_on_c, 0, 79, 0
2, 53460, Note_on_c, 0, 76, 0
2, 53460, Note_on_c, 0, 70, 127
2, 53460, Note_on_c, 0, 82, 127
2, 53460, Note_on_c, 0, 79, 89
2, 53460, Note_on_c, 0, 50, 101
2, 53460, Note_on_c, 0, 58, 101
2, 53460, Note_on_c, 0, 62, 101
2, 53550, Note_on_c, 0, 79, 0
2, 53550, Note_on_c, 0, 78, 78
2, 53640, Note_on_c, 0, 78, 0
2, 53640, Note_on_c, 0, 77, 79
2, 53730, Note_on_c, 0, 77, 0
2, 53730, Note_on_c, 0, 76, 80
2, 53820, Note_on_c, 0, 76, 0
2, 53820, Note_on_c, 0, 82, 0
2, 53820, Note_on_c, 0, 70, 0
2, 53820, Note_on_c, 0, 67, 95
2, 53820, Note_on_c, 0, 79, 95
2, 53820, Note_on_c, 0, 75, 77
2, 53910, Note_on_c, 0, 75, 0
2, 53910, Note_on_c, 0, 74, 83
2, 54000, Note_on_c, 0, 74, 0
2, 54000, Note_on_c, 0, 50, 0
2, 54000, Note_on_c, 0, 62, 0
2, 54000, Note_on_c, 0, 73, 71
2, 54000, Note_on_c, 0, 52, 66
2, 54000, Note_on_c, 0, 64, 66
2, 54090, Note_on_c, 0, 73, 0
2, 54090, Note_on_c, 0, 72, 58
2, 54144, Note_on_c, 0, 52, 0
2, 54144, Note_on_c, 0, 58, 0
2, 54144, Note_on_c, 0, 64, 0
2, 54180, Note_on_c, 0, 67, 0
2, 54180, Note_on_c, 0, 79, 0
2, 54180, Note_on_c, 0, 72, 0
2, 54180, Note_on_c, 0, 71, 127
2, 54180, Note_on_c, 0, 76, 127
2, 54180, Note_on_c, 0, 83, 127
2, 54180, Note_on_c, 0, 40, 83
2, 54180, Note_on_c, 0, 47, 83
2, 54180, Note_on_c, 0, 55, 83
2, 54270, Note_on_c, 0, 83, 0
2, 54270, Note_on_c, 0, 71, 0
2, 54270, Note_on_c, 0, 76, 0
2, 54270, Note_on_c, 0, 79, 65
2, 54360, Note_on_c, 0, 79, 0
2, 54360, Note_on_c, 0, 55, 0
2, 54360, Note_on_c, 0, 47, 0
2, 54360, Note_on_c, 0, 40, 0
2, 54360, Note_on_c, 0, 76, 66
2, 54450, Note_on_c, 0, 76, 0
2, 54450, Note_on_c, 0, 79, 77
2, 54540, Note_on_c, 0, 79, 0
2, 54540, Note_on_c, 0, 76, 64
2, 54630, Note_on_c, 0, 76, 0
2, 54630, Note_on_c, 0, 73, 65
2, 54720, Note_on_c, 0, 73, 0
2, 54720, Note_on_c, 0, 71, 62
2, 54720, Note_on_c, 0, 64, 57
2, 54810, Note_on_c, 0, 64, 0
2, 54810, Note_on_c, 0, 71, 0
2, 54810, Note_on_c, 0, 73, 78
2, 54810, Note_on_c, 0, 66, 58
2, 54900, Note_on_c, 0, 66, 0
2, 54900, Note_on_c, 0, 73, 0
2, 54900, Note_on_c, 0, 71, 68
2, 54900, Note_on_c, 0, 67, 89
2, 54990, Note_on_c, 0, 71, 0
2, 54990, Note_on_c, 0, 67, 69
2, 55080, Note_on_c, 0, 67, 0
2, 55080, Note_on_c, 0, 67, 0
2, 55080, Note_on_c, 0, 64, 63
2, 55080, Note_on_c, 0, 61, 56
2, 55169, Note_on_c, 0, 61, 0
2, 55170, Note_on_c, 0, 64, 0
2, 55170, Note_on_c, 0, 67, 78
2, 55260, Note_on_c, 0, 67, 0
2, 55260, Note_on_c, 0, 64, 72
2, 55260, Note_on_c, 0, 59, 57
2, 55349, Note_on_c, 0, 59, 0
2, 55350, Note_on_c, 0, 64, 0
2, 55350, Note_on_c, 0, 61, 70
2, 55440, Note_on_c, 0, 61, 0
2, 55440, Note_on_c, 0, 59, 67
2, 55440, Note_on_c, 0, 55, 56
2, 55529, Note_on_c, 0, 55, 0
2, 55530, Note_on_c, 0, 59, 0
2, 55530, Note_on_c, 0, 61, 65
2, 55620, Note_on_c, 0, 61, 0
2, 55620, Note_on_c, 0, 59, 63
2, 55620, Note_on_c, 0, 52, 58
2, 55709, Note_on_c, 0, 52, 0
2, 55710, Note_on_c, 0, 59, 0
2, 55710, Note_on_c, 0, 55, 60
2, 55800, Note_on_c, 0, 55, 0
2, 55800, Note_on_c, 0, 60, 58
2, 55800, Note_on_c, 0, 51, 61
2, 55844, Note_on_c, 0, 51, 0
2, 55890, Note_on_c, 0, 60, 0
2, 55890, Note_on_c, 0, 61, 56
2, 55890, Note_on_c, 0, 52, 61
2, 55934, Note_on_c, 0, 52, 0
2, 55980, Note_on_c, 0, 61, 0
2, 55980, Note_on_c, 0, 67, 53
2, 55980, Note_on_c, 0, 55, 44
2, 55980, Note_on_c, 0, 64, 44
2, 55980, Note_on_c, 0, 48, 59
2, 56024, Note_on_c, 0, 48, 0
2, 56070, Note_on_c, 0, 49, 68
2, 56114, Note_on_c, 0, 49, 0
2, 56160, Note_on_c, 0, 64, 0
2, 56160, Note_on_c, 0, 55, 0
2, 56160, Note_on_c, 0, 55, 49
2, 56160, Note_on_c, 0, 62, 49
2, 56160, Note_on_c, 0, 47, 58
2, 56204, Note_on_c, 0, 47, 0
2, 56250, Note_on_c, 0, 48, 56
2, 56294, Note_on_c, 0, 48, 0
2, 56340, Note_on_c, 0, 62, 0
2, 56340, Note_on_c, 0, 55, 0
2, 56340, Note_on_c, 0, 55, 61
2, 56340, Note_on_c, 0, 61, 61
2, 56340, Note_on_c, 0, 46, 71
2, 56429, Note_on_c, 0, 61, 0
2, 56429, Note_on_c, 0, 55, 0
2, 56520, Note_on_c, 0, 55, 66
2, 56520, Note_on_c, 0, 61, 66
2, 56520, Note_on_c, 0, 64, 66
2, 56609, Note_on_c, 0, 64, 0
2, 56609, Note_on_c, 0, 55, 0
2, 56609, Note_on_c, 0, 61, 0
2, 56700, Note_on_c, 0, 55, 66
2, 56700, Note_on_c, 0, 61, 66
2, 56700, Note_on_c, 0, 64, 66
2, 56789, Note_on_c, 0, 64, 0
2, 56789, Note_on_c, 0, 55, 0
2, 56789, Note_on_c, 0, 61, 0
2, 56814, Note_on_c, 0, 46, 0
2, 56880, Note_on_c, 0, 67, 0
2, 56880, Note_on_c, 0, 60, 39
2, 56880, Note_on_c, 0, 55, 56
2, 56880, Note_on_c, 0, 51, 66
2, 56924, Note_on_c, 0, 51, 0
2, 56969, Note_on_c, 0, 55, 0
2, 56970, Note_on_c, 0, 60, 0
2, 56970, Note_on_c, 0, 61, 47
2, 56970, Note_on_c, 0, 52, 58
2, 57014, Note_on_c, 0, 52, 0
2, 57060, Note_on_c, 0, 61, 0
2, 57060, Note_on_c, 0, 67, 65
2, 57060, Note_on_c, 0, 55, 71
2, 57060, Note_on_c, 0, 64, 71
2, 57060, Note_on_c, 0, 48, 62
2, 57104, Note_on_c, 0, 48, 0
2, 57149, Note_on_c, 0, 64, 0
2, 57149, Note_on_c, 0, 55, 0
2, 57150, Note_on_c, 0, 49, 59
2, 57194, Note_on_c, 0, 49, 0
2, 57240, Note_on_c, 0, 55, 56
2, 57240, Note_on_c, 0, 62, 56
2, 57240, Note_on_c, 0, 47, 58
2, 57284, Note_on_c, 0, 47, 0
2, 57329, Note_on_c, 0, 62, 0
2, 57329, Note_on_c, 0, 55, 0
2, 57330, Note_on_c, 0, 48, 62
2, 57374, Note_on_c, 0, 48, 0
2, 57420, Note_on_c, 0, 55, 54
2, 57420, Note_on_c, 0, 61, 54
2, 57420, Note_on_c, 0, 46, 70
2, 57509, Note_on_c, 0, 61, 0
2, 57509, Note_on_c, 0, 55, 0
2, 57600, Note_on_c, 0, 55, 66
2, 57600, Note_on_c, 0, 61, 66
2, 57600, Note_on_c, 0, 64, 66
2, 57689, Note_on_c, 0, 64, 0
2, 57689, Note_on_c, 0, 55, 0
2, 57689, Note_on_c, 0, 61, 0
2, 57780, Note_on_c, 0, 55, 66
2, 57780, Note_on_c, 0, 61, 66
2, 57780, Note_on_c, 0, 64, 66
2, 57869, Note_on_c, 0, 64, 0
2, 57869, Note_on_c, 0, 55, 0
2, 57869, Note_on_c, 0, 61, 0
2, 57894, Note_on_c, 0, 46, 0
2, 57960, Note_on_c, 0, 67, 0
2, 57960, Note_on_c, 0, 61, 54
2, 57960, Note_on_c, 0, 63, 54
2, 57960, Note_on_c, 0, 54, 72
2, 58049, Note_on_c, 0, 63, 0
2, 58049, Note_on_c, 0, 61, 0
2, 58050, Note_on_c, 0, 54, 0
2, 58050, Note_on_c, 0, 55, 61
2, 58140, Note_on_c, 0, 55, 0
2, 58140, Note_on_c, 0, 55, 89
2, 58140, Note_on_c, 0, 61, 89
2, 58140, Note_on_c, 0, 64, 89
2, 58140, Note_on_c, 0, 46, 67
2, 58320, Note_on_c, 0, 64, 0
2, 58320, Note_on_c, 0, 55, 0
2, 58320, Note_on_c, 0, 61, 0
2, 58320, Note_on_c, 0, 55, 61
2, 58320, Note_on_c, 0, 61, 61
2, 58320, Note_on_c, 0, 64, 61
2, 58409, Note_on_c, 0, 64, 0
2, 58409, Note_on_c, 0, 61, 0
2, 58409, Note_on_c, 0, 55, 0
2, 58500, Note_on_c, 0, 55, 64
2, 58500, Note_on_c, 0, 61, 64
2, 58500, Note_on_c, 0, 64, 64
2, 58589, Note_on_c, 0, 64, 0
2, 58589, Note_on_c, 0, 61, 0
2, 58589, Note_on_c, 0, 55, 0
2, 58614, Note_on_c, 0, 46, 0
2, 58680, Note_on_c, 0, 61, 56
2, 58680, Note_on_c, 0, 63, 56
2, 58680, Note_on_c, 0, 54, 65
2, 58769, Note_on_c, 0, 63, 0
2, 58769, Note_on_c, 0, 61, 0
2, 58770, Note_on_c, 0, 54, 0
2, 58770, Note_on_c, 0, 55, 61
2, 58860, Note_on_c, 0, 55, 0
2, 58860, Note_on_c, 0, 55, 67
2, 58860, Note_on_c, 0, 61, 67
2, 58860, Note_on_c, 0, 64, 67
2, 58860, Note_on_c, 0, 46, 55
2, 58949, Note_on_c, 0, 46, 0
2, 59040, Note_on_c, 0, 55, 0
2, 59040, Note_on_c, 0, 61, 0
2, 59040, Note_on_c, 0, 64, 0
2, 59040, Note_on_c, 0, 61, 51
2, 59040, Note_on_c, 0, 63, 51
2, 59040, Note_on_c, 0, 54, 67
2, 59129, Note_on_c, 0, 63, 0
2, 59129, Note_on_c, 0, 61, 0
2, 59130, Note_on_c, 0, 54, 0
2, 59130, Note_on_c, 0, 55, 64
2, 59220, Note_on_c, 0, 55, 0
2, 59220, Note_on_c, 0, 55, 71
2, 59220, Note_on_c, 0, 61, 71
2, 59220, Note_on_c, 0, 64, 71
2, 59220, Note_on_c, 0, 46, 53
2, 59309, Note_on_c, 0, 46, 0
2, 59400, Note_on_c, 0, 55, 0
2, 59400, Note_on_c, 0, 61, 0
2, 59400, Note_on_c, 0, 64, 0
2, 59400, Note_on_c, 0, 61, 46
2, 59400, Note_on_c, 0, 63, 46
2, 59400, Note_on_c, 0, 54, 63
2, 59489, Note_on_c, 0, 63, 0
2, 59489, Note_on_c, 0, 61, 0
2, 59490, Note_on_c, 0, 54, 0
2, 59490, Note_on_c, 0, 55, 65
2, 59580, Note_on_c, 0, 55, 0
2, 59580, Note_on_c, 0, 55, 73
2, 59580, Note_on_c, 0, 61, 73
2, 59580, Note_on_c, 0, 64, 73
2, 59580, Note_on_c, 0, 46, 52
2, 59624, Note_on_c, 0, 46, 0
2, 59670, Note_on_c, 0, 54, 60
2, 59714, Note_on_c, 0, 54, 0
2, 59760, Note_on_c, 0, 64, 0
2, 59760, Note_on_c, 0, 61, 0
2, 59760, Note_on_c, 0, 55, 0
2, 59760, Note_on_c, 0, 55, 67
2, 59804, Note_on_c, 0, 55, 0
2, 59850, Note_on_c, 0, 53, 73
2, 59894, Note_on_c, 0, 53, 0
2, 59940, Note_on_c, 0, 55, 79
2, 59984, Note_on_c, 0, 55, 0
2, 60030, Note_on_c, 0, 52, 86
2, 60074, Note_on_c, 0, 52, 0
2, 60120, Note_on_c, 0, 55, 91
2, 60164, Note_on_c, 0, 55, 0
2, 60210, Note_on_c, 0, 51, 79
2, 60254, Note_on_c, 0, 51, 0
2, 60300, Note_on_c, 0, 58, 89
2, 60344, Note_on_c, 0, 58, 0
2, 60390, Note_on_c, 0, 50, 78
2, 60434, Note_on_c, 0, 50, 0
2, 60480, Note_on_c, 0, 55, 87
2, 60524, Note_on_c, 0, 55, 0
2, 60570, Note_on_c, 0, 49, 81
2, 60614, Note_on_c, 0, 49, 0
2, 60660, Note_on_c, 0, 55, 86
2, 60704, Note_on_c, 0, 55, 0
2, 60750, Note_on_c, 0, 48, 77
2, 60794, Note_on_c, 0, 48, 0
2, 60840, Note_on_c, 0, 62, 45
2, 60840, Note_on_c, 0, 55, 69
2, 60884, Note_on_c, 0, 55, 0
2, 60930, Note_on_c, 0, 62, 0
2, 60930, Note_on_c, 0, 64, 50
2, 60930, Note_on_c, 0, 47, 61
2, 60974, Note_on_c, 0, 47, 0
2, 61020, Note_on_c, 0, 64, 0
2, 61020, Note_on_c, 0, 62, 75
2, 61020, Note_on_c, 0, 66, 75
2, 61020, Note_on_c, 0, 46, 85
2, 61020, Note_on_c, 0, 50, 85
2, 61020, Note_on_c, 0, 54, 85
2, 61200, Note_on_c, 0, 54, 0
2, 61200, Note_on_c, 0, 46, 0
2, 61200, Note_on_c, 0, 62, 0
2, 61200, Note_on_c, 0, 66, 0
2, 61200, Note_on_c, 0, 50, 0
2, 61200, Note_on_c, 0, 62, 64
2, 61200, Note_on_c, 0, 66, 64
2, 61200, Note_on_c, 0, 46, 62
2, 61200, Note_on_c, 0, 50, 62
2, 61200, Note_on_c, 0, 54, 62
2, 61289, Note_on_c, 0, 54, 0
2, 61289, Note_on_c, 0, 46, 0
2, 61289, Note_on_c, 0, 62, 0
2, 61289, Note_on_c, 0, 66, 0
2, 61289, Note_on_c, 0, 50, 0
2, 61380, Note_on_c, 0, 62, 60
2, 61380, Note_on_c, 0, 66, 60
2, 61380, Note_on_c, 0, 46, 61
2, 61380, Note_on_c, 0, 50, 61
2, 61380, Note_on_c, 0, 54, 61
2, 61469, Note_on_c, 0, 54, 0
2, 61469, Note_on_c, 0, 46, 0
2, 61469, Note_on_c, 0, 62, 0
2, 61469, Note_on_c, 0, 66, 0
2, 61469, Note_on_c, 0, 50, 0
2, 61560, Note_on_c, 0, 58, 78
2, 61560, Note_on_c, 0, 61, 78
2, 61560, Note_on_c, 0, 70, 78
2, 61560, Note_on_c, 0, 43, 72
2, 61560, Note_on_c, 0, 49, 72
2, 61560, Note_on_c, 0, 52, 72
2, 61718, Note_on_c, 0, 52, 0
2, 61718, Note_on_c, 0, 61, 0
2, 61718, Note_on_c, 0, 70, 0
2, 61718, Note_on_c, 0, 43, 0
2, 61718, Note_on_c, 0, 49, 0
2, 61740, Note_on_c, 0, 62, 55
2, 61740, Note_on_c, 0, 66, 55
2, 61740, Note_on_c, 0, 46, 63
2, 61740, Note_on_c, 0, 50, 63
2, 61740, Note_on_c, 0, 54, 63
2, 61920, Note_on_c, 0, 54, 0
2, 61920, Note_on_c, 0, 62, 0
2, 61920, Note_on_c, 0, 66, 0
2, 61920, Note_on_c, 0, 58, 0
2, 61920, Note_on_c, 0, 50, 0
2, 61920, Note_on_c, 0, 46, 0
2, 61920, Note_on_c, 0, 58, 80
2, 61920, Note_on_c, 0, 61, 80
2, 61920, Note_on_c, 0, 70, 80
2, 61920, Note_on_c, 0, 43, 70
2, 61920, Note_on_c, 0, 49, 70
2, 61920, Note_on_c, 0, 52, 70
2, 62078, Note_on_c, 0, 52, 0
2, 62078, Note_on_c, 0, 61, 0
2, 62078, Note_on_c, 0, 70, 0
2, 62078, Note_on_c, 0, 43, 0
2, 62078, Note_on_c, 0, 49, 0
2, 62100, Note_on_c, 0, 62, 53
2, 62100, Note_on_c, 0, 66, 53
2, 62100, Note_on_c, 0, 46, 63
2, 62100, Note_on_c, 0, 50, 63
2, 62100, Note_on_c, 0, 54, 63
2, 62280, Note_on_c, 0, 54, 0
2, 62280, Note_on_c, 0, 62, 0
2, 62280, Note_on_c, 0, 66, 0
2, 62280, Note_on_c, 0, 58, 0
2, 62280, Note_on_c, 0, 50, 0
2, 62280, Note_on_c, 0, 46, 0
2, 62280, Note_on_c, 0, 62, 60
2, 62280, Note_on_c, 0, 50, 62
2, 62370, Note_on_c, 0, 50, 0
2, 62370, Note_on_c, 0, 62, 0
2, 62370, Note_on_c, 0, 64, 73
2, 62370, Note_on_c, 0, 52, 65
2, 62460, Note_on_c, 0, 52, 0
2, 62460, Note_on_c, 0, 64, 0
2, 62460, Note_on_c, 0, 54, 86
2, 62460, Note_on_c, 0, 58, 86
2, 62460, Note_on_c, 0, 62, 86
2, 62460, Note_on_c, 0, 66, 86
2, 62460, Note_on_c, 0, 42, 83
2, 62460, Note_on_c, 0, 46, 83
2, 62460, Note_on_c, 0, 50, 83
2, 62640, Note_on_c, 0, 50, 0
2, 62640, Note_on_c, 0, 42, 0
2, 62640, Note_on_c, 0, 58, 0
2, 62640, Note_on_c, 0, 62, 0
2, 62640, Note_on_c, 0, 54, 0
2, 62640, Note_on_c, 0, 46, 0
2, 62640, Note_on_c, 0, 66, 0
2, 62640, Note_on_c, 0, 58, 86
2, 62640, Note_on_c, 0, 66, 86
2, 62640, Note_on_c, 0, 42, 63
2, 62640, Note_on_c, 0, 50, 63
2, 62729, Note_on_c, 0, 50, 0
2, 62729, Note_on_c, 0, 58, 0
2, 62729, Note_on_c, 0, 66, 0
2, 62729, Note_on_c, 0, 42, 0
2, 62820, Note_on_c, 0, 58, 87
2, 62820, Note_on_c, 0, 66, 87
2, 62820, Note_on_c, 0, 42, 58
2, 62820, Note_on_c, 0, 50, 58
2, 62909, Note_on_c, 0, 50, 0
2, 62909, Note_on_c, 0, 58, 0
2, 62909, Note_on_c, 0, 66, 0
2, 62909, Note_on_c, 0, 42, 0
2, 63000, Note_on_c, 0, 58, 111
2, 63000, Note_on_c, 0, 61, 111
2, 63000, Note_on_c, 0, 70, 111
2, 63000, Note_on_c, 0, 39, 77
2, 63000, Note_on_c, 0, 46, 77
2, 63000, Note_on_c, 0, 54, 77
2, 63158, Note_on_c, 0, 54, 0
2, 63158, Note_on_c, 0, 61, 0
2, 63158, Note_on_c, 0, 70, 0
2, 63180, Note_on_c, 0, 62, 69
2, 63180, Note_on_c, 0, 66, 69
2, 63180, Note_on_c, 0, 42, 55
2, 63180, Note_on_c, 0, 50, 55
2, 63360, Note_on_c, 0, 50, 0
2, 63360, Note_on_c, 0, 66, 0
2, 63360, Note_on_c, 0, 58, 0
2, 63360, Note_on_c, 0, 46, 0
2, 63360, Note_on_c, 0, 62, 0
2, 63360, Note_on_c, 0, 42, 0
2, 63360, Note_on_c, 0, 58, 110
2, 63360, Note_on_c, 0, 61, 110
2, 63360, Note_on_c, 0, 70, 110
2, 63360, Note_on_c, 0, 46, 71
2, 63360, Note_on_c, 0, 54, 71
2, 63518, Note_on_c, 0, 54, 0
2, 63518, Note_on_c, 0, 61, 0
2, 63518, Note_on_c, 0, 70, 0
2, 63540, Note_on_c, 0, 62, 83
2, 63540, Note_on_c, 0, 66, 83
2, 63540, Note_on_c, 0, 42, 61
2, 63540, Note_on_c, 0, 50, 61
2, 63630, Note_on_c, 0, 50, 0
2, 63630, Note_on_c, 0, 66, 0
2, 63630, Note_on_c, 0, 46, 0
2, 63630, Note_on_c, 0, 58, 0
2, 63630, Note_on_c, 0, 62, 0
2, 63630, Note_on_c, 0, 42, 0
2, 63630, Note_on_c, 0, 61, 86
2, 63630, Note_on_c, 0, 49, 57
2, 63720, Note_on_c, 0, 49, 0
2, 63720, Note_on_c, 0, 61, 0
2, 63720, Note_on_c, 0, 62, 94
2, 63720, Note_on_c, 0, 50, 60
2, 63810, Note_on_c, 0, 50, 0
2, 63810, Note_on_c, 0, 62, 0
2, 63810, Note_on_c, 0, 64, 103
2, 63810, Note_on_c, 0, 52, 64
2, 63900, Note_on_c, 0, 52, 0
2, 63900, Note_on_c, 0, 64, 0
2, 63900, Note_on_c, 0, 54, 88
2, 63900, Note_on_c, 0, 62, 88
2, 63900, Note_on_c, 0, 66, 88
2, 63900, Note_on_c, 0, 38, 81
2, 63900, Note_on_c, 0, 45, 81
2, 64080, Note_on_c, 0, 45, 0
2, 64080, Note_on_c, 0, 54, 0
2, 64080, Note_on_c, 0, 62, 0
2, 64080, Note_on_c, 0, 66, 0
2, 64080, Note_on_c, 0, 38, 0
2, 64080, Note_on_c, 0, 54, 63
2, 64080, Note_on_c, 0, 66, 63
2, 64080, Note_on_c, 0, 38, 60
2, 64080, Note_on_c, 0, 45, 60
2, 64169, Note_on_c, 0, 45, 0
2, 64169, Note_on_c, 0, 66, 0
2, 64169, Note_on_c, 0, 38, 0
2, 64169, Note_on_c, 0, 54, 0
2, 64260, Note_on_c, 0, 54, 62
2, 64260, Note_on_c, 0, 66, 62
2, 64260, Note_on_c, 0, 38, 58
2, 64260, Note_on_c, 0, 45, 58
2, 64349, Note_on_c, 0, 45, 0
2, 64349, Note_on_c, 0, 66, 0
2, 64349, Note_on_c, 0, 38, 0
2, 64349, Note_on_c, 0, 54, 0
2, 64440, Note_on_c, 0, 58, 76
2, 64440, Note_on_c, 0, 61, 76
2, 64440, Note_on_c, 0, 70, 76
2, 64440, Note_on_c, 0, 34, 78
2, 64440, Note_on_c, 0, 41, 78
2, 64440, Note_on_c, 0, 49, 78
2, 64598, Note_on_c, 0, 49, 0
2, 64598, Note_on_c, 0, 61, 0
2, 64598, Note_on_c, 0, 70, 0
2, 64620, Note_on_c, 0, 62, 58
2, 64620, Note_on_c, 0, 66, 58
2, 64620, Note_on_c, 0, 38, 53
2, 64620, Note_on_c, 0, 42, 53
2, 64620, Note_on_c, 0, 46, 53
2, 64800, Note_on_c, 0, 46, 0
2, 64800, Note_on_c, 0, 58, 0
2, 64800, Note_on_c, 0, 42, 0
2, 64800, Note_on_c, 0, 62, 0
2, 64800, Note_on_c, 0, 38, 0
2, 64800, Note_on_c, 0, 66, 0
2, 64800, Note_on_c, 0, 58, 81
2, 64800, Note_on_c, 0, 61, 81
2, 64800, Note_on_c, 0, 70, 81
2, 64800, Note_on_c, 0, 49, 77
2, 64958, Note_on_c, 0, 49, 0
2, 64958, Note_on_c, 0, 61, 0
2, 64958, Note_on_c, 0, 70, 0
2, 64980, Note_on_c, 0, 62, 52
2, 64980, Note_on_c, 0, 66, 52
2, 64980, Note_on_c, 0, 38, 59
2, 64980, Note_on_c, 0, 42, 59
2, 64980, Note_on_c, 0, 46, 59
2, 65160, Note_on_c, 0, 46, 0
2, 65160, Note_on_c, 0, 58, 0
2, 65160, Note_on_c, 0, 42, 0
2, 65160, Note_on_c, 0, 62, 0
2, 65160, Note_on_c, 0, 38, 0
2, 65160, Note_on_c, 0, 66, 0
2, 65160, Note_on_c, 0, 57, 87
2, 65160, Note_on_c, 0, 61, 87
2, 65160, Note_on_c, 0, 66, 87
2, 65160, Note_on_c, 0, 45, 81
2, 65204, Note_on_c, 0, 45, 0
2, 65250, Note_on_c, 0, 46, 83
2, 65294, Note_on_c, 0, 46, 0
2, 65340, Note_on_c, 0, 66, 0
2, 65340, Note_on_c, 0, 57, 0
2, 65340, Note_on_c, 0, 61, 0
2, 65340, Note_on_c, 0, 54, 99
2, 65340, Note_on_c, 0, 59, 99
2, 65340, Note_on_c, 0, 62, 99
2, 65340, Note_on_c, 0, 35, 111
2, 65340, Note_on_c, 0, 47, 111
2, 65520, Note_on_c, 0, 47, 0
2, 65520, Note_on_c, 0, 35, 0
2, 65520, Note_on_c, 0, 59, 0
2, 65520, Note_on_c, 0, 54, 0
2, 65520, Note_on_c, 0, 62, 0
2, 65520, Note_on_c, 0, 57, 90
2, 65520, Note_on_c, 0, 61, 90
2, 65520, Note_on_c, 0, 66, 90
2, 65520, Note_on_c, 0, 44, 81
2, 65564, Note_on_c, 0, 44, 0
2, 65609, Note_on_c, 0, 61, 0
2, 65609, Note_on_c, 0, 57, 0
2, 65609, Note_on_c, 0, 66, 0
2, 65610, Note_on_c, 0, 45, 84
2, 65654, Note_on_c, 0, 45, 0
2, 65700, Note_on_c, 0, 53, 100
2, 65700, Note_on_c, 0, 58, 100
2, 65700, Note_on_c, 0, 62, 100
2, 65700, Note_on_c, 0, 46, 111
2, 65880, Note_on_c, 0, 46, 0
2, 65880, Note_on_c, 0, 58, 0
2, 65880, Note_on_c, 0, 53, 0
2, 65880, Note_on_c, 0, 34, 0
2, 65880, Note_on_c, 0, 62, 0
2, 65880, Note_on_c, 0, 57, 88
2, 65880, Note_on_c, 0, 61, 88
2, 65880, Note_on_c, 0, 66, 88
2, 65880, Note_on_c, 0, 42, 79
2, 65924, Note_on_c, 0, 42, 0
2, 65969, Note_on_c, 0, 61, 0
2, 65969, Note_on_c, 0, 57, 0
2, 65969, Note_on_c, 0, 66, 0
2, 65970, Note_on_c, 0, 43, 88
2, 66014, Note_on_c, 0, 43, 0
2, 66060, Note_on_c, 0, 54, 104
2, 66060, Note_on_c, 0, 57, 104
2, 66060, Note_on_c, 0, 62, 104
2, 66060, Note_on_c, 0, 33, 109
2, 66060, Note_on_c, 0, 45, 109
2, 66240, Note_on_c, 0, 45, 0
2, 66240, Note_on_c, 0, 62, 0
2, 66240, Note_on_c, 0, 57, 0
2, 66240, Note_on_c, 0, 54, 0
2, 66240, Note_on_c, 0, 33, 0
2, 66240, Note_on_c, 0, 52, 85
2, 66240, Note_on_c, 0, 58, 85
2, 66240, Note_on_c, 0, 60, 85
2, 66240, Note_on_c, 0, 31, 86
2, 66240, Note_on_c, 0, 43, 86
2, 66319, Note_on_c, 0, 60, 0
2, 66319, Note_on_c, 0, 58, 0
2, 66319, Note_on_c, 0, 52, 0
2, 66330, Note_on_c, 0, 62, 86
2, 66398, Note_on_c, 0, 31, 0
2, 66398, Note_on_c, 0, 43, 0
2, 66420, Note_on_c, 0, 62, 0
2, 66420, Note_on_c, 0, 52, 84
2, 66420, Note_on_c, 0, 58, 84
2, 66420, Note_on_c, 0, 61, 84
2, 66420, Note_on_c, 0, 30, 109
2, 66420, Note_on_c, 0, 42, 109
2, 66600, Note_on_c, 0, 42, 0
2, 66600, Note_on_c, 0, 61, 0
2, 66600, Note_on_c, 0, 58, 0
2, 66600, Note_on_c, 0, 52, 0
2, 66600, Note_on_c, 0, 30, 0
2, 66600, Note_on_c, 0, 50, 57
2, 66600, Note_on_c, 0, 59, 57
2, 66600, Note_on_c, 0, 35, 84
2, 66600, Note_on_c, 0, 42, 84
2, 66689, Note_on_c, 0, 42, 0
2, 66689, Note_on_c, 0, 59, 0
2, 66689, Note_on_c, 0, 50, 0
2, 66689, Note_on_c, 0, 35, 0
2, 66780, Note_on_c, 0, 50, 75
2, 66780, Note_on_c, 0, 59, 75
2, 66780, Note_on_c, 0, 35, 95
2, 66780, Note_on_c, 0, 42, 95
2, 67097, Note_on_c, 0, 42, 0
2, 67097, Note_on_c, 0, 59, 0
2, 67097, Note_on_c, 0, 50, 0
2, 67097, Note_on_c, 0, 35, 0
2, 67140, Note_on_c, 0, 41, 0
2, 67140, Note_on_c, 0, 39, 0
2, 67320, Note_on_c, 0, 59, 70
2, 67320, Note_on_c, 0, 64, 70
2, 67320, Note_on_c, 0, 67, 70
2, 67320, Note_on_c, 0, 40, 74
2, 67320, Note_on_c, 0, 52, 74
2, 67410, Note_on_c, 0, 67, 0
2, 67410, Note_on_c, 0, 59, 0
2, 67410, Note_on_c, 0, 64, 0
2, 67410, Note_on_c, 0, 69, 88
2, 67500, Note_on_c, 0, 69, 0
2, 67500, Note_on_c, 0, 40, 0
2, 67500, Note_on_c, 0, 52, 0
2, 67500, Note_on_c, 0, 59, 110
2, 67500, Note_on_c, 0, 66, 110
2, 67500, Note_on_c, 0, 71, 110
2, 67500, Note_on_c, 0, 38, 79
2, 67500, Note_on_c, 0, 50, 79
2, 67680, Note_on_c, 0, 50, 0
2, 67680, Note_on_c, 0, 71, 0
2, 67680, Note_on_c, 0, 59, 0
2, 67680, Note_on_c, 0, 66, 0
2, 67680, Note_on_c, 0, 38, 0
2, 67680, Note_on_c, 0, 57, 68
2, 67680, Note_on_c, 0, 62, 68
2, 67680, Note_on_c, 0, 42, 76
2, 67769, Note_on_c, 0, 62, 0
2, 67769, Note_on_c, 0, 57, 0
2, 67770, Note_on_c, 0, 42, 0
2, 67770, Note_on_c, 0, 43, 86
2, 67860, Note_on_c, 0, 43, 0
2, 67860, Note_on_c, 0, 54, 90
2, 67860, Note_on_c, 0, 61, 90
2, 67860, Note_on_c, 0, 66, 90
2, 67860, Note_on_c, 0, 33, 83
2, 67860, Note_on_c, 0, 45, 83
2, 67949, Note_on_c, 0, 45, 0
2, 67949, Note_on_c, 0, 66, 0
2, 67949, Note_on_c, 0, 54, 0
2, 67949, Note_on_c, 0, 61, 0
2, 67949, Note_on_c, 0, 33, 0
2, 68040, Note_on_c, 0, 57, 90
2, 68040, Note_on_c, 0, 61, 90
2, 68040, Note_on_c, 0, 69, 90
2, 68040, Note_on_c, 0, 42, 92
2, 68040, Note_on_c, 0, 49, 92
2, 68040, Note_on_c, 0, 54, 92
2, 68129, Note_on_c, 0, 54, 0
2, 68129, Note_on_c, 0, 61, 0
2, 68129, Note_on_c, 0, 69, 0
2, 68129, Note_on_c, 0, 57, 0
2, 68129, Note_on_c, 0, 49, 0
2, 68129, Note_on_c, 0, 42, 0
2, 68220, Note_on_c, 0, 62, 103
2, 68220, Note_on_c, 0, 71, 103
2, 68220, Note_on_c, 0, 35, 89
2, 68220, Note_on_c, 0, 42, 89
2, 68220, Note_on_c, 0, 47, 89
2, 68694, Note_on_c, 0, 47, 0
2, 68694, Note_on_c, 0, 35, 0
2, 68694, Note_on_c, 0, 62, 0
2, 68694, Note_on_c, 0, 71, 0
2, 68694, Note_on_c, 0, 42, 0
2, 68940, Note_on_c, 0, 69, 58
2, 68940, Note_on_c, 0, 78, 58
2, 68940, Note_on_c, 0, 61, 55
2, 68940, Note_on_c, 0, 66, 55
2, 69029, Note_on_c, 0, 78, 0
2, 69029, Note_on_c, 0, 69, 0
2, 69030, Note_on_c, 0, 61, 0
2, 69030, Note_on_c, 0, 66, 0
2, 69030, Note_on_c, 0, 54, 51
2, 69120, Note_on_c, 0, 54, 0
2, 69120, Note_on_c, 0, 66, 43
2, 69120, Note_on_c, 0, 61, 75
2, 69120, Note_on_c, 0, 69, 75
2, 69210, Note_on_c, 0, 69, 0
2, 69210, Note_on_c, 0, 61, 0
2, 69210, Note_on_c, 0, 54, 59
2, 69300, Note_on_c, 0, 54, 0
2, 69300, Note_on_c, 0, 66, 0
2, 69300, Note_on_c, 0, 69, 72
2, 69300, Note_on_c, 0, 78, 72
2, 69300, Note_on_c, 0, 61, 78
2, 69300, Note_on_c, 0, 66, 78
2, 69389, Note_on_c, 0, 78, 0
2, 69389, Note_on_c, 0, 69, 0
2, 69390, Note_on_c, 0, 61, 0
2, 69390, Note_on_c, 0, 66, 0
2, 69390, Note_on_c, 0, 54, 52
2, 69480, Note_on_c, 0, 54, 0
2, 69480, Note_on_c, 0, 66, 49
2, 69480, Note_on_c, 0, 61, 74
2, 69480, Note_on_c, 0, 69, 74
2, 69570, Note_on_c, 0, 69, 0
2, 69570, Note_on_c, 0, 61, 0
2, 69570, Note_on_c, 0, 54, 57
2, 69660, Note_on_c, 0, 54, 0
2, 69660, Note_on_c, 0, 66, 0
2, 69660, Note_on_c, 0, 69, 75
2, 69660, Note_on_c, 0, 78, 75
2, 69660, Note_on_c, 0, 61, 77
2, 69660, Note_on_c, 0, 66, 77
2, 69749, Note_on_c, 0, 78, 0
2, 69749, Note_on_c, 0, 69, 0
2, 69750, Note_on_c, 0, 61, 0
2, 69750, Note_on_c, 0, 66, 0
2, 69750, Note_on_c, 0, 54, 57
2, 69840, Note_on_c, 0, 54, 0
2, 69840, Note_on_c, 0, 66, 47
2, 69840, Note_on_c, 0, 61, 76
2, 69840, Note_on_c, 0, 69, 76
2, 69930, Note_on_c, 0, 69, 0
2, 69930, Note_on_c, 0, 61, 0
2, 69930, Note_on_c, 0, 54, 51
2, 70020, Note_on_c, 0, 54, 0
2, 70020, Note_on_c, 0, 66, 0
2, 70020, Note_on_c, 0, 69, 72
2, 70020, Note_on_c, 0, 78, 72
2, 70020, Note_on_c, 0, 61, 75
2, 70020, Note_on_c, 0, 66, 75
2, 70110, Note_on_c, 0, 66, 0
2, 70110, Note_on_c, 0, 61, 0
2, 70110, Note_on_c, 0, 54, 56
2, 70200, Note_on_c, 0, 54, 0
2, 70200, Note_on_c, 0, 78, 0
2, 70200, Note_on_c, 0, 69, 0
2, 70200, Note_on_c, 0, 54, 123
2, 70200, Note_on_c, 0, 64, 79
2, 70200, Note_on_c, 0, 69, 79
2, 70290, Note_on_c, 0, 69, 0
2, 70290, Note_on_c, 0, 64, 0
2, 70290, Note_on_c, 0, 60, 46
2, 70380, Note_on_c, 0, 60, 0
2, 70380, Note_on_c, 0, 63, 72
2, 70380, Note_on_c, 0, 69, 72
2, 70470, Note_on_c, 0, 69, 0
2, 70470, Note_on_c, 0, 63, 0
2, 70470, Note_on_c, 0, 59, 53
2, 70560, Note_on_c, 0, 59, 0
2, 70560, Note_on_c, 0, 54, 0
2, 70560, Note_on_c, 0, 52, 97
2, 70560, Note_on_c, 0, 62, 68
2, 70560, Note_on_c, 0, 67, 68
2, 70604, Note_on_c, 0, 52, 0
2, 70650, Note_on_c, 0, 67, 0
2, 70650, Note_on_c, 0, 62, 0
2, 70650, Note_on_c, 0, 50, 89
2, 70650, Note_on_c, 0, 58, 59
2, 70694, Note_on_c, 0, 50, 0
2, 70740, Note_on_c, 0, 58, 0
2, 70740, Note_on_c, 0, 49, 80
2, 70740, Note_on_c, 0, 62, 75
2, 70740, Note_on_c, 0, 66, 75
2, 70784, Note_on_c, 0, 49, 0
2, 70830, Note_on_c, 0, 66, 0
2, 70830, Note_on_c, 0, 62, 0
2, 70830, Note_on_c, 0, 47, 72
2, 70830, Note_on_c, 0, 59, 56
2, 70874, Note_on_c, 0, 47, 0
2, 70920, Note_on_c, 0, 59, 0
2, 70920, Note_on_c, 0, 45, 91
2, 70920, Note_on_c, 0, 61, 78
2, 70920, Note_on_c, 0, 65, 78
2, 70964, Note_on_c, 0, 45, 0
2, 71010, Note_on_c, 0, 65, 0
2, 71010, Note_on_c, 0, 61, 0
2, 71010, Note_on_c, 0, 44, 99
2, 71010, Note_on_c, 0, 59, 56
2, 71054, Note_on_c, 0, 44, 0
2, 71100, Note_on_c, 0, 59, 0
2, 71100, Note_on_c, 0, 42, 67
2, 71100, Note_on_c, 0, 61, 71
2, 71100, Note_on_c, 0, 66, 71
2, 71189, Note_on_c, 0, 42, 0
2, 71190, Note_on_c, 0, 66, 0
2, 71190, Note_on_c, 0, 61, 0
2, 71190, Note_on_c, 0, 57, 51
2, 71280, Note_on_c, 0, 57, 0
2, 71280, Note_on_c, 0, 69, 72
2, 71280, Note_on_c, 0, 78, 72
2, 71280, Note_on_c, 0, 61, 76
2, 71280, Note_on_c, 0, 66, 76
2, 71370, Note_on_c, 0, 66, 0
2, 71370, Note_on_c, 0, 69, 0
2, 71370, Note_on_c, 0, 78, 0
2, 71370, Note_on_c, 0, 61, 0
2, 71370, Note_on_c, 0, 79, 84
2, 71370, Note_on_c, 0, 54, 58
2, 71460, Note_on_c, 0, 54, 0
2, 71460, Note_on_c, 0, 79, 0
2, 71460, Note_on_c, 0, 72, 97
2, 71460, Note_on_c, 0, 81, 97
2, 71460, Note_on_c, 0, 64, 77
2, 71460, Note_on_c, 0, 69, 77
2, 71550, Note_on_c, 0, 69, 0
2, 71550, Note_on_c, 0, 72, 0
2, 71550, Note_on_c, 0, 81, 0
2, 71550, Note_on_c, 0, 64, 0
2, 71550, Note_on_c, 0, 79, 92
2, 71550, Note_on_c, 0, 54, 52
2, 71640, Note_on_c, 0, 54, 0
2, 71640, Note_on_c, 0, 79, 0
2, 71640, Note_on_c, 0, 71, 90
2, 71640, Note_on_c, 0, 78, 90
2, 71640, Note_on_c, 0, 63, 77
2, 71640, Note_on_c, 0, 67, 77
2, 71730, Note_on_c, 0, 67, 0
2, 71730, Note_on_c, 0, 71, 0
2, 71730, Note_on_c, 0, 78, 0
2, 71730, Note_on_c, 0, 63, 0
2, 71730, Note_on_c, 0, 79, 97
2, 71730, Note_on_c, 0, 54, 55
2, 71820, Note_on_c, 0, 54, 0
2, 71820, Note_on_c, 0, 79, 0
2, 71820, Note_on_c, 0, 70, 97
2, 71820, Note_on_c, 0, 78, 97
2, 71820, Note_on_c, 0, 62, 76
2, 71820, Note_on_c, 0, 66, 76
2, 71910, Note_on_c, 0, 66, 0
2, 71910, Note_on_c, 0, 70, 0
2, 71910, Note_on_c, 0, 78, 0
2, 71910, Note_on_c, 0, 62, 0
2, 71910, Note_on_c, 0, 77, 89
2, 71910, Note_on_c, 0, 54, 55
2, 72000, Note_on_c, 0, 54, 0
2, 72000, Note_on_c, 0, 77, 0
2, 72000, Note_on_c, 0, 69, 80
2, 72000, Note_on_c, 0, 76, 80
2, 72000, Note_on_c, 0, 60, 75
2, 72000, Note_on_c, 0, 65, 75
2, 72090, Note_on_c, 0, 65, 0
2, 72090, Note_on_c, 0, 69, 0
2, 72090, Note_on_c, 0, 76, 0
2, 72090, Note_on_c, 0, 60, 0
2, 72090, Note_on_c, 0, 77, 72
2, 72090, Note_on_c, 0, 54, 57
2, 72180, Note_on_c, 0, 54, 0
2, 72180, Note_on_c, 0, 77, 0
2, 72180, Note_on_c, 0, 69, 66
2, 72180, Note_on_c, 0, 78, 66
2, 72180, Note_on_c, 0, 61, 73
2, 72180, Note_on_c, 0, 66, 73
2, 72269, Note_on_c, 0, 78, 0
2, 72269, Note_on_c, 0, 69, 0
2, 72270, Note_on_c, 0, 61, 0
2, 72270, Note_on_c, 0, 66, 0
2, 72270, Note_on_c, 0, 54, 56
2, 72360, Note_on_c, 0, 54, 0
2, 72360, Note_on_c, 0, 66, 41
2, 72360, Note_on_c, 0, 61, 71
2, 72360, Note_on_c, 0, 69, 71
2, 72450, Note_on_c, 0, 69, 0
2, 72450, Note_on_c, 0, 61, 0
2, 72450, Note_on_c, 0, 54, 59
2, 72540, Note_on_c, 0, 54, 0
2, 72540, Note_on_c, 0, 66, 0
2, 72540, Note_on_c, 0, 69, 72
2, 72540, Note_on_c, 0, 78, 72
2, 72540, Note_on_c, 0, 61, 76
2, 72540, Note_on_c, 0, 66, 76
2, 72629, Note_on_c, 0, 78, 0
2, 72629, Note_on_c, 0, 69, 0
2, 72630, Note_on_c, 0, 61, 0
2, 72630, Note_on_c, 0, 66, 0
2, 72630, Note_on_c, 0, 54, 50
2, 72720, Note_on_c, 0, 54, 0
2, 72720, Note_on_c, 0, 66, 49
2, 72720, Note_on_c, 0, 61, 77
2, 72720, Note_on_c, 0, 69, 77
2, 72810, Note_on_c, 0, 69, 0
2, 72810, Note_on_c, 0, 61, 0
2, 72810, Note_on_c, 0, 54, 53
2, 72900, Note_on_c, 0, 54, 0
2, 72900, Note_on_c, 0, 66, 0
2, 72900, Note_on_c, 0, 69, 74
2, 72900, Note_on_c, 0, 78, 74
2, 72900, Note_on_c, 0, 61, 78
2, 72900, Note_on_c, 0, 66, 78
2, 72989, Note_on_c, 0, 78, 0
2, 72989, Note_on_c, 0, 69, 0
2, 72990, Note_on_c, 0, 61, 0
2, 72990, Note_on_c, 0, 66, 0
2, 72990, Note_on_c, 0, 54, 52
2, 73080, Note_on_c, 0, 54, 0
2, 73080, Note_on_c, 0, 66, 46
2, 73080, Note_on_c, 0, 61, 76
2, 73080, Note_on_c, 0, 69, 76
2, 73170, Note_on_c, 0, 69, 0
2, 73170, Note_on_c, 0, 61, 0
2, 73170, Note_on_c, 0, 54, 62
2, 73260, Note_on_c, 0, 54, 0
2, 73260, Note_on_c, 0, 66, 0
2, 73260, Note_on_c, 0, 69, 72
2, 73260, Note_on_c, 0, 78, 72
2, 73260, Note_on_c, 0, 61, 80
2, 73260, Note_on_c, 0, 66, 80
2, 73350, Note_on_c, 0, 66, 0
2, 73350, Note_on_c, 0, 61, 0
2, 73350, Note_on_c, 0, 54, 54
2, 73440, Note_on_c, 0, 54, 0
2, 73440, Note_on_c, 0, 78, 0
2, 73440, Note_on_c, 0, 69, 0
2, 73440, Note_on_c, 0, 90, 122
2, 73440, Note_on_c, 0, 78, 106
2, 73440, Note_on_c, 0, 81, 106
2, 73440, Note_on_c, 0, 64, 79
2, 73440, Note_on_c, 0, 72, 79
2, 73530, Note_on_c, 0, 72, 0
2, 73530, Note_on_c, 0, 64, 0
2, 73530, Note_on_c, 0, 66, 54
2, 73620, Note_on_c, 0, 66, 0
2, 73620, Note_on_c, 0, 81, 0
2, 73620, Note_on_c, 0, 80, 83
2, 73620, Note_on_c, 0, 63, 67
2, 73620, Note_on_c, 0, 71, 67
2, 73710, Note_on_c, 0, 71, 0
2, 73710, Note_on_c, 0, 63, 0
2, 73710, Note_on_c, 0, 66, 48
2, 73800, Note_on_c, 0, 66, 0
2, 73800, Note_on_c, 0, 80, 0
2, 73800, Note_on_c, 0, 78, 0
2, 73800, Note_on_c, 0, 90, 0
2, 73800, Note_on_c, 0, 88, 75
2, 73800, Note_on_c, 0, 76, 84
2, 73800, Note_on_c, 0, 79, 84
2, 73800, Note_on_c, 0, 62, 64
2, 73800, Note_on_c, 0, 70, 64
2, 73844, Note_on_c, 0, 88, 0
2, 73890, Note_on_c, 0, 62, 0
2, 73890, Note_on_c, 0, 70, 0
2, 73890, Note_on_c, 0, 86, 73
2, 73890, Note_on_c, 0, 66, 55
2, 73934, Note_on_c, 0, 86, 0
2, 73980, Note_on_c, 0, 76, 0
2, 73980, Note_on_c, 0, 79, 0
2, 73980, Note_on_c, 0, 66, 0
2, 73980, Note_on_c, 0, 85, 81
2, 73980, Note_on_c, 0, 74, 82
2, 73980, Note_on_c, 0, 78, 82
2, 73980, Note_on_c, 0, 61, 65
2, 73980, Note_on_c, 0, 69, 65
2, 74024, Note_on_c, 0, 85, 0
2, 74070, Note_on_c, 0, 61, 0
2, 74070, Note_on_c, 0, 69, 0
2, 74070, Note_on_c, 0, 83, 77
2, 74070, Note_on_c, 0, 66, 60
2, 74114, Note_on_c, 0, 83, 0
2, 74160, Note_on_c, 0, 74, 0
2, 74160, Note_on_c, 0, 78, 0
2, 74160, Note_on_c, 0, 66, 0
2, 74160, Note_on_c, 0, 81, 79
2, 74160, Note_on_c, 0, 73, 72
2, 74160, Note_on_c, 0, 59, 55
2, 74160, Note_on_c, 0, 65, 55
2, 74204, Note_on_c, 0, 81, 0
2, 74250, Note_on_c, 0, 65, 0
2, 74250, Note_on_c, 0, 59, 0
2, 74250, Note_on_c, 0, 80, 79
2, 74250, Note_on_c, 0, 61, 56
2, 74294, Note_on_c, 0, 80, 0
2, 74340, Note_on_c, 0, 61, 0
2, 74340, Note_on_c, 0, 73, 0
2, 74340, Note_on_c, 0, 78, 76
2, 74340, Note_on_c, 0, 73, 86
2, 74340, Note_on_c, 0, 57, 70
2, 74340, Note_on_c, 0, 66, 70
2, 74430, Note_on_c, 0, 66, 0
2, 74430, Note_on_c, 0, 57, 0
2, 74430, Note_on_c, 0, 61, 53
2, 74520, Note_on_c, 0, 61, 0
2, 74520, Note_on_c, 0, 73, 0
2, 74520, Note_on_c, 0, 78, 0
2, 74520, Note_on_c, 0, 83, 91
2, 74520, Note_on_c, 0, 71, 83
2, 74520, Note_on_c, 0, 62, 66
2, 74520, Note_on_c, 0, 67, 66
2, 74610, Note_on_c, 0, 67, 0
2, 74610, Note_on_c, 0, 83, 0
2, 74610, Note_on_c, 0, 71, 0
2, 74610, Note_on_c, 0, 62, 0
2, 74610, Note_on_c, 0, 81, 77
2, 74610, Note_on_c, 0, 73, 96
2, 74610, Note_on_c, 0, 54, 56
2, 74700, Note_on_c, 0, 54, 0
2, 74700, Note_on_c, 0, 73, 0
2, 74700, Note_on_c, 0, 81, 0
2, 74700, Note_on_c, 0, 83, 114
2, 74700, Note_on_c, 0, 74, 109
2, 74700, Note_on_c, 0, 66, 94
2, 74700, Note_on_c, 0, 71, 94
2, 74790, Note_on_c, 0, 71, 0
2, 74790, Note_on_c, 0, 83, 0
2, 74790, Note_on_c, 0, 74, 0
2, 74790, Note_on_c, 0, 66, 0
2, 74790, Note_on_c, 0, 81, 108
2, 74790, Note_on_c, 0, 75, 115
2, 74790, Note_on_c, 0, 54, 57
2, 74880, Note_on_c, 0, 54, 0
2, 74880, Note_on_c, 0, 75, 0
2, 74880, Note_on_c, 0, 81, 0
2, 74880, Note_on_c, 0, 81, 102
2, 74880, Note_on_c, 0, 72, 100
2, 74880, Note_on_c, 0, 64, 75
2, 74880, Note_on_c, 0, 69, 75
2, 74970, Note_on_c, 0, 69, 0
2, 74970, Note_on_c, 0, 81, 0
2, 74970, Note_on_c, 0, 72, 0
2, 74970, Note_on_c, 0, 64, 0
2, 74970, Note_on_c, 0, 79, 104
2, 74970, Note_on_c, 0, 73, 110
2, 74970, Note_on_c, 0, 54, 55
2, 75060, Note_on_c, 0, 54, 0
2, 75060, Note_on_c, 0, 73, 0
2, 75060, Note_on_c, 0, 79, 0
2, 75060, Note_on_c, 0, 81, 117
2, 75060, Note_on_c, 0, 71, 109
2, 75060, Note_on_c, 0, 63, 77
2, 75060, Note_on_c, 0, 67, 77
2, 75150, Note_on_c, 0, 67, 0
2, 75150, Note_on_c, 0, 81, 0
2, 75150, Note_on_c, 0, 71, 0
2, 75150, Note_on_c, 0, 63, 0
2, 75150, Note_on_c, 0, 79, 101
2, 75150, Note_on_c, 0, 72, 100
2, 75150, Note_on_c, 0, 54, 54
2, 75240, Note_on_c, 0, 54, 0
2, 75240, Note_on_c, 0, 72, 0
2, 75240, Note_on_c, 0, 79, 0
2, 75240, Note_on_c, 0, 79, 109
2, 75240, Note_on_c, 0, 70, 92
2, 75240, Note_on_c, 0, 62, 82
2, 75240, Note_on_c, 0, 66, 82
2, 75330, Note_on_c, 0, 66, 0
2, 75330, Note_on_c, 0, 79, 0
2, 75330, Note_on_c, 0, 70, 0
2, 75330, Note_on_c, 0, 62, 0
2, 75330, Note_on_c, 0, 78, 104
2, 75330, Note_on_c, 0, 71, 83
2, 75330, Note_on_c, 0, 54, 56
2, 75420, Note_on_c, 0, 54, 0
2, 75420, Note_on_c, 0, 71, 0
2, 75420, Note_on_c, 0, 78, 0
2, 75420, Note_on_c, 0, 69, 62
2, 75420, Note_on_c, 0, 78, 62
2, 75420, Note_on_c, 0, 61, 77
2, 75420, Note_on_c, 0, 66, 77
2, 75509, Note_on_c, 0, 78, 0
2, 75509, Note_on_c, 0, 69, 0
2, 75510, Note_on_c, 0, 61, 0
2, 75510, Note_on_c, 0, 66, 0
2, 75510, Note_on_c, 0, 54, 52
2, 75600, Note_on_c, 0, 54, 0
2, 75600, Note_on_c, 0, 66, 41
2, 75600, Note_on_c, 0, 61, 75
2, 75600, Note_on_c, 0, 69, 75
2, 75689, Note_on_c, 0, 66, 0
2, 75690, Note_on_c, 0, 69, 0
2, 75690, Note_on_c, 0, 61, 0
2, 75690, Note_on_c, 0, 54, 58
2, 75780, Note_on_c, 0, 54, 0
2, 75780, Note_on_c, 0, 68, 95
2, 75780, Note_on_c, 0, 78, 95
2, 75780, Note_on_c, 0, 60, 73
2, 75780, Note_on_c, 0, 64, 73
2, 75870, Note_on_c, 0, 64, 0
2, 75870, Note_on_c, 0, 68, 0
2, 75870, Note_on_c, 0, 78, 0
2, 75870, Note_on_c, 0, 60, 0
2, 75870, Note_on_c, 0, 76, 63
2, 75870, Note_on_c, 0, 54, 56
2, 75914, Note_on_c, 0, 76, 0
2, 75960, Note_on_c, 0, 54, 0
2, 75960, Note_on_c, 0, 64, 58
2, 75960, Note_on_c, 0, 74, 58
2, 75960, Note_on_c, 0, 60, 76
2, 75960, Note_on_c, 0, 68, 76
2, 76004, Note_on_c, 0, 74, 0
2, 76004, Note_on_c, 0, 64, 0
2, 76050, Note_on_c, 0, 60, 0
2, 76050, Note_on_c, 0, 68, 0
2, 76050, Note_on_c, 0, 72, 56
2, 76050, Note_on_c, 0, 54, 54
2, 76094, Note_on_c, 0, 72, 0
2, 76140, Note_on_c, 0, 54, 0
2, 76140, Note_on_c, 0, 67, 57
2, 76140, Note_on_c, 0, 71, 57
2, 76140, Note_on_c, 0, 59, 79
2, 76140, Note_on_c, 0, 63, 79
2, 76229, Note_on_c, 0, 71, 0
2, 76229, Note_on_c, 0, 67, 0
2, 76230, Note_on_c, 0, 59, 0
2, 76230, Note_on_c, 0, 63, 0
2, 76230, Note_on_c, 0, 54, 59
2, 76320, Note_on_c, 0, 54, 0
2, 76320, Note_on_c, 0, 63, 45
2, 76320, Note_on_c, 0, 59, 77
2, 76320, Note_on_c, 0, 67, 77
2, 76409, Note_on_c, 0, 63, 0
2, 76410, Note_on_c, 0, 67, 0
2, 76410, Note_on_c, 0, 59, 0
2, 76410, Note_on_c, 0, 54, 53
2, 76500, Note_on_c, 0, 54, 0
2, 76500, Note_on_c, 0, 66, 93
2, 76500, Note_on_c, 0, 71, 93
2, 76500, Note_on_c, 0, 59, 110
2, 76590, Note_on_c, 0, 59, 0
2, 76590, Note_on_c, 0, 71, 0
2, 76590, Note_on_c, 0, 66, 0
2, 76590, Note_on_c, 0, 59, 54
2, 76590, Note_on_c, 0, 57, 106
2, 76634, Note_on_c, 0, 57, 0
2, 76680, Note_on_c, 0, 59, 0
2, 76680, Note_on_c, 0, 63, 64
2, 76680, Note_on_c, 0, 55, 104
2, 76724, Note_on_c, 0, 55, 0
2, 76770, Note_on_c, 0, 63, 0
2, 76770, Note_on_c, 0, 59, 58
2, 76770, Note_on_c, 0, 54, 106
2, 76814, Note_on_c, 0, 54, 0
2, 76860, Note_on_c, 0, 59, 0
2, 76860, Note_on_c, 0, 64, 98
2, 76860, Note_on_c, 0, 67, 98
2, 76860, Note_on_c, 0, 71, 98
2, 76860, Note_on_c, 0, 55, 113
2, 76860, Note_on_c, 0, 59, 113
2, 76950, Note_on_c, 0, 59, 0
2, 76950, Note_on_c, 0, 55, 0
2, 76950, Note_on_c, 0, 52, 82
2, 76994, Note_on_c, 0, 52, 0
2, 77040, Note_on_c, 0, 71, 0
2, 77040, Note_on_c, 0, 67, 0
2, 77040, Note_on_c, 0, 64, 0
2, 77040, Note_on_c, 0, 55, 52
2, 77040, Note_on_c, 0, 40, 76
2, 77040, Note_on_c, 0, 47, 76
2, 77084, Note_on_c, 0, 47, 0
2, 77084, Note_on_c, 0, 40, 0
2, 77129, Note_on_c, 0, 55, 0
2, 77130, Note_on_c, 0, 52, 88
2, 77174, Note_on_c, 0, 52, 0
2, 77220, Note_on_c, 0, 64, 105
2, 77220, Note_on_c, 0, 67, 105
2, 77220, Note_on_c, 0, 71, 105
2, 77220, Note_on_c, 0, 55, 117
2, 77220, Note_on_c, 0, 59, 117
2, 77310, Note_on_c, 0, 59, 0
2, 77310, Note_on_c, 0, 55, 0
2, 77310, Note_on_c, 0, 52, 77
2, 77354, Note_on_c, 0, 52, 0
2, 77400, Note_on_c, 0, 71, 0
2, 77400, Note_on_c, 0, 67, 0
2, 77400, Note_on_c, 0, 64, 0
2, 77400, Note_on_c, 0, 55, 60
2, 77400, Note_on_c, 0, 40, 76
2, 77400, Note_on_c, 0, 47, 76
2, 77444, Note_on_c, 0, 47, 0
2, 77444, Note_on_c, 0, 40, 0
2, 77489, Note_on_c, 0, 55, 0
2, 77490, Note_on_c, 0, 52, 85
2, 77534, Note_on_c, 0, 52, 0
2, 77580, Note_on_c, 0, 64, 100
2, 77580, Note_on_c, 0, 67, 100
2, 77580, Note_on_c, 0, 71, 100
2, 77580, Note_on_c, 0, 55, 112
2, 77580, Note_on_c, 0, 59, 112
2, 77670, Note_on_c, 0, 59, 0
2, 77670, Note_on_c, 0, 55, 0
2, 77670, Note_on_c, 0, 52, 80
2, 77714, Note_on_c, 0, 52, 0
2, 77760, Note_on_c, 0, 71, 0
2, 77760, Note_on_c, 0, 67, 0
2, 77760, Note_on_c, 0, 64, 0
2, 77760, Note_on_c, 0, 55, 53
2, 77760, Note_on_c, 0, 40, 74
2, 77760, Note_on_c, 0, 47, 74
2, 77804, Note_on_c, 0, 47, 0
2, 77804, Note_on_c, 0, 40, 0
2, 77849, Note_on_c, 0, 55, 0
2, 77850, Note_on_c, 0, 52, 86
2, 77894, Note_on_c, 0, 52, 0
2, 77940, Note_on_c, 0, 64, 96
2, 77940, Note_on_c, 0, 67, 96
2, 77940, Note_on_c, 0, 71, 96
2, 77940, Note_on_c, 0, 55, 119
2, 77940, Note_on_c, 0, 59, 119
2, 78030, Note_on_c, 0, 71, 0
2, 78030, Note_on_c, 0, 64, 0
2, 78030, Note_on_c, 0, 67, 0
2, 78030, Note_on_c, 0, 59, 54
2, 78074, Note_on_c, 0, 59, 0
2, 78120, Note_on_c, 0, 59, 0
2, 78120, Note_on_c, 0, 55, 0
2, 78120, Note_on_c, 0, 62, 127
2, 78120, Note_on_c, 0, 67, 127
2, 78120, Note_on_c, 0, 70, 127
2, 78120, Note_on_c, 0, 40, 89
2, 78120, Note_on_c, 0, 52, 89
2, 78210, Note_on_c, 0, 70, 0
2, 78210, Note_on_c, 0, 62, 0
2, 78210, Note_on_c, 0, 67, 0
2, 78210, Note_on_c, 0, 58, 76
2, 78254, Note_on_c, 0, 58, 0
2, 78300, Note_on_c, 0, 61, 127
2, 78300, Note_on_c, 0, 66, 127
2, 78300, Note_on_c, 0, 69, 127
2, 78390, Note_on_c, 0, 69, 0
2, 78390, Note_on_c, 0, 61, 0
2, 78390, Note_on_c, 0, 66, 0
2, 78390, Note_on_c, 0, 57, 78
2, 78434, Note_on_c, 0, 57, 0
2, 78458, Note_on_c, 0, 40, 0
2, 78458, Note_on_c, 0, 52, 0
2, 78480, Note_on_c, 0, 60, 127
2, 78480, Note_on_c, 0, 65, 127
2, 78480, Note_on_c, 0, 68, 127
2, 78480, Note_on_c, 0, 38, 81
2, 78480, Note_on_c, 0, 50, 81
2, 78570, Note_on_c, 0, 50, 0
2, 78570, Note_on_c, 0, 68, 0
2, 78570, Note_on_c, 0, 60, 0
2, 78570, Note_on_c, 0, 65, 0
2, 78570, Note_on_c, 0, 38, 0
2, 78570, Note_on_c, 0, 56, 74
2, 78570, Note_on_c, 0, 36, 80
2, 78570, Note_on_c, 0, 48, 80
2, 78614, Note_on_c, 0, 48, 0
2, 78614, Note_on_c, 0, 36, 0
2, 78614, Note_on_c, 0, 56, 0
2, 78660, Note_on_c, 0, 59, 83
2, 78660, Note_on_c, 0, 64, 83
2, 78660, Note_on_c, 0, 67, 83
2, 78660, Note_on_c, 0, 35, 83
2, 78660, Note_on_c, 0, 47, 83
2, 78704, Note_on_c, 0, 47, 0
2, 78704, Note_on_c, 0, 35, 0
2, 78750, Note_on_c, 0, 59, 0
2, 78750, Note_on_c, 0, 64, 0
2, 78750, Note_on_c, 0, 67, 0
2, 78750, Note_on_c, 0, 55, 75
2, 78750, Note_on_c, 0, 33, 75
2, 78750, Note_on_c, 0, 45, 75
2, 78794, Note_on_c, 0, 45, 0
2, 78794, Note_on_c, 0, 33, 0
2, 78794, Note_on_c, 0, 55, 0
2, 78840, Note_on_c, 0, 59, 66
2, 78840, Note_on_c, 0, 63, 66
2, 78840, Note_on_c, 0, 31, 66
2, 78840, Note_on_c, 0, 43, 66
2, 78884, Note_on_c, 0, 43, 0
2, 78884, Note_on_c, 0, 59, 0
2, 78884, Note_on_c, 0, 63, 0
2, 78884, Note_on_c, 0, 31, 0
2, 78930, Note_on_c, 0, 57, 58
2, 78930, Note_on_c, 0, 30, 58
2, 78930, Note_on_c, 0, 42, 58
2, 78974, Note_on_c, 0, 42, 0
2, 78974, Note_on_c, 0, 30, 0
2, 78974, Note_on_c, 0, 57, 0
2, 79020, Note_on_c, 0, 59, 64
2, 79020, Note_on_c, 0, 64, 64
2, 79020, Note_on_c, 0, 28, 58
2, 79020, Note_on_c, 0, 40, 58
2, 79064, Note_on_c, 0, 64, 0
2, 79064, Note_on_c, 0, 59, 0
2, 79109, Note_on_c, 0, 28, 0
2, 79109, Note_on_c, 0, 40, 0
2, 79110, Note_on_c, 0, 55, 55
2, 79200, Note_on_c, 0, 55, 0
2, 79200, Note_on_c, 0, 64, 58
2, 79200, Note_on_c, 0, 59, 49
2, 79290, Note_on_c, 0, 64, 0
2, 79290, Note_on_c, 0, 66, 71
2, 79380, Note_on_c, 0, 66, 0
2, 79380, Note_on_c, 0, 59, 0
2, 79380, Note_on_c, 0, 67, 83
2, 79380, Note_on_c, 0, 58, 49
2, 79380, Note_on_c, 0, 61, 49
2, 79470, Note_on_c, 0, 67, 0
2, 79470, Note_on_c, 0, 66, 81
2, 79560, Note_on_c, 0, 66, 0
2, 79560, Note_on_c, 0, 61, 0
2, 79560, Note_on_c, 0, 58, 0
2, 79560, Note_on_c, 0, 74, 54
2, 79560, Note_on_c, 0, 72, 50
2, 79560, Note_on_c, 0, 65, 78
2, 79560, Note_on_c, 0, 57, 72
2, 79560, Note_on_c, 0, 60, 72
2, 79650, Note_on_c, 0, 65, 0
2, 79650, Note_on_c, 0, 74, 0
2, 79650, Note_on_c, 0, 75, 61
2, 79650, Note_on_c, 0, 66, 84
2, 79740, Note_on_c, 0, 66, 0
2, 79740, Note_on_c, 0, 72, 0
2, 79740, Note_on_c, 0, 60, 0
2, 79740, Note_on_c, 0, 57, 0
2, 79740, Note_on_c, 0, 75, 0
2, 79740, Note_on_c, 0, 76, 87
2, 79740, Note_on_c, 0, 71, 58
2, 79740, Note_on_c, 0, 65, 83
2, 79740, Note_on_c, 0, 55, 73
2, 79740, Note_on_c, 0, 59, 73
2, 79830, Note_on_c, 0, 65, 0
2, 79830, Note_on_c, 0, 76, 0
2, 79830, Note_on_c, 0, 76, 63
2, 79830, Note_on_c, 0, 64, 75
2, 79874, Note_on_c, 0, 76, 0
2, 79920, Note_on_c, 0, 71, 0
2, 79920, Note_on_c, 0, 59, 0
2, 79920, Note_on_c, 0, 55, 0
2, 79920, Note_on_c, 0, 64, 0
2, 79920, Note_on_c, 0, 76, 58
2, 79920, Note_on_c, 0, 69, 33
2, 79920, Note_on_c, 0, 62, 66
2, 79920, Note_on_c, 0, 54, 69
2, 79964, Note_on_c, 0, 76, 0
2, 80010, Note_on_c, 0, 62, 0
2, 80010, Note_on_c, 0, 76, 29
2, 80010, Note_on_c, 0, 63, 58
2, 80054, Note_on_c, 0, 76, 0
2, 80100, Note_on_c, 0, 54, 0
2, 80100, Note_on_c, 0, 69, 0
2, 80100, Note_on_c, 0, 63, 0
2, 80100, Note_on_c, 0, 76, 30
2, 80100, Note_on_c, 0, 67, 27
2, 80100, Note_on_c, 0, 59, 62
2, 80100, Note_on_c, 0, 64, 62
2, 80190, Note_on_c, 0, 64, 0
2, 80190, Note_on_c, 0, 59, 0
2, 80190, Note_on_c, 0, 52, 52
2, 80280, Note_on_c, 0, 52, 0
2, 80280, Note_on_c, 0, 67, 0
2, 80280, Note_on_c, 0, 76, 0
2, 80280, Note_on_c, 0, 88, 116
2, 80280, Note_on_c, 0, 76, 44
2, 80280, Note_on_c, 0, 79, 44
2, 80280, Note_on_c, 0, 62, 72
2, 80280, Note_on_c, 0, 70, 72
2, 80370, Note_on_c, 0, 70, 0
2, 80370, Note_on_c, 0, 62, 0
2, 80370, Note_on_c, 0, 52, 57
2, 80460, Note_on_c, 0, 52, 0
2, 80460, Note_on_c, 0, 79, 0
2, 80460, Note_on_c, 0, 76, 0
2, 80460, Note_on_c, 0, 76, 37
2, 80460, Note_on_c, 0, 78, 37
2, 80460, Note_on_c, 0, 61, 79
2, 80460, Note_on_c, 0, 69, 79
2, 80550, Note_on_c, 0, 69, 0
2, 80550, Note_on_c, 0, 61, 0
2, 80550, Note_on_c, 0, 52, 55
2, 80640, Note_on_c, 0, 52, 0
2, 80640, Note_on_c, 0, 78, 0
2, 80640, Note_on_c, 0, 76, 0
2, 80640, Note_on_c, 0, 88, 0
2, 80640, Note_on_c, 0, 86, 93
2, 80640, Note_on_c, 0, 74, 28
2, 80640, Note_on_c, 0, 77, 28
2, 80640, Note_on_c, 0, 60, 74
2, 80640, Note_on_c, 0, 68, 74
2, 80719, Note_on_c, 0, 86, 0
2, 80730, Note_on_c, 0, 60, 0
2, 80730, Note_on_c, 0, 68, 0
2, 80730, Note_on_c, 0, 84, 78
2, 80730, Note_on_c, 0, 52, 55
2, 80820, Note_on_c, 0, 52, 0
2, 80820, Note_on_c, 0, 74, 0
2, 80820, Note_on_c, 0, 77, 0
2, 80820, Note_on_c, 0, 84, 0
2, 80820, Note_on_c, 0, 83, 82
2, 80820, Note_on_c, 0, 72, 34
2, 80820, Note_on_c, 0, 76, 34
2, 80820, Note_on_c, 0, 59, 75
2, 80820, Note_on_c, 0, 67, 75
2, 80910, Note_on_c, 0, 67, 0
2, 80910, Note_on_c, 0, 83, 0
2, 80910, Note_on_c, 0, 59, 0
2, 80910, Note_on_c, 0, 81, 76
2, 80910, Note_on_c, 0, 52, 48
2, 81000, Note_on_c, 0, 52, 0
2, 81000, Note_on_c, 0, 72, 0
2, 81000, Note_on_c, 0, 76, 0
2, 81000, Note_on_c, 0, 81, 0
2, 81000, Note_on_c, 0, 79, 74
2, 81000, Note_on_c, 0, 71, 32
2, 81000, Note_on_c, 0, 57, 72
2, 81000, Note_on_c, 0, 63, 72
2, 81090, Note_on_c, 0, 63, 0
2, 81090, Note_on_c, 0, 57, 0
2, 81090, Note_on_c, 0, 79, 0
2, 81090, Note_on_c, 0, 78, 80
2, 81090, Note_on_c, 0, 52, 54
2, 81180, Note_on_c, 0, 52, 0
2, 81180, Note_on_c, 0, 78, 0
2, 81180, Note_on_c, 0, 71, 0
2, 81180, Note_on_c, 0, 71, 82
2, 81180, Note_on_c, 0, 76, 82
2, 81180, Note_on_c, 0, 55, 95
2, 81180, Note_on_c, 0, 64, 95
2, 81270, Note_on_c, 0, 64, 0
2, 81270, Note_on_c, 0, 55, 0
2, 81270, Note_on_c, 0, 52, 55
2, 81360, Note_on_c, 0, 52, 0
2, 81360, Note_on_c, 0, 76, 0
2, 81360, Note_on_c, 0, 71, 0
2, 81360, Note_on_c, 0, 64, 50
2, 81360, Note_on_c, 0, 59, 67
2, 81360, Note_on_c, 0, 67, 67
2, 81449, Note_on_c, 0, 64, 0
2, 81450, Note_on_c, 0, 67, 0
2, 81450, Note_on_c, 0, 59, 0
2, 81450, Note_on_c, 0, 52, 52
2, 81540, Note_on_c, 0, 52, 0
2, 81540, Note_on_c, 0, 67, 99
2, 81540, Note_on_c, 0, 76, 99
2, 81540, Note_on_c, 0, 58, 93
2, 81540, Note_on_c, 0, 62, 93
2, 81630, Note_on_c, 0, 62, 0
2, 81630, Note_on_c, 0, 67, 0
2, 81630, Note_on_c, 0, 76, 0
2, 81630, Note_on_c, 0, 58, 0
2, 81630, Note_on_c, 0, 74, 58
2, 81630, Note_on_c, 0, 52, 56
2, 81674, Note_on_c, 0, 74, 0
2, 81720, Note_on_c, 0, 52, 0
2, 81720, Note_on_c, 0, 64, 59
2, 81720, Note_on_c, 0, 72, 59
2, 81720, Note_on_c, 0, 58, 78
2, 81720, Note_on_c, 0, 67, 78
2, 81764, Note_on_c, 0, 72, 0
2, 81764, Note_on_c, 0, 64, 0
2, 81810, Note_on_c, 0, 58, 0
2, 81810, Note_on_c, 0, 67, 0
2, 81810, Note_on_c, 0, 70, 54
2, 81810, Note_on_c, 0, 52, 50
2, 81854, Note_on_c, 0, 70, 0
2, 81900, Note_on_c, 0, 52, 0
2, 81900, Note_on_c, 0, 67, 78
2, 81900, Note_on_c, 0, 69, 78
2, 81900, Note_on_c, 0, 57, 72
2, 81900, Note_on_c, 0, 61, 72
2, 81990, Note_on_c, 0, 61, 0
2, 81990, Note_on_c, 0, 57, 0
2, 81990, Note_on_c, 0, 52, 53
2, 82080, Note_on_c, 0, 52, 0
2, 82080, Note_on_c, 0, 69, 0
2, 82080, Note_on_c, 0, 67, 0
2, 82080, Note_on_c, 0, 64, 53
2, 82080, Note_on_c, 0, 57, 75
2, 82080, Note_on_c, 0, 67, 75
2, 82169, Note_on_c, 0, 64, 0
2, 82170, Note_on_c, 0, 67, 0
2, 82170, Note_on_c, 0, 57, 0
2, 82170, Note_on_c, 0, 52, 50
2, 82260, Note_on_c, 0, 52, 0
2, 82260, Note_on_c, 0, 67, 84
2, 82260, Note_on_c, 0, 69, 84
2, 82260, Note_on_c, 0, 62, 30
2, 82260, Note_on_c, 0, 50, 60
2, 82304, Note_on_c, 0, 50, 0
2, 82304, Note_on_c, 0, 62, 0
2, 82350, Note_on_c, 0, 57, 30
2, 82350, Note_on_c, 0, 49, 54
2, 82394, Note_on_c, 0, 49, 0
2, 82394, Note_on_c, 0, 57, 0
2, 82440, Note_on_c, 0, 61, 36
2, 82440, Note_on_c, 0, 47, 57
2, 82484, Note_on_c, 0, 47, 0
2, 82484, Note_on_c, 0, 61, 0
2, 82530, Note_on_c, 0, 57, 27
2, 82530, Note_on_c, 0, 45, 54
2, 82574, Note_on_c, 0, 45, 0
2, 82574, Note_on_c, 0, 57, 0
2, 82577, Note_on_c, 0, 69, 0
2, 82577, Note_on_c, 0, 67, 0
2, 82620, Note_on_c, 0, 64, 68
2, 82620, Note_on_c, 0, 67, 68
2, 82620, Note_on_c, 0, 60, 33
2, 82620, Note_on_c, 0, 43, 58
2, 82664, Note_on_c, 0, 43, 0
2, 82664, Note_on_c, 0, 60, 0
2, 82710, Note_on_c, 0, 55, 41
2, 82710, Note_on_c, 0, 42, 66
2, 82754, Note_on_c, 0, 42, 0
2, 82754, Note_on_c, 0, 55, 0
2, 82800, Note_on_c, 0, 59, 49
2, 82800, Note_on_c, 0, 40, 75
2, 82844, Note_on_c, 0, 40, 0
2, 82844, Note_on_c, 0, 59, 0
2, 82890, Note_on_c, 0, 55, 58
2, 82890, Note_on_c, 0, 38, 83
2, 82934, Note_on_c, 0, 38, 0
2, 82934, Note_on_c, 0, 55, 0
2, 82937, Note_on_c, 0, 67, 0
2, 82937, Note_on_c, 0, 64, 0
2, 82980, Note_on_c, 0, 58, 105
2, 82980, Note_on_c, 0, 64, 105
2, 82980, Note_on_c, 0, 66, 105
2, 82980, Note_on_c, 0, 37, 109
2, 83070, Note_on_c, 0, 66, 0
2, 83070, Note_on_c, 0, 58, 0
2, 83070, Note_on_c, 0, 64, 0
2, 83070, Note_on_c, 0, 54, 72
2, 83114, Note_on_c, 0, 54, 0
2, 83160, Note_on_c, 0, 58, 111
2, 83160, Note_on_c, 0, 64, 111
2, 83160, Note_on_c, 0, 66, 111
2, 83250, Note_on_c, 0, 66, 0
2, 83250, Note_on_c, 0, 64, 0
2, 83250, Note_on_c, 0, 58, 0
2, 83250, Note_on_c, 0, 54, 83
2, 83294, Note_on_c, 0, 54, 0
2, 83340, Note_on_c, 0, 37, 0
2, 83340, Note_on_c, 0, 64, 119
2, 83340, Note_on_c, 0, 67, 119
2, 83340, Note_on_c, 0, 60, 62
2, 83340, Note_on_c, 0, 43, 89
2, 83384, Note_on_c, 0, 43, 0
2, 83384, Note_on_c, 0, 60, 0
2, 83430, Note_on_c, 0, 55, 58
2, 83430, Note_on_c, 0, 42, 80
2, 83474, Note_on_c, 0, 42, 0
2, 83474, Note_on_c, 0, 55, 0
2, 83520, Note_on_c, 0, 59, 59
2, 83520, Note_on_c, 0, 40, 81
2, 83564, Note_on_c, 0, 40, 0
2, 83564, Note_on_c, 0, 59, 0
2, 83610, Note_on_c, 0, 55, 52
2, 83610, Note_on_c, 0, 38, 81
2, 83654, Note_on_c, 0, 38, 0
2, 83654, Note_on_c, 0, 55, 0
2, 83657, Note_on_c, 0, 67, 0
2, 83657, Note_on_c, 0, 64, 0
2, 83700, Note_on_c, 0, 58, 108
2, 83700, Note_on_c, 0, 64, 108
2, 83700, Note_on_c, 0, 66, 108
2, 83700, Note_on_c, 0, 36, 106
2, 83790, Note_on_c, 0, 66, 0
2, 83790, Note_on_c, 0, 58, 0
2, 83790, Note_on_c, 0, 64, 0
2, 83790, Note_on_c, 0, 54, 73
2, 83834, Note_on_c, 0, 54, 0
2, 83880, Note_on_c, 0, 58, 108
2, 83880, Note_on_c, 0, 64, 108
2, 83880, Note_on_c, 0, 66, 108
2, 83970, Note_on_c, 0, 66, 0
2, 83970, Note_on_c, 0, 64, 0
2, 83970, Note_on_c, 0, 58, 0
2, 83970, Note_on_c, 0, 54, 80
2, 84014, Note_on_c, 0, 54, 0
2, 84060, Note_on_c, 0, 36, 0
2, 84060, Note_on_c, 0, 64, 123
2, 84060, Note_on_c, 0, 67, 123
2, 84060, Note_on_c, 0, 59, 63
2, 84060, Note_on_c, 0, 43, 91
2, 84104, Note_on_c, 0, 43, 0
2, 84104, Note_on_c, 0, 59, 0
2, 84150, Note_on_c, 0, 55, 52
2, 84150, Note_on_c, 0, 42, 83
2, 84194, Note_on_c, 0, 42, 0
2, 84194, Note_on_c, 0, 55, 0
2, 84240, Note_on_c, 0, 60, 63
2, 84240, Note_on_c, 0, 40, 77
2, 84284, Note_on_c, 0, 40, 0
2, 84284, Note_on_c, 0, 60, 0
2, 84330, Note_on_c, 0, 55, 55
2, 84330, Note_on_c, 0, 37, 78
2, 84374, Note_on_c, 0, 37, 0
2, 84374, Note_on_c, 0, 55, 0
2, 84377, Note_on_c, 0, 67, 0
2, 84377, Note_on_c, 0, 64, 0
2, 84420, Note_on_c, 0, 61, 86
2, 84420, Note_on_c, 0, 64, 86
2, 84420, Note_on_c, 0, 66, 86
2, 84420, Note_on_c, 0, 34, 104
2, 84510, Note_on_c, 0, 66, 0
2, 84510, Note_on_c, 0, 61, 0
2, 84510, Note_on_c, 0, 64, 0
2, 84510, Note_on_c, 0, 54, 76
2, 84600, Note_on_c, 0, 54, 0
2, 84600, Note_on_c, 0, 61, 122
2, 84690, Note_on_c, 0, 61, 0
2, 84690, Note_on_c, 0, 64, 97
2, 84780, Note_on_c, 0, 34, 0
2, 84780, Note_on_c, 0, 66, 75
2, 84780, Note_on_c, 0, 60, 47
2, 84780, Note_on_c, 0, 50, 81
2, 84859, Note_on_c, 0, 50, 0
2, 84870, Note_on_c, 0, 43, 57
2, 84938, Note_on_c, 0, 64, 0
2, 84938, Note_on_c, 0, 66, 0
2, 84960, Note_on_c, 0, 60, 0
2, 84960, Note_on_c, 0, 43, 0
2, 84960, Note_on_c, 0, 59, 50
2, 84960, Note_on_c, 0, 59, 56
2, 84960, Note_on_c, 0, 38, 50
2, 85050, Note_on_c, 0, 38, 0
2, 85050, Note_on_c, 0, 59, 0
2, 85050, Note_on_c, 0, 64, 69
2, 85050, Note_on_c, 0, 31, 54
2, 85140, Note_on_c, 0, 31, 0
2, 85140, Note_on_c, 0, 59, 0
2, 85140, Note_on_c, 0, 66, 80
2, 85140, Note_on_c, 0, 58, 59
2, 85140, Note_on_c, 0, 49, 84
2, 85219, Note_on_c, 0, 49, 0
2, 85230, Note_on_c, 0, 43, 61
2, 85298, Note_on_c, 0, 64, 0
2, 85298, Note_on_c, 0, 66, 0
2, 85320, Note_on_c, 0, 58, 0
2, 85320, Note_on_c, 0, 43, 0
2, 85320, Note_on_c, 0, 59, 55
2, 85320, Note_on_c, 0, 59, 58
2, 85320, Note_on_c, 0, 38, 57
2, 85410, Note_on_c, 0, 38, 0
2, 85410, Note_on_c, 0, 59, 0
2, 85410, Note_on_c, 0, 64, 67
2, 85410, Note_on_c, 0, 31, 53
2, 85500, Note_on_c, 0, 31, 0
2, 85500, Note_on_c, 0, 59, 0
2, 85500, Note_on_c, 0, 66, 83
2, 85500, Note_on_c, 0, 71, 83
2, 85500, Note_on_c, 0, 60, 83
2, 85500, Note_on_c, 0, 50, 83
2, 85579, Note_on_c, 0, 50, 0
2, 85590, Note_on_c, 0, 43, 60
2, 85658, Note_on_c, 0, 64, 0
2, 85658, Note_on_c, 0, 71, 0
2, 85658, Note_on_c, 0, 66, 0
2, 85680, Note_on_c, 0, 60, 0
2, 85680, Note_on_c, 0, 43, 0
2, 85680, Note_on_c, 0, 61, 67
2, 85680, Note_on_c, 0, 61, 83
2, 85680, Note_on_c, 0, 38, 56
2, 85770, Note_on_c, 0, 38, 0
2, 85770, Note_on_c, 0, 61, 0
2, 85770, Note_on_c, 0, 64, 94
2, 85770, Note_on_c, 0, 31, 57
2, 85860, Note_on_c, 0, 31, 0
2, 85860, Note_on_c, 0, 61, 0
2, 85860, Note_on_c, 0, 66, 103
2, 85860, Note_on_c, 0, 60, 58
2, 85860, Note_on_c, 0, 50, 81
2, 85939, Note_on_c, 0, 50, 0
2, 85950, Note_on_c, 0, 43, 54
2, 86018, Note_on_c, 0, 64, 0
2, 86018, Note_on_c, 0, 66, 0
2, 86040, Note_on_c, 0, 60, 0
2, 86040, Note_on_c, 0, 43, 0
2, 86040, Note_on_c, 0, 59, 60
2, 86040, Note_on_c, 0, 59, 56
2, 86040, Note_on_c, 0, 38, 55
2, 86130, Note_on_c, 0, 38, 0
2, 86130, Note_on_c, 0, 59, 0
2, 86130, Note_on_c, 0, 64, 67
2, 86130, Note_on_c, 0, 31, 51
2, 86220, Note_on_c, 0, 31, 0
2, 86220, Note_on_c, 0, 59, 0
2, 86220, Note_on_c, 0, 66, 77
2, 86220, Note_on_c, 0, 58, 57
2, 86220, Note_on_c, 0, 49, 81
2, 86299, Note_on_c, 0, 49, 0
2, 86310, Note_on_c, 0, 43, 52
2, 86378, Note_on_c, 0, 64, 0
2, 86378, Note_on_c, 0, 66, 0
2, 86400, Note_on_c, 0, 58, 0
2, 86400, Note_on_c, 0, 43, 0
2, 86400, Note_on_c, 0, 59, 58
2, 86400, Note_on_c, 0, 59, 59
2, 86400, Note_on_c, 0, 38, 57
2, 86490, Note_on_c, 0, 38, 0
2, 86490, Note_on_c, 0, 59, 0
2, 86490, Note_on_c, 0, 64, 67
2, 86490, Note_on_c, 0, 31, 55
2, 86580, Note_on_c, 0, 31, 0
2, 86580, Note_on_c, 0, 59, 0
2, 86580, Note_on_c, 0, 66, 83
2, 86580, Note_on_c, 0, 71, 83
2, 86580, Note_on_c, 0, 60, 62
2, 86580, Note_on_c, 0, 50, 77
2, 86659, Note_on_c, 0, 50, 0
2, 86670, Note_on_c, 0, 43, 57
2, 86738, Note_on_c, 0, 64, 0
2, 86738, Note_on_c, 0, 71, 0
2, 86738, Note_on_c, 0, 66, 0
2, 86760, Note_on_c, 0, 60, 0
2, 86760, Note_on_c, 0, 43, 0
2, 86760, Note_on_c, 0, 59, 56
2, 86760, Note_on_c, 0, 59, 59
2, 86760, Note_on_c, 0, 38, 57
2, 86850, Note_on_c, 0, 38, 0
2, 86850, Note_on_c, 0, 59, 0
2, 86850, Note_on_c, 0, 64, 66
2, 86850, Note_on_c, 0, 31, 54
2, 86940, Note_on_c, 0, 31, 0
2, 86940, Note_on_c, 0, 59, 0
2, 86940, Note_on_c, 0, 66, 75
2, 86940, Note_on_c, 0, 60, 58
2, 86940, Note_on_c, 0, 50, 68
2, 87030, Note_on_c, 0, 50, 0
2, 87030, Note_on_c, 0, 43, 54
2, 87098, Note_on_c, 0, 64, 0
2, 87098, Note_on_c, 0, 66, 0
2, 87120, Note_on_c, 0, 60, 0
2, 87120, Note_on_c, 0, 43, 0
2, 87120, Note_on_c, 0, 60, 48
2, 87120, Note_on_c, 0, 60, 60
2, 87120, Note_on_c, 0, 38, 56
2, 87210, Note_on_c, 0, 38, 0
2, 87210, Note_on_c, 0, 60, 0
2, 87210, Note_on_c, 0, 64, 65
2, 87210, Note_on_c, 0, 31, 56
2, 87300, Note_on_c, 0, 31, 0
2, 87300, Note_on_c, 0, 60, 0
2, 87300, Note_on_c, 0, 66, 79
2, 87300, Note_on_c, 0, 61, 62
2, 87300, Note_on_c, 0, 52, 65
2, 87390, Note_on_c, 0, 52, 0
2, 87390, Note_on_c, 0, 45, 58
2, 87458, Note_on_c, 0, 64, 0
2, 87458, Note_on_c, 0, 66, 0
2, 87480, Note_on_c, 0, 61, 0
2, 87480, Note_on_c, 0, 45, 0
2, 87480, Note_on_c, 0, 61, 49
2, 87480, Note_on_c, 0, 61, 64
2, 87480, Note_on_c, 0, 40, 57
2, 87570, Note_on_c, 0, 40, 0
2, 87570, Note_on_c, 0, 61, 0
2, 87570, Note_on_c, 0, 66, 69
2, 87570, Note_on_c, 0, 33, 55
2, 87660, Note_on_c, 0, 33, 0
2, 87660, Note_on_c, 0, 61, 0
2, 87660, Note_on_c, 0, 71, 80
2, 87660, Note_on_c, 0, 62, 66
2, 87660, Note_on_c, 0, 54, 66
2, 87750, Note_on_c, 0, 54, 0
2, 87750, Note_on_c, 0, 47, 58
2, 87818, Note_on_c, 0, 66, 0
2, 87818, Note_on_c, 0, 71, 0
2, 87840, Note_on_c, 0, 62, 0
2, 87840, Note_on_c, 0, 47, 0
2, 87840, Note_on_c, 0, 62, 49
2, 87840, Note_on_c, 0, 62, 68
2, 87840, Note_on_c, 0, 42, 54
2, 87930, Note_on_c, 0, 42, 0
2, 87930, Note_on_c, 0, 62, 0
2, 87930, Note_on_c, 0, 69, 69
2, 87930, Note_on_c, 0, 35, 56
2, 88020, Note_on_c, 0, 35, 0
2, 88020, Note_on_c, 0, 62, 0
2, 88020, Note_on_c, 0, 71, 78
2, 88020, Note_on_c, 0, 63, 71
2, 88020, Note_on_c, 0, 55, 66
2, 88110, Note_on_c, 0, 55, 0
2, 88110, Note_on_c, 0, 49, 57
2, 88178, Note_on_c, 0, 69, 0
2, 88178, Note_on_c, 0, 71, 0
2, 88200, Note_on_c, 0, 63, 0
2, 88200, Note_on_c, 0, 49, 0
2, 88200, Note_on_c, 0, 64, 51
2, 88200, Note_on_c, 0, 64, 73
2, 88200, Note_on_c, 0, 43, 55
2, 88290, Note_on_c, 0, 43, 0
2, 88290, Note_on_c, 0, 64, 0
2, 88290, Note_on_c, 0, 69, 64
2, 88290, Note_on_c, 0, 37, 55
2, 88380, Note_on_c, 0, 37, 0
2, 88380, Note_on_c, 0, 64, 0
2, 88380, Note_on_c, 0, 71, 74
2, 88380, Note_on_c, 0, 65, 75
2, 88380, Note_on_c, 0, 57, 67
2, 88470, Note_on_c, 0, 57, 0
2, 88470, Note_on_c, 0, 50, 57
2, 88538, Note_on_c, 0, 69, 0
2, 88538, Note_on_c, 0, 71, 0
2, 88560, Note_on_c, 0, 65, 0
2, 88560, Note_on_c, 0, 50, 0
2, 88560, Note_on_c, 0, 66, 54
2, 88560, Note_on_c, 0, 66, 77
2, 88560, Note_on_c, 0, 45, 60
2, 88650, Note_on_c, 0, 45, 0
2, 88650, Note_on_c, 0, 66, 0
2, 88650, Note_on_c, 0, 71, 73
2, 88650, Note_on_c, 0, 38, 53
2, 88740, Note_on_c, 0, 38, 0
2, 88740, Note_on_c, 0, 66, 0
2, 88740, Note_on_c, 0, 76, 85
2, 88740, Note_on_c, 0, 67, 79
2, 88740, Note_on_c, 0, 59, 68
2, 88830, Note_on_c, 0, 59, 0
2, 88830, Note_on_c, 0, 52, 54
2, 88898, Note_on_c, 0, 71, 0
2, 88898, Note_on_c, 0, 76, 0
2, 88920, Note_on_c, 0, 67, 0
2, 88920, Note_on_c, 0, 52, 0
2, 88920, Note_on_c, 0, 67, 46
2, 88920, Note_on_c, 0, 67, 81
2, 88920, Note_on_c, 0, 47, 56
2, 89010, Note_on_c, 0, 47, 0
2, 89010, Note_on_c, 0, 67, 0
2, 89010, Note_on_c, 0, 73, 70
2, 89010, Note_on_c, 0, 40, 53
2, 89100, Note_on_c, 0, 40, 0
2, 89100, Note_on_c, 0, 67, 0
2, 89100, Note_on_c, 0, 78, 73
2, 89100, Note_on_c, 0, 66, 83
2, 89100, Note_on_c, 0, 61, 78
2, 89190, Note_on_c, 0, 61, 0
2, 89190, Note_on_c, 0, 54, 56
2, 89280, Note_on_c, 0, 54, 0
2, 89280, Note_on_c, 0, 66, 0
2, 89280, Note_on_c, 0, 78, 0
2, 89280, Note_on_c, 0, 73, 0
2, 89280, Note_on_c, 0, 67, 99
2, 89280, Note_on_c, 0, 79, 99
2, 89280, Note_on_c, 0, 74, 99
2, 89280, Note_on_c, 0, 50, 64
2, 89370, Note_on_c, 0, 50, 0
2, 89370, Note_on_c, 0, 74, 0
2, 89370, Note_on_c, 0, 76, 92
2, 89370, Note_on_c, 0, 42, 57
2, 89460, Note_on_c, 0, 42, 0
2, 89460, Note_on_c, 0, 67, 0
2, 89460, Note_on_c, 0, 79, 0
2, 89460, Note_on_c, 0, 76, 0
2, 89460, Note_on_c, 0, 70, 127
2, 89460, Note_on_c, 0, 82, 127
2, 89460, Note_on_c, 0, 79, 91
2, 89460, Note_on_c, 0, 50, 100
2, 89460, Note_on_c, 0, 58, 100
2, 89460, Note_on_c, 0, 62, 100
2, 89550, Note_on_c, 0, 79, 0
2, 89550, Note_on_c, 0, 78, 78
2, 89640, Note_on_c, 0, 78, 0
2, 89640, Note_on_c, 0, 77, 83
2, 89730, Note_on_c, 0, 77, 0
2, 89730, Note_on_c, 0, 76, 78
2, 89820, Note_on_c, 0, 76, 0
2, 89820, Note_on_c, 0, 82, 0
2, 89820, Note_on_c, 0, 70, 0
2, 89820, Note_on_c, 0, 67, 90
2, 89820, Note_on_c, 0, 79, 90
2, 89820, Note_on_c, 0, 75, 80
2, 89910, Note_on_c, 0, 75, 0
2, 89910, Note_on_c, 0, 74, 83
2, 90000, Note_on_c, 0, 74, 0
2, 90000, Note_on_c, 0, 50, 0
2, 90000, Note_on_c, 0, 62, 0
2, 90000, Note_on_c, 0, 73, 71
2, 90000, Note_on_c, 0, 52, 70
2, 90000, Note_on_c, 0, 64, 70
2, 90072, Note_on_c, 0, 64, 0
2, 90072, Note_on_c, 0, 58, 0
2, 90072, Note_on_c, 0, 52, 0
2, 90090, Note_on_c, 0, 73, 0
2, 90090, Note_on_c, 0, 72, 58
2, 90180, Note_on_c, 0, 72, 0
2, 90180, Note_on_c, 0, 79, 0
2, 90180, Note_on_c, 0, 67, 0
2, 90180, Note_on_c, 0, 66, 71
2, 90180, Note_on_c, 0, 78, 71
2, 90180, Note_on_c, 0, 73, 58
2, 90180, Note_on_c, 0, 61, 56
2, 90270, Note_on_c, 0, 61, 0
2, 90270, Note_on_c, 0, 54, 52
2, 90360, Note_on_c, 0, 54, 0
2, 90360, Note_on_c, 0, 73, 0
2, 90360, Note_on_c, 0, 78, 0
2, 90360, Note_on_c, 0, 66, 0
2, 90360, Note_on_c, 0, 67, 73
2, 90360, Note_on_c, 0, 79, 73
2, 90360, Note_on_c, 0, 74, 58
2, 90360, Note_on_c, 0, 50, 58
2, 90450, Note_on_c, 0, 50, 0
2, 90450, Note_on_c, 0, 74, 0
2, 90450, Note_on_c, 0, 76, 83
2, 90450, Note_on_c, 0, 42, 54
2, 90540, Note_on_c, 0, 42, 0
2, 90540, Note_on_c, 0, 67, 0
2, 90540, Note_on_c, 0, 79, 0
2, 90540, Note_on_c, 0, 76, 0
2, 90540, Note_on_c, 0, 70, 127
2, 90540, Note_on_c, 0, 82, 127
2, 90540, Note_on_c, 0, 79, 89
2, 90540, Note_on_c, 0, 50, 100
2, 90540, Note_on_c, 0, 58, 100
2, 90540, Note_on_c, 0, 62, 100
2, 90630, Note_on_c, 0, 79, 0
2, 90630, Note_on_c, 0, 78, 80
2, 90720, Note_on_c, 0, 78, 0
2, 90720, Note_on_c, 0, 77, 84
2, 90810, Note_on_c, 0, 77, 0
2, 90810, Note_on_c, 0, 76, 83
2, 90900, Note_on_c, 0, 76, 0
2, 90900, Note_on_c, 0, 82, 0
2, 90900, Note_on_c, 0, 70, 0
2, 90900, Note_on_c, 0, 67, 97
2, 90900, Note_on_c, 0, 79, 97
2, 90900, Note_on_c, 0, 75, 76
2, 90990, Note_on_c, 0, 75, 0
2, 90990, Note_on_c, 0, 74, 83
2, 91080, Note_on_c, 0, 74, 0
2, 91080, Note_on_c, 0, 50, 0
2, 91080, Note_on_c, 0, 62, 0
2, 91080, Note_on_c, 0, 73, 71
2, 91080, Note_on_c, 0, 52, 68
2, 91080, Note_on_c, 0, 64, 68
2, 91170, Note_on_c, 0, 73, 0
2, 91170, Note_on_c, 0, 72, 58
2, 91224, Note_on_c, 0, 52, 0
2, 91224, Note_on_c, 0, 58, 0
2, 91224, Note_on_c, 0, 64, 0
2, 91260, Note_on_c, 0, 67, 0
2, 91260, Note_on_c, 0, 79, 0
2, 91260, Note_on_c, 0, 72, 0
2, 91260, Note_on_c, 0, 71, 125
2, 91260, Note_on_c, 0, 76, 125
2, 91260, Note_on_c, 0, 83, 125
2, 91260, Note_on_c, 0, 40, 80
2, 91260, Note_on_c, 0, 47, 80
2, 91260, Note_on_c, 0, 55, 80
2, 91350, Note_on_c, 0, 83, 0
2, 91350, Note_on_c, 0, 71, 0
2, 91350, Note_on_c, 0, 76, 0
2, 91350, Note_on_c, 0, 79, 67
2, 91440, Note_on_c, 0, 79, 0
2, 91440, Note_on_c, 0, 55, 0
2, 91440, Note_on_c, 0, 47, 0
2, 91440, Note_on_c, 0, 40, 0
2, 91440, Note_on_c, 0, 76, 61
2, 91530, Note_on_c, 0, 76, 0
2, 91530, Note_on_c, 0, 79, 79
2, 91620, Note_on_c, 0, 79, 0
2, 91620, Note_on_c, 0, 76, 66
2, 91710, Note_on_c, 0, 76, 0
2, 91710, Note_on_c, 0, 73, 63
2, 91800, Note_on_c, 0, 73, 0
2, 91800, Note_on_c, 0, 71, 69
2, 91800, Note_on_c, 0, 64, 57
2, 91890, Note_on_c, 0, 64, 0
2, 91890, Note_on_c, 0, 71, 0
2, 91890, Note_on_c, 0, 73, 72
2, 91890, Note_on_c, 0, 66, 65
2, 91980, Note_on_c, 0, 66, 0
2, 91980, Note_on_c, 0, 73, 0
2, 91980, Note_on_c, 0, 71, 69
2, 91980, Note_on_c, 0, 67, 84
2, 92070, Note_on_c, 0, 71, 0
2, 92070, Note_on_c, 0, 67, 64
2, 92160, Note_on_c, 0, 67, 0
2, 92160, Note_on_c, 0, 67, 0
2, 92160, Note_on_c, 0, 64, 63
2, 92160, Note_on_c, 0, 61, 52
2, 92249, Note_on_c, 0, 61, 0
2, 92250, Note_on_c, 0, 64, 0
2, 92250, Note_on_c, 0, 67, 76
2, 92340, Note_on_c, 0, 67, 0
2, 92340, Note_on_c, 0, 64, 72
2, 92340, Note_on_c, 0, 59, 58
2, 92429, Note_on_c, 0, 59, 0
2, 92430, Note_on_c, 0, 64, 0
2, 92430, Note_on_c, 0, 61, 70
2, 92520, Note_on_c, 0, 61, 0
2, 92520, Note_on_c, 0, 59, 67
2, 92520, Note_on_c, 0, 55, 58
2, 92609, Note_on_c, 0, 55, 0
2, 92610, Note_on_c, 0, 59, 0
2, 92610, Note_on_c, 0, 61, 65
2, 92700, Note_on_c, 0, 61, 0
2, 92700, Note_on_c, 0, 59, 63
2, 92700, Note_on_c, 0, 52, 58
2, 92789, Note_on_c, 0, 52, 0
2, 92790, Note_on_c, 0, 59, 0
2, 92790, Note_on_c, 0, 55, 60
2, 92880, Note_on_c, 0, 55, 0
2, 92880, Note_on_c, 0, 60, 58
2, 92880, Note_on_c, 0, 51, 59
2, 92924, Note_on_c, 0, 51, 0
2, 92970, Note_on_c, 0, 60, 0
2, 92970, Note_on_c, 0, 61, 56
2, 92970, Note_on_c, 0, 52, 63
2, 93014, Note_on_c, 0, 52, 0
2, 93060, Note_on_c, 0, 61, 0
2, 93060, Note_on_c, 0, 67, 53
2, 93060, Note_on_c, 0, 55, 51
2, 93060, Note_on_c, 0, 64, 51
2, 93060, Note_on_c, 0, 48, 56
2, 93104, Note_on_c, 0, 48, 0
2, 93150, Note_on_c, 0, 49, 60
2, 93194, Note_on_c, 0, 49, 0
2, 93240, Note_on_c, 0, 64, 0
2, 93240, Note_on_c, 0, 55, 0
2, 93240, Note_on_c, 0, 55, 51
2, 93240, Note_on_c, 0, 62, 51
2, 93240, Note_on_c, 0, 47, 63
2, 93284, Note_on_c, 0, 47, 0
2, 93330, Note_on_c, 0, 48, 60
2, 93374, Note_on_c, 0, 48, 0
2, 93420, Note_on_c, 0, 62, 0
2, 93420, Note_on_c, 0, 55, 0
2, 93420, Note_on_c, 0, 55, 57
2, 93420, Note_on_c, 0, 61, 57
2, 93420, Note_on_c, 0, 46, 76
2, 93509, Note_on_c, 0, 61, 0
2, 93509, Note_on_c, 0, 55, 0
2, 93600, Note_on_c, 0, 55, 64
2, 93600, Note_on_c, 0, 61, 64
2, 93600, Note_on_c, 0, 64, 64
2, 93689, Note_on_c, 0, 64, 0
2, 93689, Note_on_c, 0, 55, 0
2, 93689, Note_on_c, 0, 61, 0
2, 93780, Note_on_c, 0, 55, 61
2, 93780, Note_on_c, 0, 61, 61
2, 93780, Note_on_c, 0, 64, 61
2, 93869, Note_on_c, 0, 64, 0
2, 93869, Note_on_c, 0, 55, 0
2, 93869, Note_on_c, 0, 61, 0
2, 93894, Note_on_c, 0, 46, 0
2, 93960, Note_on_c, 0, 67, 0
2, 93960, Note_on_c, 0, 60, 35
2, 93960, Note_on_c, 0, 55, 59
2, 93960, Note_on_c, 0, 51, 64
2, 94004, Note_on_c, 0, 51, 0
2, 94049, Note_on_c, 0, 55, 0
2, 94050, Note_on_c, 0, 60, 0
2, 94050, Note_on_c, 0, 61, 47
2, 94050, Note_on_c, 0, 52, 63
2, 94094, Note_on_c, 0, 52, 0
2, 94140, Note_on_c, 0, 61, 0
2, 94140, Note_on_c, 0, 67, 68
2, 94140, Note_on_c, 0, 55, 77
2, 94140, Note_on_c, 0, 64, 77
2, 94140, Note_on_c, 0, 48, 58
2, 94184, Note_on_c, 0, 48, 0
2, 94229, Note_on_c, 0, 64, 0
2, 94229, Note_on_c, 0, 55, 0
2, 94230, Note_on_c, 0, 49, 62
2, 94274, Note_on_c, 0, 49, 0
2, 94320, Note_on_c, 0, 55, 59
2, 94320, Note_on_c, 0, 62, 59
2, 94320, Note_on_c, 0, 47, 57
2, 94364, Note_on_c, 0, 47, 0
2, 94409, Note_on_c, 0, 62, 0
2, 94409, Note_on_c, 0, 55, 0
2, 94410, Note_on_c, 0, 48, 64
2, 94454, Note_on_c, 0, 48, 0
2, 94500, Note_on_c, 0, 55, 53
2, 94500, Note_on_c, 0, 61, 53
2, 94500, Note_on_c, 0, 46, 71
2, 94589, Note_on_c, 0, 61, 0
2, 94589, Note_on_c, 0, 55, 0
2, 94680, Note_on_c, 0, 55, 64
2, 94680, Note_on_c, 0, 61, 64
2, 94680, Note_on_c, 0, 64, 64
2, 94769, Note_on_c, 0, 64, 0
2, 94769, Note_on_c, 0, 55, 0
2, 94769, Note_on_c, 0, 61, 0
2, 94860, Note_on_c, 0, 55, 61
2, 94860, Note_on_c, 0, 61, 61
2, 94860, Note_on_c, 0, 64, 61
2, 94949, Note_on_c, 0, 64, 0
2, 94949, Note_on_c, 0, 55, 0
2, 94949, Note_on_c, 0, 61, 0
2, 94974, Note_on_c, 0, 46, 0
2, 95040, Note_on_c, 0, 67, 0
2, 95040, Note_on_c, 0, 61, 55
2, 95040, Note_on_c, 0, 63, 55
2, 95040, Note_on_c, 0, 54, 69
2, 95129, Note_on_c, 0, 63, 0
2, 95129, Note_on_c, 0, 61, 0
2, 95130, Note_on_c, 0, 54, 0
2, 95130, Note_on_c, 0, 55, 64
2, 95220, Note_on_c, 0, 55, 0
2, 95220, Note_on_c, 0, 55, 86
2, 95220, Note_on_c, 0, 61, 86
2, 95220, Note_on_c, 0, 64, 86
2, 95220, Note_on_c, 0, 46, 64
2, 95400, Note_on_c, 0, 64, 0
2, 95400, Note_on_c, 0, 55, 0
2, 95400, Note_on_c, 0, 61, 0
2, 95400, Note_on_c, 0, 55, 64
2, 95400, Note_on_c, 0, 61, 64
2, 95400, Note_on_c, 0, 64, 64
2, 95489, Note_on_c, 0, 64, 0
2, 95489, Note_on_c, 0, 61, 0
2, 95489, Note_on_c, 0, 55, 0
2, 95580, Note_on_c, 0, 55, 60
2, 95580, Note_on_c, 0, 61, 60
2, 95580, Note_on_c, 0, 64, 60
2, 95669, Note_on_c, 0, 64, 0
2, 95669, Note_on_c, 0, 61, 0
2, 95669, Note_on_c, 0, 55, 0
2, 95694, Note_on_c, 0, 46, 0
2, 95760, Note_on_c, 0, 61, 58
2, 95760, Note_on_c, 0, 63, 58
2, 95760, Note_on_c, 0, 54, 65
2, 95849, Note_on_c, 0, 63, 0
2, 95849, Note_on_c, 0, 61, 0
2, 95850, Note_on_c, 0, 54, 0
2, 95850, Note_on_c, 0, 55, 62
2, 95940, Note_on_c, 0, 55, 0
2, 95940, Note_on_c, 0, 55, 67
2, 95940, Note_on_c, 0, 61, 67
2, 95940, Note_on_c, 0, 64, 67
2, 95940, Note_on_c, 0, 46, 52
2, 96029, Note_on_c, 0, 46, 0
2, 96120, Note_on_c, 0, 55, 0
2, 96120, Note_on_c, 0, 61, 0
2, 96120, Note_on_c, 0, 64, 0
2, 96120, Note_on_c, 0, 61, 48
2, 96120, Note_on_c, 0, 63, 48
2, 96120, Note_on_c, 0, 54, 66
2, 96209, Note_on_c, 0, 63, 0
2, 96209, Note_on_c, 0, 61, 0
2, 96210, Note_on_c, 0, 54, 0
2, 96210, Note_on_c, 0, 55, 65
2, 96300, Note_on_c, 0, 55, 0
2, 96300, Note_on_c, 0, 55, 73
2, 96300, Note_on_c, 0, 61, 73
2, 96300, Note_on_c, 0, 64, 73
2, 96300, Note_on_c, 0, 46, 53
2, 96389, Note_on_c, 0, 46, 0
2, 96480, Note_on_c, 0, 55, 0
2, 96480, Note_on_c, 0, 61, 0
2, 96480, Note_on_c, 0, 64, 0
2, 96480, Note_on_c, 0, 61, 45
2, 96480, Note_on_c, 0, 63, 45
2, 96480, Note_on_c, 0, 54, 62
2, 96569, Note_on_c, 0, 63, 0
2, 96569, Note_on_c, 0, 61, 0
2, 96570, Note_on_c, 0, 54, 0
2, 96570, Note_on_c, 0, 55, 64
2, 96660, Note_on_c, 0, 55, 0
2, 96660, Note_on_c, 0, 55, 75
2, 96660, Note_on_c, 0, 61, 75
2, 96660, Note_on_c, 0, 64, 75
2, 96660, Note_on_c, 0, 46, 57
2, 96704, Note_on_c, 0, 46, 0
2, 96750, Note_on_c, 0, 54, 60
2, 96794, Note_on_c, 0, 54, 0
2, 96840, Note_on_c, 0, 64, 0
2, 96840, Note_on_c, 0, 61, 0
2, 96840, Note_on_c, 0, 55, 0
2, 96840, Note_on_c, 0, 55, 67
2, 96884, Note_on_c, 0, 55, 0
2, 96930, Note_on_c, 0, 53, 73
2, 96974, Note_on_c, 0, 53, 0
2, 97020, Note_on_c, 0, 55, 79
2, 97064, Note_on_c, 0, 55, 0
2, 97110, Note_on_c, 0, 52, 86
2, 97154, Note_on_c, 0, 52, 0
2, 97200, Note_on_c, 0, 55, 89
2, 97244, Note_on_c, 0, 55, 0
2, 97290, Note_on_c, 0, 51, 78
2, 97334, Note_on_c, 0, 51, 0
2, 97380, Note_on_c, 0, 58, 90
2, 97424, Note_on_c, 0, 58, 0
2, 97470, Note_on_c, 0, 50, 75
2, 97514, Note_on_c, 0, 50, 0
2, 97560, Note_on_c, 0, 55, 91
2, 97604, Note_on_c, 0, 55, 0
2, 97650, Note_on_c, 0, 49, 82
2, 97694, Note_on_c, 0, 49, 0
2, 97740, Note_on_c, 0, 55, 86
2, 97784, Note_on_c, 0, 55, 0
2, 97830, Note_on_c, 0, 48, 77
2, 97874, Note_on_c, 0, 48, 0
2, 97920, Note_on_c, 0, 62, 43
2, 97920, Note_on_c, 0, 55, 69
2, 97964, Note_on_c, 0, 55, 0
2, 98010, Note_on_c, 0, 62, 0
2, 98010, Note_on_c, 0, 64, 44
2, 98010, Note_on_c, 0, 47, 61
2, 98054, Note_on_c, 0, 47, 0
2, 98100, Note_on_c, 0, 64, 0
2, 98100, Note_on_c, 0, 62, 76
2, 98100, Note_on_c, 0, 66, 76
2, 98100, Note_on_c, 0, 46, 89
2, 98100, Note_on_c, 0, 50, 89
2, 98100, Note_on_c, 0, 54, 89
2, 98280, Note_on_c, 0, 54, 0
2, 98280, Note_on_c, 0, 46, 0
2, 98280, Note_on_c, 0, 62, 0
2, 98280, Note_on_c, 0, 66, 0
2, 98280, Note_on_c, 0, 50, 0
2, 98280, Note_on_c, 0, 62, 63
2, 98280, Note_on_c, 0, 66, 63
2, 98280, Note_on_c, 0, 46, 61
2, 98280, Note_on_c, 0, 50, 61
2, 98280, Note_on_c, 0, 54, 61
2, 98369, Note_on_c, 0, 54, 0
2, 98369, Note_on_c, 0, 46, 0
2, 98369, Note_on_c, 0, 62, 0
2, 98369, Note_on_c, 0, 66, 0
2, 98369, Note_on_c, 0, 50, 0
2, 98460, Note_on_c, 0, 62, 60
2, 98460, Note_on_c, 0, 66, 60
2, 98460, Note_on_c, 0, 46, 59
2, 98460, Note_on_c, 0, 50, 59
2, 98460, Note_on_c, 0, 54, 59
2, 98549, Note_on_c, 0, 54, 0
2, 98549, Note_on_c, 0, 46, 0
2, 98549, Note_on_c, 0, 62, 0
2, 98549, Note_on_c, 0, 66, 0
2, 98549, Note_on_c, 0, 50, 0
2, 98640, Note_on_c, 0, 58, 75
2, 98640, Note_on_c, 0, 61, 75
2, 98640, Note_on_c, 0, 70, 75
2, 98640, Note_on_c, 0, 43, 68
2, 98640, Note_on_c, 0, 49, 68
2, 98640, Note_on_c, 0, 52, 68
2, 98798, Note_on_c, 0, 52, 0
2, 98798, Note_on_c, 0, 61, 0
2, 98798, Note_on_c, 0, 70, 0
2, 98798, Note_on_c, 0, 43, 0
2, 98798, Note_on_c, 0, 49, 0
2, 98820, Note_on_c, 0, 62, 56
2, 98820, Note_on_c, 0, 66, 56
2, 98820, Note_on_c, 0, 46, 62
2, 98820, Note_on_c, 0, 50, 62
2, 98820, Note_on_c, 0, 54, 62
2, 99000, Note_on_c, 0, 54, 0
2, 99000, Note_on_c, 0, 62, 0
2, 99000, Note_on_c, 0, 66, 0
2, 99000, Note_on_c, 0, 58, 0
2, 99000, Note_on_c, 0, 50, 0
2, 99000, Note_on_c, 0, 46, 0
2, 99000, Note_on_c, 0, 58, 80
2, 99000, Note_on_c, 0, 61, 80
2, 99000, Note_on_c, 0, 70, 80
2, 99000, Note_on_c, 0, 43, 68
2, 99000, Note_on_c, 0, 49, 68
2, 99000, Note_on_c, 0, 52, 68
2, 99158, Note_on_c, 0, 52, 0
2, 99158, Note_on_c, 0, 61, 0
2, 99158, Note_on_c, 0, 70, 0
2, 99158, Note_on_c, 0, 43, 0
2, 99158, Note_on_c, 0, 49, 0
2, 99180, Note_on_c, 0, 62, 53
2, 99180, Note_on_c, 0, 66, 53
2, 99180, Note_on_c, 0, 46, 58
2, 99180, Note_on_c, 0, 50, 58
2, 99180, Note_on_c, 0, 54, 58
2, 99360, Note_on_c, 0, 54, 0
2, 99360, Note_on_c, 0, 62, 0
2, 99360, Note_on_c, 0, 66, 0
2, 99360, Note_on_c, 0, 58, 0
2, 99360, Note_on_c, 0, 50, 0
2, 99360, Note_on_c, 0, 46, 0
2, 99360, Note_on_c, 0, 62, 60
2, 99360, Note_on_c, 0, 50, 56
2, 99450, Note_on_c, 0, 50, 0
2, 99450, Note_on_c, 0, 62, 0
2, 99450, Note_on_c, 0, 64, 73
2, 99450, Note_on_c, 0, 52, 60
2, 99540, Note_on_c, 0, 52, 0
2, 99540, Note_on_c, 0, 64, 0
2, 99540, Note_on_c, 0, 54, 86
2, 99540, Note_on_c, 0, 58, 86
2, 99540, Note_on_c, 0, 62, 86
2, 99540, Note_on_c, 0, 66, 86
2, 99540, Note_on_c, 0, 42, 87
2, 99540, Note_on_c, 0, 46, 87
2, 99540, Note_on_c, 0, 50, 87
2, 99720, Note_on_c, 0, 50, 0
2, 99720, Note_on_c, 0, 42, 0
2, 99720, Note_on_c, 0, 58, 0
2, 99720, Note_on_c, 0, 62, 0
2, 99720, Note_on_c, 0, 54, 0
2, 99720, Note_on_c, 0, 46, 0
2, 99720, Note_on_c, 0, 66, 0
2, 99720, Note_on_c, 0, 58, 89
2, 99720, Note_on_c, 0, 66, 89
2, 99720, Note_on_c, 0, 42, 62
2, 99720, Note_on_c, 0, 50, 62
2, 99809, Note_on_c, 0, 50, 0
2, 99809, Note_on_c, 0, 58, 0
2, 99809, Note_on_c, 0, 66, 0
2, 99809, Note_on_c, 0, 42, 0
2, 99900, Note_on_c, 0, 58, 85
2, 99900, Note_on_c, 0, 66, 85
2, 99900, Note_on_c, 0, 42, 61
2, 99900, Note_on_c, 0, 50, 61
2, 99989, Note_on_c, 0, 50, 0
2, 99989, Note_on_c, 0, 58, 0
2, 99989, Note_on_c, 0, 66, 0
2, 99989, Note_on_c, 0, 42, 0
2, 100080, Note_on_c, 0, 58, 109
2, 100080, Note_on_c, 0, 61, 109
2, 100080, Note_on_c, 0, 70, 109
2, 100080, Note_on_c, 0, 39, 79
2, 100080, Note_on_c, 0, 46, 79
2, 100080, Note_on_c, 0, 54, 79
2, 100238, Note_on_c, 0, 54, 0
2, 100238, Note_on_c, 0, 61, 0
2, 100238, Note_on_c, 0, 70, 0
2, 100260, Note_on_c, 0, 62, 80
2, 100260, Note_on_c, 0, 66, 80
2, 100260, Note_on_c, 0, 42, 62
2, 100260, Note_on_c, 0, 50, 62
2, 100440, Note_on_c, 0, 50, 0
2, 100440, Note_on_c, 0, 66, 0
2, 100440, Note_on_c, 0, 58, 0
2, 100440, Note_on_c, 0, 46, 0
2, 100440, Note_on_c, 0, 62, 0
2, 100440, Note_on_c, 0, 42, 0
2, 100440, Note_on_c, 0, 58, 107
2, 100440, Note_on_c, 0, 61, 107
2, 100440, Note_on_c, 0, 70, 107
2, 100440, Note_on_c, 0, 46, 74
2, 100440, Note_on_c, 0, 54, 74
2, 100598, Note_on_c, 0, 54, 0
2, 100598, Note_on_c, 0, 61, 0
2, 100598, Note_on_c, 0, 70, 0
2, 100620, Note_on_c, 0, 62, 76
2, 100620, Note_on_c, 0, 66, 76
2, 100620, Note_on_c, 0, 42, 60
2, 100620, Note_on_c, 0, 50, 60
2, 100710, Note_on_c, 0, 50, 0
2, 100710, Note_on_c, 0, 66, 0
2, 100710, Note_on_c, 0, 46, 0
2, 100710, Note_on_c, 0, 58, 0
2, 100710, Note_on_c, 0, 62, 0
2, 100710, Note_on_c, 0, 42, 0
2, 100710, Note_on_c, 0, 61, 86
2, 100710, Note_on_c, 0, 49, 62
2, 100800, Note_on_c, 0, 49, 0
2, 100800, Note_on_c, 0, 61, 0
2, 100800, Note_on_c, 0, 62, 94
2, 100800, Note_on_c, 0, 50, 61
2, 100890, Note_on_c, 0, 50, 0
2, 100890, Note_on_c, 0, 62, 0
2, 100890, Note_on_c, 0, 64, 103
2, 100890, Note_on_c, 0, 52, 58
2, 100980, Note_on_c, 0, 52, 0
2, 100980, Note_on_c, 0, 64, 0
2, 100980, Note_on_c, 0, 54, 91
2, 100980, Note_on_c, 0, 62, 91
2, 100980, Note_on_c, 0, 66, 91
2, 100980, Note_on_c, 0, 38, 81
2, 100980, Note_on_c, 0, 45, 81
2, 101160, Note_on_c, 0, 45, 0
2, 101160, Note_on_c, 0, 54, 0
2, 101160, Note_on_c, 0, 62, 0
2, 101160, Note_on_c, 0, 66, 0
2, 101160, Note_on_c, 0, 38, 0
2, 101160, Note_on_c, 0, 54, 66
2, 101160, Note_on_c, 0, 66, 66
2, 101160, Note_on_c, 0, 38, 58
2, 101160, Note_on_c, 0, 45, 58
2, 101249, Note_on_c, 0, 45, 0
2, 101249, Note_on_c, 0, 66, 0
2, 101249, Note_on_c, 0, 38, 0
2, 101249, Note_on_c, 0, 54, 0
2, 101340, Note_on_c, 0, 54, 65
2, 101340, Note_on_c, 0, 66, 65
2, 101340, Note_on_c, 0, 38, 59
2, 101340, Note_on_c, 0, 45, 59
2, 101429, Note_on_c, 0, 45, 0
2, 101429, Note_on_c, 0, 66, 0
2, 101429, Note_on_c, 0, 38, 0
2, 101429, Note_on_c, 0, 54, 0
2, 101520, Note_on_c, 0, 58, 81
2, 101520, Note_on_c, 0, 61, 81
2, 101520, Note_on_c, 0, 70, 81
2, 101520, Note_on_c, 0, 34, 76
2, 101520, Note_on_c, 0, 41, 76
2, 101520, Note_on_c, 0, 49, 76
2, 101678, Note_on_c, 0, 49, 0
2, 101678, Note_on_c, 0, 61, 0
2, 101678, Note_on_c, 0, 70, 0
2, 101700, Note_on_c, 0, 62, 55
2, 101700, Note_on_c, 0, 66, 55
2, 101700, Note_on_c, 0, 38, 62
2, 101700, Note_on_c, 0, 42, 62
2, 101700, Note_on_c, 0, 46, 62
2, 101880, Note_on_c, 0, 46, 0
2, 101880, Note_on_c, 0, 58, 0
2, 101880, Note_on_c, 0, 42, 0
2, 101880, Note_on_c, 0, 62, 0
2, 101880, Note_on_c, 0, 38, 0
2, 101880, Note_on_c, 0, 66, 0
2, 101880, Note_on_c, 0, 58, 77
2, 101880, Note_on_c, 0, 61, 77
2, 101880, Note_on_c, 0, 70, 77
2, 101880, Note_on_c, 0, 49, 77
2, 102038, Note_on_c, 0, 49, 0
2, 102038, Note_on_c, 0, 61, 0
2, 102038, Note_on_c, 0, 70, 0
2, 102060, Note_on_c, 0, 62, 53
2, 102060, Note_on_c, 0, 66, 53
2, 102060, Note_on_c, 0, 38, 56
2, 102060, Note_on_c, 0, 42, 56
2, 102060, Note_on_c, 0, 46, 56
2, 102240, Note_on_c, 0, 46, 0
2, 102240, Note_on_c, 0, 58, 0
2, 102240, Note_on_c, 0, 42, 0
2, 102240, Note_on_c, 0, 62, 0
2, 102240, Note_on_c, 0, 38, 0
2, 102240, Note_on_c, 0, 66, 0
2, 102240, Note_on_c, 0, 57, 84
2, 102240, Note_on_c, 0, 61, 84
2, 102240, Note_on_c, 0, 66, 84
2, 102240, Note_on_c, 0, 45, 78
2, 102284, Note_on_c, 0, 45, 0
2, 102330, Note_on_c, 0, 46, 85
2, 102374, Note_on_c, 0, 46, 0
2, 102420, Note_on_c, 0, 66, 0
2, 102420, Note_on_c, 0, 57, 0
2, 102420, Note_on_c, 0, 61, 0
2, 102420, Note_on_c, 0, 54, 99
2, 102420, Note_on_c, 0, 59, 99
2, 102420, Note_on_c, 0, 62, 99
2, 102420, Note_on_c, 0, 35, 112
2, 102420, Note_on_c, 0, 47, 112
2, 102600, Note_on_c, 0, 47, 0
2, 102600, Note_on_c, 0, 35, 0
2, 102600, Note_on_c, 0, 59, 0
2, 102600, Note_on_c, 0, 54, 0
2, 102600, Note_on_c, 0, 62, 0
2, 102600, Note_on_c, 0, 57, 93
2, 102600, Note_on_c, 0, 61, 93
2, 102600, Note_on_c, 0, 66, 93
2, 102600, Note_on_c, 0, 44, 82
2, 102644, Note_on_c, 0, 44, 0
2, 102689, Note_on_c, 0, 61, 0
2, 102689, Note_on_c, 0, 57, 0
2, 102689, Note_on_c, 0, 66, 0
2, 102690, Note_on_c, 0, 45, 86
2, 102734, Note_on_c, 0, 45, 0
2, 102780, Note_on_c, 0, 53, 99
2, 102780, Note_on_c, 0, 58, 99
2, 102780, Note_on_c, 0, 62, 99
2, 102780, Note_on_c, 0, 46, 111
2, 102960, Note_on_c, 0, 46, 0
2, 102960, Note_on_c, 0, 58, 0
2, 102960, Note_on_c, 0, 53, 0
2, 102960, Note_on_c, 0, 34, 0
2, 102960, Note_on_c, 0, 62, 0
2, 102960, Note_on_c, 0, 57, 93
2, 102960, Note_on_c, 0, 61, 93
2, 102960, Note_on_c, 0, 66, 93
2, 102960, Note_on_c, 0, 42, 79
2, 103004, Note_on_c, 0, 42, 0
2, 103049, Note_on_c, 0, 61, 0
2, 103049, Note_on_c, 0, 57, 0
2, 103049, Note_on_c, 0, 66, 0
2, 103050, Note_on_c, 0, 43, 80
2, 103094, Note_on_c, 0, 43, 0
2, 103140, Note_on_c, 0, 54, 102
2, 103140, Note_on_c, 0, 57, 102
2, 103140, Note_on_c, 0, 62, 102
2, 103140, Note_on_c, 0, 33, 108
2, 103140, Note_on_c, 0, 45, 108
2, 103320, Note_on_c, 0, 45, 0
2, 103320, Note_on_c, 0, 62, 0
2, 103320, Note_on_c, 0, 57, 0
2, 103320, Note_on_c, 0, 54, 0
2, 103320, Note_on_c, 0, 33, 0
2, 103320, Note_on_c, 0, 52, 87
2, 103320, Note_on_c, 0, 58, 87
2, 103320, Note_on_c, 0, 60, 87
2, 103320, Note_on_c, 0, 31, 95
2, 103320, Note_on_c, 0, 43, 95
2, 103399, Note_on_c, 0, 60, 0
2, 103399, Note_on_c, 0, 58, 0
2, 103399, Note_on_c, 0, 52, 0
2, 103410, Note_on_c, 0, 62, 90
2, 103478, Note_on_c, 0, 31, 0
2, 103478, Note_on_c, 0, 43, 0
2, 103500, Note_on_c, 0, 62, 0
2, 103500, Note_on_c, 0, 52, 83
2, 103500, Note_on_c, 0, 58, 83
2, 103500, Note_on_c, 0, 61, 83
2, 103500, Note_on_c, 0, 30, 111
2, 103500, Note_on_c, 0, 42, 111
2, 103680, Note_on_c, 0, 42, 0
2, 103680, Note_on_c, 0, 61, 0
2, 103680, Note_on_c, 0, 58, 0
2, 103680, Note_on_c, 0, 52, 0
2, 103680, Note_on_c, 0, 30, 0
2, 103680, Note_on_c, 0, 50, 56
2, 103680, Note_on_c, 0, 59, 56
2, 103680, Note_on_c, 0, 35, 85
2, 103680, Note_on_c, 0, 42, 85
2, 103769, Note_on_c, 0, 42, 0
2, 103769, Note_on_c, 0, 59, 0
2, 103769, Note_on_c, 0, 50, 0
2, 103769, Note_on_c, 0, 35, 0
2, 103860, Note_on_c, 0, 50, 71
2, 103860, Note_on_c, 0, 59, 71
2, 103860, Note_on_c, 0, 35, 96
2, 103860, Note_on_c, 0, 42, 96
2, 104177, Note_on_c, 0, 42, 0
2, 104177, Note_on_c, 0, 59, 0
2, 104177, Note_on_c, 0, 50, 0
2, 104177, Note_on_c, 0, 35, 0
2, 104220, Note_on_c, 0, 41, 0
2, 104220, Note_on_c, 0, 39, 0
2, 104400, Note_on_c, 0, 59, 75
2, 104400, Note_on_c, 0, 64, 75
2, 104400, Note_on_c, 0, 67, 75
2, 104400, Note_on_c, 0, 40, 77
2, 104400, Note_on_c, 0, 52, 77
2, 104490, Note_on_c, 0, 67, 0
2, 104490, Note_on_c, 0, 59, 0
2, 104490, Note_on_c, 0, 64, 0
2, 104490, Note_on_c, 0, 69, 87
2, 104580, Note_on_c, 0, 69, 0
2, 104580, Note_on_c, 0, 40, 0
2, 104580, Note_on_c, 0, 52, 0
2, 104580, Note_on_c, 0, 59, 118
2, 104580, Note_on_c, 0, 66, 118
2, 104580, Note_on_c, 0, 71, 118
2, 104580, Note_on_c, 0, 38, 76
2, 104580, Note_on_c, 0, 50, 76
2, 104760, Note_on_c, 0, 50, 0
2, 104760, Note_on_c, 0, 71, 0
2, 104760, Note_on_c, 0, 59, 0
2, 104760, Note_on_c, 0, 66, 0
2, 104760, Note_on_c, 0, 38, 0
2, 104760, Note_on_c, 0, 57, 65
2, 104760, Note_on_c, 0, 62, 65
2, 104760, Note_on_c, 0, 42, 75
2, 104849, Note_on_c, 0, 62, 0
2, 104849, Note_on_c, 0, 57, 0
2, 104850, Note_on_c, 0, 42, 0
2, 104850, Note_on_c, 0, 43, 85
2, 104940, Note_on_c, 0, 43, 0
2, 104940, Note_on_c, 0, 54, 91
2, 104940, Note_on_c, 0, 61, 91
2, 104940, Note_on_c, 0, 66, 91
2, 104940, Note_on_c, 0, 33, 86
2, 104940, Note_on_c, 0, 45, 86
2, 105029, Note_on_c, 0, 45, 0
2, 105029, Note_on_c, 0, 66, 0
2, 105029, Note_on_c, 0, 54, 0
2, 105029, Note_on_c, 0, 61, 0
2, 105029, Note_on_c, 0, 33, 0
2, 105120, Note_on_c, 0, 57, 94
2, 105120, Note_on_c, 0, 61, 94
2, 105120, Note_on_c, 0, 69, 94
2, 105120, Note_on_c, 0, 42, 90
2, 105120, Note_on_c, 0, 49, 90
2, 105120, Note_on_c, 0, 54, 90
2, 105209, Note_on_c, 0, 54, 0
2, 105209, Note_on_c, 0, 61, 0
2, 105209, Note_on_c, 0, 69, 0
2, 105209, Note_on_c, 0, 57, 0
2, 105209, Note_on_c, 0, 49, 0
2, 105209, Note_on_c, 0, 42, 0
2, 105300, Note_on_c, 0, 62, 105
2, 105300, Note_on_c, 0, 71, 105
2, 105300, Note_on_c, 0, 35, 92
2, 105300, Note_on_c, 0, 42, 92
2, 105300, Note_on_c, 0, 47, 92
2, 105774, Note_on_c, 0, 47, 0
2, 105774, Note_on_c, 0, 35, 0
2, 105774, Note_on_c, 0, 62, 0
2, 105774, Note_on_c, 0, 71, 0
2, 105774, Note_on_c, 0, 42, 0
2, 105840, Note_on_c, 0, 79, 101
2, 105840, Note_on_c, 0, 76, 79
2, 105840, Note_on_c, 0, 71, 101
2, 105840, Note_on_c, 0, 64, 73
2, 105840, Note_on_c, 0, 67, 73
2, 105930, Note_on_c, 0, 79, 0
2, 105930, Note_on_c, 0, 81, 91
2, 106020, Note_on_c, 0, 81, 0
2, 106020, Note_on_c, 0, 67, 0
2, 106020, Note_on_c, 0, 76, 0
2, 106020, Note_on_c, 0, 64, 0
2, 106020, Note_on_c, 0, 83, 104
2, 106020, Note_on_c, 0, 74, 71
2, 106020, Note_on_c, 0, 59, 69
2, 106020, Note_on_c, 0, 66, 69
2, 106099, Note_on_c, 0, 83, 0
2, 106110, Note_on_c, 0, 83, 85
2, 106154, Note_on_c, 0, 83, 0
2, 106200, Note_on_c, 0, 83, 83
2, 106244, Note_on_c, 0, 83, 0
2, 106290, Note_on_c, 0, 83, 84
2, 106334, Note_on_c, 0, 83, 0
2, 106337, Note_on_c, 0, 66, 0
2, 106337, Note_on_c, 0, 59, 0
2, 106337, Note_on_c, 0, 74, 0
2, 106380, Note_on_c, 0, 71, 0
2, 106380, Note_on_c, 0, 83, 82
2, 106560, Note_on_c, 0, 83, 0
2, 106560, Note_on_c, 0, 79, 71
2, 106560, Note_on_c, 0, 76, 53
2, 106560, Note_on_c, 0, 71, 77
2, 106560, Note_on_c, 0, 60, 52
2, 106560, Note_on_c, 0, 64, 52
2, 106650, Note_on_c, 0, 79, 0
2, 106650, Note_on_c, 0, 81, 87
2, 106740, Note_on_c, 0, 81, 0
2, 106740, Note_on_c, 0, 64, 0
2, 106740, Note_on_c, 0, 76, 0
2, 106740, Note_on_c, 0, 60, 0
2, 106740, Note_on_c, 0, 83, 100
2, 106740, Note_on_c, 0, 78, 78
2, 106740, Note_on_c, 0, 62, 79
2, 106740, Note_on_c, 0, 66, 79
2, 106819, Note_on_c, 0, 83, 0
2, 106830, Note_on_c, 0, 83, 86
2, 106874, Note_on_c, 0, 83, 0
2, 106920, Note_on_c, 0, 83, 81
2, 106964, Note_on_c, 0, 83, 0
2, 107010, Note_on_c, 0, 83, 80
2, 107054, Note_on_c, 0, 83, 0
2, 107057, Note_on_c, 0, 66, 0
2, 107057, Note_on_c, 0, 62, 0
2, 107057, Note_on_c, 0, 78, 0
2, 107100, Note_on_c, 0, 71, 0
2, 107100, Note_on_c, 0, 83, 81
2, 107189, Note_on_c, 0, 83, 0
2, 107280, Note_on_c, 0, 79, 74
2, 107280, Note_on_c, 0, 76, 57
2, 107280, Note_on_c, 0, 72, 73
2, 107280, Note_on_c, 0, 64, 55
2, 107370, Note_on_c, 0, 64, 0
2, 107370, Note_on_c, 0, 79, 0
2, 107370, Note_on_c, 0, 81, 88
2, 107370, Note_on_c, 0, 66, 63
2, 107460, Note_on_c, 0, 66, 0
2, 107460, Note_on_c, 0, 76, 0
2, 107460, Note_on_c, 0, 72, 0
2, 107460, Note_on_c, 0, 81, 0
2, 107460, Note_on_c, 0, 83, 92
2, 107460, Note_on_c, 0, 74, 58
2, 107460, Note_on_c, 0, 71, 78
2, 107460, Note_on_c, 0, 67, 66
2, 107640, Note_on_c, 0, 67, 0
2, 107640, Note_on_c, 0, 83, 0
2, 107640, Note_on_c, 0, 74, 0
2, 107640, Note_on_c, 0, 71, 0
2, 107640, Note_on_c, 0, 74, 89
2, 107640, Note_on_c, 0, 81, 89
2, 107640, Note_on_c, 0, 73, 55
2, 107640, Note_on_c, 0, 59, 83
2, 107730, Note_on_c, 0, 59, 0
2, 107730, Note_on_c, 0, 61, 96
2, 107820, Note_on_c, 0, 61, 0
2, 107820, Note_on_c, 0, 73, 0
2, 107820, Note_on_c, 0, 72, 61
2, 107820, Note_on_c, 0, 62, 109
2, 107910, Note_on_c, 0, 62, 0
2, 107910, Note_on_c, 0, 62, 108
2, 107954, Note_on_c, 0, 62, 0
2, 107957, Note_on_c, 0, 81, 0
2, 107957, Note_on_c, 0, 74, 0
2, 108000, Note_on_c, 0, 72, 0
2, 108000, Note_on_c, 0, 74, 90
2, 108000, Note_on_c, 0, 79, 90
2, 108000, Note_on_c, 0, 71, 56
2, 108000, Note_on_c, 0, 62, 110
2, 108044, Note_on_c, 0, 62, 0
2, 108090, Note_on_c, 0, 62, 106
2, 108134, Note_on_c, 0, 62, 0
2, 108180, Note_on_c, 0, 71, 0
2, 108180, Note_on_c, 0, 70, 56
2, 108180, Note_on_c, 0, 62, 120
2, 108317, Note_on_c, 0, 79, 0
2, 108317, Note_on_c, 0, 74, 0
2, 108338, Note_on_c, 0, 62, 0
2, 108360, Note_on_c, 0, 70, 0
2, 108360, Note_on_c, 0, 69, 78
2, 108360, Note_on_c, 0, 74, 78
2, 108360, Note_on_c, 0, 78, 78
2, 108360, Note_on_c, 0, 50, 60
2, 108450, Note_on_c, 0, 50, 0
2, 108450, Note_on_c, 0, 52, 73
2, 108540, Note_on_c, 0, 52, 0
2, 108540, Note_on_c, 0, 78, 0
2, 108540, Note_on_c, 0, 74, 0
2, 108540, Note_on_c, 0, 69, 0
2, 108540, Note_on_c, 0, 67, 77
2, 108540, Note_on_c, 0, 76, 77
2, 108540, Note_on_c, 0, 54, 86
2, 108630, Note_on_c, 0, 54, 0
2, 108630, Note_on_c, 0, 54, 85
2, 108674, Note_on_c, 0, 54, 0
2, 108720, Note_on_c, 0, 76, 0
2, 108720, Note_on_c, 0, 67, 0
2, 108720, Note_on_c, 0, 66, 77
2, 108720, Note_on_c, 0, 74, 77
2, 108720, Note_on_c, 0, 54, 85
2, 108764, Note_on_c, 0, 54, 0
2, 108764, Note_on_c, 0, 74, 0
2, 108764, Note_on_c, 0, 66, 0
2, 108810, Note_on_c, 0, 64, 79
2, 108810, Note_on_c, 0, 73, 79
2, 108810, Note_on_c, 0, 54, 84
2, 108854, Note_on_c, 0, 54, 0
2, 108900, Note_on_c, 0, 73, 0
2, 108900, Note_on_c, 0, 64, 0
2, 108900, Note_on_c, 0, 62, 78
2, 108900, Note_on_c, 0, 71, 78
2, 108900, Note_on_c, 0, 47, 103
2, 108900, Note_on_c, 0, 54, 103
2, 109080, Note_on_c, 0, 54, 0
2, 109080, Note_on_c, 0, 62, 0
2, 109080, Note_on_c, 0, 71, 0
2, 109080, Note_on_c, 0, 47, 0
2, 109080, Note_on_c, 0, 71, 82
2, 109080, Note_on_c, 0, 59, 122
2, 109080, Note_on_c, 0, 66, 122
2, 109080, Note_on_c, 0, 57, 115
2, 109170, Note_on_c, 0, 71, 0
2, 109170, Note_on_c, 0, 73, 89
2, 109260, Note_on_c, 0, 73, 0
2, 109260, Note_on_c, 0, 57, 0
2, 109260, Note_on_c, 0, 74, 114
2, 109260, Note_on_c, 0, 56, 109
2, 109350, Note_on_c, 0, 74, 0
2, 109350, Note_on_c, 0, 74, 80
2, 109394, Note_on_c, 0, 74, 0
2, 109397, Note_on_c, 0, 59, 0
2, 109397, Note_on_c, 0, 66, 0
2, 109440, Note_on_c, 0, 56, 0
2, 109440, Note_on_c, 0, 74, 84
2, 109440, Note_on_c, 0, 59, 98
2, 109440, Note_on_c, 0, 64, 98
2, 109440, Note_on_c, 0, 55, 109
2, 109484, Note_on_c, 0, 74, 0
2, 109530, Note_on_c, 0, 74, 84
2, 109574, Note_on_c, 0, 74, 0
2, 109620, Note_on_c, 0, 55, 0
2, 109620, Note_on_c, 0, 74, 80
2, 109620, Note_on_c, 0, 54, 107
2, 109757, Note_on_c, 0, 64, 0
2, 109757, Note_on_c, 0, 59, 0
2, 109800, Note_on_c, 0, 74, 0
2, 109800, Note_on_c, 0, 54, 0
2, 109800, Note_on_c, 0, 67, 71
2, 109800, Note_on_c, 0, 62, 45
2, 109800, Note_on_c, 0, 53, 74
2, 109800, Note_on_c, 0, 42, 97
2, 109890, Note_on_c, 0, 67, 0
2, 109890, Note_on_c, 0, 69, 89
2, 109980, Note_on_c, 0, 69, 0
2, 109980, Note_on_c, 0, 62, 0
2, 109980, Note_on_c, 0, 53, 0
2, 109980, Note_on_c, 0, 71, 110
2, 109980, Note_on_c, 0, 61, 56
2, 109980, Note_on_c, 0, 52, 85
2, 110070, Note_on_c, 0, 71, 0
2, 110070, Note_on_c, 0, 71, 82
2, 110114, Note_on_c, 0, 71, 0
2, 110160, Note_on_c, 0, 52, 0
2, 110160, Note_on_c, 0, 61, 0
2, 110160, Note_on_c, 0, 42, 0
2, 110160, Note_on_c, 0, 71, 81
2, 110160, Note_on_c, 0, 60, 59
2, 110160, Note_on_c, 0, 51, 87
2, 110160, Note_on_c, 0, 43, 109
2, 110204, Note_on_c, 0, 71, 0
2, 110250, Note_on_c, 0, 71, 86
2, 110294, Note_on_c, 0, 71, 0
2, 110340, Note_on_c, 0, 60, 0
2, 110340, Note_on_c, 0, 51, 0
2, 110340, Note_on_c, 0, 71, 88
2, 110340, Note_on_c, 0, 59, 59
2, 110340, Note_on_c, 0, 50, 86
2, 110429, Note_on_c, 0, 71, 0
2, 110520, Note_on_c, 0, 43, 0
2, 110520, Note_on_c, 0, 59, 0
2, 110520, Note_on_c, 0, 50, 0
2, 110520, Note_on_c, 0, 67, 104
2, 110520, Note_on_c, 0, 74, 104
2, 110520, Note_on_c, 0, 66, 65
2, 110520, Note_on_c, 0, 52, 60
2, 110610, Note_on_c, 0, 52, 0
2, 110610, Note_on_c, 0, 54, 73
2, 110700, Note_on_c, 0, 54, 0
2, 110700, Note_on_c, 0, 66, 0
2, 110700, Note_on_c, 0, 65, 63
2, 110700, Note_on_c, 0, 55, 86
2, 110790, Note_on_c, 0, 55, 0
2, 110790, Note_on_c, 0, 55, 84
2, 110834, Note_on_c, 0, 55, 0
2, 110837, Note_on_c, 0, 74, 0
2, 110837, Note_on_c, 0, 67, 0
2, 110880, Note_on_c, 0, 65, 0
2, 110880, Note_on_c, 0, 67, 89
2, 110880, Note_on_c, 0, 72, 89
2, 110880, Note_on_c, 0, 63, 58
2, 110880, Note_on_c, 0, 55, 85
2, 110924, Note_on_c, 0, 55, 0
2, 110970, Note_on_c, 0, 55, 89
2, 111014, Note_on_c, 0, 55, 0
2, 111038, Note_on_c, 0, 72, 0
2, 111060, Note_on_c, 0, 63, 0
2, 111060, Note_on_c, 0, 71, 79
2, 111060, Note_on_c, 0, 62, 59
2, 111060, Note_on_c, 0, 55, 95
2, 111218, Note_on_c, 0, 55, 0
2, 111240, Note_on_c, 0, 67, 0
2, 111240, Note_on_c, 0, 71, 0
2, 111240, Note_on_c, 0, 62, 0
2, 111240, Note_on_c, 0, 69, 79
2, 111240, Note_on_c, 0, 60, 64
2, 111240, Note_on_c, 0, 64, 64
2, 111240, Note_on_c, 0, 43, 60
2, 111330, Note_on_c, 0, 43, 0
2, 111330, Note_on_c, 0, 69, 0
2, 111330, Note_on_c, 0, 67, 79
2, 111330, Note_on_c, 0, 45, 73
2, 111420, Note_on_c, 0, 45, 0
2, 111420, Note_on_c, 0, 60, 0
2, 111420, Note_on_c, 0, 64, 0
2, 111420, Note_on_c, 0, 67, 0
2, 111420, Note_on_c, 0, 66, 76
2, 111420, Note_on_c, 0, 57, 61
2, 111420, Note_on_c, 0, 63, 61
2, 111420, Note_on_c, 0, 47, 86
2, 111510, Note_on_c, 0, 47, 0
2, 111510, Note_on_c, 0, 47, 84
2, 111554, Note_on_c, 0, 47, 0
2, 111600, Note_on_c, 0, 63, 0
2, 111600, Note_on_c, 0, 57, 0
2, 111600, Note_on_c, 0, 66, 0
2, 111600, Note_on_c, 0, 65, 80
2, 111600, Note_on_c, 0, 56, 59
2, 111600, Note_on_c, 0, 62, 59
2, 111600, Note_on_c, 0, 47, 92
2, 111644, Note_on_c, 0, 47, 0
2, 111689, Note_on_c, 0, 65, 0
2, 111690, Note_on_c, 0, 47, 81
2, 111734, Note_on_c, 0, 47, 0
2, 111780, Note_on_c, 0, 62, 0
2, 111780, Note_on_c, 0, 56, 0
2, 111780, Note_on_c, 0, 64, 80
2, 111780, Note_on_c, 0, 55, 60
2, 111780, Note_on_c, 0, 60, 60
2, 111780, Note_on_c, 0, 48, 89
2, 111870, Note_on_c, 0, 64, 0
2, 111870, Note_on_c, 0, 66, 88
2, 111960, Note_on_c, 0, 66, 0
2, 111960, Note_on_c, 0, 48, 0
2, 111960, Note_on_c, 0, 60, 0
2, 111960, Note_on_c, 0, 55, 0
2, 111960, Note_on_c, 0, 67, 83
2, 111960, Note_on_c, 0, 62, 63
2, 111960, Note_on_c, 0, 47, 96
2, 111960, Note_on_c, 0, 55, 96
2, 112050, Note_on_c, 0, 67, 0
2, 112050, Note_on_c, 0, 67, 82
2, 112140, Note_on_c, 0, 67, 0
2, 112140, Note_on_c, 0, 55, 0
2, 112140, Note_on_c, 0, 47, 0
2, 112140, Note_on_c, 0, 62, 0
2, 112140, Note_on_c, 0, 67, 83
2, 112140, Note_on_c, 0, 60, 56
2, 112140, Note_on_c, 0, 45, 83
2, 112140, Note_on_c, 0, 55, 83
2, 112320, Note_on_c, 0, 55, 0
2, 112320, Note_on_c, 0, 67, 0
2, 112320, Note_on_c, 0, 60, 0
2, 112320, Note_on_c, 0, 45, 0
2, 112320, Note_on_c, 0, 67, 88
2, 112320, Note_on_c, 0, 59, 57
2, 112320, Note_on_c, 0, 43, 84
2, 112320, Note_on_c, 0, 47, 84
2, 112320, Note_on_c, 0, 55, 84
2, 112410, Note_on_c, 0, 67, 0
2, 112410, Note_on_c, 0, 69, 88
2, 112500, Note_on_c, 0, 69, 0
2, 112500, Note_on_c, 0, 55, 0
2, 112500, Note_on_c, 0, 59, 0
2, 112500, Note_on_c, 0, 43, 0
2, 112500, Note_on_c, 0, 47, 0
2, 112500, Note_on_c, 0, 71, 87
2, 112500, Note_on_c, 0, 59, 60
2, 112500, Note_on_c, 0, 66, 60
2, 112500, Note_on_c, 0, 42, 85
2, 112500, Note_on_c, 0, 45, 85
2, 112500, Note_on_c, 0, 54, 85
2, 112590, Note_on_c, 0, 71, 0
2, 112590, Note_on_c, 0, 71, 84
2, 112680, Note_on_c, 0, 71, 0
2, 112680, Note_on_c, 0, 54, 0
2, 112680, Note_on_c, 0, 42, 0
2, 112680, Note_on_c, 0, 59, 0
2, 112680, Note_on_c, 0, 66, 0
2, 112680, Note_on_c, 0, 45, 0
2, 112680, Note_on_c, 0, 71, 82
2, 112680, Note_on_c, 0, 59, 63
2, 112680, Note_on_c, 0, 64, 63
2, 112680, Note_on_c, 0, 40, 83
2, 112680, Note_on_c, 0, 43, 83
2, 112680, Note_on_c, 0, 52, 83
2, 112770, Note_on_c, 0, 71, 0
2, 112770, Note_on_c, 0, 71, 83
2, 112860, Note_on_c, 0, 71, 0
2, 112860, Note_on_c, 0, 52, 0
2, 112860, Note_on_c, 0, 40, 0
2, 112860, Note_on_c, 0, 59, 0
2, 112860, Note_on_c, 0, 64, 0
2, 112860, Note_on_c, 0, 43, 0
2, 112860, Note_on_c, 0, 71, 87
2, 112860, Note_on_c, 0, 59, 65
2, 112860, Note_on_c, 0, 62, 65
2, 112860, Note_on_c, 0, 38, 86
2, 112860, Note_on_c, 0, 42, 86
2, 112860, Note_on_c, 0, 50, 86
2, 113040, Note_on_c, 0, 50, 0
2, 113040, Note_on_c, 0, 59, 0
2, 113040, Note_on_c, 0, 62, 0
2, 113040, Note_on_c, 0, 71, 0
2, 113040, Note_on_c, 0, 42, 0
2, 113040, Note_on_c, 0, 38, 0
2, 113040, Note_on_c, 0, 73, 90
2, 113040, Note_on_c, 0, 64, 67
2, 113040, Note_on_c, 0, 37, 84
2, 113040, Note_on_c, 0, 40, 84
2, 113040, Note_on_c, 0, 49, 84
2, 113130, Note_on_c, 0, 73, 0
2, 113130, Note_on_c, 0, 74, 90
2, 113220, Note_on_c, 0, 74, 0
2, 113220, Note_on_c, 0, 49, 0
2, 113220, Note_on_c, 0, 64, 0
2, 113220, Note_on_c, 0, 37, 0
2, 113220, Note_on_c, 0, 40, 0
2, 113220, Note_on_c, 0, 76, 116
2, 113220, Note_on_c, 0, 69, 70
2, 113220, Note_on_c, 0, 64, 127
2, 113220, Note_on_c, 0, 54, 126
2, 113220, Note_on_c, 0, 57, 126
2, 113310, Note_on_c, 0, 76, 0
2, 113310, Note_on_c, 0, 76, 82
2, 113400, Note_on_c, 0, 76, 0
2, 113400, Note_on_c, 0, 57, 0
2, 113400, Note_on_c, 0, 69, 0
2, 113400, Note_on_c, 0, 54, 0
2, 113400, Note_on_c, 0, 76, 85
2, 113400, Note_on_c, 0, 67, 72
2, 113400, Note_on_c, 0, 52, 126
2, 113400, Note_on_c, 0, 55, 126
2, 113472, Note_on_c, 0, 76, 0
2, 113490, Note_on_c, 0, 78, 86
2, 113521, Note_on_c, 0, 64, 0
2, 113544, Note_on_c, 0, 55, 0
2, 113544, Note_on_c, 0, 52, 0
2, 113544, Note_on_c, 0, 67, 0
2, 113580, Note_on_c, 0, 78, 0
2, 113580, Note_on_c, 0, 79, 112
2, 113580, Note_on_c, 0, 72, 74
2, 113580, Note_on_c, 0, 67, 120
2, 113580, Note_on_c, 0, 57, 126
2, 113580, Note_on_c, 0, 60, 126
2, 113670, Note_on_c, 0, 79, 0
2, 113670, Note_on_c, 0, 79, 88
2, 113760, Note_on_c, 0, 79, 0
2, 113760, Note_on_c, 0, 60, 0
2, 113760, Note_on_c, 0, 72, 0
2, 113760, Note_on_c, 0, 57, 0
2, 113760, Note_on_c, 0, 79, 84
2, 113760, Note_on_c, 0, 71, 77
2, 113760, Note_on_c, 0, 55, 126
2, 113760, Note_on_c, 0, 59, 126
2, 113832, Note_on_c, 0, 79, 0
2, 113850, Note_on_c, 0, 81, 88
2, 113881, Note_on_c, 0, 67, 0
2, 113904, Note_on_c, 0, 59, 0
2, 113904, Note_on_c, 0, 55, 0
2, 113904, Note_on_c, 0, 71, 0
2, 113940, Note_on_c, 0, 81, 0
2, 113940, Note_on_c, 0, 83, 114
2, 113940, Note_on_c, 0, 76, 79
2, 113940, Note_on_c, 0, 71, 127
2, 113940, Note_on_c, 0, 61, 126
2, 113940, Note_on_c, 0, 64, 126
2, 114030, Note_on_c, 0, 83, 0
2, 114030, Note_on_c, 0, 83, 84
2, 114120, Note_on_c, 0, 83, 0
2, 114120, Note_on_c, 0, 64, 0
2, 114120, Note_on_c, 0, 76, 0
2, 114120, Note_on_c, 0, 61, 0
2, 114120, Note_on_c, 0, 83, 86
2, 114120, Note_on_c, 0, 74, 81
2, 114120, Note_on_c, 0, 59, 120
2, 114120, Note_on_c, 0, 62, 120
2, 114192, Note_on_c, 0, 83, 0
2, 114210, Note_on_c, 0, 85, 88
2, 114241, Note_on_c, 0, 71, 0
2, 114264, Note_on_c, 0, 62, 0
2, 114264, Note_on_c, 0, 59, 0
2, 114264, Note_on_c, 0, 74, 0
2, 114300, Note_on_c, 0, 85, 0
2, 114300, Note_on_c, 0, 86, 114
2, 114300, Note_on_c, 0, 79, 84
2, 114300, Note_on_c, 0, 74, 122
2, 114300, Note_on_c, 0, 64, 126
2, 114300, Note_on_c, 0, 67, 126
2, 114390, Note_on_c, 0, 86, 0
2, 114390, Note_on_c, 0, 86, 86
2, 114480, Note_on_c, 0, 86, 0
2, 114480, Note_on_c, 0, 67, 0
2, 114480, Note_on_c, 0, 79, 0
2, 114480, Note_on_c, 0, 64, 0
2, 114480, Note_on_c, 0, 86, 86
2, 114480, Note_on_c, 0, 81, 86
2, 114480, Note_on_c, 0, 66, 126
2, 114480, Note_on_c, 0, 69, 126
2, 114552, Note_on_c, 0, 86, 0
2, 114570, Note_on_c, 0, 90, 122
2, 114601, Note_on_c, 0, 74, 0
2, 114624, Note_on_c, 0, 69, 0
2, 114624, Note_on_c, 0, 66, 0
2, 114624, Note_on_c, 0, 81, 0
2, 114660, Note_on_c, 0, 90, 0
2, 114660, Note_on_c, 0, 83, 121
2, 114660, Note_on_c, 0, 86, 121
2, 114660, Note_on_c, 0, 95, 121
2, 114660, Note_on_c, 0, 59, 111
2, 114660, Note_on_c, 0, 66, 111
2, 114660, Note_on_c, 0, 74, 111
2, 114840, Note_on_c, 0, 74, 0
2, 114840, Note_on_c, 0, 86, 0
2, 114840, Note_on_c, 0, 95, 0
2, 114840, Note_on_c, 0, 83, 0
2, 114840, Note_on_c, 0, 66, 0
2, 114840, Note_on_c, 0, 59, 0
2, 114840, Note_on_c, 0, 88, 83
2, 114840, Note_on_c, 0, 93, 83
2, 114840, Note_on_c, 0, 61, 78
2, 114840, Note_on_c, 0, 64, 78
2, 114840, Note_on_c, 0, 73, 78
2, 114884, Note_on_c, 0, 93, 0
2, 114884, Note_on_c, 0, 88, 0
2, 114930, Note_on_c, 0, 81, 74
2, 114930, Note_on_c, 0, 91, 74
2, 114974, Note_on_c, 0, 91, 0
2, 114974, Note_on_c, 0, 81, 0
2, 115020, Note_on_c, 0, 73, 0
2, 115020, Note_on_c, 0, 61, 0
2, 115020, Note_on_c, 0, 64, 0
2, 115020, Note_on_c, 0, 86, 75
2, 115020, Note_on_c, 0, 90, 75
2, 115020, Note_on_c, 0, 62, 88
2, 115020, Note_on_c, 0, 66, 88
2, 115020, Note_on_c, 0, 74, 88
2, 115064, Note_on_c, 0, 90, 0
2, 115064, Note_on_c, 0, 86, 0
2, 115110, Note_on_c, 0, 79, 76
2, 115110, Note_on_c, 0, 88, 76
2, 115154, Note_on_c, 0, 88, 0
2, 115154, Note_on_c, 0, 79, 0
2, 115200, Note_on_c, 0, 74, 0
2, 115200, Note_on_c, 0, 62, 0
2, 115200, Note_on_c, 0, 66, 0
2, 115200, Note_on_c, 0, 81, 78
2, 115200, Note_on_c, 0, 86, 78
2, 115200, Note_on_c, 0, 54, 69
2, 115200, Note_on_c, 0, 57, 69
2, 115200, Note_on_c, 0, 66, 69
2, 115244, Note_on_c, 0, 86, 0
2, 115244, Note_on_c, 0, 81, 0
2, 115290, Note_on_c, 0, 74, 83
2, 115290, Note_on_c, 0, 85, 83
2, 115334, Note_on_c, 0, 85, 0
2, 115334, Note_on_c, 0, 74, 0
2, 115380, Note_on_c, 0, 66, 0
2, 115380, Note_on_c, 0, 54, 0
2, 115380, Note_on_c, 0, 57, 0
2, 115380, Note_on_c, 0, 79, 106
2, 115380, Note_on_c, 0, 83, 106
2, 115380, Note_on_c, 0, 55, 120
2, 115380, Note_on_c, 0, 59, 120
2, 115380, Note_on_c, 0, 67, 120
2, 115560, Note_on_c, 0, 67, 0
2, 115560, Note_on_c, 0, 55, 0
2, 115560, Note_on_c, 0, 79, 0
2, 115560, Note_on_c, 0, 83, 0
2, 115560, Note_on_c, 0, 59, 0
2, 115560, Note_on_c, 0, 76, 80
2, 115560, Note_on_c, 0, 81, 80
2, 115560, Note_on_c, 0, 57, 92
2, 115560, Note_on_c, 0, 61, 92
2, 115560, Note_on_c, 0, 69, 92
2, 115604, Note_on_c, 0, 81, 0
2, 115604, Note_on_c, 0, 76, 0
2, 115650, Note_on_c, 0, 69, 74
2, 115650, Note_on_c, 0, 79, 74
2, 115694, Note_on_c, 0, 79, 0
2, 115694, Note_on_c, 0, 69, 0
2, 115740, Note_on_c, 0, 61, 0
2, 115740, Note_on_c, 0, 57, 0
2, 115740, Note_on_c, 0, 69, 0
2, 115740, Note_on_c, 0, 74, 79
2, 115740, Note_on_c, 0, 78, 79
2, 115740, Note_on_c, 0, 59, 94
2, 115740, Note_on_c, 0, 62, 94
2, 115740, Note_on_c, 0, 71, 94
2, 115784, Note_on_c, 0, 78, 0
2, 115784, Note_on_c, 0, 74, 0
2, 115830, Note_on_c, 0, 67, 82
2, 115830, Note_on_c, 0, 76, 82
2, 115874, Note_on_c, 0, 76, 0
2, 115874, Note_on_c, 0, 67, 0
2, 115920, Note_on_c, 0, 71, 0
2, 115920, Note_on_c, 0, 59, 0
2, 115920, Note_on_c, 0, 62, 0
2, 115920, Note_on_c, 0, 69, 76
2, 115920, Note_on_c, 0, 74, 76
2, 115920, Note_on_c, 0, 50, 66
2, 115920, Note_on_c, 0, 54, 66
2, 115920, Note_on_c, 0, 62, 66
2, 115964, Note_on_c, 0, 74, 0
2, 115964, Note_on_c, 0, 69, 0
2, 116010, Note_on_c, 0, 62, 80
2, 116010, Note_on_c, 0, 73, 80
2, 116054, Note_on_c, 0, 73, 0
2, 116054, Note_on_c, 0, 62, 0
2, 116100, Note_on_c, 0, 54, 0
2, 116100, Note_on_c, 0, 50, 0
2, 116100, Note_on_c, 0, 62, 0
2, 116100, Note_on_c, 0, 67, 102
2, 116100, Note_on_c, 0, 71, 102
2, 116100, Note_on_c, 0, 52, 110
2, 116100, Note_on_c, 0, 55, 110
2, 116100, Note_on_c, 0, 64, 110
2, 116280, Note_on_c, 0, 64, 0
2, 116280, Note_on_c, 0, 52, 0
2, 116280, Note_on_c, 0, 67, 0
2, 116280, Note_on_c, 0, 71, 0
2, 116280, Note_on_c, 0, 55, 0
2, 116280, Note_on_c, 0, 62, 79
2, 116280, Note_on_c, 0, 69, 79
2, 116280, Note_on_c, 0, 54, 72
2, 116324, Note_on_c, 0, 69, 0
2, 116324, Note_on_c, 0, 62, 0
2, 116370, Note_on_c, 0, 57, 77
2, 116370, Note_on_c, 0, 67, 77
2, 116414, Note_on_c, 0, 67, 0
2, 116414, Note_on_c, 0, 57, 0
2, 116460, Note_on_c, 0, 54, 0
2, 116460, Note_on_c, 0, 62, 76
2, 116460, Note_on_c, 0, 66, 76
2, 116460, Note_on_c, 0, 55, 83
2, 116504, Note_on_c, 0, 66, 0
2, 116504, Note_on_c, 0, 62, 0
2, 116550, Note_on_c, 0, 59, 77
2, 116550, Note_on_c, 0, 64, 77
2, 116594, Note_on_c, 0, 64, 0
2, 116594, Note_on_c, 0, 59, 0
2, 116640, Note_on_c, 0, 55, 0
2, 116640, Note_on_c, 0, 59, 78
2, 116640, Note_on_c, 0, 62, 78
2, 116640, Note_on_c, 0, 35, 75
2, 116684, Note_on_c, 0, 62, 0
2, 116684, Note_on_c, 0, 59, 0
2, 116730, Note_on_c, 0, 54, 81
2, 116730, Note_on_c, 0, 61, 81
2, 116774, Note_on_c, 0, 61, 0
2, 116774, Note_on_c, 0, 54, 0
2, 116820, Note_on_c, 0, 35, 0
2, 116820, Note_on_c, 0, 55, 107
2, 116820, Note_on_c, 0, 59, 107
2, 116820, Note_on_c, 0, 37, 111
2, 117000, Note_on_c, 0, 37, 0
2, 117000, Note_on_c, 0, 59, 0
2, 117000, Note_on_c, 0, 55, 0
2, 117000, Note_on_c, 0, 54, 84
2, 117000, Note_on_c, 0, 57, 84
2, 117000, Note_on_c, 0, 38, 90
2, 117044, Note_on_c, 0, 57, 0
2, 117044, Note_on_c, 0, 54, 0
2, 117089, Note_on_c, 0, 38, 0
2, 117090, Note_on_c, 0, 47, 81
2, 117090, Note_on_c, 0, 55, 81
2, 117134, Note_on_c, 0, 55, 0
2, 117134, Note_on_c, 0, 47, 0
2, 117180, Note_on_c, 0, 54, 80
2, 117180, Note_on_c, 0, 40, 90
2, 117224, Note_on_c, 0, 54, 0
2, 117269, Note_on_c, 0, 40, 0
2, 117270, Note_on_c, 0, 52, 83
2, 117314, Note_on_c, 0, 52, 0
2, 117360, Note_on_c, 0, 50, 82
2, 117360, Note_on_c, 0, 42, 88
2, 117404, Note_on_c, 0, 50, 0
2, 117449, Note_on_c, 0, 42, 0
2, 117450, Note_on_c, 0, 49, 85
2, 117494, Note_on_c, 0, 49, 0
2, 117540, Note_on_c, 0, 35, 127
2, 117540, Note_on_c, 0, 47, 127
2, 117720, Note_on_c, 0, 76, 101
2, 117720, Note_on_c, 0, 67, 79
2, 117810, Note_on_c, 0, 67, 0
2, 117810, Note_on_c, 0, 76, 0
2, 117810, Note_on_c, 0, 85, 126
2, 117810, Note_on_c, 0, 69, 90
2, 117900, Note_on_c, 0, 69, 0
2, 117900, Note_on_c, 0, 85, 0
2, 117900, Note_on_c, 0, 86, 123
2, 117900, Note_on_c, 0, 71, 93
2, 117990, Note_on_c, 0, 71, 0
2, 117990, Note_on_c, 0, 86, 0
2, 117990, Note_on_c, 0, 78, 92
2, 117990, Note_on_c, 0, 71, 83
2, 118080, Note_on_c, 0, 71, 0
2, 118080, Note_on_c, 0, 78, 0
2, 118080, Note_on_c, 0, 79, 114
2, 118080, Note_on_c, 0, 71, 86
2, 118170, Note_on_c, 0, 71, 0
2, 118170, Note_on_c, 0, 79, 0
2, 118170, Note_on_c, 0, 88, 126
2, 118170, Note_on_c, 0, 71, 83
2, 118260, Note_on_c, 0, 71, 0
2, 118260, Note_on_c, 0, 88, 0
2, 118260, Note_on_c, 0, 86, 113
2, 118260, Note_on_c, 0, 71, 111
2, 118350, Note_on_c, 0, 86, 0
2, 118350, Note_on_c, 0, 78, 87
2, 118440, Note_on_c, 0, 78, 0
2, 118440, Note_on_c, 0, 71, 0
2, 118440, Note_on_c, 0, 76, 105
2, 118440, Note_on_c, 0, 69, 77
2, 118530, Note_on_c, 0, 69, 0
2, 118530, Note_on_c, 0, 76, 0
2, 118530, Note_on_c, 0, 85, 126
2, 118530, Note_on_c, 0, 67, 75
2, 118620, Note_on_c, 0, 67, 0
2, 118620, Note_on_c, 0, 85, 0
2, 118620, Note_on_c, 0, 83, 109
2, 118620, Note_on_c, 0, 66, 84
2, 118710, Note_on_c, 0, 66, 0
2, 118710, Note_on_c, 0, 83, 0
2, 118710, Note_on_c, 0, 74, 91
2, 118710, Note_on_c, 0, 64, 75
2, 118800, Note_on_c, 0, 64, 0
2, 118800, Note_on_c, 0, 74, 0
2, 118800, Note_on_c, 0, 73, 103
2, 118800, Note_on_c, 0, 62, 81
2, 118890, Note_on_c, 0, 62, 0
2, 118890, Note_on_c, 0, 73, 0
2, 118890, Note_on_c, 0, 82, 126
2, 118890, Note_on_c, 0, 61, 80
2, 118980, Note_on_c, 0, 61, 0
2, 118980, Note_on_c, 0, 35, 0
2, 118980, Note_on_c, 0, 47, 0
2, 118980, Note_on_c, 0, 82, 0
2, 118980, Note_on_c, 0, 83, 119
2, 118980, Note_on_c, 0, 59, 110
2, 119070, Note_on_c, 0, 83, 0
2, 119070, Note_on_c, 0, 74, 87
2, 119160, Note_on_c, 0, 74, 0
2, 119160, Note_on_c, 0, 59, 0
2, 119160, Note_on_c, 0, 73, 106
2, 119160, Note_on_c, 0, 71, 73
2, 119160, Note_on_c, 0, 55, 82
2, 119250, Note_on_c, 0, 55, 0
2, 119250, Note_on_c, 0, 71, 0
2, 119250, Note_on_c, 0, 71, 83
2, 119250, Note_on_c, 0, 64, 101
2, 119340, Note_on_c, 0, 64, 0
2, 119340, Note_on_c, 0, 71, 0
2, 119340, Note_on_c, 0, 73, 0
2, 119340, Note_on_c, 0, 74, 120
2, 119340, Note_on_c, 0, 71, 86
2, 119340, Note_on_c, 0, 66, 92
2, 119430, Note_on_c, 0, 66, 0
2, 119430, Note_on_c, 0, 71, 0
2, 119430, Note_on_c, 0, 71, 83
2, 119430, Note_on_c, 0, 57, 80
2, 119520, Note_on_c, 0, 57, 0
2, 119520, Note_on_c, 0, 71, 0
2, 119520, Note_on_c, 0, 74, 0
2, 119520, Note_on_c, 0, 76, 119
2, 119520, Note_on_c, 0, 71, 86
2, 119520, Note_on_c, 0, 59, 87
2, 119610, Note_on_c, 0, 59, 0
2, 119610, Note_on_c, 0, 71, 0
2, 119610, Note_on_c, 0, 71, 82
2, 119610, Note_on_c, 0, 67, 103
2, 119700, Note_on_c, 0, 67, 0
2, 119700, Note_on_c, 0, 71, 0
2, 119700, Note_on_c, 0, 76, 0
2, 119700, Note_on_c, 0, 74, 107
2, 119700, Note_on_c, 0, 71, 110
2, 119700, Note_on_c, 0, 66, 83
2, 119790, Note_on_c, 0, 66, 0
2, 119790, Note_on_c, 0, 57, 76
2, 119880, Note_on_c, 0, 57, 0
2, 119880, Note_on_c, 0, 71, 0
2, 119880, Note_on_c, 0, 74, 0
2, 119880, Note_on_c, 0, 73, 107
2, 119880, Note_on_c, 0, 69, 77
2, 119880, Note_on_c, 0, 55, 78
2, 119970, Note_on_c, 0, 55, 0
2, 119970, Note_on_c, 0, 69, 0
2, 119970, Note_on_c, 0, 67, 79
2, 119970, Note_on_c, 0, 64, 104
2, 120060, Note_on_c, 0, 64, 0
2, 120060, Note_on_c, 0, 67, 0
2, 120060, Note_on_c, 0, 73, 0
2, 120060, Note_on_c, 0, 71, 106
2, 120060, Note_on_c, 0, 66, 82
2, 120060, Note_on_c, 0, 62, 85
2, 120150, Note_on_c, 0, 62, 0
2, 120150, Note_on_c, 0, 66, 0
2, 120150, Note_on_c, 0, 64, 83
2, 120150, Note_on_c, 0, 54, 75
2, 120240, Note_on_c, 0, 54, 0
2, 120240, Note_on_c, 0, 64, 0
2, 120240, Note_on_c, 0, 71, 0
2, 120240, Note_on_c, 0, 70, 104
2, 120240, Note_on_c, 0, 62, 76
2, 120240, Note_on_c, 0, 54, 85
2, 120330, Note_on_c, 0, 54, 0
2, 120330, Note_on_c, 0, 62, 0
2, 120330, Note_on_c, 0, 61, 83
2, 120330, Note_on_c, 0, 42, 72
2, 120420, Note_on_c, 0, 42, 0
2, 120420, Note_on_c, 0, 61, 0
2, 120420, Note_on_c, 0, 70, 0
2, 120420, Note_on_c, 0, 59, 99
2, 120420, Note_on_c, 0, 62, 99
2, 120420, Note_on_c, 0, 71, 99
2, 120420, Note_on_c, 0, 47, 96
2, 120510, Note_on_c, 0, 47, 0
2, 120510, Note_on_c, 0, 54, 94
2, 120600, Note_on_c, 0, 54, 0
2, 120600, Note_on_c, 0, 71, 0
2, 120600, Note_on_c, 0, 62, 0
2, 120600, Note_on_c, 0, 59, 0
2, 120600, Note_on_c, 0, 55, 74
2, 120600, Note_on_c, 0, 61, 74
2, 120600, Note_on_c, 0, 35, 79
2, 120600, Note_on_c, 0, 47, 79
2, 120690, Note_on_c, 0, 47, 0
2, 120690, Note_on_c, 0, 55, 0
2, 120690, Note_on_c, 0, 61, 0
2, 120690, Note_on_c, 0, 35, 0
2, 120690, Note_on_c, 0, 64, 100
2, 120690, Note_on_c, 0, 35, 87
2, 120690, Note_on_c, 0, 47, 87
2, 120780, Note_on_c, 0, 47, 0
2, 120780, Note_on_c, 0, 35, 0
2, 120780, Note_on_c, 0, 64, 0
2, 120780, Note_on_c, 0, 63, 105
2, 120780, Note_on_c, 0, 66, 105
2, 120780, Note_on_c, 0, 35, 86
2, 120780, Note_on_c, 0, 47, 86
2, 120870, Note_on_c, 0, 47, 0
2, 120870, Note_on_c, 0, 63, 0
2, 120870, Note_on_c, 0, 66, 0
2, 120870, Note_on_c, 0, 35, 0
2, 120870, Note_on_c, 0, 57, 85
2, 120870, Note_on_c, 0, 35, 84
2, 120870, Note_on_c, 0, 47, 84
2, 120960, Note_on_c, 0, 47, 0
2, 120960, Note_on_c, 0, 35, 0
2, 120960, Note_on_c, 0, 57, 0
2, 120960, Note_on_c, 0, 59, 113
2, 120960, Note_on_c, 0, 64, 113
2, 120960, Note_on_c, 0, 35, 87
2, 120960, Note_on_c, 0, 47, 87
2, 121050, Note_on_c, 0, 47, 0
2, 121050, Note_on_c, 0, 59, 0
2, 121050, Note_on_c, 0, 64, 0
2, 121050, Note_on_c, 0, 35, 0
2, 121050, Note_on_c, 0, 67, 104
2, 121050, Note_on_c, 0, 35, 90
2, 121050, Note_on_c, 0, 47, 90
2, 121140, Note_on_c, 0, 47, 0
2, 121140, Note_on_c, 0, 35, 0
2, 121140, Note_on_c, 0, 67, 0
2, 121140, Note_on_c, 0, 62, 95
2, 121140, Note_on_c, 0, 66, 95
2, 121140, Note_on_c, 0, 35, 112
2, 121140, Note_on_c, 0, 47, 112
2, 121230, Note_on_c, 0, 66, 0
2, 121230, Note_on_c, 0, 62, 0
2, 121230, Note_on_c, 0, 57, 89
2, 121320, Note_on_c, 0, 57, 0
2, 121320, Note_on_c, 0, 35, 0
2, 121320, Note_on_c, 0, 47, 0
2, 121320, Note_on_c, 0, 55, 107
2, 121320, Note_on_c, 0, 60, 107
2, 121320, Note_on_c, 0, 33, 83
2, 121320, Note_on_c, 0, 45, 83
2, 121410, Note_on_c, 0, 45, 0
2, 121410, Note_on_c, 0, 55, 0
2, 121410, Note_on_c, 0, 60, 0
2, 121410, Note_on_c, 0, 33, 0
2, 121410, Note_on_c, 0, 64, 112
2, 121410, Note_on_c, 0, 31, 81
2, 121410, Note_on_c, 0, 43, 81
2, 121500, Note_on_c, 0, 43, 0
2, 121500, Note_on_c, 0, 31, 0
2, 121500, Note_on_c, 0, 64, 0
2, 121500, Note_on_c, 0, 59, 97
2, 121500, Note_on_c, 0, 62, 97
2, 121500, Note_on_c, 0, 30, 80
2, 121500, Note_on_c, 0, 42, 80
2, 121590, Note_on_c, 0, 42, 0
2, 121590, Note_on_c, 0, 59, 0
2, 121590, Note_on_c, 0, 62, 0
2, 121590, Note_on_c, 0, 30, 0
2, 121590, Note_on_c, 0, 54, 84
2, 121590, Note_on_c, 0, 28, 87
2, 121590, Note_on_c, 0, 40, 87
2, 121680, Note_on_c, 0, 40, 0
2, 121680, Note_on_c, 0, 28, 0
2, 121680, Note_on_c, 0, 54, 0
2, 121680, Note_on_c, 0, 52, 101
2, 121680, Note_on_c, 0, 58, 101
2, 121680, Note_on_c, 0, 26, 81
2, 121680, Note_on_c, 0, 38, 81
2, 121770, Note_on_c, 0, 38, 0
2, 121770, Note_on_c, 0, 52, 0
2, 121770, Note_on_c, 0, 58, 0
2, 121770, Note_on_c, 0, 26, 0
2, 121770, Note_on_c, 0, 61, 108
2, 121770, Note_on_c, 0, 25, 86
2, 121770, Note_on_c, 0, 37, 86
2, 121860, Note_on_c, 0, 37, 0
2, 121860, Note_on_c, 0, 25, 0
2, 121860, Note_on_c, 0, 61, 0
2, 121860, Note_on_c, 0, 54, 93
2, 121860, Note_on_c, 0, 59, 93
2, 121860, Note_on_c, 0, 23, 85
2, 121860, Note_on_c, 0, 35, 85
2, 121904, Note_on_c, 0, 59, 0
2, 121904, Note_on_c, 0, 54, 0
2, 121950, Note_on_c, 0, 50, 89
2, 121994, Note_on_c, 0, 50, 0
2, 122040, Note_on_c, 0, 23, 0
2, 122040, Note_on_c, 0, 35, 0
2, 122040, Note_on_c, 0, 46, 91
2, 122084, Note_on_c, 0, 46, 0
2, 122130, Note_on_c, 0, 55, 106
2, 122174, Note_on_c, 0, 55, 0
2, 122220, Note_on_c, 0, 54, 98
2, 122264, Note_on_c, 0, 54, 0
2, 122310, Note_on_c, 0, 45, 87
2, 122354, Note_on_c, 0, 45, 0
2, 122400, Note_on_c, 0, 43, 95
2, 122444, Note_on_c, 0, 43, 0
2, 122490, Note_on_c, 0, 52, 108
2, 122534, Note_on_c, 0, 52, 0
2, 122580, Note_on_c, 0, 50, 96
2, 122624, Note_on_c, 0, 50, 0
2, 122670, Note_on_c, 0, 42, 89
2, 122714, Note_on_c, 0, 42, 0
2, 122760, Note_on_c, 0, 40, 93
2, 122804, Note_on_c, 0, 40, 0
2, 122850, Note_on_c, 0, 49, 106
2, 122894, Note_on_c, 0, 49, 0
2, 122940, Note_on_c, 0, 47, 96
2, 122984, Note_on_c, 0, 47, 0
2, 123030, Note_on_c, 0, 38, 90
2, 123074, Note_on_c, 0, 38, 0
2, 123120, Note_on_c, 0, 37, 96
2, 123164, Note_on_c, 0, 37, 0
2, 123210, Note_on_c, 0, 45, 105
2, 123254, Note_on_c, 0, 45, 0
2, 123300, Note_on_c, 0, 35, 85
2, 123390, Note_on_c, 0, 35, 0
2, 123390, Note_on_c, 0, 47, 99
2, 123480, Note_on_c, 0, 45, 84
2, 123524, Note_on_c, 0, 45, 0
2, 123570, Note_on_c, 0, 43, 81
2, 123614, Note_on_c, 0, 43, 0
2, 123660, Note_on_c, 0, 42, 79
2, 123704, Note_on_c, 0, 42, 0
2, 123750, Note_on_c, 0, 40, 77
2, 123794, Note_on_c, 0, 40, 0
2, 123840, Note_on_c, 0, 38, 74
2, 123884, Note_on_c, 0, 38, 0
2, 123930, Note_on_c, 0, 37, 72
2, 123974, Note_on_c, 0, 37, 0
2, 124020, Note_on_c, 0, 36, 70
2, 124064, Note_on_c, 0, 36, 0
2, 124110, Note_on_c, 0, 35, 67
2, 124200, Note_on_c, 0, 33, 52
2, 124290, Note_on_c, 0, 33, 0
2, 124290, Note_on_c, 0, 31, 53
2, 124380, Note_on_c, 0, 31, 0
2, 124380, Note_on_c, 0, 30, 57
2, 124470, Note_on_c, 0, 30, 0
2, 124470, Note_on_c, 0, 28, 57
2, 124560, Note_on_c, 0, 28, 0
2, 124560, Note_on_c, 0, 26, 55
2, 124650, Note_on_c, 0, 26, 0
2, 124650, Note_on_c, 0, 25, 61
2, 124740, Note_on_c, 0, 25, 0
2, 124740, Note_on_c, 0, 23, 127
2, 125100, Note_on_c, 0, 71, 90
2, 125100, Note_on_c, 0, 74, 90
2, 125100, Note_on_c, 0, 78, 90
2, 125100, Note_on_c, 0, 83, 90
2, 125100, Note_on_c, 0, 54, 93
2, 125100, Note_on_c, 0, 59, 93
2, 125100, Note_on_c, 0, 62, 93
2, 125100, Note_on_c, 0, 66, 93
2, 126180, Note_on_c, 0, 66, 0
2, 126180, Note_on_c, 0, 54, 0
2, 126180, Note_on_c, 0, 23, 0
2, 126180, Note_on_c, 0, 71, 0
2, 126180, Note_on_c, 0, 47, 0
2, 126180, Note_on_c, 0, 74, 0
2, 126180, Note_on_c, 0, 35, 0
2, 126180, Note_on_c, 0, 59, 0
2, 126180, Note_on_c, 0, 83, 0
2, 126180, Note_on_c, 0, 78, 0
2, 126180, Note_on_c, 0, 62, 0
2, 126180, End_track
0, 0, End_of_file
