0, 0, Header, 1, 2, 360
1, 0, Start_track
1, 0, Title_t, "untitled"
1, 0, Time_signature, 4, 2, 24, 8
1, 0, Key_signature, -5, "major"
1, 0, Tempo, 1111111
1, 18000, Tempo, 1153846
1, 18360, Tempo, 1111111
1, 26640, Tempo, 1153846
1, 27000, Tempo, 1200000
1, 27359, Tempo, 1111111
1, 33120, Time_signature, 2, 2, 24, 8
1, 33840, Time_signature, 4, 2, 24, 8
1, 38880, Tempo, 1153846
1, 39240, Tempo, 1200000
1, 39600, Tempo, 1111111
1, 47520, Tempo, 1153846
1, 48060, Tempo, 1200000
1, 48240, Tempo, 1111111
1, 51840, Tempo, 1153846
1, 52200, Tempo, 1200000
1, 52560, Tempo, 1111111
1, 63720, Tempo, 1153846
1, 63840, Tempo, 1200000
1, 63959, Tempo, 1250000
1, 64080, Tempo, 1111111
1, 65880, Tempo, 1153846
1, 66240, Tempo, 1200000
1, 66960, Tempo, 1111111
1, 68760, Tempo, 1153846
1, 69120, Tempo, 1200000
1, 69840, Tempo, 1111111
1, 72720, Tempo, 1153846
1, 73440, Tempo, 1250000
1, 73679, Tempo, 1304348
1, 73920, Tempo, 1428571
1, 74039, Tempo, 1578947
1, 74039, End_track
2, 0, Start_track
2, 0, Title_t, "Piano"
2, 0, Program_c, 0, 0
2, 0, Control_c, 0, 7, 105
2, 0, Control_c, 0, 10, 64
2, 0, Control_c, 0, 91, 60
2, 0, Control_c, 0, 121, 0
2, 0, Control_c, 0, 121, 0
2, 0, Control_c, 0, 91, 60
2, 0, Control_c, 0, 10, 51
2, 0, Control_c, 0, 7, 100
2, 0, Control_c, 0, 64, 127
2, 0, Note_on_c, 0, 53, 53
2, 120, Note_on_c, 0, 53, 0
2, 120, Note_on_c, 0, 44, 52
2, 239, Note_on_c, 0, 44, 0
2, 239, Note_on_c, 0, 37, 50
2, 360, Note_on_c, 0, 37, 0
2, 360, Note_on_c, 0, 44, 63
2, 480, Note_on_c, 0, 44, 0
2, 480, Note_on_c, 0, 37, 60
2, 599, Note_on_c, 0, 37, 0
2, 599, Note_on_c, 0, 44, 62
2, 720, Note_on_c, 0, 44, 0
2, 720, Control_c, 0, 64, 0
2, 720, Control_c, 0, 64, 127
2, 720, Note_on_c, 0, 53, 65
2, 840, Note_on_c, 0, 53, 0
2, 840, Note_on_c, 0, 44, 50
2, 959, Note_on_c, 0, 44, 0
2, 959, Note_on_c, 0, 37, 52
2, 1080, Note_on_c, 0, 37, 0
2, 1080, Note_on_c, 0, 44, 66
2, 1200, Note_on_c, 0, 44, 0
2, 1200, Note_on_c, 0, 37, 57
2, 1319, Note_on_c, 0, 37, 0
2, 1319, Note_on_c, 0, 44, 66
2, 1440, Note_on_c, 0, 44, 0
2, 1440, Control_c, 0, 64, 0
2, 1440, Control_c, 0, 64, 127
2, 1440, Note_on_c, 0, 53, 71
2, 1560, Note_on_c, 0, 53, 0
2, 1560, Note_on_c, 0, 44, 57
2, 1679, Note_on_c, 0, 44, 0
2, 1679, Note_on_c, 0, 37, 53
2, 1800, Note_on_c, 0, 37, 0
2, 1800, Note_on_c, 0, 56, 90
2, 1800, Note_on_c, 0, 44, 62
2, 1920, Note_on_c, 0, 44, 0
2, 1920, Note_on_c, 0, 37, 53
2, 2039, Note_on_c, 0, 37, 0
2, 2039, Note_on_c, 0, 44, 61
2, 2160, Note_on_c, 0, 44, 0
2, 2160, Note_on_c, 0, 58, 86
2, 2160, Note_on_c, 0, 61, 86
2, 2160, Control_c, 0, 64, 0
2, 2160, Control_c, 0, 64, 127
2, 2160, Note_on_c, 0, 54, 67
2, 2280, Note_on_c, 0, 54, 0
2, 2280, Note_on_c, 0, 44, 53
2, 2399, Note_on_c, 0, 44, 0
2, 2399, Note_on_c, 0, 37, 52
2, 2520, Note_on_c, 0, 37, 0
2, 2520, Note_on_c, 0, 44, 68
2, 2634, Note_on_c, 0, 61, 0
2, 2634, Note_on_c, 0, 58, 0
2, 2640, Note_on_c, 0, 44, 0
2, 2640, Note_on_c, 0, 37, 55
2, 2700, Note_on_c, 0, 60, 107
2, 2700, Note_on_c, 0, 65, 107
2, 2759, Note_on_c, 0, 37, 0
2, 2759, Note_on_c, 0, 44, 68
2, 2858, Note_on_c, 0, 65, 0
2, 2858, Note_on_c, 0, 60, 0
2, 2880, Note_on_c, 0, 56, 0
2, 2880, Note_on_c, 0, 44, 0
2, 2880, Note_on_c, 0, 56, 95
2, 2880, Note_on_c, 0, 61, 95
2, 2880, Note_on_c, 0, 65, 95
2, 2880, Control_c, 0, 64, 0
2, 2880, Control_c, 0, 64, 127
2, 2880, Note_on_c, 0, 53, 67
2, 3000, Note_on_c, 0, 53, 0
2, 3000, Note_on_c, 0, 44, 52
2, 3119, Note_on_c, 0, 44, 0
2, 3119, Note_on_c, 0, 37, 54
2, 3240, Note_on_c, 0, 37, 0
2, 3240, Note_on_c, 0, 44, 69
2, 3360, Note_on_c, 0, 44, 0
2, 3360, Note_on_c, 0, 37, 55
2, 3479, Note_on_c, 0, 37, 0
2, 3479, Note_on_c, 0, 44, 68
2, 3600, Note_on_c, 0, 44, 0
2, 3600, Control_c, 0, 64, 0
2, 3600, Control_c, 0, 64, 127
2, 3600, Note_on_c, 0, 53, 66
2, 3720, Note_on_c, 0, 53, 0
2, 3720, Note_on_c, 0, 44, 54
2, 3839, Note_on_c, 0, 44, 0
2, 3839, Note_on_c, 0, 37, 61
2, 3960, Note_on_c, 0, 37, 0
2, 3960, Note_on_c, 0, 44, 63
2, 4080, Note_on_c, 0, 44, 0
2, 4080, Note_on_c, 0, 37, 55
2, 4147, Note_on_c, 0, 65, 0
2, 4147, Note_on_c, 0, 56, 0
2, 4147, Note_on_c, 0, 61, 0
2, 4199, Note_on_c, 0, 37, 0
2, 4199, Control_c, 0, 64, 0
2, 4199, Note_on_c, 0, 44, 68
2, 4320, Note_on_c, 0, 44, 0
2, 4320, Control_c, 0, 64, 127
2, 4320, Note_on_c, 0, 53, 69
2, 4440, Note_on_c, 0, 53, 0
2, 4440, Note_on_c, 0, 44, 60
2, 4559, Note_on_c, 0, 44, 0
2, 4559, Note_on_c, 0, 37, 58
2, 4680, Note_on_c, 0, 37, 0
2, 4680, Note_on_c, 0, 63, 83
2, 4680, Note_on_c, 0, 66, 83
2, 4680, Note_on_c, 0, 44, 63
2, 4800, Note_on_c, 0, 44, 0
2, 4800, Note_on_c, 0, 37, 54
2, 4919, Note_on_c, 0, 37, 0
2, 4919, Note_on_c, 0, 44, 67
2, 4997, Note_on_c, 0, 66, 0
2, 4997, Note_on_c, 0, 63, 0
2, 5040, Note_on_c, 0, 44, 0
2, 5040, Note_on_c, 0, 66, 97
2, 5040, Note_on_c, 0, 70, 97
2, 5040, Note_on_c, 0, 60, 75
2, 5040, Control_c, 0, 64, 0
2, 5040, Control_c, 0, 64, 127
2, 5040, Note_on_c, 0, 51, 66
2, 5160, Note_on_c, 0, 51, 0
2, 5160, Note_on_c, 0, 44, 57
2, 5279, Note_on_c, 0, 44, 0
2, 5279, Note_on_c, 0, 37, 55
2, 5400, Note_on_c, 0, 37, 0
2, 5400, Note_on_c, 0, 44, 64
2, 5520, Note_on_c, 0, 44, 0
2, 5520, Note_on_c, 0, 37, 57
2, 5639, Note_on_c, 0, 37, 0
2, 5639, Note_on_c, 0, 66, 0
2, 5639, Note_on_c, 0, 70, 0
2, 5639, Note_on_c, 0, 65, 89
2, 5639, Note_on_c, 0, 68, 89
2, 5639, Note_on_c, 0, 44, 57
2, 5745, Note_on_c, 0, 68, 0
2, 5745, Note_on_c, 0, 65, 0
2, 5760, Note_on_c, 0, 60, 0
2, 5760, Note_on_c, 0, 44, 0
2, 5760, Note_on_c, 0, 61, 96
2, 5760, Note_on_c, 0, 65, 96
2, 5760, Note_on_c, 0, 68, 96
2, 5760, Control_c, 0, 64, 0
2, 5760, Control_c, 0, 64, 127
2, 5760, Note_on_c, 0, 53, 68
2, 5880, Note_on_c, 0, 53, 0
2, 5880, Note_on_c, 0, 44, 53
2, 5999, Note_on_c, 0, 44, 0
2, 5999, Note_on_c, 0, 37, 59
2, 6120, Note_on_c, 0, 37, 0
2, 6120, Note_on_c, 0, 44, 66
2, 6240, Note_on_c, 0, 44, 0
2, 6240, Note_on_c, 0, 37, 58
2, 6359, Note_on_c, 0, 37, 0
2, 6359, Note_on_c, 0, 44, 65
2, 6480, Note_on_c, 0, 44, 0
2, 6480, Control_c, 0, 64, 0
2, 6480, Control_c, 0, 64, 127
2, 6480, Note_on_c, 0, 53, 67
2, 6600, Note_on_c, 0, 53, 0
2, 6600, Note_on_c, 0, 44, 51
2, 6719, Note_on_c, 0, 44, 0
2, 6719, Note_on_c, 0, 37, 57
2, 6840, Note_on_c, 0, 37, 0
2, 6840, Note_on_c, 0, 44, 62
2, 6960, Note_on_c, 0, 44, 0
2, 6960, Note_on_c, 0, 37, 58
2, 7027, Note_on_c, 0, 68, 0
2, 7027, Note_on_c, 0, 61, 0
2, 7027, Note_on_c, 0, 65, 0
2, 7079, Note_on_c, 0, 37, 0
2, 7079, Control_c, 0, 64, 0
2, 7079, Note_on_c, 0, 44, 64
2, 7200, Note_on_c, 0, 44, 0
2, 7200, Control_c, 0, 64, 127
2, 7200, Note_on_c, 0, 53, 68
2, 7320, Note_on_c, 0, 53, 0
2, 7320, Note_on_c, 0, 44, 49
2, 7439, Note_on_c, 0, 44, 0
2, 7439, Note_on_c, 0, 37, 50
2, 7560, Note_on_c, 0, 37, 0
2, 7560, Note_on_c, 0, 65, 86
2, 7560, Note_on_c, 0, 68, 86
2, 7560, Note_on_c, 0, 44, 59
2, 7680, Note_on_c, 0, 44, 0
2, 7680, Note_on_c, 0, 37, 58
2, 7799, Note_on_c, 0, 37, 0
2, 7799, Note_on_c, 0, 44, 65
2, 7920, Note_on_c, 0, 44, 0
2, 7920, Control_c, 0, 64, 0
2, 7920, Control_c, 0, 64, 127
2, 7920, Note_on_c, 0, 56, 67
2, 8040, Note_on_c, 0, 56, 0
2, 8040, Note_on_c, 0, 44, 52
2, 8159, Note_on_c, 0, 44, 0
2, 8159, Note_on_c, 0, 37, 52
2, 8193, Note_on_c, 0, 68, 0
2, 8193, Note_on_c, 0, 65, 0
2, 8280, Note_on_c, 0, 37, 0
2, 8280, Note_on_c, 0, 63, 92
2, 8280, Note_on_c, 0, 66, 92
2, 8280, Note_on_c, 0, 44, 65
2, 8400, Note_on_c, 0, 44, 0
2, 8400, Note_on_c, 0, 37, 56
2, 8490, Note_on_c, 0, 66, 0
2, 8490, Note_on_c, 0, 63, 0
2, 8519, Note_on_c, 0, 37, 0
2, 8519, Note_on_c, 0, 61, 88
2, 8519, Note_on_c, 0, 65, 88
2, 8519, Note_on_c, 0, 44, 67
2, 8625, Note_on_c, 0, 65, 0
2, 8625, Note_on_c, 0, 61, 0
2, 8640, Note_on_c, 0, 44, 0
2, 8640, Note_on_c, 0, 61, 95
2, 8640, Note_on_c, 0, 65, 95
2, 8640, Control_c, 0, 64, 0
2, 8640, Control_c, 0, 64, 127
2, 8640, Note_on_c, 0, 53, 68
2, 8760, Note_on_c, 0, 53, 0
2, 8760, Note_on_c, 0, 44, 55
2, 8879, Note_on_c, 0, 44, 0
2, 8879, Note_on_c, 0, 37, 55
2, 8957, Note_on_c, 0, 65, 0
2, 8957, Note_on_c, 0, 61, 0
2, 9000, Note_on_c, 0, 37, 0
2, 9000, Note_on_c, 0, 59, 88
2, 9000, Note_on_c, 0, 63, 88
2, 9000, Note_on_c, 0, 44, 61
2, 9120, Note_on_c, 0, 44, 0
2, 9120, Note_on_c, 0, 37, 50
2, 9239, Note_on_c, 0, 37, 0
2, 9239, Note_on_c, 0, 44, 65
2, 9360, Note_on_c, 0, 44, 0
2, 9360, Control_c, 0, 64, 0
2, 9360, Note_on_c, 0, 53, 72
2, 9480, Note_on_c, 0, 53, 0
2, 9480, Note_on_c, 0, 44, 55
2, 9599, Note_on_c, 0, 44, 0
2, 9599, Note_on_c, 0, 37, 59
2, 9633, Note_on_c, 0, 63, 0
2, 9633, Note_on_c, 0, 59, 0
2, 9720, Note_on_c, 0, 37, 0
2, 9720, Note_on_c, 0, 61, 97
2, 9720, Note_on_c, 0, 65, 97
2, 9720, Control_c, 0, 64, 127
2, 9720, Note_on_c, 0, 44, 67
2, 9840, Note_on_c, 0, 44, 0
2, 9840, Note_on_c, 0, 37, 54
2, 9959, Note_on_c, 0, 37, 0
2, 9959, Note_on_c, 0, 44, 66
2, 10037, Note_on_c, 0, 65, 0
2, 10037, Note_on_c, 0, 61, 0
2, 10080, Note_on_c, 0, 44, 0
2, 10080, Control_c, 0, 64, 127
2, 10080, Note_on_c, 0, 58, 88
2, 10080, Note_on_c, 0, 61, 88
2, 10080, Control_c, 0, 64, 0
2, 10080, Note_on_c, 0, 53, 69
2, 10200, Note_on_c, 0, 53, 0
2, 10200, Note_on_c, 0, 46, 53
2, 10238, Note_on_c, 0, 61, 0
2, 10238, Note_on_c, 0, 58, 0
2, 10260, Control_c, 0, 64, 0
2, 10260, Control_c, 0, 64, 127
2, 10260, Note_on_c, 0, 60, 98
2, 10260, Note_on_c, 0, 63, 98
2, 10319, Note_on_c, 0, 46, 0
2, 10319, Note_on_c, 0, 37, 52
2, 10418, Note_on_c, 0, 63, 0
2, 10418, Note_on_c, 0, 60, 0
2, 10440, Note_on_c, 0, 37, 0
2, 10440, Control_c, 0, 64, 0
2, 10440, Note_on_c, 0, 61, 101
2, 10440, Note_on_c, 0, 65, 101
2, 10440, Control_c, 0, 64, 127
2, 10440, Note_on_c, 0, 46, 68
2, 10560, Note_on_c, 0, 46, 0
2, 10560, Note_on_c, 0, 37, 54
2, 10679, Note_on_c, 0, 37, 0
2, 10679, Note_on_c, 0, 46, 65
2, 10800, Note_on_c, 0, 46, 0
2, 10800, Control_c, 0, 64, 0
2, 10800, Note_on_c, 0, 53, 66
2, 10920, Note_on_c, 0, 53, 0
2, 10920, Note_on_c, 0, 46, 58
2, 11039, Note_on_c, 0, 46, 0
2, 11039, Note_on_c, 0, 37, 53
2, 11160, Note_on_c, 0, 37, 0
2, 11160, Control_c, 0, 64, 127
2, 11160, Note_on_c, 0, 46, 67
2, 11280, Note_on_c, 0, 46, 0
2, 11280, Note_on_c, 0, 37, 57
2, 11389, Note_on_c, 0, 65, 0
2, 11389, Note_on_c, 0, 61, 0
2, 11399, Note_on_c, 0, 37, 0
2, 11399, Note_on_c, 0, 46, 63
2, 11520, Note_on_c, 0, 46, 0
2, 11520, Control_c, 0, 64, 0
2, 11520, Control_c, 0, 64, 127
2, 11520, Note_on_c, 0, 54, 69
2, 11640, Note_on_c, 0, 54, 0
2, 11640, Note_on_c, 0, 46, 58
2, 11759, Note_on_c, 0, 46, 0
2, 11759, Note_on_c, 0, 37, 53
2, 11880, Note_on_c, 0, 37, 0
2, 11880, Note_on_c, 0, 61, 87
2, 11880, Note_on_c, 0, 58, 55
2, 11880, Control_c, 0, 64, 0
2, 11880, Control_c, 0, 64, 127
2, 11880, Note_on_c, 0, 46, 71
2, 12000, Note_on_c, 0, 46, 0
2, 12000, Note_on_c, 0, 37, 54
2, 12119, Note_on_c, 0, 37, 0
2, 12119, Note_on_c, 0, 46, 65
2, 12197, Note_on_c, 0, 61, 0
2, 12240, Note_on_c, 0, 46, 0
2, 12240, Note_on_c, 0, 58, 0
2, 12240, Note_on_c, 0, 63, 97
2, 12240, Note_on_c, 0, 59, 57
2, 12240, Control_c, 0, 64, 0
2, 12240, Control_c, 0, 64, 127
2, 12240, Note_on_c, 0, 54, 70
2, 12360, Note_on_c, 0, 54, 0
2, 12360, Note_on_c, 0, 45, 56
2, 12479, Note_on_c, 0, 45, 0
2, 12479, Note_on_c, 0, 37, 56
2, 12600, Note_on_c, 0, 37, 0
2, 12600, Note_on_c, 0, 59, 0
2, 12600, Note_on_c, 0, 60, 61
2, 12600, Control_c, 0, 64, 0
2, 12600, Control_c, 0, 64, 127
2, 12600, Note_on_c, 0, 44, 62
2, 12720, Note_on_c, 0, 44, 0
2, 12720, Note_on_c, 0, 37, 55
2, 12839, Note_on_c, 0, 37, 0
2, 12839, Note_on_c, 0, 63, 0
2, 12839, Note_on_c, 0, 61, 89
2, 12839, Control_c, 0, 64, 0
2, 12839, Note_on_c, 0, 44, 62
2, 12945, Note_on_c, 0, 61, 0
2, 12960, Note_on_c, 0, 44, 0
2, 12960, Note_on_c, 0, 60, 0
2, 12960, Note_on_c, 0, 61, 70
2, 12960, Control_c, 0, 64, 127
2, 12960, Note_on_c, 0, 53, 68
2, 13080, Note_on_c, 0, 53, 0
2, 13080, Note_on_c, 0, 44, 57
2, 13199, Note_on_c, 0, 44, 0
2, 13199, Note_on_c, 0, 37, 57
2, 13277, Note_on_c, 0, 61, 0
2, 13320, Note_on_c, 0, 37, 0
2, 13320, Note_on_c, 0, 60, 70
2, 13320, Control_c, 0, 64, 0
2, 13320, Control_c, 0, 64, 127
2, 13320, Note_on_c, 0, 44, 63
2, 13440, Note_on_c, 0, 44, 0
2, 13440, Note_on_c, 0, 37, 54
2, 13559, Note_on_c, 0, 37, 0
2, 13559, Note_on_c, 0, 44, 65
2, 13680, Note_on_c, 0, 44, 0
2, 13680, Control_c, 0, 64, 0
2, 13680, Control_c, 0, 64, 127
2, 13680, Note_on_c, 0, 52, 66
2, 13800, Note_on_c, 0, 52, 0
2, 13800, Note_on_c, 0, 44, 57
2, 13919, Note_on_c, 0, 44, 0
2, 13919, Note_on_c, 0, 37, 59
2, 13953, Note_on_c, 0, 60, 0
2, 14040, Note_on_c, 0, 37, 0
2, 14040, Note_on_c, 0, 58, 76
2, 14040, Control_c, 0, 64, 0
2, 14040, Control_c, 0, 64, 127
2, 14040, Note_on_c, 0, 44, 63
2, 14160, Note_on_c, 0, 44, 0
2, 14160, Note_on_c, 0, 37, 54
2, 14279, Note_on_c, 0, 37, 0
2, 14279, Note_on_c, 0, 44, 65
2, 14400, Note_on_c, 0, 44, 0
2, 14400, Control_c, 0, 64, 0
2, 14400, Control_c, 0, 64, 127
2, 14400, Note_on_c, 0, 53, 67
2, 14520, Note_on_c, 0, 53, 0
2, 14520, Note_on_c, 0, 44, 57
2, 14639, Note_on_c, 0, 44, 0
2, 14639, Note_on_c, 0, 37, 54
2, 14760, Note_on_c, 0, 37, 0
2, 14760, Note_on_c, 0, 58, 0
2, 14760, Note_on_c, 0, 56, 68
2, 14760, Control_c, 0, 64, 0
2, 14760, Control_c, 0, 64, 127
2, 14760, Note_on_c, 0, 44, 66
2, 14880, Note_on_c, 0, 44, 0
2, 14880, Note_on_c, 0, 37, 56
2, 14999, Note_on_c, 0, 37, 0
2, 14999, Note_on_c, 0, 44, 62
2, 15120, Note_on_c, 0, 44, 0
2, 15120, Note_on_c, 0, 58, 60
2, 15120, Note_on_c, 0, 61, 60
2, 15120, Control_c, 0, 64, 0
2, 15120, Control_c, 0, 64, 127
2, 15120, Note_on_c, 0, 54, 68
2, 15240, Note_on_c, 0, 54, 0
2, 15240, Note_on_c, 0, 44, 60
2, 15359, Note_on_c, 0, 44, 0
2, 15359, Note_on_c, 0, 37, 53
2, 15480, Note_on_c, 0, 37, 0
2, 15480, Note_on_c, 0, 44, 66
2, 15594, Note_on_c, 0, 61, 0
2, 15594, Note_on_c, 0, 58, 0
2, 15600, Note_on_c, 0, 44, 0
2, 15600, Note_on_c, 0, 37, 58
2, 15660, Note_on_c, 0, 60, 86
2, 15660, Note_on_c, 0, 66, 86
2, 15719, Note_on_c, 0, 37, 0
2, 15719, Note_on_c, 0, 44, 64
2, 15818, Note_on_c, 0, 66, 0
2, 15818, Note_on_c, 0, 60, 0
2, 15840, Note_on_c, 0, 56, 0
2, 15840, Note_on_c, 0, 44, 0
2, 15840, Note_on_c, 0, 61, 94
2, 15840, Note_on_c, 0, 65, 94
2, 15840, Note_on_c, 0, 56, 77
2, 15840, Control_c, 0, 64, 0
2, 15840, Control_c, 0, 64, 127
2, 15840, Note_on_c, 0, 53, 68
2, 15960, Note_on_c, 0, 53, 0
2, 15960, Note_on_c, 0, 44, 51
2, 16079, Note_on_c, 0, 44, 0
2, 16079, Note_on_c, 0, 37, 57
2, 16200, Note_on_c, 0, 37, 0
2, 16200, Note_on_c, 0, 44, 64
2, 16320, Note_on_c, 0, 44, 0
2, 16320, Note_on_c, 0, 37, 57
2, 16439, Note_on_c, 0, 37, 0
2, 16439, Note_on_c, 0, 44, 66
2, 16560, Note_on_c, 0, 44, 0
2, 16560, Control_c, 0, 64, 0
2, 16560, Control_c, 0, 64, 127
2, 16560, Note_on_c, 0, 53, 65
2, 16680, Note_on_c, 0, 53, 0
2, 16680, Note_on_c, 0, 44, 56
2, 16789, Note_on_c, 0, 61, 0
2, 16789, Note_on_c, 0, 65, 0
2, 16799, Note_on_c, 0, 44, 0
2, 16799, Control_c, 0, 64, 0
2, 16799, Note_on_c, 0, 37, 58
2, 16920, Note_on_c, 0, 37, 0
2, 16920, Note_on_c, 0, 60, 87
2, 16920, Note_on_c, 0, 63, 87
2, 16920, Control_c, 0, 64, 127
2, 16920, Note_on_c, 0, 44, 66
2, 17040, Note_on_c, 0, 44, 0
2, 17040, Note_on_c, 0, 37, 50
2, 17159, Note_on_c, 0, 37, 0
2, 17159, Control_c, 0, 64, 0
2, 17159, Note_on_c, 0, 44, 68
2, 17237, Note_on_c, 0, 63, 0
2, 17237, Note_on_c, 0, 60, 0
2, 17280, Note_on_c, 0, 56, 0
2, 17280, Note_on_c, 0, 44, 0
2, 17280, Note_on_c, 0, 61, 83
2, 17280, Note_on_c, 0, 65, 83
2, 17280, Note_on_c, 0, 56, 84
2, 17280, Control_c, 0, 64, 127
2, 17280, Note_on_c, 0, 53, 66
2, 17400, Note_on_c, 0, 53, 0
2, 17400, Note_on_c, 0, 44, 55
2, 17519, Note_on_c, 0, 44, 0
2, 17519, Note_on_c, 0, 37, 53
2, 17597, Note_on_c, 0, 65, 0
2, 17597, Note_on_c, 0, 61, 0
2, 17640, Note_on_c, 0, 37, 0
2, 17640, Note_on_c, 0, 63, 93
2, 17640, Note_on_c, 0, 66, 93
2, 17640, Control_c, 0, 64, 0
2, 17640, Control_c, 0, 64, 127
2, 17640, Note_on_c, 0, 44, 62
2, 17760, Note_on_c, 0, 44, 0
2, 17760, Note_on_c, 0, 37, 56
2, 17879, Note_on_c, 0, 37, 0
2, 17879, Note_on_c, 0, 44, 68
2, 17957, Note_on_c, 0, 66, 0
2, 17957, Note_on_c, 0, 63, 0
2, 18000, Note_on_c, 0, 56, 0
2, 18000, Note_on_c, 0, 44, 0
2, 18000, Note_on_c, 0, 65, 104
2, 18000, Note_on_c, 0, 68, 104
2, 18000, Note_on_c, 0, 60, 95
2, 18000, Control_c, 0, 64, 0
2, 18000, Control_c, 0, 64, 127
2, 18000, Note_on_c, 0, 54, 71
2, 18120, Note_on_c, 0, 54, 0
2, 18120, Note_on_c, 0, 44, 55
2, 18158, Note_on_c, 0, 65, 0
2, 18158, Note_on_c, 0, 68, 0
2, 18180, Note_on_c, 0, 66, 109
2, 18180, Note_on_c, 0, 70, 109
2, 18239, Note_on_c, 0, 44, 0
2, 18239, Note_on_c, 0, 37, 53
2, 18360, Note_on_c, 0, 37, 0
2, 18360, Note_on_c, 0, 44, 66
2, 18480, Note_on_c, 0, 44, 0
2, 18480, Note_on_c, 0, 37, 53
2, 18599, Note_on_c, 0, 37, 0
2, 18599, Note_on_c, 0, 70, 0
2, 18599, Note_on_c, 0, 66, 0
2, 18599, Note_on_c, 0, 65, 83
2, 18599, Note_on_c, 0, 68, 83
2, 18599, Note_on_c, 0, 44, 64
2, 18705, Note_on_c, 0, 68, 0
2, 18705, Note_on_c, 0, 65, 0
2, 18720, Note_on_c, 0, 60, 0
2, 18720, Note_on_c, 0, 44, 0
2, 18720, Note_on_c, 0, 65, 94
2, 18720, Note_on_c, 0, 68, 94
2, 18720, Note_on_c, 0, 61, 90
2, 18720, Control_c, 0, 64, 0
2, 18720, Control_c, 0, 64, 127
2, 18720, Note_on_c, 0, 53, 65
2, 18840, Note_on_c, 0, 53, 0
2, 18840, Note_on_c, 0, 44, 56
2, 18959, Note_on_c, 0, 44, 0
2, 18959, Note_on_c, 0, 37, 58
2, 19080, Note_on_c, 0, 37, 0
2, 19080, Note_on_c, 0, 44, 63
2, 19200, Note_on_c, 0, 44, 0
2, 19200, Note_on_c, 0, 37, 57
2, 19319, Note_on_c, 0, 37, 0
2, 19319, Note_on_c, 0, 44, 66
2, 19440, Note_on_c, 0, 44, 0
2, 19440, Control_c, 0, 64, 0
2, 19440, Note_on_c, 0, 53, 67
2, 19560, Note_on_c, 0, 53, 0
2, 19560, Note_on_c, 0, 44, 51
2, 19669, Note_on_c, 0, 65, 0
2, 19669, Note_on_c, 0, 68, 0
2, 19679, Note_on_c, 0, 44, 0
2, 19679, Note_on_c, 0, 37, 57
2, 19800, Note_on_c, 0, 37, 0
2, 19800, Note_on_c, 0, 61, 88
2, 19800, Note_on_c, 0, 65, 88
2, 19800, Control_c, 0, 64, 127
2, 19800, Note_on_c, 0, 44, 66
2, 19920, Note_on_c, 0, 44, 0
2, 19920, Note_on_c, 0, 37, 56
2, 19958, Note_on_c, 0, 65, 0
2, 19958, Note_on_c, 0, 61, 0
2, 19980, Note_on_c, 0, 63, 101
2, 19980, Note_on_c, 0, 66, 101
2, 20039, Note_on_c, 0, 37, 0
2, 20039, Note_on_c, 0, 44, 65
2, 20138, Note_on_c, 0, 66, 0
2, 20138, Note_on_c, 0, 63, 0
2, 20160, Note_on_c, 0, 61, 0
2, 20160, Note_on_c, 0, 44, 0
2, 20160, Note_on_c, 0, 65, 102
2, 20160, Note_on_c, 0, 68, 102
2, 20160, Note_on_c, 0, 61, 79
2, 20160, Control_c, 0, 64, 0
2, 20160, Control_c, 0, 64, 127
2, 20160, Note_on_c, 0, 53, 73
2, 20280, Note_on_c, 0, 53, 0
2, 20280, Note_on_c, 0, 44, 54
2, 20399, Note_on_c, 0, 44, 0
2, 20399, Note_on_c, 0, 37, 55
2, 20477, Note_on_c, 0, 68, 0
2, 20477, Note_on_c, 0, 65, 0
2, 20520, Note_on_c, 0, 37, 0
2, 20520, Note_on_c, 0, 66, 102
2, 20520, Note_on_c, 0, 70, 102
2, 20520, Control_c, 0, 64, 0
2, 20520, Control_c, 0, 64, 127
2, 20520, Note_on_c, 0, 44, 65
2, 20640, Note_on_c, 0, 44, 0
2, 20640, Note_on_c, 0, 37, 57
2, 20759, Note_on_c, 0, 37, 0
2, 20759, Note_on_c, 0, 44, 63
2, 20880, Note_on_c, 0, 44, 0
2, 20880, Control_c, 0, 64, 0
2, 20880, Control_c, 0, 64, 127
2, 20880, Note_on_c, 0, 56, 75
2, 21000, Note_on_c, 0, 56, 0
2, 21000, Note_on_c, 0, 44, 54
2, 21060, Note_on_c, 0, 70, 0
2, 21060, Note_on_c, 0, 66, 0
2, 21060, Note_on_c, 0, 65, 94
2, 21060, Note_on_c, 0, 68, 94
2, 21119, Note_on_c, 0, 44, 0
2, 21119, Note_on_c, 0, 37, 54
2, 21218, Note_on_c, 0, 68, 0
2, 21218, Note_on_c, 0, 65, 0
2, 21240, Note_on_c, 0, 37, 0
2, 21240, Note_on_c, 0, 63, 89
2, 21240, Note_on_c, 0, 66, 89
2, 21240, Control_c, 0, 64, 0
2, 21240, Control_c, 0, 64, 127
2, 21240, Note_on_c, 0, 44, 68
2, 21360, Note_on_c, 0, 44, 0
2, 21360, Note_on_c, 0, 37, 52
2, 21450, Note_on_c, 0, 66, 0
2, 21450, Note_on_c, 0, 63, 0
2, 21479, Note_on_c, 0, 37, 0
2, 21479, Note_on_c, 0, 61, 89
2, 21479, Note_on_c, 0, 65, 89
2, 21479, Note_on_c, 0, 44, 64
2, 21585, Note_on_c, 0, 65, 0
2, 21585, Note_on_c, 0, 61, 0
2, 21600, Note_on_c, 0, 61, 0
2, 21600, Note_on_c, 0, 44, 0
2, 21600, Note_on_c, 0, 61, 92
2, 21600, Note_on_c, 0, 65, 92
2, 21600, Control_c, 0, 64, 0
2, 21600, Control_c, 0, 64, 127
2, 21600, Note_on_c, 0, 53, 69
2, 21720, Note_on_c, 0, 53, 0
2, 21720, Note_on_c, 0, 44, 54
2, 21839, Note_on_c, 0, 44, 0
2, 21839, Note_on_c, 0, 37, 53
2, 21917, Note_on_c, 0, 65, 0
2, 21917, Note_on_c, 0, 61, 0
2, 21960, Note_on_c, 0, 37, 0
2, 21960, Note_on_c, 0, 59, 87
2, 21960, Note_on_c, 0, 63, 87
2, 21960, Control_c, 0, 64, 0
2, 21960, Control_c, 0, 64, 127
2, 21960, Note_on_c, 0, 44, 63
2, 22080, Note_on_c, 0, 44, 0
2, 22080, Note_on_c, 0, 37, 55
2, 22199, Note_on_c, 0, 37, 0
2, 22199, Control_c, 0, 64, 0
2, 22199, Note_on_c, 0, 44, 64
2, 22320, Note_on_c, 0, 44, 0
2, 22320, Control_c, 0, 64, 127
2, 22320, Note_on_c, 0, 53, 69
2, 22440, Note_on_c, 0, 53, 0
2, 22440, Note_on_c, 0, 44, 52
2, 22500, Note_on_c, 0, 63, 0
2, 22500, Note_on_c, 0, 59, 0
2, 22500, Note_on_c, 0, 61, 83
2, 22500, Note_on_c, 0, 65, 83
2, 22559, Note_on_c, 0, 44, 0
2, 22559, Note_on_c, 0, 37, 55
2, 22658, Note_on_c, 0, 65, 0
2, 22658, Note_on_c, 0, 61, 0
2, 22680, Note_on_c, 0, 37, 0
2, 22680, Note_on_c, 0, 59, 71
2, 22680, Note_on_c, 0, 63, 71
2, 22680, Control_c, 0, 64, 0
2, 22680, Control_c, 0, 64, 127
2, 22680, Note_on_c, 0, 45, 65
2, 22800, Note_on_c, 0, 45, 0
2, 22800, Note_on_c, 0, 37, 59
2, 22838, Note_on_c, 0, 63, 0
2, 22838, Note_on_c, 0, 59, 0
2, 22860, Note_on_c, 0, 61, 58
2, 22860, Note_on_c, 0, 65, 58
2, 22919, Note_on_c, 0, 37, 0
2, 22919, Note_on_c, 0, 45, 67
2, 23018, Note_on_c, 0, 65, 0
2, 23018, Note_on_c, 0, 61, 0
2, 23040, Note_on_c, 0, 45, 0
2, 23040, Note_on_c, 0, 58, 76
2, 23040, Note_on_c, 0, 61, 76
2, 23040, Control_c, 0, 64, 0
2, 23040, Control_c, 0, 64, 127
2, 23040, Note_on_c, 0, 53, 70
2, 23160, Note_on_c, 0, 53, 0
2, 23160, Note_on_c, 0, 46, 59
2, 23198, Note_on_c, 0, 61, 0
2, 23198, Note_on_c, 0, 58, 0
2, 23220, Note_on_c, 0, 60, 85
2, 23220, Note_on_c, 0, 63, 85
2, 23279, Note_on_c, 0, 46, 0
2, 23279, Note_on_c, 0, 37, 51
2, 23378, Note_on_c, 0, 63, 0
2, 23378, Note_on_c, 0, 60, 0
2, 23400, Note_on_c, 0, 37, 0
2, 23400, Note_on_c, 0, 61, 90
2, 23400, Note_on_c, 0, 65, 90
2, 23400, Control_c, 0, 64, 0
2, 23400, Control_c, 0, 64, 127
2, 23400, Note_on_c, 0, 46, 65
2, 23520, Note_on_c, 0, 46, 0
2, 23520, Note_on_c, 0, 37, 56
2, 23639, Note_on_c, 0, 37, 0
2, 23639, Note_on_c, 0, 46, 66
2, 23760, Note_on_c, 0, 46, 0
2, 23760, Control_c, 0, 64, 0
2, 23760, Note_on_c, 0, 53, 67
2, 23880, Note_on_c, 0, 53, 0
2, 23880, Note_on_c, 0, 46, 51
2, 23999, Note_on_c, 0, 46, 0
2, 23999, Note_on_c, 0, 37, 57
2, 24033, Note_on_c, 0, 65, 0
2, 24033, Note_on_c, 0, 61, 0
2, 24120, Note_on_c, 0, 37, 0
2, 24120, Note_on_c, 0, 60, 91
2, 24120, Note_on_c, 0, 63, 91
2, 24120, Control_c, 0, 64, 127
2, 24120, Note_on_c, 0, 46, 65
2, 24240, Note_on_c, 0, 46, 0
2, 24240, Note_on_c, 0, 37, 52
2, 24330, Note_on_c, 0, 63, 0
2, 24330, Note_on_c, 0, 60, 0
2, 24359, Note_on_c, 0, 37, 0
2, 24359, Note_on_c, 0, 58, 86
2, 24359, Note_on_c, 0, 61, 86
2, 24359, Note_on_c, 0, 46, 66
2, 24465, Note_on_c, 0, 61, 0
2, 24465, Note_on_c, 0, 58, 0
2, 24480, Note_on_c, 0, 46, 0
2, 24480, Note_on_c, 0, 61, 93
2, 24480, Note_on_c, 0, 58, 55
2, 24480, Control_c, 0, 64, 0
2, 24480, Control_c, 0, 64, 127
2, 24480, Note_on_c, 0, 54, 65
2, 24600, Note_on_c, 0, 54, 0
2, 24600, Note_on_c, 0, 46, 56
2, 24719, Note_on_c, 0, 46, 0
2, 24719, Control_c, 0, 64, 0
2, 24719, Note_on_c, 0, 37, 50
2, 24797, Note_on_c, 0, 61, 0
2, 24840, Note_on_c, 0, 37, 0
2, 24840, Note_on_c, 0, 58, 0
2, 24840, Note_on_c, 0, 63, 99
2, 24840, Note_on_c, 0, 59, 52
2, 24840, Control_c, 0, 64, 127
2, 24840, Note_on_c, 0, 45, 63
2, 24960, Note_on_c, 0, 45, 0
2, 24960, Note_on_c, 0, 37, 57
2, 25079, Note_on_c, 0, 37, 0
2, 25079, Note_on_c, 0, 45, 64
2, 25200, Note_on_c, 0, 45, 0
2, 25200, Note_on_c, 0, 59, 0
2, 25200, Note_on_c, 0, 60, 66
2, 25200, Control_c, 0, 64, 0
2, 25200, Control_c, 0, 64, 127
2, 25200, Note_on_c, 0, 54, 66
2, 25320, Note_on_c, 0, 54, 0
2, 25320, Note_on_c, 0, 44, 56
2, 25439, Note_on_c, 0, 44, 0
2, 25439, Note_on_c, 0, 37, 50
2, 25473, Note_on_c, 0, 63, 0
2, 25560, Note_on_c, 0, 37, 0
2, 25560, Note_on_c, 0, 65, 108
2, 25560, Control_c, 0, 64, 0
2, 25560, Control_c, 0, 64, 127
2, 25560, Note_on_c, 0, 44, 62
2, 25680, Note_on_c, 0, 44, 0
2, 25680, Note_on_c, 0, 37, 55
2, 25770, Note_on_c, 0, 65, 0
2, 25799, Note_on_c, 0, 37, 0
2, 25799, Note_on_c, 0, 61, 86
2, 25799, Note_on_c, 0, 44, 58
2, 25905, Note_on_c, 0, 61, 0
2, 25920, Note_on_c, 0, 44, 0
2, 25920, Note_on_c, 0, 60, 0
2, 25920, Note_on_c, 0, 61, 95
2, 25920, Control_c, 0, 64, 0
2, 25920, Control_c, 0, 64, 127
2, 25920, Note_on_c, 0, 53, 71
2, 26040, Note_on_c, 0, 53, 0
2, 26040, Note_on_c, 0, 44, 52
2, 26159, Note_on_c, 0, 44, 0
2, 26159, Note_on_c, 0, 37, 53
2, 26280, Note_on_c, 0, 37, 0
2, 26280, Note_on_c, 0, 44, 61
2, 26400, Note_on_c, 0, 44, 0
2, 26400, Note_on_c, 0, 37, 59
2, 26519, Note_on_c, 0, 37, 0
2, 26519, Note_on_c, 0, 44, 66
2, 26640, Note_on_c, 0, 44, 0
2, 26640, Control_c, 0, 64, 0
2, 26640, Control_c, 0, 64, 127
2, 26640, Note_on_c, 0, 53, 68
2, 26760, Note_on_c, 0, 53, 0
2, 26760, Note_on_c, 0, 44, 56
2, 26879, Note_on_c, 0, 44, 0
2, 26879, Note_on_c, 0, 37, 56
2, 27000, Note_on_c, 0, 37, 0
2, 27000, Note_on_c, 0, 44, 61
2, 27120, Note_on_c, 0, 44, 0
2, 27120, Note_on_c, 0, 37, 58
2, 27187, Note_on_c, 0, 61, 0
2, 27239, Note_on_c, 0, 37, 0
2, 27239, Note_on_c, 0, 44, 68
2, 27360, Note_on_c, 0, 44, 0
2, 27360, Control_c, 0, 64, 0
2, 27360, Control_c, 0, 64, 127
2, 27360, Note_on_c, 0, 53, 68
2, 27480, Note_on_c, 0, 53, 0
2, 27480, Note_on_c, 0, 44, 54
2, 27540, Note_on_c, 0, 61, 60
2, 27599, Note_on_c, 0, 44, 0
2, 27599, Note_on_c, 0, 37, 53
2, 27720, Note_on_c, 0, 37, 0
2, 27720, Note_on_c, 0, 66, 72
2, 27720, Note_on_c, 0, 70, 72
2, 27720, Control_c, 0, 64, 0
2, 27720, Control_c, 0, 64, 127
2, 27720, Note_on_c, 0, 44, 65
2, 27840, Note_on_c, 0, 44, 0
2, 27840, Note_on_c, 0, 37, 52
2, 27900, Note_on_c, 0, 70, 0
2, 27900, Note_on_c, 0, 66, 0
2, 27900, Note_on_c, 0, 65, 75
2, 27900, Note_on_c, 0, 68, 75
2, 27959, Note_on_c, 0, 37, 0
2, 27959, Control_c, 0, 64, 0
2, 27959, Note_on_c, 0, 44, 67
2, 28080, Note_on_c, 0, 44, 0
2, 28080, Note_on_c, 0, 68, 0
2, 28080, Note_on_c, 0, 65, 0
2, 28080, Note_on_c, 0, 65, 86
2, 28080, Note_on_c, 0, 68, 86
2, 28080, Control_c, 0, 64, 127
2, 28080, Note_on_c, 0, 53, 67
2, 28200, Note_on_c, 0, 53, 0
2, 28200, Note_on_c, 0, 44, 53
2, 28319, Note_on_c, 0, 44, 0
2, 28319, Note_on_c, 0, 37, 57
2, 28440, Note_on_c, 0, 37, 0
2, 28440, Note_on_c, 0, 68, 0
2, 28440, Note_on_c, 0, 65, 0
2, 28440, Note_on_c, 0, 63, 78
2, 28440, Note_on_c, 0, 66, 78
2, 28440, Control_c, 0, 64, 0
2, 28440, Control_c, 0, 64, 127
2, 28440, Note_on_c, 0, 44, 67
2, 28560, Note_on_c, 0, 44, 0
2, 28560, Note_on_c, 0, 37, 54
2, 28679, Note_on_c, 0, 37, 0
2, 28679, Note_on_c, 0, 66, 0
2, 28679, Note_on_c, 0, 63, 0
2, 28679, Note_on_c, 0, 61, 81
2, 28679, Note_on_c, 0, 65, 81
2, 28679, Control_c, 0, 64, 0
2, 28679, Note_on_c, 0, 44, 64
2, 28800, Note_on_c, 0, 44, 0
2, 28800, Note_on_c, 0, 61, 0
2, 28800, Note_on_c, 0, 61, 0
2, 28800, Note_on_c, 0, 65, 0
2, 28800, Note_on_c, 0, 61, 81
2, 28800, Note_on_c, 0, 65, 81
2, 28800, Control_c, 0, 64, 127
2, 28800, Note_on_c, 0, 53, 67
2, 28920, Note_on_c, 0, 53, 0
2, 28920, Note_on_c, 0, 65, 0
2, 28920, Note_on_c, 0, 61, 0
2, 28920, Note_on_c, 0, 60, 81
2, 28920, Note_on_c, 0, 63, 81
2, 28920, Note_on_c, 0, 45, 61
2, 29039, Note_on_c, 0, 45, 0
2, 29039, Note_on_c, 0, 63, 0
2, 29039, Note_on_c, 0, 60, 0
2, 29039, Note_on_c, 0, 61, 87
2, 29039, Note_on_c, 0, 65, 87
2, 29039, Note_on_c, 0, 37, 56
2, 29160, Note_on_c, 0, 37, 0
2, 29160, Note_on_c, 0, 65, 0
2, 29160, Note_on_c, 0, 61, 0
2, 29160, Note_on_c, 0, 61, 82
2, 29160, Note_on_c, 0, 65, 82
2, 29160, Control_c, 0, 64, 0
2, 29160, Control_c, 0, 64, 127
2, 29160, Note_on_c, 0, 45, 67
2, 29280, Note_on_c, 0, 45, 0
2, 29280, Note_on_c, 0, 37, 52
2, 29399, Note_on_c, 0, 37, 0
2, 29399, Control_c, 0, 64, 0
2, 29399, Note_on_c, 0, 45, 63
2, 29520, Note_on_c, 0, 45, 0
2, 29520, Note_on_c, 0, 65, 0
2, 29520, Note_on_c, 0, 61, 0
2, 29520, Control_c, 0, 64, 127
2, 29520, Note_on_c, 0, 53, 69
2, 29640, Note_on_c, 0, 53, 0
2, 29640, Note_on_c, 0, 44, 55
2, 29700, Note_on_c, 0, 61, 54
2, 29759, Note_on_c, 0, 44, 0
2, 29759, Note_on_c, 0, 37, 52
2, 29880, Note_on_c, 0, 37, 0
2, 29880, Note_on_c, 0, 65, 75
2, 29880, Note_on_c, 0, 68, 75
2, 29880, Control_c, 0, 64, 0
2, 29880, Control_c, 0, 64, 127
2, 29880, Note_on_c, 0, 44, 67
2, 30000, Note_on_c, 0, 44, 0
2, 30000, Note_on_c, 0, 68, 0
2, 30000, Note_on_c, 0, 65, 0
2, 30000, Note_on_c, 0, 66, 85
2, 30000, Note_on_c, 0, 70, 85
2, 30000, Note_on_c, 0, 37, 54
2, 30119, Note_on_c, 0, 37, 0
2, 30119, Note_on_c, 0, 70, 0
2, 30119, Note_on_c, 0, 66, 0
2, 30119, Note_on_c, 0, 65, 78
2, 30119, Note_on_c, 0, 68, 78
2, 30119, Note_on_c, 0, 44, 63
2, 30240, Note_on_c, 0, 44, 0
2, 30240, Note_on_c, 0, 68, 0
2, 30240, Note_on_c, 0, 65, 0
2, 30240, Note_on_c, 0, 65, 91
2, 30240, Note_on_c, 0, 68, 91
2, 30240, Control_c, 0, 64, 0
2, 30240, Control_c, 0, 64, 127
2, 30240, Note_on_c, 0, 53, 68
2, 30360, Note_on_c, 0, 53, 0
2, 30360, Note_on_c, 0, 44, 57
2, 30479, Note_on_c, 0, 44, 0
2, 30479, Note_on_c, 0, 37, 49
2, 30557, Note_on_c, 0, 68, 0
2, 30557, Note_on_c, 0, 65, 0
2, 30600, Note_on_c, 0, 61, 0
2, 30600, Note_on_c, 0, 37, 0
2, 30600, Note_on_c, 0, 63, 77
2, 30600, Note_on_c, 0, 66, 77
2, 30600, Control_c, 0, 64, 0
2, 30600, Control_c, 0, 64, 127
2, 30600, Note_on_c, 0, 44, 64
2, 30720, Note_on_c, 0, 44, 0
2, 30720, Note_on_c, 0, 66, 0
2, 30720, Note_on_c, 0, 63, 0
2, 30720, Note_on_c, 0, 61, 81
2, 30720, Note_on_c, 0, 65, 81
2, 30720, Note_on_c, 0, 37, 56
2, 30839, Note_on_c, 0, 37, 0
2, 30839, Note_on_c, 0, 65, 0
2, 30839, Note_on_c, 0, 61, 0
2, 30839, Note_on_c, 0, 60, 83
2, 30839, Note_on_c, 0, 63, 83
2, 30839, Note_on_c, 0, 44, 71
2, 30960, Note_on_c, 0, 44, 0
2, 30960, Note_on_c, 0, 63, 0
2, 30960, Note_on_c, 0, 60, 0
2, 30960, Note_on_c, 0, 61, 89
2, 30960, Note_on_c, 0, 65, 89
2, 30960, Control_c, 0, 64, 0
2, 30960, Control_c, 0, 64, 127
2, 30960, Note_on_c, 0, 53, 66
2, 31080, Note_on_c, 0, 53, 0
2, 31080, Note_on_c, 0, 45, 58
2, 31199, Note_on_c, 0, 45, 0
2, 31199, Note_on_c, 0, 65, 0
2, 31199, Note_on_c, 0, 61, 0
2, 31199, Note_on_c, 0, 60, 78
2, 31199, Note_on_c, 0, 63, 78
2, 31199, Note_on_c, 0, 37, 53
2, 31320, Note_on_c, 0, 37, 0
2, 31320, Note_on_c, 0, 63, 0
2, 31320, Note_on_c, 0, 60, 0
2, 31320, Note_on_c, 0, 61, 84
2, 31320, Note_on_c, 0, 65, 84
2, 31320, Control_c, 0, 64, 0
2, 31320, Control_c, 0, 64, 127
2, 31320, Note_on_c, 0, 45, 67
2, 31440, Note_on_c, 0, 45, 0
2, 31440, Note_on_c, 0, 37, 55
2, 31559, Note_on_c, 0, 37, 0
2, 31559, Note_on_c, 0, 45, 65
2, 31680, Note_on_c, 0, 45, 0
2, 31680, Note_on_c, 0, 65, 0
2, 31680, Note_on_c, 0, 61, 0
2, 31680, Control_c, 0, 64, 0
2, 31680, Control_c, 0, 64, 127
2, 31680, Note_on_c, 0, 53, 67
2, 31800, Note_on_c, 0, 53, 0
2, 31800, Note_on_c, 0, 44, 56
2, 31860, Note_on_c, 0, 56, 83
2, 31919, Note_on_c, 0, 44, 0
2, 31919, Note_on_c, 0, 37, 54
2, 32018, Note_on_c, 0, 56, 0
2, 32040, Note_on_c, 0, 37, 0
2, 32040, Note_on_c, 0, 58, 87
2, 32040, Note_on_c, 0, 61, 87
2, 32040, Control_c, 0, 64, 0
2, 32040, Control_c, 0, 64, 127
2, 32040, Note_on_c, 0, 44, 63
2, 32160, Note_on_c, 0, 44, 0
2, 32160, Note_on_c, 0, 37, 53
2, 32250, Note_on_c, 0, 61, 0
2, 32250, Note_on_c, 0, 58, 0
2, 32279, Note_on_c, 0, 37, 0
2, 32279, Note_on_c, 0, 60, 92
2, 32279, Note_on_c, 0, 65, 92
2, 32279, Note_on_c, 0, 44, 61
2, 32385, Note_on_c, 0, 65, 0
2, 32385, Note_on_c, 0, 60, 0
2, 32400, Note_on_c, 0, 44, 0
2, 32400, Note_on_c, 0, 61, 94
2, 32400, Note_on_c, 0, 65, 94
2, 32400, Control_c, 0, 64, 0
2, 32400, Control_c, 0, 64, 127
2, 32400, Note_on_c, 0, 53, 63
2, 32520, Note_on_c, 0, 53, 0
2, 32520, Note_on_c, 0, 44, 59
2, 32639, Note_on_c, 0, 44, 0
2, 32639, Note_on_c, 0, 37, 55
2, 32717, Note_on_c, 0, 65, 0
2, 32717, Note_on_c, 0, 61, 0
2, 32760, Note_on_c, 0, 37, 0
2, 32760, Note_on_c, 0, 60, 101
2, 32760, Note_on_c, 0, 65, 101
2, 32760, Note_on_c, 0, 68, 101
2, 32760, Control_c, 0, 64, 0
2, 32760, Control_c, 0, 64, 127
2, 32760, Note_on_c, 0, 44, 66
2, 32880, Note_on_c, 0, 44, 0
2, 32880, Note_on_c, 0, 37, 54
2, 32999, Note_on_c, 0, 37, 0
2, 32999, Note_on_c, 0, 68, 0
2, 32999, Note_on_c, 0, 65, 0
2, 32999, Note_on_c, 0, 60, 0
2, 32999, Note_on_c, 0, 59, 106
2, 32999, Note_on_c, 0, 65, 106
2, 32999, Note_on_c, 0, 73, 106
2, 32999, Note_on_c, 0, 44, 69
2, 33120, Note_on_c, 0, 44, 0
2, 33120, Note_on_c, 0, 59, 0
2, 33120, Note_on_c, 0, 65, 0
2, 33120, Note_on_c, 0, 73, 0
2, 33120, Note_on_c, 0, 59, 109
2, 33120, Note_on_c, 0, 65, 109
2, 33120, Note_on_c, 0, 73, 109
2, 33120, Control_c, 0, 64, 0
2, 33120, Control_c, 0, 64, 127
2, 33120, Note_on_c, 0, 53, 64
2, 33240, Note_on_c, 0, 53, 0
2, 33240, Note_on_c, 0, 44, 52
2, 33359, Note_on_c, 0, 44, 0
2, 33359, Note_on_c, 0, 37, 54
2, 33480, Note_on_c, 0, 37, 0
2, 33480, Control_c, 0, 64, 0
2, 33480, Control_c, 0, 64, 127
2, 33480, Note_on_c, 0, 45, 63
2, 33600, Note_on_c, 0, 45, 0
2, 33600, Note_on_c, 0, 37, 54
2, 33719, Note_on_c, 0, 37, 0
2, 33719, Note_on_c, 0, 45, 63
2, 33753, Note_on_c, 0, 59, 0
2, 33753, Note_on_c, 0, 73, 0
2, 33753, Note_on_c, 0, 65, 0
2, 33840, Note_on_c, 0, 45, 0
2, 33840, Control_c, 0, 64, 0
2, 33840, Control_c, 0, 64, 127
2, 33840, Note_on_c, 0, 54, 68
2, 33960, Note_on_c, 0, 54, 0
2, 33960, Note_on_c, 0, 46, 57
2, 34020, Note_on_c, 0, 61, 74
2, 34020, Note_on_c, 0, 66, 74
2, 34079, Note_on_c, 0, 46, 0
2, 34079, Note_on_c, 0, 37, 49
2, 34200, Note_on_c, 0, 37, 0
2, 34200, Note_on_c, 0, 71, 88
2, 34200, Note_on_c, 0, 75, 88
2, 34200, Control_c, 0, 64, 0
2, 34200, Control_c, 0, 64, 127
2, 34200, Note_on_c, 0, 46, 67
2, 34320, Note_on_c, 0, 46, 0
2, 34320, Note_on_c, 0, 37, 55
2, 34380, Note_on_c, 0, 71, 0
2, 34380, Note_on_c, 0, 75, 0
2, 34380, Note_on_c, 0, 70, 86
2, 34380, Note_on_c, 0, 73, 86
2, 34439, Note_on_c, 0, 37, 0
2, 34439, Control_c, 0, 64, 0
2, 34439, Note_on_c, 0, 46, 65
2, 34560, Note_on_c, 0, 46, 0
2, 34560, Note_on_c, 0, 73, 0
2, 34560, Note_on_c, 0, 70, 0
2, 34560, Note_on_c, 0, 70, 100
2, 34560, Note_on_c, 0, 73, 100
2, 34560, Control_c, 0, 64, 127
2, 34560, Note_on_c, 0, 54, 63
2, 34680, Note_on_c, 0, 54, 0
2, 34680, Note_on_c, 0, 46, 56
2, 34799, Note_on_c, 0, 46, 0
2, 34799, Note_on_c, 0, 37, 48
2, 34920, Note_on_c, 0, 37, 0
2, 34920, Note_on_c, 0, 70, 0
2, 34920, Note_on_c, 0, 73, 0
2, 34920, Note_on_c, 0, 68, 97
2, 34920, Note_on_c, 0, 71, 97
2, 34920, Control_c, 0, 64, 0
2, 34920, Control_c, 0, 64, 127
2, 34920, Note_on_c, 0, 46, 66
2, 35040, Note_on_c, 0, 46, 0
2, 35040, Note_on_c, 0, 37, 58
2, 35159, Note_on_c, 0, 37, 0
2, 35159, Note_on_c, 0, 71, 0
2, 35159, Note_on_c, 0, 68, 0
2, 35159, Note_on_c, 0, 66, 72
2, 35159, Note_on_c, 0, 70, 72
2, 35159, Control_c, 0, 64, 0
2, 35159, Note_on_c, 0, 46, 65
2, 35280, Note_on_c, 0, 46, 0
2, 35280, Note_on_c, 0, 66, 0
2, 35280, Note_on_c, 0, 61, 0
2, 35280, Note_on_c, 0, 66, 0
2, 35280, Note_on_c, 0, 70, 0
2, 35280, Note_on_c, 0, 66, 73
2, 35280, Note_on_c, 0, 70, 73
2, 35280, Note_on_c, 0, 58, 50
2, 35280, Control_c, 0, 64, 127
2, 35280, Note_on_c, 0, 50, 63
2, 35400, Note_on_c, 0, 50, 0
2, 35400, Note_on_c, 0, 66, 0
2, 35400, Note_on_c, 0, 70, 0
2, 35400, Note_on_c, 0, 65, 68
2, 35400, Note_on_c, 0, 68, 68
2, 35400, Note_on_c, 0, 46, 54
2, 35519, Note_on_c, 0, 46, 0
2, 35519, Note_on_c, 0, 68, 0
2, 35519, Note_on_c, 0, 65, 0
2, 35519, Note_on_c, 0, 66, 82
2, 35519, Note_on_c, 0, 70, 82
2, 35519, Note_on_c, 0, 37, 56
2, 35640, Note_on_c, 0, 37, 0
2, 35640, Control_c, 0, 64, 0
2, 35640, Control_c, 0, 64, 127
2, 35640, Note_on_c, 0, 46, 63
2, 35760, Note_on_c, 0, 46, 0
2, 35760, Note_on_c, 0, 37, 56
2, 35879, Note_on_c, 0, 37, 0
2, 35879, Control_c, 0, 64, 0
2, 35879, Note_on_c, 0, 46, 65
2, 36000, Note_on_c, 0, 46, 0
2, 36000, Note_on_c, 0, 70, 0
2, 36000, Note_on_c, 0, 66, 0
2, 36000, Note_on_c, 0, 58, 0
2, 36000, Control_c, 0, 64, 127
2, 36000, Note_on_c, 0, 49, 63
2, 36120, Note_on_c, 0, 49, 0
2, 36120, Note_on_c, 0, 46, 60
2, 36180, Note_on_c, 0, 61, 55
2, 36180, Note_on_c, 0, 66, 55
2, 36239, Note_on_c, 0, 46, 0
2, 36239, Note_on_c, 0, 37, 51
2, 36360, Note_on_c, 0, 37, 0
2, 36360, Note_on_c, 0, 70, 91
2, 36360, Note_on_c, 0, 73, 91
2, 36360, Control_c, 0, 64, 0
2, 36360, Control_c, 0, 64, 127
2, 36360, Note_on_c, 0, 46, 66
2, 36480, Note_on_c, 0, 46, 0
2, 36480, Note_on_c, 0, 70, 0
2, 36480, Note_on_c, 0, 73, 0
2, 36480, Note_on_c, 0, 71, 105
2, 36480, Note_on_c, 0, 75, 105
2, 36480, Note_on_c, 0, 37, 51
2, 36599, Note_on_c, 0, 37, 0
2, 36599, Note_on_c, 0, 71, 0
2, 36599, Note_on_c, 0, 75, 0
2, 36599, Note_on_c, 0, 70, 92
2, 36599, Note_on_c, 0, 73, 92
2, 36599, Control_c, 0, 64, 0
2, 36599, Note_on_c, 0, 46, 67
2, 36720, Note_on_c, 0, 46, 0
2, 36720, Note_on_c, 0, 70, 0
2, 36720, Note_on_c, 0, 73, 0
2, 36720, Note_on_c, 0, 70, 98
2, 36720, Note_on_c, 0, 73, 98
2, 36720, Control_c, 0, 64, 127
2, 36720, Note_on_c, 0, 54, 65
2, 36840, Note_on_c, 0, 54, 0
2, 36840, Note_on_c, 0, 70, 0
2, 36840, Note_on_c, 0, 73, 0
2, 36840, Note_on_c, 0, 68, 90
2, 36840, Note_on_c, 0, 71, 90
2, 36840, Note_on_c, 0, 46, 53
2, 36959, Note_on_c, 0, 46, 0
2, 36959, Note_on_c, 0, 68, 0
2, 36959, Note_on_c, 0, 71, 0
2, 36959, Note_on_c, 0, 70, 105
2, 36959, Note_on_c, 0, 73, 105
2, 36959, Note_on_c, 0, 37, 54
2, 37080, Note_on_c, 0, 37, 0
2, 37080, Note_on_c, 0, 70, 0
2, 37080, Note_on_c, 0, 73, 0
2, 37080, Note_on_c, 0, 68, 97
2, 37080, Note_on_c, 0, 71, 97
2, 37080, Control_c, 0, 64, 0
2, 37080, Control_c, 0, 64, 127
2, 37080, Note_on_c, 0, 46, 67
2, 37200, Note_on_c, 0, 46, 0
2, 37200, Note_on_c, 0, 37, 56
2, 37319, Note_on_c, 0, 37, 0
2, 37319, Note_on_c, 0, 71, 0
2, 37319, Note_on_c, 0, 68, 0
2, 37319, Note_on_c, 0, 66, 89
2, 37319, Note_on_c, 0, 70, 89
2, 37319, Note_on_c, 0, 46, 66
2, 37440, Note_on_c, 0, 46, 0
2, 37440, Note_on_c, 0, 66, 0
2, 37440, Note_on_c, 0, 61, 0
2, 37440, Note_on_c, 0, 66, 0
2, 37440, Note_on_c, 0, 70, 0
2, 37440, Note_on_c, 0, 66, 85
2, 37440, Note_on_c, 0, 70, 85
2, 37440, Note_on_c, 0, 58, 52
2, 37440, Control_c, 0, 64, 0
2, 37440, Control_c, 0, 64, 127
2, 37440, Note_on_c, 0, 50, 65
2, 37560, Note_on_c, 0, 50, 0
2, 37560, Note_on_c, 0, 66, 0
2, 37560, Note_on_c, 0, 70, 0
2, 37560, Note_on_c, 0, 65, 80
2, 37560, Note_on_c, 0, 68, 80
2, 37560, Note_on_c, 0, 46, 58
2, 37679, Note_on_c, 0, 46, 0
2, 37679, Note_on_c, 0, 68, 0
2, 37679, Note_on_c, 0, 65, 0
2, 37679, Note_on_c, 0, 66, 76
2, 37679, Note_on_c, 0, 70, 76
2, 37679, Note_on_c, 0, 37, 48
2, 37800, Note_on_c, 0, 37, 0
2, 37800, Control_c, 0, 64, 0
2, 37800, Control_c, 0, 64, 127
2, 37800, Note_on_c, 0, 46, 67
2, 37920, Note_on_c, 0, 46, 0
2, 37920, Note_on_c, 0, 37, 55
2, 38039, Note_on_c, 0, 37, 0
2, 38039, Note_on_c, 0, 46, 64
2, 38160, Note_on_c, 0, 46, 0
2, 38160, Note_on_c, 0, 70, 0
2, 38160, Note_on_c, 0, 66, 0
2, 38160, Note_on_c, 0, 58, 0
2, 38160, Control_c, 0, 64, 0
2, 38160, Control_c, 0, 64, 127
2, 38160, Note_on_c, 0, 49, 65
2, 38280, Note_on_c, 0, 49, 0
2, 38280, Note_on_c, 0, 46, 58
2, 38340, Note_on_c, 0, 58, 86
2, 38340, Note_on_c, 0, 66, 86
2, 38399, Note_on_c, 0, 46, 0
2, 38399, Note_on_c, 0, 37, 52
2, 38520, Note_on_c, 0, 37, 0
2, 38520, Note_on_c, 0, 70, 83
2, 38520, Control_c, 0, 64, 0
2, 38520, Control_c, 0, 64, 127
2, 38520, Note_on_c, 0, 46, 69
2, 38640, Note_on_c, 0, 46, 0
2, 38640, Note_on_c, 0, 37, 55
2, 38678, Note_on_c, 0, 70, 0
2, 38700, Note_on_c, 0, 73, 88
2, 38759, Note_on_c, 0, 37, 0
2, 38759, Control_c, 0, 64, 0
2, 38759, Note_on_c, 0, 46, 67
2, 38858, Note_on_c, 0, 73, 0
2, 38880, Note_on_c, 0, 58, 0
2, 38880, Note_on_c, 0, 66, 0
2, 38880, Note_on_c, 0, 46, 0
2, 38880, Note_on_c, 0, 73, 93
2, 38880, Note_on_c, 0, 58, 76
2, 38880, Note_on_c, 0, 65, 76
2, 38880, Control_c, 0, 64, 127
2, 38880, Note_on_c, 0, 53, 70
2, 39000, Note_on_c, 0, 53, 0
2, 39000, Note_on_c, 0, 46, 60
2, 39119, Note_on_c, 0, 46, 0
2, 39119, Control_c, 0, 64, 0
2, 39119, Note_on_c, 0, 37, 51
2, 39197, Note_on_c, 0, 73, 0
2, 39240, Note_on_c, 0, 37, 0
2, 39240, Note_on_c, 0, 77, 102
2, 39240, Control_c, 0, 64, 127
2, 39240, Note_on_c, 0, 46, 66
2, 39360, Note_on_c, 0, 46, 0
2, 39360, Note_on_c, 0, 37, 55
2, 39479, Note_on_c, 0, 37, 0
2, 39479, Note_on_c, 0, 77, 0
2, 39479, Note_on_c, 0, 82, 109
2, 39479, Control_c, 0, 64, 0
2, 39479, Note_on_c, 0, 46, 67
2, 39600, Note_on_c, 0, 46, 0
2, 39600, Note_on_c, 0, 58, 0
2, 39600, Note_on_c, 0, 65, 0
2, 39600, Note_on_c, 0, 82, 0
2, 39600, Note_on_c, 0, 54, 113
2, 39600, Control_c, 0, 64, 127
2, 39600, Note_on_c, 0, 52, 67
2, 39626, Note_on_c, 0, 58, 112
2, 39651, Note_on_c, 0, 64, 112
2, 39676, Note_on_c, 0, 70, 111
2, 39701, Note_on_c, 0, 82, 111
2, 39720, Note_on_c, 0, 52, 0
2, 39720, Note_on_c, 0, 46, 58
2, 39839, Note_on_c, 0, 46, 0
2, 39839, Note_on_c, 0, 37, 55
2, 39960, Note_on_c, 0, 37, 0
2, 39960, Control_c, 0, 64, 0
2, 39960, Control_c, 0, 64, 127
2, 39960, Note_on_c, 0, 46, 67
2, 40080, Note_on_c, 0, 46, 0
2, 40080, Note_on_c, 0, 37, 53
2, 40199, Note_on_c, 0, 37, 0
2, 40199, Note_on_c, 0, 46, 68
2, 40320, Note_on_c, 0, 46, 0
2, 40320, Control_c, 0, 64, 0
2, 40320, Control_c, 0, 64, 127
2, 40320, Note_on_c, 0, 52, 71
2, 40440, Note_on_c, 0, 52, 0
2, 40440, Note_on_c, 0, 46, 55
2, 40559, Note_on_c, 0, 46, 0
2, 40559, Note_on_c, 0, 37, 56
2, 40680, Note_on_c, 0, 37, 0
2, 40680, Control_c, 0, 64, 0
2, 40680, Control_c, 0, 64, 127
2, 40680, Note_on_c, 0, 46, 69
2, 40800, Note_on_c, 0, 46, 0
2, 40800, Note_on_c, 0, 37, 56
2, 40919, Note_on_c, 0, 37, 0
2, 40919, Note_on_c, 0, 46, 67
2, 41040, Note_on_c, 0, 46, 0
2, 41040, Note_on_c, 0, 82, 0
2, 41040, Note_on_c, 0, 64, 0
2, 41040, Note_on_c, 0, 54, 0
2, 41040, Note_on_c, 0, 58, 0
2, 41040, Note_on_c, 0, 70, 0
2, 41040, Control_c, 0, 64, 0
2, 41040, Control_c, 0, 64, 127
2, 41040, Note_on_c, 0, 54, 66
2, 41160, Note_on_c, 0, 54, 0
2, 41160, Note_on_c, 0, 45, 56
2, 41220, Note_on_c, 0, 69, 75
2, 41279, Note_on_c, 0, 45, 0
2, 41279, Control_c, 0, 64, 0
2, 41279, Note_on_c, 0, 37, 52
2, 41400, Note_on_c, 0, 37, 0
2, 41400, Note_on_c, 0, 78, 76
2, 41400, Note_on_c, 0, 81, 76
2, 41400, Control_c, 0, 64, 127
2, 41400, Note_on_c, 0, 45, 67
2, 41520, Note_on_c, 0, 45, 0
2, 41520, Note_on_c, 0, 81, 0
2, 41520, Note_on_c, 0, 78, 0
2, 41520, Note_on_c, 0, 80, 88
2, 41520, Note_on_c, 0, 83, 88
2, 41520, Note_on_c, 0, 37, 54
2, 41639, Note_on_c, 0, 37, 0
2, 41639, Note_on_c, 0, 83, 0
2, 41639, Note_on_c, 0, 80, 0
2, 41639, Note_on_c, 0, 78, 80
2, 41639, Note_on_c, 0, 81, 80
2, 41639, Control_c, 0, 64, 0
2, 41639, Note_on_c, 0, 45, 67
2, 41760, Note_on_c, 0, 45, 0
2, 41760, Note_on_c, 0, 81, 0
2, 41760, Note_on_c, 0, 78, 0
2, 41760, Note_on_c, 0, 78, 83
2, 41760, Note_on_c, 0, 81, 83
2, 41760, Control_c, 0, 64, 127
2, 41760, Note_on_c, 0, 54, 67
2, 41880, Note_on_c, 0, 54, 0
2, 41880, Note_on_c, 0, 45, 53
2, 41970, Note_on_c, 0, 81, 0
2, 41970, Note_on_c, 0, 78, 0
2, 41999, Note_on_c, 0, 45, 0
2, 41999, Note_on_c, 0, 71, 93
2, 41999, Note_on_c, 0, 74, 93
2, 41999, Note_on_c, 0, 37, 54
2, 42120, Note_on_c, 0, 37, 0
2, 42120, Control_c, 0, 64, 0
2, 42120, Control_c, 0, 64, 127
2, 42120, Note_on_c, 0, 45, 66
2, 42240, Note_on_c, 0, 45, 0
2, 42240, Note_on_c, 0, 37, 58
2, 42359, Note_on_c, 0, 37, 0
2, 42359, Note_on_c, 0, 74, 0
2, 42359, Note_on_c, 0, 71, 0
2, 42359, Note_on_c, 0, 69, 109
2, 42359, Note_on_c, 0, 73, 109
2, 42359, Control_c, 0, 64, 0
2, 42359, Note_on_c, 0, 45, 67
2, 42465, Note_on_c, 0, 73, 0
2, 42465, Note_on_c, 0, 69, 0
2, 42480, Note_on_c, 0, 69, 0
2, 42480, Note_on_c, 0, 45, 0
2, 42480, Note_on_c, 0, 69, 109
2, 42480, Note_on_c, 0, 72, 109
2, 42480, Control_c, 0, 64, 127
2, 42480, Note_on_c, 0, 54, 67
2, 42600, Note_on_c, 0, 54, 0
2, 42600, Note_on_c, 0, 72, 0
2, 42600, Note_on_c, 0, 69, 0
2, 42600, Note_on_c, 0, 65, 100
2, 42600, Note_on_c, 0, 68, 100
2, 42600, Note_on_c, 0, 44, 57
2, 42719, Note_on_c, 0, 44, 0
2, 42719, Note_on_c, 0, 68, 0
2, 42719, Note_on_c, 0, 65, 0
2, 42719, Note_on_c, 0, 63, 92
2, 42719, Note_on_c, 0, 66, 92
2, 42719, Note_on_c, 0, 37, 52
2, 42840, Note_on_c, 0, 37, 0
2, 42840, Note_on_c, 0, 66, 0
2, 42840, Note_on_c, 0, 63, 0
2, 42840, Note_on_c, 0, 63, 83
2, 42840, Note_on_c, 0, 66, 83
2, 42840, Control_c, 0, 64, 0
2, 42840, Control_c, 0, 64, 127
2, 42840, Note_on_c, 0, 44, 65
2, 42960, Note_on_c, 0, 44, 0
2, 42960, Note_on_c, 0, 37, 57
2, 43079, Note_on_c, 0, 37, 0
2, 43079, Note_on_c, 0, 44, 65
2, 43200, Note_on_c, 0, 44, 0
2, 43200, Control_c, 0, 64, 0
2, 43200, Control_c, 0, 64, 127
2, 43200, Note_on_c, 0, 54, 66
2, 43320, Note_on_c, 0, 54, 0
2, 43320, Note_on_c, 0, 44, 54
2, 43439, Note_on_c, 0, 44, 0
2, 43439, Control_c, 0, 64, 0
2, 43439, Note_on_c, 0, 37, 53
2, 43560, Note_on_c, 0, 37, 0
2, 43560, Note_on_c, 0, 66, 0
2, 43560, Note_on_c, 0, 63, 0
2, 43560, Note_on_c, 0, 65, 101
2, 43560, Note_on_c, 0, 68, 101
2, 43560, Control_c, 0, 64, 127
2, 43560, Note_on_c, 0, 44, 64
2, 43680, Note_on_c, 0, 44, 0
2, 43680, Note_on_c, 0, 37, 51
2, 43799, Note_on_c, 0, 37, 0
2, 43799, Note_on_c, 0, 68, 0
2, 43799, Note_on_c, 0, 65, 0
2, 43799, Note_on_c, 0, 66, 109
2, 43799, Note_on_c, 0, 69, 109
2, 43799, Note_on_c, 0, 44, 64
2, 43920, Note_on_c, 0, 44, 0
2, 43920, Note_on_c, 0, 69, 0
2, 43920, Note_on_c, 0, 66, 0
2, 43920, Note_on_c, 0, 66, 97
2, 43920, Note_on_c, 0, 69, 97
2, 43920, Control_c, 0, 64, 0
2, 43920, Control_c, 0, 64, 127
2, 43920, Note_on_c, 0, 54, 67
2, 44040, Note_on_c, 0, 54, 0
2, 44040, Note_on_c, 0, 45, 55
2, 44100, Note_on_c, 0, 69, 0
2, 44100, Note_on_c, 0, 66, 0
2, 44100, Note_on_c, 0, 57, 78
2, 44100, Note_on_c, 0, 61, 78
2, 44159, Note_on_c, 0, 45, 0
2, 44159, Note_on_c, 0, 37, 54
2, 44280, Note_on_c, 0, 37, 0
2, 44280, Note_on_c, 0, 61, 0
2, 44280, Note_on_c, 0, 57, 0
2, 44280, Note_on_c, 0, 68, 97
2, 44280, Note_on_c, 0, 71, 97
2, 44280, Control_c, 0, 64, 0
2, 44280, Control_c, 0, 64, 127
2, 44280, Note_on_c, 0, 45, 65
2, 44400, Note_on_c, 0, 45, 0
2, 44400, Note_on_c, 0, 37, 53
2, 44519, Note_on_c, 0, 37, 0
2, 44519, Note_on_c, 0, 71, 0
2, 44519, Note_on_c, 0, 68, 0
2, 44519, Note_on_c, 0, 66, 80
2, 44519, Note_on_c, 0, 69, 80
2, 44519, Note_on_c, 0, 45, 64
2, 44640, Note_on_c, 0, 45, 0
2, 44640, Note_on_c, 0, 69, 0
2, 44640, Note_on_c, 0, 66, 0
2, 44640, Note_on_c, 0, 66, 72
2, 44640, Note_on_c, 0, 69, 72
2, 44640, Control_c, 0, 64, 0
2, 44640, Control_c, 0, 64, 127
2, 44640, Note_on_c, 0, 54, 61
2, 44760, Note_on_c, 0, 54, 0
2, 44760, Note_on_c, 0, 45, 53
2, 44879, Note_on_c, 0, 45, 0
2, 44879, Note_on_c, 0, 69, 0
2, 44879, Note_on_c, 0, 66, 0
2, 44879, Note_on_c, 0, 62, 76
2, 44879, Note_on_c, 0, 66, 76
2, 44879, Note_on_c, 0, 37, 55
2, 45000, Note_on_c, 0, 37, 0
2, 45000, Control_c, 0, 64, 0
2, 45000, Control_c, 0, 64, 127
2, 45000, Note_on_c, 0, 45, 65
2, 45120, Note_on_c, 0, 45, 0
2, 45120, Note_on_c, 0, 66, 0
2, 45120, Note_on_c, 0, 62, 0
2, 45120, Note_on_c, 0, 59, 74
2, 45120, Note_on_c, 0, 62, 74
2, 45120, Note_on_c, 0, 37, 52
2, 45239, Note_on_c, 0, 37, 0
2, 45239, Note_on_c, 0, 62, 0
2, 45239, Note_on_c, 0, 59, 0
2, 45239, Note_on_c, 0, 57, 77
2, 45239, Note_on_c, 0, 61, 77
2, 45239, Note_on_c, 0, 45, 66
2, 45360, Note_on_c, 0, 45, 0
2, 45360, Note_on_c, 0, 61, 0
2, 45360, Note_on_c, 0, 57, 0
2, 45360, Note_on_c, 0, 57, 82
2, 45360, Note_on_c, 0, 60, 82
2, 45360, Control_c, 0, 64, 0
2, 45360, Control_c, 0, 64, 127
2, 45360, Note_on_c, 0, 51, 65
2, 45464, Note_on_c, 0, 60, 0
2, 45464, Note_on_c, 0, 57, 0
2, 45480, Note_on_c, 0, 51, 0
2, 45480, Note_on_c, 0, 53, 63
2, 45480, Note_on_c, 0, 56, 63
2, 45480, Note_on_c, 0, 44, 55
2, 45599, Note_on_c, 0, 44, 0
2, 45599, Note_on_c, 0, 56, 0
2, 45599, Note_on_c, 0, 53, 0
2, 45599, Note_on_c, 0, 51, 69
2, 45599, Note_on_c, 0, 54, 69
2, 45599, Control_c, 0, 64, 0
2, 45599, Note_on_c, 0, 37, 55
2, 45720, Note_on_c, 0, 37, 0
2, 45720, Note_on_c, 0, 54, 0
2, 45720, Note_on_c, 0, 51, 0
2, 45720, Note_on_c, 0, 51, 74
2, 45720, Note_on_c, 0, 54, 74
2, 45720, Control_c, 0, 64, 127
2, 45720, Note_on_c, 0, 44, 64
2, 45840, Note_on_c, 0, 44, 0
2, 45840, Note_on_c, 0, 37, 60
2, 45959, Note_on_c, 0, 37, 0
2, 45959, Note_on_c, 0, 44, 66
2, 46080, Note_on_c, 0, 44, 0
2, 46080, Control_c, 0, 64, 0
2, 46080, Note_on_c, 0, 51, 66
2, 46200, Note_on_c, 0, 51, 0
2, 46200, Note_on_c, 0, 44, 59
2, 46260, Note_on_c, 0, 51, 0
2, 46260, Note_on_c, 0, 54, 0
2, 46260, Note_on_c, 0, 53, 87
2, 46260, Note_on_c, 0, 56, 87
2, 46319, Note_on_c, 0, 44, 0
2, 46319, Note_on_c, 0, 37, 56
2, 46418, Note_on_c, 0, 56, 0
2, 46418, Note_on_c, 0, 53, 0
2, 46440, Note_on_c, 0, 37, 0
2, 46440, Note_on_c, 0, 54, 74
2, 46440, Note_on_c, 0, 57, 74
2, 46440, Control_c, 0, 64, 127
2, 46440, Note_on_c, 0, 44, 62
2, 46560, Note_on_c, 0, 44, 0
2, 46560, Note_on_c, 0, 37, 52
2, 46679, Note_on_c, 0, 37, 0
2, 46679, Note_on_c, 0, 44, 67
2, 46800, Note_on_c, 0, 44, 0
2, 46800, Note_on_c, 0, 49, 63
2, 46920, Note_on_c, 0, 49, 0
2, 46920, Note_on_c, 0, 44, 57
2, 47039, Note_on_c, 0, 44, 0
2, 47039, Note_on_c, 0, 37, 56
2, 47160, Note_on_c, 0, 37, 0
2, 47160, Note_on_c, 0, 57, 0
2, 47160, Note_on_c, 0, 54, 0
2, 47160, Note_on_c, 0, 53, 93
2, 47160, Note_on_c, 0, 56, 93
2, 47160, Control_c, 0, 64, 0
2, 47160, Control_c, 0, 64, 127
2, 47160, Note_on_c, 0, 44, 62
2, 47280, Note_on_c, 0, 44, 0
2, 47280, Note_on_c, 0, 37, 57
2, 47399, Note_on_c, 0, 37, 0
2, 47399, Note_on_c, 0, 44, 65
2, 47477, Note_on_c, 0, 56, 0
2, 47477, Note_on_c, 0, 53, 0
2, 47520, Note_on_c, 0, 44, 0
2, 47520, Note_on_c, 0, 61, 83
2, 47520, Note_on_c, 0, 52, 63
2, 47640, Note_on_c, 0, 52, 0
2, 47640, Note_on_c, 0, 44, 55
2, 47759, Note_on_c, 0, 44, 0
2, 47759, Note_on_c, 0, 37, 58
2, 47880, Note_on_c, 0, 37, 0
2, 47880, Note_on_c, 0, 44, 67
2, 47994, Note_on_c, 0, 61, 0
2, 48000, Note_on_c, 0, 44, 0
2, 48000, Control_c, 0, 64, 0
2, 48000, Note_on_c, 0, 37, 58
2, 48060, Note_on_c, 0, 64, 109
2, 48119, Note_on_c, 0, 37, 0
2, 48119, Note_on_c, 0, 44, 64
2, 48218, Note_on_c, 0, 64, 0
2, 48240, Note_on_c, 0, 44, 0
2, 48240, Note_on_c, 0, 47, 112
2, 48240, Control_c, 0, 64, 127
2, 48240, Note_on_c, 0, 28, 63
2, 48240, Note_on_c, 0, 40, 63
2, 48266, Note_on_c, 0, 56, 112
2, 48291, Note_on_c, 0, 64, 112
2, 48360, Note_on_c, 0, 40, 0
2, 48360, Note_on_c, 0, 28, 0
2, 48360, Note_on_c, 0, 47, 80
2, 48479, Note_on_c, 0, 47, 0
2, 48479, Note_on_c, 0, 40, 68
2, 48600, Note_on_c, 0, 40, 0
2, 48600, Note_on_c, 0, 47, 83
2, 48720, Note_on_c, 0, 47, 0
2, 48720, Note_on_c, 0, 40, 70
2, 48839, Note_on_c, 0, 40, 0
2, 48839, Note_on_c, 0, 47, 81
2, 48960, Note_on_c, 0, 47, 0
2, 48960, Control_c, 0, 64, 0
2, 48960, Note_on_c, 0, 54, 82
2, 49080, Note_on_c, 0, 54, 0
2, 49080, Note_on_c, 0, 47, 68
2, 49140, Note_on_c, 0, 64, 0
2, 49140, Note_on_c, 0, 66, 122
2, 49199, Note_on_c, 0, 47, 0
2, 49199, Note_on_c, 0, 40, 69
2, 49298, Note_on_c, 0, 66, 0
2, 49320, Note_on_c, 0, 40, 0
2, 49320, Note_on_c, 0, 61, 127
2, 49320, Note_on_c, 0, 69, 127
2, 49320, Control_c, 0, 64, 127
2, 49320, Note_on_c, 0, 57, 83
2, 49440, Note_on_c, 0, 57, 0
2, 49440, Note_on_c, 0, 49, 65
2, 49530, Note_on_c, 0, 61, 0
2, 49530, Note_on_c, 0, 69, 0
2, 49559, Note_on_c, 0, 49, 0
2, 49559, Note_on_c, 0, 59, 93
2, 49559, Note_on_c, 0, 68, 93
2, 49559, Note_on_c, 0, 40, 69
2, 49665, Note_on_c, 0, 68, 0
2, 49665, Note_on_c, 0, 59, 0
2, 49680, Note_on_c, 0, 40, 0
2, 49680, Note_on_c, 0, 64, 83
2, 49680, Note_on_c, 0, 68, 83
2, 49680, Control_c, 0, 64, 0
2, 49680, Control_c, 0, 64, 127
2, 49680, Note_on_c, 0, 56, 55
2, 49800, Note_on_c, 0, 47, 63
2, 49919, Note_on_c, 0, 47, 0
2, 49919, Note_on_c, 0, 40, 65
2, 50040, Note_on_c, 0, 40, 0
2, 50040, Note_on_c, 0, 47, 81
2, 50160, Note_on_c, 0, 47, 0
2, 50160, Note_on_c, 0, 40, 69
2, 50220, Note_on_c, 0, 56, 0
2, 50220, Note_on_c, 0, 57, 126
2, 50220, Control_c, 0, 64, 0
2, 50279, Note_on_c, 0, 40, 0
2, 50279, Note_on_c, 0, 47, 80
2, 50378, Note_on_c, 0, 57, 0
2, 50400, Note_on_c, 0, 64, 0
2, 50400, Note_on_c, 0, 68, 0
2, 50400, Note_on_c, 0, 47, 0
2, 50400, Note_on_c, 0, 63, 97
2, 50400, Note_on_c, 0, 68, 97
2, 50400, Note_on_c, 0, 59, 127
2, 50400, Control_c, 0, 64, 127
2, 50400, Note_on_c, 0, 57, 88
2, 50520, Note_on_c, 0, 57, 0
2, 50520, Note_on_c, 0, 47, 68
2, 50558, Note_on_c, 0, 59, 0
2, 50580, Note_on_c, 0, 61, 126
2, 50639, Note_on_c, 0, 47, 0
2, 50639, Note_on_c, 0, 40, 74
2, 50760, Note_on_c, 0, 40, 0
2, 50760, Note_on_c, 0, 47, 78
2, 50880, Note_on_c, 0, 47, 0
2, 50880, Note_on_c, 0, 40, 72
2, 50897, Note_on_c, 0, 61, 0
2, 50940, Note_on_c, 0, 59, 101
2, 50999, Note_on_c, 0, 40, 0
2, 50999, Control_c, 0, 64, 0
2, 50999, Note_on_c, 0, 47, 80
2, 51098, Note_on_c, 0, 59, 0
2, 51120, Note_on_c, 0, 63, 0
2, 51120, Note_on_c, 0, 68, 0
2, 51120, Note_on_c, 0, 47, 0
2, 51120, Note_on_c, 0, 64, 72
2, 51120, Note_on_c, 0, 68, 72
2, 51120, Note_on_c, 0, 59, 76
2, 51120, Control_c, 0, 64, 127
2, 51120, Note_on_c, 0, 56, 56
2, 51240, Note_on_c, 0, 56, 0
2, 51240, Note_on_c, 0, 47, 48
2, 51359, Note_on_c, 0, 47, 0
2, 51359, Note_on_c, 0, 40, 55
2, 51480, Note_on_c, 0, 40, 0
2, 51480, Note_on_c, 0, 47, 65
2, 51600, Note_on_c, 0, 47, 0
2, 51600, Note_on_c, 0, 40, 54
2, 51719, Note_on_c, 0, 40, 0
2, 51719, Control_c, 0, 64, 0
2, 51719, Note_on_c, 0, 47, 66
2, 51840, Note_on_c, 0, 47, 0
2, 51840, Note_on_c, 0, 68, 0
2, 51840, Note_on_c, 0, 59, 0
2, 51840, Note_on_c, 0, 64, 0
2, 51840, Note_on_c, 0, 66, 74
2, 51840, Note_on_c, 0, 68, 74
2, 51840, Note_on_c, 0, 60, 105
2, 51840, Control_c, 0, 64, 127
2, 51840, Note_on_c, 0, 54, 67
2, 51960, Note_on_c, 0, 54, 0
2, 51960, Note_on_c, 0, 44, 51
2, 52079, Note_on_c, 0, 44, 0
2, 52079, Note_on_c, 0, 39, 53
2, 52200, Note_on_c, 0, 39, 0
2, 52200, Note_on_c, 0, 44, 63
2, 52320, Note_on_c, 0, 44, 0
2, 52320, Note_on_c, 0, 39, 58
2, 52439, Note_on_c, 0, 39, 0
2, 52439, Control_c, 0, 64, 0
2, 52439, Note_on_c, 0, 44, 65
2, 52560, Note_on_c, 0, 44, 0
2, 52560, Note_on_c, 0, 60, 0
2, 52560, Note_on_c, 0, 66, 0
2, 52560, Note_on_c, 0, 68, 0
2, 52560, Note_on_c, 0, 53, 58
2, 52560, Control_c, 0, 64, 127
2, 52560, Note_on_c, 0, 25, 54
2, 52560, Note_on_c, 0, 37, 54
2, 52611, Note_on_c, 0, 61, 58
2, 52636, Note_on_c, 0, 65, 58
2, 52661, Note_on_c, 0, 68, 58
2, 52680, Note_on_c, 0, 37, 0
2, 52680, Note_on_c, 0, 25, 0
2, 52680, Note_on_c, 0, 44, 65
2, 52799, Note_on_c, 0, 44, 0
2, 52799, Control_c, 0, 64, 0
2, 52799, Note_on_c, 0, 37, 57
2, 52920, Note_on_c, 0, 37, 0
2, 52920, Note_on_c, 0, 61, 0
2, 52920, Note_on_c, 0, 47, 0
2, 52920, Note_on_c, 0, 53, 0
2, 52920, Note_on_c, 0, 68, 0
2, 52920, Note_on_c, 0, 65, 0
2, 52920, Note_on_c, 0, 56, 0
2, 52920, Note_on_c, 0, 56, 90
2, 52920, Control_c, 0, 64, 127
2, 52920, Note_on_c, 0, 44, 64
2, 53040, Note_on_c, 0, 44, 0
2, 53040, Note_on_c, 0, 37, 56
2, 53159, Note_on_c, 0, 37, 0
2, 53159, Control_c, 0, 64, 0
2, 53159, Note_on_c, 0, 44, 63
2, 53280, Note_on_c, 0, 44, 0
2, 53280, Note_on_c, 0, 58, 89
2, 53280, Note_on_c, 0, 61, 89
2, 53280, Control_c, 0, 64, 127
2, 53280, Note_on_c, 0, 54, 66
2, 53400, Note_on_c, 0, 54, 0
2, 53400, Note_on_c, 0, 44, 57
2, 53519, Note_on_c, 0, 44, 0
2, 53519, Control_c, 0, 64, 0
2, 53519, Note_on_c, 0, 37, 56
2, 53640, Note_on_c, 0, 37, 0
2, 53640, Control_c, 0, 64, 127
2, 53640, Note_on_c, 0, 44, 63
2, 53754, Note_on_c, 0, 61, 0
2, 53754, Note_on_c, 0, 58, 0
2, 53760, Note_on_c, 0, 44, 0
2, 53760, Note_on_c, 0, 37, 60
2, 53820, Note_on_c, 0, 60, 106
2, 53820, Note_on_c, 0, 65, 106
2, 53879, Note_on_c, 0, 37, 0
2, 53879, Control_c, 0, 64, 0
2, 53879, Note_on_c, 0, 44, 64
2, 53978, Note_on_c, 0, 65, 0
2, 53978, Note_on_c, 0, 60, 0
2, 54000, Note_on_c, 0, 56, 0
2, 54000, Note_on_c, 0, 44, 0
2, 54000, Note_on_c, 0, 56, 101
2, 54000, Note_on_c, 0, 61, 101
2, 54000, Note_on_c, 0, 65, 101
2, 54000, Control_c, 0, 64, 127
2, 54000, Note_on_c, 0, 53, 69
2, 54120, Note_on_c, 0, 53, 0
2, 54120, Note_on_c, 0, 44, 51
2, 54239, Note_on_c, 0, 44, 0
2, 54239, Note_on_c, 0, 73, 57
2, 54239, Note_on_c, 0, 37, 54
2, 54360, Note_on_c, 0, 37, 0
2, 54360, Note_on_c, 0, 73, 0
2, 54360, Note_on_c, 0, 77, 78
2, 54360, Note_on_c, 0, 80, 78
2, 54360, Control_c, 0, 64, 0
2, 54360, Control_c, 0, 64, 127
2, 54360, Note_on_c, 0, 44, 65
2, 54480, Note_on_c, 0, 44, 0
2, 54480, Note_on_c, 0, 77, 0
2, 54480, Note_on_c, 0, 80, 0
2, 54480, Note_on_c, 0, 73, 64
2, 54480, Note_on_c, 0, 82, 64
2, 54480, Note_on_c, 0, 37, 55
2, 54599, Note_on_c, 0, 37, 0
2, 54599, Note_on_c, 0, 73, 0
2, 54599, Note_on_c, 0, 82, 0
2, 54599, Note_on_c, 0, 77, 60
2, 54599, Note_on_c, 0, 80, 60
2, 54599, Control_c, 0, 64, 0
2, 54599, Note_on_c, 0, 44, 65
2, 54720, Note_on_c, 0, 44, 0
2, 54720, Note_on_c, 0, 77, 0
2, 54720, Note_on_c, 0, 80, 0
2, 54720, Note_on_c, 0, 77, 59
2, 54720, Note_on_c, 0, 80, 59
2, 54720, Control_c, 0, 64, 127
2, 54720, Note_on_c, 0, 53, 69
2, 54840, Note_on_c, 0, 53, 0
2, 54840, Note_on_c, 0, 44, 55
2, 54959, Note_on_c, 0, 44, 0
2, 54959, Note_on_c, 0, 37, 57
2, 55080, Note_on_c, 0, 37, 0
2, 55080, Note_on_c, 0, 77, 0
2, 55080, Note_on_c, 0, 80, 0
2, 55080, Note_on_c, 0, 70, 57
2, 55080, Note_on_c, 0, 78, 57
2, 55080, Control_c, 0, 64, 0
2, 55080, Control_c, 0, 64, 127
2, 55080, Note_on_c, 0, 44, 61
2, 55200, Note_on_c, 0, 44, 0
2, 55200, Note_on_c, 0, 37, 56
2, 55319, Note_on_c, 0, 37, 0
2, 55319, Note_on_c, 0, 78, 0
2, 55319, Note_on_c, 0, 70, 0
2, 55319, Note_on_c, 0, 68, 53
2, 55319, Note_on_c, 0, 77, 53
2, 55319, Note_on_c, 0, 44, 68
2, 55440, Note_on_c, 0, 44, 0
2, 55440, Note_on_c, 0, 65, 0
2, 55440, Note_on_c, 0, 61, 0
2, 55440, Note_on_c, 0, 56, 0
2, 55440, Note_on_c, 0, 77, 0
2, 55440, Note_on_c, 0, 68, 0
2, 55440, Note_on_c, 0, 68, 60
2, 55440, Note_on_c, 0, 77, 60
2, 55440, Control_c, 0, 64, 0
2, 55440, Control_c, 0, 64, 127
2, 55440, Note_on_c, 0, 53, 67
2, 55560, Note_on_c, 0, 53, 0
2, 55560, Note_on_c, 0, 44, 58
2, 55620, Note_on_c, 0, 77, 0
2, 55620, Note_on_c, 0, 68, 0
2, 55679, Note_on_c, 0, 44, 0
2, 55679, Note_on_c, 0, 37, 55
2, 55800, Note_on_c, 0, 37, 0
2, 55800, Note_on_c, 0, 63, 93
2, 55800, Note_on_c, 0, 66, 93
2, 55800, Control_c, 0, 64, 0
2, 55800, Control_c, 0, 64, 127
2, 55800, Note_on_c, 0, 44, 61
2, 55920, Note_on_c, 0, 44, 0
2, 55920, Note_on_c, 0, 37, 57
2, 56039, Note_on_c, 0, 37, 0
2, 56039, Note_on_c, 0, 44, 64
2, 56117, Note_on_c, 0, 66, 0
2, 56117, Note_on_c, 0, 63, 0
2, 56160, Note_on_c, 0, 44, 0
2, 56160, Note_on_c, 0, 65, 99
2, 56160, Note_on_c, 0, 68, 99
2, 56160, Note_on_c, 0, 60, 73
2, 56160, Control_c, 0, 64, 0
2, 56160, Control_c, 0, 64, 127
2, 56160, Note_on_c, 0, 54, 65
2, 56280, Note_on_c, 0, 54, 0
2, 56280, Note_on_c, 0, 44, 53
2, 56318, Note_on_c, 0, 65, 0
2, 56318, Note_on_c, 0, 68, 0
2, 56340, Note_on_c, 0, 66, 102
2, 56340, Note_on_c, 0, 70, 102
2, 56399, Note_on_c, 0, 44, 0
2, 56399, Note_on_c, 0, 37, 57
2, 56520, Note_on_c, 0, 37, 0
2, 56520, Control_c, 0, 64, 0
2, 56520, Control_c, 0, 64, 127
2, 56520, Note_on_c, 0, 44, 65
2, 56640, Note_on_c, 0, 44, 0
2, 56640, Note_on_c, 0, 37, 54
2, 56759, Note_on_c, 0, 37, 0
2, 56759, Note_on_c, 0, 70, 0
2, 56759, Note_on_c, 0, 66, 0
2, 56759, Note_on_c, 0, 65, 74
2, 56759, Note_on_c, 0, 68, 74
2, 56759, Control_c, 0, 64, 0
2, 56759, Note_on_c, 0, 44, 61
2, 56880, Note_on_c, 0, 44, 0
2, 56880, Note_on_c, 0, 60, 0
2, 56880, Note_on_c, 0, 65, 0
2, 56880, Note_on_c, 0, 68, 0
2, 56880, Note_on_c, 0, 61, 99
2, 56880, Note_on_c, 0, 65, 99
2, 56880, Note_on_c, 0, 68, 99
2, 56880, Control_c, 0, 64, 127
2, 56880, Note_on_c, 0, 53, 73
2, 57000, Note_on_c, 0, 53, 0
2, 57000, Note_on_c, 0, 44, 56
2, 57119, Note_on_c, 0, 44, 0
2, 57119, Note_on_c, 0, 73, 50
2, 57119, Note_on_c, 0, 37, 54
2, 57240, Note_on_c, 0, 37, 0
2, 57240, Note_on_c, 0, 73, 0
2, 57240, Note_on_c, 0, 77, 71
2, 57240, Note_on_c, 0, 80, 71
2, 57240, Control_c, 0, 64, 0
2, 57240, Control_c, 0, 64, 127
2, 57240, Note_on_c, 0, 44, 62
2, 57360, Note_on_c, 0, 44, 0
2, 57360, Note_on_c, 0, 77, 0
2, 57360, Note_on_c, 0, 80, 0
2, 57360, Note_on_c, 0, 73, 63
2, 57360, Note_on_c, 0, 82, 63
2, 57360, Note_on_c, 0, 37, 55
2, 57479, Note_on_c, 0, 37, 0
2, 57479, Note_on_c, 0, 73, 0
2, 57479, Note_on_c, 0, 82, 0
2, 57479, Note_on_c, 0, 77, 59
2, 57479, Note_on_c, 0, 80, 59
2, 57479, Control_c, 0, 64, 0
2, 57479, Note_on_c, 0, 44, 63
2, 57600, Note_on_c, 0, 44, 0
2, 57600, Note_on_c, 0, 77, 0
2, 57600, Note_on_c, 0, 80, 0
2, 57600, Note_on_c, 0, 77, 63
2, 57600, Note_on_c, 0, 80, 63
2, 57600, Control_c, 0, 64, 127
2, 57600, Note_on_c, 0, 53, 66
2, 57720, Note_on_c, 0, 53, 0
2, 57720, Note_on_c, 0, 44, 56
2, 57839, Note_on_c, 0, 44, 0
2, 57839, Note_on_c, 0, 37, 53
2, 57960, Note_on_c, 0, 37, 0
2, 57960, Note_on_c, 0, 77, 0
2, 57960, Note_on_c, 0, 80, 0
2, 57960, Note_on_c, 0, 75, 54
2, 57960, Note_on_c, 0, 78, 54
2, 57960, Control_c, 0, 64, 0
2, 57960, Control_c, 0, 64, 127
2, 57960, Note_on_c, 0, 44, 60
2, 58080, Note_on_c, 0, 44, 0
2, 58080, Note_on_c, 0, 37, 55
2, 58199, Note_on_c, 0, 37, 0
2, 58199, Note_on_c, 0, 78, 0
2, 58199, Note_on_c, 0, 75, 0
2, 58199, Note_on_c, 0, 73, 58
2, 58199, Note_on_c, 0, 77, 58
2, 58199, Note_on_c, 0, 44, 67
2, 58320, Note_on_c, 0, 44, 0
2, 58320, Note_on_c, 0, 68, 0
2, 58320, Note_on_c, 0, 65, 0
2, 58320, Note_on_c, 0, 61, 0
2, 58320, Note_on_c, 0, 77, 0
2, 58320, Note_on_c, 0, 73, 0
2, 58320, Note_on_c, 0, 73, 57
2, 58320, Note_on_c, 0, 77, 57
2, 58320, Control_c, 0, 64, 0
2, 58320, Control_c, 0, 64, 127
2, 58320, Note_on_c, 0, 53, 67
2, 58440, Note_on_c, 0, 53, 0
2, 58440, Note_on_c, 0, 77, 0
2, 58440, Note_on_c, 0, 73, 0
2, 58440, Note_on_c, 0, 44, 51
2, 58559, Note_on_c, 0, 44, 0
2, 58559, Note_on_c, 0, 65, 75
2, 58559, Note_on_c, 0, 68, 75
2, 58559, Note_on_c, 0, 37, 54
2, 58680, Note_on_c, 0, 37, 0
2, 58680, Note_on_c, 0, 68, 0
2, 58680, Note_on_c, 0, 65, 0
2, 58680, Note_on_c, 0, 66, 106
2, 58680, Note_on_c, 0, 70, 106
2, 58680, Note_on_c, 0, 61, 76
2, 58680, Control_c, 0, 64, 0
2, 58680, Control_c, 0, 64, 127
2, 58680, Note_on_c, 0, 44, 68
2, 58800, Note_on_c, 0, 44, 0
2, 58800, Note_on_c, 0, 37, 53
2, 58919, Note_on_c, 0, 37, 0
2, 58919, Control_c, 0, 64, 0
2, 58919, Note_on_c, 0, 44, 61
2, 59040, Note_on_c, 0, 44, 0
2, 59040, Control_c, 0, 64, 127
2, 59040, Note_on_c, 0, 56, 72
2, 59160, Note_on_c, 0, 56, 0
2, 59160, Note_on_c, 0, 44, 54
2, 59220, Note_on_c, 0, 70, 0
2, 59220, Note_on_c, 0, 66, 0
2, 59220, Note_on_c, 0, 65, 90
2, 59220, Note_on_c, 0, 68, 90
2, 59279, Note_on_c, 0, 44, 0
2, 59279, Note_on_c, 0, 37, 57
2, 59378, Note_on_c, 0, 68, 0
2, 59378, Note_on_c, 0, 65, 0
2, 59400, Note_on_c, 0, 37, 0
2, 59400, Note_on_c, 0, 63, 86
2, 59400, Note_on_c, 0, 66, 86
2, 59400, Control_c, 0, 64, 0
2, 59400, Control_c, 0, 64, 127
2, 59400, Note_on_c, 0, 44, 65
2, 59520, Note_on_c, 0, 44, 0
2, 59520, Note_on_c, 0, 37, 55
2, 59610, Note_on_c, 0, 66, 0
2, 59610, Note_on_c, 0, 63, 0
2, 59639, Note_on_c, 0, 37, 0
2, 59639, Note_on_c, 0, 61, 90
2, 59639, Note_on_c, 0, 65, 90
2, 59639, Note_on_c, 0, 44, 61
2, 59745, Note_on_c, 0, 65, 0
2, 59745, Note_on_c, 0, 61, 0
2, 59760, Note_on_c, 0, 61, 0
2, 59760, Note_on_c, 0, 44, 0
2, 59760, Note_on_c, 0, 61, 103
2, 59760, Note_on_c, 0, 65, 103
2, 59760, Control_c, 0, 64, 0
2, 59760, Control_c, 0, 64, 127
2, 59760, Note_on_c, 0, 53, 68
2, 59880, Note_on_c, 0, 53, 0
2, 59880, Note_on_c, 0, 44, 55
2, 59999, Note_on_c, 0, 44, 0
2, 59999, Note_on_c, 0, 68, 72
2, 59999, Note_on_c, 0, 37, 51
2, 60077, Note_on_c, 0, 65, 0
2, 60077, Note_on_c, 0, 61, 0
2, 60105, Note_on_c, 0, 68, 0
2, 60120, Note_on_c, 0, 37, 0
2, 60120, Note_on_c, 0, 63, 76
2, 60120, Note_on_c, 0, 71, 76
2, 60120, Note_on_c, 0, 59, 74
2, 60120, Note_on_c, 0, 63, 74
2, 60120, Control_c, 0, 64, 0
2, 60120, Control_c, 0, 64, 127
2, 60120, Note_on_c, 0, 44, 68
2, 60224, Note_on_c, 0, 71, 0
2, 60224, Note_on_c, 0, 63, 0
2, 60240, Note_on_c, 0, 44, 0
2, 60240, Note_on_c, 0, 65, 79
2, 60240, Note_on_c, 0, 73, 79
2, 60240, Note_on_c, 0, 37, 53
2, 60344, Note_on_c, 0, 73, 0
2, 60344, Note_on_c, 0, 65, 0
2, 60359, Note_on_c, 0, 37, 0
2, 60359, Note_on_c, 0, 63, 68
2, 60359, Note_on_c, 0, 71, 68
2, 60359, Note_on_c, 0, 44, 66
2, 60465, Note_on_c, 0, 71, 0
2, 60465, Note_on_c, 0, 63, 0
2, 60480, Note_on_c, 0, 44, 0
2, 60480, Note_on_c, 0, 63, 72
2, 60480, Note_on_c, 0, 71, 72
2, 60480, Control_c, 0, 64, 0
2, 60480, Control_c, 0, 64, 127
2, 60480, Note_on_c, 0, 53, 67
2, 60600, Note_on_c, 0, 53, 0
2, 60600, Note_on_c, 0, 44, 56
2, 60719, Note_on_c, 0, 44, 0
2, 60719, Note_on_c, 0, 37, 55
2, 60797, Note_on_c, 0, 71, 0
2, 60797, Note_on_c, 0, 63, 0
2, 60840, Note_on_c, 0, 59, 0
2, 60840, Note_on_c, 0, 63, 0
2, 60840, Note_on_c, 0, 37, 0
2, 60840, Note_on_c, 0, 61, 53
2, 60840, Note_on_c, 0, 70, 53
2, 60840, Note_on_c, 0, 65, 99
2, 60840, Control_c, 0, 64, 0
2, 60840, Control_c, 0, 64, 127
2, 60840, Note_on_c, 0, 44, 61
2, 60960, Note_on_c, 0, 44, 0
2, 60960, Note_on_c, 0, 37, 57
2, 61079, Note_on_c, 0, 37, 0
2, 61079, Note_on_c, 0, 70, 0
2, 61079, Note_on_c, 0, 61, 0
2, 61079, Note_on_c, 0, 59, 56
2, 61079, Note_on_c, 0, 68, 56
2, 61079, Control_c, 0, 64, 0
2, 61079, Note_on_c, 0, 44, 61
2, 61157, Note_on_c, 0, 65, 0
2, 61200, Note_on_c, 0, 59, 0
2, 61200, Note_on_c, 0, 68, 0
2, 61200, Note_on_c, 0, 44, 0
2, 61200, Note_on_c, 0, 70, 73
2, 61200, Note_on_c, 0, 58, 85
2, 61200, Note_on_c, 0, 61, 85
2, 61200, Control_c, 0, 64, 127
2, 61200, Note_on_c, 0, 53, 69
2, 61304, Note_on_c, 0, 61, 0
2, 61304, Note_on_c, 0, 58, 0
2, 61320, Note_on_c, 0, 53, 0
2, 61320, Note_on_c, 0, 60, 99
2, 61320, Note_on_c, 0, 63, 99
2, 61320, Note_on_c, 0, 46, 58
2, 61424, Note_on_c, 0, 63, 0
2, 61424, Note_on_c, 0, 60, 0
2, 61439, Note_on_c, 0, 46, 0
2, 61439, Note_on_c, 0, 61, 101
2, 61439, Note_on_c, 0, 65, 101
2, 61439, Note_on_c, 0, 37, 51
2, 61545, Note_on_c, 0, 65, 0
2, 61545, Note_on_c, 0, 61, 0
2, 61560, Note_on_c, 0, 37, 0
2, 61560, Note_on_c, 0, 61, 82
2, 61560, Note_on_c, 0, 65, 82
2, 61560, Control_c, 0, 64, 0
2, 61560, Control_c, 0, 64, 127
2, 61560, Note_on_c, 0, 46, 64
2, 61680, Note_on_c, 0, 46, 0
2, 61680, Note_on_c, 0, 37, 55
2, 61799, Note_on_c, 0, 37, 0
2, 61799, Note_on_c, 0, 46, 67
2, 61920, Note_on_c, 0, 46, 0
2, 61920, Control_c, 0, 64, 0
2, 61920, Note_on_c, 0, 53, 64
2, 62040, Note_on_c, 0, 53, 0
2, 62040, Note_on_c, 0, 46, 57
2, 62159, Note_on_c, 0, 46, 0
2, 62159, Note_on_c, 0, 37, 51
2, 62280, Note_on_c, 0, 37, 0
2, 62280, Note_on_c, 0, 65, 0
2, 62280, Note_on_c, 0, 61, 0
2, 62280, Note_on_c, 0, 60, 79
2, 62280, Note_on_c, 0, 63, 79
2, 62280, Control_c, 0, 64, 127
2, 62280, Note_on_c, 0, 46, 69
2, 62400, Note_on_c, 0, 46, 0
2, 62400, Note_on_c, 0, 37, 57
2, 62467, Note_on_c, 0, 70, 0
2, 62519, Note_on_c, 0, 60, 0
2, 62519, Note_on_c, 0, 63, 0
2, 62519, Note_on_c, 0, 37, 0
2, 62519, Note_on_c, 0, 58, 73
2, 62519, Note_on_c, 0, 61, 73
2, 62519, Control_c, 0, 64, 0
2, 62519, Note_on_c, 0, 46, 65
2, 62640, Note_on_c, 0, 46, 0
2, 62640, Note_on_c, 0, 61, 0
2, 62640, Note_on_c, 0, 58, 0
2, 62640, Note_on_c, 0, 58, 93
2, 62640, Note_on_c, 0, 61, 93
2, 62640, Control_c, 0, 64, 127
2, 62640, Note_on_c, 0, 54, 66
2, 62760, Note_on_c, 0, 54, 0
2, 62760, Note_on_c, 0, 46, 55
2, 62879, Note_on_c, 0, 46, 0
2, 62879, Note_on_c, 0, 65, 61
2, 62879, Note_on_c, 0, 37, 52
2, 62957, Note_on_c, 0, 61, 0
2, 62957, Note_on_c, 0, 58, 0
2, 62985, Note_on_c, 0, 65, 0
2, 63000, Note_on_c, 0, 37, 0
2, 63000, Note_on_c, 0, 63, 73
2, 63000, Note_on_c, 0, 66, 73
2, 63000, Note_on_c, 0, 58, 89
2, 63000, Note_on_c, 0, 63, 89
2, 63000, Control_c, 0, 64, 0
2, 63000, Control_c, 0, 64, 127
2, 63000, Note_on_c, 0, 46, 64
2, 63104, Note_on_c, 0, 66, 0
2, 63104, Note_on_c, 0, 63, 0
2, 63120, Note_on_c, 0, 46, 0
2, 63120, Note_on_c, 0, 65, 72
2, 63120, Note_on_c, 0, 68, 72
2, 63120, Note_on_c, 0, 37, 58
2, 63224, Note_on_c, 0, 68, 0
2, 63224, Note_on_c, 0, 65, 0
2, 63239, Note_on_c, 0, 37, 0
2, 63239, Note_on_c, 0, 63, 67
2, 63239, Note_on_c, 0, 66, 67
2, 63239, Note_on_c, 0, 46, 63
2, 63345, Note_on_c, 0, 66, 0
2, 63345, Note_on_c, 0, 63, 0
2, 63360, Note_on_c, 0, 46, 0
2, 63360, Note_on_c, 0, 63, 73
2, 63360, Note_on_c, 0, 66, 73
2, 63360, Control_c, 0, 64, 0
2, 63360, Control_c, 0, 64, 127
2, 63360, Note_on_c, 0, 54, 65
2, 63480, Note_on_c, 0, 54, 0
2, 63480, Note_on_c, 0, 44, 51
2, 63599, Note_on_c, 0, 44, 0
2, 63599, Note_on_c, 0, 37, 60
2, 63677, Note_on_c, 0, 66, 0
2, 63677, Note_on_c, 0, 63, 0
2, 63720, Note_on_c, 0, 58, 0
2, 63720, Note_on_c, 0, 63, 0
2, 63720, Note_on_c, 0, 37, 0
2, 63720, Note_on_c, 0, 56, 72
2, 63720, Note_on_c, 0, 65, 72
2, 63720, Note_on_c, 0, 60, 89
2, 63720, Control_c, 0, 64, 0
2, 63720, Control_c, 0, 64, 127
2, 63720, Note_on_c, 0, 44, 68
2, 63824, Note_on_c, 0, 65, 0
2, 63824, Note_on_c, 0, 56, 0
2, 63840, Note_on_c, 0, 44, 0
2, 63840, Note_on_c, 0, 54, 72
2, 63840, Note_on_c, 0, 63, 72
2, 63840, Note_on_c, 0, 37, 52
2, 63944, Note_on_c, 0, 63, 0
2, 63944, Note_on_c, 0, 54, 0
2, 63959, Note_on_c, 0, 37, 0
2, 63959, Note_on_c, 0, 53, 65
2, 63959, Note_on_c, 0, 61, 65
2, 63959, Note_on_c, 0, 44, 68
2, 64037, Note_on_c, 0, 60, 0
2, 64065, Note_on_c, 0, 53, 0
2, 64065, Note_on_c, 0, 61, 0
2, 64080, Note_on_c, 0, 44, 0
2, 64080, Note_on_c, 0, 61, 73
2, 64080, Control_c, 0, 64, 0
2, 64080, Control_c, 0, 64, 127
2, 64080, Note_on_c, 0, 53, 67
2, 64200, Note_on_c, 0, 53, 0
2, 64200, Note_on_c, 0, 44, 58
2, 64319, Note_on_c, 0, 44, 0
2, 64319, Note_on_c, 0, 37, 54
2, 64440, Note_on_c, 0, 37, 0
2, 64440, Control_c, 0, 64, 0
2, 64440, Control_c, 0, 64, 127
2, 64440, Note_on_c, 0, 44, 67
2, 64560, Note_on_c, 0, 44, 0
2, 64560, Note_on_c, 0, 37, 54
2, 64679, Note_on_c, 0, 37, 0
2, 64679, Control_c, 0, 64, 0
2, 64679, Note_on_c, 0, 44, 63
2, 64800, Note_on_c, 0, 44, 0
2, 64800, Control_c, 0, 64, 127
2, 64800, Note_on_c, 0, 53, 64
2, 64920, Note_on_c, 0, 53, 0
2, 64920, Note_on_c, 0, 44, 52
2, 65039, Note_on_c, 0, 44, 0
2, 65039, Note_on_c, 0, 37, 59
2, 65160, Note_on_c, 0, 37, 0
2, 65160, Control_c, 0, 64, 0
2, 65160, Control_c, 0, 64, 127
2, 65160, Note_on_c, 0, 44, 63
2, 65280, Note_on_c, 0, 44, 0
2, 65280, Note_on_c, 0, 37, 52
2, 65347, Note_on_c, 0, 61, 0
2, 65399, Note_on_c, 0, 37, 0
2, 65399, Note_on_c, 0, 44, 66
2, 65520, Note_on_c, 0, 44, 0
2, 65520, Note_on_c, 0, 61, 86
2, 65520, Note_on_c, 0, 65, 86
2, 65520, Control_c, 0, 64, 0
2, 65520, Control_c, 0, 64, 127
2, 65520, Note_on_c, 0, 53, 72
2, 65640, Note_on_c, 0, 53, 0
2, 65640, Note_on_c, 0, 44, 55
2, 65759, Note_on_c, 0, 44, 0
2, 65759, Note_on_c, 0, 37, 55
2, 65837, Note_on_c, 0, 65, 0
2, 65837, Note_on_c, 0, 61, 0
2, 65880, Note_on_c, 0, 37, 0
2, 65880, Note_on_c, 0, 60, 90
2, 65880, Note_on_c, 0, 65, 90
2, 65880, Note_on_c, 0, 68, 90
2, 65880, Control_c, 0, 64, 0
2, 65880, Control_c, 0, 64, 127
2, 65880, Note_on_c, 0, 44, 61
2, 66000, Note_on_c, 0, 44, 0
2, 66000, Note_on_c, 0, 37, 57
2, 66119, Note_on_c, 0, 37, 0
2, 66119, Note_on_c, 0, 44, 66
2, 66197, Note_on_c, 0, 68, 0
2, 66197, Note_on_c, 0, 60, 0
2, 66197, Note_on_c, 0, 65, 0
2, 66240, Note_on_c, 0, 44, 0
2, 66240, Note_on_c, 0, 59, 90
2, 66240, Note_on_c, 0, 63, 90
2, 66240, Note_on_c, 0, 66, 90
2, 66240, Note_on_c, 0, 70, 90
2, 66240, Control_c, 0, 64, 0
2, 66240, Control_c, 0, 64, 127
2, 66240, Note_on_c, 0, 54, 69
2, 66360, Note_on_c, 0, 54, 0
2, 66360, Note_on_c, 0, 44, 59
2, 66479, Note_on_c, 0, 44, 0
2, 66479, Note_on_c, 0, 37, 53
2, 66557, Note_on_c, 0, 70, 0
2, 66557, Note_on_c, 0, 66, 0
2, 66557, Note_on_c, 0, 59, 0
2, 66557, Note_on_c, 0, 63, 0
2, 66600, Note_on_c, 0, 37, 0
2, 66600, Note_on_c, 0, 60, 62
2, 66600, Note_on_c, 0, 65, 62
2, 66600, Note_on_c, 0, 68, 62
2, 66600, Control_c, 0, 64, 0
2, 66600, Control_c, 0, 64, 127
2, 66600, Note_on_c, 0, 44, 64
2, 66720, Note_on_c, 0, 44, 0
2, 66720, Note_on_c, 0, 60, 0
2, 66720, Note_on_c, 0, 65, 0
2, 66720, Note_on_c, 0, 68, 0
2, 66720, Note_on_c, 0, 63, 66
2, 66720, Note_on_c, 0, 66, 66
2, 66720, Note_on_c, 0, 37, 57
2, 66839, Note_on_c, 0, 37, 0
2, 66839, Note_on_c, 0, 66, 0
2, 66839, Note_on_c, 0, 63, 0
2, 66839, Note_on_c, 0, 61, 67
2, 66839, Note_on_c, 0, 65, 67
2, 66839, Note_on_c, 0, 44, 66
2, 66960, Note_on_c, 0, 44, 0
2, 66960, Note_on_c, 0, 65, 0
2, 66960, Note_on_c, 0, 61, 0
2, 66960, Note_on_c, 0, 61, 94
2, 66960, Note_on_c, 0, 65, 94
2, 66960, Control_c, 0, 64, 0
2, 66960, Control_c, 0, 64, 127
2, 66960, Note_on_c, 0, 53, 65
2, 67080, Note_on_c, 0, 53, 0
2, 67080, Note_on_c, 0, 44, 57
2, 67199, Note_on_c, 0, 44, 0
2, 67199, Note_on_c, 0, 73, 69
2, 67199, Note_on_c, 0, 37, 60
2, 67320, Note_on_c, 0, 37, 0
2, 67320, Note_on_c, 0, 73, 0
2, 67320, Note_on_c, 0, 77, 81
2, 67320, Note_on_c, 0, 80, 81
2, 67320, Control_c, 0, 64, 0
2, 67320, Control_c, 0, 64, 127
2, 67320, Note_on_c, 0, 44, 65
2, 67440, Note_on_c, 0, 44, 0
2, 67440, Note_on_c, 0, 77, 0
2, 67440, Note_on_c, 0, 80, 0
2, 67440, Note_on_c, 0, 73, 87
2, 67440, Note_on_c, 0, 82, 87
2, 67440, Note_on_c, 0, 37, 58
2, 67559, Note_on_c, 0, 37, 0
2, 67559, Note_on_c, 0, 73, 0
2, 67559, Note_on_c, 0, 82, 0
2, 67559, Note_on_c, 0, 77, 71
2, 67559, Note_on_c, 0, 80, 71
2, 67559, Control_c, 0, 64, 0
2, 67559, Note_on_c, 0, 44, 69
2, 67680, Note_on_c, 0, 44, 0
2, 67680, Note_on_c, 0, 77, 0
2, 67680, Note_on_c, 0, 80, 0
2, 67680, Note_on_c, 0, 77, 68
2, 67680, Note_on_c, 0, 80, 68
2, 67680, Control_c, 0, 64, 127
2, 67680, Note_on_c, 0, 53, 65
2, 67800, Note_on_c, 0, 53, 0
2, 67800, Note_on_c, 0, 44, 54
2, 67919, Note_on_c, 0, 44, 0
2, 67919, Note_on_c, 0, 37, 55
2, 68040, Note_on_c, 0, 37, 0
2, 68040, Control_c, 0, 64, 0
2, 68040, Control_c, 0, 64, 127
2, 68040, Note_on_c, 0, 44, 65
2, 68160, Note_on_c, 0, 44, 0
2, 68160, Note_on_c, 0, 37, 61
2, 68279, Note_on_c, 0, 37, 0
2, 68279, Note_on_c, 0, 44, 61
2, 68400, Note_on_c, 0, 44, 0
2, 68400, Note_on_c, 0, 80, 0
2, 68400, Note_on_c, 0, 61, 0
2, 68400, Note_on_c, 0, 65, 0
2, 68400, Note_on_c, 0, 77, 0
2, 68400, Note_on_c, 0, 56, 72
2, 68400, Note_on_c, 0, 61, 72
2, 68400, Note_on_c, 0, 53, 63
2, 68400, Control_c, 0, 64, 0
2, 68400, Control_c, 0, 64, 127
2, 68400, Note_on_c, 0, 53, 63
2, 68520, Note_on_c, 0, 53, 0
2, 68520, Note_on_c, 0, 44, 50
2, 68639, Note_on_c, 0, 44, 0
2, 68639, Note_on_c, 0, 37, 53
2, 68717, Note_on_c, 0, 56, 0
2, 68717, Note_on_c, 0, 61, 0
2, 68760, Note_on_c, 0, 53, 0
2, 68760, Note_on_c, 0, 37, 0
2, 68760, Note_on_c, 0, 61, 89
2, 68760, Note_on_c, 0, 65, 89
2, 68760, Note_on_c, 0, 57, 92
2, 68760, Control_c, 0, 64, 0
2, 68760, Control_c, 0, 64, 127
2, 68760, Note_on_c, 0, 44, 63
2, 68880, Note_on_c, 0, 44, 0
2, 68880, Note_on_c, 0, 37, 57
2, 68999, Note_on_c, 0, 37, 0
2, 68999, Note_on_c, 0, 44, 69
2, 69077, Note_on_c, 0, 57, 0
2, 69120, Note_on_c, 0, 61, 0
2, 69120, Note_on_c, 0, 65, 0
2, 69120, Note_on_c, 0, 44, 0
2, 69120, Note_on_c, 0, 60, 89
2, 69120, Note_on_c, 0, 66, 89
2, 69120, Note_on_c, 0, 58, 81
2, 69120, Control_c, 0, 64, 0
2, 69120, Control_c, 0, 64, 127
2, 69120, Note_on_c, 0, 54, 69
2, 69240, Note_on_c, 0, 54, 0
2, 69240, Note_on_c, 0, 44, 53
2, 69359, Note_on_c, 0, 44, 0
2, 69359, Note_on_c, 0, 37, 57
2, 69437, Note_on_c, 0, 58, 0
2, 69480, Note_on_c, 0, 60, 0
2, 69480, Note_on_c, 0, 66, 0
2, 69480, Note_on_c, 0, 37, 0
2, 69480, Note_on_c, 0, 60, 83
2, 69480, Note_on_c, 0, 65, 83
2, 69480, Note_on_c, 0, 56, 66
2, 69480, Control_c, 0, 64, 0
2, 69480, Control_c, 0, 64, 127
2, 69480, Note_on_c, 0, 44, 62
2, 69600, Note_on_c, 0, 44, 0
2, 69600, Note_on_c, 0, 60, 0
2, 69600, Note_on_c, 0, 65, 0
2, 69600, Note_on_c, 0, 56, 0
2, 69600, Note_on_c, 0, 63, 81
2, 69600, Note_on_c, 0, 54, 76
2, 69600, Note_on_c, 0, 37, 56
2, 69704, Note_on_c, 0, 54, 0
2, 69719, Note_on_c, 0, 37, 0
2, 69719, Note_on_c, 0, 63, 0
2, 69719, Note_on_c, 0, 61, 78
2, 69719, Note_on_c, 0, 53, 77
2, 69719, Control_c, 0, 64, 0
2, 69719, Note_on_c, 0, 44, 67
2, 69825, Note_on_c, 0, 53, 0
2, 69840, Note_on_c, 0, 44, 0
2, 69840, Note_on_c, 0, 61, 0
2, 69840, Note_on_c, 0, 53, 76
2, 69840, Note_on_c, 0, 61, 48
2, 69840, Control_c, 0, 64, 127
2, 69840, Note_on_c, 0, 53, 67
2, 69960, Note_on_c, 0, 53, 0
2, 69960, Note_on_c, 0, 44, 55
2, 70079, Note_on_c, 0, 44, 0
2, 70079, Note_on_c, 0, 61, 77
2, 70079, Note_on_c, 0, 37, 61
2, 70200, Note_on_c, 0, 37, 0
2, 70200, Note_on_c, 0, 61, 0
2, 70200, Note_on_c, 0, 65, 90
2, 70200, Note_on_c, 0, 68, 90
2, 70200, Control_c, 0, 64, 0
2, 70200, Control_c, 0, 64, 127
2, 70200, Note_on_c, 0, 44, 62
2, 70320, Note_on_c, 0, 44, 0
2, 70320, Note_on_c, 0, 65, 0
2, 70320, Note_on_c, 0, 68, 0
2, 70320, Note_on_c, 0, 61, 90
2, 70320, Note_on_c, 0, 70, 90
2, 70320, Note_on_c, 0, 37, 52
2, 70439, Note_on_c, 0, 37, 0
2, 70439, Note_on_c, 0, 61, 0
2, 70439, Note_on_c, 0, 70, 0
2, 70439, Note_on_c, 0, 65, 84
2, 70439, Note_on_c, 0, 68, 84
2, 70439, Note_on_c, 0, 44, 69
2, 70560, Note_on_c, 0, 44, 0
2, 70560, Note_on_c, 0, 65, 0
2, 70560, Note_on_c, 0, 53, 0
2, 70560, Note_on_c, 0, 61, 0
2, 70560, Note_on_c, 0, 68, 0
2, 70560, Note_on_c, 0, 65, 56
2, 70560, Note_on_c, 0, 68, 56
2, 70560, Control_c, 0, 64, 0
2, 70560, Control_c, 0, 64, 127
2, 70560, Note_on_c, 0, 53, 62
2, 70680, Note_on_c, 0, 53, 0
2, 70680, Note_on_c, 0, 44, 56
2, 70799, Note_on_c, 0, 44, 0
2, 70799, Note_on_c, 0, 56, 74
2, 70799, Note_on_c, 0, 37, 54
2, 70905, Note_on_c, 0, 56, 0
2, 70920, Note_on_c, 0, 37, 0
2, 70920, Note_on_c, 0, 51, 91
2, 70920, Control_c, 0, 64, 0
2, 70920, Control_c, 0, 64, 127
2, 70920, Note_on_c, 0, 44, 64
2, 71040, Note_on_c, 0, 44, 0
2, 71040, Note_on_c, 0, 37, 61
2, 71130, Note_on_c, 0, 51, 0
2, 71159, Note_on_c, 0, 37, 0
2, 71159, Note_on_c, 0, 49, 91
2, 71159, Note_on_c, 0, 44, 59
2, 71265, Note_on_c, 0, 49, 0
2, 71280, Note_on_c, 0, 65, 0
2, 71280, Note_on_c, 0, 68, 0
2, 71280, Note_on_c, 0, 44, 0
2, 71280, Note_on_c, 0, 49, 93
2, 71280, Note_on_c, 0, 56, 93
2, 71280, Control_c, 0, 64, 0
2, 71280, Control_c, 0, 64, 127
2, 71280, Note_on_c, 0, 53, 70
2, 71400, Note_on_c, 0, 53, 0
2, 71400, Note_on_c, 0, 44, 55
2, 71519, Note_on_c, 0, 44, 0
2, 71519, Note_on_c, 0, 37, 52
2, 71640, Note_on_c, 0, 37, 0
2, 71640, Control_c, 0, 64, 0
2, 71640, Control_c, 0, 64, 127
2, 71640, Note_on_c, 0, 44, 60
2, 71760, Note_on_c, 0, 44, 0
2, 71760, Note_on_c, 0, 37, 58
2, 71879, Note_on_c, 0, 37, 0
2, 71879, Control_c, 0, 64, 0
2, 71879, Note_on_c, 0, 44, 66
2, 72000, Note_on_c, 0, 44, 0
2, 72000, Control_c, 0, 64, 127
2, 72000, Note_on_c, 0, 52, 67
2, 72120, Note_on_c, 0, 52, 0
2, 72120, Note_on_c, 0, 44, 55
2, 72239, Note_on_c, 0, 44, 0
2, 72239, Note_on_c, 0, 37, 51
2, 72360, Note_on_c, 0, 37, 0
2, 72360, Control_c, 0, 64, 0
2, 72360, Control_c, 0, 64, 127
2, 72360, Note_on_c, 0, 44, 62
2, 72480, Note_on_c, 0, 44, 0
2, 72480, Note_on_c, 0, 37, 60
2, 72599, Note_on_c, 0, 37, 0
2, 72599, Note_on_c, 0, 44, 60
2, 72720, Note_on_c, 0, 44, 0
2, 72720, Control_c, 0, 64, 0
2, 72720, Control_c, 0, 64, 127
2, 72720, Note_on_c, 0, 53, 65
2, 72840, Note_on_c, 0, 53, 0
2, 72840, Note_on_c, 0, 44, 54
2, 72959, Note_on_c, 0, 44, 0
2, 72959, Note_on_c, 0, 37, 48
2, 73080, Note_on_c, 0, 37, 0
2, 73080, Control_c, 0, 64, 0
2, 73080, Control_c, 0, 64, 127
2, 73080, Note_on_c, 0, 44, 64
2, 73200, Note_on_c, 0, 44, 0
2, 73200, Note_on_c, 0, 37, 56
2, 73319, Note_on_c, 0, 37, 0
2, 73319, Note_on_c, 0, 44, 69
2, 73440, Note_on_c, 0, 44, 0
2, 73440, Control_c, 0, 64, 0
2, 73440, Control_c, 0, 64, 127
2, 73440, Note_on_c, 0, 53, 68
2, 73560, Note_on_c, 0, 53, 0
2, 73560, Note_on_c, 0, 44, 55
2, 73679, Note_on_c, 0, 44, 0
2, 73679, Note_on_c, 0, 37, 57
2, 73800, Note_on_c, 0, 37, 0
2, 73800, Control_c, 0, 64, 0
2, 73800, Control_c, 0, 64, 127
2, 73800, Note_on_c, 0, 44, 61
2, 73920, Note_on_c, 0, 44, 0
2, 73920, Note_on_c, 0, 37, 56
2, 74039, Note_on_c, 0, 37, 0
2, 74039, Note_on_c, 0, 44, 60
2, 74160, Note_on_c, 0, 44, 0
2, 74160, Control_c, 0, 64, 0
2, 74160, Note_on_c, 0, 53, 65
2, 74340, Note_on_c, 0, 53, 0
2, 74340, Note_on_c, 0, 56, 0
2, 74340, Note_on_c, 0, 49, 0
2, 74340, End_track
0, 0, End_of_file
