0, 0, Header, 1, 2, 192
1, 0, Start_track
1, 0, Title_t, "Ampico player piano roll #55903 Prelude Op 3 No 2 c/b Rachmaninoff p/b Goodson "
1, 0, Copyright_t, "Scanned by Terry Smythe, Winnipeg, Canada  ___________________________________________________\012\012KUNSTDERFUGE.COM LARGE CLASSICAL MIDI COLLECTION\012ONCLASSICAL BY ALESSANDRO SIMONETTO, PROPRIETOR\012___________________________________________________\012\012! Attention: this file is under copyright !\012\012(c)onclassical, (nc)smythe, 2010\012___________________________________________________\012\012NO ONE MAY REPUBLISH THIS FILE WITHOUT PERMISSION\012COMMERCIAL USES OF THIS FILE IS STRICTLY PROHIBITED\012___________________________________________________\012\012Files & contributor's list: http://kunstderfuge.com/\012Terms and conditions: http://kunstderfuge.com/notes.htm"
1, 0, Text_t, "Roll expression tracks converted to MIDI velocities\012"
1, 0, Time_signature, 4, 2, 24, 8
1, 0, Key_signature, 0, "major"
1, 0, Tempo, 461538
1, 0, Marker_t, "Standard MIDI:LPI 260:Tempo  60: 03-29-2003"
1, 0, End_track
2, 0, Start_track
2, 0, Title_t, "Piano"
2, 0, Program_c, 0, 0
2, 0, Control_c, 0, 7, 110
2, 1299, Note_on_c, 0, 33, 87
2, 1300, Note_on_c, 0, 45, 86
2, 1303, Note_on_c, 0, 57, 86
2, 1413, Control_c, 0, 64, 127
2, 2045, Control_c, 0, 64, 0
2, 2108, Note_on_c, 0, 32, 84
2, 2121, Note_on_c, 0, 44, 84
2, 2125, Note_on_c, 0, 56, 88
2, 2137, Note_on_c, 0, 33, 0
2, 2151, Note_on_c, 0, 45, 0
2, 2154, Note_on_c, 0, 57, 0
2, 2383, Control_c, 0, 64, 127
2, 3102, Control_c, 0, 64, 0
2, 3151, Note_on_c, 0, 25, 87
2, 3177, Note_on_c, 0, 37, 82
2, 3183, Note_on_c, 0, 49, 85
2, 3206, Note_on_c, 0, 32, 0
2, 3209, Note_on_c, 0, 44, 0
2, 3213, Note_on_c, 0, 56, 0
2, 3594, Control_c, 0, 64, 127
2, 5454, Control_c, 0, 67, 127
2, 5945, Control_c, 0, 64, 0
2, 5961, Note_on_c, 0, 61, 53
2, 5962, Note_on_c, 0, 68, 64
2, 5963, Note_on_c, 0, 73, 58
2, 5972, Note_on_c, 0, 52, 53
2, 5972, Note_on_c, 0, 56, 48
2, 5973, Note_on_c, 0, 64, 50
2, 6192, Control_c, 0, 64, 127
2, 6251, Note_on_c, 0, 64, 0
2, 6252, Note_on_c, 0, 68, 0
2, 6261, Note_on_c, 0, 56, 0
2, 6282, Note_on_c, 0, 71, 61
2, 6285, Note_on_c, 0, 76, 60
2, 6293, Note_on_c, 0, 64, 50
2, 6294, Note_on_c, 0, 68, 51
2, 6303, Note_on_c, 0, 56, 48
2, 6304, Note_on_c, 0, 59, 48
2, 6308, Note_on_c, 0, 61, 0
2, 6311, Note_on_c, 0, 73, 0
2, 6528, Note_on_c, 0, 75, 56
2, 6538, Note_on_c, 0, 63, 53
2, 6539, Note_on_c, 0, 70, 53
2, 6540, Note_on_c, 0, 67, 47
2, 6548, Note_on_c, 0, 55, 51
2, 6548, Note_on_c, 0, 58, 53
2, 6552, Note_on_c, 0, 56, 0
2, 6552, Note_on_c, 0, 52, 0
2, 6552, Note_on_c, 0, 64, 0
2, 6552, Note_on_c, 0, 59, 0
2, 6553, Note_on_c, 0, 68, 0
2, 6554, Note_on_c, 0, 71, 0
2, 6555, Note_on_c, 0, 76, 0
2, 6590, Control_c, 0, 64, 0
2, 6782, Note_on_c, 0, 37, 0
2, 6785, Note_on_c, 0, 49, 0
2, 6793, Note_on_c, 0, 25, 0
2, 6816, Note_on_c, 0, 75, 0
2, 6826, Note_on_c, 0, 63, 0
2, 6827, Note_on_c, 0, 67, 0
2, 6827, Note_on_c, 0, 70, 0
2, 6837, Note_on_c, 0, 55, 0
2, 6838, Note_on_c, 0, 58, 0
2, 6856, Note_on_c, 0, 57, 65
2, 6876, Note_on_c, 0, 33, 61
2, 6881, Note_on_c, 0, 45, 60
2, 7053, Control_c, 0, 64, 127
2, 7229, Note_on_c, 0, 74, 59
2, 7239, Note_on_c, 0, 60, 47
2, 7239, Note_on_c, 0, 62, 51
2, 7240, Note_on_c, 0, 66, 49
2, 7240, Note_on_c, 0, 69, 49
2, 7262, Note_on_c, 0, 54, 51
2, 7444, Note_on_c, 0, 74, 0
2, 7475, Control_c, 0, 67, 0
2, 7483, Control_c, 0, 64, 0
2, 7490, Note_on_c, 0, 57, 0
2, 7490, Note_on_c, 0, 74, 47
2, 7491, Note_on_c, 0, 62, 0
2, 7510, Note_on_c, 0, 33, 0
2, 7512, Note_on_c, 0, 45, 0
2, 7517, Note_on_c, 0, 69, 0
2, 7518, Note_on_c, 0, 74, 0
2, 7521, Control_c, 0, 67, 127
2, 7524, Note_on_c, 0, 56, 54
2, 7545, Note_on_c, 0, 32, 58
2, 7548, Note_on_c, 0, 44, 55
2, 7800, Control_c, 0, 64, 127
2, 7813, Note_on_c, 0, 66, 0
2, 7825, Note_on_c, 0, 60, 0
2, 7849, Note_on_c, 0, 54, 0
2, 7861, Note_on_c, 0, 72, 63
2, 7871, Note_on_c, 0, 60, 49
2, 7872, Note_on_c, 0, 63, 46
2, 7872, Note_on_c, 0, 66, 50
2, 7894, Note_on_c, 0, 51, 51
2, 7895, Note_on_c, 0, 54, 53
2, 8037, Note_on_c, 0, 72, 0
2, 8069, Note_on_c, 0, 72, 46
2, 8237, Note_on_c, 0, 44, 0
2, 8237, Note_on_c, 0, 32, 0
2, 8254, Note_on_c, 0, 51, 0
2, 8255, Note_on_c, 0, 54, 0
2, 8257, Note_on_c, 0, 66, 0
2, 8257, Note_on_c, 0, 72, 0
2, 8267, Note_on_c, 0, 60, 0
2, 8268, Note_on_c, 0, 63, 0
2, 8273, Control_c, 0, 64, 0
2, 8274, Note_on_c, 0, 49, 55
2, 8283, Note_on_c, 0, 25, 54
2, 8286, Note_on_c, 0, 37, 52
2, 8572, Control_c, 0, 64, 127
2, 8619, Note_on_c, 0, 56, 0
2, 8657, Note_on_c, 0, 61, 56
2, 8657, Note_on_c, 0, 64, 49
2, 8658, Note_on_c, 0, 68, 52
2, 8658, Note_on_c, 0, 73, 51
2, 8667, Note_on_c, 0, 52, 52
2, 8667, Note_on_c, 0, 56, 50
2, 8824, Note_on_c, 0, 56, 0
2, 8861, Note_on_c, 0, 64, 0
2, 8862, Note_on_c, 0, 68, 0
2, 8868, Note_on_c, 0, 56, 52
2, 8895, Note_on_c, 0, 59, 49
2, 8908, Note_on_c, 0, 64, 55
2, 8908, Note_on_c, 0, 71, 65
2, 8909, Note_on_c, 0, 68, 64
2, 8909, Note_on_c, 0, 76, 63
2, 8923, Note_on_c, 0, 61, 0
2, 8937, Note_on_c, 0, 73, 0
2, 9141, Control_c, 0, 64, 0
2, 9158, Note_on_c, 0, 75, 61
2, 9168, Note_on_c, 0, 55, 52
2, 9168, Note_on_c, 0, 58, 50
2, 9168, Note_on_c, 0, 63, 52
2, 9168, Note_on_c, 0, 67, 46
2, 9169, Note_on_c, 0, 70, 47
2, 9182, Note_on_c, 0, 52, 0
2, 9183, Note_on_c, 0, 59, 0
2, 9183, Note_on_c, 0, 56, 0
2, 9184, Note_on_c, 0, 64, 0
2, 9184, Note_on_c, 0, 68, 0
2, 9185, Note_on_c, 0, 71, 0
2, 9185, Note_on_c, 0, 76, 0
2, 9212, Note_on_c, 0, 25, 0
2, 9213, Note_on_c, 0, 37, 0
2, 9243, Note_on_c, 0, 25, 58
2, 9257, Note_on_c, 0, 37, 59
2, 9261, Control_c, 0, 67, 0
2, 9307, Control_c, 0, 67, 127
2, 9408, Note_on_c, 0, 58, 0
2, 9408, Note_on_c, 0, 55, 0
2, 9409, Note_on_c, 0, 63, 0
2, 9410, Note_on_c, 0, 70, 0
2, 9410, Note_on_c, 0, 67, 0
2, 9427, Note_on_c, 0, 25, 0
2, 9428, Note_on_c, 0, 37, 0
2, 9433, Note_on_c, 0, 75, 0
2, 9452, Note_on_c, 0, 57, 64
2, 9470, Note_on_c, 0, 33, 61
2, 9474, Note_on_c, 0, 45, 61
2, 9477, Note_on_c, 0, 49, 0
2, 9553, Control_c, 0, 64, 127
2, 9801, Note_on_c, 0, 60, 47
2, 9801, Note_on_c, 0, 74, 60
2, 9802, Note_on_c, 0, 62, 46
2, 9802, Note_on_c, 0, 66, 62
2, 9803, Note_on_c, 0, 69, 59
2, 9806, Note_on_c, 0, 57, 0
2, 9812, Note_on_c, 0, 54, 46
2, 9846, Note_on_c, 0, 57, 55
2, 10030, Note_on_c, 0, 33, 0
2, 10033, Note_on_c, 0, 45, 0
2, 10037, Note_on_c, 0, 69, 0
2, 10037, Note_on_c, 0, 66, 0
2, 10037, Note_on_c, 0, 62, 0
2, 10047, Note_on_c, 0, 57, 0
2, 10063, Control_c, 0, 64, 0
2, 10075, Note_on_c, 0, 74, 0
2, 10076, Note_on_c, 0, 32, 52
2, 10077, Note_on_c, 0, 44, 54
2, 10080, Note_on_c, 0, 56, 58
2, 10295, Control_c, 0, 64, 127
2, 10342, Note_on_c, 0, 60, 0
2, 10355, Note_on_c, 0, 54, 0
2, 10364, Note_on_c, 0, 32, 0
2, 10377, Note_on_c, 0, 60, 48
2, 10378, Note_on_c, 0, 63, 48
2, 10378, Note_on_c, 0, 66, 58
2, 10378, Note_on_c, 0, 72, 61
2, 10388, Note_on_c, 0, 54, 47
2, 10396, Note_on_c, 0, 32, 52
2, 10400, Note_on_c, 0, 51, 50
2, 10412, Control_c, 0, 67, 0
2, 10458, Control_c, 0, 67, 127
2, 10658, Note_on_c, 0, 32, 0
2, 10659, Note_on_c, 0, 44, 0
2, 10710, Note_on_c, 0, 60, 0
2, 10713, Note_on_c, 0, 66, 0
2, 10713, Note_on_c, 0, 63, 0
2, 10713, Note_on_c, 0, 72, 0
2, 10716, Note_on_c, 0, 25, 55
2, 10720, Control_c, 0, 67, 0
2, 10724, Note_on_c, 0, 54, 0
2, 10728, Control_c, 0, 64, 0
2, 10734, Note_on_c, 0, 51, 0
2, 10739, Note_on_c, 0, 37, 59
2, 10743, Note_on_c, 0, 49, 56
2, 10765, Control_c, 0, 67, 127
2, 10804, Control_c, 0, 67, 0
2, 11017, Note_on_c, 0, 56, 0
2, 11059, Control_c, 0, 64, 127
2, 11064, Note_on_c, 0, 52, 48
2, 11065, Note_on_c, 0, 56, 50
2, 11066, Note_on_c, 0, 61, 48
2, 11066, Note_on_c, 0, 64, 54
2, 11066, Note_on_c, 0, 68, 60
2, 11067, Note_on_c, 0, 73, 59
2, 11168, Note_on_c, 0, 73, 0
2, 11215, Note_on_c, 0, 68, 0
2, 11245, Note_on_c, 0, 59, 55
2, 11250, Note_on_c, 0, 61, 0
2, 11259, Note_on_c, 0, 68, 51
2, 11272, Note_on_c, 0, 71, 54
2, 11272, Note_on_c, 0, 73, 54
2, 11287, Note_on_c, 0, 64, 0
2, 11295, Note_on_c, 0, 61, 52
2, 11298, Note_on_c, 0, 80, 66
2, 11320, Note_on_c, 0, 52, 0
2, 11320, Note_on_c, 0, 56, 0
2, 11458, Note_on_c, 0, 59, 0
2, 11473, Note_on_c, 0, 68, 0
2, 11474, Note_on_c, 0, 80, 0
2, 11484, Note_on_c, 0, 61, 0
2, 11487, Note_on_c, 0, 73, 0
2, 11487, Note_on_c, 0, 71, 0
2, 11490, Control_c, 0, 64, 0
2, 11523, Note_on_c, 0, 78, 63
2, 11532, Note_on_c, 0, 57, 50
2, 11532, Note_on_c, 0, 61, 51
2, 11532, Note_on_c, 0, 66, 48
2, 11533, Note_on_c, 0, 69, 50
2, 11536, Note_on_c, 0, 73, 49
2, 11704, Note_on_c, 0, 25, 0
2, 11709, Note_on_c, 0, 57, 0
2, 11710, Note_on_c, 0, 61, 0
2, 11730, Note_on_c, 0, 37, 0
2, 11733, Note_on_c, 0, 49, 0
2, 11736, Note_on_c, 0, 78, 0
2, 11748, Note_on_c, 0, 66, 0
2, 11749, Note_on_c, 0, 69, 0
2, 11749, Note_on_c, 0, 73, 0
2, 11750, Note_on_c, 0, 36, 60
2, 11766, Note_on_c, 0, 48, 65
2, 11795, Note_on_c, 0, 60, 61
2, 11864, Control_c, 0, 64, 127
2, 12083, Note_on_c, 0, 64, 47
2, 12083, Note_on_c, 0, 66, 63
2, 12084, Note_on_c, 0, 69, 63
2, 12084, Note_on_c, 0, 76, 62
2, 12094, Note_on_c, 0, 54, 52
2, 12094, Note_on_c, 0, 57, 47
2, 12167, Note_on_c, 0, 36, 0
2, 12214, Note_on_c, 0, 36, 53
2, 12281, Note_on_c, 0, 36, 0
2, 12297, Note_on_c, 0, 48, 0
2, 12300, Note_on_c, 0, 64, 0
2, 12303, Note_on_c, 0, 35, 58
2, 12316, Control_c, 0, 64, 0
2, 12319, Note_on_c, 0, 47, 55
2, 12324, Note_on_c, 0, 60, 0
2, 12348, Note_on_c, 0, 59, 52
2, 12382, Note_on_c, 0, 76, 0
2, 12566, Control_c, 0, 64, 127
2, 12587, Note_on_c, 0, 54, 0
2, 12587, Note_on_c, 0, 57, 0
2, 12590, Note_on_c, 0, 66, 0
2, 12590, Note_on_c, 0, 69, 0
2, 12632, Note_on_c, 0, 54, 50
2, 12632, Note_on_c, 0, 57, 47
2, 12633, Note_on_c, 0, 63, 49
2, 12633, Note_on_c, 0, 66, 57
2, 12633, Note_on_c, 0, 69, 58
2, 12634, Note_on_c, 0, 75, 55
2, 12862, Note_on_c, 0, 47, 0
2, 12888, Note_on_c, 0, 28, 64
2, 12891, Control_c, 0, 64, 0
2, 12916, Note_on_c, 0, 40, 59
2, 12919, Note_on_c, 0, 35, 0
2, 12923, Note_on_c, 0, 57, 0
2, 12923, Note_on_c, 0, 54, 0
2, 12926, Note_on_c, 0, 69, 0
2, 12926, Note_on_c, 0, 66, 0
2, 12926, Note_on_c, 0, 63, 0
2, 12927, Note_on_c, 0, 75, 0
2, 12932, Note_on_c, 0, 52, 65
2, 13127, Note_on_c, 0, 59, 0
2, 13161, Note_on_c, 0, 64, 59
2, 13161, Note_on_c, 0, 68, 73
2, 13161, Note_on_c, 0, 71, 70
2, 13162, Note_on_c, 0, 76, 70
2, 13171, Note_on_c, 0, 56, 59
2, 13171, Note_on_c, 0, 59, 63
2, 13212, Control_c, 0, 64, 127
2, 13306, Note_on_c, 0, 64, 0
2, 13341, Note_on_c, 0, 64, 60
2, 13344, Note_on_c, 0, 76, 0
2, 13344, Note_on_c, 0, 71, 0
2, 13350, Note_on_c, 0, 62, 56
2, 13376, Note_on_c, 0, 71, 73
2, 13376, Note_on_c, 0, 74, 76
2, 13377, Note_on_c, 0, 83, 80
2, 13389, Note_on_c, 0, 76, 77
2, 13415, Note_on_c, 0, 68, 0
2, 13528, Note_on_c, 0, 62, 0
2, 13550, Note_on_c, 0, 56, 0
2, 13551, Note_on_c, 0, 64, 0
2, 13551, Note_on_c, 0, 59, 0
2, 13564, Note_on_c, 0, 76, 0
2, 13577, Control_c, 0, 64, 0
2, 13594, Note_on_c, 0, 61, 57
2, 13595, Note_on_c, 0, 64, 54
2, 13595, Note_on_c, 0, 69, 69
2, 13596, Note_on_c, 0, 73, 72
2, 13597, Note_on_c, 0, 81, 69
2, 13607, Note_on_c, 0, 76, 72
2, 13620, Note_on_c, 0, 71, 0
2, 13621, Note_on_c, 0, 74, 0
2, 13624, Note_on_c, 0, 83, 0
2, 13722, Note_on_c, 0, 40, 0
2, 13735, Note_on_c, 0, 52, 0
2, 13763, Note_on_c, 0, 64, 0
2, 13793, Note_on_c, 0, 40, 67
2, 13806, Note_on_c, 0, 52, 65
2, 13809, Note_on_c, 0, 64, 65
2, 13838, Note_on_c, 0, 69, 0
2, 13839, Note_on_c, 0, 81, 0
2, 13839, Note_on_c, 0, 76, 0
2, 13897, Control_c, 0, 64, 127
2, 14018, Note_on_c, 0, 61, 0
2, 14021, Note_on_c, 0, 73, 0
2, 14068, Note_on_c, 0, 61, 58
2, 14069, Note_on_c, 0, 68, 72
2, 14069, Note_on_c, 0, 70, 77
2, 14070, Note_on_c, 0, 73, 76
2, 14080, Note_on_c, 0, 58, 57
2, 14083, Note_on_c, 0, 80, 77
2, 14246, Note_on_c, 0, 28, 0
2, 14261, Note_on_c, 0, 40, 0
2, 14275, Note_on_c, 0, 52, 0
2, 14278, Note_on_c, 0, 64, 0
2, 14302, Note_on_c, 0, 68, 0
2, 14318, Note_on_c, 0, 39, 69
2, 14321, Note_on_c, 0, 51, 67
2, 14346, Note_on_c, 0, 63, 64
2, 14352, Control_c, 0, 64, 0
2, 14376, Note_on_c, 0, 80, 0
2, 14577, Note_on_c, 0, 58, 0
2, 14578, Note_on_c, 0, 61, 0
2, 14579, Note_on_c, 0, 70, 0
2, 14579, Note_on_c, 0, 73, 0
2, 14592, Control_c, 0, 64, 127
2, 14649, Note_on_c, 0, 58, 54
2, 14649, Note_on_c, 0, 61, 57
2, 14650, Note_on_c, 0, 67, 70
2, 14651, Note_on_c, 0, 70, 67
2, 14651, Note_on_c, 0, 73, 65
2, 14652, Note_on_c, 0, 79, 71
2, 14888, Note_on_c, 0, 39, 0
2, 14922, Control_c, 0, 64, 0
2, 14928, Note_on_c, 0, 58, 0
2, 14928, Note_on_c, 0, 51, 0
2, 14929, Note_on_c, 0, 61, 0
2, 14930, Note_on_c, 0, 67, 0
2, 14930, Note_on_c, 0, 73, 0
2, 14930, Note_on_c, 0, 70, 0
2, 14931, Note_on_c, 0, 79, 0
2, 14953, Note_on_c, 0, 63, 0
2, 14956, Note_on_c, 0, 32, 67
2, 14972, Note_on_c, 0, 44, 70
2, 15000, Note_on_c, 0, 56, 68
2, 15320, Note_on_c, 0, 59, 61
2, 15323, Note_on_c, 0, 63, 58
2, 15323, Note_on_c, 0, 68, 74
2, 15323, Note_on_c, 0, 71, 78
2, 15324, Note_on_c, 0, 75, 74
2, 15325, Note_on_c, 0, 80, 74
2, 15361, Control_c, 0, 64, 127
2, 15543, Note_on_c, 0, 61, 56
2, 15543, Note_on_c, 0, 64, 57
2, 15558, Note_on_c, 0, 81, 73
2, 15570, Note_on_c, 0, 69, 78
2, 15571, Note_on_c, 0, 73, 79
2, 15571, Note_on_c, 0, 76, 75
2, 15572, Note_on_c, 0, 63, 0
2, 15572, Note_on_c, 0, 59, 0
2, 15584, Note_on_c, 0, 68, 0
2, 15585, Note_on_c, 0, 80, 0
2, 15595, Note_on_c, 0, 71, 0
2, 15596, Note_on_c, 0, 75, 0
2, 15729, Note_on_c, 0, 61, 0
2, 15744, Note_on_c, 0, 69, 0
2, 15744, Note_on_c, 0, 73, 0
2, 15777, Note_on_c, 0, 61, 56
2, 15777, Note_on_c, 0, 66, 78
2, 15780, Note_on_c, 0, 78, 73
2, 15788, Note_on_c, 0, 57, 58
2, 15791, Note_on_c, 0, 69, 79
2, 15792, Note_on_c, 0, 73, 73
2, 15807, Note_on_c, 0, 64, 0
2, 15808, Note_on_c, 0, 76, 0
2, 15809, Note_on_c, 0, 81, 0
2, 15956, Note_on_c, 0, 63, 58
2, 15976, Note_on_c, 0, 59, 57
2, 15979, Note_on_c, 0, 68, 78
2, 15979, Note_on_c, 0, 71, 75
2, 15979, Note_on_c, 0, 75, 72
2, 15979, Note_on_c, 0, 80, 77
2, 16004, Note_on_c, 0, 57, 0
2, 16005, Note_on_c, 0, 66, 0
2, 16005, Note_on_c, 0, 61, 0
2, 16006, Note_on_c, 0, 69, 0
2, 16007, Note_on_c, 0, 78, 0
2, 16007, Note_on_c, 0, 73, 0
2, 16114, Note_on_c, 0, 68, 0
2, 16124, Note_on_c, 0, 56, 0
2, 16124, Note_on_c, 0, 59, 0
2, 16127, Note_on_c, 0, 71, 0
2, 16155, Note_on_c, 0, 64, 53
2, 16158, Note_on_c, 0, 68, 78
2, 16158, Note_on_c, 0, 76, 71
2, 16167, Note_on_c, 0, 56, 58
2, 16167, Note_on_c, 0, 59, 60
2, 16170, Note_on_c, 0, 71, 72
2, 16185, Note_on_c, 0, 63, 0
2, 16188, Note_on_c, 0, 80, 0
2, 16188, Note_on_c, 0, 75, 0
2, 16338, Note_on_c, 0, 78, 73
2, 16345, Note_on_c, 0, 57, 58
2, 16346, Note_on_c, 0, 66, 76
2, 16347, Note_on_c, 0, 69, 73
2, 16347, Note_on_c, 0, 73, 71
2, 16356, Note_on_c, 0, 61, 54
2, 16362, Note_on_c, 0, 64, 0
2, 16363, Note_on_c, 0, 76, 0
2, 16370, Note_on_c, 0, 56, 0
2, 16374, Note_on_c, 0, 71, 0
2, 16374, Note_on_c, 0, 68, 0
2, 16382, Note_on_c, 0, 59, 0
2, 16478, Note_on_c, 0, 57, 0
2, 16493, Note_on_c, 0, 66, 0
2, 16506, Note_on_c, 0, 69, 0
2, 16526, Note_on_c, 0, 57, 55
2, 16529, Note_on_c, 0, 75, 70
2, 16538, Note_on_c, 0, 63, 55
2, 16538, Note_on_c, 0, 66, 72
2, 16548, Note_on_c, 0, 54, 58
2, 16551, Note_on_c, 0, 69, 77
2, 16556, Note_on_c, 0, 78, 0
2, 16556, Note_on_c, 0, 73, 0
2, 16564, Note_on_c, 0, 61, 0
2, 16661, Control_c, 0, 64, 0
2, 16677, Note_on_c, 0, 56, 52
2, 16678, Note_on_c, 0, 59, 53
2, 16703, Note_on_c, 0, 64, 55
2, 16703, Note_on_c, 0, 68, 71
2, 16704, Note_on_c, 0, 66, 0
2, 16704, Note_on_c, 0, 54, 0
2, 16704, Note_on_c, 0, 57, 0
2, 16704, Note_on_c, 0, 71, 74
2, 16704, Note_on_c, 0, 76, 71
2, 16705, Note_on_c, 0, 63, 0
2, 16705, Note_on_c, 0, 69, 0
2, 16730, Note_on_c, 0, 75, 0
2, 16861, Note_on_c, 0, 76, 0
2, 16872, Note_on_c, 0, 64, 0
2, 16873, Note_on_c, 0, 68, 0
2, 16873, Note_on_c, 0, 71, 0
2, 16883, Note_on_c, 0, 56, 0
2, 16883, Note_on_c, 0, 59, 0
2, 16907, Note_on_c, 0, 76, 68
2, 16917, Note_on_c, 0, 64, 53
2, 16917, Note_on_c, 0, 68, 65
2, 16918, Note_on_c, 0, 71, 66
2, 16927, Note_on_c, 0, 56, 56
2, 16927, Note_on_c, 0, 59, 54
2, 17015, Control_c, 0, 64, 127
2, 17076, Note_on_c, 0, 76, 0
2, 17085, Note_on_c, 0, 64, 0
2, 17086, Note_on_c, 0, 68, 0
2, 17087, Note_on_c, 0, 71, 0
2, 17094, Note_on_c, 0, 56, 0
2, 17095, Note_on_c, 0, 59, 0
2, 17116, Note_on_c, 0, 69, 71
2, 17117, Note_on_c, 0, 73, 71
2, 17117, Note_on_c, 0, 78, 71
2, 17125, Note_on_c, 0, 61, 58
2, 17126, Note_on_c, 0, 57, 55
2, 17127, Note_on_c, 0, 66, 70
2, 17147, Note_on_c, 0, 32, 0
2, 17148, Note_on_c, 0, 44, 0
2, 17286, Note_on_c, 0, 57, 0
2, 17289, Note_on_c, 0, 66, 0
2, 17303, Note_on_c, 0, 69, 0
2, 17324, Note_on_c, 0, 75, 66
2, 17332, Note_on_c, 0, 57, 57
2, 17335, Note_on_c, 0, 63, 52
2, 17335, Note_on_c, 0, 66, 64
2, 17348, Note_on_c, 0, 69, 66
2, 17352, Note_on_c, 0, 73, 0
2, 17352, Note_on_c, 0, 78, 0
2, 17355, Note_on_c, 0, 54, 54
2, 17361, Note_on_c, 0, 61, 0
2, 17486, Control_c, 0, 64, 0
2, 17494, Note_on_c, 0, 54, 0
2, 17509, Note_on_c, 0, 66, 0
2, 17509, Note_on_c, 0, 63, 0
2, 17522, Note_on_c, 0, 69, 0
2, 17530, Note_on_c, 0, 71, 70
2, 17535, Note_on_c, 0, 75, 0
2, 17541, Note_on_c, 0, 64, 57
2, 17542, Note_on_c, 0, 68, 69
2, 17543, Note_on_c, 0, 57, 0
2, 17543, Note_on_c, 0, 76, 71
2, 17550, Note_on_c, 0, 56, 57
2, 17551, Note_on_c, 0, 59, 56
2, 17735, Note_on_c, 0, 56, 0
2, 17735, Note_on_c, 0, 64, 0
2, 17750, Note_on_c, 0, 68, 0
2, 17780, Note_on_c, 0, 52, 55
2, 17781, Note_on_c, 0, 56, 59
2, 17782, Note_on_c, 0, 61, 54
2, 17782, Note_on_c, 0, 64, 57
2, 17784, Note_on_c, 0, 73, 71
2, 17796, Note_on_c, 0, 68, 66
2, 17808, Note_on_c, 0, 59, 0
2, 17811, Note_on_c, 0, 71, 0
2, 17811, Note_on_c, 0, 76, 0
2, 17833, Control_c, 0, 64, 127
2, 18000, Note_on_c, 0, 68, 0
2, 18013, Control_c, 0, 64, 0
2, 18021, Note_on_c, 0, 52, 0
2, 18021, Note_on_c, 0, 75, 68
2, 18022, Note_on_c, 0, 61, 0
2, 18023, Note_on_c, 0, 64, 0
2, 18023, Note_on_c, 0, 56, 0
2, 18030, Note_on_c, 0, 63, 58
2, 18030, Note_on_c, 0, 66, 70
2, 18031, Note_on_c, 0, 69, 64
2, 18040, Note_on_c, 0, 57, 56
2, 18047, Note_on_c, 0, 73, 0
2, 18051, Note_on_c, 0, 54, 46
2, 18214, Control_c, 0, 64, 127
2, 18241, Note_on_c, 0, 69, 0
2, 18249, Note_on_c, 0, 57, 0
2, 18253, Note_on_c, 0, 66, 0
2, 18262, Note_on_c, 0, 54, 0
2, 18264, Note_on_c, 0, 63, 0
2, 18297, Note_on_c, 0, 60, 53
2, 18298, Note_on_c, 0, 66, 62
2, 18298, Note_on_c, 0, 72, 62
2, 18308, Note_on_c, 0, 54, 50
2, 18311, Note_on_c, 0, 63, 46
2, 18320, Note_on_c, 0, 51, 47
2, 18327, Note_on_c, 0, 75, 0
2, 18483, Note_on_c, 0, 54, 0
2, 18508, Note_on_c, 0, 60, 0
2, 18511, Note_on_c, 0, 66, 0
2, 18512, Note_on_c, 0, 72, 0
2, 18517, Note_on_c, 0, 52, 50
2, 18524, Note_on_c, 0, 63, 0
2, 18544, Note_on_c, 0, 56, 46
2, 18547, Note_on_c, 0, 51, 0
2, 18552, Control_c, 0, 64, 0
2, 18571, Note_on_c, 0, 61, 46
2, 18574, Note_on_c, 0, 68, 60
2, 18585, Note_on_c, 0, 64, 50
2, 18588, Note_on_c, 0, 73, 62
2, 18737, Control_c, 0, 67, 127
2, 18869, Note_on_c, 0, 73, 0
2, 18879, Note_on_c, 0, 56, 0
2, 18880, Note_on_c, 0, 64, 0
2, 18880, Note_on_c, 0, 61, 0
2, 18880, Control_c, 0, 64, 127
2, 18881, Note_on_c, 0, 68, 0
2, 18889, Note_on_c, 0, 52, 0
2, 18915, Note_on_c, 0, 73, 63
2, 18924, Note_on_c, 0, 56, 47
2, 18925, Note_on_c, 0, 61, 46
2, 18926, Note_on_c, 0, 64, 47
2, 18927, Note_on_c, 0, 68, 64
2, 18936, Note_on_c, 0, 52, 53
2, 19102, Note_on_c, 0, 64, 0
2, 19128, Note_on_c, 0, 68, 0
2, 19137, Note_on_c, 0, 56, 0
2, 19149, Note_on_c, 0, 64, 46
2, 19152, Note_on_c, 0, 76, 70
2, 19163, Note_on_c, 0, 71, 49
2, 19175, Note_on_c, 0, 68, 47
2, 19178, Note_on_c, 0, 61, 0
2, 19185, Note_on_c, 0, 56, 53
2, 19186, Note_on_c, 0, 59, 53
2, 19191, Note_on_c, 0, 73, 0
2, 19211, Note_on_c, 0, 52, 0
2, 19423, Note_on_c, 0, 68, 0
2, 19435, Note_on_c, 0, 64, 0
2, 19438, Note_on_c, 0, 76, 0
2, 19449, Note_on_c, 0, 71, 0
2, 19463, Control_c, 0, 64, 0
2, 19470, Note_on_c, 0, 56, 0
2, 19470, Note_on_c, 0, 67, 60
2, 19470, Note_on_c, 0, 70, 62
2, 19470, Note_on_c, 0, 75, 64
2, 19471, Note_on_c, 0, 59, 0
2, 19481, Note_on_c, 0, 63, 46
2, 19492, Note_on_c, 0, 55, 50
2, 19493, Note_on_c, 0, 58, 48
2, 19754, Note_on_c, 0, 75, 0
2, 19763, Note_on_c, 0, 63, 0
2, 19775, Note_on_c, 0, 55, 0
2, 19775, Note_on_c, 0, 58, 0
2, 19788, Note_on_c, 0, 67, 0
2, 19788, Note_on_c, 0, 70, 0
2, 19808, Note_on_c, 0, 57, 61
2, 19824, Note_on_c, 0, 33, 62
2, 19827, Note_on_c, 0, 45, 64
2, 19968, Control_c, 0, 64, 127
2, 20138, Note_on_c, 0, 69, 56
2, 20139, Note_on_c, 0, 74, 57
2, 20149, Note_on_c, 0, 60, 52
2, 20149, Note_on_c, 0, 62, 49
2, 20149, Note_on_c, 0, 66, 58
2, 20174, Note_on_c, 0, 54, 51
2, 20384, Note_on_c, 0, 69, 0
2, 20384, Note_on_c, 0, 57, 0
2, 20389, Control_c, 0, 64, 0
2, 20397, Note_on_c, 0, 62, 0
2, 20404, Note_on_c, 0, 33, 0
2, 20407, Note_on_c, 0, 45, 0
2, 20428, Note_on_c, 0, 56, 53
2, 20449, Note_on_c, 0, 32, 59
2, 20450, Note_on_c, 0, 44, 58
2, 20459, Note_on_c, 0, 74, 0
2, 20687, Note_on_c, 0, 60, 0
2, 20690, Note_on_c, 0, 66, 0
2, 20690, Control_c, 0, 64, 127
2, 20699, Note_on_c, 0, 54, 0
2, 20732, Note_on_c, 0, 60, 48
2, 20733, Note_on_c, 0, 63, 48
2, 20733, Note_on_c, 0, 66, 57
2, 20733, Note_on_c, 0, 72, 57
2, 20742, Note_on_c, 0, 51, 52
2, 20743, Note_on_c, 0, 54, 52
2, 21024, Note_on_c, 0, 51, 0
2, 21025, Note_on_c, 0, 54, 0
2, 21038, Note_on_c, 0, 56, 0
2, 21039, Note_on_c, 0, 25, 59
2, 21048, Note_on_c, 0, 60, 0
2, 21048, Control_c, 0, 67, 0
2, 21049, Note_on_c, 0, 63, 0
2, 21050, Note_on_c, 0, 66, 0
2, 21050, Note_on_c, 0, 72, 0
2, 21055, Note_on_c, 0, 32, 0
2, 21063, Control_c, 0, 64, 0
2, 21063, Note_on_c, 0, 37, 56
2, 21067, Note_on_c, 0, 49, 57
2, 21093, Note_on_c, 0, 44, 0
2, 21365, Note_on_c, 0, 52, 47
2, 21366, Note_on_c, 0, 56, 52
2, 21366, Note_on_c, 0, 61, 53
2, 21369, Note_on_c, 0, 68, 64
2, 21369, Note_on_c, 0, 73, 62
2, 21381, Note_on_c, 0, 64, 48
2, 21432, Control_c, 0, 64, 127
2, 21470, Note_on_c, 0, 73, 0
2, 21515, Note_on_c, 0, 61, 0
2, 21528, Note_on_c, 0, 68, 0
2, 21547, Note_on_c, 0, 59, 51
2, 21547, Note_on_c, 0, 61, 51
2, 21571, Note_on_c, 0, 68, 58
2, 21571, Note_on_c, 0, 71, 59
2, 21572, Note_on_c, 0, 73, 54
2, 21596, Note_on_c, 0, 52, 0
2, 21597, Note_on_c, 0, 80, 73
2, 21598, Note_on_c, 0, 64, 0
2, 21804, Note_on_c, 0, 80, 0
2, 21816, Note_on_c, 0, 68, 0
2, 21824, Note_on_c, 0, 56, 0
2, 21825, Note_on_c, 0, 61, 0
2, 21825, Note_on_c, 0, 59, 0
2, 21854, Note_on_c, 0, 71, 0
2, 21855, Control_c, 0, 64, 0
2, 21863, Note_on_c, 0, 78, 61
2, 21871, Note_on_c, 0, 57, 51
2, 21871, Note_on_c, 0, 61, 50
2, 21872, Note_on_c, 0, 66, 47
2, 21873, Note_on_c, 0, 69, 48
2, 21899, Note_on_c, 0, 49, 0
2, 22121, Note_on_c, 0, 57, 0
2, 22170, Note_on_c, 0, 57, 66
2, 22179, Note_on_c, 0, 45, 68
2, 22191, Note_on_c, 0, 33, 66
2, 22195, Note_on_c, 0, 37, 0
2, 22201, Note_on_c, 0, 69, 0
2, 22201, Note_on_c, 0, 66, 0
2, 22201, Note_on_c, 0, 61, 0
2, 22202, Note_on_c, 0, 73, 0
2, 22203, Note_on_c, 0, 78, 0
2, 22207, Note_on_c, 0, 25, 0
2, 22347, Control_c, 0, 64, 127
2, 22549, Note_on_c, 0, 60, 49
2, 22550, Note_on_c, 0, 64, 50
2, 22551, Note_on_c, 0, 66, 58
2, 22551, Note_on_c, 0, 69, 60
2, 22552, Note_on_c, 0, 76, 59
2, 22573, Note_on_c, 0, 54, 48
2, 22824, Note_on_c, 0, 45, 0
2, 22826, Note_on_c, 0, 54, 0
2, 22834, Note_on_c, 0, 33, 0
2, 22839, Note_on_c, 0, 60, 0
2, 22840, Note_on_c, 0, 64, 0
2, 22840, Note_on_c, 0, 66, 0
2, 22841, Note_on_c, 0, 76, 0
2, 22841, Note_on_c, 0, 69, 0
2, 22842, Control_c, 0, 64, 0
2, 22850, Note_on_c, 0, 57, 0
2, 22871, Note_on_c, 0, 56, 62
2, 22879, Note_on_c, 0, 44, 62
2, 22891, Note_on_c, 0, 32, 64
2, 23220, Control_c, 0, 64, 127
2, 23291, Note_on_c, 0, 60, 51
2, 23292, Note_on_c, 0, 66, 57
2, 23293, Note_on_c, 0, 63, 52
2, 23293, Note_on_c, 0, 72, 54
2, 23302, Note_on_c, 0, 51, 50
2, 23303, Note_on_c, 0, 54, 50
2, 23701, Note_on_c, 0, 54, 0
2, 23701, Note_on_c, 0, 51, 0
2, 23709, Note_on_c, 0, 32, 0
2, 23726, Note_on_c, 0, 60, 0
2, 23726, Note_on_c, 0, 63, 0
2, 23727, Note_on_c, 0, 66, 0
2, 23736, Note_on_c, 0, 44, 0
2, 23742, Note_on_c, 0, 72, 0
2, 23743, Note_on_c, 0, 25, 52
2, 23744, Note_on_c, 0, 37, 55
2, 23747, Note_on_c, 0, 49, 53
2, 23757, Control_c, 0, 64, 0
2, 23763, Note_on_c, 0, 56, 0
2, 24137, Note_on_c, 0, 56, 53
2, 24138, Note_on_c, 0, 61, 53
2, 24139, Note_on_c, 0, 64, 55
2, 24140, Note_on_c, 0, 68, 58
2, 24140, Note_on_c, 0, 73, 62
2, 24149, Note_on_c, 0, 52, 57
2, 24157, Control_c, 0, 64, 127
2, 24317, Note_on_c, 0, 56, 0
2, 24318, Note_on_c, 0, 61, 0
2, 24328, Note_on_c, 0, 52, 0
2, 24352, Note_on_c, 0, 57, 57
2, 24356, Note_on_c, 0, 64, 0
2, 24359, Note_on_c, 0, 73, 0
2, 24359, Note_on_c, 0, 68, 0
2, 24365, Note_on_c, 0, 54, 52
2, 24405, Note_on_c, 0, 69, 61
2, 24406, Note_on_c, 0, 66, 63
2, 24415, Note_on_c, 0, 62, 58
2, 24418, Note_on_c, 0, 74, 64
2, 24617, Note_on_c, 0, 62, 0
2, 24617, Note_on_c, 0, 54, 0
2, 24618, Note_on_c, 0, 66, 0
2, 24643, Note_on_c, 0, 57, 0
2, 24654, Note_on_c, 0, 71, 61
2, 24662, Note_on_c, 0, 50, 55
2, 24663, Note_on_c, 0, 54, 54
2, 24663, Note_on_c, 0, 59, 53
2, 24664, Note_on_c, 0, 62, 58
2, 24665, Note_on_c, 0, 66, 62
2, 24681, Note_on_c, 0, 69, 0
2, 24682, Note_on_c, 0, 74, 0
2, 24859, Note_on_c, 0, 73, 58
2, 24867, Note_on_c, 0, 61, 57
2, 24870, Note_on_c, 0, 64, 54
2, 24870, Note_on_c, 0, 68, 58
2, 24879, Note_on_c, 0, 56, 54
2, 24884, Note_on_c, 0, 71, 0
2, 24890, Note_on_c, 0, 52, 54
2, 24893, Note_on_c, 0, 50, 0
2, 24894, Note_on_c, 0, 54, 0
2, 24895, Note_on_c, 0, 62, 0
2, 24895, Note_on_c, 0, 59, 0
2, 24895, Note_on_c, 0, 66, 0
2, 24924, Control_c, 0, 64, 0
2, 25021, Note_on_c, 0, 61, 0
2, 25022, Note_on_c, 0, 64, 0
2, 25043, Note_on_c, 0, 49, 0
2, 25068, Note_on_c, 0, 57, 53
2, 25069, Note_on_c, 0, 61, 57
2, 25069, Note_on_c, 0, 64, 56
2, 25070, Note_on_c, 0, 69, 62
2, 25079, Note_on_c, 0, 54, 52
2, 25091, Note_on_c, 0, 49, 52
2, 25096, Note_on_c, 0, 56, 0
2, 25099, Note_on_c, 0, 68, 0
2, 25099, Note_on_c, 0, 73, 0
2, 25108, Note_on_c, 0, 52, 0
2, 25262, Note_on_c, 0, 54, 0
2, 25296, Note_on_c, 0, 62, 58
2, 25296, Note_on_c, 0, 66, 65
2, 25296, Note_on_c, 0, 71, 62
2, 25305, Note_on_c, 0, 50, 55
2, 25306, Note_on_c, 0, 54, 52
2, 25307, Note_on_c, 0, 59, 54
2, 25320, Note_on_c, 0, 49, 0
2, 25321, Note_on_c, 0, 57, 0
2, 25322, Note_on_c, 0, 64, 0
2, 25322, Note_on_c, 0, 61, 0
2, 25322, Note_on_c, 0, 69, 0
2, 25359, Control_c, 0, 64, 127
2, 25496, Note_on_c, 0, 54, 0
2, 25496, Note_on_c, 0, 59, 0
2, 25497, Note_on_c, 0, 62, 0
2, 25534, Note_on_c, 0, 68, 62
2, 25543, Note_on_c, 0, 54, 56
2, 25544, Note_on_c, 0, 56, 57
2, 25544, Note_on_c, 0, 59, 58
2, 25545, Note_on_c, 0, 62, 52
2, 25554, Note_on_c, 0, 47, 55
2, 25562, Note_on_c, 0, 71, 0
2, 25712, Note_on_c, 0, 54, 0
2, 25752, Note_on_c, 0, 66, 0
2, 25755, Control_c, 0, 64, 0
2, 25758, Note_on_c, 0, 49, 56
2, 25759, Note_on_c, 0, 54, 59
2, 25787, Note_on_c, 0, 47, 0
2, 25788, Note_on_c, 0, 50, 0
2, 25798, Note_on_c, 0, 57, 54
2, 25800, Note_on_c, 0, 61, 58
2, 25801, Note_on_c, 0, 66, 66
2, 25801, Note_on_c, 0, 69, 60
2, 25826, Note_on_c, 0, 56, 0
2, 25826, Note_on_c, 0, 59, 0
2, 25827, Note_on_c, 0, 62, 0
2, 25828, Note_on_c, 0, 68, 0
2, 26039, Note_on_c, 0, 69, 0
2, 26050, Note_on_c, 0, 66, 0
2, 26050, Note_on_c, 0, 61, 0
2, 26062, Note_on_c, 0, 49, 0
2, 26062, Note_on_c, 0, 54, 0
2, 26063, Note_on_c, 0, 57, 0
2, 26087, Note_on_c, 0, 69, 62
2, 26099, Note_on_c, 0, 61, 54
2, 26099, Note_on_c, 0, 66, 64
2, 26109, Note_on_c, 0, 49, 54
2, 26112, Note_on_c, 0, 54, 56
2, 26112, Note_on_c, 0, 57, 57
2, 26221, Control_c, 0, 64, 127
2, 26334, Note_on_c, 0, 61, 0
2, 26337, Note_on_c, 0, 66, 0
2, 26361, Note_on_c, 0, 54, 0
2, 26384, Note_on_c, 0, 61, 58
2, 26385, Note_on_c, 0, 66, 63
2, 26388, Note_on_c, 0, 73, 63
2, 26398, Note_on_c, 0, 64, 52
2, 26407, Note_on_c, 0, 25, 0
2, 26408, Note_on_c, 0, 37, 0
2, 26409, Note_on_c, 0, 52, 59
2, 26409, Note_on_c, 0, 54, 54
2, 26413, Note_on_c, 0, 57, 0
2, 26414, Note_on_c, 0, 69, 0
2, 26644, Note_on_c, 0, 54, 0
2, 26674, Control_c, 0, 64, 0
2, 26686, Note_on_c, 0, 66, 0
2, 26690, Note_on_c, 0, 54, 56
2, 26707, Note_on_c, 0, 71, 63
2, 26718, Note_on_c, 0, 52, 0
2, 26718, Note_on_c, 0, 49, 0
2, 26718, Note_on_c, 0, 59, 56
2, 26728, Note_on_c, 0, 50, 59
2, 26729, Note_on_c, 0, 62, 59
2, 26730, Note_on_c, 0, 66, 47
2, 26735, Note_on_c, 0, 73, 0
2, 26744, Note_on_c, 0, 61, 0
2, 26745, Note_on_c, 0, 64, 0
2, 27058, Note_on_c, 0, 59, 0
2, 27071, Note_on_c, 0, 54, 0
2, 27071, Note_on_c, 0, 50, 0
2, 27073, Note_on_c, 0, 62, 0
2, 27074, Note_on_c, 0, 66, 0
2, 27090, Note_on_c, 0, 71, 0
2, 27101, Note_on_c, 0, 31, 68
2, 27106, Note_on_c, 0, 55, 69
2, 27116, Note_on_c, 0, 43, 64
2, 27277, Control_c, 0, 64, 127
2, 27458, Note_on_c, 0, 57, 51
2, 27461, Note_on_c, 0, 64, 51
2, 27462, Note_on_c, 0, 69, 64
2, 27471, Note_on_c, 0, 52, 49
2, 27472, Note_on_c, 0, 61, 46
2, 27752, Note_on_c, 0, 31, 0
2, 27757, Note_on_c, 0, 55, 0
2, 27758, Note_on_c, 0, 57, 0
2, 27759, Note_on_c, 0, 64, 0
2, 27762, Note_on_c, 0, 69, 0
2, 27768, Note_on_c, 0, 43, 0
2, 27771, Note_on_c, 0, 52, 0
2, 27775, Note_on_c, 0, 61, 0
2, 27776, Control_c, 0, 64, 0
2, 27795, Note_on_c, 0, 56, 62
2, 27803, Note_on_c, 0, 32, 60
2, 27806, Note_on_c, 0, 44, 61
2, 28152, Control_c, 0, 64, 127
2, 28201, Note_on_c, 0, 56, 0
2, 28237, Note_on_c, 0, 68, 52
2, 28246, Note_on_c, 0, 51, 49
2, 28247, Note_on_c, 0, 54, 49
2, 28247, Note_on_c, 0, 56, 53
2, 28247, Note_on_c, 0, 60, 48
2, 28249, Note_on_c, 0, 66, 53
2, 28667, Note_on_c, 0, 68, 0
2, 28675, Note_on_c, 0, 51, 0
2, 28676, Note_on_c, 0, 54, 0
2, 28676, Note_on_c, 0, 56, 0
2, 28677, Note_on_c, 0, 60, 0
2, 28678, Note_on_c, 0, 66, 0
2, 28704, Note_on_c, 0, 25, 57
2, 28704, Note_on_c, 0, 37, 54
2, 28708, Note_on_c, 0, 49, 56
2, 28716, Control_c, 0, 64, 0
2, 28998, Control_c, 0, 64, 127
2, 29060, Note_on_c, 0, 44, 0
2, 29099, Note_on_c, 0, 61, 49
2, 29108, Note_on_c, 0, 44, 50
2, 29109, Note_on_c, 0, 52, 49
2, 29320, Note_on_c, 0, 49, 0
2, 29361, Note_on_c, 0, 64, 58
2, 29362, Note_on_c, 0, 61, 0
2, 29371, Note_on_c, 0, 56, 47
2, 29380, Note_on_c, 0, 47, 52
2, 29568, Note_on_c, 0, 47, 0
2, 29568, Note_on_c, 0, 52, 0
2, 29595, Note_on_c, 0, 56, 0
2, 29598, Note_on_c, 0, 64, 0
2, 29599, Control_c, 0, 64, 0
2, 29616, Note_on_c, 0, 46, 52
2, 29623, Note_on_c, 0, 63, 50
2, 29633, Note_on_c, 0, 55, 52
2, 29642, Note_on_c, 0, 32, 0
2, 29645, Note_on_c, 0, 44, 0
2, 29828, Note_on_c, 0, 25, 0
2, 29832, Note_on_c, 0, 37, 0
2, 29892, Note_on_c, 0, 33, 60
2, 29896, Note_on_c, 0, 45, 60
2, 29928, Note_on_c, 0, 46, 0
2, 29930, Note_on_c, 0, 55, 0
2, 29967, Note_on_c, 0, 57, 61
2, 29999, Note_on_c, 0, 63, 0
2, 30020, Control_c, 0, 64, 127
2, 30254, Note_on_c, 0, 62, 53
2, 30264, Note_on_c, 0, 60, 47
2, 30276, Note_on_c, 0, 54, 49
2, 30558, Note_on_c, 0, 60, 0
2, 30558, Control_c, 0, 64, 0
2, 30561, Note_on_c, 0, 62, 0
2, 30572, Note_on_c, 0, 57, 0
2, 30572, Note_on_c, 0, 54, 0
2, 30578, Note_on_c, 0, 33, 0
2, 30582, Note_on_c, 0, 45, 0
2, 30596, Note_on_c, 0, 56, 58
2, 30600, Note_on_c, 0, 32, 59
2, 30603, Note_on_c, 0, 44, 54
2, 30700, Control_c, 0, 67, 127
2, 30916, Control_c, 0, 64, 127
2, 31002, Note_on_c, 0, 51, 53
2, 31002, Note_on_c, 0, 54, 59
2, 31005, Note_on_c, 0, 60, 53
2, 31371, Note_on_c, 0, 32, 0
2, 31374, Note_on_c, 0, 44, 0
2, 31377, Note_on_c, 0, 51, 0
2, 31378, Note_on_c, 0, 54, 0
2, 31378, Note_on_c, 0, 60, 0
2, 31391, Note_on_c, 0, 25, 62
2, 31403, Note_on_c, 0, 56, 0
2, 31404, Note_on_c, 0, 37, 65
2, 31447, Note_on_c, 0, 49, 58
2, 31468, Control_c, 0, 64, 0
2, 31795, Note_on_c, 0, 61, 52
2, 31806, Note_on_c, 0, 52, 51
2, 31815, Note_on_c, 0, 44, 47
2, 31868, Control_c, 0, 64, 127
2, 32069, Note_on_c, 0, 64, 53
2, 32080, Note_on_c, 0, 56, 49
2, 32101, Note_on_c, 0, 47, 51
2, 32109, Note_on_c, 0, 61, 0
2, 32328, Control_c, 0, 64, 0
2, 32329, Note_on_c, 0, 64, 0
2, 32349, Note_on_c, 0, 47, 0
2, 32362, Note_on_c, 0, 56, 0
2, 32366, Note_on_c, 0, 46, 49
2, 32371, Note_on_c, 0, 63, 51
2, 32379, Note_on_c, 0, 55, 52
2, 32392, Note_on_c, 0, 44, 0
2, 32407, Note_on_c, 0, 52, 0
2, 32680, Note_on_c, 0, 25, 0
2, 32695, Note_on_c, 0, 37, 0
2, 32698, Note_on_c, 0, 46, 0
2, 32699, Note_on_c, 0, 49, 0
2, 32703, Note_on_c, 0, 63, 0
2, 32713, Note_on_c, 0, 55, 0
2, 32737, Note_on_c, 0, 45, 65
2, 32740, Note_on_c, 0, 57, 61
2, 32760, Note_on_c, 0, 33, 59
2, 32784, Control_c, 0, 64, 127
2, 33118, Note_on_c, 0, 62, 52
2, 33130, Note_on_c, 0, 54, 46
2, 33131, Note_on_c, 0, 60, 47
2, 33492, Control_c, 0, 64, 0
2, 33496, Note_on_c, 0, 33, 0
2, 33512, Note_on_c, 0, 45, 0
2, 33513, Note_on_c, 0, 54, 0
2, 33514, Note_on_c, 0, 57, 0
2, 33515, Note_on_c, 0, 60, 0
2, 33538, Note_on_c, 0, 56, 57
2, 33543, Note_on_c, 0, 62, 0
2, 33547, Note_on_c, 0, 44, 59
2, 33558, Note_on_c, 0, 32, 55
2, 33907, Control_c, 0, 64, 127
2, 34057, Note_on_c, 0, 51, 46
2, 34058, Note_on_c, 0, 54, 53
2, 34059, Note_on_c, 0, 60, 47
2, 34561, Note_on_c, 0, 25, 53
2, 34601, Note_on_c, 0, 37, 56
2, 34614, Control_c, 0, 64, 0
2, 34631, Note_on_c, 0, 32, 0
2, 34633, Note_on_c, 0, 44, 0
2, 34636, Note_on_c, 0, 51, 0
2, 34637, Note_on_c, 0, 56, 0
2, 34637, Note_on_c, 0, 54, 0
2, 34637, Note_on_c, 0, 60, 0
2, 34720, Note_on_c, 0, 64, 73
2, 34969, Note_on_c, 0, 56, 52
2, 35000, Control_c, 0, 64, 127
2, 35091, Note_on_c, 0, 61, 50
2, 35179, Note_on_c, 0, 46, 67
2, 35198, Note_on_c, 0, 63, 46
2, 35202, Control_c, 0, 64, 0
2, 35223, Note_on_c, 0, 56, 0
2, 35224, Note_on_c, 0, 61, 0
2, 35225, Note_on_c, 0, 64, 0
2, 35321, Note_on_c, 0, 55, 48
2, 35412, Note_on_c, 0, 61, 51
2, 35456, Note_on_c, 0, 63, 0
2, 35476, Note_on_c, 0, 46, 0
2, 35484, Note_on_c, 0, 45, 65
2, 35489, Note_on_c, 0, 62, 71
2, 35517, Note_on_c, 0, 55, 0
2, 35518, Note_on_c, 0, 61, 0
2, 35602, Note_on_c, 0, 54, 52
2, 35666, Note_on_c, 0, 60, 51
2, 35705, Note_on_c, 0, 45, 0
2, 35710, Note_on_c, 0, 62, 0
2, 35724, Note_on_c, 0, 44, 70
2, 35731, Note_on_c, 0, 61, 71
2, 35755, Note_on_c, 0, 54, 0
2, 35756, Note_on_c, 0, 60, 0
2, 35836, Note_on_c, 0, 52, 53
2, 35859, Note_on_c, 0, 37, 0
2, 35906, Note_on_c, 0, 37, 50
2, 35924, Note_on_c, 0, 56, 53
2, 35952, Note_on_c, 0, 52, 0
2, 35971, Note_on_c, 0, 47, 73
2, 35976, Note_on_c, 0, 64, 76
2, 35996, Note_on_c, 0, 44, 0
2, 36002, Note_on_c, 0, 61, 0
2, 36013, Control_c, 0, 64, 127
2, 36014, Note_on_c, 0, 56, 0
2, 36098, Note_on_c, 0, 56, 52
2, 36149, Note_on_c, 0, 47, 0
2, 36154, Note_on_c, 0, 64, 0
2, 36163, Note_on_c, 0, 61, 70
2, 36194, Note_on_c, 0, 46, 70
2, 36202, Note_on_c, 0, 63, 70
2, 36226, Note_on_c, 0, 56, 0
2, 36229, Note_on_c, 0, 61, 0
2, 36241, Control_c, 0, 64, 0
2, 36286, Note_on_c, 0, 55, 50
2, 36337, Note_on_c, 0, 61, 47
2, 36376, Note_on_c, 0, 46, 0
2, 36383, Note_on_c, 0, 63, 0
2, 36398, Note_on_c, 0, 45, 53
2, 36406, Note_on_c, 0, 62, 52
2, 36432, Note_on_c, 0, 55, 0
2, 36433, Note_on_c, 0, 61, 0
2, 36484, Note_on_c, 0, 54, 51
2, 36539, Note_on_c, 0, 60, 54
2, 36552, Note_on_c, 0, 45, 0
2, 36556, Note_on_c, 0, 62, 0
2, 36574, Note_on_c, 0, 44, 67
2, 36593, Note_on_c, 0, 61, 47
2, 36617, Note_on_c, 0, 52, 55
2, 36621, Note_on_c, 0, 54, 0
2, 36622, Note_on_c, 0, 60, 0
2, 36712, Note_on_c, 0, 56, 60
2, 36720, Note_on_c, 0, 40, 60
2, 36744, Note_on_c, 0, 25, 0
2, 36749, Note_on_c, 0, 37, 0
2, 36750, Note_on_c, 0, 44, 0
2, 36754, Note_on_c, 0, 52, 0
2, 36754, Note_on_c, 0, 56, 0
2, 36757, Note_on_c, 0, 61, 0
2, 36832, Control_c, 0, 64, 127
2, 36836, Note_on_c, 0, 68, 56
2, 36926, Note_on_c, 0, 56, 61
2, 37009, Note_on_c, 0, 61, 56
2, 37030, Note_on_c, 0, 68, 0
2, 37033, Note_on_c, 0, 40, 0
2, 37040, Note_on_c, 0, 56, 0
2, 37055, Note_on_c, 0, 66, 49
2, 37058, Note_on_c, 0, 39, 55
2, 37122, Note_on_c, 0, 57, 57
2, 37139, Note_on_c, 0, 61, 0
2, 37188, Note_on_c, 0, 61, 59
2, 37217, Note_on_c, 0, 57, 0
2, 37244, Control_c, 0, 64, 0
2, 37248, Note_on_c, 0, 42, 54
2, 37256, Note_on_c, 0, 69, 52
2, 37275, Note_on_c, 0, 39, 0
2, 37319, Note_on_c, 0, 54, 55
2, 37351, Note_on_c, 0, 61, 0
2, 37400, Note_on_c, 0, 61, 54
2, 37429, Note_on_c, 0, 54, 0
2, 37433, Note_on_c, 0, 66, 0
2, 37438, Note_on_c, 0, 42, 0
2, 37448, Note_on_c, 0, 69, 0
2, 37448, Note_on_c, 0, 40, 58
2, 37457, Note_on_c, 0, 68, 48
2, 37533, Note_on_c, 0, 56, 56
2, 37565, Note_on_c, 0, 61, 0
2, 37629, Note_on_c, 0, 61, 56
2, 37643, Note_on_c, 0, 56, 0
2, 37648, Note_on_c, 0, 68, 0
2, 37663, Note_on_c, 0, 45, 52
2, 37671, Note_on_c, 0, 66, 47
2, 37680, Control_c, 0, 64, 127
2, 37770, Note_on_c, 0, 54, 54
2, 37777, Note_on_c, 0, 61, 0
2, 37825, Note_on_c, 0, 61, 55
2, 37843, Note_on_c, 0, 66, 0
2, 37849, Note_on_c, 0, 45, 0
2, 37852, Note_on_c, 0, 54, 0
2, 37865, Note_on_c, 0, 64, 53
2, 37875, Note_on_c, 0, 40, 0
2, 37884, Note_on_c, 0, 39, 58
2, 37911, Note_on_c, 0, 64, 0
2, 37921, Note_on_c, 0, 66, 53
2, 38013, Note_on_c, 0, 54, 51
2, 38017, Note_on_c, 0, 61, 0
2, 38068, Note_on_c, 0, 61, 70
2, 38079, Note_on_c, 0, 39, 0
2, 38096, Note_on_c, 0, 54, 0
2, 38112, Note_on_c, 0, 66, 0
2, 38122, Note_on_c, 0, 64, 50
2, 38129, Note_on_c, 0, 44, 50
2, 38137, Control_c, 0, 64, 0
2, 38152, Note_on_c, 0, 61, 0
2, 38238, Note_on_c, 0, 54, 53
2, 38289, Note_on_c, 0, 60, 61
2, 38293, Note_on_c, 0, 63, 66
2, 38297, Note_on_c, 0, 64, 0
2, 38314, Note_on_c, 0, 44, 0
2, 38323, Note_on_c, 0, 37, 67
2, 38335, Note_on_c, 0, 63, 0
2, 38346, Note_on_c, 0, 64, 71
2, 38373, Note_on_c, 0, 54, 0
2, 38374, Note_on_c, 0, 60, 0
2, 38413, Control_c, 0, 64, 127
2, 38449, Note_on_c, 0, 52, 46
2, 38528, Note_on_c, 0, 64, 0
2, 38536, Note_on_c, 0, 61, 49
2, 38574, Note_on_c, 0, 47, 74
2, 38606, Note_on_c, 0, 52, 0
2, 38606, Note_on_c, 0, 64, 47
2, 38638, Note_on_c, 0, 61, 0
2, 38740, Note_on_c, 0, 56, 47
2, 38810, Note_on_c, 0, 47, 0
2, 38810, Note_on_c, 0, 61, 48
2, 38841, Control_c, 0, 64, 0
2, 38842, Note_on_c, 0, 64, 0
2, 38846, Note_on_c, 0, 46, 51
2, 38853, Note_on_c, 0, 63, 46
2, 38880, Note_on_c, 0, 56, 0
2, 38883, Note_on_c, 0, 61, 0
2, 38919, Note_on_c, 0, 55, 50
2, 39002, Note_on_c, 0, 61, 52
2, 39043, Note_on_c, 0, 46, 0
2, 39047, Note_on_c, 0, 61, 0
2, 39048, Note_on_c, 0, 63, 0
2, 39050, Note_on_c, 0, 45, 68
2, 39055, Note_on_c, 0, 62, 69
2, 39084, Note_on_c, 0, 55, 0
2, 39088, Control_c, 0, 67, 0
2, 39108, Note_on_c, 0, 54, 51
2, 39176, Note_on_c, 0, 60, 47
2, 39201, Note_on_c, 0, 45, 0
2, 39206, Note_on_c, 0, 62, 0
2, 39220, Note_on_c, 0, 44, 70
2, 39225, Note_on_c, 0, 61, 65
2, 39253, Note_on_c, 0, 54, 0
2, 39254, Note_on_c, 0, 60, 0
2, 39287, Note_on_c, 0, 37, 0
2, 39288, Note_on_c, 0, 52, 52
2, 39328, Control_c, 0, 64, 127
2, 39335, Note_on_c, 0, 37, 66
2, 39354, Note_on_c, 0, 56, 67
2, 39383, Note_on_c, 0, 52, 0
2, 39390, Note_on_c, 0, 47, 70
2, 39395, Note_on_c, 0, 64, 75
2, 39419, Note_on_c, 0, 44, 0
2, 39450, Note_on_c, 0, 56, 0
2, 39510, Note_on_c, 0, 56, 52
2, 39518, Note_on_c, 0, 61, 0
2, 39565, Note_on_c, 0, 61, 53
2, 39583, Note_on_c, 0, 64, 0
2, 39586, Note_on_c, 0, 46, 69
2, 39594, Note_on_c, 0, 56, 0
2, 39617, Note_on_c, 0, 47, 0
2, 39617, Note_on_c, 0, 63, 47
2, 39621, Note_on_c, 0, 61, 0
2, 39622, Control_c, 0, 64, 0
2, 39665, Note_on_c, 0, 55, 51
2, 39743, Note_on_c, 0, 61, 53
2, 39750, Note_on_c, 0, 45, 65
2, 39759, Note_on_c, 0, 63, 0
2, 39769, Note_on_c, 0, 55, 0
2, 39780, Note_on_c, 0, 46, 0
2, 39781, Note_on_c, 0, 62, 48
2, 39796, Note_on_c, 0, 61, 0
2, 39804, Note_on_c, 0, 54, 47
2, 39887, Note_on_c, 0, 62, 0
2, 39894, Note_on_c, 0, 60, 52
2, 39923, Note_on_c, 0, 54, 0
2, 39928, Note_on_c, 0, 44, 52
2, 39933, Note_on_c, 0, 61, 52
2, 39948, Note_on_c, 0, 60, 0
2, 39956, Note_on_c, 0, 52, 46
2, 39959, Note_on_c, 0, 45, 0
2, 40001, Control_c, 0, 64, 127
2, 40022, Note_on_c, 0, 56, 52
2, 40032, Note_on_c, 0, 40, 56
2, 40060, Note_on_c, 0, 37, 0
2, 40061, Note_on_c, 0, 44, 0
2, 40100, Note_on_c, 0, 49, 53
2, 40116, Note_on_c, 0, 68, 67
2, 40117, Note_on_c, 0, 56, 0
2, 40129, Note_on_c, 0, 52, 0
2, 40194, Note_on_c, 0, 61, 0
2, 40202, Note_on_c, 0, 56, 53
2, 40239, Note_on_c, 0, 61, 53
2, 40258, Note_on_c, 0, 68, 0
2, 40285, Note_on_c, 0, 39, 70
2, 40293, Note_on_c, 0, 66, 68
2, 40314, Note_on_c, 0, 40, 0
2, 40342, Note_on_c, 0, 57, 56
2, 40345, Note_on_c, 0, 61, 0
2, 40372, Note_on_c, 0, 56, 0
2, 40396, Note_on_c, 0, 61, 59
2, 40425, Note_on_c, 0, 57, 0
2, 40438, Note_on_c, 0, 69, 69
2, 40444, Control_c, 0, 64, 0
2, 40447, Note_on_c, 0, 42, 67
2, 40478, Note_on_c, 0, 39, 0
2, 40518, Note_on_c, 0, 54, 54
2, 40522, Note_on_c, 0, 61, 0
2, 40525, Note_on_c, 0, 66, 0
2, 40560, Note_on_c, 0, 42, 0
2, 40576, Note_on_c, 0, 61, 70
2, 40595, Note_on_c, 0, 69, 0
2, 40599, Note_on_c, 0, 40, 72
2, 40620, Note_on_c, 0, 54, 0
2, 40620, Note_on_c, 0, 68, 73
2, 40649, Note_on_c, 0, 61, 0
2, 40659, Note_on_c, 0, 56, 56
2, 40700, Note_on_c, 0, 61, 62
2, 40752, Note_on_c, 0, 45, 72
2, 40778, Note_on_c, 0, 52, 74
2, 40779, Note_on_c, 0, 40, 0
2, 40783, Note_on_c, 0, 49, 0
2, 40784, Note_on_c, 0, 56, 0
2, 40788, Note_on_c, 0, 68, 0
2, 40811, Note_on_c, 0, 73, 76
2, 40826, Note_on_c, 0, 61, 0
2, 40855, Control_c, 0, 64, 127
2, 40878, Note_on_c, 0, 61, 74
2, 40895, Note_on_c, 0, 52, 0
2, 40935, Note_on_c, 0, 69, 51
2, 40959, Note_on_c, 0, 53, 76
2, 40967, Note_on_c, 0, 73, 0
2, 40977, Note_on_c, 0, 71, 76
2, 41016, Note_on_c, 0, 62, 75
2, 41022, Note_on_c, 0, 69, 0
2, 41034, Note_on_c, 0, 61, 0
2, 41072, Note_on_c, 0, 53, 0
2, 41072, Note_on_c, 0, 69, 52
2, 41101, Note_on_c, 0, 62, 0
2, 41104, Note_on_c, 0, 71, 0
2, 41140, Note_on_c, 0, 74, 74
2, 41149, Note_on_c, 0, 53, 70
2, 41160, Control_c, 0, 64, 0
2, 41169, Note_on_c, 0, 69, 0
2, 41205, Note_on_c, 0, 62, 76
2, 41259, Note_on_c, 0, 53, 0
2, 41259, Note_on_c, 0, 68, 52
2, 41291, Note_on_c, 0, 74, 0
2, 41299, Note_on_c, 0, 52, 77
2, 41318, Note_on_c, 0, 73, 70
2, 41332, Note_on_c, 0, 62, 0
2, 41347, Note_on_c, 0, 68, 0
2, 41355, Note_on_c, 0, 61, 78
2, 41411, Note_on_c, 0, 69, 53
2, 41436, Note_on_c, 0, 60, 76
2, 41465, Note_on_c, 0, 45, 0
2, 41466, Note_on_c, 0, 52, 0
2, 41466, Note_on_c, 0, 63, 70
2, 41469, Note_on_c, 0, 61, 0
2, 41496, Note_on_c, 0, 69, 0
2, 41496, Note_on_c, 0, 73, 0
2, 41511, Note_on_c, 0, 78, 76
2, 41592, Note_on_c, 0, 69, 51
2, 41658, Note_on_c, 0, 75, 58
2, 41662, Note_on_c, 0, 63, 0
2, 41673, Note_on_c, 0, 60, 0
2, 41684, Note_on_c, 0, 61, 72
2, 41698, Note_on_c, 0, 64, 70
2, 41699, Note_on_c, 0, 76, 71
2, 41702, Note_on_c, 0, 69, 0
2, 41705, Note_on_c, 0, 78, 0
2, 41716, Note_on_c, 0, 75, 0
2, 41753, Note_on_c, 0, 68, 52
2, 41808, Note_on_c, 0, 73, 56
2, 41836, Note_on_c, 0, 61, 0
2, 41837, Note_on_c, 0, 64, 0
2, 41846, Note_on_c, 0, 56, 72
2, 41846, Note_on_c, 0, 59, 69
2, 41849, Note_on_c, 0, 74, 75
2, 41880, Note_on_c, 0, 73, 0
2, 41880, Note_on_c, 0, 76, 0
2, 41880, Control_c, 0, 64, 127
2, 41889, Note_on_c, 0, 65, 52
2, 41944, Note_on_c, 0, 71, 53
2, 41958, Note_on_c, 0, 56, 0
2, 41958, Note_on_c, 0, 59, 0
2, 41976, Note_on_c, 0, 68, 0
2, 41984, Note_on_c, 0, 57, 72
2, 41999, Note_on_c, 0, 61, 68
2, 42005, Note_on_c, 0, 74, 0
2, 42016, Note_on_c, 0, 73, 68
2, 42034, Note_on_c, 0, 65, 0
2, 42049, Note_on_c, 0, 71, 0
2, 42058, Note_on_c, 0, 66, 50
2, 42089, Note_on_c, 0, 61, 0
2, 42100, Note_on_c, 0, 69, 56
2, 42132, Note_on_c, 0, 73, 0
2, 42144, Note_on_c, 0, 57, 0
2, 42167, Note_on_c, 0, 56, 72
2, 42170, Note_on_c, 0, 74, 72
2, 42181, Note_on_c, 0, 59, 69
2, 42192, Control_c, 0, 64, 0
2, 42202, Note_on_c, 0, 66, 0
2, 42202, Note_on_c, 0, 69, 0
2, 42240, Note_on_c, 0, 65, 48
2, 42280, Note_on_c, 0, 56, 0
2, 42281, Note_on_c, 0, 71, 54
2, 42295, Note_on_c, 0, 59, 0
2, 42306, Note_on_c, 0, 57, 69
2, 42307, Note_on_c, 0, 61, 70
2, 42313, Note_on_c, 0, 74, 0
2, 42321, Note_on_c, 0, 73, 65
2, 42325, Note_on_c, 0, 71, 0
2, 42337, Note_on_c, 0, 65, 0
2, 42376, Note_on_c, 0, 66, 47
2, 42395, Note_on_c, 0, 73, 0
2, 42419, Note_on_c, 0, 57, 0
2, 42420, Note_on_c, 0, 61, 0
2, 42420, Note_on_c, 0, 69, 49
2, 42466, Note_on_c, 0, 69, 0
2, 42474, Note_on_c, 0, 53, 64
2, 42474, Note_on_c, 0, 56, 68
2, 42475, Note_on_c, 0, 71, 67
2, 42506, Note_on_c, 0, 66, 0
2, 42530, Note_on_c, 0, 62, 61
2, 42576, Note_on_c, 0, 71, 0
2, 42587, Note_on_c, 0, 53, 0
2, 42588, Note_on_c, 0, 56, 0
2, 42588, Note_on_c, 0, 68, 50
2, 42612, Note_on_c, 0, 54, 62
2, 42627, Note_on_c, 0, 57, 64
2, 42628, Note_on_c, 0, 69, 67
2, 42632, Note_on_c, 0, 68, 0
2, 42659, Note_on_c, 0, 62, 0
2, 42696, Note_on_c, 0, 61, 63
2, 42699, Note_on_c, 0, 57, 0
2, 42699, Note_on_c, 0, 54, 0
2, 42702, Note_on_c, 0, 69, 0
2, 42739, Note_on_c, 0, 66, 53
2, 42769, Note_on_c, 0, 61, 0
2, 42778, Note_on_c, 0, 51, 59
2, 42778, Note_on_c, 0, 54, 63
2, 42782, Note_on_c, 0, 69, 72
2, 42813, Control_c, 0, 64, 127
2, 42824, Note_on_c, 0, 66, 0
2, 42835, Note_on_c, 0, 60, 63
2, 42877, Note_on_c, 0, 66, 49
2, 42892, Note_on_c, 0, 51, 0
2, 42892, Note_on_c, 0, 54, 0
2, 42895, Note_on_c, 0, 69, 0
2, 42918, Note_on_c, 0, 52, 63
2, 42919, Note_on_c, 0, 56, 60
2, 42935, Note_on_c, 0, 68, 64
2, 42949, Note_on_c, 0, 60, 0
2, 42978, Note_on_c, 0, 66, 0
2, 42985, Note_on_c, 0, 61, 56
2, 43008, Control_c, 0, 64, 0
2, 43028, Note_on_c, 0, 64, 58
2, 43029, Note_on_c, 0, 52, 0
2, 43030, Note_on_c, 0, 56, 0
2, 43061, Note_on_c, 0, 68, 0
2, 43065, Note_on_c, 0, 48, 57
2, 43065, Note_on_c, 0, 51, 58
2, 43081, Note_on_c, 0, 66, 66
2, 43100, Note_on_c, 0, 61, 0
2, 43100, Note_on_c, 0, 64, 0
2, 43132, Note_on_c, 0, 57, 55
2, 43171, Note_on_c, 0, 49, 56
2, 43174, Note_on_c, 0, 63, 54
2, 43175, Note_on_c, 0, 48, 0
2, 43176, Note_on_c, 0, 51, 0
2, 43178, Note_on_c, 0, 66, 0
2, 43197, Note_on_c, 0, 52, 70
2, 43200, Note_on_c, 0, 64, 66
2, 43217, Note_on_c, 0, 63, 0
2, 43241, Note_on_c, 0, 57, 0
2, 43264, Note_on_c, 0, 56, 48
2, 43278, Note_on_c, 0, 52, 0
2, 43278, Note_on_c, 0, 49, 0
2, 43302, Note_on_c, 0, 61, 71
2, 43307, Note_on_c, 0, 64, 0
2, 43308, Control_c, 0, 64, 127
2, 43323, Note_on_c, 0, 42, 86
2, 43343, Note_on_c, 0, 62, 71
2, 43345, Note_on_c, 0, 61, 0
2, 43358, Note_on_c, 0, 56, 0
2, 43380, Note_on_c, 0, 57, 57
2, 43423, Note_on_c, 0, 57, 0
2, 43434, Note_on_c, 0, 61, 57
2, 43438, Note_on_c, 0, 62, 0
2, 43458, Note_on_c, 0, 50, 52
2, 43476, Note_on_c, 0, 69, 71
2, 43487, Note_on_c, 0, 42, 0
2, 43505, Note_on_c, 0, 61, 0
2, 43512, Note_on_c, 0, 57, 59
2, 43553, Note_on_c, 0, 61, 55
2, 43568, Note_on_c, 0, 50, 0
2, 43584, Note_on_c, 0, 69, 0
2, 43585, Note_on_c, 0, 43, 76
2, 43592, Note_on_c, 0, 63, 73
2, 43619, Note_on_c, 0, 61, 0
2, 43631, Note_on_c, 0, 57, 0
2, 43653, Note_on_c, 0, 58, 56
2, 43692, Note_on_c, 0, 61, 54
2, 43695, Note_on_c, 0, 58, 0
2, 43696, Note_on_c, 0, 63, 0
2, 43727, Note_on_c, 0, 51, 60
2, 43730, Note_on_c, 0, 70, 65
2, 43750, Control_c, 0, 64, 0
2, 43758, Note_on_c, 0, 61, 0
2, 43767, Note_on_c, 0, 58, 58
2, 43781, Note_on_c, 0, 51, 0
2, 43805, Note_on_c, 0, 43, 0
2, 43818, Note_on_c, 0, 61, 73
2, 43840, Note_on_c, 0, 44, 74
2, 43844, Note_on_c, 0, 64, 75
2, 43860, Note_on_c, 0, 61, 0
2, 43884, Note_on_c, 0, 58, 0
2, 43906, Note_on_c, 0, 59, 60
2, 43946, Note_on_c, 0, 63, 54
2, 43976, Note_on_c, 0, 64, 0
2, 43983, Note_on_c, 0, 52, 60
2, 43987, Note_on_c, 0, 71, 73
2, 44015, Note_on_c, 0, 59, 0
2, 44016, Note_on_c, 0, 70, 0
2, 44028, Note_on_c, 0, 63, 0
2, 44050, Note_on_c, 0, 59, 62
2, 44092, Note_on_c, 0, 52, 0
2, 44093, Note_on_c, 0, 63, 67
2, 44104, Note_on_c, 0, 51, 69
2, 44120, Note_on_c, 0, 72, 72
2, 44133, Note_on_c, 0, 59, 0
2, 44149, Note_on_c, 0, 71, 0
2, 44168, Note_on_c, 0, 60, 69
2, 44222, Note_on_c, 0, 66, 71
2, 44232, Note_on_c, 0, 49, 75
2, 44252, Note_on_c, 0, 63, 0
2, 44260, Note_on_c, 0, 44, 0
2, 44261, Note_on_c, 0, 51, 0
2, 44261, Note_on_c, 0, 73, 74
2, 44262, Note_on_c, 0, 60, 0
2, 44285, Note_on_c, 0, 61, 69
2, 44290, Note_on_c, 0, 72, 0
2, 44318, Note_on_c, 0, 25, 73
2, 44319, Note_on_c, 0, 37, 75
2, 44338, Note_on_c, 0, 64, 74
2, 44411, Control_c, 0, 64, 127
2, 44450, Note_on_c, 0, 66, 0
2, 44461, Note_on_c, 0, 76, 76
2, 44475, Note_on_c, 0, 59, 69
2, 44494, Note_on_c, 0, 73, 0
2, 44601, Note_on_c, 0, 68, 50
2, 44640, Note_on_c, 0, 73, 53
2, 44661, Note_on_c, 0, 76, 0
2, 44668, Note_on_c, 0, 58, 67
2, 44684, Note_on_c, 0, 75, 79
2, 44696, Note_on_c, 0, 59, 0
2, 44699, Note_on_c, 0, 61, 0
2, 44699, Note_on_c, 0, 64, 0
2, 44726, Note_on_c, 0, 67, 51
2, 44729, Note_on_c, 0, 73, 0
2, 44756, Note_on_c, 0, 68, 0
2, 44779, Note_on_c, 0, 73, 54
2, 44803, Note_on_c, 0, 57, 69
2, 44804, Note_on_c, 0, 74, 72
2, 44822, Note_on_c, 0, 73, 0
2, 44831, Note_on_c, 0, 58, 0
2, 44846, Note_on_c, 0, 75, 0
2, 44855, Note_on_c, 0, 66, 49
2, 44863, Control_c, 0, 64, 0
2, 44885, Note_on_c, 0, 67, 0
2, 44908, Note_on_c, 0, 72, 51
2, 44921, Note_on_c, 0, 56, 67
2, 44939, Note_on_c, 0, 66, 0
2, 44950, Note_on_c, 0, 73, 70
2, 44951, Note_on_c, 0, 57, 0
2, 44953, Note_on_c, 0, 72, 0
2, 44960, Note_on_c, 0, 25, 0
2, 44960, Note_on_c, 0, 37, 0
2, 44982, Note_on_c, 0, 74, 0
2, 44990, Note_on_c, 0, 64, 78
2, 45010, Note_on_c, 0, 25, 72
2, 45013, Note_on_c, 0, 37, 73
2, 45032, Note_on_c, 0, 68, 52
2, 45076, Note_on_c, 0, 68, 0
2, 45100, Note_on_c, 0, 76, 77
2, 45112, Note_on_c, 0, 59, 77
2, 45140, Note_on_c, 0, 49, 0
2, 45141, Note_on_c, 0, 56, 0
2, 45152, Note_on_c, 0, 68, 47
2, 45157, Note_on_c, 0, 73, 0
2, 45158, Control_c, 0, 64, 127
2, 45208, Note_on_c, 0, 73, 46
2, 45235, Note_on_c, 0, 64, 0
2, 45245, Note_on_c, 0, 58, 75
2, 45246, Note_on_c, 0, 75, 77
2, 45264, Note_on_c, 0, 73, 0
2, 45275, Note_on_c, 0, 59, 0
2, 45290, Note_on_c, 0, 76, 0
2, 45313, Note_on_c, 0, 67, 49
2, 45339, Note_on_c, 0, 73, 49
2, 45363, Note_on_c, 0, 57, 74
2, 45370, Note_on_c, 0, 68, 0
2, 45381, Note_on_c, 0, 74, 72
2, 45395, Note_on_c, 0, 58, 0
2, 45398, Note_on_c, 0, 73, 0
2, 45412, Note_on_c, 0, 75, 0
2, 45415, Control_c, 0, 64, 0
2, 45422, Note_on_c, 0, 66, 70
2, 45464, Note_on_c, 0, 72, 76
2, 45468, Note_on_c, 0, 67, 0
2, 45480, Note_on_c, 0, 57, 0
2, 45496, Note_on_c, 0, 74, 0
2, 45504, Note_on_c, 0, 56, 76
2, 45506, Note_on_c, 0, 73, 73
2, 45523, Note_on_c, 0, 72, 0
2, 45531, Note_on_c, 0, 64, 72
2, 45574, Note_on_c, 0, 68, 46
2, 45598, Note_on_c, 0, 52, 72
2, 45604, Note_on_c, 0, 66, 0
2, 45605, Note_on_c, 0, 73, 0
2, 45628, Note_on_c, 0, 56, 0
2, 45640, Note_on_c, 0, 61, 75
2, 45643, Note_on_c, 0, 80, 73
2, 45671, Note_on_c, 0, 68, 0
2, 45721, Note_on_c, 0, 68, 49
2, 45748, Note_on_c, 0, 73, 49
2, 45767, Control_c, 0, 64, 127
2, 45778, Note_on_c, 0, 68, 0
2, 45779, Note_on_c, 0, 64, 0
2, 45797, Note_on_c, 0, 51, 71
2, 45802, Note_on_c, 0, 78, 70
2, 45828, Note_on_c, 0, 52, 0
2, 45832, Note_on_c, 0, 73, 0
2, 45833, Note_on_c, 0, 80, 0
2, 45841, Note_on_c, 0, 69, 47
2, 45883, Note_on_c, 0, 73, 49
2, 45913, Note_on_c, 0, 69, 0
2, 45921, Note_on_c, 0, 54, 71
2, 45924, Note_on_c, 0, 81, 74
2, 45952, Note_on_c, 0, 51, 0
2, 45959, Control_c, 0, 64, 0
2, 45970, Note_on_c, 0, 73, 0
2, 45981, Note_on_c, 0, 66, 53
2, 46022, Note_on_c, 0, 73, 52
2, 46034, Note_on_c, 0, 54, 0
2, 46039, Note_on_c, 0, 81, 0
2, 46050, Note_on_c, 0, 66, 0
2, 46053, Note_on_c, 0, 78, 0
2, 46071, Note_on_c, 0, 52, 71
2, 46076, Note_on_c, 0, 80, 73
2, 46119, Note_on_c, 0, 73, 0
2, 46127, Note_on_c, 0, 68, 46
2, 46168, Note_on_c, 0, 73, 53
2, 46190, Note_on_c, 0, 25, 0
2, 46191, Note_on_c, 0, 37, 0
2, 46198, Note_on_c, 0, 61, 0
2, 46198, Note_on_c, 0, 68, 0
2, 46205, Note_on_c, 0, 57, 69
2, 46208, Note_on_c, 0, 78, 72
2, 46238, Note_on_c, 0, 73, 0
2, 46239, Note_on_c, 0, 80, 0
2, 46246, Note_on_c, 0, 66, 51
2, 46304, Note_on_c, 0, 78, 0
2, 46312, Note_on_c, 0, 73, 53
2, 46338, Note_on_c, 0, 52, 0
2, 46342, Note_on_c, 0, 66, 0
2, 46354, Note_on_c, 0, 76, 67
2, 46374, Note_on_c, 0, 51, 64
2, 46382, Note_on_c, 0, 78, 70
2, 46383, Note_on_c, 0, 73, 0
2, 46407, Note_on_c, 0, 57, 0
2, 46411, Note_on_c, 0, 76, 0
2, 46450, Note_on_c, 0, 66, 53
2, 46497, Note_on_c, 0, 66, 0
2, 46500, Note_on_c, 0, 78, 0
2, 46509, Note_on_c, 0, 73, 50
2, 46538, Note_on_c, 0, 76, 75
2, 46547, Note_on_c, 0, 56, 67
2, 46579, Note_on_c, 0, 51, 0
2, 46584, Note_on_c, 0, 73, 0
2, 46592, Note_on_c, 0, 66, 51
2, 46641, Note_on_c, 0, 76, 0
2, 46650, Note_on_c, 0, 72, 50
2, 46678, Note_on_c, 0, 75, 52
2, 46686, Note_on_c, 0, 49, 62
2, 46718, Note_on_c, 0, 56, 0
2, 46721, Note_on_c, 0, 76, 72
2, 46749, Note_on_c, 0, 72, 0
2, 46750, Note_on_c, 0, 75, 0
2, 46750, Note_on_c, 0, 66, 0
2, 46772, Note_on_c, 0, 64, 81
2, 46776, Note_on_c, 0, 25, 82
2, 46804, Note_on_c, 0, 76, 0
2, 46815, Note_on_c, 0, 73, 51
2, 46869, Control_c, 0, 64, 127
2, 46877, Note_on_c, 0, 59, 78
2, 46881, Note_on_c, 0, 76, 73
2, 46909, Note_on_c, 0, 64, 0
2, 46910, Note_on_c, 0, 73, 0
2, 46947, Note_on_c, 0, 68, 46
2, 46993, Note_on_c, 0, 76, 0
2, 47002, Note_on_c, 0, 73, 48
2, 47024, Note_on_c, 0, 58, 77
2, 47027, Note_on_c, 0, 75, 74
2, 47055, Note_on_c, 0, 59, 0
2, 47056, Note_on_c, 0, 68, 0
2, 47057, Note_on_c, 0, 73, 0
2, 47065, Note_on_c, 0, 67, 49
2, 47107, Note_on_c, 0, 73, 47
2, 47137, Note_on_c, 0, 75, 0
2, 47157, Note_on_c, 0, 57, 68
2, 47160, Note_on_c, 0, 74, 76
2, 47186, Note_on_c, 0, 58, 0
2, 47189, Note_on_c, 0, 67, 0
2, 47190, Note_on_c, 0, 73, 0
2, 47198, Note_on_c, 0, 66, 48
2, 47230, Control_c, 0, 64, 0
2, 47236, Note_on_c, 0, 72, 50
2, 47267, Note_on_c, 0, 74, 0
2, 47274, Note_on_c, 0, 56, 70
2, 47290, Note_on_c, 0, 73, 73
2, 47314, Note_on_c, 0, 49, 0
2, 47315, Note_on_c, 0, 57, 0
2, 47316, Note_on_c, 0, 66, 0
2, 47317, Note_on_c, 0, 72, 0
2, 47326, Note_on_c, 0, 64, 72
2, 47336, Note_on_c, 0, 25, 0
2, 47367, Note_on_c, 0, 68, 52
2, 47370, Note_on_c, 0, 25, 81
2, 47373, Note_on_c, 0, 37, 85
2, 47380, Note_on_c, 0, 56, 0
2, 47397, Note_on_c, 0, 73, 0
2, 47408, Note_on_c, 0, 68, 0
2, 47420, Note_on_c, 0, 76, 80
2, 47455, Note_on_c, 0, 59, 70
2, 47497, Note_on_c, 0, 68, 56
2, 47527, Control_c, 0, 64, 127
2, 47539, Note_on_c, 0, 73, 51
2, 47543, Note_on_c, 0, 76, 0
2, 47580, Note_on_c, 0, 75, 82
2, 47589, Note_on_c, 0, 58, 71
2, 47616, Note_on_c, 0, 59, 0
2, 47619, Note_on_c, 0, 64, 0
2, 47620, Note_on_c, 0, 68, 0
2, 47620, Note_on_c, 0, 73, 0
2, 47628, Note_on_c, 0, 67, 52
2, 47669, Note_on_c, 0, 73, 57
2, 47686, Note_on_c, 0, 75, 0
2, 47697, Note_on_c, 0, 67, 0
2, 47705, Note_on_c, 0, 57, 73
2, 47708, Note_on_c, 0, 74, 81
2, 47736, Note_on_c, 0, 58, 0
2, 47736, Note_on_c, 0, 73, 0
2, 47757, Note_on_c, 0, 66, 55
2, 47773, Control_c, 0, 64, 0
2, 47796, Note_on_c, 0, 72, 52
2, 47811, Note_on_c, 0, 74, 0
2, 47823, Note_on_c, 0, 27, 73
2, 47834, Note_on_c, 0, 73, 51
2, 47843, Note_on_c, 0, 56, 76
2, 47854, Note_on_c, 0, 27, 0
2, 47862, Note_on_c, 0, 66, 0
2, 47863, Note_on_c, 0, 72, 0
2, 47871, Note_on_c, 0, 64, 77
2, 47874, Note_on_c, 0, 57, 0
2, 47921, Note_on_c, 0, 52, 82
2, 47925, Note_on_c, 0, 68, 55
2, 47944, Note_on_c, 0, 25, 0
2, 47947, Note_on_c, 0, 37, 0
2, 47950, Note_on_c, 0, 61, 82
2, 47979, Note_on_c, 0, 80, 88
2, 47980, Note_on_c, 0, 68, 0
2, 48022, Note_on_c, 0, 73, 0
2, 48029, Note_on_c, 0, 68, 59
2, 48059, Note_on_c, 0, 64, 0
2, 48071, Note_on_c, 0, 73, 54
2, 48093, Note_on_c, 0, 51, 74
2, 48113, Note_on_c, 0, 78, 88
2, 48117, Note_on_c, 0, 80, 0
2, 48123, Note_on_c, 0, 52, 0
2, 48124, Note_on_c, 0, 56, 0
2, 48141, Note_on_c, 0, 73, 0
2, 48149, Note_on_c, 0, 69, 55
2, 48191, Note_on_c, 0, 73, 58
2, 48202, Note_on_c, 0, 51, 0
2, 48218, Note_on_c, 0, 81, 87
2, 48219, Note_on_c, 0, 68, 0
2, 48224, Note_on_c, 0, 54, 75
2, 48228, Control_c, 0, 64, 127
2, 48271, Note_on_c, 0, 73, 0
2, 48280, Note_on_c, 0, 66, 62
2, 48318, Note_on_c, 0, 73, 57
2, 48331, Note_on_c, 0, 54, 0
2, 48337, Note_on_c, 0, 78, 0
2, 48338, Note_on_c, 0, 52, 78
2, 48346, Note_on_c, 0, 69, 0
2, 48360, Note_on_c, 0, 81, 0
2, 48372, Note_on_c, 0, 80, 89
2, 48384, Note_on_c, 0, 68, 90
2, 48386, Note_on_c, 0, 66, 0
2, 48389, Note_on_c, 0, 73, 0
2, 48413, Note_on_c, 0, 61, 0
2, 48414, Note_on_c, 0, 68, 0
2, 48440, Note_on_c, 0, 73, 59
2, 48458, Note_on_c, 0, 52, 0
2, 48467, Note_on_c, 0, 65, 58
2, 48468, Note_on_c, 0, 68, 56
2, 48483, Note_on_c, 0, 83, 93
2, 48486, Control_c, 0, 64, 0
2, 48528, Note_on_c, 0, 80, 0
2, 48536, Note_on_c, 0, 74, 59
2, 48578, Note_on_c, 0, 80, 60
2, 48598, Note_on_c, 0, 83, 0
2, 48609, Note_on_c, 0, 73, 0
2, 48618, Note_on_c, 0, 66, 62
2, 48621, Note_on_c, 0, 69, 64
2, 48622, Note_on_c, 0, 68, 0
2, 48633, Note_on_c, 0, 81, 87
2, 48636, Note_on_c, 0, 65, 0
2, 48650, Note_on_c, 0, 80, 0
2, 48661, Note_on_c, 0, 73, 58
2, 48695, Note_on_c, 0, 74, 0
2, 48703, Note_on_c, 0, 78, 62
2, 48733, Note_on_c, 0, 66, 0
2, 48734, Note_on_c, 0, 69, 0
2, 48744, Note_on_c, 0, 71, 86
2, 48745, Note_on_c, 0, 68, 87
2, 48745, Note_on_c, 0, 86, 90
2, 48749, Note_on_c, 0, 81, 0
2, 48775, Note_on_c, 0, 73, 0
2, 48799, Note_on_c, 0, 77, 57
2, 48816, Note_on_c, 0, 78, 0
2, 48839, Note_on_c, 0, 83, 61
2, 48880, Note_on_c, 0, 85, 92
2, 48888, Note_on_c, 0, 69, 59
2, 48889, Note_on_c, 0, 78, 59
2, 48890, Note_on_c, 0, 73, 58
2, 48909, Note_on_c, 0, 83, 0
2, 48912, Note_on_c, 0, 86, 0
2, 48919, Note_on_c, 0, 71, 0
2, 48919, Note_on_c, 0, 77, 0
2, 48919, Note_on_c, 0, 68, 0
2, 48957, Note_on_c, 0, 81, 56
2, 48998, Control_c, 0, 64, 127
2, 49001, Note_on_c, 0, 69, 0
2, 49002, Note_on_c, 0, 81, 0
2, 49024, Note_on_c, 0, 72, 87
2, 49024, Note_on_c, 0, 75, 91
2, 49025, Note_on_c, 0, 90, 87
2, 49029, Note_on_c, 0, 73, 0
2, 49051, Note_on_c, 0, 81, 58
2, 49080, Note_on_c, 0, 87, 57
2, 49081, Note_on_c, 0, 78, 0
2, 49111, Note_on_c, 0, 85, 0
2, 49138, Note_on_c, 0, 90, 0
2, 49157, Note_on_c, 0, 73, 88
2, 49157, Note_on_c, 0, 76, 84
2, 49162, Note_on_c, 0, 81, 0
2, 49171, Note_on_c, 0, 88, 91
2, 49172, Note_on_c, 0, 75, 0
2, 49173, Note_on_c, 0, 72, 0
2, 49189, Note_on_c, 0, 87, 0
2, 49209, Note_on_c, 0, 80, 57
2, 49225, Control_c, 0, 64, 0
2, 49236, Note_on_c, 0, 85, 56
2, 49267, Note_on_c, 0, 88, 0
2, 49277, Note_on_c, 0, 73, 0
2, 49278, Note_on_c, 0, 76, 0
2, 49304, Note_on_c, 0, 84, 87
2, 49304, Note_on_c, 0, 90, 88
2, 49305, Note_on_c, 0, 93, 83
2, 49335, Note_on_c, 0, 85, 0
2, 49372, Control_c, 0, 64, 127
2, 49376, Note_on_c, 0, 90, 0
2, 49376, Note_on_c, 0, 93, 0
2, 49383, Note_on_c, 0, 75, 55
2, 49384, Note_on_c, 0, 78, 58
2, 49402, Note_on_c, 0, 84, 0
2, 49415, Note_on_c, 0, 80, 0
2, 49439, Note_on_c, 0, 90, 76
2, 49440, Note_on_c, 0, 93, 72
2, 49451, Note_on_c, 0, 84, 78
2, 49492, Note_on_c, 0, 80, 88
2, 49493, Note_on_c, 0, 76, 94
2, 49523, Note_on_c, 0, 75, 0
2, 49537, Note_on_c, 0, 76, 0
2, 49538, Note_on_c, 0, 80, 0
2, 49539, Note_on_c, 0, 78, 0
2, 49548, Note_on_c, 0, 85, 95
2, 49549, Note_on_c, 0, 92, 90
2, 49550, Note_on_c, 0, 88, 89
2, 49565, Note_on_c, 0, 84, 0
2, 49566, Note_on_c, 0, 93, 0
2, 49567, Control_c, 0, 64, 0
2, 49586, Note_on_c, 0, 76, 76
2, 49587, Note_on_c, 0, 80, 69
2, 49594, Note_on_c, 0, 90, 0
2, 49629, Note_on_c, 0, 81, 82
2, 49644, Note_on_c, 0, 87, 82
2, 49645, Note_on_c, 0, 76, 0
2, 49645, Note_on_c, 0, 90, 82
2, 49646, Note_on_c, 0, 80, 0
2, 49673, Note_on_c, 0, 81, 0
2, 49680, Note_on_c, 0, 72, 82
2, 49680, Note_on_c, 0, 75, 81
2, 49688, Note_on_c, 0, 87, 0
2, 49703, Note_on_c, 0, 90, 0
2, 49736, Note_on_c, 0, 81, 82
2, 49739, Note_on_c, 0, 87, 81
2, 49753, Note_on_c, 0, 90, 82
2, 49757, Note_on_c, 0, 85, 0
2, 49757, Note_on_c, 0, 88, 0
2, 49764, Note_on_c, 0, 73, 86
2, 49765, Note_on_c, 0, 76, 86
2, 49795, Note_on_c, 0, 76, 0
2, 49795, Note_on_c, 0, 73, 0
2, 49795, Note_on_c, 0, 75, 0
2, 49795, Note_on_c, 0, 72, 0
2, 49806, Note_on_c, 0, 80, 83
2, 49807, Note_on_c, 0, 85, 81
2, 49807, Note_on_c, 0, 88, 86
2, 49837, Note_on_c, 0, 81, 0
2, 49838, Note_on_c, 0, 92, 0
2, 49838, Note_on_c, 0, 87, 0
2, 49839, Note_on_c, 0, 90, 0
2, 49847, Note_on_c, 0, 73, 86
2, 49847, Note_on_c, 0, 76, 83
2, 49886, Note_on_c, 0, 77, 80
2, 49887, Note_on_c, 0, 83, 85
2, 49887, Note_on_c, 0, 86, 86
2, 49917, Note_on_c, 0, 77, 0
2, 49917, Note_on_c, 0, 73, 0
2, 49917, Note_on_c, 0, 80, 0
2, 49917, Note_on_c, 0, 76, 0
2, 49917, Control_c, 0, 64, 127
2, 49918, Note_on_c, 0, 83, 0
2, 49918, Note_on_c, 0, 88, 0
2, 49918, Note_on_c, 0, 85, 0
2, 49919, Note_on_c, 0, 86, 0
2, 49923, Note_on_c, 0, 68, 86
2, 49923, Note_on_c, 0, 71, 81
2, 49967, Note_on_c, 0, 77, 80
2, 49969, Note_on_c, 0, 83, 80
2, 49969, Note_on_c, 0, 86, 81
2, 50009, Note_on_c, 0, 69, 81
2, 50009, Note_on_c, 0, 73, 80
2, 50037, Note_on_c, 0, 78, 84
2, 50040, Note_on_c, 0, 73, 0
2, 50040, Note_on_c, 0, 68, 0
2, 50040, Note_on_c, 0, 71, 0
2, 50040, Note_on_c, 0, 69, 0
2, 50051, Note_on_c, 0, 81, 83
2, 50051, Note_on_c, 0, 85, 80
2, 50067, Note_on_c, 0, 77, 0
2, 50083, Note_on_c, 0, 86, 0
2, 50091, Note_on_c, 0, 69, 86
2, 50091, Note_on_c, 0, 73, 82
2, 50096, Note_on_c, 0, 83, 0
2, 50145, Note_on_c, 0, 74, 86
2, 50146, Note_on_c, 0, 80, 81
2, 50147, Note_on_c, 0, 83, 82
2, 50162, Note_on_c, 0, 69, 0
2, 50163, Note_on_c, 0, 73, 0
2, 50176, Note_on_c, 0, 78, 0
2, 50176, Note_on_c, 0, 81, 0
2, 50176, Note_on_c, 0, 74, 0
2, 50177, Note_on_c, 0, 85, 0
2, 50177, Note_on_c, 0, 80, 0
2, 50178, Note_on_c, 0, 83, 0
2, 50184, Note_on_c, 0, 65, 79
2, 50185, Note_on_c, 0, 68, 80
2, 50224, Control_c, 0, 64, 0
2, 50228, Note_on_c, 0, 74, 82
2, 50229, Note_on_c, 0, 80, 84
2, 50230, Note_on_c, 0, 83, 83
2, 50256, Note_on_c, 0, 69, 86
2, 50268, Note_on_c, 0, 66, 85
2, 50284, Note_on_c, 0, 69, 0
2, 50284, Note_on_c, 0, 68, 0
2, 50297, Note_on_c, 0, 65, 0
2, 50300, Note_on_c, 0, 66, 0
2, 50308, Note_on_c, 0, 73, 81
2, 50308, Note_on_c, 0, 78, 83
2, 50309, Note_on_c, 0, 81, 86
2, 50339, Note_on_c, 0, 80, 0
2, 50339, Note_on_c, 0, 74, 0
2, 50340, Note_on_c, 0, 78, 0
2, 50340, Note_on_c, 0, 83, 0
2, 50340, Note_on_c, 0, 81, 0
2, 50349, Note_on_c, 0, 66, 78
2, 50349, Note_on_c, 0, 69, 80
2, 50378, Note_on_c, 0, 66, 0
2, 50389, Note_on_c, 0, 72, 85
2, 50390, Note_on_c, 0, 78, 84
2, 50390, Note_on_c, 0, 81, 79
2, 50420, Note_on_c, 0, 72, 0
2, 50420, Note_on_c, 0, 73, 0
2, 50420, Note_on_c, 0, 69, 0
2, 50423, Note_on_c, 0, 78, 0
2, 50423, Note_on_c, 0, 81, 0
2, 50430, Note_on_c, 0, 66, 81
2, 50431, Note_on_c, 0, 63, 80
2, 50473, Note_on_c, 0, 81, 79
2, 50474, Note_on_c, 0, 72, 83
2, 50474, Note_on_c, 0, 78, 83
2, 50500, Note_on_c, 0, 64, 79
2, 50500, Note_on_c, 0, 68, 83
2, 50504, Note_on_c, 0, 63, 0
2, 50504, Note_on_c, 0, 66, 0
2, 50531, Note_on_c, 0, 64, 0
2, 50532, Note_on_c, 0, 68, 0
2, 50543, Note_on_c, 0, 73, 85
2, 50543, Note_on_c, 0, 76, 83
2, 50543, Note_on_c, 0, 80, 83
2, 50561, Note_on_c, 0, 81, 0
2, 50569, Note_on_c, 0, 68, 80
2, 50573, Note_on_c, 0, 72, 0
2, 50574, Note_on_c, 0, 78, 0
2, 50582, Note_on_c, 0, 64, 84
2, 50623, Note_on_c, 0, 69, 83
2, 50623, Note_on_c, 0, 75, 83
2, 50624, Note_on_c, 0, 78, 82
2, 50655, Note_on_c, 0, 78, 0
2, 50655, Note_on_c, 0, 73, 0
2, 50655, Note_on_c, 0, 69, 0
2, 50655, Note_on_c, 0, 68, 0
2, 50655, Note_on_c, 0, 80, 0
2, 50655, Note_on_c, 0, 76, 0
2, 50664, Note_on_c, 0, 60, 77
2, 50664, Note_on_c, 0, 63, 80
2, 50668, Note_on_c, 0, 75, 0
2, 50681, Note_on_c, 0, 64, 0
2, 50708, Note_on_c, 0, 69, 80
2, 50723, Note_on_c, 0, 75, 82
2, 50723, Note_on_c, 0, 78, 80
2, 50735, Note_on_c, 0, 61, 80
2, 50736, Note_on_c, 0, 64, 83
2, 50765, Note_on_c, 0, 60, 0
2, 50766, Note_on_c, 0, 61, 0
2, 50766, Note_on_c, 0, 63, 0
2, 50766, Note_on_c, 0, 64, 0
2, 50790, Note_on_c, 0, 73, 81
2, 50790, Note_on_c, 0, 76, 80
2, 50791, Note_on_c, 0, 68, 79
2, 50808, Note_on_c, 0, 69, 0
2, 50815, Note_on_c, 0, 64, 81
2, 50816, Note_on_c, 0, 61, 81
2, 50821, Note_on_c, 0, 78, 0
2, 50837, Note_on_c, 0, 75, 0
2, 50848, Control_c, 0, 64, 127
2, 50856, Note_on_c, 0, 65, 79
2, 50856, Note_on_c, 0, 71, 82
2, 50856, Note_on_c, 0, 74, 82
2, 50883, Note_on_c, 0, 64, 0
2, 50884, Note_on_c, 0, 71, 0
2, 50884, Note_on_c, 0, 65, 0
2, 50884, Note_on_c, 0, 68, 0
2, 50885, Note_on_c, 0, 74, 0
2, 50885, Note_on_c, 0, 73, 0
2, 50892, Note_on_c, 0, 59, 81
2, 50893, Note_on_c, 0, 56, 80
2, 50898, Note_on_c, 0, 76, 0
2, 50924, Note_on_c, 0, 61, 0
2, 50932, Note_on_c, 0, 65, 80
2, 50935, Note_on_c, 0, 71, 79
2, 50935, Note_on_c, 0, 74, 80
2, 50973, Note_on_c, 0, 57, 78
2, 50974, Note_on_c, 0, 61, 78
2, 51003, Note_on_c, 0, 57, 0
2, 51003, Note_on_c, 0, 56, 0
2, 51003, Note_on_c, 0, 59, 0
2, 51004, Note_on_c, 0, 61, 0
2, 51013, Note_on_c, 0, 66, 76
2, 51013, Note_on_c, 0, 69, 81
2, 51014, Note_on_c, 0, 73, 81
2, 51044, Note_on_c, 0, 65, 0
2, 51045, Note_on_c, 0, 74, 0
2, 51045, Note_on_c, 0, 71, 0
2, 51049, Note_on_c, 0, 57, 79
2, 51050, Note_on_c, 0, 61, 82
2, 51077, Note_on_c, 0, 71, 80
2, 51089, Note_on_c, 0, 62, 80
2, 51090, Note_on_c, 0, 68, 82
2, 51118, Note_on_c, 0, 57, 0
2, 51119, Note_on_c, 0, 61, 0
2, 51119, Note_on_c, 0, 66, 0
2, 51119, Note_on_c, 0, 62, 0
2, 51120, Note_on_c, 0, 73, 0
2, 51120, Note_on_c, 0, 68, 0
2, 51120, Note_on_c, 0, 69, 0
2, 51120, Note_on_c, 0, 71, 0
2, 51124, Note_on_c, 0, 53, 76
2, 51127, Note_on_c, 0, 56, 79
2, 51167, Note_on_c, 0, 62, 78
2, 51168, Note_on_c, 0, 68, 81
2, 51168, Note_on_c, 0, 71, 82
2, 51192, Note_on_c, 0, 57, 80
2, 51204, Note_on_c, 0, 54, 83
2, 51220, Note_on_c, 0, 57, 0
2, 51220, Note_on_c, 0, 56, 0
2, 51233, Note_on_c, 0, 53, 0
2, 51233, Note_on_c, 0, 54, 0
2, 51240, Control_c, 0, 64, 0
2, 51243, Note_on_c, 0, 61, 80
2, 51243, Note_on_c, 0, 69, 77
2, 51244, Note_on_c, 0, 66, 82
2, 51268, Note_on_c, 0, 57, 78
2, 51272, Note_on_c, 0, 62, 0
2, 51273, Note_on_c, 0, 69, 0
2, 51273, Note_on_c, 0, 71, 0
2, 51273, Note_on_c, 0, 68, 0
2, 51273, Note_on_c, 0, 66, 0
2, 51280, Note_on_c, 0, 54, 82
2, 51311, Note_on_c, 0, 54, 0
2, 51319, Note_on_c, 0, 60, 76
2, 51320, Note_on_c, 0, 66, 77
2, 51321, Note_on_c, 0, 69, 76
2, 51348, Note_on_c, 0, 60, 0
2, 51349, Note_on_c, 0, 57, 0
2, 51350, Note_on_c, 0, 61, 0
2, 51350, Note_on_c, 0, 66, 0
2, 51353, Note_on_c, 0, 69, 0
2, 51358, Note_on_c, 0, 51, 81
2, 51359, Note_on_c, 0, 54, 81
2, 51398, Note_on_c, 0, 60, 77
2, 51399, Note_on_c, 0, 66, 79
2, 51399, Note_on_c, 0, 69, 82
2, 51423, Note_on_c, 0, 56, 82
2, 51426, Note_on_c, 0, 51, 0
2, 51427, Note_on_c, 0, 54, 0
2, 51435, Note_on_c, 0, 52, 78
2, 51455, Note_on_c, 0, 60, 0
2, 51455, Note_on_c, 0, 56, 0
2, 51465, Note_on_c, 0, 61, 82
2, 51466, Note_on_c, 0, 68, 77
2, 51467, Note_on_c, 0, 52, 0
2, 51478, Note_on_c, 0, 64, 78
2, 51482, Note_on_c, 0, 69, 0
2, 51503, Note_on_c, 0, 56, 81
2, 51509, Note_on_c, 0, 66, 0
2, 51517, Note_on_c, 0, 52, 82
2, 51556, Note_on_c, 0, 57, 80
2, 51557, Note_on_c, 0, 63, 82
2, 51557, Note_on_c, 0, 66, 83
2, 51587, Note_on_c, 0, 64, 0
2, 51587, Note_on_c, 0, 56, 0
2, 51587, Note_on_c, 0, 61, 0
2, 51588, Note_on_c, 0, 68, 0
2, 51595, Note_on_c, 0, 48, 82
2, 51595, Note_on_c, 0, 51, 83
2, 51600, Note_on_c, 0, 63, 0
2, 51600, Note_on_c, 0, 66, 0
2, 51600, Note_on_c, 0, 57, 0
2, 51624, Note_on_c, 0, 52, 0
2, 51648, Note_on_c, 0, 57, 76
2, 51649, Note_on_c, 0, 66, 76
2, 51650, Note_on_c, 0, 63, 82
2, 51672, Note_on_c, 0, 49, 81
2, 51672, Note_on_c, 0, 52, 83
2, 51702, Note_on_c, 0, 52, 0
2, 51702, Note_on_c, 0, 51, 0
2, 51702, Note_on_c, 0, 48, 0
2, 51703, Note_on_c, 0, 49, 0
2, 51712, Note_on_c, 0, 56, 77
2, 51712, Note_on_c, 0, 61, 81
2, 51712, Note_on_c, 0, 64, 80
2, 51740, Note_on_c, 0, 57, 0
2, 51743, Note_on_c, 0, 66, 0
2, 51749, Note_on_c, 0, 52, 82
2, 51750, Note_on_c, 0, 49, 80
2, 51755, Note_on_c, 0, 63, 0
2, 51778, Note_on_c, 0, 56, 0
2, 51787, Note_on_c, 0, 60, 81
2, 51788, Note_on_c, 0, 66, 80
2, 51791, Note_on_c, 0, 69, 76
2, 51817, Note_on_c, 0, 61, 0
2, 51818, Note_on_c, 0, 66, 0
2, 51818, Note_on_c, 0, 64, 0
2, 51818, Note_on_c, 0, 69, 0
2, 51818, Control_c, 0, 64, 127
2, 51823, Note_on_c, 0, 51, 81
2, 51824, Note_on_c, 0, 54, 81
2, 51828, Note_on_c, 0, 60, 0
2, 51852, Note_on_c, 0, 52, 0
2, 51853, Note_on_c, 0, 49, 0
2, 51862, Note_on_c, 0, 66, 82
2, 51863, Note_on_c, 0, 69, 82
2, 51873, Note_on_c, 0, 60, 80
2, 51891, Note_on_c, 0, 54, 0
2, 51899, Note_on_c, 0, 52, 78
2, 51899, Note_on_c, 0, 56, 76
2, 51902, Note_on_c, 0, 51, 0
2, 51928, Note_on_c, 0, 52, 0
2, 51929, Note_on_c, 0, 56, 0
2, 51939, Note_on_c, 0, 64, 82
2, 51940, Note_on_c, 0, 61, 83
2, 51940, Note_on_c, 0, 68, 79
2, 51967, Note_on_c, 0, 60, 0
2, 51970, Note_on_c, 0, 69, 0
2, 51970, Note_on_c, 0, 66, 0
2, 51977, Note_on_c, 0, 52, 77
2, 51977, Note_on_c, 0, 56, 82
2, 52018, Note_on_c, 0, 57, 81
2, 52019, Note_on_c, 0, 63, 80
2, 52019, Note_on_c, 0, 66, 82
2, 52045, Note_on_c, 0, 57, 0
2, 52046, Note_on_c, 0, 56, 0
2, 52047, Note_on_c, 0, 66, 0
2, 52047, Note_on_c, 0, 64, 0
2, 52047, Note_on_c, 0, 61, 0
2, 52048, Note_on_c, 0, 63, 0
2, 52048, Note_on_c, 0, 68, 0
2, 52053, Note_on_c, 0, 48, 80
2, 52054, Note_on_c, 0, 51, 77
2, 52084, Note_on_c, 0, 52, 0
2, 52095, Note_on_c, 0, 57, 78
2, 52096, Note_on_c, 0, 63, 82
2, 52099, Note_on_c, 0, 66, 80
2, 52136, Note_on_c, 0, 49, 78
2, 52136, Note_on_c, 0, 52, 81
2, 52163, Note_on_c, 0, 56, 84
2, 52164, Note_on_c, 0, 61, 80
2, 52164, Note_on_c, 0, 64, 83
2, 52165, Note_on_c, 0, 52, 0
2, 52165, Note_on_c, 0, 48, 0
2, 52165, Note_on_c, 0, 51, 0
2, 52166, Note_on_c, 0, 49, 0
2, 52190, Note_on_c, 0, 57, 0
2, 52193, Note_on_c, 0, 63, 0
2, 52207, Note_on_c, 0, 66, 0
2, 52214, Note_on_c, 0, 49, 77
2, 52214, Note_on_c, 0, 52, 80
2, 52241, Note_on_c, 0, 57, 82
2, 52255, Note_on_c, 0, 66, 81
2, 52256, Note_on_c, 0, 63, 83
2, 52271, Note_on_c, 0, 56, 0
2, 52282, Note_on_c, 0, 57, 0
2, 52282, Note_on_c, 0, 61, 0
2, 52283, Note_on_c, 0, 64, 0
2, 52284, Note_on_c, 0, 66, 0
2, 52285, Note_on_c, 0, 63, 0
2, 52289, Note_on_c, 0, 51, 79
2, 52290, Note_on_c, 0, 48, 78
2, 52306, Note_on_c, 0, 52, 0
2, 52307, Note_on_c, 0, 49, 0
2, 52329, Note_on_c, 0, 57, 84
2, 52330, Note_on_c, 0, 66, 79
2, 52331, Note_on_c, 0, 63, 78
2, 52354, Note_on_c, 0, 49, 80
2, 52354, Note_on_c, 0, 52, 80
2, 52357, Note_on_c, 0, 51, 0
2, 52357, Note_on_c, 0, 48, 0
2, 52368, Note_on_c, 0, 56, 85
2, 52384, Note_on_c, 0, 49, 0
2, 52384, Note_on_c, 0, 52, 0
2, 52395, Note_on_c, 0, 61, 83
2, 52395, Note_on_c, 0, 64, 81
2, 52398, Note_on_c, 0, 56, 0
2, 52414, Note_on_c, 0, 63, 0
2, 52428, Note_on_c, 0, 66, 0
2, 52433, Note_on_c, 0, 49, 85
2, 52433, Note_on_c, 0, 52, 83
2, 52437, Note_on_c, 0, 57, 0
2, 52466, Note_on_c, 0, 66, 83
2, 52478, Note_on_c, 0, 63, 80
2, 52489, Note_on_c, 0, 57, 78
2, 52508, Note_on_c, 0, 61, 0
2, 52509, Note_on_c, 0, 66, 0
2, 52509, Note_on_c, 0, 64, 0
2, 52509, Note_on_c, 0, 63, 0
2, 52515, Note_on_c, 0, 51, 80
2, 52516, Note_on_c, 0, 48, 85
2, 52520, Note_on_c, 0, 57, 0
2, 52546, Note_on_c, 0, 49, 0
2, 52547, Note_on_c, 0, 52, 0
2, 52558, Note_on_c, 0, 57, 79
2, 52559, Note_on_c, 0, 63, 82
2, 52560, Note_on_c, 0, 66, 82
2, 52597, Note_on_c, 0, 49, 81
2, 52598, Note_on_c, 0, 52, 79
2, 52626, Note_on_c, 0, 56, 81
2, 52626, Note_on_c, 0, 64, 83
2, 52627, Note_on_c, 0, 49, 0
2, 52627, Note_on_c, 0, 51, 0
2, 52627, Note_on_c, 0, 48, 0
2, 52628, Note_on_c, 0, 52, 0
2, 52639, Note_on_c, 0, 61, 86
2, 52655, Note_on_c, 0, 57, 0
2, 52656, Note_on_c, 0, 63, 0
2, 52656, Note_on_c, 0, 66, 0
2, 52678, Note_on_c, 0, 49, 83
2, 52678, Note_on_c, 0, 52, 82
2, 52719, Note_on_c, 0, 57, 85
2, 52722, Note_on_c, 0, 63, 84
2, 52722, Note_on_c, 0, 66, 80
2, 52749, Note_on_c, 0, 56, 0
2, 52750, Note_on_c, 0, 57, 0
2, 52750, Note_on_c, 0, 61, 0
2, 52751, Note_on_c, 0, 66, 0
2, 52751, Note_on_c, 0, 64, 0
2, 52752, Note_on_c, 0, 63, 0
2, 52756, Note_on_c, 0, 48, 83
2, 52756, Note_on_c, 0, 51, 83
2, 52786, Note_on_c, 0, 49, 0
2, 52786, Note_on_c, 0, 52, 0
2, 52798, Note_on_c, 0, 57, 87
2, 52800, Note_on_c, 0, 63, 84
2, 52800, Note_on_c, 0, 66, 87
2, 52830, Note_on_c, 0, 52, 83
2, 52834, Note_on_c, 0, 49, 86
2, 52865, Note_on_c, 0, 52, 0
2, 52865, Note_on_c, 0, 51, 0
2, 52865, Note_on_c, 0, 48, 0
2, 52866, Note_on_c, 0, 49, 0
2, 52866, Note_on_c, 0, 57, 0
2, 52870, Note_on_c, 0, 63, 0
2, 52870, Note_on_c, 0, 66, 0
2, 52874, Note_on_c, 0, 56, 85
2, 52877, Note_on_c, 0, 64, 83
2, 52889, Note_on_c, 0, 61, 80
2, 52913, Note_on_c, 0, 49, 86
2, 52914, Note_on_c, 0, 52, 80
2, 52970, Note_on_c, 0, 52, 0
2, 52970, Note_on_c, 0, 49, 0
2, 52971, Note_on_c, 0, 56, 0
2, 52972, Note_on_c, 0, 61, 0
2, 52972, Note_on_c, 0, 64, 0
2, 53018, Control_c, 0, 64, 0
2, 53042, Note_on_c, 0, 33, 82
2, 53045, Note_on_c, 0, 45, 82
2, 53049, Note_on_c, 0, 57, 85
2, 53052, Note_on_c, 0, 69, 93
2, 53398, Note_on_c, 0, 49, 91
2, 53413, Note_on_c, 0, 54, 89
2, 53416, Note_on_c, 0, 61, 86
2, 53417, Note_on_c, 0, 66, 93
2, 53418, Note_on_c, 0, 73, 94
2, 53419, Note_on_c, 0, 78, 98
2, 53496, Control_c, 0, 64, 127
2, 53568, Note_on_c, 0, 57, 0
2, 53618, Note_on_c, 0, 57, 88
2, 53802, Control_c, 0, 64, 0
2, 53806, Note_on_c, 0, 33, 0
2, 53809, Note_on_c, 0, 45, 0
2, 53812, Note_on_c, 0, 54, 0
2, 53813, Note_on_c, 0, 57, 0
2, 53814, Note_on_c, 0, 66, 0
2, 53814, Note_on_c, 0, 61, 0
2, 53815, Note_on_c, 0, 69, 0
2, 53816, Note_on_c, 0, 73, 0
2, 53817, Note_on_c, 0, 78, 0
2, 53829, Note_on_c, 0, 32, 87
2, 53832, Note_on_c, 0, 44, 83
2, 53836, Note_on_c, 0, 56, 86
2, 53839, Note_on_c, 0, 68, 93
2, 53865, Note_on_c, 0, 49, 0
2, 54195, Control_c, 0, 64, 127
2, 54312, Note_on_c, 0, 68, 0
2, 54360, Note_on_c, 0, 54, 87
2, 54372, Note_on_c, 0, 60, 86
2, 54386, Note_on_c, 0, 63, 86
2, 54387, Note_on_c, 0, 66, 87
2, 54387, Note_on_c, 0, 68, 88
2, 54390, Note_on_c, 0, 80, 94
2, 54403, Note_on_c, 0, 72, 93
2, 54403, Note_on_c, 0, 75, 90
2, 54854, Note_on_c, 0, 32, 0
2, 54902, Note_on_c, 0, 66, 0
2, 54902, Note_on_c, 0, 63, 0
2, 54911, Note_on_c, 0, 54, 0
2, 54915, Note_on_c, 0, 75, 0
2, 54915, Note_on_c, 0, 72, 0
2, 54926, Note_on_c, 0, 60, 0
2, 54937, Note_on_c, 0, 56, 0
2, 54941, Note_on_c, 0, 68, 0
2, 54945, Note_on_c, 0, 80, 0
2, 54967, Note_on_c, 0, 25, 87
2, 54968, Note_on_c, 0, 28, 91
2, 54969, Note_on_c, 0, 32, 91
2, 54969, Note_on_c, 0, 37, 91
2, 54972, Note_on_c, 0, 49, 90
2, 54975, Note_on_c, 0, 52, 91
2, 54978, Note_on_c, 0, 61, 88
2, 54983, Control_c, 0, 64, 0
2, 54990, Note_on_c, 0, 56, 92
2, 55213, Control_c, 0, 64, 127
2, 55228, Note_on_c, 0, 61, 0
2, 55240, Note_on_c, 0, 52, 0
2, 55241, Note_on_c, 0, 56, 0
2, 55276, Note_on_c, 0, 61, 86
2, 55277, Note_on_c, 0, 64, 89
2, 55280, Note_on_c, 0, 73, 88
2, 55283, Note_on_c, 0, 85, 87
2, 55288, Note_on_c, 0, 52, 88
2, 55288, Note_on_c, 0, 56, 87
2, 55295, Note_on_c, 0, 76, 93
2, 55307, Note_on_c, 0, 80, 93
2, 55420, Note_on_c, 0, 64, 0
2, 55423, Note_on_c, 0, 76, 0
2, 55424, Note_on_c, 0, 80, 0
2, 55433, Note_on_c, 0, 56, 0
2, 55468, Note_on_c, 0, 49, 0
2, 55496, Note_on_c, 0, 64, 86
2, 55497, Note_on_c, 0, 76, 90
2, 55498, Note_on_c, 0, 80, 86
2, 55501, Note_on_c, 0, 88, 89
2, 55505, Note_on_c, 0, 56, 91
2, 55509, Note_on_c, 0, 68, 91
2, 55512, Note_on_c, 0, 83, 87
2, 55519, Note_on_c, 0, 59, 86
2, 55523, Note_on_c, 0, 61, 0
2, 55527, Note_on_c, 0, 73, 0
2, 55541, Note_on_c, 0, 85, 0
2, 55679, Note_on_c, 0, 64, 0
2, 55682, Note_on_c, 0, 76, 0
2, 55682, Note_on_c, 0, 80, 0
2, 55685, Note_on_c, 0, 88, 0
2, 55690, Note_on_c, 0, 56, 0
2, 55690, Note_on_c, 0, 75, 91
2, 55693, Note_on_c, 0, 68, 0
2, 55698, Note_on_c, 0, 83, 0
2, 55699, Note_on_c, 0, 55, 89
2, 55699, Note_on_c, 0, 58, 89
2, 55702, Note_on_c, 0, 63, 91
2, 55702, Note_on_c, 0, 67, 87
2, 55703, Note_on_c, 0, 79, 87
2, 55704, Note_on_c, 0, 59, 0
2, 55704, Note_on_c, 0, 87, 89
2, 55718, Note_on_c, 0, 82, 87
2, 55808, Note_on_c, 0, 25, 0
2, 55809, Note_on_c, 0, 37, 0
2, 55809, Note_on_c, 0, 32, 0
2, 55809, Note_on_c, 0, 28, 0
2, 55824, Note_on_c, 0, 44, 0
2, 55827, Note_on_c, 0, 55, 0
2, 55854, Note_on_c, 0, 52, 0
2, 55861, Note_on_c, 0, 82, 0
2, 55872, Note_on_c, 0, 75, 0
2, 55884, Note_on_c, 0, 67, 0
2, 55889, Note_on_c, 0, 87, 0
2, 55890, Note_on_c, 0, 57, 89
2, 55896, Note_on_c, 0, 33, 86
2, 55899, Note_on_c, 0, 45, 87
2, 55906, Note_on_c, 0, 69, 91
2, 55910, Control_c, 0, 64, 0
2, 55913, Note_on_c, 0, 79, 0
2, 55921, Note_on_c, 0, 63, 0
2, 55921, Note_on_c, 0, 58, 0
2, 56104, Note_on_c, 0, 54, 83
2, 56104, Note_on_c, 0, 60, 89
2, 56119, Note_on_c, 0, 62, 85
2, 56122, Note_on_c, 0, 78, 83
2, 56122, Note_on_c, 0, 81, 88
2, 56125, Note_on_c, 0, 86, 88
2, 56134, Note_on_c, 0, 66, 90
2, 56136, Note_on_c, 0, 74, 86
2, 56198, Control_c, 0, 64, 127
2, 56378, Note_on_c, 0, 32, 86
2, 56381, Note_on_c, 0, 44, 85
2, 56385, Note_on_c, 0, 56, 84
2, 56389, Note_on_c, 0, 68, 84
2, 56407, Note_on_c, 0, 33, 0
2, 56410, Note_on_c, 0, 45, 0
2, 56414, Note_on_c, 0, 57, 0
2, 56417, Note_on_c, 0, 62, 0
2, 56417, Control_c, 0, 64, 0
2, 56418, Note_on_c, 0, 69, 0
2, 56418, Note_on_c, 0, 74, 0
2, 56419, Note_on_c, 0, 81, 0
2, 56420, Note_on_c, 0, 86, 0
2, 56571, Note_on_c, 0, 60, 0
2, 56582, Note_on_c, 0, 54, 0
2, 56616, Note_on_c, 0, 78, 0
2, 56651, Note_on_c, 0, 60, 84
2, 56662, Note_on_c, 0, 51, 82
2, 56664, Note_on_c, 0, 54, 82
2, 56665, Control_c, 0, 64, 127
2, 56680, Note_on_c, 0, 63, 82
2, 56695, Note_on_c, 0, 72, 83
2, 56695, Note_on_c, 0, 75, 76
2, 56696, Note_on_c, 0, 78, 83
2, 56697, Note_on_c, 0, 84, 76
2, 56885, Note_on_c, 0, 56, 0
2, 56904, Note_on_c, 0, 63, 0
2, 56912, Note_on_c, 0, 60, 0
2, 56915, Note_on_c, 0, 66, 0
2, 56919, Note_on_c, 0, 32, 0
2, 56924, Note_on_c, 0, 51, 0
2, 56925, Note_on_c, 0, 54, 0
2, 56928, Note_on_c, 0, 68, 0
2, 56955, Note_on_c, 0, 72, 0
2, 56964, Note_on_c, 0, 25, 89
2, 56964, Note_on_c, 0, 28, 83
2, 56965, Control_c, 0, 64, 0
2, 56965, Note_on_c, 0, 32, 86
2, 56966, Note_on_c, 0, 37, 86
2, 56970, Note_on_c, 0, 49, 83
2, 56984, Note_on_c, 0, 52, 88
2, 56985, Note_on_c, 0, 56, 89
2, 56986, Note_on_c, 0, 61, 82
2, 57006, Note_on_c, 0, 75, 0
2, 57007, Note_on_c, 0, 78, 0
2, 57008, Note_on_c, 0, 84, 0
2, 57136, Note_on_c, 0, 52, 0
2, 57136, Note_on_c, 0, 56, 0
2, 57137, Note_on_c, 0, 61, 0
2, 57202, Note_on_c, 0, 64, 71
2, 57206, Note_on_c, 0, 73, 78
2, 57206, Note_on_c, 0, 76, 76
2, 57207, Note_on_c, 0, 80, 83
2, 57207, Note_on_c, 0, 85, 82
2, 57212, Note_on_c, 0, 52, 68
2, 57213, Note_on_c, 0, 56, 69
2, 57216, Note_on_c, 0, 61, 71
2, 57216, Control_c, 0, 64, 127
2, 57311, Note_on_c, 0, 64, 0
2, 57321, Note_on_c, 0, 56, 0
2, 57321, Note_on_c, 0, 49, 0
2, 57328, Note_on_c, 0, 76, 0
2, 57329, Note_on_c, 0, 80, 0
2, 57379, Note_on_c, 0, 83, 81
2, 57379, Note_on_c, 0, 88, 81
2, 57387, Note_on_c, 0, 64, 68
2, 57390, Note_on_c, 0, 80, 76
2, 57398, Note_on_c, 0, 56, 71
2, 57399, Note_on_c, 0, 59, 71
2, 57402, Note_on_c, 0, 68, 77
2, 57405, Note_on_c, 0, 76, 79
2, 57421, Note_on_c, 0, 85, 0
2, 57429, Note_on_c, 0, 61, 0
2, 57432, Note_on_c, 0, 73, 0
2, 57597, Note_on_c, 0, 55, 65
2, 57597, Note_on_c, 0, 58, 70
2, 57600, Note_on_c, 0, 63, 64
2, 57600, Note_on_c, 0, 67, 78
2, 57601, Note_on_c, 0, 75, 79
2, 57601, Note_on_c, 0, 79, 80
2, 57604, Note_on_c, 0, 87, 83
2, 57617, Note_on_c, 0, 82, 83
2, 57624, Note_on_c, 0, 52, 0
2, 57625, Note_on_c, 0, 56, 0
2, 57628, Note_on_c, 0, 64, 0
2, 57628, Note_on_c, 0, 59, 0
2, 57629, Note_on_c, 0, 68, 0
2, 57632, Note_on_c, 0, 76, 0
2, 57632, Note_on_c, 0, 80, 0
2, 57633, Note_on_c, 0, 88, 0
2, 57646, Note_on_c, 0, 83, 0
2, 57773, Control_c, 0, 64, 0
2, 57803, Note_on_c, 0, 45, 78
2, 57807, Note_on_c, 0, 57, 78
2, 57810, Note_on_c, 0, 69, 85
2, 57814, Note_on_c, 0, 33, 66
2, 57833, Note_on_c, 0, 44, 0
2, 57836, Note_on_c, 0, 55, 0
2, 57837, Note_on_c, 0, 58, 0
2, 57838, Note_on_c, 0, 63, 0
2, 57840, Note_on_c, 0, 67, 0
2, 57841, Note_on_c, 0, 25, 0
2, 57841, Note_on_c, 0, 75, 0
2, 57841, Note_on_c, 0, 28, 0
2, 57842, Note_on_c, 0, 82, 0
2, 57842, Note_on_c, 0, 32, 0
2, 57842, Note_on_c, 0, 37, 0
2, 57842, Note_on_c, 0, 79, 0
2, 57843, Note_on_c, 0, 87, 0
2, 58038, Note_on_c, 0, 54, 67
2, 58039, Note_on_c, 0, 60, 66
2, 58040, Control_c, 0, 64, 127
2, 58053, Note_on_c, 0, 62, 71
2, 58053, Note_on_c, 0, 66, 80
2, 58056, Note_on_c, 0, 74, 78
2, 58057, Note_on_c, 0, 78, 81
2, 58058, Note_on_c, 0, 81, 82
2, 58058, Note_on_c, 0, 86, 76
2, 58227, Note_on_c, 0, 54, 0
2, 58230, Note_on_c, 0, 60, 0
2, 58231, Control_c, 0, 64, 0
2, 58238, Note_on_c, 0, 45, 0
2, 58243, Note_on_c, 0, 62, 0
2, 58247, Note_on_c, 0, 74, 0
2, 58247, Note_on_c, 0, 66, 0
2, 58247, Note_on_c, 0, 69, 0
2, 58248, Note_on_c, 0, 81, 0
2, 58248, Note_on_c, 0, 33, 0
2, 58250, Note_on_c, 0, 86, 0
2, 58287, Note_on_c, 0, 44, 86
2, 58291, Note_on_c, 0, 56, 87
2, 58295, Note_on_c, 0, 68, 86
2, 58298, Note_on_c, 0, 32, 88
2, 58322, Note_on_c, 0, 57, 0
2, 58453, Control_c, 0, 64, 127
2, 58487, Note_on_c, 0, 78, 0
2, 58531, Note_on_c, 0, 51, 68
2, 58532, Note_on_c, 0, 54, 71
2, 58532, Note_on_c, 0, 60, 65
2, 58536, Note_on_c, 0, 72, 76
2, 58536, Note_on_c, 0, 75, 77
2, 58538, Note_on_c, 0, 78, 79
2, 58539, Note_on_c, 0, 84, 77
2, 58547, Note_on_c, 0, 63, 70
2, 58750, Note_on_c, 0, 56, 0
2, 58779, Note_on_c, 0, 63, 0
2, 58800, Note_on_c, 0, 51, 0
2, 58800, Note_on_c, 0, 60, 0
2, 58800, Note_on_c, 0, 54, 0
2, 58804, Note_on_c, 0, 72, 0
2, 58805, Note_on_c, 0, 78, 0
2, 58805, Note_on_c, 0, 84, 0
2, 58805, Note_on_c, 0, 75, 0
2, 58814, Note_on_c, 0, 25, 83
2, 58815, Note_on_c, 0, 37, 85
2, 58822, Note_on_c, 0, 49, 89
2, 58822, Note_on_c, 0, 52, 85
2, 58822, Note_on_c, 0, 56, 82
2, 58823, Note_on_c, 0, 61, 89
2, 58868, Control_c, 0, 64, 0
2, 58968, Note_on_c, 0, 56, 0
2, 58968, Note_on_c, 0, 52, 0
2, 58971, Note_on_c, 0, 61, 0
2, 59042, Note_on_c, 0, 52, 67
2, 59043, Note_on_c, 0, 56, 70
2, 59044, Note_on_c, 0, 61, 73
2, 59045, Note_on_c, 0, 64, 71
2, 59048, Note_on_c, 0, 73, 90
2, 59049, Note_on_c, 0, 76, 88
2, 59049, Note_on_c, 0, 80, 89
2, 59050, Note_on_c, 0, 85, 88
2, 59085, Control_c, 0, 64, 127
2, 59180, Note_on_c, 0, 61, 0
2, 59184, Note_on_c, 0, 85, 0
2, 59184, Note_on_c, 0, 80, 0
2, 59255, Note_on_c, 0, 61, 72
2, 59257, Note_on_c, 0, 71, 89
2, 59257, Note_on_c, 0, 80, 87
2, 59261, Note_on_c, 0, 85, 86
2, 59262, Note_on_c, 0, 92, 90
2, 59266, Note_on_c, 0, 59, 66
2, 59379, Note_on_c, 0, 85, 0
2, 59388, Note_on_c, 0, 61, 0
2, 59453, Note_on_c, 0, 78, 90
2, 59454, Note_on_c, 0, 85, 89
2, 59461, Note_on_c, 0, 57, 70
2, 59461, Note_on_c, 0, 61, 70
2, 59464, Note_on_c, 0, 69, 85
2, 59469, Note_on_c, 0, 90, 87
2, 59472, Note_on_c, 0, 32, 0
2, 59482, Note_on_c, 0, 73, 0
2, 59482, Note_on_c, 0, 76, 0
2, 59483, Note_on_c, 0, 80, 0
2, 59486, Note_on_c, 0, 44, 0
2, 59489, Note_on_c, 0, 52, 0
2, 59490, Note_on_c, 0, 56, 0
2, 59491, Note_on_c, 0, 59, 0
2, 59491, Note_on_c, 0, 64, 0
2, 59492, Note_on_c, 0, 68, 0
2, 59495, Note_on_c, 0, 71, 0
2, 59499, Note_on_c, 0, 92, 0
2, 59658, Note_on_c, 0, 48, 93
2, 59662, Note_on_c, 0, 60, 93
2, 59663, Note_on_c, 0, 72, 90
2, 59667, Note_on_c, 0, 36, 90
2, 59688, Note_on_c, 0, 49, 0
2, 59691, Note_on_c, 0, 61, 0
2, 59692, Control_c, 0, 64, 0
2, 59693, Note_on_c, 0, 25, 0
2, 59696, Note_on_c, 0, 85, 0
2, 59696, Note_on_c, 0, 37, 0
2, 59712, Note_on_c, 0, 90, 0
2, 59807, Note_on_c, 0, 57, 0
2, 59840, Note_on_c, 0, 78, 0
2, 59882, Note_on_c, 0, 57, 75
2, 59883, Note_on_c, 0, 48, 0
2, 59883, Control_c, 0, 64, 127
2, 59895, Note_on_c, 0, 54, 75
2, 59898, Note_on_c, 0, 64, 69
2, 59898, Note_on_c, 0, 66, 84
2, 59901, Note_on_c, 0, 76, 87
2, 59902, Note_on_c, 0, 78, 88
2, 59902, Note_on_c, 0, 81, 82
2, 59903, Note_on_c, 0, 88, 88
2, 59929, Note_on_c, 0, 48, 94
2, 60127, Control_c, 0, 64, 0
2, 60127, Note_on_c, 0, 35, 89
2, 60131, Note_on_c, 0, 47, 85
2, 60135, Note_on_c, 0, 59, 85
2, 60140, Note_on_c, 0, 71, 91
2, 60156, Note_on_c, 0, 36, 0
2, 60160, Note_on_c, 0, 48, 0
2, 60163, Note_on_c, 0, 60, 0
2, 60166, Note_on_c, 0, 72, 0
2, 60166, Note_on_c, 0, 64, 0
2, 60167, Note_on_c, 0, 69, 0
2, 60168, Note_on_c, 0, 76, 0
2, 60171, Note_on_c, 0, 88, 0
2, 60314, Note_on_c, 0, 66, 0
2, 60317, Note_on_c, 0, 78, 0
2, 60324, Note_on_c, 0, 54, 0
2, 60324, Control_c, 0, 64, 127
2, 60325, Note_on_c, 0, 57, 0
2, 60332, Note_on_c, 0, 81, 0
2, 60394, Note_on_c, 0, 75, 73
2, 60395, Note_on_c, 0, 78, 74
2, 60400, Note_on_c, 0, 54, 65
2, 60400, Note_on_c, 0, 57, 69
2, 60403, Note_on_c, 0, 63, 68
2, 60403, Note_on_c, 0, 66, 74
2, 60408, Note_on_c, 0, 81, 73
2, 60410, Note_on_c, 0, 87, 72
2, 60605, Note_on_c, 0, 35, 0
2, 60626, Note_on_c, 0, 47, 0
2, 60627, Note_on_c, 0, 59, 0
2, 60660, Note_on_c, 0, 75, 0
2, 60661, Note_on_c, 0, 78, 0
2, 60668, Note_on_c, 0, 57, 0
2, 60668, Note_on_c, 0, 54, 0
2, 60669, Control_c, 0, 64, 0
2, 60670, Note_on_c, 0, 63, 0
2, 60671, Note_on_c, 0, 66, 0
2, 60674, Note_on_c, 0, 81, 0
2, 60677, Note_on_c, 0, 87, 0
2, 60680, Note_on_c, 0, 28, 89
2, 60683, Note_on_c, 0, 32, 89
2, 60683, Note_on_c, 0, 35, 87
2, 60684, Note_on_c, 0, 40, 82
2, 60689, Note_on_c, 0, 56, 87
2, 60703, Note_on_c, 0, 52, 84
2, 60703, Note_on_c, 0, 59, 89
2, 60706, Note_on_c, 0, 64, 83
2, 60848, Note_on_c, 0, 56, 0
2, 60851, Note_on_c, 0, 64, 0
2, 60851, Note_on_c, 0, 59, 0
2, 60921, Note_on_c, 0, 56, 70
2, 60922, Note_on_c, 0, 59, 75
2, 60923, Control_c, 0, 64, 127
2, 60924, Note_on_c, 0, 64, 73
2, 60927, Note_on_c, 0, 76, 86
2, 60928, Note_on_c, 0, 80, 83
2, 60931, Note_on_c, 0, 83, 89
2, 60931, Note_on_c, 0, 88, 84
2, 61032, Note_on_c, 0, 64, 0
2, 61053, Note_on_c, 0, 83, 0
2, 61081, Note_on_c, 0, 88, 0
2, 61110, Note_on_c, 0, 62, 69
2, 61110, Note_on_c, 0, 64, 71
2, 61127, Note_on_c, 0, 74, 84
2, 61129, Note_on_c, 0, 83, 88
2, 61129, Note_on_c, 0, 88, 87
2, 61130, Note_on_c, 0, 95, 86
2, 61224, Note_on_c, 0, 32, 0
2, 61224, Note_on_c, 0, 35, 0
2, 61230, Note_on_c, 0, 56, 0
2, 61231, Note_on_c, 0, 59, 0
2, 61246, Note_on_c, 0, 64, 0
2, 61321, Note_on_c, 0, 61, 74
2, 61321, Note_on_c, 0, 64, 71
2, 61325, Note_on_c, 0, 73, 80
2, 61328, Note_on_c, 0, 81, 81
2, 61329, Note_on_c, 0, 85, 82
2, 61330, Note_on_c, 0, 93, 83
2, 61352, Note_on_c, 0, 62, 0
2, 61353, Note_on_c, 0, 71, 0
2, 61354, Note_on_c, 0, 74, 0
2, 61355, Note_on_c, 0, 76, 0
2, 61355, Note_on_c, 0, 80, 0
2, 61356, Note_on_c, 0, 83, 0
2, 61357, Note_on_c, 0, 88, 0
2, 61358, Note_on_c, 0, 95, 0
2, 61440, Note_on_c, 0, 52, 0
2, 61442, Note_on_c, 0, 64, 0
2, 61449, Note_on_c, 0, 40, 0
2, 61484, Control_c, 0, 64, 0
2, 61495, Note_on_c, 0, 52, 89
2, 61522, Note_on_c, 0, 64, 90
2, 61529, Note_on_c, 0, 40, 88
2, 61540, Note_on_c, 0, 76, 91
2, 61573, Note_on_c, 0, 81, 0
2, 61576, Note_on_c, 0, 93, 0
2, 61696, Note_on_c, 0, 85, 0
2, 61703, Note_on_c, 0, 61, 0
2, 61775, Note_on_c, 0, 85, 78
2, 61781, Control_c, 0, 64, 127
2, 61781, Note_on_c, 0, 58, 67
2, 61782, Note_on_c, 0, 61, 72
2, 61783, Note_on_c, 0, 68, 82
2, 61784, Note_on_c, 0, 70, 84
2, 61787, Note_on_c, 0, 80, 78
2, 61788, Note_on_c, 0, 82, 78
2, 61791, Note_on_c, 0, 92, 82
2, 61979, Control_c, 0, 64, 0
2, 62009, Note_on_c, 0, 39, 85
2, 62014, Note_on_c, 0, 51, 83
2, 62020, Note_on_c, 0, 63, 83
2, 62021, Note_on_c, 0, 75, 89
2, 62036, Note_on_c, 0, 28, 0
2, 62040, Note_on_c, 0, 40, 0
2, 62043, Note_on_c, 0, 52, 0
2, 62048, Note_on_c, 0, 64, 0
2, 62049, Note_on_c, 0, 68, 0
2, 62049, Note_on_c, 0, 73, 0
2, 62050, Note_on_c, 0, 76, 0
2, 62051, Note_on_c, 0, 80, 0
2, 62055, Note_on_c, 0, 92, 0
2, 62212, Control_c, 0, 64, 127
2, 62224, Note_on_c, 0, 85, 0
2, 62224, Note_on_c, 0, 82, 0
2, 62228, Note_on_c, 0, 58, 0
2, 62229, Note_on_c, 0, 61, 0
2, 62245, Note_on_c, 0, 70, 0
2, 62294, Note_on_c, 0, 67, 80
2, 62294, Note_on_c, 0, 70, 83
2, 62295, Note_on_c, 0, 79, 76
2, 62298, Note_on_c, 0, 82, 78
2, 62298, Note_on_c, 0, 85, 80
2, 62301, Note_on_c, 0, 91, 81
2, 62304, Note_on_c, 0, 58, 66
2, 62304, Note_on_c, 0, 61, 66
2, 62528, Note_on_c, 0, 63, 0
2, 62535, Note_on_c, 0, 39, 0
2, 62605, Note_on_c, 0, 44, 91
2, 62608, Note_on_c, 0, 56, 90
2, 62612, Note_on_c, 0, 63, 89
2, 62616, Note_on_c, 0, 32, 84
2, 62616, Note_on_c, 0, 35, 86
2, 62618, Note_on_c, 0, 39, 91
2, 62623, Note_on_c, 0, 59, 89
2, 62627, Note_on_c, 0, 68, 85
2, 62628, Control_c, 0, 64, 0
2, 62640, Note_on_c, 0, 58, 0
2, 62654, Note_on_c, 0, 61, 0
2, 62655, Note_on_c, 0, 67, 0
2, 62656, Note_on_c, 0, 70, 0
2, 62657, Note_on_c, 0, 75, 0
2, 62658, Note_on_c, 0, 79, 0
2, 62659, Note_on_c, 0, 85, 0
2, 62659, Note_on_c, 0, 82, 0
2, 62662, Note_on_c, 0, 91, 0
2, 62852, Note_on_c, 0, 63, 0
2, 62855, Note_on_c, 0, 68, 0
2, 62863, Note_on_c, 0, 59, 0
2, 62926, Note_on_c, 0, 63, 83
2, 62927, Note_on_c, 0, 68, 88
2, 62927, Note_on_c, 0, 71, 83
2, 62929, Note_on_c, 0, 80, 86
2, 62932, Note_on_c, 0, 83, 90
2, 62933, Note_on_c, 0, 92, 85
2, 62936, Note_on_c, 0, 59, 85
2, 62937, Control_c, 0, 64, 127
2, 62958, Note_on_c, 0, 87, 90
2, 63147, Note_on_c, 0, 61, 86
2, 63148, Note_on_c, 0, 64, 84
2, 63153, Note_on_c, 0, 81, 82
2, 63154, Note_on_c, 0, 85, 88
2, 63155, Note_on_c, 0, 93, 84
2, 63162, Note_on_c, 0, 69, 84
2, 63163, Note_on_c, 0, 73, 83
2, 63173, Note_on_c, 0, 51, 0
2, 63174, Note_on_c, 0, 59, 0
2, 63177, Note_on_c, 0, 63, 0
2, 63180, Note_on_c, 0, 88, 84
2, 63192, Note_on_c, 0, 71, 0
2, 63192, Note_on_c, 0, 68, 0
2, 63193, Note_on_c, 0, 80, 0
2, 63196, Note_on_c, 0, 83, 0
2, 63199, Note_on_c, 0, 92, 0
2, 63212, Note_on_c, 0, 87, 0
2, 63280, Note_on_c, 0, 61, 0
2, 63283, Note_on_c, 0, 69, 0
2, 63286, Note_on_c, 0, 81, 0
2, 63287, Note_on_c, 0, 85, 0
2, 63354, Note_on_c, 0, 57, 89
2, 63355, Note_on_c, 0, 61, 85
2, 63356, Note_on_c, 0, 66, 82
2, 63356, Note_on_c, 0, 69, 85
2, 63359, Note_on_c, 0, 78, 85
2, 63360, Note_on_c, 0, 81, 85
2, 63360, Note_on_c, 0, 85, 83
2, 63361, Note_on_c, 0, 90, 83
2, 63384, Note_on_c, 0, 64, 0
2, 63390, Note_on_c, 0, 88, 0
2, 63391, Note_on_c, 0, 93, 0
2, 63533, Note_on_c, 0, 59, 83
2, 63536, Note_on_c, 0, 63, 83
2, 63537, Note_on_c, 0, 68, 89
2, 63537, Note_on_c, 0, 71, 89
2, 63540, Note_on_c, 0, 80, 82
2, 63541, Note_on_c, 0, 87, 84
2, 63542, Note_on_c, 0, 92, 82
2, 63552, Note_on_c, 0, 83, 83
2, 63561, Note_on_c, 0, 57, 0
2, 63564, Note_on_c, 0, 61, 0
2, 63564, Note_on_c, 0, 66, 0
2, 63565, Note_on_c, 0, 69, 0
2, 63565, Note_on_c, 0, 73, 0
2, 63568, Note_on_c, 0, 78, 0
2, 63569, Note_on_c, 0, 85, 0
2, 63570, Note_on_c, 0, 90, 0
2, 63580, Note_on_c, 0, 81, 0
2, 63627, Note_on_c, 0, 59, 0
2, 63630, Note_on_c, 0, 68, 0
2, 63633, Note_on_c, 0, 80, 0
2, 63634, Note_on_c, 0, 83, 0
2, 63639, Note_on_c, 0, 56, 0
2, 63684, Note_on_c, 0, 83, 89
2, 63701, Note_on_c, 0, 59, 89
2, 63702, Note_on_c, 0, 64, 87
2, 63703, Note_on_c, 0, 68, 87
2, 63706, Note_on_c, 0, 76, 86
2, 63706, Note_on_c, 0, 80, 85
2, 63709, Note_on_c, 0, 88, 85
2, 63713, Note_on_c, 0, 56, 84
2, 63732, Note_on_c, 0, 63, 0
2, 63737, Note_on_c, 0, 87, 0
2, 63738, Note_on_c, 0, 92, 0
2, 63867, Note_on_c, 0, 78, 87
2, 63876, Note_on_c, 0, 57, 83
2, 63877, Note_on_c, 0, 61, 82
2, 63878, Note_on_c, 0, 66, 82
2, 63878, Note_on_c, 0, 69, 88
2, 63879, Note_on_c, 0, 81, 83
2, 63879, Note_on_c, 0, 85, 82
2, 63880, Note_on_c, 0, 90, 85
2, 63892, Note_on_c, 0, 76, 0
2, 63900, Note_on_c, 0, 56, 0
2, 63901, Note_on_c, 0, 59, 0
2, 63902, Note_on_c, 0, 64, 0
2, 63903, Note_on_c, 0, 71, 0
2, 63903, Note_on_c, 0, 68, 0
2, 63904, Note_on_c, 0, 80, 0
2, 63905, Note_on_c, 0, 83, 0
2, 63906, Note_on_c, 0, 88, 0
2, 63966, Note_on_c, 0, 78, 0
2, 63973, Note_on_c, 0, 57, 0
2, 63977, Note_on_c, 0, 66, 0
2, 63978, Note_on_c, 0, 81, 0
2, 64034, Note_on_c, 0, 63, 84
2, 64034, Note_on_c, 0, 66, 83
2, 64037, Note_on_c, 0, 75, 83
2, 64038, Note_on_c, 0, 78, 84
2, 64046, Note_on_c, 0, 54, 88
2, 64046, Note_on_c, 0, 57, 82
2, 64051, Note_on_c, 0, 81, 87
2, 64052, Note_on_c, 0, 87, 82
2, 64062, Note_on_c, 0, 61, 0
2, 64080, Note_on_c, 0, 85, 0
2, 64080, Note_on_c, 0, 90, 0
2, 64207, Note_on_c, 0, 68, 86
2, 64218, Note_on_c, 0, 56, 86
2, 64219, Note_on_c, 0, 59, 83
2, 64220, Note_on_c, 0, 64, 82
2, 64221, Note_on_c, 0, 76, 84
2, 64222, Note_on_c, 0, 80, 89
2, 64222, Note_on_c, 0, 83, 86
2, 64223, Note_on_c, 0, 88, 89
2, 64233, Note_on_c, 0, 66, 0
2, 64234, Note_on_c, 0, 69, 0
2, 64238, Note_on_c, 0, 35, 0
2, 64239, Note_on_c, 0, 39, 0
2, 64242, Note_on_c, 0, 54, 0
2, 64243, Note_on_c, 0, 57, 0
2, 64246, Note_on_c, 0, 63, 0
2, 64247, Note_on_c, 0, 75, 0
2, 64248, Note_on_c, 0, 87, 0
2, 64248, Note_on_c, 0, 81, 0
2, 64248, Note_on_c, 0, 78, 0
2, 64326, Note_on_c, 0, 59, 0
2, 64327, Note_on_c, 0, 64, 0
2, 64328, Note_on_c, 0, 76, 0
2, 64328, Note_on_c, 0, 68, 0
2, 64329, Note_on_c, 0, 80, 0
2, 64330, Note_on_c, 0, 83, 0
2, 64331, Note_on_c, 0, 88, 0
2, 64336, Note_on_c, 0, 56, 0
2, 64399, Note_on_c, 0, 59, 77
2, 64400, Note_on_c, 0, 64, 71
2, 64401, Note_on_c, 0, 68, 76
2, 64402, Note_on_c, 0, 76, 81
2, 64402, Note_on_c, 0, 80, 76
2, 64403, Note_on_c, 0, 83, 80
2, 64411, Note_on_c, 0, 56, 75
2, 64416, Note_on_c, 0, 88, 78
2, 64510, Control_c, 0, 64, 0
2, 64594, Note_on_c, 0, 57, 71
2, 64595, Note_on_c, 0, 61, 77
2, 64596, Note_on_c, 0, 66, 79
2, 64596, Note_on_c, 0, 69, 76
2, 64597, Note_on_c, 0, 78, 78
2, 64598, Note_on_c, 0, 81, 83
2, 64598, Note_on_c, 0, 85, 78
2, 64599, Note_on_c, 0, 90, 83
2, 64616, Note_on_c, 0, 32, 0
2, 64619, Note_on_c, 0, 44, 0
2, 64622, Note_on_c, 0, 56, 0
2, 64623, Note_on_c, 0, 59, 0
2, 64624, Note_on_c, 0, 64, 0
2, 64625, Note_on_c, 0, 68, 0
2, 64626, Note_on_c, 0, 76, 0
2, 64626, Note_on_c, 0, 80, 0
2, 64627, Note_on_c, 0, 88, 0
2, 64628, Note_on_c, 0, 83, 0
2, 64698, Note_on_c, 0, 57, 0
2, 64701, Note_on_c, 0, 66, 0
2, 64716, Note_on_c, 0, 78, 0
2, 64717, Note_on_c, 0, 81, 0
2, 64739, Control_c, 0, 64, 127
2, 64773, Note_on_c, 0, 54, 70
2, 64773, Note_on_c, 0, 57, 75
2, 64774, Note_on_c, 0, 66, 83
2, 64775, Note_on_c, 0, 63, 71
2, 64789, Note_on_c, 0, 75, 76
2, 64790, Note_on_c, 0, 78, 79
2, 64790, Note_on_c, 0, 81, 81
2, 64791, Note_on_c, 0, 87, 80
2, 64801, Note_on_c, 0, 61, 0
2, 64823, Note_on_c, 0, 85, 0
2, 64953, Note_on_c, 0, 56, 71
2, 64954, Note_on_c, 0, 59, 70
2, 64954, Note_on_c, 0, 64, 76
2, 64955, Note_on_c, 0, 68, 78
2, 64955, Note_on_c, 0, 76, 76
2, 64956, Note_on_c, 0, 80, 81
2, 64956, Note_on_c, 0, 83, 79
2, 64957, Note_on_c, 0, 88, 81
2, 64980, Note_on_c, 0, 54, 0
2, 64981, Note_on_c, 0, 57, 0
2, 64982, Note_on_c, 0, 75, 0
2, 64982, Note_on_c, 0, 69, 0
2, 64982, Note_on_c, 0, 63, 0
2, 64982, Note_on_c, 0, 66, 0
2, 64985, Note_on_c, 0, 81, 0
2, 64985, Note_on_c, 0, 78, 0
2, 64986, Note_on_c, 0, 90, 0
2, 64986, Note_on_c, 0, 87, 0
2, 65088, Note_on_c, 0, 56, 0
2, 65091, Note_on_c, 0, 64, 0
2, 65092, Note_on_c, 0, 76, 0
2, 65105, Note_on_c, 0, 80, 0
2, 65167, Note_on_c, 0, 56, 70
2, 65168, Note_on_c, 0, 61, 75
2, 65169, Note_on_c, 0, 64, 76
2, 65170, Note_on_c, 0, 73, 71
2, 65170, Note_on_c, 0, 76, 71
2, 65179, Note_on_c, 0, 52, 71
2, 65184, Note_on_c, 0, 80, 76
2, 65184, Note_on_c, 0, 85, 72
2, 65197, Note_on_c, 0, 59, 0
2, 65214, Note_on_c, 0, 83, 0
2, 65404, Control_c, 0, 64, 0
2, 65407, Note_on_c, 0, 57, 70
2, 65408, Note_on_c, 0, 63, 76
2, 65408, Note_on_c, 0, 66, 70
2, 65409, Note_on_c, 0, 75, 75
2, 65409, Note_on_c, 0, 78, 74
2, 65409, Note_on_c, 0, 81, 73
2, 65410, Note_on_c, 0, 87, 75
2, 65419, Note_on_c, 0, 54, 73
2, 65425, Note_on_c, 0, 73, 0
2, 65437, Note_on_c, 0, 56, 0
2, 65437, Note_on_c, 0, 61, 0
2, 65438, Note_on_c, 0, 68, 0
2, 65438, Note_on_c, 0, 64, 0
2, 65439, Note_on_c, 0, 80, 0
2, 65440, Note_on_c, 0, 85, 0
2, 65440, Note_on_c, 0, 88, 0
2, 65448, Note_on_c, 0, 52, 0
2, 65450, Note_on_c, 0, 76, 0
2, 65575, Control_c, 0, 64, 127
2, 65598, Note_on_c, 0, 57, 0
2, 65598, Note_on_c, 0, 54, 0
2, 65601, Note_on_c, 0, 63, 0
2, 65616, Note_on_c, 0, 78, 0
2, 65616, Note_on_c, 0, 75, 0
2, 65664, Note_on_c, 0, 51, 71
2, 65680, Note_on_c, 0, 54, 71
2, 65680, Note_on_c, 0, 57, 73
2, 65681, Note_on_c, 0, 63, 73
2, 65682, Note_on_c, 0, 72, 72
2, 65697, Note_on_c, 0, 75, 77
2, 65697, Note_on_c, 0, 78, 74
2, 65698, Note_on_c, 0, 84, 76
2, 65729, Note_on_c, 0, 87, 0
2, 65730, Note_on_c, 0, 81, 0
2, 65904, Control_c, 0, 64, 0
2, 65915, Note_on_c, 0, 25, 75
2, 65915, Note_on_c, 0, 37, 75
2, 65919, Note_on_c, 0, 49, 75
2, 65920, Note_on_c, 0, 61, 70
2, 65949, Note_on_c, 0, 51, 0
2, 65950, Note_on_c, 0, 54, 0
2, 65951, Note_on_c, 0, 63, 0
2, 65951, Note_on_c, 0, 66, 0
2, 65951, Note_on_c, 0, 57, 0
2, 65952, Note_on_c, 0, 75, 0
2, 65952, Note_on_c, 0, 84, 0
2, 65952, Note_on_c, 0, 72, 0
2, 65990, Note_on_c, 0, 61, 0
2, 66021, Control_c, 0, 64, 127
2, 66081, Note_on_c, 0, 61, 75
2, 66082, Note_on_c, 0, 64, 75
2, 66082, Note_on_c, 0, 73, 74
2, 66083, Note_on_c, 0, 76, 75
2, 66084, Note_on_c, 0, 80, 76
2, 66084, Note_on_c, 0, 85, 75
2, 66093, Note_on_c, 0, 52, 77
2, 66093, Note_on_c, 0, 56, 73
2, 66227, Note_on_c, 0, 56, 0
2, 66228, Note_on_c, 0, 64, 0
2, 66228, Note_on_c, 0, 61, 0
2, 66229, Note_on_c, 0, 73, 0
2, 66230, Note_on_c, 0, 85, 0
2, 66230, Note_on_c, 0, 76, 0
2, 66230, Note_on_c, 0, 80, 0
2, 66240, Note_on_c, 0, 52, 0
2, 66304, Note_on_c, 0, 56, 72
2, 66304, Note_on_c, 0, 61, 74
2, 66305, Note_on_c, 0, 64, 76
2, 66306, Note_on_c, 0, 73, 76
2, 66306, Note_on_c, 0, 76, 74
2, 66306, Note_on_c, 0, 80, 70
2, 66306, Note_on_c, 0, 85, 72
2, 66314, Note_on_c, 0, 52, 71
2, 66435, Note_on_c, 0, 64, 0
2, 66436, Note_on_c, 0, 76, 0
2, 66437, Note_on_c, 0, 78, 0
2, 66452, Note_on_c, 0, 80, 0
2, 66477, Note_on_c, 0, 56, 0
2, 66516, Note_on_c, 0, 64, 75
2, 66517, Note_on_c, 0, 76, 78
2, 66518, Note_on_c, 0, 88, 75
2, 66528, Note_on_c, 0, 59, 76
2, 66529, Note_on_c, 0, 68, 78
2, 66530, Note_on_c, 0, 80, 78
2, 66530, Note_on_c, 0, 83, 75
2, 66555, Note_on_c, 0, 56, 73
2, 66562, Note_on_c, 0, 85, 0
2, 66762, Note_on_c, 0, 55, 77
2, 66765, Note_on_c, 0, 63, 74
2, 66765, Note_on_c, 0, 67, 74
2, 66765, Note_on_c, 0, 75, 71
2, 66766, Note_on_c, 0, 79, 75
2, 66766, Note_on_c, 0, 87, 72
2, 66774, Note_on_c, 0, 58, 75
2, 66779, Note_on_c, 0, 82, 72
2, 66791, Note_on_c, 0, 56, 0
2, 66791, Note_on_c, 0, 52, 0
2, 66792, Note_on_c, 0, 76, 0
2, 66792, Note_on_c, 0, 64, 0
2, 66792, Note_on_c, 0, 73, 0
2, 66792, Note_on_c, 0, 80, 0
2, 66792, Note_on_c, 0, 68, 0
2, 66792, Note_on_c, 0, 61, 0
2, 66793, Note_on_c, 0, 88, 0
2, 66802, Note_on_c, 0, 59, 0
2, 66806, Note_on_c, 0, 83, 0
2, 66833, Control_c, 0, 64, 0
2, 66984, Note_on_c, 0, 57, 72
2, 66995, Note_on_c, 0, 33, 72
2, 66996, Note_on_c, 0, 45, 72
2, 67001, Note_on_c, 0, 69, 83
2, 67015, Note_on_c, 0, 55, 0
2, 67016, Note_on_c, 0, 58, 0
2, 67024, Note_on_c, 0, 37, 0
2, 67028, Note_on_c, 0, 49, 0
2, 67031, Note_on_c, 0, 67, 0
2, 67031, Note_on_c, 0, 63, 0
2, 67032, Note_on_c, 0, 87, 0
2, 67032, Note_on_c, 0, 79, 0
2, 67032, Note_on_c, 0, 75, 0
2, 67033, Note_on_c, 0, 82, 0
2, 67051, Note_on_c, 0, 25, 0
2, 67113, Control_c, 0, 64, 127
2, 67254, Note_on_c, 0, 54, 65
2, 67255, Note_on_c, 0, 60, 67
2, 67256, Note_on_c, 0, 62, 66
2, 67270, Note_on_c, 0, 66, 71
2, 67270, Note_on_c, 0, 74, 74
2, 67271, Note_on_c, 0, 78, 76
2, 67271, Note_on_c, 0, 81, 74
2, 67271, Note_on_c, 0, 86, 71
2, 67384, Note_on_c, 0, 33, 0
2, 67432, Note_on_c, 0, 33, 77
2, 67523, Note_on_c, 0, 44, 77
2, 67526, Note_on_c, 0, 56, 71
2, 67527, Note_on_c, 0, 68, 83
2, 67536, Note_on_c, 0, 32, 74
2, 67554, Note_on_c, 0, 45, 0
2, 67555, Note_on_c, 0, 54, 0
2, 67555, Note_on_c, 0, 60, 0
2, 67555, Note_on_c, 0, 57, 0
2, 67556, Note_on_c, 0, 74, 0
2, 67556, Note_on_c, 0, 69, 0
2, 67556, Note_on_c, 0, 66, 0
2, 67556, Note_on_c, 0, 62, 0
2, 67557, Note_on_c, 0, 81, 0
2, 67557, Note_on_c, 0, 86, 0
2, 67557, Note_on_c, 0, 78, 0
2, 67561, Control_c, 0, 64, 0
2, 67564, Note_on_c, 0, 33, 0
2, 67793, Control_c, 0, 64, 127
2, 67810, Note_on_c, 0, 51, 65
2, 67811, Note_on_c, 0, 54, 68
2, 67811, Note_on_c, 0, 60, 71
2, 67812, Note_on_c, 0, 63, 64
2, 67824, Note_on_c, 0, 72, 74
2, 67824, Note_on_c, 0, 75, 73
2, 67824, Note_on_c, 0, 78, 72
2, 67824, Note_on_c, 0, 84, 74
2, 67984, Note_on_c, 0, 32, 0
2, 67987, Note_on_c, 0, 51, 0
2, 67987, Note_on_c, 0, 54, 0
2, 68002, Note_on_c, 0, 72, 0
2, 68003, Note_on_c, 0, 78, 0
2, 68003, Note_on_c, 0, 75, 0
2, 68014, Note_on_c, 0, 68, 0
2, 68025, Note_on_c, 0, 60, 0
2, 68026, Note_on_c, 0, 63, 0
2, 68037, Note_on_c, 0, 56, 0
2, 68040, Note_on_c, 0, 84, 0
2, 68069, Control_c, 0, 64, 0
2, 68090, Note_on_c, 0, 25, 82
2, 68093, Note_on_c, 0, 37, 76
2, 68094, Note_on_c, 0, 32, 79
2, 68097, Note_on_c, 0, 49, 83
2, 68106, Note_on_c, 0, 28, 83
2, 68110, Note_on_c, 0, 52, 82
2, 68110, Note_on_c, 0, 56, 81
2, 68124, Note_on_c, 0, 61, 77
2, 68318, Control_c, 0, 64, 127
2, 68351, Note_on_c, 0, 52, 0
2, 68353, Note_on_c, 0, 61, 0
2, 68353, Note_on_c, 0, 56, 0
2, 68433, Note_on_c, 0, 52, 73
2, 68434, Note_on_c, 0, 56, 73
2, 68434, Note_on_c, 0, 61, 76
2, 68435, Note_on_c, 0, 64, 71
2, 68436, Note_on_c, 0, 85, 83
2, 68449, Note_on_c, 0, 73, 88
2, 68449, Note_on_c, 0, 76, 82
2, 68449, Note_on_c, 0, 80, 82
2, 68593, Note_on_c, 0, 61, 0
2, 68597, Note_on_c, 0, 85, 0
2, 68597, Note_on_c, 0, 80, 0
2, 68667, Note_on_c, 0, 59, 74
2, 68667, Note_on_c, 0, 61, 72
2, 68670, Note_on_c, 0, 71, 83
2, 68670, Note_on_c, 0, 80, 87
2, 68670, Note_on_c, 0, 85, 87
2, 68671, Note_on_c, 0, 92, 80
2, 68795, Note_on_c, 0, 28, 0
2, 68813, Note_on_c, 0, 85, 0
2, 68821, Note_on_c, 0, 37, 0
2, 68825, Note_on_c, 0, 61, 0
2, 68848, Note_on_c, 0, 52, 0
2, 68849, Note_on_c, 0, 56, 0
2, 68849, Note_on_c, 0, 59, 0
2, 68852, Note_on_c, 0, 71, 0
2, 68852, Note_on_c, 0, 80, 0
2, 68859, Note_on_c, 0, 44, 0
2, 68863, Note_on_c, 0, 76, 0
2, 68889, Note_on_c, 0, 85, 79
2, 68898, Note_on_c, 0, 57, 73
2, 68898, Note_on_c, 0, 61, 72
2, 68898, Note_on_c, 0, 66, 72
2, 68899, Note_on_c, 0, 69, 79
2, 68900, Note_on_c, 0, 78, 79
2, 68901, Note_on_c, 0, 90, 78
2, 68929, Note_on_c, 0, 64, 0
2, 68930, Note_on_c, 0, 92, 0
2, 68975, Control_c, 0, 64, 0
2, 69076, Note_on_c, 0, 57, 0
2, 69079, Note_on_c, 0, 69, 0
2, 69153, Note_on_c, 0, 33, 83
2, 69154, Note_on_c, 0, 45, 83
2, 69155, Note_on_c, 0, 57, 81
2, 69156, Note_on_c, 0, 69, 89
2, 69182, Note_on_c, 0, 32, 0
2, 69182, Note_on_c, 0, 25, 0
2, 69185, Note_on_c, 0, 49, 0
2, 69186, Note_on_c, 0, 61, 0
2, 69189, Note_on_c, 0, 73, 0
2, 69189, Note_on_c, 0, 85, 0
2, 69190, Note_on_c, 0, 90, 0
2, 69265, Note_on_c, 0, 57, 0
2, 69269, Control_c, 0, 64, 127
2, 69316, Note_on_c, 0, 57, 64
2, 69376, Note_on_c, 0, 66, 0
2, 69391, Note_on_c, 0, 78, 0
2, 69453, Note_on_c, 0, 54, 67
2, 69453, Note_on_c, 0, 60, 71
2, 69454, Note_on_c, 0, 66, 74
2, 69455, Note_on_c, 0, 64, 66
2, 69470, Note_on_c, 0, 76, 77
2, 69470, Note_on_c, 0, 78, 75
2, 69470, Note_on_c, 0, 88, 77
2, 69483, Note_on_c, 0, 84, 75
2, 69786, Control_c, 0, 64, 0
2, 69794, Note_on_c, 0, 84, 0
2, 69798, Note_on_c, 0, 44, 70
2, 69801, Note_on_c, 0, 56, 72
2, 69804, Note_on_c, 0, 68, 82
2, 69812, Note_on_c, 0, 32, 76
2, 69827, Note_on_c, 0, 45, 0
2, 69830, Note_on_c, 0, 57, 0
2, 69831, Note_on_c, 0, 64, 0
2, 69832, Note_on_c, 0, 69, 0
2, 69832, Note_on_c, 0, 76, 0
2, 69832, Note_on_c, 0, 66, 0
2, 69835, Note_on_c, 0, 88, 0
2, 69840, Note_on_c, 0, 33, 0
2, 70085, Note_on_c, 0, 54, 0
2, 70112, Note_on_c, 0, 60, 0
2, 70153, Note_on_c, 0, 56, 0
2, 70157, Note_on_c, 0, 78, 0
2, 70158, Control_c, 0, 64, 127
2, 70163, Note_on_c, 0, 54, 67
2, 70188, Note_on_c, 0, 51, 69
2, 70191, Note_on_c, 0, 60, 67
2, 70205, Note_on_c, 0, 63, 69
2, 70220, Note_on_c, 0, 72, 77
2, 70233, Note_on_c, 0, 75, 75
2, 70233, Note_on_c, 0, 78, 75
2, 70234, Note_on_c, 0, 84, 72
2, 70545, Note_on_c, 0, 60, 0
2, 70545, Note_on_c, 0, 51, 0
2, 70560, Note_on_c, 0, 54, 0
2, 70560, Note_on_c, 0, 63, 0
2, 70561, Note_on_c, 0, 68, 0
2, 70566, Control_c, 0, 64, 0
2, 70574, Note_on_c, 0, 72, 0
2, 70589, Note_on_c, 0, 75, 0
2, 70590, Note_on_c, 0, 78, 0
2, 70590, Note_on_c, 0, 84, 0
2, 70604, Note_on_c, 0, 25, 71
2, 70605, Note_on_c, 0, 37, 70
2, 70608, Note_on_c, 0, 32, 0
2, 70608, Note_on_c, 0, 49, 76
2, 70608, Note_on_c, 0, 52, 72
2, 70608, Note_on_c, 0, 61, 75
2, 70623, Note_on_c, 0, 56, 77
2, 70637, Note_on_c, 0, 44, 0
2, 70707, Note_on_c, 0, 56, 0
2, 70733, Note_on_c, 0, 52, 0
2, 70748, Note_on_c, 0, 61, 0
2, 70784, Note_on_c, 0, 56, 74
2, 70810, Note_on_c, 0, 52, 73
2, 70825, Note_on_c, 0, 64, 74
2, 70826, Note_on_c, 0, 61, 75
2, 70826, Note_on_c, 0, 68, 71
2, 70827, Note_on_c, 0, 73, 64
2, 70827, Note_on_c, 0, 76, 68
2, 70842, Note_on_c, 0, 85, 70
2, 70912, Control_c, 0, 64, 127
2, 71127, Note_on_c, 0, 52, 0
2, 71141, Note_on_c, 0, 56, 0
2, 71159, Note_on_c, 0, 61, 0
2, 71159, Note_on_c, 0, 64, 0
2, 71173, Note_on_c, 0, 68, 0
2, 71188, Note_on_c, 0, 73, 0
2, 71189, Note_on_c, 0, 85, 0
2, 71189, Note_on_c, 0, 76, 0
2, 71208, Note_on_c, 0, 52, 60
2, 71222, Note_on_c, 0, 56, 61
2, 71236, Note_on_c, 0, 61, 62
2, 71237, Note_on_c, 0, 64, 63
2, 71252, Note_on_c, 0, 68, 66
2, 71267, Note_on_c, 0, 73, 67
2, 71561, Note_on_c, 0, 54, 64
2, 71561, Note_on_c, 0, 57, 64
2, 71587, Note_on_c, 0, 52, 0
2, 71590, Note_on_c, 0, 56, 0
2, 71603, Note_on_c, 0, 66, 67
2, 71629, Note_on_c, 0, 62, 61
2, 71630, Note_on_c, 0, 69, 71
2, 71631, Note_on_c, 0, 74, 65
2, 71632, Note_on_c, 0, 64, 0
2, 71658, Note_on_c, 0, 61, 0
2, 71659, Note_on_c, 0, 73, 0
2, 71659, Note_on_c, 0, 68, 0
2, 71904, Note_on_c, 0, 66, 0
2, 71904, Note_on_c, 0, 62, 0
2, 71915, Note_on_c, 0, 54, 0
2, 71938, Note_on_c, 0, 71, 71
2, 71949, Note_on_c, 0, 59, 58
2, 71949, Note_on_c, 0, 62, 65
2, 71952, Note_on_c, 0, 66, 70
2, 71960, Note_on_c, 0, 50, 62
2, 71963, Note_on_c, 0, 54, 64
2, 71967, Note_on_c, 0, 69, 0
2, 71968, Note_on_c, 0, 74, 0
2, 71976, Note_on_c, 0, 57, 0
2, 72194, Note_on_c, 0, 61, 62
2, 72195, Note_on_c, 0, 64, 62
2, 72195, Note_on_c, 0, 68, 70
2, 72198, Note_on_c, 0, 73, 65
2, 72206, Note_on_c, 0, 56, 64
2, 72217, Note_on_c, 0, 52, 63
2, 72221, Note_on_c, 0, 59, 0
2, 72222, Note_on_c, 0, 62, 0
2, 72223, Note_on_c, 0, 66, 0
2, 72224, Note_on_c, 0, 71, 0
2, 72233, Note_on_c, 0, 54, 0
2, 72244, Note_on_c, 0, 50, 0
2, 72379, Note_on_c, 0, 61, 0
2, 72389, Note_on_c, 0, 49, 0
2, 72389, Note_on_c, 0, 52, 0
2, 72392, Note_on_c, 0, 64, 0
2, 72429, Note_on_c, 0, 37, 0
2, 72430, Note_on_c, 0, 57, 65
2, 72431, Note_on_c, 0, 61, 62
2, 72432, Note_on_c, 0, 69, 70
2, 72436, Control_c, 0, 64, 0
2, 72440, Note_on_c, 0, 49, 61
2, 72440, Note_on_c, 0, 52, 63
2, 72443, Note_on_c, 0, 64, 61
2, 72457, Note_on_c, 0, 56, 0
2, 72461, Note_on_c, 0, 73, 0
2, 72461, Note_on_c, 0, 68, 0
2, 72479, Note_on_c, 0, 37, 60
2, 72662, Note_on_c, 0, 71, 67
2, 72672, Note_on_c, 0, 50, 59
2, 72672, Note_on_c, 0, 54, 58
2, 72675, Note_on_c, 0, 59, 65
2, 72675, Note_on_c, 0, 66, 71
2, 72676, Note_on_c, 0, 62, 62
2, 72690, Note_on_c, 0, 52, 0
2, 72693, Note_on_c, 0, 69, 0
2, 72697, Note_on_c, 0, 25, 0
2, 72698, Note_on_c, 0, 37, 0
2, 72701, Note_on_c, 0, 49, 0
2, 72704, Note_on_c, 0, 57, 0
2, 72705, Note_on_c, 0, 64, 0
2, 72705, Note_on_c, 0, 61, 0
2, 72785, Control_c, 0, 64, 127
2, 72919, Note_on_c, 0, 54, 0
2, 72920, Note_on_c, 0, 59, 0
2, 72921, Note_on_c, 0, 62, 0
2, 72946, Note_on_c, 0, 68, 67
2, 72971, Note_on_c, 0, 54, 59
2, 72972, Note_on_c, 0, 56, 54
2, 72972, Note_on_c, 0, 59, 57
2, 72972, Note_on_c, 0, 62, 59
2, 72979, Note_on_c, 0, 71, 0
2, 72984, Note_on_c, 0, 47, 52
2, 73145, Note_on_c, 0, 54, 0
2, 73188, Note_on_c, 0, 66, 0
2, 73207, Note_on_c, 0, 49, 56
2, 73223, Note_on_c, 0, 54, 59
2, 73238, Note_on_c, 0, 47, 0
2, 73239, Note_on_c, 0, 50, 0
2, 73253, Note_on_c, 0, 56, 0
2, 73258, Control_c, 0, 64, 0
2, 73263, Note_on_c, 0, 61, 59
2, 73264, Note_on_c, 0, 66, 66
2, 73275, Note_on_c, 0, 57, 52
2, 73278, Note_on_c, 0, 69, 64
2, 73296, Note_on_c, 0, 62, 0
2, 73307, Note_on_c, 0, 59, 0
2, 73310, Note_on_c, 0, 68, 0
2, 73481, Note_on_c, 0, 57, 0
2, 73481, Control_c, 0, 64, 127
2, 73482, Note_on_c, 0, 66, 0
2, 73483, Note_on_c, 0, 69, 0
2, 73492, Note_on_c, 0, 49, 0
2, 73495, Note_on_c, 0, 61, 0
2, 73495, Note_on_c, 0, 54, 0
2, 73561, Note_on_c, 0, 57, 56
2, 73564, Note_on_c, 0, 66, 73
2, 73564, Note_on_c, 0, 69, 71
2, 73574, Note_on_c, 0, 49, 60
2, 73575, Note_on_c, 0, 54, 56
2, 73576, Note_on_c, 0, 61, 62
2, 73853, Note_on_c, 0, 61, 0
2, 73853, Note_on_c, 0, 66, 0
2, 73878, Note_on_c, 0, 57, 0
2, 73892, Note_on_c, 0, 54, 0
2, 73927, Note_on_c, 0, 61, 56
2, 73927, Note_on_c, 0, 64, 57
2, 73928, Note_on_c, 0, 66, 69
2, 73929, Note_on_c, 0, 73, 72
2, 73937, Note_on_c, 0, 52, 57
2, 73938, Note_on_c, 0, 54, 59
2, 73957, Note_on_c, 0, 69, 0
2, 74240, Note_on_c, 0, 54, 0
2, 74254, Note_on_c, 0, 52, 0
2, 74285, Note_on_c, 0, 64, 0
2, 74285, Note_on_c, 0, 61, 0
2, 74286, Note_on_c, 0, 73, 0
2, 74286, Note_on_c, 0, 66, 0
2, 74293, Note_on_c, 0, 54, 59
2, 74332, Control_c, 0, 64, 0
2, 74337, Note_on_c, 0, 59, 53
2, 74337, Note_on_c, 0, 62, 52
2, 74338, Note_on_c, 0, 66, 62
2, 74339, Note_on_c, 0, 71, 58
2, 74347, Note_on_c, 0, 50, 57
2, 74379, Note_on_c, 0, 49, 0
2, 74764, Note_on_c, 0, 55, 65
2, 74772, Note_on_c, 0, 31, 66
2, 74772, Note_on_c, 0, 43, 64
2, 74794, Note_on_c, 0, 50, 0
2, 74795, Note_on_c, 0, 54, 0
2, 74795, Note_on_c, 0, 59, 0
2, 74798, Note_on_c, 0, 62, 0
2, 74798, Note_on_c, 0, 66, 0
2, 74799, Note_on_c, 0, 71, 0
2, 74865, Control_c, 0, 64, 127
2, 75163, Note_on_c, 0, 69, 71
2, 75164, Note_on_c, 0, 61, 53
2, 75164, Note_on_c, 0, 64, 57
2, 75175, Note_on_c, 0, 52, 54
2, 75175, Note_on_c, 0, 57, 55
2, 75415, Control_c, 0, 67, 127
2, 75551, Control_c, 0, 64, 0
2, 75552, Note_on_c, 0, 56, 65
2, 75562, Note_on_c, 0, 44, 71
2, 75580, Note_on_c, 0, 52, 0
2, 75581, Note_on_c, 0, 57, 0
2, 75581, Note_on_c, 0, 55, 0
2, 75581, Note_on_c, 0, 61, 0
2, 75582, Note_on_c, 0, 69, 0
2, 75582, Note_on_c, 0, 64, 0
2, 75587, Note_on_c, 0, 32, 66
2, 75591, Note_on_c, 0, 43, 0
2, 75619, Note_on_c, 0, 31, 0
2, 76028, Control_c, 0, 64, 127
2, 76101, Note_on_c, 0, 56, 0
2, 76166, Note_on_c, 0, 68, 67
2, 76177, Note_on_c, 0, 51, 49
2, 76178, Note_on_c, 0, 54, 49
2, 76178, Note_on_c, 0, 56, 48
2, 76178, Note_on_c, 0, 60, 53
2, 76179, Note_on_c, 0, 66, 53
2, 76336, Control_c, 0, 67, 0
2, 76910, Control_c, 0, 64, 0
2, 76923, Note_on_c, 0, 25, 75
2, 76923, Note_on_c, 0, 37, 80
2, 76927, Note_on_c, 0, 49, 77
2, 76955, Note_on_c, 0, 32, 0
2, 76958, Note_on_c, 0, 54, 0
2, 76958, Note_on_c, 0, 44, 0
2, 76958, Note_on_c, 0, 51, 0
2, 76958, Note_on_c, 0, 56, 0
2, 76959, Note_on_c, 0, 60, 0
2, 76960, Note_on_c, 0, 66, 0
2, 76961, Note_on_c, 0, 68, 0
2, 77275, Control_c, 0, 64, 127
2, 77282, Note_on_c, 0, 52, 65
2, 77283, Note_on_c, 0, 57, 71
2, 77284, Note_on_c, 0, 61, 71
2, 77284, Note_on_c, 0, 64, 70
2, 77285, Note_on_c, 0, 69, 78
2, 77285, Note_on_c, 0, 73, 80
2, 77639, Note_on_c, 0, 52, 0
2, 77641, Note_on_c, 0, 57, 0
2, 77689, Note_on_c, 0, 52, 68
2, 77692, Note_on_c, 0, 57, 66
2, 78445, Note_on_c, 0, 25, 0
2, 78463, Note_on_c, 0, 37, 0
2, 78493, Note_on_c, 0, 49, 0
2, 78514, Note_on_c, 0, 25, 67
2, 78529, Note_on_c, 0, 37, 71
2, 78559, Note_on_c, 0, 49, 68
2, 78589, Note_on_c, 0, 52, 0
2, 78590, Note_on_c, 0, 57, 0
2, 78594, Note_on_c, 0, 69, 0
2, 78965, Note_on_c, 0, 61, 0
2, 78969, Note_on_c, 0, 73, 0
2, 78980, Note_on_c, 0, 64, 0
2, 79008, Control_c, 0, 64, 0
2, 79046, Note_on_c, 0, 61, 56
2, 79047, Note_on_c, 0, 73, 64
2, 79048, Note_on_c, 0, 68, 70
2, 79058, Note_on_c, 0, 58, 55
2, 79059, Note_on_c, 0, 64, 53
2, 79069, Note_on_c, 0, 52, 58
2, 79442, Control_c, 0, 64, 127
2, 80215, Note_on_c, 0, 25, 0
2, 80219, Note_on_c, 0, 37, 0
2, 80222, Note_on_c, 0, 49, 0
2, 80265, Note_on_c, 0, 25, 59
2, 80268, Note_on_c, 0, 37, 61
2, 80272, Note_on_c, 0, 49, 62
2, 80304, Note_on_c, 0, 58, 0
2, 80304, Note_on_c, 0, 64, 0
2, 80304, Note_on_c, 0, 68, 0
2, 80762, Note_on_c, 0, 61, 0
2, 80763, Note_on_c, 0, 73, 0
2, 80785, Note_on_c, 0, 52, 0
2, 80836, Note_on_c, 0, 55, 56
2, 80837, Note_on_c, 0, 64, 59
2, 80838, Note_on_c, 0, 61, 55
2, 80838, Note_on_c, 0, 69, 70
2, 80839, Note_on_c, 0, 73, 70
2, 80857, Control_c, 0, 64, 0
2, 80862, Note_on_c, 0, 52, 59
2, 81273, Control_c, 0, 64, 127
2, 81966, Note_on_c, 0, 49, 0
2, 81977, Note_on_c, 0, 37, 0
2, 81987, Note_on_c, 0, 25, 0
2, 82019, Note_on_c, 0, 49, 56
2, 82030, Note_on_c, 0, 37, 58
2, 82041, Note_on_c, 0, 25, 55
2, 82052, Note_on_c, 0, 55, 0
2, 82056, Note_on_c, 0, 69, 0
2, 82209, Control_c, 0, 67, 127
2, 82238, Control_c, 0, 67, 0
2, 82291, Control_c, 0, 67, 127
2, 82684, Note_on_c, 0, 61, 0
2, 82687, Note_on_c, 0, 73, 0
2, 82701, Note_on_c, 0, 64, 0
2, 82723, Note_on_c, 0, 52, 0
2, 82729, Control_c, 0, 64, 0
2, 82748, Note_on_c, 0, 54, 51
2, 82749, Note_on_c, 0, 61, 50
2, 82750, Note_on_c, 0, 66, 69
2, 82750, Note_on_c, 0, 73, 71
2, 82751, Note_on_c, 0, 70, 66
2, 82761, Note_on_c, 0, 58, 53
2, 82762, Note_on_c, 0, 64, 53
2, 82786, Note_on_c, 0, 52, 50
2, 83211, Control_c, 0, 64, 127
2, 84096, Note_on_c, 0, 25, 0
2, 84101, Note_on_c, 0, 49, 0
2, 84111, Note_on_c, 0, 37, 0
2, 84151, Note_on_c, 0, 49, 57
2, 84162, Note_on_c, 0, 37, 57
2, 84171, Note_on_c, 0, 25, 56
2, 84182, Note_on_c, 0, 52, 0
2, 84185, Note_on_c, 0, 58, 0
2, 84186, Note_on_c, 0, 64, 0
2, 84187, Note_on_c, 0, 70, 0
2, 84648, Note_on_c, 0, 54, 0
2, 84671, Note_on_c, 0, 51, 53
2, 84678, Control_c, 0, 64, 0
2, 84696, Note_on_c, 0, 54, 47
2, 84697, Note_on_c, 0, 57, 47
2, 84895, Control_c, 0, 64, 127
2, 84990, Note_on_c, 0, 61, 0
2, 84991, Note_on_c, 0, 66, 0
2, 84992, Note_on_c, 0, 73, 0
2, 85020, Note_on_c, 0, 69, 65
2, 85042, Note_on_c, 0, 61, 48
2, 85042, Note_on_c, 0, 63, 53
2, 85042, Note_on_c, 0, 66, 61
2, 85043, Note_on_c, 0, 73, 62
2, 85953, Note_on_c, 0, 37, 0
2, 86000, Note_on_c, 0, 37, 50
2, 86588, Control_c, 0, 67, 0
2, 86616, Note_on_c, 0, 49, 0
2, 86623, Note_on_c, 0, 25, 0
2, 86624, Note_on_c, 0, 37, 0
2, 86640, Control_c, 0, 67, 127
2, 86647, Control_c, 0, 64, 0
2, 86664, Note_on_c, 0, 49, 58
2, 86672, Note_on_c, 0, 25, 53
2, 86673, Note_on_c, 0, 37, 57
2, 86694, Note_on_c, 0, 51, 0
2, 86697, Note_on_c, 0, 54, 0
2, 86697, Note_on_c, 0, 57, 0
2, 86698, Note_on_c, 0, 63, 0
2, 86699, Note_on_c, 0, 66, 0
2, 86699, Note_on_c, 0, 69, 0
2, 87101, Control_c, 0, 64, 127
2, 87546, Note_on_c, 0, 73, 0
2, 87553, Note_on_c, 0, 49, 0
2, 87556, Note_on_c, 0, 61, 0
2, 87580, Note_on_c, 0, 64, 49
2, 87591, Note_on_c, 0, 56, 47
2, 87595, Note_on_c, 0, 73, 52
2, 87602, Note_on_c, 0, 49, 51
2, 87606, Note_on_c, 0, 61, 46
2, 87607, Note_on_c, 0, 68, 56
2, 87614, Note_on_c, 0, 44, 46
2, 87615, Note_on_c, 0, 52, 46
2, 88904, Note_on_c, 0, 68, 0
2, 88905, Note_on_c, 0, 73, 0
2, 88912, Note_on_c, 0, 52, 0
2, 88913, Note_on_c, 0, 56, 0
2, 88914, Note_on_c, 0, 64, 0
2, 88914, Note_on_c, 0, 61, 0
2, 88950, Note_on_c, 0, 68, 63
2, 88950, Note_on_c, 0, 73, 64
2, 88951, Note_on_c, 0, 80, 64
2, 88958, Note_on_c, 0, 52, 46
2, 88959, Note_on_c, 0, 56, 47
2, 88962, Note_on_c, 0, 61, 52
2, 88962, Note_on_c, 0, 64, 46
2, 88965, Note_on_c, 0, 76, 62
2, 89672, Note_on_c, 0, 52, 0
2, 89673, Note_on_c, 0, 56, 0
2, 89676, Note_on_c, 0, 64, 0
2, 89676, Note_on_c, 0, 61, 0
2, 89677, Note_on_c, 0, 68, 0
2, 89678, Note_on_c, 0, 73, 0
2, 89681, Note_on_c, 0, 80, 0
2, 89692, Note_on_c, 0, 76, 0
2, 89724, Note_on_c, 0, 52, 53
2, 89725, Note_on_c, 0, 56, 49
2, 89728, Note_on_c, 0, 61, 49
2, 89728, Note_on_c, 0, 64, 50
2, 89729, Note_on_c, 0, 68, 57
2, 89729, Note_on_c, 0, 73, 54
2, 89732, Note_on_c, 0, 80, 56
2, 89745, Note_on_c, 0, 76, 58
2, 91048, Control_c, 0, 67, 0
2, 91437, Note_on_c, 0, 44, 0
2, 91440, Note_on_c, 0, 52, 0
2, 91440, Note_on_c, 0, 49, 0
2, 91442, Note_on_c, 0, 56, 0
2, 91443, Note_on_c, 0, 64, 0
2, 91443, Note_on_c, 0, 61, 0
2, 91444, Note_on_c, 0, 68, 0
2, 91445, Note_on_c, 0, 73, 0
2, 91446, Note_on_c, 0, 80, 0
2, 91446, Note_on_c, 0, 76, 0
2, 91674, Control_c, 0, 64, 0
2, 92469, Note_on_c, 0, 25, 0
2, 92486, Note_on_c, 0, 37, 0
2, 92734, Note_on_c, 0, 72, 48
2, 92734, Note_on_c, 0, 72, 0
2, 92734, End_track
0, 0, End_of_file
