0, 0, Header, 0, 1, 480
1, 0, Start_track
1, 0, Title_t, "Seq-1"
1, 0, Time_signature, 2, 1, 48, 8
1, 0, Key_signature, 0, "major"
1, 0, Tempo, 355009
1, 0, Program_c, 0, 0
1, 0, Control_c, 0, 7, 105
1, 0, Control_c, 0, 64, 127
1, 0, Note_on_c, 0, 79, 89
1, 0, Note_on_c, 0, 75, 97
1, 0, Note_on_c, 0, 63, 110
1, 3, Note_on_c, 0, 67, 89
1, 240, Tempo, 385010
1, 480, Tempo, 380011
1, 720, Tempo, 380011
1, 787, Control_c, 0, 64, 0
1, 949, Note_on_c, 0, 63, 0
1, 951, Note_on_c, 0, 67, 0
1, 952, Note_on_c, 0, 75, 0
1, 953, Note_on_c, 0, 79, 0
1, 960, Tempo, 375000
1, 978, Note_on_c, 0, 79, 89
1, 979, Note_on_c, 0, 75, 76
1, 979, Note_on_c, 0, 63, 105
1, 981, Note_on_c, 0, 67, 75
1, 991, Control_c, 0, 64, 127
1, 1200, Tempo, 385010
1, 1440, Tempo, 385010
1, 1674, Note_on_c, 0, 72, 77
1, 1675, Note_on_c, 0, 60, 89
1, 1680, Tempo, 400000
1, 1697, Note_on_c, 0, 75, 0
1, 1699, Note_on_c, 0, 67, 0
1, 1699, Note_on_c, 0, 63, 0
1, 1713, Note_on_c, 0, 79, 0
1, 1803, Note_on_c, 0, 72, 0
1, 1806, Note_on_c, 0, 60, 0
1, 1842, Control_c, 0, 64, 0
1, 1920, Tempo, 410004
1, 1926, Note_on_c, 0, 75, 80
1, 1926, Note_on_c, 0, 79, 80
1, 1929, Note_on_c, 0, 63, 95
1, 1933, Note_on_c, 0, 67, 79
1, 1960, Control_c, 0, 64, 127
1, 2160, Tempo, 389990
1, 2400, Tempo, 355009
1, 2628, Note_on_c, 0, 70, 73
1, 2636, Note_on_c, 0, 58, 89
1, 2640, Tempo, 385010
1, 2653, Note_on_c, 0, 75, 0
1, 2654, Note_on_c, 0, 67, 0
1, 2655, Note_on_c, 0, 79, 0
1, 2663, Note_on_c, 0, 63, 0
1, 2753, Note_on_c, 0, 70, 0
1, 2758, Note_on_c, 0, 58, 0
1, 2762, Control_c, 0, 64, 0
1, 2876, Note_on_c, 0, 75, 89
1, 2877, Note_on_c, 0, 79, 95
1, 2877, Note_on_c, 0, 63, 95
1, 2879, Note_on_c, 0, 67, 89
1, 2880, Tempo, 365008
1, 2894, Control_c, 0, 64, 127
1, 3120, Tempo, 370005
1, 3300, Note_on_c, 0, 67, 0
1, 3326, Note_on_c, 0, 63, 0
1, 3342, Note_on_c, 0, 75, 0
1, 3346, Note_on_c, 0, 79, 0
1, 3349, Note_on_c, 0, 55, 89
1, 3352, Note_on_c, 0, 67, 89
1, 3360, Tempo, 355009
1, 3466, Note_on_c, 0, 70, 89
1, 3471, Note_on_c, 0, 58, 95
1, 3478, Note_on_c, 0, 55, 0
1, 3495, Note_on_c, 0, 67, 0
1, 3580, Note_on_c, 0, 74, 89
1, 3586, Note_on_c, 0, 62, 105
1, 3587, Note_on_c, 0, 58, 0
1, 3600, Tempo, 349997
1, 3613, Note_on_c, 0, 70, 0
1, 3698, Note_on_c, 0, 74, 0
1, 3699, Note_on_c, 0, 62, 0
1, 3710, Control_c, 0, 64, 0
1, 3836, Control_c, 0, 64, 127
1, 3837, Note_on_c, 0, 79, 95
1, 3839, Note_on_c, 0, 63, 79
1, 3839, Note_on_c, 0, 67, 79
1, 3840, Tempo, 375000
1, 3840, Note_on_c, 0, 75, 97
1, 4029, Note_on_c, 0, 63, 0
1, 4038, Note_on_c, 0, 79, 0
1, 4053, Note_on_c, 0, 67, 0
1, 4058, Note_on_c, 0, 75, 0
1, 4080, Tempo, 345006
1, 4085, Note_on_c, 0, 63, 89
1, 4091, Note_on_c, 0, 51, 89
1, 4134, Note_on_c, 0, 50, 1
1, 4154, Note_on_c, 0, 50, 0
1, 4188, Note_on_c, 0, 67, 73
1, 4192, Note_on_c, 0, 51, 0
1, 4195, Note_on_c, 0, 63, 0
1, 4195, Note_on_c, 0, 55, 75
1, 4217, Note_on_c, 0, 68, 1
1, 4255, Note_on_c, 0, 68, 0
1, 4306, Note_on_c, 0, 58, 79
1, 4311, Note_on_c, 0, 70, 89
1, 4320, Tempo, 370005
1, 4327, Note_on_c, 0, 55, 0
1, 4339, Note_on_c, 0, 67, 0
1, 4414, Note_on_c, 0, 58, 0
1, 4433, Note_on_c, 0, 70, 0
1, 4442, Control_c, 0, 64, 0
1, 4531, Control_c, 0, 64, 127
1, 4537, Note_on_c, 0, 72, 89
1, 4541, Note_on_c, 0, 60, 80
1, 4560, Tempo, 375000
1, 4640, Note_on_c, 0, 72, 0
1, 4646, Note_on_c, 0, 60, 0
1, 4692, Control_c, 0, 64, 0
1, 4778, Note_on_c, 0, 79, 95
1, 4781, Note_on_c, 0, 75, 89
1, 4782, Note_on_c, 0, 63, 105
1, 4783, Note_on_c, 0, 67, 105
1, 4785, Control_c, 0, 64, 127
1, 4800, Tempo, 385010
1, 4939, Note_on_c, 0, 79, 0
1, 4943, Note_on_c, 0, 63, 0
1, 4950, Note_on_c, 0, 67, 0
1, 4954, Note_on_c, 0, 75, 0
1, 5004, Note_on_c, 0, 48, 77
1, 5012, Note_on_c, 0, 60, 77
1, 5040, Tempo, 345006
1, 5122, Note_on_c, 0, 63, 95
1, 5124, Note_on_c, 0, 48, 0
1, 5126, Note_on_c, 0, 51, 89
1, 5132, Note_on_c, 0, 60, 0
1, 5229, Note_on_c, 0, 67, 89
1, 5231, Note_on_c, 0, 55, 89
1, 5235, Note_on_c, 0, 51, 0
1, 5252, Note_on_c, 0, 63, 0
1, 5280, Tempo, 380011
1, 5323, Note_on_c, 0, 55, 0
1, 5328, Note_on_c, 0, 67, 0
1, 5362, Control_c, 0, 64, 0
1, 5442, Control_c, 0, 64, 127
1, 5477, Note_on_c, 0, 70, 95
1, 5479, Note_on_c, 0, 27, 97
1, 5480, Note_on_c, 0, 58, 95
1, 5481, Note_on_c, 0, 39, 110
1, 5520, Tempo, 394997
1, 5568, Note_on_c, 0, 27, 0
1, 5570, Note_on_c, 0, 58, 0
1, 5583, Note_on_c, 0, 39, 0
1, 5589, Note_on_c, 0, 70, 0
1, 5758, Note_on_c, 0, 79, 95
1, 5759, Note_on_c, 0, 75, 89
1, 5759, Note_on_c, 0, 70, 95
1, 5760, Tempo, 450011
1, 5760, Note_on_c, 0, 67, 110
1, 5761, Note_on_c, 0, 51, 85
1, 5764, Note_on_c, 0, 58, 85
1, 5765, Note_on_c, 0, 46, 85
1, 5771, Note_on_c, 0, 55, 89
1, 6000, Tempo, 419992
1, 6016, Note_on_c, 0, 51, 40
1, 6023, Note_on_c, 0, 55, 38
1, 6116, Note_on_c, 0, 58, 56
1, 6120, Note_on_c, 0, 51, 0
1, 6143, Note_on_c, 0, 55, 0
1, 6238, Note_on_c, 0, 51, 47
1, 6238, Note_on_c, 0, 55, 53
1, 6240, Tempo, 389990
1, 6246, Note_on_c, 0, 58, 0
1, 6345, Note_on_c, 0, 58, 53
1, 6352, Note_on_c, 0, 51, 0
1, 6368, Note_on_c, 0, 55, 0
1, 6453, Note_on_c, 0, 34, 46
1, 6456, Note_on_c, 0, 56, 49
1, 6459, Note_on_c, 0, 58, 0
1, 6461, Note_on_c, 0, 53, 48
1, 6463, Control_c, 0, 64, 0
1, 6469, Note_on_c, 0, 75, 0
1, 6469, Note_on_c, 0, 79, 0
1, 6470, Note_on_c, 0, 58, 0
1, 6470, Note_on_c, 0, 70, 0
1, 6471, Note_on_c, 0, 67, 0
1, 6473, Note_on_c, 0, 55, 0
1, 6476, Note_on_c, 0, 51, 0
1, 6478, Note_on_c, 0, 46, 0
1, 6480, Tempo, 355009
1, 6528, Control_c, 0, 64, 127
1, 6572, Note_on_c, 0, 34, 0
1, 6579, Note_on_c, 0, 58, 49
1, 6585, Note_on_c, 0, 53, 0
1, 6607, Note_on_c, 0, 56, 0
1, 6638, Control_c, 0, 64, 0
1, 6693, Note_on_c, 0, 46, 49
1, 6695, Note_on_c, 0, 39, 49
1, 6699, Control_c, 0, 64, 127
1, 6700, Note_on_c, 0, 51, 46
1, 6702, Note_on_c, 0, 58, 0
1, 6702, Note_on_c, 0, 55, 46
1, 6720, Tempo, 359993
1, 6825, Note_on_c, 0, 58, 53
1, 6829, Note_on_c, 0, 51, 0
1, 6834, Note_on_c, 0, 55, 0
1, 6883, Note_on_c, 0, 58, 0
1, 6944, Note_on_c, 0, 51, 39
1, 6946, Note_on_c, 0, 55, 44
1, 6960, Tempo, 370005
1, 7061, Note_on_c, 0, 58, 55
1, 7075, Note_on_c, 0, 51, 0
1, 7082, Note_on_c, 0, 55, 0
1, 7194, Note_on_c, 0, 51, 42
1, 7200, Tempo, 349997
1, 7200, Note_on_c, 0, 55, 41
1, 7203, Note_on_c, 0, 58, 0
1, 7321, Note_on_c, 0, 58, 48
1, 7328, Note_on_c, 0, 51, 0
1, 7363, Note_on_c, 0, 55, 0
1, 7440, Tempo, 375000
1, 7441, Note_on_c, 0, 34, 46
1, 7444, Note_on_c, 0, 56, 41
1, 7445, Note_on_c, 0, 58, 0
1, 7445, Note_on_c, 0, 53, 47
1, 7453, Note_on_c, 0, 39, 0
1, 7561, Note_on_c, 0, 58, 57
1, 7564, Note_on_c, 0, 34, 0
1, 7566, Note_on_c, 0, 53, 0
1, 7574, Note_on_c, 0, 46, 0
1, 7579, Note_on_c, 0, 56, 0
1, 7622, Control_c, 0, 64, 0
1, 7680, Tempo, 375000
1, 7683, Note_on_c, 0, 55, 46
1, 7686, Note_on_c, 0, 51, 42
1, 7687, Note_on_c, 0, 58, 0
1, 7690, Note_on_c, 0, 46, 35
1, 7691, Note_on_c, 0, 39, 36
1, 7700, Control_c, 0, 64, 127
1, 7798, Note_on_c, 0, 58, 53
1, 7807, Note_on_c, 0, 51, 0
1, 7817, Note_on_c, 0, 55, 0
1, 7844, Note_on_c, 0, 58, 0
1, 7918, Note_on_c, 0, 51, 49
1, 7920, Tempo, 370005
1, 7922, Note_on_c, 0, 55, 48
1, 8037, Note_on_c, 0, 58, 49
1, 8045, Note_on_c, 0, 51, 0
1, 8062, Note_on_c, 0, 55, 0
1, 8155, Note_on_c, 0, 34, 44
1, 8160, Tempo, 349997
1, 8160, Note_on_c, 0, 55, 47
1, 8164, Note_on_c, 0, 51, 36
1, 8165, Note_on_c, 0, 58, 0
1, 8172, Note_on_c, 0, 39, 0
1, 8282, Note_on_c, 0, 58, 53
1, 8290, Note_on_c, 0, 51, 0
1, 8322, Note_on_c, 0, 34, 0
1, 8328, Note_on_c, 0, 55, 0
1, 8400, Tempo, 365008
1, 8404, Note_on_c, 0, 38, 41
1, 8405, Note_on_c, 0, 56, 46
1, 8409, Note_on_c, 0, 58, 0
1, 8412, Control_c, 0, 64, 0
1, 8413, Note_on_c, 0, 53, 39
1, 8470, Control_c, 0, 64, 127
1, 8524, Note_on_c, 0, 53, 0
1, 8524, Note_on_c, 0, 58, 47
1, 8538, Note_on_c, 0, 56, 0
1, 8560, Note_on_c, 0, 46, 0
1, 8564, Note_on_c, 0, 38, 0
1, 8631, Control_c, 0, 64, 0
1, 8634, Note_on_c, 0, 55, 47
1, 8636, Note_on_c, 0, 51, 44
1, 8638, Note_on_c, 0, 58, 0
1, 8640, Tempo, 365008
1, 8644, Note_on_c, 0, 39, 42
1, 8647, Note_on_c, 0, 46, 49
1, 8709, Control_c, 0, 64, 127
1, 8753, Note_on_c, 0, 58, 41
1, 8763, Note_on_c, 0, 51, 0
1, 8777, Note_on_c, 0, 55, 0
1, 8803, Note_on_c, 0, 58, 0
1, 8867, Note_on_c, 0, 55, 46
1, 8871, Note_on_c, 0, 51, 33
1, 8880, Tempo, 345006
1, 8989, Note_on_c, 0, 58, 47
1, 8995, Note_on_c, 0, 51, 0
1, 9015, Note_on_c, 0, 55, 0
1, 9113, Note_on_c, 0, 51, 31
1, 9114, Note_on_c, 0, 58, 0
1, 9115, Note_on_c, 0, 55, 36
1, 9120, Tempo, 355009
1, 9232, Note_on_c, 0, 58, 49
1, 9240, Note_on_c, 0, 51, 0
1, 9278, Note_on_c, 0, 55, 0
1, 9349, Control_c, 0, 64, 0
1, 9355, Note_on_c, 0, 58, 0
1, 9359, Note_on_c, 0, 34, 36
1, 9360, Tempo, 365008
1, 9363, Note_on_c, 0, 53, 39
1, 9364, Note_on_c, 0, 56, 32
1, 9367, Note_on_c, 0, 46, 0
1, 9368, Note_on_c, 0, 39, 0
1, 9418, Control_c, 0, 64, 127
1, 9468, Note_on_c, 0, 53, 0
1, 9479, Note_on_c, 0, 58, 45
1, 9505, Note_on_c, 0, 56, 0
1, 9513, Note_on_c, 0, 34, 0
1, 9546, Control_c, 0, 64, 0
1, 9591, Note_on_c, 0, 58, 0
1, 9591, Note_on_c, 0, 51, 44
1, 9592, Note_on_c, 0, 55, 45
1, 9600, Tempo, 365008
1, 9606, Note_on_c, 0, 27, 53
1, 9608, Note_on_c, 0, 39, 44
1, 9610, Control_c, 0, 64, 127
1, 9715, Note_on_c, 0, 58, 49
1, 9730, Note_on_c, 0, 55, 0
1, 9735, Note_on_c, 0, 51, 0
1, 9758, Note_on_c, 0, 58, 0
1, 9830, Note_on_c, 0, 51, 40
1, 9833, Note_on_c, 0, 46, 56
1, 9837, Note_on_c, 0, 55, 36
1, 9840, Tempo, 355009
1, 9949, Note_on_c, 0, 46, 0
1, 9962, Note_on_c, 0, 51, 0
1, 9962, Note_on_c, 0, 63, 49
1, 9968, Note_on_c, 0, 39, 0
1, 9976, Note_on_c, 0, 55, 0
1, 10080, Tempo, 359993
1, 10080, Note_on_c, 0, 51, 55
1, 10080, Note_on_c, 0, 39, 49
1, 10084, Note_on_c, 0, 63, 0
1, 10084, Note_on_c, 0, 56, 49
1, 10087, Note_on_c, 0, 53, 46
1, 10199, Note_on_c, 0, 53, 0
1, 10200, Note_on_c, 0, 63, 53
1, 10206, Note_on_c, 0, 56, 0
1, 10313, Note_on_c, 0, 58, 56
1, 10318, Note_on_c, 0, 55, 49
1, 10320, Tempo, 359993
1, 10339, Note_on_c, 0, 63, 0
1, 10434, Note_on_c, 0, 55, 0
1, 10437, Note_on_c, 0, 63, 49
1, 10464, Note_on_c, 0, 58, 0
1, 10554, Note_on_c, 0, 56, 57
1, 10559, Note_on_c, 0, 60, 61
1, 10560, Tempo, 345006
1, 10565, Note_on_c, 0, 63, 0
1, 10685, Note_on_c, 0, 63, 41
1, 10687, Note_on_c, 0, 60, 0
1, 10697, Note_on_c, 0, 56, 0
1, 10718, Note_on_c, 0, 51, 0
1, 10736, Note_on_c, 0, 63, 0
1, 10795, Note_on_c, 0, 58, 45
1, 10800, Tempo, 380011
1, 10801, Note_on_c, 0, 51, 49
1, 10804, Note_on_c, 0, 62, 55
1, 10884, Note_on_c, 0, 51, 0
1, 10913, Note_on_c, 0, 55, 61
1, 10919, Note_on_c, 0, 70, 65
1, 10949, Note_on_c, 0, 62, 0
1, 10953, Note_on_c, 0, 58, 0
1, 10994, Note_on_c, 0, 55, 0
1, 11037, Note_on_c, 0, 58, 65
1, 11038, Note_on_c, 0, 63, 65
1, 11040, Tempo, 385010
1, 11041, Note_on_c, 0, 46, 61
1, 11042, Note_on_c, 0, 60, 57
1, 11058, Note_on_c, 0, 70, 0
1, 11160, Note_on_c, 0, 70, 64
1, 11168, Note_on_c, 0, 63, 0
1, 11193, Note_on_c, 0, 60, 0
1, 11280, Tempo, 349997
1, 11280, Note_on_c, 0, 62, 65
1, 11280, Note_on_c, 0, 65, 73
1, 11283, Note_on_c, 0, 70, 0
1, 11304, Note_on_c, 0, 66, 1
1, 11312, Note_on_c, 0, 66, 0
1, 11396, Note_on_c, 0, 70, 65
1, 11398, Note_on_c, 0, 62, 0
1, 11405, Note_on_c, 0, 65, 0
1, 11420, Note_on_c, 0, 27, 0
1, 11420, Note_on_c, 0, 39, 0
1, 11460, Control_c, 0, 64, 0
1, 11516, Note_on_c, 0, 39, 65
1, 11517, Note_on_c, 0, 27, 57
1, 11518, Note_on_c, 0, 63, 65
1, 11520, Tempo, 349997
1, 11521, Note_on_c, 0, 67, 75
1, 11527, Note_on_c, 0, 70, 0
1, 11541, Control_c, 0, 64, 127
1, 11548, Note_on_c, 0, 58, 0
1, 11553, Note_on_c, 0, 46, 0
1, 11643, Note_on_c, 0, 70, 57
1, 11661, Note_on_c, 0, 67, 0
1, 11667, Note_on_c, 0, 63, 0
1, 11682, Note_on_c, 0, 70, 0
1, 11753, Note_on_c, 0, 58, 73
1, 11756, Note_on_c, 0, 46, 73
1, 11760, Tempo, 345006
1, 11766, Note_on_c, 0, 63, 76
1, 11767, Note_on_c, 0, 67, 65
1, 11814, Note_on_c, 0, 46, 0
1, 11815, Note_on_c, 0, 58, 0
1, 11878, Note_on_c, 0, 75, 79
1, 11879, Note_on_c, 0, 63, 0
1, 11882, Note_on_c, 0, 67, 0
1, 11994, Note_on_c, 0, 68, 77
1, 11996, Note_on_c, 0, 63, 89
1, 11997, Note_on_c, 0, 65, 73
1, 11999, Note_on_c, 0, 51, 69
1, 12000, Tempo, 375000
1, 12010, Note_on_c, 0, 75, 0
1, 12115, Note_on_c, 0, 75, 77
1, 12120, Note_on_c, 0, 68, 0
1, 12124, Note_on_c, 0, 65, 0
1, 12230, Note_on_c, 0, 70, 75
1, 12233, Note_on_c, 0, 67, 75
1, 12240, Tempo, 359993
1, 12241, Note_on_c, 0, 75, 0
1, 12352, Note_on_c, 0, 75, 77
1, 12353, Note_on_c, 0, 67, 0
1, 12368, Note_on_c, 0, 70, 0
1, 12465, Note_on_c, 0, 68, 73
1, 12470, Note_on_c, 0, 72, 77
1, 12480, Tempo, 359993
1, 12480, Note_on_c, 0, 75, 0
1, 12587, Note_on_c, 0, 75, 73
1, 12600, Note_on_c, 0, 72, 0
1, 12608, Note_on_c, 0, 68, 0
1, 12620, Note_on_c, 0, 51, 0
1, 12622, Note_on_c, 0, 75, 0
1, 12652, Note_on_c, 0, 63, 0
1, 12700, Note_on_c, 0, 63, 65
1, 12706, Note_on_c, 0, 70, 77
1, 12707, Note_on_c, 0, 74, 89
1, 12720, Tempo, 345006
1, 12733, Note_on_c, 0, 75, 1
1, 12791, Note_on_c, 0, 63, 0
1, 12800, Note_on_c, 0, 75, 0
1, 12817, Note_on_c, 0, 67, 76
1, 12828, Note_on_c, 0, 82, 89
1, 12837, Note_on_c, 0, 74, 0
1, 12842, Note_on_c, 0, 70, 0
1, 12929, Note_on_c, 0, 67, 0
1, 12943, Note_on_c, 0, 75, 89
1, 12945, Note_on_c, 0, 72, 80
1, 12947, Note_on_c, 0, 70, 95
1, 12948, Note_on_c, 0, 58, 89
1, 12958, Note_on_c, 0, 82, 0
1, 12960, Tempo, 349997
1, 13062, Note_on_c, 0, 82, 89
1, 13085, Note_on_c, 0, 75, 0
1, 13087, Note_on_c, 0, 72, 0
1, 13184, Note_on_c, 0, 77, 77
1, 13185, Note_on_c, 0, 82, 0
1, 13187, Note_on_c, 0, 74, 89
1, 13192, Note_on_c, 0, 78, 46
1, 13200, Tempo, 359993
1, 13280, Note_on_c, 0, 78, 0
1, 13298, Note_on_c, 0, 74, 0
1, 13299, Note_on_c, 0, 82, 77
1, 13316, Note_on_c, 0, 77, 0
1, 13417, Note_on_c, 0, 75, 77
1, 13421, Note_on_c, 0, 79, 89
1, 13431, Note_on_c, 0, 82, 0
1, 13440, Tempo, 345006
1, 13547, Note_on_c, 0, 82, 89
1, 13559, Note_on_c, 0, 79, 0
1, 13565, Note_on_c, 0, 75, 0
1, 13605, Note_on_c, 0, 82, 0
1, 13656, Note_on_c, 0, 70, 65
1, 13658, Note_on_c, 0, 77, 75
1, 13662, Note_on_c, 0, 74, 79
1, 13680, Tempo, 329997
1, 13781, Note_on_c, 0, 84, 89
1, 13784, Note_on_c, 0, 78, 79
1, 13785, Note_on_c, 0, 74, 0
1, 13788, Note_on_c, 0, 70, 0
1, 13814, Note_on_c, 0, 77, 0
1, 13874, Note_on_c, 0, 78, 0
1, 13887, Note_on_c, 0, 84, 0
1, 13900, Note_on_c, 0, 75, 95
1, 13901, Note_on_c, 0, 79, 89
1, 13920, Tempo, 329997
1, 14016, Note_on_c, 0, 79, 0
1, 14022, Note_on_c, 0, 80, 89
1, 14023, Note_on_c, 0, 82, 75
1, 14034, Note_on_c, 0, 75, 0
1, 14107, Note_on_c, 0, 80, 0
1, 14107, Note_on_c, 0, 82, 0
1, 14142, Note_on_c, 0, 70, 80
1, 14143, Note_on_c, 0, 77, 95
1, 14144, Note_on_c, 0, 74, 89
1, 14160, Tempo, 329997
1, 14253, Note_on_c, 0, 70, 0
1, 14267, Note_on_c, 0, 84, 89
1, 14269, Note_on_c, 0, 74, 0
1, 14270, Note_on_c, 0, 77, 0
1, 14271, Note_on_c, 0, 78, 89
1, 14375, Note_on_c, 0, 78, 0
1, 14390, Note_on_c, 0, 75, 89
1, 14393, Note_on_c, 0, 84, 0
1, 14393, Note_on_c, 0, 79, 89
1, 14400, Tempo, 335008
1, 14508, Note_on_c, 0, 79, 0
1, 14509, Note_on_c, 0, 80, 97
1, 14511, Note_on_c, 0, 82, 89
1, 14516, Note_on_c, 0, 75, 0
1, 14601, Note_on_c, 0, 82, 0
1, 14605, Note_on_c, 0, 80, 0
1, 14628, Note_on_c, 0, 77, 79
1, 14628, Note_on_c, 0, 70, 97
1, 14630, Note_on_c, 0, 74, 89
1, 14640, Tempo, 324992
1, 14733, Note_on_c, 0, 70, 0
1, 14747, Note_on_c, 0, 84, 89
1, 14749, Note_on_c, 0, 78, 95
1, 14755, Note_on_c, 0, 77, 0
1, 14756, Note_on_c, 0, 74, 0
1, 14859, Note_on_c, 0, 78, 0
1, 14863, Note_on_c, 0, 75, 95
1, 14865, Note_on_c, 0, 79, 89
1, 14872, Note_on_c, 0, 84, 0
1, 14880, Tempo, 324992
1, 14975, Note_on_c, 0, 79, 0
1, 14979, Note_on_c, 0, 80, 95
1, 14981, Note_on_c, 0, 82, 80
1, 15013, Note_on_c, 0, 75, 0
1, 15083, Note_on_c, 0, 82, 0
1, 15084, Note_on_c, 0, 80, 0
1, 15092, Note_on_c, 0, 77, 79
1, 15092, Note_on_c, 0, 70, 79
1, 15093, Note_on_c, 0, 74, 77
1, 15120, Tempo, 324992
1, 15210, Note_on_c, 0, 84, 89
1, 15211, Note_on_c, 0, 78, 80
1, 15219, Note_on_c, 0, 74, 0
1, 15221, Note_on_c, 0, 70, 0
1, 15229, Note_on_c, 0, 77, 0
1, 15280, Note_on_c, 0, 84, 0
1, 15287, Note_on_c, 0, 78, 0
1, 15340, Note_on_c, 0, 39, 0
1, 15340, Note_on_c, 0, 58, 0
1, 15342, Note_on_c, 0, 70, 0
1, 15344, Note_on_c, 0, 27, 0
1, 15350, Note_on_c, 0, 79, 89
1, 15354, Note_on_c, 0, 75, 89
1, 15360, Tempo, 345006
1, 15465, Note_on_c, 0, 75, 0
1, 15486, Note_on_c, 0, 79, 0
1, 15599, Note_on_c, 0, 70, 95
1, 15599, Note_on_c, 0, 75, 89
1, 15600, Tempo, 389990
1, 15600, Note_on_c, 0, 82, 89
1, 15600, Note_on_c, 0, 79, 97
1, 15600, Note_on_c, 0, 58, 107
1, 15601, Note_on_c, 0, 67, 107
1, 15705, Note_on_c, 0, 58, 0
1, 15706, Note_on_c, 0, 75, 0
1, 15709, Note_on_c, 0, 70, 0
1, 15713, Note_on_c, 0, 79, 0
1, 15714, Note_on_c, 0, 82, 0
1, 15715, Note_on_c, 0, 67, 0
1, 15832, Note_on_c, 0, 82, 89
1, 15832, Note_on_c, 0, 70, 95
1, 15833, Note_on_c, 0, 75, 89
1, 15833, Note_on_c, 0, 79, 89
1, 15836, Note_on_c, 0, 67, 80
1, 15840, Tempo, 414995
1, 15840, Note_on_c, 0, 63, 108
1, 15947, Note_on_c, 0, 75, 0
1, 15961, Note_on_c, 0, 82, 0
1, 15964, Note_on_c, 0, 79, 0
1, 15971, Note_on_c, 0, 70, 0
1, 15977, Note_on_c, 0, 67, 0
1, 15981, Note_on_c, 0, 63, 0
1, 16071, Note_on_c, 0, 82, 95
1, 16072, Note_on_c, 0, 70, 105
1, 16072, Note_on_c, 0, 75, 89
1, 16073, Note_on_c, 0, 79, 89
1, 16076, Note_on_c, 0, 67, 109
1, 16080, Tempo, 450011
1, 16186, Note_on_c, 0, 75, 0
1, 16188, Note_on_c, 0, 82, 0
1, 16191, Note_on_c, 0, 70, 0
1, 16194, Note_on_c, 0, 79, 0
1, 16198, Note_on_c, 0, 67, 0
1, 16311, Note_on_c, 0, 82, 89
1, 16314, Note_on_c, 0, 75, 89
1, 16314, Note_on_c, 0, 79, 95
1, 16317, Note_on_c, 0, 70, 110
1, 16320, Tempo, 440012
1, 16560, Tempo, 365008
1, 16605, Note_on_c, 0, 75, 0
1, 16608, Note_on_c, 0, 70, 0
1, 16609, Note_on_c, 0, 79, 0
1, 16614, Note_on_c, 0, 82, 0
1, 16795, Note_on_c, 0, 82, 95
1, 16795, Note_on_c, 0, 79, 110
1, 16800, Tempo, 469998
1, 16802, Note_on_c, 0, 75, 111
1, 17040, Tempo, 505008
1, 17071, Note_on_c, 0, 79, 0
1, 17072, Note_on_c, 0, 82, 0
1, 17078, Note_on_c, 0, 75, 0
1, 17280, Tempo, 524980
1, 17285, Note_on_c, 0, 82, 105
1, 17285, Note_on_c, 0, 79, 112
1, 17520, Tempo, 440012
1, 17760, Tempo, 394997
1, 18000, Tempo, 389990
1, 18240, Tempo, 380011
1, 18254, Note_on_c, 0, 79, 0
1, 18258, Note_on_c, 0, 82, 0
1, 18480, Tempo, 370005
1, 18720, Tempo, 440012
1, 18960, Tempo, 495009
1, 19167, Control_c, 0, 64, 0
1, 19200, Tempo, 430015
1, 19200, Note_on_c, 0, 82, 89
1, 19200, Note_on_c, 0, 79, 89
1, 19204, Note_on_c, 0, 70, 105
1, 19206, Note_on_c, 0, 67, 89
1, 19278, Control_c, 0, 64, 127
1, 19440, Tempo, 385010
1, 19680, Tempo, 375000
1, 19920, Tempo, 404995
1, 20060, Control_c, 0, 64, 0
1, 20076, Note_on_c, 0, 70, 0
1, 20078, Note_on_c, 0, 79, 0
1, 20081, Note_on_c, 0, 67, 0
1, 20083, Note_on_c, 0, 82, 0
1, 20136, Control_c, 0, 64, 127
1, 20160, Tempo, 400000
1, 20165, Note_on_c, 0, 82, 95
1, 20166, Note_on_c, 0, 79, 107
1, 20171, Note_on_c, 0, 70, 95
1, 20172, Note_on_c, 0, 67, 89
1, 20400, Tempo, 404995
1, 20640, Tempo, 414995
1, 20878, Note_on_c, 0, 75, 73
1, 20880, Tempo, 400000
1, 20880, Note_on_c, 0, 63, 80
1, 20898, Note_on_c, 0, 82, 0
1, 20900, Note_on_c, 0, 70, 0
1, 20908, Note_on_c, 0, 67, 0
1, 20911, Note_on_c, 0, 79, 0
1, 20983, Note_on_c, 0, 75, 0
1, 20989, Note_on_c, 0, 63, 0
1, 21007, Control_c, 0, 64, 0
1, 21112, Control_c, 0, 64, 127
1, 21120, Tempo, 394997
1, 21121, Note_on_c, 0, 82, 80
1, 21123, Note_on_c, 0, 79, 89
1, 21130, Note_on_c, 0, 67, 95
1, 21130, Note_on_c, 0, 70, 95
1, 21360, Tempo, 385010
1, 21600, Tempo, 365008
1, 21840, Tempo, 359993
1, 21841, Note_on_c, 0, 62, 77
1, 21842, Note_on_c, 0, 74, 89
1, 21861, Note_on_c, 0, 82, 0
1, 21866, Note_on_c, 0, 70, 0
1, 21867, Note_on_c, 0, 67, 0
1, 21870, Note_on_c, 0, 79, 0
1, 21935, Note_on_c, 0, 74, 0
1, 21938, Note_on_c, 0, 62, 0
1, 21962, Control_c, 0, 64, 0
1, 22056, Control_c, 0, 64, 127
1, 22078, Note_on_c, 0, 82, 89
1, 22080, Tempo, 404995
1, 22081, Note_on_c, 0, 79, 89
1, 22088, Note_on_c, 0, 67, 89
1, 22089, Note_on_c, 0, 70, 75
1, 22320, Tempo, 365008
1, 22499, Note_on_c, 0, 67, 0
1, 22513, Note_on_c, 0, 82, 0
1, 22521, Note_on_c, 0, 79, 0
1, 22526, Note_on_c, 0, 70, 0
1, 22560, Tempo, 355009
1, 22566, Note_on_c, 0, 58, 79
1, 22573, Note_on_c, 0, 70, 89
1, 22673, Note_on_c, 0, 74, 89
1, 22675, Note_on_c, 0, 62, 69
1, 22691, Note_on_c, 0, 58, 0
1, 22703, Note_on_c, 0, 70, 0
1, 22784, Note_on_c, 0, 77, 89
1, 22789, Note_on_c, 0, 65, 89
1, 22800, Tempo, 370005
1, 22844, Note_on_c, 0, 62, 0
1, 22846, Note_on_c, 0, 74, 0
1, 22879, Note_on_c, 0, 65, 0
1, 22887, Note_on_c, 0, 77, 0
1, 22909, Control_c, 0, 64, 0
1, 23013, Control_c, 0, 64, 127
1, 23017, Note_on_c, 0, 79, 80
1, 23017, Note_on_c, 0, 82, 95
1, 23021, Note_on_c, 0, 67, 89
1, 23022, Note_on_c, 0, 70, 89
1, 23040, Tempo, 380011
1, 23222, Note_on_c, 0, 67, 0
1, 23235, Note_on_c, 0, 82, 0
1, 23242, Note_on_c, 0, 70, 0
1, 23243, Note_on_c, 0, 79, 0
1, 23280, Tempo, 355009
1, 23287, Note_on_c, 0, 55, 76
1, 23287, Note_on_c, 0, 67, 89
1, 23375, Note_on_c, 0, 70, 89
1, 23376, Note_on_c, 0, 58, 69
1, 23388, Note_on_c, 0, 55, 0
1, 23399, Note_on_c, 0, 67, 0
1, 23484, Note_on_c, 0, 74, 80
1, 23492, Note_on_c, 0, 62, 89
1, 23512, Note_on_c, 0, 58, 0
1, 23513, Note_on_c, 0, 70, 0
1, 23520, Tempo, 370005
1, 23569, Note_on_c, 0, 62, 0
1, 23620, Note_on_c, 0, 74, 0
1, 23710, Note_on_c, 0, 75, 89
1, 23717, Note_on_c, 0, 63, 105
1, 23728, Control_c, 0, 64, 0
1, 23760, Tempo, 345006
1, 23790, Control_c, 0, 64, 127
1, 23794, Note_on_c, 0, 75, 0
1, 23795, Note_on_c, 0, 63, 0
1, 23967, Note_on_c, 0, 82, 95
1, 23968, Note_on_c, 0, 79, 89
1, 23970, Control_c, 0, 64, 0
1, 23973, Note_on_c, 0, 70, 95
1, 23974, Note_on_c, 0, 67, 95
1, 24000, Tempo, 375000
1, 24118, Control_c, 0, 64, 127
1, 24121, Note_on_c, 0, 70, 0
1, 24123, Note_on_c, 0, 79, 0
1, 24124, Note_on_c, 0, 67, 0
1, 24128, Note_on_c, 0, 82, 0
1, 24209, Note_on_c, 0, 51, 79
1, 24212, Note_on_c, 0, 63, 89
1, 24240, Tempo, 359993
1, 24316, Note_on_c, 0, 67, 76
1, 24322, Note_on_c, 0, 55, 73
1, 24326, Note_on_c, 0, 51, 0
1, 24345, Note_on_c, 0, 63, 0
1, 24426, Note_on_c, 0, 58, 89
1, 24435, Note_on_c, 0, 70, 89
1, 24453, Note_on_c, 0, 55, 0
1, 24465, Note_on_c, 0, 67, 0
1, 24469, Note_on_c, 0, 58, 0
1, 24480, Tempo, 375000
1, 24551, Note_on_c, 0, 70, 0
1, 24584, Control_c, 0, 64, 0
1, 24660, Note_on_c, 0, 31, 95
1, 24664, Note_on_c, 0, 74, 110
1, 24665, Note_on_c, 0, 62, 97
1, 24665, Note_on_c, 0, 43, 110
1, 24670, Control_c, 0, 64, 127
1, 24720, Tempo, 469998
1, 24727, Note_on_c, 0, 31, 0
1, 24744, Note_on_c, 0, 43, 0
1, 24781, Note_on_c, 0, 62, 0
1, 24792, Note_on_c, 0, 74, 0
1, 24922, Note_on_c, 0, 74, 65
1, 24924, Note_on_c, 0, 79, 75
1, 24925, Note_on_c, 0, 71, 75
1, 24927, Note_on_c, 0, 83, 107
1, 24931, Note_on_c, 0, 62, 89
1, 24931, Note_on_c, 0, 50, 97
1, 24932, Note_on_c, 0, 59, 97
1, 24933, Note_on_c, 0, 55, 79
1, 24960, Time_signature, 3, 1, 48, 8
1, 24960, Tempo, 419992
1, 24961, Note_on_c, 0, 54, 1
1, 24971, Note_on_c, 0, 72, 1
1, 24973, Note_on_c, 0, 72, 0
1, 25112, Note_on_c, 0, 54, 0
1, 25200, Tempo, 359993
1, 25436, Note_on_c, 0, 74, 0
1, 25438, Note_on_c, 0, 71, 0
1, 25439, Note_on_c, 0, 59, 0
1, 25440, Tempo, 380011
1, 25440, Note_on_c, 0, 62, 0
1, 25441, Note_on_c, 0, 83, 0
1, 25442, Note_on_c, 0, 50, 0
1, 25443, Note_on_c, 0, 55, 0
1, 25443, Note_on_c, 0, 79, 0
1, 25443, Note_on_c, 0, 50, 105
1, 25443, Note_on_c, 0, 38, 77
1, 25680, Tempo, 410004
1, 25876, Note_on_c, 0, 50, 0
1, 25885, Note_on_c, 0, 38, 0
1, 25903, Control_c, 0, 64, 0
1, 25914, Note_on_c, 0, 52, 95
1, 25918, Note_on_c, 0, 40, 89
1, 25920, Tempo, 385010
1, 25976, Control_c, 0, 64, 127
1, 26144, Note_on_c, 0, 67, 49
1, 26145, Note_on_c, 0, 59, 44
1, 26160, Tempo, 404995
1, 26257, Note_on_c, 0, 67, 0
1, 26267, Note_on_c, 0, 59, 0
1, 26346, Control_c, 0, 64, 0
1, 26391, Note_on_c, 0, 50, 61
1, 26394, Note_on_c, 0, 38, 43
1, 26395, Note_on_c, 0, 67, 40
1, 26395, Note_on_c, 0, 59, 42
1, 26400, Tempo, 359993
1, 26410, Control_c, 0, 64, 127
1, 26415, Note_on_c, 0, 52, 0
1, 26421, Note_on_c, 0, 40, 0
1, 26498, Note_on_c, 0, 59, 0
1, 26507, Note_on_c, 0, 67, 0
1, 26534, Control_c, 0, 64, 0
1, 26539, Note_on_c, 0, 38, 0
1, 26545, Note_on_c, 0, 50, 0
1, 26600, Control_c, 0, 64, 127
1, 26633, Note_on_c, 0, 36, 36
1, 26634, Note_on_c, 0, 48, 42
1, 26638, Note_on_c, 0, 64, 46
1, 26640, Tempo, 349997
1, 26641, Note_on_c, 0, 67, 36
1, 26643, Note_on_c, 0, 69, 41
1, 26735, Note_on_c, 0, 67, 0
1, 26737, Note_on_c, 0, 64, 0
1, 26742, Note_on_c, 0, 69, 0
1, 26778, Note_on_c, 0, 36, 0
1, 26778, Control_c, 0, 64, 0
1, 26781, Note_on_c, 0, 48, 0
1, 26877, Note_on_c, 0, 71, 54
1, 26880, Tempo, 385010
1, 26880, Note_on_c, 0, 62, 41
1, 26880, Note_on_c, 0, 35, 43
1, 26882, Note_on_c, 0, 47, 40
1, 26882, Note_on_c, 0, 67, 49
1, 26883, Control_c, 0, 64, 127
1, 26969, Note_on_c, 0, 71, 0
1, 26972, Note_on_c, 0, 67, 0
1, 26979, Note_on_c, 0, 62, 0
1, 27120, Tempo, 394997
1, 27125, Note_on_c, 0, 64, 53
1, 27126, Note_on_c, 0, 62, 46
1, 27132, Note_on_c, 0, 55, 43
1, 27162, Note_on_c, 0, 47, 0
1, 27166, Note_on_c, 0, 35, 0
1, 27223, Note_on_c, 0, 55, 0
1, 27225, Note_on_c, 0, 64, 0
1, 27226, Note_on_c, 0, 62, 0
1, 27255, Control_c, 0, 64, 0
1, 27360, Tempo, 365008
1, 27363, Control_c, 0, 64, 127
1, 27364, Note_on_c, 0, 64, 49
1, 27367, Note_on_c, 0, 62, 41
1, 27367, Note_on_c, 0, 55, 26
1, 27377, Note_on_c, 0, 45, 49
1, 27378, Note_on_c, 0, 33, 42
1, 27445, Note_on_c, 0, 55, 0
1, 27463, Note_on_c, 0, 62, 0
1, 27471, Note_on_c, 0, 64, 0
1, 27596, Note_on_c, 0, 66, 56
1, 27600, Tempo, 385010
1, 27600, Note_on_c, 0, 60, 45
1, 27604, Control_c, 0, 64, 0
1, 27606, Note_on_c, 0, 62, 42
1, 27668, Control_c, 0, 64, 127
1, 27675, Note_on_c, 0, 33, 0
1, 27684, Note_on_c, 0, 45, 0
1, 27689, Note_on_c, 0, 66, 0
1, 27690, Note_on_c, 0, 62, 0
1, 27696, Note_on_c, 0, 60, 0
1, 27757, Control_c, 0, 64, 0
1, 27831, Note_on_c, 0, 67, 53
1, 27839, Note_on_c, 0, 59, 42
1, 27840, Time_signature, 2, 1, 48, 8
1, 27840, Tempo, 370005
1, 27840, Note_on_c, 0, 62, 46
1, 27847, Control_c, 0, 64, 127
1, 27850, Note_on_c, 0, 43, 57
1, 27858, Note_on_c, 0, 31, 55
1, 27928, Note_on_c, 0, 67, 0
1, 27935, Note_on_c, 0, 59, 0
1, 27935, Note_on_c, 0, 62, 0
1, 28080, Tempo, 380011
1, 28087, Note_on_c, 0, 59, 36
1, 28087, Note_on_c, 0, 55, 45
1, 28195, Note_on_c, 0, 62, 49
1, 28197, Note_on_c, 0, 55, 0
1, 28213, Note_on_c, 0, 59, 0
1, 28307, Note_on_c, 0, 59, 53
1, 28307, Note_on_c, 0, 55, 43
1, 28320, Tempo, 380011
1, 28325, Note_on_c, 0, 62, 0
1, 28430, Note_on_c, 0, 62, 53
1, 28436, Note_on_c, 0, 55, 0
1, 28461, Note_on_c, 0, 59, 0
1, 28464, Note_on_c, 0, 31, 0
1, 28526, Control_c, 0, 64, 0
1, 28542, Note_on_c, 0, 60, 39
1, 28543, Note_on_c, 0, 57, 40
1, 28544, Note_on_c, 0, 62, 0
1, 28545, Note_on_c, 0, 38, 41
1, 28560, Tempo, 380011
1, 28587, Control_c, 0, 64, 127
1, 28674, Note_on_c, 0, 62, 43
1, 28681, Note_on_c, 0, 60, 0
1, 28683, Note_on_c, 0, 57, 0
1, 28700, Note_on_c, 0, 38, 0
1, 28711, Note_on_c, 0, 43, 0
1, 28722, Control_c, 0, 64, 0
1, 28790, Note_on_c, 0, 59, 44
1, 28794, Note_on_c, 0, 55, 42
1, 28796, Note_on_c, 0, 50, 73
1, 28800, Tempo, 375000
1, 28800, Note_on_c, 0, 62, 0
1, 28805, Note_on_c, 0, 43, 53
1, 28806, Control_c, 0, 64, 127
1, 28903, Note_on_c, 0, 59, 0
1, 28912, Note_on_c, 0, 55, 0
1, 28928, Note_on_c, 0, 62, 25
1, 28978, Note_on_c, 0, 62, 0
1, 29036, Note_on_c, 0, 59, 40
1, 29040, Tempo, 329997
1, 29041, Note_on_c, 0, 55, 24
1, 29155, Note_on_c, 0, 55, 0
1, 29156, Note_on_c, 0, 62, 33
1, 29164, Note_on_c, 0, 59, 0
1, 29264, Note_on_c, 0, 59, 42
1, 29264, Note_on_c, 0, 38, 56
1, 29266, Note_on_c, 0, 55, 42
1, 29276, Note_on_c, 0, 43, 0
1, 29280, Tempo, 349997
1, 29302, Note_on_c, 0, 62, 0
1, 29388, Note_on_c, 0, 55, 0
1, 29392, Note_on_c, 0, 62, 42
1, 29393, Note_on_c, 0, 38, 0
1, 29405, Note_on_c, 0, 59, 0
1, 29501, Note_on_c, 0, 60, 44
1, 29504, Note_on_c, 0, 42, 65
1, 29510, Note_on_c, 0, 57, 35
1, 29511, Note_on_c, 0, 62, 0
1, 29515, Control_c, 0, 64, 0
1, 29520, Tempo, 380011
1, 29599, Note_on_c, 0, 42, 0
1, 29602, Control_c, 0, 64, 127
1, 29631, Note_on_c, 0, 62, 41
1, 29637, Note_on_c, 0, 60, 0
1, 29643, Note_on_c, 0, 57, 0
1, 29666, Note_on_c, 0, 50, 0
1, 29745, Control_c, 0, 64, 0
1, 29745, Note_on_c, 0, 59, 43
1, 29749, Note_on_c, 0, 55, 46
1, 29754, Note_on_c, 0, 62, 0
1, 29754, Note_on_c, 0, 43, 62
1, 29756, Note_on_c, 0, 50, 69
1, 29760, Tempo, 385010
1, 29870, Note_on_c, 0, 62, 44
1, 29872, Control_c, 0, 64, 127
1, 29879, Note_on_c, 0, 55, 0
1, 29893, Note_on_c, 0, 59, 0
1, 29924, Note_on_c, 0, 62, 0
1, 29993, Note_on_c, 0, 59, 39
1, 29999, Note_on_c, 0, 55, 30
1, 30000, Tempo, 349997
1, 30109, Note_on_c, 0, 62, 49
1, 30118, Note_on_c, 0, 55, 0
1, 30131, Note_on_c, 0, 59, 0
1, 30235, Note_on_c, 0, 59, 41
1, 30236, Note_on_c, 0, 55, 37
1, 30240, Tempo, 349997
1, 30278, Note_on_c, 0, 62, 0
1, 30354, Note_on_c, 0, 62, 44
1, 30361, Note_on_c, 0, 55, 0
1, 30385, Note_on_c, 0, 59, 0
1, 30456, Control_c, 0, 64, 0
1, 30469, Note_on_c, 0, 60, 43
1, 30473, Note_on_c, 0, 57, 35
1, 30473, Note_on_c, 0, 38, 49
1, 30480, Tempo, 370005
1, 30481, Note_on_c, 0, 62, 0
1, 30485, Note_on_c, 0, 43, 0
1, 30541, Control_c, 0, 64, 127
1, 30597, Note_on_c, 0, 62, 49
1, 30604, Note_on_c, 0, 38, 0
1, 30605, Note_on_c, 0, 60, 0
1, 30610, Note_on_c, 0, 57, 0
1, 30649, Note_on_c, 0, 50, 0
1, 30705, Control_c, 0, 64, 0
1, 30713, Note_on_c, 0, 59, 44
1, 30715, Note_on_c, 0, 55, 30
1, 30719, Note_on_c, 0, 50, 64
1, 30720, Tempo, 404995
1, 30724, Note_on_c, 0, 62, 0
1, 30728, Note_on_c, 0, 43, 56
1, 30789, Control_c, 0, 64, 127
1, 30833, Note_on_c, 0, 62, 41
1, 30842, Note_on_c, 0, 55, 0
1, 30859, Note_on_c, 0, 59, 0
1, 30877, Note_on_c, 0, 62, 0
1, 30958, Note_on_c, 0, 59, 44
1, 30960, Tempo, 335008
1, 30964, Note_on_c, 0, 55, 30
1, 31074, Note_on_c, 0, 62, 47
1, 31081, Note_on_c, 0, 55, 0
1, 31095, Note_on_c, 0, 59, 0
1, 31166, Control_c, 0, 64, 0
1, 31196, Note_on_c, 0, 59, 55
1, 31198, Note_on_c, 0, 55, 49
1, 31200, Tempo, 355009
1, 31206, Note_on_c, 0, 35, 49
1, 31208, Note_on_c, 0, 62, 0
1, 31224, Note_on_c, 0, 43, 0
1, 31267, Control_c, 0, 64, 127
1, 31308, Note_on_c, 0, 59, 0
1, 31310, Note_on_c, 0, 62, 55
1, 31311, Note_on_c, 0, 35, 0
1, 31312, Note_on_c, 0, 38, 42
1, 31320, Note_on_c, 0, 55, 0
1, 31425, Note_on_c, 0, 42, 61
1, 31430, Note_on_c, 0, 57, 34
1, 31430, Note_on_c, 0, 60, 37
1, 31434, Note_on_c, 0, 62, 0
1, 31440, Tempo, 394997
1, 31446, Control_c, 0, 64, 0
1, 31462, Note_on_c, 0, 38, 0
1, 31514, Control_c, 0, 64, 127
1, 31550, Note_on_c, 0, 62, 47
1, 31551, Note_on_c, 0, 60, 0
1, 31572, Note_on_c, 0, 57, 0
1, 31626, Control_c, 0, 64, 0
1, 31666, Note_on_c, 0, 55, 45
1, 31669, Note_on_c, 0, 31, 65
1, 31670, Note_on_c, 0, 42, 0
1, 31672, Note_on_c, 0, 43, 64
1, 31676, Note_on_c, 0, 50, 0
1, 31676, Note_on_c, 0, 59, 41
1, 31680, Tempo, 380011
1, 31681, Note_on_c, 0, 62, 0
1, 31713, Control_c, 0, 64, 127
1, 31801, Note_on_c, 0, 62, 42
1, 31810, Note_on_c, 0, 59, 0
1, 31817, Note_on_c, 0, 55, 0
1, 31837, Note_on_c, 0, 62, 0
1, 31902, Note_on_c, 0, 50, 73
1, 31919, Note_on_c, 0, 59, 49
1, 31920, Tempo, 324992
1, 31920, Note_on_c, 0, 55, 46
1, 32031, Note_on_c, 0, 50, 0
1, 32038, Note_on_c, 0, 67, 55
1, 32056, Note_on_c, 0, 59, 0
1, 32069, Note_on_c, 0, 55, 0
1, 32074, Note_on_c, 0, 43, 0
1, 32152, Note_on_c, 0, 55, 76
1, 32153, Note_on_c, 0, 43, 73
1, 32156, Note_on_c, 0, 60, 47
1, 32159, Note_on_c, 0, 57, 43
1, 32160, Tempo, 370005
1, 32169, Note_on_c, 0, 67, 0
1, 32277, Note_on_c, 0, 67, 56
1, 32295, Note_on_c, 0, 60, 0
1, 32299, Note_on_c, 0, 57, 0
1, 32395, Note_on_c, 0, 62, 63
1, 32400, Tempo, 375000
1, 32400, Note_on_c, 0, 59, 53
1, 32417, Note_on_c, 0, 67, 0
1, 32522, Note_on_c, 0, 62, 0
1, 32522, Note_on_c, 0, 67, 57
1, 32531, Note_on_c, 0, 59, 0
1, 32633, Note_on_c, 0, 60, 53
1, 32639, Note_on_c, 0, 64, 55
1, 32640, Tempo, 345006
1, 32647, Note_on_c, 0, 67, 0
1, 32768, Note_on_c, 0, 67, 49
1, 32778, Note_on_c, 0, 64, 0
1, 32786, Note_on_c, 0, 60, 0
1, 32819, Note_on_c, 0, 67, 0
1, 32841, Note_on_c, 0, 55, 0
1, 32875, Note_on_c, 0, 55, 69
1, 32879, Note_on_c, 0, 62, 55
1, 32880, Tempo, 389990
1, 32883, Note_on_c, 0, 66, 54
1, 32965, Note_on_c, 0, 55, 0
1, 32985, Note_on_c, 0, 59, 65
1, 33003, Note_on_c, 0, 74, 65
1, 33027, Note_on_c, 0, 62, 0
1, 33042, Note_on_c, 0, 66, 0
1, 33107, Note_on_c, 0, 59, 0
1, 33109, Note_on_c, 0, 67, 65
1, 33112, Note_on_c, 0, 64, 62
1, 33117, Note_on_c, 0, 74, 0
1, 33117, Note_on_c, 0, 62, 80
1, 33119, Note_on_c, 0, 50, 75
1, 33120, Tempo, 359993
1, 33231, Note_on_c, 0, 67, 0
1, 33232, Note_on_c, 0, 74, 76
1, 33252, Note_on_c, 0, 64, 0
1, 33345, Note_on_c, 0, 69, 57
1, 33350, Note_on_c, 0, 66, 64
1, 33351, Note_on_c, 0, 74, 0
1, 33360, Tempo, 335008
1, 33466, Note_on_c, 0, 74, 73
1, 33488, Note_on_c, 0, 66, 0
1, 33495, Note_on_c, 0, 69, 0
1, 33510, Note_on_c, 0, 31, 0
1, 33518, Note_on_c, 0, 43, 0
1, 33546, Control_c, 0, 64, 0
1, 33581, Note_on_c, 0, 71, 73
1, 33582, Note_on_c, 0, 67, 69
1, 33596, Note_on_c, 0, 31, 76
1, 33598, Note_on_c, 0, 43, 79
1, 33600, Tempo, 365008
1, 33602, Note_on_c, 0, 74, 0
1, 33613, Control_c, 0, 64, 127
1, 33710, Note_on_c, 0, 74, 75
1, 33738, Note_on_c, 0, 71, 0
1, 33742, Note_on_c, 0, 50, 0
1, 33743, Note_on_c, 0, 67, 0
1, 33749, Note_on_c, 0, 62, 0
1, 33760, Note_on_c, 0, 74, 0
1, 33832, Note_on_c, 0, 62, 89
1, 33833, Note_on_c, 0, 50, 89
1, 33833, Note_on_c, 0, 67, 73
1, 33835, Note_on_c, 0, 71, 73
1, 33840, Tempo, 340001
1, 33915, Note_on_c, 0, 50, 0
1, 33943, Note_on_c, 0, 62, 0
1, 33957, Note_on_c, 0, 79, 77
1, 33962, Note_on_c, 0, 71, 0
1, 33978, Note_on_c, 0, 67, 0
1, 34070, Note_on_c, 0, 67, 89
1, 34072, Note_on_c, 0, 55, 76
1, 34072, Note_on_c, 0, 72, 77
1, 34074, Note_on_c, 0, 69, 73
1, 34080, Tempo, 365008
1, 34085, Note_on_c, 0, 79, 0
1, 34195, Note_on_c, 0, 79, 79
1, 34202, Note_on_c, 0, 72, 0
1, 34218, Note_on_c, 0, 69, 0
1, 34314, Note_on_c, 0, 74, 73
1, 34316, Note_on_c, 0, 71, 73
1, 34320, Tempo, 359993
1, 34333, Note_on_c, 0, 79, 0
1, 34438, Note_on_c, 0, 79, 89
1, 34453, Note_on_c, 0, 74, 0
1, 34453, Note_on_c, 0, 71, 0
1, 34560, Tempo, 359993
1, 34561, Note_on_c, 0, 76, 73
1, 34561, Note_on_c, 0, 72, 73
1, 34574, Note_on_c, 0, 79, 0
1, 34681, Note_on_c, 0, 79, 79
1, 34684, Note_on_c, 0, 55, 0
1, 34704, Note_on_c, 0, 76, 0
1, 34708, Note_on_c, 0, 72, 0
1, 34766, Note_on_c, 0, 79, 0
1, 34767, Note_on_c, 0, 67, 0
1, 34799, Note_on_c, 0, 67, 69
1, 34800, Tempo, 385010
1, 34809, Note_on_c, 0, 74, 77
1, 34810, Note_on_c, 0, 78, 79
1, 34885, Note_on_c, 0, 67, 0
1, 34907, Note_on_c, 0, 71, 79
1, 34923, Note_on_c, 0, 86, 89
1, 34988, Note_on_c, 0, 74, 0
1, 35003, Note_on_c, 0, 78, 0
1, 35022, Note_on_c, 0, 71, 0
1, 35037, Note_on_c, 0, 79, 89
1, 35038, Note_on_c, 0, 74, 95
1, 35039, Note_on_c, 0, 76, 75
1, 35040, Tempo, 365008
1, 35041, Note_on_c, 0, 62, 89
1, 35060, Note_on_c, 0, 86, 0
1, 35148, Note_on_c, 0, 79, 0
1, 35153, Note_on_c, 0, 86, 89
1, 35187, Note_on_c, 0, 76, 0
1, 35272, Note_on_c, 0, 78, 80
1, 35273, Note_on_c, 0, 81, 80
1, 35280, Tempo, 359993
1, 35283, Note_on_c, 0, 86, 0
1, 35390, Note_on_c, 0, 86, 89
1, 35418, Note_on_c, 0, 81, 0
1, 35419, Note_on_c, 0, 78, 0
1, 35519, Note_on_c, 0, 83, 89
1, 35520, Tempo, 355009
1, 35520, Note_on_c, 0, 79, 80
1, 35536, Note_on_c, 0, 86, 0
1, 35641, Note_on_c, 0, 86, 89
1, 35643, Note_on_c, 0, 79, 0
1, 35655, Note_on_c, 0, 83, 0
1, 35733, Note_on_c, 0, 86, 0
1, 35760, Tempo, 324992
1, 35760, Note_on_c, 0, 81, 75
1, 35762, Note_on_c, 0, 78, 77
1, 35763, Note_on_c, 0, 74, 76
1, 35880, Note_on_c, 0, 74, 0
1, 35883, Note_on_c, 0, 88, 75
1, 35885, Note_on_c, 0, 82, 89
1, 35896, Note_on_c, 0, 81, 0
1, 35896, Note_on_c, 0, 78, 0
1, 35993, Note_on_c, 0, 82, 0
1, 35999, Note_on_c, 0, 83, 79
1, 36000, Tempo, 324992
1, 36002, Note_on_c, 0, 88, 0
1, 36002, Note_on_c, 0, 79, 89
1, 36112, Note_on_c, 0, 83, 0
1, 36120, Note_on_c, 0, 79, 0
1, 36123, Note_on_c, 0, 86, 80
1, 36123, Note_on_c, 0, 84, 80
1, 36211, Note_on_c, 0, 86, 0
1, 36214, Note_on_c, 0, 84, 0
1, 36238, Note_on_c, 0, 74, 89
1, 36238, Note_on_c, 0, 81, 89
1, 36240, Tempo, 355009
1, 36240, Note_on_c, 0, 78, 80
1, 36336, Note_on_c, 0, 74, 0
1, 36350, Note_on_c, 0, 88, 89
1, 36350, Note_on_c, 0, 82, 89
1, 36363, Note_on_c, 0, 81, 0
1, 36367, Note_on_c, 0, 78, 0
1, 36472, Note_on_c, 0, 83, 89
1, 36473, Note_on_c, 0, 79, 89
1, 36476, Note_on_c, 0, 82, 0
1, 36480, Tempo, 359993
1, 36488, Note_on_c, 0, 88, 0
1, 36585, Note_on_c, 0, 83, 0
1, 36594, Note_on_c, 0, 86, 95
1, 36594, Note_on_c, 0, 84, 95
1, 36598, Note_on_c, 0, 79, 0
1, 36696, Note_on_c, 0, 84, 0
1, 36697, Note_on_c, 0, 86, 0
1, 36705, Note_on_c, 0, 81, 95
1, 36707, Note_on_c, 0, 74, 89
1, 36709, Note_on_c, 0, 78, 80
1, 36720, Tempo, 349997
1, 36821, Note_on_c, 0, 74, 0
1, 36828, Note_on_c, 0, 88, 95
1, 36830, Note_on_c, 0, 82, 95
1, 36833, Note_on_c, 0, 81, 0
1, 36835, Note_on_c, 0, 78, 0
1, 36947, Note_on_c, 0, 83, 89
1, 36948, Note_on_c, 0, 79, 95
1, 36960, Tempo, 335008
1, 36963, Note_on_c, 0, 82, 0
1, 36979, Note_on_c, 0, 88, 0
1, 37064, Note_on_c, 0, 86, 95
1, 37065, Note_on_c, 0, 84, 89
1, 37071, Note_on_c, 0, 83, 0
1, 37090, Note_on_c, 0, 79, 0
1, 37177, Note_on_c, 0, 74, 79
1, 37177, Note_on_c, 0, 81, 89
1, 37179, Note_on_c, 0, 78, 76
1, 37200, Tempo, 365008
1, 37214, Note_on_c, 0, 84, 0
1, 37242, Note_on_c, 0, 86, 0
1, 37299, Note_on_c, 0, 82, 89
1, 37299, Note_on_c, 0, 88, 95
1, 37313, Note_on_c, 0, 78, 0
1, 37315, Note_on_c, 0, 74, 0
1, 37320, Note_on_c, 0, 81, 0
1, 37388, Note_on_c, 0, 82, 0
1, 37408, Note_on_c, 0, 88, 0
1, 37425, Note_on_c, 0, 83, 95
1, 37430, Note_on_c, 0, 79, 105
1, 37432, Note_on_c, 0, 43, 0
1, 37433, Note_on_c, 0, 74, 0
1, 37434, Note_on_c, 0, 62, 0
1, 37434, Note_on_c, 0, 31, 0
1, 37440, Tempo, 404995
1, 37568, Note_on_c, 0, 83, 0
1, 37569, Note_on_c, 0, 79, 0
1, 37674, Note_on_c, 0, 86, 105
1, 37675, Note_on_c, 0, 83, 90
1, 37675, Note_on_c, 0, 79, 100
1, 37677, Note_on_c, 0, 74, 110
1, 37678, Note_on_c, 0, 71, 97
1, 37678, Note_on_c, 0, 62, 107
1, 37680, Tempo, 410004
1, 37830, Note_on_c, 0, 71, 0
1, 37839, Note_on_c, 0, 79, 0
1, 37839, Note_on_c, 0, 62, 0
1, 37842, Note_on_c, 0, 74, 0
1, 37845, Note_on_c, 0, 83, 0
1, 37848, Note_on_c, 0, 86, 0
1, 37910, Note_on_c, 0, 86, 84
1, 37912, Note_on_c, 0, 74, 110
1, 37912, Note_on_c, 0, 83, 90
1, 37912, Note_on_c, 0, 79, 105
1, 37915, Note_on_c, 0, 71, 95
1, 37917, Note_on_c, 0, 67, 108
1, 37920, Tempo, 435003
1, 38050, Note_on_c, 0, 83, 0
1, 38052, Note_on_c, 0, 79, 0
1, 38054, Note_on_c, 0, 71, 0
1, 38058, Note_on_c, 0, 86, 0
1, 38060, Note_on_c, 0, 74, 0
1, 38067, Note_on_c, 0, 67, 0
1, 38154, Note_on_c, 0, 86, 90
1, 38155, Note_on_c, 0, 71, 109
1, 38155, Note_on_c, 0, 83, 105
1, 38156, Note_on_c, 0, 79, 90
1, 38157, Note_on_c, 0, 74, 105
1, 38160, Tempo, 480000
1, 38292, Note_on_c, 0, 79, 0
1, 38299, Note_on_c, 0, 83, 0
1, 38301, Note_on_c, 0, 86, 0
1, 38302, Note_on_c, 0, 74, 0
1, 38303, Note_on_c, 0, 71, 0
1, 38395, Note_on_c, 0, 86, 100
1, 38397, Note_on_c, 0, 83, 92
1, 38397, Note_on_c, 0, 79, 105
1, 38399, Note_on_c, 0, 74, 110
1, 38400, Tempo, 450011
1, 38640, Tempo, 454994
1, 38716, Note_on_c, 0, 86, 0
1, 38718, Note_on_c, 0, 74, 0
1, 38720, Note_on_c, 0, 79, 0
1, 38726, Note_on_c, 0, 83, 0
1, 38880, Tempo, 465008
1, 38884, Note_on_c, 0, 86, 107
1, 38887, Note_on_c, 0, 83, 97
1, 38888, Note_on_c, 0, 79, 111
1, 39120, Tempo, 574988
1, 39230, Note_on_c, 0, 79, 0
1, 39235, Note_on_c, 0, 86, 0
1, 39237, Note_on_c, 0, 83, 0
1, 39360, Tempo, 574988
1, 39373, Note_on_c, 0, 86, 110
1, 39374, Note_on_c, 0, 83, 112
1, 39600, Tempo, 524980
1, 39840, Tempo, 474984
1, 40080, Tempo, 469998
1, 40320, Tempo, 495009
1, 40560, Tempo, 505008
1, 40735, Note_on_c, 0, 83, 0
1, 40769, Note_on_c, 0, 86, 0
1, 40776, Control_c, 0, 64, 0
1, 40799, Note_on_c, 0, 83, 89
1, 40800, Tempo, 440012
1, 40800, Note_on_c, 0, 79, 76
1, 40911, Note_on_c, 0, 81, 73
1, 40912, Note_on_c, 0, 84, 89
1, 40936, Note_on_c, 0, 79, 0
1, 40941, Note_on_c, 0, 83, 0
1, 41024, Note_on_c, 0, 82, 79
1, 41033, Note_on_c, 0, 85, 89
1, 41040, Tempo, 385010
1, 41047, Note_on_c, 0, 81, 0
1, 41090, Note_on_c, 0, 84, 0
1, 41138, Note_on_c, 0, 86, 89
1, 41142, Note_on_c, 0, 83, 89
1, 41146, Note_on_c, 0, 85, 0
1, 41152, Note_on_c, 0, 82, 0
1, 41269, Note_on_c, 0, 91, 89
1, 41271, Note_on_c, 0, 87, 105
1, 41271, Note_on_c, 0, 84, 89
1, 41280, Time_signature, 3, 1, 48, 8
1, 41280, Tempo, 419992
1, 41287, Control_c, 0, 64, 127
1, 41295, Note_on_c, 0, 83, 0
1, 41303, Note_on_c, 0, 86, 0
1, 41475, Note_on_c, 0, 91, 0
1, 41479, Note_on_c, 0, 84, 0
1, 41492, Note_on_c, 0, 87, 0
1, 41494, Control_c, 0, 64, 0
1, 41520, Tempo, 414995
1, 41712, Control_c, 0, 64, 127
1, 41757, Note_on_c, 0, 83, 95
1, 41760, Tempo, 414995
1, 41760, Note_on_c, 0, 79, 95
1, 41760, Note_on_c, 0, 74, 77
1, 41760, Note_on_c, 0, 71, 89
1, 41761, Note_on_c, 0, 67, 89
1, 41937, Note_on_c, 0, 71, 0
1, 41940, Note_on_c, 0, 67, 0
1, 41941, Note_on_c, 0, 74, 0
1, 41949, Note_on_c, 0, 79, 0
1, 41961, Note_on_c, 0, 83, 0
1, 42000, Tempo, 410004
1, 42012, Control_c, 0, 64, 0
1, 42207, Control_c, 0, 64, 127
1, 42237, Note_on_c, 0, 84, 77
1, 42238, Note_on_c, 0, 75, 89
1, 42240, Tempo, 400000
1, 42240, Note_on_c, 0, 80, 89
1, 42242, Note_on_c, 0, 65, 89
1, 42244, Note_on_c, 0, 72, 77
1, 42245, Note_on_c, 0, 68, 77
1, 42480, Tempo, 410004
1, 42717, Note_on_c, 0, 75, 0
1, 42720, Tempo, 375000
1, 42721, Note_on_c, 0, 65, 0
1, 42721, Note_on_c, 0, 74, 65
1, 42726, Note_on_c, 0, 62, 69
1, 42816, Note_on_c, 0, 63, 57
1, 42825, Note_on_c, 0, 75, 64
1, 42841, Note_on_c, 0, 74, 0
1, 42885, Note_on_c, 0, 62, 0
1, 42933, Note_on_c, 0, 63, 0
1, 42934, Note_on_c, 0, 65, 61
1, 42939, Note_on_c, 0, 77, 65
1, 42942, Note_on_c, 0, 68, 0
1, 42955, Note_on_c, 0, 75, 0
1, 42960, Tempo, 375000
1, 42969, Control_c, 0, 64, 0
1, 43047, Note_on_c, 0, 78, 57
1, 43053, Note_on_c, 0, 66, 61
1, 43060, Note_on_c, 0, 77, 0
1, 43081, Note_on_c, 0, 65, 0
1, 43102, Note_on_c, 0, 72, 0
1, 43139, Note_on_c, 0, 66, 0
1, 43155, Control_c, 0, 64, 127
1, 43165, Note_on_c, 0, 80, 0
1, 43172, Note_on_c, 0, 78, 0
1, 43177, Note_on_c, 0, 82, 65
1, 43178, Note_on_c, 0, 79, 65
1, 43178, Note_on_c, 0, 74, 65
1, 43186, Note_on_c, 0, 67, 57
1, 43186, Note_on_c, 0, 70, 65
1, 43187, Note_on_c, 0, 84, 0
1, 43200, Tempo, 400000
1, 43334, Control_c, 0, 64, 0
1, 43348, Note_on_c, 0, 79, 0
1, 43353, Note_on_c, 0, 70, 0
1, 43366, Note_on_c, 0, 67, 0
1, 43372, Note_on_c, 0, 82, 0
1, 43384, Note_on_c, 0, 74, 0
1, 43440, Tempo, 380011
1, 43626, Control_c, 0, 64, 127
1, 43665, Note_on_c, 0, 79, 73
1, 43666, Note_on_c, 0, 70, 63
1, 43670, Note_on_c, 0, 75, 57
1, 43671, Note_on_c, 0, 63, 62
1, 43671, Note_on_c, 0, 58, 62
1, 43674, Note_on_c, 0, 67, 49
1, 43680, Tempo, 414995
1, 43815, Note_on_c, 0, 79, 0
1, 43822, Note_on_c, 0, 75, 0
1, 43833, Note_on_c, 0, 67, 0
1, 43842, Note_on_c, 0, 58, 0
1, 43850, Note_on_c, 0, 70, 0
1, 43855, Note_on_c, 0, 63, 0
1, 43855, Control_c, 0, 64, 0
1, 43920, Tempo, 400000
1, 44146, Control_c, 0, 64, 127
1, 44148, Note_on_c, 0, 63, 57
1, 44150, Note_on_c, 0, 75, 57
1, 44151, Note_on_c, 0, 72, 62
1, 44152, Note_on_c, 0, 67, 49
1, 44154, Note_on_c, 0, 60, 53
1, 44160, Time_signature, 2, 1, 48, 8
1, 44160, Tempo, 404995
1, 44400, Tempo, 394997
1, 44463, Note_on_c, 0, 72, 0
1, 44466, Note_on_c, 0, 75, 0
1, 44470, Control_c, 0, 64, 0
1, 44476, Note_on_c, 0, 67, 0
1, 44479, Note_on_c, 0, 60, 0
1, 44487, Note_on_c, 0, 63, 0
1, 44628, Control_c, 0, 64, 127
1, 44637, Note_on_c, 0, 68, 56
1, 44640, Tempo, 394997
1, 44640, Note_on_c, 0, 56, 63
1, 44641, Note_on_c, 0, 65, 56
1, 44643, Note_on_c, 0, 60, 49
1, 44737, Note_on_c, 0, 65, 0
1, 44759, Note_on_c, 0, 60, 0
1, 44763, Note_on_c, 0, 68, 0
1, 44778, Control_c, 0, 64, 0
1, 44779, Note_on_c, 0, 56, 0
1, 44876, Note_on_c, 0, 67, 54
1, 44878, Note_on_c, 0, 70, 57
1, 44880, Tempo, 389990
1, 44880, Note_on_c, 0, 62, 57
1, 44880, Note_on_c, 0, 58, 57
1, 44883, Note_on_c, 0, 55, 57
1, 44888, Control_c, 0, 64, 127
1, 44966, Note_on_c, 0, 67, 0
1, 44971, Note_on_c, 0, 62, 0
1, 44983, Note_on_c, 0, 55, 0
1, 44988, Note_on_c, 0, 70, 0
1, 44991, Note_on_c, 0, 58, 0
1, 44992, Control_c, 0, 64, 0
1, 45120, Tempo, 375000
1, 45126, Note_on_c, 0, 72, 63
1, 45127, Note_on_c, 0, 60, 43
1, 45128, Note_on_c, 0, 63, 64
1, 45128, Note_on_c, 0, 68, 69
1, 45129, Note_on_c, 0, 56, 41
1, 45130, Control_c, 0, 64, 127
1, 45130, Note_on_c, 0, 53, 57
1, 45360, Tempo, 404995
1, 45581, Note_on_c, 0, 53, 0
1, 45582, Note_on_c, 0, 63, 0
1, 45599, Note_on_c, 0, 62, 44
1, 45600, Tempo, 365008
1, 45605, Note_on_c, 0, 50, 42
1, 45706, Note_on_c, 0, 50, 0
1, 45712, Note_on_c, 0, 63, 57
1, 45721, Note_on_c, 0, 51, 46
1, 45750, Note_on_c, 0, 62, 0
1, 45804, Note_on_c, 0, 56, 0
1, 45827, Note_on_c, 0, 51, 0
1, 45829, Note_on_c, 0, 52, 43
1, 45834, Note_on_c, 0, 64, 61
1, 45840, Tempo, 385010
1, 45850, Note_on_c, 0, 63, 0
1, 45866, Control_c, 0, 64, 0
1, 45941, Note_on_c, 0, 52, 0
1, 45942, Note_on_c, 0, 53, 54
1, 45943, Note_on_c, 0, 65, 53
1, 45947, Note_on_c, 0, 68, 0
1, 45968, Note_on_c, 0, 64, 0
1, 46058, Control_c, 0, 64, 127
1, 46060, Note_on_c, 0, 53, 0
1, 46064, Note_on_c, 0, 66, 73
1, 46068, Note_on_c, 0, 54, 62
1, 46080, Tempo, 404995
1, 46088, Note_on_c, 0, 65, 0
1, 46103, Note_on_c, 0, 60, 0
1, 46105, Note_on_c, 0, 72, 0
1, 46213, Control_c, 0, 64, 0
1, 46320, Tempo, 375000
1, 46557, Note_on_c, 0, 67, 65
1, 46558, Control_c, 0, 64, 127
1, 46560, Tempo, 430015
1, 46562, Note_on_c, 0, 62, 57
1, 46562, Note_on_c, 0, 70, 63
1, 46564, Note_on_c, 0, 58, 53
1, 46566, Note_on_c, 0, 66, 0
1, 46567, Note_on_c, 0, 55, 65
1, 46569, Note_on_c, 0, 54, 0
1, 46800, Tempo, 394997
1, 46832, Control_c, 0, 64, 0
1, 47040, Tempo, 414995
1, 47056, Note_on_c, 0, 50, 53
1, 47113, Control_c, 0, 64, 127
1, 47192, Control_c, 0, 64, 0
1, 47280, Tempo, 445005
1, 47310, Note_on_c, 0, 62, 0
1, 47341, Note_on_c, 0, 55, 0
1, 47351, Note_on_c, 0, 58, 0
1, 47355, Note_on_c, 0, 67, 0
1, 47374, Note_on_c, 0, 50, 0
1, 47407, Note_on_c, 0, 70, 0
1, 47520, Tempo, 394997
1, 47520, Note_on_c, 0, 67, 57
1, 47528, Note_on_c, 0, 55, 44
1, 47529, Note_on_c, 0, 58, 43
1, 47529, Note_on_c, 0, 61, 65
1, 47535, Note_on_c, 0, 51, 53
1, 47574, Control_c, 0, 64, 127
1, 47695, Control_c, 0, 64, 0
1, 47760, Tempo, 430015
1, 47794, Note_on_c, 0, 55, 0
1, 47819, Note_on_c, 0, 61, 0
1, 47826, Note_on_c, 0, 58, 0
1, 47842, Note_on_c, 0, 67, 0
1, 47864, Note_on_c, 0, 51, 0
1, 47996, Note_on_c, 0, 72, 53
1, 48000, Tempo, 400000
1, 48000, Note_on_c, 0, 68, 57
1, 48001, Note_on_c, 0, 60, 49
1, 48002, Note_on_c, 0, 56, 62
1, 48004, Note_on_c, 0, 63, 69
1, 48008, Note_on_c, 0, 44, 49
1, 48009, Note_on_c, 0, 51, 54
1, 48040, Control_c, 0, 64, 127
1, 48240, Tempo, 394997
1, 48480, Tempo, 385010
1, 48720, Tempo, 385010
1, 48767, Note_on_c, 0, 56, 0
1, 48788, Note_on_c, 0, 51, 0
1, 48799, Note_on_c, 0, 72, 0
1, 48806, Note_on_c, 0, 63, 0
1, 48811, Note_on_c, 0, 68, 0
1, 48823, Control_c, 0, 64, 0
1, 48824, Note_on_c, 0, 60, 0
1, 48841, Note_on_c, 0, 44, 0
1, 48932, Control_c, 0, 64, 127
1, 48960, Tempo, 400000
1, 48974, Note_on_c, 0, 67, 65
1, 48975, Note_on_c, 0, 55, 57
1, 48978, Note_on_c, 0, 60, 61
1, 48979, Note_on_c, 0, 40, 63
1, 48990, Note_on_c, 0, 52, 42
1, 48995, Note_on_c, 0, 48, 29
1, 49200, Tempo, 385010
1, 49440, Tempo, 385010
1, 49680, Tempo, 440012
1, 49704, Note_on_c, 0, 55, 0
1, 49716, Note_on_c, 0, 60, 0
1, 49727, Note_on_c, 0, 40, 0
1, 49739, Note_on_c, 0, 52, 0
1, 49740, Note_on_c, 0, 67, 0
1, 49743, Note_on_c, 0, 48, 0
1, 49822, Control_c, 0, 64, 0
1, 49908, Note_on_c, 0, 72, 49
1, 49910, Note_on_c, 0, 68, 49
1, 49912, Note_on_c, 0, 63, 49
1, 49912, Note_on_c, 0, 60, 36
1, 49913, Note_on_c, 0, 44, 57
1, 49916, Note_on_c, 0, 56, 38
1, 49920, Tempo, 380011
1, 49921, Note_on_c, 0, 51, 57
1, 49938, Control_c, 0, 64, 127
1, 50160, Tempo, 365008
1, 50400, Tempo, 410004
1, 50629, Note_on_c, 0, 68, 0
1, 50630, Note_on_c, 0, 63, 0
1, 50632, Note_on_c, 0, 51, 0
1, 50633, Note_on_c, 0, 72, 0
1, 50633, Note_on_c, 0, 44, 0
1, 50634, Note_on_c, 0, 56, 0
1, 50634, Note_on_c, 0, 60, 0
1, 50640, Tempo, 345006
1, 50641, Note_on_c, 0, 39, 76
1, 50644, Note_on_c, 0, 51, 69
1, 50758, Note_on_c, 0, 48, 73
1, 50761, Note_on_c, 0, 51, 0
1, 50763, Note_on_c, 0, 36, 63
1, 50768, Note_on_c, 0, 39, 0
1, 50880, Tempo, 394997
1, 50889, Note_on_c, 0, 32, 65
1, 50892, Note_on_c, 0, 44, 73
1, 50902, Note_on_c, 0, 48, 0
1, 50912, Note_on_c, 0, 36, 0
1, 50981, Note_on_c, 0, 32, 0
1, 50986, Note_on_c, 0, 44, 0
1, 51056, Control_c, 0, 64, 0
1, 51116, Note_on_c, 0, 32, 65
1, 51117, Note_on_c, 0, 44, 54
1, 51120, Tempo, 410004
1, 51135, Control_c, 0, 64, 127
1, 51214, Note_on_c, 0, 32, 0
1, 51224, Note_on_c, 0, 44, 0
1, 51256, Control_c, 0, 64, 0
1, 51353, Note_on_c, 0, 44, 49
1, 51355, Note_on_c, 0, 32, 57
1, 51360, Tempo, 370005
1, 51362, Control_c, 0, 64, 127
1, 51457, Note_on_c, 0, 32, 0
1, 51458, Control_c, 0, 64, 0
1, 51493, Note_on_c, 0, 44, 0
1, 51570, Control_c, 0, 64, 127
1, 51595, Note_on_c, 0, 51, 41
1, 51597, Note_on_c, 0, 63, 42
1, 51597, Note_on_c, 0, 56, 49
1, 51600, Tempo, 380011
1, 51602, Note_on_c, 0, 41, 47
1, 51712, Note_on_c, 0, 58, 56
1, 51717, Note_on_c, 0, 63, 0
1, 51719, Note_on_c, 0, 43, 49
1, 51721, Note_on_c, 0, 41, 0
1, 51728, Control_c, 0, 64, 0
1, 51731, Note_on_c, 0, 51, 0
1, 51826, Note_on_c, 0, 58, 0
1, 51829, Control_c, 0, 64, 127
1, 51832, Note_on_c, 0, 56, 0
1, 51835, Note_on_c, 0, 51, 49
1, 51836, Note_on_c, 0, 60, 47
1, 51840, Tempo, 375000
1, 51841, Note_on_c, 0, 63, 46
1, 51847, Note_on_c, 0, 44, 43
1, 51848, Note_on_c, 0, 36, 40
1, 51856, Note_on_c, 0, 43, 0
1, 51907, Control_c, 0, 64, 0
1, 51920, Note_on_c, 0, 51, 0
1, 51929, Note_on_c, 0, 60, 0
1, 51942, Note_on_c, 0, 63, 0
1, 51956, Note_on_c, 0, 44, 0
1, 51963, Note_on_c, 0, 36, 0
1, 52076, Note_on_c, 0, 46, 46
1, 52077, Control_c, 0, 64, 127
1, 52080, Tempo, 380011
1, 52080, Note_on_c, 0, 65, 57
1, 52080, Note_on_c, 0, 68, 44
1, 52083, Note_on_c, 0, 56, 36
1, 52083, Note_on_c, 0, 38, 34
1, 52159, Note_on_c, 0, 56, 0
1, 52162, Note_on_c, 0, 68, 0
1, 52166, Note_on_c, 0, 65, 0
1, 52178, Control_c, 0, 64, 0
1, 52195, Note_on_c, 0, 38, 0
1, 52213, Note_on_c, 0, 46, 0
1, 52310, Note_on_c, 0, 39, 46
1, 52311, Note_on_c, 0, 68, 56
1, 52316, Note_on_c, 0, 48, 42
1, 52317, Control_c, 0, 64, 127
1, 52318, Note_on_c, 0, 56, 53
1, 52320, Tempo, 389990
1, 52320, Note_on_c, 0, 63, 49
1, 52386, Note_on_c, 0, 56, 0
1, 52393, Note_on_c, 0, 63, 0
1, 52397, Note_on_c, 0, 68, 0
1, 52402, Control_c, 0, 64, 0
1, 52413, Note_on_c, 0, 48, 0
1, 52419, Note_on_c, 0, 39, 0
1, 52550, Note_on_c, 0, 50, 61
1, 52553, Note_on_c, 0, 68, 54
1, 52555, Note_on_c, 0, 60, 42
1, 52556, Note_on_c, 0, 72, 53
1, 52559, Note_on_c, 0, 41, 40
1, 52560, Tempo, 414995
1, 52560, Control_c, 0, 64, 127
1, 52623, Note_on_c, 0, 72, 0
1, 52623, Note_on_c, 0, 68, 0
1, 52625, Note_on_c, 0, 60, 0
1, 52633, Control_c, 0, 64, 0
1, 52650, Note_on_c, 0, 50, 0
1, 52660, Note_on_c, 0, 41, 0
1, 52787, Note_on_c, 0, 68, 49
1, 52788, Note_on_c, 0, 60, 47
1, 52788, Note_on_c, 0, 72, 53
1, 52797, Note_on_c, 0, 44, 49
1, 52800, Tempo, 375000
1, 52806, Note_on_c, 0, 51, 39
1, 52809, Control_c, 0, 64, 127
1, 52893, Control_c, 0, 64, 0
1, 52906, Note_on_c, 0, 51, 0
1, 52914, Note_on_c, 0, 44, 0
1, 52939, Control_c, 0, 64, 127
1, 52954, Note_on_c, 0, 60, 0
1, 53033, Note_on_c, 0, 60, 37
1, 53034, Note_on_c, 0, 62, 40
1, 53040, Tempo, 370005
1, 53043, Note_on_c, 0, 53, 64
1, 53047, Note_on_c, 0, 48, 36
1, 53126, Note_on_c, 0, 60, 0
1, 53127, Note_on_c, 0, 62, 0
1, 53136, Note_on_c, 0, 53, 0
1, 53154, Note_on_c, 0, 48, 0
1, 53159, Note_on_c, 0, 55, 48
1, 53240, Control_c, 0, 64, 0
1, 53264, Note_on_c, 0, 55, 0
1, 53266, Note_on_c, 0, 56, 53
1, 53268, Note_on_c, 0, 62, 36
1, 53269, Note_on_c, 0, 60, 36
1, 53280, Tempo, 370005
1, 53281, Note_on_c, 0, 53, 40
1, 53343, Note_on_c, 0, 72, 0
1, 53356, Note_on_c, 0, 68, 0
1, 53359, Note_on_c, 0, 62, 0
1, 53364, Note_on_c, 0, 60, 0
1, 53440, Note_on_c, 0, 53, 0
1, 53447, Note_on_c, 0, 56, 0
1, 53514, Note_on_c, 0, 41, 41
1, 53520, Tempo, 380011
1, 53520, Control_c, 0, 64, 127
1, 53522, Note_on_c, 0, 51, 47
1, 53522, Note_on_c, 0, 63, 64
1, 53534, Note_on_c, 0, 56, 46
1, 53589, Control_c, 0, 64, 0
1, 53625, Note_on_c, 0, 41, 0
1, 53627, Note_on_c, 0, 63, 0
1, 53632, Note_on_c, 0, 58, 49
1, 53633, Note_on_c, 0, 43, 53
1, 53647, Note_on_c, 0, 51, 0
1, 53722, Note_on_c, 0, 43, 0
1, 53751, Note_on_c, 0, 58, 0
1, 53753, Note_on_c, 0, 51, 53
1, 53755, Note_on_c, 0, 60, 49
1, 53756, Note_on_c, 0, 44, 49
1, 53757, Note_on_c, 0, 56, 0
1, 53758, Note_on_c, 0, 63, 48
1, 53760, Tempo, 385010
1, 53760, Note_on_c, 0, 36, 53
1, 53762, Control_c, 0, 64, 127
1, 53830, Control_c, 0, 64, 0
1, 53835, Note_on_c, 0, 60, 0
1, 53838, Note_on_c, 0, 51, 0
1, 53846, Note_on_c, 0, 44, 0
1, 53847, Note_on_c, 0, 36, 0
1, 53850, Note_on_c, 0, 63, 0
1, 53984, Note_on_c, 0, 38, 49
1, 53985, Note_on_c, 0, 46, 63
1, 53991, Control_c, 0, 64, 127
1, 53997, Note_on_c, 0, 68, 57
1, 53997, Note_on_c, 0, 65, 65
1, 53998, Note_on_c, 0, 56, 45
1, 54000, Tempo, 380011
1, 54077, Note_on_c, 0, 68, 0
1, 54078, Note_on_c, 0, 56, 0
1, 54080, Note_on_c, 0, 46, 0
1, 54084, Note_on_c, 0, 65, 0
1, 54087, Note_on_c, 0, 38, 0
1, 54106, Control_c, 0, 64, 0
1, 54224, Note_on_c, 0, 39, 42
1, 54227, Note_on_c, 0, 48, 49
1, 54233, Note_on_c, 0, 68, 57
1, 54237, Note_on_c, 0, 56, 49
1, 54238, Note_on_c, 0, 63, 57
1, 54240, Tempo, 380011
1, 54264, Control_c, 0, 64, 127
1, 54304, Note_on_c, 0, 56, 0
1, 54306, Note_on_c, 0, 48, 0
1, 54306, Control_c, 0, 64, 0
1, 54307, Note_on_c, 0, 39, 0
1, 54308, Note_on_c, 0, 63, 0
1, 54315, Note_on_c, 0, 68, 0
1, 54467, Note_on_c, 0, 50, 53
1, 54470, Note_on_c, 0, 41, 48
1, 54470, Note_on_c, 0, 72, 49
1, 54471, Note_on_c, 0, 68, 49
1, 54473, Note_on_c, 0, 60, 41
1, 54478, Control_c, 0, 64, 127
1, 54480, Tempo, 380011
1, 54536, Control_c, 0, 64, 0
1, 54543, Note_on_c, 0, 41, 0
1, 54544, Note_on_c, 0, 72, 0
1, 54546, Note_on_c, 0, 68, 0
1, 54554, Note_on_c, 0, 60, 0
1, 54564, Note_on_c, 0, 50, 0
1, 54707, Note_on_c, 0, 72, 65
1, 54708, Note_on_c, 0, 60, 53
1, 54708, Note_on_c, 0, 51, 49
1, 54710, Note_on_c, 0, 44, 42
1, 54711, Note_on_c, 0, 68, 44
1, 54717, Control_c, 0, 64, 127
1, 54720, Tempo, 375000
1, 54825, Note_on_c, 0, 44, 0
1, 54830, Note_on_c, 0, 51, 0
1, 54873, Note_on_c, 0, 60, 0
1, 54952, Note_on_c, 0, 48, 49
1, 54954, Note_on_c, 0, 60, 44
1, 54955, Note_on_c, 0, 53, 61
1, 54956, Note_on_c, 0, 62, 46
1, 54960, Tempo, 359993
1, 55051, Note_on_c, 0, 60, 0
1, 55053, Note_on_c, 0, 62, 0
1, 55059, Note_on_c, 0, 48, 0
1, 55062, Note_on_c, 0, 53, 0
1, 55083, Note_on_c, 0, 55, 23
1, 55195, Note_on_c, 0, 60, 40
1, 55199, Note_on_c, 0, 55, 0
1, 55199, Note_on_c, 0, 62, 44
1, 55200, Tempo, 389990
1, 55201, Note_on_c, 0, 56, 46
1, 55203, Note_on_c, 0, 53, 45
1, 55249, Control_c, 0, 64, 0
1, 55255, Note_on_c, 0, 60, 0
1, 55257, Note_on_c, 0, 62, 0
1, 55262, Note_on_c, 0, 68, 0
1, 55279, Note_on_c, 0, 72, 0
1, 55283, Note_on_c, 0, 56, 0
1, 55317, Note_on_c, 0, 53, 0
1, 55435, Note_on_c, 0, 53, 47
1, 55440, Tempo, 385010
1, 55442, Note_on_c, 0, 62, 57
1, 55444, Note_on_c, 0, 74, 62
1, 55448, Note_on_c, 0, 68, 46
1, 55450, Control_c, 0, 64, 127
1, 55515, Control_c, 0, 64, 0
1, 55545, Note_on_c, 0, 68, 0
1, 55546, Note_on_c, 0, 70, 49
1, 55551, Note_on_c, 0, 53, 0
1, 55555, Note_on_c, 0, 56, 57
1, 55606, Note_on_c, 0, 56, 0
1, 55648, Note_on_c, 0, 70, 0
1, 55663, Note_on_c, 0, 62, 0
1, 55673, Note_on_c, 0, 63, 57
1, 55676, Note_on_c, 0, 60, 54
1, 55676, Note_on_c, 0, 75, 57
1, 55678, Note_on_c, 0, 74, 0
1, 55680, Tempo, 375000
1, 55685, Note_on_c, 0, 72, 49
1, 55687, Control_c, 0, 64, 127
1, 55920, Tempo, 380011
1, 55921, Note_on_c, 0, 72, 63
1, 55930, Note_on_c, 0, 84, 57
1, 56037, Note_on_c, 0, 67, 56
1, 56044, Note_on_c, 0, 72, 0
1, 56045, Note_on_c, 0, 79, 56
1, 56056, Note_on_c, 0, 84, 0
1, 56160, Tempo, 404995
1, 56176, Note_on_c, 0, 77, 53
1, 56177, Note_on_c, 0, 67, 0
1, 56178, Note_on_c, 0, 65, 55
1, 56182, Note_on_c, 0, 79, 0
1, 56275, Control_c, 0, 64, 0
1, 56313, Note_on_c, 0, 77, 0
1, 56321, Note_on_c, 0, 65, 0
1, 56325, Note_on_c, 0, 72, 0
1, 56326, Note_on_c, 0, 60, 0
1, 56334, Note_on_c, 0, 75, 0
1, 56350, Note_on_c, 0, 63, 0
1, 56396, Note_on_c, 0, 53, 65
1, 56396, Note_on_c, 0, 68, 57
1, 56400, Tempo, 385010
1, 56400, Note_on_c, 0, 74, 49
1, 56410, Note_on_c, 0, 62, 49
1, 56425, Control_c, 0, 64, 127
1, 56503, Control_c, 0, 64, 0
1, 56506, Note_on_c, 0, 56, 56
1, 56517, Note_on_c, 0, 70, 53
1, 56522, Note_on_c, 0, 68, 0
1, 56576, Note_on_c, 0, 53, 0
1, 56606, Note_on_c, 0, 56, 0
1, 56615, Note_on_c, 0, 70, 0
1, 56636, Note_on_c, 0, 74, 0
1, 56636, Note_on_c, 0, 63, 57
1, 56640, Tempo, 404995
1, 56641, Note_on_c, 0, 62, 0
1, 56641, Note_on_c, 0, 75, 49
1, 56644, Note_on_c, 0, 60, 46
1, 56646, Note_on_c, 0, 72, 49
1, 56655, Control_c, 0, 64, 127
1, 56877, Note_on_c, 0, 84, 53
1, 56880, Tempo, 389990
1, 56886, Note_on_c, 0, 72, 45
1, 56993, Note_on_c, 0, 79, 53
1, 56994, Note_on_c, 0, 67, 56
1, 56997, Note_on_c, 0, 84, 0
1, 57012, Note_on_c, 0, 72, 0
1, 57120, Tempo, 394997
1, 57127, Note_on_c, 0, 77, 53
1, 57128, Note_on_c, 0, 65, 56
1, 57129, Note_on_c, 0, 67, 0
1, 57135, Note_on_c, 0, 79, 0
1, 57269, Note_on_c, 0, 77, 0
1, 57294, Control_c, 0, 64, 0
1, 57300, Note_on_c, 0, 60, 0
1, 57301, Note_on_c, 0, 65, 0
1, 57307, Note_on_c, 0, 72, 0
1, 57318, Note_on_c, 0, 63, 0
1, 57327, Note_on_c, 0, 75, 0
1, 57352, Note_on_c, 0, 68, 49
1, 57360, Tempo, 370005
1, 57360, Note_on_c, 0, 74, 35
1, 57361, Note_on_c, 0, 53, 57
1, 57373, Note_on_c, 0, 62, 49
1, 57388, Control_c, 0, 64, 127
1, 57465, Note_on_c, 0, 53, 0
1, 57468, Note_on_c, 0, 56, 49
1, 57473, Note_on_c, 0, 70, 41
1, 57488, Control_c, 0, 64, 0
1, 57525, Note_on_c, 0, 68, 0
1, 57560, Note_on_c, 0, 62, 0
1, 57564, Note_on_c, 0, 74, 0
1, 57578, Note_on_c, 0, 70, 0
1, 57585, Note_on_c, 0, 56, 0
1, 57592, Note_on_c, 0, 63, 57
1, 57596, Note_on_c, 0, 72, 44
1, 57597, Note_on_c, 0, 60, 49
1, 57599, Note_on_c, 0, 75, 46
1, 57600, Tempo, 375000
1, 57607, Control_c, 0, 64, 127
1, 57786, Note_on_c, 0, 75, 0
1, 57790, Note_on_c, 0, 72, 0
1, 57840, Tempo, 375000
1, 57842, Note_on_c, 0, 72, 46
1, 57842, Note_on_c, 0, 84, 46
1, 57843, Note_on_c, 0, 80, 41
1, 57844, Note_on_c, 0, 51, 57
1, 57894, Note_on_c, 0, 51, 0
1, 57957, Note_on_c, 0, 56, 57
1, 57984, Note_on_c, 0, 60, 0
1, 57989, Note_on_c, 0, 80, 0
1, 58019, Note_on_c, 0, 84, 0
1, 58042, Note_on_c, 0, 63, 0
1, 58043, Note_on_c, 0, 72, 0
1, 58059, Note_on_c, 0, 56, 0
1, 58070, Note_on_c, 0, 60, 55
1, 58080, Tempo, 385010
1, 58091, Note_on_c, 0, 84, 62
1, 58092, Note_on_c, 0, 72, 46
1, 58093, Note_on_c, 0, 80, 49
1, 58189, Note_on_c, 0, 63, 64
1, 58200, Note_on_c, 0, 60, 0
1, 58237, Note_on_c, 0, 72, 0
1, 58258, Note_on_c, 0, 84, 0
1, 58272, Note_on_c, 0, 80, 0
1, 58309, Note_on_c, 0, 65, 65
1, 58320, Tempo, 414995
1, 58325, Note_on_c, 0, 63, 0
1, 58328, Note_on_c, 0, 73, 61
1, 58328, Note_on_c, 0, 85, 61
1, 58328, Note_on_c, 0, 80, 65
1, 58331, Note_on_c, 0, 84, 63
1, 58423, Note_on_c, 0, 67, 65
1, 58424, Note_on_c, 0, 65, 0
1, 58473, Note_on_c, 0, 80, 0
1, 58482, Note_on_c, 0, 84, 0
1, 58487, Note_on_c, 0, 85, 0
1, 58496, Note_on_c, 0, 73, 0
1, 58544, Note_on_c, 0, 68, 73
1, 58559, Note_on_c, 0, 73, 62
1, 58560, Tempo, 389990
1, 58560, Note_on_c, 0, 85, 65
1, 58561, Note_on_c, 0, 67, 0
1, 58561, Note_on_c, 0, 84, 73
1, 58565, Note_on_c, 0, 80, 62
1, 58668, Note_on_c, 0, 70, 65
1, 58700, Note_on_c, 0, 68, 0
1, 58730, Note_on_c, 0, 73, 0
1, 58736, Note_on_c, 0, 85, 0
1, 58747, Note_on_c, 0, 80, 0
1, 58753, Note_on_c, 0, 84, 0
1, 58790, Note_on_c, 0, 72, 73
1, 58795, Note_on_c, 0, 70, 0
1, 58796, Note_on_c, 0, 80, 65
1, 58797, Note_on_c, 0, 84, 73
1, 58798, Note_on_c, 0, 74, 73
1, 58798, Note_on_c, 0, 86, 80
1, 58800, Tempo, 410004
1, 58907, Note_on_c, 0, 75, 73
1, 58918, Note_on_c, 0, 72, 0
1, 58991, Note_on_c, 0, 80, 0
1, 58997, Note_on_c, 0, 86, 0
1, 59005, Note_on_c, 0, 74, 0
1, 59011, Note_on_c, 0, 84, 0
1, 59026, Note_on_c, 0, 77, 73
1, 59034, Note_on_c, 0, 75, 0
1, 59035, Note_on_c, 0, 86, 89
1, 59036, Note_on_c, 0, 84, 63
1, 59038, Note_on_c, 0, 80, 73
1, 59040, Tempo, 410004
1, 59147, Note_on_c, 0, 79, 89
1, 59177, Note_on_c, 0, 77, 0
1, 59178, Note_on_c, 0, 80, 0
1, 59207, Note_on_c, 0, 84, 0
1, 59227, Note_on_c, 0, 86, 0
1, 59271, Note_on_c, 0, 80, 73
1, 59273, Note_on_c, 0, 87, 95
1, 59275, Note_on_c, 0, 84, 89
1, 59280, Tempo, 389990
1, 59299, Note_on_c, 0, 79, 0
1, 59385, Note_on_c, 0, 82, 77
1, 59403, Note_on_c, 0, 80, 0
1, 59467, Note_on_c, 0, 84, 0
1, 59473, Note_on_c, 0, 87, 0
1, 59502, Note_on_c, 0, 82, 0
1, 59517, Note_on_c, 0, 87, 89
1, 59520, Tempo, 440012
1, 59520, Note_on_c, 0, 84, 95
1, 59691, Control_c, 0, 64, 0
1, 59760, Tempo, 385010
1, 59765, Note_on_c, 0, 84, 0
1, 59768, Note_on_c, 0, 87, 0
1, 59995, Note_on_c, 0, 63, 89
1, 59995, Note_on_c, 0, 75, 77
1, 59996, Note_on_c, 0, 67, 89
1, 59997, Note_on_c, 0, 48, 89
1, 59997, Note_on_c, 0, 72, 89
1, 59998, Note_on_c, 0, 60, 95
1, 59999, Note_on_c, 0, 55, 107
1, 60000, Tempo, 435003
1, 60002, Note_on_c, 0, 51, 89
1, 60013, Control_c, 0, 64, 127
1, 60240, Tempo, 445005
1, 60283, Control_c, 0, 64, 0
1, 60420, Note_on_c, 0, 67, 0
1, 60422, Note_on_c, 0, 75, 0
1, 60425, Note_on_c, 0, 51, 0
1, 60430, Note_on_c, 0, 72, 0
1, 60436, Note_on_c, 0, 55, 0
1, 60442, Note_on_c, 0, 63, 0
1, 60445, Note_on_c, 0, 60, 0
1, 60462, Note_on_c, 0, 48, 0
1, 60471, Note_on_c, 0, 63, 89
1, 60474, Note_on_c, 0, 51, 95
1, 60480, Tempo, 410004
1, 60504, Control_c, 0, 64, 127
1, 60720, Tempo, 410004
1, 60924, Note_on_c, 0, 63, 0
1, 60941, Note_on_c, 0, 63, 89
1, 60944, Note_on_c, 0, 71, 95
1, 60946, Note_on_c, 0, 67, 89
1, 60946, Note_on_c, 0, 59, 95
1, 60949, Note_on_c, 0, 55, 95
1, 60950, Note_on_c, 0, 43, 77
1, 60950, Note_on_c, 0, 47, 77
1, 60960, Tempo, 400000
1, 61200, Tempo, 419992
1, 61363, Note_on_c, 0, 55, 0
1, 61379, Note_on_c, 0, 43, 0
1, 61387, Note_on_c, 0, 47, 0
1, 61388, Note_on_c, 0, 51, 0
1, 61422, Note_on_c, 0, 59, 0
1, 61425, Note_on_c, 0, 63, 0
1, 61431, Note_on_c, 0, 71, 0
1, 61432, Note_on_c, 0, 67, 0
1, 61436, Note_on_c, 0, 51, 77
1, 61440, Tempo, 394997
1, 61440, Note_on_c, 0, 39, 107
1, 61500, Control_c, 0, 64, 0
1, 61680, Tempo, 410004
1, 61684, Control_c, 0, 64, 127
1, 61804, Note_on_c, 0, 39, 0
1, 61820, Note_on_c, 0, 51, 0
1, 61920, Tempo, 404995
1, 61920, Note_on_c, 0, 63, 97
1, 61921, Note_on_c, 0, 72, 75
1, 61923, Note_on_c, 0, 67, 77
1, 61924, Note_on_c, 0, 75, 79
1, 61925, Note_on_c, 0, 60, 80
1, 61926, Note_on_c, 0, 51, 65
1, 61927, Note_on_c, 0, 48, 65
1, 61929, Note_on_c, 0, 55, 76
1, 62155, Note_on_c, 0, 63, 0
1, 62156, Note_on_c, 0, 67, 0
1, 62160, Tempo, 404995
1, 62160, Note_on_c, 0, 60, 0
1, 62161, Note_on_c, 0, 55, 0
1, 62161, Note_on_c, 0, 75, 0
1, 62162, Note_on_c, 0, 51, 0
1, 62162, Note_on_c, 0, 72, 0
1, 62166, Note_on_c, 0, 48, 0
1, 62176, Note_on_c, 0, 55, 97
1, 62176, Note_on_c, 0, 43, 95
1, 62278, Note_on_c, 0, 51, 95
1, 62281, Note_on_c, 0, 39, 95
1, 62291, Note_on_c, 0, 43, 0
1, 62292, Note_on_c, 0, 55, 0
1, 62400, Tempo, 389990
1, 62407, Note_on_c, 0, 36, 80
1, 62409, Note_on_c, 0, 48, 95
1, 62411, Note_on_c, 0, 51, 0
1, 62413, Note_on_c, 0, 39, 0
1, 62476, Control_c, 0, 64, 0
1, 62507, Note_on_c, 0, 36, 0
1, 62508, Note_on_c, 0, 48, 0
1, 62630, Note_on_c, 0, 36, 89
1, 62631, Note_on_c, 0, 48, 95
1, 62640, Tempo, 400000
1, 62722, Note_on_c, 0, 36, 0
1, 62738, Note_on_c, 0, 48, 0
1, 62861, Note_on_c, 0, 36, 77
1, 62866, Note_on_c, 0, 48, 95
1, 62880, Tempo, 385010
1, 62953, Note_on_c, 0, 36, 0
1, 62997, Note_on_c, 0, 48, 0
1, 63110, Note_on_c, 0, 45, 73
1, 63118, Control_c, 0, 64, 127
1, 63120, Tempo, 410004
1, 63123, Note_on_c, 0, 67, 55
1, 63128, Note_on_c, 0, 55, 44
1, 63143, Note_on_c, 0, 60, 27
1, 63163, Note_on_c, 0, 85, 1
1, 63193, Note_on_c, 0, 85, 0
1, 63219, Note_on_c, 0, 45, 0
1, 63226, Control_c, 0, 64, 0
1, 63230, Note_on_c, 0, 47, 53
1, 63246, Note_on_c, 0, 62, 56
1, 63247, Note_on_c, 0, 67, 0
1, 63270, Note_on_c, 0, 60, 0
1, 63273, Note_on_c, 0, 55, 0
1, 63356, Note_on_c, 0, 47, 0
1, 63357, Note_on_c, 0, 48, 49
1, 63360, Tempo, 405405
1, 63360, Note_on_c, 0, 39, 77
1, 63361, Control_c, 0, 64, 127
1, 63363, Note_on_c, 0, 55, 49
1, 63364, Note_on_c, 0, 67, 53
1, 63365, Note_on_c, 0, 63, 49
1, 63383, Note_on_c, 0, 62, 0
1, 63409, Control_c, 0, 64, 0
1, 63424, Note_on_c, 0, 39, 0
1, 63435, Note_on_c, 0, 55, 0
1, 63441, Note_on_c, 0, 63, 0
1, 63447, Note_on_c, 0, 67, 0
1, 63454, Note_on_c, 0, 48, 0
1, 63594, Note_on_c, 0, 43, 64
1, 63594, Note_on_c, 0, 50, 62
1, 63600, Tempo, 421053
1, 63601, Note_on_c, 0, 66, 57
1, 63602, Note_on_c, 0, 72, 47
1, 63602, Note_on_c, 0, 60, 49
1, 63634, Note_on_c, 0, 43, 0
1, 63657, Note_on_c, 0, 50, 0
1, 63675, Note_on_c, 0, 66, 0
1, 63678, Note_on_c, 0, 72, 0
1, 63686, Note_on_c, 0, 60, 0
1, 63828, Note_on_c, 0, 43, 63
1, 63830, Note_on_c, 0, 51, 62
1, 63830, Note_on_c, 0, 72, 62
1, 63832, Note_on_c, 0, 60, 46
1, 63833, Note_on_c, 0, 67, 49
1, 63840, Tempo, 390879
1, 63876, Note_on_c, 0, 43, 0
1, 63892, Note_on_c, 0, 60, 0
1, 63898, Note_on_c, 0, 51, 0
1, 63900, Note_on_c, 0, 72, 0
1, 63900, Note_on_c, 0, 67, 0
1, 64065, Note_on_c, 0, 54, 57
1, 64065, Note_on_c, 0, 48, 53
1, 64067, Note_on_c, 0, 63, 49
1, 64068, Note_on_c, 0, 72, 53
1, 64069, Control_c, 0, 64, 127
1, 64069, Note_on_c, 0, 75, 49
1, 64080, Tempo, 390879
1, 64120, Note_on_c, 0, 48, 0
1, 64125, Note_on_c, 0, 75, 0
1, 64128, Note_on_c, 0, 54, 0
1, 64133, Note_on_c, 0, 72, 0
1, 64140, Note_on_c, 0, 63, 0
1, 64143, Control_c, 0, 64, 0
1, 64301, Note_on_c, 0, 75, 46
1, 64302, Note_on_c, 0, 63, 57
1, 64305, Note_on_c, 0, 72, 49
1, 64305, Note_on_c, 0, 48, 49
1, 64310, Control_c, 0, 64, 127
1, 64311, Note_on_c, 0, 55, 44
1, 64320, Tempo, 400000
1, 64363, Note_on_c, 0, 48, 0
1, 64369, Note_on_c, 0, 55, 0
1, 64456, Note_on_c, 0, 63, 0
1, 64538, Note_on_c, 0, 51, 57
1, 64543, Note_on_c, 0, 59, 61
1, 64555, Note_on_c, 0, 65, 39
1, 64555, Note_on_c, 0, 63, 42
1, 64560, Tempo, 410959
1, 64577, Note_on_c, 0, 51, 0
1, 64631, Note_on_c, 0, 63, 0
1, 64639, Note_on_c, 0, 65, 0
1, 64661, Note_on_c, 0, 55, 46
1, 64737, Note_on_c, 0, 59, 0
1, 64751, Note_on_c, 0, 55, 0
1, 64786, Note_on_c, 0, 59, 47
1, 64786, Note_on_c, 0, 65, 39
1, 64787, Note_on_c, 0, 63, 40
1, 64796, Note_on_c, 0, 56, 53
1, 64800, Tempo, 365854
1, 64813, Control_c, 0, 64, 0
1, 64834, Note_on_c, 0, 63, 0
1, 64837, Note_on_c, 0, 75, 0
1, 64839, Note_on_c, 0, 65, 0
1, 64849, Note_on_c, 0, 72, 0
1, 64906, Note_on_c, 0, 56, 0
1, 64914, Note_on_c, 0, 59, 0
1, 65027, Note_on_c, 0, 66, 53
1, 65028, Note_on_c, 0, 39, 44
1, 65034, Note_on_c, 0, 44, 47
1, 65037, Note_on_c, 0, 54, 33
1, 65038, Control_c, 0, 64, 127
1, 65040, Tempo, 400000
1, 65050, Note_on_c, 0, 59, 20
1, 65078, Note_on_c, 0, 60, 1
1, 65079, Note_on_c, 0, 60, 0
1, 65109, Note_on_c, 0, 39, 0
1, 65120, Control_c, 0, 64, 0
1, 65146, Note_on_c, 0, 61, 73
1, 65149, Note_on_c, 0, 46, 53
1, 65151, Note_on_c, 0, 44, 0
1, 65159, Note_on_c, 0, 59, 0
1, 65162, Note_on_c, 0, 66, 0
1, 65164, Note_on_c, 0, 54, 0
1, 65260, Note_on_c, 0, 46, 0
1, 65260, Note_on_c, 0, 54, 49
1, 65263, Note_on_c, 0, 66, 53
1, 65263, Note_on_c, 0, 63, 57
1, 65266, Note_on_c, 0, 39, 61
1, 65269, Control_c, 0, 64, 127
1, 65273, Note_on_c, 0, 47, 44
1, 65280, Tempo, 404995
1, 65284, Note_on_c, 0, 61, 0
1, 65325, Note_on_c, 0, 54, 0
1, 65331, Note_on_c, 0, 63, 0
1, 65337, Note_on_c, 0, 66, 0
1, 65341, Note_on_c, 0, 39, 0
1, 65365, Note_on_c, 0, 47, 0
1, 65392, Control_c, 0, 64, 0
1, 65503, Note_on_c, 0, 42, 49
1, 65504, Note_on_c, 0, 49, 57
1, 65508, Note_on_c, 0, 59, 49
1, 65511, Note_on_c, 0, 64, 65
1, 65512, Note_on_c, 0, 71, 49
1, 65520, Tempo, 419992
1, 65570, Note_on_c, 0, 71, 0
1, 65570, Note_on_c, 0, 42, 0
1, 65571, Note_on_c, 0, 59, 0
1, 65585, Note_on_c, 0, 64, 0
1, 65587, Note_on_c, 0, 49, 0
1, 65740, Note_on_c, 0, 51, 49
1, 65743, Note_on_c, 0, 42, 53
1, 65746, Note_on_c, 0, 66, 57
1, 65747, Note_on_c, 0, 71, 57
1, 65749, Note_on_c, 0, 59, 57
1, 65760, Tempo, 389990
1, 65799, Note_on_c, 0, 59, 0
1, 65803, Note_on_c, 0, 66, 0
1, 65813, Note_on_c, 0, 71, 0
1, 65826, Note_on_c, 0, 42, 0
1, 65835, Note_on_c, 0, 51, 0
1, 65968, Control_c, 0, 64, 127
1, 65973, Note_on_c, 0, 75, 61
1, 65978, Note_on_c, 0, 71, 57
1, 65980, Note_on_c, 0, 63, 49
1, 65982, Note_on_c, 0, 53, 62
1, 65983, Note_on_c, 0, 47, 49
1, 66000, Tempo, 389990
1, 66032, Note_on_c, 0, 75, 0
1, 66034, Note_on_c, 0, 71, 0
1, 66035, Note_on_c, 0, 47, 0
1, 66035, Note_on_c, 0, 63, 0
1, 66049, Note_on_c, 0, 53, 0
1, 66056, Control_c, 0, 64, 0
1, 66224, Note_on_c, 0, 54, 49
1, 66229, Control_c, 0, 64, 127
1, 66231, Note_on_c, 0, 47, 47
1, 66237, Note_on_c, 0, 75, 55
1, 66238, Note_on_c, 0, 63, 49
1, 66239, Note_on_c, 0, 71, 63
1, 66240, Tempo, 400000
1, 66326, Note_on_c, 0, 51, 1
1, 66328, Note_on_c, 0, 47, 0
1, 66336, Note_on_c, 0, 54, 0
1, 66371, Note_on_c, 0, 63, 0
1, 66457, Note_on_c, 0, 51, 56
1, 66465, Note_on_c, 0, 59, 57
1, 66480, Tempo, 410004
1, 66480, Note_on_c, 0, 65, 44
1, 66483, Note_on_c, 0, 63, 42
1, 66549, Note_on_c, 0, 63, 0
1, 66556, Note_on_c, 0, 65, 0
1, 66560, Note_on_c, 0, 51, 0
1, 66594, Note_on_c, 0, 55, 44
1, 66608, Note_on_c, 0, 51, 0
1, 66617, Note_on_c, 0, 59, 0
1, 66664, Note_on_c, 0, 55, 0
1, 66708, Note_on_c, 0, 59, 53
1, 66710, Note_on_c, 0, 56, 49
1, 66712, Note_on_c, 0, 65, 42
1, 66716, Note_on_c, 0, 63, 49
1, 66720, Tempo, 365008
1, 66747, Note_on_c, 0, 71, 0
1, 66761, Note_on_c, 0, 75, 0
1, 66764, Note_on_c, 0, 63, 0
1, 66774, Note_on_c, 0, 65, 0
1, 66783, Note_on_c, 0, 56, 0
1, 66794, Note_on_c, 0, 59, 0
1, 66816, Control_c, 0, 64, 0
1, 66951, Control_c, 0, 64, 127
1, 66957, Note_on_c, 0, 59, 49
1, 66958, Note_on_c, 0, 65, 57
1, 66960, Tempo, 400000
1, 66968, Note_on_c, 0, 77, 64
1, 66975, Note_on_c, 0, 71, 46
1, 67035, Control_c, 0, 64, 0
1, 67057, Note_on_c, 0, 59, 0
1, 67059, Note_on_c, 0, 65, 0
1, 67069, Note_on_c, 0, 61, 61
1, 67072, Note_on_c, 0, 73, 62
1, 67077, Note_on_c, 0, 71, 0
1, 67084, Note_on_c, 0, 77, 0
1, 67184, Note_on_c, 0, 61, 0
1, 67193, Note_on_c, 0, 73, 0
1, 67197, Note_on_c, 0, 78, 73
1, 67198, Note_on_c, 0, 75, 49
1, 67199, Note_on_c, 0, 71, 57
1, 67199, Note_on_c, 0, 66, 65
1, 67200, Tempo, 394997
1, 67203, Note_on_c, 0, 59, 65
1, 67205, Note_on_c, 0, 63, 62
1, 67212, Control_c, 0, 64, 127
1, 67320, Note_on_c, 0, 78, 0
1, 67323, Note_on_c, 0, 71, 0
1, 67328, Note_on_c, 0, 75, 0
1, 67362, Note_on_c, 0, 66, 0
1, 67364, Note_on_c, 0, 59, 0
1, 67367, Note_on_c, 0, 63, 0
1, 67437, Note_on_c, 0, 75, 65
1, 67439, Note_on_c, 0, 87, 65
1, 67440, Tempo, 414995
1, 67556, Note_on_c, 0, 82, 53
1, 67559, Note_on_c, 0, 87, 0
1, 67562, Note_on_c, 0, 70, 46
1, 67661, Note_on_c, 0, 75, 0
1, 67670, Note_on_c, 0, 70, 0
1, 67680, Tempo, 400000
1, 67681, Note_on_c, 0, 75, 61
1, 67681, Note_on_c, 0, 87, 57
1, 67682, Note_on_c, 0, 80, 54
1, 67695, Note_on_c, 0, 68, 49
1, 67701, Note_on_c, 0, 82, 0
1, 67758, Note_on_c, 0, 87, 0
1, 67781, Note_on_c, 0, 80, 0
1, 67808, Note_on_c, 0, 75, 0
1, 67814, Note_on_c, 0, 68, 0
1, 67846, Control_c, 0, 64, 0
1, 67907, Note_on_c, 0, 65, 65
1, 67911, Note_on_c, 0, 59, 53
1, 67913, Note_on_c, 0, 77, 57
1, 67913, Note_on_c, 0, 71, 53
1, 67920, Tempo, 400000
1, 67936, Control_c, 0, 64, 127
1, 68019, Note_on_c, 0, 77, 0
1, 68023, Note_on_c, 0, 73, 53
1, 68025, Control_c, 0, 64, 0
1, 68027, Note_on_c, 0, 61, 65
1, 68030, Note_on_c, 0, 59, 0
1, 68033, Note_on_c, 0, 71, 0
1, 68050, Note_on_c, 0, 65, 0
1, 68143, Note_on_c, 0, 61, 0
1, 68143, Control_c, 0, 64, 127
1, 68151, Note_on_c, 0, 66, 73
1, 68153, Note_on_c, 0, 63, 65
1, 68155, Note_on_c, 0, 78, 63
1, 68156, Note_on_c, 0, 59, 57
1, 68158, Note_on_c, 0, 73, 0
1, 68158, Note_on_c, 0, 71, 53
1, 68159, Note_on_c, 0, 75, 62
1, 68160, Tempo, 410004
1, 68264, Note_on_c, 0, 71, 0
1, 68267, Note_on_c, 0, 78, 0
1, 68273, Note_on_c, 0, 75, 0
1, 68311, Note_on_c, 0, 59, 0
1, 68314, Note_on_c, 0, 66, 0
1, 68325, Note_on_c, 0, 63, 0
1, 68394, Note_on_c, 0, 75, 73
1, 68399, Note_on_c, 0, 87, 89
1, 68400, Tempo, 380011
1, 68513, Note_on_c, 0, 70, 65
1, 68514, Note_on_c, 0, 82, 63
1, 68517, Note_on_c, 0, 87, 0
1, 68527, Note_on_c, 0, 75, 0
1, 68638, Note_on_c, 0, 75, 65
1, 68640, Tempo, 394997
1, 68640, Note_on_c, 0, 68, 57
1, 68642, Note_on_c, 0, 87, 73
1, 68644, Note_on_c, 0, 80, 62
1, 68651, Note_on_c, 0, 70, 0
1, 68657, Note_on_c, 0, 82, 0
1, 68697, Note_on_c, 0, 87, 0
1, 68711, Note_on_c, 0, 80, 0
1, 68761, Note_on_c, 0, 75, 0
1, 68779, Note_on_c, 0, 68, 0
1, 68798, Control_c, 0, 64, 0
1, 68860, Note_on_c, 0, 71, 49
1, 68860, Note_on_c, 0, 77, 56
1, 68871, Note_on_c, 0, 65, 73
1, 68873, Note_on_c, 0, 59, 76
1, 68880, Tempo, 400000
1, 68884, Control_c, 0, 64, 127
1, 68955, Note_on_c, 0, 71, 0
1, 68967, Note_on_c, 0, 77, 0
1, 68974, Note_on_c, 0, 73, 56
1, 68977, Control_c, 0, 64, 0
1, 68977, Note_on_c, 0, 61, 73
1, 68984, Note_on_c, 0, 65, 0
1, 69004, Note_on_c, 0, 59, 0
1, 69063, Note_on_c, 0, 73, 0
1, 69096, Note_on_c, 0, 78, 65
1, 69098, Note_on_c, 0, 66, 79
1, 69099, Note_on_c, 0, 71, 65
1, 69100, Note_on_c, 0, 75, 57
1, 69102, Note_on_c, 0, 59, 65
1, 69103, Note_on_c, 0, 63, 76
1, 69109, Control_c, 0, 64, 127
1, 69117, Note_on_c, 0, 61, 0
1, 69120, Tempo, 385010
1, 69360, Tempo, 385010
1, 69363, Note_on_c, 0, 74, 73
1, 69364, Note_on_c, 0, 62, 80
1, 69470, Note_on_c, 0, 63, 89
1, 69472, Note_on_c, 0, 75, 79
1, 69475, Note_on_c, 0, 62, 0
1, 69502, Note_on_c, 0, 74, 0
1, 69579, Note_on_c, 0, 78, 75
1, 69581, Note_on_c, 0, 66, 80
1, 69591, Note_on_c, 0, 63, 0
1, 69600, Tempo, 359993
1, 69604, Note_on_c, 0, 75, 0
1, 69694, Note_on_c, 0, 68, 89
1, 69694, Note_on_c, 0, 80, 89
1, 69717, Note_on_c, 0, 66, 0
1, 69729, Note_on_c, 0, 78, 0
1, 69807, Note_on_c, 0, 80, 0
1, 69808, Note_on_c, 0, 83, 73
1, 69812, Note_on_c, 0, 71, 89
1, 69820, Note_on_c, 0, 68, 0
1, 69840, Tempo, 394997
1, 69927, Note_on_c, 0, 87, 89
1, 69928, Note_on_c, 0, 75, 80
1, 69939, Note_on_c, 0, 71, 0
1, 69953, Note_on_c, 0, 83, 0
1, 70060, Note_on_c, 0, 90, 89
1, 70062, Note_on_c, 0, 78, 95
1, 70080, Tempo, 394997
1, 70086, Note_on_c, 0, 87, 0
1, 70087, Note_on_c, 0, 59, 0
1, 70087, Note_on_c, 0, 63, 0
1, 70088, Note_on_c, 0, 75, 0
1, 70088, Note_on_c, 0, 66, 0
1, 70094, Note_on_c, 0, 78, 0
1, 70095, Note_on_c, 0, 75, 0
1, 70096, Note_on_c, 0, 71, 0
1, 70162, Note_on_c, 0, 90, 0
1, 70163, Note_on_c, 0, 78, 0
1, 70312, Note_on_c, 0, 44, 89
1, 70320, Tempo, 404995
1, 70322, Note_on_c, 0, 56, 79
1, 70426, Note_on_c, 0, 59, 80
1, 70429, Note_on_c, 0, 47, 73
1, 70431, Note_on_c, 0, 44, 0
1, 70455, Note_on_c, 0, 56, 0
1, 70553, Note_on_c, 0, 63, 80
1, 70554, Note_on_c, 0, 51, 89
1, 70560, Tempo, 400000
1, 70584, Note_on_c, 0, 47, 0
1, 70593, Note_on_c, 0, 59, 0
1, 70652, Note_on_c, 0, 51, 0
1, 70655, Note_on_c, 0, 63, 0
1, 70660, Control_c, 0, 64, 0
1, 70788, Control_c, 0, 64, 127
1, 70792, Note_on_c, 0, 66, 89
1, 70798, Note_on_c, 0, 54, 95
1, 70800, Tempo, 414995
1, 70898, Control_c, 0, 64, 0
1, 70905, Note_on_c, 0, 54, 0
1, 70906, Note_on_c, 0, 66, 0
1, 71040, Tempo, 460017
1, 71040, Note_on_c, 0, 59, 95
1, 71040, Note_on_c, 0, 71, 89
1, 71043, Control_c, 0, 64, 127
1, 71113, Note_on_c, 0, 71, 0
1, 71148, Note_on_c, 0, 59, 0
1, 71199, Control_c, 0, 64, 0
1, 71272, Note_on_c, 0, 55, 77
1, 71273, Note_on_c, 0, 43, 80
1, 71280, Tempo, 385010
1, 71281, Note_on_c, 0, 75, 89
1, 71282, Note_on_c, 0, 63, 95
1, 71294, Control_c, 0, 64, 127
1, 71337, Note_on_c, 0, 63, 0
1, 71345, Note_on_c, 0, 75, 0
1, 71373, Note_on_c, 0, 43, 0
1, 71376, Note_on_c, 0, 55, 0
1, 71407, Control_c, 0, 64, 0
1, 71510, Note_on_c, 0, 79, 73
1, 71513, Note_on_c, 0, 67, 69
1, 71513, Note_on_c, 0, 75, 63
1, 71515, Note_on_c, 0, 71, 73
1, 71520, Tempo, 465008
1, 71520, Control_c, 0, 64, 127
1, 71523, Note_on_c, 0, 59, 89
1, 71524, Note_on_c, 0, 55, 89
1, 71524, Note_on_c, 0, 53, 76
1, 71525, Note_on_c, 0, 63, 95
1, 71760, Tempo, 450011
1, 71970, Note_on_c, 0, 59, 0
1, 71973, Note_on_c, 0, 53, 0
1, 71976, Note_on_c, 0, 55, 0
1, 71986, Note_on_c, 0, 63, 0
1, 71996, Note_on_c, 0, 60, 95
1, 72000, Tempo, 419992
1, 72000, Note_on_c, 0, 55, 89
1, 72001, Note_on_c, 0, 48, 89
1, 72003, Note_on_c, 0, 51, 80
1, 72089, Note_on_c, 0, 55, 0
1, 72099, Note_on_c, 0, 60, 0
1, 72108, Note_on_c, 0, 51, 0
1, 72113, Note_on_c, 0, 48, 0
1, 72156, Note_on_c, 0, 67, 0
1, 72167, Note_on_c, 0, 79, 0
1, 72192, Note_on_c, 0, 71, 0
1, 72201, Control_c, 0, 64, 0
1, 72217, Note_on_c, 0, 75, 0
1, 72239, Note_on_c, 0, 79, 89
1, 72240, Tempo, 454994
1, 72240, Note_on_c, 0, 67, 80
1, 72240, Note_on_c, 0, 39, 95
1, 72241, Note_on_c, 0, 51, 105
1, 72276, Control_c, 0, 64, 127
1, 72304, Note_on_c, 0, 67, 0
1, 72312, Note_on_c, 0, 51, 0
1, 72313, Note_on_c, 0, 39, 0
1, 72317, Note_on_c, 0, 79, 0
1, 72358, Control_c, 0, 64, 0
1, 72445, Control_c, 0, 64, 127
1, 72476, Note_on_c, 0, 67, 97
1, 72478, Note_on_c, 0, 63, 89
1, 72479, Note_on_c, 0, 55, 97
1, 72479, Note_on_c, 0, 61, 89
1, 72480, Tempo, 454994
1, 72482, Note_on_c, 0, 83, 76
1, 72484, Note_on_c, 0, 79, 79
1, 72485, Note_on_c, 0, 75, 73
1, 72485, Note_on_c, 0, 71, 73
1, 72720, Tempo, 394997
1, 72884, Note_on_c, 0, 61, 0
1, 72959, Note_on_c, 0, 59, 89
1, 72960, Tempo, 419992
1, 72964, Note_on_c, 0, 56, 95
1, 72966, Note_on_c, 0, 44, 89
1, 72968, Note_on_c, 0, 67, 0
1, 72969, Note_on_c, 0, 51, 80
1, 72983, Note_on_c, 0, 55, 0
1, 72989, Note_on_c, 0, 63, 0
1, 73043, Note_on_c, 0, 56, 0
1, 73057, Note_on_c, 0, 51, 0
1, 73070, Note_on_c, 0, 44, 0
1, 73079, Note_on_c, 0, 59, 0
1, 73145, Note_on_c, 0, 83, 0
1, 73161, Note_on_c, 0, 71, 0
1, 73191, Control_c, 0, 64, 0
1, 73200, Tempo, 454994
1, 73204, Note_on_c, 0, 83, 76
1, 73205, Note_on_c, 0, 71, 76
1, 73212, Note_on_c, 0, 47, 95
1, 73213, Note_on_c, 0, 35, 95
1, 73217, Note_on_c, 0, 75, 0
1, 73234, Note_on_c, 0, 79, 0
1, 73254, Control_c, 0, 64, 127
1, 73256, Note_on_c, 0, 71, 0
1, 73274, Note_on_c, 0, 83, 0
1, 73303, Note_on_c, 0, 35, 0
1, 73304, Note_on_c, 0, 47, 0
1, 73344, Control_c, 0, 64, 0
1, 73437, Note_on_c, 0, 87, 95
1, 73438, Note_on_c, 0, 83, 89
1, 73440, Tempo, 424989
1, 73440, Note_on_c, 0, 75, 79
1, 73442, Note_on_c, 0, 79, 73
1, 73446, Control_c, 0, 64, 127
1, 73450, Note_on_c, 0, 63, 89
1, 73451, Note_on_c, 0, 57, 89
1, 73451, Note_on_c, 0, 59, 89
1, 73467, Note_on_c, 0, 67, 101
1, 73680, Tempo, 450011
1, 73862, Note_on_c, 0, 59, 0
1, 73871, Note_on_c, 0, 57, 0
1, 73902, Control_c, 0, 64, 0
1, 73917, Note_on_c, 0, 63, 0
1, 73920, Tempo, 480000
1, 73920, Note_on_c, 0, 55, 105
1, 73923, Note_on_c, 0, 39, 95
1, 73927, Note_on_c, 0, 48, 95
1, 73928, Note_on_c, 0, 67, 0
1, 73947, Control_c, 0, 64, 127
1, 74023, Note_on_c, 0, 48, 0
1, 74050, Note_on_c, 0, 39, 0
1, 74055, Note_on_c, 0, 55, 0
1, 74061, Control_c, 0, 64, 0
1, 74074, Note_on_c, 0, 87, 0
1, 74084, Note_on_c, 0, 75, 0
1, 74110, Note_on_c, 0, 79, 0
1, 74148, Note_on_c, 0, 83, 0
1, 74158, Note_on_c, 0, 87, 89
1, 74159, Note_on_c, 0, 75, 80
1, 74160, Tempo, 500000
1, 74168, Note_on_c, 0, 31, 95
1, 74172, Control_c, 0, 64, 127
1, 74172, Note_on_c, 0, 43, 105
1, 74205, Note_on_c, 0, 75, 0
1, 74215, Note_on_c, 0, 87, 0
1, 74264, Note_on_c, 0, 31, 0
1, 74273, Note_on_c, 0, 43, 0
1, 74396, Note_on_c, 0, 91, 89
1, 74397, Note_on_c, 0, 87, 79
1, 74398, Note_on_c, 0, 83, 79
1, 74399, Note_on_c, 0, 79, 89
1, 74400, Tempo, 600000
1, 74407, Note_on_c, 0, 67, 91
1, 74409, Note_on_c, 0, 59, 100
1, 74410, Note_on_c, 0, 63, 76
1, 74410, Note_on_c, 0, 53, 108
1, 74640, Tempo, 590029
1, 74698, Note_on_c, 0, 67, 0
1, 74701, Note_on_c, 0, 59, 0
1, 74707, Note_on_c, 0, 53, 0
1, 74711, Note_on_c, 0, 63, 0
1, 74740, Note_on_c, 0, 91, 0
1, 74746, Note_on_c, 0, 83, 0
1, 74748, Note_on_c, 0, 87, 0
1, 74748, Note_on_c, 0, 34, 105
1, 74749, Note_on_c, 0, 46, 105
1, 74753, Note_on_c, 0, 79, 0
1, 74788, Control_c, 0, 64, 0
1, 74839, Control_c, 0, 64, 127
1, 74852, Note_on_c, 0, 67, 112
1, 74855, Note_on_c, 0, 63, 99
1, 74856, Note_on_c, 0, 58, 105
1, 74857, Note_on_c, 0, 55, 105
1, 74858, Note_on_c, 0, 53, 107
1, 74880, Tempo, 445005
1, 74891, Note_on_c, 0, 82, 95
1, 74892, Note_on_c, 0, 70, 73
1, 74892, Note_on_c, 0, 79, 77
1, 74893, Note_on_c, 0, 75, 76
1, 74965, Note_on_c, 0, 53, 0
1, 75015, Note_on_c, 0, 34, 0
1, 75022, Note_on_c, 0, 46, 0
1, 75064, Note_on_c, 0, 79, 0
1, 75066, Note_on_c, 0, 70, 0
1, 75076, Note_on_c, 0, 75, 0
1, 75087, Note_on_c, 0, 82, 0
1, 75120, Tempo, 394997
1, 75130, Note_on_c, 0, 75, 54
1, 75131, Note_on_c, 0, 80, 61
1, 75132, Note_on_c, 0, 72, 65
1, 75229, Note_on_c, 0, 82, 79
1, 75242, Note_on_c, 0, 72, 0
1, 75250, Note_on_c, 0, 80, 0
1, 75255, Note_on_c, 0, 75, 0
1, 75341, Note_on_c, 0, 75, 62
1, 75341, Note_on_c, 0, 70, 65
1, 75342, Note_on_c, 0, 79, 73
1, 75357, Note_on_c, 0, 82, 0
1, 75360, Tempo, 419992
1, 75447, Note_on_c, 0, 82, 57
1, 75457, Note_on_c, 0, 79, 0
1, 75459, Note_on_c, 0, 75, 0
1, 75482, Note_on_c, 0, 58, 0
1, 75486, Note_on_c, 0, 70, 0
1, 75513, Note_on_c, 0, 67, 0
1, 75524, Note_on_c, 0, 55, 0
1, 75545, Note_on_c, 0, 63, 0
1, 75564, Note_on_c, 0, 60, 77
1, 75568, Note_on_c, 0, 65, 105
1, 75573, Note_on_c, 0, 63, 61
1, 75575, Note_on_c, 0, 68, 57
1, 75580, Note_on_c, 0, 75, 57
1, 75583, Note_on_c, 0, 77, 69
1, 75589, Note_on_c, 0, 82, 0
1, 75600, Tempo, 400000
1, 75627, Note_on_c, 0, 63, 0
1, 75638, Note_on_c, 0, 60, 0
1, 75659, Note_on_c, 0, 65, 0
1, 75707, Note_on_c, 0, 82, 65
1, 75714, Note_on_c, 0, 68, 0
1, 75719, Note_on_c, 0, 77, 0
1, 75722, Note_on_c, 0, 75, 0
1, 75804, Note_on_c, 0, 67, 105
1, 75806, Note_on_c, 0, 63, 89
1, 75808, Note_on_c, 0, 58, 95
1, 75811, Note_on_c, 0, 82, 0
1, 75821, Note_on_c, 0, 79, 63
1, 75823, Note_on_c, 0, 70, 61
1, 75824, Note_on_c, 0, 75, 57
1, 75840, Tempo, 385010
1, 75938, Note_on_c, 0, 75, 0
1, 75951, Note_on_c, 0, 82, 65
1, 75952, Note_on_c, 0, 79, 0
1, 75981, Note_on_c, 0, 70, 0
1, 75996, Control_c, 0, 64, 0
1, 76041, Control_c, 0, 64, 127
1, 76067, Note_on_c, 0, 34, 77
1, 76067, Note_on_c, 0, 46, 77
1, 76068, Note_on_c, 0, 80, 65
1, 76069, Note_on_c, 0, 72, 73
1, 76070, Note_on_c, 0, 75, 57
1, 76080, Tempo, 380011
1, 76080, Note_on_c, 0, 82, 0
1, 76186, Note_on_c, 0, 72, 0
1, 76192, Note_on_c, 0, 82, 64
1, 76203, Note_on_c, 0, 80, 0
1, 76206, Note_on_c, 0, 75, 0
1, 76314, Note_on_c, 0, 75, 62
1, 76314, Note_on_c, 0, 79, 65
1, 76315, Note_on_c, 0, 70, 57
1, 76320, Tempo, 389990
1, 76321, Note_on_c, 0, 82, 0
1, 76425, Note_on_c, 0, 79, 0
1, 76430, Note_on_c, 0, 82, 61
1, 76434, Note_on_c, 0, 75, 0
1, 76466, Note_on_c, 0, 70, 0
1, 76487, Note_on_c, 0, 67, 0
1, 76495, Note_on_c, 0, 63, 0
1, 76497, Note_on_c, 0, 34, 0
1, 76499, Note_on_c, 0, 58, 0
1, 76503, Note_on_c, 0, 46, 0
1, 76551, Note_on_c, 0, 68, 64
1, 76557, Note_on_c, 0, 75, 55
1, 76558, Note_on_c, 0, 77, 65
1, 76560, Tempo, 424989
1, 76560, Note_on_c, 0, 56, 89
1, 76561, Note_on_c, 0, 63, 105
1, 76562, Note_on_c, 0, 60, 89
1, 76566, Note_on_c, 0, 82, 0
1, 76677, Note_on_c, 0, 82, 65
1, 76683, Note_on_c, 0, 75, 0
1, 76684, Note_on_c, 0, 68, 0
1, 76691, Note_on_c, 0, 56, 0
1, 76693, Note_on_c, 0, 77, 0
1, 76703, Note_on_c, 0, 63, 0
1, 76738, Note_on_c, 0, 60, 0
1, 76773, Note_on_c, 0, 82, 0
1, 76782, Note_on_c, 0, 67, 105
1, 76785, Note_on_c, 0, 58, 89
1, 76786, Note_on_c, 0, 63, 89
1, 76797, Note_on_c, 0, 79, 63
1, 76797, Note_on_c, 0, 70, 57
1, 76800, Tempo, 419992
1, 76803, Note_on_c, 0, 75, 53
1, 76870, Note_on_c, 0, 75, 0
1, 76927, Note_on_c, 0, 82, 69
1, 76929, Note_on_c, 0, 79, 0
1, 76943, Note_on_c, 0, 70, 0
1, 76972, Control_c, 0, 64, 0
1, 77024, Control_c, 0, 64, 127
1, 77040, Tempo, 445005
1, 77045, Note_on_c, 0, 80, 61
1, 77048, Note_on_c, 0, 34, 89
1, 77048, Note_on_c, 0, 46, 95
1, 77049, Note_on_c, 0, 75, 57
1, 77051, Note_on_c, 0, 72, 55
1, 77067, Note_on_c, 0, 82, 0
1, 77163, Note_on_c, 0, 82, 65
1, 77166, Note_on_c, 0, 72, 0
1, 77166, Note_on_c, 0, 80, 0
1, 77180, Note_on_c, 0, 75, 0
1, 77218, Note_on_c, 0, 34, 0
1, 77222, Note_on_c, 0, 46, 0
1, 77275, Note_on_c, 0, 75, 61
1, 77277, Note_on_c, 0, 79, 65
1, 77279, Note_on_c, 0, 70, 49
1, 77280, Tempo, 389990
1, 77285, Note_on_c, 0, 82, 0
1, 77336, Note_on_c, 0, 67, 0
1, 77342, Note_on_c, 0, 58, 0
1, 77343, Note_on_c, 0, 63, 0
1, 77385, Note_on_c, 0, 79, 0
1, 77401, Note_on_c, 0, 82, 57
1, 77403, Note_on_c, 0, 75, 0
1, 77449, Note_on_c, 0, 70, 0
1, 77509, Note_on_c, 0, 60, 105
1, 77510, Note_on_c, 0, 53, 73
1, 77510, Note_on_c, 0, 56, 73
1, 77519, Note_on_c, 0, 68, 57
1, 77520, Tempo, 440012
1, 77522, Note_on_c, 0, 75, 65
1, 77525, Note_on_c, 0, 77, 65
1, 77530, Note_on_c, 0, 82, 0
1, 77568, Note_on_c, 0, 53, 0
1, 77573, Note_on_c, 0, 56, 0
1, 77586, Note_on_c, 0, 60, 0
1, 77637, Note_on_c, 0, 82, 65
1, 77638, Note_on_c, 0, 75, 0
1, 77639, Note_on_c, 0, 68, 0
1, 77659, Note_on_c, 0, 77, 0
1, 77743, Note_on_c, 0, 82, 0
1, 77745, Note_on_c, 0, 67, 105
1, 77746, Note_on_c, 0, 63, 89
1, 77746, Note_on_c, 0, 58, 73
1, 77753, Note_on_c, 0, 79, 57
1, 77756, Note_on_c, 0, 70, 57
1, 77757, Note_on_c, 0, 75, 57
1, 77760, Tempo, 410004
1, 77858, Note_on_c, 0, 75, 0
1, 77875, Note_on_c, 0, 79, 0
1, 77880, Note_on_c, 0, 82, 65
1, 77890, Note_on_c, 0, 70, 0
1, 77918, Note_on_c, 0, 67, 0
1, 77923, Note_on_c, 0, 58, 0
1, 77939, Note_on_c, 0, 63, 0
1, 77989, Note_on_c, 0, 80, 69
1, 77991, Note_on_c, 0, 75, 65
1, 77993, Note_on_c, 0, 72, 57
1, 77997, Note_on_c, 0, 51, 105
1, 78000, Tempo, 410004
1, 78008, Note_on_c, 0, 82, 0
1, 78095, Note_on_c, 0, 55, 105
1, 78106, Note_on_c, 0, 82, 61
1, 78116, Note_on_c, 0, 80, 0
1, 78116, Note_on_c, 0, 75, 0
1, 78118, Note_on_c, 0, 72, 0
1, 78206, Note_on_c, 0, 58, 105
1, 78225, Note_on_c, 0, 70, 65
1, 78227, Note_on_c, 0, 75, 62
1, 78229, Note_on_c, 0, 79, 73
1, 78230, Note_on_c, 0, 51, 0
1, 78230, Note_on_c, 0, 55, 0
1, 78234, Note_on_c, 0, 82, 0
1, 78240, Tempo, 389990
1, 78258, Note_on_c, 0, 58, 0
1, 78327, Note_on_c, 0, 79, 0
1, 78346, Note_on_c, 0, 82, 65
1, 78347, Note_on_c, 0, 75, 0
1, 78384, Note_on_c, 0, 70, 0
1, 78443, Note_on_c, 0, 63, 105
1, 78443, Note_on_c, 0, 60, 79
1, 78444, Note_on_c, 0, 56, 80
1, 78466, Note_on_c, 0, 68, 57
1, 78472, Note_on_c, 0, 77, 65
1, 78473, Note_on_c, 0, 75, 57
1, 78480, Tempo, 404995
1, 78480, Note_on_c, 0, 82, 0
1, 78534, Note_on_c, 0, 60, 0
1, 78539, Note_on_c, 0, 63, 0
1, 78553, Note_on_c, 0, 56, 0
1, 78589, Note_on_c, 0, 82, 57
1, 78591, Note_on_c, 0, 75, 0
1, 78592, Note_on_c, 0, 68, 0
1, 78614, Note_on_c, 0, 77, 0
1, 78681, Control_c, 0, 64, 0
1, 78692, Note_on_c, 0, 82, 0
1, 78702, Note_on_c, 0, 67, 105
1, 78703, Note_on_c, 0, 58, 95
1, 78706, Note_on_c, 0, 63, 89
1, 78710, Note_on_c, 0, 75, 65
1, 78711, Note_on_c, 0, 79, 65
1, 78713, Note_on_c, 0, 70, 65
1, 78720, Tempo, 414995
1, 78727, Control_c, 0, 64, 127
1, 78805, Note_on_c, 0, 79, 0
1, 78808, Note_on_c, 0, 75, 0
1, 78821, Note_on_c, 0, 70, 0
1, 78932, Control_c, 0, 64, 0
1, 78943, Note_on_c, 0, 34, 89
1, 78944, Note_on_c, 0, 46, 95
1, 78960, Tempo, 404995
1, 78960, Control_c, 0, 64, 127
1, 78982, Note_on_c, 0, 67, 73
1, 78984, Note_on_c, 0, 62, 65
1, 79037, Note_on_c, 0, 67, 0
1, 79038, Note_on_c, 0, 63, 0
1, 79046, Note_on_c, 0, 58, 0
1, 79068, Note_on_c, 0, 46, 0
1, 79070, Note_on_c, 0, 34, 0
1, 79093, Note_on_c, 0, 63, 61
1, 79102, Note_on_c, 0, 62, 0
1, 79140, Note_on_c, 0, 67, 0
1, 79200, Tempo, 380011
1, 79203, Note_on_c, 0, 55, 73
1, 79204, Note_on_c, 0, 51, 80
1, 79205, Note_on_c, 0, 46, 95
1, 79210, Note_on_c, 0, 66, 65
1, 79211, Note_on_c, 0, 70, 76
1, 79222, Note_on_c, 0, 63, 0
1, 79302, Note_on_c, 0, 66, 0
1, 79315, Note_on_c, 0, 70, 0
1, 79320, Note_on_c, 0, 67, 65
1, 79416, Note_on_c, 0, 67, 0
1, 79433, Note_on_c, 0, 75, 65
1, 79439, Note_on_c, 0, 72, 65
1, 79440, Tempo, 410004
1, 79543, Note_on_c, 0, 75, 0
1, 79548, Note_on_c, 0, 70, 73
1, 79563, Note_on_c, 0, 72, 0
1, 79670, Note_on_c, 0, 79, 76
1, 79673, Note_on_c, 0, 75, 62
1, 79674, Note_on_c, 0, 70, 0
1, 79680, Tempo, 435003
1, 79774, Note_on_c, 0, 79, 0
1, 79776, Note_on_c, 0, 75, 0
1, 79788, Note_on_c, 0, 69, 53
1, 79809, Note_on_c, 0, 51, 0
1, 79831, Note_on_c, 0, 46, 0
1, 79838, Note_on_c, 0, 55, 0
1, 79906, Note_on_c, 0, 66, 65
1, 79909, Note_on_c, 0, 70, 75
1, 79912, Note_on_c, 0, 69, 0
1, 79915, Note_on_c, 0, 58, 89
1, 79915, Note_on_c, 0, 51, 75
1, 79917, Note_on_c, 0, 55, 75
1, 79920, Tempo, 404995
1, 80006, Note_on_c, 0, 70, 0
1, 80014, Note_on_c, 0, 66, 0
1, 80018, Note_on_c, 0, 58, 0
1, 80021, Note_on_c, 0, 55, 0
1, 80024, Note_on_c, 0, 67, 64
1, 80041, Note_on_c, 0, 51, 0
1, 80140, Note_on_c, 0, 67, 0
1, 80144, Note_on_c, 0, 72, 65
1, 80146, Note_on_c, 0, 75, 73
1, 80151, Note_on_c, 0, 63, 79
1, 80151, Note_on_c, 0, 58, 80
1, 80153, Note_on_c, 0, 55, 80
1, 80160, Tempo, 380011
1, 80246, Note_on_c, 0, 75, 0
1, 80259, Note_on_c, 0, 70, 64
1, 80266, Note_on_c, 0, 72, 0
1, 80354, Note_on_c, 0, 70, 0
1, 80379, Note_on_c, 0, 75, 73
1, 80382, Note_on_c, 0, 79, 79
1, 80400, Tempo, 410004
1, 80488, Note_on_c, 0, 75, 0
1, 80494, Note_on_c, 0, 79, 0
1, 80497, Note_on_c, 0, 74, 73
1, 80626, Note_on_c, 0, 75, 62
1, 80627, Note_on_c, 0, 79, 77
1, 80627, Note_on_c, 0, 82, 80
1, 80630, Note_on_c, 0, 74, 0
1, 80640, Tempo, 389990
1, 80728, Note_on_c, 0, 63, 0
1, 80749, Note_on_c, 0, 79, 0
1, 80751, Note_on_c, 0, 75, 0
1, 80765, Note_on_c, 0, 82, 0
1, 80823, Note_on_c, 0, 58, 0
1, 80836, Note_on_c, 0, 55, 0
1, 80877, Note_on_c, 0, 79, 89
1, 80879, Note_on_c, 0, 74, 88
1, 80879, Note_on_c, 0, 67, 100
1, 80880, Tempo, 404995
1, 80882, Note_on_c, 0, 58, 84
1, 80883, Note_on_c, 0, 63, 100
1, 80993, Note_on_c, 0, 67, 0
1, 80997, Note_on_c, 0, 63, 0
1, 80998, Note_on_c, 0, 79, 0
1, 80999, Note_on_c, 0, 58, 0
1, 81002, Note_on_c, 0, 75, 78
1, 81032, Note_on_c, 0, 74, 0
1, 81115, Note_on_c, 0, 75, 0
1, 81120, Tempo, 414995
1, 81123, Note_on_c, 0, 82, 86
1, 81124, Note_on_c, 0, 78, 77
1, 81128, Note_on_c, 0, 67, 100
1, 81128, Note_on_c, 0, 63, 86
1, 81130, Note_on_c, 0, 58, 91
1, 81212, Note_on_c, 0, 58, 0
1, 81217, Note_on_c, 0, 63, 0
1, 81219, Note_on_c, 0, 78, 0
1, 81222, Note_on_c, 0, 82, 0
1, 81229, Note_on_c, 0, 67, 0
1, 81230, Note_on_c, 0, 79, 92
1, 81339, Note_on_c, 0, 79, 0
1, 81354, Note_on_c, 0, 87, 84
1, 81354, Note_on_c, 0, 67, 90
1, 81355, Note_on_c, 0, 63, 91
1, 81355, Note_on_c, 0, 70, 91
1, 81356, Note_on_c, 0, 84, 88
1, 81360, Tempo, 404995
1, 81415, Note_on_c, 0, 87, 0
1, 81455, Note_on_c, 0, 70, 0
1, 81467, Note_on_c, 0, 63, 0
1, 81475, Note_on_c, 0, 67, 0
1, 81476, Note_on_c, 0, 82, 84
1, 81502, Note_on_c, 0, 84, 0
1, 81588, Note_on_c, 0, 70, 86
1, 81588, Note_on_c, 0, 67, 106
1, 81590, Note_on_c, 0, 63, 100
1, 81597, Note_on_c, 0, 82, 0
1, 81598, Note_on_c, 0, 91, 98
1, 81600, Tempo, 389990
1, 81600, Note_on_c, 0, 87, 84
1, 81680, Note_on_c, 0, 67, 0
1, 81684, Note_on_c, 0, 63, 0
1, 81702, Note_on_c, 0, 70, 0
1, 81704, Note_on_c, 0, 91, 0
1, 81710, Note_on_c, 0, 87, 0
1, 81716, Note_on_c, 0, 81, 92
1, 81818, Note_on_c, 0, 75, 100
1, 81820, Note_on_c, 0, 70, 90
1, 81823, Note_on_c, 0, 67, 76
1, 81827, Note_on_c, 0, 81, 0
1, 81839, Note_on_c, 0, 78, 91
1, 81840, Tempo, 419992
1, 81840, Note_on_c, 0, 82, 100
1, 81936, Note_on_c, 0, 82, 0
1, 81940, Note_on_c, 0, 78, 0
1, 81943, Note_on_c, 0, 70, 0
1, 81946, Note_on_c, 0, 75, 0
1, 81955, Note_on_c, 0, 79, 91
1, 81957, Note_on_c, 0, 67, 0
1, 82065, Note_on_c, 0, 79, 0
1, 82066, Note_on_c, 0, 75, 102
1, 82067, Note_on_c, 0, 70, 102
1, 82068, Note_on_c, 0, 67, 102
1, 82075, Note_on_c, 0, 87, 100
1, 82080, Tempo, 419992
1, 82080, Note_on_c, 0, 84, 92
1, 82167, Note_on_c, 0, 87, 0
1, 82171, Note_on_c, 0, 70, 0
1, 82182, Note_on_c, 0, 75, 0
1, 82187, Note_on_c, 0, 67, 0
1, 82189, Note_on_c, 0, 82, 100
1, 82203, Note_on_c, 0, 84, 0
1, 82296, Note_on_c, 0, 82, 0
1, 82307, Note_on_c, 0, 79, 102
1, 82309, Note_on_c, 0, 70, 88
1, 82309, Note_on_c, 0, 75, 102
1, 82315, Note_on_c, 0, 91, 103
1, 82316, Note_on_c, 0, 87, 96
1, 82320, Tempo, 400000
1, 82393, Note_on_c, 0, 70, 0
1, 82404, Note_on_c, 0, 79, 0
1, 82410, Note_on_c, 0, 75, 0
1, 82422, Note_on_c, 0, 87, 0
1, 82427, Note_on_c, 0, 91, 0
1, 82430, Note_on_c, 0, 86, 92
1, 82553, Note_on_c, 0, 82, 112
1, 82554, Note_on_c, 0, 79, 112
1, 82555, Note_on_c, 0, 87, 92
1, 82555, Note_on_c, 0, 91, 108
1, 82555, Note_on_c, 0, 94, 112
1, 82559, Note_on_c, 0, 86, 0
1, 82559, Note_on_c, 0, 75, 99
1, 82559, Note_on_c, 0, 70, 99
1, 82560, Tempo, 445005
1, 82681, Note_on_c, 0, 94, 0
1, 82682, Note_on_c, 0, 87, 0
1, 82685, Note_on_c, 0, 91, 0
1, 82760, Note_on_c, 0, 75, 0
1, 82760, Note_on_c, 0, 70, 0
1, 82761, Note_on_c, 0, 82, 0
1, 82765, Note_on_c, 0, 79, 0
1, 82800, Tempo, 424989
1, 82809, Control_c, 0, 64, 0
1, 83040, Tempo, 485005
1, 83280, Tempo, 495009
1, 83512, Note_on_c, 0, 70, 76
1, 83512, Note_on_c, 0, 68, 95
1, 83513, Note_on_c, 0, 82, 95
1, 83518, Note_on_c, 0, 77, 89
1, 83518, Note_on_c, 0, 53, 89
1, 83519, Note_on_c, 0, 62, 95
1, 83519, Note_on_c, 0, 74, 95
1, 83520, Tempo, 485005
1, 83520, Note_on_c, 0, 58, 95
1, 83521, Note_on_c, 0, 56, 95
1, 83535, Control_c, 0, 64, 127
1, 83569, Note_on_c, 0, 62, 0
1, 83575, Note_on_c, 0, 58, 0
1, 83581, Note_on_c, 0, 56, 0
1, 83581, Note_on_c, 0, 53, 0
1, 83633, Note_on_c, 0, 46, 105
1, 83637, Note_on_c, 0, 34, 105
1, 83658, Note_on_c, 0, 34, 0
1, 83667, Note_on_c, 0, 46, 0
1, 83699, Note_on_c, 0, 74, 0
1, 83703, Note_on_c, 0, 82, 0
1, 83705, Note_on_c, 0, 68, 0
1, 83706, Note_on_c, 0, 70, 0
1, 83708, Note_on_c, 0, 77, 0
1, 83760, Tempo, 520021
1, 84000, Tempo, 565025
1, 84028, Control_c, 0, 64, 0
1, 84240, Tempo, 515021
1, 84400, Control_c, 0, 64, 127
1, 84480, Tempo, 430015
1, 84480, Note_on_c, 0, 63, 110
1, 84480, Note_on_c, 0, 51, 95
1, 84480, Note_on_c, 0, 27, 110
1, 84480, Note_on_c, 0, 39, 107
1, 84608, Note_on_c, 0, 63, 0
1, 84613, Note_on_c, 0, 51, 0
1, 84720, Tempo, 445005
1, 84731, Note_on_c, 0, 87, 95
1, 84731, Note_on_c, 0, 79, 97
1, 84732, Note_on_c, 0, 82, 97
1, 84845, Note_on_c, 0, 82, 0
1, 84846, Note_on_c, 0, 91, 95
1, 84859, Note_on_c, 0, 79, 0
1, 84866, Note_on_c, 0, 87, 0
1, 84945, Note_on_c, 0, 58, 110
1, 84947, Note_on_c, 0, 46, 95
1, 84960, Tempo, 400000
1, 84961, Note_on_c, 0, 87, 89
1, 84963, Note_on_c, 0, 82, 97
1, 84964, Note_on_c, 0, 79, 79
1, 84992, Note_on_c, 0, 91, 0
1, 85064, Note_on_c, 0, 82, 0
1, 85067, Note_on_c, 0, 91, 89
1, 85073, Note_on_c, 0, 79, 0
1, 85088, Note_on_c, 0, 87, 0
1, 85178, Note_on_c, 0, 89, 77
1, 85178, Note_on_c, 0, 80, 79
1, 85182, Note_on_c, 0, 91, 0
1, 85186, Note_on_c, 0, 87, 65
1, 85200, Tempo, 465008
1, 85303, Note_on_c, 0, 92, 89
1, 85312, Note_on_c, 0, 80, 0
1, 85320, Note_on_c, 0, 87, 0
1, 85321, Note_on_c, 0, 89, 0
1, 85326, Note_on_c, 0, 46, 0
1, 85351, Note_on_c, 0, 58, 0
1, 85416, Note_on_c, 0, 91, 79
1, 85416, Note_on_c, 0, 82, 79
1, 85417, Note_on_c, 0, 87, 89
1, 85424, Note_on_c, 0, 63, 110
1, 85425, Note_on_c, 0, 51, 95
1, 85426, Note_on_c, 0, 58, 110
1, 85440, Tempo, 410004
1, 85471, Note_on_c, 0, 92, 0
1, 85533, Note_on_c, 0, 94, 79
1, 85545, Note_on_c, 0, 87, 0
1, 85548, Note_on_c, 0, 91, 0
1, 85571, Note_on_c, 0, 82, 0
1, 85600, Note_on_c, 0, 94, 0
1, 85655, Note_on_c, 0, 87, 89
1, 85655, Note_on_c, 0, 82, 110
1, 85657, Note_on_c, 0, 79, 95
1, 85680, Tempo, 424989
1, 85769, Note_on_c, 0, 82, 0
1, 85779, Note_on_c, 0, 91, 95
1, 85782, Note_on_c, 0, 87, 0
1, 85787, Note_on_c, 0, 79, 0
1, 85875, Note_on_c, 0, 39, 0
1, 85876, Note_on_c, 0, 27, 0
1, 85887, Note_on_c, 0, 87, 89
1, 85889, Note_on_c, 0, 82, 105
1, 85892, Note_on_c, 0, 79, 89
1, 85903, Note_on_c, 0, 39, 97
1, 85905, Note_on_c, 0, 34, 97
1, 85906, Note_on_c, 0, 27, 105
1, 85912, Note_on_c, 0, 91, 0
1, 85920, Tempo, 414995
1, 86007, Note_on_c, 0, 82, 0
1, 86008, Note_on_c, 0, 91, 73
1, 86011, Note_on_c, 0, 63, 0
1, 86017, Note_on_c, 0, 58, 0
1, 86019, Note_on_c, 0, 79, 0
1, 86023, Note_on_c, 0, 87, 0
1, 86035, Note_on_c, 0, 51, 0
1, 86127, Note_on_c, 0, 89, 95
1, 86128, Note_on_c, 0, 80, 95
1, 86130, Note_on_c, 0, 87, 89
1, 86135, Note_on_c, 0, 91, 0
1, 86139, Note_on_c, 0, 48, 110
1, 86160, Tempo, 435003
1, 86253, Note_on_c, 0, 51, 110
1, 86254, Note_on_c, 0, 92, 89
1, 86259, Note_on_c, 0, 89, 0
1, 86268, Note_on_c, 0, 87, 0
1, 86280, Note_on_c, 0, 80, 0
1, 86301, Note_on_c, 0, 48, 0
1, 86373, Note_on_c, 0, 91, 95
1, 86375, Note_on_c, 0, 82, 95
1, 86375, Note_on_c, 0, 55, 110
1, 86376, Note_on_c, 0, 87, 80
1, 86378, Note_on_c, 0, 92, 0
1, 86378, Note_on_c, 0, 43, 89
1, 86399, Note_on_c, 0, 51, 0
1, 86400, Tempo, 389990
1, 86404, Note_on_c, 0, 27, 0
1, 86405, Note_on_c, 0, 39, 0
1, 86407, Note_on_c, 0, 34, 0
1, 86490, Note_on_c, 0, 94, 89
1, 86504, Note_on_c, 0, 87, 0
1, 86510, Note_on_c, 0, 91, 0
1, 86523, Note_on_c, 0, 43, 0
1, 86524, Note_on_c, 0, 82, 0
1, 86533, Note_on_c, 0, 94, 0
1, 86561, Note_on_c, 0, 55, 0
1, 86606, Note_on_c, 0, 46, 95
1, 86611, Note_on_c, 0, 58, 110
1, 86619, Note_on_c, 0, 87, 89
1, 86620, Note_on_c, 0, 82, 95
1, 86621, Note_on_c, 0, 79, 80
1, 86640, Tempo, 424989
1, 86733, Note_on_c, 0, 91, 95
1, 86746, Note_on_c, 0, 82, 0
1, 86753, Note_on_c, 0, 87, 0
1, 86761, Note_on_c, 0, 79, 0
1, 86792, Note_on_c, 0, 58, 0
1, 86797, Note_on_c, 0, 46, 0
1, 86841, Note_on_c, 0, 58, 110
1, 86848, Note_on_c, 0, 87, 76
1, 86850, Note_on_c, 0, 82, 89
1, 86852, Note_on_c, 0, 79, 80
1, 86852, Note_on_c, 0, 46, 105
1, 86880, Tempo, 410004
1, 86881, Note_on_c, 0, 91, 0
1, 86964, Note_on_c, 0, 82, 0
1, 86965, Note_on_c, 0, 91, 89
1, 86974, Note_on_c, 0, 79, 0
1, 86983, Note_on_c, 0, 87, 0
1, 87027, Note_on_c, 0, 58, 0
1, 87063, Note_on_c, 0, 46, 0
1, 87079, Note_on_c, 0, 63, 110
1, 87080, Note_on_c, 0, 58, 97
1, 87083, Note_on_c, 0, 51, 95
1, 87083, Note_on_c, 0, 89, 89
1, 87083, Note_on_c, 0, 80, 65
1, 87089, Note_on_c, 0, 87, 64
1, 87098, Note_on_c, 0, 91, 0
1, 87120, Tempo, 445005
1, 87197, Note_on_c, 0, 92, 89
1, 87215, Note_on_c, 0, 89, 0
1, 87220, Note_on_c, 0, 87, 0
1, 87232, Note_on_c, 0, 80, 0
1, 87293, Note_on_c, 0, 63, 0
1, 87294, Note_on_c, 0, 51, 0
1, 87304, Note_on_c, 0, 58, 0
1, 87312, Note_on_c, 0, 82, 80
1, 87313, Note_on_c, 0, 87, 89
1, 87314, Note_on_c, 0, 91, 89
1, 87330, Note_on_c, 0, 92, 0
1, 87341, Note_on_c, 0, 63, 110
1, 87342, Note_on_c, 0, 58, 105
1, 87344, Note_on_c, 0, 51, 89
1, 87360, Tempo, 404995
1, 87440, Note_on_c, 0, 94, 89
1, 87457, Note_on_c, 0, 87, 0
1, 87464, Note_on_c, 0, 91, 0
1, 87480, Note_on_c, 0, 82, 0
1, 87488, Note_on_c, 0, 94, 0
1, 87569, Note_on_c, 0, 87, 89
1, 87570, Note_on_c, 0, 79, 73
1, 87570, Note_on_c, 0, 82, 73
1, 87600, Tempo, 380011
1, 87688, Note_on_c, 0, 91, 89
1, 87705, Note_on_c, 0, 82, 0
1, 87709, Note_on_c, 0, 87, 0
1, 87710, Note_on_c, 0, 79, 0
1, 87810, Note_on_c, 0, 87, 80
1, 87812, Note_on_c, 0, 82, 105
1, 87813, Note_on_c, 0, 79, 89
1, 87835, Note_on_c, 0, 39, 95
1, 87835, Note_on_c, 0, 27, 110
1, 87836, Note_on_c, 0, 34, 77
1, 87840, Tempo, 410004
1, 87844, Note_on_c, 0, 91, 0
1, 87933, Note_on_c, 0, 58, 0
1, 87934, Note_on_c, 0, 63, 0
1, 87946, Note_on_c, 0, 82, 0
1, 87948, Note_on_c, 0, 91, 89
1, 87958, Note_on_c, 0, 51, 0
1, 87967, Note_on_c, 0, 79, 0
1, 87971, Note_on_c, 0, 87, 0
1, 88064, Note_on_c, 0, 89, 77
1, 88064, Note_on_c, 0, 80, 77
1, 88066, Note_on_c, 0, 87, 73
1, 88071, Note_on_c, 0, 91, 0
1, 88071, Note_on_c, 0, 48, 110
1, 88080, Tempo, 414995
1, 88189, Note_on_c, 0, 51, 110
1, 88200, Note_on_c, 0, 92, 95
1, 88205, Note_on_c, 0, 89, 0
1, 88216, Note_on_c, 0, 87, 0
1, 88230, Note_on_c, 0, 80, 0
1, 88315, Note_on_c, 0, 91, 89
1, 88317, Note_on_c, 0, 82, 89
1, 88317, Note_on_c, 0, 87, 89
1, 88320, Time_signature, 2, 2, 24, 8
1, 88320, Tempo, 404995
1, 88321, Note_on_c, 0, 55, 110
1, 88324, Note_on_c, 0, 43, 89
1, 88358, Note_on_c, 0, 34, 0
1, 88358, Note_on_c, 0, 39, 0
1, 88366, Note_on_c, 0, 27, 0
1, 88369, Note_on_c, 0, 92, 0
1, 88432, Note_on_c, 0, 51, 0
1, 88437, Note_on_c, 0, 94, 89
1, 88439, Note_on_c, 0, 48, 0
1, 88449, Note_on_c, 0, 87, 0
1, 88460, Note_on_c, 0, 91, 0
1, 88469, Note_on_c, 0, 82, 0
1, 88481, Note_on_c, 0, 43, 0
1, 88481, Note_on_c, 0, 94, 0
1, 88526, Note_on_c, 0, 55, 0
1, 88555, Note_on_c, 0, 58, 110
1, 88558, Note_on_c, 0, 46, 95
1, 88560, Tempo, 419992
1, 88564, Note_on_c, 0, 87, 89
1, 88565, Note_on_c, 0, 82, 89
1, 88565, Note_on_c, 0, 79, 95
1, 88681, Note_on_c, 0, 91, 95
1, 88688, Note_on_c, 0, 58, 0
1, 88690, Note_on_c, 0, 82, 0
1, 88701, Note_on_c, 0, 79, 0
1, 88701, Note_on_c, 0, 87, 0
1, 88732, Note_on_c, 0, 46, 0
1, 88786, Note_on_c, 0, 87, 76
1, 88787, Note_on_c, 0, 82, 95
1, 88790, Note_on_c, 0, 79, 89
1, 88793, Note_on_c, 0, 58, 110
1, 88799, Note_on_c, 0, 46, 95
1, 88800, Tempo, 419992
1, 88823, Note_on_c, 0, 91, 0
1, 88910, Note_on_c, 0, 91, 77
1, 88919, Note_on_c, 0, 82, 0
1, 88924, Note_on_c, 0, 79, 0
1, 88931, Note_on_c, 0, 87, 0
1, 88975, Note_on_c, 0, 58, 0
1, 88993, Note_on_c, 0, 46, 0
1, 89014, Note_on_c, 0, 91, 0
1, 89021, Note_on_c, 0, 89, 75
1, 89022, Note_on_c, 0, 80, 77
1, 89024, Note_on_c, 0, 87, 77
1, 89031, Note_on_c, 0, 63, 110
1, 89035, Note_on_c, 0, 58, 105
1, 89036, Note_on_c, 0, 51, 95
1, 89040, Tempo, 435003
1, 89139, Note_on_c, 0, 92, 89
1, 89141, Note_on_c, 0, 89, 0
1, 89155, Note_on_c, 0, 87, 0
1, 89160, Note_on_c, 0, 80, 0
1, 89220, Note_on_c, 0, 63, 0
1, 89221, Note_on_c, 0, 51, 0
1, 89228, Note_on_c, 0, 58, 0
1, 89259, Note_on_c, 0, 82, 76
1, 89260, Note_on_c, 0, 87, 75
1, 89276, Note_on_c, 0, 63, 110
1, 89278, Note_on_c, 0, 58, 95
1, 89280, Time_signature, 2, 1, 48, 8
1, 89280, Tempo, 410004
1, 89281, Note_on_c, 0, 51, 107
1, 89302, Note_on_c, 0, 91, 89
1, 89314, Note_on_c, 0, 92, 0
1, 89394, Note_on_c, 0, 94, 89
1, 89409, Note_on_c, 0, 82, 0
1, 89411, Note_on_c, 0, 87, 0
1, 89419, Note_on_c, 0, 91, 0
1, 89434, Note_on_c, 0, 94, 0
1, 89504, Note_on_c, 0, 82, 97
1, 89505, Note_on_c, 0, 75, 95
1, 89520, Tempo, 430015
1, 89555, Note_on_c, 0, 51, 0
1, 89629, Note_on_c, 0, 87, 89
1, 89648, Note_on_c, 0, 75, 0
1, 89650, Note_on_c, 0, 82, 0
1, 89736, Note_on_c, 0, 82, 80
1, 89738, Note_on_c, 0, 75, 79
1, 89760, Tempo, 450011
1, 89763, Note_on_c, 0, 87, 0
1, 89766, Note_on_c, 0, 67, 110
1, 89766, Note_on_c, 0, 55, 97
1, 89768, Note_on_c, 0, 63, 0
1, 89769, Note_on_c, 0, 58, 0
1, 89877, Note_on_c, 0, 87, 89
1, 89900, Note_on_c, 0, 82, 0
1, 89912, Note_on_c, 0, 75, 0
1, 89937, Note_on_c, 0, 87, 0
1, 89989, Note_on_c, 0, 27, 110
1, 89992, Note_on_c, 0, 39, 95
1, 89996, Note_on_c, 0, 82, 79
1, 89996, Note_on_c, 0, 75, 89
1, 89998, Note_on_c, 0, 74, 75
1, 90000, Tempo, 430015
1, 90068, Note_on_c, 0, 67, 0
1, 90095, Note_on_c, 0, 55, 0
1, 90112, Note_on_c, 0, 86, 89
1, 90122, Note_on_c, 0, 75, 0
1, 90134, Note_on_c, 0, 74, 0
1, 90139, Note_on_c, 0, 82, 0
1, 90232, Note_on_c, 0, 60, 110
1, 90234, Note_on_c, 0, 48, 95
1, 90234, Note_on_c, 0, 82, 89
1, 90239, Note_on_c, 0, 75, 95
1, 90240, Tempo, 435003
1, 90242, Note_on_c, 0, 74, 79
1, 90270, Note_on_c, 0, 86, 0
1, 90357, Note_on_c, 0, 86, 95
1, 90383, Note_on_c, 0, 75, 0
1, 90388, Note_on_c, 0, 82, 0
1, 90399, Note_on_c, 0, 74, 0
1, 90450, Note_on_c, 0, 86, 0
1, 90472, Note_on_c, 0, 80, 89
1, 90475, Note_on_c, 0, 75, 95
1, 90480, Tempo, 440012
1, 90480, Note_on_c, 0, 72, 89
1, 90597, Note_on_c, 0, 84, 95
1, 90604, Note_on_c, 0, 75, 0
1, 90609, Note_on_c, 0, 80, 0
1, 90621, Note_on_c, 0, 72, 0
1, 90659, Note_on_c, 0, 48, 0
1, 90678, Note_on_c, 0, 60, 0
1, 90711, Note_on_c, 0, 80, 79
1, 90711, Note_on_c, 0, 72, 89
1, 90712, Note_on_c, 0, 75, 95
1, 90720, Tempo, 404995
1, 90730, Note_on_c, 0, 63, 110
1, 90734, Note_on_c, 0, 51, 89
1, 90751, Note_on_c, 0, 84, 0
1, 90837, Note_on_c, 0, 84, 65
1, 90857, Note_on_c, 0, 80, 0
1, 90862, Note_on_c, 0, 75, 0
1, 90869, Note_on_c, 0, 27, 0
1, 90870, Note_on_c, 0, 39, 0
1, 90883, Note_on_c, 0, 72, 0
1, 90904, Note_on_c, 0, 84, 0
1, 90954, Note_on_c, 0, 79, 80
1, 90955, Note_on_c, 0, 75, 79
1, 90956, Note_on_c, 0, 70, 77
1, 90960, Tempo, 394997
1, 90961, Note_on_c, 0, 39, 95
1, 90964, Note_on_c, 0, 27, 100
1, 91075, Note_on_c, 0, 82, 89
1, 91089, Note_on_c, 0, 75, 0
1, 91095, Note_on_c, 0, 63, 0
1, 91096, Note_on_c, 0, 79, 0
1, 91099, Note_on_c, 0, 70, 0
1, 91111, Note_on_c, 0, 51, 0
1, 91190, Note_on_c, 0, 58, 110
1, 91194, Note_on_c, 0, 46, 105
1, 91198, Note_on_c, 0, 70, 95
1, 91199, Note_on_c, 0, 79, 95
1, 91200, Tempo, 414995
1, 91201, Note_on_c, 0, 75, 80
1, 91225, Note_on_c, 0, 82, 0
1, 91314, Note_on_c, 0, 82, 79
1, 91335, Note_on_c, 0, 27, 0
1, 91338, Note_on_c, 0, 75, 0
1, 91356, Note_on_c, 0, 39, 0
1, 91368, Note_on_c, 0, 70, 0
1, 91395, Note_on_c, 0, 82, 0
1, 91405, Note_on_c, 0, 79, 0
1, 91427, Note_on_c, 0, 75, 89
1, 91429, Note_on_c, 0, 68, 95
1, 91440, Tempo, 445005
1, 91554, Note_on_c, 0, 80, 89
1, 91575, Note_on_c, 0, 75, 0
1, 91580, Note_on_c, 0, 68, 0
1, 91670, Note_on_c, 0, 75, 80
1, 91672, Note_on_c, 0, 68, 89
1, 91675, Note_on_c, 0, 60, 110
1, 91678, Note_on_c, 0, 58, 0
1, 91680, Tempo, 385010
1, 91686, Note_on_c, 0, 48, 89
1, 91687, Note_on_c, 0, 46, 0
1, 91698, Note_on_c, 0, 80, 0
1, 91795, Note_on_c, 0, 80, 77
1, 91819, Note_on_c, 0, 75, 0
1, 91848, Note_on_c, 0, 48, 0
1, 91851, Note_on_c, 0, 60, 0
1, 91853, Note_on_c, 0, 68, 0
1, 91910, Note_on_c, 0, 58, 110
1, 91915, Note_on_c, 0, 75, 73
1, 91917, Note_on_c, 0, 80, 0
1, 91919, Note_on_c, 0, 67, 95
1, 91920, Tempo, 400000
1, 91920, Note_on_c, 0, 46, 89
1, 92035, Note_on_c, 0, 79, 89
1, 92059, Note_on_c, 0, 75, 0
1, 92103, Note_on_c, 0, 46, 0
1, 92104, Note_on_c, 0, 58, 0
1, 92148, Note_on_c, 0, 44, 95
1, 92149, Note_on_c, 0, 79, 0
1, 92149, Note_on_c, 0, 56, 110
1, 92158, Note_on_c, 0, 70, 89
1, 92160, Tempo, 410004
1, 92162, Note_on_c, 0, 67, 0
1, 92280, Note_on_c, 0, 65, 73
1, 92293, Note_on_c, 0, 70, 0
1, 92332, Note_on_c, 0, 44, 0
1, 92340, Note_on_c, 0, 56, 0
1, 92380, Note_on_c, 0, 55, 110
1, 92382, Note_on_c, 0, 43, 80
1, 92400, Tempo, 430015
1, 92403, Note_on_c, 0, 70, 89
1, 92409, Note_on_c, 0, 72, 65
1, 92414, Note_on_c, 0, 65, 0
1, 92524, Note_on_c, 0, 60, 73
1, 92544, Note_on_c, 0, 70, 0
1, 92558, Note_on_c, 0, 72, 0
1, 92602, Note_on_c, 0, 43, 0
1, 92603, Note_on_c, 0, 55, 0
1, 92627, Note_on_c, 0, 53, 110
1, 92629, Note_on_c, 0, 41, 110
1, 92634, Note_on_c, 0, 70, 95
1, 92635, Note_on_c, 0, 72, 89
1, 92640, Tempo, 414995
1, 92672, Note_on_c, 0, 60, 0
1, 92753, Note_on_c, 0, 60, 77
1, 92761, Note_on_c, 0, 72, 0
1, 92842, Note_on_c, 0, 70, 0
1, 92869, Note_on_c, 0, 68, 95
1, 92869, Note_on_c, 0, 74, 89
1, 92880, Tempo, 430015
1, 92883, Note_on_c, 0, 60, 0
1, 92986, Note_on_c, 0, 62, 69
1, 92990, Note_on_c, 0, 68, 0
1, 92993, Note_on_c, 0, 74, 0
1, 93069, Note_on_c, 0, 62, 0
1, 93082, Control_c, 0, 64, 0
1, 93090, Note_on_c, 0, 41, 0
1, 93094, Note_on_c, 0, 53, 0
1, 93102, Note_on_c, 0, 67, 89
1, 93103, Note_on_c, 0, 75, 95
1, 93114, Note_on_c, 0, 51, 110
1, 93116, Note_on_c, 0, 39, 107
1, 93120, Tempo, 410004
1, 93133, Control_c, 0, 64, 127
1, 93237, Note_on_c, 0, 63, 73
1, 93244, Note_on_c, 0, 67, 0
1, 93271, Note_on_c, 0, 75, 0
1, 93309, Note_on_c, 0, 63, 0
1, 93343, Note_on_c, 0, 75, 89
1, 93344, Note_on_c, 0, 70, 80
1, 93360, Tempo, 404995
1, 93470, Note_on_c, 0, 63, 77
1, 93478, Note_on_c, 0, 70, 0
1, 93500, Note_on_c, 0, 75, 0
1, 93575, Note_on_c, 0, 51, 0
1, 93582, Note_on_c, 0, 70, 89
1, 93582, Note_on_c, 0, 75, 95
1, 93589, Note_on_c, 0, 39, 0
1, 93600, Tempo, 410004
1, 93600, Note_on_c, 0, 55, 110
1, 93600, Note_on_c, 0, 43, 110
1, 93607, Note_on_c, 0, 63, 0
1, 93703, Note_on_c, 0, 63, 77
1, 93717, Note_on_c, 0, 70, 0
1, 93718, Note_on_c, 0, 75, 0
1, 93768, Note_on_c, 0, 63, 0
1, 93819, Note_on_c, 0, 70, 77
1, 93819, Note_on_c, 0, 77, 89
1, 93840, Tempo, 419992
1, 93955, Note_on_c, 0, 65, 73
1, 93963, Note_on_c, 0, 70, 0
1, 93983, Note_on_c, 0, 77, 0
1, 94058, Note_on_c, 0, 43, 0
1, 94068, Note_on_c, 0, 65, 0
1, 94072, Note_on_c, 0, 55, 0
1, 94072, Note_on_c, 0, 70, 89
1, 94072, Note_on_c, 0, 79, 107
1, 94080, Tempo, 410004
1, 94080, Note_on_c, 0, 50, 110
1, 94083, Note_on_c, 0, 38, 105
1, 94199, Note_on_c, 0, 67, 77
1, 94204, Note_on_c, 0, 79, 0
1, 94228, Note_on_c, 0, 70, 0
1, 94253, Note_on_c, 0, 67, 0
1, 94317, Note_on_c, 0, 67, 95
1, 94320, Tempo, 435003
1, 94321, Note_on_c, 0, 63, 89
1, 94445, Note_on_c, 0, 58, 89
1, 94463, Note_on_c, 0, 63, 0
1, 94471, Note_on_c, 0, 67, 0
1, 94558, Note_on_c, 0, 63, 89
1, 94558, Note_on_c, 0, 67, 89
1, 94559, Note_on_c, 0, 48, 110
1, 94560, Tempo, 410004
1, 94560, Note_on_c, 0, 36, 95
1, 94582, Note_on_c, 0, 50, 0
1, 94586, Note_on_c, 0, 38, 0
1, 94592, Note_on_c, 0, 58, 0
1, 94679, Note_on_c, 0, 58, 69
1, 94681, Note_on_c, 0, 63, 0
1, 94755, Note_on_c, 0, 67, 0
1, 94786, Note_on_c, 0, 58, 0
1, 94791, Note_on_c, 0, 65, 76
1, 94793, Note_on_c, 0, 68, 75
1, 94800, Tempo, 435003
1, 94913, Note_on_c, 0, 60, 77
1, 94945, Note_on_c, 0, 65, 0
1, 94968, Note_on_c, 0, 68, 0
1, 95012, Control_c, 0, 64, 0
1, 95031, Note_on_c, 0, 67, 105
1, 95035, Note_on_c, 0, 70, 89
1, 95040, Tempo, 410004
1, 95040, Note_on_c, 0, 46, 110
1, 95046, Note_on_c, 0, 34, 97
1, 95056, Note_on_c, 0, 60, 0
1, 95060, Control_c, 0, 64, 127
1, 95071, Note_on_c, 0, 48, 0
1, 95075, Note_on_c, 0, 36, 0
1, 95160, Note_on_c, 0, 62, 65
1, 95170, Note_on_c, 0, 67, 0
1, 95180, Note_on_c, 0, 70, 0
1, 95218, Note_on_c, 0, 62, 0
1, 95276, Note_on_c, 0, 60, 76
1, 95278, Note_on_c, 0, 63, 80
1, 95280, Tempo, 465008
1, 95405, Note_on_c, 0, 55, 73
1, 95424, Note_on_c, 0, 60, 0
1, 95434, Note_on_c, 0, 63, 0
1, 95520, Tempo, 375000
1, 95530, Note_on_c, 0, 60, 73
1, 95532, Note_on_c, 0, 63, 75
1, 95555, Note_on_c, 0, 55, 0
1, 95648, Note_on_c, 0, 53, 73
1, 95693, Note_on_c, 0, 63, 0
1, 95713, Note_on_c, 0, 60, 0
1, 95716, Control_c, 0, 64, 0
1, 95724, Note_on_c, 0, 34, 0
1, 95728, Note_on_c, 0, 53, 0
1, 95733, Note_on_c, 0, 46, 0
1, 95743, Note_on_c, 0, 44, 89
1, 95746, Note_on_c, 0, 32, 75
1, 95760, Tempo, 454994
1, 95761, Note_on_c, 0, 63, 65
1, 95761, Note_on_c, 0, 65, 77
1, 95764, Control_c, 0, 64, 127
1, 95869, Note_on_c, 0, 60, 65
1, 95873, Note_on_c, 0, 65, 0
1, 95880, Note_on_c, 0, 63, 0
1, 95960, Control_c, 0, 64, 0
1, 95981, Note_on_c, 0, 44, 0
1, 95986, Note_on_c, 0, 32, 0
1, 95990, Note_on_c, 0, 67, 73
1, 95992, Control_c, 0, 64, 127
1, 95993, Note_on_c, 0, 43, 89
1, 95996, Note_on_c, 0, 63, 79
1, 95998, Note_on_c, 0, 31, 73
1, 96000, Tempo, 385010
1, 96017, Note_on_c, 0, 60, 0
1, 96120, Note_on_c, 0, 58, 57
1, 96135, Note_on_c, 0, 67, 0
1, 96162, Note_on_c, 0, 63, 0
1, 96192, Note_on_c, 0, 43, 0
1, 96195, Note_on_c, 0, 31, 0
1, 96195, Control_c, 0, 64, 0
1, 96226, Note_on_c, 0, 34, 73
1, 96229, Note_on_c, 0, 46, 79
1, 96238, Note_on_c, 0, 60, 65
1, 96240, Tempo, 424989
1, 96240, Control_c, 0, 64, 127
1, 96252, Note_on_c, 0, 58, 0
1, 96343, Note_on_c, 0, 60, 0
1, 96348, Note_on_c, 0, 57, 65
1, 96426, Control_c, 0, 64, 0
1, 96466, Note_on_c, 0, 34, 0
1, 96468, Note_on_c, 0, 60, 73
1, 96471, Note_on_c, 0, 46, 0
1, 96475, Note_on_c, 0, 29, 53
1, 96475, Note_on_c, 0, 41, 73
1, 96480, Tempo, 435003
1, 96482, Note_on_c, 0, 57, 0
1, 96535, Control_c, 0, 64, 127
1, 96589, Note_on_c, 0, 56, 73
1, 96612, Note_on_c, 0, 60, 0
1, 96700, Note_on_c, 0, 56, 0
1, 96716, Note_on_c, 0, 62, 73
1, 96720, Tempo, 414995
1, 96827, Note_on_c, 0, 58, 73
1, 96832, Note_on_c, 0, 62, 0
1, 96859, Control_c, 0, 64, 0
1, 96938, Note_on_c, 0, 27, 57
1, 96947, Note_on_c, 0, 29, 0
1, 96954, Note_on_c, 0, 39, 62
1, 96960, Tempo, 375000
1, 96961, Note_on_c, 0, 41, 0
1, 96963, Note_on_c, 0, 63, 89
1, 96965, Note_on_c, 0, 55, 73
1, 96967, Note_on_c, 0, 58, 0
1, 96967, Control_c, 0, 64, 127
1, 97041, Note_on_c, 0, 63, 0
1, 97053, Note_on_c, 0, 55, 0
1, 97186, Note_on_c, 0, 55, 65
1, 97195, Note_on_c, 0, 51, 53
1, 97200, Tempo, 414995
1, 97316, Note_on_c, 0, 58, 56
1, 97329, Note_on_c, 0, 51, 0
1, 97329, Note_on_c, 0, 55, 0
1, 97430, Note_on_c, 0, 51, 53
1, 97432, Note_on_c, 0, 55, 57
1, 97434, Note_on_c, 0, 58, 0
1, 97440, Tempo, 375000
1, 97552, Note_on_c, 0, 51, 0
1, 97561, Note_on_c, 0, 58, 49
1, 97565, Note_on_c, 0, 55, 0
1, 97653, Note_on_c, 0, 58, 0
1, 97654, Note_on_c, 0, 39, 0
1, 97654, Note_on_c, 0, 56, 57
1, 97668, Note_on_c, 0, 53, 44
1, 97670, Note_on_c, 0, 27, 0
1, 97676, Note_on_c, 0, 34, 49
1, 97680, Tempo, 414995
1, 97759, Note_on_c, 0, 56, 0
1, 97786, Note_on_c, 0, 53, 0
1, 97790, Note_on_c, 0, 58, 45
1, 97905, Note_on_c, 0, 34, 0
1, 97910, Note_on_c, 0, 58, 0
1, 97913, Note_on_c, 0, 55, 41
1, 97916, Note_on_c, 0, 51, 54
1, 97919, Note_on_c, 0, 39, 61
1, 97920, Tempo, 410004
1, 97921, Note_on_c, 0, 46, 57
1, 98042, Note_on_c, 0, 55, 0
1, 98042, Note_on_c, 0, 58, 49
1, 98053, Note_on_c, 0, 51, 0
1, 98099, Note_on_c, 0, 58, 0
1, 98160, Tempo, 400000
1, 98165, Note_on_c, 0, 55, 41
1, 98169, Note_on_c, 0, 51, 28
1, 98281, Note_on_c, 0, 58, 49
1, 98301, Note_on_c, 0, 51, 0
1, 98305, Note_on_c, 0, 55, 0
1, 98396, Note_on_c, 0, 51, 49
1, 98399, Note_on_c, 0, 55, 57
1, 98400, Tempo, 400000
1, 98408, Note_on_c, 0, 58, 0
1, 98517, Note_on_c, 0, 51, 0
1, 98518, Note_on_c, 0, 58, 49
1, 98549, Note_on_c, 0, 55, 0
1, 98617, Note_on_c, 0, 56, 57
1, 98622, Note_on_c, 0, 58, 0
1, 98636, Note_on_c, 0, 53, 29
1, 98640, Tempo, 454994
1, 98640, Note_on_c, 0, 70, 69
1, 98749, Note_on_c, 0, 58, 53
1, 98758, Note_on_c, 0, 56, 0
1, 98761, Note_on_c, 0, 53, 0
1, 98829, Note_on_c, 0, 70, 0
1, 98859, Note_on_c, 0, 39, 0
1, 98860, Note_on_c, 0, 46, 0
1, 98872, Note_on_c, 0, 55, 56
1, 98873, Note_on_c, 0, 51, 54
1, 98877, Note_on_c, 0, 58, 0
1, 98880, Tempo, 414995
1, 98881, Note_on_c, 0, 63, 65
1, 99007, Note_on_c, 0, 55, 0
1, 99009, Note_on_c, 0, 58, 41
1, 99011, Note_on_c, 0, 51, 0
1, 99052, Note_on_c, 0, 58, 0
1, 99118, Note_on_c, 0, 51, 46
1, 99119, Note_on_c, 0, 55, 49
1, 99120, Tempo, 365008
1, 99239, Note_on_c, 0, 58, 53
1, 99250, Note_on_c, 0, 55, 0
1, 99259, Note_on_c, 0, 51, 0
1, 99360, Tempo, 385010
1, 99360, Note_on_c, 0, 51, 47
1, 99362, Note_on_c, 0, 34, 57
1, 99369, Note_on_c, 0, 55, 48
1, 99372, Note_on_c, 0, 58, 0
1, 99478, Note_on_c, 0, 58, 53
1, 99489, Note_on_c, 0, 51, 0
1, 99509, Note_on_c, 0, 55, 0
1, 99521, Note_on_c, 0, 34, 0
1, 99567, Control_c, 0, 64, 0
1, 99573, Note_on_c, 0, 63, 0
1, 99586, Note_on_c, 0, 46, 57
1, 99587, Note_on_c, 0, 58, 0
1, 99589, Note_on_c, 0, 56, 61
1, 99593, Note_on_c, 0, 41, 64
1, 99597, Note_on_c, 0, 50, 55
1, 99600, Tempo, 430015
1, 99612, Control_c, 0, 64, 127
1, 99710, Note_on_c, 0, 50, 0
1, 99721, Note_on_c, 0, 58, 46
1, 99731, Note_on_c, 0, 56, 0
1, 99776, Note_on_c, 0, 46, 0
1, 99798, Note_on_c, 0, 41, 0
1, 99799, Control_c, 0, 64, 0
1, 99829, Note_on_c, 0, 58, 0
1, 99831, Note_on_c, 0, 51, 57
1, 99831, Note_on_c, 0, 55, 56
1, 99840, Tempo, 389990
1, 99847, Note_on_c, 0, 46, 63
1, 99849, Control_c, 0, 64, 127
1, 99849, Note_on_c, 0, 39, 54
1, 99961, Note_on_c, 0, 55, 0
1, 99963, Note_on_c, 0, 58, 47
1, 99966, Note_on_c, 0, 51, 0
1, 100019, Note_on_c, 0, 58, 0
1, 100079, Note_on_c, 0, 51, 41
1, 100080, Tempo, 430015
1, 100080, Note_on_c, 0, 55, 44
1, 100202, Note_on_c, 0, 51, 0
1, 100202, Note_on_c, 0, 58, 53
1, 100220, Note_on_c, 0, 55, 0
1, 100317, Note_on_c, 0, 51, 55
1, 100320, Tempo, 404995
1, 100325, Note_on_c, 0, 58, 0
1, 100325, Note_on_c, 0, 55, 49
1, 100329, Note_on_c, 0, 70, 73
1, 100403, Note_on_c, 0, 46, 0
1, 100416, Note_on_c, 0, 39, 0
1, 100449, Note_on_c, 0, 51, 0
1, 100451, Note_on_c, 0, 58, 61
1, 100469, Note_on_c, 0, 55, 0
1, 100542, Note_on_c, 0, 70, 0
1, 100559, Note_on_c, 0, 58, 0
1, 100560, Tempo, 430015
1, 100560, Note_on_c, 0, 56, 57
1, 100561, Note_on_c, 0, 72, 73
1, 100565, Note_on_c, 0, 53, 61
1, 100668, Note_on_c, 0, 53, 0
1, 100682, Note_on_c, 0, 58, 46
1, 100687, Note_on_c, 0, 56, 0
1, 100780, Note_on_c, 0, 72, 0
1, 100800, Tempo, 435003
1, 100803, Note_on_c, 0, 63, 73
1, 100808, Note_on_c, 0, 51, 61
1, 100808, Note_on_c, 0, 55, 49
1, 100815, Note_on_c, 0, 58, 0
1, 100873, Note_on_c, 0, 55, 0
1, 100873, Note_on_c, 0, 51, 0
1, 101021, Note_on_c, 0, 39, 62
1, 101027, Note_on_c, 0, 27, 61
1, 101040, Tempo, 430015
1, 101054, Note_on_c, 0, 80, 65
1, 101055, Note_on_c, 0, 89, 80
1, 101167, Note_on_c, 0, 91, 89
1, 101186, Note_on_c, 0, 27, 0
1, 101194, Note_on_c, 0, 39, 0
1, 101197, Note_on_c, 0, 80, 0
1, 101199, Note_on_c, 0, 89, 0
1, 101280, Tempo, 445005
1, 101283, Note_on_c, 0, 34, 65
1, 101287, Note_on_c, 0, 46, 79
1, 101300, Note_on_c, 0, 87, 73
1, 101302, Note_on_c, 0, 91, 0
1, 101317, Note_on_c, 0, 79, 53
1, 101397, Note_on_c, 0, 79, 0
1, 101398, Note_on_c, 0, 91, 73
1, 101402, Note_on_c, 0, 34, 0
1, 101422, Note_on_c, 0, 46, 0
1, 101472, Note_on_c, 0, 87, 0
1, 101508, Note_on_c, 0, 39, 73
1, 101511, Note_on_c, 0, 80, 89
1, 101512, Note_on_c, 0, 89, 80
1, 101514, Note_on_c, 0, 51, 64
1, 101520, Tempo, 445005
1, 101534, Note_on_c, 0, 91, 0
1, 101631, Note_on_c, 0, 91, 89
1, 101645, Note_on_c, 0, 39, 0
1, 101662, Note_on_c, 0, 80, 0
1, 101663, Note_on_c, 0, 89, 0
1, 101665, Note_on_c, 0, 51, 0
1, 101746, Note_on_c, 0, 87, 79
1, 101753, Note_on_c, 0, 79, 89
1, 101756, Note_on_c, 0, 46, 77
1, 101760, Tempo, 410004
1, 101761, Note_on_c, 0, 58, 65
1, 101770, Note_on_c, 0, 91, 0
1, 101867, Note_on_c, 0, 79, 0
1, 101867, Note_on_c, 0, 91, 77
1, 101903, Note_on_c, 0, 63, 0
1, 101980, Note_on_c, 0, 87, 0
1, 101982, Note_on_c, 0, 89, 80
1, 101985, Note_on_c, 0, 80, 89
1, 101997, Note_on_c, 0, 91, 0
1, 102000, Tempo, 385010
1, 102009, Note_on_c, 0, 46, 0
1, 102010, Note_on_c, 0, 60, 65
1, 102011, Note_on_c, 0, 58, 0
1, 102101, Note_on_c, 0, 91, 107
1, 102108, Note_on_c, 0, 63, 65
1, 102132, Note_on_c, 0, 89, 0
1, 102133, Note_on_c, 0, 60, 0
1, 102142, Note_on_c, 0, 80, 0
1, 102219, Note_on_c, 0, 87, 89
1, 102225, Note_on_c, 0, 79, 95
1, 102234, Note_on_c, 0, 67, 89
1, 102237, Note_on_c, 0, 55, 73
1, 102240, Tempo, 404995
1, 102240, Note_on_c, 0, 63, 0
1, 102242, Note_on_c, 0, 91, 0
1, 102340, Note_on_c, 0, 91, 89
1, 102343, Note_on_c, 0, 79, 0
1, 102363, Note_on_c, 0, 55, 0
1, 102416, Note_on_c, 0, 67, 0
1, 102450, Note_on_c, 0, 89, 89
1, 102451, Note_on_c, 0, 80, 95
1, 102468, Note_on_c, 0, 58, 74
1, 102470, Note_on_c, 0, 70, 100
1, 102475, Note_on_c, 0, 87, 0
1, 102478, Note_on_c, 0, 91, 0
1, 102480, Tempo, 389990
1, 102580, Note_on_c, 0, 91, 105
1, 102609, Note_on_c, 0, 89, 0
1, 102625, Note_on_c, 0, 80, 0
1, 102686, Note_on_c, 0, 58, 0
1, 102697, Note_on_c, 0, 87, 89
1, 102702, Note_on_c, 0, 79, 110
1, 102705, Note_on_c, 0, 70, 0
1, 102713, Note_on_c, 0, 75, 91
1, 102714, Note_on_c, 0, 63, 106
1, 102720, Tempo, 345006
1, 102727, Note_on_c, 0, 91, 0
1, 102827, Note_on_c, 0, 91, 105
1, 102851, Note_on_c, 0, 79, 0
1, 102940, Note_on_c, 0, 89, 95
1, 102945, Note_on_c, 0, 80, 95
1, 102953, Note_on_c, 0, 63, 0
1, 102955, Note_on_c, 0, 75, 0
1, 102958, Note_on_c, 0, 91, 0
1, 102960, Tempo, 359993
1, 102961, Note_on_c, 0, 58, 99
1, 102963, Note_on_c, 0, 70, 99
1, 102967, Note_on_c, 0, 87, 0
1, 103067, Note_on_c, 0, 91, 95
1, 103095, Note_on_c, 0, 89, 0
1, 103109, Note_on_c, 0, 80, 0
1, 103161, Note_on_c, 0, 58, 0
1, 103177, Note_on_c, 0, 70, 0
1, 103183, Note_on_c, 0, 67, 95
1, 103189, Note_on_c, 0, 55, 89
1, 103200, Tempo, 400000
1, 103201, Note_on_c, 0, 87, 95
1, 103204, Note_on_c, 0, 79, 107
1, 103226, Note_on_c, 0, 91, 0
1, 103292, Note_on_c, 0, 87, 0
1, 103303, Note_on_c, 0, 79, 0
1, 103412, Note_on_c, 0, 55, 0
1, 103417, Note_on_c, 0, 67, 0
1, 103425, Note_on_c, 0, 68, 95
1, 103426, Note_on_c, 0, 77, 89
1, 103433, Note_on_c, 0, 63, 95
1, 103434, Note_on_c, 0, 51, 80
1, 103440, Tempo, 394997
1, 103547, Note_on_c, 0, 79, 89
1, 103557, Note_on_c, 0, 68, 0
1, 103585, Note_on_c, 0, 77, 0
1, 103653, Note_on_c, 0, 51, 0
1, 103653, Note_on_c, 0, 75, 89
1, 103659, Note_on_c, 0, 67, 89
1, 103668, Note_on_c, 0, 48, 85
1, 103668, Note_on_c, 0, 60, 96
1, 103669, Note_on_c, 0, 63, 0
1, 103676, Note_on_c, 0, 79, 0
1, 103680, Tempo, 424989
1, 103777, Note_on_c, 0, 79, 89
1, 103786, Note_on_c, 0, 67, 0
1, 103884, Note_on_c, 0, 75, 0
1, 103894, Note_on_c, 0, 77, 89
1, 103895, Note_on_c, 0, 68, 95
1, 103905, Note_on_c, 0, 58, 89
1, 103907, Note_on_c, 0, 46, 95
1, 103916, Note_on_c, 0, 48, 0
1, 103919, Note_on_c, 0, 79, 0
1, 103920, Tempo, 419992
1, 103930, Note_on_c, 0, 60, 0
1, 104021, Note_on_c, 0, 55, 91
1, 104030, Note_on_c, 0, 79, 95
1, 104050, Note_on_c, 0, 58, 0
1, 104066, Note_on_c, 0, 77, 0
1, 104071, Note_on_c, 0, 68, 0
1, 104135, Note_on_c, 0, 55, 0
1, 104138, Note_on_c, 0, 46, 0
1, 104149, Note_on_c, 0, 51, 91
1, 104153, Note_on_c, 0, 75, 89
1, 104156, Note_on_c, 0, 67, 95
1, 104160, Tempo, 410004
1, 104162, Note_on_c, 0, 39, 91
1, 104185, Note_on_c, 0, 79, 0
1, 104240, Note_on_c, 0, 75, 0
1, 104254, Note_on_c, 0, 67, 0
1, 104340, Note_on_c, 0, 39, 0
1, 104372, Note_on_c, 0, 51, 0
1, 104390, Note_on_c, 0, 56, 80
1, 104391, Note_on_c, 0, 65, 89
1, 104399, Note_on_c, 0, 36, 95
1, 104400, Tempo, 480000
1, 104403, Note_on_c, 0, 48, 89
1, 104519, Note_on_c, 0, 67, 89
1, 104526, Note_on_c, 0, 56, 0
1, 104552, Note_on_c, 0, 65, 0
1, 104589, Note_on_c, 0, 48, 0
1, 104616, Note_on_c, 0, 36, 0
1, 104640, Tempo, 550005
1, 104640, Note_on_c, 0, 63, 95
1, 104645, Note_on_c, 0, 55, 95
1, 104650, Note_on_c, 0, 46, 105
1, 104651, Note_on_c, 0, 34, 95
1, 104666, Note_on_c, 0, 67, 0
1, 104684, Control_c, 0, 64, 0
1, 104733, Control_c, 0, 64, 127
1, 104880, Tempo, 524980
1, 104899, Note_on_c, 0, 55, 0
1, 104915, Note_on_c, 0, 63, 0
1, 105120, Tempo, 590029
1, 105123, Note_on_c, 0, 75, 95
1, 105123, Note_on_c, 0, 63, 107
1, 105125, Note_on_c, 0, 72, 89
1, 105125, Note_on_c, 0, 67, 95
1, 105138, Note_on_c, 0, 60, 95
1, 105139, Note_on_c, 0, 51, 89
1, 105139, Note_on_c, 0, 55, 89
1, 105143, Note_on_c, 0, 48, 79
1, 105154, Note_on_c, 0, 46, 0
1, 105155, Note_on_c, 0, 34, 0
1, 105360, Tempo, 570017
1, 105485, Note_on_c, 0, 72, 0
1, 105510, Note_on_c, 0, 67, 0
1, 105525, Note_on_c, 0, 63, 0
1, 105531, Note_on_c, 0, 75, 0
1, 105560, Note_on_c, 0, 48, 0
1, 105566, Note_on_c, 0, 55, 0
1, 105567, Note_on_c, 0, 51, 0
1, 105586, Note_on_c, 0, 60, 0
1, 105595, Note_on_c, 0, 70, 80
1, 105596, Note_on_c, 0, 67, 89
1, 105598, Note_on_c, 0, 55, 95
1, 105600, Tempo, 649984
1, 105601, Note_on_c, 0, 43, 80
1, 105602, Note_on_c, 0, 50, 105
1, 105603, Note_on_c, 0, 46, 73
1, 105605, Note_on_c, 0, 62, 95
1, 105607, Note_on_c, 0, 58, 105
1, 105608, Control_c, 0, 64, 0
1, 105673, Control_c, 0, 64, 127
1, 105840, Tempo, 735024
1, 105896, Note_on_c, 0, 50, 0
1, 105915, Note_on_c, 0, 43, 0
1, 105919, Note_on_c, 0, 55, 0
1, 105925, Note_on_c, 0, 46, 0
1, 105933, Control_c, 0, 64, 0
1, 105934, Note_on_c, 0, 67, 0
1, 105944, Note_on_c, 0, 58, 0
1, 105944, Note_on_c, 0, 70, 0
1, 105951, Note_on_c, 0, 62, 0
1, 105966, Note_on_c, 0, 46, 73
1, 105969, Note_on_c, 0, 34, 110
1, 105998, Control_c, 0, 64, 127
1, 106073, Note_on_c, 0, 62, 89
1, 106074, Note_on_c, 0, 56, 75
1, 106075, Note_on_c, 0, 65, 95
1, 106077, Note_on_c, 0, 53, 95
1, 106080, Tempo, 759975
1, 106081, Note_on_c, 0, 58, 79
1, 106089, Note_on_c, 0, 74, 95
1, 106089, Note_on_c, 0, 82, 80
1, 106090, Note_on_c, 0, 77, 95
1, 106099, Note_on_c, 0, 68, 97
1, 106100, Note_on_c, 0, 70, 95
1, 106320, Tempo, 714967
1, 106370, Note_on_c, 0, 46, 0
1, 106400, Note_on_c, 0, 34, 0
1, 106416, Note_on_c, 0, 82, 0
1, 106419, Note_on_c, 0, 68, 0
1, 106420, Note_on_c, 0, 77, 0
1, 106422, Note_on_c, 0, 74, 0
1, 106426, Note_on_c, 0, 70, 0
1, 106449, Control_c, 0, 64, 0
1, 106504, Note_on_c, 0, 65, 0
1, 106522, Note_on_c, 0, 62, 0
1, 106522, Control_c, 0, 64, 127
1, 106523, Note_on_c, 0, 58, 0
1, 106529, Note_on_c, 0, 53, 0
1, 106531, Note_on_c, 0, 56, 0
1, 106549, Note_on_c, 0, 27, 89
1, 106552, Note_on_c, 0, 39, 105
1, 106560, Tempo, 780031
1, 106563, Note_on_c, 0, 70, 95
1, 106563, Note_on_c, 0, 75, 107
1, 106569, Note_on_c, 0, 67, 89
1, 106570, Note_on_c, 0, 63, 89
1, 106779, Note_on_c, 0, 63, 0
1, 106781, Note_on_c, 0, 70, 0
1, 106787, Note_on_c, 0, 67, 0
1, 106789, Note_on_c, 0, 75, 0
1, 106800, Tempo, 800000
1, 106808, Note_on_c, 0, 58, 95
1, 106809, Note_on_c, 0, 46, 95
1, 106809, Note_on_c, 0, 75, 89
1, 106809, Note_on_c, 0, 70, 89
1, 106810, Note_on_c, 0, 51, 89
1, 106811, Note_on_c, 0, 55, 89
1, 106813, Note_on_c, 0, 67, 95
1, 106815, Note_on_c, 0, 63, 95
1, 106865, Note_on_c, 0, 46, 0
1, 106871, Note_on_c, 0, 51, 0
1, 106873, Note_on_c, 0, 58, 0
1, 106880, Note_on_c, 0, 55, 0
1, 106903, Note_on_c, 0, 58, 89
1, 106907, Note_on_c, 0, 63, 0
1, 106908, Note_on_c, 0, 70, 0
1, 106908, Note_on_c, 0, 55, 75
1, 106908, Note_on_c, 0, 51, 77
1, 106909, Note_on_c, 0, 67, 0
1, 106909, Note_on_c, 0, 46, 95
1, 106912, Note_on_c, 0, 75, 0
1, 106928, Note_on_c, 0, 67, 97
1, 106928, Note_on_c, 0, 70, 89
1, 106928, Note_on_c, 0, 75, 97
1, 106930, Note_on_c, 0, 63, 89
1, 106968, Note_on_c, 0, 46, 0
1, 106978, Note_on_c, 0, 58, 0
1, 106980, Note_on_c, 0, 51, 0
1, 106986, Note_on_c, 0, 55, 0
1, 107007, Note_on_c, 0, 70, 0
1, 107012, Note_on_c, 0, 63, 0
1, 107013, Note_on_c, 0, 67, 0
1, 107014, Note_on_c, 0, 75, 0
1, 107018, Note_on_c, 0, 58, 105
1, 107022, Note_on_c, 0, 46, 97
1, 107023, Note_on_c, 0, 55, 76
1, 107025, Note_on_c, 0, 51, 80
1, 107039, Note_on_c, 0, 75, 95
1, 107040, Tempo, 685010
1, 107040, Note_on_c, 0, 67, 97
1, 107041, Note_on_c, 0, 70, 110
1, 107042, Note_on_c, 0, 63, 97
1, 107280, Tempo, 645023
1, 107520, Tempo, 600000
1, 107533, Note_on_c, 0, 27, 0
1, 107534, Note_on_c, 0, 39, 0
1, 107536, Note_on_c, 0, 46, 0
1, 107536, Note_on_c, 0, 51, 0
1, 107542, Note_on_c, 0, 55, 0
1, 107543, Note_on_c, 0, 70, 0
1, 107543, Note_on_c, 0, 58, 0
1, 107547, Note_on_c, 0, 67, 0
1, 107551, Note_on_c, 0, 75, 0
1, 107554, Note_on_c, 0, 63, 0
1, 107760, Tempo, 585023
1, 108000, Tempo, 579990
1, 108240, Tempo, 659993
1, 108529, Control_c, 0, 64, 0
1, 108529, End_track
0, 0, End_of_file
