0, 0, Header, 0, 1, 120
1, 0, Start_track
1, 0, Title_t, "untitled"
1, 0, Time_signature, 4, 2, 24, 8
1, 0, Key_signature, 0, "major"
1, 0, Tempo, 500000
1, 0, Program_c, 0, 0
1, 0, Control_c, 0, 7, 105
1, 437, Control_c, 0, 67, 24
1, 438, Control_c, 0, 67, 40
1, 445, Control_c, 0, 67, 56
1, 447, Control_c, 0, 67, 72
1, 450, Control_c, 0, 67, 88
1, 452, Control_c, 0, 67, 104
1, 458, Control_c, 0, 67, 127
1, 518, Control_c, 0, 64, 24
1, 522, Control_c, 0, 64, 40
1, 525, Control_c, 0, 64, 56
1, 527, Control_c, 0, 64, 72
1, 530, Control_c, 0, 64, 88
1, 537, Control_c, 0, 64, 104
1, 543, Control_c, 0, 64, 127
1, 658, Note_on_c, 0, 42, 41
1, 693, Note_on_c, 0, 49, 38
1, 722, Note_on_c, 0, 54, 48
1, 756, Note_on_c, 0, 57, 45
1, 798, Note_on_c, 0, 42, 0
1, 818, Note_on_c, 0, 54, 0
1, 842, Note_on_c, 0, 49, 0
1, 938, Note_on_c, 0, 66, 50
1, 963, Note_on_c, 0, 57, 0
1, 1051, Note_on_c, 0, 59, 55
1, 1052, Note_on_c, 0, 56, 58
1, 1053, Note_on_c, 0, 66, 0
1, 1062, Control_c, 0, 64, 88
1, 1065, Control_c, 0, 64, 56
1, 1068, Control_c, 0, 64, 40
1, 1075, Control_c, 0, 64, 56
1, 1078, Control_c, 0, 64, 72
1, 1082, Control_c, 0, 64, 88
1, 1086, Control_c, 0, 64, 104
1, 1090, Control_c, 0, 64, 127
1, 1115, Note_on_c, 0, 56, 0
1, 1143, Note_on_c, 0, 66, 61
1, 1150, Note_on_c, 0, 59, 0
1, 1165, Note_on_c, 0, 66, 0
1, 1247, Note_on_c, 0, 60, 61
1, 1248, Note_on_c, 0, 57, 59
1, 1263, Control_c, 0, 64, 104
1, 1266, Control_c, 0, 64, 56
1, 1268, Control_c, 0, 64, 0
1, 1296, Control_c, 0, 64, 24
1, 1298, Control_c, 0, 64, 56
1, 1301, Control_c, 0, 64, 88
1, 1305, Control_c, 0, 64, 127
1, 1416, Note_on_c, 0, 66, 50
1, 1463, Note_on_c, 0, 60, 0
1, 1502, Note_on_c, 0, 61, 63
1, 1513, Control_c, 0, 64, 88
1, 1516, Control_c, 0, 64, 24
1, 1518, Control_c, 0, 64, 0
1, 1522, Note_on_c, 0, 66, 0
1, 1543, Control_c, 0, 64, 24
1, 1547, Control_c, 0, 64, 56
1, 1547, Control_c, 0, 64, 88
1, 1552, Control_c, 0, 64, 127
1, 1581, Note_on_c, 0, 66, 47
1, 1598, Note_on_c, 0, 57, 0
1, 1601, Note_on_c, 0, 61, 0
1, 1613, Note_on_c, 0, 66, 0
1, 1667, Note_on_c, 0, 57, 60
1, 1668, Note_on_c, 0, 60, 68
1, 1682, Control_c, 0, 64, 88
1, 1683, Control_c, 0, 64, 24
1, 1687, Control_c, 0, 64, 0
1, 1713, Control_c, 0, 64, 40
1, 1716, Control_c, 0, 64, 72
1, 1718, Control_c, 0, 64, 104
1, 1721, Control_c, 0, 64, 127
1, 1808, Note_on_c, 0, 66, 54
1, 1866, Note_on_c, 0, 60, 0
1, 1878, Note_on_c, 0, 61, 74
1, 1888, Control_c, 0, 64, 104
1, 1891, Note_on_c, 0, 66, 0
1, 1891, Control_c, 0, 64, 40
1, 1893, Control_c, 0, 64, 0
1, 1901, Control_c, 0, 64, 24
1, 1903, Control_c, 0, 64, 40
1, 1907, Control_c, 0, 64, 56
1, 1908, Control_c, 0, 64, 72
1, 1912, Control_c, 0, 64, 88
1, 1913, Control_c, 0, 64, 127
1, 1947, Note_on_c, 0, 66, 61
1, 1961, Note_on_c, 0, 61, 0
1, 1962, Note_on_c, 0, 57, 0
1, 2002, Note_on_c, 0, 66, 0
1, 2008, Note_on_c, 0, 57, 73
1, 2011, Note_on_c, 0, 60, 73
1, 2021, Control_c, 0, 64, 104
1, 2022, Control_c, 0, 64, 24
1, 2026, Control_c, 0, 64, 0
1, 2052, Control_c, 0, 64, 24
1, 2056, Control_c, 0, 64, 56
1, 2058, Control_c, 0, 64, 88
1, 2062, Control_c, 0, 64, 127
1, 2096, Note_on_c, 0, 66, 70
1, 2152, Note_on_c, 0, 61, 79
1, 2157, Note_on_c, 0, 60, 0
1, 2161, Note_on_c, 0, 66, 0
1, 2207, Note_on_c, 0, 57, 0
1, 2216, Note_on_c, 0, 66, 74
1, 2222, Note_on_c, 0, 61, 0
1, 2268, Note_on_c, 0, 66, 0
1, 2277, Note_on_c, 0, 57, 76
1, 2278, Note_on_c, 0, 60, 77
1, 2282, Control_c, 0, 64, 72
1, 2285, Control_c, 0, 64, 0
1, 2317, Control_c, 0, 64, 24
1, 2318, Control_c, 0, 64, 56
1, 2322, Control_c, 0, 64, 88
1, 2323, Control_c, 0, 64, 127
1, 2353, Note_on_c, 0, 66, 71
1, 2410, Note_on_c, 0, 61, 83
1, 2411, Note_on_c, 0, 60, 0
1, 2417, Note_on_c, 0, 66, 0
1, 2453, Note_on_c, 0, 57, 0
1, 2472, Note_on_c, 0, 66, 75
1, 2482, Note_on_c, 0, 61, 0
1, 2542, Note_on_c, 0, 66, 0
1, 2543, Note_on_c, 0, 57, 59
1, 2546, Note_on_c, 0, 60, 70
1, 2568, Note_on_c, 0, 78, 82
1, 2571, Control_c, 0, 64, 104
1, 2573, Control_c, 0, 64, 40
1, 2576, Control_c, 0, 64, 0
1, 2631, Control_c, 0, 64, 40
1, 2633, Control_c, 0, 64, 72
1, 2636, Control_c, 0, 64, 104
1, 2638, Control_c, 0, 64, 127
1, 2656, Note_on_c, 0, 66, 66
1, 2718, Note_on_c, 0, 61, 74
1, 2726, Note_on_c, 0, 66, 0
1, 2733, Note_on_c, 0, 60, 0
1, 2767, Note_on_c, 0, 57, 0
1, 2773, Note_on_c, 0, 61, 0
1, 2776, Note_on_c, 0, 66, 71
1, 2856, Note_on_c, 0, 66, 0
1, 2871, Note_on_c, 0, 58, 72
1, 2871, Note_on_c, 0, 62, 75
1, 2886, Control_c, 0, 64, 72
1, 2888, Control_c, 0, 64, 0
1, 2915, Control_c, 0, 64, 24
1, 2917, Control_c, 0, 64, 56
1, 2920, Control_c, 0, 64, 88
1, 2922, Control_c, 0, 64, 127
1, 2985, Note_on_c, 0, 66, 69
1, 2995, Note_on_c, 0, 62, 0
1, 3047, Note_on_c, 0, 61, 66
1, 3047, Note_on_c, 0, 64, 71
1, 3057, Note_on_c, 0, 66, 0
1, 3110, Note_on_c, 0, 66, 65
1, 3112, Note_on_c, 0, 64, 0
1, 3115, Note_on_c, 0, 61, 0
1, 3122, Note_on_c, 0, 58, 0
1, 3180, Note_on_c, 0, 58, 45
1, 3181, Note_on_c, 0, 64, 62
1, 3181, Note_on_c, 0, 61, 52
1, 3188, Note_on_c, 0, 66, 0
1, 3207, Note_on_c, 0, 76, 74
1, 3210, Control_c, 0, 64, 72
1, 3212, Control_c, 0, 64, 0
1, 3220, Note_on_c, 0, 78, 0
1, 3246, Control_c, 0, 64, 40
1, 3247, Control_c, 0, 64, 72
1, 3252, Control_c, 0, 64, 104
1, 3255, Control_c, 0, 64, 127
1, 3288, Note_on_c, 0, 64, 0
1, 3290, Note_on_c, 0, 66, 56
1, 3300, Note_on_c, 0, 61, 0
1, 3380, Note_on_c, 0, 65, 63
1, 3381, Note_on_c, 0, 61, 50
1, 3386, Note_on_c, 0, 66, 0
1, 3392, Control_c, 0, 64, 104
1, 3396, Control_c, 0, 64, 40
1, 3400, Control_c, 0, 64, 0
1, 3431, Control_c, 0, 64, 24
1, 3432, Control_c, 0, 64, 56
1, 3435, Control_c, 0, 64, 88
1, 3437, Control_c, 0, 64, 127
1, 3490, Note_on_c, 0, 66, 51
1, 3492, Note_on_c, 0, 65, 0
1, 3505, Note_on_c, 0, 58, 0
1, 3507, Note_on_c, 0, 61, 0
1, 3515, Note_on_c, 0, 76, 0
1, 3527, Note_on_c, 0, 66, 0
1, 3590, Control_c, 0, 67, 115
1, 3637, Note_on_c, 0, 65, 41
1, 3641, Note_on_c, 0, 59, 47
1, 3641, Note_on_c, 0, 62, 45
1, 3660, Note_on_c, 0, 74, 66
1, 3661, Control_c, 0, 64, 56
1, 3665, Control_c, 0, 64, 0
1, 3695, Control_c, 0, 64, 24
1, 3700, Control_c, 0, 64, 56
1, 3702, Control_c, 0, 64, 104
1, 3705, Control_c, 0, 64, 127
1, 3785, Note_on_c, 0, 62, 0
1, 3786, Note_on_c, 0, 67, 43
1, 3790, Note_on_c, 0, 65, 0
1, 3881, Note_on_c, 0, 66, 57
1, 3885, Note_on_c, 0, 62, 45
1, 3890, Control_c, 0, 64, 88
1, 3895, Note_on_c, 0, 67, 0
1, 3895, Control_c, 0, 64, 40
1, 3896, Control_c, 0, 64, 0
1, 3911, Control_c, 0, 64, 24
1, 3913, Control_c, 0, 64, 40
1, 3917, Control_c, 0, 64, 56
1, 3921, Control_c, 0, 64, 88
1, 3922, Control_c, 0, 64, 104
1, 3925, Control_c, 0, 64, 127
1, 3971, Note_on_c, 0, 67, 61
1, 3980, Note_on_c, 0, 62, 0
1, 3981, Note_on_c, 0, 66, 0
1, 3985, Note_on_c, 0, 59, 0
1, 4062, Note_on_c, 0, 65, 56
1, 4065, Note_on_c, 0, 67, 0
1, 4065, Note_on_c, 0, 59, 52
1, 4065, Note_on_c, 0, 62, 55
1, 4070, Control_c, 0, 64, 104
1, 4075, Control_c, 0, 64, 56
1, 4075, Control_c, 0, 64, 0
1, 4096, Control_c, 0, 64, 24
1, 4098, Control_c, 0, 64, 40
1, 4101, Control_c, 0, 64, 72
1, 4103, Control_c, 0, 64, 104
1, 4106, Control_c, 0, 64, 127
1, 4152, Note_on_c, 0, 65, 0
1, 4155, Note_on_c, 0, 62, 0
1, 4155, Note_on_c, 0, 67, 54
1, 4223, Note_on_c, 0, 66, 70
1, 4226, Note_on_c, 0, 62, 56
1, 4228, Control_c, 0, 64, 104
1, 4232, Control_c, 0, 64, 56
1, 4235, Note_on_c, 0, 67, 0
1, 4235, Control_c, 0, 64, 0
1, 4246, Control_c, 0, 64, 24
1, 4248, Control_c, 0, 64, 40
1, 4251, Control_c, 0, 64, 56
1, 4255, Control_c, 0, 64, 72
1, 4256, Control_c, 0, 64, 104
1, 4260, Control_c, 0, 64, 127
1, 4291, Note_on_c, 0, 67, 70
1, 4298, Note_on_c, 0, 66, 0
1, 4300, Note_on_c, 0, 62, 0
1, 4313, Note_on_c, 0, 59, 0
1, 4347, Note_on_c, 0, 67, 0
1, 4355, Note_on_c, 0, 59, 59
1, 4356, Note_on_c, 0, 65, 68
1, 4356, Note_on_c, 0, 62, 62
1, 4360, Control_c, 0, 64, 88
1, 4363, Control_c, 0, 64, 24
1, 4365, Control_c, 0, 64, 0
1, 4375, Control_c, 0, 64, 24
1, 4376, Control_c, 0, 64, 40
1, 4378, Control_c, 0, 67, 104
1, 4380, Control_c, 0, 64, 56
1, 4381, Control_c, 0, 64, 88
1, 4385, Control_c, 0, 64, 127
1, 4386, Control_c, 0, 67, 88
1, 4392, Control_c, 0, 67, 72
1, 4401, Control_c, 0, 67, 56
1, 4407, Control_c, 0, 67, 40
1, 4416, Control_c, 0, 67, 24
1, 4422, Note_on_c, 0, 65, 0
1, 4423, Note_on_c, 0, 62, 0
1, 4425, Note_on_c, 0, 67, 58
1, 4427, Control_c, 0, 67, 0
1, 4483, Note_on_c, 0, 66, 67
1, 4486, Note_on_c, 0, 62, 53
1, 4491, Note_on_c, 0, 67, 0
1, 4541, Note_on_c, 0, 67, 66
1, 4542, Note_on_c, 0, 66, 0
1, 4542, Note_on_c, 0, 62, 0
1, 4555, Note_on_c, 0, 59, 0
1, 4595, Note_on_c, 0, 65, 69
1, 4596, Note_on_c, 0, 59, 62
1, 4596, Note_on_c, 0, 62, 64
1, 4597, Note_on_c, 0, 67, 0
1, 4601, Control_c, 0, 64, 88
1, 4603, Control_c, 0, 64, 40
1, 4607, Control_c, 0, 64, 0
1, 4617, Control_c, 0, 64, 24
1, 4620, Control_c, 0, 64, 40
1, 4622, Control_c, 0, 64, 56
1, 4625, Control_c, 0, 64, 72
1, 4628, Control_c, 0, 64, 104
1, 4631, Control_c, 0, 64, 127
1, 4653, Note_on_c, 0, 65, 0
1, 4656, Note_on_c, 0, 67, 61
1, 4661, Note_on_c, 0, 62, 0
1, 4708, Note_on_c, 0, 66, 71
1, 4710, Note_on_c, 0, 62, 60
1, 4712, Note_on_c, 0, 67, 0
1, 4751, Note_on_c, 0, 59, 0
1, 4760, Note_on_c, 0, 62, 0
1, 4763, Note_on_c, 0, 67, 71
1, 4765, Note_on_c, 0, 66, 0
1, 4810, Note_on_c, 0, 67, 0
1, 4821, Note_on_c, 0, 65, 70
1, 4821, Note_on_c, 0, 60, 61
1, 4825, Note_on_c, 0, 62, 65
1, 4825, Control_c, 0, 64, 88
1, 4828, Control_c, 0, 64, 24
1, 4831, Control_c, 0, 64, 0
1, 4846, Control_c, 0, 64, 24
1, 4851, Control_c, 0, 64, 40
1, 4851, Control_c, 0, 64, 56
1, 4855, Control_c, 0, 64, 88
1, 4856, Control_c, 0, 64, 127
1, 4873, Note_on_c, 0, 62, 0
1, 4875, Note_on_c, 0, 65, 0
1, 4880, Note_on_c, 0, 68, 75
1, 4928, Note_on_c, 0, 68, 0
1, 4938, Note_on_c, 0, 66, 77
1, 4945, Note_on_c, 0, 62, 62
1, 4951, Control_c, 0, 64, 88
1, 4955, Control_c, 0, 64, 40
1, 4956, Control_c, 0, 64, 24
1, 4961, Control_c, 0, 64, 40
1, 4965, Control_c, 0, 64, 72
1, 4968, Control_c, 0, 64, 88
1, 4970, Control_c, 0, 64, 104
1, 4973, Control_c, 0, 64, 127
1, 4998, Note_on_c, 0, 62, 0
1, 4998, Note_on_c, 0, 69, 67
1, 5003, Note_on_c, 0, 66, 0
1, 5003, Note_on_c, 0, 74, 0
1, 5006, Note_on_c, 0, 60, 0
1, 5026, Note_on_c, 0, 69, 0
1, 5066, Note_on_c, 0, 60, 59
1, 5070, Note_on_c, 0, 65, 69
1, 5070, Note_on_c, 0, 62, 63
1, 5083, Control_c, 0, 64, 104
1, 5085, Control_c, 0, 64, 40
1, 5088, Note_on_c, 0, 74, 83
1, 5090, Control_c, 0, 64, 0
1, 5113, Control_c, 0, 64, 40
1, 5116, Control_c, 0, 64, 72
1, 5118, Control_c, 0, 64, 104
1, 5121, Control_c, 0, 64, 127
1, 5151, Note_on_c, 0, 68, 65
1, 5155, Note_on_c, 0, 65, 0
1, 5160, Note_on_c, 0, 62, 0
1, 5191, Note_on_c, 0, 68, 0
1, 5210, Note_on_c, 0, 66, 68
1, 5215, Note_on_c, 0, 62, 57
1, 5223, Control_c, 0, 64, 104
1, 5225, Control_c, 0, 64, 56
1, 5228, Control_c, 0, 64, 40
1, 5235, Control_c, 0, 64, 56
1, 5236, Control_c, 0, 64, 72
1, 5240, Control_c, 0, 64, 88
1, 5241, Control_c, 0, 64, 127
1, 5268, Note_on_c, 0, 69, 63
1, 5271, Note_on_c, 0, 62, 0
1, 5275, Note_on_c, 0, 66, 0
1, 5301, Note_on_c, 0, 69, 0
1, 5323, Note_on_c, 0, 65, 64
1, 5325, Note_on_c, 0, 62, 58
1, 5333, Control_c, 0, 64, 104
1, 5336, Control_c, 0, 64, 56
1, 5340, Control_c, 0, 64, 0
1, 5350, Control_c, 0, 64, 24
1, 5352, Control_c, 0, 64, 40
1, 5355, Control_c, 0, 64, 56
1, 5360, Control_c, 0, 64, 88
1, 5361, Control_c, 0, 64, 127
1, 5385, Note_on_c, 0, 68, 57
1, 5388, Note_on_c, 0, 65, 0
1, 5405, Note_on_c, 0, 62, 0
1, 5428, Note_on_c, 0, 68, 0
1, 5440, Note_on_c, 0, 66, 68
1, 5445, Note_on_c, 0, 62, 47
1, 5498, Note_on_c, 0, 62, 0
1, 5501, Note_on_c, 0, 69, 64
1, 5506, Note_on_c, 0, 66, 0
1, 5516, Note_on_c, 0, 60, 0
1, 5528, Note_on_c, 0, 69, 0
1, 5562, Note_on_c, 0, 60, 1
1, 5565, Note_on_c, 0, 65, 62
1, 5566, Note_on_c, 0, 62, 48
1, 5573, Note_on_c, 0, 72, 70
1, 5577, Control_c, 0, 64, 104
1, 5580, Control_c, 0, 64, 56
1, 5581, Note_on_c, 0, 74, 0
1, 5582, Control_c, 0, 64, 0
1, 5600, Control_c, 0, 64, 24
1, 5602, Control_c, 0, 64, 40
1, 5605, Control_c, 0, 64, 72
1, 5610, Control_c, 0, 64, 104
1, 5610, Control_c, 0, 64, 127
1, 5642, Note_on_c, 0, 68, 60
1, 5646, Note_on_c, 0, 65, 0
1, 5690, Note_on_c, 0, 68, 0
1, 5720, Note_on_c, 0, 66, 60
1, 5732, Control_c, 0, 64, 88
1, 5735, Control_c, 0, 64, 56
1, 5738, Control_c, 0, 64, 24
1, 5743, Control_c, 0, 64, 40
1, 5746, Control_c, 0, 64, 56
1, 5750, Control_c, 0, 64, 72
1, 5752, Control_c, 0, 64, 88
1, 5755, Control_c, 0, 64, 127
1, 5793, Note_on_c, 0, 69, 51
1, 5801, Note_on_c, 0, 73, 82
1, 5807, Note_on_c, 0, 60, 0
1, 5812, Note_on_c, 0, 72, 0
1, 5813, Note_on_c, 0, 62, 0
1, 5822, Note_on_c, 0, 66, 0
1, 5822, Note_on_c, 0, 69, 0
1, 5825, Note_on_c, 0, 73, 0
1, 5912, Note_on_c, 0, 73, 68
1, 5915, Note_on_c, 0, 66, 61
1, 5915, Control_c, 0, 64, 104
1, 5917, Note_on_c, 0, 61, 59
1, 5917, Note_on_c, 0, 69, 61
1, 5921, Control_c, 0, 64, 0
1, 5947, Control_c, 0, 64, 40
1, 5950, Control_c, 0, 64, 72
1, 5952, Control_c, 0, 64, 104
1, 5955, Control_c, 0, 64, 127
1, 6007, Note_on_c, 0, 69, 0
1, 6007, Note_on_c, 0, 66, 0
1, 6008, Note_on_c, 0, 71, 61
1, 6070, Note_on_c, 0, 65, 61
1, 6073, Note_on_c, 0, 71, 0
1, 6073, Note_on_c, 0, 69, 65
1, 6076, Control_c, 0, 64, 88
1, 6077, Control_c, 0, 64, 24
1, 6080, Control_c, 0, 64, 0
1, 6098, Control_c, 0, 64, 40
1, 6102, Control_c, 0, 64, 56
1, 6105, Control_c, 0, 64, 88
1, 6107, Control_c, 0, 64, 127
1, 6128, Note_on_c, 0, 69, 0
1, 6128, Note_on_c, 0, 71, 65
1, 6151, Note_on_c, 0, 61, 0
1, 6152, Note_on_c, 0, 65, 0
1, 6182, Note_on_c, 0, 61, 58
1, 6182, Note_on_c, 0, 66, 66
1, 6182, Note_on_c, 0, 69, 66
1, 6185, Note_on_c, 0, 71, 0
1, 6185, Control_c, 0, 64, 72
1, 6188, Control_c, 0, 64, 0
1, 6212, Control_c, 0, 64, 40
1, 6213, Control_c, 0, 64, 72
1, 6217, Control_c, 0, 64, 104
1, 6220, Control_c, 0, 64, 127
1, 6232, Note_on_c, 0, 69, 0
1, 6233, Note_on_c, 0, 71, 62
1, 6275, Note_on_c, 0, 66, 0
1, 6280, Note_on_c, 0, 71, 0
1, 6282, Note_on_c, 0, 65, 66
1, 6282, Note_on_c, 0, 69, 66
1, 6327, Note_on_c, 0, 69, 0
1, 6332, Note_on_c, 0, 71, 57
1, 6346, Note_on_c, 0, 61, 0
1, 6350, Note_on_c, 0, 71, 0
1, 6352, Note_on_c, 0, 65, 0
1, 6392, Note_on_c, 0, 68, 66
1, 6393, Note_on_c, 0, 61, 44
1, 6395, Note_on_c, 0, 66, 56
1, 6395, Control_c, 0, 64, 56
1, 6400, Control_c, 0, 64, 0
1, 6422, Control_c, 0, 64, 24
1, 6423, Control_c, 0, 64, 56
1, 6427, Control_c, 0, 64, 88
1, 6428, Control_c, 0, 64, 127
1, 6445, Note_on_c, 0, 68, 0
1, 6455, Note_on_c, 0, 69, 42
1, 6475, Note_on_c, 0, 66, 0
1, 6513, Note_on_c, 0, 69, 0
1, 6513, Note_on_c, 0, 68, 60
1, 6518, Note_on_c, 0, 65, 48
1, 6528, Control_c, 0, 64, 88
1, 6530, Control_c, 0, 64, 40
1, 6533, Control_c, 0, 64, 0
1, 6543, Control_c, 0, 64, 24
1, 6547, Control_c, 0, 64, 40
1, 6548, Control_c, 0, 64, 56
1, 6552, Control_c, 0, 64, 72
1, 6553, Control_c, 0, 64, 104
1, 6558, Control_c, 0, 64, 127
1, 6580, Note_on_c, 0, 65, 0
1, 6580, Note_on_c, 0, 68, 0
1, 6580, Note_on_c, 0, 69, 57
1, 6588, Note_on_c, 0, 69, 0
1, 6590, Note_on_c, 0, 61, 0
1, 6592, Note_on_c, 0, 73, 0
1, 6638, Note_on_c, 0, 61, 51
1, 6670, Note_on_c, 0, 71, 63
1, 6670, Note_on_c, 0, 66, 60
1, 6675, Control_c, 0, 64, 88
1, 6678, Control_c, 0, 64, 24
1, 6680, Control_c, 0, 64, 0
1, 6703, Control_c, 0, 64, 24
1, 6705, Control_c, 0, 64, 56
1, 6708, Control_c, 0, 64, 88
1, 6710, Control_c, 0, 64, 104
1, 6713, Control_c, 0, 64, 127
1, 6772, Note_on_c, 0, 66, 0
1, 6772, Note_on_c, 0, 68, 52
1, 6847, Control_c, 0, 64, 88
1, 6847, Note_on_c, 0, 65, 44
1, 6848, Control_c, 0, 64, 0
1, 6850, Note_on_c, 0, 68, 0
1, 6878, Control_c, 0, 64, 24
1, 6881, Control_c, 0, 64, 56
1, 6883, Control_c, 0, 64, 88
1, 6886, Control_c, 0, 64, 127
1, 6937, Note_on_c, 0, 61, 0
1, 6945, Note_on_c, 0, 68, 47
1, 6957, Note_on_c, 0, 65, 0
1, 6962, Note_on_c, 0, 71, 0
1, 6993, Note_on_c, 0, 68, 0
1, 7023, Control_c, 0, 67, 0
1, 7052, Note_on_c, 0, 62, 40
1, 7078, Control_c, 0, 64, 88
1, 7080, Note_on_c, 0, 69, 64
1, 7083, Note_on_c, 0, 66, 57
1, 7083, Control_c, 0, 64, 24
1, 7086, Control_c, 0, 64, 0
1, 7106, Control_c, 0, 64, 24
1, 7107, Control_c, 0, 64, 40
1, 7112, Control_c, 0, 64, 56
1, 7113, Control_c, 0, 64, 88
1, 7117, Control_c, 0, 64, 127
1, 7195, Note_on_c, 0, 68, 59
1, 7267, Note_on_c, 0, 57, 57
1, 7271, Note_on_c, 0, 66, 0
1, 7275, Note_on_c, 0, 62, 0
1, 7277, Note_on_c, 0, 68, 0
1, 7278, Control_c, 0, 64, 104
1, 7281, Control_c, 0, 64, 40
1, 7282, Note_on_c, 0, 65, 53
1, 7283, Control_c, 0, 64, 0
1, 7303, Control_c, 0, 64, 24
1, 7306, Control_c, 0, 64, 40
1, 7308, Control_c, 0, 64, 72
1, 7312, Control_c, 0, 64, 104
1, 7313, Control_c, 0, 64, 127
1, 7338, Note_on_c, 0, 65, 0
1, 7342, Note_on_c, 0, 66, 52
1, 7385, Note_on_c, 0, 66, 0
1, 7387, Note_on_c, 0, 61, 74
1, 7390, Control_c, 0, 64, 104
1, 7392, Control_c, 0, 64, 40
1, 7393, Note_on_c, 0, 64, 59
1, 7397, Note_on_c, 0, 57, 0
1, 7397, Control_c, 0, 64, 0
1, 7411, Control_c, 0, 64, 40
1, 7412, Control_c, 0, 64, 56
1, 7416, Control_c, 0, 64, 88
1, 7418, Control_c, 0, 64, 127
1, 7443, Note_on_c, 0, 66, 56
1, 7456, Note_on_c, 0, 64, 0
1, 7463, Note_on_c, 0, 66, 0
1, 7495, Note_on_c, 0, 59, 70
1, 7497, Control_c, 0, 64, 104
1, 7501, Note_on_c, 0, 63, 65
1, 7502, Control_c, 0, 64, 0
1, 7503, Note_on_c, 0, 61, 0
1, 7518, Control_c, 0, 64, 24
1, 7523, Control_c, 0, 64, 40
1, 7526, Control_c, 0, 64, 72
1, 7528, Control_c, 0, 64, 127
1, 7542, Note_on_c, 0, 63, 0
1, 7543, Note_on_c, 0, 59, 0
1, 7548, Note_on_c, 0, 64, 60
1, 7598, Note_on_c, 0, 64, 0
1, 7607, Note_on_c, 0, 54, 65
1, 7608, Note_on_c, 0, 62, 55
1, 7613, Control_c, 0, 64, 72
1, 7616, Control_c, 0, 64, 0
1, 7643, Control_c, 0, 64, 24
1, 7646, Control_c, 0, 64, 56
1, 7648, Control_c, 0, 64, 88
1, 7651, Control_c, 0, 64, 127
1, 7667, Note_on_c, 0, 62, 0
1, 7672, Note_on_c, 0, 64, 52
1, 7680, Note_on_c, 0, 64, 0
1, 7738, Note_on_c, 0, 61, 53
1, 7738, Note_on_c, 0, 57, 53
1, 7743, Control_c, 0, 64, 72
1, 7746, Control_c, 0, 64, 0
1, 7748, Note_on_c, 0, 54, 0
1, 7771, Control_c, 0, 64, 24
1, 7773, Control_c, 0, 64, 56
1, 7777, Control_c, 0, 64, 88
1, 7777, Control_c, 0, 64, 127
1, 7792, Note_on_c, 0, 61, 0
1, 7803, Note_on_c, 0, 62, 50
1, 7838, Note_on_c, 0, 62, 0
1, 7842, Note_on_c, 0, 57, 0
1, 7847, Control_c, 0, 67, 127
1, 7887, Note_on_c, 0, 60, 54
1, 7888, Note_on_c, 0, 54, 60
1, 7888, Note_on_c, 0, 51, 57
1, 7891, Control_c, 0, 64, 56
1, 7893, Control_c, 0, 64, 0
1, 7922, Control_c, 0, 64, 40
1, 7923, Control_c, 0, 64, 72
1, 7927, Control_c, 0, 64, 104
1, 7928, Control_c, 0, 64, 127
1, 7968, Note_on_c, 0, 60, 0
1, 7972, Note_on_c, 0, 51, 0
1, 7973, Note_on_c, 0, 61, 50
1, 7988, Note_on_c, 0, 54, 0
1, 8067, Note_on_c, 0, 59, 50
1, 8068, Note_on_c, 0, 54, 46
1, 8071, Note_on_c, 0, 50, 42
1, 8072, Note_on_c, 0, 61, 0
1, 8073, Control_c, 0, 64, 88
1, 8076, Control_c, 0, 64, 24
1, 8078, Control_c, 0, 64, 0
1, 8108, Control_c, 0, 64, 24
1, 8111, Control_c, 0, 64, 56
1, 8112, Control_c, 0, 64, 88
1, 8116, Control_c, 0, 64, 127
1, 8142, Note_on_c, 0, 50, 0
1, 8147, Note_on_c, 0, 54, 0
1, 8178, Note_on_c, 0, 59, 0
1, 8183, Note_on_c, 0, 61, 47
1, 8247, Control_c, 0, 67, 127
1, 8253, Note_on_c, 0, 61, 0
1, 8288, Note_on_c, 0, 42, 47
1, 8322, Note_on_c, 0, 49, 48
1, 8363, Note_on_c, 0, 57, 55
1, 8363, Control_c, 0, 64, 104
1, 8367, Control_c, 0, 64, 24
1, 8368, Control_c, 0, 64, 0
1, 8398, Control_c, 0, 64, 24
1, 8400, Control_c, 0, 64, 56
1, 8403, Control_c, 0, 64, 88
1, 8407, Control_c, 0, 64, 127
1, 8427, Note_on_c, 0, 42, 0
1, 8438, Note_on_c, 0, 49, 0
1, 8546, Note_on_c, 0, 57, 0
1, 8548, Note_on_c, 0, 66, 45
1, 8642, Note_on_c, 0, 66, 0
1, 8648, Note_on_c, 0, 59, 52
1, 8651, Note_on_c, 0, 56, 58
1, 8652, Control_c, 0, 64, 56
1, 8656, Control_c, 0, 64, 0
1, 8666, Control_c, 0, 64, 24
1, 8667, Control_c, 0, 64, 40
1, 8671, Control_c, 0, 64, 56
1, 8672, Control_c, 0, 64, 72
1, 8676, Control_c, 0, 64, 88
1, 8678, Control_c, 0, 64, 104
1, 8681, Control_c, 0, 64, 127
1, 8697, Note_on_c, 0, 56, 0
1, 8731, Note_on_c, 0, 59, 0
1, 8735, Note_on_c, 0, 66, 43
1, 8758, Note_on_c, 0, 69, 0
1, 8762, Note_on_c, 0, 66, 0
1, 8836, Note_on_c, 0, 60, 53
1, 8840, Note_on_c, 0, 57, 38
1, 8850, Control_c, 0, 64, 104
1, 8852, Control_c, 0, 64, 40
1, 8855, Control_c, 0, 64, 0
1, 8877, Control_c, 0, 64, 24
1, 8882, Control_c, 0, 64, 56
1, 8882, Control_c, 0, 64, 88
1, 8886, Control_c, 0, 64, 127
1, 8957, Note_on_c, 0, 66, 45
1, 9027, Note_on_c, 0, 61, 59
1, 9028, Note_on_c, 0, 60, 0
1, 9041, Note_on_c, 0, 66, 0
1, 9092, Note_on_c, 0, 66, 54
1, 9096, Note_on_c, 0, 57, 0
1, 9103, Note_on_c, 0, 61, 0
1, 9155, Note_on_c, 0, 60, 62
1, 9157, Note_on_c, 0, 57, 54
1, 9162, Note_on_c, 0, 66, 0
1, 9167, Control_c, 0, 64, 104
1, 9170, Control_c, 0, 64, 88
1, 9180, Control_c, 0, 64, 104
1, 9181, Control_c, 0, 64, 127
1, 9227, Note_on_c, 0, 66, 62
1, 9272, Note_on_c, 0, 60, 0
1, 9280, Note_on_c, 0, 61, 79
1, 9293, Note_on_c, 0, 66, 0
1, 9335, Note_on_c, 0, 57, 0
1, 9335, Note_on_c, 0, 66, 69
1, 9342, Note_on_c, 0, 61, 0
1, 9386, Note_on_c, 0, 57, 71
1, 9386, Note_on_c, 0, 60, 73
1, 9388, Note_on_c, 0, 66, 0
1, 9396, Control_c, 0, 64, 88
1, 9400, Control_c, 0, 64, 40
1, 9401, Control_c, 0, 64, 24
1, 9410, Control_c, 0, 64, 40
1, 9411, Control_c, 0, 64, 56
1, 9415, Control_c, 0, 64, 72
1, 9417, Control_c, 0, 64, 88
1, 9420, Control_c, 0, 64, 127
1, 9446, Note_on_c, 0, 66, 73
1, 9486, Note_on_c, 0, 60, 0
1, 9493, Note_on_c, 0, 61, 84
1, 9501, Note_on_c, 0, 66, 0
1, 9532, Note_on_c, 0, 57, 0
1, 9542, Note_on_c, 0, 66, 73
1, 9547, Note_on_c, 0, 61, 0
1, 9595, Note_on_c, 0, 57, 73
1, 9596, Note_on_c, 0, 66, 0
1, 9596, Note_on_c, 0, 60, 73
1, 9596, Control_c, 0, 67, 0
1, 9605, Control_c, 0, 64, 88
1, 9607, Control_c, 0, 64, 24
1, 9610, Control_c, 0, 64, 0
1, 9630, Control_c, 0, 64, 40
1, 9632, Control_c, 0, 64, 56
1, 9635, Control_c, 0, 64, 104
1, 9637, Control_c, 0, 64, 127
1, 9656, Note_on_c, 0, 66, 78
1, 9715, Note_on_c, 0, 61, 76
1, 9720, Note_on_c, 0, 66, 0
1, 9720, Note_on_c, 0, 60, 0
1, 9753, Note_on_c, 0, 57, 0
1, 9766, Note_on_c, 0, 66, 74
1, 9776, Note_on_c, 0, 61, 0
1, 9822, Note_on_c, 0, 57, 74
1, 9823, Note_on_c, 0, 60, 75
1, 9830, Note_on_c, 0, 66, 0
1, 9852, Note_on_c, 0, 78, 87
1, 9853, Control_c, 0, 64, 72
1, 9857, Control_c, 0, 64, 0
1, 9885, Control_c, 0, 64, 40
1, 9887, Control_c, 0, 64, 72
1, 9890, Control_c, 0, 64, 127
1, 9931, Note_on_c, 0, 66, 78
1, 9986, Note_on_c, 0, 61, 76
1, 9992, Note_on_c, 0, 66, 0
1, 10000, Note_on_c, 0, 60, 0
1, 10038, Note_on_c, 0, 66, 71
1, 10051, Note_on_c, 0, 61, 0
1, 10065, Note_on_c, 0, 57, 0
1, 10102, Note_on_c, 0, 66, 0
1, 10110, Note_on_c, 0, 61, 80
1, 10111, Note_on_c, 0, 57, 73
1, 10122, Note_on_c, 0, 76, 88
1, 10123, Control_c, 0, 64, 72
1, 10126, Control_c, 0, 64, 24
1, 10128, Control_c, 0, 64, 0
1, 10132, Note_on_c, 0, 78, 0
1, 10157, Control_c, 0, 64, 40
1, 10160, Control_c, 0, 64, 104
1, 10162, Control_c, 0, 64, 127
1, 10218, Note_on_c, 0, 66, 80
1, 10277, Note_on_c, 0, 62, 77
1, 10285, Note_on_c, 0, 66, 0
1, 10288, Note_on_c, 0, 61, 0
1, 10321, Note_on_c, 0, 57, 0
1, 10326, Note_on_c, 0, 62, 0
1, 10332, Note_on_c, 0, 66, 68
1, 10401, Note_on_c, 0, 66, 0
1, 10405, Note_on_c, 0, 58, 61
1, 10406, Note_on_c, 0, 64, 77
1, 10406, Note_on_c, 0, 61, 65
1, 10416, Control_c, 0, 64, 104
1, 10418, Control_c, 0, 64, 56
1, 10422, Control_c, 0, 64, 0
1, 10447, Control_c, 0, 64, 40
1, 10450, Control_c, 0, 64, 56
1, 10452, Control_c, 0, 64, 104
1, 10453, Control_c, 0, 64, 127
1, 10485, Note_on_c, 0, 66, 63
1, 10488, Note_on_c, 0, 64, 0
1, 10503, Note_on_c, 0, 61, 0
1, 10533, Note_on_c, 0, 66, 0
1, 10565, Control_c, 0, 67, 127
1, 10586, Note_on_c, 0, 61, 54
1, 10586, Note_on_c, 0, 65, 60
1, 10591, Control_c, 0, 67, 24
1, 10596, Control_c, 0, 67, 40
1, 10601, Control_c, 0, 64, 88
1, 10605, Control_c, 0, 64, 40
1, 10606, Note_on_c, 0, 76, 0
1, 10606, Control_c, 0, 64, 0
1, 10611, Note_on_c, 0, 73, 74
1, 10615, Control_c, 0, 67, 0
1, 10623, Control_c, 0, 64, 24
1, 10627, Control_c, 0, 64, 40
1, 10628, Control_c, 0, 64, 72
1, 10632, Control_c, 0, 64, 104
1, 10635, Control_c, 0, 64, 127
1, 10691, Note_on_c, 0, 67, 50
1, 10698, Control_c, 0, 67, 24
1, 10700, Control_c, 0, 67, 40
1, 10706, Control_c, 0, 67, 56
1, 10708, Control_c, 0, 67, 72
1, 10710, Control_c, 0, 67, 88
1, 10711, Control_c, 0, 67, 104
1, 10713, Control_c, 0, 67, 127
1, 10715, Note_on_c, 0, 61, 0
1, 10718, Note_on_c, 0, 65, 0
1, 10721, Note_on_c, 0, 58, 0
1, 10781, Note_on_c, 0, 67, 0
1, 10801, Note_on_c, 0, 74, 58
1, 10801, Note_on_c, 0, 62, 43
1, 10803, Note_on_c, 0, 65, 41
1, 10806, Note_on_c, 0, 59, 52
1, 10806, Control_c, 0, 64, 0
1, 10808, Note_on_c, 0, 73, 0
1, 10856, Control_c, 0, 64, 127
1, 10932, Note_on_c, 0, 67, 44
1, 10943, Note_on_c, 0, 62, 0
1, 10945, Note_on_c, 0, 65, 0
1, 10950, Control_c, 0, 64, 24
1, 10951, Control_c, 0, 64, 40
1, 10951, Control_c, 0, 64, 56
1, 10956, Control_c, 0, 64, 72
1, 10956, Control_c, 0, 64, 88
1, 10958, Control_c, 0, 64, 104
1, 10961, Control_c, 0, 64, 127
1, 11016, Note_on_c, 0, 66, 59
1, 11020, Note_on_c, 0, 62, 41
1, 11028, Control_c, 0, 64, 104
1, 11030, Note_on_c, 0, 67, 0
1, 11030, Control_c, 0, 64, 56
1, 11033, Control_c, 0, 64, 0
1, 11056, Control_c, 0, 64, 24
1, 11058, Control_c, 0, 64, 40
1, 11061, Control_c, 0, 64, 72
1, 11063, Control_c, 0, 64, 88
1, 11066, Control_c, 0, 64, 104
1, 11066, Control_c, 0, 64, 127
1, 11085, Note_on_c, 0, 67, 61
1, 11095, Note_on_c, 0, 66, 0
1, 11095, Note_on_c, 0, 62, 0
1, 11101, Note_on_c, 0, 59, 0
1, 11136, Note_on_c, 0, 67, 0
1, 11153, Note_on_c, 0, 65, 51
1, 11155, Note_on_c, 0, 59, 49
1, 11155, Note_on_c, 0, 62, 55
1, 11156, Control_c, 0, 64, 72
1, 11158, Control_c, 0, 64, 0
1, 11188, Control_c, 0, 64, 24
1, 11190, Control_c, 0, 64, 56
1, 11192, Control_c, 0, 64, 88
1, 11195, Control_c, 0, 64, 104
1, 11198, Control_c, 0, 64, 127
1, 11228, Note_on_c, 0, 65, 0
1, 11228, Note_on_c, 0, 67, 59
1, 11231, Note_on_c, 0, 62, 0
1, 11290, Control_c, 0, 64, 104
1, 11290, Note_on_c, 0, 66, 70
1, 11290, Control_c, 0, 64, 40
1, 11295, Note_on_c, 0, 62, 57
1, 11295, Control_c, 0, 64, 0
1, 11296, Note_on_c, 0, 67, 0
1, 11300, Control_c, 0, 64, 24
1, 11303, Control_c, 0, 64, 56
1, 11305, Control_c, 0, 64, 72
1, 11306, Control_c, 0, 64, 88
1, 11310, Control_c, 0, 64, 127
1, 11346, Note_on_c, 0, 62, 0
1, 11348, Note_on_c, 0, 66, 0
1, 11348, Note_on_c, 0, 67, 68
1, 11351, Note_on_c, 0, 59, 0
1, 11356, Control_c, 0, 67, 104
1, 11360, Control_c, 0, 67, 88
1, 11361, Control_c, 0, 67, 72
1, 11367, Control_c, 0, 67, 56
1, 11370, Control_c, 0, 67, 40
1, 11381, Control_c, 0, 67, 24
1, 11385, Note_on_c, 0, 67, 0
1, 11388, Control_c, 0, 67, 0
1, 11403, Note_on_c, 0, 59, 55
1, 11405, Note_on_c, 0, 65, 66
1, 11406, Note_on_c, 0, 62, 60
1, 11408, Control_c, 0, 64, 40
1, 11411, Control_c, 0, 64, 0
1, 11418, Control_c, 0, 64, 24
1, 11421, Control_c, 0, 64, 40
1, 11423, Control_c, 0, 64, 56
1, 11426, Control_c, 0, 64, 88
1, 11428, Control_c, 0, 64, 127
1, 11456, Note_on_c, 0, 65, 0
1, 11460, Note_on_c, 0, 62, 0
1, 11465, Note_on_c, 0, 68, 74
1, 11513, Note_on_c, 0, 66, 70
1, 11516, Control_c, 0, 64, 72
1, 11518, Note_on_c, 0, 62, 60
1, 11520, Control_c, 0, 64, 0
1, 11523, Note_on_c, 0, 68, 0
1, 11528, Control_c, 0, 64, 40
1, 11530, Control_c, 0, 64, 56
1, 11533, Control_c, 0, 64, 72
1, 11533, Control_c, 0, 64, 104
1, 11538, Control_c, 0, 64, 127
1, 11567, Note_on_c, 0, 68, 67
1, 11570, Note_on_c, 0, 66, 0
1, 11580, Note_on_c, 0, 62, 0
1, 11581, Note_on_c, 0, 59, 0
1, 11603, Note_on_c, 0, 68, 0
1, 11618, Note_on_c, 0, 59, 71
1, 11618, Control_c, 0, 64, 104
1, 11620, Note_on_c, 0, 65, 75
1, 11621, Note_on_c, 0, 62, 68
1, 11622, Control_c, 0, 64, 0
1, 11640, Control_c, 0, 64, 24
1, 11642, Control_c, 0, 64, 56
1, 11645, Control_c, 0, 64, 104
1, 11647, Control_c, 0, 64, 127
1, 11673, Note_on_c, 0, 65, 0
1, 11675, Note_on_c, 0, 68, 79
1, 11680, Note_on_c, 0, 62, 0
1, 11720, Note_on_c, 0, 68, 0
1, 11726, Note_on_c, 0, 66, 78
1, 11727, Note_on_c, 0, 62, 70
1, 11731, Control_c, 0, 64, 72
1, 11732, Control_c, 0, 64, 0
1, 11750, Control_c, 0, 64, 24
1, 11752, Control_c, 0, 64, 56
1, 11755, Control_c, 0, 64, 104
1, 11757, Control_c, 0, 64, 127
1, 11785, Note_on_c, 0, 68, 68
1, 11791, Note_on_c, 0, 59, 0
1, 11793, Note_on_c, 0, 66, 0
1, 11800, Note_on_c, 0, 62, 0
1, 11815, Note_on_c, 0, 68, 0
1, 11847, Note_on_c, 0, 60, 72
1, 11850, Note_on_c, 0, 65, 77
1, 11851, Note_on_c, 0, 62, 69
1, 11853, Control_c, 0, 64, 56
1, 11856, Control_c, 0, 64, 0
1, 11878, Control_c, 0, 64, 24
1, 11881, Control_c, 0, 64, 72
1, 11883, Control_c, 0, 64, 127
1, 11907, Note_on_c, 0, 65, 0
1, 11910, Note_on_c, 0, 68, 74
1, 11917, Note_on_c, 0, 62, 0
1, 11958, Note_on_c, 0, 68, 0
1, 11968, Note_on_c, 0, 66, 77
1, 11973, Note_on_c, 0, 62, 65
1, 12025, Note_on_c, 0, 60, 0
1, 12026, Note_on_c, 0, 69, 75
1, 12032, Note_on_c, 0, 66, 0
1, 12035, Note_on_c, 0, 62, 0
1, 12043, Note_on_c, 0, 74, 0
1, 12050, Note_on_c, 0, 69, 0
1, 12092, Note_on_c, 0, 60, 70
1, 12093, Note_on_c, 0, 65, 76
1, 12096, Note_on_c, 0, 62, 69
1, 12102, Control_c, 0, 64, 72
1, 12103, Control_c, 0, 64, 0
1, 12112, Note_on_c, 0, 74, 86
1, 12132, Control_c, 0, 64, 24
1, 12135, Control_c, 0, 64, 72
1, 12137, Control_c, 0, 64, 127
1, 12175, Note_on_c, 0, 65, 0
1, 12180, Note_on_c, 0, 68, 76
1, 12181, Note_on_c, 0, 62, 0
1, 12225, Note_on_c, 0, 68, 0
1, 12233, Note_on_c, 0, 66, 78
1, 12240, Note_on_c, 0, 62, 64
1, 12287, Note_on_c, 0, 69, 74
1, 12295, Note_on_c, 0, 66, 0
1, 12295, Note_on_c, 0, 60, 0
1, 12302, Note_on_c, 0, 62, 0
1, 12318, Note_on_c, 0, 69, 0
1, 12337, Note_on_c, 0, 60, 70
1, 12338, Note_on_c, 0, 65, 77
1, 12338, Note_on_c, 0, 62, 62
1, 12342, Control_c, 0, 64, 40
1, 12343, Control_c, 0, 64, 0
1, 12372, Control_c, 0, 64, 24
1, 12373, Control_c, 0, 64, 72
1, 12375, Control_c, 0, 64, 127
1, 12397, Note_on_c, 0, 68, 80
1, 12398, Note_on_c, 0, 65, 0
1, 12405, Note_on_c, 0, 62, 0
1, 12440, Note_on_c, 0, 68, 0
1, 12448, Note_on_c, 0, 66, 76
1, 12452, Note_on_c, 0, 62, 71
1, 12458, Control_c, 0, 64, 104
1, 12462, Control_c, 0, 64, 56
1, 12465, Control_c, 0, 64, 40
1, 12470, Control_c, 0, 64, 72
1, 12473, Control_c, 0, 64, 88
1, 12475, Control_c, 0, 64, 127
1, 12507, Note_on_c, 0, 69, 61
1, 12510, Note_on_c, 0, 66, 0
1, 12515, Note_on_c, 0, 62, 0
1, 12537, Note_on_c, 0, 69, 0
1, 12570, Note_on_c, 0, 62, 66
1, 12572, Note_on_c, 0, 65, 71
1, 12587, Note_on_c, 0, 74, 0
1, 12592, Control_c, 0, 64, 72
1, 12593, Note_on_c, 0, 72, 81
1, 12595, Control_c, 0, 64, 0
1, 12628, Control_c, 0, 64, 24
1, 12630, Control_c, 0, 64, 88
1, 12633, Control_c, 0, 64, 127
1, 12667, Note_on_c, 0, 68, 58
1, 12668, Note_on_c, 0, 65, 0
1, 12742, Note_on_c, 0, 66, 60
1, 12748, Note_on_c, 0, 68, 0
1, 12757, Control_c, 0, 64, 88
1, 12760, Control_c, 0, 64, 24
1, 12762, Control_c, 0, 64, 0
1, 12767, Control_c, 0, 64, 40
1, 12770, Control_c, 0, 64, 56
1, 12773, Control_c, 0, 64, 88
1, 12777, Control_c, 0, 64, 104
1, 12780, Control_c, 0, 64, 127
1, 12818, Note_on_c, 0, 72, 0
1, 12821, Note_on_c, 0, 69, 53
1, 12827, Note_on_c, 0, 60, 0
1, 12828, Note_on_c, 0, 62, 0
1, 12833, Note_on_c, 0, 66, 0
1, 12848, Note_on_c, 0, 69, 0
1, 12953, Note_on_c, 0, 73, 76
1, 12953, Note_on_c, 0, 69, 68
1, 12958, Note_on_c, 0, 66, 54
1, 12960, Control_c, 0, 64, 40
1, 12962, Note_on_c, 0, 61, 58
1, 12963, Control_c, 0, 64, 0
1, 12986, Control_c, 0, 64, 24
1, 12988, Control_c, 0, 64, 56
1, 12991, Control_c, 0, 64, 104
1, 12993, Control_c, 0, 64, 127
1, 13058, Note_on_c, 0, 69, 0
1, 13061, Note_on_c, 0, 71, 66
1, 13132, Note_on_c, 0, 71, 0
1, 13132, Note_on_c, 0, 69, 70
1, 13132, Note_on_c, 0, 65, 71
1, 13133, Control_c, 0, 64, 40
1, 13137, Control_c, 0, 64, 0
1, 13140, Note_on_c, 0, 66, 0
1, 13147, Control_c, 0, 64, 24
1, 13148, Control_c, 0, 64, 40
1, 13152, Control_c, 0, 64, 56
1, 13153, Control_c, 0, 64, 88
1, 13157, Control_c, 0, 64, 127
1, 13176, Note_on_c, 0, 61, 0
1, 13185, Note_on_c, 0, 65, 0
1, 13193, Note_on_c, 0, 69, 0
1, 13193, Note_on_c, 0, 71, 64
1, 13243, Note_on_c, 0, 71, 0
1, 13248, Note_on_c, 0, 62, 77
1, 13253, Control_c, 0, 64, 72
1, 13256, Note_on_c, 0, 69, 66
1, 13257, Note_on_c, 0, 66, 55
1, 13257, Control_c, 0, 64, 0
1, 13277, Control_c, 0, 64, 24
1, 13278, Control_c, 0, 64, 56
1, 13282, Control_c, 0, 64, 104
1, 13283, Control_c, 0, 64, 127
1, 13312, Note_on_c, 0, 66, 0
1, 13312, Note_on_c, 0, 69, 0
1, 13313, Note_on_c, 0, 71, 60
1, 13353, Control_c, 0, 64, 88
1, 13355, Note_on_c, 0, 71, 0
1, 13356, Control_c, 0, 64, 24
1, 13358, Note_on_c, 0, 65, 61
1, 13360, Note_on_c, 0, 69, 63
1, 13360, Control_c, 0, 64, 0
1, 13366, Control_c, 0, 64, 24
1, 13368, Control_c, 0, 64, 56
1, 13372, Control_c, 0, 64, 88
1, 13375, Control_c, 0, 64, 127
1, 13405, Note_on_c, 0, 65, 0
1, 13410, Note_on_c, 0, 69, 0
1, 13411, Note_on_c, 0, 71, 64
1, 13466, Note_on_c, 0, 63, 83
1, 13467, Note_on_c, 0, 71, 0
1, 13468, Note_on_c, 0, 62, 0
1, 13468, Note_on_c, 0, 66, 51
1, 13468, Note_on_c, 0, 69, 64
1, 13472, Control_c, 0, 64, 24
1, 13473, Control_c, 0, 64, 0
1, 13500, Control_c, 0, 64, 24
1, 13502, Control_c, 0, 64, 72
1, 13505, Control_c, 0, 64, 127
1, 13526, Note_on_c, 0, 71, 63
1, 13527, Note_on_c, 0, 69, 0
1, 13527, Note_on_c, 0, 66, 0
1, 13543, Note_on_c, 0, 71, 0
1, 13591, Note_on_c, 0, 68, 68
1, 13593, Note_on_c, 0, 66, 48
1, 13597, Control_c, 0, 64, 72
1, 13600, Control_c, 0, 64, 0
1, 13615, Control_c, 0, 64, 24
1, 13617, Control_c, 0, 64, 40
1, 13620, Control_c, 0, 64, 72
1, 13623, Control_c, 0, 64, 127
1, 13656, Note_on_c, 0, 68, 0
1, 13657, Note_on_c, 0, 69, 70
1, 13660, Note_on_c, 0, 66, 0
1, 13732, Note_on_c, 0, 64, 64
1, 13733, Note_on_c, 0, 69, 0
1, 13736, Note_on_c, 0, 68, 68
1, 13738, Note_on_c, 0, 63, 0
1, 13741, Control_c, 0, 64, 72
1, 13743, Control_c, 0, 64, 0
1, 13768, Control_c, 0, 64, 24
1, 13773, Control_c, 0, 64, 72
1, 13776, Control_c, 0, 64, 127
1, 13786, Control_c, 0, 67, 24
1, 13790, Control_c, 0, 67, 40
1, 13812, Control_c, 0, 67, 56
1, 13817, Control_c, 0, 67, 72
1, 13818, Note_on_c, 0, 69, 66
1, 13822, Control_c, 0, 67, 88
1, 13828, Note_on_c, 0, 73, 0
1, 13828, Note_on_c, 0, 68, 0
1, 13836, Control_c, 0, 67, 104
1, 13837, Note_on_c, 0, 69, 0
1, 13841, Control_c, 0, 67, 127
1, 13913, Note_on_c, 0, 73, 75
1, 13916, Note_on_c, 0, 67, 57
1, 13918, Control_c, 0, 64, 104
1, 13921, Control_c, 0, 64, 40
1, 13923, Control_c, 0, 64, 0
1, 13946, Control_c, 0, 64, 40
1, 13948, Control_c, 0, 64, 72
1, 13951, Control_c, 0, 64, 127
1, 14011, Note_on_c, 0, 68, 76
1, 14018, Note_on_c, 0, 67, 0
1, 14046, Note_on_c, 0, 73, 0
1, 14048, Note_on_c, 0, 68, 0
1, 14057, Note_on_c, 0, 64, 0
1, 14137, Note_on_c, 0, 66, 66
1, 14138, Note_on_c, 0, 73, 68
1, 14140, Note_on_c, 0, 69, 70
1, 14142, Control_c, 0, 64, 0
1, 14172, Control_c, 0, 64, 24
1, 14173, Control_c, 0, 64, 72
1, 14177, Control_c, 0, 64, 127
1, 14237, Note_on_c, 0, 71, 68
1, 14238, Note_on_c, 0, 69, 0
1, 14272, Control_c, 0, 67, 0
1, 14301, Note_on_c, 0, 68, 64
1, 14303, Note_on_c, 0, 61, 80
1, 14303, Control_c, 0, 64, 104
1, 14308, Control_c, 0, 64, 24
1, 14311, Control_c, 0, 64, 0
1, 14312, Note_on_c, 0, 66, 0
1, 14323, Control_c, 0, 64, 24
1, 14327, Control_c, 0, 64, 56
1, 14331, Control_c, 0, 64, 88
1, 14332, Control_c, 0, 64, 127
1, 14343, Note_on_c, 0, 71, 0
1, 14357, Note_on_c, 0, 68, 0
1, 14357, Note_on_c, 0, 69, 58
1, 14397, Note_on_c, 0, 69, 0
1, 14411, Control_c, 0, 64, 88
1, 14412, Note_on_c, 0, 67, 57
1, 14412, Note_on_c, 0, 64, 67
1, 14413, Control_c, 0, 64, 0
1, 14416, Note_on_c, 0, 61, 0
1, 14430, Control_c, 0, 64, 24
1, 14432, Control_c, 0, 64, 56
1, 14436, Control_c, 0, 64, 88
1, 14437, Control_c, 0, 64, 127
1, 14467, Note_on_c, 0, 67, 0
1, 14467, Note_on_c, 0, 69, 54
1, 14513, Note_on_c, 0, 69, 0
1, 14523, Note_on_c, 0, 66, 55
1, 14525, Note_on_c, 0, 62, 61
1, 14527, Note_on_c, 0, 64, 0
1, 14528, Control_c, 0, 64, 72
1, 14532, Control_c, 0, 64, 0
1, 14557, Control_c, 0, 64, 24
1, 14561, Control_c, 0, 64, 72
1, 14562, Control_c, 0, 64, 127
1, 14573, Note_on_c, 0, 66, 0
1, 14581, Note_on_c, 0, 68, 51
1, 14617, Control_c, 0, 67, 127
1, 14642, Note_on_c, 0, 57, 63
1, 14642, Note_on_c, 0, 65, 62
1, 14643, Note_on_c, 0, 62, 0
1, 14645, Note_on_c, 0, 68, 0
1, 14646, Control_c, 0, 64, 40
1, 14647, Control_c, 0, 64, 0
1, 14673, Control_c, 0, 64, 24
1, 14676, Control_c, 0, 64, 56
1, 14680, Control_c, 0, 64, 104
1, 14682, Control_c, 0, 64, 127
1, 14705, Note_on_c, 0, 65, 0
1, 14710, Note_on_c, 0, 66, 59
1, 14771, Note_on_c, 0, 66, 0
1, 14773, Note_on_c, 0, 61, 68
1, 14776, Note_on_c, 0, 64, 60
1, 14778, Control_c, 0, 64, 40
1, 14781, Note_on_c, 0, 57, 0
1, 14781, Control_c, 0, 64, 0
1, 14805, Control_c, 0, 64, 24
1, 14807, Control_c, 0, 64, 56
1, 14810, Control_c, 0, 64, 104
1, 14813, Control_c, 0, 64, 127
1, 14842, Note_on_c, 0, 64, 0
1, 14846, Note_on_c, 0, 66, 60
1, 14875, Note_on_c, 0, 66, 0
1, 14918, Note_on_c, 0, 54, 60
1, 14920, Control_c, 0, 64, 72
1, 14921, Note_on_c, 0, 63, 69
1, 14923, Control_c, 0, 64, 0
1, 14928, Note_on_c, 0, 61, 0
1, 14950, Control_c, 0, 64, 24
1, 14952, Control_c, 0, 64, 56
1, 14956, Control_c, 0, 64, 104
1, 14958, Control_c, 0, 64, 127
1, 15002, Note_on_c, 0, 63, 0
1, 15002, Note_on_c, 0, 54, 0
1, 15005, Note_on_c, 0, 64, 61
1, 15082, Note_on_c, 0, 64, 0
1, 15087, Note_on_c, 0, 62, 53
1, 15092, Note_on_c, 0, 53, 63
1, 15095, Note_on_c, 0, 57, 45
1, 15095, Control_c, 0, 64, 72
1, 15097, Control_c, 0, 64, 0
1, 15130, Control_c, 0, 64, 40
1, 15131, Control_c, 0, 64, 72
1, 15135, Control_c, 0, 64, 127
1, 15162, Note_on_c, 0, 57, 0
1, 15172, Note_on_c, 0, 53, 0
1, 15187, Note_on_c, 0, 62, 0
1, 15196, Note_on_c, 0, 64, 58
1, 15228, Note_on_c, 0, 64, 0
1, 15243, Note_on_c, 0, 73, 0
1, 15291, Note_on_c, 0, 45, 49
1, 15320, Note_on_c, 0, 52, 53
1, 15341, Control_c, 0, 64, 88
1, 15342, Control_c, 0, 64, 0
1, 15352, Note_on_c, 0, 61, 66
1, 15356, Note_on_c, 0, 57, 51
1, 15367, Control_c, 0, 64, 24
1, 15372, Control_c, 0, 64, 72
1, 15375, Control_c, 0, 64, 127
1, 15405, Note_on_c, 0, 45, 0
1, 15407, Note_on_c, 0, 52, 0
1, 15420, Control_c, 0, 67, 104
1, 15430, Control_c, 0, 67, 88
1, 15432, Control_c, 0, 67, 72
1, 15442, Control_c, 0, 67, 56
1, 15447, Control_c, 0, 67, 40
1, 15470, Note_on_c, 0, 57, 0
1, 15471, Control_c, 0, 67, 24
1, 15477, Note_on_c, 0, 69, 51
1, 15485, Control_c, 0, 67, 0
1, 15486, Note_on_c, 0, 61, 0
1, 15531, Note_on_c, 0, 69, 0
1, 15550, Note_on_c, 0, 62, 57
1, 15551, Note_on_c, 0, 59, 46
1, 15610, Note_on_c, 0, 59, 0
1, 15616, Note_on_c, 0, 69, 59
1, 15622, Note_on_c, 0, 62, 0
1, 15642, Note_on_c, 0, 69, 0
1, 15683, Note_on_c, 0, 63, 66
1, 15686, Note_on_c, 0, 61, 56
1, 15701, Control_c, 0, 64, 104
1, 15702, Control_c, 0, 64, 24
1, 15706, Control_c, 0, 64, 0
1, 15725, Control_c, 0, 64, 24
1, 15727, Control_c, 0, 64, 72
1, 15730, Control_c, 0, 64, 127
1, 15757, Note_on_c, 0, 69, 54
1, 15805, Note_on_c, 0, 63, 0
1, 15812, Note_on_c, 0, 64, 67
1, 15815, Control_c, 0, 64, 24
1, 15816, Control_c, 0, 64, 56
1, 15817, Control_c, 0, 64, 72
1, 15820, Note_on_c, 0, 69, 0
1, 15820, Control_c, 0, 64, 88
1, 15820, Control_c, 0, 64, 127
1, 15867, Note_on_c, 0, 61, 0
1, 15870, Note_on_c, 0, 64, 0
1, 15870, Note_on_c, 0, 69, 49
1, 15930, Note_on_c, 0, 69, 0
1, 15947, Note_on_c, 0, 61, 50
1, 15950, Note_on_c, 0, 63, 48
1, 15961, Control_c, 0, 64, 88
1, 15961, Control_c, 0, 64, 40
1, 15962, Control_c, 0, 64, 0
1, 15968, Note_on_c, 0, 85, 68
1, 15987, Control_c, 0, 64, 24
1, 15990, Control_c, 0, 64, 56
1, 15991, Control_c, 0, 64, 88
1, 15995, Control_c, 0, 64, 104
1, 15995, Control_c, 0, 64, 127
1, 16061, Note_on_c, 0, 69, 49
1, 16105, Note_on_c, 0, 63, 0
1, 16121, Note_on_c, 0, 64, 60
1, 16122, Note_on_c, 0, 69, 0
1, 16142, Note_on_c, 0, 61, 0
1, 16176, Note_on_c, 0, 64, 0
1, 16178, Note_on_c, 0, 69, 57
1, 16236, Note_on_c, 0, 61, 59
1, 16237, Note_on_c, 0, 64, 69
1, 16240, Note_on_c, 0, 69, 0
1, 16242, Control_c, 0, 64, 72
1, 16243, Control_c, 0, 64, 40
1, 16246, Control_c, 0, 64, 24
1, 16252, Control_c, 0, 64, 56
1, 16256, Control_c, 0, 64, 72
1, 16257, Control_c, 0, 64, 88
1, 16258, Control_c, 0, 64, 127
1, 16295, Note_on_c, 0, 69, 62
1, 16342, Note_on_c, 0, 85, 0
1, 16348, Note_on_c, 0, 65, 70
1, 16351, Note_on_c, 0, 81, 86
1, 16358, Note_on_c, 0, 69, 0
1, 16367, Note_on_c, 0, 64, 0
1, 16392, Note_on_c, 0, 61, 0
1, 16406, Note_on_c, 0, 65, 0
1, 16407, Note_on_c, 0, 69, 57
1, 16408, Note_on_c, 0, 81, 0
1, 16467, Note_on_c, 0, 69, 0
1, 16472, Note_on_c, 0, 61, 62
1, 16475, Note_on_c, 0, 81, 86
1, 16475, Note_on_c, 0, 65, 70
1, 16481, Control_c, 0, 64, 72
1, 16485, Control_c, 0, 64, 0
1, 16513, Control_c, 0, 64, 40
1, 16515, Control_c, 0, 64, 72
1, 16516, Control_c, 0, 64, 104
1, 16520, Control_c, 0, 64, 127
1, 16555, Note_on_c, 0, 69, 65
1, 16615, Note_on_c, 0, 66, 86
1, 16625, Note_on_c, 0, 69, 0
1, 16631, Note_on_c, 0, 65, 0
1, 16670, Note_on_c, 0, 69, 66
1, 16671, Note_on_c, 0, 66, 0
1, 16683, Note_on_c, 0, 61, 0
1, 16726, Note_on_c, 0, 61, 60
1, 16727, Note_on_c, 0, 69, 0
1, 16727, Note_on_c, 0, 66, 76
1, 16730, Control_c, 0, 64, 72
1, 16731, Control_c, 0, 64, 0
1, 16745, Control_c, 0, 64, 24
1, 16747, Control_c, 0, 64, 40
1, 16750, Control_c, 0, 64, 72
1, 16752, Control_c, 0, 64, 104
1, 16753, Control_c, 0, 64, 127
1, 16777, Note_on_c, 0, 66, 0
1, 16783, Note_on_c, 0, 69, 59
1, 16790, Note_on_c, 0, 61, 0
1, 16820, Note_on_c, 0, 81, 0
1, 16831, Note_on_c, 0, 69, 0
1, 16840, Note_on_c, 0, 68, 69
1, 16841, Note_on_c, 0, 66, 66
1, 16900, Note_on_c, 0, 71, 64
1, 16906, Note_on_c, 0, 68, 0
1, 16911, Note_on_c, 0, 66, 0
1, 16936, Note_on_c, 0, 71, 0
1, 16976, Note_on_c, 0, 68, 75
1, 16978, Note_on_c, 0, 66, 70
1, 16981, Note_on_c, 0, 61, 83
1, 16981, Control_c, 0, 64, 72
1, 16985, Control_c, 0, 64, 0
1, 17006, Control_c, 0, 64, 24
1, 17008, Control_c, 0, 64, 56
1, 17011, Control_c, 0, 64, 104
1, 17013, Control_c, 0, 64, 127
1, 17068, Note_on_c, 0, 71, 70
1, 17075, Note_on_c, 0, 68, 0
1, 17076, Note_on_c, 0, 66, 0
1, 17093, Note_on_c, 0, 71, 0
1, 17135, Note_on_c, 0, 64, 70
1, 17137, Note_on_c, 0, 69, 72
1, 17145, Control_c, 0, 64, 104
1, 17146, Control_c, 0, 64, 24
1, 17150, Control_c, 0, 64, 0
1, 17158, Control_c, 0, 64, 24
1, 17160, Control_c, 0, 64, 56
1, 17163, Control_c, 0, 64, 72
1, 17166, Control_c, 0, 64, 127
1, 17185, Note_on_c, 0, 64, 0
1, 17191, Note_on_c, 0, 73, 67
1, 17208, Note_on_c, 0, 69, 0
1, 17227, Note_on_c, 0, 73, 0
1, 17245, Note_on_c, 0, 69, 76
1, 17245, Note_on_c, 0, 66, 75
1, 17250, Control_c, 0, 64, 104
1, 17253, Control_c, 0, 64, 88
1, 17258, Control_c, 0, 64, 127
1, 17296, Note_on_c, 0, 66, 0
1, 17300, Note_on_c, 0, 73, 68
1, 17315, Note_on_c, 0, 69, 0
1, 17328, Note_on_c, 0, 73, 0
1, 17358, Note_on_c, 0, 69, 68
1, 17361, Note_on_c, 0, 65, 70
1, 17363, Note_on_c, 0, 57, 87
1, 17363, Control_c, 0, 64, 88
1, 17365, Note_on_c, 0, 61, 0
1, 17366, Control_c, 0, 64, 0
1, 17383, Control_c, 0, 64, 24
1, 17385, Control_c, 0, 64, 56
1, 17388, Control_c, 0, 64, 104
1, 17390, Control_c, 0, 64, 127
1, 17423, Note_on_c, 0, 65, 0
1, 17428, Note_on_c, 0, 69, 0
1, 17428, Note_on_c, 0, 73, 66
1, 17438, Note_on_c, 0, 57, 0
1, 17446, Note_on_c, 0, 73, 0
1, 17500, Note_on_c, 0, 73, 61
1, 17500, Note_on_c, 0, 66, 56
1, 17501, Note_on_c, 0, 57, 80
1, 17502, Note_on_c, 0, 69, 58
1, 17505, Control_c, 0, 64, 0
1, 17526, Control_c, 0, 64, 24
1, 17528, Control_c, 0, 64, 88
1, 17531, Control_c, 0, 64, 127
1, 17572, Note_on_c, 0, 73, 0
1, 17583, Note_on_c, 0, 75, 74
1, 17587, Note_on_c, 0, 69, 0
1, 17590, Note_on_c, 0, 66, 0
1, 17608, Note_on_c, 0, 75, 0
1, 17638, Note_on_c, 0, 73, 70
1, 17640, Note_on_c, 0, 69, 68
1, 17641, Note_on_c, 0, 64, 59
1, 17681, Note_on_c, 0, 64, 0
1, 17690, Note_on_c, 0, 76, 64
1, 17695, Note_on_c, 0, 69, 0
1, 17695, Note_on_c, 0, 73, 0
1, 17708, Note_on_c, 0, 76, 0
1, 17731, Note_on_c, 0, 57, 0
1, 17751, Note_on_c, 0, 63, 65
1, 17752, Note_on_c, 0, 61, 58
1, 17757, Control_c, 0, 64, 88
1, 17760, Control_c, 0, 64, 0
1, 17780, Control_c, 0, 64, 24
1, 17785, Control_c, 0, 64, 72
1, 17785, Control_c, 0, 64, 127
1, 17816, Note_on_c, 0, 69, 50
1, 17842, Note_on_c, 0, 63, 0
1, 17875, Note_on_c, 0, 64, 61
1, 17876, Note_on_c, 0, 69, 0
1, 17897, Control_c, 0, 67, 127
1, 17906, Note_on_c, 0, 61, 0
1, 17933, Note_on_c, 0, 69, 49
1, 17936, Note_on_c, 0, 64, 0
1, 17986, Note_on_c, 0, 69, 0
1, 18022, Note_on_c, 0, 63, 54
1, 18023, Note_on_c, 0, 61, 54
1, 18047, Control_c, 0, 64, 104
1, 18050, Note_on_c, 0, 85, 61
1, 18050, Control_c, 0, 64, 0
1, 18076, Control_c, 0, 64, 24
1, 18078, Control_c, 0, 64, 56
1, 18081, Control_c, 0, 64, 104
1, 18083, Control_c, 0, 64, 127
1, 18128, Note_on_c, 0, 69, 57
1, 18170, Note_on_c, 0, 63, 0
1, 18186, Note_on_c, 0, 64, 63
1, 18196, Note_on_c, 0, 69, 0
1, 18232, Note_on_c, 0, 61, 0
1, 18240, Note_on_c, 0, 69, 53
1, 18242, Note_on_c, 0, 64, 0
1, 18297, Note_on_c, 0, 69, 0
1, 18308, Note_on_c, 0, 64, 62
1, 18313, Note_on_c, 0, 61, 46
1, 18366, Note_on_c, 0, 69, 51
1, 18400, Note_on_c, 0, 73, 71
1, 18445, Note_on_c, 0, 69, 0
1, 18447, Note_on_c, 0, 65, 58
1, 18448, Note_on_c, 0, 64, 0
1, 18510, Note_on_c, 0, 69, 55
1, 18513, Note_on_c, 0, 65, 0
1, 18528, Note_on_c, 0, 61, 0
1, 18533, Note_on_c, 0, 73, 0
1, 18535, Note_on_c, 0, 85, 0
1, 18537, Note_on_c, 0, 80, 70
1, 18543, Note_on_c, 0, 69, 0
1, 18561, Note_on_c, 0, 80, 0
1, 18635, Note_on_c, 0, 65, 56
1, 18636, Note_on_c, 0, 61, 52
1, 18648, Note_on_c, 0, 81, 71
1, 18662, Control_c, 0, 64, 88
1, 18663, Control_c, 0, 64, 24
1, 18667, Control_c, 0, 64, 0
1, 18683, Control_c, 0, 64, 24
1, 18687, Control_c, 0, 64, 40
1, 18688, Control_c, 0, 64, 72
1, 18692, Control_c, 0, 64, 104
1, 18695, Control_c, 0, 64, 127
1, 18720, Note_on_c, 0, 69, 55
1, 18782, Note_on_c, 0, 66, 62
1, 18788, Note_on_c, 0, 65, 0
1, 18792, Note_on_c, 0, 69, 0
1, 18838, Note_on_c, 0, 61, 0
1, 18838, Note_on_c, 0, 69, 57
1, 18840, Note_on_c, 0, 66, 0
1, 18888, Note_on_c, 0, 65, 57
1, 18890, Note_on_c, 0, 61, 50
1, 18893, Note_on_c, 0, 69, 0
1, 18900, Control_c, 0, 64, 88
1, 18903, Control_c, 0, 64, 40
1, 18903, Control_c, 0, 64, 24
1, 18913, Control_c, 0, 64, 40
1, 18917, Control_c, 0, 64, 56
1, 18918, Control_c, 0, 64, 88
1, 18921, Control_c, 0, 64, 127
1, 18945, Note_on_c, 0, 65, 0
1, 18947, Note_on_c, 0, 69, 53
1, 18948, Note_on_c, 0, 61, 0
1, 18965, Note_on_c, 0, 81, 0
1, 18977, Note_on_c, 0, 69, 0
1, 18997, Note_on_c, 0, 66, 56
1, 19000, Note_on_c, 0, 62, 55
1, 19047, Note_on_c, 0, 62, 0
1, 19050, Note_on_c, 0, 71, 60
1, 19052, Note_on_c, 0, 66, 0
1, 19081, Control_c, 0, 67, 0
1, 19082, Note_on_c, 0, 71, 0
1, 19113, Note_on_c, 0, 66, 68
1, 19113, Note_on_c, 0, 63, 71
1, 19135, Control_c, 0, 64, 104
1, 19136, Note_on_c, 0, 57, 80
1, 19138, Control_c, 0, 64, 0
1, 19163, Control_c, 0, 64, 40
1, 19165, Control_c, 0, 64, 72
1, 19170, Control_c, 0, 64, 104
1, 19172, Control_c, 0, 64, 127
1, 19221, Note_on_c, 0, 71, 61
1, 19225, Note_on_c, 0, 63, 0
1, 19228, Note_on_c, 0, 66, 0
1, 19272, Note_on_c, 0, 71, 0
1, 19285, Note_on_c, 0, 66, 75
1, 19286, Note_on_c, 0, 62, 70
1, 19292, Control_c, 0, 64, 72
1, 19296, Control_c, 0, 64, 24
1, 19298, Control_c, 0, 64, 0
1, 19303, Control_c, 0, 64, 40
1, 19307, Control_c, 0, 64, 56
1, 19308, Control_c, 0, 64, 88
1, 19313, Control_c, 0, 64, 127
1, 19338, Note_on_c, 0, 62, 0
1, 19343, Note_on_c, 0, 72, 61
1, 19357, Note_on_c, 0, 66, 0
1, 19388, Note_on_c, 0, 72, 0
1, 19398, Note_on_c, 0, 66, 68
1, 19400, Note_on_c, 0, 62, 69
1, 19410, Note_on_c, 0, 57, 0
1, 19438, Note_on_c, 0, 62, 0
1, 19450, Note_on_c, 0, 72, 61
1, 19452, Note_on_c, 0, 66, 0
1, 19478, Note_on_c, 0, 72, 0
1, 19500, Note_on_c, 0, 61, 65
1, 19502, Note_on_c, 0, 66, 66
1, 19503, Note_on_c, 0, 54, 93
1, 19506, Control_c, 0, 64, 40
1, 19507, Note_on_c, 0, 69, 62
1, 19508, Control_c, 0, 64, 0
1, 19525, Control_c, 0, 64, 24
1, 19527, Control_c, 0, 64, 56
1, 19530, Control_c, 0, 64, 88
1, 19532, Control_c, 0, 64, 127
1, 19553, Note_on_c, 0, 61, 0
1, 19562, Note_on_c, 0, 73, 59
1, 19568, Note_on_c, 0, 69, 0
1, 19573, Note_on_c, 0, 66, 0
1, 19578, Note_on_c, 0, 54, 0
1, 19590, Note_on_c, 0, 73, 0
1, 19631, Note_on_c, 0, 64, 71
1, 19632, Note_on_c, 0, 66, 62
1, 19632, Note_on_c, 0, 69, 64
1, 19633, Note_on_c, 0, 54, 88
1, 19637, Control_c, 0, 64, 0
1, 19661, Control_c, 0, 64, 40
1, 19663, Control_c, 0, 64, 88
1, 19667, Control_c, 0, 64, 127
1, 19693, Note_on_c, 0, 64, 0
1, 19710, Note_on_c, 0, 73, 54
1, 19718, Note_on_c, 0, 66, 0
1, 19721, Note_on_c, 0, 69, 0
1, 19733, Note_on_c, 0, 73, 0
1, 19763, Note_on_c, 0, 69, 75
1, 19765, Note_on_c, 0, 62, 66
1, 19766, Note_on_c, 0, 66, 66
1, 19805, Note_on_c, 0, 62, 0
1, 19812, Note_on_c, 0, 74, 62
1, 19821, Note_on_c, 0, 69, 0
1, 19826, Note_on_c, 0, 66, 0
1, 19827, Note_on_c, 0, 74, 0
1, 19877, Note_on_c, 0, 56, 76
1, 19878, Note_on_c, 0, 66, 80
1, 19882, Note_on_c, 0, 62, 73
1, 19882, Control_c, 0, 64, 24
1, 19885, Control_c, 0, 64, 0
1, 19897, Control_c, 0, 64, 24
1, 19898, Control_c, 0, 64, 40
1, 19902, Control_c, 0, 64, 88
1, 19906, Control_c, 0, 64, 127
1, 19943, Note_on_c, 0, 66, 0
1, 19946, Note_on_c, 0, 54, 0
1, 19947, Note_on_c, 0, 62, 0
1, 19951, Note_on_c, 0, 68, 81
1, 19958, Note_on_c, 0, 56, 0
1, 19978, Note_on_c, 0, 68, 0
1, 20006, Note_on_c, 0, 66, 75
1, 20007, Note_on_c, 0, 57, 71
1, 20007, Note_on_c, 0, 62, 74
1, 20058, Note_on_c, 0, 69, 76
1, 20072, Note_on_c, 0, 57, 0
1, 20072, Note_on_c, 0, 66, 0
1, 20077, Note_on_c, 0, 62, 0
1, 20083, Note_on_c, 0, 69, 0
1, 20131, Note_on_c, 0, 66, 75
1, 20131, Note_on_c, 0, 62, 75
1, 20131, Control_c, 0, 64, 56
1, 20133, Note_on_c, 0, 57, 70
1, 20136, Control_c, 0, 64, 0
1, 20141, Note_on_c, 0, 90, 76
1, 20143, Note_on_c, 0, 78, 90
1, 20162, Control_c, 0, 64, 24
1, 20167, Control_c, 0, 64, 88
1, 20167, Control_c, 0, 64, 127
1, 20216, Note_on_c, 0, 57, 0
1, 20221, Note_on_c, 0, 62, 0
1, 20226, Note_on_c, 0, 69, 61
1, 20231, Note_on_c, 0, 66, 0
1, 20248, Note_on_c, 0, 69, 0
1, 20285, Note_on_c, 0, 58, 74
1, 20286, Note_on_c, 0, 66, 79
1, 20287, Note_on_c, 0, 61, 77
1, 20296, Control_c, 0, 64, 88
1, 20297, Control_c, 0, 64, 40
1, 20301, Control_c, 0, 64, 24
1, 20307, Control_c, 0, 64, 56
1, 20308, Control_c, 0, 64, 72
1, 20311, Control_c, 0, 64, 104
1, 20316, Control_c, 0, 64, 127
1, 20342, Note_on_c, 0, 70, 79
1, 20351, Note_on_c, 0, 66, 0
1, 20363, Note_on_c, 0, 58, 0
1, 20367, Note_on_c, 0, 61, 0
1, 20372, Note_on_c, 0, 70, 0
1, 20392, Control_c, 0, 64, 88
1, 20393, Note_on_c, 0, 66, 75
1, 20396, Note_on_c, 0, 62, 78
1, 20396, Note_on_c, 0, 57, 75
1, 20397, Control_c, 0, 64, 0
1, 20412, Control_c, 0, 64, 24
1, 20416, Control_c, 0, 64, 56
1, 20417, Control_c, 0, 64, 127
1, 20431, Note_on_c, 0, 90, 0
1, 20432, Note_on_c, 0, 78, 0
1, 20441, Note_on_c, 0, 57, 0
1, 20447, Note_on_c, 0, 69, 72
1, 20452, Note_on_c, 0, 62, 0
1, 20458, Note_on_c, 0, 66, 0
1, 20471, Note_on_c, 0, 69, 0
1, 20498, Note_on_c, 0, 66, 71
1, 20498, Note_on_c, 0, 58, 61
1, 20501, Note_on_c, 0, 61, 66
1, 20501, Note_on_c, 0, 86, 80
1, 20503, Note_on_c, 0, 74, 81
1, 20503, Control_c, 0, 64, 0
1, 20516, Control_c, 0, 64, 24
1, 20516, Control_c, 0, 64, 56
1, 20521, Control_c, 0, 64, 88
1, 20522, Control_c, 0, 64, 127
1, 20547, Note_on_c, 0, 58, 0
1, 20552, Note_on_c, 0, 70, 75
1, 20557, Note_on_c, 0, 61, 0
1, 20563, Note_on_c, 0, 86, 0
1, 20565, Note_on_c, 0, 66, 0
1, 20568, Note_on_c, 0, 74, 0
1, 20577, Note_on_c, 0, 70, 0
1, 20611, Note_on_c, 0, 58, 76
1, 20612, Note_on_c, 0, 66, 79
1, 20613, Note_on_c, 0, 61, 76
1, 20615, Control_c, 0, 64, 56
1, 20616, Note_on_c, 0, 86, 77
1, 20617, Note_on_c, 0, 74, 86
1, 20618, Control_c, 0, 64, 0
1, 20633, Control_c, 0, 64, 24
1, 20637, Control_c, 0, 64, 56
1, 20638, Control_c, 0, 64, 127
1, 20666, Note_on_c, 0, 58, 0
1, 20670, Note_on_c, 0, 70, 75
1, 20683, Note_on_c, 0, 66, 0
1, 20686, Note_on_c, 0, 61, 0
1, 20701, Note_on_c, 0, 70, 0
1, 20722, Note_on_c, 0, 66, 70
1, 20723, Note_on_c, 0, 59, 69
1, 20725, Note_on_c, 0, 62, 73
1, 20728, Control_c, 0, 64, 88
1, 20732, Control_c, 0, 64, 24
1, 20733, Control_c, 0, 64, 0
1, 20742, Control_c, 0, 64, 24
1, 20745, Control_c, 0, 64, 56
1, 20748, Control_c, 0, 64, 104
1, 20750, Control_c, 0, 64, 127
1, 20768, Note_on_c, 0, 71, 70
1, 20771, Note_on_c, 0, 59, 0
1, 20781, Note_on_c, 0, 62, 0
1, 20782, Note_on_c, 0, 66, 0
1, 20795, Note_on_c, 0, 71, 0
1, 20818, Note_on_c, 0, 58, 75
1, 20820, Note_on_c, 0, 61, 72
1, 20820, Note_on_c, 0, 66, 68
1, 20825, Control_c, 0, 64, 72
1, 20827, Control_c, 0, 64, 0
1, 20842, Control_c, 0, 64, 24
1, 20845, Control_c, 0, 64, 56
1, 20848, Control_c, 0, 64, 104
1, 20850, Control_c, 0, 64, 127
1, 20877, Note_on_c, 0, 70, 81
1, 20887, Note_on_c, 0, 61, 0
1, 20891, Note_on_c, 0, 58, 0
1, 20897, Note_on_c, 0, 66, 0
1, 20910, Note_on_c, 0, 70, 0
1, 20921, Note_on_c, 0, 66, 69
1, 20925, Note_on_c, 0, 59, 67
1, 20926, Note_on_c, 0, 86, 0
1, 20927, Note_on_c, 0, 62, 66
1, 20930, Note_on_c, 0, 74, 0
1, 20955, Note_on_c, 0, 59, 0
1, 20966, Note_on_c, 0, 62, 0
1, 20971, Note_on_c, 0, 71, 72
1, 20982, Note_on_c, 0, 66, 0
1, 21000, Note_on_c, 0, 71, 0
1, 21036, Note_on_c, 0, 59, 76
1, 21038, Note_on_c, 0, 66, 78
1, 21040, Note_on_c, 0, 62, 72
1, 21042, Control_c, 0, 64, 24
1, 21043, Note_on_c, 0, 54, 88
1, 21046, Control_c, 0, 64, 0
1, 21076, Control_c, 0, 64, 40
1, 21077, Control_c, 0, 64, 88
1, 21081, Control_c, 0, 64, 127
1, 21097, Note_on_c, 0, 62, 0
1, 21100, Note_on_c, 0, 59, 0
1, 21102, Note_on_c, 0, 71, 64
1, 21106, Note_on_c, 0, 66, 0
1, 21120, Note_on_c, 0, 71, 0
1, 21157, Note_on_c, 0, 61, 76
1, 21158, Note_on_c, 0, 66, 71
1, 21161, Note_on_c, 0, 64, 70
1, 21166, Control_c, 0, 64, 104
1, 21168, Control_c, 0, 64, 56
1, 21177, Control_c, 0, 64, 88
1, 21181, Control_c, 0, 64, 104
1, 21182, Control_c, 0, 64, 127
1, 21207, Note_on_c, 0, 73, 71
1, 21222, Note_on_c, 0, 61, 0
1, 21226, Note_on_c, 0, 64, 0
1, 21230, Note_on_c, 0, 66, 0
1, 21243, Note_on_c, 0, 73, 0
1, 21273, Note_on_c, 0, 66, 79
1, 21275, Note_on_c, 0, 62, 67
1, 21276, Note_on_c, 0, 59, 73
1, 21287, Control_c, 0, 64, 104
1, 21290, Control_c, 0, 64, 72
1, 21292, Control_c, 0, 64, 56
1, 21297, Control_c, 0, 64, 104
1, 21301, Control_c, 0, 64, 127
1, 21306, Note_on_c, 0, 62, 0
1, 21328, Note_on_c, 0, 59, 0
1, 21336, Note_on_c, 0, 73, 82
1, 21348, Note_on_c, 0, 66, 0
1, 21356, Note_on_c, 0, 73, 0
1, 21392, Note_on_c, 0, 58, 72
1, 21396, Note_on_c, 0, 64, 71
1, 21396, Note_on_c, 0, 67, 62
1, 21397, Note_on_c, 0, 50, 86
1, 21397, Control_c, 0, 64, 0
1, 21400, Note_on_c, 0, 54, 0
1, 21416, Control_c, 0, 64, 24
1, 21417, Control_c, 0, 64, 56
1, 21421, Control_c, 0, 64, 104
1, 21423, Note_on_c, 0, 58, 0
1, 21425, Control_c, 0, 64, 127
1, 21453, Note_on_c, 0, 74, 69
1, 21467, Note_on_c, 0, 74, 0
1, 21467, Note_on_c, 0, 67, 0
1, 21467, Note_on_c, 0, 64, 0
1, 21481, Note_on_c, 0, 50, 0
1, 21523, Control_c, 0, 64, 104
1, 21525, Note_on_c, 0, 64, 66
1, 21525, Note_on_c, 0, 57, 72
1, 21526, Note_on_c, 0, 67, 64
1, 21526, Control_c, 0, 64, 0
1, 21531, Note_on_c, 0, 50, 84
1, 21543, Control_c, 0, 64, 24
1, 21543, Control_c, 0, 64, 40
1, 21545, Control_c, 0, 64, 56
1, 21546, Control_c, 0, 64, 72
1, 21547, Control_c, 0, 64, 24
1, 21547, Control_c, 0, 64, 88
1, 21550, Control_c, 0, 64, 104
1, 21550, Control_c, 0, 64, 56
1, 21551, Control_c, 0, 64, 127
1, 21552, Control_c, 0, 64, 104
1, 21555, Control_c, 0, 64, 127
1, 21557, Note_on_c, 0, 57, 0
1, 21601, Note_on_c, 0, 74, 84
1, 21611, Note_on_c, 0, 64, 0
1, 21611, Note_on_c, 0, 67, 0
1, 21615, Note_on_c, 0, 74, 0
1, 21621, Note_on_c, 0, 50, 0
1, 21666, Note_on_c, 0, 66, 69
1, 21667, Note_on_c, 0, 62, 67
1, 21667, Note_on_c, 0, 69, 64
1, 21725, Note_on_c, 0, 74, 66
1, 21730, Note_on_c, 0, 74, 0
1, 21731, Note_on_c, 0, 69, 0
1, 21732, Note_on_c, 0, 62, 0
1, 21735, Note_on_c, 0, 66, 0
1, 21801, Note_on_c, 0, 56, 74
1, 21801, Note_on_c, 0, 66, 75
1, 21801, Note_on_c, 0, 62, 68
1, 21806, Control_c, 0, 64, 104
1, 21806, Control_c, 0, 64, 56
1, 21807, Control_c, 0, 64, 24
1, 21811, Control_c, 0, 64, 40
1, 21815, Control_c, 0, 64, 72
1, 21816, Control_c, 0, 64, 88
1, 21816, Control_c, 0, 64, 104
1, 21820, Control_c, 0, 64, 127
1, 21900, Note_on_c, 0, 68, 76
1, 21905, Note_on_c, 0, 62, 0
1, 21905, Note_on_c, 0, 56, 0
1, 21915, Note_on_c, 0, 66, 0
1, 21927, Note_on_c, 0, 68, 0
1, 21952, Note_on_c, 0, 66, 81
1, 21955, Note_on_c, 0, 62, 77
1, 21955, Note_on_c, 0, 57, 64
1, 21961, Control_c, 0, 64, 104
1, 21962, Control_c, 0, 64, 72
1, 21970, Control_c, 0, 64, 104
1, 21971, Control_c, 0, 64, 127
1, 22005, Note_on_c, 0, 57, 0
1, 22006, Note_on_c, 0, 69, 71
1, 22011, Note_on_c, 0, 62, 0
1, 22015, Note_on_c, 0, 66, 0
1, 22032, Note_on_c, 0, 69, 0
1, 22052, Note_on_c, 0, 66, 79
1, 22052, Note_on_c, 0, 57, 77
1, 22053, Note_on_c, 0, 62, 80
1, 22062, Control_c, 0, 64, 104
1, 22065, Control_c, 0, 64, 40
1, 22066, Control_c, 0, 64, 0
1, 22067, Note_on_c, 0, 90, 85
1, 22068, Note_on_c, 0, 78, 95
1, 22070, Control_c, 0, 64, 24
1, 22071, Control_c, 0, 64, 40
1, 22072, Control_c, 0, 64, 56
1, 22073, Control_c, 0, 64, 88
1, 22076, Control_c, 0, 64, 127
1, 22120, Note_on_c, 0, 62, 0
1, 22120, Note_on_c, 0, 57, 0
1, 22120, Note_on_c, 0, 69, 64
1, 22121, Note_on_c, 0, 90, 0
1, 22122, Note_on_c, 0, 78, 0
1, 22125, Note_on_c, 0, 66, 0
1, 22135, Note_on_c, 0, 69, 0
1, 22166, Note_on_c, 0, 58, 71
1, 22166, Note_on_c, 0, 66, 76
1, 22167, Note_on_c, 0, 61, 74
1, 22177, Control_c, 0, 64, 88
1, 22181, Control_c, 0, 64, 40
1, 22181, Note_on_c, 0, 78, 97
1, 22182, Control_c, 0, 64, 0
1, 22186, Control_c, 0, 64, 40
1, 22187, Control_c, 0, 64, 72
1, 22191, Control_c, 0, 64, 104
1, 22191, Control_c, 0, 64, 127
1, 22245, Note_on_c, 0, 66, 0
1, 22245, Note_on_c, 0, 70, 75
1, 22258, Note_on_c, 0, 58, 0
1, 22258, Note_on_c, 0, 61, 0
1, 22267, Note_on_c, 0, 70, 0
1, 22295, Note_on_c, 0, 66, 77
1, 22295, Note_on_c, 0, 62, 75
1, 22295, Note_on_c, 0, 57, 63
1, 22300, Control_c, 0, 64, 104
1, 22300, Control_c, 0, 64, 56
1, 22302, Control_c, 0, 64, 40
1, 22306, Control_c, 0, 64, 56
1, 22310, Control_c, 0, 64, 88
1, 22311, Control_c, 0, 64, 127
1, 22332, Note_on_c, 0, 78, 0
1, 22356, Note_on_c, 0, 69, 74
1, 22366, Note_on_c, 0, 57, 0
1, 22371, Note_on_c, 0, 62, 0
1, 22372, Note_on_c, 0, 78, 95
1, 22376, Note_on_c, 0, 66, 0
1, 22383, Note_on_c, 0, 69, 0
1, 22425, Note_on_c, 0, 66, 75
1, 22425, Note_on_c, 0, 58, 70
1, 22425, Note_on_c, 0, 61, 74
1, 22436, Control_c, 0, 64, 88
1, 22437, Control_c, 0, 64, 72
1, 22442, Control_c, 0, 64, 88
1, 22443, Control_c, 0, 64, 127
1, 22446, Note_on_c, 0, 78, 0
1, 22446, Note_on_c, 0, 85, 87
1, 22446, Note_on_c, 0, 73, 95
1, 22501, Note_on_c, 0, 85, 0
1, 22505, Note_on_c, 0, 73, 0
1, 22505, Note_on_c, 0, 78, 87
1, 22522, Note_on_c, 0, 70, 78
1, 22531, Note_on_c, 0, 66, 0
1, 22545, Note_on_c, 0, 61, 0
1, 22546, Note_on_c, 0, 78, 0
1, 22546, Note_on_c, 0, 58, 0
1, 22547, Note_on_c, 0, 73, 100
1, 22548, Note_on_c, 0, 85, 86
1, 22552, Note_on_c, 0, 70, 0
1, 22568, Note_on_c, 0, 73, 0
1, 22572, Note_on_c, 0, 85, 0
1, 22597, Note_on_c, 0, 58, 81
1, 22598, Note_on_c, 0, 61, 75
1, 22600, Note_on_c, 0, 66, 77
1, 22606, Control_c, 0, 64, 88
1, 22607, Note_on_c, 0, 74, 86
1, 22607, Note_on_c, 0, 86, 84
1, 22608, Control_c, 0, 64, 0
1, 22625, Control_c, 0, 64, 24
1, 22626, Control_c, 0, 64, 72
1, 22630, Control_c, 0, 64, 104
1, 22631, Control_c, 0, 64, 127
1, 22680, Note_on_c, 0, 70, 74
1, 22688, Note_on_c, 0, 66, 0
1, 22690, Note_on_c, 0, 58, 0
1, 22695, Note_on_c, 0, 61, 0
1, 22703, Note_on_c, 0, 70, 0
1, 22735, Note_on_c, 0, 66, 79
1, 22735, Note_on_c, 0, 59, 74
1, 22736, Note_on_c, 0, 62, 77
1, 22741, Control_c, 0, 64, 104
1, 22743, Control_c, 0, 64, 72
1, 22745, Control_c, 0, 64, 40
1, 22746, Control_c, 0, 64, 24
1, 22748, Control_c, 0, 64, 40
1, 22751, Control_c, 0, 64, 56
1, 22752, Control_c, 0, 64, 72
1, 22753, Control_c, 0, 64, 104
1, 22756, Control_c, 0, 64, 127
1, 22788, Note_on_c, 0, 62, 0
1, 22788, Note_on_c, 0, 71, 67
1, 22790, Note_on_c, 0, 59, 0
1, 22793, Note_on_c, 0, 66, 0
1, 22805, Note_on_c, 0, 71, 0
1, 22833, Note_on_c, 0, 58, 79
1, 22835, Note_on_c, 0, 61, 78
1, 22835, Note_on_c, 0, 66, 81
1, 22836, Control_c, 0, 64, 88
1, 22838, Control_c, 0, 64, 24
1, 22840, Control_c, 0, 64, 0
1, 22847, Control_c, 0, 64, 40
1, 22848, Control_c, 0, 64, 72
1, 22851, Control_c, 0, 64, 104
1, 22851, Control_c, 0, 64, 127
1, 22886, Note_on_c, 0, 70, 83
1, 22893, Note_on_c, 0, 66, 0
1, 22893, Note_on_c, 0, 61, 0
1, 22898, Note_on_c, 0, 58, 0
1, 22911, Note_on_c, 0, 70, 0
1, 22935, Note_on_c, 0, 66, 86
1, 22936, Control_c, 0, 64, 72
1, 22937, Note_on_c, 0, 62, 78
1, 22937, Note_on_c, 0, 59, 78
1, 22940, Control_c, 0, 64, 0
1, 22946, Control_c, 0, 64, 24
1, 22947, Control_c, 0, 64, 56
1, 22948, Control_c, 0, 64, 88
1, 22950, Control_c, 0, 64, 127
1, 22957, Note_on_c, 0, 86, 0
1, 22965, Note_on_c, 0, 74, 0
1, 22985, Note_on_c, 0, 71, 79
1, 22995, Note_on_c, 0, 62, 0
1, 22995, Note_on_c, 0, 66, 0
1, 22996, Note_on_c, 0, 59, 0
1, 23013, Note_on_c, 0, 71, 0
1, 23055, Note_on_c, 0, 59, 82
1, 23055, Note_on_c, 0, 66, 84
1, 23057, Note_on_c, 0, 62, 78
1, 23057, Note_on_c, 0, 50, 101
1, 23058, Control_c, 0, 64, 0
1, 23080, Control_c, 0, 64, 24
1, 23081, Control_c, 0, 64, 72
1, 23085, Control_c, 0, 64, 127
1, 23136, Note_on_c, 0, 71, 73
1, 23142, Note_on_c, 0, 62, 0
1, 23142, Note_on_c, 0, 59, 0
1, 23143, Note_on_c, 0, 66, 0
1, 23188, Note_on_c, 0, 71, 0
1, 23196, Note_on_c, 0, 66, 89
1, 23196, Note_on_c, 0, 60, 75
1, 23196, Note_on_c, 0, 62, 81
1, 23198, Control_c, 0, 64, 56
1, 23201, Control_c, 0, 64, 0
1, 23216, Control_c, 0, 64, 40
1, 23218, Control_c, 0, 64, 88
1, 23220, Control_c, 0, 64, 127
1, 23250, Note_on_c, 0, 72, 80
1, 23260, Note_on_c, 0, 66, 0
1, 23265, Note_on_c, 0, 60, 0
1, 23266, Note_on_c, 0, 62, 0
1, 23291, Note_on_c, 0, 72, 0
1, 23300, Note_on_c, 0, 66, 88
1, 23300, Note_on_c, 0, 60, 79
1, 23301, Note_on_c, 0, 62, 81
1, 23332, Note_on_c, 0, 60, 0
1, 23343, Note_on_c, 0, 62, 0
1, 23343, Note_on_c, 0, 66, 0
1, 23346, Note_on_c, 0, 72, 74
1, 23365, Note_on_c, 0, 72, 0
1, 23396, Note_on_c, 0, 50, 0
1, 23396, Note_on_c, 0, 61, 68
1, 23398, Note_on_c, 0, 66, 83
1, 23398, Note_on_c, 0, 47, 98
1, 23400, Note_on_c, 0, 62, 77
1, 23400, Control_c, 0, 64, 0
1, 23420, Control_c, 0, 64, 40
1, 23422, Control_c, 0, 64, 72
1, 23425, Control_c, 0, 64, 127
1, 23448, Note_on_c, 0, 62, 0
1, 23448, Note_on_c, 0, 66, 0
1, 23451, Note_on_c, 0, 73, 76
1, 23458, Note_on_c, 0, 61, 0
1, 23461, Note_on_c, 0, 47, 0
1, 23468, Note_on_c, 0, 73, 0
1, 23501, Control_c, 0, 64, 88
1, 23505, Note_on_c, 0, 47, 101
1, 23505, Note_on_c, 0, 61, 87
1, 23505, Note_on_c, 0, 67, 84
1, 23505, Control_c, 0, 64, 0
1, 23522, Control_c, 0, 64, 24
1, 23525, Control_c, 0, 64, 72
1, 23526, Control_c, 0, 64, 127
1, 23551, Note_on_c, 0, 61, 0
1, 23553, Note_on_c, 0, 73, 78
1, 23560, Note_on_c, 0, 67, 0
1, 23573, Note_on_c, 0, 73, 0
1, 23600, Control_c, 0, 64, 104
1, 23601, Note_on_c, 0, 62, 83
1, 23601, Note_on_c, 0, 67, 83
1, 23605, Control_c, 0, 64, 0
1, 23612, Control_c, 0, 64, 24
1, 23615, Control_c, 0, 64, 72
1, 23615, Control_c, 0, 64, 127
1, 23621, Note_on_c, 0, 47, 0
1, 23641, Note_on_c, 0, 62, 0
1, 23646, Note_on_c, 0, 74, 84
1, 23658, Note_on_c, 0, 74, 0
1, 23658, Note_on_c, 0, 67, 0
1, 23728, Control_c, 0, 64, 104
1, 23731, Control_c, 0, 64, 24
1, 23733, Control_c, 0, 64, 0
1, 23733, Note_on_c, 0, 66, 55
1, 23738, Note_on_c, 0, 62, 52
1, 23738, Note_on_c, 0, 86, 65
1, 23740, Note_on_c, 0, 59, 59
1, 23741, Note_on_c, 0, 74, 54
1, 23773, Control_c, 0, 64, 40
1, 23775, Control_c, 0, 64, 72
1, 23777, Control_c, 0, 64, 127
1, 23805, Note_on_c, 0, 59, 0
1, 23816, Note_on_c, 0, 71, 57
1, 23821, Note_on_c, 0, 62, 0
1, 23821, Note_on_c, 0, 66, 0
1, 23845, Note_on_c, 0, 71, 0
1, 23877, Note_on_c, 0, 67, 60
1, 23880, Note_on_c, 0, 62, 58
1, 23881, Note_on_c, 0, 59, 42
1, 23890, Note_on_c, 0, 86, 0
1, 23897, Note_on_c, 0, 74, 0
1, 23925, Note_on_c, 0, 67, 0
1, 23926, Note_on_c, 0, 62, 0
1, 23926, Note_on_c, 0, 71, 66
1, 23928, Note_on_c, 0, 59, 0
1, 23951, Note_on_c, 0, 71, 0
1, 23985, Note_on_c, 0, 62, 64
1, 23985, Note_on_c, 0, 59, 58
1, 23986, Note_on_c, 0, 67, 63
1, 23995, Control_c, 0, 64, 72
1, 23996, Control_c, 0, 64, 0
1, 23998, Note_on_c, 0, 45, 103
1, 24015, Control_c, 0, 64, 24
1, 24018, Control_c, 0, 64, 56
1, 24018, Control_c, 0, 64, 88
1, 24020, Control_c, 0, 64, 127
1, 24062, Note_on_c, 0, 62, 0
1, 24068, Note_on_c, 0, 71, 73
1, 24070, Note_on_c, 0, 67, 0
1, 24077, Note_on_c, 0, 59, 0
1, 24100, Note_on_c, 0, 71, 0
1, 24111, Note_on_c, 0, 63, 90
1, 24112, Note_on_c, 0, 59, 80
1, 24113, Note_on_c, 0, 45, 0
1, 24113, Note_on_c, 0, 67, 82
1, 24142, Note_on_c, 0, 59, 0
1, 24152, Note_on_c, 0, 67, 0
1, 24153, Note_on_c, 0, 71, 83
1, 24160, Note_on_c, 0, 63, 0
1, 24175, Note_on_c, 0, 71, 0
1, 24192, Note_on_c, 0, 66, 93
1, 24193, Note_on_c, 0, 63, 93
1, 24193, Note_on_c, 0, 59, 85
1, 24211, Note_on_c, 0, 87, 82
1, 24211, Note_on_c, 0, 75, 104
1, 24278, Note_on_c, 0, 71, 76
1, 24287, Note_on_c, 0, 66, 0
1, 24288, Note_on_c, 0, 59, 0
1, 24290, Note_on_c, 0, 63, 0
1, 24315, Note_on_c, 0, 71, 0
1, 24325, Note_on_c, 0, 63, 87
1, 24325, Note_on_c, 0, 67, 82
1, 24326, Note_on_c, 0, 59, 78
1, 24335, Note_on_c, 0, 87, 0
1, 24340, Note_on_c, 0, 75, 0
1, 24367, Note_on_c, 0, 71, 78
1, 24368, Note_on_c, 0, 67, 0
1, 24375, Note_on_c, 0, 63, 0
1, 24377, Note_on_c, 0, 59, 0
1, 24396, Note_on_c, 0, 71, 0
1, 24427, Control_c, 0, 64, 104
1, 24428, Note_on_c, 0, 59, 86
1, 24430, Note_on_c, 0, 63, 95
1, 24430, Note_on_c, 0, 68, 91
1, 24430, Control_c, 0, 64, 0
1, 24432, Note_on_c, 0, 44, 116
1, 24458, Control_c, 0, 64, 24
1, 24460, Control_c, 0, 64, 88
1, 24463, Control_c, 0, 64, 127
1, 24503, Note_on_c, 0, 63, 0
1, 24508, Note_on_c, 0, 68, 0
1, 24510, Note_on_c, 0, 71, 65
1, 24515, Note_on_c, 0, 59, 0
1, 24540, Note_on_c, 0, 71, 0
1, 24551, Note_on_c, 0, 68, 91
1, 24552, Note_on_c, 0, 59, 82
1, 24553, Note_on_c, 0, 64, 85
1, 24560, Note_on_c, 0, 44, 0
1, 24583, Note_on_c, 0, 59, 0
1, 24593, Note_on_c, 0, 64, 0
1, 24596, Note_on_c, 0, 68, 0
1, 24598, Note_on_c, 0, 71, 69
1, 24620, Note_on_c, 0, 71, 0
1, 24642, Note_on_c, 0, 67, 87
1, 24643, Note_on_c, 0, 59, 84
1, 24643, Note_on_c, 0, 88, 102
1, 24645, Note_on_c, 0, 64, 89
1, 24645, Note_on_c, 0, 76, 104
1, 24691, Note_on_c, 0, 88, 0
1, 24698, Note_on_c, 0, 76, 0
1, 24698, Note_on_c, 0, 67, 0
1, 24702, Note_on_c, 0, 71, 88
1, 24703, Note_on_c, 0, 64, 0
1, 24712, Note_on_c, 0, 59, 0
1, 24727, Note_on_c, 0, 71, 0
1, 24758, Note_on_c, 0, 68, 89
1, 24758, Note_on_c, 0, 59, 79
1, 24758, Note_on_c, 0, 64, 84
1, 24760, Control_c, 0, 64, 72
1, 24762, Control_c, 0, 64, 0
1, 24773, Note_on_c, 0, 44, 115
1, 24782, Control_c, 0, 64, 24
1, 24783, Control_c, 0, 64, 72
1, 24787, Control_c, 0, 64, 104
1, 24788, Control_c, 0, 64, 127
1, 24815, Note_on_c, 0, 44, 0
1, 24820, Note_on_c, 0, 43, 108
1, 24823, Note_on_c, 0, 59, 0
1, 24838, Note_on_c, 0, 68, 0
1, 24838, Note_on_c, 0, 64, 0
1, 24850, Note_on_c, 0, 71, 85
1, 24853, Note_on_c, 0, 59, 66
1, 24858, Note_on_c, 0, 59, 0
1, 24860, Note_on_c, 0, 43, 0
1, 24871, Note_on_c, 0, 71, 0
1, 24871, Note_on_c, 0, 44, 114
1, 24946, Note_on_c, 0, 53, 90
1, 24947, Note_on_c, 0, 62, 90
1, 24948, Note_on_c, 0, 43, 111
1, 24948, Note_on_c, 0, 59, 92
1, 24950, Control_c, 0, 64, 0
1, 24953, Note_on_c, 0, 44, 0
1, 25027, Control_c, 0, 64, 24
1, 25028, Control_c, 0, 64, 56
1, 25030, Control_c, 0, 64, 72
1, 25033, Control_c, 0, 64, 88
1, 25035, Control_c, 0, 64, 127
1, 25060, Note_on_c, 0, 64, 91
1, 25067, Note_on_c, 0, 62, 0
1, 25073, Note_on_c, 0, 59, 0
1, 25082, Note_on_c, 0, 53, 0
1, 25105, Note_on_c, 0, 64, 0
1, 25133, Note_on_c, 0, 62, 92
1, 25135, Control_c, 0, 64, 72
1, 25136, Note_on_c, 0, 59, 92
1, 25137, Note_on_c, 0, 53, 92
1, 25138, Control_c, 0, 64, 0
1, 25151, Control_c, 0, 64, 24
1, 25153, Control_c, 0, 64, 56
1, 25155, Control_c, 0, 64, 88
1, 25157, Control_c, 0, 64, 127
1, 25218, Note_on_c, 0, 65, 89
1, 25225, Note_on_c, 0, 62, 0
1, 25228, Note_on_c, 0, 59, 0
1, 25232, Note_on_c, 0, 53, 0
1, 25248, Note_on_c, 0, 65, 0
1, 25277, Note_on_c, 0, 62, 92
1, 25277, Note_on_c, 0, 59, 91
1, 25278, Note_on_c, 0, 53, 88
1, 25340, Note_on_c, 0, 53, 0
1, 25345, Note_on_c, 0, 67, 91
1, 25353, Note_on_c, 0, 62, 0
1, 25358, Note_on_c, 0, 43, 0
1, 25360, Note_on_c, 0, 59, 0
1, 25373, Note_on_c, 0, 67, 0
1, 25393, Note_on_c, 0, 53, 91
1, 25396, Note_on_c, 0, 59, 90
1, 25396, Note_on_c, 0, 62, 87
1, 25421, Note_on_c, 0, 53, 0
1, 25435, Note_on_c, 0, 62, 0
1, 25438, Note_on_c, 0, 59, 0
1, 25441, Note_on_c, 0, 69, 94
1, 25463, Note_on_c, 0, 69, 0
1, 25488, Control_c, 0, 64, 72
1, 25490, Note_on_c, 0, 59, 96
1, 25491, Note_on_c, 0, 91, 104
1, 25491, Note_on_c, 0, 65, 89
1, 25493, Note_on_c, 0, 79, 103
1, 25493, Note_on_c, 0, 62, 91
1, 25493, Control_c, 0, 64, 0
1, 25501, Control_c, 0, 64, 24
1, 25502, Control_c, 0, 64, 40
1, 25503, Control_c, 0, 64, 72
1, 25506, Control_c, 0, 64, 127
1, 25533, Note_on_c, 0, 62, 0
1, 25536, Note_on_c, 0, 59, 0
1, 25541, Note_on_c, 0, 71, 95
1, 25542, Note_on_c, 0, 65, 0
1, 25560, Note_on_c, 0, 71, 0
1, 25588, Note_on_c, 0, 60, 98
1, 25588, Note_on_c, 0, 65, 91
1, 25621, Note_on_c, 0, 60, 0
1, 25637, Note_on_c, 0, 72, 101
1, 25640, Note_on_c, 0, 65, 0
1, 25652, Note_on_c, 0, 72, 0
1, 25683, Note_on_c, 0, 91, 0
1, 25685, Note_on_c, 0, 61, 105
1, 25688, Note_on_c, 0, 65, 81
1, 25691, Note_on_c, 0, 79, 0
1, 25718, Note_on_c, 0, 65, 0
1, 25736, Note_on_c, 0, 73, 109
1, 25748, Note_on_c, 0, 61, 0
1, 25756, Note_on_c, 0, 73, 0
1, 25782, Note_on_c, 0, 66, 110
1, 25782, Note_on_c, 0, 62, 100
1, 25783, Note_on_c, 0, 42, 106
1, 25783, Control_c, 0, 64, 56
1, 25786, Control_c, 0, 64, 0
1, 25792, Control_c, 0, 64, 24
1, 25796, Control_c, 0, 64, 40
1, 25798, Control_c, 0, 64, 56
1, 25798, Control_c, 0, 64, 88
1, 25802, Control_c, 0, 64, 127
1, 25835, Note_on_c, 0, 66, 0
1, 25836, Note_on_c, 0, 74, 102
1, 25843, Note_on_c, 0, 62, 0
1, 25860, Note_on_c, 0, 74, 0
1, 25878, Control_c, 0, 64, 88
1, 25882, Control_c, 0, 64, 0
1, 25883, Note_on_c, 0, 42, 0
1, 25887, Note_on_c, 0, 62, 104
1, 25887, Note_on_c, 0, 67, 98
1, 25888, Note_on_c, 0, 41, 114
1, 25945, Control_c, 0, 64, 127
1, 25946, Note_on_c, 0, 74, 111
1, 25973, Note_on_c, 0, 74, 0
1, 25973, Note_on_c, 0, 62, 0
1, 25981, Note_on_c, 0, 67, 0
1, 25997, Note_on_c, 0, 68, 115
1, 25997, Note_on_c, 0, 62, 104
1, 26016, Note_on_c, 0, 41, 0
1, 26057, Note_on_c, 0, 74, 119
1, 26066, Note_on_c, 0, 68, 0
1, 26068, Note_on_c, 0, 62, 0
1, 26082, Note_on_c, 0, 74, 0
1, 26117, Control_c, 0, 64, 72
1, 26118, Control_c, 0, 64, 0
1, 26122, Note_on_c, 0, 69, 111
1, 26122, Note_on_c, 0, 68, 109
1, 26123, Note_on_c, 0, 62, 99
1, 26127, Note_on_c, 0, 80, 115
1, 26128, Note_on_c, 0, 92, 89
1, 26130, Control_c, 0, 64, 24
1, 26132, Control_c, 0, 64, 56
1, 26133, Control_c, 0, 64, 88
1, 26136, Control_c, 0, 64, 127
1, 26191, Note_on_c, 0, 74, 110
1, 26193, Note_on_c, 0, 68, 0
1, 26195, Note_on_c, 0, 69, 0
1, 26195, Note_on_c, 0, 62, 0
1, 26200, Note_on_c, 0, 80, 0
1, 26200, Note_on_c, 0, 92, 0
1, 26248, Note_on_c, 0, 68, 111
1, 26250, Note_on_c, 0, 62, 93
1, 26252, Note_on_c, 0, 70, 105
1, 26262, Note_on_c, 0, 74, 0
1, 26317, Note_on_c, 0, 74, 114
1, 26321, Note_on_c, 0, 68, 0
1, 26322, Note_on_c, 0, 62, 0
1, 26323, Note_on_c, 0, 70, 0
1, 26325, Note_on_c, 0, 80, 124
1, 26325, Note_on_c, 0, 92, 101
1, 26383, Note_on_c, 0, 68, 112
1, 26385, Note_on_c, 0, 71, 113
1, 26385, Note_on_c, 0, 62, 101
1, 26388, Note_on_c, 0, 74, 0
1, 26397, Note_on_c, 0, 80, 0
1, 26397, Note_on_c, 0, 92, 0
1, 26418, Note_on_c, 0, 92, 112
1, 26425, Note_on_c, 0, 80, 115
1, 26438, Note_on_c, 0, 74, 113
1, 26491, Note_on_c, 0, 92, 0
1, 26497, Note_on_c, 0, 80, 0
1, 26497, Note_on_c, 0, 30, 118
1, 26503, Note_on_c, 0, 68, 0
1, 26503, Note_on_c, 0, 62, 0
1, 26503, Note_on_c, 0, 71, 0
1, 26511, Note_on_c, 0, 74, 0
1, 26521, Note_on_c, 0, 30, 0
1, 26521, Note_on_c, 0, 42, 109
1, 26526, Note_on_c, 0, 42, 0
1, 26563, Note_on_c, 0, 49, 106
1, 26568, Note_on_c, 0, 57, 87
1, 26570, Note_on_c, 0, 80, 118
1, 26571, Note_on_c, 0, 92, 118
1, 26586, Note_on_c, 0, 61, 114
1, 26588, Note_on_c, 0, 57, 0
1, 26588, Note_on_c, 0, 49, 0
1, 26592, Note_on_c, 0, 61, 0
1, 26617, Note_on_c, 0, 69, 119
1, 26688, Note_on_c, 0, 69, 0
1, 26705, Note_on_c, 0, 57, 95
1, 26706, Note_on_c, 0, 61, 94
1, 26773, Note_on_c, 0, 57, 0
1, 26787, Note_on_c, 0, 71, 117
1, 26797, Note_on_c, 0, 61, 0
1, 26857, Note_on_c, 0, 71, 0
1, 26867, Note_on_c, 0, 61, 90
1, 26867, Note_on_c, 0, 57, 82
1, 26902, Note_on_c, 0, 57, 0
1, 26925, Note_on_c, 0, 72, 105
1, 26933, Note_on_c, 0, 61, 0
1, 26958, Note_on_c, 0, 72, 0
1, 26981, Note_on_c, 0, 57, 91
1, 26981, Note_on_c, 0, 61, 71
1, 27006, Note_on_c, 0, 57, 0
1, 27030, Note_on_c, 0, 61, 0
1, 27033, Note_on_c, 0, 73, 121
1, 27050, Note_on_c, 0, 80, 0
1, 27050, Note_on_c, 0, 92, 0
1, 27052, Note_on_c, 0, 73, 0
1, 27087, Note_on_c, 0, 61, 84
1, 27088, Note_on_c, 0, 57, 78
1, 27153, Note_on_c, 0, 57, 0
1, 27155, Note_on_c, 0, 61, 0
1, 27156, Note_on_c, 0, 66, 116
1, 27160, Note_on_c, 0, 78, 105
1, 27161, Note_on_c, 0, 90, 83
1, 27253, Note_on_c, 0, 66, 0
1, 27260, Note_on_c, 0, 61, 85
1, 27263, Note_on_c, 0, 57, 88
1, 27312, Note_on_c, 0, 57, 0
1, 27320, Note_on_c, 0, 67, 109
1, 27322, Note_on_c, 0, 61, 0
1, 27378, Note_on_c, 0, 57, 84
1, 27380, Note_on_c, 0, 61, 84
1, 27382, Note_on_c, 0, 67, 0
1, 27426, Note_on_c, 0, 61, 0
1, 27430, Note_on_c, 0, 68, 107
1, 27440, Note_on_c, 0, 57, 0
1, 27471, Note_on_c, 0, 68, 0
1, 27482, Note_on_c, 0, 61, 76
1, 27482, Note_on_c, 0, 57, 81
1, 27516, Note_on_c, 0, 57, 0
1, 27528, Note_on_c, 0, 69, 98
1, 27548, Note_on_c, 0, 61, 0
1, 27572, Note_on_c, 0, 69, 0
1, 27583, Note_on_c, 0, 57, 89
1, 27631, Note_on_c, 0, 61, 102
1, 27658, Note_on_c, 0, 57, 0
1, 27686, Note_on_c, 0, 57, 76
1, 27695, Note_on_c, 0, 61, 0
1, 27710, Note_on_c, 0, 57, 0
1, 27740, Note_on_c, 0, 63, 107
1, 27776, Note_on_c, 0, 63, 0
1, 27791, Note_on_c, 0, 54, 91
1, 27797, Note_on_c, 0, 90, 0
1, 27798, Note_on_c, 0, 78, 0
1, 27852, Note_on_c, 0, 64, 109
1, 27857, Note_on_c, 0, 88, 92
1, 27860, Note_on_c, 0, 76, 89
1, 27861, Control_c, 0, 64, 88
1, 27865, Control_c, 0, 64, 40
1, 27867, Control_c, 0, 64, 0
1, 27881, Control_c, 0, 64, 24
1, 27883, Control_c, 0, 64, 56
1, 27887, Control_c, 0, 64, 72
1, 27888, Control_c, 0, 64, 104
1, 27892, Control_c, 0, 64, 127
1, 27931, Note_on_c, 0, 61, 84
1, 27935, Note_on_c, 0, 64, 0
1, 27968, Note_on_c, 0, 54, 0
1, 27980, Note_on_c, 0, 61, 0
1, 27985, Note_on_c, 0, 65, 90
1, 28032, Note_on_c, 0, 65, 0
1, 28041, Note_on_c, 0, 57, 83
1, 28105, Note_on_c, 0, 66, 101
1, 28107, Control_c, 0, 64, 88
1, 28111, Control_c, 0, 64, 56
1, 28121, Control_c, 0, 64, 88
1, 28123, Control_c, 0, 64, 104
1, 28126, Control_c, 0, 64, 127
1, 28165, Note_on_c, 0, 61, 71
1, 28166, Note_on_c, 0, 66, 0
1, 28206, Note_on_c, 0, 57, 0
1, 28223, Note_on_c, 0, 67, 84
1, 28237, Note_on_c, 0, 61, 0
1, 28250, Note_on_c, 0, 88, 0
1, 28256, Note_on_c, 0, 76, 0
1, 28272, Note_on_c, 0, 67, 0
1, 28283, Note_on_c, 0, 57, 75
1, 28355, Note_on_c, 0, 68, 86
1, 28358, Note_on_c, 0, 85, 74
1, 28358, Note_on_c, 0, 73, 76
1, 28361, Control_c, 0, 64, 40
1, 28363, Control_c, 0, 64, 0
1, 28378, Control_c, 0, 64, 24
1, 28382, Control_c, 0, 64, 56
1, 28386, Control_c, 0, 64, 72
1, 28387, Control_c, 0, 64, 104
1, 28391, Control_c, 0, 64, 127
1, 28441, Note_on_c, 0, 61, 66
1, 28445, Note_on_c, 0, 68, 0
1, 28445, Note_on_c, 0, 57, 0
1, 28516, Note_on_c, 0, 61, 0
1, 28520, Note_on_c, 0, 69, 76
1, 28566, Note_on_c, 0, 69, 0
1, 28612, Note_on_c, 0, 54, 76
1, 28630, Note_on_c, 0, 54, 0
1, 28632, Note_on_c, 0, 73, 0
1, 28641, Note_on_c, 0, 85, 0
1, 28725, Note_on_c, 0, 38, 71
1, 28745, Control_c, 0, 64, 88
1, 28746, Control_c, 0, 64, 56
1, 28750, Note_on_c, 0, 45, 66
1, 28756, Control_c, 0, 64, 72
1, 28758, Control_c, 0, 64, 88
1, 28762, Control_c, 0, 64, 127
1, 28768, Note_on_c, 0, 38, 0
1, 28776, Note_on_c, 0, 54, 74
1, 28778, Note_on_c, 0, 45, 0
1, 28791, Note_on_c, 0, 54, 0
1, 28853, Note_on_c, 0, 62, 77
1, 28855, Note_on_c, 0, 86, 82
1, 28858, Note_on_c, 0, 74, 52
1, 28858, Note_on_c, 0, 72, 52
1, 28861, Note_on_c, 0, 78, 68
1, 28963, Note_on_c, 0, 62, 0
1, 28985, Note_on_c, 0, 57, 46
1, 29057, Note_on_c, 0, 64, 82
1, 29126, Note_on_c, 0, 64, 0
1, 29128, Note_on_c, 0, 60, 70
1, 29185, Note_on_c, 0, 57, 0
1, 29187, Note_on_c, 0, 65, 70
1, 29245, Note_on_c, 0, 57, 83
1, 29247, Note_on_c, 0, 60, 0
1, 29250, Note_on_c, 0, 65, 0
1, 29262, Note_on_c, 0, 57, 0
1, 29302, Note_on_c, 0, 66, 84
1, 29345, Note_on_c, 0, 66, 0
1, 29353, Note_on_c, 0, 54, 85
1, 29372, Note_on_c, 0, 54, 0
1, 29408, Note_on_c, 0, 57, 87
1, 29462, Note_on_c, 0, 57, 0
1, 29466, Note_on_c, 0, 54, 83
1, 29520, Note_on_c, 0, 59, 87
1, 29562, Note_on_c, 0, 86, 0
1, 29565, Note_on_c, 0, 54, 0
1, 29567, Note_on_c, 0, 74, 0
1, 29572, Note_on_c, 0, 78, 0
1, 29573, Note_on_c, 0, 72, 0
1, 29580, Note_on_c, 0, 59, 0
1, 29581, Note_on_c, 0, 50, 76
1, 29642, Note_on_c, 0, 60, 81
1, 29653, Note_on_c, 0, 81, 79
1, 29655, Note_on_c, 0, 69, 70
1, 29656, Control_c, 0, 64, 72
1, 29658, Control_c, 0, 64, 0
1, 29687, Control_c, 0, 64, 24
1, 29688, Control_c, 0, 64, 56
1, 29692, Control_c, 0, 64, 88
1, 29695, Control_c, 0, 64, 127
1, 29720, Note_on_c, 0, 54, 56
1, 29721, Note_on_c, 0, 60, 0
1, 29787, Note_on_c, 0, 61, 84
1, 29847, Note_on_c, 0, 69, 0
1, 29850, Note_on_c, 0, 81, 0
1, 29851, Note_on_c, 0, 50, 0
1, 29860, Note_on_c, 0, 57, 65
1, 29863, Note_on_c, 0, 61, 0
1, 29867, Note_on_c, 0, 54, 0
1, 29868, Note_on_c, 0, 57, 0
1, 29938, Note_on_c, 0, 46, 72
1, 29983, Control_c, 0, 64, 104
1, 29986, Note_on_c, 0, 82, 74
1, 29987, Control_c, 0, 64, 24
1, 29991, Note_on_c, 0, 68, 51
1, 29992, Note_on_c, 0, 70, 47
1, 29992, Control_c, 0, 64, 0
1, 29997, Note_on_c, 0, 74, 39
1, 29998, Note_on_c, 0, 62, 71
1, 30027, Control_c, 0, 64, 40
1, 30030, Control_c, 0, 64, 88
1, 30032, Control_c, 0, 64, 127
1, 30092, Note_on_c, 0, 62, 0
1, 30098, Note_on_c, 0, 56, 71
1, 30100, Note_on_c, 0, 46, 0
1, 30116, Note_on_c, 0, 56, 0
1, 30167, Note_on_c, 0, 63, 78
1, 30238, Note_on_c, 0, 53, 74
1, 30241, Note_on_c, 0, 63, 0
1, 30246, Note_on_c, 0, 53, 0
1, 30306, Note_on_c, 0, 64, 79
1, 30371, Note_on_c, 0, 62, 80
1, 30372, Note_on_c, 0, 64, 0
1, 30426, Note_on_c, 0, 65, 89
1, 30462, Note_on_c, 0, 62, 0
1, 30483, Note_on_c, 0, 57, 87
1, 30486, Note_on_c, 0, 65, 0
1, 30516, Note_on_c, 0, 57, 0
1, 30546, Note_on_c, 0, 57, 93
1, 30547, Note_on_c, 0, 65, 103
1, 30601, Note_on_c, 0, 65, 0
1, 30612, Note_on_c, 0, 62, 82
1, 30621, Note_on_c, 0, 68, 0
1, 30622, Note_on_c, 0, 74, 0
1, 30626, Note_on_c, 0, 70, 0
1, 30640, Note_on_c, 0, 82, 0
1, 30673, Note_on_c, 0, 62, 0
1, 30682, Note_on_c, 0, 66, 102
1, 30683, Note_on_c, 0, 83, 98
1, 30683, Note_on_c, 0, 71, 100
1, 30687, Note_on_c, 0, 74, 92
1, 30687, Note_on_c, 0, 59, 78
1, 30687, Control_c, 0, 64, 40
1, 30691, Control_c, 0, 64, 0
1, 30696, Note_on_c, 0, 59, 0
1, 30716, Control_c, 0, 64, 40
1, 30720, Control_c, 0, 64, 72
1, 30722, Control_c, 0, 64, 104
1, 30725, Control_c, 0, 64, 127
1, 30755, Note_on_c, 0, 57, 0
1, 30758, Note_on_c, 0, 62, 79
1, 30773, Note_on_c, 0, 66, 0
1, 30781, Note_on_c, 0, 62, 0
1, 30823, Note_on_c, 0, 56, 100
1, 30825, Note_on_c, 0, 67, 95
1, 30835, Control_c, 0, 64, 104
1, 30838, Control_c, 0, 64, 72
1, 30841, Control_c, 0, 64, 56
1, 30848, Control_c, 0, 64, 88
1, 30851, Control_c, 0, 64, 104
1, 30853, Control_c, 0, 64, 127
1, 30905, Note_on_c, 0, 61, 84
1, 30906, Note_on_c, 0, 59, 76
1, 30912, Note_on_c, 0, 67, 0
1, 30918, Note_on_c, 0, 74, 0
1, 30922, Note_on_c, 0, 71, 0
1, 30922, Note_on_c, 0, 83, 0
1, 30982, Note_on_c, 0, 59, 0
1, 30987, Note_on_c, 0, 68, 101
1, 30990, Control_c, 0, 64, 72
1, 30992, Note_on_c, 0, 61, 0
1, 30992, Note_on_c, 0, 83, 95
1, 30993, Note_on_c, 0, 71, 97
1, 30995, Note_on_c, 0, 66, 45
1, 30995, Control_c, 0, 64, 0
1, 30997, Note_on_c, 0, 73, 92
1, 31002, Note_on_c, 0, 66, 0
1, 31013, Control_c, 0, 64, 40
1, 31017, Control_c, 0, 64, 72
1, 31018, Control_c, 0, 64, 104
1, 31022, Control_c, 0, 64, 127
1, 31078, Note_on_c, 0, 59, 68
1, 31080, Note_on_c, 0, 61, 56
1, 31082, Note_on_c, 0, 68, 0
1, 31086, Note_on_c, 0, 56, 0
1, 31087, Note_on_c, 0, 59, 0
1, 31088, Note_on_c, 0, 61, 0
1, 31158, Note_on_c, 0, 45, 91
1, 31187, Note_on_c, 0, 54, 88
1, 31201, Note_on_c, 0, 45, 0
1, 31212, Note_on_c, 0, 61, 99
1, 31217, Note_on_c, 0, 73, 0
1, 31220, Note_on_c, 0, 54, 0
1, 31220, Note_on_c, 0, 71, 0
1, 31225, Note_on_c, 0, 61, 0
1, 31226, Note_on_c, 0, 83, 0
1, 31261, Note_on_c, 0, 83, 91
1, 31262, Note_on_c, 0, 71, 109
1, 31263, Note_on_c, 0, 73, 94
1, 31267, Note_on_c, 0, 68, 105
1, 31387, Note_on_c, 0, 54, 88
1, 31390, Note_on_c, 0, 61, 84
1, 31393, Note_on_c, 0, 68, 0
1, 31466, Note_on_c, 0, 61, 0
1, 31467, Note_on_c, 0, 66, 106
1, 31480, Note_on_c, 0, 54, 0
1, 31533, Note_on_c, 0, 66, 0
1, 31533, Note_on_c, 0, 54, 91
1, 31535, Note_on_c, 0, 61, 84
1, 31587, Note_on_c, 0, 65, 104
1, 31596, Note_on_c, 0, 61, 0
1, 31596, Control_c, 0, 64, 88
1, 31606, Control_c, 0, 64, 127
1, 31626, Note_on_c, 0, 54, 0
1, 31646, Note_on_c, 0, 61, 88
1, 31653, Note_on_c, 0, 54, 50
1, 31656, Note_on_c, 0, 65, 0
1, 31693, Note_on_c, 0, 54, 0
1, 31705, Note_on_c, 0, 66, 101
1, 31736, Note_on_c, 0, 83, 0
1, 31750, Note_on_c, 0, 61, 0
1, 31750, Note_on_c, 0, 66, 0
1, 31756, Note_on_c, 0, 71, 0
1, 31760, Note_on_c, 0, 73, 0
1, 31765, Note_on_c, 0, 54, 94
1, 31831, Note_on_c, 0, 60, 100
1, 31832, Note_on_c, 0, 81, 91
1, 31832, Note_on_c, 0, 69, 91
1, 31835, Note_on_c, 0, 78, 80
1, 31835, Control_c, 0, 64, 24
1, 31838, Control_c, 0, 64, 0
1, 31860, Control_c, 0, 64, 40
1, 31863, Control_c, 0, 64, 88
1, 31865, Note_on_c, 0, 54, 0
1, 31867, Control_c, 0, 64, 127
1, 31910, Note_on_c, 0, 54, 95
1, 31923, Note_on_c, 0, 60, 0
1, 31970, Note_on_c, 0, 61, 99
1, 31987, Note_on_c, 0, 54, 0
1, 32023, Note_on_c, 0, 54, 92
1, 32028, Note_on_c, 0, 61, 0
1, 32041, Note_on_c, 0, 54, 0
1, 32090, Note_on_c, 0, 57, 90
1, 32101, Control_c, 0, 64, 104
1, 32105, Control_c, 0, 64, 56
1, 32106, Control_c, 0, 64, 24
1, 32115, Control_c, 0, 64, 56
1, 32117, Control_c, 0, 64, 72
1, 32121, Control_c, 0, 64, 104
1, 32122, Control_c, 0, 64, 127
1, 32155, Note_on_c, 0, 54, 84
1, 32158, Note_on_c, 0, 57, 0
1, 32213, Note_on_c, 0, 59, 91
1, 32282, Note_on_c, 0, 49, 63
1, 32287, Note_on_c, 0, 54, 0
1, 32288, Note_on_c, 0, 59, 0
1, 32298, Note_on_c, 0, 49, 0
1, 32366, Note_on_c, 0, 60, 100
1, 32367, Note_on_c, 0, 45, 90
1, 32370, Control_c, 0, 64, 88
1, 32373, Control_c, 0, 64, 24
1, 32376, Control_c, 0, 64, 0
1, 32408, Control_c, 0, 64, 24
1, 32412, Control_c, 0, 64, 72
1, 32415, Control_c, 0, 64, 104
1, 32417, Control_c, 0, 64, 127
1, 32468, Note_on_c, 0, 60, 0
1, 32468, Note_on_c, 0, 54, 83
1, 32477, Note_on_c, 0, 45, 0
1, 32487, Note_on_c, 0, 54, 0
1, 32541, Note_on_c, 0, 61, 92
1, 32610, Note_on_c, 0, 49, 66
1, 32622, Note_on_c, 0, 81, 0
1, 32625, Note_on_c, 0, 61, 0
1, 32631, Note_on_c, 0, 78, 0
1, 32631, Note_on_c, 0, 49, 0
1, 32632, Note_on_c, 0, 69, 0
1, 32696, Note_on_c, 0, 47, 70
1, 32723, Note_on_c, 0, 61, 92
1, 32730, Control_c, 0, 64, 88
1, 32732, Control_c, 0, 64, 24
1, 32735, Note_on_c, 0, 79, 88
1, 32736, Control_c, 0, 64, 0
1, 32737, Note_on_c, 0, 67, 78
1, 32740, Note_on_c, 0, 71, 82
1, 32800, Control_c, 0, 64, 24
1, 32803, Control_c, 0, 64, 72
1, 32806, Control_c, 0, 64, 104
1, 32808, Control_c, 0, 64, 127
1, 32868, Note_on_c, 0, 50, 69
1, 32877, Note_on_c, 0, 61, 0
1, 32908, Note_on_c, 0, 47, 0
1, 32937, Note_on_c, 0, 50, 0
1, 32945, Note_on_c, 0, 62, 65
1, 32986, Note_on_c, 0, 62, 0
1, 33007, Note_on_c, 0, 55, 76
1, 33023, Note_on_c, 0, 55, 0
1, 33070, Note_on_c, 0, 64, 91
1, 33147, Note_on_c, 0, 59, 66
1, 33165, Note_on_c, 0, 64, 0
1, 33218, Note_on_c, 0, 61, 79
1, 33227, Note_on_c, 0, 59, 0
1, 33306, Note_on_c, 0, 55, 64
1, 33311, Note_on_c, 0, 67, 0
1, 33312, Note_on_c, 0, 61, 0
1, 33313, Note_on_c, 0, 79, 0
1, 33315, Note_on_c, 0, 55, 0
1, 33317, Note_on_c, 0, 71, 0
1, 33430, Note_on_c, 0, 62, 55
1, 33432, Note_on_c, 0, 48, 63
1, 33436, Note_on_c, 0, 66, 59
1, 33436, Note_on_c, 0, 78, 67
1, 33441, Note_on_c, 0, 69, 49
1, 33450, Control_c, 0, 64, 72
1, 33452, Control_c, 0, 64, 0
1, 33488, Control_c, 0, 64, 24
1, 33491, Control_c, 0, 64, 56
1, 33493, Control_c, 0, 64, 104
1, 33497, Control_c, 0, 64, 127
1, 33550, Note_on_c, 0, 62, 0
1, 33551, Note_on_c, 0, 54, 40
1, 33673, Note_on_c, 0, 63, 78
1, 33811, Note_on_c, 0, 63, 0
1, 33812, Note_on_c, 0, 48, 0
1, 33816, Note_on_c, 0, 57, 67
1, 33825, Note_on_c, 0, 54, 0
1, 33836, Note_on_c, 0, 66, 0
1, 33843, Note_on_c, 0, 78, 0
1, 33850, Note_on_c, 0, 69, 0
1, 33861, Control_c, 0, 67, 127
1, 33902, Note_on_c, 0, 57, 0
1, 33920, Note_on_c, 0, 49, 50
1, 34052, Note_on_c, 0, 78, 58
1, 34053, Note_on_c, 0, 66, 42
1, 34056, Note_on_c, 0, 69, 44
1, 34057, Note_on_c, 0, 57, 58
1, 34057, Note_on_c, 0, 60, 40
1, 34080, Control_c, 0, 64, 104
1, 34083, Control_c, 0, 64, 88
1, 34086, Control_c, 0, 64, 72
1, 34103, Control_c, 0, 64, 40
1, 34106, Control_c, 0, 64, 0
1, 34132, Control_c, 0, 64, 24
1, 34135, Control_c, 0, 64, 40
1, 34138, Control_c, 0, 64, 56
1, 34140, Control_c, 0, 64, 72
1, 34142, Control_c, 0, 64, 88
1, 34146, Control_c, 0, 64, 104
1, 34151, Control_c, 0, 64, 127
1, 34213, Note_on_c, 0, 66, 63
1, 34272, Control_c, 0, 64, 24
1, 34275, Control_c, 0, 64, 56
1, 34278, Control_c, 0, 64, 88
1, 34281, Control_c, 0, 64, 127
1, 34326, Note_on_c, 0, 61, 61
1, 34346, Note_on_c, 0, 66, 0
1, 34370, Note_on_c, 0, 57, 0
1, 34371, Note_on_c, 0, 60, 0
1, 34372, Note_on_c, 0, 49, 0
1, 34380, Note_on_c, 0, 78, 0
1, 34380, Note_on_c, 0, 66, 0
1, 34381, Note_on_c, 0, 69, 0
1, 34418, Note_on_c, 0, 61, 0
1, 34421, Note_on_c, 0, 66, 53
1, 34530, Note_on_c, 0, 60, 59
1, 34532, Note_on_c, 0, 66, 0
1, 34532, Note_on_c, 0, 57, 45
1, 34542, Control_c, 0, 64, 104
1, 34543, Control_c, 0, 64, 56
1, 34547, Control_c, 0, 64, 0
1, 34572, Control_c, 0, 64, 24
1, 34573, Control_c, 0, 64, 56
1, 34576, Control_c, 0, 64, 88
1, 34578, Control_c, 0, 64, 127
1, 34658, Note_on_c, 0, 66, 66
1, 34740, Note_on_c, 0, 61, 77
1, 34747, Note_on_c, 0, 60, 0
1, 34748, Note_on_c, 0, 66, 0
1, 34773, Note_on_c, 0, 57, 0
1, 34803, Note_on_c, 0, 61, 0
1, 34807, Note_on_c, 0, 66, 78
1, 34865, Note_on_c, 0, 66, 0
1, 34870, Note_on_c, 0, 61, 87
1, 34871, Note_on_c, 0, 58, 76
1, 34881, Control_c, 0, 64, 88
1, 34883, Control_c, 0, 64, 40
1, 34886, Control_c, 0, 64, 0
1, 34898, Control_c, 0, 64, 24
1, 34902, Control_c, 0, 64, 40
1, 34903, Control_c, 0, 64, 56
1, 34906, Control_c, 0, 64, 88
1, 34908, Control_c, 0, 64, 127
1, 34945, Note_on_c, 0, 66, 88
1, 35003, Note_on_c, 0, 62, 88
1, 35010, Note_on_c, 0, 66, 0
1, 35023, Note_on_c, 0, 61, 0
1, 35037, Note_on_c, 0, 58, 0
1, 35068, Note_on_c, 0, 62, 0
1, 35072, Note_on_c, 0, 66, 86
1, 35131, Note_on_c, 0, 66, 0
1, 35146, Note_on_c, 0, 58, 66
1, 35147, Note_on_c, 0, 61, 73
1, 35148, Note_on_c, 0, 64, 79
1, 35166, Control_c, 0, 64, 72
1, 35168, Control_c, 0, 64, 0
1, 35175, Note_on_c, 0, 76, 90
1, 35205, Control_c, 0, 64, 40
1, 35207, Control_c, 0, 64, 88
1, 35210, Control_c, 0, 64, 127
1, 35260, Note_on_c, 0, 66, 80
1, 35261, Note_on_c, 0, 64, 0
1, 35266, Note_on_c, 0, 61, 0
1, 35330, Note_on_c, 0, 66, 0
1, 35347, Note_on_c, 0, 65, 71
1, 35350, Note_on_c, 0, 61, 64
1, 35358, Control_c, 0, 64, 104
1, 35361, Control_c, 0, 64, 40
1, 35365, Control_c, 0, 64, 0
1, 35380, Control_c, 0, 64, 24
1, 35382, Control_c, 0, 64, 56
1, 35385, Control_c, 0, 64, 88
1, 35387, Control_c, 0, 64, 127
1, 35457, Note_on_c, 0, 67, 60
1, 35473, Note_on_c, 0, 65, 0
1, 35480, Control_c, 0, 67, 24
1, 35480, Control_c, 0, 67, 40
1, 35482, Note_on_c, 0, 61, 0
1, 35485, Control_c, 0, 67, 56
1, 35486, Control_c, 0, 67, 72
1, 35488, Note_on_c, 0, 58, 0
1, 35490, Control_c, 0, 67, 88
1, 35492, Control_c, 0, 67, 104
1, 35496, Control_c, 0, 67, 127
1, 35516, Note_on_c, 0, 67, 0
1, 35603, Note_on_c, 0, 65, 43
1, 35605, Note_on_c, 0, 62, 43
1, 35607, Note_on_c, 0, 59, 51
1, 35631, Control_c, 0, 64, 88
1, 35632, Note_on_c, 0, 74, 75
1, 35633, Note_on_c, 0, 76, 0
1, 35635, Control_c, 0, 64, 0
1, 35668, Control_c, 0, 64, 40
1, 35671, Control_c, 0, 64, 88
1, 35673, Control_c, 0, 64, 127
1, 35762, Note_on_c, 0, 62, 0
1, 35767, Note_on_c, 0, 67, 59
1, 35771, Note_on_c, 0, 65, 0
1, 35802, Note_on_c, 0, 67, 0
1, 35868, Note_on_c, 0, 62, 56
1, 35870, Note_on_c, 0, 66, 56
1, 35927, Note_on_c, 0, 66, 0
1, 35962, Note_on_c, 0, 67, 62
1, 35990, Note_on_c, 0, 59, 0
1, 35991, Note_on_c, 0, 62, 0
1, 35995, Control_c, 0, 67, 0
1, 35998, Note_on_c, 0, 67, 0
1, 36041, Note_on_c, 0, 59, 61
1, 36042, Note_on_c, 0, 62, 53
1, 36043, Note_on_c, 0, 65, 55
1, 36117, Note_on_c, 0, 65, 0
1, 36121, Note_on_c, 0, 62, 0
1, 36125, Note_on_c, 0, 68, 62
1, 36175, Note_on_c, 0, 68, 0
1, 36192, Note_on_c, 0, 66, 69
1, 36197, Note_on_c, 0, 62, 57
1, 36256, Note_on_c, 0, 66, 0
1, 36258, Note_on_c, 0, 68, 69
1, 36266, Note_on_c, 0, 59, 0
1, 36276, Note_on_c, 0, 62, 0
1, 36297, Note_on_c, 0, 68, 0
1, 36318, Note_on_c, 0, 60, 72
1, 36321, Note_on_c, 0, 65, 70
1, 36322, Note_on_c, 0, 62, 62
1, 36325, Control_c, 0, 64, 72
1, 36327, Control_c, 0, 64, 24
1, 36331, Control_c, 0, 64, 0
1, 36341, Control_c, 0, 64, 24
1, 36343, Control_c, 0, 64, 56
1, 36346, Control_c, 0, 64, 72
1, 36350, Control_c, 0, 64, 104
1, 36352, Control_c, 0, 64, 127
1, 36381, Note_on_c, 0, 65, 0
1, 36382, Note_on_c, 0, 68, 77
1, 36390, Note_on_c, 0, 62, 0
1, 36422, Note_on_c, 0, 68, 0
1, 36442, Note_on_c, 0, 66, 80
1, 36446, Note_on_c, 0, 62, 71
1, 36507, Note_on_c, 0, 69, 79
1, 36513, Note_on_c, 0, 66, 0
1, 36515, Note_on_c, 0, 74, 0
1, 36520, Note_on_c, 0, 62, 0
1, 36536, Note_on_c, 0, 69, 0
1, 36582, Note_on_c, 0, 65, 75
1, 36582, Note_on_c, 0, 62, 67
1, 36588, Control_c, 0, 64, 104
1, 36590, Note_on_c, 0, 72, 78
1, 36592, Control_c, 0, 64, 0
1, 36618, Control_c, 0, 64, 24
1, 36621, Control_c, 0, 64, 56
1, 36623, Control_c, 0, 64, 127
1, 36656, Note_on_c, 0, 65, 0
1, 36662, Note_on_c, 0, 68, 74
1, 36697, Note_on_c, 0, 68, 0
1, 36728, Note_on_c, 0, 62, 0
1, 36738, Note_on_c, 0, 66, 80
1, 36775, Note_on_c, 0, 60, 0
1, 36813, Note_on_c, 0, 69, 64
1, 36816, Note_on_c, 0, 72, 0
1, 36823, Note_on_c, 0, 66, 0
1, 36840, Note_on_c, 0, 69, 0
1, 36925, Note_on_c, 0, 66, 74
1, 36926, Note_on_c, 0, 61, 70
1, 36928, Note_on_c, 0, 73, 78
1, 36930, Note_on_c, 0, 69, 73
1, 36932, Control_c, 0, 64, 88
1, 36935, Control_c, 0, 64, 0
1, 36975, Control_c, 0, 64, 40
1, 36976, Control_c, 0, 64, 88
1, 36978, Control_c, 0, 64, 127
1, 37051, Note_on_c, 0, 71, 66
1, 37057, Note_on_c, 0, 69, 0
1, 37122, Note_on_c, 0, 66, 0
1, 37136, Note_on_c, 0, 68, 76
1, 37137, Note_on_c, 0, 64, 73
1, 37140, Control_c, 0, 64, 72
1, 37142, Control_c, 0, 64, 0
1, 37165, Control_c, 0, 64, 24
1, 37168, Control_c, 0, 64, 56
1, 37171, Control_c, 0, 64, 104
1, 37173, Control_c, 0, 64, 127
1, 37191, Note_on_c, 0, 71, 0
1, 37201, Note_on_c, 0, 64, 0
1, 37210, Note_on_c, 0, 68, 0
1, 37211, Note_on_c, 0, 69, 67
1, 37213, Note_on_c, 0, 61, 0
1, 37235, Note_on_c, 0, 69, 0
1, 37271, Note_on_c, 0, 62, 66
1, 37273, Control_c, 0, 64, 72
1, 37275, Note_on_c, 0, 66, 70
1, 37277, Control_c, 0, 64, 0
1, 37296, Control_c, 0, 64, 24
1, 37298, Control_c, 0, 64, 72
1, 37302, Control_c, 0, 64, 127
1, 37336, Note_on_c, 0, 66, 0
1, 37338, Note_on_c, 0, 68, 62
1, 37395, Note_on_c, 0, 62, 0
1, 37408, Note_on_c, 0, 57, 62
1, 37410, Note_on_c, 0, 64, 66
1, 37412, Control_c, 0, 64, 104
1, 37415, Control_c, 0, 64, 40
1, 37417, Note_on_c, 0, 68, 0
1, 37417, Control_c, 0, 64, 0
1, 37432, Control_c, 0, 64, 24
1, 37433, Control_c, 0, 64, 40
1, 37437, Control_c, 0, 64, 88
1, 37440, Control_c, 0, 64, 127
1, 37476, Note_on_c, 0, 66, 61
1, 37478, Note_on_c, 0, 57, 0
1, 37480, Note_on_c, 0, 64, 0
1, 37481, Note_on_c, 0, 73, 0
1, 37495, Note_on_c, 0, 66, 0
1, 37530, Control_c, 0, 67, 127
1, 37563, Note_on_c, 0, 59, 71
1, 37577, Control_c, 0, 64, 104
1, 37581, Control_c, 0, 64, 24
1, 37582, Note_on_c, 0, 69, 76
1, 37585, Control_c, 0, 64, 0
1, 37586, Note_on_c, 0, 63, 76
1, 37612, Control_c, 0, 64, 24
1, 37615, Control_c, 0, 64, 72
1, 37617, Control_c, 0, 64, 127
1, 37645, Note_on_c, 0, 63, 0
1, 37663, Note_on_c, 0, 64, 62
1, 37710, Note_on_c, 0, 64, 0
1, 37736, Control_c, 0, 64, 72
1, 37738, Note_on_c, 0, 54, 54
1, 37741, Note_on_c, 0, 62, 59
1, 37741, Control_c, 0, 64, 0
1, 37766, Control_c, 0, 64, 40
1, 37768, Control_c, 0, 64, 72
1, 37771, Control_c, 0, 64, 127
1, 37786, Note_on_c, 0, 59, 0
1, 37805, Note_on_c, 0, 62, 0
1, 37810, Note_on_c, 0, 54, 0
1, 37816, Note_on_c, 0, 64, 61
1, 37881, Note_on_c, 0, 64, 0
1, 37902, Note_on_c, 0, 61, 54
1, 37903, Note_on_c, 0, 53, 48
1, 37910, Control_c, 0, 64, 88
1, 37911, Control_c, 0, 64, 0
1, 37943, Control_c, 0, 64, 24
1, 37946, Control_c, 0, 64, 56
1, 37950, Control_c, 0, 64, 104
1, 37952, Control_c, 0, 64, 127
1, 37991, Note_on_c, 0, 53, 0
1, 37993, Note_on_c, 0, 61, 0
1, 37997, Note_on_c, 0, 62, 54
1, 38108, Note_on_c, 0, 62, 0
1, 38111, Note_on_c, 0, 49, 40
1, 38111, Note_on_c, 0, 59, 54
1, 38116, Control_c, 0, 64, 72
1, 38118, Control_c, 0, 64, 0
1, 38150, Control_c, 0, 64, 24
1, 38152, Control_c, 0, 64, 56
1, 38155, Control_c, 0, 64, 104
1, 38160, Control_c, 0, 64, 127
1, 38181, Note_on_c, 0, 59, 0
1, 38195, Note_on_c, 0, 49, 0
1, 38217, Note_on_c, 0, 69, 0
1, 38245, Note_on_c, 0, 61, 51
1, 38245, Note_on_c, 0, 66, 56
1, 38265, Note_on_c, 0, 61, 0
1, 38270, Note_on_c, 0, 66, 0
1, 38318, Control_c, 0, 67, 127
1, 38375, Note_on_c, 0, 42, 42
1, 38403, Note_on_c, 0, 49, 38
1, 38418, Note_on_c, 0, 54, 41
1, 38420, Note_on_c, 0, 57, 48
1, 38431, Control_c, 0, 64, 88
1, 38435, Control_c, 0, 64, 24
1, 38437, Control_c, 0, 64, 0
1, 38452, Note_on_c, 0, 66, 60
1, 38461, Control_c, 0, 64, 24
1, 38463, Control_c, 0, 64, 56
1, 38467, Control_c, 0, 64, 88
1, 38470, Control_c, 0, 64, 127
1, 38473, Note_on_c, 0, 66, 0
1, 38558, Note_on_c, 0, 54, 0
1, 38560, Note_on_c, 0, 57, 0
1, 38575, Note_on_c, 0, 66, 50
1, 38658, Note_on_c, 0, 59, 55
1, 38662, Note_on_c, 0, 66, 0
1, 38663, Note_on_c, 0, 56, 23
1, 38727, Note_on_c, 0, 66, 58
1, 38728, Note_on_c, 0, 59, 0
1, 38732, Note_on_c, 0, 56, 0
1, 38785, Note_on_c, 0, 60, 66
1, 38790, Note_on_c, 0, 57, 41
1, 38792, Control_c, 0, 64, 104
1, 38795, Note_on_c, 0, 66, 0
1, 38795, Control_c, 0, 64, 72
1, 38797, Control_c, 0, 64, 40
1, 38807, Control_c, 0, 64, 72
1, 38812, Control_c, 0, 64, 88
1, 38815, Control_c, 0, 64, 104
1, 38817, Control_c, 0, 64, 127
1, 38838, Note_on_c, 0, 49, 0
1, 38851, Note_on_c, 0, 66, 60
1, 38852, Note_on_c, 0, 57, 0
1, 38856, Note_on_c, 0, 60, 0
1, 38867, Note_on_c, 0, 42, 0
1, 38910, Note_on_c, 0, 49, 76
1, 38913, Control_c, 0, 64, 88
1, 38917, Control_c, 0, 64, 56
1, 38917, Note_on_c, 0, 61, 60
1, 38921, Note_on_c, 0, 66, 0
1, 38922, Note_on_c, 0, 57, 37
1, 38925, Control_c, 0, 64, 88
1, 38927, Control_c, 0, 64, 127
1, 38960, Note_on_c, 0, 49, 0
1, 38980, Note_on_c, 0, 57, 0
1, 38982, Note_on_c, 0, 66, 58
1, 38985, Note_on_c, 0, 61, 0
1, 39042, Note_on_c, 0, 49, 70
1, 39042, Note_on_c, 0, 61, 69
1, 39043, Note_on_c, 0, 42, 56
1, 39048, Note_on_c, 0, 66, 0
1, 39048, Note_on_c, 0, 57, 39
1, 39055, Control_c, 0, 64, 88
1, 39057, Control_c, 0, 64, 24
1, 39061, Control_c, 0, 64, 0
1, 39090, Control_c, 0, 64, 40
1, 39092, Control_c, 0, 64, 72
1, 39095, Control_c, 0, 64, 127
1, 39112, Note_on_c, 0, 57, 0
1, 39118, Note_on_c, 0, 66, 48
1, 39128, Note_on_c, 0, 61, 0
1, 39200, Note_on_c, 0, 66, 0
1, 39202, Note_on_c, 0, 56, 44
1, 39203, Note_on_c, 0, 59, 45
1, 39258, Note_on_c, 0, 59, 0
1, 39260, Note_on_c, 0, 56, 0
1, 39266, Note_on_c, 0, 66, 52
1, 39322, Note_on_c, 0, 66, 0
1, 39322, Note_on_c, 0, 60, 57
1, 39327, Note_on_c, 0, 57, 41
1, 39366, Note_on_c, 0, 49, 0
1, 39375, Note_on_c, 0, 60, 0
1, 39377, Note_on_c, 0, 57, 0
1, 39377, Note_on_c, 0, 66, 65
1, 39433, Note_on_c, 0, 49, 83
1, 39438, Note_on_c, 0, 61, 66
1, 39438, Control_c, 0, 64, 88
1, 39441, Note_on_c, 0, 66, 0
1, 39441, Note_on_c, 0, 57, 51
1, 39442, Control_c, 0, 64, 56
1, 39455, Control_c, 0, 64, 72
1, 39456, Control_c, 0, 64, 88
1, 39460, Control_c, 0, 64, 104
1, 39462, Control_c, 0, 64, 127
1, 39498, Note_on_c, 0, 42, 0
1, 39503, Note_on_c, 0, 57, 0
1, 39506, Note_on_c, 0, 61, 0
1, 39510, Note_on_c, 0, 49, 0
1, 39511, Note_on_c, 0, 66, 57
1, 39562, Note_on_c, 0, 66, 0
1, 39583, Note_on_c, 0, 61, 56
1, 39585, Note_on_c, 0, 49, 74
1, 39587, Note_on_c, 0, 42, 48
1, 39588, Control_c, 0, 64, 104
1, 39591, Control_c, 0, 64, 40
1, 39593, Note_on_c, 0, 57, 34
1, 39595, Control_c, 0, 64, 0
1, 39616, Control_c, 0, 64, 24
1, 39618, Control_c, 0, 64, 56
1, 39622, Control_c, 0, 64, 104
1, 39623, Control_c, 0, 64, 127
1, 39647, Note_on_c, 0, 57, 0
1, 39655, Note_on_c, 0, 61, 0
1, 39658, Note_on_c, 0, 66, 53
1, 39711, Note_on_c, 0, 47, 77
1, 39712, Note_on_c, 0, 66, 0
1, 39713, Control_c, 0, 64, 72
1, 39716, Note_on_c, 0, 62, 63
1, 39717, Note_on_c, 0, 59, 49
1, 39718, Control_c, 0, 64, 56
1, 39721, Note_on_c, 0, 49, 0
1, 39721, Note_on_c, 0, 42, 0
1, 39722, Control_c, 0, 64, 72
1, 39726, Control_c, 0, 64, 88
1, 39728, Control_c, 0, 64, 127
1, 39740, Note_on_c, 0, 47, 0
1, 39762, Note_on_c, 0, 59, 0
1, 39763, Note_on_c, 0, 62, 0
1, 39766, Note_on_c, 0, 66, 59
1, 39785, Note_on_c, 0, 66, 0
1, 39817, Note_on_c, 0, 54, 86
1, 39817, Control_c, 0, 64, 88
1, 39820, Note_on_c, 0, 45, 69
1, 39822, Control_c, 0, 64, 0
1, 39826, Note_on_c, 0, 63, 71
1, 39827, Note_on_c, 0, 60, 53
1, 39856, Control_c, 0, 64, 40
1, 39860, Control_c, 0, 64, 88
1, 39862, Control_c, 0, 64, 127
1, 39871, Note_on_c, 0, 60, 0
1, 39876, Note_on_c, 0, 63, 0
1, 39880, Note_on_c, 0, 69, 54
1, 39927, Control_c, 0, 64, 88
1, 39928, Note_on_c, 0, 52, 77
1, 39931, Note_on_c, 0, 69, 0
1, 39931, Note_on_c, 0, 45, 0
1, 39932, Control_c, 0, 64, 0
1, 39933, Note_on_c, 0, 64, 66
1, 39935, Note_on_c, 0, 61, 54
1, 39938, Note_on_c, 0, 54, 0
1, 39966, Control_c, 0, 64, 24
1, 39968, Control_c, 0, 64, 72
1, 39971, Control_c, 0, 64, 127
1, 39990, Note_on_c, 0, 69, 52
1, 39991, Note_on_c, 0, 64, 0
1, 39993, Note_on_c, 0, 61, 0
1, 40011, Note_on_c, 0, 69, 0
1, 40048, Note_on_c, 0, 47, 71
1, 40050, Note_on_c, 0, 52, 0
1, 40053, Control_c, 0, 64, 88
1, 40055, Note_on_c, 0, 62, 56
1, 40055, Note_on_c, 0, 65, 62
1, 40057, Control_c, 0, 64, 0
1, 40087, Control_c, 0, 64, 24
1, 40090, Control_c, 0, 64, 72
1, 40093, Control_c, 0, 64, 127
1, 40108, Note_on_c, 0, 62, 0
1, 40115, Note_on_c, 0, 65, 0
1, 40117, Note_on_c, 0, 71, 48
1, 40166, Note_on_c, 0, 71, 0
1, 40176, Note_on_c, 0, 54, 76
1, 40177, Control_c, 0, 64, 72
1, 40178, Note_on_c, 0, 66, 59
1, 40180, Note_on_c, 0, 62, 47
1, 40182, Control_c, 0, 64, 0
1, 40191, Note_on_c, 0, 47, 0
1, 40208, Control_c, 0, 64, 40
1, 40212, Control_c, 0, 64, 72
1, 40215, Control_c, 0, 64, 127
1, 40237, Note_on_c, 0, 62, 0
1, 40240, Note_on_c, 0, 66, 0
1, 40241, Note_on_c, 0, 71, 57
1, 40263, Note_on_c, 0, 71, 0
1, 40317, Note_on_c, 0, 57, 68
1, 40318, Control_c, 0, 64, 72
1, 40321, Note_on_c, 0, 49, 53
1, 40321, Note_on_c, 0, 64, 50
1, 40323, Note_on_c, 0, 67, 39
1, 40323, Control_c, 0, 64, 0
1, 40328, Note_on_c, 0, 54, 0
1, 40352, Control_c, 0, 64, 24
1, 40356, Control_c, 0, 64, 56
1, 40358, Control_c, 0, 64, 88
1, 40361, Control_c, 0, 64, 127
1, 40382, Note_on_c, 0, 64, 0
1, 40393, Note_on_c, 0, 73, 50
1, 40395, Note_on_c, 0, 67, 0
1, 40460, Note_on_c, 0, 73, 0
1, 40466, Note_on_c, 0, 56, 74
1, 40471, Control_c, 0, 64, 104
1, 40473, Note_on_c, 0, 57, 0
1, 40473, Note_on_c, 0, 68, 53
1, 40475, Note_on_c, 0, 65, 46
1, 40476, Control_c, 0, 64, 0
1, 40503, Control_c, 0, 64, 40
1, 40507, Control_c, 0, 64, 72
1, 40510, Control_c, 0, 64, 127
1, 40543, Note_on_c, 0, 65, 0
1, 40551, Note_on_c, 0, 73, 50
1, 40560, Note_on_c, 0, 49, 0
1, 40565, Note_on_c, 0, 68, 0
1, 40582, Note_on_c, 0, 73, 0
1, 40605, Note_on_c, 0, 56, 0
1, 40666, Control_c, 0, 64, 88
1, 40670, Control_c, 0, 64, 0
1, 40677, Note_on_c, 0, 54, 63
1, 40681, Note_on_c, 0, 61, 52
1, 40682, Note_on_c, 0, 69, 59
1, 40683, Note_on_c, 0, 66, 50
1, 40701, Control_c, 0, 64, 24
1, 40706, Control_c, 0, 64, 72
1, 40707, Control_c, 0, 64, 127
1, 40708, Note_on_c, 0, 61, 0
1, 40711, Note_on_c, 0, 66, 0
1, 40716, Note_on_c, 0, 69, 0
1, 40803, Note_on_c, 0, 78, 53
1, 40860, Note_on_c, 0, 78, 0
1, 40876, Note_on_c, 0, 68, 43
1, 40877, Note_on_c, 0, 71, 46
1, 40916, Note_on_c, 0, 71, 0
1, 40917, Note_on_c, 0, 68, 0
1, 40931, Note_on_c, 0, 78, 54
1, 40976, Note_on_c, 0, 78, 0
1, 40985, Note_on_c, 0, 69, 48
1, 40986, Note_on_c, 0, 72, 52
1, 41030, Note_on_c, 0, 72, 0
1, 41033, Note_on_c, 0, 69, 0
1, 41036, Note_on_c, 0, 54, 0
1, 41042, Note_on_c, 0, 78, 62
1, 41096, Note_on_c, 0, 61, 78
1, 41100, Control_c, 0, 64, 104
1, 41102, Control_c, 0, 64, 88
1, 41105, Note_on_c, 0, 73, 62
1, 41106, Note_on_c, 0, 78, 0
1, 41107, Note_on_c, 0, 69, 43
1, 41107, Control_c, 0, 64, 104
1, 41111, Control_c, 0, 64, 127
1, 41145, Note_on_c, 0, 61, 0
1, 41148, Note_on_c, 0, 73, 0
1, 41161, Note_on_c, 0, 69, 0
1, 41163, Note_on_c, 0, 78, 59
1, 41240, Note_on_c, 0, 61, 62
1, 41241, Note_on_c, 0, 78, 0
1, 41241, Note_on_c, 0, 73, 61
1, 41242, Note_on_c, 0, 54, 57
1, 41243, Note_on_c, 0, 69, 43
1, 41245, Control_c, 0, 64, 0
1, 41276, Control_c, 0, 64, 40
1, 41280, Control_c, 0, 64, 88
1, 41282, Control_c, 0, 64, 127
1, 41307, Note_on_c, 0, 69, 0
1, 41312, Note_on_c, 0, 78, 51
1, 41320, Note_on_c, 0, 73, 0
1, 41360, Note_on_c, 0, 78, 0
1, 41372, Note_on_c, 0, 68, 57
1, 41375, Note_on_c, 0, 71, 58
1, 41415, Note_on_c, 0, 71, 0
1, 41418, Note_on_c, 0, 68, 0
1, 41426, Note_on_c, 0, 78, 50
1, 41475, Note_on_c, 0, 78, 0
1, 41478, Note_on_c, 0, 72, 56
1, 41478, Note_on_c, 0, 69, 51
1, 41485, Control_c, 0, 64, 104
1, 41487, Control_c, 0, 64, 88
1, 41490, Control_c, 0, 64, 72
1, 41498, Control_c, 0, 64, 88
1, 41502, Control_c, 0, 64, 104
1, 41505, Control_c, 0, 64, 127
1, 41536, Note_on_c, 0, 78, 59
1, 41538, Note_on_c, 0, 72, 0
1, 41541, Note_on_c, 0, 69, 0
1, 41546, Note_on_c, 0, 61, 0
1, 41598, Note_on_c, 0, 61, 70
1, 41602, Note_on_c, 0, 73, 58
1, 41602, Note_on_c, 0, 69, 44
1, 41605, Note_on_c, 0, 78, 0
1, 41610, Control_c, 0, 64, 104
1, 41612, Control_c, 0, 64, 56
1, 41615, Control_c, 0, 64, 40
1, 41621, Control_c, 0, 64, 72
1, 41623, Control_c, 0, 64, 88
1, 41627, Control_c, 0, 64, 104
1, 41630, Control_c, 0, 64, 127
1, 41647, Note_on_c, 0, 54, 0
1, 41650, Note_on_c, 0, 73, 0
1, 41652, Note_on_c, 0, 69, 0
1, 41653, Note_on_c, 0, 61, 0
1, 41653, Note_on_c, 0, 78, 57
1, 41695, Note_on_c, 0, 78, 0
1, 41706, Note_on_c, 0, 61, 70
1, 41708, Control_c, 0, 64, 104
1, 41708, Note_on_c, 0, 69, 40
1, 41708, Note_on_c, 0, 73, 54
1, 41711, Note_on_c, 0, 54, 50
1, 41713, Control_c, 0, 64, 24
1, 41716, Control_c, 0, 64, 0
1, 41718, Control_c, 0, 64, 24
1, 41722, Control_c, 0, 64, 40
1, 41726, Control_c, 0, 64, 72
1, 41727, Control_c, 0, 64, 88
1, 41730, Control_c, 0, 64, 127
1, 41752, Note_on_c, 0, 69, 0
1, 41755, Note_on_c, 0, 73, 0
1, 41761, Note_on_c, 0, 78, 59
1, 41795, Note_on_c, 0, 78, 0
1, 41807, Control_c, 0, 64, 88
1, 41808, Note_on_c, 0, 59, 72
1, 41811, Note_on_c, 0, 71, 53
1, 41811, Control_c, 0, 64, 0
1, 41813, Note_on_c, 0, 74, 56
1, 41818, Control_c, 0, 64, 24
1, 41820, Note_on_c, 0, 61, 0
1, 41821, Note_on_c, 0, 54, 0
1, 41822, Control_c, 0, 64, 56
1, 41825, Control_c, 0, 64, 88
1, 41828, Control_c, 0, 64, 127
1, 41840, Note_on_c, 0, 59, 0
1, 41852, Note_on_c, 0, 71, 0
1, 41852, Note_on_c, 0, 74, 0
1, 41862, Note_on_c, 0, 78, 53
1, 41872, Note_on_c, 0, 78, 0
1, 41917, Note_on_c, 0, 57, 60
1, 41921, Note_on_c, 0, 75, 66
1, 41923, Control_c, 0, 64, 56
1, 41925, Note_on_c, 0, 72, 43
1, 41927, Control_c, 0, 64, 0
1, 41947, Control_c, 0, 64, 24
1, 41951, Control_c, 0, 64, 56
1, 41955, Control_c, 0, 64, 104
1, 41957, Control_c, 0, 64, 127
1, 41970, Note_on_c, 0, 72, 0
1, 41980, Note_on_c, 0, 75, 0
1, 41981, Note_on_c, 0, 81, 60
1, 42031, Note_on_c, 0, 81, 0
1, 42035, Control_c, 0, 64, 88
1, 42037, Note_on_c, 0, 64, 66
1, 42037, Note_on_c, 0, 73, 53
1, 42040, Note_on_c, 0, 76, 58
1, 42041, Control_c, 0, 64, 0
1, 42050, Note_on_c, 0, 57, 0
1, 42052, Control_c, 0, 64, 24
1, 42056, Control_c, 0, 64, 56
1, 42060, Control_c, 0, 64, 88
1, 42062, Control_c, 0, 64, 127
1, 42093, Note_on_c, 0, 76, 0
1, 42098, Note_on_c, 0, 81, 57
1, 42100, Note_on_c, 0, 73, 0
1, 42116, Note_on_c, 0, 81, 0
1, 42145, Note_on_c, 0, 64, 0
1, 42158, Note_on_c, 0, 59, 62
1, 42161, Control_c, 0, 64, 104
1, 42163, Control_c, 0, 64, 24
1, 42167, Control_c, 0, 64, 0
1, 42167, Note_on_c, 0, 77, 57
1, 42172, Note_on_c, 0, 74, 38
1, 42188, Control_c, 0, 64, 24
1, 42191, Control_c, 0, 64, 56
1, 42193, Control_c, 0, 64, 88
1, 42196, Control_c, 0, 64, 127
1, 42217, Note_on_c, 0, 77, 0
1, 42222, Note_on_c, 0, 74, 0
1, 42230, Note_on_c, 0, 83, 48
1, 42253, Note_on_c, 0, 83, 0
1, 42288, Note_on_c, 0, 66, 53
1, 42291, Note_on_c, 0, 78, 52
1, 42295, Control_c, 0, 64, 72
1, 42297, Note_on_c, 0, 74, 38
1, 42298, Control_c, 0, 64, 0
1, 42310, Control_c, 0, 64, 24
1, 42312, Control_c, 0, 64, 40
1, 42316, Control_c, 0, 64, 72
1, 42318, Control_c, 0, 64, 104
1, 42322, Control_c, 0, 64, 127
1, 42325, Note_on_c, 0, 59, 0
1, 42353, Note_on_c, 0, 74, 0
1, 42357, Note_on_c, 0, 83, 49
1, 42358, Note_on_c, 0, 78, 0
1, 42358, Note_on_c, 0, 66, 0
1, 42372, Note_on_c, 0, 83, 0
1, 42427, Note_on_c, 0, 61, 45
1, 42430, Note_on_c, 0, 79, 45
1, 42431, Note_on_c, 0, 76, 41
1, 42433, Control_c, 0, 64, 104
1, 42437, Control_c, 0, 64, 56
1, 42440, Control_c, 0, 64, 0
1, 42455, Control_c, 0, 64, 24
1, 42456, Control_c, 0, 64, 40
1, 42458, Control_c, 0, 64, 56
1, 42461, Control_c, 0, 64, 88
1, 42465, Control_c, 0, 64, 127
1, 42492, Note_on_c, 0, 76, 0
1, 42503, Note_on_c, 0, 85, 53
1, 42508, Note_on_c, 0, 79, 0
1, 42558, Note_on_c, 0, 85, 0
1, 42581, Note_on_c, 0, 68, 50
1, 42583, Note_on_c, 0, 80, 49
1, 42585, Note_on_c, 0, 77, 39
1, 42586, Control_c, 0, 64, 104
1, 42590, Control_c, 0, 64, 56
1, 42592, Control_c, 0, 64, 24
1, 42595, Control_c, 0, 64, 0
1, 42602, Control_c, 0, 64, 24
1, 42605, Control_c, 0, 64, 40
1, 42607, Control_c, 0, 64, 56
1, 42610, Control_c, 0, 64, 72
1, 42613, Control_c, 0, 64, 104
1, 42617, Control_c, 0, 64, 127
1, 42671, Note_on_c, 0, 77, 0
1, 42673, Note_on_c, 0, 85, 44
1, 42682, Note_on_c, 0, 80, 0
1, 42687, Note_on_c, 0, 61, 0
1, 42693, Note_on_c, 0, 85, 0
1, 42695, Note_on_c, 0, 68, 0
1, 42836, Note_on_c, 0, 90, 53
1, 42838, Control_c, 0, 64, 104
1, 42841, Note_on_c, 0, 66, 45
1, 42841, Note_on_c, 0, 78, 45
1, 42842, Note_on_c, 0, 69, 38
1, 42845, Control_c, 0, 64, 0
1, 42867, Control_c, 0, 64, 24
1, 42870, Control_c, 0, 64, 56
1, 42872, Control_c, 0, 64, 88
1, 42875, Control_c, 0, 64, 127
1, 42965, Note_on_c, 0, 90, 0
1, 42983, Note_on_c, 0, 85, 54
1, 43013, Note_on_c, 0, 78, 0
1, 43053, Note_on_c, 0, 85, 0
1, 43062, Note_on_c, 0, 83, 50
1, 43108, Note_on_c, 0, 83, 0
1, 43123, Note_on_c, 0, 80, 57
1, 43150, Note_on_c, 0, 80, 0
1, 43201, Note_on_c, 0, 81, 52
1, 43206, Control_c, 0, 64, 88
1, 43211, Control_c, 0, 64, 56
1, 43213, Control_c, 0, 64, 24
1, 43221, Control_c, 0, 64, 56
1, 43223, Control_c, 0, 64, 72
1, 43228, Control_c, 0, 64, 88
1, 43232, Control_c, 0, 64, 104
1, 43235, Control_c, 0, 64, 127
1, 43270, Note_on_c, 0, 81, 0
1, 43270, Note_on_c, 0, 80, 60
1, 43321, Note_on_c, 0, 80, 0
1, 43331, Note_on_c, 0, 77, 55
1, 43375, Note_on_c, 0, 77, 0
1, 43386, Note_on_c, 0, 78, 52
1, 43415, Note_on_c, 0, 78, 0
1, 43446, Note_on_c, 0, 85, 59
1, 43447, Note_on_c, 0, 69, 0
1, 43465, Note_on_c, 0, 66, 0
1, 43510, Note_on_c, 0, 81, 47
1, 43518, Note_on_c, 0, 85, 0
1, 43565, Note_on_c, 0, 81, 0
1, 43573, Note_on_c, 0, 80, 59
1, 43613, Note_on_c, 0, 80, 0
1, 43630, Note_on_c, 0, 76, 52
1, 43676, Note_on_c, 0, 76, 0
1, 43696, Note_on_c, 0, 78, 58
1, 43752, Note_on_c, 0, 62, 48
1, 43756, Note_on_c, 0, 74, 62
1, 43763, Note_on_c, 0, 78, 0
1, 43808, Note_on_c, 0, 74, 0
1, 43815, Note_on_c, 0, 62, 0
1, 43818, Note_on_c, 0, 72, 67
1, 43822, Note_on_c, 0, 60, 41
1, 43870, Note_on_c, 0, 60, 0
1, 43871, Note_on_c, 0, 61, 59
1, 43873, Note_on_c, 0, 72, 0
1, 43876, Note_on_c, 0, 73, 74
1, 43880, Note_on_c, 0, 61, 0
1, 43900, Note_on_c, 0, 73, 0
1, 43946, Note_on_c, 0, 54, 68
1, 43946, Note_on_c, 0, 78, 70
1, 43951, Control_c, 0, 64, 88
1, 43955, Control_c, 0, 64, 24
1, 43956, Control_c, 0, 64, 0
1, 43975, Control_c, 0, 64, 24
1, 43976, Control_c, 0, 64, 56
1, 43980, Control_c, 0, 64, 88
1, 43982, Control_c, 0, 64, 127
1, 44020, Note_on_c, 0, 54, 0
1, 44021, Note_on_c, 0, 49, 54
1, 44022, Note_on_c, 0, 73, 70
1, 44075, Note_on_c, 0, 78, 0
1, 44077, Note_on_c, 0, 73, 0
1, 44078, Note_on_c, 0, 47, 54
1, 44080, Note_on_c, 0, 49, 0
1, 44081, Note_on_c, 0, 71, 62
1, 44117, Note_on_c, 0, 71, 0
1, 44128, Note_on_c, 0, 47, 0
1, 44131, Note_on_c, 0, 68, 63
1, 44131, Note_on_c, 0, 44, 61
1, 44147, Note_on_c, 0, 44, 0
1, 44156, Note_on_c, 0, 68, 0
1, 44190, Note_on_c, 0, 69, 66
1, 44192, Note_on_c, 0, 45, 64
1, 44195, Control_c, 0, 64, 104
1, 44197, Control_c, 0, 64, 40
1, 44200, Control_c, 0, 64, 0
1, 44228, Control_c, 0, 64, 24
1, 44231, Control_c, 0, 64, 56
1, 44233, Control_c, 0, 64, 104
1, 44237, Control_c, 0, 64, 127
1, 44250, Note_on_c, 0, 45, 0
1, 44253, Note_on_c, 0, 44, 59
1, 44257, Note_on_c, 0, 68, 70
1, 44258, Note_on_c, 0, 69, 0
1, 44321, Note_on_c, 0, 68, 0
1, 44321, Note_on_c, 0, 44, 0
1, 44323, Note_on_c, 0, 65, 57
1, 44325, Note_on_c, 0, 41, 47
1, 44328, Control_c, 0, 64, 104
1, 44332, Control_c, 0, 64, 40
1, 44335, Control_c, 0, 64, 0
1, 44357, Control_c, 0, 64, 24
1, 44360, Control_c, 0, 64, 56
1, 44363, Control_c, 0, 64, 88
1, 44366, Control_c, 0, 64, 127
1, 44382, Note_on_c, 0, 65, 0
1, 44388, Note_on_c, 0, 41, 0
1, 44391, Note_on_c, 0, 66, 59
1, 44393, Note_on_c, 0, 42, 53
1, 44396, Control_c, 0, 67, 127
1, 44440, Note_on_c, 0, 42, 0
1, 44440, Note_on_c, 0, 66, 0
1, 44465, Note_on_c, 0, 73, 61
1, 44466, Note_on_c, 0, 49, 50
1, 44470, Control_c, 0, 64, 88
1, 44472, Control_c, 0, 64, 24
1, 44476, Control_c, 0, 64, 0
1, 44500, Control_c, 0, 64, 24
1, 44503, Control_c, 0, 64, 56
1, 44506, Control_c, 0, 64, 104
1, 44508, Control_c, 0, 64, 127
1, 44533, Note_on_c, 0, 49, 0
1, 44536, Note_on_c, 0, 69, 50
1, 44536, Note_on_c, 0, 45, 56
1, 44542, Note_on_c, 0, 73, 0
1, 44603, Note_on_c, 0, 42, 43
1, 44606, Note_on_c, 0, 66, 59
1, 44607, Note_on_c, 0, 69, 0
1, 44608, Note_on_c, 0, 45, 0
1, 44613, Control_c, 0, 64, 72
1, 44617, Control_c, 0, 64, 24
1, 44620, Control_c, 0, 64, 0
1, 44638, Control_c, 0, 64, 24
1, 44641, Control_c, 0, 64, 40
1, 44645, Control_c, 0, 64, 72
1, 44647, Control_c, 0, 64, 104
1, 44650, Control_c, 0, 64, 127
1, 44678, Note_on_c, 0, 66, 0
1, 44681, Note_on_c, 0, 42, 0
1, 44682, Note_on_c, 0, 40, 50
1, 44683, Note_on_c, 0, 64, 59
1, 44693, Note_on_c, 0, 40, 0
1, 44705, Note_on_c, 0, 64, 0
1, 44768, Note_on_c, 0, 42, 43
1, 44771, Note_on_c, 0, 66, 59
1, 44772, Control_c, 0, 64, 104
1, 44776, Control_c, 0, 64, 40
1, 44778, Control_c, 0, 64, 0
1, 44790, Control_c, 0, 64, 24
1, 44793, Control_c, 0, 64, 56
1, 44796, Control_c, 0, 64, 72
1, 44798, Control_c, 0, 64, 127
1, 44866, Note_on_c, 0, 62, 56
1, 44866, Note_on_c, 0, 38, 44
1, 44867, Control_c, 0, 64, 104
1, 44871, Control_c, 0, 64, 40
1, 44873, Note_on_c, 0, 66, 0
1, 44875, Note_on_c, 0, 42, 0
1, 44875, Control_c, 0, 64, 0
1, 44888, Control_c, 0, 64, 24
1, 44891, Control_c, 0, 64, 56
1, 44893, Control_c, 0, 64, 104
1, 44896, Control_c, 0, 64, 127
1, 44908, Note_on_c, 0, 62, 0
1, 44956, Note_on_c, 0, 38, 0
1, 44976, Note_on_c, 0, 35, 40
1, 44976, Note_on_c, 0, 59, 54
1, 44978, Control_c, 0, 64, 88
1, 44982, Control_c, 0, 64, 24
1, 44985, Control_c, 0, 64, 0
1, 45000, Control_c, 0, 64, 40
1, 45002, Control_c, 0, 64, 72
1, 45005, Control_c, 0, 64, 104
1, 45008, Control_c, 0, 64, 127
1, 45048, Control_c, 0, 64, 104
1, 45052, Control_c, 0, 64, 40
1, 45053, Note_on_c, 0, 56, 50
1, 45055, Note_on_c, 0, 32, 44
1, 45056, Control_c, 0, 64, 0
1, 45063, Note_on_c, 0, 59, 0
1, 45063, Control_c, 0, 64, 40
1, 45066, Control_c, 0, 64, 72
1, 45068, Control_c, 0, 64, 88
1, 45070, Note_on_c, 0, 35, 0
1, 45071, Control_c, 0, 64, 127
1, 45097, Control_c, 0, 64, 104
1, 45100, Control_c, 0, 64, 40
1, 45103, Control_c, 0, 64, 0
1, 45126, Note_on_c, 0, 61, 50
1, 45127, Note_on_c, 0, 56, 0
1, 45130, Note_on_c, 0, 32, 0
1, 45131, Control_c, 0, 64, 24
1, 45132, Note_on_c, 0, 37, 41
1, 45135, Control_c, 0, 64, 72
1, 45137, Control_c, 0, 64, 104
1, 45141, Control_c, 0, 64, 127
1, 45243, Note_on_c, 0, 54, 56
1, 45246, Note_on_c, 0, 61, 0
1, 45246, Note_on_c, 0, 30, 45
1, 45252, Note_on_c, 0, 37, 0
1, 45262, Control_c, 0, 64, 88
1, 45266, Control_c, 0, 64, 40
1, 45268, Control_c, 0, 64, 0
1, 45450, Control_c, 0, 64, 24
1, 45452, Control_c, 0, 64, 40
1, 45455, Control_c, 0, 64, 56
1, 45457, Control_c, 0, 64, 88
1, 45460, Control_c, 0, 64, 104
1, 45463, Control_c, 0, 64, 127
1, 45488, Note_on_c, 0, 30, 0
1, 45507, Note_on_c, 0, 54, 0
1, 45682, Control_c, 0, 67, 0
1, 45762, Control_c, 0, 64, 127
1, 45848, Note_on_c, 0, 78, 59
1, 45850, Note_on_c, 0, 66, 50
1, 45851, Note_on_c, 0, 69, 52
1, 45852, Note_on_c, 0, 42, 44
1, 45852, Note_on_c, 0, 54, 52
1, 45855, Note_on_c, 0, 73, 53
1, 45856, Note_on_c, 0, 57, 35
1, 45857, Note_on_c, 0, 49, 44
1, 45898, Note_on_c, 0, 57, 0
1, 45903, Note_on_c, 0, 66, 0
1, 45903, Note_on_c, 0, 42, 0
1, 45905, Note_on_c, 0, 54, 0
1, 45908, Note_on_c, 0, 49, 0
1, 45908, Note_on_c, 0, 69, 0
1, 45910, Note_on_c, 0, 78, 0
1, 45911, Note_on_c, 0, 73, 0
1, 46010, Note_on_c, 0, 42, 60
1, 46010, Note_on_c, 0, 54, 72
1, 46012, Note_on_c, 0, 57, 71
1, 46012, Note_on_c, 0, 66, 76
1, 46013, Note_on_c, 0, 78, 76
1, 46015, Note_on_c, 0, 49, 61
1, 46017, Note_on_c, 0, 69, 69
1, 46017, Note_on_c, 0, 73, 71
1, 46048, Note_on_c, 0, 57, 0
1, 46050, Note_on_c, 0, 42, 0
1, 46056, Note_on_c, 0, 78, 0
1, 46057, Note_on_c, 0, 54, 0
1, 46058, Note_on_c, 0, 66, 0
1, 46058, Note_on_c, 0, 49, 0
1, 46062, Note_on_c, 0, 69, 0
1, 46068, Note_on_c, 0, 73, 0
1, 46125, Note_on_c, 0, 42, 75
1, 46126, Note_on_c, 0, 57, 88
1, 46127, Note_on_c, 0, 78, 85
1, 46127, Note_on_c, 0, 54, 83
1, 46130, Note_on_c, 0, 49, 76
1, 46130, Note_on_c, 0, 66, 94
1, 46132, Note_on_c, 0, 73, 84
1, 46132, Note_on_c, 0, 69, 83
1, 46157, Note_on_c, 0, 54, 0
1, 46160, Note_on_c, 0, 57, 0
1, 46160, Note_on_c, 0, 42, 0
1, 46161, Note_on_c, 0, 69, 0
1, 46161, Note_on_c, 0, 49, 0
1, 46161, Note_on_c, 0, 78, 0
1, 46162, Note_on_c, 0, 66, 0
1, 46163, Note_on_c, 0, 73, 0
1, 46226, Note_on_c, 0, 57, 99
1, 46226, Note_on_c, 0, 54, 88
1, 46226, Note_on_c, 0, 42, 79
1, 46228, Note_on_c, 0, 49, 87
1, 46228, Note_on_c, 0, 78, 84
1, 46231, Note_on_c, 0, 66, 99
1, 46232, Note_on_c, 0, 69, 82
1, 46233, Note_on_c, 0, 73, 84
1, 47006, Note_on_c, 0, 78, 0
1, 47008, Note_on_c, 0, 42, 0
1, 47012, Note_on_c, 0, 66, 0
1, 47016, Note_on_c, 0, 73, 0
1, 47017, Note_on_c, 0, 57, 0
1, 47018, Note_on_c, 0, 69, 0
1, 47026, Note_on_c, 0, 49, 0
1, 47026, Note_on_c, 0, 54, 0
1, 47072, Control_c, 0, 67, 24
1, 47075, Control_c, 0, 67, 40
1, 47083, Control_c, 0, 67, 56
1, 47086, Control_c, 0, 67, 72
1, 47087, Control_c, 0, 67, 88
1, 47091, Control_c, 0, 67, 104
1, 47093, Control_c, 0, 67, 127
1, 47242, Note_on_c, 0, 78, 70
1, 47242, Note_on_c, 0, 42, 58
1, 47243, Note_on_c, 0, 66, 65
1, 47246, Note_on_c, 0, 57, 57
1, 47246, Note_on_c, 0, 69, 61
1, 47247, Note_on_c, 0, 73, 60
1, 47248, Note_on_c, 0, 54, 63
1, 47250, Note_on_c, 0, 49, 49
1, 47561, Note_on_c, 0, 42, 0
1, 47562, Note_on_c, 0, 57, 0
1, 47566, Note_on_c, 0, 78, 0
1, 47566, Note_on_c, 0, 66, 0
1, 47567, Note_on_c, 0, 54, 0
1, 47567, Note_on_c, 0, 73, 0
1, 47568, Note_on_c, 0, 49, 0
1, 47571, Note_on_c, 0, 69, 0
1, 47827, Note_on_c, 0, 78, 57
1, 47827, Note_on_c, 0, 66, 54
1, 47828, Note_on_c, 0, 69, 50
1, 47831, Note_on_c, 0, 73, 53
1, 47832, Note_on_c, 0, 42, 41
1, 47832, Note_on_c, 0, 57, 48
1, 47833, Note_on_c, 0, 54, 55
1, 47835, Note_on_c, 0, 49, 48
1, 47863, Note_on_c, 0, 54, 0
1, 47866, Note_on_c, 0, 57, 0
1, 47866, Note_on_c, 0, 42, 0
1, 47867, Note_on_c, 0, 49, 0
1, 47867, Note_on_c, 0, 66, 0
1, 47867, Note_on_c, 0, 73, 0
1, 47868, Note_on_c, 0, 69, 0
1, 47873, Note_on_c, 0, 78, 0
1, 48021, Note_on_c, 0, 78, 52
1, 48023, Note_on_c, 0, 66, 46
1, 48023, Note_on_c, 0, 54, 44
1, 48023, Note_on_c, 0, 42, 39
1, 48026, Note_on_c, 0, 69, 42
1, 48026, Note_on_c, 0, 73, 45
1, 48028, Note_on_c, 0, 57, 36
1, 48028, Note_on_c, 0, 49, 40
1, 48642, Note_on_c, 0, 42, 0
1, 48645, Note_on_c, 0, 57, 0
1, 48645, Note_on_c, 0, 73, 0
1, 48647, Note_on_c, 0, 54, 0
1, 48647, Note_on_c, 0, 66, 0
1, 48648, Note_on_c, 0, 49, 0
1, 48651, Note_on_c, 0, 78, 0
1, 48653, Note_on_c, 0, 69, 0
1, 49718, Control_c, 0, 64, 104
1, 49720, Control_c, 0, 67, 104
1, 49721, Control_c, 0, 64, 88
1, 49722, Control_c, 0, 67, 88
1, 49723, Control_c, 0, 64, 56
1, 49725, Control_c, 0, 67, 56
1, 49726, Control_c, 0, 64, 0
1, 49728, Control_c, 0, 67, 40
1, 49728, Control_c, 0, 67, 24
1, 49731, Control_c, 0, 67, 0
1, 50004, Note_on_c, 0, 120, 1
1, 50184, Note_on_c, 0, 120, 0
1, 50184, End_track
0, 0, End_of_file
