0, 0, Header, 0, 1, 120
1, 0, Start_track
1, 0, Title_t, "untitled"
1, 0, Time_signature, 4, 2, 24, 8
1, 0, Key_signature, 0, "major"
1, 0, Tempo, 500000
1, 0, Program_c, 0, 0
1, 0, Control_c, 0, 7, 105
1, 667, Control_c, 0, 67, 127
1, 791, Control_c, 0, 64, 24
1, 796, Control_c, 0, 64, 40
1, 797, Control_c, 0, 64, 56
1, 801, Control_c, 0, 64, 72
1, 802, Control_c, 0, 64, 88
1, 806, Control_c, 0, 64, 104
1, 807, Note_on_c, 0, 73, 52
1, 807, Note_on_c, 0, 70, 49
1, 807, Note_on_c, 0, 61, 39
1, 808, Note_on_c, 0, 66, 44
1, 810, Control_c, 0, 64, 127
1, 881, Note_on_c, 0, 61, 0
1, 882, Note_on_c, 0, 66, 0
1, 882, Note_on_c, 0, 73, 0
1, 886, Note_on_c, 0, 70, 0
1, 1016, Note_on_c, 0, 73, 49
1, 1017, Note_on_c, 0, 70, 52
1, 1017, Note_on_c, 0, 63, 60
1, 1018, Note_on_c, 0, 66, 45
1, 1023, Control_c, 0, 64, 104
1, 1026, Control_c, 0, 64, 56
1, 1031, Control_c, 0, 64, 0
1, 1048, Control_c, 0, 64, 24
1, 1051, Control_c, 0, 64, 40
1, 1053, Control_c, 0, 64, 56
1, 1057, Control_c, 0, 64, 88
1, 1061, Control_c, 0, 64, 127
1, 1076, Note_on_c, 0, 66, 0
1, 1082, Note_on_c, 0, 73, 0
1, 1082, Note_on_c, 0, 70, 0
1, 1100, Note_on_c, 0, 63, 0
1, 1163, Note_on_c, 0, 73, 63
1, 1166, Note_on_c, 0, 70, 61
1, 1166, Note_on_c, 0, 65, 71
1, 1170, Control_c, 0, 64, 72
1, 1171, Control_c, 0, 64, 0
1, 1192, Control_c, 0, 64, 24
1, 1197, Control_c, 0, 64, 56
1, 1198, Control_c, 0, 64, 88
1, 1201, Control_c, 0, 64, 127
1, 1236, Note_on_c, 0, 65, 0
1, 1236, Note_on_c, 0, 70, 0
1, 1241, Note_on_c, 0, 73, 0
1, 1313, Note_on_c, 0, 65, 66
1, 1316, Note_on_c, 0, 73, 66
1, 1316, Note_on_c, 0, 70, 60
1, 1321, Control_c, 0, 64, 104
1, 1323, Control_c, 0, 64, 56
1, 1326, Control_c, 0, 64, 0
1, 1356, Control_c, 0, 64, 24
1, 1358, Control_c, 0, 64, 56
1, 1360, Control_c, 0, 64, 88
1, 1362, Control_c, 0, 64, 127
1, 1400, Note_on_c, 0, 73, 0
1, 1403, Note_on_c, 0, 70, 0
1, 1491, Note_on_c, 0, 73, 50
1, 1493, Note_on_c, 0, 66, 56
1, 1493, Note_on_c, 0, 70, 47
1, 1501, Note_on_c, 0, 65, 0
1, 1513, Control_c, 0, 64, 104
1, 1516, Control_c, 0, 64, 72
1, 1518, Control_c, 0, 64, 24
1, 1521, Control_c, 0, 64, 0
1, 1596, Control_c, 0, 64, 24
1, 1600, Control_c, 0, 64, 40
1, 1601, Control_c, 0, 64, 72
1, 1605, Control_c, 0, 64, 104
1, 1608, Control_c, 0, 64, 127
1, 1655, Note_on_c, 0, 66, 0
1, 1690, Note_on_c, 0, 73, 0
1, 1693, Note_on_c, 0, 70, 0
1, 1752, Control_c, 0, 64, 88
1, 1755, Control_c, 0, 64, 40
1, 1757, Control_c, 0, 64, 0
1, 1866, Control_c, 0, 64, 24
1, 1866, Control_c, 0, 64, 40
1, 1871, Control_c, 0, 64, 72
1, 1872, Control_c, 0, 64, 88
1, 1876, Control_c, 0, 64, 104
1, 1878, Control_c, 0, 64, 127
1, 1883, Note_on_c, 0, 73, 51
1, 1883, Note_on_c, 0, 61, 53
1, 1886, Note_on_c, 0, 66, 45
1, 1888, Note_on_c, 0, 70, 48
1, 1916, Note_on_c, 0, 61, 0
1, 1920, Note_on_c, 0, 66, 0
1, 1921, Note_on_c, 0, 73, 0
1, 1922, Note_on_c, 0, 70, 0
1, 2062, Note_on_c, 0, 73, 60
1, 2066, Note_on_c, 0, 66, 53
1, 2066, Note_on_c, 0, 70, 58
1, 2066, Note_on_c, 0, 63, 52
1, 2068, Control_c, 0, 64, 56
1, 2071, Control_c, 0, 64, 24
1, 2073, Control_c, 0, 64, 0
1, 2115, Control_c, 0, 64, 24
1, 2117, Control_c, 0, 64, 72
1, 2120, Control_c, 0, 64, 104
1, 2122, Control_c, 0, 64, 127
1, 2137, Note_on_c, 0, 63, 0
1, 2138, Note_on_c, 0, 73, 0
1, 2142, Note_on_c, 0, 70, 0
1, 2143, Note_on_c, 0, 66, 0
1, 2210, Note_on_c, 0, 70, 53
1, 2210, Note_on_c, 0, 73, 68
1, 2212, Note_on_c, 0, 65, 64
1, 2217, Control_c, 0, 64, 88
1, 2220, Control_c, 0, 64, 24
1, 2222, Control_c, 0, 64, 0
1, 2242, Control_c, 0, 64, 40
1, 2246, Control_c, 0, 64, 72
1, 2248, Control_c, 0, 64, 104
1, 2252, Control_c, 0, 64, 127
1, 2272, Note_on_c, 0, 65, 0
1, 2276, Note_on_c, 0, 73, 0
1, 2280, Note_on_c, 0, 70, 0
1, 2390, Control_c, 0, 64, 104
1, 2391, Note_on_c, 0, 61, 84
1, 2395, Control_c, 0, 64, 56
1, 2395, Control_c, 0, 64, 0
1, 2397, Note_on_c, 0, 73, 62
1, 2400, Note_on_c, 0, 70, 56
1, 2400, Note_on_c, 0, 65, 55
1, 2480, Control_c, 0, 64, 40
1, 2480, Control_c, 0, 64, 72
1, 2485, Control_c, 0, 64, 104
1, 2485, Control_c, 0, 64, 127
1, 2512, Note_on_c, 0, 65, 0
1, 2515, Note_on_c, 0, 73, 0
1, 2522, Note_on_c, 0, 70, 0
1, 2600, Note_on_c, 0, 73, 53
1, 2602, Note_on_c, 0, 70, 50
1, 2602, Note_on_c, 0, 66, 45
1, 2607, Control_c, 0, 64, 88
1, 2610, Control_c, 0, 64, 24
1, 2612, Control_c, 0, 64, 0
1, 2640, Control_c, 0, 64, 40
1, 2642, Control_c, 0, 64, 88
1, 2645, Control_c, 0, 64, 127
1, 2681, Note_on_c, 0, 61, 0
1, 2797, Control_c, 0, 64, 88
1, 2798, Note_on_c, 0, 54, 68
1, 2801, Control_c, 0, 64, 24
1, 2803, Control_c, 0, 64, 0
1, 2808, Note_on_c, 0, 73, 0
1, 2818, Note_on_c, 0, 66, 0
1, 2821, Note_on_c, 0, 70, 0
1, 3001, Control_c, 0, 64, 40
1, 3003, Control_c, 0, 64, 56
1, 3006, Control_c, 0, 64, 72
1, 3008, Control_c, 0, 64, 88
1, 3012, Control_c, 0, 64, 104
1, 3013, Control_c, 0, 64, 127
1, 3018, Note_on_c, 0, 73, 47
1, 3021, Note_on_c, 0, 61, 47
1, 3021, Note_on_c, 0, 66, 48
1, 3023, Note_on_c, 0, 70, 48
1, 3060, Note_on_c, 0, 61, 0
1, 3061, Note_on_c, 0, 70, 0
1, 3061, Note_on_c, 0, 73, 0
1, 3063, Note_on_c, 0, 66, 0
1, 3155, Note_on_c, 0, 73, 59
1, 3156, Note_on_c, 0, 63, 62
1, 3156, Note_on_c, 0, 70, 59
1, 3157, Note_on_c, 0, 66, 52
1, 3158, Control_c, 0, 64, 104
1, 3162, Control_c, 0, 64, 56
1, 3165, Control_c, 0, 64, 0
1, 3185, Control_c, 0, 64, 24
1, 3186, Control_c, 0, 64, 56
1, 3188, Control_c, 0, 64, 104
1, 3191, Control_c, 0, 64, 127
1, 3203, Note_on_c, 0, 63, 0
1, 3207, Note_on_c, 0, 73, 0
1, 3208, Note_on_c, 0, 70, 0
1, 3212, Note_on_c, 0, 66, 0
1, 3281, Note_on_c, 0, 70, 51
1, 3281, Note_on_c, 0, 73, 66
1, 3283, Note_on_c, 0, 65, 60
1, 3286, Control_c, 0, 64, 104
1, 3288, Control_c, 0, 64, 40
1, 3291, Control_c, 0, 64, 0
1, 3311, Control_c, 0, 64, 40
1, 3313, Control_c, 0, 64, 88
1, 3317, Control_c, 0, 64, 127
1, 3323, Note_on_c, 0, 54, 0
1, 3328, Note_on_c, 0, 65, 0
1, 3332, Note_on_c, 0, 73, 0
1, 3333, Note_on_c, 0, 70, 0
1, 3441, Note_on_c, 0, 73, 66
1, 3441, Note_on_c, 0, 61, 79
1, 3441, Note_on_c, 0, 70, 57
1, 3443, Note_on_c, 0, 65, 57
1, 3451, Control_c, 0, 64, 104
1, 3453, Control_c, 0, 64, 40
1, 3456, Control_c, 0, 64, 0
1, 3513, Control_c, 0, 64, 24
1, 3515, Control_c, 0, 64, 56
1, 3520, Control_c, 0, 64, 104
1, 3522, Control_c, 0, 64, 127
1, 3546, Note_on_c, 0, 65, 0
1, 3546, Note_on_c, 0, 70, 0
1, 3548, Note_on_c, 0, 73, 0
1, 3612, Note_on_c, 0, 73, 57
1, 3612, Note_on_c, 0, 66, 49
1, 3613, Note_on_c, 0, 70, 57
1, 3620, Control_c, 0, 64, 72
1, 3621, Control_c, 0, 64, 0
1, 3651, Control_c, 0, 64, 24
1, 3656, Control_c, 0, 64, 56
1, 3656, Control_c, 0, 64, 104
1, 3661, Control_c, 0, 64, 127
1, 3683, Note_on_c, 0, 73, 0
1, 3690, Note_on_c, 0, 66, 0
1, 3691, Note_on_c, 0, 70, 0
1, 3692, Note_on_c, 0, 61, 0
1, 3805, Note_on_c, 0, 58, 74
1, 3826, Control_c, 0, 64, 88
1, 3828, Control_c, 0, 64, 40
1, 3831, Control_c, 0, 64, 0
1, 3941, Control_c, 0, 64, 24
1, 3945, Control_c, 0, 64, 40
1, 3948, Control_c, 0, 64, 72
1, 3950, Control_c, 0, 64, 88
1, 3951, Control_c, 0, 64, 104
1, 3955, Control_c, 0, 64, 127
1, 3961, Note_on_c, 0, 73, 51
1, 3962, Note_on_c, 0, 61, 44
1, 3965, Note_on_c, 0, 70, 45
1, 3965, Note_on_c, 0, 65, 45
1, 3990, Note_on_c, 0, 65, 0
1, 3993, Note_on_c, 0, 61, 0
1, 3993, Note_on_c, 0, 73, 0
1, 3998, Note_on_c, 0, 70, 0
1, 4080, Note_on_c, 0, 61, 58
1, 4080, Note_on_c, 0, 73, 51
1, 4083, Note_on_c, 0, 65, 52
1, 4083, Note_on_c, 0, 70, 54
1, 4101, Note_on_c, 0, 65, 0
1, 4101, Note_on_c, 0, 61, 0
1, 4106, Note_on_c, 0, 73, 0
1, 4108, Note_on_c, 0, 70, 0
1, 4211, Note_on_c, 0, 66, 52
1, 4213, Note_on_c, 0, 73, 53
1, 4213, Note_on_c, 0, 63, 59
1, 4215, Note_on_c, 0, 70, 50
1, 4241, Note_on_c, 0, 63, 0
1, 4241, Note_on_c, 0, 66, 0
1, 4242, Note_on_c, 0, 58, 0
1, 4245, Note_on_c, 0, 73, 0
1, 4246, Note_on_c, 0, 70, 0
1, 4252, Control_c, 0, 67, 104
1, 4263, Control_c, 0, 67, 88
1, 4268, Control_c, 0, 67, 72
1, 4271, Control_c, 0, 67, 56
1, 4276, Control_c, 0, 67, 40
1, 4291, Control_c, 0, 67, 24
1, 4296, Control_c, 0, 67, 0
1, 4383, Note_on_c, 0, 61, 79
1, 4390, Note_on_c, 0, 73, 58
1, 4391, Note_on_c, 0, 65, 51
1, 4391, Note_on_c, 0, 70, 50
1, 4398, Control_c, 0, 64, 88
1, 4401, Control_c, 0, 64, 24
1, 4403, Control_c, 0, 64, 0
1, 4471, Control_c, 0, 64, 40
1, 4475, Control_c, 0, 64, 72
1, 4476, Control_c, 0, 64, 104
1, 4480, Control_c, 0, 64, 127
1, 4496, Note_on_c, 0, 65, 0
1, 4501, Note_on_c, 0, 73, 0
1, 4505, Note_on_c, 0, 70, 0
1, 4587, Note_on_c, 0, 73, 45
1, 4587, Note_on_c, 0, 70, 44
1, 4588, Note_on_c, 0, 65, 37
1, 4661, Note_on_c, 0, 53, 70
1, 4666, Note_on_c, 0, 61, 0
1, 4670, Note_on_c, 0, 65, 0
1, 4677, Note_on_c, 0, 53, 0
1, 4678, Note_on_c, 0, 70, 0
1, 4678, Note_on_c, 0, 73, 0
1, 4766, Note_on_c, 0, 51, 80
1, 4776, Control_c, 0, 64, 104
1, 4780, Control_c, 0, 64, 40
1, 4781, Control_c, 0, 64, 0
1, 4830, Control_c, 0, 64, 24
1, 4833, Control_c, 0, 64, 56
1, 4835, Control_c, 0, 64, 104
1, 4838, Control_c, 0, 64, 127
1, 4956, Note_on_c, 0, 61, 50
1, 4956, Note_on_c, 0, 73, 53
1, 4958, Note_on_c, 0, 70, 52
1, 4961, Note_on_c, 0, 66, 47
1, 4970, Note_on_c, 0, 66, 0
1, 4975, Note_on_c, 0, 73, 0
1, 4977, Note_on_c, 0, 61, 0
1, 4982, Note_on_c, 0, 70, 0
1, 5095, Note_on_c, 0, 73, 61
1, 5095, Note_on_c, 0, 61, 50
1, 5098, Note_on_c, 0, 66, 47
1, 5098, Note_on_c, 0, 70, 48
1, 5105, Note_on_c, 0, 66, 0
1, 5108, Note_on_c, 0, 70, 0
1, 5108, Control_c, 0, 67, 40
1, 5110, Note_on_c, 0, 61, 0
1, 5113, Note_on_c, 0, 73, 0
1, 5115, Control_c, 0, 67, 56
1, 5123, Control_c, 0, 67, 72
1, 5128, Control_c, 0, 67, 88
1, 5138, Note_on_c, 0, 51, 0
1, 5138, Control_c, 0, 67, 104
1, 5155, Control_c, 0, 67, 127
1, 5233, Note_on_c, 0, 53, 78
1, 5235, Note_on_c, 0, 71, 70
1, 5235, Note_on_c, 0, 61, 54
1, 5235, Note_on_c, 0, 68, 62
1, 5238, Control_c, 0, 64, 88
1, 5242, Control_c, 0, 64, 0
1, 5275, Control_c, 0, 64, 24
1, 5277, Control_c, 0, 64, 56
1, 5280, Control_c, 0, 64, 104
1, 5282, Control_c, 0, 64, 127
1, 5293, Note_on_c, 0, 71, 0
1, 5295, Note_on_c, 0, 61, 0
1, 5298, Note_on_c, 0, 68, 0
1, 5368, Note_on_c, 0, 53, 0
1, 5387, Note_on_c, 0, 54, 74
1, 5388, Note_on_c, 0, 70, 71
1, 5393, Note_on_c, 0, 61, 52
1, 5393, Note_on_c, 0, 66, 58
1, 5395, Control_c, 0, 64, 104
1, 5398, Control_c, 0, 64, 56
1, 5403, Control_c, 0, 64, 0
1, 5453, Control_c, 0, 64, 24
1, 5457, Control_c, 0, 64, 72
1, 5460, Control_c, 0, 64, 104
1, 5462, Control_c, 0, 64, 127
1, 5475, Note_on_c, 0, 61, 0
1, 5503, Note_on_c, 0, 66, 0
1, 5550, Note_on_c, 0, 63, 63
1, 5555, Note_on_c, 0, 60, 46
1, 5558, Control_c, 0, 64, 104
1, 5562, Control_c, 0, 64, 72
1, 5563, Control_c, 0, 64, 24
1, 5567, Control_c, 0, 64, 0
1, 5590, Control_c, 0, 64, 24
1, 5593, Control_c, 0, 64, 56
1, 5595, Control_c, 0, 64, 104
1, 5598, Control_c, 0, 64, 127
1, 5628, Note_on_c, 0, 56, 71
1, 5637, Note_on_c, 0, 54, 0
1, 5658, Note_on_c, 0, 56, 0
1, 5673, Note_on_c, 0, 60, 0
1, 5678, Note_on_c, 0, 63, 0
1, 5737, Note_on_c, 0, 70, 0
1, 5737, Note_on_c, 0, 56, 74
1, 5740, Note_on_c, 0, 49, 70
1, 5747, Control_c, 0, 64, 88
1, 5750, Control_c, 0, 64, 24
1, 5753, Control_c, 0, 64, 0
1, 5888, Note_on_c, 0, 61, 54
1, 5891, Note_on_c, 0, 68, 61
1, 5892, Note_on_c, 0, 65, 56
1, 5898, Control_c, 0, 64, 24
1, 5902, Control_c, 0, 64, 56
1, 5906, Control_c, 0, 64, 72
1, 5908, Control_c, 0, 64, 104
1, 5912, Control_c, 0, 64, 127
1, 5935, Note_on_c, 0, 61, 0
1, 5937, Note_on_c, 0, 65, 0
1, 5945, Note_on_c, 0, 68, 0
1, 6035, Control_c, 0, 64, 104
1, 6036, Note_on_c, 0, 66, 56
1, 6037, Note_on_c, 0, 68, 61
1, 6038, Note_on_c, 0, 63, 52
1, 6041, Control_c, 0, 64, 0
1, 6063, Control_c, 0, 64, 24
1, 6067, Control_c, 0, 64, 56
1, 6068, Control_c, 0, 64, 104
1, 6072, Control_c, 0, 64, 127
1, 6083, Note_on_c, 0, 63, 0
1, 6085, Note_on_c, 0, 66, 0
1, 6092, Note_on_c, 0, 68, 0
1, 6198, Note_on_c, 0, 73, 56
1, 6198, Note_on_c, 0, 68, 53
1, 6201, Note_on_c, 0, 65, 47
1, 6205, Control_c, 0, 64, 88
1, 6207, Control_c, 0, 64, 24
1, 6208, Control_c, 0, 64, 0
1, 6236, Control_c, 0, 64, 24
1, 6237, Control_c, 0, 64, 56
1, 6241, Control_c, 0, 64, 104
1, 6243, Control_c, 0, 64, 127
1, 6256, Note_on_c, 0, 65, 0
1, 6256, Note_on_c, 0, 49, 0
1, 6262, Note_on_c, 0, 56, 0
1, 6263, Note_on_c, 0, 73, 0
1, 6263, Note_on_c, 0, 68, 0
1, 6392, Note_on_c, 0, 61, 74
1, 6397, Note_on_c, 0, 73, 57
1, 6397, Control_c, 0, 64, 104
1, 6398, Note_on_c, 0, 66, 48
1, 6400, Note_on_c, 0, 70, 53
1, 6402, Control_c, 0, 64, 24
1, 6403, Control_c, 0, 64, 0
1, 6486, Control_c, 0, 64, 24
1, 6487, Control_c, 0, 64, 72
1, 6491, Control_c, 0, 64, 127
1, 6492, Note_on_c, 0, 66, 0
1, 6497, Note_on_c, 0, 73, 0
1, 6501, Note_on_c, 0, 70, 0
1, 6588, Note_on_c, 0, 68, 47
1, 6591, Note_on_c, 0, 71, 53
1, 6591, Note_on_c, 0, 73, 48
1, 6596, Control_c, 0, 64, 104
1, 6598, Control_c, 0, 64, 56
1, 6601, Control_c, 0, 64, 0
1, 6618, Control_c, 0, 64, 24
1, 6622, Control_c, 0, 64, 40
1, 6626, Control_c, 0, 64, 72
1, 6627, Control_c, 0, 64, 104
1, 6631, Control_c, 0, 64, 127
1, 6652, Note_on_c, 0, 68, 0
1, 6656, Note_on_c, 0, 73, 0
1, 6656, Note_on_c, 0, 71, 0
1, 6666, Note_on_c, 0, 61, 0
1, 6832, Note_on_c, 0, 54, 63
1, 6851, Control_c, 0, 64, 88
1, 6856, Control_c, 0, 64, 56
1, 6856, Control_c, 0, 64, 0
1, 6921, Control_c, 0, 64, 24
1, 6922, Control_c, 0, 64, 72
1, 6926, Control_c, 0, 64, 104
1, 6927, Control_c, 0, 64, 127
1, 7031, Note_on_c, 0, 73, 54
1, 7032, Note_on_c, 0, 61, 50
1, 7035, Note_on_c, 0, 66, 51
1, 7036, Note_on_c, 0, 70, 52
1, 7068, Note_on_c, 0, 61, 0
1, 7077, Note_on_c, 0, 70, 0
1, 7078, Note_on_c, 0, 66, 0
1, 7078, Note_on_c, 0, 73, 0
1, 7172, Note_on_c, 0, 73, 58
1, 7176, Note_on_c, 0, 63, 56
1, 7176, Note_on_c, 0, 66, 52
1, 7177, Note_on_c, 0, 70, 56
1, 7227, Note_on_c, 0, 63, 0
1, 7228, Note_on_c, 0, 73, 0
1, 7232, Note_on_c, 0, 66, 0
1, 7233, Note_on_c, 0, 70, 0
1, 7315, Note_on_c, 0, 73, 63
1, 7318, Note_on_c, 0, 65, 53
1, 7318, Note_on_c, 0, 70, 57
1, 7322, Control_c, 0, 64, 0
1, 7361, Control_c, 0, 64, 127
1, 7488, Note_on_c, 0, 61, 88
1, 7498, Control_c, 0, 64, 104
1, 7501, Control_c, 0, 64, 56
1, 7505, Control_c, 0, 64, 0
1, 7510, Note_on_c, 0, 54, 0
1, 7555, Note_on_c, 0, 73, 0
1, 7560, Note_on_c, 0, 70, 0
1, 7560, Note_on_c, 0, 65, 0
1, 7672, Note_on_c, 0, 73, 56
1, 7673, Note_on_c, 0, 70, 51
1, 7673, Note_on_c, 0, 66, 48
1, 7691, Control_c, 0, 64, 24
1, 7696, Control_c, 0, 64, 56
1, 7698, Control_c, 0, 64, 88
1, 7701, Control_c, 0, 64, 127
1, 7742, Note_on_c, 0, 66, 0
1, 7743, Note_on_c, 0, 73, 0
1, 7745, Note_on_c, 0, 70, 0
1, 7746, Note_on_c, 0, 61, 0
1, 7816, Note_on_c, 0, 58, 80
1, 7831, Control_c, 0, 64, 88
1, 7835, Control_c, 0, 64, 24
1, 7836, Control_c, 0, 64, 0
1, 7860, Control_c, 0, 67, 104
1, 7860, Control_c, 0, 64, 24
1, 7862, Control_c, 0, 64, 72
1, 7865, Control_c, 0, 67, 88
1, 7865, Control_c, 0, 64, 104
1, 7867, Control_c, 0, 64, 127
1, 7870, Control_c, 0, 67, 72
1, 7880, Control_c, 0, 67, 56
1, 7883, Control_c, 0, 67, 40
1, 7906, Control_c, 0, 67, 24
1, 7918, Control_c, 0, 67, 0
1, 7986, Note_on_c, 0, 73, 49
1, 7986, Note_on_c, 0, 61, 49
1, 7988, Note_on_c, 0, 65, 51
1, 7991, Note_on_c, 0, 70, 47
1, 8000, Note_on_c, 0, 65, 0
1, 8013, Note_on_c, 0, 61, 0
1, 8020, Note_on_c, 0, 70, 0
1, 8022, Note_on_c, 0, 73, 0
1, 8110, Note_on_c, 0, 61, 50
1, 8110, Note_on_c, 0, 73, 51
1, 8111, Note_on_c, 0, 65, 52
1, 8112, Note_on_c, 0, 70, 47
1, 8135, Note_on_c, 0, 65, 0
1, 8135, Note_on_c, 0, 61, 0
1, 8140, Note_on_c, 0, 73, 0
1, 8145, Note_on_c, 0, 70, 0
1, 8237, Note_on_c, 0, 73, 62
1, 8240, Note_on_c, 0, 66, 51
1, 8241, Note_on_c, 0, 63, 57
1, 8241, Note_on_c, 0, 70, 53
1, 8286, Note_on_c, 0, 63, 0
1, 8290, Note_on_c, 0, 73, 0
1, 8296, Note_on_c, 0, 70, 0
1, 8297, Note_on_c, 0, 66, 0
1, 8375, Note_on_c, 0, 65, 80
1, 8378, Note_on_c, 0, 58, 0
1, 8385, Control_c, 0, 64, 88
1, 8387, Control_c, 0, 64, 24
1, 8391, Control_c, 0, 64, 0
1, 8417, Control_c, 0, 64, 40
1, 8420, Control_c, 0, 64, 72
1, 8422, Control_c, 0, 64, 127
1, 8537, Note_on_c, 0, 61, 53
1, 8537, Note_on_c, 0, 73, 61
1, 8540, Note_on_c, 0, 70, 50
1, 8600, Note_on_c, 0, 61, 0
1, 8611, Note_on_c, 0, 56, 71
1, 8620, Note_on_c, 0, 73, 0
1, 8621, Note_on_c, 0, 65, 0
1, 8622, Note_on_c, 0, 70, 0
1, 8647, Note_on_c, 0, 56, 0
1, 8715, Note_on_c, 0, 55, 71
1, 8727, Control_c, 0, 64, 72
1, 8728, Control_c, 0, 64, 0
1, 8770, Control_c, 0, 64, 40
1, 8771, Control_c, 0, 64, 72
1, 8775, Control_c, 0, 64, 104
1, 8777, Control_c, 0, 64, 127
1, 8851, Note_on_c, 0, 63, 58
1, 8852, Note_on_c, 0, 75, 62
1, 8853, Note_on_c, 0, 70, 49
1, 8855, Note_on_c, 0, 73, 61
1, 8865, Note_on_c, 0, 70, 0
1, 8868, Note_on_c, 0, 63, 0
1, 8880, Note_on_c, 0, 73, 0
1, 8880, Note_on_c, 0, 75, 0
1, 8896, Note_on_c, 0, 55, 0
1, 8995, Note_on_c, 0, 56, 58
1, 8997, Note_on_c, 0, 75, 67
1, 9000, Control_c, 0, 64, 72
1, 9001, Note_on_c, 0, 63, 49
1, 9003, Control_c, 0, 64, 0
1, 9003, Note_on_c, 0, 73, 56
1, 9005, Note_on_c, 0, 68, 47
1, 9028, Control_c, 0, 64, 24
1, 9031, Control_c, 0, 64, 88
1, 9033, Control_c, 0, 64, 127
1, 9038, Control_c, 0, 67, 24
1, 9041, Control_c, 0, 67, 40
1, 9043, Note_on_c, 0, 63, 0
1, 9047, Control_c, 0, 67, 56
1, 9051, Note_on_c, 0, 68, 0
1, 9052, Note_on_c, 0, 75, 0
1, 9055, Note_on_c, 0, 73, 0
1, 9055, Control_c, 0, 67, 88
1, 9065, Control_c, 0, 67, 104
1, 9073, Control_c, 0, 67, 127
1, 9137, Note_on_c, 0, 73, 76
1, 9138, Note_on_c, 0, 68, 68
1, 9142, Control_c, 0, 64, 88
1, 9143, Note_on_c, 0, 65, 55
1, 9146, Control_c, 0, 64, 0
1, 9160, Control_c, 0, 64, 24
1, 9162, Control_c, 0, 64, 56
1, 9165, Control_c, 0, 64, 88
1, 9167, Control_c, 0, 64, 127
1, 9191, Note_on_c, 0, 65, 0
1, 9200, Note_on_c, 0, 68, 0
1, 9203, Note_on_c, 0, 73, 0
1, 9281, Note_on_c, 0, 73, 71
1, 9286, Note_on_c, 0, 68, 63
1, 9287, Note_on_c, 0, 66, 57
1, 9287, Control_c, 0, 64, 72
1, 9291, Control_c, 0, 64, 0
1, 9318, Control_c, 0, 64, 40
1, 9321, Control_c, 0, 64, 88
1, 9323, Control_c, 0, 64, 127
1, 9335, Note_on_c, 0, 68, 0
1, 9341, Note_on_c, 0, 66, 0
1, 9342, Note_on_c, 0, 73, 0
1, 9443, Note_on_c, 0, 68, 59
1, 9446, Note_on_c, 0, 72, 64
1, 9513, Note_on_c, 0, 68, 0
1, 9515, Note_on_c, 0, 56, 0
1, 9518, Note_on_c, 0, 61, 74
1, 9520, Note_on_c, 0, 72, 0
1, 9536, Note_on_c, 0, 61, 0
1, 9616, Note_on_c, 0, 61, 71
1, 9630, Control_c, 0, 64, 104
1, 9632, Control_c, 0, 64, 56
1, 9636, Control_c, 0, 64, 0
1, 9748, Control_c, 0, 64, 24
1, 9751, Control_c, 0, 64, 56
1, 9753, Control_c, 0, 64, 72
1, 9756, Control_c, 0, 64, 88
1, 9761, Control_c, 0, 64, 104
1, 9761, Control_c, 0, 64, 127
1, 9776, Note_on_c, 0, 73, 66
1, 9781, Note_on_c, 0, 70, 60
1, 9783, Note_on_c, 0, 66, 47
1, 9811, Note_on_c, 0, 73, 0
1, 9817, Note_on_c, 0, 70, 0
1, 9830, Note_on_c, 0, 66, 0
1, 9908, Note_on_c, 0, 73, 66
1, 9911, Control_c, 0, 64, 104
1, 9915, Note_on_c, 0, 68, 53
1, 9916, Note_on_c, 0, 65, 47
1, 9916, Control_c, 0, 64, 0
1, 9943, Control_c, 0, 64, 24
1, 9946, Control_c, 0, 64, 72
1, 9950, Control_c, 0, 64, 127
1, 9951, Note_on_c, 0, 65, 0
1, 9956, Note_on_c, 0, 68, 0
1, 9961, Note_on_c, 0, 73, 0
1, 10021, Note_on_c, 0, 61, 0
1, 10056, Note_on_c, 0, 68, 57
1, 10060, Note_on_c, 0, 63, 56
1, 10060, Note_on_c, 0, 66, 45
1, 10081, Note_on_c, 0, 63, 0
1, 10085, Note_on_c, 0, 66, 0
1, 10091, Note_on_c, 0, 68, 0
1, 10236, Note_on_c, 0, 61, 82
1, 10238, Note_on_c, 0, 68, 63
1, 10241, Note_on_c, 0, 65, 45
1, 10246, Control_c, 0, 64, 104
1, 10250, Control_c, 0, 64, 40
1, 10252, Control_c, 0, 64, 0
1, 10298, Control_c, 0, 64, 40
1, 10301, Control_c, 0, 64, 72
1, 10305, Control_c, 0, 64, 127
1, 10403, Note_on_c, 0, 73, 70
1, 10435, Note_on_c, 0, 61, 0
1, 10457, Note_on_c, 0, 68, 0
1, 10465, Note_on_c, 0, 65, 0
1, 10478, Note_on_c, 0, 73, 0
1, 10556, Note_on_c, 0, 59, 77
1, 10573, Control_c, 0, 64, 88
1, 10576, Control_c, 0, 64, 40
1, 10580, Control_c, 0, 64, 0
1, 10691, Control_c, 0, 64, 24
1, 10692, Control_c, 0, 64, 72
1, 10696, Control_c, 0, 64, 88
1, 10698, Control_c, 0, 64, 127
1, 10735, Note_on_c, 0, 61, 44
1, 10736, Note_on_c, 0, 65, 52
1, 10737, Note_on_c, 0, 68, 60
1, 10768, Note_on_c, 0, 68, 0
1, 10768, Note_on_c, 0, 65, 0
1, 10771, Note_on_c, 0, 61, 0
1, 10876, Note_on_c, 0, 68, 61
1, 10876, Note_on_c, 0, 61, 47
1, 10876, Note_on_c, 0, 65, 48
1, 10893, Note_on_c, 0, 65, 0
1, 10893, Note_on_c, 0, 61, 0
1, 10902, Note_on_c, 0, 68, 0
1, 10993, Note_on_c, 0, 68, 61
1, 10995, Note_on_c, 0, 66, 54
1, 10997, Note_on_c, 0, 63, 56
1, 11023, Note_on_c, 0, 63, 0
1, 11025, Note_on_c, 0, 68, 0
1, 11028, Note_on_c, 0, 66, 0
1, 11063, Control_c, 0, 67, 104
1, 11080, Control_c, 0, 67, 88
1, 11092, Control_c, 0, 67, 72
1, 11095, Control_c, 0, 67, 56
1, 11110, Control_c, 0, 67, 40
1, 11118, Control_c, 0, 67, 24
1, 11128, Control_c, 0, 67, 0
1, 11141, Note_on_c, 0, 59, 0
1, 11141, Note_on_c, 0, 61, 68
1, 11145, Note_on_c, 0, 73, 80
1, 11153, Control_c, 0, 64, 72
1, 11158, Control_c, 0, 64, 0
1, 11185, Control_c, 0, 64, 24
1, 11185, Control_c, 0, 64, 72
1, 11190, Control_c, 0, 64, 127
1, 11230, Note_on_c, 0, 61, 0
1, 11305, Note_on_c, 0, 68, 60
1, 11308, Note_on_c, 0, 65, 43
1, 11340, Note_on_c, 0, 73, 0
1, 11348, Note_on_c, 0, 68, 0
1, 11350, Note_on_c, 0, 37, 50
1, 11353, Note_on_c, 0, 65, 0
1, 11365, Note_on_c, 0, 37, 0
1, 11462, Note_on_c, 0, 71, 74
1, 11472, Note_on_c, 0, 56, 61
1, 11490, Note_on_c, 0, 56, 0
1, 11635, Note_on_c, 0, 61, 47
1, 11637, Note_on_c, 0, 68, 53
1, 11638, Note_on_c, 0, 64, 53
1, 11667, Note_on_c, 0, 61, 0
1, 11668, Note_on_c, 0, 64, 0
1, 11670, Note_on_c, 0, 68, 0
1, 11762, Note_on_c, 0, 61, 56
1, 11763, Note_on_c, 0, 68, 51
1, 11766, Note_on_c, 0, 64, 52
1, 11785, Note_on_c, 0, 64, 0
1, 11788, Note_on_c, 0, 61, 0
1, 11793, Note_on_c, 0, 68, 0
1, 11808, Note_on_c, 0, 71, 0
1, 11886, Note_on_c, 0, 63, 65
1, 11887, Note_on_c, 0, 68, 68
1, 11888, Note_on_c, 0, 66, 59
1, 11903, Note_on_c, 0, 63, 0
1, 11908, Note_on_c, 0, 66, 0
1, 11913, Note_on_c, 0, 68, 0
1, 12018, Note_on_c, 0, 61, 71
1, 12025, Note_on_c, 0, 73, 76
1, 12032, Control_c, 0, 64, 104
1, 12033, Control_c, 0, 64, 56
1, 12037, Control_c, 0, 64, 0
1, 12052, Control_c, 0, 64, 24
1, 12055, Control_c, 0, 64, 40
1, 12057, Control_c, 0, 64, 72
1, 12060, Control_c, 0, 64, 127
1, 12150, Note_on_c, 0, 68, 66
1, 12153, Note_on_c, 0, 56, 59
1, 12157, Note_on_c, 0, 64, 49
1, 12173, Note_on_c, 0, 73, 0
1, 12183, Note_on_c, 0, 64, 0
1, 12186, Note_on_c, 0, 68, 0
1, 12187, Note_on_c, 0, 61, 0
1, 12188, Note_on_c, 0, 56, 0
1, 12296, Note_on_c, 0, 70, 77
1, 12301, Note_on_c, 0, 55, 64
1, 12308, Control_c, 0, 64, 104
1, 12312, Control_c, 0, 64, 24
1, 12316, Control_c, 0, 64, 0
1, 12352, Control_c, 0, 64, 24
1, 12356, Control_c, 0, 64, 72
1, 12357, Control_c, 0, 64, 127
1, 12453, Note_on_c, 0, 61, 48
1, 12456, Note_on_c, 0, 64, 57
1, 12463, Note_on_c, 0, 64, 0
1, 12468, Note_on_c, 0, 61, 0
1, 12468, Note_on_c, 0, 70, 0
1, 12561, Note_on_c, 0, 55, 0
1, 12566, Note_on_c, 0, 76, 75
1, 12568, Note_on_c, 0, 56, 68
1, 12571, Control_c, 0, 64, 104
1, 12572, Control_c, 0, 64, 40
1, 12577, Control_c, 0, 64, 0
1, 12592, Control_c, 0, 64, 24
1, 12597, Control_c, 0, 64, 72
1, 12601, Control_c, 0, 64, 127
1, 12622, Note_on_c, 0, 76, 0
1, 12712, Note_on_c, 0, 68, 59
1, 12712, Note_on_c, 0, 61, 50
1, 12716, Note_on_c, 0, 64, 49
1, 12741, Note_on_c, 0, 61, 0
1, 12742, Note_on_c, 0, 64, 0
1, 12751, Note_on_c, 0, 68, 0
1, 12833, Note_on_c, 0, 56, 0
1, 12837, Note_on_c, 0, 67, 63
1, 12842, Note_on_c, 0, 51, 57
1, 12846, Note_on_c, 0, 58, 53
1, 12856, Control_c, 0, 64, 72
1, 12861, Control_c, 0, 64, 24
1, 12862, Control_c, 0, 64, 0
1, 12887, Control_c, 0, 64, 24
1, 12887, Control_c, 0, 64, 72
1, 12892, Control_c, 0, 64, 104
1, 12896, Control_c, 0, 64, 127
1, 12966, Note_on_c, 0, 58, 0
1, 12977, Note_on_c, 0, 63, 61
1, 12977, Note_on_c, 0, 61, 43
1, 13006, Note_on_c, 0, 61, 0
1, 13008, Note_on_c, 0, 63, 0
1, 13122, Note_on_c, 0, 63, 49
1, 13130, Note_on_c, 0, 44, 57
1, 13131, Note_on_c, 0, 58, 63
1, 13131, Note_on_c, 0, 59, 43
1, 13141, Control_c, 0, 64, 104
1, 13142, Control_c, 0, 64, 40
1, 13145, Control_c, 0, 64, 0
1, 13171, Control_c, 0, 64, 24
1, 13173, Control_c, 0, 64, 72
1, 13176, Control_c, 0, 64, 127
1, 13202, Note_on_c, 0, 59, 0
1, 13211, Note_on_c, 0, 63, 0
1, 13220, Note_on_c, 0, 58, 0
1, 13276, Note_on_c, 0, 63, 58
1, 13281, Note_on_c, 0, 59, 35
1, 13302, Note_on_c, 0, 59, 0
1, 13306, Note_on_c, 0, 67, 0
1, 13310, Note_on_c, 0, 63, 0
1, 13406, Note_on_c, 0, 68, 66
1, 13410, Note_on_c, 0, 59, 61
1, 13421, Control_c, 0, 64, 104
1, 13423, Control_c, 0, 64, 56
1, 13427, Control_c, 0, 64, 0
1, 13456, Control_c, 0, 64, 24
1, 13461, Control_c, 0, 64, 72
1, 13463, Control_c, 0, 64, 127
1, 13490, Note_on_c, 0, 51, 0
1, 13536, Note_on_c, 0, 59, 0
1, 13561, Note_on_c, 0, 56, 44
1, 13565, Note_on_c, 0, 63, 48
1, 13596, Note_on_c, 0, 56, 0
1, 13602, Note_on_c, 0, 63, 0
1, 13648, Note_on_c, 0, 44, 0
1, 13706, Note_on_c, 0, 59, 76
1, 13716, Control_c, 0, 64, 104
1, 13720, Control_c, 0, 64, 40
1, 13721, Control_c, 0, 64, 0
1, 13733, Control_c, 0, 64, 24
1, 13736, Control_c, 0, 64, 40
1, 13738, Control_c, 0, 64, 56
1, 13741, Control_c, 0, 64, 88
1, 13745, Control_c, 0, 64, 127
1, 13810, Note_on_c, 0, 59, 0
1, 13843, Note_on_c, 0, 56, 58
1, 13846, Note_on_c, 0, 63, 61
1, 13876, Note_on_c, 0, 56, 0
1, 13877, Note_on_c, 0, 63, 0
1, 13901, Note_on_c, 0, 68, 0
1, 13967, Note_on_c, 0, 58, 79
1, 13991, Control_c, 0, 64, 104
1, 13992, Control_c, 0, 64, 72
1, 13996, Control_c, 0, 64, 24
1, 14000, Control_c, 0, 64, 0
1, 14106, Note_on_c, 0, 66, 53
1, 14106, Note_on_c, 0, 63, 53
1, 14106, Note_on_c, 0, 59, 47
1, 14160, Note_on_c, 0, 63, 0
1, 14160, Note_on_c, 0, 66, 0
1, 14161, Note_on_c, 0, 59, 0
1, 14161, Control_c, 0, 64, 40
1, 14165, Control_c, 0, 64, 88
1, 14165, Control_c, 0, 64, 127
1, 14235, Note_on_c, 0, 66, 60
1, 14237, Note_on_c, 0, 63, 60
1, 14237, Note_on_c, 0, 59, 54
1, 14256, Note_on_c, 0, 63, 0
1, 14256, Note_on_c, 0, 66, 0
1, 14257, Note_on_c, 0, 59, 0
1, 14362, Note_on_c, 0, 66, 54
1, 14366, Note_on_c, 0, 61, 60
1, 14367, Note_on_c, 0, 64, 63
1, 14390, Note_on_c, 0, 61, 0
1, 14395, Note_on_c, 0, 64, 0
1, 14405, Note_on_c, 0, 66, 0
1, 14482, Note_on_c, 0, 59, 70
1, 14495, Note_on_c, 0, 58, 0
1, 14510, Control_c, 0, 64, 88
1, 14511, Control_c, 0, 64, 40
1, 14515, Note_on_c, 0, 71, 73
1, 14515, Control_c, 0, 64, 0
1, 14532, Control_c, 0, 64, 24
1, 14535, Control_c, 0, 64, 56
1, 14537, Control_c, 0, 64, 88
1, 14542, Control_c, 0, 64, 127
1, 14571, Note_on_c, 0, 59, 0
1, 14652, Note_on_c, 0, 66, 57
1, 14652, Note_on_c, 0, 63, 56
1, 14690, Note_on_c, 0, 71, 0
1, 14697, Note_on_c, 0, 63, 0
1, 14707, Note_on_c, 0, 66, 0
1, 14715, Note_on_c, 0, 35, 48
1, 14732, Note_on_c, 0, 35, 0
1, 14795, Note_on_c, 0, 54, 80
1, 14797, Note_on_c, 0, 70, 76
1, 14915, Control_c, 0, 67, 24
1, 14920, Control_c, 0, 67, 40
1, 14928, Control_c, 0, 67, 56
1, 14932, Control_c, 0, 67, 72
1, 14937, Control_c, 0, 67, 88
1, 14942, Note_on_c, 0, 59, 51
1, 14942, Note_on_c, 0, 66, 57
1, 14943, Note_on_c, 0, 62, 52
1, 14946, Control_c, 0, 67, 104
1, 14952, Control_c, 0, 67, 127
1, 14962, Note_on_c, 0, 59, 0
1, 14966, Note_on_c, 0, 62, 0
1, 14977, Note_on_c, 0, 66, 0
1, 15068, Note_on_c, 0, 59, 59
1, 15071, Note_on_c, 0, 66, 59
1, 15071, Note_on_c, 0, 62, 53
1, 15081, Note_on_c, 0, 62, 0
1, 15087, Note_on_c, 0, 59, 0
1, 15100, Note_on_c, 0, 66, 0
1, 15107, Note_on_c, 0, 70, 0
1, 15203, Note_on_c, 0, 61, 62
1, 15206, Note_on_c, 0, 66, 62
1, 15207, Note_on_c, 0, 64, 60
1, 15211, Note_on_c, 0, 54, 0
1, 15226, Note_on_c, 0, 64, 0
1, 15233, Note_on_c, 0, 61, 0
1, 15238, Note_on_c, 0, 66, 0
1, 15342, Note_on_c, 0, 71, 72
1, 15343, Note_on_c, 0, 59, 70
1, 15348, Control_c, 0, 64, 72
1, 15352, Control_c, 0, 64, 24
1, 15353, Control_c, 0, 64, 0
1, 15377, Control_c, 0, 64, 24
1, 15378, Control_c, 0, 64, 56
1, 15382, Control_c, 0, 64, 104
1, 15385, Control_c, 0, 64, 127
1, 15481, Note_on_c, 0, 66, 52
1, 15482, Note_on_c, 0, 54, 50
1, 15482, Note_on_c, 0, 62, 61
1, 15490, Note_on_c, 0, 71, 0
1, 15493, Note_on_c, 0, 59, 0
1, 15503, Note_on_c, 0, 66, 0
1, 15506, Note_on_c, 0, 62, 0
1, 15516, Note_on_c, 0, 54, 0
1, 15623, Note_on_c, 0, 53, 62
1, 15626, Note_on_c, 0, 68, 69
1, 15631, Control_c, 0, 64, 104
1, 15633, Control_c, 0, 64, 56
1, 15637, Control_c, 0, 64, 0
1, 15666, Control_c, 0, 64, 24
1, 15671, Control_c, 0, 64, 72
1, 15671, Control_c, 0, 64, 104
1, 15676, Control_c, 0, 64, 127
1, 15768, Note_on_c, 0, 62, 54
1, 15771, Note_on_c, 0, 59, 50
1, 15791, Note_on_c, 0, 68, 0
1, 15793, Note_on_c, 0, 59, 0
1, 15795, Note_on_c, 0, 62, 0
1, 15910, Note_on_c, 0, 74, 66
1, 15913, Note_on_c, 0, 53, 0
1, 15913, Note_on_c, 0, 54, 67
1, 15917, Control_c, 0, 64, 104
1, 15921, Control_c, 0, 64, 56
1, 15926, Control_c, 0, 64, 0
1, 15940, Control_c, 0, 64, 24
1, 15945, Control_c, 0, 64, 56
1, 15946, Control_c, 0, 64, 88
1, 15950, Control_c, 0, 64, 127
1, 15973, Note_on_c, 0, 74, 0
1, 16061, Note_on_c, 0, 66, 60
1, 16061, Note_on_c, 0, 62, 42
1, 16066, Note_on_c, 0, 59, 42
1, 16088, Note_on_c, 0, 59, 0
1, 16091, Note_on_c, 0, 62, 0
1, 16093, Note_on_c, 0, 54, 0
1, 16102, Note_on_c, 0, 66, 0
1, 16210, Note_on_c, 0, 65, 61
1, 16212, Note_on_c, 0, 56, 52
1, 16221, Note_on_c, 0, 49, 45
1, 16228, Control_c, 0, 64, 88
1, 16231, Control_c, 0, 64, 24
1, 16235, Control_c, 0, 64, 0
1, 16260, Control_c, 0, 64, 24
1, 16263, Control_c, 0, 64, 56
1, 16266, Control_c, 0, 64, 104
1, 16270, Control_c, 0, 64, 127
1, 16367, Note_on_c, 0, 56, 0
1, 16371, Note_on_c, 0, 61, 53
1, 16371, Note_on_c, 0, 59, 46
1, 16387, Control_c, 0, 67, 127
1, 16431, Note_on_c, 0, 61, 0
1, 16433, Note_on_c, 0, 59, 0
1, 16540, Note_on_c, 0, 61, 47
1, 16543, Note_on_c, 0, 58, 44
1, 16545, Note_on_c, 0, 42, 50
1, 16545, Note_on_c, 0, 56, 65
1, 16555, Control_c, 0, 64, 104
1, 16558, Control_c, 0, 64, 56
1, 16561, Control_c, 0, 64, 0
1, 16588, Control_c, 0, 64, 40
1, 16591, Control_c, 0, 64, 72
1, 16593, Control_c, 0, 64, 127
1, 16615, Note_on_c, 0, 61, 0
1, 16616, Note_on_c, 0, 58, 0
1, 16701, Note_on_c, 0, 56, 0
1, 16707, Note_on_c, 0, 61, 51
1, 16708, Note_on_c, 0, 58, 44
1, 16730, Note_on_c, 0, 58, 0
1, 16731, Note_on_c, 0, 65, 0
1, 16738, Note_on_c, 0, 61, 0
1, 16856, Note_on_c, 0, 58, 61
1, 16860, Note_on_c, 0, 66, 56
1, 16866, Control_c, 0, 64, 104
1, 16870, Control_c, 0, 64, 56
1, 16873, Control_c, 0, 64, 0
1, 16898, Control_c, 0, 64, 24
1, 16901, Control_c, 0, 64, 56
1, 16905, Note_on_c, 0, 49, 0
1, 16905, Control_c, 0, 64, 104
1, 16907, Control_c, 0, 64, 127
1, 16922, Note_on_c, 0, 58, 0
1, 17015, Note_on_c, 0, 54, 44
1, 17018, Note_on_c, 0, 61, 43
1, 17058, Note_on_c, 0, 54, 0
1, 17095, Note_on_c, 0, 61, 0
1, 17198, Note_on_c, 0, 66, 0
1, 17198, Note_on_c, 0, 54, 62
1, 17208, Note_on_c, 0, 42, 0
1, 17210, Control_c, 0, 64, 104
1, 17213, Control_c, 0, 64, 56
1, 17215, Control_c, 0, 64, 0
1, 17238, Control_c, 0, 64, 24
1, 17243, Control_c, 0, 64, 88
1, 17245, Control_c, 0, 64, 127
1, 17353, Note_on_c, 0, 61, 51
1, 17353, Note_on_c, 0, 58, 45
1, 17377, Note_on_c, 0, 54, 0
1, 17390, Note_on_c, 0, 61, 0
1, 17397, Note_on_c, 0, 58, 0
1, 17523, Note_on_c, 0, 46, 65
1, 17548, Control_c, 0, 64, 104
1, 17551, Control_c, 0, 64, 56
1, 17553, Control_c, 0, 64, 0
1, 17623, Control_c, 0, 64, 40
1, 17625, Control_c, 0, 64, 56
1, 17628, Control_c, 0, 64, 88
1, 17631, Control_c, 0, 64, 104
1, 17633, Control_c, 0, 64, 127
1, 17672, Note_on_c, 0, 61, 50
1, 17677, Note_on_c, 0, 54, 43
1, 17778, Note_on_c, 0, 61, 0
1, 17785, Note_on_c, 0, 54, 0
1, 17993, Note_on_c, 0, 62, 57
1, 17996, Note_on_c, 0, 56, 51
1, 17998, Note_on_c, 0, 53, 45
1, 18002, Control_c, 0, 64, 104
1, 18005, Control_c, 0, 64, 56
1, 18008, Control_c, 0, 64, 0
1, 18030, Control_c, 0, 64, 24
1, 18032, Control_c, 0, 64, 72
1, 18033, Control_c, 0, 64, 127
1, 18047, Note_on_c, 0, 53, 0
1, 18050, Note_on_c, 0, 46, 0
1, 18052, Note_on_c, 0, 56, 0
1, 18052, Note_on_c, 0, 62, 0
1, 18150, Note_on_c, 0, 54, 77
1, 18162, Control_c, 0, 64, 104
1, 18163, Control_c, 0, 64, 40
1, 18166, Control_c, 0, 64, 0
1, 18225, Control_c, 0, 64, 24
1, 18227, Control_c, 0, 64, 56
1, 18230, Control_c, 0, 64, 104
1, 18232, Control_c, 0, 64, 127
1, 18295, Note_on_c, 0, 54, 0
1, 18295, Note_on_c, 0, 63, 61
1, 18298, Note_on_c, 0, 58, 51
1, 18337, Note_on_c, 0, 58, 0
1, 18342, Note_on_c, 0, 63, 0
1, 18442, Note_on_c, 0, 47, 76
1, 18458, Control_c, 0, 64, 104
1, 18461, Control_c, 0, 64, 56
1, 18465, Control_c, 0, 64, 0
1, 18543, Control_c, 0, 64, 24
1, 18547, Control_c, 0, 64, 56
1, 18548, Control_c, 0, 64, 88
1, 18552, Control_c, 0, 64, 127
1, 18602, Note_on_c, 0, 54, 53
1, 18603, Note_on_c, 0, 66, 65
1, 18607, Note_on_c, 0, 62, 59
1, 18663, Note_on_c, 0, 66, 0
1, 18663, Note_on_c, 0, 54, 0
1, 18667, Note_on_c, 0, 62, 0
1, 18683, Note_on_c, 0, 47, 0
1, 18720, Note_on_c, 0, 48, 76
1, 18737, Control_c, 0, 64, 104
1, 18738, Control_c, 0, 64, 24
1, 18742, Control_c, 0, 64, 0
1, 18768, Control_c, 0, 64, 24
1, 18772, Control_c, 0, 64, 72
1, 18773, Control_c, 0, 64, 127
1, 18836, Control_c, 0, 67, 104
1, 18867, Control_c, 0, 67, 88
1, 18868, Note_on_c, 0, 63, 57
1, 18875, Note_on_c, 0, 56, 50
1, 18875, Note_on_c, 0, 54, 45
1, 18878, Control_c, 0, 67, 72
1, 18887, Note_on_c, 0, 48, 0
1, 18887, Control_c, 0, 67, 56
1, 18892, Note_on_c, 0, 56, 0
1, 18895, Control_c, 0, 67, 40
1, 18897, Note_on_c, 0, 54, 0
1, 18902, Control_c, 0, 67, 24
1, 18903, Note_on_c, 0, 63, 0
1, 18906, Control_c, 0, 67, 0
1, 19026, Note_on_c, 0, 58, 76
1, 19028, Control_c, 0, 64, 104
1, 19032, Control_c, 0, 64, 24
1, 19036, Control_c, 0, 64, 0
1, 19061, Control_c, 0, 64, 24
1, 19062, Control_c, 0, 64, 88
1, 19067, Control_c, 0, 64, 127
1, 19083, Note_on_c, 0, 58, 0
1, 19211, Note_on_c, 0, 54, 52
1, 19211, Note_on_c, 0, 51, 37
1, 19236, Note_on_c, 0, 51, 0
1, 19237, Note_on_c, 0, 54, 0
1, 19338, Note_on_c, 0, 49, 61
1, 19345, Control_c, 0, 64, 104
1, 19346, Control_c, 0, 64, 56
1, 19350, Control_c, 0, 64, 0
1, 19368, Control_c, 0, 64, 40
1, 19368, Control_c, 0, 64, 72
1, 19372, Control_c, 0, 64, 127
1, 19486, Note_on_c, 0, 63, 65
1, 19487, Note_on_c, 0, 58, 48
1, 19488, Note_on_c, 0, 54, 40
1, 19563, Note_on_c, 0, 58, 0
1, 19571, Note_on_c, 0, 54, 0
1, 19571, Note_on_c, 0, 63, 0
1, 19742, Note_on_c, 0, 65, 56
1, 19743, Note_on_c, 0, 58, 48
1, 19746, Note_on_c, 0, 53, 43
1, 19773, Note_on_c, 0, 53, 0
1, 19773, Note_on_c, 0, 49, 0
1, 19782, Note_on_c, 0, 58, 0
1, 19791, Note_on_c, 0, 65, 0
1, 19887, Note_on_c, 0, 58, 81
1, 19890, Control_c, 0, 64, 104
1, 19892, Control_c, 0, 64, 40
1, 19896, Control_c, 0, 64, 0
1, 19922, Control_c, 0, 64, 40
1, 19925, Control_c, 0, 64, 88
1, 19926, Control_c, 0, 64, 127
1, 20002, Note_on_c, 0, 58, 0
1, 20015, Note_on_c, 0, 61, 62
1, 20015, Note_on_c, 0, 66, 65
1, 20058, Note_on_c, 0, 61, 0
1, 20066, Note_on_c, 0, 66, 0
1, 20143, Note_on_c, 0, 50, 74
1, 20158, Control_c, 0, 64, 88
1, 20161, Control_c, 0, 64, 0
1, 20191, Control_c, 0, 64, 40
1, 20195, Control_c, 0, 64, 88
1, 20196, Control_c, 0, 64, 127
1, 20302, Note_on_c, 0, 70, 74
1, 20305, Note_on_c, 0, 58, 59
1, 20306, Note_on_c, 0, 66, 57
1, 20336, Note_on_c, 0, 50, 0
1, 20442, Note_on_c, 0, 51, 84
1, 20455, Control_c, 0, 64, 104
1, 20460, Control_c, 0, 64, 24
1, 20462, Control_c, 0, 64, 0
1, 20471, Note_on_c, 0, 58, 0
1, 20472, Note_on_c, 0, 70, 0
1, 20485, Note_on_c, 0, 66, 0
1, 20486, Control_c, 0, 64, 24
1, 20491, Control_c, 0, 64, 88
1, 20491, Control_c, 0, 64, 127
1, 20552, Note_on_c, 0, 51, 0
1, 20562, Note_on_c, 0, 66, 68
1, 20565, Note_on_c, 0, 58, 58
1, 20565, Note_on_c, 0, 63, 62
1, 20582, Note_on_c, 0, 63, 0
1, 20586, Note_on_c, 0, 58, 0
1, 20590, Note_on_c, 0, 66, 0
1, 20691, Note_on_c, 0, 61, 91
1, 20691, Control_c, 0, 64, 88
1, 20691, Control_c, 0, 64, 0
1, 20722, Control_c, 0, 64, 40
1, 20725, Control_c, 0, 64, 104
1, 20727, Control_c, 0, 64, 127
1, 20745, Note_on_c, 0, 61, 0
1, 20826, Note_on_c, 0, 54, 63
1, 20827, Note_on_c, 0, 58, 63
1, 20871, Note_on_c, 0, 54, 0
1, 20876, Note_on_c, 0, 58, 0
1, 20947, Note_on_c, 0, 52, 84
1, 20953, Control_c, 0, 64, 104
1, 20956, Control_c, 0, 64, 40
1, 20961, Control_c, 0, 64, 0
1, 20987, Control_c, 0, 64, 24
1, 20990, Control_c, 0, 64, 88
1, 20992, Control_c, 0, 64, 127
1, 21066, Note_on_c, 0, 73, 69
1, 21067, Note_on_c, 0, 61, 57
1, 21072, Note_on_c, 0, 69, 52
1, 21110, Note_on_c, 0, 52, 0
1, 21173, Note_on_c, 0, 53, 88
1, 21186, Control_c, 0, 64, 104
1, 21186, Control_c, 0, 64, 24
1, 21190, Control_c, 0, 64, 0
1, 21211, Control_c, 0, 64, 40
1, 21215, Note_on_c, 0, 61, 0
1, 21215, Control_c, 0, 64, 88
1, 21217, Note_on_c, 0, 69, 0
1, 21217, Control_c, 0, 64, 127
1, 21233, Note_on_c, 0, 73, 0
1, 21287, Note_on_c, 0, 53, 0
1, 21295, Note_on_c, 0, 61, 66
1, 21295, Note_on_c, 0, 70, 75
1, 21311, Note_on_c, 0, 61, 0
1, 21315, Note_on_c, 0, 70, 0
1, 21431, Note_on_c, 0, 61, 90
1, 21437, Control_c, 0, 64, 72
1, 21440, Control_c, 0, 64, 0
1, 21541, Control_c, 0, 64, 24
1, 21545, Control_c, 0, 64, 72
1, 21546, Control_c, 0, 64, 127
1, 21572, Note_on_c, 0, 58, 63
1, 21572, Note_on_c, 0, 65, 68
1, 21582, Note_on_c, 0, 61, 0
1, 21596, Note_on_c, 0, 58, 0
1, 21597, Note_on_c, 0, 65, 0
1, 21690, Note_on_c, 0, 53, 80
1, 21696, Control_c, 0, 64, 88
1, 21700, Control_c, 0, 64, 0
1, 21736, Control_c, 0, 64, 40
1, 21741, Control_c, 0, 64, 88
1, 21741, Control_c, 0, 64, 127
1, 21805, Note_on_c, 0, 74, 77
1, 21806, Note_on_c, 0, 62, 64
1, 21806, Note_on_c, 0, 70, 71
1, 21816, Note_on_c, 0, 53, 0
1, 21920, Note_on_c, 0, 74, 0
1, 21925, Note_on_c, 0, 54, 90
1, 21926, Note_on_c, 0, 70, 0
1, 21935, Note_on_c, 0, 62, 0
1, 21938, Control_c, 0, 64, 88
1, 21940, Control_c, 0, 64, 0
1, 22008, Control_c, 0, 64, 24
1, 22010, Control_c, 0, 64, 72
1, 22013, Control_c, 0, 64, 127
1, 22035, Note_on_c, 0, 54, 0
1, 22036, Note_on_c, 0, 71, 76
1, 22038, Note_on_c, 0, 62, 78
1, 22058, Note_on_c, 0, 62, 0
1, 22101, Note_on_c, 0, 71, 0
1, 22158, Note_on_c, 0, 62, 86
1, 22161, Control_c, 0, 64, 88
1, 22163, Control_c, 0, 64, 24
1, 22165, Control_c, 0, 64, 0
1, 22320, Note_on_c, 0, 66, 68
1, 22325, Note_on_c, 0, 59, 59
1, 22338, Control_c, 0, 64, 40
1, 22343, Control_c, 0, 64, 104
1, 22343, Control_c, 0, 64, 127
1, 22353, Note_on_c, 0, 59, 0
1, 22371, Note_on_c, 0, 66, 0
1, 22373, Note_on_c, 0, 62, 0
1, 22430, Note_on_c, 0, 54, 93
1, 22443, Control_c, 0, 64, 88
1, 22448, Control_c, 0, 64, 24
1, 22451, Control_c, 0, 64, 0
1, 22538, Control_c, 0, 64, 40
1, 22540, Control_c, 0, 64, 88
1, 22543, Note_on_c, 0, 75, 78
1, 22543, Control_c, 0, 64, 127
1, 22545, Note_on_c, 0, 63, 74
1, 22548, Note_on_c, 0, 71, 67
1, 22572, Note_on_c, 0, 71, 0
1, 22577, Note_on_c, 0, 75, 0
1, 22582, Note_on_c, 0, 63, 0
1, 22737, Note_on_c, 0, 71, 74
1, 22741, Note_on_c, 0, 63, 75
1, 22756, Note_on_c, 0, 54, 0
1, 22770, Note_on_c, 0, 63, 0
1, 22781, Note_on_c, 0, 71, 0
1, 22858, Note_on_c, 0, 63, 98
1, 22862, Control_c, 0, 64, 88
1, 22863, Control_c, 0, 64, 0
1, 22970, Control_c, 0, 64, 24
1, 22970, Control_c, 0, 64, 56
1, 22973, Control_c, 0, 64, 88
1, 22976, Control_c, 0, 64, 127
1, 22980, Note_on_c, 0, 66, 71
1, 22982, Note_on_c, 0, 59, 62
1, 22996, Note_on_c, 0, 59, 0
1, 23001, Note_on_c, 0, 63, 0
1, 23003, Note_on_c, 0, 66, 0
1, 23077, Note_on_c, 0, 55, 83
1, 23085, Control_c, 0, 64, 88
1, 23087, Control_c, 0, 64, 24
1, 23091, Control_c, 0, 64, 0
1, 23108, Control_c, 0, 64, 40
1, 23111, Control_c, 0, 64, 88
1, 23113, Control_c, 0, 64, 127
1, 23188, Note_on_c, 0, 75, 76
1, 23188, Note_on_c, 0, 63, 76
1, 23191, Note_on_c, 0, 71, 64
1, 23193, Note_on_c, 0, 55, 0
1, 23200, Note_on_c, 0, 71, 0
1, 23203, Note_on_c, 0, 71, 27
1, 23250, Note_on_c, 0, 71, 0
1, 23255, Note_on_c, 0, 75, 0
1, 23303, Note_on_c, 0, 56, 90
1, 23305, Note_on_c, 0, 63, 0
1, 23318, Control_c, 0, 64, 88
1, 23320, Control_c, 0, 64, 24
1, 23323, Control_c, 0, 64, 0
1, 23403, Control_c, 0, 64, 24
1, 23405, Control_c, 0, 64, 72
1, 23408, Control_c, 0, 64, 127
1, 23417, Note_on_c, 0, 71, 71
1, 23420, Note_on_c, 0, 63, 70
1, 23422, Note_on_c, 0, 59, 65
1, 23425, Note_on_c, 0, 56, 0
1, 23435, Note_on_c, 0, 59, 0
1, 23437, Note_on_c, 0, 63, 0
1, 23450, Note_on_c, 0, 71, 0
1, 23517, Note_on_c, 0, 64, 94
1, 23530, Note_on_c, 0, 64, 0
1, 23620, Note_on_c, 0, 68, 78
1, 23622, Note_on_c, 0, 59, 68
1, 23660, Note_on_c, 0, 59, 0
1, 23715, Note_on_c, 0, 68, 0
1, 23715, Note_on_c, 0, 56, 94
1, 23720, Control_c, 0, 64, 104
1, 23722, Control_c, 0, 64, 40
1, 23723, Control_c, 0, 64, 0
1, 23738, Control_c, 0, 64, 24
1, 23741, Control_c, 0, 64, 56
1, 23745, Control_c, 0, 64, 88
1, 23746, Control_c, 0, 64, 127
1, 23815, Note_on_c, 0, 75, 75
1, 23817, Note_on_c, 0, 63, 86
1, 23818, Note_on_c, 0, 71, 74
1, 23903, Note_on_c, 0, 65, 98
1, 23912, Note_on_c, 0, 63, 0
1, 23917, Note_on_c, 0, 71, 0
1, 23917, Note_on_c, 0, 65, 0
1, 23917, Note_on_c, 0, 75, 0
1, 23921, Note_on_c, 0, 56, 0
1, 24002, Note_on_c, 0, 71, 75
1, 24003, Note_on_c, 0, 63, 79
1, 24005, Note_on_c, 0, 59, 72
1, 24093, Note_on_c, 0, 59, 0
1, 24093, Note_on_c, 0, 57, 96
1, 24098, Control_c, 0, 64, 72
1, 24098, Control_c, 0, 64, 0
1, 24102, Note_on_c, 0, 63, 0
1, 24102, Note_on_c, 0, 71, 0
1, 24118, Control_c, 0, 64, 24
1, 24121, Control_c, 0, 64, 72
1, 24122, Control_c, 0, 64, 127
1, 24178, Note_on_c, 0, 57, 0
1, 24183, Note_on_c, 0, 75, 79
1, 24185, Note_on_c, 0, 63, 90
1, 24187, Note_on_c, 0, 71, 75
1, 24278, Control_c, 0, 64, 104
1, 24280, Note_on_c, 0, 65, 96
1, 24281, Control_c, 0, 64, 24
1, 24283, Control_c, 0, 64, 0
1, 24283, Control_c, 0, 64, 24
1, 24288, Control_c, 0, 64, 56
1, 24291, Control_c, 0, 64, 88
1, 24292, Control_c, 0, 64, 127
1, 24293, Note_on_c, 0, 63, 0
1, 24296, Note_on_c, 0, 71, 0
1, 24297, Note_on_c, 0, 75, 0
1, 24305, Note_on_c, 0, 65, 0
1, 24372, Note_on_c, 0, 71, 76
1, 24375, Note_on_c, 0, 63, 80
1, 24376, Note_on_c, 0, 59, 76
1, 24475, Note_on_c, 0, 59, 0
1, 24476, Note_on_c, 0, 58, 104
1, 24478, Control_c, 0, 64, 72
1, 24481, Control_c, 0, 64, 0
1, 24483, Note_on_c, 0, 63, 0
1, 24487, Note_on_c, 0, 71, 0
1, 24503, Control_c, 0, 64, 24
1, 24503, Control_c, 0, 64, 88
1, 24507, Control_c, 0, 64, 127
1, 24573, Note_on_c, 0, 58, 0
1, 24578, Note_on_c, 0, 75, 80
1, 24578, Note_on_c, 0, 63, 85
1, 24581, Note_on_c, 0, 70, 80
1, 24676, Note_on_c, 0, 66, 104
1, 24688, Note_on_c, 0, 63, 0
1, 24691, Note_on_c, 0, 66, 0
1, 24692, Note_on_c, 0, 70, 0
1, 24693, Note_on_c, 0, 75, 0
1, 24778, Note_on_c, 0, 70, 80
1, 24781, Note_on_c, 0, 58, 75
1, 24781, Note_on_c, 0, 63, 78
1, 24797, Note_on_c, 0, 58, 0
1, 24798, Note_on_c, 0, 63, 0
1, 24807, Note_on_c, 0, 70, 0
1, 24912, Note_on_c, 0, 59, 96
1, 24920, Control_c, 0, 64, 0
1, 25015, Control_c, 0, 64, 127
1, 25023, Control_c, 0, 64, 56
1, 25023, Control_c, 0, 64, 104
1, 25028, Control_c, 0, 64, 127
1, 25031, Note_on_c, 0, 78, 84
1, 25032, Note_on_c, 0, 66, 86
1, 25033, Note_on_c, 0, 69, 78
1, 25033, Note_on_c, 0, 75, 70
1, 25041, Note_on_c, 0, 59, 0
1, 25093, Note_on_c, 0, 78, 0
1, 25096, Note_on_c, 0, 69, 0
1, 25096, Note_on_c, 0, 75, 0
1, 25102, Note_on_c, 0, 66, 0
1, 25242, Note_on_c, 0, 69, 78
1, 25246, Note_on_c, 0, 57, 78
1, 25246, Note_on_c, 0, 63, 83
1, 25272, Note_on_c, 0, 57, 0
1, 25277, Note_on_c, 0, 63, 0
1, 25287, Note_on_c, 0, 69, 0
1, 25357, Control_c, 0, 64, 72
1, 25358, Control_c, 0, 64, 0
1, 25360, Note_on_c, 0, 66, 94
1, 25416, Control_c, 0, 64, 24
1, 25418, Control_c, 0, 64, 72
1, 25421, Control_c, 0, 64, 104
1, 25422, Control_c, 0, 64, 127
1, 25431, Note_on_c, 0, 66, 0
1, 25448, Note_on_c, 0, 78, 81
1, 25451, Note_on_c, 0, 70, 76
1, 25452, Note_on_c, 0, 66, 76
1, 25452, Note_on_c, 0, 75, 68
1, 25552, Note_on_c, 0, 60, 98
1, 25558, Note_on_c, 0, 78, 0
1, 25560, Note_on_c, 0, 66, 0
1, 25561, Note_on_c, 0, 70, 0
1, 25562, Note_on_c, 0, 75, 0
1, 25563, Control_c, 0, 64, 104
1, 25567, Control_c, 0, 64, 40
1, 25568, Control_c, 0, 64, 0
1, 25668, Note_on_c, 0, 78, 85
1, 25670, Note_on_c, 0, 66, 84
1, 25672, Note_on_c, 0, 68, 79
1, 25673, Note_on_c, 0, 75, 76
1, 25676, Control_c, 0, 64, 24
1, 25676, Control_c, 0, 64, 88
1, 25681, Control_c, 0, 64, 127
1, 25707, Note_on_c, 0, 60, 0
1, 25741, Note_on_c, 0, 78, 0
1, 25743, Note_on_c, 0, 75, 0
1, 25747, Note_on_c, 0, 68, 0
1, 25748, Note_on_c, 0, 66, 0
1, 25878, Note_on_c, 0, 68, 80
1, 25880, Note_on_c, 0, 56, 83
1, 25881, Note_on_c, 0, 66, 76
1, 25882, Note_on_c, 0, 63, 76
1, 25907, Note_on_c, 0, 56, 0
1, 25911, Note_on_c, 0, 63, 0
1, 25917, Note_on_c, 0, 66, 0
1, 25922, Note_on_c, 0, 68, 0
1, 26012, Note_on_c, 0, 68, 97
1, 26015, Control_c, 0, 64, 56
1, 26017, Control_c, 0, 64, 0
1, 26085, Control_c, 0, 64, 24
1, 26088, Control_c, 0, 64, 88
1, 26088, Control_c, 0, 64, 127
1, 26097, Note_on_c, 0, 68, 0
1, 26145, Note_on_c, 0, 78, 80
1, 26145, Note_on_c, 0, 66, 77
1, 26147, Note_on_c, 0, 75, 78
1, 26285, Note_on_c, 0, 61, 100
1, 26291, Control_c, 0, 64, 88
1, 26292, Control_c, 0, 64, 24
1, 26297, Control_c, 0, 64, 0
1, 26302, Note_on_c, 0, 66, 0
1, 26302, Note_on_c, 0, 78, 0
1, 26311, Note_on_c, 0, 75, 0
1, 26392, Note_on_c, 0, 78, 83
1, 26396, Note_on_c, 0, 66, 80
1, 26397, Note_on_c, 0, 70, 74
1, 26397, Note_on_c, 0, 73, 75
1, 26401, Control_c, 0, 64, 40
1, 26402, Control_c, 0, 64, 88
1, 26406, Control_c, 0, 64, 127
1, 26442, Note_on_c, 0, 61, 0
1, 26480, Note_on_c, 0, 78, 0
1, 26482, Note_on_c, 0, 73, 0
1, 26486, Note_on_c, 0, 66, 0
1, 26486, Note_on_c, 0, 70, 0
1, 26637, Note_on_c, 0, 66, 77
1, 26640, Note_on_c, 0, 58, 76
1, 26715, Note_on_c, 0, 58, 0
1, 26750, Note_on_c, 0, 66, 0
1, 26955, Note_on_c, 0, 73, 74
1, 26956, Note_on_c, 0, 66, 65
1, 26957, Note_on_c, 0, 54, 82
1, 26960, Note_on_c, 0, 70, 62
1, 26967, Control_c, 0, 64, 88
1, 26970, Control_c, 0, 64, 24
1, 26971, Control_c, 0, 64, 0
1, 27001, Control_c, 0, 64, 24
1, 27006, Control_c, 0, 64, 72
1, 27007, Control_c, 0, 64, 104
1, 27010, Control_c, 0, 64, 127
1, 27083, Note_on_c, 0, 57, 84
1, 27087, Control_c, 0, 64, 88
1, 27091, Note_on_c, 0, 54, 0
1, 27091, Control_c, 0, 64, 24
1, 27091, Control_c, 0, 64, 0
1, 27098, Note_on_c, 0, 66, 0
1, 27106, Note_on_c, 0, 73, 0
1, 27166, Note_on_c, 0, 70, 0
1, 27203, Note_on_c, 0, 73, 75
1, 27205, Note_on_c, 0, 58, 84
1, 27206, Note_on_c, 0, 66, 69
1, 27207, Note_on_c, 0, 57, 0
1, 27305, Note_on_c, 0, 59, 80
1, 27308, Note_on_c, 0, 58, 0
1, 27341, Note_on_c, 0, 73, 0
1, 27345, Note_on_c, 0, 66, 0
1, 27345, Control_c, 0, 64, 24
1, 27347, Control_c, 0, 64, 104
1, 27350, Control_c, 0, 64, 127
1, 27356, Note_on_c, 0, 59, 0
1, 27405, Note_on_c, 0, 60, 75
1, 27411, Note_on_c, 0, 66, 75
1, 27412, Note_on_c, 0, 58, 74
1, 27413, Control_c, 0, 64, 104
1, 27416, Control_c, 0, 64, 40
1, 27420, Control_c, 0, 64, 0
1, 27528, Note_on_c, 0, 63, 94
1, 27533, Note_on_c, 0, 60, 0
1, 27566, Control_c, 0, 64, 56
1, 27571, Control_c, 0, 64, 127
1, 27586, Note_on_c, 0, 58, 0
1, 27588, Note_on_c, 0, 66, 0
1, 27592, Note_on_c, 0, 63, 0
1, 27646, Note_on_c, 0, 60, 80
1, 27651, Note_on_c, 0, 70, 59
1, 27651, Note_on_c, 0, 66, 53
1, 27653, Control_c, 0, 64, 104
1, 27655, Control_c, 0, 64, 40
1, 27656, Control_c, 0, 64, 0
1, 27690, Control_c, 0, 64, 40
1, 27692, Control_c, 0, 64, 88
1, 27695, Control_c, 0, 64, 127
1, 27720, Note_on_c, 0, 60, 0
1, 27790, Note_on_c, 0, 61, 90
1, 27796, Control_c, 0, 64, 104
1, 27796, Control_c, 0, 64, 40
1, 27800, Control_c, 0, 64, 0
1, 27806, Note_on_c, 0, 66, 0
1, 27846, Note_on_c, 0, 70, 0
1, 27945, Note_on_c, 0, 75, 69
1, 27946, Note_on_c, 0, 66, 54
1, 27948, Note_on_c, 0, 70, 60
1, 27960, Control_c, 0, 64, 24
1, 27961, Control_c, 0, 64, 88
1, 27965, Control_c, 0, 64, 127
1, 28001, Note_on_c, 0, 61, 0
1, 28021, Note_on_c, 0, 75, 0
1, 28023, Note_on_c, 0, 70, 0
1, 28026, Note_on_c, 0, 66, 0
1, 28198, Note_on_c, 0, 66, 66
1, 28201, Note_on_c, 0, 58, 60
1, 28201, Note_on_c, 0, 63, 66
1, 28225, Control_c, 0, 67, 24
1, 28225, Control_c, 0, 67, 40
1, 28235, Note_on_c, 0, 63, 0
1, 28240, Note_on_c, 0, 58, 0
1, 28240, Control_c, 0, 67, 56
1, 28241, Control_c, 0, 67, 72
1, 28248, Note_on_c, 0, 66, 0
1, 28256, Control_c, 0, 67, 88
1, 28265, Control_c, 0, 67, 104
1, 28285, Control_c, 0, 67, 127
1, 28471, Note_on_c, 0, 75, 66
1, 28473, Note_on_c, 0, 66, 48
1, 28473, Note_on_c, 0, 70, 57
1, 28580, Note_on_c, 0, 75, 0
1, 28581, Note_on_c, 0, 70, 0
1, 28581, Note_on_c, 0, 66, 0
1, 28782, Note_on_c, 0, 73, 69
1, 28785, Note_on_c, 0, 63, 53
1, 28785, Note_on_c, 0, 66, 53
1, 28823, Note_on_c, 0, 66, 0
1, 28823, Note_on_c, 0, 73, 0
1, 28826, Note_on_c, 0, 63, 0
1, 28838, Control_c, 0, 67, 127
1, 28920, Note_on_c, 0, 59, 81
1, 28937, Control_c, 0, 64, 104
1, 28940, Control_c, 0, 64, 72
1, 28943, Control_c, 0, 64, 40
1, 28945, Control_c, 0, 64, 0
1, 28990, Control_c, 0, 64, 24
1, 28992, Control_c, 0, 64, 72
1, 28996, Control_c, 0, 64, 127
1, 29058, Note_on_c, 0, 63, 63
1, 29058, Note_on_c, 0, 66, 59
1, 29060, Note_on_c, 0, 56, 59
1, 29068, Note_on_c, 0, 59, 0
1, 29207, Control_c, 0, 67, 24
1, 29208, Control_c, 0, 67, 40
1, 29212, Control_c, 0, 67, 56
1, 29212, Control_c, 0, 67, 72
1, 29213, Control_c, 0, 67, 88
1, 29216, Control_c, 0, 67, 104
1, 29222, Control_c, 0, 67, 127
1, 29231, Note_on_c, 0, 37, 59
1, 29307, Note_on_c, 0, 37, 0
1, 29355, Note_on_c, 0, 56, 0
1, 29365, Note_on_c, 0, 63, 0
1, 29371, Note_on_c, 0, 66, 0
1, 29427, Note_on_c, 0, 73, 58
1, 29428, Note_on_c, 0, 61, 47
1, 29432, Note_on_c, 0, 65, 51
1, 29432, Note_on_c, 0, 58, 67
1, 29445, Note_on_c, 0, 58, 0
1, 29577, Note_on_c, 0, 61, 0
1, 29578, Note_on_c, 0, 65, 0
1, 29601, Note_on_c, 0, 73, 0
1, 29717, Note_on_c, 0, 54, 59
1, 29735, Control_c, 0, 64, 1
1, 29812, Control_c, 0, 64, 127
1, 29858, Control_c, 0, 64, 24
1, 29858, Control_c, 0, 64, 40
1, 29861, Control_c, 0, 64, 56
1, 29863, Control_c, 0, 64, 72
1, 29863, Control_c, 0, 64, 88
1, 29867, Control_c, 0, 64, 104
1, 29870, Control_c, 0, 64, 127
1, 29913, Note_on_c, 0, 61, 46
1, 29915, Note_on_c, 0, 73, 55
1, 29915, Note_on_c, 0, 70, 44
1, 30056, Note_on_c, 0, 63, 73
1, 30058, Note_on_c, 0, 78, 65
1, 30063, Note_on_c, 0, 70, 0
1, 30068, Note_on_c, 0, 73, 0
1, 30105, Note_on_c, 0, 61, 0
1, 30178, Note_on_c, 0, 65, 66
1, 30182, Note_on_c, 0, 73, 72
1, 30183, Note_on_c, 0, 63, 0
1, 30185, Note_on_c, 0, 70, 58
1, 30192, Note_on_c, 0, 78, 0
1, 30245, Note_on_c, 0, 70, 0
1, 30308, Note_on_c, 0, 73, 0
1, 30308, Note_on_c, 0, 61, 61
1, 30310, Note_on_c, 0, 77, 67
1, 30320, Control_c, 0, 64, 104
1, 30320, Control_c, 0, 64, 56
1, 30322, Control_c, 0, 64, 0
1, 30347, Control_c, 0, 64, 40
1, 30348, Control_c, 0, 64, 72
1, 30351, Control_c, 0, 64, 127
1, 30428, Note_on_c, 0, 65, 0
1, 30476, Note_on_c, 0, 73, 48
1, 30480, Note_on_c, 0, 70, 47
1, 30480, Note_on_c, 0, 66, 54
1, 30490, Control_c, 0, 64, 88
1, 30493, Control_c, 0, 64, 24
1, 30495, Control_c, 0, 64, 0
1, 30521, Control_c, 0, 64, 40
1, 30523, Control_c, 0, 64, 72
1, 30526, Control_c, 0, 64, 104
1, 30528, Control_c, 0, 64, 127
1, 30557, Note_on_c, 0, 61, 0
1, 30572, Note_on_c, 0, 54, 0
1, 30575, Note_on_c, 0, 66, 0
1, 30580, Note_on_c, 0, 77, 0
1, 30580, Note_on_c, 0, 70, 0
1, 30581, Note_on_c, 0, 73, 0
1, 30663, Note_on_c, 0, 58, 64
1, 30671, Control_c, 0, 64, 88
1, 30675, Control_c, 0, 64, 24
1, 30676, Control_c, 0, 64, 0
1, 30803, Control_c, 0, 64, 24
1, 30812, Control_c, 0, 64, 0
1, 30827, Note_on_c, 0, 61, 61
1, 30832, Note_on_c, 0, 70, 60
1, 30832, Note_on_c, 0, 73, 60
1, 30862, Control_c, 0, 64, 24
1, 30866, Control_c, 0, 64, 56
1, 30866, Control_c, 0, 64, 88
1, 30868, Control_c, 0, 64, 127
1, 30951, Note_on_c, 0, 63, 71
1, 30952, Note_on_c, 0, 77, 64
1, 30957, Note_on_c, 0, 70, 0
1, 30957, Control_c, 0, 64, 72
1, 30958, Note_on_c, 0, 73, 0
1, 30961, Control_c, 0, 64, 0
1, 30962, Note_on_c, 0, 61, 0
1, 30998, Control_c, 0, 64, 40
1, 31002, Control_c, 0, 64, 104
1, 31003, Control_c, 0, 64, 127
1, 31071, Note_on_c, 0, 65, 64
1, 31071, Control_c, 0, 64, 88
1, 31073, Note_on_c, 0, 73, 66
1, 31073, Control_c, 0, 64, 0
1, 31076, Note_on_c, 0, 70, 64
1, 31083, Note_on_c, 0, 77, 0
1, 31088, Note_on_c, 0, 58, 0
1, 31102, Control_c, 0, 64, 24
1, 31105, Control_c, 0, 64, 88
1, 31107, Control_c, 0, 64, 127
1, 31122, Note_on_c, 0, 73, 0
1, 31127, Note_on_c, 0, 75, 72
1, 31178, Note_on_c, 0, 63, 0
1, 31196, Note_on_c, 0, 70, 0
1, 31197, Note_on_c, 0, 61, 63
1, 31198, Note_on_c, 0, 73, 76
1, 31202, Control_c, 0, 64, 104
1, 31206, Control_c, 0, 64, 24
1, 31207, Note_on_c, 0, 75, 0
1, 31207, Control_c, 0, 64, 0
1, 31220, Note_on_c, 0, 65, 0
1, 31346, Note_on_c, 0, 70, 63
1, 31351, Note_on_c, 0, 66, 63
1, 31353, Control_c, 0, 64, 24
1, 31356, Control_c, 0, 64, 56
1, 31358, Control_c, 0, 64, 88
1, 31361, Control_c, 0, 64, 104
1, 31363, Control_c, 0, 64, 127
1, 31366, Note_on_c, 0, 61, 0
1, 31370, Note_on_c, 0, 66, 0
1, 31408, Note_on_c, 0, 49, 77
1, 31426, Note_on_c, 0, 49, 0
1, 31498, Note_on_c, 0, 70, 0
1, 31512, Note_on_c, 0, 51, 71
1, 31516, Control_c, 0, 64, 104
1, 31518, Note_on_c, 0, 73, 0
1, 31518, Control_c, 0, 64, 24
1, 31522, Control_c, 0, 64, 0
1, 31655, Note_on_c, 0, 58, 61
1, 31655, Note_on_c, 0, 66, 58
1, 31656, Note_on_c, 0, 63, 54
1, 31656, Note_on_c, 0, 70, 63
1, 31668, Control_c, 0, 64, 24
1, 31670, Control_c, 0, 64, 56
1, 31673, Control_c, 0, 64, 104
1, 31677, Control_c, 0, 64, 127
1, 31685, Note_on_c, 0, 66, 0
1, 31687, Note_on_c, 0, 63, 0
1, 31687, Note_on_c, 0, 70, 0
1, 31767, Note_on_c, 0, 58, 0
1, 31772, Note_on_c, 0, 71, 69
1, 31775, Note_on_c, 0, 59, 58
1, 31777, Control_c, 0, 64, 72
1, 31778, Control_c, 0, 64, 0
1, 31807, Control_c, 0, 64, 40
1, 31811, Control_c, 0, 64, 88
1, 31812, Control_c, 0, 64, 127
1, 31821, Note_on_c, 0, 51, 0
1, 31890, Note_on_c, 0, 68, 73
1, 31891, Control_c, 0, 64, 88
1, 31892, Note_on_c, 0, 61, 54
1, 31893, Note_on_c, 0, 53, 51
1, 31896, Control_c, 0, 64, 0
1, 31922, Note_on_c, 0, 71, 0
1, 31923, Control_c, 0, 64, 40
1, 31927, Control_c, 0, 64, 88
1, 31928, Control_c, 0, 64, 127
1, 31945, Note_on_c, 0, 53, 0
1, 31951, Note_on_c, 0, 59, 0
1, 31955, Note_on_c, 0, 68, 0
1, 32017, Note_on_c, 0, 61, 0
1, 32020, Note_on_c, 0, 70, 72
1, 32021, Note_on_c, 0, 54, 60
1, 32023, Control_c, 0, 64, 88
1, 32027, Control_c, 0, 64, 24
1, 32028, Control_c, 0, 64, 0
1, 32073, Control_c, 0, 64, 24
1, 32076, Control_c, 0, 64, 72
1, 32080, Control_c, 0, 64, 127
1, 32153, Control_c, 0, 64, 104
1, 32156, Note_on_c, 0, 63, 61
1, 32156, Note_on_c, 0, 66, 55
1, 32157, Control_c, 0, 64, 0
1, 32160, Note_on_c, 0, 60, 48
1, 32205, Control_c, 0, 64, 40
1, 32208, Control_c, 0, 64, 56
1, 32211, Control_c, 0, 64, 88
1, 32212, Note_on_c, 0, 70, 0
1, 32212, Control_c, 0, 64, 104
1, 32215, Control_c, 0, 64, 127
1, 32217, Note_on_c, 0, 54, 0
1, 32222, Note_on_c, 0, 68, 67
1, 32226, Note_on_c, 0, 56, 60
1, 32232, Note_on_c, 0, 66, 0
1, 32241, Note_on_c, 0, 56, 0
1, 32246, Note_on_c, 0, 68, 0
1, 32317, Note_on_c, 0, 49, 67
1, 32321, Note_on_c, 0, 68, 69
1, 32326, Control_c, 0, 64, 104
1, 32327, Control_c, 0, 64, 40
1, 32330, Control_c, 0, 64, 0
1, 32366, Control_c, 0, 64, 40
1, 32370, Control_c, 0, 64, 72
1, 32371, Note_on_c, 0, 60, 0
1, 32373, Control_c, 0, 64, 127
1, 32381, Note_on_c, 0, 63, 0
1, 32475, Note_on_c, 0, 61, 57
1, 32476, Note_on_c, 0, 65, 61
1, 32495, Note_on_c, 0, 61, 0
1, 32496, Note_on_c, 0, 65, 0
1, 32586, Note_on_c, 0, 66, 64
1, 32586, Note_on_c, 0, 63, 57
1, 32590, Control_c, 0, 64, 88
1, 32592, Control_c, 0, 64, 0
1, 32615, Control_c, 0, 64, 40
1, 32617, Control_c, 0, 64, 88
1, 32621, Control_c, 0, 64, 127
1, 32631, Note_on_c, 0, 63, 0
1, 32640, Note_on_c, 0, 66, 0
1, 32646, Note_on_c, 0, 68, 0
1, 32726, Note_on_c, 0, 68, 60
1, 32726, Note_on_c, 0, 65, 50
1, 32731, Control_c, 0, 64, 88
1, 32732, Control_c, 0, 64, 24
1, 32736, Control_c, 0, 64, 0
1, 32756, Control_c, 0, 64, 24
1, 32757, Control_c, 0, 64, 88
1, 32761, Control_c, 0, 64, 127
1, 32772, Note_on_c, 0, 65, 0
1, 32776, Note_on_c, 0, 68, 0
1, 32787, Note_on_c, 0, 49, 0
1, 32887, Note_on_c, 0, 73, 63
1, 32890, Note_on_c, 0, 61, 57
1, 32890, Note_on_c, 0, 66, 48
1, 32891, Note_on_c, 0, 70, 54
1, 32897, Control_c, 0, 64, 88
1, 32900, Control_c, 0, 64, 40
1, 32902, Control_c, 0, 64, 0
1, 32965, Control_c, 0, 64, 24
1, 32967, Control_c, 0, 64, 72
1, 32971, Control_c, 0, 64, 104
1, 32972, Control_c, 0, 64, 127
1, 32977, Note_on_c, 0, 70, 0
1, 32986, Note_on_c, 0, 66, 0
1, 33062, Note_on_c, 0, 68, 48
1, 33065, Note_on_c, 0, 71, 56
1, 33077, Control_c, 0, 64, 88
1, 33080, Control_c, 0, 64, 40
1, 33081, Control_c, 0, 64, 0
1, 33103, Control_c, 0, 64, 40
1, 33106, Control_c, 0, 64, 72
1, 33108, Control_c, 0, 64, 127
1, 33137, Note_on_c, 0, 68, 0
1, 33145, Note_on_c, 0, 71, 0
1, 33278, Note_on_c, 0, 66, 57
1, 33280, Note_on_c, 0, 70, 58
1, 33281, Note_on_c, 0, 54, 59
1, 33288, Note_on_c, 0, 61, 0
1, 33292, Control_c, 0, 64, 88
1, 33292, Control_c, 0, 64, 24
1, 33295, Control_c, 0, 64, 0
1, 33338, Control_c, 0, 64, 40
1, 33342, Control_c, 0, 64, 104
1, 33345, Control_c, 0, 64, 127
1, 33351, Note_on_c, 0, 66, 0
1, 33355, Note_on_c, 0, 70, 0
1, 33360, Note_on_c, 0, 73, 0
1, 33380, Control_c, 0, 67, 104
1, 33385, Control_c, 0, 67, 88
1, 33393, Control_c, 0, 67, 72
1, 33397, Control_c, 0, 67, 56
1, 33403, Control_c, 0, 67, 40
1, 33425, Control_c, 0, 67, 24
1, 33437, Control_c, 0, 67, 0
1, 33486, Note_on_c, 0, 73, 60
1, 33487, Note_on_c, 0, 70, 50
1, 33490, Note_on_c, 0, 61, 49
1, 33531, Note_on_c, 0, 73, 0
1, 33535, Note_on_c, 0, 70, 0
1, 33560, Note_on_c, 0, 61, 0
1, 33630, Note_on_c, 0, 78, 66
1, 33632, Note_on_c, 0, 63, 71
1, 33638, Control_c, 0, 64, 88
1, 33641, Control_c, 0, 64, 40
1, 33643, Control_c, 0, 64, 0
1, 33656, Control_c, 0, 64, 24
1, 33660, Control_c, 0, 64, 56
1, 33661, Control_c, 0, 64, 104
1, 33663, Control_c, 0, 64, 127
1, 33673, Note_on_c, 0, 63, 0
1, 33761, Note_on_c, 0, 73, 70
1, 33763, Note_on_c, 0, 65, 58
1, 33765, Note_on_c, 0, 70, 58
1, 33770, Note_on_c, 0, 54, 0
1, 33776, Note_on_c, 0, 78, 0
1, 33792, Note_on_c, 0, 73, 0
1, 33811, Note_on_c, 0, 70, 0
1, 33873, Note_on_c, 0, 61, 62
1, 33876, Note_on_c, 0, 77, 63
1, 33882, Control_c, 0, 64, 88
1, 33887, Control_c, 0, 64, 24
1, 33888, Control_c, 0, 64, 0
1, 33905, Control_c, 0, 64, 24
1, 33907, Control_c, 0, 64, 72
1, 33910, Control_c, 0, 64, 127
1, 33915, Note_on_c, 0, 65, 0
1, 34020, Note_on_c, 0, 73, 56
1, 34020, Note_on_c, 0, 66, 54
1, 34023, Note_on_c, 0, 70, 45
1, 34070, Note_on_c, 0, 61, 0
1, 34165, Note_on_c, 0, 58, 74
1, 34165, Control_c, 0, 64, 88
1, 34168, Note_on_c, 0, 66, 0
1, 34168, Control_c, 0, 64, 0
1, 34178, Note_on_c, 0, 70, 0
1, 34181, Note_on_c, 0, 73, 0
1, 34191, Control_c, 0, 64, 24
1, 34191, Control_c, 0, 64, 56
1, 34195, Note_on_c, 0, 77, 0
1, 34195, Control_c, 0, 64, 104
1, 34198, Control_c, 0, 64, 127
1, 34288, Note_on_c, 0, 61, 68
1, 34295, Note_on_c, 0, 70, 72
1, 34296, Note_on_c, 0, 73, 76
1, 34413, Note_on_c, 0, 63, 78
1, 34413, Note_on_c, 0, 77, 80
1, 34415, Control_c, 0, 64, 88
1, 34418, Note_on_c, 0, 73, 0
1, 34420, Note_on_c, 0, 70, 0
1, 34420, Control_c, 0, 64, 24
1, 34421, Control_c, 0, 64, 0
1, 34426, Note_on_c, 0, 61, 0
1, 34440, Control_c, 0, 64, 24
1, 34445, Control_c, 0, 64, 88
1, 34446, Control_c, 0, 64, 127
1, 34528, Note_on_c, 0, 65, 70
1, 34530, Note_on_c, 0, 73, 61
1, 34532, Note_on_c, 0, 70, 69
1, 34540, Note_on_c, 0, 63, 0
1, 34547, Note_on_c, 0, 77, 0
1, 34560, Note_on_c, 0, 58, 0
1, 34581, Note_on_c, 0, 73, 0
1, 34585, Note_on_c, 0, 75, 81
1, 34591, Note_on_c, 0, 70, 0
1, 34660, Note_on_c, 0, 73, 79
1, 34662, Note_on_c, 0, 66, 81
1, 34663, Note_on_c, 0, 65, 0
1, 34668, Note_on_c, 0, 75, 0
1, 34671, Control_c, 0, 64, 88
1, 34672, Control_c, 0, 64, 0
1, 34703, Control_c, 0, 64, 40
1, 34705, Control_c, 0, 64, 104
1, 34708, Control_c, 0, 64, 127
1, 34801, Note_on_c, 0, 70, 77
1, 34810, Note_on_c, 0, 73, 0
1, 34865, Note_on_c, 0, 61, 69
1, 34888, Note_on_c, 0, 61, 0
1, 34906, Note_on_c, 0, 66, 0
1, 34963, Note_on_c, 0, 60, 69
1, 34968, Note_on_c, 0, 82, 79
1, 34971, Note_on_c, 0, 70, 0
1, 34971, Control_c, 0, 64, 104
1, 34973, Control_c, 0, 64, 40
1, 34976, Control_c, 0, 64, 0
1, 35016, Control_c, 0, 64, 24
1, 35020, Control_c, 0, 64, 88
1, 35021, Control_c, 0, 64, 127
1, 35135, Note_on_c, 0, 70, 69
1, 35136, Note_on_c, 0, 75, 74
1, 35138, Note_on_c, 0, 66, 62
1, 35152, Note_on_c, 0, 60, 0
1, 35260, Note_on_c, 0, 61, 80
1, 35262, Note_on_c, 0, 66, 0
1, 35267, Control_c, 0, 64, 104
1, 35268, Control_c, 0, 64, 24
1, 35270, Note_on_c, 0, 75, 0
1, 35272, Control_c, 0, 64, 0
1, 35273, Note_on_c, 0, 70, 0
1, 35308, Control_c, 0, 64, 40
1, 35310, Control_c, 0, 64, 104
1, 35313, Control_c, 0, 64, 127
1, 35323, Note_on_c, 0, 82, 0
1, 35395, Note_on_c, 0, 73, 75
1, 35398, Note_on_c, 0, 66, 60
1, 35398, Note_on_c, 0, 70, 60
1, 35402, Control_c, 0, 64, 104
1, 35405, Control_c, 0, 64, 40
1, 35407, Control_c, 0, 64, 0
1, 35421, Control_c, 0, 64, 24
1, 35423, Control_c, 0, 64, 72
1, 35426, Control_c, 0, 64, 127
1, 35477, Note_on_c, 0, 70, 0
1, 35536, Note_on_c, 0, 71, 73
1, 35543, Note_on_c, 0, 73, 0
1, 35545, Control_c, 0, 64, 104
1, 35548, Control_c, 0, 64, 40
1, 35550, Control_c, 0, 64, 0
1, 35568, Control_c, 0, 64, 40
1, 35570, Control_c, 0, 64, 88
1, 35573, Control_c, 0, 64, 127
1, 35612, Note_on_c, 0, 66, 0
1, 35613, Note_on_c, 0, 61, 0
1, 35680, Note_on_c, 0, 68, 65
1, 35683, Note_on_c, 0, 65, 55
1, 35685, Note_on_c, 0, 62, 58
1, 35688, Control_c, 0, 64, 72
1, 35690, Control_c, 0, 64, 0
1, 35695, Note_on_c, 0, 71, 0
1, 35708, Control_c, 0, 64, 40
1, 35712, Control_c, 0, 64, 88
1, 35716, Control_c, 0, 64, 127
1, 35733, Note_on_c, 0, 65, 0
1, 35812, Note_on_c, 0, 70, 70
1, 35815, Note_on_c, 0, 63, 68
1, 35818, Control_c, 0, 64, 88
1, 35820, Control_c, 0, 64, 24
1, 35823, Control_c, 0, 64, 0
1, 35838, Note_on_c, 0, 62, 0
1, 35847, Control_c, 0, 64, 24
1, 35850, Control_c, 0, 64, 88
1, 35852, Control_c, 0, 64, 127
1, 35867, Note_on_c, 0, 68, 0
1, 35922, Control_c, 0, 64, 104
1, 35925, Control_c, 0, 64, 24
1, 35927, Control_c, 0, 64, 0
1, 35933, Note_on_c, 0, 58, 60
1, 35935, Note_on_c, 0, 66, 71
1, 35965, Control_c, 0, 64, 40
1, 35967, Control_c, 0, 64, 104
1, 35970, Control_c, 0, 64, 127
1, 36080, Note_on_c, 0, 58, 0
1, 36085, Note_on_c, 0, 56, 68
1, 36088, Control_c, 0, 64, 104
1, 36092, Note_on_c, 0, 63, 0
1, 36093, Control_c, 0, 64, 56
1, 36095, Control_c, 0, 64, 0
1, 36102, Note_on_c, 0, 66, 0
1, 36102, Note_on_c, 0, 78, 75
1, 36108, Note_on_c, 0, 70, 0
1, 36268, Note_on_c, 0, 66, 55
1, 36268, Note_on_c, 0, 63, 62
1, 36268, Note_on_c, 0, 71, 63
1, 36297, Control_c, 0, 64, 40
1, 36298, Control_c, 0, 64, 88
1, 36302, Control_c, 0, 64, 127
1, 36393, Note_on_c, 0, 58, 72
1, 36397, Note_on_c, 0, 66, 0
1, 36397, Note_on_c, 0, 56, 0
1, 36397, Control_c, 0, 64, 72
1, 36398, Note_on_c, 0, 71, 0
1, 36400, Note_on_c, 0, 63, 0
1, 36400, Control_c, 0, 64, 0
1, 36517, Note_on_c, 0, 63, 57
1, 36518, Note_on_c, 0, 70, 66
1, 36520, Note_on_c, 0, 66, 47
1, 36538, Control_c, 0, 64, 24
1, 36541, Control_c, 0, 64, 72
1, 36543, Control_c, 0, 64, 104
1, 36546, Control_c, 0, 64, 127
1, 36552, Note_on_c, 0, 78, 0
1, 36566, Note_on_c, 0, 70, 0
1, 36652, Note_on_c, 0, 68, 64
1, 36656, Control_c, 0, 64, 72
1, 36660, Control_c, 0, 64, 0
1, 36680, Control_c, 0, 64, 40
1, 36682, Control_c, 0, 64, 88
1, 36685, Control_c, 0, 64, 127
1, 36707, Note_on_c, 0, 63, 0
1, 36796, Note_on_c, 0, 62, 47
1, 36796, Note_on_c, 0, 65, 61
1, 36798, Note_on_c, 0, 66, 0
1, 36798, Control_c, 0, 64, 72
1, 36801, Control_c, 0, 64, 0
1, 36828, Control_c, 0, 64, 40
1, 36832, Control_c, 0, 64, 88
1, 36833, Control_c, 0, 64, 127
1, 36857, Note_on_c, 0, 68, 0
1, 36932, Note_on_c, 0, 58, 0
1, 36952, Note_on_c, 0, 66, 62
1, 36957, Note_on_c, 0, 59, 47
1, 36960, Control_c, 0, 64, 88
1, 36962, Control_c, 0, 64, 40
1, 36965, Control_c, 0, 64, 0
1, 37006, Note_on_c, 0, 65, 0
1, 37013, Control_c, 0, 64, 24
1, 37016, Control_c, 0, 64, 72
1, 37017, Control_c, 0, 64, 127
1, 37108, Note_on_c, 0, 63, 70
1, 37113, Note_on_c, 0, 62, 0
1, 37113, Note_on_c, 0, 54, 41
1, 37116, Control_c, 0, 64, 88
1, 37117, Control_c, 0, 64, 24
1, 37118, Control_c, 0, 64, 0
1, 37123, Note_on_c, 0, 59, 0
1, 37142, Control_c, 0, 64, 24
1, 37146, Control_c, 0, 64, 72
1, 37147, Control_c, 0, 64, 127
1, 37182, Note_on_c, 0, 54, 0
1, 37183, Note_on_c, 0, 66, 0
1, 37337, Note_on_c, 0, 75, 70
1, 37341, Note_on_c, 0, 53, 47
1, 37348, Note_on_c, 0, 63, 0
1, 37352, Control_c, 0, 64, 88
1, 37356, Control_c, 0, 64, 56
1, 37357, Control_c, 0, 64, 0
1, 37441, Control_c, 0, 64, 24
1, 37442, Control_c, 0, 64, 56
1, 37446, Control_c, 0, 64, 88
1, 37448, Control_c, 0, 64, 127
1, 37636, Note_on_c, 0, 68, 66
1, 37636, Note_on_c, 0, 63, 51
1, 37641, Note_on_c, 0, 59, 50
1, 37646, Note_on_c, 0, 75, 0
1, 37656, Control_c, 0, 64, 104
1, 37661, Control_c, 0, 64, 72
1, 37662, Control_c, 0, 64, 24
1, 37663, Control_c, 0, 64, 0
1, 37737, Control_c, 0, 64, 24
1, 37741, Control_c, 0, 64, 40
1, 37743, Control_c, 0, 64, 56
1, 37746, Control_c, 0, 64, 88
1, 37751, Control_c, 0, 64, 104
1, 37751, Control_c, 0, 64, 127
1, 37856, Note_on_c, 0, 53, 0
1, 37871, Note_on_c, 0, 59, 0
1, 37896, Note_on_c, 0, 63, 0
1, 37913, Note_on_c, 0, 68, 0
1, 38045, Note_on_c, 0, 70, 74
1, 38052, Note_on_c, 0, 63, 50
1, 38052, Note_on_c, 0, 55, 44
1, 38055, Note_on_c, 0, 61, 47
1, 38057, Control_c, 0, 64, 88
1, 38061, Control_c, 0, 64, 40
1, 38062, Control_c, 0, 64, 0
1, 38082, Control_c, 0, 64, 24
1, 38085, Control_c, 0, 64, 56
1, 38088, Control_c, 0, 64, 104
1, 38090, Control_c, 0, 64, 127
1, 38093, Note_on_c, 0, 55, 0
1, 38103, Note_on_c, 0, 63, 0
1, 38113, Note_on_c, 0, 70, 0
1, 38123, Note_on_c, 0, 61, 0
1, 38207, Note_on_c, 0, 71, 70
1, 38208, Note_on_c, 0, 63, 45
1, 38211, Note_on_c, 0, 59, 50
1, 38211, Note_on_c, 0, 56, 45
1, 38221, Control_c, 0, 64, 104
1, 38223, Control_c, 0, 64, 56
1, 38226, Control_c, 0, 64, 0
1, 38303, Control_c, 0, 64, 24
1, 38307, Control_c, 0, 64, 56
1, 38308, Control_c, 0, 64, 72
1, 38312, Control_c, 0, 64, 104
1, 38312, Control_c, 0, 64, 127
1, 38527, Note_on_c, 0, 59, 0
1, 38532, Note_on_c, 0, 63, 0
1, 38536, Note_on_c, 0, 56, 0
1, 38542, Note_on_c, 0, 71, 0
1, 38571, Control_c, 0, 64, 88
1, 38572, Control_c, 0, 64, 40
1, 38576, Control_c, 0, 64, 0
1, 38681, Control_c, 0, 67, 24
1, 38687, Control_c, 0, 67, 40
1, 38707, Control_c, 0, 67, 56
1, 38712, Control_c, 0, 67, 72
1, 38721, Control_c, 0, 67, 88
1, 38725, Control_c, 0, 67, 104
1, 38727, Control_c, 0, 67, 127
1, 38842, Note_on_c, 0, 66, 80
1, 38848, Note_on_c, 0, 58, 54
1, 38850, Note_on_c, 0, 63, 68
1, 38850, Note_on_c, 0, 51, 60
1, 38861, Control_c, 0, 64, 24
1, 38865, Control_c, 0, 64, 72
1, 38866, Control_c, 0, 64, 104
1, 38867, Control_c, 0, 64, 127
1, 38895, Note_on_c, 0, 51, 0
1, 38960, Note_on_c, 0, 58, 0
1, 39040, Note_on_c, 0, 68, 77
1, 39041, Note_on_c, 0, 56, 61
1, 39045, Control_c, 0, 64, 104
1, 39045, Note_on_c, 0, 48, 54
1, 39047, Note_on_c, 0, 63, 0
1, 39047, Control_c, 0, 64, 0
1, 39051, Note_on_c, 0, 66, 0
1, 39077, Control_c, 0, 64, 40
1, 39080, Control_c, 0, 64, 88
1, 39082, Control_c, 0, 64, 127
1, 39087, Note_on_c, 0, 48, 0
1, 39180, Note_on_c, 0, 65, 67
1, 39180, Note_on_c, 0, 62, 55
1, 39182, Note_on_c, 0, 47, 63
1, 39187, Control_c, 0, 64, 72
1, 39190, Control_c, 0, 64, 0
1, 39213, Note_on_c, 0, 68, 0
1, 39221, Control_c, 0, 64, 40
1, 39223, Control_c, 0, 64, 88
1, 39226, Control_c, 0, 64, 127
1, 39231, Note_on_c, 0, 47, 0
1, 39233, Note_on_c, 0, 62, 0
1, 39237, Note_on_c, 0, 56, 0
1, 39243, Note_on_c, 0, 65, 0
1, 39326, Note_on_c, 0, 66, 74
1, 39326, Note_on_c, 0, 61, 60
1, 39327, Note_on_c, 0, 46, 60
1, 39331, Note_on_c, 0, 54, 61
1, 39331, Control_c, 0, 64, 104
1, 39335, Control_c, 0, 64, 24
1, 39336, Control_c, 0, 64, 0
1, 39372, Control_c, 0, 64, 40
1, 39375, Control_c, 0, 64, 104
1, 39377, Control_c, 0, 64, 127
1, 39400, Note_on_c, 0, 66, 0
1, 39401, Note_on_c, 0, 54, 0
1, 39402, Note_on_c, 0, 46, 0
1, 39416, Note_on_c, 0, 61, 0
1, 39516, Note_on_c, 0, 63, 67
1, 39521, Note_on_c, 0, 61, 63
1, 39522, Note_on_c, 0, 44, 56
1, 39523, Note_on_c, 0, 51, 58
1, 39535, Control_c, 0, 64, 104
1, 39537, Control_c, 0, 64, 56
1, 39538, Control_c, 0, 64, 0
1, 39602, Control_c, 0, 64, 40
1, 39606, Control_c, 0, 64, 88
1, 39610, Control_c, 0, 64, 127
1, 39622, Note_on_c, 0, 61, 0
1, 39687, Note_on_c, 0, 58, 68
1, 39700, Control_c, 0, 64, 104
1, 39701, Control_c, 0, 64, 40
1, 39703, Control_c, 0, 64, 0
1, 39725, Control_c, 0, 64, 24
1, 39727, Control_c, 0, 64, 72
1, 39730, Control_c, 0, 64, 127
1, 39747, Note_on_c, 0, 58, 0
1, 39841, Note_on_c, 0, 59, 53
1, 39856, Control_c, 0, 64, 104
1, 39860, Control_c, 0, 64, 72
1, 39863, Control_c, 0, 64, 24
1, 39865, Control_c, 0, 64, 0
1, 39953, Control_c, 0, 64, 24
1, 39956, Control_c, 0, 64, 56
1, 39956, Control_c, 0, 64, 88
1, 39960, Control_c, 0, 64, 127
1, 39992, Note_on_c, 0, 44, 0
1, 39995, Note_on_c, 0, 51, 0
1, 40000, Note_on_c, 0, 63, 0
1, 40000, Note_on_c, 0, 59, 0
1, 40005, Control_c, 0, 67, 24
1, 40007, Control_c, 0, 67, 40
1, 40010, Control_c, 0, 67, 56
1, 40013, Control_c, 0, 67, 72
1, 40015, Control_c, 0, 67, 88
1, 40018, Control_c, 0, 67, 104
1, 40020, Control_c, 0, 67, 127
1, 40253, Note_on_c, 0, 61, 50
1, 40255, Note_on_c, 0, 53, 47
1, 40255, Note_on_c, 0, 59, 53
1, 40260, Note_on_c, 0, 44, 45
1, 40261, Note_on_c, 0, 37, 41
1, 40273, Control_c, 0, 64, 104
1, 40277, Control_c, 0, 64, 56
1, 40278, Control_c, 0, 64, 24
1, 40280, Control_c, 0, 64, 0
1, 40346, Control_c, 0, 64, 24
1, 40350, Control_c, 0, 64, 56
1, 40351, Control_c, 0, 64, 88
1, 40353, Control_c, 0, 64, 127
1, 40395, Note_on_c, 0, 37, 0
1, 40421, Note_on_c, 0, 44, 0
1, 40431, Note_on_c, 0, 53, 0
1, 40450, Note_on_c, 0, 59, 0
1, 40463, Note_on_c, 0, 61, 0
1, 40722, Note_on_c, 0, 42, 48
1, 40726, Control_c, 0, 64, 0
1, 40760, Control_c, 0, 64, 125
1, 40850, Note_on_c, 0, 49, 45
1, 40888, Note_on_c, 0, 61, 61
1, 40890, Note_on_c, 0, 58, 48
1, 40936, Note_on_c, 0, 53, 51
1, 40940, Control_c, 0, 64, 40
1, 40943, Control_c, 0, 64, 56
1, 40945, Control_c, 0, 64, 72
1, 40945, Control_c, 0, 64, 88
1, 40947, Control_c, 0, 64, 104
1, 40950, Control_c, 0, 64, 127
1, 40961, Note_on_c, 0, 53, 0
1, 41030, Note_on_c, 0, 63, 75
1, 41038, Control_c, 0, 64, 88
1, 41040, Control_c, 0, 64, 24
1, 41040, Note_on_c, 0, 54, 62
1, 41041, Control_c, 0, 64, 0
1, 41063, Control_c, 0, 64, 24
1, 41066, Control_c, 0, 64, 40
1, 41066, Control_c, 0, 64, 72
1, 41068, Control_c, 0, 64, 88
1, 41070, Control_c, 0, 64, 104
1, 41071, Control_c, 0, 64, 127
1, 41082, Note_on_c, 0, 54, 0
1, 41130, Note_on_c, 0, 58, 0
1, 41130, Note_on_c, 0, 49, 0
1, 41130, Note_on_c, 0, 56, 61
1, 41133, Note_on_c, 0, 63, 0
1, 41140, Note_on_c, 0, 61, 0
1, 41161, Note_on_c, 0, 56, 0
1, 41162, Note_on_c, 0, 65, 69
1, 41207, Note_on_c, 0, 42, 0
1, 41212, Note_on_c, 0, 57, 66
1, 41225, Note_on_c, 0, 57, 0
1, 41231, Note_on_c, 0, 65, 0
1, 41310, Note_on_c, 0, 65, 68
1, 41310, Note_on_c, 0, 61, 57
1, 41313, Note_on_c, 0, 58, 63
1, 41320, Control_c, 0, 64, 72
1, 41322, Control_c, 0, 64, 0
1, 41343, Control_c, 0, 64, 24
1, 41347, Control_c, 0, 64, 56
1, 41348, Control_c, 0, 64, 88
1, 41348, Control_c, 0, 64, 127
1, 41400, Note_on_c, 0, 61, 0
1, 41407, Note_on_c, 0, 65, 0
1, 41413, Note_on_c, 0, 58, 0
1, 41413, Note_on_c, 0, 49, 45
1, 41458, Note_on_c, 0, 66, 70
1, 41510, Note_on_c, 0, 61, 57
1, 41517, Note_on_c, 0, 66, 0
1, 41628, Control_c, 0, 64, 72
1, 41628, Note_on_c, 0, 70, 69
1, 41630, Control_c, 0, 64, 0
1, 41632, Note_on_c, 0, 66, 52
1, 41647, Control_c, 0, 64, 40
1, 41648, Control_c, 0, 64, 72
1, 41652, Control_c, 0, 64, 127
1, 41653, Note_on_c, 0, 49, 0
1, 41665, Note_on_c, 0, 61, 0
1, 41675, Note_on_c, 0, 70, 0
1, 41677, Note_on_c, 0, 66, 0
1, 41730, Note_on_c, 0, 61, 48
1, 41775, Note_on_c, 0, 71, 67
1, 41815, Note_on_c, 0, 62, 61
1, 41898, Note_on_c, 0, 72, 74
1, 41898, Note_on_c, 0, 63, 70
1, 41902, Note_on_c, 0, 71, 0
1, 41902, Control_c, 0, 64, 88
1, 41903, Control_c, 0, 64, 24
1, 41905, Control_c, 0, 64, 0
1, 41916, Control_c, 0, 64, 24
1, 41916, Control_c, 0, 64, 40
1, 41918, Control_c, 0, 64, 72
1, 41920, Control_c, 0, 64, 104
1, 41922, Control_c, 0, 64, 127
1, 41987, Note_on_c, 0, 62, 0
1, 41992, Note_on_c, 0, 64, 73
1, 41995, Note_on_c, 0, 63, 0
1, 42023, Note_on_c, 0, 72, 0
1, 42028, Note_on_c, 0, 73, 81
1, 42093, Note_on_c, 0, 64, 0
1, 42095, Note_on_c, 0, 65, 70
1, 42098, Note_on_c, 0, 61, 0
1, 42117, Note_on_c, 0, 65, 0
1, 42140, Note_on_c, 0, 73, 0
1, 42175, Note_on_c, 0, 61, 53
1, 42193, Control_c, 0, 64, 72
1, 42193, Note_on_c, 0, 66, 62
1, 42193, Control_c, 0, 64, 0
1, 42203, Control_c, 0, 64, 24
1, 42206, Control_c, 0, 64, 56
1, 42208, Control_c, 0, 64, 88
1, 42210, Control_c, 0, 64, 127
1, 42222, Note_on_c, 0, 70, 52
1, 42225, Note_on_c, 0, 61, 0
1, 42227, Note_on_c, 0, 66, 0
1, 42237, Note_on_c, 0, 73, 59
1, 42262, Note_on_c, 0, 78, 67
1, 42323, Note_on_c, 0, 90, 58
1, 42337, Note_on_c, 0, 90, 0
1, 42382, Note_on_c, 0, 78, 0
1, 42432, Note_on_c, 0, 61, 51
1, 42472, Note_on_c, 0, 80, 64
1, 42556, Note_on_c, 0, 49, 47
1, 42572, Note_on_c, 0, 80, 0
1, 42586, Note_on_c, 0, 61, 0
1, 42610, Note_on_c, 0, 49, 0
1, 42612, Note_on_c, 0, 73, 0
1, 42612, Note_on_c, 0, 70, 0
1, 42661, Note_on_c, 0, 70, 63
1, 42682, Note_on_c, 0, 73, 49
1, 42695, Note_on_c, 0, 70, 0
1, 42713, Note_on_c, 0, 77, 61
1, 42733, Note_on_c, 0, 82, 62
1, 42741, Note_on_c, 0, 77, 0
1, 42776, Note_on_c, 0, 30, 59
1, 42780, Note_on_c, 0, 82, 0
1, 42782, Note_on_c, 0, 73, 0
1, 42790, Note_on_c, 0, 30, 0
1, 42808, Note_on_c, 0, 85, 58
1, 42831, Note_on_c, 0, 85, 0
1, 42913, Note_on_c, 0, 42, 47
1, 42953, Note_on_c, 0, 83, 55
1, 42956, Note_on_c, 0, 71, 50
1, 42970, Note_on_c, 0, 83, 0
1, 42972, Note_on_c, 0, 71, 0
1, 43012, Note_on_c, 0, 49, 44
1, 43018, Note_on_c, 0, 42, 0
1, 43028, Note_on_c, 0, 49, 0
1, 43113, Note_on_c, 0, 77, 64
1, 43117, Note_on_c, 0, 65, 51
1, 43117, Note_on_c, 0, 73, 58
1, 43198, Note_on_c, 0, 77, 0
1, 43201, Note_on_c, 0, 65, 0
1, 43208, Note_on_c, 0, 59, 57
1, 43213, Note_on_c, 0, 73, 0
1, 43256, Note_on_c, 0, 78, 72
1, 43256, Note_on_c, 0, 66, 60
1, 43312, Note_on_c, 0, 61, 74
1, 43313, Note_on_c, 0, 59, 0
1, 43323, Note_on_c, 0, 66, 0
1, 43327, Note_on_c, 0, 61, 0
1, 43336, Note_on_c, 0, 78, 0
1, 43422, Note_on_c, 0, 59, 58
1, 43422, Note_on_c, 0, 65, 64
1, 43422, Note_on_c, 0, 67, 64
1, 43435, Note_on_c, 0, 89, 74
1, 43438, Note_on_c, 0, 79, 61
1, 43440, Note_on_c, 0, 77, 65
1, 43532, Note_on_c, 0, 79, 0
1, 43536, Note_on_c, 0, 67, 0
1, 43538, Note_on_c, 0, 61, 63
1, 43556, Note_on_c, 0, 65, 0
1, 43557, Note_on_c, 0, 59, 0
1, 43581, Note_on_c, 0, 77, 0
1, 43586, Note_on_c, 0, 80, 72
1, 43608, Note_on_c, 0, 89, 0
1, 43632, Note_on_c, 0, 80, 0
1, 43651, Note_on_c, 0, 68, 62
1, 43662, Note_on_c, 0, 68, 0
1, 43671, Note_on_c, 0, 61, 0
1, 43718, Note_on_c, 0, 68, 52
1, 43731, Note_on_c, 0, 72, 53
1, 43743, Note_on_c, 0, 75, 67
1, 43747, Note_on_c, 0, 68, 0
1, 43761, Note_on_c, 0, 72, 0
1, 43762, Note_on_c, 0, 80, 77
1, 43771, Note_on_c, 0, 75, 0
1, 43776, Note_on_c, 0, 80, 0
1, 43806, Note_on_c, 0, 30, 68
1, 43817, Note_on_c, 0, 30, 0
1, 43833, Note_on_c, 0, 84, 62
1, 43902, Note_on_c, 0, 84, 0
1, 43936, Note_on_c, 0, 42, 59
1, 43978, Note_on_c, 0, 81, 76
1, 43982, Note_on_c, 0, 69, 57
1, 43998, Note_on_c, 0, 69, 0
1, 44002, Note_on_c, 0, 81, 0
1, 44026, Note_on_c, 0, 51, 65
1, 44030, Note_on_c, 0, 42, 0
1, 44041, Note_on_c, 0, 51, 0
1, 44117, Note_on_c, 0, 75, 68
1, 44117, Note_on_c, 0, 63, 59
1, 44121, Note_on_c, 0, 72, 51
1, 44185, Note_on_c, 0, 63, 0
1, 44190, Note_on_c, 0, 72, 0
1, 44193, Note_on_c, 0, 75, 0
1, 44211, Note_on_c, 0, 57, 61
1, 44247, Note_on_c, 0, 77, 69
1, 44251, Note_on_c, 0, 65, 55
1, 44285, Note_on_c, 0, 65, 0
1, 44301, Note_on_c, 0, 60, 57
1, 44302, Note_on_c, 0, 57, 0
1, 44303, Note_on_c, 0, 77, 0
1, 44308, Note_on_c, 0, 60, 0
1, 44356, Note_on_c, 0, 72, 45
1, 44366, Note_on_c, 0, 75, 47
1, 44376, Note_on_c, 0, 72, 0
1, 44380, Note_on_c, 0, 78, 68
1, 44412, Note_on_c, 0, 75, 0
1, 44415, Note_on_c, 0, 66, 60
1, 44416, Note_on_c, 0, 63, 60
1, 44417, Note_on_c, 0, 87, 66
1, 44451, Note_on_c, 0, 78, 0
1, 44457, Note_on_c, 0, 66, 0
1, 44511, Note_on_c, 0, 87, 0
1, 44516, Note_on_c, 0, 60, 57
1, 44565, Note_on_c, 0, 79, 72
1, 44586, Note_on_c, 0, 79, 0
1, 44625, Note_on_c, 0, 67, 52
1, 44630, Note_on_c, 0, 67, 0
1, 44636, Note_on_c, 0, 63, 0
1, 44637, Note_on_c, 0, 60, 0
1, 44680, Note_on_c, 0, 67, 51
1, 44690, Note_on_c, 0, 71, 43
1, 44698, Note_on_c, 0, 75, 51
1, 44703, Note_on_c, 0, 67, 0
1, 44715, Note_on_c, 0, 79, 65
1, 44716, Note_on_c, 0, 71, 0
1, 44722, Note_on_c, 0, 75, 0
1, 44725, Note_on_c, 0, 79, 0
1, 44761, Note_on_c, 0, 30, 63
1, 44762, Note_on_c, 0, 42, 53
1, 44766, Note_on_c, 0, 30, 0
1, 44770, Note_on_c, 0, 42, 0
1, 44780, Note_on_c, 0, 83, 72
1, 44837, Note_on_c, 0, 83, 0
1, 44877, Note_on_c, 0, 56, 63
1, 44946, Note_on_c, 0, 80, 71
1, 44946, Note_on_c, 0, 68, 60
1, 44977, Note_on_c, 0, 68, 0
1, 44987, Note_on_c, 0, 59, 55
1, 44991, Note_on_c, 0, 80, 0
1, 44995, Note_on_c, 0, 59, 0
1, 44996, Note_on_c, 0, 56, 0
1, 45030, Note_on_c, 0, 71, 49
1, 45042, Note_on_c, 0, 74, 50
1, 45051, Note_on_c, 0, 71, 0
1, 45051, Note_on_c, 0, 77, 78
1, 45061, Note_on_c, 0, 74, 0
1, 45065, Note_on_c, 0, 77, 0
1, 45092, Note_on_c, 0, 62, 57
1, 45095, Note_on_c, 0, 65, 61
1, 45101, Note_on_c, 0, 86, 75
1, 45190, Note_on_c, 0, 65, 0
1, 45200, Note_on_c, 0, 59, 50
1, 45233, Note_on_c, 0, 86, 0
1, 45236, Note_on_c, 0, 78, 69
1, 45285, Note_on_c, 0, 78, 0
1, 45286, Note_on_c, 0, 66, 56
1, 45292, Note_on_c, 0, 62, 0
1, 45300, Note_on_c, 0, 59, 0
1, 45302, Note_on_c, 0, 66, 0
1, 45410, Note_on_c, 0, 82, 61
1, 45411, Note_on_c, 0, 70, 52
1, 45412, Note_on_c, 0, 76, 61
1, 45413, Note_on_c, 0, 73, 56
1, 45416, Note_on_c, 0, 61, 51
1, 45418, Note_on_c, 0, 64, 52
1, 45427, Control_c, 0, 64, 88
1, 45428, Control_c, 0, 64, 0
1, 45441, Control_c, 0, 64, 24
1, 45442, Control_c, 0, 64, 72
1, 45446, Control_c, 0, 64, 127
1, 45470, Note_on_c, 0, 61, 0
1, 45481, Note_on_c, 0, 64, 0
1, 45513, Note_on_c, 0, 76, 0
1, 45520, Note_on_c, 0, 49, 61
1, 45541, Note_on_c, 0, 49, 0
1, 45576, Note_on_c, 0, 77, 65
1, 45657, Note_on_c, 0, 65, 54
1, 45658, Note_on_c, 0, 59, 53
1, 45665, Note_on_c, 0, 70, 0
1, 45671, Note_on_c, 0, 82, 0
1, 45672, Note_on_c, 0, 73, 0
1, 45675, Note_on_c, 0, 77, 0
1, 45686, Note_on_c, 0, 65, 0
1, 45690, Note_on_c, 0, 59, 0
1, 45721, Note_on_c, 0, 70, 43
1, 45737, Note_on_c, 0, 73, 51
1, 45758, Note_on_c, 0, 77, 53
1, 45823, Note_on_c, 0, 30, 53
1, 45831, Note_on_c, 0, 30, 0
1, 45845, Note_on_c, 0, 85, 67
1, 45872, Note_on_c, 0, 85, 0
1, 45872, Note_on_c, 0, 70, 0
1, 45875, Note_on_c, 0, 77, 0
1, 45878, Note_on_c, 0, 73, 0
1, 45986, Note_on_c, 0, 42, 43
1, 45990, Note_on_c, 0, 78, 62
1, 45990, Note_on_c, 0, 66, 54
1, 46006, Note_on_c, 0, 66, 0
1, 46015, Note_on_c, 0, 78, 0
1, 46086, Note_on_c, 0, 80, 63
1, 46090, Note_on_c, 0, 68, 49
1, 46091, Note_on_c, 0, 42, 0
1, 46091, Note_on_c, 0, 49, 39
1, 46101, Note_on_c, 0, 49, 0
1, 46105, Note_on_c, 0, 68, 0
1, 46106, Note_on_c, 0, 80, 0
1, 46203, Note_on_c, 0, 78, 63
1, 46206, Note_on_c, 0, 66, 47
1, 46208, Note_on_c, 0, 58, 60
1, 46280, Note_on_c, 0, 66, 0
1, 46308, Note_on_c, 0, 59, 66
1, 46326, Note_on_c, 0, 58, 0
1, 46348, Note_on_c, 0, 68, 61
1, 46393, Note_on_c, 0, 60, 77
1, 46395, Note_on_c, 0, 59, 0
1, 46421, Note_on_c, 0, 78, 0
1, 46421, Note_on_c, 0, 68, 0
1, 46505, Note_on_c, 0, 61, 61
1, 46507, Note_on_c, 0, 78, 65
1, 46508, Note_on_c, 0, 69, 51
1, 46511, Note_on_c, 0, 60, 0
1, 46518, Control_c, 0, 64, 88
1, 46520, Control_c, 0, 64, 0
1, 46533, Control_c, 0, 64, 40
1, 46536, Control_c, 0, 64, 72
1, 46538, Control_c, 0, 64, 127
1, 46625, Note_on_c, 0, 66, 56
1, 46646, Note_on_c, 0, 61, 0
1, 46648, Note_on_c, 0, 66, 0
1, 46651, Note_on_c, 0, 69, 0
1, 46671, Note_on_c, 0, 70, 68
1, 46723, Note_on_c, 0, 78, 0
1, 46726, Note_on_c, 0, 70, 0
1, 46748, Note_on_c, 0, 49, 50
1, 46771, Note_on_c, 0, 49, 0
1, 46836, Note_on_c, 0, 59, 57
1, 46855, Note_on_c, 0, 65, 46
1, 46870, Note_on_c, 0, 70, 60
1, 46898, Note_on_c, 0, 30, 53
1, 46898, Note_on_c, 0, 73, 75
1, 46905, Note_on_c, 0, 30, 0
1, 46978, Note_on_c, 0, 59, 0
1, 46988, Note_on_c, 0, 65, 0
1, 46988, Note_on_c, 0, 70, 0
1, 46991, Note_on_c, 0, 73, 0
1, 47001, Note_on_c, 0, 42, 50
1, 47037, Note_on_c, 0, 71, 67
1, 47093, Note_on_c, 0, 49, 47
1, 47096, Note_on_c, 0, 42, 0
1, 47103, Note_on_c, 0, 49, 0
1, 47196, Note_on_c, 0, 65, 53
1, 47200, Note_on_c, 0, 56, 50
1, 47302, Note_on_c, 0, 56, 0
1, 47303, Note_on_c, 0, 57, 59
1, 47303, Note_on_c, 0, 66, 68
1, 47305, Note_on_c, 0, 65, 0
1, 47316, Note_on_c, 0, 71, 0
1, 47373, Note_on_c, 0, 66, 0
1, 47385, Note_on_c, 0, 57, 0
1, 47385, Note_on_c, 0, 67, 70
1, 47385, Note_on_c, 0, 58, 66
1, 47398, Note_on_c, 0, 67, 0
1, 47483, Note_on_c, 0, 59, 69
1, 47485, Note_on_c, 0, 58, 0
1, 47502, Note_on_c, 0, 77, 76
1, 47505, Note_on_c, 0, 65, 61
1, 47505, Note_on_c, 0, 67, 57
1, 47506, Control_c, 0, 64, 104
1, 47507, Control_c, 0, 64, 0
1, 47518, Control_c, 0, 64, 24
1, 47520, Control_c, 0, 64, 56
1, 47523, Control_c, 0, 64, 104
1, 47525, Control_c, 0, 64, 127
1, 47565, Note_on_c, 0, 67, 0
1, 47566, Note_on_c, 0, 59, 0
1, 47607, Note_on_c, 0, 49, 58
1, 47647, Note_on_c, 0, 65, 0
1, 47658, Note_on_c, 0, 68, 74
1, 47660, Note_on_c, 0, 77, 0
1, 47683, Note_on_c, 0, 68, 0
1, 47715, Note_on_c, 0, 42, 54
1, 47725, Note_on_c, 0, 49, 0
1, 47737, Note_on_c, 0, 42, 0
1, 47793, Note_on_c, 0, 60, 43
1, 47805, Note_on_c, 0, 63, 61
1, 47820, Note_on_c, 0, 68, 63
1, 47831, Note_on_c, 0, 72, 70
1, 47928, Note_on_c, 0, 30, 54
1, 47938, Note_on_c, 0, 68, 0
1, 47942, Note_on_c, 0, 30, 0
1, 47946, Note_on_c, 0, 63, 0
1, 47953, Note_on_c, 0, 72, 0
1, 47958, Note_on_c, 0, 60, 0
1, 47968, Note_on_c, 0, 69, 66
1, 48018, Note_on_c, 0, 51, 51
1, 48128, Note_on_c, 0, 54, 45
1, 48132, Note_on_c, 0, 63, 66
1, 48150, Note_on_c, 0, 69, 0
1, 48223, Note_on_c, 0, 63, 0
1, 48223, Note_on_c, 0, 64, 72
1, 48223, Note_on_c, 0, 55, 61
1, 48296, Note_on_c, 0, 64, 0
1, 48298, Note_on_c, 0, 54, 0
1, 48300, Note_on_c, 0, 65, 74
1, 48301, Note_on_c, 0, 56, 71
1, 48306, Note_on_c, 0, 55, 0
1, 48310, Note_on_c, 0, 65, 0
1, 48337, Note_on_c, 0, 51, 0
1, 48386, Note_on_c, 0, 60, 61
1, 48398, Note_on_c, 0, 66, 71
1, 48417, Note_on_c, 0, 75, 71
1, 48422, Note_on_c, 0, 56, 0
1, 48427, Note_on_c, 0, 57, 73
1, 48463, Control_c, 0, 64, 0
1, 48491, Control_c, 0, 64, 127
1, 48516, Note_on_c, 0, 51, 59
1, 48557, Note_on_c, 0, 57, 0
1, 48565, Note_on_c, 0, 66, 0
1, 48570, Note_on_c, 0, 75, 0
1, 48578, Note_on_c, 0, 67, 67
1, 48588, Note_on_c, 0, 60, 0
1, 48600, Note_on_c, 0, 67, 0
1, 48627, Note_on_c, 0, 42, 52
1, 48717, Note_on_c, 0, 59, 46
1, 48727, Note_on_c, 0, 63, 57
1, 48741, Note_on_c, 0, 67, 55
1, 48755, Control_c, 0, 64, 0
1, 48767, Note_on_c, 0, 71, 65
1, 48798, Control_c, 0, 64, 127
1, 48813, Note_on_c, 0, 51, 0
1, 48840, Note_on_c, 0, 67, 0
1, 48878, Note_on_c, 0, 68, 69
1, 48917, Note_on_c, 0, 30, 50
1, 48923, Note_on_c, 0, 42, 0
1, 48941, Note_on_c, 0, 68, 0
1, 48941, Note_on_c, 0, 63, 0
1, 48941, Note_on_c, 0, 30, 0
1, 48953, Note_on_c, 0, 59, 0
1, 48958, Note_on_c, 0, 71, 0
1, 48965, Note_on_c, 0, 67, 63
1, 48982, Note_on_c, 0, 67, 0
1, 49026, Note_on_c, 0, 59, 44
1, 49038, Note_on_c, 0, 62, 46
1, 49053, Note_on_c, 0, 66, 56
1, 49071, Control_c, 0, 64, 0
1, 49072, Note_on_c, 0, 42, 53
1, 49073, Note_on_c, 0, 74, 70
1, 49092, Control_c, 0, 64, 127
1, 49110, Note_on_c, 0, 66, 0
1, 49126, Note_on_c, 0, 74, 0
1, 49133, Note_on_c, 0, 59, 0
1, 49148, Note_on_c, 0, 62, 0
1, 49182, Note_on_c, 0, 67, 61
1, 49226, Note_on_c, 0, 50, 46
1, 49262, Note_on_c, 0, 42, 0
1, 49267, Note_on_c, 0, 67, 0
1, 49276, Note_on_c, 0, 50, 0
1, 49282, Note_on_c, 0, 66, 69
1, 49298, Note_on_c, 0, 66, 0
1, 49377, Note_on_c, 0, 59, 49
1, 49387, Note_on_c, 0, 62, 43
1, 49398, Note_on_c, 0, 65, 57
1, 49421, Note_on_c, 0, 69, 70
1, 49426, Note_on_c, 0, 49, 52
1, 49438, Control_c, 0, 64, 72
1, 49438, Control_c, 0, 64, 24
1, 49442, Control_c, 0, 64, 0
1, 49447, Control_c, 0, 64, 24
1, 49448, Control_c, 0, 64, 40
1, 49452, Control_c, 0, 64, 72
1, 49453, Control_c, 0, 64, 104
1, 49457, Control_c, 0, 64, 127
1, 49476, Note_on_c, 0, 65, 0
1, 49488, Note_on_c, 0, 62, 0
1, 49491, Note_on_c, 0, 59, 0
1, 49493, Note_on_c, 0, 69, 0
1, 49557, Note_on_c, 0, 64, 66
1, 49611, Control_c, 0, 67, 127
1, 49628, Note_on_c, 0, 61, 48
1, 49683, Note_on_c, 0, 65, 57
1, 49686, Note_on_c, 0, 64, 0
1, 49703, Note_on_c, 0, 49, 0
1, 49706, Note_on_c, 0, 61, 0
1, 49708, Note_on_c, 0, 65, 0
1, 49833, Note_on_c, 0, 49, 45
1, 49843, Note_on_c, 0, 58, 43
1, 49856, Note_on_c, 0, 61, 43
1, 49871, Note_on_c, 0, 65, 66
1, 49883, Note_on_c, 0, 73, 58
1, 49883, Control_c, 0, 67, 40
1, 49896, Control_c, 0, 67, 56
1, 49901, Control_c, 0, 67, 72
1, 49903, Control_c, 0, 67, 88
1, 49907, Control_c, 0, 67, 104
1, 49911, Control_c, 0, 67, 127
1, 50033, Note_on_c, 0, 66, 61
1, 50037, Note_on_c, 0, 65, 0
1, 50053, Note_on_c, 0, 61, 0
1, 50081, Note_on_c, 0, 58, 0
1, 50131, Note_on_c, 0, 49, 0
1, 50133, Note_on_c, 0, 68, 57
1, 50137, Note_on_c, 0, 66, 0
1, 50237, Note_on_c, 0, 42, 40
1, 50241, Note_on_c, 0, 66, 53
1, 50248, Note_on_c, 0, 68, 0
1, 50266, Control_c, 0, 64, 0
1, 50312, Control_c, 0, 64, 127
1, 50333, Note_on_c, 0, 73, 0
1, 50333, Note_on_c, 0, 42, 0
1, 50335, Note_on_c, 0, 66, 0
1, 50396, Control_c, 0, 64, 24
1, 50397, Control_c, 0, 64, 40
1, 50401, Control_c, 0, 64, 72
1, 50403, Note_on_c, 0, 66, 45
1, 50405, Note_on_c, 0, 61, 38
1, 50405, Control_c, 0, 64, 104
1, 50406, Note_on_c, 0, 58, 39
1, 50410, Control_c, 0, 64, 127
1, 50608, Note_on_c, 0, 54, 74
1, 50643, Note_on_c, 0, 58, 0
1, 50645, Note_on_c, 0, 66, 0
1, 50645, Note_on_c, 0, 61, 0
1, 50782, Note_on_c, 0, 66, 47
1, 50785, Note_on_c, 0, 58, 42
1, 50785, Note_on_c, 0, 61, 43
1, 50793, Note_on_c, 0, 54, 0
1, 50932, Note_on_c, 0, 49, 70
1, 50948, Control_c, 0, 64, 88
1, 50950, Control_c, 0, 64, 40
1, 50953, Control_c, 0, 64, 0
1, 50981, Control_c, 0, 64, 24
1, 50983, Control_c, 0, 64, 40
1, 50986, Control_c, 0, 64, 88
1, 50988, Control_c, 0, 64, 127
1, 51015, Note_on_c, 0, 61, 0
1, 51015, Note_on_c, 0, 58, 0
1, 51021, Note_on_c, 0, 66, 0
1, 51092, Note_on_c, 0, 66, 56
1, 51095, Note_on_c, 0, 61, 48
1, 51095, Note_on_c, 0, 58, 47
1, 51276, Note_on_c, 0, 58, 0
1, 51280, Note_on_c, 0, 66, 0
1, 51281, Note_on_c, 0, 61, 0
1, 51405, Note_on_c, 0, 61, 40
1, 51407, Note_on_c, 0, 66, 54
1, 51410, Note_on_c, 0, 58, 45
1, 51420, Note_on_c, 0, 49, 0
1, 51468, Note_on_c, 0, 58, 0
1, 51473, Note_on_c, 0, 61, 0
1, 51480, Note_on_c, 0, 66, 0
1, 51605, Note_on_c, 0, 58, 75
1, 51823, Note_on_c, 0, 66, 52
1, 51826, Note_on_c, 0, 61, 47
1, 51842, Note_on_c, 0, 58, 0
1, 51891, Note_on_c, 0, 61, 0
1, 51900, Note_on_c, 0, 66, 0
1, 51900, Note_on_c, 0, 56, 63
1, 52020, Note_on_c, 0, 54, 72
1, 52028, Note_on_c, 0, 56, 0
1, 52040, Control_c, 0, 64, 88
1, 52042, Control_c, 0, 64, 24
1, 52046, Control_c, 0, 64, 0
1, 52160, Control_c, 0, 64, 24
1, 52162, Control_c, 0, 64, 40
1, 52166, Control_c, 0, 64, 72
1, 52167, Control_c, 0, 64, 104
1, 52171, Control_c, 0, 64, 127
1, 52186, Note_on_c, 0, 61, 43
1, 52186, Note_on_c, 0, 70, 51
1, 52188, Note_on_c, 0, 66, 45
1, 52337, Note_on_c, 0, 61, 0
1, 52341, Note_on_c, 0, 66, 0
1, 52343, Note_on_c, 0, 70, 0
1, 52356, Note_on_c, 0, 54, 0
1, 52520, Note_on_c, 0, 61, 43
1, 52520, Note_on_c, 0, 70, 47
1, 52521, Note_on_c, 0, 66, 44
1, 52555, Note_on_c, 0, 61, 0
1, 52557, Note_on_c, 0, 66, 0
1, 52563, Note_on_c, 0, 70, 0
1, 52703, Note_on_c, 0, 61, 70
1, 52717, Control_c, 0, 64, 88
1, 52720, Control_c, 0, 64, 0
1, 52758, Control_c, 0, 64, 24
1, 52761, Control_c, 0, 64, 56
1, 52763, Control_c, 0, 64, 104
1, 52766, Control_c, 0, 64, 127
1, 52845, Note_on_c, 0, 70, 49
1, 52846, Note_on_c, 0, 66, 47
1, 52885, Note_on_c, 0, 66, 0
1, 52885, Note_on_c, 0, 61, 0
1, 52892, Note_on_c, 0, 70, 0
1, 53013, Note_on_c, 0, 58, 62
1, 53033, Control_c, 0, 64, 104
1, 53036, Control_c, 0, 64, 40
1, 53038, Control_c, 0, 64, 0
1, 53082, Control_c, 0, 64, 24
1, 53086, Control_c, 0, 64, 72
1, 53090, Control_c, 0, 64, 104
1, 53092, Control_c, 0, 64, 127
1, 53191, Note_on_c, 0, 73, 51
1, 53192, Note_on_c, 0, 66, 41
1, 53192, Note_on_c, 0, 70, 45
1, 53352, Note_on_c, 0, 58, 0
1, 53355, Note_on_c, 0, 70, 0
1, 53355, Note_on_c, 0, 66, 0
1, 53367, Note_on_c, 0, 73, 0
1, 53592, Note_on_c, 0, 61, 53
1, 53595, Note_on_c, 0, 66, 44
1, 53597, Note_on_c, 0, 73, 49
1, 53598, Note_on_c, 0, 70, 47
1, 53606, Control_c, 0, 64, 88
1, 53610, Control_c, 0, 64, 24
1, 53612, Control_c, 0, 64, 0
1, 53645, Control_c, 0, 64, 24
1, 53648, Control_c, 0, 64, 56
1, 53651, Control_c, 0, 64, 104
1, 53652, Control_c, 0, 64, 127
1, 53681, Note_on_c, 0, 61, 0
1, 53807, Note_on_c, 0, 65, 64
1, 53827, Control_c, 0, 64, 104
1, 53830, Control_c, 0, 64, 24
1, 53833, Control_c, 0, 64, 0
1, 53866, Control_c, 0, 64, 24
1, 53868, Control_c, 0, 64, 56
1, 53870, Control_c, 0, 64, 88
1, 53873, Control_c, 0, 64, 127
1, 53930, Note_on_c, 0, 63, 65
1, 53935, Note_on_c, 0, 65, 0
1, 53948, Note_on_c, 0, 66, 0
1, 53952, Note_on_c, 0, 70, 0
1, 53956, Note_on_c, 0, 73, 0
1, 54002, Note_on_c, 0, 66, 49
1, 54005, Note_on_c, 0, 73, 52
1, 54005, Note_on_c, 0, 70, 52
1, 54047, Control_c, 0, 64, 104
1, 54050, Control_c, 0, 64, 40
1, 54052, Note_on_c, 0, 61, 57
1, 54053, Control_c, 0, 64, 0
1, 54061, Note_on_c, 0, 63, 0
1, 54110, Control_c, 0, 64, 40
1, 54112, Control_c, 0, 64, 88
1, 54115, Control_c, 0, 64, 127
1, 54118, Note_on_c, 0, 61, 0
1, 54123, Note_on_c, 0, 70, 0
1, 54131, Note_on_c, 0, 66, 0
1, 54142, Note_on_c, 0, 73, 0
1, 54225, Note_on_c, 0, 70, 70
1, 54503, Note_on_c, 0, 66, 41
1, 54506, Note_on_c, 0, 73, 47
1, 54580, Note_on_c, 0, 66, 0
1, 54601, Note_on_c, 0, 73, 0
1, 54825, Note_on_c, 0, 66, 43
1, 54826, Note_on_c, 0, 73, 48
1, 55020, Note_on_c, 0, 66, 0
1, 55026, Note_on_c, 0, 73, 0
1, 55207, Note_on_c, 0, 73, 44
1, 55210, Note_on_c, 0, 66, 31
1, 55446, Note_on_c, 0, 66, 0
1, 55453, Note_on_c, 0, 73, 0
1, 55706, Note_on_c, 0, 73, 42
1, 55708, Note_on_c, 0, 66, 31
1, 55743, Note_on_c, 0, 73, 0
1, 55745, Note_on_c, 0, 66, 0
1, 55781, Note_on_c, 0, 70, 0
1, 56168, Control_c, 0, 64, 104
1, 56172, Control_c, 0, 64, 72
1, 56176, Control_c, 0, 64, 56
1, 56177, Control_c, 0, 64, 24
1, 56181, Control_c, 0, 64, 0
1, 56338, Control_c, 0, 67, 0
1, 56358, Control_c, 0, 64, 24
1, 56362, Control_c, 0, 64, 40
1, 56365, Control_c, 0, 64, 72
1, 56368, Control_c, 0, 64, 88
1, 56371, Control_c, 0, 64, 104
1, 56373, Control_c, 0, 64, 127
1, 56488, Note_on_c, 0, 73, 68
1, 56495, Note_on_c, 0, 61, 48
1, 56495, Note_on_c, 0, 65, 57
1, 56497, Note_on_c, 0, 59, 55
1, 56500, Note_on_c, 0, 56, 48
1, 56505, Note_on_c, 0, 49, 54
1, 56525, Note_on_c, 0, 56, 0
1, 56527, Note_on_c, 0, 59, 0
1, 56528, Note_on_c, 0, 49, 0
1, 56615, Note_on_c, 0, 61, 0
1, 56625, Note_on_c, 0, 73, 0
1, 56626, Note_on_c, 0, 65, 0
1, 56860, Control_c, 0, 67, 127
1, 57128, Note_on_c, 0, 66, 56
1, 57131, Note_on_c, 0, 58, 53
1, 57133, Note_on_c, 0, 54, 52
1, 57136, Note_on_c, 0, 42, 40
1, 57137, Note_on_c, 0, 49, 47
1, 57163, Control_c, 0, 64, 104
1, 57167, Control_c, 0, 64, 56
1, 57171, Control_c, 0, 64, 0
1, 58962, Note_on_c, 0, 66, 0
1, 58963, Note_on_c, 0, 42, 0
1, 58963, Note_on_c, 0, 58, 0
1, 58966, Note_on_c, 0, 54, 0
1, 58968, Note_on_c, 0, 49, 0
1, 59664, Note_on_c, 0, 121, 1
1, 59844, Note_on_c, 0, 121, 0
1, 59844, End_track
0, 0, End_of_file
