0, 0, Header, 1, 3, 360
1, 0, Start_track
1, 0, Title_t, "untitled"
1, 0, Time_signature, 4, 2, 24, 8
1, 0, Key_signature, 0, "major"
1, 0, Tempo, 500000
1, 37800, Tempo, 500000
1, 37852, Tempo, 507357
1, 37904, Tempo, 514889
1, 37956, Tempo, 522694
1, 38008, Tempo, 530739
1, 38060, Tempo, 539035
1, 38112, Tempo, 547545
1, 38164, Tempo, 556380
1, 38216, Tempo, 565504
1, 38268, Tempo, 574878
1, 38321, Tempo, 584624
1, 38372, Tempo, 594707
1, 38424, Tempo, 605083
1, 38477, Tempo, 615890
1, 38529, Tempo, 627090
1, 38580, Tempo, 638706
1, 38633, Tempo, 650689
1, 38699, Tempo, 666667
1, 38790, Tempo, 5000000
1, 38880, Time_signature, 6, 3, 12, 8
1, 38880, Key_signature, 4, "major"
1, 38880, Tempo, 666667
1, 84240, Tempo, 750000
1, 84292, Tempo, 761132
1, 84344, Tempo, 772599
1, 84396, Tempo, 784416
1, 84448, Tempo, 796601
1, 84500, Tempo, 809171
1, 84552, Tempo, 822256
1, 84604, Tempo, 835655
1, 84656, Tempo, 849497
1, 84708, Tempo, 863807
1, 84761, Tempo, 878606
1, 84812, Tempo, 893921
1, 84864, Tempo, 909780
1, 84917, Tempo, 926212
1, 84969, Tempo, 943248
1, 85020, Tempo, 960922
1, 85073, Tempo, 979272
1, 85129, Tempo, 1000000
1, 85320, Tempo, 1000000
1, 85367, Tempo, 1014542
1, 85413, Tempo, 1029513
1, 85459, Tempo, 1044932
1, 85506, Tempo, 1060820
1, 85552, Tempo, 1077199
1, 85599, Tempo, 1094291
1, 85645, Tempo, 1111729
1, 85691, Tempo, 1129731
1, 85738, Tempo, 1148325
1, 85784, Tempo, 1167542
1, 85830, Tempo, 1187413
1, 85877, Tempo, 1207973
1, 85923, Tempo, 1229256
1, 85970, Tempo, 1251303
1, 86016, Tempo, 1274156
1, 86063, Tempo, 1297859
1, 86129, Tempo, 1333333
1, 86400, Tempo, 800000
1, 120960, Tempo, 800000
1, 121087, Tempo, 812018
1, 121213, Tempo, 824516
1, 121340, Tempo, 837287
1, 121466, Tempo, 850461
1, 121593, Tempo, 864055
1, 121719, Tempo, 878220
1, 121846, Tempo, 892724
1, 122099, Tempo, 923219
1, 122226, Tempo, 939408
1, 122352, Tempo, 956023
1, 122479, Tempo, 973236
1, 122606, Tempo, 991080
1, 122732, Tempo, 1009761
1, 122859, Tempo, 1028983
1, 122985, Tempo, 1048951
1, 123122, Tempo, 1071429
1, 124110, Tempo, 5000000
1, 124200, Tempo, 1071429
1, 124200, End_track
2, 0, Start_track
2, 0, Title_t, "Primo"
2, 0, Program_c, 0, 0
2, 0, Control_c, 0, 7, 105
2, 0, Control_c, 0, 10, 79
2, 0, Control_c, 0, 91, 60
2, 0, Control_c, 0, 121, 0
2, 0, Control_c, 0, 121, 0
2, 0, Control_c, 0, 91, 60
2, 0, Control_c, 0, 10, 51
2, 0, Control_c, 0, 7, 100
2, 0, Note_on_c, 0, 76, 85
2, 0, Note_on_c, 0, 79, 85
2, 0, Note_on_c, 0, 82, 85
2, 0, Note_on_c, 0, 70, 80
2, 89, Note_on_c, 0, 70, 0
2, 89, Note_on_c, 0, 76, 0
2, 89, Note_on_c, 0, 79, 0
2, 89, Note_on_c, 0, 82, 0
2, 360, Note_on_c, 0, 76, 82
2, 360, Note_on_c, 0, 79, 82
2, 360, Note_on_c, 0, 83, 82
2, 360, Note_on_c, 0, 71, 81
2, 449, Note_on_c, 0, 71, 0
2, 449, Note_on_c, 0, 76, 0
2, 449, Note_on_c, 0, 79, 0
2, 449, Note_on_c, 0, 83, 0
2, 720, Note_on_c, 0, 84, 105
2, 720, Note_on_c, 0, 72, 107
2, 810, Note_on_c, 0, 72, 0
2, 810, Note_on_c, 0, 84, 0
2, 810, Note_on_c, 0, 85, 94
2, 810, Note_on_c, 0, 73, 94
2, 900, Note_on_c, 0, 73, 0
2, 900, Note_on_c, 0, 85, 0
2, 900, Note_on_c, 0, 86, 98
2, 900, Note_on_c, 0, 74, 99
2, 990, Note_on_c, 0, 74, 0
2, 990, Note_on_c, 0, 86, 0
2, 990, Note_on_c, 0, 85, 91
2, 990, Note_on_c, 0, 73, 85
2, 1080, Note_on_c, 0, 73, 0
2, 1080, Note_on_c, 0, 85, 0
2, 1080, Note_on_c, 0, 85, 90
2, 1080, Note_on_c, 0, 73, 97
2, 1260, Note_on_c, 0, 73, 0
2, 1260, Note_on_c, 0, 85, 0
2, 1260, Note_on_c, 0, 91, 104
2, 1260, Note_on_c, 0, 79, 106
2, 1349, Note_on_c, 0, 79, 0
2, 1349, Note_on_c, 0, 91, 0
2, 1440, Note_on_c, 0, 85, 76
2, 1440, Note_on_c, 0, 73, 77
2, 1529, Note_on_c, 0, 73, 0
2, 1529, Note_on_c, 0, 85, 0
2, 1620, Note_on_c, 0, 91, 105
2, 1620, Note_on_c, 0, 79, 103
2, 1709, Note_on_c, 0, 79, 0
2, 1709, Note_on_c, 0, 91, 0
2, 1800, Note_on_c, 0, 85, 78
2, 1800, Note_on_c, 0, 73, 76
2, 1889, Note_on_c, 0, 73, 0
2, 1889, Note_on_c, 0, 85, 0
2, 1980, Note_on_c, 0, 91, 106
2, 1980, Note_on_c, 0, 79, 106
2, 2069, Note_on_c, 0, 79, 0
2, 2069, Note_on_c, 0, 91, 0
2, 2160, Note_on_c, 0, 85, 77
2, 2160, Note_on_c, 0, 73, 75
2, 2249, Note_on_c, 0, 73, 0
2, 2249, Note_on_c, 0, 85, 0
2, 2880, Note_on_c, 0, 61, 81
2, 2970, Note_on_c, 0, 61, 0
2, 2970, Note_on_c, 0, 64, 98
2, 3060, Note_on_c, 0, 64, 0
2, 3060, Note_on_c, 0, 64, 94
2, 3150, Note_on_c, 0, 64, 0
2, 3150, Note_on_c, 0, 67, 106
2, 3240, Note_on_c, 0, 67, 0
2, 3240, Note_on_c, 0, 67, 81
2, 3330, Note_on_c, 0, 67, 0
2, 3330, Note_on_c, 0, 73, 93
2, 3420, Note_on_c, 0, 73, 0
2, 3420, Note_on_c, 0, 73, 95
2, 3420, Note_on_c, 0, 64, 96
2, 3420, Note_on_c, 0, 67, 96
2, 3509, Note_on_c, 0, 67, 0
2, 3509, Note_on_c, 0, 64, 0
2, 3510, Note_on_c, 0, 73, 0
2, 3510, Note_on_c, 0, 76, 97
2, 3600, Note_on_c, 0, 76, 0
2, 3600, Note_on_c, 0, 76, 99
2, 3600, Note_on_c, 0, 67, 106
2, 3600, Note_on_c, 0, 73, 106
2, 3689, Note_on_c, 0, 73, 0
2, 3689, Note_on_c, 0, 67, 0
2, 3690, Note_on_c, 0, 76, 0
2, 3690, Note_on_c, 0, 79, 102
2, 3780, Note_on_c, 0, 79, 0
2, 3780, Note_on_c, 0, 79, 104
2, 3780, Note_on_c, 0, 73, 106
2, 3780, Note_on_c, 0, 76, 106
2, 3869, Note_on_c, 0, 76, 0
2, 3869, Note_on_c, 0, 73, 0
2, 3870, Note_on_c, 0, 79, 0
2, 3870, Note_on_c, 0, 85, 106
2, 3960, Note_on_c, 0, 85, 0
2, 3960, Note_on_c, 0, 85, 107
2, 3960, Note_on_c, 0, 76, 101
2, 3960, Note_on_c, 0, 79, 101
2, 4049, Note_on_c, 0, 79, 0
2, 4049, Note_on_c, 0, 76, 0
2, 4050, Note_on_c, 0, 85, 0
2, 4050, Note_on_c, 0, 88, 107
2, 4140, Note_on_c, 0, 88, 0
2, 4140, Note_on_c, 0, 85, 107
2, 4140, Note_on_c, 0, 88, 107
2, 4140, Note_on_c, 0, 79, 89
2, 4229, Note_on_c, 0, 79, 0
2, 4230, Note_on_c, 0, 88, 0
2, 4230, Note_on_c, 0, 85, 0
2, 4230, Note_on_c, 0, 91, 107
2, 4320, Note_on_c, 0, 91, 0
2, 4320, Note_on_c, 0, 85, 104
2, 4320, Note_on_c, 0, 88, 104
2, 4320, Note_on_c, 0, 90, 104
2, 4320, Note_on_c, 0, 73, 87
2, 4320, Note_on_c, 0, 76, 87
2, 4320, Note_on_c, 0, 78, 87
2, 4409, Note_on_c, 0, 78, 0
2, 4409, Note_on_c, 0, 88, 0
2, 4409, Note_on_c, 0, 90, 0
2, 4409, Note_on_c, 0, 85, 0
2, 4409, Note_on_c, 0, 76, 0
2, 4409, Note_on_c, 0, 73, 0
2, 4500, Note_on_c, 0, 83, 106
2, 4500, Note_on_c, 0, 87, 106
2, 4500, Note_on_c, 0, 90, 106
2, 4500, Note_on_c, 0, 71, 95
2, 4500, Note_on_c, 0, 75, 95
2, 4500, Note_on_c, 0, 78, 95
2, 4589, Note_on_c, 0, 78, 0
2, 4589, Note_on_c, 0, 87, 0
2, 4589, Note_on_c, 0, 90, 0
2, 4589, Note_on_c, 0, 83, 0
2, 4589, Note_on_c, 0, 75, 0
2, 4589, Note_on_c, 0, 71, 0
2, 4950, Note_on_c, 0, 66, 106
2, 5040, Note_on_c, 0, 66, 0
2, 5040, Note_on_c, 0, 71, 107
2, 5760, Note_on_c, 0, 71, 0
2, 5760, Note_on_c, 0, 75, 83
2, 5760, Note_on_c, 0, 78, 83
2, 5760, Note_on_c, 0, 81, 83
2, 5760, Note_on_c, 0, 69, 91
2, 5849, Note_on_c, 0, 69, 0
2, 5849, Note_on_c, 0, 75, 0
2, 5849, Note_on_c, 0, 78, 0
2, 5849, Note_on_c, 0, 81, 0
2, 6120, Note_on_c, 0, 75, 84
2, 6120, Note_on_c, 0, 78, 84
2, 6120, Note_on_c, 0, 82, 84
2, 6120, Note_on_c, 0, 70, 81
2, 6209, Note_on_c, 0, 70, 0
2, 6209, Note_on_c, 0, 75, 0
2, 6209, Note_on_c, 0, 78, 0
2, 6209, Note_on_c, 0, 82, 0
2, 6480, Note_on_c, 0, 83, 100
2, 6480, Note_on_c, 0, 71, 106
2, 6570, Note_on_c, 0, 71, 0
2, 6570, Note_on_c, 0, 83, 0
2, 6570, Note_on_c, 0, 84, 100
2, 6570, Note_on_c, 0, 72, 95
2, 6660, Note_on_c, 0, 72, 0
2, 6660, Note_on_c, 0, 84, 0
2, 6660, Note_on_c, 0, 85, 97
2, 6660, Note_on_c, 0, 73, 97
2, 6750, Note_on_c, 0, 73, 0
2, 6750, Note_on_c, 0, 85, 0
2, 6750, Note_on_c, 0, 84, 86
2, 6750, Note_on_c, 0, 72, 88
2, 6840, Note_on_c, 0, 72, 0
2, 6840, Note_on_c, 0, 84, 0
2, 6840, Note_on_c, 0, 84, 94
2, 6840, Note_on_c, 0, 72, 92
2, 7020, Note_on_c, 0, 72, 0
2, 7020, Note_on_c, 0, 84, 0
2, 7020, Note_on_c, 0, 90, 106
2, 7020, Note_on_c, 0, 78, 106
2, 7109, Note_on_c, 0, 78, 0
2, 7109, Note_on_c, 0, 90, 0
2, 7200, Note_on_c, 0, 84, 76
2, 7200, Note_on_c, 0, 72, 74
2, 7289, Note_on_c, 0, 72, 0
2, 7289, Note_on_c, 0, 84, 0
2, 7380, Note_on_c, 0, 90, 106
2, 7380, Note_on_c, 0, 78, 106
2, 7469, Note_on_c, 0, 78, 0
2, 7469, Note_on_c, 0, 90, 0
2, 7560, Note_on_c, 0, 84, 75
2, 7560, Note_on_c, 0, 72, 78
2, 7649, Note_on_c, 0, 72, 0
2, 7649, Note_on_c, 0, 84, 0
2, 7740, Note_on_c, 0, 90, 106
2, 7740, Note_on_c, 0, 78, 106
2, 7829, Note_on_c, 0, 78, 0
2, 7829, Note_on_c, 0, 90, 0
2, 7920, Note_on_c, 0, 84, 80
2, 7920, Note_on_c, 0, 72, 75
2, 8009, Note_on_c, 0, 72, 0
2, 8009, Note_on_c, 0, 84, 0
2, 8640, Note_on_c, 0, 59, 80
2, 8730, Note_on_c, 0, 59, 0
2, 8730, Note_on_c, 0, 63, 103
2, 8820, Note_on_c, 0, 63, 0
2, 8820, Note_on_c, 0, 63, 97
2, 8910, Note_on_c, 0, 63, 0
2, 8910, Note_on_c, 0, 66, 106
2, 9000, Note_on_c, 0, 66, 0
2, 9000, Note_on_c, 0, 66, 78
2, 9090, Note_on_c, 0, 66, 0
2, 9090, Note_on_c, 0, 72, 106
2, 9180, Note_on_c, 0, 72, 0
2, 9180, Note_on_c, 0, 72, 93
2, 9180, Note_on_c, 0, 63, 94
2, 9180, Note_on_c, 0, 66, 94
2, 9269, Note_on_c, 0, 66, 0
2, 9269, Note_on_c, 0, 63, 0
2, 9270, Note_on_c, 0, 72, 0
2, 9270, Note_on_c, 0, 75, 95
2, 9360, Note_on_c, 0, 75, 0
2, 9360, Note_on_c, 0, 75, 98
2, 9360, Note_on_c, 0, 66, 106
2, 9360, Note_on_c, 0, 72, 106
2, 9449, Note_on_c, 0, 72, 0
2, 9449, Note_on_c, 0, 66, 0
2, 9450, Note_on_c, 0, 75, 0
2, 9450, Note_on_c, 0, 78, 100
2, 9540, Note_on_c, 0, 78, 0
2, 9540, Note_on_c, 0, 78, 103
2, 9540, Note_on_c, 0, 72, 104
2, 9540, Note_on_c, 0, 75, 104
2, 9629, Note_on_c, 0, 75, 0
2, 9629, Note_on_c, 0, 72, 0
2, 9630, Note_on_c, 0, 78, 0
2, 9630, Note_on_c, 0, 84, 105
2, 9720, Note_on_c, 0, 84, 0
2, 9720, Note_on_c, 0, 84, 107
2, 9720, Note_on_c, 0, 75, 104
2, 9720, Note_on_c, 0, 78, 104
2, 9809, Note_on_c, 0, 78, 0
2, 9809, Note_on_c, 0, 75, 0
2, 9810, Note_on_c, 0, 84, 0
2, 9810, Note_on_c, 0, 87, 107
2, 9900, Note_on_c, 0, 87, 0
2, 9900, Note_on_c, 0, 84, 107
2, 9900, Note_on_c, 0, 87, 107
2, 9900, Note_on_c, 0, 78, 98
2, 9989, Note_on_c, 0, 78, 0
2, 9990, Note_on_c, 0, 87, 0
2, 9990, Note_on_c, 0, 84, 0
2, 9990, Note_on_c, 0, 90, 107
2, 10080, Note_on_c, 0, 90, 0
2, 10080, Note_on_c, 0, 84, 104
2, 10080, Note_on_c, 0, 87, 104
2, 10080, Note_on_c, 0, 89, 104
2, 10080, Note_on_c, 0, 72, 89
2, 10080, Note_on_c, 0, 75, 89
2, 10080, Note_on_c, 0, 77, 89
2, 10169, Note_on_c, 0, 77, 0
2, 10169, Note_on_c, 0, 87, 0
2, 10169, Note_on_c, 0, 89, 0
2, 10169, Note_on_c, 0, 84, 0
2, 10169, Note_on_c, 0, 75, 0
2, 10169, Note_on_c, 0, 72, 0
2, 10260, Note_on_c, 0, 82, 106
2, 10260, Note_on_c, 0, 86, 106
2, 10260, Note_on_c, 0, 89, 106
2, 10260, Note_on_c, 0, 70, 88
2, 10260, Note_on_c, 0, 74, 88
2, 10260, Note_on_c, 0, 77, 88
2, 10349, Note_on_c, 0, 77, 0
2, 10349, Note_on_c, 0, 86, 0
2, 10349, Note_on_c, 0, 89, 0
2, 10349, Note_on_c, 0, 82, 0
2, 10349, Note_on_c, 0, 74, 0
2, 10349, Note_on_c, 0, 70, 0
2, 10710, Note_on_c, 0, 65, 106
2, 10800, Note_on_c, 0, 65, 0
2, 10800, Note_on_c, 0, 70, 107
2, 11520, Note_on_c, 0, 70, 0
2, 11520, Note_on_c, 0, 72, 77
2, 11520, Note_on_c, 0, 75, 77
2, 11520, Note_on_c, 0, 78, 77
2, 11520, Note_on_c, 0, 84, 77
2, 11609, Note_on_c, 0, 84, 0
2, 11609, Note_on_c, 0, 72, 0
2, 11609, Note_on_c, 0, 75, 0
2, 11609, Note_on_c, 0, 78, 0
2, 11880, Note_on_c, 0, 70, 107
2, 12240, Note_on_c, 0, 74, 79
2, 12240, Note_on_c, 0, 78, 79
2, 12240, Note_on_c, 0, 82, 79
2, 12240, Note_on_c, 0, 86, 79
2, 12329, Note_on_c, 0, 86, 0
2, 12329, Note_on_c, 0, 78, 0
2, 12329, Note_on_c, 0, 82, 0
2, 12329, Note_on_c, 0, 74, 0
2, 12600, Note_on_c, 0, 70, 0
2, 12600, Note_on_c, 0, 70, 107
2, 12960, Note_on_c, 0, 72, 85
2, 12960, Note_on_c, 0, 75, 85
2, 12960, Note_on_c, 0, 78, 85
2, 12960, Note_on_c, 0, 84, 85
2, 13049, Note_on_c, 0, 84, 0
2, 13049, Note_on_c, 0, 75, 0
2, 13049, Note_on_c, 0, 78, 0
2, 13049, Note_on_c, 0, 72, 0
2, 13080, Note_on_c, 0, 70, 0
2, 13080, Note_on_c, 0, 70, 107
2, 13199, Note_on_c, 0, 70, 0
2, 13199, Note_on_c, 0, 70, 107
2, 13320, Note_on_c, 0, 70, 0
2, 13320, Note_on_c, 0, 70, 107
2, 13680, Note_on_c, 0, 74, 82
2, 13680, Note_on_c, 0, 78, 82
2, 13680, Note_on_c, 0, 82, 82
2, 13680, Note_on_c, 0, 86, 82
2, 13769, Note_on_c, 0, 86, 0
2, 13769, Note_on_c, 0, 78, 0
2, 13769, Note_on_c, 0, 82, 0
2, 13769, Note_on_c, 0, 74, 0
2, 13800, Note_on_c, 0, 70, 0
2, 13800, Note_on_c, 0, 70, 107
2, 13919, Note_on_c, 0, 70, 0
2, 13919, Note_on_c, 0, 70, 107
2, 14040, Note_on_c, 0, 70, 0
2, 14040, Note_on_c, 0, 70, 107
2, 14400, Note_on_c, 0, 70, 0
2, 14400, Note_on_c, 0, 84, 82
2, 14490, Note_on_c, 0, 84, 0
2, 14490, Note_on_c, 0, 72, 64
2, 14580, Note_on_c, 0, 72, 0
2, 14580, Note_on_c, 0, 82, 106
2, 14670, Note_on_c, 0, 82, 0
2, 14670, Note_on_c, 0, 70, 68
2, 14760, Note_on_c, 0, 70, 0
2, 14760, Note_on_c, 0, 78, 106
2, 14850, Note_on_c, 0, 78, 0
2, 14850, Note_on_c, 0, 66, 68
2, 14940, Note_on_c, 0, 66, 0
2, 14940, Note_on_c, 0, 75, 106
2, 15030, Note_on_c, 0, 75, 0
2, 15030, Note_on_c, 0, 63, 65
2, 15120, Note_on_c, 0, 63, 0
2, 15120, Note_on_c, 0, 72, 106
2, 15210, Note_on_c, 0, 72, 0
2, 15210, Note_on_c, 0, 60, 64
2, 15300, Note_on_c, 0, 60, 0
2, 15300, Note_on_c, 0, 70, 106
2, 15390, Note_on_c, 0, 70, 0
2, 15390, Note_on_c, 0, 58, 79
2, 15480, Note_on_c, 0, 58, 0
2, 15480, Note_on_c, 0, 66, 106
2, 15570, Note_on_c, 0, 66, 0
2, 15570, Note_on_c, 0, 54, 82
2, 15660, Note_on_c, 0, 54, 0
2, 15660, Note_on_c, 0, 63, 106
2, 15750, Note_on_c, 0, 63, 0
2, 15750, Note_on_c, 0, 51, 84
2, 15840, Note_on_c, 0, 51, 0
2, 15840, Note_on_c, 0, 66, 106
2, 15930, Note_on_c, 0, 66, 0
2, 15930, Note_on_c, 0, 54, 84
2, 16020, Note_on_c, 0, 54, 0
2, 16020, Note_on_c, 0, 70, 106
2, 16110, Note_on_c, 0, 70, 0
2, 16110, Note_on_c, 0, 58, 86
2, 16200, Note_on_c, 0, 58, 0
2, 16200, Note_on_c, 0, 75, 106
2, 16290, Note_on_c, 0, 75, 0
2, 16290, Note_on_c, 0, 63, 71
2, 16380, Note_on_c, 0, 63, 0
2, 16380, Note_on_c, 0, 78, 106
2, 16470, Note_on_c, 0, 78, 0
2, 16470, Note_on_c, 0, 66, 71
2, 16560, Note_on_c, 0, 66, 0
2, 16560, Note_on_c, 0, 82, 106
2, 16650, Note_on_c, 0, 82, 0
2, 16650, Note_on_c, 0, 74, 73
2, 16740, Note_on_c, 0, 74, 0
2, 16740, Note_on_c, 0, 75, 98
2, 16830, Note_on_c, 0, 75, 0
2, 16830, Note_on_c, 0, 77, 99
2, 16920, Note_on_c, 0, 77, 0
2, 16920, Note_on_c, 0, 78, 98
2, 17010, Note_on_c, 0, 78, 0
2, 17010, Note_on_c, 0, 80, 103
2, 17100, Note_on_c, 0, 80, 0
2, 17100, Note_on_c, 0, 82, 102
2, 17190, Note_on_c, 0, 82, 0
2, 17190, Note_on_c, 0, 84, 104
2, 17280, Note_on_c, 0, 84, 0
2, 17280, Note_on_c, 0, 74, 100
2, 17280, Note_on_c, 0, 79, 100
2, 17280, Note_on_c, 0, 82, 100
2, 17280, Note_on_c, 0, 86, 100
2, 17369, Note_on_c, 0, 86, 0
2, 17369, Note_on_c, 0, 74, 0
2, 17369, Note_on_c, 0, 79, 0
2, 17369, Note_on_c, 0, 82, 0
2, 17640, Note_on_c, 0, 70, 103
2, 18000, Note_on_c, 0, 75, 84
2, 18000, Note_on_c, 0, 79, 84
2, 18000, Note_on_c, 0, 82, 84
2, 18000, Note_on_c, 0, 87, 84
2, 18089, Note_on_c, 0, 87, 0
2, 18089, Note_on_c, 0, 79, 0
2, 18089, Note_on_c, 0, 82, 0
2, 18089, Note_on_c, 0, 75, 0
2, 18360, Note_on_c, 0, 70, 0
2, 18360, Note_on_c, 0, 70, 107
2, 18720, Note_on_c, 0, 74, 85
2, 18720, Note_on_c, 0, 79, 85
2, 18720, Note_on_c, 0, 82, 85
2, 18720, Note_on_c, 0, 86, 85
2, 18809, Note_on_c, 0, 86, 0
2, 18809, Note_on_c, 0, 79, 0
2, 18809, Note_on_c, 0, 82, 0
2, 18809, Note_on_c, 0, 74, 0
2, 18840, Note_on_c, 0, 70, 0
2, 18840, Note_on_c, 0, 70, 107
2, 18959, Note_on_c, 0, 70, 0
2, 18959, Note_on_c, 0, 70, 107
2, 19080, Note_on_c, 0, 70, 0
2, 19080, Note_on_c, 0, 70, 107
2, 19440, Note_on_c, 0, 75, 81
2, 19440, Note_on_c, 0, 79, 81
2, 19440, Note_on_c, 0, 82, 81
2, 19440, Note_on_c, 0, 87, 81
2, 19529, Note_on_c, 0, 87, 0
2, 19529, Note_on_c, 0, 79, 0
2, 19529, Note_on_c, 0, 82, 0
2, 19529, Note_on_c, 0, 75, 0
2, 19560, Note_on_c, 0, 70, 0
2, 19560, Note_on_c, 0, 70, 107
2, 19679, Note_on_c, 0, 70, 0
2, 19679, Note_on_c, 0, 70, 107
2, 19800, Note_on_c, 0, 70, 0
2, 19800, Note_on_c, 0, 70, 107
2, 20160, Note_on_c, 0, 70, 0
2, 20160, Note_on_c, 0, 86, 86
2, 20250, Note_on_c, 0, 86, 0
2, 20250, Note_on_c, 0, 74, 61
2, 20340, Note_on_c, 0, 74, 0
2, 20340, Note_on_c, 0, 82, 106
2, 20430, Note_on_c, 0, 82, 0
2, 20430, Note_on_c, 0, 70, 63
2, 20520, Note_on_c, 0, 70, 0
2, 20520, Note_on_c, 0, 79, 106
2, 20610, Note_on_c, 0, 79, 0
2, 20610, Note_on_c, 0, 67, 63
2, 20700, Note_on_c, 0, 67, 0
2, 20700, Note_on_c, 0, 74, 106
2, 20790, Note_on_c, 0, 74, 0
2, 20790, Note_on_c, 0, 62, 68
2, 20880, Note_on_c, 0, 62, 0
2, 20880, Note_on_c, 0, 70, 106
2, 20970, Note_on_c, 0, 70, 0
2, 20970, Note_on_c, 0, 58, 82
2, 21060, Note_on_c, 0, 58, 0
2, 21060, Note_on_c, 0, 67, 106
2, 21150, Note_on_c, 0, 67, 0
2, 21150, Note_on_c, 0, 55, 82
2, 21240, Note_on_c, 0, 55, 0
2, 21240, Note_on_c, 0, 70, 106
2, 21330, Note_on_c, 0, 70, 0
2, 21330, Note_on_c, 0, 58, 88
2, 21420, Note_on_c, 0, 58, 0
2, 21420, Note_on_c, 0, 74, 106
2, 21510, Note_on_c, 0, 74, 0
2, 21510, Note_on_c, 0, 62, 71
2, 21600, Note_on_c, 0, 62, 0
2, 21600, Note_on_c, 0, 79, 106
2, 21690, Note_on_c, 0, 79, 0
2, 21690, Note_on_c, 0, 67, 70
2, 21780, Note_on_c, 0, 67, 0
2, 21780, Note_on_c, 0, 82, 106
2, 21870, Note_on_c, 0, 82, 0
2, 21870, Note_on_c, 0, 70, 67
2, 21960, Note_on_c, 0, 70, 0
2, 21960, Note_on_c, 0, 86, 106
2, 22050, Note_on_c, 0, 86, 0
2, 22050, Note_on_c, 0, 74, 68
2, 22140, Note_on_c, 0, 74, 0
2, 22140, Note_on_c, 0, 91, 106
2, 22230, Note_on_c, 0, 91, 0
2, 22230, Note_on_c, 0, 79, 68
2, 22320, Note_on_c, 0, 79, 0
2, 22320, Note_on_c, 0, 94, 106
2, 22500, Note_on_c, 0, 94, 0
2, 23040, Note_on_c, 0, 79, 91
2, 23040, Note_on_c, 0, 82, 91
2, 23040, Note_on_c, 0, 85, 91
2, 23040, Note_on_c, 0, 73, 79
2, 23129, Note_on_c, 0, 73, 0
2, 23129, Note_on_c, 0, 79, 0
2, 23129, Note_on_c, 0, 82, 0
2, 23129, Note_on_c, 0, 85, 0
2, 23400, Note_on_c, 0, 79, 94
2, 23400, Note_on_c, 0, 82, 94
2, 23400, Note_on_c, 0, 86, 94
2, 23400, Note_on_c, 0, 74, 87
2, 23489, Note_on_c, 0, 74, 0
2, 23489, Note_on_c, 0, 79, 0
2, 23489, Note_on_c, 0, 82, 0
2, 23489, Note_on_c, 0, 86, 0
2, 23760, Note_on_c, 0, 87, 107
2, 23760, Note_on_c, 0, 75, 101
2, 23850, Note_on_c, 0, 75, 0
2, 23850, Note_on_c, 0, 87, 0
2, 23850, Note_on_c, 0, 88, 106
2, 23850, Note_on_c, 0, 76, 90
2, 23940, Note_on_c, 0, 76, 0
2, 23940, Note_on_c, 0, 88, 0
2, 23940, Note_on_c, 0, 89, 106
2, 23940, Note_on_c, 0, 77, 99
2, 24030, Note_on_c, 0, 77, 0
2, 24030, Note_on_c, 0, 89, 0
2, 24030, Note_on_c, 0, 88, 104
2, 24030, Note_on_c, 0, 76, 90
2, 24120, Note_on_c, 0, 76, 0
2, 24120, Note_on_c, 0, 88, 0
2, 24120, Note_on_c, 0, 88, 106
2, 24120, Note_on_c, 0, 76, 91
2, 24300, Note_on_c, 0, 76, 0
2, 24300, Note_on_c, 0, 88, 0
2, 24300, Note_on_c, 0, 82, 106
2, 24300, Note_on_c, 0, 94, 106
2, 24389, Note_on_c, 0, 94, 0
2, 24389, Note_on_c, 0, 82, 0
2, 24480, Note_on_c, 0, 79, 82
2, 24480, Note_on_c, 0, 82, 82
2, 24480, Note_on_c, 0, 85, 82
2, 24480, Note_on_c, 0, 73, 81
2, 24569, Note_on_c, 0, 73, 0
2, 24569, Note_on_c, 0, 79, 0
2, 24569, Note_on_c, 0, 82, 0
2, 24569, Note_on_c, 0, 85, 0
2, 24840, Note_on_c, 0, 79, 99
2, 24840, Note_on_c, 0, 82, 99
2, 24840, Note_on_c, 0, 86, 99
2, 24840, Note_on_c, 0, 74, 84
2, 24929, Note_on_c, 0, 74, 0
2, 24929, Note_on_c, 0, 79, 0
2, 24929, Note_on_c, 0, 82, 0
2, 24929, Note_on_c, 0, 86, 0
2, 25200, Note_on_c, 0, 87, 107
2, 25200, Note_on_c, 0, 75, 106
2, 25290, Note_on_c, 0, 75, 0
2, 25290, Note_on_c, 0, 87, 0
2, 25290, Note_on_c, 0, 88, 106
2, 25290, Note_on_c, 0, 76, 95
2, 25380, Note_on_c, 0, 76, 0
2, 25380, Note_on_c, 0, 88, 0
2, 25380, Note_on_c, 0, 89, 106
2, 25380, Note_on_c, 0, 77, 100
2, 25470, Note_on_c, 0, 77, 0
2, 25470, Note_on_c, 0, 89, 0
2, 25470, Note_on_c, 0, 88, 100
2, 25470, Note_on_c, 0, 76, 94
2, 25560, Note_on_c, 0, 76, 0
2, 25560, Note_on_c, 0, 88, 0
2, 25560, Note_on_c, 0, 88, 106
2, 25560, Note_on_c, 0, 76, 96
2, 25740, Note_on_c, 0, 76, 0
2, 25740, Note_on_c, 0, 88, 0
2, 25740, Note_on_c, 0, 82, 106
2, 25740, Note_on_c, 0, 94, 106
2, 25829, Note_on_c, 0, 94, 0
2, 25829, Note_on_c, 0, 82, 0
2, 25920, Note_on_c, 0, 76, 78
2, 25920, Note_on_c, 0, 79, 78
2, 25920, Note_on_c, 0, 82, 78
2, 25920, Note_on_c, 0, 70, 85
2, 26009, Note_on_c, 0, 70, 0
2, 26009, Note_on_c, 0, 76, 0
2, 26009, Note_on_c, 0, 79, 0
2, 26009, Note_on_c, 0, 82, 0
2, 26280, Note_on_c, 0, 76, 92
2, 26280, Note_on_c, 0, 79, 92
2, 26280, Note_on_c, 0, 83, 92
2, 26280, Note_on_c, 0, 71, 82
2, 26369, Note_on_c, 0, 71, 0
2, 26369, Note_on_c, 0, 76, 0
2, 26369, Note_on_c, 0, 79, 0
2, 26369, Note_on_c, 0, 83, 0
2, 26640, Note_on_c, 0, 84, 107
2, 26640, Note_on_c, 0, 72, 106
2, 26730, Note_on_c, 0, 72, 0
2, 26730, Note_on_c, 0, 84, 0
2, 26730, Note_on_c, 0, 85, 106
2, 26730, Note_on_c, 0, 73, 94
2, 26820, Note_on_c, 0, 73, 0
2, 26820, Note_on_c, 0, 85, 0
2, 26820, Note_on_c, 0, 86, 106
2, 26820, Note_on_c, 0, 74, 96
2, 26910, Note_on_c, 0, 74, 0
2, 26910, Note_on_c, 0, 86, 0
2, 26910, Note_on_c, 0, 85, 97
2, 26910, Note_on_c, 0, 73, 84
2, 27000, Note_on_c, 0, 73, 0
2, 27000, Note_on_c, 0, 85, 0
2, 27000, Note_on_c, 0, 85, 104
2, 27000, Note_on_c, 0, 73, 94
2, 27180, Note_on_c, 0, 73, 0
2, 27180, Note_on_c, 0, 85, 0
2, 27180, Note_on_c, 0, 79, 106
2, 27180, Note_on_c, 0, 91, 106
2, 27269, Note_on_c, 0, 91, 0
2, 27269, Note_on_c, 0, 79, 0
2, 27360, Note_on_c, 0, 76, 84
2, 27360, Note_on_c, 0, 79, 84
2, 27360, Note_on_c, 0, 82, 84
2, 27360, Note_on_c, 0, 70, 84
2, 27449, Note_on_c, 0, 70, 0
2, 27449, Note_on_c, 0, 76, 0
2, 27449, Note_on_c, 0, 79, 0
2, 27449, Note_on_c, 0, 82, 0
2, 27720, Note_on_c, 0, 76, 94
2, 27720, Note_on_c, 0, 79, 94
2, 27720, Note_on_c, 0, 83, 94
2, 27720, Note_on_c, 0, 71, 82
2, 27809, Note_on_c, 0, 71, 0
2, 27809, Note_on_c, 0, 76, 0
2, 27809, Note_on_c, 0, 79, 0
2, 27809, Note_on_c, 0, 83, 0
2, 28080, Note_on_c, 0, 84, 107
2, 28080, Note_on_c, 0, 72, 107
2, 28170, Note_on_c, 0, 72, 0
2, 28170, Note_on_c, 0, 84, 0
2, 28170, Note_on_c, 0, 85, 106
2, 28170, Note_on_c, 0, 73, 98
2, 28260, Note_on_c, 0, 73, 0
2, 28260, Note_on_c, 0, 85, 0
2, 28260, Note_on_c, 0, 86, 106
2, 28260, Note_on_c, 0, 74, 98
2, 28350, Note_on_c, 0, 74, 0
2, 28350, Note_on_c, 0, 86, 0
2, 28350, Note_on_c, 0, 85, 100
2, 28350, Note_on_c, 0, 73, 87
2, 28440, Note_on_c, 0, 73, 0
2, 28440, Note_on_c, 0, 85, 0
2, 28440, Note_on_c, 0, 85, 106
2, 28440, Note_on_c, 0, 73, 97
2, 28620, Note_on_c, 0, 73, 0
2, 28620, Note_on_c, 0, 85, 0
2, 28620, Note_on_c, 0, 91, 106
2, 28620, Note_on_c, 0, 79, 106
2, 28709, Note_on_c, 0, 79, 0
2, 28709, Note_on_c, 0, 91, 0
2, 28800, Note_on_c, 0, 85, 89
2, 28800, Note_on_c, 0, 73, 75
2, 28980, Note_on_c, 0, 73, 0
2, 28980, Note_on_c, 0, 85, 0
2, 28980, Note_on_c, 0, 91, 106
2, 28980, Note_on_c, 0, 79, 103
2, 29069, Note_on_c, 0, 79, 0
2, 29069, Note_on_c, 0, 91, 0
2, 29160, Note_on_c, 0, 85, 84
2, 29160, Note_on_c, 0, 73, 78
2, 29340, Note_on_c, 0, 73, 0
2, 29340, Note_on_c, 0, 85, 0
2, 29340, Note_on_c, 0, 91, 106
2, 29340, Note_on_c, 0, 79, 106
2, 29429, Note_on_c, 0, 79, 0
2, 29429, Note_on_c, 0, 91, 0
2, 29520, Note_on_c, 0, 85, 89
2, 29520, Note_on_c, 0, 73, 78
2, 29700, Note_on_c, 0, 73, 0
2, 29700, Note_on_c, 0, 85, 0
2, 29700, Note_on_c, 0, 91, 106
2, 29700, Note_on_c, 0, 79, 106
2, 29789, Note_on_c, 0, 79, 0
2, 29789, Note_on_c, 0, 91, 0
2, 29880, Note_on_c, 0, 85, 89
2, 29880, Note_on_c, 0, 73, 76
2, 30060, Note_on_c, 0, 73, 0
2, 30060, Note_on_c, 0, 85, 0
2, 30060, Note_on_c, 0, 91, 106
2, 30060, Note_on_c, 0, 79, 106
2, 30149, Note_on_c, 0, 79, 0
2, 30149, Note_on_c, 0, 91, 0
2, 30240, Note_on_c, 0, 85, 86
2, 30240, Note_on_c, 0, 73, 78
2, 30420, Note_on_c, 0, 73, 0
2, 30420, Note_on_c, 0, 85, 0
2, 30420, Note_on_c, 0, 91, 106
2, 30420, Note_on_c, 0, 79, 106
2, 30509, Note_on_c, 0, 79, 0
2, 30509, Note_on_c, 0, 91, 0
2, 30600, Note_on_c, 0, 85, 89
2, 30600, Note_on_c, 0, 73, 83
2, 30780, Note_on_c, 0, 73, 0
2, 30780, Note_on_c, 0, 85, 0
2, 30780, Note_on_c, 0, 91, 106
2, 30780, Note_on_c, 0, 79, 106
2, 30869, Note_on_c, 0, 79, 0
2, 30869, Note_on_c, 0, 91, 0
2, 30960, Note_on_c, 0, 85, 87
2, 30960, Note_on_c, 0, 73, 78
2, 31049, Note_on_c, 0, 73, 0
2, 31049, Note_on_c, 0, 85, 0
2, 31860, Note_on_c, 0, 91, 93
2, 31860, Note_on_c, 0, 79, 79
2, 31949, Note_on_c, 0, 79, 0
2, 31949, Note_on_c, 0, 91, 0
2, 32040, Note_on_c, 0, 84, 84
2, 32040, Note_on_c, 0, 72, 73
2, 32220, Note_on_c, 0, 72, 0
2, 32220, Note_on_c, 0, 84, 0
2, 32220, Note_on_c, 0, 91, 106
2, 32220, Note_on_c, 0, 79, 106
2, 32309, Note_on_c, 0, 79, 0
2, 32309, Note_on_c, 0, 91, 0
2, 32400, Note_on_c, 0, 84, 85
2, 32400, Note_on_c, 0, 72, 73
2, 32489, Note_on_c, 0, 72, 0
2, 32489, Note_on_c, 0, 84, 0
2, 33480, Note_on_c, 0, 79, 93
2, 33480, Note_on_c, 0, 84, 93
2, 33480, Note_on_c, 0, 72, 84
2, 33480, Note_on_c, 0, 76, 84
2, 33660, Note_on_c, 0, 76, 0
2, 33660, Note_on_c, 0, 79, 0
2, 33660, Note_on_c, 0, 84, 0
2, 33660, Note_on_c, 0, 72, 0
2, 34200, Note_on_c, 0, 79, 96
2, 34200, Note_on_c, 0, 84, 96
2, 34200, Note_on_c, 0, 72, 75
2, 34200, Note_on_c, 0, 76, 75
2, 34380, Note_on_c, 0, 76, 0
2, 34380, Note_on_c, 0, 79, 0
2, 34380, Note_on_c, 0, 84, 0
2, 34380, Note_on_c, 0, 72, 0
2, 34920, Note_on_c, 0, 79, 97
2, 34920, Note_on_c, 0, 84, 97
2, 34920, Note_on_c, 0, 72, 79
2, 34920, Note_on_c, 0, 76, 79
2, 35100, Note_on_c, 0, 76, 0
2, 35100, Note_on_c, 0, 79, 0
2, 35100, Note_on_c, 0, 84, 0
2, 35100, Note_on_c, 0, 72, 0
2, 35280, Note_on_c, 0, 79, 95
2, 35280, Note_on_c, 0, 84, 95
2, 35280, Note_on_c, 0, 72, 84
2, 35280, Note_on_c, 0, 76, 84
2, 35460, Note_on_c, 0, 76, 0
2, 35460, Note_on_c, 0, 79, 0
2, 35460, Note_on_c, 0, 84, 0
2, 35460, Note_on_c, 0, 72, 0
2, 35640, Note_on_c, 0, 79, 95
2, 35640, Note_on_c, 0, 84, 95
2, 35640, Note_on_c, 0, 72, 80
2, 35640, Note_on_c, 0, 76, 80
2, 35820, Note_on_c, 0, 76, 0
2, 35820, Note_on_c, 0, 79, 0
2, 35820, Note_on_c, 0, 84, 0
2, 35820, Note_on_c, 0, 72, 0
2, 36000, Note_on_c, 0, 80, 91
2, 36000, Note_on_c, 0, 83, 91
2, 36000, Note_on_c, 0, 71, 80
2, 36000, Note_on_c, 0, 76, 80
2, 36180, Note_on_c, 0, 76, 0
2, 36180, Note_on_c, 0, 80, 0
2, 36180, Note_on_c, 0, 83, 0
2, 36180, Note_on_c, 0, 71, 0
2, 37800, Note_on_c, 0, 79, 97
2, 37800, Note_on_c, 0, 83, 97
2, 37800, Note_on_c, 0, 71, 84
2, 37800, Note_on_c, 0, 76, 84
2, 37980, Note_on_c, 0, 76, 0
2, 37980, Note_on_c, 0, 79, 0
2, 37980, Note_on_c, 0, 83, 0
2, 37980, Note_on_c, 0, 71, 0
2, 38160, Note_on_c, 0, 78, 90
2, 38160, Note_on_c, 0, 83, 90
2, 38160, Note_on_c, 0, 71, 77
2, 38160, Note_on_c, 0, 76, 77
2, 38340, Note_on_c, 0, 76, 0
2, 38340, Note_on_c, 0, 78, 0
2, 38340, Note_on_c, 0, 83, 0
2, 38340, Note_on_c, 0, 71, 0
2, 38520, Note_on_c, 0, 78, 91
2, 38520, Note_on_c, 0, 83, 91
2, 38520, Note_on_c, 0, 71, 79
2, 38520, Note_on_c, 0, 75, 79
2, 38700, Note_on_c, 0, 75, 0
2, 38700, Note_on_c, 0, 78, 0
2, 38700, Note_on_c, 0, 83, 0
2, 38700, Note_on_c, 0, 71, 0
2, 38880, Note_on_c, 0, 68, 52
2, 38915, Note_on_c, 0, 68, 0
2, 38925, Note_on_c, 0, 80, 88
2, 38960, Note_on_c, 0, 80, 0
2, 38970, Note_on_c, 0, 68, 52
2, 39005, Note_on_c, 0, 68, 0
2, 39015, Note_on_c, 0, 80, 88
2, 39050, Note_on_c, 0, 80, 0
2, 39060, Note_on_c, 0, 68, 52
2, 39095, Note_on_c, 0, 68, 0
2, 39105, Note_on_c, 0, 80, 88
2, 39140, Note_on_c, 0, 80, 0
2, 39150, Note_on_c, 0, 68, 52
2, 39185, Note_on_c, 0, 68, 0
2, 39195, Note_on_c, 0, 80, 88
2, 39230, Note_on_c, 0, 80, 0
2, 39240, Note_on_c, 0, 68, 52
2, 39275, Note_on_c, 0, 68, 0
2, 39285, Note_on_c, 0, 80, 88
2, 39320, Note_on_c, 0, 80, 0
2, 39330, Note_on_c, 0, 68, 52
2, 39365, Note_on_c, 0, 68, 0
2, 39375, Note_on_c, 0, 80, 88
2, 39410, Note_on_c, 0, 80, 0
2, 39420, Note_on_c, 0, 68, 52
2, 39455, Note_on_c, 0, 68, 0
2, 39465, Note_on_c, 0, 80, 88
2, 39500, Note_on_c, 0, 80, 0
2, 39510, Note_on_c, 0, 68, 52
2, 39545, Note_on_c, 0, 68, 0
2, 39555, Note_on_c, 0, 80, 88
2, 39590, Note_on_c, 0, 80, 0
2, 39600, Note_on_c, 0, 68, 52
2, 39635, Note_on_c, 0, 68, 0
2, 39645, Note_on_c, 0, 80, 88
2, 39680, Note_on_c, 0, 80, 0
2, 39690, Note_on_c, 0, 68, 52
2, 39725, Note_on_c, 0, 68, 0
2, 39735, Note_on_c, 0, 80, 88
2, 39770, Note_on_c, 0, 80, 0
2, 39780, Note_on_c, 0, 68, 52
2, 39815, Note_on_c, 0, 68, 0
2, 39825, Note_on_c, 0, 80, 88
2, 39860, Note_on_c, 0, 80, 0
2, 39870, Note_on_c, 0, 68, 52
2, 39905, Note_on_c, 0, 68, 0
2, 39915, Note_on_c, 0, 80, 88
2, 39950, Note_on_c, 0, 80, 0
2, 39960, Note_on_c, 0, 80, 63
2, 39960, Note_on_c, 0, 68, 63
2, 39995, Note_on_c, 0, 68, 0
2, 39995, Note_on_c, 0, 80, 0
2, 40005, Note_on_c, 0, 83, 61
2, 40005, Note_on_c, 0, 71, 61
2, 40040, Note_on_c, 0, 71, 0
2, 40040, Note_on_c, 0, 83, 0
2, 40050, Note_on_c, 0, 80, 59
2, 40050, Note_on_c, 0, 68, 59
2, 40085, Note_on_c, 0, 68, 0
2, 40085, Note_on_c, 0, 80, 0
2, 40095, Note_on_c, 0, 83, 57
2, 40095, Note_on_c, 0, 71, 57
2, 40130, Note_on_c, 0, 71, 0
2, 40130, Note_on_c, 0, 83, 0
2, 40140, Note_on_c, 0, 80, 55
2, 40140, Note_on_c, 0, 68, 55
2, 40175, Note_on_c, 0, 68, 0
2, 40175, Note_on_c, 0, 80, 0
2, 40185, Note_on_c, 0, 83, 53
2, 40185, Note_on_c, 0, 71, 53
2, 40220, Note_on_c, 0, 71, 0
2, 40220, Note_on_c, 0, 83, 0
2, 40230, Note_on_c, 0, 80, 51
2, 40230, Note_on_c, 0, 68, 51
2, 40265, Note_on_c, 0, 68, 0
2, 40265, Note_on_c, 0, 80, 0
2, 40275, Note_on_c, 0, 83, 49
2, 40275, Note_on_c, 0, 71, 49
2, 40310, Note_on_c, 0, 71, 0
2, 40310, Note_on_c, 0, 83, 0
2, 40320, Note_on_c, 0, 80, 46
2, 40320, Note_on_c, 0, 68, 46
2, 40355, Note_on_c, 0, 68, 0
2, 40355, Note_on_c, 0, 80, 0
2, 40365, Note_on_c, 0, 83, 44
2, 40365, Note_on_c, 0, 71, 44
2, 40400, Note_on_c, 0, 71, 0
2, 40400, Note_on_c, 0, 83, 0
2, 40410, Note_on_c, 0, 80, 42
2, 40410, Note_on_c, 0, 68, 42
2, 40445, Note_on_c, 0, 68, 0
2, 40445, Note_on_c, 0, 80, 0
2, 40455, Note_on_c, 0, 83, 40
2, 40455, Note_on_c, 0, 71, 40
2, 40490, Note_on_c, 0, 71, 0
2, 40490, Note_on_c, 0, 83, 0
2, 40500, Note_on_c, 0, 80, 38
2, 40500, Note_on_c, 0, 68, 38
2, 40535, Note_on_c, 0, 68, 0
2, 40535, Note_on_c, 0, 80, 0
2, 40545, Note_on_c, 0, 83, 36
2, 40545, Note_on_c, 0, 71, 36
2, 40580, Note_on_c, 0, 71, 0
2, 40580, Note_on_c, 0, 83, 0
2, 40590, Note_on_c, 0, 80, 34
2, 40590, Note_on_c, 0, 68, 34
2, 40625, Note_on_c, 0, 68, 0
2, 40625, Note_on_c, 0, 80, 0
2, 40635, Note_on_c, 0, 83, 32
2, 40635, Note_on_c, 0, 71, 32
2, 40670, Note_on_c, 0, 71, 0
2, 40670, Note_on_c, 0, 83, 0
2, 40680, Note_on_c, 0, 80, 30
2, 40680, Note_on_c, 0, 68, 30
2, 40715, Note_on_c, 0, 68, 0
2, 40715, Note_on_c, 0, 80, 0
2, 40725, Note_on_c, 0, 83, 27
2, 40725, Note_on_c, 0, 71, 27
2, 40760, Note_on_c, 0, 71, 0
2, 40760, Note_on_c, 0, 83, 0
2, 40770, Note_on_c, 0, 80, 25
2, 40770, Note_on_c, 0, 68, 25
2, 40805, Note_on_c, 0, 68, 0
2, 40805, Note_on_c, 0, 80, 0
2, 40815, Note_on_c, 0, 83, 23
2, 40815, Note_on_c, 0, 71, 23
2, 40850, Note_on_c, 0, 71, 0
2, 40850, Note_on_c, 0, 83, 0
2, 40860, Note_on_c, 0, 80, 21
2, 40860, Note_on_c, 0, 68, 21
2, 40895, Note_on_c, 0, 68, 0
2, 40895, Note_on_c, 0, 80, 0
2, 40905, Note_on_c, 0, 83, 19
2, 40905, Note_on_c, 0, 71, 19
2, 40940, Note_on_c, 0, 71, 0
2, 40940, Note_on_c, 0, 83, 0
2, 40950, Note_on_c, 0, 80, 17
2, 40950, Note_on_c, 0, 68, 17
2, 40985, Note_on_c, 0, 68, 0
2, 40985, Note_on_c, 0, 80, 0
2, 40995, Note_on_c, 0, 83, 15
2, 40995, Note_on_c, 0, 71, 15
2, 41030, Note_on_c, 0, 71, 0
2, 41030, Note_on_c, 0, 83, 0
2, 41040, Note_on_c, 0, 80, 42
2, 41040, Note_on_c, 0, 83, 42
2, 41040, Note_on_c, 0, 68, 37
2, 41075, Note_on_c, 0, 68, 0
2, 41075, Note_on_c, 0, 83, 0
2, 41075, Note_on_c, 0, 80, 0
2, 41085, Note_on_c, 0, 76, 31
2, 41085, Note_on_c, 0, 71, 44
2, 41120, Note_on_c, 0, 71, 0
2, 41120, Note_on_c, 0, 76, 0
2, 41130, Note_on_c, 0, 80, 42
2, 41130, Note_on_c, 0, 83, 42
2, 41130, Note_on_c, 0, 68, 37
2, 41165, Note_on_c, 0, 68, 0
2, 41165, Note_on_c, 0, 83, 0
2, 41165, Note_on_c, 0, 80, 0
2, 41175, Note_on_c, 0, 76, 31
2, 41175, Note_on_c, 0, 71, 44
2, 41210, Note_on_c, 0, 71, 0
2, 41210, Note_on_c, 0, 76, 0
2, 41220, Note_on_c, 0, 80, 42
2, 41220, Note_on_c, 0, 83, 42
2, 41220, Note_on_c, 0, 68, 37
2, 41255, Note_on_c, 0, 68, 0
2, 41255, Note_on_c, 0, 83, 0
2, 41255, Note_on_c, 0, 80, 0
2, 41265, Note_on_c, 0, 76, 31
2, 41265, Note_on_c, 0, 71, 44
2, 41300, Note_on_c, 0, 71, 0
2, 41300, Note_on_c, 0, 76, 0
2, 41310, Note_on_c, 0, 80, 42
2, 41310, Note_on_c, 0, 83, 42
2, 41310, Note_on_c, 0, 68, 37
2, 41345, Note_on_c, 0, 68, 0
2, 41345, Note_on_c, 0, 83, 0
2, 41345, Note_on_c, 0, 80, 0
2, 41355, Note_on_c, 0, 76, 31
2, 41355, Note_on_c, 0, 71, 44
2, 41390, Note_on_c, 0, 71, 0
2, 41390, Note_on_c, 0, 76, 0
2, 41400, Note_on_c, 0, 80, 42
2, 41400, Note_on_c, 0, 83, 42
2, 41400, Note_on_c, 0, 68, 37
2, 41435, Note_on_c, 0, 68, 0
2, 41435, Note_on_c, 0, 83, 0
2, 41435, Note_on_c, 0, 80, 0
2, 41445, Note_on_c, 0, 76, 31
2, 41445, Note_on_c, 0, 71, 44
2, 41480, Note_on_c, 0, 71, 0
2, 41480, Note_on_c, 0, 76, 0
2, 41490, Note_on_c, 0, 80, 42
2, 41490, Note_on_c, 0, 83, 42
2, 41490, Note_on_c, 0, 68, 37
2, 41525, Note_on_c, 0, 68, 0
2, 41525, Note_on_c, 0, 83, 0
2, 41525, Note_on_c, 0, 80, 0
2, 41535, Note_on_c, 0, 76, 31
2, 41535, Note_on_c, 0, 71, 44
2, 41570, Note_on_c, 0, 71, 0
2, 41570, Note_on_c, 0, 76, 0
2, 41580, Note_on_c, 0, 80, 42
2, 41580, Note_on_c, 0, 83, 42
2, 41580, Note_on_c, 0, 68, 37
2, 41580, Note_on_c, 0, 68, 35
2, 41615, Note_on_c, 0, 68, 0
2, 41615, Note_on_c, 0, 80, 0
2, 41615, Note_on_c, 0, 83, 0
2, 41625, Note_on_c, 0, 76, 31
2, 41660, Note_on_c, 0, 76, 0
2, 41670, Note_on_c, 0, 80, 42
2, 41670, Note_on_c, 0, 83, 42
2, 41705, Note_on_c, 0, 83, 0
2, 41705, Note_on_c, 0, 80, 0
2, 41715, Note_on_c, 0, 76, 31
2, 41750, Note_on_c, 0, 76, 0
2, 41760, Note_on_c, 0, 68, 0
2, 41760, Note_on_c, 0, 80, 42
2, 41760, Note_on_c, 0, 83, 42
2, 41795, Note_on_c, 0, 83, 0
2, 41795, Note_on_c, 0, 80, 0
2, 41805, Note_on_c, 0, 76, 31
2, 41840, Note_on_c, 0, 76, 0
2, 41850, Note_on_c, 0, 80, 42
2, 41850, Note_on_c, 0, 83, 42
2, 41885, Note_on_c, 0, 83, 0
2, 41885, Note_on_c, 0, 80, 0
2, 41895, Note_on_c, 0, 76, 31
2, 41930, Note_on_c, 0, 76, 0
2, 41940, Note_on_c, 0, 80, 42
2, 41940, Note_on_c, 0, 83, 42
2, 41975, Note_on_c, 0, 83, 0
2, 41975, Note_on_c, 0, 80, 0
2, 41985, Note_on_c, 0, 76, 31
2, 42020, Note_on_c, 0, 76, 0
2, 42030, Note_on_c, 0, 80, 42
2, 42030, Note_on_c, 0, 83, 42
2, 42065, Note_on_c, 0, 83, 0
2, 42065, Note_on_c, 0, 80, 0
2, 42075, Note_on_c, 0, 76, 31
2, 42110, Note_on_c, 0, 76, 0
2, 42120, Note_on_c, 0, 76, 49
2, 42120, Note_on_c, 0, 64, 35
2, 42120, Note_on_c, 0, 68, 35
2, 42155, Note_on_c, 0, 68, 0
2, 42155, Note_on_c, 0, 64, 0
2, 42158, Note_on_c, 0, 80, 49
2, 42165, Note_on_c, 0, 71, 43
2, 42196, Note_on_c, 0, 83, 49
2, 42200, Note_on_c, 0, 71, 0
2, 42210, Note_on_c, 0, 64, 35
2, 42210, Note_on_c, 0, 68, 35
2, 42245, Note_on_c, 0, 68, 0
2, 42245, Note_on_c, 0, 64, 0
2, 42255, Note_on_c, 0, 71, 43
2, 42290, Note_on_c, 0, 71, 0
2, 42300, Note_on_c, 0, 76, 0
2, 42300, Note_on_c, 0, 80, 0
2, 42300, Note_on_c, 0, 83, 0
2, 42300, Note_on_c, 0, 76, 48
2, 42300, Note_on_c, 0, 64, 35
2, 42300, Note_on_c, 0, 68, 35
2, 42335, Note_on_c, 0, 68, 0
2, 42335, Note_on_c, 0, 64, 0
2, 42338, Note_on_c, 0, 80, 48
2, 42345, Note_on_c, 0, 71, 43
2, 42376, Note_on_c, 0, 83, 48
2, 42380, Note_on_c, 0, 71, 0
2, 42390, Note_on_c, 0, 64, 35
2, 42390, Note_on_c, 0, 68, 35
2, 42414, Note_on_c, 0, 88, 48
2, 42425, Note_on_c, 0, 68, 0
2, 42425, Note_on_c, 0, 64, 0
2, 42435, Note_on_c, 0, 71, 43
2, 42470, Note_on_c, 0, 71, 0
2, 42480, Note_on_c, 0, 80, 0
2, 42480, Note_on_c, 0, 83, 0
2, 42480, Note_on_c, 0, 88, 0
2, 42480, Note_on_c, 0, 76, 0
2, 42480, Note_on_c, 0, 80, 50
2, 42480, Note_on_c, 0, 64, 35
2, 42480, Note_on_c, 0, 68, 35
2, 42515, Note_on_c, 0, 68, 0
2, 42515, Note_on_c, 0, 64, 0
2, 42518, Note_on_c, 0, 83, 50
2, 42525, Note_on_c, 0, 71, 43
2, 42556, Note_on_c, 0, 88, 50
2, 42560, Note_on_c, 0, 71, 0
2, 42570, Note_on_c, 0, 64, 35
2, 42570, Note_on_c, 0, 68, 35
2, 42594, Note_on_c, 0, 92, 50
2, 42605, Note_on_c, 0, 68, 0
2, 42605, Note_on_c, 0, 64, 0
2, 42615, Note_on_c, 0, 71, 43
2, 42650, Note_on_c, 0, 71, 0
2, 42660, Note_on_c, 0, 83, 0
2, 42660, Note_on_c, 0, 88, 0
2, 42660, Note_on_c, 0, 92, 0
2, 42660, Note_on_c, 0, 80, 0
2, 42660, Note_on_c, 0, 83, 46
2, 42660, Note_on_c, 0, 64, 35
2, 42660, Note_on_c, 0, 68, 35
2, 42695, Note_on_c, 0, 68, 0
2, 42695, Note_on_c, 0, 64, 0
2, 42698, Note_on_c, 0, 88, 46
2, 42705, Note_on_c, 0, 71, 43
2, 42736, Note_on_c, 0, 92, 46
2, 42740, Note_on_c, 0, 71, 0
2, 42750, Note_on_c, 0, 64, 35
2, 42750, Note_on_c, 0, 68, 35
2, 42774, Note_on_c, 0, 95, 46
2, 42785, Note_on_c, 0, 68, 0
2, 42785, Note_on_c, 0, 64, 0
2, 42795, Note_on_c, 0, 71, 43
2, 42830, Note_on_c, 0, 71, 0
2, 42840, Note_on_c, 0, 88, 0
2, 42840, Note_on_c, 0, 92, 0
2, 42840, Note_on_c, 0, 95, 0
2, 42840, Note_on_c, 0, 83, 0
2, 42840, Note_on_c, 0, 64, 35
2, 42840, Note_on_c, 0, 68, 35
2, 42875, Note_on_c, 0, 68, 0
2, 42875, Note_on_c, 0, 64, 0
2, 42885, Note_on_c, 0, 71, 43
2, 42920, Note_on_c, 0, 71, 0
2, 42930, Note_on_c, 0, 64, 35
2, 42930, Note_on_c, 0, 68, 35
2, 42965, Note_on_c, 0, 68, 0
2, 42965, Note_on_c, 0, 64, 0
2, 42975, Note_on_c, 0, 71, 43
2, 43010, Note_on_c, 0, 71, 0
2, 43020, Note_on_c, 0, 64, 35
2, 43020, Note_on_c, 0, 68, 35
2, 43055, Note_on_c, 0, 68, 0
2, 43055, Note_on_c, 0, 64, 0
2, 43065, Note_on_c, 0, 71, 43
2, 43100, Note_on_c, 0, 71, 0
2, 43110, Note_on_c, 0, 64, 35
2, 43110, Note_on_c, 0, 68, 35
2, 43145, Note_on_c, 0, 68, 0
2, 43145, Note_on_c, 0, 64, 0
2, 43155, Note_on_c, 0, 71, 43
2, 43190, Note_on_c, 0, 71, 0
2, 43380, Note_on_c, 0, 71, 46
2, 43538, Note_on_c, 0, 71, 0
2, 43560, Note_on_c, 0, 68, 48
2, 43718, Note_on_c, 0, 68, 0
2, 43740, Note_on_c, 0, 68, 42
2, 43740, Note_on_c, 0, 63, 33
2, 43920, Note_on_c, 0, 68, 0
2, 43920, Note_on_c, 0, 66, 34
2, 44100, Note_on_c, 0, 66, 0
2, 44100, Note_on_c, 0, 65, 33
2, 44280, Note_on_c, 0, 65, 0
2, 44280, Note_on_c, 0, 66, 81
2, 44460, Note_on_c, 0, 66, 0
2, 44460, Note_on_c, 0, 68, 86
2, 44640, Note_on_c, 0, 68, 0
2, 44640, Note_on_c, 0, 69, 83
2, 44820, Note_on_c, 0, 69, 0
2, 44820, Note_on_c, 0, 71, 84
2, 45000, Note_on_c, 0, 63, 0
2, 45000, Note_on_c, 0, 66, 73
2, 45180, Note_on_c, 0, 66, 0
2, 45180, Note_on_c, 0, 67, 68
2, 45360, Note_on_c, 0, 67, 0
2, 45360, Note_on_c, 0, 64, 64
2, 45360, Note_on_c, 0, 68, 64
2, 45540, Note_on_c, 0, 68, 0
2, 45540, Note_on_c, 0, 64, 0
2, 45540, Note_on_c, 0, 71, 0
2, 45540, Note_on_c, 0, 73, 92
2, 45698, Note_on_c, 0, 73, 0
2, 45720, Note_on_c, 0, 75, 98
2, 45878, Note_on_c, 0, 75, 0
2, 45900, Note_on_c, 0, 76, 81
2, 45900, Note_on_c, 0, 64, 53
2, 45900, Note_on_c, 0, 67, 53
2, 45900, Note_on_c, 0, 70, 53
2, 46080, Note_on_c, 0, 70, 0
2, 46080, Note_on_c, 0, 76, 0
2, 46080, Note_on_c, 0, 64, 0
2, 46080, Note_on_c, 0, 67, 0
2, 46080, Note_on_c, 0, 75, 70
2, 46260, Note_on_c, 0, 75, 0
2, 46260, Note_on_c, 0, 73, 71
2, 46440, Note_on_c, 0, 73, 0
2, 46440, Note_on_c, 0, 71, 93
2, 46440, Note_on_c, 0, 63, 60
2, 46800, Note_on_c, 0, 63, 0
2, 46800, Note_on_c, 0, 71, 0
2, 46800, Note_on_c, 0, 66, 66
2, 46980, Note_on_c, 0, 66, 0
2, 46980, Note_on_c, 0, 66, 77
2, 46980, Note_on_c, 0, 63, 54
2, 47520, Note_on_c, 0, 63, 0
2, 47520, Note_on_c, 0, 66, 0
2, 47700, Note_on_c, 0, 71, 43
2, 47858, Note_on_c, 0, 71, 0
2, 47880, Note_on_c, 0, 68, 48
2, 48038, Note_on_c, 0, 68, 0
2, 48060, Note_on_c, 0, 68, 39
2, 48060, Note_on_c, 0, 63, 54
2, 48240, Note_on_c, 0, 68, 0
2, 48240, Note_on_c, 0, 66, 36
2, 48420, Note_on_c, 0, 66, 0
2, 48420, Note_on_c, 0, 65, 37
2, 48600, Note_on_c, 0, 65, 0
2, 48600, Note_on_c, 0, 66, 41
2, 48780, Note_on_c, 0, 66, 0
2, 48780, Note_on_c, 0, 68, 43
2, 48960, Note_on_c, 0, 68, 0
2, 48960, Note_on_c, 0, 69, 43
2, 49140, Note_on_c, 0, 69, 0
2, 49140, Note_on_c, 0, 71, 43
2, 49320, Note_on_c, 0, 63, 0
2, 49320, Note_on_c, 0, 66, 69
2, 49500, Note_on_c, 0, 66, 0
2, 49500, Note_on_c, 0, 67, 65
2, 49680, Note_on_c, 0, 67, 0
2, 49680, Note_on_c, 0, 64, 65
2, 49680, Note_on_c, 0, 68, 65
2, 49860, Note_on_c, 0, 68, 0
2, 49860, Note_on_c, 0, 64, 0
2, 49860, Note_on_c, 0, 71, 0
2, 49860, Note_on_c, 0, 73, 94
2, 50018, Note_on_c, 0, 73, 0
2, 50040, Note_on_c, 0, 75, 100
2, 50198, Note_on_c, 0, 75, 0
2, 50220, Note_on_c, 0, 76, 80
2, 50220, Note_on_c, 0, 64, 52
2, 50220, Note_on_c, 0, 68, 52
2, 50400, Note_on_c, 0, 68, 0
2, 50400, Note_on_c, 0, 64, 0
2, 50400, Note_on_c, 0, 76, 0
2, 50400, Note_on_c, 0, 75, 73
2, 50580, Note_on_c, 0, 75, 0
2, 50580, Note_on_c, 0, 73, 74
2, 50760, Note_on_c, 0, 73, 0
2, 50760, Note_on_c, 0, 71, 43
2, 50760, Note_on_c, 0, 63, 51
2, 50760, Note_on_c, 0, 67, 51
2, 51120, Note_on_c, 0, 67, 0
2, 51120, Note_on_c, 0, 63, 0
2, 51120, Note_on_c, 0, 71, 0
2, 51120, Note_on_c, 0, 70, 46
2, 51300, Note_on_c, 0, 70, 0
2, 51300, Note_on_c, 0, 68, 46
2, 51300, Note_on_c, 0, 63, 56
2, 51840, Note_on_c, 0, 63, 0
2, 51840, Note_on_c, 0, 68, 0
2, 52020, Note_on_c, 0, 83, 47
2, 52020, Note_on_c, 0, 59, 47
2, 52020, Note_on_c, 0, 71, 47
2, 52178, Note_on_c, 0, 71, 0
2, 52178, Note_on_c, 0, 59, 0
2, 52178, Note_on_c, 0, 83, 0
2, 52200, Note_on_c, 0, 85, 56
2, 52200, Note_on_c, 0, 61, 53
2, 52200, Note_on_c, 0, 73, 53
2, 52358, Note_on_c, 0, 73, 0
2, 52358, Note_on_c, 0, 61, 0
2, 52358, Note_on_c, 0, 85, 0
2, 52380, Note_on_c, 0, 87, 45
2, 52380, Note_on_c, 0, 63, 43
2, 52380, Note_on_c, 0, 75, 43
2, 52560, Note_on_c, 0, 75, 0
2, 52560, Note_on_c, 0, 63, 0
2, 52560, Note_on_c, 0, 87, 0
2, 52560, Note_on_c, 0, 76, 43
2, 52560, Note_on_c, 0, 88, 43
2, 52560, Note_on_c, 0, 64, 26
2, 52740, Note_on_c, 0, 64, 0
2, 52740, Note_on_c, 0, 88, 0
2, 52740, Note_on_c, 0, 76, 0
2, 52740, Note_on_c, 0, 78, 45
2, 52740, Note_on_c, 0, 90, 45
2, 52740, Note_on_c, 0, 66, 36
2, 52920, Note_on_c, 0, 66, 0
2, 52920, Note_on_c, 0, 90, 0
2, 52920, Note_on_c, 0, 78, 0
2, 52920, Note_on_c, 0, 76, 35
2, 52920, Note_on_c, 0, 88, 35
2, 52920, Note_on_c, 0, 64, 34
2, 53100, Note_on_c, 0, 64, 0
2, 53100, Note_on_c, 0, 88, 0
2, 53100, Note_on_c, 0, 76, 0
2, 53100, Note_on_c, 0, 87, 35
2, 53100, Note_on_c, 0, 75, 57
2, 53280, Note_on_c, 0, 75, 0
2, 53280, Note_on_c, 0, 87, 0
2, 53280, Note_on_c, 0, 85, 39
2, 53280, Note_on_c, 0, 73, 39
2, 53460, Note_on_c, 0, 73, 0
2, 53460, Note_on_c, 0, 85, 0
2, 53460, Note_on_c, 0, 83, 35
2, 53460, Note_on_c, 0, 71, 35
2, 53640, Note_on_c, 0, 71, 0
2, 53640, Note_on_c, 0, 83, 0
2, 53640, Note_on_c, 0, 79, 49
2, 53640, Note_on_c, 0, 67, 45
2, 53798, Note_on_c, 0, 67, 0
2, 53798, Note_on_c, 0, 79, 0
2, 53820, Note_on_c, 0, 80, 58
2, 53820, Note_on_c, 0, 68, 56
2, 53978, Note_on_c, 0, 68, 0
2, 53978, Note_on_c, 0, 80, 0
2, 54000, Note_on_c, 0, 83, 71
2, 54000, Note_on_c, 0, 71, 71
2, 54360, Note_on_c, 0, 71, 0
2, 54360, Note_on_c, 0, 83, 0
2, 54360, Note_on_c, 0, 78, 35
2, 54360, Note_on_c, 0, 66, 34
2, 54540, Note_on_c, 0, 66, 0
2, 54540, Note_on_c, 0, 78, 0
2, 54540, Note_on_c, 0, 71, 72
2, 54720, Note_on_c, 0, 78, 34
2, 54900, Note_on_c, 0, 78, 0
2, 54900, Note_on_c, 0, 71, 0
2, 54900, Note_on_c, 0, 79, 44
2, 54900, Note_on_c, 0, 63, 32
2, 55080, Note_on_c, 0, 63, 0
2, 55080, Note_on_c, 0, 79, 0
2, 55080, Note_on_c, 0, 83, 70
2, 55080, Note_on_c, 0, 71, 77
2, 55440, Note_on_c, 0, 71, 0
2, 55440, Note_on_c, 0, 83, 0
2, 55440, Note_on_c, 0, 80, 34
2, 55440, Note_on_c, 0, 68, 38
2, 55620, Note_on_c, 0, 68, 0
2, 55620, Note_on_c, 0, 80, 0
2, 55620, Note_on_c, 0, 71, 70
2, 55980, Note_on_c, 0, 71, 0
2, 55980, Note_on_c, 0, 64, 30
2, 56160, Note_on_c, 0, 64, 0
2, 56340, Note_on_c, 0, 83, 48
2, 56340, Note_on_c, 0, 59, 49
2, 56340, Note_on_c, 0, 71, 49
2, 56498, Note_on_c, 0, 71, 0
2, 56498, Note_on_c, 0, 59, 0
2, 56498, Note_on_c, 0, 83, 0
2, 56520, Note_on_c, 0, 85, 55
2, 56520, Note_on_c, 0, 61, 56
2, 56520, Note_on_c, 0, 73, 56
2, 56678, Note_on_c, 0, 73, 0
2, 56678, Note_on_c, 0, 61, 0
2, 56678, Note_on_c, 0, 85, 0
2, 56700, Note_on_c, 0, 87, 49
2, 56700, Note_on_c, 0, 63, 42
2, 56700, Note_on_c, 0, 75, 42
2, 56880, Note_on_c, 0, 75, 0
2, 56880, Note_on_c, 0, 63, 0
2, 56880, Note_on_c, 0, 87, 0
2, 56880, Note_on_c, 0, 76, 45
2, 56880, Note_on_c, 0, 88, 45
2, 56880, Note_on_c, 0, 64, 24
2, 57060, Note_on_c, 0, 64, 0
2, 57060, Note_on_c, 0, 88, 0
2, 57060, Note_on_c, 0, 76, 0
2, 57060, Note_on_c, 0, 78, 45
2, 57060, Note_on_c, 0, 90, 45
2, 57060, Note_on_c, 0, 66, 42
2, 57240, Note_on_c, 0, 66, 0
2, 57240, Note_on_c, 0, 90, 0
2, 57240, Note_on_c, 0, 78, 0
2, 57240, Note_on_c, 0, 76, 39
2, 57240, Note_on_c, 0, 88, 39
2, 57240, Note_on_c, 0, 64, 34
2, 57420, Note_on_c, 0, 64, 0
2, 57420, Note_on_c, 0, 88, 0
2, 57420, Note_on_c, 0, 76, 0
2, 57420, Note_on_c, 0, 87, 38
2, 57420, Note_on_c, 0, 75, 62
2, 57600, Note_on_c, 0, 75, 0
2, 57600, Note_on_c, 0, 87, 0
2, 57600, Note_on_c, 0, 85, 37
2, 57600, Note_on_c, 0, 73, 39
2, 57780, Note_on_c, 0, 73, 0
2, 57780, Note_on_c, 0, 85, 0
2, 57780, Note_on_c, 0, 83, 40
2, 57780, Note_on_c, 0, 71, 40
2, 57960, Note_on_c, 0, 71, 0
2, 57960, Note_on_c, 0, 83, 0
2, 57960, Note_on_c, 0, 82, 53
2, 57960, Note_on_c, 0, 70, 53
2, 58118, Note_on_c, 0, 70, 0
2, 58118, Note_on_c, 0, 82, 0
2, 58140, Note_on_c, 0, 80, 66
2, 58140, Note_on_c, 0, 68, 66
2, 58298, Note_on_c, 0, 68, 0
2, 58298, Note_on_c, 0, 80, 0
2, 58320, Note_on_c, 0, 79, 61
2, 58320, Note_on_c, 0, 67, 55
2, 58500, Note_on_c, 0, 67, 0
2, 58500, Note_on_c, 0, 79, 0
2, 58500, Note_on_c, 0, 80, 68
2, 58500, Note_on_c, 0, 68, 65
2, 58680, Note_on_c, 0, 68, 0
2, 58680, Note_on_c, 0, 80, 0
2, 58680, Note_on_c, 0, 88, 83
2, 58680, Note_on_c, 0, 76, 87
2, 58860, Note_on_c, 0, 76, 0
2, 58860, Note_on_c, 0, 88, 0
2, 58860, Note_on_c, 0, 87, 66
2, 58860, Note_on_c, 0, 75, 64
2, 59220, Note_on_c, 0, 75, 0
2, 59220, Note_on_c, 0, 87, 0
2, 59220, Note_on_c, 0, 85, 61
2, 59220, Note_on_c, 0, 73, 58
2, 59400, Note_on_c, 0, 73, 0
2, 59400, Note_on_c, 0, 85, 0
2, 59400, Note_on_c, 0, 73, 66
2, 59400, Note_on_c, 0, 85, 66
2, 59400, Note_on_c, 0, 68, 53
2, 59580, Note_on_c, 0, 68, 0
2, 59580, Note_on_c, 0, 70, 69
2, 59760, Note_on_c, 0, 70, 0
2, 59760, Note_on_c, 0, 85, 0
2, 59760, Note_on_c, 0, 73, 0
2, 59760, Note_on_c, 0, 83, 60
2, 59760, Note_on_c, 0, 71, 70
2, 60030, Note_on_c, 0, 71, 0
2, 60030, Note_on_c, 0, 71, 66
2, 60075, Note_on_c, 0, 71, 0
2, 60075, Note_on_c, 0, 73, 63
2, 60120, Note_on_c, 0, 73, 0
2, 60120, Note_on_c, 0, 83, 0
2, 60120, Note_on_c, 0, 75, 61
2, 60165, Note_on_c, 0, 75, 0
2, 60165, Note_on_c, 0, 76, 58
2, 60210, Note_on_c, 0, 76, 0
2, 60210, Note_on_c, 0, 78, 56
2, 60255, Note_on_c, 0, 78, 0
2, 60255, Note_on_c, 0, 80, 53
2, 60300, Note_on_c, 0, 80, 0
2, 60300, Note_on_c, 0, 81, 51
2, 60345, Note_on_c, 0, 81, 0
2, 60345, Note_on_c, 0, 83, 48
2, 60390, Note_on_c, 0, 83, 0
2, 60390, Note_on_c, 0, 85, 46
2, 60435, Note_on_c, 0, 85, 0
2, 60435, Note_on_c, 0, 87, 43
2, 60480, Note_on_c, 0, 87, 0
2, 60480, Note_on_c, 0, 88, 44
2, 60660, Note_on_c, 0, 88, 0
2, 60660, Note_on_c, 0, 83, 43
2, 60660, Note_on_c, 0, 71, 47
2, 60818, Note_on_c, 0, 71, 0
2, 60818, Note_on_c, 0, 83, 0
2, 60840, Note_on_c, 0, 80, 43
2, 60840, Note_on_c, 0, 68, 48
2, 60998, Note_on_c, 0, 68, 0
2, 60998, Note_on_c, 0, 80, 0
2, 61020, Note_on_c, 0, 80, 41
2, 61020, Note_on_c, 0, 68, 43
2, 61200, Note_on_c, 0, 68, 0
2, 61200, Note_on_c, 0, 80, 0
2, 61200, Note_on_c, 0, 78, 38
2, 61200, Note_on_c, 0, 66, 38
2, 61380, Note_on_c, 0, 66, 0
2, 61380, Note_on_c, 0, 78, 0
2, 61380, Note_on_c, 0, 77, 34
2, 61380, Note_on_c, 0, 65, 36
2, 61560, Note_on_c, 0, 65, 0
2, 61560, Note_on_c, 0, 77, 0
2, 61560, Note_on_c, 0, 78, 42
2, 61560, Note_on_c, 0, 66, 45
2, 61740, Note_on_c, 0, 66, 0
2, 61740, Note_on_c, 0, 78, 0
2, 61740, Note_on_c, 0, 80, 48
2, 61740, Note_on_c, 0, 68, 44
2, 61920, Note_on_c, 0, 68, 0
2, 61920, Note_on_c, 0, 80, 0
2, 61920, Note_on_c, 0, 81, 43
2, 61920, Note_on_c, 0, 69, 44
2, 62100, Note_on_c, 0, 69, 0
2, 62100, Note_on_c, 0, 81, 0
2, 62100, Note_on_c, 0, 83, 43
2, 62100, Note_on_c, 0, 71, 47
2, 62280, Note_on_c, 0, 78, 93
2, 62280, Note_on_c, 0, 66, 27
2, 62460, Note_on_c, 0, 66, 0
2, 62460, Note_on_c, 0, 78, 0
2, 62460, Note_on_c, 0, 79, 106
2, 62460, Note_on_c, 0, 67, 34
2, 62640, Note_on_c, 0, 67, 0
2, 62640, Note_on_c, 0, 79, 0
2, 62640, Note_on_c, 0, 80, 106
2, 62640, Note_on_c, 0, 68, 33
2, 62820, Note_on_c, 0, 71, 0
2, 62820, Note_on_c, 0, 83, 0
2, 62820, Note_on_c, 0, 85, 44
2, 62820, Note_on_c, 0, 73, 44
2, 63000, Note_on_c, 0, 73, 0
2, 63000, Note_on_c, 0, 68, 0
2, 63000, Note_on_c, 0, 80, 0
2, 63000, Note_on_c, 0, 85, 0
2, 63000, Note_on_c, 0, 87, 42
2, 63000, Note_on_c, 0, 75, 46
2, 63180, Note_on_c, 0, 75, 0
2, 63180, Note_on_c, 0, 87, 0
2, 63180, Note_on_c, 0, 88, 38
2, 63180, Note_on_c, 0, 76, 45
2, 63360, Note_on_c, 0, 76, 0
2, 63360, Note_on_c, 0, 88, 0
2, 63360, Note_on_c, 0, 87, 35
2, 63360, Note_on_c, 0, 75, 35
2, 63540, Note_on_c, 0, 75, 0
2, 63540, Note_on_c, 0, 87, 0
2, 63540, Note_on_c, 0, 85, 35
2, 63540, Note_on_c, 0, 73, 38
2, 63720, Note_on_c, 0, 73, 0
2, 63720, Note_on_c, 0, 85, 0
2, 63720, Note_on_c, 0, 83, 64
2, 63720, Note_on_c, 0, 71, 65
2, 64080, Note_on_c, 0, 71, 0
2, 64080, Note_on_c, 0, 83, 0
2, 64080, Note_on_c, 0, 78, 32
2, 64080, Note_on_c, 0, 66, 36
2, 64260, Note_on_c, 0, 66, 0
2, 64260, Note_on_c, 0, 78, 0
2, 64260, Note_on_c, 0, 78, 40
2, 64260, Note_on_c, 0, 66, 43
2, 64800, Note_on_c, 0, 66, 0
2, 64800, Note_on_c, 0, 78, 0
2, 64980, Note_on_c, 0, 83, 53
2, 64980, Note_on_c, 0, 71, 43
2, 65138, Note_on_c, 0, 71, 0
2, 65138, Note_on_c, 0, 83, 0
2, 65160, Note_on_c, 0, 80, 45
2, 65160, Note_on_c, 0, 68, 47
2, 65318, Note_on_c, 0, 68, 0
2, 65318, Note_on_c, 0, 80, 0
2, 65340, Note_on_c, 0, 80, 38
2, 65340, Note_on_c, 0, 68, 38
2, 65520, Note_on_c, 0, 68, 0
2, 65520, Note_on_c, 0, 80, 0
2, 65520, Note_on_c, 0, 78, 36
2, 65520, Note_on_c, 0, 66, 40
2, 65700, Note_on_c, 0, 66, 0
2, 65700, Note_on_c, 0, 78, 0
2, 65700, Note_on_c, 0, 77, 31
2, 65700, Note_on_c, 0, 65, 34
2, 65880, Note_on_c, 0, 65, 0
2, 65880, Note_on_c, 0, 77, 0
2, 65880, Note_on_c, 0, 78, 40
2, 65880, Note_on_c, 0, 66, 40
2, 66060, Note_on_c, 0, 66, 0
2, 66060, Note_on_c, 0, 78, 0
2, 66060, Note_on_c, 0, 80, 45
2, 66060, Note_on_c, 0, 68, 45
2, 66240, Note_on_c, 0, 68, 0
2, 66240, Note_on_c, 0, 80, 0
2, 66240, Note_on_c, 0, 81, 49
2, 66240, Note_on_c, 0, 69, 49
2, 66420, Note_on_c, 0, 69, 0
2, 66420, Note_on_c, 0, 81, 0
2, 66420, Note_on_c, 0, 83, 53
2, 66420, Note_on_c, 0, 71, 53
2, 66600, Note_on_c, 0, 71, 0
2, 66600, Note_on_c, 0, 83, 0
2, 66600, Note_on_c, 0, 76, 57
2, 66600, Note_on_c, 0, 64, 57
2, 66780, Note_on_c, 0, 64, 0
2, 66780, Note_on_c, 0, 76, 0
2, 66780, Note_on_c, 0, 83, 62
2, 66780, Note_on_c, 0, 71, 62
2, 66960, Note_on_c, 0, 71, 0
2, 66960, Note_on_c, 0, 83, 0
2, 66960, Note_on_c, 0, 84, 66
2, 66960, Note_on_c, 0, 72, 66
2, 67320, Note_on_c, 0, 72, 0
2, 67320, Note_on_c, 0, 84, 0
2, 67320, Note_on_c, 0, 81, 60
2, 67320, Note_on_c, 0, 69, 58
2, 67500, Note_on_c, 0, 69, 0
2, 67500, Note_on_c, 0, 81, 0
2, 67500, Note_on_c, 0, 86, 77
2, 67500, Note_on_c, 0, 74, 79
2, 67860, Note_on_c, 0, 74, 0
2, 67860, Note_on_c, 0, 86, 0
2, 67860, Note_on_c, 0, 83, 55
2, 67860, Note_on_c, 0, 71, 60
2, 68040, Note_on_c, 0, 71, 0
2, 68040, Note_on_c, 0, 83, 0
2, 68040, Note_on_c, 0, 88, 66
2, 68040, Note_on_c, 0, 76, 66
2, 68220, Note_on_c, 0, 76, 0
2, 68220, Note_on_c, 0, 88, 0
2, 68220, Note_on_c, 0, 76, 70
2, 68220, Note_on_c, 0, 64, 70
2, 68310, Note_on_c, 0, 64, 0
2, 68310, Note_on_c, 0, 76, 0
2, 68310, Note_on_c, 0, 78, 72
2, 68310, Note_on_c, 0, 66, 72
2, 68400, Note_on_c, 0, 66, 0
2, 68400, Note_on_c, 0, 78, 0
2, 68400, Note_on_c, 0, 79, 74
2, 68400, Note_on_c, 0, 67, 74
2, 68490, Note_on_c, 0, 67, 0
2, 68490, Note_on_c, 0, 79, 0
2, 68490, Note_on_c, 0, 81, 76
2, 68490, Note_on_c, 0, 69, 76
2, 68580, Note_on_c, 0, 69, 0
2, 68580, Note_on_c, 0, 81, 0
2, 68580, Note_on_c, 0, 82, 79
2, 68580, Note_on_c, 0, 70, 79
2, 68670, Note_on_c, 0, 70, 0
2, 68670, Note_on_c, 0, 82, 0
2, 68670, Note_on_c, 0, 84, 81
2, 68670, Note_on_c, 0, 72, 81
2, 68760, Note_on_c, 0, 72, 0
2, 68760, Note_on_c, 0, 84, 0
2, 68760, Note_on_c, 0, 87, 83
2, 68760, Note_on_c, 0, 75, 83
2, 68850, Note_on_c, 0, 75, 0
2, 68850, Note_on_c, 0, 87, 0
2, 68850, Note_on_c, 0, 88, 85
2, 68850, Note_on_c, 0, 76, 85
2, 68940, Note_on_c, 0, 76, 0
2, 68940, Note_on_c, 0, 88, 0
2, 68940, Note_on_c, 0, 90, 87
2, 68940, Note_on_c, 0, 78, 87
2, 69030, Note_on_c, 0, 78, 0
2, 69030, Note_on_c, 0, 90, 0
2, 69030, Note_on_c, 0, 91, 89
2, 69030, Note_on_c, 0, 79, 89
2, 69120, Note_on_c, 0, 79, 0
2, 69120, Note_on_c, 0, 91, 0
2, 69120, Note_on_c, 0, 92, 60
2, 69120, Note_on_c, 0, 76, 39
2, 69155, Note_on_c, 0, 76, 0
2, 69155, Note_on_c, 0, 92, 0
2, 69165, Note_on_c, 0, 88, 73
2, 69165, Note_on_c, 0, 80, 105
2, 69200, Note_on_c, 0, 80, 0
2, 69200, Note_on_c, 0, 88, 0
2, 69210, Note_on_c, 0, 92, 60
2, 69210, Note_on_c, 0, 76, 39
2, 69245, Note_on_c, 0, 76, 0
2, 69245, Note_on_c, 0, 92, 0
2, 69255, Note_on_c, 0, 88, 73
2, 69255, Note_on_c, 0, 80, 105
2, 69290, Note_on_c, 0, 80, 0
2, 69290, Note_on_c, 0, 88, 0
2, 69300, Note_on_c, 0, 92, 60
2, 69300, Note_on_c, 0, 76, 39
2, 69335, Note_on_c, 0, 76, 0
2, 69335, Note_on_c, 0, 92, 0
2, 69345, Note_on_c, 0, 88, 73
2, 69345, Note_on_c, 0, 80, 105
2, 69380, Note_on_c, 0, 80, 0
2, 69380, Note_on_c, 0, 88, 0
2, 69390, Note_on_c, 0, 92, 60
2, 69390, Note_on_c, 0, 76, 39
2, 69425, Note_on_c, 0, 76, 0
2, 69425, Note_on_c, 0, 92, 0
2, 69435, Note_on_c, 0, 88, 73
2, 69435, Note_on_c, 0, 80, 105
2, 69470, Note_on_c, 0, 80, 0
2, 69470, Note_on_c, 0, 88, 0
2, 69480, Note_on_c, 0, 92, 60
2, 69480, Note_on_c, 0, 76, 39
2, 69515, Note_on_c, 0, 76, 0
2, 69515, Note_on_c, 0, 92, 0
2, 69525, Note_on_c, 0, 88, 73
2, 69525, Note_on_c, 0, 80, 105
2, 69560, Note_on_c, 0, 80, 0
2, 69560, Note_on_c, 0, 88, 0
2, 69570, Note_on_c, 0, 92, 60
2, 69570, Note_on_c, 0, 76, 39
2, 69605, Note_on_c, 0, 76, 0
2, 69605, Note_on_c, 0, 92, 0
2, 69615, Note_on_c, 0, 88, 73
2, 69615, Note_on_c, 0, 80, 105
2, 69650, Note_on_c, 0, 80, 0
2, 69650, Note_on_c, 0, 88, 0
2, 69660, Note_on_c, 0, 92, 60
2, 69660, Note_on_c, 0, 76, 39
2, 69695, Note_on_c, 0, 76, 0
2, 69695, Note_on_c, 0, 92, 0
2, 69705, Note_on_c, 0, 88, 73
2, 69705, Note_on_c, 0, 80, 105
2, 69740, Note_on_c, 0, 80, 0
2, 69740, Note_on_c, 0, 88, 0
2, 69750, Note_on_c, 0, 92, 60
2, 69750, Note_on_c, 0, 76, 39
2, 69785, Note_on_c, 0, 76, 0
2, 69785, Note_on_c, 0, 92, 0
2, 69795, Note_on_c, 0, 88, 73
2, 69795, Note_on_c, 0, 80, 105
2, 69830, Note_on_c, 0, 80, 0
2, 69830, Note_on_c, 0, 88, 0
2, 69840, Note_on_c, 0, 92, 60
2, 69840, Note_on_c, 0, 76, 39
2, 69875, Note_on_c, 0, 76, 0
2, 69875, Note_on_c, 0, 92, 0
2, 69885, Note_on_c, 0, 88, 73
2, 69885, Note_on_c, 0, 80, 105
2, 69920, Note_on_c, 0, 80, 0
2, 69920, Note_on_c, 0, 88, 0
2, 69930, Note_on_c, 0, 92, 60
2, 69930, Note_on_c, 0, 76, 39
2, 69965, Note_on_c, 0, 76, 0
2, 69965, Note_on_c, 0, 92, 0
2, 69975, Note_on_c, 0, 88, 73
2, 69975, Note_on_c, 0, 80, 105
2, 70010, Note_on_c, 0, 80, 0
2, 70010, Note_on_c, 0, 88, 0
2, 70020, Note_on_c, 0, 92, 60
2, 70020, Note_on_c, 0, 76, 39
2, 70055, Note_on_c, 0, 76, 0
2, 70055, Note_on_c, 0, 92, 0
2, 70065, Note_on_c, 0, 88, 73
2, 70065, Note_on_c, 0, 80, 105
2, 70100, Note_on_c, 0, 80, 0
2, 70100, Note_on_c, 0, 88, 0
2, 70110, Note_on_c, 0, 92, 60
2, 70110, Note_on_c, 0, 76, 39
2, 70145, Note_on_c, 0, 76, 0
2, 70145, Note_on_c, 0, 92, 0
2, 70155, Note_on_c, 0, 88, 73
2, 70155, Note_on_c, 0, 80, 105
2, 70190, Note_on_c, 0, 80, 0
2, 70190, Note_on_c, 0, 88, 0
2, 70200, Note_on_c, 0, 92, 97
2, 70200, Note_on_c, 0, 76, 81
2, 70235, Note_on_c, 0, 76, 0
2, 70235, Note_on_c, 0, 92, 0
2, 70245, Note_on_c, 0, 88, 84
2, 70245, Note_on_c, 0, 80, 103
2, 70280, Note_on_c, 0, 80, 0
2, 70280, Note_on_c, 0, 88, 0
2, 70290, Note_on_c, 0, 92, 97
2, 70290, Note_on_c, 0, 76, 81
2, 70325, Note_on_c, 0, 76, 0
2, 70325, Note_on_c, 0, 92, 0
2, 70335, Note_on_c, 0, 88, 84
2, 70335, Note_on_c, 0, 80, 103
2, 70370, Note_on_c, 0, 80, 0
2, 70370, Note_on_c, 0, 88, 0
2, 70380, Note_on_c, 0, 92, 97
2, 70380, Note_on_c, 0, 76, 81
2, 70415, Note_on_c, 0, 76, 0
2, 70415, Note_on_c, 0, 92, 0
2, 70425, Note_on_c, 0, 88, 84
2, 70425, Note_on_c, 0, 80, 103
2, 70460, Note_on_c, 0, 80, 0
2, 70460, Note_on_c, 0, 88, 0
2, 70470, Note_on_c, 0, 92, 97
2, 70470, Note_on_c, 0, 76, 81
2, 70505, Note_on_c, 0, 76, 0
2, 70505, Note_on_c, 0, 92, 0
2, 70515, Note_on_c, 0, 88, 84
2, 70515, Note_on_c, 0, 80, 103
2, 70550, Note_on_c, 0, 80, 0
2, 70550, Note_on_c, 0, 88, 0
2, 70560, Note_on_c, 0, 92, 97
2, 70560, Note_on_c, 0, 76, 81
2, 70595, Note_on_c, 0, 76, 0
2, 70595, Note_on_c, 0, 92, 0
2, 70605, Note_on_c, 0, 88, 84
2, 70605, Note_on_c, 0, 80, 103
2, 70640, Note_on_c, 0, 80, 0
2, 70640, Note_on_c, 0, 88, 0
2, 70650, Note_on_c, 0, 92, 97
2, 70650, Note_on_c, 0, 76, 81
2, 70685, Note_on_c, 0, 76, 0
2, 70685, Note_on_c, 0, 92, 0
2, 70695, Note_on_c, 0, 88, 84
2, 70695, Note_on_c, 0, 80, 103
2, 70730, Note_on_c, 0, 80, 0
2, 70730, Note_on_c, 0, 88, 0
2, 70740, Note_on_c, 0, 92, 97
2, 70740, Note_on_c, 0, 92, 107
2, 70740, Note_on_c, 0, 76, 81
2, 70775, Note_on_c, 0, 76, 0
2, 70775, Note_on_c, 0, 92, 0
2, 70785, Note_on_c, 0, 88, 20
2, 70785, Note_on_c, 0, 80, 103
2, 70820, Note_on_c, 0, 80, 0
2, 70830, Note_on_c, 0, 88, 0
2, 70830, Note_on_c, 0, 92, 34
2, 70830, Note_on_c, 0, 76, 81
2, 70865, Note_on_c, 0, 76, 0
2, 70875, Note_on_c, 0, 92, 0
2, 70875, Note_on_c, 0, 88, 29
2, 70875, Note_on_c, 0, 80, 103
2, 70910, Note_on_c, 0, 80, 0
2, 70920, Note_on_c, 0, 88, 0
2, 70920, Note_on_c, 0, 92, 0
2, 70920, Note_on_c, 0, 88, 103
2, 70920, Note_on_c, 0, 76, 81
2, 70955, Note_on_c, 0, 76, 0
2, 70965, Note_on_c, 0, 83, 23
2, 70965, Note_on_c, 0, 80, 103
2, 71000, Note_on_c, 0, 80, 0
2, 71010, Note_on_c, 0, 83, 0
2, 71010, Note_on_c, 0, 88, 32
2, 71010, Note_on_c, 0, 76, 81
2, 71045, Note_on_c, 0, 76, 0
2, 71055, Note_on_c, 0, 88, 0
2, 71055, Note_on_c, 0, 83, 22
2, 71055, Note_on_c, 0, 80, 103
2, 71090, Note_on_c, 0, 80, 0
2, 71100, Note_on_c, 0, 83, 0
2, 71100, Note_on_c, 0, 88, 0
2, 71100, Note_on_c, 0, 92, 107
2, 71100, Note_on_c, 0, 76, 81
2, 71135, Note_on_c, 0, 76, 0
2, 71145, Note_on_c, 0, 88, 22
2, 71145, Note_on_c, 0, 80, 103
2, 71180, Note_on_c, 0, 80, 0
2, 71190, Note_on_c, 0, 88, 0
2, 71190, Note_on_c, 0, 92, 37
2, 71190, Note_on_c, 0, 76, 81
2, 71225, Note_on_c, 0, 76, 0
2, 71235, Note_on_c, 0, 92, 0
2, 71235, Note_on_c, 0, 88, 29
2, 71235, Note_on_c, 0, 80, 103
2, 71270, Note_on_c, 0, 80, 0
2, 71280, Note_on_c, 0, 88, 0
2, 71280, Note_on_c, 0, 92, 0
2, 71280, Note_on_c, 0, 95, 105
2, 71280, Note_on_c, 0, 80, 92
2, 71315, Note_on_c, 0, 80, 0
2, 71315, Note_on_c, 0, 95, 0
2, 71325, Note_on_c, 0, 92, 83
2, 71325, Note_on_c, 0, 83, 100
2, 71360, Note_on_c, 0, 83, 0
2, 71360, Note_on_c, 0, 92, 0
2, 71370, Note_on_c, 0, 95, 105
2, 71370, Note_on_c, 0, 80, 92
2, 71405, Note_on_c, 0, 80, 0
2, 71405, Note_on_c, 0, 95, 0
2, 71415, Note_on_c, 0, 92, 83
2, 71415, Note_on_c, 0, 83, 100
2, 71450, Note_on_c, 0, 83, 0
2, 71450, Note_on_c, 0, 92, 0
2, 71460, Note_on_c, 0, 95, 105
2, 71460, Note_on_c, 0, 80, 92
2, 71495, Note_on_c, 0, 80, 0
2, 71495, Note_on_c, 0, 95, 0
2, 71505, Note_on_c, 0, 92, 83
2, 71505, Note_on_c, 0, 83, 100
2, 71540, Note_on_c, 0, 83, 0
2, 71540, Note_on_c, 0, 92, 0
2, 71550, Note_on_c, 0, 95, 105
2, 71550, Note_on_c, 0, 80, 92
2, 71585, Note_on_c, 0, 80, 0
2, 71585, Note_on_c, 0, 95, 0
2, 71595, Note_on_c, 0, 92, 83
2, 71595, Note_on_c, 0, 83, 100
2, 71630, Note_on_c, 0, 83, 0
2, 71630, Note_on_c, 0, 92, 0
2, 71640, Note_on_c, 0, 95, 105
2, 71640, Note_on_c, 0, 80, 92
2, 71675, Note_on_c, 0, 80, 0
2, 71675, Note_on_c, 0, 95, 0
2, 71685, Note_on_c, 0, 92, 83
2, 71685, Note_on_c, 0, 83, 100
2, 71720, Note_on_c, 0, 83, 0
2, 71720, Note_on_c, 0, 92, 0
2, 71730, Note_on_c, 0, 95, 105
2, 71730, Note_on_c, 0, 80, 92
2, 71765, Note_on_c, 0, 80, 0
2, 71765, Note_on_c, 0, 95, 0
2, 71775, Note_on_c, 0, 92, 83
2, 71775, Note_on_c, 0, 83, 100
2, 71810, Note_on_c, 0, 83, 0
2, 71810, Note_on_c, 0, 92, 0
2, 71820, Note_on_c, 0, 95, 105
2, 71820, Note_on_c, 0, 80, 92
2, 71855, Note_on_c, 0, 80, 0
2, 71855, Note_on_c, 0, 95, 0
2, 71865, Note_on_c, 0, 92, 83
2, 71865, Note_on_c, 0, 83, 100
2, 71900, Note_on_c, 0, 83, 0
2, 71900, Note_on_c, 0, 92, 0
2, 71910, Note_on_c, 0, 95, 105
2, 71910, Note_on_c, 0, 80, 92
2, 71945, Note_on_c, 0, 80, 0
2, 71945, Note_on_c, 0, 95, 0
2, 71955, Note_on_c, 0, 92, 83
2, 71955, Note_on_c, 0, 83, 100
2, 71990, Note_on_c, 0, 83, 0
2, 71990, Note_on_c, 0, 92, 0
2, 72000, Note_on_c, 0, 95, 105
2, 72000, Note_on_c, 0, 80, 92
2, 72035, Note_on_c, 0, 80, 0
2, 72035, Note_on_c, 0, 95, 0
2, 72045, Note_on_c, 0, 92, 83
2, 72045, Note_on_c, 0, 83, 100
2, 72080, Note_on_c, 0, 83, 0
2, 72080, Note_on_c, 0, 92, 0
2, 72090, Note_on_c, 0, 95, 105
2, 72090, Note_on_c, 0, 80, 92
2, 72125, Note_on_c, 0, 80, 0
2, 72125, Note_on_c, 0, 95, 0
2, 72135, Note_on_c, 0, 92, 83
2, 72135, Note_on_c, 0, 83, 100
2, 72170, Note_on_c, 0, 83, 0
2, 72170, Note_on_c, 0, 92, 0
2, 72180, Note_on_c, 0, 95, 105
2, 72180, Note_on_c, 0, 80, 92
2, 72215, Note_on_c, 0, 80, 0
2, 72215, Note_on_c, 0, 95, 0
2, 72225, Note_on_c, 0, 92, 83
2, 72225, Note_on_c, 0, 83, 100
2, 72260, Note_on_c, 0, 83, 0
2, 72260, Note_on_c, 0, 92, 0
2, 72270, Note_on_c, 0, 95, 105
2, 72270, Note_on_c, 0, 80, 92
2, 72305, Note_on_c, 0, 80, 0
2, 72305, Note_on_c, 0, 95, 0
2, 72315, Note_on_c, 0, 92, 83
2, 72315, Note_on_c, 0, 83, 100
2, 72350, Note_on_c, 0, 83, 0
2, 72350, Note_on_c, 0, 92, 0
2, 72360, Note_on_c, 0, 95, 101
2, 72360, Note_on_c, 0, 80, 82
2, 72395, Note_on_c, 0, 80, 0
2, 72395, Note_on_c, 0, 95, 0
2, 72405, Note_on_c, 0, 92, 86
2, 72405, Note_on_c, 0, 83, 99
2, 72440, Note_on_c, 0, 83, 0
2, 72440, Note_on_c, 0, 92, 0
2, 72450, Note_on_c, 0, 95, 101
2, 72450, Note_on_c, 0, 80, 82
2, 72485, Note_on_c, 0, 80, 0
2, 72485, Note_on_c, 0, 95, 0
2, 72495, Note_on_c, 0, 92, 86
2, 72495, Note_on_c, 0, 83, 99
2, 72530, Note_on_c, 0, 83, 0
2, 72530, Note_on_c, 0, 92, 0
2, 72540, Note_on_c, 0, 95, 101
2, 72540, Note_on_c, 0, 80, 82
2, 72575, Note_on_c, 0, 80, 0
2, 72575, Note_on_c, 0, 95, 0
2, 72585, Note_on_c, 0, 92, 86
2, 72585, Note_on_c, 0, 83, 99
2, 72620, Note_on_c, 0, 83, 0
2, 72620, Note_on_c, 0, 92, 0
2, 72630, Note_on_c, 0, 95, 101
2, 72630, Note_on_c, 0, 80, 82
2, 72665, Note_on_c, 0, 80, 0
2, 72665, Note_on_c, 0, 95, 0
2, 72675, Note_on_c, 0, 92, 86
2, 72675, Note_on_c, 0, 83, 99
2, 72710, Note_on_c, 0, 83, 0
2, 72710, Note_on_c, 0, 92, 0
2, 72720, Note_on_c, 0, 95, 101
2, 72720, Note_on_c, 0, 80, 82
2, 72755, Note_on_c, 0, 80, 0
2, 72755, Note_on_c, 0, 95, 0
2, 72765, Note_on_c, 0, 92, 86
2, 72765, Note_on_c, 0, 83, 99
2, 72800, Note_on_c, 0, 83, 0
2, 72800, Note_on_c, 0, 92, 0
2, 72810, Note_on_c, 0, 95, 101
2, 72810, Note_on_c, 0, 80, 82
2, 72845, Note_on_c, 0, 80, 0
2, 72845, Note_on_c, 0, 95, 0
2, 72855, Note_on_c, 0, 92, 86
2, 72855, Note_on_c, 0, 83, 99
2, 72890, Note_on_c, 0, 83, 0
2, 72890, Note_on_c, 0, 92, 0
2, 72900, Note_on_c, 0, 95, 101
2, 72900, Note_on_c, 0, 95, 107
2, 72900, Note_on_c, 0, 80, 82
2, 72935, Note_on_c, 0, 80, 0
2, 72935, Note_on_c, 0, 95, 0
2, 72945, Note_on_c, 0, 92, 24
2, 72945, Note_on_c, 0, 83, 99
2, 72980, Note_on_c, 0, 83, 0
2, 72990, Note_on_c, 0, 92, 0
2, 72990, Note_on_c, 0, 95, 33
2, 72990, Note_on_c, 0, 80, 82
2, 73025, Note_on_c, 0, 80, 0
2, 73035, Note_on_c, 0, 95, 0
2, 73035, Note_on_c, 0, 92, 26
2, 73035, Note_on_c, 0, 83, 99
2, 73070, Note_on_c, 0, 83, 0
2, 73080, Note_on_c, 0, 92, 0
2, 73080, Note_on_c, 0, 95, 0
2, 73080, Note_on_c, 0, 92, 104
2, 73080, Note_on_c, 0, 80, 82
2, 73115, Note_on_c, 0, 80, 0
2, 73125, Note_on_c, 0, 88, 24
2, 73125, Note_on_c, 0, 83, 99
2, 73160, Note_on_c, 0, 83, 0
2, 73170, Note_on_c, 0, 88, 0
2, 73170, Note_on_c, 0, 92, 32
2, 73170, Note_on_c, 0, 80, 82
2, 73205, Note_on_c, 0, 80, 0
2, 73215, Note_on_c, 0, 92, 0
2, 73215, Note_on_c, 0, 88, 29
2, 73215, Note_on_c, 0, 83, 99
2, 73250, Note_on_c, 0, 83, 0
2, 73260, Note_on_c, 0, 88, 0
2, 73260, Note_on_c, 0, 92, 0
2, 73260, Note_on_c, 0, 95, 107
2, 73260, Note_on_c, 0, 80, 82
2, 73295, Note_on_c, 0, 80, 0
2, 73305, Note_on_c, 0, 92, 25
2, 73305, Note_on_c, 0, 83, 99
2, 73340, Note_on_c, 0, 83, 0
2, 73350, Note_on_c, 0, 92, 0
2, 73350, Note_on_c, 0, 95, 34
2, 73350, Note_on_c, 0, 80, 82
2, 73385, Note_on_c, 0, 80, 0
2, 73395, Note_on_c, 0, 95, 0
2, 73395, Note_on_c, 0, 92, 28
2, 73395, Note_on_c, 0, 83, 99
2, 73430, Note_on_c, 0, 83, 0
2, 73440, Note_on_c, 0, 92, 0
2, 73440, Note_on_c, 0, 95, 0
2, 73440, Note_on_c, 0, 95, 90
2, 73440, Note_on_c, 0, 83, 95
2, 73475, Note_on_c, 0, 83, 0
2, 73475, Note_on_c, 0, 95, 0
2, 73485, Note_on_c, 0, 92, 85
2, 73485, Note_on_c, 0, 88, 102
2, 73520, Note_on_c, 0, 88, 0
2, 73520, Note_on_c, 0, 92, 0
2, 73530, Note_on_c, 0, 95, 90
2, 73530, Note_on_c, 0, 83, 95
2, 73565, Note_on_c, 0, 83, 0
2, 73565, Note_on_c, 0, 95, 0
2, 73575, Note_on_c, 0, 92, 85
2, 73575, Note_on_c, 0, 88, 102
2, 73610, Note_on_c, 0, 88, 0
2, 73610, Note_on_c, 0, 92, 0
2, 73620, Note_on_c, 0, 95, 90
2, 73620, Note_on_c, 0, 83, 95
2, 73655, Note_on_c, 0, 83, 0
2, 73655, Note_on_c, 0, 95, 0
2, 73665, Note_on_c, 0, 92, 85
2, 73665, Note_on_c, 0, 88, 102
2, 73700, Note_on_c, 0, 88, 0
2, 73700, Note_on_c, 0, 92, 0
2, 73710, Note_on_c, 0, 95, 90
2, 73710, Note_on_c, 0, 83, 95
2, 73745, Note_on_c, 0, 83, 0
2, 73745, Note_on_c, 0, 95, 0
2, 73755, Note_on_c, 0, 92, 85
2, 73755, Note_on_c, 0, 88, 102
2, 73790, Note_on_c, 0, 88, 0
2, 73790, Note_on_c, 0, 92, 0
2, 73800, Note_on_c, 0, 95, 90
2, 73800, Note_on_c, 0, 83, 95
2, 73835, Note_on_c, 0, 83, 0
2, 73835, Note_on_c, 0, 95, 0
2, 73845, Note_on_c, 0, 92, 85
2, 73845, Note_on_c, 0, 88, 102
2, 73880, Note_on_c, 0, 88, 0
2, 73880, Note_on_c, 0, 92, 0
2, 73890, Note_on_c, 0, 95, 90
2, 73890, Note_on_c, 0, 83, 95
2, 73925, Note_on_c, 0, 83, 0
2, 73925, Note_on_c, 0, 95, 0
2, 73935, Note_on_c, 0, 92, 85
2, 73935, Note_on_c, 0, 88, 102
2, 73970, Note_on_c, 0, 88, 0
2, 73970, Note_on_c, 0, 92, 0
2, 73980, Note_on_c, 0, 95, 90
2, 73980, Note_on_c, 0, 95, 107
2, 73980, Note_on_c, 0, 83, 95
2, 73980, Note_on_c, 0, 83, 75
2, 74015, Note_on_c, 0, 83, 0
2, 74015, Note_on_c, 0, 95, 0
2, 74025, Note_on_c, 0, 92, 22
2, 74070, Note_on_c, 0, 92, 0
2, 74070, Note_on_c, 0, 83, 0
2, 74070, Note_on_c, 0, 95, 39
2, 74115, Note_on_c, 0, 95, 0
2, 74115, Note_on_c, 0, 92, 26
2, 74160, Note_on_c, 0, 92, 0
2, 74160, Note_on_c, 0, 95, 0
2, 74160, Note_on_c, 0, 92, 107
2, 74160, Note_on_c, 0, 76, 75
2, 74205, Note_on_c, 0, 88, 26
2, 74250, Note_on_c, 0, 88, 0
2, 74250, Note_on_c, 0, 92, 35
2, 74295, Note_on_c, 0, 92, 0
2, 74295, Note_on_c, 0, 88, 27
2, 74340, Note_on_c, 0, 88, 0
2, 74340, Note_on_c, 0, 92, 0
2, 74340, Note_on_c, 0, 76, 0
2, 74340, Note_on_c, 0, 95, 107
2, 74340, Note_on_c, 0, 80, 102
2, 74385, Note_on_c, 0, 92, 30
2, 74430, Note_on_c, 0, 92, 0
2, 74430, Note_on_c, 0, 95, 35
2, 74475, Note_on_c, 0, 95, 0
2, 74475, Note_on_c, 0, 92, 28
2, 74520, Note_on_c, 0, 92, 0
2, 74520, Note_on_c, 0, 95, 0
2, 74520, Note_on_c, 0, 80, 0
2, 74520, Note_on_c, 0, 90, 96
2, 74520, Note_on_c, 0, 95, 96
2, 74520, Note_on_c, 0, 78, 99
2, 74520, Note_on_c, 0, 83, 99
2, 74565, Note_on_c, 0, 83, 0
2, 74565, Note_on_c, 0, 90, 0
2, 74565, Note_on_c, 0, 95, 0
2, 74565, Note_on_c, 0, 78, 0
2, 74565, Note_on_c, 0, 88, 70
2, 74565, Note_on_c, 0, 76, 78
2, 74610, Note_on_c, 0, 76, 0
2, 74610, Note_on_c, 0, 88, 0
2, 74610, Note_on_c, 0, 90, 106
2, 74610, Note_on_c, 0, 95, 106
2, 74610, Note_on_c, 0, 78, 106
2, 74610, Note_on_c, 0, 83, 106
2, 74655, Note_on_c, 0, 83, 0
2, 74655, Note_on_c, 0, 90, 0
2, 74655, Note_on_c, 0, 95, 0
2, 74655, Note_on_c, 0, 78, 0
2, 74655, Note_on_c, 0, 88, 74
2, 74655, Note_on_c, 0, 76, 73
2, 74700, Note_on_c, 0, 76, 0
2, 74700, Note_on_c, 0, 88, 0
2, 74700, Note_on_c, 0, 88, 97
2, 74700, Note_on_c, 0, 90, 97
2, 74700, Note_on_c, 0, 76, 95
2, 74700, Note_on_c, 0, 78, 95
2, 74745, Note_on_c, 0, 78, 0
2, 74745, Note_on_c, 0, 88, 0
2, 74745, Note_on_c, 0, 90, 0
2, 74745, Note_on_c, 0, 76, 0
2, 74745, Note_on_c, 0, 83, 68
2, 74745, Note_on_c, 0, 71, 68
2, 74790, Note_on_c, 0, 71, 0
2, 74790, Note_on_c, 0, 83, 0
2, 74790, Note_on_c, 0, 88, 103
2, 74790, Note_on_c, 0, 90, 103
2, 74790, Note_on_c, 0, 76, 106
2, 74790, Note_on_c, 0, 78, 106
2, 74835, Note_on_c, 0, 78, 0
2, 74835, Note_on_c, 0, 88, 0
2, 74835, Note_on_c, 0, 90, 0
2, 74835, Note_on_c, 0, 76, 0
2, 74835, Note_on_c, 0, 83, 76
2, 74835, Note_on_c, 0, 71, 74
2, 74880, Note_on_c, 0, 71, 0
2, 74880, Note_on_c, 0, 83, 0
2, 74880, Note_on_c, 0, 90, 106
2, 74880, Note_on_c, 0, 95, 106
2, 74880, Note_on_c, 0, 78, 106
2, 74880, Note_on_c, 0, 83, 106
2, 74925, Note_on_c, 0, 83, 0
2, 74925, Note_on_c, 0, 90, 0
2, 74925, Note_on_c, 0, 95, 0
2, 74925, Note_on_c, 0, 78, 0
2, 74925, Note_on_c, 0, 88, 77
2, 74925, Note_on_c, 0, 76, 79
2, 74970, Note_on_c, 0, 76, 0
2, 74970, Note_on_c, 0, 88, 0
2, 74970, Note_on_c, 0, 90, 106
2, 74970, Note_on_c, 0, 95, 106
2, 74970, Note_on_c, 0, 78, 106
2, 74970, Note_on_c, 0, 83, 106
2, 75015, Note_on_c, 0, 83, 0
2, 75015, Note_on_c, 0, 90, 0
2, 75015, Note_on_c, 0, 95, 0
2, 75015, Note_on_c, 0, 78, 0
2, 75015, Note_on_c, 0, 88, 77
2, 75015, Note_on_c, 0, 76, 73
2, 75060, Note_on_c, 0, 76, 0
2, 75060, Note_on_c, 0, 88, 0
2, 75060, Note_on_c, 0, 90, 106
2, 75060, Note_on_c, 0, 95, 106
2, 75060, Note_on_c, 0, 78, 106
2, 75060, Note_on_c, 0, 83, 106
2, 75105, Note_on_c, 0, 83, 0
2, 75105, Note_on_c, 0, 90, 0
2, 75105, Note_on_c, 0, 95, 0
2, 75105, Note_on_c, 0, 78, 0
2, 75105, Note_on_c, 0, 87, 70
2, 75105, Note_on_c, 0, 75, 72
2, 75150, Note_on_c, 0, 75, 0
2, 75150, Note_on_c, 0, 87, 0
2, 75150, Note_on_c, 0, 90, 106
2, 75150, Note_on_c, 0, 95, 106
2, 75150, Note_on_c, 0, 78, 106
2, 75150, Note_on_c, 0, 83, 106
2, 75195, Note_on_c, 0, 83, 0
2, 75195, Note_on_c, 0, 90, 0
2, 75195, Note_on_c, 0, 95, 0
2, 75195, Note_on_c, 0, 78, 0
2, 75195, Note_on_c, 0, 87, 71
2, 75195, Note_on_c, 0, 75, 73
2, 75240, Note_on_c, 0, 75, 0
2, 75240, Note_on_c, 0, 87, 0
2, 75240, Note_on_c, 0, 87, 98
2, 75240, Note_on_c, 0, 90, 98
2, 75240, Note_on_c, 0, 75, 101
2, 75240, Note_on_c, 0, 78, 101
2, 75285, Note_on_c, 0, 78, 0
2, 75285, Note_on_c, 0, 87, 0
2, 75285, Note_on_c, 0, 90, 0
2, 75285, Note_on_c, 0, 75, 0
2, 75285, Note_on_c, 0, 83, 71
2, 75285, Note_on_c, 0, 71, 70
2, 75330, Note_on_c, 0, 71, 0
2, 75330, Note_on_c, 0, 83, 0
2, 75330, Note_on_c, 0, 87, 104
2, 75330, Note_on_c, 0, 90, 104
2, 75330, Note_on_c, 0, 75, 106
2, 75330, Note_on_c, 0, 78, 106
2, 75375, Note_on_c, 0, 78, 0
2, 75375, Note_on_c, 0, 87, 0
2, 75375, Note_on_c, 0, 90, 0
2, 75375, Note_on_c, 0, 75, 0
2, 75375, Note_on_c, 0, 83, 74
2, 75375, Note_on_c, 0, 71, 72
2, 75420, Note_on_c, 0, 71, 0
2, 75420, Note_on_c, 0, 83, 0
2, 75420, Note_on_c, 0, 90, 106
2, 75420, Note_on_c, 0, 95, 106
2, 75420, Note_on_c, 0, 78, 106
2, 75420, Note_on_c, 0, 83, 106
2, 75465, Note_on_c, 0, 83, 0
2, 75465, Note_on_c, 0, 90, 0
2, 75465, Note_on_c, 0, 95, 0
2, 75465, Note_on_c, 0, 78, 0
2, 75465, Note_on_c, 0, 87, 74
2, 75465, Note_on_c, 0, 75, 74
2, 75510, Note_on_c, 0, 75, 0
2, 75510, Note_on_c, 0, 87, 0
2, 75510, Note_on_c, 0, 90, 106
2, 75510, Note_on_c, 0, 95, 106
2, 75510, Note_on_c, 0, 78, 106
2, 75510, Note_on_c, 0, 83, 106
2, 75555, Note_on_c, 0, 83, 0
2, 75555, Note_on_c, 0, 90, 0
2, 75555, Note_on_c, 0, 95, 0
2, 75555, Note_on_c, 0, 78, 0
2, 75555, Note_on_c, 0, 87, 74
2, 75555, Note_on_c, 0, 75, 74
2, 75600, Note_on_c, 0, 75, 0
2, 75600, Note_on_c, 0, 87, 0
2, 75600, Note_on_c, 0, 91, 54
2, 75600, Note_on_c, 0, 96, 54
2, 75600, Note_on_c, 0, 76, 48
2, 75600, Note_on_c, 0, 79, 48
2, 75635, Note_on_c, 0, 79, 0
2, 75635, Note_on_c, 0, 91, 0
2, 75635, Note_on_c, 0, 96, 0
2, 75635, Note_on_c, 0, 76, 0
2, 75645, Note_on_c, 0, 88, 30
2, 75645, Note_on_c, 0, 84, 50
2, 75680, Note_on_c, 0, 84, 0
2, 75680, Note_on_c, 0, 88, 0
2, 75690, Note_on_c, 0, 91, 54
2, 75690, Note_on_c, 0, 96, 54
2, 75690, Note_on_c, 0, 76, 48
2, 75690, Note_on_c, 0, 79, 48
2, 75725, Note_on_c, 0, 79, 0
2, 75725, Note_on_c, 0, 91, 0
2, 75725, Note_on_c, 0, 96, 0
2, 75725, Note_on_c, 0, 76, 0
2, 75735, Note_on_c, 0, 88, 30
2, 75735, Note_on_c, 0, 84, 50
2, 75770, Note_on_c, 0, 84, 0
2, 75770, Note_on_c, 0, 88, 0
2, 75780, Note_on_c, 0, 91, 54
2, 75780, Note_on_c, 0, 96, 54
2, 75780, Note_on_c, 0, 76, 48
2, 75780, Note_on_c, 0, 79, 48
2, 75815, Note_on_c, 0, 79, 0
2, 75815, Note_on_c, 0, 91, 0
2, 75815, Note_on_c, 0, 96, 0
2, 75815, Note_on_c, 0, 76, 0
2, 75825, Note_on_c, 0, 88, 30
2, 75825, Note_on_c, 0, 84, 50
2, 75860, Note_on_c, 0, 84, 0
2, 75860, Note_on_c, 0, 88, 0
2, 75870, Note_on_c, 0, 91, 54
2, 75870, Note_on_c, 0, 96, 54
2, 75870, Note_on_c, 0, 76, 48
2, 75870, Note_on_c, 0, 79, 48
2, 75905, Note_on_c, 0, 79, 0
2, 75905, Note_on_c, 0, 91, 0
2, 75905, Note_on_c, 0, 96, 0
2, 75905, Note_on_c, 0, 76, 0
2, 75915, Note_on_c, 0, 88, 30
2, 75915, Note_on_c, 0, 84, 50
2, 75950, Note_on_c, 0, 84, 0
2, 75950, Note_on_c, 0, 88, 0
2, 75960, Note_on_c, 0, 91, 54
2, 75960, Note_on_c, 0, 96, 54
2, 75960, Note_on_c, 0, 76, 48
2, 75960, Note_on_c, 0, 79, 48
2, 75995, Note_on_c, 0, 79, 0
2, 75995, Note_on_c, 0, 91, 0
2, 75995, Note_on_c, 0, 96, 0
2, 75995, Note_on_c, 0, 76, 0
2, 76005, Note_on_c, 0, 88, 30
2, 76005, Note_on_c, 0, 84, 50
2, 76040, Note_on_c, 0, 84, 0
2, 76040, Note_on_c, 0, 88, 0
2, 76050, Note_on_c, 0, 91, 54
2, 76050, Note_on_c, 0, 96, 54
2, 76050, Note_on_c, 0, 76, 48
2, 76050, Note_on_c, 0, 79, 48
2, 76085, Note_on_c, 0, 79, 0
2, 76085, Note_on_c, 0, 91, 0
2, 76085, Note_on_c, 0, 96, 0
2, 76085, Note_on_c, 0, 76, 0
2, 76095, Note_on_c, 0, 88, 30
2, 76095, Note_on_c, 0, 84, 50
2, 76130, Note_on_c, 0, 84, 0
2, 76130, Note_on_c, 0, 88, 0
2, 76140, Note_on_c, 0, 91, 54
2, 76140, Note_on_c, 0, 96, 54
2, 76140, Note_on_c, 0, 76, 48
2, 76140, Note_on_c, 0, 79, 48
2, 76175, Note_on_c, 0, 79, 0
2, 76175, Note_on_c, 0, 91, 0
2, 76175, Note_on_c, 0, 96, 0
2, 76175, Note_on_c, 0, 76, 0
2, 76185, Note_on_c, 0, 88, 30
2, 76185, Note_on_c, 0, 84, 50
2, 76220, Note_on_c, 0, 84, 0
2, 76220, Note_on_c, 0, 88, 0
2, 76230, Note_on_c, 0, 91, 54
2, 76230, Note_on_c, 0, 96, 54
2, 76230, Note_on_c, 0, 76, 48
2, 76230, Note_on_c, 0, 79, 48
2, 76265, Note_on_c, 0, 79, 0
2, 76265, Note_on_c, 0, 91, 0
2, 76265, Note_on_c, 0, 96, 0
2, 76265, Note_on_c, 0, 76, 0
2, 76275, Note_on_c, 0, 88, 30
2, 76275, Note_on_c, 0, 84, 50
2, 76310, Note_on_c, 0, 84, 0
2, 76310, Note_on_c, 0, 88, 0
2, 76320, Note_on_c, 0, 91, 54
2, 76320, Note_on_c, 0, 96, 54
2, 76320, Note_on_c, 0, 76, 48
2, 76320, Note_on_c, 0, 79, 48
2, 76355, Note_on_c, 0, 79, 0
2, 76355, Note_on_c, 0, 91, 0
2, 76355, Note_on_c, 0, 96, 0
2, 76355, Note_on_c, 0, 76, 0
2, 76365, Note_on_c, 0, 88, 30
2, 76365, Note_on_c, 0, 84, 50
2, 76400, Note_on_c, 0, 84, 0
2, 76400, Note_on_c, 0, 88, 0
2, 76410, Note_on_c, 0, 91, 54
2, 76410, Note_on_c, 0, 96, 54
2, 76410, Note_on_c, 0, 76, 48
2, 76410, Note_on_c, 0, 79, 48
2, 76445, Note_on_c, 0, 79, 0
2, 76445, Note_on_c, 0, 91, 0
2, 76445, Note_on_c, 0, 96, 0
2, 76445, Note_on_c, 0, 76, 0
2, 76455, Note_on_c, 0, 88, 30
2, 76455, Note_on_c, 0, 84, 50
2, 76490, Note_on_c, 0, 84, 0
2, 76490, Note_on_c, 0, 88, 0
2, 76500, Note_on_c, 0, 91, 54
2, 76500, Note_on_c, 0, 96, 54
2, 76500, Note_on_c, 0, 76, 48
2, 76500, Note_on_c, 0, 79, 48
2, 76535, Note_on_c, 0, 79, 0
2, 76535, Note_on_c, 0, 91, 0
2, 76535, Note_on_c, 0, 96, 0
2, 76535, Note_on_c, 0, 76, 0
2, 76545, Note_on_c, 0, 88, 30
2, 76545, Note_on_c, 0, 84, 50
2, 76580, Note_on_c, 0, 84, 0
2, 76580, Note_on_c, 0, 88, 0
2, 76590, Note_on_c, 0, 91, 54
2, 76590, Note_on_c, 0, 96, 54
2, 76590, Note_on_c, 0, 76, 48
2, 76590, Note_on_c, 0, 79, 48
2, 76625, Note_on_c, 0, 79, 0
2, 76625, Note_on_c, 0, 91, 0
2, 76625, Note_on_c, 0, 96, 0
2, 76625, Note_on_c, 0, 76, 0
2, 76635, Note_on_c, 0, 88, 30
2, 76635, Note_on_c, 0, 84, 50
2, 76670, Note_on_c, 0, 84, 0
2, 76670, Note_on_c, 0, 88, 0
2, 76680, Note_on_c, 0, 96, 47
2, 76680, Note_on_c, 0, 76, 34
2, 76680, Note_on_c, 0, 79, 34
2, 76715, Note_on_c, 0, 96, 0
2, 76725, Note_on_c, 0, 84, 25
2, 76760, Note_on_c, 0, 84, 0
2, 76770, Note_on_c, 0, 96, 47
2, 76805, Note_on_c, 0, 96, 0
2, 76815, Note_on_c, 0, 84, 25
2, 76850, Note_on_c, 0, 84, 0
2, 76860, Note_on_c, 0, 79, 0
2, 76860, Note_on_c, 0, 76, 0
2, 76860, Note_on_c, 0, 96, 47
2, 76895, Note_on_c, 0, 96, 0
2, 76905, Note_on_c, 0, 84, 25
2, 76940, Note_on_c, 0, 84, 0
2, 76950, Note_on_c, 0, 96, 47
2, 76985, Note_on_c, 0, 96, 0
2, 76995, Note_on_c, 0, 84, 25
2, 77030, Note_on_c, 0, 84, 0
2, 77040, Note_on_c, 0, 96, 47
2, 77075, Note_on_c, 0, 96, 0
2, 77085, Note_on_c, 0, 84, 25
2, 77120, Note_on_c, 0, 84, 0
2, 77130, Note_on_c, 0, 96, 47
2, 77165, Note_on_c, 0, 96, 0
2, 77175, Note_on_c, 0, 84, 25
2, 77210, Note_on_c, 0, 84, 0
2, 77220, Note_on_c, 0, 96, 47
2, 77255, Note_on_c, 0, 96, 0
2, 77265, Note_on_c, 0, 84, 25
2, 77300, Note_on_c, 0, 84, 0
2, 77310, Note_on_c, 0, 96, 47
2, 77345, Note_on_c, 0, 96, 0
2, 77355, Note_on_c, 0, 84, 25
2, 77390, Note_on_c, 0, 84, 0
2, 77400, Note_on_c, 0, 96, 47
2, 77435, Note_on_c, 0, 96, 0
2, 77445, Note_on_c, 0, 84, 25
2, 77480, Note_on_c, 0, 84, 0
2, 77490, Note_on_c, 0, 96, 47
2, 77525, Note_on_c, 0, 96, 0
2, 77535, Note_on_c, 0, 84, 25
2, 77570, Note_on_c, 0, 84, 0
2, 77580, Note_on_c, 0, 96, 47
2, 77615, Note_on_c, 0, 96, 0
2, 77625, Note_on_c, 0, 84, 25
2, 77660, Note_on_c, 0, 84, 0
2, 77670, Note_on_c, 0, 96, 47
2, 77705, Note_on_c, 0, 96, 0
2, 77715, Note_on_c, 0, 84, 25
2, 77750, Note_on_c, 0, 84, 0
2, 77760, Note_on_c, 0, 96, 56
2, 77760, Note_on_c, 0, 79, 88
2, 77795, Note_on_c, 0, 96, 0
2, 77805, Note_on_c, 0, 84, 27
2, 77840, Note_on_c, 0, 84, 0
2, 77850, Note_on_c, 0, 96, 56
2, 77885, Note_on_c, 0, 96, 0
2, 77895, Note_on_c, 0, 84, 27
2, 77930, Note_on_c, 0, 84, 0
2, 77940, Note_on_c, 0, 96, 56
2, 77975, Note_on_c, 0, 96, 0
2, 77985, Note_on_c, 0, 84, 27
2, 78020, Note_on_c, 0, 84, 0
2, 78030, Note_on_c, 0, 96, 56
2, 78065, Note_on_c, 0, 96, 0
2, 78075, Note_on_c, 0, 84, 27
2, 78110, Note_on_c, 0, 84, 0
2, 78120, Note_on_c, 0, 96, 56
2, 78155, Note_on_c, 0, 96, 0
2, 78165, Note_on_c, 0, 84, 27
2, 78200, Note_on_c, 0, 84, 0
2, 78210, Note_on_c, 0, 96, 56
2, 78245, Note_on_c, 0, 96, 0
2, 78255, Note_on_c, 0, 84, 27
2, 78290, Note_on_c, 0, 84, 0
2, 78300, Note_on_c, 0, 79, 0
2, 78300, Note_on_c, 0, 96, 56
2, 78300, Note_on_c, 0, 80, 95
2, 78335, Note_on_c, 0, 96, 0
2, 78345, Note_on_c, 0, 84, 27
2, 78380, Note_on_c, 0, 84, 0
2, 78390, Note_on_c, 0, 96, 56
2, 78425, Note_on_c, 0, 96, 0
2, 78435, Note_on_c, 0, 84, 27
2, 78470, Note_on_c, 0, 84, 0
2, 78480, Note_on_c, 0, 96, 56
2, 78515, Note_on_c, 0, 96, 0
2, 78525, Note_on_c, 0, 84, 27
2, 78560, Note_on_c, 0, 84, 0
2, 78570, Note_on_c, 0, 96, 56
2, 78605, Note_on_c, 0, 96, 0
2, 78615, Note_on_c, 0, 84, 27
2, 78650, Note_on_c, 0, 84, 0
2, 78660, Note_on_c, 0, 96, 56
2, 78695, Note_on_c, 0, 96, 0
2, 78705, Note_on_c, 0, 84, 27
2, 78740, Note_on_c, 0, 84, 0
2, 78750, Note_on_c, 0, 96, 56
2, 78785, Note_on_c, 0, 96, 0
2, 78795, Note_on_c, 0, 84, 27
2, 78830, Note_on_c, 0, 84, 0
2, 78840, Note_on_c, 0, 80, 0
2, 78840, Note_on_c, 0, 96, 50
2, 78840, Note_on_c, 0, 81, 102
2, 78875, Note_on_c, 0, 96, 0
2, 78885, Note_on_c, 0, 84, 24
2, 78920, Note_on_c, 0, 84, 0
2, 78930, Note_on_c, 0, 96, 50
2, 78965, Note_on_c, 0, 96, 0
2, 78975, Note_on_c, 0, 84, 24
2, 79010, Note_on_c, 0, 84, 0
2, 79020, Note_on_c, 0, 96, 50
2, 79055, Note_on_c, 0, 96, 0
2, 79065, Note_on_c, 0, 84, 24
2, 79100, Note_on_c, 0, 84, 0
2, 79110, Note_on_c, 0, 96, 50
2, 79145, Note_on_c, 0, 96, 0
2, 79155, Note_on_c, 0, 84, 24
2, 79190, Note_on_c, 0, 84, 0
2, 79200, Note_on_c, 0, 96, 50
2, 79235, Note_on_c, 0, 96, 0
2, 79245, Note_on_c, 0, 84, 24
2, 79280, Note_on_c, 0, 84, 0
2, 79290, Note_on_c, 0, 96, 50
2, 79325, Note_on_c, 0, 96, 0
2, 79335, Note_on_c, 0, 84, 24
2, 79370, Note_on_c, 0, 84, 0
2, 79380, Note_on_c, 0, 96, 50
2, 79415, Note_on_c, 0, 96, 0
2, 79425, Note_on_c, 0, 84, 24
2, 79460, Note_on_c, 0, 84, 0
2, 79470, Note_on_c, 0, 96, 50
2, 79505, Note_on_c, 0, 96, 0
2, 79515, Note_on_c, 0, 84, 24
2, 79550, Note_on_c, 0, 84, 0
2, 79560, Note_on_c, 0, 96, 50
2, 79595, Note_on_c, 0, 96, 0
2, 79605, Note_on_c, 0, 84, 24
2, 79640, Note_on_c, 0, 84, 0
2, 79650, Note_on_c, 0, 96, 50
2, 79685, Note_on_c, 0, 96, 0
2, 79695, Note_on_c, 0, 84, 24
2, 79730, Note_on_c, 0, 84, 0
2, 79740, Note_on_c, 0, 96, 50
2, 79775, Note_on_c, 0, 96, 0
2, 79785, Note_on_c, 0, 84, 24
2, 79820, Note_on_c, 0, 84, 0
2, 79830, Note_on_c, 0, 81, 0
2, 79830, Note_on_c, 0, 96, 50
2, 79830, Note_on_c, 0, 76, 80
2, 79865, Note_on_c, 0, 96, 0
2, 79875, Note_on_c, 0, 84, 24
2, 79910, Note_on_c, 0, 84, 0
2, 79920, Note_on_c, 0, 76, 0
2, 79920, Note_on_c, 0, 96, 52
2, 79920, Note_on_c, 0, 77, 95
2, 79955, Note_on_c, 0, 96, 0
2, 79965, Note_on_c, 0, 84, 33
2, 80000, Note_on_c, 0, 84, 0
2, 80010, Note_on_c, 0, 96, 52
2, 80045, Note_on_c, 0, 96, 0
2, 80055, Note_on_c, 0, 84, 33
2, 80090, Note_on_c, 0, 84, 0
2, 80100, Note_on_c, 0, 96, 52
2, 80135, Note_on_c, 0, 96, 0
2, 80145, Note_on_c, 0, 84, 33
2, 80180, Note_on_c, 0, 84, 0
2, 80190, Note_on_c, 0, 96, 52
2, 80225, Note_on_c, 0, 96, 0
2, 80235, Note_on_c, 0, 84, 33
2, 80270, Note_on_c, 0, 84, 0
2, 80280, Note_on_c, 0, 96, 52
2, 80315, Note_on_c, 0, 96, 0
2, 80325, Note_on_c, 0, 84, 33
2, 80360, Note_on_c, 0, 84, 0
2, 80370, Note_on_c, 0, 96, 52
2, 80405, Note_on_c, 0, 96, 0
2, 80415, Note_on_c, 0, 84, 33
2, 80450, Note_on_c, 0, 84, 0
2, 80460, Note_on_c, 0, 77, 0
2, 80460, Note_on_c, 0, 96, 52
2, 80460, Note_on_c, 0, 75, 97
2, 80460, Note_on_c, 0, 78, 97
2, 80495, Note_on_c, 0, 96, 0
2, 80505, Note_on_c, 0, 84, 33
2, 80540, Note_on_c, 0, 84, 0
2, 80550, Note_on_c, 0, 96, 52
2, 80585, Note_on_c, 0, 96, 0
2, 80595, Note_on_c, 0, 84, 33
2, 80630, Note_on_c, 0, 84, 0
2, 80640, Note_on_c, 0, 96, 52
2, 80675, Note_on_c, 0, 96, 0
2, 80685, Note_on_c, 0, 84, 33
2, 80720, Note_on_c, 0, 84, 0
2, 80730, Note_on_c, 0, 96, 52
2, 80765, Note_on_c, 0, 96, 0
2, 80775, Note_on_c, 0, 84, 33
2, 80810, Note_on_c, 0, 84, 0
2, 80820, Note_on_c, 0, 96, 52
2, 80855, Note_on_c, 0, 96, 0
2, 80865, Note_on_c, 0, 84, 33
2, 80900, Note_on_c, 0, 84, 0
2, 80910, Note_on_c, 0, 96, 52
2, 80945, Note_on_c, 0, 96, 0
2, 80955, Note_on_c, 0, 84, 33
2, 80990, Note_on_c, 0, 84, 0
2, 81000, Note_on_c, 0, 78, 0
2, 81000, Note_on_c, 0, 75, 0
2, 81000, Note_on_c, 0, 96, 55
2, 81000, Note_on_c, 0, 75, 102
2, 81000, Note_on_c, 0, 79, 102
2, 81035, Note_on_c, 0, 96, 0
2, 81045, Note_on_c, 0, 84, 28
2, 81080, Note_on_c, 0, 84, 0
2, 81090, Note_on_c, 0, 96, 55
2, 81125, Note_on_c, 0, 96, 0
2, 81135, Note_on_c, 0, 84, 28
2, 81170, Note_on_c, 0, 84, 0
2, 81180, Note_on_c, 0, 96, 55
2, 81215, Note_on_c, 0, 96, 0
2, 81225, Note_on_c, 0, 84, 28
2, 81260, Note_on_c, 0, 84, 0
2, 81270, Note_on_c, 0, 96, 55
2, 81305, Note_on_c, 0, 96, 0
2, 81315, Note_on_c, 0, 84, 28
2, 81350, Note_on_c, 0, 84, 0
2, 81360, Note_on_c, 0, 96, 55
2, 81395, Note_on_c, 0, 96, 0
2, 81405, Note_on_c, 0, 84, 28
2, 81440, Note_on_c, 0, 84, 0
2, 81450, Note_on_c, 0, 96, 55
2, 81485, Note_on_c, 0, 96, 0
2, 81495, Note_on_c, 0, 84, 28
2, 81530, Note_on_c, 0, 84, 0
2, 81540, Note_on_c, 0, 96, 55
2, 81575, Note_on_c, 0, 96, 0
2, 81585, Note_on_c, 0, 84, 28
2, 81620, Note_on_c, 0, 84, 0
2, 81630, Note_on_c, 0, 96, 55
2, 81665, Note_on_c, 0, 96, 0
2, 81675, Note_on_c, 0, 84, 28
2, 81710, Note_on_c, 0, 84, 0
2, 81720, Note_on_c, 0, 96, 55
2, 81755, Note_on_c, 0, 96, 0
2, 81765, Note_on_c, 0, 84, 28
2, 81800, Note_on_c, 0, 84, 0
2, 81810, Note_on_c, 0, 96, 55
2, 81845, Note_on_c, 0, 96, 0
2, 81855, Note_on_c, 0, 84, 28
2, 81890, Note_on_c, 0, 84, 0
2, 81900, Note_on_c, 0, 96, 55
2, 81935, Note_on_c, 0, 96, 0
2, 81945, Note_on_c, 0, 84, 28
2, 81980, Note_on_c, 0, 84, 0
2, 81990, Note_on_c, 0, 79, 0
2, 81990, Note_on_c, 0, 75, 0
2, 81990, Note_on_c, 0, 96, 55
2, 81990, Note_on_c, 0, 72, 83
2, 81990, Note_on_c, 0, 75, 83
2, 82025, Note_on_c, 0, 96, 0
2, 82035, Note_on_c, 0, 84, 28
2, 82070, Note_on_c, 0, 84, 0
2, 82080, Note_on_c, 0, 75, 0
2, 82080, Note_on_c, 0, 72, 0
2, 82080, Note_on_c, 0, 96, 54
2, 82080, Note_on_c, 0, 72, 98
2, 82080, Note_on_c, 0, 76, 98
2, 82115, Note_on_c, 0, 96, 0
2, 82125, Note_on_c, 0, 84, 26
2, 82160, Note_on_c, 0, 84, 0
2, 82170, Note_on_c, 0, 96, 54
2, 82205, Note_on_c, 0, 96, 0
2, 82215, Note_on_c, 0, 84, 26
2, 82250, Note_on_c, 0, 84, 0
2, 82260, Note_on_c, 0, 96, 54
2, 82295, Note_on_c, 0, 96, 0
2, 82305, Note_on_c, 0, 84, 26
2, 82340, Note_on_c, 0, 84, 0
2, 82350, Note_on_c, 0, 96, 54
2, 82385, Note_on_c, 0, 96, 0
2, 82395, Note_on_c, 0, 84, 26
2, 82430, Note_on_c, 0, 84, 0
2, 82440, Note_on_c, 0, 96, 54
2, 82475, Note_on_c, 0, 96, 0
2, 82485, Note_on_c, 0, 84, 26
2, 82520, Note_on_c, 0, 84, 0
2, 82530, Note_on_c, 0, 96, 54
2, 82565, Note_on_c, 0, 96, 0
2, 82575, Note_on_c, 0, 84, 26
2, 82610, Note_on_c, 0, 84, 0
2, 82620, Note_on_c, 0, 76, 0
2, 82620, Note_on_c, 0, 72, 0
2, 82620, Note_on_c, 0, 96, 54
2, 82620, Note_on_c, 0, 72, 100
2, 82620, Note_on_c, 0, 75, 100
2, 82620, Note_on_c, 0, 77, 100
2, 82655, Note_on_c, 0, 96, 0
2, 82665, Note_on_c, 0, 84, 26
2, 82700, Note_on_c, 0, 84, 0
2, 82710, Note_on_c, 0, 96, 54
2, 82745, Note_on_c, 0, 96, 0
2, 82755, Note_on_c, 0, 84, 26
2, 82790, Note_on_c, 0, 84, 0
2, 82800, Note_on_c, 0, 96, 54
2, 82835, Note_on_c, 0, 96, 0
2, 82845, Note_on_c, 0, 84, 26
2, 82880, Note_on_c, 0, 84, 0
2, 82890, Note_on_c, 0, 96, 54
2, 82925, Note_on_c, 0, 96, 0
2, 82935, Note_on_c, 0, 84, 26
2, 82970, Note_on_c, 0, 84, 0
2, 82980, Note_on_c, 0, 96, 54
2, 83015, Note_on_c, 0, 96, 0
2, 83025, Note_on_c, 0, 84, 26
2, 83060, Note_on_c, 0, 84, 0
2, 83070, Note_on_c, 0, 96, 54
2, 83105, Note_on_c, 0, 96, 0
2, 83115, Note_on_c, 0, 84, 26
2, 83150, Note_on_c, 0, 84, 0
2, 83160, Note_on_c, 0, 77, 0
2, 83160, Note_on_c, 0, 75, 0
2, 83160, Note_on_c, 0, 72, 0
2, 83160, Note_on_c, 0, 96, 55
2, 83160, Note_on_c, 0, 72, 99
2, 83160, Note_on_c, 0, 75, 99
2, 83160, Note_on_c, 0, 78, 99
2, 83195, Note_on_c, 0, 96, 0
2, 83205, Note_on_c, 0, 84, 32
2, 83240, Note_on_c, 0, 84, 0
2, 83250, Note_on_c, 0, 96, 55
2, 83285, Note_on_c, 0, 96, 0
2, 83295, Note_on_c, 0, 84, 32
2, 83330, Note_on_c, 0, 84, 0
2, 83340, Note_on_c, 0, 96, 55
2, 83375, Note_on_c, 0, 96, 0
2, 83385, Note_on_c, 0, 84, 32
2, 83420, Note_on_c, 0, 84, 0
2, 83430, Note_on_c, 0, 96, 55
2, 83465, Note_on_c, 0, 96, 0
2, 83475, Note_on_c, 0, 84, 32
2, 83510, Note_on_c, 0, 84, 0
2, 83520, Note_on_c, 0, 96, 55
2, 83555, Note_on_c, 0, 96, 0
2, 83565, Note_on_c, 0, 84, 32
2, 83600, Note_on_c, 0, 84, 0
2, 83610, Note_on_c, 0, 96, 55
2, 83645, Note_on_c, 0, 96, 0
2, 83655, Note_on_c, 0, 84, 32
2, 83690, Note_on_c, 0, 84, 0
2, 83700, Note_on_c, 0, 78, 0
2, 83700, Note_on_c, 0, 75, 0
2, 83700, Note_on_c, 0, 72, 0
2, 83700, Note_on_c, 0, 96, 55
2, 83700, Note_on_c, 0, 72, 100
2, 83700, Note_on_c, 0, 75, 100
2, 83700, Note_on_c, 0, 79, 100
2, 83735, Note_on_c, 0, 96, 0
2, 83745, Note_on_c, 0, 84, 32
2, 83780, Note_on_c, 0, 84, 0
2, 83790, Note_on_c, 0, 96, 55
2, 83825, Note_on_c, 0, 96, 0
2, 83835, Note_on_c, 0, 84, 32
2, 83870, Note_on_c, 0, 84, 0
2, 83880, Note_on_c, 0, 96, 55
2, 83915, Note_on_c, 0, 96, 0
2, 83925, Note_on_c, 0, 84, 32
2, 83960, Note_on_c, 0, 84, 0
2, 83970, Note_on_c, 0, 96, 55
2, 84005, Note_on_c, 0, 96, 0
2, 84015, Note_on_c, 0, 84, 32
2, 84050, Note_on_c, 0, 84, 0
2, 84060, Note_on_c, 0, 96, 55
2, 84095, Note_on_c, 0, 96, 0
2, 84105, Note_on_c, 0, 84, 32
2, 84140, Note_on_c, 0, 84, 0
2, 84150, Note_on_c, 0, 96, 55
2, 84185, Note_on_c, 0, 96, 0
2, 84195, Note_on_c, 0, 84, 32
2, 84230, Note_on_c, 0, 84, 0
2, 84240, Note_on_c, 0, 79, 0
2, 84240, Note_on_c, 0, 75, 0
2, 84240, Note_on_c, 0, 72, 0
2, 84240, Note_on_c, 0, 96, 59
2, 84240, Note_on_c, 0, 72, 95
2, 84240, Note_on_c, 0, 75, 95
2, 84240, Note_on_c, 0, 80, 95
2, 84275, Note_on_c, 0, 96, 0
2, 84285, Note_on_c, 0, 84, 30
2, 84320, Note_on_c, 0, 84, 0
2, 84330, Note_on_c, 0, 96, 59
2, 84365, Note_on_c, 0, 96, 0
2, 84375, Note_on_c, 0, 84, 30
2, 84410, Note_on_c, 0, 84, 0
2, 84420, Note_on_c, 0, 96, 59
2, 84455, Note_on_c, 0, 96, 0
2, 84465, Note_on_c, 0, 84, 30
2, 84500, Note_on_c, 0, 84, 0
2, 84510, Note_on_c, 0, 96, 59
2, 84545, Note_on_c, 0, 96, 0
2, 84555, Note_on_c, 0, 84, 30
2, 84590, Note_on_c, 0, 84, 0
2, 84600, Note_on_c, 0, 96, 59
2, 84635, Note_on_c, 0, 96, 0
2, 84645, Note_on_c, 0, 84, 30
2, 84680, Note_on_c, 0, 84, 0
2, 84690, Note_on_c, 0, 96, 59
2, 84725, Note_on_c, 0, 96, 0
2, 84735, Note_on_c, 0, 84, 30
2, 84770, Note_on_c, 0, 84, 0
2, 84780, Note_on_c, 0, 80, 0
2, 84780, Note_on_c, 0, 75, 0
2, 84780, Note_on_c, 0, 72, 0
2, 84780, Note_on_c, 0, 96, 59
2, 84780, Note_on_c, 0, 72, 98
2, 84780, Note_on_c, 0, 75, 98
2, 84780, Note_on_c, 0, 81, 98
2, 84815, Note_on_c, 0, 96, 0
2, 84825, Note_on_c, 0, 84, 30
2, 84860, Note_on_c, 0, 84, 0
2, 84870, Note_on_c, 0, 96, 59
2, 84905, Note_on_c, 0, 96, 0
2, 84915, Note_on_c, 0, 84, 30
2, 84950, Note_on_c, 0, 84, 0
2, 84960, Note_on_c, 0, 96, 59
2, 84995, Note_on_c, 0, 96, 0
2, 85005, Note_on_c, 0, 84, 30
2, 85040, Note_on_c, 0, 84, 0
2, 85050, Note_on_c, 0, 96, 59
2, 85085, Note_on_c, 0, 96, 0
2, 85095, Note_on_c, 0, 84, 30
2, 85130, Note_on_c, 0, 84, 0
2, 85140, Note_on_c, 0, 96, 59
2, 85175, Note_on_c, 0, 96, 0
2, 85185, Note_on_c, 0, 84, 30
2, 85220, Note_on_c, 0, 84, 0
2, 85230, Note_on_c, 0, 96, 59
2, 85265, Note_on_c, 0, 96, 0
2, 85275, Note_on_c, 0, 84, 30
2, 85310, Note_on_c, 0, 84, 0
2, 85320, Note_on_c, 0, 96, 52
2, 85355, Note_on_c, 0, 96, 0
2, 85365, Note_on_c, 0, 84, 27
2, 85400, Note_on_c, 0, 84, 0
2, 85410, Note_on_c, 0, 96, 52
2, 85445, Note_on_c, 0, 96, 0
2, 85455, Note_on_c, 0, 84, 27
2, 85490, Note_on_c, 0, 84, 0
2, 85500, Note_on_c, 0, 96, 52
2, 85535, Note_on_c, 0, 96, 0
2, 85545, Note_on_c, 0, 84, 27
2, 85580, Note_on_c, 0, 84, 0
2, 85590, Note_on_c, 0, 96, 52
2, 85625, Note_on_c, 0, 96, 0
2, 85635, Note_on_c, 0, 84, 27
2, 85670, Note_on_c, 0, 84, 0
2, 85680, Note_on_c, 0, 96, 52
2, 85715, Note_on_c, 0, 96, 0
2, 85725, Note_on_c, 0, 84, 27
2, 85760, Note_on_c, 0, 84, 0
2, 85770, Note_on_c, 0, 96, 52
2, 85805, Note_on_c, 0, 96, 0
2, 85815, Note_on_c, 0, 84, 27
2, 85850, Note_on_c, 0, 84, 0
2, 85860, Note_on_c, 0, 81, 0
2, 85860, Note_on_c, 0, 75, 0
2, 85860, Note_on_c, 0, 72, 0
2, 85860, Note_on_c, 0, 96, 52
2, 85860, Note_on_c, 0, 95, 50
2, 85860, Note_on_c, 0, 71, 93
2, 85860, Note_on_c, 0, 75, 93
2, 85860, Note_on_c, 0, 81, 93
2, 85895, Note_on_c, 0, 95, 0
2, 85895, Note_on_c, 0, 96, 0
2, 85905, Note_on_c, 0, 83, 28
2, 85940, Note_on_c, 0, 83, 0
2, 85950, Note_on_c, 0, 95, 50
2, 85985, Note_on_c, 0, 95, 0
2, 85995, Note_on_c, 0, 83, 28
2, 86030, Note_on_c, 0, 83, 0
2, 86040, Note_on_c, 0, 95, 50
2, 86075, Note_on_c, 0, 95, 0
2, 86085, Note_on_c, 0, 83, 28
2, 86120, Note_on_c, 0, 83, 0
2, 86130, Note_on_c, 0, 95, 50
2, 86165, Note_on_c, 0, 95, 0
2, 86175, Note_on_c, 0, 83, 28
2, 86210, Note_on_c, 0, 83, 0
2, 86220, Note_on_c, 0, 95, 50
2, 86255, Note_on_c, 0, 95, 0
2, 86265, Note_on_c, 0, 83, 28
2, 86300, Note_on_c, 0, 83, 0
2, 86310, Note_on_c, 0, 95, 50
2, 86345, Note_on_c, 0, 95, 0
2, 86355, Note_on_c, 0, 83, 28
2, 86390, Note_on_c, 0, 83, 0
2, 86400, Note_on_c, 0, 81, 0
2, 86400, Note_on_c, 0, 71, 0
2, 86400, Note_on_c, 0, 75, 0
2, 86400, Note_on_c, 0, 92, 40
2, 86400, Note_on_c, 0, 95, 40
2, 86400, Note_on_c, 0, 71, 90
2, 86400, Note_on_c, 0, 76, 90
2, 86400, Note_on_c, 0, 80, 90
2, 86445, Note_on_c, 0, 95, 0
2, 86445, Note_on_c, 0, 92, 0
2, 86445, Note_on_c, 0, 88, 39
2, 86490, Note_on_c, 0, 88, 0
2, 86490, Note_on_c, 0, 92, 38
2, 86490, Note_on_c, 0, 95, 38
2, 86535, Note_on_c, 0, 95, 0
2, 86535, Note_on_c, 0, 92, 0
2, 86535, Note_on_c, 0, 88, 37
2, 86580, Note_on_c, 0, 88, 0
2, 86580, Note_on_c, 0, 80, 0
2, 86580, Note_on_c, 0, 71, 0
2, 86580, Note_on_c, 0, 76, 0
2, 86580, Note_on_c, 0, 88, 36
2, 86580, Note_on_c, 0, 92, 36
2, 86625, Note_on_c, 0, 92, 0
2, 86625, Note_on_c, 0, 88, 0
2, 86625, Note_on_c, 0, 83, 35
2, 86670, Note_on_c, 0, 83, 0
2, 86670, Note_on_c, 0, 88, 34
2, 86670, Note_on_c, 0, 92, 34
2, 86715, Note_on_c, 0, 92, 0
2, 86715, Note_on_c, 0, 88, 0
2, 86715, Note_on_c, 0, 83, 33
2, 86760, Note_on_c, 0, 83, 0
2, 86760, Note_on_c, 0, 83, 32
2, 86760, Note_on_c, 0, 88, 32
2, 86805, Note_on_c, 0, 88, 0
2, 86805, Note_on_c, 0, 83, 0
2, 86805, Note_on_c, 0, 80, 31
2, 86850, Note_on_c, 0, 80, 0
2, 86850, Note_on_c, 0, 83, 30
2, 86850, Note_on_c, 0, 88, 30
2, 86895, Note_on_c, 0, 88, 0
2, 86895, Note_on_c, 0, 83, 0
2, 86895, Note_on_c, 0, 80, 29
2, 86940, Note_on_c, 0, 80, 0
2, 86940, Note_on_c, 0, 80, 28
2, 86940, Note_on_c, 0, 83, 28
2, 86985, Note_on_c, 0, 83, 0
2, 86985, Note_on_c, 0, 80, 0
2, 86985, Note_on_c, 0, 76, 27
2, 87030, Note_on_c, 0, 76, 0
2, 87030, Note_on_c, 0, 80, 26
2, 87030, Note_on_c, 0, 83, 26
2, 87075, Note_on_c, 0, 83, 0
2, 87075, Note_on_c, 0, 80, 0
2, 87075, Note_on_c, 0, 76, 25
2, 87120, Note_on_c, 0, 76, 0
2, 87120, Note_on_c, 0, 76, 24
2, 87120, Note_on_c, 0, 80, 24
2, 87165, Note_on_c, 0, 80, 0
2, 87165, Note_on_c, 0, 76, 0
2, 87165, Note_on_c, 0, 71, 23
2, 87210, Note_on_c, 0, 71, 0
2, 87210, Note_on_c, 0, 76, 21
2, 87210, Note_on_c, 0, 80, 21
2, 87255, Note_on_c, 0, 80, 0
2, 87255, Note_on_c, 0, 76, 0
2, 87255, Note_on_c, 0, 71, 20
2, 87300, Note_on_c, 0, 71, 0
2, 87300, Note_on_c, 0, 71, 19
2, 87300, Note_on_c, 0, 76, 19
2, 87345, Note_on_c, 0, 76, 0
2, 87345, Note_on_c, 0, 71, 0
2, 87345, Note_on_c, 0, 68, 18
2, 87390, Note_on_c, 0, 68, 0
2, 87390, Note_on_c, 0, 71, 17
2, 87390, Note_on_c, 0, 76, 17
2, 87435, Note_on_c, 0, 76, 0
2, 87435, Note_on_c, 0, 71, 0
2, 87435, Note_on_c, 0, 68, 16
2, 87480, Note_on_c, 0, 68, 0
2, 87480, Note_on_c, 0, 71, 26
2, 87510, Note_on_c, 0, 71, 0
2, 87510, Note_on_c, 0, 73, 31
2, 87539, Note_on_c, 0, 73, 0
2, 87539, Note_on_c, 0, 71, 30
2, 87570, Note_on_c, 0, 71, 0
2, 87570, Note_on_c, 0, 73, 33
2, 87600, Note_on_c, 0, 73, 0
2, 87600, Note_on_c, 0, 71, 30
2, 87629, Note_on_c, 0, 71, 0
2, 87629, Note_on_c, 0, 73, 32
2, 87660, Note_on_c, 0, 73, 0
2, 87660, Note_on_c, 0, 73, 28
2, 87690, Note_on_c, 0, 73, 0
2, 87690, Note_on_c, 0, 75, 33
2, 87719, Note_on_c, 0, 75, 0
2, 87719, Note_on_c, 0, 73, 27
2, 87750, Note_on_c, 0, 73, 0
2, 87750, Note_on_c, 0, 75, 30
2, 87780, Note_on_c, 0, 75, 0
2, 87780, Note_on_c, 0, 73, 27
2, 87809, Note_on_c, 0, 73, 0
2, 87809, Note_on_c, 0, 75, 36
2, 87840, Note_on_c, 0, 75, 0
2, 87840, Note_on_c, 0, 75, 29
2, 87870, Note_on_c, 0, 75, 0
2, 87870, Note_on_c, 0, 76, 34
2, 87899, Note_on_c, 0, 76, 0
2, 87899, Note_on_c, 0, 75, 33
2, 87930, Note_on_c, 0, 75, 0
2, 87930, Note_on_c, 0, 76, 33
2, 87960, Note_on_c, 0, 76, 0
2, 87960, Note_on_c, 0, 75, 28
2, 87989, Note_on_c, 0, 75, 0
2, 87989, Note_on_c, 0, 76, 32
2, 88020, Note_on_c, 0, 76, 0
2, 88020, Note_on_c, 0, 77, 10
2, 88050, Note_on_c, 0, 77, 0
2, 88050, Note_on_c, 0, 78, 13
2, 88079, Note_on_c, 0, 78, 0
2, 88079, Note_on_c, 0, 77, 18
2, 88110, Note_on_c, 0, 77, 0
2, 88110, Note_on_c, 0, 78, 17
2, 88140, Note_on_c, 0, 78, 0
2, 88140, Note_on_c, 0, 77, 13
2, 88169, Note_on_c, 0, 77, 0
2, 88169, Note_on_c, 0, 78, 16
2, 88200, Note_on_c, 0, 78, 0
2, 88200, Note_on_c, 0, 80, 20
2, 88230, Note_on_c, 0, 80, 0
2, 88230, Note_on_c, 0, 81, 18
2, 88259, Note_on_c, 0, 81, 0
2, 88259, Note_on_c, 0, 80, 13
2, 88290, Note_on_c, 0, 80, 0
2, 88290, Note_on_c, 0, 81, 18
2, 88320, Note_on_c, 0, 81, 0
2, 88320, Note_on_c, 0, 80, 11
2, 88349, Note_on_c, 0, 80, 0
2, 88349, Note_on_c, 0, 81, 17
2, 88380, Note_on_c, 0, 81, 0
2, 88380, Note_on_c, 0, 82, 15
2, 88410, Note_on_c, 0, 82, 0
2, 88410, Note_on_c, 0, 83, 19
2, 88439, Note_on_c, 0, 83, 0
2, 88439, Note_on_c, 0, 82, 11
2, 88470, Note_on_c, 0, 82, 0
2, 88470, Note_on_c, 0, 83, 16
2, 88500, Note_on_c, 0, 83, 0
2, 88500, Note_on_c, 0, 82, 12
2, 88529, Note_on_c, 0, 82, 0
2, 88529, Note_on_c, 0, 83, 14
2, 88560, Note_on_c, 0, 83, 0
2, 88560, Note_on_c, 0, 74, 29
2, 88590, Note_on_c, 0, 74, 0
2, 88590, Note_on_c, 0, 75, 34
2, 88619, Note_on_c, 0, 75, 0
2, 88619, Note_on_c, 0, 74, 29
2, 88650, Note_on_c, 0, 74, 0
2, 88650, Note_on_c, 0, 75, 31
2, 88680, Note_on_c, 0, 75, 0
2, 88680, Note_on_c, 0, 74, 28
2, 88709, Note_on_c, 0, 74, 0
2, 88709, Note_on_c, 0, 75, 33
2, 88740, Note_on_c, 0, 75, 0
2, 88740, Note_on_c, 0, 77, 7
2, 88770, Note_on_c, 0, 77, 0
2, 88770, Note_on_c, 0, 78, 15
2, 88799, Note_on_c, 0, 78, 0
2, 88799, Note_on_c, 0, 77, 9
2, 88830, Note_on_c, 0, 77, 0
2, 88830, Note_on_c, 0, 78, 15
2, 88860, Note_on_c, 0, 78, 0
2, 88860, Note_on_c, 0, 77, 11
2, 88889, Note_on_c, 0, 77, 0
2, 88889, Note_on_c, 0, 78, 16
2, 88920, Note_on_c, 0, 78, 0
2, 88920, Note_on_c, 0, 82, 16
2, 88950, Note_on_c, 0, 82, 0
2, 88950, Note_on_c, 0, 83, 16
2, 88979, Note_on_c, 0, 83, 0
2, 88979, Note_on_c, 0, 82, 16
2, 89010, Note_on_c, 0, 82, 0
2, 89010, Note_on_c, 0, 83, 17
2, 89040, Note_on_c, 0, 83, 0
2, 89040, Note_on_c, 0, 82, 14
2, 89069, Note_on_c, 0, 82, 0
2, 89069, Note_on_c, 0, 83, 19
2, 89100, Note_on_c, 0, 83, 0
2, 89100, Note_on_c, 0, 74, 28
2, 89130, Note_on_c, 0, 74, 0
2, 89130, Note_on_c, 0, 75, 35
2, 89159, Note_on_c, 0, 75, 0
2, 89159, Note_on_c, 0, 74, 28
2, 89190, Note_on_c, 0, 74, 0
2, 89190, Note_on_c, 0, 75, 35
2, 89220, Note_on_c, 0, 75, 0
2, 89220, Note_on_c, 0, 74, 30
2, 89249, Note_on_c, 0, 74, 0
2, 89249, Note_on_c, 0, 75, 29
2, 89280, Note_on_c, 0, 75, 0
2, 89280, Note_on_c, 0, 77, 14
2, 89310, Note_on_c, 0, 77, 0
2, 89310, Note_on_c, 0, 78, 14
2, 89339, Note_on_c, 0, 78, 0
2, 89339, Note_on_c, 0, 77, 9
2, 89370, Note_on_c, 0, 77, 0
2, 89370, Note_on_c, 0, 78, 19
2, 89400, Note_on_c, 0, 78, 0
2, 89400, Note_on_c, 0, 77, 15
2, 89429, Note_on_c, 0, 77, 0
2, 89429, Note_on_c, 0, 78, 18
2, 89460, Note_on_c, 0, 78, 0
2, 89460, Note_on_c, 0, 82, 18
2, 89490, Note_on_c, 0, 82, 0
2, 89490, Note_on_c, 0, 83, 15
2, 89519, Note_on_c, 0, 83, 0
2, 89519, Note_on_c, 0, 82, 13
2, 89550, Note_on_c, 0, 82, 0
2, 89550, Note_on_c, 0, 83, 16
2, 89580, Note_on_c, 0, 83, 0
2, 89580, Note_on_c, 0, 82, 19
2, 89609, Note_on_c, 0, 82, 0
2, 89609, Note_on_c, 0, 83, 18
2, 89640, Note_on_c, 0, 83, 0
2, 89640, Note_on_c, 0, 75, 22
2, 89670, Note_on_c, 0, 75, 0
2, 89670, Note_on_c, 0, 76, 28
2, 89699, Note_on_c, 0, 76, 0
2, 89699, Note_on_c, 0, 75, 21
2, 89730, Note_on_c, 0, 75, 0
2, 89730, Note_on_c, 0, 76, 31
2, 89760, Note_on_c, 0, 76, 0
2, 89760, Note_on_c, 0, 75, 25
2, 89789, Note_on_c, 0, 75, 0
2, 89789, Note_on_c, 0, 76, 30
2, 89820, Note_on_c, 0, 76, 0
2, 89820, Note_on_c, 0, 79, 10
2, 89850, Note_on_c, 0, 79, 0
2, 89850, Note_on_c, 0, 80, 16
2, 89879, Note_on_c, 0, 80, 0
2, 89879, Note_on_c, 0, 79, 14
2, 89910, Note_on_c, 0, 79, 0
2, 89910, Note_on_c, 0, 80, 19
2, 89940, Note_on_c, 0, 80, 0
2, 89940, Note_on_c, 0, 79, 14
2, 89969, Note_on_c, 0, 79, 0
2, 89969, Note_on_c, 0, 80, 14
2, 90000, Note_on_c, 0, 80, 0
2, 90000, Note_on_c, 0, 82, 19
2, 90030, Note_on_c, 0, 82, 0
2, 90030, Note_on_c, 0, 83, 16
2, 90059, Note_on_c, 0, 83, 0
2, 90059, Note_on_c, 0, 82, 15
2, 90090, Note_on_c, 0, 82, 0
2, 90090, Note_on_c, 0, 83, 19
2, 90120, Note_on_c, 0, 83, 0
2, 90120, Note_on_c, 0, 82, 13
2, 90149, Note_on_c, 0, 82, 0
2, 90149, Note_on_c, 0, 83, 13
2, 90180, Note_on_c, 0, 83, 0
2, 90180, Note_on_c, 0, 78, 23
2, 90210, Note_on_c, 0, 78, 0
2, 90210, Note_on_c, 0, 79, 32
2, 90239, Note_on_c, 0, 79, 0
2, 90239, Note_on_c, 0, 78, 26
2, 90270, Note_on_c, 0, 78, 0
2, 90270, Note_on_c, 0, 79, 28
2, 90300, Note_on_c, 0, 79, 0
2, 90300, Note_on_c, 0, 78, 28
2, 90329, Note_on_c, 0, 78, 0
2, 90329, Note_on_c, 0, 79, 32
2, 90360, Note_on_c, 0, 79, 0
2, 90360, Note_on_c, 0, 84, 11
2, 90390, Note_on_c, 0, 84, 0
2, 90390, Note_on_c, 0, 85, 18
2, 90419, Note_on_c, 0, 85, 0
2, 90419, Note_on_c, 0, 84, 18
2, 90450, Note_on_c, 0, 84, 0
2, 90450, Note_on_c, 0, 85, 19
2, 90480, Note_on_c, 0, 85, 0
2, 90480, Note_on_c, 0, 84, 12
2, 90509, Note_on_c, 0, 84, 0
2, 90509, Note_on_c, 0, 85, 13
2, 90540, Note_on_c, 0, 85, 0
2, 90540, Note_on_c, 0, 87, 21
2, 90570, Note_on_c, 0, 87, 0
2, 90570, Note_on_c, 0, 88, 19
2, 90599, Note_on_c, 0, 88, 0
2, 90599, Note_on_c, 0, 87, 14
2, 90630, Note_on_c, 0, 87, 0
2, 90630, Note_on_c, 0, 88, 17
2, 90660, Note_on_c, 0, 88, 0
2, 90660, Note_on_c, 0, 87, 12
2, 90689, Note_on_c, 0, 87, 0
2, 90689, Note_on_c, 0, 88, 15
2, 90720, Note_on_c, 0, 88, 0
2, 90720, Note_on_c, 0, 77, 25
2, 90750, Note_on_c, 0, 77, 0
2, 90750, Note_on_c, 0, 78, 31
2, 90779, Note_on_c, 0, 78, 0
2, 90779, Note_on_c, 0, 77, 33
2, 90810, Note_on_c, 0, 77, 0
2, 90810, Note_on_c, 0, 78, 37
2, 90840, Note_on_c, 0, 78, 0
2, 90840, Note_on_c, 0, 77, 27
2, 90869, Note_on_c, 0, 77, 0
2, 90869, Note_on_c, 0, 78, 31
2, 90900, Note_on_c, 0, 78, 0
2, 90900, Note_on_c, 0, 82, 14
2, 90930, Note_on_c, 0, 82, 0
2, 90930, Note_on_c, 0, 83, 18
2, 90959, Note_on_c, 0, 83, 0
2, 90959, Note_on_c, 0, 82, 16
2, 90990, Note_on_c, 0, 82, 0
2, 90990, Note_on_c, 0, 83, 16
2, 91020, Note_on_c, 0, 83, 0
2, 91020, Note_on_c, 0, 82, 13
2, 91049, Note_on_c, 0, 82, 0
2, 91049, Note_on_c, 0, 83, 11
2, 91080, Note_on_c, 0, 83, 0
2, 91080, Note_on_c, 0, 86, 19
2, 91110, Note_on_c, 0, 86, 0
2, 91110, Note_on_c, 0, 87, 17
2, 91139, Note_on_c, 0, 87, 0
2, 91139, Note_on_c, 0, 86, 11
2, 91170, Note_on_c, 0, 86, 0
2, 91170, Note_on_c, 0, 87, 18
2, 91200, Note_on_c, 0, 87, 0
2, 91200, Note_on_c, 0, 86, 17
2, 91229, Note_on_c, 0, 86, 0
2, 91229, Note_on_c, 0, 87, 17
2, 91260, Note_on_c, 0, 87, 0
2, 91260, Note_on_c, 0, 74, 22
2, 91290, Note_on_c, 0, 74, 0
2, 91290, Note_on_c, 0, 75, 32
2, 91319, Note_on_c, 0, 75, 0
2, 91319, Note_on_c, 0, 74, 23
2, 91350, Note_on_c, 0, 74, 0
2, 91350, Note_on_c, 0, 75, 34
2, 91380, Note_on_c, 0, 75, 0
2, 91380, Note_on_c, 0, 74, 28
2, 91409, Note_on_c, 0, 74, 0
2, 91409, Note_on_c, 0, 75, 33
2, 91440, Note_on_c, 0, 75, 0
2, 91440, Note_on_c, 0, 80, 12
2, 91470, Note_on_c, 0, 80, 0
2, 91470, Note_on_c, 0, 81, 15
2, 91499, Note_on_c, 0, 81, 0
2, 91499, Note_on_c, 0, 80, 11
2, 91530, Note_on_c, 0, 80, 0
2, 91530, Note_on_c, 0, 81, 19
2, 91560, Note_on_c, 0, 81, 0
2, 91560, Note_on_c, 0, 80, 12
2, 91589, Note_on_c, 0, 80, 0
2, 91589, Note_on_c, 0, 81, 14
2, 91620, Note_on_c, 0, 81, 0
2, 91620, Note_on_c, 0, 82, 15
2, 91650, Note_on_c, 0, 82, 0
2, 91650, Note_on_c, 0, 83, 19
2, 91679, Note_on_c, 0, 83, 0
2, 91679, Note_on_c, 0, 82, 14
2, 91710, Note_on_c, 0, 82, 0
2, 91710, Note_on_c, 0, 83, 17
2, 91740, Note_on_c, 0, 83, 0
2, 91740, Note_on_c, 0, 82, 10
2, 91769, Note_on_c, 0, 82, 0
2, 91769, Note_on_c, 0, 83, 22
2, 91800, Note_on_c, 0, 83, 0
2, 91800, Note_on_c, 0, 75, 27
2, 91830, Note_on_c, 0, 75, 0
2, 91830, Note_on_c, 0, 76, 37
2, 91859, Note_on_c, 0, 76, 0
2, 91859, Note_on_c, 0, 75, 31
2, 91890, Note_on_c, 0, 75, 0
2, 91890, Note_on_c, 0, 76, 30
2, 91920, Note_on_c, 0, 76, 0
2, 91920, Note_on_c, 0, 75, 31
2, 91949, Note_on_c, 0, 75, 0
2, 91949, Note_on_c, 0, 76, 36
2, 91980, Note_on_c, 0, 76, 0
2, 91980, Note_on_c, 0, 79, 11
2, 92010, Note_on_c, 0, 79, 0
2, 92010, Note_on_c, 0, 80, 17
2, 92039, Note_on_c, 0, 80, 0
2, 92039, Note_on_c, 0, 79, 14
2, 92070, Note_on_c, 0, 79, 0
2, 92070, Note_on_c, 0, 80, 18
2, 92100, Note_on_c, 0, 80, 0
2, 92100, Note_on_c, 0, 79, 14
2, 92129, Note_on_c, 0, 79, 0
2, 92129, Note_on_c, 0, 80, 18
2, 92160, Note_on_c, 0, 80, 0
2, 92160, Note_on_c, 0, 82, 20
2, 92190, Note_on_c, 0, 82, 0
2, 92190, Note_on_c, 0, 83, 17
2, 92219, Note_on_c, 0, 83, 0
2, 92219, Note_on_c, 0, 82, 13
2, 92250, Note_on_c, 0, 82, 0
2, 92250, Note_on_c, 0, 83, 18
2, 92280, Note_on_c, 0, 83, 0
2, 92280, Note_on_c, 0, 82, 12
2, 92309, Note_on_c, 0, 82, 0
2, 92309, Note_on_c, 0, 83, 14
2, 92340, Note_on_c, 0, 83, 0
2, 92340, Note_on_c, 0, 77, 23
2, 92370, Note_on_c, 0, 77, 0
2, 92370, Note_on_c, 0, 78, 30
2, 92399, Note_on_c, 0, 78, 0
2, 92399, Note_on_c, 0, 77, 25
2, 92430, Note_on_c, 0, 77, 0
2, 92430, Note_on_c, 0, 78, 32
2, 92460, Note_on_c, 0, 78, 0
2, 92460, Note_on_c, 0, 77, 33
2, 92489, Note_on_c, 0, 77, 0
2, 92489, Note_on_c, 0, 78, 32
2, 92520, Note_on_c, 0, 78, 0
2, 92520, Note_on_c, 0, 80, 9
2, 92550, Note_on_c, 0, 80, 0
2, 92550, Note_on_c, 0, 81, 18
2, 92579, Note_on_c, 0, 81, 0
2, 92579, Note_on_c, 0, 80, 14
2, 92610, Note_on_c, 0, 80, 0
2, 92610, Note_on_c, 0, 81, 17
2, 92640, Note_on_c, 0, 81, 0
2, 92640, Note_on_c, 0, 80, 17
2, 92669, Note_on_c, 0, 80, 0
2, 92669, Note_on_c, 0, 81, 11
2, 92700, Note_on_c, 0, 81, 0
2, 92700, Note_on_c, 0, 82, 16
2, 92730, Note_on_c, 0, 82, 0
2, 92730, Note_on_c, 0, 83, 18
2, 92759, Note_on_c, 0, 83, 0
2, 92759, Note_on_c, 0, 82, 16
2, 92790, Note_on_c, 0, 82, 0
2, 92790, Note_on_c, 0, 83, 15
2, 92820, Note_on_c, 0, 83, 0
2, 92820, Note_on_c, 0, 82, 15
2, 92849, Note_on_c, 0, 82, 0
2, 92849, Note_on_c, 0, 83, 12
2, 92880, Note_on_c, 0, 83, 0
2, 92880, Note_on_c, 0, 74, 24
2, 92910, Note_on_c, 0, 74, 0
2, 92910, Note_on_c, 0, 75, 30
2, 92939, Note_on_c, 0, 75, 0
2, 92939, Note_on_c, 0, 74, 27
2, 92970, Note_on_c, 0, 74, 0
2, 92970, Note_on_c, 0, 75, 39
2, 93000, Note_on_c, 0, 75, 0
2, 93000, Note_on_c, 0, 74, 29
2, 93029, Note_on_c, 0, 74, 0
2, 93029, Note_on_c, 0, 75, 31
2, 93060, Note_on_c, 0, 75, 0
2, 93060, Note_on_c, 0, 77, 12
2, 93090, Note_on_c, 0, 77, 0
2, 93090, Note_on_c, 0, 78, 17
2, 93119, Note_on_c, 0, 78, 0
2, 93119, Note_on_c, 0, 77, 14
2, 93150, Note_on_c, 0, 77, 0
2, 93150, Note_on_c, 0, 78, 22
2, 93180, Note_on_c, 0, 78, 0
2, 93180, Note_on_c, 0, 77, 12
2, 93209, Note_on_c, 0, 77, 0
2, 93209, Note_on_c, 0, 78, 16
2, 93240, Note_on_c, 0, 78, 0
2, 93240, Note_on_c, 0, 82, 20
2, 93270, Note_on_c, 0, 82, 0
2, 93270, Note_on_c, 0, 83, 9
2, 93299, Note_on_c, 0, 83, 0
2, 93299, Note_on_c, 0, 82, 10
2, 93330, Note_on_c, 0, 82, 0
2, 93330, Note_on_c, 0, 83, 14
2, 93360, Note_on_c, 0, 83, 0
2, 93360, Note_on_c, 0, 82, 17
2, 93389, Note_on_c, 0, 82, 0
2, 93389, Note_on_c, 0, 83, 16
2, 93420, Note_on_c, 0, 83, 0
2, 93420, Note_on_c, 0, 74, 23
2, 93450, Note_on_c, 0, 74, 0
2, 93450, Note_on_c, 0, 75, 34
2, 93479, Note_on_c, 0, 75, 0
2, 93479, Note_on_c, 0, 74, 30
2, 93510, Note_on_c, 0, 74, 0
2, 93510, Note_on_c, 0, 75, 34
2, 93540, Note_on_c, 0, 75, 0
2, 93540, Note_on_c, 0, 74, 26
2, 93569, Note_on_c, 0, 74, 0
2, 93569, Note_on_c, 0, 75, 33
2, 93600, Note_on_c, 0, 75, 0
2, 93600, Note_on_c, 0, 77, 10
2, 93630, Note_on_c, 0, 77, 0
2, 93630, Note_on_c, 0, 78, 14
2, 93659, Note_on_c, 0, 78, 0
2, 93659, Note_on_c, 0, 77, 13
2, 93690, Note_on_c, 0, 77, 0
2, 93690, Note_on_c, 0, 78, 15
2, 93720, Note_on_c, 0, 78, 0
2, 93720, Note_on_c, 0, 77, 12
2, 93749, Note_on_c, 0, 77, 0
2, 93749, Note_on_c, 0, 78, 16
2, 93780, Note_on_c, 0, 78, 0
2, 93780, Note_on_c, 0, 82, 19
2, 93810, Note_on_c, 0, 82, 0
2, 93810, Note_on_c, 0, 83, 18
2, 93839, Note_on_c, 0, 83, 0
2, 93839, Note_on_c, 0, 82, 14
2, 93870, Note_on_c, 0, 82, 0
2, 93870, Note_on_c, 0, 83, 20
2, 93900, Note_on_c, 0, 83, 0
2, 93900, Note_on_c, 0, 82, 14
2, 93929, Note_on_c, 0, 82, 0
2, 93929, Note_on_c, 0, 83, 17
2, 93960, Note_on_c, 0, 83, 0
2, 93960, Note_on_c, 0, 75, 22
2, 93990, Note_on_c, 0, 75, 0
2, 93990, Note_on_c, 0, 76, 32
2, 94019, Note_on_c, 0, 76, 0
2, 94019, Note_on_c, 0, 75, 21
2, 94050, Note_on_c, 0, 75, 0
2, 94050, Note_on_c, 0, 76, 34
2, 94080, Note_on_c, 0, 76, 0
2, 94080, Note_on_c, 0, 75, 26
2, 94109, Note_on_c, 0, 75, 0
2, 94109, Note_on_c, 0, 76, 40
2, 94140, Note_on_c, 0, 76, 0
2, 94140, Note_on_c, 0, 79, 10
2, 94170, Note_on_c, 0, 79, 0
2, 94170, Note_on_c, 0, 80, 17
2, 94199, Note_on_c, 0, 80, 0
2, 94199, Note_on_c, 0, 79, 14
2, 94230, Note_on_c, 0, 79, 0
2, 94230, Note_on_c, 0, 80, 15
2, 94260, Note_on_c, 0, 80, 0
2, 94260, Note_on_c, 0, 79, 9
2, 94289, Note_on_c, 0, 79, 0
2, 94289, Note_on_c, 0, 80, 16
2, 94320, Note_on_c, 0, 80, 0
2, 94320, Note_on_c, 0, 82, 19
2, 94350, Note_on_c, 0, 82, 0
2, 94350, Note_on_c, 0, 83, 19
2, 94379, Note_on_c, 0, 83, 0
2, 94379, Note_on_c, 0, 82, 14
2, 94410, Note_on_c, 0, 82, 0
2, 94410, Note_on_c, 0, 83, 18
2, 94440, Note_on_c, 0, 83, 0
2, 94440, Note_on_c, 0, 82, 14
2, 94469, Note_on_c, 0, 82, 0
2, 94469, Note_on_c, 0, 83, 18
2, 94500, Note_on_c, 0, 83, 0
2, 94500, Note_on_c, 0, 79, 27
2, 94530, Note_on_c, 0, 79, 0
2, 94530, Note_on_c, 0, 80, 26
2, 94559, Note_on_c, 0, 80, 0
2, 94559, Note_on_c, 0, 79, 24
2, 94590, Note_on_c, 0, 79, 0
2, 94590, Note_on_c, 0, 80, 29
2, 94620, Note_on_c, 0, 80, 0
2, 94620, Note_on_c, 0, 79, 27
2, 94649, Note_on_c, 0, 79, 0
2, 94649, Note_on_c, 0, 80, 30
2, 94680, Note_on_c, 0, 80, 0
2, 94680, Note_on_c, 0, 84, 8
2, 94710, Note_on_c, 0, 84, 0
2, 94710, Note_on_c, 0, 85, 20
2, 94739, Note_on_c, 0, 85, 0
2, 94739, Note_on_c, 0, 84, 12
2, 94770, Note_on_c, 0, 84, 0
2, 94770, Note_on_c, 0, 85, 17
2, 94800, Note_on_c, 0, 85, 0
2, 94800, Note_on_c, 0, 84, 10
2, 94829, Note_on_c, 0, 84, 0
2, 94829, Note_on_c, 0, 85, 15
2, 94860, Note_on_c, 0, 85, 0
2, 94860, Note_on_c, 0, 87, 17
2, 94890, Note_on_c, 0, 87, 0
2, 94890, Note_on_c, 0, 88, 18
2, 94919, Note_on_c, 0, 88, 0
2, 94919, Note_on_c, 0, 87, 17
2, 94950, Note_on_c, 0, 87, 0
2, 94950, Note_on_c, 0, 88, 18
2, 94980, Note_on_c, 0, 88, 0
2, 94980, Note_on_c, 0, 87, 15
2, 95009, Note_on_c, 0, 87, 0
2, 95009, Note_on_c, 0, 88, 16
2, 95040, Note_on_c, 0, 88, 0
2, 95040, Note_on_c, 0, 78, 20
2, 95070, Note_on_c, 0, 78, 0
2, 95070, Note_on_c, 0, 79, 31
2, 95099, Note_on_c, 0, 79, 0
2, 95099, Note_on_c, 0, 78, 28
2, 95130, Note_on_c, 0, 78, 0
2, 95130, Note_on_c, 0, 79, 33
2, 95160, Note_on_c, 0, 79, 0
2, 95160, Note_on_c, 0, 78, 29
2, 95189, Note_on_c, 0, 78, 0
2, 95189, Note_on_c, 0, 79, 30
2, 95220, Note_on_c, 0, 79, 0
2, 95220, Note_on_c, 0, 86, 10
2, 95250, Note_on_c, 0, 86, 0
2, 95250, Note_on_c, 0, 87, 15
2, 95279, Note_on_c, 0, 87, 0
2, 95279, Note_on_c, 0, 86, 9
2, 95310, Note_on_c, 0, 86, 0
2, 95310, Note_on_c, 0, 87, 19
2, 95340, Note_on_c, 0, 87, 0
2, 95340, Note_on_c, 0, 86, 15
2, 95369, Note_on_c, 0, 86, 0
2, 95369, Note_on_c, 0, 87, 14
2, 95400, Note_on_c, 0, 87, 0
2, 95400, Note_on_c, 0, 78, 23
2, 95430, Note_on_c, 0, 78, 0
2, 95430, Note_on_c, 0, 79, 33
2, 95459, Note_on_c, 0, 79, 0
2, 95459, Note_on_c, 0, 78, 24
2, 95490, Note_on_c, 0, 78, 0
2, 95490, Note_on_c, 0, 79, 31
2, 95520, Note_on_c, 0, 79, 0
2, 95520, Note_on_c, 0, 78, 30
2, 95549, Note_on_c, 0, 78, 0
2, 95549, Note_on_c, 0, 79, 31
2, 95580, Note_on_c, 0, 79, 0
2, 95580, Note_on_c, 0, 86, 10
2, 95610, Note_on_c, 0, 86, 0
2, 95610, Note_on_c, 0, 87, 13
2, 95639, Note_on_c, 0, 87, 0
2, 95639, Note_on_c, 0, 86, 13
2, 95670, Note_on_c, 0, 86, 0
2, 95670, Note_on_c, 0, 87, 20
2, 95700, Note_on_c, 0, 87, 0
2, 95700, Note_on_c, 0, 86, 15
2, 95729, Note_on_c, 0, 86, 0
2, 95729, Note_on_c, 0, 87, 12
2, 95760, Note_on_c, 0, 87, 0
2, 95760, Note_on_c, 0, 79, 22
2, 95790, Note_on_c, 0, 79, 0
2, 95790, Note_on_c, 0, 80, 34
2, 95819, Note_on_c, 0, 80, 0
2, 95819, Note_on_c, 0, 79, 29
2, 95850, Note_on_c, 0, 79, 0
2, 95850, Note_on_c, 0, 80, 34
2, 95880, Note_on_c, 0, 80, 0
2, 95880, Note_on_c, 0, 79, 28
2, 95909, Note_on_c, 0, 79, 0
2, 95909, Note_on_c, 0, 80, 31
2, 95940, Note_on_c, 0, 80, 0
2, 95940, Note_on_c, 0, 74, 11
2, 95970, Note_on_c, 0, 74, 0
2, 95970, Note_on_c, 0, 75, 16
2, 95999, Note_on_c, 0, 75, 0
2, 95999, Note_on_c, 0, 74, 14
2, 96030, Note_on_c, 0, 74, 0
2, 96030, Note_on_c, 0, 75, 16
2, 96060, Note_on_c, 0, 75, 0
2, 96060, Note_on_c, 0, 74, 15
2, 96089, Note_on_c, 0, 74, 0
2, 96089, Note_on_c, 0, 75, 17
2, 96120, Note_on_c, 0, 75, 0
2, 96120, Note_on_c, 0, 63, 34
2, 96120, Note_on_c, 0, 69, 34
2, 96300, Note_on_c, 0, 69, 0
2, 96300, Note_on_c, 0, 63, 0
2, 96300, Note_on_c, 0, 83, 79
2, 96300, Note_on_c, 0, 59, 56
2, 96300, Note_on_c, 0, 71, 56
2, 96458, Note_on_c, 0, 71, 0
2, 96458, Note_on_c, 0, 59, 0
2, 96458, Note_on_c, 0, 83, 0
2, 96480, Note_on_c, 0, 85, 95
2, 96480, Note_on_c, 0, 61, 56
2, 96480, Note_on_c, 0, 73, 56
2, 96638, Note_on_c, 0, 73, 0
2, 96638, Note_on_c, 0, 61, 0
2, 96638, Note_on_c, 0, 85, 0
2, 96660, Note_on_c, 0, 87, 86
2, 96660, Note_on_c, 0, 63, 45
2, 96660, Note_on_c, 0, 75, 45
2, 96840, Note_on_c, 0, 75, 0
2, 96840, Note_on_c, 0, 63, 0
2, 96840, Note_on_c, 0, 87, 0
2, 96840, Note_on_c, 0, 76, 81
2, 96840, Note_on_c, 0, 88, 81
2, 96840, Note_on_c, 0, 64, 20
2, 97020, Note_on_c, 0, 64, 0
2, 97020, Note_on_c, 0, 88, 0
2, 97020, Note_on_c, 0, 76, 0
2, 97020, Note_on_c, 0, 78, 80
2, 97020, Note_on_c, 0, 90, 80
2, 97020, Note_on_c, 0, 66, 38
2, 97200, Note_on_c, 0, 66, 0
2, 97200, Note_on_c, 0, 90, 0
2, 97200, Note_on_c, 0, 78, 0
2, 97200, Note_on_c, 0, 76, 74
2, 97200, Note_on_c, 0, 80, 74
2, 97200, Note_on_c, 0, 88, 74
2, 97200, Note_on_c, 0, 64, 53
2, 97200, Note_on_c, 0, 73, 53
2, 97380, Note_on_c, 0, 73, 0
2, 97380, Note_on_c, 0, 88, 0
2, 97380, Note_on_c, 0, 76, 0
2, 97380, Note_on_c, 0, 80, 0
2, 97380, Note_on_c, 0, 64, 0
2, 97380, Note_on_c, 0, 75, 74
2, 97380, Note_on_c, 0, 87, 74
2, 97380, Note_on_c, 0, 63, 29
2, 97560, Note_on_c, 0, 63, 0
2, 97560, Note_on_c, 0, 87, 0
2, 97560, Note_on_c, 0, 75, 0
2, 97560, Note_on_c, 0, 73, 69
2, 97560, Note_on_c, 0, 76, 69
2, 97560, Note_on_c, 0, 85, 69
2, 97560, Note_on_c, 0, 61, 33
2, 97740, Note_on_c, 0, 61, 0
2, 97740, Note_on_c, 0, 73, 0
2, 97740, Note_on_c, 0, 76, 0
2, 97740, Note_on_c, 0, 85, 0
2, 97740, Note_on_c, 0, 78, 71
2, 97740, Note_on_c, 0, 83, 71
2, 97740, Note_on_c, 0, 59, 55
2, 97740, Note_on_c, 0, 71, 55
2, 97920, Note_on_c, 0, 71, 0
2, 97920, Note_on_c, 0, 78, 0
2, 97920, Note_on_c, 0, 83, 0
2, 97920, Note_on_c, 0, 59, 0
2, 97920, Note_on_c, 0, 79, 83
2, 97920, Note_on_c, 0, 55, 48
2, 97920, Note_on_c, 0, 67, 48
2, 98078, Note_on_c, 0, 67, 0
2, 98078, Note_on_c, 0, 55, 0
2, 98078, Note_on_c, 0, 79, 0
2, 98100, Note_on_c, 0, 80, 91
2, 98100, Note_on_c, 0, 56, 53
2, 98100, Note_on_c, 0, 68, 53
2, 98258, Note_on_c, 0, 68, 0
2, 98258, Note_on_c, 0, 56, 0
2, 98258, Note_on_c, 0, 80, 0
2, 98280, Note_on_c, 0, 75, 107
2, 98280, Note_on_c, 0, 83, 107
2, 98280, Note_on_c, 0, 59, 72
2, 98280, Note_on_c, 0, 71, 72
2, 98640, Note_on_c, 0, 71, 0
2, 98640, Note_on_c, 0, 75, 0
2, 98640, Note_on_c, 0, 83, 0
2, 98640, Note_on_c, 0, 59, 0
2, 98640, Note_on_c, 0, 78, 67
2, 98640, Note_on_c, 0, 66, 34
2, 99000, Note_on_c, 0, 66, 0
2, 99000, Note_on_c, 0, 78, 0
2, 99000, Note_on_c, 0, 78, 93
2, 99000, Note_on_c, 0, 66, 57
2, 99158, Note_on_c, 0, 66, 0
2, 99158, Note_on_c, 0, 78, 0
2, 99180, Note_on_c, 0, 79, 94
2, 99180, Note_on_c, 0, 67, 58
2, 99338, Note_on_c, 0, 67, 0
2, 99338, Note_on_c, 0, 79, 0
2, 99360, Note_on_c, 0, 76, 107
2, 99360, Note_on_c, 0, 80, 107
2, 99360, Note_on_c, 0, 83, 107
2, 99360, Note_on_c, 0, 64, 75
2, 99360, Note_on_c, 0, 68, 75
2, 99360, Note_on_c, 0, 71, 75
2, 99720, Note_on_c, 0, 71, 0
2, 99720, Note_on_c, 0, 80, 0
2, 99720, Note_on_c, 0, 83, 0
2, 99720, Note_on_c, 0, 76, 0
2, 99720, Note_on_c, 0, 68, 0
2, 99720, Note_on_c, 0, 64, 0
2, 99720, Note_on_c, 0, 80, 69
2, 99720, Note_on_c, 0, 68, 36
2, 100080, Note_on_c, 0, 68, 0
2, 100080, Note_on_c, 0, 80, 0
2, 100440, Note_on_c, 0, 63, 32
2, 100440, Note_on_c, 0, 69, 32
2, 100620, Note_on_c, 0, 69, 0
2, 100620, Note_on_c, 0, 63, 0
2, 100620, Note_on_c, 0, 83, 82
2, 100620, Note_on_c, 0, 71, 56
2, 100778, Note_on_c, 0, 71, 0
2, 100778, Note_on_c, 0, 83, 0
2, 100800, Note_on_c, 0, 85, 91
2, 100800, Note_on_c, 0, 61, 54
2, 100800, Note_on_c, 0, 73, 54
2, 100958, Note_on_c, 0, 73, 0
2, 100958, Note_on_c, 0, 61, 0
2, 100958, Note_on_c, 0, 85, 0
2, 100980, Note_on_c, 0, 87, 83
2, 100980, Note_on_c, 0, 63, 50
2, 100980, Note_on_c, 0, 75, 50
2, 101160, Note_on_c, 0, 75, 0
2, 101160, Note_on_c, 0, 63, 0
2, 101160, Note_on_c, 0, 87, 0
2, 101160, Note_on_c, 0, 76, 86
2, 101160, Note_on_c, 0, 88, 86
2, 101160, Note_on_c, 0, 64, 28
2, 101340, Note_on_c, 0, 64, 0
2, 101340, Note_on_c, 0, 88, 0
2, 101340, Note_on_c, 0, 76, 0
2, 101340, Note_on_c, 0, 78, 82
2, 101340, Note_on_c, 0, 90, 82
2, 101340, Note_on_c, 0, 66, 41
2, 101520, Note_on_c, 0, 66, 0
2, 101520, Note_on_c, 0, 90, 0
2, 101520, Note_on_c, 0, 78, 0
2, 101520, Note_on_c, 0, 76, 74
2, 101520, Note_on_c, 0, 80, 74
2, 101520, Note_on_c, 0, 88, 74
2, 101520, Note_on_c, 0, 64, 50
2, 101520, Note_on_c, 0, 73, 50
2, 101700, Note_on_c, 0, 73, 0
2, 101700, Note_on_c, 0, 88, 0
2, 101700, Note_on_c, 0, 76, 0
2, 101700, Note_on_c, 0, 80, 0
2, 101700, Note_on_c, 0, 64, 0
2, 101700, Note_on_c, 0, 75, 75
2, 101700, Note_on_c, 0, 87, 75
2, 101700, Note_on_c, 0, 63, 20
2, 101880, Note_on_c, 0, 63, 0
2, 101880, Note_on_c, 0, 87, 0
2, 101880, Note_on_c, 0, 75, 0
2, 101880, Note_on_c, 0, 73, 73
2, 101880, Note_on_c, 0, 76, 73
2, 101880, Note_on_c, 0, 85, 73
2, 101880, Note_on_c, 0, 61, 39
2, 102060, Note_on_c, 0, 61, 0
2, 102060, Note_on_c, 0, 73, 0
2, 102060, Note_on_c, 0, 76, 0
2, 102060, Note_on_c, 0, 85, 0
2, 102060, Note_on_c, 0, 76, 71
2, 102060, Note_on_c, 0, 83, 71
2, 102060, Note_on_c, 0, 59, 49
2, 102060, Note_on_c, 0, 71, 49
2, 102240, Note_on_c, 0, 71, 0
2, 102240, Note_on_c, 0, 76, 0
2, 102240, Note_on_c, 0, 83, 0
2, 102240, Note_on_c, 0, 59, 0
2, 102240, Note_on_c, 0, 82, 86
2, 102240, Note_on_c, 0, 70, 53
2, 102398, Note_on_c, 0, 70, 0
2, 102398, Note_on_c, 0, 82, 0
2, 102420, Note_on_c, 0, 80, 83
2, 102420, Note_on_c, 0, 68, 47
2, 102578, Note_on_c, 0, 68, 0
2, 102578, Note_on_c, 0, 80, 0
2, 102600, Note_on_c, 0, 71, 68
2, 102600, Note_on_c, 0, 75, 68
2, 102600, Note_on_c, 0, 79, 68
2, 102600, Note_on_c, 0, 67, 35
2, 102780, Note_on_c, 0, 67, 0
2, 102780, Note_on_c, 0, 71, 0
2, 102780, Note_on_c, 0, 75, 0
2, 102780, Note_on_c, 0, 79, 0
2, 102780, Note_on_c, 0, 80, 83
2, 102780, Note_on_c, 0, 68, 37
2, 102960, Note_on_c, 0, 68, 0
2, 102960, Note_on_c, 0, 80, 0
2, 102960, Note_on_c, 0, 88, 93
2, 102960, Note_on_c, 0, 76, 51
2, 103140, Note_on_c, 0, 76, 0
2, 103140, Note_on_c, 0, 88, 0
2, 103140, Note_on_c, 0, 82, 99
2, 103140, Note_on_c, 0, 87, 99
2, 103140, Note_on_c, 0, 70, 64
2, 103140, Note_on_c, 0, 75, 64
2, 103500, Note_on_c, 0, 75, 0
2, 103500, Note_on_c, 0, 82, 0
2, 103500, Note_on_c, 0, 87, 0
2, 103500, Note_on_c, 0, 70, 0
2, 103500, Note_on_c, 0, 85, 70
2, 103500, Note_on_c, 0, 73, 35
2, 103680, Note_on_c, 0, 73, 0
2, 103680, Note_on_c, 0, 85, 0
2, 103680, Note_on_c, 0, 85, 97
2, 103680, Note_on_c, 0, 75, 42
2, 103680, Note_on_c, 0, 73, 95
2, 104040, Note_on_c, 0, 73, 0
2, 104040, Note_on_c, 0, 75, 0
2, 104040, Note_on_c, 0, 85, 0
2, 104040, Note_on_c, 0, 83, 66
2, 104040, Note_on_c, 0, 71, 36
2, 104220, Note_on_c, 0, 71, 0
2, 104220, Note_on_c, 0, 83, 0
2, 104220, Note_on_c, 0, 68, 28
2, 104250, Note_on_c, 0, 68, 0
2, 104250, Note_on_c, 0, 70, 29
2, 104279, Note_on_c, 0, 70, 0
2, 104279, Note_on_c, 0, 68, 26
2, 104310, Note_on_c, 0, 68, 0
2, 104310, Note_on_c, 0, 70, 34
2, 104340, Note_on_c, 0, 70, 0
2, 104340, Note_on_c, 0, 68, 27
2, 104369, Note_on_c, 0, 68, 0
2, 104369, Note_on_c, 0, 70, 34
2, 104400, Note_on_c, 0, 70, 0
2, 104400, Note_on_c, 0, 70, 22
2, 104400, Note_on_c, 0, 68, 25
2, 104430, Note_on_c, 0, 70, 0
2, 104430, Note_on_c, 0, 71, 30
2, 104459, Note_on_c, 0, 71, 0
2, 104459, Note_on_c, 0, 70, 29
2, 104490, Note_on_c, 0, 70, 0
2, 104490, Note_on_c, 0, 71, 32
2, 104520, Note_on_c, 0, 71, 0
2, 104520, Note_on_c, 0, 70, 32
2, 104549, Note_on_c, 0, 70, 0
2, 104549, Note_on_c, 0, 71, 31
2, 104580, Note_on_c, 0, 71, 0
2, 104580, Note_on_c, 0, 68, 0
2, 104580, Note_on_c, 0, 70, 23
2, 104580, Note_on_c, 0, 66, 31
2, 104580, Note_on_c, 0, 69, 31
2, 104610, Note_on_c, 0, 70, 0
2, 104610, Note_on_c, 0, 71, 34
2, 104639, Note_on_c, 0, 71, 0
2, 104639, Note_on_c, 0, 70, 25
2, 104670, Note_on_c, 0, 70, 0
2, 104670, Note_on_c, 0, 71, 35
2, 104700, Note_on_c, 0, 71, 0
2, 104700, Note_on_c, 0, 70, 30
2, 104729, Note_on_c, 0, 70, 0
2, 104729, Note_on_c, 0, 71, 35
2, 104760, Note_on_c, 0, 71, 0
2, 104760, Note_on_c, 0, 69, 0
2, 104760, Note_on_c, 0, 66, 0
2, 104760, Note_on_c, 0, 71, 32
2, 104790, Note_on_c, 0, 71, 0
2, 104790, Note_on_c, 0, 73, 36
2, 104819, Note_on_c, 0, 73, 0
2, 104819, Note_on_c, 0, 71, 27
2, 104850, Note_on_c, 0, 71, 0
2, 104850, Note_on_c, 0, 73, 30
2, 104880, Note_on_c, 0, 73, 0
2, 104880, Note_on_c, 0, 71, 32
2, 104909, Note_on_c, 0, 71, 0
2, 104909, Note_on_c, 0, 73, 34
2, 104940, Note_on_c, 0, 73, 0
2, 104940, Note_on_c, 0, 73, 29
2, 104970, Note_on_c, 0, 73, 0
2, 104970, Note_on_c, 0, 75, 32
2, 104999, Note_on_c, 0, 75, 0
2, 104999, Note_on_c, 0, 73, 30
2, 105030, Note_on_c, 0, 73, 0
2, 105030, Note_on_c, 0, 75, 35
2, 105060, Note_on_c, 0, 75, 0
2, 105060, Note_on_c, 0, 73, 26
2, 105089, Note_on_c, 0, 73, 0
2, 105089, Note_on_c, 0, 75, 32
2, 105120, Note_on_c, 0, 75, 0
2, 105120, Note_on_c, 0, 75, 27
2, 105150, Note_on_c, 0, 75, 0
2, 105150, Note_on_c, 0, 76, 34
2, 105179, Note_on_c, 0, 76, 0
2, 105179, Note_on_c, 0, 75, 28
2, 105210, Note_on_c, 0, 75, 0
2, 105210, Note_on_c, 0, 76, 36
2, 105240, Note_on_c, 0, 76, 0
2, 105240, Note_on_c, 0, 75, 26
2, 105269, Note_on_c, 0, 75, 0
2, 105269, Note_on_c, 0, 76, 31
2, 105300, Note_on_c, 0, 76, 0
2, 105300, Note_on_c, 0, 77, 24
2, 105330, Note_on_c, 0, 77, 0
2, 105330, Note_on_c, 0, 78, 34
2, 105359, Note_on_c, 0, 78, 0
2, 105359, Note_on_c, 0, 77, 28
2, 105390, Note_on_c, 0, 77, 0
2, 105390, Note_on_c, 0, 78, 30
2, 105420, Note_on_c, 0, 78, 0
2, 105420, Note_on_c, 0, 77, 24
2, 105449, Note_on_c, 0, 77, 0
2, 105449, Note_on_c, 0, 78, 33
2, 105480, Note_on_c, 0, 78, 0
2, 105480, Note_on_c, 0, 80, 30
2, 105510, Note_on_c, 0, 80, 0
2, 105510, Note_on_c, 0, 81, 33
2, 105539, Note_on_c, 0, 81, 0
2, 105539, Note_on_c, 0, 80, 28
2, 105570, Note_on_c, 0, 80, 0
2, 105570, Note_on_c, 0, 81, 35
2, 105600, Note_on_c, 0, 81, 0
2, 105600, Note_on_c, 0, 80, 26
2, 105629, Note_on_c, 0, 80, 0
2, 105629, Note_on_c, 0, 81, 27
2, 105660, Note_on_c, 0, 81, 0
2, 105660, Note_on_c, 0, 82, 33
2, 105690, Note_on_c, 0, 82, 0
2, 105690, Note_on_c, 0, 83, 29
2, 105719, Note_on_c, 0, 83, 0
2, 105719, Note_on_c, 0, 82, 26
2, 105750, Note_on_c, 0, 82, 0
2, 105750, Note_on_c, 0, 83, 34
2, 105780, Note_on_c, 0, 83, 0
2, 105780, Note_on_c, 0, 82, 27
2, 105809, Note_on_c, 0, 82, 0
2, 105809, Note_on_c, 0, 83, 31
2, 105840, Note_on_c, 0, 83, 0
2, 105840, Note_on_c, 0, 74, 24
2, 105870, Note_on_c, 0, 74, 0
2, 105870, Note_on_c, 0, 75, 31
2, 105899, Note_on_c, 0, 75, 0
2, 105899, Note_on_c, 0, 74, 31
2, 105930, Note_on_c, 0, 74, 0
2, 105930, Note_on_c, 0, 75, 35
2, 105960, Note_on_c, 0, 75, 0
2, 105960, Note_on_c, 0, 74, 30
2, 105989, Note_on_c, 0, 74, 0
2, 105989, Note_on_c, 0, 75, 30
2, 106020, Note_on_c, 0, 75, 0
2, 106020, Note_on_c, 0, 77, 24
2, 106050, Note_on_c, 0, 77, 0
2, 106050, Note_on_c, 0, 78, 35
2, 106079, Note_on_c, 0, 78, 0
2, 106079, Note_on_c, 0, 77, 26
2, 106110, Note_on_c, 0, 77, 0
2, 106110, Note_on_c, 0, 78, 31
2, 106140, Note_on_c, 0, 78, 0
2, 106140, Note_on_c, 0, 77, 23
2, 106169, Note_on_c, 0, 77, 0
2, 106169, Note_on_c, 0, 78, 32
2, 106200, Note_on_c, 0, 78, 0
2, 106200, Note_on_c, 0, 82, 36
2, 106230, Note_on_c, 0, 82, 0
2, 106230, Note_on_c, 0, 83, 31
2, 106259, Note_on_c, 0, 83, 0
2, 106259, Note_on_c, 0, 82, 30
2, 106290, Note_on_c, 0, 82, 0
2, 106290, Note_on_c, 0, 83, 32
2, 106320, Note_on_c, 0, 83, 0
2, 106320, Note_on_c, 0, 82, 29
2, 106349, Note_on_c, 0, 82, 0
2, 106349, Note_on_c, 0, 83, 28
2, 106380, Note_on_c, 0, 83, 0
2, 106380, Note_on_c, 0, 74, 22
2, 106410, Note_on_c, 0, 74, 0
2, 106410, Note_on_c, 0, 75, 34
2, 106439, Note_on_c, 0, 75, 0
2, 106439, Note_on_c, 0, 74, 30
2, 106470, Note_on_c, 0, 74, 0
2, 106470, Note_on_c, 0, 75, 33
2, 106500, Note_on_c, 0, 75, 0
2, 106500, Note_on_c, 0, 74, 32
2, 106529, Note_on_c, 0, 74, 0
2, 106529, Note_on_c, 0, 75, 28
2, 106560, Note_on_c, 0, 75, 0
2, 106560, Note_on_c, 0, 77, 25
2, 106590, Note_on_c, 0, 77, 0
2, 106590, Note_on_c, 0, 78, 32
2, 106619, Note_on_c, 0, 78, 0
2, 106619, Note_on_c, 0, 77, 29
2, 106650, Note_on_c, 0, 77, 0
2, 106650, Note_on_c, 0, 78, 32
2, 106680, Note_on_c, 0, 78, 0
2, 106680, Note_on_c, 0, 77, 27
2, 106709, Note_on_c, 0, 77, 0
2, 106709, Note_on_c, 0, 78, 30
2, 106740, Note_on_c, 0, 78, 0
2, 106740, Note_on_c, 0, 82, 33
2, 106770, Note_on_c, 0, 82, 0
2, 106770, Note_on_c, 0, 83, 31
2, 106799, Note_on_c, 0, 83, 0
2, 106799, Note_on_c, 0, 82, 31
2, 106830, Note_on_c, 0, 82, 0
2, 106830, Note_on_c, 0, 83, 34
2, 106860, Note_on_c, 0, 83, 0
2, 106860, Note_on_c, 0, 82, 29
2, 106889, Note_on_c, 0, 82, 0
2, 106889, Note_on_c, 0, 83, 39
2, 106920, Note_on_c, 0, 83, 0
2, 106920, Note_on_c, 0, 75, 25
2, 106950, Note_on_c, 0, 75, 0
2, 106950, Note_on_c, 0, 76, 34
2, 106979, Note_on_c, 0, 76, 0
2, 106979, Note_on_c, 0, 75, 25
2, 107010, Note_on_c, 0, 75, 0
2, 107010, Note_on_c, 0, 76, 30
2, 107040, Note_on_c, 0, 76, 0
2, 107040, Note_on_c, 0, 75, 28
2, 107069, Note_on_c, 0, 75, 0
2, 107069, Note_on_c, 0, 76, 32
2, 107100, Note_on_c, 0, 76, 0
2, 107100, Note_on_c, 0, 79, 26
2, 107130, Note_on_c, 0, 79, 0
2, 107130, Note_on_c, 0, 80, 34
2, 107159, Note_on_c, 0, 80, 0
2, 107159, Note_on_c, 0, 79, 28
2, 107190, Note_on_c, 0, 79, 0
2, 107190, Note_on_c, 0, 80, 26
2, 107220, Note_on_c, 0, 80, 0
2, 107220, Note_on_c, 0, 79, 33
2, 107249, Note_on_c, 0, 79, 0
2, 107249, Note_on_c, 0, 80, 28
2, 107280, Note_on_c, 0, 80, 0
2, 107280, Note_on_c, 0, 82, 32
2, 107310, Note_on_c, 0, 82, 0
2, 107310, Note_on_c, 0, 83, 32
2, 107339, Note_on_c, 0, 83, 0
2, 107339, Note_on_c, 0, 82, 37
2, 107370, Note_on_c, 0, 82, 0
2, 107370, Note_on_c, 0, 83, 31
2, 107400, Note_on_c, 0, 83, 0
2, 107400, Note_on_c, 0, 82, 30
2, 107429, Note_on_c, 0, 82, 0
2, 107429, Note_on_c, 0, 83, 30
2, 107460, Note_on_c, 0, 83, 0
2, 107460, Note_on_c, 0, 78, 21
2, 107490, Note_on_c, 0, 78, 0
2, 107490, Note_on_c, 0, 79, 32
2, 107519, Note_on_c, 0, 79, 0
2, 107519, Note_on_c, 0, 78, 31
2, 107550, Note_on_c, 0, 78, 0
2, 107550, Note_on_c, 0, 79, 31
2, 107580, Note_on_c, 0, 79, 0
2, 107580, Note_on_c, 0, 78, 27
2, 107609, Note_on_c, 0, 78, 0
2, 107609, Note_on_c, 0, 79, 32
2, 107640, Note_on_c, 0, 79, 0
2, 107640, Note_on_c, 0, 84, 28
2, 107670, Note_on_c, 0, 84, 0
2, 107670, Note_on_c, 0, 85, 31
2, 107699, Note_on_c, 0, 85, 0
2, 107699, Note_on_c, 0, 84, 27
2, 107730, Note_on_c, 0, 84, 0
2, 107730, Note_on_c, 0, 85, 35
2, 107760, Note_on_c, 0, 85, 0
2, 107760, Note_on_c, 0, 84, 33
2, 107789, Note_on_c, 0, 84, 0
2, 107789, Note_on_c, 0, 85, 33
2, 107820, Note_on_c, 0, 85, 0
2, 107820, Note_on_c, 0, 87, 32
2, 107850, Note_on_c, 0, 87, 0
2, 107850, Note_on_c, 0, 88, 39
2, 107879, Note_on_c, 0, 88, 0
2, 107879, Note_on_c, 0, 87, 27
2, 107910, Note_on_c, 0, 87, 0
2, 107910, Note_on_c, 0, 88, 34
2, 107940, Note_on_c, 0, 88, 0
2, 107940, Note_on_c, 0, 87, 25
2, 107969, Note_on_c, 0, 87, 0
2, 107969, Note_on_c, 0, 88, 33
2, 108000, Note_on_c, 0, 88, 0
2, 108000, Note_on_c, 0, 77, 24
2, 108030, Note_on_c, 0, 77, 0
2, 108030, Note_on_c, 0, 78, 32
2, 108059, Note_on_c, 0, 78, 0
2, 108059, Note_on_c, 0, 77, 28
2, 108090, Note_on_c, 0, 77, 0
2, 108090, Note_on_c, 0, 78, 34
2, 108120, Note_on_c, 0, 78, 0
2, 108120, Note_on_c, 0, 77, 25
2, 108149, Note_on_c, 0, 77, 0
2, 108149, Note_on_c, 0, 78, 36
2, 108180, Note_on_c, 0, 78, 0
2, 108180, Note_on_c, 0, 82, 26
2, 108210, Note_on_c, 0, 82, 0
2, 108210, Note_on_c, 0, 83, 31
2, 108239, Note_on_c, 0, 83, 0
2, 108239, Note_on_c, 0, 82, 32
2, 108270, Note_on_c, 0, 82, 0
2, 108270, Note_on_c, 0, 83, 30
2, 108300, Note_on_c, 0, 83, 0
2, 108300, Note_on_c, 0, 82, 28
2, 108329, Note_on_c, 0, 82, 0
2, 108329, Note_on_c, 0, 83, 31
2, 108360, Note_on_c, 0, 83, 0
2, 108360, Note_on_c, 0, 86, 36
2, 108390, Note_on_c, 0, 86, 0
2, 108390, Note_on_c, 0, 87, 37
2, 108419, Note_on_c, 0, 87, 0
2, 108419, Note_on_c, 0, 86, 24
2, 108450, Note_on_c, 0, 86, 0
2, 108450, Note_on_c, 0, 87, 31
2, 108480, Note_on_c, 0, 87, 0
2, 108480, Note_on_c, 0, 86, 31
2, 108509, Note_on_c, 0, 86, 0
2, 108509, Note_on_c, 0, 87, 29
2, 108540, Note_on_c, 0, 87, 0
2, 108540, Note_on_c, 0, 74, 26
2, 108570, Note_on_c, 0, 74, 0
2, 108570, Note_on_c, 0, 75, 33
2, 108599, Note_on_c, 0, 75, 0
2, 108599, Note_on_c, 0, 74, 30
2, 108630, Note_on_c, 0, 74, 0
2, 108630, Note_on_c, 0, 75, 38
2, 108660, Note_on_c, 0, 75, 0
2, 108660, Note_on_c, 0, 74, 30
2, 108689, Note_on_c, 0, 74, 0
2, 108689, Note_on_c, 0, 75, 33
2, 108720, Note_on_c, 0, 75, 0
2, 108720, Note_on_c, 0, 80, 26
2, 108750, Note_on_c, 0, 80, 0
2, 108750, Note_on_c, 0, 81, 33
2, 108779, Note_on_c, 0, 81, 0
2, 108779, Note_on_c, 0, 80, 27
2, 108810, Note_on_c, 0, 80, 0
2, 108810, Note_on_c, 0, 81, 31
2, 108840, Note_on_c, 0, 81, 0
2, 108840, Note_on_c, 0, 80, 28
2, 108869, Note_on_c, 0, 80, 0
2, 108869, Note_on_c, 0, 81, 34
2, 108900, Note_on_c, 0, 81, 0
2, 108900, Note_on_c, 0, 82, 36
2, 108930, Note_on_c, 0, 82, 0
2, 108930, Note_on_c, 0, 83, 32
2, 108959, Note_on_c, 0, 83, 0
2, 108959, Note_on_c, 0, 82, 27
2, 108990, Note_on_c, 0, 82, 0
2, 108990, Note_on_c, 0, 83, 34
2, 109020, Note_on_c, 0, 83, 0
2, 109020, Note_on_c, 0, 82, 31
2, 109049, Note_on_c, 0, 82, 0
2, 109049, Note_on_c, 0, 83, 32
2, 109080, Note_on_c, 0, 83, 0
2, 109080, Note_on_c, 0, 80, 32
2, 109080, Note_on_c, 0, 83, 32
2, 109110, Note_on_c, 0, 83, 0
2, 109110, Note_on_c, 0, 80, 0
2, 109110, Note_on_c, 0, 76, 18
2, 109139, Note_on_c, 0, 76, 0
2, 109139, Note_on_c, 0, 80, 34
2, 109139, Note_on_c, 0, 83, 34
2, 109170, Note_on_c, 0, 83, 0
2, 109170, Note_on_c, 0, 80, 0
2, 109170, Note_on_c, 0, 76, 23
2, 109200, Note_on_c, 0, 76, 0
2, 109200, Note_on_c, 0, 80, 36
2, 109200, Note_on_c, 0, 83, 36
2, 109229, Note_on_c, 0, 83, 0
2, 109229, Note_on_c, 0, 80, 0
2, 109229, Note_on_c, 0, 76, 24
2, 109260, Note_on_c, 0, 76, 0
2, 109260, Note_on_c, 0, 80, 41
2, 109260, Note_on_c, 0, 83, 41
2, 109290, Note_on_c, 0, 83, 0
2, 109290, Note_on_c, 0, 80, 0
2, 109290, Note_on_c, 0, 76, 25
2, 109319, Note_on_c, 0, 76, 0
2, 109319, Note_on_c, 0, 80, 37
2, 109319, Note_on_c, 0, 83, 37
2, 109350, Note_on_c, 0, 83, 0
2, 109350, Note_on_c, 0, 80, 0
2, 109350, Note_on_c, 0, 76, 27
2, 109380, Note_on_c, 0, 76, 0
2, 109380, Note_on_c, 0, 80, 36
2, 109380, Note_on_c, 0, 83, 36
2, 109409, Note_on_c, 0, 83, 0
2, 109409, Note_on_c, 0, 80, 0
2, 109409, Note_on_c, 0, 76, 28
2, 109440, Note_on_c, 0, 76, 0
2, 109440, Note_on_c, 0, 80, 38
2, 109440, Note_on_c, 0, 83, 38
2, 109470, Note_on_c, 0, 83, 0
2, 109470, Note_on_c, 0, 80, 0
2, 109470, Note_on_c, 0, 76, 30
2, 109499, Note_on_c, 0, 76, 0
2, 109499, Note_on_c, 0, 80, 39
2, 109499, Note_on_c, 0, 83, 39
2, 109530, Note_on_c, 0, 83, 0
2, 109530, Note_on_c, 0, 80, 0
2, 109530, Note_on_c, 0, 76, 23
2, 109560, Note_on_c, 0, 76, 0
2, 109560, Note_on_c, 0, 80, 39
2, 109560, Note_on_c, 0, 83, 39
2, 109589, Note_on_c, 0, 83, 0
2, 109589, Note_on_c, 0, 80, 0
2, 109589, Note_on_c, 0, 76, 18
2, 109620, Note_on_c, 0, 76, 0
2, 109620, Note_on_c, 0, 81, 38
2, 109620, Note_on_c, 0, 83, 38
2, 109650, Note_on_c, 0, 83, 0
2, 109650, Note_on_c, 0, 81, 0
2, 109650, Note_on_c, 0, 75, 22
2, 109679, Note_on_c, 0, 75, 0
2, 109679, Note_on_c, 0, 81, 37
2, 109679, Note_on_c, 0, 83, 37
2, 109710, Note_on_c, 0, 83, 0
2, 109710, Note_on_c, 0, 81, 0
2, 109710, Note_on_c, 0, 75, 22
2, 109740, Note_on_c, 0, 75, 0
2, 109740, Note_on_c, 0, 81, 38
2, 109740, Note_on_c, 0, 83, 38
2, 109769, Note_on_c, 0, 83, 0
2, 109769, Note_on_c, 0, 81, 0
2, 109769, Note_on_c, 0, 75, 22
2, 109800, Note_on_c, 0, 75, 0
2, 109800, Note_on_c, 0, 81, 36
2, 109800, Note_on_c, 0, 83, 36
2, 109830, Note_on_c, 0, 83, 0
2, 109830, Note_on_c, 0, 81, 0
2, 109830, Note_on_c, 0, 75, 24
2, 109859, Note_on_c, 0, 75, 0
2, 109859, Note_on_c, 0, 81, 37
2, 109859, Note_on_c, 0, 83, 37
2, 109890, Note_on_c, 0, 83, 0
2, 109890, Note_on_c, 0, 81, 0
2, 109890, Note_on_c, 0, 75, 21
2, 109920, Note_on_c, 0, 75, 0
2, 109920, Note_on_c, 0, 81, 38
2, 109920, Note_on_c, 0, 83, 38
2, 109949, Note_on_c, 0, 83, 0
2, 109949, Note_on_c, 0, 81, 0
2, 109949, Note_on_c, 0, 75, 19
2, 109980, Note_on_c, 0, 75, 0
2, 109980, Note_on_c, 0, 81, 45
2, 109980, Note_on_c, 0, 83, 45
2, 110010, Note_on_c, 0, 83, 0
2, 110010, Note_on_c, 0, 81, 0
2, 110010, Note_on_c, 0, 75, 27
2, 110039, Note_on_c, 0, 75, 0
2, 110039, Note_on_c, 0, 81, 39
2, 110039, Note_on_c, 0, 83, 39
2, 110070, Note_on_c, 0, 83, 0
2, 110070, Note_on_c, 0, 81, 0
2, 110070, Note_on_c, 0, 75, 18
2, 110100, Note_on_c, 0, 75, 0
2, 110100, Note_on_c, 0, 81, 36
2, 110100, Note_on_c, 0, 83, 36
2, 110129, Note_on_c, 0, 83, 0
2, 110129, Note_on_c, 0, 81, 0
2, 110129, Note_on_c, 0, 75, 16
2, 110160, Note_on_c, 0, 75, 0
2, 110160, Note_on_c, 0, 81, 38
2, 110160, Note_on_c, 0, 83, 38
2, 110190, Note_on_c, 0, 83, 0
2, 110190, Note_on_c, 0, 81, 0
2, 110190, Note_on_c, 0, 75, 21
2, 110219, Note_on_c, 0, 75, 0
2, 110219, Note_on_c, 0, 81, 34
2, 110219, Note_on_c, 0, 83, 34
2, 110250, Note_on_c, 0, 83, 0
2, 110250, Note_on_c, 0, 81, 0
2, 110250, Note_on_c, 0, 75, 23
2, 110280, Note_on_c, 0, 75, 0
2, 110280, Note_on_c, 0, 81, 39
2, 110280, Note_on_c, 0, 83, 39
2, 110309, Note_on_c, 0, 83, 0
2, 110309, Note_on_c, 0, 81, 0
2, 110309, Note_on_c, 0, 75, 21
2, 110340, Note_on_c, 0, 75, 0
2, 110340, Note_on_c, 0, 81, 42
2, 110340, Note_on_c, 0, 83, 42
2, 110370, Note_on_c, 0, 83, 0
2, 110370, Note_on_c, 0, 81, 0
2, 110370, Note_on_c, 0, 75, 20
2, 110399, Note_on_c, 0, 75, 0
2, 110399, Note_on_c, 0, 81, 41
2, 110399, Note_on_c, 0, 83, 41
2, 110430, Note_on_c, 0, 83, 0
2, 110430, Note_on_c, 0, 81, 0
2, 110430, Note_on_c, 0, 75, 21
2, 110460, Note_on_c, 0, 75, 0
2, 110460, Note_on_c, 0, 81, 39
2, 110460, Note_on_c, 0, 83, 39
2, 110489, Note_on_c, 0, 83, 0
2, 110489, Note_on_c, 0, 81, 0
2, 110489, Note_on_c, 0, 75, 19
2, 110520, Note_on_c, 0, 75, 0
2, 110520, Note_on_c, 0, 81, 41
2, 110520, Note_on_c, 0, 83, 41
2, 110550, Note_on_c, 0, 83, 0
2, 110550, Note_on_c, 0, 81, 0
2, 110550, Note_on_c, 0, 75, 20
2, 110579, Note_on_c, 0, 75, 0
2, 110579, Note_on_c, 0, 81, 39
2, 110579, Note_on_c, 0, 83, 39
2, 110610, Note_on_c, 0, 83, 0
2, 110610, Note_on_c, 0, 81, 0
2, 110610, Note_on_c, 0, 75, 21
2, 110640, Note_on_c, 0, 75, 0
2, 110640, Note_on_c, 0, 81, 42
2, 110640, Note_on_c, 0, 83, 42
2, 110669, Note_on_c, 0, 83, 0
2, 110669, Note_on_c, 0, 81, 0
2, 110669, Note_on_c, 0, 75, 23
2, 110700, Note_on_c, 0, 75, 0
2, 110700, Note_on_c, 0, 81, 35
2, 110700, Note_on_c, 0, 83, 35
2, 110700, Note_on_c, 0, 78, 67
2, 110730, Note_on_c, 0, 83, 0
2, 110730, Note_on_c, 0, 81, 0
2, 110730, Note_on_c, 0, 75, 21
2, 110759, Note_on_c, 0, 75, 0
2, 110759, Note_on_c, 0, 81, 39
2, 110759, Note_on_c, 0, 83, 39
2, 110790, Note_on_c, 0, 83, 0
2, 110790, Note_on_c, 0, 81, 0
2, 110790, Note_on_c, 0, 75, 17
2, 110820, Note_on_c, 0, 75, 0
2, 110820, Note_on_c, 0, 81, 32
2, 110820, Note_on_c, 0, 83, 32
2, 110849, Note_on_c, 0, 83, 0
2, 110849, Note_on_c, 0, 81, 0
2, 110849, Note_on_c, 0, 75, 17
2, 110880, Note_on_c, 0, 75, 0
2, 110880, Note_on_c, 0, 78, 0
2, 110880, Note_on_c, 0, 81, 36
2, 110880, Note_on_c, 0, 83, 36
2, 110880, Note_on_c, 0, 80, 82
2, 110910, Note_on_c, 0, 83, 0
2, 110910, Note_on_c, 0, 81, 0
2, 110910, Note_on_c, 0, 75, 20
2, 110939, Note_on_c, 0, 75, 0
2, 110939, Note_on_c, 0, 81, 39
2, 110939, Note_on_c, 0, 83, 39
2, 110970, Note_on_c, 0, 83, 0
2, 110970, Note_on_c, 0, 81, 0
2, 110970, Note_on_c, 0, 75, 21
2, 111000, Note_on_c, 0, 75, 0
2, 111000, Note_on_c, 0, 81, 37
2, 111000, Note_on_c, 0, 83, 37
2, 111029, Note_on_c, 0, 83, 0
2, 111029, Note_on_c, 0, 81, 0
2, 111029, Note_on_c, 0, 75, 20
2, 111060, Note_on_c, 0, 75, 0
2, 111060, Note_on_c, 0, 81, 40
2, 111060, Note_on_c, 0, 83, 40
2, 111090, Note_on_c, 0, 83, 0
2, 111090, Note_on_c, 0, 81, 0
2, 111090, Note_on_c, 0, 75, 18
2, 111119, Note_on_c, 0, 75, 0
2, 111119, Note_on_c, 0, 81, 38
2, 111119, Note_on_c, 0, 83, 38
2, 111150, Note_on_c, 0, 83, 0
2, 111150, Note_on_c, 0, 81, 0
2, 111150, Note_on_c, 0, 80, 0
2, 111150, Note_on_c, 0, 75, 22
2, 111150, Note_on_c, 0, 78, 70
2, 111180, Note_on_c, 0, 75, 0
2, 111180, Note_on_c, 0, 81, 42
2, 111180, Note_on_c, 0, 83, 42
2, 111209, Note_on_c, 0, 83, 0
2, 111209, Note_on_c, 0, 81, 0
2, 111209, Note_on_c, 0, 75, 23
2, 111240, Note_on_c, 0, 75, 0
2, 111240, Note_on_c, 0, 78, 0
2, 111240, Note_on_c, 0, 80, 39
2, 111240, Note_on_c, 0, 83, 39
2, 111240, Note_on_c, 0, 76, 71
2, 111270, Note_on_c, 0, 83, 0
2, 111270, Note_on_c, 0, 80, 0
2, 111270, Note_on_c, 0, 76, 25
2, 111299, Note_on_c, 0, 76, 0
2, 111299, Note_on_c, 0, 80, 40
2, 111299, Note_on_c, 0, 83, 40
2, 111330, Note_on_c, 0, 83, 0
2, 111330, Note_on_c, 0, 80, 0
2, 111330, Note_on_c, 0, 76, 22
2, 111360, Note_on_c, 0, 76, 0
2, 111360, Note_on_c, 0, 80, 38
2, 111360, Note_on_c, 0, 83, 38
2, 111389, Note_on_c, 0, 83, 0
2, 111389, Note_on_c, 0, 80, 0
2, 111389, Note_on_c, 0, 76, 23
2, 111420, Note_on_c, 0, 76, 0
2, 111420, Note_on_c, 0, 76, 0
2, 111420, Note_on_c, 0, 80, 35
2, 111420, Note_on_c, 0, 83, 35
2, 111450, Note_on_c, 0, 83, 0
2, 111450, Note_on_c, 0, 80, 0
2, 111450, Note_on_c, 0, 76, 24
2, 111479, Note_on_c, 0, 76, 0
2, 111479, Note_on_c, 0, 80, 38
2, 111479, Note_on_c, 0, 83, 38
2, 111510, Note_on_c, 0, 83, 0
2, 111510, Note_on_c, 0, 80, 0
2, 111510, Note_on_c, 0, 76, 22
2, 111540, Note_on_c, 0, 76, 0
2, 111540, Note_on_c, 0, 80, 40
2, 111540, Note_on_c, 0, 83, 40
2, 111569, Note_on_c, 0, 83, 0
2, 111569, Note_on_c, 0, 80, 0
2, 111569, Note_on_c, 0, 76, 22
2, 111600, Note_on_c, 0, 76, 0
2, 111600, Note_on_c, 0, 80, 41
2, 111600, Note_on_c, 0, 83, 41
2, 111630, Note_on_c, 0, 83, 0
2, 111630, Note_on_c, 0, 80, 0
2, 111630, Note_on_c, 0, 76, 25
2, 111659, Note_on_c, 0, 76, 0
2, 111659, Note_on_c, 0, 80, 39
2, 111659, Note_on_c, 0, 83, 39
2, 111690, Note_on_c, 0, 83, 0
2, 111690, Note_on_c, 0, 80, 0
2, 111690, Note_on_c, 0, 76, 19
2, 111720, Note_on_c, 0, 76, 0
2, 111720, Note_on_c, 0, 80, 40
2, 111720, Note_on_c, 0, 83, 40
2, 111749, Note_on_c, 0, 83, 0
2, 111749, Note_on_c, 0, 80, 0
2, 111749, Note_on_c, 0, 76, 22
2, 111780, Note_on_c, 0, 76, 0
2, 111780, Note_on_c, 0, 81, 38
2, 111780, Note_on_c, 0, 83, 38
2, 111810, Note_on_c, 0, 83, 0
2, 111810, Note_on_c, 0, 81, 0
2, 111810, Note_on_c, 0, 75, 27
2, 111839, Note_on_c, 0, 75, 0
2, 111839, Note_on_c, 0, 81, 40
2, 111839, Note_on_c, 0, 83, 40
2, 111870, Note_on_c, 0, 83, 0
2, 111870, Note_on_c, 0, 81, 0
2, 111870, Note_on_c, 0, 75, 22
2, 111900, Note_on_c, 0, 75, 0
2, 111900, Note_on_c, 0, 81, 37
2, 111900, Note_on_c, 0, 83, 37
2, 111929, Note_on_c, 0, 83, 0
2, 111929, Note_on_c, 0, 81, 0
2, 111929, Note_on_c, 0, 75, 23
2, 111960, Note_on_c, 0, 75, 0
2, 111960, Note_on_c, 0, 81, 37
2, 111960, Note_on_c, 0, 83, 37
2, 111990, Note_on_c, 0, 83, 0
2, 111990, Note_on_c, 0, 81, 0
2, 111990, Note_on_c, 0, 75, 24
2, 112019, Note_on_c, 0, 75, 0
2, 112019, Note_on_c, 0, 81, 41
2, 112019, Note_on_c, 0, 83, 41
2, 112050, Note_on_c, 0, 83, 0
2, 112050, Note_on_c, 0, 81, 0
2, 112050, Note_on_c, 0, 75, 26
2, 112080, Note_on_c, 0, 75, 0
2, 112080, Note_on_c, 0, 81, 43
2, 112080, Note_on_c, 0, 83, 43
2, 112109, Note_on_c, 0, 83, 0
2, 112109, Note_on_c, 0, 81, 0
2, 112109, Note_on_c, 0, 75, 25
2, 112140, Note_on_c, 0, 75, 0
2, 112140, Note_on_c, 0, 81, 43
2, 112140, Note_on_c, 0, 83, 43
2, 112170, Note_on_c, 0, 83, 0
2, 112170, Note_on_c, 0, 81, 0
2, 112170, Note_on_c, 0, 75, 21
2, 112199, Note_on_c, 0, 75, 0
2, 112199, Note_on_c, 0, 81, 40
2, 112199, Note_on_c, 0, 83, 40
2, 112230, Note_on_c, 0, 83, 0
2, 112230, Note_on_c, 0, 81, 0
2, 112230, Note_on_c, 0, 75, 21
2, 112260, Note_on_c, 0, 75, 0
2, 112260, Note_on_c, 0, 81, 36
2, 112260, Note_on_c, 0, 83, 36
2, 112289, Note_on_c, 0, 83, 0
2, 112289, Note_on_c, 0, 81, 0
2, 112289, Note_on_c, 0, 75, 21
2, 112320, Note_on_c, 0, 75, 0
2, 112320, Note_on_c, 0, 81, 37
2, 112320, Note_on_c, 0, 83, 37
2, 112350, Note_on_c, 0, 83, 0
2, 112350, Note_on_c, 0, 81, 0
2, 112350, Note_on_c, 0, 75, 23
2, 112379, Note_on_c, 0, 75, 0
2, 112379, Note_on_c, 0, 81, 38
2, 112379, Note_on_c, 0, 83, 38
2, 112410, Note_on_c, 0, 83, 0
2, 112410, Note_on_c, 0, 81, 0
2, 112410, Note_on_c, 0, 75, 22
2, 112440, Note_on_c, 0, 75, 0
2, 112440, Note_on_c, 0, 81, 42
2, 112440, Note_on_c, 0, 83, 42
2, 112469, Note_on_c, 0, 83, 0
2, 112469, Note_on_c, 0, 81, 0
2, 112469, Note_on_c, 0, 75, 25
2, 112500, Note_on_c, 0, 75, 0
2, 112500, Note_on_c, 0, 81, 41
2, 112500, Note_on_c, 0, 83, 41
2, 112530, Note_on_c, 0, 83, 0
2, 112530, Note_on_c, 0, 81, 0
2, 112530, Note_on_c, 0, 75, 22
2, 112559, Note_on_c, 0, 75, 0
2, 112559, Note_on_c, 0, 81, 39
2, 112559, Note_on_c, 0, 83, 39
2, 112590, Note_on_c, 0, 83, 0
2, 112590, Note_on_c, 0, 81, 0
2, 112590, Note_on_c, 0, 75, 19
2, 112620, Note_on_c, 0, 75, 0
2, 112620, Note_on_c, 0, 81, 41
2, 112620, Note_on_c, 0, 83, 41
2, 112649, Note_on_c, 0, 83, 0
2, 112649, Note_on_c, 0, 81, 0
2, 112649, Note_on_c, 0, 75, 21
2, 112680, Note_on_c, 0, 75, 0
2, 112680, Note_on_c, 0, 81, 38
2, 112680, Note_on_c, 0, 83, 38
2, 112710, Note_on_c, 0, 83, 0
2, 112710, Note_on_c, 0, 81, 0
2, 112710, Note_on_c, 0, 75, 18
2, 112739, Note_on_c, 0, 75, 0
2, 112739, Note_on_c, 0, 81, 36
2, 112739, Note_on_c, 0, 83, 36
2, 112770, Note_on_c, 0, 83, 0
2, 112770, Note_on_c, 0, 81, 0
2, 112770, Note_on_c, 0, 75, 21
2, 112800, Note_on_c, 0, 75, 0
2, 112800, Note_on_c, 0, 81, 39
2, 112800, Note_on_c, 0, 83, 39
2, 112829, Note_on_c, 0, 83, 0
2, 112829, Note_on_c, 0, 81, 0
2, 112829, Note_on_c, 0, 75, 22
2, 112860, Note_on_c, 0, 75, 0
2, 112860, Note_on_c, 0, 81, 37
2, 112860, Note_on_c, 0, 83, 37
2, 112860, Note_on_c, 0, 78, 67
2, 112890, Note_on_c, 0, 83, 0
2, 112890, Note_on_c, 0, 81, 0
2, 112890, Note_on_c, 0, 75, 20
2, 112919, Note_on_c, 0, 75, 0
2, 112919, Note_on_c, 0, 81, 39
2, 112919, Note_on_c, 0, 83, 39
2, 112950, Note_on_c, 0, 83, 0
2, 112950, Note_on_c, 0, 81, 0
2, 112950, Note_on_c, 0, 75, 21
2, 112980, Note_on_c, 0, 75, 0
2, 112980, Note_on_c, 0, 81, 40
2, 112980, Note_on_c, 0, 83, 40
2, 113009, Note_on_c, 0, 83, 0
2, 113009, Note_on_c, 0, 81, 0
2, 113009, Note_on_c, 0, 75, 18
2, 113040, Note_on_c, 0, 75, 0
2, 113040, Note_on_c, 0, 78, 0
2, 113040, Note_on_c, 0, 81, 38
2, 113040, Note_on_c, 0, 83, 38
2, 113040, Note_on_c, 0, 80, 82
2, 113070, Note_on_c, 0, 83, 0
2, 113070, Note_on_c, 0, 81, 0
2, 113070, Note_on_c, 0, 75, 21
2, 113099, Note_on_c, 0, 75, 0
2, 113099, Note_on_c, 0, 81, 34
2, 113099, Note_on_c, 0, 83, 34
2, 113130, Note_on_c, 0, 83, 0
2, 113130, Note_on_c, 0, 81, 0
2, 113130, Note_on_c, 0, 75, 24
2, 113160, Note_on_c, 0, 75, 0
2, 113160, Note_on_c, 0, 81, 39
2, 113160, Note_on_c, 0, 83, 39
2, 113189, Note_on_c, 0, 83, 0
2, 113189, Note_on_c, 0, 81, 0
2, 113189, Note_on_c, 0, 75, 18
2, 113220, Note_on_c, 0, 75, 0
2, 113220, Note_on_c, 0, 81, 39
2, 113220, Note_on_c, 0, 83, 39
2, 113250, Note_on_c, 0, 83, 0
2, 113250, Note_on_c, 0, 81, 0
2, 113250, Note_on_c, 0, 75, 20
2, 113279, Note_on_c, 0, 75, 0
2, 113279, Note_on_c, 0, 81, 42
2, 113279, Note_on_c, 0, 83, 42
2, 113310, Note_on_c, 0, 83, 0
2, 113310, Note_on_c, 0, 81, 0
2, 113310, Note_on_c, 0, 80, 0
2, 113310, Note_on_c, 0, 75, 21
2, 113310, Note_on_c, 0, 78, 69
2, 113340, Note_on_c, 0, 75, 0
2, 113340, Note_on_c, 0, 81, 41
2, 113340, Note_on_c, 0, 83, 41
2, 113369, Note_on_c, 0, 83, 0
2, 113369, Note_on_c, 0, 81, 0
2, 113369, Note_on_c, 0, 75, 23
2, 113400, Note_on_c, 0, 75, 0
2, 113400, Note_on_c, 0, 78, 0
2, 113400, Note_on_c, 0, 80, 40
2, 113400, Note_on_c, 0, 83, 40
2, 113400, Note_on_c, 0, 76, 71
2, 113430, Note_on_c, 0, 83, 0
2, 113430, Note_on_c, 0, 80, 0
2, 113430, Note_on_c, 0, 76, 20
2, 113459, Note_on_c, 0, 76, 0
2, 113459, Note_on_c, 0, 80, 37
2, 113459, Note_on_c, 0, 83, 37
2, 113490, Note_on_c, 0, 83, 0
2, 113490, Note_on_c, 0, 80, 0
2, 113490, Note_on_c, 0, 76, 19
2, 113520, Note_on_c, 0, 76, 0
2, 113520, Note_on_c, 0, 80, 45
2, 113520, Note_on_c, 0, 83, 45
2, 113549, Note_on_c, 0, 83, 0
2, 113549, Note_on_c, 0, 80, 0
2, 113549, Note_on_c, 0, 76, 24
2, 113580, Note_on_c, 0, 76, 0
2, 113580, Note_on_c, 0, 76, 0
2, 113580, Note_on_c, 0, 80, 41
2, 113580, Note_on_c, 0, 83, 41
2, 113610, Note_on_c, 0, 83, 0
2, 113610, Note_on_c, 0, 80, 0
2, 113610, Note_on_c, 0, 76, 22
2, 113639, Note_on_c, 0, 76, 0
2, 113639, Note_on_c, 0, 80, 39
2, 113639, Note_on_c, 0, 83, 39
2, 113670, Note_on_c, 0, 83, 0
2, 113670, Note_on_c, 0, 80, 0
2, 113670, Note_on_c, 0, 76, 22
2, 113700, Note_on_c, 0, 76, 0
2, 113700, Note_on_c, 0, 80, 35
2, 113700, Note_on_c, 0, 83, 35
2, 113729, Note_on_c, 0, 83, 0
2, 113729, Note_on_c, 0, 80, 0
2, 113729, Note_on_c, 0, 76, 25
2, 113760, Note_on_c, 0, 76, 0
2, 113760, Note_on_c, 0, 80, 37
2, 113760, Note_on_c, 0, 83, 37
2, 113790, Note_on_c, 0, 83, 0
2, 113790, Note_on_c, 0, 80, 0
2, 113790, Note_on_c, 0, 76, 19
2, 113819, Note_on_c, 0, 76, 0
2, 113819, Note_on_c, 0, 80, 40
2, 113819, Note_on_c, 0, 83, 40
2, 113850, Note_on_c, 0, 83, 0
2, 113850, Note_on_c, 0, 80, 0
2, 113850, Note_on_c, 0, 76, 24
2, 113880, Note_on_c, 0, 76, 0
2, 113880, Note_on_c, 0, 80, 39
2, 113880, Note_on_c, 0, 83, 39
2, 113909, Note_on_c, 0, 83, 0
2, 113909, Note_on_c, 0, 80, 0
2, 113909, Note_on_c, 0, 76, 24
2, 113940, Note_on_c, 0, 76, 0
2, 113940, Note_on_c, 0, 81, 38
2, 113940, Note_on_c, 0, 83, 38
2, 113970, Note_on_c, 0, 83, 0
2, 113970, Note_on_c, 0, 81, 0
2, 113970, Note_on_c, 0, 75, 24
2, 113999, Note_on_c, 0, 75, 0
2, 113999, Note_on_c, 0, 81, 42
2, 113999, Note_on_c, 0, 83, 42
2, 114030, Note_on_c, 0, 83, 0
2, 114030, Note_on_c, 0, 81, 0
2, 114030, Note_on_c, 0, 75, 19
2, 114060, Note_on_c, 0, 75, 0
2, 114060, Note_on_c, 0, 81, 39
2, 114060, Note_on_c, 0, 83, 39
2, 114089, Note_on_c, 0, 83, 0
2, 114089, Note_on_c, 0, 81, 0
2, 114089, Note_on_c, 0, 75, 19
2, 114120, Note_on_c, 0, 75, 0
2, 114120, Note_on_c, 0, 81, 35
2, 114120, Note_on_c, 0, 83, 35
2, 114150, Note_on_c, 0, 83, 0
2, 114150, Note_on_c, 0, 81, 0
2, 114150, Note_on_c, 0, 75, 19
2, 114179, Note_on_c, 0, 75, 0
2, 114179, Note_on_c, 0, 81, 40
2, 114179, Note_on_c, 0, 83, 40
2, 114210, Note_on_c, 0, 83, 0
2, 114210, Note_on_c, 0, 81, 0
2, 114210, Note_on_c, 0, 75, 22
2, 114240, Note_on_c, 0, 75, 0
2, 114240, Note_on_c, 0, 81, 40
2, 114240, Note_on_c, 0, 83, 40
2, 114269, Note_on_c, 0, 83, 0
2, 114269, Note_on_c, 0, 81, 0
2, 114269, Note_on_c, 0, 75, 23
2, 114300, Note_on_c, 0, 75, 0
2, 114300, Note_on_c, 0, 81, 35
2, 114300, Note_on_c, 0, 83, 35
2, 114330, Note_on_c, 0, 83, 0
2, 114330, Note_on_c, 0, 81, 0
2, 114330, Note_on_c, 0, 75, 26
2, 114359, Note_on_c, 0, 75, 0
2, 114359, Note_on_c, 0, 81, 39
2, 114359, Note_on_c, 0, 83, 39
2, 114390, Note_on_c, 0, 83, 0
2, 114390, Note_on_c, 0, 81, 0
2, 114390, Note_on_c, 0, 75, 22
2, 114420, Note_on_c, 0, 75, 0
2, 114420, Note_on_c, 0, 81, 41
2, 114420, Note_on_c, 0, 83, 41
2, 114449, Note_on_c, 0, 83, 0
2, 114449, Note_on_c, 0, 81, 0
2, 114449, Note_on_c, 0, 75, 22
2, 114480, Note_on_c, 0, 75, 0
2, 114480, Note_on_c, 0, 80, 38
2, 114480, Note_on_c, 0, 83, 38
2, 114510, Note_on_c, 0, 83, 0
2, 114510, Note_on_c, 0, 80, 0
2, 114510, Note_on_c, 0, 76, 22
2, 114539, Note_on_c, 0, 76, 0
2, 114539, Note_on_c, 0, 80, 39
2, 114539, Note_on_c, 0, 83, 39
2, 114570, Note_on_c, 0, 83, 0
2, 114570, Note_on_c, 0, 80, 0
2, 114570, Note_on_c, 0, 76, 20
2, 114600, Note_on_c, 0, 76, 0
2, 114600, Note_on_c, 0, 80, 35
2, 114600, Note_on_c, 0, 83, 35
2, 114629, Note_on_c, 0, 83, 0
2, 114629, Note_on_c, 0, 80, 0
2, 114629, Note_on_c, 0, 76, 22
2, 114660, Note_on_c, 0, 76, 0
2, 114660, Note_on_c, 0, 80, 42
2, 114660, Note_on_c, 0, 83, 42
2, 114690, Note_on_c, 0, 83, 0
2, 114690, Note_on_c, 0, 80, 0
2, 114690, Note_on_c, 0, 76, 23
2, 114719, Note_on_c, 0, 76, 0
2, 114719, Note_on_c, 0, 80, 42
2, 114719, Note_on_c, 0, 83, 42
2, 114750, Note_on_c, 0, 83, 0
2, 114750, Note_on_c, 0, 80, 0
2, 114750, Note_on_c, 0, 76, 23
2, 114780, Note_on_c, 0, 76, 0
2, 114780, Note_on_c, 0, 80, 41
2, 114780, Note_on_c, 0, 83, 41
2, 114809, Note_on_c, 0, 83, 0
2, 114809, Note_on_c, 0, 80, 0
2, 114809, Note_on_c, 0, 76, 20
2, 114840, Note_on_c, 0, 76, 0
2, 114840, Note_on_c, 0, 80, 38
2, 114840, Note_on_c, 0, 83, 38
2, 114870, Note_on_c, 0, 83, 0
2, 114870, Note_on_c, 0, 80, 0
2, 114870, Note_on_c, 0, 76, 23
2, 114899, Note_on_c, 0, 76, 0
2, 114899, Note_on_c, 0, 80, 41
2, 114899, Note_on_c, 0, 83, 41
2, 114930, Note_on_c, 0, 83, 0
2, 114930, Note_on_c, 0, 80, 0
2, 114930, Note_on_c, 0, 76, 26
2, 114960, Note_on_c, 0, 76, 0
2, 114960, Note_on_c, 0, 80, 33
2, 114960, Note_on_c, 0, 83, 33
2, 114989, Note_on_c, 0, 83, 0
2, 114989, Note_on_c, 0, 80, 0
2, 114989, Note_on_c, 0, 76, 20
2, 115020, Note_on_c, 0, 76, 0
2, 115020, Note_on_c, 0, 81, 38
2, 115020, Note_on_c, 0, 83, 38
2, 115050, Note_on_c, 0, 83, 0
2, 115050, Note_on_c, 0, 81, 0
2, 115050, Note_on_c, 0, 75, 24
2, 115079, Note_on_c, 0, 75, 0
2, 115079, Note_on_c, 0, 81, 43
2, 115079, Note_on_c, 0, 83, 43
2, 115110, Note_on_c, 0, 83, 0
2, 115110, Note_on_c, 0, 81, 0
2, 115110, Note_on_c, 0, 75, 23
2, 115140, Note_on_c, 0, 75, 0
2, 115140, Note_on_c, 0, 81, 42
2, 115140, Note_on_c, 0, 83, 42
2, 115169, Note_on_c, 0, 83, 0
2, 115169, Note_on_c, 0, 81, 0
2, 115169, Note_on_c, 0, 75, 21
2, 115200, Note_on_c, 0, 75, 0
2, 115200, Note_on_c, 0, 81, 37
2, 115200, Note_on_c, 0, 83, 37
2, 115230, Note_on_c, 0, 83, 0
2, 115230, Note_on_c, 0, 81, 0
2, 115230, Note_on_c, 0, 75, 30
2, 115259, Note_on_c, 0, 75, 0
2, 115259, Note_on_c, 0, 81, 38
2, 115259, Note_on_c, 0, 83, 38
2, 115290, Note_on_c, 0, 83, 0
2, 115290, Note_on_c, 0, 81, 0
2, 115290, Note_on_c, 0, 75, 19
2, 115320, Note_on_c, 0, 75, 0
2, 115320, Note_on_c, 0, 81, 39
2, 115320, Note_on_c, 0, 83, 39
2, 115349, Note_on_c, 0, 83, 0
2, 115349, Note_on_c, 0, 81, 0
2, 115349, Note_on_c, 0, 75, 22
2, 115380, Note_on_c, 0, 75, 0
2, 115380, Note_on_c, 0, 81, 38
2, 115380, Note_on_c, 0, 83, 38
2, 115410, Note_on_c, 0, 83, 0
2, 115410, Note_on_c, 0, 81, 0
2, 115410, Note_on_c, 0, 75, 22
2, 115439, Note_on_c, 0, 75, 0
2, 115439, Note_on_c, 0, 81, 38
2, 115439, Note_on_c, 0, 83, 38
2, 115470, Note_on_c, 0, 83, 0
2, 115470, Note_on_c, 0, 81, 0
2, 115470, Note_on_c, 0, 75, 23
2, 115500, Note_on_c, 0, 75, 0
2, 115500, Note_on_c, 0, 81, 38
2, 115500, Note_on_c, 0, 83, 38
2, 115529, Note_on_c, 0, 83, 0
2, 115529, Note_on_c, 0, 81, 0
2, 115529, Note_on_c, 0, 75, 18
2, 115560, Note_on_c, 0, 75, 0
2, 115560, Note_on_c, 0, 80, 36
2, 115560, Note_on_c, 0, 83, 36
2, 115590, Note_on_c, 0, 83, 0
2, 115590, Note_on_c, 0, 80, 0
2, 115590, Note_on_c, 0, 76, 18
2, 115619, Note_on_c, 0, 76, 0
2, 115619, Note_on_c, 0, 80, 39
2, 115619, Note_on_c, 0, 83, 39
2, 115650, Note_on_c, 0, 83, 0
2, 115650, Note_on_c, 0, 80, 0
2, 115650, Note_on_c, 0, 76, 20
2, 115680, Note_on_c, 0, 76, 0
2, 115680, Note_on_c, 0, 80, 40
2, 115680, Note_on_c, 0, 83, 40
2, 115709, Note_on_c, 0, 83, 0
2, 115709, Note_on_c, 0, 80, 0
2, 115709, Note_on_c, 0, 76, 19
2, 115740, Note_on_c, 0, 76, 0
2, 115740, Note_on_c, 0, 80, 38
2, 115740, Note_on_c, 0, 83, 38
2, 115770, Note_on_c, 0, 83, 0
2, 115770, Note_on_c, 0, 80, 0
2, 115770, Note_on_c, 0, 76, 25
2, 115799, Note_on_c, 0, 76, 0
2, 115799, Note_on_c, 0, 80, 38
2, 115799, Note_on_c, 0, 83, 38
2, 115830, Note_on_c, 0, 83, 0
2, 115830, Note_on_c, 0, 80, 0
2, 115830, Note_on_c, 0, 76, 22
2, 115860, Note_on_c, 0, 76, 0
2, 115860, Note_on_c, 0, 80, 37
2, 115860, Note_on_c, 0, 83, 37
2, 115889, Note_on_c, 0, 83, 0
2, 115889, Note_on_c, 0, 80, 0
2, 115889, Note_on_c, 0, 76, 18
2, 115920, Note_on_c, 0, 76, 0
2, 115920, Note_on_c, 0, 80, 38
2, 115920, Note_on_c, 0, 83, 38
2, 115950, Note_on_c, 0, 83, 0
2, 115950, Note_on_c, 0, 80, 0
2, 115950, Note_on_c, 0, 76, 22
2, 115979, Note_on_c, 0, 76, 0
2, 115979, Note_on_c, 0, 80, 38
2, 115979, Note_on_c, 0, 83, 38
2, 116010, Note_on_c, 0, 83, 0
2, 116010, Note_on_c, 0, 80, 0
2, 116010, Note_on_c, 0, 76, 22
2, 116040, Note_on_c, 0, 76, 0
2, 116040, Note_on_c, 0, 80, 33
2, 116040, Note_on_c, 0, 83, 33
2, 116069, Note_on_c, 0, 83, 0
2, 116069, Note_on_c, 0, 80, 0
2, 116069, Note_on_c, 0, 76, 25
2, 116100, Note_on_c, 0, 76, 0
2, 116100, Note_on_c, 0, 81, 41
2, 116100, Note_on_c, 0, 83, 41
2, 116130, Note_on_c, 0, 83, 0
2, 116130, Note_on_c, 0, 81, 0
2, 116130, Note_on_c, 0, 75, 22
2, 116159, Note_on_c, 0, 75, 0
2, 116159, Note_on_c, 0, 81, 40
2, 116159, Note_on_c, 0, 83, 40
2, 116190, Note_on_c, 0, 83, 0
2, 116190, Note_on_c, 0, 81, 0
2, 116190, Note_on_c, 0, 75, 19
2, 116220, Note_on_c, 0, 75, 0
2, 116220, Note_on_c, 0, 81, 35
2, 116220, Note_on_c, 0, 83, 35
2, 116249, Note_on_c, 0, 83, 0
2, 116249, Note_on_c, 0, 81, 0
2, 116249, Note_on_c, 0, 75, 20
2, 116280, Note_on_c, 0, 75, 0
2, 116280, Note_on_c, 0, 81, 37
2, 116280, Note_on_c, 0, 83, 37
2, 116310, Note_on_c, 0, 83, 0
2, 116310, Note_on_c, 0, 81, 0
2, 116310, Note_on_c, 0, 75, 20
2, 116339, Note_on_c, 0, 75, 0
2, 116339, Note_on_c, 0, 81, 35
2, 116339, Note_on_c, 0, 83, 35
2, 116370, Note_on_c, 0, 83, 0
2, 116370, Note_on_c, 0, 81, 0
2, 116370, Note_on_c, 0, 75, 20
2, 116400, Note_on_c, 0, 75, 0
2, 116400, Note_on_c, 0, 81, 42
2, 116400, Note_on_c, 0, 83, 42
2, 116429, Note_on_c, 0, 83, 0
2, 116429, Note_on_c, 0, 81, 0
2, 116429, Note_on_c, 0, 75, 24
2, 116460, Note_on_c, 0, 75, 0
2, 116460, Note_on_c, 0, 81, 37
2, 116460, Note_on_c, 0, 83, 37
2, 116490, Note_on_c, 0, 83, 0
2, 116490, Note_on_c, 0, 81, 0
2, 116490, Note_on_c, 0, 75, 20
2, 116519, Note_on_c, 0, 75, 0
2, 116519, Note_on_c, 0, 81, 34
2, 116519, Note_on_c, 0, 83, 34
2, 116550, Note_on_c, 0, 83, 0
2, 116550, Note_on_c, 0, 81, 0
2, 116550, Note_on_c, 0, 75, 23
2, 116580, Note_on_c, 0, 75, 0
2, 116580, Note_on_c, 0, 81, 35
2, 116580, Note_on_c, 0, 83, 35
2, 116609, Note_on_c, 0, 83, 0
2, 116609, Note_on_c, 0, 81, 0
2, 116609, Note_on_c, 0, 75, 19
2, 116640, Note_on_c, 0, 75, 0
2, 116640, Note_on_c, 0, 80, 38
2, 116640, Note_on_c, 0, 83, 38
2, 116670, Note_on_c, 0, 83, 0
2, 116670, Note_on_c, 0, 80, 0
2, 116670, Note_on_c, 0, 76, 22
2, 116699, Note_on_c, 0, 76, 0
2, 116699, Note_on_c, 0, 80, 36
2, 116699, Note_on_c, 0, 83, 36
2, 116730, Note_on_c, 0, 83, 0
2, 116730, Note_on_c, 0, 80, 0
2, 116730, Note_on_c, 0, 76, 23
2, 116760, Note_on_c, 0, 76, 0
2, 116760, Note_on_c, 0, 80, 39
2, 116760, Note_on_c, 0, 83, 39
2, 116789, Note_on_c, 0, 83, 0
2, 116789, Note_on_c, 0, 80, 0
2, 116789, Note_on_c, 0, 76, 18
2, 116820, Note_on_c, 0, 76, 0
2, 116820, Note_on_c, 0, 80, 38
2, 116820, Note_on_c, 0, 83, 38
2, 116850, Note_on_c, 0, 83, 0
2, 116850, Note_on_c, 0, 80, 0
2, 116850, Note_on_c, 0, 76, 23
2, 116879, Note_on_c, 0, 76, 0
2, 116879, Note_on_c, 0, 80, 37
2, 116879, Note_on_c, 0, 83, 37
2, 116910, Note_on_c, 0, 83, 0
2, 116910, Note_on_c, 0, 80, 0
2, 116910, Note_on_c, 0, 76, 23
2, 116940, Note_on_c, 0, 76, 0
2, 116940, Note_on_c, 0, 80, 38
2, 116940, Note_on_c, 0, 83, 38
2, 116969, Note_on_c, 0, 83, 0
2, 116969, Note_on_c, 0, 80, 0
2, 116969, Note_on_c, 0, 76, 20
2, 117000, Note_on_c, 0, 76, 0
2, 117000, Note_on_c, 0, 80, 40
2, 117000, Note_on_c, 0, 83, 40
2, 117030, Note_on_c, 0, 83, 0
2, 117030, Note_on_c, 0, 80, 0
2, 117030, Note_on_c, 0, 76, 25
2, 117059, Note_on_c, 0, 76, 0
2, 117059, Note_on_c, 0, 80, 38
2, 117059, Note_on_c, 0, 83, 38
2, 117090, Note_on_c, 0, 83, 0
2, 117090, Note_on_c, 0, 80, 0
2, 117090, Note_on_c, 0, 76, 21
2, 117120, Note_on_c, 0, 76, 0
2, 117120, Note_on_c, 0, 80, 36
2, 117120, Note_on_c, 0, 83, 36
2, 117149, Note_on_c, 0, 83, 0
2, 117149, Note_on_c, 0, 80, 0
2, 117149, Note_on_c, 0, 76, 18
2, 117180, Note_on_c, 0, 76, 0
2, 117180, Note_on_c, 0, 81, 37
2, 117180, Note_on_c, 0, 83, 37
2, 117210, Note_on_c, 0, 83, 0
2, 117210, Note_on_c, 0, 81, 0
2, 117210, Note_on_c, 0, 75, 21
2, 117239, Note_on_c, 0, 75, 0
2, 117239, Note_on_c, 0, 81, 35
2, 117239, Note_on_c, 0, 83, 35
2, 117270, Note_on_c, 0, 83, 0
2, 117270, Note_on_c, 0, 81, 0
2, 117270, Note_on_c, 0, 75, 23
2, 117300, Note_on_c, 0, 75, 0
2, 117300, Note_on_c, 0, 81, 41
2, 117300, Note_on_c, 0, 83, 41
2, 117329, Note_on_c, 0, 83, 0
2, 117329, Note_on_c, 0, 81, 0
2, 117329, Note_on_c, 0, 75, 22
2, 117360, Note_on_c, 0, 75, 0
2, 117360, Note_on_c, 0, 81, 36
2, 117360, Note_on_c, 0, 83, 36
2, 117390, Note_on_c, 0, 83, 0
2, 117390, Note_on_c, 0, 81, 0
2, 117390, Note_on_c, 0, 75, 25
2, 117419, Note_on_c, 0, 75, 0
2, 117419, Note_on_c, 0, 81, 41
2, 117419, Note_on_c, 0, 83, 41
2, 117450, Note_on_c, 0, 83, 0
2, 117450, Note_on_c, 0, 81, 0
2, 117450, Note_on_c, 0, 75, 18
2, 117480, Note_on_c, 0, 75, 0
2, 117480, Note_on_c, 0, 81, 41
2, 117480, Note_on_c, 0, 83, 41
2, 117509, Note_on_c, 0, 83, 0
2, 117509, Note_on_c, 0, 81, 0
2, 117509, Note_on_c, 0, 75, 25
2, 117540, Note_on_c, 0, 75, 0
2, 117540, Note_on_c, 0, 81, 41
2, 117540, Note_on_c, 0, 83, 41
2, 117570, Note_on_c, 0, 83, 0
2, 117570, Note_on_c, 0, 81, 0
2, 117570, Note_on_c, 0, 75, 19
2, 117599, Note_on_c, 0, 75, 0
2, 117599, Note_on_c, 0, 81, 37
2, 117599, Note_on_c, 0, 83, 37
2, 117630, Note_on_c, 0, 83, 0
2, 117630, Note_on_c, 0, 81, 0
2, 117630, Note_on_c, 0, 75, 24
2, 117660, Note_on_c, 0, 75, 0
2, 117660, Note_on_c, 0, 81, 39
2, 117660, Note_on_c, 0, 83, 39
2, 117689, Note_on_c, 0, 83, 0
2, 117689, Note_on_c, 0, 81, 0
2, 117689, Note_on_c, 0, 75, 25
2, 117720, Note_on_c, 0, 75, 0
2, 117720, Note_on_c, 0, 80, 32
2, 117720, Note_on_c, 0, 83, 32
2, 117750, Note_on_c, 0, 83, 0
2, 117750, Note_on_c, 0, 80, 0
2, 117750, Note_on_c, 0, 76, 24
2, 117779, Note_on_c, 0, 76, 0
2, 117779, Note_on_c, 0, 80, 38
2, 117779, Note_on_c, 0, 83, 38
2, 117810, Note_on_c, 0, 83, 0
2, 117810, Note_on_c, 0, 80, 0
2, 117810, Note_on_c, 0, 76, 25
2, 117840, Note_on_c, 0, 76, 0
2, 117840, Note_on_c, 0, 80, 39
2, 117840, Note_on_c, 0, 83, 39
2, 117869, Note_on_c, 0, 83, 0
2, 117869, Note_on_c, 0, 80, 0
2, 117869, Note_on_c, 0, 76, 21
2, 117900, Note_on_c, 0, 76, 0
2, 117900, Note_on_c, 0, 80, 40
2, 117900, Note_on_c, 0, 83, 40
2, 117930, Note_on_c, 0, 83, 0
2, 117930, Note_on_c, 0, 80, 0
2, 117930, Note_on_c, 0, 76, 21
2, 117959, Note_on_c, 0, 76, 0
2, 117959, Note_on_c, 0, 80, 38
2, 117959, Note_on_c, 0, 83, 38
2, 117990, Note_on_c, 0, 83, 0
2, 117990, Note_on_c, 0, 80, 0
2, 117990, Note_on_c, 0, 76, 25
2, 118020, Note_on_c, 0, 76, 0
2, 118020, Note_on_c, 0, 80, 38
2, 118020, Note_on_c, 0, 83, 38
2, 118049, Note_on_c, 0, 83, 0
2, 118049, Note_on_c, 0, 80, 0
2, 118049, Note_on_c, 0, 76, 24
2, 118080, Note_on_c, 0, 76, 0
2, 118080, Note_on_c, 0, 80, 38
2, 118080, Note_on_c, 0, 83, 38
2, 118110, Note_on_c, 0, 83, 0
2, 118110, Note_on_c, 0, 80, 0
2, 118110, Note_on_c, 0, 76, 17
2, 118139, Note_on_c, 0, 76, 0
2, 118139, Note_on_c, 0, 80, 37
2, 118139, Note_on_c, 0, 83, 37
2, 118170, Note_on_c, 0, 83, 0
2, 118170, Note_on_c, 0, 80, 0
2, 118170, Note_on_c, 0, 76, 24
2, 118200, Note_on_c, 0, 76, 0
2, 118200, Note_on_c, 0, 80, 37
2, 118200, Note_on_c, 0, 83, 37
2, 118229, Note_on_c, 0, 83, 0
2, 118229, Note_on_c, 0, 80, 0
2, 118229, Note_on_c, 0, 76, 23
2, 118260, Note_on_c, 0, 76, 0
2, 118260, Note_on_c, 0, 80, 40
2, 118260, Note_on_c, 0, 83, 40
2, 118290, Note_on_c, 0, 83, 0
2, 118290, Note_on_c, 0, 80, 0
2, 118290, Note_on_c, 0, 76, 22
2, 118319, Note_on_c, 0, 76, 0
2, 118319, Note_on_c, 0, 80, 38
2, 118319, Note_on_c, 0, 83, 38
2, 118350, Note_on_c, 0, 83, 0
2, 118350, Note_on_c, 0, 80, 0
2, 118350, Note_on_c, 0, 76, 20
2, 118380, Note_on_c, 0, 76, 0
2, 118380, Note_on_c, 0, 80, 37
2, 118380, Note_on_c, 0, 83, 37
2, 118409, Note_on_c, 0, 83, 0
2, 118409, Note_on_c, 0, 80, 0
2, 118409, Note_on_c, 0, 76, 19
2, 118440, Note_on_c, 0, 76, 0
2, 118440, Note_on_c, 0, 80, 35
2, 118440, Note_on_c, 0, 83, 35
2, 118470, Note_on_c, 0, 83, 0
2, 118470, Note_on_c, 0, 80, 0
2, 118470, Note_on_c, 0, 76, 25
2, 118499, Note_on_c, 0, 76, 0
2, 118499, Note_on_c, 0, 80, 38
2, 118499, Note_on_c, 0, 83, 38
2, 118530, Note_on_c, 0, 83, 0
2, 118530, Note_on_c, 0, 80, 0
2, 118530, Note_on_c, 0, 76, 25
2, 118560, Note_on_c, 0, 76, 0
2, 118560, Note_on_c, 0, 80, 36
2, 118560, Note_on_c, 0, 83, 36
2, 118589, Note_on_c, 0, 83, 0
2, 118589, Note_on_c, 0, 80, 0
2, 118589, Note_on_c, 0, 76, 23
2, 118620, Note_on_c, 0, 76, 0
2, 118620, Note_on_c, 0, 83, 33
2, 118650, Note_on_c, 0, 83, 0
2, 118650, Note_on_c, 0, 80, 27
2, 118679, Note_on_c, 0, 80, 0
2, 118679, Note_on_c, 0, 83, 34
2, 118710, Note_on_c, 0, 83, 0
2, 118710, Note_on_c, 0, 80, 22
2, 118740, Note_on_c, 0, 80, 0
2, 118740, Note_on_c, 0, 83, 30
2, 118769, Note_on_c, 0, 83, 0
2, 118769, Note_on_c, 0, 80, 25
2, 118800, Note_on_c, 0, 80, 0
2, 118800, Note_on_c, 0, 83, 36
2, 118830, Note_on_c, 0, 83, 0
2, 118830, Note_on_c, 0, 80, 31
2, 118859, Note_on_c, 0, 80, 0
2, 118859, Note_on_c, 0, 83, 34
2, 118890, Note_on_c, 0, 83, 0
2, 118890, Note_on_c, 0, 80, 24
2, 118920, Note_on_c, 0, 80, 0
2, 118920, Note_on_c, 0, 83, 36
2, 118949, Note_on_c, 0, 83, 0
2, 118949, Note_on_c, 0, 80, 27
2, 118980, Note_on_c, 0, 80, 0
2, 118980, Note_on_c, 0, 80, 64
2, 118980, Note_on_c, 0, 76, 25
2, 119010, Note_on_c, 0, 76, 0
2, 119010, Note_on_c, 0, 83, 39
2, 119039, Note_on_c, 0, 83, 0
2, 119039, Note_on_c, 0, 76, 22
2, 119070, Note_on_c, 0, 76, 0
2, 119070, Note_on_c, 0, 83, 36
2, 119100, Note_on_c, 0, 83, 0
2, 119100, Note_on_c, 0, 76, 25
2, 119129, Note_on_c, 0, 76, 0
2, 119129, Note_on_c, 0, 83, 42
2, 119160, Note_on_c, 0, 83, 0
2, 119160, Note_on_c, 0, 80, 0
2, 119160, Note_on_c, 0, 83, 71
2, 119160, Note_on_c, 0, 76, 24
2, 119190, Note_on_c, 0, 76, 0
2, 119190, Note_on_c, 0, 80, 31
2, 119219, Note_on_c, 0, 80, 0
2, 119219, Note_on_c, 0, 76, 25
2, 119250, Note_on_c, 0, 76, 0
2, 119250, Note_on_c, 0, 80, 34
2, 119280, Note_on_c, 0, 80, 0
2, 119280, Note_on_c, 0, 76, 25
2, 119309, Note_on_c, 0, 76, 0
2, 119309, Note_on_c, 0, 80, 33
2, 119340, Note_on_c, 0, 80, 0
2, 119340, Note_on_c, 0, 83, 0
2, 119340, Note_on_c, 0, 85, 65
2, 119340, Note_on_c, 0, 76, 27
2, 119370, Note_on_c, 0, 76, 0
2, 119370, Note_on_c, 0, 80, 28
2, 119399, Note_on_c, 0, 80, 0
2, 119399, Note_on_c, 0, 76, 27
2, 119430, Note_on_c, 0, 76, 0
2, 119430, Note_on_c, 0, 80, 33
2, 119460, Note_on_c, 0, 80, 0
2, 119460, Note_on_c, 0, 76, 26
2, 119489, Note_on_c, 0, 76, 0
2, 119489, Note_on_c, 0, 80, 35
2, 119520, Note_on_c, 0, 80, 0
2, 119520, Note_on_c, 0, 85, 0
2, 119520, Note_on_c, 0, 83, 58
2, 119520, Note_on_c, 0, 76, 26
2, 119550, Note_on_c, 0, 76, 0
2, 119550, Note_on_c, 0, 80, 32
2, 119579, Note_on_c, 0, 80, 0
2, 119579, Note_on_c, 0, 76, 26
2, 119610, Note_on_c, 0, 76, 0
2, 119610, Note_on_c, 0, 80, 38
2, 119640, Note_on_c, 0, 80, 0
2, 119640, Note_on_c, 0, 76, 26
2, 119669, Note_on_c, 0, 76, 0
2, 119669, Note_on_c, 0, 80, 35
2, 119700, Note_on_c, 0, 80, 0
2, 119700, Note_on_c, 0, 83, 0
2, 119700, Note_on_c, 0, 85, 65
2, 119700, Note_on_c, 0, 76, 23
2, 119730, Note_on_c, 0, 76, 0
2, 119730, Note_on_c, 0, 80, 34
2, 119759, Note_on_c, 0, 80, 0
2, 119759, Note_on_c, 0, 76, 23
2, 119790, Note_on_c, 0, 76, 0
2, 119790, Note_on_c, 0, 80, 37
2, 119820, Note_on_c, 0, 80, 0
2, 119820, Note_on_c, 0, 76, 30
2, 119849, Note_on_c, 0, 76, 0
2, 119849, Note_on_c, 0, 80, 34
2, 119880, Note_on_c, 0, 80, 0
2, 119880, Note_on_c, 0, 85, 0
2, 119880, Note_on_c, 0, 88, 63
2, 119880, Note_on_c, 0, 76, 35
2, 119880, Note_on_c, 0, 80, 35
2, 119910, Note_on_c, 0, 80, 0
2, 119910, Note_on_c, 0, 76, 0
2, 119910, Note_on_c, 0, 83, 38
2, 119939, Note_on_c, 0, 83, 0
2, 119939, Note_on_c, 0, 76, 27
2, 119939, Note_on_c, 0, 80, 27
2, 119970, Note_on_c, 0, 80, 0
2, 119970, Note_on_c, 0, 76, 0
2, 119970, Note_on_c, 0, 83, 37
2, 120000, Note_on_c, 0, 83, 0
2, 120000, Note_on_c, 0, 76, 22
2, 120000, Note_on_c, 0, 80, 22
2, 120029, Note_on_c, 0, 80, 0
2, 120029, Note_on_c, 0, 76, 0
2, 120029, Note_on_c, 0, 83, 34
2, 120060, Note_on_c, 0, 83, 0
2, 120060, Note_on_c, 0, 88, 0
2, 120060, Note_on_c, 0, 76, 29
2, 120060, Note_on_c, 0, 80, 29
2, 120090, Note_on_c, 0, 80, 0
2, 120090, Note_on_c, 0, 76, 0
2, 120090, Note_on_c, 0, 83, 35
2, 120119, Note_on_c, 0, 83, 0
2, 120119, Note_on_c, 0, 76, 24
2, 120119, Note_on_c, 0, 80, 24
2, 120150, Note_on_c, 0, 80, 0
2, 120150, Note_on_c, 0, 76, 0
2, 120150, Note_on_c, 0, 83, 34
2, 120180, Note_on_c, 0, 83, 0
2, 120180, Note_on_c, 0, 76, 29
2, 120180, Note_on_c, 0, 80, 29
2, 120209, Note_on_c, 0, 80, 0
2, 120209, Note_on_c, 0, 76, 0
2, 120209, Note_on_c, 0, 83, 36
2, 120240, Note_on_c, 0, 83, 0
2, 120240, Note_on_c, 0, 76, 28
2, 120240, Note_on_c, 0, 80, 28
2, 120270, Note_on_c, 0, 80, 0
2, 120270, Note_on_c, 0, 76, 0
2, 120270, Note_on_c, 0, 83, 36
2, 120299, Note_on_c, 0, 83, 0
2, 120299, Note_on_c, 0, 76, 25
2, 120299, Note_on_c, 0, 80, 25
2, 120330, Note_on_c, 0, 80, 0
2, 120330, Note_on_c, 0, 76, 0
2, 120330, Note_on_c, 0, 83, 33
2, 120360, Note_on_c, 0, 83, 0
2, 120360, Note_on_c, 0, 76, 19
2, 120360, Note_on_c, 0, 80, 19
2, 120389, Note_on_c, 0, 80, 0
2, 120389, Note_on_c, 0, 76, 0
2, 120389, Note_on_c, 0, 83, 34
2, 120420, Note_on_c, 0, 83, 0
2, 120420, Note_on_c, 0, 88, 59
2, 120420, Note_on_c, 0, 76, 30
2, 120420, Note_on_c, 0, 80, 30
2, 120450, Note_on_c, 0, 80, 0
2, 120450, Note_on_c, 0, 76, 0
2, 120450, Note_on_c, 0, 83, 30
2, 120455, Note_on_c, 0, 92, 59
2, 120479, Note_on_c, 0, 83, 0
2, 120479, Note_on_c, 0, 76, 30
2, 120479, Note_on_c, 0, 80, 30
2, 120491, Note_on_c, 0, 95, 59
2, 120510, Note_on_c, 0, 80, 0
2, 120510, Note_on_c, 0, 76, 0
2, 120510, Note_on_c, 0, 83, 29
2, 120540, Note_on_c, 0, 83, 0
2, 120540, Note_on_c, 0, 76, 29
2, 120540, Note_on_c, 0, 80, 29
2, 120569, Note_on_c, 0, 80, 0
2, 120569, Note_on_c, 0, 76, 0
2, 120569, Note_on_c, 0, 83, 29
2, 120600, Note_on_c, 0, 83, 0
2, 120600, Note_on_c, 0, 76, 29
2, 120600, Note_on_c, 0, 80, 29
2, 120630, Note_on_c, 0, 80, 0
2, 120630, Note_on_c, 0, 76, 0
2, 120630, Note_on_c, 0, 83, 28
2, 120659, Note_on_c, 0, 83, 0
2, 120659, Note_on_c, 0, 76, 28
2, 120659, Note_on_c, 0, 80, 28
2, 120690, Note_on_c, 0, 80, 0
2, 120690, Note_on_c, 0, 76, 0
2, 120690, Note_on_c, 0, 83, 28
2, 120720, Note_on_c, 0, 83, 0
2, 120720, Note_on_c, 0, 76, 27
2, 120720, Note_on_c, 0, 80, 27
2, 120749, Note_on_c, 0, 80, 0
2, 120749, Note_on_c, 0, 76, 0
2, 120749, Note_on_c, 0, 83, 27
2, 120780, Note_on_c, 0, 83, 0
2, 120780, Note_on_c, 0, 76, 27
2, 120780, Note_on_c, 0, 80, 27
2, 120810, Note_on_c, 0, 80, 0
2, 120810, Note_on_c, 0, 76, 0
2, 120810, Note_on_c, 0, 83, 27
2, 120839, Note_on_c, 0, 83, 0
2, 120839, Note_on_c, 0, 76, 26
2, 120839, Note_on_c, 0, 80, 26
2, 120870, Note_on_c, 0, 80, 0
2, 120870, Note_on_c, 0, 76, 0
2, 120870, Note_on_c, 0, 83, 26
2, 120900, Note_on_c, 0, 83, 0
2, 120900, Note_on_c, 0, 76, 26
2, 120900, Note_on_c, 0, 80, 26
2, 120929, Note_on_c, 0, 80, 0
2, 120929, Note_on_c, 0, 76, 0
2, 120929, Note_on_c, 0, 83, 26
2, 120960, Note_on_c, 0, 83, 0
2, 120960, Note_on_c, 0, 95, 0
2, 120960, Note_on_c, 0, 92, 0
2, 120960, Note_on_c, 0, 88, 0
2, 120960, Note_on_c, 0, 76, 25
2, 120960, Note_on_c, 0, 80, 25
2, 120990, Note_on_c, 0, 80, 0
2, 120990, Note_on_c, 0, 76, 0
2, 120990, Note_on_c, 0, 83, 25
2, 121019, Note_on_c, 0, 83, 0
2, 121019, Note_on_c, 0, 76, 25
2, 121019, Note_on_c, 0, 80, 25
2, 121050, Note_on_c, 0, 80, 0
2, 121050, Note_on_c, 0, 76, 0
2, 121050, Note_on_c, 0, 83, 24
2, 121080, Note_on_c, 0, 83, 0
2, 121080, Note_on_c, 0, 76, 24
2, 121080, Note_on_c, 0, 80, 24
2, 121109, Note_on_c, 0, 80, 0
2, 121109, Note_on_c, 0, 76, 0
2, 121109, Note_on_c, 0, 83, 24
2, 121140, Note_on_c, 0, 83, 0
2, 121140, Note_on_c, 0, 76, 24
2, 121140, Note_on_c, 0, 80, 24
2, 121170, Note_on_c, 0, 80, 0
2, 121170, Note_on_c, 0, 76, 0
2, 121170, Note_on_c, 0, 83, 23
2, 121199, Note_on_c, 0, 83, 0
2, 121199, Note_on_c, 0, 76, 23
2, 121199, Note_on_c, 0, 80, 23
2, 121230, Note_on_c, 0, 80, 0
2, 121230, Note_on_c, 0, 76, 0
2, 121230, Note_on_c, 0, 83, 23
2, 121260, Note_on_c, 0, 83, 0
2, 121260, Note_on_c, 0, 76, 22
2, 121260, Note_on_c, 0, 80, 22
2, 121289, Note_on_c, 0, 80, 0
2, 121289, Note_on_c, 0, 76, 0
2, 121289, Note_on_c, 0, 83, 22
2, 121320, Note_on_c, 0, 83, 0
2, 121320, Note_on_c, 0, 76, 22
2, 121320, Note_on_c, 0, 80, 22
2, 121350, Note_on_c, 0, 80, 0
2, 121350, Note_on_c, 0, 76, 0
2, 121350, Note_on_c, 0, 83, 22
2, 121379, Note_on_c, 0, 83, 0
2, 121379, Note_on_c, 0, 76, 21
2, 121379, Note_on_c, 0, 80, 21
2, 121410, Note_on_c, 0, 80, 0
2, 121410, Note_on_c, 0, 76, 0
2, 121410, Note_on_c, 0, 83, 21
2, 121440, Note_on_c, 0, 83, 0
2, 121440, Note_on_c, 0, 76, 21
2, 121440, Note_on_c, 0, 80, 21
2, 121469, Note_on_c, 0, 80, 0
2, 121469, Note_on_c, 0, 76, 0
2, 121469, Note_on_c, 0, 83, 20
2, 121500, Note_on_c, 0, 83, 0
2, 121500, Note_on_c, 0, 88, 51
2, 121500, Note_on_c, 0, 76, 20
2, 121500, Note_on_c, 0, 80, 20
2, 121530, Note_on_c, 0, 80, 0
2, 121530, Note_on_c, 0, 76, 0
2, 121530, Note_on_c, 0, 83, 20
2, 121531, Note_on_c, 0, 92, 50
2, 121559, Note_on_c, 0, 83, 0
2, 121559, Note_on_c, 0, 76, 20
2, 121559, Note_on_c, 0, 80, 20
2, 121562, Note_on_c, 0, 95, 50
2, 121590, Note_on_c, 0, 80, 0
2, 121590, Note_on_c, 0, 76, 0
2, 121590, Note_on_c, 0, 83, 19
2, 121620, Note_on_c, 0, 83, 0
2, 121620, Note_on_c, 0, 76, 19
2, 121620, Note_on_c, 0, 80, 19
2, 121649, Note_on_c, 0, 80, 0
2, 121649, Note_on_c, 0, 76, 0
2, 121649, Note_on_c, 0, 83, 19
2, 121680, Note_on_c, 0, 83, 0
2, 121680, Note_on_c, 0, 76, 18
2, 121680, Note_on_c, 0, 80, 18
2, 121710, Note_on_c, 0, 80, 0
2, 121710, Note_on_c, 0, 76, 0
2, 121710, Note_on_c, 0, 83, 18
2, 121739, Note_on_c, 0, 83, 0
2, 121739, Note_on_c, 0, 76, 18
2, 121739, Note_on_c, 0, 80, 18
2, 121770, Note_on_c, 0, 80, 0
2, 121770, Note_on_c, 0, 76, 0
2, 121770, Note_on_c, 0, 83, 18
2, 121800, Note_on_c, 0, 83, 0
2, 121800, Note_on_c, 0, 76, 17
2, 121800, Note_on_c, 0, 80, 17
2, 121829, Note_on_c, 0, 80, 0
2, 121829, Note_on_c, 0, 76, 0
2, 121829, Note_on_c, 0, 83, 17
2, 121860, Note_on_c, 0, 83, 0
2, 121860, Note_on_c, 0, 76, 17
2, 121860, Note_on_c, 0, 80, 17
2, 121890, Note_on_c, 0, 80, 0
2, 121890, Note_on_c, 0, 76, 0
2, 121890, Note_on_c, 0, 83, 16
2, 121919, Note_on_c, 0, 83, 0
2, 121919, Note_on_c, 0, 76, 16
2, 121919, Note_on_c, 0, 80, 16
2, 121950, Note_on_c, 0, 80, 0
2, 121950, Note_on_c, 0, 76, 0
2, 121950, Note_on_c, 0, 83, 16
2, 121980, Note_on_c, 0, 83, 0
2, 121980, Note_on_c, 0, 76, 16
2, 121980, Note_on_c, 0, 80, 16
2, 122009, Note_on_c, 0, 80, 0
2, 122009, Note_on_c, 0, 76, 0
2, 122009, Note_on_c, 0, 83, 15
2, 122040, Note_on_c, 0, 83, 0
2, 122040, Note_on_c, 0, 95, 0
2, 122040, Note_on_c, 0, 92, 0
2, 122040, Note_on_c, 0, 88, 0
2, 122040, Note_on_c, 0, 76, 15
2, 122040, Note_on_c, 0, 80, 15
2, 122070, Note_on_c, 0, 80, 0
2, 122070, Note_on_c, 0, 76, 0
2, 122070, Note_on_c, 0, 83, 15
2, 122099, Note_on_c, 0, 83, 0
2, 122099, Note_on_c, 0, 76, 15
2, 122099, Note_on_c, 0, 80, 15
2, 122130, Note_on_c, 0, 80, 0
2, 122130, Note_on_c, 0, 76, 0
2, 122130, Note_on_c, 0, 83, 14
2, 122160, Note_on_c, 0, 83, 0
2, 122160, Note_on_c, 0, 76, 14
2, 122160, Note_on_c, 0, 80, 14
2, 122189, Note_on_c, 0, 80, 0
2, 122189, Note_on_c, 0, 76, 0
2, 122189, Note_on_c, 0, 83, 14
2, 122220, Note_on_c, 0, 83, 0
2, 122220, Note_on_c, 0, 76, 13
2, 122220, Note_on_c, 0, 80, 13
2, 122250, Note_on_c, 0, 80, 0
2, 122250, Note_on_c, 0, 76, 0
2, 122250, Note_on_c, 0, 83, 13
2, 122279, Note_on_c, 0, 83, 0
2, 122279, Note_on_c, 0, 76, 13
2, 122279, Note_on_c, 0, 80, 13
2, 122310, Note_on_c, 0, 80, 0
2, 122310, Note_on_c, 0, 76, 0
2, 122310, Note_on_c, 0, 83, 13
2, 122340, Note_on_c, 0, 83, 0
2, 122340, Note_on_c, 0, 76, 12
2, 122340, Note_on_c, 0, 80, 12
2, 122369, Note_on_c, 0, 80, 0
2, 122369, Note_on_c, 0, 76, 0
2, 122369, Note_on_c, 0, 83, 12
2, 122400, Note_on_c, 0, 83, 0
2, 122400, Note_on_c, 0, 76, 12
2, 122400, Note_on_c, 0, 80, 12
2, 122430, Note_on_c, 0, 80, 0
2, 122430, Note_on_c, 0, 76, 0
2, 122430, Note_on_c, 0, 83, 11
2, 122459, Note_on_c, 0, 83, 0
2, 122459, Note_on_c, 0, 76, 11
2, 122459, Note_on_c, 0, 80, 11
2, 122490, Note_on_c, 0, 80, 0
2, 122490, Note_on_c, 0, 76, 0
2, 122490, Note_on_c, 0, 83, 11
2, 122520, Note_on_c, 0, 83, 0
2, 122520, Note_on_c, 0, 76, 11
2, 122520, Note_on_c, 0, 80, 11
2, 122549, Note_on_c, 0, 80, 0
2, 122549, Note_on_c, 0, 76, 0
2, 122549, Note_on_c, 0, 83, 10
2, 122580, Note_on_c, 0, 83, 0
2, 122580, Note_on_c, 0, 88, 42
2, 122580, Note_on_c, 0, 76, 10
2, 122580, Note_on_c, 0, 80, 10
2, 122607, Note_on_c, 0, 92, 42
2, 122610, Note_on_c, 0, 80, 0
2, 122610, Note_on_c, 0, 76, 0
2, 122610, Note_on_c, 0, 83, 10
2, 122634, Note_on_c, 0, 95, 42
2, 122639, Note_on_c, 0, 83, 0
2, 122639, Note_on_c, 0, 76, 9
2, 122639, Note_on_c, 0, 80, 9
2, 122670, Note_on_c, 0, 80, 0
2, 122670, Note_on_c, 0, 76, 0
2, 122670, Note_on_c, 0, 83, 9
2, 122700, Note_on_c, 0, 83, 0
2, 122700, Note_on_c, 0, 76, 9
2, 122700, Note_on_c, 0, 80, 9
2, 122729, Note_on_c, 0, 80, 0
2, 122729, Note_on_c, 0, 76, 0
2, 122729, Note_on_c, 0, 83, 9
2, 122760, Note_on_c, 0, 83, 0
2, 122760, Note_on_c, 0, 76, 8
2, 122760, Note_on_c, 0, 80, 8
2, 122790, Note_on_c, 0, 80, 0
2, 122790, Note_on_c, 0, 76, 0
2, 122790, Note_on_c, 0, 83, 8
2, 122819, Note_on_c, 0, 83, 0
2, 122819, Note_on_c, 0, 76, 8
2, 122819, Note_on_c, 0, 80, 8
2, 122850, Note_on_c, 0, 80, 0
2, 122850, Note_on_c, 0, 76, 0
2, 122850, Note_on_c, 0, 83, 7
2, 122880, Note_on_c, 0, 83, 0
2, 122880, Note_on_c, 0, 76, 7
2, 122880, Note_on_c, 0, 80, 7
2, 122909, Note_on_c, 0, 80, 0
2, 122909, Note_on_c, 0, 76, 0
2, 122909, Note_on_c, 0, 83, 7
2, 122940, Note_on_c, 0, 83, 0
2, 122940, Note_on_c, 0, 76, 7
2, 122940, Note_on_c, 0, 80, 7
2, 122970, Note_on_c, 0, 80, 0
2, 122970, Note_on_c, 0, 76, 0
2, 122970, Note_on_c, 0, 83, 6
2, 122999, Note_on_c, 0, 83, 0
2, 122999, Note_on_c, 0, 76, 6
2, 122999, Note_on_c, 0, 80, 6
2, 123030, Note_on_c, 0, 80, 0
2, 123030, Note_on_c, 0, 76, 0
2, 123030, Note_on_c, 0, 83, 6
2, 123060, Note_on_c, 0, 83, 0
2, 123060, Note_on_c, 0, 76, 5
2, 123060, Note_on_c, 0, 80, 5
2, 123089, Note_on_c, 0, 80, 0
2, 123089, Note_on_c, 0, 76, 0
2, 123089, Note_on_c, 0, 83, 5
2, 123120, Note_on_c, 0, 83, 0
2, 123120, Note_on_c, 0, 92, 0
2, 123120, Note_on_c, 0, 88, 0
2, 123120, Note_on_c, 0, 95, 0
2, 123120, Note_on_c, 0, 88, 35
2, 123120, Note_on_c, 0, 76, 4
2, 123120, Note_on_c, 0, 80, 4
2, 123120, Note_on_c, 0, 83, 4
2, 123147, Note_on_c, 0, 92, 35
2, 123174, Note_on_c, 0, 95, 35
2, 123300, Note_on_c, 0, 95, 0
2, 123300, Note_on_c, 0, 76, 0
2, 123300, Note_on_c, 0, 80, 0
2, 123300, Note_on_c, 0, 88, 0
2, 123300, Note_on_c, 0, 92, 0
2, 123300, Note_on_c, 0, 83, 0
2, 123300, End_track
3, 0, Start_track
3, 0, Title_t, "Secondo"
3, 0, Program_c, 0, 0
3, 0, Control_c, 0, 7, 105
3, 0, Control_c, 0, 10, 47
3, 0, Control_c, 0, 91, 60
3, 0, Control_c, 0, 121, 0
3, 0, Control_c, 0, 121, 0
3, 0, Control_c, 0, 91, 60
3, 0, Control_c, 0, 10, 51
3, 0, Control_c, 0, 7, 100
3, 0, Note_on_c, 0, 55, 79
3, 0, Note_on_c, 0, 58, 79
3, 0, Note_on_c, 0, 64, 79
3, 0, Note_on_c, 0, 67, 79
3, 0, Note_on_c, 0, 36, 81
3, 0, Note_on_c, 0, 48, 81
3, 89, Note_on_c, 0, 48, 0
3, 89, Note_on_c, 0, 58, 0
3, 89, Note_on_c, 0, 64, 0
3, 89, Note_on_c, 0, 55, 0
3, 89, Note_on_c, 0, 36, 0
3, 89, Note_on_c, 0, 67, 0
3, 360, Note_on_c, 0, 55, 82
3, 360, Note_on_c, 0, 59, 82
3, 360, Note_on_c, 0, 64, 82
3, 360, Note_on_c, 0, 67, 82
3, 360, Note_on_c, 0, 35, 78
3, 360, Note_on_c, 0, 47, 78
3, 449, Note_on_c, 0, 47, 0
3, 449, Note_on_c, 0, 59, 0
3, 449, Note_on_c, 0, 64, 0
3, 449, Note_on_c, 0, 55, 0
3, 449, Note_on_c, 0, 35, 0
3, 449, Note_on_c, 0, 67, 0
3, 720, Note_on_c, 0, 55, 106
3, 720, Note_on_c, 0, 64, 106
3, 720, Note_on_c, 0, 67, 106
3, 720, Note_on_c, 0, 34, 107
3, 720, Note_on_c, 0, 46, 107
3, 1260, Note_on_c, 0, 46, 0
3, 1260, Note_on_c, 0, 67, 0
3, 1260, Note_on_c, 0, 55, 0
3, 1260, Note_on_c, 0, 64, 0
3, 1260, Note_on_c, 0, 34, 0
3, 1260, Note_on_c, 0, 55, 93
3, 1260, Note_on_c, 0, 60, 93
3, 1260, Note_on_c, 0, 64, 93
3, 1260, Note_on_c, 0, 67, 93
3, 1260, Note_on_c, 0, 33, 92
3, 1260, Note_on_c, 0, 45, 92
3, 1349, Note_on_c, 0, 45, 0
3, 1349, Note_on_c, 0, 60, 0
3, 1349, Note_on_c, 0, 64, 0
3, 1349, Note_on_c, 0, 55, 0
3, 1349, Note_on_c, 0, 33, 0
3, 1349, Note_on_c, 0, 67, 0
3, 1440, Note_on_c, 0, 55, 89
3, 1440, Note_on_c, 0, 61, 89
3, 1440, Note_on_c, 0, 64, 89
3, 1440, Note_on_c, 0, 67, 89
3, 1440, Note_on_c, 0, 34, 98
3, 1440, Note_on_c, 0, 46, 98
3, 1529, Note_on_c, 0, 46, 0
3, 1529, Note_on_c, 0, 61, 0
3, 1529, Note_on_c, 0, 64, 0
3, 1529, Note_on_c, 0, 55, 0
3, 1529, Note_on_c, 0, 34, 0
3, 1529, Note_on_c, 0, 67, 0
3, 1620, Note_on_c, 0, 55, 94
3, 1620, Note_on_c, 0, 60, 94
3, 1620, Note_on_c, 0, 64, 94
3, 1620, Note_on_c, 0, 67, 94
3, 1620, Note_on_c, 0, 33, 90
3, 1620, Note_on_c, 0, 45, 90
3, 1709, Note_on_c, 0, 45, 0
3, 1709, Note_on_c, 0, 60, 0
3, 1709, Note_on_c, 0, 64, 0
3, 1709, Note_on_c, 0, 55, 0
3, 1709, Note_on_c, 0, 33, 0
3, 1709, Note_on_c, 0, 67, 0
3, 1800, Note_on_c, 0, 55, 93
3, 1800, Note_on_c, 0, 61, 93
3, 1800, Note_on_c, 0, 64, 93
3, 1800, Note_on_c, 0, 67, 93
3, 1800, Note_on_c, 0, 34, 93
3, 1800, Note_on_c, 0, 46, 93
3, 1889, Note_on_c, 0, 46, 0
3, 1889, Note_on_c, 0, 61, 0
3, 1889, Note_on_c, 0, 64, 0
3, 1889, Note_on_c, 0, 55, 0
3, 1889, Note_on_c, 0, 34, 0
3, 1889, Note_on_c, 0, 67, 0
3, 1980, Note_on_c, 0, 55, 92
3, 1980, Note_on_c, 0, 60, 92
3, 1980, Note_on_c, 0, 64, 92
3, 1980, Note_on_c, 0, 67, 92
3, 1980, Note_on_c, 0, 33, 86
3, 1980, Note_on_c, 0, 45, 86
3, 2069, Note_on_c, 0, 45, 0
3, 2069, Note_on_c, 0, 60, 0
3, 2069, Note_on_c, 0, 64, 0
3, 2069, Note_on_c, 0, 55, 0
3, 2069, Note_on_c, 0, 33, 0
3, 2069, Note_on_c, 0, 67, 0
3, 2160, Note_on_c, 0, 55, 89
3, 2160, Note_on_c, 0, 61, 89
3, 2160, Note_on_c, 0, 64, 89
3, 2160, Note_on_c, 0, 67, 89
3, 2160, Note_on_c, 0, 34, 96
3, 2160, Note_on_c, 0, 46, 96
3, 2249, Note_on_c, 0, 46, 0
3, 2249, Note_on_c, 0, 61, 0
3, 2249, Note_on_c, 0, 64, 0
3, 2249, Note_on_c, 0, 55, 0
3, 2249, Note_on_c, 0, 34, 0
3, 2249, Note_on_c, 0, 67, 0
3, 2340, Note_on_c, 0, 34, 80
3, 2430, Note_on_c, 0, 34, 0
3, 2430, Note_on_c, 0, 46, 106
3, 2520, Note_on_c, 0, 46, 0
3, 2520, Note_on_c, 0, 34, 75
3, 2610, Note_on_c, 0, 34, 0
3, 2610, Note_on_c, 0, 46, 106
3, 2700, Note_on_c, 0, 46, 0
3, 2700, Note_on_c, 0, 34, 85
3, 2790, Note_on_c, 0, 34, 0
3, 2790, Note_on_c, 0, 46, 103
3, 2880, Note_on_c, 0, 46, 0
3, 2880, Note_on_c, 0, 52, 81
3, 2880, Note_on_c, 0, 55, 81
3, 2880, Note_on_c, 0, 34, 81
3, 2952, Note_on_c, 0, 34, 0
3, 2969, Note_on_c, 0, 55, 0
3, 2969, Note_on_c, 0, 52, 0
3, 2970, Note_on_c, 0, 46, 104
3, 3042, Note_on_c, 0, 46, 0
3, 3060, Note_on_c, 0, 55, 106
3, 3060, Note_on_c, 0, 61, 106
3, 3060, Note_on_c, 0, 34, 81
3, 3132, Note_on_c, 0, 34, 0
3, 3149, Note_on_c, 0, 61, 0
3, 3149, Note_on_c, 0, 55, 0
3, 3150, Note_on_c, 0, 46, 104
3, 3222, Note_on_c, 0, 46, 0
3, 3240, Note_on_c, 0, 60, 104
3, 3240, Note_on_c, 0, 64, 104
3, 3240, Note_on_c, 0, 34, 81
3, 3312, Note_on_c, 0, 34, 0
3, 3329, Note_on_c, 0, 64, 0
3, 3329, Note_on_c, 0, 60, 0
3, 3330, Note_on_c, 0, 46, 104
3, 3402, Note_on_c, 0, 46, 0
3, 3420, Note_on_c, 0, 34, 81
3, 3492, Note_on_c, 0, 34, 0
3, 3510, Note_on_c, 0, 46, 104
3, 3582, Note_on_c, 0, 46, 0
3, 3600, Note_on_c, 0, 34, 81
3, 3672, Note_on_c, 0, 34, 0
3, 3690, Note_on_c, 0, 46, 104
3, 3762, Note_on_c, 0, 46, 0
3, 3780, Note_on_c, 0, 34, 81
3, 3852, Note_on_c, 0, 34, 0
3, 3870, Note_on_c, 0, 46, 104
3, 3942, Note_on_c, 0, 46, 0
3, 3960, Note_on_c, 0, 34, 81
3, 4032, Note_on_c, 0, 34, 0
3, 4050, Note_on_c, 0, 46, 104
3, 4122, Note_on_c, 0, 46, 0
3, 4140, Note_on_c, 0, 34, 81
3, 4212, Note_on_c, 0, 34, 0
3, 4230, Note_on_c, 0, 46, 104
3, 4302, Note_on_c, 0, 46, 0
3, 4320, Note_on_c, 0, 54, 80
3, 4320, Note_on_c, 0, 61, 80
3, 4320, Note_on_c, 0, 64, 80
3, 4320, Note_on_c, 0, 66, 80
3, 4320, Note_on_c, 0, 34, 92
3, 4320, Note_on_c, 0, 46, 92
3, 4409, Note_on_c, 0, 46, 0
3, 4409, Note_on_c, 0, 61, 0
3, 4409, Note_on_c, 0, 64, 0
3, 4409, Note_on_c, 0, 54, 0
3, 4409, Note_on_c, 0, 34, 0
3, 4409, Note_on_c, 0, 66, 0
3, 4500, Note_on_c, 0, 54, 92
3, 4500, Note_on_c, 0, 59, 92
3, 4500, Note_on_c, 0, 63, 92
3, 4500, Note_on_c, 0, 66, 92
3, 4500, Note_on_c, 0, 35, 93
3, 4500, Note_on_c, 0, 47, 93
3, 4589, Note_on_c, 0, 47, 0
3, 4589, Note_on_c, 0, 59, 0
3, 4589, Note_on_c, 0, 63, 0
3, 4589, Note_on_c, 0, 54, 0
3, 4589, Note_on_c, 0, 35, 0
3, 4589, Note_on_c, 0, 66, 0
3, 4950, Note_on_c, 0, 54, 103
3, 5040, Note_on_c, 0, 54, 0
3, 5040, Note_on_c, 0, 59, 107
3, 5760, Note_on_c, 0, 59, 0
3, 5760, Note_on_c, 0, 54, 106
3, 5760, Note_on_c, 0, 57, 106
3, 5760, Note_on_c, 0, 63, 106
3, 5760, Note_on_c, 0, 66, 106
3, 5760, Note_on_c, 0, 35, 83
3, 5760, Note_on_c, 0, 47, 83
3, 5849, Note_on_c, 0, 47, 0
3, 5849, Note_on_c, 0, 57, 0
3, 5849, Note_on_c, 0, 63, 0
3, 5849, Note_on_c, 0, 54, 0
3, 5849, Note_on_c, 0, 35, 0
3, 5849, Note_on_c, 0, 66, 0
3, 6120, Note_on_c, 0, 54, 83
3, 6120, Note_on_c, 0, 58, 83
3, 6120, Note_on_c, 0, 63, 83
3, 6120, Note_on_c, 0, 66, 83
3, 6120, Note_on_c, 0, 34, 78
3, 6120, Note_on_c, 0, 46, 78
3, 6209, Note_on_c, 0, 46, 0
3, 6209, Note_on_c, 0, 58, 0
3, 6209, Note_on_c, 0, 63, 0
3, 6209, Note_on_c, 0, 54, 0
3, 6209, Note_on_c, 0, 34, 0
3, 6209, Note_on_c, 0, 66, 0
3, 6480, Note_on_c, 0, 54, 107
3, 6480, Note_on_c, 0, 63, 107
3, 6480, Note_on_c, 0, 66, 107
3, 6480, Note_on_c, 0, 33, 104
3, 6480, Note_on_c, 0, 45, 104
3, 7020, Note_on_c, 0, 45, 0
3, 7020, Note_on_c, 0, 66, 0
3, 7020, Note_on_c, 0, 54, 0
3, 7020, Note_on_c, 0, 63, 0
3, 7020, Note_on_c, 0, 33, 0
3, 7020, Note_on_c, 0, 54, 88
3, 7020, Note_on_c, 0, 59, 88
3, 7020, Note_on_c, 0, 63, 88
3, 7020, Note_on_c, 0, 66, 88
3, 7020, Note_on_c, 0, 32, 89
3, 7020, Note_on_c, 0, 44, 89
3, 7109, Note_on_c, 0, 44, 0
3, 7109, Note_on_c, 0, 59, 0
3, 7109, Note_on_c, 0, 63, 0
3, 7109, Note_on_c, 0, 54, 0
3, 7109, Note_on_c, 0, 32, 0
3, 7109, Note_on_c, 0, 66, 0
3, 7200, Note_on_c, 0, 54, 95
3, 7200, Note_on_c, 0, 60, 95
3, 7200, Note_on_c, 0, 63, 95
3, 7200, Note_on_c, 0, 66, 95
3, 7200, Note_on_c, 0, 33, 98
3, 7200, Note_on_c, 0, 45, 98
3, 7289, Note_on_c, 0, 45, 0
3, 7289, Note_on_c, 0, 60, 0
3, 7289, Note_on_c, 0, 63, 0
3, 7289, Note_on_c, 0, 54, 0
3, 7289, Note_on_c, 0, 33, 0
3, 7289, Note_on_c, 0, 66, 0
3, 7380, Note_on_c, 0, 54, 92
3, 7380, Note_on_c, 0, 59, 92
3, 7380, Note_on_c, 0, 63, 92
3, 7380, Note_on_c, 0, 66, 92
3, 7380, Note_on_c, 0, 32, 88
3, 7380, Note_on_c, 0, 44, 88
3, 7469, Note_on_c, 0, 44, 0
3, 7469, Note_on_c, 0, 59, 0
3, 7469, Note_on_c, 0, 63, 0
3, 7469, Note_on_c, 0, 54, 0
3, 7469, Note_on_c, 0, 32, 0
3, 7469, Note_on_c, 0, 66, 0
3, 7560, Note_on_c, 0, 54, 98
3, 7560, Note_on_c, 0, 60, 98
3, 7560, Note_on_c, 0, 63, 98
3, 7560, Note_on_c, 0, 66, 98
3, 7560, Note_on_c, 0, 33, 100
3, 7560, Note_on_c, 0, 45, 100
3, 7649, Note_on_c, 0, 45, 0
3, 7649, Note_on_c, 0, 60, 0
3, 7649, Note_on_c, 0, 63, 0
3, 7649, Note_on_c, 0, 54, 0
3, 7649, Note_on_c, 0, 33, 0
3, 7649, Note_on_c, 0, 66, 0
3, 7740, Note_on_c, 0, 54, 86
3, 7740, Note_on_c, 0, 59, 86
3, 7740, Note_on_c, 0, 63, 86
3, 7740, Note_on_c, 0, 66, 86
3, 7740, Note_on_c, 0, 32, 86
3, 7740, Note_on_c, 0, 44, 86
3, 7829, Note_on_c, 0, 44, 0
3, 7829, Note_on_c, 0, 59, 0
3, 7829, Note_on_c, 0, 63, 0
3, 7829, Note_on_c, 0, 54, 0
3, 7829, Note_on_c, 0, 32, 0
3, 7829, Note_on_c, 0, 66, 0
3, 7920, Note_on_c, 0, 54, 94
3, 7920, Note_on_c, 0, 60, 94
3, 7920, Note_on_c, 0, 63, 94
3, 7920, Note_on_c, 0, 66, 94
3, 7920, Note_on_c, 0, 33, 92
3, 7920, Note_on_c, 0, 45, 92
3, 8009, Note_on_c, 0, 45, 0
3, 8009, Note_on_c, 0, 60, 0
3, 8009, Note_on_c, 0, 63, 0
3, 8009, Note_on_c, 0, 54, 0
3, 8009, Note_on_c, 0, 33, 0
3, 8009, Note_on_c, 0, 66, 0
3, 8100, Note_on_c, 0, 33, 79
3, 8190, Note_on_c, 0, 33, 0
3, 8190, Note_on_c, 0, 45, 103
3, 8280, Note_on_c, 0, 45, 0
3, 8280, Note_on_c, 0, 33, 80
3, 8370, Note_on_c, 0, 33, 0
3, 8370, Note_on_c, 0, 45, 104
3, 8460, Note_on_c, 0, 45, 0
3, 8460, Note_on_c, 0, 33, 78
3, 8550, Note_on_c, 0, 33, 0
3, 8550, Note_on_c, 0, 45, 106
3, 8640, Note_on_c, 0, 45, 0
3, 8640, Note_on_c, 0, 51, 84
3, 8640, Note_on_c, 0, 54, 84
3, 8640, Note_on_c, 0, 33, 81
3, 8712, Note_on_c, 0, 33, 0
3, 8729, Note_on_c, 0, 54, 0
3, 8729, Note_on_c, 0, 51, 0
3, 8730, Note_on_c, 0, 45, 104
3, 8802, Note_on_c, 0, 45, 0
3, 8820, Note_on_c, 0, 54, 106
3, 8820, Note_on_c, 0, 60, 106
3, 8820, Note_on_c, 0, 33, 81
3, 8892, Note_on_c, 0, 33, 0
3, 8909, Note_on_c, 0, 60, 0
3, 8909, Note_on_c, 0, 54, 0
3, 8910, Note_on_c, 0, 45, 104
3, 8982, Note_on_c, 0, 45, 0
3, 9000, Note_on_c, 0, 60, 102
3, 9000, Note_on_c, 0, 63, 102
3, 9000, Note_on_c, 0, 33, 81
3, 9072, Note_on_c, 0, 33, 0
3, 9089, Note_on_c, 0, 63, 0
3, 9089, Note_on_c, 0, 60, 0
3, 9090, Note_on_c, 0, 45, 104
3, 9162, Note_on_c, 0, 45, 0
3, 9180, Note_on_c, 0, 33, 81
3, 9252, Note_on_c, 0, 33, 0
3, 9270, Note_on_c, 0, 45, 104
3, 9342, Note_on_c, 0, 45, 0
3, 9360, Note_on_c, 0, 33, 81
3, 9432, Note_on_c, 0, 33, 0
3, 9450, Note_on_c, 0, 45, 104
3, 9522, Note_on_c, 0, 45, 0
3, 9540, Note_on_c, 0, 33, 81
3, 9612, Note_on_c, 0, 33, 0
3, 9630, Note_on_c, 0, 45, 104
3, 9702, Note_on_c, 0, 45, 0
3, 9720, Note_on_c, 0, 33, 81
3, 9792, Note_on_c, 0, 33, 0
3, 9810, Note_on_c, 0, 45, 104
3, 9882, Note_on_c, 0, 45, 0
3, 9900, Note_on_c, 0, 33, 81
3, 9972, Note_on_c, 0, 33, 0
3, 9990, Note_on_c, 0, 45, 104
3, 10062, Note_on_c, 0, 45, 0
3, 10080, Note_on_c, 0, 53, 80
3, 10080, Note_on_c, 0, 60, 80
3, 10080, Note_on_c, 0, 63, 80
3, 10080, Note_on_c, 0, 65, 80
3, 10080, Note_on_c, 0, 33, 91
3, 10080, Note_on_c, 0, 45, 91
3, 10169, Note_on_c, 0, 45, 0
3, 10169, Note_on_c, 0, 60, 0
3, 10169, Note_on_c, 0, 63, 0
3, 10169, Note_on_c, 0, 53, 0
3, 10169, Note_on_c, 0, 33, 0
3, 10169, Note_on_c, 0, 65, 0
3, 10260, Note_on_c, 0, 53, 90
3, 10260, Note_on_c, 0, 58, 90
3, 10260, Note_on_c, 0, 62, 90
3, 10260, Note_on_c, 0, 65, 90
3, 10260, Note_on_c, 0, 34, 100
3, 10260, Note_on_c, 0, 46, 100
3, 10349, Note_on_c, 0, 46, 0
3, 10349, Note_on_c, 0, 58, 0
3, 10349, Note_on_c, 0, 62, 0
3, 10349, Note_on_c, 0, 53, 0
3, 10349, Note_on_c, 0, 34, 0
3, 10349, Note_on_c, 0, 65, 0
3, 10710, Note_on_c, 0, 53, 104
3, 10800, Note_on_c, 0, 53, 0
3, 10800, Note_on_c, 0, 58, 107
3, 11520, Note_on_c, 0, 58, 0
3, 11520, Note_on_c, 0, 42, 80
3, 11520, Note_on_c, 0, 46, 80
3, 11520, Note_on_c, 0, 51, 80
3, 11520, Note_on_c, 0, 54, 80
3, 11609, Note_on_c, 0, 54, 0
3, 11609, Note_on_c, 0, 42, 0
3, 11609, Note_on_c, 0, 46, 0
3, 11609, Note_on_c, 0, 51, 0
3, 11880, Note_on_c, 0, 58, 107
3, 12240, Note_on_c, 0, 38, 79
3, 12240, Note_on_c, 0, 42, 79
3, 12240, Note_on_c, 0, 46, 79
3, 12240, Note_on_c, 0, 50, 79
3, 12329, Note_on_c, 0, 50, 0
3, 12329, Note_on_c, 0, 42, 0
3, 12329, Note_on_c, 0, 46, 0
3, 12329, Note_on_c, 0, 38, 0
3, 12600, Note_on_c, 0, 58, 0
3, 12600, Note_on_c, 0, 58, 107
3, 12960, Note_on_c, 0, 42, 84
3, 12960, Note_on_c, 0, 46, 84
3, 12960, Note_on_c, 0, 51, 84
3, 12960, Note_on_c, 0, 54, 84
3, 13049, Note_on_c, 0, 54, 0
3, 13049, Note_on_c, 0, 46, 0
3, 13049, Note_on_c, 0, 51, 0
3, 13049, Note_on_c, 0, 42, 0
3, 13080, Note_on_c, 0, 58, 0
3, 13080, Note_on_c, 0, 58, 107
3, 13199, Note_on_c, 0, 58, 0
3, 13199, Note_on_c, 0, 58, 107
3, 13320, Note_on_c, 0, 58, 0
3, 13320, Note_on_c, 0, 58, 107
3, 13680, Note_on_c, 0, 38, 82
3, 13680, Note_on_c, 0, 42, 82
3, 13680, Note_on_c, 0, 46, 82
3, 13680, Note_on_c, 0, 50, 82
3, 13769, Note_on_c, 0, 50, 0
3, 13769, Note_on_c, 0, 42, 0
3, 13769, Note_on_c, 0, 46, 0
3, 13769, Note_on_c, 0, 38, 0
3, 13800, Note_on_c, 0, 58, 0
3, 13800, Note_on_c, 0, 58, 107
3, 13919, Note_on_c, 0, 58, 0
3, 13919, Note_on_c, 0, 58, 107
3, 14040, Note_on_c, 0, 58, 0
3, 14040, Note_on_c, 0, 58, 107
3, 14400, Note_on_c, 0, 58, 0
3, 14400, Note_on_c, 0, 51, 107
3, 14400, Note_on_c, 0, 54, 107
3, 14400, Note_on_c, 0, 58, 107
3, 14400, Note_on_c, 0, 30, 106
3, 14400, Note_on_c, 0, 42, 106
3, 15120, Note_on_c, 0, 58, 0
3, 15300, Note_on_c, 0, 30, 0
3, 15300, Note_on_c, 0, 51, 0
3, 15300, Note_on_c, 0, 54, 0
3, 15300, Note_on_c, 0, 42, 0
3, 15300, Note_on_c, 0, 51, 87
3, 15300, Note_on_c, 0, 30, 94
3, 15300, Note_on_c, 0, 42, 94
3, 15480, Note_on_c, 0, 42, 0
3, 15480, Note_on_c, 0, 30, 0
3, 15480, Note_on_c, 0, 51, 0
3, 15480, Note_on_c, 0, 46, 85
3, 15480, Note_on_c, 0, 30, 94
3, 15480, Note_on_c, 0, 42, 94
3, 15660, Note_on_c, 0, 42, 0
3, 15660, Note_on_c, 0, 30, 0
3, 15660, Note_on_c, 0, 46, 0
3, 15660, Note_on_c, 0, 46, 94
3, 15660, Note_on_c, 0, 30, 98
3, 15660, Note_on_c, 0, 42, 98
3, 15840, Note_on_c, 0, 42, 0
3, 15840, Note_on_c, 0, 30, 0
3, 15840, Note_on_c, 0, 46, 0
3, 15840, Note_on_c, 0, 46, 89
3, 15840, Note_on_c, 0, 30, 91
3, 15840, Note_on_c, 0, 42, 91
3, 16020, Note_on_c, 0, 42, 0
3, 16020, Note_on_c, 0, 30, 0
3, 16020, Note_on_c, 0, 46, 0
3, 16020, Note_on_c, 0, 46, 98
3, 16020, Note_on_c, 0, 51, 98
3, 16020, Note_on_c, 0, 30, 93
3, 16020, Note_on_c, 0, 42, 93
3, 16200, Note_on_c, 0, 42, 0
3, 16200, Note_on_c, 0, 46, 0
3, 16200, Note_on_c, 0, 51, 0
3, 16200, Note_on_c, 0, 30, 0
3, 16200, Note_on_c, 0, 51, 96
3, 16200, Note_on_c, 0, 54, 96
3, 16200, Note_on_c, 0, 30, 90
3, 16200, Note_on_c, 0, 42, 90
3, 16380, Note_on_c, 0, 42, 0
3, 16380, Note_on_c, 0, 51, 0
3, 16380, Note_on_c, 0, 54, 0
3, 16380, Note_on_c, 0, 30, 0
3, 16380, Note_on_c, 0, 51, 97
3, 16380, Note_on_c, 0, 54, 97
3, 16380, Note_on_c, 0, 58, 97
3, 16380, Note_on_c, 0, 30, 92
3, 16380, Note_on_c, 0, 42, 92
3, 16560, Note_on_c, 0, 42, 0
3, 16560, Note_on_c, 0, 58, 0
3, 16560, Note_on_c, 0, 51, 0
3, 16560, Note_on_c, 0, 54, 0
3, 16560, Note_on_c, 0, 30, 0
3, 16560, Note_on_c, 0, 51, 106
3, 16560, Note_on_c, 0, 54, 106
3, 16560, Note_on_c, 0, 58, 106
3, 16560, Note_on_c, 0, 63, 106
3, 16560, Note_on_c, 0, 30, 93
3, 16560, Note_on_c, 0, 42, 93
3, 16740, Note_on_c, 0, 42, 0
3, 16740, Note_on_c, 0, 54, 0
3, 16740, Note_on_c, 0, 58, 0
3, 16740, Note_on_c, 0, 51, 0
3, 16740, Note_on_c, 0, 30, 0
3, 16740, Note_on_c, 0, 63, 0
3, 17280, Note_on_c, 0, 43, 82
3, 17280, Note_on_c, 0, 46, 82
3, 17280, Note_on_c, 0, 52, 82
3, 17280, Note_on_c, 0, 55, 82
3, 17369, Note_on_c, 0, 55, 0
3, 17369, Note_on_c, 0, 43, 0
3, 17369, Note_on_c, 0, 46, 0
3, 17369, Note_on_c, 0, 52, 0
3, 17640, Note_on_c, 0, 58, 104
3, 18000, Note_on_c, 0, 37, 86
3, 18000, Note_on_c, 0, 43, 86
3, 18000, Note_on_c, 0, 46, 86
3, 18000, Note_on_c, 0, 49, 86
3, 18089, Note_on_c, 0, 49, 0
3, 18089, Note_on_c, 0, 43, 0
3, 18089, Note_on_c, 0, 46, 0
3, 18089, Note_on_c, 0, 37, 0
3, 18360, Note_on_c, 0, 58, 0
3, 18360, Note_on_c, 0, 58, 107
3, 18720, Note_on_c, 0, 43, 78
3, 18720, Note_on_c, 0, 46, 78
3, 18720, Note_on_c, 0, 52, 78
3, 18720, Note_on_c, 0, 55, 78
3, 18809, Note_on_c, 0, 55, 0
3, 18809, Note_on_c, 0, 46, 0
3, 18809, Note_on_c, 0, 52, 0
3, 18809, Note_on_c, 0, 43, 0
3, 18840, Note_on_c, 0, 58, 0
3, 18840, Note_on_c, 0, 58, 107
3, 18959, Note_on_c, 0, 58, 0
3, 18959, Note_on_c, 0, 58, 107
3, 19080, Note_on_c, 0, 58, 0
3, 19080, Note_on_c, 0, 58, 107
3, 19440, Note_on_c, 0, 37, 82
3, 19440, Note_on_c, 0, 43, 82
3, 19440, Note_on_c, 0, 46, 82
3, 19440, Note_on_c, 0, 49, 82
3, 19529, Note_on_c, 0, 49, 0
3, 19529, Note_on_c, 0, 43, 0
3, 19529, Note_on_c, 0, 46, 0
3, 19529, Note_on_c, 0, 37, 0
3, 19560, Note_on_c, 0, 58, 0
3, 19560, Note_on_c, 0, 58, 107
3, 19679, Note_on_c, 0, 58, 0
3, 19679, Note_on_c, 0, 58, 107
3, 19800, Note_on_c, 0, 58, 0
3, 19800, Note_on_c, 0, 58, 107
3, 20160, Note_on_c, 0, 58, 0
3, 20160, Note_on_c, 0, 50, 94
3, 20160, Note_on_c, 0, 55, 94
3, 20160, Note_on_c, 0, 58, 94
3, 20160, Note_on_c, 0, 31, 85
3, 20160, Note_on_c, 0, 43, 85
3, 20880, Note_on_c, 0, 58, 0
3, 21060, Note_on_c, 0, 31, 0
3, 21060, Note_on_c, 0, 50, 0
3, 21060, Note_on_c, 0, 55, 0
3, 21060, Note_on_c, 0, 43, 0
3, 21060, Note_on_c, 0, 46, 83
3, 21060, Note_on_c, 0, 50, 83
3, 21060, Note_on_c, 0, 31, 94
3, 21060, Note_on_c, 0, 43, 94
3, 21240, Note_on_c, 0, 43, 0
3, 21240, Note_on_c, 0, 46, 0
3, 21240, Note_on_c, 0, 50, 0
3, 21240, Note_on_c, 0, 31, 0
3, 21240, Note_on_c, 0, 46, 97
3, 21240, Note_on_c, 0, 50, 97
3, 21240, Note_on_c, 0, 55, 97
3, 21240, Note_on_c, 0, 31, 91
3, 21240, Note_on_c, 0, 43, 91
3, 21420, Note_on_c, 0, 43, 0
3, 21420, Note_on_c, 0, 55, 0
3, 21420, Note_on_c, 0, 46, 0
3, 21420, Note_on_c, 0, 50, 0
3, 21420, Note_on_c, 0, 31, 0
3, 21420, Note_on_c, 0, 46, 97
3, 21420, Note_on_c, 0, 50, 97
3, 21420, Note_on_c, 0, 55, 97
3, 21420, Note_on_c, 0, 31, 96
3, 21420, Note_on_c, 0, 43, 96
3, 21600, Note_on_c, 0, 43, 0
3, 21600, Note_on_c, 0, 55, 0
3, 21600, Note_on_c, 0, 46, 0
3, 21600, Note_on_c, 0, 50, 0
3, 21600, Note_on_c, 0, 31, 0
3, 21600, Note_on_c, 0, 50, 97
3, 21600, Note_on_c, 0, 55, 97
3, 21600, Note_on_c, 0, 58, 97
3, 21600, Note_on_c, 0, 31, 93
3, 21600, Note_on_c, 0, 43, 93
3, 21780, Note_on_c, 0, 43, 0
3, 21780, Note_on_c, 0, 58, 0
3, 21780, Note_on_c, 0, 50, 0
3, 21780, Note_on_c, 0, 55, 0
3, 21780, Note_on_c, 0, 31, 0
3, 21780, Note_on_c, 0, 50, 92
3, 21780, Note_on_c, 0, 55, 92
3, 21780, Note_on_c, 0, 58, 92
3, 21780, Note_on_c, 0, 31, 89
3, 21780, Note_on_c, 0, 43, 89
3, 21960, Note_on_c, 0, 43, 0
3, 21960, Note_on_c, 0, 58, 0
3, 21960, Note_on_c, 0, 50, 0
3, 21960, Note_on_c, 0, 55, 0
3, 21960, Note_on_c, 0, 31, 0
3, 21960, Note_on_c, 0, 50, 106
3, 21960, Note_on_c, 0, 55, 106
3, 21960, Note_on_c, 0, 58, 106
3, 21960, Note_on_c, 0, 62, 106
3, 21960, Note_on_c, 0, 31, 94
3, 21960, Note_on_c, 0, 43, 94
3, 22140, Note_on_c, 0, 43, 0
3, 22140, Note_on_c, 0, 55, 0
3, 22140, Note_on_c, 0, 58, 0
3, 22140, Note_on_c, 0, 50, 0
3, 22140, Note_on_c, 0, 31, 0
3, 22140, Note_on_c, 0, 62, 0
3, 22140, Note_on_c, 0, 50, 93
3, 22140, Note_on_c, 0, 55, 93
3, 22140, Note_on_c, 0, 58, 93
3, 22140, Note_on_c, 0, 62, 93
3, 22140, Note_on_c, 0, 31, 91
3, 22140, Note_on_c, 0, 43, 91
3, 22320, Note_on_c, 0, 43, 0
3, 22320, Note_on_c, 0, 55, 0
3, 22320, Note_on_c, 0, 58, 0
3, 22320, Note_on_c, 0, 50, 0
3, 22320, Note_on_c, 0, 31, 0
3, 22320, Note_on_c, 0, 62, 0
3, 22320, Note_on_c, 0, 50, 98
3, 22320, Note_on_c, 0, 55, 98
3, 22320, Note_on_c, 0, 58, 98
3, 22320, Note_on_c, 0, 62, 98
3, 22320, Note_on_c, 0, 31, 94
3, 22320, Note_on_c, 0, 43, 94
3, 22500, Note_on_c, 0, 43, 0
3, 22500, Note_on_c, 0, 55, 0
3, 22500, Note_on_c, 0, 58, 0
3, 22500, Note_on_c, 0, 50, 0
3, 22500, Note_on_c, 0, 31, 0
3, 22500, Note_on_c, 0, 62, 0
3, 22500, Note_on_c, 0, 55, 82
3, 22500, Note_on_c, 0, 58, 82
3, 22590, Note_on_c, 0, 58, 0
3, 22590, Note_on_c, 0, 55, 0
3, 22590, Note_on_c, 0, 55, 96
3, 22590, Note_on_c, 0, 58, 96
3, 22680, Note_on_c, 0, 58, 0
3, 22680, Note_on_c, 0, 55, 0
3, 22680, Note_on_c, 0, 55, 91
3, 22680, Note_on_c, 0, 58, 91
3, 22860, Note_on_c, 0, 58, 0
3, 22860, Note_on_c, 0, 55, 0
3, 22860, Note_on_c, 0, 55, 96
3, 22860, Note_on_c, 0, 58, 96
3, 23040, Note_on_c, 0, 58, 0
3, 23040, Note_on_c, 0, 55, 0
3, 23040, Note_on_c, 0, 58, 106
3, 23040, Note_on_c, 0, 61, 106
3, 23040, Note_on_c, 0, 67, 106
3, 23040, Note_on_c, 0, 70, 106
3, 23040, Note_on_c, 0, 39, 81
3, 23040, Note_on_c, 0, 52, 81
3, 23129, Note_on_c, 0, 52, 0
3, 23129, Note_on_c, 0, 61, 0
3, 23129, Note_on_c, 0, 67, 0
3, 23129, Note_on_c, 0, 58, 0
3, 23129, Note_on_c, 0, 39, 0
3, 23129, Note_on_c, 0, 70, 0
3, 23400, Note_on_c, 0, 58, 96
3, 23400, Note_on_c, 0, 62, 96
3, 23400, Note_on_c, 0, 67, 96
3, 23400, Note_on_c, 0, 70, 96
3, 23400, Note_on_c, 0, 38, 83
3, 23400, Note_on_c, 0, 50, 83
3, 23489, Note_on_c, 0, 50, 0
3, 23489, Note_on_c, 0, 62, 0
3, 23489, Note_on_c, 0, 67, 0
3, 23489, Note_on_c, 0, 58, 0
3, 23489, Note_on_c, 0, 38, 0
3, 23489, Note_on_c, 0, 70, 0
3, 23760, Note_on_c, 0, 58, 90
3, 23760, Note_on_c, 0, 67, 90
3, 23760, Note_on_c, 0, 70, 90
3, 23760, Note_on_c, 0, 37, 77
3, 23760, Note_on_c, 0, 49, 77
3, 23849, Note_on_c, 0, 49, 0
3, 23849, Note_on_c, 0, 70, 0
3, 23849, Note_on_c, 0, 58, 0
3, 23849, Note_on_c, 0, 67, 0
3, 23849, Note_on_c, 0, 37, 0
3, 24300, Note_on_c, 0, 64, 107
3, 24300, Note_on_c, 0, 67, 107
3, 24300, Note_on_c, 0, 61, 101
3, 24389, Note_on_c, 0, 61, 0
3, 24389, Note_on_c, 0, 67, 0
3, 24389, Note_on_c, 0, 64, 0
3, 24480, Note_on_c, 0, 58, 106
3, 24480, Note_on_c, 0, 61, 106
3, 24480, Note_on_c, 0, 67, 106
3, 24480, Note_on_c, 0, 70, 106
3, 24480, Note_on_c, 0, 39, 79
3, 24480, Note_on_c, 0, 52, 79
3, 24569, Note_on_c, 0, 52, 0
3, 24569, Note_on_c, 0, 61, 0
3, 24569, Note_on_c, 0, 67, 0
3, 24569, Note_on_c, 0, 58, 0
3, 24569, Note_on_c, 0, 39, 0
3, 24569, Note_on_c, 0, 70, 0
3, 24840, Note_on_c, 0, 58, 94
3, 24840, Note_on_c, 0, 62, 94
3, 24840, Note_on_c, 0, 67, 94
3, 24840, Note_on_c, 0, 70, 94
3, 24840, Note_on_c, 0, 38, 81
3, 24840, Note_on_c, 0, 50, 81
3, 24929, Note_on_c, 0, 50, 0
3, 24929, Note_on_c, 0, 62, 0
3, 24929, Note_on_c, 0, 67, 0
3, 24929, Note_on_c, 0, 58, 0
3, 24929, Note_on_c, 0, 38, 0
3, 24929, Note_on_c, 0, 70, 0
3, 25200, Note_on_c, 0, 58, 94
3, 25200, Note_on_c, 0, 67, 94
3, 25200, Note_on_c, 0, 70, 94
3, 25200, Note_on_c, 0, 37, 79
3, 25200, Note_on_c, 0, 49, 79
3, 25289, Note_on_c, 0, 49, 0
3, 25289, Note_on_c, 0, 70, 0
3, 25289, Note_on_c, 0, 58, 0
3, 25289, Note_on_c, 0, 67, 0
3, 25289, Note_on_c, 0, 37, 0
3, 25740, Note_on_c, 0, 64, 96
3, 25740, Note_on_c, 0, 67, 96
3, 25740, Note_on_c, 0, 61, 87
3, 25829, Note_on_c, 0, 61, 0
3, 25829, Note_on_c, 0, 67, 0
3, 25829, Note_on_c, 0, 64, 0
3, 25920, Note_on_c, 0, 55, 106
3, 25920, Note_on_c, 0, 58, 106
3, 25920, Note_on_c, 0, 64, 106
3, 25920, Note_on_c, 0, 67, 106
3, 25920, Note_on_c, 0, 36, 75
3, 25920, Note_on_c, 0, 48, 75
3, 26009, Note_on_c, 0, 48, 0
3, 26009, Note_on_c, 0, 58, 0
3, 26009, Note_on_c, 0, 64, 0
3, 26009, Note_on_c, 0, 55, 0
3, 26009, Note_on_c, 0, 36, 0
3, 26009, Note_on_c, 0, 67, 0
3, 26280, Note_on_c, 0, 55, 96
3, 26280, Note_on_c, 0, 59, 96
3, 26280, Note_on_c, 0, 64, 96
3, 26280, Note_on_c, 0, 67, 96
3, 26280, Note_on_c, 0, 35, 76
3, 26280, Note_on_c, 0, 47, 76
3, 26369, Note_on_c, 0, 47, 0
3, 26369, Note_on_c, 0, 59, 0
3, 26369, Note_on_c, 0, 64, 0
3, 26369, Note_on_c, 0, 55, 0
3, 26369, Note_on_c, 0, 35, 0
3, 26369, Note_on_c, 0, 67, 0
3, 26640, Note_on_c, 0, 55, 94
3, 26640, Note_on_c, 0, 64, 94
3, 26640, Note_on_c, 0, 67, 94
3, 26640, Note_on_c, 0, 34, 83
3, 26640, Note_on_c, 0, 46, 83
3, 26729, Note_on_c, 0, 46, 0
3, 26729, Note_on_c, 0, 67, 0
3, 26729, Note_on_c, 0, 55, 0
3, 26729, Note_on_c, 0, 64, 0
3, 26729, Note_on_c, 0, 34, 0
3, 27180, Note_on_c, 0, 61, 97
3, 27180, Note_on_c, 0, 64, 97
3, 27180, Note_on_c, 0, 58, 78
3, 27269, Note_on_c, 0, 58, 0
3, 27269, Note_on_c, 0, 64, 0
3, 27269, Note_on_c, 0, 61, 0
3, 27360, Note_on_c, 0, 55, 106
3, 27360, Note_on_c, 0, 58, 106
3, 27360, Note_on_c, 0, 64, 106
3, 27360, Note_on_c, 0, 67, 106
3, 27360, Note_on_c, 0, 36, 79
3, 27360, Note_on_c, 0, 48, 79
3, 27449, Note_on_c, 0, 48, 0
3, 27449, Note_on_c, 0, 58, 0
3, 27449, Note_on_c, 0, 64, 0
3, 27449, Note_on_c, 0, 55, 0
3, 27449, Note_on_c, 0, 36, 0
3, 27449, Note_on_c, 0, 67, 0
3, 27720, Note_on_c, 0, 55, 91
3, 27720, Note_on_c, 0, 59, 91
3, 27720, Note_on_c, 0, 64, 91
3, 27720, Note_on_c, 0, 67, 91
3, 27720, Note_on_c, 0, 35, 80
3, 27720, Note_on_c, 0, 47, 80
3, 27809, Note_on_c, 0, 47, 0
3, 27809, Note_on_c, 0, 59, 0
3, 27809, Note_on_c, 0, 64, 0
3, 27809, Note_on_c, 0, 55, 0
3, 27809, Note_on_c, 0, 35, 0
3, 27809, Note_on_c, 0, 67, 0
3, 28080, Note_on_c, 0, 55, 95
3, 28080, Note_on_c, 0, 64, 95
3, 28080, Note_on_c, 0, 67, 95
3, 28080, Note_on_c, 0, 34, 78
3, 28080, Note_on_c, 0, 46, 78
3, 28169, Note_on_c, 0, 46, 0
3, 28169, Note_on_c, 0, 67, 0
3, 28169, Note_on_c, 0, 55, 0
3, 28169, Note_on_c, 0, 64, 0
3, 28169, Note_on_c, 0, 34, 0
3, 28620, Note_on_c, 0, 55, 94
3, 28620, Note_on_c, 0, 60, 94
3, 28620, Note_on_c, 0, 64, 94
3, 28620, Note_on_c, 0, 67, 94
3, 28620, Note_on_c, 0, 33, 80
3, 28620, Note_on_c, 0, 45, 80
3, 28709, Note_on_c, 0, 45, 0
3, 28709, Note_on_c, 0, 60, 0
3, 28709, Note_on_c, 0, 64, 0
3, 28709, Note_on_c, 0, 55, 0
3, 28709, Note_on_c, 0, 33, 0
3, 28709, Note_on_c, 0, 67, 0
3, 28800, Note_on_c, 0, 55, 101
3, 28800, Note_on_c, 0, 61, 101
3, 28800, Note_on_c, 0, 64, 101
3, 28800, Note_on_c, 0, 67, 101
3, 28800, Note_on_c, 0, 34, 91
3, 28800, Note_on_c, 0, 46, 91
3, 28889, Note_on_c, 0, 46, 0
3, 28889, Note_on_c, 0, 61, 0
3, 28889, Note_on_c, 0, 64, 0
3, 28889, Note_on_c, 0, 55, 0
3, 28889, Note_on_c, 0, 34, 0
3, 28889, Note_on_c, 0, 67, 0
3, 28980, Note_on_c, 0, 55, 105
3, 28980, Note_on_c, 0, 60, 105
3, 28980, Note_on_c, 0, 64, 105
3, 28980, Note_on_c, 0, 67, 105
3, 28980, Note_on_c, 0, 33, 89
3, 28980, Note_on_c, 0, 45, 89
3, 29069, Note_on_c, 0, 45, 0
3, 29069, Note_on_c, 0, 60, 0
3, 29069, Note_on_c, 0, 64, 0
3, 29069, Note_on_c, 0, 55, 0
3, 29069, Note_on_c, 0, 33, 0
3, 29069, Note_on_c, 0, 67, 0
3, 29160, Note_on_c, 0, 55, 104
3, 29160, Note_on_c, 0, 61, 104
3, 29160, Note_on_c, 0, 64, 104
3, 29160, Note_on_c, 0, 67, 104
3, 29160, Note_on_c, 0, 34, 96
3, 29160, Note_on_c, 0, 48, 96
3, 29249, Note_on_c, 0, 48, 0
3, 29249, Note_on_c, 0, 61, 0
3, 29249, Note_on_c, 0, 64, 0
3, 29249, Note_on_c, 0, 55, 0
3, 29249, Note_on_c, 0, 34, 0
3, 29249, Note_on_c, 0, 67, 0
3, 29340, Note_on_c, 0, 55, 106
3, 29340, Note_on_c, 0, 60, 106
3, 29340, Note_on_c, 0, 64, 106
3, 29340, Note_on_c, 0, 67, 106
3, 29340, Note_on_c, 0, 33, 93
3, 29340, Note_on_c, 0, 45, 93
3, 29429, Note_on_c, 0, 45, 0
3, 29429, Note_on_c, 0, 60, 0
3, 29429, Note_on_c, 0, 64, 0
3, 29429, Note_on_c, 0, 55, 0
3, 29429, Note_on_c, 0, 33, 0
3, 29429, Note_on_c, 0, 67, 0
3, 29520, Note_on_c, 0, 55, 106
3, 29520, Note_on_c, 0, 61, 106
3, 29520, Note_on_c, 0, 64, 106
3, 29520, Note_on_c, 0, 67, 106
3, 29520, Note_on_c, 0, 34, 90
3, 29520, Note_on_c, 0, 46, 90
3, 29609, Note_on_c, 0, 46, 0
3, 29609, Note_on_c, 0, 61, 0
3, 29609, Note_on_c, 0, 64, 0
3, 29609, Note_on_c, 0, 55, 0
3, 29609, Note_on_c, 0, 34, 0
3, 29609, Note_on_c, 0, 67, 0
3, 29700, Note_on_c, 0, 55, 106
3, 29700, Note_on_c, 0, 60, 106
3, 29700, Note_on_c, 0, 64, 106
3, 29700, Note_on_c, 0, 67, 106
3, 29700, Note_on_c, 0, 33, 91
3, 29700, Note_on_c, 0, 45, 91
3, 29789, Note_on_c, 0, 45, 0
3, 29789, Note_on_c, 0, 60, 0
3, 29789, Note_on_c, 0, 64, 0
3, 29789, Note_on_c, 0, 55, 0
3, 29789, Note_on_c, 0, 33, 0
3, 29789, Note_on_c, 0, 67, 0
3, 29880, Note_on_c, 0, 55, 106
3, 29880, Note_on_c, 0, 61, 106
3, 29880, Note_on_c, 0, 64, 106
3, 29880, Note_on_c, 0, 67, 106
3, 29880, Note_on_c, 0, 34, 96
3, 29880, Note_on_c, 0, 46, 96
3, 29969, Note_on_c, 0, 46, 0
3, 29969, Note_on_c, 0, 61, 0
3, 29969, Note_on_c, 0, 64, 0
3, 29969, Note_on_c, 0, 55, 0
3, 29969, Note_on_c, 0, 34, 0
3, 29969, Note_on_c, 0, 67, 0
3, 30060, Note_on_c, 0, 55, 104
3, 30060, Note_on_c, 0, 60, 104
3, 30060, Note_on_c, 0, 64, 104
3, 30060, Note_on_c, 0, 67, 104
3, 30060, Note_on_c, 0, 33, 92
3, 30060, Note_on_c, 0, 45, 92
3, 30149, Note_on_c, 0, 45, 0
3, 30149, Note_on_c, 0, 60, 0
3, 30149, Note_on_c, 0, 64, 0
3, 30149, Note_on_c, 0, 55, 0
3, 30149, Note_on_c, 0, 33, 0
3, 30149, Note_on_c, 0, 67, 0
3, 30240, Note_on_c, 0, 55, 106
3, 30240, Note_on_c, 0, 61, 106
3, 30240, Note_on_c, 0, 64, 106
3, 30240, Note_on_c, 0, 67, 106
3, 30240, Note_on_c, 0, 34, 95
3, 30240, Note_on_c, 0, 46, 95
3, 30329, Note_on_c, 0, 46, 0
3, 30329, Note_on_c, 0, 61, 0
3, 30329, Note_on_c, 0, 64, 0
3, 30329, Note_on_c, 0, 55, 0
3, 30329, Note_on_c, 0, 34, 0
3, 30329, Note_on_c, 0, 67, 0
3, 30420, Note_on_c, 0, 55, 106
3, 30420, Note_on_c, 0, 60, 106
3, 30420, Note_on_c, 0, 64, 106
3, 30420, Note_on_c, 0, 67, 106
3, 30420, Note_on_c, 0, 33, 87
3, 30420, Note_on_c, 0, 45, 87
3, 30509, Note_on_c, 0, 45, 0
3, 30509, Note_on_c, 0, 60, 0
3, 30509, Note_on_c, 0, 64, 0
3, 30509, Note_on_c, 0, 55, 0
3, 30509, Note_on_c, 0, 33, 0
3, 30509, Note_on_c, 0, 67, 0
3, 30600, Note_on_c, 0, 55, 106
3, 30600, Note_on_c, 0, 61, 106
3, 30600, Note_on_c, 0, 64, 106
3, 30600, Note_on_c, 0, 67, 106
3, 30600, Note_on_c, 0, 34, 94
3, 30600, Note_on_c, 0, 46, 94
3, 30689, Note_on_c, 0, 46, 0
3, 30689, Note_on_c, 0, 61, 0
3, 30689, Note_on_c, 0, 64, 0
3, 30689, Note_on_c, 0, 55, 0
3, 30689, Note_on_c, 0, 34, 0
3, 30689, Note_on_c, 0, 67, 0
3, 30780, Note_on_c, 0, 55, 103
3, 30780, Note_on_c, 0, 60, 103
3, 30780, Note_on_c, 0, 64, 103
3, 30780, Note_on_c, 0, 67, 103
3, 30780, Note_on_c, 0, 33, 90
3, 30780, Note_on_c, 0, 45, 90
3, 30869, Note_on_c, 0, 45, 0
3, 30869, Note_on_c, 0, 60, 0
3, 30869, Note_on_c, 0, 64, 0
3, 30869, Note_on_c, 0, 55, 0
3, 30869, Note_on_c, 0, 33, 0
3, 30869, Note_on_c, 0, 67, 0
3, 30960, Note_on_c, 0, 55, 105
3, 30960, Note_on_c, 0, 61, 105
3, 30960, Note_on_c, 0, 64, 105
3, 30960, Note_on_c, 0, 67, 105
3, 30960, Note_on_c, 0, 34, 94
3, 30960, Note_on_c, 0, 46, 94
3, 31049, Note_on_c, 0, 46, 0
3, 31049, Note_on_c, 0, 61, 0
3, 31049, Note_on_c, 0, 64, 0
3, 31049, Note_on_c, 0, 55, 0
3, 31049, Note_on_c, 0, 34, 0
3, 31049, Note_on_c, 0, 67, 0
3, 31860, Note_on_c, 0, 55, 93
3, 31860, Note_on_c, 0, 61, 93
3, 31860, Note_on_c, 0, 64, 93
3, 31860, Note_on_c, 0, 67, 93
3, 31860, Note_on_c, 0, 33, 82
3, 31860, Note_on_c, 0, 45, 82
3, 31949, Note_on_c, 0, 45, 0
3, 31949, Note_on_c, 0, 61, 0
3, 31949, Note_on_c, 0, 64, 0
3, 31949, Note_on_c, 0, 55, 0
3, 31949, Note_on_c, 0, 33, 0
3, 31949, Note_on_c, 0, 67, 0
3, 32040, Note_on_c, 0, 55, 106
3, 32040, Note_on_c, 0, 60, 106
3, 32040, Note_on_c, 0, 64, 106
3, 32040, Note_on_c, 0, 67, 106
3, 32040, Note_on_c, 0, 34, 91
3, 32040, Note_on_c, 0, 46, 91
3, 32129, Note_on_c, 0, 46, 0
3, 32129, Note_on_c, 0, 60, 0
3, 32129, Note_on_c, 0, 64, 0
3, 32129, Note_on_c, 0, 55, 0
3, 32129, Note_on_c, 0, 34, 0
3, 32129, Note_on_c, 0, 67, 0
3, 32220, Note_on_c, 0, 55, 106
3, 32220, Note_on_c, 0, 61, 106
3, 32220, Note_on_c, 0, 64, 106
3, 32220, Note_on_c, 0, 67, 106
3, 32220, Note_on_c, 0, 33, 88
3, 32220, Note_on_c, 0, 45, 88
3, 32309, Note_on_c, 0, 45, 0
3, 32309, Note_on_c, 0, 61, 0
3, 32309, Note_on_c, 0, 64, 0
3, 32309, Note_on_c, 0, 55, 0
3, 32309, Note_on_c, 0, 33, 0
3, 32309, Note_on_c, 0, 67, 0
3, 32400, Note_on_c, 0, 55, 106
3, 32400, Note_on_c, 0, 60, 106
3, 32400, Note_on_c, 0, 64, 106
3, 32400, Note_on_c, 0, 67, 106
3, 32400, Note_on_c, 0, 34, 97
3, 32400, Note_on_c, 0, 46, 97
3, 32489, Note_on_c, 0, 46, 0
3, 32489, Note_on_c, 0, 60, 0
3, 32489, Note_on_c, 0, 64, 0
3, 32489, Note_on_c, 0, 55, 0
3, 32489, Note_on_c, 0, 34, 0
3, 32489, Note_on_c, 0, 67, 0
3, 33480, Note_on_c, 0, 55, 95
3, 33480, Note_on_c, 0, 60, 95
3, 33480, Note_on_c, 0, 64, 95
3, 33480, Note_on_c, 0, 67, 95
3, 33480, Note_on_c, 0, 34, 81
3, 33480, Note_on_c, 0, 46, 81
3, 33660, Note_on_c, 0, 46, 0
3, 33660, Note_on_c, 0, 60, 0
3, 33660, Note_on_c, 0, 64, 0
3, 33660, Note_on_c, 0, 55, 0
3, 33660, Note_on_c, 0, 34, 0
3, 33660, Note_on_c, 0, 67, 0
3, 34200, Note_on_c, 0, 55, 92
3, 34200, Note_on_c, 0, 60, 92
3, 34200, Note_on_c, 0, 64, 92
3, 34200, Note_on_c, 0, 67, 92
3, 34200, Note_on_c, 0, 34, 81
3, 34200, Note_on_c, 0, 46, 81
3, 34380, Note_on_c, 0, 46, 0
3, 34380, Note_on_c, 0, 60, 0
3, 34380, Note_on_c, 0, 64, 0
3, 34380, Note_on_c, 0, 55, 0
3, 34380, Note_on_c, 0, 34, 0
3, 34380, Note_on_c, 0, 67, 0
3, 34920, Note_on_c, 0, 55, 90
3, 34920, Note_on_c, 0, 60, 90
3, 34920, Note_on_c, 0, 64, 90
3, 34920, Note_on_c, 0, 67, 90
3, 34920, Note_on_c, 0, 34, 81
3, 34920, Note_on_c, 0, 46, 81
3, 35100, Note_on_c, 0, 46, 0
3, 35100, Note_on_c, 0, 60, 0
3, 35100, Note_on_c, 0, 64, 0
3, 35100, Note_on_c, 0, 55, 0
3, 35100, Note_on_c, 0, 34, 0
3, 35100, Note_on_c, 0, 67, 0
3, 35280, Note_on_c, 0, 55, 96
3, 35280, Note_on_c, 0, 60, 96
3, 35280, Note_on_c, 0, 64, 96
3, 35280, Note_on_c, 0, 67, 96
3, 35280, Note_on_c, 0, 34, 80
3, 35280, Note_on_c, 0, 46, 80
3, 35460, Note_on_c, 0, 46, 0
3, 35460, Note_on_c, 0, 60, 0
3, 35460, Note_on_c, 0, 64, 0
3, 35460, Note_on_c, 0, 55, 0
3, 35460, Note_on_c, 0, 34, 0
3, 35460, Note_on_c, 0, 67, 0
3, 35640, Note_on_c, 0, 55, 97
3, 35640, Note_on_c, 0, 60, 97
3, 35640, Note_on_c, 0, 64, 97
3, 35640, Note_on_c, 0, 67, 97
3, 35640, Note_on_c, 0, 34, 82
3, 35640, Note_on_c, 0, 46, 82
3, 35820, Note_on_c, 0, 46, 0
3, 35820, Note_on_c, 0, 60, 0
3, 35820, Note_on_c, 0, 64, 0
3, 35820, Note_on_c, 0, 55, 0
3, 35820, Note_on_c, 0, 34, 0
3, 35820, Note_on_c, 0, 67, 0
3, 36000, Note_on_c, 0, 56, 92
3, 36000, Note_on_c, 0, 59, 92
3, 36000, Note_on_c, 0, 64, 92
3, 36000, Note_on_c, 0, 68, 92
3, 36000, Note_on_c, 0, 35, 81
3, 36072, Note_on_c, 0, 35, 0
3, 36090, Note_on_c, 0, 47, 106
3, 36162, Note_on_c, 0, 47, 0
3, 36180, Note_on_c, 0, 68, 0
3, 36180, Note_on_c, 0, 56, 0
3, 36180, Note_on_c, 0, 59, 0
3, 36180, Note_on_c, 0, 64, 0
3, 36180, Note_on_c, 0, 35, 81
3, 36252, Note_on_c, 0, 35, 0
3, 36270, Note_on_c, 0, 47, 106
3, 36342, Note_on_c, 0, 47, 0
3, 36360, Note_on_c, 0, 35, 81
3, 36432, Note_on_c, 0, 35, 0
3, 36450, Note_on_c, 0, 47, 106
3, 36522, Note_on_c, 0, 47, 0
3, 36540, Note_on_c, 0, 35, 81
3, 36612, Note_on_c, 0, 35, 0
3, 36630, Note_on_c, 0, 47, 106
3, 36702, Note_on_c, 0, 47, 0
3, 36720, Note_on_c, 0, 35, 81
3, 36792, Note_on_c, 0, 35, 0
3, 36810, Note_on_c, 0, 47, 106
3, 36882, Note_on_c, 0, 47, 0
3, 36900, Note_on_c, 0, 35, 81
3, 36972, Note_on_c, 0, 35, 0
3, 36990, Note_on_c, 0, 47, 106
3, 37062, Note_on_c, 0, 47, 0
3, 37080, Note_on_c, 0, 35, 81
3, 37152, Note_on_c, 0, 35, 0
3, 37170, Note_on_c, 0, 47, 106
3, 37242, Note_on_c, 0, 47, 0
3, 37260, Note_on_c, 0, 35, 81
3, 37332, Note_on_c, 0, 35, 0
3, 37350, Note_on_c, 0, 47, 106
3, 37422, Note_on_c, 0, 47, 0
3, 37440, Note_on_c, 0, 35, 78
3, 37512, Note_on_c, 0, 35, 0
3, 37530, Note_on_c, 0, 47, 106
3, 37602, Note_on_c, 0, 47, 0
3, 37620, Note_on_c, 0, 35, 78
3, 37692, Note_on_c, 0, 35, 0
3, 37710, Note_on_c, 0, 47, 106
3, 37782, Note_on_c, 0, 47, 0
3, 37800, Note_on_c, 0, 55, 92
3, 37800, Note_on_c, 0, 59, 92
3, 37800, Note_on_c, 0, 64, 92
3, 37800, Note_on_c, 0, 67, 92
3, 37800, Note_on_c, 0, 35, 78
3, 37872, Note_on_c, 0, 35, 0
3, 37890, Note_on_c, 0, 47, 106
3, 37962, Note_on_c, 0, 47, 0
3, 37980, Note_on_c, 0, 67, 0
3, 37980, Note_on_c, 0, 55, 0
3, 37980, Note_on_c, 0, 59, 0
3, 37980, Note_on_c, 0, 64, 0
3, 37980, Note_on_c, 0, 35, 78
3, 38052, Note_on_c, 0, 35, 0
3, 38070, Note_on_c, 0, 47, 106
3, 38142, Note_on_c, 0, 47, 0
3, 38160, Note_on_c, 0, 54, 89
3, 38160, Note_on_c, 0, 59, 89
3, 38160, Note_on_c, 0, 64, 89
3, 38160, Note_on_c, 0, 66, 89
3, 38160, Note_on_c, 0, 35, 78
3, 38232, Note_on_c, 0, 35, 0
3, 38250, Note_on_c, 0, 47, 106
3, 38322, Note_on_c, 0, 47, 0
3, 38340, Note_on_c, 0, 66, 0
3, 38340, Note_on_c, 0, 54, 0
3, 38340, Note_on_c, 0, 59, 0
3, 38340, Note_on_c, 0, 64, 0
3, 38340, Note_on_c, 0, 35, 78
3, 38412, Note_on_c, 0, 35, 0
3, 38430, Note_on_c, 0, 47, 106
3, 38502, Note_on_c, 0, 47, 0
3, 38520, Note_on_c, 0, 54, 94
3, 38520, Note_on_c, 0, 59, 94
3, 38520, Note_on_c, 0, 63, 94
3, 38520, Note_on_c, 0, 66, 94
3, 38520, Note_on_c, 0, 35, 78
3, 38520, Note_on_c, 0, 35, 92
3, 38520, Note_on_c, 0, 47, 92
3, 38592, Note_on_c, 0, 35, 0
3, 38700, Note_on_c, 0, 35, 0
3, 38700, Note_on_c, 0, 59, 0
3, 38700, Note_on_c, 0, 63, 0
3, 38700, Note_on_c, 0, 54, 0
3, 38700, Note_on_c, 0, 47, 0
3, 38700, Note_on_c, 0, 66, 0
3, 38880, Control_c, 0, 64, 127
3, 39960, Control_c, 0, 64, 0
3, 39960, Control_c, 0, 64, 127
3, 41040, Control_c, 0, 64, 0
3, 41040, Control_c, 0, 64, 127
3, 41220, Note_on_c, 0, 47, 34
3, 41220, Note_on_c, 0, 40, 31
3, 41258, Note_on_c, 0, 52, 34
3, 41400, Note_on_c, 0, 52, 0
3, 41400, Note_on_c, 0, 40, 0
3, 41400, Note_on_c, 0, 47, 0
3, 41400, Note_on_c, 0, 52, 50
3, 41400, Note_on_c, 0, 56, 50
3, 41400, Note_on_c, 0, 59, 50
3, 41400, Note_on_c, 0, 47, 43
3, 41580, Note_on_c, 0, 47, 0
3, 41580, Note_on_c, 0, 52, 0
3, 41580, Note_on_c, 0, 56, 0
3, 41580, Note_on_c, 0, 59, 0
3, 41580, Note_on_c, 0, 56, 43
3, 41580, Note_on_c, 0, 59, 43
3, 41580, Note_on_c, 0, 64, 43
3, 41580, Note_on_c, 0, 52, 46
3, 41760, Note_on_c, 0, 52, 0
3, 41760, Note_on_c, 0, 56, 0
3, 41760, Note_on_c, 0, 59, 0
3, 41760, Note_on_c, 0, 64, 0
3, 41760, Note_on_c, 0, 59, 49
3, 41760, Note_on_c, 0, 64, 49
3, 41760, Note_on_c, 0, 68, 49
3, 41760, Note_on_c, 0, 56, 40
3, 41940, Note_on_c, 0, 56, 0
3, 41940, Note_on_c, 0, 59, 0
3, 41940, Note_on_c, 0, 64, 0
3, 41940, Note_on_c, 0, 68, 0
3, 41940, Note_on_c, 0, 64, 46
3, 41940, Note_on_c, 0, 68, 46
3, 41940, Note_on_c, 0, 71, 46
3, 41940, Note_on_c, 0, 59, 44
3, 42120, Note_on_c, 0, 59, 0
3, 42120, Note_on_c, 0, 64, 0
3, 42120, Note_on_c, 0, 68, 0
3, 42120, Note_on_c, 0, 71, 0
3, 42120, Control_c, 0, 64, 0
3, 42120, Control_c, 0, 64, 127
3, 43200, Note_on_c, 0, 52, 24
3, 43200, Note_on_c, 0, 56, 24
3, 43200, Control_c, 0, 64, 0
3, 43200, Control_c, 0, 64, 127
3, 43200, Note_on_c, 0, 40, 23
3, 43235, Note_on_c, 0, 56, 0
3, 43235, Note_on_c, 0, 52, 0
3, 43238, Note_on_c, 0, 47, 23
3, 43245, Note_on_c, 0, 59, 32
3, 43280, Note_on_c, 0, 59, 0
3, 43290, Note_on_c, 0, 52, 24
3, 43290, Note_on_c, 0, 56, 24
3, 43325, Note_on_c, 0, 56, 0
3, 43325, Note_on_c, 0, 52, 0
3, 43335, Note_on_c, 0, 59, 32
3, 43370, Note_on_c, 0, 59, 0
3, 43380, Note_on_c, 0, 47, 0
3, 43380, Note_on_c, 0, 40, 0
3, 43380, Note_on_c, 0, 52, 24
3, 43380, Note_on_c, 0, 56, 24
3, 43415, Note_on_c, 0, 56, 0
3, 43415, Note_on_c, 0, 52, 0
3, 43425, Note_on_c, 0, 59, 32
3, 43460, Note_on_c, 0, 59, 0
3, 43470, Note_on_c, 0, 52, 24
3, 43470, Note_on_c, 0, 56, 24
3, 43505, Note_on_c, 0, 56, 0
3, 43505, Note_on_c, 0, 52, 0
3, 43515, Note_on_c, 0, 59, 32
3, 43550, Note_on_c, 0, 59, 0
3, 43560, Note_on_c, 0, 52, 24
3, 43560, Note_on_c, 0, 56, 24
3, 43595, Note_on_c, 0, 56, 0
3, 43595, Note_on_c, 0, 52, 0
3, 43605, Note_on_c, 0, 59, 32
3, 43640, Note_on_c, 0, 59, 0
3, 43650, Note_on_c, 0, 52, 24
3, 43650, Note_on_c, 0, 56, 24
3, 43685, Note_on_c, 0, 56, 0
3, 43685, Note_on_c, 0, 52, 0
3, 43695, Note_on_c, 0, 59, 32
3, 43730, Note_on_c, 0, 59, 0
3, 43740, Note_on_c, 0, 52, 24
3, 43740, Note_on_c, 0, 56, 24
3, 43740, Note_on_c, 0, 52, 28
3, 43740, Note_on_c, 0, 57, 28
3, 43775, Note_on_c, 0, 57, 0
3, 43775, Note_on_c, 0, 52, 0
3, 43775, Note_on_c, 0, 56, 0
3, 43775, Note_on_c, 0, 52, 0
3, 43785, Note_on_c, 0, 59, 32
3, 43820, Note_on_c, 0, 59, 0
3, 43830, Note_on_c, 0, 52, 28
3, 43830, Note_on_c, 0, 57, 28
3, 43865, Note_on_c, 0, 57, 0
3, 43865, Note_on_c, 0, 52, 0
3, 43875, Note_on_c, 0, 59, 32
3, 43910, Note_on_c, 0, 59, 0
3, 43920, Note_on_c, 0, 52, 28
3, 43920, Note_on_c, 0, 57, 28
3, 43955, Note_on_c, 0, 57, 0
3, 43955, Note_on_c, 0, 52, 0
3, 43965, Note_on_c, 0, 59, 32
3, 44000, Note_on_c, 0, 59, 0
3, 44010, Note_on_c, 0, 52, 28
3, 44010, Note_on_c, 0, 57, 28
3, 44045, Note_on_c, 0, 57, 0
3, 44045, Note_on_c, 0, 52, 0
3, 44055, Note_on_c, 0, 59, 32
3, 44090, Note_on_c, 0, 59, 0
3, 44100, Note_on_c, 0, 52, 28
3, 44100, Note_on_c, 0, 57, 28
3, 44135, Note_on_c, 0, 57, 0
3, 44135, Note_on_c, 0, 52, 0
3, 44145, Note_on_c, 0, 59, 32
3, 44180, Note_on_c, 0, 59, 0
3, 44190, Note_on_c, 0, 52, 28
3, 44190, Note_on_c, 0, 57, 28
3, 44225, Note_on_c, 0, 57, 0
3, 44225, Note_on_c, 0, 52, 0
3, 44235, Note_on_c, 0, 59, 32
3, 44270, Note_on_c, 0, 59, 0
3, 44280, Note_on_c, 0, 52, 33
3, 44280, Note_on_c, 0, 57, 33
3, 44280, Control_c, 0, 64, 0
3, 44280, Control_c, 0, 64, 127
3, 44315, Note_on_c, 0, 57, 0
3, 44315, Note_on_c, 0, 52, 0
3, 44325, Note_on_c, 0, 59, 36
3, 44360, Note_on_c, 0, 59, 0
3, 44370, Note_on_c, 0, 52, 33
3, 44370, Note_on_c, 0, 57, 33
3, 44405, Note_on_c, 0, 57, 0
3, 44405, Note_on_c, 0, 52, 0
3, 44415, Note_on_c, 0, 59, 36
3, 44450, Note_on_c, 0, 59, 0
3, 44460, Note_on_c, 0, 52, 33
3, 44460, Note_on_c, 0, 57, 33
3, 44495, Note_on_c, 0, 57, 0
3, 44495, Note_on_c, 0, 52, 0
3, 44505, Note_on_c, 0, 59, 36
3, 44540, Note_on_c, 0, 59, 0
3, 44550, Note_on_c, 0, 52, 33
3, 44550, Note_on_c, 0, 57, 33
3, 44585, Note_on_c, 0, 57, 0
3, 44585, Note_on_c, 0, 52, 0
3, 44595, Note_on_c, 0, 59, 36
3, 44630, Note_on_c, 0, 59, 0
3, 44640, Note_on_c, 0, 52, 33
3, 44640, Note_on_c, 0, 57, 33
3, 44675, Note_on_c, 0, 57, 0
3, 44675, Note_on_c, 0, 52, 0
3, 44685, Note_on_c, 0, 59, 36
3, 44720, Note_on_c, 0, 59, 0
3, 44730, Note_on_c, 0, 52, 33
3, 44730, Note_on_c, 0, 57, 33
3, 44765, Note_on_c, 0, 57, 0
3, 44765, Note_on_c, 0, 52, 0
3, 44775, Note_on_c, 0, 59, 36
3, 44810, Note_on_c, 0, 59, 0
3, 44820, Note_on_c, 0, 52, 33
3, 44820, Note_on_c, 0, 57, 33
3, 44855, Note_on_c, 0, 57, 0
3, 44855, Note_on_c, 0, 52, 0
3, 44865, Note_on_c, 0, 59, 36
3, 44900, Note_on_c, 0, 59, 0
3, 44910, Note_on_c, 0, 52, 33
3, 44910, Note_on_c, 0, 57, 33
3, 44945, Note_on_c, 0, 57, 0
3, 44945, Note_on_c, 0, 52, 0
3, 44955, Note_on_c, 0, 59, 36
3, 44990, Note_on_c, 0, 59, 0
3, 45000, Note_on_c, 0, 52, 33
3, 45000, Note_on_c, 0, 57, 33
3, 45035, Note_on_c, 0, 57, 0
3, 45035, Note_on_c, 0, 52, 0
3, 45045, Note_on_c, 0, 59, 36
3, 45080, Note_on_c, 0, 59, 0
3, 45090, Note_on_c, 0, 52, 33
3, 45090, Note_on_c, 0, 57, 33
3, 45125, Note_on_c, 0, 57, 0
3, 45125, Note_on_c, 0, 52, 0
3, 45135, Note_on_c, 0, 59, 36
3, 45170, Note_on_c, 0, 59, 0
3, 45180, Note_on_c, 0, 52, 33
3, 45180, Note_on_c, 0, 57, 33
3, 45215, Note_on_c, 0, 57, 0
3, 45215, Note_on_c, 0, 52, 0
3, 45225, Note_on_c, 0, 59, 36
3, 45260, Note_on_c, 0, 59, 0
3, 45270, Note_on_c, 0, 52, 33
3, 45270, Note_on_c, 0, 57, 33
3, 45305, Note_on_c, 0, 57, 0
3, 45305, Note_on_c, 0, 52, 0
3, 45315, Note_on_c, 0, 59, 36
3, 45350, Note_on_c, 0, 59, 0
3, 45360, Note_on_c, 0, 52, 25
3, 45360, Note_on_c, 0, 56, 25
3, 45360, Control_c, 0, 64, 0
3, 45360, Control_c, 0, 64, 127
3, 45360, Note_on_c, 0, 40, 25
3, 45395, Note_on_c, 0, 56, 0
3, 45395, Note_on_c, 0, 52, 0
3, 45398, Note_on_c, 0, 47, 25
3, 45405, Note_on_c, 0, 59, 32
3, 45440, Note_on_c, 0, 59, 0
3, 45450, Note_on_c, 0, 52, 25
3, 45450, Note_on_c, 0, 56, 25
3, 45485, Note_on_c, 0, 56, 0
3, 45485, Note_on_c, 0, 52, 0
3, 45495, Note_on_c, 0, 59, 32
3, 45530, Note_on_c, 0, 59, 0
3, 45540, Note_on_c, 0, 47, 0
3, 45540, Note_on_c, 0, 40, 0
3, 45540, Note_on_c, 0, 52, 25
3, 45540, Note_on_c, 0, 56, 25
3, 45575, Note_on_c, 0, 56, 0
3, 45575, Note_on_c, 0, 52, 0
3, 45585, Note_on_c, 0, 59, 32
3, 45620, Note_on_c, 0, 59, 0
3, 45630, Note_on_c, 0, 52, 25
3, 45630, Note_on_c, 0, 56, 25
3, 45665, Note_on_c, 0, 56, 0
3, 45665, Note_on_c, 0, 52, 0
3, 45675, Note_on_c, 0, 59, 32
3, 45710, Note_on_c, 0, 59, 0
3, 45720, Note_on_c, 0, 52, 25
3, 45720, Note_on_c, 0, 56, 25
3, 45755, Note_on_c, 0, 56, 0
3, 45755, Note_on_c, 0, 52, 0
3, 45765, Note_on_c, 0, 59, 32
3, 45800, Note_on_c, 0, 59, 0
3, 45810, Note_on_c, 0, 52, 25
3, 45810, Note_on_c, 0, 56, 25
3, 45845, Note_on_c, 0, 56, 0
3, 45845, Note_on_c, 0, 52, 0
3, 45855, Note_on_c, 0, 59, 32
3, 45890, Note_on_c, 0, 59, 0
3, 45900, Note_on_c, 0, 52, 25
3, 45900, Note_on_c, 0, 56, 25
3, 45900, Note_on_c, 0, 52, 29
3, 45900, Note_on_c, 0, 55, 29
3, 45900, Note_on_c, 0, 58, 29
3, 45935, Note_on_c, 0, 58, 0
3, 45935, Note_on_c, 0, 52, 0
3, 45935, Note_on_c, 0, 52, 0
3, 45935, Note_on_c, 0, 56, 0
3, 45935, Note_on_c, 0, 55, 0
3, 45945, Note_on_c, 0, 61, 35
3, 45980, Note_on_c, 0, 61, 0
3, 45990, Note_on_c, 0, 52, 29
3, 45990, Note_on_c, 0, 55, 29
3, 45990, Note_on_c, 0, 58, 29
3, 46025, Note_on_c, 0, 58, 0
3, 46025, Note_on_c, 0, 55, 0
3, 46025, Note_on_c, 0, 52, 0
3, 46035, Note_on_c, 0, 61, 35
3, 46070, Note_on_c, 0, 61, 0
3, 46080, Note_on_c, 0, 52, 29
3, 46080, Note_on_c, 0, 55, 29
3, 46080, Note_on_c, 0, 58, 29
3, 46115, Note_on_c, 0, 58, 0
3, 46115, Note_on_c, 0, 55, 0
3, 46115, Note_on_c, 0, 52, 0
3, 46125, Note_on_c, 0, 61, 35
3, 46160, Note_on_c, 0, 61, 0
3, 46170, Note_on_c, 0, 52, 29
3, 46170, Note_on_c, 0, 55, 29
3, 46170, Note_on_c, 0, 58, 29
3, 46205, Note_on_c, 0, 58, 0
3, 46205, Note_on_c, 0, 55, 0
3, 46205, Note_on_c, 0, 52, 0
3, 46215, Note_on_c, 0, 61, 35
3, 46250, Note_on_c, 0, 61, 0
3, 46260, Note_on_c, 0, 52, 29
3, 46260, Note_on_c, 0, 55, 29
3, 46260, Note_on_c, 0, 58, 29
3, 46295, Note_on_c, 0, 58, 0
3, 46295, Note_on_c, 0, 55, 0
3, 46295, Note_on_c, 0, 52, 0
3, 46305, Note_on_c, 0, 61, 35
3, 46340, Note_on_c, 0, 61, 0
3, 46350, Note_on_c, 0, 52, 29
3, 46350, Note_on_c, 0, 55, 29
3, 46350, Note_on_c, 0, 58, 29
3, 46385, Note_on_c, 0, 58, 0
3, 46385, Note_on_c, 0, 55, 0
3, 46385, Note_on_c, 0, 52, 0
3, 46395, Note_on_c, 0, 61, 35
3, 46430, Note_on_c, 0, 61, 0
3, 46440, Note_on_c, 0, 52, 26
3, 46440, Note_on_c, 0, 57, 26
3, 46440, Control_c, 0, 64, 0
3, 46440, Control_c, 0, 64, 127
3, 46475, Note_on_c, 0, 57, 0
3, 46475, Note_on_c, 0, 52, 0
3, 46485, Note_on_c, 0, 59, 32
3, 46520, Note_on_c, 0, 59, 0
3, 46530, Note_on_c, 0, 52, 26
3, 46530, Note_on_c, 0, 57, 26
3, 46565, Note_on_c, 0, 57, 0
3, 46565, Note_on_c, 0, 52, 0
3, 46575, Note_on_c, 0, 59, 32
3, 46610, Note_on_c, 0, 59, 0
3, 46620, Note_on_c, 0, 52, 26
3, 46620, Note_on_c, 0, 57, 26
3, 46655, Note_on_c, 0, 57, 0
3, 46655, Note_on_c, 0, 52, 0
3, 46665, Note_on_c, 0, 59, 32
3, 46700, Note_on_c, 0, 59, 0
3, 46710, Note_on_c, 0, 52, 26
3, 46710, Note_on_c, 0, 57, 26
3, 46745, Note_on_c, 0, 57, 0
3, 46745, Note_on_c, 0, 52, 0
3, 46755, Note_on_c, 0, 59, 32
3, 46790, Note_on_c, 0, 59, 0
3, 46800, Note_on_c, 0, 52, 26
3, 46800, Note_on_c, 0, 57, 26
3, 46835, Note_on_c, 0, 57, 0
3, 46835, Note_on_c, 0, 52, 0
3, 46845, Note_on_c, 0, 59, 32
3, 46880, Note_on_c, 0, 59, 0
3, 46890, Note_on_c, 0, 52, 26
3, 46890, Note_on_c, 0, 57, 26
3, 46925, Note_on_c, 0, 57, 0
3, 46925, Note_on_c, 0, 52, 0
3, 46935, Note_on_c, 0, 59, 32
3, 46970, Note_on_c, 0, 59, 0
3, 46980, Note_on_c, 0, 52, 26
3, 46980, Note_on_c, 0, 57, 26
3, 47015, Note_on_c, 0, 57, 0
3, 47015, Note_on_c, 0, 52, 0
3, 47025, Note_on_c, 0, 59, 32
3, 47060, Note_on_c, 0, 59, 0
3, 47070, Note_on_c, 0, 52, 26
3, 47070, Note_on_c, 0, 57, 26
3, 47105, Note_on_c, 0, 57, 0
3, 47105, Note_on_c, 0, 52, 0
3, 47115, Note_on_c, 0, 59, 32
3, 47150, Note_on_c, 0, 59, 0
3, 47160, Note_on_c, 0, 52, 26
3, 47160, Note_on_c, 0, 57, 26
3, 47195, Note_on_c, 0, 57, 0
3, 47195, Note_on_c, 0, 52, 0
3, 47205, Note_on_c, 0, 59, 32
3, 47240, Note_on_c, 0, 59, 0
3, 47250, Note_on_c, 0, 52, 26
3, 47250, Note_on_c, 0, 57, 26
3, 47285, Note_on_c, 0, 57, 0
3, 47285, Note_on_c, 0, 52, 0
3, 47295, Note_on_c, 0, 59, 32
3, 47330, Note_on_c, 0, 59, 0
3, 47340, Note_on_c, 0, 52, 26
3, 47340, Note_on_c, 0, 57, 26
3, 47375, Note_on_c, 0, 57, 0
3, 47375, Note_on_c, 0, 52, 0
3, 47385, Note_on_c, 0, 59, 32
3, 47420, Note_on_c, 0, 59, 0
3, 47430, Note_on_c, 0, 52, 26
3, 47430, Note_on_c, 0, 57, 26
3, 47465, Note_on_c, 0, 57, 0
3, 47465, Note_on_c, 0, 52, 0
3, 47475, Note_on_c, 0, 59, 32
3, 47510, Note_on_c, 0, 59, 0
3, 47520, Note_on_c, 0, 52, 26
3, 47520, Note_on_c, 0, 56, 26
3, 47520, Control_c, 0, 64, 0
3, 47520, Control_c, 0, 64, 127
3, 47520, Note_on_c, 0, 40, 22
3, 47555, Note_on_c, 0, 56, 0
3, 47555, Note_on_c, 0, 52, 0
3, 47558, Note_on_c, 0, 47, 22
3, 47565, Note_on_c, 0, 59, 32
3, 47600, Note_on_c, 0, 59, 0
3, 47610, Note_on_c, 0, 52, 26
3, 47610, Note_on_c, 0, 56, 26
3, 47645, Note_on_c, 0, 56, 0
3, 47645, Note_on_c, 0, 52, 0
3, 47655, Note_on_c, 0, 59, 32
3, 47690, Note_on_c, 0, 59, 0
3, 47700, Note_on_c, 0, 47, 0
3, 47700, Note_on_c, 0, 40, 0
3, 47700, Note_on_c, 0, 52, 26
3, 47700, Note_on_c, 0, 56, 26
3, 47735, Note_on_c, 0, 56, 0
3, 47735, Note_on_c, 0, 52, 0
3, 47745, Note_on_c, 0, 59, 32
3, 47780, Note_on_c, 0, 59, 0
3, 47790, Note_on_c, 0, 52, 26
3, 47790, Note_on_c, 0, 56, 26
3, 47825, Note_on_c, 0, 56, 0
3, 47825, Note_on_c, 0, 52, 0
3, 47835, Note_on_c, 0, 59, 32
3, 47870, Note_on_c, 0, 59, 0
3, 47880, Note_on_c, 0, 52, 26
3, 47880, Note_on_c, 0, 56, 26
3, 47915, Note_on_c, 0, 56, 0
3, 47915, Note_on_c, 0, 52, 0
3, 47925, Note_on_c, 0, 59, 32
3, 47960, Note_on_c, 0, 59, 0
3, 47970, Note_on_c, 0, 52, 26
3, 47970, Note_on_c, 0, 56, 26
3, 48005, Note_on_c, 0, 56, 0
3, 48005, Note_on_c, 0, 52, 0
3, 48015, Note_on_c, 0, 59, 32
3, 48050, Note_on_c, 0, 59, 0
3, 48060, Note_on_c, 0, 52, 26
3, 48060, Note_on_c, 0, 56, 26
3, 48060, Note_on_c, 0, 52, 30
3, 48060, Note_on_c, 0, 57, 30
3, 48095, Note_on_c, 0, 57, 0
3, 48095, Note_on_c, 0, 52, 0
3, 48095, Note_on_c, 0, 56, 0
3, 48095, Note_on_c, 0, 52, 0
3, 48105, Note_on_c, 0, 59, 29
3, 48140, Note_on_c, 0, 59, 0
3, 48150, Note_on_c, 0, 52, 30
3, 48150, Note_on_c, 0, 57, 30
3, 48185, Note_on_c, 0, 57, 0
3, 48185, Note_on_c, 0, 52, 0
3, 48195, Note_on_c, 0, 59, 29
3, 48230, Note_on_c, 0, 59, 0
3, 48240, Note_on_c, 0, 52, 30
3, 48240, Note_on_c, 0, 57, 30
3, 48275, Note_on_c, 0, 57, 0
3, 48275, Note_on_c, 0, 52, 0
3, 48285, Note_on_c, 0, 59, 29
3, 48320, Note_on_c, 0, 59, 0
3, 48330, Note_on_c, 0, 52, 30
3, 48330, Note_on_c, 0, 57, 30
3, 48365, Note_on_c, 0, 57, 0
3, 48365, Note_on_c, 0, 52, 0
3, 48375, Note_on_c, 0, 59, 29
3, 48410, Note_on_c, 0, 59, 0
3, 48420, Note_on_c, 0, 52, 30
3, 48420, Note_on_c, 0, 57, 30
3, 48455, Note_on_c, 0, 57, 0
3, 48455, Note_on_c, 0, 52, 0
3, 48465, Note_on_c, 0, 59, 29
3, 48500, Note_on_c, 0, 59, 0
3, 48510, Note_on_c, 0, 52, 30
3, 48510, Note_on_c, 0, 57, 30
3, 48545, Note_on_c, 0, 57, 0
3, 48545, Note_on_c, 0, 52, 0
3, 48555, Note_on_c, 0, 59, 29
3, 48590, Note_on_c, 0, 59, 0
3, 48600, Note_on_c, 0, 52, 31
3, 48600, Note_on_c, 0, 57, 31
3, 48600, Control_c, 0, 64, 0
3, 48600, Control_c, 0, 64, 127
3, 48635, Note_on_c, 0, 57, 0
3, 48635, Note_on_c, 0, 52, 0
3, 48645, Note_on_c, 0, 59, 33
3, 48680, Note_on_c, 0, 59, 0
3, 48690, Note_on_c, 0, 52, 31
3, 48690, Note_on_c, 0, 57, 31
3, 48725, Note_on_c, 0, 57, 0
3, 48725, Note_on_c, 0, 52, 0
3, 48735, Note_on_c, 0, 59, 33
3, 48770, Note_on_c, 0, 59, 0
3, 48780, Note_on_c, 0, 52, 31
3, 48780, Note_on_c, 0, 57, 31
3, 48815, Note_on_c, 0, 57, 0
3, 48815, Note_on_c, 0, 52, 0
3, 48825, Note_on_c, 0, 59, 33
3, 48860, Note_on_c, 0, 59, 0
3, 48870, Note_on_c, 0, 52, 31
3, 48870, Note_on_c, 0, 57, 31
3, 48905, Note_on_c, 0, 57, 0
3, 48905, Note_on_c, 0, 52, 0
3, 48915, Note_on_c, 0, 59, 33
3, 48950, Note_on_c, 0, 59, 0
3, 48960, Note_on_c, 0, 52, 31
3, 48960, Note_on_c, 0, 57, 31
3, 48995, Note_on_c, 0, 57, 0
3, 48995, Note_on_c, 0, 52, 0
3, 49005, Note_on_c, 0, 59, 33
3, 49040, Note_on_c, 0, 59, 0
3, 49050, Note_on_c, 0, 52, 31
3, 49050, Note_on_c, 0, 57, 31
3, 49085, Note_on_c, 0, 57, 0
3, 49085, Note_on_c, 0, 52, 0
3, 49095, Note_on_c, 0, 59, 33
3, 49130, Note_on_c, 0, 59, 0
3, 49140, Note_on_c, 0, 52, 31
3, 49140, Note_on_c, 0, 57, 31
3, 49175, Note_on_c, 0, 57, 0
3, 49175, Note_on_c, 0, 52, 0
3, 49185, Note_on_c, 0, 59, 33
3, 49220, Note_on_c, 0, 59, 0
3, 49230, Note_on_c, 0, 52, 31
3, 49230, Note_on_c, 0, 57, 31
3, 49265, Note_on_c, 0, 57, 0
3, 49265, Note_on_c, 0, 52, 0
3, 49275, Note_on_c, 0, 59, 33
3, 49310, Note_on_c, 0, 59, 0
3, 49320, Note_on_c, 0, 52, 31
3, 49320, Note_on_c, 0, 57, 31
3, 49355, Note_on_c, 0, 57, 0
3, 49355, Note_on_c, 0, 52, 0
3, 49365, Note_on_c, 0, 59, 33
3, 49400, Note_on_c, 0, 59, 0
3, 49410, Note_on_c, 0, 52, 31
3, 49410, Note_on_c, 0, 57, 31
3, 49445, Note_on_c, 0, 57, 0
3, 49445, Note_on_c, 0, 52, 0
3, 49455, Note_on_c, 0, 59, 33
3, 49490, Note_on_c, 0, 59, 0
3, 49500, Note_on_c, 0, 52, 31
3, 49500, Note_on_c, 0, 57, 31
3, 49535, Note_on_c, 0, 57, 0
3, 49535, Note_on_c, 0, 52, 0
3, 49545, Note_on_c, 0, 59, 33
3, 49580, Note_on_c, 0, 59, 0
3, 49590, Note_on_c, 0, 52, 31
3, 49590, Note_on_c, 0, 57, 31
3, 49625, Note_on_c, 0, 57, 0
3, 49625, Note_on_c, 0, 52, 0
3, 49635, Note_on_c, 0, 59, 33
3, 49670, Note_on_c, 0, 59, 0
3, 49680, Note_on_c, 0, 52, 29
3, 49680, Note_on_c, 0, 56, 29
3, 49680, Control_c, 0, 64, 0
3, 49680, Control_c, 0, 64, 127
3, 49680, Note_on_c, 0, 40, 24
3, 49715, Note_on_c, 0, 56, 0
3, 49715, Note_on_c, 0, 52, 0
3, 49718, Note_on_c, 0, 47, 24
3, 49725, Note_on_c, 0, 59, 32
3, 49760, Note_on_c, 0, 59, 0
3, 49770, Note_on_c, 0, 52, 29
3, 49770, Note_on_c, 0, 56, 29
3, 49805, Note_on_c, 0, 56, 0
3, 49805, Note_on_c, 0, 52, 0
3, 49815, Note_on_c, 0, 59, 32
3, 49850, Note_on_c, 0, 59, 0
3, 49860, Note_on_c, 0, 47, 0
3, 49860, Note_on_c, 0, 40, 0
3, 49860, Note_on_c, 0, 52, 29
3, 49860, Note_on_c, 0, 56, 29
3, 49895, Note_on_c, 0, 56, 0
3, 49895, Note_on_c, 0, 52, 0
3, 49905, Note_on_c, 0, 59, 32
3, 49940, Note_on_c, 0, 59, 0
3, 49950, Note_on_c, 0, 52, 29
3, 49950, Note_on_c, 0, 56, 29
3, 49985, Note_on_c, 0, 56, 0
3, 49985, Note_on_c, 0, 52, 0
3, 49995, Note_on_c, 0, 59, 32
3, 50030, Note_on_c, 0, 59, 0
3, 50040, Note_on_c, 0, 52, 29
3, 50040, Note_on_c, 0, 56, 29
3, 50075, Note_on_c, 0, 56, 0
3, 50075, Note_on_c, 0, 52, 0
3, 50085, Note_on_c, 0, 59, 32
3, 50120, Note_on_c, 0, 59, 0
3, 50130, Note_on_c, 0, 52, 29
3, 50130, Note_on_c, 0, 56, 29
3, 50165, Note_on_c, 0, 56, 0
3, 50165, Note_on_c, 0, 52, 0
3, 50175, Note_on_c, 0, 59, 32
3, 50210, Note_on_c, 0, 59, 0
3, 50220, Note_on_c, 0, 52, 29
3, 50220, Note_on_c, 0, 56, 29
3, 50220, Note_on_c, 0, 52, 19
3, 50220, Note_on_c, 0, 56, 19
3, 50220, Control_c, 0, 64, 0
3, 50220, Control_c, 0, 64, 127
3, 50220, Note_on_c, 0, 40, 27
3, 50255, Note_on_c, 0, 56, 0
3, 50255, Note_on_c, 0, 52, 0
3, 50255, Note_on_c, 0, 52, 0
3, 50255, Note_on_c, 0, 56, 0
3, 50258, Note_on_c, 0, 47, 27
3, 50265, Note_on_c, 0, 61, 39
3, 50300, Note_on_c, 0, 61, 0
3, 50310, Note_on_c, 0, 52, 19
3, 50310, Note_on_c, 0, 56, 19
3, 50345, Note_on_c, 0, 56, 0
3, 50345, Note_on_c, 0, 52, 0
3, 50355, Note_on_c, 0, 61, 39
3, 50390, Note_on_c, 0, 61, 0
3, 50400, Note_on_c, 0, 47, 0
3, 50400, Note_on_c, 0, 40, 0
3, 50400, Note_on_c, 0, 52, 19
3, 50400, Note_on_c, 0, 56, 19
3, 50435, Note_on_c, 0, 56, 0
3, 50435, Note_on_c, 0, 52, 0
3, 50445, Note_on_c, 0, 61, 39
3, 50480, Note_on_c, 0, 61, 0
3, 50490, Note_on_c, 0, 52, 19
3, 50490, Note_on_c, 0, 56, 19
3, 50525, Note_on_c, 0, 56, 0
3, 50525, Note_on_c, 0, 52, 0
3, 50535, Note_on_c, 0, 61, 39
3, 50570, Note_on_c, 0, 61, 0
3, 50580, Note_on_c, 0, 52, 19
3, 50580, Note_on_c, 0, 56, 19
3, 50580, Control_c, 0, 64, 0
3, 50615, Note_on_c, 0, 56, 0
3, 50615, Note_on_c, 0, 52, 0
3, 50625, Note_on_c, 0, 61, 39
3, 50660, Note_on_c, 0, 61, 0
3, 50670, Note_on_c, 0, 52, 19
3, 50670, Note_on_c, 0, 56, 19
3, 50705, Note_on_c, 0, 56, 0
3, 50705, Note_on_c, 0, 52, 0
3, 50715, Note_on_c, 0, 61, 39
3, 50750, Note_on_c, 0, 61, 0
3, 50760, Note_on_c, 0, 55, 23
3, 50760, Control_c, 0, 64, 127
3, 50760, Note_on_c, 0, 39, 26
3, 50760, Note_on_c, 0, 51, 26
3, 50795, Note_on_c, 0, 55, 0
3, 50805, Note_on_c, 0, 59, 30
3, 50840, Note_on_c, 0, 59, 0
3, 50850, Note_on_c, 0, 55, 23
3, 50885, Note_on_c, 0, 55, 0
3, 50895, Note_on_c, 0, 59, 30
3, 50930, Note_on_c, 0, 59, 0
3, 50940, Note_on_c, 0, 51, 0
3, 50940, Note_on_c, 0, 39, 0
3, 50940, Note_on_c, 0, 55, 23
3, 50975, Note_on_c, 0, 55, 0
3, 50985, Note_on_c, 0, 59, 30
3, 51020, Note_on_c, 0, 59, 0
3, 51030, Note_on_c, 0, 55, 23
3, 51065, Note_on_c, 0, 55, 0
3, 51075, Note_on_c, 0, 59, 30
3, 51110, Note_on_c, 0, 59, 0
3, 51120, Note_on_c, 0, 55, 23
3, 51120, Control_c, 0, 64, 0
3, 51155, Note_on_c, 0, 55, 0
3, 51165, Note_on_c, 0, 59, 30
3, 51200, Note_on_c, 0, 59, 0
3, 51210, Note_on_c, 0, 55, 23
3, 51245, Note_on_c, 0, 55, 0
3, 51255, Note_on_c, 0, 59, 30
3, 51290, Note_on_c, 0, 59, 0
3, 51300, Note_on_c, 0, 55, 23
3, 51300, Note_on_c, 0, 56, 28
3, 51300, Control_c, 0, 64, 127
3, 51300, Note_on_c, 0, 44, 23
3, 51335, Note_on_c, 0, 56, 0
3, 51335, Note_on_c, 0, 55, 0
3, 51338, Note_on_c, 0, 51, 23
3, 51345, Note_on_c, 0, 61, 40
3, 51380, Note_on_c, 0, 61, 0
3, 51390, Note_on_c, 0, 56, 28
3, 51425, Note_on_c, 0, 56, 0
3, 51435, Note_on_c, 0, 61, 40
3, 51470, Note_on_c, 0, 61, 0
3, 51480, Note_on_c, 0, 51, 0
3, 51480, Note_on_c, 0, 44, 0
3, 51480, Note_on_c, 0, 56, 28
3, 51515, Note_on_c, 0, 56, 0
3, 51525, Note_on_c, 0, 61, 40
3, 51560, Note_on_c, 0, 61, 0
3, 51570, Note_on_c, 0, 56, 28
3, 51605, Note_on_c, 0, 56, 0
3, 51615, Note_on_c, 0, 61, 40
3, 51650, Note_on_c, 0, 61, 0
3, 51660, Note_on_c, 0, 56, 28
3, 51695, Note_on_c, 0, 56, 0
3, 51705, Note_on_c, 0, 61, 40
3, 51740, Note_on_c, 0, 61, 0
3, 51750, Note_on_c, 0, 56, 28
3, 51785, Note_on_c, 0, 56, 0
3, 51795, Note_on_c, 0, 61, 40
3, 51830, Note_on_c, 0, 61, 0
3, 51840, Control_c, 0, 64, 0
3, 51840, Control_c, 0, 64, 127
3, 51840, Note_on_c, 0, 56, 27
3, 51930, Note_on_c, 0, 56, 0
3, 51930, Note_on_c, 0, 56, 31
3, 52020, Note_on_c, 0, 56, 0
3, 52020, Note_on_c, 0, 56, 29
3, 52110, Note_on_c, 0, 56, 0
3, 52110, Note_on_c, 0, 56, 26
3, 52200, Note_on_c, 0, 56, 0
3, 52200, Note_on_c, 0, 59, 24
3, 52200, Note_on_c, 0, 55, 29
3, 52290, Note_on_c, 0, 55, 0
3, 52290, Note_on_c, 0, 59, 0
3, 52290, Note_on_c, 0, 59, 30
3, 52290, Control_c, 0, 64, 0
3, 52290, Note_on_c, 0, 55, 29
3, 52380, Note_on_c, 0, 55, 0
3, 52380, Note_on_c, 0, 59, 0
3, 52380, Note_on_c, 0, 57, 27
3, 52380, Note_on_c, 0, 59, 27
3, 52380, Control_c, 0, 64, 127
3, 52380, Note_on_c, 0, 54, 23
3, 52470, Note_on_c, 0, 54, 0
3, 52470, Note_on_c, 0, 59, 0
3, 52470, Note_on_c, 0, 57, 0
3, 52470, Note_on_c, 0, 57, 33
3, 52470, Note_on_c, 0, 59, 33
3, 52470, Note_on_c, 0, 54, 30
3, 52560, Note_on_c, 0, 54, 0
3, 52560, Note_on_c, 0, 59, 0
3, 52560, Note_on_c, 0, 57, 0
3, 52560, Note_on_c, 0, 57, 33
3, 52560, Note_on_c, 0, 59, 33
3, 52560, Note_on_c, 0, 52, 29
3, 52650, Note_on_c, 0, 52, 0
3, 52650, Note_on_c, 0, 59, 0
3, 52650, Note_on_c, 0, 57, 0
3, 52650, Note_on_c, 0, 57, 32
3, 52650, Note_on_c, 0, 59, 32
3, 52650, Note_on_c, 0, 52, 31
3, 52740, Note_on_c, 0, 52, 0
3, 52740, Note_on_c, 0, 59, 0
3, 52740, Note_on_c, 0, 57, 0
3, 52740, Note_on_c, 0, 57, 30
3, 52740, Note_on_c, 0, 59, 30
3, 52740, Note_on_c, 0, 51, 31
3, 52830, Note_on_c, 0, 51, 0
3, 52830, Note_on_c, 0, 59, 0
3, 52830, Note_on_c, 0, 57, 0
3, 52830, Note_on_c, 0, 57, 28
3, 52830, Note_on_c, 0, 59, 28
3, 52830, Control_c, 0, 64, 0
3, 52830, Note_on_c, 0, 51, 30
3, 52920, Note_on_c, 0, 51, 0
3, 52920, Note_on_c, 0, 59, 0
3, 52920, Note_on_c, 0, 57, 0
3, 52920, Note_on_c, 0, 56, 31
3, 52920, Note_on_c, 0, 59, 31
3, 52920, Control_c, 0, 64, 127
3, 52920, Note_on_c, 0, 52, 33
3, 53010, Note_on_c, 0, 52, 0
3, 53010, Note_on_c, 0, 59, 0
3, 53010, Note_on_c, 0, 56, 0
3, 53010, Note_on_c, 0, 52, 27
3, 53010, Note_on_c, 0, 56, 27
3, 53100, Note_on_c, 0, 56, 0
3, 53100, Note_on_c, 0, 52, 0
3, 53100, Note_on_c, 0, 60, 23
3, 53100, Note_on_c, 0, 52, 28
3, 53100, Note_on_c, 0, 56, 28
3, 53190, Note_on_c, 0, 56, 0
3, 53190, Note_on_c, 0, 52, 0
3, 53190, Note_on_c, 0, 52, 26
3, 53190, Note_on_c, 0, 56, 26
3, 53280, Note_on_c, 0, 56, 0
3, 53280, Note_on_c, 0, 52, 0
3, 53280, Note_on_c, 0, 60, 0
3, 53280, Note_on_c, 0, 61, 32
3, 53280, Note_on_c, 0, 52, 33
3, 53280, Note_on_c, 0, 56, 33
3, 53370, Note_on_c, 0, 56, 0
3, 53370, Note_on_c, 0, 52, 0
3, 53370, Control_c, 0, 64, 0
3, 53370, Note_on_c, 0, 52, 26
3, 53370, Note_on_c, 0, 56, 26
3, 53460, Note_on_c, 0, 56, 0
3, 53460, Note_on_c, 0, 52, 0
3, 53460, Note_on_c, 0, 61, 0
3, 53460, Note_on_c, 0, 62, 34
3, 53460, Control_c, 0, 64, 127
3, 53460, Note_on_c, 0, 52, 36
3, 53460, Note_on_c, 0, 56, 36
3, 53550, Note_on_c, 0, 56, 0
3, 53550, Note_on_c, 0, 52, 0
3, 53550, Note_on_c, 0, 52, 31
3, 53550, Note_on_c, 0, 56, 31
3, 53640, Note_on_c, 0, 56, 0
3, 53640, Note_on_c, 0, 52, 0
3, 53640, Note_on_c, 0, 62, 0
3, 53640, Note_on_c, 0, 63, 36
3, 53640, Note_on_c, 0, 52, 34
3, 53640, Note_on_c, 0, 56, 34
3, 53730, Note_on_c, 0, 56, 0
3, 53730, Note_on_c, 0, 52, 0
3, 53730, Note_on_c, 0, 52, 33
3, 53730, Note_on_c, 0, 56, 33
3, 53820, Note_on_c, 0, 56, 0
3, 53820, Note_on_c, 0, 52, 0
3, 53820, Note_on_c, 0, 63, 0
3, 53820, Note_on_c, 0, 64, 35
3, 53820, Note_on_c, 0, 52, 30
3, 53820, Note_on_c, 0, 56, 30
3, 53910, Note_on_c, 0, 56, 0
3, 53910, Note_on_c, 0, 52, 0
3, 53910, Control_c, 0, 64, 0
3, 53910, Note_on_c, 0, 52, 35
3, 53910, Note_on_c, 0, 56, 35
3, 54000, Note_on_c, 0, 56, 0
3, 54000, Note_on_c, 0, 52, 0
3, 54000, Note_on_c, 0, 64, 0
3, 54000, Note_on_c, 0, 63, 25
3, 54000, Control_c, 0, 64, 127
3, 54000, Note_on_c, 0, 52, 28
3, 54000, Note_on_c, 0, 57, 28
3, 54000, Note_on_c, 0, 59, 28
3, 54090, Note_on_c, 0, 59, 0
3, 54090, Note_on_c, 0, 57, 0
3, 54090, Note_on_c, 0, 52, 0
3, 54090, Note_on_c, 0, 52, 31
3, 54090, Note_on_c, 0, 57, 31
3, 54090, Note_on_c, 0, 59, 31
3, 54180, Note_on_c, 0, 59, 0
3, 54180, Note_on_c, 0, 57, 0
3, 54180, Note_on_c, 0, 52, 0
3, 54180, Note_on_c, 0, 52, 31
3, 54180, Note_on_c, 0, 57, 31
3, 54180, Note_on_c, 0, 59, 31
3, 54270, Note_on_c, 0, 59, 0
3, 54270, Note_on_c, 0, 57, 0
3, 54270, Note_on_c, 0, 52, 0
3, 54270, Note_on_c, 0, 52, 27
3, 54270, Note_on_c, 0, 57, 27
3, 54270, Note_on_c, 0, 59, 27
3, 54360, Note_on_c, 0, 59, 0
3, 54360, Note_on_c, 0, 57, 0
3, 54360, Note_on_c, 0, 52, 0
3, 54360, Note_on_c, 0, 57, 47
3, 54360, Note_on_c, 0, 59, 47
3, 54450, Note_on_c, 0, 59, 0
3, 54450, Note_on_c, 0, 57, 0
3, 54450, Note_on_c, 0, 57, 53
3, 54450, Note_on_c, 0, 59, 53
3, 54540, Note_on_c, 0, 59, 0
3, 54540, Note_on_c, 0, 57, 0
3, 54540, Note_on_c, 0, 57, 55
3, 54540, Note_on_c, 0, 59, 55
3, 54540, Control_c, 0, 64, 0
3, 54540, Control_c, 0, 64, 127
3, 54540, Note_on_c, 0, 40, 24
3, 54578, Note_on_c, 0, 47, 24
3, 54616, Note_on_c, 0, 52, 24
3, 54630, Note_on_c, 0, 59, 0
3, 54630, Note_on_c, 0, 57, 0
3, 54630, Note_on_c, 0, 57, 55
3, 54630, Note_on_c, 0, 59, 55
3, 54720, Note_on_c, 0, 59, 0
3, 54720, Note_on_c, 0, 52, 0
3, 54720, Note_on_c, 0, 47, 0
3, 54720, Note_on_c, 0, 63, 0
3, 54720, Note_on_c, 0, 57, 0
3, 54720, Note_on_c, 0, 40, 0
3, 54720, Note_on_c, 0, 57, 59
3, 54720, Note_on_c, 0, 59, 59
3, 54810, Note_on_c, 0, 59, 0
3, 54810, Note_on_c, 0, 57, 0
3, 54810, Note_on_c, 0, 57, 56
3, 54810, Note_on_c, 0, 59, 56
3, 54900, Note_on_c, 0, 59, 0
3, 54900, Note_on_c, 0, 57, 0
3, 54900, Note_on_c, 0, 57, 55
3, 54900, Note_on_c, 0, 59, 55
3, 54990, Note_on_c, 0, 59, 0
3, 54990, Note_on_c, 0, 57, 0
3, 54990, Note_on_c, 0, 57, 54
3, 54990, Note_on_c, 0, 59, 54
3, 55080, Note_on_c, 0, 59, 0
3, 55080, Note_on_c, 0, 57, 0
3, 55080, Note_on_c, 0, 56, 25
3, 55080, Note_on_c, 0, 59, 25
3, 55080, Control_c, 0, 64, 0
3, 55080, Control_c, 0, 64, 127
3, 55080, Note_on_c, 0, 52, 20
3, 55170, Note_on_c, 0, 59, 0
3, 55170, Note_on_c, 0, 56, 0
3, 55170, Note_on_c, 0, 56, 29
3, 55170, Note_on_c, 0, 59, 29
3, 55260, Note_on_c, 0, 59, 0
3, 55260, Note_on_c, 0, 56, 0
3, 55260, Note_on_c, 0, 52, 0
3, 55260, Note_on_c, 0, 56, 31
3, 55260, Note_on_c, 0, 59, 31
3, 55350, Note_on_c, 0, 59, 0
3, 55350, Note_on_c, 0, 56, 0
3, 55350, Note_on_c, 0, 56, 31
3, 55350, Note_on_c, 0, 59, 31
3, 55440, Note_on_c, 0, 59, 0
3, 55440, Note_on_c, 0, 56, 0
3, 55440, Note_on_c, 0, 56, 29
3, 55440, Note_on_c, 0, 59, 29
3, 55530, Note_on_c, 0, 59, 0
3, 55530, Note_on_c, 0, 56, 0
3, 55530, Note_on_c, 0, 56, 30
3, 55530, Note_on_c, 0, 59, 30
3, 55620, Note_on_c, 0, 59, 0
3, 55620, Note_on_c, 0, 56, 0
3, 55620, Note_on_c, 0, 56, 28
3, 55620, Note_on_c, 0, 59, 28
3, 55620, Control_c, 0, 64, 0
3, 55620, Control_c, 0, 64, 127
3, 55620, Note_on_c, 0, 40, 21
3, 55658, Note_on_c, 0, 47, 21
3, 55696, Note_on_c, 0, 52, 21
3, 55710, Note_on_c, 0, 59, 0
3, 55710, Note_on_c, 0, 56, 0
3, 55710, Note_on_c, 0, 56, 31
3, 55710, Note_on_c, 0, 59, 31
3, 55800, Note_on_c, 0, 59, 0
3, 55800, Note_on_c, 0, 47, 0
3, 55800, Note_on_c, 0, 52, 0
3, 55800, Note_on_c, 0, 40, 0
3, 55800, Note_on_c, 0, 56, 0
3, 55800, Note_on_c, 0, 56, 37
3, 55800, Note_on_c, 0, 59, 37
3, 55890, Note_on_c, 0, 59, 0
3, 55890, Note_on_c, 0, 56, 0
3, 55890, Note_on_c, 0, 56, 28
3, 55890, Note_on_c, 0, 59, 28
3, 55980, Note_on_c, 0, 59, 0
3, 55980, Note_on_c, 0, 56, 0
3, 55980, Note_on_c, 0, 56, 31
3, 55980, Note_on_c, 0, 59, 31
3, 56070, Note_on_c, 0, 59, 0
3, 56070, Note_on_c, 0, 56, 0
3, 56070, Note_on_c, 0, 56, 33
3, 56070, Note_on_c, 0, 59, 33
3, 56160, Note_on_c, 0, 59, 0
3, 56160, Note_on_c, 0, 56, 0
3, 56160, Note_on_c, 0, 54, 34
3, 56160, Note_on_c, 0, 57, 34
3, 56160, Note_on_c, 0, 59, 34
3, 56160, Control_c, 0, 64, 0
3, 56160, Control_c, 0, 64, 127
3, 56160, Note_on_c, 0, 52, 23
3, 56250, Note_on_c, 0, 59, 0
3, 56250, Note_on_c, 0, 54, 0
3, 56250, Note_on_c, 0, 57, 0
3, 56250, Note_on_c, 0, 54, 27
3, 56250, Note_on_c, 0, 57, 27
3, 56340, Note_on_c, 0, 57, 0
3, 56340, Note_on_c, 0, 54, 0
3, 56340, Note_on_c, 0, 52, 0
3, 56340, Note_on_c, 0, 54, 27
3, 56340, Note_on_c, 0, 57, 27
3, 56430, Note_on_c, 0, 57, 0
3, 56430, Note_on_c, 0, 54, 0
3, 56430, Note_on_c, 0, 54, 31
3, 56430, Note_on_c, 0, 57, 31
3, 56520, Note_on_c, 0, 57, 0
3, 56520, Note_on_c, 0, 54, 0
3, 56520, Note_on_c, 0, 54, 33
3, 56520, Note_on_c, 0, 57, 33
3, 56520, Note_on_c, 0, 59, 33
3, 56610, Note_on_c, 0, 59, 0
3, 56610, Note_on_c, 0, 57, 0
3, 56610, Note_on_c, 0, 54, 0
3, 56610, Note_on_c, 0, 54, 29
3, 56610, Note_on_c, 0, 57, 29
3, 56610, Note_on_c, 0, 59, 29
3, 56700, Note_on_c, 0, 59, 0
3, 56700, Note_on_c, 0, 57, 0
3, 56700, Note_on_c, 0, 54, 0
3, 56700, Note_on_c, 0, 54, 26
3, 56700, Note_on_c, 0, 57, 26
3, 56700, Note_on_c, 0, 59, 26
3, 56700, Control_c, 0, 64, 0
3, 56700, Control_c, 0, 64, 127
3, 56700, Note_on_c, 0, 40, 24
3, 56738, Note_on_c, 0, 47, 24
3, 56776, Note_on_c, 0, 52, 24
3, 56790, Note_on_c, 0, 59, 0
3, 56790, Note_on_c, 0, 54, 0
3, 56790, Note_on_c, 0, 57, 0
3, 56790, Note_on_c, 0, 54, 35
3, 56790, Note_on_c, 0, 57, 35
3, 56790, Note_on_c, 0, 59, 35
3, 56880, Note_on_c, 0, 59, 0
3, 56880, Note_on_c, 0, 47, 0
3, 56880, Note_on_c, 0, 40, 0
3, 56880, Note_on_c, 0, 52, 0
3, 56880, Note_on_c, 0, 57, 0
3, 56880, Note_on_c, 0, 54, 0
3, 56880, Note_on_c, 0, 54, 32
3, 56880, Note_on_c, 0, 57, 32
3, 56880, Note_on_c, 0, 59, 32
3, 56970, Note_on_c, 0, 59, 0
3, 56970, Note_on_c, 0, 57, 0
3, 56970, Note_on_c, 0, 54, 0
3, 56970, Note_on_c, 0, 54, 32
3, 56970, Note_on_c, 0, 57, 32
3, 56970, Note_on_c, 0, 59, 32
3, 57060, Note_on_c, 0, 59, 0
3, 57060, Note_on_c, 0, 57, 0
3, 57060, Note_on_c, 0, 54, 0
3, 57060, Note_on_c, 0, 54, 32
3, 57060, Note_on_c, 0, 57, 32
3, 57060, Note_on_c, 0, 59, 32
3, 57150, Note_on_c, 0, 59, 0
3, 57150, Note_on_c, 0, 57, 0
3, 57150, Note_on_c, 0, 54, 0
3, 57150, Note_on_c, 0, 54, 31
3, 57150, Note_on_c, 0, 57, 31
3, 57150, Note_on_c, 0, 59, 31
3, 57240, Note_on_c, 0, 59, 0
3, 57240, Note_on_c, 0, 57, 0
3, 57240, Note_on_c, 0, 54, 0
3, 57240, Note_on_c, 0, 56, 27
3, 57240, Note_on_c, 0, 59, 27
3, 57240, Control_c, 0, 64, 0
3, 57240, Control_c, 0, 64, 127
3, 57240, Note_on_c, 0, 52, 24
3, 57330, Note_on_c, 0, 52, 0
3, 57330, Note_on_c, 0, 59, 0
3, 57330, Note_on_c, 0, 56, 0
3, 57330, Note_on_c, 0, 52, 31
3, 57330, Note_on_c, 0, 56, 31
3, 57420, Note_on_c, 0, 56, 0
3, 57420, Note_on_c, 0, 52, 0
3, 57420, Note_on_c, 0, 60, 21
3, 57420, Note_on_c, 0, 52, 27
3, 57420, Note_on_c, 0, 56, 27
3, 57510, Note_on_c, 0, 56, 0
3, 57510, Note_on_c, 0, 52, 0
3, 57510, Note_on_c, 0, 52, 31
3, 57510, Note_on_c, 0, 56, 31
3, 57600, Note_on_c, 0, 56, 0
3, 57600, Note_on_c, 0, 52, 0
3, 57600, Note_on_c, 0, 60, 0
3, 57600, Note_on_c, 0, 61, 28
3, 57600, Note_on_c, 0, 52, 34
3, 57600, Note_on_c, 0, 56, 34
3, 57690, Note_on_c, 0, 56, 0
3, 57690, Note_on_c, 0, 52, 0
3, 57690, Control_c, 0, 64, 0
3, 57690, Note_on_c, 0, 52, 34
3, 57690, Note_on_c, 0, 56, 34
3, 57780, Note_on_c, 0, 56, 0
3, 57780, Note_on_c, 0, 52, 0
3, 57780, Note_on_c, 0, 61, 0
3, 57780, Note_on_c, 0, 62, 34
3, 57780, Control_c, 0, 64, 127
3, 57780, Note_on_c, 0, 52, 29
3, 57780, Note_on_c, 0, 56, 29
3, 57870, Note_on_c, 0, 56, 0
3, 57870, Note_on_c, 0, 52, 0
3, 57870, Note_on_c, 0, 52, 28
3, 57870, Note_on_c, 0, 56, 28
3, 57960, Note_on_c, 0, 56, 0
3, 57960, Note_on_c, 0, 52, 0
3, 57960, Note_on_c, 0, 52, 28
3, 57960, Note_on_c, 0, 56, 28
3, 58050, Note_on_c, 0, 56, 0
3, 58050, Note_on_c, 0, 52, 0
3, 58050, Note_on_c, 0, 52, 32
3, 58050, Note_on_c, 0, 56, 32
3, 58140, Note_on_c, 0, 56, 0
3, 58140, Note_on_c, 0, 52, 0
3, 58140, Note_on_c, 0, 52, 31
3, 58140, Note_on_c, 0, 56, 31
3, 58230, Note_on_c, 0, 56, 0
3, 58230, Note_on_c, 0, 52, 0
3, 58230, Note_on_c, 0, 52, 30
3, 58230, Note_on_c, 0, 56, 30
3, 58320, Note_on_c, 0, 56, 0
3, 58320, Note_on_c, 0, 52, 0
3, 58320, Note_on_c, 0, 62, 0
3, 58320, Note_on_c, 0, 63, 37
3, 58320, Control_c, 0, 64, 0
3, 58320, Control_c, 0, 64, 127
3, 58320, Note_on_c, 0, 51, 33
3, 58320, Note_on_c, 0, 59, 33
3, 58410, Note_on_c, 0, 59, 0
3, 58410, Note_on_c, 0, 51, 0
3, 58410, Note_on_c, 0, 51, 32
3, 58410, Note_on_c, 0, 59, 32
3, 58500, Note_on_c, 0, 59, 0
3, 58500, Note_on_c, 0, 51, 0
3, 58500, Note_on_c, 0, 51, 30
3, 58500, Note_on_c, 0, 59, 30
3, 58590, Note_on_c, 0, 59, 0
3, 58590, Note_on_c, 0, 51, 0
3, 58590, Note_on_c, 0, 51, 34
3, 58590, Note_on_c, 0, 59, 34
3, 58680, Note_on_c, 0, 59, 0
3, 58680, Note_on_c, 0, 51, 0
3, 58680, Note_on_c, 0, 63, 0
3, 58680, Note_on_c, 0, 62, 27
3, 58680, Note_on_c, 0, 51, 27
3, 58680, Note_on_c, 0, 59, 27
3, 58770, Note_on_c, 0, 59, 0
3, 58770, Note_on_c, 0, 51, 0
3, 58770, Note_on_c, 0, 51, 31
3, 58770, Note_on_c, 0, 59, 31
3, 58860, Note_on_c, 0, 59, 0
3, 58860, Note_on_c, 0, 51, 0
3, 58860, Note_on_c, 0, 62, 0
3, 58860, Note_on_c, 0, 63, 34
3, 58860, Control_c, 0, 64, 0
3, 58860, Control_c, 0, 64, 127
3, 58860, Note_on_c, 0, 51, 32
3, 58860, Note_on_c, 0, 58, 32
3, 58860, Note_on_c, 0, 61, 32
3, 58950, Note_on_c, 0, 61, 0
3, 58950, Note_on_c, 0, 58, 0
3, 58950, Note_on_c, 0, 51, 0
3, 58950, Note_on_c, 0, 51, 36
3, 58950, Note_on_c, 0, 58, 36
3, 58950, Note_on_c, 0, 61, 36
3, 59040, Note_on_c, 0, 61, 0
3, 59040, Note_on_c, 0, 63, 0
3, 59040, Note_on_c, 0, 51, 0
3, 59040, Note_on_c, 0, 58, 0
3, 59040, Note_on_c, 0, 65, 33
3, 59040, Note_on_c, 0, 51, 30
3, 59040, Note_on_c, 0, 58, 30
3, 59040, Note_on_c, 0, 61, 30
3, 59130, Note_on_c, 0, 61, 0
3, 59130, Note_on_c, 0, 58, 0
3, 59130, Note_on_c, 0, 51, 0
3, 59130, Note_on_c, 0, 51, 29
3, 59130, Note_on_c, 0, 58, 29
3, 59130, Note_on_c, 0, 61, 29
3, 59220, Note_on_c, 0, 61, 0
3, 59220, Note_on_c, 0, 65, 0
3, 59220, Note_on_c, 0, 51, 0
3, 59220, Note_on_c, 0, 58, 0
3, 59220, Note_on_c, 0, 67, 36
3, 59220, Note_on_c, 0, 51, 35
3, 59220, Note_on_c, 0, 58, 35
3, 59220, Note_on_c, 0, 61, 35
3, 59310, Note_on_c, 0, 61, 0
3, 59310, Note_on_c, 0, 58, 0
3, 59310, Note_on_c, 0, 51, 0
3, 59310, Control_c, 0, 64, 0
3, 59310, Note_on_c, 0, 51, 35
3, 59310, Note_on_c, 0, 58, 35
3, 59310, Note_on_c, 0, 61, 35
3, 59400, Note_on_c, 0, 61, 0
3, 59400, Note_on_c, 0, 67, 0
3, 59400, Note_on_c, 0, 51, 0
3, 59400, Note_on_c, 0, 58, 0
3, 59400, Note_on_c, 0, 63, 27
3, 59400, Control_c, 0, 64, 127
3, 59400, Note_on_c, 0, 56, 27
3, 59490, Note_on_c, 0, 56, 0
3, 59490, Note_on_c, 0, 63, 0
3, 59490, Note_on_c, 0, 63, 30
3, 59490, Note_on_c, 0, 56, 31
3, 59580, Note_on_c, 0, 56, 0
3, 59580, Note_on_c, 0, 63, 0
3, 59580, Note_on_c, 0, 63, 27
3, 59580, Note_on_c, 0, 56, 34
3, 59670, Note_on_c, 0, 56, 0
3, 59670, Note_on_c, 0, 63, 0
3, 59670, Note_on_c, 0, 63, 32
3, 59670, Note_on_c, 0, 56, 26
3, 59760, Note_on_c, 0, 56, 0
3, 59760, Note_on_c, 0, 63, 0
3, 59760, Note_on_c, 0, 59, 34
3, 59760, Note_on_c, 0, 63, 34
3, 59760, Note_on_c, 0, 44, 31
3, 59760, Note_on_c, 0, 56, 31
3, 59850, Note_on_c, 0, 56, 0
3, 59850, Note_on_c, 0, 59, 0
3, 59850, Note_on_c, 0, 63, 0
3, 59850, Note_on_c, 0, 44, 0
3, 59850, Note_on_c, 0, 59, 24
3, 59850, Note_on_c, 0, 63, 24
3, 59850, Note_on_c, 0, 44, 31
3, 59850, Note_on_c, 0, 56, 31
3, 59940, Note_on_c, 0, 56, 0
3, 59940, Note_on_c, 0, 59, 0
3, 59940, Note_on_c, 0, 63, 0
3, 59940, Note_on_c, 0, 44, 0
3, 59940, Note_on_c, 0, 57, 30
3, 59940, Note_on_c, 0, 59, 30
3, 59940, Note_on_c, 0, 63, 30
3, 59940, Note_on_c, 0, 42, 28
3, 59940, Note_on_c, 0, 54, 28
3, 60120, Note_on_c, 0, 54, 0
3, 60120, Note_on_c, 0, 63, 0
3, 60120, Note_on_c, 0, 57, 0
3, 60120, Note_on_c, 0, 59, 0
3, 60120, Note_on_c, 0, 42, 0
3, 60120, Control_c, 0, 64, 0
3, 60480, Note_on_c, 0, 52, 25
3, 60480, Note_on_c, 0, 56, 25
3, 60480, Control_c, 0, 64, 127
3, 60480, Note_on_c, 0, 40, 26
3, 60515, Note_on_c, 0, 56, 0
3, 60515, Note_on_c, 0, 52, 0
3, 60518, Note_on_c, 0, 47, 26
3, 60525, Note_on_c, 0, 59, 30
3, 60560, Note_on_c, 0, 59, 0
3, 60570, Note_on_c, 0, 52, 25
3, 60570, Note_on_c, 0, 56, 25
3, 60605, Note_on_c, 0, 56, 0
3, 60605, Note_on_c, 0, 52, 0
3, 60615, Note_on_c, 0, 59, 30
3, 60650, Note_on_c, 0, 59, 0
3, 60660, Note_on_c, 0, 47, 0
3, 60660, Note_on_c, 0, 40, 0
3, 60660, Note_on_c, 0, 52, 25
3, 60660, Note_on_c, 0, 56, 25
3, 60695, Note_on_c, 0, 56, 0
3, 60695, Note_on_c, 0, 52, 0
3, 60705, Note_on_c, 0, 59, 30
3, 60740, Note_on_c, 0, 59, 0
3, 60750, Note_on_c, 0, 52, 25
3, 60750, Note_on_c, 0, 56, 25
3, 60785, Note_on_c, 0, 56, 0
3, 60785, Note_on_c, 0, 52, 0
3, 60795, Note_on_c, 0, 59, 30
3, 60830, Note_on_c, 0, 59, 0
3, 60840, Note_on_c, 0, 52, 25
3, 60840, Note_on_c, 0, 56, 25
3, 60840, Control_c, 0, 64, 0
3, 60875, Note_on_c, 0, 56, 0
3, 60875, Note_on_c, 0, 52, 0
3, 60885, Note_on_c, 0, 59, 30
3, 60920, Note_on_c, 0, 59, 0
3, 60930, Note_on_c, 0, 52, 25
3, 60930, Note_on_c, 0, 56, 25
3, 60965, Note_on_c, 0, 56, 0
3, 60965, Note_on_c, 0, 52, 0
3, 60975, Note_on_c, 0, 59, 30
3, 61010, Note_on_c, 0, 59, 0
3, 61020, Note_on_c, 0, 52, 25
3, 61020, Note_on_c, 0, 56, 25
3, 61020, Note_on_c, 0, 52, 30
3, 61020, Note_on_c, 0, 57, 30
3, 61020, Control_c, 0, 64, 127
3, 61020, Note_on_c, 0, 40, 26
3, 61055, Note_on_c, 0, 57, 0
3, 61055, Note_on_c, 0, 52, 0
3, 61055, Note_on_c, 0, 52, 0
3, 61055, Note_on_c, 0, 56, 0
3, 61058, Note_on_c, 0, 47, 26
3, 61065, Note_on_c, 0, 59, 34
3, 61100, Note_on_c, 0, 59, 0
3, 61110, Note_on_c, 0, 52, 30
3, 61110, Note_on_c, 0, 57, 30
3, 61145, Note_on_c, 0, 57, 0
3, 61145, Note_on_c, 0, 52, 0
3, 61155, Note_on_c, 0, 59, 34
3, 61190, Note_on_c, 0, 59, 0
3, 61200, Note_on_c, 0, 47, 0
3, 61200, Note_on_c, 0, 40, 0
3, 61200, Note_on_c, 0, 52, 30
3, 61200, Note_on_c, 0, 57, 30
3, 61235, Note_on_c, 0, 57, 0
3, 61235, Note_on_c, 0, 52, 0
3, 61245, Note_on_c, 0, 59, 34
3, 61280, Note_on_c, 0, 59, 0
3, 61290, Note_on_c, 0, 52, 30
3, 61290, Note_on_c, 0, 57, 30
3, 61325, Note_on_c, 0, 57, 0
3, 61325, Note_on_c, 0, 52, 0
3, 61335, Note_on_c, 0, 59, 34
3, 61370, Note_on_c, 0, 59, 0
3, 61380, Note_on_c, 0, 52, 30
3, 61380, Note_on_c, 0, 57, 30
3, 61415, Note_on_c, 0, 57, 0
3, 61415, Note_on_c, 0, 52, 0
3, 61425, Note_on_c, 0, 59, 34
3, 61460, Note_on_c, 0, 59, 0
3, 61470, Note_on_c, 0, 52, 30
3, 61470, Note_on_c, 0, 57, 30
3, 61505, Note_on_c, 0, 57, 0
3, 61505, Note_on_c, 0, 52, 0
3, 61515, Note_on_c, 0, 59, 34
3, 61550, Note_on_c, 0, 59, 0
3, 61560, Note_on_c, 0, 52, 32
3, 61560, Note_on_c, 0, 57, 32
3, 61560, Control_c, 0, 64, 0
3, 61560, Control_c, 0, 64, 127
3, 61595, Note_on_c, 0, 57, 0
3, 61595, Note_on_c, 0, 52, 0
3, 61605, Note_on_c, 0, 59, 34
3, 61640, Note_on_c, 0, 59, 0
3, 61650, Note_on_c, 0, 52, 32
3, 61650, Note_on_c, 0, 57, 32
3, 61685, Note_on_c, 0, 57, 0
3, 61685, Note_on_c, 0, 52, 0
3, 61695, Note_on_c, 0, 59, 34
3, 61730, Note_on_c, 0, 59, 0
3, 61740, Note_on_c, 0, 52, 32
3, 61740, Note_on_c, 0, 57, 32
3, 61775, Note_on_c, 0, 57, 0
3, 61775, Note_on_c, 0, 52, 0
3, 61785, Note_on_c, 0, 59, 34
3, 61820, Note_on_c, 0, 59, 0
3, 61830, Note_on_c, 0, 52, 32
3, 61830, Note_on_c, 0, 57, 32
3, 61865, Note_on_c, 0, 57, 0
3, 61865, Note_on_c, 0, 52, 0
3, 61875, Note_on_c, 0, 59, 34
3, 61910, Note_on_c, 0, 59, 0
3, 61920, Note_on_c, 0, 52, 32
3, 61920, Note_on_c, 0, 57, 32
3, 61955, Note_on_c, 0, 57, 0
3, 61955, Note_on_c, 0, 52, 0
3, 61965, Note_on_c, 0, 59, 34
3, 62000, Note_on_c, 0, 59, 0
3, 62010, Note_on_c, 0, 52, 32
3, 62010, Note_on_c, 0, 57, 32
3, 62045, Note_on_c, 0, 57, 0
3, 62045, Note_on_c, 0, 52, 0
3, 62055, Note_on_c, 0, 59, 34
3, 62090, Note_on_c, 0, 59, 0
3, 62100, Note_on_c, 0, 52, 32
3, 62100, Note_on_c, 0, 57, 32
3, 62135, Note_on_c, 0, 57, 0
3, 62135, Note_on_c, 0, 52, 0
3, 62145, Note_on_c, 0, 59, 34
3, 62180, Note_on_c, 0, 59, 0
3, 62190, Note_on_c, 0, 52, 32
3, 62190, Note_on_c, 0, 57, 32
3, 62225, Note_on_c, 0, 57, 0
3, 62225, Note_on_c, 0, 52, 0
3, 62235, Note_on_c, 0, 59, 34
3, 62270, Note_on_c, 0, 59, 0
3, 62280, Note_on_c, 0, 52, 32
3, 62280, Note_on_c, 0, 57, 32
3, 62315, Note_on_c, 0, 57, 0
3, 62315, Note_on_c, 0, 52, 0
3, 62325, Note_on_c, 0, 59, 34
3, 62360, Note_on_c, 0, 59, 0
3, 62370, Note_on_c, 0, 52, 32
3, 62370, Note_on_c, 0, 57, 32
3, 62405, Note_on_c, 0, 57, 0
3, 62405, Note_on_c, 0, 52, 0
3, 62415, Note_on_c, 0, 59, 34
3, 62450, Note_on_c, 0, 59, 0
3, 62460, Note_on_c, 0, 52, 32
3, 62460, Note_on_c, 0, 57, 32
3, 62495, Note_on_c, 0, 57, 0
3, 62495, Note_on_c, 0, 52, 0
3, 62505, Note_on_c, 0, 59, 34
3, 62540, Note_on_c, 0, 59, 0
3, 62550, Note_on_c, 0, 52, 32
3, 62550, Note_on_c, 0, 57, 32
3, 62585, Note_on_c, 0, 57, 0
3, 62585, Note_on_c, 0, 52, 0
3, 62595, Note_on_c, 0, 59, 34
3, 62630, Note_on_c, 0, 59, 0
3, 62640, Note_on_c, 0, 52, 33
3, 62640, Note_on_c, 0, 56, 33
3, 62640, Control_c, 0, 64, 0
3, 62640, Control_c, 0, 64, 127
3, 62640, Note_on_c, 0, 40, 21
3, 62675, Note_on_c, 0, 56, 0
3, 62675, Note_on_c, 0, 52, 0
3, 62678, Note_on_c, 0, 47, 21
3, 62685, Note_on_c, 0, 59, 33
3, 62720, Note_on_c, 0, 59, 0
3, 62730, Note_on_c, 0, 52, 33
3, 62730, Note_on_c, 0, 56, 33
3, 62765, Note_on_c, 0, 56, 0
3, 62765, Note_on_c, 0, 52, 0
3, 62775, Note_on_c, 0, 59, 33
3, 62810, Note_on_c, 0, 59, 0
3, 62820, Note_on_c, 0, 47, 0
3, 62820, Note_on_c, 0, 40, 0
3, 62820, Note_on_c, 0, 52, 33
3, 62820, Note_on_c, 0, 56, 33
3, 62855, Note_on_c, 0, 56, 0
3, 62855, Note_on_c, 0, 52, 0
3, 62865, Note_on_c, 0, 59, 33
3, 62900, Note_on_c, 0, 59, 0
3, 62910, Note_on_c, 0, 52, 33
3, 62910, Note_on_c, 0, 56, 33
3, 62945, Note_on_c, 0, 56, 0
3, 62945, Note_on_c, 0, 52, 0
3, 62955, Note_on_c, 0, 59, 33
3, 62990, Note_on_c, 0, 59, 0
3, 63000, Note_on_c, 0, 52, 33
3, 63000, Note_on_c, 0, 56, 33
3, 63035, Note_on_c, 0, 56, 0
3, 63035, Note_on_c, 0, 52, 0
3, 63045, Note_on_c, 0, 59, 33
3, 63080, Note_on_c, 0, 59, 0
3, 63090, Note_on_c, 0, 52, 33
3, 63090, Note_on_c, 0, 56, 33
3, 63125, Note_on_c, 0, 56, 0
3, 63125, Note_on_c, 0, 52, 0
3, 63135, Note_on_c, 0, 59, 33
3, 63170, Note_on_c, 0, 59, 0
3, 63180, Note_on_c, 0, 52, 33
3, 63180, Note_on_c, 0, 56, 33
3, 63180, Note_on_c, 0, 52, 25
3, 63180, Note_on_c, 0, 55, 25
3, 63180, Note_on_c, 0, 58, 25
3, 63215, Note_on_c, 0, 58, 0
3, 63215, Note_on_c, 0, 52, 0
3, 63215, Note_on_c, 0, 52, 0
3, 63215, Note_on_c, 0, 56, 0
3, 63215, Note_on_c, 0, 55, 0
3, 63225, Note_on_c, 0, 61, 35
3, 63260, Note_on_c, 0, 61, 0
3, 63270, Note_on_c, 0, 52, 25
3, 63270, Note_on_c, 0, 55, 25
3, 63270, Note_on_c, 0, 58, 25
3, 63305, Note_on_c, 0, 58, 0
3, 63305, Note_on_c, 0, 55, 0
3, 63305, Note_on_c, 0, 52, 0
3, 63315, Note_on_c, 0, 61, 35
3, 63350, Note_on_c, 0, 61, 0
3, 63360, Note_on_c, 0, 52, 25
3, 63360, Note_on_c, 0, 55, 25
3, 63360, Note_on_c, 0, 58, 25
3, 63395, Note_on_c, 0, 58, 0
3, 63395, Note_on_c, 0, 55, 0
3, 63395, Note_on_c, 0, 52, 0
3, 63405, Note_on_c, 0, 61, 35
3, 63440, Note_on_c, 0, 61, 0
3, 63450, Note_on_c, 0, 52, 25
3, 63450, Note_on_c, 0, 55, 25
3, 63450, Note_on_c, 0, 58, 25
3, 63485, Note_on_c, 0, 58, 0
3, 63485, Note_on_c, 0, 55, 0
3, 63485, Note_on_c, 0, 52, 0
3, 63495, Note_on_c, 0, 61, 35
3, 63530, Note_on_c, 0, 61, 0
3, 63540, Note_on_c, 0, 52, 25
3, 63540, Note_on_c, 0, 55, 25
3, 63540, Note_on_c, 0, 58, 25
3, 63575, Note_on_c, 0, 58, 0
3, 63575, Note_on_c, 0, 55, 0
3, 63575, Note_on_c, 0, 52, 0
3, 63585, Note_on_c, 0, 61, 35
3, 63620, Note_on_c, 0, 61, 0
3, 63630, Note_on_c, 0, 52, 25
3, 63630, Note_on_c, 0, 55, 25
3, 63630, Note_on_c, 0, 58, 25
3, 63665, Note_on_c, 0, 58, 0
3, 63665, Note_on_c, 0, 55, 0
3, 63665, Note_on_c, 0, 52, 0
3, 63675, Note_on_c, 0, 61, 35
3, 63710, Note_on_c, 0, 61, 0
3, 63720, Note_on_c, 0, 52, 32
3, 63720, Note_on_c, 0, 57, 32
3, 63720, Control_c, 0, 64, 0
3, 63720, Control_c, 0, 64, 127
3, 63755, Note_on_c, 0, 57, 0
3, 63755, Note_on_c, 0, 52, 0
3, 63765, Note_on_c, 0, 59, 34
3, 63800, Note_on_c, 0, 59, 0
3, 63810, Note_on_c, 0, 52, 32
3, 63810, Note_on_c, 0, 57, 32
3, 63845, Note_on_c, 0, 57, 0
3, 63845, Note_on_c, 0, 52, 0
3, 63855, Note_on_c, 0, 59, 34
3, 63890, Note_on_c, 0, 59, 0
3, 63900, Note_on_c, 0, 52, 32
3, 63900, Note_on_c, 0, 57, 32
3, 63935, Note_on_c, 0, 57, 0
3, 63935, Note_on_c, 0, 52, 0
3, 63945, Note_on_c, 0, 59, 34
3, 63980, Note_on_c, 0, 59, 0
3, 63990, Note_on_c, 0, 52, 32
3, 63990, Note_on_c, 0, 57, 32
3, 64025, Note_on_c, 0, 57, 0
3, 64025, Note_on_c, 0, 52, 0
3, 64035, Note_on_c, 0, 59, 34
3, 64070, Note_on_c, 0, 59, 0
3, 64080, Note_on_c, 0, 52, 32
3, 64080, Note_on_c, 0, 57, 32
3, 64115, Note_on_c, 0, 57, 0
3, 64115, Note_on_c, 0, 52, 0
3, 64125, Note_on_c, 0, 59, 34
3, 64160, Note_on_c, 0, 59, 0
3, 64170, Note_on_c, 0, 52, 32
3, 64170, Note_on_c, 0, 57, 32
3, 64205, Note_on_c, 0, 57, 0
3, 64205, Note_on_c, 0, 52, 0
3, 64215, Note_on_c, 0, 59, 34
3, 64250, Note_on_c, 0, 59, 0
3, 64260, Note_on_c, 0, 52, 32
3, 64260, Note_on_c, 0, 57, 32
3, 64295, Note_on_c, 0, 57, 0
3, 64295, Note_on_c, 0, 52, 0
3, 64305, Note_on_c, 0, 59, 34
3, 64340, Note_on_c, 0, 59, 0
3, 64350, Note_on_c, 0, 52, 32
3, 64350, Note_on_c, 0, 57, 32
3, 64385, Note_on_c, 0, 57, 0
3, 64385, Note_on_c, 0, 52, 0
3, 64395, Note_on_c, 0, 59, 34
3, 64430, Note_on_c, 0, 59, 0
3, 64440, Note_on_c, 0, 52, 32
3, 64440, Note_on_c, 0, 57, 32
3, 64475, Note_on_c, 0, 57, 0
3, 64475, Note_on_c, 0, 52, 0
3, 64485, Note_on_c, 0, 59, 34
3, 64520, Note_on_c, 0, 59, 0
3, 64530, Note_on_c, 0, 52, 32
3, 64530, Note_on_c, 0, 57, 32
3, 64565, Note_on_c, 0, 57, 0
3, 64565, Note_on_c, 0, 52, 0
3, 64575, Note_on_c, 0, 59, 34
3, 64610, Note_on_c, 0, 59, 0
3, 64620, Note_on_c, 0, 52, 32
3, 64620, Note_on_c, 0, 57, 32
3, 64655, Note_on_c, 0, 57, 0
3, 64655, Note_on_c, 0, 52, 0
3, 64665, Note_on_c, 0, 59, 34
3, 64700, Note_on_c, 0, 59, 0
3, 64710, Note_on_c, 0, 52, 32
3, 64710, Note_on_c, 0, 57, 32
3, 64745, Note_on_c, 0, 57, 0
3, 64745, Note_on_c, 0, 52, 0
3, 64755, Note_on_c, 0, 59, 34
3, 64790, Note_on_c, 0, 59, 0
3, 64800, Note_on_c, 0, 52, 30
3, 64800, Note_on_c, 0, 56, 30
3, 64800, Control_c, 0, 64, 0
3, 64800, Control_c, 0, 64, 127
3, 64800, Note_on_c, 0, 40, 24
3, 64835, Note_on_c, 0, 56, 0
3, 64835, Note_on_c, 0, 52, 0
3, 64838, Note_on_c, 0, 47, 24
3, 64845, Note_on_c, 0, 59, 32
3, 64880, Note_on_c, 0, 59, 0
3, 64890, Note_on_c, 0, 52, 30
3, 64890, Note_on_c, 0, 56, 30
3, 64925, Note_on_c, 0, 56, 0
3, 64925, Note_on_c, 0, 52, 0
3, 64935, Note_on_c, 0, 59, 32
3, 64970, Note_on_c, 0, 59, 0
3, 64980, Note_on_c, 0, 47, 0
3, 64980, Note_on_c, 0, 40, 0
3, 64980, Note_on_c, 0, 52, 30
3, 64980, Note_on_c, 0, 56, 30
3, 65015, Note_on_c, 0, 56, 0
3, 65015, Note_on_c, 0, 52, 0
3, 65025, Note_on_c, 0, 59, 32
3, 65060, Note_on_c, 0, 59, 0
3, 65070, Note_on_c, 0, 52, 30
3, 65070, Note_on_c, 0, 56, 30
3, 65105, Note_on_c, 0, 56, 0
3, 65105, Note_on_c, 0, 52, 0
3, 65115, Note_on_c, 0, 59, 32
3, 65150, Note_on_c, 0, 59, 0
3, 65160, Note_on_c, 0, 52, 30
3, 65160, Note_on_c, 0, 56, 30
3, 65195, Note_on_c, 0, 56, 0
3, 65195, Note_on_c, 0, 52, 0
3, 65205, Note_on_c, 0, 59, 32
3, 65240, Note_on_c, 0, 59, 0
3, 65250, Note_on_c, 0, 52, 30
3, 65250, Note_on_c, 0, 56, 30
3, 65285, Note_on_c, 0, 56, 0
3, 65285, Note_on_c, 0, 52, 0
3, 65295, Note_on_c, 0, 59, 32
3, 65330, Note_on_c, 0, 59, 0
3, 65340, Note_on_c, 0, 52, 30
3, 65340, Note_on_c, 0, 56, 30
3, 65340, Note_on_c, 0, 52, 32
3, 65340, Note_on_c, 0, 57, 32
3, 65375, Note_on_c, 0, 57, 0
3, 65375, Note_on_c, 0, 52, 0
3, 65375, Note_on_c, 0, 56, 0
3, 65375, Note_on_c, 0, 52, 0
3, 65385, Note_on_c, 0, 59, 32
3, 65420, Note_on_c, 0, 59, 0
3, 65430, Note_on_c, 0, 52, 32
3, 65430, Note_on_c, 0, 57, 32
3, 65465, Note_on_c, 0, 57, 0
3, 65465, Note_on_c, 0, 52, 0
3, 65475, Note_on_c, 0, 59, 32
3, 65510, Note_on_c, 0, 59, 0
3, 65520, Note_on_c, 0, 52, 32
3, 65520, Note_on_c, 0, 57, 32
3, 65555, Note_on_c, 0, 57, 0
3, 65555, Note_on_c, 0, 52, 0
3, 65565, Note_on_c, 0, 59, 32
3, 65600, Note_on_c, 0, 59, 0
3, 65610, Note_on_c, 0, 52, 32
3, 65610, Note_on_c, 0, 57, 32
3, 65645, Note_on_c, 0, 57, 0
3, 65645, Note_on_c, 0, 52, 0
3, 65655, Note_on_c, 0, 59, 32
3, 65690, Note_on_c, 0, 59, 0
3, 65700, Note_on_c, 0, 52, 32
3, 65700, Note_on_c, 0, 57, 32
3, 65735, Note_on_c, 0, 57, 0
3, 65735, Note_on_c, 0, 52, 0
3, 65745, Note_on_c, 0, 59, 32
3, 65780, Note_on_c, 0, 59, 0
3, 65790, Note_on_c, 0, 52, 32
3, 65790, Note_on_c, 0, 57, 32
3, 65825, Note_on_c, 0, 57, 0
3, 65825, Note_on_c, 0, 52, 0
3, 65835, Note_on_c, 0, 59, 32
3, 65870, Note_on_c, 0, 59, 0
3, 65880, Note_on_c, 0, 52, 26
3, 65880, Note_on_c, 0, 57, 26
3, 65880, Control_c, 0, 64, 0
3, 65880, Control_c, 0, 64, 127
3, 65915, Note_on_c, 0, 57, 0
3, 65915, Note_on_c, 0, 52, 0
3, 65925, Note_on_c, 0, 59, 35
3, 65960, Note_on_c, 0, 59, 0
3, 65970, Note_on_c, 0, 52, 26
3, 65970, Note_on_c, 0, 57, 26
3, 66005, Note_on_c, 0, 57, 0
3, 66005, Note_on_c, 0, 52, 0
3, 66015, Note_on_c, 0, 59, 35
3, 66050, Note_on_c, 0, 59, 0
3, 66060, Note_on_c, 0, 52, 26
3, 66060, Note_on_c, 0, 57, 26
3, 66095, Note_on_c, 0, 57, 0
3, 66095, Note_on_c, 0, 52, 0
3, 66105, Note_on_c, 0, 59, 35
3, 66140, Note_on_c, 0, 59, 0
3, 66150, Note_on_c, 0, 52, 26
3, 66150, Note_on_c, 0, 57, 26
3, 66185, Note_on_c, 0, 57, 0
3, 66185, Note_on_c, 0, 52, 0
3, 66195, Note_on_c, 0, 59, 35
3, 66230, Note_on_c, 0, 59, 0
3, 66240, Note_on_c, 0, 52, 26
3, 66240, Note_on_c, 0, 57, 26
3, 66275, Note_on_c, 0, 57, 0
3, 66275, Note_on_c, 0, 52, 0
3, 66285, Note_on_c, 0, 59, 35
3, 66320, Note_on_c, 0, 59, 0
3, 66330, Note_on_c, 0, 52, 26
3, 66330, Note_on_c, 0, 57, 26
3, 66365, Note_on_c, 0, 57, 0
3, 66365, Note_on_c, 0, 52, 0
3, 66375, Note_on_c, 0, 59, 35
3, 66410, Note_on_c, 0, 59, 0
3, 66420, Note_on_c, 0, 52, 26
3, 66420, Note_on_c, 0, 57, 26
3, 66420, Note_on_c, 0, 52, 26
3, 66420, Note_on_c, 0, 56, 26
3, 66455, Note_on_c, 0, 56, 0
3, 66455, Note_on_c, 0, 52, 0
3, 66455, Note_on_c, 0, 57, 0
3, 66455, Note_on_c, 0, 52, 0
3, 66465, Note_on_c, 0, 59, 30
3, 66500, Note_on_c, 0, 59, 0
3, 66510, Note_on_c, 0, 52, 26
3, 66510, Note_on_c, 0, 56, 26
3, 66545, Note_on_c, 0, 56, 0
3, 66545, Note_on_c, 0, 52, 0
3, 66555, Note_on_c, 0, 59, 30
3, 66590, Note_on_c, 0, 59, 0
3, 66600, Note_on_c, 0, 52, 26
3, 66600, Note_on_c, 0, 56, 26
3, 66635, Note_on_c, 0, 56, 0
3, 66635, Note_on_c, 0, 52, 0
3, 66645, Note_on_c, 0, 59, 30
3, 66680, Note_on_c, 0, 59, 0
3, 66690, Note_on_c, 0, 52, 26
3, 66690, Note_on_c, 0, 56, 26
3, 66725, Note_on_c, 0, 56, 0
3, 66725, Note_on_c, 0, 52, 0
3, 66735, Note_on_c, 0, 59, 30
3, 66770, Note_on_c, 0, 59, 0
3, 66780, Note_on_c, 0, 52, 26
3, 66780, Note_on_c, 0, 56, 26
3, 66815, Note_on_c, 0, 56, 0
3, 66815, Note_on_c, 0, 52, 0
3, 66825, Note_on_c, 0, 59, 30
3, 66860, Note_on_c, 0, 59, 0
3, 66870, Note_on_c, 0, 52, 26
3, 66870, Note_on_c, 0, 56, 26
3, 66905, Note_on_c, 0, 56, 0
3, 66905, Note_on_c, 0, 52, 0
3, 66915, Note_on_c, 0, 59, 30
3, 66950, Note_on_c, 0, 59, 0
3, 66960, Note_on_c, 0, 55, 31
3, 66960, Note_on_c, 0, 57, 31
3, 66960, Control_c, 0, 64, 0
3, 66960, Control_c, 0, 64, 127
3, 66960, Note_on_c, 0, 40, 24
3, 66960, Note_on_c, 0, 52, 24
3, 66995, Note_on_c, 0, 57, 0
3, 66995, Note_on_c, 0, 55, 0
3, 67005, Note_on_c, 0, 60, 30
3, 67040, Note_on_c, 0, 60, 0
3, 67050, Note_on_c, 0, 55, 31
3, 67050, Note_on_c, 0, 57, 31
3, 67085, Note_on_c, 0, 57, 0
3, 67085, Note_on_c, 0, 55, 0
3, 67095, Note_on_c, 0, 60, 30
3, 67130, Note_on_c, 0, 60, 0
3, 67140, Note_on_c, 0, 55, 31
3, 67140, Note_on_c, 0, 57, 31
3, 67175, Note_on_c, 0, 57, 0
3, 67175, Note_on_c, 0, 55, 0
3, 67185, Note_on_c, 0, 60, 30
3, 67220, Note_on_c, 0, 60, 0
3, 67230, Note_on_c, 0, 55, 31
3, 67230, Note_on_c, 0, 57, 31
3, 67265, Note_on_c, 0, 57, 0
3, 67265, Note_on_c, 0, 55, 0
3, 67275, Note_on_c, 0, 60, 30
3, 67310, Note_on_c, 0, 60, 0
3, 67320, Note_on_c, 0, 55, 31
3, 67320, Note_on_c, 0, 57, 31
3, 67355, Note_on_c, 0, 57, 0
3, 67355, Note_on_c, 0, 55, 0
3, 67365, Note_on_c, 0, 60, 30
3, 67400, Note_on_c, 0, 60, 0
3, 67410, Note_on_c, 0, 55, 31
3, 67410, Note_on_c, 0, 57, 31
3, 67445, Note_on_c, 0, 57, 0
3, 67445, Note_on_c, 0, 55, 0
3, 67455, Note_on_c, 0, 60, 30
3, 67490, Note_on_c, 0, 60, 0
3, 67500, Note_on_c, 0, 40, 0
3, 67500, Note_on_c, 0, 52, 0
3, 67500, Note_on_c, 0, 55, 31
3, 67500, Note_on_c, 0, 57, 31
3, 67500, Note_on_c, 0, 55, 26
3, 67500, Note_on_c, 0, 59, 26
3, 67500, Control_c, 0, 64, 0
3, 67500, Control_c, 0, 64, 127
3, 67500, Note_on_c, 0, 38, 28
3, 67500, Note_on_c, 0, 50, 28
3, 67535, Note_on_c, 0, 59, 0
3, 67535, Note_on_c, 0, 55, 0
3, 67535, Note_on_c, 0, 55, 0
3, 67535, Note_on_c, 0, 57, 0
3, 67545, Note_on_c, 0, 62, 37
3, 67580, Note_on_c, 0, 62, 0
3, 67590, Note_on_c, 0, 55, 26
3, 67590, Note_on_c, 0, 59, 26
3, 67625, Note_on_c, 0, 59, 0
3, 67625, Note_on_c, 0, 55, 0
3, 67635, Note_on_c, 0, 62, 37
3, 67670, Note_on_c, 0, 62, 0
3, 67680, Note_on_c, 0, 55, 26
3, 67680, Note_on_c, 0, 59, 26
3, 67715, Note_on_c, 0, 59, 0
3, 67715, Note_on_c, 0, 55, 0
3, 67725, Note_on_c, 0, 62, 37
3, 67760, Note_on_c, 0, 62, 0
3, 67770, Note_on_c, 0, 55, 26
3, 67770, Note_on_c, 0, 59, 26
3, 67805, Note_on_c, 0, 59, 0
3, 67805, Note_on_c, 0, 55, 0
3, 67815, Note_on_c, 0, 62, 37
3, 67850, Note_on_c, 0, 62, 0
3, 67860, Note_on_c, 0, 55, 26
3, 67860, Note_on_c, 0, 59, 26
3, 67895, Note_on_c, 0, 59, 0
3, 67895, Note_on_c, 0, 55, 0
3, 67905, Note_on_c, 0, 62, 37
3, 67940, Note_on_c, 0, 62, 0
3, 67950, Note_on_c, 0, 55, 26
3, 67950, Note_on_c, 0, 59, 26
3, 67985, Note_on_c, 0, 59, 0
3, 67985, Note_on_c, 0, 55, 0
3, 67995, Note_on_c, 0, 62, 37
3, 68030, Note_on_c, 0, 62, 0
3, 68040, Note_on_c, 0, 50, 0
3, 68040, Note_on_c, 0, 38, 0
3, 68040, Note_on_c, 0, 55, 30
3, 68040, Note_on_c, 0, 60, 30
3, 68040, Note_on_c, 0, 64, 30
3, 68040, Control_c, 0, 64, 0
3, 68040, Control_c, 0, 64, 127
3, 68040, Note_on_c, 0, 36, 24
3, 68040, Note_on_c, 0, 48, 24
3, 68220, Note_on_c, 0, 48, 0
3, 68220, Note_on_c, 0, 64, 0
3, 68220, Note_on_c, 0, 55, 0
3, 68220, Note_on_c, 0, 60, 0
3, 68220, Note_on_c, 0, 36, 0
3, 68220, Note_on_c, 0, 52, 35
3, 68310, Note_on_c, 0, 52, 0
3, 68310, Note_on_c, 0, 54, 37
3, 68400, Note_on_c, 0, 54, 0
3, 68400, Note_on_c, 0, 55, 39
3, 68490, Note_on_c, 0, 55, 0
3, 68490, Note_on_c, 0, 57, 41
3, 68580, Note_on_c, 0, 57, 0
3, 68580, Note_on_c, 0, 58, 43
3, 68670, Note_on_c, 0, 58, 0
3, 68670, Note_on_c, 0, 60, 45
3, 68760, Note_on_c, 0, 60, 0
3, 68760, Note_on_c, 0, 63, 47
3, 68850, Note_on_c, 0, 63, 0
3, 68850, Note_on_c, 0, 64, 49
3, 68940, Note_on_c, 0, 64, 0
3, 68940, Note_on_c, 0, 66, 51
3, 69030, Note_on_c, 0, 66, 0
3, 69030, Note_on_c, 0, 67, 54
3, 69120, Note_on_c, 0, 67, 0
3, 69120, Note_on_c, 0, 59, 56
3, 69120, Note_on_c, 0, 64, 56
3, 69120, Note_on_c, 0, 68, 56
3, 69120, Control_c, 0, 64, 0
3, 69120, Control_c, 0, 64, 127
3, 69120, Note_on_c, 0, 35, 35
3, 69155, Note_on_c, 0, 35, 0
3, 69165, Note_on_c, 0, 47, 41
3, 69200, Note_on_c, 0, 47, 0
3, 69210, Note_on_c, 0, 35, 35
3, 69245, Note_on_c, 0, 35, 0
3, 69255, Note_on_c, 0, 47, 41
3, 69290, Note_on_c, 0, 47, 0
3, 69300, Note_on_c, 0, 68, 0
3, 69300, Note_on_c, 0, 64, 0
3, 69300, Note_on_c, 0, 59, 0
3, 69300, Note_on_c, 0, 59, 83
3, 69300, Note_on_c, 0, 64, 83
3, 69300, Note_on_c, 0, 68, 83
3, 69300, Note_on_c, 0, 71, 83
3, 69300, Note_on_c, 0, 35, 35
3, 69335, Note_on_c, 0, 35, 0
3, 69345, Note_on_c, 0, 47, 41
3, 69380, Note_on_c, 0, 47, 0
3, 69390, Note_on_c, 0, 35, 35
3, 69425, Note_on_c, 0, 35, 0
3, 69435, Note_on_c, 0, 47, 41
3, 69470, Note_on_c, 0, 47, 0
3, 69480, Note_on_c, 0, 71, 0
3, 69480, Note_on_c, 0, 59, 0
3, 69480, Note_on_c, 0, 64, 0
3, 69480, Note_on_c, 0, 68, 0
3, 69480, Note_on_c, 0, 56, 73
3, 69480, Note_on_c, 0, 59, 73
3, 69480, Note_on_c, 0, 64, 73
3, 69480, Note_on_c, 0, 68, 73
3, 69480, Note_on_c, 0, 35, 35
3, 69515, Note_on_c, 0, 35, 0
3, 69525, Note_on_c, 0, 47, 41
3, 69560, Note_on_c, 0, 47, 0
3, 69570, Note_on_c, 0, 35, 35
3, 69605, Note_on_c, 0, 35, 0
3, 69615, Note_on_c, 0, 47, 41
3, 69650, Note_on_c, 0, 47, 0
3, 69660, Note_on_c, 0, 68, 0
3, 69660, Note_on_c, 0, 56, 0
3, 69660, Note_on_c, 0, 59, 0
3, 69660, Note_on_c, 0, 64, 0
3, 69660, Note_on_c, 0, 56, 82
3, 69660, Note_on_c, 0, 59, 82
3, 69660, Note_on_c, 0, 64, 82
3, 69660, Note_on_c, 0, 68, 82
3, 69660, Note_on_c, 0, 35, 35
3, 69695, Note_on_c, 0, 35, 0
3, 69705, Note_on_c, 0, 47, 41
3, 69740, Note_on_c, 0, 47, 0
3, 69750, Note_on_c, 0, 35, 35
3, 69785, Note_on_c, 0, 35, 0
3, 69795, Note_on_c, 0, 47, 41
3, 69830, Note_on_c, 0, 47, 0
3, 69840, Note_on_c, 0, 68, 0
3, 69840, Note_on_c, 0, 56, 0
3, 69840, Note_on_c, 0, 59, 0
3, 69840, Note_on_c, 0, 64, 0
3, 69840, Note_on_c, 0, 52, 73
3, 69840, Note_on_c, 0, 56, 73
3, 69840, Note_on_c, 0, 59, 73
3, 69840, Note_on_c, 0, 64, 73
3, 69840, Note_on_c, 0, 35, 35
3, 69875, Note_on_c, 0, 35, 0
3, 69885, Note_on_c, 0, 47, 41
3, 69920, Note_on_c, 0, 47, 0
3, 69930, Note_on_c, 0, 35, 35
3, 69965, Note_on_c, 0, 35, 0
3, 69975, Note_on_c, 0, 47, 41
3, 70010, Note_on_c, 0, 47, 0
3, 70020, Note_on_c, 0, 64, 0
3, 70020, Note_on_c, 0, 52, 0
3, 70020, Note_on_c, 0, 56, 0
3, 70020, Note_on_c, 0, 59, 0
3, 70020, Note_on_c, 0, 49, 69
3, 70020, Note_on_c, 0, 52, 69
3, 70020, Note_on_c, 0, 56, 69
3, 70020, Note_on_c, 0, 61, 69
3, 70020, Note_on_c, 0, 35, 35
3, 70055, Note_on_c, 0, 35, 0
3, 70065, Note_on_c, 0, 47, 41
3, 70100, Note_on_c, 0, 47, 0
3, 70110, Note_on_c, 0, 35, 35
3, 70145, Note_on_c, 0, 35, 0
3, 70155, Note_on_c, 0, 47, 41
3, 70190, Note_on_c, 0, 47, 0
3, 70200, Note_on_c, 0, 61, 0
3, 70200, Note_on_c, 0, 49, 0
3, 70200, Note_on_c, 0, 52, 0
3, 70200, Note_on_c, 0, 56, 0
3, 70200, Note_on_c, 0, 47, 77
3, 70200, Note_on_c, 0, 52, 77
3, 70200, Note_on_c, 0, 56, 77
3, 70200, Note_on_c, 0, 59, 77
3, 70200, Control_c, 0, 64, 0
3, 70200, Control_c, 0, 64, 127
3, 70200, Note_on_c, 0, 35, 35
3, 70235, Note_on_c, 0, 35, 0
3, 70245, Note_on_c, 0, 47, 45
3, 70280, Note_on_c, 0, 47, 0
3, 70290, Note_on_c, 0, 35, 35
3, 70325, Note_on_c, 0, 35, 0
3, 70335, Note_on_c, 0, 47, 45
3, 70370, Note_on_c, 0, 47, 0
3, 70380, Note_on_c, 0, 59, 0
3, 70380, Note_on_c, 0, 52, 0
3, 70380, Note_on_c, 0, 56, 0
3, 70380, Note_on_c, 0, 47, 0
3, 70380, Note_on_c, 0, 52, 93
3, 70380, Note_on_c, 0, 56, 93
3, 70380, Note_on_c, 0, 59, 93
3, 70380, Note_on_c, 0, 64, 93
3, 70380, Note_on_c, 0, 35, 35
3, 70415, Note_on_c, 0, 35, 0
3, 70425, Note_on_c, 0, 47, 45
3, 70460, Note_on_c, 0, 47, 0
3, 70470, Note_on_c, 0, 35, 35
3, 70505, Note_on_c, 0, 35, 0
3, 70515, Note_on_c, 0, 47, 45
3, 70550, Note_on_c, 0, 47, 0
3, 70560, Note_on_c, 0, 64, 0
3, 70560, Note_on_c, 0, 52, 0
3, 70560, Note_on_c, 0, 56, 0
3, 70560, Note_on_c, 0, 59, 0
3, 70560, Note_on_c, 0, 56, 88
3, 70560, Note_on_c, 0, 59, 88
3, 70560, Note_on_c, 0, 64, 88
3, 70560, Note_on_c, 0, 68, 88
3, 70560, Note_on_c, 0, 35, 35
3, 70595, Note_on_c, 0, 35, 0
3, 70605, Note_on_c, 0, 47, 45
3, 70640, Note_on_c, 0, 47, 0
3, 70650, Note_on_c, 0, 35, 35
3, 70685, Note_on_c, 0, 35, 0
3, 70695, Note_on_c, 0, 47, 45
3, 70730, Note_on_c, 0, 47, 0
3, 70740, Note_on_c, 0, 68, 0
3, 70740, Note_on_c, 0, 56, 0
3, 70740, Note_on_c, 0, 59, 0
3, 70740, Note_on_c, 0, 64, 0
3, 70740, Note_on_c, 0, 59, 89
3, 70740, Note_on_c, 0, 64, 89
3, 70740, Note_on_c, 0, 68, 89
3, 70740, Note_on_c, 0, 71, 89
3, 70740, Note_on_c, 0, 35, 35
3, 70775, Note_on_c, 0, 35, 0
3, 70785, Note_on_c, 0, 47, 45
3, 70820, Note_on_c, 0, 47, 0
3, 70830, Note_on_c, 0, 35, 35
3, 70865, Note_on_c, 0, 35, 0
3, 70875, Note_on_c, 0, 47, 45
3, 70910, Note_on_c, 0, 47, 0
3, 70920, Note_on_c, 0, 35, 35
3, 70955, Note_on_c, 0, 35, 0
3, 70965, Note_on_c, 0, 47, 45
3, 71000, Note_on_c, 0, 47, 0
3, 71010, Note_on_c, 0, 35, 35
3, 71045, Note_on_c, 0, 35, 0
3, 71055, Note_on_c, 0, 47, 45
3, 71090, Note_on_c, 0, 47, 0
3, 71100, Note_on_c, 0, 35, 35
3, 71135, Note_on_c, 0, 35, 0
3, 71145, Note_on_c, 0, 47, 45
3, 71180, Note_on_c, 0, 47, 0
3, 71190, Note_on_c, 0, 35, 35
3, 71225, Note_on_c, 0, 35, 0
3, 71235, Note_on_c, 0, 47, 45
3, 71270, Note_on_c, 0, 47, 0
3, 71280, Note_on_c, 0, 71, 0
3, 71280, Note_on_c, 0, 59, 0
3, 71280, Note_on_c, 0, 64, 0
3, 71280, Note_on_c, 0, 68, 0
3, 71280, Control_c, 0, 64, 0
3, 71280, Control_c, 0, 64, 127
3, 71280, Note_on_c, 0, 35, 35
3, 71315, Note_on_c, 0, 35, 0
3, 71325, Note_on_c, 0, 47, 46
3, 71360, Note_on_c, 0, 47, 0
3, 71370, Note_on_c, 0, 35, 35
3, 71405, Note_on_c, 0, 35, 0
3, 71415, Note_on_c, 0, 47, 46
3, 71450, Note_on_c, 0, 47, 0
3, 71460, Note_on_c, 0, 64, 73
3, 71460, Note_on_c, 0, 68, 73
3, 71460, Note_on_c, 0, 71, 73
3, 71460, Note_on_c, 0, 76, 73
3, 71460, Note_on_c, 0, 35, 35
3, 71495, Note_on_c, 0, 35, 0
3, 71505, Note_on_c, 0, 47, 46
3, 71540, Note_on_c, 0, 47, 0
3, 71550, Note_on_c, 0, 35, 35
3, 71585, Note_on_c, 0, 35, 0
3, 71595, Note_on_c, 0, 47, 46
3, 71630, Note_on_c, 0, 47, 0
3, 71640, Note_on_c, 0, 76, 0
3, 71640, Note_on_c, 0, 64, 0
3, 71640, Note_on_c, 0, 68, 0
3, 71640, Note_on_c, 0, 71, 0
3, 71640, Note_on_c, 0, 59, 73
3, 71640, Note_on_c, 0, 64, 73
3, 71640, Note_on_c, 0, 68, 73
3, 71640, Note_on_c, 0, 71, 73
3, 71640, Note_on_c, 0, 35, 35
3, 71675, Note_on_c, 0, 35, 0
3, 71685, Note_on_c, 0, 47, 46
3, 71720, Note_on_c, 0, 47, 0
3, 71730, Note_on_c, 0, 35, 35
3, 71765, Note_on_c, 0, 35, 0
3, 71775, Note_on_c, 0, 47, 46
3, 71810, Note_on_c, 0, 47, 0
3, 71820, Note_on_c, 0, 71, 0
3, 71820, Note_on_c, 0, 59, 0
3, 71820, Note_on_c, 0, 64, 0
3, 71820, Note_on_c, 0, 68, 0
3, 71820, Note_on_c, 0, 59, 73
3, 71820, Note_on_c, 0, 64, 73
3, 71820, Note_on_c, 0, 68, 73
3, 71820, Note_on_c, 0, 71, 73
3, 71820, Note_on_c, 0, 35, 35
3, 71855, Note_on_c, 0, 35, 0
3, 71865, Note_on_c, 0, 47, 46
3, 71900, Note_on_c, 0, 47, 0
3, 71910, Note_on_c, 0, 35, 35
3, 71945, Note_on_c, 0, 35, 0
3, 71955, Note_on_c, 0, 47, 46
3, 71990, Note_on_c, 0, 47, 0
3, 72000, Note_on_c, 0, 71, 0
3, 72000, Note_on_c, 0, 59, 0
3, 72000, Note_on_c, 0, 64, 0
3, 72000, Note_on_c, 0, 68, 0
3, 72000, Note_on_c, 0, 56, 76
3, 72000, Note_on_c, 0, 59, 76
3, 72000, Note_on_c, 0, 64, 76
3, 72000, Note_on_c, 0, 68, 76
3, 72000, Note_on_c, 0, 35, 35
3, 72035, Note_on_c, 0, 35, 0
3, 72045, Note_on_c, 0, 47, 46
3, 72080, Note_on_c, 0, 47, 0
3, 72090, Note_on_c, 0, 35, 35
3, 72125, Note_on_c, 0, 35, 0
3, 72135, Note_on_c, 0, 47, 46
3, 72170, Note_on_c, 0, 47, 0
3, 72180, Note_on_c, 0, 68, 0
3, 72180, Note_on_c, 0, 56, 0
3, 72180, Note_on_c, 0, 59, 0
3, 72180, Note_on_c, 0, 64, 0
3, 72180, Note_on_c, 0, 54, 72
3, 72180, Note_on_c, 0, 59, 72
3, 72180, Note_on_c, 0, 66, 72
3, 72180, Note_on_c, 0, 35, 35
3, 72215, Note_on_c, 0, 35, 0
3, 72225, Note_on_c, 0, 47, 46
3, 72260, Note_on_c, 0, 47, 0
3, 72270, Note_on_c, 0, 35, 35
3, 72305, Note_on_c, 0, 35, 0
3, 72315, Note_on_c, 0, 47, 46
3, 72350, Note_on_c, 0, 47, 0
3, 72360, Note_on_c, 0, 66, 0
3, 72360, Note_on_c, 0, 59, 0
3, 72360, Note_on_c, 0, 54, 0
3, 72360, Note_on_c, 0, 52, 76
3, 72360, Note_on_c, 0, 56, 76
3, 72360, Note_on_c, 0, 59, 76
3, 72360, Note_on_c, 0, 64, 76
3, 72360, Control_c, 0, 64, 0
3, 72360, Control_c, 0, 64, 127
3, 72360, Note_on_c, 0, 35, 34
3, 72395, Note_on_c, 0, 35, 0
3, 72405, Note_on_c, 0, 47, 50
3, 72440, Note_on_c, 0, 47, 0
3, 72450, Note_on_c, 0, 35, 34
3, 72485, Note_on_c, 0, 35, 0
3, 72495, Note_on_c, 0, 47, 50
3, 72530, Note_on_c, 0, 47, 0
3, 72540, Note_on_c, 0, 64, 0
3, 72540, Note_on_c, 0, 52, 0
3, 72540, Note_on_c, 0, 56, 0
3, 72540, Note_on_c, 0, 59, 0
3, 72540, Note_on_c, 0, 56, 89
3, 72540, Note_on_c, 0, 59, 89
3, 72540, Note_on_c, 0, 64, 89
3, 72540, Note_on_c, 0, 68, 89
3, 72540, Note_on_c, 0, 35, 34
3, 72575, Note_on_c, 0, 35, 0
3, 72585, Note_on_c, 0, 47, 50
3, 72620, Note_on_c, 0, 47, 0
3, 72630, Note_on_c, 0, 35, 34
3, 72665, Note_on_c, 0, 35, 0
3, 72675, Note_on_c, 0, 47, 50
3, 72710, Note_on_c, 0, 47, 0
3, 72720, Note_on_c, 0, 68, 0
3, 72720, Note_on_c, 0, 56, 0
3, 72720, Note_on_c, 0, 59, 0
3, 72720, Note_on_c, 0, 64, 0
3, 72720, Note_on_c, 0, 59, 83
3, 72720, Note_on_c, 0, 64, 83
3, 72720, Note_on_c, 0, 68, 83
3, 72720, Note_on_c, 0, 71, 83
3, 72720, Note_on_c, 0, 35, 34
3, 72755, Note_on_c, 0, 35, 0
3, 72765, Note_on_c, 0, 47, 50
3, 72800, Note_on_c, 0, 47, 0
3, 72810, Note_on_c, 0, 35, 34
3, 72845, Note_on_c, 0, 35, 0
3, 72855, Note_on_c, 0, 47, 50
3, 72890, Note_on_c, 0, 47, 0
3, 72900, Note_on_c, 0, 71, 0
3, 72900, Note_on_c, 0, 59, 0
3, 72900, Note_on_c, 0, 64, 0
3, 72900, Note_on_c, 0, 68, 0
3, 72900, Note_on_c, 0, 64, 92
3, 72900, Note_on_c, 0, 68, 92
3, 72900, Note_on_c, 0, 71, 92
3, 72900, Note_on_c, 0, 76, 92
3, 72900, Note_on_c, 0, 35, 34
3, 72935, Note_on_c, 0, 35, 0
3, 72945, Note_on_c, 0, 47, 50
3, 72980, Note_on_c, 0, 47, 0
3, 72990, Note_on_c, 0, 35, 34
3, 73025, Note_on_c, 0, 35, 0
3, 73035, Note_on_c, 0, 47, 50
3, 73070, Note_on_c, 0, 47, 0
3, 73080, Note_on_c, 0, 35, 34
3, 73115, Note_on_c, 0, 35, 0
3, 73125, Note_on_c, 0, 47, 50
3, 73160, Note_on_c, 0, 47, 0
3, 73170, Note_on_c, 0, 35, 34
3, 73205, Note_on_c, 0, 35, 0
3, 73215, Note_on_c, 0, 47, 50
3, 73250, Note_on_c, 0, 47, 0
3, 73260, Note_on_c, 0, 35, 34
3, 73295, Note_on_c, 0, 35, 0
3, 73305, Note_on_c, 0, 47, 50
3, 73340, Note_on_c, 0, 47, 0
3, 73350, Note_on_c, 0, 35, 34
3, 73385, Note_on_c, 0, 35, 0
3, 73395, Note_on_c, 0, 47, 50
3, 73430, Note_on_c, 0, 47, 0
3, 73440, Note_on_c, 0, 76, 0
3, 73440, Note_on_c, 0, 64, 0
3, 73440, Note_on_c, 0, 68, 0
3, 73440, Note_on_c, 0, 71, 0
3, 73440, Control_c, 0, 64, 0
3, 73440, Control_c, 0, 64, 127
3, 73440, Note_on_c, 0, 35, 33
3, 73475, Note_on_c, 0, 35, 0
3, 73485, Note_on_c, 0, 47, 46
3, 73520, Note_on_c, 0, 47, 0
3, 73530, Note_on_c, 0, 35, 33
3, 73565, Note_on_c, 0, 35, 0
3, 73575, Note_on_c, 0, 47, 46
3, 73610, Note_on_c, 0, 47, 0
3, 73620, Note_on_c, 0, 68, 74
3, 73620, Note_on_c, 0, 71, 74
3, 73620, Note_on_c, 0, 76, 74
3, 73620, Note_on_c, 0, 80, 74
3, 73620, Note_on_c, 0, 35, 33
3, 73655, Note_on_c, 0, 35, 0
3, 73665, Note_on_c, 0, 47, 46
3, 73700, Note_on_c, 0, 47, 0
3, 73710, Note_on_c, 0, 35, 33
3, 73745, Note_on_c, 0, 35, 0
3, 73755, Note_on_c, 0, 47, 46
3, 73790, Note_on_c, 0, 47, 0
3, 73800, Note_on_c, 0, 80, 0
3, 73800, Note_on_c, 0, 68, 0
3, 73800, Note_on_c, 0, 71, 0
3, 73800, Note_on_c, 0, 76, 0
3, 73800, Note_on_c, 0, 64, 68
3, 73800, Note_on_c, 0, 68, 68
3, 73800, Note_on_c, 0, 71, 68
3, 73800, Note_on_c, 0, 76, 68
3, 73800, Note_on_c, 0, 35, 33
3, 73835, Note_on_c, 0, 35, 0
3, 73845, Note_on_c, 0, 47, 46
3, 73880, Note_on_c, 0, 47, 0
3, 73890, Note_on_c, 0, 35, 33
3, 73925, Note_on_c, 0, 35, 0
3, 73935, Note_on_c, 0, 47, 46
3, 73970, Note_on_c, 0, 47, 0
3, 73980, Note_on_c, 0, 76, 0
3, 73980, Note_on_c, 0, 64, 0
3, 73980, Note_on_c, 0, 68, 0
3, 73980, Note_on_c, 0, 71, 0
3, 73980, Note_on_c, 0, 59, 65
3, 73980, Note_on_c, 0, 64, 65
3, 73980, Note_on_c, 0, 68, 65
3, 73980, Note_on_c, 0, 71, 65
3, 73980, Note_on_c, 0, 35, 33
3, 74015, Note_on_c, 0, 35, 0
3, 74025, Note_on_c, 0, 47, 46
3, 74060, Note_on_c, 0, 47, 0
3, 74070, Note_on_c, 0, 35, 33
3, 74105, Note_on_c, 0, 35, 0
3, 74115, Note_on_c, 0, 47, 46
3, 74150, Note_on_c, 0, 47, 0
3, 74160, Note_on_c, 0, 71, 0
3, 74160, Note_on_c, 0, 59, 0
3, 74160, Note_on_c, 0, 64, 0
3, 74160, Note_on_c, 0, 68, 0
3, 74160, Note_on_c, 0, 56, 75
3, 74160, Note_on_c, 0, 59, 75
3, 74160, Note_on_c, 0, 64, 75
3, 74160, Note_on_c, 0, 68, 75
3, 74160, Note_on_c, 0, 35, 33
3, 74195, Note_on_c, 0, 35, 0
3, 74205, Note_on_c, 0, 47, 46
3, 74240, Note_on_c, 0, 47, 0
3, 74250, Note_on_c, 0, 35, 33
3, 74285, Note_on_c, 0, 35, 0
3, 74295, Note_on_c, 0, 47, 46
3, 74330, Note_on_c, 0, 47, 0
3, 74340, Note_on_c, 0, 68, 0
3, 74340, Note_on_c, 0, 56, 0
3, 74340, Note_on_c, 0, 59, 0
3, 74340, Note_on_c, 0, 64, 0
3, 74340, Note_on_c, 0, 52, 72
3, 74340, Note_on_c, 0, 56, 72
3, 74340, Note_on_c, 0, 59, 72
3, 74340, Note_on_c, 0, 64, 72
3, 74340, Note_on_c, 0, 35, 33
3, 74375, Note_on_c, 0, 35, 0
3, 74385, Note_on_c, 0, 47, 46
3, 74420, Note_on_c, 0, 47, 0
3, 74430, Note_on_c, 0, 35, 33
3, 74465, Note_on_c, 0, 35, 0
3, 74475, Note_on_c, 0, 47, 46
3, 74510, Note_on_c, 0, 47, 0
3, 74520, Note_on_c, 0, 64, 0
3, 74520, Note_on_c, 0, 52, 0
3, 74520, Note_on_c, 0, 56, 0
3, 74520, Note_on_c, 0, 59, 0
3, 74520, Note_on_c, 0, 54, 61
3, 74520, Note_on_c, 0, 59, 61
3, 74520, Note_on_c, 0, 66, 61
3, 74520, Control_c, 0, 64, 0
3, 74520, Control_c, 0, 64, 127
3, 74520, Note_on_c, 0, 35, 43
3, 74520, Note_on_c, 0, 47, 43
3, 74700, Note_on_c, 0, 47, 0
3, 74700, Note_on_c, 0, 66, 0
3, 74700, Note_on_c, 0, 54, 0
3, 74700, Note_on_c, 0, 59, 0
3, 74700, Note_on_c, 0, 35, 0
3, 74700, Note_on_c, 0, 54, 61
3, 74700, Note_on_c, 0, 59, 61
3, 74700, Note_on_c, 0, 66, 61
3, 74700, Note_on_c, 0, 35, 39
3, 74700, Note_on_c, 0, 47, 39
3, 74880, Note_on_c, 0, 47, 0
3, 74880, Note_on_c, 0, 66, 0
3, 74880, Note_on_c, 0, 54, 0
3, 74880, Note_on_c, 0, 59, 0
3, 74880, Note_on_c, 0, 35, 0
3, 74880, Note_on_c, 0, 54, 55
3, 74880, Note_on_c, 0, 59, 55
3, 74880, Note_on_c, 0, 66, 55
3, 74880, Note_on_c, 0, 35, 38
3, 74880, Note_on_c, 0, 47, 38
3, 75060, Note_on_c, 0, 47, 0
3, 75060, Note_on_c, 0, 66, 0
3, 75060, Note_on_c, 0, 54, 0
3, 75060, Note_on_c, 0, 59, 0
3, 75060, Note_on_c, 0, 35, 0
3, 75060, Note_on_c, 0, 54, 55
3, 75060, Note_on_c, 0, 59, 55
3, 75060, Note_on_c, 0, 63, 55
3, 75060, Note_on_c, 0, 66, 55
3, 75060, Note_on_c, 0, 33, 40
3, 75060, Note_on_c, 0, 45, 40
3, 75240, Note_on_c, 0, 45, 0
3, 75240, Note_on_c, 0, 59, 0
3, 75240, Note_on_c, 0, 63, 0
3, 75240, Note_on_c, 0, 54, 0
3, 75240, Note_on_c, 0, 33, 0
3, 75240, Note_on_c, 0, 66, 0
3, 75240, Note_on_c, 0, 54, 56
3, 75240, Note_on_c, 0, 59, 56
3, 75240, Note_on_c, 0, 63, 56
3, 75240, Note_on_c, 0, 66, 56
3, 75240, Note_on_c, 0, 33, 43
3, 75240, Note_on_c, 0, 45, 43
3, 75420, Note_on_c, 0, 45, 0
3, 75420, Note_on_c, 0, 59, 0
3, 75420, Note_on_c, 0, 63, 0
3, 75420, Note_on_c, 0, 54, 0
3, 75420, Note_on_c, 0, 33, 0
3, 75420, Note_on_c, 0, 66, 0
3, 75420, Note_on_c, 0, 54, 51
3, 75420, Note_on_c, 0, 59, 51
3, 75420, Note_on_c, 0, 63, 51
3, 75420, Note_on_c, 0, 66, 51
3, 75420, Note_on_c, 0, 33, 37
3, 75420, Note_on_c, 0, 45, 37
3, 75600, Note_on_c, 0, 45, 0
3, 75600, Note_on_c, 0, 59, 0
3, 75600, Note_on_c, 0, 63, 0
3, 75600, Note_on_c, 0, 54, 0
3, 75600, Note_on_c, 0, 33, 0
3, 75600, Note_on_c, 0, 66, 0
3, 75600, Note_on_c, 0, 55, 62
3, 75600, Note_on_c, 0, 60, 62
3, 75600, Note_on_c, 0, 64, 62
3, 75600, Note_on_c, 0, 67, 62
3, 75600, Control_c, 0, 64, 0
3, 75600, Control_c, 0, 64, 127
3, 75600, Note_on_c, 0, 31, 35
3, 75635, Note_on_c, 0, 31, 0
3, 75645, Note_on_c, 0, 43, 42
3, 75680, Note_on_c, 0, 43, 0
3, 75690, Note_on_c, 0, 31, 35
3, 75725, Note_on_c, 0, 31, 0
3, 75735, Note_on_c, 0, 43, 42
3, 75770, Note_on_c, 0, 43, 0
3, 75780, Note_on_c, 0, 67, 0
3, 75780, Note_on_c, 0, 55, 0
3, 75780, Note_on_c, 0, 60, 0
3, 75780, Note_on_c, 0, 64, 0
3, 75780, Note_on_c, 0, 48, 45
3, 75780, Note_on_c, 0, 52, 45
3, 75780, Note_on_c, 0, 55, 45
3, 75780, Note_on_c, 0, 60, 45
3, 75780, Note_on_c, 0, 31, 35
3, 75815, Note_on_c, 0, 31, 0
3, 75825, Note_on_c, 0, 43, 42
3, 75860, Note_on_c, 0, 43, 0
3, 75870, Note_on_c, 0, 31, 35
3, 75905, Note_on_c, 0, 31, 0
3, 75915, Note_on_c, 0, 43, 42
3, 75950, Note_on_c, 0, 43, 0
3, 75960, Note_on_c, 0, 60, 0
3, 75960, Note_on_c, 0, 48, 0
3, 75960, Note_on_c, 0, 52, 0
3, 75960, Note_on_c, 0, 55, 0
3, 75960, Note_on_c, 0, 52, 63
3, 75960, Note_on_c, 0, 55, 63
3, 75960, Note_on_c, 0, 60, 63
3, 75960, Note_on_c, 0, 64, 63
3, 75960, Note_on_c, 0, 31, 35
3, 75995, Note_on_c, 0, 31, 0
3, 76005, Note_on_c, 0, 43, 42
3, 76040, Note_on_c, 0, 43, 0
3, 76050, Note_on_c, 0, 31, 35
3, 76085, Note_on_c, 0, 31, 0
3, 76095, Note_on_c, 0, 43, 42
3, 76130, Note_on_c, 0, 43, 0
3, 76140, Note_on_c, 0, 64, 0
3, 76140, Note_on_c, 0, 52, 0
3, 76140, Note_on_c, 0, 55, 0
3, 76140, Note_on_c, 0, 60, 0
3, 76140, Note_on_c, 0, 55, 68
3, 76140, Note_on_c, 0, 60, 68
3, 76140, Note_on_c, 0, 64, 68
3, 76140, Note_on_c, 0, 67, 68
3, 76140, Note_on_c, 0, 31, 35
3, 76175, Note_on_c, 0, 31, 0
3, 76185, Note_on_c, 0, 43, 42
3, 76220, Note_on_c, 0, 43, 0
3, 76230, Note_on_c, 0, 31, 35
3, 76265, Note_on_c, 0, 31, 0
3, 76275, Note_on_c, 0, 43, 42
3, 76310, Note_on_c, 0, 43, 0
3, 76320, Note_on_c, 0, 67, 0
3, 76320, Note_on_c, 0, 55, 0
3, 76320, Note_on_c, 0, 60, 0
3, 76320, Note_on_c, 0, 64, 0
3, 76320, Note_on_c, 0, 52, 52
3, 76320, Note_on_c, 0, 55, 52
3, 76320, Note_on_c, 0, 60, 52
3, 76320, Note_on_c, 0, 64, 52
3, 76320, Note_on_c, 0, 31, 35
3, 76355, Note_on_c, 0, 31, 0
3, 76365, Note_on_c, 0, 43, 42
3, 76400, Note_on_c, 0, 43, 0
3, 76410, Note_on_c, 0, 31, 35
3, 76445, Note_on_c, 0, 31, 0
3, 76455, Note_on_c, 0, 43, 42
3, 76490, Note_on_c, 0, 43, 0
3, 76500, Note_on_c, 0, 64, 0
3, 76500, Note_on_c, 0, 52, 0
3, 76500, Note_on_c, 0, 55, 0
3, 76500, Note_on_c, 0, 60, 0
3, 76500, Note_on_c, 0, 55, 58
3, 76500, Note_on_c, 0, 60, 58
3, 76500, Note_on_c, 0, 64, 58
3, 76500, Note_on_c, 0, 67, 58
3, 76500, Note_on_c, 0, 31, 35
3, 76535, Note_on_c, 0, 31, 0
3, 76545, Note_on_c, 0, 43, 42
3, 76580, Note_on_c, 0, 43, 0
3, 76590, Note_on_c, 0, 31, 35
3, 76625, Note_on_c, 0, 31, 0
3, 76635, Note_on_c, 0, 43, 42
3, 76670, Note_on_c, 0, 43, 0
3, 76680, Note_on_c, 0, 67, 0
3, 76680, Note_on_c, 0, 55, 0
3, 76680, Note_on_c, 0, 60, 0
3, 76680, Note_on_c, 0, 64, 0
3, 76680, Note_on_c, 0, 60, 63
3, 76680, Note_on_c, 0, 64, 63
3, 76680, Note_on_c, 0, 67, 63
3, 76680, Note_on_c, 0, 72, 63
3, 76680, Control_c, 0, 64, 0
3, 76680, Control_c, 0, 64, 127
3, 76680, Note_on_c, 0, 31, 43
3, 76680, Note_on_c, 0, 43, 43
3, 76860, Note_on_c, 0, 43, 0
3, 76860, Note_on_c, 0, 64, 0
3, 76860, Note_on_c, 0, 67, 0
3, 76860, Note_on_c, 0, 60, 0
3, 76860, Note_on_c, 0, 31, 0
3, 76860, Note_on_c, 0, 72, 0
3, 77040, Control_c, 0, 64, 0
3, 77220, Control_c, 0, 64, 127
3, 77220, Note_on_c, 0, 21, 33
3, 77220, Note_on_c, 0, 23, 33
3, 77220, Note_on_c, 0, 24, 33
3, 77220, Note_on_c, 0, 26, 33
3, 77220, Note_on_c, 0, 28, 33
3, 77400, Note_on_c, 0, 28, 0
3, 77400, Note_on_c, 0, 24, 0
3, 77400, Note_on_c, 0, 21, 0
3, 77400, Note_on_c, 0, 23, 0
3, 77400, Note_on_c, 0, 26, 0
3, 77580, Control_c, 0, 64, 0
3, 77760, Note_on_c, 0, 72, 69
3, 77760, Note_on_c, 0, 76, 69
3, 78300, Note_on_c, 0, 76, 0
3, 78300, Note_on_c, 0, 72, 0
3, 78300, Note_on_c, 0, 72, 73
3, 78300, Note_on_c, 0, 75, 73
3, 78300, Control_c, 0, 64, 127
3, 78300, Note_on_c, 0, 68, 35
3, 78840, Note_on_c, 0, 68, 0
3, 78840, Note_on_c, 0, 75, 0
3, 78840, Note_on_c, 0, 72, 0
3, 78840, Note_on_c, 0, 72, 77
3, 78840, Note_on_c, 0, 76, 77
3, 78840, Control_c, 0, 64, 0
3, 78840, Control_c, 0, 64, 127
3, 78840, Note_on_c, 0, 64, 46
3, 78840, Note_on_c, 0, 69, 46
3, 79830, Note_on_c, 0, 69, 0
3, 79830, Note_on_c, 0, 72, 0
3, 79830, Note_on_c, 0, 76, 0
3, 79830, Note_on_c, 0, 64, 0
3, 79830, Note_on_c, 0, 72, 68
3, 79830, Note_on_c, 0, 69, 41
3, 79920, Note_on_c, 0, 69, 0
3, 79920, Note_on_c, 0, 72, 0
3, 79920, Note_on_c, 0, 72, 74
3, 79920, Control_c, 0, 64, 0
3, 79920, Control_c, 0, 64, 127
3, 79920, Note_on_c, 0, 69, 43
3, 80460, Note_on_c, 0, 69, 0
3, 80460, Note_on_c, 0, 72, 0
3, 80460, Note_on_c, 0, 68, 77
3, 80460, Note_on_c, 0, 72, 77
3, 80460, Control_c, 0, 64, 0
3, 80460, Control_c, 0, 64, 127
3, 80460, Note_on_c, 0, 63, 39
3, 80460, Note_on_c, 0, 66, 39
3, 81000, Note_on_c, 0, 66, 0
3, 81000, Note_on_c, 0, 68, 0
3, 81000, Note_on_c, 0, 72, 0
3, 81000, Note_on_c, 0, 63, 0
3, 81000, Note_on_c, 0, 67, 79
3, 81000, Note_on_c, 0, 72, 79
3, 81000, Control_c, 0, 64, 0
3, 81000, Control_c, 0, 64, 127
3, 81000, Note_on_c, 0, 60, 37
3, 81000, Note_on_c, 0, 63, 37
3, 81900, Control_c, 0, 64, 0
3, 81990, Note_on_c, 0, 63, 0
3, 81990, Note_on_c, 0, 67, 0
3, 81990, Note_on_c, 0, 72, 0
3, 81990, Note_on_c, 0, 60, 0
3, 81990, Note_on_c, 0, 67, 62
3, 81990, Note_on_c, 0, 60, 42
3, 81990, Note_on_c, 0, 63, 42
3, 82080, Note_on_c, 0, 63, 0
3, 82080, Note_on_c, 0, 60, 0
3, 82080, Note_on_c, 0, 67, 0
3, 82080, Note_on_c, 0, 67, 75
3, 82080, Control_c, 0, 64, 127
3, 82080, Note_on_c, 0, 60, 47
3, 82080, Note_on_c, 0, 64, 47
3, 82620, Note_on_c, 0, 64, 0
3, 82620, Note_on_c, 0, 60, 0
3, 82620, Note_on_c, 0, 67, 0
3, 82620, Note_on_c, 0, 65, 86
3, 82620, Note_on_c, 0, 69, 86
3, 82620, Control_c, 0, 64, 0
3, 82620, Control_c, 0, 64, 127
3, 82620, Note_on_c, 0, 60, 36
3, 82620, Note_on_c, 0, 63, 36
3, 83160, Note_on_c, 0, 63, 0
3, 83160, Note_on_c, 0, 65, 0
3, 83160, Note_on_c, 0, 69, 0
3, 83160, Note_on_c, 0, 60, 0
3, 83160, Control_c, 0, 64, 0
3, 83160, Note_on_c, 0, 63, 65
3, 83160, Note_on_c, 0, 66, 65
3, 83160, Control_c, 0, 64, 127
3, 83160, Note_on_c, 0, 56, 33
3, 83160, Note_on_c, 0, 60, 33
3, 83700, Note_on_c, 0, 60, 0
3, 83700, Note_on_c, 0, 63, 0
3, 83700, Note_on_c, 0, 66, 0
3, 83700, Note_on_c, 0, 56, 0
3, 83700, Note_on_c, 0, 60, 79
3, 83700, Note_on_c, 0, 63, 79
3, 83700, Note_on_c, 0, 67, 79
3, 83700, Control_c, 0, 64, 0
3, 83700, Control_c, 0, 64, 127
3, 83700, Note_on_c, 0, 51, 37
3, 83700, Note_on_c, 0, 55, 37
3, 84240, Note_on_c, 0, 55, 0
3, 84240, Note_on_c, 0, 67, 0
3, 84240, Note_on_c, 0, 60, 0
3, 84240, Note_on_c, 0, 63, 0
3, 84240, Note_on_c, 0, 51, 0
3, 84240, Note_on_c, 0, 60, 88
3, 84240, Note_on_c, 0, 63, 88
3, 84240, Note_on_c, 0, 68, 88
3, 84240, Control_c, 0, 64, 0
3, 84240, Control_c, 0, 64, 127
3, 84240, Note_on_c, 0, 48, 44
3, 84240, Note_on_c, 0, 51, 44
3, 84240, Note_on_c, 0, 56, 44
3, 84780, Note_on_c, 0, 56, 0
3, 84780, Note_on_c, 0, 63, 0
3, 84780, Note_on_c, 0, 68, 0
3, 84780, Note_on_c, 0, 60, 0
3, 84780, Note_on_c, 0, 51, 0
3, 84780, Note_on_c, 0, 48, 0
3, 84780, Note_on_c, 0, 57, 80
3, 84780, Note_on_c, 0, 60, 80
3, 84780, Note_on_c, 0, 63, 80
3, 84780, Note_on_c, 0, 69, 80
3, 84780, Control_c, 0, 64, 0
3, 84780, Control_c, 0, 64, 127
3, 84780, Note_on_c, 0, 41, 39
3, 84780, Note_on_c, 0, 53, 39
3, 85320, Control_c, 0, 64, 0
3, 85860, Note_on_c, 0, 53, 0
3, 85860, Note_on_c, 0, 60, 0
3, 85860, Note_on_c, 0, 63, 0
3, 85860, Note_on_c, 0, 57, 0
3, 85860, Note_on_c, 0, 41, 0
3, 85860, Note_on_c, 0, 69, 0
3, 85860, Note_on_c, 0, 59, 75
3, 85860, Note_on_c, 0, 63, 75
3, 85860, Note_on_c, 0, 69, 75
3, 85860, Note_on_c, 0, 29, 34
3, 85860, Note_on_c, 0, 41, 34
3, 86400, Note_on_c, 0, 41, 0
3, 86400, Note_on_c, 0, 69, 0
3, 86400, Note_on_c, 0, 59, 0
3, 86400, Note_on_c, 0, 63, 0
3, 86400, Note_on_c, 0, 29, 0
3, 86400, Note_on_c, 0, 64, 30
3, 86400, Note_on_c, 0, 68, 30
3, 86400, Note_on_c, 0, 28, 24
3, 86435, Note_on_c, 0, 28, 0
3, 86435, Note_on_c, 0, 68, 0
3, 86435, Note_on_c, 0, 64, 0
3, 86445, Note_on_c, 0, 59, 29
3, 86445, Control_c, 0, 64, 127
3, 86445, Note_on_c, 0, 40, 37
3, 86480, Note_on_c, 0, 40, 0
3, 86480, Note_on_c, 0, 59, 0
3, 86490, Note_on_c, 0, 64, 28
3, 86490, Note_on_c, 0, 68, 28
3, 86490, Note_on_c, 0, 28, 24
3, 86525, Note_on_c, 0, 28, 0
3, 86525, Note_on_c, 0, 68, 0
3, 86525, Note_on_c, 0, 64, 0
3, 86535, Note_on_c, 0, 59, 27
3, 86535, Note_on_c, 0, 40, 37
3, 86570, Note_on_c, 0, 40, 0
3, 86570, Note_on_c, 0, 59, 0
3, 86580, Note_on_c, 0, 64, 26
3, 86580, Note_on_c, 0, 68, 26
3, 86580, Note_on_c, 0, 28, 24
3, 86615, Note_on_c, 0, 28, 0
3, 86615, Note_on_c, 0, 68, 0
3, 86615, Note_on_c, 0, 64, 0
3, 86625, Note_on_c, 0, 59, 25
3, 86625, Note_on_c, 0, 40, 37
3, 86660, Note_on_c, 0, 40, 0
3, 86660, Note_on_c, 0, 59, 0
3, 86670, Note_on_c, 0, 64, 24
3, 86670, Note_on_c, 0, 68, 24
3, 86670, Note_on_c, 0, 28, 24
3, 86705, Note_on_c, 0, 28, 0
3, 86705, Note_on_c, 0, 68, 0
3, 86705, Note_on_c, 0, 64, 0
3, 86715, Note_on_c, 0, 59, 23
3, 86715, Note_on_c, 0, 40, 37
3, 86750, Note_on_c, 0, 40, 0
3, 86750, Note_on_c, 0, 59, 0
3, 86760, Note_on_c, 0, 64, 22
3, 86760, Note_on_c, 0, 68, 22
3, 86760, Note_on_c, 0, 28, 24
3, 86795, Note_on_c, 0, 28, 0
3, 86795, Note_on_c, 0, 68, 0
3, 86795, Note_on_c, 0, 64, 0
3, 86805, Note_on_c, 0, 59, 21
3, 86805, Note_on_c, 0, 40, 37
3, 86840, Note_on_c, 0, 40, 0
3, 86840, Note_on_c, 0, 59, 0
3, 86850, Note_on_c, 0, 64, 20
3, 86850, Note_on_c, 0, 68, 20
3, 86850, Note_on_c, 0, 28, 24
3, 86885, Note_on_c, 0, 28, 0
3, 86885, Note_on_c, 0, 68, 0
3, 86885, Note_on_c, 0, 64, 0
3, 86895, Note_on_c, 0, 59, 19
3, 86895, Note_on_c, 0, 40, 37
3, 86930, Note_on_c, 0, 40, 0
3, 86930, Note_on_c, 0, 59, 0
3, 86940, Note_on_c, 0, 64, 18
3, 86940, Note_on_c, 0, 68, 18
3, 86940, Note_on_c, 0, 59, 18
3, 86940, Note_on_c, 0, 64, 18
3, 86940, Control_c, 0, 64, 0
3, 86940, Control_c, 0, 64, 127
3, 86940, Note_on_c, 0, 28, 24
3, 86975, Note_on_c, 0, 28, 0
3, 86975, Note_on_c, 0, 59, 0
3, 86975, Note_on_c, 0, 64, 0
3, 86975, Note_on_c, 0, 68, 0
3, 86975, Note_on_c, 0, 64, 0
3, 86985, Note_on_c, 0, 56, 17
3, 86985, Note_on_c, 0, 40, 37
3, 87020, Note_on_c, 0, 40, 0
3, 87020, Note_on_c, 0, 56, 0
3, 87030, Note_on_c, 0, 59, 16
3, 87030, Note_on_c, 0, 64, 16
3, 87030, Note_on_c, 0, 28, 24
3, 87065, Note_on_c, 0, 28, 0
3, 87065, Note_on_c, 0, 64, 0
3, 87065, Note_on_c, 0, 59, 0
3, 87075, Note_on_c, 0, 56, 14
3, 87075, Note_on_c, 0, 40, 37
3, 87110, Note_on_c, 0, 40, 0
3, 87110, Note_on_c, 0, 56, 0
3, 87120, Note_on_c, 0, 59, 13
3, 87120, Note_on_c, 0, 64, 13
3, 87120, Note_on_c, 0, 28, 24
3, 87155, Note_on_c, 0, 28, 0
3, 87155, Note_on_c, 0, 64, 0
3, 87155, Note_on_c, 0, 59, 0
3, 87165, Note_on_c, 0, 56, 12
3, 87165, Note_on_c, 0, 40, 37
3, 87200, Note_on_c, 0, 40, 0
3, 87200, Note_on_c, 0, 56, 0
3, 87210, Note_on_c, 0, 59, 11
3, 87210, Note_on_c, 0, 64, 11
3, 87210, Note_on_c, 0, 28, 24
3, 87245, Note_on_c, 0, 28, 0
3, 87245, Note_on_c, 0, 64, 0
3, 87245, Note_on_c, 0, 59, 0
3, 87255, Note_on_c, 0, 56, 10
3, 87255, Note_on_c, 0, 40, 37
3, 87290, Note_on_c, 0, 40, 0
3, 87290, Note_on_c, 0, 56, 0
3, 87300, Note_on_c, 0, 59, 9
3, 87300, Note_on_c, 0, 64, 9
3, 87300, Note_on_c, 0, 28, 24
3, 87335, Note_on_c, 0, 28, 0
3, 87335, Note_on_c, 0, 64, 0
3, 87335, Note_on_c, 0, 59, 0
3, 87345, Note_on_c, 0, 56, 8
3, 87345, Note_on_c, 0, 40, 37
3, 87380, Note_on_c, 0, 40, 0
3, 87380, Note_on_c, 0, 56, 0
3, 87390, Note_on_c, 0, 59, 7
3, 87390, Note_on_c, 0, 64, 7
3, 87390, Note_on_c, 0, 28, 24
3, 87425, Note_on_c, 0, 28, 0
3, 87425, Note_on_c, 0, 64, 0
3, 87425, Note_on_c, 0, 59, 0
3, 87435, Note_on_c, 0, 56, 6
3, 87435, Note_on_c, 0, 40, 37
3, 87470, Note_on_c, 0, 40, 0
3, 87470, Note_on_c, 0, 56, 0
3, 87480, Note_on_c, 0, 56, 5
3, 87480, Note_on_c, 0, 59, 5
3, 87480, Note_on_c, 0, 64, 5
3, 87480, Control_c, 0, 64, 0
3, 87480, Control_c, 0, 64, 127
3, 87660, Note_on_c, 0, 64, 0
3, 87660, Note_on_c, 0, 59, 0
3, 87660, Note_on_c, 0, 56, 0
3, 87660, Note_on_c, 0, 71, 106
3, 87818, Note_on_c, 0, 71, 0
3, 87840, Note_on_c, 0, 68, 80
3, 87998, Note_on_c, 0, 68, 0
3, 88020, Note_on_c, 0, 68, 76
3, 88020, Control_c, 0, 64, 0
3, 88020, Control_c, 0, 64, 127
3, 88020, Note_on_c, 0, 52, 37
3, 88020, Note_on_c, 0, 57, 37
3, 88020, Note_on_c, 0, 59, 37
3, 88020, Note_on_c, 0, 63, 37
3, 88200, Note_on_c, 0, 63, 0
3, 88200, Note_on_c, 0, 57, 0
3, 88200, Note_on_c, 0, 68, 0
3, 88200, Note_on_c, 0, 52, 0
3, 88200, Note_on_c, 0, 59, 0
3, 88200, Note_on_c, 0, 66, 75
3, 88380, Note_on_c, 0, 66, 0
3, 88380, Note_on_c, 0, 65, 71
3, 88560, Note_on_c, 0, 65, 0
3, 88560, Note_on_c, 0, 66, 84
3, 88560, Note_on_c, 0, 57, 60
3, 88560, Control_c, 0, 64, 0
3, 88560, Control_c, 0, 64, 127
3, 88560, Note_on_c, 0, 40, 32
3, 88560, Note_on_c, 0, 47, 32
3, 88560, Note_on_c, 0, 52, 32
3, 88595, Note_on_c, 0, 63, 60
3, 88740, Note_on_c, 0, 63, 0
3, 88740, Note_on_c, 0, 57, 0
3, 88740, Note_on_c, 0, 40, 0
3, 88740, Note_on_c, 0, 66, 0
3, 88740, Note_on_c, 0, 52, 0
3, 88740, Note_on_c, 0, 47, 0
3, 88740, Note_on_c, 0, 68, 84
3, 88920, Note_on_c, 0, 68, 0
3, 88920, Note_on_c, 0, 69, 81
3, 89069, Control_c, 0, 64, 0
3, 89069, Control_c, 0, 64, 127
3, 89100, Note_on_c, 0, 69, 0
3, 89100, Note_on_c, 0, 71, 82
3, 89100, Note_on_c, 0, 59, 36
3, 89100, Note_on_c, 0, 63, 36
3, 89100, Note_on_c, 0, 66, 36
3, 89100, Note_on_c, 0, 69, 36
3, 89280, Note_on_c, 0, 69, 0
3, 89280, Note_on_c, 0, 63, 0
3, 89280, Note_on_c, 0, 66, 0
3, 89280, Note_on_c, 0, 59, 0
3, 89640, Note_on_c, 0, 71, 0
3, 89640, Note_on_c, 0, 71, 74
3, 89640, Note_on_c, 0, 59, 66
3, 89640, Control_c, 0, 64, 0
3, 89640, Control_c, 0, 64, 127
3, 89640, Note_on_c, 0, 40, 34
3, 89640, Note_on_c, 0, 47, 34
3, 89640, Note_on_c, 0, 52, 34
3, 89675, Note_on_c, 0, 64, 66
3, 89711, Note_on_c, 0, 68, 66
3, 89820, Note_on_c, 0, 68, 0
3, 89820, Note_on_c, 0, 52, 0
3, 89820, Note_on_c, 0, 59, 0
3, 89820, Note_on_c, 0, 40, 0
3, 89820, Note_on_c, 0, 71, 0
3, 89820, Note_on_c, 0, 64, 0
3, 89820, Note_on_c, 0, 47, 0
3, 89820, Note_on_c, 0, 73, 95
3, 89978, Note_on_c, 0, 73, 0
3, 90000, Note_on_c, 0, 75, 95
3, 90158, Note_on_c, 0, 75, 0
3, 90180, Note_on_c, 0, 76, 82
3, 90180, Control_c, 0, 64, 0
3, 90180, Control_c, 0, 64, 127
3, 90180, Note_on_c, 0, 64, 37
3, 90180, Note_on_c, 0, 67, 37
3, 90180, Note_on_c, 0, 70, 37
3, 90360, Note_on_c, 0, 70, 0
3, 90360, Note_on_c, 0, 76, 0
3, 90360, Note_on_c, 0, 64, 0
3, 90360, Note_on_c, 0, 67, 0
3, 90360, Note_on_c, 0, 75, 70
3, 90540, Note_on_c, 0, 75, 0
3, 90540, Note_on_c, 0, 73, 70
3, 90720, Note_on_c, 0, 73, 0
3, 90720, Control_c, 0, 64, 0
3, 90720, Note_on_c, 0, 71, 95
3, 90720, Note_on_c, 0, 63, 47
3, 90720, Note_on_c, 0, 66, 47
3, 90720, Control_c, 0, 64, 127
3, 90720, Note_on_c, 0, 52, 37
3, 90755, Note_on_c, 0, 59, 37
3, 90900, Note_on_c, 0, 59, 0
3, 90900, Note_on_c, 0, 66, 0
3, 90900, Note_on_c, 0, 52, 0
3, 90900, Note_on_c, 0, 63, 0
3, 91080, Note_on_c, 0, 71, 0
3, 91080, Note_on_c, 0, 66, 62
3, 91260, Note_on_c, 0, 66, 0
3, 91260, Note_on_c, 0, 66, 72
3, 91800, Note_on_c, 0, 66, 0
3, 91800, Note_on_c, 0, 59, 51
3, 91800, Control_c, 0, 64, 0
3, 91800, Control_c, 0, 64, 127
3, 91800, Note_on_c, 0, 40, 36
3, 91800, Note_on_c, 0, 47, 36
3, 91800, Note_on_c, 0, 56, 36
3, 91835, Note_on_c, 0, 64, 51
3, 91980, Note_on_c, 0, 64, 0
3, 91980, Note_on_c, 0, 47, 0
3, 91980, Note_on_c, 0, 59, 0
3, 91980, Note_on_c, 0, 40, 0
3, 91980, Note_on_c, 0, 56, 0
3, 91980, Note_on_c, 0, 71, 81
3, 92138, Note_on_c, 0, 71, 0
3, 92160, Note_on_c, 0, 68, 78
3, 92318, Note_on_c, 0, 68, 0
3, 92340, Note_on_c, 0, 68, 80
3, 92340, Control_c, 0, 64, 0
3, 92340, Control_c, 0, 64, 127
3, 92340, Note_on_c, 0, 52, 34
3, 92340, Note_on_c, 0, 57, 34
3, 92340, Note_on_c, 0, 59, 34
3, 92340, Note_on_c, 0, 63, 34
3, 92520, Note_on_c, 0, 63, 0
3, 92520, Note_on_c, 0, 57, 0
3, 92520, Note_on_c, 0, 68, 0
3, 92520, Note_on_c, 0, 52, 0
3, 92520, Note_on_c, 0, 59, 0
3, 92520, Note_on_c, 0, 66, 68
3, 92700, Note_on_c, 0, 66, 0
3, 92700, Note_on_c, 0, 65, 73
3, 92880, Note_on_c, 0, 65, 0
3, 92880, Note_on_c, 0, 66, 80
3, 92880, Note_on_c, 0, 57, 49
3, 92880, Control_c, 0, 64, 0
3, 92880, Control_c, 0, 64, 127
3, 92880, Note_on_c, 0, 40, 29
3, 92880, Note_on_c, 0, 47, 29
3, 92880, Note_on_c, 0, 52, 29
3, 92915, Note_on_c, 0, 63, 49
3, 93060, Note_on_c, 0, 63, 0
3, 93060, Note_on_c, 0, 57, 0
3, 93060, Note_on_c, 0, 40, 0
3, 93060, Note_on_c, 0, 66, 0
3, 93060, Note_on_c, 0, 52, 0
3, 93060, Note_on_c, 0, 47, 0
3, 93060, Note_on_c, 0, 68, 84
3, 93240, Note_on_c, 0, 68, 0
3, 93240, Note_on_c, 0, 69, 77
3, 93420, Note_on_c, 0, 69, 0
3, 93420, Note_on_c, 0, 71, 87
3, 93420, Control_c, 0, 64, 0
3, 93420, Control_c, 0, 64, 127
3, 93420, Note_on_c, 0, 59, 34
3, 93420, Note_on_c, 0, 63, 34
3, 93420, Note_on_c, 0, 66, 34
3, 93420, Note_on_c, 0, 69, 34
3, 93600, Note_on_c, 0, 69, 0
3, 93600, Note_on_c, 0, 63, 0
3, 93600, Note_on_c, 0, 66, 0
3, 93600, Note_on_c, 0, 59, 0
3, 93960, Note_on_c, 0, 71, 0
3, 93960, Note_on_c, 0, 68, 75
3, 93960, Note_on_c, 0, 59, 46
3, 93960, Control_c, 0, 64, 0
3, 93960, Control_c, 0, 64, 127
3, 93960, Note_on_c, 0, 40, 33
3, 93960, Note_on_c, 0, 47, 33
3, 93960, Note_on_c, 0, 52, 33
3, 93995, Note_on_c, 0, 71, 75
3, 93995, Note_on_c, 0, 64, 46
3, 94140, Note_on_c, 0, 64, 0
3, 94140, Note_on_c, 0, 52, 0
3, 94140, Note_on_c, 0, 59, 0
3, 94140, Note_on_c, 0, 40, 0
3, 94140, Note_on_c, 0, 68, 0
3, 94140, Note_on_c, 0, 71, 0
3, 94140, Note_on_c, 0, 47, 0
3, 94140, Note_on_c, 0, 73, 86
3, 94320, Note_on_c, 0, 73, 0
3, 94320, Note_on_c, 0, 75, 82
3, 94500, Note_on_c, 0, 75, 0
3, 94500, Note_on_c, 0, 76, 82
3, 94500, Control_c, 0, 64, 0
3, 94500, Control_c, 0, 64, 127
3, 94500, Note_on_c, 0, 61, 34
3, 94500, Note_on_c, 0, 64, 34
3, 94500, Note_on_c, 0, 68, 34
3, 94680, Note_on_c, 0, 68, 0
3, 94680, Note_on_c, 0, 76, 0
3, 94680, Note_on_c, 0, 61, 0
3, 94680, Note_on_c, 0, 64, 0
3, 94680, Note_on_c, 0, 75, 72
3, 94860, Note_on_c, 0, 75, 0
3, 94860, Note_on_c, 0, 73, 67
3, 95040, Note_on_c, 0, 73, 0
3, 95040, Note_on_c, 0, 71, 95
3, 95040, Note_on_c, 0, 67, 45
3, 95040, Control_c, 0, 64, 0
3, 95040, Control_c, 0, 64, 127
3, 95040, Note_on_c, 0, 51, 28
3, 95040, Note_on_c, 0, 61, 28
3, 95220, Note_on_c, 0, 61, 0
3, 95220, Note_on_c, 0, 51, 0
3, 95220, Note_on_c, 0, 67, 0
3, 95400, Note_on_c, 0, 71, 0
3, 95400, Note_on_c, 0, 70, 71
3, 95580, Note_on_c, 0, 70, 0
3, 95580, Note_on_c, 0, 68, 69
3, 95580, Control_c, 0, 64, 0
3, 95580, Control_c, 0, 64, 127
3, 95580, Note_on_c, 0, 56, 33
3, 95580, Note_on_c, 0, 59, 33
3, 95580, Note_on_c, 0, 63, 33
3, 95760, Note_on_c, 0, 63, 0
3, 95760, Note_on_c, 0, 59, 0
3, 95760, Note_on_c, 0, 56, 0
3, 95760, Note_on_c, 0, 59, 45
3, 95760, Note_on_c, 0, 63, 45
3, 95940, Note_on_c, 0, 63, 0
3, 95940, Note_on_c, 0, 59, 0
3, 95940, Note_on_c, 0, 56, 37
3, 95940, Note_on_c, 0, 59, 37
3, 96120, Note_on_c, 0, 59, 0
3, 96120, Note_on_c, 0, 56, 0
3, 96120, Note_on_c, 0, 68, 0
3, 96120, Note_on_c, 0, 59, 25
3, 96120, Control_c, 0, 64, 0
3, 96120, Control_c, 0, 64, 127
3, 96120, Note_on_c, 0, 40, 23
3, 96120, Note_on_c, 0, 47, 23
3, 96150, Note_on_c, 0, 59, 0
3, 96150, Note_on_c, 0, 61, 31
3, 96179, Note_on_c, 0, 61, 0
3, 96179, Note_on_c, 0, 59, 29
3, 96210, Note_on_c, 0, 59, 0
3, 96210, Note_on_c, 0, 61, 33
3, 96240, Note_on_c, 0, 61, 0
3, 96240, Note_on_c, 0, 59, 29
3, 96269, Note_on_c, 0, 59, 0
3, 96269, Note_on_c, 0, 57, 26
3, 96300, Note_on_c, 0, 57, 0
3, 96300, Note_on_c, 0, 47, 0
3, 96300, Note_on_c, 0, 40, 0
3, 96300, Note_on_c, 0, 57, 29
3, 96330, Note_on_c, 0, 57, 0
3, 96330, Note_on_c, 0, 59, 33
3, 96359, Note_on_c, 0, 59, 0
3, 96359, Note_on_c, 0, 57, 26
3, 96390, Note_on_c, 0, 57, 0
3, 96390, Note_on_c, 0, 59, 33
3, 96420, Note_on_c, 0, 59, 0
3, 96420, Note_on_c, 0, 57, 26
3, 96449, Note_on_c, 0, 57, 0
3, 96449, Note_on_c, 0, 56, 29
3, 96480, Note_on_c, 0, 56, 0
3, 96480, Note_on_c, 0, 56, 30
3, 96510, Note_on_c, 0, 56, 0
3, 96510, Note_on_c, 0, 57, 31
3, 96539, Note_on_c, 0, 57, 0
3, 96539, Note_on_c, 0, 56, 28
3, 96570, Note_on_c, 0, 56, 0
3, 96570, Note_on_c, 0, 57, 28
3, 96600, Note_on_c, 0, 57, 0
3, 96600, Note_on_c, 0, 56, 25
3, 96629, Note_on_c, 0, 56, 0
3, 96629, Note_on_c, 0, 54, 29
3, 96660, Note_on_c, 0, 54, 0
3, 96660, Note_on_c, 0, 54, 34
3, 96660, Control_c, 0, 64, 0
3, 96660, Control_c, 0, 64, 127
3, 96690, Note_on_c, 0, 54, 0
3, 96690, Note_on_c, 0, 56, 35
3, 96719, Note_on_c, 0, 56, 0
3, 96719, Note_on_c, 0, 54, 26
3, 96750, Note_on_c, 0, 54, 0
3, 96750, Note_on_c, 0, 56, 31
3, 96780, Note_on_c, 0, 56, 0
3, 96780, Note_on_c, 0, 54, 28
3, 96809, Note_on_c, 0, 54, 0
3, 96809, Note_on_c, 0, 52, 29
3, 96840, Note_on_c, 0, 52, 0
3, 96840, Note_on_c, 0, 52, 28
3, 96870, Note_on_c, 0, 52, 0
3, 96870, Note_on_c, 0, 54, 34
3, 96899, Note_on_c, 0, 54, 0
3, 96899, Note_on_c, 0, 52, 31
3, 96930, Note_on_c, 0, 52, 0
3, 96930, Note_on_c, 0, 54, 31
3, 96960, Note_on_c, 0, 54, 0
3, 96960, Note_on_c, 0, 52, 25
3, 96989, Note_on_c, 0, 52, 0
3, 96989, Note_on_c, 0, 51, 29
3, 97020, Note_on_c, 0, 51, 0
3, 97020, Note_on_c, 0, 51, 26
3, 97050, Note_on_c, 0, 51, 0
3, 97050, Note_on_c, 0, 52, 28
3, 97079, Note_on_c, 0, 52, 0
3, 97079, Note_on_c, 0, 51, 28
3, 97110, Note_on_c, 0, 51, 0
3, 97110, Note_on_c, 0, 52, 32
3, 97140, Note_on_c, 0, 52, 0
3, 97140, Note_on_c, 0, 51, 30
3, 97169, Note_on_c, 0, 51, 0
3, 97169, Note_on_c, 0, 49, 28
3, 97200, Note_on_c, 0, 49, 0
3, 97200, Note_on_c, 0, 49, 29
3, 97200, Control_c, 0, 64, 0
3, 97200, Control_c, 0, 64, 127
3, 97200, Note_on_c, 0, 28, 25
3, 97200, Note_on_c, 0, 40, 25
3, 97230, Note_on_c, 0, 49, 0
3, 97230, Note_on_c, 0, 51, 33
3, 97259, Note_on_c, 0, 51, 0
3, 97259, Note_on_c, 0, 49, 31
3, 97290, Note_on_c, 0, 49, 0
3, 97290, Note_on_c, 0, 51, 34
3, 97320, Note_on_c, 0, 51, 0
3, 97320, Note_on_c, 0, 49, 26
3, 97349, Note_on_c, 0, 49, 0
3, 97349, Note_on_c, 0, 47, 34
3, 97380, Note_on_c, 0, 47, 0
3, 97380, Note_on_c, 0, 40, 0
3, 97380, Note_on_c, 0, 28, 0
3, 97380, Note_on_c, 0, 47, 27
3, 97410, Note_on_c, 0, 47, 0
3, 97410, Note_on_c, 0, 49, 34
3, 97439, Note_on_c, 0, 49, 0
3, 97439, Note_on_c, 0, 47, 29
3, 97470, Note_on_c, 0, 47, 0
3, 97470, Note_on_c, 0, 49, 31
3, 97500, Note_on_c, 0, 49, 0
3, 97500, Note_on_c, 0, 47, 32
3, 97529, Note_on_c, 0, 47, 0
3, 97529, Note_on_c, 0, 49, 30
3, 97560, Note_on_c, 0, 49, 0
3, 97560, Note_on_c, 0, 49, 29
3, 97590, Note_on_c, 0, 49, 0
3, 97590, Note_on_c, 0, 51, 30
3, 97619, Note_on_c, 0, 51, 0
3, 97619, Note_on_c, 0, 49, 25
3, 97650, Note_on_c, 0, 49, 0
3, 97650, Note_on_c, 0, 51, 29
3, 97680, Note_on_c, 0, 51, 0
3, 97680, Note_on_c, 0, 49, 30
3, 97709, Note_on_c, 0, 49, 0
3, 97709, Note_on_c, 0, 52, 31
3, 97740, Note_on_c, 0, 52, 0
3, 97740, Note_on_c, 0, 50, 29
3, 97770, Note_on_c, 0, 50, 0
3, 97770, Note_on_c, 0, 51, 29
3, 97799, Note_on_c, 0, 51, 0
3, 97799, Note_on_c, 0, 50, 26
3, 97830, Note_on_c, 0, 50, 0
3, 97830, Note_on_c, 0, 51, 33
3, 97860, Note_on_c, 0, 51, 0
3, 97860, Note_on_c, 0, 50, 31
3, 97889, Note_on_c, 0, 50, 0
3, 97889, Note_on_c, 0, 51, 36
3, 97920, Note_on_c, 0, 51, 0
3, 97920, Note_on_c, 0, 51, 31
3, 97950, Note_on_c, 0, 51, 0
3, 97950, Note_on_c, 0, 52, 27
3, 97979, Note_on_c, 0, 52, 0
3, 97979, Note_on_c, 0, 51, 26
3, 98010, Note_on_c, 0, 51, 0
3, 98010, Note_on_c, 0, 52, 30
3, 98040, Note_on_c, 0, 52, 0
3, 98040, Note_on_c, 0, 51, 31
3, 98069, Note_on_c, 0, 51, 0
3, 98069, Note_on_c, 0, 52, 31
3, 98100, Note_on_c, 0, 52, 0
3, 98100, Note_on_c, 0, 52, 30
3, 98130, Note_on_c, 0, 52, 0
3, 98130, Note_on_c, 0, 54, 34
3, 98159, Note_on_c, 0, 54, 0
3, 98159, Note_on_c, 0, 52, 31
3, 98190, Note_on_c, 0, 52, 0
3, 98190, Note_on_c, 0, 54, 36
3, 98220, Note_on_c, 0, 54, 0
3, 98220, Note_on_c, 0, 52, 30
3, 98249, Note_on_c, 0, 52, 0
3, 98249, Note_on_c, 0, 53, 37
3, 98280, Note_on_c, 0, 53, 0
3, 98280, Note_on_c, 0, 53, 27
3, 98280, Control_c, 0, 64, 0
3, 98280, Control_c, 0, 64, 127
3, 98280, Note_on_c, 0, 40, 27
3, 98280, Note_on_c, 0, 52, 27
3, 98310, Note_on_c, 0, 53, 0
3, 98310, Note_on_c, 0, 54, 29
3, 98339, Note_on_c, 0, 54, 0
3, 98339, Note_on_c, 0, 53, 28
3, 98370, Note_on_c, 0, 53, 0
3, 98370, Note_on_c, 0, 54, 32
3, 98400, Note_on_c, 0, 54, 0
3, 98400, Note_on_c, 0, 53, 35
3, 98429, Note_on_c, 0, 53, 0
3, 98429, Note_on_c, 0, 54, 33
3, 98460, Note_on_c, 0, 54, 0
3, 98460, Note_on_c, 0, 52, 0
3, 98460, Note_on_c, 0, 40, 0
3, 98460, Note_on_c, 0, 54, 30
3, 98490, Note_on_c, 0, 54, 0
3, 98490, Note_on_c, 0, 56, 36
3, 98519, Note_on_c, 0, 56, 0
3, 98519, Note_on_c, 0, 54, 26
3, 98550, Note_on_c, 0, 54, 0
3, 98550, Note_on_c, 0, 56, 29
3, 98580, Note_on_c, 0, 56, 0
3, 98580, Note_on_c, 0, 54, 31
3, 98609, Note_on_c, 0, 54, 0
3, 98609, Note_on_c, 0, 56, 31
3, 98640, Note_on_c, 0, 56, 0
3, 98640, Note_on_c, 0, 56, 33
3, 98670, Note_on_c, 0, 56, 0
3, 98670, Note_on_c, 0, 57, 32
3, 98699, Note_on_c, 0, 57, 0
3, 98699, Note_on_c, 0, 56, 29
3, 98730, Note_on_c, 0, 56, 0
3, 98730, Note_on_c, 0, 57, 31
3, 98760, Note_on_c, 0, 57, 0
3, 98760, Note_on_c, 0, 56, 26
3, 98789, Note_on_c, 0, 56, 0
3, 98789, Note_on_c, 0, 57, 30
3, 98820, Note_on_c, 0, 57, 0
3, 98820, Note_on_c, 0, 57, 28
3, 98850, Note_on_c, 0, 57, 0
3, 98850, Note_on_c, 0, 59, 31
3, 98879, Note_on_c, 0, 59, 0
3, 98879, Note_on_c, 0, 57, 31
3, 98910, Note_on_c, 0, 57, 0
3, 98910, Note_on_c, 0, 59, 30
3, 98940, Note_on_c, 0, 59, 0
3, 98940, Note_on_c, 0, 57, 31
3, 98969, Note_on_c, 0, 57, 0
3, 98969, Note_on_c, 0, 59, 34
3, 99000, Note_on_c, 0, 59, 0
3, 99000, Note_on_c, 0, 57, 28
3, 99030, Note_on_c, 0, 57, 0
3, 99030, Note_on_c, 0, 59, 30
3, 99059, Note_on_c, 0, 59, 0
3, 99059, Note_on_c, 0, 57, 28
3, 99090, Note_on_c, 0, 57, 0
3, 99090, Note_on_c, 0, 59, 29
3, 99120, Note_on_c, 0, 59, 0
3, 99120, Note_on_c, 0, 57, 25
3, 99149, Note_on_c, 0, 57, 0
3, 99149, Note_on_c, 0, 59, 29
3, 99180, Note_on_c, 0, 59, 0
3, 99180, Note_on_c, 0, 58, 28
3, 99210, Note_on_c, 0, 58, 0
3, 99210, Note_on_c, 0, 59, 33
3, 99239, Note_on_c, 0, 59, 0
3, 99239, Note_on_c, 0, 58, 28
3, 99270, Note_on_c, 0, 58, 0
3, 99270, Note_on_c, 0, 59, 30
3, 99300, Note_on_c, 0, 59, 0
3, 99300, Note_on_c, 0, 58, 30
3, 99329, Note_on_c, 0, 58, 0
3, 99329, Note_on_c, 0, 59, 30
3, 99360, Note_on_c, 0, 59, 0
3, 99360, Note_on_c, 0, 59, 27
3, 99360, Control_c, 0, 64, 0
3, 99360, Control_c, 0, 64, 127
3, 99360, Note_on_c, 0, 40, 26
3, 99390, Note_on_c, 0, 59, 0
3, 99390, Note_on_c, 0, 61, 34
3, 99395, Note_on_c, 0, 47, 26
3, 99419, Note_on_c, 0, 61, 0
3, 99419, Note_on_c, 0, 59, 31
3, 99431, Note_on_c, 0, 56, 26
3, 99450, Note_on_c, 0, 59, 0
3, 99450, Note_on_c, 0, 61, 35
3, 99480, Note_on_c, 0, 61, 0
3, 99480, Note_on_c, 0, 59, 27
3, 99509, Note_on_c, 0, 59, 0
3, 99509, Note_on_c, 0, 61, 34
3, 99540, Note_on_c, 0, 61, 0
3, 99540, Note_on_c, 0, 56, 0
3, 99540, Note_on_c, 0, 47, 0
3, 99540, Note_on_c, 0, 40, 0
3, 99540, Note_on_c, 0, 61, 27
3, 99570, Note_on_c, 0, 61, 0
3, 99570, Note_on_c, 0, 63, 34
3, 99599, Note_on_c, 0, 63, 0
3, 99599, Note_on_c, 0, 61, 27
3, 99630, Note_on_c, 0, 61, 0
3, 99630, Note_on_c, 0, 63, 30
3, 99660, Note_on_c, 0, 63, 0
3, 99660, Note_on_c, 0, 61, 24
3, 99689, Note_on_c, 0, 61, 0
3, 99689, Note_on_c, 0, 63, 33
3, 99720, Note_on_c, 0, 63, 0
3, 99720, Note_on_c, 0, 63, 31
3, 99750, Note_on_c, 0, 63, 0
3, 99750, Note_on_c, 0, 64, 33
3, 99779, Note_on_c, 0, 64, 0
3, 99779, Note_on_c, 0, 63, 27
3, 99810, Note_on_c, 0, 63, 0
3, 99810, Note_on_c, 0, 64, 31
3, 99840, Note_on_c, 0, 64, 0
3, 99840, Note_on_c, 0, 63, 33
3, 99869, Note_on_c, 0, 63, 0
3, 99869, Note_on_c, 0, 64, 36
3, 99900, Note_on_c, 0, 64, 0
3, 99900, Note_on_c, 0, 64, 31
3, 99930, Note_on_c, 0, 64, 0
3, 99930, Note_on_c, 0, 66, 31
3, 99959, Note_on_c, 0, 66, 0
3, 99959, Note_on_c, 0, 64, 23
3, 99990, Note_on_c, 0, 64, 0
3, 99990, Note_on_c, 0, 66, 35
3, 100020, Note_on_c, 0, 66, 0
3, 100020, Note_on_c, 0, 64, 28
3, 100049, Note_on_c, 0, 64, 0
3, 100049, Note_on_c, 0, 66, 33
3, 100080, Note_on_c, 0, 66, 0
3, 100080, Note_on_c, 0, 63, 29
3, 100110, Note_on_c, 0, 63, 0
3, 100110, Note_on_c, 0, 64, 30
3, 100139, Note_on_c, 0, 64, 0
3, 100139, Note_on_c, 0, 63, 31
3, 100170, Note_on_c, 0, 63, 0
3, 100170, Note_on_c, 0, 64, 35
3, 100200, Note_on_c, 0, 64, 0
3, 100200, Note_on_c, 0, 63, 31
3, 100229, Note_on_c, 0, 63, 0
3, 100229, Note_on_c, 0, 64, 34
3, 100260, Note_on_c, 0, 64, 0
3, 100260, Note_on_c, 0, 61, 29
3, 100290, Note_on_c, 0, 61, 0
3, 100290, Note_on_c, 0, 63, 32
3, 100319, Note_on_c, 0, 63, 0
3, 100319, Note_on_c, 0, 61, 28
3, 100350, Note_on_c, 0, 61, 0
3, 100350, Note_on_c, 0, 63, 30
3, 100380, Note_on_c, 0, 63, 0
3, 100380, Note_on_c, 0, 61, 25
3, 100409, Note_on_c, 0, 61, 0
3, 100409, Note_on_c, 0, 63, 31
3, 100440, Note_on_c, 0, 63, 0
3, 100440, Note_on_c, 0, 59, 22
3, 100440, Control_c, 0, 64, 0
3, 100440, Control_c, 0, 64, 127
3, 100440, Note_on_c, 0, 40, 23
3, 100470, Note_on_c, 0, 59, 0
3, 100470, Note_on_c, 0, 61, 36
3, 100475, Note_on_c, 0, 47, 23
3, 100499, Note_on_c, 0, 61, 0
3, 100499, Note_on_c, 0, 59, 30
3, 100530, Note_on_c, 0, 59, 0
3, 100530, Note_on_c, 0, 61, 31
3, 100560, Note_on_c, 0, 61, 0
3, 100560, Note_on_c, 0, 59, 27
3, 100589, Note_on_c, 0, 59, 0
3, 100589, Note_on_c, 0, 57, 28
3, 100620, Note_on_c, 0, 57, 0
3, 100620, Note_on_c, 0, 47, 0
3, 100620, Note_on_c, 0, 40, 0
3, 100620, Note_on_c, 0, 57, 31
3, 100650, Note_on_c, 0, 57, 0
3, 100650, Note_on_c, 0, 59, 37
3, 100679, Note_on_c, 0, 59, 0
3, 100679, Note_on_c, 0, 57, 32
3, 100710, Note_on_c, 0, 57, 0
3, 100710, Note_on_c, 0, 59, 35
3, 100740, Note_on_c, 0, 59, 0
3, 100740, Note_on_c, 0, 57, 31
3, 100769, Note_on_c, 0, 57, 0
3, 100769, Note_on_c, 0, 56, 31
3, 100800, Note_on_c, 0, 56, 0
3, 100800, Note_on_c, 0, 56, 32
3, 100830, Note_on_c, 0, 56, 0
3, 100830, Note_on_c, 0, 57, 30
3, 100859, Note_on_c, 0, 57, 0
3, 100859, Note_on_c, 0, 56, 30
3, 100890, Note_on_c, 0, 56, 0
3, 100890, Note_on_c, 0, 57, 29
3, 100920, Note_on_c, 0, 57, 0
3, 100920, Note_on_c, 0, 56, 30
3, 100949, Note_on_c, 0, 56, 0
3, 100949, Note_on_c, 0, 54, 26
3, 100980, Note_on_c, 0, 54, 0
3, 100980, Note_on_c, 0, 54, 32
3, 101010, Note_on_c, 0, 54, 0
3, 101010, Note_on_c, 0, 56, 37
3, 101039, Note_on_c, 0, 56, 0
3, 101039, Note_on_c, 0, 54, 29
3, 101070, Note_on_c, 0, 54, 0
3, 101070, Note_on_c, 0, 56, 34
3, 101100, Note_on_c, 0, 56, 0
3, 101100, Note_on_c, 0, 54, 26
3, 101129, Note_on_c, 0, 54, 0
3, 101129, Note_on_c, 0, 52, 30
3, 101160, Note_on_c, 0, 52, 0
3, 101160, Note_on_c, 0, 52, 29
3, 101190, Note_on_c, 0, 52, 0
3, 101190, Note_on_c, 0, 54, 32
3, 101219, Note_on_c, 0, 54, 0
3, 101219, Note_on_c, 0, 52, 25
3, 101250, Note_on_c, 0, 52, 0
3, 101250, Note_on_c, 0, 54, 30
3, 101280, Note_on_c, 0, 54, 0
3, 101280, Note_on_c, 0, 52, 31
3, 101309, Note_on_c, 0, 52, 0
3, 101309, Note_on_c, 0, 51, 30
3, 101340, Note_on_c, 0, 51, 0
3, 101340, Note_on_c, 0, 51, 27
3, 101370, Note_on_c, 0, 51, 0
3, 101370, Note_on_c, 0, 52, 28
3, 101399, Note_on_c, 0, 52, 0
3, 101399, Note_on_c, 0, 51, 31
3, 101430, Note_on_c, 0, 51, 0
3, 101430, Note_on_c, 0, 52, 35
3, 101460, Note_on_c, 0, 52, 0
3, 101460, Note_on_c, 0, 51, 30
3, 101489, Note_on_c, 0, 51, 0
3, 101489, Note_on_c, 0, 49, 27
3, 101520, Note_on_c, 0, 49, 0
3, 101520, Note_on_c, 0, 49, 33
3, 101520, Control_c, 0, 64, 0
3, 101520, Control_c, 0, 64, 127
3, 101520, Note_on_c, 0, 28, 20
3, 101550, Note_on_c, 0, 49, 0
3, 101550, Note_on_c, 0, 51, 28
3, 101555, Note_on_c, 0, 40, 20
3, 101579, Note_on_c, 0, 51, 0
3, 101579, Note_on_c, 0, 49, 28
3, 101610, Note_on_c, 0, 49, 0
3, 101610, Note_on_c, 0, 51, 30
3, 101640, Note_on_c, 0, 51, 0
3, 101640, Note_on_c, 0, 49, 28
3, 101669, Note_on_c, 0, 49, 0
3, 101669, Note_on_c, 0, 47, 28
3, 101700, Note_on_c, 0, 47, 0
3, 101700, Note_on_c, 0, 40, 0
3, 101700, Note_on_c, 0, 28, 0
3, 101700, Note_on_c, 0, 47, 28
3, 101730, Note_on_c, 0, 47, 0
3, 101730, Note_on_c, 0, 49, 30
3, 101759, Note_on_c, 0, 49, 0
3, 101759, Note_on_c, 0, 47, 29
3, 101790, Note_on_c, 0, 47, 0
3, 101790, Note_on_c, 0, 49, 31
3, 101820, Note_on_c, 0, 49, 0
3, 101820, Note_on_c, 0, 47, 31
3, 101849, Note_on_c, 0, 47, 0
3, 101849, Note_on_c, 0, 49, 31
3, 101880, Note_on_c, 0, 49, 0
3, 101880, Note_on_c, 0, 49, 32
3, 101910, Note_on_c, 0, 49, 0
3, 101910, Note_on_c, 0, 51, 33
3, 101939, Note_on_c, 0, 51, 0
3, 101939, Note_on_c, 0, 49, 30
3, 101970, Note_on_c, 0, 49, 0
3, 101970, Note_on_c, 0, 51, 34
3, 102000, Note_on_c, 0, 51, 0
3, 102000, Note_on_c, 0, 49, 29
3, 102029, Note_on_c, 0, 49, 0
3, 102029, Note_on_c, 0, 52, 32
3, 102060, Note_on_c, 0, 52, 0
3, 102060, Note_on_c, 0, 50, 29
3, 102060, Control_c, 0, 64, 0
3, 102060, Control_c, 0, 64, 127
3, 102060, Note_on_c, 0, 40, 21
3, 102090, Note_on_c, 0, 50, 0
3, 102090, Note_on_c, 0, 51, 33
3, 102119, Note_on_c, 0, 51, 0
3, 102119, Note_on_c, 0, 50, 30
3, 102150, Note_on_c, 0, 50, 0
3, 102150, Note_on_c, 0, 51, 28
3, 102180, Note_on_c, 0, 51, 0
3, 102180, Note_on_c, 0, 50, 29
3, 102209, Note_on_c, 0, 50, 0
3, 102209, Note_on_c, 0, 62, 46
3, 102240, Note_on_c, 0, 62, 0
3, 102240, Note_on_c, 0, 40, 0
3, 102240, Note_on_c, 0, 62, 32
3, 102270, Note_on_c, 0, 62, 0
3, 102270, Note_on_c, 0, 63, 34
3, 102299, Note_on_c, 0, 63, 0
3, 102299, Note_on_c, 0, 62, 28
3, 102330, Note_on_c, 0, 62, 0
3, 102330, Note_on_c, 0, 63, 33
3, 102360, Note_on_c, 0, 63, 0
3, 102360, Note_on_c, 0, 62, 25
3, 102389, Note_on_c, 0, 62, 0
3, 102389, Note_on_c, 0, 50, 25
3, 102420, Note_on_c, 0, 50, 0
3, 102420, Note_on_c, 0, 50, 31
3, 102450, Note_on_c, 0, 50, 0
3, 102450, Note_on_c, 0, 51, 34
3, 102479, Note_on_c, 0, 51, 0
3, 102479, Note_on_c, 0, 50, 29
3, 102510, Note_on_c, 0, 50, 0
3, 102510, Note_on_c, 0, 51, 33
3, 102540, Note_on_c, 0, 51, 0
3, 102540, Note_on_c, 0, 50, 29
3, 102569, Note_on_c, 0, 50, 0
3, 102569, Note_on_c, 0, 51, 29
3, 102600, Note_on_c, 0, 51, 0
3, 102600, Note_on_c, 0, 51, 30
3, 102600, Control_c, 0, 64, 0
3, 102600, Control_c, 0, 64, 127
3, 102600, Note_on_c, 0, 27, 18
3, 102630, Note_on_c, 0, 51, 0
3, 102630, Note_on_c, 0, 52, 34
3, 102635, Note_on_c, 0, 39, 18
3, 102659, Note_on_c, 0, 52, 0
3, 102659, Note_on_c, 0, 51, 32
3, 102690, Note_on_c, 0, 51, 0
3, 102690, Note_on_c, 0, 52, 30
3, 102720, Note_on_c, 0, 52, 0
3, 102720, Note_on_c, 0, 51, 28
3, 102749, Note_on_c, 0, 51, 0
3, 102749, Note_on_c, 0, 63, 44
3, 102780, Note_on_c, 0, 63, 0
3, 102780, Note_on_c, 0, 39, 0
3, 102780, Note_on_c, 0, 27, 0
3, 102780, Note_on_c, 0, 63, 31
3, 102810, Note_on_c, 0, 63, 0
3, 102810, Note_on_c, 0, 64, 34
3, 102839, Note_on_c, 0, 64, 0
3, 102839, Note_on_c, 0, 63, 32
3, 102870, Note_on_c, 0, 63, 0
3, 102870, Note_on_c, 0, 64, 35
3, 102900, Note_on_c, 0, 64, 0
3, 102900, Note_on_c, 0, 63, 27
3, 102929, Note_on_c, 0, 63, 0
3, 102929, Note_on_c, 0, 56, 29
3, 102960, Note_on_c, 0, 56, 0
3, 102960, Note_on_c, 0, 56, 35
3, 102990, Note_on_c, 0, 56, 0
3, 102990, Note_on_c, 0, 58, 32
3, 103019, Note_on_c, 0, 58, 0
3, 103019, Note_on_c, 0, 56, 25
3, 103050, Note_on_c, 0, 56, 0
3, 103050, Note_on_c, 0, 58, 33
3, 103080, Note_on_c, 0, 58, 0
3, 103080, Note_on_c, 0, 56, 30
3, 103109, Note_on_c, 0, 56, 0
3, 103109, Note_on_c, 0, 55, 26
3, 103140, Note_on_c, 0, 55, 0
3, 103140, Note_on_c, 0, 55, 30
3, 103140, Control_c, 0, 64, 0
3, 103140, Control_c, 0, 64, 127
3, 103140, Note_on_c, 0, 39, 26
3, 103140, Note_on_c, 0, 51, 26
3, 103170, Note_on_c, 0, 55, 0
3, 103170, Note_on_c, 0, 56, 32
3, 103199, Note_on_c, 0, 56, 0
3, 103199, Note_on_c, 0, 55, 23
3, 103230, Note_on_c, 0, 55, 0
3, 103230, Note_on_c, 0, 56, 34
3, 103260, Note_on_c, 0, 56, 0
3, 103260, Note_on_c, 0, 55, 25
3, 103289, Note_on_c, 0, 55, 0
3, 103289, Note_on_c, 0, 67, 45
3, 103320, Note_on_c, 0, 67, 0
3, 103320, Note_on_c, 0, 51, 0
3, 103320, Note_on_c, 0, 39, 0
3, 103320, Note_on_c, 0, 67, 33
3, 103350, Note_on_c, 0, 67, 0
3, 103350, Note_on_c, 0, 68, 36
3, 103379, Note_on_c, 0, 68, 0
3, 103379, Note_on_c, 0, 67, 30
3, 103410, Note_on_c, 0, 67, 0
3, 103410, Note_on_c, 0, 68, 35
3, 103440, Note_on_c, 0, 68, 0
3, 103440, Note_on_c, 0, 67, 26
3, 103469, Note_on_c, 0, 67, 0
3, 103469, Note_on_c, 0, 55, 26
3, 103500, Note_on_c, 0, 55, 0
3, 103500, Note_on_c, 0, 55, 28
3, 103530, Note_on_c, 0, 55, 0
3, 103530, Note_on_c, 0, 56, 38
3, 103559, Note_on_c, 0, 56, 0
3, 103559, Note_on_c, 0, 55, 34
3, 103590, Note_on_c, 0, 55, 0
3, 103590, Note_on_c, 0, 56, 32
3, 103620, Note_on_c, 0, 56, 0
3, 103620, Note_on_c, 0, 55, 29
3, 103649, Note_on_c, 0, 55, 0
3, 103649, Note_on_c, 0, 56, 34
3, 103680, Note_on_c, 0, 56, 0
3, 103680, Note_on_c, 0, 56, 31
3, 103680, Control_c, 0, 64, 0
3, 103680, Control_c, 0, 64, 127
3, 103680, Note_on_c, 0, 44, 25
3, 103680, Note_on_c, 0, 51, 25
3, 103710, Note_on_c, 0, 56, 0
3, 103710, Note_on_c, 0, 58, 33
3, 103739, Note_on_c, 0, 58, 0
3, 103739, Note_on_c, 0, 56, 28
3, 103770, Note_on_c, 0, 56, 0
3, 103770, Note_on_c, 0, 58, 33
3, 103800, Note_on_c, 0, 58, 0
3, 103800, Note_on_c, 0, 56, 30
3, 103829, Note_on_c, 0, 56, 0
3, 103829, Note_on_c, 0, 58, 28
3, 103860, Note_on_c, 0, 58, 0
3, 103860, Note_on_c, 0, 51, 0
3, 103860, Note_on_c, 0, 44, 0
3, 103860, Note_on_c, 0, 59, 30
3, 103890, Note_on_c, 0, 59, 0
3, 103890, Note_on_c, 0, 61, 36
3, 103919, Note_on_c, 0, 61, 0
3, 103919, Note_on_c, 0, 59, 29
3, 103950, Note_on_c, 0, 59, 0
3, 103950, Note_on_c, 0, 61, 42
3, 103980, Note_on_c, 0, 61, 0
3, 103980, Note_on_c, 0, 59, 30
3, 104009, Note_on_c, 0, 59, 0
3, 104009, Note_on_c, 0, 61, 32
3, 104040, Note_on_c, 0, 61, 0
3, 104040, Note_on_c, 0, 63, 37
3, 104070, Note_on_c, 0, 63, 0
3, 104070, Note_on_c, 0, 65, 34
3, 104099, Note_on_c, 0, 65, 0
3, 104099, Note_on_c, 0, 63, 24
3, 104130, Note_on_c, 0, 63, 0
3, 104130, Note_on_c, 0, 65, 32
3, 104160, Note_on_c, 0, 65, 0
3, 104160, Note_on_c, 0, 67, 32
3, 104189, Note_on_c, 0, 67, 0
3, 104189, Note_on_c, 0, 68, 40
3, 104220, Note_on_c, 0, 68, 0
3, 104220, Control_c, 0, 64, 0
3, 104220, Control_c, 0, 64, 127
3, 104220, Note_on_c, 0, 56, 26
3, 104400, Note_on_c, 0, 56, 0
3, 104760, Note_on_c, 0, 56, 68
3, 104760, Control_c, 0, 64, 0
3, 104760, Control_c, 0, 64, 127
3, 104760, Note_on_c, 0, 40, 67
3, 104760, Note_on_c, 0, 47, 67
3, 104940, Note_on_c, 0, 47, 0
3, 104940, Note_on_c, 0, 40, 0
3, 104940, Note_on_c, 0, 56, 0
3, 104940, Note_on_c, 0, 71, 107
3, 105098, Note_on_c, 0, 71, 0
3, 105120, Note_on_c, 0, 68, 86
3, 105278, Note_on_c, 0, 68, 0
3, 105300, Note_on_c, 0, 68, 75
3, 105300, Control_c, 0, 64, 0
3, 105300, Control_c, 0, 64, 127
3, 105300, Note_on_c, 0, 52, 36
3, 105300, Note_on_c, 0, 57, 36
3, 105300, Note_on_c, 0, 59, 36
3, 105300, Note_on_c, 0, 63, 36
3, 105480, Note_on_c, 0, 63, 0
3, 105480, Note_on_c, 0, 57, 0
3, 105480, Note_on_c, 0, 68, 0
3, 105480, Note_on_c, 0, 52, 0
3, 105480, Note_on_c, 0, 59, 0
3, 105480, Note_on_c, 0, 66, 72
3, 105660, Note_on_c, 0, 66, 0
3, 105660, Note_on_c, 0, 65, 70
3, 105840, Note_on_c, 0, 65, 0
3, 105840, Note_on_c, 0, 66, 84
3, 105840, Note_on_c, 0, 57, 47
3, 105840, Control_c, 0, 64, 0
3, 105840, Control_c, 0, 64, 127
3, 105840, Note_on_c, 0, 40, 30
3, 105840, Note_on_c, 0, 47, 30
3, 105840, Note_on_c, 0, 52, 30
3, 105875, Note_on_c, 0, 63, 47
3, 106020, Note_on_c, 0, 63, 0
3, 106020, Note_on_c, 0, 57, 0
3, 106020, Note_on_c, 0, 40, 0
3, 106020, Note_on_c, 0, 66, 0
3, 106020, Note_on_c, 0, 52, 0
3, 106020, Note_on_c, 0, 47, 0
3, 106020, Note_on_c, 0, 68, 81
3, 106200, Note_on_c, 0, 68, 0
3, 106200, Note_on_c, 0, 69, 81
3, 106380, Note_on_c, 0, 69, 0
3, 106380, Note_on_c, 0, 71, 83
3, 106380, Control_c, 0, 64, 0
3, 106380, Control_c, 0, 64, 127
3, 106380, Note_on_c, 0, 59, 40
3, 106380, Note_on_c, 0, 63, 40
3, 106380, Note_on_c, 0, 66, 40
3, 106380, Note_on_c, 0, 69, 40
3, 106560, Note_on_c, 0, 69, 0
3, 106560, Note_on_c, 0, 63, 0
3, 106560, Note_on_c, 0, 66, 0
3, 106560, Note_on_c, 0, 59, 0
3, 106920, Note_on_c, 0, 71, 0
3, 106920, Note_on_c, 0, 71, 78
3, 106920, Note_on_c, 0, 59, 45
3, 106920, Control_c, 0, 64, 0
3, 106920, Control_c, 0, 64, 127
3, 106920, Note_on_c, 0, 40, 31
3, 106920, Note_on_c, 0, 47, 31
3, 106920, Note_on_c, 0, 52, 31
3, 106955, Note_on_c, 0, 64, 45
3, 106991, Note_on_c, 0, 68, 45
3, 107100, Note_on_c, 0, 68, 0
3, 107100, Note_on_c, 0, 52, 0
3, 107100, Note_on_c, 0, 59, 0
3, 107100, Note_on_c, 0, 40, 0
3, 107100, Note_on_c, 0, 71, 0
3, 107100, Note_on_c, 0, 64, 0
3, 107100, Note_on_c, 0, 47, 0
3, 107100, Note_on_c, 0, 73, 82
3, 107280, Note_on_c, 0, 73, 0
3, 107280, Note_on_c, 0, 75, 80
3, 107460, Note_on_c, 0, 75, 0
3, 107460, Note_on_c, 0, 76, 83
3, 107460, Control_c, 0, 64, 0
3, 107460, Control_c, 0, 64, 127
3, 107460, Note_on_c, 0, 64, 33
3, 107460, Note_on_c, 0, 67, 33
3, 107460, Note_on_c, 0, 70, 33
3, 107640, Note_on_c, 0, 70, 0
3, 107640, Note_on_c, 0, 76, 0
3, 107640, Note_on_c, 0, 64, 0
3, 107640, Note_on_c, 0, 67, 0
3, 107640, Note_on_c, 0, 75, 73
3, 107820, Note_on_c, 0, 75, 0
3, 107820, Note_on_c, 0, 73, 74
3, 108000, Note_on_c, 0, 73, 0
3, 108000, Control_c, 0, 64, 0
3, 108000, Note_on_c, 0, 71, 101
3, 108000, Note_on_c, 0, 63, 49
3, 108000, Control_c, 0, 64, 127
3, 108000, Note_on_c, 0, 52, 34
3, 108000, Note_on_c, 0, 59, 34
3, 108035, Note_on_c, 0, 66, 49
3, 108180, Note_on_c, 0, 66, 0
3, 108180, Note_on_c, 0, 52, 0
3, 108180, Note_on_c, 0, 59, 0
3, 108180, Note_on_c, 0, 63, 0
3, 108360, Note_on_c, 0, 71, 0
3, 108360, Note_on_c, 0, 66, 60
3, 108540, Note_on_c, 0, 66, 0
3, 108540, Note_on_c, 0, 66, 75
3, 108540, Control_c, 0, 64, 0
3, 108540, Control_c, 0, 64, 127
3, 108540, Note_on_c, 0, 57, 32
3, 108540, Note_on_c, 0, 59, 32
3, 108540, Note_on_c, 0, 63, 32
3, 108720, Note_on_c, 0, 63, 0
3, 108720, Note_on_c, 0, 59, 0
3, 108720, Note_on_c, 0, 57, 0
3, 109080, Note_on_c, 0, 66, 0
3, 109080, Note_on_c, 0, 59, 70
3, 109080, Control_c, 0, 64, 0
3, 109080, Control_c, 0, 64, 127
3, 109080, Note_on_c, 0, 40, 33
3, 109080, Note_on_c, 0, 47, 33
3, 109080, Note_on_c, 0, 56, 33
3, 109115, Note_on_c, 0, 64, 70
3, 109260, Note_on_c, 0, 64, 0
3, 109260, Note_on_c, 0, 47, 0
3, 109260, Note_on_c, 0, 59, 0
3, 109260, Note_on_c, 0, 40, 0
3, 109260, Note_on_c, 0, 56, 0
3, 109260, Note_on_c, 0, 71, 105
3, 109418, Note_on_c, 0, 71, 0
3, 109440, Note_on_c, 0, 68, 80
3, 109598, Note_on_c, 0, 68, 0
3, 109620, Note_on_c, 0, 68, 72
3, 109620, Control_c, 0, 64, 0
3, 109620, Control_c, 0, 64, 127
3, 109620, Note_on_c, 0, 52, 33
3, 109620, Note_on_c, 0, 57, 33
3, 109620, Note_on_c, 0, 59, 33
3, 109620, Note_on_c, 0, 63, 33
3, 109800, Note_on_c, 0, 63, 0
3, 109800, Note_on_c, 0, 57, 0
3, 109800, Note_on_c, 0, 68, 0
3, 109800, Note_on_c, 0, 52, 0
3, 109800, Note_on_c, 0, 59, 0
3, 109800, Note_on_c, 0, 66, 72
3, 109980, Note_on_c, 0, 66, 0
3, 109980, Note_on_c, 0, 65, 69
3, 110160, Note_on_c, 0, 65, 0
3, 110160, Note_on_c, 0, 66, 80
3, 110160, Note_on_c, 0, 57, 48
3, 110160, Control_c, 0, 64, 0
3, 110160, Control_c, 0, 64, 127
3, 110160, Note_on_c, 0, 40, 36
3, 110160, Note_on_c, 0, 47, 36
3, 110160, Note_on_c, 0, 52, 36
3, 110195, Note_on_c, 0, 63, 48
3, 110340, Note_on_c, 0, 63, 0
3, 110340, Note_on_c, 0, 57, 0
3, 110340, Note_on_c, 0, 40, 0
3, 110340, Note_on_c, 0, 66, 0
3, 110340, Note_on_c, 0, 52, 0
3, 110340, Note_on_c, 0, 47, 0
3, 110340, Note_on_c, 0, 68, 87
3, 110520, Note_on_c, 0, 68, 0
3, 110520, Note_on_c, 0, 69, 96
3, 110678, Note_on_c, 0, 69, 0
3, 110700, Note_on_c, 0, 71, 83
3, 110700, Control_c, 0, 64, 0
3, 110700, Control_c, 0, 64, 127
3, 110700, Note_on_c, 0, 52, 32
3, 110700, Note_on_c, 0, 57, 32
3, 110700, Note_on_c, 0, 59, 32
3, 110700, Note_on_c, 0, 63, 32
3, 110880, Note_on_c, 0, 63, 0
3, 110880, Note_on_c, 0, 57, 0
3, 110880, Note_on_c, 0, 59, 0
3, 110880, Note_on_c, 0, 52, 0
3, 111240, Note_on_c, 0, 71, 0
3, 111240, Control_c, 0, 64, 0
3, 111240, Control_c, 0, 64, 127
3, 111240, Note_on_c, 0, 40, 37
3, 111240, Note_on_c, 0, 47, 37
3, 111240, Note_on_c, 0, 56, 37
3, 111420, Note_on_c, 0, 56, 0
3, 111420, Note_on_c, 0, 47, 0
3, 111420, Note_on_c, 0, 40, 0
3, 111420, Note_on_c, 0, 71, 78
3, 111578, Note_on_c, 0, 71, 0
3, 111600, Note_on_c, 0, 68, 79
3, 111758, Note_on_c, 0, 68, 0
3, 111780, Note_on_c, 0, 68, 81
3, 111780, Control_c, 0, 64, 0
3, 111780, Control_c, 0, 64, 127
3, 111780, Note_on_c, 0, 52, 37
3, 111780, Note_on_c, 0, 57, 37
3, 111780, Note_on_c, 0, 59, 37
3, 111780, Note_on_c, 0, 63, 37
3, 111960, Note_on_c, 0, 63, 0
3, 111960, Note_on_c, 0, 57, 0
3, 111960, Note_on_c, 0, 68, 0
3, 111960, Note_on_c, 0, 52, 0
3, 111960, Note_on_c, 0, 59, 0
3, 111960, Note_on_c, 0, 66, 75
3, 112140, Note_on_c, 0, 66, 0
3, 112140, Note_on_c, 0, 65, 66
3, 112320, Note_on_c, 0, 65, 0
3, 112320, Note_on_c, 0, 66, 82
3, 112320, Note_on_c, 0, 57, 46
3, 112320, Control_c, 0, 64, 0
3, 112320, Control_c, 0, 64, 127
3, 112320, Note_on_c, 0, 40, 32
3, 112320, Note_on_c, 0, 47, 32
3, 112320, Note_on_c, 0, 52, 32
3, 112355, Note_on_c, 0, 63, 46
3, 112500, Note_on_c, 0, 63, 0
3, 112500, Note_on_c, 0, 57, 0
3, 112500, Note_on_c, 0, 40, 0
3, 112500, Note_on_c, 0, 66, 0
3, 112500, Note_on_c, 0, 52, 0
3, 112500, Note_on_c, 0, 47, 0
3, 112500, Note_on_c, 0, 68, 85
3, 112680, Note_on_c, 0, 68, 0
3, 112680, Note_on_c, 0, 69, 96
3, 112838, Note_on_c, 0, 69, 0
3, 112860, Note_on_c, 0, 71, 87
3, 112860, Control_c, 0, 64, 0
3, 112860, Control_c, 0, 64, 127
3, 112860, Note_on_c, 0, 52, 29
3, 112860, Note_on_c, 0, 57, 29
3, 112860, Note_on_c, 0, 59, 29
3, 112860, Note_on_c, 0, 63, 29
3, 113040, Note_on_c, 0, 63, 0
3, 113040, Note_on_c, 0, 57, 0
3, 113040, Note_on_c, 0, 59, 0
3, 113040, Note_on_c, 0, 52, 0
3, 113400, Note_on_c, 0, 71, 0
3, 113400, Control_c, 0, 64, 0
3, 113400, Control_c, 0, 64, 127
3, 113400, Note_on_c, 0, 40, 29
3, 113400, Note_on_c, 0, 47, 29
3, 113400, Note_on_c, 0, 56, 29
3, 113580, Note_on_c, 0, 56, 0
3, 113580, Note_on_c, 0, 47, 0
3, 113580, Note_on_c, 0, 40, 0
3, 113580, Note_on_c, 0, 71, 79
3, 113738, Note_on_c, 0, 71, 0
3, 113760, Note_on_c, 0, 68, 81
3, 113918, Note_on_c, 0, 68, 0
3, 113940, Note_on_c, 0, 66, 68
3, 114120, Note_on_c, 0, 66, 0
3, 114120, Note_on_c, 0, 68, 84
3, 114300, Note_on_c, 0, 68, 0
3, 114300, Note_on_c, 0, 69, 91
3, 114458, Note_on_c, 0, 69, 0
3, 114480, Note_on_c, 0, 71, 101
3, 114480, Control_c, 0, 64, 0
3, 114480, Control_c, 0, 64, 127
3, 114480, Note_on_c, 0, 64, 34
3, 114480, Note_on_c, 0, 68, 34
3, 114638, Note_on_c, 0, 71, 0
3, 114660, Note_on_c, 0, 68, 0
3, 114660, Note_on_c, 0, 64, 0
3, 114660, Note_on_c, 0, 71, 89
3, 114818, Note_on_c, 0, 71, 0
3, 114840, Note_on_c, 0, 68, 78
3, 114998, Note_on_c, 0, 68, 0
3, 115020, Note_on_c, 0, 66, 74
3, 115200, Note_on_c, 0, 66, 0
3, 115200, Note_on_c, 0, 68, 81
3, 115380, Note_on_c, 0, 68, 0
3, 115380, Note_on_c, 0, 69, 97
3, 115538, Note_on_c, 0, 69, 0
3, 115560, Note_on_c, 0, 71, 96
3, 115560, Control_c, 0, 64, 0
3, 115560, Control_c, 0, 64, 127
3, 115560, Note_on_c, 0, 64, 31
3, 115560, Note_on_c, 0, 68, 31
3, 115718, Note_on_c, 0, 71, 0
3, 115740, Note_on_c, 0, 68, 0
3, 115740, Note_on_c, 0, 64, 0
3, 115740, Note_on_c, 0, 71, 87
3, 115898, Note_on_c, 0, 71, 0
3, 115920, Note_on_c, 0, 68, 86
3, 116078, Note_on_c, 0, 68, 0
3, 116100, Note_on_c, 0, 66, 70
3, 116280, Note_on_c, 0, 66, 0
3, 116280, Note_on_c, 0, 68, 82
3, 116460, Note_on_c, 0, 68, 0
3, 116460, Note_on_c, 0, 69, 96
3, 116618, Note_on_c, 0, 69, 0
3, 116640, Note_on_c, 0, 71, 94
3, 116640, Control_c, 0, 64, 0
3, 116640, Control_c, 0, 64, 127
3, 116640, Note_on_c, 0, 64, 33
3, 116640, Note_on_c, 0, 68, 33
3, 116798, Note_on_c, 0, 71, 0
3, 116820, Note_on_c, 0, 68, 0
3, 116820, Note_on_c, 0, 64, 0
3, 116820, Note_on_c, 0, 71, 85
3, 116978, Note_on_c, 0, 71, 0
3, 117000, Note_on_c, 0, 68, 78
3, 117158, Note_on_c, 0, 68, 0
3, 117180, Note_on_c, 0, 66, 72
3, 117360, Note_on_c, 0, 66, 0
3, 117360, Note_on_c, 0, 68, 84
3, 117540, Note_on_c, 0, 68, 0
3, 117540, Note_on_c, 0, 69, 97
3, 117698, Note_on_c, 0, 69, 0
3, 117720, Note_on_c, 0, 71, 77
3, 117720, Control_c, 0, 64, 0
3, 117720, Control_c, 0, 64, 127
3, 117720, Note_on_c, 0, 64, 37
3, 117720, Note_on_c, 0, 68, 37
3, 117878, Note_on_c, 0, 71, 0
3, 117900, Note_on_c, 0, 68, 0
3, 117900, Note_on_c, 0, 64, 0
3, 117900, Note_on_c, 0, 68, 73
3, 118080, Note_on_c, 0, 68, 0
3, 118080, Note_on_c, 0, 71, 69
3, 118260, Note_on_c, 0, 71, 0
3, 118260, Note_on_c, 0, 73, 65
3, 118440, Note_on_c, 0, 73, 0
3, 118440, Note_on_c, 0, 71, 60
3, 118620, Note_on_c, 0, 71, 0
3, 118620, Note_on_c, 0, 73, 56
3, 118800, Note_on_c, 0, 73, 0
3, 118800, Note_on_c, 0, 76, 52
3, 118800, Control_c, 0, 64, 0
3, 118800, Control_c, 0, 64, 127
3, 118800, Note_on_c, 0, 64, 36
3, 118800, Note_on_c, 0, 68, 36
3, 118980, Note_on_c, 0, 68, 0
3, 118980, Note_on_c, 0, 64, 0
3, 118980, Note_on_c, 0, 76, 0
3, 119880, Control_c, 0, 64, 0
3, 119880, Control_c, 0, 64, 127
3, 120960, Control_c, 0, 64, 0
3, 120960, Control_c, 0, 64, 127
3, 122040, Control_c, 0, 64, 0
3, 122040, Control_c, 0, 64, 127
3, 123120, Control_c, 0, 64, 0
3, 123120, Control_c, 0, 64, 127
3, 123120, End_track
0, 0, End_of_file
