0, 0, Header, 1, 3, 360
1, 0, Start_track
1, 0, Title_t, "untitled"
1, 0, Time_signature, 6, 3, 12, 8
1, 0, Key_signature, -3, "major"
1, 0, Tempo, 750000
1, 5400, Time_signature, 6, 2, 24, 8
1, 14040, Time_signature, 3, 2, 24, 8
1, 18360, Time_signature, 2, 2, 24, 8
1, 18990, Tempo, 5000000
1, 19080, Time_signature, 12, 3, 12, 8
1, 19080, Tempo, 750000
1, 60120, Tempo, 750000
1, 60480, Tempo, 741840
1, 60840, Tempo, 733855
1, 61200, Tempo, 726041
1, 61560, Tempo, 718305
1, 61920, Tempo, 710816
1, 62280, Tempo, 703482
1, 62640, Tempo, 696298
1, 63000, Tempo, 689259
1, 63360, Tempo, 682361
1, 63720, Tempo, 675600
1, 64080, Tempo, 668971
1, 64440, Tempo, 662398
1, 64800, Tempo, 656024
1, 65160, Tempo, 649773
1, 65520, Tempo, 643639
1, 65880, Tempo, 637620
1, 66240, Tempo, 631712
1, 66600, Tempo, 625913
1, 66960, Tempo, 620155
1, 67320, Tempo, 614565
1, 67680, Tempo, 609075
1, 68040, Tempo, 603682
1, 68400, Tempo, 598384
1, 68760, Tempo, 593178
1, 69120, Tempo, 588062
1, 69480, Tempo, 582977
1, 69840, Tempo, 578035
1, 70200, Tempo, 573175
1, 70740, Tempo, 566038
1, 79560, Tempo, 566038
1, 79687, Tempo, 574603
1, 79813, Tempo, 583487
1, 79940, Tempo, 592593
1, 80066, Tempo, 601987
1, 80193, Tempo, 611746
1, 80319, Tempo, 621762
1, 80446, Tempo, 632111
1, 80573, Tempo, 642811
1, 80699, Tempo, 653951
1, 80826, Tempo, 665410
1, 80952, Tempo, 677277
1, 81079, Tempo, 689655
1, 81206, Tempo, 702412
1, 81332, Tempo, 715649
1, 81459, Tempo, 729483
1, 81585, Tempo, 743771
1, 81719, Tempo, 759494
1, 81720, Tempo, 750000
1, 124560, Tempo, 750000
1, 124583, Tempo, 763650
1, 124605, Tempo, 777807
1, 124628, Tempo, 792498
1, 124650, Tempo, 807646
1, 124673, Tempo, 823497
1, 124695, Tempo, 839983
1, 124718, Tempo, 857143
1, 124740, Tempo, 875018
1, 124763, Tempo, 893655
1, 124785, Tempo, 913103
1, 124808, Tempo, 933271
1, 124830, Tempo, 954502
1, 124853, Tempo, 976721
1, 124875, Tempo, 1000000
1, 124920, Tempo, 800000
1, 129240, Tempo, 800000
1, 129483, Tempo, 785238
1, 129727, Tempo, 771010
1, 129970, Tempo, 757289
1, 130213, Tempo, 744048
1, 130457, Tempo, 731261
1, 130700, Tempo, 718907
1, 130943, Tempo, 706964
1, 131430, Tempo, 684229
1, 131673, Tempo, 673401
1, 131916, Tempo, 662910
1, 132159, Tempo, 652742
1, 132403, Tempo, 642880
1, 132646, Tempo, 633312
1, 132889, Tempo, 624025
1, 133133, Tempo, 614943
1, 133380, Tempo, 606061
1, 133560, Tempo, 750000
1, 157230, Tempo, 5000000
1, 157320, Tempo, 750000
1, 157320, End_track
2, 0, Start_track
2, 0, Title_t, "Primo"
2, 0, Program_c, 0, 0
2, 0, Control_c, 0, 7, 105
2, 0, Control_c, 0, 10, 79
2, 0, Control_c, 0, 91, 60
2, 0, Control_c, 0, 121, 0
2, 0, Control_c, 0, 121, 0
2, 0, Control_c, 0, 91, 60
2, 0, Control_c, 0, 10, 51
2, 0, Control_c, 0, 7, 100
2, 180, Note_on_c, 0, 69, 35
2, 360, Note_on_c, 0, 69, 0
2, 360, Note_on_c, 0, 69, 42
2, 540, Note_on_c, 0, 69, 0
2, 540, Note_on_c, 0, 69, 48
2, 720, Note_on_c, 0, 69, 0
2, 720, Note_on_c, 0, 69, 54
2, 900, Note_on_c, 0, 69, 0
2, 900, Note_on_c, 0, 69, 61
2, 1080, Note_on_c, 0, 69, 0
2, 1080, Note_on_c, 0, 69, 48
2, 1260, Note_on_c, 0, 69, 0
2, 1260, Note_on_c, 0, 68, 45
2, 1260, Note_on_c, 0, 70, 45
2, 1260, Note_on_c, 0, 65, 54
2, 1440, Note_on_c, 0, 65, 0
2, 1440, Note_on_c, 0, 70, 0
2, 1440, Note_on_c, 0, 68, 0
2, 1440, Note_on_c, 0, 68, 52
2, 1440, Note_on_c, 0, 70, 52
2, 1440, Note_on_c, 0, 65, 61
2, 1620, Note_on_c, 0, 65, 0
2, 1620, Note_on_c, 0, 70, 0
2, 1620, Note_on_c, 0, 68, 0
2, 1620, Note_on_c, 0, 68, 58
2, 1620, Note_on_c, 0, 70, 58
2, 1620, Note_on_c, 0, 65, 59
2, 1800, Note_on_c, 0, 65, 0
2, 1800, Note_on_c, 0, 70, 0
2, 1800, Note_on_c, 0, 68, 0
2, 1800, Note_on_c, 0, 68, 64
2, 1800, Note_on_c, 0, 70, 64
2, 1800, Note_on_c, 0, 65, 63
2, 1980, Note_on_c, 0, 65, 0
2, 1980, Note_on_c, 0, 70, 0
2, 1980, Note_on_c, 0, 68, 0
2, 1980, Note_on_c, 0, 68, 71
2, 1980, Note_on_c, 0, 70, 71
2, 1980, Note_on_c, 0, 65, 59
2, 2160, Note_on_c, 0, 65, 0
2, 2160, Note_on_c, 0, 70, 0
2, 2160, Note_on_c, 0, 68, 0
2, 2160, Note_on_c, 0, 68, 69
2, 2160, Note_on_c, 0, 70, 69
2, 2160, Note_on_c, 0, 65, 59
2, 2340, Note_on_c, 0, 65, 0
2, 2340, Note_on_c, 0, 70, 0
2, 2340, Note_on_c, 0, 68, 0
2, 2340, Note_on_c, 0, 68, 68
2, 2340, Note_on_c, 0, 71, 68
2, 2340, Note_on_c, 0, 65, 59
2, 2520, Note_on_c, 0, 65, 0
2, 2520, Note_on_c, 0, 71, 0
2, 2520, Note_on_c, 0, 68, 0
2, 2520, Note_on_c, 0, 68, 75
2, 2520, Note_on_c, 0, 71, 75
2, 2520, Note_on_c, 0, 65, 59
2, 2700, Note_on_c, 0, 65, 0
2, 2700, Note_on_c, 0, 71, 0
2, 2700, Note_on_c, 0, 68, 0
2, 2700, Note_on_c, 0, 68, 81
2, 2700, Note_on_c, 0, 71, 81
2, 2700, Note_on_c, 0, 65, 60
2, 2880, Note_on_c, 0, 65, 0
2, 2880, Note_on_c, 0, 71, 0
2, 2880, Note_on_c, 0, 68, 0
2, 2880, Note_on_c, 0, 68, 87
2, 2880, Note_on_c, 0, 71, 87
2, 2880, Note_on_c, 0, 65, 59
2, 3060, Note_on_c, 0, 65, 0
2, 3060, Note_on_c, 0, 71, 0
2, 3060, Note_on_c, 0, 68, 0
2, 3060, Note_on_c, 0, 68, 94
2, 3060, Note_on_c, 0, 71, 94
2, 3060, Note_on_c, 0, 65, 57
2, 3240, Note_on_c, 0, 65, 0
2, 3240, Note_on_c, 0, 71, 0
2, 3240, Note_on_c, 0, 68, 0
2, 3240, Note_on_c, 0, 68, 94
2, 3240, Note_on_c, 0, 71, 94
2, 3240, Note_on_c, 0, 65, 61
2, 3780, Note_on_c, 0, 65, 0
2, 3780, Note_on_c, 0, 71, 0
2, 3780, Note_on_c, 0, 68, 0
2, 3780, Note_on_c, 0, 68, 99
2, 3780, Note_on_c, 0, 72, 99
2, 3780, Note_on_c, 0, 65, 57
2, 4320, Note_on_c, 0, 65, 0
2, 4320, Note_on_c, 0, 72, 0
2, 4320, Note_on_c, 0, 68, 0
2, 4320, Note_on_c, 0, 68, 102
2, 4320, Note_on_c, 0, 73, 102
2, 4320, Note_on_c, 0, 65, 57
2, 4860, Note_on_c, 0, 65, 0
2, 4860, Note_on_c, 0, 73, 0
2, 4860, Note_on_c, 0, 68, 0
2, 4860, Note_on_c, 0, 68, 100
2, 4860, Note_on_c, 0, 74, 100
2, 4860, Note_on_c, 0, 65, 59
2, 5400, Note_on_c, 0, 65, 0
2, 5400, Note_on_c, 0, 74, 0
2, 5400, Note_on_c, 0, 68, 0
2, 6120, Note_on_c, 0, 62, 50
2, 6240, Note_on_c, 0, 62, 0
2, 6240, Note_on_c, 0, 65, 67
2, 6359, Note_on_c, 0, 65, 0
2, 6359, Note_on_c, 0, 68, 70
2, 6480, Note_on_c, 0, 68, 0
2, 6480, Note_on_c, 0, 74, 73
2, 6600, Note_on_c, 0, 74, 0
2, 6600, Note_on_c, 0, 68, 49
2, 6719, Note_on_c, 0, 68, 0
2, 6719, Note_on_c, 0, 65, 53
2, 6840, Note_on_c, 0, 65, 0
2, 8280, Note_on_c, 0, 62, 52
2, 8370, Note_on_c, 0, 62, 0
2, 8370, Note_on_c, 0, 65, 66
2, 8460, Note_on_c, 0, 65, 0
2, 8460, Note_on_c, 0, 68, 70
2, 8550, Note_on_c, 0, 68, 0
2, 8550, Note_on_c, 0, 74, 75
2, 8640, Note_on_c, 0, 74, 0
2, 8640, Note_on_c, 0, 77, 70
2, 8730, Note_on_c, 0, 77, 0
2, 8730, Note_on_c, 0, 74, 56
2, 8820, Note_on_c, 0, 74, 0
2, 8820, Note_on_c, 0, 68, 44
2, 8910, Note_on_c, 0, 68, 0
2, 8910, Note_on_c, 0, 65, 51
2, 9000, Note_on_c, 0, 65, 0
2, 10440, Note_on_c, 0, 62, 51
2, 10485, Note_on_c, 0, 62, 0
2, 10485, Note_on_c, 0, 65, 68
2, 10530, Note_on_c, 0, 65, 0
2, 10530, Note_on_c, 0, 68, 64
2, 10575, Note_on_c, 0, 68, 0
2, 10575, Note_on_c, 0, 70, 69
2, 10620, Note_on_c, 0, 70, 0
2, 10620, Note_on_c, 0, 74, 68
2, 10665, Note_on_c, 0, 74, 0
2, 10665, Note_on_c, 0, 77, 67
2, 10710, Note_on_c, 0, 77, 0
2, 10710, Note_on_c, 0, 80, 70
2, 10755, Note_on_c, 0, 80, 0
2, 10755, Note_on_c, 0, 82, 66
2, 10800, Note_on_c, 0, 82, 0
2, 10800, Note_on_c, 0, 86, 65
2, 10845, Note_on_c, 0, 86, 0
2, 10845, Note_on_c, 0, 82, 56
2, 10890, Note_on_c, 0, 82, 0
2, 10890, Note_on_c, 0, 80, 55
2, 10935, Note_on_c, 0, 80, 0
2, 10935, Note_on_c, 0, 77, 57
2, 10980, Note_on_c, 0, 77, 0
2, 10980, Note_on_c, 0, 74, 52
2, 11025, Note_on_c, 0, 74, 0
2, 11025, Note_on_c, 0, 70, 52
2, 11070, Note_on_c, 0, 70, 0
2, 11070, Note_on_c, 0, 68, 57
2, 11115, Note_on_c, 0, 68, 0
2, 11115, Note_on_c, 0, 65, 54
2, 11160, Note_on_c, 0, 65, 0
2, 12600, Note_on_c, 0, 65, 50
2, 12645, Note_on_c, 0, 65, 0
2, 12645, Note_on_c, 0, 68, 68
2, 12690, Note_on_c, 0, 68, 0
2, 12690, Note_on_c, 0, 70, 63
2, 12735, Note_on_c, 0, 70, 0
2, 12735, Note_on_c, 0, 74, 69
2, 12780, Note_on_c, 0, 74, 0
2, 12780, Note_on_c, 0, 77, 65
2, 12825, Note_on_c, 0, 77, 0
2, 12825, Note_on_c, 0, 80, 72
2, 12870, Note_on_c, 0, 80, 0
2, 12870, Note_on_c, 0, 82, 72
2, 12915, Note_on_c, 0, 82, 0
2, 12915, Note_on_c, 0, 86, 68
2, 12960, Note_on_c, 0, 86, 0
2, 12960, Note_on_c, 0, 89, 65
2, 13005, Note_on_c, 0, 89, 0
2, 13005, Note_on_c, 0, 86, 56
2, 13050, Note_on_c, 0, 86, 0
2, 13050, Note_on_c, 0, 82, 54
2, 13095, Note_on_c, 0, 82, 0
2, 13095, Note_on_c, 0, 80, 51
2, 13140, Note_on_c, 0, 80, 0
2, 13140, Note_on_c, 0, 77, 59
2, 13185, Note_on_c, 0, 77, 0
2, 13185, Note_on_c, 0, 74, 53
2, 13230, Note_on_c, 0, 74, 0
2, 13230, Note_on_c, 0, 70, 50
2, 13275, Note_on_c, 0, 70, 0
2, 13275, Note_on_c, 0, 68, 50
2, 13320, Note_on_c, 0, 68, 0
2, 14220, Note_on_c, 0, 94, 101
2, 14265, Note_on_c, 0, 94, 0
2, 14265, Note_on_c, 0, 92, 107
2, 14310, Note_on_c, 0, 92, 0
2, 14310, Note_on_c, 0, 89, 111
2, 14355, Note_on_c, 0, 89, 0
2, 14355, Note_on_c, 0, 86, 107
2, 14400, Note_on_c, 0, 86, 0
2, 14400, Note_on_c, 0, 92, 88
2, 14445, Note_on_c, 0, 92, 0
2, 14445, Note_on_c, 0, 89, 97
2, 14490, Note_on_c, 0, 89, 0
2, 14490, Note_on_c, 0, 86, 111
2, 14535, Note_on_c, 0, 86, 0
2, 14535, Note_on_c, 0, 82, 103
2, 14580, Note_on_c, 0, 82, 0
2, 14580, Note_on_c, 0, 89, 94
2, 14625, Note_on_c, 0, 89, 0
2, 14625, Note_on_c, 0, 86, 96
2, 14670, Note_on_c, 0, 86, 0
2, 14670, Note_on_c, 0, 82, 111
2, 14715, Note_on_c, 0, 82, 0
2, 14715, Note_on_c, 0, 80, 106
2, 14760, Note_on_c, 0, 80, 0
2, 14760, Note_on_c, 0, 86, 111
2, 14805, Note_on_c, 0, 86, 0
2, 14805, Note_on_c, 0, 82, 101
2, 14850, Note_on_c, 0, 82, 0
2, 14850, Note_on_c, 0, 80, 100
2, 14895, Note_on_c, 0, 80, 0
2, 14895, Note_on_c, 0, 77, 98
2, 14940, Note_on_c, 0, 77, 0
2, 14940, Note_on_c, 0, 82, 111
2, 14985, Note_on_c, 0, 82, 0
2, 14985, Note_on_c, 0, 80, 110
2, 15030, Note_on_c, 0, 80, 0
2, 15030, Note_on_c, 0, 77, 95
2, 15075, Note_on_c, 0, 77, 0
2, 15075, Note_on_c, 0, 74, 99
2, 15120, Note_on_c, 0, 74, 0
2, 15120, Note_on_c, 0, 80, 111
2, 15165, Note_on_c, 0, 80, 0
2, 15165, Note_on_c, 0, 77, 98
2, 15210, Note_on_c, 0, 77, 0
2, 15210, Note_on_c, 0, 74, 101
2, 15255, Note_on_c, 0, 74, 0
2, 15255, Note_on_c, 0, 70, 95
2, 15300, Note_on_c, 0, 70, 0
2, 15300, Note_on_c, 0, 77, 111
2, 15345, Note_on_c, 0, 77, 0
2, 15345, Note_on_c, 0, 74, 106
2, 15390, Note_on_c, 0, 74, 0
2, 15390, Note_on_c, 0, 70, 94
2, 15435, Note_on_c, 0, 70, 0
2, 15435, Note_on_c, 0, 68, 101
2, 15480, Note_on_c, 0, 68, 0
2, 15480, Note_on_c, 0, 74, 111
2, 15525, Note_on_c, 0, 74, 0
2, 15525, Note_on_c, 0, 70, 96
2, 15570, Note_on_c, 0, 70, 0
2, 15570, Note_on_c, 0, 68, 99
2, 15615, Note_on_c, 0, 68, 0
2, 15615, Note_on_c, 0, 65, 101
2, 15660, Note_on_c, 0, 65, 0
2, 15660, Note_on_c, 0, 70, 111
2, 15705, Note_on_c, 0, 70, 0
2, 15705, Note_on_c, 0, 68, 107
2, 15750, Note_on_c, 0, 68, 0
2, 15750, Note_on_c, 0, 65, 97
2, 15795, Note_on_c, 0, 65, 0
2, 15795, Note_on_c, 0, 62, 101
2, 15840, Note_on_c, 0, 62, 0
2, 15840, Note_on_c, 0, 68, 111
2, 15885, Note_on_c, 0, 68, 0
2, 15885, Note_on_c, 0, 65, 102
2, 15930, Note_on_c, 0, 65, 0
2, 15930, Note_on_c, 0, 62, 98
2, 15975, Note_on_c, 0, 62, 0
2, 15975, Note_on_c, 0, 58, 104
2, 16020, Note_on_c, 0, 58, 0
2, 16020, Note_on_c, 0, 65, 111
2, 16065, Note_on_c, 0, 65, 0
2, 16065, Note_on_c, 0, 62, 108
2, 16110, Note_on_c, 0, 62, 0
2, 16110, Note_on_c, 0, 58, 103
2, 16155, Note_on_c, 0, 58, 0
2, 16155, Note_on_c, 0, 56, 106
2, 16200, Note_on_c, 0, 56, 0
2, 16200, Note_on_c, 0, 62, 111
2, 16245, Note_on_c, 0, 62, 0
2, 16245, Note_on_c, 0, 58, 103
2, 16290, Note_on_c, 0, 58, 0
2, 16290, Note_on_c, 0, 56, 111
2, 16335, Note_on_c, 0, 56, 0
2, 16335, Note_on_c, 0, 53, 111
2, 16380, Note_on_c, 0, 53, 0
2, 16380, Note_on_c, 0, 62, 111
2, 16425, Note_on_c, 0, 62, 0
2, 16425, Note_on_c, 0, 58, 111
2, 16470, Note_on_c, 0, 58, 0
2, 16470, Note_on_c, 0, 56, 111
2, 16515, Note_on_c, 0, 56, 0
2, 16515, Note_on_c, 0, 53, 110
2, 16560, Note_on_c, 0, 53, 0
2, 16560, Note_on_c, 0, 62, 111
2, 16605, Note_on_c, 0, 62, 0
2, 16605, Note_on_c, 0, 58, 107
2, 16650, Note_on_c, 0, 58, 0
2, 16650, Note_on_c, 0, 56, 107
2, 16695, Note_on_c, 0, 56, 0
2, 16695, Note_on_c, 0, 53, 109
2, 16740, Note_on_c, 0, 53, 0
2, 16740, Note_on_c, 0, 62, 111
2, 16785, Note_on_c, 0, 62, 0
2, 16785, Note_on_c, 0, 58, 108
2, 16830, Note_on_c, 0, 58, 0
2, 16830, Note_on_c, 0, 56, 105
2, 16875, Note_on_c, 0, 56, 0
2, 16875, Note_on_c, 0, 53, 107
2, 16920, Note_on_c, 0, 53, 0
2, 16920, Note_on_c, 0, 62, 111
2, 16965, Note_on_c, 0, 62, 0
2, 16965, Note_on_c, 0, 58, 109
2, 17010, Note_on_c, 0, 58, 0
2, 17010, Note_on_c, 0, 56, 111
2, 17055, Note_on_c, 0, 56, 0
2, 17055, Note_on_c, 0, 53, 107
2, 17100, Note_on_c, 0, 53, 0
2, 17100, Note_on_c, 0, 62, 111
2, 17145, Note_on_c, 0, 62, 0
2, 17145, Note_on_c, 0, 58, 111
2, 17190, Note_on_c, 0, 58, 0
2, 17190, Note_on_c, 0, 56, 106
2, 17235, Note_on_c, 0, 56, 0
2, 17235, Note_on_c, 0, 53, 106
2, 17280, Note_on_c, 0, 53, 0
2, 17460, Note_on_c, 0, 77, 95
2, 17460, Note_on_c, 0, 74, 49
2, 17498, Note_on_c, 0, 80, 95
2, 17536, Note_on_c, 0, 86, 95
2, 17640, Note_on_c, 0, 86, 0
2, 17640, Note_on_c, 0, 77, 0
2, 17640, Note_on_c, 0, 74, 0
2, 17640, Note_on_c, 0, 80, 0
2, 17640, Note_on_c, 0, 80, 111
2, 17640, Note_on_c, 0, 77, 66
2, 17678, Note_on_c, 0, 86, 111
2, 17716, Note_on_c, 0, 89, 111
2, 17820, Note_on_c, 0, 89, 0
2, 17820, Note_on_c, 0, 80, 0
2, 17820, Note_on_c, 0, 77, 0
2, 17820, Note_on_c, 0, 86, 0
2, 17820, Note_on_c, 0, 77, 102
2, 17820, Note_on_c, 0, 74, 54
2, 17858, Note_on_c, 0, 80, 102
2, 17896, Note_on_c, 0, 86, 102
2, 18000, Note_on_c, 0, 86, 0
2, 18000, Note_on_c, 0, 77, 0
2, 18000, Note_on_c, 0, 74, 0
2, 18000, Note_on_c, 0, 80, 0
2, 18000, Note_on_c, 0, 80, 111
2, 18000, Note_on_c, 0, 77, 65
2, 18038, Note_on_c, 0, 86, 111
2, 18076, Note_on_c, 0, 89, 111
2, 18180, Note_on_c, 0, 89, 0
2, 18180, Note_on_c, 0, 80, 0
2, 18180, Note_on_c, 0, 77, 0
2, 18180, Note_on_c, 0, 86, 0
2, 18180, Note_on_c, 0, 77, 96
2, 18180, Note_on_c, 0, 74, 53
2, 18218, Note_on_c, 0, 80, 96
2, 18256, Note_on_c, 0, 86, 96
2, 18360, Note_on_c, 0, 86, 0
2, 18360, Note_on_c, 0, 77, 0
2, 18360, Note_on_c, 0, 74, 0
2, 18360, Note_on_c, 0, 80, 0
2, 18360, Note_on_c, 0, 86, 102
2, 18360, Note_on_c, 0, 89, 102
2, 18360, Note_on_c, 0, 94, 102
2, 18360, Note_on_c, 0, 77, 71
2, 18398, Note_on_c, 0, 80, 71
2, 18436, Note_on_c, 0, 82, 71
2, 18540, Note_on_c, 0, 82, 0
2, 18540, Note_on_c, 0, 89, 0
2, 18540, Note_on_c, 0, 94, 0
2, 18540, Note_on_c, 0, 86, 0
2, 18540, Note_on_c, 0, 80, 0
2, 18540, Note_on_c, 0, 77, 0
2, 21240, Note_on_c, 0, 87, 73
2, 21240, Note_on_c, 0, 75, 74
2, 22140, Note_on_c, 0, 75, 0
2, 22140, Note_on_c, 0, 87, 0
2, 22140, Note_on_c, 0, 86, 79
2, 22140, Note_on_c, 0, 74, 83
2, 22320, Note_on_c, 0, 74, 0
2, 22320, Note_on_c, 0, 86, 0
2, 22320, Note_on_c, 0, 87, 86
2, 22320, Note_on_c, 0, 75, 83
2, 22500, Note_on_c, 0, 75, 0
2, 22500, Note_on_c, 0, 87, 0
2, 22500, Note_on_c, 0, 86, 76
2, 22500, Note_on_c, 0, 74, 79
2, 22680, Note_on_c, 0, 74, 0
2, 22680, Note_on_c, 0, 86, 0
2, 22680, Note_on_c, 0, 84, 77
2, 22680, Note_on_c, 0, 72, 74
2, 22860, Note_on_c, 0, 72, 0
2, 22860, Note_on_c, 0, 84, 0
2, 22860, Note_on_c, 0, 82, 78
2, 22860, Note_on_c, 0, 70, 78
2, 23040, Note_on_c, 0, 70, 0
2, 23040, Note_on_c, 0, 82, 0
2, 23040, Note_on_c, 0, 80, 75
2, 23040, Note_on_c, 0, 68, 76
2, 23220, Note_on_c, 0, 68, 0
2, 23220, Note_on_c, 0, 80, 0
2, 23220, Note_on_c, 0, 79, 75
2, 23220, Note_on_c, 0, 67, 79
2, 23400, Note_on_c, 0, 67, 0
2, 23400, Note_on_c, 0, 79, 0
2, 23400, Note_on_c, 0, 77, 74
2, 23400, Note_on_c, 0, 65, 77
2, 23940, Note_on_c, 0, 65, 0
2, 23940, Note_on_c, 0, 77, 0
2, 23940, Note_on_c, 0, 79, 86
2, 23940, Note_on_c, 0, 67, 89
2, 24300, Note_on_c, 0, 67, 0
2, 24300, Note_on_c, 0, 79, 0
2, 24300, Note_on_c, 0, 80, 89
2, 24300, Note_on_c, 0, 68, 86
2, 24480, Note_on_c, 0, 68, 0
2, 24480, Note_on_c, 0, 80, 0
2, 24480, Note_on_c, 0, 82, 87
2, 24480, Note_on_c, 0, 70, 89
2, 25020, Note_on_c, 0, 70, 0
2, 25020, Note_on_c, 0, 82, 0
2, 25020, Note_on_c, 0, 77, 68
2, 25020, Note_on_c, 0, 65, 76
2, 25200, Note_on_c, 0, 65, 0
2, 25200, Note_on_c, 0, 77, 0
2, 25470, Note_on_c, 0, 82, 77
2, 25470, Note_on_c, 0, 70, 75
2, 25560, Note_on_c, 0, 70, 0
2, 25560, Note_on_c, 0, 82, 0
2, 25560, Note_on_c, 0, 83, 86
2, 25560, Note_on_c, 0, 71, 83
2, 26100, Note_on_c, 0, 71, 0
2, 26100, Note_on_c, 0, 83, 0
2, 26100, Note_on_c, 0, 79, 72
2, 26100, Note_on_c, 0, 67, 76
2, 26280, Note_on_c, 0, 67, 0
2, 26280, Note_on_c, 0, 79, 0
2, 26550, Note_on_c, 0, 83, 82
2, 26550, Note_on_c, 0, 71, 71
2, 26640, Note_on_c, 0, 71, 0
2, 26640, Note_on_c, 0, 83, 0
2, 26640, Note_on_c, 0, 84, 83
2, 26640, Note_on_c, 0, 72, 88
2, 27180, Note_on_c, 0, 72, 0
2, 27180, Note_on_c, 0, 84, 0
2, 27180, Note_on_c, 0, 80, 89
2, 27180, Note_on_c, 0, 68, 73
2, 27360, Note_on_c, 0, 68, 0
2, 27360, Note_on_c, 0, 80, 0
2, 27630, Note_on_c, 0, 84, 94
2, 27630, Note_on_c, 0, 72, 73
2, 27720, Note_on_c, 0, 72, 0
2, 27720, Note_on_c, 0, 84, 0
2, 27720, Note_on_c, 0, 85, 95
2, 27720, Note_on_c, 0, 73, 88
2, 28080, Note_on_c, 0, 73, 0
2, 28080, Note_on_c, 0, 85, 0
2, 28080, Note_on_c, 0, 85, 100
2, 28080, Note_on_c, 0, 73, 81
2, 28222, Note_on_c, 0, 85, 101
2, 28222, Note_on_c, 0, 73, 81
2, 28242, Note_on_c, 0, 73, 0
2, 28242, Note_on_c, 0, 85, 0
2, 28242, Note_on_c, 0, 86, 101
2, 28242, Note_on_c, 0, 74, 84
2, 28260, Note_on_c, 0, 74, 0
2, 28260, Note_on_c, 0, 73, 0
2, 28260, Note_on_c, 0, 85, 0
2, 28260, Note_on_c, 0, 86, 0
2, 28260, Note_on_c, 0, 85, 102
2, 28260, Note_on_c, 0, 73, 79
2, 28440, Note_on_c, 0, 73, 0
2, 28440, Note_on_c, 0, 85, 0
2, 28440, Note_on_c, 0, 84, 104
2, 28440, Note_on_c, 0, 72, 85
2, 28620, Note_on_c, 0, 72, 0
2, 28620, Note_on_c, 0, 84, 0
2, 28620, Note_on_c, 0, 85, 106
2, 28620, Note_on_c, 0, 73, 87
2, 28800, Note_on_c, 0, 73, 0
2, 28800, Note_on_c, 0, 85, 0
2, 28800, Note_on_c, 0, 86, 108
2, 28800, Note_on_c, 0, 74, 85
2, 28980, Note_on_c, 0, 74, 0
2, 28980, Note_on_c, 0, 86, 0
2, 28980, Note_on_c, 0, 80, 111
2, 28980, Note_on_c, 0, 86, 111
2, 28980, Note_on_c, 0, 91, 111
2, 28980, Note_on_c, 0, 79, 96
2, 29160, Note_on_c, 0, 79, 0
2, 29160, Note_on_c, 0, 80, 0
2, 29160, Note_on_c, 0, 86, 0
2, 29160, Note_on_c, 0, 91, 0
2, 29160, Note_on_c, 0, 89, 106
2, 29160, Note_on_c, 0, 77, 76
2, 29340, Note_on_c, 0, 77, 0
2, 29340, Note_on_c, 0, 89, 0
2, 29340, Note_on_c, 0, 80, 82
2, 29520, Note_on_c, 0, 80, 0
2, 29520, Note_on_c, 0, 77, 111
2, 29520, Note_on_c, 0, 80, 111
2, 29520, Note_on_c, 0, 87, 111
2, 29520, Note_on_c, 0, 75, 72
2, 29700, Note_on_c, 0, 75, 0
2, 29700, Note_on_c, 0, 77, 0
2, 29700, Note_on_c, 0, 80, 0
2, 29700, Note_on_c, 0, 87, 0
2, 29700, Note_on_c, 0, 86, 107
2, 29700, Note_on_c, 0, 74, 76
2, 29880, Note_on_c, 0, 74, 0
2, 29880, Note_on_c, 0, 86, 0
2, 29880, Note_on_c, 0, 77, 81
2, 30060, Note_on_c, 0, 77, 0
2, 30060, Note_on_c, 0, 74, 111
2, 30060, Note_on_c, 0, 77, 111
2, 30060, Note_on_c, 0, 84, 111
2, 30060, Note_on_c, 0, 72, 73
2, 30240, Note_on_c, 0, 72, 0
2, 30240, Note_on_c, 0, 74, 0
2, 30240, Note_on_c, 0, 77, 0
2, 30240, Note_on_c, 0, 84, 0
2, 30240, Note_on_c, 0, 82, 104
2, 30240, Note_on_c, 0, 70, 78
2, 30420, Note_on_c, 0, 70, 0
2, 30420, Note_on_c, 0, 82, 0
2, 30420, Note_on_c, 0, 74, 85
2, 30600, Note_on_c, 0, 74, 0
2, 30600, Note_on_c, 0, 68, 111
2, 30600, Note_on_c, 0, 74, 111
2, 30600, Note_on_c, 0, 79, 111
2, 30600, Note_on_c, 0, 67, 70
2, 30780, Note_on_c, 0, 67, 0
2, 30780, Note_on_c, 0, 68, 0
2, 30780, Note_on_c, 0, 74, 0
2, 30780, Note_on_c, 0, 79, 0
2, 30780, Note_on_c, 0, 77, 103
2, 30780, Note_on_c, 0, 65, 73
2, 30960, Note_on_c, 0, 65, 0
2, 30960, Note_on_c, 0, 77, 0
2, 30960, Note_on_c, 0, 68, 80
2, 31140, Note_on_c, 0, 68, 0
2, 31140, Note_on_c, 0, 65, 111
2, 31140, Note_on_c, 0, 68, 111
2, 31140, Note_on_c, 0, 75, 111
2, 31140, Note_on_c, 0, 63, 69
2, 31320, Note_on_c, 0, 63, 0
2, 31320, Note_on_c, 0, 65, 0
2, 31320, Note_on_c, 0, 68, 0
2, 31320, Note_on_c, 0, 75, 0
2, 31320, Note_on_c, 0, 74, 102
2, 31320, Note_on_c, 0, 62, 80
2, 31500, Note_on_c, 0, 62, 0
2, 31500, Note_on_c, 0, 74, 0
2, 31500, Note_on_c, 0, 65, 88
2, 31680, Note_on_c, 0, 65, 0
2, 31680, Note_on_c, 0, 71, 95
2, 31860, Note_on_c, 0, 71, 0
2, 31860, Note_on_c, 0, 70, 95
2, 31860, Note_on_c, 0, 62, 70
2, 31860, Note_on_c, 0, 65, 70
2, 32040, Note_on_c, 0, 65, 0
2, 32040, Note_on_c, 0, 62, 0
2, 32040, Note_on_c, 0, 70, 0
2, 32040, Note_on_c, 0, 63, 76
2, 32220, Note_on_c, 0, 63, 0
2, 34200, Note_on_c, 0, 87, 81
2, 34200, Note_on_c, 0, 75, 74
2, 35100, Note_on_c, 0, 75, 0
2, 35100, Note_on_c, 0, 87, 0
2, 35100, Note_on_c, 0, 86, 91
2, 35100, Note_on_c, 0, 74, 76
2, 35280, Note_on_c, 0, 74, 0
2, 35280, Note_on_c, 0, 86, 0
2, 35280, Note_on_c, 0, 87, 103
2, 35280, Note_on_c, 0, 75, 87
2, 35460, Note_on_c, 0, 75, 0
2, 35460, Note_on_c, 0, 87, 0
2, 35460, Note_on_c, 0, 86, 100
2, 35460, Note_on_c, 0, 74, 76
2, 35640, Note_on_c, 0, 74, 0
2, 35640, Note_on_c, 0, 86, 0
2, 35640, Note_on_c, 0, 84, 89
2, 35640, Note_on_c, 0, 72, 69
2, 35820, Note_on_c, 0, 72, 0
2, 35820, Note_on_c, 0, 84, 0
2, 35820, Note_on_c, 0, 82, 89
2, 35820, Note_on_c, 0, 70, 76
2, 36000, Note_on_c, 0, 70, 0
2, 36000, Note_on_c, 0, 82, 0
2, 36000, Note_on_c, 0, 80, 94
2, 36000, Note_on_c, 0, 68, 78
2, 36180, Note_on_c, 0, 68, 0
2, 36180, Note_on_c, 0, 80, 0
2, 36180, Note_on_c, 0, 79, 90
2, 36180, Note_on_c, 0, 67, 79
2, 36360, Note_on_c, 0, 67, 0
2, 36360, Note_on_c, 0, 79, 0
2, 36360, Note_on_c, 0, 77, 87
2, 36360, Note_on_c, 0, 65, 77
2, 36900, Note_on_c, 0, 65, 0
2, 36900, Note_on_c, 0, 77, 0
2, 36900, Note_on_c, 0, 79, 105
2, 36900, Note_on_c, 0, 67, 91
2, 37260, Note_on_c, 0, 67, 0
2, 37260, Note_on_c, 0, 79, 0
2, 37260, Note_on_c, 0, 80, 102
2, 37260, Note_on_c, 0, 68, 90
2, 37440, Note_on_c, 0, 68, 0
2, 37440, Note_on_c, 0, 80, 0
2, 37440, Note_on_c, 0, 84, 112
2, 37440, Note_on_c, 0, 72, 112
2, 37980, Note_on_c, 0, 72, 0
2, 37980, Note_on_c, 0, 84, 0
2, 37980, Note_on_c, 0, 83, 93
2, 37980, Note_on_c, 0, 71, 83
2, 38160, Note_on_c, 0, 71, 0
2, 38160, Note_on_c, 0, 83, 0
2, 38430, Note_on_c, 0, 83, 90
2, 38430, Note_on_c, 0, 71, 71
2, 38520, Note_on_c, 0, 71, 0
2, 38520, Note_on_c, 0, 83, 0
2, 38520, Note_on_c, 0, 86, 112
2, 38520, Note_on_c, 0, 74, 112
2, 39060, Note_on_c, 0, 74, 0
2, 39060, Note_on_c, 0, 86, 0
2, 39060, Note_on_c, 0, 84, 88
2, 39060, Note_on_c, 0, 72, 80
2, 39240, Note_on_c, 0, 72, 0
2, 39240, Note_on_c, 0, 84, 0
2, 39510, Note_on_c, 0, 84, 86
2, 39510, Note_on_c, 0, 72, 76
2, 39600, Note_on_c, 0, 72, 0
2, 39600, Note_on_c, 0, 84, 0
2, 39600, Note_on_c, 0, 87, 112
2, 39600, Note_on_c, 0, 75, 112
2, 40140, Note_on_c, 0, 75, 0
2, 40140, Note_on_c, 0, 87, 0
2, 40140, Note_on_c, 0, 86, 92
2, 40140, Note_on_c, 0, 74, 79
2, 40320, Note_on_c, 0, 74, 0
2, 40320, Note_on_c, 0, 86, 0
2, 40590, Note_on_c, 0, 86, 82
2, 40590, Note_on_c, 0, 74, 69
2, 40680, Note_on_c, 0, 74, 0
2, 40680, Note_on_c, 0, 86, 0
2, 40680, Note_on_c, 0, 89, 112
2, 40680, Note_on_c, 0, 77, 112
2, 41040, Note_on_c, 0, 77, 0
2, 41040, Note_on_c, 0, 89, 0
2, 41040, Note_on_c, 0, 87, 93
2, 41040, Note_on_c, 0, 75, 77
2, 41220, Note_on_c, 0, 75, 0
2, 41220, Note_on_c, 0, 87, 0
2, 41220, Note_on_c, 0, 87, 96
2, 41220, Note_on_c, 0, 75, 79
2, 41400, Note_on_c, 0, 75, 0
2, 41400, Note_on_c, 0, 87, 0
2, 41400, Note_on_c, 0, 86, 91
2, 41400, Note_on_c, 0, 74, 77
2, 41580, Note_on_c, 0, 74, 0
2, 41580, Note_on_c, 0, 86, 0
2, 41580, Note_on_c, 0, 84, 89
2, 41580, Note_on_c, 0, 72, 81
2, 41760, Note_on_c, 0, 72, 0
2, 41760, Note_on_c, 0, 84, 0
2, 41760, Note_on_c, 0, 79, 83
2, 41760, Note_on_c, 0, 67, 68
2, 41940, Note_on_c, 0, 67, 0
2, 41940, Note_on_c, 0, 79, 0
2, 41940, Note_on_c, 0, 67, 80
2, 42120, Note_on_c, 0, 67, 0
2, 42120, Note_on_c, 0, 67, 83
2, 42146, Note_on_c, 0, 67, 0
2, 42146, Note_on_c, 0, 69, 92
2, 42171, Note_on_c, 0, 69, 0
2, 42171, Note_on_c, 0, 71, 91
2, 42196, Note_on_c, 0, 71, 0
2, 42196, Note_on_c, 0, 72, 88
2, 42223, Note_on_c, 0, 72, 0
2, 42223, Note_on_c, 0, 74, 93
2, 42248, Note_on_c, 0, 74, 0
2, 42248, Note_on_c, 0, 75, 87
2, 42273, Note_on_c, 0, 75, 0
2, 42273, Note_on_c, 0, 77, 90
2, 42300, Note_on_c, 0, 77, 0
2, 42300, Note_on_c, 0, 79, 86
2, 42300, Note_on_c, 0, 67, 61
2, 42480, Note_on_c, 0, 67, 0
2, 42480, Note_on_c, 0, 79, 0
2, 42480, Note_on_c, 0, 67, 77
2, 42660, Note_on_c, 0, 67, 0
2, 42660, Note_on_c, 0, 67, 83
2, 42840, Note_on_c, 0, 67, 0
2, 42840, Note_on_c, 0, 67, 83
2, 43020, Note_on_c, 0, 67, 0
2, 43020, Note_on_c, 0, 67, 83
2, 43110, Note_on_c, 0, 67, 87
2, 43200, Note_on_c, 0, 67, 0
2, 43200, Note_on_c, 0, 67, 0
2, 43200, Note_on_c, 0, 69, 101
2, 43200, Note_on_c, 0, 67, 82
2, 43290, Note_on_c, 0, 69, 0
2, 43290, Note_on_c, 0, 70, 101
2, 43380, Note_on_c, 0, 70, 0
2, 43380, Note_on_c, 0, 67, 0
2, 43380, Note_on_c, 0, 71, 101
2, 43380, Note_on_c, 0, 55, 85
2, 43380, Note_on_c, 0, 67, 85
2, 43560, Note_on_c, 0, 67, 0
2, 43560, Note_on_c, 0, 55, 0
2, 43560, Note_on_c, 0, 55, 78
2, 43560, Note_on_c, 0, 67, 78
2, 43740, Note_on_c, 0, 67, 0
2, 43740, Note_on_c, 0, 55, 0
2, 43740, Note_on_c, 0, 55, 84
2, 43740, Note_on_c, 0, 67, 84
2, 43920, Note_on_c, 0, 67, 0
2, 43920, Note_on_c, 0, 55, 0
2, 43920, Note_on_c, 0, 71, 0
2, 43920, Note_on_c, 0, 72, 102
2, 43920, Note_on_c, 0, 55, 84
2, 43920, Note_on_c, 0, 67, 84
2, 44100, Note_on_c, 0, 67, 0
2, 44100, Note_on_c, 0, 55, 0
2, 44100, Note_on_c, 0, 55, 81
2, 44100, Note_on_c, 0, 67, 81
2, 44190, Note_on_c, 0, 72, 0
2, 44190, Note_on_c, 0, 71, 86
2, 44280, Note_on_c, 0, 71, 0
2, 44280, Note_on_c, 0, 67, 0
2, 44280, Note_on_c, 0, 55, 0
2, 44280, Note_on_c, 0, 74, 111
2, 44280, Note_on_c, 0, 55, 82
2, 44280, Note_on_c, 0, 67, 82
2, 44370, Note_on_c, 0, 74, 0
2, 44370, Note_on_c, 0, 72, 96
2, 44460, Note_on_c, 0, 72, 0
2, 44460, Note_on_c, 0, 67, 0
2, 44460, Note_on_c, 0, 55, 0
2, 44460, Note_on_c, 0, 75, 104
2, 44460, Note_on_c, 0, 55, 87
2, 44460, Note_on_c, 0, 67, 87
2, 44640, Note_on_c, 0, 67, 0
2, 44640, Note_on_c, 0, 55, 0
2, 44640, Note_on_c, 0, 55, 81
2, 44640, Note_on_c, 0, 67, 81
2, 44820, Note_on_c, 0, 67, 0
2, 44820, Note_on_c, 0, 55, 0
2, 44820, Note_on_c, 0, 75, 0
2, 44820, Note_on_c, 0, 72, 88
2, 44820, Note_on_c, 0, 55, 84
2, 44820, Note_on_c, 0, 67, 84
2, 45000, Note_on_c, 0, 67, 0
2, 45000, Note_on_c, 0, 55, 0
2, 45000, Note_on_c, 0, 72, 0
2, 45000, Note_on_c, 0, 67, 86
2, 45180, Note_on_c, 0, 67, 0
2, 45180, Note_on_c, 0, 67, 84
2, 45360, Note_on_c, 0, 67, 0
2, 45360, Note_on_c, 0, 67, 81
2, 45386, Note_on_c, 0, 67, 0
2, 45386, Note_on_c, 0, 69, 86
2, 45411, Note_on_c, 0, 69, 0
2, 45411, Note_on_c, 0, 71, 90
2, 45436, Note_on_c, 0, 71, 0
2, 45436, Note_on_c, 0, 72, 88
2, 45463, Note_on_c, 0, 72, 0
2, 45463, Note_on_c, 0, 74, 84
2, 45488, Note_on_c, 0, 74, 0
2, 45488, Note_on_c, 0, 75, 88
2, 45513, Note_on_c, 0, 75, 0
2, 45513, Note_on_c, 0, 77, 92
2, 45540, Note_on_c, 0, 77, 0
2, 45540, Note_on_c, 0, 79, 111
2, 45540, Note_on_c, 0, 67, 57
2, 45720, Note_on_c, 0, 67, 0
2, 45720, Note_on_c, 0, 79, 0
2, 45720, Note_on_c, 0, 67, 81
2, 45900, Note_on_c, 0, 67, 0
2, 45900, Note_on_c, 0, 67, 82
2, 46080, Note_on_c, 0, 67, 0
2, 46080, Note_on_c, 0, 67, 84
2, 46260, Note_on_c, 0, 67, 0
2, 46260, Note_on_c, 0, 67, 81
2, 46440, Note_on_c, 0, 67, 0
2, 46440, Note_on_c, 0, 79, 86
2, 46440, Note_on_c, 0, 67, 79
2, 46466, Note_on_c, 0, 79, 0
2, 46466, Note_on_c, 0, 81, 111
2, 46491, Note_on_c, 0, 81, 0
2, 46491, Note_on_c, 0, 83, 106
2, 46516, Note_on_c, 0, 83, 0
2, 46516, Note_on_c, 0, 84, 101
2, 46543, Note_on_c, 0, 84, 0
2, 46543, Note_on_c, 0, 86, 105
2, 46568, Note_on_c, 0, 86, 0
2, 46568, Note_on_c, 0, 87, 102
2, 46593, Note_on_c, 0, 87, 0
2, 46593, Note_on_c, 0, 89, 101
2, 46620, Note_on_c, 0, 89, 0
2, 46620, Note_on_c, 0, 67, 0
2, 46620, Note_on_c, 0, 91, 107
2, 46620, Note_on_c, 0, 67, 83
2, 46800, Note_on_c, 0, 67, 0
2, 46800, Note_on_c, 0, 91, 0
2, 46800, Note_on_c, 0, 67, 79
2, 46980, Note_on_c, 0, 67, 0
2, 46980, Note_on_c, 0, 67, 79
2, 47160, Note_on_c, 0, 67, 0
2, 47160, Note_on_c, 0, 91, 97
2, 47160, Note_on_c, 0, 79, 60
2, 47160, Note_on_c, 0, 67, 55
2, 47340, Note_on_c, 0, 67, 0
2, 47340, Note_on_c, 0, 79, 0
2, 47340, Note_on_c, 0, 79, 66
2, 47340, Note_on_c, 0, 67, 57
2, 47520, Note_on_c, 0, 67, 0
2, 47520, Note_on_c, 0, 79, 0
2, 47520, Note_on_c, 0, 79, 64
2, 47520, Note_on_c, 0, 67, 61
2, 47700, Note_on_c, 0, 67, 0
2, 47700, Note_on_c, 0, 79, 0
2, 47700, Note_on_c, 0, 91, 0
2, 47700, Note_on_c, 0, 86, 98
2, 47700, Note_on_c, 0, 79, 68
2, 47700, Note_on_c, 0, 74, 103
2, 47700, Note_on_c, 0, 67, 63
2, 47880, Note_on_c, 0, 67, 0
2, 47880, Note_on_c, 0, 79, 0
2, 47880, Note_on_c, 0, 79, 70
2, 47880, Note_on_c, 0, 67, 60
2, 48060, Note_on_c, 0, 67, 0
2, 48060, Note_on_c, 0, 86, 0
2, 48060, Note_on_c, 0, 74, 0
2, 48060, Note_on_c, 0, 79, 0
2, 48060, Note_on_c, 0, 89, 111
2, 48060, Note_on_c, 0, 79, 61
2, 48060, Note_on_c, 0, 77, 97
2, 48060, Note_on_c, 0, 67, 57
2, 48240, Note_on_c, 0, 67, 0
2, 48240, Note_on_c, 0, 89, 0
2, 48240, Note_on_c, 0, 79, 0
2, 48240, Note_on_c, 0, 77, 0
2, 48240, Note_on_c, 0, 87, 106
2, 48240, Note_on_c, 0, 79, 66
2, 48240, Note_on_c, 0, 75, 81
2, 48240, Note_on_c, 0, 67, 59
2, 48420, Note_on_c, 0, 67, 0
2, 48420, Note_on_c, 0, 79, 0
2, 48420, Note_on_c, 0, 79, 65
2, 48420, Note_on_c, 0, 67, 63
2, 48600, Note_on_c, 0, 67, 0
2, 48600, Note_on_c, 0, 79, 0
2, 48600, Note_on_c, 0, 79, 68
2, 48600, Note_on_c, 0, 67, 61
2, 48780, Note_on_c, 0, 67, 0
2, 48780, Note_on_c, 0, 87, 0
2, 48780, Note_on_c, 0, 75, 0
2, 48780, Note_on_c, 0, 79, 0
2, 48780, Note_on_c, 0, 83, 98
2, 48780, Note_on_c, 0, 79, 67
2, 48780, Note_on_c, 0, 71, 69
2, 48780, Note_on_c, 0, 67, 59
2, 48960, Note_on_c, 0, 67, 0
2, 48960, Note_on_c, 0, 79, 0
2, 48960, Note_on_c, 0, 79, 66
2, 48960, Note_on_c, 0, 67, 61
2, 49050, Note_on_c, 0, 71, 0
2, 49050, Note_on_c, 0, 83, 0
2, 49050, Note_on_c, 0, 84, 111
2, 49050, Note_on_c, 0, 72, 88
2, 49140, Note_on_c, 0, 72, 0
2, 49140, Note_on_c, 0, 67, 0
2, 49140, Note_on_c, 0, 79, 0
2, 49140, Note_on_c, 0, 84, 0
2, 49140, Note_on_c, 0, 87, 111
2, 49140, Note_on_c, 0, 78, 62
2, 49140, Note_on_c, 0, 75, 91
2, 49140, Note_on_c, 0, 66, 57
2, 49230, Note_on_c, 0, 75, 0
2, 49230, Note_on_c, 0, 87, 0
2, 49230, Note_on_c, 0, 86, 107
2, 49230, Note_on_c, 0, 74, 74
2, 49320, Note_on_c, 0, 74, 0
2, 49320, Note_on_c, 0, 66, 0
2, 49320, Note_on_c, 0, 78, 0
2, 49320, Note_on_c, 0, 86, 0
2, 49320, Note_on_c, 0, 67, 68
2, 49500, Note_on_c, 0, 67, 0
2, 49500, Note_on_c, 0, 67, 76
2, 49680, Note_on_c, 0, 67, 0
2, 49680, Note_on_c, 0, 67, 81
2, 49706, Note_on_c, 0, 67, 0
2, 49706, Note_on_c, 0, 69, 89
2, 49731, Note_on_c, 0, 69, 0
2, 49731, Note_on_c, 0, 71, 91
2, 49756, Note_on_c, 0, 71, 0
2, 49756, Note_on_c, 0, 72, 88
2, 49783, Note_on_c, 0, 72, 0
2, 49783, Note_on_c, 0, 74, 89
2, 49808, Note_on_c, 0, 74, 0
2, 49808, Note_on_c, 0, 75, 85
2, 49833, Note_on_c, 0, 75, 0
2, 49833, Note_on_c, 0, 77, 91
2, 49860, Note_on_c, 0, 77, 0
2, 49860, Note_on_c, 0, 79, 92
2, 49860, Note_on_c, 0, 67, 59
2, 50040, Note_on_c, 0, 67, 0
2, 50040, Note_on_c, 0, 79, 0
2, 50040, Note_on_c, 0, 67, 81
2, 50220, Note_on_c, 0, 67, 0
2, 50220, Note_on_c, 0, 67, 80
2, 50400, Note_on_c, 0, 67, 0
2, 50400, Note_on_c, 0, 67, 79
2, 50580, Note_on_c, 0, 67, 0
2, 50580, Note_on_c, 0, 67, 80
2, 50760, Note_on_c, 0, 67, 0
2, 50760, Note_on_c, 0, 79, 73
2, 50760, Note_on_c, 0, 67, 80
2, 50786, Note_on_c, 0, 79, 0
2, 50786, Note_on_c, 0, 81, 89
2, 50811, Note_on_c, 0, 81, 0
2, 50811, Note_on_c, 0, 83, 86
2, 50836, Note_on_c, 0, 83, 0
2, 50836, Note_on_c, 0, 84, 91
2, 50863, Note_on_c, 0, 84, 0
2, 50863, Note_on_c, 0, 86, 90
2, 50888, Note_on_c, 0, 86, 0
2, 50888, Note_on_c, 0, 87, 87
2, 50913, Note_on_c, 0, 87, 0
2, 50913, Note_on_c, 0, 89, 91
2, 50940, Note_on_c, 0, 89, 0
2, 50940, Note_on_c, 0, 67, 0
2, 50940, Note_on_c, 0, 91, 92
2, 50940, Note_on_c, 0, 67, 85
2, 51120, Note_on_c, 0, 67, 0
2, 51120, Note_on_c, 0, 91, 0
2, 51120, Note_on_c, 0, 67, 80
2, 51300, Note_on_c, 0, 67, 0
2, 51300, Note_on_c, 0, 67, 83
2, 51480, Note_on_c, 0, 67, 0
2, 51480, Note_on_c, 0, 67, 75
2, 51514, Note_on_c, 0, 62, 68
2, 51540, Note_on_c, 0, 62, 0
2, 51548, Note_on_c, 0, 63, 67
2, 51574, Note_on_c, 0, 63, 0
2, 51581, Note_on_c, 0, 62, 64
2, 51608, Note_on_c, 0, 62, 0
2, 51614, Note_on_c, 0, 63, 62
2, 51639, Note_on_c, 0, 63, 0
2, 51646, Note_on_c, 0, 62, 68
2, 51660, Note_on_c, 0, 67, 0
2, 51660, Note_on_c, 0, 67, 81
2, 51671, Note_on_c, 0, 62, 0
2, 51678, Note_on_c, 0, 63, 64
2, 51704, Note_on_c, 0, 63, 0
2, 51709, Note_on_c, 0, 62, 65
2, 51733, Note_on_c, 0, 62, 0
2, 51740, Note_on_c, 0, 63, 66
2, 51764, Note_on_c, 0, 63, 0
2, 51771, Note_on_c, 0, 62, 68
2, 51795, Note_on_c, 0, 62, 0
2, 51802, Note_on_c, 0, 63, 67
2, 51826, Note_on_c, 0, 63, 0
2, 51832, Note_on_c, 0, 62, 66
2, 51840, Note_on_c, 0, 67, 0
2, 51840, Note_on_c, 0, 67, 85
2, 51854, Note_on_c, 0, 62, 0
2, 51861, Note_on_c, 0, 63, 63
2, 51884, Note_on_c, 0, 63, 0
2, 51891, Note_on_c, 0, 62, 77
2, 51913, Note_on_c, 0, 62, 0
2, 51919, Note_on_c, 0, 63, 65
2, 51941, Note_on_c, 0, 63, 0
2, 51947, Note_on_c, 0, 62, 71
2, 51969, Note_on_c, 0, 62, 0
2, 51975, Note_on_c, 0, 63, 69
2, 51998, Note_on_c, 0, 63, 0
2, 52003, Note_on_c, 0, 62, 74
2, 52020, Note_on_c, 0, 67, 0
2, 52020, Note_on_c, 0, 67, 86
2, 52026, Note_on_c, 0, 62, 0
2, 52030, Note_on_c, 0, 63, 67
2, 52051, Note_on_c, 0, 63, 0
2, 52057, Note_on_c, 0, 62, 65
2, 52078, Note_on_c, 0, 62, 0
2, 52083, Note_on_c, 0, 63, 60
2, 52104, Note_on_c, 0, 63, 0
2, 52110, Note_on_c, 0, 62, 69
2, 52131, Note_on_c, 0, 62, 0
2, 52138, Note_on_c, 0, 63, 66
2, 52161, Note_on_c, 0, 63, 0
2, 52166, Note_on_c, 0, 62, 67
2, 52189, Note_on_c, 0, 62, 0
2, 52194, Note_on_c, 0, 63, 68
2, 52200, Note_on_c, 0, 67, 0
2, 52200, Note_on_c, 0, 67, 86
2, 52217, Note_on_c, 0, 63, 0
2, 52223, Note_on_c, 0, 62, 70
2, 52245, Note_on_c, 0, 62, 0
2, 52252, Note_on_c, 0, 63, 71
2, 52275, Note_on_c, 0, 63, 0
2, 52282, Note_on_c, 0, 62, 70
2, 52304, Note_on_c, 0, 62, 0
2, 52311, Note_on_c, 0, 63, 62
2, 52334, Note_on_c, 0, 63, 0
2, 52341, Note_on_c, 0, 62, 69
2, 52363, Note_on_c, 0, 62, 0
2, 52372, Note_on_c, 0, 63, 61
2, 52380, Note_on_c, 0, 67, 0
2, 52380, Note_on_c, 0, 67, 83
2, 52395, Note_on_c, 0, 63, 0
2, 52403, Note_on_c, 0, 62, 71
2, 52427, Note_on_c, 0, 62, 0
2, 52434, Note_on_c, 0, 63, 59
2, 52457, Note_on_c, 0, 63, 0
2, 52466, Note_on_c, 0, 62, 67
2, 52491, Note_on_c, 0, 62, 0
2, 52498, Note_on_c, 0, 63, 70
2, 52522, Note_on_c, 0, 61, 72
2, 52524, Note_on_c, 0, 63, 0
2, 52530, Note_on_c, 0, 62, 73
2, 52542, Note_on_c, 0, 61, 0
2, 52542, Note_on_c, 0, 62, 86
2, 52556, Note_on_c, 0, 62, 0
2, 52560, Note_on_c, 0, 62, 0
2, 52560, Note_on_c, 0, 67, 0
2, 52560, Note_on_c, 0, 67, 79
2, 52560, Note_on_c, 0, 63, 88
2, 52740, Note_on_c, 0, 67, 0
2, 52740, Note_on_c, 0, 67, 80
2, 52920, Note_on_c, 0, 67, 0
2, 52920, Note_on_c, 0, 67, 83
2, 53100, Note_on_c, 0, 67, 0
2, 53100, Note_on_c, 0, 63, 0
2, 53100, Note_on_c, 0, 67, 80
2, 53100, Note_on_c, 0, 62, 82
2, 53280, Note_on_c, 0, 67, 0
2, 53280, Note_on_c, 0, 67, 83
2, 53460, Note_on_c, 0, 67, 0
2, 53460, Note_on_c, 0, 67, 83
2, 53640, Note_on_c, 0, 67, 0
2, 53640, Note_on_c, 0, 62, 0
2, 53640, Note_on_c, 0, 67, 94
2, 53674, Note_on_c, 0, 69, 86
2, 53700, Note_on_c, 0, 69, 0
2, 53708, Note_on_c, 0, 70, 83
2, 53734, Note_on_c, 0, 70, 0
2, 53741, Note_on_c, 0, 69, 87
2, 53768, Note_on_c, 0, 69, 0
2, 53774, Note_on_c, 0, 70, 90
2, 53799, Note_on_c, 0, 70, 0
2, 53806, Note_on_c, 0, 69, 85
2, 53820, Note_on_c, 0, 67, 0
2, 53820, Note_on_c, 0, 67, 85
2, 53831, Note_on_c, 0, 69, 0
2, 53838, Note_on_c, 0, 70, 88
2, 53864, Note_on_c, 0, 70, 0
2, 53869, Note_on_c, 0, 69, 90
2, 53893, Note_on_c, 0, 69, 0
2, 53900, Note_on_c, 0, 70, 80
2, 53924, Note_on_c, 0, 70, 0
2, 53931, Note_on_c, 0, 69, 89
2, 53955, Note_on_c, 0, 69, 0
2, 53962, Note_on_c, 0, 70, 76
2, 53986, Note_on_c, 0, 70, 0
2, 53992, Note_on_c, 0, 69, 88
2, 54000, Note_on_c, 0, 67, 0
2, 54000, Note_on_c, 0, 67, 85
2, 54014, Note_on_c, 0, 69, 0
2, 54021, Note_on_c, 0, 70, 84
2, 54044, Note_on_c, 0, 70, 0
2, 54051, Note_on_c, 0, 69, 82
2, 54073, Note_on_c, 0, 69, 0
2, 54079, Note_on_c, 0, 70, 76
2, 54101, Note_on_c, 0, 70, 0
2, 54107, Note_on_c, 0, 69, 93
2, 54129, Note_on_c, 0, 69, 0
2, 54135, Note_on_c, 0, 70, 81
2, 54158, Note_on_c, 0, 70, 0
2, 54163, Note_on_c, 0, 69, 92
2, 54180, Note_on_c, 0, 67, 0
2, 54180, Note_on_c, 0, 67, 81
2, 54186, Note_on_c, 0, 69, 0
2, 54190, Note_on_c, 0, 70, 85
2, 54211, Note_on_c, 0, 70, 0
2, 54217, Note_on_c, 0, 69, 88
2, 54238, Note_on_c, 0, 69, 0
2, 54243, Note_on_c, 0, 70, 77
2, 54264, Note_on_c, 0, 70, 0
2, 54270, Note_on_c, 0, 69, 86
2, 54291, Note_on_c, 0, 69, 0
2, 54298, Note_on_c, 0, 70, 79
2, 54321, Note_on_c, 0, 70, 0
2, 54326, Note_on_c, 0, 69, 91
2, 54349, Note_on_c, 0, 69, 0
2, 54354, Note_on_c, 0, 70, 78
2, 54360, Note_on_c, 0, 67, 0
2, 54360, Note_on_c, 0, 67, 81
2, 54377, Note_on_c, 0, 70, 0
2, 54383, Note_on_c, 0, 69, 93
2, 54405, Note_on_c, 0, 69, 0
2, 54412, Note_on_c, 0, 70, 85
2, 54435, Note_on_c, 0, 70, 0
2, 54442, Note_on_c, 0, 69, 86
2, 54464, Note_on_c, 0, 69, 0
2, 54471, Note_on_c, 0, 70, 85
2, 54494, Note_on_c, 0, 70, 0
2, 54501, Note_on_c, 0, 69, 87
2, 54523, Note_on_c, 0, 69, 0
2, 54532, Note_on_c, 0, 70, 77
2, 54540, Note_on_c, 0, 67, 0
2, 54540, Note_on_c, 0, 67, 88
2, 54555, Note_on_c, 0, 70, 0
2, 54563, Note_on_c, 0, 69, 87
2, 54587, Note_on_c, 0, 69, 0
2, 54594, Note_on_c, 0, 70, 91
2, 54617, Note_on_c, 0, 70, 0
2, 54626, Note_on_c, 0, 69, 85
2, 54651, Note_on_c, 0, 69, 0
2, 54658, Note_on_c, 0, 70, 80
2, 54667, Note_on_c, 0, 68, 82
2, 54684, Note_on_c, 0, 70, 0
2, 54686, Note_on_c, 0, 68, 0
2, 54686, Note_on_c, 0, 69, 88
2, 54690, Note_on_c, 0, 69, 89
2, 54716, Note_on_c, 0, 69, 0
2, 54720, Note_on_c, 0, 67, 0
2, 54720, Note_on_c, 0, 67, 78
2, 54754, Note_on_c, 0, 69, 0
2, 54754, Note_on_c, 0, 76, 105
2, 54780, Note_on_c, 0, 76, 0
2, 54788, Note_on_c, 0, 77, 95
2, 54814, Note_on_c, 0, 77, 0
2, 54821, Note_on_c, 0, 76, 98
2, 54848, Note_on_c, 0, 76, 0
2, 54854, Note_on_c, 0, 77, 96
2, 54879, Note_on_c, 0, 77, 0
2, 54886, Note_on_c, 0, 76, 108
2, 54900, Note_on_c, 0, 67, 0
2, 54900, Note_on_c, 0, 67, 82
2, 54911, Note_on_c, 0, 76, 0
2, 54918, Note_on_c, 0, 77, 93
2, 54944, Note_on_c, 0, 77, 0
2, 54949, Note_on_c, 0, 76, 103
2, 54973, Note_on_c, 0, 76, 0
2, 54980, Note_on_c, 0, 77, 94
2, 55004, Note_on_c, 0, 77, 0
2, 55011, Note_on_c, 0, 76, 96
2, 55035, Note_on_c, 0, 76, 0
2, 55042, Note_on_c, 0, 77, 97
2, 55066, Note_on_c, 0, 77, 0
2, 55072, Note_on_c, 0, 76, 99
2, 55080, Note_on_c, 0, 67, 0
2, 55080, Note_on_c, 0, 67, 85
2, 55094, Note_on_c, 0, 76, 0
2, 55101, Note_on_c, 0, 77, 94
2, 55124, Note_on_c, 0, 77, 0
2, 55131, Note_on_c, 0, 76, 100
2, 55153, Note_on_c, 0, 76, 0
2, 55159, Note_on_c, 0, 77, 94
2, 55181, Note_on_c, 0, 77, 0
2, 55187, Note_on_c, 0, 76, 105
2, 55209, Note_on_c, 0, 76, 0
2, 55215, Note_on_c, 0, 77, 94
2, 55238, Note_on_c, 0, 77, 0
2, 55243, Note_on_c, 0, 76, 101
2, 55260, Note_on_c, 0, 67, 0
2, 55260, Note_on_c, 0, 67, 80
2, 55266, Note_on_c, 0, 76, 0
2, 55270, Note_on_c, 0, 77, 90
2, 55291, Note_on_c, 0, 77, 0
2, 55297, Note_on_c, 0, 76, 107
2, 55318, Note_on_c, 0, 76, 0
2, 55323, Note_on_c, 0, 77, 96
2, 55344, Note_on_c, 0, 77, 0
2, 55350, Note_on_c, 0, 76, 108
2, 55371, Note_on_c, 0, 76, 0
2, 55378, Note_on_c, 0, 77, 99
2, 55401, Note_on_c, 0, 77, 0
2, 55406, Note_on_c, 0, 76, 101
2, 55429, Note_on_c, 0, 76, 0
2, 55434, Note_on_c, 0, 77, 93
2, 55440, Note_on_c, 0, 67, 0
2, 55440, Note_on_c, 0, 67, 85
2, 55457, Note_on_c, 0, 77, 0
2, 55463, Note_on_c, 0, 76, 96
2, 55485, Note_on_c, 0, 76, 0
2, 55492, Note_on_c, 0, 77, 96
2, 55515, Note_on_c, 0, 77, 0
2, 55522, Note_on_c, 0, 76, 101
2, 55544, Note_on_c, 0, 76, 0
2, 55551, Note_on_c, 0, 77, 95
2, 55574, Note_on_c, 0, 77, 0
2, 55581, Note_on_c, 0, 76, 102
2, 55603, Note_on_c, 0, 76, 0
2, 55612, Note_on_c, 0, 77, 96
2, 55620, Note_on_c, 0, 67, 0
2, 55620, Note_on_c, 0, 67, 84
2, 55635, Note_on_c, 0, 77, 0
2, 55643, Note_on_c, 0, 76, 103
2, 55667, Note_on_c, 0, 76, 0
2, 55674, Note_on_c, 0, 77, 97
2, 55697, Note_on_c, 0, 77, 0
2, 55706, Note_on_c, 0, 76, 100
2, 55731, Note_on_c, 0, 76, 0
2, 55738, Note_on_c, 0, 77, 99
2, 55764, Note_on_c, 0, 77, 0
2, 55770, Note_on_c, 0, 76, 97
2, 55796, Note_on_c, 0, 76, 0
2, 55800, Note_on_c, 0, 67, 0
2, 55800, Note_on_c, 0, 69, 68
2, 55834, Note_on_c, 0, 65, 73
2, 55860, Note_on_c, 0, 65, 0
2, 55868, Note_on_c, 0, 64, 62
2, 55894, Note_on_c, 0, 64, 0
2, 55901, Note_on_c, 0, 65, 81
2, 55928, Note_on_c, 0, 65, 0
2, 55934, Note_on_c, 0, 64, 70
2, 55959, Note_on_c, 0, 64, 0
2, 55966, Note_on_c, 0, 65, 70
2, 55980, Note_on_c, 0, 69, 0
2, 55980, Note_on_c, 0, 69, 81
2, 55991, Note_on_c, 0, 65, 0
2, 55998, Note_on_c, 0, 64, 69
2, 56024, Note_on_c, 0, 64, 0
2, 56029, Note_on_c, 0, 65, 68
2, 56053, Note_on_c, 0, 65, 0
2, 56060, Note_on_c, 0, 64, 62
2, 56084, Note_on_c, 0, 64, 0
2, 56091, Note_on_c, 0, 65, 71
2, 56115, Note_on_c, 0, 65, 0
2, 56122, Note_on_c, 0, 64, 69
2, 56146, Note_on_c, 0, 64, 0
2, 56152, Note_on_c, 0, 65, 71
2, 56160, Note_on_c, 0, 69, 0
2, 56160, Note_on_c, 0, 69, 84
2, 56174, Note_on_c, 0, 65, 0
2, 56181, Note_on_c, 0, 64, 68
2, 56204, Note_on_c, 0, 64, 0
2, 56211, Note_on_c, 0, 65, 71
2, 56233, Note_on_c, 0, 65, 0
2, 56239, Note_on_c, 0, 64, 68
2, 56261, Note_on_c, 0, 64, 0
2, 56267, Note_on_c, 0, 65, 76
2, 56289, Note_on_c, 0, 65, 0
2, 56295, Note_on_c, 0, 64, 66
2, 56318, Note_on_c, 0, 64, 0
2, 56323, Note_on_c, 0, 65, 76
2, 56340, Note_on_c, 0, 69, 0
2, 56340, Note_on_c, 0, 69, 84
2, 56346, Note_on_c, 0, 65, 0
2, 56350, Note_on_c, 0, 64, 66
2, 56371, Note_on_c, 0, 64, 0
2, 56377, Note_on_c, 0, 65, 76
2, 56398, Note_on_c, 0, 65, 0
2, 56403, Note_on_c, 0, 64, 65
2, 56424, Note_on_c, 0, 64, 0
2, 56430, Note_on_c, 0, 65, 75
2, 56451, Note_on_c, 0, 65, 0
2, 56458, Note_on_c, 0, 64, 65
2, 56481, Note_on_c, 0, 64, 0
2, 56486, Note_on_c, 0, 65, 72
2, 56509, Note_on_c, 0, 65, 0
2, 56514, Note_on_c, 0, 64, 68
2, 56520, Note_on_c, 0, 69, 0
2, 56520, Note_on_c, 0, 69, 82
2, 56537, Note_on_c, 0, 64, 0
2, 56543, Note_on_c, 0, 65, 68
2, 56565, Note_on_c, 0, 65, 0
2, 56572, Note_on_c, 0, 64, 63
2, 56595, Note_on_c, 0, 64, 0
2, 56602, Note_on_c, 0, 65, 76
2, 56624, Note_on_c, 0, 65, 0
2, 56631, Note_on_c, 0, 64, 63
2, 56654, Note_on_c, 0, 64, 0
2, 56661, Note_on_c, 0, 65, 68
2, 56683, Note_on_c, 0, 65, 0
2, 56692, Note_on_c, 0, 64, 67
2, 56700, Note_on_c, 0, 69, 0
2, 56700, Note_on_c, 0, 69, 84
2, 56715, Note_on_c, 0, 64, 0
2, 56723, Note_on_c, 0, 65, 70
2, 56747, Note_on_c, 0, 65, 0
2, 56754, Note_on_c, 0, 64, 62
2, 56777, Note_on_c, 0, 64, 0
2, 56786, Note_on_c, 0, 65, 79
2, 56811, Note_on_c, 0, 65, 0
2, 56818, Note_on_c, 0, 64, 71
2, 56842, Note_on_c, 0, 63, 80
2, 56844, Note_on_c, 0, 64, 0
2, 56850, Note_on_c, 0, 65, 74
2, 56862, Note_on_c, 0, 63, 0
2, 56862, Note_on_c, 0, 64, 86
2, 56876, Note_on_c, 0, 65, 0
2, 56880, Note_on_c, 0, 64, 0
2, 56880, Note_on_c, 0, 69, 0
2, 56880, Note_on_c, 0, 69, 80
2, 56880, Note_on_c, 0, 65, 88
2, 57060, Note_on_c, 0, 69, 0
2, 57060, Note_on_c, 0, 69, 79
2, 57240, Note_on_c, 0, 69, 0
2, 57240, Note_on_c, 0, 69, 84
2, 57420, Note_on_c, 0, 69, 0
2, 57420, Note_on_c, 0, 65, 0
2, 57420, Note_on_c, 0, 69, 80
2, 57420, Note_on_c, 0, 64, 79
2, 57600, Note_on_c, 0, 69, 0
2, 57600, Note_on_c, 0, 69, 82
2, 57780, Note_on_c, 0, 69, 0
2, 57780, Note_on_c, 0, 69, 78
2, 57960, Note_on_c, 0, 69, 0
2, 57960, Note_on_c, 0, 64, 0
2, 57960, Note_on_c, 0, 69, 91
2, 57994, Note_on_c, 0, 71, 86
2, 58020, Note_on_c, 0, 71, 0
2, 58028, Note_on_c, 0, 72, 76
2, 58054, Note_on_c, 0, 72, 0
2, 58061, Note_on_c, 0, 71, 92
2, 58088, Note_on_c, 0, 71, 0
2, 58094, Note_on_c, 0, 72, 84
2, 58119, Note_on_c, 0, 72, 0
2, 58126, Note_on_c, 0, 71, 94
2, 58140, Note_on_c, 0, 69, 0
2, 58140, Note_on_c, 0, 69, 87
2, 58151, Note_on_c, 0, 71, 0
2, 58158, Note_on_c, 0, 72, 75
2, 58184, Note_on_c, 0, 72, 0
2, 58189, Note_on_c, 0, 71, 83
2, 58213, Note_on_c, 0, 71, 0
2, 58220, Note_on_c, 0, 72, 83
2, 58244, Note_on_c, 0, 72, 0
2, 58251, Note_on_c, 0, 71, 90
2, 58275, Note_on_c, 0, 71, 0
2, 58282, Note_on_c, 0, 72, 84
2, 58306, Note_on_c, 0, 72, 0
2, 58312, Note_on_c, 0, 71, 86
2, 58320, Note_on_c, 0, 69, 0
2, 58320, Note_on_c, 0, 69, 84
2, 58334, Note_on_c, 0, 71, 0
2, 58341, Note_on_c, 0, 72, 85
2, 58364, Note_on_c, 0, 72, 0
2, 58371, Note_on_c, 0, 71, 90
2, 58393, Note_on_c, 0, 71, 0
2, 58399, Note_on_c, 0, 72, 85
2, 58421, Note_on_c, 0, 72, 0
2, 58427, Note_on_c, 0, 71, 89
2, 58449, Note_on_c, 0, 71, 0
2, 58455, Note_on_c, 0, 72, 80
2, 58478, Note_on_c, 0, 72, 0
2, 58483, Note_on_c, 0, 71, 82
2, 58500, Note_on_c, 0, 69, 0
2, 58500, Note_on_c, 0, 69, 87
2, 58506, Note_on_c, 0, 71, 0
2, 58510, Note_on_c, 0, 72, 76
2, 58531, Note_on_c, 0, 72, 0
2, 58537, Note_on_c, 0, 71, 86
2, 58558, Note_on_c, 0, 71, 0
2, 58563, Note_on_c, 0, 72, 83
2, 58584, Note_on_c, 0, 72, 0
2, 58590, Note_on_c, 0, 71, 91
2, 58611, Note_on_c, 0, 71, 0
2, 58618, Note_on_c, 0, 72, 80
2, 58641, Note_on_c, 0, 72, 0
2, 58646, Note_on_c, 0, 71, 96
2, 58669, Note_on_c, 0, 71, 0
2, 58674, Note_on_c, 0, 72, 82
2, 58680, Note_on_c, 0, 69, 0
2, 58680, Note_on_c, 0, 69, 80
2, 58697, Note_on_c, 0, 72, 0
2, 58703, Note_on_c, 0, 71, 83
2, 58725, Note_on_c, 0, 71, 0
2, 58732, Note_on_c, 0, 72, 82
2, 58755, Note_on_c, 0, 72, 0
2, 58762, Note_on_c, 0, 71, 90
2, 58784, Note_on_c, 0, 71, 0
2, 58791, Note_on_c, 0, 72, 82
2, 58814, Note_on_c, 0, 72, 0
2, 58821, Note_on_c, 0, 71, 81
2, 58843, Note_on_c, 0, 71, 0
2, 58852, Note_on_c, 0, 72, 80
2, 58860, Note_on_c, 0, 69, 0
2, 58860, Note_on_c, 0, 69, 86
2, 58875, Note_on_c, 0, 72, 0
2, 58883, Note_on_c, 0, 71, 88
2, 58907, Note_on_c, 0, 71, 0
2, 58914, Note_on_c, 0, 72, 73
2, 58937, Note_on_c, 0, 72, 0
2, 58946, Note_on_c, 0, 71, 86
2, 58971, Note_on_c, 0, 71, 0
2, 58978, Note_on_c, 0, 72, 82
2, 58984, Note_on_c, 0, 70, 82
2, 59002, Note_on_c, 0, 70, 0
2, 59002, Note_on_c, 0, 71, 88
2, 59004, Note_on_c, 0, 72, 0
2, 59010, Note_on_c, 0, 71, 81
2, 59036, Note_on_c, 0, 71, 0
2, 59040, Note_on_c, 0, 69, 0
2, 59040, Note_on_c, 0, 69, 85
2, 59074, Note_on_c, 0, 71, 0
2, 59074, Note_on_c, 0, 78, 104
2, 59100, Note_on_c, 0, 78, 0
2, 59108, Note_on_c, 0, 79, 92
2, 59134, Note_on_c, 0, 79, 0
2, 59141, Note_on_c, 0, 78, 103
2, 59168, Note_on_c, 0, 78, 0
2, 59174, Note_on_c, 0, 79, 94
2, 59199, Note_on_c, 0, 79, 0
2, 59206, Note_on_c, 0, 78, 101
2, 59220, Note_on_c, 0, 69, 0
2, 59220, Note_on_c, 0, 69, 77
2, 59231, Note_on_c, 0, 78, 0
2, 59238, Note_on_c, 0, 79, 96
2, 59264, Note_on_c, 0, 79, 0
2, 59269, Note_on_c, 0, 78, 101
2, 59293, Note_on_c, 0, 78, 0
2, 59300, Note_on_c, 0, 79, 97
2, 59324, Note_on_c, 0, 79, 0
2, 59331, Note_on_c, 0, 78, 107
2, 59355, Note_on_c, 0, 78, 0
2, 59362, Note_on_c, 0, 79, 93
2, 59386, Note_on_c, 0, 79, 0
2, 59392, Note_on_c, 0, 78, 98
2, 59400, Note_on_c, 0, 69, 0
2, 59400, Note_on_c, 0, 69, 82
2, 59414, Note_on_c, 0, 78, 0
2, 59421, Note_on_c, 0, 79, 94
2, 59444, Note_on_c, 0, 79, 0
2, 59451, Note_on_c, 0, 78, 102
2, 59473, Note_on_c, 0, 78, 0
2, 59479, Note_on_c, 0, 79, 104
2, 59501, Note_on_c, 0, 79, 0
2, 59507, Note_on_c, 0, 78, 99
2, 59529, Note_on_c, 0, 78, 0
2, 59535, Note_on_c, 0, 79, 90
2, 59558, Note_on_c, 0, 79, 0
2, 59563, Note_on_c, 0, 78, 93
2, 59580, Note_on_c, 0, 69, 0
2, 59580, Note_on_c, 0, 69, 82
2, 59586, Note_on_c, 0, 78, 0
2, 59590, Note_on_c, 0, 79, 91
2, 59611, Note_on_c, 0, 79, 0
2, 59617, Note_on_c, 0, 78, 99
2, 59638, Note_on_c, 0, 78, 0
2, 59643, Note_on_c, 0, 79, 99
2, 59664, Note_on_c, 0, 79, 0
2, 59670, Note_on_c, 0, 78, 101
2, 59691, Note_on_c, 0, 78, 0
2, 59698, Note_on_c, 0, 79, 95
2, 59721, Note_on_c, 0, 79, 0
2, 59726, Note_on_c, 0, 78, 100
2, 59749, Note_on_c, 0, 78, 0
2, 59754, Note_on_c, 0, 79, 90
2, 59760, Note_on_c, 0, 69, 0
2, 59760, Note_on_c, 0, 69, 83
2, 59777, Note_on_c, 0, 79, 0
2, 59783, Note_on_c, 0, 78, 102
2, 59805, Note_on_c, 0, 78, 0
2, 59812, Note_on_c, 0, 79, 100
2, 59835, Note_on_c, 0, 79, 0
2, 59842, Note_on_c, 0, 78, 103
2, 59864, Note_on_c, 0, 78, 0
2, 59871, Note_on_c, 0, 79, 97
2, 59894, Note_on_c, 0, 79, 0
2, 59901, Note_on_c, 0, 78, 104
2, 59923, Note_on_c, 0, 78, 0
2, 59932, Note_on_c, 0, 79, 94
2, 59940, Note_on_c, 0, 69, 0
2, 59940, Note_on_c, 0, 69, 84
2, 59955, Note_on_c, 0, 79, 0
2, 59963, Note_on_c, 0, 78, 96
2, 59987, Note_on_c, 0, 78, 0
2, 59994, Note_on_c, 0, 79, 103
2, 60017, Note_on_c, 0, 79, 0
2, 60026, Note_on_c, 0, 78, 105
2, 60051, Note_on_c, 0, 78, 0
2, 60058, Note_on_c, 0, 79, 99
2, 60084, Note_on_c, 0, 79, 0
2, 60090, Note_on_c, 0, 78, 94
2, 60116, Note_on_c, 0, 78, 0
2, 60120, Note_on_c, 0, 69, 0
2, 60120, Note_on_c, 0, 76, 67
2, 60120, Note_on_c, 0, 71, 73
2, 60138, Note_on_c, 0, 76, 0
2, 60138, Note_on_c, 0, 77, 74
2, 60171, Note_on_c, 0, 77, 0
2, 60171, Note_on_c, 0, 83, 80
2, 60660, Note_on_c, 0, 83, 0
2, 60660, Note_on_c, 0, 71, 0
2, 60660, Note_on_c, 0, 78, 68
2, 60660, Note_on_c, 0, 66, 68
2, 61020, Note_on_c, 0, 66, 0
2, 61020, Note_on_c, 0, 78, 0
2, 61020, Note_on_c, 0, 81, 70
2, 61020, Note_on_c, 0, 69, 70
2, 61200, Note_on_c, 0, 69, 0
2, 61200, Note_on_c, 0, 81, 0
2, 61200, Note_on_c, 0, 79, 70
2, 61200, Note_on_c, 0, 67, 70
2, 61560, Note_on_c, 0, 67, 0
2, 61560, Note_on_c, 0, 79, 0
2, 61560, Note_on_c, 0, 78, 71
2, 61560, Note_on_c, 0, 66, 71
2, 61740, Note_on_c, 0, 66, 0
2, 61740, Note_on_c, 0, 78, 0
2, 61740, Note_on_c, 0, 76, 72
2, 61740, Note_on_c, 0, 64, 72
2, 61920, Note_on_c, 0, 64, 0
2, 61920, Note_on_c, 0, 76, 0
2, 62280, Note_on_c, 0, 83, 74
2, 62280, Note_on_c, 0, 71, 74
2, 62820, Note_on_c, 0, 71, 0
2, 62820, Note_on_c, 0, 83, 0
2, 62820, Note_on_c, 0, 78, 76
2, 62820, Note_on_c, 0, 66, 76
2, 63180, Note_on_c, 0, 66, 0
2, 63180, Note_on_c, 0, 78, 0
2, 63180, Note_on_c, 0, 81, 77
2, 63180, Note_on_c, 0, 69, 77
2, 63360, Note_on_c, 0, 69, 0
2, 63360, Note_on_c, 0, 81, 0
2, 63360, Note_on_c, 0, 79, 77
2, 63360, Note_on_c, 0, 67, 77
2, 63720, Note_on_c, 0, 67, 0
2, 63720, Note_on_c, 0, 79, 0
2, 63720, Note_on_c, 0, 78, 79
2, 63720, Note_on_c, 0, 66, 79
2, 63900, Note_on_c, 0, 66, 0
2, 63900, Note_on_c, 0, 78, 0
2, 63900, Note_on_c, 0, 76, 79
2, 63900, Note_on_c, 0, 64, 79
2, 64080, Note_on_c, 0, 64, 0
2, 64080, Note_on_c, 0, 76, 0
2, 64440, Note_on_c, 0, 84, 81
2, 64440, Note_on_c, 0, 72, 81
2, 64980, Note_on_c, 0, 72, 0
2, 64980, Note_on_c, 0, 84, 0
2, 64980, Note_on_c, 0, 79, 83
2, 64980, Note_on_c, 0, 67, 83
2, 65340, Note_on_c, 0, 67, 0
2, 65340, Note_on_c, 0, 79, 0
2, 65340, Note_on_c, 0, 82, 84
2, 65340, Note_on_c, 0, 70, 84
2, 65520, Note_on_c, 0, 70, 0
2, 65520, Note_on_c, 0, 82, 0
2, 65520, Note_on_c, 0, 81, 85
2, 65520, Note_on_c, 0, 69, 85
2, 65880, Note_on_c, 0, 69, 0
2, 65880, Note_on_c, 0, 81, 0
2, 65880, Note_on_c, 0, 79, 86
2, 65880, Note_on_c, 0, 67, 86
2, 66060, Note_on_c, 0, 67, 0
2, 66060, Note_on_c, 0, 79, 0
2, 66060, Note_on_c, 0, 77, 86
2, 66060, Note_on_c, 0, 65, 86
2, 66240, Note_on_c, 0, 65, 0
2, 66240, Note_on_c, 0, 77, 0
2, 66600, Note_on_c, 0, 84, 88
2, 66600, Note_on_c, 0, 72, 88
2, 67140, Note_on_c, 0, 72, 0
2, 67140, Note_on_c, 0, 84, 0
2, 67140, Note_on_c, 0, 79, 90
2, 67140, Note_on_c, 0, 67, 90
2, 67500, Note_on_c, 0, 67, 0
2, 67500, Note_on_c, 0, 79, 0
2, 67500, Note_on_c, 0, 82, 91
2, 67500, Note_on_c, 0, 70, 91
2, 67680, Note_on_c, 0, 70, 0
2, 67680, Note_on_c, 0, 82, 0
2, 67680, Note_on_c, 0, 81, 92
2, 67680, Note_on_c, 0, 69, 92
2, 68040, Note_on_c, 0, 69, 0
2, 68040, Note_on_c, 0, 81, 0
2, 68040, Note_on_c, 0, 79, 93
2, 68040, Note_on_c, 0, 67, 93
2, 68220, Note_on_c, 0, 67, 0
2, 68220, Note_on_c, 0, 79, 0
2, 68220, Note_on_c, 0, 77, 94
2, 68220, Note_on_c, 0, 65, 94
2, 68400, Note_on_c, 0, 65, 0
2, 68400, Note_on_c, 0, 77, 0
2, 68760, Note_on_c, 0, 86, 68
2, 68760, Note_on_c, 0, 74, 73
2, 69120, Note_on_c, 0, 74, 0
2, 69120, Note_on_c, 0, 86, 0
2, 69120, Note_on_c, 0, 81, 69
2, 69120, Note_on_c, 0, 69, 68
2, 69300, Note_on_c, 0, 69, 0
2, 69300, Note_on_c, 0, 81, 0
2, 69300, Note_on_c, 0, 82, 82
2, 69300, Note_on_c, 0, 70, 87
2, 69480, Note_on_c, 0, 70, 0
2, 69480, Note_on_c, 0, 82, 0
2, 69480, Note_on_c, 0, 81, 82
2, 69480, Note_on_c, 0, 69, 78
2, 69660, Note_on_c, 0, 69, 0
2, 69660, Note_on_c, 0, 81, 0
2, 69660, Note_on_c, 0, 79, 74
2, 69660, Note_on_c, 0, 67, 71
2, 69840, Note_on_c, 0, 67, 0
2, 69840, Note_on_c, 0, 79, 0
2, 69840, Note_on_c, 0, 86, 101
2, 69840, Note_on_c, 0, 74, 101
2, 70200, Note_on_c, 0, 74, 0
2, 70200, Note_on_c, 0, 86, 0
2, 70200, Note_on_c, 0, 81, 68
2, 70200, Note_on_c, 0, 69, 71
2, 70380, Note_on_c, 0, 69, 0
2, 70380, Note_on_c, 0, 81, 0
2, 70380, Note_on_c, 0, 82, 82
2, 70380, Note_on_c, 0, 70, 84
2, 70560, Note_on_c, 0, 70, 0
2, 70560, Note_on_c, 0, 82, 0
2, 70560, Note_on_c, 0, 81, 77
2, 70560, Note_on_c, 0, 69, 75
2, 70740, Note_on_c, 0, 69, 0
2, 70740, Note_on_c, 0, 81, 0
2, 70740, Note_on_c, 0, 79, 76
2, 70740, Note_on_c, 0, 67, 70
2, 70920, Note_on_c, 0, 67, 0
2, 70920, Note_on_c, 0, 79, 0
2, 70920, Note_on_c, 0, 86, 111
2, 70920, Note_on_c, 0, 74, 111
2, 71100, Note_on_c, 0, 74, 0
2, 71100, Note_on_c, 0, 86, 0
2, 71100, Note_on_c, 0, 81, 88
2, 71100, Note_on_c, 0, 69, 87
2, 71280, Note_on_c, 0, 69, 0
2, 71280, Note_on_c, 0, 81, 0
2, 71280, Note_on_c, 0, 86, 110
2, 71280, Note_on_c, 0, 74, 109
2, 71460, Note_on_c, 0, 74, 0
2, 71460, Note_on_c, 0, 86, 0
2, 71460, Note_on_c, 0, 81, 85
2, 71460, Note_on_c, 0, 69, 82
2, 71640, Note_on_c, 0, 69, 0
2, 71640, Note_on_c, 0, 81, 0
2, 71640, Note_on_c, 0, 86, 111
2, 71640, Note_on_c, 0, 74, 108
2, 71820, Note_on_c, 0, 74, 0
2, 71820, Note_on_c, 0, 86, 0
2, 71820, Note_on_c, 0, 81, 80
2, 71820, Note_on_c, 0, 69, 86
2, 72000, Note_on_c, 0, 69, 0
2, 72000, Note_on_c, 0, 81, 0
2, 72000, Note_on_c, 0, 86, 111
2, 72000, Note_on_c, 0, 74, 108
2, 72180, Note_on_c, 0, 74, 0
2, 72180, Note_on_c, 0, 86, 0
2, 72180, Note_on_c, 0, 82, 90
2, 72180, Note_on_c, 0, 70, 87
2, 72360, Note_on_c, 0, 70, 0
2, 72360, Note_on_c, 0, 82, 0
2, 72360, Note_on_c, 0, 86, 107
2, 72360, Note_on_c, 0, 74, 107
2, 72540, Note_on_c, 0, 74, 0
2, 72540, Note_on_c, 0, 86, 0
2, 72540, Note_on_c, 0, 82, 88
2, 72540, Note_on_c, 0, 70, 91
2, 72720, Note_on_c, 0, 70, 0
2, 72720, Note_on_c, 0, 82, 0
2, 72720, Note_on_c, 0, 86, 108
2, 72720, Note_on_c, 0, 74, 111
2, 72900, Note_on_c, 0, 74, 0
2, 72900, Note_on_c, 0, 86, 0
2, 72900, Note_on_c, 0, 82, 86
2, 72900, Note_on_c, 0, 70, 85
2, 73080, Note_on_c, 0, 70, 0
2, 73080, Note_on_c, 0, 82, 0
2, 73260, Note_on_c, 0, 70, 82
2, 73260, Note_on_c, 0, 58, 82
2, 73350, Note_on_c, 0, 58, 0
2, 73350, Note_on_c, 0, 70, 0
2, 73350, Note_on_c, 0, 72, 85
2, 73350, Note_on_c, 0, 60, 85
2, 73440, Note_on_c, 0, 60, 0
2, 73440, Note_on_c, 0, 72, 0
2, 73440, Note_on_c, 0, 74, 87
2, 73440, Note_on_c, 0, 62, 87
2, 73530, Note_on_c, 0, 62, 0
2, 73530, Note_on_c, 0, 74, 0
2, 73530, Note_on_c, 0, 75, 90
2, 73530, Note_on_c, 0, 63, 90
2, 73620, Note_on_c, 0, 63, 0
2, 73620, Note_on_c, 0, 75, 0
2, 73620, Note_on_c, 0, 77, 92
2, 73620, Note_on_c, 0, 65, 92
2, 73710, Note_on_c, 0, 65, 0
2, 73710, Note_on_c, 0, 77, 0
2, 73710, Note_on_c, 0, 79, 95
2, 73710, Note_on_c, 0, 67, 95
2, 73800, Note_on_c, 0, 67, 0
2, 73800, Note_on_c, 0, 79, 0
2, 73800, Note_on_c, 0, 80, 98
2, 73800, Note_on_c, 0, 68, 98
2, 73890, Note_on_c, 0, 68, 0
2, 73890, Note_on_c, 0, 80, 0
2, 73890, Note_on_c, 0, 81, 100
2, 73890, Note_on_c, 0, 69, 100
2, 73980, Note_on_c, 0, 69, 0
2, 73980, Note_on_c, 0, 81, 0
2, 73980, Note_on_c, 0, 82, 103
2, 73980, Note_on_c, 0, 70, 103
2, 74070, Note_on_c, 0, 70, 0
2, 74070, Note_on_c, 0, 82, 0
2, 74070, Note_on_c, 0, 84, 105
2, 74070, Note_on_c, 0, 72, 105
2, 74160, Note_on_c, 0, 72, 0
2, 74160, Note_on_c, 0, 84, 0
2, 74160, Note_on_c, 0, 86, 111
2, 74160, Note_on_c, 0, 74, 111
2, 74340, Note_on_c, 0, 74, 0
2, 74340, Note_on_c, 0, 86, 0
2, 74340, Note_on_c, 0, 82, 93
2, 74340, Note_on_c, 0, 70, 95
2, 74520, Note_on_c, 0, 70, 0
2, 74520, Note_on_c, 0, 82, 0
2, 74520, Note_on_c, 0, 86, 111
2, 74520, Note_on_c, 0, 74, 111
2, 74700, Note_on_c, 0, 74, 0
2, 74700, Note_on_c, 0, 86, 0
2, 74700, Note_on_c, 0, 82, 97
2, 74700, Note_on_c, 0, 70, 97
2, 74880, Note_on_c, 0, 70, 0
2, 74880, Note_on_c, 0, 82, 0
2, 74880, Note_on_c, 0, 86, 111
2, 74880, Note_on_c, 0, 74, 111
2, 75060, Note_on_c, 0, 74, 0
2, 75060, Note_on_c, 0, 86, 0
2, 75060, Note_on_c, 0, 82, 98
2, 75060, Note_on_c, 0, 70, 102
2, 75240, Note_on_c, 0, 70, 0
2, 75240, Note_on_c, 0, 82, 0
2, 75420, Note_on_c, 0, 70, 82
2, 75420, Note_on_c, 0, 58, 82
2, 75510, Note_on_c, 0, 58, 0
2, 75510, Note_on_c, 0, 70, 0
2, 75510, Note_on_c, 0, 72, 85
2, 75510, Note_on_c, 0, 60, 85
2, 75600, Note_on_c, 0, 60, 0
2, 75600, Note_on_c, 0, 72, 0
2, 75600, Note_on_c, 0, 74, 87
2, 75600, Note_on_c, 0, 62, 87
2, 75690, Note_on_c, 0, 62, 0
2, 75690, Note_on_c, 0, 74, 0
2, 75690, Note_on_c, 0, 75, 90
2, 75690, Note_on_c, 0, 63, 90
2, 75780, Note_on_c, 0, 63, 0
2, 75780, Note_on_c, 0, 75, 0
2, 75780, Note_on_c, 0, 77, 92
2, 75780, Note_on_c, 0, 65, 92
2, 75870, Note_on_c, 0, 65, 0
2, 75870, Note_on_c, 0, 77, 0
2, 75870, Note_on_c, 0, 79, 95
2, 75870, Note_on_c, 0, 67, 95
2, 75960, Note_on_c, 0, 67, 0
2, 75960, Note_on_c, 0, 79, 0
2, 75960, Note_on_c, 0, 80, 98
2, 75960, Note_on_c, 0, 68, 98
2, 76050, Note_on_c, 0, 68, 0
2, 76050, Note_on_c, 0, 80, 0
2, 76050, Note_on_c, 0, 81, 100
2, 76050, Note_on_c, 0, 69, 100
2, 76140, Note_on_c, 0, 69, 0
2, 76140, Note_on_c, 0, 81, 0
2, 76140, Note_on_c, 0, 82, 103
2, 76140, Note_on_c, 0, 70, 103
2, 76230, Note_on_c, 0, 70, 0
2, 76230, Note_on_c, 0, 82, 0
2, 76230, Note_on_c, 0, 84, 105
2, 76230, Note_on_c, 0, 72, 105
2, 76320, Note_on_c, 0, 72, 0
2, 76320, Note_on_c, 0, 84, 0
2, 76320, Note_on_c, 0, 80, 111
2, 76320, Note_on_c, 0, 82, 111
2, 76320, Note_on_c, 0, 86, 111
2, 76320, Note_on_c, 0, 68, 111
2, 76320, Note_on_c, 0, 70, 111
2, 76320, Note_on_c, 0, 74, 111
2, 76680, Note_on_c, 0, 74, 0
2, 76680, Note_on_c, 0, 82, 0
2, 76680, Note_on_c, 0, 86, 0
2, 76680, Note_on_c, 0, 80, 0
2, 76680, Note_on_c, 0, 70, 0
2, 76680, Note_on_c, 0, 68, 0
2, 76680, Note_on_c, 0, 80, 107
2, 76680, Note_on_c, 0, 82, 107
2, 76680, Note_on_c, 0, 86, 107
2, 76680, Note_on_c, 0, 68, 104
2, 76680, Note_on_c, 0, 70, 104
2, 76680, Note_on_c, 0, 74, 104
2, 76860, Note_on_c, 0, 74, 0
2, 76860, Note_on_c, 0, 82, 0
2, 76860, Note_on_c, 0, 86, 0
2, 76860, Note_on_c, 0, 80, 0
2, 76860, Note_on_c, 0, 70, 0
2, 76860, Note_on_c, 0, 68, 0
2, 76860, Note_on_c, 0, 62, 74
2, 76905, Note_on_c, 0, 62, 0
2, 76905, Note_on_c, 0, 63, 104
2, 76950, Note_on_c, 0, 63, 0
2, 76950, Note_on_c, 0, 65, 111
2, 76995, Note_on_c, 0, 65, 0
2, 76995, Note_on_c, 0, 67, 111
2, 77040, Note_on_c, 0, 67, 0
2, 77040, Note_on_c, 0, 68, 111
2, 77220, Note_on_c, 0, 68, 0
2, 77220, Note_on_c, 0, 80, 100
2, 77265, Note_on_c, 0, 80, 0
2, 77265, Note_on_c, 0, 81, 111
2, 77310, Note_on_c, 0, 81, 0
2, 77310, Note_on_c, 0, 82, 111
2, 77355, Note_on_c, 0, 82, 0
2, 77355, Note_on_c, 0, 84, 111
2, 77400, Note_on_c, 0, 84, 0
2, 77400, Note_on_c, 0, 80, 111
2, 77400, Note_on_c, 0, 82, 111
2, 77400, Note_on_c, 0, 86, 111
2, 77400, Note_on_c, 0, 68, 95
2, 77400, Note_on_c, 0, 70, 95
2, 77400, Note_on_c, 0, 74, 95
2, 77760, Note_on_c, 0, 74, 0
2, 77760, Note_on_c, 0, 82, 0
2, 77760, Note_on_c, 0, 86, 0
2, 77760, Note_on_c, 0, 80, 0
2, 77760, Note_on_c, 0, 70, 0
2, 77760, Note_on_c, 0, 68, 0
2, 77760, Note_on_c, 0, 80, 107
2, 77760, Note_on_c, 0, 82, 107
2, 77760, Note_on_c, 0, 86, 107
2, 77760, Note_on_c, 0, 68, 103
2, 77760, Note_on_c, 0, 70, 103
2, 77760, Note_on_c, 0, 74, 103
2, 77940, Note_on_c, 0, 74, 0
2, 77940, Note_on_c, 0, 82, 0
2, 77940, Note_on_c, 0, 86, 0
2, 77940, Note_on_c, 0, 80, 0
2, 77940, Note_on_c, 0, 70, 0
2, 77940, Note_on_c, 0, 68, 0
2, 77940, Note_on_c, 0, 62, 68
2, 77985, Note_on_c, 0, 62, 0
2, 77985, Note_on_c, 0, 63, 109
2, 78030, Note_on_c, 0, 63, 0
2, 78030, Note_on_c, 0, 65, 111
2, 78075, Note_on_c, 0, 65, 0
2, 78075, Note_on_c, 0, 67, 111
2, 78120, Note_on_c, 0, 67, 0
2, 78120, Note_on_c, 0, 68, 111
2, 78300, Note_on_c, 0, 68, 0
2, 78300, Note_on_c, 0, 80, 98
2, 78345, Note_on_c, 0, 80, 0
2, 78345, Note_on_c, 0, 81, 108
2, 78390, Note_on_c, 0, 81, 0
2, 78390, Note_on_c, 0, 82, 111
2, 78435, Note_on_c, 0, 82, 0
2, 78435, Note_on_c, 0, 84, 111
2, 78480, Note_on_c, 0, 84, 0
2, 78480, Note_on_c, 0, 80, 111
2, 78480, Note_on_c, 0, 82, 111
2, 78480, Note_on_c, 0, 86, 111
2, 78480, Note_on_c, 0, 68, 94
2, 78480, Note_on_c, 0, 70, 94
2, 78480, Note_on_c, 0, 74, 94
2, 78840, Note_on_c, 0, 74, 0
2, 78840, Note_on_c, 0, 82, 0
2, 78840, Note_on_c, 0, 86, 0
2, 78840, Note_on_c, 0, 80, 0
2, 78840, Note_on_c, 0, 70, 0
2, 78840, Note_on_c, 0, 68, 0
2, 78840, Note_on_c, 0, 80, 110
2, 78840, Note_on_c, 0, 82, 110
2, 78840, Note_on_c, 0, 86, 110
2, 78840, Note_on_c, 0, 68, 106
2, 78840, Note_on_c, 0, 70, 106
2, 78840, Note_on_c, 0, 74, 106
2, 79020, Note_on_c, 0, 74, 0
2, 79020, Note_on_c, 0, 82, 0
2, 79020, Note_on_c, 0, 86, 0
2, 79020, Note_on_c, 0, 80, 0
2, 79020, Note_on_c, 0, 70, 0
2, 79020, Note_on_c, 0, 68, 0
2, 79020, Note_on_c, 0, 65, 75
2, 79200, Note_on_c, 0, 65, 0
2, 79200, Note_on_c, 0, 67, 111
2, 79380, Note_on_c, 0, 67, 0
2, 79380, Note_on_c, 0, 68, 111
2, 79560, Note_on_c, 0, 68, 0
2, 79560, Note_on_c, 0, 71, 111
2, 79740, Note_on_c, 0, 71, 0
2, 79740, Note_on_c, 0, 72, 111
2, 79920, Note_on_c, 0, 72, 0
2, 79920, Note_on_c, 0, 73, 111
2, 80100, Note_on_c, 0, 73, 0
2, 80100, Note_on_c, 0, 74, 111
2, 80280, Note_on_c, 0, 74, 0
2, 80280, Note_on_c, 0, 76, 111
2, 80280, Note_on_c, 0, 64, 97
2, 80460, Note_on_c, 0, 64, 0
2, 80460, Note_on_c, 0, 76, 0
2, 80460, Note_on_c, 0, 77, 111
2, 80460, Note_on_c, 0, 65, 109
2, 80640, Note_on_c, 0, 65, 0
2, 80640, Note_on_c, 0, 77, 0
2, 80640, Note_on_c, 0, 79, 111
2, 80640, Note_on_c, 0, 67, 111
2, 80820, Note_on_c, 0, 67, 0
2, 80820, Note_on_c, 0, 79, 0
2, 80820, Note_on_c, 0, 80, 111
2, 80820, Note_on_c, 0, 68, 111
2, 81000, Note_on_c, 0, 68, 0
2, 81000, Note_on_c, 0, 80, 0
2, 81000, Note_on_c, 0, 83, 111
2, 81000, Note_on_c, 0, 71, 111
2, 81180, Note_on_c, 0, 71, 0
2, 81180, Note_on_c, 0, 83, 0
2, 81180, Note_on_c, 0, 84, 111
2, 81180, Note_on_c, 0, 72, 111
2, 81360, Note_on_c, 0, 72, 0
2, 81360, Note_on_c, 0, 84, 0
2, 81360, Note_on_c, 0, 85, 111
2, 81360, Note_on_c, 0, 73, 111
2, 81540, Note_on_c, 0, 73, 0
2, 81540, Note_on_c, 0, 85, 0
2, 81540, Note_on_c, 0, 86, 111
2, 81540, Note_on_c, 0, 74, 108
2, 81720, Note_on_c, 0, 74, 0
2, 81720, Note_on_c, 0, 86, 0
2, 81720, Note_on_c, 0, 87, 111
2, 81720, Note_on_c, 0, 75, 111
2, 82620, Note_on_c, 0, 75, 0
2, 82620, Note_on_c, 0, 87, 0
2, 82620, Note_on_c, 0, 86, 102
2, 82620, Note_on_c, 0, 74, 104
2, 82800, Note_on_c, 0, 74, 0
2, 82800, Note_on_c, 0, 86, 0
2, 82800, Note_on_c, 0, 87, 111
2, 82800, Note_on_c, 0, 75, 111
2, 82980, Note_on_c, 0, 75, 0
2, 82980, Note_on_c, 0, 87, 0
2, 82980, Note_on_c, 0, 86, 99
2, 82980, Note_on_c, 0, 74, 103
2, 83160, Note_on_c, 0, 74, 0
2, 83160, Note_on_c, 0, 86, 0
2, 83160, Note_on_c, 0, 84, 100
2, 83160, Note_on_c, 0, 72, 104
2, 83340, Note_on_c, 0, 72, 0
2, 83340, Note_on_c, 0, 84, 0
2, 83340, Note_on_c, 0, 82, 99
2, 83340, Note_on_c, 0, 70, 102
2, 83520, Note_on_c, 0, 70, 0
2, 83520, Note_on_c, 0, 82, 0
2, 83520, Note_on_c, 0, 80, 98
2, 83520, Note_on_c, 0, 68, 99
2, 83700, Note_on_c, 0, 68, 0
2, 83700, Note_on_c, 0, 80, 0
2, 83700, Note_on_c, 0, 79, 97
2, 83700, Note_on_c, 0, 67, 99
2, 83880, Note_on_c, 0, 67, 0
2, 83880, Note_on_c, 0, 79, 0
2, 83880, Note_on_c, 0, 77, 98
2, 83880, Note_on_c, 0, 65, 101
2, 84420, Note_on_c, 0, 65, 0
2, 84420, Note_on_c, 0, 77, 0
2, 84420, Note_on_c, 0, 79, 111
2, 84420, Note_on_c, 0, 67, 111
2, 84780, Note_on_c, 0, 67, 0
2, 84780, Note_on_c, 0, 79, 0
2, 84780, Note_on_c, 0, 80, 111
2, 84780, Note_on_c, 0, 68, 111
2, 84960, Note_on_c, 0, 68, 0
2, 84960, Note_on_c, 0, 80, 0
2, 84960, Note_on_c, 0, 82, 111
2, 84960, Note_on_c, 0, 70, 111
2, 85500, Note_on_c, 0, 70, 0
2, 85500, Note_on_c, 0, 82, 0
2, 85500, Note_on_c, 0, 77, 91
2, 85500, Note_on_c, 0, 65, 89
2, 85995, Note_on_c, 0, 65, 0
2, 85995, Note_on_c, 0, 77, 0
2, 85995, Note_on_c, 0, 82, 111
2, 85995, Note_on_c, 0, 70, 111
2, 86040, Note_on_c, 0, 70, 0
2, 86040, Note_on_c, 0, 82, 0
2, 86040, Note_on_c, 0, 83, 111
2, 86040, Note_on_c, 0, 71, 111
2, 86580, Note_on_c, 0, 71, 0
2, 86580, Note_on_c, 0, 83, 0
2, 86580, Note_on_c, 0, 79, 93
2, 86580, Note_on_c, 0, 67, 94
2, 87075, Note_on_c, 0, 67, 0
2, 87075, Note_on_c, 0, 79, 0
2, 87075, Note_on_c, 0, 83, 111
2, 87075, Note_on_c, 0, 71, 111
2, 87120, Note_on_c, 0, 71, 0
2, 87120, Note_on_c, 0, 83, 0
2, 87120, Note_on_c, 0, 84, 112
2, 87120, Note_on_c, 0, 72, 112
2, 87660, Note_on_c, 0, 72, 0
2, 87660, Note_on_c, 0, 84, 0
2, 87660, Note_on_c, 0, 80, 91
2, 87660, Note_on_c, 0, 68, 95
2, 88155, Note_on_c, 0, 68, 0
2, 88155, Note_on_c, 0, 80, 0
2, 88155, Note_on_c, 0, 84, 111
2, 88155, Note_on_c, 0, 72, 111
2, 88200, Note_on_c, 0, 72, 0
2, 88200, Note_on_c, 0, 84, 0
2, 88200, Note_on_c, 0, 85, 111
2, 88200, Note_on_c, 0, 73, 111
2, 88560, Note_on_c, 0, 73, 0
2, 88560, Note_on_c, 0, 85, 0
2, 88560, Note_on_c, 0, 85, 110
2, 88560, Note_on_c, 0, 73, 109
2, 88702, Note_on_c, 0, 85, 109
2, 88702, Note_on_c, 0, 73, 105
2, 88722, Note_on_c, 0, 73, 0
2, 88722, Note_on_c, 0, 85, 0
2, 88722, Note_on_c, 0, 87, 111
2, 88722, Note_on_c, 0, 75, 111
2, 88740, Note_on_c, 0, 75, 0
2, 88740, Note_on_c, 0, 73, 0
2, 88740, Note_on_c, 0, 85, 0
2, 88740, Note_on_c, 0, 87, 0
2, 88740, Note_on_c, 0, 85, 100
2, 88740, Note_on_c, 0, 73, 99
2, 88920, Note_on_c, 0, 73, 0
2, 88920, Note_on_c, 0, 85, 0
2, 88920, Note_on_c, 0, 84, 105
2, 88920, Note_on_c, 0, 72, 97
2, 89100, Note_on_c, 0, 72, 0
2, 89100, Note_on_c, 0, 84, 0
2, 89100, Note_on_c, 0, 85, 111
2, 89100, Note_on_c, 0, 73, 111
2, 89280, Note_on_c, 0, 73, 0
2, 89280, Note_on_c, 0, 85, 0
2, 89280, Note_on_c, 0, 74, 111
2, 89325, Note_on_c, 0, 74, 0
2, 89325, Note_on_c, 0, 86, 111
2, 89370, Note_on_c, 0, 86, 0
2, 89370, Note_on_c, 0, 75, 82
2, 89415, Note_on_c, 0, 75, 0
2, 89415, Note_on_c, 0, 87, 111
2, 89460, Note_on_c, 0, 87, 0
2, 89460, Note_on_c, 0, 79, 86
2, 89505, Note_on_c, 0, 79, 0
2, 89505, Note_on_c, 0, 91, 111
2, 89550, Note_on_c, 0, 91, 0
2, 89550, Note_on_c, 0, 77, 76
2, 89595, Note_on_c, 0, 77, 0
2, 89595, Note_on_c, 0, 89, 111
2, 89640, Note_on_c, 0, 89, 0
2, 89640, Note_on_c, 0, 75, 79
2, 89685, Note_on_c, 0, 75, 0
2, 89685, Note_on_c, 0, 87, 111
2, 89730, Note_on_c, 0, 87, 0
2, 89730, Note_on_c, 0, 74, 74
2, 89775, Note_on_c, 0, 74, 0
2, 89775, Note_on_c, 0, 86, 111
2, 89820, Note_on_c, 0, 86, 0
2, 89820, Note_on_c, 0, 72, 82
2, 89865, Note_on_c, 0, 72, 0
2, 89865, Note_on_c, 0, 84, 111
2, 89910, Note_on_c, 0, 84, 0
2, 89910, Note_on_c, 0, 70, 76
2, 89955, Note_on_c, 0, 70, 0
2, 89955, Note_on_c, 0, 82, 111
2, 90000, Note_on_c, 0, 82, 0
2, 90000, Note_on_c, 0, 69, 74
2, 90045, Note_on_c, 0, 69, 0
2, 90045, Note_on_c, 0, 81, 111
2, 90090, Note_on_c, 0, 81, 0
2, 90090, Note_on_c, 0, 70, 82
2, 90135, Note_on_c, 0, 70, 0
2, 90135, Note_on_c, 0, 82, 111
2, 90180, Note_on_c, 0, 82, 0
2, 90180, Note_on_c, 0, 68, 79
2, 90225, Note_on_c, 0, 68, 0
2, 90225, Note_on_c, 0, 80, 111
2, 90270, Note_on_c, 0, 80, 0
2, 90270, Note_on_c, 0, 65, 84
2, 90315, Note_on_c, 0, 65, 0
2, 90315, Note_on_c, 0, 77, 111
2, 90360, Note_on_c, 0, 77, 0
2, 90360, Note_on_c, 0, 75, 38
2, 90449, Note_on_c, 0, 75, 0
2, 90450, Note_on_c, 0, 67, 56
2, 90494, Note_on_c, 0, 67, 0
2, 90540, Note_on_c, 0, 70, 42
2, 90540, Note_on_c, 0, 67, 56
2, 90584, Note_on_c, 0, 67, 0
2, 90584, Note_on_c, 0, 70, 0
2, 90630, Note_on_c, 0, 75, 62
2, 90630, Note_on_c, 0, 67, 55
2, 90674, Note_on_c, 0, 67, 0
2, 90674, Note_on_c, 0, 75, 0
2, 90720, Note_on_c, 0, 70, 52
2, 90720, Note_on_c, 0, 67, 59
2, 90764, Note_on_c, 0, 67, 0
2, 90809, Note_on_c, 0, 70, 0
2, 90810, Note_on_c, 0, 67, 51
2, 90854, Note_on_c, 0, 67, 0
2, 90990, Note_on_c, 0, 67, 51
2, 91034, Note_on_c, 0, 67, 0
2, 91080, Note_on_c, 0, 70, 47
2, 91080, Note_on_c, 0, 67, 53
2, 91124, Note_on_c, 0, 67, 0
2, 91124, Note_on_c, 0, 70, 0
2, 91170, Note_on_c, 0, 75, 65
2, 91170, Note_on_c, 0, 67, 53
2, 91214, Note_on_c, 0, 67, 0
2, 91214, Note_on_c, 0, 75, 0
2, 91260, Note_on_c, 0, 70, 49
2, 91260, Note_on_c, 0, 67, 54
2, 91304, Note_on_c, 0, 67, 0
2, 91349, Note_on_c, 0, 70, 0
2, 91350, Note_on_c, 0, 67, 55
2, 91394, Note_on_c, 0, 67, 0
2, 91530, Note_on_c, 0, 68, 45
2, 91574, Note_on_c, 0, 68, 0
2, 91620, Note_on_c, 0, 70, 48
2, 91620, Note_on_c, 0, 68, 56
2, 91664, Note_on_c, 0, 68, 0
2, 91664, Note_on_c, 0, 70, 0
2, 91710, Note_on_c, 0, 74, 63
2, 91710, Note_on_c, 0, 68, 55
2, 91754, Note_on_c, 0, 68, 0
2, 91754, Note_on_c, 0, 74, 0
2, 91800, Note_on_c, 0, 70, 50
2, 91800, Note_on_c, 0, 68, 54
2, 91844, Note_on_c, 0, 68, 0
2, 91889, Note_on_c, 0, 70, 0
2, 91890, Note_on_c, 0, 68, 55
2, 91934, Note_on_c, 0, 68, 0
2, 92070, Note_on_c, 0, 68, 48
2, 92070, Note_on_c, 0, 62, 50
2, 92114, Note_on_c, 0, 62, 0
2, 92160, Note_on_c, 0, 68, 0
2, 92160, Note_on_c, 0, 74, 68
2, 92160, Note_on_c, 0, 68, 64
2, 92204, Note_on_c, 0, 68, 0
2, 92204, Note_on_c, 0, 74, 0
2, 92250, Note_on_c, 0, 77, 60
2, 92250, Note_on_c, 0, 74, 75
2, 92294, Note_on_c, 0, 74, 0
2, 92294, Note_on_c, 0, 77, 0
2, 92340, Note_on_c, 0, 74, 49
2, 92340, Note_on_c, 0, 68, 50
2, 92384, Note_on_c, 0, 68, 0
2, 92384, Note_on_c, 0, 74, 0
2, 92430, Note_on_c, 0, 68, 46
2, 92430, Note_on_c, 0, 65, 46
2, 92474, Note_on_c, 0, 65, 0
2, 92474, Note_on_c, 0, 68, 0
2, 92610, Note_on_c, 0, 67, 45
2, 92654, Note_on_c, 0, 67, 0
2, 92700, Note_on_c, 0, 70, 52
2, 92700, Note_on_c, 0, 67, 55
2, 92744, Note_on_c, 0, 67, 0
2, 92744, Note_on_c, 0, 70, 0
2, 92790, Note_on_c, 0, 75, 65
2, 92790, Note_on_c, 0, 67, 54
2, 92834, Note_on_c, 0, 67, 0
2, 92834, Note_on_c, 0, 75, 0
2, 92880, Note_on_c, 0, 70, 45
2, 92880, Note_on_c, 0, 67, 61
2, 92924, Note_on_c, 0, 67, 0
2, 92969, Note_on_c, 0, 70, 0
2, 92970, Note_on_c, 0, 67, 58
2, 93014, Note_on_c, 0, 67, 0
2, 93150, Note_on_c, 0, 71, 46
2, 93194, Note_on_c, 0, 71, 0
2, 93240, Note_on_c, 0, 74, 50
2, 93240, Note_on_c, 0, 71, 55
2, 93284, Note_on_c, 0, 71, 0
2, 93284, Note_on_c, 0, 74, 0
2, 93330, Note_on_c, 0, 79, 61
2, 93330, Note_on_c, 0, 71, 55
2, 93374, Note_on_c, 0, 71, 0
2, 93374, Note_on_c, 0, 79, 0
2, 93420, Note_on_c, 0, 74, 51
2, 93420, Note_on_c, 0, 71, 51
2, 93464, Note_on_c, 0, 71, 0
2, 93509, Note_on_c, 0, 74, 0
2, 93510, Note_on_c, 0, 71, 55
2, 93554, Note_on_c, 0, 71, 0
2, 93690, Note_on_c, 0, 67, 49
2, 93734, Note_on_c, 0, 67, 0
2, 93780, Note_on_c, 0, 72, 51
2, 93780, Note_on_c, 0, 67, 56
2, 93824, Note_on_c, 0, 67, 0
2, 93824, Note_on_c, 0, 72, 0
2, 93870, Note_on_c, 0, 79, 67
2, 93870, Note_on_c, 0, 67, 55
2, 93914, Note_on_c, 0, 67, 0
2, 93914, Note_on_c, 0, 79, 0
2, 93960, Note_on_c, 0, 72, 43
2, 93960, Note_on_c, 0, 67, 53
2, 94004, Note_on_c, 0, 67, 0
2, 94049, Note_on_c, 0, 72, 0
2, 94050, Note_on_c, 0, 67, 52
2, 94094, Note_on_c, 0, 67, 0
2, 94230, Note_on_c, 0, 67, 50
2, 94274, Note_on_c, 0, 67, 0
2, 94320, Note_on_c, 0, 72, 49
2, 94320, Note_on_c, 0, 67, 56
2, 94364, Note_on_c, 0, 67, 0
2, 94364, Note_on_c, 0, 72, 0
2, 94410, Note_on_c, 0, 79, 68
2, 94410, Note_on_c, 0, 67, 55
2, 94454, Note_on_c, 0, 67, 0
2, 94454, Note_on_c, 0, 79, 0
2, 94500, Note_on_c, 0, 72, 43
2, 94500, Note_on_c, 0, 67, 56
2, 94544, Note_on_c, 0, 67, 0
2, 94589, Note_on_c, 0, 72, 0
2, 94590, Note_on_c, 0, 67, 54
2, 94634, Note_on_c, 0, 67, 0
2, 94770, Note_on_c, 0, 66, 49
2, 94814, Note_on_c, 0, 66, 0
2, 94860, Note_on_c, 0, 72, 47
2, 94860, Note_on_c, 0, 66, 57
2, 94904, Note_on_c, 0, 66, 0
2, 94904, Note_on_c, 0, 72, 0
2, 94950, Note_on_c, 0, 78, 65
2, 94950, Note_on_c, 0, 66, 55
2, 94994, Note_on_c, 0, 66, 0
2, 94994, Note_on_c, 0, 78, 0
2, 95040, Note_on_c, 0, 72, 46
2, 95040, Note_on_c, 0, 66, 55
2, 95084, Note_on_c, 0, 66, 0
2, 95129, Note_on_c, 0, 72, 0
2, 95130, Note_on_c, 0, 66, 57
2, 95174, Note_on_c, 0, 66, 0
2, 95310, Note_on_c, 0, 65, 50
2, 95354, Note_on_c, 0, 65, 0
2, 95400, Note_on_c, 0, 72, 48
2, 95400, Note_on_c, 0, 65, 54
2, 95444, Note_on_c, 0, 65, 0
2, 95444, Note_on_c, 0, 72, 0
2, 95490, Note_on_c, 0, 77, 66
2, 95490, Note_on_c, 0, 65, 54
2, 95534, Note_on_c, 0, 65, 0
2, 95534, Note_on_c, 0, 77, 0
2, 95580, Note_on_c, 0, 72, 49
2, 95580, Note_on_c, 0, 65, 56
2, 95624, Note_on_c, 0, 65, 0
2, 95669, Note_on_c, 0, 72, 0
2, 95670, Note_on_c, 0, 65, 55
2, 95714, Note_on_c, 0, 65, 0
2, 95850, Note_on_c, 0, 67, 47
2, 95850, Note_on_c, 0, 63, 50
2, 95894, Note_on_c, 0, 63, 0
2, 95894, Note_on_c, 0, 67, 0
2, 95940, Note_on_c, 0, 75, 67
2, 95940, Note_on_c, 0, 66, 61
2, 95984, Note_on_c, 0, 66, 0
2, 95984, Note_on_c, 0, 75, 0
2, 96030, Note_on_c, 0, 67, 47
2, 96030, Note_on_c, 0, 63, 47
2, 96074, Note_on_c, 0, 63, 0
2, 96074, Note_on_c, 0, 67, 0
2, 96210, Note_on_c, 0, 70, 52
2, 96210, Note_on_c, 0, 63, 52
2, 96254, Note_on_c, 0, 63, 0
2, 96254, Note_on_c, 0, 70, 0
2, 96300, Note_on_c, 0, 75, 64
2, 96300, Note_on_c, 0, 69, 67
2, 96344, Note_on_c, 0, 69, 0
2, 96344, Note_on_c, 0, 75, 0
2, 96390, Note_on_c, 0, 69, 46
2, 96390, Note_on_c, 0, 63, 45
2, 96434, Note_on_c, 0, 63, 0
2, 96434, Note_on_c, 0, 69, 0
2, 96570, Note_on_c, 0, 69, 46
2, 96570, Note_on_c, 0, 63, 48
2, 96614, Note_on_c, 0, 63, 0
2, 96614, Note_on_c, 0, 69, 0
2, 96660, Note_on_c, 0, 75, 68
2, 96660, Note_on_c, 0, 69, 65
2, 96704, Note_on_c, 0, 69, 0
2, 96704, Note_on_c, 0, 75, 0
2, 96750, Note_on_c, 0, 69, 46
2, 96750, Note_on_c, 0, 63, 48
2, 96794, Note_on_c, 0, 63, 0
2, 96794, Note_on_c, 0, 69, 0
2, 96930, Note_on_c, 0, 69, 50
2, 96930, Note_on_c, 0, 63, 45
2, 96974, Note_on_c, 0, 63, 0
2, 96974, Note_on_c, 0, 69, 0
2, 97020, Note_on_c, 0, 77, 67
2, 97020, Note_on_c, 0, 69, 66
2, 97064, Note_on_c, 0, 69, 0
2, 97064, Note_on_c, 0, 77, 0
2, 97110, Note_on_c, 0, 69, 46
2, 97110, Note_on_c, 0, 63, 43
2, 97154, Note_on_c, 0, 63, 0
2, 97154, Note_on_c, 0, 69, 0
2, 97290, Note_on_c, 0, 69, 47
2, 97290, Note_on_c, 0, 63, 48
2, 97334, Note_on_c, 0, 63, 0
2, 97334, Note_on_c, 0, 69, 0
2, 97380, Note_on_c, 0, 77, 67
2, 97380, Note_on_c, 0, 68, 64
2, 97424, Note_on_c, 0, 68, 0
2, 97424, Note_on_c, 0, 77, 0
2, 97470, Note_on_c, 0, 68, 42
2, 97470, Note_on_c, 0, 65, 52
2, 97514, Note_on_c, 0, 65, 0
2, 97514, Note_on_c, 0, 68, 0
2, 97650, Note_on_c, 0, 68, 50
2, 97650, Note_on_c, 0, 65, 47
2, 97694, Note_on_c, 0, 65, 0
2, 97694, Note_on_c, 0, 68, 0
2, 97740, Note_on_c, 0, 77, 70
2, 97740, Note_on_c, 0, 68, 58
2, 97784, Note_on_c, 0, 68, 0
2, 97784, Note_on_c, 0, 77, 0
2, 97830, Note_on_c, 0, 70, 41
2, 97830, Note_on_c, 0, 68, 60
2, 97874, Note_on_c, 0, 68, 0
2, 97874, Note_on_c, 0, 70, 0
2, 97920, Note_on_c, 0, 75, 68
2, 97920, Note_on_c, 0, 67, 51
2, 98009, Note_on_c, 0, 67, 0
2, 98009, Note_on_c, 0, 75, 0
2, 99000, Note_on_c, 0, 67, 53
2, 99158, Note_on_c, 0, 67, 0
2, 99180, Note_on_c, 0, 67, 54
2, 99338, Note_on_c, 0, 67, 0
2, 99360, Note_on_c, 0, 67, 52
2, 99518, Note_on_c, 0, 67, 0
2, 99540, Note_on_c, 0, 67, 47
2, 99720, Note_on_c, 0, 67, 0
2, 99720, Note_on_c, 0, 74, 70
2, 99956, Note_on_c, 0, 74, 0
2, 99990, Note_on_c, 0, 75, 45
2, 100080, Note_on_c, 0, 75, 0
2, 100080, Note_on_c, 0, 72, 36
2, 100260, Note_on_c, 0, 72, 0
2, 100440, Note_on_c, 0, 67, 48
2, 100466, Note_on_c, 0, 67, 0
2, 100466, Note_on_c, 0, 69, 61
2, 100491, Note_on_c, 0, 69, 0
2, 100491, Note_on_c, 0, 71, 59
2, 100516, Note_on_c, 0, 71, 0
2, 100516, Note_on_c, 0, 72, 59
2, 100543, Note_on_c, 0, 72, 0
2, 100543, Note_on_c, 0, 74, 60
2, 100568, Note_on_c, 0, 74, 0
2, 100568, Note_on_c, 0, 75, 56
2, 100593, Note_on_c, 0, 75, 0
2, 100593, Note_on_c, 0, 77, 65
2, 100620, Note_on_c, 0, 77, 0
2, 100620, Note_on_c, 0, 79, 58
2, 100800, Note_on_c, 0, 79, 0
2, 101160, Note_on_c, 0, 79, 53
2, 101160, Note_on_c, 0, 67, 48
2, 101318, Note_on_c, 0, 67, 0
2, 101318, Note_on_c, 0, 79, 0
2, 101340, Note_on_c, 0, 79, 53
2, 101340, Note_on_c, 0, 67, 57
2, 101498, Note_on_c, 0, 67, 0
2, 101498, Note_on_c, 0, 79, 0
2, 101520, Note_on_c, 0, 79, 58
2, 101520, Note_on_c, 0, 67, 58
2, 101678, Note_on_c, 0, 67, 0
2, 101678, Note_on_c, 0, 79, 0
2, 101700, Note_on_c, 0, 79, 44
2, 101700, Note_on_c, 0, 67, 44
2, 101880, Note_on_c, 0, 67, 0
2, 101880, Note_on_c, 0, 79, 0
2, 101880, Note_on_c, 0, 86, 68
2, 101880, Note_on_c, 0, 74, 69
2, 102116, Note_on_c, 0, 74, 0
2, 102116, Note_on_c, 0, 86, 0
2, 102150, Note_on_c, 0, 87, 51
2, 102150, Note_on_c, 0, 75, 47
2, 102240, Note_on_c, 0, 75, 0
2, 102240, Note_on_c, 0, 87, 0
2, 102240, Note_on_c, 0, 84, 43
2, 102240, Note_on_c, 0, 72, 45
2, 102420, Note_on_c, 0, 72, 0
2, 102420, Note_on_c, 0, 84, 0
2, 102600, Note_on_c, 0, 79, 48
2, 102626, Note_on_c, 0, 79, 0
2, 102626, Note_on_c, 0, 81, 58
2, 102651, Note_on_c, 0, 81, 0
2, 102651, Note_on_c, 0, 83, 58
2, 102676, Note_on_c, 0, 83, 0
2, 102676, Note_on_c, 0, 84, 61
2, 102703, Note_on_c, 0, 84, 0
2, 102703, Note_on_c, 0, 86, 63
2, 102728, Note_on_c, 0, 86, 0
2, 102728, Note_on_c, 0, 87, 60
2, 102753, Note_on_c, 0, 87, 0
2, 102753, Note_on_c, 0, 89, 60
2, 102780, Note_on_c, 0, 89, 0
2, 102780, Note_on_c, 0, 91, 65
2, 102960, Note_on_c, 0, 91, 0
2, 103320, Note_on_c, 0, 65, 53
2, 103478, Note_on_c, 0, 65, 0
2, 103500, Note_on_c, 0, 65, 55
2, 103658, Note_on_c, 0, 65, 0
2, 103680, Note_on_c, 0, 65, 59
2, 103838, Note_on_c, 0, 65, 0
2, 103860, Note_on_c, 0, 65, 39
2, 104040, Note_on_c, 0, 65, 0
2, 104040, Note_on_c, 0, 72, 66
2, 104276, Note_on_c, 0, 72, 0
2, 104310, Note_on_c, 0, 74, 49
2, 104400, Note_on_c, 0, 74, 0
2, 104400, Note_on_c, 0, 70, 41
2, 104580, Note_on_c, 0, 70, 0
2, 104760, Note_on_c, 0, 65, 53
2, 104786, Note_on_c, 0, 65, 0
2, 104786, Note_on_c, 0, 67, 57
2, 104811, Note_on_c, 0, 67, 0
2, 104811, Note_on_c, 0, 69, 60
2, 104836, Note_on_c, 0, 69, 0
2, 104836, Note_on_c, 0, 70, 63
2, 104863, Note_on_c, 0, 70, 0
2, 104863, Note_on_c, 0, 72, 61
2, 104888, Note_on_c, 0, 72, 0
2, 104888, Note_on_c, 0, 74, 63
2, 104913, Note_on_c, 0, 74, 0
2, 104913, Note_on_c, 0, 75, 60
2, 104940, Note_on_c, 0, 75, 0
2, 104940, Note_on_c, 0, 77, 61
2, 105120, Note_on_c, 0, 77, 0
2, 105480, Note_on_c, 0, 77, 52
2, 105480, Note_on_c, 0, 65, 55
2, 105638, Note_on_c, 0, 65, 0
2, 105638, Note_on_c, 0, 77, 0
2, 105660, Note_on_c, 0, 77, 56
2, 105660, Note_on_c, 0, 65, 53
2, 105818, Note_on_c, 0, 65, 0
2, 105818, Note_on_c, 0, 77, 0
2, 105840, Note_on_c, 0, 77, 54
2, 105840, Note_on_c, 0, 65, 59
2, 105998, Note_on_c, 0, 65, 0
2, 105998, Note_on_c, 0, 77, 0
2, 106020, Note_on_c, 0, 77, 49
2, 106020, Note_on_c, 0, 65, 48
2, 106200, Note_on_c, 0, 65, 0
2, 106200, Note_on_c, 0, 77, 0
2, 106200, Note_on_c, 0, 84, 69
2, 106200, Note_on_c, 0, 72, 66
2, 106436, Note_on_c, 0, 72, 0
2, 106436, Note_on_c, 0, 84, 0
2, 106470, Note_on_c, 0, 86, 50
2, 106470, Note_on_c, 0, 74, 49
2, 106560, Note_on_c, 0, 74, 0
2, 106560, Note_on_c, 0, 86, 0
2, 106560, Note_on_c, 0, 82, 37
2, 106560, Note_on_c, 0, 70, 38
2, 106740, Note_on_c, 0, 70, 0
2, 106740, Note_on_c, 0, 82, 0
2, 106920, Note_on_c, 0, 77, 48
2, 106946, Note_on_c, 0, 77, 0
2, 106946, Note_on_c, 0, 79, 59
2, 106971, Note_on_c, 0, 79, 0
2, 106971, Note_on_c, 0, 81, 64
2, 106996, Note_on_c, 0, 81, 0
2, 106996, Note_on_c, 0, 82, 61
2, 107023, Note_on_c, 0, 82, 0
2, 107023, Note_on_c, 0, 84, 65
2, 107048, Note_on_c, 0, 84, 0
2, 107048, Note_on_c, 0, 86, 65
2, 107073, Note_on_c, 0, 86, 0
2, 107073, Note_on_c, 0, 87, 60
2, 107100, Note_on_c, 0, 87, 0
2, 107100, Note_on_c, 0, 89, 63
2, 107280, Note_on_c, 0, 89, 0
2, 107640, Note_on_c, 0, 68, 82
2, 107820, Note_on_c, 0, 68, 0
2, 107820, Note_on_c, 0, 68, 95
2, 108000, Note_on_c, 0, 68, 0
2, 108000, Note_on_c, 0, 68, 108
2, 108180, Note_on_c, 0, 68, 0
2, 108180, Note_on_c, 0, 67, 108
2, 108630, Note_on_c, 0, 67, 0
2, 108630, Note_on_c, 0, 68, 89
2, 108675, Note_on_c, 0, 68, 0
2, 108675, Note_on_c, 0, 67, 77
2, 108720, Note_on_c, 0, 67, 0
2, 108720, Note_on_c, 0, 80, 82
2, 108720, Note_on_c, 0, 65, 72
2, 108878, Note_on_c, 0, 80, 0
2, 108900, Note_on_c, 0, 80, 95
2, 109058, Note_on_c, 0, 80, 0
2, 109080, Note_on_c, 0, 80, 108
2, 109238, Note_on_c, 0, 80, 0
2, 109260, Note_on_c, 0, 65, 0
2, 109260, Note_on_c, 0, 79, 108
2, 109710, Note_on_c, 0, 79, 0
2, 109710, Note_on_c, 0, 80, 82
2, 109755, Note_on_c, 0, 80, 0
2, 109755, Note_on_c, 0, 79, 77
2, 109800, Note_on_c, 0, 79, 0
2, 109800, Note_on_c, 0, 77, 75
2, 109800, Note_on_c, 0, 68, 82
2, 109980, Note_on_c, 0, 68, 0
2, 109980, Note_on_c, 0, 68, 92
2, 110160, Note_on_c, 0, 68, 0
2, 110160, Note_on_c, 0, 68, 103
2, 110340, Note_on_c, 0, 68, 0
2, 110340, Note_on_c, 0, 77, 0
2, 110340, Note_on_c, 0, 67, 108
2, 110790, Note_on_c, 0, 67, 0
2, 110790, Note_on_c, 0, 68, 85
2, 110835, Note_on_c, 0, 68, 0
2, 110835, Note_on_c, 0, 67, 82
2, 110880, Note_on_c, 0, 67, 0
2, 110880, Note_on_c, 0, 80, 82
2, 110880, Note_on_c, 0, 65, 78
2, 111038, Note_on_c, 0, 80, 0
2, 111060, Note_on_c, 0, 80, 95
2, 111218, Note_on_c, 0, 80, 0
2, 111240, Note_on_c, 0, 80, 108
2, 111398, Note_on_c, 0, 80, 0
2, 111420, Note_on_c, 0, 65, 0
2, 111420, Note_on_c, 0, 79, 112
2, 111870, Note_on_c, 0, 79, 0
2, 111870, Note_on_c, 0, 80, 82
2, 111915, Note_on_c, 0, 80, 0
2, 111915, Note_on_c, 0, 79, 79
2, 111960, Note_on_c, 0, 79, 0
2, 111960, Note_on_c, 0, 77, 77
2, 111960, Note_on_c, 0, 68, 84
2, 112118, Note_on_c, 0, 68, 0
2, 112140, Note_on_c, 0, 68, 92
2, 112298, Note_on_c, 0, 68, 0
2, 112320, Note_on_c, 0, 77, 0
2, 112320, Note_on_c, 0, 67, 105
2, 112455, Note_on_c, 0, 67, 0
2, 112455, Note_on_c, 0, 68, 83
2, 112478, Note_on_c, 0, 68, 0
2, 112478, Note_on_c, 0, 67, 79
2, 112500, Note_on_c, 0, 67, 0
2, 112500, Note_on_c, 0, 80, 86
2, 112500, Note_on_c, 0, 65, 75
2, 112658, Note_on_c, 0, 80, 0
2, 112680, Note_on_c, 0, 80, 94
2, 112838, Note_on_c, 0, 80, 0
2, 112860, Note_on_c, 0, 65, 0
2, 112860, Note_on_c, 0, 79, 103
2, 112995, Note_on_c, 0, 79, 0
2, 112995, Note_on_c, 0, 80, 84
2, 113018, Note_on_c, 0, 80, 0
2, 113018, Note_on_c, 0, 79, 78
2, 113040, Note_on_c, 0, 79, 0
2, 113040, Note_on_c, 0, 77, 75
2, 113040, Note_on_c, 0, 68, 90
2, 113198, Note_on_c, 0, 68, 0
2, 113220, Note_on_c, 0, 68, 91
2, 113378, Note_on_c, 0, 68, 0
2, 113400, Note_on_c, 0, 77, 0
2, 113400, Note_on_c, 0, 67, 105
2, 113535, Note_on_c, 0, 67, 0
2, 113535, Note_on_c, 0, 68, 83
2, 113558, Note_on_c, 0, 68, 0
2, 113558, Note_on_c, 0, 67, 78
2, 113580, Note_on_c, 0, 67, 0
2, 113580, Note_on_c, 0, 80, 87
2, 113580, Note_on_c, 0, 65, 77
2, 113738, Note_on_c, 0, 80, 0
2, 113760, Note_on_c, 0, 80, 94
2, 113918, Note_on_c, 0, 80, 0
2, 113940, Note_on_c, 0, 65, 0
2, 113940, Note_on_c, 0, 79, 107
2, 114075, Note_on_c, 0, 79, 0
2, 114075, Note_on_c, 0, 80, 88
2, 114098, Note_on_c, 0, 80, 0
2, 114098, Note_on_c, 0, 79, 81
2, 114120, Note_on_c, 0, 79, 0
2, 114120, Note_on_c, 0, 77, 76
2, 114165, Note_on_c, 0, 77, 0
2, 114165, Note_on_c, 0, 65, 56
2, 114210, Note_on_c, 0, 65, 0
2, 114210, Note_on_c, 0, 77, 104
2, 114255, Note_on_c, 0, 77, 0
2, 114255, Note_on_c, 0, 65, 56
2, 114300, Note_on_c, 0, 65, 0
2, 114300, Note_on_c, 0, 76, 103
2, 114345, Note_on_c, 0, 76, 0
2, 114345, Note_on_c, 0, 64, 58
2, 114390, Note_on_c, 0, 64, 0
2, 114390, Note_on_c, 0, 76, 108
2, 114435, Note_on_c, 0, 76, 0
2, 114435, Note_on_c, 0, 64, 56
2, 114480, Note_on_c, 0, 64, 0
2, 114480, Note_on_c, 0, 77, 105
2, 114525, Note_on_c, 0, 77, 0
2, 114525, Note_on_c, 0, 65, 57
2, 114570, Note_on_c, 0, 65, 0
2, 114570, Note_on_c, 0, 77, 99
2, 114615, Note_on_c, 0, 77, 0
2, 114615, Note_on_c, 0, 65, 54
2, 114660, Note_on_c, 0, 65, 0
2, 114660, Note_on_c, 0, 78, 105
2, 114705, Note_on_c, 0, 78, 0
2, 114705, Note_on_c, 0, 66, 53
2, 114750, Note_on_c, 0, 66, 0
2, 114750, Note_on_c, 0, 78, 98
2, 114795, Note_on_c, 0, 78, 0
2, 114795, Note_on_c, 0, 66, 55
2, 114840, Note_on_c, 0, 66, 0
2, 114840, Note_on_c, 0, 79, 107
2, 114885, Note_on_c, 0, 79, 0
2, 114885, Note_on_c, 0, 67, 56
2, 114930, Note_on_c, 0, 67, 0
2, 114930, Note_on_c, 0, 79, 101
2, 114975, Note_on_c, 0, 79, 0
2, 114975, Note_on_c, 0, 67, 55
2, 115020, Note_on_c, 0, 67, 0
2, 115020, Note_on_c, 0, 80, 103
2, 115065, Note_on_c, 0, 80, 0
2, 115065, Note_on_c, 0, 68, 58
2, 115110, Note_on_c, 0, 68, 0
2, 115110, Note_on_c, 0, 80, 108
2, 115155, Note_on_c, 0, 80, 0
2, 115155, Note_on_c, 0, 68, 58
2, 115200, Note_on_c, 0, 68, 0
2, 115200, Note_on_c, 0, 81, 108
2, 115245, Note_on_c, 0, 81, 0
2, 115245, Note_on_c, 0, 69, 59
2, 115290, Note_on_c, 0, 69, 0
2, 115290, Note_on_c, 0, 81, 107
2, 115335, Note_on_c, 0, 81, 0
2, 115335, Note_on_c, 0, 69, 60
2, 115380, Note_on_c, 0, 69, 0
2, 115380, Note_on_c, 0, 82, 107
2, 115425, Note_on_c, 0, 82, 0
2, 115425, Note_on_c, 0, 70, 60
2, 115470, Note_on_c, 0, 70, 0
2, 115470, Note_on_c, 0, 82, 104
2, 115515, Note_on_c, 0, 82, 0
2, 115515, Note_on_c, 0, 70, 62
2, 115560, Note_on_c, 0, 70, 0
2, 115560, Note_on_c, 0, 83, 103
2, 115605, Note_on_c, 0, 83, 0
2, 115605, Note_on_c, 0, 71, 54
2, 115650, Note_on_c, 0, 71, 0
2, 115650, Note_on_c, 0, 83, 102
2, 115695, Note_on_c, 0, 83, 0
2, 115695, Note_on_c, 0, 71, 57
2, 115740, Note_on_c, 0, 71, 0
2, 115740, Note_on_c, 0, 84, 103
2, 115785, Note_on_c, 0, 84, 0
2, 115785, Note_on_c, 0, 72, 62
2, 115830, Note_on_c, 0, 72, 0
2, 115830, Note_on_c, 0, 84, 105
2, 115875, Note_on_c, 0, 84, 0
2, 115875, Note_on_c, 0, 72, 57
2, 115920, Note_on_c, 0, 72, 0
2, 115920, Note_on_c, 0, 85, 107
2, 115965, Note_on_c, 0, 85, 0
2, 115965, Note_on_c, 0, 73, 56
2, 116010, Note_on_c, 0, 73, 0
2, 116010, Note_on_c, 0, 85, 105
2, 116055, Note_on_c, 0, 85, 0
2, 116055, Note_on_c, 0, 73, 57
2, 116100, Note_on_c, 0, 73, 0
2, 116100, Note_on_c, 0, 86, 108
2, 116145, Note_on_c, 0, 86, 0
2, 116145, Note_on_c, 0, 74, 55
2, 116190, Note_on_c, 0, 74, 0
2, 116190, Note_on_c, 0, 86, 98
2, 116235, Note_on_c, 0, 86, 0
2, 116235, Note_on_c, 0, 74, 55
2, 116280, Note_on_c, 0, 74, 0
2, 116280, Note_on_c, 0, 79, 111
2, 116280, Note_on_c, 0, 82, 111
2, 116280, Note_on_c, 0, 87, 111
2, 116280, Note_on_c, 0, 75, 98
2, 117180, Note_on_c, 0, 75, 0
2, 117180, Note_on_c, 0, 79, 0
2, 117180, Note_on_c, 0, 82, 0
2, 117180, Note_on_c, 0, 87, 0
2, 117180, Note_on_c, 0, 86, 108
2, 117180, Note_on_c, 0, 74, 103
2, 117360, Note_on_c, 0, 74, 0
2, 117360, Note_on_c, 0, 86, 0
2, 117360, Note_on_c, 0, 79, 111
2, 117360, Note_on_c, 0, 82, 111
2, 117360, Note_on_c, 0, 87, 111
2, 117360, Note_on_c, 0, 75, 111
2, 117540, Note_on_c, 0, 75, 0
2, 117540, Note_on_c, 0, 79, 0
2, 117540, Note_on_c, 0, 82, 0
2, 117540, Note_on_c, 0, 87, 0
2, 117540, Note_on_c, 0, 86, 104
2, 117540, Note_on_c, 0, 74, 109
2, 117720, Note_on_c, 0, 74, 0
2, 117720, Note_on_c, 0, 86, 0
2, 117720, Note_on_c, 0, 84, 108
2, 117720, Note_on_c, 0, 72, 102
2, 117900, Note_on_c, 0, 72, 0
2, 117900, Note_on_c, 0, 84, 0
2, 117900, Note_on_c, 0, 82, 103
2, 117900, Note_on_c, 0, 70, 101
2, 118080, Note_on_c, 0, 70, 0
2, 118080, Note_on_c, 0, 82, 0
2, 118080, Note_on_c, 0, 80, 110
2, 118080, Note_on_c, 0, 68, 104
2, 118260, Note_on_c, 0, 68, 0
2, 118260, Note_on_c, 0, 80, 0
2, 118260, Note_on_c, 0, 79, 101
2, 118260, Note_on_c, 0, 67, 105
2, 118440, Note_on_c, 0, 67, 0
2, 118440, Note_on_c, 0, 79, 0
2, 118440, Note_on_c, 0, 84, 112
2, 118440, Note_on_c, 0, 72, 112
2, 118620, Note_on_c, 0, 72, 0
2, 118620, Note_on_c, 0, 84, 0
2, 118620, Note_on_c, 0, 63, 88
2, 118665, Note_on_c, 0, 63, 0
2, 118665, Note_on_c, 0, 65, 111
2, 118710, Note_on_c, 0, 65, 0
2, 118710, Note_on_c, 0, 66, 111
2, 118755, Note_on_c, 0, 66, 0
2, 118755, Note_on_c, 0, 68, 111
2, 118800, Note_on_c, 0, 68, 0
2, 118800, Note_on_c, 0, 69, 97
2, 118845, Note_on_c, 0, 69, 0
2, 118845, Note_on_c, 0, 71, 111
2, 118890, Note_on_c, 0, 71, 0
2, 118890, Note_on_c, 0, 72, 111
2, 118935, Note_on_c, 0, 72, 0
2, 118935, Note_on_c, 0, 74, 111
2, 118980, Note_on_c, 0, 74, 0
2, 118980, Note_on_c, 0, 75, 111
2, 119025, Note_on_c, 0, 75, 0
2, 119025, Note_on_c, 0, 74, 105
2, 119070, Note_on_c, 0, 74, 0
2, 119070, Note_on_c, 0, 72, 100
2, 119115, Note_on_c, 0, 72, 0
2, 119115, Note_on_c, 0, 71, 106
2, 119160, Note_on_c, 0, 71, 0
2, 119160, Note_on_c, 0, 69, 93
2, 119205, Note_on_c, 0, 69, 0
2, 119205, Note_on_c, 0, 71, 111
2, 119250, Note_on_c, 0, 71, 0
2, 119250, Note_on_c, 0, 72, 111
2, 119295, Note_on_c, 0, 72, 0
2, 119295, Note_on_c, 0, 74, 111
2, 119340, Note_on_c, 0, 74, 0
2, 119340, Note_on_c, 0, 75, 99
2, 119385, Note_on_c, 0, 75, 0
2, 119385, Note_on_c, 0, 77, 111
2, 119430, Note_on_c, 0, 77, 0
2, 119430, Note_on_c, 0, 78, 111
2, 119475, Note_on_c, 0, 78, 0
2, 119475, Note_on_c, 0, 80, 111
2, 119520, Note_on_c, 0, 80, 0
2, 119520, Note_on_c, 0, 81, 111
2, 119565, Note_on_c, 0, 81, 0
2, 119565, Note_on_c, 0, 69, 76
2, 119610, Note_on_c, 0, 69, 0
2, 119610, Note_on_c, 0, 81, 111
2, 119655, Note_on_c, 0, 81, 0
2, 119655, Note_on_c, 0, 69, 84
2, 119700, Note_on_c, 0, 69, 0
2, 119700, Note_on_c, 0, 82, 111
2, 119745, Note_on_c, 0, 82, 0
2, 119745, Note_on_c, 0, 70, 80
2, 119790, Note_on_c, 0, 70, 0
2, 119790, Note_on_c, 0, 82, 111
2, 119835, Note_on_c, 0, 82, 0
2, 119835, Note_on_c, 0, 70, 81
2, 119880, Note_on_c, 0, 70, 0
2, 119880, Note_on_c, 0, 83, 111
2, 119925, Note_on_c, 0, 83, 0
2, 119925, Note_on_c, 0, 71, 82
2, 119970, Note_on_c, 0, 71, 0
2, 119970, Note_on_c, 0, 83, 111
2, 120015, Note_on_c, 0, 83, 0
2, 120015, Note_on_c, 0, 71, 80
2, 120060, Note_on_c, 0, 71, 0
2, 120060, Note_on_c, 0, 84, 111
2, 120105, Note_on_c, 0, 84, 0
2, 120105, Note_on_c, 0, 72, 82
2, 120150, Note_on_c, 0, 72, 0
2, 120150, Note_on_c, 0, 84, 111
2, 120195, Note_on_c, 0, 84, 0
2, 120195, Note_on_c, 0, 72, 81
2, 120240, Note_on_c, 0, 72, 0
2, 120240, Note_on_c, 0, 85, 111
2, 120285, Note_on_c, 0, 85, 0
2, 120285, Note_on_c, 0, 73, 80
2, 120330, Note_on_c, 0, 73, 0
2, 120330, Note_on_c, 0, 85, 111
2, 120375, Note_on_c, 0, 85, 0
2, 120375, Note_on_c, 0, 73, 79
2, 120420, Note_on_c, 0, 73, 0
2, 120420, Note_on_c, 0, 86, 111
2, 120465, Note_on_c, 0, 86, 0
2, 120465, Note_on_c, 0, 74, 79
2, 120510, Note_on_c, 0, 74, 0
2, 120510, Note_on_c, 0, 86, 111
2, 120555, Note_on_c, 0, 86, 0
2, 120555, Note_on_c, 0, 74, 84
2, 120600, Note_on_c, 0, 74, 0
2, 120600, Note_on_c, 0, 79, 111
2, 120600, Note_on_c, 0, 82, 111
2, 120600, Note_on_c, 0, 87, 111
2, 120600, Note_on_c, 0, 75, 98
2, 121500, Note_on_c, 0, 75, 0
2, 121500, Note_on_c, 0, 79, 0
2, 121500, Note_on_c, 0, 82, 0
2, 121500, Note_on_c, 0, 87, 0
2, 121500, Note_on_c, 0, 86, 103
2, 121500, Note_on_c, 0, 74, 102
2, 121680, Note_on_c, 0, 74, 0
2, 121680, Note_on_c, 0, 86, 0
2, 121680, Note_on_c, 0, 79, 111
2, 121680, Note_on_c, 0, 82, 111
2, 121680, Note_on_c, 0, 87, 111
2, 121680, Note_on_c, 0, 75, 111
2, 121860, Note_on_c, 0, 75, 0
2, 121860, Note_on_c, 0, 79, 0
2, 121860, Note_on_c, 0, 82, 0
2, 121860, Note_on_c, 0, 87, 0
2, 121860, Note_on_c, 0, 86, 108
2, 121860, Note_on_c, 0, 74, 107
2, 122040, Note_on_c, 0, 74, 0
2, 122040, Note_on_c, 0, 86, 0
2, 122040, Note_on_c, 0, 84, 101
2, 122040, Note_on_c, 0, 72, 103
2, 122220, Note_on_c, 0, 72, 0
2, 122220, Note_on_c, 0, 84, 0
2, 122220, Note_on_c, 0, 82, 104
2, 122220, Note_on_c, 0, 70, 105
2, 122400, Note_on_c, 0, 70, 0
2, 122400, Note_on_c, 0, 82, 0
2, 122400, Note_on_c, 0, 80, 100
2, 122400, Note_on_c, 0, 68, 99
2, 122580, Note_on_c, 0, 68, 0
2, 122580, Note_on_c, 0, 80, 0
2, 122580, Note_on_c, 0, 79, 106
2, 122580, Note_on_c, 0, 67, 105
2, 122760, Note_on_c, 0, 67, 0
2, 122760, Note_on_c, 0, 79, 0
2, 122760, Note_on_c, 0, 84, 112
2, 122760, Note_on_c, 0, 72, 112
2, 122940, Note_on_c, 0, 72, 0
2, 122940, Note_on_c, 0, 84, 0
2, 122940, Note_on_c, 0, 63, 88
2, 122985, Note_on_c, 0, 63, 0
2, 122985, Note_on_c, 0, 65, 111
2, 123030, Note_on_c, 0, 65, 0
2, 123030, Note_on_c, 0, 66, 111
2, 123075, Note_on_c, 0, 66, 0
2, 123075, Note_on_c, 0, 68, 111
2, 123120, Note_on_c, 0, 68, 0
2, 123120, Note_on_c, 0, 69, 101
2, 123165, Note_on_c, 0, 69, 0
2, 123165, Note_on_c, 0, 71, 111
2, 123210, Note_on_c, 0, 71, 0
2, 123210, Note_on_c, 0, 72, 111
2, 123255, Note_on_c, 0, 72, 0
2, 123255, Note_on_c, 0, 74, 111
2, 123300, Note_on_c, 0, 74, 0
2, 123300, Note_on_c, 0, 75, 111
2, 123345, Note_on_c, 0, 75, 0
2, 123345, Note_on_c, 0, 74, 107
2, 123390, Note_on_c, 0, 74, 0
2, 123390, Note_on_c, 0, 72, 102
2, 123435, Note_on_c, 0, 72, 0
2, 123435, Note_on_c, 0, 71, 109
2, 123480, Note_on_c, 0, 71, 0
2, 123480, Note_on_c, 0, 69, 103
2, 123525, Note_on_c, 0, 69, 0
2, 123525, Note_on_c, 0, 71, 111
2, 123570, Note_on_c, 0, 71, 0
2, 123570, Note_on_c, 0, 72, 111
2, 123615, Note_on_c, 0, 72, 0
2, 123615, Note_on_c, 0, 74, 111
2, 123660, Note_on_c, 0, 74, 0
2, 123660, Note_on_c, 0, 75, 101
2, 123705, Note_on_c, 0, 75, 0
2, 123705, Note_on_c, 0, 77, 111
2, 123750, Note_on_c, 0, 77, 0
2, 123750, Note_on_c, 0, 78, 111
2, 123795, Note_on_c, 0, 78, 0
2, 123795, Note_on_c, 0, 80, 111
2, 123840, Note_on_c, 0, 80, 0
2, 123840, Note_on_c, 0, 81, 111
2, 123885, Note_on_c, 0, 81, 0
2, 123885, Note_on_c, 0, 69, 80
2, 123930, Note_on_c, 0, 69, 0
2, 123930, Note_on_c, 0, 81, 111
2, 123975, Note_on_c, 0, 81, 0
2, 123975, Note_on_c, 0, 69, 81
2, 124020, Note_on_c, 0, 69, 0
2, 124020, Note_on_c, 0, 82, 111
2, 124065, Note_on_c, 0, 82, 0
2, 124065, Note_on_c, 0, 70, 82
2, 124110, Note_on_c, 0, 70, 0
2, 124110, Note_on_c, 0, 82, 111
2, 124155, Note_on_c, 0, 82, 0
2, 124155, Note_on_c, 0, 70, 82
2, 124200, Note_on_c, 0, 70, 0
2, 124200, Note_on_c, 0, 83, 111
2, 124245, Note_on_c, 0, 83, 0
2, 124245, Note_on_c, 0, 71, 79
2, 124290, Note_on_c, 0, 71, 0
2, 124290, Note_on_c, 0, 83, 111
2, 124335, Note_on_c, 0, 83, 0
2, 124335, Note_on_c, 0, 71, 83
2, 124380, Note_on_c, 0, 71, 0
2, 124380, Note_on_c, 0, 84, 111
2, 124425, Note_on_c, 0, 84, 0
2, 124425, Note_on_c, 0, 72, 82
2, 124470, Note_on_c, 0, 72, 0
2, 124470, Note_on_c, 0, 84, 111
2, 124515, Note_on_c, 0, 84, 0
2, 124515, Note_on_c, 0, 72, 81
2, 124560, Note_on_c, 0, 72, 0
2, 124560, Note_on_c, 0, 85, 111
2, 124605, Note_on_c, 0, 85, 0
2, 124605, Note_on_c, 0, 73, 80
2, 124650, Note_on_c, 0, 73, 0
2, 124650, Note_on_c, 0, 85, 111
2, 124695, Note_on_c, 0, 85, 0
2, 124695, Note_on_c, 0, 73, 78
2, 124740, Note_on_c, 0, 73, 0
2, 124740, Note_on_c, 0, 86, 111
2, 124785, Note_on_c, 0, 86, 0
2, 124785, Note_on_c, 0, 74, 81
2, 124830, Note_on_c, 0, 74, 0
2, 124830, Note_on_c, 0, 86, 111
2, 124875, Note_on_c, 0, 86, 0
2, 124875, Note_on_c, 0, 74, 83
2, 124920, Note_on_c, 0, 74, 0
2, 124920, Note_on_c, 0, 75, 111
2, 124920, Note_on_c, 0, 79, 111
2, 124920, Note_on_c, 0, 82, 111
2, 124920, Note_on_c, 0, 87, 111
2, 124920, Note_on_c, 0, 63, 97
2, 124920, Note_on_c, 0, 67, 97
2, 124920, Note_on_c, 0, 70, 97
2, 125820, Note_on_c, 0, 70, 0
2, 125820, Note_on_c, 0, 63, 0
2, 125820, Note_on_c, 0, 79, 0
2, 125820, Note_on_c, 0, 82, 0
2, 125820, Note_on_c, 0, 75, 0
2, 125820, Note_on_c, 0, 67, 0
2, 125820, Note_on_c, 0, 87, 0
2, 125820, Note_on_c, 0, 74, 110
2, 125820, Note_on_c, 0, 86, 110
2, 125820, Note_on_c, 0, 62, 85
2, 126000, Note_on_c, 0, 62, 0
2, 126000, Note_on_c, 0, 86, 0
2, 126000, Note_on_c, 0, 74, 0
2, 126000, Note_on_c, 0, 75, 111
2, 126000, Note_on_c, 0, 80, 111
2, 126000, Note_on_c, 0, 82, 111
2, 126000, Note_on_c, 0, 87, 111
2, 126000, Note_on_c, 0, 63, 111
2, 126000, Note_on_c, 0, 68, 111
2, 126000, Note_on_c, 0, 70, 111
2, 126180, Note_on_c, 0, 70, 0
2, 126180, Note_on_c, 0, 63, 0
2, 126180, Note_on_c, 0, 80, 0
2, 126180, Note_on_c, 0, 82, 0
2, 126180, Note_on_c, 0, 75, 0
2, 126180, Note_on_c, 0, 68, 0
2, 126180, Note_on_c, 0, 87, 0
2, 126180, Note_on_c, 0, 74, 104
2, 126180, Note_on_c, 0, 86, 104
2, 126180, Note_on_c, 0, 62, 89
2, 126360, Note_on_c, 0, 62, 0
2, 126360, Note_on_c, 0, 86, 0
2, 126360, Note_on_c, 0, 74, 0
2, 126360, Note_on_c, 0, 72, 106
2, 126360, Note_on_c, 0, 84, 106
2, 126360, Note_on_c, 0, 60, 99
2, 126540, Note_on_c, 0, 60, 0
2, 126540, Note_on_c, 0, 84, 0
2, 126540, Note_on_c, 0, 72, 0
2, 126540, Note_on_c, 0, 70, 101
2, 126540, Note_on_c, 0, 82, 101
2, 126540, Note_on_c, 0, 58, 104
2, 126720, Note_on_c, 0, 58, 0
2, 126720, Note_on_c, 0, 82, 0
2, 126720, Note_on_c, 0, 70, 0
2, 126720, Note_on_c, 0, 72, 111
2, 126720, Note_on_c, 0, 84, 111
2, 126720, Note_on_c, 0, 60, 111
2, 126900, Note_on_c, 0, 60, 0
2, 126900, Note_on_c, 0, 84, 0
2, 126900, Note_on_c, 0, 72, 0
2, 126900, Note_on_c, 0, 74, 111
2, 126900, Note_on_c, 0, 86, 111
2, 126900, Note_on_c, 0, 62, 111
2, 127080, Note_on_c, 0, 62, 0
2, 127080, Note_on_c, 0, 86, 0
2, 127080, Note_on_c, 0, 74, 0
2, 127080, Note_on_c, 0, 75, 111
2, 127080, Note_on_c, 0, 78, 111
2, 127080, Note_on_c, 0, 83, 111
2, 127080, Note_on_c, 0, 87, 111
2, 127080, Note_on_c, 0, 63, 111
2, 127080, Note_on_c, 0, 66, 111
2, 127080, Note_on_c, 0, 71, 111
2, 127980, Note_on_c, 0, 71, 0
2, 127980, Note_on_c, 0, 63, 0
2, 127980, Note_on_c, 0, 78, 0
2, 127980, Note_on_c, 0, 83, 0
2, 127980, Note_on_c, 0, 75, 0
2, 127980, Note_on_c, 0, 66, 0
2, 127980, Note_on_c, 0, 87, 0
2, 127980, Note_on_c, 0, 74, 105
2, 127980, Note_on_c, 0, 86, 105
2, 127980, Note_on_c, 0, 62, 79
2, 128160, Note_on_c, 0, 62, 0
2, 128160, Note_on_c, 0, 86, 0
2, 128160, Note_on_c, 0, 74, 0
2, 128160, Note_on_c, 0, 75, 111
2, 128160, Note_on_c, 0, 82, 111
2, 128160, Note_on_c, 0, 87, 111
2, 128160, Note_on_c, 0, 63, 111
2, 128160, Note_on_c, 0, 70, 111
2, 128340, Note_on_c, 0, 70, 0
2, 128340, Note_on_c, 0, 87, 0
2, 128340, Note_on_c, 0, 75, 0
2, 128340, Note_on_c, 0, 82, 0
2, 128340, Note_on_c, 0, 63, 0
2, 128340, Note_on_c, 0, 73, 103
2, 128340, Note_on_c, 0, 85, 103
2, 128340, Note_on_c, 0, 61, 89
2, 128520, Note_on_c, 0, 61, 0
2, 128520, Note_on_c, 0, 85, 0
2, 128520, Note_on_c, 0, 73, 0
2, 128520, Note_on_c, 0, 71, 99
2, 128520, Note_on_c, 0, 83, 99
2, 128520, Note_on_c, 0, 59, 107
2, 128700, Note_on_c, 0, 59, 0
2, 128700, Note_on_c, 0, 83, 0
2, 128700, Note_on_c, 0, 71, 0
2, 128700, Note_on_c, 0, 70, 102
2, 128700, Note_on_c, 0, 82, 102
2, 128880, Note_on_c, 0, 82, 0
2, 128880, Note_on_c, 0, 70, 0
2, 128880, Note_on_c, 0, 71, 111
2, 128880, Note_on_c, 0, 83, 111
2, 128880, Note_on_c, 0, 59, 100
2, 129060, Note_on_c, 0, 59, 0
2, 129060, Note_on_c, 0, 83, 0
2, 129060, Note_on_c, 0, 71, 0
2, 129060, Note_on_c, 0, 73, 111
2, 129060, Note_on_c, 0, 85, 111
2, 129060, Note_on_c, 0, 61, 111
2, 129240, Note_on_c, 0, 61, 0
2, 129240, Note_on_c, 0, 85, 0
2, 129240, Note_on_c, 0, 73, 0
2, 129240, Note_on_c, 0, 75, 111
2, 129240, Note_on_c, 0, 80, 111
2, 129240, Note_on_c, 0, 83, 111
2, 129240, Note_on_c, 0, 87, 111
2, 129240, Note_on_c, 0, 63, 111
2, 129240, Note_on_c, 0, 68, 111
2, 129240, Note_on_c, 0, 71, 111
2, 129960, Note_on_c, 0, 71, 0
2, 129960, Note_on_c, 0, 63, 0
2, 129960, Note_on_c, 0, 80, 0
2, 129960, Note_on_c, 0, 83, 0
2, 129960, Note_on_c, 0, 75, 0
2, 129960, Note_on_c, 0, 68, 0
2, 129960, Note_on_c, 0, 87, 0
2, 129960, Note_on_c, 0, 74, 108
2, 129960, Note_on_c, 0, 86, 108
2, 129960, Note_on_c, 0, 62, 83
2, 130140, Note_on_c, 0, 62, 0
2, 130140, Note_on_c, 0, 86, 0
2, 130140, Note_on_c, 0, 74, 0
2, 130140, Note_on_c, 0, 75, 111
2, 130140, Note_on_c, 0, 87, 111
2, 130140, Note_on_c, 0, 63, 110
2, 130320, Note_on_c, 0, 63, 0
2, 130320, Note_on_c, 0, 87, 0
2, 130320, Note_on_c, 0, 75, 0
2, 130320, Note_on_c, 0, 75, 111
2, 130320, Note_on_c, 0, 80, 111
2, 130320, Note_on_c, 0, 83, 111
2, 130320, Note_on_c, 0, 87, 111
2, 130320, Note_on_c, 0, 63, 111
2, 130320, Note_on_c, 0, 68, 111
2, 130320, Note_on_c, 0, 71, 111
2, 131040, Note_on_c, 0, 71, 0
2, 131040, Note_on_c, 0, 63, 0
2, 131040, Note_on_c, 0, 80, 0
2, 131040, Note_on_c, 0, 83, 0
2, 131040, Note_on_c, 0, 75, 0
2, 131040, Note_on_c, 0, 68, 0
2, 131040, Note_on_c, 0, 87, 0
2, 131040, Note_on_c, 0, 74, 106
2, 131040, Note_on_c, 0, 86, 106
2, 131040, Note_on_c, 0, 62, 86
2, 131220, Note_on_c, 0, 62, 0
2, 131220, Note_on_c, 0, 86, 0
2, 131220, Note_on_c, 0, 74, 0
2, 131220, Note_on_c, 0, 75, 111
2, 131220, Note_on_c, 0, 87, 111
2, 131220, Note_on_c, 0, 63, 111
2, 131400, Note_on_c, 0, 63, 0
2, 131400, Note_on_c, 0, 87, 0
2, 131400, Note_on_c, 0, 75, 0
2, 131400, Note_on_c, 0, 75, 106
2, 131400, Note_on_c, 0, 78, 106
2, 131400, Note_on_c, 0, 83, 106
2, 131400, Note_on_c, 0, 87, 106
2, 131400, Note_on_c, 0, 63, 111
2, 131400, Note_on_c, 0, 66, 111
2, 131400, Note_on_c, 0, 71, 111
2, 132120, Note_on_c, 0, 71, 0
2, 132120, Note_on_c, 0, 63, 0
2, 132120, Note_on_c, 0, 78, 0
2, 132120, Note_on_c, 0, 83, 0
2, 132120, Note_on_c, 0, 75, 0
2, 132120, Note_on_c, 0, 66, 0
2, 132120, Note_on_c, 0, 87, 0
2, 132120, Note_on_c, 0, 74, 104
2, 132120, Note_on_c, 0, 86, 104
2, 132120, Note_on_c, 0, 62, 84
2, 132300, Note_on_c, 0, 62, 0
2, 132300, Note_on_c, 0, 86, 0
2, 132300, Note_on_c, 0, 74, 0
2, 132300, Note_on_c, 0, 75, 111
2, 132300, Note_on_c, 0, 87, 111
2, 132300, Note_on_c, 0, 63, 111
2, 132480, Note_on_c, 0, 63, 0
2, 132480, Note_on_c, 0, 87, 0
2, 132480, Note_on_c, 0, 75, 0
2, 132480, Note_on_c, 0, 75, 111
2, 132480, Note_on_c, 0, 78, 111
2, 132480, Note_on_c, 0, 83, 111
2, 132480, Note_on_c, 0, 87, 111
2, 132480, Note_on_c, 0, 63, 111
2, 132480, Note_on_c, 0, 66, 111
2, 132480, Note_on_c, 0, 71, 111
2, 133200, Note_on_c, 0, 71, 0
2, 133200, Note_on_c, 0, 63, 0
2, 133200, Note_on_c, 0, 78, 0
2, 133200, Note_on_c, 0, 83, 0
2, 133200, Note_on_c, 0, 75, 0
2, 133200, Note_on_c, 0, 66, 0
2, 133200, Note_on_c, 0, 87, 0
2, 133200, Note_on_c, 0, 74, 107
2, 133200, Note_on_c, 0, 86, 107
2, 133200, Note_on_c, 0, 62, 77
2, 133380, Note_on_c, 0, 62, 0
2, 133380, Note_on_c, 0, 86, 0
2, 133380, Note_on_c, 0, 74, 0
2, 133380, Note_on_c, 0, 75, 111
2, 133380, Note_on_c, 0, 87, 111
2, 133380, Note_on_c, 0, 63, 111
2, 133560, Note_on_c, 0, 63, 0
2, 133560, Note_on_c, 0, 87, 0
2, 133560, Note_on_c, 0, 75, 0
2, 133560, Note_on_c, 0, 79, 109
2, 133560, Note_on_c, 0, 82, 109
2, 133560, Note_on_c, 0, 87, 109
2, 133560, Note_on_c, 0, 67, 111
2, 133560, Note_on_c, 0, 70, 111
2, 133560, Note_on_c, 0, 75, 111
2, 134280, Note_on_c, 0, 75, 0
2, 134280, Note_on_c, 0, 82, 0
2, 134280, Note_on_c, 0, 87, 0
2, 134280, Note_on_c, 0, 79, 0
2, 134280, Note_on_c, 0, 70, 0
2, 134280, Note_on_c, 0, 67, 0
2, 134280, Note_on_c, 0, 74, 108
2, 134325, Note_on_c, 0, 74, 0
2, 134325, Note_on_c, 0, 86, 111
2, 134370, Note_on_c, 0, 86, 0
2, 134370, Note_on_c, 0, 74, 83
2, 134415, Note_on_c, 0, 74, 0
2, 134415, Note_on_c, 0, 86, 111
2, 134460, Note_on_c, 0, 86, 0
2, 134460, Note_on_c, 0, 72, 87
2, 134505, Note_on_c, 0, 72, 0
2, 134505, Note_on_c, 0, 84, 111
2, 134550, Note_on_c, 0, 84, 0
2, 134550, Note_on_c, 0, 72, 79
2, 134595, Note_on_c, 0, 72, 0
2, 134595, Note_on_c, 0, 84, 111
2, 134640, Note_on_c, 0, 84, 0
2, 134640, Note_on_c, 0, 70, 88
2, 134685, Note_on_c, 0, 70, 0
2, 134685, Note_on_c, 0, 82, 111
2, 134730, Note_on_c, 0, 82, 0
2, 134730, Note_on_c, 0, 70, 84
2, 134775, Note_on_c, 0, 70, 0
2, 134775, Note_on_c, 0, 82, 111
2, 134820, Note_on_c, 0, 82, 0
2, 134820, Note_on_c, 0, 67, 80
2, 134865, Note_on_c, 0, 67, 0
2, 134865, Note_on_c, 0, 79, 111
2, 134910, Note_on_c, 0, 79, 0
2, 134910, Note_on_c, 0, 67, 77
2, 134955, Note_on_c, 0, 67, 0
2, 134955, Note_on_c, 0, 79, 111
2, 135000, Note_on_c, 0, 79, 0
2, 135000, Note_on_c, 0, 63, 77
2, 135045, Note_on_c, 0, 63, 0
2, 135045, Note_on_c, 0, 75, 111
2, 135090, Note_on_c, 0, 75, 0
2, 135090, Note_on_c, 0, 63, 76
2, 135135, Note_on_c, 0, 63, 0
2, 135135, Note_on_c, 0, 75, 111
2, 135180, Note_on_c, 0, 75, 0
2, 135180, Note_on_c, 0, 67, 90
2, 135225, Note_on_c, 0, 67, 0
2, 135225, Note_on_c, 0, 79, 111
2, 135270, Note_on_c, 0, 79, 0
2, 135270, Note_on_c, 0, 67, 81
2, 135315, Note_on_c, 0, 67, 0
2, 135315, Note_on_c, 0, 79, 111
2, 135360, Note_on_c, 0, 79, 0
2, 135360, Note_on_c, 0, 70, 86
2, 135405, Note_on_c, 0, 70, 0
2, 135405, Note_on_c, 0, 82, 111
2, 135450, Note_on_c, 0, 82, 0
2, 135450, Note_on_c, 0, 70, 80
2, 135495, Note_on_c, 0, 70, 0
2, 135495, Note_on_c, 0, 82, 111
2, 135540, Note_on_c, 0, 82, 0
2, 135540, Note_on_c, 0, 75, 93
2, 135585, Note_on_c, 0, 75, 0
2, 135585, Note_on_c, 0, 87, 111
2, 135630, Note_on_c, 0, 87, 0
2, 135630, Note_on_c, 0, 75, 82
2, 135675, Note_on_c, 0, 75, 0
2, 135675, Note_on_c, 0, 87, 111
2, 135720, Note_on_c, 0, 87, 0
2, 135720, Note_on_c, 0, 82, 111
2, 135720, Note_on_c, 0, 87, 111
2, 135720, Note_on_c, 0, 91, 111
2, 135720, Note_on_c, 0, 70, 91
2, 135720, Note_on_c, 0, 75, 91
2, 135720, Note_on_c, 0, 79, 91
2, 136440, Note_on_c, 0, 79, 0
2, 136440, Note_on_c, 0, 87, 0
2, 136440, Note_on_c, 0, 91, 0
2, 136440, Note_on_c, 0, 82, 0
2, 136440, Note_on_c, 0, 75, 0
2, 136440, Note_on_c, 0, 70, 0
2, 136440, Note_on_c, 0, 75, 101
2, 136485, Note_on_c, 0, 75, 0
2, 136485, Note_on_c, 0, 87, 111
2, 136530, Note_on_c, 0, 87, 0
2, 136530, Note_on_c, 0, 75, 82
2, 136575, Note_on_c, 0, 75, 0
2, 136575, Note_on_c, 0, 87, 111
2, 136620, Note_on_c, 0, 87, 0
2, 136620, Note_on_c, 0, 72, 81
2, 136665, Note_on_c, 0, 72, 0
2, 136665, Note_on_c, 0, 84, 111
2, 136710, Note_on_c, 0, 84, 0
2, 136710, Note_on_c, 0, 72, 80
2, 136755, Note_on_c, 0, 72, 0
2, 136755, Note_on_c, 0, 84, 111
2, 136800, Note_on_c, 0, 84, 0
2, 136800, Note_on_c, 0, 70, 83
2, 136845, Note_on_c, 0, 70, 0
2, 136845, Note_on_c, 0, 82, 111
2, 136890, Note_on_c, 0, 82, 0
2, 136890, Note_on_c, 0, 70, 79
2, 136935, Note_on_c, 0, 70, 0
2, 136935, Note_on_c, 0, 82, 111
2, 136980, Note_on_c, 0, 82, 0
2, 136980, Note_on_c, 0, 67, 85
2, 137025, Note_on_c, 0, 67, 0
2, 137025, Note_on_c, 0, 79, 111
2, 137070, Note_on_c, 0, 79, 0
2, 137070, Note_on_c, 0, 67, 82
2, 137115, Note_on_c, 0, 67, 0
2, 137115, Note_on_c, 0, 79, 111
2, 137160, Note_on_c, 0, 79, 0
2, 137160, Note_on_c, 0, 70, 97
2, 137205, Note_on_c, 0, 70, 0
2, 137205, Note_on_c, 0, 82, 111
2, 137250, Note_on_c, 0, 82, 0
2, 137250, Note_on_c, 0, 70, 85
2, 137295, Note_on_c, 0, 70, 0
2, 137295, Note_on_c, 0, 82, 111
2, 137340, Note_on_c, 0, 82, 0
2, 137340, Note_on_c, 0, 72, 83
2, 137385, Note_on_c, 0, 72, 0
2, 137385, Note_on_c, 0, 84, 111
2, 137430, Note_on_c, 0, 84, 0
2, 137430, Note_on_c, 0, 72, 81
2, 137475, Note_on_c, 0, 72, 0
2, 137475, Note_on_c, 0, 84, 111
2, 137520, Note_on_c, 0, 84, 0
2, 137520, Note_on_c, 0, 75, 87
2, 137565, Note_on_c, 0, 75, 0
2, 137565, Note_on_c, 0, 87, 111
2, 137610, Note_on_c, 0, 87, 0
2, 137610, Note_on_c, 0, 75, 87
2, 137655, Note_on_c, 0, 75, 0
2, 137655, Note_on_c, 0, 87, 111
2, 137700, Note_on_c, 0, 87, 0
2, 137700, Note_on_c, 0, 79, 91
2, 137745, Note_on_c, 0, 79, 0
2, 137745, Note_on_c, 0, 91, 111
2, 137790, Note_on_c, 0, 91, 0
2, 137790, Note_on_c, 0, 79, 84
2, 137835, Note_on_c, 0, 79, 0
2, 137835, Note_on_c, 0, 91, 111
2, 137880, Note_on_c, 0, 91, 0
2, 137880, Note_on_c, 0, 94, 84
2, 137880, Note_on_c, 0, 74, 83
2, 137915, Note_on_c, 0, 74, 0
2, 137915, Note_on_c, 0, 94, 0
2, 137925, Note_on_c, 0, 86, 77
2, 137925, Note_on_c, 0, 82, 111
2, 137960, Note_on_c, 0, 82, 0
2, 137960, Note_on_c, 0, 86, 0
2, 137970, Note_on_c, 0, 94, 84
2, 137970, Note_on_c, 0, 74, 83
2, 138005, Note_on_c, 0, 74, 0
2, 138005, Note_on_c, 0, 94, 0
2, 138015, Note_on_c, 0, 86, 77
2, 138015, Note_on_c, 0, 82, 111
2, 138050, Note_on_c, 0, 82, 0
2, 138050, Note_on_c, 0, 86, 0
2, 138060, Note_on_c, 0, 94, 84
2, 138060, Note_on_c, 0, 74, 83
2, 138095, Note_on_c, 0, 74, 0
2, 138095, Note_on_c, 0, 94, 0
2, 138105, Note_on_c, 0, 86, 77
2, 138105, Note_on_c, 0, 82, 111
2, 138140, Note_on_c, 0, 82, 0
2, 138140, Note_on_c, 0, 86, 0
2, 138150, Note_on_c, 0, 94, 84
2, 138150, Note_on_c, 0, 74, 83
2, 138185, Note_on_c, 0, 74, 0
2, 138185, Note_on_c, 0, 94, 0
2, 138195, Note_on_c, 0, 86, 77
2, 138195, Note_on_c, 0, 82, 111
2, 138230, Note_on_c, 0, 82, 0
2, 138230, Note_on_c, 0, 86, 0
2, 138240, Note_on_c, 0, 94, 84
2, 138240, Note_on_c, 0, 74, 83
2, 138275, Note_on_c, 0, 74, 0
2, 138275, Note_on_c, 0, 94, 0
2, 138285, Note_on_c, 0, 86, 77
2, 138285, Note_on_c, 0, 82, 111
2, 138320, Note_on_c, 0, 82, 0
2, 138320, Note_on_c, 0, 86, 0
2, 138330, Note_on_c, 0, 94, 84
2, 138330, Note_on_c, 0, 74, 83
2, 138365, Note_on_c, 0, 74, 0
2, 138365, Note_on_c, 0, 94, 0
2, 138375, Note_on_c, 0, 86, 77
2, 138375, Note_on_c, 0, 82, 111
2, 138410, Note_on_c, 0, 82, 0
2, 138410, Note_on_c, 0, 86, 0
2, 138420, Note_on_c, 0, 94, 84
2, 138420, Note_on_c, 0, 93, 111
2, 138420, Note_on_c, 0, 94, 111
2, 138420, Note_on_c, 0, 74, 83
2, 138420, Note_on_c, 0, 72, 94
2, 138420, Note_on_c, 0, 75, 94
2, 138455, Note_on_c, 0, 75, 0
2, 138455, Note_on_c, 0, 93, 0
2, 138455, Note_on_c, 0, 94, 0
2, 138455, Note_on_c, 0, 94, 0
2, 138455, Note_on_c, 0, 72, 0
2, 138455, Note_on_c, 0, 74, 0
2, 138465, Note_on_c, 0, 87, 96
2, 138465, Note_on_c, 0, 82, 111
2, 138500, Note_on_c, 0, 82, 0
2, 138500, Note_on_c, 0, 87, 0
2, 138510, Note_on_c, 0, 93, 111
2, 138510, Note_on_c, 0, 94, 111
2, 138510, Note_on_c, 0, 72, 94
2, 138510, Note_on_c, 0, 75, 94
2, 138545, Note_on_c, 0, 75, 0
2, 138545, Note_on_c, 0, 93, 0
2, 138545, Note_on_c, 0, 94, 0
2, 138545, Note_on_c, 0, 72, 0
2, 138555, Note_on_c, 0, 87, 96
2, 138555, Note_on_c, 0, 82, 111
2, 138590, Note_on_c, 0, 82, 0
2, 138590, Note_on_c, 0, 87, 0
2, 138600, Note_on_c, 0, 93, 111
2, 138600, Note_on_c, 0, 94, 111
2, 138600, Note_on_c, 0, 72, 94
2, 138600, Note_on_c, 0, 75, 94
2, 138635, Note_on_c, 0, 75, 0
2, 138635, Note_on_c, 0, 93, 0
2, 138635, Note_on_c, 0, 94, 0
2, 138635, Note_on_c, 0, 72, 0
2, 138645, Note_on_c, 0, 87, 96
2, 138645, Note_on_c, 0, 82, 111
2, 138680, Note_on_c, 0, 82, 0
2, 138680, Note_on_c, 0, 87, 0
2, 138690, Note_on_c, 0, 93, 111
2, 138690, Note_on_c, 0, 94, 111
2, 138690, Note_on_c, 0, 72, 94
2, 138690, Note_on_c, 0, 75, 94
2, 138725, Note_on_c, 0, 75, 0
2, 138725, Note_on_c, 0, 93, 0
2, 138725, Note_on_c, 0, 94, 0
2, 138725, Note_on_c, 0, 72, 0
2, 138735, Note_on_c, 0, 87, 96
2, 138735, Note_on_c, 0, 82, 111
2, 138770, Note_on_c, 0, 82, 0
2, 138770, Note_on_c, 0, 87, 0
2, 138780, Note_on_c, 0, 93, 111
2, 138780, Note_on_c, 0, 94, 111
2, 138780, Note_on_c, 0, 72, 94
2, 138780, Note_on_c, 0, 75, 94
2, 138815, Note_on_c, 0, 75, 0
2, 138815, Note_on_c, 0, 93, 0
2, 138815, Note_on_c, 0, 94, 0
2, 138815, Note_on_c, 0, 72, 0
2, 138825, Note_on_c, 0, 87, 96
2, 138825, Note_on_c, 0, 82, 111
2, 138860, Note_on_c, 0, 82, 0
2, 138860, Note_on_c, 0, 87, 0
2, 138870, Note_on_c, 0, 93, 111
2, 138870, Note_on_c, 0, 94, 111
2, 138870, Note_on_c, 0, 72, 94
2, 138870, Note_on_c, 0, 75, 94
2, 138905, Note_on_c, 0, 75, 0
2, 138905, Note_on_c, 0, 93, 0
2, 138905, Note_on_c, 0, 94, 0
2, 138905, Note_on_c, 0, 72, 0
2, 138915, Note_on_c, 0, 87, 96
2, 138915, Note_on_c, 0, 82, 111
2, 138950, Note_on_c, 0, 82, 0
2, 138950, Note_on_c, 0, 87, 0
2, 138960, Note_on_c, 0, 93, 111
2, 138960, Note_on_c, 0, 94, 111
2, 138960, Note_on_c, 0, 92, 111
2, 138960, Note_on_c, 0, 94, 111
2, 138960, Note_on_c, 0, 72, 94
2, 138960, Note_on_c, 0, 75, 94
2, 138960, Note_on_c, 0, 74, 96
2, 138960, Note_on_c, 0, 77, 96
2, 138995, Note_on_c, 0, 77, 0
2, 138995, Note_on_c, 0, 93, 0
2, 138995, Note_on_c, 0, 72, 0
2, 138995, Note_on_c, 0, 94, 0
2, 138995, Note_on_c, 0, 92, 0
2, 138995, Note_on_c, 0, 94, 0
2, 138995, Note_on_c, 0, 75, 0
2, 138995, Note_on_c, 0, 74, 0
2, 139005, Note_on_c, 0, 89, 96
2, 139005, Note_on_c, 0, 82, 111
2, 139040, Note_on_c, 0, 82, 0
2, 139040, Note_on_c, 0, 89, 0
2, 139050, Note_on_c, 0, 92, 111
2, 139050, Note_on_c, 0, 94, 111
2, 139050, Note_on_c, 0, 74, 96
2, 139050, Note_on_c, 0, 77, 96
2, 139085, Note_on_c, 0, 77, 0
2, 139085, Note_on_c, 0, 92, 0
2, 139085, Note_on_c, 0, 94, 0
2, 139085, Note_on_c, 0, 74, 0
2, 139095, Note_on_c, 0, 89, 96
2, 139095, Note_on_c, 0, 82, 111
2, 139130, Note_on_c, 0, 82, 0
2, 139130, Note_on_c, 0, 89, 0
2, 139140, Note_on_c, 0, 92, 111
2, 139140, Note_on_c, 0, 94, 111
2, 139140, Note_on_c, 0, 74, 96
2, 139140, Note_on_c, 0, 77, 96
2, 139175, Note_on_c, 0, 77, 0
2, 139175, Note_on_c, 0, 92, 0
2, 139175, Note_on_c, 0, 94, 0
2, 139175, Note_on_c, 0, 74, 0
2, 139185, Note_on_c, 0, 89, 96
2, 139185, Note_on_c, 0, 82, 111
2, 139220, Note_on_c, 0, 82, 0
2, 139220, Note_on_c, 0, 89, 0
2, 139230, Note_on_c, 0, 92, 111
2, 139230, Note_on_c, 0, 94, 111
2, 139230, Note_on_c, 0, 74, 96
2, 139230, Note_on_c, 0, 77, 96
2, 139265, Note_on_c, 0, 77, 0
2, 139265, Note_on_c, 0, 92, 0
2, 139265, Note_on_c, 0, 94, 0
2, 139265, Note_on_c, 0, 74, 0
2, 139275, Note_on_c, 0, 89, 96
2, 139275, Note_on_c, 0, 82, 111
2, 139310, Note_on_c, 0, 82, 0
2, 139310, Note_on_c, 0, 89, 0
2, 139320, Note_on_c, 0, 92, 111
2, 139320, Note_on_c, 0, 94, 111
2, 139320, Note_on_c, 0, 74, 96
2, 139320, Note_on_c, 0, 77, 96
2, 139355, Note_on_c, 0, 77, 0
2, 139355, Note_on_c, 0, 92, 0
2, 139355, Note_on_c, 0, 94, 0
2, 139355, Note_on_c, 0, 74, 0
2, 139365, Note_on_c, 0, 89, 96
2, 139365, Note_on_c, 0, 82, 111
2, 139400, Note_on_c, 0, 82, 0
2, 139400, Note_on_c, 0, 89, 0
2, 139410, Note_on_c, 0, 92, 111
2, 139410, Note_on_c, 0, 94, 111
2, 139410, Note_on_c, 0, 74, 96
2, 139410, Note_on_c, 0, 77, 96
2, 139445, Note_on_c, 0, 77, 0
2, 139445, Note_on_c, 0, 92, 0
2, 139445, Note_on_c, 0, 94, 0
2, 139445, Note_on_c, 0, 74, 0
2, 139455, Note_on_c, 0, 89, 96
2, 139455, Note_on_c, 0, 82, 111
2, 139490, Note_on_c, 0, 82, 0
2, 139490, Note_on_c, 0, 89, 0
2, 139500, Note_on_c, 0, 92, 111
2, 139500, Note_on_c, 0, 94, 111
2, 139500, Note_on_c, 0, 94, 111
2, 139500, Note_on_c, 0, 74, 96
2, 139500, Note_on_c, 0, 77, 96
2, 139500, Note_on_c, 0, 79, 111
2, 139500, Note_on_c, 0, 82, 111
2, 139535, Note_on_c, 0, 77, 0
2, 139535, Note_on_c, 0, 74, 0
2, 139535, Note_on_c, 0, 92, 0
2, 139535, Note_on_c, 0, 94, 0
2, 139545, Note_on_c, 0, 94, 0
2, 139545, Note_on_c, 0, 91, 97
2, 139590, Note_on_c, 0, 91, 0
2, 139590, Note_on_c, 0, 94, 111
2, 139635, Note_on_c, 0, 94, 0
2, 139635, Note_on_c, 0, 91, 105
2, 139680, Note_on_c, 0, 91, 0
2, 139680, Note_on_c, 0, 82, 0
2, 139680, Note_on_c, 0, 79, 0
2, 139680, Note_on_c, 0, 91, 107
2, 139680, Note_on_c, 0, 75, 104
2, 139680, Note_on_c, 0, 79, 104
2, 139725, Note_on_c, 0, 91, 0
2, 139725, Note_on_c, 0, 87, 103
2, 139770, Note_on_c, 0, 87, 0
2, 139770, Note_on_c, 0, 91, 111
2, 139815, Note_on_c, 0, 91, 0
2, 139815, Note_on_c, 0, 87, 102
2, 139860, Note_on_c, 0, 87, 0
2, 139860, Note_on_c, 0, 79, 0
2, 139860, Note_on_c, 0, 75, 0
2, 139860, Note_on_c, 0, 87, 102
2, 139860, Note_on_c, 0, 70, 98
2, 139860, Note_on_c, 0, 75, 98
2, 139905, Note_on_c, 0, 87, 0
2, 139905, Note_on_c, 0, 82, 90
2, 139950, Note_on_c, 0, 82, 0
2, 139950, Note_on_c, 0, 87, 111
2, 139995, Note_on_c, 0, 87, 0
2, 139995, Note_on_c, 0, 82, 98
2, 140040, Note_on_c, 0, 82, 0
2, 140040, Note_on_c, 0, 75, 0
2, 140040, Note_on_c, 0, 70, 0
2, 140040, Note_on_c, 0, 84, 111
2, 140040, Note_on_c, 0, 72, 98
2, 140075, Note_on_c, 0, 72, 0
2, 140075, Note_on_c, 0, 84, 0
2, 140085, Note_on_c, 0, 81, 110
2, 140085, Note_on_c, 0, 75, 111
2, 140120, Note_on_c, 0, 75, 0
2, 140120, Note_on_c, 0, 81, 0
2, 140130, Note_on_c, 0, 84, 111
2, 140130, Note_on_c, 0, 72, 98
2, 140165, Note_on_c, 0, 72, 0
2, 140165, Note_on_c, 0, 84, 0
2, 140175, Note_on_c, 0, 81, 110
2, 140175, Note_on_c, 0, 75, 111
2, 140210, Note_on_c, 0, 75, 0
2, 140210, Note_on_c, 0, 81, 0
2, 140220, Note_on_c, 0, 84, 111
2, 140220, Note_on_c, 0, 72, 98
2, 140255, Note_on_c, 0, 72, 0
2, 140255, Note_on_c, 0, 84, 0
2, 140265, Note_on_c, 0, 81, 110
2, 140265, Note_on_c, 0, 75, 111
2, 140300, Note_on_c, 0, 75, 0
2, 140300, Note_on_c, 0, 81, 0
2, 140310, Note_on_c, 0, 84, 111
2, 140310, Note_on_c, 0, 72, 98
2, 140345, Note_on_c, 0, 72, 0
2, 140345, Note_on_c, 0, 84, 0
2, 140355, Note_on_c, 0, 81, 110
2, 140355, Note_on_c, 0, 75, 111
2, 140390, Note_on_c, 0, 75, 0
2, 140390, Note_on_c, 0, 81, 0
2, 140400, Note_on_c, 0, 84, 111
2, 140400, Note_on_c, 0, 72, 98
2, 140435, Note_on_c, 0, 72, 0
2, 140435, Note_on_c, 0, 84, 0
2, 140445, Note_on_c, 0, 81, 110
2, 140445, Note_on_c, 0, 75, 111
2, 140480, Note_on_c, 0, 75, 0
2, 140480, Note_on_c, 0, 81, 0
2, 140490, Note_on_c, 0, 84, 111
2, 140490, Note_on_c, 0, 72, 98
2, 140525, Note_on_c, 0, 72, 0
2, 140525, Note_on_c, 0, 84, 0
2, 140535, Note_on_c, 0, 81, 110
2, 140535, Note_on_c, 0, 75, 111
2, 140570, Note_on_c, 0, 75, 0
2, 140570, Note_on_c, 0, 81, 0
2, 140580, Note_on_c, 0, 84, 111
2, 140580, Note_on_c, 0, 72, 98
2, 140615, Note_on_c, 0, 72, 0
2, 140615, Note_on_c, 0, 84, 0
2, 140625, Note_on_c, 0, 81, 110
2, 140625, Note_on_c, 0, 75, 111
2, 140660, Note_on_c, 0, 75, 0
2, 140660, Note_on_c, 0, 81, 0
2, 140670, Note_on_c, 0, 84, 111
2, 140670, Note_on_c, 0, 72, 98
2, 140705, Note_on_c, 0, 72, 0
2, 140705, Note_on_c, 0, 84, 0
2, 140715, Note_on_c, 0, 81, 110
2, 140715, Note_on_c, 0, 75, 111
2, 140750, Note_on_c, 0, 75, 0
2, 140750, Note_on_c, 0, 81, 0
2, 140760, Note_on_c, 0, 84, 111
2, 140760, Note_on_c, 0, 72, 98
2, 140795, Note_on_c, 0, 72, 0
2, 140795, Note_on_c, 0, 84, 0
2, 140805, Note_on_c, 0, 81, 110
2, 140805, Note_on_c, 0, 75, 111
2, 140840, Note_on_c, 0, 75, 0
2, 140840, Note_on_c, 0, 81, 0
2, 140850, Note_on_c, 0, 84, 111
2, 140850, Note_on_c, 0, 72, 98
2, 140885, Note_on_c, 0, 72, 0
2, 140885, Note_on_c, 0, 84, 0
2, 140895, Note_on_c, 0, 81, 110
2, 140895, Note_on_c, 0, 75, 111
2, 140930, Note_on_c, 0, 75, 0
2, 140930, Note_on_c, 0, 81, 0
2, 140940, Note_on_c, 0, 84, 111
2, 140940, Note_on_c, 0, 72, 98
2, 140975, Note_on_c, 0, 72, 0
2, 140975, Note_on_c, 0, 84, 0
2, 140985, Note_on_c, 0, 81, 110
2, 140985, Note_on_c, 0, 75, 111
2, 141020, Note_on_c, 0, 75, 0
2, 141020, Note_on_c, 0, 81, 0
2, 141030, Note_on_c, 0, 84, 111
2, 141030, Note_on_c, 0, 72, 98
2, 141065, Note_on_c, 0, 72, 0
2, 141065, Note_on_c, 0, 84, 0
2, 141075, Note_on_c, 0, 81, 110
2, 141075, Note_on_c, 0, 75, 111
2, 141110, Note_on_c, 0, 75, 0
2, 141110, Note_on_c, 0, 81, 0
2, 141120, Note_on_c, 0, 84, 111
2, 141120, Note_on_c, 0, 82, 111
2, 141120, Note_on_c, 0, 72, 98
2, 141120, Note_on_c, 0, 70, 93
2, 141155, Note_on_c, 0, 70, 0
2, 141155, Note_on_c, 0, 84, 0
2, 141155, Note_on_c, 0, 82, 0
2, 141155, Note_on_c, 0, 72, 0
2, 141165, Note_on_c, 0, 80, 105
2, 141165, Note_on_c, 0, 74, 111
2, 141200, Note_on_c, 0, 74, 0
2, 141200, Note_on_c, 0, 80, 0
2, 141210, Note_on_c, 0, 82, 111
2, 141210, Note_on_c, 0, 70, 93
2, 141245, Note_on_c, 0, 70, 0
2, 141245, Note_on_c, 0, 82, 0
2, 141255, Note_on_c, 0, 80, 105
2, 141255, Note_on_c, 0, 74, 111
2, 141290, Note_on_c, 0, 74, 0
2, 141290, Note_on_c, 0, 80, 0
2, 141300, Note_on_c, 0, 82, 111
2, 141300, Note_on_c, 0, 70, 93
2, 141335, Note_on_c, 0, 70, 0
2, 141335, Note_on_c, 0, 82, 0
2, 141345, Note_on_c, 0, 80, 105
2, 141345, Note_on_c, 0, 74, 111
2, 141380, Note_on_c, 0, 74, 0
2, 141380, Note_on_c, 0, 80, 0
2, 141390, Note_on_c, 0, 82, 111
2, 141390, Note_on_c, 0, 70, 93
2, 141425, Note_on_c, 0, 70, 0
2, 141425, Note_on_c, 0, 82, 0
2, 141435, Note_on_c, 0, 80, 105
2, 141435, Note_on_c, 0, 74, 111
2, 141470, Note_on_c, 0, 74, 0
2, 141470, Note_on_c, 0, 80, 0
2, 141480, Note_on_c, 0, 82, 111
2, 141480, Note_on_c, 0, 70, 93
2, 141515, Note_on_c, 0, 70, 0
2, 141515, Note_on_c, 0, 82, 0
2, 141525, Note_on_c, 0, 80, 105
2, 141525, Note_on_c, 0, 74, 111
2, 141560, Note_on_c, 0, 74, 0
2, 141560, Note_on_c, 0, 80, 0
2, 141570, Note_on_c, 0, 82, 111
2, 141570, Note_on_c, 0, 70, 93
2, 141605, Note_on_c, 0, 70, 0
2, 141605, Note_on_c, 0, 82, 0
2, 141615, Note_on_c, 0, 80, 105
2, 141615, Note_on_c, 0, 74, 111
2, 141650, Note_on_c, 0, 74, 0
2, 141650, Note_on_c, 0, 80, 0
2, 141660, Note_on_c, 0, 82, 111
2, 141660, Note_on_c, 0, 70, 93
2, 141695, Note_on_c, 0, 70, 0
2, 141695, Note_on_c, 0, 82, 0
2, 141705, Note_on_c, 0, 80, 105
2, 141705, Note_on_c, 0, 74, 111
2, 141740, Note_on_c, 0, 74, 0
2, 141740, Note_on_c, 0, 80, 0
2, 141750, Note_on_c, 0, 82, 111
2, 141750, Note_on_c, 0, 70, 93
2, 141785, Note_on_c, 0, 70, 0
2, 141785, Note_on_c, 0, 82, 0
2, 141795, Note_on_c, 0, 80, 105
2, 141795, Note_on_c, 0, 74, 111
2, 141830, Note_on_c, 0, 74, 0
2, 141830, Note_on_c, 0, 80, 0
2, 141840, Note_on_c, 0, 82, 111
2, 141840, Note_on_c, 0, 70, 93
2, 141875, Note_on_c, 0, 70, 0
2, 141875, Note_on_c, 0, 82, 0
2, 141885, Note_on_c, 0, 80, 105
2, 141885, Note_on_c, 0, 74, 111
2, 141920, Note_on_c, 0, 74, 0
2, 141920, Note_on_c, 0, 80, 0
2, 141930, Note_on_c, 0, 82, 111
2, 141930, Note_on_c, 0, 70, 93
2, 141965, Note_on_c, 0, 70, 0
2, 141965, Note_on_c, 0, 82, 0
2, 141975, Note_on_c, 0, 80, 105
2, 141975, Note_on_c, 0, 74, 111
2, 142010, Note_on_c, 0, 74, 0
2, 142010, Note_on_c, 0, 80, 0
2, 142020, Note_on_c, 0, 82, 111
2, 142020, Note_on_c, 0, 70, 93
2, 142055, Note_on_c, 0, 70, 0
2, 142055, Note_on_c, 0, 82, 0
2, 142065, Note_on_c, 0, 80, 105
2, 142065, Note_on_c, 0, 74, 111
2, 142100, Note_on_c, 0, 74, 0
2, 142100, Note_on_c, 0, 80, 0
2, 142110, Note_on_c, 0, 82, 111
2, 142110, Note_on_c, 0, 70, 93
2, 142145, Note_on_c, 0, 70, 0
2, 142145, Note_on_c, 0, 82, 0
2, 142155, Note_on_c, 0, 80, 105
2, 142155, Note_on_c, 0, 74, 111
2, 142190, Note_on_c, 0, 74, 0
2, 142190, Note_on_c, 0, 80, 0
2, 142200, Note_on_c, 0, 82, 111
2, 142200, Note_on_c, 0, 75, 112
2, 142235, Note_on_c, 0, 82, 0
2, 142245, Note_on_c, 0, 79, 103
2, 142280, Note_on_c, 0, 79, 0
2, 142290, Note_on_c, 0, 82, 111
2, 142325, Note_on_c, 0, 82, 0
2, 142335, Note_on_c, 0, 79, 103
2, 142370, Note_on_c, 0, 79, 0
2, 142380, Note_on_c, 0, 82, 111
2, 142415, Note_on_c, 0, 82, 0
2, 142425, Note_on_c, 0, 79, 103
2, 142460, Note_on_c, 0, 79, 0
2, 142470, Note_on_c, 0, 82, 111
2, 142505, Note_on_c, 0, 82, 0
2, 142515, Note_on_c, 0, 79, 103
2, 142550, Note_on_c, 0, 79, 0
2, 142560, Note_on_c, 0, 82, 111
2, 142595, Note_on_c, 0, 82, 0
2, 142605, Note_on_c, 0, 79, 103
2, 142640, Note_on_c, 0, 79, 0
2, 142650, Note_on_c, 0, 82, 111
2, 142685, Note_on_c, 0, 82, 0
2, 142695, Note_on_c, 0, 79, 103
2, 142730, Note_on_c, 0, 79, 0
2, 142740, Note_on_c, 0, 82, 111
2, 142775, Note_on_c, 0, 82, 0
2, 142785, Note_on_c, 0, 79, 103
2, 142820, Note_on_c, 0, 79, 0
2, 142830, Note_on_c, 0, 82, 111
2, 142865, Note_on_c, 0, 82, 0
2, 142875, Note_on_c, 0, 79, 103
2, 142910, Note_on_c, 0, 79, 0
2, 142920, Note_on_c, 0, 82, 111
2, 142955, Note_on_c, 0, 82, 0
2, 142965, Note_on_c, 0, 79, 103
2, 143000, Note_on_c, 0, 79, 0
2, 143010, Note_on_c, 0, 82, 111
2, 143045, Note_on_c, 0, 82, 0
2, 143055, Note_on_c, 0, 79, 103
2, 143090, Note_on_c, 0, 79, 0
2, 143100, Note_on_c, 0, 75, 0
2, 143100, Note_on_c, 0, 82, 111
2, 143100, Note_on_c, 0, 74, 112
2, 143135, Note_on_c, 0, 82, 0
2, 143145, Note_on_c, 0, 79, 103
2, 143180, Note_on_c, 0, 79, 0
2, 143190, Note_on_c, 0, 82, 111
2, 143225, Note_on_c, 0, 82, 0
2, 143235, Note_on_c, 0, 79, 103
2, 143270, Note_on_c, 0, 79, 0
2, 143280, Note_on_c, 0, 74, 0
2, 143280, Note_on_c, 0, 82, 111
2, 143280, Note_on_c, 0, 83, 111
2, 143280, Note_on_c, 0, 75, 112
2, 143315, Note_on_c, 0, 83, 0
2, 143315, Note_on_c, 0, 82, 0
2, 143325, Note_on_c, 0, 78, 93
2, 143360, Note_on_c, 0, 78, 0
2, 143370, Note_on_c, 0, 83, 111
2, 143405, Note_on_c, 0, 83, 0
2, 143415, Note_on_c, 0, 78, 93
2, 143450, Note_on_c, 0, 78, 0
2, 143460, Note_on_c, 0, 75, 0
2, 143460, Note_on_c, 0, 83, 111
2, 143460, Note_on_c, 0, 73, 112
2, 143495, Note_on_c, 0, 83, 0
2, 143505, Note_on_c, 0, 78, 93
2, 143540, Note_on_c, 0, 78, 0
2, 143550, Note_on_c, 0, 83, 111
2, 143585, Note_on_c, 0, 83, 0
2, 143595, Note_on_c, 0, 78, 93
2, 143630, Note_on_c, 0, 78, 0
2, 143640, Note_on_c, 0, 73, 0
2, 143640, Note_on_c, 0, 83, 111
2, 143640, Note_on_c, 0, 71, 112
2, 143675, Note_on_c, 0, 83, 0
2, 143685, Note_on_c, 0, 78, 93
2, 143720, Note_on_c, 0, 78, 0
2, 143730, Note_on_c, 0, 83, 111
2, 143765, Note_on_c, 0, 83, 0
2, 143775, Note_on_c, 0, 78, 93
2, 143810, Note_on_c, 0, 78, 0
2, 143820, Note_on_c, 0, 71, 0
2, 143820, Note_on_c, 0, 83, 111
2, 143820, Note_on_c, 0, 71, 112
2, 143855, Note_on_c, 0, 83, 0
2, 143865, Note_on_c, 0, 78, 93
2, 143900, Note_on_c, 0, 78, 0
2, 143910, Note_on_c, 0, 83, 111
2, 143945, Note_on_c, 0, 83, 0
2, 143955, Note_on_c, 0, 78, 93
2, 143990, Note_on_c, 0, 78, 0
2, 144000, Note_on_c, 0, 71, 0
2, 144000, Note_on_c, 0, 83, 111
2, 144000, Note_on_c, 0, 73, 112
2, 144035, Note_on_c, 0, 83, 0
2, 144045, Note_on_c, 0, 78, 93
2, 144080, Note_on_c, 0, 78, 0
2, 144090, Note_on_c, 0, 83, 111
2, 144125, Note_on_c, 0, 83, 0
2, 144135, Note_on_c, 0, 78, 93
2, 144170, Note_on_c, 0, 78, 0
2, 144180, Note_on_c, 0, 73, 0
2, 144180, Note_on_c, 0, 83, 111
2, 144180, Note_on_c, 0, 74, 112
2, 144215, Note_on_c, 0, 83, 0
2, 144225, Note_on_c, 0, 78, 93
2, 144260, Note_on_c, 0, 78, 0
2, 144270, Note_on_c, 0, 83, 111
2, 144305, Note_on_c, 0, 83, 0
2, 144315, Note_on_c, 0, 78, 93
2, 144350, Note_on_c, 0, 78, 0
2, 144360, Note_on_c, 0, 74, 0
2, 144360, Note_on_c, 0, 82, 110
2, 144360, Note_on_c, 0, 75, 112
2, 144395, Note_on_c, 0, 82, 0
2, 144405, Note_on_c, 0, 79, 92
2, 144440, Note_on_c, 0, 79, 0
2, 144450, Note_on_c, 0, 82, 110
2, 144485, Note_on_c, 0, 82, 0
2, 144495, Note_on_c, 0, 79, 92
2, 144530, Note_on_c, 0, 79, 0
2, 144540, Note_on_c, 0, 82, 110
2, 144575, Note_on_c, 0, 82, 0
2, 144585, Note_on_c, 0, 79, 92
2, 144620, Note_on_c, 0, 79, 0
2, 144630, Note_on_c, 0, 82, 110
2, 144665, Note_on_c, 0, 82, 0
2, 144675, Note_on_c, 0, 79, 92
2, 144710, Note_on_c, 0, 79, 0
2, 144720, Note_on_c, 0, 82, 110
2, 144755, Note_on_c, 0, 82, 0
2, 144765, Note_on_c, 0, 79, 92
2, 144800, Note_on_c, 0, 79, 0
2, 144810, Note_on_c, 0, 82, 110
2, 144845, Note_on_c, 0, 82, 0
2, 144855, Note_on_c, 0, 79, 92
2, 144890, Note_on_c, 0, 79, 0
2, 144900, Note_on_c, 0, 82, 110
2, 144935, Note_on_c, 0, 82, 0
2, 144945, Note_on_c, 0, 79, 92
2, 144980, Note_on_c, 0, 79, 0
2, 144990, Note_on_c, 0, 82, 110
2, 145025, Note_on_c, 0, 82, 0
2, 145035, Note_on_c, 0, 79, 92
2, 145070, Note_on_c, 0, 79, 0
2, 145080, Note_on_c, 0, 82, 110
2, 145115, Note_on_c, 0, 82, 0
2, 145125, Note_on_c, 0, 79, 92
2, 145160, Note_on_c, 0, 79, 0
2, 145170, Note_on_c, 0, 82, 110
2, 145205, Note_on_c, 0, 82, 0
2, 145215, Note_on_c, 0, 79, 92
2, 145250, Note_on_c, 0, 79, 0
2, 145260, Note_on_c, 0, 75, 0
2, 145260, Note_on_c, 0, 82, 110
2, 145260, Note_on_c, 0, 74, 112
2, 145295, Note_on_c, 0, 82, 0
2, 145305, Note_on_c, 0, 79, 92
2, 145340, Note_on_c, 0, 79, 0
2, 145350, Note_on_c, 0, 82, 110
2, 145385, Note_on_c, 0, 82, 0
2, 145395, Note_on_c, 0, 79, 92
2, 145430, Note_on_c, 0, 79, 0
2, 145440, Note_on_c, 0, 74, 0
2, 145440, Note_on_c, 0, 82, 110
2, 145440, Note_on_c, 0, 83, 106
2, 145440, Note_on_c, 0, 75, 112
2, 145475, Note_on_c, 0, 83, 0
2, 145475, Note_on_c, 0, 82, 0
2, 145485, Note_on_c, 0, 78, 86
2, 145520, Note_on_c, 0, 78, 0
2, 145530, Note_on_c, 0, 83, 106
2, 145565, Note_on_c, 0, 83, 0
2, 145575, Note_on_c, 0, 78, 86
2, 145610, Note_on_c, 0, 78, 0
2, 145620, Note_on_c, 0, 75, 0
2, 145620, Note_on_c, 0, 83, 106
2, 145620, Note_on_c, 0, 73, 112
2, 145655, Note_on_c, 0, 83, 0
2, 145665, Note_on_c, 0, 78, 86
2, 145700, Note_on_c, 0, 78, 0
2, 145710, Note_on_c, 0, 83, 106
2, 145745, Note_on_c, 0, 83, 0
2, 145755, Note_on_c, 0, 78, 86
2, 145790, Note_on_c, 0, 78, 0
2, 145800, Note_on_c, 0, 73, 0
2, 145800, Note_on_c, 0, 83, 106
2, 145800, Note_on_c, 0, 71, 112
2, 145835, Note_on_c, 0, 83, 0
2, 145845, Note_on_c, 0, 78, 86
2, 145880, Note_on_c, 0, 78, 0
2, 145890, Note_on_c, 0, 83, 106
2, 145925, Note_on_c, 0, 83, 0
2, 145935, Note_on_c, 0, 78, 86
2, 145970, Note_on_c, 0, 78, 0
2, 145980, Note_on_c, 0, 71, 0
2, 145980, Note_on_c, 0, 83, 106
2, 145980, Note_on_c, 0, 71, 112
2, 146015, Note_on_c, 0, 83, 0
2, 146025, Note_on_c, 0, 78, 86
2, 146060, Note_on_c, 0, 78, 0
2, 146070, Note_on_c, 0, 83, 106
2, 146105, Note_on_c, 0, 83, 0
2, 146115, Note_on_c, 0, 78, 86
2, 146150, Note_on_c, 0, 78, 0
2, 146160, Note_on_c, 0, 71, 0
2, 146160, Note_on_c, 0, 83, 106
2, 146160, Note_on_c, 0, 73, 112
2, 146195, Note_on_c, 0, 83, 0
2, 146205, Note_on_c, 0, 78, 86
2, 146240, Note_on_c, 0, 78, 0
2, 146250, Note_on_c, 0, 83, 106
2, 146285, Note_on_c, 0, 83, 0
2, 146295, Note_on_c, 0, 78, 86
2, 146330, Note_on_c, 0, 78, 0
2, 146340, Note_on_c, 0, 73, 0
2, 146340, Note_on_c, 0, 83, 106
2, 146340, Note_on_c, 0, 74, 112
2, 146375, Note_on_c, 0, 83, 0
2, 146385, Note_on_c, 0, 78, 86
2, 146420, Note_on_c, 0, 78, 0
2, 146430, Note_on_c, 0, 83, 106
2, 146465, Note_on_c, 0, 83, 0
2, 146475, Note_on_c, 0, 78, 86
2, 146510, Note_on_c, 0, 78, 0
2, 146520, Note_on_c, 0, 74, 0
2, 146520, Note_on_c, 0, 82, 109
2, 146520, Note_on_c, 0, 75, 112
2, 146555, Note_on_c, 0, 82, 0
2, 146565, Note_on_c, 0, 79, 91
2, 146600, Note_on_c, 0, 79, 0
2, 146610, Note_on_c, 0, 82, 109
2, 146645, Note_on_c, 0, 82, 0
2, 146655, Note_on_c, 0, 79, 91
2, 146690, Note_on_c, 0, 79, 0
2, 146700, Note_on_c, 0, 75, 0
2, 146700, Note_on_c, 0, 82, 109
2, 146700, Note_on_c, 0, 74, 112
2, 146735, Note_on_c, 0, 82, 0
2, 146745, Note_on_c, 0, 79, 91
2, 146780, Note_on_c, 0, 79, 0
2, 146790, Note_on_c, 0, 82, 109
2, 146825, Note_on_c, 0, 82, 0
2, 146835, Note_on_c, 0, 79, 91
2, 146870, Note_on_c, 0, 79, 0
2, 146880, Note_on_c, 0, 74, 0
2, 146880, Note_on_c, 0, 82, 109
2, 146880, Note_on_c, 0, 75, 112
2, 146915, Note_on_c, 0, 82, 0
2, 146925, Note_on_c, 0, 79, 91
2, 146960, Note_on_c, 0, 79, 0
2, 146970, Note_on_c, 0, 82, 109
2, 147005, Note_on_c, 0, 82, 0
2, 147015, Note_on_c, 0, 79, 91
2, 147050, Note_on_c, 0, 79, 0
2, 147060, Note_on_c, 0, 75, 0
2, 147060, Note_on_c, 0, 82, 109
2, 147060, Note_on_c, 0, 83, 110
2, 147060, Note_on_c, 0, 71, 105
2, 147095, Note_on_c, 0, 83, 0
2, 147095, Note_on_c, 0, 82, 0
2, 147105, Note_on_c, 0, 78, 84
2, 147140, Note_on_c, 0, 78, 0
2, 147150, Note_on_c, 0, 83, 110
2, 147185, Note_on_c, 0, 83, 0
2, 147195, Note_on_c, 0, 78, 84
2, 147230, Note_on_c, 0, 78, 0
2, 147240, Note_on_c, 0, 71, 0
2, 147240, Note_on_c, 0, 83, 110
2, 147240, Note_on_c, 0, 73, 112
2, 147275, Note_on_c, 0, 83, 0
2, 147285, Note_on_c, 0, 78, 84
2, 147320, Note_on_c, 0, 78, 0
2, 147330, Note_on_c, 0, 83, 110
2, 147365, Note_on_c, 0, 83, 0
2, 147375, Note_on_c, 0, 78, 84
2, 147410, Note_on_c, 0, 78, 0
2, 147420, Note_on_c, 0, 73, 0
2, 147420, Note_on_c, 0, 83, 110
2, 147420, Note_on_c, 0, 74, 112
2, 147455, Note_on_c, 0, 83, 0
2, 147465, Note_on_c, 0, 78, 84
2, 147500, Note_on_c, 0, 78, 0
2, 147510, Note_on_c, 0, 83, 110
2, 147545, Note_on_c, 0, 83, 0
2, 147555, Note_on_c, 0, 78, 84
2, 147590, Note_on_c, 0, 78, 0
2, 147600, Note_on_c, 0, 74, 0
2, 147600, Note_on_c, 0, 83, 110
2, 147600, Note_on_c, 0, 82, 111
2, 147600, Note_on_c, 0, 75, 112
2, 147635, Note_on_c, 0, 82, 0
2, 147635, Note_on_c, 0, 83, 0
2, 147645, Note_on_c, 0, 79, 92
2, 147680, Note_on_c, 0, 79, 0
2, 147690, Note_on_c, 0, 82, 111
2, 147725, Note_on_c, 0, 82, 0
2, 147735, Note_on_c, 0, 79, 92
2, 147770, Note_on_c, 0, 79, 0
2, 147780, Note_on_c, 0, 75, 0
2, 147780, Note_on_c, 0, 82, 111
2, 147780, Note_on_c, 0, 74, 112
2, 147815, Note_on_c, 0, 82, 0
2, 147825, Note_on_c, 0, 79, 92
2, 147860, Note_on_c, 0, 79, 0
2, 147870, Note_on_c, 0, 82, 111
2, 147905, Note_on_c, 0, 82, 0
2, 147915, Note_on_c, 0, 79, 92
2, 147950, Note_on_c, 0, 79, 0
2, 147960, Note_on_c, 0, 74, 0
2, 147960, Note_on_c, 0, 82, 111
2, 147960, Note_on_c, 0, 75, 112
2, 147995, Note_on_c, 0, 82, 0
2, 148005, Note_on_c, 0, 79, 92
2, 148040, Note_on_c, 0, 79, 0
2, 148050, Note_on_c, 0, 82, 111
2, 148085, Note_on_c, 0, 82, 0
2, 148095, Note_on_c, 0, 79, 92
2, 148130, Note_on_c, 0, 79, 0
2, 148140, Note_on_c, 0, 75, 0
2, 148140, Note_on_c, 0, 82, 111
2, 148140, Note_on_c, 0, 83, 109
2, 148140, Note_on_c, 0, 71, 110
2, 148175, Note_on_c, 0, 83, 0
2, 148175, Note_on_c, 0, 82, 0
2, 148185, Note_on_c, 0, 78, 86
2, 148220, Note_on_c, 0, 78, 0
2, 148230, Note_on_c, 0, 83, 109
2, 148265, Note_on_c, 0, 83, 0
2, 148275, Note_on_c, 0, 78, 86
2, 148310, Note_on_c, 0, 78, 0
2, 148320, Note_on_c, 0, 71, 0
2, 148320, Note_on_c, 0, 83, 109
2, 148320, Note_on_c, 0, 73, 112
2, 148355, Note_on_c, 0, 83, 0
2, 148365, Note_on_c, 0, 78, 86
2, 148400, Note_on_c, 0, 78, 0
2, 148410, Note_on_c, 0, 83, 109
2, 148445, Note_on_c, 0, 83, 0
2, 148455, Note_on_c, 0, 78, 86
2, 148490, Note_on_c, 0, 78, 0
2, 148500, Note_on_c, 0, 73, 0
2, 148500, Note_on_c, 0, 83, 109
2, 148500, Note_on_c, 0, 74, 112
2, 148535, Note_on_c, 0, 83, 0
2, 148545, Note_on_c, 0, 78, 86
2, 148580, Note_on_c, 0, 78, 0
2, 148590, Note_on_c, 0, 83, 109
2, 148625, Note_on_c, 0, 83, 0
2, 148635, Note_on_c, 0, 78, 86
2, 148670, Note_on_c, 0, 78, 0
2, 148680, Note_on_c, 0, 74, 0
2, 148680, Note_on_c, 0, 82, 105
2, 148680, Note_on_c, 0, 75, 112
2, 148715, Note_on_c, 0, 82, 0
2, 148725, Note_on_c, 0, 79, 88
2, 148760, Note_on_c, 0, 79, 0
2, 148770, Note_on_c, 0, 82, 105
2, 148805, Note_on_c, 0, 82, 0
2, 148815, Note_on_c, 0, 79, 88
2, 148850, Note_on_c, 0, 79, 0
2, 148860, Note_on_c, 0, 75, 0
2, 148860, Note_on_c, 0, 82, 105
2, 148895, Note_on_c, 0, 82, 0
2, 148905, Note_on_c, 0, 79, 88
2, 148940, Note_on_c, 0, 79, 0
2, 148950, Note_on_c, 0, 82, 105
2, 148985, Note_on_c, 0, 82, 0
2, 148995, Note_on_c, 0, 79, 88
2, 149030, Note_on_c, 0, 79, 0
2, 149040, Note_on_c, 0, 82, 105
2, 149075, Note_on_c, 0, 82, 0
2, 149085, Note_on_c, 0, 79, 88
2, 149120, Note_on_c, 0, 79, 0
2, 149130, Note_on_c, 0, 82, 105
2, 149165, Note_on_c, 0, 82, 0
2, 149175, Note_on_c, 0, 79, 88
2, 149210, Note_on_c, 0, 79, 0
2, 149220, Note_on_c, 0, 82, 105
2, 149220, Note_on_c, 0, 91, 110
2, 149220, Note_on_c, 0, 94, 110
2, 149220, Note_on_c, 0, 75, 84
2, 149220, Note_on_c, 0, 79, 84
2, 149255, Note_on_c, 0, 79, 0
2, 149255, Note_on_c, 0, 94, 0
2, 149255, Note_on_c, 0, 82, 0
2, 149255, Note_on_c, 0, 91, 0
2, 149255, Note_on_c, 0, 75, 0
2, 149265, Note_on_c, 0, 87, 82
2, 149265, Note_on_c, 0, 82, 103
2, 149300, Note_on_c, 0, 82, 0
2, 149300, Note_on_c, 0, 87, 0
2, 149310, Note_on_c, 0, 91, 110
2, 149310, Note_on_c, 0, 94, 110
2, 149310, Note_on_c, 0, 75, 84
2, 149310, Note_on_c, 0, 79, 84
2, 149345, Note_on_c, 0, 79, 0
2, 149345, Note_on_c, 0, 91, 0
2, 149345, Note_on_c, 0, 94, 0
2, 149345, Note_on_c, 0, 75, 0
2, 149355, Note_on_c, 0, 87, 82
2, 149355, Note_on_c, 0, 82, 103
2, 149390, Note_on_c, 0, 82, 0
2, 149390, Note_on_c, 0, 87, 0
2, 149400, Note_on_c, 0, 91, 110
2, 149400, Note_on_c, 0, 94, 110
2, 149400, Note_on_c, 0, 75, 84
2, 149400, Note_on_c, 0, 79, 84
2, 149435, Note_on_c, 0, 79, 0
2, 149435, Note_on_c, 0, 91, 0
2, 149435, Note_on_c, 0, 94, 0
2, 149435, Note_on_c, 0, 75, 0
2, 149445, Note_on_c, 0, 87, 82
2, 149445, Note_on_c, 0, 82, 103
2, 149480, Note_on_c, 0, 82, 0
2, 149480, Note_on_c, 0, 87, 0
2, 149490, Note_on_c, 0, 91, 110
2, 149490, Note_on_c, 0, 94, 110
2, 149490, Note_on_c, 0, 75, 84
2, 149490, Note_on_c, 0, 79, 84
2, 149525, Note_on_c, 0, 79, 0
2, 149525, Note_on_c, 0, 91, 0
2, 149525, Note_on_c, 0, 94, 0
2, 149525, Note_on_c, 0, 75, 0
2, 149535, Note_on_c, 0, 87, 82
2, 149535, Note_on_c, 0, 82, 103
2, 149570, Note_on_c, 0, 82, 0
2, 149570, Note_on_c, 0, 87, 0
2, 149580, Note_on_c, 0, 91, 110
2, 149580, Note_on_c, 0, 94, 110
2, 149580, Note_on_c, 0, 75, 84
2, 149580, Note_on_c, 0, 79, 84
2, 149615, Note_on_c, 0, 79, 0
2, 149615, Note_on_c, 0, 91, 0
2, 149615, Note_on_c, 0, 94, 0
2, 149615, Note_on_c, 0, 75, 0
2, 149625, Note_on_c, 0, 87, 82
2, 149625, Note_on_c, 0, 82, 103
2, 149660, Note_on_c, 0, 82, 0
2, 149660, Note_on_c, 0, 87, 0
2, 149670, Note_on_c, 0, 91, 110
2, 149670, Note_on_c, 0, 94, 110
2, 149670, Note_on_c, 0, 75, 84
2, 149670, Note_on_c, 0, 79, 84
2, 149705, Note_on_c, 0, 79, 0
2, 149705, Note_on_c, 0, 91, 0
2, 149705, Note_on_c, 0, 94, 0
2, 149705, Note_on_c, 0, 75, 0
2, 149715, Note_on_c, 0, 87, 82
2, 149715, Note_on_c, 0, 82, 103
2, 149750, Note_on_c, 0, 82, 0
2, 149750, Note_on_c, 0, 87, 0
2, 149760, Note_on_c, 0, 91, 110
2, 149760, Note_on_c, 0, 94, 110
2, 149760, Note_on_c, 0, 87, 105
2, 149760, Note_on_c, 0, 91, 105
2, 149760, Note_on_c, 0, 75, 84
2, 149760, Note_on_c, 0, 79, 84
2, 149760, Note_on_c, 0, 70, 79
2, 149760, Note_on_c, 0, 75, 79
2, 149795, Note_on_c, 0, 75, 0
2, 149795, Note_on_c, 0, 91, 0
2, 149795, Note_on_c, 0, 75, 0
2, 149795, Note_on_c, 0, 94, 0
2, 149795, Note_on_c, 0, 87, 0
2, 149795, Note_on_c, 0, 91, 0
2, 149795, Note_on_c, 0, 79, 0
2, 149795, Note_on_c, 0, 70, 0
2, 149805, Note_on_c, 0, 82, 73
2, 149805, Note_on_c, 0, 79, 108
2, 149840, Note_on_c, 0, 79, 0
2, 149840, Note_on_c, 0, 82, 0
2, 149850, Note_on_c, 0, 87, 105
2, 149850, Note_on_c, 0, 91, 105
2, 149850, Note_on_c, 0, 70, 79
2, 149850, Note_on_c, 0, 75, 79
2, 149885, Note_on_c, 0, 75, 0
2, 149885, Note_on_c, 0, 87, 0
2, 149885, Note_on_c, 0, 91, 0
2, 149885, Note_on_c, 0, 70, 0
2, 149895, Note_on_c, 0, 82, 73
2, 149895, Note_on_c, 0, 79, 108
2, 149930, Note_on_c, 0, 79, 0
2, 149930, Note_on_c, 0, 82, 0
2, 149940, Note_on_c, 0, 87, 105
2, 149940, Note_on_c, 0, 91, 105
2, 149940, Note_on_c, 0, 70, 79
2, 149940, Note_on_c, 0, 75, 79
2, 149975, Note_on_c, 0, 75, 0
2, 149975, Note_on_c, 0, 87, 0
2, 149975, Note_on_c, 0, 91, 0
2, 149975, Note_on_c, 0, 70, 0
2, 149985, Note_on_c, 0, 82, 73
2, 149985, Note_on_c, 0, 79, 108
2, 150020, Note_on_c, 0, 79, 0
2, 150020, Note_on_c, 0, 82, 0
2, 150030, Note_on_c, 0, 87, 105
2, 150030, Note_on_c, 0, 91, 105
2, 150030, Note_on_c, 0, 70, 79
2, 150030, Note_on_c, 0, 75, 79
2, 150065, Note_on_c, 0, 75, 0
2, 150065, Note_on_c, 0, 87, 0
2, 150065, Note_on_c, 0, 91, 0
2, 150065, Note_on_c, 0, 70, 0
2, 150075, Note_on_c, 0, 82, 73
2, 150075, Note_on_c, 0, 79, 108
2, 150110, Note_on_c, 0, 79, 0
2, 150110, Note_on_c, 0, 82, 0
2, 150120, Note_on_c, 0, 87, 105
2, 150120, Note_on_c, 0, 91, 105
2, 150120, Note_on_c, 0, 70, 79
2, 150120, Note_on_c, 0, 75, 79
2, 150155, Note_on_c, 0, 75, 0
2, 150155, Note_on_c, 0, 87, 0
2, 150155, Note_on_c, 0, 91, 0
2, 150155, Note_on_c, 0, 70, 0
2, 150165, Note_on_c, 0, 82, 73
2, 150165, Note_on_c, 0, 79, 108
2, 150200, Note_on_c, 0, 79, 0
2, 150200, Note_on_c, 0, 82, 0
2, 150210, Note_on_c, 0, 87, 105
2, 150210, Note_on_c, 0, 91, 105
2, 150210, Note_on_c, 0, 70, 79
2, 150210, Note_on_c, 0, 75, 79
2, 150245, Note_on_c, 0, 75, 0
2, 150245, Note_on_c, 0, 87, 0
2, 150245, Note_on_c, 0, 91, 0
2, 150245, Note_on_c, 0, 70, 0
2, 150255, Note_on_c, 0, 82, 73
2, 150255, Note_on_c, 0, 79, 108
2, 150290, Note_on_c, 0, 79, 0
2, 150290, Note_on_c, 0, 82, 0
2, 150300, Note_on_c, 0, 87, 105
2, 150300, Note_on_c, 0, 91, 105
2, 150300, Note_on_c, 0, 82, 110
2, 150300, Note_on_c, 0, 87, 110
2, 150300, Note_on_c, 0, 70, 79
2, 150300, Note_on_c, 0, 75, 79
2, 150300, Note_on_c, 0, 67, 72
2, 150300, Note_on_c, 0, 70, 72
2, 150335, Note_on_c, 0, 70, 0
2, 150335, Note_on_c, 0, 87, 0
2, 150335, Note_on_c, 0, 70, 0
2, 150335, Note_on_c, 0, 91, 0
2, 150335, Note_on_c, 0, 82, 0
2, 150335, Note_on_c, 0, 87, 0
2, 150335, Note_on_c, 0, 75, 0
2, 150335, Note_on_c, 0, 67, 0
2, 150345, Note_on_c, 0, 79, 78
2, 150345, Note_on_c, 0, 75, 110
2, 150380, Note_on_c, 0, 75, 0
2, 150380, Note_on_c, 0, 79, 0
2, 150390, Note_on_c, 0, 82, 110
2, 150390, Note_on_c, 0, 87, 110
2, 150390, Note_on_c, 0, 67, 72
2, 150390, Note_on_c, 0, 70, 72
2, 150425, Note_on_c, 0, 70, 0
2, 150425, Note_on_c, 0, 82, 0
2, 150425, Note_on_c, 0, 87, 0
2, 150425, Note_on_c, 0, 67, 0
2, 150435, Note_on_c, 0, 79, 78
2, 150435, Note_on_c, 0, 75, 110
2, 150470, Note_on_c, 0, 75, 0
2, 150470, Note_on_c, 0, 79, 0
2, 150480, Note_on_c, 0, 82, 110
2, 150480, Note_on_c, 0, 87, 110
2, 150480, Note_on_c, 0, 67, 72
2, 150480, Note_on_c, 0, 70, 72
2, 150515, Note_on_c, 0, 70, 0
2, 150515, Note_on_c, 0, 82, 0
2, 150515, Note_on_c, 0, 87, 0
2, 150515, Note_on_c, 0, 67, 0
2, 150525, Note_on_c, 0, 79, 78
2, 150525, Note_on_c, 0, 75, 110
2, 150560, Note_on_c, 0, 75, 0
2, 150560, Note_on_c, 0, 79, 0
2, 150570, Note_on_c, 0, 82, 110
2, 150570, Note_on_c, 0, 87, 110
2, 150570, Note_on_c, 0, 67, 72
2, 150570, Note_on_c, 0, 70, 72
2, 150605, Note_on_c, 0, 70, 0
2, 150605, Note_on_c, 0, 82, 0
2, 150605, Note_on_c, 0, 87, 0
2, 150605, Note_on_c, 0, 67, 0
2, 150615, Note_on_c, 0, 79, 78
2, 150615, Note_on_c, 0, 75, 110
2, 150650, Note_on_c, 0, 75, 0
2, 150650, Note_on_c, 0, 79, 0
2, 150660, Note_on_c, 0, 82, 110
2, 150660, Note_on_c, 0, 87, 110
2, 150660, Note_on_c, 0, 67, 72
2, 150660, Note_on_c, 0, 70, 72
2, 150695, Note_on_c, 0, 70, 0
2, 150695, Note_on_c, 0, 82, 0
2, 150695, Note_on_c, 0, 87, 0
2, 150695, Note_on_c, 0, 67, 0
2, 150705, Note_on_c, 0, 79, 78
2, 150705, Note_on_c, 0, 75, 110
2, 150740, Note_on_c, 0, 75, 0
2, 150740, Note_on_c, 0, 79, 0
2, 150750, Note_on_c, 0, 82, 110
2, 150750, Note_on_c, 0, 87, 110
2, 150750, Note_on_c, 0, 67, 72
2, 150750, Note_on_c, 0, 70, 72
2, 150785, Note_on_c, 0, 70, 0
2, 150785, Note_on_c, 0, 82, 0
2, 150785, Note_on_c, 0, 87, 0
2, 150785, Note_on_c, 0, 67, 0
2, 150795, Note_on_c, 0, 79, 78
2, 150795, Note_on_c, 0, 75, 110
2, 150830, Note_on_c, 0, 75, 0
2, 150830, Note_on_c, 0, 79, 0
2, 150840, Note_on_c, 0, 79, 111
2, 150840, Note_on_c, 0, 82, 111
2, 150840, Note_on_c, 0, 63, 76
2, 150840, Note_on_c, 0, 67, 76
2, 150875, Note_on_c, 0, 67, 0
2, 150875, Note_on_c, 0, 79, 0
2, 150875, Note_on_c, 0, 82, 0
2, 150875, Note_on_c, 0, 63, 0
2, 150885, Note_on_c, 0, 75, 83
2, 150885, Note_on_c, 0, 70, 104
2, 150920, Note_on_c, 0, 70, 0
2, 150920, Note_on_c, 0, 75, 0
2, 150930, Note_on_c, 0, 79, 111
2, 150930, Note_on_c, 0, 82, 111
2, 150930, Note_on_c, 0, 63, 76
2, 150930, Note_on_c, 0, 67, 76
2, 150965, Note_on_c, 0, 67, 0
2, 150965, Note_on_c, 0, 79, 0
2, 150965, Note_on_c, 0, 82, 0
2, 150965, Note_on_c, 0, 63, 0
2, 150975, Note_on_c, 0, 75, 83
2, 150975, Note_on_c, 0, 70, 104
2, 151010, Note_on_c, 0, 70, 0
2, 151010, Note_on_c, 0, 75, 0
2, 151020, Note_on_c, 0, 79, 111
2, 151020, Note_on_c, 0, 82, 111
2, 151020, Note_on_c, 0, 63, 76
2, 151020, Note_on_c, 0, 67, 76
2, 151055, Note_on_c, 0, 67, 0
2, 151055, Note_on_c, 0, 79, 0
2, 151055, Note_on_c, 0, 82, 0
2, 151055, Note_on_c, 0, 63, 0
2, 151065, Note_on_c, 0, 75, 83
2, 151065, Note_on_c, 0, 70, 104
2, 151100, Note_on_c, 0, 70, 0
2, 151100, Note_on_c, 0, 75, 0
2, 151110, Note_on_c, 0, 79, 111
2, 151110, Note_on_c, 0, 82, 111
2, 151110, Note_on_c, 0, 63, 76
2, 151110, Note_on_c, 0, 67, 76
2, 151145, Note_on_c, 0, 67, 0
2, 151145, Note_on_c, 0, 79, 0
2, 151145, Note_on_c, 0, 82, 0
2, 151145, Note_on_c, 0, 63, 0
2, 151155, Note_on_c, 0, 75, 83
2, 151155, Note_on_c, 0, 70, 104
2, 151190, Note_on_c, 0, 70, 0
2, 151190, Note_on_c, 0, 75, 0
2, 151200, Note_on_c, 0, 79, 111
2, 151200, Note_on_c, 0, 82, 111
2, 151200, Note_on_c, 0, 63, 76
2, 151200, Note_on_c, 0, 67, 76
2, 151235, Note_on_c, 0, 67, 0
2, 151235, Note_on_c, 0, 79, 0
2, 151235, Note_on_c, 0, 82, 0
2, 151235, Note_on_c, 0, 63, 0
2, 151245, Note_on_c, 0, 75, 83
2, 151245, Note_on_c, 0, 70, 104
2, 151280, Note_on_c, 0, 70, 0
2, 151280, Note_on_c, 0, 75, 0
2, 151290, Note_on_c, 0, 79, 111
2, 151290, Note_on_c, 0, 82, 111
2, 151290, Note_on_c, 0, 63, 76
2, 151290, Note_on_c, 0, 67, 76
2, 151325, Note_on_c, 0, 67, 0
2, 151325, Note_on_c, 0, 79, 0
2, 151325, Note_on_c, 0, 82, 0
2, 151325, Note_on_c, 0, 63, 0
2, 151335, Note_on_c, 0, 75, 83
2, 151335, Note_on_c, 0, 70, 104
2, 151370, Note_on_c, 0, 70, 0
2, 151370, Note_on_c, 0, 75, 0
2, 151380, Note_on_c, 0, 79, 111
2, 151380, Note_on_c, 0, 82, 111
2, 151380, Note_on_c, 0, 82, 111
2, 151380, Note_on_c, 0, 87, 111
2, 151380, Note_on_c, 0, 63, 76
2, 151380, Note_on_c, 0, 67, 76
2, 151380, Note_on_c, 0, 67, 99
2, 151380, Note_on_c, 0, 70, 99
2, 151415, Note_on_c, 0, 70, 0
2, 151415, Note_on_c, 0, 79, 0
2, 151415, Note_on_c, 0, 63, 0
2, 151415, Note_on_c, 0, 82, 0
2, 151415, Note_on_c, 0, 82, 0
2, 151415, Note_on_c, 0, 87, 0
2, 151415, Note_on_c, 0, 67, 0
2, 151415, Note_on_c, 0, 67, 0
2, 151425, Note_on_c, 0, 79, 82
2, 151425, Note_on_c, 0, 75, 111
2, 151460, Note_on_c, 0, 75, 0
2, 151460, Note_on_c, 0, 79, 0
2, 151470, Note_on_c, 0, 82, 111
2, 151470, Note_on_c, 0, 87, 111
2, 151470, Note_on_c, 0, 67, 99
2, 151470, Note_on_c, 0, 70, 99
2, 151505, Note_on_c, 0, 70, 0
2, 151505, Note_on_c, 0, 82, 0
2, 151505, Note_on_c, 0, 87, 0
2, 151505, Note_on_c, 0, 67, 0
2, 151515, Note_on_c, 0, 79, 82
2, 151515, Note_on_c, 0, 75, 111
2, 151550, Note_on_c, 0, 75, 0
2, 151550, Note_on_c, 0, 79, 0
2, 151560, Note_on_c, 0, 82, 111
2, 151560, Note_on_c, 0, 87, 111
2, 151560, Note_on_c, 0, 67, 99
2, 151560, Note_on_c, 0, 70, 99
2, 151595, Note_on_c, 0, 70, 0
2, 151595, Note_on_c, 0, 82, 0
2, 151595, Note_on_c, 0, 87, 0
2, 151595, Note_on_c, 0, 67, 0
2, 151605, Note_on_c, 0, 79, 82
2, 151605, Note_on_c, 0, 75, 111
2, 151640, Note_on_c, 0, 75, 0
2, 151640, Note_on_c, 0, 79, 0
2, 151650, Note_on_c, 0, 82, 111
2, 151650, Note_on_c, 0, 87, 111
2, 151650, Note_on_c, 0, 67, 99
2, 151650, Note_on_c, 0, 70, 99
2, 151685, Note_on_c, 0, 70, 0
2, 151685, Note_on_c, 0, 82, 0
2, 151685, Note_on_c, 0, 87, 0
2, 151685, Note_on_c, 0, 67, 0
2, 151695, Note_on_c, 0, 79, 82
2, 151695, Note_on_c, 0, 75, 111
2, 151730, Note_on_c, 0, 75, 0
2, 151730, Note_on_c, 0, 79, 0
2, 151740, Note_on_c, 0, 82, 111
2, 151740, Note_on_c, 0, 87, 111
2, 151740, Note_on_c, 0, 67, 99
2, 151740, Note_on_c, 0, 70, 99
2, 151775, Note_on_c, 0, 70, 0
2, 151775, Note_on_c, 0, 82, 0
2, 151775, Note_on_c, 0, 87, 0
2, 151775, Note_on_c, 0, 67, 0
2, 151785, Note_on_c, 0, 79, 82
2, 151785, Note_on_c, 0, 75, 111
2, 151820, Note_on_c, 0, 75, 0
2, 151820, Note_on_c, 0, 79, 0
2, 151830, Note_on_c, 0, 82, 111
2, 151830, Note_on_c, 0, 87, 111
2, 151830, Note_on_c, 0, 67, 99
2, 151830, Note_on_c, 0, 70, 99
2, 151865, Note_on_c, 0, 70, 0
2, 151865, Note_on_c, 0, 82, 0
2, 151865, Note_on_c, 0, 87, 0
2, 151865, Note_on_c, 0, 67, 0
2, 151875, Note_on_c, 0, 79, 82
2, 151875, Note_on_c, 0, 75, 111
2, 151910, Note_on_c, 0, 75, 0
2, 151910, Note_on_c, 0, 79, 0
2, 151920, Note_on_c, 0, 82, 111
2, 151920, Note_on_c, 0, 87, 111
2, 151920, Note_on_c, 0, 79, 105
2, 151920, Note_on_c, 0, 82, 105
2, 151920, Note_on_c, 0, 67, 99
2, 151920, Note_on_c, 0, 70, 99
2, 151920, Note_on_c, 0, 63, 79
2, 151920, Note_on_c, 0, 67, 79
2, 151955, Note_on_c, 0, 67, 0
2, 151955, Note_on_c, 0, 82, 0
2, 151955, Note_on_c, 0, 67, 0
2, 151955, Note_on_c, 0, 87, 0
2, 151955, Note_on_c, 0, 79, 0
2, 151955, Note_on_c, 0, 82, 0
2, 151955, Note_on_c, 0, 70, 0
2, 151955, Note_on_c, 0, 63, 0
2, 151965, Note_on_c, 0, 75, 82
2, 151965, Note_on_c, 0, 70, 109
2, 152000, Note_on_c, 0, 70, 0
2, 152000, Note_on_c, 0, 75, 0
2, 152010, Note_on_c, 0, 79, 105
2, 152010, Note_on_c, 0, 82, 105
2, 152010, Note_on_c, 0, 63, 79
2, 152010, Note_on_c, 0, 67, 79
2, 152045, Note_on_c, 0, 67, 0
2, 152045, Note_on_c, 0, 79, 0
2, 152045, Note_on_c, 0, 82, 0
2, 152045, Note_on_c, 0, 63, 0
2, 152055, Note_on_c, 0, 75, 82
2, 152055, Note_on_c, 0, 70, 109
2, 152090, Note_on_c, 0, 70, 0
2, 152090, Note_on_c, 0, 75, 0
2, 152100, Note_on_c, 0, 79, 105
2, 152100, Note_on_c, 0, 82, 105
2, 152100, Note_on_c, 0, 63, 79
2, 152100, Note_on_c, 0, 67, 79
2, 152135, Note_on_c, 0, 67, 0
2, 152135, Note_on_c, 0, 79, 0
2, 152135, Note_on_c, 0, 82, 0
2, 152135, Note_on_c, 0, 63, 0
2, 152145, Note_on_c, 0, 75, 82
2, 152145, Note_on_c, 0, 70, 109
2, 152180, Note_on_c, 0, 70, 0
2, 152180, Note_on_c, 0, 75, 0
2, 152190, Note_on_c, 0, 79, 105
2, 152190, Note_on_c, 0, 82, 105
2, 152190, Note_on_c, 0, 63, 79
2, 152190, Note_on_c, 0, 67, 79
2, 152225, Note_on_c, 0, 67, 0
2, 152225, Note_on_c, 0, 79, 0
2, 152225, Note_on_c, 0, 82, 0
2, 152225, Note_on_c, 0, 63, 0
2, 152235, Note_on_c, 0, 75, 82
2, 152235, Note_on_c, 0, 70, 109
2, 152270, Note_on_c, 0, 70, 0
2, 152270, Note_on_c, 0, 75, 0
2, 152280, Note_on_c, 0, 79, 105
2, 152280, Note_on_c, 0, 82, 105
2, 152280, Note_on_c, 0, 63, 79
2, 152280, Note_on_c, 0, 67, 79
2, 152315, Note_on_c, 0, 67, 0
2, 152315, Note_on_c, 0, 79, 0
2, 152315, Note_on_c, 0, 82, 0
2, 152315, Note_on_c, 0, 63, 0
2, 152325, Note_on_c, 0, 75, 82
2, 152325, Note_on_c, 0, 70, 109
2, 152360, Note_on_c, 0, 70, 0
2, 152360, Note_on_c, 0, 75, 0
2, 152370, Note_on_c, 0, 79, 105
2, 152370, Note_on_c, 0, 82, 105
2, 152370, Note_on_c, 0, 63, 79
2, 152370, Note_on_c, 0, 67, 79
2, 152405, Note_on_c, 0, 67, 0
2, 152405, Note_on_c, 0, 79, 0
2, 152405, Note_on_c, 0, 82, 0
2, 152405, Note_on_c, 0, 63, 0
2, 152415, Note_on_c, 0, 75, 82
2, 152415, Note_on_c, 0, 70, 109
2, 152450, Note_on_c, 0, 70, 0
2, 152450, Note_on_c, 0, 75, 0
2, 152460, Note_on_c, 0, 79, 105
2, 152460, Note_on_c, 0, 82, 105
2, 152460, Note_on_c, 0, 75, 106
2, 152460, Note_on_c, 0, 79, 106
2, 152460, Note_on_c, 0, 63, 79
2, 152460, Note_on_c, 0, 67, 79
2, 152460, Note_on_c, 0, 63, 81
2, 152495, Note_on_c, 0, 63, 0
2, 152495, Note_on_c, 0, 63, 0
2, 152495, Note_on_c, 0, 82, 0
2, 152495, Note_on_c, 0, 75, 0
2, 152495, Note_on_c, 0, 79, 0
2, 152495, Note_on_c, 0, 67, 0
2, 152495, Note_on_c, 0, 79, 0
2, 152505, Note_on_c, 0, 70, 73
2, 152505, Note_on_c, 0, 67, 105
2, 152540, Note_on_c, 0, 67, 0
2, 152540, Note_on_c, 0, 70, 0
2, 152550, Note_on_c, 0, 75, 106
2, 152550, Note_on_c, 0, 79, 106
2, 152550, Note_on_c, 0, 63, 81
2, 152585, Note_on_c, 0, 63, 0
2, 152585, Note_on_c, 0, 79, 0
2, 152585, Note_on_c, 0, 75, 0
2, 152595, Note_on_c, 0, 70, 73
2, 152595, Note_on_c, 0, 67, 105
2, 152630, Note_on_c, 0, 67, 0
2, 152630, Note_on_c, 0, 70, 0
2, 152640, Note_on_c, 0, 75, 106
2, 152640, Note_on_c, 0, 79, 106
2, 152640, Note_on_c, 0, 63, 81
2, 152675, Note_on_c, 0, 63, 0
2, 152675, Note_on_c, 0, 79, 0
2, 152675, Note_on_c, 0, 75, 0
2, 152685, Note_on_c, 0, 70, 73
2, 152685, Note_on_c, 0, 67, 105
2, 152720, Note_on_c, 0, 67, 0
2, 152720, Note_on_c, 0, 70, 0
2, 152730, Note_on_c, 0, 75, 106
2, 152730, Note_on_c, 0, 79, 106
2, 152730, Note_on_c, 0, 63, 81
2, 152765, Note_on_c, 0, 63, 0
2, 152765, Note_on_c, 0, 79, 0
2, 152765, Note_on_c, 0, 75, 0
2, 152775, Note_on_c, 0, 70, 73
2, 152775, Note_on_c, 0, 67, 105
2, 152810, Note_on_c, 0, 67, 0
2, 152810, Note_on_c, 0, 70, 0
2, 152820, Note_on_c, 0, 75, 106
2, 152820, Note_on_c, 0, 79, 106
2, 152820, Note_on_c, 0, 63, 81
2, 152855, Note_on_c, 0, 63, 0
2, 152855, Note_on_c, 0, 79, 0
2, 152855, Note_on_c, 0, 75, 0
2, 152865, Note_on_c, 0, 70, 73
2, 152865, Note_on_c, 0, 67, 105
2, 152900, Note_on_c, 0, 67, 0
2, 152900, Note_on_c, 0, 70, 0
2, 152910, Note_on_c, 0, 75, 106
2, 152910, Note_on_c, 0, 79, 106
2, 152910, Note_on_c, 0, 63, 81
2, 152945, Note_on_c, 0, 63, 0
2, 152945, Note_on_c, 0, 79, 0
2, 152945, Note_on_c, 0, 75, 0
2, 152955, Note_on_c, 0, 70, 73
2, 152955, Note_on_c, 0, 67, 105
2, 152990, Note_on_c, 0, 67, 0
2, 152990, Note_on_c, 0, 70, 0
2, 153000, Note_on_c, 0, 75, 109
2, 153000, Note_on_c, 0, 63, 80
2, 153180, Note_on_c, 0, 63, 0
2, 153180, Note_on_c, 0, 75, 0
2, 154080, Note_on_c, 0, 63, 85
2, 154080, Note_on_c, 0, 55, 81
2, 154080, Note_on_c, 0, 58, 81
2, 155070, Note_on_c, 0, 58, 0
2, 155070, Note_on_c, 0, 55, 0
2, 155070, Note_on_c, 0, 63, 0
2, 155070, Note_on_c, 0, 63, 97
2, 155070, Note_on_c, 0, 55, 94
2, 155070, Note_on_c, 0, 58, 94
2, 155160, Note_on_c, 0, 58, 0
2, 155160, Note_on_c, 0, 55, 0
2, 155160, Note_on_c, 0, 63, 0
2, 155160, Note_on_c, 0, 63, 100
2, 155160, Note_on_c, 0, 55, 98
2, 155160, Note_on_c, 0, 58, 98
2, 156420, Note_on_c, 0, 58, 0
2, 156420, Note_on_c, 0, 55, 0
2, 156420, Note_on_c, 0, 63, 0
2, 156420, End_track
3, 0, Start_track
3, 0, Title_t, "Secondo"
3, 0, Program_c, 0, 0
3, 0, Control_c, 0, 7, 105
3, 0, Control_c, 0, 10, 64
3, 0, Control_c, 0, 91, 60
3, 0, Control_c, 0, 121, 0
3, 0, Control_c, 0, 121, 0
3, 0, Control_c, 0, 91, 60
3, 0, Control_c, 0, 10, 51
3, 0, Control_c, 0, 7, 100
3, 180, Note_on_c, 0, 57, 50
3, 360, Note_on_c, 0, 57, 0
3, 360, Note_on_c, 0, 57, 57
3, 540, Note_on_c, 0, 57, 0
3, 540, Note_on_c, 0, 57, 63
3, 720, Note_on_c, 0, 57, 0
3, 720, Note_on_c, 0, 57, 69
3, 900, Note_on_c, 0, 57, 0
3, 900, Note_on_c, 0, 57, 76
3, 1080, Note_on_c, 0, 57, 0
3, 1080, Note_on_c, 0, 57, 62
3, 1260, Note_on_c, 0, 57, 0
3, 1260, Note_on_c, 0, 56, 60
3, 1260, Note_on_c, 0, 58, 60
3, 1260, Note_on_c, 0, 53, 68
3, 1440, Note_on_c, 0, 53, 0
3, 1440, Note_on_c, 0, 58, 0
3, 1440, Note_on_c, 0, 56, 0
3, 1440, Note_on_c, 0, 56, 67
3, 1440, Note_on_c, 0, 58, 67
3, 1440, Note_on_c, 0, 53, 75
3, 1620, Note_on_c, 0, 53, 0
3, 1620, Note_on_c, 0, 58, 0
3, 1620, Note_on_c, 0, 56, 0
3, 1620, Note_on_c, 0, 56, 73
3, 1620, Note_on_c, 0, 58, 73
3, 1620, Note_on_c, 0, 53, 77
3, 1800, Note_on_c, 0, 53, 0
3, 1800, Note_on_c, 0, 58, 0
3, 1800, Note_on_c, 0, 56, 0
3, 1800, Note_on_c, 0, 56, 79
3, 1800, Note_on_c, 0, 58, 79
3, 1800, Note_on_c, 0, 53, 80
3, 1980, Note_on_c, 0, 53, 0
3, 1980, Note_on_c, 0, 58, 0
3, 1980, Note_on_c, 0, 56, 0
3, 1980, Note_on_c, 0, 56, 86
3, 1980, Note_on_c, 0, 58, 86
3, 1980, Note_on_c, 0, 53, 75
3, 2160, Note_on_c, 0, 53, 0
3, 2160, Note_on_c, 0, 58, 0
3, 2160, Note_on_c, 0, 56, 0
3, 2160, Note_on_c, 0, 56, 85
3, 2160, Note_on_c, 0, 58, 85
3, 2160, Note_on_c, 0, 53, 74
3, 2340, Note_on_c, 0, 53, 0
3, 2340, Note_on_c, 0, 58, 0
3, 2340, Note_on_c, 0, 56, 0
3, 2340, Note_on_c, 0, 56, 83
3, 2340, Note_on_c, 0, 59, 83
3, 2340, Note_on_c, 0, 49, 80
3, 2340, Note_on_c, 0, 53, 80
3, 2520, Note_on_c, 0, 53, 0
3, 2520, Note_on_c, 0, 56, 0
3, 2520, Note_on_c, 0, 59, 0
3, 2520, Note_on_c, 0, 49, 0
3, 2520, Note_on_c, 0, 56, 90
3, 2520, Note_on_c, 0, 59, 90
3, 2520, Note_on_c, 0, 49, 76
3, 2520, Note_on_c, 0, 53, 76
3, 2700, Note_on_c, 0, 53, 0
3, 2700, Note_on_c, 0, 56, 0
3, 2700, Note_on_c, 0, 59, 0
3, 2700, Note_on_c, 0, 49, 0
3, 2700, Note_on_c, 0, 56, 96
3, 2700, Note_on_c, 0, 59, 96
3, 2700, Note_on_c, 0, 49, 74
3, 2700, Note_on_c, 0, 53, 74
3, 2880, Note_on_c, 0, 53, 0
3, 2880, Note_on_c, 0, 56, 0
3, 2880, Note_on_c, 0, 59, 0
3, 2880, Note_on_c, 0, 49, 0
3, 2880, Note_on_c, 0, 56, 102
3, 2880, Note_on_c, 0, 59, 102
3, 2880, Note_on_c, 0, 49, 77
3, 2880, Note_on_c, 0, 53, 77
3, 3060, Note_on_c, 0, 53, 0
3, 3060, Note_on_c, 0, 56, 0
3, 3060, Note_on_c, 0, 59, 0
3, 3060, Note_on_c, 0, 49, 0
3, 3060, Note_on_c, 0, 56, 109
3, 3060, Note_on_c, 0, 59, 109
3, 3060, Note_on_c, 0, 49, 79
3, 3060, Note_on_c, 0, 53, 79
3, 3240, Note_on_c, 0, 53, 0
3, 3240, Note_on_c, 0, 56, 0
3, 3240, Note_on_c, 0, 59, 0
3, 3240, Note_on_c, 0, 49, 0
3, 3240, Note_on_c, 0, 56, 110
3, 3240, Note_on_c, 0, 59, 110
3, 3240, Note_on_c, 0, 49, 74
3, 3240, Note_on_c, 0, 53, 74
3, 3780, Note_on_c, 0, 53, 0
3, 3780, Note_on_c, 0, 56, 0
3, 3780, Note_on_c, 0, 59, 0
3, 3780, Note_on_c, 0, 49, 0
3, 3780, Note_on_c, 0, 53, 112
3, 3780, Note_on_c, 0, 56, 112
3, 3780, Note_on_c, 0, 60, 112
3, 3780, Note_on_c, 0, 44, 68
3, 4320, Note_on_c, 0, 44, 0
3, 4320, Note_on_c, 0, 53, 0
3, 4320, Note_on_c, 0, 56, 0
3, 4320, Note_on_c, 0, 60, 0
3, 4320, Note_on_c, 0, 53, 117
3, 4320, Note_on_c, 0, 56, 117
3, 4320, Note_on_c, 0, 61, 117
3, 4320, Note_on_c, 0, 41, 72
3, 4860, Note_on_c, 0, 41, 0
3, 4860, Note_on_c, 0, 53, 0
3, 4860, Note_on_c, 0, 56, 0
3, 4860, Note_on_c, 0, 61, 0
3, 4860, Note_on_c, 0, 53, 117
3, 4860, Note_on_c, 0, 56, 117
3, 4860, Note_on_c, 0, 62, 117
3, 4860, Note_on_c, 0, 34, 88
3, 4860, Note_on_c, 0, 46, 88
3, 5400, Note_on_c, 0, 46, 0
3, 5400, Note_on_c, 0, 62, 0
3, 5400, Note_on_c, 0, 53, 0
3, 5400, Note_on_c, 0, 56, 0
3, 5400, Note_on_c, 0, 34, 0
3, 5400, Note_on_c, 0, 34, 68
3, 5520, Note_on_c, 0, 34, 0
3, 5520, Note_on_c, 0, 41, 79
3, 5639, Note_on_c, 0, 41, 0
3, 5639, Note_on_c, 0, 46, 83
3, 5760, Note_on_c, 0, 46, 0
3, 5760, Note_on_c, 0, 50, 103
3, 5880, Note_on_c, 0, 50, 0
3, 5880, Note_on_c, 0, 53, 109
3, 5999, Note_on_c, 0, 53, 0
3, 5999, Note_on_c, 0, 56, 112
3, 6120, Note_on_c, 0, 56, 0
3, 6840, Note_on_c, 0, 62, 98
3, 6960, Note_on_c, 0, 62, 0
3, 6960, Note_on_c, 0, 56, 102
3, 7079, Note_on_c, 0, 56, 0
3, 7079, Note_on_c, 0, 53, 106
3, 7200, Note_on_c, 0, 53, 0
3, 7200, Note_on_c, 0, 50, 104
3, 7320, Note_on_c, 0, 50, 0
3, 7320, Note_on_c, 0, 46, 105
3, 7439, Note_on_c, 0, 46, 0
3, 7439, Note_on_c, 0, 41, 99
3, 7560, Note_on_c, 0, 41, 0
3, 7560, Note_on_c, 0, 34, 69
3, 7680, Note_on_c, 0, 34, 0
3, 7680, Note_on_c, 0, 41, 81
3, 7799, Note_on_c, 0, 41, 0
3, 7799, Note_on_c, 0, 46, 82
3, 7920, Note_on_c, 0, 46, 0
3, 7920, Note_on_c, 0, 50, 95
3, 8040, Note_on_c, 0, 50, 0
3, 8040, Note_on_c, 0, 53, 110
3, 8159, Note_on_c, 0, 53, 0
3, 8159, Note_on_c, 0, 56, 113
3, 8280, Note_on_c, 0, 56, 0
3, 9000, Note_on_c, 0, 62, 101
3, 9120, Note_on_c, 0, 62, 0
3, 9120, Note_on_c, 0, 56, 99
3, 9239, Note_on_c, 0, 56, 0
3, 9239, Note_on_c, 0, 53, 109
3, 9360, Note_on_c, 0, 53, 0
3, 9360, Note_on_c, 0, 50, 104
3, 9480, Note_on_c, 0, 50, 0
3, 9480, Note_on_c, 0, 46, 104
3, 9599, Note_on_c, 0, 46, 0
3, 9599, Note_on_c, 0, 41, 98
3, 9720, Note_on_c, 0, 41, 0
3, 9720, Note_on_c, 0, 34, 66
3, 9810, Note_on_c, 0, 34, 0
3, 9810, Note_on_c, 0, 41, 82
3, 9900, Note_on_c, 0, 41, 0
3, 9900, Note_on_c, 0, 44, 79
3, 9990, Note_on_c, 0, 44, 0
3, 9990, Note_on_c, 0, 46, 81
3, 10080, Note_on_c, 0, 46, 0
3, 10080, Note_on_c, 0, 50, 95
3, 10170, Note_on_c, 0, 50, 0
3, 10170, Note_on_c, 0, 53, 116
3, 10260, Note_on_c, 0, 53, 0
3, 10260, Note_on_c, 0, 56, 110
3, 10350, Note_on_c, 0, 56, 0
3, 10350, Note_on_c, 0, 58, 113
3, 10440, Note_on_c, 0, 58, 0
3, 11160, Note_on_c, 0, 62, 100
3, 11250, Note_on_c, 0, 62, 0
3, 11250, Note_on_c, 0, 58, 102
3, 11340, Note_on_c, 0, 58, 0
3, 11340, Note_on_c, 0, 56, 101
3, 11430, Note_on_c, 0, 56, 0
3, 11430, Note_on_c, 0, 53, 104
3, 11520, Note_on_c, 0, 53, 0
3, 11520, Note_on_c, 0, 50, 108
3, 11610, Note_on_c, 0, 50, 0
3, 11610, Note_on_c, 0, 46, 101
3, 11700, Note_on_c, 0, 46, 0
3, 11700, Note_on_c, 0, 44, 104
3, 11790, Note_on_c, 0, 44, 0
3, 11790, Note_on_c, 0, 41, 103
3, 11880, Note_on_c, 0, 41, 0
3, 11880, Note_on_c, 0, 34, 69
3, 11970, Note_on_c, 0, 34, 0
3, 11970, Note_on_c, 0, 41, 79
3, 12060, Note_on_c, 0, 41, 0
3, 12060, Note_on_c, 0, 44, 78
3, 12150, Note_on_c, 0, 44, 0
3, 12150, Note_on_c, 0, 50, 82
3, 12240, Note_on_c, 0, 50, 0
3, 12240, Note_on_c, 0, 53, 95
3, 12330, Note_on_c, 0, 53, 0
3, 12330, Note_on_c, 0, 56, 113
3, 12420, Note_on_c, 0, 56, 0
3, 12420, Note_on_c, 0, 58, 117
3, 12510, Note_on_c, 0, 58, 0
3, 12510, Note_on_c, 0, 62, 125
3, 12600, Note_on_c, 0, 62, 0
3, 13320, Note_on_c, 0, 65, 96
3, 13410, Note_on_c, 0, 65, 0
3, 13410, Note_on_c, 0, 62, 96
3, 13500, Note_on_c, 0, 62, 0
3, 13500, Note_on_c, 0, 58, 100
3, 13590, Note_on_c, 0, 58, 0
3, 13590, Note_on_c, 0, 56, 103
3, 13680, Note_on_c, 0, 56, 0
3, 13680, Note_on_c, 0, 50, 101
3, 13770, Note_on_c, 0, 50, 0
3, 13770, Note_on_c, 0, 46, 99
3, 13860, Note_on_c, 0, 46, 0
3, 13860, Note_on_c, 0, 44, 103
3, 13950, Note_on_c, 0, 44, 0
3, 13950, Note_on_c, 0, 41, 109
3, 14040, Note_on_c, 0, 41, 0
3, 14040, Note_on_c, 0, 34, 67
3, 14220, Note_on_c, 0, 34, 0
3, 14220, Note_on_c, 0, 70, 115
3, 14265, Note_on_c, 0, 70, 0
3, 14265, Note_on_c, 0, 74, 126
3, 14310, Note_on_c, 0, 74, 0
3, 14310, Note_on_c, 0, 77, 126
3, 14355, Note_on_c, 0, 77, 0
3, 14355, Note_on_c, 0, 82, 126
3, 14400, Note_on_c, 0, 82, 0
3, 14400, Note_on_c, 0, 70, 95
3, 14445, Note_on_c, 0, 70, 0
3, 14445, Note_on_c, 0, 74, 126
3, 14490, Note_on_c, 0, 74, 0
3, 14490, Note_on_c, 0, 77, 126
3, 14535, Note_on_c, 0, 77, 0
3, 14535, Note_on_c, 0, 80, 126
3, 14580, Note_on_c, 0, 80, 0
3, 14580, Note_on_c, 0, 68, 72
3, 14625, Note_on_c, 0, 68, 0
3, 14625, Note_on_c, 0, 70, 76
3, 14670, Note_on_c, 0, 70, 0
3, 14670, Note_on_c, 0, 74, 85
3, 14715, Note_on_c, 0, 74, 0
3, 14715, Note_on_c, 0, 77, 84
3, 14760, Note_on_c, 0, 77, 0
3, 14760, Note_on_c, 0, 65, 59
3, 14805, Note_on_c, 0, 65, 0
3, 14805, Note_on_c, 0, 68, 79
3, 14850, Note_on_c, 0, 68, 0
3, 14850, Note_on_c, 0, 70, 80
3, 14895, Note_on_c, 0, 70, 0
3, 14895, Note_on_c, 0, 74, 87
3, 14940, Note_on_c, 0, 74, 0
3, 14940, Note_on_c, 0, 62, 55
3, 14985, Note_on_c, 0, 62, 0
3, 14985, Note_on_c, 0, 65, 78
3, 15030, Note_on_c, 0, 65, 0
3, 15030, Note_on_c, 0, 68, 84
3, 15075, Note_on_c, 0, 68, 0
3, 15075, Note_on_c, 0, 70, 83
3, 15120, Note_on_c, 0, 70, 0
3, 15120, Note_on_c, 0, 58, 65
3, 15165, Note_on_c, 0, 58, 0
3, 15165, Note_on_c, 0, 62, 85
3, 15210, Note_on_c, 0, 62, 0
3, 15210, Note_on_c, 0, 65, 87
3, 15255, Note_on_c, 0, 65, 0
3, 15255, Note_on_c, 0, 68, 83
3, 15300, Note_on_c, 0, 68, 0
3, 15300, Note_on_c, 0, 56, 65
3, 15345, Note_on_c, 0, 56, 0
3, 15345, Note_on_c, 0, 58, 74
3, 15390, Note_on_c, 0, 58, 0
3, 15390, Note_on_c, 0, 62, 86
3, 15435, Note_on_c, 0, 62, 0
3, 15435, Note_on_c, 0, 65, 81
3, 15480, Note_on_c, 0, 65, 0
3, 15480, Note_on_c, 0, 53, 69
3, 15525, Note_on_c, 0, 53, 0
3, 15525, Note_on_c, 0, 56, 77
3, 15570, Note_on_c, 0, 56, 0
3, 15570, Note_on_c, 0, 58, 79
3, 15615, Note_on_c, 0, 58, 0
3, 15615, Note_on_c, 0, 62, 83
3, 15660, Note_on_c, 0, 62, 0
3, 15660, Note_on_c, 0, 50, 70
3, 15705, Note_on_c, 0, 50, 0
3, 15705, Note_on_c, 0, 53, 80
3, 15750, Note_on_c, 0, 53, 0
3, 15750, Note_on_c, 0, 56, 77
3, 15795, Note_on_c, 0, 56, 0
3, 15795, Note_on_c, 0, 58, 78
3, 15840, Note_on_c, 0, 58, 0
3, 15840, Note_on_c, 0, 46, 68
3, 15885, Note_on_c, 0, 46, 0
3, 15885, Note_on_c, 0, 50, 78
3, 15930, Note_on_c, 0, 50, 0
3, 15930, Note_on_c, 0, 53, 81
3, 15975, Note_on_c, 0, 53, 0
3, 15975, Note_on_c, 0, 56, 79
3, 16020, Note_on_c, 0, 56, 0
3, 16020, Note_on_c, 0, 44, 64
3, 16065, Note_on_c, 0, 44, 0
3, 16065, Note_on_c, 0, 46, 74
3, 16110, Note_on_c, 0, 46, 0
3, 16110, Note_on_c, 0, 50, 84
3, 16155, Note_on_c, 0, 50, 0
3, 16155, Note_on_c, 0, 53, 80
3, 16200, Note_on_c, 0, 53, 0
3, 16200, Note_on_c, 0, 41, 66
3, 16245, Note_on_c, 0, 41, 0
3, 16245, Note_on_c, 0, 44, 75
3, 16290, Note_on_c, 0, 44, 0
3, 16290, Note_on_c, 0, 46, 72
3, 16335, Note_on_c, 0, 46, 0
3, 16335, Note_on_c, 0, 50, 79
3, 16380, Note_on_c, 0, 50, 0
3, 16380, Note_on_c, 0, 41, 68
3, 16425, Note_on_c, 0, 41, 0
3, 16425, Note_on_c, 0, 44, 72
3, 16470, Note_on_c, 0, 44, 0
3, 16470, Note_on_c, 0, 46, 79
3, 16515, Note_on_c, 0, 46, 0
3, 16515, Note_on_c, 0, 50, 78
3, 16560, Note_on_c, 0, 50, 0
3, 16560, Note_on_c, 0, 41, 73
3, 16605, Note_on_c, 0, 41, 0
3, 16605, Note_on_c, 0, 44, 82
3, 16650, Note_on_c, 0, 44, 0
3, 16650, Note_on_c, 0, 46, 78
3, 16695, Note_on_c, 0, 46, 0
3, 16695, Note_on_c, 0, 50, 74
3, 16740, Note_on_c, 0, 50, 0
3, 16740, Note_on_c, 0, 41, 63
3, 16785, Note_on_c, 0, 41, 0
3, 16785, Note_on_c, 0, 44, 75
3, 16830, Note_on_c, 0, 44, 0
3, 16830, Note_on_c, 0, 46, 80
3, 16875, Note_on_c, 0, 46, 0
3, 16875, Note_on_c, 0, 50, 81
3, 16920, Note_on_c, 0, 50, 0
3, 16920, Note_on_c, 0, 41, 68
3, 16965, Note_on_c, 0, 41, 0
3, 16965, Note_on_c, 0, 44, 77
3, 17010, Note_on_c, 0, 44, 0
3, 17010, Note_on_c, 0, 46, 73
3, 17055, Note_on_c, 0, 46, 0
3, 17055, Note_on_c, 0, 50, 80
3, 17100, Note_on_c, 0, 50, 0
3, 17100, Note_on_c, 0, 41, 66
3, 17145, Note_on_c, 0, 41, 0
3, 17145, Note_on_c, 0, 44, 77
3, 17190, Note_on_c, 0, 44, 0
3, 17190, Note_on_c, 0, 46, 81
3, 17235, Note_on_c, 0, 46, 0
3, 17235, Note_on_c, 0, 50, 79
3, 17280, Note_on_c, 0, 50, 0
3, 17460, Note_on_c, 0, 62, 109
3, 17460, Note_on_c, 0, 62, 65
3, 17498, Note_on_c, 0, 65, 109
3, 17536, Note_on_c, 0, 70, 109
3, 17640, Note_on_c, 0, 70, 0
3, 17640, Note_on_c, 0, 62, 0
3, 17640, Note_on_c, 0, 62, 0
3, 17640, Note_on_c, 0, 65, 0
3, 17640, Note_on_c, 0, 65, 126
3, 17640, Note_on_c, 0, 65, 80
3, 17678, Note_on_c, 0, 70, 126
3, 17716, Note_on_c, 0, 74, 126
3, 17820, Note_on_c, 0, 74, 0
3, 17820, Note_on_c, 0, 65, 0
3, 17820, Note_on_c, 0, 65, 0
3, 17820, Note_on_c, 0, 70, 0
3, 17820, Note_on_c, 0, 62, 117
3, 17820, Note_on_c, 0, 62, 72
3, 17858, Note_on_c, 0, 65, 117
3, 17896, Note_on_c, 0, 70, 117
3, 18000, Note_on_c, 0, 70, 0
3, 18000, Note_on_c, 0, 62, 0
3, 18000, Note_on_c, 0, 62, 0
3, 18000, Note_on_c, 0, 65, 0
3, 18000, Note_on_c, 0, 65, 126
3, 18000, Note_on_c, 0, 65, 81
3, 18038, Note_on_c, 0, 70, 126
3, 18076, Note_on_c, 0, 74, 126
3, 18180, Note_on_c, 0, 74, 0
3, 18180, Note_on_c, 0, 65, 0
3, 18180, Note_on_c, 0, 65, 0
3, 18180, Note_on_c, 0, 70, 0
3, 18180, Note_on_c, 0, 62, 116
3, 18180, Note_on_c, 0, 62, 69
3, 18218, Note_on_c, 0, 65, 116
3, 18256, Note_on_c, 0, 70, 116
3, 18360, Note_on_c, 0, 70, 0
3, 18360, Note_on_c, 0, 62, 0
3, 18360, Note_on_c, 0, 62, 0
3, 18360, Note_on_c, 0, 65, 0
3, 18360, Note_on_c, 0, 70, 126
3, 18398, Note_on_c, 0, 74, 126
3, 18540, Note_on_c, 0, 74, 0
3, 18540, Note_on_c, 0, 70, 0
3, 19080, Note_on_c, 0, 39, 72
3, 19080, Note_on_c, 0, 51, 72
3, 19260, Note_on_c, 0, 51, 0
3, 19260, Note_on_c, 0, 39, 0
3, 19260, Note_on_c, 0, 58, 71
3, 19260, Note_on_c, 0, 46, 89
3, 19298, Note_on_c, 0, 63, 71
3, 19298, Note_on_c, 0, 51, 89
3, 19336, Note_on_c, 0, 67, 71
3, 19336, Note_on_c, 0, 55, 89
3, 19440, Note_on_c, 0, 55, 0
3, 19440, Note_on_c, 0, 46, 0
3, 19440, Note_on_c, 0, 63, 0
3, 19440, Note_on_c, 0, 58, 0
3, 19440, Note_on_c, 0, 67, 0
3, 19440, Note_on_c, 0, 51, 0
3, 19440, Note_on_c, 0, 63, 88
3, 19440, Note_on_c, 0, 51, 90
3, 19478, Note_on_c, 0, 67, 88
3, 19478, Note_on_c, 0, 55, 90
3, 19516, Note_on_c, 0, 70, 88
3, 19516, Note_on_c, 0, 58, 90
3, 19620, Note_on_c, 0, 58, 0
3, 19620, Note_on_c, 0, 51, 0
3, 19620, Note_on_c, 0, 67, 0
3, 19620, Note_on_c, 0, 63, 0
3, 19620, Note_on_c, 0, 70, 0
3, 19620, Note_on_c, 0, 55, 0
3, 19620, Note_on_c, 0, 67, 95
3, 19620, Note_on_c, 0, 55, 94
3, 19658, Note_on_c, 0, 70, 95
3, 19658, Note_on_c, 0, 58, 94
3, 19696, Note_on_c, 0, 75, 95
3, 19696, Note_on_c, 0, 63, 94
3, 19800, Note_on_c, 0, 63, 0
3, 19800, Note_on_c, 0, 55, 0
3, 19800, Note_on_c, 0, 70, 0
3, 19800, Note_on_c, 0, 67, 0
3, 19800, Note_on_c, 0, 75, 0
3, 19800, Note_on_c, 0, 58, 0
3, 20160, Note_on_c, 0, 39, 69
3, 20160, Note_on_c, 0, 51, 69
3, 20340, Note_on_c, 0, 51, 0
3, 20340, Note_on_c, 0, 39, 0
3, 20340, Note_on_c, 0, 58, 72
3, 20340, Note_on_c, 0, 46, 89
3, 20378, Note_on_c, 0, 63, 72
3, 20378, Note_on_c, 0, 51, 89
3, 20416, Note_on_c, 0, 67, 72
3, 20416, Note_on_c, 0, 55, 89
3, 20520, Note_on_c, 0, 55, 0
3, 20520, Note_on_c, 0, 46, 0
3, 20520, Note_on_c, 0, 63, 0
3, 20520, Note_on_c, 0, 58, 0
3, 20520, Note_on_c, 0, 67, 0
3, 20520, Note_on_c, 0, 51, 0
3, 20520, Note_on_c, 0, 63, 96
3, 20520, Note_on_c, 0, 51, 86
3, 20558, Note_on_c, 0, 67, 96
3, 20558, Note_on_c, 0, 55, 86
3, 20596, Note_on_c, 0, 70, 96
3, 20596, Note_on_c, 0, 58, 86
3, 20700, Note_on_c, 0, 58, 0
3, 20700, Note_on_c, 0, 51, 0
3, 20700, Note_on_c, 0, 67, 0
3, 20700, Note_on_c, 0, 63, 0
3, 20700, Note_on_c, 0, 70, 0
3, 20700, Note_on_c, 0, 55, 0
3, 20700, Note_on_c, 0, 67, 94
3, 20700, Note_on_c, 0, 55, 90
3, 20738, Note_on_c, 0, 70, 94
3, 20738, Note_on_c, 0, 58, 90
3, 20776, Note_on_c, 0, 75, 94
3, 20776, Note_on_c, 0, 63, 90
3, 20880, Note_on_c, 0, 63, 0
3, 20880, Note_on_c, 0, 55, 0
3, 20880, Note_on_c, 0, 70, 0
3, 20880, Note_on_c, 0, 67, 0
3, 20880, Note_on_c, 0, 75, 0
3, 20880, Note_on_c, 0, 58, 0
3, 21240, Note_on_c, 0, 39, 74
3, 21240, Note_on_c, 0, 51, 74
3, 21420, Note_on_c, 0, 51, 0
3, 21420, Note_on_c, 0, 39, 0
3, 21420, Note_on_c, 0, 51, 76
3, 21458, Note_on_c, 0, 55, 76
3, 21496, Note_on_c, 0, 58, 76
3, 21600, Note_on_c, 0, 58, 0
3, 21600, Note_on_c, 0, 55, 0
3, 21600, Note_on_c, 0, 51, 0
3, 21600, Note_on_c, 0, 55, 91
3, 21638, Note_on_c, 0, 58, 91
3, 21676, Note_on_c, 0, 63, 91
3, 21780, Note_on_c, 0, 63, 0
3, 21780, Note_on_c, 0, 58, 0
3, 21780, Note_on_c, 0, 55, 0
3, 21780, Note_on_c, 0, 55, 92
3, 21818, Note_on_c, 0, 58, 92
3, 21856, Note_on_c, 0, 63, 92
3, 21894, Note_on_c, 0, 67, 92
3, 21960, Note_on_c, 0, 67, 0
3, 21960, Note_on_c, 0, 55, 0
3, 21960, Note_on_c, 0, 58, 0
3, 21960, Note_on_c, 0, 63, 0
3, 22320, Note_on_c, 0, 39, 73
3, 22320, Note_on_c, 0, 51, 73
3, 22500, Note_on_c, 0, 51, 0
3, 22500, Note_on_c, 0, 39, 0
3, 22500, Note_on_c, 0, 51, 74
3, 22538, Note_on_c, 0, 55, 74
3, 22576, Note_on_c, 0, 58, 74
3, 22680, Note_on_c, 0, 58, 0
3, 22680, Note_on_c, 0, 55, 0
3, 22680, Note_on_c, 0, 51, 0
3, 22680, Note_on_c, 0, 55, 94
3, 22718, Note_on_c, 0, 58, 94
3, 22756, Note_on_c, 0, 63, 94
3, 22860, Note_on_c, 0, 63, 0
3, 22860, Note_on_c, 0, 58, 0
3, 22860, Note_on_c, 0, 55, 0
3, 22860, Note_on_c, 0, 55, 93
3, 22898, Note_on_c, 0, 58, 93
3, 22936, Note_on_c, 0, 63, 93
3, 22974, Note_on_c, 0, 67, 93
3, 23040, Note_on_c, 0, 67, 0
3, 23040, Note_on_c, 0, 55, 0
3, 23040, Note_on_c, 0, 58, 0
3, 23040, Note_on_c, 0, 63, 0
3, 23400, Note_on_c, 0, 39, 76
3, 23400, Note_on_c, 0, 51, 76
3, 23580, Note_on_c, 0, 51, 0
3, 23580, Note_on_c, 0, 39, 0
3, 23580, Note_on_c, 0, 48, 79
3, 23618, Note_on_c, 0, 53, 79
3, 23656, Note_on_c, 0, 56, 79
3, 23760, Note_on_c, 0, 56, 0
3, 23760, Note_on_c, 0, 53, 0
3, 23760, Note_on_c, 0, 48, 0
3, 23760, Note_on_c, 0, 53, 92
3, 23798, Note_on_c, 0, 56, 92
3, 23836, Note_on_c, 0, 60, 92
3, 23940, Note_on_c, 0, 60, 0
3, 23940, Note_on_c, 0, 56, 0
3, 23940, Note_on_c, 0, 53, 0
3, 23940, Note_on_c, 0, 53, 90
3, 23978, Note_on_c, 0, 60, 90
3, 24016, Note_on_c, 0, 65, 90
3, 24120, Note_on_c, 0, 65, 0
3, 24120, Note_on_c, 0, 60, 0
3, 24120, Note_on_c, 0, 53, 0
3, 24480, Note_on_c, 0, 38, 74
3, 24480, Note_on_c, 0, 50, 74
3, 24660, Note_on_c, 0, 50, 0
3, 24660, Note_on_c, 0, 38, 0
3, 24660, Note_on_c, 0, 50, 74
3, 24698, Note_on_c, 0, 53, 74
3, 24840, Note_on_c, 0, 53, 0
3, 24840, Note_on_c, 0, 50, 0
3, 24840, Note_on_c, 0, 53, 85
3, 24878, Note_on_c, 0, 58, 85
3, 25020, Note_on_c, 0, 58, 0
3, 25020, Note_on_c, 0, 53, 0
3, 25020, Note_on_c, 0, 53, 95
3, 25058, Note_on_c, 0, 58, 95
3, 25096, Note_on_c, 0, 62, 95
3, 25200, Note_on_c, 0, 62, 0
3, 25200, Note_on_c, 0, 58, 0
3, 25200, Note_on_c, 0, 53, 0
3, 25560, Note_on_c, 0, 37, 74
3, 25560, Note_on_c, 0, 49, 74
3, 25740, Note_on_c, 0, 49, 0
3, 25740, Note_on_c, 0, 37, 0
3, 25740, Note_on_c, 0, 53, 75
3, 25778, Note_on_c, 0, 55, 75
3, 25920, Note_on_c, 0, 55, 0
3, 25920, Note_on_c, 0, 53, 0
3, 25920, Note_on_c, 0, 53, 97
3, 25958, Note_on_c, 0, 55, 97
3, 25996, Note_on_c, 0, 61, 97
3, 26100, Note_on_c, 0, 61, 0
3, 26100, Note_on_c, 0, 55, 0
3, 26100, Note_on_c, 0, 53, 0
3, 26100, Note_on_c, 0, 53, 95
3, 26138, Note_on_c, 0, 55, 95
3, 26176, Note_on_c, 0, 61, 95
3, 26214, Note_on_c, 0, 65, 95
3, 26280, Note_on_c, 0, 65, 0
3, 26280, Note_on_c, 0, 53, 0
3, 26280, Note_on_c, 0, 55, 0
3, 26280, Note_on_c, 0, 61, 0
3, 26640, Note_on_c, 0, 36, 74
3, 26640, Note_on_c, 0, 48, 74
3, 26820, Note_on_c, 0, 48, 0
3, 26820, Note_on_c, 0, 36, 0
3, 26820, Note_on_c, 0, 48, 83
3, 26858, Note_on_c, 0, 53, 84
3, 26896, Note_on_c, 0, 56, 84
3, 27000, Note_on_c, 0, 56, 0
3, 27000, Note_on_c, 0, 53, 0
3, 27000, Note_on_c, 0, 48, 0
3, 27000, Note_on_c, 0, 53, 86
3, 27038, Note_on_c, 0, 56, 86
3, 27076, Note_on_c, 0, 60, 87
3, 27180, Note_on_c, 0, 60, 0
3, 27180, Note_on_c, 0, 56, 0
3, 27180, Note_on_c, 0, 53, 0
3, 27180, Note_on_c, 0, 53, 88
3, 27218, Note_on_c, 0, 56, 88
3, 27256, Note_on_c, 0, 60, 89
3, 27294, Note_on_c, 0, 65, 89
3, 27360, Note_on_c, 0, 65, 0
3, 27360, Note_on_c, 0, 53, 0
3, 27360, Note_on_c, 0, 56, 0
3, 27360, Note_on_c, 0, 60, 0
3, 27720, Note_on_c, 0, 35, 76
3, 27720, Note_on_c, 0, 47, 76
3, 27900, Note_on_c, 0, 47, 0
3, 27900, Note_on_c, 0, 35, 0
3, 27900, Note_on_c, 0, 53, 97
3, 27938, Note_on_c, 0, 56, 98
3, 27976, Note_on_c, 0, 59, 98
3, 28080, Note_on_c, 0, 59, 0
3, 28080, Note_on_c, 0, 56, 0
3, 28080, Note_on_c, 0, 53, 0
3, 28080, Note_on_c, 0, 56, 99
3, 28118, Note_on_c, 0, 59, 100
3, 28156, Note_on_c, 0, 65, 100
3, 28260, Note_on_c, 0, 65, 0
3, 28260, Note_on_c, 0, 59, 0
3, 28260, Note_on_c, 0, 56, 0
3, 28260, Note_on_c, 0, 56, 102
3, 28298, Note_on_c, 0, 59, 102
3, 28336, Note_on_c, 0, 65, 103
3, 28374, Note_on_c, 0, 68, 103
3, 28440, Note_on_c, 0, 68, 0
3, 28440, Note_on_c, 0, 56, 0
3, 28440, Note_on_c, 0, 59, 0
3, 28440, Note_on_c, 0, 65, 0
3, 28800, Note_on_c, 0, 34, 77
3, 28800, Note_on_c, 0, 46, 77
3, 28980, Note_on_c, 0, 46, 0
3, 28980, Note_on_c, 0, 34, 0
3, 28980, Note_on_c, 0, 53, 76
3, 29018, Note_on_c, 0, 58, 76
3, 29056, Note_on_c, 0, 62, 76
3, 29160, Note_on_c, 0, 62, 0
3, 29160, Note_on_c, 0, 58, 0
3, 29160, Note_on_c, 0, 53, 0
3, 29160, Note_on_c, 0, 58, 89
3, 29198, Note_on_c, 0, 62, 89
3, 29236, Note_on_c, 0, 65, 89
3, 29340, Note_on_c, 0, 65, 0
3, 29340, Note_on_c, 0, 62, 0
3, 29340, Note_on_c, 0, 58, 0
3, 29340, Note_on_c, 0, 58, 99
3, 29378, Note_on_c, 0, 62, 99
3, 29416, Note_on_c, 0, 65, 99
3, 29454, Note_on_c, 0, 70, 99
3, 29520, Note_on_c, 0, 70, 0
3, 29520, Note_on_c, 0, 58, 0
3, 29520, Note_on_c, 0, 62, 0
3, 29520, Note_on_c, 0, 65, 0
3, 29880, Note_on_c, 0, 34, 74
3, 29880, Note_on_c, 0, 46, 74
3, 30060, Note_on_c, 0, 46, 0
3, 30060, Note_on_c, 0, 34, 0
3, 30060, Note_on_c, 0, 53, 74
3, 30098, Note_on_c, 0, 56, 74
3, 30136, Note_on_c, 0, 58, 74
3, 30240, Note_on_c, 0, 58, 0
3, 30240, Note_on_c, 0, 56, 0
3, 30240, Note_on_c, 0, 53, 0
3, 30240, Note_on_c, 0, 53, 91
3, 30278, Note_on_c, 0, 56, 91
3, 30316, Note_on_c, 0, 62, 91
3, 30420, Note_on_c, 0, 62, 0
3, 30420, Note_on_c, 0, 56, 0
3, 30420, Note_on_c, 0, 53, 0
3, 30420, Note_on_c, 0, 53, 92
3, 30458, Note_on_c, 0, 56, 92
3, 30496, Note_on_c, 0, 58, 92
3, 30534, Note_on_c, 0, 65, 92
3, 30600, Note_on_c, 0, 65, 0
3, 30600, Note_on_c, 0, 53, 0
3, 30600, Note_on_c, 0, 56, 0
3, 30600, Note_on_c, 0, 58, 0
3, 30960, Note_on_c, 0, 34, 82
3, 30960, Note_on_c, 0, 46, 82
3, 31140, Note_on_c, 0, 46, 0
3, 31140, Note_on_c, 0, 34, 0
3, 31140, Note_on_c, 0, 53, 73
3, 31178, Note_on_c, 0, 56, 73
3, 31320, Note_on_c, 0, 56, 0
3, 31320, Note_on_c, 0, 53, 0
3, 31320, Note_on_c, 0, 56, 87
3, 31358, Note_on_c, 0, 58, 87
3, 31500, Note_on_c, 0, 58, 0
3, 31500, Note_on_c, 0, 56, 0
3, 31500, Note_on_c, 0, 53, 93
3, 31538, Note_on_c, 0, 56, 93
3, 31576, Note_on_c, 0, 58, 93
3, 31614, Note_on_c, 0, 62, 93
3, 31680, Note_on_c, 0, 62, 0
3, 31680, Note_on_c, 0, 53, 0
3, 31680, Note_on_c, 0, 56, 0
3, 31680, Note_on_c, 0, 58, 0
3, 32040, Note_on_c, 0, 39, 79
3, 32040, Note_on_c, 0, 51, 79
3, 32220, Note_on_c, 0, 51, 0
3, 32220, Note_on_c, 0, 39, 0
3, 32220, Note_on_c, 0, 58, 87
3, 32220, Note_on_c, 0, 46, 85
3, 32258, Note_on_c, 0, 63, 87
3, 32258, Note_on_c, 0, 51, 85
3, 32296, Note_on_c, 0, 67, 87
3, 32296, Note_on_c, 0, 55, 85
3, 32400, Note_on_c, 0, 55, 0
3, 32400, Note_on_c, 0, 46, 0
3, 32400, Note_on_c, 0, 63, 0
3, 32400, Note_on_c, 0, 58, 0
3, 32400, Note_on_c, 0, 67, 0
3, 32400, Note_on_c, 0, 51, 0
3, 32400, Note_on_c, 0, 63, 105
3, 32400, Note_on_c, 0, 51, 94
3, 32438, Note_on_c, 0, 67, 105
3, 32438, Note_on_c, 0, 55, 94
3, 32476, Note_on_c, 0, 70, 105
3, 32476, Note_on_c, 0, 58, 94
3, 32580, Note_on_c, 0, 58, 0
3, 32580, Note_on_c, 0, 51, 0
3, 32580, Note_on_c, 0, 67, 0
3, 32580, Note_on_c, 0, 63, 0
3, 32580, Note_on_c, 0, 70, 0
3, 32580, Note_on_c, 0, 55, 0
3, 32580, Note_on_c, 0, 67, 112
3, 32580, Note_on_c, 0, 55, 96
3, 32618, Note_on_c, 0, 70, 112
3, 32618, Note_on_c, 0, 58, 96
3, 32656, Note_on_c, 0, 75, 112
3, 32656, Note_on_c, 0, 63, 96
3, 32760, Note_on_c, 0, 63, 0
3, 32760, Note_on_c, 0, 55, 0
3, 32760, Note_on_c, 0, 70, 0
3, 32760, Note_on_c, 0, 67, 0
3, 32760, Note_on_c, 0, 75, 0
3, 32760, Note_on_c, 0, 58, 0
3, 33120, Note_on_c, 0, 39, 76
3, 33120, Note_on_c, 0, 51, 76
3, 33300, Note_on_c, 0, 51, 0
3, 33300, Note_on_c, 0, 39, 0
3, 33300, Note_on_c, 0, 58, 87
3, 33300, Note_on_c, 0, 46, 84
3, 33338, Note_on_c, 0, 63, 87
3, 33338, Note_on_c, 0, 51, 84
3, 33376, Note_on_c, 0, 67, 87
3, 33376, Note_on_c, 0, 55, 84
3, 33480, Note_on_c, 0, 55, 0
3, 33480, Note_on_c, 0, 46, 0
3, 33480, Note_on_c, 0, 63, 0
3, 33480, Note_on_c, 0, 58, 0
3, 33480, Note_on_c, 0, 67, 0
3, 33480, Note_on_c, 0, 51, 0
3, 33480, Note_on_c, 0, 63, 106
3, 33480, Note_on_c, 0, 51, 85
3, 33518, Note_on_c, 0, 67, 106
3, 33518, Note_on_c, 0, 55, 85
3, 33556, Note_on_c, 0, 70, 106
3, 33556, Note_on_c, 0, 58, 85
3, 33660, Note_on_c, 0, 58, 0
3, 33660, Note_on_c, 0, 51, 0
3, 33660, Note_on_c, 0, 67, 0
3, 33660, Note_on_c, 0, 63, 0
3, 33660, Note_on_c, 0, 70, 0
3, 33660, Note_on_c, 0, 55, 0
3, 33660, Note_on_c, 0, 67, 111
3, 33660, Note_on_c, 0, 55, 94
3, 33698, Note_on_c, 0, 70, 111
3, 33698, Note_on_c, 0, 58, 94
3, 33736, Note_on_c, 0, 75, 111
3, 33736, Note_on_c, 0, 63, 94
3, 33840, Note_on_c, 0, 63, 0
3, 33840, Note_on_c, 0, 55, 0
3, 33840, Note_on_c, 0, 70, 0
3, 33840, Note_on_c, 0, 67, 0
3, 33840, Note_on_c, 0, 75, 0
3, 33840, Note_on_c, 0, 58, 0
3, 34200, Note_on_c, 0, 39, 73
3, 34200, Note_on_c, 0, 51, 73
3, 34380, Note_on_c, 0, 51, 0
3, 34380, Note_on_c, 0, 39, 0
3, 34380, Note_on_c, 0, 51, 85
3, 34418, Note_on_c, 0, 55, 85
3, 34456, Note_on_c, 0, 58, 85
3, 34560, Note_on_c, 0, 58, 0
3, 34560, Note_on_c, 0, 55, 0
3, 34560, Note_on_c, 0, 51, 0
3, 34560, Note_on_c, 0, 55, 108
3, 34598, Note_on_c, 0, 58, 108
3, 34636, Note_on_c, 0, 63, 108
3, 34740, Note_on_c, 0, 63, 0
3, 34740, Note_on_c, 0, 58, 0
3, 34740, Note_on_c, 0, 55, 0
3, 34740, Note_on_c, 0, 55, 111
3, 34778, Note_on_c, 0, 58, 111
3, 34816, Note_on_c, 0, 63, 111
3, 34854, Note_on_c, 0, 67, 111
3, 34920, Note_on_c, 0, 67, 0
3, 34920, Note_on_c, 0, 55, 0
3, 34920, Note_on_c, 0, 58, 0
3, 34920, Note_on_c, 0, 63, 0
3, 35280, Note_on_c, 0, 39, 80
3, 35280, Note_on_c, 0, 51, 80
3, 35460, Note_on_c, 0, 51, 0
3, 35460, Note_on_c, 0, 39, 0
3, 35460, Note_on_c, 0, 51, 87
3, 35498, Note_on_c, 0, 55, 87
3, 35536, Note_on_c, 0, 58, 87
3, 35640, Note_on_c, 0, 58, 0
3, 35640, Note_on_c, 0, 55, 0
3, 35640, Note_on_c, 0, 51, 0
3, 35640, Note_on_c, 0, 55, 107
3, 35678, Note_on_c, 0, 58, 107
3, 35716, Note_on_c, 0, 63, 107
3, 35820, Note_on_c, 0, 63, 0
3, 35820, Note_on_c, 0, 58, 0
3, 35820, Note_on_c, 0, 55, 0
3, 35820, Note_on_c, 0, 55, 112
3, 35858, Note_on_c, 0, 58, 112
3, 35896, Note_on_c, 0, 63, 112
3, 35934, Note_on_c, 0, 67, 112
3, 36000, Note_on_c, 0, 67, 0
3, 36000, Note_on_c, 0, 55, 0
3, 36000, Note_on_c, 0, 58, 0
3, 36000, Note_on_c, 0, 63, 0
3, 36360, Note_on_c, 0, 39, 76
3, 36360, Note_on_c, 0, 51, 76
3, 36540, Note_on_c, 0, 51, 0
3, 36540, Note_on_c, 0, 39, 0
3, 36540, Note_on_c, 0, 48, 88
3, 36578, Note_on_c, 0, 53, 88
3, 36616, Note_on_c, 0, 56, 88
3, 36720, Note_on_c, 0, 56, 0
3, 36720, Note_on_c, 0, 53, 0
3, 36720, Note_on_c, 0, 48, 0
3, 36720, Note_on_c, 0, 53, 104
3, 36758, Note_on_c, 0, 56, 104
3, 36796, Note_on_c, 0, 60, 104
3, 36900, Note_on_c, 0, 60, 0
3, 36900, Note_on_c, 0, 56, 0
3, 36900, Note_on_c, 0, 53, 0
3, 36900, Note_on_c, 0, 53, 112
3, 36938, Note_on_c, 0, 60, 112
3, 36976, Note_on_c, 0, 65, 112
3, 37080, Note_on_c, 0, 65, 0
3, 37080, Note_on_c, 0, 60, 0
3, 37080, Note_on_c, 0, 53, 0
3, 37440, Note_on_c, 0, 38, 74
3, 37440, Note_on_c, 0, 50, 74
3, 37620, Note_on_c, 0, 50, 0
3, 37620, Note_on_c, 0, 38, 0
3, 37620, Note_on_c, 0, 53, 87
3, 37658, Note_on_c, 0, 55, 87
3, 37696, Note_on_c, 0, 62, 87
3, 37800, Note_on_c, 0, 62, 0
3, 37800, Note_on_c, 0, 55, 0
3, 37800, Note_on_c, 0, 53, 0
3, 37800, Note_on_c, 0, 55, 102
3, 37838, Note_on_c, 0, 62, 102
3, 37876, Note_on_c, 0, 65, 102
3, 37980, Note_on_c, 0, 65, 0
3, 37980, Note_on_c, 0, 62, 0
3, 37980, Note_on_c, 0, 55, 0
3, 37980, Note_on_c, 0, 55, 106
3, 38018, Note_on_c, 0, 62, 106
3, 38056, Note_on_c, 0, 65, 106
3, 38094, Note_on_c, 0, 67, 106
3, 38160, Note_on_c, 0, 67, 0
3, 38160, Note_on_c, 0, 55, 0
3, 38160, Note_on_c, 0, 62, 0
3, 38160, Note_on_c, 0, 65, 0
3, 38520, Note_on_c, 0, 36, 73
3, 38520, Note_on_c, 0, 48, 73
3, 38700, Note_on_c, 0, 48, 0
3, 38700, Note_on_c, 0, 36, 0
3, 38700, Note_on_c, 0, 51, 83
3, 38738, Note_on_c, 0, 55, 83
3, 38776, Note_on_c, 0, 60, 83
3, 38880, Note_on_c, 0, 60, 0
3, 38880, Note_on_c, 0, 55, 0
3, 38880, Note_on_c, 0, 51, 0
3, 38880, Note_on_c, 0, 55, 101
3, 38918, Note_on_c, 0, 60, 101
3, 38956, Note_on_c, 0, 63, 101
3, 39060, Note_on_c, 0, 63, 0
3, 39060, Note_on_c, 0, 60, 0
3, 39060, Note_on_c, 0, 55, 0
3, 39060, Note_on_c, 0, 55, 112
3, 39098, Note_on_c, 0, 60, 112
3, 39136, Note_on_c, 0, 63, 112
3, 39174, Note_on_c, 0, 67, 112
3, 39240, Note_on_c, 0, 67, 0
3, 39240, Note_on_c, 0, 55, 0
3, 39240, Note_on_c, 0, 60, 0
3, 39240, Note_on_c, 0, 63, 0
3, 39600, Note_on_c, 0, 35, 77
3, 39600, Note_on_c, 0, 47, 77
3, 39780, Note_on_c, 0, 47, 0
3, 39780, Note_on_c, 0, 35, 0
3, 39780, Note_on_c, 0, 55, 87
3, 39818, Note_on_c, 0, 59, 87
3, 39960, Note_on_c, 0, 59, 0
3, 39960, Note_on_c, 0, 55, 0
3, 39960, Note_on_c, 0, 55, 113
3, 39998, Note_on_c, 0, 59, 113
3, 40036, Note_on_c, 0, 65, 113
3, 40140, Note_on_c, 0, 65, 0
3, 40140, Note_on_c, 0, 59, 0
3, 40140, Note_on_c, 0, 55, 0
3, 40140, Note_on_c, 0, 55, 106
3, 40178, Note_on_c, 0, 59, 106
3, 40216, Note_on_c, 0, 65, 106
3, 40254, Note_on_c, 0, 67, 106
3, 40320, Note_on_c, 0, 67, 0
3, 40320, Note_on_c, 0, 55, 0
3, 40320, Note_on_c, 0, 59, 0
3, 40320, Note_on_c, 0, 65, 0
3, 40500, Note_on_c, 0, 34, 74
3, 40500, Note_on_c, 0, 46, 74
3, 40680, Note_on_c, 0, 46, 0
3, 40680, Note_on_c, 0, 34, 0
3, 40680, Note_on_c, 0, 53, 86
3, 40680, Note_on_c, 0, 32, 79
3, 40680, Note_on_c, 0, 44, 79
3, 40718, Note_on_c, 0, 56, 86
3, 40756, Note_on_c, 0, 60, 86
3, 40860, Note_on_c, 0, 60, 0
3, 40860, Note_on_c, 0, 44, 0
3, 40860, Note_on_c, 0, 53, 0
3, 40860, Note_on_c, 0, 32, 0
3, 40860, Note_on_c, 0, 56, 0
3, 40860, Note_on_c, 0, 56, 107
3, 40898, Note_on_c, 0, 60, 107
3, 40936, Note_on_c, 0, 65, 107
3, 41040, Note_on_c, 0, 65, 0
3, 41040, Note_on_c, 0, 60, 0
3, 41040, Note_on_c, 0, 56, 0
3, 41040, Note_on_c, 0, 56, 105
3, 41078, Note_on_c, 0, 60, 105
3, 41116, Note_on_c, 0, 65, 105
3, 41154, Note_on_c, 0, 68, 105
3, 41220, Note_on_c, 0, 68, 0
3, 41220, Note_on_c, 0, 56, 0
3, 41220, Note_on_c, 0, 60, 0
3, 41220, Note_on_c, 0, 65, 0
3, 41760, Note_on_c, 0, 31, 74
3, 41760, Note_on_c, 0, 43, 74
3, 41940, Note_on_c, 0, 43, 0
3, 41940, Note_on_c, 0, 31, 0
3, 41940, Note_on_c, 0, 55, 85
3, 42120, Note_on_c, 0, 55, 0
3, 42120, Note_on_c, 0, 55, 94
3, 42300, Note_on_c, 0, 55, 0
3, 42300, Note_on_c, 0, 55, 96
3, 42480, Note_on_c, 0, 55, 0
3, 42480, Note_on_c, 0, 55, 101
3, 42660, Note_on_c, 0, 55, 0
3, 42660, Note_on_c, 0, 55, 101
3, 42840, Note_on_c, 0, 55, 0
3, 42840, Note_on_c, 0, 55, 98
3, 42840, Note_on_c, 0, 43, 74
3, 43380, Note_on_c, 0, 43, 0
3, 43380, Note_on_c, 0, 55, 0
3, 43380, Note_on_c, 0, 50, 89
3, 43380, Note_on_c, 0, 38, 73
3, 43740, Note_on_c, 0, 38, 0
3, 43740, Note_on_c, 0, 50, 0
3, 43740, Note_on_c, 0, 53, 97
3, 43740, Note_on_c, 0, 41, 88
3, 43920, Note_on_c, 0, 41, 0
3, 43920, Note_on_c, 0, 53, 0
3, 43920, Note_on_c, 0, 51, 90
3, 43920, Note_on_c, 0, 39, 83
3, 44460, Note_on_c, 0, 39, 0
3, 44460, Note_on_c, 0, 51, 0
3, 44460, Note_on_c, 0, 47, 92
3, 44460, Note_on_c, 0, 35, 76
3, 44730, Note_on_c, 0, 35, 0
3, 44730, Note_on_c, 0, 47, 0
3, 44730, Note_on_c, 0, 48, 97
3, 44730, Note_on_c, 0, 36, 87
3, 44820, Note_on_c, 0, 36, 0
3, 44820, Note_on_c, 0, 48, 0
3, 44820, Note_on_c, 0, 51, 101
3, 44820, Note_on_c, 0, 39, 89
3, 44910, Note_on_c, 0, 39, 0
3, 44910, Note_on_c, 0, 51, 0
3, 44910, Note_on_c, 0, 50, 99
3, 44910, Note_on_c, 0, 38, 79
3, 45000, Note_on_c, 0, 38, 0
3, 45000, Note_on_c, 0, 50, 0
3, 45000, Note_on_c, 0, 55, 102
3, 45000, Note_on_c, 0, 31, 90
3, 45000, Note_on_c, 0, 43, 90
3, 45180, Note_on_c, 0, 43, 0
3, 45180, Note_on_c, 0, 31, 0
3, 45180, Note_on_c, 0, 55, 0
3, 45180, Note_on_c, 0, 55, 97
3, 45360, Note_on_c, 0, 55, 0
3, 45360, Note_on_c, 0, 55, 98
3, 45540, Note_on_c, 0, 55, 0
3, 45540, Note_on_c, 0, 55, 97
3, 45720, Note_on_c, 0, 55, 0
3, 45720, Note_on_c, 0, 55, 97
3, 45900, Note_on_c, 0, 55, 0
3, 45900, Note_on_c, 0, 55, 98
3, 46080, Note_on_c, 0, 55, 0
3, 46080, Note_on_c, 0, 55, 91
3, 46260, Note_on_c, 0, 55, 0
3, 46260, Note_on_c, 0, 55, 103
3, 46440, Note_on_c, 0, 55, 0
3, 46440, Note_on_c, 0, 55, 98
3, 46620, Note_on_c, 0, 55, 0
3, 46620, Note_on_c, 0, 55, 102
3, 46800, Note_on_c, 0, 55, 0
3, 46800, Note_on_c, 0, 55, 94
3, 46980, Note_on_c, 0, 55, 0
3, 46980, Note_on_c, 0, 55, 97
3, 47160, Note_on_c, 0, 55, 0
3, 47160, Note_on_c, 0, 55, 98
3, 47340, Note_on_c, 0, 55, 0
3, 47430, Note_on_c, 0, 43, 87
3, 47430, Note_on_c, 0, 31, 72
3, 47520, Note_on_c, 0, 31, 0
3, 47520, Note_on_c, 0, 43, 0
3, 47520, Note_on_c, 0, 45, 97
3, 47520, Note_on_c, 0, 33, 81
3, 47610, Note_on_c, 0, 33, 0
3, 47610, Note_on_c, 0, 45, 0
3, 47610, Note_on_c, 0, 46, 96
3, 47610, Note_on_c, 0, 34, 82
3, 47700, Note_on_c, 0, 34, 0
3, 47700, Note_on_c, 0, 46, 0
3, 47700, Note_on_c, 0, 47, 96
3, 47700, Note_on_c, 0, 35, 83
3, 48240, Note_on_c, 0, 35, 0
3, 48240, Note_on_c, 0, 47, 0
3, 48240, Note_on_c, 0, 48, 99
3, 48240, Note_on_c, 0, 36, 86
3, 48510, Note_on_c, 0, 36, 0
3, 48510, Note_on_c, 0, 48, 0
3, 48510, Note_on_c, 0, 47, 99
3, 48510, Note_on_c, 0, 35, 77
3, 48600, Note_on_c, 0, 35, 0
3, 48600, Note_on_c, 0, 47, 0
3, 48600, Note_on_c, 0, 50, 97
3, 48600, Note_on_c, 0, 38, 86
3, 48690, Note_on_c, 0, 38, 0
3, 48690, Note_on_c, 0, 50, 0
3, 48690, Note_on_c, 0, 48, 97
3, 48690, Note_on_c, 0, 36, 78
3, 48780, Note_on_c, 0, 36, 0
3, 48780, Note_on_c, 0, 48, 0
3, 48780, Note_on_c, 0, 51, 100
3, 48780, Note_on_c, 0, 39, 89
3, 49140, Note_on_c, 0, 39, 0
3, 49140, Note_on_c, 0, 51, 0
3, 49140, Note_on_c, 0, 48, 93
3, 49140, Note_on_c, 0, 36, 80
3, 49320, Note_on_c, 0, 36, 0
3, 49320, Note_on_c, 0, 48, 0
3, 49320, Note_on_c, 0, 55, 101
3, 49320, Note_on_c, 0, 31, 93
3, 49320, Note_on_c, 0, 43, 93
3, 49500, Note_on_c, 0, 43, 0
3, 49500, Note_on_c, 0, 31, 0
3, 49500, Note_on_c, 0, 55, 0
3, 49500, Note_on_c, 0, 55, 102
3, 49680, Note_on_c, 0, 55, 0
3, 49680, Note_on_c, 0, 55, 98
3, 49860, Note_on_c, 0, 55, 0
3, 49860, Note_on_c, 0, 55, 97
3, 50040, Note_on_c, 0, 55, 0
3, 50040, Note_on_c, 0, 55, 100
3, 50220, Note_on_c, 0, 55, 0
3, 50220, Note_on_c, 0, 55, 98
3, 50400, Note_on_c, 0, 55, 0
3, 50400, Note_on_c, 0, 55, 96
3, 50580, Note_on_c, 0, 55, 0
3, 50580, Note_on_c, 0, 55, 100
3, 50760, Note_on_c, 0, 55, 0
3, 50760, Note_on_c, 0, 55, 99
3, 50940, Note_on_c, 0, 55, 0
3, 50940, Note_on_c, 0, 55, 99
3, 51120, Note_on_c, 0, 55, 0
3, 51120, Note_on_c, 0, 55, 93
3, 51300, Note_on_c, 0, 55, 0
3, 51300, Note_on_c, 0, 55, 98
3, 51480, Note_on_c, 0, 55, 0
3, 51480, Note_on_c, 0, 55, 97
3, 51480, Note_on_c, 0, 35, 77
3, 51480, Note_on_c, 0, 47, 77
3, 51660, Note_on_c, 0, 55, 0
3, 51660, Note_on_c, 0, 55, 93
3, 51840, Note_on_c, 0, 55, 0
3, 51840, Note_on_c, 0, 55, 92
3, 52020, Note_on_c, 0, 55, 0
3, 52020, Note_on_c, 0, 55, 98
3, 52200, Note_on_c, 0, 55, 0
3, 52200, Note_on_c, 0, 55, 97
3, 52380, Note_on_c, 0, 55, 0
3, 52380, Note_on_c, 0, 55, 98
3, 52560, Note_on_c, 0, 55, 0
3, 52560, Note_on_c, 0, 47, 0
3, 52560, Note_on_c, 0, 35, 0
3, 52560, Note_on_c, 0, 55, 93
3, 52560, Note_on_c, 0, 34, 80
3, 52560, Note_on_c, 0, 46, 80
3, 52740, Note_on_c, 0, 55, 0
3, 52740, Note_on_c, 0, 55, 99
3, 52920, Note_on_c, 0, 55, 0
3, 52920, Note_on_c, 0, 55, 100
3, 53100, Note_on_c, 0, 55, 0
3, 53100, Note_on_c, 0, 55, 102
3, 53280, Note_on_c, 0, 55, 0
3, 53280, Note_on_c, 0, 55, 96
3, 53460, Note_on_c, 0, 55, 0
3, 53460, Note_on_c, 0, 55, 97
3, 53640, Note_on_c, 0, 55, 0
3, 53640, Note_on_c, 0, 46, 0
3, 53640, Note_on_c, 0, 34, 0
3, 53640, Note_on_c, 0, 62, 117
3, 53640, Note_on_c, 0, 55, 111
3, 53640, Note_on_c, 0, 33, 72
3, 53640, Note_on_c, 0, 45, 72
3, 53820, Note_on_c, 0, 55, 0
3, 53820, Note_on_c, 0, 55, 123
3, 54000, Note_on_c, 0, 55, 0
3, 54000, Note_on_c, 0, 55, 124
3, 54180, Note_on_c, 0, 55, 0
3, 54180, Note_on_c, 0, 55, 126
3, 54360, Note_on_c, 0, 55, 0
3, 54360, Note_on_c, 0, 55, 126
3, 54540, Note_on_c, 0, 55, 0
3, 54540, Note_on_c, 0, 55, 126
3, 54720, Note_on_c, 0, 55, 0
3, 54720, Note_on_c, 0, 45, 0
3, 54720, Note_on_c, 0, 33, 0
3, 54720, Note_on_c, 0, 62, 0
3, 54720, Note_on_c, 0, 58, 93
3, 54720, Note_on_c, 0, 61, 93
3, 54720, Note_on_c, 0, 55, 91
3, 54720, Note_on_c, 0, 45, 71
3, 54900, Note_on_c, 0, 55, 0
3, 54900, Note_on_c, 0, 55, 89
3, 55080, Note_on_c, 0, 55, 0
3, 55080, Note_on_c, 0, 55, 82
3, 55260, Note_on_c, 0, 55, 0
3, 55260, Note_on_c, 0, 58, 0
3, 55260, Note_on_c, 0, 61, 0
3, 55260, Note_on_c, 0, 57, 96
3, 55260, Note_on_c, 0, 61, 96
3, 55260, Note_on_c, 0, 55, 83
3, 55440, Note_on_c, 0, 55, 0
3, 55440, Note_on_c, 0, 55, 81
3, 55620, Note_on_c, 0, 55, 0
3, 55620, Note_on_c, 0, 55, 82
3, 55800, Note_on_c, 0, 55, 0
3, 55800, Note_on_c, 0, 45, 0
3, 55800, Note_on_c, 0, 57, 0
3, 55800, Note_on_c, 0, 61, 0
3, 55800, Note_on_c, 0, 57, 90
3, 55800, Note_on_c, 0, 37, 79
3, 55800, Note_on_c, 0, 49, 79
3, 55980, Note_on_c, 0, 57, 0
3, 55980, Note_on_c, 0, 57, 99
3, 56160, Note_on_c, 0, 57, 0
3, 56160, Note_on_c, 0, 57, 97
3, 56340, Note_on_c, 0, 57, 0
3, 56340, Note_on_c, 0, 57, 95
3, 56520, Note_on_c, 0, 57, 0
3, 56520, Note_on_c, 0, 57, 101
3, 56700, Note_on_c, 0, 57, 0
3, 56700, Note_on_c, 0, 57, 100
3, 56880, Note_on_c, 0, 57, 0
3, 56880, Note_on_c, 0, 49, 0
3, 56880, Note_on_c, 0, 37, 0
3, 56880, Note_on_c, 0, 57, 93
3, 56880, Note_on_c, 0, 36, 80
3, 56880, Note_on_c, 0, 48, 80
3, 57060, Note_on_c, 0, 57, 0
3, 57060, Note_on_c, 0, 57, 94
3, 57240, Note_on_c, 0, 57, 0
3, 57240, Note_on_c, 0, 57, 96
3, 57420, Note_on_c, 0, 57, 0
3, 57420, Note_on_c, 0, 57, 97
3, 57600, Note_on_c, 0, 57, 0
3, 57600, Note_on_c, 0, 57, 100
3, 57780, Note_on_c, 0, 57, 0
3, 57780, Note_on_c, 0, 57, 100
3, 57960, Note_on_c, 0, 57, 0
3, 57960, Note_on_c, 0, 48, 0
3, 57960, Note_on_c, 0, 36, 0
3, 57960, Note_on_c, 0, 64, 114
3, 57960, Note_on_c, 0, 57, 126
3, 57960, Note_on_c, 0, 35, 76
3, 57960, Note_on_c, 0, 47, 76
3, 58140, Note_on_c, 0, 57, 0
3, 58140, Note_on_c, 0, 57, 125
3, 58320, Note_on_c, 0, 57, 0
3, 58320, Note_on_c, 0, 57, 125
3, 58500, Note_on_c, 0, 57, 0
3, 58500, Note_on_c, 0, 57, 126
3, 58680, Note_on_c, 0, 57, 0
3, 58680, Note_on_c, 0, 57, 126
3, 58860, Note_on_c, 0, 57, 0
3, 58860, Note_on_c, 0, 57, 124
3, 59040, Note_on_c, 0, 57, 0
3, 59040, Note_on_c, 0, 47, 0
3, 59040, Note_on_c, 0, 35, 0
3, 59040, Note_on_c, 0, 64, 0
3, 59040, Note_on_c, 0, 60, 94
3, 59040, Note_on_c, 0, 63, 94
3, 59040, Note_on_c, 0, 57, 92
3, 59040, Note_on_c, 0, 47, 75
3, 59220, Note_on_c, 0, 57, 0
3, 59220, Note_on_c, 0, 57, 86
3, 59400, Note_on_c, 0, 57, 0
3, 59400, Note_on_c, 0, 57, 84
3, 59580, Note_on_c, 0, 57, 0
3, 59580, Note_on_c, 0, 60, 0
3, 59580, Note_on_c, 0, 59, 98
3, 59580, Note_on_c, 0, 57, 87
3, 59760, Note_on_c, 0, 57, 0
3, 59760, Note_on_c, 0, 57, 83
3, 59940, Note_on_c, 0, 57, 0
3, 59940, Note_on_c, 0, 57, 85
3, 60120, Note_on_c, 0, 57, 0
3, 60120, Note_on_c, 0, 47, 0
3, 60120, Note_on_c, 0, 63, 0
3, 60120, Note_on_c, 0, 59, 0
3, 60120, Note_on_c, 0, 54, 60
3, 60120, Note_on_c, 0, 59, 60
3, 60120, Note_on_c, 0, 39, 58
3, 60120, Note_on_c, 0, 51, 58
3, 60300, Note_on_c, 0, 59, 0
3, 60300, Note_on_c, 0, 54, 0
3, 60300, Note_on_c, 0, 54, 61
3, 60300, Note_on_c, 0, 59, 61
3, 60480, Note_on_c, 0, 59, 0
3, 60480, Note_on_c, 0, 54, 0
3, 60480, Note_on_c, 0, 54, 57
3, 60480, Note_on_c, 0, 59, 57
3, 60660, Note_on_c, 0, 59, 0
3, 60660, Note_on_c, 0, 54, 0
3, 60660, Note_on_c, 0, 54, 60
3, 60660, Note_on_c, 0, 59, 60
3, 60840, Note_on_c, 0, 59, 0
3, 60840, Note_on_c, 0, 54, 0
3, 60840, Note_on_c, 0, 54, 55
3, 60840, Note_on_c, 0, 59, 55
3, 61020, Note_on_c, 0, 59, 0
3, 61020, Note_on_c, 0, 54, 0
3, 61020, Note_on_c, 0, 54, 60
3, 61020, Note_on_c, 0, 59, 60
3, 61200, Note_on_c, 0, 59, 0
3, 61200, Note_on_c, 0, 51, 0
3, 61200, Note_on_c, 0, 39, 0
3, 61200, Note_on_c, 0, 54, 0
3, 61200, Note_on_c, 0, 59, 62
3, 61200, Note_on_c, 0, 40, 59
3, 61200, Note_on_c, 0, 52, 59
3, 61380, Note_on_c, 0, 52, 0
3, 61380, Note_on_c, 0, 40, 0
3, 61380, Note_on_c, 0, 40, 58
3, 61380, Note_on_c, 0, 52, 58
3, 61560, Note_on_c, 0, 52, 0
3, 61560, Note_on_c, 0, 40, 0
3, 61560, Note_on_c, 0, 40, 58
3, 61560, Note_on_c, 0, 52, 58
3, 61740, Note_on_c, 0, 52, 0
3, 61740, Note_on_c, 0, 40, 0
3, 61740, Note_on_c, 0, 59, 0
3, 61740, Note_on_c, 0, 54, 58
3, 61740, Note_on_c, 0, 40, 58
3, 61740, Note_on_c, 0, 52, 58
3, 61920, Note_on_c, 0, 52, 0
3, 61920, Note_on_c, 0, 40, 0
3, 61920, Note_on_c, 0, 54, 0
3, 61920, Note_on_c, 0, 57, 65
3, 61920, Note_on_c, 0, 40, 59
3, 61920, Note_on_c, 0, 52, 59
3, 62100, Note_on_c, 0, 52, 0
3, 62100, Note_on_c, 0, 40, 0
3, 62100, Note_on_c, 0, 57, 0
3, 62100, Note_on_c, 0, 55, 60
3, 62100, Note_on_c, 0, 40, 58
3, 62100, Note_on_c, 0, 52, 58
3, 62280, Note_on_c, 0, 52, 0
3, 62280, Note_on_c, 0, 40, 0
3, 62280, Note_on_c, 0, 55, 0
3, 62280, Note_on_c, 0, 54, 64
3, 62280, Note_on_c, 0, 59, 64
3, 62280, Note_on_c, 0, 39, 55
3, 62280, Note_on_c, 0, 51, 55
3, 62460, Note_on_c, 0, 59, 0
3, 62460, Note_on_c, 0, 54, 0
3, 62460, Note_on_c, 0, 54, 59
3, 62460, Note_on_c, 0, 59, 59
3, 62640, Note_on_c, 0, 59, 0
3, 62640, Note_on_c, 0, 54, 0
3, 62640, Note_on_c, 0, 54, 59
3, 62640, Note_on_c, 0, 59, 59
3, 62820, Note_on_c, 0, 59, 0
3, 62820, Note_on_c, 0, 54, 0
3, 62820, Note_on_c, 0, 54, 58
3, 62820, Note_on_c, 0, 59, 58
3, 63000, Note_on_c, 0, 59, 0
3, 63000, Note_on_c, 0, 54, 0
3, 63000, Note_on_c, 0, 54, 57
3, 63000, Note_on_c, 0, 59, 57
3, 63180, Note_on_c, 0, 59, 0
3, 63180, Note_on_c, 0, 54, 0
3, 63180, Note_on_c, 0, 54, 60
3, 63180, Note_on_c, 0, 59, 60
3, 63360, Note_on_c, 0, 59, 0
3, 63360, Note_on_c, 0, 51, 0
3, 63360, Note_on_c, 0, 39, 0
3, 63360, Note_on_c, 0, 54, 0
3, 63360, Note_on_c, 0, 59, 62
3, 63360, Note_on_c, 0, 40, 62
3, 63360, Note_on_c, 0, 52, 62
3, 63540, Note_on_c, 0, 52, 0
3, 63540, Note_on_c, 0, 40, 0
3, 63540, Note_on_c, 0, 40, 63
3, 63540, Note_on_c, 0, 52, 63
3, 63720, Note_on_c, 0, 52, 0
3, 63720, Note_on_c, 0, 40, 0
3, 63720, Note_on_c, 0, 40, 60
3, 63720, Note_on_c, 0, 52, 60
3, 63900, Note_on_c, 0, 52, 0
3, 63900, Note_on_c, 0, 40, 0
3, 63900, Note_on_c, 0, 59, 0
3, 63900, Note_on_c, 0, 54, 60
3, 63900, Note_on_c, 0, 40, 63
3, 63900, Note_on_c, 0, 52, 63
3, 64080, Note_on_c, 0, 52, 0
3, 64080, Note_on_c, 0, 40, 0
3, 64080, Note_on_c, 0, 54, 0
3, 64080, Note_on_c, 0, 57, 63
3, 64080, Note_on_c, 0, 40, 58
3, 64080, Note_on_c, 0, 52, 58
3, 64260, Note_on_c, 0, 52, 0
3, 64260, Note_on_c, 0, 40, 0
3, 64260, Note_on_c, 0, 57, 0
3, 64260, Note_on_c, 0, 55, 60
3, 64260, Note_on_c, 0, 40, 60
3, 64260, Note_on_c, 0, 52, 60
3, 64440, Note_on_c, 0, 52, 0
3, 64440, Note_on_c, 0, 40, 0
3, 64440, Note_on_c, 0, 55, 0
3, 64440, Note_on_c, 0, 55, 68
3, 64440, Note_on_c, 0, 60, 68
3, 64440, Note_on_c, 0, 40, 62
3, 64440, Note_on_c, 0, 52, 62
3, 64620, Note_on_c, 0, 60, 0
3, 64620, Note_on_c, 0, 55, 0
3, 64620, Note_on_c, 0, 55, 62
3, 64620, Note_on_c, 0, 60, 62
3, 64800, Note_on_c, 0, 60, 0
3, 64800, Note_on_c, 0, 55, 0
3, 64800, Note_on_c, 0, 55, 58
3, 64800, Note_on_c, 0, 60, 58
3, 64980, Note_on_c, 0, 60, 0
3, 64980, Note_on_c, 0, 55, 0
3, 64980, Note_on_c, 0, 55, 61
3, 64980, Note_on_c, 0, 60, 61
3, 65160, Note_on_c, 0, 60, 0
3, 65160, Note_on_c, 0, 55, 0
3, 65160, Note_on_c, 0, 55, 60
3, 65160, Note_on_c, 0, 60, 60
3, 65340, Note_on_c, 0, 60, 0
3, 65340, Note_on_c, 0, 55, 0
3, 65340, Note_on_c, 0, 55, 64
3, 65340, Note_on_c, 0, 60, 64
3, 65520, Note_on_c, 0, 60, 0
3, 65520, Note_on_c, 0, 52, 0
3, 65520, Note_on_c, 0, 40, 0
3, 65520, Note_on_c, 0, 55, 0
3, 65520, Note_on_c, 0, 60, 57
3, 65520, Note_on_c, 0, 41, 63
3, 65520, Note_on_c, 0, 53, 63
3, 65700, Note_on_c, 0, 53, 0
3, 65700, Note_on_c, 0, 41, 0
3, 65700, Note_on_c, 0, 41, 59
3, 65700, Note_on_c, 0, 53, 59
3, 65880, Note_on_c, 0, 53, 0
3, 65880, Note_on_c, 0, 41, 0
3, 65880, Note_on_c, 0, 41, 64
3, 65880, Note_on_c, 0, 53, 64
3, 66060, Note_on_c, 0, 53, 0
3, 66060, Note_on_c, 0, 41, 0
3, 66060, Note_on_c, 0, 60, 0
3, 66060, Note_on_c, 0, 56, 57
3, 66060, Note_on_c, 0, 41, 61
3, 66060, Note_on_c, 0, 53, 61
3, 66240, Note_on_c, 0, 53, 0
3, 66240, Note_on_c, 0, 41, 0
3, 66240, Note_on_c, 0, 56, 0
3, 66240, Note_on_c, 0, 58, 65
3, 66240, Note_on_c, 0, 41, 60
3, 66240, Note_on_c, 0, 53, 60
3, 66420, Note_on_c, 0, 53, 0
3, 66420, Note_on_c, 0, 41, 0
3, 66420, Note_on_c, 0, 58, 0
3, 66420, Note_on_c, 0, 57, 60
3, 66420, Note_on_c, 0, 41, 60
3, 66420, Note_on_c, 0, 53, 60
3, 66600, Note_on_c, 0, 53, 0
3, 66600, Note_on_c, 0, 41, 0
3, 66600, Note_on_c, 0, 57, 0
3, 66600, Note_on_c, 0, 55, 63
3, 66600, Note_on_c, 0, 60, 63
3, 66600, Note_on_c, 0, 40, 62
3, 66600, Note_on_c, 0, 52, 62
3, 66780, Note_on_c, 0, 60, 0
3, 66780, Note_on_c, 0, 55, 0
3, 66780, Note_on_c, 0, 55, 61
3, 66780, Note_on_c, 0, 60, 61
3, 66960, Note_on_c, 0, 60, 0
3, 66960, Note_on_c, 0, 55, 0
3, 66960, Note_on_c, 0, 55, 63
3, 66960, Note_on_c, 0, 60, 63
3, 67140, Note_on_c, 0, 60, 0
3, 67140, Note_on_c, 0, 55, 0
3, 67140, Note_on_c, 0, 55, 61
3, 67140, Note_on_c, 0, 60, 61
3, 67320, Note_on_c, 0, 60, 0
3, 67320, Note_on_c, 0, 55, 0
3, 67320, Note_on_c, 0, 55, 58
3, 67320, Note_on_c, 0, 60, 58
3, 67500, Note_on_c, 0, 60, 0
3, 67500, Note_on_c, 0, 55, 0
3, 67500, Note_on_c, 0, 55, 63
3, 67500, Note_on_c, 0, 60, 63
3, 67680, Note_on_c, 0, 60, 0
3, 67680, Note_on_c, 0, 52, 0
3, 67680, Note_on_c, 0, 40, 0
3, 67680, Note_on_c, 0, 55, 0
3, 67680, Note_on_c, 0, 60, 60
3, 67680, Note_on_c, 0, 41, 63
3, 67680, Note_on_c, 0, 53, 63
3, 67860, Note_on_c, 0, 53, 0
3, 67860, Note_on_c, 0, 41, 0
3, 67860, Note_on_c, 0, 41, 54
3, 67860, Note_on_c, 0, 53, 54
3, 68040, Note_on_c, 0, 53, 0
3, 68040, Note_on_c, 0, 41, 0
3, 68040, Note_on_c, 0, 41, 57
3, 68040, Note_on_c, 0, 53, 57
3, 68220, Note_on_c, 0, 53, 0
3, 68220, Note_on_c, 0, 41, 0
3, 68220, Note_on_c, 0, 60, 0
3, 68220, Note_on_c, 0, 56, 55
3, 68220, Note_on_c, 0, 41, 58
3, 68220, Note_on_c, 0, 53, 58
3, 68400, Note_on_c, 0, 53, 0
3, 68400, Note_on_c, 0, 41, 0
3, 68400, Note_on_c, 0, 56, 0
3, 68400, Note_on_c, 0, 58, 58
3, 68400, Note_on_c, 0, 41, 58
3, 68400, Note_on_c, 0, 53, 58
3, 68580, Note_on_c, 0, 53, 0
3, 68580, Note_on_c, 0, 41, 0
3, 68580, Note_on_c, 0, 58, 0
3, 68580, Note_on_c, 0, 57, 59
3, 68580, Note_on_c, 0, 41, 61
3, 68580, Note_on_c, 0, 53, 61
3, 68760, Note_on_c, 0, 53, 0
3, 68760, Note_on_c, 0, 41, 0
3, 68760, Note_on_c, 0, 57, 0
3, 68760, Note_on_c, 0, 57, 70
3, 68760, Note_on_c, 0, 62, 70
3, 68760, Note_on_c, 0, 42, 63
3, 68760, Note_on_c, 0, 54, 63
3, 68940, Note_on_c, 0, 62, 0
3, 68940, Note_on_c, 0, 57, 0
3, 68940, Note_on_c, 0, 57, 64
3, 68940, Note_on_c, 0, 62, 64
3, 69120, Note_on_c, 0, 62, 0
3, 69120, Note_on_c, 0, 57, 0
3, 69120, Note_on_c, 0, 57, 59
3, 69120, Note_on_c, 0, 62, 59
3, 69300, Note_on_c, 0, 62, 0
3, 69300, Note_on_c, 0, 54, 0
3, 69300, Note_on_c, 0, 42, 0
3, 69300, Note_on_c, 0, 57, 0
3, 69300, Note_on_c, 0, 62, 60
3, 69300, Note_on_c, 0, 43, 63
3, 69300, Note_on_c, 0, 55, 63
3, 69480, Note_on_c, 0, 55, 0
3, 69480, Note_on_c, 0, 43, 0
3, 69480, Note_on_c, 0, 43, 64
3, 69480, Note_on_c, 0, 55, 64
3, 69660, Note_on_c, 0, 55, 0
3, 69660, Note_on_c, 0, 43, 0
3, 69660, Note_on_c, 0, 62, 0
3, 69660, Note_on_c, 0, 58, 61
3, 69660, Note_on_c, 0, 43, 58
3, 69660, Note_on_c, 0, 55, 58
3, 69840, Note_on_c, 0, 55, 0
3, 69840, Note_on_c, 0, 43, 0
3, 69840, Note_on_c, 0, 58, 0
3, 69840, Note_on_c, 0, 57, 58
3, 69840, Note_on_c, 0, 42, 63
3, 69840, Note_on_c, 0, 54, 63
3, 70020, Note_on_c, 0, 54, 0
3, 70020, Note_on_c, 0, 42, 0
3, 70020, Note_on_c, 0, 57, 0
3, 70020, Note_on_c, 0, 55, 59
3, 70020, Note_on_c, 0, 40, 56
3, 70020, Note_on_c, 0, 52, 56
3, 70200, Note_on_c, 0, 52, 0
3, 70200, Note_on_c, 0, 40, 0
3, 70200, Note_on_c, 0, 55, 0
3, 70200, Note_on_c, 0, 54, 61
3, 70200, Note_on_c, 0, 38, 61
3, 70200, Note_on_c, 0, 50, 61
3, 70380, Note_on_c, 0, 50, 0
3, 70380, Note_on_c, 0, 38, 0
3, 70380, Note_on_c, 0, 54, 0
3, 70380, Note_on_c, 0, 62, 76
3, 70380, Note_on_c, 0, 43, 64
3, 70380, Note_on_c, 0, 55, 64
3, 70560, Note_on_c, 0, 55, 0
3, 70560, Note_on_c, 0, 43, 0
3, 70560, Note_on_c, 0, 43, 61
3, 70560, Note_on_c, 0, 55, 61
3, 70740, Note_on_c, 0, 55, 0
3, 70740, Note_on_c, 0, 43, 0
3, 70740, Note_on_c, 0, 62, 0
3, 70740, Note_on_c, 0, 58, 62
3, 70740, Note_on_c, 0, 43, 61
3, 70740, Note_on_c, 0, 55, 61
3, 70920, Note_on_c, 0, 55, 0
3, 70920, Note_on_c, 0, 43, 0
3, 70920, Note_on_c, 0, 58, 0
3, 70920, Note_on_c, 0, 50, 67
3, 70920, Note_on_c, 0, 57, 67
3, 70920, Note_on_c, 0, 62, 67
3, 70920, Note_on_c, 0, 30, 48
3, 70920, Note_on_c, 0, 42, 48
3, 71280, Note_on_c, 0, 42, 0
3, 71280, Note_on_c, 0, 62, 0
3, 71280, Note_on_c, 0, 50, 0
3, 71280, Note_on_c, 0, 57, 0
3, 71280, Note_on_c, 0, 30, 0
3, 71280, Note_on_c, 0, 57, 60
3, 71280, Note_on_c, 0, 62, 60
3, 71280, Note_on_c, 0, 42, 67
3, 71280, Note_on_c, 0, 54, 67
3, 71640, Note_on_c, 0, 54, 0
3, 71640, Note_on_c, 0, 57, 0
3, 71640, Note_on_c, 0, 62, 0
3, 71640, Note_on_c, 0, 42, 0
3, 71640, Note_on_c, 0, 57, 64
3, 71640, Note_on_c, 0, 62, 64
3, 71640, Note_on_c, 0, 42, 60
3, 71640, Note_on_c, 0, 54, 60
3, 72000, Note_on_c, 0, 54, 0
3, 72000, Note_on_c, 0, 57, 0
3, 72000, Note_on_c, 0, 62, 0
3, 72000, Note_on_c, 0, 42, 0
3, 72000, Note_on_c, 0, 50, 62
3, 72000, Note_on_c, 0, 56, 62
3, 72000, Note_on_c, 0, 58, 62
3, 72000, Note_on_c, 0, 62, 62
3, 72000, Note_on_c, 0, 29, 56
3, 72000, Note_on_c, 0, 41, 56
3, 72360, Note_on_c, 0, 41, 0
3, 72360, Note_on_c, 0, 56, 0
3, 72360, Note_on_c, 0, 58, 0
3, 72360, Note_on_c, 0, 50, 0
3, 72360, Note_on_c, 0, 29, 0
3, 72360, Note_on_c, 0, 62, 0
3, 72360, Note_on_c, 0, 56, 59
3, 72360, Note_on_c, 0, 58, 59
3, 72360, Note_on_c, 0, 62, 59
3, 72360, Note_on_c, 0, 41, 64
3, 72360, Note_on_c, 0, 53, 64
3, 72720, Note_on_c, 0, 53, 0
3, 72720, Note_on_c, 0, 62, 0
3, 72720, Note_on_c, 0, 56, 0
3, 72720, Note_on_c, 0, 58, 0
3, 72720, Note_on_c, 0, 41, 0
3, 72720, Note_on_c, 0, 56, 61
3, 72720, Note_on_c, 0, 58, 61
3, 72720, Note_on_c, 0, 62, 61
3, 72720, Note_on_c, 0, 41, 51
3, 72720, Note_on_c, 0, 53, 51
3, 73080, Note_on_c, 0, 53, 0
3, 73080, Note_on_c, 0, 62, 0
3, 73080, Note_on_c, 0, 56, 0
3, 73080, Note_on_c, 0, 58, 0
3, 73080, Note_on_c, 0, 41, 0
3, 73440, Note_on_c, 0, 56, 84
3, 73530, Note_on_c, 0, 56, 0
3, 73530, Note_on_c, 0, 55, 94
3, 73620, Note_on_c, 0, 55, 0
3, 73620, Note_on_c, 0, 53, 93
3, 73710, Note_on_c, 0, 53, 0
3, 73710, Note_on_c, 0, 63, 89
3, 73710, Note_on_c, 0, 51, 94
3, 73800, Note_on_c, 0, 51, 0
3, 73800, Note_on_c, 0, 63, 0
3, 73800, Note_on_c, 0, 62, 94
3, 73800, Note_on_c, 0, 50, 97
3, 73890, Note_on_c, 0, 50, 0
3, 73890, Note_on_c, 0, 62, 0
3, 73890, Note_on_c, 0, 60, 89
3, 73890, Note_on_c, 0, 48, 98
3, 73980, Note_on_c, 0, 48, 0
3, 73980, Note_on_c, 0, 60, 0
3, 73980, Note_on_c, 0, 58, 93
3, 73980, Note_on_c, 0, 46, 98
3, 74070, Note_on_c, 0, 46, 0
3, 74070, Note_on_c, 0, 58, 0
3, 74070, Note_on_c, 0, 57, 96
3, 74070, Note_on_c, 0, 45, 93
3, 74160, Note_on_c, 0, 45, 0
3, 74160, Note_on_c, 0, 57, 0
3, 74160, Note_on_c, 0, 50, 99
3, 74160, Note_on_c, 0, 56, 99
3, 74160, Note_on_c, 0, 58, 99
3, 74160, Note_on_c, 0, 29, 89
3, 74160, Note_on_c, 0, 41, 89
3, 74520, Note_on_c, 0, 41, 0
3, 74520, Note_on_c, 0, 58, 0
3, 74520, Note_on_c, 0, 50, 0
3, 74520, Note_on_c, 0, 56, 0
3, 74520, Note_on_c, 0, 29, 0
3, 74520, Note_on_c, 0, 56, 112
3, 74520, Note_on_c, 0, 58, 112
3, 74520, Note_on_c, 0, 62, 112
3, 74520, Note_on_c, 0, 41, 114
3, 74520, Note_on_c, 0, 53, 114
3, 74880, Note_on_c, 0, 53, 0
3, 74880, Note_on_c, 0, 62, 0
3, 74880, Note_on_c, 0, 56, 0
3, 74880, Note_on_c, 0, 58, 0
3, 74880, Note_on_c, 0, 41, 0
3, 74880, Note_on_c, 0, 56, 102
3, 74880, Note_on_c, 0, 58, 102
3, 74880, Note_on_c, 0, 62, 102
3, 74880, Note_on_c, 0, 41, 101
3, 74880, Note_on_c, 0, 53, 101
3, 75240, Note_on_c, 0, 53, 0
3, 75240, Note_on_c, 0, 62, 0
3, 75240, Note_on_c, 0, 56, 0
3, 75240, Note_on_c, 0, 58, 0
3, 75240, Note_on_c, 0, 41, 0
3, 75600, Note_on_c, 0, 56, 87
3, 75690, Note_on_c, 0, 56, 0
3, 75690, Note_on_c, 0, 55, 97
3, 75780, Note_on_c, 0, 55, 0
3, 75780, Note_on_c, 0, 53, 94
3, 75870, Note_on_c, 0, 53, 0
3, 75870, Note_on_c, 0, 63, 87
3, 75870, Note_on_c, 0, 51, 94
3, 75960, Note_on_c, 0, 51, 0
3, 75960, Note_on_c, 0, 63, 0
3, 75960, Note_on_c, 0, 62, 89
3, 75960, Note_on_c, 0, 50, 97
3, 76050, Note_on_c, 0, 50, 0
3, 76050, Note_on_c, 0, 62, 0
3, 76050, Note_on_c, 0, 60, 91
3, 76050, Note_on_c, 0, 48, 97
3, 76140, Note_on_c, 0, 48, 0
3, 76140, Note_on_c, 0, 60, 0
3, 76140, Note_on_c, 0, 58, 94
3, 76140, Note_on_c, 0, 46, 93
3, 76230, Note_on_c, 0, 46, 0
3, 76230, Note_on_c, 0, 58, 0
3, 76230, Note_on_c, 0, 57, 99
3, 76230, Note_on_c, 0, 45, 97
3, 76320, Note_on_c, 0, 45, 0
3, 76320, Note_on_c, 0, 57, 0
3, 76320, Note_on_c, 0, 56, 111
3, 76320, Note_on_c, 0, 58, 111
3, 76320, Note_on_c, 0, 62, 111
3, 76320, Note_on_c, 0, 41, 109
3, 76320, Note_on_c, 0, 53, 109
3, 76680, Note_on_c, 0, 53, 0
3, 76680, Note_on_c, 0, 62, 0
3, 76680, Note_on_c, 0, 56, 0
3, 76680, Note_on_c, 0, 58, 0
3, 76680, Note_on_c, 0, 41, 0
3, 76680, Note_on_c, 0, 56, 104
3, 76680, Note_on_c, 0, 58, 104
3, 76680, Note_on_c, 0, 62, 104
3, 76680, Note_on_c, 0, 41, 93
3, 76680, Note_on_c, 0, 53, 93
3, 76860, Note_on_c, 0, 53, 0
3, 76860, Note_on_c, 0, 62, 0
3, 76860, Note_on_c, 0, 56, 0
3, 76860, Note_on_c, 0, 58, 0
3, 76860, Note_on_c, 0, 41, 0
3, 77040, Note_on_c, 0, 58, 91
3, 77085, Note_on_c, 0, 58, 0
3, 77085, Note_on_c, 0, 60, 100
3, 77130, Note_on_c, 0, 60, 0
3, 77130, Note_on_c, 0, 62, 102
3, 77175, Note_on_c, 0, 62, 0
3, 77175, Note_on_c, 0, 63, 99
3, 77220, Note_on_c, 0, 63, 0
3, 77220, Note_on_c, 0, 65, 104
3, 77310, Note_on_c, 0, 65, 0
3, 77400, Note_on_c, 0, 56, 89
3, 77400, Note_on_c, 0, 58, 89
3, 77400, Note_on_c, 0, 62, 89
3, 77400, Note_on_c, 0, 41, 92
3, 77400, Note_on_c, 0, 53, 92
3, 77760, Note_on_c, 0, 53, 0
3, 77760, Note_on_c, 0, 62, 0
3, 77760, Note_on_c, 0, 56, 0
3, 77760, Note_on_c, 0, 58, 0
3, 77760, Note_on_c, 0, 41, 0
3, 77760, Note_on_c, 0, 56, 97
3, 77760, Note_on_c, 0, 58, 97
3, 77760, Note_on_c, 0, 62, 97
3, 77760, Note_on_c, 0, 41, 94
3, 77760, Note_on_c, 0, 53, 94
3, 77940, Note_on_c, 0, 53, 0
3, 77940, Note_on_c, 0, 62, 0
3, 77940, Note_on_c, 0, 56, 0
3, 77940, Note_on_c, 0, 58, 0
3, 77940, Note_on_c, 0, 41, 0
3, 78120, Note_on_c, 0, 58, 88
3, 78165, Note_on_c, 0, 58, 0
3, 78165, Note_on_c, 0, 60, 100
3, 78210, Note_on_c, 0, 60, 0
3, 78210, Note_on_c, 0, 62, 106
3, 78255, Note_on_c, 0, 62, 0
3, 78255, Note_on_c, 0, 63, 99
3, 78300, Note_on_c, 0, 63, 0
3, 78300, Note_on_c, 0, 65, 101
3, 78390, Note_on_c, 0, 65, 0
3, 78480, Note_on_c, 0, 56, 87
3, 78480, Note_on_c, 0, 58, 87
3, 78480, Note_on_c, 0, 62, 87
3, 78480, Note_on_c, 0, 41, 89
3, 78480, Note_on_c, 0, 53, 89
3, 78840, Note_on_c, 0, 53, 0
3, 78840, Note_on_c, 0, 62, 0
3, 78840, Note_on_c, 0, 56, 0
3, 78840, Note_on_c, 0, 58, 0
3, 78840, Note_on_c, 0, 41, 0
3, 78840, Note_on_c, 0, 56, 96
3, 78840, Note_on_c, 0, 58, 96
3, 78840, Note_on_c, 0, 62, 96
3, 78840, Note_on_c, 0, 41, 97
3, 78840, Note_on_c, 0, 53, 97
3, 79020, Note_on_c, 0, 53, 0
3, 79020, Note_on_c, 0, 62, 0
3, 79020, Note_on_c, 0, 56, 0
3, 79020, Note_on_c, 0, 58, 0
3, 79020, Note_on_c, 0, 41, 0
3, 79020, Note_on_c, 0, 53, 85
3, 79200, Note_on_c, 0, 53, 0
3, 79200, Note_on_c, 0, 55, 99
3, 79380, Note_on_c, 0, 55, 0
3, 79380, Note_on_c, 0, 56, 103
3, 79560, Note_on_c, 0, 56, 0
3, 79560, Note_on_c, 0, 59, 99
3, 79560, Note_on_c, 0, 44, 82
3, 79560, Note_on_c, 0, 56, 82
3, 79740, Note_on_c, 0, 59, 0
3, 79740, Note_on_c, 0, 60, 104
3, 79920, Note_on_c, 0, 60, 0
3, 79920, Note_on_c, 0, 56, 0
3, 79920, Note_on_c, 0, 44, 0
3, 79920, Note_on_c, 0, 61, 103
3, 79920, Note_on_c, 0, 41, 90
3, 79920, Note_on_c, 0, 53, 90
3, 80100, Note_on_c, 0, 61, 0
3, 80100, Note_on_c, 0, 62, 107
3, 80280, Note_on_c, 0, 62, 0
3, 80280, Note_on_c, 0, 53, 0
3, 80280, Note_on_c, 0, 41, 0
3, 80280, Note_on_c, 0, 52, 87
3, 80280, Note_on_c, 0, 38, 92
3, 80280, Note_on_c, 0, 50, 92
3, 80460, Note_on_c, 0, 52, 0
3, 80460, Note_on_c, 0, 53, 99
3, 80640, Note_on_c, 0, 53, 0
3, 80640, Note_on_c, 0, 50, 0
3, 80640, Note_on_c, 0, 38, 0
3, 80640, Note_on_c, 0, 55, 104
3, 80640, Note_on_c, 0, 35, 89
3, 80640, Note_on_c, 0, 47, 89
3, 80820, Note_on_c, 0, 55, 0
3, 80820, Note_on_c, 0, 56, 101
3, 81000, Note_on_c, 0, 56, 0
3, 81000, Note_on_c, 0, 47, 0
3, 81000, Note_on_c, 0, 35, 0
3, 81000, Note_on_c, 0, 59, 103
3, 81000, Note_on_c, 0, 32, 91
3, 81000, Note_on_c, 0, 44, 91
3, 81180, Note_on_c, 0, 59, 0
3, 81180, Note_on_c, 0, 60, 105
3, 81360, Note_on_c, 0, 60, 0
3, 81360, Note_on_c, 0, 44, 0
3, 81360, Note_on_c, 0, 32, 0
3, 81360, Note_on_c, 0, 61, 102
3, 81360, Note_on_c, 0, 29, 93
3, 81360, Note_on_c, 0, 41, 93
3, 81540, Note_on_c, 0, 61, 0
3, 81540, Note_on_c, 0, 62, 103
3, 81720, Note_on_c, 0, 62, 0
3, 81720, Note_on_c, 0, 41, 0
3, 81720, Note_on_c, 0, 29, 0
3, 81720, Note_on_c, 0, 55, 73
3, 81720, Note_on_c, 0, 58, 73
3, 81720, Note_on_c, 0, 63, 73
3, 81720, Note_on_c, 0, 39, 89
3, 81720, Note_on_c, 0, 51, 89
3, 81810, Note_on_c, 0, 63, 0
3, 81810, Note_on_c, 0, 55, 0
3, 81810, Note_on_c, 0, 58, 0
3, 81810, Note_on_c, 0, 55, 76
3, 81810, Note_on_c, 0, 58, 76
3, 81810, Note_on_c, 0, 63, 76
3, 81900, Note_on_c, 0, 63, 0
3, 81900, Note_on_c, 0, 55, 0
3, 81900, Note_on_c, 0, 58, 0
3, 81900, Note_on_c, 0, 55, 71
3, 81900, Note_on_c, 0, 58, 71
3, 81900, Note_on_c, 0, 63, 71
3, 81990, Note_on_c, 0, 63, 0
3, 81990, Note_on_c, 0, 55, 0
3, 81990, Note_on_c, 0, 58, 0
3, 81990, Note_on_c, 0, 55, 75
3, 81990, Note_on_c, 0, 58, 75
3, 81990, Note_on_c, 0, 63, 75
3, 82080, Note_on_c, 0, 63, 0
3, 82080, Note_on_c, 0, 55, 0
3, 82080, Note_on_c, 0, 58, 0
3, 82080, Note_on_c, 0, 55, 74
3, 82080, Note_on_c, 0, 58, 74
3, 82080, Note_on_c, 0, 63, 74
3, 82170, Note_on_c, 0, 63, 0
3, 82170, Note_on_c, 0, 55, 0
3, 82170, Note_on_c, 0, 58, 0
3, 82170, Note_on_c, 0, 55, 73
3, 82170, Note_on_c, 0, 58, 73
3, 82170, Note_on_c, 0, 63, 73
3, 82260, Note_on_c, 0, 63, 0
3, 82260, Note_on_c, 0, 55, 0
3, 82260, Note_on_c, 0, 58, 0
3, 82260, Note_on_c, 0, 55, 66
3, 82260, Note_on_c, 0, 58, 66
3, 82260, Note_on_c, 0, 63, 66
3, 82350, Note_on_c, 0, 63, 0
3, 82350, Note_on_c, 0, 55, 0
3, 82350, Note_on_c, 0, 51, 0
3, 82350, Note_on_c, 0, 39, 0
3, 82350, Note_on_c, 0, 58, 0
3, 82350, Note_on_c, 0, 34, 79
3, 82350, Note_on_c, 0, 46, 79
3, 82440, Note_on_c, 0, 46, 0
3, 82440, Note_on_c, 0, 34, 0
3, 82440, Note_on_c, 0, 36, 85
3, 82440, Note_on_c, 0, 48, 85
3, 82530, Note_on_c, 0, 48, 0
3, 82530, Note_on_c, 0, 36, 0
3, 82530, Note_on_c, 0, 34, 77
3, 82530, Note_on_c, 0, 46, 77
3, 82620, Note_on_c, 0, 46, 0
3, 82620, Note_on_c, 0, 34, 0
3, 82620, Note_on_c, 0, 33, 83
3, 82620, Note_on_c, 0, 45, 83
3, 82710, Note_on_c, 0, 45, 0
3, 82710, Note_on_c, 0, 33, 0
3, 82710, Note_on_c, 0, 34, 85
3, 82710, Note_on_c, 0, 46, 85
3, 82800, Note_on_c, 0, 46, 0
3, 82800, Note_on_c, 0, 34, 0
3, 82800, Note_on_c, 0, 55, 66
3, 82800, Note_on_c, 0, 58, 66
3, 82800, Note_on_c, 0, 63, 66
3, 82800, Note_on_c, 0, 39, 88
3, 82800, Note_on_c, 0, 51, 88
3, 82890, Note_on_c, 0, 63, 0
3, 82890, Note_on_c, 0, 55, 0
3, 82890, Note_on_c, 0, 58, 0
3, 82890, Note_on_c, 0, 55, 75
3, 82890, Note_on_c, 0, 58, 75
3, 82890, Note_on_c, 0, 63, 75
3, 82980, Note_on_c, 0, 63, 0
3, 82980, Note_on_c, 0, 55, 0
3, 82980, Note_on_c, 0, 58, 0
3, 82980, Note_on_c, 0, 55, 75
3, 82980, Note_on_c, 0, 58, 75
3, 82980, Note_on_c, 0, 63, 75
3, 83070, Note_on_c, 0, 63, 0
3, 83070, Note_on_c, 0, 55, 0
3, 83070, Note_on_c, 0, 58, 0
3, 83070, Note_on_c, 0, 55, 67
3, 83070, Note_on_c, 0, 58, 67
3, 83070, Note_on_c, 0, 63, 67
3, 83160, Note_on_c, 0, 63, 0
3, 83160, Note_on_c, 0, 55, 0
3, 83160, Note_on_c, 0, 58, 0
3, 83160, Note_on_c, 0, 55, 69
3, 83160, Note_on_c, 0, 58, 69
3, 83160, Note_on_c, 0, 63, 69
3, 83250, Note_on_c, 0, 63, 0
3, 83250, Note_on_c, 0, 55, 0
3, 83250, Note_on_c, 0, 58, 0
3, 83250, Note_on_c, 0, 55, 70
3, 83250, Note_on_c, 0, 58, 70
3, 83250, Note_on_c, 0, 63, 70
3, 83340, Note_on_c, 0, 63, 0
3, 83340, Note_on_c, 0, 55, 0
3, 83340, Note_on_c, 0, 58, 0
3, 83340, Note_on_c, 0, 55, 67
3, 83340, Note_on_c, 0, 58, 67
3, 83340, Note_on_c, 0, 63, 67
3, 83430, Note_on_c, 0, 63, 0
3, 83430, Note_on_c, 0, 55, 0
3, 83430, Note_on_c, 0, 51, 0
3, 83430, Note_on_c, 0, 39, 0
3, 83430, Note_on_c, 0, 58, 0
3, 83430, Note_on_c, 0, 34, 79
3, 83430, Note_on_c, 0, 46, 79
3, 83520, Note_on_c, 0, 46, 0
3, 83520, Note_on_c, 0, 34, 0
3, 83520, Note_on_c, 0, 36, 81
3, 83520, Note_on_c, 0, 48, 81
3, 83610, Note_on_c, 0, 48, 0
3, 83610, Note_on_c, 0, 36, 0
3, 83610, Note_on_c, 0, 34, 81
3, 83610, Note_on_c, 0, 46, 81
3, 83700, Note_on_c, 0, 46, 0
3, 83700, Note_on_c, 0, 34, 0
3, 83700, Note_on_c, 0, 33, 85
3, 83700, Note_on_c, 0, 45, 85
3, 83790, Note_on_c, 0, 45, 0
3, 83790, Note_on_c, 0, 33, 0
3, 83790, Note_on_c, 0, 34, 87
3, 83790, Note_on_c, 0, 46, 87
3, 83880, Note_on_c, 0, 46, 0
3, 83880, Note_on_c, 0, 34, 0
3, 83880, Note_on_c, 0, 56, 61
3, 83880, Note_on_c, 0, 60, 61
3, 83880, Note_on_c, 0, 63, 61
3, 83880, Note_on_c, 0, 39, 87
3, 83880, Note_on_c, 0, 51, 87
3, 83970, Note_on_c, 0, 63, 0
3, 83970, Note_on_c, 0, 56, 0
3, 83970, Note_on_c, 0, 60, 0
3, 83970, Note_on_c, 0, 56, 69
3, 83970, Note_on_c, 0, 60, 69
3, 83970, Note_on_c, 0, 63, 69
3, 84060, Note_on_c, 0, 63, 0
3, 84060, Note_on_c, 0, 56, 0
3, 84060, Note_on_c, 0, 60, 0
3, 84060, Note_on_c, 0, 56, 67
3, 84060, Note_on_c, 0, 60, 67
3, 84060, Note_on_c, 0, 63, 67
3, 84150, Note_on_c, 0, 63, 0
3, 84150, Note_on_c, 0, 56, 0
3, 84150, Note_on_c, 0, 60, 0
3, 84150, Note_on_c, 0, 56, 72
3, 84150, Note_on_c, 0, 60, 72
3, 84150, Note_on_c, 0, 63, 72
3, 84240, Note_on_c, 0, 63, 0
3, 84240, Note_on_c, 0, 56, 0
3, 84240, Note_on_c, 0, 60, 0
3, 84240, Note_on_c, 0, 56, 71
3, 84240, Note_on_c, 0, 60, 71
3, 84240, Note_on_c, 0, 63, 71
3, 84330, Note_on_c, 0, 63, 0
3, 84330, Note_on_c, 0, 56, 0
3, 84330, Note_on_c, 0, 60, 0
3, 84330, Note_on_c, 0, 56, 72
3, 84330, Note_on_c, 0, 60, 72
3, 84330, Note_on_c, 0, 63, 72
3, 84420, Note_on_c, 0, 63, 0
3, 84420, Note_on_c, 0, 56, 0
3, 84420, Note_on_c, 0, 60, 0
3, 84420, Note_on_c, 0, 56, 72
3, 84420, Note_on_c, 0, 60, 72
3, 84420, Note_on_c, 0, 63, 72
3, 84510, Note_on_c, 0, 63, 0
3, 84510, Note_on_c, 0, 56, 0
3, 84510, Note_on_c, 0, 51, 0
3, 84510, Note_on_c, 0, 39, 0
3, 84510, Note_on_c, 0, 60, 0
3, 84510, Note_on_c, 0, 39, 84
3, 84510, Note_on_c, 0, 51, 84
3, 84600, Note_on_c, 0, 51, 0
3, 84600, Note_on_c, 0, 39, 0
3, 84600, Note_on_c, 0, 41, 91
3, 84600, Note_on_c, 0, 53, 91
3, 84690, Note_on_c, 0, 53, 0
3, 84690, Note_on_c, 0, 41, 0
3, 84690, Note_on_c, 0, 39, 81
3, 84690, Note_on_c, 0, 51, 81
3, 84780, Note_on_c, 0, 51, 0
3, 84780, Note_on_c, 0, 39, 0
3, 84780, Note_on_c, 0, 38, 76
3, 84780, Note_on_c, 0, 50, 76
3, 84870, Note_on_c, 0, 50, 0
3, 84870, Note_on_c, 0, 38, 0
3, 84870, Note_on_c, 0, 39, 87
3, 84870, Note_on_c, 0, 51, 87
3, 84960, Note_on_c, 0, 51, 0
3, 84960, Note_on_c, 0, 39, 0
3, 84960, Note_on_c, 0, 53, 60
3, 84960, Note_on_c, 0, 58, 60
3, 84960, Note_on_c, 0, 65, 60
3, 84960, Note_on_c, 0, 38, 81
3, 84960, Note_on_c, 0, 50, 81
3, 85050, Note_on_c, 0, 65, 0
3, 85050, Note_on_c, 0, 53, 0
3, 85050, Note_on_c, 0, 58, 0
3, 85050, Note_on_c, 0, 53, 64
3, 85050, Note_on_c, 0, 58, 64
3, 85050, Note_on_c, 0, 65, 64
3, 85140, Note_on_c, 0, 65, 0
3, 85140, Note_on_c, 0, 53, 0
3, 85140, Note_on_c, 0, 58, 0
3, 85140, Note_on_c, 0, 53, 71
3, 85140, Note_on_c, 0, 58, 71
3, 85140, Note_on_c, 0, 65, 71
3, 85230, Note_on_c, 0, 65, 0
3, 85230, Note_on_c, 0, 53, 0
3, 85230, Note_on_c, 0, 58, 0
3, 85230, Note_on_c, 0, 53, 70
3, 85230, Note_on_c, 0, 58, 70
3, 85230, Note_on_c, 0, 65, 70
3, 85320, Note_on_c, 0, 65, 0
3, 85320, Note_on_c, 0, 53, 0
3, 85320, Note_on_c, 0, 58, 0
3, 85320, Note_on_c, 0, 53, 71
3, 85320, Note_on_c, 0, 58, 71
3, 85320, Note_on_c, 0, 65, 71
3, 85410, Note_on_c, 0, 65, 0
3, 85410, Note_on_c, 0, 53, 0
3, 85410, Note_on_c, 0, 58, 0
3, 85410, Note_on_c, 0, 53, 69
3, 85410, Note_on_c, 0, 58, 69
3, 85410, Note_on_c, 0, 65, 69
3, 85500, Note_on_c, 0, 65, 0
3, 85500, Note_on_c, 0, 53, 0
3, 85500, Note_on_c, 0, 58, 0
3, 85500, Note_on_c, 0, 53, 64
3, 85500, Note_on_c, 0, 58, 64
3, 85590, Note_on_c, 0, 58, 0
3, 85590, Note_on_c, 0, 50, 0
3, 85590, Note_on_c, 0, 38, 0
3, 85590, Note_on_c, 0, 53, 0
3, 85590, Note_on_c, 0, 38, 79
3, 85590, Note_on_c, 0, 50, 79
3, 85680, Note_on_c, 0, 50, 0
3, 85680, Note_on_c, 0, 38, 0
3, 85680, Note_on_c, 0, 39, 83
3, 85680, Note_on_c, 0, 51, 83
3, 85770, Note_on_c, 0, 51, 0
3, 85770, Note_on_c, 0, 39, 0
3, 85770, Note_on_c, 0, 38, 84
3, 85770, Note_on_c, 0, 50, 84
3, 85860, Note_on_c, 0, 50, 0
3, 85860, Note_on_c, 0, 38, 0
3, 85860, Note_on_c, 0, 37, 86
3, 85860, Note_on_c, 0, 49, 86
3, 85950, Note_on_c, 0, 49, 0
3, 85950, Note_on_c, 0, 37, 0
3, 85950, Note_on_c, 0, 38, 88
3, 85950, Note_on_c, 0, 50, 88
3, 86040, Note_on_c, 0, 50, 0
3, 86040, Note_on_c, 0, 38, 0
3, 86040, Note_on_c, 0, 55, 61
3, 86040, Note_on_c, 0, 61, 61
3, 86040, Note_on_c, 0, 65, 61
3, 86040, Note_on_c, 0, 37, 82
3, 86040, Note_on_c, 0, 49, 82
3, 86130, Note_on_c, 0, 65, 0
3, 86130, Note_on_c, 0, 55, 0
3, 86130, Note_on_c, 0, 61, 0
3, 86130, Note_on_c, 0, 55, 68
3, 86130, Note_on_c, 0, 61, 68
3, 86130, Note_on_c, 0, 65, 68
3, 86220, Note_on_c, 0, 65, 0
3, 86220, Note_on_c, 0, 55, 0
3, 86220, Note_on_c, 0, 61, 0
3, 86220, Note_on_c, 0, 55, 73
3, 86220, Note_on_c, 0, 61, 73
3, 86220, Note_on_c, 0, 65, 73
3, 86310, Note_on_c, 0, 65, 0
3, 86310, Note_on_c, 0, 55, 0
3, 86310, Note_on_c, 0, 61, 0
3, 86310, Note_on_c, 0, 55, 70
3, 86310, Note_on_c, 0, 61, 70
3, 86310, Note_on_c, 0, 65, 70
3, 86400, Note_on_c, 0, 65, 0
3, 86400, Note_on_c, 0, 55, 0
3, 86400, Note_on_c, 0, 61, 0
3, 86400, Note_on_c, 0, 55, 69
3, 86400, Note_on_c, 0, 61, 69
3, 86400, Note_on_c, 0, 65, 69
3, 86490, Note_on_c, 0, 65, 0
3, 86490, Note_on_c, 0, 55, 0
3, 86490, Note_on_c, 0, 61, 0
3, 86490, Note_on_c, 0, 55, 77
3, 86490, Note_on_c, 0, 61, 77
3, 86490, Note_on_c, 0, 65, 77
3, 86580, Note_on_c, 0, 65, 0
3, 86580, Note_on_c, 0, 55, 0
3, 86580, Note_on_c, 0, 61, 0
3, 86580, Note_on_c, 0, 55, 72
3, 86580, Note_on_c, 0, 61, 72
3, 86580, Note_on_c, 0, 65, 72
3, 86670, Note_on_c, 0, 65, 0
3, 86670, Note_on_c, 0, 55, 0
3, 86670, Note_on_c, 0, 49, 0
3, 86670, Note_on_c, 0, 37, 0
3, 86670, Note_on_c, 0, 61, 0
3, 86670, Note_on_c, 0, 37, 83
3, 86670, Note_on_c, 0, 49, 83
3, 86760, Note_on_c, 0, 49, 0
3, 86760, Note_on_c, 0, 37, 0
3, 86760, Note_on_c, 0, 39, 90
3, 86760, Note_on_c, 0, 51, 90
3, 86850, Note_on_c, 0, 51, 0
3, 86850, Note_on_c, 0, 39, 0
3, 86850, Note_on_c, 0, 37, 80
3, 86850, Note_on_c, 0, 49, 80
3, 86940, Note_on_c, 0, 49, 0
3, 86940, Note_on_c, 0, 37, 0
3, 86940, Note_on_c, 0, 36, 84
3, 86940, Note_on_c, 0, 48, 84
3, 87030, Note_on_c, 0, 48, 0
3, 87030, Note_on_c, 0, 36, 0
3, 87030, Note_on_c, 0, 37, 85
3, 87030, Note_on_c, 0, 49, 85
3, 87120, Note_on_c, 0, 49, 0
3, 87120, Note_on_c, 0, 37, 0
3, 87120, Note_on_c, 0, 56, 61
3, 87120, Note_on_c, 0, 60, 61
3, 87120, Note_on_c, 0, 65, 61
3, 87120, Note_on_c, 0, 36, 78
3, 87120, Note_on_c, 0, 48, 78
3, 87210, Note_on_c, 0, 65, 0
3, 87210, Note_on_c, 0, 56, 0
3, 87210, Note_on_c, 0, 60, 0
3, 87210, Note_on_c, 0, 56, 70
3, 87210, Note_on_c, 0, 60, 70
3, 87210, Note_on_c, 0, 65, 70
3, 87300, Note_on_c, 0, 65, 0
3, 87300, Note_on_c, 0, 56, 0
3, 87300, Note_on_c, 0, 60, 0
3, 87300, Note_on_c, 0, 56, 68
3, 87300, Note_on_c, 0, 60, 68
3, 87300, Note_on_c, 0, 65, 68
3, 87390, Note_on_c, 0, 65, 0
3, 87390, Note_on_c, 0, 56, 0
3, 87390, Note_on_c, 0, 60, 0
3, 87390, Note_on_c, 0, 56, 70
3, 87390, Note_on_c, 0, 60, 70
3, 87390, Note_on_c, 0, 65, 70
3, 87480, Note_on_c, 0, 65, 0
3, 87480, Note_on_c, 0, 56, 0
3, 87480, Note_on_c, 0, 60, 0
3, 87480, Note_on_c, 0, 56, 72
3, 87480, Note_on_c, 0, 60, 72
3, 87480, Note_on_c, 0, 65, 72
3, 87570, Note_on_c, 0, 65, 0
3, 87570, Note_on_c, 0, 56, 0
3, 87570, Note_on_c, 0, 60, 0
3, 87570, Note_on_c, 0, 56, 69
3, 87570, Note_on_c, 0, 60, 69
3, 87570, Note_on_c, 0, 65, 69
3, 87660, Note_on_c, 0, 65, 0
3, 87660, Note_on_c, 0, 56, 0
3, 87660, Note_on_c, 0, 60, 0
3, 87660, Note_on_c, 0, 56, 69
3, 87660, Note_on_c, 0, 60, 69
3, 87660, Note_on_c, 0, 65, 69
3, 87750, Note_on_c, 0, 65, 0
3, 87750, Note_on_c, 0, 56, 0
3, 87750, Note_on_c, 0, 48, 0
3, 87750, Note_on_c, 0, 36, 0
3, 87750, Note_on_c, 0, 60, 0
3, 87750, Note_on_c, 0, 36, 83
3, 87750, Note_on_c, 0, 48, 83
3, 87840, Note_on_c, 0, 48, 0
3, 87840, Note_on_c, 0, 36, 0
3, 87840, Note_on_c, 0, 37, 84
3, 87840, Note_on_c, 0, 49, 84
3, 87930, Note_on_c, 0, 49, 0
3, 87930, Note_on_c, 0, 37, 0
3, 87930, Note_on_c, 0, 36, 83
3, 87930, Note_on_c, 0, 48, 83
3, 88020, Note_on_c, 0, 48, 0
3, 88020, Note_on_c, 0, 36, 0
3, 88020, Note_on_c, 0, 35, 86
3, 88020, Note_on_c, 0, 47, 86
3, 88110, Note_on_c, 0, 47, 0
3, 88110, Note_on_c, 0, 35, 0
3, 88110, Note_on_c, 0, 36, 87
3, 88110, Note_on_c, 0, 48, 87
3, 88200, Note_on_c, 0, 48, 0
3, 88200, Note_on_c, 0, 36, 0
3, 88200, Note_on_c, 0, 56, 65
3, 88200, Note_on_c, 0, 61, 65
3, 88200, Note_on_c, 0, 65, 65
3, 88200, Note_on_c, 0, 35, 81
3, 88200, Note_on_c, 0, 47, 81
3, 88290, Note_on_c, 0, 65, 0
3, 88290, Note_on_c, 0, 56, 0
3, 88290, Note_on_c, 0, 61, 0
3, 88290, Note_on_c, 0, 56, 69
3, 88290, Note_on_c, 0, 61, 69
3, 88290, Note_on_c, 0, 65, 69
3, 88380, Note_on_c, 0, 65, 0
3, 88380, Note_on_c, 0, 56, 0
3, 88380, Note_on_c, 0, 61, 0
3, 88380, Note_on_c, 0, 56, 75
3, 88380, Note_on_c, 0, 61, 75
3, 88380, Note_on_c, 0, 65, 75
3, 88470, Note_on_c, 0, 65, 0
3, 88470, Note_on_c, 0, 56, 0
3, 88470, Note_on_c, 0, 61, 0
3, 88470, Note_on_c, 0, 56, 70
3, 88470, Note_on_c, 0, 61, 70
3, 88470, Note_on_c, 0, 65, 70
3, 88560, Note_on_c, 0, 65, 0
3, 88560, Note_on_c, 0, 56, 0
3, 88560, Note_on_c, 0, 61, 0
3, 88560, Note_on_c, 0, 56, 67
3, 88560, Note_on_c, 0, 61, 67
3, 88560, Note_on_c, 0, 65, 67
3, 88650, Note_on_c, 0, 65, 0
3, 88650, Note_on_c, 0, 56, 0
3, 88650, Note_on_c, 0, 61, 0
3, 88650, Note_on_c, 0, 56, 72
3, 88650, Note_on_c, 0, 61, 72
3, 88650, Note_on_c, 0, 65, 72
3, 88740, Note_on_c, 0, 65, 0
3, 88740, Note_on_c, 0, 56, 0
3, 88740, Note_on_c, 0, 61, 0
3, 88740, Note_on_c, 0, 56, 70
3, 88740, Note_on_c, 0, 61, 70
3, 88740, Note_on_c, 0, 65, 70
3, 88830, Note_on_c, 0, 65, 0
3, 88830, Note_on_c, 0, 56, 0
3, 88830, Note_on_c, 0, 47, 0
3, 88830, Note_on_c, 0, 35, 0
3, 88830, Note_on_c, 0, 61, 0
3, 88830, Note_on_c, 0, 35, 87
3, 88830, Note_on_c, 0, 47, 87
3, 88920, Note_on_c, 0, 47, 0
3, 88920, Note_on_c, 0, 35, 0
3, 88920, Note_on_c, 0, 37, 87
3, 88920, Note_on_c, 0, 49, 87
3, 89010, Note_on_c, 0, 49, 0
3, 89010, Note_on_c, 0, 37, 0
3, 89010, Note_on_c, 0, 35, 81
3, 89010, Note_on_c, 0, 47, 81
3, 89100, Note_on_c, 0, 47, 0
3, 89100, Note_on_c, 0, 35, 0
3, 89100, Note_on_c, 0, 34, 81
3, 89100, Note_on_c, 0, 46, 81
3, 89190, Note_on_c, 0, 46, 0
3, 89190, Note_on_c, 0, 34, 0
3, 89190, Note_on_c, 0, 35, 87
3, 89190, Note_on_c, 0, 47, 87
3, 89280, Note_on_c, 0, 47, 0
3, 89280, Note_on_c, 0, 35, 0
3, 89280, Note_on_c, 0, 56, 60
3, 89280, Note_on_c, 0, 62, 60
3, 89280, Note_on_c, 0, 65, 60
3, 89280, Note_on_c, 0, 34, 83
3, 89280, Note_on_c, 0, 46, 83
3, 89370, Note_on_c, 0, 65, 0
3, 89370, Note_on_c, 0, 56, 0
3, 89370, Note_on_c, 0, 62, 0
3, 89370, Note_on_c, 0, 63, 68
3, 89460, Note_on_c, 0, 63, 0
3, 89460, Note_on_c, 0, 67, 80
3, 89550, Note_on_c, 0, 67, 0
3, 89550, Note_on_c, 0, 65, 72
3, 89640, Note_on_c, 0, 65, 0
3, 89640, Note_on_c, 0, 63, 66
3, 89730, Note_on_c, 0, 63, 0
3, 89730, Note_on_c, 0, 62, 68
3, 89820, Note_on_c, 0, 62, 0
3, 89820, Note_on_c, 0, 34, 0
3, 89820, Note_on_c, 0, 46, 0
3, 89820, Note_on_c, 0, 60, 66
3, 89910, Note_on_c, 0, 60, 0
3, 89910, Note_on_c, 0, 58, 70
3, 90000, Note_on_c, 0, 58, 0
3, 90000, Note_on_c, 0, 57, 74
3, 90090, Note_on_c, 0, 57, 0
3, 90090, Note_on_c, 0, 58, 78
3, 90180, Note_on_c, 0, 58, 0
3, 90180, Note_on_c, 0, 56, 75
3, 90270, Note_on_c, 0, 56, 0
3, 90270, Note_on_c, 0, 53, 78
3, 90360, Note_on_c, 0, 53, 0
3, 90360, Note_on_c, 0, 63, 89
3, 90360, Note_on_c, 0, 51, 79
3, 90540, Note_on_c, 0, 51, 0
3, 90900, Note_on_c, 0, 63, 0
3, 90900, Note_on_c, 0, 63, 93
3, 90900, Note_on_c, 0, 39, 75
3, 90900, Note_on_c, 0, 51, 75
3, 91080, Note_on_c, 0, 51, 0
3, 91080, Note_on_c, 0, 39, 0
3, 91260, Note_on_c, 0, 63, 0
3, 91260, Note_on_c, 0, 62, 91
3, 91440, Note_on_c, 0, 62, 0
3, 91440, Note_on_c, 0, 63, 102
3, 91440, Note_on_c, 0, 41, 75
3, 91440, Note_on_c, 0, 53, 75
3, 91620, Note_on_c, 0, 53, 0
3, 91620, Note_on_c, 0, 41, 0
3, 91620, Note_on_c, 0, 63, 0
3, 91620, Note_on_c, 0, 62, 92
3, 91800, Note_on_c, 0, 62, 0
3, 91800, Note_on_c, 0, 60, 89
3, 91980, Note_on_c, 0, 60, 0
3, 91980, Note_on_c, 0, 58, 96
3, 91980, Note_on_c, 0, 38, 80
3, 91980, Note_on_c, 0, 50, 80
3, 92160, Note_on_c, 0, 50, 0
3, 92160, Note_on_c, 0, 38, 0
3, 92160, Note_on_c, 0, 58, 0
3, 92160, Note_on_c, 0, 60, 106
3, 92160, Note_on_c, 0, 36, 77
3, 92160, Note_on_c, 0, 48, 77
3, 92340, Note_on_c, 0, 48, 0
3, 92340, Note_on_c, 0, 36, 0
3, 92340, Note_on_c, 0, 60, 0
3, 92340, Note_on_c, 0, 62, 104
3, 92340, Note_on_c, 0, 34, 76
3, 92340, Note_on_c, 0, 46, 76
3, 92520, Note_on_c, 0, 46, 0
3, 92520, Note_on_c, 0, 34, 0
3, 92520, Note_on_c, 0, 62, 0
3, 92520, Note_on_c, 0, 63, 103
3, 92520, Note_on_c, 0, 39, 86
3, 92520, Note_on_c, 0, 51, 86
3, 92700, Note_on_c, 0, 51, 0
3, 92700, Note_on_c, 0, 39, 0
3, 93060, Note_on_c, 0, 63, 0
3, 93060, Note_on_c, 0, 67, 106
3, 93060, Note_on_c, 0, 38, 75
3, 93060, Note_on_c, 0, 50, 75
3, 93240, Note_on_c, 0, 50, 0
3, 93240, Note_on_c, 0, 38, 0
3, 93420, Note_on_c, 0, 67, 0
3, 93420, Note_on_c, 0, 65, 95
3, 93600, Note_on_c, 0, 65, 0
3, 93600, Note_on_c, 0, 65, 125
3, 93600, Note_on_c, 0, 36, 76
3, 93600, Note_on_c, 0, 48, 76
3, 93780, Note_on_c, 0, 48, 0
3, 93780, Note_on_c, 0, 36, 0
3, 94140, Note_on_c, 0, 65, 0
3, 94140, Note_on_c, 0, 63, 86
3, 94140, Note_on_c, 0, 34, 72
3, 94140, Note_on_c, 0, 46, 72
3, 94320, Note_on_c, 0, 46, 0
3, 94320, Note_on_c, 0, 34, 0
3, 94680, Note_on_c, 0, 63, 0
3, 94680, Note_on_c, 0, 63, 127
3, 94680, Note_on_c, 0, 33, 71
3, 94680, Note_on_c, 0, 45, 71
3, 94860, Note_on_c, 0, 45, 0
3, 94860, Note_on_c, 0, 33, 0
3, 95182, Note_on_c, 0, 63, 99
3, 95202, Note_on_c, 0, 63, 0
3, 95202, Note_on_c, 0, 65, 104
3, 95220, Note_on_c, 0, 65, 0
3, 95220, Note_on_c, 0, 63, 0
3, 95220, Note_on_c, 0, 63, 91
3, 95220, Note_on_c, 0, 32, 73
3, 95220, Note_on_c, 0, 44, 73
3, 95400, Note_on_c, 0, 44, 0
3, 95400, Note_on_c, 0, 32, 0
3, 95400, Note_on_c, 0, 63, 0
3, 95400, Note_on_c, 0, 62, 93
3, 95580, Note_on_c, 0, 62, 0
3, 95580, Note_on_c, 0, 60, 93
3, 95760, Note_on_c, 0, 60, 0
3, 95760, Note_on_c, 0, 58, 93
3, 95760, Note_on_c, 0, 31, 78
3, 95760, Note_on_c, 0, 43, 78
3, 95940, Note_on_c, 0, 43, 0
3, 95940, Note_on_c, 0, 31, 0
3, 95940, Note_on_c, 0, 58, 0
3, 95940, Note_on_c, 0, 57, 94
3, 96120, Note_on_c, 0, 57, 0
3, 96120, Note_on_c, 0, 58, 100
3, 96300, Note_on_c, 0, 58, 0
3, 96300, Note_on_c, 0, 59, 98
3, 96300, Note_on_c, 0, 30, 79
3, 96300, Note_on_c, 0, 42, 79
3, 96480, Note_on_c, 0, 42, 0
3, 96480, Note_on_c, 0, 30, 0
3, 96480, Note_on_c, 0, 59, 0
3, 96480, Note_on_c, 0, 58, 98
3, 96660, Note_on_c, 0, 58, 0
3, 96660, Note_on_c, 0, 59, 96
3, 96840, Note_on_c, 0, 59, 0
3, 96840, Note_on_c, 0, 60, 97
3, 96840, Note_on_c, 0, 29, 73
3, 96840, Note_on_c, 0, 41, 73
3, 97020, Note_on_c, 0, 41, 0
3, 97020, Note_on_c, 0, 29, 0
3, 97200, Note_on_c, 0, 60, 0
3, 97200, Note_on_c, 0, 61, 72
3, 97380, Note_on_c, 0, 34, 78
3, 97380, Note_on_c, 0, 46, 78
3, 97560, Note_on_c, 0, 46, 0
3, 97560, Note_on_c, 0, 34, 0
3, 97560, Note_on_c, 0, 61, 0
3, 97560, Note_on_c, 0, 62, 72
3, 97920, Note_on_c, 0, 62, 0
3, 97920, Note_on_c, 0, 63, 89
3, 97920, Note_on_c, 0, 39, 74
3, 97920, Note_on_c, 0, 51, 74
3, 98010, Note_on_c, 0, 51, 0
3, 98010, Note_on_c, 0, 39, 0
3, 98010, Note_on_c, 0, 63, 0
3, 98010, Note_on_c, 0, 63, 82
3, 98010, Note_on_c, 0, 51, 84
3, 98010, Note_on_c, 0, 55, 84
3, 98054, Note_on_c, 0, 55, 0
3, 98054, Note_on_c, 0, 51, 0
3, 98054, Note_on_c, 0, 63, 0
3, 98100, Note_on_c, 0, 62, 76
3, 98100, Note_on_c, 0, 51, 81
3, 98100, Note_on_c, 0, 55, 81
3, 98144, Note_on_c, 0, 55, 0
3, 98144, Note_on_c, 0, 51, 0
3, 98144, Note_on_c, 0, 62, 0
3, 98190, Note_on_c, 0, 60, 77
3, 98190, Note_on_c, 0, 51, 82
3, 98190, Note_on_c, 0, 55, 82
3, 98234, Note_on_c, 0, 55, 0
3, 98234, Note_on_c, 0, 51, 0
3, 98234, Note_on_c, 0, 60, 0
3, 98280, Note_on_c, 0, 59, 78
3, 98280, Note_on_c, 0, 51, 82
3, 98280, Note_on_c, 0, 55, 82
3, 98324, Note_on_c, 0, 55, 0
3, 98324, Note_on_c, 0, 51, 0
3, 98324, Note_on_c, 0, 59, 0
3, 98370, Note_on_c, 0, 60, 84
3, 98370, Note_on_c, 0, 51, 84
3, 98370, Note_on_c, 0, 55, 84
3, 98414, Note_on_c, 0, 55, 0
3, 98414, Note_on_c, 0, 51, 0
3, 98414, Note_on_c, 0, 60, 0
3, 98550, Note_on_c, 0, 63, 72
3, 98550, Note_on_c, 0, 51, 76
3, 98550, Note_on_c, 0, 55, 76
3, 98594, Note_on_c, 0, 55, 0
3, 98594, Note_on_c, 0, 51, 0
3, 98594, Note_on_c, 0, 63, 0
3, 98640, Note_on_c, 0, 62, 82
3, 98640, Note_on_c, 0, 51, 78
3, 98640, Note_on_c, 0, 55, 78
3, 98684, Note_on_c, 0, 55, 0
3, 98684, Note_on_c, 0, 51, 0
3, 98684, Note_on_c, 0, 62, 0
3, 98730, Note_on_c, 0, 60, 77
3, 98730, Note_on_c, 0, 51, 86
3, 98730, Note_on_c, 0, 55, 86
3, 98774, Note_on_c, 0, 55, 0
3, 98774, Note_on_c, 0, 51, 0
3, 98774, Note_on_c, 0, 60, 0
3, 98820, Note_on_c, 0, 59, 80
3, 98820, Note_on_c, 0, 51, 87
3, 98820, Note_on_c, 0, 55, 87
3, 98864, Note_on_c, 0, 55, 0
3, 98864, Note_on_c, 0, 51, 0
3, 98864, Note_on_c, 0, 59, 0
3, 98910, Note_on_c, 0, 60, 88
3, 98910, Note_on_c, 0, 51, 88
3, 98910, Note_on_c, 0, 55, 88
3, 98954, Note_on_c, 0, 55, 0
3, 98954, Note_on_c, 0, 51, 0
3, 98954, Note_on_c, 0, 60, 0
3, 99090, Note_on_c, 0, 62, 58
3, 99090, Note_on_c, 0, 53, 60
3, 99090, Note_on_c, 0, 55, 60
3, 99134, Note_on_c, 0, 55, 0
3, 99134, Note_on_c, 0, 53, 0
3, 99134, Note_on_c, 0, 62, 0
3, 99180, Note_on_c, 0, 60, 57
3, 99180, Note_on_c, 0, 53, 56
3, 99180, Note_on_c, 0, 55, 56
3, 99224, Note_on_c, 0, 55, 0
3, 99224, Note_on_c, 0, 53, 0
3, 99224, Note_on_c, 0, 60, 0
3, 99270, Note_on_c, 0, 59, 57
3, 99270, Note_on_c, 0, 53, 60
3, 99270, Note_on_c, 0, 55, 60
3, 99314, Note_on_c, 0, 55, 0
3, 99314, Note_on_c, 0, 53, 0
3, 99314, Note_on_c, 0, 59, 0
3, 99360, Note_on_c, 0, 58, 61
3, 99360, Note_on_c, 0, 53, 56
3, 99360, Note_on_c, 0, 55, 56
3, 99404, Note_on_c, 0, 55, 0
3, 99404, Note_on_c, 0, 53, 0
3, 99404, Note_on_c, 0, 58, 0
3, 99450, Note_on_c, 0, 59, 60
3, 99450, Note_on_c, 0, 53, 63
3, 99450, Note_on_c, 0, 55, 63
3, 99494, Note_on_c, 0, 55, 0
3, 99494, Note_on_c, 0, 53, 0
3, 99494, Note_on_c, 0, 59, 0
3, 99630, Note_on_c, 0, 62, 54
3, 99630, Note_on_c, 0, 53, 50
3, 99630, Note_on_c, 0, 55, 50
3, 99674, Note_on_c, 0, 55, 0
3, 99674, Note_on_c, 0, 53, 0
3, 99674, Note_on_c, 0, 62, 0
3, 99720, Note_on_c, 0, 60, 56
3, 99720, Note_on_c, 0, 53, 58
3, 99720, Note_on_c, 0, 55, 58
3, 99764, Note_on_c, 0, 55, 0
3, 99764, Note_on_c, 0, 53, 0
3, 99764, Note_on_c, 0, 60, 0
3, 99810, Note_on_c, 0, 59, 62
3, 99810, Note_on_c, 0, 53, 65
3, 99810, Note_on_c, 0, 55, 65
3, 99854, Note_on_c, 0, 55, 0
3, 99854, Note_on_c, 0, 53, 0
3, 99854, Note_on_c, 0, 59, 0
3, 99900, Note_on_c, 0, 58, 57
3, 99900, Note_on_c, 0, 53, 60
3, 99900, Note_on_c, 0, 55, 60
3, 99944, Note_on_c, 0, 55, 0
3, 99944, Note_on_c, 0, 53, 0
3, 99944, Note_on_c, 0, 58, 0
3, 99990, Note_on_c, 0, 59, 62
3, 99990, Note_on_c, 0, 53, 60
3, 99990, Note_on_c, 0, 55, 60
3, 100034, Note_on_c, 0, 55, 0
3, 100034, Note_on_c, 0, 53, 0
3, 100034, Note_on_c, 0, 59, 0
3, 100170, Note_on_c, 0, 63, 53
3, 100170, Note_on_c, 0, 51, 51
3, 100170, Note_on_c, 0, 55, 51
3, 100214, Note_on_c, 0, 55, 0
3, 100214, Note_on_c, 0, 51, 0
3, 100214, Note_on_c, 0, 63, 0
3, 100260, Note_on_c, 0, 62, 59
3, 100260, Note_on_c, 0, 51, 59
3, 100260, Note_on_c, 0, 55, 59
3, 100304, Note_on_c, 0, 55, 0
3, 100304, Note_on_c, 0, 51, 0
3, 100304, Note_on_c, 0, 62, 0
3, 100350, Note_on_c, 0, 60, 57
3, 100350, Note_on_c, 0, 51, 61
3, 100350, Note_on_c, 0, 55, 61
3, 100394, Note_on_c, 0, 55, 0
3, 100394, Note_on_c, 0, 51, 0
3, 100394, Note_on_c, 0, 60, 0
3, 100440, Note_on_c, 0, 59, 60
3, 100440, Note_on_c, 0, 51, 60
3, 100440, Note_on_c, 0, 55, 60
3, 100484, Note_on_c, 0, 55, 0
3, 100484, Note_on_c, 0, 51, 0
3, 100484, Note_on_c, 0, 59, 0
3, 100530, Note_on_c, 0, 60, 62
3, 100530, Note_on_c, 0, 51, 56
3, 100530, Note_on_c, 0, 55, 56
3, 100574, Note_on_c, 0, 55, 0
3, 100574, Note_on_c, 0, 51, 0
3, 100574, Note_on_c, 0, 60, 0
3, 100710, Note_on_c, 0, 63, 56
3, 100710, Note_on_c, 0, 51, 51
3, 100710, Note_on_c, 0, 55, 51
3, 100754, Note_on_c, 0, 55, 0
3, 100754, Note_on_c, 0, 51, 0
3, 100754, Note_on_c, 0, 63, 0
3, 100800, Note_on_c, 0, 62, 49
3, 100800, Note_on_c, 0, 51, 62
3, 100800, Note_on_c, 0, 55, 62
3, 100844, Note_on_c, 0, 55, 0
3, 100844, Note_on_c, 0, 51, 0
3, 100844, Note_on_c, 0, 62, 0
3, 100890, Note_on_c, 0, 60, 56
3, 100890, Note_on_c, 0, 51, 63
3, 100890, Note_on_c, 0, 55, 63
3, 100934, Note_on_c, 0, 55, 0
3, 100934, Note_on_c, 0, 51, 0
3, 100934, Note_on_c, 0, 60, 0
3, 100980, Note_on_c, 0, 59, 61
3, 100980, Note_on_c, 0, 51, 58
3, 100980, Note_on_c, 0, 55, 58
3, 101024, Note_on_c, 0, 55, 0
3, 101024, Note_on_c, 0, 51, 0
3, 101024, Note_on_c, 0, 59, 0
3, 101070, Note_on_c, 0, 60, 63
3, 101070, Note_on_c, 0, 51, 63
3, 101070, Note_on_c, 0, 55, 63
3, 101114, Note_on_c, 0, 55, 0
3, 101114, Note_on_c, 0, 51, 0
3, 101114, Note_on_c, 0, 60, 0
3, 101250, Note_on_c, 0, 62, 58
3, 101250, Note_on_c, 0, 53, 58
3, 101250, Note_on_c, 0, 55, 58
3, 101294, Note_on_c, 0, 55, 0
3, 101294, Note_on_c, 0, 53, 0
3, 101294, Note_on_c, 0, 62, 0
3, 101340, Note_on_c, 0, 60, 59
3, 101340, Note_on_c, 0, 53, 55
3, 101340, Note_on_c, 0, 55, 55
3, 101384, Note_on_c, 0, 55, 0
3, 101384, Note_on_c, 0, 53, 0
3, 101384, Note_on_c, 0, 60, 0
3, 101430, Note_on_c, 0, 59, 60
3, 101430, Note_on_c, 0, 53, 59
3, 101430, Note_on_c, 0, 55, 59
3, 101474, Note_on_c, 0, 55, 0
3, 101474, Note_on_c, 0, 53, 0
3, 101474, Note_on_c, 0, 59, 0
3, 101520, Note_on_c, 0, 58, 59
3, 101520, Note_on_c, 0, 53, 65
3, 101520, Note_on_c, 0, 55, 65
3, 101564, Note_on_c, 0, 55, 0
3, 101564, Note_on_c, 0, 53, 0
3, 101564, Note_on_c, 0, 58, 0
3, 101610, Note_on_c, 0, 59, 62
3, 101610, Note_on_c, 0, 53, 63
3, 101610, Note_on_c, 0, 55, 63
3, 101654, Note_on_c, 0, 55, 0
3, 101654, Note_on_c, 0, 53, 0
3, 101654, Note_on_c, 0, 59, 0
3, 101790, Note_on_c, 0, 62, 53
3, 101790, Note_on_c, 0, 53, 55
3, 101790, Note_on_c, 0, 55, 55
3, 101834, Note_on_c, 0, 55, 0
3, 101834, Note_on_c, 0, 53, 0
3, 101834, Note_on_c, 0, 62, 0
3, 101880, Note_on_c, 0, 60, 56
3, 101880, Note_on_c, 0, 53, 57
3, 101880, Note_on_c, 0, 55, 57
3, 101924, Note_on_c, 0, 55, 0
3, 101924, Note_on_c, 0, 53, 0
3, 101924, Note_on_c, 0, 60, 0
3, 101970, Note_on_c, 0, 59, 62
3, 101970, Note_on_c, 0, 53, 60
3, 101970, Note_on_c, 0, 55, 60
3, 102014, Note_on_c, 0, 55, 0
3, 102014, Note_on_c, 0, 53, 0
3, 102014, Note_on_c, 0, 59, 0
3, 102060, Note_on_c, 0, 58, 58
3, 102060, Note_on_c, 0, 53, 58
3, 102060, Note_on_c, 0, 55, 58
3, 102104, Note_on_c, 0, 55, 0
3, 102104, Note_on_c, 0, 53, 0
3, 102104, Note_on_c, 0, 58, 0
3, 102150, Note_on_c, 0, 59, 66
3, 102150, Note_on_c, 0, 53, 62
3, 102150, Note_on_c, 0, 55, 62
3, 102194, Note_on_c, 0, 55, 0
3, 102194, Note_on_c, 0, 53, 0
3, 102194, Note_on_c, 0, 59, 0
3, 102330, Note_on_c, 0, 63, 55
3, 102330, Note_on_c, 0, 51, 50
3, 102330, Note_on_c, 0, 55, 50
3, 102374, Note_on_c, 0, 55, 0
3, 102374, Note_on_c, 0, 51, 0
3, 102374, Note_on_c, 0, 63, 0
3, 102420, Note_on_c, 0, 62, 57
3, 102420, Note_on_c, 0, 51, 59
3, 102420, Note_on_c, 0, 55, 59
3, 102464, Note_on_c, 0, 55, 0
3, 102464, Note_on_c, 0, 51, 0
3, 102464, Note_on_c, 0, 62, 0
3, 102510, Note_on_c, 0, 60, 61
3, 102510, Note_on_c, 0, 51, 61
3, 102510, Note_on_c, 0, 55, 61
3, 102554, Note_on_c, 0, 55, 0
3, 102554, Note_on_c, 0, 51, 0
3, 102554, Note_on_c, 0, 60, 0
3, 102600, Note_on_c, 0, 59, 59
3, 102600, Note_on_c, 0, 51, 59
3, 102600, Note_on_c, 0, 55, 59
3, 102644, Note_on_c, 0, 55, 0
3, 102644, Note_on_c, 0, 51, 0
3, 102644, Note_on_c, 0, 59, 0
3, 102690, Note_on_c, 0, 60, 65
3, 102690, Note_on_c, 0, 51, 59
3, 102690, Note_on_c, 0, 55, 59
3, 102734, Note_on_c, 0, 55, 0
3, 102734, Note_on_c, 0, 51, 0
3, 102734, Note_on_c, 0, 60, 0
3, 102870, Note_on_c, 0, 63, 54
3, 102870, Note_on_c, 0, 51, 55
3, 102870, Note_on_c, 0, 55, 55
3, 102914, Note_on_c, 0, 55, 0
3, 102914, Note_on_c, 0, 51, 0
3, 102914, Note_on_c, 0, 63, 0
3, 102960, Note_on_c, 0, 62, 57
3, 102960, Note_on_c, 0, 51, 61
3, 102960, Note_on_c, 0, 55, 61
3, 103004, Note_on_c, 0, 55, 0
3, 103004, Note_on_c, 0, 51, 0
3, 103004, Note_on_c, 0, 62, 0
3, 103050, Note_on_c, 0, 60, 54
3, 103050, Note_on_c, 0, 51, 60
3, 103050, Note_on_c, 0, 55, 60
3, 103094, Note_on_c, 0, 55, 0
3, 103094, Note_on_c, 0, 51, 0
3, 103094, Note_on_c, 0, 60, 0
3, 103140, Note_on_c, 0, 59, 60
3, 103140, Note_on_c, 0, 51, 60
3, 103140, Note_on_c, 0, 55, 60
3, 103184, Note_on_c, 0, 55, 0
3, 103184, Note_on_c, 0, 51, 0
3, 103184, Note_on_c, 0, 59, 0
3, 103230, Note_on_c, 0, 60, 66
3, 103230, Note_on_c, 0, 51, 54
3, 103230, Note_on_c, 0, 55, 54
3, 103274, Note_on_c, 0, 55, 0
3, 103274, Note_on_c, 0, 51, 0
3, 103274, Note_on_c, 0, 60, 0
3, 103410, Note_on_c, 0, 60, 55
3, 103410, Note_on_c, 0, 51, 53
3, 103410, Note_on_c, 0, 53, 53
3, 103454, Note_on_c, 0, 53, 0
3, 103454, Note_on_c, 0, 51, 0
3, 103454, Note_on_c, 0, 60, 0
3, 103500, Note_on_c, 0, 58, 60
3, 103500, Note_on_c, 0, 51, 62
3, 103500, Note_on_c, 0, 53, 62
3, 103544, Note_on_c, 0, 53, 0
3, 103544, Note_on_c, 0, 51, 0
3, 103544, Note_on_c, 0, 58, 0
3, 103590, Note_on_c, 0, 57, 55
3, 103590, Note_on_c, 0, 51, 63
3, 103590, Note_on_c, 0, 53, 63
3, 103634, Note_on_c, 0, 53, 0
3, 103634, Note_on_c, 0, 51, 0
3, 103634, Note_on_c, 0, 57, 0
3, 103680, Note_on_c, 0, 56, 61
3, 103680, Note_on_c, 0, 51, 58
3, 103680, Note_on_c, 0, 53, 58
3, 103724, Note_on_c, 0, 53, 0
3, 103724, Note_on_c, 0, 51, 0
3, 103724, Note_on_c, 0, 56, 0
3, 103770, Note_on_c, 0, 57, 63
3, 103770, Note_on_c, 0, 51, 63
3, 103770, Note_on_c, 0, 53, 63
3, 103814, Note_on_c, 0, 53, 0
3, 103814, Note_on_c, 0, 51, 0
3, 103814, Note_on_c, 0, 57, 0
3, 103950, Note_on_c, 0, 60, 54
3, 103950, Note_on_c, 0, 51, 57
3, 103950, Note_on_c, 0, 53, 57
3, 103994, Note_on_c, 0, 53, 0
3, 103994, Note_on_c, 0, 51, 0
3, 103994, Note_on_c, 0, 60, 0
3, 104040, Note_on_c, 0, 58, 59
3, 104040, Note_on_c, 0, 51, 56
3, 104040, Note_on_c, 0, 53, 56
3, 104084, Note_on_c, 0, 53, 0
3, 104084, Note_on_c, 0, 51, 0
3, 104084, Note_on_c, 0, 58, 0
3, 104130, Note_on_c, 0, 57, 61
3, 104130, Note_on_c, 0, 51, 59
3, 104130, Note_on_c, 0, 53, 59
3, 104174, Note_on_c, 0, 53, 0
3, 104174, Note_on_c, 0, 51, 0
3, 104174, Note_on_c, 0, 57, 0
3, 104220, Note_on_c, 0, 56, 60
3, 104220, Note_on_c, 0, 51, 61
3, 104220, Note_on_c, 0, 53, 61
3, 104264, Note_on_c, 0, 53, 0
3, 104264, Note_on_c, 0, 51, 0
3, 104264, Note_on_c, 0, 56, 0
3, 104310, Note_on_c, 0, 57, 67
3, 104310, Note_on_c, 0, 51, 62
3, 104310, Note_on_c, 0, 53, 62
3, 104354, Note_on_c, 0, 53, 0
3, 104354, Note_on_c, 0, 51, 0
3, 104354, Note_on_c, 0, 57, 0
3, 104490, Note_on_c, 0, 62, 59
3, 104490, Note_on_c, 0, 50, 56
3, 104490, Note_on_c, 0, 53, 56
3, 104534, Note_on_c, 0, 53, 0
3, 104534, Note_on_c, 0, 50, 0
3, 104534, Note_on_c, 0, 62, 0
3, 104580, Note_on_c, 0, 60, 58
3, 104580, Note_on_c, 0, 50, 62
3, 104580, Note_on_c, 0, 53, 62
3, 104624, Note_on_c, 0, 53, 0
3, 104624, Note_on_c, 0, 50, 0
3, 104624, Note_on_c, 0, 60, 0
3, 104670, Note_on_c, 0, 58, 57
3, 104670, Note_on_c, 0, 50, 62
3, 104670, Note_on_c, 0, 53, 62
3, 104714, Note_on_c, 0, 53, 0
3, 104714, Note_on_c, 0, 50, 0
3, 104714, Note_on_c, 0, 58, 0
3, 104760, Note_on_c, 0, 57, 61
3, 104760, Note_on_c, 0, 50, 59
3, 104760, Note_on_c, 0, 53, 59
3, 104804, Note_on_c, 0, 53, 0
3, 104804, Note_on_c, 0, 50, 0
3, 104804, Note_on_c, 0, 57, 0
3, 104850, Note_on_c, 0, 58, 63
3, 104850, Note_on_c, 0, 50, 59
3, 104850, Note_on_c, 0, 53, 59
3, 104894, Note_on_c, 0, 53, 0
3, 104894, Note_on_c, 0, 50, 0
3, 104894, Note_on_c, 0, 58, 0
3, 105030, Note_on_c, 0, 62, 52
3, 105030, Note_on_c, 0, 50, 55
3, 105030, Note_on_c, 0, 53, 55
3, 105074, Note_on_c, 0, 53, 0
3, 105074, Note_on_c, 0, 50, 0
3, 105074, Note_on_c, 0, 62, 0
3, 105120, Note_on_c, 0, 60, 59
3, 105120, Note_on_c, 0, 50, 60
3, 105120, Note_on_c, 0, 53, 60
3, 105164, Note_on_c, 0, 53, 0
3, 105164, Note_on_c, 0, 50, 0
3, 105164, Note_on_c, 0, 60, 0
3, 105210, Note_on_c, 0, 58, 57
3, 105210, Note_on_c, 0, 50, 60
3, 105210, Note_on_c, 0, 53, 60
3, 105254, Note_on_c, 0, 53, 0
3, 105254, Note_on_c, 0, 50, 0
3, 105254, Note_on_c, 0, 58, 0
3, 105300, Note_on_c, 0, 57, 60
3, 105300, Note_on_c, 0, 50, 57
3, 105300, Note_on_c, 0, 53, 57
3, 105344, Note_on_c, 0, 53, 0
3, 105344, Note_on_c, 0, 50, 0
3, 105344, Note_on_c, 0, 57, 0
3, 105390, Note_on_c, 0, 58, 64
3, 105390, Note_on_c, 0, 50, 56
3, 105390, Note_on_c, 0, 53, 56
3, 105434, Note_on_c, 0, 53, 0
3, 105434, Note_on_c, 0, 50, 0
3, 105434, Note_on_c, 0, 58, 0
3, 105570, Note_on_c, 0, 60, 51
3, 105570, Note_on_c, 0, 51, 54
3, 105570, Note_on_c, 0, 53, 54
3, 105614, Note_on_c, 0, 53, 0
3, 105614, Note_on_c, 0, 51, 0
3, 105614, Note_on_c, 0, 60, 0
3, 105660, Note_on_c, 0, 58, 61
3, 105660, Note_on_c, 0, 51, 61
3, 105660, Note_on_c, 0, 53, 61
3, 105704, Note_on_c, 0, 53, 0
3, 105704, Note_on_c, 0, 51, 0
3, 105704, Note_on_c, 0, 58, 0
3, 105750, Note_on_c, 0, 57, 58
3, 105750, Note_on_c, 0, 51, 62
3, 105750, Note_on_c, 0, 53, 62
3, 105794, Note_on_c, 0, 53, 0
3, 105794, Note_on_c, 0, 51, 0
3, 105794, Note_on_c, 0, 57, 0
3, 105840, Note_on_c, 0, 56, 59
3, 105840, Note_on_c, 0, 51, 58
3, 105840, Note_on_c, 0, 53, 58
3, 105884, Note_on_c, 0, 53, 0
3, 105884, Note_on_c, 0, 51, 0
3, 105884, Note_on_c, 0, 56, 0
3, 105930, Note_on_c, 0, 57, 63
3, 105930, Note_on_c, 0, 51, 65
3, 105930, Note_on_c, 0, 53, 65
3, 105974, Note_on_c, 0, 53, 0
3, 105974, Note_on_c, 0, 51, 0
3, 105974, Note_on_c, 0, 57, 0
3, 106110, Note_on_c, 0, 60, 53
3, 106110, Note_on_c, 0, 51, 58
3, 106110, Note_on_c, 0, 53, 58
3, 106154, Note_on_c, 0, 53, 0
3, 106154, Note_on_c, 0, 51, 0
3, 106154, Note_on_c, 0, 60, 0
3, 106200, Note_on_c, 0, 58, 56
3, 106200, Note_on_c, 0, 51, 59
3, 106200, Note_on_c, 0, 53, 59
3, 106244, Note_on_c, 0, 53, 0
3, 106244, Note_on_c, 0, 51, 0
3, 106244, Note_on_c, 0, 58, 0
3, 106290, Note_on_c, 0, 57, 59
3, 106290, Note_on_c, 0, 51, 58
3, 106290, Note_on_c, 0, 53, 58
3, 106334, Note_on_c, 0, 53, 0
3, 106334, Note_on_c, 0, 51, 0
3, 106334, Note_on_c, 0, 57, 0
3, 106380, Note_on_c, 0, 56, 57
3, 106380, Note_on_c, 0, 51, 61
3, 106380, Note_on_c, 0, 53, 61
3, 106424, Note_on_c, 0, 53, 0
3, 106424, Note_on_c, 0, 51, 0
3, 106424, Note_on_c, 0, 56, 0
3, 106470, Note_on_c, 0, 57, 62
3, 106470, Note_on_c, 0, 51, 59
3, 106470, Note_on_c, 0, 53, 59
3, 106514, Note_on_c, 0, 53, 0
3, 106514, Note_on_c, 0, 51, 0
3, 106514, Note_on_c, 0, 57, 0
3, 106650, Note_on_c, 0, 62, 56
3, 106650, Note_on_c, 0, 50, 52
3, 106650, Note_on_c, 0, 53, 52
3, 106694, Note_on_c, 0, 53, 0
3, 106694, Note_on_c, 0, 50, 0
3, 106694, Note_on_c, 0, 62, 0
3, 106740, Note_on_c, 0, 60, 51
3, 106740, Note_on_c, 0, 50, 60
3, 106740, Note_on_c, 0, 53, 60
3, 106784, Note_on_c, 0, 53, 0
3, 106784, Note_on_c, 0, 50, 0
3, 106784, Note_on_c, 0, 60, 0
3, 106830, Note_on_c, 0, 58, 55
3, 106830, Note_on_c, 0, 50, 64
3, 106830, Note_on_c, 0, 53, 64
3, 106874, Note_on_c, 0, 53, 0
3, 106874, Note_on_c, 0, 50, 0
3, 106874, Note_on_c, 0, 58, 0
3, 106920, Note_on_c, 0, 57, 59
3, 106920, Note_on_c, 0, 50, 59
3, 106920, Note_on_c, 0, 53, 59
3, 106964, Note_on_c, 0, 53, 0
3, 106964, Note_on_c, 0, 50, 0
3, 106964, Note_on_c, 0, 57, 0
3, 107010, Note_on_c, 0, 58, 60
3, 107010, Note_on_c, 0, 50, 61
3, 107010, Note_on_c, 0, 53, 61
3, 107054, Note_on_c, 0, 53, 0
3, 107054, Note_on_c, 0, 50, 0
3, 107054, Note_on_c, 0, 58, 0
3, 107190, Note_on_c, 0, 62, 56
3, 107190, Note_on_c, 0, 50, 60
3, 107190, Note_on_c, 0, 53, 60
3, 107234, Note_on_c, 0, 53, 0
3, 107234, Note_on_c, 0, 50, 0
3, 107234, Note_on_c, 0, 62, 0
3, 107280, Note_on_c, 0, 60, 53
3, 107280, Note_on_c, 0, 50, 62
3, 107280, Note_on_c, 0, 53, 62
3, 107324, Note_on_c, 0, 53, 0
3, 107324, Note_on_c, 0, 50, 0
3, 107324, Note_on_c, 0, 60, 0
3, 107370, Note_on_c, 0, 58, 63
3, 107370, Note_on_c, 0, 50, 64
3, 107370, Note_on_c, 0, 53, 64
3, 107414, Note_on_c, 0, 53, 0
3, 107414, Note_on_c, 0, 50, 0
3, 107414, Note_on_c, 0, 58, 0
3, 107460, Note_on_c, 0, 57, 63
3, 107460, Note_on_c, 0, 50, 60
3, 107460, Note_on_c, 0, 53, 60
3, 107504, Note_on_c, 0, 53, 0
3, 107504, Note_on_c, 0, 50, 0
3, 107504, Note_on_c, 0, 57, 0
3, 107550, Note_on_c, 0, 58, 64
3, 107550, Note_on_c, 0, 50, 60
3, 107550, Note_on_c, 0, 53, 60
3, 107594, Note_on_c, 0, 53, 0
3, 107594, Note_on_c, 0, 50, 0
3, 107594, Note_on_c, 0, 58, 0
3, 107640, Note_on_c, 0, 53, 97
3, 107640, Note_on_c, 0, 34, 61
3, 107640, Note_on_c, 0, 46, 61
3, 107730, Note_on_c, 0, 53, 0
3, 107730, Note_on_c, 0, 62, 102
3, 107774, Note_on_c, 0, 62, 0
3, 107820, Note_on_c, 0, 46, 0
3, 107820, Note_on_c, 0, 34, 0
3, 107820, Note_on_c, 0, 60, 106
3, 107820, Note_on_c, 0, 50, 67
3, 107820, Note_on_c, 0, 53, 67
3, 107864, Note_on_c, 0, 53, 0
3, 107864, Note_on_c, 0, 50, 0
3, 107864, Note_on_c, 0, 60, 0
3, 107910, Note_on_c, 0, 58, 110
3, 107910, Note_on_c, 0, 50, 62
3, 107910, Note_on_c, 0, 53, 62
3, 107954, Note_on_c, 0, 53, 0
3, 107954, Note_on_c, 0, 50, 0
3, 107954, Note_on_c, 0, 58, 0
3, 108000, Note_on_c, 0, 57, 114
3, 108000, Note_on_c, 0, 50, 57
3, 108000, Note_on_c, 0, 53, 57
3, 108044, Note_on_c, 0, 53, 0
3, 108044, Note_on_c, 0, 50, 0
3, 108044, Note_on_c, 0, 57, 0
3, 108090, Note_on_c, 0, 58, 118
3, 108090, Note_on_c, 0, 50, 60
3, 108090, Note_on_c, 0, 53, 60
3, 108134, Note_on_c, 0, 53, 0
3, 108134, Note_on_c, 0, 50, 0
3, 108134, Note_on_c, 0, 58, 0
3, 108180, Note_on_c, 0, 34, 56
3, 108180, Note_on_c, 0, 46, 56
3, 108269, Note_on_c, 0, 46, 0
3, 108269, Note_on_c, 0, 34, 0
3, 108270, Note_on_c, 0, 61, 92
3, 108314, Note_on_c, 0, 61, 0
3, 108360, Note_on_c, 0, 60, 87
3, 108360, Note_on_c, 0, 49, 67
3, 108360, Note_on_c, 0, 52, 67
3, 108404, Note_on_c, 0, 52, 0
3, 108404, Note_on_c, 0, 49, 0
3, 108404, Note_on_c, 0, 60, 0
3, 108450, Note_on_c, 0, 58, 82
3, 108450, Note_on_c, 0, 49, 60
3, 108450, Note_on_c, 0, 52, 60
3, 108494, Note_on_c, 0, 52, 0
3, 108494, Note_on_c, 0, 49, 0
3, 108494, Note_on_c, 0, 58, 0
3, 108540, Note_on_c, 0, 57, 77
3, 108540, Note_on_c, 0, 49, 59
3, 108540, Note_on_c, 0, 52, 59
3, 108584, Note_on_c, 0, 52, 0
3, 108584, Note_on_c, 0, 49, 0
3, 108584, Note_on_c, 0, 57, 0
3, 108630, Note_on_c, 0, 58, 72
3, 108630, Note_on_c, 0, 49, 63
3, 108630, Note_on_c, 0, 52, 63
3, 108674, Note_on_c, 0, 52, 0
3, 108674, Note_on_c, 0, 49, 0
3, 108674, Note_on_c, 0, 58, 0
3, 108720, Note_on_c, 0, 34, 58
3, 108720, Note_on_c, 0, 46, 58
3, 108810, Note_on_c, 0, 62, 76
3, 108854, Note_on_c, 0, 62, 0
3, 108900, Note_on_c, 0, 46, 0
3, 108900, Note_on_c, 0, 34, 0
3, 108900, Note_on_c, 0, 60, 80
3, 108900, Note_on_c, 0, 50, 64
3, 108900, Note_on_c, 0, 53, 64
3, 108944, Note_on_c, 0, 53, 0
3, 108944, Note_on_c, 0, 50, 0
3, 108944, Note_on_c, 0, 60, 0
3, 108990, Note_on_c, 0, 58, 85
3, 108990, Note_on_c, 0, 50, 57
3, 108990, Note_on_c, 0, 53, 57
3, 109034, Note_on_c, 0, 53, 0
3, 109034, Note_on_c, 0, 50, 0
3, 109034, Note_on_c, 0, 58, 0
3, 109080, Note_on_c, 0, 57, 89
3, 109080, Note_on_c, 0, 50, 64
3, 109080, Note_on_c, 0, 53, 64
3, 109124, Note_on_c, 0, 53, 0
3, 109124, Note_on_c, 0, 50, 0
3, 109124, Note_on_c, 0, 57, 0
3, 109170, Note_on_c, 0, 58, 93
3, 109170, Note_on_c, 0, 50, 57
3, 109170, Note_on_c, 0, 53, 57
3, 109214, Note_on_c, 0, 53, 0
3, 109214, Note_on_c, 0, 50, 0
3, 109214, Note_on_c, 0, 58, 0
3, 109260, Note_on_c, 0, 34, 55
3, 109260, Note_on_c, 0, 46, 55
3, 109349, Note_on_c, 0, 46, 0
3, 109349, Note_on_c, 0, 34, 0
3, 109350, Note_on_c, 0, 61, 67
3, 109394, Note_on_c, 0, 61, 0
3, 109440, Note_on_c, 0, 60, 62
3, 109440, Note_on_c, 0, 49, 66
3, 109440, Note_on_c, 0, 52, 66
3, 109484, Note_on_c, 0, 52, 0
3, 109484, Note_on_c, 0, 49, 0
3, 109484, Note_on_c, 0, 60, 0
3, 109530, Note_on_c, 0, 58, 57
3, 109530, Note_on_c, 0, 49, 61
3, 109530, Note_on_c, 0, 52, 61
3, 109574, Note_on_c, 0, 52, 0
3, 109574, Note_on_c, 0, 49, 0
3, 109574, Note_on_c, 0, 58, 0
3, 109620, Note_on_c, 0, 57, 52
3, 109620, Note_on_c, 0, 49, 62
3, 109620, Note_on_c, 0, 52, 62
3, 109664, Note_on_c, 0, 52, 0
3, 109664, Note_on_c, 0, 49, 0
3, 109664, Note_on_c, 0, 57, 0
3, 109710, Note_on_c, 0, 58, 47
3, 109710, Note_on_c, 0, 49, 58
3, 109710, Note_on_c, 0, 52, 58
3, 109754, Note_on_c, 0, 52, 0
3, 109754, Note_on_c, 0, 49, 0
3, 109754, Note_on_c, 0, 58, 0
3, 109800, Note_on_c, 0, 34, 55
3, 109800, Note_on_c, 0, 46, 55
3, 109890, Note_on_c, 0, 62, 97
3, 109934, Note_on_c, 0, 62, 0
3, 109980, Note_on_c, 0, 46, 0
3, 109980, Note_on_c, 0, 34, 0
3, 109980, Note_on_c, 0, 60, 104
3, 109980, Note_on_c, 0, 50, 71
3, 109980, Note_on_c, 0, 53, 71
3, 110024, Note_on_c, 0, 53, 0
3, 110024, Note_on_c, 0, 50, 0
3, 110024, Note_on_c, 0, 60, 0
3, 110070, Note_on_c, 0, 58, 110
3, 110070, Note_on_c, 0, 50, 63
3, 110070, Note_on_c, 0, 53, 63
3, 110114, Note_on_c, 0, 53, 0
3, 110114, Note_on_c, 0, 50, 0
3, 110114, Note_on_c, 0, 58, 0
3, 110160, Note_on_c, 0, 57, 116
3, 110160, Note_on_c, 0, 50, 63
3, 110160, Note_on_c, 0, 53, 63
3, 110204, Note_on_c, 0, 53, 0
3, 110204, Note_on_c, 0, 50, 0
3, 110204, Note_on_c, 0, 57, 0
3, 110250, Note_on_c, 0, 58, 123
3, 110250, Note_on_c, 0, 50, 61
3, 110250, Note_on_c, 0, 53, 61
3, 110294, Note_on_c, 0, 53, 0
3, 110294, Note_on_c, 0, 50, 0
3, 110294, Note_on_c, 0, 58, 0
3, 110340, Note_on_c, 0, 34, 60
3, 110340, Note_on_c, 0, 46, 60
3, 110429, Note_on_c, 0, 46, 0
3, 110429, Note_on_c, 0, 34, 0
3, 110430, Note_on_c, 0, 61, 118
3, 110474, Note_on_c, 0, 61, 0
3, 110520, Note_on_c, 0, 60, 113
3, 110520, Note_on_c, 0, 49, 66
3, 110520, Note_on_c, 0, 52, 66
3, 110564, Note_on_c, 0, 52, 0
3, 110564, Note_on_c, 0, 49, 0
3, 110564, Note_on_c, 0, 60, 0
3, 110610, Note_on_c, 0, 58, 107
3, 110610, Note_on_c, 0, 49, 57
3, 110610, Note_on_c, 0, 52, 57
3, 110654, Note_on_c, 0, 52, 0
3, 110654, Note_on_c, 0, 49, 0
3, 110654, Note_on_c, 0, 58, 0
3, 110700, Note_on_c, 0, 57, 102
3, 110700, Note_on_c, 0, 49, 61
3, 110700, Note_on_c, 0, 52, 61
3, 110744, Note_on_c, 0, 52, 0
3, 110744, Note_on_c, 0, 49, 0
3, 110744, Note_on_c, 0, 57, 0
3, 110790, Note_on_c, 0, 58, 97
3, 110790, Note_on_c, 0, 49, 63
3, 110790, Note_on_c, 0, 52, 63
3, 110834, Note_on_c, 0, 52, 0
3, 110834, Note_on_c, 0, 49, 0
3, 110834, Note_on_c, 0, 58, 0
3, 110880, Note_on_c, 0, 34, 59
3, 110880, Note_on_c, 0, 46, 59
3, 110970, Note_on_c, 0, 62, 102
3, 111014, Note_on_c, 0, 62, 0
3, 111060, Note_on_c, 0, 46, 0
3, 111060, Note_on_c, 0, 34, 0
3, 111060, Note_on_c, 0, 60, 107
3, 111060, Note_on_c, 0, 50, 71
3, 111060, Note_on_c, 0, 53, 71
3, 111104, Note_on_c, 0, 53, 0
3, 111104, Note_on_c, 0, 50, 0
3, 111104, Note_on_c, 0, 60, 0
3, 111150, Note_on_c, 0, 58, 112
3, 111150, Note_on_c, 0, 50, 66
3, 111150, Note_on_c, 0, 53, 66
3, 111194, Note_on_c, 0, 53, 0
3, 111194, Note_on_c, 0, 50, 0
3, 111194, Note_on_c, 0, 58, 0
3, 111240, Note_on_c, 0, 57, 118
3, 111240, Note_on_c, 0, 50, 57
3, 111240, Note_on_c, 0, 53, 57
3, 111284, Note_on_c, 0, 53, 0
3, 111284, Note_on_c, 0, 50, 0
3, 111284, Note_on_c, 0, 57, 0
3, 111330, Note_on_c, 0, 58, 123
3, 111330, Note_on_c, 0, 50, 59
3, 111330, Note_on_c, 0, 53, 59
3, 111374, Note_on_c, 0, 53, 0
3, 111374, Note_on_c, 0, 50, 0
3, 111374, Note_on_c, 0, 58, 0
3, 111420, Note_on_c, 0, 34, 57
3, 111420, Note_on_c, 0, 46, 57
3, 111509, Note_on_c, 0, 46, 0
3, 111509, Note_on_c, 0, 34, 0
3, 111510, Note_on_c, 0, 61, 118
3, 111554, Note_on_c, 0, 61, 0
3, 111600, Note_on_c, 0, 60, 113
3, 111600, Note_on_c, 0, 49, 64
3, 111600, Note_on_c, 0, 52, 64
3, 111644, Note_on_c, 0, 52, 0
3, 111644, Note_on_c, 0, 49, 0
3, 111644, Note_on_c, 0, 60, 0
3, 111690, Note_on_c, 0, 58, 107
3, 111690, Note_on_c, 0, 49, 58
3, 111690, Note_on_c, 0, 52, 58
3, 111734, Note_on_c, 0, 52, 0
3, 111734, Note_on_c, 0, 49, 0
3, 111734, Note_on_c, 0, 58, 0
3, 111780, Note_on_c, 0, 57, 102
3, 111780, Note_on_c, 0, 49, 60
3, 111780, Note_on_c, 0, 52, 60
3, 111824, Note_on_c, 0, 52, 0
3, 111824, Note_on_c, 0, 49, 0
3, 111824, Note_on_c, 0, 57, 0
3, 111870, Note_on_c, 0, 58, 97
3, 111870, Note_on_c, 0, 49, 62
3, 111870, Note_on_c, 0, 52, 62
3, 111914, Note_on_c, 0, 52, 0
3, 111914, Note_on_c, 0, 49, 0
3, 111914, Note_on_c, 0, 58, 0
3, 111960, Note_on_c, 0, 34, 58
3, 111960, Note_on_c, 0, 46, 58
3, 112050, Note_on_c, 0, 62, 89
3, 112094, Note_on_c, 0, 62, 0
3, 112140, Note_on_c, 0, 46, 0
3, 112140, Note_on_c, 0, 34, 0
3, 112140, Note_on_c, 0, 60, 88
3, 112140, Note_on_c, 0, 50, 63
3, 112140, Note_on_c, 0, 53, 63
3, 112184, Note_on_c, 0, 53, 0
3, 112184, Note_on_c, 0, 50, 0
3, 112184, Note_on_c, 0, 60, 0
3, 112230, Note_on_c, 0, 58, 93
3, 112230, Note_on_c, 0, 50, 62
3, 112230, Note_on_c, 0, 53, 62
3, 112274, Note_on_c, 0, 53, 0
3, 112274, Note_on_c, 0, 50, 0
3, 112274, Note_on_c, 0, 58, 0
3, 112320, Note_on_c, 0, 58, 97
3, 112320, Note_on_c, 0, 49, 61
3, 112320, Note_on_c, 0, 52, 61
3, 112364, Note_on_c, 0, 52, 0
3, 112364, Note_on_c, 0, 49, 0
3, 112364, Note_on_c, 0, 58, 0
3, 112410, Note_on_c, 0, 58, 105
3, 112410, Note_on_c, 0, 61, 105
3, 112410, Note_on_c, 0, 52, 58
3, 112454, Note_on_c, 0, 52, 0
3, 112454, Note_on_c, 0, 61, 0
3, 112454, Note_on_c, 0, 58, 0
3, 112500, Note_on_c, 0, 34, 55
3, 112500, Note_on_c, 0, 46, 55
3, 112589, Note_on_c, 0, 46, 0
3, 112589, Note_on_c, 0, 34, 0
3, 112590, Note_on_c, 0, 62, 88
3, 112634, Note_on_c, 0, 62, 0
3, 112680, Note_on_c, 0, 60, 95
3, 112680, Note_on_c, 0, 50, 62
3, 112680, Note_on_c, 0, 53, 62
3, 112724, Note_on_c, 0, 53, 0
3, 112724, Note_on_c, 0, 50, 0
3, 112724, Note_on_c, 0, 60, 0
3, 112770, Note_on_c, 0, 58, 94
3, 112770, Note_on_c, 0, 50, 62
3, 112770, Note_on_c, 0, 53, 62
3, 112814, Note_on_c, 0, 53, 0
3, 112814, Note_on_c, 0, 50, 0
3, 112814, Note_on_c, 0, 58, 0
3, 112860, Note_on_c, 0, 58, 100
3, 112860, Note_on_c, 0, 49, 58
3, 112860, Note_on_c, 0, 52, 58
3, 112904, Note_on_c, 0, 52, 0
3, 112904, Note_on_c, 0, 49, 0
3, 112904, Note_on_c, 0, 58, 0
3, 112950, Note_on_c, 0, 58, 106
3, 112950, Note_on_c, 0, 61, 106
3, 112950, Note_on_c, 0, 52, 63
3, 112994, Note_on_c, 0, 52, 0
3, 112994, Note_on_c, 0, 61, 0
3, 112994, Note_on_c, 0, 58, 0
3, 113040, Note_on_c, 0, 34, 56
3, 113040, Note_on_c, 0, 46, 56
3, 113130, Note_on_c, 0, 62, 89
3, 113174, Note_on_c, 0, 62, 0
3, 113220, Note_on_c, 0, 46, 0
3, 113220, Note_on_c, 0, 34, 0
3, 113220, Note_on_c, 0, 60, 95
3, 113220, Note_on_c, 0, 50, 64
3, 113220, Note_on_c, 0, 53, 64
3, 113264, Note_on_c, 0, 53, 0
3, 113264, Note_on_c, 0, 50, 0
3, 113264, Note_on_c, 0, 60, 0
3, 113310, Note_on_c, 0, 58, 95
3, 113310, Note_on_c, 0, 50, 63
3, 113310, Note_on_c, 0, 53, 63
3, 113354, Note_on_c, 0, 53, 0
3, 113354, Note_on_c, 0, 50, 0
3, 113354, Note_on_c, 0, 58, 0
3, 113400, Note_on_c, 0, 58, 98
3, 113400, Note_on_c, 0, 49, 63
3, 113400, Note_on_c, 0, 52, 63
3, 113444, Note_on_c, 0, 52, 0
3, 113444, Note_on_c, 0, 49, 0
3, 113444, Note_on_c, 0, 58, 0
3, 113490, Note_on_c, 0, 58, 102
3, 113490, Note_on_c, 0, 61, 102
3, 113490, Note_on_c, 0, 52, 57
3, 113534, Note_on_c, 0, 52, 0
3, 113534, Note_on_c, 0, 61, 0
3, 113534, Note_on_c, 0, 58, 0
3, 113580, Note_on_c, 0, 34, 58
3, 113580, Note_on_c, 0, 46, 58
3, 113669, Note_on_c, 0, 46, 0
3, 113669, Note_on_c, 0, 34, 0
3, 113670, Note_on_c, 0, 62, 89
3, 113714, Note_on_c, 0, 62, 0
3, 113760, Note_on_c, 0, 60, 86
3, 113760, Note_on_c, 0, 50, 64
3, 113760, Note_on_c, 0, 53, 64
3, 113804, Note_on_c, 0, 53, 0
3, 113804, Note_on_c, 0, 50, 0
3, 113804, Note_on_c, 0, 60, 0
3, 113850, Note_on_c, 0, 58, 91
3, 113850, Note_on_c, 0, 50, 61
3, 113850, Note_on_c, 0, 53, 61
3, 113894, Note_on_c, 0, 53, 0
3, 113894, Note_on_c, 0, 50, 0
3, 113894, Note_on_c, 0, 58, 0
3, 113940, Note_on_c, 0, 58, 97
3, 113940, Note_on_c, 0, 49, 58
3, 113940, Note_on_c, 0, 52, 58
3, 113984, Note_on_c, 0, 52, 0
3, 113984, Note_on_c, 0, 49, 0
3, 113984, Note_on_c, 0, 58, 0
3, 114030, Note_on_c, 0, 58, 105
3, 114030, Note_on_c, 0, 61, 105
3, 114030, Note_on_c, 0, 52, 62
3, 114074, Note_on_c, 0, 52, 0
3, 114074, Note_on_c, 0, 61, 0
3, 114074, Note_on_c, 0, 58, 0
3, 114120, Note_on_c, 0, 34, 59
3, 114120, Note_on_c, 0, 46, 59
3, 114300, Note_on_c, 0, 46, 0
3, 114300, Note_on_c, 0, 34, 0
3, 114480, Note_on_c, 0, 62, 112
3, 114660, Note_on_c, 0, 62, 0
3, 114660, Note_on_c, 0, 58, 79
3, 114840, Note_on_c, 0, 58, 0
3, 114840, Note_on_c, 0, 63, 114
3, 115020, Note_on_c, 0, 63, 0
3, 115020, Note_on_c, 0, 60, 80
3, 115200, Note_on_c, 0, 60, 0
3, 115200, Note_on_c, 0, 65, 111
3, 115200, Note_on_c, 0, 62, 88
3, 115380, Note_on_c, 0, 62, 0
3, 115380, Note_on_c, 0, 65, 0
3, 115380, Note_on_c, 0, 62, 109
3, 115380, Note_on_c, 0, 44, 85
3, 115380, Note_on_c, 0, 56, 85
3, 115560, Note_on_c, 0, 56, 0
3, 115560, Note_on_c, 0, 44, 0
3, 115560, Note_on_c, 0, 62, 0
3, 115560, Note_on_c, 0, 55, 127
3, 115560, Note_on_c, 0, 63, 127
3, 115560, Note_on_c, 0, 67, 127
3, 115560, Note_on_c, 0, 39, 85
3, 115560, Note_on_c, 0, 51, 85
3, 115740, Note_on_c, 0, 51, 0
3, 115740, Note_on_c, 0, 67, 0
3, 115740, Note_on_c, 0, 55, 0
3, 115740, Note_on_c, 0, 63, 0
3, 115740, Note_on_c, 0, 39, 0
3, 115740, Note_on_c, 0, 51, 117
3, 115740, Note_on_c, 0, 60, 117
3, 115740, Note_on_c, 0, 63, 117
3, 115740, Note_on_c, 0, 32, 81
3, 115740, Note_on_c, 0, 44, 81
3, 115920, Note_on_c, 0, 44, 0
3, 115920, Note_on_c, 0, 63, 0
3, 115920, Note_on_c, 0, 51, 0
3, 115920, Note_on_c, 0, 60, 0
3, 115920, Note_on_c, 0, 32, 0
3, 115920, Note_on_c, 0, 56, 127
3, 115920, Note_on_c, 0, 60, 127
3, 115920, Note_on_c, 0, 68, 127
3, 115920, Note_on_c, 0, 29, 74
3, 115920, Note_on_c, 0, 41, 74
3, 116100, Note_on_c, 0, 41, 0
3, 116100, Note_on_c, 0, 68, 0
3, 116100, Note_on_c, 0, 56, 0
3, 116100, Note_on_c, 0, 60, 0
3, 116100, Note_on_c, 0, 29, 0
3, 116100, Note_on_c, 0, 53, 116
3, 116100, Note_on_c, 0, 62, 116
3, 116100, Note_on_c, 0, 65, 116
3, 116100, Note_on_c, 0, 34, 89
3, 116100, Note_on_c, 0, 46, 89
3, 116280, Note_on_c, 0, 46, 0
3, 116280, Note_on_c, 0, 65, 0
3, 116280, Note_on_c, 0, 53, 0
3, 116280, Note_on_c, 0, 62, 0
3, 116280, Note_on_c, 0, 34, 0
3, 116280, Note_on_c, 0, 55, 89
3, 116280, Note_on_c, 0, 58, 89
3, 116280, Note_on_c, 0, 39, 88
3, 116315, Note_on_c, 0, 39, 0
3, 116315, Note_on_c, 0, 58, 0
3, 116315, Note_on_c, 0, 55, 0
3, 116325, Note_on_c, 0, 63, 114
3, 116325, Note_on_c, 0, 51, 108
3, 116360, Note_on_c, 0, 51, 0
3, 116360, Note_on_c, 0, 63, 0
3, 116370, Note_on_c, 0, 55, 89
3, 116370, Note_on_c, 0, 58, 89
3, 116370, Note_on_c, 0, 39, 88
3, 116405, Note_on_c, 0, 39, 0
3, 116405, Note_on_c, 0, 58, 0
3, 116405, Note_on_c, 0, 55, 0
3, 116415, Note_on_c, 0, 63, 114
3, 116415, Note_on_c, 0, 51, 108
3, 116450, Note_on_c, 0, 51, 0
3, 116450, Note_on_c, 0, 63, 0
3, 116460, Note_on_c, 0, 55, 89
3, 116460, Note_on_c, 0, 58, 89
3, 116460, Note_on_c, 0, 39, 88
3, 116495, Note_on_c, 0, 39, 0
3, 116495, Note_on_c, 0, 58, 0
3, 116495, Note_on_c, 0, 55, 0
3, 116505, Note_on_c, 0, 63, 114
3, 116505, Note_on_c, 0, 51, 108
3, 116540, Note_on_c, 0, 51, 0
3, 116540, Note_on_c, 0, 63, 0
3, 116550, Note_on_c, 0, 55, 89
3, 116550, Note_on_c, 0, 58, 89
3, 116550, Note_on_c, 0, 39, 88
3, 116585, Note_on_c, 0, 39, 0
3, 116585, Note_on_c, 0, 58, 0
3, 116585, Note_on_c, 0, 55, 0
3, 116595, Note_on_c, 0, 63, 114
3, 116595, Note_on_c, 0, 51, 108
3, 116630, Note_on_c, 0, 51, 0
3, 116630, Note_on_c, 0, 63, 0
3, 116640, Note_on_c, 0, 55, 89
3, 116640, Note_on_c, 0, 58, 89
3, 116640, Note_on_c, 0, 39, 88
3, 116675, Note_on_c, 0, 39, 0
3, 116675, Note_on_c, 0, 58, 0
3, 116675, Note_on_c, 0, 55, 0
3, 116685, Note_on_c, 0, 63, 114
3, 116685, Note_on_c, 0, 51, 108
3, 116720, Note_on_c, 0, 51, 0
3, 116720, Note_on_c, 0, 63, 0
3, 116730, Note_on_c, 0, 55, 89
3, 116730, Note_on_c, 0, 58, 89
3, 116730, Note_on_c, 0, 39, 88
3, 116765, Note_on_c, 0, 39, 0
3, 116765, Note_on_c, 0, 58, 0
3, 116765, Note_on_c, 0, 55, 0
3, 116775, Note_on_c, 0, 63, 114
3, 116775, Note_on_c, 0, 51, 108
3, 116810, Note_on_c, 0, 51, 0
3, 116810, Note_on_c, 0, 63, 0
3, 116820, Note_on_c, 0, 55, 89
3, 116820, Note_on_c, 0, 58, 89
3, 116820, Note_on_c, 0, 39, 88
3, 116855, Note_on_c, 0, 39, 0
3, 116855, Note_on_c, 0, 58, 0
3, 116855, Note_on_c, 0, 55, 0
3, 116865, Note_on_c, 0, 63, 114
3, 116865, Note_on_c, 0, 51, 108
3, 116900, Note_on_c, 0, 51, 0
3, 116900, Note_on_c, 0, 63, 0
3, 116910, Note_on_c, 0, 55, 89
3, 116910, Note_on_c, 0, 58, 89
3, 116910, Note_on_c, 0, 39, 88
3, 116945, Note_on_c, 0, 39, 0
3, 116945, Note_on_c, 0, 58, 0
3, 116945, Note_on_c, 0, 55, 0
3, 116955, Note_on_c, 0, 63, 114
3, 116955, Note_on_c, 0, 51, 108
3, 116990, Note_on_c, 0, 51, 0
3, 116990, Note_on_c, 0, 63, 0
3, 117000, Note_on_c, 0, 55, 89
3, 117000, Note_on_c, 0, 58, 89
3, 117000, Note_on_c, 0, 39, 88
3, 117035, Note_on_c, 0, 39, 0
3, 117035, Note_on_c, 0, 58, 0
3, 117035, Note_on_c, 0, 55, 0
3, 117045, Note_on_c, 0, 63, 114
3, 117045, Note_on_c, 0, 51, 108
3, 117080, Note_on_c, 0, 51, 0
3, 117080, Note_on_c, 0, 63, 0
3, 117090, Note_on_c, 0, 55, 89
3, 117090, Note_on_c, 0, 58, 89
3, 117090, Note_on_c, 0, 39, 88
3, 117125, Note_on_c, 0, 39, 0
3, 117125, Note_on_c, 0, 58, 0
3, 117125, Note_on_c, 0, 55, 0
3, 117135, Note_on_c, 0, 63, 114
3, 117135, Note_on_c, 0, 51, 108
3, 117170, Note_on_c, 0, 51, 0
3, 117170, Note_on_c, 0, 63, 0
3, 117180, Note_on_c, 0, 55, 89
3, 117180, Note_on_c, 0, 58, 89
3, 117180, Note_on_c, 0, 39, 88
3, 117215, Note_on_c, 0, 39, 0
3, 117215, Note_on_c, 0, 58, 0
3, 117215, Note_on_c, 0, 55, 0
3, 117225, Note_on_c, 0, 63, 114
3, 117225, Note_on_c, 0, 51, 108
3, 117260, Note_on_c, 0, 51, 0
3, 117260, Note_on_c, 0, 63, 0
3, 117270, Note_on_c, 0, 55, 89
3, 117270, Note_on_c, 0, 58, 89
3, 117270, Note_on_c, 0, 39, 88
3, 117305, Note_on_c, 0, 39, 0
3, 117305, Note_on_c, 0, 58, 0
3, 117305, Note_on_c, 0, 55, 0
3, 117315, Note_on_c, 0, 63, 114
3, 117315, Note_on_c, 0, 51, 108
3, 117350, Note_on_c, 0, 51, 0
3, 117350, Note_on_c, 0, 63, 0
3, 117360, Note_on_c, 0, 55, 89
3, 117360, Note_on_c, 0, 58, 89
3, 117360, Note_on_c, 0, 55, 93
3, 117360, Note_on_c, 0, 58, 93
3, 117360, Note_on_c, 0, 39, 88
3, 117360, Note_on_c, 0, 39, 87
3, 117395, Note_on_c, 0, 39, 0
3, 117395, Note_on_c, 0, 58, 0
3, 117395, Note_on_c, 0, 55, 0
3, 117395, Note_on_c, 0, 55, 0
3, 117395, Note_on_c, 0, 39, 0
3, 117395, Note_on_c, 0, 58, 0
3, 117405, Note_on_c, 0, 63, 110
3, 117405, Note_on_c, 0, 51, 111
3, 117440, Note_on_c, 0, 51, 0
3, 117440, Note_on_c, 0, 63, 0
3, 117450, Note_on_c, 0, 55, 93
3, 117450, Note_on_c, 0, 58, 93
3, 117450, Note_on_c, 0, 39, 87
3, 117485, Note_on_c, 0, 39, 0
3, 117485, Note_on_c, 0, 58, 0
3, 117485, Note_on_c, 0, 55, 0
3, 117495, Note_on_c, 0, 63, 110
3, 117495, Note_on_c, 0, 51, 111
3, 117530, Note_on_c, 0, 51, 0
3, 117530, Note_on_c, 0, 63, 0
3, 117540, Note_on_c, 0, 55, 93
3, 117540, Note_on_c, 0, 58, 93
3, 117540, Note_on_c, 0, 39, 87
3, 117575, Note_on_c, 0, 39, 0
3, 117575, Note_on_c, 0, 58, 0
3, 117575, Note_on_c, 0, 55, 0
3, 117585, Note_on_c, 0, 63, 110
3, 117585, Note_on_c, 0, 51, 111
3, 117620, Note_on_c, 0, 51, 0
3, 117620, Note_on_c, 0, 63, 0
3, 117630, Note_on_c, 0, 55, 93
3, 117630, Note_on_c, 0, 58, 93
3, 117630, Note_on_c, 0, 39, 87
3, 117665, Note_on_c, 0, 39, 0
3, 117665, Note_on_c, 0, 58, 0
3, 117665, Note_on_c, 0, 55, 0
3, 117675, Note_on_c, 0, 63, 110
3, 117675, Note_on_c, 0, 51, 111
3, 117710, Note_on_c, 0, 51, 0
3, 117710, Note_on_c, 0, 63, 0
3, 117720, Note_on_c, 0, 55, 93
3, 117720, Note_on_c, 0, 58, 93
3, 117720, Note_on_c, 0, 39, 87
3, 117755, Note_on_c, 0, 39, 0
3, 117755, Note_on_c, 0, 58, 0
3, 117755, Note_on_c, 0, 55, 0
3, 117765, Note_on_c, 0, 63, 110
3, 117765, Note_on_c, 0, 51, 111
3, 117800, Note_on_c, 0, 51, 0
3, 117800, Note_on_c, 0, 63, 0
3, 117810, Note_on_c, 0, 55, 93
3, 117810, Note_on_c, 0, 58, 93
3, 117810, Note_on_c, 0, 39, 87
3, 117845, Note_on_c, 0, 39, 0
3, 117845, Note_on_c, 0, 58, 0
3, 117845, Note_on_c, 0, 55, 0
3, 117855, Note_on_c, 0, 63, 110
3, 117855, Note_on_c, 0, 51, 111
3, 117890, Note_on_c, 0, 51, 0
3, 117890, Note_on_c, 0, 63, 0
3, 117900, Note_on_c, 0, 55, 93
3, 117900, Note_on_c, 0, 58, 93
3, 117900, Note_on_c, 0, 39, 87
3, 117935, Note_on_c, 0, 39, 0
3, 117935, Note_on_c, 0, 58, 0
3, 117935, Note_on_c, 0, 55, 0
3, 117945, Note_on_c, 0, 63, 110
3, 117945, Note_on_c, 0, 51, 111
3, 117980, Note_on_c, 0, 51, 0
3, 117980, Note_on_c, 0, 63, 0
3, 117990, Note_on_c, 0, 55, 93
3, 117990, Note_on_c, 0, 58, 93
3, 117990, Note_on_c, 0, 39, 87
3, 118025, Note_on_c, 0, 39, 0
3, 118025, Note_on_c, 0, 58, 0
3, 118025, Note_on_c, 0, 55, 0
3, 118035, Note_on_c, 0, 63, 110
3, 118035, Note_on_c, 0, 51, 111
3, 118070, Note_on_c, 0, 51, 0
3, 118070, Note_on_c, 0, 63, 0
3, 118080, Note_on_c, 0, 55, 93
3, 118080, Note_on_c, 0, 58, 93
3, 118080, Note_on_c, 0, 39, 87
3, 118115, Note_on_c, 0, 39, 0
3, 118115, Note_on_c, 0, 58, 0
3, 118115, Note_on_c, 0, 55, 0
3, 118125, Note_on_c, 0, 63, 110
3, 118125, Note_on_c, 0, 51, 111
3, 118160, Note_on_c, 0, 51, 0
3, 118160, Note_on_c, 0, 63, 0
3, 118170, Note_on_c, 0, 55, 93
3, 118170, Note_on_c, 0, 58, 93
3, 118170, Note_on_c, 0, 39, 87
3, 118205, Note_on_c, 0, 39, 0
3, 118205, Note_on_c, 0, 58, 0
3, 118205, Note_on_c, 0, 55, 0
3, 118215, Note_on_c, 0, 63, 110
3, 118215, Note_on_c, 0, 51, 111
3, 118250, Note_on_c, 0, 51, 0
3, 118250, Note_on_c, 0, 63, 0
3, 118260, Note_on_c, 0, 55, 93
3, 118260, Note_on_c, 0, 58, 93
3, 118260, Note_on_c, 0, 39, 87
3, 118295, Note_on_c, 0, 39, 0
3, 118295, Note_on_c, 0, 58, 0
3, 118295, Note_on_c, 0, 55, 0
3, 118305, Note_on_c, 0, 63, 110
3, 118305, Note_on_c, 0, 51, 111
3, 118340, Note_on_c, 0, 51, 0
3, 118340, Note_on_c, 0, 63, 0
3, 118350, Note_on_c, 0, 55, 93
3, 118350, Note_on_c, 0, 58, 93
3, 118350, Note_on_c, 0, 39, 87
3, 118385, Note_on_c, 0, 39, 0
3, 118385, Note_on_c, 0, 58, 0
3, 118385, Note_on_c, 0, 55, 0
3, 118395, Note_on_c, 0, 63, 110
3, 118395, Note_on_c, 0, 51, 111
3, 118430, Note_on_c, 0, 51, 0
3, 118430, Note_on_c, 0, 63, 0
3, 118440, Note_on_c, 0, 54, 89
3, 118440, Note_on_c, 0, 57, 89
3, 118440, Note_on_c, 0, 60, 89
3, 118440, Note_on_c, 0, 27, 84
3, 118440, Note_on_c, 0, 39, 84
3, 118620, Note_on_c, 0, 39, 0
3, 118620, Note_on_c, 0, 60, 0
3, 118620, Note_on_c, 0, 54, 0
3, 118620, Note_on_c, 0, 57, 0
3, 118620, Note_on_c, 0, 27, 0
3, 118980, Note_on_c, 0, 57, 87
3, 118980, Note_on_c, 0, 60, 87
3, 118980, Note_on_c, 0, 63, 87
3, 118980, Note_on_c, 0, 51, 115
3, 118980, Note_on_c, 0, 54, 115
3, 119160, Note_on_c, 0, 54, 0
3, 119160, Note_on_c, 0, 63, 0
3, 119160, Note_on_c, 0, 57, 0
3, 119160, Note_on_c, 0, 60, 0
3, 119160, Note_on_c, 0, 51, 0
3, 119340, Note_on_c, 0, 63, 115
3, 119340, Note_on_c, 0, 60, 115
3, 119520, Note_on_c, 0, 60, 0
3, 119520, Note_on_c, 0, 63, 0
3, 119520, Note_on_c, 0, 65, 127
3, 119520, Note_on_c, 0, 62, 125
3, 119700, Note_on_c, 0, 62, 0
3, 119700, Note_on_c, 0, 65, 0
3, 119700, Note_on_c, 0, 62, 115
3, 119700, Note_on_c, 0, 44, 115
3, 119700, Note_on_c, 0, 56, 115
3, 119880, Note_on_c, 0, 56, 0
3, 119880, Note_on_c, 0, 44, 0
3, 119880, Note_on_c, 0, 62, 0
3, 119880, Note_on_c, 0, 55, 127
3, 119880, Note_on_c, 0, 63, 127
3, 119880, Note_on_c, 0, 67, 127
3, 119880, Note_on_c, 0, 39, 110
3, 119880, Note_on_c, 0, 51, 110
3, 120060, Note_on_c, 0, 51, 0
3, 120060, Note_on_c, 0, 67, 0
3, 120060, Note_on_c, 0, 55, 0
3, 120060, Note_on_c, 0, 63, 0
3, 120060, Note_on_c, 0, 39, 0
3, 120060, Note_on_c, 0, 51, 110
3, 120060, Note_on_c, 0, 60, 110
3, 120060, Note_on_c, 0, 63, 110
3, 120060, Note_on_c, 0, 32, 116
3, 120060, Note_on_c, 0, 44, 116
3, 120240, Note_on_c, 0, 44, 0
3, 120240, Note_on_c, 0, 63, 0
3, 120240, Note_on_c, 0, 51, 0
3, 120240, Note_on_c, 0, 60, 0
3, 120240, Note_on_c, 0, 32, 0
3, 120240, Note_on_c, 0, 56, 127
3, 120240, Note_on_c, 0, 61, 127
3, 120240, Note_on_c, 0, 68, 127
3, 120240, Note_on_c, 0, 29, 118
3, 120240, Note_on_c, 0, 41, 118
3, 120420, Note_on_c, 0, 41, 0
3, 120420, Note_on_c, 0, 68, 0
3, 120420, Note_on_c, 0, 56, 0
3, 120420, Note_on_c, 0, 61, 0
3, 120420, Note_on_c, 0, 29, 0
3, 120420, Note_on_c, 0, 53, 120
3, 120420, Note_on_c, 0, 62, 120
3, 120420, Note_on_c, 0, 65, 120
3, 120420, Note_on_c, 0, 34, 127
3, 120420, Note_on_c, 0, 46, 127
3, 120600, Note_on_c, 0, 46, 0
3, 120600, Note_on_c, 0, 65, 0
3, 120600, Note_on_c, 0, 53, 0
3, 120600, Note_on_c, 0, 62, 0
3, 120600, Note_on_c, 0, 34, 0
3, 120600, Note_on_c, 0, 55, 84
3, 120600, Note_on_c, 0, 58, 84
3, 120600, Note_on_c, 0, 39, 86
3, 120635, Note_on_c, 0, 39, 0
3, 120635, Note_on_c, 0, 58, 0
3, 120635, Note_on_c, 0, 55, 0
3, 120645, Note_on_c, 0, 63, 106
3, 120645, Note_on_c, 0, 51, 110
3, 120680, Note_on_c, 0, 51, 0
3, 120680, Note_on_c, 0, 63, 0
3, 120690, Note_on_c, 0, 55, 84
3, 120690, Note_on_c, 0, 58, 84
3, 120690, Note_on_c, 0, 39, 86
3, 120725, Note_on_c, 0, 39, 0
3, 120725, Note_on_c, 0, 58, 0
3, 120725, Note_on_c, 0, 55, 0
3, 120735, Note_on_c, 0, 63, 106
3, 120735, Note_on_c, 0, 51, 110
3, 120770, Note_on_c, 0, 51, 0
3, 120770, Note_on_c, 0, 63, 0
3, 120780, Note_on_c, 0, 55, 84
3, 120780, Note_on_c, 0, 58, 84
3, 120780, Note_on_c, 0, 39, 86
3, 120815, Note_on_c, 0, 39, 0
3, 120815, Note_on_c, 0, 58, 0
3, 120815, Note_on_c, 0, 55, 0
3, 120825, Note_on_c, 0, 63, 106
3, 120825, Note_on_c, 0, 51, 110
3, 120860, Note_on_c, 0, 51, 0
3, 120860, Note_on_c, 0, 63, 0
3, 120870, Note_on_c, 0, 55, 84
3, 120870, Note_on_c, 0, 58, 84
3, 120870, Note_on_c, 0, 39, 86
3, 120905, Note_on_c, 0, 39, 0
3, 120905, Note_on_c, 0, 58, 0
3, 120905, Note_on_c, 0, 55, 0
3, 120915, Note_on_c, 0, 63, 106
3, 120915, Note_on_c, 0, 51, 110
3, 120950, Note_on_c, 0, 51, 0
3, 120950, Note_on_c, 0, 63, 0
3, 120960, Note_on_c, 0, 55, 84
3, 120960, Note_on_c, 0, 58, 84
3, 120960, Note_on_c, 0, 39, 86
3, 120995, Note_on_c, 0, 39, 0
3, 120995, Note_on_c, 0, 58, 0
3, 120995, Note_on_c, 0, 55, 0
3, 121005, Note_on_c, 0, 63, 106
3, 121005, Note_on_c, 0, 51, 110
3, 121040, Note_on_c, 0, 51, 0
3, 121040, Note_on_c, 0, 63, 0
3, 121050, Note_on_c, 0, 55, 84
3, 121050, Note_on_c, 0, 58, 84
3, 121050, Note_on_c, 0, 39, 86
3, 121085, Note_on_c, 0, 39, 0
3, 121085, Note_on_c, 0, 58, 0
3, 121085, Note_on_c, 0, 55, 0
3, 121095, Note_on_c, 0, 63, 106
3, 121095, Note_on_c, 0, 51, 110
3, 121130, Note_on_c, 0, 51, 0
3, 121130, Note_on_c, 0, 63, 0
3, 121140, Note_on_c, 0, 55, 84
3, 121140, Note_on_c, 0, 58, 84
3, 121140, Note_on_c, 0, 39, 86
3, 121175, Note_on_c, 0, 39, 0
3, 121175, Note_on_c, 0, 58, 0
3, 121175, Note_on_c, 0, 55, 0
3, 121185, Note_on_c, 0, 63, 106
3, 121185, Note_on_c, 0, 51, 110
3, 121220, Note_on_c, 0, 51, 0
3, 121220, Note_on_c, 0, 63, 0
3, 121230, Note_on_c, 0, 55, 84
3, 121230, Note_on_c, 0, 58, 84
3, 121230, Note_on_c, 0, 39, 86
3, 121265, Note_on_c, 0, 39, 0
3, 121265, Note_on_c, 0, 58, 0
3, 121265, Note_on_c, 0, 55, 0
3, 121275, Note_on_c, 0, 63, 106
3, 121275, Note_on_c, 0, 51, 110
3, 121310, Note_on_c, 0, 51, 0
3, 121310, Note_on_c, 0, 63, 0
3, 121320, Note_on_c, 0, 55, 84
3, 121320, Note_on_c, 0, 58, 84
3, 121320, Note_on_c, 0, 39, 86
3, 121355, Note_on_c, 0, 39, 0
3, 121355, Note_on_c, 0, 58, 0
3, 121355, Note_on_c, 0, 55, 0
3, 121365, Note_on_c, 0, 63, 106
3, 121365, Note_on_c, 0, 51, 110
3, 121400, Note_on_c, 0, 51, 0
3, 121400, Note_on_c, 0, 63, 0
3, 121410, Note_on_c, 0, 55, 84
3, 121410, Note_on_c, 0, 58, 84
3, 121410, Note_on_c, 0, 39, 86
3, 121445, Note_on_c, 0, 39, 0
3, 121445, Note_on_c, 0, 58, 0
3, 121445, Note_on_c, 0, 55, 0
3, 121455, Note_on_c, 0, 63, 106
3, 121455, Note_on_c, 0, 51, 110
3, 121490, Note_on_c, 0, 51, 0
3, 121490, Note_on_c, 0, 63, 0
3, 121500, Note_on_c, 0, 55, 84
3, 121500, Note_on_c, 0, 58, 84
3, 121500, Note_on_c, 0, 39, 86
3, 121535, Note_on_c, 0, 39, 0
3, 121535, Note_on_c, 0, 58, 0
3, 121535, Note_on_c, 0, 55, 0
3, 121545, Note_on_c, 0, 63, 106
3, 121545, Note_on_c, 0, 51, 110
3, 121580, Note_on_c, 0, 51, 0
3, 121580, Note_on_c, 0, 63, 0
3, 121590, Note_on_c, 0, 55, 84
3, 121590, Note_on_c, 0, 58, 84
3, 121590, Note_on_c, 0, 39, 86
3, 121625, Note_on_c, 0, 39, 0
3, 121625, Note_on_c, 0, 58, 0
3, 121625, Note_on_c, 0, 55, 0
3, 121635, Note_on_c, 0, 63, 106
3, 121635, Note_on_c, 0, 51, 110
3, 121670, Note_on_c, 0, 51, 0
3, 121670, Note_on_c, 0, 63, 0
3, 121680, Note_on_c, 0, 55, 84
3, 121680, Note_on_c, 0, 58, 84
3, 121680, Note_on_c, 0, 55, 98
3, 121680, Note_on_c, 0, 58, 98
3, 121680, Note_on_c, 0, 39, 86
3, 121680, Note_on_c, 0, 39, 86
3, 121715, Note_on_c, 0, 39, 0
3, 121715, Note_on_c, 0, 58, 0
3, 121715, Note_on_c, 0, 55, 0
3, 121715, Note_on_c, 0, 55, 0
3, 121715, Note_on_c, 0, 39, 0
3, 121715, Note_on_c, 0, 58, 0
3, 121725, Note_on_c, 0, 63, 110
3, 121725, Note_on_c, 0, 51, 112
3, 121760, Note_on_c, 0, 51, 0
3, 121760, Note_on_c, 0, 63, 0
3, 121770, Note_on_c, 0, 55, 98
3, 121770, Note_on_c, 0, 58, 98
3, 121770, Note_on_c, 0, 39, 86
3, 121805, Note_on_c, 0, 39, 0
3, 121805, Note_on_c, 0, 58, 0
3, 121805, Note_on_c, 0, 55, 0
3, 121815, Note_on_c, 0, 63, 110
3, 121815, Note_on_c, 0, 51, 112
3, 121850, Note_on_c, 0, 51, 0
3, 121850, Note_on_c, 0, 63, 0
3, 121860, Note_on_c, 0, 55, 98
3, 121860, Note_on_c, 0, 58, 98
3, 121860, Note_on_c, 0, 39, 86
3, 121895, Note_on_c, 0, 39, 0
3, 121895, Note_on_c, 0, 58, 0
3, 121895, Note_on_c, 0, 55, 0
3, 121905, Note_on_c, 0, 63, 110
3, 121905, Note_on_c, 0, 51, 112
3, 121940, Note_on_c, 0, 51, 0
3, 121940, Note_on_c, 0, 63, 0
3, 121950, Note_on_c, 0, 55, 98
3, 121950, Note_on_c, 0, 58, 98
3, 121950, Note_on_c, 0, 39, 86
3, 121985, Note_on_c, 0, 39, 0
3, 121985, Note_on_c, 0, 58, 0
3, 121985, Note_on_c, 0, 55, 0
3, 121995, Note_on_c, 0, 63, 110
3, 121995, Note_on_c, 0, 51, 112
3, 122030, Note_on_c, 0, 51, 0
3, 122030, Note_on_c, 0, 63, 0
3, 122040, Note_on_c, 0, 55, 98
3, 122040, Note_on_c, 0, 58, 98
3, 122040, Note_on_c, 0, 39, 86
3, 122075, Note_on_c, 0, 39, 0
3, 122075, Note_on_c, 0, 58, 0
3, 122075, Note_on_c, 0, 55, 0
3, 122085, Note_on_c, 0, 63, 110
3, 122085, Note_on_c, 0, 51, 112
3, 122120, Note_on_c, 0, 51, 0
3, 122120, Note_on_c, 0, 63, 0
3, 122130, Note_on_c, 0, 55, 98
3, 122130, Note_on_c, 0, 58, 98
3, 122130, Note_on_c, 0, 39, 86
3, 122165, Note_on_c, 0, 39, 0
3, 122165, Note_on_c, 0, 58, 0
3, 122165, Note_on_c, 0, 55, 0
3, 122175, Note_on_c, 0, 63, 110
3, 122175, Note_on_c, 0, 51, 112
3, 122210, Note_on_c, 0, 51, 0
3, 122210, Note_on_c, 0, 63, 0
3, 122220, Note_on_c, 0, 55, 98
3, 122220, Note_on_c, 0, 58, 98
3, 122220, Note_on_c, 0, 39, 86
3, 122255, Note_on_c, 0, 39, 0
3, 122255, Note_on_c, 0, 58, 0
3, 122255, Note_on_c, 0, 55, 0
3, 122265, Note_on_c, 0, 63, 110
3, 122265, Note_on_c, 0, 51, 112
3, 122300, Note_on_c, 0, 51, 0
3, 122300, Note_on_c, 0, 63, 0
3, 122310, Note_on_c, 0, 55, 98
3, 122310, Note_on_c, 0, 58, 98
3, 122310, Note_on_c, 0, 39, 86
3, 122345, Note_on_c, 0, 39, 0
3, 122345, Note_on_c, 0, 58, 0
3, 122345, Note_on_c, 0, 55, 0
3, 122355, Note_on_c, 0, 63, 110
3, 122355, Note_on_c, 0, 51, 112
3, 122390, Note_on_c, 0, 51, 0
3, 122390, Note_on_c, 0, 63, 0
3, 122400, Note_on_c, 0, 55, 98
3, 122400, Note_on_c, 0, 58, 98
3, 122400, Note_on_c, 0, 39, 86
3, 122435, Note_on_c, 0, 39, 0
3, 122435, Note_on_c, 0, 58, 0
3, 122435, Note_on_c, 0, 55, 0
3, 122445, Note_on_c, 0, 63, 110
3, 122445, Note_on_c, 0, 51, 112
3, 122480, Note_on_c, 0, 51, 0
3, 122480, Note_on_c, 0, 63, 0
3, 122490, Note_on_c, 0, 55, 98
3, 122490, Note_on_c, 0, 58, 98
3, 122490, Note_on_c, 0, 39, 86
3, 122525, Note_on_c, 0, 39, 0
3, 122525, Note_on_c, 0, 58, 0
3, 122525, Note_on_c, 0, 55, 0
3, 122535, Note_on_c, 0, 63, 110
3, 122535, Note_on_c, 0, 51, 112
3, 122570, Note_on_c, 0, 51, 0
3, 122570, Note_on_c, 0, 63, 0
3, 122580, Note_on_c, 0, 55, 98
3, 122580, Note_on_c, 0, 58, 98
3, 122580, Note_on_c, 0, 39, 86
3, 122615, Note_on_c, 0, 39, 0
3, 122615, Note_on_c, 0, 58, 0
3, 122615, Note_on_c, 0, 55, 0
3, 122625, Note_on_c, 0, 63, 110
3, 122625, Note_on_c, 0, 51, 112
3, 122660, Note_on_c, 0, 51, 0
3, 122660, Note_on_c, 0, 63, 0
3, 122670, Note_on_c, 0, 55, 98
3, 122670, Note_on_c, 0, 58, 98
3, 122670, Note_on_c, 0, 39, 86
3, 122705, Note_on_c, 0, 39, 0
3, 122705, Note_on_c, 0, 58, 0
3, 122705, Note_on_c, 0, 55, 0
3, 122715, Note_on_c, 0, 63, 110
3, 122715, Note_on_c, 0, 51, 112
3, 122750, Note_on_c, 0, 51, 0
3, 122750, Note_on_c, 0, 63, 0
3, 122760, Note_on_c, 0, 54, 93
3, 122760, Note_on_c, 0, 57, 93
3, 122760, Note_on_c, 0, 60, 93
3, 122760, Note_on_c, 0, 27, 87
3, 122760, Note_on_c, 0, 39, 87
3, 122940, Note_on_c, 0, 39, 0
3, 122940, Note_on_c, 0, 60, 0
3, 122940, Note_on_c, 0, 54, 0
3, 122940, Note_on_c, 0, 57, 0
3, 122940, Note_on_c, 0, 27, 0
3, 123300, Note_on_c, 0, 57, 89
3, 123300, Note_on_c, 0, 60, 89
3, 123300, Note_on_c, 0, 63, 89
3, 123300, Note_on_c, 0, 51, 114
3, 123300, Note_on_c, 0, 54, 114
3, 123480, Note_on_c, 0, 54, 0
3, 123480, Note_on_c, 0, 63, 0
3, 123480, Note_on_c, 0, 57, 0
3, 123480, Note_on_c, 0, 60, 0
3, 123480, Note_on_c, 0, 51, 0
3, 123660, Note_on_c, 0, 63, 110
3, 123660, Note_on_c, 0, 60, 109
3, 123840, Note_on_c, 0, 60, 0
3, 123840, Note_on_c, 0, 63, 0
3, 123840, Note_on_c, 0, 65, 127
3, 123840, Note_on_c, 0, 62, 122
3, 124020, Note_on_c, 0, 62, 0
3, 124020, Note_on_c, 0, 65, 0
3, 124020, Note_on_c, 0, 62, 111
3, 124020, Note_on_c, 0, 44, 116
3, 124020, Note_on_c, 0, 56, 116
3, 124200, Note_on_c, 0, 56, 0
3, 124200, Note_on_c, 0, 44, 0
3, 124200, Note_on_c, 0, 62, 0
3, 124200, Note_on_c, 0, 55, 127
3, 124200, Note_on_c, 0, 63, 127
3, 124200, Note_on_c, 0, 67, 127
3, 124200, Note_on_c, 0, 39, 119
3, 124200, Note_on_c, 0, 51, 119
3, 124380, Note_on_c, 0, 51, 0
3, 124380, Note_on_c, 0, 67, 0
3, 124380, Note_on_c, 0, 55, 0
3, 124380, Note_on_c, 0, 63, 0
3, 124380, Note_on_c, 0, 39, 0
3, 124380, Note_on_c, 0, 51, 114
3, 124380, Note_on_c, 0, 60, 114
3, 124380, Note_on_c, 0, 63, 114
3, 124380, Note_on_c, 0, 32, 113
3, 124380, Note_on_c, 0, 44, 113
3, 124560, Note_on_c, 0, 44, 0
3, 124560, Note_on_c, 0, 63, 0
3, 124560, Note_on_c, 0, 51, 0
3, 124560, Note_on_c, 0, 60, 0
3, 124560, Note_on_c, 0, 32, 0
3, 124560, Note_on_c, 0, 56, 127
3, 124560, Note_on_c, 0, 61, 127
3, 124560, Note_on_c, 0, 68, 127
3, 124560, Note_on_c, 0, 29, 122
3, 124560, Note_on_c, 0, 41, 122
3, 124740, Note_on_c, 0, 41, 0
3, 124740, Note_on_c, 0, 68, 0
3, 124740, Note_on_c, 0, 56, 0
3, 124740, Note_on_c, 0, 61, 0
3, 124740, Note_on_c, 0, 29, 0
3, 124740, Note_on_c, 0, 53, 115
3, 124740, Note_on_c, 0, 62, 115
3, 124740, Note_on_c, 0, 65, 115
3, 124740, Note_on_c, 0, 34, 127
3, 124740, Note_on_c, 0, 46, 127
3, 124920, Note_on_c, 0, 46, 0
3, 124920, Note_on_c, 0, 65, 0
3, 124920, Note_on_c, 0, 53, 0
3, 124920, Note_on_c, 0, 62, 0
3, 124920, Note_on_c, 0, 34, 0
3, 124920, Note_on_c, 0, 58, 74
3, 124920, Note_on_c, 0, 27, 76
3, 124955, Note_on_c, 0, 27, 0
3, 124955, Note_on_c, 0, 58, 0
3, 124965, Note_on_c, 0, 55, 77
3, 124965, Note_on_c, 0, 39, 92
3, 125000, Note_on_c, 0, 39, 0
3, 125000, Note_on_c, 0, 55, 0
3, 125010, Note_on_c, 0, 58, 74
3, 125010, Note_on_c, 0, 27, 76
3, 125045, Note_on_c, 0, 27, 0
3, 125045, Note_on_c, 0, 58, 0
3, 125055, Note_on_c, 0, 55, 77
3, 125055, Note_on_c, 0, 39, 92
3, 125090, Note_on_c, 0, 39, 0
3, 125090, Note_on_c, 0, 55, 0
3, 125100, Note_on_c, 0, 58, 74
3, 125100, Note_on_c, 0, 27, 76
3, 125135, Note_on_c, 0, 27, 0
3, 125135, Note_on_c, 0, 58, 0
3, 125145, Note_on_c, 0, 55, 77
3, 125145, Note_on_c, 0, 39, 92
3, 125180, Note_on_c, 0, 39, 0
3, 125180, Note_on_c, 0, 55, 0
3, 125190, Note_on_c, 0, 58, 74
3, 125190, Note_on_c, 0, 27, 76
3, 125225, Note_on_c, 0, 27, 0
3, 125225, Note_on_c, 0, 58, 0
3, 125235, Note_on_c, 0, 55, 77
3, 125235, Note_on_c, 0, 39, 92
3, 125270, Note_on_c, 0, 39, 0
3, 125270, Note_on_c, 0, 55, 0
3, 125280, Note_on_c, 0, 58, 74
3, 125280, Note_on_c, 0, 27, 76
3, 125315, Note_on_c, 0, 27, 0
3, 125315, Note_on_c, 0, 58, 0
3, 125325, Note_on_c, 0, 55, 77
3, 125325, Note_on_c, 0, 39, 92
3, 125360, Note_on_c, 0, 39, 0
3, 125360, Note_on_c, 0, 55, 0
3, 125370, Note_on_c, 0, 58, 74
3, 125370, Note_on_c, 0, 27, 76
3, 125405, Note_on_c, 0, 27, 0
3, 125405, Note_on_c, 0, 58, 0
3, 125415, Note_on_c, 0, 55, 77
3, 125415, Note_on_c, 0, 39, 92
3, 125450, Note_on_c, 0, 39, 0
3, 125450, Note_on_c, 0, 55, 0
3, 125460, Note_on_c, 0, 58, 74
3, 125460, Note_on_c, 0, 27, 76
3, 125495, Note_on_c, 0, 27, 0
3, 125495, Note_on_c, 0, 58, 0
3, 125505, Note_on_c, 0, 55, 77
3, 125505, Note_on_c, 0, 39, 92
3, 125540, Note_on_c, 0, 39, 0
3, 125540, Note_on_c, 0, 55, 0
3, 125550, Note_on_c, 0, 58, 74
3, 125550, Note_on_c, 0, 27, 76
3, 125585, Note_on_c, 0, 27, 0
3, 125585, Note_on_c, 0, 58, 0
3, 125595, Note_on_c, 0, 55, 77
3, 125595, Note_on_c, 0, 39, 92
3, 125630, Note_on_c, 0, 39, 0
3, 125630, Note_on_c, 0, 55, 0
3, 125640, Note_on_c, 0, 58, 74
3, 125640, Note_on_c, 0, 27, 76
3, 125675, Note_on_c, 0, 27, 0
3, 125675, Note_on_c, 0, 58, 0
3, 125685, Note_on_c, 0, 55, 77
3, 125685, Note_on_c, 0, 39, 92
3, 125720, Note_on_c, 0, 39, 0
3, 125720, Note_on_c, 0, 55, 0
3, 125730, Note_on_c, 0, 58, 74
3, 125730, Note_on_c, 0, 27, 76
3, 125765, Note_on_c, 0, 27, 0
3, 125765, Note_on_c, 0, 58, 0
3, 125775, Note_on_c, 0, 55, 77
3, 125775, Note_on_c, 0, 39, 92
3, 125810, Note_on_c, 0, 39, 0
3, 125810, Note_on_c, 0, 55, 0
3, 125820, Note_on_c, 0, 58, 74
3, 125820, Note_on_c, 0, 27, 76
3, 125855, Note_on_c, 0, 27, 0
3, 125855, Note_on_c, 0, 58, 0
3, 125865, Note_on_c, 0, 55, 77
3, 125865, Note_on_c, 0, 39, 92
3, 125900, Note_on_c, 0, 39, 0
3, 125900, Note_on_c, 0, 55, 0
3, 125910, Note_on_c, 0, 58, 74
3, 125910, Note_on_c, 0, 27, 76
3, 125945, Note_on_c, 0, 27, 0
3, 125945, Note_on_c, 0, 58, 0
3, 125955, Note_on_c, 0, 55, 77
3, 125955, Note_on_c, 0, 39, 92
3, 125990, Note_on_c, 0, 39, 0
3, 125990, Note_on_c, 0, 55, 0
3, 126000, Note_on_c, 0, 58, 74
3, 126000, Note_on_c, 0, 58, 86
3, 126000, Note_on_c, 0, 27, 76
3, 126000, Note_on_c, 0, 29, 74
3, 126035, Note_on_c, 0, 29, 0
3, 126035, Note_on_c, 0, 58, 0
3, 126035, Note_on_c, 0, 58, 0
3, 126035, Note_on_c, 0, 27, 0
3, 126045, Note_on_c, 0, 56, 76
3, 126045, Note_on_c, 0, 41, 92
3, 126080, Note_on_c, 0, 41, 0
3, 126080, Note_on_c, 0, 56, 0
3, 126090, Note_on_c, 0, 58, 86
3, 126090, Note_on_c, 0, 29, 74
3, 126125, Note_on_c, 0, 29, 0
3, 126125, Note_on_c, 0, 58, 0
3, 126135, Note_on_c, 0, 56, 76
3, 126135, Note_on_c, 0, 41, 92
3, 126170, Note_on_c, 0, 41, 0
3, 126170, Note_on_c, 0, 56, 0
3, 126180, Note_on_c, 0, 58, 86
3, 126180, Note_on_c, 0, 29, 74
3, 126215, Note_on_c, 0, 29, 0
3, 126215, Note_on_c, 0, 58, 0
3, 126225, Note_on_c, 0, 56, 76
3, 126225, Note_on_c, 0, 41, 92
3, 126260, Note_on_c, 0, 41, 0
3, 126260, Note_on_c, 0, 56, 0
3, 126270, Note_on_c, 0, 58, 86
3, 126270, Note_on_c, 0, 29, 74
3, 126305, Note_on_c, 0, 29, 0
3, 126305, Note_on_c, 0, 58, 0
3, 126315, Note_on_c, 0, 56, 76
3, 126315, Note_on_c, 0, 41, 92
3, 126350, Note_on_c, 0, 41, 0
3, 126350, Note_on_c, 0, 56, 0
3, 126360, Note_on_c, 0, 58, 86
3, 126360, Note_on_c, 0, 29, 74
3, 126395, Note_on_c, 0, 29, 0
3, 126395, Note_on_c, 0, 58, 0
3, 126405, Note_on_c, 0, 56, 76
3, 126405, Note_on_c, 0, 41, 92
3, 126440, Note_on_c, 0, 41, 0
3, 126440, Note_on_c, 0, 56, 0
3, 126450, Note_on_c, 0, 58, 86
3, 126450, Note_on_c, 0, 29, 74
3, 126485, Note_on_c, 0, 29, 0
3, 126485, Note_on_c, 0, 58, 0
3, 126495, Note_on_c, 0, 56, 76
3, 126495, Note_on_c, 0, 41, 92
3, 126530, Note_on_c, 0, 41, 0
3, 126530, Note_on_c, 0, 56, 0
3, 126540, Note_on_c, 0, 58, 86
3, 126540, Note_on_c, 0, 29, 74
3, 126575, Note_on_c, 0, 29, 0
3, 126575, Note_on_c, 0, 58, 0
3, 126585, Note_on_c, 0, 56, 76
3, 126585, Note_on_c, 0, 41, 92
3, 126620, Note_on_c, 0, 41, 0
3, 126620, Note_on_c, 0, 56, 0
3, 126630, Note_on_c, 0, 58, 86
3, 126630, Note_on_c, 0, 29, 74
3, 126665, Note_on_c, 0, 29, 0
3, 126665, Note_on_c, 0, 58, 0
3, 126675, Note_on_c, 0, 56, 76
3, 126675, Note_on_c, 0, 41, 92
3, 126710, Note_on_c, 0, 41, 0
3, 126710, Note_on_c, 0, 56, 0
3, 126720, Note_on_c, 0, 58, 86
3, 126720, Note_on_c, 0, 29, 74
3, 126755, Note_on_c, 0, 29, 0
3, 126755, Note_on_c, 0, 58, 0
3, 126765, Note_on_c, 0, 56, 76
3, 126765, Note_on_c, 0, 41, 92
3, 126800, Note_on_c, 0, 41, 0
3, 126800, Note_on_c, 0, 56, 0
3, 126810, Note_on_c, 0, 58, 86
3, 126810, Note_on_c, 0, 29, 74
3, 126845, Note_on_c, 0, 29, 0
3, 126845, Note_on_c, 0, 58, 0
3, 126855, Note_on_c, 0, 56, 76
3, 126855, Note_on_c, 0, 41, 92
3, 126890, Note_on_c, 0, 41, 0
3, 126890, Note_on_c, 0, 56, 0
3, 126900, Note_on_c, 0, 58, 86
3, 126900, Note_on_c, 0, 29, 74
3, 126935, Note_on_c, 0, 29, 0
3, 126935, Note_on_c, 0, 58, 0
3, 126945, Note_on_c, 0, 56, 76
3, 126945, Note_on_c, 0, 41, 92
3, 126980, Note_on_c, 0, 41, 0
3, 126980, Note_on_c, 0, 56, 0
3, 126990, Note_on_c, 0, 58, 86
3, 126990, Note_on_c, 0, 29, 74
3, 127025, Note_on_c, 0, 29, 0
3, 127025, Note_on_c, 0, 58, 0
3, 127035, Note_on_c, 0, 56, 76
3, 127035, Note_on_c, 0, 41, 92
3, 127070, Note_on_c, 0, 41, 0
3, 127070, Note_on_c, 0, 56, 0
3, 127080, Note_on_c, 0, 59, 85
3, 127080, Note_on_c, 0, 30, 77
3, 127115, Note_on_c, 0, 30, 0
3, 127115, Note_on_c, 0, 59, 0
3, 127125, Note_on_c, 0, 54, 78
3, 127125, Note_on_c, 0, 42, 92
3, 127160, Note_on_c, 0, 42, 0
3, 127160, Note_on_c, 0, 54, 0
3, 127170, Note_on_c, 0, 59, 85
3, 127170, Note_on_c, 0, 30, 77
3, 127205, Note_on_c, 0, 30, 0
3, 127205, Note_on_c, 0, 59, 0
3, 127215, Note_on_c, 0, 54, 78
3, 127215, Note_on_c, 0, 42, 92
3, 127250, Note_on_c, 0, 42, 0
3, 127250, Note_on_c, 0, 54, 0
3, 127260, Note_on_c, 0, 59, 85
3, 127260, Note_on_c, 0, 30, 77
3, 127295, Note_on_c, 0, 30, 0
3, 127295, Note_on_c, 0, 59, 0
3, 127305, Note_on_c, 0, 54, 78
3, 127305, Note_on_c, 0, 42, 92
3, 127340, Note_on_c, 0, 42, 0
3, 127340, Note_on_c, 0, 54, 0
3, 127350, Note_on_c, 0, 59, 85
3, 127350, Note_on_c, 0, 30, 77
3, 127385, Note_on_c, 0, 30, 0
3, 127385, Note_on_c, 0, 59, 0
3, 127395, Note_on_c, 0, 54, 78
3, 127395, Note_on_c, 0, 42, 92
3, 127430, Note_on_c, 0, 42, 0
3, 127430, Note_on_c, 0, 54, 0
3, 127440, Note_on_c, 0, 59, 85
3, 127440, Note_on_c, 0, 30, 77
3, 127475, Note_on_c, 0, 30, 0
3, 127475, Note_on_c, 0, 59, 0
3, 127485, Note_on_c, 0, 54, 78
3, 127485, Note_on_c, 0, 42, 92
3, 127520, Note_on_c, 0, 42, 0
3, 127520, Note_on_c, 0, 54, 0
3, 127530, Note_on_c, 0, 59, 85
3, 127530, Note_on_c, 0, 30, 77
3, 127565, Note_on_c, 0, 30, 0
3, 127565, Note_on_c, 0, 59, 0
3, 127575, Note_on_c, 0, 54, 78
3, 127575, Note_on_c, 0, 42, 92
3, 127610, Note_on_c, 0, 42, 0
3, 127610, Note_on_c, 0, 54, 0
3, 127620, Note_on_c, 0, 59, 85
3, 127620, Note_on_c, 0, 30, 77
3, 127655, Note_on_c, 0, 30, 0
3, 127655, Note_on_c, 0, 59, 0
3, 127665, Note_on_c, 0, 54, 78
3, 127665, Note_on_c, 0, 42, 92
3, 127700, Note_on_c, 0, 42, 0
3, 127700, Note_on_c, 0, 54, 0
3, 127710, Note_on_c, 0, 59, 85
3, 127710, Note_on_c, 0, 30, 77
3, 127745, Note_on_c, 0, 30, 0
3, 127745, Note_on_c, 0, 59, 0
3, 127755, Note_on_c, 0, 54, 78
3, 127755, Note_on_c, 0, 42, 92
3, 127790, Note_on_c, 0, 42, 0
3, 127790, Note_on_c, 0, 54, 0
3, 127800, Note_on_c, 0, 59, 85
3, 127800, Note_on_c, 0, 30, 77
3, 127835, Note_on_c, 0, 30, 0
3, 127835, Note_on_c, 0, 59, 0
3, 127845, Note_on_c, 0, 54, 78
3, 127845, Note_on_c, 0, 42, 92
3, 127880, Note_on_c, 0, 42, 0
3, 127880, Note_on_c, 0, 54, 0
3, 127890, Note_on_c, 0, 59, 85
3, 127890, Note_on_c, 0, 30, 77
3, 127925, Note_on_c, 0, 30, 0
3, 127925, Note_on_c, 0, 59, 0
3, 127935, Note_on_c, 0, 54, 78
3, 127935, Note_on_c, 0, 42, 92
3, 127970, Note_on_c, 0, 42, 0
3, 127970, Note_on_c, 0, 54, 0
3, 127980, Note_on_c, 0, 59, 85
3, 127980, Note_on_c, 0, 30, 77
3, 128015, Note_on_c, 0, 30, 0
3, 128015, Note_on_c, 0, 59, 0
3, 128025, Note_on_c, 0, 54, 78
3, 128025, Note_on_c, 0, 42, 92
3, 128060, Note_on_c, 0, 42, 0
3, 128060, Note_on_c, 0, 54, 0
3, 128070, Note_on_c, 0, 59, 85
3, 128070, Note_on_c, 0, 30, 77
3, 128105, Note_on_c, 0, 30, 0
3, 128105, Note_on_c, 0, 59, 0
3, 128115, Note_on_c, 0, 54, 78
3, 128115, Note_on_c, 0, 42, 92
3, 128150, Note_on_c, 0, 42, 0
3, 128150, Note_on_c, 0, 54, 0
3, 128160, Note_on_c, 0, 59, 85
3, 128160, Note_on_c, 0, 58, 84
3, 128160, Note_on_c, 0, 30, 77
3, 128160, Note_on_c, 0, 31, 70
3, 128195, Note_on_c, 0, 31, 0
3, 128195, Note_on_c, 0, 59, 0
3, 128195, Note_on_c, 0, 58, 0
3, 128195, Note_on_c, 0, 30, 0
3, 128205, Note_on_c, 0, 50, 74
3, 128205, Note_on_c, 0, 43, 93
3, 128240, Note_on_c, 0, 43, 0
3, 128240, Note_on_c, 0, 50, 0
3, 128250, Note_on_c, 0, 58, 84
3, 128250, Note_on_c, 0, 31, 70
3, 128285, Note_on_c, 0, 31, 0
3, 128285, Note_on_c, 0, 58, 0
3, 128295, Note_on_c, 0, 50, 74
3, 128295, Note_on_c, 0, 43, 93
3, 128330, Note_on_c, 0, 43, 0
3, 128330, Note_on_c, 0, 50, 0
3, 128340, Note_on_c, 0, 58, 84
3, 128340, Note_on_c, 0, 31, 70
3, 128375, Note_on_c, 0, 31, 0
3, 128375, Note_on_c, 0, 58, 0
3, 128385, Note_on_c, 0, 50, 74
3, 128385, Note_on_c, 0, 43, 93
3, 128420, Note_on_c, 0, 43, 0
3, 128420, Note_on_c, 0, 50, 0
3, 128430, Note_on_c, 0, 58, 84
3, 128430, Note_on_c, 0, 31, 70
3, 128465, Note_on_c, 0, 31, 0
3, 128465, Note_on_c, 0, 58, 0
3, 128475, Note_on_c, 0, 50, 74
3, 128475, Note_on_c, 0, 43, 93
3, 128510, Note_on_c, 0, 43, 0
3, 128510, Note_on_c, 0, 50, 0
3, 128520, Note_on_c, 0, 58, 84
3, 128520, Note_on_c, 0, 31, 70
3, 128555, Note_on_c, 0, 31, 0
3, 128555, Note_on_c, 0, 58, 0
3, 128565, Note_on_c, 0, 50, 74
3, 128565, Note_on_c, 0, 43, 93
3, 128600, Note_on_c, 0, 43, 0
3, 128600, Note_on_c, 0, 50, 0
3, 128610, Note_on_c, 0, 58, 84
3, 128610, Note_on_c, 0, 31, 70
3, 128645, Note_on_c, 0, 31, 0
3, 128645, Note_on_c, 0, 58, 0
3, 128655, Note_on_c, 0, 50, 74
3, 128655, Note_on_c, 0, 43, 93
3, 128690, Note_on_c, 0, 43, 0
3, 128690, Note_on_c, 0, 50, 0
3, 128700, Note_on_c, 0, 58, 84
3, 128700, Note_on_c, 0, 31, 70
3, 128735, Note_on_c, 0, 31, 0
3, 128735, Note_on_c, 0, 58, 0
3, 128745, Note_on_c, 0, 50, 74
3, 128745, Note_on_c, 0, 43, 93
3, 128780, Note_on_c, 0, 43, 0
3, 128780, Note_on_c, 0, 50, 0
3, 128790, Note_on_c, 0, 58, 84
3, 128790, Note_on_c, 0, 31, 70
3, 128825, Note_on_c, 0, 31, 0
3, 128825, Note_on_c, 0, 58, 0
3, 128835, Note_on_c, 0, 50, 74
3, 128835, Note_on_c, 0, 43, 93
3, 128870, Note_on_c, 0, 43, 0
3, 128870, Note_on_c, 0, 50, 0
3, 128880, Note_on_c, 0, 58, 84
3, 128880, Note_on_c, 0, 31, 70
3, 128915, Note_on_c, 0, 31, 0
3, 128915, Note_on_c, 0, 58, 0
3, 128925, Note_on_c, 0, 50, 74
3, 128925, Note_on_c, 0, 43, 93
3, 128960, Note_on_c, 0, 43, 0
3, 128960, Note_on_c, 0, 50, 0
3, 128970, Note_on_c, 0, 58, 84
3, 128970, Note_on_c, 0, 31, 70
3, 129005, Note_on_c, 0, 31, 0
3, 129005, Note_on_c, 0, 58, 0
3, 129015, Note_on_c, 0, 50, 74
3, 129015, Note_on_c, 0, 43, 93
3, 129050, Note_on_c, 0, 43, 0
3, 129050, Note_on_c, 0, 50, 0
3, 129060, Note_on_c, 0, 58, 84
3, 129060, Note_on_c, 0, 31, 70
3, 129095, Note_on_c, 0, 31, 0
3, 129095, Note_on_c, 0, 58, 0
3, 129105, Note_on_c, 0, 50, 74
3, 129105, Note_on_c, 0, 43, 93
3, 129140, Note_on_c, 0, 43, 0
3, 129140, Note_on_c, 0, 50, 0
3, 129150, Note_on_c, 0, 58, 84
3, 129150, Note_on_c, 0, 31, 70
3, 129185, Note_on_c, 0, 31, 0
3, 129185, Note_on_c, 0, 58, 0
3, 129195, Note_on_c, 0, 50, 74
3, 129195, Note_on_c, 0, 43, 93
3, 129230, Note_on_c, 0, 43, 0
3, 129230, Note_on_c, 0, 50, 0
3, 129240, Note_on_c, 0, 56, 93
3, 129240, Note_on_c, 0, 32, 109
3, 129240, Note_on_c, 0, 44, 109
3, 129275, Note_on_c, 0, 56, 0
3, 129285, Note_on_c, 0, 59, 89
3, 129320, Note_on_c, 0, 59, 0
3, 129330, Note_on_c, 0, 56, 93
3, 129365, Note_on_c, 0, 56, 0
3, 129375, Note_on_c, 0, 59, 89
3, 129410, Note_on_c, 0, 59, 0
3, 129420, Note_on_c, 0, 44, 0
3, 129420, Note_on_c, 0, 32, 0
3, 129420, Note_on_c, 0, 56, 93
3, 129420, Note_on_c, 0, 35, 100
3, 129455, Note_on_c, 0, 56, 0
3, 129465, Note_on_c, 0, 59, 89
3, 129500, Note_on_c, 0, 59, 0
3, 129510, Note_on_c, 0, 56, 93
3, 129545, Note_on_c, 0, 56, 0
3, 129555, Note_on_c, 0, 59, 89
3, 129590, Note_on_c, 0, 59, 0
3, 129600, Note_on_c, 0, 35, 0
3, 129600, Note_on_c, 0, 56, 93
3, 129600, Note_on_c, 0, 39, 110
3, 129635, Note_on_c, 0, 56, 0
3, 129645, Note_on_c, 0, 59, 89
3, 129680, Note_on_c, 0, 59, 0
3, 129690, Note_on_c, 0, 56, 93
3, 129725, Note_on_c, 0, 56, 0
3, 129735, Note_on_c, 0, 59, 89
3, 129770, Note_on_c, 0, 59, 0
3, 129780, Note_on_c, 0, 39, 0
3, 129780, Note_on_c, 0, 56, 93
3, 129780, Note_on_c, 0, 44, 109
3, 129815, Note_on_c, 0, 56, 0
3, 129825, Note_on_c, 0, 59, 89
3, 129860, Note_on_c, 0, 59, 0
3, 129870, Note_on_c, 0, 56, 93
3, 129905, Note_on_c, 0, 56, 0
3, 129915, Note_on_c, 0, 59, 89
3, 129950, Note_on_c, 0, 59, 0
3, 129960, Note_on_c, 0, 56, 93
3, 129995, Note_on_c, 0, 56, 0
3, 130005, Note_on_c, 0, 59, 89
3, 130040, Note_on_c, 0, 59, 0
3, 130050, Note_on_c, 0, 56, 93
3, 130085, Note_on_c, 0, 56, 0
3, 130095, Note_on_c, 0, 59, 89
3, 130130, Note_on_c, 0, 59, 0
3, 130140, Note_on_c, 0, 56, 93
3, 130175, Note_on_c, 0, 56, 0
3, 130185, Note_on_c, 0, 59, 89
3, 130220, Note_on_c, 0, 59, 0
3, 130230, Note_on_c, 0, 56, 93
3, 130265, Note_on_c, 0, 56, 0
3, 130275, Note_on_c, 0, 59, 89
3, 130310, Note_on_c, 0, 59, 0
3, 130320, Note_on_c, 0, 44, 0
3, 130320, Note_on_c, 0, 56, 93
3, 130320, Note_on_c, 0, 56, 80
3, 130320, Note_on_c, 0, 32, 106
3, 130320, Note_on_c, 0, 44, 106
3, 130355, Note_on_c, 0, 56, 0
3, 130355, Note_on_c, 0, 56, 0
3, 130365, Note_on_c, 0, 59, 85
3, 130400, Note_on_c, 0, 59, 0
3, 130410, Note_on_c, 0, 56, 80
3, 130445, Note_on_c, 0, 56, 0
3, 130455, Note_on_c, 0, 59, 85
3, 130490, Note_on_c, 0, 59, 0
3, 130500, Note_on_c, 0, 32, 0
3, 130500, Note_on_c, 0, 44, 0
3, 130500, Note_on_c, 0, 56, 80
3, 130500, Note_on_c, 0, 39, 107
3, 130535, Note_on_c, 0, 56, 0
3, 130545, Note_on_c, 0, 59, 85
3, 130580, Note_on_c, 0, 59, 0
3, 130590, Note_on_c, 0, 56, 80
3, 130625, Note_on_c, 0, 56, 0
3, 130635, Note_on_c, 0, 59, 85
3, 130670, Note_on_c, 0, 59, 0
3, 130680, Note_on_c, 0, 39, 0
3, 130680, Note_on_c, 0, 56, 80
3, 130680, Note_on_c, 0, 35, 101
3, 130715, Note_on_c, 0, 56, 0
3, 130725, Note_on_c, 0, 59, 85
3, 130760, Note_on_c, 0, 59, 0
3, 130770, Note_on_c, 0, 56, 80
3, 130805, Note_on_c, 0, 56, 0
3, 130815, Note_on_c, 0, 59, 85
3, 130850, Note_on_c, 0, 59, 0
3, 130860, Note_on_c, 0, 35, 0
3, 130860, Note_on_c, 0, 56, 80
3, 130860, Note_on_c, 0, 32, 109
3, 130895, Note_on_c, 0, 56, 0
3, 130905, Note_on_c, 0, 59, 85
3, 130940, Note_on_c, 0, 59, 0
3, 130950, Note_on_c, 0, 56, 80
3, 130985, Note_on_c, 0, 56, 0
3, 130995, Note_on_c, 0, 59, 85
3, 131030, Note_on_c, 0, 59, 0
3, 131040, Note_on_c, 0, 56, 80
3, 131075, Note_on_c, 0, 56, 0
3, 131085, Note_on_c, 0, 59, 85
3, 131120, Note_on_c, 0, 59, 0
3, 131130, Note_on_c, 0, 56, 80
3, 131165, Note_on_c, 0, 56, 0
3, 131175, Note_on_c, 0, 59, 85
3, 131210, Note_on_c, 0, 59, 0
3, 131220, Note_on_c, 0, 56, 80
3, 131255, Note_on_c, 0, 56, 0
3, 131265, Note_on_c, 0, 59, 85
3, 131300, Note_on_c, 0, 59, 0
3, 131310, Note_on_c, 0, 56, 80
3, 131345, Note_on_c, 0, 56, 0
3, 131355, Note_on_c, 0, 59, 85
3, 131390, Note_on_c, 0, 59, 0
3, 131400, Note_on_c, 0, 32, 0
3, 131400, Note_on_c, 0, 54, 79
3, 131400, Note_on_c, 0, 33, 118
3, 131400, Note_on_c, 0, 45, 118
3, 131435, Note_on_c, 0, 54, 0
3, 131445, Note_on_c, 0, 59, 83
3, 131480, Note_on_c, 0, 59, 0
3, 131490, Note_on_c, 0, 54, 79
3, 131525, Note_on_c, 0, 54, 0
3, 131535, Note_on_c, 0, 59, 83
3, 131570, Note_on_c, 0, 59, 0
3, 131580, Note_on_c, 0, 45, 0
3, 131580, Note_on_c, 0, 33, 0
3, 131580, Note_on_c, 0, 54, 79
3, 131580, Note_on_c, 0, 39, 104
3, 131615, Note_on_c, 0, 54, 0
3, 131625, Note_on_c, 0, 59, 83
3, 131660, Note_on_c, 0, 59, 0
3, 131670, Note_on_c, 0, 54, 79
3, 131705, Note_on_c, 0, 54, 0
3, 131715, Note_on_c, 0, 59, 83
3, 131750, Note_on_c, 0, 59, 0
3, 131760, Note_on_c, 0, 39, 0
3, 131760, Note_on_c, 0, 54, 79
3, 131760, Note_on_c, 0, 42, 110
3, 131795, Note_on_c, 0, 54, 0
3, 131805, Note_on_c, 0, 59, 83
3, 131840, Note_on_c, 0, 59, 0
3, 131850, Note_on_c, 0, 54, 79
3, 131885, Note_on_c, 0, 54, 0
3, 131895, Note_on_c, 0, 59, 83
3, 131930, Note_on_c, 0, 59, 0
3, 131940, Note_on_c, 0, 42, 0
3, 131940, Note_on_c, 0, 54, 79
3, 131940, Note_on_c, 0, 45, 113
3, 131975, Note_on_c, 0, 54, 0
3, 131985, Note_on_c, 0, 59, 83
3, 132020, Note_on_c, 0, 59, 0
3, 132030, Note_on_c, 0, 54, 79
3, 132065, Note_on_c, 0, 54, 0
3, 132075, Note_on_c, 0, 59, 83
3, 132110, Note_on_c, 0, 59, 0
3, 132120, Note_on_c, 0, 54, 79
3, 132155, Note_on_c, 0, 54, 0
3, 132165, Note_on_c, 0, 59, 83
3, 132200, Note_on_c, 0, 59, 0
3, 132210, Note_on_c, 0, 54, 79
3, 132245, Note_on_c, 0, 54, 0
3, 132255, Note_on_c, 0, 59, 83
3, 132290, Note_on_c, 0, 59, 0
3, 132300, Note_on_c, 0, 54, 79
3, 132335, Note_on_c, 0, 54, 0
3, 132345, Note_on_c, 0, 59, 83
3, 132380, Note_on_c, 0, 59, 0
3, 132390, Note_on_c, 0, 54, 79
3, 132425, Note_on_c, 0, 54, 0
3, 132435, Note_on_c, 0, 59, 83
3, 132470, Note_on_c, 0, 59, 0
3, 132480, Note_on_c, 0, 45, 0
3, 132480, Note_on_c, 0, 54, 79
3, 132480, Note_on_c, 0, 54, 78
3, 132480, Note_on_c, 0, 33, 113
3, 132480, Note_on_c, 0, 45, 113
3, 132515, Note_on_c, 0, 54, 0
3, 132515, Note_on_c, 0, 54, 0
3, 132525, Note_on_c, 0, 59, 86
3, 132560, Note_on_c, 0, 59, 0
3, 132570, Note_on_c, 0, 54, 78
3, 132605, Note_on_c, 0, 54, 0
3, 132615, Note_on_c, 0, 59, 86
3, 132650, Note_on_c, 0, 59, 0
3, 132660, Note_on_c, 0, 33, 0
3, 132660, Note_on_c, 0, 45, 0
3, 132660, Note_on_c, 0, 54, 78
3, 132660, Note_on_c, 0, 42, 103
3, 132695, Note_on_c, 0, 54, 0
3, 132705, Note_on_c, 0, 59, 86
3, 132740, Note_on_c, 0, 59, 0
3, 132750, Note_on_c, 0, 54, 78
3, 132785, Note_on_c, 0, 54, 0
3, 132795, Note_on_c, 0, 59, 86
3, 132830, Note_on_c, 0, 59, 0
3, 132840, Note_on_c, 0, 42, 0
3, 132840, Note_on_c, 0, 54, 78
3, 132840, Note_on_c, 0, 39, 104
3, 132875, Note_on_c, 0, 54, 0
3, 132885, Note_on_c, 0, 59, 86
3, 132920, Note_on_c, 0, 59, 0
3, 132930, Note_on_c, 0, 54, 78
3, 132965, Note_on_c, 0, 54, 0
3, 132975, Note_on_c, 0, 59, 86
3, 133010, Note_on_c, 0, 59, 0
3, 133020, Note_on_c, 0, 39, 0
3, 133020, Note_on_c, 0, 54, 78
3, 133020, Note_on_c, 0, 33, 105
3, 133055, Note_on_c, 0, 54, 0
3, 133065, Note_on_c, 0, 59, 86
3, 133100, Note_on_c, 0, 59, 0
3, 133110, Note_on_c, 0, 54, 78
3, 133145, Note_on_c, 0, 54, 0
3, 133155, Note_on_c, 0, 59, 86
3, 133190, Note_on_c, 0, 59, 0
3, 133200, Note_on_c, 0, 54, 78
3, 133235, Note_on_c, 0, 54, 0
3, 133245, Note_on_c, 0, 59, 86
3, 133280, Note_on_c, 0, 59, 0
3, 133290, Note_on_c, 0, 54, 78
3, 133325, Note_on_c, 0, 54, 0
3, 133335, Note_on_c, 0, 59, 86
3, 133370, Note_on_c, 0, 59, 0
3, 133380, Note_on_c, 0, 54, 78
3, 133415, Note_on_c, 0, 54, 0
3, 133425, Note_on_c, 0, 59, 86
3, 133460, Note_on_c, 0, 59, 0
3, 133470, Note_on_c, 0, 54, 78
3, 133505, Note_on_c, 0, 54, 0
3, 133515, Note_on_c, 0, 59, 86
3, 133550, Note_on_c, 0, 59, 0
3, 133560, Note_on_c, 0, 33, 0
3, 133560, Note_on_c, 0, 55, 84
3, 133560, Note_on_c, 0, 58, 84
3, 133560, Note_on_c, 0, 34, 86
3, 133595, Note_on_c, 0, 34, 0
3, 133595, Note_on_c, 0, 58, 0
3, 133595, Note_on_c, 0, 55, 0
3, 133605, Note_on_c, 0, 63, 94
3, 133605, Note_on_c, 0, 46, 92
3, 133640, Note_on_c, 0, 46, 0
3, 133640, Note_on_c, 0, 63, 0
3, 133650, Note_on_c, 0, 55, 84
3, 133650, Note_on_c, 0, 58, 84
3, 133650, Note_on_c, 0, 34, 86
3, 133685, Note_on_c, 0, 34, 0
3, 133685, Note_on_c, 0, 58, 0
3, 133685, Note_on_c, 0, 55, 0
3, 133695, Note_on_c, 0, 63, 94
3, 133695, Note_on_c, 0, 46, 92
3, 133730, Note_on_c, 0, 46, 0
3, 133730, Note_on_c, 0, 63, 0
3, 133740, Note_on_c, 0, 55, 84
3, 133740, Note_on_c, 0, 58, 84
3, 133740, Note_on_c, 0, 34, 86
3, 133775, Note_on_c, 0, 34, 0
3, 133775, Note_on_c, 0, 58, 0
3, 133775, Note_on_c, 0, 55, 0
3, 133785, Note_on_c, 0, 63, 94
3, 133785, Note_on_c, 0, 46, 92
3, 133820, Note_on_c, 0, 46, 0
3, 133820, Note_on_c, 0, 63, 0
3, 133830, Note_on_c, 0, 55, 84
3, 133830, Note_on_c, 0, 58, 84
3, 133830, Note_on_c, 0, 34, 86
3, 133865, Note_on_c, 0, 34, 0
3, 133865, Note_on_c, 0, 58, 0
3, 133865, Note_on_c, 0, 55, 0
3, 133875, Note_on_c, 0, 63, 94
3, 133875, Note_on_c, 0, 46, 92
3, 133910, Note_on_c, 0, 46, 0
3, 133910, Note_on_c, 0, 63, 0
3, 133920, Note_on_c, 0, 55, 84
3, 133920, Note_on_c, 0, 58, 84
3, 133920, Note_on_c, 0, 34, 86
3, 133955, Note_on_c, 0, 34, 0
3, 133955, Note_on_c, 0, 58, 0
3, 133955, Note_on_c, 0, 55, 0
3, 133965, Note_on_c, 0, 63, 94
3, 133965, Note_on_c, 0, 46, 92
3, 134000, Note_on_c, 0, 46, 0
3, 134000, Note_on_c, 0, 63, 0
3, 134010, Note_on_c, 0, 55, 84
3, 134010, Note_on_c, 0, 58, 84
3, 134010, Note_on_c, 0, 34, 86
3, 134045, Note_on_c, 0, 34, 0
3, 134045, Note_on_c, 0, 58, 0
3, 134045, Note_on_c, 0, 55, 0
3, 134055, Note_on_c, 0, 63, 94
3, 134055, Note_on_c, 0, 46, 92
3, 134090, Note_on_c, 0, 46, 0
3, 134090, Note_on_c, 0, 63, 0
3, 134100, Note_on_c, 0, 55, 84
3, 134100, Note_on_c, 0, 58, 84
3, 134100, Note_on_c, 0, 34, 86
3, 134135, Note_on_c, 0, 34, 0
3, 134135, Note_on_c, 0, 58, 0
3, 134135, Note_on_c, 0, 55, 0
3, 134145, Note_on_c, 0, 63, 94
3, 134145, Note_on_c, 0, 46, 92
3, 134180, Note_on_c, 0, 46, 0
3, 134180, Note_on_c, 0, 63, 0
3, 134190, Note_on_c, 0, 55, 84
3, 134190, Note_on_c, 0, 58, 84
3, 134190, Note_on_c, 0, 34, 86
3, 134225, Note_on_c, 0, 34, 0
3, 134225, Note_on_c, 0, 58, 0
3, 134225, Note_on_c, 0, 55, 0
3, 134235, Note_on_c, 0, 63, 94
3, 134235, Note_on_c, 0, 46, 92
3, 134270, Note_on_c, 0, 46, 0
3, 134270, Note_on_c, 0, 63, 0
3, 134280, Note_on_c, 0, 55, 84
3, 134280, Note_on_c, 0, 58, 84
3, 134280, Note_on_c, 0, 34, 86
3, 134315, Note_on_c, 0, 34, 0
3, 134315, Note_on_c, 0, 58, 0
3, 134315, Note_on_c, 0, 55, 0
3, 134325, Note_on_c, 0, 63, 94
3, 134325, Note_on_c, 0, 46, 92
3, 134360, Note_on_c, 0, 46, 0
3, 134360, Note_on_c, 0, 63, 0
3, 134370, Note_on_c, 0, 55, 84
3, 134370, Note_on_c, 0, 58, 84
3, 134370, Note_on_c, 0, 34, 86
3, 134405, Note_on_c, 0, 34, 0
3, 134405, Note_on_c, 0, 58, 0
3, 134405, Note_on_c, 0, 55, 0
3, 134415, Note_on_c, 0, 63, 94
3, 134415, Note_on_c, 0, 46, 92
3, 134450, Note_on_c, 0, 46, 0
3, 134450, Note_on_c, 0, 63, 0
3, 134460, Note_on_c, 0, 55, 84
3, 134460, Note_on_c, 0, 58, 84
3, 134460, Note_on_c, 0, 34, 86
3, 134495, Note_on_c, 0, 34, 0
3, 134495, Note_on_c, 0, 58, 0
3, 134495, Note_on_c, 0, 55, 0
3, 134505, Note_on_c, 0, 63, 94
3, 134505, Note_on_c, 0, 46, 92
3, 134540, Note_on_c, 0, 46, 0
3, 134540, Note_on_c, 0, 63, 0
3, 134550, Note_on_c, 0, 55, 84
3, 134550, Note_on_c, 0, 58, 84
3, 134550, Note_on_c, 0, 34, 86
3, 134585, Note_on_c, 0, 34, 0
3, 134585, Note_on_c, 0, 58, 0
3, 134585, Note_on_c, 0, 55, 0
3, 134595, Note_on_c, 0, 63, 94
3, 134595, Note_on_c, 0, 46, 92
3, 134630, Note_on_c, 0, 46, 0
3, 134630, Note_on_c, 0, 63, 0
3, 134640, Note_on_c, 0, 55, 84
3, 134640, Note_on_c, 0, 58, 84
3, 134640, Note_on_c, 0, 55, 75
3, 134640, Note_on_c, 0, 34, 86
3, 134640, Note_on_c, 0, 34, 74
3, 134675, Note_on_c, 0, 34, 0
3, 134675, Note_on_c, 0, 55, 0
3, 134675, Note_on_c, 0, 55, 0
3, 134675, Note_on_c, 0, 58, 0
3, 134675, Note_on_c, 0, 34, 0
3, 134685, Note_on_c, 0, 58, 85
3, 134685, Note_on_c, 0, 46, 91
3, 134720, Note_on_c, 0, 46, 0
3, 134720, Note_on_c, 0, 58, 0
3, 134730, Note_on_c, 0, 55, 75
3, 134730, Note_on_c, 0, 34, 74
3, 134765, Note_on_c, 0, 34, 0
3, 134765, Note_on_c, 0, 55, 0
3, 134775, Note_on_c, 0, 58, 85
3, 134775, Note_on_c, 0, 46, 91
3, 134810, Note_on_c, 0, 46, 0
3, 134810, Note_on_c, 0, 58, 0
3, 134820, Note_on_c, 0, 55, 75
3, 134820, Note_on_c, 0, 34, 74
3, 134855, Note_on_c, 0, 34, 0
3, 134855, Note_on_c, 0, 55, 0
3, 134865, Note_on_c, 0, 58, 85
3, 134865, Note_on_c, 0, 46, 91
3, 134900, Note_on_c, 0, 46, 0
3, 134900, Note_on_c, 0, 58, 0
3, 134910, Note_on_c, 0, 55, 75
3, 134910, Note_on_c, 0, 34, 74
3, 134945, Note_on_c, 0, 34, 0
3, 134945, Note_on_c, 0, 55, 0
3, 134955, Note_on_c, 0, 58, 85
3, 134955, Note_on_c, 0, 46, 91
3, 134990, Note_on_c, 0, 46, 0
3, 134990, Note_on_c, 0, 58, 0
3, 135000, Note_on_c, 0, 55, 75
3, 135000, Note_on_c, 0, 34, 74
3, 135035, Note_on_c, 0, 34, 0
3, 135035, Note_on_c, 0, 55, 0
3, 135045, Note_on_c, 0, 58, 85
3, 135045, Note_on_c, 0, 46, 91
3, 135080, Note_on_c, 0, 46, 0
3, 135080, Note_on_c, 0, 58, 0
3, 135090, Note_on_c, 0, 55, 75
3, 135090, Note_on_c, 0, 34, 74
3, 135125, Note_on_c, 0, 34, 0
3, 135125, Note_on_c, 0, 55, 0
3, 135135, Note_on_c, 0, 58, 85
3, 135135, Note_on_c, 0, 46, 91
3, 135170, Note_on_c, 0, 46, 0
3, 135170, Note_on_c, 0, 58, 0
3, 135180, Note_on_c, 0, 55, 75
3, 135180, Note_on_c, 0, 34, 74
3, 135215, Note_on_c, 0, 34, 0
3, 135215, Note_on_c, 0, 55, 0
3, 135225, Note_on_c, 0, 58, 85
3, 135225, Note_on_c, 0, 46, 91
3, 135260, Note_on_c, 0, 46, 0
3, 135260, Note_on_c, 0, 58, 0
3, 135270, Note_on_c, 0, 55, 75
3, 135270, Note_on_c, 0, 34, 74
3, 135305, Note_on_c, 0, 34, 0
3, 135305, Note_on_c, 0, 55, 0
3, 135315, Note_on_c, 0, 58, 85
3, 135315, Note_on_c, 0, 46, 91
3, 135350, Note_on_c, 0, 46, 0
3, 135350, Note_on_c, 0, 58, 0
3, 135360, Note_on_c, 0, 55, 75
3, 135360, Note_on_c, 0, 34, 74
3, 135395, Note_on_c, 0, 34, 0
3, 135395, Note_on_c, 0, 55, 0
3, 135405, Note_on_c, 0, 58, 85
3, 135405, Note_on_c, 0, 46, 91
3, 135440, Note_on_c, 0, 46, 0
3, 135440, Note_on_c, 0, 58, 0
3, 135450, Note_on_c, 0, 55, 75
3, 135450, Note_on_c, 0, 34, 74
3, 135485, Note_on_c, 0, 34, 0
3, 135485, Note_on_c, 0, 55, 0
3, 135495, Note_on_c, 0, 58, 85
3, 135495, Note_on_c, 0, 46, 91
3, 135530, Note_on_c, 0, 46, 0
3, 135530, Note_on_c, 0, 58, 0
3, 135540, Note_on_c, 0, 55, 75
3, 135540, Note_on_c, 0, 34, 74
3, 135575, Note_on_c, 0, 34, 0
3, 135575, Note_on_c, 0, 55, 0
3, 135585, Note_on_c, 0, 58, 85
3, 135585, Note_on_c, 0, 46, 91
3, 135620, Note_on_c, 0, 46, 0
3, 135620, Note_on_c, 0, 58, 0
3, 135630, Note_on_c, 0, 55, 75
3, 135630, Note_on_c, 0, 34, 74
3, 135665, Note_on_c, 0, 34, 0
3, 135665, Note_on_c, 0, 55, 0
3, 135675, Note_on_c, 0, 58, 85
3, 135675, Note_on_c, 0, 46, 91
3, 135710, Note_on_c, 0, 46, 0
3, 135710, Note_on_c, 0, 58, 0
3, 135720, Note_on_c, 0, 58, 92
3, 135720, Note_on_c, 0, 63, 92
3, 135720, Note_on_c, 0, 34, 74
3, 135755, Note_on_c, 0, 34, 0
3, 135755, Note_on_c, 0, 63, 0
3, 135755, Note_on_c, 0, 58, 0
3, 135765, Note_on_c, 0, 67, 93
3, 135765, Note_on_c, 0, 46, 91
3, 135800, Note_on_c, 0, 46, 0
3, 135800, Note_on_c, 0, 67, 0
3, 135810, Note_on_c, 0, 58, 92
3, 135810, Note_on_c, 0, 63, 92
3, 135810, Note_on_c, 0, 34, 74
3, 135845, Note_on_c, 0, 34, 0
3, 135845, Note_on_c, 0, 63, 0
3, 135845, Note_on_c, 0, 58, 0
3, 135855, Note_on_c, 0, 67, 93
3, 135855, Note_on_c, 0, 46, 91
3, 135890, Note_on_c, 0, 46, 0
3, 135890, Note_on_c, 0, 67, 0
3, 135900, Note_on_c, 0, 58, 92
3, 135900, Note_on_c, 0, 63, 92
3, 135900, Note_on_c, 0, 34, 74
3, 135935, Note_on_c, 0, 34, 0
3, 135935, Note_on_c, 0, 63, 0
3, 135935, Note_on_c, 0, 58, 0
3, 135945, Note_on_c, 0, 67, 93
3, 135945, Note_on_c, 0, 46, 91
3, 135980, Note_on_c, 0, 46, 0
3, 135980, Note_on_c, 0, 67, 0
3, 135990, Note_on_c, 0, 58, 92
3, 135990, Note_on_c, 0, 63, 92
3, 135990, Note_on_c, 0, 34, 74
3, 136025, Note_on_c, 0, 34, 0
3, 136025, Note_on_c, 0, 63, 0
3, 136025, Note_on_c, 0, 58, 0
3, 136035, Note_on_c, 0, 67, 93
3, 136035, Note_on_c, 0, 46, 91
3, 136070, Note_on_c, 0, 46, 0
3, 136070, Note_on_c, 0, 67, 0
3, 136080, Note_on_c, 0, 58, 92
3, 136080, Note_on_c, 0, 63, 92
3, 136080, Note_on_c, 0, 34, 74
3, 136115, Note_on_c, 0, 34, 0
3, 136115, Note_on_c, 0, 63, 0
3, 136115, Note_on_c, 0, 58, 0
3, 136125, Note_on_c, 0, 67, 93
3, 136125, Note_on_c, 0, 46, 91
3, 136160, Note_on_c, 0, 46, 0
3, 136160, Note_on_c, 0, 67, 0
3, 136170, Note_on_c, 0, 58, 92
3, 136170, Note_on_c, 0, 63, 92
3, 136170, Note_on_c, 0, 34, 74
3, 136205, Note_on_c, 0, 34, 0
3, 136205, Note_on_c, 0, 63, 0
3, 136205, Note_on_c, 0, 58, 0
3, 136215, Note_on_c, 0, 67, 93
3, 136215, Note_on_c, 0, 46, 91
3, 136250, Note_on_c, 0, 46, 0
3, 136250, Note_on_c, 0, 67, 0
3, 136260, Note_on_c, 0, 58, 92
3, 136260, Note_on_c, 0, 63, 92
3, 136260, Note_on_c, 0, 34, 74
3, 136295, Note_on_c, 0, 34, 0
3, 136295, Note_on_c, 0, 63, 0
3, 136295, Note_on_c, 0, 58, 0
3, 136305, Note_on_c, 0, 67, 93
3, 136305, Note_on_c, 0, 46, 91
3, 136340, Note_on_c, 0, 46, 0
3, 136340, Note_on_c, 0, 67, 0
3, 136350, Note_on_c, 0, 58, 92
3, 136350, Note_on_c, 0, 63, 92
3, 136350, Note_on_c, 0, 34, 74
3, 136385, Note_on_c, 0, 34, 0
3, 136385, Note_on_c, 0, 63, 0
3, 136385, Note_on_c, 0, 58, 0
3, 136395, Note_on_c, 0, 67, 93
3, 136395, Note_on_c, 0, 46, 91
3, 136430, Note_on_c, 0, 46, 0
3, 136430, Note_on_c, 0, 67, 0
3, 136440, Note_on_c, 0, 58, 92
3, 136440, Note_on_c, 0, 63, 92
3, 136440, Note_on_c, 0, 34, 74
3, 136475, Note_on_c, 0, 34, 0
3, 136475, Note_on_c, 0, 63, 0
3, 136475, Note_on_c, 0, 58, 0
3, 136485, Note_on_c, 0, 67, 93
3, 136485, Note_on_c, 0, 46, 91
3, 136520, Note_on_c, 0, 46, 0
3, 136520, Note_on_c, 0, 67, 0
3, 136530, Note_on_c, 0, 58, 92
3, 136530, Note_on_c, 0, 63, 92
3, 136530, Note_on_c, 0, 34, 74
3, 136565, Note_on_c, 0, 34, 0
3, 136565, Note_on_c, 0, 63, 0
3, 136565, Note_on_c, 0, 58, 0
3, 136575, Note_on_c, 0, 67, 93
3, 136575, Note_on_c, 0, 46, 91
3, 136610, Note_on_c, 0, 46, 0
3, 136610, Note_on_c, 0, 67, 0
3, 136620, Note_on_c, 0, 58, 92
3, 136620, Note_on_c, 0, 63, 92
3, 136620, Note_on_c, 0, 34, 74
3, 136655, Note_on_c, 0, 34, 0
3, 136655, Note_on_c, 0, 63, 0
3, 136655, Note_on_c, 0, 58, 0
3, 136665, Note_on_c, 0, 67, 93
3, 136665, Note_on_c, 0, 46, 91
3, 136700, Note_on_c, 0, 46, 0
3, 136700, Note_on_c, 0, 67, 0
3, 136710, Note_on_c, 0, 58, 92
3, 136710, Note_on_c, 0, 63, 92
3, 136710, Note_on_c, 0, 34, 74
3, 136745, Note_on_c, 0, 34, 0
3, 136745, Note_on_c, 0, 63, 0
3, 136745, Note_on_c, 0, 58, 0
3, 136755, Note_on_c, 0, 67, 93
3, 136755, Note_on_c, 0, 46, 91
3, 136790, Note_on_c, 0, 46, 0
3, 136790, Note_on_c, 0, 67, 0
3, 136800, Note_on_c, 0, 58, 92
3, 136800, Note_on_c, 0, 63, 92
3, 136800, Note_on_c, 0, 55, 77
3, 136800, Note_on_c, 0, 58, 77
3, 136800, Note_on_c, 0, 34, 74
3, 136800, Note_on_c, 0, 34, 73
3, 136835, Note_on_c, 0, 34, 0
3, 136835, Note_on_c, 0, 63, 0
3, 136835, Note_on_c, 0, 55, 0
3, 136835, Note_on_c, 0, 58, 0
3, 136835, Note_on_c, 0, 34, 0
3, 136835, Note_on_c, 0, 58, 0
3, 136845, Note_on_c, 0, 63, 92
3, 136845, Note_on_c, 0, 46, 92
3, 136880, Note_on_c, 0, 46, 0
3, 136880, Note_on_c, 0, 63, 0
3, 136890, Note_on_c, 0, 55, 77
3, 136890, Note_on_c, 0, 58, 77
3, 136890, Note_on_c, 0, 34, 73
3, 136925, Note_on_c, 0, 34, 0
3, 136925, Note_on_c, 0, 58, 0
3, 136925, Note_on_c, 0, 55, 0
3, 136935, Note_on_c, 0, 63, 92
3, 136935, Note_on_c, 0, 46, 92
3, 136970, Note_on_c, 0, 46, 0
3, 136970, Note_on_c, 0, 63, 0
3, 136980, Note_on_c, 0, 55, 77
3, 136980, Note_on_c, 0, 58, 77
3, 136980, Note_on_c, 0, 34, 73
3, 137015, Note_on_c, 0, 34, 0
3, 137015, Note_on_c, 0, 58, 0
3, 137015, Note_on_c, 0, 55, 0
3, 137025, Note_on_c, 0, 63, 92
3, 137025, Note_on_c, 0, 46, 92
3, 137060, Note_on_c, 0, 46, 0
3, 137060, Note_on_c, 0, 63, 0
3, 137070, Note_on_c, 0, 55, 77
3, 137070, Note_on_c, 0, 58, 77
3, 137070, Note_on_c, 0, 34, 73
3, 137105, Note_on_c, 0, 34, 0
3, 137105, Note_on_c, 0, 58, 0
3, 137105, Note_on_c, 0, 55, 0
3, 137115, Note_on_c, 0, 63, 92
3, 137115, Note_on_c, 0, 46, 92
3, 137150, Note_on_c, 0, 46, 0
3, 137150, Note_on_c, 0, 63, 0
3, 137160, Note_on_c, 0, 55, 77
3, 137160, Note_on_c, 0, 58, 77
3, 137160, Note_on_c, 0, 34, 73
3, 137195, Note_on_c, 0, 34, 0
3, 137195, Note_on_c, 0, 58, 0
3, 137195, Note_on_c, 0, 55, 0
3, 137205, Note_on_c, 0, 63, 92
3, 137205, Note_on_c, 0, 46, 92
3, 137240, Note_on_c, 0, 46, 0
3, 137240, Note_on_c, 0, 63, 0
3, 137250, Note_on_c, 0, 55, 77
3, 137250, Note_on_c, 0, 58, 77
3, 137250, Note_on_c, 0, 34, 73
3, 137285, Note_on_c, 0, 34, 0
3, 137285, Note_on_c, 0, 58, 0
3, 137285, Note_on_c, 0, 55, 0
3, 137295, Note_on_c, 0, 63, 92
3, 137295, Note_on_c, 0, 46, 92
3, 137330, Note_on_c, 0, 46, 0
3, 137330, Note_on_c, 0, 63, 0
3, 137340, Note_on_c, 0, 55, 77
3, 137340, Note_on_c, 0, 58, 77
3, 137340, Note_on_c, 0, 34, 73
3, 137375, Note_on_c, 0, 34, 0
3, 137375, Note_on_c, 0, 58, 0
3, 137375, Note_on_c, 0, 55, 0
3, 137385, Note_on_c, 0, 63, 92
3, 137385, Note_on_c, 0, 46, 92
3, 137420, Note_on_c, 0, 46, 0
3, 137420, Note_on_c, 0, 63, 0
3, 137430, Note_on_c, 0, 55, 77
3, 137430, Note_on_c, 0, 58, 77
3, 137430, Note_on_c, 0, 34, 73
3, 137465, Note_on_c, 0, 34, 0
3, 137465, Note_on_c, 0, 58, 0
3, 137465, Note_on_c, 0, 55, 0
3, 137475, Note_on_c, 0, 63, 92
3, 137475, Note_on_c, 0, 46, 92
3, 137510, Note_on_c, 0, 46, 0
3, 137510, Note_on_c, 0, 63, 0
3, 137520, Note_on_c, 0, 55, 77
3, 137520, Note_on_c, 0, 58, 77
3, 137520, Note_on_c, 0, 34, 73
3, 137555, Note_on_c, 0, 34, 0
3, 137555, Note_on_c, 0, 58, 0
3, 137555, Note_on_c, 0, 55, 0
3, 137565, Note_on_c, 0, 63, 92
3, 137565, Note_on_c, 0, 46, 92
3, 137600, Note_on_c, 0, 46, 0
3, 137600, Note_on_c, 0, 63, 0
3, 137610, Note_on_c, 0, 55, 77
3, 137610, Note_on_c, 0, 58, 77
3, 137610, Note_on_c, 0, 34, 73
3, 137645, Note_on_c, 0, 34, 0
3, 137645, Note_on_c, 0, 58, 0
3, 137645, Note_on_c, 0, 55, 0
3, 137655, Note_on_c, 0, 63, 92
3, 137655, Note_on_c, 0, 46, 92
3, 137690, Note_on_c, 0, 46, 0
3, 137690, Note_on_c, 0, 63, 0
3, 137700, Note_on_c, 0, 55, 77
3, 137700, Note_on_c, 0, 58, 77
3, 137700, Note_on_c, 0, 34, 73
3, 137735, Note_on_c, 0, 34, 0
3, 137735, Note_on_c, 0, 58, 0
3, 137735, Note_on_c, 0, 55, 0
3, 137745, Note_on_c, 0, 63, 92
3, 137745, Note_on_c, 0, 46, 92
3, 137780, Note_on_c, 0, 46, 0
3, 137780, Note_on_c, 0, 63, 0
3, 137790, Note_on_c, 0, 55, 77
3, 137790, Note_on_c, 0, 58, 77
3, 137790, Note_on_c, 0, 34, 73
3, 137825, Note_on_c, 0, 34, 0
3, 137825, Note_on_c, 0, 58, 0
3, 137825, Note_on_c, 0, 55, 0
3, 137835, Note_on_c, 0, 63, 92
3, 137835, Note_on_c, 0, 46, 92
3, 137870, Note_on_c, 0, 46, 0
3, 137870, Note_on_c, 0, 63, 0
3, 137880, Note_on_c, 0, 58, 118
3, 137880, Note_on_c, 0, 70, 118
3, 137880, Note_on_c, 0, 34, 75
3, 137915, Note_on_c, 0, 34, 0
3, 137925, Note_on_c, 0, 46, 91
3, 137960, Note_on_c, 0, 46, 0
3, 137970, Note_on_c, 0, 34, 75
3, 138005, Note_on_c, 0, 34, 0
3, 138015, Note_on_c, 0, 46, 91
3, 138050, Note_on_c, 0, 46, 0
3, 138060, Note_on_c, 0, 34, 75
3, 138095, Note_on_c, 0, 34, 0
3, 138105, Note_on_c, 0, 46, 91
3, 138140, Note_on_c, 0, 46, 0
3, 138150, Note_on_c, 0, 34, 75
3, 138185, Note_on_c, 0, 34, 0
3, 138195, Note_on_c, 0, 46, 91
3, 138230, Note_on_c, 0, 46, 0
3, 138240, Note_on_c, 0, 34, 75
3, 138275, Note_on_c, 0, 34, 0
3, 138285, Note_on_c, 0, 46, 91
3, 138320, Note_on_c, 0, 46, 0
3, 138330, Note_on_c, 0, 34, 75
3, 138365, Note_on_c, 0, 34, 0
3, 138375, Note_on_c, 0, 46, 91
3, 138410, Note_on_c, 0, 46, 0
3, 138420, Note_on_c, 0, 70, 0
3, 138420, Note_on_c, 0, 58, 0
3, 138420, Note_on_c, 0, 57, 104
3, 138420, Note_on_c, 0, 60, 104
3, 138420, Note_on_c, 0, 63, 104
3, 138420, Note_on_c, 0, 69, 104
3, 138420, Note_on_c, 0, 34, 75
3, 138455, Note_on_c, 0, 34, 0
3, 138465, Note_on_c, 0, 46, 91
3, 138500, Note_on_c, 0, 46, 0
3, 138510, Note_on_c, 0, 34, 75
3, 138545, Note_on_c, 0, 34, 0
3, 138555, Note_on_c, 0, 46, 91
3, 138590, Note_on_c, 0, 46, 0
3, 138600, Note_on_c, 0, 34, 75
3, 138635, Note_on_c, 0, 34, 0
3, 138645, Note_on_c, 0, 46, 91
3, 138680, Note_on_c, 0, 46, 0
3, 138690, Note_on_c, 0, 34, 75
3, 138725, Note_on_c, 0, 34, 0
3, 138735, Note_on_c, 0, 46, 91
3, 138770, Note_on_c, 0, 46, 0
3, 138780, Note_on_c, 0, 34, 75
3, 138815, Note_on_c, 0, 34, 0
3, 138825, Note_on_c, 0, 46, 91
3, 138860, Note_on_c, 0, 46, 0
3, 138870, Note_on_c, 0, 34, 75
3, 138905, Note_on_c, 0, 34, 0
3, 138915, Note_on_c, 0, 46, 91
3, 138950, Note_on_c, 0, 46, 0
3, 138960, Note_on_c, 0, 69, 0
3, 138960, Note_on_c, 0, 57, 0
3, 138960, Note_on_c, 0, 60, 0
3, 138960, Note_on_c, 0, 63, 0
3, 138960, Note_on_c, 0, 56, 107
3, 138960, Note_on_c, 0, 62, 107
3, 138960, Note_on_c, 0, 68, 107
3, 138960, Note_on_c, 0, 34, 75
3, 138960, Note_on_c, 0, 34, 78
3, 138995, Note_on_c, 0, 34, 0
3, 138995, Note_on_c, 0, 34, 0
3, 139005, Note_on_c, 0, 46, 93
3, 139040, Note_on_c, 0, 46, 0
3, 139050, Note_on_c, 0, 34, 78
3, 139085, Note_on_c, 0, 34, 0
3, 139095, Note_on_c, 0, 46, 93
3, 139130, Note_on_c, 0, 46, 0
3, 139140, Note_on_c, 0, 34, 78
3, 139175, Note_on_c, 0, 34, 0
3, 139185, Note_on_c, 0, 46, 93
3, 139220, Note_on_c, 0, 46, 0
3, 139230, Note_on_c, 0, 34, 78
3, 139265, Note_on_c, 0, 34, 0
3, 139275, Note_on_c, 0, 46, 93
3, 139310, Note_on_c, 0, 46, 0
3, 139320, Note_on_c, 0, 34, 78
3, 139355, Note_on_c, 0, 34, 0
3, 139365, Note_on_c, 0, 46, 93
3, 139400, Note_on_c, 0, 46, 0
3, 139410, Note_on_c, 0, 34, 78
3, 139445, Note_on_c, 0, 34, 0
3, 139455, Note_on_c, 0, 46, 93
3, 139490, Note_on_c, 0, 46, 0
3, 139500, Note_on_c, 0, 68, 0
3, 139500, Note_on_c, 0, 62, 0
3, 139500, Note_on_c, 0, 56, 0
3, 139500, Note_on_c, 0, 55, 100
3, 139500, Note_on_c, 0, 63, 100
3, 139500, Note_on_c, 0, 67, 100
3, 139500, Note_on_c, 0, 34, 78
3, 139535, Note_on_c, 0, 34, 0
3, 139545, Note_on_c, 0, 46, 93
3, 139580, Note_on_c, 0, 46, 0
3, 139590, Note_on_c, 0, 34, 78
3, 139625, Note_on_c, 0, 34, 0
3, 139635, Note_on_c, 0, 46, 93
3, 139670, Note_on_c, 0, 46, 0
3, 139680, Note_on_c, 0, 34, 78
3, 139715, Note_on_c, 0, 34, 0
3, 139725, Note_on_c, 0, 46, 93
3, 139760, Note_on_c, 0, 46, 0
3, 139770, Note_on_c, 0, 34, 78
3, 139805, Note_on_c, 0, 34, 0
3, 139815, Note_on_c, 0, 46, 93
3, 139850, Note_on_c, 0, 46, 0
3, 139860, Note_on_c, 0, 34, 78
3, 139895, Note_on_c, 0, 34, 0
3, 139905, Note_on_c, 0, 46, 93
3, 139940, Note_on_c, 0, 46, 0
3, 139950, Note_on_c, 0, 34, 78
3, 139985, Note_on_c, 0, 34, 0
3, 139995, Note_on_c, 0, 46, 93
3, 140030, Note_on_c, 0, 46, 0
3, 140040, Note_on_c, 0, 67, 0
3, 140040, Note_on_c, 0, 63, 0
3, 140040, Note_on_c, 0, 55, 0
3, 140040, Note_on_c, 0, 54, 80
3, 140040, Note_on_c, 0, 57, 80
3, 140040, Note_on_c, 0, 63, 80
3, 140040, Note_on_c, 0, 66, 80
3, 140040, Note_on_c, 0, 34, 74
3, 140075, Note_on_c, 0, 34, 0
3, 140085, Note_on_c, 0, 46, 94
3, 140120, Note_on_c, 0, 46, 0
3, 140130, Note_on_c, 0, 34, 74
3, 140165, Note_on_c, 0, 34, 0
3, 140175, Note_on_c, 0, 46, 94
3, 140210, Note_on_c, 0, 46, 0
3, 140220, Note_on_c, 0, 34, 74
3, 140255, Note_on_c, 0, 34, 0
3, 140265, Note_on_c, 0, 46, 94
3, 140300, Note_on_c, 0, 46, 0
3, 140310, Note_on_c, 0, 34, 74
3, 140345, Note_on_c, 0, 34, 0
3, 140355, Note_on_c, 0, 46, 94
3, 140390, Note_on_c, 0, 46, 0
3, 140400, Note_on_c, 0, 34, 74
3, 140435, Note_on_c, 0, 34, 0
3, 140445, Note_on_c, 0, 46, 94
3, 140480, Note_on_c, 0, 46, 0
3, 140490, Note_on_c, 0, 34, 74
3, 140525, Note_on_c, 0, 34, 0
3, 140535, Note_on_c, 0, 46, 94
3, 140570, Note_on_c, 0, 46, 0
3, 140580, Note_on_c, 0, 34, 74
3, 140615, Note_on_c, 0, 34, 0
3, 140625, Note_on_c, 0, 46, 94
3, 140660, Note_on_c, 0, 46, 0
3, 140670, Note_on_c, 0, 34, 74
3, 140705, Note_on_c, 0, 34, 0
3, 140715, Note_on_c, 0, 46, 94
3, 140750, Note_on_c, 0, 46, 0
3, 140760, Note_on_c, 0, 34, 74
3, 140795, Note_on_c, 0, 34, 0
3, 140805, Note_on_c, 0, 46, 94
3, 140840, Note_on_c, 0, 46, 0
3, 140850, Note_on_c, 0, 34, 74
3, 140885, Note_on_c, 0, 34, 0
3, 140895, Note_on_c, 0, 46, 94
3, 140930, Note_on_c, 0, 46, 0
3, 140940, Note_on_c, 0, 34, 74
3, 140975, Note_on_c, 0, 34, 0
3, 140985, Note_on_c, 0, 46, 94
3, 141020, Note_on_c, 0, 46, 0
3, 141030, Note_on_c, 0, 34, 74
3, 141065, Note_on_c, 0, 34, 0
3, 141075, Note_on_c, 0, 46, 94
3, 141110, Note_on_c, 0, 46, 0
3, 141120, Note_on_c, 0, 66, 0
3, 141120, Note_on_c, 0, 54, 0
3, 141120, Note_on_c, 0, 57, 0
3, 141120, Note_on_c, 0, 63, 0
3, 141120, Note_on_c, 0, 53, 79
3, 141120, Note_on_c, 0, 56, 79
3, 141120, Note_on_c, 0, 62, 79
3, 141120, Note_on_c, 0, 65, 79
3, 141120, Note_on_c, 0, 34, 74
3, 141120, Note_on_c, 0, 34, 74
3, 141155, Note_on_c, 0, 34, 0
3, 141155, Note_on_c, 0, 34, 0
3, 141165, Note_on_c, 0, 46, 92
3, 141200, Note_on_c, 0, 46, 0
3, 141210, Note_on_c, 0, 34, 74
3, 141245, Note_on_c, 0, 34, 0
3, 141255, Note_on_c, 0, 46, 92
3, 141290, Note_on_c, 0, 46, 0
3, 141300, Note_on_c, 0, 34, 74
3, 141335, Note_on_c, 0, 34, 0
3, 141345, Note_on_c, 0, 46, 92
3, 141380, Note_on_c, 0, 46, 0
3, 141390, Note_on_c, 0, 34, 74
3, 141425, Note_on_c, 0, 34, 0
3, 141435, Note_on_c, 0, 46, 92
3, 141470, Note_on_c, 0, 46, 0
3, 141480, Note_on_c, 0, 34, 74
3, 141515, Note_on_c, 0, 34, 0
3, 141525, Note_on_c, 0, 46, 92
3, 141560, Note_on_c, 0, 46, 0
3, 141570, Note_on_c, 0, 34, 74
3, 141605, Note_on_c, 0, 34, 0
3, 141615, Note_on_c, 0, 46, 92
3, 141650, Note_on_c, 0, 46, 0
3, 141660, Note_on_c, 0, 34, 74
3, 141695, Note_on_c, 0, 34, 0
3, 141705, Note_on_c, 0, 46, 92
3, 141740, Note_on_c, 0, 46, 0
3, 141750, Note_on_c, 0, 34, 74
3, 141785, Note_on_c, 0, 34, 0
3, 141795, Note_on_c, 0, 46, 92
3, 141830, Note_on_c, 0, 46, 0
3, 141840, Note_on_c, 0, 34, 74
3, 141875, Note_on_c, 0, 34, 0
3, 141885, Note_on_c, 0, 46, 92
3, 141920, Note_on_c, 0, 46, 0
3, 141930, Note_on_c, 0, 34, 74
3, 141965, Note_on_c, 0, 34, 0
3, 141975, Note_on_c, 0, 46, 92
3, 142010, Note_on_c, 0, 46, 0
3, 142020, Note_on_c, 0, 34, 74
3, 142055, Note_on_c, 0, 34, 0
3, 142065, Note_on_c, 0, 46, 92
3, 142100, Note_on_c, 0, 46, 0
3, 142110, Note_on_c, 0, 34, 74
3, 142145, Note_on_c, 0, 34, 0
3, 142155, Note_on_c, 0, 46, 92
3, 142190, Note_on_c, 0, 46, 0
3, 142200, Note_on_c, 0, 65, 0
3, 142200, Note_on_c, 0, 53, 0
3, 142200, Note_on_c, 0, 56, 0
3, 142200, Note_on_c, 0, 62, 0
3, 142200, Note_on_c, 0, 55, 76
3, 142200, Note_on_c, 0, 58, 76
3, 142200, Note_on_c, 0, 63, 76
3, 142200, Note_on_c, 0, 27, 80
3, 142235, Note_on_c, 0, 27, 0
3, 142235, Note_on_c, 0, 55, 0
3, 142235, Note_on_c, 0, 58, 0
3, 142235, Note_on_c, 0, 63, 0
3, 142245, Note_on_c, 0, 67, 96
3, 142245, Note_on_c, 0, 39, 94
3, 142280, Note_on_c, 0, 39, 0
3, 142280, Note_on_c, 0, 67, 0
3, 142290, Note_on_c, 0, 55, 76
3, 142290, Note_on_c, 0, 58, 76
3, 142290, Note_on_c, 0, 63, 76
3, 142290, Note_on_c, 0, 27, 80
3, 142325, Note_on_c, 0, 27, 0
3, 142325, Note_on_c, 0, 55, 0
3, 142325, Note_on_c, 0, 58, 0
3, 142325, Note_on_c, 0, 63, 0
3, 142335, Note_on_c, 0, 67, 96
3, 142335, Note_on_c, 0, 39, 94
3, 142370, Note_on_c, 0, 39, 0
3, 142370, Note_on_c, 0, 67, 0
3, 142380, Note_on_c, 0, 55, 76
3, 142380, Note_on_c, 0, 58, 76
3, 142380, Note_on_c, 0, 63, 76
3, 142380, Note_on_c, 0, 27, 80
3, 142415, Note_on_c, 0, 27, 0
3, 142415, Note_on_c, 0, 55, 0
3, 142415, Note_on_c, 0, 58, 0
3, 142415, Note_on_c, 0, 63, 0
3, 142425, Note_on_c, 0, 67, 96
3, 142425, Note_on_c, 0, 39, 94
3, 142460, Note_on_c, 0, 39, 0
3, 142460, Note_on_c, 0, 67, 0
3, 142470, Note_on_c, 0, 55, 76
3, 142470, Note_on_c, 0, 58, 76
3, 142470, Note_on_c, 0, 63, 76
3, 142470, Note_on_c, 0, 27, 80
3, 142505, Note_on_c, 0, 27, 0
3, 142505, Note_on_c, 0, 55, 0
3, 142505, Note_on_c, 0, 58, 0
3, 142505, Note_on_c, 0, 63, 0
3, 142515, Note_on_c, 0, 67, 96
3, 142515, Note_on_c, 0, 39, 94
3, 142550, Note_on_c, 0, 39, 0
3, 142550, Note_on_c, 0, 67, 0
3, 142560, Note_on_c, 0, 55, 76
3, 142560, Note_on_c, 0, 58, 76
3, 142560, Note_on_c, 0, 63, 76
3, 142560, Note_on_c, 0, 27, 80
3, 142595, Note_on_c, 0, 27, 0
3, 142595, Note_on_c, 0, 55, 0
3, 142595, Note_on_c, 0, 58, 0
3, 142595, Note_on_c, 0, 63, 0
3, 142605, Note_on_c, 0, 67, 96
3, 142605, Note_on_c, 0, 39, 94
3, 142640, Note_on_c, 0, 39, 0
3, 142640, Note_on_c, 0, 67, 0
3, 142650, Note_on_c, 0, 55, 76
3, 142650, Note_on_c, 0, 58, 76
3, 142650, Note_on_c, 0, 63, 76
3, 142650, Note_on_c, 0, 27, 80
3, 142685, Note_on_c, 0, 27, 0
3, 142685, Note_on_c, 0, 55, 0
3, 142685, Note_on_c, 0, 58, 0
3, 142685, Note_on_c, 0, 63, 0
3, 142695, Note_on_c, 0, 67, 96
3, 142695, Note_on_c, 0, 39, 94
3, 142730, Note_on_c, 0, 39, 0
3, 142730, Note_on_c, 0, 67, 0
3, 142740, Note_on_c, 0, 55, 76
3, 142740, Note_on_c, 0, 58, 76
3, 142740, Note_on_c, 0, 63, 76
3, 142740, Note_on_c, 0, 27, 80
3, 142775, Note_on_c, 0, 27, 0
3, 142775, Note_on_c, 0, 55, 0
3, 142775, Note_on_c, 0, 58, 0
3, 142775, Note_on_c, 0, 63, 0
3, 142785, Note_on_c, 0, 67, 96
3, 142785, Note_on_c, 0, 39, 94
3, 142820, Note_on_c, 0, 39, 0
3, 142820, Note_on_c, 0, 67, 0
3, 142830, Note_on_c, 0, 55, 76
3, 142830, Note_on_c, 0, 58, 76
3, 142830, Note_on_c, 0, 63, 76
3, 142830, Note_on_c, 0, 27, 80
3, 142865, Note_on_c, 0, 27, 0
3, 142865, Note_on_c, 0, 55, 0
3, 142865, Note_on_c, 0, 58, 0
3, 142865, Note_on_c, 0, 63, 0
3, 142875, Note_on_c, 0, 67, 96
3, 142875, Note_on_c, 0, 39, 94
3, 142910, Note_on_c, 0, 39, 0
3, 142910, Note_on_c, 0, 67, 0
3, 142920, Note_on_c, 0, 55, 76
3, 142920, Note_on_c, 0, 58, 76
3, 142920, Note_on_c, 0, 63, 76
3, 142920, Note_on_c, 0, 27, 80
3, 142955, Note_on_c, 0, 27, 0
3, 142955, Note_on_c, 0, 55, 0
3, 142955, Note_on_c, 0, 58, 0
3, 142955, Note_on_c, 0, 63, 0
3, 142965, Note_on_c, 0, 67, 96
3, 142965, Note_on_c, 0, 39, 94
3, 143000, Note_on_c, 0, 39, 0
3, 143000, Note_on_c, 0, 67, 0
3, 143010, Note_on_c, 0, 55, 76
3, 143010, Note_on_c, 0, 58, 76
3, 143010, Note_on_c, 0, 63, 76
3, 143010, Note_on_c, 0, 27, 80
3, 143045, Note_on_c, 0, 27, 0
3, 143045, Note_on_c, 0, 55, 0
3, 143045, Note_on_c, 0, 58, 0
3, 143045, Note_on_c, 0, 63, 0
3, 143055, Note_on_c, 0, 67, 96
3, 143055, Note_on_c, 0, 39, 94
3, 143090, Note_on_c, 0, 39, 0
3, 143090, Note_on_c, 0, 67, 0
3, 143100, Note_on_c, 0, 55, 76
3, 143100, Note_on_c, 0, 58, 76
3, 143100, Note_on_c, 0, 63, 76
3, 143100, Note_on_c, 0, 27, 80
3, 143135, Note_on_c, 0, 27, 0
3, 143135, Note_on_c, 0, 55, 0
3, 143135, Note_on_c, 0, 58, 0
3, 143135, Note_on_c, 0, 63, 0
3, 143145, Note_on_c, 0, 67, 96
3, 143145, Note_on_c, 0, 39, 94
3, 143180, Note_on_c, 0, 39, 0
3, 143180, Note_on_c, 0, 67, 0
3, 143190, Note_on_c, 0, 55, 76
3, 143190, Note_on_c, 0, 58, 76
3, 143190, Note_on_c, 0, 63, 76
3, 143190, Note_on_c, 0, 27, 80
3, 143225, Note_on_c, 0, 27, 0
3, 143225, Note_on_c, 0, 55, 0
3, 143225, Note_on_c, 0, 58, 0
3, 143225, Note_on_c, 0, 63, 0
3, 143235, Note_on_c, 0, 67, 96
3, 143235, Note_on_c, 0, 39, 94
3, 143270, Note_on_c, 0, 39, 0
3, 143270, Note_on_c, 0, 67, 0
3, 143280, Note_on_c, 0, 55, 76
3, 143280, Note_on_c, 0, 58, 76
3, 143280, Note_on_c, 0, 63, 76
3, 143280, Note_on_c, 0, 54, 77
3, 143280, Note_on_c, 0, 59, 77
3, 143280, Note_on_c, 0, 63, 77
3, 143280, Note_on_c, 0, 27, 80
3, 143280, Note_on_c, 0, 27, 75
3, 143315, Note_on_c, 0, 27, 0
3, 143315, Note_on_c, 0, 55, 0
3, 143315, Note_on_c, 0, 59, 0
3, 143315, Note_on_c, 0, 58, 0
3, 143315, Note_on_c, 0, 63, 0
3, 143315, Note_on_c, 0, 54, 0
3, 143315, Note_on_c, 0, 63, 0
3, 143315, Note_on_c, 0, 27, 0
3, 143325, Note_on_c, 0, 66, 92
3, 143325, Note_on_c, 0, 39, 90
3, 143360, Note_on_c, 0, 39, 0
3, 143360, Note_on_c, 0, 66, 0
3, 143370, Note_on_c, 0, 54, 77
3, 143370, Note_on_c, 0, 59, 77
3, 143370, Note_on_c, 0, 63, 77
3, 143370, Note_on_c, 0, 27, 75
3, 143405, Note_on_c, 0, 27, 0
3, 143405, Note_on_c, 0, 54, 0
3, 143405, Note_on_c, 0, 59, 0
3, 143405, Note_on_c, 0, 63, 0
3, 143415, Note_on_c, 0, 66, 92
3, 143415, Note_on_c, 0, 39, 90
3, 143450, Note_on_c, 0, 39, 0
3, 143450, Note_on_c, 0, 66, 0
3, 143460, Note_on_c, 0, 54, 77
3, 143460, Note_on_c, 0, 59, 77
3, 143460, Note_on_c, 0, 63, 77
3, 143460, Note_on_c, 0, 27, 75
3, 143495, Note_on_c, 0, 27, 0
3, 143495, Note_on_c, 0, 54, 0
3, 143495, Note_on_c, 0, 59, 0
3, 143495, Note_on_c, 0, 63, 0
3, 143505, Note_on_c, 0, 66, 92
3, 143505, Note_on_c, 0, 39, 90
3, 143540, Note_on_c, 0, 39, 0
3, 143540, Note_on_c, 0, 66, 0
3, 143550, Note_on_c, 0, 54, 77
3, 143550, Note_on_c, 0, 59, 77
3, 143550, Note_on_c, 0, 63, 77
3, 143550, Note_on_c, 0, 27, 75
3, 143585, Note_on_c, 0, 27, 0
3, 143585, Note_on_c, 0, 54, 0
3, 143585, Note_on_c, 0, 59, 0
3, 143585, Note_on_c, 0, 63, 0
3, 143595, Note_on_c, 0, 66, 92
3, 143595, Note_on_c, 0, 39, 90
3, 143630, Note_on_c, 0, 39, 0
3, 143630, Note_on_c, 0, 66, 0
3, 143640, Note_on_c, 0, 54, 77
3, 143640, Note_on_c, 0, 59, 77
3, 143640, Note_on_c, 0, 63, 77
3, 143640, Note_on_c, 0, 27, 75
3, 143675, Note_on_c, 0, 27, 0
3, 143675, Note_on_c, 0, 54, 0
3, 143675, Note_on_c, 0, 59, 0
3, 143675, Note_on_c, 0, 63, 0
3, 143685, Note_on_c, 0, 66, 92
3, 143685, Note_on_c, 0, 39, 90
3, 143720, Note_on_c, 0, 39, 0
3, 143720, Note_on_c, 0, 66, 0
3, 143730, Note_on_c, 0, 54, 77
3, 143730, Note_on_c, 0, 59, 77
3, 143730, Note_on_c, 0, 63, 77
3, 143730, Note_on_c, 0, 27, 75
3, 143765, Note_on_c, 0, 27, 0
3, 143765, Note_on_c, 0, 54, 0
3, 143765, Note_on_c, 0, 59, 0
3, 143765, Note_on_c, 0, 63, 0
3, 143775, Note_on_c, 0, 66, 92
3, 143775, Note_on_c, 0, 39, 90
3, 143810, Note_on_c, 0, 39, 0
3, 143810, Note_on_c, 0, 66, 0
3, 143820, Note_on_c, 0, 54, 77
3, 143820, Note_on_c, 0, 59, 77
3, 143820, Note_on_c, 0, 63, 77
3, 143820, Note_on_c, 0, 27, 75
3, 143855, Note_on_c, 0, 27, 0
3, 143855, Note_on_c, 0, 54, 0
3, 143855, Note_on_c, 0, 59, 0
3, 143855, Note_on_c, 0, 63, 0
3, 143865, Note_on_c, 0, 66, 92
3, 143865, Note_on_c, 0, 39, 90
3, 143900, Note_on_c, 0, 39, 0
3, 143900, Note_on_c, 0, 66, 0
3, 143910, Note_on_c, 0, 54, 77
3, 143910, Note_on_c, 0, 59, 77
3, 143910, Note_on_c, 0, 63, 77
3, 143910, Note_on_c, 0, 27, 75
3, 143945, Note_on_c, 0, 27, 0
3, 143945, Note_on_c, 0, 54, 0
3, 143945, Note_on_c, 0, 59, 0
3, 143945, Note_on_c, 0, 63, 0
3, 143955, Note_on_c, 0, 66, 92
3, 143955, Note_on_c, 0, 39, 90
3, 143990, Note_on_c, 0, 39, 0
3, 143990, Note_on_c, 0, 66, 0
3, 144000, Note_on_c, 0, 54, 77
3, 144000, Note_on_c, 0, 59, 77
3, 144000, Note_on_c, 0, 63, 77
3, 144000, Note_on_c, 0, 27, 75
3, 144035, Note_on_c, 0, 27, 0
3, 144035, Note_on_c, 0, 54, 0
3, 144035, Note_on_c, 0, 59, 0
3, 144035, Note_on_c, 0, 63, 0
3, 144045, Note_on_c, 0, 66, 92
3, 144045, Note_on_c, 0, 39, 90
3, 144080, Note_on_c, 0, 39, 0
3, 144080, Note_on_c, 0, 66, 0
3, 144090, Note_on_c, 0, 54, 77
3, 144090, Note_on_c, 0, 59, 77
3, 144090, Note_on_c, 0, 63, 77
3, 144090, Note_on_c, 0, 27, 75
3, 144125, Note_on_c, 0, 27, 0
3, 144125, Note_on_c, 0, 54, 0
3, 144125, Note_on_c, 0, 59, 0
3, 144125, Note_on_c, 0, 63, 0
3, 144135, Note_on_c, 0, 66, 92
3, 144135, Note_on_c, 0, 39, 90
3, 144170, Note_on_c, 0, 39, 0
3, 144170, Note_on_c, 0, 66, 0
3, 144180, Note_on_c, 0, 54, 77
3, 144180, Note_on_c, 0, 59, 77
3, 144180, Note_on_c, 0, 63, 77
3, 144180, Note_on_c, 0, 27, 75
3, 144215, Note_on_c, 0, 27, 0
3, 144215, Note_on_c, 0, 54, 0
3, 144215, Note_on_c, 0, 59, 0
3, 144215, Note_on_c, 0, 63, 0
3, 144225, Note_on_c, 0, 66, 92
3, 144225, Note_on_c, 0, 39, 90
3, 144260, Note_on_c, 0, 39, 0
3, 144260, Note_on_c, 0, 66, 0
3, 144270, Note_on_c, 0, 54, 77
3, 144270, Note_on_c, 0, 59, 77
3, 144270, Note_on_c, 0, 63, 77
3, 144270, Note_on_c, 0, 27, 75
3, 144305, Note_on_c, 0, 27, 0
3, 144305, Note_on_c, 0, 54, 0
3, 144305, Note_on_c, 0, 59, 0
3, 144305, Note_on_c, 0, 63, 0
3, 144315, Note_on_c, 0, 66, 92
3, 144315, Note_on_c, 0, 39, 90
3, 144350, Note_on_c, 0, 39, 0
3, 144350, Note_on_c, 0, 66, 0
3, 144360, Note_on_c, 0, 55, 79
3, 144360, Note_on_c, 0, 58, 79
3, 144360, Note_on_c, 0, 63, 79
3, 144360, Note_on_c, 0, 27, 76
3, 144395, Note_on_c, 0, 27, 0
3, 144395, Note_on_c, 0, 55, 0
3, 144395, Note_on_c, 0, 58, 0
3, 144395, Note_on_c, 0, 63, 0
3, 144405, Note_on_c, 0, 67, 90
3, 144405, Note_on_c, 0, 39, 95
3, 144440, Note_on_c, 0, 39, 0
3, 144440, Note_on_c, 0, 67, 0
3, 144450, Note_on_c, 0, 55, 79
3, 144450, Note_on_c, 0, 58, 79
3, 144450, Note_on_c, 0, 63, 79
3, 144450, Note_on_c, 0, 27, 76
3, 144485, Note_on_c, 0, 27, 0
3, 144485, Note_on_c, 0, 55, 0
3, 144485, Note_on_c, 0, 58, 0
3, 144485, Note_on_c, 0, 63, 0
3, 144495, Note_on_c, 0, 67, 90
3, 144495, Note_on_c, 0, 39, 95
3, 144530, Note_on_c, 0, 39, 0
3, 144530, Note_on_c, 0, 67, 0
3, 144540, Note_on_c, 0, 55, 79
3, 144540, Note_on_c, 0, 58, 79
3, 144540, Note_on_c, 0, 63, 79
3, 144540, Note_on_c, 0, 27, 76
3, 144575, Note_on_c, 0, 27, 0
3, 144575, Note_on_c, 0, 55, 0
3, 144575, Note_on_c, 0, 58, 0
3, 144575, Note_on_c, 0, 63, 0
3, 144585, Note_on_c, 0, 67, 90
3, 144585, Note_on_c, 0, 39, 95
3, 144620, Note_on_c, 0, 39, 0
3, 144620, Note_on_c, 0, 67, 0
3, 144630, Note_on_c, 0, 55, 79
3, 144630, Note_on_c, 0, 58, 79
3, 144630, Note_on_c, 0, 63, 79
3, 144630, Note_on_c, 0, 27, 76
3, 144665, Note_on_c, 0, 27, 0
3, 144665, Note_on_c, 0, 55, 0
3, 144665, Note_on_c, 0, 58, 0
3, 144665, Note_on_c, 0, 63, 0
3, 144675, Note_on_c, 0, 67, 90
3, 144675, Note_on_c, 0, 39, 95
3, 144710, Note_on_c, 0, 39, 0
3, 144710, Note_on_c, 0, 67, 0
3, 144720, Note_on_c, 0, 55, 79
3, 144720, Note_on_c, 0, 58, 79
3, 144720, Note_on_c, 0, 63, 79
3, 144720, Note_on_c, 0, 27, 76
3, 144755, Note_on_c, 0, 27, 0
3, 144755, Note_on_c, 0, 55, 0
3, 144755, Note_on_c, 0, 58, 0
3, 144755, Note_on_c, 0, 63, 0
3, 144765, Note_on_c, 0, 67, 90
3, 144765, Note_on_c, 0, 39, 95
3, 144800, Note_on_c, 0, 39, 0
3, 144800, Note_on_c, 0, 67, 0
3, 144810, Note_on_c, 0, 55, 79
3, 144810, Note_on_c, 0, 58, 79
3, 144810, Note_on_c, 0, 63, 79
3, 144810, Note_on_c, 0, 27, 76
3, 144845, Note_on_c, 0, 27, 0
3, 144845, Note_on_c, 0, 55, 0
3, 144845, Note_on_c, 0, 58, 0
3, 144845, Note_on_c, 0, 63, 0
3, 144855, Note_on_c, 0, 67, 90
3, 144855, Note_on_c, 0, 39, 95
3, 144890, Note_on_c, 0, 39, 0
3, 144890, Note_on_c, 0, 67, 0
3, 144900, Note_on_c, 0, 55, 79
3, 144900, Note_on_c, 0, 58, 79
3, 144900, Note_on_c, 0, 63, 79
3, 144900, Note_on_c, 0, 27, 76
3, 144935, Note_on_c, 0, 27, 0
3, 144935, Note_on_c, 0, 55, 0
3, 144935, Note_on_c, 0, 58, 0
3, 144935, Note_on_c, 0, 63, 0
3, 144945, Note_on_c, 0, 67, 90
3, 144945, Note_on_c, 0, 39, 95
3, 144980, Note_on_c, 0, 39, 0
3, 144980, Note_on_c, 0, 67, 0
3, 144990, Note_on_c, 0, 55, 79
3, 144990, Note_on_c, 0, 58, 79
3, 144990, Note_on_c, 0, 63, 79
3, 144990, Note_on_c, 0, 27, 76
3, 145025, Note_on_c, 0, 27, 0
3, 145025, Note_on_c, 0, 55, 0
3, 145025, Note_on_c, 0, 58, 0
3, 145025, Note_on_c, 0, 63, 0
3, 145035, Note_on_c, 0, 67, 90
3, 145035, Note_on_c, 0, 39, 95
3, 145070, Note_on_c, 0, 39, 0
3, 145070, Note_on_c, 0, 67, 0
3, 145080, Note_on_c, 0, 55, 79
3, 145080, Note_on_c, 0, 58, 79
3, 145080, Note_on_c, 0, 63, 79
3, 145080, Note_on_c, 0, 27, 76
3, 145115, Note_on_c, 0, 27, 0
3, 145115, Note_on_c, 0, 55, 0
3, 145115, Note_on_c, 0, 58, 0
3, 145115, Note_on_c, 0, 63, 0
3, 145125, Note_on_c, 0, 67, 90
3, 145125, Note_on_c, 0, 39, 95
3, 145160, Note_on_c, 0, 39, 0
3, 145160, Note_on_c, 0, 67, 0
3, 145170, Note_on_c, 0, 55, 79
3, 145170, Note_on_c, 0, 58, 79
3, 145170, Note_on_c, 0, 63, 79
3, 145170, Note_on_c, 0, 27, 76
3, 145205, Note_on_c, 0, 27, 0
3, 145205, Note_on_c, 0, 55, 0
3, 145205, Note_on_c, 0, 58, 0
3, 145205, Note_on_c, 0, 63, 0
3, 145215, Note_on_c, 0, 67, 90
3, 145215, Note_on_c, 0, 39, 95
3, 145250, Note_on_c, 0, 39, 0
3, 145250, Note_on_c, 0, 67, 0
3, 145260, Note_on_c, 0, 55, 79
3, 145260, Note_on_c, 0, 58, 79
3, 145260, Note_on_c, 0, 63, 79
3, 145260, Note_on_c, 0, 27, 76
3, 145295, Note_on_c, 0, 27, 0
3, 145295, Note_on_c, 0, 55, 0
3, 145295, Note_on_c, 0, 58, 0
3, 145295, Note_on_c, 0, 63, 0
3, 145305, Note_on_c, 0, 67, 90
3, 145305, Note_on_c, 0, 39, 95
3, 145340, Note_on_c, 0, 39, 0
3, 145340, Note_on_c, 0, 67, 0
3, 145350, Note_on_c, 0, 55, 79
3, 145350, Note_on_c, 0, 58, 79
3, 145350, Note_on_c, 0, 63, 79
3, 145350, Note_on_c, 0, 27, 76
3, 145385, Note_on_c, 0, 27, 0
3, 145385, Note_on_c, 0, 55, 0
3, 145385, Note_on_c, 0, 58, 0
3, 145385, Note_on_c, 0, 63, 0
3, 145395, Note_on_c, 0, 67, 90
3, 145395, Note_on_c, 0, 39, 95
3, 145430, Note_on_c, 0, 39, 0
3, 145430, Note_on_c, 0, 67, 0
3, 145440, Note_on_c, 0, 55, 79
3, 145440, Note_on_c, 0, 58, 79
3, 145440, Note_on_c, 0, 63, 79
3, 145440, Note_on_c, 0, 54, 75
3, 145440, Note_on_c, 0, 59, 75
3, 145440, Note_on_c, 0, 63, 75
3, 145440, Note_on_c, 0, 27, 76
3, 145440, Note_on_c, 0, 27, 74
3, 145475, Note_on_c, 0, 27, 0
3, 145475, Note_on_c, 0, 55, 0
3, 145475, Note_on_c, 0, 59, 0
3, 145475, Note_on_c, 0, 58, 0
3, 145475, Note_on_c, 0, 63, 0
3, 145475, Note_on_c, 0, 54, 0
3, 145475, Note_on_c, 0, 63, 0
3, 145475, Note_on_c, 0, 27, 0
3, 145485, Note_on_c, 0, 66, 92
3, 145485, Note_on_c, 0, 39, 91
3, 145520, Note_on_c, 0, 39, 0
3, 145520, Note_on_c, 0, 66, 0
3, 145530, Note_on_c, 0, 54, 75
3, 145530, Note_on_c, 0, 59, 75
3, 145530, Note_on_c, 0, 63, 75
3, 145530, Note_on_c, 0, 27, 74
3, 145565, Note_on_c, 0, 27, 0
3, 145565, Note_on_c, 0, 54, 0
3, 145565, Note_on_c, 0, 59, 0
3, 145565, Note_on_c, 0, 63, 0
3, 145575, Note_on_c, 0, 66, 92
3, 145575, Note_on_c, 0, 39, 91
3, 145610, Note_on_c, 0, 39, 0
3, 145610, Note_on_c, 0, 66, 0
3, 145620, Note_on_c, 0, 54, 75
3, 145620, Note_on_c, 0, 59, 75
3, 145620, Note_on_c, 0, 63, 75
3, 145620, Note_on_c, 0, 27, 74
3, 145655, Note_on_c, 0, 27, 0
3, 145655, Note_on_c, 0, 54, 0
3, 145655, Note_on_c, 0, 59, 0
3, 145655, Note_on_c, 0, 63, 0
3, 145665, Note_on_c, 0, 66, 92
3, 145665, Note_on_c, 0, 39, 91
3, 145700, Note_on_c, 0, 39, 0
3, 145700, Note_on_c, 0, 66, 0
3, 145710, Note_on_c, 0, 54, 75
3, 145710, Note_on_c, 0, 59, 75
3, 145710, Note_on_c, 0, 63, 75
3, 145710, Note_on_c, 0, 27, 74
3, 145745, Note_on_c, 0, 27, 0
3, 145745, Note_on_c, 0, 54, 0
3, 145745, Note_on_c, 0, 59, 0
3, 145745, Note_on_c, 0, 63, 0
3, 145755, Note_on_c, 0, 66, 92
3, 145755, Note_on_c, 0, 39, 91
3, 145790, Note_on_c, 0, 39, 0
3, 145790, Note_on_c, 0, 66, 0
3, 145800, Note_on_c, 0, 54, 75
3, 145800, Note_on_c, 0, 59, 75
3, 145800, Note_on_c, 0, 63, 75
3, 145800, Note_on_c, 0, 27, 74
3, 145835, Note_on_c, 0, 27, 0
3, 145835, Note_on_c, 0, 54, 0
3, 145835, Note_on_c, 0, 59, 0
3, 145835, Note_on_c, 0, 63, 0
3, 145845, Note_on_c, 0, 66, 92
3, 145845, Note_on_c, 0, 39, 91
3, 145880, Note_on_c, 0, 39, 0
3, 145880, Note_on_c, 0, 66, 0
3, 145890, Note_on_c, 0, 54, 75
3, 145890, Note_on_c, 0, 59, 75
3, 145890, Note_on_c, 0, 63, 75
3, 145890, Note_on_c, 0, 27, 74
3, 145925, Note_on_c, 0, 27, 0
3, 145925, Note_on_c, 0, 54, 0
3, 145925, Note_on_c, 0, 59, 0
3, 145925, Note_on_c, 0, 63, 0
3, 145935, Note_on_c, 0, 66, 92
3, 145935, Note_on_c, 0, 39, 91
3, 145970, Note_on_c, 0, 39, 0
3, 145970, Note_on_c, 0, 66, 0
3, 145980, Note_on_c, 0, 54, 75
3, 145980, Note_on_c, 0, 59, 75
3, 145980, Note_on_c, 0, 63, 75
3, 145980, Note_on_c, 0, 27, 74
3, 146015, Note_on_c, 0, 27, 0
3, 146015, Note_on_c, 0, 54, 0
3, 146015, Note_on_c, 0, 59, 0
3, 146015, Note_on_c, 0, 63, 0
3, 146025, Note_on_c, 0, 66, 92
3, 146025, Note_on_c, 0, 39, 91
3, 146060, Note_on_c, 0, 39, 0
3, 146060, Note_on_c, 0, 66, 0
3, 146070, Note_on_c, 0, 54, 75
3, 146070, Note_on_c, 0, 59, 75
3, 146070, Note_on_c, 0, 63, 75
3, 146070, Note_on_c, 0, 27, 74
3, 146105, Note_on_c, 0, 27, 0
3, 146105, Note_on_c, 0, 54, 0
3, 146105, Note_on_c, 0, 59, 0
3, 146105, Note_on_c, 0, 63, 0
3, 146115, Note_on_c, 0, 66, 92
3, 146115, Note_on_c, 0, 39, 91
3, 146150, Note_on_c, 0, 39, 0
3, 146150, Note_on_c, 0, 66, 0
3, 146160, Note_on_c, 0, 54, 75
3, 146160, Note_on_c, 0, 59, 75
3, 146160, Note_on_c, 0, 63, 75
3, 146160, Note_on_c, 0, 27, 74
3, 146195, Note_on_c, 0, 27, 0
3, 146195, Note_on_c, 0, 54, 0
3, 146195, Note_on_c, 0, 59, 0
3, 146195, Note_on_c, 0, 63, 0
3, 146205, Note_on_c, 0, 66, 92
3, 146205, Note_on_c, 0, 39, 91
3, 146240, Note_on_c, 0, 39, 0
3, 146240, Note_on_c, 0, 66, 0
3, 146250, Note_on_c, 0, 54, 75
3, 146250, Note_on_c, 0, 59, 75
3, 146250, Note_on_c, 0, 63, 75
3, 146250, Note_on_c, 0, 27, 74
3, 146285, Note_on_c, 0, 27, 0
3, 146285, Note_on_c, 0, 54, 0
3, 146285, Note_on_c, 0, 59, 0
3, 146285, Note_on_c, 0, 63, 0
3, 146295, Note_on_c, 0, 66, 92
3, 146295, Note_on_c, 0, 39, 91
3, 146330, Note_on_c, 0, 39, 0
3, 146330, Note_on_c, 0, 66, 0
3, 146340, Note_on_c, 0, 54, 75
3, 146340, Note_on_c, 0, 59, 75
3, 146340, Note_on_c, 0, 63, 75
3, 146340, Note_on_c, 0, 27, 74
3, 146375, Note_on_c, 0, 27, 0
3, 146375, Note_on_c, 0, 54, 0
3, 146375, Note_on_c, 0, 59, 0
3, 146375, Note_on_c, 0, 63, 0
3, 146385, Note_on_c, 0, 66, 92
3, 146385, Note_on_c, 0, 39, 91
3, 146420, Note_on_c, 0, 39, 0
3, 146420, Note_on_c, 0, 66, 0
3, 146430, Note_on_c, 0, 54, 75
3, 146430, Note_on_c, 0, 59, 75
3, 146430, Note_on_c, 0, 63, 75
3, 146430, Note_on_c, 0, 27, 74
3, 146465, Note_on_c, 0, 27, 0
3, 146465, Note_on_c, 0, 54, 0
3, 146465, Note_on_c, 0, 59, 0
3, 146465, Note_on_c, 0, 63, 0
3, 146475, Note_on_c, 0, 66, 92
3, 146475, Note_on_c, 0, 39, 91
3, 146510, Note_on_c, 0, 39, 0
3, 146510, Note_on_c, 0, 66, 0
3, 146520, Note_on_c, 0, 55, 75
3, 146520, Note_on_c, 0, 58, 75
3, 146520, Note_on_c, 0, 63, 75
3, 146520, Note_on_c, 0, 27, 74
3, 146555, Note_on_c, 0, 27, 0
3, 146555, Note_on_c, 0, 55, 0
3, 146555, Note_on_c, 0, 58, 0
3, 146555, Note_on_c, 0, 63, 0
3, 146565, Note_on_c, 0, 67, 88
3, 146565, Note_on_c, 0, 39, 92
3, 146600, Note_on_c, 0, 39, 0
3, 146600, Note_on_c, 0, 67, 0
3, 146610, Note_on_c, 0, 55, 75
3, 146610, Note_on_c, 0, 58, 75
3, 146610, Note_on_c, 0, 63, 75
3, 146610, Note_on_c, 0, 27, 74
3, 146645, Note_on_c, 0, 27, 0
3, 146645, Note_on_c, 0, 55, 0
3, 146645, Note_on_c, 0, 58, 0
3, 146645, Note_on_c, 0, 63, 0
3, 146655, Note_on_c, 0, 67, 88
3, 146655, Note_on_c, 0, 39, 92
3, 146690, Note_on_c, 0, 39, 0
3, 146690, Note_on_c, 0, 67, 0
3, 146700, Note_on_c, 0, 55, 75
3, 146700, Note_on_c, 0, 58, 75
3, 146700, Note_on_c, 0, 63, 75
3, 146700, Note_on_c, 0, 27, 74
3, 146735, Note_on_c, 0, 27, 0
3, 146735, Note_on_c, 0, 55, 0
3, 146735, Note_on_c, 0, 58, 0
3, 146735, Note_on_c, 0, 63, 0
3, 146745, Note_on_c, 0, 67, 88
3, 146745, Note_on_c, 0, 39, 92
3, 146780, Note_on_c, 0, 39, 0
3, 146780, Note_on_c, 0, 67, 0
3, 146790, Note_on_c, 0, 55, 75
3, 146790, Note_on_c, 0, 58, 75
3, 146790, Note_on_c, 0, 63, 75
3, 146790, Note_on_c, 0, 27, 74
3, 146825, Note_on_c, 0, 27, 0
3, 146825, Note_on_c, 0, 55, 0
3, 146825, Note_on_c, 0, 58, 0
3, 146825, Note_on_c, 0, 63, 0
3, 146835, Note_on_c, 0, 67, 88
3, 146835, Note_on_c, 0, 39, 92
3, 146870, Note_on_c, 0, 39, 0
3, 146870, Note_on_c, 0, 67, 0
3, 146880, Note_on_c, 0, 55, 75
3, 146880, Note_on_c, 0, 58, 75
3, 146880, Note_on_c, 0, 63, 75
3, 146880, Note_on_c, 0, 27, 74
3, 146915, Note_on_c, 0, 27, 0
3, 146915, Note_on_c, 0, 55, 0
3, 146915, Note_on_c, 0, 58, 0
3, 146915, Note_on_c, 0, 63, 0
3, 146925, Note_on_c, 0, 67, 88
3, 146925, Note_on_c, 0, 39, 92
3, 146960, Note_on_c, 0, 39, 0
3, 146960, Note_on_c, 0, 67, 0
3, 146970, Note_on_c, 0, 55, 75
3, 146970, Note_on_c, 0, 58, 75
3, 146970, Note_on_c, 0, 63, 75
3, 146970, Note_on_c, 0, 27, 74
3, 147005, Note_on_c, 0, 27, 0
3, 147005, Note_on_c, 0, 55, 0
3, 147005, Note_on_c, 0, 58, 0
3, 147005, Note_on_c, 0, 63, 0
3, 147015, Note_on_c, 0, 67, 88
3, 147015, Note_on_c, 0, 39, 92
3, 147050, Note_on_c, 0, 39, 0
3, 147050, Note_on_c, 0, 67, 0
3, 147060, Note_on_c, 0, 55, 75
3, 147060, Note_on_c, 0, 58, 75
3, 147060, Note_on_c, 0, 63, 75
3, 147060, Note_on_c, 0, 54, 75
3, 147060, Note_on_c, 0, 59, 75
3, 147060, Note_on_c, 0, 63, 75
3, 147060, Note_on_c, 0, 27, 74
3, 147095, Note_on_c, 0, 27, 0
3, 147095, Note_on_c, 0, 59, 0
3, 147095, Note_on_c, 0, 58, 0
3, 147095, Note_on_c, 0, 63, 0
3, 147095, Note_on_c, 0, 55, 0
3, 147095, Note_on_c, 0, 63, 0
3, 147095, Note_on_c, 0, 54, 0
3, 147105, Note_on_c, 0, 66, 91
3, 147105, Note_on_c, 0, 39, 92
3, 147140, Note_on_c, 0, 39, 0
3, 147140, Note_on_c, 0, 66, 0
3, 147150, Note_on_c, 0, 54, 75
3, 147150, Note_on_c, 0, 59, 75
3, 147150, Note_on_c, 0, 63, 75
3, 147150, Note_on_c, 0, 27, 74
3, 147185, Note_on_c, 0, 27, 0
3, 147185, Note_on_c, 0, 54, 0
3, 147185, Note_on_c, 0, 59, 0
3, 147185, Note_on_c, 0, 63, 0
3, 147195, Note_on_c, 0, 66, 91
3, 147195, Note_on_c, 0, 39, 92
3, 147230, Note_on_c, 0, 39, 0
3, 147230, Note_on_c, 0, 66, 0
3, 147240, Note_on_c, 0, 54, 75
3, 147240, Note_on_c, 0, 59, 75
3, 147240, Note_on_c, 0, 63, 75
3, 147240, Note_on_c, 0, 27, 74
3, 147275, Note_on_c, 0, 27, 0
3, 147275, Note_on_c, 0, 54, 0
3, 147275, Note_on_c, 0, 59, 0
3, 147275, Note_on_c, 0, 63, 0
3, 147285, Note_on_c, 0, 66, 91
3, 147285, Note_on_c, 0, 39, 92
3, 147320, Note_on_c, 0, 39, 0
3, 147320, Note_on_c, 0, 66, 0
3, 147330, Note_on_c, 0, 54, 75
3, 147330, Note_on_c, 0, 59, 75
3, 147330, Note_on_c, 0, 63, 75
3, 147330, Note_on_c, 0, 27, 74
3, 147365, Note_on_c, 0, 27, 0
3, 147365, Note_on_c, 0, 54, 0
3, 147365, Note_on_c, 0, 59, 0
3, 147365, Note_on_c, 0, 63, 0
3, 147375, Note_on_c, 0, 66, 91
3, 147375, Note_on_c, 0, 39, 92
3, 147410, Note_on_c, 0, 39, 0
3, 147410, Note_on_c, 0, 66, 0
3, 147420, Note_on_c, 0, 54, 75
3, 147420, Note_on_c, 0, 59, 75
3, 147420, Note_on_c, 0, 63, 75
3, 147420, Note_on_c, 0, 27, 74
3, 147455, Note_on_c, 0, 27, 0
3, 147455, Note_on_c, 0, 54, 0
3, 147455, Note_on_c, 0, 59, 0
3, 147455, Note_on_c, 0, 63, 0
3, 147465, Note_on_c, 0, 66, 91
3, 147465, Note_on_c, 0, 39, 92
3, 147500, Note_on_c, 0, 39, 0
3, 147500, Note_on_c, 0, 66, 0
3, 147510, Note_on_c, 0, 54, 75
3, 147510, Note_on_c, 0, 59, 75
3, 147510, Note_on_c, 0, 63, 75
3, 147510, Note_on_c, 0, 27, 74
3, 147545, Note_on_c, 0, 27, 0
3, 147545, Note_on_c, 0, 54, 0
3, 147545, Note_on_c, 0, 59, 0
3, 147545, Note_on_c, 0, 63, 0
3, 147555, Note_on_c, 0, 66, 91
3, 147555, Note_on_c, 0, 39, 92
3, 147590, Note_on_c, 0, 39, 0
3, 147590, Note_on_c, 0, 66, 0
3, 147600, Note_on_c, 0, 54, 75
3, 147600, Note_on_c, 0, 59, 75
3, 147600, Note_on_c, 0, 63, 75
3, 147600, Note_on_c, 0, 55, 73
3, 147600, Note_on_c, 0, 58, 73
3, 147600, Note_on_c, 0, 63, 73
3, 147600, Note_on_c, 0, 27, 74
3, 147600, Note_on_c, 0, 27, 74
3, 147635, Note_on_c, 0, 27, 0
3, 147635, Note_on_c, 0, 54, 0
3, 147635, Note_on_c, 0, 58, 0
3, 147635, Note_on_c, 0, 59, 0
3, 147635, Note_on_c, 0, 63, 0
3, 147635, Note_on_c, 0, 55, 0
3, 147635, Note_on_c, 0, 63, 0
3, 147635, Note_on_c, 0, 27, 0
3, 147645, Note_on_c, 0, 67, 89
3, 147645, Note_on_c, 0, 39, 91
3, 147680, Note_on_c, 0, 39, 0
3, 147680, Note_on_c, 0, 67, 0
3, 147690, Note_on_c, 0, 55, 73
3, 147690, Note_on_c, 0, 58, 73
3, 147690, Note_on_c, 0, 63, 73
3, 147690, Note_on_c, 0, 27, 74
3, 147725, Note_on_c, 0, 27, 0
3, 147725, Note_on_c, 0, 55, 0
3, 147725, Note_on_c, 0, 58, 0
3, 147725, Note_on_c, 0, 63, 0
3, 147735, Note_on_c, 0, 67, 89
3, 147735, Note_on_c, 0, 39, 91
3, 147770, Note_on_c, 0, 39, 0
3, 147770, Note_on_c, 0, 67, 0
3, 147780, Note_on_c, 0, 55, 73
3, 147780, Note_on_c, 0, 58, 73
3, 147780, Note_on_c, 0, 63, 73
3, 147780, Note_on_c, 0, 27, 74
3, 147815, Note_on_c, 0, 27, 0
3, 147815, Note_on_c, 0, 55, 0
3, 147815, Note_on_c, 0, 58, 0
3, 147815, Note_on_c, 0, 63, 0
3, 147825, Note_on_c, 0, 67, 89
3, 147825, Note_on_c, 0, 39, 91
3, 147860, Note_on_c, 0, 39, 0
3, 147860, Note_on_c, 0, 67, 0
3, 147870, Note_on_c, 0, 55, 73
3, 147870, Note_on_c, 0, 58, 73
3, 147870, Note_on_c, 0, 63, 73
3, 147870, Note_on_c, 0, 27, 74
3, 147905, Note_on_c, 0, 27, 0
3, 147905, Note_on_c, 0, 55, 0
3, 147905, Note_on_c, 0, 58, 0
3, 147905, Note_on_c, 0, 63, 0
3, 147915, Note_on_c, 0, 67, 89
3, 147915, Note_on_c, 0, 39, 91
3, 147950, Note_on_c, 0, 39, 0
3, 147950, Note_on_c, 0, 67, 0
3, 147960, Note_on_c, 0, 55, 73
3, 147960, Note_on_c, 0, 58, 73
3, 147960, Note_on_c, 0, 63, 73
3, 147960, Note_on_c, 0, 27, 74
3, 147995, Note_on_c, 0, 27, 0
3, 147995, Note_on_c, 0, 55, 0
3, 147995, Note_on_c, 0, 58, 0
3, 147995, Note_on_c, 0, 63, 0
3, 148005, Note_on_c, 0, 67, 89
3, 148005, Note_on_c, 0, 39, 91
3, 148040, Note_on_c, 0, 39, 0
3, 148040, Note_on_c, 0, 67, 0
3, 148050, Note_on_c, 0, 55, 73
3, 148050, Note_on_c, 0, 58, 73
3, 148050, Note_on_c, 0, 63, 73
3, 148050, Note_on_c, 0, 27, 74
3, 148085, Note_on_c, 0, 27, 0
3, 148085, Note_on_c, 0, 55, 0
3, 148085, Note_on_c, 0, 58, 0
3, 148085, Note_on_c, 0, 63, 0
3, 148095, Note_on_c, 0, 67, 89
3, 148095, Note_on_c, 0, 39, 91
3, 148130, Note_on_c, 0, 39, 0
3, 148130, Note_on_c, 0, 67, 0
3, 148140, Note_on_c, 0, 55, 73
3, 148140, Note_on_c, 0, 58, 73
3, 148140, Note_on_c, 0, 63, 73
3, 148140, Note_on_c, 0, 54, 78
3, 148140, Note_on_c, 0, 59, 78
3, 148140, Note_on_c, 0, 63, 78
3, 148140, Note_on_c, 0, 27, 74
3, 148175, Note_on_c, 0, 27, 0
3, 148175, Note_on_c, 0, 59, 0
3, 148175, Note_on_c, 0, 58, 0
3, 148175, Note_on_c, 0, 63, 0
3, 148175, Note_on_c, 0, 55, 0
3, 148175, Note_on_c, 0, 63, 0
3, 148175, Note_on_c, 0, 54, 0
3, 148185, Note_on_c, 0, 66, 91
3, 148185, Note_on_c, 0, 39, 91
3, 148220, Note_on_c, 0, 39, 0
3, 148220, Note_on_c, 0, 66, 0
3, 148230, Note_on_c, 0, 54, 78
3, 148230, Note_on_c, 0, 59, 78
3, 148230, Note_on_c, 0, 63, 78
3, 148230, Note_on_c, 0, 27, 74
3, 148265, Note_on_c, 0, 27, 0
3, 148265, Note_on_c, 0, 54, 0
3, 148265, Note_on_c, 0, 59, 0
3, 148265, Note_on_c, 0, 63, 0
3, 148275, Note_on_c, 0, 66, 91
3, 148275, Note_on_c, 0, 39, 91
3, 148310, Note_on_c, 0, 39, 0
3, 148310, Note_on_c, 0, 66, 0
3, 148320, Note_on_c, 0, 54, 78
3, 148320, Note_on_c, 0, 59, 78
3, 148320, Note_on_c, 0, 63, 78
3, 148320, Note_on_c, 0, 27, 74
3, 148355, Note_on_c, 0, 27, 0
3, 148355, Note_on_c, 0, 54, 0
3, 148355, Note_on_c, 0, 59, 0
3, 148355, Note_on_c, 0, 63, 0
3, 148365, Note_on_c, 0, 66, 91
3, 148365, Note_on_c, 0, 39, 91
3, 148400, Note_on_c, 0, 39, 0
3, 148400, Note_on_c, 0, 66, 0
3, 148410, Note_on_c, 0, 54, 78
3, 148410, Note_on_c, 0, 59, 78
3, 148410, Note_on_c, 0, 63, 78
3, 148410, Note_on_c, 0, 27, 74
3, 148445, Note_on_c, 0, 27, 0
3, 148445, Note_on_c, 0, 54, 0
3, 148445, Note_on_c, 0, 59, 0
3, 148445, Note_on_c, 0, 63, 0
3, 148455, Note_on_c, 0, 66, 91
3, 148455, Note_on_c, 0, 39, 91
3, 148490, Note_on_c, 0, 39, 0
3, 148490, Note_on_c, 0, 66, 0
3, 148500, Note_on_c, 0, 54, 78
3, 148500, Note_on_c, 0, 59, 78
3, 148500, Note_on_c, 0, 63, 78
3, 148500, Note_on_c, 0, 27, 74
3, 148535, Note_on_c, 0, 27, 0
3, 148535, Note_on_c, 0, 54, 0
3, 148535, Note_on_c, 0, 59, 0
3, 148535, Note_on_c, 0, 63, 0
3, 148545, Note_on_c, 0, 66, 91
3, 148545, Note_on_c, 0, 39, 91
3, 148580, Note_on_c, 0, 39, 0
3, 148580, Note_on_c, 0, 66, 0
3, 148590, Note_on_c, 0, 54, 78
3, 148590, Note_on_c, 0, 59, 78
3, 148590, Note_on_c, 0, 63, 78
3, 148590, Note_on_c, 0, 27, 74
3, 148625, Note_on_c, 0, 27, 0
3, 148625, Note_on_c, 0, 54, 0
3, 148625, Note_on_c, 0, 59, 0
3, 148625, Note_on_c, 0, 63, 0
3, 148635, Note_on_c, 0, 66, 91
3, 148635, Note_on_c, 0, 39, 91
3, 148670, Note_on_c, 0, 39, 0
3, 148670, Note_on_c, 0, 66, 0
3, 148680, Note_on_c, 0, 55, 78
3, 148680, Note_on_c, 0, 58, 78
3, 148680, Note_on_c, 0, 63, 78
3, 148680, Note_on_c, 0, 27, 75
3, 148715, Note_on_c, 0, 27, 0
3, 148715, Note_on_c, 0, 55, 0
3, 148715, Note_on_c, 0, 58, 0
3, 148715, Note_on_c, 0, 63, 0
3, 148725, Note_on_c, 0, 67, 95
3, 148725, Note_on_c, 0, 39, 95
3, 148760, Note_on_c, 0, 39, 0
3, 148760, Note_on_c, 0, 67, 0
3, 148770, Note_on_c, 0, 55, 78
3, 148770, Note_on_c, 0, 58, 78
3, 148770, Note_on_c, 0, 63, 78
3, 148770, Note_on_c, 0, 27, 75
3, 148805, Note_on_c, 0, 27, 0
3, 148805, Note_on_c, 0, 55, 0
3, 148805, Note_on_c, 0, 58, 0
3, 148805, Note_on_c, 0, 63, 0
3, 148815, Note_on_c, 0, 67, 95
3, 148815, Note_on_c, 0, 39, 95
3, 148850, Note_on_c, 0, 39, 0
3, 148850, Note_on_c, 0, 67, 0
3, 148860, Note_on_c, 0, 55, 78
3, 148860, Note_on_c, 0, 58, 78
3, 148860, Note_on_c, 0, 63, 78
3, 148860, Note_on_c, 0, 27, 75
3, 148895, Note_on_c, 0, 27, 0
3, 148895, Note_on_c, 0, 55, 0
3, 148895, Note_on_c, 0, 58, 0
3, 148895, Note_on_c, 0, 63, 0
3, 148905, Note_on_c, 0, 67, 95
3, 148905, Note_on_c, 0, 39, 95
3, 148940, Note_on_c, 0, 39, 0
3, 148940, Note_on_c, 0, 67, 0
3, 148950, Note_on_c, 0, 55, 78
3, 148950, Note_on_c, 0, 58, 78
3, 148950, Note_on_c, 0, 63, 78
3, 148950, Note_on_c, 0, 27, 75
3, 148985, Note_on_c, 0, 27, 0
3, 148985, Note_on_c, 0, 55, 0
3, 148985, Note_on_c, 0, 58, 0
3, 148985, Note_on_c, 0, 63, 0
3, 148995, Note_on_c, 0, 67, 95
3, 148995, Note_on_c, 0, 39, 95
3, 149030, Note_on_c, 0, 39, 0
3, 149030, Note_on_c, 0, 67, 0
3, 149040, Note_on_c, 0, 55, 78
3, 149040, Note_on_c, 0, 58, 78
3, 149040, Note_on_c, 0, 63, 78
3, 149040, Note_on_c, 0, 27, 75
3, 149075, Note_on_c, 0, 27, 0
3, 149075, Note_on_c, 0, 55, 0
3, 149075, Note_on_c, 0, 58, 0
3, 149075, Note_on_c, 0, 63, 0
3, 149085, Note_on_c, 0, 67, 95
3, 149085, Note_on_c, 0, 39, 95
3, 149120, Note_on_c, 0, 39, 0
3, 149120, Note_on_c, 0, 67, 0
3, 149130, Note_on_c, 0, 55, 78
3, 149130, Note_on_c, 0, 58, 78
3, 149130, Note_on_c, 0, 63, 78
3, 149130, Note_on_c, 0, 27, 75
3, 149165, Note_on_c, 0, 27, 0
3, 149165, Note_on_c, 0, 55, 0
3, 149165, Note_on_c, 0, 58, 0
3, 149165, Note_on_c, 0, 63, 0
3, 149175, Note_on_c, 0, 67, 95
3, 149175, Note_on_c, 0, 39, 95
3, 149210, Note_on_c, 0, 39, 0
3, 149210, Note_on_c, 0, 67, 0
3, 149220, Note_on_c, 0, 55, 78
3, 149220, Note_on_c, 0, 58, 78
3, 149220, Note_on_c, 0, 63, 78
3, 149220, Note_on_c, 0, 27, 75
3, 149255, Note_on_c, 0, 27, 0
3, 149255, Note_on_c, 0, 55, 0
3, 149255, Note_on_c, 0, 58, 0
3, 149255, Note_on_c, 0, 63, 0
3, 149265, Note_on_c, 0, 67, 95
3, 149265, Note_on_c, 0, 39, 95
3, 149300, Note_on_c, 0, 39, 0
3, 149300, Note_on_c, 0, 67, 0
3, 149310, Note_on_c, 0, 55, 78
3, 149310, Note_on_c, 0, 58, 78
3, 149310, Note_on_c, 0, 63, 78
3, 149310, Note_on_c, 0, 27, 75
3, 149345, Note_on_c, 0, 27, 0
3, 149345, Note_on_c, 0, 55, 0
3, 149345, Note_on_c, 0, 58, 0
3, 149345, Note_on_c, 0, 63, 0
3, 149355, Note_on_c, 0, 67, 95
3, 149355, Note_on_c, 0, 39, 95
3, 149390, Note_on_c, 0, 39, 0
3, 149390, Note_on_c, 0, 67, 0
3, 149400, Note_on_c, 0, 55, 78
3, 149400, Note_on_c, 0, 58, 78
3, 149400, Note_on_c, 0, 63, 78
3, 149400, Note_on_c, 0, 27, 75
3, 149435, Note_on_c, 0, 27, 0
3, 149435, Note_on_c, 0, 55, 0
3, 149435, Note_on_c, 0, 58, 0
3, 149435, Note_on_c, 0, 63, 0
3, 149445, Note_on_c, 0, 67, 95
3, 149445, Note_on_c, 0, 39, 95
3, 149480, Note_on_c, 0, 39, 0
3, 149480, Note_on_c, 0, 67, 0
3, 149490, Note_on_c, 0, 55, 78
3, 149490, Note_on_c, 0, 58, 78
3, 149490, Note_on_c, 0, 63, 78
3, 149490, Note_on_c, 0, 27, 75
3, 149525, Note_on_c, 0, 27, 0
3, 149525, Note_on_c, 0, 55, 0
3, 149525, Note_on_c, 0, 58, 0
3, 149525, Note_on_c, 0, 63, 0
3, 149535, Note_on_c, 0, 67, 95
3, 149535, Note_on_c, 0, 39, 95
3, 149570, Note_on_c, 0, 39, 0
3, 149570, Note_on_c, 0, 67, 0
3, 149580, Note_on_c, 0, 55, 78
3, 149580, Note_on_c, 0, 58, 78
3, 149580, Note_on_c, 0, 63, 78
3, 149580, Note_on_c, 0, 27, 75
3, 149615, Note_on_c, 0, 27, 0
3, 149615, Note_on_c, 0, 55, 0
3, 149615, Note_on_c, 0, 58, 0
3, 149615, Note_on_c, 0, 63, 0
3, 149625, Note_on_c, 0, 67, 95
3, 149625, Note_on_c, 0, 39, 95
3, 149660, Note_on_c, 0, 39, 0
3, 149660, Note_on_c, 0, 67, 0
3, 149670, Note_on_c, 0, 55, 78
3, 149670, Note_on_c, 0, 58, 78
3, 149670, Note_on_c, 0, 63, 78
3, 149670, Note_on_c, 0, 27, 75
3, 149705, Note_on_c, 0, 27, 0
3, 149705, Note_on_c, 0, 55, 0
3, 149705, Note_on_c, 0, 58, 0
3, 149705, Note_on_c, 0, 63, 0
3, 149715, Note_on_c, 0, 67, 95
3, 149715, Note_on_c, 0, 39, 95
3, 149750, Note_on_c, 0, 39, 0
3, 149750, Note_on_c, 0, 67, 0
3, 149760, Note_on_c, 0, 55, 78
3, 149760, Note_on_c, 0, 58, 78
3, 149760, Note_on_c, 0, 63, 78
3, 149760, Note_on_c, 0, 55, 76
3, 149760, Note_on_c, 0, 58, 76
3, 149760, Note_on_c, 0, 27, 75
3, 149760, Note_on_c, 0, 27, 74
3, 149795, Note_on_c, 0, 27, 0
3, 149795, Note_on_c, 0, 58, 0
3, 149795, Note_on_c, 0, 58, 0
3, 149795, Note_on_c, 0, 63, 0
3, 149795, Note_on_c, 0, 55, 0
3, 149795, Note_on_c, 0, 27, 0
3, 149795, Note_on_c, 0, 55, 0
3, 149805, Note_on_c, 0, 63, 94
3, 149805, Note_on_c, 0, 39, 93
3, 149840, Note_on_c, 0, 39, 0
3, 149840, Note_on_c, 0, 63, 0
3, 149850, Note_on_c, 0, 55, 76
3, 149850, Note_on_c, 0, 58, 76
3, 149850, Note_on_c, 0, 27, 74
3, 149885, Note_on_c, 0, 27, 0
3, 149885, Note_on_c, 0, 58, 0
3, 149885, Note_on_c, 0, 55, 0
3, 149895, Note_on_c, 0, 63, 94
3, 149895, Note_on_c, 0, 39, 93
3, 149930, Note_on_c, 0, 39, 0
3, 149930, Note_on_c, 0, 63, 0
3, 149940, Note_on_c, 0, 55, 76
3, 149940, Note_on_c, 0, 58, 76
3, 149940, Note_on_c, 0, 27, 74
3, 149975, Note_on_c, 0, 27, 0
3, 149975, Note_on_c, 0, 58, 0
3, 149975, Note_on_c, 0, 55, 0
3, 149985, Note_on_c, 0, 63, 94
3, 149985, Note_on_c, 0, 39, 93
3, 150020, Note_on_c, 0, 39, 0
3, 150020, Note_on_c, 0, 63, 0
3, 150030, Note_on_c, 0, 55, 76
3, 150030, Note_on_c, 0, 58, 76
3, 150030, Note_on_c, 0, 27, 74
3, 150065, Note_on_c, 0, 27, 0
3, 150065, Note_on_c, 0, 58, 0
3, 150065, Note_on_c, 0, 55, 0
3, 150075, Note_on_c, 0, 63, 94
3, 150075, Note_on_c, 0, 39, 93
3, 150110, Note_on_c, 0, 39, 0
3, 150110, Note_on_c, 0, 63, 0
3, 150120, Note_on_c, 0, 55, 76
3, 150120, Note_on_c, 0, 58, 76
3, 150120, Note_on_c, 0, 27, 74
3, 150155, Note_on_c, 0, 27, 0
3, 150155, Note_on_c, 0, 58, 0
3, 150155, Note_on_c, 0, 55, 0
3, 150165, Note_on_c, 0, 63, 94
3, 150165, Note_on_c, 0, 39, 93
3, 150200, Note_on_c, 0, 39, 0
3, 150200, Note_on_c, 0, 63, 0
3, 150210, Note_on_c, 0, 55, 76
3, 150210, Note_on_c, 0, 58, 76
3, 150210, Note_on_c, 0, 27, 74
3, 150245, Note_on_c, 0, 27, 0
3, 150245, Note_on_c, 0, 58, 0
3, 150245, Note_on_c, 0, 55, 0
3, 150255, Note_on_c, 0, 63, 94
3, 150255, Note_on_c, 0, 39, 93
3, 150290, Note_on_c, 0, 39, 0
3, 150290, Note_on_c, 0, 63, 0
3, 150300, Note_on_c, 0, 55, 76
3, 150300, Note_on_c, 0, 58, 76
3, 150300, Note_on_c, 0, 27, 74
3, 150335, Note_on_c, 0, 27, 0
3, 150335, Note_on_c, 0, 58, 0
3, 150335, Note_on_c, 0, 55, 0
3, 150345, Note_on_c, 0, 63, 94
3, 150345, Note_on_c, 0, 39, 93
3, 150380, Note_on_c, 0, 39, 0
3, 150380, Note_on_c, 0, 63, 0
3, 150390, Note_on_c, 0, 55, 76
3, 150390, Note_on_c, 0, 58, 76
3, 150390, Note_on_c, 0, 27, 74
3, 150425, Note_on_c, 0, 27, 0
3, 150425, Note_on_c, 0, 58, 0
3, 150425, Note_on_c, 0, 55, 0
3, 150435, Note_on_c, 0, 63, 94
3, 150435, Note_on_c, 0, 39, 93
3, 150470, Note_on_c, 0, 39, 0
3, 150470, Note_on_c, 0, 63, 0
3, 150480, Note_on_c, 0, 55, 76
3, 150480, Note_on_c, 0, 58, 76
3, 150480, Note_on_c, 0, 27, 74
3, 150515, Note_on_c, 0, 27, 0
3, 150515, Note_on_c, 0, 58, 0
3, 150515, Note_on_c, 0, 55, 0
3, 150525, Note_on_c, 0, 63, 94
3, 150525, Note_on_c, 0, 39, 93
3, 150560, Note_on_c, 0, 39, 0
3, 150560, Note_on_c, 0, 63, 0
3, 150570, Note_on_c, 0, 55, 76
3, 150570, Note_on_c, 0, 58, 76
3, 150570, Note_on_c, 0, 27, 74
3, 150605, Note_on_c, 0, 27, 0
3, 150605, Note_on_c, 0, 58, 0
3, 150605, Note_on_c, 0, 55, 0
3, 150615, Note_on_c, 0, 63, 94
3, 150615, Note_on_c, 0, 39, 93
3, 150650, Note_on_c, 0, 39, 0
3, 150650, Note_on_c, 0, 63, 0
3, 150660, Note_on_c, 0, 55, 76
3, 150660, Note_on_c, 0, 58, 76
3, 150660, Note_on_c, 0, 27, 74
3, 150695, Note_on_c, 0, 27, 0
3, 150695, Note_on_c, 0, 58, 0
3, 150695, Note_on_c, 0, 55, 0
3, 150705, Note_on_c, 0, 63, 94
3, 150705, Note_on_c, 0, 39, 93
3, 150740, Note_on_c, 0, 39, 0
3, 150740, Note_on_c, 0, 63, 0
3, 150750, Note_on_c, 0, 55, 76
3, 150750, Note_on_c, 0, 58, 76
3, 150750, Note_on_c, 0, 27, 74
3, 150785, Note_on_c, 0, 27, 0
3, 150785, Note_on_c, 0, 58, 0
3, 150785, Note_on_c, 0, 55, 0
3, 150795, Note_on_c, 0, 63, 94
3, 150795, Note_on_c, 0, 39, 93
3, 150830, Note_on_c, 0, 39, 0
3, 150830, Note_on_c, 0, 63, 0
3, 150840, Note_on_c, 0, 51, 78
3, 150840, Note_on_c, 0, 55, 78
3, 150840, Note_on_c, 0, 27, 72
3, 150875, Note_on_c, 0, 27, 0
3, 150875, Note_on_c, 0, 55, 0
3, 150875, Note_on_c, 0, 51, 0
3, 150885, Note_on_c, 0, 58, 85
3, 150885, Note_on_c, 0, 39, 91
3, 150920, Note_on_c, 0, 39, 0
3, 150920, Note_on_c, 0, 58, 0
3, 150930, Note_on_c, 0, 51, 78
3, 150930, Note_on_c, 0, 55, 78
3, 150930, Note_on_c, 0, 27, 72
3, 150965, Note_on_c, 0, 27, 0
3, 150965, Note_on_c, 0, 55, 0
3, 150965, Note_on_c, 0, 51, 0
3, 150975, Note_on_c, 0, 58, 85
3, 150975, Note_on_c, 0, 39, 91
3, 151010, Note_on_c, 0, 39, 0
3, 151010, Note_on_c, 0, 58, 0
3, 151020, Note_on_c, 0, 51, 78
3, 151020, Note_on_c, 0, 55, 78
3, 151020, Note_on_c, 0, 27, 72
3, 151055, Note_on_c, 0, 27, 0
3, 151055, Note_on_c, 0, 55, 0
3, 151055, Note_on_c, 0, 51, 0
3, 151065, Note_on_c, 0, 58, 85
3, 151065, Note_on_c, 0, 39, 91
3, 151100, Note_on_c, 0, 39, 0
3, 151100, Note_on_c, 0, 58, 0
3, 151110, Note_on_c, 0, 51, 78
3, 151110, Note_on_c, 0, 55, 78
3, 151110, Note_on_c, 0, 27, 72
3, 151145, Note_on_c, 0, 27, 0
3, 151145, Note_on_c, 0, 55, 0
3, 151145, Note_on_c, 0, 51, 0
3, 151155, Note_on_c, 0, 58, 85
3, 151155, Note_on_c, 0, 39, 91
3, 151190, Note_on_c, 0, 39, 0
3, 151190, Note_on_c, 0, 58, 0
3, 151200, Note_on_c, 0, 51, 78
3, 151200, Note_on_c, 0, 55, 78
3, 151200, Note_on_c, 0, 27, 72
3, 151235, Note_on_c, 0, 27, 0
3, 151235, Note_on_c, 0, 55, 0
3, 151235, Note_on_c, 0, 51, 0
3, 151245, Note_on_c, 0, 58, 85
3, 151245, Note_on_c, 0, 39, 91
3, 151280, Note_on_c, 0, 39, 0
3, 151280, Note_on_c, 0, 58, 0
3, 151290, Note_on_c, 0, 51, 78
3, 151290, Note_on_c, 0, 55, 78
3, 151290, Note_on_c, 0, 27, 72
3, 151325, Note_on_c, 0, 27, 0
3, 151325, Note_on_c, 0, 55, 0
3, 151325, Note_on_c, 0, 51, 0
3, 151335, Note_on_c, 0, 58, 85
3, 151335, Note_on_c, 0, 39, 91
3, 151370, Note_on_c, 0, 39, 0
3, 151370, Note_on_c, 0, 58, 0
3, 151380, Note_on_c, 0, 51, 78
3, 151380, Note_on_c, 0, 55, 78
3, 151380, Note_on_c, 0, 27, 72
3, 151415, Note_on_c, 0, 27, 0
3, 151415, Note_on_c, 0, 55, 0
3, 151415, Note_on_c, 0, 51, 0
3, 151425, Note_on_c, 0, 58, 85
3, 151425, Note_on_c, 0, 39, 91
3, 151460, Note_on_c, 0, 39, 0
3, 151460, Note_on_c, 0, 58, 0
3, 151470, Note_on_c, 0, 51, 78
3, 151470, Note_on_c, 0, 55, 78
3, 151470, Note_on_c, 0, 27, 72
3, 151505, Note_on_c, 0, 27, 0
3, 151505, Note_on_c, 0, 55, 0
3, 151505, Note_on_c, 0, 51, 0
3, 151515, Note_on_c, 0, 58, 85
3, 151515, Note_on_c, 0, 39, 91
3, 151550, Note_on_c, 0, 39, 0
3, 151550, Note_on_c, 0, 58, 0
3, 151560, Note_on_c, 0, 51, 78
3, 151560, Note_on_c, 0, 55, 78
3, 151560, Note_on_c, 0, 27, 72
3, 151595, Note_on_c, 0, 27, 0
3, 151595, Note_on_c, 0, 55, 0
3, 151595, Note_on_c, 0, 51, 0
3, 151605, Note_on_c, 0, 58, 85
3, 151605, Note_on_c, 0, 39, 91
3, 151640, Note_on_c, 0, 39, 0
3, 151640, Note_on_c, 0, 58, 0
3, 151650, Note_on_c, 0, 51, 78
3, 151650, Note_on_c, 0, 55, 78
3, 151650, Note_on_c, 0, 27, 72
3, 151685, Note_on_c, 0, 27, 0
3, 151685, Note_on_c, 0, 55, 0
3, 151685, Note_on_c, 0, 51, 0
3, 151695, Note_on_c, 0, 58, 85
3, 151695, Note_on_c, 0, 39, 91
3, 151730, Note_on_c, 0, 39, 0
3, 151730, Note_on_c, 0, 58, 0
3, 151740, Note_on_c, 0, 51, 78
3, 151740, Note_on_c, 0, 55, 78
3, 151740, Note_on_c, 0, 27, 72
3, 151775, Note_on_c, 0, 27, 0
3, 151775, Note_on_c, 0, 55, 0
3, 151775, Note_on_c, 0, 51, 0
3, 151785, Note_on_c, 0, 58, 85
3, 151785, Note_on_c, 0, 39, 91
3, 151820, Note_on_c, 0, 39, 0
3, 151820, Note_on_c, 0, 58, 0
3, 151830, Note_on_c, 0, 51, 78
3, 151830, Note_on_c, 0, 55, 78
3, 151830, Note_on_c, 0, 27, 72
3, 151865, Note_on_c, 0, 27, 0
3, 151865, Note_on_c, 0, 55, 0
3, 151865, Note_on_c, 0, 51, 0
3, 151875, Note_on_c, 0, 58, 85
3, 151875, Note_on_c, 0, 39, 91
3, 151910, Note_on_c, 0, 39, 0
3, 151910, Note_on_c, 0, 58, 0
3, 151920, Note_on_c, 0, 51, 78
3, 151920, Note_on_c, 0, 55, 78
3, 151920, Note_on_c, 0, 51, 81
3, 151920, Note_on_c, 0, 55, 81
3, 151920, Note_on_c, 0, 27, 72
3, 151920, Note_on_c, 0, 27, 75
3, 151955, Note_on_c, 0, 27, 0
3, 151955, Note_on_c, 0, 55, 0
3, 151955, Note_on_c, 0, 51, 0
3, 151955, Note_on_c, 0, 51, 0
3, 151955, Note_on_c, 0, 27, 0
3, 151955, Note_on_c, 0, 55, 0
3, 151965, Note_on_c, 0, 58, 84
3, 151965, Note_on_c, 0, 39, 91
3, 152000, Note_on_c, 0, 39, 0
3, 152000, Note_on_c, 0, 58, 0
3, 152010, Note_on_c, 0, 51, 81
3, 152010, Note_on_c, 0, 55, 81
3, 152010, Note_on_c, 0, 27, 75
3, 152045, Note_on_c, 0, 27, 0
3, 152045, Note_on_c, 0, 55, 0
3, 152045, Note_on_c, 0, 51, 0
3, 152055, Note_on_c, 0, 58, 84
3, 152055, Note_on_c, 0, 39, 91
3, 152090, Note_on_c, 0, 39, 0
3, 152090, Note_on_c, 0, 58, 0
3, 152100, Note_on_c, 0, 51, 81
3, 152100, Note_on_c, 0, 55, 81
3, 152100, Note_on_c, 0, 27, 75
3, 152135, Note_on_c, 0, 27, 0
3, 152135, Note_on_c, 0, 55, 0
3, 152135, Note_on_c, 0, 51, 0
3, 152145, Note_on_c, 0, 58, 84
3, 152145, Note_on_c, 0, 39, 91
3, 152180, Note_on_c, 0, 39, 0
3, 152180, Note_on_c, 0, 58, 0
3, 152190, Note_on_c, 0, 51, 81
3, 152190, Note_on_c, 0, 55, 81
3, 152190, Note_on_c, 0, 27, 75
3, 152225, Note_on_c, 0, 27, 0
3, 152225, Note_on_c, 0, 55, 0
3, 152225, Note_on_c, 0, 51, 0
3, 152235, Note_on_c, 0, 58, 84
3, 152235, Note_on_c, 0, 39, 91
3, 152270, Note_on_c, 0, 39, 0
3, 152270, Note_on_c, 0, 58, 0
3, 152280, Note_on_c, 0, 51, 81
3, 152280, Note_on_c, 0, 55, 81
3, 152280, Note_on_c, 0, 27, 75
3, 152315, Note_on_c, 0, 27, 0
3, 152315, Note_on_c, 0, 55, 0
3, 152315, Note_on_c, 0, 51, 0
3, 152325, Note_on_c, 0, 58, 84
3, 152325, Note_on_c, 0, 39, 91
3, 152360, Note_on_c, 0, 39, 0
3, 152360, Note_on_c, 0, 58, 0
3, 152370, Note_on_c, 0, 51, 81
3, 152370, Note_on_c, 0, 55, 81
3, 152370, Note_on_c, 0, 27, 75
3, 152405, Note_on_c, 0, 27, 0
3, 152405, Note_on_c, 0, 55, 0
3, 152405, Note_on_c, 0, 51, 0
3, 152415, Note_on_c, 0, 58, 84
3, 152415, Note_on_c, 0, 39, 91
3, 152450, Note_on_c, 0, 39, 0
3, 152450, Note_on_c, 0, 58, 0
3, 152460, Note_on_c, 0, 51, 81
3, 152460, Note_on_c, 0, 55, 81
3, 152460, Note_on_c, 0, 27, 75
3, 152495, Note_on_c, 0, 27, 0
3, 152495, Note_on_c, 0, 55, 0
3, 152495, Note_on_c, 0, 51, 0
3, 152505, Note_on_c, 0, 58, 84
3, 152505, Note_on_c, 0, 39, 91
3, 152540, Note_on_c, 0, 39, 0
3, 152540, Note_on_c, 0, 58, 0
3, 152550, Note_on_c, 0, 51, 81
3, 152550, Note_on_c, 0, 55, 81
3, 152550, Note_on_c, 0, 27, 75
3, 152585, Note_on_c, 0, 27, 0
3, 152585, Note_on_c, 0, 55, 0
3, 152585, Note_on_c, 0, 51, 0
3, 152595, Note_on_c, 0, 58, 84
3, 152595, Note_on_c, 0, 39, 91
3, 152630, Note_on_c, 0, 39, 0
3, 152630, Note_on_c, 0, 58, 0
3, 152640, Note_on_c, 0, 51, 81
3, 152640, Note_on_c, 0, 55, 81
3, 152640, Note_on_c, 0, 27, 75
3, 152675, Note_on_c, 0, 27, 0
3, 152675, Note_on_c, 0, 55, 0
3, 152675, Note_on_c, 0, 51, 0
3, 152685, Note_on_c, 0, 58, 84
3, 152685, Note_on_c, 0, 39, 91
3, 152720, Note_on_c, 0, 39, 0
3, 152720, Note_on_c, 0, 58, 0
3, 152730, Note_on_c, 0, 51, 81
3, 152730, Note_on_c, 0, 55, 81
3, 152730, Note_on_c, 0, 27, 75
3, 152765, Note_on_c, 0, 27, 0
3, 152765, Note_on_c, 0, 55, 0
3, 152765, Note_on_c, 0, 51, 0
3, 152775, Note_on_c, 0, 58, 84
3, 152775, Note_on_c, 0, 39, 91
3, 152810, Note_on_c, 0, 39, 0
3, 152810, Note_on_c, 0, 58, 0
3, 152820, Note_on_c, 0, 51, 81
3, 152820, Note_on_c, 0, 55, 81
3, 152820, Note_on_c, 0, 27, 75
3, 152855, Note_on_c, 0, 27, 0
3, 152855, Note_on_c, 0, 55, 0
3, 152855, Note_on_c, 0, 51, 0
3, 152865, Note_on_c, 0, 58, 84
3, 152865, Note_on_c, 0, 39, 91
3, 152900, Note_on_c, 0, 39, 0
3, 152900, Note_on_c, 0, 58, 0
3, 152910, Note_on_c, 0, 51, 81
3, 152910, Note_on_c, 0, 55, 81
3, 152910, Note_on_c, 0, 27, 75
3, 152945, Note_on_c, 0, 27, 0
3, 152945, Note_on_c, 0, 55, 0
3, 152945, Note_on_c, 0, 51, 0
3, 152955, Note_on_c, 0, 58, 84
3, 152955, Note_on_c, 0, 39, 91
3, 152990, Note_on_c, 0, 39, 0
3, 152990, Note_on_c, 0, 58, 0
3, 153000, Note_on_c, 0, 51, 80
3, 153000, Note_on_c, 0, 55, 80
3, 153000, Note_on_c, 0, 58, 80
3, 153000, Note_on_c, 0, 27, 85
3, 153000, Note_on_c, 0, 39, 85
3, 153180, Note_on_c, 0, 39, 0
3, 153180, Note_on_c, 0, 58, 0
3, 153180, Note_on_c, 0, 51, 0
3, 153180, Note_on_c, 0, 55, 0
3, 153180, Note_on_c, 0, 27, 0
3, 154080, Note_on_c, 0, 51, 77
3, 154080, Note_on_c, 0, 39, 72
3, 154080, Note_on_c, 0, 46, 72
3, 155070, Note_on_c, 0, 46, 0
3, 155070, Note_on_c, 0, 39, 0
3, 155070, Note_on_c, 0, 51, 0
3, 155070, Note_on_c, 0, 51, 83
3, 155070, Note_on_c, 0, 39, 77
3, 155160, Note_on_c, 0, 39, 0
3, 155160, Note_on_c, 0, 51, 0
3, 155160, Note_on_c, 0, 46, 83
3, 155160, Note_on_c, 0, 51, 83
3, 155160, Note_on_c, 0, 27, 73
3, 155195, Note_on_c, 0, 27, 0
3, 155205, Note_on_c, 0, 39, 91
3, 155240, Note_on_c, 0, 39, 0
3, 155250, Note_on_c, 0, 27, 73
3, 155285, Note_on_c, 0, 27, 0
3, 155295, Note_on_c, 0, 39, 91
3, 155330, Note_on_c, 0, 39, 0
3, 155340, Note_on_c, 0, 27, 73
3, 155375, Note_on_c, 0, 27, 0
3, 155385, Note_on_c, 0, 39, 91
3, 155420, Note_on_c, 0, 39, 0
3, 155430, Note_on_c, 0, 27, 73
3, 155465, Note_on_c, 0, 27, 0
3, 155475, Note_on_c, 0, 39, 91
3, 155510, Note_on_c, 0, 39, 0
3, 155520, Note_on_c, 0, 27, 73
3, 155555, Note_on_c, 0, 27, 0
3, 155565, Note_on_c, 0, 39, 91
3, 155600, Note_on_c, 0, 39, 0
3, 155610, Note_on_c, 0, 27, 73
3, 155645, Note_on_c, 0, 27, 0
3, 155655, Note_on_c, 0, 39, 91
3, 155690, Note_on_c, 0, 39, 0
3, 155700, Note_on_c, 0, 27, 73
3, 155735, Note_on_c, 0, 27, 0
3, 155745, Note_on_c, 0, 39, 91
3, 155780, Note_on_c, 0, 39, 0
3, 155790, Note_on_c, 0, 27, 73
3, 155825, Note_on_c, 0, 27, 0
3, 155835, Note_on_c, 0, 39, 91
3, 155870, Note_on_c, 0, 39, 0
3, 155880, Note_on_c, 0, 27, 73
3, 155915, Note_on_c, 0, 27, 0
3, 155925, Note_on_c, 0, 39, 91
3, 155960, Note_on_c, 0, 39, 0
3, 155970, Note_on_c, 0, 27, 73
3, 156005, Note_on_c, 0, 27, 0
3, 156015, Note_on_c, 0, 39, 91
3, 156050, Note_on_c, 0, 39, 0
3, 156060, Note_on_c, 0, 27, 73
3, 156095, Note_on_c, 0, 27, 0
3, 156105, Note_on_c, 0, 39, 91
3, 156140, Note_on_c, 0, 39, 0
3, 156150, Note_on_c, 0, 27, 73
3, 156185, Note_on_c, 0, 27, 0
3, 156195, Note_on_c, 0, 39, 91
3, 156230, Note_on_c, 0, 39, 0
3, 156240, Note_on_c, 0, 27, 73
3, 156240, Note_on_c, 0, 27, 72
3, 156275, Note_on_c, 0, 27, 0
3, 156420, Note_on_c, 0, 46, 0
3, 156420, Note_on_c, 0, 51, 0
3, 156420, Note_on_c, 0, 27, 0
3, 156420, End_track
0, 0, End_of_file
