0, 0, Header, 0, 1, 480
1, 0, Start_track
1, 0, Title_t, "Sonata No. 2    Chu-Fang Huang"
1, 0, Text_t, "Rachmaninov Sonata No. 2, Opus 36 performed on the Yamaha Disklavier by Chu-Fang Huang--06/09/02\012"
1, 0, System_exclusive, 5, 126, 127, 9, 1, 247
1, 1, System_exclusive, 8, 67, 16, 76, 0, 0, 126, 0, 247
1, 2, System_exclusive, 6, 67, 113, 126, 10, 0, 247
1, 2, Time_signature, 4, 2, 24, 8
1, 2, Key_signature, 0, "major"
1, 2, Tempo, 512821
1, 482, Control_c, 0, 0, 0
1, 483, Control_c, 0, 32, 0
1, 483, Program_c, 0, 0
1, 484, Control_c, 0, 7, 105
1, 2726, Control_c, 0, 64, 12
1, 2745, Control_c, 0, 64, 24
1, 2764, Control_c, 0, 64, 32
1, 2838, Control_c, 0, 64, 27
1, 2914, Control_c, 0, 64, 10
1, 2931, Control_c, 0, 64, 0
1, 3792, Control_c, 0, 64, 67
1, 3810, Control_c, 0, 64, 127
1, 3885, Note_on_c, 0, 65, 91
1, 4043, Note_on_c, 0, 63, 72
1, 4084, Note_on_c, 0, 65, 0
1, 4084, Poly_aftertouch_c, 0, 65, 0
1, 4101, Note_on_c, 0, 61, 80
1, 4135, Note_on_c, 0, 63, 0
1, 4135, Poly_aftertouch_c, 0, 63, 0
1, 4154, Note_on_c, 0, 58, 78
1, 4171, Note_on_c, 0, 61, 0
1, 4186, Note_on_c, 0, 58, 0
1, 4186, Poly_aftertouch_c, 0, 58, 0
1, 4210, Note_on_c, 0, 53, 72
1, 4273, Note_on_c, 0, 49, 80
1, 4287, Note_on_c, 0, 53, 0
1, 4287, Poly_aftertouch_c, 0, 53, 0
1, 4328, Note_on_c, 0, 46, 72
1, 4361, Note_on_c, 0, 49, 0
1, 4361, Poly_aftertouch_c, 0, 49, 0
1, 4376, Note_on_c, 0, 41, 82
1, 4400, Note_on_c, 0, 46, 0
1, 4400, Poly_aftertouch_c, 0, 46, 0
1, 4419, Note_on_c, 0, 41, 0
1, 4475, Note_on_c, 0, 39, 73
1, 4534, Note_on_c, 0, 37, 74
1, 4560, Note_on_c, 0, 39, 0
1, 4605, Note_on_c, 0, 37, 0
1, 4614, Note_on_c, 0, 34, 102
1, 4626, Note_on_c, 0, 22, 93
1, 4653, Note_on_c, 0, 22, 0
1, 4656, Note_on_c, 0, 34, 0
1, 4656, Poly_aftertouch_c, 0, 34, 0
1, 4673, Note_on_c, 0, 35, 27
1, 4725, Note_on_c, 0, 35, 0
1, 4725, Poly_aftertouch_c, 0, 35, 0
1, 4761, Poly_aftertouch_c, 0, 25, 0
1, 5276, Note_on_c, 0, 89, 98
1, 5281, Note_on_c, 0, 65, 86
1, 5282, Note_on_c, 0, 77, 87
1, 5285, Note_on_c, 0, 82, 84
1, 5288, Note_on_c, 0, 53, 71
1, 5288, Note_on_c, 0, 61, 78
1, 5300, Note_on_c, 0, 58, 69
1, 5303, Note_on_c, 0, 77, 0
1, 5307, Note_on_c, 0, 82, 0
1, 5315, Note_on_c, 0, 65, 0
1, 5315, Poly_aftertouch_c, 0, 65, 0
1, 5317, Note_on_c, 0, 53, 0
1, 5317, Poly_aftertouch_c, 0, 53, 0
1, 5318, Note_on_c, 0, 89, 0
1, 5318, Poly_aftertouch_c, 0, 89, 0
1, 5327, Note_on_c, 0, 61, 0
1, 5337, Note_on_c, 0, 58, 0
1, 5337, Poly_aftertouch_c, 0, 58, 0
1, 5575, Note_on_c, 0, 73, 93
1, 5577, Note_on_c, 0, 85, 95
1, 5586, Note_on_c, 0, 65, 88
1, 5586, Note_on_c, 0, 82, 84
1, 5592, Note_on_c, 0, 53, 75
1, 5592, Note_on_c, 0, 61, 84
1, 5605, Note_on_c, 0, 73, 0
1, 5613, Note_on_c, 0, 65, 0
1, 5613, Poly_aftertouch_c, 0, 65, 0
1, 5621, Note_on_c, 0, 53, 0
1, 5621, Poly_aftertouch_c, 0, 53, 0
1, 5625, Note_on_c, 0, 61, 0
1, 5627, Poly_aftertouch_c, 0, 58, 127
1, 5629, Note_on_c, 0, 85, 0
1, 5637, Note_on_c, 0, 82, 0
1, 5644, Poly_aftertouch_c, 0, 58, 0
1, 6218, Note_on_c, 0, 77, 60
1, 6221, Note_on_c, 0, 73, 53
1, 6451, Note_on_c, 0, 77, 0
1, 6455, Note_on_c, 0, 73, 0
1, 6559, Note_on_c, 0, 70, 39
1, 6561, Note_on_c, 0, 61, 40
1, 6633, Note_on_c, 0, 61, 0
1, 6633, Note_on_c, 0, 65, 36
1, 6642, Note_on_c, 0, 70, 0
1, 6642, Poly_aftertouch_c, 0, 70, 0
1, 6688, Note_on_c, 0, 65, 0
1, 6688, Poly_aftertouch_c, 0, 65, 0
1, 6707, Note_on_c, 0, 77, 62
1, 6724, Note_on_c, 0, 73, 57
1, 6781, Note_on_c, 0, 73, 0
1, 6785, Note_on_c, 0, 77, 0
1, 6852, Note_on_c, 0, 61, 42
1, 6861, Note_on_c, 0, 70, 37
1, 6899, Note_on_c, 0, 70, 0
1, 6899, Poly_aftertouch_c, 0, 70, 0
1, 6901, Note_on_c, 0, 61, 0
1, 6932, Note_on_c, 0, 65, 31
1, 6967, Note_on_c, 0, 73, 56
1, 6979, Note_on_c, 0, 77, 56
1, 6987, Note_on_c, 0, 65, 0
1, 6987, Poly_aftertouch_c, 0, 65, 0
1, 7024, Note_on_c, 0, 73, 0
1, 7028, Note_on_c, 0, 77, 0
1, 7066, Note_on_c, 0, 61, 48
1, 7068, Note_on_c, 0, 70, 39
1, 7114, Note_on_c, 0, 61, 0
1, 7119, Note_on_c, 0, 70, 0
1, 7119, Poly_aftertouch_c, 0, 70, 0
1, 7156, Note_on_c, 0, 65, 48
1, 7213, Note_on_c, 0, 73, 49
1, 7216, Note_on_c, 0, 77, 68
1, 7218, Note_on_c, 0, 65, 0
1, 7218, Poly_aftertouch_c, 0, 65, 0
1, 7266, Note_on_c, 0, 73, 0
1, 7290, Note_on_c, 0, 77, 0
1, 7318, Note_on_c, 0, 61, 53
1, 7324, Note_on_c, 0, 70, 46
1, 7362, Note_on_c, 0, 61, 0
1, 7363, Note_on_c, 0, 70, 0
1, 7363, Poly_aftertouch_c, 0, 70, 0
1, 7411, Note_on_c, 0, 65, 47
1, 7454, Note_on_c, 0, 65, 0
1, 7454, Note_on_c, 0, 77, 72
1, 7454, Poly_aftertouch_c, 0, 65, 0
1, 7464, Note_on_c, 0, 73, 53
1, 7503, Note_on_c, 0, 73, 0
1, 7531, Note_on_c, 0, 77, 0
1, 7547, Note_on_c, 0, 70, 50
1, 7552, Note_on_c, 0, 61, 52
1, 7592, Note_on_c, 0, 70, 0
1, 7592, Poly_aftertouch_c, 0, 70, 0
1, 7596, Note_on_c, 0, 61, 0
1, 7620, Note_on_c, 0, 65, 61
1, 7669, Note_on_c, 0, 65, 0
1, 7669, Poly_aftertouch_c, 0, 65, 0
1, 7690, Note_on_c, 0, 77, 74
1, 7701, Note_on_c, 0, 73, 28
1, 7757, Note_on_c, 0, 73, 0
1, 7770, Note_on_c, 0, 77, 0
1, 7779, Note_on_c, 0, 70, 58
1, 7786, Note_on_c, 0, 61, 54
1, 7812, Note_on_c, 0, 70, 0
1, 7812, Poly_aftertouch_c, 0, 70, 0
1, 7823, Note_on_c, 0, 61, 0
1, 7827, Note_on_c, 0, 65, 62
1, 7860, Note_on_c, 0, 65, 0
1, 7860, Poly_aftertouch_c, 0, 65, 0
1, 7899, Note_on_c, 0, 77, 77
1, 7981, Note_on_c, 0, 65, 64
1, 8020, Note_on_c, 0, 65, 0
1, 8020, Poly_aftertouch_c, 0, 65, 0
1, 8058, Note_on_c, 0, 73, 72
1, 8063, Note_on_c, 0, 70, 65
1, 8093, Note_on_c, 0, 77, 0
1, 8098, Note_on_c, 0, 70, 0
1, 8098, Poly_aftertouch_c, 0, 70, 0
1, 8167, Note_on_c, 0, 65, 88
1, 8392, Note_on_c, 0, 73, 0
1, 8556, Note_on_c, 0, 64, 90
1, 8571, Note_on_c, 0, 65, 0
1, 8571, Poly_aftertouch_c, 0, 65, 0
1, 8708, Note_on_c, 0, 65, 54
1, 8751, Note_on_c, 0, 65, 0
1, 8751, Poly_aftertouch_c, 0, 65, 0
1, 8756, Note_on_c, 0, 73, 47
1, 8771, Note_on_c, 0, 70, 45
1, 8807, Note_on_c, 0, 77, 66
1, 8809, Note_on_c, 0, 73, 0
1, 8811, Note_on_c, 0, 63, 91
1, 8816, Note_on_c, 0, 70, 0
1, 8816, Poly_aftertouch_c, 0, 70, 0
1, 8819, Note_on_c, 0, 64, 0
1, 8966, Note_on_c, 0, 65, 51
1, 8994, Note_on_c, 0, 73, 56
1, 8997, Note_on_c, 0, 70, 46
1, 8998, Note_on_c, 0, 65, 0
1, 8998, Poly_aftertouch_c, 0, 65, 0
1, 9012, Note_on_c, 0, 63, 0
1, 9012, Poly_aftertouch_c, 0, 63, 0
1, 9024, Note_on_c, 0, 77, 0
1, 9053, Note_on_c, 0, 70, 0
1, 9053, Poly_aftertouch_c, 0, 70, 0
1, 9078, Note_on_c, 0, 61, 89
1, 9083, Note_on_c, 0, 73, 0
1, 9176, Control_c, 0, 64, 122
1, 9196, Control_c, 0, 64, 81
1, 9202, Note_on_c, 0, 65, 54
1, 9233, Control_c, 0, 64, 0
1, 9256, Note_on_c, 0, 65, 0
1, 9256, Poly_aftertouch_c, 0, 65, 0
1, 9277, Note_on_c, 0, 73, 53
1, 9289, Control_c, 0, 64, 54
1, 9295, Note_on_c, 0, 70, 47
1, 9308, Control_c, 0, 64, 83
1, 9326, Control_c, 0, 64, 112
1, 9336, Note_on_c, 0, 70, 0
1, 9336, Note_on_c, 0, 73, 0
1, 9336, Poly_aftertouch_c, 0, 70, 0
1, 9345, Control_c, 0, 64, 127
1, 9359, Note_on_c, 0, 77, 58
1, 9468, Note_on_c, 0, 65, 17
1, 9524, Note_on_c, 0, 73, 54
1, 9538, Note_on_c, 0, 65, 0
1, 9538, Poly_aftertouch_c, 0, 65, 0
1, 9558, Note_on_c, 0, 70, 11
1, 9563, Note_on_c, 0, 73, 0
1, 9586, Note_on_c, 0, 58, 74
1, 9593, Note_on_c, 0, 77, 0
1, 9610, Note_on_c, 0, 61, 0
1, 9638, Note_on_c, 0, 70, 0
1, 9638, Poly_aftertouch_c, 0, 70, 0
1, 9718, Note_on_c, 0, 53, 79
1, 9802, Note_on_c, 0, 58, 0
1, 9812, Note_on_c, 0, 65, 48
1, 9869, Control_c, 0, 64, 123
1, 9887, Control_c, 0, 64, 90
1, 9906, Note_on_c, 0, 65, 0
1, 9906, Note_on_c, 0, 70, 52
1, 9906, Poly_aftertouch_c, 0, 65, 0
1, 9906, Control_c, 0, 64, 48
1, 9909, Note_on_c, 0, 73, 52
1, 9924, Control_c, 0, 64, 0
1, 9977, Note_on_c, 0, 70, 0
1, 9977, Poly_aftertouch_c, 0, 70, 0
1, 9980, Control_c, 0, 64, 18
1, 9983, Note_on_c, 0, 73, 0
1, 9999, Control_c, 0, 64, 58
1, 10001, Note_on_c, 0, 77, 56
1, 10019, Control_c, 0, 64, 83
1, 10038, Control_c, 0, 64, 104
1, 10055, Control_c, 0, 64, 125
1, 10065, Note_on_c, 0, 65, 54
1, 10099, Note_on_c, 0, 77, 0
1, 10133, Note_on_c, 0, 73, 63
1, 10135, Note_on_c, 0, 65, 0
1, 10135, Poly_aftertouch_c, 0, 65, 0
1, 10145, Note_on_c, 0, 70, 48
1, 10168, Note_on_c, 0, 73, 0
1, 10176, Note_on_c, 0, 70, 0
1, 10176, Poly_aftertouch_c, 0, 70, 0
1, 10184, Control_c, 0, 67, 9
1, 10185, Note_on_c, 0, 53, 0
1, 10185, Poly_aftertouch_c, 0, 53, 0
1, 10262, Control_c, 0, 67, 13
1, 10318, Control_c, 0, 67, 17
1, 10355, Control_c, 0, 67, 22
1, 10392, Control_c, 0, 67, 29
1, 10410, Control_c, 0, 67, 34
1, 10430, Control_c, 0, 67, 39
1, 10448, Control_c, 0, 67, 43
1, 10467, Control_c, 0, 67, 47
1, 10505, Control_c, 0, 67, 53
1, 10543, Note_on_c, 0, 54, 37
1, 10560, Control_c, 0, 67, 58
1, 10619, Note_on_c, 0, 54, 0
1, 10636, Control_c, 0, 67, 62
1, 10649, Note_on_c, 0, 61, 45
1, 10667, Note_on_c, 0, 58, 31
1, 10712, Note_on_c, 0, 61, 0
1, 10719, Note_on_c, 0, 58, 0
1, 10834, Note_on_c, 0, 52, 66
1, 10861, Control_c, 0, 67, 66
1, 10896, Note_on_c, 0, 54, 42
1, 10916, Control_c, 0, 64, 120
1, 10935, Control_c, 0, 64, 108
1, 10936, Control_c, 0, 67, 72
1, 10953, Control_c, 0, 64, 85
1, 10973, Control_c, 0, 64, 56
1, 10975, Control_c, 0, 67, 76
1, 10991, Control_c, 0, 64, 12
1, 11002, Note_on_c, 0, 54, 0
1, 11006, Note_on_c, 0, 61, 48
1, 11010, Control_c, 0, 64, 0
1, 11011, Control_c, 0, 67, 80
1, 11026, Note_on_c, 0, 58, 42
1, 11027, Control_c, 0, 64, 20
1, 11047, Control_c, 0, 64, 42
1, 11066, Control_c, 0, 64, 58
1, 11067, Control_c, 0, 67, 85
1, 11085, Control_c, 0, 64, 72
1, 11087, Note_on_c, 0, 61, 0
1, 11094, Note_on_c, 0, 58, 0
1, 11103, Control_c, 0, 64, 80
1, 11122, Control_c, 0, 64, 86
1, 11124, Control_c, 0, 67, 90
1, 11140, Control_c, 0, 64, 90
1, 11160, Control_c, 0, 64, 94
1, 11178, Control_c, 0, 64, 98
1, 11179, Control_c, 0, 67, 95
1, 11199, Note_on_c, 0, 54, 47
1, 11215, Control_c, 0, 67, 99
1, 11234, Control_c, 0, 64, 92
1, 11253, Control_c, 0, 64, 76
1, 11255, Control_c, 0, 67, 104
1, 11271, Control_c, 0, 64, 56
1, 11291, Control_c, 0, 64, 52
1, 11310, Control_c, 0, 64, 56
1, 11328, Control_c, 0, 64, 63
1, 11329, Control_c, 0, 67, 108
1, 11346, Control_c, 0, 64, 71
1, 11365, Control_c, 0, 64, 78
1, 11380, Note_on_c, 0, 58, 30
1, 11384, Control_c, 0, 64, 85
1, 11403, Control_c, 0, 64, 91
1, 11421, Control_c, 0, 64, 95
1, 11458, Control_c, 0, 64, 100
1, 11560, Note_on_c, 0, 61, 38
1, 11569, Control_c, 0, 64, 104
1, 11598, Note_on_c, 0, 58, 0
1, 11796, Poly_aftertouch_c, 0, 54, 24
1, 11805, Note_on_c, 0, 52, 0
1, 11820, Note_on_c, 0, 51, 45
1, 11851, Control_c, 0, 64, 89
1, 11852, Poly_aftertouch_c, 0, 61, 22
1, 11868, Note_on_c, 0, 61, 0
1, 11868, Poly_aftertouch_c, 0, 61, 0
1, 11869, Control_c, 0, 64, 65
1, 11889, Control_c, 0, 64, 48
1, 11926, Control_c, 0, 64, 56
1, 11932, Note_on_c, 0, 54, 0
1, 11932, Poly_aftertouch_c, 0, 54, 0
1, 11944, Control_c, 0, 64, 66
1, 11963, Control_c, 0, 64, 75
1, 11982, Control_c, 0, 64, 83
1, 12001, Control_c, 0, 64, 92
1, 12020, Control_c, 0, 64, 100
1, 12021, Control_c, 0, 67, 104
1, 12038, Control_c, 0, 64, 105
1, 12054, Note_on_c, 0, 51, 0
1, 12054, Poly_aftertouch_c, 0, 51, 0
1, 12075, Control_c, 0, 64, 110
1, 12170, Control_c, 0, 64, 114
1, 12244, Control_c, 0, 67, 100
1, 12270, Note_on_c, 0, 61, 44
1, 12274, Note_on_c, 0, 53, 39
1, 12338, Control_c, 0, 64, 110
1, 12339, Control_c, 0, 67, 96
1, 12356, Control_c, 0, 64, 98
1, 12375, Control_c, 0, 64, 79
1, 12386, Note_on_c, 0, 61, 0
1, 12386, Poly_aftertouch_c, 0, 61, 0
1, 12391, Control_c, 0, 64, 71
1, 12398, Note_on_c, 0, 49, 52
1, 12412, Control_c, 0, 64, 74
1, 12421, Note_on_c, 0, 53, 0
1, 12421, Poly_aftertouch_c, 0, 53, 0
1, 12430, Control_c, 0, 64, 79
1, 12435, Note_on_c, 0, 41, 40
1, 12450, Control_c, 0, 64, 86
1, 12456, Note_on_c, 0, 49, 0
1, 12456, Poly_aftertouch_c, 0, 49, 0
1, 12468, Control_c, 0, 64, 94
1, 12487, Control_c, 0, 64, 104
1, 12501, Note_on_c, 0, 41, 0
1, 12504, Control_c, 0, 64, 112
1, 12524, Control_c, 0, 64, 117
1, 12536, Note_on_c, 0, 34, 39
1, 12583, Note_on_c, 0, 34, 0
1, 12583, Poly_aftertouch_c, 0, 34, 0
1, 12611, Note_on_c, 0, 61, 47
1, 12614, Note_on_c, 0, 65, 43
1, 12617, Control_c, 0, 64, 121
1, 12656, Note_on_c, 0, 61, 0
1, 12656, Poly_aftertouch_c, 0, 61, 0
1, 12711, Control_c, 0, 64, 112
1, 12713, Control_c, 0, 67, 91
1, 12729, Note_on_c, 0, 53, 62
1, 12729, Control_c, 0, 64, 85
1, 12730, Control_c, 0, 67, 87
1, 12732, Note_on_c, 0, 65, 0
1, 12732, Poly_aftertouch_c, 0, 65, 0
1, 12749, Control_c, 0, 64, 40
1, 12758, Note_on_c, 0, 49, 40
1, 12767, Control_c, 0, 64, 0
1, 12768, Control_c, 0, 67, 80
1, 12773, Note_on_c, 0, 53, 0
1, 12773, Poly_aftertouch_c, 0, 53, 0
1, 12804, Control_c, 0, 67, 75
1, 12806, Note_on_c, 0, 49, 0
1, 12806, Poly_aftertouch_c, 0, 49, 0
1, 12821, Note_on_c, 0, 41, 59
1, 12857, Note_on_c, 0, 41, 0
1, 12879, Control_c, 0, 67, 71
1, 12919, Note_on_c, 0, 60, 58
1, 12921, Note_on_c, 0, 53, 43
1, 12973, Control_c, 0, 67, 67
1, 12974, Note_on_c, 0, 53, 0
1, 12974, Poly_aftertouch_c, 0, 53, 0
1, 13007, Note_on_c, 0, 60, 0
1, 13040, Note_on_c, 0, 48, 65
1, 13049, Control_c, 0, 64, 33
1, 13066, Note_on_c, 0, 41, 52
1, 13068, Control_c, 0, 64, 107
1, 13086, Control_c, 0, 64, 127
1, 13087, Control_c, 0, 67, 63
1, 13088, Note_on_c, 0, 48, 0
1, 13150, Note_on_c, 0, 34, 59
1, 13155, Note_on_c, 0, 41, 0
1, 13191, Note_on_c, 0, 34, 0
1, 13191, Poly_aftertouch_c, 0, 34, 0
1, 13220, Note_on_c, 0, 60, 58
1, 13222, Note_on_c, 0, 65, 64
1, 13235, Control_c, 0, 67, 59
1, 13260, Note_on_c, 0, 60, 0
1, 13291, Control_c, 0, 67, 54
1, 13310, Control_c, 0, 64, 110
1, 13321, Note_on_c, 0, 53, 68
1, 13328, Control_c, 0, 64, 51
1, 13330, Control_c, 0, 67, 49
1, 13344, Note_on_c, 0, 48, 48
1, 13346, Control_c, 0, 64, 0
1, 13365, Control_c, 0, 67, 43
1, 13366, Note_on_c, 0, 53, 0
1, 13366, Poly_aftertouch_c, 0, 53, 0
1, 13403, Control_c, 0, 67, 35
1, 13405, Note_on_c, 0, 48, 0
1, 13419, Note_on_c, 0, 41, 72
1, 13422, Note_on_c, 0, 65, 0
1, 13422, Poly_aftertouch_c, 0, 65, 0
1, 13440, Control_c, 0, 67, 30
1, 13453, Note_on_c, 0, 41, 0
1, 13493, Note_on_c, 0, 58, 71
1, 13496, Control_c, 0, 67, 25
1, 13500, Note_on_c, 0, 53, 59
1, 13533, Note_on_c, 0, 53, 0
1, 13533, Poly_aftertouch_c, 0, 53, 0
1, 13583, Note_on_c, 0, 46, 85
1, 13608, Control_c, 0, 64, 33
1, 13616, Note_on_c, 0, 41, 44
1, 13621, Note_on_c, 0, 58, 0
1, 13627, Control_c, 0, 64, 127
1, 13629, Control_c, 0, 67, 20
1, 13667, Note_on_c, 0, 41, 0
1, 13677, Note_on_c, 0, 34, 80
1, 13688, Note_on_c, 0, 46, 0
1, 13688, Poly_aftertouch_c, 0, 46, 0
1, 13718, Note_on_c, 0, 34, 0
1, 13718, Poly_aftertouch_c, 0, 34, 0
1, 13762, Note_on_c, 0, 58, 64
1, 13768, Note_on_c, 0, 65, 67
1, 13796, Note_on_c, 0, 58, 0
1, 13852, Control_c, 0, 67, 15
1, 13854, Note_on_c, 0, 53, 81
1, 13870, Control_c, 0, 64, 117
1, 13880, Note_on_c, 0, 46, 67
1, 13890, Control_c, 0, 64, 61
1, 13893, Control_c, 0, 67, 11
1, 13908, Control_c, 0, 64, 0
1, 13920, Note_on_c, 0, 53, 0
1, 13920, Poly_aftertouch_c, 0, 53, 0
1, 13938, Note_on_c, 0, 46, 0
1, 13938, Poly_aftertouch_c, 0, 46, 0
1, 13952, Note_on_c, 0, 65, 0
1, 13952, Poly_aftertouch_c, 0, 65, 0
1, 13957, Note_on_c, 0, 41, 79
1, 13985, Note_on_c, 0, 41, 0
1, 14035, Note_on_c, 0, 56, 78
1, 14036, Note_on_c, 0, 53, 69
1, 14076, Note_on_c, 0, 53, 0
1, 14076, Poly_aftertouch_c, 0, 53, 0
1, 14129, Note_on_c, 0, 44, 92
1, 14145, Note_on_c, 0, 41, 50
1, 14170, Control_c, 0, 64, 97
1, 14188, Control_c, 0, 64, 127
1, 14189, Note_on_c, 0, 56, 0
1, 14189, Poly_aftertouch_c, 0, 56, 0
1, 14210, Note_on_c, 0, 41, 0
1, 14226, Note_on_c, 0, 44, 0
1, 14226, Poly_aftertouch_c, 0, 44, 0
1, 14233, Note_on_c, 0, 34, 85
1, 14294, Note_on_c, 0, 34, 0
1, 14294, Poly_aftertouch_c, 0, 34, 0
1, 14315, Note_on_c, 0, 65, 82
1, 14319, Note_on_c, 0, 56, 78
1, 14338, Control_c, 0, 67, 0
1, 14345, Note_on_c, 0, 65, 0
1, 14345, Poly_aftertouch_c, 0, 65, 0
1, 14351, Note_on_c, 0, 56, 0
1, 14351, Poly_aftertouch_c, 0, 56, 0
1, 14428, Note_on_c, 0, 53, 89
1, 14454, Note_on_c, 0, 44, 75
1, 14481, Note_on_c, 0, 46, 29
1, 14485, Note_on_c, 0, 53, 0
1, 14485, Poly_aftertouch_c, 0, 53, 0
1, 14534, Note_on_c, 0, 46, 0
1, 14534, Poly_aftertouch_c, 0, 46, 0
1, 14538, Note_on_c, 0, 41, 86
1, 14547, Note_on_c, 0, 44, 0
1, 14547, Poly_aftertouch_c, 0, 44, 0
1, 14571, Note_on_c, 0, 41, 0
1, 14769, Note_on_c, 0, 42, 94
1, 14772, Note_on_c, 0, 54, 87
1, 14795, Poly_aftertouch_c, 0, 34, 0
1, 14806, Control_c, 0, 64, 106
1, 14824, Control_c, 0, 64, 76
1, 14843, Control_c, 0, 64, 31
1, 14845, Poly_aftertouch_c, 0, 49, 127
1, 14861, Control_c, 0, 64, 0
1, 14914, Note_on_c, 0, 34, 105
1, 14920, Note_on_c, 0, 22, 98
1, 14936, Control_c, 0, 64, 50
1, 14955, Control_c, 0, 64, 101
1, 14958, Note_on_c, 0, 42, 0
1, 14958, Poly_aftertouch_c, 0, 42, 0
1, 14960, Note_on_c, 0, 22, 0
1, 14968, Note_on_c, 0, 34, 0
1, 14970, Poly_aftertouch_c, 0, 49, 0
1, 14973, Control_c, 0, 64, 127
1, 14987, Note_on_c, 0, 54, 0
1, 14987, Poly_aftertouch_c, 0, 54, 0
1, 15359, Note_on_c, 0, 65, 78
1, 15368, Note_on_c, 0, 61, 73
1, 15381, Note_on_c, 0, 54, 55
1, 15381, Note_on_c, 0, 58, 62
1, 15391, Note_on_c, 0, 65, 0
1, 15391, Poly_aftertouch_c, 0, 65, 0
1, 15401, Note_on_c, 0, 61, 0
1, 15401, Poly_aftertouch_c, 0, 61, 0
1, 15406, Note_on_c, 0, 54, 0
1, 15406, Poly_aftertouch_c, 0, 54, 0
1, 15418, Note_on_c, 0, 58, 0
1, 15452, Note_on_c, 0, 65, 95
1, 15457, Note_on_c, 0, 61, 89
1, 15466, Note_on_c, 0, 54, 84
1, 15469, Note_on_c, 0, 58, 82
1, 15665, Note_on_c, 0, 54, 0
1, 15665, Poly_aftertouch_c, 0, 54, 0
1, 15669, Note_on_c, 0, 65, 0
1, 15669, Poly_aftertouch_c, 0, 65, 0
1, 15692, Note_on_c, 0, 58, 0
1, 15694, Note_on_c, 0, 61, 0
1, 15694, Poly_aftertouch_c, 0, 61, 0
1, 15765, Note_on_c, 0, 65, 69
1, 15769, Note_on_c, 0, 61, 61
1, 15782, Note_on_c, 0, 58, 53
1, 15786, Note_on_c, 0, 54, 48
1, 15869, Note_on_c, 0, 89, 102
1, 15891, Note_on_c, 0, 77, 80
1, 15903, Note_on_c, 0, 82, 63
1, 15917, Note_on_c, 0, 65, 0
1, 15917, Poly_aftertouch_c, 0, 65, 0
1, 15931, Note_on_c, 0, 54, 0
1, 15931, Poly_aftertouch_c, 0, 54, 0
1, 15961, Note_on_c, 0, 61, 0
1, 15961, Poly_aftertouch_c, 0, 61, 0
1, 15966, Note_on_c, 0, 58, 0
1, 15969, Note_on_c, 0, 77, 0
1, 15989, Note_on_c, 0, 89, 0
1, 15989, Poly_aftertouch_c, 0, 89, 0
1, 16005, Note_on_c, 0, 82, 0
1, 16030, Note_on_c, 0, 61, 60
1, 16033, Note_on_c, 0, 58, 54
1, 16033, Note_on_c, 0, 65, 72
1, 16045, Note_on_c, 0, 54, 61
1, 16111, Note_on_c, 0, 85, 99
1, 16115, Note_on_c, 0, 73, 86
1, 16126, Note_on_c, 0, 54, 0
1, 16126, Poly_aftertouch_c, 0, 54, 0
1, 16129, Note_on_c, 0, 82, 75
1, 16136, Note_on_c, 0, 73, 0
1, 16155, Note_on_c, 0, 82, 0
1, 16160, Note_on_c, 0, 85, 0
1, 16162, Note_on_c, 0, 65, 0
1, 16162, Poly_aftertouch_c, 0, 65, 0
1, 16207, Note_on_c, 0, 61, 0
1, 16207, Poly_aftertouch_c, 0, 61, 0
1, 16209, Note_on_c, 0, 58, 0
1, 16278, Note_on_c, 0, 65, 74
1, 16282, Note_on_c, 0, 54, 65
1, 16294, Note_on_c, 0, 61, 50
1, 16296, Note_on_c, 0, 58, 36
1, 16298, Poly_aftertouch_c, 0, 73, 127
1, 16306, Note_on_c, 0, 65, 0
1, 16306, Poly_aftertouch_c, 0, 65, 0
1, 16312, Note_on_c, 0, 54, 0
1, 16312, Poly_aftertouch_c, 0, 54, 0
1, 16316, Poly_aftertouch_c, 0, 73, 0
1, 16333, Note_on_c, 0, 61, 0
1, 16333, Poly_aftertouch_c, 0, 61, 0
1, 16337, Note_on_c, 0, 58, 0
1, 16462, Note_on_c, 0, 65, 57
1, 16469, Note_on_c, 0, 54, 56
1, 16470, Note_on_c, 0, 58, 52
1, 16472, Note_on_c, 0, 61, 46
1, 16507, Note_on_c, 0, 65, 0
1, 16507, Poly_aftertouch_c, 0, 65, 0
1, 16508, Note_on_c, 0, 54, 0
1, 16508, Poly_aftertouch_c, 0, 54, 0
1, 16515, Note_on_c, 0, 61, 0
1, 16515, Poly_aftertouch_c, 0, 61, 0
1, 16517, Note_on_c, 0, 58, 0
1, 16594, Note_on_c, 0, 77, 76
1, 16604, Note_on_c, 0, 73, 64
1, 16769, Note_on_c, 0, 77, 0
1, 16780, Note_on_c, 0, 73, 0
1, 16785, Note_on_c, 0, 70, 58
1, 16812, Note_on_c, 0, 70, 0
1, 16812, Poly_aftertouch_c, 0, 70, 0
1, 16875, Note_on_c, 0, 66, 58
1, 16927, Note_on_c, 0, 66, 0
1, 16927, Poly_aftertouch_c, 0, 66, 0
1, 16943, Note_on_c, 0, 77, 68
1, 16947, Note_on_c, 0, 73, 59
1, 16993, Note_on_c, 0, 73, 0
1, 17010, Note_on_c, 0, 77, 0
1, 17048, Note_on_c, 0, 61, 40
1, 17053, Note_on_c, 0, 70, 39
1, 17087, Note_on_c, 0, 70, 0
1, 17087, Poly_aftertouch_c, 0, 70, 0
1, 17093, Note_on_c, 0, 61, 0
1, 17093, Poly_aftertouch_c, 0, 61, 0
1, 17137, Note_on_c, 0, 66, 58
1, 17175, Note_on_c, 0, 77, 74
1, 17176, Note_on_c, 0, 73, 63
1, 17181, Note_on_c, 0, 66, 0
1, 17181, Poly_aftertouch_c, 0, 66, 0
1, 17245, Note_on_c, 0, 73, 0
1, 17283, Note_on_c, 0, 77, 0
1, 17283, Note_on_c, 0, 61, 49
1, 17285, Note_on_c, 0, 70, 51
1, 17327, Note_on_c, 0, 61, 0
1, 17327, Poly_aftertouch_c, 0, 61, 0
1, 17328, Note_on_c, 0, 70, 0
1, 17328, Poly_aftertouch_c, 0, 70, 0
1, 17372, Note_on_c, 0, 66, 61
1, 17423, Note_on_c, 0, 73, 60
1, 17424, Note_on_c, 0, 77, 80
1, 17428, Note_on_c, 0, 66, 0
1, 17428, Poly_aftertouch_c, 0, 66, 0
1, 17486, Note_on_c, 0, 73, 0
1, 17518, Note_on_c, 0, 77, 0
1, 17534, Note_on_c, 0, 61, 56
1, 17534, Note_on_c, 0, 70, 60
1, 17579, Note_on_c, 0, 61, 0
1, 17579, Poly_aftertouch_c, 0, 61, 0
1, 17583, Note_on_c, 0, 70, 0
1, 17583, Poly_aftertouch_c, 0, 70, 0
1, 17605, Note_on_c, 0, 66, 64
1, 17663, Note_on_c, 0, 66, 0
1, 17663, Poly_aftertouch_c, 0, 66, 0
1, 17685, Note_on_c, 0, 77, 73
1, 17751, Note_on_c, 0, 70, 65
1, 17763, Poly_aftertouch_c, 0, 73, 127
1, 17771, Note_on_c, 0, 61, 60
1, 17780, Note_on_c, 0, 70, 0
1, 17780, Poly_aftertouch_c, 0, 70, 0
1, 17788, Note_on_c, 0, 77, 0
1, 17804, Poly_aftertouch_c, 0, 73, 0
1, 17812, Note_on_c, 0, 61, 0
1, 17812, Poly_aftertouch_c, 0, 61, 0
1, 17846, Note_on_c, 0, 66, 64
1, 17882, Note_on_c, 0, 66, 0
1, 17882, Poly_aftertouch_c, 0, 66, 0
1, 17925, Note_on_c, 0, 77, 78
1, 18011, Note_on_c, 0, 66, 66
1, 18044, Note_on_c, 0, 66, 0
1, 18044, Poly_aftertouch_c, 0, 66, 0
1, 18097, Note_on_c, 0, 73, 62
1, 18105, Note_on_c, 0, 70, 61
1, 18148, Note_on_c, 0, 77, 0
1, 18180, Note_on_c, 0, 65, 94
1, 18271, Note_on_c, 0, 70, 0
1, 18271, Poly_aftertouch_c, 0, 70, 0
1, 18444, Note_on_c, 0, 73, 0
1, 18589, Note_on_c, 0, 64, 91
1, 18610, Note_on_c, 0, 65, 0
1, 18610, Poly_aftertouch_c, 0, 65, 0
1, 18685, Note_on_c, 0, 66, 63
1, 18745, Note_on_c, 0, 73, 57
1, 18755, Note_on_c, 0, 70, 48
1, 18768, Note_on_c, 0, 66, 0
1, 18768, Poly_aftertouch_c, 0, 66, 0
1, 18824, Note_on_c, 0, 77, 63
1, 18826, Note_on_c, 0, 70, 0
1, 18826, Poly_aftertouch_c, 0, 70, 0
1, 18836, Note_on_c, 0, 63, 92
1, 18839, Note_on_c, 0, 73, 0
1, 18857, Note_on_c, 0, 64, 0
1, 18935, Note_on_c, 0, 66, 63
1, 18995, Note_on_c, 0, 73, 65
1, 18998, Note_on_c, 0, 70, 58
1, 19031, Note_on_c, 0, 66, 0
1, 19031, Poly_aftertouch_c, 0, 66, 0
1, 19033, Note_on_c, 0, 63, 0
1, 19033, Poly_aftertouch_c, 0, 63, 0
1, 19052, Note_on_c, 0, 77, 0
1, 19099, Note_on_c, 0, 70, 0
1, 19099, Poly_aftertouch_c, 0, 70, 0
1, 19112, Note_on_c, 0, 73, 0
1, 19115, Note_on_c, 0, 61, 88
1, 19199, Control_c, 0, 64, 123
1, 19216, Control_c, 0, 64, 81
1, 19221, Note_on_c, 0, 66, 61
1, 19221, Poly_aftertouch_c, 0, 77, 0
1, 19237, Control_c, 0, 64, 0
1, 19274, Control_c, 0, 64, 55
1, 19283, Note_on_c, 0, 73, 53
1, 19291, Note_on_c, 0, 70, 48
1, 19294, Control_c, 0, 64, 86
1, 19304, Note_on_c, 0, 66, 0
1, 19304, Poly_aftertouch_c, 0, 66, 0
1, 19310, Control_c, 0, 64, 114
1, 19330, Control_c, 0, 64, 127
1, 19381, Note_on_c, 0, 77, 64
1, 19390, Note_on_c, 0, 70, 0
1, 19390, Poly_aftertouch_c, 0, 70, 0
1, 19391, Note_on_c, 0, 73, 0
1, 19490, Note_on_c, 0, 66, 47
1, 19527, Note_on_c, 0, 61, 0
1, 19527, Poly_aftertouch_c, 0, 61, 0
1, 19645, Note_on_c, 0, 73, 42
1, 19673, Note_on_c, 0, 70, 35
1, 19699, Note_on_c, 0, 58, 81
1, 19700, Note_on_c, 0, 66, 0
1, 19700, Poly_aftertouch_c, 0, 66, 0
1, 19732, Note_on_c, 0, 73, 0
1, 19749, Note_on_c, 0, 70, 0
1, 19749, Poly_aftertouch_c, 0, 70, 0
1, 19800, Note_on_c, 0, 77, 0
1, 19828, Note_on_c, 0, 54, 83
1, 19891, Note_on_c, 0, 58, 0
1, 19925, Note_on_c, 0, 66, 56
1, 19966, Control_c, 0, 64, 116
1, 19985, Control_c, 0, 64, 104
1, 20004, Control_c, 0, 64, 87
1, 20020, Note_on_c, 0, 73, 55
1, 20021, Control_c, 0, 64, 61
1, 20025, Note_on_c, 0, 66, 0
1, 20025, Poly_aftertouch_c, 0, 66, 0
1, 20031, Note_on_c, 0, 70, 48
1, 20041, Control_c, 0, 64, 0
1, 20098, Control_c, 0, 64, 22
1, 20108, Note_on_c, 0, 77, 52
1, 20116, Control_c, 0, 64, 54
1, 20124, Note_on_c, 0, 70, 0
1, 20124, Poly_aftertouch_c, 0, 70, 0
1, 20132, Note_on_c, 0, 73, 0
1, 20134, Control_c, 0, 64, 79
1, 20153, Control_c, 0, 64, 96
1, 20173, Control_c, 0, 64, 110
1, 20190, Control_c, 0, 64, 117
1, 20208, Control_c, 0, 64, 121
1, 20223, Note_on_c, 0, 66, 47
1, 20247, Control_c, 0, 64, 127
1, 20267, Note_on_c, 0, 54, 0
1, 20267, Poly_aftertouch_c, 0, 54, 0
1, 20313, Note_on_c, 0, 77, 0
1, 20326, Note_on_c, 0, 73, 56
1, 20341, Note_on_c, 0, 66, 0
1, 20341, Poly_aftertouch_c, 0, 66, 0
1, 20342, Note_on_c, 0, 70, 45
1, 20371, Note_on_c, 0, 73, 0
1, 20379, Note_on_c, 0, 70, 0
1, 20379, Poly_aftertouch_c, 0, 70, 0
1, 20901, Note_on_c, 0, 54, 39
1, 20968, Note_on_c, 0, 54, 0
1, 20968, Poly_aftertouch_c, 0, 54, 0
1, 20986, Note_on_c, 0, 61, 42
1, 21003, Note_on_c, 0, 58, 32
1, 21062, Note_on_c, 0, 61, 0
1, 21062, Poly_aftertouch_c, 0, 61, 0
1, 21066, Note_on_c, 0, 58, 0
1, 21086, Note_on_c, 0, 65, 7
1, 21108, Note_on_c, 0, 53, 71
1, 21183, Control_c, 0, 64, 121
1, 21200, Control_c, 0, 64, 94
1, 21219, Control_c, 0, 64, 59
1, 21234, Note_on_c, 0, 54, 10
1, 21237, Control_c, 0, 64, 25
1, 21256, Control_c, 0, 64, 33
1, 21274, Control_c, 0, 64, 49
1, 21286, Note_on_c, 0, 65, 0
1, 21286, Poly_aftertouch_c, 0, 65, 0
1, 21293, Control_c, 0, 64, 66
1, 21312, Control_c, 0, 64, 79
1, 21314, Note_on_c, 0, 58, 34
1, 21315, Note_on_c, 0, 61, 36
1, 21317, Note_on_c, 0, 54, 0
1, 21317, Poly_aftertouch_c, 0, 54, 0
1, 21331, Control_c, 0, 64, 91
1, 21350, Control_c, 0, 64, 104
1, 21369, Control_c, 0, 64, 112
1, 21414, Note_on_c, 0, 61, 0
1, 21414, Poly_aftertouch_c, 0, 61, 0
1, 21424, Note_on_c, 0, 58, 0
1, 21452, Note_on_c, 0, 53, 0
1, 21452, Poly_aftertouch_c, 0, 53, 0
1, 21497, Note_on_c, 0, 52, 57
1, 21500, Control_c, 0, 67, 8
1, 21556, Control_c, 0, 64, 96
1, 21577, Control_c, 0, 64, 64
1, 21579, Note_on_c, 0, 54, 25
1, 21592, Control_c, 0, 64, 0
1, 21668, Control_c, 0, 64, 14
1, 21670, Control_c, 0, 67, 12
1, 21685, Note_on_c, 0, 58, 42
1, 21685, Control_c, 0, 64, 45
1, 21705, Control_c, 0, 64, 66
1, 21724, Control_c, 0, 64, 77
1, 21742, Control_c, 0, 64, 80
1, 21780, Control_c, 0, 64, 83
1, 21781, Control_c, 0, 67, 17
1, 21798, Control_c, 0, 64, 86
1, 21818, Control_c, 0, 64, 91
1, 21836, Control_c, 0, 64, 95
1, 21854, Control_c, 0, 67, 23
1, 21873, Control_c, 0, 64, 102
1, 21892, Control_c, 0, 64, 106
1, 21894, Control_c, 0, 67, 29
1, 21899, Note_on_c, 0, 58, 0
1, 21902, Note_on_c, 0, 61, 30
1, 21929, Control_c, 0, 64, 110
1, 21930, Control_c, 0, 67, 35
1, 21948, Control_c, 0, 67, 39
1, 21986, Control_c, 0, 67, 47
1, 22004, Control_c, 0, 67, 52
1, 22023, Control_c, 0, 67, 56
1, 22060, Control_c, 0, 67, 63
1, 22081, Note_on_c, 0, 52, 0
1, 22098, Note_on_c, 0, 51, 44
1, 22098, Control_c, 0, 67, 68
1, 22135, Control_c, 0, 64, 91
1, 22136, Control_c, 0, 67, 74
1, 22153, Poly_aftertouch_c, 0, 54, 24
1, 22153, Control_c, 0, 64, 57
1, 22175, Control_c, 0, 64, 0
1, 22177, Control_c, 0, 67, 82
1, 22192, Poly_aftertouch_c, 0, 61, 20
1, 22197, Note_on_c, 0, 61, 0
1, 22197, Poly_aftertouch_c, 0, 61, 0
1, 22210, Control_c, 0, 67, 89
1, 22228, Control_c, 0, 64, 39
1, 22248, Control_c, 0, 64, 64
1, 22249, Control_c, 0, 67, 94
1, 22265, Control_c, 0, 64, 81
1, 22285, Control_c, 0, 64, 91
1, 22291, Note_on_c, 0, 54, 0
1, 22291, Poly_aftertouch_c, 0, 54, 0
1, 22304, Control_c, 0, 64, 101
1, 22323, Control_c, 0, 64, 107
1, 22342, Note_on_c, 0, 51, 0
1, 22342, Poly_aftertouch_c, 0, 51, 0
1, 22359, Control_c, 0, 64, 113
1, 22434, Control_c, 0, 64, 117
1, 22558, Note_on_c, 0, 54, 37
1, 22562, Note_on_c, 0, 61, 39
1, 22640, Control_c, 0, 64, 105
1, 22654, Note_on_c, 0, 61, 0
1, 22654, Poly_aftertouch_c, 0, 61, 0
1, 22658, Control_c, 0, 64, 80
1, 22678, Control_c, 0, 64, 58
1, 22681, Note_on_c, 0, 54, 0
1, 22681, Poly_aftertouch_c, 0, 54, 0
1, 22691, Note_on_c, 0, 49, 44
1, 22696, Control_c, 0, 64, 60
1, 22714, Note_on_c, 0, 41, 39
1, 22714, Control_c, 0, 64, 64
1, 22733, Control_c, 0, 64, 71
1, 22738, Note_on_c, 0, 49, 0
1, 22752, Control_c, 0, 64, 78
1, 22752, Control_c, 0, 67, 90
1, 22771, Control_c, 0, 64, 85
1, 22790, Note_on_c, 0, 41, 0
1, 22790, Control_c, 0, 64, 94
1, 22804, Note_on_c, 0, 34, 53
1, 22808, Control_c, 0, 64, 103
1, 22827, Control_c, 0, 64, 110
1, 22843, Note_on_c, 0, 34, 0
1, 22864, Control_c, 0, 64, 114
1, 22898, Note_on_c, 0, 53, 29
1, 22899, Note_on_c, 0, 61, 47
1, 22909, Note_on_c, 0, 65, 33
1, 22921, Control_c, 0, 64, 118
1, 22923, Control_c, 0, 67, 86
1, 22944, Note_on_c, 0, 61, 0
1, 22944, Poly_aftertouch_c, 0, 61, 0
1, 22948, Note_on_c, 0, 53, 0
1, 22948, Poly_aftertouch_c, 0, 53, 0
1, 22976, Note_on_c, 0, 65, 0
1, 22976, Poly_aftertouch_c, 0, 65, 0
1, 23014, Control_c, 0, 64, 104
1, 23015, Control_c, 0, 67, 82
1, 23027, Note_on_c, 0, 53, 52
1, 23033, Control_c, 0, 64, 71
1, 23047, Note_on_c, 0, 49, 48
1, 23052, Control_c, 0, 64, 0
1, 23062, Note_on_c, 0, 53, 0
1, 23062, Poly_aftertouch_c, 0, 53, 0
1, 23069, Control_c, 0, 67, 76
1, 23097, Note_on_c, 0, 49, 0
1, 23108, Control_c, 0, 67, 71
1, 23115, Note_on_c, 0, 41, 56
1, 23148, Note_on_c, 0, 41, 0
1, 23183, Control_c, 0, 67, 66
1, 23215, Note_on_c, 0, 60, 56
1, 23225, Note_on_c, 0, 54, 45
1, 23238, Control_c, 0, 67, 62
1, 23295, Control_c, 0, 67, 57
1, 23305, Note_on_c, 0, 54, 0
1, 23305, Poly_aftertouch_c, 0, 54, 0
1, 23323, Note_on_c, 0, 48, 67
1, 23332, Control_c, 0, 64, 68
1, 23350, Note_on_c, 0, 41, 50
1, 23350, Control_c, 0, 64, 116
1, 23353, Control_c, 0, 67, 53
1, 23369, Control_c, 0, 64, 127
1, 23394, Note_on_c, 0, 48, 0
1, 23396, Note_on_c, 0, 60, 0
1, 23405, Control_c, 0, 67, 48
1, 23444, Control_c, 0, 67, 43
1, 23453, Note_on_c, 0, 41, 0
1, 23467, Note_on_c, 0, 34, 47
1, 23499, Control_c, 0, 67, 38
1, 23503, Note_on_c, 0, 65, 62
1, 23508, Note_on_c, 0, 60, 56
1, 23514, Note_on_c, 0, 34, 0
1, 23556, Control_c, 0, 67, 32
1, 23557, Note_on_c, 0, 60, 0
1, 23576, Control_c, 0, 64, 114
1, 23594, Control_c, 0, 64, 56
1, 23615, Note_on_c, 0, 53, 63
1, 23615, Control_c, 0, 64, 0
1, 23616, Control_c, 0, 67, 27
1, 23640, Note_on_c, 0, 48, 44
1, 23661, Note_on_c, 0, 53, 0
1, 23661, Poly_aftertouch_c, 0, 53, 0
1, 23669, Control_c, 0, 67, 23
1, 23689, Note_on_c, 0, 48, 0
1, 23713, Note_on_c, 0, 41, 67
1, 23739, Note_on_c, 0, 65, 0
1, 23739, Poly_aftertouch_c, 0, 65, 0
1, 23751, Note_on_c, 0, 41, 0
1, 23780, Control_c, 0, 67, 19
1, 23786, Note_on_c, 0, 58, 66
1, 23787, Note_on_c, 0, 54, 63
1, 23847, Note_on_c, 0, 54, 0
1, 23847, Poly_aftertouch_c, 0, 54, 0
1, 23864, Note_on_c, 0, 46, 83
1, 23874, Control_c, 0, 64, 72
1, 23875, Note_on_c, 0, 58, 0
1, 23875, Control_c, 0, 67, 14
1, 23893, Control_c, 0, 64, 127
1, 23906, Note_on_c, 0, 41, 36
1, 23910, Control_c, 0, 67, 10
1, 23961, Note_on_c, 0, 41, 0
1, 23966, Note_on_c, 0, 34, 79
1, 23967, Note_on_c, 0, 46, 0
1, 23967, Poly_aftertouch_c, 0, 46, 0
1, 24009, Note_on_c, 0, 34, 0
1, 24064, Note_on_c, 0, 58, 62
1, 24070, Note_on_c, 0, 65, 66
1, 24102, Note_on_c, 0, 58, 0
1, 24134, Note_on_c, 0, 53, 81
1, 24136, Control_c, 0, 64, 120
1, 24154, Control_c, 0, 64, 66
1, 24157, Note_on_c, 0, 46, 65
1, 24162, Note_on_c, 0, 65, 0
1, 24162, Poly_aftertouch_c, 0, 65, 0
1, 24173, Control_c, 0, 64, 0
1, 24210, Note_on_c, 0, 53, 0
1, 24210, Poly_aftertouch_c, 0, 53, 0
1, 24244, Note_on_c, 0, 41, 83
1, 24249, Note_on_c, 0, 46, 0
1, 24249, Poly_aftertouch_c, 0, 46, 0
1, 24279, Note_on_c, 0, 41, 0
1, 24333, Note_on_c, 0, 57, 78
1, 24334, Note_on_c, 0, 54, 81
1, 24415, Note_on_c, 0, 45, 87
1, 24415, Control_c, 0, 64, 98
1, 24418, Note_on_c, 0, 54, 0
1, 24418, Poly_aftertouch_c, 0, 54, 0
1, 24430, Note_on_c, 0, 41, 69
1, 24433, Control_c, 0, 64, 127
1, 24473, Control_c, 0, 67, 0
1, 24492, Note_on_c, 0, 57, 0
1, 24492, Poly_aftertouch_c, 0, 57, 0
1, 24522, Note_on_c, 0, 34, 88
1, 24527, Note_on_c, 0, 41, 0
1, 24540, Note_on_c, 0, 45, 0
1, 24563, Note_on_c, 0, 34, 0
1, 24634, Note_on_c, 0, 65, 84
1, 24640, Note_on_c, 0, 57, 80
1, 24662, Note_on_c, 0, 65, 0
1, 24662, Poly_aftertouch_c, 0, 65, 0
1, 24669, Note_on_c, 0, 57, 0
1, 24669, Poly_aftertouch_c, 0, 57, 0
1, 24736, Note_on_c, 0, 53, 86
1, 24740, Note_on_c, 0, 44, 80
1, 24776, Note_on_c, 0, 44, 0
1, 24776, Poly_aftertouch_c, 0, 44, 0
1, 24783, Note_on_c, 0, 53, 0
1, 24783, Note_on_c, 0, 45, 69
1, 24783, Poly_aftertouch_c, 0, 53, 0
1, 24847, Note_on_c, 0, 41, 86
1, 24855, Note_on_c, 0, 45, 0
1, 24882, Note_on_c, 0, 41, 0
1, 25053, Note_on_c, 0, 34, 12
1, 25086, Note_on_c, 0, 56, 90
1, 25088, Note_on_c, 0, 44, 94
1, 25095, Note_on_c, 0, 34, 0
1, 25130, Note_on_c, 0, 51, 17
1, 25146, Control_c, 0, 64, 84
1, 25165, Control_c, 0, 64, 0
1, 25195, Note_on_c, 0, 34, 101
1, 25203, Note_on_c, 0, 22, 98
1, 25238, Control_c, 0, 64, 57
1, 25239, Note_on_c, 0, 44, 0
1, 25239, Poly_aftertouch_c, 0, 44, 0
1, 25243, Note_on_c, 0, 22, 0
1, 25248, Note_on_c, 0, 34, 0
1, 25255, Poly_aftertouch_c, 0, 49, 0
1, 25257, Note_on_c, 0, 51, 0
1, 25257, Poly_aftertouch_c, 0, 51, 0
1, 25257, Control_c, 0, 64, 109
1, 25275, Control_c, 0, 64, 127
1, 25288, Note_on_c, 0, 56, 0
1, 25288, Poly_aftertouch_c, 0, 56, 0
1, 25321, Poly_aftertouch_c, 0, 25, 0
1, 25322, Poly_aftertouch_c, 0, 35, 0
1, 25354, Poly_aftertouch_c, 0, 27, 0
1, 25643, Note_on_c, 0, 65, 80
1, 25656, Note_on_c, 0, 62, 70
1, 25670, Note_on_c, 0, 53, 47
1, 25673, Note_on_c, 0, 58, 58
1, 25674, Note_on_c, 0, 56, 52
1, 25677, Note_on_c, 0, 65, 0
1, 25677, Poly_aftertouch_c, 0, 65, 0
1, 25687, Note_on_c, 0, 62, 0
1, 25712, Note_on_c, 0, 56, 0
1, 25712, Poly_aftertouch_c, 0, 56, 0
1, 25740, Note_on_c, 0, 65, 92
1, 25744, Note_on_c, 0, 62, 88
1, 25786, Poly_aftertouch_c, 0, 56, 127
1, 25954, Note_on_c, 0, 53, 0
1, 25954, Poly_aftertouch_c, 0, 53, 0
1, 25955, Poly_aftertouch_c, 0, 56, 0
1, 25964, Note_on_c, 0, 65, 0
1, 25964, Poly_aftertouch_c, 0, 65, 0
1, 25974, Note_on_c, 0, 58, 0
1, 25980, Note_on_c, 0, 62, 0
1, 26053, Note_on_c, 0, 65, 79
1, 26061, Note_on_c, 0, 62, 64
1, 26083, Note_on_c, 0, 58, 61
1, 26085, Note_on_c, 0, 53, 54
1, 26097, Note_on_c, 0, 56, 48
1, 26152, Note_on_c, 0, 89, 100
1, 26165, Note_on_c, 0, 77, 82
1, 26170, Note_on_c, 0, 82, 74
1, 26171, Note_on_c, 0, 86, 74
1, 26229, Note_on_c, 0, 53, 0
1, 26229, Poly_aftertouch_c, 0, 53, 0
1, 26238, Note_on_c, 0, 65, 0
1, 26238, Poly_aftertouch_c, 0, 65, 0
1, 26244, Note_on_c, 0, 56, 0
1, 26247, Note_on_c, 0, 62, 0
1, 26254, Note_on_c, 0, 58, 0
1, 26280, Note_on_c, 0, 86, 0
1, 26283, Note_on_c, 0, 89, 0
1, 26283, Poly_aftertouch_c, 0, 89, 0
1, 26286, Note_on_c, 0, 77, 0
1, 26296, Note_on_c, 0, 82, 0
1, 26304, Note_on_c, 0, 65, 76
1, 26316, Note_on_c, 0, 62, 65
1, 26323, Note_on_c, 0, 58, 55
1, 26339, Note_on_c, 0, 56, 41
1, 26381, Poly_aftertouch_c, 0, 53, 127
1, 26396, Note_on_c, 0, 86, 102
1, 26414, Note_on_c, 0, 72, 66
1, 26418, Note_on_c, 0, 74, 54
1, 26433, Note_on_c, 0, 82, 50
1, 26433, Poly_aftertouch_c, 0, 53, 0
1, 26434, Note_on_c, 0, 82, 0
1, 26436, Note_on_c, 0, 86, 0
1, 26441, Note_on_c, 0, 72, 0
1, 26441, Poly_aftertouch_c, 0, 72, 0
1, 26452, Note_on_c, 0, 74, 0
1, 26471, Note_on_c, 0, 65, 0
1, 26471, Poly_aftertouch_c, 0, 65, 0
1, 26501, Note_on_c, 0, 58, 0
1, 26504, Note_on_c, 0, 62, 0
1, 26519, Note_on_c, 0, 56, 0
1, 26577, Note_on_c, 0, 65, 80
1, 26591, Note_on_c, 0, 62, 55
1, 26604, Note_on_c, 0, 65, 0
1, 26604, Poly_aftertouch_c, 0, 65, 0
1, 26612, Note_on_c, 0, 58, 38
1, 26613, Note_on_c, 0, 53, 26
1, 26628, Poly_aftertouch_c, 0, 56, 127
1, 26634, Note_on_c, 0, 62, 0
1, 26642, Poly_aftertouch_c, 0, 56, 0
1, 26646, Note_on_c, 0, 58, 0
1, 26669, Note_on_c, 0, 53, 0
1, 26739, Note_on_c, 0, 65, 66
1, 26752, Note_on_c, 0, 62, 56
1, 26754, Note_on_c, 0, 56, 51
1, 26755, Note_on_c, 0, 58, 51
1, 26775, Note_on_c, 0, 65, 0
1, 26775, Poly_aftertouch_c, 0, 65, 0
1, 26789, Note_on_c, 0, 62, 0
1, 26793, Note_on_c, 0, 56, 0
1, 26798, Note_on_c, 0, 58, 0
1, 26860, Note_on_c, 0, 77, 73
1, 26865, Poly_aftertouch_c, 0, 53, 0
1, 26938, Note_on_c, 0, 65, 45
1, 26993, Note_on_c, 0, 77, 0
1, 27018, Note_on_c, 0, 65, 0
1, 27018, Poly_aftertouch_c, 0, 65, 0
1, 27022, Note_on_c, 0, 70, 62
1, 27028, Note_on_c, 0, 74, 58
1, 27093, Note_on_c, 0, 70, 0
1, 27093, Poly_aftertouch_c, 0, 70, 0
1, 27109, Note_on_c, 0, 77, 82
1, 27122, Note_on_c, 0, 74, 0
1, 27190, Note_on_c, 0, 65, 57
1, 27250, Note_on_c, 0, 65, 0
1, 27250, Poly_aftertouch_c, 0, 65, 0
1, 27257, Note_on_c, 0, 70, 66
1, 27259, Note_on_c, 0, 74, 75
1, 27289, Note_on_c, 0, 70, 0
1, 27289, Poly_aftertouch_c, 0, 70, 0
1, 27360, Note_on_c, 0, 65, 91
1, 27369, Note_on_c, 0, 74, 0
1, 27749, Note_on_c, 0, 77, 0
1, 27787, Note_on_c, 0, 74, 49
1, 27791, Note_on_c, 0, 70, 41
1, 27866, Note_on_c, 0, 70, 0
1, 27866, Poly_aftertouch_c, 0, 70, 0
1, 27900, Note_on_c, 0, 64, 80
1, 27903, Note_on_c, 0, 74, 0
1, 27906, Note_on_c, 0, 65, 0
1, 27906, Poly_aftertouch_c, 0, 65, 0
1, 27908, Note_on_c, 0, 77, 60
1, 28019, Note_on_c, 0, 65, 51
1, 28057, Note_on_c, 0, 65, 0
1, 28057, Poly_aftertouch_c, 0, 65, 0
1, 28067, Note_on_c, 0, 74, 61
1, 28090, Note_on_c, 0, 70, 40
1, 28109, Note_on_c, 0, 64, 0
1, 28123, Note_on_c, 0, 74, 0
1, 28128, Note_on_c, 0, 70, 0
1, 28128, Poly_aftertouch_c, 0, 70, 0
1, 28157, Note_on_c, 0, 63, 88
1, 28206, Note_on_c, 0, 65, 57
1, 28245, Poly_aftertouch_c, 0, 64, 0
1, 28295, Note_on_c, 0, 65, 0
1, 28295, Poly_aftertouch_c, 0, 65, 0
1, 28303, Note_on_c, 0, 77, 0
1, 28306, Note_on_c, 0, 74, 51
1, 28314, Note_on_c, 0, 70, 42
1, 28497, Note_on_c, 0, 70, 0
1, 28497, Poly_aftertouch_c, 0, 70, 0
1, 28516, Note_on_c, 0, 62, 73
1, 28526, Note_on_c, 0, 63, 0
1, 28526, Poly_aftertouch_c, 0, 63, 0
1, 28560, Note_on_c, 0, 77, 60
1, 28577, Note_on_c, 0, 74, 0
1, 28605, Control_c, 0, 64, 108
1, 28623, Control_c, 0, 64, 79
1, 28641, Control_c, 0, 64, 35
1, 28661, Control_c, 0, 64, 0
1, 28687, Note_on_c, 0, 65, 46
1, 28716, Control_c, 0, 64, 30
1, 28736, Control_c, 0, 64, 55
1, 28747, Note_on_c, 0, 65, 0
1, 28747, Poly_aftertouch_c, 0, 65, 0
1, 28755, Control_c, 0, 64, 74
1, 28773, Control_c, 0, 64, 85
1, 28792, Control_c, 0, 64, 95
1, 28809, Note_on_c, 0, 70, 37
1, 28812, Note_on_c, 0, 74, 41
1, 28812, Control_c, 0, 64, 103
1, 28829, Control_c, 0, 64, 108
1, 28848, Control_c, 0, 64, 113
1, 28860, Note_on_c, 0, 70, 0
1, 28860, Poly_aftertouch_c, 0, 70, 0
1, 28865, Control_c, 0, 64, 120
1, 28885, Control_c, 0, 64, 126
1, 28886, Note_on_c, 0, 74, 0
1, 29036, Poly_aftertouch_c, 0, 77, 24
1, 29154, Note_on_c, 0, 77, 0
1, 29154, Poly_aftertouch_c, 0, 77, 0
1, 29155, Poly_aftertouch_c, 0, 77, 0
1, 29168, Note_on_c, 0, 62, 0
1, 29197, Note_on_c, 0, 65, 37
1, 29204, Note_on_c, 0, 58, 52
1, 29331, Note_on_c, 0, 65, 0
1, 29331, Note_on_c, 0, 70, 36
1, 29331, Poly_aftertouch_c, 0, 65, 0
1, 29340, Note_on_c, 0, 74, 36
1, 29410, Note_on_c, 0, 70, 0
1, 29410, Poly_aftertouch_c, 0, 70, 0
1, 29432, Note_on_c, 0, 58, 0
1, 29460, Note_on_c, 0, 74, 0
1, 29472, Note_on_c, 0, 77, 58
1, 29499, Note_on_c, 0, 53, 41
1, 29536, Note_on_c, 0, 53, 0
1, 29640, Note_on_c, 0, 65, 35
1, 29729, Note_on_c, 0, 65, 0
1, 29729, Poly_aftertouch_c, 0, 65, 0
1, 29754, Note_on_c, 0, 77, 0
1, 29759, Note_on_c, 0, 70, 39
1, 29765, Note_on_c, 0, 74, 39
1, 29806, Note_on_c, 0, 70, 0
1, 29806, Poly_aftertouch_c, 0, 70, 0
1, 29827, Note_on_c, 0, 74, 0
1, 29921, Note_on_c, 0, 41, 72
1, 29940, Note_on_c, 0, 34, 62
1, 30147, Note_on_c, 0, 46, 81
1, 30148, Note_on_c, 0, 41, 0
1, 30153, Note_on_c, 0, 34, 0
1, 30186, Note_on_c, 0, 46, 0
1, 30186, Poly_aftertouch_c, 0, 46, 0
1, 30440, Note_on_c, 0, 50, 67
1, 30624, Note_on_c, 0, 83, 92
1, 30660, Note_on_c, 0, 80, 44
1, 30672, Note_on_c, 0, 71, 30
1, 30673, Note_on_c, 0, 74, 13
1, 30695, Note_on_c, 0, 80, 0
1, 30695, Poly_aftertouch_c, 0, 80, 0
1, 30873, Note_on_c, 0, 53, 70
1, 30894, Note_on_c, 0, 71, 0
1, 30894, Poly_aftertouch_c, 0, 71, 0
1, 30906, Note_on_c, 0, 83, 0
1, 30933, Note_on_c, 0, 80, 19
1, 31003, Note_on_c, 0, 80, 0
1, 31003, Poly_aftertouch_c, 0, 80, 0
1, 31006, Note_on_c, 0, 56, 80
1, 31011, Note_on_c, 0, 50, 0
1, 31052, Note_on_c, 0, 53, 0
1, 31053, Note_on_c, 0, 74, 0
1, 31122, Note_on_c, 0, 56, 0
1, 31145, Note_on_c, 0, 62, 75
1, 31178, Note_on_c, 0, 62, 0
1, 31301, Note_on_c, 0, 82, 95
1, 31332, Note_on_c, 0, 70, 58
1, 31333, Note_on_c, 0, 74, 52
1, 31419, Note_on_c, 0, 70, 0
1, 31419, Poly_aftertouch_c, 0, 70, 0
1, 31434, Poly_aftertouch_c, 0, 78, 127
1, 31443, Note_on_c, 0, 65, 73
1, 31454, Note_on_c, 0, 82, 0
1, 31471, Poly_aftertouch_c, 0, 78, 0
1, 31634, Note_on_c, 0, 74, 0
1, 31639, Note_on_c, 0, 71, 81
1, 31679, Note_on_c, 0, 62, 44
1, 31755, Note_on_c, 0, 80, 90
1, 31767, Note_on_c, 0, 62, 0
1, 31775, Note_on_c, 0, 68, 68
1, 31779, Note_on_c, 0, 74, 36
1, 31787, Note_on_c, 0, 77, 58
1, 31799, Note_on_c, 0, 71, 0
1, 31799, Poly_aftertouch_c, 0, 71, 0
1, 31817, Note_on_c, 0, 68, 0
1, 31817, Poly_aftertouch_c, 0, 68, 0
1, 31839, Note_on_c, 0, 74, 0
1, 31845, Note_on_c, 0, 77, 0
1, 31876, Note_on_c, 0, 80, 0
1, 31876, Poly_aftertouch_c, 0, 80, 0
1, 31929, Note_on_c, 0, 70, 80
1, 32039, Note_on_c, 0, 70, 0
1, 32039, Poly_aftertouch_c, 0, 70, 0
1, 32228, Note_on_c, 0, 65, 0
1, 32228, Poly_aftertouch_c, 0, 65, 0
1, 32240, Note_on_c, 0, 69, 65
1, 32252, Note_on_c, 0, 61, 56
1, 32313, Note_on_c, 0, 80, 84
1, 32326, Control_c, 0, 64, 122
1, 32340, Note_on_c, 0, 68, 51
1, 32341, Note_on_c, 0, 73, 53
1, 32342, Note_on_c, 0, 77, 57
1, 32342, Control_c, 0, 64, 110
1, 32363, Control_c, 0, 64, 85
1, 32382, Control_c, 0, 64, 49
1, 32401, Control_c, 0, 64, 0
1, 32494, Control_c, 0, 64, 54
1, 32515, Control_c, 0, 64, 81
1, 32532, Control_c, 0, 64, 97
1, 32534, Note_on_c, 0, 69, 0
1, 32550, Control_c, 0, 64, 111
1, 32568, Control_c, 0, 64, 118
1, 32588, Control_c, 0, 64, 126
1, 32639, Note_on_c, 0, 61, 0
1, 32639, Poly_aftertouch_c, 0, 61, 0
1, 33039, Note_on_c, 0, 42, 54
1, 33230, Note_on_c, 0, 49, 57
1, 33232, Note_on_c, 0, 42, 0
1, 33232, Poly_aftertouch_c, 0, 42, 0
1, 33292, Note_on_c, 0, 49, 0
1, 33320, Note_on_c, 0, 80, 0
1, 33320, Poly_aftertouch_c, 0, 80, 0
1, 33379, Note_on_c, 0, 73, 0
1, 33379, Note_on_c, 0, 57, 50
1, 33391, Note_on_c, 0, 77, 0
1, 33422, Note_on_c, 0, 57, 0
1, 33422, Poly_aftertouch_c, 0, 57, 0
1, 33518, Note_on_c, 0, 61, 55
1, 33544, Note_on_c, 0, 68, 0
1, 33544, Poly_aftertouch_c, 0, 68, 0
1, 33556, Note_on_c, 0, 61, 0
1, 33556, Poly_aftertouch_c, 0, 61, 0
1, 33692, Note_on_c, 0, 69, 59
1, 33734, Note_on_c, 0, 69, 0
1, 33761, Note_on_c, 0, 78, 80
1, 33815, Note_on_c, 0, 73, 43
1, 33920, Note_on_c, 0, 73, 0
1, 33928, Note_on_c, 0, 66, 62
1, 33950, Note_on_c, 0, 78, 0
1, 33966, Note_on_c, 0, 66, 0
1, 33966, Poly_aftertouch_c, 0, 66, 0
1, 34060, Note_on_c, 0, 77, 82
1, 34082, Note_on_c, 0, 73, 58
1, 34176, Note_on_c, 0, 73, 0
1, 34176, Note_on_c, 0, 73, 34
1, 34217, Note_on_c, 0, 65, 66
1, 34377, Note_on_c, 0, 43, 69
1, 34381, Control_c, 0, 64, 107
1, 34403, Control_c, 0, 64, 65
1, 34420, Control_c, 0, 64, 0
1, 34438, Control_c, 0, 67, 9
1, 34495, Control_c, 0, 64, 43
1, 34497, Control_c, 0, 67, 13
1, 34505, Note_on_c, 0, 43, 0
1, 34505, Poly_aftertouch_c, 0, 43, 0
1, 34513, Control_c, 0, 64, 73
1, 34533, Control_c, 0, 64, 92
1, 34550, Control_c, 0, 64, 115
1, 34569, Control_c, 0, 64, 127
1, 34570, Control_c, 0, 67, 17
1, 34594, Note_on_c, 0, 53, 60
1, 34607, Control_c, 0, 67, 21
1, 34644, Control_c, 0, 67, 27
1, 34649, Note_on_c, 0, 77, 0
1, 34682, Control_c, 0, 67, 35
1, 34700, Control_c, 0, 67, 39
1, 34703, Note_on_c, 0, 73, 0
1, 34720, Control_c, 0, 67, 43
1, 34756, Control_c, 0, 67, 49
1, 34794, Control_c, 0, 67, 54
1, 34888, Control_c, 0, 67, 58
1, 34897, Note_on_c, 0, 53, 0
1, 34965, Note_on_c, 0, 76, 65
1, 34974, Note_on_c, 0, 73, 54
1, 34981, Control_c, 0, 67, 63
1, 34988, Note_on_c, 0, 61, 47
1, 35012, Note_on_c, 0, 65, 0
1, 35012, Poly_aftertouch_c, 0, 65, 0
1, 35018, Control_c, 0, 64, 121
1, 35037, Control_c, 0, 64, 94
1, 35039, Control_c, 0, 67, 68
1, 35057, Control_c, 0, 64, 56
1, 35075, Control_c, 0, 64, 0
1, 35076, Control_c, 0, 67, 73
1, 35112, Control_c, 0, 64, 37
1, 35113, Control_c, 0, 67, 77
1, 35132, Control_c, 0, 64, 61
1, 35149, Control_c, 0, 64, 81
1, 35168, Control_c, 0, 64, 97
1, 35170, Control_c, 0, 67, 82
1, 35187, Control_c, 0, 64, 115
1, 35205, Control_c, 0, 64, 124
1, 35224, Control_c, 0, 67, 88
1, 35280, Note_on_c, 0, 61, 0
1, 35280, Poly_aftertouch_c, 0, 61, 0
1, 35299, Control_c, 0, 67, 92
1, 35336, Note_on_c, 0, 73, 0
1, 35355, Control_c, 0, 67, 96
1, 35398, Note_on_c, 0, 64, 54
1, 35407, Note_on_c, 0, 76, 0
1, 35411, Note_on_c, 0, 60, 40
1, 35412, Control_c, 0, 67, 102
1, 35436, Note_on_c, 0, 64, 0
1, 35448, Control_c, 0, 67, 107
1, 35454, Note_on_c, 0, 60, 0
1, 35523, Control_c, 0, 67, 111
1, 35606, Note_on_c, 0, 63, 57
1, 35626, Note_on_c, 0, 53, 40
1, 35700, Note_on_c, 0, 63, 0
1, 35700, Poly_aftertouch_c, 0, 63, 0
1, 35746, Note_on_c, 0, 53, 0
1, 35791, Note_on_c, 0, 75, 62
1, 35802, Note_on_c, 0, 72, 52
1, 35811, Note_on_c, 0, 45, 47
1, 35855, Note_on_c, 0, 45, 0
1, 35864, Note_on_c, 0, 72, 0
1, 35864, Poly_aftertouch_c, 0, 72, 0
1, 35876, Note_on_c, 0, 75, 0
1, 35876, Poly_aftertouch_c, 0, 75, 0
1, 36062, Note_on_c, 0, 75, 57
1, 36066, Control_c, 0, 67, 107
1, 36093, Note_on_c, 0, 72, 45
1, 36100, Note_on_c, 0, 46, 47
1, 36101, Control_c, 0, 64, 117
1, 36121, Control_c, 0, 64, 97
1, 36141, Control_c, 0, 64, 64
1, 36159, Control_c, 0, 64, 27
1, 36163, Note_on_c, 0, 72, 0
1, 36163, Poly_aftertouch_c, 0, 72, 0
1, 36196, Control_c, 0, 64, 35
1, 36216, Control_c, 0, 64, 51
1, 36233, Control_c, 0, 64, 66
1, 36234, Control_c, 0, 67, 103
1, 36252, Control_c, 0, 64, 78
1, 36272, Control_c, 0, 64, 87
1, 36291, Control_c, 0, 64, 97
1, 36308, Control_c, 0, 64, 105
1, 36309, Control_c, 0, 67, 98
1, 36327, Control_c, 0, 64, 110
1, 36364, Control_c, 0, 64, 116
1, 36365, Control_c, 0, 67, 94
1, 36379, Note_on_c, 0, 63, 39
1, 36396, Poly_aftertouch_c, 0, 46, 24
1, 36402, Control_c, 0, 64, 120
1, 36418, Note_on_c, 0, 54, 33
1, 36420, Note_on_c, 0, 46, 0
1, 36420, Poly_aftertouch_c, 0, 46, 0
1, 36439, Control_c, 0, 64, 126
1, 36469, Note_on_c, 0, 54, 0
1, 36469, Poly_aftertouch_c, 0, 54, 0
1, 36509, Note_on_c, 0, 75, 0
1, 36509, Poly_aftertouch_c, 0, 75, 0
1, 36524, Note_on_c, 0, 63, 0
1, 36524, Poly_aftertouch_c, 0, 63, 0
1, 36752, Note_on_c, 0, 74, 47
1, 36769, Note_on_c, 0, 66, 59
1, 36777, Note_on_c, 0, 70, 26
1, 36811, Note_on_c, 0, 66, 0
1, 36811, Poly_aftertouch_c, 0, 66, 0
1, 36863, Note_on_c, 0, 70, 0
1, 36863, Poly_aftertouch_c, 0, 70, 0
1, 36940, Note_on_c, 0, 54, 46
1, 36950, Note_on_c, 0, 62, 41
1, 36973, Note_on_c, 0, 54, 0
1, 36973, Poly_aftertouch_c, 0, 54, 0
1, 36990, Note_on_c, 0, 62, 0
1, 37011, Note_on_c, 0, 74, 0
1, 37109, Note_on_c, 0, 66, 64
1, 37112, Control_c, 0, 64, 119
1, 37131, Note_on_c, 0, 45, 51
1, 37131, Control_c, 0, 64, 93
1, 37151, Control_c, 0, 64, 59
1, 37169, Control_c, 0, 64, 43
1, 37187, Control_c, 0, 64, 49
1, 37206, Control_c, 0, 64, 60
1, 37225, Control_c, 0, 64, 75
1, 37233, Note_on_c, 0, 45, 0
1, 37244, Control_c, 0, 64, 90
1, 37260, Note_on_c, 0, 66, 0
1, 37260, Poly_aftertouch_c, 0, 66, 0
1, 37263, Control_c, 0, 64, 110
1, 37271, Note_on_c, 0, 63, 56
1, 37273, Note_on_c, 0, 53, 51
1, 37282, Control_c, 0, 64, 127
1, 37302, Note_on_c, 0, 53, 0
1, 37311, Note_on_c, 0, 63, 0
1, 37311, Poly_aftertouch_c, 0, 63, 0
1, 37374, Control_c, 0, 67, 89
1, 37402, Note_on_c, 0, 75, 81
1, 37412, Control_c, 0, 67, 85
1, 37432, Note_on_c, 0, 72, 55
1, 37504, Poly_aftertouch_c, 0, 65, 127
1, 37545, Poly_aftertouch_c, 0, 65, 0
1, 37561, Note_on_c, 0, 63, 59
1, 37572, Note_on_c, 0, 53, 56
1, 37597, Note_on_c, 0, 53, 0
1, 37598, Note_on_c, 0, 75, 0
1, 37598, Poly_aftertouch_c, 0, 75, 0
1, 37600, Note_on_c, 0, 63, 0
1, 37600, Poly_aftertouch_c, 0, 63, 0
1, 37614, Note_on_c, 0, 72, 0
1, 37614, Poly_aftertouch_c, 0, 72, 0
1, 37731, Control_c, 0, 67, 89
1, 37767, Note_on_c, 0, 46, 52
1, 37767, Control_c, 0, 64, 123
1, 37782, Note_on_c, 0, 75, 76
1, 37785, Control_c, 0, 64, 100
1, 37786, Control_c, 0, 67, 93
1, 37804, Note_on_c, 0, 71, 56
1, 37804, Control_c, 0, 64, 64
1, 37824, Control_c, 0, 64, 0
1, 37825, Control_c, 0, 67, 98
1, 37880, Control_c, 0, 64, 16
1, 37898, Control_c, 0, 64, 47
1, 37916, Control_c, 0, 64, 71
1, 37935, Control_c, 0, 64, 88
1, 37954, Control_c, 0, 64, 106
1, 37973, Control_c, 0, 64, 121
1, 37991, Control_c, 0, 64, 127
1, 38009, Note_on_c, 0, 63, 47
1, 38028, Note_on_c, 0, 46, 0
1, 38028, Poly_aftertouch_c, 0, 46, 0
1, 38039, Note_on_c, 0, 54, 44
1, 38045, Note_on_c, 0, 71, 0
1, 38045, Poly_aftertouch_c, 0, 71, 0
1, 38089, Note_on_c, 0, 54, 0
1, 38089, Poly_aftertouch_c, 0, 54, 0
1, 38112, Note_on_c, 0, 63, 0
1, 38112, Poly_aftertouch_c, 0, 63, 0
1, 38138, Note_on_c, 0, 75, 0
1, 38138, Poly_aftertouch_c, 0, 75, 0
1, 38321, Note_on_c, 0, 66, 54
1, 38326, Note_on_c, 0, 74, 53
1, 38345, Note_on_c, 0, 70, 33
1, 38371, Note_on_c, 0, 66, 0
1, 38371, Poly_aftertouch_c, 0, 66, 0
1, 38420, Note_on_c, 0, 70, 0
1, 38420, Poly_aftertouch_c, 0, 70, 0
1, 38440, Note_on_c, 0, 54, 55
1, 38477, Note_on_c, 0, 54, 0
1, 38477, Poly_aftertouch_c, 0, 54, 0
1, 38480, Note_on_c, 0, 62, 46
1, 38530, Note_on_c, 0, 62, 0
1, 38609, Note_on_c, 0, 66, 66
1, 38609, Control_c, 0, 64, 112
1, 38612, Poly_aftertouch_c, 0, 74, 24
1, 38623, Note_on_c, 0, 44, 58
1, 38628, Control_c, 0, 64, 79
1, 38647, Control_c, 0, 64, 30
1, 38664, Control_c, 0, 64, 0
1, 38700, Note_on_c, 0, 44, 0
1, 38700, Poly_aftertouch_c, 0, 44, 0
1, 38701, Control_c, 0, 64, 29
1, 38720, Control_c, 0, 64, 59
1, 38739, Control_c, 0, 64, 80
1, 38747, Note_on_c, 0, 53, 61
1, 38752, Note_on_c, 0, 66, 0
1, 38752, Poly_aftertouch_c, 0, 66, 0
1, 38753, Note_on_c, 0, 74, 0
1, 38753, Poly_aftertouch_c, 0, 74, 0
1, 38758, Control_c, 0, 64, 96
1, 38778, Note_on_c, 0, 62, 46
1, 38778, Control_c, 0, 64, 117
1, 38785, Note_on_c, 0, 53, 0
1, 38795, Control_c, 0, 64, 127
1, 38817, Note_on_c, 0, 62, 0
1, 38851, Control_c, 0, 67, 94
1, 38894, Note_on_c, 0, 74, 80
1, 38919, Note_on_c, 0, 71, 61
1, 38920, Note_on_c, 0, 65, 50
1, 38957, Note_on_c, 0, 65, 0
1, 39045, Note_on_c, 0, 71, 0
1, 39045, Poly_aftertouch_c, 0, 71, 0
1, 39047, Note_on_c, 0, 53, 41
1, 39048, Note_on_c, 0, 62, 50
1, 39082, Note_on_c, 0, 74, 0
1, 39082, Poly_aftertouch_c, 0, 74, 0
1, 39092, Note_on_c, 0, 53, 0
1, 39108, Note_on_c, 0, 62, 0
1, 39132, Control_c, 0, 67, 99
1, 39170, Control_c, 0, 67, 106
1, 39188, Control_c, 0, 64, 115
1, 39190, Control_c, 0, 67, 113
1, 39205, Control_c, 0, 64, 77
1, 39207, Note_on_c, 0, 74, 81
1, 39208, Control_c, 0, 67, 117
1, 39225, Control_c, 0, 64, 13
1, 39229, Note_on_c, 0, 70, 61
1, 39233, Note_on_c, 0, 45, 49
1, 39244, Control_c, 0, 64, 0
1, 39300, Control_c, 0, 64, 40
1, 39319, Control_c, 0, 64, 64
1, 39338, Control_c, 0, 64, 81
1, 39356, Note_on_c, 0, 45, 0
1, 39356, Control_c, 0, 64, 92
1, 39376, Control_c, 0, 64, 102
1, 39394, Control_c, 0, 64, 108
1, 39413, Control_c, 0, 64, 113
1, 39421, Note_on_c, 0, 74, 0
1, 39421, Poly_aftertouch_c, 0, 74, 0
1, 39431, Control_c, 0, 64, 118
1, 39433, Note_on_c, 0, 53, 48
1, 39435, Note_on_c, 0, 70, 0
1, 39435, Note_on_c, 0, 62, 46
1, 39435, Poly_aftertouch_c, 0, 70, 0
1, 39469, Control_c, 0, 64, 124
1, 39477, Note_on_c, 0, 53, 0
1, 39481, Note_on_c, 0, 62, 0
1, 39684, Note_on_c, 0, 73, 67
1, 39694, Note_on_c, 0, 65, 50
1, 39703, Note_on_c, 0, 69, 50
1, 39728, Note_on_c, 0, 65, 0
1, 39804, Note_on_c, 0, 53, 56
1, 39830, Note_on_c, 0, 61, 53
1, 39837, Note_on_c, 0, 53, 0
1, 39895, Note_on_c, 0, 61, 0
1, 39895, Poly_aftertouch_c, 0, 61, 0
1, 39956, Control_c, 0, 64, 109
1, 39957, Control_c, 0, 67, 123
1, 39974, Note_on_c, 0, 65, 64
1, 39974, Control_c, 0, 64, 71
1, 39978, Note_on_c, 0, 44, 60
1, 39980, Poly_aftertouch_c, 0, 69, 24
1, 39992, Control_c, 0, 64, 0
1, 40037, Note_on_c, 0, 69, 0
1, 40037, Poly_aftertouch_c, 0, 69, 0
1, 40047, Note_on_c, 0, 44, 0
1, 40047, Poly_aftertouch_c, 0, 44, 0
1, 40048, Control_c, 0, 64, 25
1, 40049, Control_c, 0, 67, 127
1, 40066, Control_c, 0, 64, 56
1, 40086, Control_c, 0, 64, 78
1, 40088, Note_on_c, 0, 73, 0
1, 40105, Control_c, 0, 64, 93
1, 40116, Note_on_c, 0, 65, 0
1, 40124, Control_c, 0, 64, 110
1, 40134, Note_on_c, 0, 52, 58
1, 40143, Control_c, 0, 64, 122
1, 40152, Note_on_c, 0, 62, 42
1, 40161, Control_c, 0, 64, 127
1, 40170, Note_on_c, 0, 52, 0
1, 40190, Note_on_c, 0, 62, 0
1, 40289, Note_on_c, 0, 74, 67
1, 40290, Note_on_c, 0, 64, 62
1, 40300, Note_on_c, 0, 70, 55
1, 40330, Note_on_c, 0, 64, 0
1, 40351, Note_on_c, 0, 70, 0
1, 40351, Poly_aftertouch_c, 0, 70, 0
1, 40460, Note_on_c, 0, 52, 38
1, 40466, Note_on_c, 0, 62, 52
1, 40485, Note_on_c, 0, 74, 0
1, 40485, Poly_aftertouch_c, 0, 74, 0
1, 40503, Note_on_c, 0, 52, 0
1, 40507, Note_on_c, 0, 62, 0
1, 40628, Control_c, 0, 64, 116
1, 40648, Control_c, 0, 64, 96
1, 40660, Note_on_c, 0, 74, 62
1, 40666, Control_c, 0, 64, 61
1, 40676, Note_on_c, 0, 45, 49
1, 40680, Note_on_c, 0, 70, 50
1, 40684, Control_c, 0, 64, 0
1, 40740, Control_c, 0, 64, 18
1, 40759, Control_c, 0, 64, 50
1, 40778, Control_c, 0, 64, 73
1, 40795, Control_c, 0, 64, 85
1, 40816, Control_c, 0, 64, 97
1, 40834, Control_c, 0, 64, 106
1, 40839, Note_on_c, 0, 74, 0
1, 40839, Poly_aftertouch_c, 0, 74, 0
1, 40852, Control_c, 0, 64, 111
1, 40890, Note_on_c, 0, 45, 0
1, 40890, Control_c, 0, 64, 115
1, 40894, Note_on_c, 0, 70, 0
1, 40894, Poly_aftertouch_c, 0, 70, 0
1, 40897, Note_on_c, 0, 62, 32
1, 40905, Note_on_c, 0, 52, 38
1, 40944, Note_on_c, 0, 62, 0
1, 40946, Control_c, 0, 64, 119
1, 40948, Note_on_c, 0, 52, 0
1, 40983, Control_c, 0, 64, 123
1, 41058, Control_c, 0, 64, 127
1, 41161, Note_on_c, 0, 64, 54
1, 41167, Note_on_c, 0, 73, 46
1, 41190, Note_on_c, 0, 69, 36
1, 41195, Note_on_c, 0, 64, 0
1, 41249, Note_on_c, 0, 69, 0
1, 41249, Poly_aftertouch_c, 0, 69, 0
1, 41339, Note_on_c, 0, 52, 34
1, 41347, Note_on_c, 0, 61, 34
1, 41381, Note_on_c, 0, 52, 0
1, 41409, Note_on_c, 0, 61, 0
1, 41409, Poly_aftertouch_c, 0, 61, 0
1, 41469, Control_c, 0, 64, 123
1, 41507, Control_c, 0, 64, 114
1, 41526, Note_on_c, 0, 64, 55
1, 41526, Control_c, 0, 64, 94
1, 41544, Control_c, 0, 64, 63
1, 41550, Note_on_c, 0, 42, 43
1, 41563, Control_c, 0, 64, 0
1, 41599, Control_c, 0, 64, 13
1, 41619, Control_c, 0, 64, 44
1, 41639, Control_c, 0, 64, 65
1, 41657, Control_c, 0, 64, 81
1, 41675, Control_c, 0, 64, 93
1, 41693, Control_c, 0, 64, 106
1, 41713, Control_c, 0, 64, 114
1, 41750, Control_c, 0, 64, 119
1, 41760, Note_on_c, 0, 73, 0
1, 41776, Note_on_c, 0, 42, 0
1, 41776, Poly_aftertouch_c, 0, 42, 0
1, 41801, Note_on_c, 0, 61, 38
1, 41808, Note_on_c, 0, 51, 39
1, 41824, Note_on_c, 0, 64, 0
1, 41848, Note_on_c, 0, 61, 0
1, 41848, Poly_aftertouch_c, 0, 61, 0
1, 41857, Note_on_c, 0, 51, 0
1, 41857, Poly_aftertouch_c, 0, 51, 0
1, 41901, Control_c, 0, 64, 123
1, 42138, Note_on_c, 0, 69, 48
1, 42161, Note_on_c, 0, 63, 45
1, 42199, Control_c, 0, 64, 110
1, 42216, Control_c, 0, 64, 85
1, 42236, Control_c, 0, 64, 55
1, 42255, Control_c, 0, 64, 44
1, 42275, Control_c, 0, 64, 50
1, 42292, Control_c, 0, 64, 65
1, 42312, Control_c, 0, 64, 78
1, 42330, Control_c, 0, 64, 90
1, 42348, Control_c, 0, 64, 104
1, 42366, Control_c, 0, 64, 114
1, 42409, Note_on_c, 0, 63, 0
1, 42409, Poly_aftertouch_c, 0, 63, 0
1, 42435, Note_on_c, 0, 61, 41
1, 42479, Control_c, 0, 64, 118
1, 42489, Note_on_c, 0, 61, 0
1, 42489, Poly_aftertouch_c, 0, 61, 0
1, 42608, Note_on_c, 0, 51, 42
1, 42609, Note_on_c, 0, 69, 0
1, 42609, Poly_aftertouch_c, 0, 69, 0
1, 42673, Note_on_c, 0, 51, 0
1, 42673, Poly_aftertouch_c, 0, 51, 0
1, 42778, Control_c, 0, 64, 122
1, 43000, Note_on_c, 0, 73, 50
1, 43096, Control_c, 0, 64, 117
1, 43133, Note_on_c, 0, 73, 0
1, 43133, Control_c, 0, 64, 108
1, 43135, Note_on_c, 0, 69, 54
1, 43152, Control_c, 0, 64, 90
1, 43165, Note_on_c, 0, 39, 42
1, 43169, Control_c, 0, 64, 63
1, 43190, Control_c, 0, 64, 32
1, 43208, Control_c, 0, 64, 20
1, 43227, Control_c, 0, 64, 33
1, 43245, Control_c, 0, 64, 50
1, 43265, Control_c, 0, 64, 67
1, 43282, Control_c, 0, 64, 80
1, 43302, Control_c, 0, 64, 89
1, 43321, Control_c, 0, 64, 100
1, 43325, Note_on_c, 0, 69, 0
1, 43325, Poly_aftertouch_c, 0, 69, 0
1, 43339, Control_c, 0, 64, 108
1, 43358, Control_c, 0, 64, 112
1, 43396, Control_c, 0, 64, 117
1, 43402, Note_on_c, 0, 39, 0
1, 43452, Control_c, 0, 64, 121
1, 43615, Note_on_c, 0, 66, 42
1, 43623, Note_on_c, 0, 49, 42
1, 43655, Note_on_c, 0, 66, 0
1, 43655, Poly_aftertouch_c, 0, 66, 0
1, 43676, Note_on_c, 0, 49, 0
1, 43826, Control_c, 0, 64, 125
1, 43856, Note_on_c, 0, 57, 34
1, 43859, Note_on_c, 0, 61, 46
1, 43895, Note_on_c, 0, 61, 0
1, 43895, Poly_aftertouch_c, 0, 61, 0
1, 43899, Note_on_c, 0, 57, 0
1, 43899, Poly_aftertouch_c, 0, 57, 0
1, 44200, Control_c, 0, 64, 121
1, 44204, Note_on_c, 0, 72, 53
1, 44236, Control_c, 0, 64, 117
1, 44238, Note_on_c, 0, 48, 21
1, 44256, Control_c, 0, 64, 111
1, 44275, Control_c, 0, 64, 94
1, 44290, Note_on_c, 0, 48, 0
1, 44292, Control_c, 0, 64, 66
1, 44301, Note_on_c, 0, 69, 52
1, 44305, Note_on_c, 0, 72, 0
1, 44305, Poly_aftertouch_c, 0, 72, 0
1, 44311, Control_c, 0, 64, 28
1, 44315, Note_on_c, 0, 41, 47
1, 44331, Control_c, 0, 64, 12
1, 44349, Control_c, 0, 64, 31
1, 44367, Control_c, 0, 64, 53
1, 44368, Note_on_c, 0, 41, 0
1, 44387, Control_c, 0, 64, 74
1, 44405, Control_c, 0, 64, 87
1, 44424, Control_c, 0, 64, 102
1, 44443, Control_c, 0, 64, 115
1, 44462, Control_c, 0, 64, 120
1, 44463, Control_c, 0, 67, 122
1, 44504, Note_on_c, 0, 69, 0
1, 44504, Poly_aftertouch_c, 0, 69, 0
1, 44574, Control_c, 0, 67, 118
1, 44609, Note_on_c, 0, 49, 47
1, 44610, Control_c, 0, 64, 124
1, 44626, Note_on_c, 0, 65, 38
1, 44643, Note_on_c, 0, 49, 0
1, 44646, Control_c, 0, 67, 114
1, 44667, Note_on_c, 0, 65, 0
1, 44759, Note_on_c, 0, 61, 56
1, 44759, Control_c, 0, 67, 110
1, 44767, Note_on_c, 0, 57, 37
1, 44791, Note_on_c, 0, 61, 0
1, 44791, Poly_aftertouch_c, 0, 61, 0
1, 44809, Note_on_c, 0, 57, 0
1, 44809, Poly_aftertouch_c, 0, 57, 0
1, 44816, Control_c, 0, 67, 105
1, 44910, Control_c, 0, 67, 101
1, 44965, Control_c, 0, 67, 97
1, 45022, Control_c, 0, 67, 92
1, 45036, Note_on_c, 0, 72, 64
1, 45052, Note_on_c, 0, 48, 54
1, 45078, Control_c, 0, 67, 88
1, 45097, Control_c, 0, 64, 117
1, 45115, Control_c, 0, 64, 108
1, 45121, Note_on_c, 0, 48, 0
1, 45135, Control_c, 0, 64, 85
1, 45140, Note_on_c, 0, 68, 66
1, 45153, Control_c, 0, 64, 56
1, 45154, Note_on_c, 0, 72, 0
1, 45154, Poly_aftertouch_c, 0, 72, 0
1, 45168, Note_on_c, 0, 42, 57
1, 45172, Control_c, 0, 64, 26
1, 45192, Control_c, 0, 67, 84
1, 45209, Control_c, 0, 64, 43
1, 45228, Control_c, 0, 64, 62
1, 45246, Control_c, 0, 64, 77
1, 45266, Control_c, 0, 64, 87
1, 45267, Note_on_c, 0, 42, 0
1, 45267, Poly_aftertouch_c, 0, 42, 0
1, 45269, Control_c, 0, 67, 80
1, 45285, Control_c, 0, 64, 97
1, 45302, Control_c, 0, 64, 104
1, 45358, Note_on_c, 0, 68, 0
1, 45358, Poly_aftertouch_c, 0, 68, 0
1, 45358, Control_c, 0, 67, 76
1, 45396, Control_c, 0, 64, 109
1, 45425, Note_on_c, 0, 49, 47
1, 45438, Note_on_c, 0, 64, 48
1, 45452, Control_c, 0, 64, 113
1, 45463, Note_on_c, 0, 49, 0
1, 45472, Note_on_c, 0, 64, 0
1, 45508, Control_c, 0, 64, 119
1, 45545, Control_c, 0, 64, 123
1, 45567, Note_on_c, 0, 61, 48
1, 45570, Note_on_c, 0, 58, 55
1, 45603, Note_on_c, 0, 58, 0
1, 45605, Note_on_c, 0, 61, 0
1, 45605, Poly_aftertouch_c, 0, 61, 0
1, 45844, Control_c, 0, 64, 118
1, 45845, Note_on_c, 0, 72, 67
1, 45858, Note_on_c, 0, 48, 47
1, 45862, Control_c, 0, 64, 113
1, 45883, Control_c, 0, 64, 100
1, 45900, Control_c, 0, 64, 75
1, 45913, Note_on_c, 0, 48, 0
1, 45919, Control_c, 0, 64, 46
1, 45938, Control_c, 0, 64, 34
1, 45943, Note_on_c, 0, 41, 61
1, 45946, Note_on_c, 0, 69, 67
1, 45954, Note_on_c, 0, 72, 0
1, 45954, Poly_aftertouch_c, 0, 72, 0
1, 45958, Control_c, 0, 64, 46
1, 45975, Control_c, 0, 64, 63
1, 45994, Control_c, 0, 64, 79
1, 46004, Note_on_c, 0, 41, 0
1, 46012, Control_c, 0, 64, 90
1, 46015, Control_c, 0, 67, 72
1, 46031, Control_c, 0, 64, 104
1, 46051, Control_c, 0, 64, 115
1, 46070, Control_c, 0, 64, 120
1, 46106, Control_c, 0, 67, 68
1, 46163, Control_c, 0, 64, 124
1, 46172, Note_on_c, 0, 69, 0
1, 46172, Poly_aftertouch_c, 0, 69, 0
1, 46211, Note_on_c, 0, 49, 59
1, 46222, Note_on_c, 0, 65, 54
1, 46255, Note_on_c, 0, 65, 0
1, 46256, Note_on_c, 0, 49, 0
1, 46335, Note_on_c, 0, 57, 63
1, 46355, Note_on_c, 0, 61, 57
1, 46367, Note_on_c, 0, 57, 0
1, 46367, Poly_aftertouch_c, 0, 57, 0
1, 46384, Note_on_c, 0, 61, 0
1, 46384, Poly_aftertouch_c, 0, 61, 0
1, 46499, Control_c, 0, 67, 64
1, 46610, Note_on_c, 0, 77, 79
1, 46633, Note_on_c, 0, 48, 56
1, 46674, Note_on_c, 0, 48, 0
1, 46723, Control_c, 0, 64, 100
1, 46726, Note_on_c, 0, 73, 80
1, 46744, Control_c, 0, 64, 59
1, 46761, Control_c, 0, 64, 0
1, 46766, Note_on_c, 0, 39, 63
1, 46793, Note_on_c, 0, 77, 0
1, 46835, Control_c, 0, 64, 15
1, 46855, Control_c, 0, 64, 56
1, 46873, Control_c, 0, 64, 80
1, 46879, Note_on_c, 0, 73, 0
1, 46893, Control_c, 0, 64, 97
1, 46911, Control_c, 0, 64, 116
1, 46929, Control_c, 0, 64, 126
1, 46966, Note_on_c, 0, 39, 0
1, 47039, Note_on_c, 0, 49, 46
1, 47078, Note_on_c, 0, 49, 0
1, 47150, Note_on_c, 0, 57, 62
1, 47161, Note_on_c, 0, 61, 56
1, 47182, Note_on_c, 0, 57, 0
1, 47182, Poly_aftertouch_c, 0, 57, 0
1, 47191, Note_on_c, 0, 61, 0
1, 47191, Poly_aftertouch_c, 0, 61, 0
1, 47434, Control_c, 0, 64, 121
1, 47450, Note_on_c, 0, 48, 49
1, 47451, Control_c, 0, 64, 116
1, 47454, Note_on_c, 0, 72, 67
1, 47472, Control_c, 0, 64, 103
1, 47490, Control_c, 0, 64, 76
1, 47509, Control_c, 0, 64, 40
1, 47513, Note_on_c, 0, 48, 0
1, 47528, Control_c, 0, 64, 0
1, 47541, Note_on_c, 0, 41, 60
1, 47549, Note_on_c, 0, 69, 70
1, 47565, Control_c, 0, 64, 31
1, 47567, Note_on_c, 0, 72, 0
1, 47567, Poly_aftertouch_c, 0, 72, 0
1, 47584, Control_c, 0, 64, 56
1, 47602, Control_c, 0, 64, 76
1, 47609, Note_on_c, 0, 41, 0
1, 47622, Control_c, 0, 64, 89
1, 47641, Control_c, 0, 64, 102
1, 47658, Control_c, 0, 64, 110
1, 47676, Note_on_c, 0, 69, 0
1, 47676, Poly_aftertouch_c, 0, 69, 0
1, 47786, Note_on_c, 0, 49, 55
1, 47787, Control_c, 0, 64, 114
1, 47823, Note_on_c, 0, 65, 22
1, 47828, Note_on_c, 0, 49, 0
1, 47881, Note_on_c, 0, 65, 0
1, 47902, Control_c, 0, 64, 118
1, 47926, Note_on_c, 0, 57, 50
1, 47932, Note_on_c, 0, 61, 56
1, 47960, Note_on_c, 0, 57, 0
1, 47960, Poly_aftertouch_c, 0, 57, 0
1, 47964, Note_on_c, 0, 61, 0
1, 47964, Poly_aftertouch_c, 0, 61, 0
1, 48182, Control_c, 0, 64, 113
1, 48189, Note_on_c, 0, 72, 68
1, 48201, Note_on_c, 0, 48, 51
1, 48201, Control_c, 0, 64, 109
1, 48221, Control_c, 0, 64, 101
1, 48238, Control_c, 0, 64, 82
1, 48257, Control_c, 0, 64, 54
1, 48258, Note_on_c, 0, 48, 0
1, 48277, Control_c, 0, 64, 0
1, 48290, Note_on_c, 0, 42, 59
1, 48292, Note_on_c, 0, 68, 68
1, 48308, Note_on_c, 0, 72, 0
1, 48308, Poly_aftertouch_c, 0, 72, 0
1, 48331, Control_c, 0, 64, 39
1, 48339, Note_on_c, 0, 42, 0
1, 48339, Poly_aftertouch_c, 0, 42, 0
1, 48350, Control_c, 0, 64, 60
1, 48371, Control_c, 0, 64, 77
1, 48387, Control_c, 0, 64, 86
1, 48406, Control_c, 0, 64, 94
1, 48426, Control_c, 0, 64, 99
1, 48462, Control_c, 0, 64, 104
1, 48497, Note_on_c, 0, 68, 0
1, 48497, Poly_aftertouch_c, 0, 68, 0
1, 48532, Note_on_c, 0, 49, 53
1, 48536, Control_c, 0, 64, 108
1, 48555, Note_on_c, 0, 64, 51
1, 48566, Note_on_c, 0, 49, 0
1, 48574, Control_c, 0, 64, 112
1, 48588, Note_on_c, 0, 64, 0
1, 48631, Control_c, 0, 64, 117
1, 48667, Control_c, 0, 64, 121
1, 48669, Note_on_c, 0, 58, 62
1, 48683, Note_on_c, 0, 61, 45
1, 48703, Note_on_c, 0, 58, 0
1, 48722, Note_on_c, 0, 61, 0
1, 48722, Poly_aftertouch_c, 0, 61, 0
1, 48949, Note_on_c, 0, 72, 60
1, 48949, Control_c, 0, 64, 117
1, 48966, Note_on_c, 0, 48, 46
1, 48987, Control_c, 0, 64, 109
1, 49005, Control_c, 0, 64, 96
1, 49024, Control_c, 0, 64, 72
1, 49034, Note_on_c, 0, 48, 0
1, 49041, Control_c, 0, 64, 46
1, 49061, Note_on_c, 0, 69, 62
1, 49061, Control_c, 0, 64, 35
1, 49067, Note_on_c, 0, 41, 53
1, 49080, Control_c, 0, 64, 43
1, 49088, Note_on_c, 0, 72, 0
1, 49088, Poly_aftertouch_c, 0, 72, 0
1, 49099, Control_c, 0, 64, 57
1, 49117, Control_c, 0, 64, 74
1, 49127, Note_on_c, 0, 41, 0
1, 49137, Control_c, 0, 64, 85
1, 49155, Control_c, 0, 64, 97
1, 49173, Control_c, 0, 64, 109
1, 49192, Control_c, 0, 64, 115
1, 49230, Control_c, 0, 64, 119
1, 49245, Note_on_c, 0, 69, 0
1, 49245, Poly_aftertouch_c, 0, 69, 0
1, 49267, Control_c, 0, 67, 60
1, 49314, Note_on_c, 0, 49, 53
1, 49322, Control_c, 0, 64, 123
1, 49332, Note_on_c, 0, 65, 45
1, 49354, Note_on_c, 0, 49, 0
1, 49369, Note_on_c, 0, 65, 0
1, 49456, Note_on_c, 0, 57, 51
1, 49466, Note_on_c, 0, 61, 47
1, 49489, Note_on_c, 0, 57, 0
1, 49489, Poly_aftertouch_c, 0, 57, 0
1, 49504, Note_on_c, 0, 61, 0
1, 49504, Poly_aftertouch_c, 0, 61, 0
1, 49715, Note_on_c, 0, 70, 62
1, 49739, Note_on_c, 0, 48, 42
1, 49782, Note_on_c, 0, 48, 0
1, 49828, Control_c, 0, 64, 118
1, 49830, Control_c, 0, 67, 55
1, 49865, Control_c, 0, 64, 109
1, 49883, Control_c, 0, 64, 94
1, 49890, Note_on_c, 0, 70, 0
1, 49890, Poly_aftertouch_c, 0, 70, 0
1, 49902, Control_c, 0, 64, 71
1, 49905, Note_on_c, 0, 73, 62
1, 49921, Control_c, 0, 64, 50
1, 49930, Note_on_c, 0, 39, 44
1, 49938, Control_c, 0, 64, 47
1, 49939, Control_c, 0, 67, 51
1, 49958, Control_c, 0, 64, 55
1, 49977, Control_c, 0, 64, 68
1, 49995, Control_c, 0, 64, 78
1, 50014, Control_c, 0, 64, 87
1, 50031, Note_on_c, 0, 39, 0
1, 50031, Control_c, 0, 64, 97
1, 50052, Control_c, 0, 64, 107
1, 50071, Control_c, 0, 64, 112
1, 50072, Control_c, 0, 67, 47
1, 50088, Note_on_c, 0, 73, 0
1, 50101, Note_on_c, 0, 66, 42
1, 50145, Control_c, 0, 64, 116
1, 50157, Note_on_c, 0, 66, 0
1, 50157, Poly_aftertouch_c, 0, 66, 0
1, 50163, Control_c, 0, 67, 43
1, 50169, Note_on_c, 0, 49, 48
1, 50184, Control_c, 0, 64, 120
1, 50193, Note_on_c, 0, 65, 55
1, 50225, Note_on_c, 0, 49, 0
1, 50236, Note_on_c, 0, 65, 0
1, 50239, Control_c, 0, 64, 124
1, 50285, Note_on_c, 0, 64, 56
1, 50305, Note_on_c, 0, 58, 45
1, 50335, Note_on_c, 0, 64, 0
1, 50342, Note_on_c, 0, 58, 0
1, 50360, Note_on_c, 0, 63, 62
1, 50389, Control_c, 0, 67, 39
1, 50439, Note_on_c, 0, 48, 43
1, 50448, Note_on_c, 0, 63, 0
1, 50448, Poly_aftertouch_c, 0, 63, 0
1, 50453, Note_on_c, 0, 69, 67
1, 50463, Control_c, 0, 67, 35
1, 50482, Control_c, 0, 64, 111
1, 50500, Control_c, 0, 64, 86
1, 50506, Note_on_c, 0, 48, 0
1, 50521, Control_c, 0, 64, 60
1, 50538, Control_c, 0, 64, 56
1, 50541, Note_on_c, 0, 69, 0
1, 50541, Poly_aftertouch_c, 0, 69, 0
1, 50545, Note_on_c, 0, 41, 55
1, 50551, Note_on_c, 0, 72, 68
1, 50557, Control_c, 0, 64, 63
1, 50576, Control_c, 0, 64, 73
1, 50583, Note_on_c, 0, 72, 0
1, 50583, Poly_aftertouch_c, 0, 72, 0
1, 50594, Control_c, 0, 64, 83
1, 50613, Control_c, 0, 64, 92
1, 50615, Control_c, 0, 67, 31
1, 50632, Control_c, 0, 64, 105
1, 50651, Control_c, 0, 64, 116
1, 50664, Note_on_c, 0, 41, 0
1, 50668, Control_c, 0, 64, 121
1, 50689, Note_on_c, 0, 57, 54
1, 50728, Note_on_c, 0, 49, 48
1, 50729, Note_on_c, 0, 57, 0
1, 50729, Poly_aftertouch_c, 0, 57, 0
1, 50769, Note_on_c, 0, 49, 0
1, 50786, Note_on_c, 0, 63, 53
1, 50825, Note_on_c, 0, 63, 0
1, 50825, Poly_aftertouch_c, 0, 63, 0
1, 50874, Note_on_c, 0, 57, 57
1, 50874, Note_on_c, 0, 66, 60
1, 50903, Note_on_c, 0, 66, 0
1, 50903, Poly_aftertouch_c, 0, 66, 0
1, 50914, Note_on_c, 0, 57, 0
1, 50914, Poly_aftertouch_c, 0, 57, 0
1, 50976, Note_on_c, 0, 69, 63
1, 50987, Control_c, 0, 67, 27
1, 51002, Note_on_c, 0, 69, 0
1, 51002, Poly_aftertouch_c, 0, 69, 0
1, 51037, Note_on_c, 0, 51, 33
1, 51058, Note_on_c, 0, 73, 68
1, 51080, Control_c, 0, 64, 116
1, 51086, Note_on_c, 0, 51, 0
1, 51086, Poly_aftertouch_c, 0, 51, 0
1, 51099, Control_c, 0, 64, 107
1, 51118, Control_c, 0, 64, 85
1, 51136, Control_c, 0, 64, 61
1, 51147, Note_on_c, 0, 73, 0
1, 51154, Control_c, 0, 64, 56
1, 51163, Note_on_c, 0, 77, 76
1, 51165, Note_on_c, 0, 43, 53
1, 51173, Control_c, 0, 64, 61
1, 51193, Control_c, 0, 64, 69
1, 51211, Control_c, 0, 64, 77
1, 51224, Note_on_c, 0, 43, 0
1, 51224, Poly_aftertouch_c, 0, 43, 0
1, 51229, Control_c, 0, 64, 82
1, 51249, Control_c, 0, 64, 88
1, 51268, Control_c, 0, 64, 96
1, 51286, Control_c, 0, 64, 102
1, 51305, Control_c, 0, 64, 108
1, 51319, Note_on_c, 0, 77, 0
1, 51323, Control_c, 0, 64, 112
1, 51342, Note_on_c, 0, 72, 57
1, 51360, Control_c, 0, 64, 118
1, 51370, Note_on_c, 0, 72, 0
1, 51370, Poly_aftertouch_c, 0, 72, 0
1, 51378, Note_on_c, 0, 53, 51
1, 51398, Control_c, 0, 64, 123
1, 51416, Control_c, 0, 67, 23
1, 51436, Control_c, 0, 64, 127
1, 51440, Note_on_c, 0, 53, 0
1, 51446, Note_on_c, 0, 71, 54
1, 51478, Note_on_c, 0, 71, 0
1, 51478, Poly_aftertouch_c, 0, 71, 0
1, 51496, Note_on_c, 0, 61, 58
1, 51506, Note_on_c, 0, 70, 74
1, 51525, Note_on_c, 0, 61, 0
1, 51525, Poly_aftertouch_c, 0, 61, 0
1, 51573, Note_on_c, 0, 70, 0
1, 51573, Poly_aftertouch_c, 0, 70, 0
1, 51595, Note_on_c, 0, 65, 69
1, 51614, Note_on_c, 0, 51, 67
1, 51648, Note_on_c, 0, 72, 72
1, 51668, Note_on_c, 0, 65, 0
1, 51678, Note_on_c, 0, 51, 0
1, 51678, Poly_aftertouch_c, 0, 51, 0
1, 51678, Control_c, 0, 64, 119
1, 51698, Control_c, 0, 64, 97
1, 51717, Control_c, 0, 64, 65
1, 51735, Control_c, 0, 64, 49
1, 51740, Note_on_c, 0, 44, 71
1, 51749, Note_on_c, 0, 75, 82
1, 51753, Control_c, 0, 64, 55
1, 51757, Note_on_c, 0, 72, 0
1, 51757, Poly_aftertouch_c, 0, 72, 0
1, 51772, Control_c, 0, 64, 68
1, 51791, Control_c, 0, 64, 81
1, 51799, Note_on_c, 0, 75, 0
1, 51799, Poly_aftertouch_c, 0, 75, 0
1, 51810, Control_c, 0, 64, 92
1, 51828, Control_c, 0, 64, 106
1, 51830, Note_on_c, 0, 44, 0
1, 51830, Poly_aftertouch_c, 0, 44, 0
1, 51847, Control_c, 0, 64, 119
1, 51854, Note_on_c, 0, 60, 61
1, 51866, Control_c, 0, 64, 124
1, 51910, Note_on_c, 0, 60, 0
1, 51923, Note_on_c, 0, 53, 46
1, 51941, Note_on_c, 0, 66, 66
1, 51960, Control_c, 0, 67, 18
1, 51964, Note_on_c, 0, 53, 0
1, 52015, Note_on_c, 0, 66, 0
1, 52015, Poly_aftertouch_c, 0, 66, 0
1, 52034, Note_on_c, 0, 70, 68
1, 52040, Note_on_c, 0, 60, 72
1, 52064, Note_on_c, 0, 70, 0
1, 52064, Poly_aftertouch_c, 0, 70, 0
1, 52068, Note_on_c, 0, 60, 0
1, 52132, Note_on_c, 0, 72, 70
1, 52167, Note_on_c, 0, 72, 0
1, 52167, Poly_aftertouch_c, 0, 72, 0
1, 52195, Note_on_c, 0, 54, 66
1, 52203, Note_on_c, 0, 77, 76
1, 52221, Control_c, 0, 64, 119
1, 52240, Control_c, 0, 64, 110
1, 52259, Control_c, 0, 64, 87
1, 52261, Note_on_c, 0, 77, 0
1, 52269, Note_on_c, 0, 54, 0
1, 52269, Poly_aftertouch_c, 0, 54, 0
1, 52277, Control_c, 0, 64, 57
1, 52293, Note_on_c, 0, 80, 87
1, 52295, Control_c, 0, 64, 39
1, 52298, Note_on_c, 0, 46, 80
1, 52314, Control_c, 0, 64, 45
1, 52315, Control_c, 0, 67, 14
1, 52334, Control_c, 0, 64, 57
1, 52351, Control_c, 0, 64, 73
1, 52359, Note_on_c, 0, 46, 0
1, 52359, Poly_aftertouch_c, 0, 46, 0
1, 52370, Control_c, 0, 64, 81
1, 52390, Control_c, 0, 64, 90
1, 52407, Control_c, 0, 64, 100
1, 52411, Note_on_c, 0, 76, 74
1, 52426, Control_c, 0, 64, 109
1, 52436, Note_on_c, 0, 80, 0
1, 52436, Poly_aftertouch_c, 0, 80, 0
1, 52446, Control_c, 0, 64, 114
1, 52466, Note_on_c, 0, 56, 70
1, 52500, Note_on_c, 0, 75, 80
1, 52500, Control_c, 0, 64, 120
1, 52507, Note_on_c, 0, 76, 0
1, 52539, Control_c, 0, 64, 127
1, 52543, Note_on_c, 0, 56, 0
1, 52578, Note_on_c, 0, 75, 0
1, 52578, Poly_aftertouch_c, 0, 75, 0
1, 52585, Note_on_c, 0, 73, 73
1, 52589, Note_on_c, 0, 65, 70
1, 52622, Note_on_c, 0, 65, 0
1, 52638, Note_on_c, 0, 73, 0
1, 52645, Note_on_c, 0, 68, 65
1, 52713, Note_on_c, 0, 54, 65
1, 52718, Note_on_c, 0, 75, 77
1, 52753, Note_on_c, 0, 68, 0
1, 52753, Poly_aftertouch_c, 0, 68, 0
1, 52782, Control_c, 0, 64, 115
1, 52801, Control_c, 0, 64, 73
1, 52818, Control_c, 0, 64, 0
1, 52819, Note_on_c, 0, 78, 81
1, 52834, Note_on_c, 0, 48, 67
1, 52836, Note_on_c, 0, 75, 0
1, 52836, Poly_aftertouch_c, 0, 75, 0
1, 52841, Note_on_c, 0, 54, 0
1, 52841, Poly_aftertouch_c, 0, 54, 0
1, 52873, Note_on_c, 0, 78, 0
1, 52894, Control_c, 0, 64, 57
1, 52912, Control_c, 0, 64, 81
1, 52923, Note_on_c, 0, 63, 67
1, 52930, Control_c, 0, 64, 102
1, 52938, Note_on_c, 0, 48, 0
1, 52951, Control_c, 0, 64, 125
1, 52960, Note_on_c, 0, 63, 0
1, 52960, Poly_aftertouch_c, 0, 63, 0
1, 52992, Note_on_c, 0, 56, 57
1, 53007, Note_on_c, 0, 70, 72
1, 53037, Note_on_c, 0, 70, 0
1, 53037, Poly_aftertouch_c, 0, 70, 0
1, 53042, Note_on_c, 0, 56, 0
1, 53108, Note_on_c, 0, 72, 74
1, 53115, Note_on_c, 0, 63, 66
1, 53135, Note_on_c, 0, 72, 0
1, 53135, Poly_aftertouch_c, 0, 72, 0
1, 53151, Note_on_c, 0, 63, 0
1, 53151, Poly_aftertouch_c, 0, 63, 0
1, 53187, Note_on_c, 0, 75, 77
1, 53236, Note_on_c, 0, 75, 0
1, 53236, Poly_aftertouch_c, 0, 75, 0
1, 53255, Note_on_c, 0, 58, 70
1, 53280, Note_on_c, 0, 78, 78
1, 53293, Note_on_c, 0, 58, 0
1, 53313, Note_on_c, 0, 78, 0
1, 53324, Control_c, 0, 64, 103
1, 53343, Control_c, 0, 64, 72
1, 53361, Control_c, 0, 64, 48
1, 53383, Note_on_c, 0, 82, 80
1, 53388, Note_on_c, 0, 78, 69
1, 53393, Note_on_c, 0, 58, 61
1, 53393, Note_on_c, 0, 50, 49
1, 53398, Control_c, 0, 64, 60
1, 53417, Control_c, 0, 64, 75
1, 53429, Note_on_c, 0, 50, 0
1, 53431, Note_on_c, 0, 58, 0
1, 53435, Control_c, 0, 64, 86
1, 53455, Control_c, 0, 64, 101
1, 53474, Control_c, 0, 64, 116
1, 53480, Note_on_c, 0, 82, 0
1, 53485, Note_on_c, 0, 78, 0
1, 53492, Control_c, 0, 64, 126
1, 53534, Note_on_c, 0, 50, 21
1, 53537, Note_on_c, 0, 58, 32
1, 53585, Note_on_c, 0, 58, 0
1, 53595, Note_on_c, 0, 50, 0
1, 53623, Note_on_c, 0, 78, 77
1, 53638, Note_on_c, 0, 66, 49
1, 53639, Note_on_c, 0, 70, 53
1, 53654, Note_on_c, 0, 78, 0
1, 53666, Note_on_c, 0, 70, 0
1, 53666, Poly_aftertouch_c, 0, 70, 0
1, 53670, Note_on_c, 0, 66, 0
1, 53670, Poly_aftertouch_c, 0, 66, 0
1, 53763, Note_on_c, 0, 68, 47
1, 53811, Note_on_c, 0, 68, 0
1, 53811, Note_on_c, 0, 68, 48
1, 53812, Note_on_c, 0, 56, 66
1, 53845, Note_on_c, 0, 68, 0
1, 53845, Poly_aftertouch_c, 0, 68, 0
1, 53864, Note_on_c, 0, 56, 0
1, 53902, Note_on_c, 0, 78, 74
1, 53905, Note_on_c, 0, 66, 58
1, 53928, Note_on_c, 0, 66, 0
1, 53928, Poly_aftertouch_c, 0, 66, 0
1, 53929, Note_on_c, 0, 78, 0
1, 53942, Control_c, 0, 64, 108
1, 53959, Control_c, 0, 64, 82
1, 53979, Control_c, 0, 64, 59
1, 53997, Note_on_c, 0, 82, 86
1, 53998, Note_on_c, 0, 46, 71
1, 54003, Note_on_c, 0, 70, 72
1, 54009, Note_on_c, 0, 56, 53
1, 54016, Control_c, 0, 64, 67
1, 54025, Note_on_c, 0, 82, 0
1, 54033, Note_on_c, 0, 70, 0
1, 54033, Poly_aftertouch_c, 0, 70, 0
1, 54034, Control_c, 0, 64, 81
1, 54037, Note_on_c, 0, 46, 0
1, 54037, Poly_aftertouch_c, 0, 46, 0
1, 54048, Note_on_c, 0, 56, 0
1, 54053, Control_c, 0, 64, 95
1, 54073, Control_c, 0, 64, 115
1, 54090, Control_c, 0, 64, 127
1, 54100, Note_on_c, 0, 46, 80
1, 54122, Note_on_c, 0, 54, 48
1, 54129, Note_on_c, 0, 46, 0
1, 54129, Poly_aftertouch_c, 0, 46, 0
1, 54160, Note_on_c, 0, 54, 0
1, 54160, Poly_aftertouch_c, 0, 54, 0
1, 54164, Control_c, 0, 67, 10
1, 54204, Note_on_c, 0, 77, 85
1, 54205, Note_on_c, 0, 65, 78
1, 54225, Note_on_c, 0, 70, 58
1, 54238, Note_on_c, 0, 65, 0
1, 54251, Note_on_c, 0, 70, 0
1, 54251, Poly_aftertouch_c, 0, 70, 0
1, 54267, Note_on_c, 0, 77, 0
1, 54308, Note_on_c, 0, 68, 65
1, 54314, Note_on_c, 0, 56, 59
1, 54330, Note_on_c, 0, 68, 0
1, 54330, Poly_aftertouch_c, 0, 68, 0
1, 54341, Note_on_c, 0, 56, 0
1, 54392, Note_on_c, 0, 68, 78
1, 54394, Note_on_c, 0, 56, 73
1, 54420, Note_on_c, 0, 68, 0
1, 54420, Poly_aftertouch_c, 0, 68, 0
1, 54440, Note_on_c, 0, 56, 0
1, 54463, Note_on_c, 0, 77, 81
1, 54466, Note_on_c, 0, 65, 71
1, 54494, Note_on_c, 0, 65, 0
1, 54497, Note_on_c, 0, 77, 0
1, 54522, Control_c, 0, 64, 102
1, 54540, Control_c, 0, 64, 70
1, 54558, Control_c, 0, 64, 53
1, 54576, Note_on_c, 0, 42, 74
1, 54576, Control_c, 0, 64, 59
1, 54577, Note_on_c, 0, 70, 82
1, 54578, Note_on_c, 0, 82, 90
1, 54582, Note_on_c, 0, 49, 72
1, 54597, Control_c, 0, 64, 72
1, 54605, Note_on_c, 0, 70, 0
1, 54605, Poly_aftertouch_c, 0, 70, 0
1, 54610, Note_on_c, 0, 42, 0
1, 54610, Poly_aftertouch_c, 0, 42, 0
1, 54611, Note_on_c, 0, 82, 0
1, 54616, Control_c, 0, 64, 86
1, 54618, Note_on_c, 0, 49, 0
1, 54633, Control_c, 0, 64, 103
1, 54652, Control_c, 0, 64, 124
1, 54673, Note_on_c, 0, 42, 86
1, 54679, Note_on_c, 0, 49, 80
1, 54705, Note_on_c, 0, 42, 0
1, 54705, Poly_aftertouch_c, 0, 42, 0
1, 54713, Note_on_c, 0, 49, 0
1, 54766, Note_on_c, 0, 76, 87
1, 54775, Note_on_c, 0, 64, 68
1, 54788, Note_on_c, 0, 76, 0
1, 54799, Note_on_c, 0, 64, 0
1, 54873, Note_on_c, 0, 68, 82
1, 54882, Note_on_c, 0, 56, 74
1, 54913, Note_on_c, 0, 56, 0
1, 54959, Note_on_c, 0, 68, 0
1, 54959, Poly_aftertouch_c, 0, 68, 0
1, 54967, Note_on_c, 0, 56, 89
1, 55000, Note_on_c, 0, 56, 0
1, 55046, Note_on_c, 0, 63, 74
1, 55046, Note_on_c, 0, 75, 82
1, 55069, Note_on_c, 0, 75, 0
1, 55069, Poly_aftertouch_c, 0, 75, 0
1, 55074, Note_on_c, 0, 63, 0
1, 55074, Poly_aftertouch_c, 0, 63, 0
1, 55081, Control_c, 0, 64, 99
1, 55101, Control_c, 0, 64, 67
1, 55119, Control_c, 0, 64, 54
1, 55135, Note_on_c, 0, 43, 71
1, 55136, Control_c, 0, 64, 62
1, 55141, Note_on_c, 0, 51, 66
1, 55142, Note_on_c, 0, 82, 96
1, 55144, Note_on_c, 0, 70, 88
1, 55158, Control_c, 0, 64, 77
1, 55170, Note_on_c, 0, 70, 0
1, 55170, Poly_aftertouch_c, 0, 70, 0
1, 55174, Note_on_c, 0, 43, 0
1, 55174, Poly_aftertouch_c, 0, 43, 0
1, 55176, Control_c, 0, 64, 94
1, 55181, Note_on_c, 0, 82, 0
1, 55194, Control_c, 0, 64, 117
1, 55212, Control_c, 0, 64, 127
1, 55234, Note_on_c, 0, 43, 82
1, 55274, Note_on_c, 0, 43, 0
1, 55274, Poly_aftertouch_c, 0, 43, 0
1, 55275, Note_on_c, 0, 51, 0
1, 55275, Poly_aftertouch_c, 0, 51, 0
1, 55327, Note_on_c, 0, 74, 95
1, 55332, Note_on_c, 0, 62, 78
1, 55346, Note_on_c, 0, 74, 0
1, 55346, Poly_aftertouch_c, 0, 74, 0
1, 55353, Note_on_c, 0, 62, 0
1, 55412, Note_on_c, 0, 64, 70
1, 55433, Note_on_c, 0, 52, 49
1, 55447, Note_on_c, 0, 64, 0
1, 55487, Note_on_c, 0, 64, 66
1, 55496, Note_on_c, 0, 58, 58
1, 55523, Note_on_c, 0, 64, 0
1, 55543, Note_on_c, 0, 58, 0
1, 55554, Note_on_c, 0, 52, 0
1, 55592, Note_on_c, 0, 73, 86
1, 55605, Control_c, 0, 64, 122
1, 55606, Note_on_c, 0, 61, 50
1, 55609, Note_on_c, 0, 73, 0
1, 55624, Note_on_c, 0, 63, 35
1, 55624, Control_c, 0, 64, 72
1, 55644, Control_c, 0, 64, 0
1, 55645, Note_on_c, 0, 61, 0
1, 55645, Poly_aftertouch_c, 0, 61, 0
1, 55672, Note_on_c, 0, 63, 0
1, 55672, Poly_aftertouch_c, 0, 63, 0
1, 55684, Note_on_c, 0, 44, 71
1, 55692, Note_on_c, 0, 42, 58
1, 55697, Control_c, 0, 64, 83
1, 55702, Note_on_c, 0, 82, 98
1, 55706, Note_on_c, 0, 70, 86
1, 55717, Note_on_c, 0, 44, 0
1, 55717, Poly_aftertouch_c, 0, 44, 0
1, 55717, Control_c, 0, 64, 127
1, 55725, Note_on_c, 0, 53, 24
1, 55726, Note_on_c, 0, 53, 0
1, 55727, Note_on_c, 0, 42, 0
1, 55727, Poly_aftertouch_c, 0, 42, 0
1, 55730, Note_on_c, 0, 82, 0
1, 55733, Note_on_c, 0, 70, 0
1, 55733, Poly_aftertouch_c, 0, 70, 0
1, 55781, Note_on_c, 0, 52, 13
1, 55806, Note_on_c, 0, 42, 75
1, 55822, Note_on_c, 0, 44, 54
1, 55832, Poly_aftertouch_c, 0, 53, 0
1, 55835, Note_on_c, 0, 42, 0
1, 55835, Poly_aftertouch_c, 0, 42, 0
1, 55851, Note_on_c, 0, 44, 0
1, 55851, Poly_aftertouch_c, 0, 44, 0
1, 55886, Note_on_c, 0, 52, 0
1, 55886, Note_on_c, 0, 61, 88
1, 55887, Note_on_c, 0, 73, 93
1, 55904, Note_on_c, 0, 68, 67
1, 55907, Note_on_c, 0, 73, 0
1, 55913, Note_on_c, 0, 61, 0
1, 55913, Poly_aftertouch_c, 0, 61, 0
1, 55924, Control_c, 0, 67, 0
1, 55930, Note_on_c, 0, 68, 0
1, 55930, Poly_aftertouch_c, 0, 68, 0
1, 55986, Note_on_c, 0, 65, 87
1, 56015, Note_on_c, 0, 56, 45
1, 56017, Note_on_c, 0, 65, 0
1, 56059, Note_on_c, 0, 53, 36
1, 56065, Note_on_c, 0, 56, 0
1, 56065, Note_on_c, 0, 56, 49
1, 56113, Poly_aftertouch_c, 0, 58, 127
1, 56124, Note_on_c, 0, 56, 0
1, 56135, Note_on_c, 0, 53, 0
1, 56157, Poly_aftertouch_c, 0, 58, 0
1, 56158, Poly_aftertouch_c, 0, 65, 127
1, 56163, Note_on_c, 0, 72, 66
1, 56165, Note_on_c, 0, 60, 60
1, 56166, Note_on_c, 0, 74, 71
1, 56183, Note_on_c, 0, 62, 39
1, 56185, Poly_aftertouch_c, 0, 65, 0
1, 56187, Note_on_c, 0, 74, 0
1, 56187, Poly_aftertouch_c, 0, 74, 0
1, 56194, Note_on_c, 0, 60, 0
1, 56198, Note_on_c, 0, 72, 0
1, 56198, Poly_aftertouch_c, 0, 72, 0
1, 56223, Control_c, 0, 64, 88
1, 56225, Note_on_c, 0, 62, 0
1, 56241, Control_c, 0, 64, 29
1, 56260, Control_c, 0, 64, 15
1, 56265, Note_on_c, 0, 45, 82
1, 56270, Note_on_c, 0, 82, 101
1, 56272, Note_on_c, 0, 70, 91
1, 56277, Note_on_c, 0, 33, 66
1, 56280, Control_c, 0, 64, 97
1, 56292, Note_on_c, 0, 70, 0
1, 56292, Poly_aftertouch_c, 0, 70, 0
1, 56293, Note_on_c, 0, 82, 0
1, 56294, Note_on_c, 0, 45, 0
1, 56298, Control_c, 0, 64, 127
1, 56312, Note_on_c, 0, 33, 0
1, 56355, Note_on_c, 0, 45, 90
1, 56368, Note_on_c, 0, 33, 86
1, 56398, Note_on_c, 0, 45, 0
1, 56400, Note_on_c, 0, 33, 0
1, 56448, Note_on_c, 0, 59, 90
1, 56450, Note_on_c, 0, 71, 95
1, 56471, Note_on_c, 0, 59, 0
1, 56473, Note_on_c, 0, 71, 0
1, 56473, Poly_aftertouch_c, 0, 71, 0
1, 56488, Note_on_c, 0, 65, 33
1, 56530, Note_on_c, 0, 65, 0
1, 56571, Note_on_c, 0, 63, 72
1, 56588, Note_on_c, 0, 51, 52
1, 56593, Note_on_c, 0, 63, 0
1, 56593, Poly_aftertouch_c, 0, 63, 0
1, 56638, Note_on_c, 0, 51, 0
1, 56638, Note_on_c, 0, 51, 57
1, 56640, Note_on_c, 0, 63, 90
1, 56662, Note_on_c, 0, 63, 0
1, 56662, Poly_aftertouch_c, 0, 63, 0
1, 56717, Note_on_c, 0, 51, 0
1, 56717, Poly_aftertouch_c, 0, 51, 0
1, 56745, Note_on_c, 0, 58, 95
1, 56752, Note_on_c, 0, 70, 94
1, 56770, Note_on_c, 0, 58, 0
1, 56778, Note_on_c, 0, 70, 0
1, 56778, Poly_aftertouch_c, 0, 70, 0
1, 56891, Note_on_c, 0, 22, 94
1, 56971, Control_c, 0, 64, 99
1, 56989, Control_c, 0, 64, 54
1, 57007, Control_c, 0, 64, 0
1, 57027, Control_c, 0, 64, 42
1, 57029, Note_on_c, 0, 70, 98
1, 57029, Note_on_c, 0, 82, 101
1, 57036, Note_on_c, 0, 34, 90
1, 57045, Control_c, 0, 64, 87
1, 57052, Note_on_c, 0, 70, 0
1, 57052, Poly_aftertouch_c, 0, 70, 0
1, 57059, Note_on_c, 0, 82, 0
1, 57063, Control_c, 0, 64, 127
1, 57077, Note_on_c, 0, 22, 0
1, 57100, Note_on_c, 0, 34, 0
1, 57167, Note_on_c, 0, 34, 94
1, 57169, Note_on_c, 0, 22, 89
1, 57205, Poly_aftertouch_c, 0, 27, 127
1, 57213, Note_on_c, 0, 22, 0
1, 57218, Note_on_c, 0, 34, 0
1, 57248, Poly_aftertouch_c, 0, 27, 0
1, 57295, Note_on_c, 0, 58, 93
1, 57299, Note_on_c, 0, 65, 80
1, 57301, Note_on_c, 0, 70, 82
1, 57351, Note_on_c, 0, 58, 0
1, 57398, Note_on_c, 0, 70, 0
1, 57398, Poly_aftertouch_c, 0, 70, 0
1, 57400, Note_on_c, 0, 61, 84
1, 57405, Poly_aftertouch_c, 0, 68, 0
1, 57427, Note_on_c, 0, 61, 0
1, 57427, Poly_aftertouch_c, 0, 61, 0
1, 57433, Note_on_c, 0, 49, 44
1, 57477, Note_on_c, 0, 61, 88
1, 57482, Note_on_c, 0, 65, 0
1, 57512, Note_on_c, 0, 61, 0
1, 57512, Note_on_c, 0, 49, 0
1, 57512, Note_on_c, 0, 49, 18
1, 57512, Poly_aftertouch_c, 0, 61, 0
1, 57541, Note_on_c, 0, 59, 80
1, 57544, Note_on_c, 0, 65, 65
1, 57550, Note_on_c, 0, 71, 77
1, 57556, Note_on_c, 0, 49, 0
1, 57569, Note_on_c, 0, 59, 0
1, 57587, Control_c, 0, 64, 121
1, 57588, Note_on_c, 0, 65, 0
1, 57597, Note_on_c, 0, 71, 0
1, 57597, Poly_aftertouch_c, 0, 71, 0
1, 57607, Control_c, 0, 64, 71
1, 57624, Control_c, 0, 64, 0
1, 57643, Control_c, 0, 64, 32
1, 57661, Control_c, 0, 64, 79
1, 57681, Control_c, 0, 64, 127
1, 57684, Note_on_c, 0, 82, 101
1, 57685, Note_on_c, 0, 70, 96
1, 57687, Note_on_c, 0, 37, 86
1, 57692, Note_on_c, 0, 25, 82
1, 57704, Note_on_c, 0, 70, 0
1, 57704, Poly_aftertouch_c, 0, 70, 0
1, 57707, Note_on_c, 0, 82, 0
1, 57716, Note_on_c, 0, 37, 0
1, 57728, Note_on_c, 0, 25, 0
1, 57790, Note_on_c, 0, 37, 95
1, 57802, Note_on_c, 0, 25, 92
1, 57842, Note_on_c, 0, 25, 0
1, 57844, Note_on_c, 0, 37, 0
1, 57862, Note_on_c, 0, 27, 8
1, 57933, Note_on_c, 0, 71, 86
1, 57934, Note_on_c, 0, 59, 86
1, 57935, Note_on_c, 0, 65, 83
1, 57937, Note_on_c, 0, 27, 0
1, 58008, Note_on_c, 0, 59, 0
1, 58028, Note_on_c, 0, 56, 78
1, 58028, Note_on_c, 0, 62, 84
1, 58037, Note_on_c, 0, 71, 0
1, 58037, Poly_aftertouch_c, 0, 71, 0
1, 58046, Note_on_c, 0, 53, 54
1, 58059, Note_on_c, 0, 62, 0
1, 58077, Note_on_c, 0, 53, 0
1, 58077, Note_on_c, 0, 56, 0
1, 58088, Note_on_c, 0, 65, 0
1, 58142, Note_on_c, 0, 56, 69
1, 58148, Note_on_c, 0, 53, 82
1, 58149, Note_on_c, 0, 62, 70
1, 58170, Note_on_c, 0, 62, 0
1, 58181, Note_on_c, 0, 56, 0
1, 58187, Note_on_c, 0, 53, 0
1, 58195, Note_on_c, 0, 60, 80
1, 58196, Note_on_c, 0, 72, 81
1, 58209, Note_on_c, 0, 65, 76
1, 58226, Note_on_c, 0, 60, 0
1, 58232, Note_on_c, 0, 65, 0
1, 58247, Note_on_c, 0, 72, 0
1, 58247, Poly_aftertouch_c, 0, 72, 0
1, 58261, Control_c, 0, 64, 88
1, 58280, Control_c, 0, 64, 0
1, 58316, Control_c, 0, 64, 50
1, 58335, Control_c, 0, 64, 106
1, 58336, Note_on_c, 0, 39, 96
1, 58340, Note_on_c, 0, 82, 99
1, 58340, Note_on_c, 0, 70, 93
1, 58345, Note_on_c, 0, 27, 84
1, 58353, Control_c, 0, 64, 127
1, 58360, Note_on_c, 0, 82, 0
1, 58361, Note_on_c, 0, 70, 0
1, 58361, Poly_aftertouch_c, 0, 70, 0
1, 58367, Note_on_c, 0, 39, 0
1, 58375, Note_on_c, 0, 27, 0
1, 58448, Note_on_c, 0, 39, 96
1, 58452, Note_on_c, 0, 27, 90
1, 58487, Note_on_c, 0, 39, 0
1, 58491, Note_on_c, 0, 27, 0
1, 58590, Note_on_c, 0, 60, 94
1, 58591, Note_on_c, 0, 72, 97
1, 58597, Note_on_c, 0, 66, 81
1, 58605, Note_on_c, 0, 70, 73
1, 58611, Note_on_c, 0, 72, 0
1, 58611, Poly_aftertouch_c, 0, 72, 0
1, 58614, Note_on_c, 0, 60, 0
1, 58623, Note_on_c, 0, 66, 0
1, 58623, Poly_aftertouch_c, 0, 66, 0
1, 58631, Note_on_c, 0, 70, 0
1, 58631, Poly_aftertouch_c, 0, 70, 0
1, 58701, Note_on_c, 0, 63, 81
1, 58704, Note_on_c, 0, 54, 81
1, 58724, Note_on_c, 0, 54, 0
1, 58724, Poly_aftertouch_c, 0, 54, 0
1, 58727, Note_on_c, 0, 63, 0
1, 58727, Poly_aftertouch_c, 0, 63, 0
1, 58774, Poly_aftertouch_c, 0, 70, 0
1, 58804, Note_on_c, 0, 54, 87
1, 58804, Note_on_c, 0, 63, 98
1, 58823, Poly_aftertouch_c, 0, 61, 0
1, 58831, Note_on_c, 0, 63, 0
1, 58831, Poly_aftertouch_c, 0, 63, 0
1, 58875, Note_on_c, 0, 54, 0
1, 58875, Poly_aftertouch_c, 0, 54, 0
1, 58938, Poly_aftertouch_c, 0, 56, 0
1, 58956, Note_on_c, 0, 61, 94
1, 58959, Note_on_c, 0, 73, 98
1, 58979, Note_on_c, 0, 61, 0
1, 58988, Note_on_c, 0, 73, 0
1, 58992, Note_on_c, 0, 74, 55
1, 58992, Poly_aftertouch_c, 0, 74, 0
1, 58993, Note_on_c, 0, 74, 0
1, 59124, Note_on_c, 0, 29, 88
1, 59174, Note_on_c, 0, 31, 31
1, 59175, Note_on_c, 0, 31, 0
1, 59175, Poly_aftertouch_c, 0, 31, 0
1, 59346, Control_c, 0, 64, 86
1, 59364, Control_c, 0, 64, 16
1, 59383, Control_c, 0, 64, 0
1, 59402, Note_on_c, 0, 41, 95
1, 59404, Note_on_c, 0, 81, 101
1, 59405, Note_on_c, 0, 69, 97
1, 59439, Control_c, 0, 64, 76
1, 59457, Control_c, 0, 64, 127
1, 59478, Note_on_c, 0, 32, 17
1, 59522, Note_on_c, 0, 81, 0
1, 59545, Note_on_c, 0, 69, 0
1, 59545, Poly_aftertouch_c, 0, 69, 0
1, 59557, Note_on_c, 0, 32, 0
1, 59574, Note_on_c, 0, 41, 0
1, 59579, Note_on_c, 0, 29, 0
1, 59642, Note_on_c, 0, 29, 81
1, 59643, Note_on_c, 0, 41, 91
1, 59661, Note_on_c, 0, 70, 44
1, 59680, Note_on_c, 0, 41, 0
1, 59689, Note_on_c, 0, 29, 0
1, 59696, Note_on_c, 0, 70, 0
1, 59830, Note_on_c, 0, 61, 94
1, 59835, Note_on_c, 0, 69, 77
1, 59836, Note_on_c, 0, 73, 96
1, 59869, Note_on_c, 0, 66, 53
1, 59901, Note_on_c, 0, 66, 0
1, 59901, Poly_aftertouch_c, 0, 66, 0
1, 59904, Note_on_c, 0, 61, 0
1, 60326, Note_on_c, 0, 63, 80
1, 60333, Note_on_c, 0, 53, 68
1, 60343, Note_on_c, 0, 57, 67
1, 60424, Note_on_c, 0, 65, 92
1, 60429, Note_on_c, 0, 53, 0
1, 60449, Note_on_c, 0, 63, 0
1, 60449, Poly_aftertouch_c, 0, 63, 0
1, 60462, Note_on_c, 0, 57, 0
1, 60462, Poly_aftertouch_c, 0, 57, 0
1, 60479, Note_on_c, 0, 65, 0
1, 60535, Note_on_c, 0, 53, 68
1, 60538, Note_on_c, 0, 65, 95
1, 60539, Note_on_c, 0, 57, 64
1, 60540, Note_on_c, 0, 63, 89
1, 60557, Note_on_c, 0, 64, 64
1, 60558, Note_on_c, 0, 64, 0
1, 60573, Note_on_c, 0, 53, 0
1, 60581, Note_on_c, 0, 69, 0
1, 60581, Note_on_c, 0, 69, 17
1, 60595, Note_on_c, 0, 63, 0
1, 60595, Poly_aftertouch_c, 0, 63, 0
1, 60598, Note_on_c, 0, 73, 0
1, 60599, Note_on_c, 0, 57, 0
1, 60599, Poly_aftertouch_c, 0, 57, 0
1, 60602, Note_on_c, 0, 69, 0
1, 60602, Poly_aftertouch_c, 0, 69, 0
1, 60604, Note_on_c, 0, 65, 0
1, 61402, Control_c, 0, 64, 117
1, 61420, Control_c, 0, 64, 81
1, 61440, Control_c, 0, 64, 29
1, 61458, Control_c, 0, 64, 0
1, 61680, Note_on_c, 0, 46, 93
1, 61681, Note_on_c, 0, 58, 89
1, 61686, Note_on_c, 0, 34, 104
1, 61694, Note_on_c, 0, 22, 91
1, 61717, Note_on_c, 0, 34, 0
1, 61719, Control_c, 0, 64, 127
1, 61722, Note_on_c, 0, 22, 0
1, 61722, Note_on_c, 0, 46, 0
1, 61722, Poly_aftertouch_c, 0, 46, 0
1, 61747, Note_on_c, 0, 58, 0
1, 62444, Note_on_c, 0, 65, 78
1, 62455, Note_on_c, 0, 53, 61
1, 62455, Note_on_c, 0, 58, 67
1, 62462, Note_on_c, 0, 61, 62
1, 62470, Note_on_c, 0, 49, 57
1, 62477, Note_on_c, 0, 46, 54
1, 62482, Note_on_c, 0, 41, 44
1, 62486, Note_on_c, 0, 58, 0
1, 62497, Note_on_c, 0, 61, 0
1, 62520, Note_on_c, 0, 65, 0
1, 62747, Poly_aftertouch_c, 0, 53, 24
1, 62765, Poly_aftertouch_c, 0, 41, 24
1, 62805, Poly_aftertouch_c, 0, 49, 24
1, 62816, Note_on_c, 0, 53, 0
1, 62816, Poly_aftertouch_c, 0, 53, 0
1, 62826, Note_on_c, 0, 41, 0
1, 62826, Poly_aftertouch_c, 0, 41, 0
1, 62879, Note_on_c, 0, 49, 0
1, 62879, Poly_aftertouch_c, 0, 49, 0
1, 62891, Note_on_c, 0, 46, 0
1, 62891, Poly_aftertouch_c, 0, 46, 0
1, 63002, Note_on_c, 0, 61, 80
1, 63004, Note_on_c, 0, 65, 80
1, 63005, Note_on_c, 0, 58, 76
1, 63015, Note_on_c, 0, 53, 63
1, 63027, Note_on_c, 0, 41, 49
1, 63032, Note_on_c, 0, 49, 63
1, 63047, Note_on_c, 0, 46, 57
1, 63091, Note_on_c, 0, 41, 0
1, 63091, Poly_aftertouch_c, 0, 41, 0
1, 63128, Note_on_c, 0, 46, 0
1, 63128, Poly_aftertouch_c, 0, 46, 0
1, 63133, Note_on_c, 0, 53, 0
1, 63133, Poly_aftertouch_c, 0, 53, 0
1, 63161, Note_on_c, 0, 49, 0
1, 63161, Poly_aftertouch_c, 0, 49, 0
1, 63201, Note_on_c, 0, 58, 0
1, 63230, Note_on_c, 0, 65, 0
1, 63231, Note_on_c, 0, 61, 0
1, 63368, Note_on_c, 0, 53, 56
1, 63369, Note_on_c, 0, 58, 78
1, 63372, Note_on_c, 0, 65, 84
1, 63372, Note_on_c, 0, 61, 84
1, 63390, Note_on_c, 0, 49, 57
1, 63391, Note_on_c, 0, 41, 54
1, 63395, Note_on_c, 0, 46, 56
1, 63402, Note_on_c, 0, 53, 0
1, 63402, Poly_aftertouch_c, 0, 53, 0
1, 63416, Note_on_c, 0, 49, 0
1, 63416, Poly_aftertouch_c, 0, 49, 0
1, 63426, Note_on_c, 0, 46, 0
1, 63426, Poly_aftertouch_c, 0, 46, 0
1, 63429, Note_on_c, 0, 41, 0
1, 63429, Poly_aftertouch_c, 0, 41, 0
1, 63439, Note_on_c, 0, 58, 0
1, 63512, Note_on_c, 0, 65, 0
1, 63516, Note_on_c, 0, 61, 0
1, 63534, Control_c, 0, 64, 91
1, 63552, Control_c, 0, 64, 33
1, 63569, Control_c, 0, 64, 0
1, 63570, Note_on_c, 0, 56, 94
1, 63574, Note_on_c, 0, 68, 89
1, 63577, Note_on_c, 0, 61, 77
1, 63581, Note_on_c, 0, 44, 101
1, 63588, Note_on_c, 0, 65, 72
1, 63589, Note_on_c, 0, 32, 89
1, 63589, Control_c, 0, 64, 52
1, 63604, Note_on_c, 0, 56, 0
1, 63610, Note_on_c, 0, 44, 0
1, 63610, Poly_aftertouch_c, 0, 44, 0
1, 63611, Control_c, 0, 64, 93
1, 63618, Note_on_c, 0, 32, 0
1, 63623, Note_on_c, 0, 65, 0
1, 63625, Control_c, 0, 64, 127
1, 63627, Note_on_c, 0, 61, 0
1, 63633, Note_on_c, 0, 68, 0
1, 63806, Poly_aftertouch_c, 0, 32, 0
1, 64019, Note_on_c, 0, 77, 95
1, 64020, Note_on_c, 0, 70, 93
1, 64021, Note_on_c, 0, 65, 95
1, 64021, Note_on_c, 0, 73, 90
1, 64025, Note_on_c, 0, 53, 80
1, 64029, Note_on_c, 0, 61, 86
1, 64039, Note_on_c, 0, 58, 78
1, 64070, Note_on_c, 0, 70, 0
1, 64075, Note_on_c, 0, 73, 0
1, 64079, Note_on_c, 0, 77, 0
1, 64297, Poly_aftertouch_c, 0, 53, 22
1, 64343, Poly_aftertouch_c, 0, 65, 24
1, 64393, Note_on_c, 0, 53, 0
1, 64393, Poly_aftertouch_c, 0, 53, 0
1, 64394, Note_on_c, 0, 65, 0
1, 64394, Note_on_c, 0, 61, 0
1, 64394, Poly_aftertouch_c, 0, 53, 0
1, 64394, Poly_aftertouch_c, 0, 65, 0
1, 64533, Note_on_c, 0, 58, 0
1, 64583, Note_on_c, 0, 77, 93
1, 64588, Note_on_c, 0, 70, 83
1, 64590, Note_on_c, 0, 73, 81
1, 64590, Note_on_c, 0, 65, 81
1, 64595, Note_on_c, 0, 53, 69
1, 64604, Note_on_c, 0, 61, 77
1, 64610, Note_on_c, 0, 58, 59
1, 64626, Note_on_c, 0, 65, 0
1, 64626, Poly_aftertouch_c, 0, 65, 0
1, 64628, Note_on_c, 0, 53, 0
1, 64641, Note_on_c, 0, 61, 0
1, 64648, Note_on_c, 0, 58, 0
1, 64878, Note_on_c, 0, 77, 0
1, 64900, Note_on_c, 0, 70, 0
1, 64909, Note_on_c, 0, 73, 0
1, 64991, Note_on_c, 0, 65, 78
1, 64995, Note_on_c, 0, 77, 89
1, 65003, Note_on_c, 0, 53, 69
1, 65003, Note_on_c, 0, 73, 79
1, 65003, Note_on_c, 0, 61, 77
1, 65009, Note_on_c, 0, 58, 73
1, 65010, Note_on_c, 0, 70, 69
1, 65018, Note_on_c, 0, 65, 0
1, 65018, Poly_aftertouch_c, 0, 65, 0
1, 65024, Note_on_c, 0, 77, 0
1, 65029, Note_on_c, 0, 73, 0
1, 65033, Note_on_c, 0, 61, 0
1, 65037, Note_on_c, 0, 70, 0
1, 65038, Note_on_c, 0, 53, 0
1, 65039, Note_on_c, 0, 58, 0
1, 65329, Control_c, 0, 64, 107
1, 65348, Control_c, 0, 64, 61
1, 65354, Note_on_c, 0, 46, 88
1, 65355, Note_on_c, 0, 58, 84
1, 65363, Note_on_c, 0, 34, 98
1, 65367, Control_c, 0, 64, 27
1, 65369, Note_on_c, 0, 22, 93
1, 65383, Note_on_c, 0, 46, 0
1, 65383, Poly_aftertouch_c, 0, 46, 0
1, 65384, Control_c, 0, 64, 46
1, 65399, Note_on_c, 0, 22, 0
1, 65402, Control_c, 0, 64, 73
1, 65403, Note_on_c, 0, 34, 0
1, 65410, Note_on_c, 0, 58, 0
1, 65423, Control_c, 0, 64, 100
1, 65440, Control_c, 0, 64, 127
1, 65781, Note_on_c, 0, 53, 69
1, 65998, Note_on_c, 0, 65, 99
1, 66001, Note_on_c, 0, 89, 92
1, 66012, Note_on_c, 0, 61, 77
1, 66022, Note_on_c, 0, 85, 71
1, 66093, Note_on_c, 0, 53, 0
1, 66146, Note_on_c, 0, 85, 0
1, 66155, Note_on_c, 0, 87, 76
1, 66161, Note_on_c, 0, 89, 0
1, 66161, Poly_aftertouch_c, 0, 89, 0
1, 66231, Note_on_c, 0, 65, 0
1, 66231, Poly_aftertouch_c, 0, 65, 0
1, 66236, Note_on_c, 0, 87, 0
1, 66236, Note_on_c, 0, 86, 74
1, 66242, Note_on_c, 0, 53, 77
1, 66256, Note_on_c, 0, 61, 0
1, 66295, Note_on_c, 0, 86, 0
1, 66320, Control_c, 0, 64, 96
1, 66331, Note_on_c, 0, 85, 81
1, 66334, Note_on_c, 0, 53, 0
1, 66336, Note_on_c, 0, 64, 93
1, 66339, Control_c, 0, 64, 61
1, 66356, Note_on_c, 0, 60, 70
1, 66358, Control_c, 0, 64, 55
1, 66375, Control_c, 0, 64, 61
1, 66394, Control_c, 0, 64, 71
1, 66415, Control_c, 0, 64, 79
1, 66432, Note_on_c, 0, 82, 81
1, 66433, Control_c, 0, 64, 90
1, 66434, Note_on_c, 0, 85, 0
1, 66450, Control_c, 0, 64, 108
1, 66468, Control_c, 0, 64, 127
1, 66481, Note_on_c, 0, 64, 0
1, 66492, Note_on_c, 0, 60, 0
1, 66504, Note_on_c, 0, 78, 76
1, 66505, Note_on_c, 0, 82, 0
1, 66515, Note_on_c, 0, 53, 72
1, 66532, Note_on_c, 0, 78, 0
1, 66565, Control_c, 0, 64, 101
1, 66581, Control_c, 0, 64, 60
1, 66593, Note_on_c, 0, 63, 92
1, 66601, Note_on_c, 0, 77, 84
1, 66601, Note_on_c, 0, 59, 70
1, 66601, Control_c, 0, 64, 44
1, 66619, Control_c, 0, 64, 52
1, 66623, Note_on_c, 0, 53, 0
1, 66638, Control_c, 0, 64, 64
1, 66656, Control_c, 0, 64, 74
1, 66675, Control_c, 0, 64, 84
1, 66694, Control_c, 0, 64, 97
1, 66698, Note_on_c, 0, 77, 0
1, 66699, Note_on_c, 0, 75, 79
1, 66711, Control_c, 0, 64, 113
1, 66716, Note_on_c, 0, 59, 0
1, 66729, Note_on_c, 0, 63, 0
1, 66729, Poly_aftertouch_c, 0, 63, 0
1, 66730, Control_c, 0, 64, 124
1, 66762, Note_on_c, 0, 75, 0
1, 66762, Poly_aftertouch_c, 0, 75, 0
1, 66769, Note_on_c, 0, 53, 72
1, 66770, Note_on_c, 0, 74, 72
1, 66807, Control_c, 0, 64, 109
1, 66813, Note_on_c, 0, 74, 0
1, 66813, Poly_aftertouch_c, 0, 74, 0
1, 66825, Control_c, 0, 64, 73
1, 66843, Control_c, 0, 64, 44
1, 66851, Note_on_c, 0, 73, 80
1, 66857, Note_on_c, 0, 65, 83
1, 66862, Control_c, 0, 64, 49
1, 66865, Note_on_c, 0, 61, 76
1, 66867, Note_on_c, 0, 53, 0
1, 66867, Note_on_c, 0, 58, 73
1, 66880, Control_c, 0, 64, 61
1, 66900, Control_c, 0, 64, 74
1, 66913, Note_on_c, 0, 65, 0
1, 66913, Poly_aftertouch_c, 0, 65, 0
1, 66918, Control_c, 0, 64, 84
1, 66937, Control_c, 0, 64, 98
1, 66941, Note_on_c, 0, 73, 0
1, 66945, Note_on_c, 0, 70, 82
1, 66955, Control_c, 0, 64, 116
1, 66974, Control_c, 0, 64, 127
1, 66990, Note_on_c, 0, 61, 0
1, 66993, Note_on_c, 0, 58, 0
1, 67002, Note_on_c, 0, 53, 69
1, 67009, Note_on_c, 0, 70, 0
1, 67022, Note_on_c, 0, 66, 70
1, 67037, Note_on_c, 0, 53, 0
1, 67048, Control_c, 0, 64, 117
1, 67055, Note_on_c, 0, 66, 0
1, 67055, Poly_aftertouch_c, 0, 66, 0
1, 67067, Control_c, 0, 64, 84
1, 67086, Control_c, 0, 64, 66
1, 67105, Control_c, 0, 64, 76
1, 67119, Note_on_c, 0, 53, 75
1, 67125, Control_c, 0, 64, 86
1, 67131, Note_on_c, 0, 65, 53
1, 67143, Control_c, 0, 64, 99
1, 67151, Note_on_c, 0, 67, 29
1, 67153, Note_on_c, 0, 53, 0
1, 67162, Control_c, 0, 64, 117
1, 67178, Note_on_c, 0, 65, 0
1, 67178, Poly_aftertouch_c, 0, 65, 0
1, 67179, Control_c, 0, 64, 127
1, 67194, Note_on_c, 0, 63, 77
1, 67201, Note_on_c, 0, 67, 0
1, 67210, Note_on_c, 0, 51, 69
1, 67265, Note_on_c, 0, 63, 0
1, 67265, Poly_aftertouch_c, 0, 63, 0
1, 67271, Note_on_c, 0, 51, 0
1, 67271, Poly_aftertouch_c, 0, 51, 0
1, 67283, Note_on_c, 0, 62, 68
1, 67292, Note_on_c, 0, 50, 76
1, 67318, Note_on_c, 0, 62, 0
1, 67330, Note_on_c, 0, 50, 0
1, 67355, Note_on_c, 0, 61, 79
1, 67360, Note_on_c, 0, 49, 80
1, 67442, Note_on_c, 0, 49, 0
1, 67442, Poly_aftertouch_c, 0, 49, 0
1, 67444, Note_on_c, 0, 58, 83
1, 67446, Note_on_c, 0, 61, 0
1, 67446, Note_on_c, 0, 46, 75
1, 67497, Control_c, 0, 64, 116
1, 67508, Note_on_c, 0, 58, 0
1, 67515, Control_c, 0, 64, 80
1, 67520, Note_on_c, 0, 54, 79
1, 67531, Note_on_c, 0, 41, 79
1, 67534, Control_c, 0, 64, 14
1, 67537, Note_on_c, 0, 46, 0
1, 67537, Poly_aftertouch_c, 0, 46, 0
1, 67552, Note_on_c, 0, 54, 0
1, 67552, Poly_aftertouch_c, 0, 54, 0
1, 67553, Control_c, 0, 64, 0
1, 67560, Note_on_c, 0, 41, 0
1, 67560, Poly_aftertouch_c, 0, 41, 0
1, 67612, Note_on_c, 0, 53, 80
1, 67700, Note_on_c, 0, 53, 0
1, 67704, Note_on_c, 0, 51, 80
1, 67779, Note_on_c, 0, 51, 0
1, 67779, Note_on_c, 0, 50, 74
1, 67779, Poly_aftertouch_c, 0, 51, 0
1, 67854, Note_on_c, 0, 49, 95
1, 67872, Control_c, 0, 64, 73
1, 67873, Note_on_c, 0, 50, 0
1, 67875, Note_on_c, 0, 37, 92
1, 67879, Note_on_c, 0, 25, 86
1, 67880, Note_on_c, 0, 49, 0
1, 67880, Poly_aftertouch_c, 0, 49, 0
1, 67892, Control_c, 0, 64, 127
1, 67915, Note_on_c, 0, 25, 0
1, 67921, Note_on_c, 0, 37, 0
1, 68575, Note_on_c, 0, 65, 74
1, 68577, Note_on_c, 0, 53, 59
1, 68582, Note_on_c, 0, 58, 66
1, 68585, Note_on_c, 0, 49, 58
1, 68586, Note_on_c, 0, 61, 63
1, 68593, Note_on_c, 0, 41, 42
1, 68598, Note_on_c, 0, 46, 51
1, 68974, Poly_aftertouch_c, 0, 61, 24
1, 68981, Note_on_c, 0, 65, 0
1, 68981, Poly_aftertouch_c, 0, 65, 0
1, 68998, Poly_aftertouch_c, 0, 41, 24
1, 69015, Poly_aftertouch_c, 0, 53, 24
1, 69030, Note_on_c, 0, 61, 0
1, 69030, Note_on_c, 0, 53, 0
1, 69030, Poly_aftertouch_c, 0, 53, 0
1, 69030, Poly_aftertouch_c, 0, 61, 0
1, 69033, Note_on_c, 0, 58, 0
1, 69035, Note_on_c, 0, 49, 0
1, 69035, Poly_aftertouch_c, 0, 49, 0
1, 69036, Note_on_c, 0, 41, 0
1, 69036, Poly_aftertouch_c, 0, 41, 0
1, 69037, Poly_aftertouch_c, 0, 41, 0
1, 69063, Note_on_c, 0, 46, 0
1, 69063, Poly_aftertouch_c, 0, 46, 0
1, 69115, Note_on_c, 0, 65, 86
1, 69121, Note_on_c, 0, 61, 85
1, 69121, Note_on_c, 0, 58, 78
1, 69127, Note_on_c, 0, 53, 77
1, 69141, Note_on_c, 0, 49, 66
1, 69144, Note_on_c, 0, 41, 64
1, 69160, Note_on_c, 0, 46, 57
1, 69168, Note_on_c, 0, 53, 0
1, 69168, Poly_aftertouch_c, 0, 53, 0
1, 69172, Note_on_c, 0, 58, 0
1, 69181, Note_on_c, 0, 41, 0
1, 69184, Note_on_c, 0, 49, 0
1, 69184, Poly_aftertouch_c, 0, 49, 0
1, 69186, Note_on_c, 0, 61, 0
1, 69186, Poly_aftertouch_c, 0, 61, 0
1, 69194, Note_on_c, 0, 65, 0
1, 69194, Poly_aftertouch_c, 0, 65, 0
1, 69196, Note_on_c, 0, 46, 0
1, 69196, Poly_aftertouch_c, 0, 46, 0
1, 69331, Note_on_c, 0, 46, 20
1, 69387, Poly_aftertouch_c, 0, 41, 0
1, 69393, Note_on_c, 0, 46, 0
1, 69393, Poly_aftertouch_c, 0, 46, 0
1, 69436, Note_on_c, 0, 61, 75
1, 69436, Note_on_c, 0, 65, 74
1, 69443, Note_on_c, 0, 58, 71
1, 69446, Note_on_c, 0, 53, 80
1, 69457, Note_on_c, 0, 49, 74
1, 69463, Note_on_c, 0, 61, 0
1, 69463, Poly_aftertouch_c, 0, 61, 0
1, 69469, Note_on_c, 0, 46, 57
1, 69471, Poly_aftertouch_c, 0, 41, 0
1, 69473, Note_on_c, 0, 53, 0
1, 69473, Note_on_c, 0, 58, 0
1, 69473, Poly_aftertouch_c, 0, 53, 0
1, 69475, Note_on_c, 0, 65, 0
1, 69475, Poly_aftertouch_c, 0, 65, 0
1, 69487, Note_on_c, 0, 49, 0
1, 69487, Poly_aftertouch_c, 0, 49, 0
1, 69506, Note_on_c, 0, 46, 0
1, 69506, Poly_aftertouch_c, 0, 46, 0
1, 69667, Control_c, 0, 64, 99
1, 69686, Control_c, 0, 64, 32
1, 69700, Note_on_c, 0, 68, 96
1, 69703, Control_c, 0, 64, 0
1, 69704, Note_on_c, 0, 56, 94
1, 69704, Note_on_c, 0, 77, 88
1, 69704, Note_on_c, 0, 80, 91
1, 69706, Note_on_c, 0, 53, 84
1, 69707, Note_on_c, 0, 73, 91
1, 69707, Note_on_c, 0, 44, 81
1, 69709, Note_on_c, 0, 49, 72
1, 69743, Note_on_c, 0, 44, 0
1, 69743, Poly_aftertouch_c, 0, 44, 0
1, 69754, Note_on_c, 0, 56, 0
1, 69755, Note_on_c, 0, 68, 0
1, 69759, Control_c, 0, 64, 57
1, 69764, Note_on_c, 0, 53, 0
1, 69764, Poly_aftertouch_c, 0, 53, 0
1, 69770, Note_on_c, 0, 49, 0
1, 69770, Poly_aftertouch_c, 0, 49, 0
1, 69778, Control_c, 0, 64, 97
1, 69783, Note_on_c, 0, 77, 0
1, 69788, Note_on_c, 0, 73, 0
1, 69788, Note_on_c, 0, 80, 0
1, 69788, Poly_aftertouch_c, 0, 80, 0
1, 69797, Control_c, 0, 64, 127
1, 70278, Note_on_c, 0, 65, 84
1, 70283, Note_on_c, 0, 77, 88
1, 70284, Note_on_c, 0, 61, 82
1, 70285, Note_on_c, 0, 70, 86
1, 70287, Note_on_c, 0, 53, 67
1, 70287, Note_on_c, 0, 73, 82
1, 70292, Note_on_c, 0, 58, 80
1, 70318, Note_on_c, 0, 76, 53
1, 70319, Note_on_c, 0, 76, 0
1, 70322, Note_on_c, 0, 53, 0
1, 70322, Poly_aftertouch_c, 0, 53, 0
1, 70324, Note_on_c, 0, 65, 0
1, 70324, Poly_aftertouch_c, 0, 65, 0
1, 70338, Note_on_c, 0, 61, 0
1, 70338, Poly_aftertouch_c, 0, 61, 0
1, 70349, Note_on_c, 0, 58, 0
1, 70355, Note_on_c, 0, 70, 0
1, 70497, Note_on_c, 0, 70, 31
1, 70539, Note_on_c, 0, 70, 0
1, 70745, Note_on_c, 0, 77, 0
1, 70789, Note_on_c, 0, 73, 0
1, 70914, Note_on_c, 0, 77, 91
1, 70917, Note_on_c, 0, 65, 72
1, 70919, Note_on_c, 0, 70, 81
1, 70919, Note_on_c, 0, 73, 79
1, 70925, Note_on_c, 0, 61, 73
1, 70929, Note_on_c, 0, 53, 50
1, 70937, Note_on_c, 0, 58, 64
1, 70951, Note_on_c, 0, 65, 0
1, 70951, Poly_aftertouch_c, 0, 65, 0
1, 70957, Note_on_c, 0, 53, 0
1, 70957, Poly_aftertouch_c, 0, 53, 0
1, 70960, Note_on_c, 0, 61, 0
1, 70960, Poly_aftertouch_c, 0, 61, 0
1, 70968, Note_on_c, 0, 58, 0
1, 71208, Note_on_c, 0, 73, 0
1, 71216, Note_on_c, 0, 77, 0
1, 71218, Note_on_c, 0, 70, 0
1, 71306, Note_on_c, 0, 65, 66
1, 71314, Note_on_c, 0, 61, 70
1, 71314, Note_on_c, 0, 77, 84
1, 71318, Note_on_c, 0, 70, 73
1, 71321, Note_on_c, 0, 53, 55
1, 71321, Note_on_c, 0, 73, 75
1, 71322, Note_on_c, 0, 58, 70
1, 71331, Note_on_c, 0, 65, 0
1, 71331, Poly_aftertouch_c, 0, 65, 0
1, 71346, Note_on_c, 0, 77, 0
1, 71350, Note_on_c, 0, 70, 0
1, 71350, Note_on_c, 0, 61, 0
1, 71350, Poly_aftertouch_c, 0, 61, 0
1, 71351, Note_on_c, 0, 73, 0
1, 71353, Note_on_c, 0, 58, 0
1, 71360, Note_on_c, 0, 53, 0
1, 71360, Poly_aftertouch_c, 0, 53, 0
1, 71408, Poly_aftertouch_c, 0, 54, 0
1, 71611, Control_c, 0, 64, 85
1, 71630, Control_c, 0, 64, 45
1, 71639, Note_on_c, 0, 49, 98
1, 71646, Note_on_c, 0, 37, 98
1, 71650, Note_on_c, 0, 25, 94
1, 71668, Control_c, 0, 64, 70
1, 71683, Note_on_c, 0, 25, 0
1, 71684, Note_on_c, 0, 37, 0
1, 71684, Note_on_c, 0, 49, 0
1, 71684, Poly_aftertouch_c, 0, 49, 0
1, 71686, Control_c, 0, 64, 95
1, 71705, Control_c, 0, 64, 127
1, 72148, Note_on_c, 0, 53, 75
1, 72210, Note_on_c, 0, 77, 89
1, 72519, Note_on_c, 0, 65, 97
1, 72546, Note_on_c, 0, 61, 63
1, 72593, Note_on_c, 0, 89, 98
1, 72613, Note_on_c, 0, 77, 0
1, 72624, Note_on_c, 0, 85, 63
1, 72663, Note_on_c, 0, 85, 0
1, 72727, Note_on_c, 0, 53, 0
1, 72727, Poly_aftertouch_c, 0, 53, 0
1, 72801, Note_on_c, 0, 61, 0
1, 72801, Poly_aftertouch_c, 0, 61, 0
1, 72807, Note_on_c, 0, 87, 73
1, 72819, Note_on_c, 0, 89, 0
1, 72819, Poly_aftertouch_c, 0, 89, 0
1, 72844, Note_on_c, 0, 65, 0
1, 72844, Poly_aftertouch_c, 0, 65, 0
1, 72889, Note_on_c, 0, 53, 69
1, 72890, Note_on_c, 0, 87, 0
1, 72907, Note_on_c, 0, 86, 69
1, 72961, Note_on_c, 0, 86, 0
1, 72971, Note_on_c, 0, 53, 0
1, 72971, Poly_aftertouch_c, 0, 53, 0
1, 73019, Note_on_c, 0, 85, 75
1, 73020, Note_on_c, 0, 64, 92
1, 73058, Note_on_c, 0, 60, 54
1, 73117, Note_on_c, 0, 60, 0
1, 73120, Note_on_c, 0, 85, 0
1, 73130, Note_on_c, 0, 82, 75
1, 73164, Note_on_c, 0, 64, 0
1, 73191, Note_on_c, 0, 82, 0
1, 73202, Note_on_c, 0, 78, 71
1, 73218, Note_on_c, 0, 53, 68
1, 73230, Note_on_c, 0, 78, 0
1, 73293, Control_c, 0, 64, 99
1, 73298, Note_on_c, 0, 77, 76
1, 73299, Note_on_c, 0, 63, 88
1, 73313, Control_c, 0, 64, 61
1, 73320, Note_on_c, 0, 59, 67
1, 73322, Note_on_c, 0, 53, 0
1, 73322, Poly_aftertouch_c, 0, 53, 0
1, 73331, Control_c, 0, 64, 44
1, 73351, Control_c, 0, 64, 49
1, 73369, Control_c, 0, 64, 61
1, 73388, Control_c, 0, 64, 73
1, 73398, Note_on_c, 0, 77, 0
1, 73404, Note_on_c, 0, 75, 73
1, 73407, Control_c, 0, 64, 85
1, 73422, Note_on_c, 0, 59, 0
1, 73424, Control_c, 0, 64, 101
1, 73442, Note_on_c, 0, 63, 0
1, 73442, Poly_aftertouch_c, 0, 63, 0
1, 73442, Control_c, 0, 64, 120
1, 73462, Control_c, 0, 64, 127
1, 73464, Note_on_c, 0, 75, 0
1, 73464, Poly_aftertouch_c, 0, 75, 0
1, 73469, Note_on_c, 0, 53, 69
1, 73477, Note_on_c, 0, 74, 70
1, 73520, Note_on_c, 0, 74, 0
1, 73520, Poly_aftertouch_c, 0, 74, 0
1, 73537, Control_c, 0, 64, 115
1, 73556, Control_c, 0, 64, 80
1, 73557, Note_on_c, 0, 73, 77
1, 73575, Control_c, 0, 64, 54
1, 73577, Note_on_c, 0, 53, 0
1, 73577, Poly_aftertouch_c, 0, 53, 0
1, 73581, Note_on_c, 0, 65, 72
1, 73592, Note_on_c, 0, 58, 60
1, 73594, Control_c, 0, 64, 57
1, 73597, Note_on_c, 0, 61, 61
1, 73612, Control_c, 0, 64, 66
1, 73631, Control_c, 0, 64, 76
1, 73632, Note_on_c, 0, 65, 0
1, 73632, Poly_aftertouch_c, 0, 65, 0
1, 73642, Note_on_c, 0, 73, 0
1, 73649, Control_c, 0, 64, 86
1, 73663, Note_on_c, 0, 70, 72
1, 73668, Control_c, 0, 64, 101
1, 73687, Control_c, 0, 64, 120
1, 73705, Control_c, 0, 64, 127
1, 73708, Note_on_c, 0, 70, 0
1, 73710, Note_on_c, 0, 61, 0
1, 73710, Poly_aftertouch_c, 0, 61, 0
1, 73713, Note_on_c, 0, 58, 0
1, 73728, Note_on_c, 0, 53, 55
1, 73743, Note_on_c, 0, 66, 67
1, 73756, Note_on_c, 0, 53, 0
1, 73756, Poly_aftertouch_c, 0, 53, 0
1, 73775, Note_on_c, 0, 66, 0
1, 73775, Poly_aftertouch_c, 0, 66, 0
1, 73800, Control_c, 0, 64, 117
1, 73818, Control_c, 0, 64, 83
1, 73837, Note_on_c, 0, 65, 65
1, 73837, Control_c, 0, 64, 61
1, 73854, Control_c, 0, 64, 65
1, 73855, Note_on_c, 0, 53, 58
1, 73875, Control_c, 0, 64, 70
1, 73883, Note_on_c, 0, 53, 0
1, 73883, Poly_aftertouch_c, 0, 53, 0
1, 73892, Control_c, 0, 64, 76
1, 73912, Control_c, 0, 64, 83
1, 73919, Note_on_c, 0, 65, 0
1, 73919, Poly_aftertouch_c, 0, 65, 0
1, 73930, Control_c, 0, 64, 93
1, 73939, Note_on_c, 0, 63, 68
1, 73942, Note_on_c, 0, 51, 62
1, 73949, Control_c, 0, 64, 106
1, 73968, Control_c, 0, 64, 119
1, 73970, Control_c, 0, 67, 8
1, 73986, Control_c, 0, 64, 124
1, 73992, Note_on_c, 0, 63, 0
1, 73992, Poly_aftertouch_c, 0, 63, 0
1, 73994, Note_on_c, 0, 51, 0
1, 73994, Poly_aftertouch_c, 0, 51, 0
1, 74006, Control_c, 0, 64, 115
1, 74024, Control_c, 0, 64, 93
1, 74027, Note_on_c, 0, 62, 60
1, 74033, Note_on_c, 0, 50, 62
1, 74042, Control_c, 0, 64, 65
1, 74044, Control_c, 0, 67, 14
1, 74061, Control_c, 0, 64, 56
1, 74063, Note_on_c, 0, 50, 0
1, 74066, Note_on_c, 0, 62, 0
1, 74080, Control_c, 0, 64, 60
1, 74082, Control_c, 0, 67, 19
1, 74098, Control_c, 0, 64, 68
1, 74098, Control_c, 0, 67, 24
1, 74106, Note_on_c, 0, 61, 69
1, 74115, Note_on_c, 0, 49, 61
1, 74116, Control_c, 0, 64, 75
1, 74117, Control_c, 0, 67, 30
1, 74136, Control_c, 0, 64, 82
1, 74138, Control_c, 0, 67, 38
1, 74155, Control_c, 0, 64, 91
1, 74156, Control_c, 0, 67, 45
1, 74173, Control_c, 0, 64, 96
1, 74174, Control_c, 0, 67, 53
1, 74184, Note_on_c, 0, 49, 0
1, 74184, Note_on_c, 0, 61, 0
1, 74184, Poly_aftertouch_c, 0, 49, 0
1, 74184, Poly_aftertouch_c, 0, 61, 0
1, 74192, Control_c, 0, 64, 87
1, 74193, Control_c, 0, 67, 59
1, 74207, Note_on_c, 0, 46, 59
1, 74210, Note_on_c, 0, 58, 67
1, 74211, Control_c, 0, 64, 66
1, 74213, Control_c, 0, 67, 64
1, 74229, Control_c, 0, 64, 44
1, 74230, Control_c, 0, 67, 69
1, 74255, Note_on_c, 0, 58, 0
1, 74267, Control_c, 0, 64, 50
1, 74269, Control_c, 0, 67, 75
1, 74277, Note_on_c, 0, 46, 0
1, 74277, Poly_aftertouch_c, 0, 46, 0
1, 74286, Control_c, 0, 64, 59
1, 74297, Note_on_c, 0, 54, 62
1, 74303, Control_c, 0, 64, 68
1, 74307, Note_on_c, 0, 41, 60
1, 74323, Control_c, 0, 64, 76
1, 74325, Control_c, 0, 67, 79
1, 74332, Note_on_c, 0, 54, 0
1, 74340, Control_c, 0, 64, 80
1, 74352, Note_on_c, 0, 41, 0
1, 74360, Control_c, 0, 64, 74
1, 74379, Control_c, 0, 64, 59
1, 74380, Control_c, 0, 67, 85
1, 74398, Control_c, 0, 64, 30
1, 74410, Note_on_c, 0, 53, 62
1, 74417, Control_c, 0, 64, 13
1, 74418, Control_c, 0, 67, 91
1, 74434, Control_c, 0, 64, 26
1, 74454, Control_c, 0, 64, 41
1, 74455, Control_c, 0, 67, 95
1, 74472, Control_c, 0, 64, 57
1, 74492, Control_c, 0, 64, 71
1, 74493, Control_c, 0, 67, 101
1, 74510, Control_c, 0, 64, 79
1, 74511, Control_c, 0, 67, 105
1, 74528, Control_c, 0, 64, 75
1, 74529, Control_c, 0, 67, 109
1, 74536, Note_on_c, 0, 53, 0
1, 74536, Poly_aftertouch_c, 0, 53, 0
1, 74543, Note_on_c, 0, 51, 57
1, 74547, Control_c, 0, 64, 62
1, 74565, Control_c, 0, 64, 39
1, 74567, Control_c, 0, 67, 115
1, 74584, Control_c, 0, 64, 0
1, 74622, Control_c, 0, 67, 120
1, 74640, Control_c, 0, 64, 26
1, 74656, Note_on_c, 0, 51, 0
1, 74656, Poly_aftertouch_c, 0, 51, 0
1, 74658, Control_c, 0, 64, 49
1, 74659, Control_c, 0, 67, 124
1, 74677, Control_c, 0, 64, 67
1, 74684, Note_on_c, 0, 50, 48
1, 74696, Control_c, 0, 64, 74
1, 74846, Control_c, 0, 64, 76
1, 74971, Note_on_c, 0, 50, 0
1, 74978, Control_c, 0, 64, 68
1, 74979, Note_on_c, 0, 49, 39
1, 74986, Note_on_c, 0, 42, 26
1, 74987, Note_on_c, 0, 30, 31
1, 74996, Control_c, 0, 64, 50
1, 75016, Control_c, 0, 64, 0
1, 75072, Control_c, 0, 64, 36
1, 75090, Control_c, 0, 64, 59
1, 75107, Control_c, 0, 64, 79
1, 75126, Note_on_c, 0, 49, 0
1, 75126, Poly_aftertouch_c, 0, 49, 0
1, 75126, Control_c, 0, 64, 91
1, 75145, Control_c, 0, 64, 103
1, 75155, Note_on_c, 0, 30, 0
1, 75164, Control_c, 0, 64, 110
1, 75202, Control_c, 0, 64, 116
1, 75251, Note_on_c, 0, 42, 0
1, 75251, Poly_aftertouch_c, 0, 42, 0
1, 75257, Control_c, 0, 64, 121
1, 75295, Control_c, 0, 64, 125
1, 75636, Note_on_c, 0, 49, 29
1, 75656, Note_on_c, 0, 78, 40
1, 75818, Note_on_c, 0, 77, 36
1, 75827, Note_on_c, 0, 58, 43
1, 75843, Note_on_c, 0, 78, 0
1, 75869, Note_on_c, 0, 77, 0
1, 75877, Note_on_c, 0, 49, 0
1, 75877, Poly_aftertouch_c, 0, 49, 0
1, 75932, Note_on_c, 0, 70, 26
1, 75933, Note_on_c, 0, 58, 0
1, 75949, Control_c, 0, 67, 120
1, 75982, Note_on_c, 0, 70, 0
1, 76015, Note_on_c, 0, 78, 45
1, 76031, Note_on_c, 0, 51, 43
1, 76086, Note_on_c, 0, 51, 0
1, 76086, Poly_aftertouch_c, 0, 51, 0
1, 76105, Note_on_c, 0, 78, 0
1, 76117, Note_on_c, 0, 75, 54
1, 76143, Note_on_c, 0, 60, 65
1, 76159, Note_on_c, 0, 75, 0
1, 76159, Poly_aftertouch_c, 0, 75, 0
1, 76177, Note_on_c, 0, 60, 0
1, 76224, Note_on_c, 0, 68, 35
1, 76269, Note_on_c, 0, 68, 0
1, 76286, Control_c, 0, 67, 116
1, 76299, Note_on_c, 0, 78, 58
1, 76305, Note_on_c, 0, 53, 58
1, 76395, Note_on_c, 0, 73, 47
1, 76404, Note_on_c, 0, 78, 0
1, 76404, Note_on_c, 0, 70, 47
1, 76409, Note_on_c, 0, 61, 65
1, 76437, Note_on_c, 0, 53, 0
1, 76437, Poly_aftertouch_c, 0, 53, 0
1, 76445, Note_on_c, 0, 61, 0
1, 76445, Poly_aftertouch_c, 0, 61, 0
1, 76462, Note_on_c, 0, 73, 0
1, 76489, Note_on_c, 0, 70, 0
1, 76510, Note_on_c, 0, 65, 44
1, 76603, Note_on_c, 0, 78, 59
1, 76628, Note_on_c, 0, 44, 45
1, 76717, Control_c, 0, 64, 100
1, 76735, Control_c, 0, 64, 69
1, 76743, Note_on_c, 0, 78, 0
1, 76750, Note_on_c, 0, 72, 47
1, 76754, Control_c, 0, 64, 59
1, 76755, Note_on_c, 0, 65, 0
1, 76755, Poly_aftertouch_c, 0, 65, 0
1, 76767, Note_on_c, 0, 54, 44
1, 76773, Control_c, 0, 64, 61
1, 76782, Note_on_c, 0, 68, 43
1, 76790, Control_c, 0, 64, 68
1, 76809, Control_c, 0, 64, 74
1, 76828, Control_c, 0, 64, 81
1, 76847, Control_c, 0, 64, 91
1, 76859, Note_on_c, 0, 44, 0
1, 76859, Poly_aftertouch_c, 0, 44, 0
1, 76865, Control_c, 0, 64, 103
1, 76884, Control_c, 0, 64, 115
1, 76888, Note_on_c, 0, 72, 0
1, 76888, Poly_aftertouch_c, 0, 72, 0
1, 76903, Control_c, 0, 64, 124
1, 76905, Note_on_c, 0, 68, 0
1, 76909, Note_on_c, 0, 63, 63
1, 76947, Note_on_c, 0, 63, 0
1, 76947, Poly_aftertouch_c, 0, 63, 0
1, 76973, Note_on_c, 0, 54, 0
1, 77015, Control_c, 0, 67, 111
1, 77052, Control_c, 0, 67, 106
1, 77116, Note_on_c, 0, 51, 50
1, 77126, Control_c, 0, 67, 102
1, 77142, Note_on_c, 0, 80, 61
1, 77202, Control_c, 0, 67, 97
1, 77217, Note_on_c, 0, 80, 0
1, 77217, Poly_aftertouch_c, 0, 80, 0
1, 77234, Note_on_c, 0, 51, 0
1, 77234, Poly_aftertouch_c, 0, 51, 0
1, 77240, Note_on_c, 0, 60, 68
1, 77243, Note_on_c, 0, 78, 45
1, 77276, Control_c, 0, 67, 93
1, 77278, Note_on_c, 0, 60, 0
1, 77278, Note_on_c, 0, 75, 32
1, 77286, Note_on_c, 0, 78, 0
1, 77316, Note_on_c, 0, 75, 0
1, 77316, Poly_aftertouch_c, 0, 75, 0
1, 77327, Note_on_c, 0, 72, 43
1, 77351, Control_c, 0, 67, 89
1, 77368, Note_on_c, 0, 72, 0
1, 77368, Poly_aftertouch_c, 0, 72, 0
1, 77384, Note_on_c, 0, 80, 56
1, 77415, Note_on_c, 0, 53, 53
1, 77426, Control_c, 0, 67, 85
1, 77469, Note_on_c, 0, 77, 63
1, 77478, Note_on_c, 0, 80, 0
1, 77478, Poly_aftertouch_c, 0, 80, 0
1, 77481, Control_c, 0, 67, 81
1, 77487, Note_on_c, 0, 61, 75
1, 77493, Note_on_c, 0, 73, 43
1, 77537, Note_on_c, 0, 77, 0
1, 77551, Note_on_c, 0, 61, 0
1, 77551, Poly_aftertouch_c, 0, 61, 0
1, 77557, Note_on_c, 0, 73, 0
1, 77566, Note_on_c, 0, 70, 63
1, 77605, Note_on_c, 0, 70, 0
1, 77606, Note_on_c, 0, 53, 0
1, 77606, Poly_aftertouch_c, 0, 53, 0
1, 77632, Control_c, 0, 67, 76
1, 77641, Note_on_c, 0, 54, 60
1, 77652, Note_on_c, 0, 80, 69
1, 77734, Note_on_c, 0, 75, 66
1, 77742, Note_on_c, 0, 80, 0
1, 77742, Poly_aftertouch_c, 0, 80, 0
1, 77748, Note_on_c, 0, 63, 80
1, 77754, Note_on_c, 0, 72, 56
1, 77782, Note_on_c, 0, 63, 0
1, 77782, Poly_aftertouch_c, 0, 63, 0
1, 77809, Note_on_c, 0, 75, 0
1, 77809, Poly_aftertouch_c, 0, 75, 0
1, 77811, Note_on_c, 0, 54, 0
1, 77811, Note_on_c, 0, 72, 0
1, 77811, Poly_aftertouch_c, 0, 72, 0
1, 77829, Note_on_c, 0, 68, 52
1, 77883, Note_on_c, 0, 68, 0
1, 77920, Note_on_c, 0, 80, 57
1, 77937, Note_on_c, 0, 46, 68
1, 77987, Control_c, 0, 64, 99
1, 77988, Control_c, 0, 67, 81
1, 78007, Control_c, 0, 64, 65
1, 78026, Control_c, 0, 64, 53
1, 78032, Note_on_c, 0, 80, 0
1, 78032, Poly_aftertouch_c, 0, 80, 0
1, 78039, Note_on_c, 0, 73, 65
1, 78045, Control_c, 0, 64, 56
1, 78049, Note_on_c, 0, 70, 53
1, 78060, Note_on_c, 0, 56, 67
1, 78063, Control_c, 0, 64, 64
1, 78067, Note_on_c, 0, 46, 0
1, 78067, Poly_aftertouch_c, 0, 46, 0
1, 78082, Control_c, 0, 64, 72
1, 78099, Control_c, 0, 64, 82
1, 78119, Control_c, 0, 64, 94
1, 78123, Note_on_c, 0, 70, 0
1, 78132, Note_on_c, 0, 73, 0
1, 78137, Control_c, 0, 64, 108
1, 78144, Note_on_c, 0, 65, 76
1, 78145, Note_on_c, 0, 56, 0
1, 78156, Control_c, 0, 64, 119
1, 78176, Control_c, 0, 64, 124
1, 78188, Note_on_c, 0, 65, 0
1, 78188, Poly_aftertouch_c, 0, 65, 0
1, 78303, Note_on_c, 0, 53, 67
1, 78322, Note_on_c, 0, 82, 67
1, 78408, Note_on_c, 0, 80, 72
1, 78416, Note_on_c, 0, 53, 0
1, 78416, Poly_aftertouch_c, 0, 53, 0
1, 78421, Note_on_c, 0, 61, 80
1, 78424, Note_on_c, 0, 82, 0
1, 78429, Note_on_c, 0, 77, 43
1, 78467, Note_on_c, 0, 77, 0
1, 78484, Note_on_c, 0, 80, 0
1, 78484, Poly_aftertouch_c, 0, 80, 0
1, 78486, Note_on_c, 0, 73, 67
1, 78511, Control_c, 0, 67, 77
1, 78524, Note_on_c, 0, 73, 0
1, 78543, Note_on_c, 0, 61, 0
1, 78543, Poly_aftertouch_c, 0, 61, 0
1, 78565, Note_on_c, 0, 54, 65
1, 78584, Note_on_c, 0, 82, 74
1, 78671, Note_on_c, 0, 78, 65
1, 78672, Note_on_c, 0, 63, 82
1, 78674, Note_on_c, 0, 75, 65
1, 78675, Note_on_c, 0, 82, 0
1, 78742, Note_on_c, 0, 63, 0
1, 78742, Poly_aftertouch_c, 0, 63, 0
1, 78762, Note_on_c, 0, 72, 65
1, 78763, Note_on_c, 0, 75, 0
1, 78763, Poly_aftertouch_c, 0, 75, 0
1, 78766, Note_on_c, 0, 78, 0
1, 78787, Note_on_c, 0, 56, 72
1, 78793, Note_on_c, 0, 54, 0
1, 78817, Note_on_c, 0, 72, 0
1, 78817, Poly_aftertouch_c, 0, 72, 0
1, 78843, Note_on_c, 0, 82, 73
1, 78883, Note_on_c, 0, 56, 0
1, 78923, Note_on_c, 0, 65, 73
1, 78940, Control_c, 0, 67, 81
1, 78947, Poly_aftertouch_c, 0, 78, 0
1, 78952, Note_on_c, 0, 64, 53
1, 78955, Note_on_c, 0, 65, 0
1, 78955, Note_on_c, 0, 77, 70
1, 78955, Poly_aftertouch_c, 0, 65, 0
1, 78957, Note_on_c, 0, 73, 59
1, 78959, Note_on_c, 0, 82, 0
1, 78983, Note_on_c, 0, 64, 0
1, 78997, Control_c, 0, 67, 86
1, 79025, Note_on_c, 0, 77, 0
1, 79033, Control_c, 0, 67, 91
1, 79038, Note_on_c, 0, 70, 72
1, 79039, Note_on_c, 0, 73, 0
1, 79071, Control_c, 0, 67, 95
1, 79079, Note_on_c, 0, 70, 0
1, 79110, Control_c, 0, 64, 117
1, 79111, Note_on_c, 0, 82, 69
1, 79111, Control_c, 0, 67, 101
1, 79128, Control_c, 0, 64, 75
1, 79129, Control_c, 0, 67, 105
1, 79133, Note_on_c, 0, 48, 42
1, 79146, Control_c, 0, 64, 0
1, 79193, Note_on_c, 0, 82, 0
1, 79200, Note_on_c, 0, 75, 72
1, 79203, Control_c, 0, 64, 35
1, 79212, Note_on_c, 0, 58, 78
1, 79215, Note_on_c, 0, 72, 56
1, 79222, Control_c, 0, 64, 58
1, 79223, Control_c, 0, 67, 109
1, 79240, Note_on_c, 0, 48, 0
1, 79241, Control_c, 0, 64, 79
1, 79259, Control_c, 0, 64, 96
1, 79268, Note_on_c, 0, 58, 0
1, 79276, Control_c, 0, 64, 115
1, 79290, Note_on_c, 0, 75, 0
1, 79290, Poly_aftertouch_c, 0, 75, 0
1, 79294, Control_c, 0, 64, 127
1, 79302, Note_on_c, 0, 72, 0
1, 79302, Poly_aftertouch_c, 0, 72, 0
1, 79305, Note_on_c, 0, 66, 74
1, 79334, Note_on_c, 0, 66, 0
1, 79334, Poly_aftertouch_c, 0, 66, 0
1, 79424, Note_on_c, 0, 60, 67
1, 79448, Note_on_c, 0, 84, 78
1, 79523, Note_on_c, 0, 68, 81
1, 79555, Note_on_c, 0, 82, 71
1, 79556, Note_on_c, 0, 68, 0
1, 79561, Note_on_c, 0, 78, 52
1, 79572, Note_on_c, 0, 84, 0
1, 79572, Poly_aftertouch_c, 0, 84, 0
1, 79608, Note_on_c, 0, 60, 0
1, 79630, Note_on_c, 0, 78, 0
1, 79637, Note_on_c, 0, 72, 64
1, 79648, Note_on_c, 0, 82, 0
1, 79675, Note_on_c, 0, 72, 0
1, 79675, Poly_aftertouch_c, 0, 72, 0
1, 79679, Note_on_c, 0, 61, 63
1, 79701, Note_on_c, 0, 51, 60
1, 79733, Note_on_c, 0, 51, 0
1, 79733, Poly_aftertouch_c, 0, 51, 0
1, 79741, Note_on_c, 0, 84, 75
1, 79743, Note_on_c, 0, 61, 0
1, 79743, Poly_aftertouch_c, 0, 61, 0
1, 79824, Note_on_c, 0, 70, 77
1, 79853, Note_on_c, 0, 80, 69
1, 79855, Note_on_c, 0, 77, 60
1, 79859, Note_on_c, 0, 70, 0
1, 79860, Note_on_c, 0, 84, 0
1, 79860, Poly_aftertouch_c, 0, 84, 0
1, 79909, Note_on_c, 0, 77, 0
1, 79957, Note_on_c, 0, 73, 64
1, 79962, Note_on_c, 0, 80, 0
1, 79962, Poly_aftertouch_c, 0, 80, 0
1, 80000, Note_on_c, 0, 73, 0
1, 80036, Note_on_c, 0, 63, 62
1, 80061, Note_on_c, 0, 84, 69
1, 80073, Note_on_c, 0, 63, 0
1, 80073, Poly_aftertouch_c, 0, 63, 0
1, 80156, Control_c, 0, 67, 114
1, 80191, Note_on_c, 0, 72, 79
1, 80194, Control_c, 0, 67, 119
1, 80216, Note_on_c, 0, 72, 0
1, 80216, Poly_aftertouch_c, 0, 72, 0
1, 80220, Note_on_c, 0, 78, 65
1, 80231, Control_c, 0, 67, 123
1, 80233, Note_on_c, 0, 84, 0
1, 80233, Poly_aftertouch_c, 0, 84, 0
1, 80306, Control_c, 0, 67, 127
1, 80380, Note_on_c, 0, 78, 0
1, 80385, Note_on_c, 0, 75, 64
1, 80512, Control_c, 0, 64, 122
1, 80528, Note_on_c, 0, 60, 56
1, 80530, Control_c, 0, 64, 117
1, 80532, Note_on_c, 0, 53, 52
1, 80548, Control_c, 0, 64, 110
1, 80568, Control_c, 0, 64, 103
1, 80587, Control_c, 0, 64, 94
1, 80605, Control_c, 0, 64, 78
1, 80624, Control_c, 0, 64, 57
1, 80642, Control_c, 0, 64, 0
1, 80654, Note_on_c, 0, 84, 71
1, 80717, Control_c, 0, 64, 46
1, 80728, Note_on_c, 0, 75, 0
1, 80728, Poly_aftertouch_c, 0, 75, 0
1, 80737, Control_c, 0, 64, 73
1, 80741, Note_on_c, 0, 53, 0
1, 80741, Poly_aftertouch_c, 0, 53, 0
1, 80755, Control_c, 0, 64, 90
1, 80773, Control_c, 0, 64, 106
1, 80785, Poly_aftertouch_c, 0, 81, 0
1, 80792, Control_c, 0, 64, 115
1, 80830, Control_c, 0, 64, 119
1, 80839, Note_on_c, 0, 60, 0
1, 80885, Control_c, 0, 64, 125
1, 80901, Note_on_c, 0, 69, 66
1, 80971, Note_on_c, 0, 69, 0
1, 80971, Poly_aftertouch_c, 0, 69, 0
1, 81073, Note_on_c, 0, 77, 67
1, 81091, Control_c, 0, 67, 123
1, 81115, Note_on_c, 0, 77, 0
1, 81129, Note_on_c, 0, 84, 0
1, 81129, Poly_aftertouch_c, 0, 84, 0
1, 81146, Control_c, 0, 67, 119
1, 81204, Control_c, 0, 67, 115
1, 81212, Note_on_c, 0, 72, 54
1, 81254, Note_on_c, 0, 72, 0
1, 81254, Poly_aftertouch_c, 0, 72, 0
1, 81285, Note_on_c, 0, 77, 60
1, 81325, Note_on_c, 0, 77, 0
1, 81378, Note_on_c, 0, 80, 61
1, 81426, Note_on_c, 0, 80, 0
1, 81426, Poly_aftertouch_c, 0, 80, 0
1, 81447, Note_on_c, 0, 81, 70
1, 81472, Note_on_c, 0, 81, 0
1, 81541, Note_on_c, 0, 84, 68
1, 81614, Note_on_c, 0, 84, 0
1, 81614, Poly_aftertouch_c, 0, 84, 0
1, 81640, Note_on_c, 0, 89, 67
1, 81800, Note_on_c, 0, 96, 84
1, 81808, Note_on_c, 0, 89, 0
1, 81808, Poly_aftertouch_c, 0, 89, 0
1, 81823, Note_on_c, 0, 65, 31
1, 81970, Control_c, 0, 67, 119
1, 82120, Control_c, 0, 67, 123
1, 82232, Control_c, 0, 67, 127
1, 82260, Note_on_c, 0, 66, 40
1, 82265, Note_on_c, 0, 65, 0
1, 82265, Poly_aftertouch_c, 0, 65, 0
1, 82345, Control_c, 0, 64, 116
1, 82363, Control_c, 0, 64, 92
1, 82377, Note_on_c, 0, 90, 52
1, 82383, Control_c, 0, 64, 65
1, 82395, Note_on_c, 0, 96, 0
1, 82399, Control_c, 0, 64, 54
1, 82439, Control_c, 0, 64, 64
1, 82456, Control_c, 0, 64, 75
1, 82476, Control_c, 0, 64, 87
1, 82494, Control_c, 0, 64, 101
1, 82512, Control_c, 0, 64, 115
1, 82531, Control_c, 0, 64, 121
1, 82546, Note_on_c, 0, 90, 0
1, 82571, Poly_aftertouch_c, 0, 66, 24
1, 82609, Note_on_c, 0, 66, 0
1, 82609, Poly_aftertouch_c, 0, 66, 0
1, 82653, Note_on_c, 0, 70, 23
1, 82712, Note_on_c, 0, 70, 0
1, 82744, Note_on_c, 0, 75, 46
1, 82796, Note_on_c, 0, 75, 0
1, 82796, Poly_aftertouch_c, 0, 75, 0
1, 82801, Note_on_c, 0, 77, 47
1, 82840, Note_on_c, 0, 77, 0
1, 82878, Note_on_c, 0, 78, 55
1, 82922, Note_on_c, 0, 78, 0
1, 82941, Note_on_c, 0, 82, 59
1, 83001, Note_on_c, 0, 82, 0
1, 83015, Note_on_c, 0, 87, 61
1, 83063, Note_on_c, 0, 63, 48
1, 83085, Note_on_c, 0, 94, 69
1, 83096, Note_on_c, 0, 87, 0
1, 83129, Control_c, 0, 64, 106
1, 83149, Control_c, 0, 64, 82
1, 83166, Control_c, 0, 64, 61
1, 83174, Note_on_c, 0, 89, 71
1, 83185, Control_c, 0, 64, 59
1, 83197, Note_on_c, 0, 65, 53
1, 83204, Control_c, 0, 64, 64
1, 83210, Note_on_c, 0, 63, 0
1, 83210, Poly_aftertouch_c, 0, 63, 0
1, 83216, Note_on_c, 0, 94, 0
1, 83222, Control_c, 0, 64, 71
1, 83241, Control_c, 0, 64, 79
1, 83250, Note_on_c, 0, 89, 0
1, 83250, Poly_aftertouch_c, 0, 89, 0
1, 83260, Control_c, 0, 64, 88
1, 83261, Note_on_c, 0, 65, 0
1, 83261, Poly_aftertouch_c, 0, 65, 0
1, 83280, Control_c, 0, 64, 95
1, 83297, Control_c, 0, 64, 100
1, 83335, Control_c, 0, 64, 104
1, 83353, Note_on_c, 0, 70, 46
1, 83407, Note_on_c, 0, 70, 0
1, 83434, Note_on_c, 0, 73, 49
1, 83467, Control_c, 0, 64, 108
1, 83471, Note_on_c, 0, 73, 0
1, 83484, Note_on_c, 0, 75, 56
1, 83503, Control_c, 0, 64, 112
1, 83514, Note_on_c, 0, 75, 0
1, 83514, Poly_aftertouch_c, 0, 75, 0
1, 83517, Note_on_c, 0, 77, 53
1, 83541, Control_c, 0, 64, 117
1, 83556, Note_on_c, 0, 77, 0
1, 83556, Note_on_c, 0, 82, 57
1, 83580, Control_c, 0, 64, 122
1, 83628, Note_on_c, 0, 82, 0
1, 83628, Note_on_c, 0, 85, 60
1, 83676, Note_on_c, 0, 85, 0
1, 83691, Note_on_c, 0, 94, 82
1, 83728, Note_on_c, 0, 61, 54
1, 83747, Control_c, 0, 64, 104
1, 83766, Control_c, 0, 64, 76
1, 83784, Control_c, 0, 64, 54
1, 83792, Note_on_c, 0, 61, 0
1, 83792, Poly_aftertouch_c, 0, 61, 0
1, 83801, Note_on_c, 0, 87, 72
1, 83820, Note_on_c, 0, 94, 0
1, 83822, Control_c, 0, 64, 59
1, 83825, Note_on_c, 0, 63, 54
1, 83840, Control_c, 0, 64, 68
1, 83859, Control_c, 0, 64, 77
1, 83878, Control_c, 0, 64, 85
1, 83889, Note_on_c, 0, 87, 0
1, 83896, Control_c, 0, 64, 95
1, 83913, Note_on_c, 0, 63, 0
1, 83913, Poly_aftertouch_c, 0, 63, 0
1, 83913, Control_c, 0, 64, 104
1, 83935, Control_c, 0, 64, 109
1, 83942, Note_on_c, 0, 66, 53
1, 83990, Control_c, 0, 64, 113
1, 83998, Note_on_c, 0, 66, 0
1, 83998, Poly_aftertouch_c, 0, 66, 0
1, 84030, Note_on_c, 0, 70, 51
1, 84045, Control_c, 0, 64, 117
1, 84073, Note_on_c, 0, 70, 0
1, 84097, Note_on_c, 0, 73, 46
1, 84130, Note_on_c, 0, 73, 0
1, 84135, Note_on_c, 0, 75, 49
1, 84164, Note_on_c, 0, 75, 0
1, 84164, Poly_aftertouch_c, 0, 75, 0
1, 84198, Note_on_c, 0, 78, 54
1, 84280, Note_on_c, 0, 78, 0
1, 84307, Note_on_c, 0, 82, 58
1, 84367, Note_on_c, 0, 82, 0
1, 84382, Note_on_c, 0, 89, 61
1, 84391, Note_on_c, 0, 65, 32
1, 84478, Control_c, 0, 64, 112
1, 84495, Control_c, 0, 64, 96
1, 84498, Note_on_c, 0, 65, 0
1, 84498, Poly_aftertouch_c, 0, 65, 0
1, 84506, Note_on_c, 0, 58, 50
1, 84510, Note_on_c, 0, 82, 59
1, 84514, Control_c, 0, 64, 72
1, 84532, Control_c, 0, 64, 59
1, 84545, Note_on_c, 0, 89, 0
1, 84545, Poly_aftertouch_c, 0, 89, 0
1, 84550, Control_c, 0, 64, 61
1, 84570, Control_c, 0, 64, 67
1, 84588, Control_c, 0, 64, 75
1, 84592, Note_on_c, 0, 58, 0
1, 84607, Control_c, 0, 64, 83
1, 84626, Control_c, 0, 64, 93
1, 84643, Control_c, 0, 64, 103
1, 84657, Note_on_c, 0, 65, 37
1, 84661, Control_c, 0, 64, 110
1, 84682, Control_c, 0, 64, 114
1, 84749, Note_on_c, 0, 65, 0
1, 84749, Poly_aftertouch_c, 0, 65, 0
1, 84776, Control_c, 0, 64, 118
1, 84786, Note_on_c, 0, 82, 0
1, 84805, Note_on_c, 0, 70, 37
1, 84849, Note_on_c, 0, 70, 0
1, 84899, Note_on_c, 0, 73, 41
1, 84904, Control_c, 0, 64, 122
1, 84952, Note_on_c, 0, 73, 0
1, 84978, Note_on_c, 0, 77, 23
1, 85030, Note_on_c, 0, 82, 60
1, 85032, Note_on_c, 0, 77, 0
1, 85072, Note_on_c, 0, 82, 0
1, 85097, Note_on_c, 0, 85, 56
1, 85137, Note_on_c, 0, 85, 0
1, 85151, Note_on_c, 0, 92, 70
1, 85167, Note_on_c, 0, 63, 49
1, 85186, Control_c, 0, 64, 115
1, 85205, Control_c, 0, 64, 100
1, 85224, Control_c, 0, 64, 76
1, 85242, Control_c, 0, 64, 61
1, 85262, Note_on_c, 0, 89, 71
1, 85262, Control_c, 0, 64, 62
1, 85273, Note_on_c, 0, 63, 0
1, 85273, Poly_aftertouch_c, 0, 63, 0
1, 85276, Note_on_c, 0, 65, 55
1, 85280, Control_c, 0, 64, 68
1, 85293, Note_on_c, 0, 92, 0
1, 85298, Control_c, 0, 64, 78
1, 85317, Control_c, 0, 64, 88
1, 85328, Note_on_c, 0, 89, 0
1, 85328, Poly_aftertouch_c, 0, 89, 0
1, 85335, Control_c, 0, 64, 101
1, 85354, Note_on_c, 0, 65, 0
1, 85354, Poly_aftertouch_c, 0, 65, 0
1, 85355, Control_c, 0, 64, 113
1, 85373, Control_c, 0, 64, 119
1, 85401, Note_on_c, 0, 68, 50
1, 85457, Note_on_c, 0, 68, 0
1, 85467, Note_on_c, 0, 73, 55
1, 85514, Note_on_c, 0, 73, 0
1, 85527, Note_on_c, 0, 75, 59
1, 85553, Note_on_c, 0, 75, 0
1, 85553, Poly_aftertouch_c, 0, 75, 0
1, 85566, Note_on_c, 0, 77, 58
1, 85608, Note_on_c, 0, 80, 58
1, 85612, Note_on_c, 0, 77, 0
1, 85665, Note_on_c, 0, 85, 67
1, 85677, Note_on_c, 0, 80, 0
1, 85677, Poly_aftertouch_c, 0, 80, 0
1, 85739, Note_on_c, 0, 85, 0
1, 85756, Note_on_c, 0, 92, 83
1, 85763, Note_on_c, 0, 61, 57
1, 85766, Control_c, 0, 64, 110
1, 85784, Control_c, 0, 64, 92
1, 85804, Control_c, 0, 64, 68
1, 85822, Control_c, 0, 64, 58
1, 85841, Control_c, 0, 64, 60
1, 85851, Note_on_c, 0, 61, 0
1, 85851, Poly_aftertouch_c, 0, 61, 0
1, 85858, Note_on_c, 0, 87, 76
1, 85859, Control_c, 0, 64, 67
1, 85871, Note_on_c, 0, 92, 0
1, 85873, Note_on_c, 0, 63, 61
1, 85878, Control_c, 0, 64, 76
1, 85899, Control_c, 0, 64, 86
1, 85915, Control_c, 0, 64, 96
1, 85935, Control_c, 0, 64, 106
1, 85946, Note_on_c, 0, 87, 0
1, 85952, Note_on_c, 0, 63, 0
1, 85952, Poly_aftertouch_c, 0, 63, 0
1, 85952, Control_c, 0, 64, 112
1, 85980, Note_on_c, 0, 68, 55
1, 85992, Control_c, 0, 64, 116
1, 86045, Note_on_c, 0, 68, 0
1, 86091, Note_on_c, 0, 74, 64
1, 86130, Note_on_c, 0, 74, 0
1, 86130, Poly_aftertouch_c, 0, 74, 0
1, 86163, Note_on_c, 0, 75, 61
1, 86209, Poly_aftertouch_c, 0, 72, 0
1, 86210, Note_on_c, 0, 75, 0
1, 86210, Poly_aftertouch_c, 0, 75, 0
1, 86223, Note_on_c, 0, 80, 63
1, 86292, Note_on_c, 0, 85, 66
1, 86294, Note_on_c, 0, 80, 0
1, 86294, Poly_aftertouch_c, 0, 80, 0
1, 86345, Control_c, 0, 64, 110
1, 86357, Note_on_c, 0, 92, 78
1, 86364, Control_c, 0, 64, 95
1, 86367, Note_on_c, 0, 60, 45
1, 86368, Note_on_c, 0, 85, 0
1, 86383, Control_c, 0, 64, 70
1, 86402, Control_c, 0, 64, 48
1, 86421, Control_c, 0, 64, 43
1, 86427, Note_on_c, 0, 61, 52
1, 86435, Note_on_c, 0, 60, 0
1, 86440, Control_c, 0, 64, 50
1, 86457, Control_c, 0, 64, 64
1, 86459, Note_on_c, 0, 85, 70
1, 86463, Note_on_c, 0, 92, 0
1, 86478, Control_c, 0, 64, 76
1, 86496, Control_c, 0, 64, 86
1, 86513, Control_c, 0, 64, 96
1, 86522, Note_on_c, 0, 61, 0
1, 86522, Poly_aftertouch_c, 0, 61, 0
1, 86533, Control_c, 0, 64, 104
1, 86544, Note_on_c, 0, 85, 0
1, 86559, Note_on_c, 0, 65, 50
1, 86572, Control_c, 0, 64, 109
1, 86634, Note_on_c, 0, 65, 0
1, 86634, Poly_aftertouch_c, 0, 65, 0
1, 86656, Note_on_c, 0, 68, 49
1, 86712, Note_on_c, 0, 68, 0
1, 86719, Control_c, 0, 64, 114
1, 86720, Note_on_c, 0, 72, 55
1, 86744, Note_on_c, 0, 72, 0
1, 86777, Note_on_c, 0, 73, 60
1, 86837, Note_on_c, 0, 73, 0
1, 86856, Note_on_c, 0, 77, 55
1, 86909, Note_on_c, 0, 77, 0
1, 86926, Note_on_c, 0, 80, 59
1, 86993, Note_on_c, 0, 63, 46
1, 87003, Note_on_c, 0, 80, 0
1, 87003, Poly_aftertouch_c, 0, 80, 0
1, 87012, Note_on_c, 0, 87, 63
1, 87019, Control_c, 0, 64, 108
1, 87037, Control_c, 0, 64, 95
1, 87055, Note_on_c, 0, 63, 0
1, 87055, Poly_aftertouch_c, 0, 63, 0
1, 87055, Control_c, 0, 64, 73
1, 87075, Control_c, 0, 64, 52
1, 87093, Control_c, 0, 64, 47
1, 87103, Note_on_c, 0, 56, 48
1, 87112, Control_c, 0, 64, 51
1, 87126, Note_on_c, 0, 80, 59
1, 87128, Note_on_c, 0, 87, 0
1, 87130, Control_c, 0, 64, 60
1, 87150, Control_c, 0, 64, 72
1, 87168, Control_c, 0, 64, 81
1, 87173, Note_on_c, 0, 56, 0
1, 87188, Control_c, 0, 64, 90
1, 87205, Control_c, 0, 64, 100
1, 87224, Control_c, 0, 64, 109
1, 87228, Note_on_c, 0, 63, 46
1, 87244, Control_c, 0, 64, 114
1, 87276, Note_on_c, 0, 80, 0
1, 87276, Poly_aftertouch_c, 0, 80, 0
1, 87280, Control_c, 0, 64, 119
1, 87315, Note_on_c, 0, 63, 0
1, 87315, Poly_aftertouch_c, 0, 63, 0
1, 87318, Control_c, 0, 64, 123
1, 87363, Note_on_c, 0, 68, 46
1, 87420, Note_on_c, 0, 68, 0
1, 87444, Note_on_c, 0, 72, 48
1, 87477, Note_on_c, 0, 72, 0
1, 87527, Note_on_c, 0, 75, 49
1, 87589, Note_on_c, 0, 80, 57
1, 87593, Note_on_c, 0, 75, 0
1, 87593, Poly_aftertouch_c, 0, 75, 0
1, 87665, Note_on_c, 0, 84, 58
1, 87693, Note_on_c, 0, 80, 0
1, 87693, Poly_aftertouch_c, 0, 80, 0
1, 87723, Note_on_c, 0, 84, 0
1, 87723, Poly_aftertouch_c, 0, 84, 0
1, 87734, Note_on_c, 0, 90, 71
1, 87752, Note_on_c, 0, 60, 45
1, 87767, Control_c, 0, 64, 115
1, 87786, Control_c, 0, 64, 99
1, 87804, Control_c, 0, 64, 75
1, 87823, Control_c, 0, 64, 61
1, 87835, Note_on_c, 0, 60, 0
1, 87837, Note_on_c, 0, 85, 73
1, 87840, Control_c, 0, 64, 62
1, 87857, Note_on_c, 0, 90, 0
1, 87859, Control_c, 0, 64, 68
1, 87862, Note_on_c, 0, 61, 53
1, 87879, Control_c, 0, 64, 76
1, 87898, Control_c, 0, 64, 85
1, 87916, Control_c, 0, 64, 94
1, 87921, Note_on_c, 0, 85, 0
1, 87935, Control_c, 0, 64, 103
1, 87944, Note_on_c, 0, 61, 0
1, 87944, Poly_aftertouch_c, 0, 61, 0
1, 87955, Control_c, 0, 64, 108
1, 87978, Note_on_c, 0, 66, 53
1, 88041, Note_on_c, 0, 66, 0
1, 88041, Poly_aftertouch_c, 0, 66, 0
1, 88058, Note_on_c, 0, 70, 52
1, 88093, Note_on_c, 0, 70, 0
1, 88101, Note_on_c, 0, 72, 58
1, 88130, Note_on_c, 0, 72, 0
1, 88160, Note_on_c, 0, 73, 60
1, 88195, Note_on_c, 0, 73, 0
1, 88211, Note_on_c, 0, 78, 61
1, 88268, Note_on_c, 0, 78, 0
1, 88277, Note_on_c, 0, 82, 67
1, 88323, Note_on_c, 0, 82, 0
1, 88327, Control_c, 0, 64, 103
1, 88341, Note_on_c, 0, 89, 70
1, 88345, Control_c, 0, 64, 89
1, 88358, Note_on_c, 0, 58, 54
1, 88364, Control_c, 0, 64, 68
1, 88384, Control_c, 0, 64, 57
1, 88402, Control_c, 0, 64, 59
1, 88420, Control_c, 0, 64, 67
1, 88422, Note_on_c, 0, 84, 77
1, 88439, Note_on_c, 0, 58, 0
1, 88439, Note_on_c, 0, 60, 60
1, 88439, Control_c, 0, 64, 78
1, 88447, Note_on_c, 0, 89, 0
1, 88447, Poly_aftertouch_c, 0, 89, 0
1, 88459, Control_c, 0, 64, 89
1, 88477, Control_c, 0, 64, 101
1, 88493, Note_on_c, 0, 84, 0
1, 88493, Poly_aftertouch_c, 0, 84, 0
1, 88496, Control_c, 0, 64, 110
1, 88524, Note_on_c, 0, 60, 0
1, 88653, Note_on_c, 0, 68, 60
1, 88665, Poly_aftertouch_c, 0, 65, 127
1, 88709, Poly_aftertouch_c, 0, 65, 0
1, 88710, Note_on_c, 0, 68, 0
1, 88733, Note_on_c, 0, 70, 49
1, 88738, Note_on_c, 0, 72, 61
1, 88765, Note_on_c, 0, 70, 0
1, 88788, Note_on_c, 0, 72, 0
1, 88800, Note_on_c, 0, 77, 57
1, 88838, Note_on_c, 0, 80, 68
1, 88842, Note_on_c, 0, 77, 0
1, 88888, Control_c, 0, 64, 105
1, 88907, Control_c, 0, 64, 93
1, 88912, Note_on_c, 0, 80, 0
1, 88912, Poly_aftertouch_c, 0, 80, 0
1, 88918, Note_on_c, 0, 87, 73
1, 88925, Control_c, 0, 64, 73
1, 88940, Note_on_c, 0, 56, 50
1, 88943, Control_c, 0, 64, 55
1, 88964, Control_c, 0, 64, 51
1, 88983, Control_c, 0, 64, 57
1, 89001, Control_c, 0, 64, 69
1, 89011, Note_on_c, 0, 82, 77
1, 89014, Note_on_c, 0, 56, 0
1, 89020, Control_c, 0, 64, 81
1, 89027, Note_on_c, 0, 87, 0
1, 89039, Note_on_c, 0, 58, 53
1, 89039, Control_c, 0, 64, 90
1, 89058, Control_c, 0, 64, 100
1, 89076, Control_c, 0, 64, 108
1, 89086, Note_on_c, 0, 82, 0
1, 89115, Control_c, 0, 64, 112
1, 89117, Note_on_c, 0, 58, 0
1, 89142, Note_on_c, 0, 63, 54
1, 89191, Note_on_c, 0, 63, 0
1, 89191, Poly_aftertouch_c, 0, 63, 0
1, 89207, Note_on_c, 0, 66, 52
1, 89225, Control_c, 0, 64, 117
1, 89251, Note_on_c, 0, 66, 0
1, 89251, Poly_aftertouch_c, 0, 66, 0
1, 89287, Note_on_c, 0, 68, 38
1, 89316, Note_on_c, 0, 70, 58
1, 89332, Note_on_c, 0, 68, 0
1, 89356, Note_on_c, 0, 70, 0
1, 89382, Note_on_c, 0, 75, 59
1, 89422, Note_on_c, 0, 75, 0
1, 89422, Poly_aftertouch_c, 0, 75, 0
1, 89432, Note_on_c, 0, 78, 62
1, 89474, Note_on_c, 0, 78, 0
1, 89502, Note_on_c, 0, 85, 74
1, 89506, Control_c, 0, 64, 110
1, 89513, Note_on_c, 0, 54, 44
1, 89525, Control_c, 0, 64, 94
1, 89542, Control_c, 0, 64, 69
1, 89562, Control_c, 0, 64, 50
1, 89584, Note_on_c, 0, 54, 0
1, 89599, Control_c, 0, 64, 54
1, 89600, Note_on_c, 0, 85, 0
1, 89604, Note_on_c, 0, 56, 52
1, 89605, Note_on_c, 0, 80, 70
1, 89618, Control_c, 0, 64, 65
1, 89637, Control_c, 0, 64, 75
1, 89655, Control_c, 0, 64, 82
1, 89665, Note_on_c, 0, 80, 0
1, 89665, Poly_aftertouch_c, 0, 80, 0
1, 89672, Note_on_c, 0, 56, 0
1, 89674, Control_c, 0, 64, 89
1, 89693, Control_c, 0, 64, 94
1, 89729, Note_on_c, 0, 61, 35
1, 89729, Control_c, 0, 64, 100
1, 89786, Control_c, 0, 64, 106
1, 89796, Note_on_c, 0, 61, 0
1, 89796, Poly_aftertouch_c, 0, 61, 0
1, 89803, Note_on_c, 0, 65, 58
1, 89825, Control_c, 0, 64, 112
1, 89857, Note_on_c, 0, 65, 0
1, 89861, Control_c, 0, 64, 117
1, 89894, Note_on_c, 0, 66, 41
1, 89934, Note_on_c, 0, 66, 0
1, 89934, Poly_aftertouch_c, 0, 66, 0
1, 89934, Control_c, 0, 64, 121
1, 89949, Note_on_c, 0, 68, 46
1, 89989, Note_on_c, 0, 68, 0
1, 90008, Note_on_c, 0, 73, 58
1, 90048, Note_on_c, 0, 73, 0
1, 90074, Note_on_c, 0, 77, 58
1, 90106, Note_on_c, 0, 54, 48
1, 90120, Note_on_c, 0, 77, 0
1, 90123, Control_c, 0, 64, 110
1, 90139, Note_on_c, 0, 84, 65
1, 90142, Control_c, 0, 64, 91
1, 90160, Control_c, 0, 64, 67
1, 90169, Note_on_c, 0, 54, 0
1, 90179, Control_c, 0, 64, 59
1, 90198, Control_c, 0, 64, 63
1, 90217, Control_c, 0, 64, 70
1, 90228, Note_on_c, 0, 84, 0
1, 90228, Poly_aftertouch_c, 0, 84, 0
1, 90233, Control_c, 0, 64, 79
1, 90234, Note_on_c, 0, 55, 44
1, 90234, Note_on_c, 0, 79, 56
1, 90255, Control_c, 0, 64, 88
1, 90272, Control_c, 0, 64, 100
1, 90291, Control_c, 0, 64, 110
1, 90306, Note_on_c, 0, 55, 0
1, 90306, Poly_aftertouch_c, 0, 55, 0
1, 90310, Control_c, 0, 64, 117
1, 90329, Control_c, 0, 64, 121
1, 90344, Note_on_c, 0, 79, 0
1, 90344, Poly_aftertouch_c, 0, 79, 0
1, 90449, Poly_aftertouch_c, 0, 61, 0
1, 90467, Note_on_c, 0, 64, 44
1, 90521, Note_on_c, 0, 64, 0
1, 90573, Note_on_c, 0, 65, 31
1, 90622, Note_on_c, 0, 67, 40
1, 90634, Note_on_c, 0, 65, 0
1, 90665, Note_on_c, 0, 67, 0
1, 90674, Note_on_c, 0, 72, 59
1, 90723, Note_on_c, 0, 72, 0
1, 90767, Note_on_c, 0, 76, 51
1, 90813, Note_on_c, 0, 76, 0
1, 90816, Note_on_c, 0, 53, 46
1, 90816, Control_c, 0, 64, 116
1, 90828, Note_on_c, 0, 83, 46
1, 90834, Control_c, 0, 64, 110
1, 90852, Control_c, 0, 64, 90
1, 90871, Control_c, 0, 64, 63
1, 90889, Control_c, 0, 64, 45
1, 90903, Note_on_c, 0, 53, 0
1, 90903, Poly_aftertouch_c, 0, 53, 0
1, 90927, Control_c, 0, 64, 53
1, 90944, Note_on_c, 0, 54, 45
1, 90945, Control_c, 0, 64, 65
1, 90953, Note_on_c, 0, 78, 62
1, 90956, Note_on_c, 0, 83, 0
1, 90964, Control_c, 0, 64, 77
1, 90983, Control_c, 0, 64, 86
1, 91002, Control_c, 0, 64, 96
1, 91019, Note_on_c, 0, 54, 0
1, 91019, Control_c, 0, 64, 104
1, 91038, Control_c, 0, 64, 109
1, 91076, Control_c, 0, 64, 114
1, 91102, Note_on_c, 0, 59, 8
1, 91114, Control_c, 0, 64, 118
1, 91125, Note_on_c, 0, 78, 0
1, 91152, Control_c, 0, 64, 124
1, 91165, Note_on_c, 0, 63, 58
1, 91194, Note_on_c, 0, 59, 0
1, 91252, Note_on_c, 0, 63, 0
1, 91252, Poly_aftertouch_c, 0, 63, 0
1, 91267, Note_on_c, 0, 65, 41
1, 91339, Note_on_c, 0, 65, 0
1, 91349, Note_on_c, 0, 66, 54
1, 91405, Note_on_c, 0, 66, 0
1, 91405, Poly_aftertouch_c, 0, 66, 0
1, 91464, Note_on_c, 0, 71, 51
1, 91549, Note_on_c, 0, 71, 0
1, 91549, Poly_aftertouch_c, 0, 71, 0
1, 91565, Note_on_c, 0, 75, 57
1, 91658, Note_on_c, 0, 75, 0
1, 91658, Poly_aftertouch_c, 0, 75, 0
1, 91677, Note_on_c, 0, 49, 45
1, 91682, Note_on_c, 0, 82, 62
1, 91694, Control_c, 0, 64, 117
1, 91712, Control_c, 0, 64, 107
1, 91732, Control_c, 0, 64, 82
1, 91749, Control_c, 0, 64, 22
1, 91768, Control_c, 0, 64, 0
1, 91824, Control_c, 0, 64, 56
1, 91843, Control_c, 0, 64, 83
1, 91850, Note_on_c, 0, 82, 0
1, 91862, Control_c, 0, 64, 101
1, 91870, Note_on_c, 0, 78, 50
1, 91880, Control_c, 0, 64, 122
1, 91882, Note_on_c, 0, 50, 41
1, 91899, Control_c, 0, 64, 127
1, 91916, Note_on_c, 0, 49, 0
1, 91916, Poly_aftertouch_c, 0, 49, 0
1, 91927, Note_on_c, 0, 50, 0
1, 92085, Note_on_c, 0, 78, 0
1, 92152, Note_on_c, 0, 57, 35
1, 92203, Note_on_c, 0, 57, 0
1, 92203, Poly_aftertouch_c, 0, 57, 0
1, 92270, Note_on_c, 0, 60, 37
1, 92310, Note_on_c, 0, 60, 0
1, 92377, Note_on_c, 0, 65, 44
1, 92415, Note_on_c, 0, 65, 0
1, 92493, Note_on_c, 0, 66, 45
1, 92561, Note_on_c, 0, 66, 0
1, 92561, Poly_aftertouch_c, 0, 66, 0
1, 92655, Note_on_c, 0, 71, 39
1, 92826, Note_on_c, 0, 72, 45
1, 92852, Control_c, 0, 67, 123
1, 92882, Note_on_c, 0, 71, 0
1, 92882, Poly_aftertouch_c, 0, 71, 0
1, 92984, Control_c, 0, 67, 119
1, 93059, Note_on_c, 0, 41, 41
1, 93114, Control_c, 0, 67, 115
1, 93149, Poly_aftertouch_c, 0, 72, 24
1, 93197, Note_on_c, 0, 81, 53
1, 93207, Note_on_c, 0, 72, 0
1, 93207, Poly_aftertouch_c, 0, 72, 0
1, 93207, Control_c, 0, 64, 121
1, 93227, Control_c, 0, 64, 114
1, 93245, Control_c, 0, 64, 102
1, 93264, Control_c, 0, 64, 82
1, 93266, Control_c, 0, 67, 111
1, 93284, Control_c, 0, 64, 54
1, 93301, Control_c, 0, 64, 9
1, 93320, Control_c, 0, 64, 20
1, 93322, Control_c, 0, 67, 107
1, 93339, Control_c, 0, 64, 40
1, 93358, Control_c, 0, 64, 64
1, 93377, Control_c, 0, 64, 85
1, 93379, Control_c, 0, 67, 103
1, 93396, Control_c, 0, 64, 103
1, 93414, Control_c, 0, 64, 125
1, 93468, Poly_aftertouch_c, 0, 41, 24
1, 93470, Control_c, 0, 67, 99
1, 93504, Note_on_c, 0, 41, 0
1, 93504, Poly_aftertouch_c, 0, 41, 0
1, 93532, Note_on_c, 0, 51, 28
1, 93564, Control_c, 0, 67, 94
1, 93649, Note_on_c, 0, 77, 54
1, 93732, Note_on_c, 0, 51, 0
1, 93732, Poly_aftertouch_c, 0, 51, 0
1, 93813, Note_on_c, 0, 57, 36
1, 93824, Note_on_c, 0, 81, 0
1, 93852, Note_on_c, 0, 57, 0
1, 93852, Poly_aftertouch_c, 0, 57, 0
1, 93971, Note_on_c, 0, 60, 45
1, 93974, Control_c, 0, 67, 90
1, 94027, Note_on_c, 0, 60, 0
1, 94029, Control_c, 0, 67, 85
1, 94068, Control_c, 0, 67, 80
1, 94104, Control_c, 0, 67, 76
1, 94107, Note_on_c, 0, 63, 58
1, 94161, Note_on_c, 0, 63, 0
1, 94161, Poly_aftertouch_c, 0, 63, 0
1, 94264, Note_on_c, 0, 69, 51
1, 94311, Control_c, 0, 67, 72
1, 94312, Note_on_c, 0, 69, 0
1, 94312, Poly_aftertouch_c, 0, 69, 0
1, 94433, Note_on_c, 0, 78, 77
1, 94435, Note_on_c, 0, 70, 46
1, 94649, Note_on_c, 0, 77, 0
1, 94676, Note_on_c, 0, 70, 0
1, 94762, Note_on_c, 0, 71, 46
1, 94854, Control_c, 0, 64, 119
1, 94871, Control_c, 0, 64, 113
1, 94876, Note_on_c, 0, 75, 70
1, 94891, Control_c, 0, 64, 97
1, 94910, Control_c, 0, 64, 75
1, 94929, Control_c, 0, 64, 62
1, 94936, Note_on_c, 0, 78, 0
1, 94947, Control_c, 0, 64, 65
1, 94967, Control_c, 0, 64, 69
1, 94984, Control_c, 0, 64, 76
1, 95003, Control_c, 0, 64, 82
1, 95022, Control_c, 0, 64, 89
1, 95040, Control_c, 0, 64, 98
1, 95059, Control_c, 0, 64, 108
1, 95062, Note_on_c, 0, 72, 55
1, 95064, Note_on_c, 0, 71, 0
1, 95064, Poly_aftertouch_c, 0, 71, 0
1, 95078, Control_c, 0, 64, 116
1, 95097, Control_c, 0, 64, 122
1, 95098, Control_c, 0, 67, 77
1, 95114, Control_c, 0, 64, 126
1, 95119, Note_on_c, 0, 75, 0
1, 95119, Poly_aftertouch_c, 0, 75, 0
1, 95129, Note_on_c, 0, 72, 0
1, 95129, Poly_aftertouch_c, 0, 72, 0
1, 95152, Control_c, 0, 67, 81
1, 95157, Note_on_c, 0, 68, 52
1, 95215, Note_on_c, 0, 68, 0
1, 95246, Control_c, 0, 67, 85
1, 95250, Note_on_c, 0, 69, 55
1, 95296, Note_on_c, 0, 69, 0
1, 95296, Poly_aftertouch_c, 0, 69, 0
1, 95325, Note_on_c, 0, 63, 43
1, 95374, Note_on_c, 0, 63, 0
1, 95374, Poly_aftertouch_c, 0, 63, 0
1, 95396, Control_c, 0, 64, 121
1, 95408, Note_on_c, 0, 77, 75
1, 95412, Note_on_c, 0, 60, 37
1, 95434, Control_c, 0, 64, 117
1, 95452, Control_c, 0, 64, 110
1, 95460, Note_on_c, 0, 60, 0
1, 95471, Control_c, 0, 64, 95
1, 95489, Control_c, 0, 64, 71
1, 95508, Control_c, 0, 64, 52
1, 95510, Note_on_c, 0, 73, 71
1, 95546, Control_c, 0, 64, 57
1, 95565, Control_c, 0, 64, 67
1, 95583, Control_c, 0, 64, 76
1, 95584, Control_c, 0, 67, 90
1, 95595, Note_on_c, 0, 70, 59
1, 95602, Control_c, 0, 64, 85
1, 95621, Control_c, 0, 64, 96
1, 95622, Control_c, 0, 67, 96
1, 95640, Control_c, 0, 64, 106
1, 95641, Control_c, 0, 67, 100
1, 95653, Note_on_c, 0, 77, 0
1, 95656, Control_c, 0, 64, 114
1, 95657, Control_c, 0, 67, 105
1, 95677, Control_c, 0, 64, 118
1, 95691, Note_on_c, 0, 73, 0
1, 95695, Control_c, 0, 67, 109
1, 95707, Note_on_c, 0, 70, 0
1, 95709, Note_on_c, 0, 66, 55
1, 95713, Control_c, 0, 64, 123
1, 95788, Control_c, 0, 67, 113
1, 95801, Note_on_c, 0, 67, 58
1, 95832, Note_on_c, 0, 66, 0
1, 95832, Poly_aftertouch_c, 0, 66, 0
1, 95850, Note_on_c, 0, 67, 0
1, 95863, Control_c, 0, 67, 118
1, 95882, Note_on_c, 0, 61, 56
1, 95957, Control_c, 0, 67, 122
1, 95961, Note_on_c, 0, 61, 0
1, 95974, Note_on_c, 0, 75, 74
1, 95993, Control_c, 0, 64, 119
1, 95998, Note_on_c, 0, 58, 56
1, 96012, Control_c, 0, 64, 110
1, 96033, Control_c, 0, 64, 83
1, 96045, Note_on_c, 0, 58, 0
1, 96050, Control_c, 0, 64, 35
1, 96068, Control_c, 0, 64, 0
1, 96079, Note_on_c, 0, 72, 70
1, 96088, Control_c, 0, 64, 28
1, 96107, Control_c, 0, 64, 49
1, 96125, Control_c, 0, 64, 69
1, 96127, Control_c, 0, 67, 126
1, 96144, Control_c, 0, 64, 80
1, 96163, Control_c, 0, 64, 88
1, 96181, Control_c, 0, 64, 97
1, 96199, Control_c, 0, 64, 103
1, 96202, Note_on_c, 0, 69, 59
1, 96219, Control_c, 0, 64, 108
1, 96221, Note_on_c, 0, 75, 0
1, 96221, Poly_aftertouch_c, 0, 75, 0
1, 96246, Note_on_c, 0, 72, 0
1, 96246, Poly_aftertouch_c, 0, 72, 0
1, 96254, Control_c, 0, 64, 113
1, 96267, Note_on_c, 0, 69, 0
1, 96267, Poly_aftertouch_c, 0, 69, 0
1, 96294, Note_on_c, 0, 65, 53
1, 96327, Note_on_c, 0, 65, 0
1, 96377, Note_on_c, 0, 66, 58
1, 96423, Note_on_c, 0, 66, 0
1, 96423, Poly_aftertouch_c, 0, 66, 0
1, 96425, Control_c, 0, 64, 117
1, 96439, Note_on_c, 0, 60, 50
1, 96503, Note_on_c, 0, 60, 0
1, 96536, Note_on_c, 0, 57, 45
1, 96544, Note_on_c, 0, 69, 65
1, 96573, Note_on_c, 0, 57, 0
1, 96573, Poly_aftertouch_c, 0, 57, 0
1, 96631, Control_c, 0, 64, 113
1, 96644, Note_on_c, 0, 66, 73
1, 96649, Control_c, 0, 64, 107
1, 96664, Note_on_c, 0, 69, 0
1, 96664, Poly_aftertouch_c, 0, 69, 0
1, 96667, Control_c, 0, 64, 93
1, 96686, Control_c, 0, 64, 66
1, 96705, Control_c, 0, 64, 0
1, 96753, Note_on_c, 0, 63, 59
1, 96760, Control_c, 0, 64, 12
1, 96780, Control_c, 0, 64, 49
1, 96798, Control_c, 0, 64, 72
1, 96817, Control_c, 0, 64, 86
1, 96836, Control_c, 0, 64, 99
1, 96850, Note_on_c, 0, 58, 51
1, 96854, Control_c, 0, 64, 111
1, 96873, Control_c, 0, 64, 120
1, 96892, Control_c, 0, 64, 126
1, 96894, Note_on_c, 0, 58, 0
1, 96904, Note_on_c, 0, 63, 0
1, 96904, Poly_aftertouch_c, 0, 63, 0
1, 96931, Note_on_c, 0, 66, 0
1, 96931, Poly_aftertouch_c, 0, 66, 0
1, 96951, Note_on_c, 0, 59, 55
1, 96980, Note_on_c, 0, 59, 0
1, 97027, Note_on_c, 0, 51, 63
1, 97064, Note_on_c, 0, 51, 0
1, 97064, Poly_aftertouch_c, 0, 51, 0
1, 97165, Note_on_c, 0, 68, 71
1, 97171, Control_c, 0, 64, 119
1, 97174, Note_on_c, 0, 41, 60
1, 97190, Control_c, 0, 64, 101
1, 97210, Control_c, 0, 64, 72
1, 97212, Note_on_c, 0, 41, 0
1, 97212, Poly_aftertouch_c, 0, 41, 0
1, 97228, Control_c, 0, 64, 26
1, 97247, Control_c, 0, 64, 0
1, 97281, Note_on_c, 0, 65, 63
1, 97285, Control_c, 0, 64, 29
1, 97304, Control_c, 0, 64, 58
1, 97322, Control_c, 0, 64, 79
1, 97341, Control_c, 0, 64, 92
1, 97359, Control_c, 0, 64, 107
1, 97362, Note_on_c, 0, 68, 0
1, 97378, Control_c, 0, 64, 117
1, 97397, Control_c, 0, 64, 123
1, 97425, Note_on_c, 0, 61, 54
1, 97432, Control_c, 0, 64, 127
1, 97499, Note_on_c, 0, 65, 0
1, 97534, Note_on_c, 0, 61, 0
1, 97546, Note_on_c, 0, 57, 44
1, 97610, Note_on_c, 0, 57, 0
1, 97610, Poly_aftertouch_c, 0, 57, 0
1, 97672, Note_on_c, 0, 58, 51
1, 97729, Note_on_c, 0, 58, 0
1, 97792, Note_on_c, 0, 51, 48
1, 97829, Note_on_c, 0, 51, 0
1, 97829, Poly_aftertouch_c, 0, 51, 0
1, 97921, Control_c, 0, 64, 121
1, 97939, Control_c, 0, 64, 116
1, 97957, Control_c, 0, 64, 106
1, 97966, Note_on_c, 0, 66, 55
1, 97976, Control_c, 0, 64, 93
1, 97994, Control_c, 0, 64, 75
1, 97996, Note_on_c, 0, 41, 46
1, 98013, Control_c, 0, 64, 49
1, 98032, Control_c, 0, 64, 0
1, 98088, Control_c, 0, 64, 16
1, 98107, Control_c, 0, 64, 40
1, 98126, Control_c, 0, 64, 59
1, 98145, Note_on_c, 0, 63, 54
1, 98145, Control_c, 0, 64, 75
1, 98163, Control_c, 0, 64, 81
1, 98183, Control_c, 0, 64, 86
1, 98200, Control_c, 0, 64, 90
1, 98213, Note_on_c, 0, 41, 0
1, 98213, Poly_aftertouch_c, 0, 41, 0
1, 98219, Control_c, 0, 64, 95
1, 98233, Note_on_c, 0, 66, 0
1, 98233, Poly_aftertouch_c, 0, 66, 0
1, 98238, Control_c, 0, 64, 102
1, 98257, Control_c, 0, 64, 109
1, 98274, Control_c, 0, 64, 114
1, 98313, Control_c, 0, 64, 119
1, 98350, Control_c, 0, 64, 125
1, 98364, Note_on_c, 0, 60, 37
1, 98538, Note_on_c, 0, 56, 39
1, 98582, Poly_aftertouch_c, 0, 63, 20
1, 98584, Note_on_c, 0, 63, 0
1, 98584, Poly_aftertouch_c, 0, 63, 0
1, 98595, Note_on_c, 0, 56, 0
1, 98623, Note_on_c, 0, 60, 0
1, 98755, Note_on_c, 0, 57, 31
1, 98864, Note_on_c, 0, 57, 0
1, 98864, Poly_aftertouch_c, 0, 57, 0
1, 98995, Note_on_c, 0, 51, 36
1, 99045, Note_on_c, 0, 51, 0
1, 99045, Poly_aftertouch_c, 0, 51, 0
1, 99349, Note_on_c, 0, 41, 40
1, 99398, Control_c, 0, 67, 122
1, 99472, Control_c, 0, 67, 118
1, 99546, Control_c, 0, 67, 113
1, 99621, Control_c, 0, 67, 109
1, 99696, Control_c, 0, 67, 105
1, 99734, Control_c, 0, 67, 101
1, 99808, Control_c, 0, 67, 97
1, 99865, Control_c, 0, 67, 93
1, 99939, Control_c, 0, 67, 89
1, 100014, Control_c, 0, 67, 84
1, 100144, Control_c, 0, 67, 80
1, 100150, Note_on_c, 0, 29, 52
1, 100210, Note_on_c, 0, 29, 0
1, 100438, Note_on_c, 0, 41, 0
1, 100438, Poly_aftertouch_c, 0, 41, 0
1, 101061, Control_c, 0, 67, 74
1, 101098, Control_c, 0, 67, 70
1, 101107, Note_on_c, 0, 51, 35
1, 101155, Control_c, 0, 67, 66
1, 101211, Control_c, 0, 67, 61
1, 101267, Control_c, 0, 67, 56
1, 101304, Control_c, 0, 67, 51
1, 101360, Control_c, 0, 67, 47
1, 101427, Note_on_c, 0, 54, 34
1, 101441, Note_on_c, 0, 51, 0
1, 101441, Poly_aftertouch_c, 0, 51, 0
1, 101500, Note_on_c, 0, 54, 0
1, 101508, Control_c, 0, 67, 42
1, 101539, Note_on_c, 0, 57, 39
1, 101548, Control_c, 0, 67, 37
1, 101585, Note_on_c, 0, 57, 0
1, 101585, Poly_aftertouch_c, 0, 57, 0
1, 101585, Control_c, 0, 67, 31
1, 101622, Control_c, 0, 67, 24
1, 101631, Note_on_c, 0, 60, 53
1, 101678, Control_c, 0, 67, 20
1, 101696, Note_on_c, 0, 63, 61
1, 101735, Control_c, 0, 67, 15
1, 101755, Note_on_c, 0, 60, 0
1, 101769, Note_on_c, 0, 69, 57
1, 101771, Control_c, 0, 67, 9
1, 101858, Note_on_c, 0, 63, 0
1, 101858, Poly_aftertouch_c, 0, 63, 0
1, 101869, Note_on_c, 0, 72, 71
1, 101904, Note_on_c, 0, 69, 0
1, 101904, Poly_aftertouch_c, 0, 69, 0
1, 101940, Control_c, 0, 67, 0
1, 102010, Note_on_c, 0, 72, 0
1, 102010, Poly_aftertouch_c, 0, 72, 0
1, 102092, Note_on_c, 0, 78, 87
1, 102111, Note_on_c, 0, 75, 64
1, 102144, Note_on_c, 0, 78, 0
1, 102147, Note_on_c, 0, 75, 0
1, 102147, Poly_aftertouch_c, 0, 75, 0
1, 102531, Note_on_c, 0, 75, 50
1, 102578, Note_on_c, 0, 75, 0
1, 102578, Poly_aftertouch_c, 0, 75, 0
1, 102638, Note_on_c, 0, 77, 60
1, 102707, Note_on_c, 0, 77, 0
1, 102745, Note_on_c, 0, 73, 49
1, 102797, Note_on_c, 0, 73, 0
1, 102813, Note_on_c, 0, 76, 59
1, 102853, Note_on_c, 0, 76, 0
1, 102894, Note_on_c, 0, 72, 57
1, 102924, Note_on_c, 0, 72, 0
1, 102924, Poly_aftertouch_c, 0, 72, 0
1, 102961, Note_on_c, 0, 75, 65
1, 102999, Note_on_c, 0, 75, 0
1, 102999, Poly_aftertouch_c, 0, 75, 0
1, 103055, Note_on_c, 0, 69, 56
1, 103110, Note_on_c, 0, 78, 83
1, 103137, Note_on_c, 0, 69, 0
1, 103137, Poly_aftertouch_c, 0, 69, 0
1, 103250, Note_on_c, 0, 78, 0
1, 103269, Note_on_c, 0, 75, 55
1, 103332, Note_on_c, 0, 75, 0
1, 103332, Poly_aftertouch_c, 0, 75, 0
1, 103349, Note_on_c, 0, 77, 69
1, 103424, Note_on_c, 0, 77, 0
1, 103435, Note_on_c, 0, 73, 49
1, 103466, Note_on_c, 0, 76, 65
1, 103474, Note_on_c, 0, 73, 0
1, 103531, Note_on_c, 0, 76, 0
1, 103562, Note_on_c, 0, 72, 67
1, 103593, Note_on_c, 0, 72, 0
1, 103593, Poly_aftertouch_c, 0, 72, 0
1, 103621, Note_on_c, 0, 75, 67
1, 103695, Note_on_c, 0, 69, 72
1, 103699, Note_on_c, 0, 75, 0
1, 103699, Poly_aftertouch_c, 0, 75, 0
1, 103779, Note_on_c, 0, 78, 84
1, 103794, Note_on_c, 0, 69, 0
1, 103794, Poly_aftertouch_c, 0, 69, 0
1, 103918, Note_on_c, 0, 75, 52
1, 103933, Note_on_c, 0, 78, 0
1, 103993, Note_on_c, 0, 75, 0
1, 103993, Poly_aftertouch_c, 0, 75, 0
1, 104002, Note_on_c, 0, 77, 72
1, 104091, Note_on_c, 0, 77, 0
1, 104099, Note_on_c, 0, 73, 56
1, 104145, Note_on_c, 0, 76, 65
1, 104156, Note_on_c, 0, 73, 0
1, 104211, Note_on_c, 0, 76, 0
1, 104231, Note_on_c, 0, 72, 69
1, 104263, Note_on_c, 0, 72, 0
1, 104263, Poly_aftertouch_c, 0, 72, 0
1, 104300, Note_on_c, 0, 75, 74
1, 104372, Note_on_c, 0, 69, 73
1, 104374, Note_on_c, 0, 75, 0
1, 104374, Poly_aftertouch_c, 0, 75, 0
1, 104445, Note_on_c, 0, 78, 87
1, 104463, Note_on_c, 0, 69, 0
1, 104463, Poly_aftertouch_c, 0, 69, 0
1, 104594, Note_on_c, 0, 75, 62
1, 104608, Note_on_c, 0, 78, 0
1, 104693, Note_on_c, 0, 75, 0
1, 104693, Poly_aftertouch_c, 0, 75, 0
1, 104701, Note_on_c, 0, 77, 69
1, 104780, Note_on_c, 0, 73, 62
1, 104781, Note_on_c, 0, 77, 0
1, 104864, Note_on_c, 0, 73, 0
1, 104864, Note_on_c, 0, 76, 65
1, 104904, Note_on_c, 0, 76, 0
1, 104946, Note_on_c, 0, 72, 57
1, 104970, Note_on_c, 0, 72, 0
1, 104970, Poly_aftertouch_c, 0, 72, 0
1, 105007, Note_on_c, 0, 75, 73
1, 105100, Note_on_c, 0, 69, 68
1, 105226, Note_on_c, 0, 77, 79
1, 105263, Note_on_c, 0, 75, 0
1, 105263, Poly_aftertouch_c, 0, 75, 0
1, 105283, Note_on_c, 0, 69, 0
1, 105283, Poly_aftertouch_c, 0, 69, 0
1, 105306, Control_c, 0, 64, 117
1, 105324, Control_c, 0, 64, 85
1, 105343, Control_c, 0, 64, 68
1, 105363, Control_c, 0, 64, 75
1, 105380, Control_c, 0, 64, 83
1, 105400, Control_c, 0, 64, 93
1, 105401, Note_on_c, 0, 73, 60
1, 105419, Control_c, 0, 64, 108
1, 105437, Control_c, 0, 64, 125
1, 105460, Note_on_c, 0, 77, 0
1, 105486, Note_on_c, 0, 73, 0
1, 105497, Note_on_c, 0, 76, 78
1, 105595, Note_on_c, 0, 76, 0
1, 105610, Note_on_c, 0, 72, 60
1, 105648, Note_on_c, 0, 72, 0
1, 105648, Poly_aftertouch_c, 0, 72, 0
1, 105700, Note_on_c, 0, 75, 80
1, 105868, Note_on_c, 0, 69, 37
1, 105959, Note_on_c, 0, 69, 0
1, 105959, Poly_aftertouch_c, 0, 69, 0
1, 106053, Note_on_c, 0, 65, 73
1, 106063, Note_on_c, 0, 77, 66
1, 106086, Note_on_c, 0, 75, 0
1, 106086, Poly_aftertouch_c, 0, 75, 0
1, 106092, Control_c, 0, 64, 117
1, 106111, Control_c, 0, 64, 110
1, 106128, Control_c, 0, 64, 102
1, 106148, Control_c, 0, 64, 96
1, 106166, Control_c, 0, 64, 89
1, 106185, Control_c, 0, 64, 77
1, 106203, Control_c, 0, 64, 57
1, 106222, Control_c, 0, 64, 20
1, 106241, Control_c, 0, 64, 0
1, 106259, Control_c, 0, 64, 20
1, 106279, Control_c, 0, 64, 44
1, 106293, Note_on_c, 0, 73, 47
1, 106298, Control_c, 0, 64, 65
1, 106316, Control_c, 0, 64, 82
1, 106334, Control_c, 0, 64, 96
1, 106353, Control_c, 0, 64, 113
1, 106358, Note_on_c, 0, 77, 0
1, 106371, Control_c, 0, 64, 127
1, 106399, Note_on_c, 0, 73, 0
1, 106442, Note_on_c, 0, 76, 60
1, 106465, Control_c, 0, 64, 122
1, 106483, Control_c, 0, 64, 96
1, 106503, Control_c, 0, 64, 80
1, 106521, Control_c, 0, 64, 84
1, 106528, Note_on_c, 0, 76, 0
1, 106540, Control_c, 0, 64, 92
1, 106559, Control_c, 0, 64, 102
1, 106563, Note_on_c, 0, 72, 59
1, 106579, Control_c, 0, 64, 114
1, 106596, Control_c, 0, 64, 127
1, 106598, Note_on_c, 0, 72, 0
1, 106598, Poly_aftertouch_c, 0, 72, 0
1, 106689, Note_on_c, 0, 75, 64
1, 106709, Control_c, 0, 64, 120
1, 106726, Control_c, 0, 64, 92
1, 106746, Control_c, 0, 64, 66
1, 106784, Control_c, 0, 64, 73
1, 106801, Control_c, 0, 64, 81
1, 106814, Note_on_c, 0, 75, 0
1, 106814, Poly_aftertouch_c, 0, 75, 0
1, 106819, Control_c, 0, 64, 91
1, 106828, Note_on_c, 0, 69, 49
1, 106840, Control_c, 0, 64, 106
1, 106857, Control_c, 0, 64, 120
1, 106877, Control_c, 0, 64, 126
1, 106882, Note_on_c, 0, 69, 0
1, 106882, Poly_aftertouch_c, 0, 69, 0
1, 106932, Control_c, 0, 64, 122
1, 106952, Control_c, 0, 64, 109
1, 106970, Control_c, 0, 64, 79
1, 106981, Note_on_c, 0, 77, 58
1, 106989, Control_c, 0, 64, 48
1, 107007, Control_c, 0, 64, 43
1, 107026, Control_c, 0, 64, 51
1, 107045, Control_c, 0, 64, 66
1, 107063, Control_c, 0, 64, 80
1, 107082, Control_c, 0, 64, 91
1, 107101, Control_c, 0, 64, 103
1, 107120, Control_c, 0, 64, 110
1, 107133, Note_on_c, 0, 73, 46
1, 107157, Control_c, 0, 64, 114
1, 107181, Note_on_c, 0, 77, 0
1, 107254, Note_on_c, 0, 73, 0
1, 107269, Control_c, 0, 64, 104
1, 107286, Note_on_c, 0, 76, 51
1, 107288, Control_c, 0, 64, 85
1, 107307, Control_c, 0, 64, 61
1, 107310, Control_c, 0, 67, 8
1, 107325, Control_c, 0, 64, 54
1, 107345, Control_c, 0, 64, 58
1, 107363, Control_c, 0, 64, 66
1, 107380, Note_on_c, 0, 76, 0
1, 107380, Control_c, 0, 64, 75
1, 107401, Control_c, 0, 64, 84
1, 107419, Control_c, 0, 64, 93
1, 107438, Control_c, 0, 64, 102
1, 107440, Control_c, 0, 67, 12
1, 107457, Control_c, 0, 64, 108
1, 107458, Note_on_c, 0, 72, 45
1, 107495, Control_c, 0, 64, 113
1, 107588, Control_c, 0, 67, 16
1, 107626, Note_on_c, 0, 75, 52
1, 107628, Note_on_c, 0, 72, 0
1, 107628, Poly_aftertouch_c, 0, 72, 0
1, 107629, Poly_aftertouch_c, 0, 72, 0
1, 107643, Control_c, 0, 64, 109
1, 107662, Control_c, 0, 64, 93
1, 107663, Control_c, 0, 67, 22
1, 107680, Control_c, 0, 64, 68
1, 107699, Control_c, 0, 64, 57
1, 107699, Control_c, 0, 67, 28
1, 107719, Control_c, 0, 64, 59
1, 107736, Control_c, 0, 64, 64
1, 107737, Control_c, 0, 67, 35
1, 107756, Control_c, 0, 64, 70
1, 107775, Control_c, 0, 64, 77
1, 107776, Control_c, 0, 67, 41
1, 107793, Control_c, 0, 64, 83
1, 107811, Control_c, 0, 64, 88
1, 107814, Control_c, 0, 67, 46
1, 107815, Note_on_c, 0, 69, 41
1, 107830, Control_c, 0, 64, 94
1, 107851, Control_c, 0, 64, 99
1, 107867, Control_c, 0, 64, 103
1, 107868, Control_c, 0, 67, 51
1, 107883, Note_on_c, 0, 75, 0
1, 107883, Poly_aftertouch_c, 0, 75, 0
1, 107905, Control_c, 0, 64, 110
1, 107998, Control_c, 0, 67, 56
1, 108021, Note_on_c, 0, 77, 51
1, 108037, Control_c, 0, 64, 105
1, 108038, Control_c, 0, 67, 60
1, 108055, Control_c, 0, 64, 91
1, 108074, Control_c, 0, 64, 69
1, 108077, Control_c, 0, 67, 64
1, 108092, Control_c, 0, 64, 57
1, 108098, Poly_aftertouch_c, 0, 69, 22
1, 108111, Control_c, 0, 64, 59
1, 108112, Control_c, 0, 67, 69
1, 108129, Note_on_c, 0, 69, 0
1, 108129, Poly_aftertouch_c, 0, 69, 0
1, 108129, Control_c, 0, 64, 66
1, 108148, Control_c, 0, 64, 73
1, 108149, Control_c, 0, 67, 73
1, 108167, Control_c, 0, 64, 80
1, 108186, Control_c, 0, 64, 88
1, 108204, Control_c, 0, 64, 96
1, 108205, Control_c, 0, 67, 78
1, 108223, Control_c, 0, 64, 101
1, 108240, Control_c, 0, 67, 82
1, 108243, Note_on_c, 0, 73, 40
1, 108261, Control_c, 0, 64, 106
1, 108268, Poly_aftertouch_c, 0, 77, 24
1, 108297, Control_c, 0, 64, 110
1, 108309, Note_on_c, 0, 77, 0
1, 108309, Poly_aftertouch_c, 0, 77, 0
1, 108354, Control_c, 0, 64, 114
1, 108355, Control_c, 0, 67, 86
1, 108475, Note_on_c, 0, 73, 0
1, 108525, Note_on_c, 0, 65, 0
1, 108527, Note_on_c, 0, 76, 43
1, 108534, Note_on_c, 0, 64, 36
1, 108560, Control_c, 0, 64, 109
1, 108561, Control_c, 0, 67, 90
1, 108579, Control_c, 0, 64, 100
1, 108597, Control_c, 0, 64, 81
1, 108599, Control_c, 0, 67, 94
1, 108616, Control_c, 0, 64, 55
1, 108636, Control_c, 0, 64, 39
1, 108653, Control_c, 0, 64, 43
1, 108654, Control_c, 0, 67, 99
1, 108671, Control_c, 0, 64, 54
1, 108690, Control_c, 0, 64, 67
1, 108709, Control_c, 0, 64, 75
1, 108710, Control_c, 0, 67, 103
1, 108728, Control_c, 0, 64, 81
1, 108746, Control_c, 0, 64, 86
1, 108765, Control_c, 0, 64, 90
1, 108802, Control_c, 0, 64, 96
1, 108821, Control_c, 0, 67, 107
1, 108832, Note_on_c, 0, 76, 0
1, 108840, Control_c, 0, 64, 101
1, 108860, Note_on_c, 0, 72, 28
1, 108877, Control_c, 0, 64, 108
1, 108898, Control_c, 0, 64, 112
1, 108915, Control_c, 0, 67, 111
1, 108952, Control_c, 0, 64, 116
1, 109046, Control_c, 0, 67, 115
1, 109159, Note_on_c, 0, 64, 0
1, 109168, Poly_aftertouch_c, 0, 72, 24
1, 109176, Control_c, 0, 67, 119
1, 109231, Note_on_c, 0, 75, 38
1, 109256, Note_on_c, 0, 72, 0
1, 109256, Poly_aftertouch_c, 0, 72, 0
1, 109271, Control_c, 0, 64, 112
1, 109290, Note_on_c, 0, 63, 18
1, 109307, Control_c, 0, 64, 108
1, 109326, Control_c, 0, 64, 102
1, 109344, Control_c, 0, 64, 89
1, 109364, Control_c, 0, 64, 69
1, 109366, Control_c, 0, 67, 124
1, 109383, Control_c, 0, 64, 50
1, 109401, Control_c, 0, 64, 30
1, 109438, Control_c, 0, 64, 38
1, 109458, Control_c, 0, 64, 51
1, 109475, Control_c, 0, 64, 63
1, 109495, Control_c, 0, 64, 72
1, 109513, Control_c, 0, 64, 76
1, 109532, Control_c, 0, 64, 78
1, 109550, Control_c, 0, 64, 80
1, 109570, Control_c, 0, 64, 82
1, 109588, Control_c, 0, 64, 85
1, 109625, Control_c, 0, 64, 92
1, 109645, Control_c, 0, 64, 96
1, 109663, Control_c, 0, 64, 100
1, 109681, Control_c, 0, 64, 105
1, 109700, Control_c, 0, 64, 109
1, 109738, Control_c, 0, 64, 114
1, 109841, Note_on_c, 0, 69, 26
1, 109849, Control_c, 0, 64, 118
1, 109924, Control_c, 0, 64, 122
1, 110000, Control_c, 0, 67, 120
1, 110084, Poly_aftertouch_c, 0, 69, 24
1, 110092, Control_c, 0, 64, 127
1, 110093, Control_c, 0, 67, 116
1, 110131, Control_c, 0, 67, 111
1, 110167, Control_c, 0, 67, 107
1, 110205, Control_c, 0, 67, 102
1, 110223, Control_c, 0, 67, 98
1, 110242, Control_c, 0, 67, 93
1, 110257, Note_on_c, 0, 69, 0
1, 110257, Poly_aftertouch_c, 0, 69, 0
1, 110279, Control_c, 0, 67, 89
1, 110290, Poly_aftertouch_c, 0, 75, 24
1, 110336, Control_c, 0, 67, 85
1, 110373, Control_c, 0, 67, 81
1, 110377, Note_on_c, 0, 75, 0
1, 110377, Poly_aftertouch_c, 0, 63, 24
1, 110377, Poly_aftertouch_c, 0, 75, 0
1, 110429, Note_on_c, 0, 63, 0
1, 110429, Poly_aftertouch_c, 0, 63, 0
1, 110448, Control_c, 0, 67, 76
1, 110504, Control_c, 0, 67, 72
1, 110617, Control_c, 0, 67, 68
1, 110710, Control_c, 0, 67, 64
1, 111173, Note_on_c, 0, 77, 67
1, 111201, Note_on_c, 0, 73, 47
1, 111216, Note_on_c, 0, 68, 29
1, 111228, Note_on_c, 0, 65, 28
1, 111243, Note_on_c, 0, 61, 32
1, 111446, Note_on_c, 0, 73, 0
1, 111495, Control_c, 0, 67, 68
1, 111508, Note_on_c, 0, 65, 0
1, 111526, Note_on_c, 0, 61, 0
1, 111533, Note_on_c, 0, 68, 0
1, 111552, Control_c, 0, 67, 72
1, 111590, Control_c, 0, 67, 80
1, 111607, Control_c, 0, 67, 84
1, 111626, Control_c, 0, 67, 88
1, 111644, Control_c, 0, 67, 92
1, 111682, Control_c, 0, 67, 99
1, 111719, Control_c, 0, 67, 105
1, 111744, Note_on_c, 0, 77, 0
1, 111744, Poly_aftertouch_c, 0, 77, 0
1, 111757, Control_c, 0, 67, 109
1, 111813, Control_c, 0, 67, 113
1, 111844, Note_on_c, 0, 76, 58
1, 111849, Control_c, 0, 67, 118
1, 111859, Note_on_c, 0, 64, 42
1, 111869, Note_on_c, 0, 67, 24
1, 111872, Note_on_c, 0, 60, 40
1, 111888, Control_c, 0, 67, 126
1, 111927, Note_on_c, 0, 67, 0
1, 111947, Note_on_c, 0, 64, 0
1, 111965, Note_on_c, 0, 60, 0
1, 111973, Note_on_c, 0, 76, 0
1, 112000, Control_c, 0, 64, 122
1, 112011, Note_on_c, 0, 75, 65
1, 112018, Control_c, 0, 64, 117
1, 112020, Note_on_c, 0, 70, 58
1, 112037, Control_c, 0, 64, 103
1, 112049, Note_on_c, 0, 66, 47
1, 112054, Control_c, 0, 64, 76
1, 112068, Note_on_c, 0, 58, 28
1, 112073, Control_c, 0, 64, 42
1, 112094, Control_c, 0, 64, 0
1, 112097, Note_on_c, 0, 63, 17
1, 112129, Note_on_c, 0, 70, 0
1, 112129, Note_on_c, 0, 70, 45
1, 112131, Control_c, 0, 64, 33
1, 112150, Control_c, 0, 64, 58
1, 112167, Control_c, 0, 64, 77
1, 112187, Control_c, 0, 64, 88
1, 112191, Control_c, 0, 67, 121
1, 112206, Control_c, 0, 64, 102
1, 112224, Control_c, 0, 64, 115
1, 112243, Control_c, 0, 64, 125
1, 112277, Note_on_c, 0, 66, 0
1, 112277, Poly_aftertouch_c, 0, 66, 0
1, 112290, Note_on_c, 0, 70, 0
1, 112338, Note_on_c, 0, 63, 0
1, 112338, Poly_aftertouch_c, 0, 63, 0
1, 112411, Control_c, 0, 67, 117
1, 112418, Note_on_c, 0, 58, 0
1, 112542, Control_c, 0, 67, 113
1, 112546, Note_on_c, 0, 75, 0
1, 112546, Poly_aftertouch_c, 0, 75, 0
1, 112722, Note_on_c, 0, 77, 56
1, 112755, Note_on_c, 0, 73, 40
1, 112763, Note_on_c, 0, 68, 34
1, 112778, Note_on_c, 0, 65, 27
1, 112786, Note_on_c, 0, 61, 28
1, 112804, Control_c, 0, 64, 119
1, 112824, Control_c, 0, 64, 105
1, 112841, Control_c, 0, 64, 86
1, 112861, Control_c, 0, 64, 64
1, 112863, Control_c, 0, 67, 117
1, 112879, Control_c, 0, 64, 39
1, 112897, Control_c, 0, 64, 0
1, 113010, Control_c, 0, 64, 29
1, 113029, Control_c, 0, 64, 45
1, 113047, Control_c, 0, 64, 52
1, 113066, Control_c, 0, 64, 56
1, 113086, Control_c, 0, 64, 60
1, 113103, Control_c, 0, 64, 66
1, 113121, Control_c, 0, 64, 70
1, 113141, Control_c, 0, 64, 74
1, 113161, Control_c, 0, 64, 77
1, 113178, Control_c, 0, 64, 79
1, 113196, Control_c, 0, 64, 82
1, 113217, Control_c, 0, 64, 85
1, 113253, Control_c, 0, 64, 93
1, 113271, Control_c, 0, 64, 98
1, 113290, Control_c, 0, 64, 104
1, 113309, Control_c, 0, 64, 109
1, 113327, Control_c, 0, 64, 114
1, 113365, Control_c, 0, 64, 119
1, 113477, Control_c, 0, 64, 124
1, 113686, Note_on_c, 0, 73, 0
1, 113705, Poly_aftertouch_c, 0, 68, 24
1, 113804, Note_on_c, 0, 68, 0
1, 113804, Poly_aftertouch_c, 0, 68, 0
1, 113810, Poly_aftertouch_c, 0, 61, 24
1, 113832, Poly_aftertouch_c, 0, 65, 24
1, 113871, Note_on_c, 0, 61, 0
1, 113871, Poly_aftertouch_c, 0, 61, 0
1, 113890, Note_on_c, 0, 65, 0
1, 113890, Poly_aftertouch_c, 0, 65, 0
1, 114368, Note_on_c, 0, 77, 0
1, 114368, Poly_aftertouch_c, 0, 77, 0
1, 114825, Control_c, 0, 67, 113
1, 115120, Note_on_c, 0, 75, 42
1, 115161, Note_on_c, 0, 60, 26
1, 115311, Note_on_c, 0, 75, 0
1, 115311, Poly_aftertouch_c, 0, 75, 0
1, 115329, Note_on_c, 0, 60, 0
1, 115363, Note_on_c, 0, 73, 47
1, 115365, Control_c, 0, 67, 109
1, 115407, Note_on_c, 0, 65, 34
1, 115408, Note_on_c, 0, 70, 26
1, 115417, Note_on_c, 0, 61, 25
1, 115457, Note_on_c, 0, 58, 28
1, 115458, Control_c, 0, 64, 114
1, 115459, Control_c, 0, 67, 105
1, 115478, Control_c, 0, 64, 89
1, 115498, Control_c, 0, 64, 59
1, 115516, Control_c, 0, 64, 43
1, 115534, Control_c, 0, 64, 46
1, 115553, Control_c, 0, 64, 59
1, 115571, Control_c, 0, 64, 73
1, 115590, Control_c, 0, 64, 83
1, 115608, Control_c, 0, 64, 96
1, 115623, Note_on_c, 0, 61, 0
1, 115623, Poly_aftertouch_c, 0, 61, 0
1, 115626, Control_c, 0, 64, 111
1, 115632, Note_on_c, 0, 73, 0
1, 115647, Control_c, 0, 64, 121
1, 115649, Note_on_c, 0, 65, 0
1, 115649, Note_on_c, 0, 70, 0
1, 115649, Poly_aftertouch_c, 0, 65, 0
1, 115649, Control_c, 0, 67, 100
1, 115650, Poly_aftertouch_c, 0, 70, 0
1, 115665, Control_c, 0, 64, 126
1, 115702, Note_on_c, 0, 58, 0
1, 115702, Control_c, 0, 67, 96
1, 115893, Note_on_c, 0, 77, 70
1, 115925, Note_on_c, 0, 73, 46
1, 115934, Note_on_c, 0, 65, 38
1, 115946, Note_on_c, 0, 68, 27
1, 115951, Note_on_c, 0, 61, 38
1, 116038, Note_on_c, 0, 65, 0
1, 116038, Poly_aftertouch_c, 0, 65, 0
1, 116040, Note_on_c, 0, 68, 0
1, 116040, Poly_aftertouch_c, 0, 68, 0
1, 116046, Note_on_c, 0, 61, 0
1, 116046, Poly_aftertouch_c, 0, 61, 0
1, 116165, Note_on_c, 0, 73, 0
1, 116278, Note_on_c, 0, 75, 67
1, 116290, Note_on_c, 0, 60, 52
1, 116315, Note_on_c, 0, 77, 0
1, 116315, Poly_aftertouch_c, 0, 77, 0
1, 116403, Note_on_c, 0, 73, 75
1, 116406, Note_on_c, 0, 58, 62
1, 116410, Note_on_c, 0, 60, 0
1, 116422, Note_on_c, 0, 75, 0
1, 116422, Poly_aftertouch_c, 0, 75, 0
1, 116450, Note_on_c, 0, 58, 0
1, 116506, Control_c, 0, 64, 115
1, 116525, Control_c, 0, 64, 93
1, 116526, Control_c, 0, 67, 90
1, 116543, Control_c, 0, 64, 64
1, 116552, Note_on_c, 0, 72, 71
1, 116556, Note_on_c, 0, 68, 66
1, 116562, Control_c, 0, 64, 38
1, 116568, Note_on_c, 0, 73, 0
1, 116581, Note_on_c, 0, 56, 55
1, 116582, Note_on_c, 0, 65, 50
1, 116582, Control_c, 0, 64, 33
1, 116583, Control_c, 0, 67, 84
1, 116592, Note_on_c, 0, 60, 40
1, 116599, Control_c, 0, 64, 48
1, 116619, Control_c, 0, 64, 67
1, 116621, Note_on_c, 0, 68, 0
1, 116621, Poly_aftertouch_c, 0, 68, 0
1, 116621, Control_c, 0, 67, 79
1, 116637, Control_c, 0, 64, 81
1, 116640, Note_on_c, 0, 72, 0
1, 116640, Poly_aftertouch_c, 0, 72, 0
1, 116656, Control_c, 0, 64, 96
1, 116661, Note_on_c, 0, 60, 0
1, 116670, Note_on_c, 0, 56, 0
1, 116673, Control_c, 0, 64, 112
1, 116674, Note_on_c, 0, 65, 0
1, 116674, Poly_aftertouch_c, 0, 65, 0
1, 116675, Control_c, 0, 67, 74
1, 116693, Control_c, 0, 64, 126
1, 116712, Control_c, 0, 67, 70
1, 116918, Note_on_c, 0, 77, 76
1, 116942, Note_on_c, 0, 73, 54
1, 116950, Note_on_c, 0, 68, 42
1, 116953, Control_c, 0, 64, 114
1, 116955, Note_on_c, 0, 65, 40
1, 116964, Note_on_c, 0, 61, 40
1, 116972, Control_c, 0, 64, 93
1, 116993, Control_c, 0, 64, 65
1, 117011, Control_c, 0, 64, 27
1, 117029, Control_c, 0, 64, 0
1, 117067, Control_c, 0, 64, 35
1, 117086, Control_c, 0, 64, 57
1, 117104, Control_c, 0, 64, 77
1, 117124, Control_c, 0, 64, 90
1, 117142, Control_c, 0, 64, 102
1, 117149, Note_on_c, 0, 65, 0
1, 117149, Poly_aftertouch_c, 0, 65, 0
1, 117157, Note_on_c, 0, 73, 0
1, 117161, Control_c, 0, 64, 110
1, 117180, Control_c, 0, 64, 116
1, 117182, Note_on_c, 0, 68, 0
1, 117182, Poly_aftertouch_c, 0, 68, 0
1, 117217, Control_c, 0, 64, 122
1, 117225, Note_on_c, 0, 61, 0
1, 117225, Poly_aftertouch_c, 0, 61, 0
1, 117255, Control_c, 0, 64, 127
1, 117324, Note_on_c, 0, 77, 0
1, 117324, Poly_aftertouch_c, 0, 77, 0
1, 117442, Control_c, 0, 67, 76
1, 117460, Control_c, 0, 67, 81
1, 117478, Control_c, 0, 67, 88
1, 117497, Control_c, 0, 67, 93
1, 117534, Control_c, 0, 67, 100
1, 117571, Control_c, 0, 67, 106
1, 117575, Note_on_c, 0, 80, 69
1, 117600, Note_on_c, 0, 60, 36
1, 117601, Note_on_c, 0, 70, 38
1, 117607, Note_on_c, 0, 75, 42
1, 117607, Control_c, 0, 67, 111
1, 117611, Note_on_c, 0, 66, 38
1, 117644, Note_on_c, 0, 60, 0
1, 117652, Note_on_c, 0, 70, 0
1, 117682, Note_on_c, 0, 66, 0
1, 117682, Poly_aftertouch_c, 0, 66, 0
1, 117683, Control_c, 0, 67, 116
1, 117759, Control_c, 0, 67, 120
1, 117781, Note_on_c, 0, 75, 0
1, 117781, Poly_aftertouch_c, 0, 75, 0
1, 117834, Control_c, 0, 67, 124
1, 117841, Note_on_c, 0, 80, 0
1, 117841, Poly_aftertouch_c, 0, 80, 0
1, 117849, Note_on_c, 0, 77, 59
1, 117870, Control_c, 0, 64, 117
1, 117873, Note_on_c, 0, 73, 45
1, 117891, Note_on_c, 0, 65, 36
1, 117891, Control_c, 0, 64, 104
1, 117899, Note_on_c, 0, 61, 32
1, 117902, Note_on_c, 0, 68, 27
1, 117908, Control_c, 0, 64, 87
1, 117928, Control_c, 0, 64, 67
1, 117946, Control_c, 0, 64, 45
1, 117965, Control_c, 0, 64, 0
1, 118002, Control_c, 0, 64, 15
1, 118021, Control_c, 0, 64, 45
1, 118040, Control_c, 0, 64, 66
1, 118058, Control_c, 0, 64, 81
1, 118077, Control_c, 0, 64, 89
1, 118095, Control_c, 0, 64, 95
1, 118115, Control_c, 0, 64, 100
1, 118119, Note_on_c, 0, 61, 0
1, 118119, Poly_aftertouch_c, 0, 61, 0
1, 118133, Control_c, 0, 64, 105
1, 118142, Note_on_c, 0, 77, 0
1, 118142, Poly_aftertouch_c, 0, 77, 0
1, 118150, Control_c, 0, 64, 110
1, 118153, Note_on_c, 0, 68, 0
1, 118153, Poly_aftertouch_c, 0, 68, 0
1, 118163, Note_on_c, 0, 73, 0
1, 118190, Control_c, 0, 64, 114
1, 118216, Note_on_c, 0, 65, 0
1, 118216, Poly_aftertouch_c, 0, 65, 0
1, 118228, Control_c, 0, 64, 118
1, 118265, Control_c, 0, 64, 123
1, 118611, Note_on_c, 0, 77, 46
1, 118619, Control_c, 0, 64, 119
1, 118642, Note_on_c, 0, 73, 30
1, 118647, Note_on_c, 0, 68, 21
1, 118652, Note_on_c, 0, 61, 22
1, 118655, Note_on_c, 0, 65, 21
1, 118675, Control_c, 0, 64, 114
1, 118694, Control_c, 0, 64, 109
1, 118713, Control_c, 0, 64, 102
1, 118731, Control_c, 0, 64, 93
1, 118750, Control_c, 0, 64, 84
1, 118768, Control_c, 0, 64, 75
1, 118788, Control_c, 0, 64, 67
1, 118807, Control_c, 0, 64, 59
1, 118825, Control_c, 0, 64, 50
1, 118844, Control_c, 0, 64, 34
1, 118862, Control_c, 0, 64, 21
1, 118900, Control_c, 0, 64, 35
1, 118919, Control_c, 0, 64, 47
1, 118937, Control_c, 0, 64, 59
1, 118956, Control_c, 0, 64, 68
1, 118974, Control_c, 0, 64, 73
1, 118994, Control_c, 0, 64, 75
1, 119014, Poly_aftertouch_c, 0, 61, 24
1, 119031, Control_c, 0, 64, 79
1, 119050, Control_c, 0, 64, 82
1, 119068, Control_c, 0, 64, 85
1, 119087, Control_c, 0, 64, 87
1, 119102, Note_on_c, 0, 61, 0
1, 119102, Poly_aftertouch_c, 0, 61, 0
1, 119126, Control_c, 0, 64, 92
1, 119162, Control_c, 0, 64, 100
1, 119200, Control_c, 0, 64, 107
1, 119217, Control_c, 0, 64, 111
1, 119237, Control_c, 0, 64, 115
1, 119274, Control_c, 0, 64, 120
1, 119327, Poly_aftertouch_c, 0, 68, 24
1, 119454, Poly_aftertouch_c, 0, 73, 24
1, 119457, Note_on_c, 0, 68, 0
1, 119457, Poly_aftertouch_c, 0, 68, 0
1, 119609, Note_on_c, 0, 73, 0
1, 119609, Poly_aftertouch_c, 0, 73, 0
1, 119682, Poly_aftertouch_c, 0, 65, 24
1, 119800, Note_on_c, 0, 65, 0
1, 119800, Poly_aftertouch_c, 0, 65, 0
1, 119984, Control_c, 0, 67, 120
1, 120021, Control_c, 0, 64, 116
1, 120135, Control_c, 0, 67, 115
1, 120227, Control_c, 0, 67, 111
1, 120322, Control_c, 0, 64, 112
1, 120323, Control_c, 0, 67, 107
1, 120470, Control_c, 0, 67, 102
1, 120527, Control_c, 0, 67, 98
1, 120583, Control_c, 0, 67, 94
1, 120658, Control_c, 0, 67, 90
1, 120677, Control_c, 0, 64, 108
1, 120715, Control_c, 0, 67, 85
1, 120751, Control_c, 0, 64, 103
1, 120769, Control_c, 0, 67, 80
1, 120826, Control_c, 0, 67, 75
1, 120883, Control_c, 0, 64, 99
1, 120884, Control_c, 0, 67, 70
1, 120919, Control_c, 0, 67, 66
1, 120956, Control_c, 0, 67, 62
1, 121013, Control_c, 0, 67, 58
1, 121043, Note_on_c, 0, 75, 42
1, 121049, Control_c, 0, 67, 54
1, 121105, Control_c, 0, 67, 49
1, 121145, Control_c, 0, 67, 44
1, 121202, Control_c, 0, 64, 95
1, 121203, Control_c, 0, 67, 39
1, 121209, Note_on_c, 0, 77, 0
1, 121209, Poly_aftertouch_c, 0, 77, 0
1, 121218, Control_c, 0, 64, 88
1, 121237, Control_c, 0, 64, 76
1, 121256, Control_c, 0, 64, 67
1, 121258, Control_c, 0, 67, 35
1, 121293, Control_c, 0, 64, 72
1, 121312, Control_c, 0, 64, 76
1, 121313, Control_c, 0, 67, 30
1, 121331, Control_c, 0, 64, 81
1, 121351, Control_c, 0, 64, 85
1, 121368, Control_c, 0, 64, 89
1, 121369, Control_c, 0, 67, 26
1, 121387, Control_c, 0, 64, 93
1, 121424, Control_c, 0, 64, 98
1, 121425, Control_c, 0, 67, 21
1, 121498, Control_c, 0, 64, 103
1, 121499, Control_c, 0, 67, 16
1, 121573, Control_c, 0, 67, 11
1, 121668, Note_on_c, 0, 77, 51
1, 121798, Control_c, 0, 64, 95
1, 121817, Control_c, 0, 64, 81
1, 121834, Note_on_c, 0, 75, 0
1, 121834, Poly_aftertouch_c, 0, 75, 0
1, 121835, Control_c, 0, 64, 71
1, 121854, Control_c, 0, 64, 75
1, 121873, Control_c, 0, 64, 78
1, 121892, Control_c, 0, 64, 84
1, 121911, Control_c, 0, 64, 90
1, 121929, Control_c, 0, 64, 98
1, 121949, Control_c, 0, 64, 104
1, 122064, Note_on_c, 0, 78, 58
1, 122134, Note_on_c, 0, 77, 0
1, 122134, Poly_aftertouch_c, 0, 77, 0
1, 122172, Control_c, 0, 64, 92
1, 122191, Control_c, 0, 64, 77
1, 122209, Control_c, 0, 64, 68
1, 122228, Control_c, 0, 64, 71
1, 122247, Control_c, 0, 64, 76
1, 122265, Control_c, 0, 64, 83
1, 122285, Control_c, 0, 64, 90
1, 122303, Control_c, 0, 64, 99
1, 122322, Control_c, 0, 64, 105
1, 122390, Note_on_c, 0, 77, 69
1, 122440, Note_on_c, 0, 78, 0
1, 122490, Control_c, 0, 64, 100
1, 122508, Control_c, 0, 64, 88
1, 122529, Control_c, 0, 64, 69
1, 122546, Control_c, 0, 64, 59
1, 122565, Control_c, 0, 64, 61
1, 122583, Control_c, 0, 64, 67
1, 122602, Control_c, 0, 64, 76
1, 122622, Control_c, 0, 64, 84
1, 122639, Control_c, 0, 64, 91
1, 122658, Control_c, 0, 64, 97
1, 122678, Control_c, 0, 64, 101
1, 122714, Control_c, 0, 64, 108
1, 122852, Note_on_c, 0, 80, 68
1, 122886, Note_on_c, 0, 77, 0
1, 122886, Poly_aftertouch_c, 0, 77, 0
1, 122902, Control_c, 0, 64, 104
1, 122920, Control_c, 0, 64, 99
1, 122939, Control_c, 0, 64, 88
1, 122958, Control_c, 0, 64, 68
1, 122960, Control_c, 0, 67, 16
1, 122976, Control_c, 0, 64, 44
1, 122995, Control_c, 0, 64, 31
1, 123014, Control_c, 0, 64, 45
1, 123033, Control_c, 0, 64, 60
1, 123051, Control_c, 0, 64, 75
1, 123071, Control_c, 0, 64, 84
1, 123074, Control_c, 0, 67, 21
1, 123088, Control_c, 0, 64, 91
1, 123108, Control_c, 0, 64, 96
1, 123109, Control_c, 0, 67, 26
1, 123145, Control_c, 0, 64, 102
1, 123146, Control_c, 0, 67, 34
1, 123163, Control_c, 0, 67, 39
1, 123182, Control_c, 0, 64, 108
1, 123183, Control_c, 0, 67, 44
1, 123202, Control_c, 0, 64, 112
1, 123204, Note_on_c, 0, 68, 36
1, 123204, Control_c, 0, 67, 48
1, 123220, Control_c, 0, 64, 116
1, 123221, Control_c, 0, 67, 52
1, 123257, Control_c, 0, 64, 120
1, 123258, Control_c, 0, 67, 60
1, 123295, Control_c, 0, 64, 126
1, 123296, Control_c, 0, 67, 66
1, 123331, Control_c, 0, 67, 74
1, 123345, Note_on_c, 0, 75, 41
1, 123369, Control_c, 0, 67, 81
1, 123406, Control_c, 0, 67, 88
1, 123424, Control_c, 0, 67, 92
1, 123443, Control_c, 0, 67, 96
1, 123451, Note_on_c, 0, 75, 0
1, 123451, Poly_aftertouch_c, 0, 75, 0
1, 123462, Control_c, 0, 67, 100
1, 123499, Control_c, 0, 67, 106
1, 123501, Note_on_c, 0, 68, 0
1, 123501, Poly_aftertouch_c, 0, 68, 0
1, 123537, Control_c, 0, 67, 112
1, 123593, Control_c, 0, 67, 117
1, 123607, Note_on_c, 0, 67, 24
1, 123631, Control_c, 0, 67, 121
1, 123743, Note_on_c, 0, 77, 41
1, 123755, Note_on_c, 0, 73, 32
1, 123759, Control_c, 0, 67, 125
1, 123762, Note_on_c, 0, 68, 11
1, 123798, Note_on_c, 0, 67, 0
1, 123881, Note_on_c, 0, 77, 0
1, 123881, Poly_aftertouch_c, 0, 77, 0
1, 123892, Note_on_c, 0, 68, 0
1, 123892, Poly_aftertouch_c, 0, 68, 0
1, 123925, Note_on_c, 0, 66, 26
1, 123962, Note_on_c, 0, 73, 0
1, 123962, Poly_aftertouch_c, 0, 73, 0
1, 124003, Note_on_c, 0, 66, 0
1, 124003, Poly_aftertouch_c, 0, 66, 0
1, 124032, Poly_aftertouch_c, 0, 80, 24
1, 124075, Note_on_c, 0, 80, 0
1, 124075, Poly_aftertouch_c, 0, 80, 0
1, 124088, Note_on_c, 0, 77, 38
1, 124091, Note_on_c, 0, 68, 19
1, 124094, Note_on_c, 0, 65, 35
1, 124111, Note_on_c, 0, 73, 34
1, 124142, Note_on_c, 0, 77, 0
1, 124142, Poly_aftertouch_c, 0, 77, 0
1, 124148, Note_on_c, 0, 65, 0
1, 124148, Poly_aftertouch_c, 0, 65, 0
1, 124165, Note_on_c, 0, 68, 0
1, 124165, Poly_aftertouch_c, 0, 68, 0
1, 124183, Note_on_c, 0, 73, 0
1, 124183, Poly_aftertouch_c, 0, 73, 0
1, 124280, Note_on_c, 0, 56, 41
1, 124350, Note_on_c, 0, 56, 0
1, 124398, Control_c, 0, 67, 121
1, 124478, Note_on_c, 0, 82, 77
1, 124687, Note_on_c, 0, 55, 41
1, 124763, Note_on_c, 0, 55, 0
1, 124763, Poly_aftertouch_c, 0, 55, 0
1, 124783, Note_on_c, 0, 70, 30
1, 124786, Note_on_c, 0, 75, 54
1, 124840, Note_on_c, 0, 70, 0
1, 124874, Note_on_c, 0, 75, 0
1, 124874, Poly_aftertouch_c, 0, 75, 0
1, 124902, Control_c, 0, 67, 117
1, 124977, Note_on_c, 0, 54, 44
1, 125043, Note_on_c, 0, 54, 0
1, 125078, Note_on_c, 0, 82, 0
1, 125095, Note_on_c, 0, 73, 34
1, 125101, Note_on_c, 0, 77, 48
1, 125116, Note_on_c, 0, 70, 13
1, 125219, Note_on_c, 0, 53, 43
1, 125257, Control_c, 0, 67, 123
1, 125261, Note_on_c, 0, 53, 0
1, 125261, Poly_aftertouch_c, 0, 53, 0
1, 125265, Note_on_c, 0, 70, 0
1, 125277, Note_on_c, 0, 77, 0
1, 125277, Poly_aftertouch_c, 0, 77, 0
1, 125288, Note_on_c, 0, 73, 0
1, 125288, Poly_aftertouch_c, 0, 73, 0
1, 125370, Control_c, 0, 67, 127
1, 125379, Note_on_c, 0, 44, 51
1, 125390, Note_on_c, 0, 77, 62
1, 125422, Note_on_c, 0, 70, 18
1, 125442, Note_on_c, 0, 73, 21
1, 125481, Note_on_c, 0, 44, 0
1, 125481, Poly_aftertouch_c, 0, 44, 0
1, 125535, Note_on_c, 0, 73, 0
1, 125535, Note_on_c, 0, 37, 58
1, 125535, Poly_aftertouch_c, 0, 73, 0
1, 125570, Note_on_c, 0, 70, 0
1, 125586, Note_on_c, 0, 37, 0
1, 125691, Poly_aftertouch_c, 0, 77, 24
1, 125713, Note_on_c, 0, 80, 77
1, 125714, Note_on_c, 0, 77, 0
1, 125714, Poly_aftertouch_c, 0, 77, 0
1, 125772, Poly_aftertouch_c, 0, 73, 127
1, 125814, Poly_aftertouch_c, 0, 73, 0
1, 125903, Note_on_c, 0, 44, 49
1, 125912, Note_on_c, 0, 75, 52
1, 125959, Note_on_c, 0, 44, 0
1, 125959, Poly_aftertouch_c, 0, 44, 0
1, 125964, Note_on_c, 0, 75, 0
1, 125964, Poly_aftertouch_c, 0, 75, 0
1, 125975, Poly_aftertouch_c, 0, 68, 127
1, 126014, Poly_aftertouch_c, 0, 68, 0
1, 126093, Note_on_c, 0, 53, 46
1, 126102, Note_on_c, 0, 77, 48
1, 126105, Note_on_c, 0, 73, 41
1, 126162, Note_on_c, 0, 73, 0
1, 126162, Note_on_c, 0, 53, 0
1, 126162, Poly_aftertouch_c, 0, 53, 0
1, 126166, Poly_aftertouch_c, 0, 68, 0
1, 126174, Note_on_c, 0, 77, 0
1, 126174, Poly_aftertouch_c, 0, 77, 0
1, 126234, Note_on_c, 0, 54, 50
1, 126318, Note_on_c, 0, 54, 0
1, 126395, Note_on_c, 0, 55, 48
1, 126396, Note_on_c, 0, 77, 51
1, 126407, Note_on_c, 0, 68, 36
1, 126408, Note_on_c, 0, 73, 45
1, 126452, Note_on_c, 0, 55, 0
1, 126452, Poly_aftertouch_c, 0, 55, 0
1, 126536, Note_on_c, 0, 56, 55
1, 126587, Note_on_c, 0, 56, 0
1, 126702, Note_on_c, 0, 68, 0
1, 126733, Note_on_c, 0, 80, 0
1, 126733, Poly_aftertouch_c, 0, 80, 0
1, 126769, Note_on_c, 0, 65, 55
1, 126825, Note_on_c, 0, 73, 0
1, 126834, Note_on_c, 0, 77, 0
1, 126834, Poly_aftertouch_c, 0, 77, 0
1, 126906, Note_on_c, 0, 65, 0
1, 126906, Poly_aftertouch_c, 0, 65, 0
1, 126926, Note_on_c, 0, 66, 59
1, 127090, Note_on_c, 0, 66, 0
1, 127090, Poly_aftertouch_c, 0, 66, 0
1, 127132, Note_on_c, 0, 67, 57
1, 127211, Note_on_c, 0, 67, 0
1, 127363, Note_on_c, 0, 80, 72
1, 127370, Control_c, 0, 64, 117
1, 127390, Control_c, 0, 64, 104
1, 127391, Note_on_c, 0, 68, 44
1, 127392, Note_on_c, 0, 65, 44
1, 127407, Control_c, 0, 64, 80
1, 127426, Control_c, 0, 64, 51
1, 127445, Control_c, 0, 64, 13
1, 127464, Control_c, 0, 64, 22
1, 127472, Note_on_c, 0, 68, 0
1, 127482, Control_c, 0, 64, 45
1, 127501, Control_c, 0, 64, 67
1, 127521, Control_c, 0, 64, 86
1, 127539, Control_c, 0, 64, 105
1, 127557, Control_c, 0, 64, 120
1, 127576, Control_c, 0, 64, 126
1, 127611, Note_on_c, 0, 65, 0
1, 127611, Poly_aftertouch_c, 0, 65, 0
1, 127704, Note_on_c, 0, 78, 59
1, 127705, Control_c, 0, 64, 121
1, 127726, Control_c, 0, 64, 114
1, 127731, Note_on_c, 0, 80, 0
1, 127731, Poly_aftertouch_c, 0, 80, 0
1, 127739, Note_on_c, 0, 70, 31
1, 127745, Control_c, 0, 64, 96
1, 127749, Note_on_c, 0, 66, 32
1, 127754, Note_on_c, 0, 63, 34
1, 127764, Control_c, 0, 64, 70
1, 127782, Control_c, 0, 64, 37
1, 127800, Control_c, 0, 64, 0
1, 127837, Control_c, 0, 64, 11
1, 127857, Control_c, 0, 64, 47
1, 127874, Control_c, 0, 64, 72
1, 127894, Control_c, 0, 64, 88
1, 127911, Note_on_c, 0, 63, 0
1, 127911, Poly_aftertouch_c, 0, 63, 0
1, 127912, Control_c, 0, 64, 101
1, 127931, Control_c, 0, 64, 109
1, 127968, Control_c, 0, 64, 113
1, 128074, Note_on_c, 0, 72, 43
1, 128097, Note_on_c, 0, 56, 38
1, 128097, Control_c, 0, 64, 109
1, 128118, Control_c, 0, 64, 96
1, 128137, Control_c, 0, 64, 70
1, 128155, Control_c, 0, 64, 39
1, 128175, Control_c, 0, 64, 26
1, 128193, Control_c, 0, 64, 36
1, 128211, Control_c, 0, 64, 52
1, 128221, Note_on_c, 0, 56, 0
1, 128228, Control_c, 0, 64, 69
1, 128232, Note_on_c, 0, 72, 0
1, 128232, Poly_aftertouch_c, 0, 72, 0
1, 128249, Control_c, 0, 64, 83
1, 128269, Control_c, 0, 64, 95
1, 128286, Control_c, 0, 64, 106
1, 128291, Poly_aftertouch_c, 0, 66, 24
1, 128305, Control_c, 0, 64, 112
1, 128339, Note_on_c, 0, 66, 0
1, 128339, Poly_aftertouch_c, 0, 66, 0
1, 128341, Control_c, 0, 64, 117
1, 128473, Note_on_c, 0, 78, 0
1, 128566, Poly_aftertouch_c, 0, 70, 24
1, 128635, Note_on_c, 0, 70, 0
1, 128635, Poly_aftertouch_c, 0, 70, 0
1, 128707, Note_on_c, 0, 77, 49
1, 128741, Note_on_c, 0, 73, 30
1, 128749, Note_on_c, 0, 65, 23
1, 128767, Note_on_c, 0, 61, 20
1, 128778, Note_on_c, 0, 68, 11
1, 128791, Control_c, 0, 64, 111
1, 128810, Control_c, 0, 64, 105
1, 128828, Control_c, 0, 64, 93
1, 128848, Control_c, 0, 64, 76
1, 128866, Control_c, 0, 64, 58
1, 128885, Control_c, 0, 64, 37
1, 128903, Control_c, 0, 64, 0
1, 128960, Control_c, 0, 64, 23
1, 128978, Control_c, 0, 64, 36
1, 128998, Control_c, 0, 64, 49
1, 129015, Control_c, 0, 64, 59
1, 129034, Control_c, 0, 64, 68
1, 129053, Control_c, 0, 64, 72
1, 129090, Control_c, 0, 64, 76
1, 129109, Control_c, 0, 64, 78
1, 129128, Control_c, 0, 64, 80
1, 129146, Control_c, 0, 64, 82
1, 129166, Control_c, 0, 64, 85
1, 129184, Control_c, 0, 64, 87
1, 129209, Poly_aftertouch_c, 0, 68, 24
1, 129221, Control_c, 0, 64, 95
1, 129247, Poly_aftertouch_c, 0, 61, 24
1, 129259, Control_c, 0, 64, 101
1, 129296, Control_c, 0, 64, 106
1, 129353, Poly_aftertouch_c, 0, 77, 24
1, 129373, Note_on_c, 0, 68, 0
1, 129373, Poly_aftertouch_c, 0, 68, 0
1, 129390, Control_c, 0, 64, 110
1, 129440, Poly_aftertouch_c, 0, 65, 24
1, 129447, Poly_aftertouch_c, 0, 73, 24
1, 129504, Note_on_c, 0, 73, 0
1, 129504, Poly_aftertouch_c, 0, 73, 0
1, 129529, Note_on_c, 0, 65, 0
1, 129529, Poly_aftertouch_c, 0, 65, 0
1, 129615, Poly_aftertouch_c, 0, 77, 32
1, 129676, Poly_aftertouch_c, 0, 61, 22
1, 129720, Note_on_c, 0, 61, 0
1, 129720, Poly_aftertouch_c, 0, 61, 0
1, 129838, Control_c, 0, 67, 123
1, 129914, Control_c, 0, 67, 119
1, 129987, Control_c, 0, 67, 115
1, 130044, Control_c, 0, 64, 106
1, 130044, Control_c, 0, 67, 110
1, 130082, Control_c, 0, 67, 106
1, 130119, Control_c, 0, 67, 100
1, 130156, Control_c, 0, 67, 94
1, 130194, Control_c, 0, 64, 101
1, 130195, Control_c, 0, 67, 89
1, 130230, Control_c, 0, 67, 85
1, 130268, Control_c, 0, 67, 80
1, 130305, Control_c, 0, 67, 75
1, 130344, Control_c, 0, 64, 97
1, 130345, Control_c, 0, 67, 69
1, 130380, Control_c, 0, 67, 64
1, 130418, Control_c, 0, 67, 57
1, 130455, Control_c, 0, 67, 51
1, 130474, Control_c, 0, 64, 93
1, 130492, Control_c, 0, 67, 46
1, 130530, Control_c, 0, 67, 40
1, 130568, Control_c, 0, 67, 35
1, 130606, Control_c, 0, 67, 28
1, 130642, Control_c, 0, 67, 21
1, 130680, Control_c, 0, 67, 15
1, 130717, Control_c, 0, 67, 9
1, 130958, Poly_aftertouch_c, 0, 77, 24
1, 130982, Note_on_c, 0, 75, 51
1, 131077, Note_on_c, 0, 75, 0
1, 131077, Poly_aftertouch_c, 0, 75, 0
1, 131091, Control_c, 0, 67, 0
1, 131128, Control_c, 0, 64, 98
1, 131165, Control_c, 0, 64, 103
1, 131203, Control_c, 0, 64, 108
1, 131207, Poly_aftertouch_c, 0, 77, 20
1, 131219, Note_on_c, 0, 77, 0
1, 131219, Poly_aftertouch_c, 0, 77, 0
1, 131220, Poly_aftertouch_c, 0, 77, 0
1, 131240, Control_c, 0, 64, 113
1, 131429, Note_on_c, 0, 73, 40
1, 131471, Note_on_c, 0, 73, 0
1, 131471, Poly_aftertouch_c, 0, 73, 0
1, 131494, Note_on_c, 0, 75, 56
1, 131520, Note_on_c, 0, 75, 0
1, 131520, Poly_aftertouch_c, 0, 75, 0
1, 131560, Note_on_c, 0, 73, 62
1, 131615, Control_c, 0, 64, 108
1, 131633, Control_c, 0, 64, 102
1, 131653, Control_c, 0, 64, 89
1, 131671, Control_c, 0, 64, 69
1, 131690, Control_c, 0, 64, 56
1, 131727, Control_c, 0, 64, 66
1, 131745, Control_c, 0, 64, 76
1, 131764, Control_c, 0, 64, 83
1, 131783, Control_c, 0, 64, 92
1, 131802, Control_c, 0, 64, 105
1, 131821, Control_c, 0, 64, 118
1, 131835, Note_on_c, 0, 73, 0
1, 131835, Poly_aftertouch_c, 0, 73, 0
1, 131838, Control_c, 0, 64, 127
1, 132190, Note_on_c, 0, 72, 56
1, 132540, Note_on_c, 0, 70, 59
1, 132548, Note_on_c, 0, 72, 0
1, 132548, Poly_aftertouch_c, 0, 72, 0
1, 132558, Note_on_c, 0, 65, 34
1, 132566, Control_c, 0, 67, 8
1, 132572, Note_on_c, 0, 58, 34
1, 132573, Note_on_c, 0, 54, 33
1, 132606, Control_c, 0, 64, 121
1, 132625, Control_c, 0, 64, 104
1, 132645, Control_c, 0, 64, 78
1, 132662, Control_c, 0, 64, 49
1, 132663, Control_c, 0, 67, 12
1, 132681, Control_c, 0, 64, 15
1, 132699, Control_c, 0, 64, 20
1, 132700, Control_c, 0, 67, 16
1, 132718, Control_c, 0, 64, 39
1, 132737, Control_c, 0, 64, 58
1, 132738, Control_c, 0, 67, 22
1, 132757, Control_c, 0, 64, 74
1, 132758, Control_c, 0, 67, 26
1, 132774, Control_c, 0, 64, 85
1, 132777, Control_c, 0, 67, 31
1, 132794, Control_c, 0, 64, 96
1, 132795, Control_c, 0, 67, 35
1, 132812, Control_c, 0, 64, 105
1, 132831, Control_c, 0, 64, 111
1, 132832, Control_c, 0, 67, 44
1, 132850, Control_c, 0, 64, 116
1, 132851, Control_c, 0, 67, 52
1, 132867, Control_c, 0, 67, 57
1, 132886, Note_on_c, 0, 58, 0
1, 132886, Control_c, 0, 64, 122
1, 132905, Control_c, 0, 67, 62
1, 132921, Note_on_c, 0, 65, 0
1, 132921, Poly_aftertouch_c, 0, 65, 0
1, 132923, Control_c, 0, 64, 127
1, 132962, Control_c, 0, 67, 67
1, 133017, Control_c, 0, 67, 72
1, 133055, Control_c, 0, 67, 77
1, 133066, Poly_aftertouch_c, 0, 54, 24
1, 133110, Control_c, 0, 67, 82
1, 133149, Control_c, 0, 67, 88
1, 133154, Note_on_c, 0, 54, 0
1, 133154, Poly_aftertouch_c, 0, 54, 0
1, 133174, Poly_aftertouch_c, 0, 70, 24
1, 133185, Control_c, 0, 67, 92
1, 133223, Control_c, 0, 67, 97
1, 133245, Note_on_c, 0, 70, 0
1, 133245, Poly_aftertouch_c, 0, 70, 0
1, 133260, Control_c, 0, 67, 102
1, 133298, Control_c, 0, 67, 106
1, 133354, Control_c, 0, 67, 111
1, 133428, Control_c, 0, 67, 115
1, 133485, Control_c, 0, 67, 119
1, 133577, Control_c, 0, 67, 125
1, 133659, Note_on_c, 0, 73, 43
1, 133685, Note_on_c, 0, 64, 34
1, 133691, Note_on_c, 0, 55, 27
1, 133691, Control_c, 0, 64, 118
1, 133709, Control_c, 0, 64, 99
1, 133728, Control_c, 0, 64, 76
1, 133747, Control_c, 0, 64, 68
1, 133765, Control_c, 0, 64, 72
1, 133783, Control_c, 0, 64, 77
1, 133802, Control_c, 0, 64, 85
1, 133822, Control_c, 0, 64, 94
1, 133828, Note_on_c, 0, 55, 0
1, 133828, Poly_aftertouch_c, 0, 55, 0
1, 133835, Note_on_c, 0, 64, 0
1, 133838, Control_c, 0, 64, 105
1, 133858, Control_c, 0, 64, 112
1, 133877, Control_c, 0, 64, 116
1, 134045, Control_c, 0, 64, 120
1, 134262, Note_on_c, 0, 63, 35
1, 134268, Note_on_c, 0, 61, 25
1, 134292, Note_on_c, 0, 44, 24
1, 134294, Note_on_c, 0, 51, 19
1, 134302, Note_on_c, 0, 54, 14
1, 134306, Control_c, 0, 64, 115
1, 134344, Control_c, 0, 64, 106
1, 134365, Control_c, 0, 64, 93
1, 134367, Note_on_c, 0, 73, 0
1, 134367, Poly_aftertouch_c, 0, 73, 0
1, 134382, Control_c, 0, 64, 73
1, 134401, Control_c, 0, 64, 59
1, 134420, Control_c, 0, 64, 51
1, 134439, Control_c, 0, 64, 48
1, 134457, Control_c, 0, 64, 50
1, 134475, Control_c, 0, 64, 56
1, 134495, Control_c, 0, 64, 63
1, 134513, Control_c, 0, 64, 71
1, 134532, Control_c, 0, 64, 76
1, 134544, Poly_aftertouch_c, 0, 51, 24
1, 134550, Control_c, 0, 64, 79
1, 134570, Control_c, 0, 64, 83
1, 134588, Control_c, 0, 64, 86
1, 134606, Control_c, 0, 64, 91
1, 134626, Control_c, 0, 64, 96
1, 134644, Control_c, 0, 64, 100
1, 134662, Control_c, 0, 64, 104
1, 134701, Control_c, 0, 64, 111
1, 134718, Control_c, 0, 64, 115
1, 134756, Control_c, 0, 64, 121
1, 134794, Control_c, 0, 64, 125
1, 134879, Poly_aftertouch_c, 0, 44, 24
1, 135015, Note_on_c, 0, 44, 0
1, 135015, Poly_aftertouch_c, 0, 44, 0
1, 135043, Poly_aftertouch_c, 0, 63, 24
1, 135083, Poly_aftertouch_c, 0, 51, 22
1, 135089, Poly_aftertouch_c, 0, 54, 24
1, 135107, Poly_aftertouch_c, 0, 61, 24
1, 135137, Note_on_c, 0, 51, 0
1, 135137, Poly_aftertouch_c, 0, 51, 0
1, 135194, Note_on_c, 0, 63, 0
1, 135194, Poly_aftertouch_c, 0, 63, 0
1, 135249, Note_on_c, 0, 54, 0
1, 135249, Poly_aftertouch_c, 0, 54, 0
1, 135258, Note_on_c, 0, 61, 0
1, 135258, Poly_aftertouch_c, 0, 61, 0
1, 135997, Note_on_c, 0, 72, 54
1, 136004, Note_on_c, 0, 64, 44
1, 136033, Note_on_c, 0, 55, 34
1, 136046, Note_on_c, 0, 58, 34
1, 136083, Note_on_c, 0, 64, 0
1, 136092, Note_on_c, 0, 55, 0
1, 136092, Poly_aftertouch_c, 0, 55, 0
1, 136100, Note_on_c, 0, 58, 0
1, 136373, Note_on_c, 0, 63, 52
1, 136391, Note_on_c, 0, 61, 40
1, 136400, Control_c, 0, 64, 118
1, 136415, Note_on_c, 0, 54, 32
1, 136419, Control_c, 0, 64, 102
1, 136429, Note_on_c, 0, 44, 26
1, 136430, Note_on_c, 0, 51, 29
1, 136438, Note_on_c, 0, 72, 0
1, 136438, Poly_aftertouch_c, 0, 72, 0
1, 136438, Control_c, 0, 64, 77
1, 136458, Control_c, 0, 64, 50
1, 136476, Control_c, 0, 64, 22
1, 136515, Control_c, 0, 64, 36
1, 136533, Control_c, 0, 64, 57
1, 136551, Control_c, 0, 64, 79
1, 136572, Control_c, 0, 64, 95
1, 136589, Control_c, 0, 64, 111
1, 136607, Control_c, 0, 64, 119
1, 136614, Note_on_c, 0, 61, 0
1, 136614, Poly_aftertouch_c, 0, 61, 0
1, 136646, Note_on_c, 0, 51, 0
1, 136646, Poly_aftertouch_c, 0, 51, 0
1, 136698, Poly_aftertouch_c, 0, 54, 22
1, 136719, Note_on_c, 0, 54, 0
1, 136719, Poly_aftertouch_c, 0, 54, 0
1, 136720, Control_c, 0, 64, 123
1, 136761, Note_on_c, 0, 44, 0
1, 136761, Poly_aftertouch_c, 0, 44, 0
1, 136941, Note_on_c, 0, 63, 0
1, 136941, Poly_aftertouch_c, 0, 63, 0
1, 137163, Note_on_c, 0, 71, 49
1, 137169, Control_c, 0, 64, 117
1, 137178, Note_on_c, 0, 62, 33
1, 137185, Control_c, 0, 64, 104
1, 137190, Note_on_c, 0, 56, 35
1, 137192, Note_on_c, 0, 53, 33
1, 137207, Control_c, 0, 64, 79
1, 137224, Control_c, 0, 64, 57
1, 137244, Control_c, 0, 64, 53
1, 137262, Control_c, 0, 64, 57
1, 137280, Control_c, 0, 64, 67
1, 137299, Control_c, 0, 64, 79
1, 137311, Note_on_c, 0, 62, 0
1, 137317, Note_on_c, 0, 53, 0
1, 137317, Poly_aftertouch_c, 0, 53, 0
1, 137317, Control_c, 0, 64, 90
1, 137336, Control_c, 0, 64, 102
1, 137341, Note_on_c, 0, 56, 0
1, 137355, Control_c, 0, 64, 110
1, 137374, Control_c, 0, 64, 114
1, 137616, Control_c, 0, 64, 109
1, 137627, Note_on_c, 0, 63, 38
1, 137638, Note_on_c, 0, 61, 23
1, 137654, Control_c, 0, 64, 99
1, 137661, Note_on_c, 0, 44, 23
1, 137663, Note_on_c, 0, 71, 0
1, 137663, Poly_aftertouch_c, 0, 71, 0
1, 137673, Control_c, 0, 64, 85
1, 137682, Note_on_c, 0, 51, 12
1, 137686, Note_on_c, 0, 54, 20
1, 137691, Control_c, 0, 64, 65
1, 137711, Control_c, 0, 64, 40
1, 137729, Control_c, 0, 64, 0
1, 137767, Control_c, 0, 64, 13
1, 137786, Control_c, 0, 64, 35
1, 137804, Control_c, 0, 64, 55
1, 137822, Control_c, 0, 64, 73
1, 137841, Control_c, 0, 64, 80
1, 137860, Control_c, 0, 64, 85
1, 137879, Control_c, 0, 64, 87
1, 137917, Control_c, 0, 64, 95
1, 137919, Poly_aftertouch_c, 0, 51, 20
1, 137953, Control_c, 0, 64, 102
1, 137980, Note_on_c, 0, 51, 0
1, 137980, Poly_aftertouch_c, 0, 51, 0
1, 137991, Control_c, 0, 64, 108
1, 138028, Control_c, 0, 64, 114
1, 138110, Note_on_c, 0, 61, 0
1, 138110, Poly_aftertouch_c, 0, 61, 0
1, 138121, Note_on_c, 0, 54, 0
1, 138121, Poly_aftertouch_c, 0, 54, 0
1, 138236, Poly_aftertouch_c, 0, 44, 24
1, 138323, Note_on_c, 0, 44, 0
1, 138323, Poly_aftertouch_c, 0, 44, 0
1, 138357, Poly_aftertouch_c, 0, 63, 24
1, 138444, Note_on_c, 0, 63, 0
1, 138444, Poly_aftertouch_c, 0, 63, 0
1, 138737, Note_on_c, 0, 70, 34
1, 138772, Note_on_c, 0, 60, 14
1, 138772, Note_on_c, 0, 55, 20
1, 138773, Note_on_c, 0, 52, 23
1, 138813, Control_c, 0, 64, 110
1, 138833, Control_c, 0, 64, 102
1, 138851, Control_c, 0, 64, 83
1, 138871, Control_c, 0, 64, 60
1, 138888, Control_c, 0, 64, 50
1, 138926, Control_c, 0, 64, 59
1, 138944, Control_c, 0, 64, 69
1, 138964, Control_c, 0, 64, 77
1, 138981, Control_c, 0, 64, 83
1, 139001, Control_c, 0, 64, 88
1, 139014, Note_on_c, 0, 60, 0
1, 139019, Control_c, 0, 64, 93
1, 139025, Poly_aftertouch_c, 0, 55, 22
1, 139038, Note_on_c, 0, 55, 0
1, 139038, Poly_aftertouch_c, 0, 55, 0
1, 139038, Control_c, 0, 64, 97
1, 139040, Note_on_c, 0, 52, 0
1, 139076, Control_c, 0, 64, 103
1, 139132, Control_c, 0, 64, 109
1, 139188, Control_c, 0, 64, 114
1, 139387, Poly_aftertouch_c, 0, 70, 24
1, 139510, Note_on_c, 0, 70, 0
1, 139510, Poly_aftertouch_c, 0, 70, 0
1, 139587, Note_on_c, 0, 63, 29
1, 139588, Note_on_c, 0, 61, 29
1, 139613, Note_on_c, 0, 54, 20
1, 139621, Note_on_c, 0, 51, 19
1, 139628, Note_on_c, 0, 44, 21
1, 139730, Control_c, 0, 64, 108
1, 139748, Control_c, 0, 64, 101
1, 139767, Control_c, 0, 64, 90
1, 139787, Control_c, 0, 64, 74
1, 139805, Control_c, 0, 64, 57
1, 139823, Control_c, 0, 64, 39
1, 139842, Control_c, 0, 64, 26
1, 139880, Control_c, 0, 64, 39
1, 139898, Control_c, 0, 64, 48
1, 139917, Control_c, 0, 64, 61
1, 139937, Control_c, 0, 64, 73
1, 139954, Control_c, 0, 64, 79
1, 139993, Control_c, 0, 64, 81
1, 140011, Control_c, 0, 64, 83
1, 140029, Control_c, 0, 64, 86
1, 140066, Control_c, 0, 64, 92
1, 140086, Control_c, 0, 64, 96
1, 140123, Control_c, 0, 64, 103
1, 140159, Control_c, 0, 64, 108
1, 140197, Control_c, 0, 64, 112
1, 140234, Control_c, 0, 64, 116
1, 140309, Control_c, 0, 64, 121
1, 140336, Poly_aftertouch_c, 0, 63, 22
1, 140384, Control_c, 0, 64, 125
1, 140389, Note_on_c, 0, 63, 0
1, 140389, Poly_aftertouch_c, 0, 63, 0
1, 140593, Poly_aftertouch_c, 0, 54, 24
1, 140642, Poly_aftertouch_c, 0, 61, 24
1, 140705, Note_on_c, 0, 54, 0
1, 140705, Poly_aftertouch_c, 0, 54, 0
1, 140715, Note_on_c, 0, 61, 0
1, 140715, Poly_aftertouch_c, 0, 61, 0
1, 141012, Poly_aftertouch_c, 0, 44, 24
1, 141271, Poly_aftertouch_c, 0, 44, 22
1, 141318, Note_on_c, 0, 44, 0
1, 141318, Poly_aftertouch_c, 0, 44, 0
1, 141519, Note_on_c, 0, 58, 17
1, 141646, Poly_aftertouch_c, 0, 63, 0
1, 141783, Note_on_c, 0, 58, 0
1, 142022, Note_on_c, 0, 60, 27
1, 142313, Note_on_c, 0, 60, 0
1, 142362, Note_on_c, 0, 61, 34
1, 142509, Note_on_c, 0, 61, 0
1, 142509, Poly_aftertouch_c, 0, 61, 0
1, 142608, Note_on_c, 0, 62, 36
1, 142708, Poly_aftertouch_c, 0, 51, 24
1, 142783, Note_on_c, 0, 51, 0
1, 142783, Poly_aftertouch_c, 0, 51, 0
1, 142819, Note_on_c, 0, 65, 43
1, 142864, Note_on_c, 0, 62, 0
1, 142870, Control_c, 0, 64, 119
1, 142908, Control_c, 0, 64, 114
1, 142947, Control_c, 0, 64, 109
1, 143002, Control_c, 0, 64, 105
1, 143076, Control_c, 0, 64, 100
1, 143127, Poly_aftertouch_c, 0, 65, 24
1, 143131, Control_c, 0, 64, 95
1, 143159, Note_on_c, 0, 66, 36
1, 143166, Note_on_c, 0, 65, 0
1, 143166, Poly_aftertouch_c, 0, 65, 0
1, 143170, Control_c, 0, 64, 90
1, 143188, Control_c, 0, 64, 85
1, 143208, Control_c, 0, 64, 75
1, 143227, Control_c, 0, 64, 59
1, 143245, Control_c, 0, 64, 47
1, 143264, Control_c, 0, 64, 43
1, 143282, Control_c, 0, 64, 45
1, 143302, Control_c, 0, 64, 54
1, 143320, Control_c, 0, 64, 64
1, 143339, Control_c, 0, 64, 73
1, 143358, Control_c, 0, 64, 77
1, 143376, Control_c, 0, 64, 79
1, 143395, Control_c, 0, 64, 81
1, 143413, Control_c, 0, 64, 84
1, 143433, Control_c, 0, 64, 88
1, 143450, Control_c, 0, 64, 92
1, 143470, Control_c, 0, 64, 96
1, 143489, Control_c, 0, 64, 101
1, 143507, Control_c, 0, 64, 106
1, 143525, Control_c, 0, 64, 112
1, 143544, Control_c, 0, 64, 116
1, 143600, Control_c, 0, 64, 121
1, 143657, Control_c, 0, 64, 125
1, 143691, Note_on_c, 0, 66, 0
1, 143691, Poly_aftertouch_c, 0, 66, 0
1, 143862, Note_on_c, 0, 63, 28
1, 144049, Control_c, 0, 64, 120
1, 144068, Note_on_c, 0, 63, 0
1, 144112, Note_on_c, 0, 65, 27
1, 144123, Control_c, 0, 64, 116
1, 144179, Note_on_c, 0, 65, 0
1, 144179, Poly_aftertouch_c, 0, 65, 0
1, 144181, Control_c, 0, 64, 112
1, 144217, Control_c, 0, 64, 105
1, 144254, Control_c, 0, 64, 99
1, 144284, Note_on_c, 0, 66, 34
1, 144290, Control_c, 0, 64, 95
1, 144329, Control_c, 0, 64, 87
1, 144350, Control_c, 0, 64, 84
1, 144356, Note_on_c, 0, 66, 0
1, 144356, Poly_aftertouch_c, 0, 66, 0
1, 144368, Control_c, 0, 64, 81
1, 144386, Control_c, 0, 64, 79
1, 144401, Note_on_c, 0, 68, 32
1, 144403, Control_c, 0, 64, 77
1, 144423, Control_c, 0, 64, 75
1, 144460, Control_c, 0, 64, 73
1, 144464, Note_on_c, 0, 68, 0
1, 144464, Poly_aftertouch_c, 0, 68, 0
1, 144493, Note_on_c, 0, 70, 47
1, 144498, Control_c, 0, 64, 70
1, 144524, Note_on_c, 0, 70, 0
1, 144524, Poly_aftertouch_c, 0, 70, 0
1, 144535, Control_c, 0, 64, 68
1, 144555, Control_c, 0, 64, 66
1, 144573, Control_c, 0, 64, 64
1, 144591, Note_on_c, 0, 72, 43
1, 144591, Control_c, 0, 64, 61
1, 144610, Control_c, 0, 64, 59
1, 144629, Control_c, 0, 64, 57
1, 144645, Note_on_c, 0, 72, 0
1, 144645, Poly_aftertouch_c, 0, 72, 0
1, 144648, Control_c, 0, 64, 52
1, 144666, Control_c, 0, 64, 44
1, 144682, Note_on_c, 0, 73, 47
1, 144683, Control_c, 0, 64, 31
1, 144704, Control_c, 0, 64, 27
1, 144755, Note_on_c, 0, 73, 0
1, 144755, Poly_aftertouch_c, 0, 73, 0
1, 144791, Note_on_c, 0, 75, 44
1, 144797, Control_c, 0, 64, 38
1, 144816, Control_c, 0, 64, 46
1, 144835, Control_c, 0, 64, 54
1, 144854, Control_c, 0, 64, 61
1, 144872, Control_c, 0, 64, 68
1, 144891, Control_c, 0, 64, 73
1, 144910, Control_c, 0, 64, 77
1, 144927, Control_c, 0, 64, 80
1, 144947, Control_c, 0, 64, 84
1, 144966, Control_c, 0, 64, 88
1, 145002, Control_c, 0, 64, 94
1, 145034, Note_on_c, 0, 61, 30
1, 145034, Note_on_c, 0, 68, 29
1, 145039, Control_c, 0, 64, 100
1, 145055, Note_on_c, 0, 65, 19
1, 145077, Control_c, 0, 64, 106
1, 145116, Control_c, 0, 64, 112
1, 145147, Note_on_c, 0, 77, 67
1, 145152, Control_c, 0, 64, 117
1, 145153, Control_c, 0, 67, 121
1, 145160, Note_on_c, 0, 73, 50
1, 145190, Control_c, 0, 64, 122
1, 145207, Poly_aftertouch_c, 0, 75, 22
1, 145207, Control_c, 0, 67, 117
1, 145210, Note_on_c, 0, 73, 0
1, 145210, Poly_aftertouch_c, 0, 73, 0
1, 145212, Note_on_c, 0, 65, 0
1, 145212, Poly_aftertouch_c, 0, 65, 0
1, 145219, Note_on_c, 0, 75, 0
1, 145219, Poly_aftertouch_c, 0, 75, 0
1, 145220, Poly_aftertouch_c, 0, 75, 0
1, 145227, Control_c, 0, 64, 127
1, 145253, Note_on_c, 0, 61, 0
1, 145253, Poly_aftertouch_c, 0, 61, 0
1, 145264, Control_c, 0, 67, 112
1, 145322, Control_c, 0, 67, 108
1, 145358, Control_c, 0, 67, 103
1, 145360, Note_on_c, 0, 68, 0
1, 145360, Poly_aftertouch_c, 0, 68, 0
1, 145395, Control_c, 0, 67, 98
1, 145433, Control_c, 0, 67, 93
1, 145471, Control_c, 0, 67, 88
1, 145508, Control_c, 0, 67, 83
1, 145563, Note_on_c, 0, 76, 70
1, 145578, Note_on_c, 0, 77, 0
1, 145581, Note_on_c, 0, 72, 50
1, 145585, Note_on_c, 0, 60, 44
1, 145585, Note_on_c, 0, 64, 44
1, 145608, Note_on_c, 0, 72, 0
1, 145608, Poly_aftertouch_c, 0, 72, 0
1, 145670, Note_on_c, 0, 76, 0
1, 145672, Note_on_c, 0, 64, 0
1, 145678, Control_c, 0, 64, 122
1, 145688, Poly_aftertouch_c, 0, 67, 0
1, 145693, Note_on_c, 0, 60, 0
1, 145695, Control_c, 0, 64, 113
1, 145713, Note_on_c, 0, 75, 79
1, 145713, Control_c, 0, 64, 91
1, 145731, Control_c, 0, 64, 61
1, 145747, Note_on_c, 0, 66, 43
1, 145749, Control_c, 0, 64, 25
1, 145755, Note_on_c, 0, 70, 30
1, 145764, Note_on_c, 0, 58, 30
1, 145768, Control_c, 0, 64, 14
1, 145783, Note_on_c, 0, 63, 26
1, 145787, Control_c, 0, 64, 32
1, 145808, Control_c, 0, 64, 47
1, 145825, Control_c, 0, 64, 65
1, 145844, Control_c, 0, 64, 76
1, 145863, Control_c, 0, 64, 83
1, 145878, Note_on_c, 0, 70, 0
1, 145878, Note_on_c, 0, 70, 6
1, 145882, Control_c, 0, 64, 88
1, 145901, Control_c, 0, 64, 96
1, 145920, Control_c, 0, 64, 106
1, 145937, Control_c, 0, 64, 116
1, 145940, Note_on_c, 0, 66, 0
1, 145940, Poly_aftertouch_c, 0, 66, 0
1, 145981, Note_on_c, 0, 63, 0
1, 146015, Note_on_c, 0, 70, 0
1, 146015, Poly_aftertouch_c, 0, 70, 0
1, 146051, Control_c, 0, 64, 120
1, 146061, Note_on_c, 0, 58, 0
1, 146143, Control_c, 0, 67, 87
1, 146218, Control_c, 0, 64, 115
1, 146220, Control_c, 0, 67, 91
1, 146246, Note_on_c, 0, 65, 30
1, 146246, Note_on_c, 0, 68, 31
1, 146250, Note_on_c, 0, 61, 36
1, 146255, Control_c, 0, 64, 106
1, 146257, Control_c, 0, 67, 97
1, 146259, Note_on_c, 0, 77, 66
1, 146272, Control_c, 0, 64, 97
1, 146277, Note_on_c, 0, 73, 50
1, 146293, Control_c, 0, 64, 89
1, 146295, Control_c, 0, 67, 103
1, 146301, Note_on_c, 0, 75, 0
1, 146312, Control_c, 0, 64, 80
1, 146331, Control_c, 0, 64, 69
1, 146333, Control_c, 0, 67, 110
1, 146349, Control_c, 0, 64, 59
1, 146367, Control_c, 0, 64, 47
1, 146368, Control_c, 0, 67, 114
1, 146386, Control_c, 0, 64, 17
1, 146405, Control_c, 0, 64, 0
1, 146518, Control_c, 0, 64, 14
1, 146536, Control_c, 0, 64, 25
1, 146556, Control_c, 0, 64, 35
1, 146574, Control_c, 0, 64, 47
1, 146592, Control_c, 0, 64, 58
1, 146612, Control_c, 0, 64, 67
1, 146629, Control_c, 0, 64, 72
1, 146649, Control_c, 0, 64, 75
1, 146667, Control_c, 0, 64, 79
1, 146686, Control_c, 0, 64, 83
1, 146704, Control_c, 0, 64, 86
1, 146741, Control_c, 0, 64, 91
1, 146760, Control_c, 0, 64, 95
1, 146779, Control_c, 0, 64, 100
1, 146791, Note_on_c, 0, 73, 0
1, 146791, Poly_aftertouch_c, 0, 73, 0
1, 146798, Control_c, 0, 64, 104
1, 146835, Control_c, 0, 64, 109
1, 146873, Control_c, 0, 64, 115
1, 146910, Control_c, 0, 64, 119
1, 146966, Control_c, 0, 64, 124
1, 146983, Note_on_c, 0, 65, 0
1, 146983, Poly_aftertouch_c, 0, 65, 0
1, 147123, Note_on_c, 0, 68, 0
1, 147123, Poly_aftertouch_c, 0, 68, 0
1, 147509, Control_c, 0, 67, 118
1, 147570, Poly_aftertouch_c, 0, 77, 24
1, 147628, Note_on_c, 0, 77, 0
1, 147628, Poly_aftertouch_c, 0, 77, 0
1, 147702, Poly_aftertouch_c, 0, 61, 24
1, 147764, Note_on_c, 0, 61, 0
1, 147764, Poly_aftertouch_c, 0, 61, 0
1, 147917, Note_on_c, 0, 75, 48
1, 147956, Note_on_c, 0, 60, 29
1, 148083, Note_on_c, 0, 75, 0
1, 148091, Note_on_c, 0, 60, 0
1, 148106, Note_on_c, 0, 73, 53
1, 148150, Note_on_c, 0, 70, 21
1, 148154, Note_on_c, 0, 65, 33
1, 148162, Note_on_c, 0, 58, 27
1, 148166, Note_on_c, 0, 61, 26
1, 148182, Control_c, 0, 64, 114
1, 148200, Control_c, 0, 64, 91
1, 148219, Control_c, 0, 64, 66
1, 148221, Control_c, 0, 67, 114
1, 148238, Control_c, 0, 64, 58
1, 148256, Control_c, 0, 64, 60
1, 148276, Control_c, 0, 64, 70
1, 148294, Control_c, 0, 64, 82
1, 148305, Note_on_c, 0, 65, 0
1, 148305, Poly_aftertouch_c, 0, 65, 0
1, 148312, Control_c, 0, 64, 95
1, 148314, Control_c, 0, 67, 109
1, 148332, Control_c, 0, 64, 110
1, 148333, Note_on_c, 0, 61, 0
1, 148333, Poly_aftertouch_c, 0, 61, 0
1, 148350, Control_c, 0, 64, 122
1, 148368, Control_c, 0, 64, 127
1, 148369, Control_c, 0, 67, 105
1, 148371, Note_on_c, 0, 58, 0
1, 148373, Note_on_c, 0, 73, 0
1, 148373, Poly_aftertouch_c, 0, 73, 0
1, 148391, Poly_aftertouch_c, 0, 70, 24
1, 148407, Control_c, 0, 67, 100
1, 148414, Note_on_c, 0, 70, 0
1, 148414, Poly_aftertouch_c, 0, 70, 0
1, 148469, Note_on_c, 0, 77, 73
1, 148481, Control_c, 0, 67, 95
1, 148515, Note_on_c, 0, 65, 31
1, 148517, Note_on_c, 0, 61, 38
1, 148517, Control_c, 0, 67, 90
1, 148539, Note_on_c, 0, 73, 42
1, 148544, Note_on_c, 0, 68, 25
1, 148555, Control_c, 0, 64, 122
1, 148574, Control_c, 0, 67, 84
1, 148606, Note_on_c, 0, 68, 0
1, 148606, Poly_aftertouch_c, 0, 68, 0
1, 148612, Control_c, 0, 64, 127
1, 148637, Note_on_c, 0, 61, 0
1, 148637, Poly_aftertouch_c, 0, 61, 0
1, 148655, Note_on_c, 0, 65, 0
1, 148655, Poly_aftertouch_c, 0, 65, 0
1, 148696, Note_on_c, 0, 73, 0
1, 148696, Poly_aftertouch_c, 0, 73, 0
1, 148797, Note_on_c, 0, 75, 66
1, 148821, Note_on_c, 0, 60, 50
1, 148876, Note_on_c, 0, 77, 0
1, 148876, Poly_aftertouch_c, 0, 77, 0
1, 148932, Note_on_c, 0, 73, 76
1, 148940, Note_on_c, 0, 60, 0
1, 148947, Note_on_c, 0, 58, 57
1, 148955, Note_on_c, 0, 75, 0
1, 148966, Control_c, 0, 64, 123
1, 148992, Note_on_c, 0, 58, 0
1, 149004, Control_c, 0, 64, 115
1, 149023, Control_c, 0, 64, 104
1, 149041, Control_c, 0, 64, 86
1, 149061, Control_c, 0, 64, 63
1, 149078, Control_c, 0, 64, 40
1, 149082, Note_on_c, 0, 72, 67
1, 149096, Control_c, 0, 64, 22
1, 149099, Note_on_c, 0, 65, 49
1, 149100, Note_on_c, 0, 68, 47
1, 149109, Note_on_c, 0, 56, 51
1, 149115, Control_c, 0, 64, 34
1, 149124, Note_on_c, 0, 60, 42
1, 149136, Control_c, 0, 64, 51
1, 149148, Note_on_c, 0, 68, 0
1, 149148, Poly_aftertouch_c, 0, 68, 0
1, 149153, Control_c, 0, 64, 70
1, 149154, Note_on_c, 0, 73, 0
1, 149154, Poly_aftertouch_c, 0, 73, 0
1, 149173, Control_c, 0, 64, 88
1, 149174, Note_on_c, 0, 72, 0
1, 149174, Poly_aftertouch_c, 0, 72, 0
1, 149178, Note_on_c, 0, 60, 0
1, 149185, Note_on_c, 0, 56, 0
1, 149193, Control_c, 0, 64, 107
1, 149194, Control_c, 0, 67, 80
1, 149197, Note_on_c, 0, 65, 0
1, 149197, Poly_aftertouch_c, 0, 65, 0
1, 149211, Control_c, 0, 64, 126
1, 149266, Control_c, 0, 67, 75
1, 149435, Control_c, 0, 64, 121
1, 149451, Note_on_c, 0, 77, 76
1, 149453, Control_c, 0, 64, 110
1, 149469, Note_on_c, 0, 73, 52
1, 149472, Control_c, 0, 64, 94
1, 149476, Note_on_c, 0, 68, 47
1, 149490, Control_c, 0, 64, 72
1, 149492, Note_on_c, 0, 65, 29
1, 149499, Note_on_c, 0, 61, 35
1, 149509, Control_c, 0, 64, 43
1, 149528, Control_c, 0, 64, 0
1, 149603, Control_c, 0, 64, 39
1, 149621, Control_c, 0, 64, 67
1, 149640, Control_c, 0, 64, 86
1, 149660, Control_c, 0, 64, 101
1, 149678, Control_c, 0, 64, 114
1, 149696, Note_on_c, 0, 73, 0
1, 149696, Poly_aftertouch_c, 0, 73, 0
1, 149696, Control_c, 0, 64, 122
1, 149716, Control_c, 0, 64, 127
1, 149724, Note_on_c, 0, 65, 0
1, 149724, Poly_aftertouch_c, 0, 65, 0
1, 149734, Note_on_c, 0, 68, 0
1, 149734, Poly_aftertouch_c, 0, 68, 0
1, 149781, Note_on_c, 0, 61, 0
1, 149781, Poly_aftertouch_c, 0, 61, 0
1, 149865, Control_c, 0, 67, 80
1, 149902, Control_c, 0, 67, 86
1, 149920, Control_c, 0, 67, 90
1, 149958, Control_c, 0, 67, 97
1, 149977, Control_c, 0, 67, 101
1, 149985, Note_on_c, 0, 77, 0
1, 149985, Poly_aftertouch_c, 0, 77, 0
1, 150015, Control_c, 0, 67, 106
1, 150052, Control_c, 0, 67, 111
1, 150134, Note_on_c, 0, 80, 66
1, 150156, Note_on_c, 0, 60, 35
1, 150164, Control_c, 0, 67, 117
1, 150165, Note_on_c, 0, 66, 41
1, 150178, Note_on_c, 0, 75, 43
1, 150200, Note_on_c, 0, 70, 14
1, 150205, Note_on_c, 0, 60, 0
1, 150220, Control_c, 0, 67, 121
1, 150239, Note_on_c, 0, 66, 0
1, 150239, Poly_aftertouch_c, 0, 66, 0
1, 150264, Note_on_c, 0, 70, 0
1, 150264, Poly_aftertouch_c, 0, 70, 0
1, 150276, Control_c, 0, 67, 125
1, 150303, Note_on_c, 0, 75, 0
1, 150369, Control_c, 0, 64, 122
1, 150388, Control_c, 0, 64, 117
1, 150406, Control_c, 0, 64, 108
1, 150426, Control_c, 0, 64, 97
1, 150429, Note_on_c, 0, 80, 0
1, 150429, Poly_aftertouch_c, 0, 80, 0
1, 150442, Note_on_c, 0, 77, 59
1, 150443, Control_c, 0, 64, 83
1, 150460, Note_on_c, 0, 73, 30
1, 150462, Control_c, 0, 64, 72
1, 150480, Control_c, 0, 64, 66
1, 150489, Note_on_c, 0, 61, 11
1, 150493, Note_on_c, 0, 65, 19
1, 150499, Control_c, 0, 64, 57
1, 150519, Control_c, 0, 64, 18
1, 150538, Control_c, 0, 64, 0
1, 150542, Poly_aftertouch_c, 0, 68, 127
1, 150594, Control_c, 0, 64, 34
1, 150613, Control_c, 0, 64, 54
1, 150630, Control_c, 0, 64, 69
1, 150650, Control_c, 0, 64, 80
1, 150663, Note_on_c, 0, 77, 0
1, 150663, Poly_aftertouch_c, 0, 77, 0
1, 150670, Control_c, 0, 64, 85
1, 150687, Control_c, 0, 64, 90
1, 150706, Control_c, 0, 64, 96
1, 150713, Note_on_c, 0, 61, 0
1, 150713, Poly_aftertouch_c, 0, 61, 0
1, 150719, Note_on_c, 0, 73, 0
1, 150719, Poly_aftertouch_c, 0, 73, 0
1, 150725, Control_c, 0, 64, 102
1, 150741, Poly_aftertouch_c, 0, 65, 24
1, 150743, Control_c, 0, 64, 106
1, 150763, Poly_aftertouch_c, 0, 68, 0
1, 150782, Note_on_c, 0, 65, 0
1, 150782, Poly_aftertouch_c, 0, 65, 0
1, 150783, Poly_aftertouch_c, 0, 65, 0
1, 150800, Control_c, 0, 64, 110
1, 150837, Control_c, 0, 64, 114
1, 150894, Control_c, 0, 64, 119
1, 151117, Note_on_c, 0, 77, 47
1, 151131, Note_on_c, 0, 61, 32
1, 151132, Note_on_c, 0, 73, 37
1, 151144, Note_on_c, 0, 68, 23
1, 151152, Note_on_c, 0, 65, 29
1, 151248, Control_c, 0, 64, 112
1, 151266, Control_c, 0, 64, 104
1, 151286, Control_c, 0, 64, 92
1, 151304, Control_c, 0, 64, 75
1, 151323, Control_c, 0, 64, 57
1, 151342, Control_c, 0, 64, 33
1, 151360, Control_c, 0, 64, 25
1, 151379, Control_c, 0, 64, 33
1, 151397, Control_c, 0, 64, 44
1, 151398, Control_c, 0, 67, 120
1, 151417, Control_c, 0, 64, 56
1, 151435, Control_c, 0, 64, 67
1, 151454, Control_c, 0, 64, 75
1, 151473, Control_c, 0, 64, 79
1, 151474, Control_c, 0, 67, 115
1, 151493, Control_c, 0, 64, 83
1, 151510, Control_c, 0, 64, 86
1, 151512, Control_c, 0, 67, 111
1, 151529, Control_c, 0, 64, 90
1, 151548, Control_c, 0, 64, 96
1, 151548, Control_c, 0, 67, 107
1, 151566, Control_c, 0, 64, 102
1, 151585, Control_c, 0, 64, 107
1, 151603, Control_c, 0, 64, 112
1, 151604, Control_c, 0, 67, 101
1, 151623, Control_c, 0, 64, 117
1, 151640, Control_c, 0, 64, 121
1, 151641, Control_c, 0, 67, 97
1, 151678, Control_c, 0, 64, 126
1, 151679, Control_c, 0, 67, 91
1, 151715, Control_c, 0, 67, 87
1, 151772, Control_c, 0, 67, 83
1, 151810, Control_c, 0, 67, 79
1, 151865, Control_c, 0, 67, 74
1, 151921, Control_c, 0, 67, 68
1, 151959, Control_c, 0, 67, 62
1, 151996, Control_c, 0, 67, 58
1, 152034, Control_c, 0, 67, 53
1, 152071, Control_c, 0, 67, 47
1, 152108, Control_c, 0, 67, 42
1, 152145, Control_c, 0, 67, 36
1, 152148, Poly_aftertouch_c, 0, 73, 24
1, 152182, Control_c, 0, 67, 29
1, 152213, Poly_aftertouch_c, 0, 61, 24
1, 152220, Control_c, 0, 67, 23
1, 152257, Control_c, 0, 67, 18
1, 152290, Note_on_c, 0, 73, 0
1, 152290, Poly_aftertouch_c, 0, 73, 0
1, 152292, Note_on_c, 0, 68, 0
1, 152292, Note_on_c, 0, 61, 0
1, 152292, Poly_aftertouch_c, 0, 61, 0
1, 152295, Control_c, 0, 67, 13
1, 152332, Control_c, 0, 67, 9
1, 152469, Poly_aftertouch_c, 0, 65, 24
1, 152556, Note_on_c, 0, 65, 0
1, 152556, Poly_aftertouch_c, 0, 65, 0
1, 152668, Control_c, 0, 67, 0
1, 153475, Note_on_c, 0, 75, 45
1, 153602, Note_on_c, 0, 77, 0
1, 153602, Poly_aftertouch_c, 0, 77, 0
1, 154102, Note_on_c, 0, 77, 53
1, 154141, Note_on_c, 0, 75, 0
1, 154216, Note_on_c, 0, 77, 0
1, 154216, Poly_aftertouch_c, 0, 77, 0
1, 154418, Note_on_c, 0, 80, 45
1, 154445, Note_on_c, 0, 78, 59
1, 154488, Note_on_c, 0, 80, 0
1, 154488, Poly_aftertouch_c, 0, 80, 0
1, 154719, Note_on_c, 0, 77, 69
1, 154755, Note_on_c, 0, 78, 0
1, 154894, Control_c, 0, 64, 101
1, 154914, Control_c, 0, 64, 70
1, 154931, Control_c, 0, 64, 57
1, 154950, Control_c, 0, 64, 67
1, 154969, Control_c, 0, 64, 80
1, 154988, Control_c, 0, 64, 90
1, 155007, Control_c, 0, 64, 103
1, 155025, Control_c, 0, 64, 118
1, 155044, Control_c, 0, 64, 127
1, 155263, Note_on_c, 0, 80, 72
1, 155304, Note_on_c, 0, 77, 0
1, 155304, Poly_aftertouch_c, 0, 77, 0
1, 155731, Note_on_c, 0, 37, 50
1, 155758, Note_on_c, 0, 44, 37
1, 155789, Note_on_c, 0, 37, 0
1, 155807, Note_on_c, 0, 44, 0
1, 155807, Poly_aftertouch_c, 0, 44, 0
1, 155813, Note_on_c, 0, 80, 0
1, 155813, Poly_aftertouch_c, 0, 80, 0
1, 155832, Note_on_c, 0, 85, 77
1, 155851, Note_on_c, 0, 75, 53
1, 155862, Note_on_c, 0, 73, 50
1, 155881, Note_on_c, 0, 75, 0
1, 155913, Note_on_c, 0, 73, 0
1, 155913, Poly_aftertouch_c, 0, 73, 0
1, 156056, Note_on_c, 0, 73, 39
1, 156056, Note_on_c, 0, 77, 51
1, 156076, Note_on_c, 0, 56, 44
1, 156098, Note_on_c, 0, 73, 0
1, 156098, Poly_aftertouch_c, 0, 73, 0
1, 156151, Note_on_c, 0, 77, 0
1, 156151, Poly_aftertouch_c, 0, 77, 0
1, 156154, Note_on_c, 0, 63, 47
1, 156211, Note_on_c, 0, 63, 0
1, 156251, Note_on_c, 0, 64, 41
1, 156293, Note_on_c, 0, 64, 0
1, 156491, Poly_aftertouch_c, 0, 56, 24
1, 156509, Note_on_c, 0, 65, 36
1, 156514, Note_on_c, 0, 77, 51
1, 156519, Note_on_c, 0, 73, 42
1, 156527, Note_on_c, 0, 61, 48
1, 156554, Note_on_c, 0, 65, 0
1, 156554, Note_on_c, 0, 56, 0
1, 156554, Poly_aftertouch_c, 0, 56, 0
1, 156554, Poly_aftertouch_c, 0, 65, 0
1, 156568, Note_on_c, 0, 61, 0
1, 156568, Poly_aftertouch_c, 0, 61, 0
1, 156573, Note_on_c, 0, 77, 0
1, 156573, Poly_aftertouch_c, 0, 77, 0
1, 156597, Note_on_c, 0, 73, 0
1, 156597, Poly_aftertouch_c, 0, 73, 0
1, 156601, Note_on_c, 0, 85, 0
1, 156908, Note_on_c, 0, 37, 51
1, 156922, Note_on_c, 0, 44, 52
1, 156951, Note_on_c, 0, 37, 0
1, 156964, Note_on_c, 0, 44, 0
1, 156964, Poly_aftertouch_c, 0, 44, 0
1, 156984, Note_on_c, 0, 84, 85
1, 157002, Note_on_c, 0, 75, 54
1, 157021, Note_on_c, 0, 72, 34
1, 157029, Note_on_c, 0, 75, 0
1, 157062, Note_on_c, 0, 72, 0
1, 157062, Poly_aftertouch_c, 0, 72, 0
1, 157204, Note_on_c, 0, 73, 63
1, 157226, Note_on_c, 0, 77, 50
1, 157240, Note_on_c, 0, 55, 9
1, 157241, Note_on_c, 0, 73, 0
1, 157241, Poly_aftertouch_c, 0, 73, 0
1, 157278, Note_on_c, 0, 77, 0
1, 157278, Poly_aftertouch_c, 0, 77, 0
1, 157287, Note_on_c, 0, 61, 51
1, 157320, Note_on_c, 0, 55, 0
1, 157320, Poly_aftertouch_c, 0, 55, 0
1, 157343, Note_on_c, 0, 61, 0
1, 157343, Poly_aftertouch_c, 0, 61, 0
1, 157359, Note_on_c, 0, 63, 52
1, 157425, Note_on_c, 0, 84, 0
1, 157425, Poly_aftertouch_c, 0, 84, 0
1, 157427, Note_on_c, 0, 63, 0
1, 157452, Note_on_c, 0, 65, 58
1, 157455, Note_on_c, 0, 77, 63
1, 157464, Note_on_c, 0, 73, 65
1, 157465, Note_on_c, 0, 60, 51
1, 157492, Note_on_c, 0, 65, 0
1, 157492, Poly_aftertouch_c, 0, 65, 0
1, 157493, Note_on_c, 0, 77, 0
1, 157493, Poly_aftertouch_c, 0, 77, 0
1, 157499, Note_on_c, 0, 73, 0
1, 157499, Poly_aftertouch_c, 0, 73, 0
1, 157501, Note_on_c, 0, 60, 0
1, 157792, Note_on_c, 0, 82, 81
1, 157792, Control_c, 0, 64, 120
1, 157810, Control_c, 0, 64, 81
1, 157811, Note_on_c, 0, 75, 61
1, 157812, Note_on_c, 0, 37, 51
1, 157829, Note_on_c, 0, 44, 56
1, 157830, Control_c, 0, 64, 32
1, 157844, Note_on_c, 0, 70, 27
1, 157848, Control_c, 0, 64, 0
1, 157861, Note_on_c, 0, 37, 0
1, 157867, Control_c, 0, 64, 12
1, 157871, Note_on_c, 0, 44, 0
1, 157871, Poly_aftertouch_c, 0, 44, 0
1, 157885, Control_c, 0, 64, 52
1, 157898, Note_on_c, 0, 75, 0
1, 157904, Control_c, 0, 64, 77
1, 157910, Poly_aftertouch_c, 0, 72, 0
1, 157925, Control_c, 0, 64, 101
1, 157943, Control_c, 0, 64, 127
1, 158006, Note_on_c, 0, 70, 0
1, 158006, Poly_aftertouch_c, 0, 70, 0
1, 158094, Note_on_c, 0, 54, 48
1, 158108, Note_on_c, 0, 77, 47
1, 158116, Note_on_c, 0, 73, 31
1, 158160, Note_on_c, 0, 82, 0
1, 158177, Note_on_c, 0, 60, 45
1, 158201, Note_on_c, 0, 73, 0
1, 158201, Poly_aftertouch_c, 0, 73, 0
1, 158236, Note_on_c, 0, 60, 0
1, 158246, Note_on_c, 0, 77, 0
1, 158246, Poly_aftertouch_c, 0, 77, 0
1, 158265, Note_on_c, 0, 63, 40
1, 158305, Note_on_c, 0, 63, 0
1, 158367, Note_on_c, 0, 54, 0
1, 158367, Poly_aftertouch_c, 0, 54, 0
1, 158442, Note_on_c, 0, 77, 59
1, 158464, Note_on_c, 0, 73, 42
1, 158466, Note_on_c, 0, 65, 49
1, 158499, Note_on_c, 0, 58, 34
1, 158502, Note_on_c, 0, 61, 31
1, 158504, Note_on_c, 0, 65, 0
1, 158504, Poly_aftertouch_c, 0, 65, 0
1, 158515, Note_on_c, 0, 73, 0
1, 158515, Poly_aftertouch_c, 0, 73, 0
1, 158543, Note_on_c, 0, 58, 0
1, 158554, Note_on_c, 0, 61, 0
1, 158554, Poly_aftertouch_c, 0, 61, 0
1, 158786, Note_on_c, 0, 77, 0
1, 158786, Poly_aftertouch_c, 0, 77, 0
1, 158803, Control_c, 0, 67, 8
1, 158952, Control_c, 0, 67, 12
1, 158981, Note_on_c, 0, 80, 70
1, 158989, Control_c, 0, 64, 112
1, 159005, Note_on_c, 0, 37, 40
1, 159009, Control_c, 0, 64, 77
1, 159011, Note_on_c, 0, 75, 49
1, 159011, Control_c, 0, 67, 16
1, 159016, Note_on_c, 0, 44, 35
1, 159021, Note_on_c, 0, 72, 32
1, 159025, Note_on_c, 0, 68, 24
1, 159026, Control_c, 0, 64, 0
1, 159065, Control_c, 0, 67, 26
1, 159083, Control_c, 0, 64, 25
1, 159084, Control_c, 0, 67, 32
1, 159101, Control_c, 0, 64, 58
1, 159120, Control_c, 0, 64, 76
1, 159140, Control_c, 0, 64, 87
1, 159151, Note_on_c, 0, 37, 0
1, 159157, Control_c, 0, 64, 102
1, 159158, Control_c, 0, 67, 37
1, 159177, Control_c, 0, 64, 116
1, 159186, Note_on_c, 0, 44, 0
1, 159186, Poly_aftertouch_c, 0, 44, 0
1, 159195, Control_c, 0, 64, 126
1, 159201, Note_on_c, 0, 72, 0
1, 159213, Control_c, 0, 67, 43
1, 159232, Control_c, 0, 67, 48
1, 159251, Control_c, 0, 67, 53
1, 159269, Control_c, 0, 67, 58
1, 159289, Control_c, 0, 67, 63
1, 159303, Note_on_c, 0, 75, 0
1, 159307, Control_c, 0, 67, 67
1, 159326, Control_c, 0, 67, 71
1, 159345, Control_c, 0, 67, 77
1, 159363, Control_c, 0, 67, 82
1, 159382, Control_c, 0, 67, 88
1, 159400, Control_c, 0, 67, 93
1, 159420, Control_c, 0, 67, 99
1, 159437, Control_c, 0, 67, 105
1, 159457, Control_c, 0, 67, 110
1, 159476, Control_c, 0, 67, 114
1, 159494, Control_c, 0, 67, 118
1, 159512, Control_c, 0, 67, 123
1, 159550, Control_c, 0, 67, 127
1, 159596, Note_on_c, 0, 53, 39
1, 159640, Note_on_c, 0, 77, 42
1, 159645, Note_on_c, 0, 73, 39
1, 159677, Note_on_c, 0, 68, 0
1, 159748, Note_on_c, 0, 73, 0
1, 159748, Poly_aftertouch_c, 0, 73, 0
1, 159787, Note_on_c, 0, 77, 0
1, 159787, Poly_aftertouch_c, 0, 77, 0
1, 159812, Note_on_c, 0, 58, 44
1, 159964, Note_on_c, 0, 58, 0
1, 160042, Note_on_c, 0, 63, 38
1, 160086, Note_on_c, 0, 63, 0
1, 160384, Poly_aftertouch_c, 0, 53, 24
1, 160638, Note_on_c, 0, 73, 36
1, 160644, Note_on_c, 0, 77, 39
1, 160644, Poly_aftertouch_c, 0, 53, 22
1, 160649, Note_on_c, 0, 68, 32
1, 160672, Note_on_c, 0, 61, 18
1, 160678, Note_on_c, 0, 56, 24
1, 160689, Note_on_c, 0, 65, 21
1, 160709, Control_c, 0, 64, 117
1, 160729, Control_c, 0, 64, 103
1, 160748, Control_c, 0, 64, 82
1, 160766, Control_c, 0, 64, 59
1, 160784, Control_c, 0, 64, 33
1, 160798, Note_on_c, 0, 53, 0
1, 160798, Poly_aftertouch_c, 0, 53, 0
1, 160801, Control_c, 0, 64, 0
1, 160840, Control_c, 0, 64, 23
1, 160858, Control_c, 0, 64, 37
1, 160878, Control_c, 0, 64, 50
1, 160897, Control_c, 0, 64, 63
1, 160915, Control_c, 0, 64, 73
1, 160934, Control_c, 0, 64, 79
1, 160953, Control_c, 0, 64, 83
1, 160971, Control_c, 0, 64, 88
1, 160990, Control_c, 0, 64, 93
1, 161009, Control_c, 0, 64, 98
1, 161027, Control_c, 0, 64, 104
1, 161046, Control_c, 0, 64, 108
1, 161064, Control_c, 0, 64, 113
1, 161102, Control_c, 0, 64, 118
1, 161129, Note_on_c, 0, 68, 0
1, 161159, Control_c, 0, 64, 123
1, 161215, Control_c, 0, 64, 127
1, 161237, Poly_aftertouch_c, 0, 77, 24
1, 161289, Control_c, 0, 67, 122
1, 161346, Control_c, 0, 67, 117
1, 161380, Note_on_c, 0, 73, 0
1, 161380, Poly_aftertouch_c, 0, 73, 0
1, 161383, Control_c, 0, 67, 110
1, 161392, Note_on_c, 0, 77, 0
1, 161392, Poly_aftertouch_c, 0, 77, 0
1, 161401, Control_c, 0, 67, 106
1, 161439, Control_c, 0, 67, 99
1, 161476, Control_c, 0, 67, 92
1, 161495, Poly_aftertouch_c, 0, 65, 24
1, 161513, Control_c, 0, 67, 85
1, 161552, Control_c, 0, 67, 79
1, 161588, Control_c, 0, 67, 75
1, 161590, Note_on_c, 0, 65, 0
1, 161590, Poly_aftertouch_c, 0, 65, 0
1, 161626, Control_c, 0, 67, 71
1, 161663, Control_c, 0, 67, 66
1, 161674, Poly_aftertouch_c, 0, 61, 24
1, 161694, Poly_aftertouch_c, 0, 56, 24
1, 161701, Control_c, 0, 67, 61
1, 161737, Control_c, 0, 67, 56
1, 161760, Note_on_c, 0, 61, 0
1, 161760, Note_on_c, 0, 56, 0
1, 161760, Poly_aftertouch_c, 0, 56, 0
1, 161760, Poly_aftertouch_c, 0, 61, 0
1, 161775, Control_c, 0, 67, 49
1, 161793, Control_c, 0, 67, 45
1, 161831, Control_c, 0, 67, 37
1, 161850, Control_c, 0, 67, 33
1, 161869, Control_c, 0, 67, 29
1, 161906, Control_c, 0, 67, 23
1, 161926, Control_c, 0, 67, 19
1, 161962, Control_c, 0, 67, 12
1, 162019, Control_c, 0, 67, 8
1, 162392, Control_c, 0, 67, 0
1, 162642, Note_on_c, 0, 78, 51
1, 162746, Note_on_c, 0, 78, 0
1, 162752, Note_on_c, 0, 80, 0
1, 162752, Poly_aftertouch_c, 0, 80, 0
1, 162896, Note_on_c, 0, 77, 47
1, 162934, Note_on_c, 0, 78, 47
1, 162977, Note_on_c, 0, 78, 0
1, 162990, Note_on_c, 0, 77, 0
1, 162990, Note_on_c, 0, 77, 46
1, 163047, Control_c, 0, 64, 122
1, 163065, Control_c, 0, 64, 116
1, 163084, Control_c, 0, 64, 97
1, 163104, Control_c, 0, 64, 69
1, 163122, Control_c, 0, 64, 54
1, 163159, Control_c, 0, 64, 61
1, 163178, Control_c, 0, 64, 69
1, 163196, Control_c, 0, 64, 75
1, 163215, Control_c, 0, 64, 80
1, 163234, Control_c, 0, 64, 85
1, 163252, Control_c, 0, 64, 89
1, 163271, Note_on_c, 0, 75, 70
1, 163290, Control_c, 0, 64, 94
1, 163328, Control_c, 0, 64, 100
1, 163345, Control_c, 0, 64, 104
1, 163365, Control_c, 0, 64, 110
1, 163384, Control_c, 0, 64, 117
1, 163402, Control_c, 0, 64, 125
1, 163489, Note_on_c, 0, 77, 0
1, 163489, Poly_aftertouch_c, 0, 77, 0
1, 163575, Note_on_c, 0, 73, 78
1, 163602, Note_on_c, 0, 75, 0
1, 163623, Note_on_c, 0, 73, 0
1, 163623, Poly_aftertouch_c, 0, 73, 0
1, 163952, Note_on_c, 0, 58, 32
1, 163960, Note_on_c, 0, 54, 33
1, 164058, Note_on_c, 0, 70, 63
1, 164079, Note_on_c, 0, 65, 36
1, 164187, Control_c, 0, 64, 116
1, 164206, Control_c, 0, 64, 92
1, 164225, Control_c, 0, 64, 61
1, 164243, Control_c, 0, 64, 15
1, 164262, Control_c, 0, 64, 0
1, 164280, Control_c, 0, 64, 32
1, 164300, Control_c, 0, 64, 53
1, 164318, Control_c, 0, 64, 70
1, 164337, Control_c, 0, 64, 82
1, 164356, Control_c, 0, 64, 93
1, 164374, Control_c, 0, 64, 107
1, 164393, Control_c, 0, 64, 120
1, 164411, Control_c, 0, 64, 126
1, 164526, Note_on_c, 0, 58, 0
1, 164552, Note_on_c, 0, 65, 0
1, 164552, Poly_aftertouch_c, 0, 65, 0
1, 164762, Note_on_c, 0, 54, 0
1, 164762, Poly_aftertouch_c, 0, 54, 0
1, 164897, Note_on_c, 0, 57, 36
1, 164985, Note_on_c, 0, 72, 53
1, 164988, Note_on_c, 0, 70, 0
1, 164988, Poly_aftertouch_c, 0, 70, 0
1, 164997, Note_on_c, 0, 64, 35
1, 165054, Note_on_c, 0, 64, 0
1, 165180, Note_on_c, 0, 57, 0
1, 165180, Poly_aftertouch_c, 0, 57, 0
1, 165310, Note_on_c, 0, 72, 0
1, 165310, Control_c, 0, 64, 118
1, 165329, Control_c, 0, 64, 108
1, 165337, Note_on_c, 0, 68, 50
1, 165346, Control_c, 0, 64, 97
1, 165357, Note_on_c, 0, 49, 27
1, 165358, Note_on_c, 0, 65, 37
1, 165364, Control_c, 0, 64, 86
1, 165370, Note_on_c, 0, 56, 22
1, 165385, Control_c, 0, 64, 77
1, 165402, Control_c, 0, 64, 68
1, 165422, Control_c, 0, 64, 55
1, 165440, Control_c, 0, 64, 0
1, 165535, Control_c, 0, 64, 33
1, 165552, Control_c, 0, 64, 59
1, 165572, Control_c, 0, 64, 88
1, 165590, Control_c, 0, 64, 117
1, 165608, Control_c, 0, 64, 127
1, 165871, Poly_aftertouch_c, 0, 49, 24
1, 165911, Note_on_c, 0, 49, 0
1, 165911, Poly_aftertouch_c, 0, 49, 0
1, 166012, Note_on_c, 0, 56, 0
1, 166012, Poly_aftertouch_c, 0, 56, 0
1, 166031, Note_on_c, 0, 73, 67
1, 166272, Note_on_c, 0, 65, 0
1, 166272, Poly_aftertouch_c, 0, 65, 0
1, 166309, Note_on_c, 0, 68, 0
1, 167018, Note_on_c, 0, 72, 57
1, 167145, Note_on_c, 0, 73, 0
1, 167145, Poly_aftertouch_c, 0, 73, 0
1, 167170, Note_on_c, 0, 72, 0
1, 167230, Note_on_c, 0, 70, 51
1, 167287, Note_on_c, 0, 70, 0
1, 167287, Poly_aftertouch_c, 0, 70, 0
1, 167290, Control_c, 0, 67, 8
1, 167323, Note_on_c, 0, 72, 55
1, 167409, Note_on_c, 0, 70, 63
1, 167420, Note_on_c, 0, 72, 0
1, 167453, Note_on_c, 0, 58, 34
1, 167459, Note_on_c, 0, 54, 31
1, 167461, Control_c, 0, 67, 12
1, 167465, Note_on_c, 0, 63, 36
1, 167497, Control_c, 0, 64, 116
1, 167516, Control_c, 0, 64, 103
1, 167535, Control_c, 0, 64, 82
1, 167554, Control_c, 0, 64, 56
1, 167557, Control_c, 0, 67, 16
1, 167571, Control_c, 0, 64, 42
1, 167591, Control_c, 0, 64, 49
1, 167609, Control_c, 0, 64, 63
1, 167628, Control_c, 0, 64, 77
1, 167648, Control_c, 0, 64, 90
1, 167666, Control_c, 0, 64, 107
1, 167684, Control_c, 0, 64, 123
1, 167702, Control_c, 0, 64, 127
1, 167846, Note_on_c, 0, 68, 65
1, 167912, Note_on_c, 0, 63, 0
1, 167918, Note_on_c, 0, 70, 0
1, 167918, Poly_aftertouch_c, 0, 70, 0
1, 167983, Control_c, 0, 67, 20
1, 168058, Control_c, 0, 67, 25
1, 168085, Note_on_c, 0, 53, 41
1, 168114, Control_c, 0, 67, 31
1, 168116, Note_on_c, 0, 54, 0
1, 168116, Poly_aftertouch_c, 0, 54, 0
1, 168132, Control_c, 0, 67, 35
1, 168140, Note_on_c, 0, 66, 65
1, 168152, Control_c, 0, 64, 120
1, 168154, Control_c, 0, 67, 40
1, 168166, Note_on_c, 0, 61, 44
1, 168168, Control_c, 0, 64, 106
1, 168171, Control_c, 0, 67, 45
1, 168190, Control_c, 0, 64, 78
1, 168193, Control_c, 0, 67, 49
1, 168208, Control_c, 0, 64, 41
1, 168219, Note_on_c, 0, 68, 0
1, 168225, Control_c, 0, 64, 0
1, 168245, Control_c, 0, 64, 27
1, 168264, Control_c, 0, 64, 49
1, 168283, Control_c, 0, 64, 70
1, 168301, Control_c, 0, 64, 83
1, 168320, Control_c, 0, 64, 94
1, 168339, Control_c, 0, 64, 101
1, 168345, Note_on_c, 0, 61, 0
1, 168345, Poly_aftertouch_c, 0, 61, 0
1, 168359, Poly_aftertouch_c, 0, 58, 24
1, 168382, Poly_aftertouch_c, 0, 53, 20
1, 168428, Note_on_c, 0, 53, 0
1, 168428, Poly_aftertouch_c, 0, 53, 0
1, 168469, Control_c, 0, 67, 53
1, 168480, Note_on_c, 0, 51, 32
1, 168484, Note_on_c, 0, 60, 40
1, 168487, Control_c, 0, 64, 94
1, 168507, Control_c, 0, 64, 84
1, 168526, Control_c, 0, 64, 63
1, 168546, Control_c, 0, 64, 16
1, 168563, Control_c, 0, 64, 0
1, 168564, Control_c, 0, 67, 57
1, 168600, Control_c, 0, 67, 62
1, 168607, Poly_aftertouch_c, 0, 58, 32
1, 168638, Control_c, 0, 64, 45
1, 168657, Control_c, 0, 64, 71
1, 168658, Control_c, 0, 67, 66
1, 168676, Control_c, 0, 64, 85
1, 168693, Control_c, 0, 64, 94
1, 168713, Control_c, 0, 64, 98
1, 168768, Control_c, 0, 64, 102
1, 168824, Note_on_c, 0, 66, 0
1, 168824, Poly_aftertouch_c, 0, 66, 0
1, 168841, Note_on_c, 0, 68, 52
1, 168868, Poly_aftertouch_c, 0, 58, 24
1, 168882, Control_c, 0, 64, 94
1, 168899, Control_c, 0, 64, 77
1, 168901, Control_c, 0, 67, 72
1, 168918, Control_c, 0, 64, 42
1, 168937, Control_c, 0, 64, 0
1, 168938, Control_c, 0, 67, 79
1, 168975, Control_c, 0, 67, 83
1, 169011, Control_c, 0, 64, 44
1, 169031, Control_c, 0, 64, 72
1, 169049, Control_c, 0, 64, 85
1, 169068, Control_c, 0, 64, 94
1, 169087, Control_c, 0, 64, 98
1, 169124, Control_c, 0, 64, 103
1, 169189, Note_on_c, 0, 69, 50
1, 169206, Note_on_c, 0, 68, 0
1, 169218, Control_c, 0, 64, 91
1, 169236, Control_c, 0, 64, 66
1, 169238, Control_c, 0, 67, 88
1, 169254, Control_c, 0, 64, 0
1, 169268, Poly_aftertouch_c, 0, 58, 22
1, 169272, Control_c, 0, 67, 93
1, 169292, Control_c, 0, 64, 29
1, 169301, Note_on_c, 0, 58, 0
1, 169301, Poly_aftertouch_c, 0, 58, 0
1, 169302, Poly_aftertouch_c, 0, 58, 0
1, 169310, Control_c, 0, 64, 59
1, 169330, Control_c, 0, 64, 79
1, 169343, Note_on_c, 0, 60, 0
1, 169349, Control_c, 0, 64, 93
1, 169366, Control_c, 0, 64, 106
1, 169386, Control_c, 0, 64, 113
1, 169442, Control_c, 0, 64, 117
1, 169480, Control_c, 0, 64, 121
1, 169505, Poly_aftertouch_c, 0, 51, 24
1, 169542, Note_on_c, 0, 51, 0
1, 169542, Poly_aftertouch_c, 0, 51, 0
1, 169749, Poly_aftertouch_c, 0, 69, 24
1, 169751, Note_on_c, 0, 65, 38
1, 169768, Note_on_c, 0, 61, 29
1, 169789, Note_on_c, 0, 53, 22
1, 169791, Note_on_c, 0, 46, 21
1, 169817, Control_c, 0, 64, 116
1, 169834, Control_c, 0, 64, 112
1, 169842, Note_on_c, 0, 69, 0
1, 169842, Poly_aftertouch_c, 0, 69, 0
1, 169853, Control_c, 0, 64, 101
1, 169874, Control_c, 0, 64, 80
1, 169876, Control_c, 0, 67, 97
1, 169891, Control_c, 0, 64, 50
1, 169909, Control_c, 0, 64, 0
1, 169910, Control_c, 0, 67, 103
1, 169947, Control_c, 0, 67, 108
1, 169965, Control_c, 0, 64, 14
1, 169984, Control_c, 0, 64, 42
1, 170002, Control_c, 0, 64, 65
1, 170022, Control_c, 0, 64, 80
1, 170033, Poly_aftertouch_c, 0, 53, 24
1, 170040, Control_c, 0, 64, 88
1, 170059, Control_c, 0, 64, 96
1, 170078, Control_c, 0, 64, 102
1, 170096, Control_c, 0, 64, 108
1, 170115, Control_c, 0, 64, 113
1, 170135, Control_c, 0, 64, 118
1, 170153, Control_c, 0, 64, 123
1, 170156, Note_on_c, 0, 61, 0
1, 170156, Poly_aftertouch_c, 0, 61, 0
1, 170170, Control_c, 0, 64, 127
1, 170244, Note_on_c, 0, 53, 0
1, 170244, Poly_aftertouch_c, 0, 53, 0
1, 170255, Poly_aftertouch_c, 0, 46, 20
1, 170260, Note_on_c, 0, 46, 0
1, 170260, Poly_aftertouch_c, 0, 46, 0
1, 170263, Note_on_c, 0, 65, 0
1, 170263, Poly_aftertouch_c, 0, 65, 0
1, 170720, Note_on_c, 0, 77, 61
1, 170755, Note_on_c, 0, 68, 31
1, 170804, Note_on_c, 0, 68, 0
1, 170840, Note_on_c, 0, 77, 0
1, 170840, Note_on_c, 0, 77, 10
1, 170949, Note_on_c, 0, 77, 0
1, 170949, Poly_aftertouch_c, 0, 77, 0
1, 170953, Note_on_c, 0, 75, 56
1, 170978, Note_on_c, 0, 66, 26
1, 170989, Note_on_c, 0, 60, 24
1, 170991, Note_on_c, 0, 69, 29
1, 171004, Note_on_c, 0, 63, 32
1, 171032, Control_c, 0, 64, 123
1, 171049, Control_c, 0, 64, 103
1, 171069, Control_c, 0, 64, 73
1, 171087, Control_c, 0, 64, 38
1, 171106, Control_c, 0, 64, 0
1, 171124, Control_c, 0, 67, 117
1, 171144, Control_c, 0, 67, 121
1, 171163, Control_c, 0, 64, 30
1, 171164, Control_c, 0, 67, 125
1, 171180, Control_c, 0, 64, 54
1, 171201, Control_c, 0, 64, 78
1, 171219, Control_c, 0, 64, 95
1, 171231, Poly_aftertouch_c, 0, 60, 24
1, 171236, Control_c, 0, 64, 114
1, 171256, Control_c, 0, 64, 126
1, 171309, Note_on_c, 0, 69, 0
1, 171309, Poly_aftertouch_c, 0, 69, 0
1, 171330, Note_on_c, 0, 75, 0
1, 171413, Note_on_c, 0, 66, 0
1, 171413, Poly_aftertouch_c, 0, 66, 0
1, 171422, Note_on_c, 0, 60, 0
1, 171422, Poly_aftertouch_c, 0, 60, 0
1, 171582, Note_on_c, 0, 63, 0
1, 172865, Note_on_c, 0, 65, 26
1, 172891, Note_on_c, 0, 61, 22
1, 172910, Note_on_c, 0, 46, 26
1, 172931, Note_on_c, 0, 53, 22
1, 173051, Control_c, 0, 64, 122
1, 173070, Control_c, 0, 64, 114
1, 173088, Control_c, 0, 64, 102
1, 173106, Control_c, 0, 64, 90
1, 173125, Control_c, 0, 64, 79
1, 173144, Control_c, 0, 64, 66
1, 173163, Control_c, 0, 64, 52
1, 173182, Control_c, 0, 64, 23
1, 173199, Control_c, 0, 64, 0
1, 173256, Control_c, 0, 64, 20
1, 173276, Control_c, 0, 64, 33
1, 173294, Control_c, 0, 64, 46
1, 173313, Control_c, 0, 64, 58
1, 173331, Control_c, 0, 64, 65
1, 173349, Control_c, 0, 64, 70
1, 173369, Control_c, 0, 64, 73
1, 173387, Control_c, 0, 64, 76
1, 173406, Control_c, 0, 64, 78
1, 173424, Control_c, 0, 64, 81
1, 173444, Control_c, 0, 64, 84
1, 173462, Control_c, 0, 64, 86
1, 173500, Control_c, 0, 64, 94
1, 173518, Control_c, 0, 64, 98
1, 173537, Control_c, 0, 64, 102
1, 173555, Control_c, 0, 64, 106
1, 173575, Control_c, 0, 64, 110
1, 173612, Control_c, 0, 64, 116
1, 173668, Control_c, 0, 64, 121
1, 173755, Note_on_c, 0, 46, 0
1, 173755, Poly_aftertouch_c, 0, 46, 0
1, 173761, Control_c, 0, 64, 125
1, 173780, Control_c, 0, 67, 120
1, 173809, Poly_aftertouch_c, 0, 61, 24
1, 173855, Control_c, 0, 67, 116
1, 173878, Note_on_c, 0, 65, 0
1, 173878, Poly_aftertouch_c, 0, 65, 0
1, 173885, Note_on_c, 0, 61, 0
1, 173885, Poly_aftertouch_c, 0, 61, 0
1, 173891, Control_c, 0, 67, 112
1, 173929, Control_c, 0, 67, 107
1, 173967, Control_c, 0, 67, 102
1, 174024, Control_c, 0, 67, 97
1, 174060, Control_c, 0, 67, 92
1, 174098, Control_c, 0, 67, 86
1, 174136, Control_c, 0, 67, 80
1, 174173, Control_c, 0, 67, 73
1, 174209, Control_c, 0, 67, 67
1, 174247, Control_c, 0, 67, 60
1, 174284, Control_c, 0, 67, 53
1, 174322, Control_c, 0, 67, 46
1, 174359, Control_c, 0, 67, 39
1, 174396, Control_c, 0, 67, 33
1, 174434, Control_c, 0, 67, 27
1, 174471, Control_c, 0, 67, 21
1, 174487, Note_on_c, 0, 53, 0
1, 174487, Poly_aftertouch_c, 0, 53, 0
1, 174510, Control_c, 0, 67, 16
1, 174545, Control_c, 0, 67, 11
1, 174633, Note_on_c, 0, 65, 56
1, 174977, Control_c, 0, 67, 0
1, 175068, Note_on_c, 0, 64, 63
1, 175161, Note_on_c, 0, 65, 0
1, 175161, Poly_aftertouch_c, 0, 65, 0
1, 175311, Note_on_c, 0, 63, 74
1, 175318, Note_on_c, 0, 64, 0
1, 175424, Note_on_c, 0, 63, 0
1, 175541, Note_on_c, 0, 73, 75
1, 175561, Note_on_c, 0, 61, 51
1, 175614, Control_c, 0, 64, 117
1, 175631, Control_c, 0, 64, 92
1, 175651, Control_c, 0, 64, 59
1, 175669, Control_c, 0, 64, 0
1, 175686, Control_c, 0, 64, 15
1, 175705, Control_c, 0, 64, 40
1, 175725, Control_c, 0, 64, 65
1, 175742, Control_c, 0, 64, 84
1, 175744, Note_on_c, 0, 58, 54
1, 175762, Control_c, 0, 64, 102
1, 175781, Control_c, 0, 64, 124
1, 175805, Note_on_c, 0, 61, 0
1, 175805, Poly_aftertouch_c, 0, 61, 0
1, 175866, Note_on_c, 0, 58, 0
1, 175867, Poly_aftertouch_c, 0, 58, 0
1, 176089, Note_on_c, 0, 49, 38
1, 176106, Note_on_c, 0, 73, 0
1, 176106, Poly_aftertouch_c, 0, 73, 0
1, 176211, Note_on_c, 0, 63, 62
1, 176247, Note_on_c, 0, 58, 45
1, 176268, Control_c, 0, 64, 116
1, 176286, Control_c, 0, 64, 95
1, 176304, Control_c, 0, 64, 67
1, 176323, Control_c, 0, 64, 31
1, 176342, Control_c, 0, 64, 0
1, 176379, Control_c, 0, 64, 39
1, 176399, Control_c, 0, 64, 73
1, 176416, Control_c, 0, 64, 101
1, 176424, Poly_aftertouch_c, 0, 49, 24
1, 176434, Control_c, 0, 64, 127
1, 176494, Note_on_c, 0, 58, 0
1, 176506, Note_on_c, 0, 42, 40
1, 176532, Note_on_c, 0, 49, 0
1, 176532, Poly_aftertouch_c, 0, 49, 0
1, 176572, Note_on_c, 0, 63, 0
1, 176598, Note_on_c, 0, 42, 0
1, 176598, Poly_aftertouch_c, 0, 42, 0
1, 176640, Control_c, 0, 67, 8
1, 176678, Control_c, 0, 67, 13
1, 176697, Control_c, 0, 67, 18
1, 176716, Control_c, 0, 67, 26
1, 176735, Control_c, 0, 67, 37
1, 176752, Control_c, 0, 67, 46
1, 176772, Control_c, 0, 67, 53
1, 176790, Control_c, 0, 67, 61
1, 176810, Control_c, 0, 67, 68
1, 176829, Control_c, 0, 67, 74
1, 176846, Control_c, 0, 67, 79
1, 176865, Control_c, 0, 67, 83
1, 176883, Control_c, 0, 67, 88
1, 176902, Control_c, 0, 67, 93
1, 176921, Control_c, 0, 67, 98
1, 176940, Control_c, 0, 67, 102
1, 176958, Control_c, 0, 67, 107
1, 176996, Control_c, 0, 67, 113
1, 177033, Control_c, 0, 67, 118
1, 177071, Control_c, 0, 67, 123
1, 177161, Note_on_c, 0, 49, 32
1, 177277, Control_c, 0, 67, 127
1, 177342, Note_on_c, 0, 58, 38
1, 177353, Note_on_c, 0, 49, 0
1, 177353, Poly_aftertouch_c, 0, 49, 0
1, 177526, Note_on_c, 0, 63, 23
1, 177527, Note_on_c, 0, 58, 0
1, 177600, Note_on_c, 0, 63, 0
1, 177694, Note_on_c, 0, 70, 33
1, 177725, Control_c, 0, 67, 123
1, 177745, Note_on_c, 0, 70, 0
1, 177745, Poly_aftertouch_c, 0, 70, 0
1, 177892, Control_c, 0, 67, 118
1, 177968, Control_c, 0, 67, 114
1, 178006, Control_c, 0, 67, 110
1, 178043, Control_c, 0, 67, 103
1, 178081, Control_c, 0, 67, 99
1, 178213, Note_on_c, 0, 63, 32
1, 178229, Control_c, 0, 67, 92
1, 178268, Control_c, 0, 67, 86
1, 178305, Control_c, 0, 67, 79
1, 178323, Control_c, 0, 67, 75
1, 178343, Control_c, 0, 67, 71
1, 178354, Note_on_c, 0, 63, 0
1, 178360, Control_c, 0, 67, 66
1, 178379, Control_c, 0, 67, 61
1, 178400, Control_c, 0, 67, 56
1, 178417, Control_c, 0, 67, 50
1, 178436, Control_c, 0, 67, 45
1, 178454, Control_c, 0, 67, 40
1, 178492, Control_c, 0, 67, 33
1, 178508, Note_on_c, 0, 58, 41
1, 178529, Control_c, 0, 67, 28
1, 178557, Note_on_c, 0, 58, 0
1, 178629, Note_on_c, 0, 97, 76
1, 178841, Note_on_c, 0, 49, 38
1, 178846, Control_c, 0, 67, 33
1, 178903, Control_c, 0, 67, 37
1, 178906, Note_on_c, 0, 49, 0
1, 178906, Poly_aftertouch_c, 0, 49, 0
1, 178922, Control_c, 0, 67, 41
1, 178940, Control_c, 0, 67, 46
1, 178960, Control_c, 0, 67, 52
1, 178977, Control_c, 0, 67, 57
1, 178996, Control_c, 0, 67, 63
1, 179016, Control_c, 0, 67, 68
1, 179033, Control_c, 0, 67, 74
1, 179053, Control_c, 0, 67, 78
1, 179091, Control_c, 0, 67, 84
1, 179146, Control_c, 0, 67, 89
1, 179191, Note_on_c, 0, 42, 41
1, 179241, Note_on_c, 0, 42, 0
1, 179241, Poly_aftertouch_c, 0, 42, 0
1, 179466, Note_on_c, 0, 97, 0
1, 179555, Note_on_c, 0, 96, 68
1, 179684, Note_on_c, 0, 49, 42
1, 179853, Note_on_c, 0, 49, 0
1, 179853, Poly_aftertouch_c, 0, 49, 0
1, 179866, Note_on_c, 0, 87, 65
1, 179892, Note_on_c, 0, 58, 34
1, 179948, Note_on_c, 0, 58, 0
1, 179956, Note_on_c, 0, 96, 0
1, 180037, Note_on_c, 0, 63, 46
1, 180076, Note_on_c, 0, 63, 0
1, 180193, Note_on_c, 0, 95, 73
1, 180220, Note_on_c, 0, 70, 38
1, 180261, Note_on_c, 0, 70, 0
1, 180261, Poly_aftertouch_c, 0, 70, 0
1, 180274, Note_on_c, 0, 87, 0
1, 180470, Note_on_c, 0, 86, 61
1, 180521, Note_on_c, 0, 86, 0
1, 180619, Note_on_c, 0, 63, 48
1, 180685, Note_on_c, 0, 63, 0
1, 180770, Note_on_c, 0, 94, 65
1, 180783, Note_on_c, 0, 85, 48
1, 180829, Note_on_c, 0, 95, 0
1, 180840, Poly_aftertouch_c, 0, 58, 0
1, 180931, Note_on_c, 0, 49, 56
1, 180953, Note_on_c, 0, 94, 0
1, 180960, Note_on_c, 0, 85, 0
1, 180962, Note_on_c, 0, 49, 0
1, 180962, Poly_aftertouch_c, 0, 49, 0
1, 181081, Note_on_c, 0, 87, 66
1, 181097, Note_on_c, 0, 84, 47
1, 181109, Note_on_c, 0, 42, 44
1, 181154, Note_on_c, 0, 42, 0
1, 181154, Poly_aftertouch_c, 0, 42, 0
1, 181197, Note_on_c, 0, 84, 0
1, 181197, Poly_aftertouch_c, 0, 84, 0
1, 181370, Note_on_c, 0, 83, 66
1, 181398, Note_on_c, 0, 87, 0
1, 181502, Note_on_c, 0, 49, 51
1, 181563, Note_on_c, 0, 49, 0
1, 181563, Poly_aftertouch_c, 0, 49, 0
1, 181644, Note_on_c, 0, 86, 71
1, 181645, Note_on_c, 0, 83, 0
1, 181656, Note_on_c, 0, 58, 45
1, 181665, Note_on_c, 0, 82, 58
1, 181899, Note_on_c, 0, 58, 0
1, 181929, Note_on_c, 0, 85, 71
1, 181930, Note_on_c, 0, 86, 0
1, 181988, Control_c, 0, 67, 93
1, 182045, Control_c, 0, 67, 98
1, 182060, Note_on_c, 0, 63, 50
1, 182105, Note_on_c, 0, 63, 0
1, 182218, Note_on_c, 0, 84, 72
1, 182234, Note_on_c, 0, 75, 53
1, 182240, Note_on_c, 0, 70, 48
1, 182278, Note_on_c, 0, 70, 0
1, 182278, Poly_aftertouch_c, 0, 70, 0
1, 182279, Note_on_c, 0, 82, 0
1, 182295, Note_on_c, 0, 85, 0
1, 182365, Note_on_c, 0, 75, 0
1, 182381, Control_c, 0, 67, 102
1, 182388, Note_on_c, 0, 75, 20
1, 182389, Note_on_c, 0, 75, 0
1, 182487, Note_on_c, 0, 83, 73
1, 182505, Note_on_c, 0, 74, 49
1, 182538, Note_on_c, 0, 74, 0
1, 182538, Poly_aftertouch_c, 0, 74, 0
1, 182572, Note_on_c, 0, 84, 0
1, 182572, Poly_aftertouch_c, 0, 84, 0
1, 182643, Note_on_c, 0, 63, 40
1, 182683, Note_on_c, 0, 63, 0
1, 182760, Note_on_c, 0, 82, 74
1, 182772, Note_on_c, 0, 83, 0
1, 182780, Note_on_c, 0, 73, 52
1, 182797, Note_on_c, 0, 58, 43
1, 182819, Note_on_c, 0, 82, 0
1, 182843, Note_on_c, 0, 73, 0
1, 182843, Poly_aftertouch_c, 0, 73, 0
1, 182942, Control_c, 0, 67, 98
1, 183016, Control_c, 0, 67, 94
1, 183063, Note_on_c, 0, 75, 74
1, 183081, Note_on_c, 0, 72, 55
1, 183129, Control_c, 0, 67, 90
1, 183186, Note_on_c, 0, 72, 0
1, 183223, Control_c, 0, 67, 86
1, 183260, Control_c, 0, 67, 82
1, 183345, Note_on_c, 0, 71, 72
1, 183368, Note_on_c, 0, 75, 0
1, 183409, Control_c, 0, 67, 78
1, 183534, Poly_aftertouch_c, 0, 58, 24
1, 183539, Control_c, 0, 67, 74
1, 183564, Note_on_c, 0, 58, 0
1, 183564, Poly_aftertouch_c, 0, 58, 0
1, 183565, Poly_aftertouch_c, 0, 58, 0
1, 183606, Note_on_c, 0, 74, 75
1, 183633, Note_on_c, 0, 70, 52
1, 183653, Control_c, 0, 67, 70
1, 183672, Note_on_c, 0, 71, 0
1, 183672, Poly_aftertouch_c, 0, 71, 0
1, 183802, Control_c, 0, 67, 65
1, 183876, Note_on_c, 0, 73, 73
1, 183901, Note_on_c, 0, 63, 46
1, 183914, Note_on_c, 0, 74, 0
1, 183914, Poly_aftertouch_c, 0, 74, 0
1, 183915, Control_c, 0, 67, 61
1, 183917, Poly_aftertouch_c, 0, 70, 24
1, 183938, Note_on_c, 0, 70, 0
1, 183938, Poly_aftertouch_c, 0, 70, 0
1, 183939, Poly_aftertouch_c, 0, 70, 0
1, 183968, Note_on_c, 0, 63, 0
1, 184013, Note_on_c, 0, 58, 54
1, 184045, Control_c, 0, 67, 57
1, 184068, Note_on_c, 0, 58, 0
1, 184144, Note_on_c, 0, 73, 0
1, 184144, Poly_aftertouch_c, 0, 73, 0
1, 184154, Note_on_c, 0, 72, 75
1, 184178, Note_on_c, 0, 69, 53
1, 184195, Note_on_c, 0, 49, 44
1, 184195, Control_c, 0, 67, 53
1, 184363, Control_c, 0, 67, 49
1, 184440, Note_on_c, 0, 63, 72
1, 184442, Note_on_c, 0, 69, 0
1, 184442, Poly_aftertouch_c, 0, 69, 0
1, 184443, Poly_aftertouch_c, 0, 69, 0
1, 184542, Note_on_c, 0, 72, 0
1, 184618, Note_on_c, 0, 63, 0
1, 184696, Note_on_c, 0, 49, 0
1, 184696, Poly_aftertouch_c, 0, 49, 0
1, 184763, Note_on_c, 0, 71, 67
1, 184782, Note_on_c, 0, 62, 52
1, 184914, Note_on_c, 0, 42, 54
1, 184956, Note_on_c, 0, 62, 0
1, 185000, Control_c, 0, 67, 53
1, 185057, Control_c, 0, 67, 58
1, 185110, Control_c, 0, 67, 63
1, 185115, Note_on_c, 0, 70, 67
1, 185125, Note_on_c, 0, 61, 57
1, 185129, Control_c, 0, 64, 120
1, 185131, Note_on_c, 0, 49, 51
1, 185149, Control_c, 0, 64, 85
1, 185158, Note_on_c, 0, 42, 0
1, 185158, Poly_aftertouch_c, 0, 42, 0
1, 185166, Control_c, 0, 64, 27
1, 185169, Control_c, 0, 67, 68
1, 185187, Control_c, 0, 64, 0
1, 185204, Control_c, 0, 67, 74
1, 185223, Control_c, 0, 64, 36
1, 185242, Control_c, 0, 64, 74
1, 185243, Control_c, 0, 67, 79
1, 185245, Note_on_c, 0, 49, 0
1, 185245, Poly_aftertouch_c, 0, 49, 0
1, 185262, Control_c, 0, 64, 103
1, 185279, Control_c, 0, 64, 127
1, 185288, Note_on_c, 0, 70, 0
1, 185317, Note_on_c, 0, 71, 0
1, 185317, Poly_aftertouch_c, 0, 71, 0
1, 185319, Note_on_c, 0, 61, 0
1, 185319, Poly_aftertouch_c, 0, 61, 0
1, 185352, Note_on_c, 0, 58, 49
1, 185408, Note_on_c, 0, 58, 0
1, 185753, Note_on_c, 0, 63, 63
1, 185792, Note_on_c, 0, 70, 37
1, 185793, Note_on_c, 0, 60, 40
1, 185840, Control_c, 0, 64, 116
1, 185860, Control_c, 0, 64, 83
1, 185877, Control_c, 0, 64, 42
1, 185896, Control_c, 0, 64, 0
1, 185934, Control_c, 0, 64, 28
1, 185952, Control_c, 0, 64, 58
1, 185972, Control_c, 0, 64, 79
1, 185990, Control_c, 0, 64, 94
1, 185998, Note_on_c, 0, 70, 0
1, 186009, Control_c, 0, 64, 115
1, 186028, Control_c, 0, 64, 127
1, 186076, Note_on_c, 0, 60, 0
1, 186076, Poly_aftertouch_c, 0, 60, 0
1, 186102, Control_c, 0, 67, 83
1, 186121, Control_c, 0, 67, 90
1, 186140, Control_c, 0, 67, 99
1, 186158, Control_c, 0, 67, 108
1, 186176, Control_c, 0, 67, 115
1, 186196, Note_on_c, 0, 63, 0
1, 186196, Control_c, 0, 67, 119
1, 186233, Control_c, 0, 67, 123
1, 186271, Control_c, 0, 67, 127
1, 186372, Note_on_c, 0, 63, 45
1, 186434, Note_on_c, 0, 63, 0
1, 186522, Note_on_c, 0, 58, 44
1, 186583, Note_on_c, 0, 58, 0
1, 186664, Note_on_c, 0, 49, 52
1, 186697, Note_on_c, 0, 49, 0
1, 186697, Poly_aftertouch_c, 0, 49, 0
1, 186856, Note_on_c, 0, 42, 59
1, 187210, Poly_aftertouch_c, 0, 42, 24
1, 187272, Note_on_c, 0, 42, 0
1, 187272, Poly_aftertouch_c, 0, 42, 0
1, 187273, Poly_aftertouch_c, 0, 42, 0
1, 187456, Note_on_c, 0, 49, 38
1, 187674, Note_on_c, 0, 70, 62
1, 187693, Note_on_c, 0, 49, 0
1, 187693, Poly_aftertouch_c, 0, 49, 0
1, 187711, Note_on_c, 0, 58, 42
1, 187991, Note_on_c, 0, 58, 0
1, 188310, Note_on_c, 0, 64, 47
1, 188345, Note_on_c, 0, 60, 32
1, 188364, Control_c, 0, 64, 118
1, 188383, Control_c, 0, 64, 87
1, 188389, Note_on_c, 0, 70, 0
1, 188403, Control_c, 0, 64, 54
1, 188421, Control_c, 0, 64, 43
1, 188439, Control_c, 0, 64, 49
1, 188460, Control_c, 0, 64, 59
1, 188477, Control_c, 0, 64, 73
1, 188495, Control_c, 0, 64, 83
1, 188514, Control_c, 0, 64, 94
1, 188533, Control_c, 0, 64, 106
1, 188552, Control_c, 0, 64, 114
1, 188627, Control_c, 0, 64, 118
1, 188664, Control_c, 0, 64, 122
1, 188738, Control_c, 0, 64, 126
1, 188875, Note_on_c, 0, 57, 37
1, 188934, Note_on_c, 0, 57, 0
1, 188934, Poly_aftertouch_c, 0, 57, 0
1, 189198, Note_on_c, 0, 49, 29
1, 189302, Poly_aftertouch_c, 0, 64, 24
1, 189329, Note_on_c, 0, 49, 0
1, 189329, Poly_aftertouch_c, 0, 49, 0
1, 189376, Note_on_c, 0, 64, 0
1, 189376, Poly_aftertouch_c, 0, 64, 0
1, 189654, Poly_aftertouch_c, 0, 60, 24
1, 189683, Note_on_c, 0, 69, 37
1, 189706, Note_on_c, 0, 42, 31
1, 189779, Note_on_c, 0, 60, 0
1, 189779, Poly_aftertouch_c, 0, 60, 0
1, 189781, Note_on_c, 0, 42, 0
1, 189821, Note_on_c, 0, 69, 0
1, 190926, Control_c, 0, 64, 118
1, 190945, Control_c, 0, 64, 98
1, 190951, Note_on_c, 0, 25, 44
1, 190952, Note_on_c, 0, 49, 38
1, 190958, Note_on_c, 0, 53, 38
1, 190961, Note_on_c, 0, 61, 37
1, 190964, Control_c, 0, 64, 62
1, 190971, Note_on_c, 0, 56, 25
1, 190974, Note_on_c, 0, 37, 30
1, 190974, Note_on_c, 0, 32, 30
1, 190982, Control_c, 0, 64, 0
1, 191002, Control_c, 0, 64, 11
1, 191020, Control_c, 0, 64, 36
1, 191035, Note_on_c, 0, 53, 0
1, 191035, Poly_aftertouch_c, 0, 53, 0
1, 191038, Note_on_c, 0, 56, 0
1, 191038, Poly_aftertouch_c, 0, 56, 0
1, 191038, Control_c, 0, 64, 63
1, 191040, Note_on_c, 0, 49, 0
1, 191040, Poly_aftertouch_c, 0, 49, 0
1, 191049, Note_on_c, 0, 32, 0
1, 191053, Note_on_c, 0, 25, 0
1, 191056, Control_c, 0, 64, 86
1, 191068, Note_on_c, 0, 37, 0
1, 191070, Note_on_c, 0, 61, 0
1, 191070, Poly_aftertouch_c, 0, 61, 0
1, 191074, Control_c, 0, 64, 104
1, 191095, Control_c, 0, 64, 127
1, 191747, Note_on_c, 0, 85, 55
1, 191764, Note_on_c, 0, 73, 42
1, 191770, Note_on_c, 0, 65, 40
1, 191778, Note_on_c, 0, 56, 38
1, 191785, Note_on_c, 0, 61, 35
1, 191790, Note_on_c, 0, 77, 33
1, 191804, Note_on_c, 0, 80, 27
1, 191888, Note_on_c, 0, 80, 0
1, 191888, Poly_aftertouch_c, 0, 80, 0
1, 192019, Note_on_c, 0, 77, 0
1, 192019, Poly_aftertouch_c, 0, 77, 0
1, 192048, Poly_aftertouch_c, 0, 73, 24
1, 192049, Note_on_c, 0, 56, 0
1, 192049, Poly_aftertouch_c, 0, 56, 0
1, 192078, Note_on_c, 0, 85, 0
1, 192132, Note_on_c, 0, 73, 0
1, 192132, Poly_aftertouch_c, 0, 73, 0
1, 192184, Note_on_c, 0, 65, 0
1, 192184, Poly_aftertouch_c, 0, 65, 0
1, 192285, Poly_aftertouch_c, 0, 61, 24
1, 192368, Note_on_c, 0, 61, 0
1, 192368, Poly_aftertouch_c, 0, 61, 0
1, 192855, Note_on_c, 0, 84, 55
1, 192887, Note_on_c, 0, 72, 28
1, 192888, Note_on_c, 0, 63, 28
1, 192889, Control_c, 0, 67, 123
1, 192891, Note_on_c, 0, 65, 28
1, 192893, Note_on_c, 0, 54, 24
1, 192900, Note_on_c, 0, 77, 28
1, 192913, Note_on_c, 0, 80, 20
1, 192932, Note_on_c, 0, 60, 22
1, 192965, Control_c, 0, 64, 100
1, 192985, Control_c, 0, 64, 73
1, 193002, Control_c, 0, 64, 57
1, 193040, Control_c, 0, 64, 63
1, 193058, Control_c, 0, 64, 75
1, 193077, Control_c, 0, 64, 86
1, 193096, Control_c, 0, 64, 101
1, 193114, Control_c, 0, 64, 116
1, 193133, Control_c, 0, 64, 125
1, 193151, Control_c, 0, 67, 119
1, 193156, Poly_aftertouch_c, 0, 80, 20
1, 193228, Poly_aftertouch_c, 0, 60, 24
1, 193236, Poly_aftertouch_c, 0, 54, 24
1, 193251, Note_on_c, 0, 65, 0
1, 193251, Poly_aftertouch_c, 0, 65, 0
1, 193256, Poly_aftertouch_c, 0, 77, 24
1, 193266, Note_on_c, 0, 80, 0
1, 193266, Poly_aftertouch_c, 0, 80, 0
1, 193268, Poly_aftertouch_c, 0, 63, 24
1, 193277, Note_on_c, 0, 84, 0
1, 193277, Poly_aftertouch_c, 0, 84, 0
1, 193282, Control_c, 0, 67, 115
1, 193295, Note_on_c, 0, 54, 0
1, 193295, Poly_aftertouch_c, 0, 54, 0
1, 193298, Note_on_c, 0, 60, 0
1, 193298, Poly_aftertouch_c, 0, 60, 0
1, 193299, Poly_aftertouch_c, 0, 60, 0
1, 193313, Note_on_c, 0, 63, 0
1, 193313, Poly_aftertouch_c, 0, 63, 0
1, 193323, Note_on_c, 0, 77, 0
1, 193323, Poly_aftertouch_c, 0, 77, 0
1, 193337, Note_on_c, 0, 72, 0
1, 193337, Control_c, 0, 67, 111
1, 193413, Control_c, 0, 67, 106
1, 193451, Control_c, 0, 67, 102
1, 193507, Control_c, 0, 67, 98
1, 193562, Control_c, 0, 67, 93
1, 193599, Control_c, 0, 67, 88
1, 193657, Control_c, 0, 67, 83
1, 193684, Note_on_c, 0, 83, 69
1, 193702, Note_on_c, 0, 65, 47
1, 193705, Note_on_c, 0, 80, 53
1, 193712, Note_on_c, 0, 53, 44
1, 193713, Control_c, 0, 67, 79
1, 193715, Note_on_c, 0, 71, 32
1, 193716, Note_on_c, 0, 77, 44
1, 193719, Note_on_c, 0, 62, 37
1, 193720, Note_on_c, 0, 83, 0
1, 193720, Note_on_c, 0, 59, 42
1, 193740, Note_on_c, 0, 80, 0
1, 193740, Poly_aftertouch_c, 0, 80, 0
1, 193747, Note_on_c, 0, 65, 0
1, 193747, Poly_aftertouch_c, 0, 65, 0
1, 193749, Control_c, 0, 67, 75
1, 193750, Note_on_c, 0, 77, 0
1, 193750, Poly_aftertouch_c, 0, 77, 0
1, 193752, Note_on_c, 0, 53, 0
1, 193752, Poly_aftertouch_c, 0, 53, 0
1, 193755, Note_on_c, 0, 59, 0
1, 193761, Note_on_c, 0, 62, 0
1, 193761, Note_on_c, 0, 71, 0
1, 193761, Poly_aftertouch_c, 0, 71, 0
1, 193788, Control_c, 0, 67, 71
1, 193825, Control_c, 0, 67, 65
1, 193863, Control_c, 0, 67, 59
1, 193900, Control_c, 0, 67, 54
1, 193937, Control_c, 0, 67, 50
1, 194011, Control_c, 0, 67, 46
1, 194067, Control_c, 0, 67, 40
1, 194105, Control_c, 0, 67, 34
1, 194116, Note_on_c, 0, 72, 71
1, 194124, Control_c, 0, 64, 91
1, 194125, Control_c, 0, 67, 29
1, 194126, Note_on_c, 0, 36, 58
1, 194130, Note_on_c, 0, 48, 56
1, 194137, Note_on_c, 0, 45, 56
1, 194140, Note_on_c, 0, 65, 48
1, 194141, Note_on_c, 0, 60, 41
1, 194141, Note_on_c, 0, 41, 56
1, 194143, Control_c, 0, 64, 47
1, 194146, Control_c, 0, 67, 23
1, 194155, Note_on_c, 0, 69, 45
1, 194162, Control_c, 0, 64, 0
1, 194163, Control_c, 0, 67, 17
1, 194181, Control_c, 0, 64, 10
1, 194183, Control_c, 0, 67, 11
1, 194199, Control_c, 0, 64, 49
1, 194210, Note_on_c, 0, 36, 0
1, 194216, Control_c, 0, 64, 77
1, 194217, Note_on_c, 0, 60, 0
1, 194229, Note_on_c, 0, 41, 0
1, 194229, Poly_aftertouch_c, 0, 41, 0
1, 194230, Note_on_c, 0, 65, 0
1, 194230, Poly_aftertouch_c, 0, 65, 0
1, 194237, Control_c, 0, 64, 100
1, 194240, Note_on_c, 0, 45, 0
1, 194250, Note_on_c, 0, 69, 0
1, 194252, Note_on_c, 0, 48, 0
1, 194253, Control_c, 0, 64, 127
1, 194255, Control_c, 0, 67, 0
1, 194262, Note_on_c, 0, 72, 0
1, 194565, Note_on_c, 0, 77, 80
1, 194583, Note_on_c, 0, 53, 51
1, 194585, Note_on_c, 0, 60, 57
1, 194588, Note_on_c, 0, 69, 51
1, 194594, Note_on_c, 0, 65, 44
1, 194598, Note_on_c, 0, 72, 46
1, 194600, Note_on_c, 0, 57, 52
1, 194631, Note_on_c, 0, 60, 0
1, 194649, Note_on_c, 0, 53, 0
1, 194649, Poly_aftertouch_c, 0, 53, 0
1, 194655, Note_on_c, 0, 57, 0
1, 194655, Poly_aftertouch_c, 0, 57, 0
1, 195000, Note_on_c, 0, 77, 0
1, 195000, Poly_aftertouch_c, 0, 77, 0
1, 195037, Note_on_c, 0, 69, 0
1, 195101, Note_on_c, 0, 72, 0
1, 195110, Note_on_c, 0, 65, 0
1, 195110, Poly_aftertouch_c, 0, 65, 0
1, 195466, Note_on_c, 0, 76, 73
1, 195477, Note_on_c, 0, 68, 56
1, 195483, Note_on_c, 0, 60, 48
1, 195487, Note_on_c, 0, 56, 48
1, 195488, Note_on_c, 0, 64, 47
1, 195492, Note_on_c, 0, 52, 39
1, 195501, Note_on_c, 0, 72, 46
1, 195564, Control_c, 0, 64, 100
1, 195584, Control_c, 0, 64, 65
1, 195601, Control_c, 0, 64, 25
1, 195619, Control_c, 0, 64, 0
1, 195638, Control_c, 0, 64, 21
1, 195657, Control_c, 0, 64, 52
1, 195676, Control_c, 0, 64, 77
1, 195695, Control_c, 0, 64, 98
1, 195713, Control_c, 0, 64, 126
1, 195735, Note_on_c, 0, 76, 0
1, 195773, Note_on_c, 0, 52, 0
1, 195835, Note_on_c, 0, 64, 0
1, 195835, Poly_aftertouch_c, 0, 64, 0
1, 195836, Poly_aftertouch_c, 0, 64, 0
1, 195890, Note_on_c, 0, 68, 0
1, 195909, Note_on_c, 0, 72, 0
1, 195917, Control_c, 0, 67, 8
1, 195967, Note_on_c, 0, 56, 0
1, 195967, Poly_aftertouch_c, 0, 56, 0
1, 195975, Control_c, 0, 67, 12
1, 195989, Note_on_c, 0, 60, 0
1, 196030, Control_c, 0, 67, 16
1, 196087, Control_c, 0, 67, 21
1, 196105, Control_c, 0, 67, 25
1, 196124, Control_c, 0, 67, 32
1, 196143, Control_c, 0, 67, 39
1, 196161, Control_c, 0, 67, 46
1, 196180, Control_c, 0, 67, 51
1, 196199, Control_c, 0, 67, 56
1, 196217, Control_c, 0, 67, 61
1, 196236, Control_c, 0, 67, 67
1, 196256, Control_c, 0, 67, 73
1, 196274, Control_c, 0, 67, 78
1, 196292, Control_c, 0, 67, 83
1, 196330, Control_c, 0, 67, 88
1, 196367, Control_c, 0, 67, 93
1, 196405, Control_c, 0, 67, 98
1, 196422, Control_c, 0, 64, 108
1, 196424, Note_on_c, 0, 75, 64
1, 196442, Control_c, 0, 64, 79
1, 196447, Note_on_c, 0, 63, 42
1, 196452, Note_on_c, 0, 69, 40
1, 196455, Note_on_c, 0, 60, 40
1, 196459, Note_on_c, 0, 57, 37
1, 196460, Note_on_c, 0, 51, 36
1, 196461, Control_c, 0, 64, 57
1, 196464, Note_on_c, 0, 72, 34
1, 196480, Control_c, 0, 64, 61
1, 196481, Note_on_c, 0, 53, 29
1, 196499, Control_c, 0, 64, 72
1, 196500, Control_c, 0, 67, 102
1, 196502, Note_on_c, 0, 60, 0
1, 196506, Note_on_c, 0, 57, 0
1, 196506, Note_on_c, 0, 63, 0
1, 196506, Poly_aftertouch_c, 0, 57, 0
1, 196506, Poly_aftertouch_c, 0, 63, 0
1, 196509, Note_on_c, 0, 75, 0
1, 196509, Note_on_c, 0, 69, 0
1, 196514, Note_on_c, 0, 72, 0
1, 196518, Control_c, 0, 64, 85
1, 196526, Note_on_c, 0, 53, 0
1, 196526, Poly_aftertouch_c, 0, 53, 0
1, 196536, Control_c, 0, 64, 99
1, 196540, Note_on_c, 0, 51, 0
1, 196540, Poly_aftertouch_c, 0, 51, 0
1, 196555, Control_c, 0, 64, 116
1, 196556, Control_c, 0, 67, 106
1, 196573, Control_c, 0, 64, 127
1, 196591, Control_c, 0, 67, 112
1, 196612, Control_c, 0, 67, 117
1, 196628, Control_c, 0, 67, 123
1, 196648, Control_c, 0, 67, 127
1, 196965, Control_c, 0, 64, 118
1, 196985, Control_c, 0, 64, 96
1, 197003, Control_c, 0, 64, 65
1, 197016, Note_on_c, 0, 25, 39
1, 197019, Note_on_c, 0, 37, 41
1, 197020, Note_on_c, 0, 32, 40
1, 197021, Control_c, 0, 64, 0
1, 197025, Note_on_c, 0, 61, 41
1, 197030, Note_on_c, 0, 56, 36
1, 197032, Note_on_c, 0, 53, 36
1, 197036, Note_on_c, 0, 49, 31
1, 197078, Control_c, 0, 64, 12
1, 197097, Control_c, 0, 64, 56
1, 197104, Note_on_c, 0, 53, 0
1, 197104, Poly_aftertouch_c, 0, 53, 0
1, 197109, Note_on_c, 0, 25, 0
1, 197113, Note_on_c, 0, 56, 0
1, 197113, Note_on_c, 0, 49, 0
1, 197113, Poly_aftertouch_c, 0, 49, 0
1, 197113, Poly_aftertouch_c, 0, 56, 0
1, 197116, Control_c, 0, 64, 81
1, 197124, Note_on_c, 0, 32, 0
1, 197134, Control_c, 0, 64, 103
1, 197144, Note_on_c, 0, 37, 0
1, 197147, Note_on_c, 0, 61, 0
1, 197147, Poly_aftertouch_c, 0, 61, 0
1, 197152, Control_c, 0, 64, 127
1, 197716, Note_on_c, 0, 73, 55
1, 197735, Note_on_c, 0, 56, 39
1, 197739, Note_on_c, 0, 53, 38
1, 197740, Note_on_c, 0, 61, 37
1, 197745, Note_on_c, 0, 44, 37
1, 197749, Note_on_c, 0, 68, 40
1, 197814, Poly_aftertouch_c, 0, 65, 127
1, 198016, Note_on_c, 0, 53, 0
1, 198016, Poly_aftertouch_c, 0, 53, 0
1, 198026, Poly_aftertouch_c, 0, 65, 24
1, 198039, Note_on_c, 0, 56, 0
1, 198039, Poly_aftertouch_c, 0, 56, 0
1, 198045, Poly_aftertouch_c, 0, 68, 20
1, 198046, Note_on_c, 0, 68, 0
1, 198046, Poly_aftertouch_c, 0, 68, 0
1, 198076, Poly_aftertouch_c, 0, 65, 0
1, 198097, Note_on_c, 0, 73, 0
1, 198097, Poly_aftertouch_c, 0, 73, 0
1, 198103, Note_on_c, 0, 44, 0
1, 198103, Poly_aftertouch_c, 0, 44, 0
1, 198164, Note_on_c, 0, 61, 0
1, 198164, Poly_aftertouch_c, 0, 61, 0
1, 198165, Poly_aftertouch_c, 0, 61, 0
1, 198618, Note_on_c, 0, 72, 54
1, 198646, Note_on_c, 0, 60, 30
1, 198648, Control_c, 0, 67, 123
1, 198656, Note_on_c, 0, 65, 32
1, 198659, Note_on_c, 0, 68, 31
1, 198663, Note_on_c, 0, 54, 27
1, 198664, Note_on_c, 0, 44, 30
1, 198674, Note_on_c, 0, 51, 32
1, 198723, Control_c, 0, 67, 118
1, 198798, Control_c, 0, 67, 114
1, 198854, Control_c, 0, 67, 109
1, 198867, Note_on_c, 0, 72, 0
1, 198878, Note_on_c, 0, 44, 0
1, 198878, Poly_aftertouch_c, 0, 44, 0
1, 198909, Control_c, 0, 67, 104
1, 198934, Note_on_c, 0, 65, 0
1, 198942, Note_on_c, 0, 54, 0
1, 198942, Poly_aftertouch_c, 0, 54, 0
1, 198950, Note_on_c, 0, 68, 0
1, 198950, Poly_aftertouch_c, 0, 68, 0
1, 198967, Control_c, 0, 67, 99
1, 199001, Note_on_c, 0, 60, 0
1, 199003, Control_c, 0, 67, 95
1, 199032, Note_on_c, 0, 51, 0
1, 199032, Poly_aftertouch_c, 0, 51, 0
1, 199041, Control_c, 0, 67, 90
1, 199080, Control_c, 0, 67, 86
1, 199116, Control_c, 0, 67, 82
1, 199154, Control_c, 0, 67, 76
1, 199191, Control_c, 0, 67, 69
1, 199209, Control_c, 0, 67, 65
1, 199248, Control_c, 0, 67, 59
1, 199285, Control_c, 0, 67, 55
1, 199322, Control_c, 0, 67, 50
1, 199374, Note_on_c, 0, 71, 61
1, 199387, Note_on_c, 0, 59, 47
1, 199388, Note_on_c, 0, 44, 49
1, 199395, Note_on_c, 0, 53, 42
1, 199396, Note_on_c, 0, 50, 42
1, 199402, Note_on_c, 0, 68, 43
1, 199413, Note_on_c, 0, 65, 31
1, 199417, Control_c, 0, 67, 44
1, 199420, Note_on_c, 0, 59, 0
1, 199437, Note_on_c, 0, 71, 0
1, 199437, Poly_aftertouch_c, 0, 71, 0
1, 199439, Note_on_c, 0, 44, 0
1, 199439, Poly_aftertouch_c, 0, 44, 0
1, 199440, Note_on_c, 0, 68, 0
1, 199440, Poly_aftertouch_c, 0, 68, 0
1, 199442, Note_on_c, 0, 50, 0
1, 199447, Note_on_c, 0, 53, 0
1, 199447, Poly_aftertouch_c, 0, 53, 0
1, 199451, Control_c, 0, 67, 37
1, 199460, Note_on_c, 0, 65, 0
1, 199471, Control_c, 0, 67, 33
1, 199491, Control_c, 0, 67, 28
1, 199508, Control_c, 0, 67, 20
1, 199528, Control_c, 0, 67, 10
1, 199602, Control_c, 0, 67, 0
1, 199771, Control_c, 0, 64, 121
1, 199788, Control_c, 0, 64, 83
1, 199791, Note_on_c, 0, 84, 80
1, 199808, Note_on_c, 0, 60, 58
1, 199810, Note_on_c, 0, 72, 57
1, 199810, Note_on_c, 0, 57, 60
1, 199810, Control_c, 0, 64, 34
1, 199816, Note_on_c, 0, 48, 48
1, 199816, Note_on_c, 0, 81, 58
1, 199818, Note_on_c, 0, 53, 56
1, 199819, Note_on_c, 0, 77, 52
1, 199844, Control_c, 0, 64, 0
1, 199846, Control_c, 0, 64, 43
1, 199864, Control_c, 0, 64, 77
1, 199884, Control_c, 0, 64, 108
1, 199890, Note_on_c, 0, 60, 0
1, 199903, Control_c, 0, 64, 127
1, 199910, Note_on_c, 0, 72, 0
1, 199913, Note_on_c, 0, 84, 0
1, 199913, Poly_aftertouch_c, 0, 84, 0
1, 199923, Note_on_c, 0, 77, 0
1, 199923, Note_on_c, 0, 81, 0
1, 199923, Poly_aftertouch_c, 0, 77, 0
1, 199925, Note_on_c, 0, 57, 0
1, 199925, Poly_aftertouch_c, 0, 57, 0
1, 199947, Note_on_c, 0, 53, 0
1, 199947, Poly_aftertouch_c, 0, 53, 0
1, 199959, Note_on_c, 0, 48, 0
1, 200336, Note_on_c, 0, 65, 76
1, 200348, Note_on_c, 0, 53, 58
1, 200350, Note_on_c, 0, 60, 63
1, 200354, Note_on_c, 0, 57, 62
1, 200357, Note_on_c, 0, 41, 51
1, 200362, Note_on_c, 0, 48, 52
1, 200623, Note_on_c, 0, 53, 0
1, 200623, Poly_aftertouch_c, 0, 53, 0
1, 200737, Note_on_c, 0, 48, 0
1, 200804, Note_on_c, 0, 57, 0
1, 200804, Poly_aftertouch_c, 0, 57, 0
1, 200827, Note_on_c, 0, 60, 0
1, 200840, Note_on_c, 0, 41, 0
1, 200840, Poly_aftertouch_c, 0, 41, 0
1, 201439, Note_on_c, 0, 65, 0
1, 201444, Note_on_c, 0, 64, 63
1, 201447, Note_on_c, 0, 60, 47
1, 201456, Note_on_c, 0, 40, 38
1, 201465, Note_on_c, 0, 48, 40
1, 201468, Note_on_c, 0, 52, 37
1, 201474, Note_on_c, 0, 56, 33
1, 201585, Control_c, 0, 64, 105
1, 201603, Control_c, 0, 64, 73
1, 201622, Control_c, 0, 64, 41
1, 201640, Control_c, 0, 64, 0
1, 201678, Control_c, 0, 64, 15
1, 201697, Control_c, 0, 64, 51
1, 201716, Control_c, 0, 64, 76
1, 201734, Control_c, 0, 64, 94
1, 201753, Control_c, 0, 64, 116
1, 201771, Control_c, 0, 64, 127
1, 201916, Note_on_c, 0, 40, 0
1, 201916, Poly_aftertouch_c, 0, 40, 0
1, 201982, Note_on_c, 0, 52, 0
1, 201994, Note_on_c, 0, 60, 0
1, 202013, Poly_aftertouch_c, 0, 48, 22
1, 202032, Note_on_c, 0, 48, 0
1, 202032, Poly_aftertouch_c, 0, 48, 0
1, 202199, Note_on_c, 0, 56, 0
1, 202199, Poly_aftertouch_c, 0, 56, 0
1, 202309, Note_on_c, 0, 64, 0
1, 202779, Note_on_c, 0, 39, 27
1, 202781, Note_on_c, 0, 63, 30
1, 202784, Note_on_c, 0, 48, 24
1, 202792, Note_on_c, 0, 51, 22
1, 202792, Note_on_c, 0, 57, 27
1, 202793, Note_on_c, 0, 60, 24
1, 202818, Control_c, 0, 64, 114
1, 202838, Control_c, 0, 64, 89
1, 202857, Control_c, 0, 64, 60
1, 202875, Control_c, 0, 64, 27
1, 202893, Control_c, 0, 64, 15
1, 202912, Control_c, 0, 64, 33
1, 202930, Control_c, 0, 64, 55
1, 202949, Control_c, 0, 64, 75
1, 202969, Control_c, 0, 64, 88
1, 202987, Control_c, 0, 64, 103
1, 203005, Control_c, 0, 64, 113
1, 203022, Note_on_c, 0, 48, 0
1, 203022, Poly_aftertouch_c, 0, 48, 0
1, 203023, Control_c, 0, 64, 118
1, 203036, Note_on_c, 0, 51, 0
1, 203036, Poly_aftertouch_c, 0, 51, 0
1, 203080, Control_c, 0, 64, 123
1, 203119, Control_c, 0, 64, 127
1, 203143, Note_on_c, 0, 39, 0
1, 203199, Note_on_c, 0, 60, 0
1, 203252, Poly_aftertouch_c, 0, 57, 24
1, 203335, Note_on_c, 0, 57, 0
1, 203335, Poly_aftertouch_c, 0, 57, 0
1, 203686, Note_on_c, 0, 63, 0
1, 203686, Poly_aftertouch_c, 0, 63, 0
1, 203706, Note_on_c, 0, 37, 57
1, 203722, Note_on_c, 0, 25, 55
1, 203791, Control_c, 0, 64, 120
1, 203809, Control_c, 0, 64, 100
1, 203829, Control_c, 0, 64, 66
1, 203847, Control_c, 0, 64, 24
1, 203866, Control_c, 0, 64, 44
1, 203884, Control_c, 0, 64, 70
1, 203902, Control_c, 0, 64, 83
1, 203922, Control_c, 0, 64, 92
1, 203941, Control_c, 0, 64, 103
1, 203956, Note_on_c, 0, 61, 54
1, 203961, Control_c, 0, 64, 114
1, 203973, Note_on_c, 0, 56, 40
1, 203977, Note_on_c, 0, 53, 34
1, 203977, Control_c, 0, 64, 119
1, 204013, Note_on_c, 0, 25, 0
1, 204068, Note_on_c, 0, 56, 0
1, 204068, Poly_aftertouch_c, 0, 56, 0
1, 204113, Note_on_c, 0, 37, 0
1, 204174, Note_on_c, 0, 53, 0
1, 204174, Poly_aftertouch_c, 0, 53, 0
1, 204204, Note_on_c, 0, 61, 0
1, 204483, Note_on_c, 0, 60, 60
1, 204505, Note_on_c, 0, 52, 43
1, 204511, Note_on_c, 0, 56, 39
1, 204559, Note_on_c, 0, 52, 0
1, 204638, Note_on_c, 0, 48, 69
1, 204669, Note_on_c, 0, 60, 0
1, 204754, Note_on_c, 0, 56, 0
1, 204754, Poly_aftertouch_c, 0, 56, 0
1, 204773, Note_on_c, 0, 53, 63
1, 204781, Note_on_c, 0, 49, 53
1, 204817, Note_on_c, 0, 49, 0
1, 204817, Poly_aftertouch_c, 0, 49, 0
1, 204835, Note_on_c, 0, 53, 0
1, 204835, Poly_aftertouch_c, 0, 53, 0
1, 204859, Note_on_c, 0, 48, 0
1, 204859, Poly_aftertouch_c, 0, 48, 0
1, 204913, Control_c, 0, 64, 114
1, 204928, Note_on_c, 0, 37, 68
1, 204949, Control_c, 0, 64, 107
1, 204969, Control_c, 0, 64, 98
1, 204988, Control_c, 0, 64, 85
1, 205007, Control_c, 0, 64, 68
1, 205025, Control_c, 0, 64, 38
1, 205043, Control_c, 0, 64, 0
1, 205066, Note_on_c, 0, 61, 66
1, 205096, Note_on_c, 0, 53, 48
1, 205099, Note_on_c, 0, 56, 43
1, 205119, Control_c, 0, 64, 30
1, 205137, Control_c, 0, 64, 59
1, 205156, Control_c, 0, 64, 78
1, 205175, Control_c, 0, 64, 88
1, 205185, Note_on_c, 0, 53, 0
1, 205185, Poly_aftertouch_c, 0, 53, 0
1, 205190, Note_on_c, 0, 56, 0
1, 205190, Poly_aftertouch_c, 0, 56, 0
1, 205193, Control_c, 0, 64, 100
1, 205212, Control_c, 0, 64, 110
1, 205230, Control_c, 0, 64, 115
1, 205268, Control_c, 0, 64, 119
1, 205298, Note_on_c, 0, 61, 0
1, 205417, Control_c, 0, 64, 124
1, 205525, Note_on_c, 0, 60, 63
1, 205543, Note_on_c, 0, 52, 47
1, 205550, Note_on_c, 0, 56, 47
1, 205588, Note_on_c, 0, 52, 0
1, 205648, Note_on_c, 0, 48, 68
1, 205698, Control_c, 0, 67, 8
1, 205735, Note_on_c, 0, 60, 0
1, 205743, Note_on_c, 0, 37, 0
1, 205760, Note_on_c, 0, 56, 0
1, 205760, Poly_aftertouch_c, 0, 56, 0
1, 205781, Note_on_c, 0, 53, 68
1, 205783, Note_on_c, 0, 49, 66
1, 205822, Note_on_c, 0, 49, 0
1, 205822, Poly_aftertouch_c, 0, 49, 0
1, 205870, Note_on_c, 0, 53, 0
1, 205870, Poly_aftertouch_c, 0, 53, 0
1, 205883, Note_on_c, 0, 48, 0
1, 205883, Poly_aftertouch_c, 0, 48, 0
1, 205885, Control_c, 0, 64, 117
1, 205904, Control_c, 0, 64, 108
1, 205914, Note_on_c, 0, 37, 68
1, 205923, Control_c, 0, 64, 96
1, 205941, Control_c, 0, 64, 80
1, 205960, Control_c, 0, 64, 61
1, 205978, Control_c, 0, 64, 22
1, 205997, Control_c, 0, 64, 0
1, 206053, Control_c, 0, 67, 12
1, 206072, Note_on_c, 0, 53, 53
1, 206072, Note_on_c, 0, 60, 60
1, 206090, Control_c, 0, 64, 13
1, 206099, Note_on_c, 0, 56, 43
1, 206110, Control_c, 0, 64, 38
1, 206128, Control_c, 0, 64, 54
1, 206148, Control_c, 0, 64, 66
1, 206149, Note_on_c, 0, 53, 0
1, 206149, Poly_aftertouch_c, 0, 53, 0
1, 206165, Control_c, 0, 64, 72
1, 206181, Note_on_c, 0, 56, 0
1, 206181, Poly_aftertouch_c, 0, 56, 0
1, 206183, Control_c, 0, 64, 76
1, 206203, Control_c, 0, 64, 80
1, 206221, Control_c, 0, 64, 85
1, 206224, Note_on_c, 0, 60, 0
1, 206240, Control_c, 0, 64, 90
1, 206259, Control_c, 0, 64, 95
1, 206278, Control_c, 0, 64, 99
1, 206315, Control_c, 0, 64, 106
1, 206353, Control_c, 0, 64, 112
1, 206494, Note_on_c, 0, 59, 62
1, 206520, Note_on_c, 0, 52, 45
1, 206527, Note_on_c, 0, 56, 48
1, 206563, Note_on_c, 0, 52, 0
1, 206630, Note_on_c, 0, 47, 69
1, 206671, Note_on_c, 0, 59, 0
1, 206701, Note_on_c, 0, 37, 0
1, 206727, Control_c, 0, 64, 108
1, 206729, Control_c, 0, 67, 16
1, 206762, Control_c, 0, 64, 100
1, 206765, Note_on_c, 0, 53, 65
1, 206767, Note_on_c, 0, 49, 61
1, 206769, Note_on_c, 0, 56, 0
1, 206769, Poly_aftertouch_c, 0, 56, 0
1, 206782, Control_c, 0, 64, 93
1, 206802, Control_c, 0, 64, 85
1, 206804, Control_c, 0, 67, 21
1, 206813, Note_on_c, 0, 49, 0
1, 206813, Poly_aftertouch_c, 0, 49, 0
1, 206820, Control_c, 0, 64, 75
1, 206840, Control_c, 0, 64, 59
1, 206845, Note_on_c, 0, 53, 0
1, 206845, Poly_aftertouch_c, 0, 53, 0
1, 206857, Control_c, 0, 64, 30
1, 206859, Control_c, 0, 67, 26
1, 206872, Note_on_c, 0, 47, 0
1, 206872, Poly_aftertouch_c, 0, 47, 0
1, 206874, Control_c, 0, 64, 0
1, 206890, Note_on_c, 0, 37, 66
1, 206952, Control_c, 0, 64, 10
1, 206969, Control_c, 0, 64, 37
1, 206988, Control_c, 0, 64, 54
1, 207007, Control_c, 0, 64, 67
1, 207025, Control_c, 0, 64, 73
1, 207045, Control_c, 0, 64, 75
1, 207058, Note_on_c, 0, 60, 58
1, 207062, Control_c, 0, 64, 78
1, 207063, Control_c, 0, 67, 30
1, 207066, Note_on_c, 0, 53, 49
1, 207081, Note_on_c, 0, 56, 47
1, 207081, Control_c, 0, 64, 82
1, 207100, Control_c, 0, 64, 86
1, 207119, Control_c, 0, 64, 90
1, 207134, Note_on_c, 0, 53, 0
1, 207134, Poly_aftertouch_c, 0, 53, 0
1, 207142, Note_on_c, 0, 56, 0
1, 207142, Poly_aftertouch_c, 0, 56, 0
1, 207157, Control_c, 0, 64, 96
1, 207173, Note_on_c, 0, 60, 0
1, 207175, Control_c, 0, 67, 35
1, 207194, Control_c, 0, 64, 103
1, 207213, Control_c, 0, 67, 40
1, 207231, Control_c, 0, 64, 109
1, 207250, Control_c, 0, 67, 44
1, 207306, Control_c, 0, 67, 49
1, 207436, Control_c, 0, 67, 53
1, 207442, Note_on_c, 0, 59, 58
1, 207460, Note_on_c, 0, 52, 39
1, 207466, Note_on_c, 0, 56, 48
1, 207504, Note_on_c, 0, 52, 0
1, 207514, Note_on_c, 0, 59, 0
1, 207571, Note_on_c, 0, 47, 68
1, 207587, Control_c, 0, 67, 57
1, 207611, Note_on_c, 0, 37, 0
1, 207626, Note_on_c, 0, 56, 0
1, 207626, Poly_aftertouch_c, 0, 56, 0
1, 207642, Control_c, 0, 67, 62
1, 207681, Control_c, 0, 64, 105
1, 207683, Control_c, 0, 67, 66
1, 207703, Note_on_c, 0, 49, 59
1, 207705, Note_on_c, 0, 53, 58
1, 207719, Control_c, 0, 64, 98
1, 207721, Control_c, 0, 67, 71
1, 207737, Control_c, 0, 64, 89
1, 207756, Control_c, 0, 64, 78
1, 207757, Note_on_c, 0, 49, 0
1, 207757, Poly_aftertouch_c, 0, 49, 0
1, 207773, Control_c, 0, 64, 64
1, 207774, Control_c, 0, 67, 75
1, 207777, Note_on_c, 0, 53, 0
1, 207777, Poly_aftertouch_c, 0, 53, 0
1, 207789, Note_on_c, 0, 47, 0
1, 207789, Poly_aftertouch_c, 0, 47, 0
1, 207793, Control_c, 0, 64, 43
1, 207811, Control_c, 0, 64, 0
1, 207820, Note_on_c, 0, 37, 60
1, 207848, Control_c, 0, 67, 80
1, 207923, Control_c, 0, 64, 15
1, 207942, Control_c, 0, 64, 34
1, 207961, Control_c, 0, 64, 49
1, 207980, Control_c, 0, 64, 59
1, 207985, Note_on_c, 0, 59, 62
1, 207998, Control_c, 0, 64, 67
1, 208005, Note_on_c, 0, 53, 45
1, 208009, Note_on_c, 0, 56, 42
1, 208017, Control_c, 0, 64, 71
1, 208018, Control_c, 0, 67, 84
1, 208035, Control_c, 0, 64, 74
1, 208055, Control_c, 0, 64, 77
1, 208068, Note_on_c, 0, 56, 0
1, 208068, Poly_aftertouch_c, 0, 56, 0
1, 208070, Note_on_c, 0, 53, 0
1, 208070, Poly_aftertouch_c, 0, 53, 0
1, 208072, Control_c, 0, 64, 80
1, 208074, Control_c, 0, 67, 89
1, 208092, Control_c, 0, 64, 83
1, 208096, Note_on_c, 0, 59, 0
1, 208110, Control_c, 0, 64, 85
1, 208129, Control_c, 0, 64, 87
1, 208131, Control_c, 0, 67, 94
1, 208166, Control_c, 0, 64, 93
1, 208185, Control_c, 0, 67, 99
1, 208204, Control_c, 0, 64, 98
1, 208241, Control_c, 0, 67, 104
1, 208298, Control_c, 0, 67, 108
1, 208363, Note_on_c, 0, 58, 48
1, 208364, Note_on_c, 0, 52, 46
1, 208381, Note_on_c, 0, 55, 30
1, 208428, Note_on_c, 0, 55, 0
1, 208428, Note_on_c, 0, 52, 0
1, 208428, Poly_aftertouch_c, 0, 55, 0
1, 208465, Control_c, 0, 67, 112
1, 208473, Note_on_c, 0, 58, 0
1, 208500, Note_on_c, 0, 46, 62
1, 208512, Note_on_c, 0, 37, 0
1, 208540, Control_c, 0, 67, 116
1, 208597, Control_c, 0, 64, 94
1, 208598, Control_c, 0, 67, 121
1, 208633, Note_on_c, 0, 53, 57
1, 208633, Control_c, 0, 64, 88
1, 208642, Note_on_c, 0, 49, 52
1, 208653, Control_c, 0, 64, 81
1, 208654, Control_c, 0, 67, 125
1, 208671, Control_c, 0, 64, 72
1, 208690, Control_c, 0, 64, 59
1, 208705, Note_on_c, 0, 49, 0
1, 208705, Poly_aftertouch_c, 0, 49, 0
1, 208708, Control_c, 0, 64, 33
1, 208722, Note_on_c, 0, 53, 0
1, 208722, Poly_aftertouch_c, 0, 53, 0
1, 208727, Note_on_c, 0, 46, 0
1, 208727, Poly_aftertouch_c, 0, 46, 0
1, 208727, Control_c, 0, 64, 0
1, 208764, Note_on_c, 0, 37, 59
1, 208858, Control_c, 0, 64, 22
1, 208877, Control_c, 0, 64, 36
1, 208896, Control_c, 0, 64, 46
1, 208913, Note_on_c, 0, 59, 58
1, 208913, Control_c, 0, 64, 54
1, 208933, Control_c, 0, 64, 61
1, 208941, Note_on_c, 0, 53, 43
1, 208943, Note_on_c, 0, 56, 42
1, 208952, Control_c, 0, 64, 67
1, 208970, Control_c, 0, 64, 70
1, 208989, Control_c, 0, 64, 73
1, 209008, Control_c, 0, 64, 75
1, 209012, Note_on_c, 0, 53, 0
1, 209012, Poly_aftertouch_c, 0, 53, 0
1, 209015, Note_on_c, 0, 56, 0
1, 209015, Poly_aftertouch_c, 0, 56, 0
1, 209016, Note_on_c, 0, 59, 0
1, 209045, Control_c, 0, 64, 78
1, 209063, Control_c, 0, 64, 80
1, 209102, Control_c, 0, 64, 83
1, 209120, Control_c, 0, 64, 85
1, 209159, Control_c, 0, 64, 88
1, 209295, Note_on_c, 0, 58, 47
1, 209297, Note_on_c, 0, 52, 41
1, 209308, Note_on_c, 0, 55, 33
1, 209353, Note_on_c, 0, 55, 0
1, 209353, Poly_aftertouch_c, 0, 55, 0
1, 209363, Note_on_c, 0, 52, 0
1, 209391, Note_on_c, 0, 58, 0
1, 209429, Note_on_c, 0, 46, 50
1, 209497, Note_on_c, 0, 37, 0
1, 209571, Note_on_c, 0, 49, 51
1, 209575, Note_on_c, 0, 53, 50
1, 209617, Note_on_c, 0, 49, 0
1, 209617, Poly_aftertouch_c, 0, 49, 0
1, 209637, Note_on_c, 0, 53, 0
1, 209637, Poly_aftertouch_c, 0, 53, 0
1, 209643, Control_c, 0, 64, 84
1, 209662, Control_c, 0, 64, 81
1, 209675, Note_on_c, 0, 46, 0
1, 209675, Poly_aftertouch_c, 0, 46, 0
1, 209681, Control_c, 0, 64, 74
1, 209696, Note_on_c, 0, 37, 53
1, 209700, Control_c, 0, 64, 58
1, 209718, Control_c, 0, 64, 14
1, 209736, Control_c, 0, 64, 0
1, 209812, Control_c, 0, 64, 13
1, 209831, Control_c, 0, 64, 36
1, 209848, Control_c, 0, 64, 54
1, 209856, Note_on_c, 0, 58, 45
1, 209867, Control_c, 0, 64, 66
1, 209873, Note_on_c, 0, 53, 43
1, 209886, Control_c, 0, 64, 72
1, 209896, Note_on_c, 0, 56, 27
1, 209903, Control_c, 0, 64, 74
1, 209943, Control_c, 0, 64, 78
1, 209952, Note_on_c, 0, 53, 0
1, 209952, Poly_aftertouch_c, 0, 53, 0
1, 209961, Control_c, 0, 64, 80
1, 209963, Note_on_c, 0, 56, 0
1, 209963, Poly_aftertouch_c, 0, 56, 0
1, 209977, Note_on_c, 0, 58, 0
1, 209999, Control_c, 0, 64, 83
1, 210073, Control_c, 0, 64, 85
1, 210277, Note_on_c, 0, 52, 36
1, 210296, Note_on_c, 0, 57, 29
1, 210299, Note_on_c, 0, 55, 26
1, 210304, Note_on_c, 0, 37, 0
1, 210326, Note_on_c, 0, 52, 0
1, 210410, Control_c, 0, 64, 83
1, 210419, Note_on_c, 0, 45, 42
1, 210448, Control_c, 0, 64, 80
1, 210477, Note_on_c, 0, 57, 0
1, 210477, Poly_aftertouch_c, 0, 57, 0
1, 210485, Control_c, 0, 64, 75
1, 210504, Control_c, 0, 64, 71
1, 210521, Control_c, 0, 64, 67
1, 210534, Note_on_c, 0, 55, 0
1, 210534, Poly_aftertouch_c, 0, 55, 0
1, 210535, Poly_aftertouch_c, 0, 55, 0
1, 210541, Control_c, 0, 64, 61
1, 210559, Control_c, 0, 64, 50
1, 210574, Note_on_c, 0, 49, 42
1, 210579, Control_c, 0, 64, 33
1, 210582, Note_on_c, 0, 53, 38
1, 210617, Control_c, 0, 64, 43
1, 210635, Control_c, 0, 64, 50
1, 210645, Note_on_c, 0, 49, 0
1, 210645, Poly_aftertouch_c, 0, 49, 0
1, 210652, Control_c, 0, 64, 58
1, 210659, Note_on_c, 0, 53, 0
1, 210659, Poly_aftertouch_c, 0, 53, 0
1, 210671, Control_c, 0, 64, 64
1, 210691, Control_c, 0, 64, 67
1, 210708, Note_on_c, 0, 45, 0
1, 210731, Note_on_c, 0, 37, 41
1, 210784, Control_c, 0, 64, 68
1, 210803, Control_c, 0, 64, 66
1, 210822, Control_c, 0, 64, 61
1, 210841, Control_c, 0, 64, 49
1, 210858, Control_c, 0, 64, 29
1, 210886, Note_on_c, 0, 58, 42
1, 210895, Control_c, 0, 64, 38
1, 210898, Note_on_c, 0, 53, 37
1, 210915, Control_c, 0, 64, 46
1, 210921, Note_on_c, 0, 56, 32
1, 210933, Control_c, 0, 64, 57
1, 210953, Control_c, 0, 64, 67
1, 210971, Control_c, 0, 64, 72
1, 210989, Note_on_c, 0, 56, 0
1, 210989, Poly_aftertouch_c, 0, 56, 0
1, 210989, Control_c, 0, 64, 76
1, 211009, Control_c, 0, 64, 78
1, 211018, Note_on_c, 0, 53, 0
1, 211018, Note_on_c, 0, 58, 0
1, 211018, Poly_aftertouch_c, 0, 53, 0
1, 211027, Control_c, 0, 64, 81
1, 211047, Control_c, 0, 64, 85
1, 211084, Control_c, 0, 64, 92
1, 211121, Control_c, 0, 64, 98
1, 211159, Control_c, 0, 64, 103
1, 211197, Control_c, 0, 64, 108
1, 211289, Control_c, 0, 64, 113
1, 211360, Note_on_c, 0, 52, 37
1, 211374, Note_on_c, 0, 57, 29
1, 211381, Note_on_c, 0, 55, 26
1, 211448, Note_on_c, 0, 52, 0
1, 211496, Control_c, 0, 67, 120
1, 211531, Control_c, 0, 67, 116
1, 211542, Note_on_c, 0, 45, 40
1, 211569, Control_c, 0, 67, 110
1, 211589, Control_c, 0, 64, 108
1, 211606, Control_c, 0, 64, 99
1, 211607, Control_c, 0, 67, 104
1, 211626, Control_c, 0, 64, 83
1, 211645, Control_c, 0, 64, 61
1, 211646, Control_c, 0, 67, 98
1, 211659, Poly_aftertouch_c, 0, 55, 24
1, 211663, Control_c, 0, 64, 25
1, 211665, Control_c, 0, 67, 94
1, 211681, Control_c, 0, 64, 0
1, 211684, Control_c, 0, 67, 90
1, 211700, Control_c, 0, 67, 85
1, 211719, Control_c, 0, 67, 80
1, 211738, Control_c, 0, 67, 76
1, 211756, Control_c, 0, 67, 71
1, 211776, Control_c, 0, 64, 21
1, 211777, Control_c, 0, 67, 66
1, 211794, Control_c, 0, 64, 40
1, 211795, Control_c, 0, 67, 62
1, 211812, Control_c, 0, 64, 52
1, 211813, Control_c, 0, 67, 58
1, 211834, Control_c, 0, 64, 61
1, 211835, Control_c, 0, 67, 54
1, 211839, Note_on_c, 0, 53, 30
1, 211839, Note_on_c, 0, 49, 38
1, 211851, Control_c, 0, 64, 69
1, 211868, Control_c, 0, 64, 73
1, 211888, Control_c, 0, 64, 76
1, 211889, Control_c, 0, 67, 48
1, 211906, Control_c, 0, 64, 81
1, 211907, Note_on_c, 0, 55, 0
1, 211907, Poly_aftertouch_c, 0, 55, 0
1, 211911, Note_on_c, 0, 57, 0
1, 211911, Poly_aftertouch_c, 0, 57, 0
1, 211926, Control_c, 0, 64, 85
1, 211929, Control_c, 0, 67, 43
1, 211941, Note_on_c, 0, 49, 0
1, 211941, Poly_aftertouch_c, 0, 49, 0
1, 211942, Control_c, 0, 64, 90
1, 211945, Poly_aftertouch_c, 0, 37, 24
1, 211963, Control_c, 0, 67, 37
1, 211964, Note_on_c, 0, 53, 0
1, 211964, Poly_aftertouch_c, 0, 53, 0
1, 211981, Control_c, 0, 64, 96
1, 211999, Note_on_c, 0, 37, 0
1, 211999, Poly_aftertouch_c, 0, 37, 0
1, 211999, Control_c, 0, 64, 100
1, 212000, Control_c, 0, 67, 30
1, 212018, Control_c, 0, 64, 104
1, 212037, Control_c, 0, 67, 25
1, 212055, Note_on_c, 0, 45, 0
1, 212056, Control_c, 0, 64, 111
1, 212074, Control_c, 0, 64, 116
1, 212076, Control_c, 0, 67, 17
1, 212112, Control_c, 0, 64, 123
1, 212113, Control_c, 0, 67, 10
1, 212149, Control_c, 0, 64, 127
1, 212412, Control_c, 0, 67, 0
1, 212611, Note_on_c, 0, 69, 67
1, 213117, Note_on_c, 0, 68, 70
1, 213257, Note_on_c, 0, 69, 0
1, 213372, Note_on_c, 0, 67, 77
1, 213384, Control_c, 0, 64, 121
1, 213402, Control_c, 0, 64, 114
1, 213421, Control_c, 0, 64, 104
1, 213423, Note_on_c, 0, 68, 0
1, 213423, Poly_aftertouch_c, 0, 68, 0
1, 213439, Control_c, 0, 64, 90
1, 213460, Control_c, 0, 64, 67
1, 213476, Control_c, 0, 64, 0
1, 213485, Note_on_c, 0, 50, 56
1, 213571, Control_c, 0, 64, 12
1, 213589, Control_c, 0, 64, 50
1, 213608, Control_c, 0, 64, 71
1, 213610, Note_on_c, 0, 50, 0
1, 213626, Control_c, 0, 64, 84
1, 213645, Control_c, 0, 64, 92
1, 213660, Note_on_c, 0, 57, 48
1, 213665, Control_c, 0, 64, 101
1, 213683, Control_c, 0, 64, 110
1, 213701, Control_c, 0, 64, 121
1, 213720, Control_c, 0, 64, 127
1, 213763, Note_on_c, 0, 67, 0
1, 213852, Note_on_c, 0, 65, 73
1, 213982, Control_c, 0, 64, 115
1, 214000, Control_c, 0, 64, 80
1, 214019, Control_c, 0, 64, 47
1, 214057, Control_c, 0, 64, 62
1, 214075, Control_c, 0, 64, 80
1, 214093, Control_c, 0, 64, 96
1, 214113, Control_c, 0, 64, 122
1, 214132, Control_c, 0, 64, 127
1, 214177, Note_on_c, 0, 65, 0
1, 214251, Note_on_c, 0, 81, 67
1, 214556, Note_on_c, 0, 80, 64
1, 214561, Note_on_c, 0, 62, 72
1, 214575, Note_on_c, 0, 81, 0
1, 214601, Note_on_c, 0, 57, 0
1, 214601, Poly_aftertouch_c, 0, 57, 0
1, 214644, Note_on_c, 0, 80, 0
1, 214644, Poly_aftertouch_c, 0, 80, 0
1, 214743, Note_on_c, 0, 62, 0
1, 214859, Note_on_c, 0, 57, 59
1, 214861, Note_on_c, 0, 79, 63
1, 214882, Note_on_c, 0, 57, 0
1, 214882, Poly_aftertouch_c, 0, 57, 0
1, 215119, Note_on_c, 0, 78, 71
1, 215136, Note_on_c, 0, 69, 48
1, 215140, Note_on_c, 0, 79, 0
1, 215140, Poly_aftertouch_c, 0, 79, 0
1, 215179, Note_on_c, 0, 69, 0
1, 215196, Note_on_c, 0, 38, 60
1, 215380, Note_on_c, 0, 77, 73
1, 215381, Note_on_c, 0, 68, 63
1, 215391, Note_on_c, 0, 45, 58
1, 215419, Note_on_c, 0, 78, 0
1, 215421, Note_on_c, 0, 68, 0
1, 215421, Poly_aftertouch_c, 0, 68, 0
1, 215437, Note_on_c, 0, 77, 0
1, 215437, Poly_aftertouch_c, 0, 78, 0
1, 215437, Poly_aftertouch_c, 0, 77, 0
1, 215596, Note_on_c, 0, 38, 0
1, 215596, Poly_aftertouch_c, 0, 38, 0
1, 215623, Note_on_c, 0, 45, 0
1, 215625, Note_on_c, 0, 76, 75
1, 215638, Note_on_c, 0, 67, 58
1, 215642, Note_on_c, 0, 50, 68
1, 215654, Note_on_c, 0, 76, 0
1, 215671, Note_on_c, 0, 67, 0
1, 215686, Note_on_c, 0, 50, 0
1, 215875, Note_on_c, 0, 45, 71
1, 215973, Poly_aftertouch_c, 0, 65, 127
1, 216005, Poly_aftertouch_c, 0, 65, 0
1, 216144, Note_on_c, 0, 69, 65
1, 216146, Note_on_c, 0, 65, 66
1, 216154, Note_on_c, 0, 57, 70
1, 216217, Note_on_c, 0, 57, 0
1, 216217, Poly_aftertouch_c, 0, 57, 0
1, 216431, Note_on_c, 0, 65, 0
1, 216485, Note_on_c, 0, 57, 56
1, 216489, Note_on_c, 0, 56, 72
1, 216505, Control_c, 0, 64, 115
1, 216525, Control_c, 0, 64, 102
1, 216543, Control_c, 0, 64, 85
1, 216562, Control_c, 0, 64, 64
1, 216581, Control_c, 0, 64, 34
1, 216599, Control_c, 0, 64, 0
1, 216636, Control_c, 0, 64, 29
1, 216656, Control_c, 0, 64, 51
1, 216674, Control_c, 0, 64, 68
1, 216693, Control_c, 0, 64, 81
1, 216711, Control_c, 0, 64, 90
1, 216731, Control_c, 0, 64, 96
1, 216749, Control_c, 0, 64, 102
1, 216756, Note_on_c, 0, 56, 0
1, 216756, Poly_aftertouch_c, 0, 56, 0
1, 216767, Control_c, 0, 64, 107
1, 216786, Control_c, 0, 64, 112
1, 216805, Control_c, 0, 64, 117
1, 216824, Control_c, 0, 64, 121
1, 216842, Control_c, 0, 64, 125
1, 216907, Note_on_c, 0, 64, 56
1, 217219, Note_on_c, 0, 69, 0
1, 217229, Note_on_c, 0, 63, 60
1, 217251, Note_on_c, 0, 55, 57
1, 217260, Poly_aftertouch_c, 0, 45, 24
1, 217275, Note_on_c, 0, 45, 0
1, 217275, Poly_aftertouch_c, 0, 45, 0
1, 217278, Note_on_c, 0, 64, 0
1, 217291, Note_on_c, 0, 55, 0
1, 217291, Poly_aftertouch_c, 0, 55, 0
1, 217352, Note_on_c, 0, 63, 0
1, 217352, Poly_aftertouch_c, 0, 63, 0
1, 217362, Note_on_c, 0, 57, 0
1, 217362, Poly_aftertouch_c, 0, 57, 0
1, 217617, Note_on_c, 0, 38, 68
1, 217684, Control_c, 0, 64, 116
1, 217702, Control_c, 0, 64, 105
1, 217721, Control_c, 0, 64, 84
1, 217741, Control_c, 0, 64, 58
1, 217759, Control_c, 0, 64, 33
1, 217771, Note_on_c, 0, 62, 66
1, 217788, Note_on_c, 0, 55, 49
1, 217796, Note_on_c, 0, 57, 50
1, 217796, Control_c, 0, 64, 21
1, 217814, Control_c, 0, 64, 40
1, 217833, Control_c, 0, 64, 58
1, 217852, Control_c, 0, 64, 74
1, 217871, Control_c, 0, 64, 85
1, 217890, Control_c, 0, 64, 96
1, 217907, Control_c, 0, 64, 108
1, 217920, Note_on_c, 0, 55, 0
1, 217920, Poly_aftertouch_c, 0, 55, 0
1, 217926, Control_c, 0, 64, 119
1, 217945, Control_c, 0, 64, 127
1, 217962, Note_on_c, 0, 57, 0
1, 217962, Poly_aftertouch_c, 0, 57, 0
1, 218060, Note_on_c, 0, 61, 76
1, 218072, Note_on_c, 0, 62, 0
1, 218072, Note_on_c, 0, 54, 57
1, 218077, Note_on_c, 0, 57, 50
1, 218117, Note_on_c, 0, 54, 0
1, 218117, Poly_aftertouch_c, 0, 54, 0
1, 218120, Note_on_c, 0, 57, 0
1, 218120, Poly_aftertouch_c, 0, 57, 0
1, 218197, Note_on_c, 0, 49, 77
1, 218221, Note_on_c, 0, 38, 0
1, 218221, Poly_aftertouch_c, 0, 38, 0
1, 218293, Note_on_c, 0, 61, 0
1, 218310, Note_on_c, 0, 49, 0
1, 218310, Poly_aftertouch_c, 0, 49, 0
1, 218321, Note_on_c, 0, 56, 69
1, 218324, Note_on_c, 0, 53, 68
1, 218364, Note_on_c, 0, 53, 0
1, 218364, Poly_aftertouch_c, 0, 53, 0
1, 218394, Control_c, 0, 64, 117
1, 218413, Control_c, 0, 64, 103
1, 218429, Note_on_c, 0, 56, 0
1, 218429, Poly_aftertouch_c, 0, 56, 0
1, 218431, Control_c, 0, 64, 85
1, 218450, Control_c, 0, 64, 65
1, 218457, Note_on_c, 0, 38, 73
1, 218469, Control_c, 0, 64, 43
1, 218488, Control_c, 0, 64, 0
1, 218598, Note_on_c, 0, 62, 65
1, 218600, Control_c, 0, 64, 8
1, 218621, Note_on_c, 0, 57, 56
1, 218622, Note_on_c, 0, 55, 49
1, 218622, Control_c, 0, 64, 34
1, 218638, Control_c, 0, 64, 53
1, 218655, Control_c, 0, 64, 66
1, 218675, Control_c, 0, 64, 74
1, 218677, Note_on_c, 0, 55, 0
1, 218677, Poly_aftertouch_c, 0, 55, 0
1, 218694, Control_c, 0, 64, 78
1, 218713, Control_c, 0, 64, 83
1, 218731, Control_c, 0, 64, 91
1, 218749, Control_c, 0, 64, 102
1, 218769, Control_c, 0, 64, 112
1, 218770, Note_on_c, 0, 57, 0
1, 218770, Poly_aftertouch_c, 0, 57, 0
1, 218787, Control_c, 0, 64, 118
1, 218824, Control_c, 0, 64, 123
1, 218863, Control_c, 0, 64, 127
1, 218880, Note_on_c, 0, 62, 0
1, 218885, Note_on_c, 0, 61, 66
1, 218889, Note_on_c, 0, 54, 62
1, 218900, Note_on_c, 0, 57, 46
1, 218918, Control_c, 0, 67, 9
1, 218944, Note_on_c, 0, 54, 0
1, 218944, Poly_aftertouch_c, 0, 54, 0
1, 218958, Note_on_c, 0, 57, 0
1, 218958, Poly_aftertouch_c, 0, 57, 0
1, 219007, Note_on_c, 0, 49, 73
1, 219030, Control_c, 0, 64, 123
1, 219030, Control_c, 0, 67, 14
1, 219067, Control_c, 0, 64, 116
1, 219087, Control_c, 0, 64, 110
1, 219105, Control_c, 0, 64, 103
1, 219123, Control_c, 0, 64, 96
1, 219135, Note_on_c, 0, 53, 58
1, 219141, Control_c, 0, 64, 88
1, 219144, Note_on_c, 0, 56, 64
1, 219158, Note_on_c, 0, 38, 0
1, 219158, Poly_aftertouch_c, 0, 38, 0
1, 219159, Note_on_c, 0, 61, 0
1, 219161, Note_on_c, 0, 49, 0
1, 219161, Poly_aftertouch_c, 0, 49, 0
1, 219161, Control_c, 0, 64, 80
1, 219163, Control_c, 0, 67, 18
1, 219180, Control_c, 0, 64, 74
1, 219190, Note_on_c, 0, 53, 0
1, 219190, Poly_aftertouch_c, 0, 53, 0
1, 219198, Control_c, 0, 64, 71
1, 219199, Control_c, 0, 67, 25
1, 219217, Control_c, 0, 64, 68
1, 219219, Control_c, 0, 67, 29
1, 219236, Control_c, 0, 64, 62
1, 219237, Note_on_c, 0, 56, 0
1, 219237, Poly_aftertouch_c, 0, 56, 0
1, 219237, Control_c, 0, 67, 33
1, 219255, Control_c, 0, 64, 53
1, 219257, Control_c, 0, 67, 37
1, 219270, Note_on_c, 0, 38, 67
1, 219272, Control_c, 0, 64, 28
1, 219273, Control_c, 0, 67, 41
1, 219292, Control_c, 0, 64, 0
1, 219293, Control_c, 0, 67, 45
1, 219329, Control_c, 0, 67, 50
1, 219415, Note_on_c, 0, 61, 63
1, 219426, Note_on_c, 0, 54, 52
1, 219427, Note_on_c, 0, 57, 51
1, 219441, Control_c, 0, 64, 22
1, 219460, Control_c, 0, 64, 45
1, 219478, Control_c, 0, 64, 66
1, 219498, Control_c, 0, 64, 79
1, 219515, Note_on_c, 0, 54, 0
1, 219515, Poly_aftertouch_c, 0, 54, 0
1, 219515, Control_c, 0, 64, 84
1, 219535, Control_c, 0, 64, 90
1, 219555, Control_c, 0, 64, 98
1, 219556, Control_c, 0, 67, 54
1, 219572, Control_c, 0, 64, 106
1, 219576, Note_on_c, 0, 61, 0
1, 219591, Control_c, 0, 64, 110
1, 219680, Note_on_c, 0, 57, 0
1, 219680, Poly_aftertouch_c, 0, 57, 0
1, 219731, Note_on_c, 0, 56, 53
1, 219736, Note_on_c, 0, 53, 55
1, 219737, Note_on_c, 0, 60, 55
1, 219781, Note_on_c, 0, 53, 0
1, 219781, Poly_aftertouch_c, 0, 53, 0
1, 219798, Note_on_c, 0, 56, 0
1, 219798, Poly_aftertouch_c, 0, 56, 0
1, 219852, Control_c, 0, 64, 106
1, 219852, Control_c, 0, 67, 58
1, 219854, Note_on_c, 0, 48, 69
1, 219941, Note_on_c, 0, 38, 0
1, 219941, Poly_aftertouch_c, 0, 38, 0
1, 219983, Control_c, 0, 64, 102
1, 219988, Note_on_c, 0, 52, 56
1, 219989, Note_on_c, 0, 55, 60
1, 220003, Note_on_c, 0, 60, 0
1, 220021, Control_c, 0, 64, 98
1, 220023, Note_on_c, 0, 52, 0
1, 220024, Control_c, 0, 67, 63
1, 220034, Note_on_c, 0, 55, 0
1, 220034, Poly_aftertouch_c, 0, 55, 0
1, 220052, Note_on_c, 0, 48, 0
1, 220052, Poly_aftertouch_c, 0, 48, 0
1, 220058, Control_c, 0, 64, 90
1, 220077, Control_c, 0, 64, 85
1, 220079, Control_c, 0, 67, 68
1, 220096, Control_c, 0, 64, 79
1, 220113, Note_on_c, 0, 38, 61
1, 220115, Control_c, 0, 64, 69
1, 220133, Control_c, 0, 64, 54
1, 220152, Control_c, 0, 64, 0
1, 220246, Control_c, 0, 64, 15
1, 220265, Control_c, 0, 64, 39
1, 220272, Note_on_c, 0, 61, 53
1, 220273, Note_on_c, 0, 54, 49
1, 220283, Control_c, 0, 64, 57
1, 220285, Note_on_c, 0, 57, 48
1, 220285, Control_c, 0, 67, 72
1, 220303, Control_c, 0, 64, 68
1, 220320, Control_c, 0, 64, 73
1, 220338, Control_c, 0, 64, 75
1, 220376, Control_c, 0, 64, 79
1, 220377, Note_on_c, 0, 54, 0
1, 220377, Poly_aftertouch_c, 0, 54, 0
1, 220395, Control_c, 0, 64, 81
1, 220397, Control_c, 0, 67, 76
1, 220414, Control_c, 0, 64, 83
1, 220439, Note_on_c, 0, 61, 0
1, 220452, Control_c, 0, 67, 81
1, 220470, Control_c, 0, 64, 85
1, 220476, Note_on_c, 0, 57, 0
1, 220476, Poly_aftertouch_c, 0, 57, 0
1, 220563, Control_c, 0, 67, 86
1, 220606, Note_on_c, 0, 60, 51
1, 220607, Note_on_c, 0, 56, 47
1, 220609, Note_on_c, 0, 53, 44
1, 220669, Note_on_c, 0, 53, 0
1, 220669, Poly_aftertouch_c, 0, 53, 0
1, 220671, Note_on_c, 0, 56, 0
1, 220671, Poly_aftertouch_c, 0, 56, 0
1, 220694, Control_c, 0, 67, 90
1, 220700, Note_on_c, 0, 60, 0
1, 220737, Note_on_c, 0, 48, 60
1, 220769, Control_c, 0, 67, 95
1, 220817, Note_on_c, 0, 38, 0
1, 220817, Poly_aftertouch_c, 0, 38, 0
1, 220825, Control_c, 0, 64, 83
1, 220826, Control_c, 0, 67, 100
1, 220862, Control_c, 0, 64, 80
1, 220876, Note_on_c, 0, 52, 42
1, 220878, Note_on_c, 0, 55, 45
1, 220881, Control_c, 0, 64, 78
1, 220883, Control_c, 0, 67, 105
1, 220900, Control_c, 0, 64, 74
1, 220902, Note_on_c, 0, 48, 0
1, 220902, Poly_aftertouch_c, 0, 48, 0
1, 220919, Control_c, 0, 64, 67
1, 220935, Note_on_c, 0, 52, 0
1, 220936, Control_c, 0, 64, 51
1, 220956, Control_c, 0, 64, 0
1, 220975, Control_c, 0, 67, 109
1, 220980, Note_on_c, 0, 55, 0
1, 220980, Poly_aftertouch_c, 0, 55, 0
1, 221001, Note_on_c, 0, 38, 53
1, 221068, Control_c, 0, 64, 29
1, 221087, Control_c, 0, 64, 48
1, 221106, Control_c, 0, 64, 59
1, 221124, Control_c, 0, 64, 65
1, 221126, Control_c, 0, 67, 113
1, 221144, Control_c, 0, 64, 68
1, 221181, Control_c, 0, 64, 71
1, 221190, Note_on_c, 0, 53, 45
1, 221198, Note_on_c, 0, 60, 41
1, 221200, Control_c, 0, 64, 73
1, 221236, Control_c, 0, 64, 75
1, 221258, Note_on_c, 0, 53, 0
1, 221258, Poly_aftertouch_c, 0, 53, 0
1, 221273, Control_c, 0, 64, 77
1, 221293, Control_c, 0, 67, 117
1, 221303, Note_on_c, 0, 60, 0
1, 221305, Poly_aftertouch_c, 0, 56, 127
1, 221311, Control_c, 0, 64, 81
1, 221325, Poly_aftertouch_c, 0, 56, 0
1, 221349, Control_c, 0, 64, 83
1, 221387, Control_c, 0, 67, 121
1, 221521, Note_on_c, 0, 56, 35
1, 221527, Note_on_c, 0, 59, 35
1, 221544, Note_on_c, 0, 52, 23
1, 221583, Note_on_c, 0, 59, 0
1, 221585, Note_on_c, 0, 52, 0
1, 221591, Control_c, 0, 67, 125
1, 221651, Note_on_c, 0, 47, 49
1, 221719, Note_on_c, 0, 38, 0
1, 221719, Poly_aftertouch_c, 0, 38, 0
1, 221724, Control_c, 0, 64, 81
1, 221779, Control_c, 0, 64, 79
1, 221798, Control_c, 0, 64, 77
1, 221799, Note_on_c, 0, 56, 0
1, 221809, Note_on_c, 0, 51, 42
1, 221811, Note_on_c, 0, 55, 45
1, 221816, Control_c, 0, 64, 70
1, 221835, Control_c, 0, 64, 56
1, 221854, Control_c, 0, 64, 33
1, 221865, Note_on_c, 0, 51, 0
1, 221865, Poly_aftertouch_c, 0, 51, 0
1, 221891, Control_c, 0, 64, 38
1, 221899, Note_on_c, 0, 47, 0
1, 221899, Poly_aftertouch_c, 0, 47, 0
1, 221911, Control_c, 0, 64, 47
1, 221928, Control_c, 0, 64, 56
1, 221946, Control_c, 0, 64, 65
1, 221957, Note_on_c, 0, 38, 44
1, 221965, Control_c, 0, 64, 71
1, 221985, Control_c, 0, 64, 75
1, 222008, Note_on_c, 0, 55, 0
1, 222008, Poly_aftertouch_c, 0, 55, 0
1, 222098, Control_c, 0, 64, 73
1, 222116, Control_c, 0, 64, 66
1, 222133, Control_c, 0, 64, 53
1, 222135, Note_on_c, 0, 60, 40
1, 222137, Note_on_c, 0, 53, 38
1, 222152, Control_c, 0, 64, 22
1, 222171, Note_on_c, 0, 56, 27
1, 222171, Control_c, 0, 64, 0
1, 222191, Control_c, 0, 64, 20
1, 222208, Control_c, 0, 64, 35
1, 222228, Control_c, 0, 64, 49
1, 222229, Control_c, 0, 67, 121
1, 222245, Note_on_c, 0, 53, 0
1, 222245, Poly_aftertouch_c, 0, 53, 0
1, 222245, Control_c, 0, 64, 61
1, 222265, Control_c, 0, 64, 71
1, 222278, Note_on_c, 0, 56, 0
1, 222282, Note_on_c, 0, 60, 0
1, 222284, Control_c, 0, 64, 75
1, 222302, Control_c, 0, 64, 78
1, 222302, Control_c, 0, 67, 117
1, 222321, Control_c, 0, 64, 81
1, 222340, Control_c, 0, 64, 85
1, 222343, Control_c, 0, 67, 113
1, 222358, Control_c, 0, 64, 88
1, 222378, Control_c, 0, 67, 109
1, 222396, Control_c, 0, 64, 93
1, 222433, Control_c, 0, 64, 97
1, 222434, Control_c, 0, 67, 103
1, 222470, Control_c, 0, 67, 97
1, 222509, Control_c, 0, 64, 101
1, 222510, Control_c, 0, 67, 91
1, 222536, Note_on_c, 0, 59, 38
1, 222546, Control_c, 0, 64, 108
1, 222547, Control_c, 0, 67, 86
1, 222550, Note_on_c, 0, 56, 28
1, 222554, Note_on_c, 0, 52, 34
1, 222564, Control_c, 0, 64, 112
1, 222601, Control_c, 0, 67, 80
1, 222607, Note_on_c, 0, 59, 0
1, 222620, Control_c, 0, 64, 116
1, 222625, Note_on_c, 0, 52, 0
1, 222639, Control_c, 0, 67, 75
1, 222657, Control_c, 0, 64, 121
1, 222676, Control_c, 0, 67, 70
1, 222702, Note_on_c, 0, 47, 39
1, 222714, Control_c, 0, 64, 125
1, 222715, Control_c, 0, 67, 64
1, 222751, Control_c, 0, 67, 56
1, 222770, Control_c, 0, 67, 51
1, 222788, Control_c, 0, 67, 44
1, 222807, Control_c, 0, 67, 37
1, 222826, Control_c, 0, 67, 30
1, 222845, Control_c, 0, 67, 22
1, 222859, Note_on_c, 0, 51, 44
1, 222864, Control_c, 0, 67, 13
1, 222867, Note_on_c, 0, 55, 38
1, 222895, Poly_aftertouch_c, 0, 56, 24
1, 222930, Note_on_c, 0, 55, 0
1, 222930, Poly_aftertouch_c, 0, 55, 0
1, 222933, Note_on_c, 0, 51, 0
1, 222933, Poly_aftertouch_c, 0, 51, 0
1, 222941, Note_on_c, 0, 56, 0
1, 222941, Poly_aftertouch_c, 0, 56, 0
1, 222970, Note_on_c, 0, 38, 0
1, 222970, Poly_aftertouch_c, 0, 38, 0
1, 222976, Control_c, 0, 67, 0
1, 223047, Note_on_c, 0, 47, 0
1, 223047, Poly_aftertouch_c, 0, 47, 0
1, 223376, Note_on_c, 0, 71, 77
1, 223808, Note_on_c, 0, 70, 84
1, 223866, Note_on_c, 0, 71, 0
1, 223866, Poly_aftertouch_c, 0, 71, 0
1, 224013, Note_on_c, 0, 69, 81
1, 224041, Control_c, 0, 64, 111
1, 224061, Control_c, 0, 64, 71
1, 224078, Control_c, 0, 64, 0
1, 224096, Note_on_c, 0, 70, 0
1, 224098, Note_on_c, 0, 51, 64
1, 224135, Control_c, 0, 64, 44
1, 224150, Note_on_c, 0, 51, 0
1, 224150, Poly_aftertouch_c, 0, 51, 0
1, 224153, Control_c, 0, 64, 78
1, 224172, Control_c, 0, 64, 108
1, 224187, Note_on_c, 0, 59, 66
1, 224191, Control_c, 0, 64, 127
1, 224202, Note_on_c, 0, 69, 0
1, 224288, Note_on_c, 0, 63, 74
1, 224317, Note_on_c, 0, 59, 0
1, 224394, Note_on_c, 0, 68, 84
1, 224587, Note_on_c, 0, 68, 0
1, 224587, Poly_aftertouch_c, 0, 68, 0
1, 224634, Note_on_c, 0, 63, 0
1, 224634, Poly_aftertouch_c, 0, 63, 0
1, 224634, Poly_aftertouch_c, 0, 63, 0
1, 224693, Note_on_c, 0, 87, 84
1, 224722, Note_on_c, 0, 83, 62
1, 224858, Note_on_c, 0, 87, 0
1, 224868, Note_on_c, 0, 83, 0
1, 224956, Note_on_c, 0, 86, 83
1, 224965, Note_on_c, 0, 82, 65
1, 224967, Note_on_c, 0, 63, 69
1, 225090, Note_on_c, 0, 63, 0
1, 225166, Note_on_c, 0, 82, 0
1, 225166, Note_on_c, 0, 85, 77
1, 225174, Note_on_c, 0, 81, 67
1, 225175, Note_on_c, 0, 59, 65
1, 225190, Note_on_c, 0, 86, 0
1, 225204, Note_on_c, 0, 81, 0
1, 225210, Note_on_c, 0, 59, 0
1, 225227, Note_on_c, 0, 85, 0
1, 225414, Note_on_c, 0, 83, 77
1, 225425, Note_on_c, 0, 39, 67
1, 225437, Note_on_c, 0, 80, 59
1, 225627, Note_on_c, 0, 83, 0
1, 225627, Note_on_c, 0, 82, 66
1, 225629, Note_on_c, 0, 47, 74
1, 225641, Note_on_c, 0, 74, 66
1, 225642, Note_on_c, 0, 80, 0
1, 225642, Poly_aftertouch_c, 0, 80, 0
1, 225658, Note_on_c, 0, 82, 0
1, 225681, Note_on_c, 0, 74, 0
1, 225681, Poly_aftertouch_c, 0, 74, 0
1, 225835, Note_on_c, 0, 39, 0
1, 225860, Note_on_c, 0, 75, 65
1, 225880, Note_on_c, 0, 51, 65
1, 225880, Note_on_c, 0, 73, 57
1, 225892, Note_on_c, 0, 47, 0
1, 225892, Poly_aftertouch_c, 0, 47, 0
1, 225916, Note_on_c, 0, 51, 0
1, 225916, Poly_aftertouch_c, 0, 51, 0
1, 226093, Note_on_c, 0, 56, 78
1, 226102, Note_on_c, 0, 71, 68
1, 226123, Note_on_c, 0, 73, 0
1, 226123, Poly_aftertouch_c, 0, 73, 0
1, 226129, Note_on_c, 0, 56, 0
1, 226129, Poly_aftertouch_c, 0, 56, 0
1, 226136, Note_on_c, 0, 71, 0
1, 226136, Poly_aftertouch_c, 0, 71, 0
1, 226494, Note_on_c, 0, 71, 83
1, 226592, Note_on_c, 0, 68, 77
1, 226838, Note_on_c, 0, 68, 0
1, 226838, Poly_aftertouch_c, 0, 68, 0
1, 226955, Note_on_c, 0, 57, 68
1, 226963, Note_on_c, 0, 67, 65
1, 226976, Control_c, 0, 64, 112
1, 226996, Control_c, 0, 64, 68
1, 227015, Control_c, 0, 64, 50
1, 227034, Control_c, 0, 64, 61
1, 227052, Control_c, 0, 64, 77
1, 227071, Control_c, 0, 64, 94
1, 227091, Control_c, 0, 64, 123
1, 227107, Control_c, 0, 64, 127
1, 227154, Note_on_c, 0, 71, 0
1, 227154, Poly_aftertouch_c, 0, 71, 0
1, 227170, Note_on_c, 0, 67, 0
1, 227330, Note_on_c, 0, 70, 81
1, 227446, Note_on_c, 0, 70, 0
1, 227760, Poly_aftertouch_c, 0, 57, 24
1, 227761, Control_c, 0, 67, 8
1, 227837, Control_c, 0, 64, 114
1, 227838, Control_c, 0, 67, 12
1, 227855, Note_on_c, 0, 69, 64
1, 227855, Control_c, 0, 64, 90
1, 227874, Control_c, 0, 64, 56
1, 227882, Note_on_c, 0, 66, 35
1, 227884, Note_on_c, 0, 58, 48
1, 227893, Control_c, 0, 64, 0
1, 227895, Control_c, 0, 67, 17
1, 227906, Note_on_c, 0, 57, 0
1, 227906, Poly_aftertouch_c, 0, 57, 0
1, 227912, Control_c, 0, 64, 23
1, 227931, Control_c, 0, 64, 51
1, 227932, Control_c, 0, 67, 23
1, 227950, Control_c, 0, 64, 74
1, 227969, Control_c, 0, 64, 90
1, 227972, Control_c, 0, 67, 30
1, 227986, Control_c, 0, 64, 113
1, 227988, Control_c, 0, 67, 34
1, 228006, Control_c, 0, 64, 127
1, 228008, Control_c, 0, 67, 39
1, 228025, Control_c, 0, 67, 44
1, 228029, Note_on_c, 0, 69, 0
1, 228043, Control_c, 0, 67, 49
1, 228061, Control_c, 0, 67, 55
1, 228071, Note_on_c, 0, 75, 0
1, 228079, Control_c, 0, 67, 60
1, 228093, Note_on_c, 0, 58, 0
1, 228099, Control_c, 0, 67, 64
1, 228118, Control_c, 0, 67, 68
1, 228156, Control_c, 0, 67, 75
1, 228192, Control_c, 0, 67, 82
1, 228210, Note_on_c, 0, 66, 0
1, 228210, Poly_aftertouch_c, 0, 66, 0
1, 228210, Control_c, 0, 67, 86
1, 228230, Control_c, 0, 67, 90
1, 228248, Control_c, 0, 67, 94
1, 228266, Control_c, 0, 67, 98
1, 228286, Control_c, 0, 67, 102
1, 228323, Control_c, 0, 67, 110
1, 228361, Control_c, 0, 67, 115
1, 228398, Control_c, 0, 67, 119
1, 228454, Control_c, 0, 67, 124
1, 228526, Note_on_c, 0, 40, 33
1, 228620, Note_on_c, 0, 47, 30
1, 228679, Control_c, 0, 64, 122
1, 228701, Note_on_c, 0, 52, 38
1, 228716, Control_c, 0, 64, 117
1, 228755, Control_c, 0, 64, 113
1, 228779, Poly_aftertouch_c, 0, 40, 24
1, 228791, Control_c, 0, 64, 109
1, 228817, Note_on_c, 0, 55, 36
1, 228847, Control_c, 0, 64, 104
1, 228896, Note_on_c, 0, 59, 39
1, 228903, Control_c, 0, 64, 98
1, 228921, Control_c, 0, 64, 91
1, 228941, Control_c, 0, 64, 79
1, 228959, Control_c, 0, 64, 56
1, 228978, Control_c, 0, 64, 16
1, 228996, Control_c, 0, 64, 27
1, 229015, Control_c, 0, 64, 43
1, 229022, Note_on_c, 0, 64, 36
1, 229033, Poly_aftertouch_c, 0, 40, 22
1, 229033, Control_c, 0, 64, 61
1, 229053, Control_c, 0, 64, 76
1, 229071, Control_c, 0, 64, 88
1, 229075, Note_on_c, 0, 40, 0
1, 229075, Poly_aftertouch_c, 0, 40, 0
1, 229090, Control_c, 0, 64, 100
1, 229110, Control_c, 0, 64, 111
1, 229127, Control_c, 0, 64, 118
1, 229158, Poly_aftertouch_c, 0, 47, 24
1, 229163, Control_c, 0, 64, 123
1, 229190, Note_on_c, 0, 55, 0
1, 229190, Poly_aftertouch_c, 0, 55, 0
1, 229210, Note_on_c, 0, 59, 0
1, 229218, Note_on_c, 0, 47, 0
1, 229218, Poly_aftertouch_c, 0, 47, 0
1, 229240, Control_c, 0, 67, 120
1, 229271, Note_on_c, 0, 52, 0
1, 229285, Note_on_c, 0, 67, 53
1, 229316, Note_on_c, 0, 64, 0
1, 229372, Note_on_c, 0, 67, 0
1, 229388, Control_c, 0, 64, 127
1, 230093, Note_on_c, 0, 95, 44
1, 230106, Note_on_c, 0, 91, 32
1, 230163, Note_on_c, 0, 91, 0
1, 230512, Note_on_c, 0, 95, 0
1, 230512, Note_on_c, 0, 94, 51
1, 230530, Note_on_c, 0, 64, 55
1, 230545, Note_on_c, 0, 90, 33
1, 230588, Note_on_c, 0, 94, 0
1, 230592, Note_on_c, 0, 90, 0
1, 230741, Note_on_c, 0, 64, 0
1, 230981, Note_on_c, 0, 59, 52
1, 230996, Note_on_c, 0, 93, 41
1, 231025, Note_on_c, 0, 59, 0
1, 231033, Note_on_c, 0, 89, 17
1, 231079, Note_on_c, 0, 93, 0
1, 231241, Control_c, 0, 67, 124
1, 231280, Poly_aftertouch_c, 0, 89, 24
1, 231316, Note_on_c, 0, 89, 0
1, 231316, Poly_aftertouch_c, 0, 89, 0
1, 231339, Note_on_c, 0, 91, 46
1, 231346, Note_on_c, 0, 28, 47
1, 231367, Note_on_c, 0, 83, 28
1, 231371, Note_on_c, 0, 91, 0
1, 231420, Note_on_c, 0, 83, 0
1, 231640, Note_on_c, 0, 28, 0
1, 231640, Poly_aftertouch_c, 0, 28, 0
1, 231654, Note_on_c, 0, 40, 44
1, 231655, Note_on_c, 0, 82, 44
1, 231656, Note_on_c, 0, 83, 49
1, 231708, Note_on_c, 0, 40, 0
1, 231708, Poly_aftertouch_c, 0, 40, 0
1, 231920, Poly_aftertouch_c, 0, 82, 20
1, 231923, Note_on_c, 0, 82, 0
1, 231923, Note_on_c, 0, 81, 54
1, 231923, Poly_aftertouch_c, 0, 82, 0
1, 231936, Note_on_c, 0, 47, 35
1, 231970, Note_on_c, 0, 81, 0
1, 232023, Note_on_c, 0, 47, 0
1, 232023, Poly_aftertouch_c, 0, 47, 0
1, 232192, Note_on_c, 0, 52, 39
1, 232196, Note_on_c, 0, 79, 46
1, 232241, Note_on_c, 0, 52, 0
1, 232438, Note_on_c, 0, 79, 0
1, 232438, Poly_aftertouch_c, 0, 79, 0
1, 232447, Note_on_c, 0, 82, 50
1, 232456, Note_on_c, 0, 78, 40
1, 232460, Note_on_c, 0, 83, 0
1, 232493, Note_on_c, 0, 59, 41
1, 232499, Note_on_c, 0, 82, 0
1, 232499, Poly_aftertouch_c, 0, 82, 0
1, 232505, Note_on_c, 0, 78, 0
1, 232547, Note_on_c, 0, 59, 0
1, 232735, Note_on_c, 0, 81, 46
1, 232741, Note_on_c, 0, 77, 42
1, 232781, Note_on_c, 0, 81, 0
1, 232794, Note_on_c, 0, 77, 0
1, 232794, Poly_aftertouch_c, 0, 77, 0
1, 233000, Note_on_c, 0, 79, 48
1, 233007, Note_on_c, 0, 47, 33
1, 233016, Note_on_c, 0, 71, 33
1, 233026, Note_on_c, 0, 79, 0
1, 233026, Poly_aftertouch_c, 0, 79, 0
1, 233063, Note_on_c, 0, 71, 0
1, 233063, Poly_aftertouch_c, 0, 71, 0
1, 233306, Poly_aftertouch_c, 0, 47, 22
1, 233329, Note_on_c, 0, 47, 0
1, 233329, Poly_aftertouch_c, 0, 47, 0
1, 233344, Note_on_c, 0, 70, 42
1, 233347, Note_on_c, 0, 52, 40
1, 233354, Note_on_c, 0, 71, 48
1, 233638, Note_on_c, 0, 70, 0
1, 233639, Poly_aftertouch_c, 0, 70, 0
1, 233694, Note_on_c, 0, 69, 51
1, 233931, Note_on_c, 0, 69, 0
1, 233932, Poly_aftertouch_c, 0, 69, 0
1, 234026, Control_c, 0, 64, 123
1, 234082, Note_on_c, 0, 58, 50
1, 234082, Note_on_c, 0, 68, 44
1, 234082, Control_c, 0, 64, 119
1, 234101, Control_c, 0, 64, 113
1, 234120, Control_c, 0, 64, 104
1, 234140, Control_c, 0, 64, 92
1, 234157, Control_c, 0, 64, 76
1, 234176, Control_c, 0, 64, 57
1, 234195, Control_c, 0, 64, 39
1, 234232, Control_c, 0, 64, 52
1, 234250, Control_c, 0, 64, 70
1, 234270, Control_c, 0, 64, 87
1, 234288, Control_c, 0, 64, 103
1, 234306, Control_c, 0, 64, 117
1, 234326, Control_c, 0, 64, 125
1, 234509, Note_on_c, 0, 58, 0
1, 234535, Note_on_c, 0, 67, 46
1, 234539, Note_on_c, 0, 59, 42
1, 234568, Control_c, 0, 64, 116
1, 234588, Control_c, 0, 64, 88
1, 234593, Note_on_c, 0, 68, 0
1, 234593, Poly_aftertouch_c, 0, 68, 0
1, 234606, Control_c, 0, 64, 54
1, 234624, Control_c, 0, 64, 30
1, 234663, Control_c, 0, 64, 46
1, 234681, Control_c, 0, 64, 62
1, 234699, Control_c, 0, 64, 77
1, 234721, Control_c, 0, 64, 88
1, 234722, Note_on_c, 0, 52, 0
1, 234737, Control_c, 0, 64, 100
1, 234755, Control_c, 0, 64, 110
1, 234774, Control_c, 0, 64, 117
1, 234793, Control_c, 0, 64, 121
1, 234849, Control_c, 0, 64, 125
1, 235048, Note_on_c, 0, 61, 43
1, 235074, Control_c, 0, 64, 120
1, 235092, Control_c, 0, 64, 112
1, 235106, Poly_aftertouch_c, 0, 59, 24
1, 235109, Control_c, 0, 64, 91
1, 235129, Control_c, 0, 64, 62
1, 235148, Control_c, 0, 64, 47
1, 235167, Control_c, 0, 64, 50
1, 235185, Control_c, 0, 64, 61
1, 235205, Control_c, 0, 64, 72
1, 235223, Control_c, 0, 64, 80
1, 235242, Control_c, 0, 64, 89
1, 235261, Control_c, 0, 64, 99
1, 235267, Poly_aftertouch_c, 0, 71, 24
1, 235279, Control_c, 0, 64, 108
1, 235298, Control_c, 0, 64, 113
1, 235324, Note_on_c, 0, 71, 0
1, 235324, Poly_aftertouch_c, 0, 71, 0
1, 235336, Control_c, 0, 64, 118
1, 235473, Note_on_c, 0, 67, 0
1, 235543, Note_on_c, 0, 61, 0
1, 235655, Note_on_c, 0, 70, 37
1, 235668, Note_on_c, 0, 62, 28
1, 235671, Control_c, 0, 64, 114
1, 235678, Note_on_c, 0, 66, 25
1, 235709, Control_c, 0, 64, 103
1, 235727, Control_c, 0, 64, 89
1, 235747, Control_c, 0, 64, 67
1, 235765, Control_c, 0, 64, 40
1, 235784, Control_c, 0, 64, 19
1, 235803, Control_c, 0, 64, 28
1, 235821, Control_c, 0, 64, 46
1, 235841, Control_c, 0, 64, 65
1, 235845, Poly_aftertouch_c, 0, 59, 22
1, 235859, Control_c, 0, 64, 78
1, 235878, Control_c, 0, 64, 86
1, 235897, Control_c, 0, 64, 92
1, 235914, Control_c, 0, 64, 97
1, 235952, Control_c, 0, 64, 104
1, 236009, Control_c, 0, 64, 108
1, 236035, Note_on_c, 0, 66, 0
1, 236035, Poly_aftertouch_c, 0, 66, 0
1, 236046, Control_c, 0, 64, 114
1, 236056, Note_on_c, 0, 62, 0
1, 236084, Control_c, 0, 64, 120
1, 236099, Poly_aftertouch_c, 0, 59, 32
1, 236114, Note_on_c, 0, 70, 0
1, 236159, Control_c, 0, 64, 124
1, 236360, Poly_aftertouch_c, 0, 59, 24
1, 236513, Note_on_c, 0, 69, 26
1, 236532, Note_on_c, 0, 65, 20
1, 236547, Note_on_c, 0, 63, 22
1, 236569, Control_c, 0, 64, 120
1, 236606, Control_c, 0, 64, 114
1, 236626, Control_c, 0, 64, 105
1, 236643, Control_c, 0, 64, 86
1, 236663, Control_c, 0, 64, 64
1, 236682, Control_c, 0, 64, 46
1, 236701, Control_c, 0, 64, 37
1, 236738, Control_c, 0, 64, 47
1, 236757, Control_c, 0, 64, 56
1, 236775, Control_c, 0, 64, 65
1, 236794, Control_c, 0, 64, 70
1, 236812, Control_c, 0, 64, 75
1, 236832, Control_c, 0, 64, 79
1, 236849, Control_c, 0, 64, 81
1, 236869, Control_c, 0, 64, 85
1, 236887, Control_c, 0, 64, 88
1, 236924, Control_c, 0, 64, 94
1, 236942, Poly_aftertouch_c, 0, 59, 22
1, 236962, Control_c, 0, 64, 101
1, 236999, Control_c, 0, 64, 106
1, 237036, Control_c, 0, 64, 110
1, 237092, Note_on_c, 0, 59, 0
1, 237092, Poly_aftertouch_c, 0, 59, 0
1, 237093, Poly_aftertouch_c, 0, 59, 0
1, 237093, Control_c, 0, 64, 115
1, 237095, Note_on_c, 0, 69, 0
1, 237168, Control_c, 0, 64, 120
1, 237239, Poly_aftertouch_c, 0, 65, 22
1, 237279, Control_c, 0, 64, 125
1, 237442, Note_on_c, 0, 65, 0
1, 237442, Poly_aftertouch_c, 0, 65, 0
1, 237560, Control_c, 0, 67, 120
1, 237593, Poly_aftertouch_c, 0, 63, 24
1, 237636, Control_c, 0, 67, 116
1, 237667, Note_on_c, 0, 63, 0
1, 237667, Poly_aftertouch_c, 0, 63, 0
1, 237767, Control_c, 0, 67, 111
1, 237879, Control_c, 0, 67, 107
1, 237990, Control_c, 0, 67, 103
1, 238084, Control_c, 0, 67, 99
1, 238332, Note_on_c, 0, 76, 58
1, 238367, Note_on_c, 0, 64, 37
1, 238367, Note_on_c, 0, 67, 31
1, 238369, Note_on_c, 0, 72, 37
1, 238386, Note_on_c, 0, 60, 33
1, 238497, Control_c, 0, 64, 113
1, 238514, Control_c, 0, 64, 94
1, 238515, Control_c, 0, 67, 103
1, 238532, Control_c, 0, 64, 70
1, 238551, Control_c, 0, 64, 64
1, 238571, Control_c, 0, 64, 67
1, 238588, Control_c, 0, 64, 75
1, 238590, Control_c, 0, 67, 109
1, 238608, Control_c, 0, 64, 86
1, 238627, Control_c, 0, 64, 98
1, 238628, Control_c, 0, 67, 114
1, 238633, Note_on_c, 0, 64, 0
1, 238646, Control_c, 0, 64, 108
1, 238663, Control_c, 0, 64, 114
1, 238665, Control_c, 0, 67, 118
1, 238666, Note_on_c, 0, 72, 0
1, 238674, Note_on_c, 0, 60, 0
1, 238682, Control_c, 0, 64, 118
1, 238702, Control_c, 0, 64, 123
1, 238719, Control_c, 0, 64, 127
1, 238720, Control_c, 0, 67, 124
1, 238864, Note_on_c, 0, 67, 0
1, 238894, Note_on_c, 0, 75, 62
1, 238922, Note_on_c, 0, 63, 38
1, 238923, Note_on_c, 0, 66, 37
1, 238939, Note_on_c, 0, 59, 33
1, 238939, Note_on_c, 0, 71, 22
1, 238943, Note_on_c, 0, 76, 0
1, 238979, Note_on_c, 0, 75, 0
1, 238981, Note_on_c, 0, 63, 0
1, 238981, Poly_aftertouch_c, 0, 63, 0
1, 238996, Note_on_c, 0, 59, 0
1, 238999, Note_on_c, 0, 71, 0
1, 238999, Note_on_c, 0, 66, 0
1, 238999, Poly_aftertouch_c, 0, 66, 0
1, 238999, Poly_aftertouch_c, 0, 71, 0
1, 239093, Control_c, 0, 64, 121
1, 239099, Note_on_c, 0, 74, 57
1, 239124, Note_on_c, 0, 69, 47
1, 239130, Control_c, 0, 64, 112
1, 239134, Note_on_c, 0, 57, 39
1, 239146, Note_on_c, 0, 65, 36
1, 239148, Control_c, 0, 64, 98
1, 239170, Control_c, 0, 64, 76
1, 239186, Control_c, 0, 64, 52
1, 239200, Note_on_c, 0, 62, 10
1, 239204, Control_c, 0, 64, 34
1, 239244, Control_c, 0, 64, 50
1, 239261, Control_c, 0, 64, 66
1, 239281, Control_c, 0, 64, 82
1, 239299, Control_c, 0, 64, 92
1, 239318, Control_c, 0, 64, 100
1, 239336, Control_c, 0, 64, 106
1, 239341, Note_on_c, 0, 69, 0
1, 239355, Control_c, 0, 64, 111
1, 239375, Control_c, 0, 64, 115
1, 239380, Poly_aftertouch_c, 0, 57, 20
1, 239397, Note_on_c, 0, 57, 0
1, 239397, Poly_aftertouch_c, 0, 57, 0
1, 239398, Note_on_c, 0, 74, 0
1, 239398, Poly_aftertouch_c, 0, 74, 0
1, 239409, Note_on_c, 0, 62, 0
1, 239410, Note_on_c, 0, 65, 0
1, 239410, Poly_aftertouch_c, 0, 65, 0
1, 239467, Control_c, 0, 64, 121
1, 239742, Note_on_c, 0, 76, 51
1, 239757, Note_on_c, 0, 72, 38
1, 239766, Note_on_c, 0, 64, 29
1, 239779, Note_on_c, 0, 67, 33
1, 239787, Note_on_c, 0, 60, 26
1, 239805, Control_c, 0, 64, 113
1, 239823, Control_c, 0, 64, 98
1, 239842, Control_c, 0, 64, 74
1, 239861, Control_c, 0, 64, 45
1, 239878, Control_c, 0, 64, 21
1, 239898, Control_c, 0, 64, 29
1, 239917, Control_c, 0, 64, 48
1, 239935, Control_c, 0, 64, 68
1, 239954, Control_c, 0, 64, 84
1, 239972, Control_c, 0, 64, 94
1, 239991, Control_c, 0, 64, 102
1, 240009, Control_c, 0, 64, 109
1, 240029, Control_c, 0, 64, 115
1, 240047, Control_c, 0, 64, 120
1, 240060, Note_on_c, 0, 60, 0
1, 240081, Note_on_c, 0, 76, 0
1, 240083, Note_on_c, 0, 64, 0
1, 240084, Control_c, 0, 64, 124
1, 240106, Note_on_c, 0, 72, 0
1, 240147, Note_on_c, 0, 67, 0
1, 240865, Note_on_c, 0, 83, 38
1, 240886, Note_on_c, 0, 36, 30
1, 240912, Note_on_c, 0, 79, 17
1, 240996, Note_on_c, 0, 79, 0
1, 240996, Poly_aftertouch_c, 0, 79, 0
1, 241208, Note_on_c, 0, 36, 0
1, 241336, Note_on_c, 0, 82, 45
1, 241350, Note_on_c, 0, 83, 0
1, 241367, Note_on_c, 0, 78, 38
1, 241377, Note_on_c, 0, 43, 35
1, 241413, Note_on_c, 0, 82, 0
1, 241413, Poly_aftertouch_c, 0, 82, 0
1, 241427, Note_on_c, 0, 78, 0
1, 241448, Note_on_c, 0, 43, 0
1, 241448, Poly_aftertouch_c, 0, 43, 0
1, 241701, Note_on_c, 0, 79, 37
1, 241719, Note_on_c, 0, 76, 29
1, 241720, Note_on_c, 0, 52, 34
1, 241787, Note_on_c, 0, 76, 0
1, 241796, Note_on_c, 0, 52, 0
1, 241982, Note_on_c, 0, 79, 0
1, 241982, Poly_aftertouch_c, 0, 79, 0
1, 242005, Note_on_c, 0, 78, 38
1, 242033, Note_on_c, 0, 70, 20
1, 242037, Note_on_c, 0, 43, 37
1, 242054, Note_on_c, 0, 78, 0
1, 242105, Note_on_c, 0, 43, 0
1, 242105, Poly_aftertouch_c, 0, 43, 0
1, 242106, Note_on_c, 0, 70, 0
1, 242356, Note_on_c, 0, 52, 32
1, 242358, Note_on_c, 0, 67, 17
1, 242361, Note_on_c, 0, 71, 17
1, 242511, Note_on_c, 0, 52, 0
1, 242657, Poly_aftertouch_c, 0, 67, 24
1, 242690, Note_on_c, 0, 71, 0
1, 242690, Poly_aftertouch_c, 0, 71, 0
1, 242700, Note_on_c, 0, 66, 28
1, 242703, Note_on_c, 0, 67, 0
1, 242703, Poly_aftertouch_c, 0, 67, 0
1, 242706, Note_on_c, 0, 70, 18
1, 242765, Note_on_c, 0, 66, 0
1, 242765, Poly_aftertouch_c, 0, 66, 0
1, 242828, Note_on_c, 0, 70, 0
1, 243113, Note_on_c, 0, 64, 25
1, 243123, Note_on_c, 0, 67, 27
1, 243171, Note_on_c, 0, 59, 37
1, 243511, Note_on_c, 0, 59, 0
1, 243655, Note_on_c, 0, 67, 0
1, 243655, Poly_aftertouch_c, 0, 67, 0
1, 243762, Note_on_c, 0, 58, 31
1, 243764, Note_on_c, 0, 66, 30
1, 243809, Poly_aftertouch_c, 0, 64, 24
1, 243860, Note_on_c, 0, 64, 0
1, 243860, Poly_aftertouch_c, 0, 64, 0
1, 243862, Note_on_c, 0, 58, 0
1, 243885, Note_on_c, 0, 66, 0
1, 243885, Poly_aftertouch_c, 0, 66, 0
1, 244649, Note_on_c, 0, 64, 56
1, 244683, Note_on_c, 0, 55, 31
1, 244687, Note_on_c, 0, 60, 40
1, 244705, Note_on_c, 0, 48, 30
1, 244717, Note_on_c, 0, 52, 26
1, 244778, Control_c, 0, 64, 118
1, 244797, Control_c, 0, 64, 95
1, 244816, Control_c, 0, 64, 66
1, 244834, Control_c, 0, 64, 45
1, 244853, Control_c, 0, 64, 49
1, 244871, Control_c, 0, 64, 64
1, 244891, Control_c, 0, 64, 85
1, 244908, Control_c, 0, 64, 108
1, 244927, Control_c, 0, 64, 127
1, 245000, Note_on_c, 0, 60, 0
1, 245132, Note_on_c, 0, 52, 0
1, 245163, Note_on_c, 0, 63, 61
1, 245174, Note_on_c, 0, 64, 0
1, 245174, Poly_aftertouch_c, 0, 64, 0
1, 245177, Note_on_c, 0, 54, 50
1, 245189, Note_on_c, 0, 47, 43
1, 245206, Note_on_c, 0, 48, 0
1, 245206, Poly_aftertouch_c, 0, 48, 0
1, 245209, Note_on_c, 0, 63, 0
1, 245209, Poly_aftertouch_c, 0, 63, 0
1, 245226, Note_on_c, 0, 54, 0
1, 245226, Poly_aftertouch_c, 0, 54, 0
1, 245232, Note_on_c, 0, 47, 0
1, 245232, Poly_aftertouch_c, 0, 47, 0
1, 245239, Note_on_c, 0, 55, 0
1, 245239, Poly_aftertouch_c, 0, 55, 0
1, 245358, Control_c, 0, 64, 123
1, 245371, Note_on_c, 0, 62, 52
1, 245377, Control_c, 0, 64, 111
1, 245396, Control_c, 0, 64, 90
1, 245409, Note_on_c, 0, 53, 41
1, 245414, Control_c, 0, 64, 59
1, 245421, Note_on_c, 0, 45, 28
1, 245432, Control_c, 0, 64, 0
1, 245470, Control_c, 0, 64, 13
1, 245489, Control_c, 0, 64, 45
1, 245507, Control_c, 0, 64, 68
1, 245526, Control_c, 0, 64, 80
1, 245545, Control_c, 0, 64, 89
1, 245563, Control_c, 0, 64, 99
1, 245581, Control_c, 0, 64, 111
1, 245601, Control_c, 0, 64, 121
1, 245620, Control_c, 0, 64, 127
1, 245667, Note_on_c, 0, 53, 0
1, 245667, Poly_aftertouch_c, 0, 53, 0
1, 245689, Note_on_c, 0, 62, 0
1, 245877, Poly_aftertouch_c, 0, 45, 22
1, 245931, Note_on_c, 0, 45, 0
1, 245931, Poly_aftertouch_c, 0, 45, 0
1, 246052, Note_on_c, 0, 64, 41
1, 246074, Note_on_c, 0, 52, 25
1, 246082, Note_on_c, 0, 48, 21
1, 246098, Note_on_c, 0, 55, 23
1, 246104, Note_on_c, 0, 60, 28
1, 246124, Control_c, 0, 64, 116
1, 246144, Control_c, 0, 64, 89
1, 246162, Control_c, 0, 64, 53
1, 246181, Control_c, 0, 64, 0
1, 246217, Control_c, 0, 64, 11
1, 246237, Control_c, 0, 64, 43
1, 246254, Control_c, 0, 64, 65
1, 246274, Control_c, 0, 64, 84
1, 246294, Control_c, 0, 64, 97
1, 246311, Control_c, 0, 64, 112
1, 246330, Control_c, 0, 64, 123
1, 246349, Control_c, 0, 64, 127
1, 246366, Note_on_c, 0, 48, 0
1, 246366, Poly_aftertouch_c, 0, 48, 0
1, 246397, Poly_aftertouch_c, 0, 60, 24
1, 246447, Note_on_c, 0, 64, 0
1, 246447, Poly_aftertouch_c, 0, 64, 0
1, 246463, Note_on_c, 0, 60, 0
1, 246463, Poly_aftertouch_c, 0, 60, 0
1, 246464, Poly_aftertouch_c, 0, 60, 0
1, 246576, Note_on_c, 0, 52, 0
1, 246594, Note_on_c, 0, 55, 0
1, 246594, Poly_aftertouch_c, 0, 55, 0
1, 246982, Note_on_c, 0, 59, 33
1, 246992, Note_on_c, 0, 55, 25
1, 247022, Note_on_c, 0, 36, 19
1, 247094, Note_on_c, 0, 55, 0
1, 247094, Poly_aftertouch_c, 0, 55, 0
1, 247340, Poly_aftertouch_c, 0, 36, 24
1, 247433, Note_on_c, 0, 58, 42
1, 247450, Note_on_c, 0, 54, 25
1, 247460, Note_on_c, 0, 43, 28
1, 247488, Note_on_c, 0, 59, 0
1, 247522, Note_on_c, 0, 54, 0
1, 247522, Poly_aftertouch_c, 0, 54, 0
1, 247538, Note_on_c, 0, 58, 0
1, 247575, Note_on_c, 0, 43, 0
1, 247575, Poly_aftertouch_c, 0, 43, 0
1, 247602, Poly_aftertouch_c, 0, 36, 22
1, 247616, Note_on_c, 0, 36, 0
1, 247616, Poly_aftertouch_c, 0, 36, 0
1, 247774, Note_on_c, 0, 55, 41
1, 247786, Note_on_c, 0, 52, 31
1, 247796, Note_on_c, 0, 47, 36
1, 247827, Control_c, 0, 64, 112
1, 247844, Control_c, 0, 64, 79
1, 247863, Control_c, 0, 64, 52
1, 247901, Control_c, 0, 64, 57
1, 247919, Control_c, 0, 64, 70
1, 247938, Control_c, 0, 64, 81
1, 247956, Control_c, 0, 64, 93
1, 247976, Control_c, 0, 64, 104
1, 247994, Control_c, 0, 64, 111
1, 248031, Control_c, 0, 64, 115
1, 248107, Control_c, 0, 64, 110
1, 248120, Note_on_c, 0, 54, 39
1, 248123, Note_on_c, 0, 46, 40
1, 248124, Control_c, 0, 64, 96
1, 248144, Control_c, 0, 64, 68
1, 248146, Note_on_c, 0, 55, 0
1, 248146, Poly_aftertouch_c, 0, 55, 0
1, 248149, Note_on_c, 0, 47, 0
1, 248149, Poly_aftertouch_c, 0, 47, 0
1, 248163, Control_c, 0, 64, 33
1, 248181, Control_c, 0, 64, 25
1, 248198, Note_on_c, 0, 52, 0
1, 248199, Control_c, 0, 64, 38
1, 248218, Control_c, 0, 64, 57
1, 248238, Control_c, 0, 64, 77
1, 248256, Control_c, 0, 64, 88
1, 248275, Control_c, 0, 64, 101
1, 248294, Control_c, 0, 64, 112
1, 248312, Control_c, 0, 64, 119
1, 248332, Control_c, 0, 64, 125
1, 248469, Note_on_c, 0, 46, 0
1, 248469, Poly_aftertouch_c, 0, 46, 0
1, 248490, Note_on_c, 0, 47, 38
1, 248517, Control_c, 0, 64, 117
1, 248536, Control_c, 0, 64, 102
1, 248549, Note_on_c, 0, 43, 31
1, 248552, Control_c, 0, 64, 72
1, 248574, Control_c, 0, 64, 31
1, 248594, Control_c, 0, 64, 11
1, 248611, Control_c, 0, 64, 30
1, 248631, Control_c, 0, 64, 51
1, 248649, Control_c, 0, 64, 72
1, 248668, Control_c, 0, 64, 84
1, 248686, Control_c, 0, 64, 93
1, 248689, Note_on_c, 0, 54, 0
1, 248689, Poly_aftertouch_c, 0, 54, 0
1, 248705, Control_c, 0, 64, 100
1, 248723, Control_c, 0, 64, 105
1, 248742, Control_c, 0, 64, 109
1, 248761, Control_c, 0, 64, 114
1, 248780, Control_c, 0, 64, 118
1, 248877, Poly_aftertouch_c, 0, 43, 24
1, 248935, Note_on_c, 0, 43, 0
1, 248935, Poly_aftertouch_c, 0, 43, 0
1, 248948, Note_on_c, 0, 42, 35
1, 248966, Control_c, 0, 64, 114
1, 248985, Control_c, 0, 64, 100
1, 249005, Control_c, 0, 64, 69
1, 249023, Control_c, 0, 64, 21
1, 249041, Control_c, 0, 64, 15
1, 249059, Control_c, 0, 64, 32
1, 249080, Control_c, 0, 64, 53
1, 249097, Control_c, 0, 64, 73
1, 249117, Control_c, 0, 64, 85
1, 249134, Control_c, 0, 64, 95
1, 249154, Control_c, 0, 64, 101
1, 249192, Control_c, 0, 64, 107
1, 249229, Control_c, 0, 64, 112
1, 249239, Note_on_c, 0, 42, 0
1, 249248, Note_on_c, 0, 47, 0
1, 249248, Poly_aftertouch_c, 0, 47, 0
1, 249625, Note_on_c, 0, 39, 27
1, 249632, Note_on_c, 0, 46, 24
1, 249677, Control_c, 0, 64, 108
1, 249695, Control_c, 0, 64, 104
1, 249715, Control_c, 0, 64, 94
1, 249733, Control_c, 0, 64, 75
1, 249753, Control_c, 0, 64, 49
1, 249772, Control_c, 0, 64, 30
1, 249808, Control_c, 0, 64, 42
1, 249827, Control_c, 0, 64, 54
1, 249846, Control_c, 0, 64, 67
1, 249863, Control_c, 0, 64, 74
1, 249883, Control_c, 0, 64, 79
1, 249902, Control_c, 0, 64, 83
1, 249921, Control_c, 0, 64, 87
1, 249939, Control_c, 0, 64, 91
1, 249977, Control_c, 0, 64, 97
1, 250014, Control_c, 0, 64, 101
1, 250052, Control_c, 0, 64, 108
1, 250069, Control_c, 0, 64, 113
1, 250080, Note_on_c, 0, 46, 0
1, 250080, Poly_aftertouch_c, 0, 46, 0
1, 250087, Control_c, 0, 64, 117
1, 250126, Control_c, 0, 64, 122
1, 250153, Poly_aftertouch_c, 0, 39, 24
1, 250214, Note_on_c, 0, 39, 0
1, 250214, Poly_aftertouch_c, 0, 39, 0
1, 250645, Note_on_c, 0, 40, 18
1, 250899, Poly_aftertouch_c, 0, 40, 24
1, 251003, Note_on_c, 0, 40, 0
1, 251003, Poly_aftertouch_c, 0, 40, 0
1, 251004, Poly_aftertouch_c, 0, 40, 0
1, 252435, Note_on_c, 0, 30, 37
1, 252556, Control_c, 0, 64, 115
1, 252575, Control_c, 0, 64, 103
1, 252594, Control_c, 0, 64, 81
1, 252613, Control_c, 0, 64, 52
1, 252632, Control_c, 0, 64, 0
1, 252650, Control_c, 0, 64, 8
1, 252670, Control_c, 0, 64, 33
1, 252687, Control_c, 0, 64, 53
1, 252707, Control_c, 0, 64, 68
1, 252725, Control_c, 0, 64, 80
1, 252744, Control_c, 0, 64, 89
1, 252762, Control_c, 0, 64, 98
1, 252781, Control_c, 0, 64, 105
1, 252799, Control_c, 0, 64, 111
1, 252818, Control_c, 0, 64, 117
1, 252856, Control_c, 0, 64, 122
1, 252888, Note_on_c, 0, 30, 0
1, 252892, Control_c, 0, 64, 126
1, 253458, Note_on_c, 0, 42, 34
1, 253607, Note_on_c, 0, 42, 0
1, 253828, Control_c, 0, 67, 120
1, 253839, Note_on_c, 0, 52, 35
1, 253844, Control_c, 0, 67, 116
1, 253884, Control_c, 0, 67, 110
1, 253931, Note_on_c, 0, 52, 0
1, 253940, Control_c, 0, 67, 106
1, 253978, Control_c, 0, 67, 102
1, 254033, Control_c, 0, 67, 97
1, 254089, Control_c, 0, 67, 91
1, 254146, Control_c, 0, 67, 85
1, 254183, Control_c, 0, 67, 81
1, 254193, Note_on_c, 0, 58, 27
1, 254221, Control_c, 0, 67, 77
1, 254258, Control_c, 0, 67, 72
1, 254295, Control_c, 0, 67, 66
1, 254333, Control_c, 0, 67, 62
1, 254376, Note_on_c, 0, 58, 0
1, 254388, Control_c, 0, 67, 56
1, 254394, Note_on_c, 0, 76, 61
1, 254426, Control_c, 0, 67, 52
1, 254483, Control_c, 0, 67, 48
1, 254557, Control_c, 0, 67, 43
1, 254639, Note_on_c, 0, 59, 34
1, 254652, Control_c, 0, 67, 39
1, 254707, Control_c, 0, 67, 35
1, 254749, Note_on_c, 0, 59, 0
1, 254762, Control_c, 0, 67, 31
1, 254838, Control_c, 0, 67, 27
1, 254847, Note_on_c, 0, 60, 33
1, 254995, Note_on_c, 0, 60, 0
1, 255025, Note_on_c, 0, 61, 27
1, 255097, Note_on_c, 0, 61, 0
1, 255144, Note_on_c, 0, 58, 42
1, 255213, Note_on_c, 0, 58, 0
1, 255303, Note_on_c, 0, 64, 32
1, 255360, Note_on_c, 0, 64, 0
1, 255360, Poly_aftertouch_c, 0, 64, 0
1, 255419, Note_on_c, 0, 74, 66
1, 255545, Note_on_c, 0, 76, 0
1, 255583, Note_on_c, 0, 66, 46
1, 255801, Note_on_c, 0, 66, 0
1, 255801, Poly_aftertouch_c, 0, 66, 0
1, 255809, Note_on_c, 0, 67, 56
1, 255922, Control_c, 0, 64, 104
1, 255930, Note_on_c, 0, 76, 67
1, 255942, Control_c, 0, 64, 71
1, 255945, Control_c, 0, 67, 31
1, 255949, Note_on_c, 0, 74, 0
1, 255949, Poly_aftertouch_c, 0, 74, 0
1, 255961, Control_c, 0, 64, 42
1, 255998, Control_c, 0, 64, 50
1, 256016, Control_c, 0, 64, 60
1, 256035, Control_c, 0, 64, 70
1, 256053, Control_c, 0, 64, 79
1, 256073, Control_c, 0, 64, 88
1, 256093, Control_c, 0, 64, 100
1, 256096, Note_on_c, 0, 67, 0
1, 256096, Poly_aftertouch_c, 0, 67, 0
1, 256112, Control_c, 0, 64, 113
1, 256114, Note_on_c, 0, 66, 38
1, 256128, Control_c, 0, 64, 123
1, 256146, Control_c, 0, 64, 127
1, 256207, Note_on_c, 0, 66, 0
1, 256207, Poly_aftertouch_c, 0, 66, 0
1, 256270, Note_on_c, 0, 76, 0
1, 256281, Note_on_c, 0, 73, 49
1, 256333, Control_c, 0, 67, 35
1, 256390, Control_c, 0, 67, 39
1, 256407, Note_on_c, 0, 58, 47
1, 256415, Poly_aftertouch_c, 0, 64, 0
1, 256444, Note_on_c, 0, 58, 0
1, 256444, Control_c, 0, 67, 43
1, 256502, Control_c, 0, 67, 49
1, 256540, Control_c, 0, 67, 54
1, 256562, Note_on_c, 0, 66, 61
1, 256595, Control_c, 0, 67, 59
1, 256617, Note_on_c, 0, 66, 0
1, 256617, Poly_aftertouch_c, 0, 66, 0
1, 256701, Note_on_c, 0, 55, 48
1, 256747, Note_on_c, 0, 55, 0
1, 256747, Poly_aftertouch_c, 0, 55, 0
1, 256826, Note_on_c, 0, 64, 62
1, 256849, Note_on_c, 0, 49, 44
1, 256866, Note_on_c, 0, 64, 0
1, 256913, Note_on_c, 0, 49, 0
1, 256913, Poly_aftertouch_c, 0, 49, 0
1, 256974, Note_on_c, 0, 42, 57
1, 257009, Note_on_c, 0, 42, 0
1, 257029, Note_on_c, 0, 73, 0
1, 257029, Poly_aftertouch_c, 0, 73, 0
1, 257098, Note_on_c, 0, 58, 65
1, 257135, Note_on_c, 0, 58, 0
1, 257193, Control_c, 0, 67, 55
1, 257221, Note_on_c, 0, 52, 56
1, 257349, Note_on_c, 0, 52, 0
1, 257367, Note_on_c, 0, 71, 70
1, 257378, Note_on_c, 0, 59, 52
1, 257429, Note_on_c, 0, 59, 0
1, 257504, Note_on_c, 0, 62, 60
1, 257530, Control_c, 0, 67, 51
1, 257633, Note_on_c, 0, 62, 0
1, 257660, Note_on_c, 0, 73, 75
1, 257660, Control_c, 0, 64, 121
1, 257667, Note_on_c, 0, 63, 59
1, 257680, Control_c, 0, 64, 110
1, 257700, Control_c, 0, 64, 88
1, 257717, Control_c, 0, 64, 59
1, 257736, Control_c, 0, 64, 27
1, 257742, Note_on_c, 0, 63, 0
1, 257742, Poly_aftertouch_c, 0, 63, 0
1, 257743, Note_on_c, 0, 71, 0
1, 257743, Poly_aftertouch_c, 0, 71, 0
1, 257774, Control_c, 0, 64, 46
1, 257792, Control_c, 0, 64, 65
1, 257803, Note_on_c, 0, 64, 60
1, 257811, Control_c, 0, 64, 81
1, 257830, Control_c, 0, 64, 94
1, 257848, Control_c, 0, 64, 112
1, 257866, Control_c, 0, 64, 125
1, 257974, Note_on_c, 0, 61, 59
1, 257997, Control_c, 0, 64, 116
1, 258010, Note_on_c, 0, 70, 60
1, 258012, Note_on_c, 0, 64, 0
1, 258013, Poly_aftertouch_c, 0, 64, 0
1, 258016, Control_c, 0, 64, 90
1, 258036, Control_c, 0, 64, 56
1, 258054, Control_c, 0, 64, 42
1, 258072, Control_c, 0, 64, 51
1, 258075, Control_c, 0, 67, 55
1, 258092, Control_c, 0, 64, 66
1, 258110, Control_c, 0, 64, 82
1, 258114, Note_on_c, 0, 61, 0
1, 258115, Note_on_c, 0, 73, 0
1, 258115, Poly_aftertouch_c, 0, 73, 0
1, 258126, Note_on_c, 0, 54, 54
1, 258128, Control_c, 0, 64, 96
1, 258147, Control_c, 0, 64, 116
1, 258166, Control_c, 0, 64, 127
1, 258172, Note_on_c, 0, 54, 0
1, 258172, Poly_aftertouch_c, 0, 54, 0
1, 258270, Note_on_c, 0, 67, 67
1, 258373, Note_on_c, 0, 67, 0
1, 258373, Poly_aftertouch_c, 0, 67, 0
1, 258399, Note_on_c, 0, 64, 70
1, 258521, Note_on_c, 0, 64, 0
1, 258535, Note_on_c, 0, 65, 69
1, 258578, Control_c, 0, 64, 120
1, 258596, Control_c, 0, 64, 98
1, 258615, Control_c, 0, 64, 62
1, 258633, Control_c, 0, 64, 0
1, 258671, Note_on_c, 0, 70, 0
1, 258681, Note_on_c, 0, 73, 66
1, 258745, Control_c, 0, 64, 39
1, 258765, Control_c, 0, 64, 65
1, 258783, Control_c, 0, 64, 79
1, 258802, Control_c, 0, 64, 90
1, 258812, Note_on_c, 0, 70, 53
1, 258821, Control_c, 0, 64, 100
1, 258839, Control_c, 0, 64, 107
1, 258856, Note_on_c, 0, 73, 0
1, 258856, Poly_aftertouch_c, 0, 73, 0
1, 258857, Note_on_c, 0, 65, 0
1, 258857, Poly_aftertouch_c, 0, 65, 0
1, 258857, Control_c, 0, 64, 112
1, 258876, Control_c, 0, 64, 116
1, 258914, Control_c, 0, 64, 121
1, 258949, Note_on_c, 0, 66, 55
1, 258951, Control_c, 0, 64, 126
1, 258996, Note_on_c, 0, 70, 0
1, 259113, Note_on_c, 0, 67, 58
1, 259119, Control_c, 0, 67, 60
1, 259178, Control_c, 0, 67, 64
1, 259189, Note_on_c, 0, 66, 0
1, 259189, Poly_aftertouch_c, 0, 66, 0
1, 259214, Control_c, 0, 67, 69
1, 259221, Note_on_c, 0, 67, 0
1, 259221, Poly_aftertouch_c, 0, 67, 0
1, 259237, Note_on_c, 0, 63, 59
1, 259251, Control_c, 0, 67, 73
1, 259327, Control_c, 0, 67, 78
1, 259344, Control_c, 0, 64, 121
1, 259363, Note_on_c, 0, 63, 0
1, 259363, Poly_aftertouch_c, 0, 63, 0
1, 259375, Note_on_c, 0, 64, 62
1, 259381, Control_c, 0, 64, 114
1, 259400, Control_c, 0, 64, 106
1, 259402, Control_c, 0, 67, 83
1, 259419, Control_c, 0, 64, 91
1, 259438, Control_c, 0, 64, 69
1, 259457, Control_c, 0, 64, 40
1, 259476, Control_c, 0, 64, 0
1, 259478, Control_c, 0, 67, 88
1, 259526, Note_on_c, 0, 73, 57
1, 259530, Control_c, 0, 64, 30
1, 259549, Control_c, 0, 64, 51
1, 259551, Control_c, 0, 67, 92
1, 259568, Control_c, 0, 64, 69
1, 259588, Control_c, 0, 64, 81
1, 259605, Control_c, 0, 64, 89
1, 259625, Control_c, 0, 64, 94
1, 259662, Control_c, 0, 64, 101
1, 259671, Note_on_c, 0, 70, 47
1, 259682, Control_c, 0, 67, 97
1, 259699, Control_c, 0, 64, 107
1, 259702, Note_on_c, 0, 73, 0
1, 259702, Poly_aftertouch_c, 0, 73, 0
1, 259736, Control_c, 0, 64, 112
1, 259737, Control_c, 0, 67, 103
1, 259767, Note_on_c, 0, 64, 0
1, 259773, Control_c, 0, 64, 116
1, 259793, Control_c, 0, 67, 107
1, 259805, Note_on_c, 0, 66, 48
1, 259849, Control_c, 0, 67, 111
1, 259904, Note_on_c, 0, 70, 0
1, 259924, Control_c, 0, 67, 115
1, 259951, Note_on_c, 0, 66, 0
1, 259951, Poly_aftertouch_c, 0, 66, 0
1, 259959, Note_on_c, 0, 67, 47
1, 260017, Control_c, 0, 67, 120
1, 260029, Note_on_c, 0, 67, 0
1, 260029, Poly_aftertouch_c, 0, 67, 0
1, 260085, Note_on_c, 0, 62, 47
1, 260130, Control_c, 0, 67, 124
1, 260201, Note_on_c, 0, 62, 0
1, 260222, Note_on_c, 0, 63, 52
1, 260222, Control_c, 0, 64, 110
1, 260261, Control_c, 0, 64, 102
1, 260279, Control_c, 0, 64, 94
1, 260297, Control_c, 0, 64, 80
1, 260317, Control_c, 0, 64, 62
1, 260334, Control_c, 0, 64, 41
1, 260354, Control_c, 0, 64, 0
1, 260364, Note_on_c, 0, 73, 48
1, 260391, Control_c, 0, 64, 25
1, 260410, Control_c, 0, 64, 43
1, 260428, Control_c, 0, 64, 58
1, 260448, Control_c, 0, 64, 73
1, 260466, Control_c, 0, 64, 83
1, 260485, Control_c, 0, 64, 90
1, 260504, Control_c, 0, 64, 94
1, 260522, Control_c, 0, 64, 98
1, 260541, Note_on_c, 0, 70, 43
1, 260559, Control_c, 0, 64, 104
1, 260563, Poly_aftertouch_c, 0, 63, 24
1, 260576, Note_on_c, 0, 73, 0
1, 260576, Poly_aftertouch_c, 0, 73, 0
1, 260597, Control_c, 0, 64, 109
1, 260634, Control_c, 0, 64, 116
1, 260672, Control_c, 0, 64, 122
1, 260681, Note_on_c, 0, 66, 42
1, 260694, Note_on_c, 0, 63, 0
1, 260694, Poly_aftertouch_c, 0, 63, 0
1, 260715, Note_on_c, 0, 70, 0
1, 260852, Note_on_c, 0, 67, 46
1, 260905, Note_on_c, 0, 66, 0
1, 260905, Poly_aftertouch_c, 0, 66, 0
1, 260928, Note_on_c, 0, 67, 0
1, 260928, Poly_aftertouch_c, 0, 67, 0
1, 261026, Note_on_c, 0, 61, 41
1, 261074, Note_on_c, 0, 61, 0
1, 261241, Note_on_c, 0, 62, 41
1, 261250, Control_c, 0, 64, 116
1, 261270, Control_c, 0, 64, 109
1, 261289, Control_c, 0, 64, 92
1, 261307, Control_c, 0, 64, 68
1, 261326, Control_c, 0, 64, 49
1, 261344, Control_c, 0, 64, 40
1, 261363, Control_c, 0, 64, 47
1, 261383, Control_c, 0, 64, 61
1, 261401, Control_c, 0, 64, 76
1, 261420, Control_c, 0, 64, 89
1, 261438, Control_c, 0, 64, 106
1, 261454, Note_on_c, 0, 42, 44
1, 261457, Control_c, 0, 64, 121
1, 261476, Control_c, 0, 64, 127
1, 261529, Note_on_c, 0, 62, 0
1, 261602, Note_on_c, 0, 42, 0
1, 261642, Note_on_c, 0, 50, 38
1, 261688, Note_on_c, 0, 50, 0
1, 261757, Note_on_c, 0, 74, 60
1, 261777, Note_on_c, 0, 71, 50
1, 261804, Note_on_c, 0, 59, 43
1, 261811, Control_c, 0, 67, 119
1, 261841, Note_on_c, 0, 59, 0
1, 261886, Control_c, 0, 67, 115
1, 261899, Note_on_c, 0, 71, 0
1, 261899, Poly_aftertouch_c, 0, 71, 0
1, 261912, Note_on_c, 0, 69, 58
1, 261916, Note_on_c, 0, 66, 53
1, 261923, Control_c, 0, 64, 120
1, 261943, Control_c, 0, 64, 98
1, 261945, Control_c, 0, 67, 110
1, 261962, Control_c, 0, 64, 71
1, 261981, Control_c, 0, 64, 52
1, 261983, Control_c, 0, 67, 106
1, 262000, Control_c, 0, 64, 49
1, 262017, Control_c, 0, 64, 57
1, 262037, Control_c, 0, 64, 73
1, 262038, Control_c, 0, 67, 102
1, 262056, Note_on_c, 0, 50, 44
1, 262056, Control_c, 0, 64, 88
1, 262063, Note_on_c, 0, 69, 0
1, 262074, Control_c, 0, 64, 109
1, 262093, Control_c, 0, 64, 127
1, 262094, Control_c, 0, 67, 98
1, 262125, Note_on_c, 0, 50, 0
1, 262126, Note_on_c, 0, 74, 0
1, 262126, Poly_aftertouch_c, 0, 74, 0
1, 262148, Control_c, 0, 67, 94
1, 262199, Note_on_c, 0, 59, 49
1, 262204, Control_c, 0, 67, 90
1, 262226, Note_on_c, 0, 66, 0
1, 262226, Poly_aftertouch_c, 0, 66, 0
1, 262240, Note_on_c, 0, 59, 0
1, 262328, Note_on_c, 0, 73, 65
1, 262346, Note_on_c, 0, 69, 52
1, 262349, Note_on_c, 0, 62, 37
1, 262353, Control_c, 0, 67, 85
1, 262392, Note_on_c, 0, 62, 0
1, 262411, Note_on_c, 0, 69, 0
1, 262448, Control_c, 0, 64, 117
1, 262449, Control_c, 0, 67, 81
1, 262464, Note_on_c, 0, 67, 64
1, 262466, Control_c, 0, 64, 92
1, 262478, Note_on_c, 0, 64, 53
1, 262484, Control_c, 0, 64, 66
1, 262504, Control_c, 0, 64, 57
1, 262523, Control_c, 0, 64, 59
1, 262542, Control_c, 0, 64, 68
1, 262561, Control_c, 0, 64, 79
1, 262562, Control_c, 0, 67, 77
1, 262579, Control_c, 0, 64, 89
1, 262598, Control_c, 0, 64, 104
1, 262609, Note_on_c, 0, 67, 0
1, 262609, Note_on_c, 0, 59, 54
1, 262609, Poly_aftertouch_c, 0, 67, 0
1, 262616, Control_c, 0, 64, 120
1, 262634, Note_on_c, 0, 73, 0
1, 262634, Poly_aftertouch_c, 0, 73, 0
1, 262634, Control_c, 0, 64, 127
1, 262637, Note_on_c, 0, 59, 0
1, 262651, Note_on_c, 0, 64, 0
1, 262673, Control_c, 0, 67, 72
1, 262738, Note_on_c, 0, 50, 49
1, 262804, Note_on_c, 0, 50, 0
1, 262860, Control_c, 0, 67, 68
1, 262871, Note_on_c, 0, 71, 67
1, 262878, Note_on_c, 0, 42, 50
1, 262881, Note_on_c, 0, 67, 54
1, 262935, Note_on_c, 0, 67, 0
1, 262935, Poly_aftertouch_c, 0, 67, 0
1, 262971, Note_on_c, 0, 71, 0
1, 262971, Poly_aftertouch_c, 0, 71, 0
1, 263006, Note_on_c, 0, 66, 63
1, 263021, Note_on_c, 0, 62, 42
1, 263027, Note_on_c, 0, 42, 0
1, 263043, Note_on_c, 0, 66, 0
1, 263043, Poly_aftertouch_c, 0, 66, 0
1, 263062, Note_on_c, 0, 62, 0
1, 263106, Note_on_c, 0, 50, 48
1, 263136, Note_on_c, 0, 69, 75
1, 263140, Note_on_c, 0, 66, 64
1, 263168, Note_on_c, 0, 50, 0
1, 263215, Control_c, 0, 64, 123
1, 263233, Control_c, 0, 64, 114
1, 263252, Control_c, 0, 64, 93
1, 263271, Control_c, 0, 64, 67
1, 263289, Control_c, 0, 64, 48
1, 263296, Note_on_c, 0, 64, 62
1, 263301, Note_on_c, 0, 58, 55
1, 263303, Note_on_c, 0, 61, 58
1, 263308, Control_c, 0, 64, 43
1, 263310, Note_on_c, 0, 66, 0
1, 263310, Poly_aftertouch_c, 0, 66, 0
1, 263326, Control_c, 0, 64, 51
1, 263341, Note_on_c, 0, 58, 0
1, 263344, Control_c, 0, 64, 67
1, 263363, Control_c, 0, 64, 81
1, 263383, Control_c, 0, 64, 95
1, 263402, Control_c, 0, 64, 114
1, 263406, Note_on_c, 0, 64, 0
1, 263420, Control_c, 0, 64, 127
1, 263422, Poly_aftertouch_c, 0, 69, 24
1, 263422, Control_c, 0, 67, 64
1, 263428, Note_on_c, 0, 50, 52
1, 263442, Note_on_c, 0, 69, 0
1, 263442, Poly_aftertouch_c, 0, 69, 0
1, 263453, Note_on_c, 0, 61, 0
1, 263493, Note_on_c, 0, 50, 0
1, 263494, Control_c, 0, 67, 60
1, 263556, Note_on_c, 0, 42, 54
1, 263626, Note_on_c, 0, 42, 0
1, 263681, Note_on_c, 0, 67, 64
1, 263693, Note_on_c, 0, 64, 54
1, 263699, Note_on_c, 0, 50, 48
1, 263719, Control_c, 0, 64, 122
1, 263738, Control_c, 0, 64, 106
1, 263753, Note_on_c, 0, 50, 0
1, 263756, Note_on_c, 0, 64, 0
1, 263757, Control_c, 0, 64, 78
1, 263775, Control_c, 0, 64, 55
1, 263794, Control_c, 0, 64, 50
1, 263812, Control_c, 0, 64, 56
1, 263816, Note_on_c, 0, 62, 64
1, 263824, Note_on_c, 0, 59, 59
1, 263830, Note_on_c, 0, 57, 51
1, 263831, Control_c, 0, 64, 69
1, 263851, Control_c, 0, 64, 82
1, 263859, Note_on_c, 0, 57, 0
1, 263859, Poly_aftertouch_c, 0, 57, 0
1, 263866, Note_on_c, 0, 67, 0
1, 263866, Poly_aftertouch_c, 0, 67, 0
1, 263868, Control_c, 0, 64, 95
1, 263873, Note_on_c, 0, 62, 0
1, 263889, Control_c, 0, 64, 110
1, 263892, Note_on_c, 0, 59, 0
1, 263907, Control_c, 0, 64, 124
1, 263944, Note_on_c, 0, 50, 56
1, 264014, Note_on_c, 0, 50, 0
1, 264074, Note_on_c, 0, 42, 56
1, 264172, Note_on_c, 0, 66, 64
1, 264181, Note_on_c, 0, 62, 56
1, 264193, Note_on_c, 0, 42, 0
1, 264197, Note_on_c, 0, 50, 53
1, 264222, Note_on_c, 0, 62, 0
1, 264245, Note_on_c, 0, 66, 0
1, 264245, Poly_aftertouch_c, 0, 66, 0
1, 264260, Note_on_c, 0, 50, 0
1, 264297, Note_on_c, 0, 61, 68
1, 264312, Note_on_c, 0, 58, 54
1, 264337, Note_on_c, 0, 55, 52
1, 264343, Note_on_c, 0, 58, 0
1, 264343, Note_on_c, 0, 61, 0
1, 264367, Note_on_c, 0, 55, 0
1, 264367, Poly_aftertouch_c, 0, 55, 0
1, 264373, Control_c, 0, 64, 117
1, 264393, Control_c, 0, 64, 110
1, 264410, Control_c, 0, 64, 94
1, 264415, Note_on_c, 0, 50, 58
1, 264423, Note_on_c, 0, 61, 57
1, 264429, Note_on_c, 0, 64, 58
1, 264429, Control_c, 0, 64, 73
1, 264449, Control_c, 0, 64, 53
1, 264460, Note_on_c, 0, 50, 0
1, 264466, Control_c, 0, 64, 0
1, 264467, Note_on_c, 0, 61, 0
1, 264470, Note_on_c, 0, 64, 0
1, 264543, Control_c, 0, 64, 28
1, 264545, Control_c, 0, 67, 64
1, 264557, Note_on_c, 0, 43, 58
1, 264559, Note_on_c, 0, 59, 68
1, 264561, Control_c, 0, 64, 64
1, 264580, Control_c, 0, 64, 90
1, 264582, Note_on_c, 0, 53, 33
1, 264582, Poly_aftertouch_c, 0, 53, 0
1, 264583, Note_on_c, 0, 53, 0
1, 264597, Note_on_c, 0, 59, 0
1, 264597, Note_on_c, 0, 43, 0
1, 264597, Poly_aftertouch_c, 0, 43, 0
1, 264599, Control_c, 0, 64, 114
1, 264618, Control_c, 0, 64, 127
1, 264619, Control_c, 0, 67, 70
1, 264632, Poly_aftertouch_c, 0, 53, 0
1, 264637, Note_on_c, 0, 50, 55
1, 264638, Control_c, 0, 67, 74
1, 264655, Control_c, 0, 67, 78
1, 264673, Control_c, 0, 67, 83
1, 264692, Control_c, 0, 67, 88
1, 264697, Note_on_c, 0, 50, 0
1, 264710, Control_c, 0, 67, 93
1, 264725, Note_on_c, 0, 53, 53
1, 264727, Control_c, 0, 67, 100
1, 264750, Control_c, 0, 67, 108
1, 264756, Note_on_c, 0, 53, 0
1, 264766, Control_c, 0, 67, 117
1, 264786, Control_c, 0, 64, 92
1, 264787, Control_c, 0, 67, 122
1, 264793, Note_on_c, 0, 59, 60
1, 264805, Control_c, 0, 64, 43
1, 264823, Control_c, 0, 64, 0
1, 264824, Control_c, 0, 67, 127
1, 264833, Note_on_c, 0, 59, 0
1, 264885, Note_on_c, 0, 62, 57
1, 264937, Note_on_c, 0, 62, 0
1, 264962, Note_on_c, 0, 64, 59
1, 264996, Note_on_c, 0, 64, 0
1, 265035, Note_on_c, 0, 89, 77
1, 265048, Note_on_c, 0, 65, 55
1, 265049, Note_on_c, 0, 81, 64
1, 265076, Note_on_c, 0, 65, 0
1, 265076, Poly_aftertouch_c, 0, 65, 0
1, 265078, Note_on_c, 0, 81, 0
1, 265098, Note_on_c, 0, 89, 0
1, 265098, Poly_aftertouch_c, 0, 89, 0
1, 265117, Note_on_c, 0, 88, 49
1, 265148, Note_on_c, 0, 67, 56
1, 265167, Note_on_c, 0, 88, 0
1, 265175, Note_on_c, 0, 87, 68
1, 265201, Note_on_c, 0, 67, 0
1, 265201, Poly_aftertouch_c, 0, 67, 0
1, 265204, Note_on_c, 0, 87, 0
1, 265222, Note_on_c, 0, 68, 45
1, 265263, Note_on_c, 0, 69, 61
1, 265270, Note_on_c, 0, 86, 75
1, 265277, Note_on_c, 0, 77, 49
1, 265279, Note_on_c, 0, 68, 0
1, 265279, Poly_aftertouch_c, 0, 68, 0
1, 265291, Control_c, 0, 64, 46
1, 265299, Note_on_c, 0, 69, 0
1, 265299, Poly_aftertouch_c, 0, 69, 0
1, 265306, Note_on_c, 0, 77, 0
1, 265306, Poly_aftertouch_c, 0, 77, 0
1, 265308, Control_c, 0, 64, 97
1, 265327, Control_c, 0, 64, 114
1, 265346, Control_c, 0, 64, 127
1, 265351, Note_on_c, 0, 86, 0
1, 265353, Poly_aftertouch_c, 0, 65, 0
1, 265361, Note_on_c, 0, 81, 70
1, 265395, Note_on_c, 0, 81, 0
1, 265415, Note_on_c, 0, 77, 62
1, 265449, Note_on_c, 0, 77, 0
1, 265449, Poly_aftertouch_c, 0, 77, 0
1, 265458, Control_c, 0, 64, 107
1, 265477, Control_c, 0, 64, 71
1, 265497, Control_c, 0, 64, 0
1, 265526, Note_on_c, 0, 74, 61
1, 265551, Note_on_c, 0, 74, 0
1, 265551, Poly_aftertouch_c, 0, 74, 0
1, 265588, Note_on_c, 0, 73, 58
1, 265632, Note_on_c, 0, 73, 0
1, 265632, Poly_aftertouch_c, 0, 73, 0
1, 265638, Note_on_c, 0, 65, 42
1, 265669, Note_on_c, 0, 72, 50
1, 265675, Note_on_c, 0, 65, 0
1, 265707, Note_on_c, 0, 72, 0
1, 265742, Note_on_c, 0, 77, 76
1, 265751, Note_on_c, 0, 62, 47
1, 265757, Control_c, 0, 64, 24
1, 265776, Note_on_c, 0, 77, 0
1, 265776, Poly_aftertouch_c, 0, 77, 0
1, 265776, Control_c, 0, 64, 85
1, 265794, Note_on_c, 0, 71, 20
1, 265795, Control_c, 0, 64, 110
1, 265814, Control_c, 0, 64, 127
1, 265850, Note_on_c, 0, 70, 64
1, 265856, Note_on_c, 0, 71, 0
1, 265856, Poly_aftertouch_c, 0, 71, 0
1, 265865, Note_on_c, 0, 62, 0
1, 265872, Note_on_c, 0, 61, 64
1, 265917, Note_on_c, 0, 70, 0
1, 265944, Control_c, 0, 67, 123
1, 265949, Note_on_c, 0, 61, 0
1, 265955, Note_on_c, 0, 69, 48
1, 265963, Control_c, 0, 64, 113
1, 265980, Note_on_c, 0, 74, 80
1, 265981, Control_c, 0, 64, 85
1, 265989, Note_on_c, 0, 69, 0
1, 265989, Poly_aftertouch_c, 0, 69, 0
1, 266002, Control_c, 0, 64, 51
1, 266005, Control_c, 0, 67, 117
1, 266013, Note_on_c, 0, 60, 54
1, 266021, Control_c, 0, 64, 0
1, 266038, Control_c, 0, 67, 112
1, 266039, Note_on_c, 0, 68, 41
1, 266048, Note_on_c, 0, 74, 0
1, 266048, Poly_aftertouch_c, 0, 74, 0
1, 266057, Note_on_c, 0, 59, 62
1, 266059, Note_on_c, 0, 60, 0
1, 266075, Control_c, 0, 67, 107
1, 266081, Note_on_c, 0, 68, 0
1, 266081, Poly_aftertouch_c, 0, 68, 0
1, 266094, Note_on_c, 0, 59, 0
1, 266112, Control_c, 0, 67, 99
1, 266126, Note_on_c, 0, 67, 32
1, 266151, Control_c, 0, 67, 94
1, 266165, Note_on_c, 0, 76, 66
1, 266175, Note_on_c, 0, 67, 0
1, 266175, Poly_aftertouch_c, 0, 67, 0
1, 266207, Note_on_c, 0, 76, 0
1, 266246, Note_on_c, 0, 77, 67
1, 266282, Control_c, 0, 67, 99
1, 266289, Note_on_c, 0, 77, 0
1, 266289, Poly_aftertouch_c, 0, 77, 0
1, 266316, Note_on_c, 0, 76, 60
1, 266317, Control_c, 0, 67, 107
1, 266337, Control_c, 0, 67, 114
1, 266354, Note_on_c, 0, 76, 0
1, 266355, Control_c, 0, 67, 122
1, 266375, Note_on_c, 0, 75, 74
1, 266375, Control_c, 0, 67, 127
1, 266409, Note_on_c, 0, 68, 40
1, 266433, Note_on_c, 0, 75, 0
1, 266449, Note_on_c, 0, 68, 0
1, 266449, Poly_aftertouch_c, 0, 68, 0
1, 266477, Note_on_c, 0, 80, 78
1, 266483, Note_on_c, 0, 74, 66
1, 266498, Note_on_c, 0, 65, 56
1, 266511, Note_on_c, 0, 74, 0
1, 266511, Poly_aftertouch_c, 0, 74, 0
1, 266544, Note_on_c, 0, 80, 0
1, 266544, Poly_aftertouch_c, 0, 80, 0
1, 266573, Note_on_c, 0, 65, 0
1, 266579, Note_on_c, 0, 73, 69
1, 266644, Note_on_c, 0, 63, 54
1, 266662, Note_on_c, 0, 73, 0
1, 266662, Poly_aftertouch_c, 0, 73, 0
1, 266665, Note_on_c, 0, 72, 57
1, 266695, Note_on_c, 0, 63, 0
1, 266695, Poly_aftertouch_c, 0, 63, 0
1, 266708, Note_on_c, 0, 72, 0
1, 266709, Note_on_c, 0, 77, 78
1, 266718, Note_on_c, 0, 71, 68
1, 266749, Note_on_c, 0, 71, 0
1, 266749, Poly_aftertouch_c, 0, 71, 0
1, 266749, Control_c, 0, 64, 20
1, 266769, Control_c, 0, 64, 29
1, 266785, Control_c, 0, 64, 40
1, 266799, Note_on_c, 0, 77, 0
1, 266799, Poly_aftertouch_c, 0, 77, 0
1, 266804, Control_c, 0, 64, 49
1, 266819, Note_on_c, 0, 70, 65
1, 266823, Control_c, 0, 64, 56
1, 266842, Control_c, 0, 64, 60
1, 266851, Note_on_c, 0, 70, 0
1, 266859, Control_c, 0, 64, 61
1, 266867, Note_on_c, 0, 69, 58
1, 266897, Note_on_c, 0, 69, 0
1, 266897, Note_on_c, 0, 62, 45
1, 266897, Poly_aftertouch_c, 0, 69, 0
1, 266899, Control_c, 0, 64, 57
1, 266917, Control_c, 0, 64, 36
1, 266936, Control_c, 0, 64, 0
1, 266942, Note_on_c, 0, 62, 0
1, 266956, Note_on_c, 0, 68, 74
1, 266991, Control_c, 0, 64, 38
1, 267005, Note_on_c, 0, 59, 41
1, 267011, Control_c, 0, 64, 58
1, 267029, Control_c, 0, 64, 74
1, 267047, Control_c, 0, 64, 83
1, 267059, Note_on_c, 0, 68, 0
1, 267059, Poly_aftertouch_c, 0, 68, 0
1, 267062, Note_on_c, 0, 59, 0
1, 267065, Control_c, 0, 64, 90
1, 267067, Note_on_c, 0, 63, 51
1, 267133, Note_on_c, 0, 63, 0
1, 267133, Poly_aftertouch_c, 0, 63, 0
1, 267134, Note_on_c, 0, 56, 48
1, 267163, Note_on_c, 0, 62, 54
1, 267166, Note_on_c, 0, 56, 0
1, 267166, Poly_aftertouch_c, 0, 56, 0
1, 267179, Control_c, 0, 64, 94
1, 267194, Note_on_c, 0, 62, 0
1, 267267, Note_on_c, 0, 61, 50
1, 267285, Note_on_c, 0, 52, 41
1, 267311, Note_on_c, 0, 61, 0
1, 267325, Note_on_c, 0, 52, 0
1, 267344, Note_on_c, 0, 60, 49
1, 267391, Note_on_c, 0, 60, 0
1, 267404, Note_on_c, 0, 51, 46
1, 267461, Note_on_c, 0, 59, 33
1, 267466, Note_on_c, 0, 51, 0
1, 267466, Poly_aftertouch_c, 0, 51, 0
1, 267497, Control_c, 0, 64, 88
1, 267515, Control_c, 0, 64, 82
1, 267534, Control_c, 0, 64, 68
1, 267536, Control_c, 0, 67, 123
1, 267545, Note_on_c, 0, 50, 41
1, 267553, Control_c, 0, 64, 48
1, 267566, Note_on_c, 0, 65, 46
1, 267570, Control_c, 0, 64, 10
1, 267590, Control_c, 0, 64, 0
1, 267591, Control_c, 0, 67, 117
1, 267608, Control_c, 0, 64, 28
1, 267628, Control_c, 0, 64, 48
1, 267629, Control_c, 0, 67, 113
1, 267635, Note_on_c, 0, 50, 0
1, 267645, Note_on_c, 0, 59, 0
1, 267646, Control_c, 0, 64, 65
1, 267665, Control_c, 0, 64, 77
1, 267666, Control_c, 0, 67, 109
1, 267682, Note_on_c, 0, 65, 0
1, 267685, Control_c, 0, 64, 86
1, 267702, Note_on_c, 0, 43, 48
1, 267702, Control_c, 0, 64, 93
1, 267702, Control_c, 0, 67, 102
1, 267721, Control_c, 0, 64, 100
1, 267722, Control_c, 0, 67, 98
1, 267740, Control_c, 0, 64, 106
1, 267741, Control_c, 0, 67, 92
1, 267746, Note_on_c, 0, 43, 0
1, 267746, Poly_aftertouch_c, 0, 43, 0
1, 267759, Control_c, 0, 64, 110
1, 267760, Control_c, 0, 67, 87
1, 267777, Control_c, 0, 67, 83
1, 267797, Control_c, 0, 64, 115
1, 267798, Control_c, 0, 67, 79
1, 267834, Control_c, 0, 67, 72
1, 267871, Control_c, 0, 67, 65
1, 267909, Control_c, 0, 67, 60
1, 268001, Control_c, 0, 67, 56
1, 268057, Control_c, 0, 67, 52
1, 268073, Poly_aftertouch_c, 0, 50, 127
1, 268118, Note_on_c, 0, 59, 55
1, 268130, Note_on_c, 0, 80, 73
1, 268157, Poly_aftertouch_c, 0, 50, 0
1, 268162, Note_on_c, 0, 59, 0
1, 268169, Control_c, 0, 67, 48
1, 268188, Control_c, 0, 64, 119
1, 268257, Note_on_c, 0, 62, 45
1, 268272, Note_on_c, 0, 66, 48
1, 268277, Note_on_c, 0, 80, 0
1, 268277, Poly_aftertouch_c, 0, 80, 0
1, 268294, Note_on_c, 0, 62, 0
1, 268300, Control_c, 0, 64, 125
1, 268307, Note_on_c, 0, 66, 0
1, 268307, Poly_aftertouch_c, 0, 66, 0
1, 268376, Control_c, 0, 67, 44
1, 268389, Note_on_c, 0, 67, 74
1, 268451, Note_on_c, 0, 67, 0
1, 268451, Poly_aftertouch_c, 0, 67, 0
1, 268515, Note_on_c, 0, 62, 66
1, 268639, Note_on_c, 0, 66, 78
1, 268666, Note_on_c, 0, 62, 0
1, 268736, Note_on_c, 0, 66, 0
1, 268736, Poly_aftertouch_c, 0, 66, 0
1, 268783, Note_on_c, 0, 59, 61
1, 268822, Note_on_c, 0, 59, 0
1, 268919, Control_c, 0, 64, 110
1, 268920, Note_on_c, 0, 79, 82
1, 268936, Control_c, 0, 64, 85
1, 268955, Control_c, 0, 64, 54
1, 268973, Control_c, 0, 64, 0
1, 268992, Control_c, 0, 64, 21
1, 268993, Control_c, 0, 67, 48
1, 269011, Control_c, 0, 64, 44
1, 269030, Control_c, 0, 64, 65
1, 269050, Control_c, 0, 64, 80
1, 269051, Control_c, 0, 67, 52
1, 269061, Note_on_c, 0, 67, 62
1, 269069, Control_c, 0, 64, 94
1, 269087, Control_c, 0, 64, 110
1, 269089, Control_c, 0, 67, 57
1, 269101, Note_on_c, 0, 67, 0
1, 269101, Poly_aftertouch_c, 0, 67, 0
1, 269105, Control_c, 0, 64, 121
1, 269142, Control_c, 0, 64, 125
1, 269143, Control_c, 0, 67, 62
1, 269179, Control_c, 0, 67, 69
1, 269198, Control_c, 0, 64, 117
1, 269206, Note_on_c, 0, 68, 75
1, 269217, Control_c, 0, 64, 98
1, 269218, Control_c, 0, 67, 75
1, 269236, Control_c, 0, 64, 62
1, 269255, Control_c, 0, 64, 0
1, 269256, Control_c, 0, 67, 79
1, 269291, Control_c, 0, 64, 15
1, 269312, Control_c, 0, 64, 46
1, 269314, Control_c, 0, 67, 83
1, 269329, Control_c, 0, 64, 65
1, 269348, Control_c, 0, 64, 81
1, 269358, Note_on_c, 0, 62, 58
1, 269367, Control_c, 0, 64, 93
1, 269369, Control_c, 0, 67, 87
1, 269370, Note_on_c, 0, 68, 0
1, 269370, Poly_aftertouch_c, 0, 68, 0
1, 269386, Control_c, 0, 64, 108
1, 269403, Control_c, 0, 64, 118
1, 269423, Control_c, 0, 67, 91
1, 269441, Control_c, 0, 64, 123
1, 269460, Note_on_c, 0, 79, 0
1, 269460, Poly_aftertouch_c, 0, 79, 0
1, 269478, Control_c, 0, 67, 96
1, 269488, Note_on_c, 0, 67, 69
1, 269534, Note_on_c, 0, 67, 0
1, 269534, Poly_aftertouch_c, 0, 67, 0
1, 269553, Control_c, 0, 67, 101
1, 269587, Note_on_c, 0, 62, 0
1, 269610, Control_c, 0, 67, 105
1, 269633, Note_on_c, 0, 58, 57
1, 269665, Control_c, 0, 64, 119
1, 269696, Note_on_c, 0, 58, 0
1, 269702, Control_c, 0, 67, 109
1, 269723, Control_c, 0, 64, 115
1, 269760, Control_c, 0, 64, 101
1, 269777, Control_c, 0, 64, 81
1, 269778, Control_c, 0, 67, 113
1, 269782, Note_on_c, 0, 78, 66
1, 269797, Control_c, 0, 64, 55
1, 269815, Control_c, 0, 64, 25
1, 269834, Control_c, 0, 67, 117
1, 269853, Control_c, 0, 64, 39
1, 269871, Control_c, 0, 64, 56
1, 269890, Control_c, 0, 64, 70
1, 269892, Control_c, 0, 67, 122
1, 269909, Control_c, 0, 64, 80
1, 269913, Note_on_c, 0, 68, 47
1, 269928, Control_c, 0, 64, 88
1, 269946, Control_c, 0, 64, 94
1, 269964, Note_on_c, 0, 68, 0
1, 269964, Poly_aftertouch_c, 0, 68, 0
1, 269964, Control_c, 0, 64, 98
1, 270002, Control_c, 0, 64, 102
1, 270005, Control_c, 0, 67, 127
1, 270056, Note_on_c, 0, 69, 54
1, 270096, Control_c, 0, 64, 98
1, 270157, Note_on_c, 0, 69, 0
1, 270157, Poly_aftertouch_c, 0, 69, 0
1, 270202, Note_on_c, 0, 62, 48
1, 270227, Control_c, 0, 64, 102
1, 270360, Note_on_c, 0, 68, 57
1, 270376, Control_c, 0, 64, 96
1, 270396, Control_c, 0, 64, 82
1, 270413, Control_c, 0, 64, 71
1, 270427, Note_on_c, 0, 62, 0
1, 270431, Control_c, 0, 64, 75
1, 270452, Control_c, 0, 64, 79
1, 270470, Control_c, 0, 64, 84
1, 270488, Control_c, 0, 64, 90
1, 270507, Control_c, 0, 64, 99
1, 270526, Note_on_c, 0, 59, 35
1, 270526, Control_c, 0, 64, 106
1, 270537, Note_on_c, 0, 68, 0
1, 270537, Poly_aftertouch_c, 0, 68, 0
1, 270543, Poly_aftertouch_c, 0, 78, 24
1, 270564, Note_on_c, 0, 78, 0
1, 270564, Poly_aftertouch_c, 0, 78, 0
1, 270602, Note_on_c, 0, 59, 0
1, 270722, Note_on_c, 0, 77, 53
1, 270924, Note_on_c, 0, 67, 44
1, 270993, Control_c, 0, 64, 97
1, 271012, Control_c, 0, 64, 84
1, 271031, Control_c, 0, 64, 66
1, 271049, Control_c, 0, 64, 53
1, 271083, Note_on_c, 0, 43, 45
1, 271085, Control_c, 0, 64, 57
1, 271106, Control_c, 0, 64, 66
1, 271124, Control_c, 0, 64, 74
1, 271143, Control_c, 0, 64, 80
1, 271162, Control_c, 0, 64, 86
1, 271164, Control_c, 0, 67, 123
1, 271180, Control_c, 0, 64, 94
1, 271200, Control_c, 0, 64, 101
1, 271207, Note_on_c, 0, 77, 0
1, 271207, Poly_aftertouch_c, 0, 77, 0
1, 271218, Control_c, 0, 64, 105
1, 271219, Control_c, 0, 67, 117
1, 271220, Note_on_c, 0, 43, 0
1, 271220, Poly_aftertouch_c, 0, 43, 0
1, 271232, Poly_aftertouch_c, 0, 67, 24
1, 271256, Control_c, 0, 64, 111
1, 271274, Control_c, 0, 67, 112
1, 271291, Note_on_c, 0, 51, 45
1, 271303, Note_on_c, 0, 67, 0
1, 271303, Poly_aftertouch_c, 0, 67, 0
1, 271304, Poly_aftertouch_c, 0, 67, 0
1, 271310, Control_c, 0, 64, 115
1, 271330, Control_c, 0, 67, 108
1, 271362, Note_on_c, 0, 51, 0
1, 271362, Poly_aftertouch_c, 0, 51, 0
1, 271406, Control_c, 0, 67, 104
1, 271451, Note_on_c, 0, 55, 47
1, 271516, Control_c, 0, 67, 99
1, 271517, Note_on_c, 0, 55, 0
1, 271517, Poly_aftertouch_c, 0, 55, 0
1, 271573, Control_c, 0, 67, 95
1, 271591, Note_on_c, 0, 75, 65
1, 271612, Note_on_c, 0, 72, 47
1, 271625, Note_on_c, 0, 60, 42
1, 271648, Control_c, 0, 64, 109
1, 271650, Control_c, 0, 67, 91
1, 271667, Note_on_c, 0, 60, 0
1, 271667, Control_c, 0, 64, 98
1, 271676, Note_on_c, 0, 72, 0
1, 271684, Control_c, 0, 64, 79
1, 271703, Control_c, 0, 64, 61
1, 271723, Control_c, 0, 64, 62
1, 271740, Note_on_c, 0, 70, 55
1, 271740, Control_c, 0, 64, 67
1, 271746, Note_on_c, 0, 67, 49
1, 271759, Control_c, 0, 64, 75
1, 271779, Control_c, 0, 64, 81
1, 271798, Control_c, 0, 64, 89
1, 271801, Control_c, 0, 67, 87
1, 271815, Control_c, 0, 64, 98
1, 271834, Control_c, 0, 64, 106
1, 271854, Control_c, 0, 64, 112
1, 271874, Note_on_c, 0, 63, 61
1, 271888, Note_on_c, 0, 75, 0
1, 271890, Control_c, 0, 67, 83
1, 271909, Control_c, 0, 64, 116
1, 271922, Note_on_c, 0, 63, 0
1, 271922, Poly_aftertouch_c, 0, 63, 0
1, 271927, Note_on_c, 0, 70, 0
1, 271935, Note_on_c, 0, 67, 0
1, 272011, Note_on_c, 0, 60, 58
1, 272041, Control_c, 0, 67, 79
1, 272084, Note_on_c, 0, 60, 0
1, 272117, Note_on_c, 0, 55, 57
1, 272130, Note_on_c, 0, 74, 73
1, 272141, Note_on_c, 0, 70, 60
1, 272160, Note_on_c, 0, 55, 0
1, 272160, Poly_aftertouch_c, 0, 55, 0
1, 272187, Note_on_c, 0, 70, 0
1, 272209, Control_c, 0, 64, 102
1, 272210, Control_c, 0, 67, 75
1, 272226, Control_c, 0, 64, 82
1, 272246, Control_c, 0, 64, 63
1, 272260, Note_on_c, 0, 68, 63
1, 272263, Control_c, 0, 64, 64
1, 272269, Note_on_c, 0, 65, 54
1, 272283, Control_c, 0, 64, 69
1, 272301, Control_c, 0, 64, 76
1, 272321, Control_c, 0, 64, 84
1, 272340, Control_c, 0, 64, 94
1, 272342, Control_c, 0, 67, 70
1, 272359, Control_c, 0, 64, 105
1, 272377, Control_c, 0, 64, 115
1, 272397, Control_c, 0, 64, 121
1, 272398, Control_c, 0, 67, 66
1, 272409, Note_on_c, 0, 60, 61
1, 272429, Note_on_c, 0, 74, 0
1, 272429, Poly_aftertouch_c, 0, 74, 0
1, 272432, Control_c, 0, 67, 61
1, 272433, Note_on_c, 0, 68, 0
1, 272433, Poly_aftertouch_c, 0, 68, 0
1, 272444, Note_on_c, 0, 60, 0
1, 272481, Note_on_c, 0, 65, 0
1, 272509, Control_c, 0, 67, 57
1, 272532, Note_on_c, 0, 51, 57
1, 272596, Note_on_c, 0, 51, 0
1, 272596, Poly_aftertouch_c, 0, 51, 0
1, 272600, Control_c, 0, 67, 53
1, 272628, Note_on_c, 0, 72, 70
1, 272642, Note_on_c, 0, 68, 54
1, 272676, Note_on_c, 0, 43, 47
1, 272690, Note_on_c, 0, 68, 0
1, 272690, Poly_aftertouch_c, 0, 68, 0
1, 272712, Note_on_c, 0, 72, 0
1, 272764, Note_on_c, 0, 67, 71
1, 272778, Note_on_c, 0, 63, 61
1, 272797, Note_on_c, 0, 67, 0
1, 272817, Note_on_c, 0, 63, 0
1, 272817, Poly_aftertouch_c, 0, 63, 0
1, 272863, Control_c, 0, 67, 49
1, 272887, Note_on_c, 0, 70, 80
1, 272892, Note_on_c, 0, 43, 0
1, 272892, Poly_aftertouch_c, 0, 43, 0
1, 272915, Note_on_c, 0, 67, 62
1, 272927, Note_on_c, 0, 51, 60
1, 272994, Control_c, 0, 64, 115
1, 273012, Note_on_c, 0, 51, 0
1, 273012, Poly_aftertouch_c, 0, 51, 0
1, 273012, Control_c, 0, 64, 109
1, 273032, Control_c, 0, 64, 95
1, 273051, Control_c, 0, 64, 71
1, 273069, Control_c, 0, 64, 47
1, 273088, Control_c, 0, 64, 39
1, 273094, Note_on_c, 0, 65, 60
1, 273096, Note_on_c, 0, 62, 52
1, 273106, Control_c, 0, 64, 48
1, 273114, Note_on_c, 0, 59, 55
1, 273117, Note_on_c, 0, 67, 0
1, 273126, Control_c, 0, 64, 65
1, 273127, Control_c, 0, 67, 45
1, 273143, Control_c, 0, 64, 80
1, 273154, Note_on_c, 0, 59, 0
1, 273162, Control_c, 0, 64, 92
1, 273181, Control_c, 0, 64, 108
1, 273192, Note_on_c, 0, 65, 0
1, 273199, Control_c, 0, 64, 121
1, 273219, Control_c, 0, 64, 127
1, 273222, Note_on_c, 0, 70, 0
1, 273234, Note_on_c, 0, 51, 64
1, 273237, Control_c, 0, 67, 40
1, 273311, Note_on_c, 0, 51, 0
1, 273311, Poly_aftertouch_c, 0, 51, 0
1, 273339, Note_on_c, 0, 43, 64
1, 273351, Note_on_c, 0, 62, 0
1, 273391, Note_on_c, 0, 43, 0
1, 273391, Poly_aftertouch_c, 0, 43, 0
1, 273461, Note_on_c, 0, 51, 64
1, 273475, Note_on_c, 0, 68, 72
1, 273497, Note_on_c, 0, 65, 50
1, 273518, Control_c, 0, 64, 122
1, 273536, Control_c, 0, 64, 115
1, 273551, Note_on_c, 0, 65, 0
1, 273555, Control_c, 0, 64, 95
1, 273559, Note_on_c, 0, 51, 0
1, 273559, Poly_aftertouch_c, 0, 51, 0
1, 273574, Control_c, 0, 64, 67
1, 273592, Control_c, 0, 64, 49
1, 273611, Control_c, 0, 64, 52
1, 273615, Note_on_c, 0, 58, 60
1, 273626, Note_on_c, 0, 63, 53
1, 273629, Control_c, 0, 64, 62
1, 273637, Note_on_c, 0, 60, 49
1, 273649, Control_c, 0, 64, 76
1, 273658, Note_on_c, 0, 58, 0
1, 273666, Control_c, 0, 64, 84
1, 273686, Control_c, 0, 64, 94
1, 273705, Control_c, 0, 64, 106
1, 273723, Control_c, 0, 64, 116
1, 273740, Note_on_c, 0, 63, 0
1, 273740, Poly_aftertouch_c, 0, 63, 0
1, 273742, Control_c, 0, 64, 121
1, 273753, Note_on_c, 0, 51, 57
1, 273789, Note_on_c, 0, 60, 0
1, 273810, Note_on_c, 0, 68, 0
1, 273810, Poly_aftertouch_c, 0, 68, 0
1, 273819, Note_on_c, 0, 51, 0
1, 273819, Poly_aftertouch_c, 0, 51, 0
1, 273874, Control_c, 0, 64, 125
1, 273893, Note_on_c, 0, 43, 45
1, 273946, Note_on_c, 0, 43, 0
1, 273946, Poly_aftertouch_c, 0, 43, 0
1, 273994, Note_on_c, 0, 67, 59
1, 273994, Note_on_c, 0, 51, 57
1, 274004, Note_on_c, 0, 63, 51
1, 274046, Note_on_c, 0, 51, 0
1, 274046, Poly_aftertouch_c, 0, 51, 0
1, 274063, Note_on_c, 0, 63, 0
1, 274063, Poly_aftertouch_c, 0, 63, 0
1, 274136, Note_on_c, 0, 67, 0
1, 274150, Note_on_c, 0, 62, 57
1, 274158, Note_on_c, 0, 59, 56
1, 274159, Note_on_c, 0, 56, 59
1, 274192, Note_on_c, 0, 56, 0
1, 274192, Note_on_c, 0, 59, 0
1, 274192, Note_on_c, 0, 62, 0
1, 274192, Poly_aftertouch_c, 0, 56, 0
1, 274272, Note_on_c, 0, 65, 68
1, 274278, Note_on_c, 0, 62, 69
1, 274282, Note_on_c, 0, 50, 56
1, 274314, Note_on_c, 0, 50, 0
1, 274397, Control_c, 0, 64, 103
1, 274415, Control_c, 0, 64, 65
1, 274423, Note_on_c, 0, 54, 73
1, 274427, Note_on_c, 0, 60, 70
1, 274433, Control_c, 0, 64, 0
1, 274440, Note_on_c, 0, 32, 67
1, 274465, Note_on_c, 0, 54, 0
1, 274465, Poly_aftertouch_c, 0, 54, 0
1, 274509, Control_c, 0, 64, 41
1, 274512, Note_on_c, 0, 60, 0
1, 274513, Note_on_c, 0, 62, 0
1, 274514, Poly_aftertouch_c, 0, 62, 0
1, 274527, Control_c, 0, 64, 69
1, 274529, Note_on_c, 0, 65, 0
1, 274538, Note_on_c, 0, 32, 0
1, 274545, Control_c, 0, 64, 96
1, 274565, Control_c, 0, 64, 127
1, 274573, Note_on_c, 0, 44, 64
1, 274609, Note_on_c, 0, 44, 0
1, 274609, Poly_aftertouch_c, 0, 44, 0
1, 274709, Note_on_c, 0, 51, 75
1, 274722, Note_on_c, 0, 54, 63
1, 274793, Note_on_c, 0, 54, 0
1, 274793, Poly_aftertouch_c, 0, 54, 0
1, 274839, Note_on_c, 0, 60, 67
1, 274839, Note_on_c, 0, 81, 82
1, 274849, Note_on_c, 0, 78, 71
1, 274872, Note_on_c, 0, 60, 0
1, 274893, Note_on_c, 0, 78, 0
1, 274893, Poly_aftertouch_c, 0, 78, 0
1, 274920, Note_on_c, 0, 51, 0
1, 274920, Poly_aftertouch_c, 0, 51, 0
1, 274958, Control_c, 0, 67, 36
1, 275003, Note_on_c, 0, 61, 78
1, 275012, Note_on_c, 0, 76, 79
1, 275012, Control_c, 0, 64, 104
1, 275021, Note_on_c, 0, 57, 63
1, 275025, Note_on_c, 0, 54, 58
1, 275027, Note_on_c, 0, 69, 62
1, 275028, Note_on_c, 0, 73, 72
1, 275032, Control_c, 0, 64, 65
1, 275045, Note_on_c, 0, 81, 0
1, 275050, Control_c, 0, 64, 47
1, 275052, Control_c, 0, 67, 30
1, 275070, Control_c, 0, 64, 54
1, 275085, Note_on_c, 0, 61, 0
1, 275087, Control_c, 0, 64, 69
1, 275089, Control_c, 0, 67, 24
1, 275106, Control_c, 0, 64, 82
1, 275124, Control_c, 0, 64, 99
1, 275130, Note_on_c, 0, 52, 76
1, 275133, Note_on_c, 0, 57, 0
1, 275133, Poly_aftertouch_c, 0, 57, 0
1, 275146, Control_c, 0, 64, 121
1, 275147, Control_c, 0, 67, 19
1, 275154, Note_on_c, 0, 54, 0
1, 275154, Poly_aftertouch_c, 0, 54, 0
1, 275161, Note_on_c, 0, 52, 0
1, 275162, Control_c, 0, 64, 127
1, 275178, Note_on_c, 0, 76, 0
1, 275180, Control_c, 0, 67, 15
1, 275272, Poly_aftertouch_c, 0, 69, 24
1, 275297, Note_on_c, 0, 73, 0
1, 275297, Poly_aftertouch_c, 0, 73, 0
1, 275320, Note_on_c, 0, 69, 0
1, 275320, Poly_aftertouch_c, 0, 69, 0
1, 275321, Poly_aftertouch_c, 0, 69, 0
1, 275348, Poly_aftertouch_c, 0, 76, 0
1, 275384, Note_on_c, 0, 44, 68
1, 275405, Note_on_c, 0, 80, 78
1, 275417, Note_on_c, 0, 44, 0
1, 275417, Poly_aftertouch_c, 0, 44, 0
1, 275500, Control_c, 0, 64, 123
1, 275517, Control_c, 0, 64, 96
1, 275537, Note_on_c, 0, 75, 81
1, 275537, Control_c, 0, 64, 61
1, 275544, Note_on_c, 0, 72, 74
1, 275546, Note_on_c, 0, 60, 69
1, 275546, Note_on_c, 0, 68, 72
1, 275549, Note_on_c, 0, 63, 67
1, 275556, Control_c, 0, 64, 28
1, 275566, Note_on_c, 0, 80, 0
1, 275566, Poly_aftertouch_c, 0, 80, 0
1, 275584, Note_on_c, 0, 56, 44
1, 275594, Control_c, 0, 64, 47
1, 275602, Note_on_c, 0, 63, 0
1, 275602, Poly_aftertouch_c, 0, 63, 0
1, 275612, Control_c, 0, 64, 71
1, 275632, Control_c, 0, 64, 91
1, 275648, Control_c, 0, 64, 114
1, 275659, Note_on_c, 0, 60, 0
1, 275666, Note_on_c, 0, 54, 71
1, 275668, Control_c, 0, 64, 127
1, 275681, Note_on_c, 0, 56, 0
1, 275681, Poly_aftertouch_c, 0, 56, 0
1, 275696, Note_on_c, 0, 54, 0
1, 275696, Poly_aftertouch_c, 0, 54, 0
1, 275779, Note_on_c, 0, 72, 0
1, 275891, Note_on_c, 0, 44, 61
1, 275920, Note_on_c, 0, 78, 71
1, 275929, Note_on_c, 0, 44, 0
1, 275929, Poly_aftertouch_c, 0, 44, 0
1, 275944, Note_on_c, 0, 75, 0
1, 275946, Note_on_c, 0, 68, 0
1, 275946, Poly_aftertouch_c, 0, 68, 0
1, 276006, Control_c, 0, 64, 104
1, 276008, Note_on_c, 0, 78, 0
1, 276008, Poly_aftertouch_c, 0, 78, 0
1, 276024, Control_c, 0, 64, 72
1, 276042, Control_c, 0, 64, 60
1, 276043, Note_on_c, 0, 73, 80
1, 276046, Note_on_c, 0, 64, 57
1, 276048, Note_on_c, 0, 61, 63
1, 276058, Note_on_c, 0, 67, 61
1, 276061, Control_c, 0, 64, 67
1, 276080, Control_c, 0, 64, 74
1, 276086, Note_on_c, 0, 64, 0
1, 276098, Control_c, 0, 64, 85
1, 276102, Note_on_c, 0, 67, 0
1, 276115, Control_c, 0, 64, 97
1, 276116, Note_on_c, 0, 57, 25
1, 276117, Note_on_c, 0, 61, 0
1, 276136, Control_c, 0, 64, 112
1, 276141, Note_on_c, 0, 73, 0
1, 276141, Poly_aftertouch_c, 0, 73, 0
1, 276154, Control_c, 0, 64, 126
1, 276169, Note_on_c, 0, 57, 0
1, 276169, Note_on_c, 0, 77, 79
1, 276169, Poly_aftertouch_c, 0, 57, 0
1, 276175, Note_on_c, 0, 55, 62
1, 276203, Note_on_c, 0, 55, 0
1, 276203, Poly_aftertouch_c, 0, 55, 0
1, 276234, Note_on_c, 0, 77, 0
1, 276234, Poly_aftertouch_c, 0, 77, 0
1, 276284, Control_c, 0, 64, 113
1, 276289, Note_on_c, 0, 72, 77
1, 276295, Note_on_c, 0, 57, 71
1, 276303, Control_c, 0, 64, 83
1, 276308, Note_on_c, 0, 53, 62
1, 276308, Note_on_c, 0, 69, 66
1, 276316, Note_on_c, 0, 65, 54
1, 276322, Control_c, 0, 64, 61
1, 276341, Control_c, 0, 64, 64
1, 276353, Note_on_c, 0, 57, 0
1, 276353, Poly_aftertouch_c, 0, 57, 0
1, 276359, Control_c, 0, 64, 71
1, 276379, Control_c, 0, 64, 82
1, 276397, Control_c, 0, 64, 95
1, 276412, Note_on_c, 0, 53, 0
1, 276415, Control_c, 0, 64, 114
1, 276429, Note_on_c, 0, 45, 63
1, 276434, Control_c, 0, 64, 127
1, 276467, Note_on_c, 0, 45, 0
1, 276467, Poly_aftertouch_c, 0, 45, 0
1, 276547, Note_on_c, 0, 45, 70
1, 276621, Note_on_c, 0, 65, 0
1, 276623, Note_on_c, 0, 45, 0
1, 276623, Poly_aftertouch_c, 0, 45, 0
1, 276661, Note_on_c, 0, 33, 67
1, 276671, Note_on_c, 0, 76, 73
1, 276696, Note_on_c, 0, 33, 0
1, 276710, Note_on_c, 0, 76, 0
1, 276751, Note_on_c, 0, 72, 0
1, 276756, Poly_aftertouch_c, 0, 69, 20
1, 276758, Note_on_c, 0, 69, 0
1, 276758, Poly_aftertouch_c, 0, 69, 0
1, 276758, Poly_aftertouch_c, 0, 69, 0
1, 276771, Control_c, 0, 64, 111
1, 276790, Control_c, 0, 64, 78
1, 276808, Control_c, 0, 64, 51
1, 276814, Note_on_c, 0, 70, 76
1, 276818, Note_on_c, 0, 58, 67
1, 276825, Note_on_c, 0, 67, 65
1, 276832, Note_on_c, 0, 55, 55
1, 276835, Note_on_c, 0, 64, 50
1, 276847, Control_c, 0, 64, 58
1, 276860, Note_on_c, 0, 58, 0
1, 276862, Control_c, 0, 64, 72
1, 276884, Control_c, 0, 64, 86
1, 276902, Control_c, 0, 64, 102
1, 276920, Control_c, 0, 64, 123
1, 276940, Control_c, 0, 64, 127
1, 276952, Note_on_c, 0, 55, 0
1, 276952, Poly_aftertouch_c, 0, 55, 0
1, 276966, Poly_aftertouch_c, 0, 55, 0
1, 277044, Note_on_c, 0, 70, 0
1, 277049, Note_on_c, 0, 45, 68
1, 277058, Note_on_c, 0, 67, 0
1, 277081, Note_on_c, 0, 64, 0
1, 277097, Note_on_c, 0, 45, 0
1, 277097, Poly_aftertouch_c, 0, 45, 0
1, 277144, Note_on_c, 0, 74, 63
1, 277169, Note_on_c, 0, 56, 25
1, 277169, Note_on_c, 0, 70, 76
1, 277173, Note_on_c, 0, 55, 63
1, 277180, Note_on_c, 0, 74, 0
1, 277180, Poly_aftertouch_c, 0, 74, 0
1, 277197, Note_on_c, 0, 70, 0
1, 277229, Note_on_c, 0, 56, 0
1, 277229, Poly_aftertouch_c, 0, 56, 0
1, 277248, Note_on_c, 0, 55, 0
1, 277266, Poly_aftertouch_c, 0, 67, 0
1, 277295, Note_on_c, 0, 69, 79
1, 277298, Note_on_c, 0, 53, 61
1, 277303, Note_on_c, 0, 63, 73
1, 277309, Note_on_c, 0, 60, 70
1, 277314, Note_on_c, 0, 65, 60
1, 277343, Note_on_c, 0, 60, 0
1, 277350, Note_on_c, 0, 63, 0
1, 277350, Poly_aftertouch_c, 0, 63, 0
1, 277365, Note_on_c, 0, 65, 0
1, 277406, Control_c, 0, 67, 11
1, 277418, Note_on_c, 0, 53, 0
1, 277423, Note_on_c, 0, 72, 80
1, 277429, Note_on_c, 0, 69, 0
1, 277429, Note_on_c, 0, 45, 72
1, 277456, Note_on_c, 0, 45, 0
1, 277456, Poly_aftertouch_c, 0, 45, 0
1, 277520, Control_c, 0, 64, 112
1, 277538, Control_c, 0, 64, 62
1, 277555, Note_on_c, 0, 68, 80
1, 277556, Note_on_c, 0, 34, 83
1, 277556, Control_c, 0, 64, 0
1, 277561, Note_on_c, 0, 62, 64
1, 277575, Note_on_c, 0, 72, 0
1, 277577, Note_on_c, 0, 65, 55
1, 277589, Note_on_c, 0, 64, 53
1, 277599, Note_on_c, 0, 62, 0
1, 277612, Control_c, 0, 64, 54
1, 277623, Note_on_c, 0, 64, 0
1, 277624, Note_on_c, 0, 65, 0
1, 277631, Control_c, 0, 64, 112
1, 277650, Control_c, 0, 64, 127
1, 277655, Note_on_c, 0, 68, 0
1, 277655, Poly_aftertouch_c, 0, 68, 0
1, 277665, Note_on_c, 0, 34, 0
1, 277667, Control_c, 0, 67, 0
1, 277673, Note_on_c, 0, 46, 81
1, 277710, Note_on_c, 0, 46, 0
1, 277710, Poly_aftertouch_c, 0, 46, 0
1, 277803, Note_on_c, 0, 53, 77
1, 277825, Note_on_c, 0, 56, 69
1, 277870, Note_on_c, 0, 53, 0
1, 277911, Note_on_c, 0, 56, 0
1, 277911, Poly_aftertouch_c, 0, 56, 0
1, 277914, Note_on_c, 0, 83, 88
1, 277918, Poly_aftertouch_c, 0, 53, 0
1, 277920, Note_on_c, 0, 80, 80
1, 277943, Note_on_c, 0, 62, 66
1, 277967, Poly_aftertouch_c, 0, 56, 0
1, 277978, Note_on_c, 0, 62, 0
1, 277989, Note_on_c, 0, 80, 0
1, 277989, Poly_aftertouch_c, 0, 80, 0
1, 278077, Note_on_c, 0, 63, 84
1, 278085, Note_on_c, 0, 78, 88
1, 278086, Note_on_c, 0, 59, 71
1, 278090, Note_on_c, 0, 75, 81
1, 278093, Note_on_c, 0, 71, 75
1, 278099, Note_on_c, 0, 56, 64
1, 278099, Control_c, 0, 64, 88
1, 278118, Control_c, 0, 64, 39
1, 278125, Note_on_c, 0, 83, 0
1, 278137, Control_c, 0, 64, 0
1, 278174, Control_c, 0, 64, 47
1, 278178, Note_on_c, 0, 63, 0
1, 278178, Poly_aftertouch_c, 0, 63, 0
1, 278192, Control_c, 0, 64, 80
1, 278202, Note_on_c, 0, 54, 75
1, 278209, Note_on_c, 0, 59, 0
1, 278211, Control_c, 0, 64, 106
1, 278217, Note_on_c, 0, 56, 0
1, 278229, Control_c, 0, 64, 127
1, 278233, Note_on_c, 0, 54, 0
1, 278233, Poly_aftertouch_c, 0, 54, 0
1, 278314, Note_on_c, 0, 71, 0
1, 278314, Poly_aftertouch_c, 0, 71, 0
1, 278348, Note_on_c, 0, 75, 0
1, 278390, Note_on_c, 0, 78, 0
1, 278390, Poly_aftertouch_c, 0, 78, 0
1, 278410, Note_on_c, 0, 46, 78
1, 278443, Note_on_c, 0, 82, 79
1, 278451, Note_on_c, 0, 46, 0
1, 278451, Poly_aftertouch_c, 0, 46, 0
1, 278548, Control_c, 0, 64, 106
1, 278562, Note_on_c, 0, 74, 68
1, 278565, Note_on_c, 0, 77, 84
1, 278568, Note_on_c, 0, 70, 82
1, 278568, Control_c, 0, 64, 67
1, 278572, Note_on_c, 0, 82, 0
1, 278572, Poly_aftertouch_c, 0, 82, 0
1, 278576, Note_on_c, 0, 62, 77
1, 278579, Note_on_c, 0, 65, 74
1, 278586, Control_c, 0, 64, 24
1, 278601, Note_on_c, 0, 58, 52
1, 278622, Note_on_c, 0, 65, 0
1, 278624, Control_c, 0, 64, 50
1, 278641, Control_c, 0, 64, 78
1, 278660, Control_c, 0, 64, 103
1, 278679, Control_c, 0, 64, 127
1, 278692, Note_on_c, 0, 56, 81
1, 278696, Note_on_c, 0, 62, 0
1, 278714, Note_on_c, 0, 58, 0
1, 278720, Note_on_c, 0, 56, 0
1, 278783, Note_on_c, 0, 74, 0
1, 278783, Poly_aftertouch_c, 0, 74, 0
1, 278888, Note_on_c, 0, 70, 0
1, 278890, Note_on_c, 0, 46, 71
1, 278913, Note_on_c, 0, 80, 69
1, 278922, Note_on_c, 0, 46, 0
1, 278922, Poly_aftertouch_c, 0, 46, 0
1, 278924, Note_on_c, 0, 77, 0
1, 278924, Poly_aftertouch_c, 0, 77, 0
1, 278990, Note_on_c, 0, 80, 0
1, 278990, Poly_aftertouch_c, 0, 80, 0
1, 279031, Note_on_c, 0, 66, 76
1, 279031, Note_on_c, 0, 75, 83
1, 279038, Note_on_c, 0, 63, 72
1, 279040, Note_on_c, 0, 69, 69
1, 279058, Note_on_c, 0, 66, 0
1, 279058, Poly_aftertouch_c, 0, 66, 0
1, 279067, Note_on_c, 0, 59, 47
1, 279074, Note_on_c, 0, 69, 0
1, 279081, Note_on_c, 0, 63, 0
1, 279081, Poly_aftertouch_c, 0, 63, 0
1, 279117, Note_on_c, 0, 75, 0
1, 279137, Note_on_c, 0, 59, 0
1, 279155, Note_on_c, 0, 79, 84
1, 279159, Note_on_c, 0, 57, 64
1, 279186, Note_on_c, 0, 57, 0
1, 279186, Poly_aftertouch_c, 0, 57, 0
1, 279258, Control_c, 0, 64, 104
1, 279269, Note_on_c, 0, 59, 79
1, 279269, Note_on_c, 0, 74, 84
1, 279276, Control_c, 0, 64, 68
1, 279280, Note_on_c, 0, 79, 0
1, 279280, Note_on_c, 0, 71, 75
1, 279280, Poly_aftertouch_c, 0, 79, 0
1, 279284, Note_on_c, 0, 55, 64
1, 279287, Note_on_c, 0, 67, 69
1, 279294, Control_c, 0, 64, 30
1, 279314, Control_c, 0, 64, 0
1, 279317, Note_on_c, 0, 59, 0
1, 279334, Control_c, 0, 64, 37
1, 279335, Note_on_c, 0, 55, 0
1, 279351, Control_c, 0, 64, 67
1, 279370, Control_c, 0, 64, 91
1, 279389, Control_c, 0, 64, 117
1, 279390, Note_on_c, 0, 47, 69
1, 279407, Control_c, 0, 64, 127
1, 279427, Note_on_c, 0, 47, 0
1, 279427, Poly_aftertouch_c, 0, 47, 0
1, 279488, Note_on_c, 0, 74, 0
1, 279488, Poly_aftertouch_c, 0, 74, 0
1, 279493, Note_on_c, 0, 47, 83
1, 279535, Note_on_c, 0, 71, 0
1, 279535, Poly_aftertouch_c, 0, 71, 0
1, 279552, Note_on_c, 0, 67, 0
1, 279560, Note_on_c, 0, 47, 0
1, 279560, Poly_aftertouch_c, 0, 47, 0
1, 279612, Note_on_c, 0, 35, 78
1, 279629, Note_on_c, 0, 78, 70
1, 279636, Note_on_c, 0, 74, 61
1, 279645, Note_on_c, 0, 35, 0
1, 279659, Note_on_c, 0, 78, 0
1, 279659, Poly_aftertouch_c, 0, 78, 0
1, 279662, Note_on_c, 0, 74, 0
1, 279662, Poly_aftertouch_c, 0, 74, 0
1, 279744, Control_c, 0, 64, 102
1, 279760, Note_on_c, 0, 72, 77
1, 279763, Note_on_c, 0, 69, 75
1, 279763, Control_c, 0, 64, 66
1, 279768, Note_on_c, 0, 66, 70
1, 279780, Note_on_c, 0, 60, 66
1, 279781, Note_on_c, 0, 57, 67
1, 279782, Control_c, 0, 64, 31
1, 279818, Control_c, 0, 64, 48
1, 279819, Note_on_c, 0, 60, 0
1, 279824, Note_on_c, 0, 57, 0
1, 279824, Poly_aftertouch_c, 0, 57, 0
1, 279838, Control_c, 0, 64, 73
1, 279857, Control_c, 0, 64, 94
1, 279874, Control_c, 0, 64, 124
1, 279876, Note_on_c, 0, 66, 0
1, 279876, Poly_aftertouch_c, 0, 66, 0
1, 279945, Note_on_c, 0, 69, 0
1, 279956, Note_on_c, 0, 72, 0
1, 279992, Poly_aftertouch_c, 0, 57, 0
1, 279994, Note_on_c, 0, 47, 71
1, 280037, Note_on_c, 0, 47, 0
1, 280037, Poly_aftertouch_c, 0, 47, 0
1, 280075, Note_on_c, 0, 76, 64
1, 280094, Note_on_c, 0, 57, 70
1, 280097, Note_on_c, 0, 69, 65
1, 280098, Note_on_c, 0, 72, 74
1, 280108, Note_on_c, 0, 76, 0
1, 280126, Note_on_c, 0, 72, 0
1, 280133, Note_on_c, 0, 69, 0
1, 280176, Note_on_c, 0, 57, 0
1, 280215, Note_on_c, 0, 62, 80
1, 280220, Note_on_c, 0, 55, 70
1, 280225, Note_on_c, 0, 71, 81
1, 280227, Note_on_c, 0, 67, 77
1, 280230, Note_on_c, 0, 65, 76
1, 280257, Note_on_c, 0, 62, 0
1, 280283, Poly_aftertouch_c, 0, 57, 127
1, 280296, Poly_aftertouch_c, 0, 57, 0
1, 280323, Note_on_c, 0, 65, 0
1, 280340, Note_on_c, 0, 55, 0
1, 280345, Note_on_c, 0, 74, 83
1, 280346, Note_on_c, 0, 71, 0
1, 280346, Poly_aftertouch_c, 0, 71, 0
1, 280366, Note_on_c, 0, 47, 51
1, 280369, Note_on_c, 0, 67, 0
1, 280400, Note_on_c, 0, 47, 0
1, 280400, Poly_aftertouch_c, 0, 47, 0
1, 280456, Control_c, 0, 64, 84
1, 280465, Note_on_c, 0, 36, 90
1, 280469, Note_on_c, 0, 64, 80
1, 280470, Note_on_c, 0, 70, 83
1, 280473, Note_on_c, 0, 67, 82
1, 280473, Control_c, 0, 64, 0
1, 280498, Note_on_c, 0, 74, 0
1, 280498, Poly_aftertouch_c, 0, 74, 0
1, 280529, Control_c, 0, 64, 11
1, 280534, Note_on_c, 0, 64, 0
1, 280548, Control_c, 0, 64, 104
1, 280567, Control_c, 0, 64, 127
1, 280571, Note_on_c, 0, 67, 0
1, 280586, Note_on_c, 0, 36, 0
1, 280586, Poly_aftertouch_c, 0, 36, 0
1, 280592, Note_on_c, 0, 70, 0
1, 280602, Note_on_c, 0, 48, 85
1, 280633, Note_on_c, 0, 48, 0
1, 280633, Poly_aftertouch_c, 0, 48, 0
1, 280748, Note_on_c, 0, 55, 75
1, 280753, Note_on_c, 0, 58, 78
1, 280871, Note_on_c, 0, 85, 95
1, 280875, Note_on_c, 0, 82, 85
1, 280890, Note_on_c, 0, 64, 80
1, 280933, Note_on_c, 0, 64, 0
1, 280959, Note_on_c, 0, 58, 0
1, 280975, Note_on_c, 0, 82, 0
1, 280975, Poly_aftertouch_c, 0, 82, 0
1, 281074, Note_on_c, 0, 61, 80
1, 281077, Note_on_c, 0, 65, 84
1, 281085, Note_on_c, 0, 58, 78
1, 281105, Note_on_c, 0, 55, 0
1, 281128, Control_c, 0, 64, 97
1, 281145, Note_on_c, 0, 80, 86
1, 281146, Note_on_c, 0, 73, 85
1, 281146, Control_c, 0, 64, 56
1, 281149, Note_on_c, 0, 77, 80
1, 281165, Control_c, 0, 64, 0
1, 281203, Control_c, 0, 64, 48
1, 281205, Note_on_c, 0, 85, 0
1, 281221, Control_c, 0, 64, 78
1, 281222, Note_on_c, 0, 65, 0
1, 281241, Control_c, 0, 64, 102
1, 281250, Note_on_c, 0, 56, 81
1, 281258, Control_c, 0, 64, 127
1, 281260, Note_on_c, 0, 61, 0
1, 281272, Note_on_c, 0, 58, 0
1, 281283, Note_on_c, 0, 56, 0
1, 281290, Note_on_c, 0, 73, 0
1, 281290, Poly_aftertouch_c, 0, 73, 0
1, 281388, Note_on_c, 0, 77, 0
1, 281388, Poly_aftertouch_c, 0, 77, 0
1, 281458, Note_on_c, 0, 48, 67
1, 281475, Note_on_c, 0, 84, 75
1, 281478, Note_on_c, 0, 80, 0
1, 281478, Poly_aftertouch_c, 0, 80, 0
1, 281486, Note_on_c, 0, 48, 0
1, 281486, Poly_aftertouch_c, 0, 48, 0
1, 281577, Control_c, 0, 64, 101
1, 281591, Note_on_c, 0, 79, 88
1, 281594, Note_on_c, 0, 76, 84
1, 281594, Control_c, 0, 64, 64
1, 281595, Note_on_c, 0, 72, 87
1, 281597, Note_on_c, 0, 64, 80
1, 281600, Note_on_c, 0, 67, 82
1, 281611, Note_on_c, 0, 60, 68
1, 281612, Control_c, 0, 64, 42
1, 281614, Note_on_c, 0, 84, 0
1, 281614, Poly_aftertouch_c, 0, 84, 0
1, 281632, Control_c, 0, 64, 50
1, 281652, Control_c, 0, 64, 67
1, 281671, Control_c, 0, 64, 88
1, 281673, Note_on_c, 0, 67, 0
1, 281688, Control_c, 0, 64, 112
1, 281707, Control_c, 0, 64, 127
1, 281716, Note_on_c, 0, 58, 83
1, 281721, Note_on_c, 0, 64, 0
1, 281744, Note_on_c, 0, 60, 0
1, 281754, Note_on_c, 0, 58, 0
1, 281857, Note_on_c, 0, 72, 0
1, 281894, Note_on_c, 0, 79, 0
1, 281894, Poly_aftertouch_c, 0, 79, 0
1, 281903, Note_on_c, 0, 76, 0
1, 281919, Note_on_c, 0, 48, 72
1, 281931, Note_on_c, 0, 82, 79
1, 281944, Note_on_c, 0, 48, 0
1, 281944, Poly_aftertouch_c, 0, 48, 0
1, 281965, Note_on_c, 0, 82, 0
1, 281965, Poly_aftertouch_c, 0, 82, 0
1, 282025, Control_c, 0, 64, 103
1, 282044, Control_c, 0, 64, 74
1, 282051, Note_on_c, 0, 73, 80
1, 282051, Note_on_c, 0, 68, 86
1, 282053, Note_on_c, 0, 77, 79
1, 282055, Note_on_c, 0, 70, 78
1, 282063, Control_c, 0, 64, 69
1, 282076, Note_on_c, 0, 61, 58
1, 282082, Control_c, 0, 64, 76
1, 282083, Note_on_c, 0, 64, 41
1, 282091, Note_on_c, 0, 65, 47
1, 282100, Control_c, 0, 64, 85
1, 282112, Note_on_c, 0, 68, 0
1, 282112, Poly_aftertouch_c, 0, 68, 0
1, 282118, Control_c, 0, 64, 98
1, 282127, Note_on_c, 0, 65, 0
1, 282138, Control_c, 0, 64, 116
1, 282146, Note_on_c, 0, 70, 0
1, 282148, Note_on_c, 0, 64, 0
1, 282155, Control_c, 0, 64, 127
1, 282187, Note_on_c, 0, 80, 83
1, 282197, Note_on_c, 0, 56, 72
1, 282201, Note_on_c, 0, 61, 0
1, 282205, Note_on_c, 0, 77, 0
1, 282205, Poly_aftertouch_c, 0, 77, 0
1, 282232, Note_on_c, 0, 73, 0
1, 282232, Poly_aftertouch_c, 0, 73, 0
1, 282238, Note_on_c, 0, 81, 43
1, 282269, Control_c, 0, 64, 119
1, 282272, Note_on_c, 0, 81, 0
1, 282274, Note_on_c, 0, 80, 0
1, 282274, Poly_aftertouch_c, 0, 80, 0
1, 282287, Note_on_c, 0, 56, 0
1, 282287, Control_c, 0, 64, 81
1, 282297, Note_on_c, 0, 70, 85
1, 282302, Note_on_c, 0, 60, 34
1, 282305, Note_on_c, 0, 64, 65
1, 282306, Note_on_c, 0, 76, 80
1, 282306, Control_c, 0, 64, 52
1, 282309, Note_on_c, 0, 72, 80
1, 282310, Note_on_c, 0, 67, 85
1, 282326, Control_c, 0, 64, 57
1, 282335, Note_on_c, 0, 61, 35
1, 282342, Control_c, 0, 64, 69
1, 282354, Note_on_c, 0, 70, 0
1, 282361, Control_c, 0, 64, 80
1, 282381, Control_c, 0, 64, 90
1, 282386, Note_on_c, 0, 61, 0
1, 282399, Note_on_c, 0, 64, 0
1, 282399, Control_c, 0, 64, 105
1, 282418, Control_c, 0, 64, 121
1, 282425, Note_on_c, 0, 55, 86
1, 282436, Control_c, 0, 64, 127
1, 282441, Note_on_c, 0, 60, 0
1, 282452, Note_on_c, 0, 55, 0
1, 282551, Note_on_c, 0, 58, 86
1, 282615, Note_on_c, 0, 58, 0
1, 282679, Note_on_c, 0, 79, 80
1, 282682, Note_on_c, 0, 48, 81
1, 282689, Note_on_c, 0, 76, 0
1, 282698, Note_on_c, 0, 72, 0
1, 282715, Note_on_c, 0, 48, 0
1, 282715, Poly_aftertouch_c, 0, 48, 0
1, 282735, Note_on_c, 0, 79, 0
1, 282735, Poly_aftertouch_c, 0, 79, 0
1, 282739, Note_on_c, 0, 67, 0
1, 282829, Control_c, 0, 64, 108
1, 282846, Note_on_c, 0, 71, 95
1, 282847, Control_c, 0, 64, 77
1, 282848, Note_on_c, 0, 73, 93
1, 282851, Note_on_c, 0, 65, 80
1, 282867, Control_c, 0, 64, 66
1, 282879, Note_on_c, 0, 61, 66
1, 282886, Control_c, 0, 64, 70
1, 282903, Control_c, 0, 64, 76
1, 282914, Note_on_c, 0, 71, 0
1, 282914, Poly_aftertouch_c, 0, 71, 0
1, 282922, Control_c, 0, 64, 84
1, 282941, Poly_aftertouch_c, 0, 69, 0
1, 282942, Control_c, 0, 64, 96
1, 282960, Control_c, 0, 64, 112
1, 282980, Control_c, 0, 64, 124
1, 283007, Note_on_c, 0, 61, 0
1, 283014, Note_on_c, 0, 56, 75
1, 283035, Note_on_c, 0, 56, 0
1, 283045, Note_on_c, 0, 55, 49
1, 283046, Note_on_c, 0, 55, 0
1, 283086, Poly_aftertouch_c, 0, 55, 0
1, 283152, Note_on_c, 0, 59, 89
1, 283206, Note_on_c, 0, 59, 0
1, 283307, Note_on_c, 0, 77, 92
1, 283325, Note_on_c, 0, 73, 0
1, 283325, Poly_aftertouch_c, 0, 73, 0
1, 283330, Note_on_c, 0, 48, 36
1, 283344, Note_on_c, 0, 65, 0
1, 283381, Note_on_c, 0, 48, 0
1, 283381, Poly_aftertouch_c, 0, 48, 0
1, 283447, Poly_aftertouch_c, 0, 50, 0
1, 283496, Note_on_c, 0, 60, 52
1, 283577, Control_c, 0, 64, 115
1, 283596, Control_c, 0, 64, 77
1, 283614, Control_c, 0, 64, 37
1, 283633, Control_c, 0, 64, 27
1, 283639, Note_on_c, 0, 72, 94
1, 283651, Control_c, 0, 64, 51
1, 283653, Note_on_c, 0, 67, 80
1, 283664, Note_on_c, 0, 70, 87
1, 283666, Note_on_c, 0, 77, 0
1, 283666, Poly_aftertouch_c, 0, 77, 0
1, 283670, Control_c, 0, 64, 73
1, 283691, Control_c, 0, 64, 91
1, 283709, Control_c, 0, 64, 118
1, 283727, Control_c, 0, 64, 127
1, 283743, Note_on_c, 0, 70, 0
1, 283773, Poly_aftertouch_c, 0, 56, 127
1, 283803, Poly_aftertouch_c, 0, 56, 0
1, 283810, Note_on_c, 0, 60, 0
1, 283897, Note_on_c, 0, 67, 0
1, 283927, Note_on_c, 0, 76, 96
1, 283953, Note_on_c, 0, 72, 0
1, 284143, Note_on_c, 0, 28, 85
1, 284270, Control_c, 0, 64, 84
1, 284288, Control_c, 0, 64, 0
1, 284290, Note_on_c, 0, 71, 88
1, 284290, Note_on_c, 0, 67, 80
1, 284293, Note_on_c, 0, 64, 85
1, 284301, Note_on_c, 0, 40, 89
1, 284320, Note_on_c, 0, 76, 0
1, 284364, Control_c, 0, 64, 61
1, 284381, Control_c, 0, 64, 97
1, 284395, Note_on_c, 0, 64, 0
1, 284398, Control_c, 0, 64, 127
1, 284448, Note_on_c, 0, 28, 0
1, 284448, Poly_aftertouch_c, 0, 28, 0
1, 284449, Note_on_c, 0, 67, 0
1, 284487, Note_on_c, 0, 71, 0
1, 284487, Poly_aftertouch_c, 0, 71, 0
1, 284527, Note_on_c, 0, 40, 0
1, 284679, Note_on_c, 0, 85, 88
1, 284685, Note_on_c, 0, 76, 73
1, 284806, Note_on_c, 0, 76, 0
1, 284870, Note_on_c, 0, 40, 56
1, 284873, Note_on_c, 0, 47, 66
1, 284885, Note_on_c, 0, 79, 70
1, 284892, Note_on_c, 0, 75, 66
1, 284901, Note_on_c, 0, 85, 0
1, 284987, Note_on_c, 0, 40, 0
1, 284993, Note_on_c, 0, 79, 0
1, 284993, Poly_aftertouch_c, 0, 79, 0
1, 285036, Note_on_c, 0, 47, 0
1, 285036, Poly_aftertouch_c, 0, 47, 0
1, 285040, Note_on_c, 0, 52, 67
1, 285048, Note_on_c, 0, 83, 77
1, 285065, Note_on_c, 0, 74, 60
1, 285066, Note_on_c, 0, 75, 0
1, 285083, Note_on_c, 0, 52, 0
1, 285116, Note_on_c, 0, 74, 0
1, 285116, Poly_aftertouch_c, 0, 74, 0
1, 285197, Note_on_c, 0, 78, 76
1, 285200, Note_on_c, 0, 83, 0
1, 285203, Note_on_c, 0, 59, 82
1, 285207, Note_on_c, 0, 75, 71
1, 285210, Note_on_c, 0, 47, 71
1, 285231, Note_on_c, 0, 59, 0
1, 285247, Note_on_c, 0, 47, 0
1, 285247, Poly_aftertouch_c, 0, 47, 0
1, 285279, Note_on_c, 0, 78, 0
1, 285279, Poly_aftertouch_c, 0, 78, 0
1, 285329, Note_on_c, 0, 81, 82
1, 285334, Note_on_c, 0, 74, 73
1, 285344, Note_on_c, 0, 75, 0
1, 285363, Note_on_c, 0, 74, 0
1, 285363, Poly_aftertouch_c, 0, 74, 0
1, 285442, Note_on_c, 0, 73, 80
1, 285442, Note_on_c, 0, 76, 79
1, 285445, Note_on_c, 0, 81, 0
1, 285490, Note_on_c, 0, 73, 0
1, 285490, Poly_aftertouch_c, 0, 73, 0
1, 285543, Note_on_c, 0, 79, 87
1, 285548, Note_on_c, 0, 72, 77
1, 285575, Note_on_c, 0, 72, 0
1, 285602, Note_on_c, 0, 76, 0
1, 285651, Note_on_c, 0, 74, 80
1, 285654, Note_on_c, 0, 71, 88
1, 285665, Note_on_c, 0, 79, 0
1, 285665, Note_on_c, 0, 72, 72
1, 285665, Poly_aftertouch_c, 0, 79, 0
1, 285666, Note_on_c, 0, 64, 79
1, 285671, Note_on_c, 0, 59, 66
1, 285679, Note_on_c, 0, 71, 0
1, 285679, Poly_aftertouch_c, 0, 71, 0
1, 285694, Note_on_c, 0, 64, 0
1, 285694, Note_on_c, 0, 72, 0
1, 285696, Note_on_c, 0, 59, 0
1, 285714, Note_on_c, 0, 74, 0
1, 285714, Poly_aftertouch_c, 0, 74, 0
1, 285774, Note_on_c, 0, 78, 80
1, 285775, Note_on_c, 0, 70, 79
1, 285824, Note_on_c, 0, 79, 39
1, 285843, Note_on_c, 0, 70, 0
1, 285858, Note_on_c, 0, 79, 0
1, 285858, Poly_aftertouch_c, 0, 79, 0
1, 285861, Note_on_c, 0, 78, 0
1, 285861, Poly_aftertouch_c, 0, 78, 0
1, 285889, Note_on_c, 0, 73, 80
1, 285900, Note_on_c, 0, 69, 67
1, 285934, Note_on_c, 0, 69, 0
1, 285964, Note_on_c, 0, 73, 0
1, 285964, Poly_aftertouch_c, 0, 73, 0
1, 286003, Note_on_c, 0, 76, 78
1, 286016, Note_on_c, 0, 68, 69
1, 286057, Note_on_c, 0, 68, 0
1, 286057, Poly_aftertouch_c, 0, 68, 0
1, 286131, Note_on_c, 0, 59, 69
1, 286133, Note_on_c, 0, 76, 0
1, 286142, Note_on_c, 0, 71, 72
1, 286148, Note_on_c, 0, 67, 60
1, 286153, Note_on_c, 0, 47, 54
1, 286154, Note_on_c, 0, 52, 59
1, 286161, Note_on_c, 0, 59, 0
1, 286177, Note_on_c, 0, 67, 0
1, 286188, Note_on_c, 0, 71, 0
1, 286188, Poly_aftertouch_c, 0, 71, 0
1, 286192, Note_on_c, 0, 52, 0
1, 286192, Note_on_c, 0, 47, 0
1, 286192, Poly_aftertouch_c, 0, 47, 0
1, 286329, Note_on_c, 0, 85, 77
1, 286332, Note_on_c, 0, 76, 60
1, 286367, Note_on_c, 0, 76, 0
1, 286405, Note_on_c, 0, 85, 0
1, 286443, Note_on_c, 0, 79, 71
1, 286448, Note_on_c, 0, 52, 69
1, 286452, Note_on_c, 0, 47, 70
1, 286454, Note_on_c, 0, 75, 61
1, 286462, Note_on_c, 0, 40, 56
1, 286480, Note_on_c, 0, 52, 0
1, 286483, Note_on_c, 0, 47, 0
1, 286483, Poly_aftertouch_c, 0, 47, 0
1, 286490, Note_on_c, 0, 79, 0
1, 286490, Poly_aftertouch_c, 0, 79, 0
1, 286493, Note_on_c, 0, 40, 0
1, 286497, Note_on_c, 0, 75, 0
1, 286558, Note_on_c, 0, 74, 67
1, 286560, Note_on_c, 0, 83, 79
1, 286585, Note_on_c, 0, 74, 0
1, 286585, Poly_aftertouch_c, 0, 74, 0
1, 286642, Note_on_c, 0, 83, 0
1, 286650, Note_on_c, 0, 75, 74
1, 286650, Note_on_c, 0, 78, 77
1, 286725, Note_on_c, 0, 75, 0
1, 286743, Note_on_c, 0, 74, 59
1, 286748, Note_on_c, 0, 81, 81
1, 286763, Note_on_c, 0, 78, 0
1, 286763, Poly_aftertouch_c, 0, 78, 0
1, 286781, Note_on_c, 0, 76, 30
1, 286782, Note_on_c, 0, 74, 0
1, 286782, Poly_aftertouch_c, 0, 74, 0
1, 286849, Note_on_c, 0, 73, 85
1, 286855, Note_on_c, 0, 76, 0
1, 286855, Note_on_c, 0, 76, 63
1, 286857, Note_on_c, 0, 40, 85
1, 286861, Note_on_c, 0, 28, 79
1, 286862, Note_on_c, 0, 35, 82
1, 286866, Note_on_c, 0, 81, 0
1, 286886, Note_on_c, 0, 40, 0
1, 286891, Note_on_c, 0, 28, 0
1, 286891, Poly_aftertouch_c, 0, 28, 0
1, 286894, Note_on_c, 0, 35, 0
1, 286906, Note_on_c, 0, 76, 0
1, 286914, Note_on_c, 0, 73, 0
1, 286914, Poly_aftertouch_c, 0, 73, 0
1, 286962, Note_on_c, 0, 72, 77
1, 286964, Note_on_c, 0, 79, 85
1, 286991, Note_on_c, 0, 72, 0
1, 287069, Note_on_c, 0, 74, 81
1, 287069, Poly_aftertouch_c, 0, 40, 0
1, 287076, Note_on_c, 0, 71, 80
1, 287086, Note_on_c, 0, 79, 0
1, 287086, Poly_aftertouch_c, 0, 79, 0
1, 287107, Note_on_c, 0, 71, 0
1, 287107, Poly_aftertouch_c, 0, 71, 0
1, 287128, Note_on_c, 0, 74, 0
1, 287128, Poly_aftertouch_c, 0, 74, 0
1, 287164, Note_on_c, 0, 70, 83
1, 287184, Note_on_c, 0, 78, 76
1, 287234, Note_on_c, 0, 70, 0
1, 287250, Note_on_c, 0, 78, 0
1, 287250, Poly_aftertouch_c, 0, 78, 0
1, 287282, Note_on_c, 0, 40, 78
1, 287283, Note_on_c, 0, 69, 80
1, 287288, Note_on_c, 0, 47, 80
1, 287290, Note_on_c, 0, 73, 80
1, 287328, Note_on_c, 0, 69, 0
1, 287336, Note_on_c, 0, 73, 0
1, 287336, Poly_aftertouch_c, 0, 73, 0
1, 287368, Note_on_c, 0, 40, 0
1, 287388, Note_on_c, 0, 68, 77
1, 287389, Note_on_c, 0, 52, 84
1, 287400, Note_on_c, 0, 76, 69
1, 287412, Note_on_c, 0, 47, 0
1, 287412, Poly_aftertouch_c, 0, 47, 0
1, 287426, Note_on_c, 0, 52, 0
1, 287454, Note_on_c, 0, 68, 0
1, 287454, Poly_aftertouch_c, 0, 68, 0
1, 287496, Note_on_c, 0, 76, 0
1, 287514, Note_on_c, 0, 71, 75
1, 287515, Note_on_c, 0, 67, 79
1, 287516, Note_on_c, 0, 59, 98
1, 287525, Note_on_c, 0, 47, 87
1, 287539, Note_on_c, 0, 59, 0
1, 287551, Note_on_c, 0, 47, 0
1, 287551, Poly_aftertouch_c, 0, 47, 0
1, 287575, Note_on_c, 0, 67, 0
1, 287578, Note_on_c, 0, 71, 0
1, 287578, Poly_aftertouch_c, 0, 71, 0
1, 287646, Note_on_c, 0, 74, 87
1, 287649, Note_on_c, 0, 66, 82
1, 287745, Note_on_c, 0, 74, 0
1, 287745, Poly_aftertouch_c, 0, 74, 0
1, 287763, Note_on_c, 0, 69, 84
1, 287771, Note_on_c, 0, 64, 83
1, 287783, Note_on_c, 0, 66, 0
1, 287783, Poly_aftertouch_c, 0, 66, 0
1, 287830, Note_on_c, 0, 64, 0
1, 287884, Note_on_c, 0, 73, 86
1, 287887, Note_on_c, 0, 66, 87
1, 287891, Note_on_c, 0, 69, 0
1, 287914, Note_on_c, 0, 64, 15
1, 287952, Control_c, 0, 64, 114
1, 287968, Note_on_c, 0, 66, 0
1, 287968, Poly_aftertouch_c, 0, 66, 0
1, 287972, Control_c, 0, 64, 67
1, 287992, Control_c, 0, 64, 0
1, 288007, Note_on_c, 0, 43, 97
1, 288008, Note_on_c, 0, 31, 88
1, 288010, Note_on_c, 0, 67, 92
1, 288013, Note_on_c, 0, 38, 85
1, 288030, Note_on_c, 0, 73, 0
1, 288030, Poly_aftertouch_c, 0, 73, 0
1, 288047, Control_c, 0, 64, 74
1, 288059, Note_on_c, 0, 64, 0
1, 288060, Poly_aftertouch_c, 0, 64, 0
1, 288063, Note_on_c, 0, 31, 0
1, 288063, Poly_aftertouch_c, 0, 31, 0
1, 288064, Note_on_c, 0, 67, 0
1, 288064, Control_c, 0, 64, 123
1, 288067, Note_on_c, 0, 43, 0
1, 288067, Poly_aftertouch_c, 0, 43, 0
1, 288083, Note_on_c, 0, 38, 0
1, 288083, Poly_aftertouch_c, 0, 38, 0
1, 288083, Control_c, 0, 64, 127
1, 288314, Note_on_c, 0, 88, 97
1, 288324, Note_on_c, 0, 78, 87
1, 288400, Note_on_c, 0, 88, 0
1, 288430, Note_on_c, 0, 78, 0
1, 288430, Poly_aftertouch_c, 0, 78, 0
1, 288451, Note_on_c, 0, 50, 85
1, 288458, Note_on_c, 0, 43, 80
1, 288467, Note_on_c, 0, 83, 82
1, 288472, Note_on_c, 0, 79, 77
1, 288517, Note_on_c, 0, 79, 0
1, 288517, Poly_aftertouch_c, 0, 79, 0
1, 288584, Note_on_c, 0, 43, 0
1, 288584, Poly_aftertouch_c, 0, 43, 0
1, 288595, Note_on_c, 0, 55, 82
1, 288601, Note_on_c, 0, 86, 86
1, 288609, Note_on_c, 0, 50, 0
1, 288609, Note_on_c, 0, 78, 73
1, 288618, Note_on_c, 0, 83, 0
1, 288633, Note_on_c, 0, 55, 0
1, 288722, Note_on_c, 0, 62, 97
1, 288723, Note_on_c, 0, 86, 0
1, 288726, Note_on_c, 0, 81, 86
1, 288727, Note_on_c, 0, 76, 83
1, 288728, Note_on_c, 0, 50, 90
1, 288746, Note_on_c, 0, 62, 0
1, 288747, Note_on_c, 0, 78, 0
1, 288747, Poly_aftertouch_c, 0, 78, 0
1, 288752, Note_on_c, 0, 50, 0
1, 288779, Note_on_c, 0, 76, 0
1, 288792, Note_on_c, 0, 81, 0
1, 288847, Note_on_c, 0, 78, 84
1, 288851, Note_on_c, 0, 85, 87
1, 288904, Note_on_c, 0, 78, 0
1, 288904, Poly_aftertouch_c, 0, 78, 0
1, 288918, Note_on_c, 0, 85, 0
1, 288962, Note_on_c, 0, 76, 82
1, 288966, Note_on_c, 0, 79, 86
1, 288987, Note_on_c, 0, 76, 0
1, 289062, Note_on_c, 0, 83, 86
1, 289068, Note_on_c, 0, 75, 85
1, 289087, Note_on_c, 0, 79, 0
1, 289087, Poly_aftertouch_c, 0, 79, 0
1, 289163, Note_on_c, 0, 75, 0
1, 289187, Note_on_c, 0, 74, 102
1, 289199, Note_on_c, 0, 78, 87
1, 289200, Note_on_c, 0, 67, 88
1, 289204, Note_on_c, 0, 62, 78
1, 289214, Note_on_c, 0, 83, 0
1, 289229, Note_on_c, 0, 76, 39
1, 289230, Note_on_c, 0, 76, 0
1, 289239, Note_on_c, 0, 62, 0
1, 289240, Note_on_c, 0, 67, 0
1, 289242, Note_on_c, 0, 74, 0
1, 289242, Poly_aftertouch_c, 0, 74, 0
1, 289268, Poly_aftertouch_c, 0, 76, 0
1, 289282, Note_on_c, 0, 78, 0
1, 289282, Poly_aftertouch_c, 0, 78, 0
1, 289340, Note_on_c, 0, 81, 81
1, 289362, Note_on_c, 0, 74, 66
1, 289395, Note_on_c, 0, 74, 0
1, 289395, Poly_aftertouch_c, 0, 74, 0
1, 289425, Note_on_c, 0, 81, 0
1, 289455, Note_on_c, 0, 71, 84
1, 289463, Note_on_c, 0, 76, 69
1, 289497, Note_on_c, 0, 76, 0
1, 289516, Note_on_c, 0, 71, 0
1, 289516, Poly_aftertouch_c, 0, 71, 0
1, 289576, Note_on_c, 0, 79, 74
1, 289594, Note_on_c, 0, 77, 69
1, 289595, Note_on_c, 0, 70, 76
1, 289627, Note_on_c, 0, 77, 0
1, 289627, Poly_aftertouch_c, 0, 77, 0
1, 289694, Note_on_c, 0, 74, 84
1, 289694, Note_on_c, 0, 62, 87
1, 289696, Note_on_c, 0, 79, 0
1, 289696, Poly_aftertouch_c, 0, 79, 0
1, 289698, Note_on_c, 0, 50, 82
1, 289704, Note_on_c, 0, 55, 81
1, 289705, Note_on_c, 0, 71, 77
1, 289708, Note_on_c, 0, 70, 0
1, 289721, Note_on_c, 0, 62, 0
1, 289729, Note_on_c, 0, 50, 0
1, 289730, Note_on_c, 0, 71, 0
1, 289730, Poly_aftertouch_c, 0, 71, 0
1, 289731, Note_on_c, 0, 55, 0
1, 289742, Note_on_c, 0, 74, 0
1, 289742, Poly_aftertouch_c, 0, 74, 0
1, 289871, Note_on_c, 0, 88, 85
1, 289881, Note_on_c, 0, 78, 76
1, 289902, Note_on_c, 0, 51, 45
1, 289940, Note_on_c, 0, 88, 0
1, 289951, Note_on_c, 0, 51, 0
1, 289951, Poly_aftertouch_c, 0, 51, 0
1, 289996, Note_on_c, 0, 78, 0
1, 289996, Poly_aftertouch_c, 0, 78, 0
1, 290009, Note_on_c, 0, 79, 70
1, 290009, Note_on_c, 0, 55, 79
1, 290019, Note_on_c, 0, 50, 75
1, 290020, Note_on_c, 0, 43, 72
1, 290022, Note_on_c, 0, 83, 71
1, 290039, Note_on_c, 0, 55, 0
1, 290040, Note_on_c, 0, 79, 0
1, 290040, Poly_aftertouch_c, 0, 79, 0
1, 290055, Note_on_c, 0, 43, 0
1, 290055, Note_on_c, 0, 50, 0
1, 290055, Poly_aftertouch_c, 0, 43, 0
1, 290128, Note_on_c, 0, 86, 83
1, 290133, Note_on_c, 0, 83, 0
1, 290140, Note_on_c, 0, 78, 73
1, 290212, Note_on_c, 0, 86, 0
1, 290240, Note_on_c, 0, 81, 79
1, 290241, Note_on_c, 0, 76, 78
1, 290246, Poly_aftertouch_c, 0, 82, 0
1, 290248, Note_on_c, 0, 78, 0
1, 290248, Poly_aftertouch_c, 0, 78, 0
1, 290334, Note_on_c, 0, 85, 86
1, 290355, Note_on_c, 0, 81, 0
1, 290357, Note_on_c, 0, 78, 66
1, 290360, Note_on_c, 0, 76, 0
1, 290382, Note_on_c, 0, 78, 0
1, 290382, Note_on_c, 0, 85, 0
1, 290382, Poly_aftertouch_c, 0, 78, 0
1, 290445, Note_on_c, 0, 43, 80
1, 290449, Note_on_c, 0, 38, 76
1, 290450, Note_on_c, 0, 31, 71
1, 290455, Note_on_c, 0, 79, 75
1, 290458, Note_on_c, 0, 76, 64
1, 290472, Note_on_c, 0, 43, 0
1, 290472, Poly_aftertouch_c, 0, 43, 0
1, 290477, Note_on_c, 0, 38, 0
1, 290477, Poly_aftertouch_c, 0, 38, 0
1, 290488, Note_on_c, 0, 76, 0
1, 290493, Note_on_c, 0, 31, 0
1, 290493, Poly_aftertouch_c, 0, 31, 0
1, 290496, Note_on_c, 0, 79, 0
1, 290496, Poly_aftertouch_c, 0, 79, 0
1, 290500, Poly_aftertouch_c, 0, 84, 127
1, 290506, Poly_aftertouch_c, 0, 84, 0
1, 290551, Note_on_c, 0, 83, 83
1, 290558, Note_on_c, 0, 75, 77
1, 290652, Poly_aftertouch_c, 0, 38, 0
1, 290664, Note_on_c, 0, 75, 0
1, 290664, Note_on_c, 0, 78, 46
1, 290668, Note_on_c, 0, 83, 0
1, 290669, Note_on_c, 0, 74, 75
1, 290697, Note_on_c, 0, 74, 0
1, 290697, Poly_aftertouch_c, 0, 74, 0
1, 290715, Note_on_c, 0, 78, 0
1, 290715, Poly_aftertouch_c, 0, 78, 0
1, 290763, Note_on_c, 0, 81, 87
1, 290767, Note_on_c, 0, 73, 85
1, 290872, Note_on_c, 0, 50, 81
1, 290875, Note_on_c, 0, 43, 72
1, 290880, Note_on_c, 0, 76, 80
1, 290881, Note_on_c, 0, 73, 0
1, 290881, Poly_aftertouch_c, 0, 73, 0
1, 290894, Note_on_c, 0, 71, 67
1, 290908, Note_on_c, 0, 81, 0
1, 290919, Note_on_c, 0, 72, 45
1, 290940, Note_on_c, 0, 76, 0
1, 290946, Note_on_c, 0, 71, 0
1, 290946, Poly_aftertouch_c, 0, 71, 0
1, 290954, Note_on_c, 0, 72, 0
1, 290989, Note_on_c, 0, 55, 79
1, 290995, Note_on_c, 0, 79, 86
1, 291004, Note_on_c, 0, 70, 80
1, 291021, Note_on_c, 0, 50, 0
1, 291026, Note_on_c, 0, 43, 0
1, 291026, Poly_aftertouch_c, 0, 43, 0
1, 291033, Note_on_c, 0, 70, 0
1, 291038, Note_on_c, 0, 55, 0
1, 291069, Poly_aftertouch_c, 0, 71, 127
1, 291141, Note_on_c, 0, 74, 77
1, 291143, Note_on_c, 0, 79, 0
1, 291143, Poly_aftertouch_c, 0, 79, 0
1, 291149, Note_on_c, 0, 62, 93
1, 291151, Note_on_c, 0, 50, 92
1, 291157, Note_on_c, 0, 71, 44
1, 291172, Note_on_c, 0, 62, 0
1, 291178, Note_on_c, 0, 50, 0
1, 291212, Note_on_c, 0, 71, 0
1, 291212, Poly_aftertouch_c, 0, 71, 0
1, 291292, Note_on_c, 0, 74, 0
1, 291292, Poly_aftertouch_c, 0, 74, 0
1, 291325, Note_on_c, 0, 70, 84
1, 291331, Note_on_c, 0, 78, 87
1, 291343, Poly_aftertouch_c, 0, 50, 0
1, 291439, Note_on_c, 0, 70, 0
1, 291468, Note_on_c, 0, 73, 87
1, 291471, Note_on_c, 0, 69, 84
1, 291488, Note_on_c, 0, 78, 0
1, 291488, Poly_aftertouch_c, 0, 78, 0
1, 291526, Note_on_c, 0, 69, 0
1, 291554, Poly_aftertouch_c, 0, 70, 0
1, 291591, Note_on_c, 0, 76, 87
1, 291592, Note_on_c, 0, 68, 86
1, 291616, Note_on_c, 0, 73, 0
1, 291616, Poly_aftertouch_c, 0, 73, 0
1, 291685, Note_on_c, 0, 68, 0
1, 291685, Poly_aftertouch_c, 0, 68, 0
1, 291692, Control_c, 0, 64, 123
1, 291712, Control_c, 0, 64, 77
1, 291728, Note_on_c, 0, 47, 98
1, 291728, Control_c, 0, 64, 0
1, 291729, Note_on_c, 0, 67, 90
1, 291729, Note_on_c, 0, 35, 89
1, 291730, Note_on_c, 0, 40, 83
1, 291730, Note_on_c, 0, 71, 85
1, 291753, Note_on_c, 0, 73, 61
1, 291779, Note_on_c, 0, 73, 0
1, 291779, Poly_aftertouch_c, 0, 73, 0
1, 291784, Note_on_c, 0, 67, 0
1, 291785, Control_c, 0, 64, 69
1, 291789, Note_on_c, 0, 76, 0
1, 291800, Note_on_c, 0, 71, 0
1, 291800, Poly_aftertouch_c, 0, 71, 0
1, 291804, Control_c, 0, 64, 115
1, 291823, Control_c, 0, 64, 127
1, 291892, Note_on_c, 0, 35, 0
1, 291969, Note_on_c, 0, 40, 0
1, 292006, Note_on_c, 0, 47, 0
1, 292006, Poly_aftertouch_c, 0, 47, 0
1, 292166, Note_on_c, 0, 91, 99
1, 292166, Note_on_c, 0, 86, 92
1, 292168, Note_on_c, 0, 79, 97
1, 292168, Note_on_c, 0, 83, 90
1, 292307, Note_on_c, 0, 91, 0
1, 292350, Note_on_c, 0, 79, 0
1, 292350, Poly_aftertouch_c, 0, 79, 0
1, 292365, Note_on_c, 0, 86, 0
1, 292385, Note_on_c, 0, 83, 0
1, 292503, Note_on_c, 0, 78, 95
1, 292508, Note_on_c, 0, 85, 91
1, 292510, Note_on_c, 0, 90, 95
1, 292533, Note_on_c, 0, 82, 41
1, 292533, Note_on_c, 0, 81, 68
1, 292534, Note_on_c, 0, 82, 0
1, 292563, Note_on_c, 0, 81, 0
1, 292574, Note_on_c, 0, 85, 0
1, 292579, Note_on_c, 0, 90, 0
1, 292588, Note_on_c, 0, 78, 0
1, 292588, Poly_aftertouch_c, 0, 78, 0
1, 292641, Note_on_c, 0, 64, 89
1, 292645, Note_on_c, 0, 59, 84
1, 292646, Note_on_c, 0, 52, 79
1, 292674, Note_on_c, 0, 64, 0
1, 292704, Note_on_c, 0, 59, 0
1, 292718, Note_on_c, 0, 52, 0
1, 292781, Note_on_c, 0, 76, 98
1, 292783, Note_on_c, 0, 88, 96
1, 292783, Note_on_c, 0, 79, 88
1, 292785, Note_on_c, 0, 83, 85
1, 292902, Note_on_c, 0, 88, 0
1, 292918, Note_on_c, 0, 76, 0
1, 292944, Note_on_c, 0, 79, 0
1, 292944, Poly_aftertouch_c, 0, 79, 0
1, 292967, Note_on_c, 0, 83, 0
1, 293020, Control_c, 0, 64, 98
1, 293038, Control_c, 0, 64, 51
1, 293044, Note_on_c, 0, 50, 98
1, 293044, Note_on_c, 0, 74, 91
1, 293044, Note_on_c, 0, 78, 92
1, 293047, Note_on_c, 0, 86, 96
1, 293049, Note_on_c, 0, 38, 91
1, 293057, Control_c, 0, 64, 0
1, 293077, Control_c, 0, 64, 28
1, 293095, Control_c, 0, 64, 58
1, 293114, Control_c, 0, 64, 82
1, 293132, Control_c, 0, 64, 106
1, 293138, Note_on_c, 0, 38, 0
1, 293151, Control_c, 0, 64, 127
1, 293152, Note_on_c, 0, 86, 0
1, 293168, Note_on_c, 0, 74, 0
1, 293168, Poly_aftertouch_c, 0, 74, 0
1, 293178, Note_on_c, 0, 50, 0
1, 293201, Note_on_c, 0, 78, 0
1, 293201, Poly_aftertouch_c, 0, 78, 0
1, 293297, Note_on_c, 0, 73, 91
1, 293301, Note_on_c, 0, 85, 93
1, 293302, Note_on_c, 0, 76, 87
1, 293355, Note_on_c, 0, 73, 0
1, 293355, Poly_aftertouch_c, 0, 73, 0
1, 293378, Note_on_c, 0, 76, 0
1, 293379, Note_on_c, 0, 85, 0
1, 293514, Note_on_c, 0, 83, 95
1, 293515, Note_on_c, 0, 74, 87
1, 293516, Note_on_c, 0, 71, 86
1, 293572, Note_on_c, 0, 71, 0
1, 293572, Poly_aftertouch_c, 0, 71, 0
1, 293577, Note_on_c, 0, 83, 0
1, 293588, Note_on_c, 0, 74, 0
1, 293588, Poly_aftertouch_c, 0, 74, 0
1, 293643, Note_on_c, 0, 67, 92
1, 293651, Note_on_c, 0, 62, 80
1, 293651, Note_on_c, 0, 55, 79
1, 293681, Note_on_c, 0, 67, 0
1, 293713, Note_on_c, 0, 62, 0
1, 293731, Note_on_c, 0, 55, 0
1, 293744, Note_on_c, 0, 73, 95
1, 293744, Note_on_c, 0, 69, 93
1, 293747, Note_on_c, 0, 81, 96
1, 293870, Note_on_c, 0, 81, 0
1, 293877, Note_on_c, 0, 69, 0
1, 293913, Note_on_c, 0, 73, 0
1, 293913, Poly_aftertouch_c, 0, 73, 0
1, 293936, Control_c, 0, 64, 123
1, 293955, Control_c, 0, 64, 81
1, 293973, Control_c, 0, 64, 33
1, 293987, Note_on_c, 0, 67, 90
1, 293991, Note_on_c, 0, 71, 87
1, 293992, Note_on_c, 0, 79, 91
1, 293997, Note_on_c, 0, 47, 98
1, 293998, Note_on_c, 0, 35, 98
1, 294013, Control_c, 0, 64, 62
1, 294015, Note_on_c, 0, 45, 72
1, 294017, Note_on_c, 0, 67, 0
1, 294026, Note_on_c, 0, 71, 0
1, 294026, Poly_aftertouch_c, 0, 71, 0
1, 294029, Control_c, 0, 64, 92
1, 294030, Note_on_c, 0, 35, 0
1, 294049, Note_on_c, 0, 47, 0
1, 294049, Note_on_c, 0, 45, 0
1, 294049, Poly_aftertouch_c, 0, 45, 0
1, 294049, Poly_aftertouch_c, 0, 47, 0
1, 294049, Control_c, 0, 64, 125
1, 294050, Note_on_c, 0, 79, 0
1, 294050, Poly_aftertouch_c, 0, 79, 0
1, 294243, Note_on_c, 0, 91, 103
1, 294245, Note_on_c, 0, 79, 92
1, 294245, Note_on_c, 0, 83, 92
1, 294267, Note_on_c, 0, 79, 0
1, 294267, Poly_aftertouch_c, 0, 79, 0
1, 294284, Note_on_c, 0, 83, 0
1, 294285, Note_on_c, 0, 91, 0
1, 294449, Note_on_c, 0, 78, 95
1, 294451, Note_on_c, 0, 90, 101
1, 294452, Note_on_c, 0, 82, 92
1, 294478, Note_on_c, 0, 82, 0
1, 294491, Note_on_c, 0, 90, 0
1, 294491, Note_on_c, 0, 91, 51
1, 294492, Note_on_c, 0, 91, 0
1, 294495, Note_on_c, 0, 78, 0
1, 294495, Poly_aftertouch_c, 0, 78, 0
1, 294563, Note_on_c, 0, 64, 96
1, 294571, Note_on_c, 0, 52, 86
1, 294573, Note_on_c, 0, 59, 82
1, 294610, Note_on_c, 0, 64, 0
1, 294633, Note_on_c, 0, 59, 0
1, 294643, Note_on_c, 0, 52, 0
1, 294689, Note_on_c, 0, 76, 98
1, 294689, Note_on_c, 0, 88, 103
1, 294694, Note_on_c, 0, 79, 91
1, 294721, Note_on_c, 0, 79, 0
1, 294721, Poly_aftertouch_c, 0, 79, 0
1, 294731, Note_on_c, 0, 77, 42
1, 294732, Note_on_c, 0, 77, 0
1, 294732, Note_on_c, 0, 88, 0
1, 294732, Note_on_c, 0, 76, 0
1, 294732, Poly_aftertouch_c, 0, 77, 0
1, 294873, Control_c, 0, 64, 106
1, 294890, Control_c, 0, 64, 66
1, 294908, Control_c, 0, 64, 24
1, 294921, Note_on_c, 0, 86, 100
1, 294922, Note_on_c, 0, 74, 95
1, 294923, Note_on_c, 0, 77, 86
1, 294926, Note_on_c, 0, 50, 102
1, 294926, Control_c, 0, 64, 36
1, 294930, Note_on_c, 0, 81, 83
1, 294932, Note_on_c, 0, 38, 93
1, 294951, Control_c, 0, 64, 62
1, 294965, Control_c, 0, 64, 88
1, 294967, Note_on_c, 0, 38, 0
1, 294983, Control_c, 0, 64, 115
1, 294986, Note_on_c, 0, 50, 0
1, 295002, Control_c, 0, 64, 127
1, 295012, Note_on_c, 0, 74, 0
1, 295012, Poly_aftertouch_c, 0, 74, 0
1, 295014, Note_on_c, 0, 86, 0
1, 295022, Note_on_c, 0, 77, 0
1, 295022, Note_on_c, 0, 81, 0
1, 295022, Poly_aftertouch_c, 0, 77, 0
1, 295147, Note_on_c, 0, 79, 92
1, 295147, Note_on_c, 0, 72, 92
1, 295148, Note_on_c, 0, 84, 93
1, 295149, Note_on_c, 0, 76, 90
1, 295202, Note_on_c, 0, 72, 0
1, 295207, Note_on_c, 0, 79, 0
1, 295207, Poly_aftertouch_c, 0, 79, 0
1, 295212, Note_on_c, 0, 84, 0
1, 295216, Note_on_c, 0, 76, 0
1, 295337, Note_on_c, 0, 77, 95
1, 295338, Note_on_c, 0, 71, 93
1, 295339, Note_on_c, 0, 74, 90
1, 295340, Note_on_c, 0, 83, 92
1, 295422, Note_on_c, 0, 83, 0
1, 295425, Note_on_c, 0, 77, 0
1, 295425, Poly_aftertouch_c, 0, 77, 0
1, 295427, Note_on_c, 0, 71, 0
1, 295427, Poly_aftertouch_c, 0, 71, 0
1, 295433, Note_on_c, 0, 74, 0
1, 295433, Poly_aftertouch_c, 0, 74, 0
1, 295451, Note_on_c, 0, 67, 99
1, 295459, Note_on_c, 0, 62, 86
1, 295460, Note_on_c, 0, 55, 86
1, 295500, Note_on_c, 0, 67, 0
1, 295511, Note_on_c, 0, 62, 0
1, 295533, Note_on_c, 0, 55, 0
1, 295565, Note_on_c, 0, 69, 95
1, 295565, Note_on_c, 0, 76, 95
1, 295567, Note_on_c, 0, 72, 93
1, 295567, Note_on_c, 0, 81, 94
1, 295711, Note_on_c, 0, 81, 0
1, 295722, Note_on_c, 0, 69, 0
1, 295737, Note_on_c, 0, 76, 0
1, 295751, Note_on_c, 0, 72, 0
1, 295768, Control_c, 0, 64, 94
1, 295787, Control_c, 0, 64, 19
1, 295806, Control_c, 0, 64, 0
1, 295837, Note_on_c, 0, 48, 106
1, 295838, Note_on_c, 0, 67, 96
1, 295841, Note_on_c, 0, 79, 94
1, 295843, Note_on_c, 0, 72, 89
1, 295843, Note_on_c, 0, 75, 88
1, 295843, Control_c, 0, 64, 67
1, 295844, Note_on_c, 0, 36, 99
1, 295867, Control_c, 0, 64, 127
1, 295875, Note_on_c, 0, 67, 0
1, 295881, Note_on_c, 0, 36, 0
1, 295881, Poly_aftertouch_c, 0, 36, 0
1, 295886, Note_on_c, 0, 48, 0
1, 295886, Poly_aftertouch_c, 0, 48, 0
1, 295891, Note_on_c, 0, 72, 0
1, 295894, Note_on_c, 0, 75, 0
1, 295905, Note_on_c, 0, 79, 0
1, 295905, Poly_aftertouch_c, 0, 79, 0
1, 296217, Note_on_c, 0, 82, 101
1, 296217, Note_on_c, 0, 94, 101
1, 296217, Note_on_c, 0, 91, 84
1, 296256, Note_on_c, 0, 90, 56
1, 296272, Note_on_c, 0, 87, 29
1, 296283, Note_on_c, 0, 90, 0
1, 296322, Note_on_c, 0, 87, 0
1, 296372, Note_on_c, 0, 94, 0
1, 296392, Note_on_c, 0, 91, 0
1, 296394, Note_on_c, 0, 82, 0
1, 296413, Note_on_c, 0, 87, 66
1, 296431, Note_on_c, 0, 87, 0
1, 296482, Note_on_c, 0, 93, 92
1, 296484, Note_on_c, 0, 81, 96
1, 296509, Note_on_c, 0, 91, 72
1, 296509, Note_on_c, 0, 89, 59
1, 296535, Note_on_c, 0, 91, 0
1, 296582, Note_on_c, 0, 67, 94
1, 296587, Note_on_c, 0, 84, 72
1, 296589, Note_on_c, 0, 60, 84
1, 296590, Note_on_c, 0, 55, 83
1, 296593, Note_on_c, 0, 91, 15
1, 296599, Note_on_c, 0, 81, 0
1, 296604, Note_on_c, 0, 67, 0
1, 296605, Note_on_c, 0, 93, 0
1, 296607, Note_on_c, 0, 89, 0
1, 296607, Poly_aftertouch_c, 0, 89, 0
1, 296632, Note_on_c, 0, 60, 0
1, 296638, Note_on_c, 0, 55, 0
1, 296646, Note_on_c, 0, 84, 0
1, 296700, Note_on_c, 0, 87, 90
1, 296701, Note_on_c, 0, 79, 95
1, 296795, Note_on_c, 0, 91, 0
1, 296795, Poly_aftertouch_c, 0, 91, 0
1, 296798, Note_on_c, 0, 82, 83
1, 296816, Note_on_c, 0, 79, 0
1, 296816, Poly_aftertouch_c, 0, 79, 0
1, 296824, Note_on_c, 0, 87, 0
1, 296872, Control_c, 0, 64, 91
1, 296891, Control_c, 0, 64, 53
1, 296905, Note_on_c, 0, 43, 97
1, 296905, Note_on_c, 0, 89, 95
1, 296906, Note_on_c, 0, 77, 93
1, 296909, Note_on_c, 0, 31, 90
1, 296911, Control_c, 0, 64, 51
1, 296912, Note_on_c, 0, 86, 87
1, 296927, Note_on_c, 0, 82, 0
1, 296927, Control_c, 0, 64, 73
1, 296931, Note_on_c, 0, 43, 0
1, 296931, Poly_aftertouch_c, 0, 43, 0
1, 296935, Note_on_c, 0, 31, 0
1, 296935, Poly_aftertouch_c, 0, 31, 0
1, 296947, Control_c, 0, 64, 96
1, 296965, Control_c, 0, 64, 127
1, 297006, Note_on_c, 0, 89, 0
1, 297006, Poly_aftertouch_c, 0, 89, 0
1, 297012, Note_on_c, 0, 77, 0
1, 297012, Poly_aftertouch_c, 0, 77, 0
1, 297037, Note_on_c, 0, 86, 0
1, 297046, Note_on_c, 0, 82, 67
1, 297068, Note_on_c, 0, 82, 0
1, 297119, Poly_aftertouch_c, 0, 31, 0
1, 297132, Note_on_c, 0, 75, 98
1, 297136, Note_on_c, 0, 87, 90
1, 297169, Note_on_c, 0, 84, 60
1, 297172, Note_on_c, 0, 78, 38
1, 297174, Note_on_c, 0, 83, 56
1, 297210, Note_on_c, 0, 78, 0
1, 297210, Note_on_c, 0, 75, 0
1, 297210, Poly_aftertouch_c, 0, 78, 0
1, 297240, Note_on_c, 0, 87, 0
1, 297254, Note_on_c, 0, 58, 91
1, 297258, Note_on_c, 0, 46, 87
1, 297277, Note_on_c, 0, 58, 0
1, 297278, Note_on_c, 0, 83, 0
1, 297280, Note_on_c, 0, 79, 74
1, 297283, Note_on_c, 0, 84, 0
1, 297287, Note_on_c, 0, 46, 0
1, 297287, Poly_aftertouch_c, 0, 46, 0
1, 297369, Note_on_c, 0, 86, 91
1, 297372, Note_on_c, 0, 82, 86
1, 297374, Note_on_c, 0, 74, 83
1, 297399, Note_on_c, 0, 76, 64
1, 297424, Note_on_c, 0, 76, 0
1, 297450, Note_on_c, 0, 74, 0
1, 297450, Poly_aftertouch_c, 0, 74, 0
1, 297451, Note_on_c, 0, 86, 0
1, 297468, Note_on_c, 0, 82, 0
1, 297485, Note_on_c, 0, 79, 0
1, 297485, Poly_aftertouch_c, 0, 79, 0
1, 297527, Control_c, 0, 64, 119
1, 297546, Control_c, 0, 64, 82
1, 297561, Note_on_c, 0, 51, 86
1, 297564, Control_c, 0, 64, 65
1, 297566, Note_on_c, 0, 39, 86
1, 297570, Note_on_c, 0, 72, 88
1, 297573, Note_on_c, 0, 84, 84
1, 297579, Note_on_c, 0, 79, 76
1, 297583, Control_c, 0, 64, 78
1, 297594, Note_on_c, 0, 51, 0
1, 297594, Poly_aftertouch_c, 0, 51, 0
1, 297599, Note_on_c, 0, 39, 0
1, 297599, Poly_aftertouch_c, 0, 39, 0
1, 297601, Note_on_c, 0, 49, 42
1, 297601, Poly_aftertouch_c, 0, 49, 0
1, 297601, Control_c, 0, 64, 95
1, 297602, Note_on_c, 0, 49, 0
1, 297622, Control_c, 0, 64, 123
1, 297625, Note_on_c, 0, 74, 28
1, 297626, Note_on_c, 0, 74, 0
1, 297626, Poly_aftertouch_c, 0, 74, 0
1, 297639, Control_c, 0, 64, 127
1, 297645, Poly_aftertouch_c, 0, 49, 0
1, 297658, Note_on_c, 0, 84, 0
1, 297673, Note_on_c, 0, 72, 0
1, 297673, Poly_aftertouch_c, 0, 74, 0
1, 297710, Note_on_c, 0, 79, 0
1, 297710, Poly_aftertouch_c, 0, 79, 0
1, 297721, Note_on_c, 0, 75, 58
1, 297746, Note_on_c, 0, 75, 0
1, 297785, Poly_aftertouch_c, 0, 39, 0
1, 297793, Note_on_c, 0, 70, 91
1, 297798, Note_on_c, 0, 82, 92
1, 297815, Note_on_c, 0, 75, 81
1, 297841, Note_on_c, 0, 75, 0
1, 297845, Note_on_c, 0, 70, 0
1, 297851, Note_on_c, 0, 82, 0
1, 297950, Note_on_c, 0, 81, 87
1, 297950, Note_on_c, 0, 69, 90
1, 297964, Note_on_c, 0, 72, 72
1, 297980, Note_on_c, 0, 77, 66
1, 297994, Note_on_c, 0, 79, 39
1, 297994, Poly_aftertouch_c, 0, 79, 0
1, 297995, Note_on_c, 0, 79, 0
1, 298025, Note_on_c, 0, 69, 0
1, 298036, Note_on_c, 0, 81, 0
1, 298052, Note_on_c, 0, 72, 0
1, 298057, Note_on_c, 0, 60, 88
1, 298067, Note_on_c, 0, 48, 80
1, 298070, Note_on_c, 0, 77, 0
1, 298070, Poly_aftertouch_c, 0, 77, 0
1, 298074, Note_on_c, 0, 55, 72
1, 298082, Note_on_c, 0, 60, 0
1, 298103, Note_on_c, 0, 55, 0
1, 298124, Note_on_c, 0, 48, 0
1, 298124, Poly_aftertouch_c, 0, 48, 0
1, 298148, Note_on_c, 0, 79, 89
1, 298148, Note_on_c, 0, 67, 97
1, 298160, Note_on_c, 0, 75, 81
1, 298164, Note_on_c, 0, 70, 78
1, 298239, Note_on_c, 0, 79, 0
1, 298239, Poly_aftertouch_c, 0, 79, 0
1, 298249, Note_on_c, 0, 67, 0
1, 298270, Note_on_c, 0, 75, 0
1, 298286, Note_on_c, 0, 70, 0
1, 298314, Control_c, 0, 64, 104
1, 298331, Control_c, 0, 64, 56
1, 298349, Control_c, 0, 64, 0
1, 298356, Note_on_c, 0, 43, 99
1, 298360, Note_on_c, 0, 31, 92
1, 298363, Note_on_c, 0, 65, 95
1, 298369, Note_on_c, 0, 77, 87
1, 298369, Control_c, 0, 64, 22
1, 298370, Note_on_c, 0, 70, 81
1, 298370, Note_on_c, 0, 74, 82
1, 298386, Control_c, 0, 64, 59
1, 298389, Note_on_c, 0, 31, 0
1, 298391, Note_on_c, 0, 43, 0
1, 298391, Poly_aftertouch_c, 0, 43, 0
1, 298405, Control_c, 0, 64, 91
1, 298408, Note_on_c, 0, 77, 0
1, 298408, Poly_aftertouch_c, 0, 77, 0
1, 298414, Note_on_c, 0, 65, 0
1, 298420, Note_on_c, 0, 74, 0
1, 298424, Control_c, 0, 64, 127
1, 298429, Note_on_c, 0, 70, 0
1, 298541, Note_on_c, 0, 66, 45
1, 298580, Note_on_c, 0, 66, 0
1, 298580, Poly_aftertouch_c, 0, 66, 0
1, 298667, Note_on_c, 0, 63, 90
1, 298668, Note_on_c, 0, 67, 79
1, 298668, Note_on_c, 0, 75, 91
1, 298679, Note_on_c, 0, 72, 79
1, 298755, Note_on_c, 0, 63, 0
1, 298755, Poly_aftertouch_c, 0, 63, 0
1, 298777, Note_on_c, 0, 75, 0
1, 298808, Poly_aftertouch_c, 0, 70, 127
1, 298816, Note_on_c, 0, 72, 0
1, 298820, Note_on_c, 0, 67, 0
1, 298823, Poly_aftertouch_c, 0, 70, 0
1, 298870, Note_on_c, 0, 70, 76
1, 298873, Note_on_c, 0, 62, 91
1, 298875, Note_on_c, 0, 74, 91
1, 298878, Note_on_c, 0, 67, 69
1, 298914, Note_on_c, 0, 64, 40
1, 298934, Note_on_c, 0, 62, 0
1, 298942, Note_on_c, 0, 74, 0
1, 298958, Note_on_c, 0, 64, 0
1, 298964, Note_on_c, 0, 70, 0
1, 298966, Note_on_c, 0, 67, 0
1, 298981, Note_on_c, 0, 51, 97
1, 298989, Note_on_c, 0, 39, 88
1, 299005, Note_on_c, 0, 51, 0
1, 299005, Poly_aftertouch_c, 0, 51, 0
1, 299019, Note_on_c, 0, 39, 0
1, 299090, Note_on_c, 0, 60, 92
1, 299093, Note_on_c, 0, 72, 91
1, 299096, Note_on_c, 0, 66, 63
1, 299096, Poly_aftertouch_c, 0, 66, 0
1, 299097, Note_on_c, 0, 66, 0
1, 299098, Note_on_c, 0, 67, 88
1, 299100, Note_on_c, 0, 63, 83
1, 299130, Poly_aftertouch_c, 0, 66, 0
1, 299165, Poly_aftertouch_c, 0, 71, 0
1, 299184, Poly_aftertouch_c, 0, 39, 127
1, 299211, Poly_aftertouch_c, 0, 39, 0
1, 299223, Note_on_c, 0, 72, 0
1, 299223, Note_on_c, 0, 60, 0
1, 299229, Poly_aftertouch_c, 0, 62, 127
1, 299252, Note_on_c, 0, 63, 0
1, 299252, Poly_aftertouch_c, 0, 63, 0
1, 299265, Poly_aftertouch_c, 0, 62, 0
1, 299300, Note_on_c, 0, 67, 0
1, 299358, Control_c, 0, 64, 102
1, 299377, Note_on_c, 0, 58, 96
1, 299377, Control_c, 0, 64, 37
1, 299382, Note_on_c, 0, 70, 90
1, 299382, Note_on_c, 0, 63, 86
1, 299386, Note_on_c, 0, 67, 84
1, 299390, Note_on_c, 0, 36, 106
1, 299395, Control_c, 0, 64, 0
1, 299398, Note_on_c, 0, 24, 99
1, 299428, Note_on_c, 0, 58, 0
1, 299432, Note_on_c, 0, 24, 0
1, 299432, Poly_aftertouch_c, 0, 24, 0
1, 299433, Control_c, 0, 64, 28
1, 299440, Note_on_c, 0, 36, 0
1, 299440, Poly_aftertouch_c, 0, 36, 0
1, 299452, Control_c, 0, 64, 77
1, 299456, Note_on_c, 0, 67, 0
1, 299460, Note_on_c, 0, 63, 0
1, 299460, Poly_aftertouch_c, 0, 63, 0
1, 299471, Control_c, 0, 64, 120
1, 299475, Note_on_c, 0, 70, 0
1, 299489, Control_c, 0, 64, 127
1, 299511, Poly_aftertouch_c, 0, 71, 0
1, 299832, Note_on_c, 0, 94, 101
1, 299834, Note_on_c, 0, 82, 98
1, 299837, Note_on_c, 0, 91, 86
1, 299866, Note_on_c, 0, 95, 64
1, 299912, Note_on_c, 0, 95, 0
1, 299961, Poly_aftertouch_c, 0, 87, 127
1, 299969, Poly_aftertouch_c, 0, 90, 0
1, 299996, Note_on_c, 0, 94, 0
1, 300004, Note_on_c, 0, 91, 0
1, 300013, Note_on_c, 0, 82, 0
1, 300027, Note_on_c, 0, 87, 55
1, 300039, Note_on_c, 0, 87, 0
1, 300039, Poly_aftertouch_c, 0, 87, 0
1, 300104, Note_on_c, 0, 93, 95
1, 300105, Note_on_c, 0, 81, 93
1, 300107, Note_on_c, 0, 89, 84
1, 300127, Note_on_c, 0, 85, 61
1, 300152, Note_on_c, 0, 85, 0
1, 300217, Note_on_c, 0, 84, 81
1, 300218, Note_on_c, 0, 93, 0
1, 300218, Note_on_c, 0, 67, 94
1, 300228, Note_on_c, 0, 55, 79
1, 300229, Note_on_c, 0, 81, 0
1, 300230, Note_on_c, 0, 60, 80
1, 300232, Note_on_c, 0, 89, 0
1, 300232, Poly_aftertouch_c, 0, 89, 0
1, 300239, Note_on_c, 0, 67, 0
1, 300262, Note_on_c, 0, 60, 0
1, 300267, Note_on_c, 0, 55, 0
1, 300276, Note_on_c, 0, 84, 0
1, 300329, Note_on_c, 0, 91, 92
1, 300332, Note_on_c, 0, 87, 92
1, 300332, Note_on_c, 0, 79, 96
1, 300433, Note_on_c, 0, 91, 0
1, 300434, Note_on_c, 0, 82, 81
1, 300449, Note_on_c, 0, 79, 0
1, 300449, Poly_aftertouch_c, 0, 79, 0
1, 300462, Note_on_c, 0, 87, 0
1, 300462, Poly_aftertouch_c, 0, 87, 0
1, 300481, Control_c, 0, 64, 114
1, 300500, Control_c, 0, 64, 72
1, 300520, Control_c, 0, 64, 33
1, 300533, Note_on_c, 0, 43, 96
1, 300539, Control_c, 0, 64, 50
1, 300540, Note_on_c, 0, 31, 88
1, 300546, Note_on_c, 0, 77, 96
1, 300547, Note_on_c, 0, 89, 93
1, 300552, Note_on_c, 0, 86, 88
1, 300558, Control_c, 0, 64, 81
1, 300569, Note_on_c, 0, 31, 0
1, 300574, Control_c, 0, 64, 109
1, 300575, Note_on_c, 0, 33, 45
1, 300576, Note_on_c, 0, 33, 0
1, 300576, Note_on_c, 0, 43, 0
1, 300576, Poly_aftertouch_c, 0, 43, 0
1, 300581, Note_on_c, 0, 82, 0
1, 300593, Control_c, 0, 64, 127
1, 300620, Poly_aftertouch_c, 0, 33, 0
1, 300661, Note_on_c, 0, 77, 0
1, 300661, Poly_aftertouch_c, 0, 77, 0
1, 300668, Note_on_c, 0, 89, 0
1, 300668, Poly_aftertouch_c, 0, 89, 0
1, 300681, Note_on_c, 0, 82, 79
1, 300691, Note_on_c, 0, 86, 0
1, 300740, Note_on_c, 0, 82, 0
1, 300744, Poly_aftertouch_c, 0, 31, 0
1, 300805, Note_on_c, 0, 75, 96
1, 300809, Note_on_c, 0, 85, 87
1, 300809, Note_on_c, 0, 87, 89
1, 300875, Note_on_c, 0, 75, 0
1, 300881, Note_on_c, 0, 87, 0
1, 300881, Poly_aftertouch_c, 0, 87, 0
1, 300884, Note_on_c, 0, 85, 0
1, 300913, Note_on_c, 0, 58, 95
1, 300920, Note_on_c, 0, 46, 86
1, 300927, Note_on_c, 0, 84, 30
1, 300937, Note_on_c, 0, 58, 0
1, 300938, Note_on_c, 0, 79, 75
1, 300949, Note_on_c, 0, 46, 0
1, 300949, Poly_aftertouch_c, 0, 46, 0
1, 300977, Note_on_c, 0, 84, 0
1, 301002, Note_on_c, 0, 79, 0
1, 301002, Poly_aftertouch_c, 0, 79, 0
1, 301039, Note_on_c, 0, 86, 94
1, 301041, Note_on_c, 0, 82, 89
1, 301042, Note_on_c, 0, 74, 92
1, 301143, Poly_aftertouch_c, 0, 79, 127
1, 301147, Note_on_c, 0, 86, 0
1, 301151, Note_on_c, 0, 74, 0
1, 301152, Note_on_c, 0, 82, 0
1, 301202, Poly_aftertouch_c, 0, 79, 0
1, 301229, Control_c, 0, 64, 117
1, 301247, Control_c, 0, 64, 85
1, 301256, Note_on_c, 0, 51, 95
1, 301266, Control_c, 0, 64, 80
1, 301267, Note_on_c, 0, 39, 83
1, 301267, Note_on_c, 0, 72, 91
1, 301267, Note_on_c, 0, 84, 88
1, 301270, Note_on_c, 0, 79, 71
1, 301285, Control_c, 0, 64, 98
1, 301292, Note_on_c, 0, 39, 0
1, 301292, Note_on_c, 0, 51, 0
1, 301292, Poly_aftertouch_c, 0, 51, 0
1, 301303, Control_c, 0, 64, 120
1, 301322, Control_c, 0, 64, 127
1, 301356, Note_on_c, 0, 84, 0
1, 301356, Note_on_c, 0, 72, 0
1, 301390, Note_on_c, 0, 75, 78
1, 301398, Note_on_c, 0, 79, 0
1, 301423, Note_on_c, 0, 75, 0
1, 301465, Poly_aftertouch_c, 0, 39, 0
1, 301487, Note_on_c, 0, 70, 92
1, 301493, Note_on_c, 0, 82, 95
1, 301522, Note_on_c, 0, 75, 65
1, 301538, Note_on_c, 0, 70, 0
1, 301550, Note_on_c, 0, 82, 0
1, 301568, Note_on_c, 0, 75, 0
1, 301658, Note_on_c, 0, 81, 87
1, 301660, Note_on_c, 0, 69, 96
1, 301671, Note_on_c, 0, 77, 76
1, 301689, Note_on_c, 0, 79, 59
1, 301696, Note_on_c, 0, 76, 57
1, 301713, Note_on_c, 0, 79, 0
1, 301780, Note_on_c, 0, 81, 0
1, 301782, Note_on_c, 0, 69, 0
1, 301787, Note_on_c, 0, 72, 54
1, 301797, Note_on_c, 0, 60, 90
1, 301806, Note_on_c, 0, 48, 79
1, 301807, Note_on_c, 0, 55, 79
1, 301809, Note_on_c, 0, 77, 0
1, 301809, Poly_aftertouch_c, 0, 77, 0
1, 301812, Note_on_c, 0, 76, 0
1, 301823, Note_on_c, 0, 60, 0
1, 301826, Note_on_c, 0, 72, 0
1, 301834, Note_on_c, 0, 55, 0
1, 301850, Note_on_c, 0, 48, 0
1, 301850, Poly_aftertouch_c, 0, 48, 0
1, 301884, Note_on_c, 0, 75, 90
1, 301885, Note_on_c, 0, 67, 96
1, 301897, Note_on_c, 0, 79, 83
1, 301955, Note_on_c, 0, 70, 74
1, 301983, Note_on_c, 0, 79, 0
1, 301995, Note_on_c, 0, 75, 0
1, 301999, Note_on_c, 0, 67, 0
1, 302048, Note_on_c, 0, 70, 0
1, 302051, Control_c, 0, 64, 111
1, 302071, Control_c, 0, 64, 68
1, 302089, Control_c, 0, 64, 28
1, 302101, Note_on_c, 0, 43, 95
1, 302104, Note_on_c, 0, 31, 93
1, 302104, Note_on_c, 0, 65, 96
1, 302105, Note_on_c, 0, 77, 94
1, 302106, Note_on_c, 0, 74, 89
1, 302107, Control_c, 0, 64, 48
1, 302119, Note_on_c, 0, 70, 76
1, 302125, Note_on_c, 0, 41, 61
1, 302126, Note_on_c, 0, 41, 0
1, 302126, Poly_aftertouch_c, 0, 41, 0
1, 302127, Control_c, 0, 64, 77
1, 302129, Note_on_c, 0, 43, 0
1, 302129, Poly_aftertouch_c, 0, 43, 0
1, 302132, Note_on_c, 0, 31, 0
1, 302145, Control_c, 0, 64, 103
1, 302162, Note_on_c, 0, 65, 0
1, 302163, Note_on_c, 0, 77, 0
1, 302163, Poly_aftertouch_c, 0, 77, 0
1, 302164, Control_c, 0, 64, 127
1, 302170, Note_on_c, 0, 74, 0
1, 302185, Note_on_c, 0, 70, 0
1, 302277, Poly_aftertouch_c, 0, 43, 0
1, 302407, Note_on_c, 0, 63, 90
1, 302411, Note_on_c, 0, 75, 89
1, 302414, Note_on_c, 0, 67, 82
1, 302416, Note_on_c, 0, 72, 80
1, 302506, Note_on_c, 0, 63, 0
1, 302506, Poly_aftertouch_c, 0, 63, 0
1, 302516, Note_on_c, 0, 75, 0
1, 302551, Note_on_c, 0, 72, 0
1, 302562, Note_on_c, 0, 67, 0
1, 302646, Note_on_c, 0, 74, 91
1, 302648, Note_on_c, 0, 62, 90
1, 302651, Note_on_c, 0, 67, 83
1, 302651, Note_on_c, 0, 70, 82
1, 302706, Note_on_c, 0, 62, 0
1, 302725, Note_on_c, 0, 74, 0
1, 302747, Note_on_c, 0, 67, 0
1, 302748, Note_on_c, 0, 70, 0
1, 302788, Note_on_c, 0, 51, 90
1, 302810, Note_on_c, 0, 37, 60
1, 302821, Note_on_c, 0, 39, 53
1, 302846, Note_on_c, 0, 37, 0
1, 302846, Poly_aftertouch_c, 0, 37, 0
1, 302867, Note_on_c, 0, 39, 0
1, 302886, Note_on_c, 0, 51, 0
1, 302886, Poly_aftertouch_c, 0, 51, 0
1, 302890, Note_on_c, 0, 72, 86
1, 302890, Note_on_c, 0, 60, 81
1, 302896, Note_on_c, 0, 67, 74
1, 302898, Note_on_c, 0, 63, 79
1, 302979, Note_on_c, 0, 60, 0
1, 302984, Note_on_c, 0, 72, 0
1, 303014, Poly_aftertouch_c, 0, 70, 0
1, 303017, Note_on_c, 0, 67, 0
1, 303028, Poly_aftertouch_c, 0, 68, 127
1, 303033, Note_on_c, 0, 63, 0
1, 303033, Poly_aftertouch_c, 0, 63, 0
1, 303037, Poly_aftertouch_c, 0, 68, 0
1, 303144, Note_on_c, 0, 70, 85
1, 303148, Note_on_c, 0, 58, 81
1, 303154, Note_on_c, 0, 67, 79
1, 303154, Control_c, 0, 64, 119
1, 303156, Note_on_c, 0, 63, 77
1, 303174, Control_c, 0, 64, 83
1, 303192, Control_c, 0, 64, 70
1, 303211, Control_c, 0, 64, 78
1, 303231, Control_c, 0, 64, 89
1, 303248, Control_c, 0, 64, 106
1, 303267, Control_c, 0, 64, 127
1, 303297, Note_on_c, 0, 67, 0
1, 303305, Note_on_c, 0, 70, 0
1, 303305, Note_on_c, 0, 58, 0
1, 303411, Note_on_c, 0, 69, 87
1, 303416, Control_c, 0, 64, 102
1, 303422, Note_on_c, 0, 54, 75
1, 303422, Note_on_c, 0, 66, 80
1, 303429, Note_on_c, 0, 57, 72
1, 303435, Control_c, 0, 64, 80
1, 303472, Note_on_c, 0, 63, 0
1, 303472, Poly_aftertouch_c, 0, 63, 0
1, 303472, Control_c, 0, 64, 87
1, 303491, Control_c, 0, 64, 101
1, 303510, Control_c, 0, 64, 121
1, 303522, Note_on_c, 0, 57, 0
1, 303527, Control_c, 0, 64, 127
1, 303603, Note_on_c, 0, 66, 0
1, 303624, Note_on_c, 0, 54, 0
1, 303624, Poly_aftertouch_c, 0, 54, 0
1, 303640, Control_c, 0, 64, 119
1, 303653, Note_on_c, 0, 67, 84
1, 303658, Note_on_c, 0, 63, 85
1, 303658, Control_c, 0, 64, 95
1, 303664, Note_on_c, 0, 55, 81
1, 303670, Note_on_c, 0, 51, 78
1, 303677, Control_c, 0, 64, 88
1, 303697, Control_c, 0, 64, 96
1, 303715, Control_c, 0, 64, 105
1, 303735, Control_c, 0, 64, 121
1, 303742, Note_on_c, 0, 69, 0
1, 303753, Control_c, 0, 64, 127
1, 303771, Note_on_c, 0, 55, 0
1, 303826, Note_on_c, 0, 63, 0
1, 303826, Poly_aftertouch_c, 0, 63, 0
1, 303875, Note_on_c, 0, 51, 0
1, 303875, Poly_aftertouch_c, 0, 51, 0
1, 303883, Control_c, 0, 64, 91
1, 303888, Note_on_c, 0, 61, 87
1, 303892, Note_on_c, 0, 65, 87
1, 303898, Note_on_c, 0, 53, 86
1, 303903, Control_c, 0, 64, 64
1, 303905, Note_on_c, 0, 49, 77
1, 303921, Control_c, 0, 64, 63
1, 303932, Note_on_c, 0, 67, 0
1, 303939, Control_c, 0, 64, 69
1, 303959, Control_c, 0, 64, 79
1, 303977, Control_c, 0, 64, 94
1, 303996, Control_c, 0, 64, 121
1, 304000, Note_on_c, 0, 53, 0
1, 304014, Control_c, 0, 64, 127
1, 304018, Note_on_c, 0, 61, 0
1, 304063, Note_on_c, 0, 49, 0
1, 304108, Control_c, 0, 64, 89
1, 304127, Control_c, 0, 64, 71
1, 304139, Note_on_c, 0, 63, 90
1, 304140, Note_on_c, 0, 58, 88
1, 304145, Control_c, 0, 64, 83
1, 304146, Note_on_c, 0, 46, 84
1, 304151, Note_on_c, 0, 51, 80
1, 304165, Control_c, 0, 64, 105
1, 304177, Note_on_c, 0, 65, 0
1, 304182, Control_c, 0, 64, 127
1, 304229, Note_on_c, 0, 51, 0
1, 304229, Poly_aftertouch_c, 0, 51, 0
1, 304231, Note_on_c, 0, 46, 0
1, 304231, Poly_aftertouch_c, 0, 46, 0
1, 304261, Note_on_c, 0, 58, 0
1, 304272, Note_on_c, 0, 63, 0
1, 304272, Poly_aftertouch_c, 0, 63, 0
1, 304389, Control_c, 0, 64, 95
1, 304397, Note_on_c, 0, 62, 94
1, 304401, Note_on_c, 0, 55, 81
1, 304404, Note_on_c, 0, 50, 92
1, 304404, Note_on_c, 0, 43, 88
1, 304408, Control_c, 0, 64, 77
1, 304427, Control_c, 0, 64, 87
1, 304437, Note_on_c, 0, 50, 0
1, 304444, Note_on_c, 0, 55, 0
1, 304444, Control_c, 0, 64, 107
1, 304445, Note_on_c, 0, 43, 0
1, 304463, Control_c, 0, 64, 127
1, 304544, Note_on_c, 0, 62, 0
1, 304650, Control_c, 0, 64, 103
1, 304668, Note_on_c, 0, 42, 91
1, 304668, Control_c, 0, 64, 83
1, 304671, Note_on_c, 0, 54, 88
1, 304672, Note_on_c, 0, 49, 88
1, 304673, Note_on_c, 0, 61, 92
1, 304690, Control_c, 0, 64, 88
1, 304702, Note_on_c, 0, 49, 0
1, 304707, Control_c, 0, 64, 108
1, 304714, Note_on_c, 0, 42, 0
1, 304715, Note_on_c, 0, 54, 0
1, 304715, Poly_aftertouch_c, 0, 54, 0
1, 304726, Control_c, 0, 64, 127
1, 304730, Note_on_c, 0, 61, 0
1, 304950, Control_c, 0, 64, 114
1, 304969, Control_c, 0, 64, 83
1, 304970, Note_on_c, 0, 57, 95
1, 304970, Note_on_c, 0, 51, 94
1, 304974, Note_on_c, 0, 39, 95
1, 304974, Note_on_c, 0, 45, 95
1, 304988, Control_c, 0, 64, 69
1, 305002, Note_on_c, 0, 45, 0
1, 305002, Poly_aftertouch_c, 0, 45, 0
1, 305005, Control_c, 0, 64, 76
1, 305006, Note_on_c, 0, 39, 0
1, 305025, Control_c, 0, 64, 84
1, 305035, Note_on_c, 0, 51, 0
1, 305035, Poly_aftertouch_c, 0, 51, 0
1, 305043, Control_c, 0, 64, 98
1, 305061, Control_c, 0, 64, 121
1, 305080, Control_c, 0, 64, 127
1, 305236, Note_on_c, 0, 57, 0
1, 305249, Control_c, 0, 64, 119
1, 305267, Control_c, 0, 64, 94
1, 305271, Note_on_c, 0, 55, 93
1, 305273, Note_on_c, 0, 49, 88
1, 305283, Note_on_c, 0, 43, 101
1, 305287, Note_on_c, 0, 37, 96
1, 305287, Control_c, 0, 64, 80
1, 305314, Note_on_c, 0, 57, 20
1, 305322, Control_c, 0, 64, 88
1, 305323, Note_on_c, 0, 43, 0
1, 305332, Note_on_c, 0, 37, 0
1, 305332, Poly_aftertouch_c, 0, 37, 0
1, 305339, Control_c, 0, 64, 102
1, 305355, Note_on_c, 0, 49, 0
1, 305360, Control_c, 0, 64, 124
1, 305371, Note_on_c, 0, 57, 0
1, 305536, Note_on_c, 0, 55, 0
1, 305568, Control_c, 0, 64, 93
1, 305585, Control_c, 0, 64, 65
1, 305597, Note_on_c, 0, 53, 93
1, 305603, Note_on_c, 0, 48, 91
1, 305605, Note_on_c, 0, 36, 101
1, 305605, Control_c, 0, 64, 60
1, 305608, Note_on_c, 0, 41, 98
1, 305622, Control_c, 0, 64, 67
1, 305643, Control_c, 0, 64, 76
1, 305646, Note_on_c, 0, 41, 0
1, 305646, Poly_aftertouch_c, 0, 41, 0
1, 305657, Note_on_c, 0, 48, 0
1, 305657, Poly_aftertouch_c, 0, 48, 0
1, 305658, Note_on_c, 0, 36, 0
1, 305658, Poly_aftertouch_c, 0, 36, 0
1, 305659, Control_c, 0, 64, 87
1, 305678, Control_c, 0, 64, 102
1, 305680, Note_on_c, 0, 53, 0
1, 305697, Control_c, 0, 64, 114
1, 305716, Control_c, 0, 64, 118
1, 305773, Control_c, 0, 64, 123
1, 305810, Control_c, 0, 64, 127
1, 305922, Control_c, 0, 64, 112
1, 305941, Control_c, 0, 64, 81
1, 305959, Control_c, 0, 64, 41
1, 305979, Control_c, 0, 64, 15
1, 305985, Note_on_c, 0, 51, 98
1, 305991, Note_on_c, 0, 34, 88
1, 305991, Note_on_c, 0, 46, 91
1, 305992, Note_on_c, 0, 39, 95
1, 305997, Control_c, 0, 64, 55
1, 306017, Control_c, 0, 64, 85
1, 306035, Control_c, 0, 64, 112
1, 306043, Note_on_c, 0, 46, 0
1, 306043, Poly_aftertouch_c, 0, 46, 0
1, 306053, Control_c, 0, 64, 127
1, 306055, Note_on_c, 0, 34, 0
1, 306062, Note_on_c, 0, 39, 0
1, 306068, Note_on_c, 0, 51, 0
1, 306068, Poly_aftertouch_c, 0, 51, 0
1, 306446, Control_c, 0, 64, 107
1, 306464, Control_c, 0, 64, 80
1, 306477, Note_on_c, 0, 49, 104
1, 306477, Note_on_c, 0, 37, 97
1, 306479, Note_on_c, 0, 33, 87
1, 306482, Note_on_c, 0, 45, 92
1, 306482, Control_c, 0, 64, 78
1, 306502, Control_c, 0, 64, 100
1, 306521, Control_c, 0, 64, 127
1, 306533, Note_on_c, 0, 45, 0
1, 306533, Poly_aftertouch_c, 0, 45, 0
1, 306544, Note_on_c, 0, 33, 0
1, 306546, Note_on_c, 0, 37, 0
1, 306546, Poly_aftertouch_c, 0, 37, 0
1, 306560, Note_on_c, 0, 49, 0
1, 307287, Control_c, 0, 64, 111
1, 307307, Control_c, 0, 64, 61
1, 307325, Control_c, 0, 64, 0
1, 307352, Note_on_c, 0, 46, 102
1, 307354, Note_on_c, 0, 58, 95
1, 307359, Note_on_c, 0, 34, 108
1, 307361, Control_c, 0, 64, 28
1, 307372, Note_on_c, 0, 22, 88
1, 307380, Control_c, 0, 64, 127
1, 307389, Note_on_c, 0, 25, 61
1, 307398, Note_on_c, 0, 35, 53
1, 307403, Note_on_c, 0, 22, 0
1, 307409, Note_on_c, 0, 34, 0
1, 307411, Note_on_c, 0, 36, 39
1, 307413, Note_on_c, 0, 46, 0
1, 307413, Poly_aftertouch_c, 0, 46, 0
1, 307426, Note_on_c, 0, 25, 0
1, 307436, Note_on_c, 0, 58, 0
1, 307440, Note_on_c, 0, 35, 0
1, 307459, Note_on_c, 0, 36, 0
1, 307459, Poly_aftertouch_c, 0, 36, 0
1, 307480, Poly_aftertouch_c, 0, 56, 127
1, 307501, Poly_aftertouch_c, 0, 56, 0
1, 307976, Note_on_c, 0, 65, 81
1, 307982, Note_on_c, 0, 58, 78
1, 307987, Note_on_c, 0, 53, 82
1, 307994, Note_on_c, 0, 49, 80
1, 307995, Note_on_c, 0, 41, 73
1, 307997, Note_on_c, 0, 61, 71
1, 308004, Note_on_c, 0, 46, 75
1, 308011, Note_on_c, 0, 58, 0
1, 308030, Note_on_c, 0, 65, 0
1, 308030, Note_on_c, 0, 61, 0
1, 308097, Note_on_c, 0, 41, 0
1, 308097, Poly_aftertouch_c, 0, 41, 0
1, 308154, Note_on_c, 0, 46, 0
1, 308154, Poly_aftertouch_c, 0, 46, 0
1, 308160, Note_on_c, 0, 53, 0
1, 308167, Note_on_c, 0, 49, 0
1, 308519, Note_on_c, 0, 65, 96
1, 308520, Note_on_c, 0, 77, 87
1, 308521, Note_on_c, 0, 73, 90
1, 308521, Note_on_c, 0, 70, 88
1, 308525, Note_on_c, 0, 53, 75
1, 308527, Note_on_c, 0, 61, 89
1, 308538, Note_on_c, 0, 58, 79
1, 308554, Note_on_c, 0, 70, 0
1, 308557, Note_on_c, 0, 53, 0
1, 308566, Note_on_c, 0, 73, 0
1, 308566, Note_on_c, 0, 65, 0
1, 308566, Poly_aftertouch_c, 0, 73, 0
1, 308568, Note_on_c, 0, 58, 0
1, 308572, Note_on_c, 0, 77, 0
1, 308572, Poly_aftertouch_c, 0, 77, 0
1, 308578, Note_on_c, 0, 61, 0
1, 308777, Note_on_c, 0, 56, 62
1, 308782, Control_c, 0, 64, 115
1, 308802, Control_c, 0, 64, 59
1, 308804, Note_on_c, 0, 61, 60
1, 308817, Note_on_c, 0, 65, 80
1, 308819, Control_c, 0, 64, 0
1, 308846, Note_on_c, 0, 80, 102
1, 308847, Note_on_c, 0, 92, 97
1, 308851, Note_on_c, 0, 89, 90
1, 308853, Note_on_c, 0, 85, 90
1, 308857, Note_on_c, 0, 68, 93
1, 308857, Control_c, 0, 64, 41
1, 308876, Control_c, 0, 64, 109
1, 308878, Note_on_c, 0, 56, 0
1, 308895, Control_c, 0, 64, 127
1, 308905, Note_on_c, 0, 80, 0
1, 308905, Poly_aftertouch_c, 0, 80, 0
1, 308909, Note_on_c, 0, 61, 0
1, 308910, Note_on_c, 0, 65, 0
1, 308913, Note_on_c, 0, 68, 0
1, 308916, Note_on_c, 0, 92, 0
1, 308920, Note_on_c, 0, 89, 0
1, 308920, Poly_aftertouch_c, 0, 89, 0
1, 308930, Note_on_c, 0, 85, 0
1, 309009, Poly_aftertouch_c, 0, 69, 0
1, 309273, Note_on_c, 0, 77, 90
1, 309277, Note_on_c, 0, 65, 92
1, 309282, Note_on_c, 0, 58, 65
1, 309282, Note_on_c, 0, 53, 81
1, 309282, Note_on_c, 0, 70, 89
1, 309285, Note_on_c, 0, 61, 88
1, 309285, Note_on_c, 0, 73, 87
1, 309313, Note_on_c, 0, 53, 0
1, 309324, Note_on_c, 0, 65, 0
1, 309329, Note_on_c, 0, 70, 0
1, 309333, Note_on_c, 0, 61, 0
1, 309333, Note_on_c, 0, 73, 0
1, 309333, Poly_aftertouch_c, 0, 73, 0
1, 309334, Note_on_c, 0, 77, 0
1, 309334, Poly_aftertouch_c, 0, 77, 0
1, 309347, Note_on_c, 0, 58, 0
1, 310039, Note_on_c, 0, 53, 88
1, 310039, Note_on_c, 0, 65, 87
1, 310045, Note_on_c, 0, 58, 84
1, 310046, Note_on_c, 0, 41, 77
1, 310050, Note_on_c, 0, 49, 81
1, 310053, Note_on_c, 0, 61, 78
1, 310058, Note_on_c, 0, 46, 79
1, 310073, Note_on_c, 0, 53, 0
1, 310093, Note_on_c, 0, 61, 0
1, 310105, Note_on_c, 0, 58, 0
1, 310107, Note_on_c, 0, 49, 0
1, 310122, Note_on_c, 0, 41, 0
1, 310122, Poly_aftertouch_c, 0, 41, 0
1, 310133, Note_on_c, 0, 46, 0
1, 310133, Note_on_c, 0, 65, 0
1, 310133, Poly_aftertouch_c, 0, 46, 0
1, 310503, Control_c, 0, 64, 116
1, 310520, Control_c, 0, 64, 61
1, 310522, Note_on_c, 0, 34, 102
1, 310528, Note_on_c, 0, 46, 91
1, 310530, Note_on_c, 0, 58, 87
1, 310534, Note_on_c, 0, 22, 90
1, 310539, Control_c, 0, 64, 0
1, 310556, Note_on_c, 0, 46, 0
1, 310556, Poly_aftertouch_c, 0, 46, 0
1, 310564, Note_on_c, 0, 22, 0
1, 310578, Control_c, 0, 64, 47
1, 310583, Note_on_c, 0, 58, 0
1, 310587, Note_on_c, 0, 34, 0
1, 310597, Control_c, 0, 64, 85
1, 310616, Control_c, 0, 64, 127
1, 311069, Note_on_c, 0, 53, 62
1, 311076, Note_on_c, 0, 61, 81
1, 311083, Note_on_c, 0, 58, 71
1, 311128, Note_on_c, 0, 89, 90
1, 311130, Note_on_c, 0, 77, 84
1, 311141, Note_on_c, 0, 82, 72
1, 311157, Note_on_c, 0, 77, 0
1, 311157, Poly_aftertouch_c, 0, 77, 0
1, 311171, Note_on_c, 0, 82, 0
1, 311177, Note_on_c, 0, 89, 0
1, 311177, Poly_aftertouch_c, 0, 89, 0
1, 311240, Note_on_c, 0, 65, 100
1, 311255, Note_on_c, 0, 85, 97
1, 311256, Note_on_c, 0, 73, 93
1, 311274, Note_on_c, 0, 73, 0
1, 311274, Poly_aftertouch_c, 0, 73, 0
1, 311306, Note_on_c, 0, 85, 0
1, 311312, Note_on_c, 0, 61, 0
1, 311473, Note_on_c, 0, 58, 0
1, 311489, Note_on_c, 0, 53, 0
1, 311803, Note_on_c, 0, 64, 92
1, 311827, Note_on_c, 0, 65, 0
1, 311976, Note_on_c, 0, 70, 56
1, 312078, Note_on_c, 0, 73, 56
1, 312143, Note_on_c, 0, 63, 93
1, 312146, Note_on_c, 0, 70, 0
1, 312166, Note_on_c, 0, 77, 59
1, 312179, Note_on_c, 0, 64, 0
1, 312189, Note_on_c, 0, 73, 0
1, 312189, Poly_aftertouch_c, 0, 73, 0
1, 312253, Note_on_c, 0, 66, 57
1, 312312, Note_on_c, 0, 63, 0
1, 312312, Poly_aftertouch_c, 0, 63, 0
1, 312314, Note_on_c, 0, 70, 60
1, 312323, Note_on_c, 0, 66, 0
1, 312381, Note_on_c, 0, 61, 98
1, 312410, Note_on_c, 0, 77, 0
1, 312410, Note_on_c, 0, 73, 55
1, 312410, Poly_aftertouch_c, 0, 77, 0
1, 312427, Note_on_c, 0, 70, 0
1, 312521, Control_c, 0, 64, 112
1, 312525, Note_on_c, 0, 65, 58
1, 312542, Control_c, 0, 64, 71
1, 312561, Control_c, 0, 64, 0
1, 312606, Note_on_c, 0, 70, 57
1, 312616, Control_c, 0, 64, 53
1, 312635, Control_c, 0, 64, 84
1, 312652, Note_on_c, 0, 65, 0
1, 312652, Control_c, 0, 64, 111
1, 312672, Control_c, 0, 64, 127
1, 312693, Note_on_c, 0, 73, 0
1, 312693, Poly_aftertouch_c, 0, 73, 0
1, 312723, Note_on_c, 0, 70, 0
1, 312723, Note_on_c, 0, 77, 63
1, 312768, Note_on_c, 0, 61, 0
1, 312847, Note_on_c, 0, 66, 53
1, 312930, Note_on_c, 0, 58, 84
1, 313068, Poly_aftertouch_c, 0, 77, 24
1, 313092, Note_on_c, 0, 70, 59
1, 313094, Note_on_c, 0, 58, 0
1, 313157, Note_on_c, 0, 66, 0
1, 313248, Note_on_c, 0, 53, 78
1, 313273, Note_on_c, 0, 77, 0
1, 313273, Poly_aftertouch_c, 0, 77, 0
1, 313351, Note_on_c, 0, 70, 0
1, 313381, Control_c, 0, 64, 114
1, 313387, Note_on_c, 0, 73, 59
1, 313402, Control_c, 0, 64, 80
1, 313420, Control_c, 0, 64, 51
1, 313439, Control_c, 0, 64, 44
1, 313459, Control_c, 0, 64, 49
1, 313476, Control_c, 0, 64, 61
1, 313495, Control_c, 0, 64, 72
1, 313513, Control_c, 0, 64, 83
1, 313515, Control_c, 0, 67, 8
1, 313533, Control_c, 0, 64, 93
1, 313551, Control_c, 0, 64, 103
1, 313568, Control_c, 0, 64, 108
1, 313571, Note_on_c, 0, 65, 47
1, 313663, Control_c, 0, 64, 112
1, 313676, Note_on_c, 0, 65, 0
1, 313700, Control_c, 0, 67, 12
1, 313713, Note_on_c, 0, 53, 0
1, 313728, Note_on_c, 0, 52, 60
1, 313793, Control_c, 0, 64, 107
1, 313813, Control_c, 0, 64, 94
1, 313815, Control_c, 0, 67, 17
1, 313819, Poly_aftertouch_c, 0, 73, 24
1, 313833, Control_c, 0, 64, 71
1, 313850, Control_c, 0, 64, 55
1, 313859, Note_on_c, 0, 70, 52
1, 313864, Note_on_c, 0, 73, 0
1, 313864, Poly_aftertouch_c, 0, 73, 0
1, 313865, Poly_aftertouch_c, 0, 73, 0
1, 313868, Control_c, 0, 67, 23
1, 313888, Control_c, 0, 64, 60
1, 313907, Control_c, 0, 64, 70
1, 313907, Control_c, 0, 67, 27
1, 313924, Control_c, 0, 64, 79
1, 313944, Control_c, 0, 64, 89
1, 313952, Note_on_c, 0, 70, 0
1, 313963, Control_c, 0, 64, 100
1, 313964, Control_c, 0, 67, 32
1, 313980, Control_c, 0, 64, 111
1, 314000, Control_c, 0, 64, 118
1, 314026, Note_on_c, 0, 51, 58
1, 314027, Note_on_c, 0, 52, 0
1, 314056, Control_c, 0, 64, 103
1, 314075, Control_c, 0, 64, 78
1, 314094, Control_c, 0, 64, 62
1, 314111, Control_c, 0, 64, 67
1, 314131, Control_c, 0, 64, 71
1, 314149, Control_c, 0, 64, 78
1, 314169, Control_c, 0, 64, 85
1, 314187, Control_c, 0, 64, 96
1, 314205, Control_c, 0, 64, 109
1, 314214, Note_on_c, 0, 51, 0
1, 314214, Poly_aftertouch_c, 0, 51, 0
1, 314223, Control_c, 0, 64, 118
1, 314228, Note_on_c, 0, 50, 56
1, 314270, Note_on_c, 0, 50, 0
1, 314372, Note_on_c, 0, 61, 53
1, 314380, Note_on_c, 0, 53, 43
1, 314412, Control_c, 0, 64, 111
1, 314430, Control_c, 0, 64, 96
1, 314449, Control_c, 0, 64, 75
1, 314467, Control_c, 0, 64, 64
1, 314486, Control_c, 0, 64, 66
1, 314505, Control_c, 0, 64, 70
1, 314523, Control_c, 0, 64, 77
1, 314534, Note_on_c, 0, 49, 52
1, 314543, Control_c, 0, 64, 85
1, 314561, Control_c, 0, 64, 96
1, 314578, Control_c, 0, 64, 110
1, 314582, Note_on_c, 0, 41, 46
1, 314585, Note_on_c, 0, 49, 0
1, 314588, Note_on_c, 0, 61, 0
1, 314596, Control_c, 0, 64, 123
1, 314600, Note_on_c, 0, 53, 0
1, 314617, Control_c, 0, 64, 127
1, 314661, Note_on_c, 0, 34, 51
1, 314671, Note_on_c, 0, 41, 0
1, 314671, Poly_aftertouch_c, 0, 41, 0
1, 314705, Note_on_c, 0, 34, 0
1, 314753, Note_on_c, 0, 61, 51
1, 314761, Note_on_c, 0, 65, 48
1, 314801, Note_on_c, 0, 61, 0
1, 314875, Note_on_c, 0, 53, 58
1, 314882, Control_c, 0, 64, 120
1, 314894, Note_on_c, 0, 49, 53
1, 314897, Control_c, 0, 64, 92
1, 314898, Control_c, 0, 67, 28
1, 314918, Control_c, 0, 64, 54
1, 314919, Note_on_c, 0, 53, 0
1, 314934, Control_c, 0, 64, 0
1, 314943, Note_on_c, 0, 49, 0
1, 314958, Note_on_c, 0, 41, 63
1, 314990, Control_c, 0, 67, 24
1, 314993, Note_on_c, 0, 41, 0
1, 314993, Poly_aftertouch_c, 0, 41, 0
1, 315053, Note_on_c, 0, 65, 0
1, 315053, Note_on_c, 0, 60, 64
1, 315064, Control_c, 0, 67, 19
1, 315067, Note_on_c, 0, 53, 44
1, 315120, Note_on_c, 0, 53, 0
1, 315169, Note_on_c, 0, 48, 67
1, 315201, Note_on_c, 0, 41, 48
1, 315234, Control_c, 0, 64, 102
1, 315237, Note_on_c, 0, 48, 0
1, 315237, Poly_aftertouch_c, 0, 48, 0
1, 315252, Control_c, 0, 64, 127
1, 315272, Note_on_c, 0, 60, 0
1, 315290, Note_on_c, 0, 41, 0
1, 315290, Poly_aftertouch_c, 0, 41, 0
1, 315300, Note_on_c, 0, 34, 55
1, 315339, Note_on_c, 0, 34, 0
1, 315362, Note_on_c, 0, 65, 64
1, 315375, Note_on_c, 0, 60, 55
1, 315419, Note_on_c, 0, 60, 0
1, 315464, Note_on_c, 0, 53, 69
1, 315478, Note_on_c, 0, 48, 60
1, 315478, Control_c, 0, 64, 80
1, 315496, Control_c, 0, 64, 0
1, 315498, Control_c, 0, 67, 15
1, 315506, Note_on_c, 0, 53, 0
1, 315514, Control_c, 0, 67, 11
1, 315525, Note_on_c, 0, 48, 0
1, 315525, Poly_aftertouch_c, 0, 48, 0
1, 315549, Note_on_c, 0, 41, 79
1, 315578, Note_on_c, 0, 41, 0
1, 315578, Poly_aftertouch_c, 0, 41, 0
1, 315597, Note_on_c, 0, 65, 0
1, 315622, Note_on_c, 0, 58, 72
1, 315634, Note_on_c, 0, 53, 56
1, 315668, Note_on_c, 0, 53, 0
1, 315711, Note_on_c, 0, 46, 83
1, 315748, Note_on_c, 0, 41, 37
1, 315758, Note_on_c, 0, 58, 0
1, 315777, Control_c, 0, 64, 127
1, 315807, Note_on_c, 0, 41, 0
1, 315807, Poly_aftertouch_c, 0, 41, 0
1, 315808, Note_on_c, 0, 34, 83
1, 315822, Note_on_c, 0, 46, 0
1, 315822, Poly_aftertouch_c, 0, 46, 0
1, 315866, Note_on_c, 0, 34, 0
1, 315912, Note_on_c, 0, 65, 78
1, 315917, Note_on_c, 0, 58, 68
1, 315968, Note_on_c, 0, 58, 0
1, 315991, Note_on_c, 0, 53, 82
1, 316005, Note_on_c, 0, 46, 70
1, 316038, Control_c, 0, 64, 121
1, 316054, Note_on_c, 0, 53, 0
1, 316056, Control_c, 0, 64, 71
1, 316075, Control_c, 0, 64, 0
1, 316080, Note_on_c, 0, 41, 86
1, 316086, Note_on_c, 0, 46, 0
1, 316086, Poly_aftertouch_c, 0, 46, 0
1, 316116, Note_on_c, 0, 41, 0
1, 316116, Poly_aftertouch_c, 0, 41, 0
1, 316163, Note_on_c, 0, 65, 0
1, 316170, Note_on_c, 0, 57, 80
1, 316177, Note_on_c, 0, 53, 73
1, 316216, Note_on_c, 0, 53, 0
1, 316253, Note_on_c, 0, 45, 88
1, 316268, Note_on_c, 0, 41, 78
1, 316301, Control_c, 0, 64, 50
1, 316302, Control_c, 0, 67, 0
1, 316319, Control_c, 0, 64, 127
1, 316354, Note_on_c, 0, 57, 0
1, 316363, Note_on_c, 0, 41, 0
1, 316363, Poly_aftertouch_c, 0, 41, 0
1, 316364, Note_on_c, 0, 34, 89
1, 316377, Note_on_c, 0, 45, 0
1, 316377, Poly_aftertouch_c, 0, 45, 0
1, 316411, Note_on_c, 0, 34, 0
1, 316468, Note_on_c, 0, 65, 83
1, 316468, Note_on_c, 0, 57, 83
1, 316496, Note_on_c, 0, 57, 0
1, 316503, Note_on_c, 0, 65, 0
1, 316571, Note_on_c, 0, 53, 89
1, 316581, Note_on_c, 0, 45, 69
1, 316607, Note_on_c, 0, 46, 56
1, 316644, Note_on_c, 0, 46, 0
1, 316644, Poly_aftertouch_c, 0, 46, 0
1, 316653, Note_on_c, 0, 53, 0
1, 316685, Note_on_c, 0, 45, 0
1, 316685, Poly_aftertouch_c, 0, 45, 0
1, 316687, Note_on_c, 0, 41, 64
1, 316689, Note_on_c, 0, 40, 72
1, 316714, Note_on_c, 0, 41, 0
1, 316714, Poly_aftertouch_c, 0, 41, 0
1, 316729, Note_on_c, 0, 40, 0
1, 316905, Note_on_c, 0, 44, 97
1, 316907, Note_on_c, 0, 56, 90
1, 316947, Note_on_c, 0, 51, 28
1, 316952, Control_c, 0, 64, 106
1, 316973, Control_c, 0, 64, 53
1, 316992, Control_c, 0, 64, 0
1, 317014, Note_on_c, 0, 34, 105
1, 317017, Note_on_c, 0, 22, 101
1, 317048, Control_c, 0, 64, 57
1, 317051, Note_on_c, 0, 44, 0
1, 317051, Poly_aftertouch_c, 0, 44, 0
1, 317062, Note_on_c, 0, 51, 0
1, 317062, Poly_aftertouch_c, 0, 51, 0
1, 317066, Control_c, 0, 64, 95
1, 317071, Note_on_c, 0, 22, 0
1, 317072, Note_on_c, 0, 34, 0
1, 317084, Control_c, 0, 64, 127
1, 317086, Note_on_c, 0, 56, 0
1, 317290, Note_on_c, 0, 61, 26
1, 317360, Note_on_c, 0, 61, 0
1, 317559, Note_on_c, 0, 65, 87
1, 317561, Note_on_c, 0, 58, 88
1, 317563, Note_on_c, 0, 53, 97
1, 317571, Note_on_c, 0, 41, 81
1, 317571, Note_on_c, 0, 50, 84
1, 317572, Note_on_c, 0, 62, 79
1, 317580, Note_on_c, 0, 44, 77
1, 317584, Note_on_c, 0, 46, 77
1, 317601, Note_on_c, 0, 62, 0
1, 317611, Note_on_c, 0, 58, 0
1, 317613, Note_on_c, 0, 41, 0
1, 317613, Poly_aftertouch_c, 0, 41, 0
1, 317614, Note_on_c, 0, 65, 0
1, 317689, Note_on_c, 0, 50, 0
1, 317689, Note_on_c, 0, 44, 0
1, 317689, Poly_aftertouch_c, 0, 44, 0
1, 317695, Note_on_c, 0, 46, 0
1, 317695, Poly_aftertouch_c, 0, 46, 0
1, 317708, Note_on_c, 0, 53, 0
1, 318133, Note_on_c, 0, 77, 89
1, 318134, Note_on_c, 0, 70, 95
1, 318139, Note_on_c, 0, 65, 98
1, 318141, Note_on_c, 0, 74, 88
1, 318141, Note_on_c, 0, 62, 90
1, 318147, Note_on_c, 0, 53, 77
1, 318148, Note_on_c, 0, 56, 80
1, 318156, Note_on_c, 0, 58, 80
1, 318178, Note_on_c, 0, 70, 0
1, 318178, Note_on_c, 0, 75, 41
1, 318180, Note_on_c, 0, 53, 0
1, 318180, Note_on_c, 0, 65, 0
1, 318185, Note_on_c, 0, 74, 0
1, 318188, Note_on_c, 0, 62, 0
1, 318190, Note_on_c, 0, 58, 0
1, 318191, Note_on_c, 0, 77, 0
1, 318191, Poly_aftertouch_c, 0, 77, 0
1, 318197, Note_on_c, 0, 56, 0
1, 318215, Note_on_c, 0, 75, 0
1, 318470, Control_c, 0, 64, 83
1, 318487, Control_c, 0, 64, 0
1, 318521, Note_on_c, 0, 59, 83
1, 318521, Note_on_c, 0, 71, 93
1, 318523, Note_on_c, 0, 68, 91
1, 318526, Note_on_c, 0, 83, 102
1, 318527, Note_on_c, 0, 95, 104
1, 318528, Note_on_c, 0, 92, 93
1, 318528, Note_on_c, 0, 88, 89
1, 318535, Note_on_c, 0, 64, 82
1, 318544, Control_c, 0, 64, 70
1, 318562, Note_on_c, 0, 71, 0
1, 318562, Control_c, 0, 64, 119
1, 318580, Note_on_c, 0, 59, 0
1, 318580, Control_c, 0, 64, 127
1, 318581, Note_on_c, 0, 62, 32
1, 318582, Note_on_c, 0, 68, 0
1, 318585, Note_on_c, 0, 83, 0
1, 318591, Note_on_c, 0, 64, 0
1, 318601, Note_on_c, 0, 95, 0
1, 318612, Note_on_c, 0, 88, 0
1, 318626, Note_on_c, 0, 62, 0
1, 318629, Note_on_c, 0, 92, 0
1, 318985, Note_on_c, 0, 68, 96
1, 318987, Note_on_c, 0, 80, 93
1, 318988, Note_on_c, 0, 63, 94
1, 318989, Note_on_c, 0, 71, 88
1, 318990, Note_on_c, 0, 51, 83
1, 318992, Note_on_c, 0, 75, 90
1, 318995, Note_on_c, 0, 59, 84
1, 318996, Note_on_c, 0, 56, 80
1, 319031, Note_on_c, 0, 68, 0
1, 319033, Note_on_c, 0, 63, 0
1, 319033, Poly_aftertouch_c, 0, 63, 0
1, 319052, Note_on_c, 0, 71, 0
1, 319054, Note_on_c, 0, 59, 0
1, 319055, Note_on_c, 0, 51, 0
1, 319055, Poly_aftertouch_c, 0, 51, 0
1, 319057, Note_on_c, 0, 80, 0
1, 319057, Poly_aftertouch_c, 0, 80, 0
1, 319059, Note_on_c, 0, 75, 0
1, 319068, Note_on_c, 0, 56, 0
1, 319781, Note_on_c, 0, 56, 93
1, 319786, Note_on_c, 0, 68, 90
1, 319786, Note_on_c, 0, 52, 93
1, 319789, Note_on_c, 0, 63, 87
1, 319790, Note_on_c, 0, 47, 88
1, 319795, Note_on_c, 0, 40, 80
1, 319814, Note_on_c, 0, 52, 0
1, 319839, Note_on_c, 0, 47, 0
1, 319839, Note_on_c, 0, 40, 0
1, 319839, Poly_aftertouch_c, 0, 47, 0
1, 319842, Note_on_c, 0, 56, 0
1, 319902, Note_on_c, 0, 68, 0
1, 319923, Poly_aftertouch_c, 0, 61, 127
1, 319932, Note_on_c, 0, 63, 0
1, 319932, Poly_aftertouch_c, 0, 63, 0
1, 319937, Poly_aftertouch_c, 0, 61, 0
1, 320339, Control_c, 0, 64, 123
1, 320359, Control_c, 0, 64, 73
1, 320371, Note_on_c, 0, 46, 95
1, 320373, Note_on_c, 0, 58, 89
1, 320373, Note_on_c, 0, 34, 103
1, 320378, Control_c, 0, 64, 0
1, 320383, Note_on_c, 0, 22, 96
1, 320395, Control_c, 0, 64, 32
1, 320397, Note_on_c, 0, 46, 0
1, 320397, Poly_aftertouch_c, 0, 46, 0
1, 320412, Note_on_c, 0, 22, 0
1, 320414, Control_c, 0, 64, 82
1, 320429, Note_on_c, 0, 58, 0
1, 320430, Control_c, 0, 64, 127
1, 320433, Note_on_c, 0, 34, 0
1, 320529, Poly_aftertouch_c, 0, 32, 0
1, 320936, Note_on_c, 0, 53, 71
1, 320939, Note_on_c, 0, 62, 82
1, 320941, Note_on_c, 0, 89, 97
1, 320944, Note_on_c, 0, 77, 96
1, 320944, Note_on_c, 0, 82, 89
1, 320945, Note_on_c, 0, 86, 87
1, 320954, Note_on_c, 0, 58, 74
1, 320960, Note_on_c, 0, 56, 66
1, 321056, Note_on_c, 0, 89, 0
1, 321056, Poly_aftertouch_c, 0, 89, 0
1, 321069, Note_on_c, 0, 86, 0
1, 321071, Note_on_c, 0, 77, 0
1, 321071, Poly_aftertouch_c, 0, 77, 0
1, 321100, Note_on_c, 0, 82, 0
1, 321120, Note_on_c, 0, 65, 98
1, 321170, Note_on_c, 0, 74, 95
1, 321175, Note_on_c, 0, 86, 100
1, 321179, Note_on_c, 0, 82, 82
1, 321193, Note_on_c, 0, 74, 0
1, 321206, Note_on_c, 0, 82, 0
1, 321219, Note_on_c, 0, 86, 0
1, 321270, Note_on_c, 0, 53, 0
1, 321294, Note_on_c, 0, 62, 0
1, 321330, Note_on_c, 0, 56, 0
1, 321390, Note_on_c, 0, 58, 0
1, 321769, Note_on_c, 0, 64, 95
1, 321800, Note_on_c, 0, 65, 0
1, 322006, Note_on_c, 0, 70, 56
1, 322099, Note_on_c, 0, 74, 61
1, 322155, Note_on_c, 0, 70, 0
1, 322155, Note_on_c, 0, 63, 94
1, 322191, Note_on_c, 0, 64, 0
1, 322209, Note_on_c, 0, 77, 67
1, 322225, Note_on_c, 0, 74, 0
1, 322312, Note_on_c, 0, 66, 59
1, 322379, Note_on_c, 0, 70, 63
1, 322388, Note_on_c, 0, 66, 0
1, 322472, Note_on_c, 0, 74, 66
1, 322474, Note_on_c, 0, 77, 0
1, 322474, Poly_aftertouch_c, 0, 77, 0
1, 322476, Note_on_c, 0, 70, 0
1, 322482, Note_on_c, 0, 62, 93
1, 322492, Note_on_c, 0, 63, 0
1, 322492, Poly_aftertouch_c, 0, 63, 0
1, 322583, Control_c, 0, 64, 117
1, 322601, Control_c, 0, 64, 74
1, 322607, Note_on_c, 0, 65, 53
1, 322620, Control_c, 0, 64, 0
1, 322669, Note_on_c, 0, 70, 63
1, 322675, Control_c, 0, 64, 30
1, 322695, Note_on_c, 0, 65, 0
1, 322696, Control_c, 0, 64, 72
1, 322713, Control_c, 0, 64, 102
1, 322731, Control_c, 0, 64, 127
1, 322761, Note_on_c, 0, 70, 0
1, 322771, Note_on_c, 0, 74, 0
1, 322783, Note_on_c, 0, 77, 68
1, 322820, Note_on_c, 0, 62, 0
1, 322882, Note_on_c, 0, 66, 61
1, 323007, Note_on_c, 0, 58, 82
1, 323148, Poly_aftertouch_c, 0, 77, 24
1, 323149, Note_on_c, 0, 70, 61
1, 323189, Note_on_c, 0, 58, 0
1, 323320, Note_on_c, 0, 53, 77
1, 323330, Control_c, 0, 67, 8
1, 323395, Poly_aftertouch_c, 0, 77, 32
1, 323424, Control_c, 0, 64, 112
1, 323443, Control_c, 0, 64, 94
1, 323445, Note_on_c, 0, 70, 0
1, 323445, Control_c, 0, 67, 12
1, 323456, Note_on_c, 0, 74, 57
1, 323462, Control_c, 0, 64, 67
1, 323480, Control_c, 0, 64, 0
1, 323499, Control_c, 0, 67, 16
1, 323514, Note_on_c, 0, 66, 0
1, 323555, Control_c, 0, 64, 40
1, 323557, Control_c, 0, 67, 22
1, 323574, Control_c, 0, 64, 62
1, 323593, Control_c, 0, 64, 80
1, 323594, Control_c, 0, 67, 26
1, 323611, Control_c, 0, 64, 92
1, 323630, Control_c, 0, 64, 103
1, 323641, Note_on_c, 0, 65, 42
1, 323648, Control_c, 0, 64, 111
1, 323658, Poly_aftertouch_c, 0, 77, 20
1, 323666, Control_c, 0, 64, 116
1, 323705, Control_c, 0, 64, 121
1, 323806, Note_on_c, 0, 52, 59
1, 323831, Note_on_c, 0, 77, 0
1, 323831, Poly_aftertouch_c, 0, 77, 0
1, 323832, Poly_aftertouch_c, 0, 77, 0
1, 323852, Note_on_c, 0, 53, 0
1, 323873, Control_c, 0, 64, 107
1, 323892, Control_c, 0, 64, 77
1, 323910, Control_c, 0, 64, 50
1, 323941, Note_on_c, 0, 74, 0
1, 323943, Note_on_c, 0, 70, 59
1, 323948, Control_c, 0, 64, 58
1, 323967, Control_c, 0, 64, 68
1, 323985, Control_c, 0, 64, 78
1, 324003, Control_c, 0, 64, 90
1, 324017, Note_on_c, 0, 70, 0
1, 324022, Control_c, 0, 64, 105
1, 324041, Control_c, 0, 64, 120
1, 324059, Control_c, 0, 64, 127
1, 324071, Note_on_c, 0, 65, 0
1, 324103, Note_on_c, 0, 51, 63
1, 324115, Control_c, 0, 64, 113
1, 324134, Control_c, 0, 64, 89
1, 324151, Note_on_c, 0, 52, 0
1, 324152, Control_c, 0, 64, 76
1, 324172, Control_c, 0, 64, 80
1, 324190, Control_c, 0, 64, 83
1, 324210, Control_c, 0, 64, 88
1, 324228, Control_c, 0, 64, 97
1, 324247, Control_c, 0, 64, 110
1, 324265, Control_c, 0, 64, 124
1, 324290, Note_on_c, 0, 51, 0
1, 324290, Poly_aftertouch_c, 0, 51, 0
1, 324300, Note_on_c, 0, 50, 58
1, 324335, Note_on_c, 0, 50, 0
1, 324396, Control_c, 0, 64, 106
1, 324415, Control_c, 0, 64, 73
1, 324435, Control_c, 0, 64, 52
1, 324439, Note_on_c, 0, 68, 58
1, 324452, Control_c, 0, 64, 55
1, 324456, Note_on_c, 0, 56, 39
1, 324458, Note_on_c, 0, 62, 39
1, 324470, Control_c, 0, 64, 64
1, 324490, Control_c, 0, 64, 75
1, 324509, Control_c, 0, 64, 86
1, 324526, Control_c, 0, 64, 102
1, 324547, Control_c, 0, 64, 121
1, 324564, Control_c, 0, 64, 127
1, 324590, Note_on_c, 0, 50, 37
1, 324600, Note_on_c, 0, 56, 0
1, 324603, Note_on_c, 0, 44, 56
1, 324628, Note_on_c, 0, 62, 0
1, 324637, Note_on_c, 0, 50, 0
1, 324644, Note_on_c, 0, 44, 0
1, 324644, Poly_aftertouch_c, 0, 44, 0
1, 324685, Note_on_c, 0, 68, 0
1, 324773, Note_on_c, 0, 34, 54
1, 324813, Note_on_c, 0, 34, 0
1, 324929, Note_on_c, 0, 71, 54
1, 324975, Note_on_c, 0, 71, 0
1, 325037, Poly_aftertouch_c, 0, 62, 127
1, 325040, Poly_aftertouch_c, 0, 59, 0
1, 325045, Note_on_c, 0, 56, 53
1, 325079, Note_on_c, 0, 50, 45
1, 325089, Note_on_c, 0, 56, 0
1, 325108, Poly_aftertouch_c, 0, 62, 0
1, 325113, Note_on_c, 0, 44, 59
1, 325121, Note_on_c, 0, 50, 0
1, 325145, Note_on_c, 0, 44, 0
1, 325145, Poly_aftertouch_c, 0, 44, 0
1, 325237, Control_c, 0, 64, 120
1, 325241, Note_on_c, 0, 67, 70
1, 325256, Control_c, 0, 64, 83
1, 325266, Note_on_c, 0, 62, 47
1, 325274, Control_c, 0, 64, 0
1, 325280, Note_on_c, 0, 55, 25
1, 325294, Note_on_c, 0, 53, 16
1, 325330, Note_on_c, 0, 50, 67
1, 325330, Control_c, 0, 64, 46
1, 325350, Control_c, 0, 64, 77
1, 325352, Note_on_c, 0, 55, 0
1, 325358, Note_on_c, 0, 67, 0
1, 325364, Note_on_c, 0, 43, 54
1, 325368, Note_on_c, 0, 50, 0
1, 325369, Note_on_c, 0, 53, 0
1, 325369, Control_c, 0, 64, 107
1, 325387, Control_c, 0, 64, 127
1, 325434, Note_on_c, 0, 43, 0
1, 325440, Note_on_c, 0, 62, 0
1, 325453, Note_on_c, 0, 34, 70
1, 325484, Note_on_c, 0, 34, 0
1, 325540, Note_on_c, 0, 70, 80
1, 325552, Note_on_c, 0, 58, 58
1, 325569, Note_on_c, 0, 70, 0
1, 325569, Note_on_c, 0, 62, 44
1, 325586, Note_on_c, 0, 58, 0
1, 325593, Control_c, 0, 67, 22
1, 325608, Note_on_c, 0, 62, 0
1, 325655, Note_on_c, 0, 55, 63
1, 325666, Note_on_c, 0, 50, 57
1, 325699, Note_on_c, 0, 55, 0
1, 325714, Note_on_c, 0, 50, 0
1, 325726, Note_on_c, 0, 43, 80
1, 325761, Note_on_c, 0, 43, 0
1, 325817, Note_on_c, 0, 66, 82
1, 325822, Note_on_c, 0, 54, 73
1, 325836, Note_on_c, 0, 62, 58
1, 325836, Control_c, 0, 64, 94
1, 325855, Control_c, 0, 64, 43
1, 325871, Note_on_c, 0, 54, 0
1, 325871, Poly_aftertouch_c, 0, 54, 0
1, 325873, Control_c, 0, 64, 0
1, 325876, Note_on_c, 0, 62, 0
1, 325892, Control_c, 0, 64, 34
1, 325912, Control_c, 0, 64, 89
1, 325916, Note_on_c, 0, 66, 0
1, 325917, Note_on_c, 0, 50, 82
1, 325928, Control_c, 0, 64, 127
1, 325929, Note_on_c, 0, 42, 76
1, 325929, Control_c, 0, 67, 17
1, 325956, Note_on_c, 0, 50, 0
1, 325968, Control_c, 0, 67, 8
1, 325996, Note_on_c, 0, 42, 0
1, 326033, Note_on_c, 0, 34, 84
1, 326041, Control_c, 0, 67, 0
1, 326074, Note_on_c, 0, 34, 0
1, 326104, Note_on_c, 0, 69, 87
1, 326109, Note_on_c, 0, 57, 77
1, 326119, Note_on_c, 0, 62, 67
1, 326119, Note_on_c, 0, 66, 65
1, 326141, Note_on_c, 0, 57, 0
1, 326157, Note_on_c, 0, 66, 0
1, 326157, Note_on_c, 0, 62, 0
1, 326160, Note_on_c, 0, 69, 0
1, 326214, Note_on_c, 0, 54, 75
1, 326228, Note_on_c, 0, 50, 68
1, 326265, Note_on_c, 0, 54, 0
1, 326265, Poly_aftertouch_c, 0, 54, 0
1, 326309, Note_on_c, 0, 50, 0
1, 326312, Note_on_c, 0, 42, 82
1, 326355, Note_on_c, 0, 42, 0
1, 326393, Note_on_c, 0, 65, 87
1, 326398, Note_on_c, 0, 53, 80
1, 326405, Note_on_c, 0, 62, 65
1, 326416, Control_c, 0, 64, 91
1, 326435, Control_c, 0, 64, 48
1, 326453, Control_c, 0, 64, 0
1, 326459, Note_on_c, 0, 53, 0
1, 326472, Control_c, 0, 64, 39
1, 326481, Note_on_c, 0, 62, 0
1, 326491, Control_c, 0, 64, 66
1, 326509, Control_c, 0, 64, 91
1, 326512, Note_on_c, 0, 65, 0
1, 326512, Note_on_c, 0, 50, 90
1, 326517, Note_on_c, 0, 42, 72
1, 326528, Control_c, 0, 64, 119
1, 326546, Control_c, 0, 64, 127
1, 326553, Note_on_c, 0, 42, 0
1, 326561, Note_on_c, 0, 50, 0
1, 326645, Note_on_c, 0, 34, 88
1, 326686, Note_on_c, 0, 34, 0
1, 326749, Note_on_c, 0, 56, 85
1, 326750, Note_on_c, 0, 68, 92
1, 326764, Note_on_c, 0, 62, 68
1, 326777, Note_on_c, 0, 65, 55
1, 326794, Note_on_c, 0, 56, 0
1, 326803, Note_on_c, 0, 62, 0
1, 326813, Note_on_c, 0, 65, 0
1, 326820, Note_on_c, 0, 68, 0
1, 326861, Note_on_c, 0, 53, 81
1, 326885, Note_on_c, 0, 50, 69
1, 326898, Note_on_c, 0, 53, 0
1, 326974, Note_on_c, 0, 41, 88
1, 326978, Note_on_c, 0, 50, 0
1, 327008, Note_on_c, 0, 41, 0
1, 327008, Poly_aftertouch_c, 0, 41, 0
1, 327248, Note_on_c, 0, 62, 92
1, 327249, Note_on_c, 0, 50, 88
1, 327351, Poly_aftertouch_c, 0, 56, 0
1, 327351, Control_c, 0, 64, 108
1, 327370, Control_c, 0, 64, 58
1, 327384, Note_on_c, 0, 38, 101
1, 327387, Note_on_c, 0, 26, 95
1, 327388, Control_c, 0, 64, 0
1, 327419, Note_on_c, 0, 50, 0
1, 327424, Note_on_c, 0, 26, 0
1, 327424, Control_c, 0, 64, 25
1, 327429, Note_on_c, 0, 38, 0
1, 327443, Note_on_c, 0, 62, 0
1, 327443, Control_c, 0, 64, 68
1, 327455, Note_on_c, 0, 28, 9
1, 327455, Poly_aftertouch_c, 0, 28, 0
1, 327456, Note_on_c, 0, 28, 0
1, 327461, Control_c, 0, 64, 100
1, 327481, Control_c, 0, 64, 127
1, 327527, Poly_aftertouch_c, 0, 28, 127
1, 327529, Poly_aftertouch_c, 0, 28, 0
1, 327866, Note_on_c, 0, 69, 84
1, 327872, Note_on_c, 0, 57, 70
1, 327873, Note_on_c, 0, 38, 73
1, 327875, Note_on_c, 0, 62, 71
1, 327877, Note_on_c, 0, 50, 76
1, 327879, Note_on_c, 0, 45, 75
1, 327880, Note_on_c, 0, 66, 74
1, 327901, Note_on_c, 0, 57, 0
1, 327904, Note_on_c, 0, 62, 0
1, 327911, Note_on_c, 0, 66, 0
1, 327914, Note_on_c, 0, 50, 0
1, 327918, Note_on_c, 0, 69, 0
1, 327918, Note_on_c, 0, 38, 0
1, 327918, Note_on_c, 0, 45, 0
1, 327918, Poly_aftertouch_c, 0, 45, 0
1, 328209, Note_on_c, 0, 66, 93
1, 328211, Note_on_c, 0, 78, 90
1, 328215, Note_on_c, 0, 54, 85
1, 328218, Note_on_c, 0, 57, 89
1, 328218, Note_on_c, 0, 74, 87
1, 328220, Note_on_c, 0, 71, 82
1, 328221, Note_on_c, 0, 45, 79
1, 328230, Note_on_c, 0, 50, 69
1, 328249, Note_on_c, 0, 66, 0
1, 328251, Note_on_c, 0, 45, 0
1, 328251, Poly_aftertouch_c, 0, 45, 0
1, 328252, Note_on_c, 0, 57, 0
1, 328253, Note_on_c, 0, 71, 0
1, 328260, Note_on_c, 0, 50, 0
1, 328268, Note_on_c, 0, 74, 0
1, 328269, Note_on_c, 0, 54, 0
1, 328269, Poly_aftertouch_c, 0, 54, 0
1, 328281, Note_on_c, 0, 78, 0
1, 328281, Poly_aftertouch_c, 0, 78, 0
1, 328584, Note_on_c, 0, 74, 101
1, 328585, Note_on_c, 0, 66, 97
1, 328585, Note_on_c, 0, 86, 97
1, 328586, Note_on_c, 0, 78, 95
1, 328586, Note_on_c, 0, 54, 85
1, 328589, Note_on_c, 0, 63, 82
1, 328589, Note_on_c, 0, 81, 92
1, 328620, Note_on_c, 0, 59, 66
1, 328626, Note_on_c, 0, 74, 0
1, 328633, Note_on_c, 0, 60, 61
1, 328637, Note_on_c, 0, 66, 0
1, 328640, Note_on_c, 0, 54, 0
1, 328640, Poly_aftertouch_c, 0, 54, 0
1, 328641, Note_on_c, 0, 81, 0
1, 328643, Note_on_c, 0, 63, 0
1, 328643, Poly_aftertouch_c, 0, 63, 0
1, 328652, Note_on_c, 0, 78, 0
1, 328652, Poly_aftertouch_c, 0, 78, 0
1, 328654, Note_on_c, 0, 60, 0
1, 328655, Note_on_c, 0, 86, 0
1, 328657, Note_on_c, 0, 59, 0
1, 328977, Control_c, 0, 64, 92
1, 328997, Control_c, 0, 64, 16
1, 329014, Control_c, 0, 64, 0
1, 329015, Note_on_c, 0, 73, 95
1, 329017, Note_on_c, 0, 85, 103
1, 329019, Note_on_c, 0, 97, 102
1, 329020, Note_on_c, 0, 94, 95
1, 329020, Note_on_c, 0, 90, 94
1, 329023, Note_on_c, 0, 66, 68
1, 329024, Note_on_c, 0, 70, 88
1, 329025, Note_on_c, 0, 61, 78
1, 329055, Control_c, 0, 64, 58
1, 329063, Note_on_c, 0, 73, 0
1, 329065, Note_on_c, 0, 61, 0
1, 329070, Control_c, 0, 64, 102
1, 329079, Note_on_c, 0, 70, 0
1, 329088, Control_c, 0, 64, 127
1, 329095, Note_on_c, 0, 66, 0
1, 329117, Note_on_c, 0, 85, 0
1, 329135, Note_on_c, 0, 97, 0
1, 329156, Note_on_c, 0, 94, 0
1, 329156, Note_on_c, 0, 90, 0
1, 329555, Note_on_c, 0, 64, 86
1, 329556, Note_on_c, 0, 70, 101
1, 329556, Note_on_c, 0, 82, 97
1, 329558, Note_on_c, 0, 61, 86
1, 329559, Note_on_c, 0, 52, 78
1, 329559, Note_on_c, 0, 73, 90
1, 329563, Note_on_c, 0, 58, 81
1, 329565, Note_on_c, 0, 76, 86
1, 329593, Note_on_c, 0, 52, 0
1, 329599, Note_on_c, 0, 64, 0
1, 329613, Note_on_c, 0, 61, 0
1, 329627, Note_on_c, 0, 58, 0
1, 329775, Note_on_c, 0, 82, 0
1, 329808, Note_on_c, 0, 76, 0
1, 329841, Note_on_c, 0, 73, 0
1, 329841, Note_on_c, 0, 70, 0
1, 330425, Note_on_c, 0, 64, 87
1, 330430, Note_on_c, 0, 58, 91
1, 330431, Note_on_c, 0, 52, 91
1, 330431, Note_on_c, 0, 42, 93
1, 330441, Note_on_c, 0, 49, 78
1, 330456, Note_on_c, 0, 52, 0
1, 330463, Note_on_c, 0, 42, 0
1, 330467, Note_on_c, 0, 49, 0
1, 330679, Note_on_c, 0, 64, 0
1, 330960, Control_c, 0, 64, 104
1, 330975, Note_on_c, 0, 38, 98
1, 330976, Control_c, 0, 64, 54
1, 330978, Note_on_c, 0, 26, 91
1, 330989, Note_on_c, 0, 62, 93
1, 330990, Note_on_c, 0, 50, 92
1, 330996, Control_c, 0, 64, 0
1, 331016, Control_c, 0, 64, 61
1, 331020, Note_on_c, 0, 50, 0
1, 331022, Note_on_c, 0, 26, 0
1, 331027, Note_on_c, 0, 58, 0
1, 331034, Control_c, 0, 64, 127
1, 331037, Note_on_c, 0, 38, 0
1, 331046, Note_on_c, 0, 62, 0
1, 331448, Poly_aftertouch_c, 0, 75, 127
1, 331468, Poly_aftertouch_c, 0, 75, 0
1, 331614, Note_on_c, 0, 54, 80
1, 331615, Note_on_c, 0, 45, 62
1, 331623, Note_on_c, 0, 50, 47
1, 331679, Note_on_c, 0, 81, 92
1, 331682, Note_on_c, 0, 69, 87
1, 331694, Note_on_c, 0, 74, 69
1, 331757, Note_on_c, 0, 78, 31
1, 331793, Note_on_c, 0, 69, 0
1, 331799, Note_on_c, 0, 81, 0
1, 331815, Note_on_c, 0, 78, 0
1, 331815, Poly_aftertouch_c, 0, 78, 0
1, 331824, Note_on_c, 0, 74, 0
1, 331831, Note_on_c, 0, 57, 97
1, 331902, Note_on_c, 0, 66, 82
1, 331914, Note_on_c, 0, 77, 79
1, 331928, Note_on_c, 0, 66, 0
1, 331931, Note_on_c, 0, 77, 0
1, 332084, Note_on_c, 0, 50, 0
1, 332086, Note_on_c, 0, 54, 0
1, 332086, Poly_aftertouch_c, 0, 54, 0
1, 332131, Note_on_c, 0, 45, 0
1, 332131, Poly_aftertouch_c, 0, 45, 0
1, 332500, Note_on_c, 0, 56, 91
1, 332560, Note_on_c, 0, 57, 0
1, 332702, Note_on_c, 0, 62, 52
1, 332802, Note_on_c, 0, 66, 63
1, 332861, Note_on_c, 0, 62, 0
1, 332861, Note_on_c, 0, 62, 8
1, 332862, Note_on_c, 0, 62, 0
1, 332905, Note_on_c, 0, 55, 84
1, 332919, Note_on_c, 0, 66, 0
1, 332920, Note_on_c, 0, 69, 59
1, 332960, Note_on_c, 0, 56, 0
1, 332991, Note_on_c, 0, 58, 62
1, 333078, Note_on_c, 0, 62, 58
1, 333103, Note_on_c, 0, 58, 0
1, 333179, Note_on_c, 0, 66, 63
1, 333184, Note_on_c, 0, 62, 0
1, 333188, Note_on_c, 0, 54, 88
1, 333217, Note_on_c, 0, 69, 0
1, 333223, Note_on_c, 0, 55, 0
1, 333261, Control_c, 0, 64, 117
1, 333278, Control_c, 0, 64, 102
1, 333298, Control_c, 0, 64, 77
1, 333314, Control_c, 0, 64, 40
1, 333315, Note_on_c, 0, 57, 42
1, 333334, Control_c, 0, 64, 0
1, 333366, Note_on_c, 0, 62, 54
1, 333370, Control_c, 0, 64, 15
1, 333379, Note_on_c, 0, 57, 0
1, 333390, Control_c, 0, 64, 51
1, 333405, Note_on_c, 0, 66, 0
1, 333409, Control_c, 0, 64, 72
1, 333428, Control_c, 0, 64, 88
1, 333446, Control_c, 0, 64, 105
1, 333447, Control_c, 0, 67, 8
1, 333466, Control_c, 0, 64, 118
1, 333484, Control_c, 0, 64, 126
1, 333487, Note_on_c, 0, 62, 0
1, 333493, Note_on_c, 0, 69, 54
1, 333585, Note_on_c, 0, 58, 64
1, 333619, Poly_aftertouch_c, 0, 51, 0
1, 333633, Control_c, 0, 67, 12
1, 333650, Note_on_c, 0, 54, 0
1, 333650, Poly_aftertouch_c, 0, 54, 0
1, 333771, Note_on_c, 0, 50, 72
1, 333876, Note_on_c, 0, 62, 56
1, 333899, Poly_aftertouch_c, 0, 69, 24
1, 333932, Control_c, 0, 67, 16
1, 333988, Control_c, 0, 67, 22
1, 334026, Note_on_c, 0, 58, 0
1, 334026, Control_c, 0, 67, 28
1, 334082, Control_c, 0, 67, 33
1, 334134, Note_on_c, 0, 50, 0
1, 334138, Control_c, 0, 64, 116
1, 334139, Control_c, 0, 67, 37
1, 334147, Note_on_c, 0, 45, 67
1, 334150, Note_on_c, 0, 66, 49
1, 334156, Control_c, 0, 64, 106
1, 334162, Poly_aftertouch_c, 0, 69, 32
1, 334176, Control_c, 0, 67, 43
1, 334194, Control_c, 0, 64, 102
1, 334214, Control_c, 0, 64, 94
1, 334216, Control_c, 0, 67, 49
1, 334223, Note_on_c, 0, 62, 0
1, 334232, Control_c, 0, 64, 70
1, 334250, Control_c, 0, 64, 0
1, 334251, Control_c, 0, 67, 57
1, 334269, Control_c, 0, 67, 61
1, 334307, Control_c, 0, 64, 23
1, 334323, Note_on_c, 0, 69, 0
1, 334323, Poly_aftertouch_c, 0, 69, 0
1, 334323, Poly_aftertouch_c, 0, 69, 0
1, 334324, Control_c, 0, 64, 59
1, 334344, Control_c, 0, 64, 80
1, 334362, Control_c, 0, 64, 94
1, 334381, Control_c, 0, 64, 113
1, 334393, Note_on_c, 0, 57, 46
1, 334399, Control_c, 0, 64, 127
1, 334512, Control_c, 0, 64, 115
1, 334532, Control_c, 0, 64, 85
1, 334537, Note_on_c, 0, 44, 62
1, 334545, Note_on_c, 0, 45, 0
1, 334545, Poly_aftertouch_c, 0, 45, 0
1, 334550, Control_c, 0, 64, 46
1, 334568, Control_c, 0, 64, 0
1, 334587, Control_c, 0, 64, 15
1, 334606, Control_c, 0, 64, 42
1, 334615, Note_on_c, 0, 66, 0
1, 334624, Control_c, 0, 64, 65
1, 334641, Note_on_c, 0, 57, 0
1, 334642, Control_c, 0, 64, 82
1, 334660, Note_on_c, 0, 62, 51
1, 334660, Control_c, 0, 64, 96
1, 334680, Control_c, 0, 64, 106
1, 334718, Control_c, 0, 64, 88
1, 334738, Control_c, 0, 64, 57
1, 334755, Control_c, 0, 64, 0
1, 334780, Note_on_c, 0, 44, 0
1, 334780, Poly_aftertouch_c, 0, 44, 0
1, 334793, Control_c, 0, 64, 25
1, 334807, Note_on_c, 0, 43, 48
1, 334810, Control_c, 0, 64, 51
1, 334829, Control_c, 0, 64, 73
1, 334849, Control_c, 0, 64, 82
1, 334867, Control_c, 0, 64, 79
1, 334886, Control_c, 0, 64, 68
1, 334905, Control_c, 0, 64, 44
1, 334923, Control_c, 0, 64, 0
1, 334943, Control_c, 0, 64, 13
1, 334944, Control_c, 0, 67, 66
1, 334961, Control_c, 0, 64, 42
1, 334980, Control_c, 0, 64, 64
1, 334998, Control_c, 0, 64, 70
1, 335017, Control_c, 0, 64, 66
1, 335036, Control_c, 0, 64, 57
1, 335038, Control_c, 0, 67, 71
1, 335055, Control_c, 0, 64, 26
1, 335073, Control_c, 0, 64, 0
1, 335091, Note_on_c, 0, 43, 0
1, 335091, Control_c, 0, 64, 25
1, 335111, Control_c, 0, 64, 34
1, 335113, Note_on_c, 0, 42, 43
1, 335129, Control_c, 0, 64, 40
1, 335148, Control_c, 0, 64, 33
1, 335166, Control_c, 0, 64, 0
1, 335167, Control_c, 0, 67, 76
1, 335212, Poly_aftertouch_c, 0, 62, 24
1, 335223, Control_c, 0, 64, 30
1, 335224, Control_c, 0, 67, 80
1, 335241, Control_c, 0, 64, 59
1, 335261, Control_c, 0, 64, 72
1, 335298, Control_c, 0, 64, 67
1, 335300, Control_c, 0, 67, 84
1, 335315, Control_c, 0, 64, 60
1, 335319, Note_on_c, 0, 69, 40
1, 335334, Control_c, 0, 64, 50
1, 335354, Control_c, 0, 64, 56
1, 335366, Note_on_c, 0, 62, 0
1, 335366, Poly_aftertouch_c, 0, 62, 0
1, 335371, Control_c, 0, 64, 64
1, 335372, Control_c, 0, 67, 88
1, 335391, Control_c, 0, 64, 73
1, 335411, Control_c, 0, 64, 77
1, 335447, Control_c, 0, 64, 79
1, 335448, Control_c, 0, 67, 93
1, 335465, Control_c, 0, 64, 82
1, 335485, Control_c, 0, 64, 84
1, 335504, Control_c, 0, 64, 86
1, 335522, Control_c, 0, 67, 97
1, 335541, Control_c, 0, 64, 93
1, 335559, Control_c, 0, 64, 97
1, 335579, Control_c, 0, 64, 101
1, 335596, Control_c, 0, 64, 106
1, 335597, Control_c, 0, 67, 101
1, 335615, Control_c, 0, 64, 112
1, 335635, Control_c, 0, 64, 117
1, 335671, Control_c, 0, 64, 121
1, 335728, Control_c, 0, 64, 126
1, 335840, Control_c, 0, 67, 106
1, 335849, Note_on_c, 0, 42, 0
1, 335933, Control_c, 0, 67, 110
1, 335962, Poly_aftertouch_c, 0, 69, 22
1, 335989, Note_on_c, 0, 69, 0
1, 335989, Poly_aftertouch_c, 0, 69, 0
1, 335989, Control_c, 0, 64, 122
1, 335991, Note_on_c, 0, 73, 50
1, 336009, Control_c, 0, 67, 114
1, 336028, Control_c, 0, 64, 116
1, 336032, Note_on_c, 0, 39, 33
1, 336045, Control_c, 0, 64, 108
1, 336064, Control_c, 0, 64, 91
1, 336083, Control_c, 0, 64, 68
1, 336101, Control_c, 0, 64, 40
1, 336121, Control_c, 0, 64, 0
1, 336138, Control_c, 0, 64, 19
1, 336158, Control_c, 0, 64, 43
1, 336177, Control_c, 0, 64, 65
1, 336195, Control_c, 0, 64, 85
1, 336214, Control_c, 0, 64, 103
1, 336232, Control_c, 0, 64, 120
1, 336251, Control_c, 0, 64, 127
1, 336322, Note_on_c, 0, 39, 0
1, 336360, Note_on_c, 0, 73, 0
1, 336473, Note_on_c, 0, 66, 33
1, 336505, Note_on_c, 0, 49, 30
1, 336522, Note_on_c, 0, 66, 0
1, 336556, Note_on_c, 0, 49, 0
1, 336722, Note_on_c, 0, 57, 28
1, 336738, Control_c, 0, 67, 118
1, 336741, Note_on_c, 0, 61, 34
1, 336774, Control_c, 0, 67, 123
1, 336775, Note_on_c, 0, 57, 0
1, 336785, Note_on_c, 0, 61, 0
1, 337058, Note_on_c, 0, 72, 54
1, 337067, Note_on_c, 0, 48, 42
1, 337146, Note_on_c, 0, 48, 0
1, 337146, Poly_aftertouch_c, 0, 48, 0
1, 337166, Note_on_c, 0, 69, 58
1, 337166, Control_c, 0, 64, 107
1, 337182, Note_on_c, 0, 72, 0
1, 337185, Control_c, 0, 64, 78
1, 337203, Note_on_c, 0, 41, 47
1, 337204, Control_c, 0, 64, 58
1, 337242, Control_c, 0, 64, 65
1, 337261, Control_c, 0, 64, 72
1, 337262, Control_c, 0, 67, 119
1, 337279, Control_c, 0, 64, 79
1, 337280, Note_on_c, 0, 41, 0
1, 337280, Poly_aftertouch_c, 0, 41, 0
1, 337298, Control_c, 0, 64, 88
1, 337319, Control_c, 0, 64, 100
1, 337336, Control_c, 0, 64, 112
1, 337352, Note_on_c, 0, 69, 0
1, 337352, Poly_aftertouch_c, 0, 69, 0
1, 337353, Control_c, 0, 64, 124
1, 337373, Control_c, 0, 67, 115
1, 337456, Note_on_c, 0, 49, 44
1, 337466, Control_c, 0, 67, 110
1, 337474, Note_on_c, 0, 65, 21
1, 337497, Note_on_c, 0, 49, 0
1, 337533, Note_on_c, 0, 65, 0
1, 337598, Control_c, 0, 67, 114
1, 337604, Note_on_c, 0, 61, 39
1, 337611, Note_on_c, 0, 57, 22
1, 337647, Note_on_c, 0, 61, 0
1, 337666, Note_on_c, 0, 57, 0
1, 337889, Note_on_c, 0, 72, 55
1, 337901, Note_on_c, 0, 48, 40
1, 337972, Note_on_c, 0, 48, 0
1, 337972, Poly_aftertouch_c, 0, 48, 0
1, 337988, Note_on_c, 0, 68, 61
1, 337989, Control_c, 0, 64, 109
1, 338001, Note_on_c, 0, 72, 0
1, 338009, Control_c, 0, 64, 81
1, 338016, Note_on_c, 0, 42, 47
1, 338027, Control_c, 0, 64, 49
1, 338046, Control_c, 0, 64, 20
1, 338064, Control_c, 0, 64, 30
1, 338083, Control_c, 0, 64, 44
1, 338102, Control_c, 0, 64, 59
1, 338121, Control_c, 0, 64, 73
1, 338140, Control_c, 0, 64, 83
1, 338141, Control_c, 0, 67, 110
1, 338149, Note_on_c, 0, 42, 0
1, 338159, Control_c, 0, 64, 94
1, 338177, Control_c, 0, 64, 107
1, 338184, Note_on_c, 0, 68, 0
1, 338196, Control_c, 0, 64, 117
1, 338214, Control_c, 0, 64, 126
1, 338250, Note_on_c, 0, 49, 49
1, 338250, Control_c, 0, 67, 106
1, 338258, Note_on_c, 0, 64, 56
1, 338290, Note_on_c, 0, 49, 0
1, 338301, Note_on_c, 0, 64, 0
1, 338362, Control_c, 0, 67, 110
1, 338366, Note_on_c, 0, 58, 63
1, 338406, Note_on_c, 0, 58, 0
1, 338438, Control_c, 0, 67, 114
1, 338468, Poly_aftertouch_c, 0, 61, 127
1, 338507, Poly_aftertouch_c, 0, 61, 0
1, 338659, Note_on_c, 0, 72, 66
1, 338690, Note_on_c, 0, 48, 35
1, 338738, Control_c, 0, 64, 109
1, 338746, Note_on_c, 0, 48, 0
1, 338746, Poly_aftertouch_c, 0, 48, 0
1, 338759, Control_c, 0, 64, 77
1, 338761, Control_c, 0, 67, 110
1, 338765, Note_on_c, 0, 69, 65
1, 338771, Note_on_c, 0, 72, 0
1, 338774, Control_c, 0, 64, 49
1, 338784, Note_on_c, 0, 41, 58
1, 338795, Control_c, 0, 64, 44
1, 338813, Control_c, 0, 64, 53
1, 338832, Control_c, 0, 64, 64
1, 338844, Note_on_c, 0, 41, 0
1, 338844, Poly_aftertouch_c, 0, 41, 0
1, 338849, Control_c, 0, 64, 74
1, 338869, Control_c, 0, 64, 82
1, 338888, Control_c, 0, 64, 91
1, 338906, Control_c, 0, 64, 100
1, 338925, Control_c, 0, 64, 107
1, 338944, Control_c, 0, 64, 112
1, 338965, Note_on_c, 0, 69, 0
1, 338965, Poly_aftertouch_c, 0, 69, 0
1, 338981, Control_c, 0, 64, 116
1, 338983, Control_c, 0, 67, 106
1, 339018, Control_c, 0, 64, 122
1, 339036, Note_on_c, 0, 49, 57
1, 339036, Control_c, 0, 64, 126
1, 339046, Note_on_c, 0, 65, 56
1, 339076, Note_on_c, 0, 65, 0
1, 339076, Note_on_c, 0, 49, 0
1, 339156, Note_on_c, 0, 57, 54
1, 339164, Note_on_c, 0, 61, 56
1, 339187, Note_on_c, 0, 57, 0
1, 339196, Note_on_c, 0, 61, 0
1, 339425, Note_on_c, 0, 77, 80
1, 339443, Note_on_c, 0, 48, 55
1, 339484, Note_on_c, 0, 48, 0
1, 339484, Poly_aftertouch_c, 0, 48, 0
1, 339544, Note_on_c, 0, 73, 80
1, 339581, Note_on_c, 0, 39, 63
1, 339598, Control_c, 0, 64, 115
1, 339612, Note_on_c, 0, 77, 0
1, 339617, Control_c, 0, 64, 77
1, 339636, Control_c, 0, 64, 34
1, 339655, Control_c, 0, 64, 0
1, 339673, Control_c, 0, 64, 20
1, 339691, Control_c, 0, 64, 44
1, 339692, Control_c, 0, 67, 110
1, 339710, Control_c, 0, 64, 63
1, 339716, Note_on_c, 0, 73, 0
1, 339730, Control_c, 0, 64, 79
1, 339731, Control_c, 0, 67, 117
1, 339748, Control_c, 0, 64, 89
1, 339749, Control_c, 0, 67, 121
1, 339766, Control_c, 0, 64, 102
1, 339767, Control_c, 0, 67, 126
1, 339776, Note_on_c, 0, 39, 0
1, 339785, Control_c, 0, 64, 114
1, 339803, Control_c, 0, 64, 118
1, 339864, Note_on_c, 0, 66, 61
1, 339886, Note_on_c, 0, 49, 50
1, 339903, Note_on_c, 0, 66, 0
1, 339938, Note_on_c, 0, 49, 0
1, 339991, Control_c, 0, 64, 122
1, 340028, Control_c, 0, 64, 126
1, 340061, Note_on_c, 0, 57, 40
1, 340065, Note_on_c, 0, 61, 53
1, 340094, Note_on_c, 0, 61, 0
1, 340096, Note_on_c, 0, 57, 0
1, 340353, Note_on_c, 0, 72, 67
1, 340384, Control_c, 0, 64, 112
1, 340403, Control_c, 0, 64, 83
1, 340421, Control_c, 0, 64, 56
1, 340439, Control_c, 0, 64, 51
1, 340451, Note_on_c, 0, 69, 64
1, 340451, Note_on_c, 0, 41, 62
1, 340458, Control_c, 0, 64, 57
1, 340462, Poly_aftertouch_c, 0, 48, 0
1, 340468, Note_on_c, 0, 72, 0
1, 340477, Control_c, 0, 64, 69
1, 340495, Control_c, 0, 64, 81
1, 340499, Poly_aftertouch_c, 0, 47, 0
1, 340502, Note_on_c, 0, 41, 0
1, 340502, Poly_aftertouch_c, 0, 41, 0
1, 340514, Control_c, 0, 64, 94
1, 340516, Control_c, 0, 67, 121
1, 340534, Control_c, 0, 64, 110
1, 340553, Control_c, 0, 64, 123
1, 340570, Control_c, 0, 64, 127
1, 340571, Control_c, 0, 67, 117
1, 340656, Note_on_c, 0, 69, 0
1, 340656, Poly_aftertouch_c, 0, 69, 0
1, 340712, Note_on_c, 0, 49, 54
1, 340724, Note_on_c, 0, 65, 47
1, 340750, Note_on_c, 0, 49, 0
1, 340756, Control_c, 0, 67, 122
1, 340758, Note_on_c, 0, 65, 0
1, 340796, Control_c, 0, 67, 127
1, 340817, Note_on_c, 0, 57, 54
1, 340832, Note_on_c, 0, 61, 51
1, 340846, Note_on_c, 0, 57, 0
1, 340867, Note_on_c, 0, 61, 0
1, 340920, Poly_aftertouch_c, 0, 69, 0
1, 341089, Note_on_c, 0, 72, 58
1, 341117, Note_on_c, 0, 48, 40
1, 341132, Control_c, 0, 64, 120
1, 341150, Control_c, 0, 64, 108
1, 341166, Note_on_c, 0, 48, 0
1, 341168, Control_c, 0, 64, 81
1, 341187, Control_c, 0, 64, 51
1, 341205, Control_c, 0, 64, 38
1, 341207, Note_on_c, 0, 42, 43
1, 341213, Note_on_c, 0, 72, 0
1, 341218, Note_on_c, 0, 68, 58
1, 341224, Control_c, 0, 64, 45
1, 341243, Control_c, 0, 64, 59
1, 341263, Control_c, 0, 64, 73
1, 341264, Control_c, 0, 67, 123
1, 341281, Control_c, 0, 64, 83
1, 341300, Control_c, 0, 64, 93
1, 341318, Control_c, 0, 64, 104
1, 341337, Control_c, 0, 64, 113
1, 341356, Control_c, 0, 64, 119
1, 341374, Control_c, 0, 64, 124
1, 341378, Note_on_c, 0, 42, 0
1, 341419, Note_on_c, 0, 68, 0
1, 341453, Note_on_c, 0, 49, 41
1, 341474, Note_on_c, 0, 64, 47
1, 341487, Control_c, 0, 67, 127
1, 341492, Note_on_c, 0, 49, 0
1, 341516, Note_on_c, 0, 64, 0
1, 341580, Note_on_c, 0, 58, 54
1, 341583, Note_on_c, 0, 61, 47
1, 341610, Note_on_c, 0, 58, 0
1, 341617, Note_on_c, 0, 61, 0
1, 341855, Note_on_c, 0, 72, 58
1, 341876, Note_on_c, 0, 48, 38
1, 341898, Control_c, 0, 64, 112
1, 341916, Control_c, 0, 64, 81
1, 341937, Control_c, 0, 64, 50
1, 341942, Note_on_c, 0, 48, 0
1, 341954, Control_c, 0, 64, 41
1, 341973, Control_c, 0, 64, 47
1, 341982, Note_on_c, 0, 69, 49
1, 341984, Note_on_c, 0, 72, 0
1, 341988, Note_on_c, 0, 41, 53
1, 341992, Control_c, 0, 64, 61
1, 342011, Control_c, 0, 64, 76
1, 342030, Control_c, 0, 64, 87
1, 342047, Control_c, 0, 64, 102
1, 342056, Note_on_c, 0, 41, 0
1, 342056, Poly_aftertouch_c, 0, 41, 0
1, 342065, Control_c, 0, 64, 119
1, 342085, Control_c, 0, 64, 127
1, 342104, Control_c, 0, 67, 123
1, 342177, Control_c, 0, 67, 119
1, 342195, Note_on_c, 0, 69, 0
1, 342253, Control_c, 0, 67, 114
1, 342268, Note_on_c, 0, 49, 45
1, 342275, Note_on_c, 0, 65, 47
1, 342311, Note_on_c, 0, 49, 0
1, 342312, Note_on_c, 0, 65, 0
1, 342346, Control_c, 0, 67, 110
1, 342459, Control_c, 0, 67, 106
1, 342484, Note_on_c, 0, 57, 47
1, 342491, Note_on_c, 0, 61, 27
1, 342515, Control_c, 0, 67, 102
1, 342517, Note_on_c, 0, 57, 0
1, 342547, Note_on_c, 0, 61, 0
1, 342571, Control_c, 0, 67, 98
1, 342627, Control_c, 0, 67, 94
1, 342702, Control_c, 0, 67, 90
1, 342784, Note_on_c, 0, 70, 54
1, 342800, Note_on_c, 0, 48, 47
1, 342813, Control_c, 0, 67, 85
1, 342840, Note_on_c, 0, 48, 0
1, 342908, Control_c, 0, 67, 81
1, 342982, Control_c, 0, 67, 76
1, 343000, Control_c, 0, 64, 123
1, 343020, Control_c, 0, 64, 118
1, 343030, Note_on_c, 0, 73, 56
1, 343039, Control_c, 0, 64, 112
1, 343040, Note_on_c, 0, 39, 47
1, 343044, Note_on_c, 0, 70, 0
1, 343057, Control_c, 0, 64, 97
1, 343077, Control_c, 0, 64, 67
1, 343079, Control_c, 0, 67, 72
1, 343094, Control_c, 0, 64, 0
1, 343113, Control_c, 0, 64, 22
1, 343134, Control_c, 0, 64, 60
1, 343151, Control_c, 0, 64, 86
1, 343170, Control_c, 0, 64, 105
1, 343172, Control_c, 0, 67, 68
1, 343187, Control_c, 0, 64, 127
1, 343233, Note_on_c, 0, 39, 0
1, 343264, Note_on_c, 0, 66, 40
1, 343339, Note_on_c, 0, 49, 45
1, 343341, Note_on_c, 0, 73, 0
1, 343380, Note_on_c, 0, 65, 33
1, 343398, Note_on_c, 0, 49, 0
1, 343404, Note_on_c, 0, 66, 0
1, 343431, Note_on_c, 0, 65, 0
1, 343447, Note_on_c, 0, 64, 58
1, 343480, Note_on_c, 0, 58, 42
1, 343513, Note_on_c, 0, 64, 0
1, 343520, Note_on_c, 0, 58, 0
1, 343534, Note_on_c, 0, 63, 64
1, 343562, Control_c, 0, 67, 64
1, 343584, Note_on_c, 0, 48, 53
1, 343599, Control_c, 0, 67, 60
1, 343628, Note_on_c, 0, 63, 0
1, 343628, Poly_aftertouch_c, 0, 63, 0
1, 343638, Note_on_c, 0, 69, 61
1, 343638, Control_c, 0, 64, 109
1, 343638, Control_c, 0, 67, 56
1, 343650, Note_on_c, 0, 48, 0
1, 343654, Control_c, 0, 64, 77
1, 343675, Control_c, 0, 64, 35
1, 343692, Control_c, 0, 64, 28
1, 343711, Note_on_c, 0, 69, 0
1, 343713, Note_on_c, 0, 72, 64
1, 343713, Control_c, 0, 64, 61
1, 343713, Control_c, 0, 67, 51
1, 343723, Note_on_c, 0, 41, 61
1, 343731, Control_c, 0, 64, 82
1, 343749, Control_c, 0, 64, 94
1, 343750, Note_on_c, 0, 72, 0
1, 343768, Control_c, 0, 64, 110
1, 343786, Control_c, 0, 64, 123
1, 343806, Control_c, 0, 64, 127
1, 343823, Control_c, 0, 67, 47
1, 343835, Note_on_c, 0, 41, 0
1, 343835, Poly_aftertouch_c, 0, 41, 0
1, 343845, Note_on_c, 0, 57, 53
1, 343886, Note_on_c, 0, 57, 0
1, 343891, Note_on_c, 0, 49, 51
1, 343930, Note_on_c, 0, 63, 56
1, 343935, Control_c, 0, 67, 43
1, 343936, Note_on_c, 0, 49, 0
1, 343979, Note_on_c, 0, 63, 0
1, 343979, Poly_aftertouch_c, 0, 63, 0
1, 344006, Note_on_c, 0, 57, 57
1, 344014, Note_on_c, 0, 66, 55
1, 344044, Note_on_c, 0, 66, 0
1, 344046, Note_on_c, 0, 57, 0
1, 344066, Control_c, 0, 67, 37
1, 344102, Note_on_c, 0, 69, 73
1, 344133, Note_on_c, 0, 69, 0
1, 344137, Note_on_c, 0, 51, 56
1, 344184, Note_on_c, 0, 73, 80
1, 344186, Note_on_c, 0, 51, 0
1, 344254, Control_c, 0, 64, 119
1, 344273, Control_c, 0, 64, 83
1, 344294, Control_c, 0, 64, 39
1, 344305, Note_on_c, 0, 43, 51
1, 344305, Note_on_c, 0, 77, 79
1, 344312, Control_c, 0, 64, 22
1, 344313, Note_on_c, 0, 73, 0
1, 344328, Control_c, 0, 64, 53
1, 344348, Control_c, 0, 64, 73
1, 344364, Note_on_c, 0, 43, 0
1, 344366, Control_c, 0, 64, 86
1, 344385, Control_c, 0, 64, 103
1, 344403, Control_c, 0, 64, 122
1, 344422, Control_c, 0, 64, 127
1, 344435, Note_on_c, 0, 77, 0
1, 344466, Note_on_c, 0, 72, 61
1, 344489, Note_on_c, 0, 53, 51
1, 344506, Note_on_c, 0, 72, 0
1, 344513, Control_c, 0, 67, 33
1, 344547, Note_on_c, 0, 71, 64
1, 344552, Note_on_c, 0, 53, 0
1, 344608, Note_on_c, 0, 71, 0
1, 344608, Note_on_c, 0, 61, 63
1, 344614, Note_on_c, 0, 70, 81
1, 344644, Note_on_c, 0, 61, 0
1, 344700, Note_on_c, 0, 70, 0
1, 344703, Note_on_c, 0, 65, 73
1, 344711, Note_on_c, 0, 51, 66
1, 344757, Note_on_c, 0, 72, 79
1, 344782, Note_on_c, 0, 65, 0
1, 344815, Control_c, 0, 64, 84
1, 344831, Note_on_c, 0, 51, 0
1, 344834, Control_c, 0, 64, 30
1, 344839, Note_on_c, 0, 44, 66
1, 344857, Note_on_c, 0, 75, 86
1, 344868, Note_on_c, 0, 72, 0
1, 344870, Control_c, 0, 64, 54
1, 344871, Control_c, 0, 67, 37
1, 344890, Control_c, 0, 64, 79
1, 344909, Control_c, 0, 64, 94
1, 344912, Note_on_c, 0, 75, 0
1, 344924, Note_on_c, 0, 44, 0
1, 344924, Poly_aftertouch_c, 0, 44, 0
1, 344927, Control_c, 0, 64, 116
1, 344946, Control_c, 0, 64, 127
1, 344969, Note_on_c, 0, 60, 66
1, 345000, Note_on_c, 0, 53, 60
1, 345029, Note_on_c, 0, 60, 0
1, 345051, Note_on_c, 0, 53, 0
1, 345053, Note_on_c, 0, 66, 66
1, 345116, Note_on_c, 0, 66, 0
1, 345131, Note_on_c, 0, 60, 58
1, 345146, Note_on_c, 0, 70, 66
1, 345156, Note_on_c, 0, 60, 0
1, 345181, Note_on_c, 0, 70, 0
1, 345248, Note_on_c, 0, 72, 75
1, 345253, Note_on_c, 0, 54, 57
1, 345279, Note_on_c, 0, 72, 0
1, 345319, Note_on_c, 0, 77, 78
1, 345338, Control_c, 0, 64, 105
1, 345343, Note_on_c, 0, 54, 0
1, 345343, Poly_aftertouch_c, 0, 54, 0
1, 345358, Control_c, 0, 64, 62
1, 345377, Control_c, 0, 64, 0
1, 345385, Note_on_c, 0, 46, 62
1, 345395, Note_on_c, 0, 77, 0
1, 345404, Note_on_c, 0, 80, 86
1, 345411, Control_c, 0, 67, 42
1, 345432, Control_c, 0, 64, 44
1, 345437, Note_on_c, 0, 46, 0
1, 345437, Poly_aftertouch_c, 0, 46, 0
1, 345451, Control_c, 0, 64, 70
1, 345452, Control_c, 0, 67, 48
1, 345469, Control_c, 0, 64, 89
1, 345471, Control_c, 0, 67, 53
1, 345489, Control_c, 0, 64, 107
1, 345490, Control_c, 0, 67, 57
1, 345507, Control_c, 0, 64, 120
1, 345508, Control_c, 0, 67, 62
1, 345526, Control_c, 0, 64, 127
1, 345526, Control_c, 0, 67, 66
1, 345541, Note_on_c, 0, 80, 0
1, 345541, Poly_aftertouch_c, 0, 80, 0
1, 345553, Note_on_c, 0, 76, 45
1, 345559, Note_on_c, 0, 56, 54
1, 345563, Control_c, 0, 67, 73
1, 345576, Note_on_c, 0, 77, 30
1, 345581, Control_c, 0, 67, 77
1, 345606, Note_on_c, 0, 56, 0
1, 345612, Note_on_c, 0, 76, 0
1, 345614, Note_on_c, 0, 75, 70
1, 345618, Control_c, 0, 67, 83
1, 345621, Note_on_c, 0, 77, 0
1, 345657, Control_c, 0, 67, 89
1, 345668, Note_on_c, 0, 75, 0
1, 345680, Note_on_c, 0, 73, 68
1, 345693, Control_c, 0, 67, 96
1, 345699, Note_on_c, 0, 65, 53
1, 345731, Control_c, 0, 67, 103
1, 345733, Note_on_c, 0, 65, 0
1, 345737, Note_on_c, 0, 73, 0
1, 345763, Note_on_c, 0, 68, 63
1, 345768, Control_c, 0, 67, 108
1, 345833, Note_on_c, 0, 75, 68
1, 345833, Note_on_c, 0, 54, 52
1, 345842, Control_c, 0, 67, 112
1, 345851, Note_on_c, 0, 68, 0
1, 345900, Control_c, 0, 64, 114
1, 345901, Control_c, 0, 67, 116
1, 345906, Note_on_c, 0, 54, 0
1, 345906, Poly_aftertouch_c, 0, 54, 0
1, 345918, Control_c, 0, 64, 80
1, 345921, Note_on_c, 0, 75, 0
1, 345938, Control_c, 0, 64, 40
1, 345941, Note_on_c, 0, 78, 71
1, 345941, Control_c, 0, 67, 120
1, 345955, Control_c, 0, 64, 25
1, 345966, Note_on_c, 0, 48, 53
1, 345975, Control_c, 0, 64, 41
1, 345993, Control_c, 0, 64, 61
1, 345994, Control_c, 0, 67, 125
1, 346001, Note_on_c, 0, 78, 0
1, 346001, Poly_aftertouch_c, 0, 78, 0
1, 346011, Control_c, 0, 64, 79
1, 346031, Control_c, 0, 64, 90
1, 346038, Note_on_c, 0, 48, 0
1, 346050, Control_c, 0, 64, 103
1, 346053, Note_on_c, 0, 63, 62
1, 346069, Control_c, 0, 64, 115
1, 346085, Note_on_c, 0, 63, 0
1, 346085, Poly_aftertouch_c, 0, 63, 0
1, 346085, Control_c, 0, 64, 122
1, 346106, Control_c, 0, 64, 126
1, 346139, Note_on_c, 0, 56, 46
1, 346155, Note_on_c, 0, 70, 61
1, 346183, Note_on_c, 0, 70, 0
1, 346186, Note_on_c, 0, 56, 0
1, 346262, Note_on_c, 0, 72, 65
1, 346271, Note_on_c, 0, 63, 40
1, 346298, Note_on_c, 0, 72, 0
1, 346341, Note_on_c, 0, 63, 0
1, 346341, Poly_aftertouch_c, 0, 63, 0
1, 346357, Note_on_c, 0, 75, 55
1, 346403, Note_on_c, 0, 75, 0
1, 346421, Note_on_c, 0, 58, 45
1, 346423, Note_on_c, 0, 78, 69
1, 346478, Control_c, 0, 64, 117
1, 346488, Note_on_c, 0, 78, 0
1, 346488, Poly_aftertouch_c, 0, 78, 0
1, 346490, Note_on_c, 0, 58, 0
1, 346496, Control_c, 0, 64, 93
1, 346517, Control_c, 0, 64, 63
1, 346529, Note_on_c, 0, 82, 69
1, 346535, Control_c, 0, 64, 49
1, 346543, Note_on_c, 0, 50, 48
1, 346553, Control_c, 0, 64, 54
1, 346573, Control_c, 0, 64, 66
1, 346582, Note_on_c, 0, 50, 0
1, 346591, Control_c, 0, 64, 79
1, 346609, Control_c, 0, 64, 90
1, 346618, Note_on_c, 0, 70, 53
1, 346628, Control_c, 0, 64, 103
1, 346648, Control_c, 0, 64, 114
1, 346667, Control_c, 0, 64, 119
1, 346674, Note_on_c, 0, 70, 0
1, 346695, Note_on_c, 0, 58, 44
1, 346726, Note_on_c, 0, 78, 63
1, 346740, Control_c, 0, 64, 123
1, 346752, Note_on_c, 0, 58, 0
1, 346768, Note_on_c, 0, 78, 0
1, 346768, Poly_aftertouch_c, 0, 78, 0
1, 346847, Note_on_c, 0, 68, 48
1, 346883, Note_on_c, 0, 68, 0
1, 346928, Note_on_c, 0, 77, 60
1, 346929, Note_on_c, 0, 82, 0
1, 346965, Note_on_c, 0, 59, 46
1, 347014, Note_on_c, 0, 77, 0
1, 347025, Note_on_c, 0, 68, 46
1, 347029, Note_on_c, 0, 59, 0
1, 347115, Control_c, 0, 64, 116
1, 347134, Control_c, 0, 64, 102
1, 347141, Note_on_c, 0, 68, 0
1, 347152, Control_c, 0, 64, 73
1, 347160, Note_on_c, 0, 51, 47
1, 347164, Note_on_c, 0, 80, 59
1, 347171, Control_c, 0, 64, 44
1, 347189, Control_c, 0, 64, 34
1, 347208, Control_c, 0, 64, 41
1, 347226, Control_c, 0, 64, 56
1, 347246, Control_c, 0, 64, 70
1, 347265, Control_c, 0, 64, 79
1, 347282, Control_c, 0, 64, 87
1, 347290, Note_on_c, 0, 68, 46
1, 347302, Control_c, 0, 64, 96
1, 347321, Control_c, 0, 64, 103
1, 347339, Control_c, 0, 64, 107
1, 347350, Note_on_c, 0, 51, 0
1, 347369, Note_on_c, 0, 68, 0
1, 347395, Control_c, 0, 64, 112
1, 347398, Note_on_c, 0, 60, 39
1, 347413, Note_on_c, 0, 77, 51
1, 347433, Control_c, 0, 64, 116
1, 347450, Note_on_c, 0, 77, 0
1, 347456, Note_on_c, 0, 60, 0
1, 347470, Control_c, 0, 64, 122
1, 347507, Control_c, 0, 64, 126
1, 347662, Note_on_c, 0, 70, 50
1, 347692, Note_on_c, 0, 70, 0
1, 347846, Poly_aftertouch_c, 0, 80, 24
1, 347868, Note_on_c, 0, 75, 53
1, 347887, Note_on_c, 0, 80, 0
1, 347887, Poly_aftertouch_c, 0, 80, 0
1, 347939, Note_on_c, 0, 61, 32
1, 348010, Note_on_c, 0, 61, 0
1, 348224, Note_on_c, 0, 66, 34
1, 348407, Note_on_c, 0, 66, 0
1, 348455, Poly_aftertouch_c, 0, 75, 24
1, 348558, Note_on_c, 0, 75, 0
1, 348558, Poly_aftertouch_c, 0, 75, 0
1, 348583, Note_on_c, 0, 41, 40
1, 348667, Control_c, 0, 64, 119
1, 348685, Control_c, 0, 64, 109
1, 348704, Control_c, 0, 64, 85
1, 348723, Control_c, 0, 64, 62
1, 348736, Note_on_c, 0, 78, 66
1, 348741, Control_c, 0, 64, 57
1, 348760, Control_c, 0, 64, 62
1, 348778, Control_c, 0, 64, 69
1, 348798, Control_c, 0, 64, 77
1, 348817, Control_c, 0, 64, 84
1, 348828, Note_on_c, 0, 41, 0
1, 348828, Poly_aftertouch_c, 0, 41, 0
1, 348833, Control_c, 0, 64, 93
1, 348854, Control_c, 0, 64, 103
1, 348873, Control_c, 0, 64, 112
1, 348892, Control_c, 0, 64, 117
1, 348929, Control_c, 0, 64, 122
1, 348985, Control_c, 0, 64, 126
1, 349046, Note_on_c, 0, 57, 37
1, 349091, Note_on_c, 0, 57, 0
1, 349228, Note_on_c, 0, 66, 30
1, 349295, Note_on_c, 0, 66, 0
1, 349474, Note_on_c, 0, 63, 25
1, 349490, Note_on_c, 0, 75, 36
1, 349548, Note_on_c, 0, 75, 0
1, 349548, Poly_aftertouch_c, 0, 75, 0
1, 349635, Note_on_c, 0, 63, 0
1, 349635, Poly_aftertouch_c, 0, 63, 0
1, 349685, Note_on_c, 0, 66, 36
1, 349687, Note_on_c, 0, 78, 0
1, 349687, Poly_aftertouch_c, 0, 78, 0
1, 349759, Note_on_c, 0, 66, 0
1, 349788, Note_on_c, 0, 73, 59
1, 349809, Note_on_c, 0, 68, 35
1, 349868, Note_on_c, 0, 68, 0
1, 349885, Note_on_c, 0, 73, 0
1, 349910, Note_on_c, 0, 77, 73
1, 349941, Note_on_c, 0, 69, 53
1, 349965, Note_on_c, 0, 69, 0
1, 350041, Note_on_c, 0, 73, 67
1, 350050, Control_c, 0, 64, 117
1, 350069, Control_c, 0, 64, 93
1, 350088, Control_c, 0, 64, 57
1, 350107, Control_c, 0, 64, 0
1, 350127, Note_on_c, 0, 73, 0
1, 350145, Control_c, 0, 64, 22
1, 350163, Control_c, 0, 64, 44
1, 350181, Control_c, 0, 64, 62
1, 350192, Note_on_c, 0, 65, 44
1, 350192, Note_on_c, 0, 56, 54
1, 350200, Control_c, 0, 64, 79
1, 350219, Control_c, 0, 64, 91
1, 350237, Control_c, 0, 64, 105
1, 350242, Note_on_c, 0, 65, 0
1, 350256, Control_c, 0, 64, 113
1, 350293, Control_c, 0, 64, 118
1, 350300, Note_on_c, 0, 73, 59
1, 350307, Note_on_c, 0, 56, 0
1, 350342, Note_on_c, 0, 73, 0
1, 350343, Note_on_c, 0, 61, 46
1, 350356, Poly_aftertouch_c, 0, 77, 24
1, 350392, Note_on_c, 0, 61, 0
1, 350457, Note_on_c, 0, 65, 48
1, 350520, Note_on_c, 0, 77, 0
1, 350520, Poly_aftertouch_c, 0, 77, 0
1, 350527, Note_on_c, 0, 65, 0
1, 350550, Note_on_c, 0, 72, 64
1, 350574, Note_on_c, 0, 66, 47
1, 350621, Note_on_c, 0, 66, 0
1, 350653, Note_on_c, 0, 72, 0
1, 350660, Note_on_c, 0, 75, 77
1, 350684, Note_on_c, 0, 68, 58
1, 350713, Note_on_c, 0, 68, 0
1, 350724, Control_c, 0, 64, 100
1, 350742, Control_c, 0, 64, 70
1, 350762, Control_c, 0, 64, 20
1, 350779, Control_c, 0, 64, 0
1, 350789, Note_on_c, 0, 72, 70
1, 350835, Control_c, 0, 64, 23
1, 350854, Control_c, 0, 64, 50
1, 350873, Control_c, 0, 64, 72
1, 350879, Note_on_c, 0, 72, 0
1, 350893, Control_c, 0, 64, 85
1, 350909, Control_c, 0, 64, 97
1, 350918, Note_on_c, 0, 63, 49
1, 350929, Control_c, 0, 64, 107
1, 350943, Note_on_c, 0, 55, 45
1, 350948, Control_c, 0, 64, 113
1, 350967, Control_c, 0, 64, 117
1, 350987, Note_on_c, 0, 63, 0
1, 350987, Poly_aftertouch_c, 0, 63, 0
1, 351027, Note_on_c, 0, 72, 45
1, 351042, Control_c, 0, 64, 121
1, 351057, Note_on_c, 0, 72, 0
1, 351066, Note_on_c, 0, 60, 56
1, 351152, Note_on_c, 0, 60, 0
1, 351162, Note_on_c, 0, 63, 48
1, 351171, Note_on_c, 0, 55, 0
1, 351207, Note_on_c, 0, 63, 0
1, 351207, Poly_aftertouch_c, 0, 63, 0
1, 351250, Note_on_c, 0, 75, 0
1, 351250, Note_on_c, 0, 64, 54
1, 351250, Poly_aftertouch_c, 0, 75, 0
1, 351264, Note_on_c, 0, 70, 65
1, 351302, Note_on_c, 0, 64, 0
1, 351322, Control_c, 0, 64, 116
1, 351330, Note_on_c, 0, 70, 0
1, 351341, Control_c, 0, 64, 112
1, 351360, Control_c, 0, 64, 99
1, 351372, Note_on_c, 0, 73, 75
1, 351378, Control_c, 0, 64, 76
1, 351382, Note_on_c, 0, 65, 56
1, 351397, Control_c, 0, 64, 38
1, 351411, Note_on_c, 0, 65, 0
1, 351414, Control_c, 0, 64, 0
1, 351491, Control_c, 0, 64, 17
1, 351499, Note_on_c, 0, 70, 70
1, 351509, Control_c, 0, 64, 44
1, 351527, Control_c, 0, 64, 64
1, 351547, Control_c, 0, 64, 77
1, 351565, Control_c, 0, 64, 83
1, 351584, Control_c, 0, 64, 90
1, 351588, Note_on_c, 0, 70, 0
1, 351603, Control_c, 0, 64, 99
1, 351619, Note_on_c, 0, 61, 54
1, 351621, Control_c, 0, 64, 109
1, 351633, Note_on_c, 0, 54, 49
1, 351640, Control_c, 0, 64, 117
1, 351659, Control_c, 0, 64, 122
1, 351668, Note_on_c, 0, 61, 0
1, 351714, Control_c, 0, 64, 127
1, 351748, Note_on_c, 0, 70, 56
1, 351766, Note_on_c, 0, 58, 46
1, 351789, Note_on_c, 0, 70, 0
1, 351839, Note_on_c, 0, 58, 0
1, 351885, Note_on_c, 0, 73, 0
1, 351886, Poly_aftertouch_c, 0, 73, 0
1, 351887, Note_on_c, 0, 61, 47
1, 351939, Note_on_c, 0, 61, 0
1, 351985, Note_on_c, 0, 63, 51
1, 351997, Note_on_c, 0, 69, 65
1, 352003, Poly_aftertouch_c, 0, 54, 24
1, 352033, Control_c, 0, 64, 122
1, 352040, Note_on_c, 0, 63, 0
1, 352040, Poly_aftertouch_c, 0, 63, 0
1, 352050, Control_c, 0, 64, 115
1, 352070, Control_c, 0, 64, 98
1, 352072, Note_on_c, 0, 69, 0
1, 352074, Note_on_c, 0, 54, 0
1, 352074, Poly_aftertouch_c, 0, 54, 0
1, 352075, Poly_aftertouch_c, 0, 54, 0
1, 352089, Control_c, 0, 64, 68
1, 352103, Note_on_c, 0, 72, 60
1, 352108, Control_c, 0, 64, 0
1, 352122, Note_on_c, 0, 64, 52
1, 352168, Note_on_c, 0, 64, 0
1, 352182, Control_c, 0, 64, 24
1, 352200, Control_c, 0, 64, 51
1, 352220, Control_c, 0, 64, 71
1, 352229, Note_on_c, 0, 69, 58
1, 352239, Control_c, 0, 64, 82
1, 352257, Control_c, 0, 64, 89
1, 352276, Control_c, 0, 64, 95
1, 352295, Control_c, 0, 64, 100
1, 352313, Control_c, 0, 64, 105
1, 352325, Note_on_c, 0, 69, 0
1, 352352, Control_c, 0, 64, 109
1, 352376, Note_on_c, 0, 60, 37
1, 352403, Note_on_c, 0, 53, 30
1, 352406, Control_c, 0, 64, 116
1, 352444, Control_c, 0, 64, 122
1, 352448, Note_on_c, 0, 60, 0
1, 352491, Note_on_c, 0, 53, 0
1, 352495, Poly_aftertouch_c, 0, 72, 24
1, 352512, Note_on_c, 0, 69, 48
1, 352536, Note_on_c, 0, 57, 39
1, 352537, Control_c, 0, 64, 126
1, 352588, Note_on_c, 0, 72, 0
1, 352588, Poly_aftertouch_c, 0, 72, 0
1, 352589, Poly_aftertouch_c, 0, 72, 0
1, 352590, Note_on_c, 0, 69, 0
1, 352630, Note_on_c, 0, 57, 0
1, 352660, Note_on_c, 0, 61, 55
1, 352706, Note_on_c, 0, 61, 0
1, 352762, Note_on_c, 0, 62, 48
1, 352825, Note_on_c, 0, 62, 0
1, 352825, Poly_aftertouch_c, 0, 62, 0
1, 352869, Note_on_c, 0, 71, 62
1, 352893, Control_c, 0, 64, 120
1, 352903, Note_on_c, 0, 63, 46
1, 352912, Control_c, 0, 64, 112
1, 352929, Control_c, 0, 64, 90
1, 352938, Note_on_c, 0, 63, 0
1, 352938, Poly_aftertouch_c, 0, 63, 0
1, 352949, Control_c, 0, 64, 57
1, 352968, Control_c, 0, 64, 0
1, 353042, Control_c, 0, 64, 38
1, 353058, Note_on_c, 0, 68, 57
1, 353060, Control_c, 0, 64, 61
1, 353079, Control_c, 0, 64, 76
1, 353099, Control_c, 0, 64, 85
1, 353117, Control_c, 0, 64, 94
1, 353135, Control_c, 0, 64, 101
1, 353155, Control_c, 0, 64, 106
1, 353189, Note_on_c, 0, 68, 0
1, 353191, Note_on_c, 0, 41, 47
1, 353225, Note_on_c, 0, 59, 42
1, 353230, Control_c, 0, 64, 112
1, 353267, Control_c, 0, 64, 117
1, 353273, Note_on_c, 0, 59, 0
1, 353319, Note_on_c, 0, 41, 0
1, 353319, Poly_aftertouch_c, 0, 41, 0
1, 353341, Control_c, 0, 64, 122
1, 353354, Poly_aftertouch_c, 0, 71, 24
1, 353366, Note_on_c, 0, 68, 49
1, 353394, Note_on_c, 0, 49, 40
1, 353398, Note_on_c, 0, 71, 0
1, 353398, Poly_aftertouch_c, 0, 71, 0
1, 353434, Note_on_c, 0, 49, 0
1, 353526, Note_on_c, 0, 68, 0
1, 353545, Note_on_c, 0, 59, 52
1, 353578, Note_on_c, 0, 59, 0
1, 353698, Note_on_c, 0, 60, 42
1, 353742, Note_on_c, 0, 60, 0
1, 353790, Control_c, 0, 64, 118
1, 353848, Control_c, 0, 64, 113
1, 353863, Note_on_c, 0, 61, 47
1, 353865, Note_on_c, 0, 70, 55
1, 353866, Control_c, 0, 64, 108
1, 353884, Control_c, 0, 64, 93
1, 353903, Control_c, 0, 64, 67
1, 353921, Control_c, 0, 64, 46
1, 353924, Note_on_c, 0, 61, 0
1, 353958, Control_c, 0, 64, 53
1, 353978, Control_c, 0, 64, 62
1, 353995, Control_c, 0, 64, 69
1, 354015, Control_c, 0, 64, 74
1, 354034, Control_c, 0, 64, 79
1, 354053, Control_c, 0, 64, 82
1, 354070, Control_c, 0, 64, 86
1, 354086, Note_on_c, 0, 66, 46
1, 354109, Control_c, 0, 64, 92
1, 354147, Control_c, 0, 64, 100
1, 354164, Note_on_c, 0, 66, 0
1, 354201, Control_c, 0, 64, 104
1, 354243, Poly_aftertouch_c, 0, 66, 0
1, 354285, Note_on_c, 0, 61, 38
1, 354287, Note_on_c, 0, 58, 39
1, 354328, Note_on_c, 0, 58, 0
1, 354341, Note_on_c, 0, 61, 0
1, 354351, Note_on_c, 0, 70, 0
1, 354478, Note_on_c, 0, 66, 38
1, 354570, Note_on_c, 0, 66, 0
1, 354678, Note_on_c, 0, 69, 34
1, 354829, Note_on_c, 0, 69, 0
1, 354856, Control_c, 0, 64, 100
1, 354864, Note_on_c, 0, 70, 42
1, 355062, Control_c, 0, 64, 94
1, 355083, Note_on_c, 0, 70, 0
1, 355101, Control_c, 0, 64, 90
1, 355127, Note_on_c, 0, 68, 41
1, 355127, Note_on_c, 0, 71, 30
1, 355136, Control_c, 0, 64, 83
1, 355156, Control_c, 0, 64, 71
1, 355174, Control_c, 0, 64, 57
1, 355193, Control_c, 0, 64, 54
1, 355211, Control_c, 0, 64, 58
1, 355230, Control_c, 0, 64, 65
1, 355248, Control_c, 0, 64, 71
1, 355267, Control_c, 0, 64, 75
1, 355285, Control_c, 0, 64, 78
1, 355305, Control_c, 0, 64, 82
1, 355324, Control_c, 0, 64, 85
1, 355325, Note_on_c, 0, 71, 0
1, 355325, Poly_aftertouch_c, 0, 71, 0
1, 355361, Control_c, 0, 64, 90
1, 355387, Note_on_c, 0, 65, 40
1, 355396, Control_c, 0, 64, 95
1, 355436, Control_c, 0, 64, 102
1, 355697, Poly_aftertouch_c, 0, 65, 20
1, 355704, Note_on_c, 0, 65, 0
1, 355704, Poly_aftertouch_c, 0, 65, 0
1, 355709, Note_on_c, 0, 56, 31
1, 355719, Note_on_c, 0, 70, 28
1, 355753, Control_c, 0, 64, 93
1, 355772, Control_c, 0, 64, 75
1, 355783, Poly_aftertouch_c, 0, 68, 24
1, 355790, Control_c, 0, 64, 54
1, 355810, Control_c, 0, 64, 50
1, 355828, Control_c, 0, 64, 57
1, 355830, Note_on_c, 0, 68, 0
1, 355830, Poly_aftertouch_c, 0, 68, 0
1, 355847, Control_c, 0, 64, 69
1, 355866, Control_c, 0, 64, 79
1, 355884, Control_c, 0, 64, 87
1, 355904, Control_c, 0, 64, 95
1, 355922, Control_c, 0, 64, 102
1, 355940, Control_c, 0, 64, 106
1, 355997, Control_c, 0, 64, 112
1, 356054, Note_on_c, 0, 74, 43
1, 356071, Control_c, 0, 64, 107
1, 356091, Control_c, 0, 64, 98
1, 356109, Control_c, 0, 64, 90
1, 356165, Control_c, 0, 64, 94
1, 356203, Control_c, 0, 64, 98
1, 356235, Note_on_c, 0, 70, 0
1, 356238, Control_c, 0, 64, 104
1, 356277, Control_c, 0, 64, 109
1, 356315, Control_c, 0, 64, 116
1, 356391, Note_on_c, 0, 74, 0
1, 356407, Control_c, 0, 64, 120
1, 356409, Note_on_c, 0, 80, 37
1, 356574, Poly_aftertouch_c, 0, 68, 127
1, 356629, Note_on_c, 0, 80, 0
1, 356629, Poly_aftertouch_c, 0, 80, 0
1, 356839, Note_on_c, 0, 81, 43
1, 357002, Note_on_c, 0, 81, 0
1, 357479, Note_on_c, 0, 82, 38
1, 357611, Note_on_c, 0, 82, 0
1, 358003, Poly_aftertouch_c, 0, 56, 24
1, 358095, Note_on_c, 0, 56, 0
1, 358095, Poly_aftertouch_c, 0, 56, 0
1, 358165, Control_c, 0, 67, 121
1, 358222, Control_c, 0, 67, 117
1, 358259, Control_c, 0, 67, 112
1, 358296, Control_c, 0, 67, 107
1, 358334, Control_c, 0, 64, 125
1, 358335, Control_c, 0, 67, 102
1, 358372, Control_c, 0, 67, 98
1, 358387, Poly_aftertouch_c, 0, 68, 0
1, 358409, Control_c, 0, 67, 92
1, 358446, Control_c, 0, 67, 86
1, 358484, Control_c, 0, 67, 81
1, 358521, Control_c, 0, 67, 75
1, 358558, Control_c, 0, 67, 69
1, 358596, Control_c, 0, 67, 64
1, 358632, Control_c, 0, 67, 59
1, 358670, Control_c, 0, 67, 52
1, 358707, Control_c, 0, 67, 48
1, 358745, Control_c, 0, 67, 43
1, 358782, Control_c, 0, 67, 38
1, 358838, Control_c, 0, 67, 33
1, 358914, Control_c, 0, 67, 29
1, 358969, Control_c, 0, 67, 24
1, 359025, Control_c, 0, 67, 18
1, 359083, Control_c, 0, 67, 14
1, 359468, Note_on_c, 0, 70, 65
1, 359488, Note_on_c, 0, 61, 48
1, 359507, Note_on_c, 0, 49, 39
1, 359508, Note_on_c, 0, 42, 36
1, 359642, Control_c, 0, 64, 106
1, 359663, Control_c, 0, 64, 79
1, 359680, Control_c, 0, 64, 42
1, 359698, Control_c, 0, 64, 0
1, 359718, Control_c, 0, 64, 42
1, 359719, Control_c, 0, 67, 19
1, 359736, Control_c, 0, 64, 62
1, 359756, Control_c, 0, 64, 75
1, 359773, Control_c, 0, 64, 81
1, 359793, Control_c, 0, 64, 86
1, 359796, Control_c, 0, 67, 26
1, 359812, Control_c, 0, 64, 93
1, 359814, Control_c, 0, 67, 31
1, 359830, Control_c, 0, 64, 103
1, 359831, Control_c, 0, 67, 35
1, 359848, Control_c, 0, 64, 110
1, 359868, Control_c, 0, 67, 41
1, 359886, Control_c, 0, 67, 45
1, 359905, Control_c, 0, 64, 114
1, 359906, Control_c, 0, 67, 50
1, 359924, Control_c, 0, 64, 118
1, 359925, Control_c, 0, 67, 55
1, 359942, Control_c, 0, 67, 60
1, 359961, Control_c, 0, 64, 123
1, 359963, Control_c, 0, 67, 65
1, 359998, Control_c, 0, 67, 70
1, 360016, Control_c, 0, 64, 127
1, 360054, Control_c, 0, 67, 77
1, 360093, Control_c, 0, 67, 83
1, 360129, Control_c, 0, 67, 88
1, 360166, Control_c, 0, 67, 93
1, 360188, Note_on_c, 0, 70, 0
1, 360222, Control_c, 0, 67, 99
1, 360240, Note_on_c, 0, 49, 0
1, 360259, Control_c, 0, 67, 104
1, 360297, Control_c, 0, 67, 110
1, 360355, Control_c, 0, 67, 115
1, 360383, Poly_aftertouch_c, 0, 42, 22
1, 360423, Note_on_c, 0, 42, 0
1, 360423, Poly_aftertouch_c, 0, 42, 0
1, 360428, Control_c, 0, 67, 119
1, 360435, Note_on_c, 0, 61, 0
1, 360680, Note_on_c, 0, 69, 46
1, 360690, Control_c, 0, 67, 123
1, 360693, Note_on_c, 0, 60, 44
1, 360717, Note_on_c, 0, 50, 33
1, 360762, Note_on_c, 0, 60, 0
1, 360789, Note_on_c, 0, 50, 0
1, 360802, Control_c, 0, 67, 127
1, 360903, Note_on_c, 0, 69, 0
1, 360969, Note_on_c, 0, 68, 44
1, 360974, Note_on_c, 0, 59, 41
1, 360991, Note_on_c, 0, 51, 36
1, 361010, Control_c, 0, 64, 120
1, 361027, Control_c, 0, 64, 112
1, 361045, Control_c, 0, 64, 96
1, 361064, Control_c, 0, 64, 68
1, 361083, Control_c, 0, 64, 39
1, 361101, Control_c, 0, 64, 31
1, 361120, Control_c, 0, 64, 41
1, 361138, Control_c, 0, 64, 54
1, 361158, Control_c, 0, 64, 68
1, 361175, Control_c, 0, 64, 76
1, 361195, Control_c, 0, 64, 82
1, 361215, Control_c, 0, 64, 88
1, 361232, Control_c, 0, 64, 96
1, 361251, Control_c, 0, 64, 103
1, 361269, Control_c, 0, 64, 108
1, 361280, Poly_aftertouch_c, 0, 51, 24
1, 361301, Note_on_c, 0, 59, 0
1, 361326, Control_c, 0, 64, 114
1, 361332, Note_on_c, 0, 51, 0
1, 361332, Poly_aftertouch_c, 0, 51, 0
1, 361424, Note_on_c, 0, 68, 0
1, 361438, Control_c, 0, 64, 118
1, 361914, Note_on_c, 0, 70, 40
1, 361923, Note_on_c, 0, 61, 25
1, 361936, Note_on_c, 0, 49, 22
1, 361936, Note_on_c, 0, 58, 29
1, 361940, Note_on_c, 0, 42, 24
1, 361942, Control_c, 0, 64, 114
1, 361980, Control_c, 0, 64, 110
1, 362018, Control_c, 0, 64, 101
1, 362037, Control_c, 0, 64, 92
1, 362055, Control_c, 0, 64, 77
1, 362074, Control_c, 0, 64, 56
1, 362092, Control_c, 0, 64, 25
1, 362111, Control_c, 0, 64, 10
1, 362129, Control_c, 0, 64, 16
1, 362148, Control_c, 0, 64, 30
1, 362169, Control_c, 0, 64, 40
1, 362185, Control_c, 0, 64, 50
1, 362204, Control_c, 0, 64, 60
1, 362223, Control_c, 0, 64, 67
1, 362242, Control_c, 0, 64, 70
1, 362279, Control_c, 0, 64, 73
1, 362298, Control_c, 0, 64, 76
1, 362316, Control_c, 0, 64, 79
1, 362335, Control_c, 0, 64, 82
1, 362355, Control_c, 0, 64, 85
1, 362373, Control_c, 0, 64, 87
1, 362391, Control_c, 0, 67, 123
1, 362410, Control_c, 0, 64, 91
1, 362448, Control_c, 0, 64, 97
1, 362485, Control_c, 0, 64, 102
1, 362511, Poly_aftertouch_c, 0, 61, 24
1, 362522, Control_c, 0, 64, 106
1, 362560, Control_c, 0, 64, 112
1, 362568, Note_on_c, 0, 61, 0
1, 362568, Poly_aftertouch_c, 0, 61, 0
1, 362598, Control_c, 0, 64, 116
1, 362632, Poly_aftertouch_c, 0, 58, 24
1, 362691, Control_c, 0, 64, 120
1, 362821, Control_c, 0, 64, 125
1, 362894, Poly_aftertouch_c, 0, 58, 22
1, 362924, Note_on_c, 0, 58, 0
1, 362924, Poly_aftertouch_c, 0, 58, 0
1, 363961, Note_on_c, 0, 61, 29
1, 364205, Note_on_c, 0, 61, 0
1, 364205, Poly_aftertouch_c, 0, 61, 0
1, 364333, Poly_aftertouch_c, 0, 70, 24
1, 364357, Poly_aftertouch_c, 0, 42, 24
1, 364413, Note_on_c, 0, 63, 32
1, 364504, Control_c, 0, 67, 127
1, 364526, Note_on_c, 0, 63, 0
1, 364526, Poly_aftertouch_c, 0, 63, 0
1, 364578, Poly_aftertouch_c, 0, 70, 22
1, 364605, Note_on_c, 0, 70, 0
1, 364605, Poly_aftertouch_c, 0, 70, 0
1, 364606, Poly_aftertouch_c, 0, 70, 0
1, 364678, Poly_aftertouch_c, 0, 42, 22
1, 364705, Note_on_c, 0, 42, 0
1, 364705, Poly_aftertouch_c, 0, 42, 0
1, 364737, Note_on_c, 0, 65, 30
1, 364803, Poly_aftertouch_c, 0, 49, 24
1, 364853, Note_on_c, 0, 49, 0
1, 364853, Poly_aftertouch_c, 0, 49, 0
1, 364938, Note_on_c, 0, 65, 0
1, 364938, Poly_aftertouch_c, 0, 65, 0
1, 364990, Note_on_c, 0, 66, 29
1, 365215, Note_on_c, 0, 66, 0
1, 365226, Note_on_c, 0, 68, 39
1, 365342, Note_on_c, 0, 68, 0
1, 365703, Note_on_c, 0, 70, 32
1, 365928, Note_on_c, 0, 70, 0
1, 365987, Note_on_c, 0, 71, 36
1, 366037, Control_c, 0, 64, 121
1, 366094, Note_on_c, 0, 71, 0
1, 366094, Poly_aftertouch_c, 0, 71, 0
1, 366151, Note_on_c, 0, 73, 41
1, 366168, Control_c, 0, 64, 117
1, 366206, Control_c, 0, 64, 112
1, 366214, Note_on_c, 0, 73, 0
1, 366225, Control_c, 0, 64, 108
1, 366243, Control_c, 0, 64, 104
1, 366260, Note_on_c, 0, 75, 44
1, 366262, Control_c, 0, 64, 100
1, 366281, Control_c, 0, 64, 95
1, 366292, Note_on_c, 0, 75, 0
1, 366292, Poly_aftertouch_c, 0, 75, 0
1, 366297, Control_c, 0, 64, 90
1, 366319, Control_c, 0, 64, 86
1, 366337, Control_c, 0, 64, 82
1, 366357, Control_c, 0, 64, 79
1, 366364, Note_on_c, 0, 77, 56
1, 366374, Control_c, 0, 64, 76
1, 366393, Control_c, 0, 64, 73
1, 366400, Note_on_c, 0, 77, 0
1, 366400, Poly_aftertouch_c, 0, 77, 0
1, 366430, Control_c, 0, 64, 70
1, 366448, Control_c, 0, 64, 67
1, 366454, Note_on_c, 0, 78, 51
1, 366468, Control_c, 0, 64, 59
1, 366486, Control_c, 0, 64, 50
1, 366505, Control_c, 0, 64, 40
1, 366536, Note_on_c, 0, 78, 0
1, 366536, Poly_aftertouch_c, 0, 78, 0
1, 366559, Note_on_c, 0, 80, 53
1, 366561, Control_c, 0, 64, 46
1, 366580, Control_c, 0, 64, 53
1, 366599, Control_c, 0, 64, 62
1, 366617, Control_c, 0, 64, 70
1, 366635, Control_c, 0, 64, 74
1, 366655, Control_c, 0, 64, 77
1, 366673, Control_c, 0, 64, 80
1, 366692, Control_c, 0, 64, 83
1, 366712, Control_c, 0, 64, 87
1, 366748, Control_c, 0, 64, 92
1, 366786, Control_c, 0, 64, 97
1, 366788, Note_on_c, 0, 73, 30
1, 366789, Note_on_c, 0, 66, 20
1, 366803, Note_on_c, 0, 70, 30
1, 366805, Control_c, 0, 64, 101
1, 366842, Control_c, 0, 64, 107
1, 366854, Poly_aftertouch_c, 0, 80, 24
1, 366896, Note_on_c, 0, 82, 66
1, 366897, Control_c, 0, 64, 112
1, 366902, Note_on_c, 0, 80, 0
1, 366902, Poly_aftertouch_c, 0, 80, 0
1, 366919, Note_on_c, 0, 78, 47
1, 366936, Control_c, 0, 64, 116
1, 366950, Note_on_c, 0, 78, 0
1, 366950, Poly_aftertouch_c, 0, 78, 0
1, 366988, Note_on_c, 0, 70, 0
1, 367011, Control_c, 0, 64, 124
1, 367016, Note_on_c, 0, 66, 0
1, 367070, Poly_aftertouch_c, 0, 73, 20
1, 367074, Note_on_c, 0, 73, 0
1, 367074, Poly_aftertouch_c, 0, 73, 0
1, 367077, Note_on_c, 0, 82, 0
1, 367303, Note_on_c, 0, 81, 70
1, 367315, Note_on_c, 0, 65, 36
1, 367318, Note_on_c, 0, 69, 33
1, 367325, Note_on_c, 0, 72, 34
1, 367365, Note_on_c, 0, 72, 0
1, 367392, Note_on_c, 0, 81, 0
1, 367399, Poly_aftertouch_c, 0, 77, 127
1, 367403, Note_on_c, 0, 69, 0
1, 367403, Control_c, 0, 64, 118
1, 367421, Control_c, 0, 64, 107
1, 367424, Poly_aftertouch_c, 0, 77, 0
1, 367441, Control_c, 0, 64, 88
1, 367450, Note_on_c, 0, 65, 0
1, 367450, Note_on_c, 0, 80, 69
1, 367450, Poly_aftertouch_c, 0, 65, 0
1, 367455, Note_on_c, 0, 75, 65
1, 367461, Control_c, 0, 64, 55
1, 367477, Note_on_c, 0, 68, 42
1, 367477, Note_on_c, 0, 71, 45
1, 367477, Control_c, 0, 64, 0
1, 367491, Note_on_c, 0, 63, 36
1, 367534, Control_c, 0, 64, 43
1, 367552, Control_c, 0, 64, 65
1, 367572, Control_c, 0, 64, 80
1, 367590, Control_c, 0, 64, 91
1, 367609, Control_c, 0, 64, 105
1, 367625, Note_on_c, 0, 71, 0
1, 367625, Poly_aftertouch_c, 0, 71, 0
1, 367627, Control_c, 0, 64, 116
1, 367646, Control_c, 0, 64, 124
1, 367717, Note_on_c, 0, 68, 0
1, 367801, Note_on_c, 0, 75, 0
1, 367801, Note_on_c, 0, 82, 64
1, 367801, Poly_aftertouch_c, 0, 75, 0
1, 367814, Control_c, 0, 64, 119
1, 367815, Note_on_c, 0, 78, 49
1, 367828, Note_on_c, 0, 73, 44
1, 367831, Control_c, 0, 64, 111
1, 367844, Note_on_c, 0, 70, 31
1, 367851, Control_c, 0, 64, 98
1, 367858, Note_on_c, 0, 80, 0
1, 367858, Poly_aftertouch_c, 0, 80, 0
1, 367862, Note_on_c, 0, 63, 0
1, 367862, Poly_aftertouch_c, 0, 63, 0
1, 367868, Note_on_c, 0, 66, 29
1, 367869, Control_c, 0, 64, 82
1, 367888, Control_c, 0, 64, 62
1, 367907, Control_c, 0, 64, 36
1, 367926, Control_c, 0, 64, 0
1, 368020, Control_c, 0, 64, 19
1, 368038, Control_c, 0, 64, 51
1, 368057, Control_c, 0, 64, 69
1, 368076, Control_c, 0, 64, 77
1, 368094, Control_c, 0, 64, 81
1, 368113, Control_c, 0, 64, 83
1, 368151, Control_c, 0, 64, 85
1, 368189, Control_c, 0, 64, 92
1, 368225, Control_c, 0, 64, 99
1, 368246, Control_c, 0, 64, 105
1, 368263, Control_c, 0, 64, 112
1, 368282, Control_c, 0, 64, 119
1, 368300, Control_c, 0, 64, 125
1, 368355, Note_on_c, 0, 78, 0
1, 368355, Poly_aftertouch_c, 0, 78, 0
1, 368369, Note_on_c, 0, 70, 0
1, 368373, Poly_aftertouch_c, 0, 73, 24
1, 368404, Note_on_c, 0, 73, 0
1, 368404, Poly_aftertouch_c, 0, 73, 0
1, 368832, Poly_aftertouch_c, 0, 66, 22
1, 368852, Note_on_c, 0, 66, 0
1, 368852, Poly_aftertouch_c, 0, 66, 0
1, 369015, Note_on_c, 0, 82, 0
1, 369527, Note_on_c, 0, 80, 45
1, 369536, Note_on_c, 0, 61, 30
1, 369548, Note_on_c, 0, 77, 37
1, 369621, Note_on_c, 0, 77, 0
1, 369736, Note_on_c, 0, 78, 50
1, 369751, Note_on_c, 0, 80, 0
1, 369751, Poly_aftertouch_c, 0, 80, 0
1, 369765, Note_on_c, 0, 61, 0
1, 369765, Note_on_c, 0, 70, 34
1, 369765, Note_on_c, 0, 75, 38
1, 369765, Poly_aftertouch_c, 0, 61, 0
1, 369783, Note_on_c, 0, 63, 26
1, 369796, Note_on_c, 0, 66, 19
1, 369868, Note_on_c, 0, 66, 0
1, 369868, Poly_aftertouch_c, 0, 66, 0
1, 369941, Note_on_c, 0, 70, 0
1, 369994, Note_on_c, 0, 78, 0
1, 369994, Poly_aftertouch_c, 0, 78, 0
1, 370038, Note_on_c, 0, 75, 0
1, 370038, Poly_aftertouch_c, 0, 75, 0
1, 370103, Note_on_c, 0, 82, 65
1, 370115, Note_on_c, 0, 70, 34
1, 370116, Note_on_c, 0, 78, 54
1, 370132, Note_on_c, 0, 73, 39
1, 370152, Control_c, 0, 64, 98
1, 370156, Note_on_c, 0, 66, 38
1, 370170, Control_c, 0, 64, 66
1, 370189, Control_c, 0, 64, 51
1, 370207, Control_c, 0, 64, 55
1, 370219, Poly_aftertouch_c, 0, 63, 24
1, 370225, Control_c, 0, 64, 67
1, 370243, Note_on_c, 0, 63, 0
1, 370243, Poly_aftertouch_c, 0, 63, 0
1, 370243, Control_c, 0, 64, 79
1, 370264, Control_c, 0, 64, 93
1, 370277, Note_on_c, 0, 70, 0
1, 370278, Note_on_c, 0, 73, 0
1, 370278, Poly_aftertouch_c, 0, 73, 0
1, 370283, Control_c, 0, 64, 111
1, 370290, Poly_aftertouch_c, 0, 70, 0
1, 370301, Control_c, 0, 64, 124
1, 370310, Note_on_c, 0, 66, 0
1, 370310, Poly_aftertouch_c, 0, 66, 0
1, 370468, Note_on_c, 0, 82, 0
1, 370470, Note_on_c, 0, 78, 0
1, 370470, Poly_aftertouch_c, 0, 78, 0
1, 370483, Note_on_c, 0, 80, 58
1, 370493, Note_on_c, 0, 77, 45
1, 370499, Note_on_c, 0, 58, 47
1, 370588, Note_on_c, 0, 77, 0
1, 370592, Note_on_c, 0, 58, 0
1, 370592, Poly_aftertouch_c, 0, 58, 0
1, 370624, Note_on_c, 0, 78, 65
1, 370629, Note_on_c, 0, 59, 57
1, 370638, Note_on_c, 0, 80, 0
1, 370638, Poly_aftertouch_c, 0, 80, 0
1, 370649, Note_on_c, 0, 75, 32
1, 370693, Note_on_c, 0, 75, 0
1, 370693, Poly_aftertouch_c, 0, 75, 0
1, 370774, Note_on_c, 0, 77, 69
1, 370790, Note_on_c, 0, 78, 0
1, 370790, Note_on_c, 0, 73, 58
1, 370790, Poly_aftertouch_c, 0, 78, 0
1, 370799, Note_on_c, 0, 61, 55
1, 370811, Note_on_c, 0, 65, 50
1, 370814, Note_on_c, 0, 59, 0
1, 370818, Note_on_c, 0, 73, 0
1, 370818, Note_on_c, 0, 70, 48
1, 370818, Poly_aftertouch_c, 0, 73, 0
1, 370838, Note_on_c, 0, 61, 0
1, 370838, Poly_aftertouch_c, 0, 61, 0
1, 370843, Note_on_c, 0, 77, 0
1, 370850, Note_on_c, 0, 65, 0
1, 370850, Poly_aftertouch_c, 0, 65, 0
1, 370856, Note_on_c, 0, 70, 0
1, 371124, Control_c, 0, 64, 117
1, 371142, Control_c, 0, 64, 113
1, 371152, Note_on_c, 0, 82, 75
1, 371160, Control_c, 0, 64, 104
1, 371179, Control_c, 0, 64, 94
1, 371184, Note_on_c, 0, 78, 52
1, 371192, Note_on_c, 0, 73, 41
1, 371194, Note_on_c, 0, 70, 30
1, 371198, Control_c, 0, 64, 81
1, 371214, Note_on_c, 0, 66, 31
1, 371216, Control_c, 0, 64, 61
1, 371237, Control_c, 0, 64, 30
1, 371254, Control_c, 0, 64, 0
1, 371293, Control_c, 0, 64, 18
1, 371310, Control_c, 0, 64, 47
1, 371329, Control_c, 0, 64, 69
1, 371350, Control_c, 0, 64, 85
1, 371367, Control_c, 0, 64, 99
1, 371385, Control_c, 0, 64, 111
1, 371405, Control_c, 0, 64, 117
1, 371446, Note_on_c, 0, 70, 0
1, 371457, Note_on_c, 0, 73, 0
1, 371457, Poly_aftertouch_c, 0, 73, 0
1, 371479, Control_c, 0, 64, 121
1, 371484, Note_on_c, 0, 78, 0
1, 371484, Poly_aftertouch_c, 0, 78, 0
1, 371516, Control_c, 0, 64, 126
1, 371593, Note_on_c, 0, 66, 0
1, 371593, Poly_aftertouch_c, 0, 66, 0
1, 371872, Note_on_c, 0, 85, 67
1, 371883, Note_on_c, 0, 75, 38
1, 371892, Note_on_c, 0, 80, 49
1, 371903, Note_on_c, 0, 82, 0
1, 371904, Note_on_c, 0, 63, 32
1, 371915, Note_on_c, 0, 71, 27
1, 371932, Note_on_c, 0, 75, 0
1, 371932, Poly_aftertouch_c, 0, 75, 0
1, 371960, Note_on_c, 0, 63, 0
1, 371960, Poly_aftertouch_c, 0, 63, 0
1, 371968, Note_on_c, 0, 71, 0
1, 371968, Poly_aftertouch_c, 0, 71, 0
1, 372084, Note_on_c, 0, 80, 0
1, 372084, Poly_aftertouch_c, 0, 80, 0
1, 372152, Control_c, 0, 64, 122
1, 372173, Note_on_c, 0, 82, 58
1, 372185, Note_on_c, 0, 85, 0
1, 372191, Note_on_c, 0, 78, 32
1, 372191, Control_c, 0, 64, 116
1, 372197, Note_on_c, 0, 73, 37
1, 372209, Control_c, 0, 64, 109
1, 372217, Note_on_c, 0, 66, 33
1, 372229, Control_c, 0, 64, 96
1, 372236, Note_on_c, 0, 70, 18
1, 372244, Control_c, 0, 64, 78
1, 372264, Control_c, 0, 64, 57
1, 372283, Control_c, 0, 64, 33
1, 372302, Control_c, 0, 64, 22
1, 372320, Control_c, 0, 64, 37
1, 372340, Control_c, 0, 64, 53
1, 372358, Control_c, 0, 64, 70
1, 372377, Control_c, 0, 64, 83
1, 372395, Control_c, 0, 64, 92
1, 372414, Control_c, 0, 64, 102
1, 372432, Control_c, 0, 64, 109
1, 372451, Control_c, 0, 64, 114
1, 372458, Note_on_c, 0, 73, 0
1, 372458, Poly_aftertouch_c, 0, 73, 0
1, 372459, Poly_aftertouch_c, 0, 73, 0
1, 372489, Control_c, 0, 64, 119
1, 372493, Note_on_c, 0, 78, 0
1, 372493, Poly_aftertouch_c, 0, 70, 20
1, 372493, Poly_aftertouch_c, 0, 78, 0
1, 372501, Note_on_c, 0, 70, 0
1, 372501, Note_on_c, 0, 66, 0
1, 372501, Poly_aftertouch_c, 0, 66, 0
1, 372501, Poly_aftertouch_c, 0, 70, 0
1, 372525, Control_c, 0, 64, 125
1, 372536, Note_on_c, 0, 82, 0
1, 373037, Note_on_c, 0, 82, 41
1, 373056, Note_on_c, 0, 78, 28
1, 373065, Note_on_c, 0, 70, 14
1, 373069, Note_on_c, 0, 73, 21
1, 373085, Note_on_c, 0, 66, 19
1, 373181, Control_c, 0, 64, 120
1, 373218, Control_c, 0, 64, 110
1, 373236, Control_c, 0, 64, 97
1, 373256, Control_c, 0, 64, 78
1, 373274, Control_c, 0, 64, 59
1, 373292, Control_c, 0, 64, 43
1, 373312, Control_c, 0, 64, 27
1, 373349, Control_c, 0, 64, 33
1, 373367, Control_c, 0, 64, 42
1, 373387, Control_c, 0, 64, 50
1, 373404, Control_c, 0, 64, 59
1, 373424, Control_c, 0, 64, 65
1, 373442, Control_c, 0, 64, 69
1, 373460, Control_c, 0, 64, 71
1, 373479, Control_c, 0, 64, 73
1, 373499, Control_c, 0, 64, 75
1, 373517, Control_c, 0, 64, 77
1, 373535, Control_c, 0, 64, 80
1, 373556, Control_c, 0, 64, 82
1, 373573, Control_c, 0, 64, 84
1, 373592, Control_c, 0, 64, 86
1, 373630, Control_c, 0, 64, 91
1, 373667, Control_c, 0, 64, 96
1, 373704, Control_c, 0, 64, 100
1, 373741, Control_c, 0, 64, 105
1, 373779, Control_c, 0, 64, 109
1, 373834, Control_c, 0, 64, 115
1, 373890, Control_c, 0, 64, 119
1, 373966, Control_c, 0, 64, 123
1, 374060, Control_c, 0, 64, 127
1, 374446, Poly_aftertouch_c, 0, 78, 24
1, 374575, Note_on_c, 0, 73, 0
1, 374595, Note_on_c, 0, 78, 0
1, 374595, Poly_aftertouch_c, 0, 78, 0
1, 374835, Poly_aftertouch_c, 0, 66, 24
1, 374876, Poly_aftertouch_c, 0, 70, 24
1, 374917, Note_on_c, 0, 66, 0
1, 374917, Poly_aftertouch_c, 0, 66, 0
1, 374961, Note_on_c, 0, 70, 0
1, 374961, Poly_aftertouch_c, 0, 70, 0
1, 374995, Control_c, 0, 67, 123
1, 375087, Control_c, 0, 67, 118
1, 375143, Control_c, 0, 67, 114
1, 375201, Control_c, 0, 67, 107
1, 375238, Control_c, 0, 67, 101
1, 375256, Control_c, 0, 64, 123
1, 375274, Control_c, 0, 67, 96
1, 375313, Control_c, 0, 67, 89
1, 375349, Control_c, 0, 67, 85
1, 375387, Control_c, 0, 67, 81
1, 375425, Control_c, 0, 67, 75
1, 375462, Control_c, 0, 67, 70
1, 375499, Control_c, 0, 67, 63
1, 375537, Control_c, 0, 67, 58
1, 375574, Control_c, 0, 67, 53
1, 375595, Control_c, 0, 64, 119
1, 375611, Control_c, 0, 67, 49
1, 375665, Note_on_c, 0, 80, 41
1, 375668, Control_c, 0, 67, 44
1, 375724, Control_c, 0, 67, 40
1, 375761, Note_on_c, 0, 82, 0
1, 375780, Control_c, 0, 67, 35
1, 375835, Control_c, 0, 67, 30
1, 375873, Control_c, 0, 67, 25
1, 375911, Control_c, 0, 67, 20
1, 375948, Control_c, 0, 67, 15
1, 375986, Control_c, 0, 67, 10
1, 376189, Note_on_c, 0, 82, 51
1, 376201, Poly_aftertouch_c, 0, 80, 22
1, 376215, Note_on_c, 0, 80, 0
1, 376215, Poly_aftertouch_c, 0, 80, 0
1, 376294, Note_on_c, 0, 82, 0
1, 376322, Control_c, 0, 67, 0
1, 376501, Note_on_c, 0, 85, 47
1, 376537, Note_on_c, 0, 83, 62
1, 376559, Note_on_c, 0, 85, 0
1, 376603, Control_c, 0, 64, 115
1, 376620, Control_c, 0, 64, 109
1, 376641, Control_c, 0, 64, 90
1, 376659, Control_c, 0, 64, 65
1, 376677, Control_c, 0, 64, 55
1, 376715, Control_c, 0, 64, 60
1, 376734, Control_c, 0, 64, 63
1, 376751, Control_c, 0, 64, 68
1, 376771, Control_c, 0, 64, 73
1, 376790, Control_c, 0, 64, 77
1, 376809, Control_c, 0, 64, 80
1, 376826, Control_c, 0, 64, 83
1, 376831, Note_on_c, 0, 82, 68
1, 376864, Control_c, 0, 64, 85
1, 376906, Note_on_c, 0, 83, 0
1, 376921, Control_c, 0, 64, 92
1, 376939, Control_c, 0, 64, 97
1, 376957, Control_c, 0, 64, 101
1, 376995, Control_c, 0, 64, 108
1, 377014, Control_c, 0, 64, 112
1, 377032, Control_c, 0, 64, 116
1, 377051, Control_c, 0, 64, 120
1, 377070, Control_c, 0, 64, 124
1, 377346, Note_on_c, 0, 85, 68
1, 377478, Note_on_c, 0, 82, 0
1, 377764, Note_on_c, 0, 42, 45
1, 377781, Note_on_c, 0, 49, 40
1, 377816, Note_on_c, 0, 42, 0
1, 377816, Poly_aftertouch_c, 0, 42, 0
1, 377828, Note_on_c, 0, 49, 0
1, 377828, Poly_aftertouch_c, 0, 49, 0
1, 377848, Note_on_c, 0, 90, 79
1, 377872, Note_on_c, 0, 80, 34
1, 377914, Note_on_c, 0, 80, 0
1, 377914, Poly_aftertouch_c, 0, 80, 0
1, 377987, Note_on_c, 0, 85, 0
1, 378076, Note_on_c, 0, 61, 52
1, 378090, Note_on_c, 0, 82, 51
1, 378141, Note_on_c, 0, 82, 0
1, 378158, Note_on_c, 0, 61, 0
1, 378158, Poly_aftertouch_c, 0, 61, 0
1, 378161, Note_on_c, 0, 68, 46
1, 378211, Note_on_c, 0, 68, 0
1, 378222, Note_on_c, 0, 69, 53
1, 378254, Note_on_c, 0, 69, 0
1, 378402, Note_on_c, 0, 82, 61
1, 378406, Note_on_c, 0, 70, 49
1, 378412, Note_on_c, 0, 66, 56
1, 378414, Poly_aftertouch_c, 0, 61, 127
1, 378422, Note_on_c, 0, 78, 37
1, 378438, Note_on_c, 0, 70, 0
1, 378438, Poly_aftertouch_c, 0, 70, 0
1, 378449, Note_on_c, 0, 66, 0
1, 378449, Poly_aftertouch_c, 0, 66, 0
1, 378468, Poly_aftertouch_c, 0, 61, 0
1, 378491, Note_on_c, 0, 90, 0
1, 378494, Note_on_c, 0, 82, 0
1, 378514, Note_on_c, 0, 78, 0
1, 378514, Poly_aftertouch_c, 0, 78, 0
1, 378813, Note_on_c, 0, 42, 59
1, 378846, Note_on_c, 0, 49, 52
1, 378862, Note_on_c, 0, 42, 0
1, 378862, Poly_aftertouch_c, 0, 42, 0
1, 378893, Note_on_c, 0, 49, 0
1, 378893, Poly_aftertouch_c, 0, 49, 0
1, 378896, Note_on_c, 0, 89, 88
1, 378913, Note_on_c, 0, 80, 59
1, 378922, Note_on_c, 0, 77, 46
1, 378940, Note_on_c, 0, 80, 0
1, 378940, Poly_aftertouch_c, 0, 80, 0
1, 378953, Note_on_c, 0, 77, 0
1, 379105, Note_on_c, 0, 60, 58
1, 379143, Note_on_c, 0, 82, 61
1, 379148, Note_on_c, 0, 78, 50
1, 379180, Note_on_c, 0, 60, 0
1, 379197, Note_on_c, 0, 78, 0
1, 379197, Poly_aftertouch_c, 0, 78, 0
1, 379225, Note_on_c, 0, 66, 50
1, 379237, Note_on_c, 0, 82, 0
1, 379275, Note_on_c, 0, 66, 0
1, 379275, Poly_aftertouch_c, 0, 66, 0
1, 379279, Note_on_c, 0, 68, 56
1, 379340, Note_on_c, 0, 68, 0
1, 379364, Note_on_c, 0, 65, 57
1, 379365, Note_on_c, 0, 70, 62
1, 379367, Note_on_c, 0, 89, 0
1, 379367, Poly_aftertouch_c, 0, 89, 0
1, 379380, Note_on_c, 0, 82, 70
1, 379383, Note_on_c, 0, 78, 61
1, 379398, Note_on_c, 0, 70, 0
1, 379398, Poly_aftertouch_c, 0, 70, 0
1, 379408, Note_on_c, 0, 65, 0
1, 379408, Poly_aftertouch_c, 0, 65, 0
1, 379410, Note_on_c, 0, 82, 0
1, 379416, Note_on_c, 0, 78, 0
1, 379416, Poly_aftertouch_c, 0, 78, 0
1, 379705, Control_c, 0, 64, 118
1, 379714, Note_on_c, 0, 87, 83
1, 379725, Control_c, 0, 64, 73
1, 379726, Note_on_c, 0, 80, 63
1, 379727, Note_on_c, 0, 42, 50
1, 379729, Note_on_c, 0, 49, 62
1, 379744, Control_c, 0, 64, 0
1, 379749, Note_on_c, 0, 75, 38
1, 379756, Note_on_c, 0, 77, 21
1, 379770, Note_on_c, 0, 42, 0
1, 379770, Poly_aftertouch_c, 0, 42, 0
1, 379779, Note_on_c, 0, 49, 0
1, 379779, Poly_aftertouch_c, 0, 49, 0
1, 379781, Control_c, 0, 64, 22
1, 379785, Note_on_c, 0, 80, 0
1, 379785, Poly_aftertouch_c, 0, 80, 0
1, 379800, Control_c, 0, 64, 59
1, 379811, Poly_aftertouch_c, 0, 78, 0
1, 379812, Note_on_c, 0, 77, 0
1, 379819, Control_c, 0, 64, 83
1, 379837, Control_c, 0, 64, 103
1, 379856, Control_c, 0, 64, 124
1, 379999, Note_on_c, 0, 75, 0
1, 379999, Poly_aftertouch_c, 0, 75, 0
1, 380012, Note_on_c, 0, 78, 33
1, 380014, Note_on_c, 0, 82, 57
1, 380024, Note_on_c, 0, 59, 53
1, 380097, Note_on_c, 0, 65, 47
1, 380110, Note_on_c, 0, 78, 0
1, 380138, Note_on_c, 0, 82, 0
1, 380153, Poly_aftertouch_c, 0, 82, 0
1, 380154, Note_on_c, 0, 65, 0
1, 380154, Poly_aftertouch_c, 0, 65, 0
1, 380205, Note_on_c, 0, 68, 55
1, 380237, Note_on_c, 0, 68, 0
1, 380353, Note_on_c, 0, 82, 52
1, 380359, Note_on_c, 0, 78, 53
1, 380370, Note_on_c, 0, 70, 52
1, 380397, Note_on_c, 0, 59, 0
1, 380397, Note_on_c, 0, 66, 34
1, 380402, Note_on_c, 0, 70, 0
1, 380402, Poly_aftertouch_c, 0, 70, 0
1, 380404, Note_on_c, 0, 87, 0
1, 380404, Note_on_c, 0, 63, 40
1, 380404, Poly_aftertouch_c, 0, 87, 0
1, 380427, Note_on_c, 0, 78, 0
1, 380442, Note_on_c, 0, 66, 0
1, 380442, Poly_aftertouch_c, 0, 66, 0
1, 380447, Note_on_c, 0, 63, 0
1, 380447, Poly_aftertouch_c, 0, 63, 0
1, 380453, Note_on_c, 0, 82, 0
1, 380845, Note_on_c, 0, 42, 41
1, 380846, Control_c, 0, 67, 8
1, 380864, Note_on_c, 0, 49, 36
1, 380883, Note_on_c, 0, 85, 64
1, 380883, Control_c, 0, 67, 12
1, 380895, Note_on_c, 0, 80, 51
1, 380903, Control_c, 0, 64, 116
1, 380905, Note_on_c, 0, 77, 44
1, 380914, Note_on_c, 0, 73, 31
1, 380920, Control_c, 0, 64, 79
1, 380923, Control_c, 0, 67, 16
1, 380940, Control_c, 0, 64, 36
1, 380960, Control_c, 0, 64, 0
1, 380962, Control_c, 0, 67, 24
1, 380978, Control_c, 0, 64, 30
1, 380979, Control_c, 0, 67, 29
1, 380996, Control_c, 0, 64, 54
1, 380997, Control_c, 0, 67, 34
1, 381016, Control_c, 0, 64, 81
1, 381018, Control_c, 0, 67, 38
1, 381034, Control_c, 0, 64, 104
1, 381036, Control_c, 0, 67, 43
1, 381052, Control_c, 0, 64, 127
1, 381057, Note_on_c, 0, 42, 0
1, 381057, Poly_aftertouch_c, 0, 42, 0
1, 381071, Control_c, 0, 67, 51
1, 381096, Note_on_c, 0, 49, 0
1, 381096, Poly_aftertouch_c, 0, 49, 0
1, 381105, Note_on_c, 0, 77, 0
1, 381107, Control_c, 0, 67, 58
1, 381147, Note_on_c, 0, 80, 0
1, 381147, Poly_aftertouch_c, 0, 80, 0
1, 381147, Control_c, 0, 67, 64
1, 381183, Control_c, 0, 67, 71
1, 381201, Control_c, 0, 67, 76
1, 381221, Control_c, 0, 67, 82
1, 381239, Control_c, 0, 67, 89
1, 381258, Control_c, 0, 67, 95
1, 381276, Control_c, 0, 67, 101
1, 381296, Control_c, 0, 67, 106
1, 381314, Control_c, 0, 67, 110
1, 381351, Control_c, 0, 67, 116
1, 381388, Control_c, 0, 67, 120
1, 381446, Control_c, 0, 67, 125
1, 381495, Note_on_c, 0, 82, 43
1, 381500, Note_on_c, 0, 58, 30
1, 381505, Note_on_c, 0, 78, 33
1, 381551, Poly_aftertouch_c, 0, 73, 24
1, 381579, Note_on_c, 0, 78, 0
1, 381592, Note_on_c, 0, 73, 0
1, 381592, Poly_aftertouch_c, 0, 73, 0
1, 381669, Note_on_c, 0, 82, 0
1, 381672, Note_on_c, 0, 63, 37
1, 381737, Note_on_c, 0, 63, 0
1, 381737, Poly_aftertouch_c, 0, 63, 0
1, 381860, Note_on_c, 0, 68, 39
1, 381922, Note_on_c, 0, 68, 0
1, 382375, Note_on_c, 0, 82, 36
1, 382377, Note_on_c, 0, 78, 36
1, 382394, Note_on_c, 0, 70, 28
1, 382411, Note_on_c, 0, 66, 13
1, 382422, Note_on_c, 0, 73, 17
1, 382436, Control_c, 0, 64, 123
1, 382445, Note_on_c, 0, 61, 20
1, 382453, Control_c, 0, 64, 104
1, 382473, Control_c, 0, 64, 75
1, 382493, Control_c, 0, 64, 51
1, 382511, Control_c, 0, 64, 47
1, 382529, Control_c, 0, 64, 49
1, 382549, Control_c, 0, 64, 57
1, 382567, Control_c, 0, 64, 65
1, 382587, Control_c, 0, 64, 71
1, 382604, Control_c, 0, 64, 76
1, 382624, Control_c, 0, 64, 80
1, 382643, Control_c, 0, 64, 85
1, 382660, Control_c, 0, 64, 89
1, 382679, Control_c, 0, 64, 94
1, 382698, Control_c, 0, 64, 99
1, 382722, Poly_aftertouch_c, 0, 58, 24
1, 382736, Control_c, 0, 64, 105
1, 382748, Poly_aftertouch_c, 0, 73, 24
1, 382773, Control_c, 0, 64, 110
1, 382800, Note_on_c, 0, 58, 0
1, 382800, Poly_aftertouch_c, 0, 58, 0
1, 382810, Control_c, 0, 64, 114
1, 382842, Note_on_c, 0, 73, 0
1, 382842, Poly_aftertouch_c, 0, 73, 0
1, 382885, Control_c, 0, 64, 119
1, 382941, Control_c, 0, 64, 124
1, 382979, Poly_aftertouch_c, 0, 66, 24
1, 383032, Note_on_c, 0, 66, 0
1, 383032, Poly_aftertouch_c, 0, 66, 0
1, 383043, Poly_aftertouch_c, 0, 61, 24
1, 383055, Note_on_c, 0, 70, 0
1, 383055, Poly_aftertouch_c, 0, 70, 0
1, 383067, Note_on_c, 0, 78, 0
1, 383087, Note_on_c, 0, 61, 0
1, 383087, Poly_aftertouch_c, 0, 61, 0
1, 383088, Poly_aftertouch_c, 0, 61, 0
1, 383167, Note_on_c, 0, 82, 0
1, 383353, Control_c, 0, 67, 121
1, 383408, Control_c, 0, 67, 116
1, 383446, Control_c, 0, 67, 112
1, 383483, Control_c, 0, 67, 108
1, 383520, Control_c, 0, 67, 102
1, 383558, Control_c, 0, 67, 94
1, 383577, Control_c, 0, 67, 90
1, 383595, Control_c, 0, 67, 85
1, 383614, Control_c, 0, 67, 80
1, 383632, Control_c, 0, 67, 75
1, 383652, Control_c, 0, 67, 71
1, 383671, Control_c, 0, 67, 67
1, 383689, Control_c, 0, 67, 63
1, 383727, Control_c, 0, 67, 56
1, 383764, Control_c, 0, 67, 50
1, 383801, Control_c, 0, 67, 46
1, 383839, Control_c, 0, 67, 40
1, 383876, Control_c, 0, 67, 33
1, 383914, Control_c, 0, 67, 28
1, 383951, Control_c, 0, 67, 21
1, 383989, Control_c, 0, 67, 16
1, 384025, Control_c, 0, 67, 10
1, 384231, Control_c, 0, 67, 0
1, 384648, Note_on_c, 0, 83, 53
1, 384719, Control_c, 0, 64, 117
1, 384736, Control_c, 0, 64, 92
1, 384755, Control_c, 0, 64, 78
1, 384774, Control_c, 0, 64, 83
1, 384792, Control_c, 0, 64, 92
1, 384811, Control_c, 0, 64, 104
1, 384814, Note_on_c, 0, 83, 0
1, 384829, Control_c, 0, 64, 116
1, 384848, Control_c, 0, 64, 126
1, 384850, Note_on_c, 0, 85, 0
1, 384936, Note_on_c, 0, 82, 48
1, 384967, Note_on_c, 0, 82, 0
1, 384993, Note_on_c, 0, 83, 59
1, 385038, Note_on_c, 0, 83, 0
1, 385053, Note_on_c, 0, 82, 68
1, 385147, Control_c, 0, 64, 108
1, 385167, Control_c, 0, 64, 73
1, 385185, Control_c, 0, 64, 39
1, 385222, Control_c, 0, 64, 54
1, 385241, Control_c, 0, 64, 71
1, 385260, Control_c, 0, 64, 87
1, 385278, Control_c, 0, 64, 112
1, 385296, Control_c, 0, 64, 127
1, 385369, Note_on_c, 0, 80, 74
1, 385515, Note_on_c, 0, 82, 0
1, 385671, Note_on_c, 0, 78, 73
1, 385672, Note_on_c, 0, 80, 0
1, 385672, Poly_aftertouch_c, 0, 80, 0
1, 385700, Note_on_c, 0, 78, 0
1, 386038, Note_on_c, 0, 63, 24
1, 386044, Note_on_c, 0, 59, 28
1, 386096, Note_on_c, 0, 75, 66
1, 386137, Note_on_c, 0, 70, 40
1, 386156, Control_c, 0, 64, 100
1, 386177, Control_c, 0, 64, 68
1, 386195, Control_c, 0, 64, 45
1, 386214, Control_c, 0, 64, 42
1, 386233, Control_c, 0, 64, 55
1, 386250, Control_c, 0, 64, 76
1, 386270, Control_c, 0, 64, 93
1, 386288, Control_c, 0, 64, 118
1, 386306, Control_c, 0, 64, 127
1, 386441, Note_on_c, 0, 70, 0
1, 386441, Poly_aftertouch_c, 0, 70, 0
1, 386451, Note_on_c, 0, 59, 0
1, 386669, Note_on_c, 0, 71, 37
1, 386676, Note_on_c, 0, 58, 32
1, 386682, Note_on_c, 0, 68, 37
1, 386700, Control_c, 0, 64, 117
1, 386718, Control_c, 0, 64, 89
1, 386738, Control_c, 0, 64, 82
1, 386755, Control_c, 0, 64, 98
1, 386774, Control_c, 0, 64, 124
1, 386775, Poly_aftertouch_c, 0, 63, 20
1, 386784, Note_on_c, 0, 63, 0
1, 386784, Poly_aftertouch_c, 0, 63, 0
1, 386878, Note_on_c, 0, 68, 0
1, 386898, Note_on_c, 0, 71, 0
1, 386898, Poly_aftertouch_c, 0, 71, 0
1, 386959, Note_on_c, 0, 58, 0
1, 386959, Poly_aftertouch_c, 0, 58, 0
1, 387163, Note_on_c, 0, 73, 46
1, 387164, Note_on_c, 0, 65, 39
1, 387167, Control_c, 0, 67, 8
1, 387173, Note_on_c, 0, 59, 30
1, 387186, Control_c, 0, 64, 98
1, 387194, Note_on_c, 0, 75, 0
1, 387194, Poly_aftertouch_c, 0, 75, 0
1, 387204, Note_on_c, 0, 56, 21
1, 387204, Control_c, 0, 64, 73
1, 387223, Control_c, 0, 64, 59
1, 387261, Control_c, 0, 64, 61
1, 387279, Control_c, 0, 64, 72
1, 387298, Control_c, 0, 64, 84
1, 387316, Control_c, 0, 64, 99
1, 387317, Control_c, 0, 67, 12
1, 387335, Control_c, 0, 64, 116
1, 387354, Control_c, 0, 64, 127
1, 387392, Note_on_c, 0, 65, 0
1, 387392, Poly_aftertouch_c, 0, 65, 0
1, 387448, Control_c, 0, 67, 17
1, 387485, Note_on_c, 0, 56, 0
1, 387485, Poly_aftertouch_c, 0, 56, 0
1, 387485, Control_c, 0, 67, 21
1, 387488, Note_on_c, 0, 59, 0
1, 387503, Control_c, 0, 67, 28
1, 387522, Control_c, 0, 67, 37
1, 387541, Control_c, 0, 67, 45
1, 387559, Control_c, 0, 67, 52
1, 387578, Control_c, 0, 67, 56
1, 387634, Control_c, 0, 67, 61
1, 387668, Note_on_c, 0, 73, 0
1, 387668, Poly_aftertouch_c, 0, 73, 0
1, 387691, Control_c, 0, 67, 66
1, 387728, Control_c, 0, 67, 73
1, 387765, Control_c, 0, 67, 78
1, 387933, Note_on_c, 0, 70, 37
1, 387942, Note_on_c, 0, 63, 26
1, 387949, Note_on_c, 0, 58, 25
1, 387978, Note_on_c, 0, 55, 18
1, 387990, Control_c, 0, 64, 110
1, 388009, Control_c, 0, 64, 78
1, 388027, Control_c, 0, 64, 58
1, 388045, Control_c, 0, 64, 61
1, 388065, Control_c, 0, 64, 67
1, 388083, Control_c, 0, 64, 77
1, 388102, Control_c, 0, 64, 87
1, 388121, Control_c, 0, 64, 102
1, 388139, Control_c, 0, 64, 116
1, 388159, Control_c, 0, 64, 126
1, 388165, Note_on_c, 0, 58, 0
1, 388165, Poly_aftertouch_c, 0, 58, 0
1, 388212, Note_on_c, 0, 55, 0
1, 388233, Control_c, 0, 67, 74
1, 388247, Note_on_c, 0, 63, 0
1, 388247, Poly_aftertouch_c, 0, 63, 0
1, 388331, Note_on_c, 0, 70, 0
1, 388331, Poly_aftertouch_c, 0, 70, 0
1, 388383, Control_c, 0, 67, 70
1, 388422, Control_c, 0, 67, 66
1, 388457, Control_c, 0, 67, 61
1, 388495, Control_c, 0, 67, 56
1, 388533, Control_c, 0, 67, 52
1, 388569, Control_c, 0, 67, 47
1, 388625, Control_c, 0, 67, 42
1, 388682, Control_c, 0, 67, 38
1, 388698, Note_on_c, 0, 39, 47
1, 388715, Note_on_c, 0, 46, 46
1, 388717, Control_c, 0, 67, 33
1, 388747, Note_on_c, 0, 39, 0
1, 388756, Control_c, 0, 67, 29
1, 388762, Note_on_c, 0, 46, 0
1, 388762, Poly_aftertouch_c, 0, 46, 0
1, 388793, Note_on_c, 0, 87, 82
1, 388808, Note_on_c, 0, 77, 53
1, 388823, Note_on_c, 0, 75, 46
1, 388832, Control_c, 0, 67, 25
1, 388837, Note_on_c, 0, 77, 0
1, 388858, Note_on_c, 0, 75, 0
1, 388858, Poly_aftertouch_c, 0, 75, 0
1, 389066, Note_on_c, 0, 75, 35
1, 389067, Note_on_c, 0, 79, 38
1, 389077, Note_on_c, 0, 58, 23
1, 389104, Note_on_c, 0, 75, 0
1, 389104, Poly_aftertouch_c, 0, 75, 0
1, 389138, Note_on_c, 0, 79, 0
1, 389157, Note_on_c, 0, 65, 46
1, 389210, Note_on_c, 0, 65, 0
1, 389210, Poly_aftertouch_c, 0, 65, 0
1, 389265, Note_on_c, 0, 66, 22
1, 389298, Control_c, 0, 67, 29
1, 389344, Note_on_c, 0, 66, 0
1, 389344, Poly_aftertouch_c, 0, 66, 0
1, 389411, Control_c, 0, 67, 33
1, 389428, Note_on_c, 0, 87, 0
1, 389428, Note_on_c, 0, 75, 31
1, 389428, Poly_aftertouch_c, 0, 87, 0
1, 389431, Poly_aftertouch_c, 0, 58, 24
1, 389445, Note_on_c, 0, 79, 42
1, 389466, Control_c, 0, 67, 39
1, 389473, Note_on_c, 0, 63, 32
1, 389475, Note_on_c, 0, 67, 36
1, 389491, Note_on_c, 0, 58, 0
1, 389491, Poly_aftertouch_c, 0, 58, 0
1, 389492, Poly_aftertouch_c, 0, 58, 0
1, 389504, Control_c, 0, 67, 43
1, 389518, Note_on_c, 0, 79, 0
1, 389531, Note_on_c, 0, 67, 0
1, 389539, Note_on_c, 0, 63, 0
1, 389539, Poly_aftertouch_c, 0, 63, 0
1, 389543, Control_c, 0, 67, 49
1, 389560, Control_c, 0, 67, 57
1, 389579, Control_c, 0, 67, 62
1, 389636, Note_on_c, 0, 75, 0
1, 389636, Poly_aftertouch_c, 0, 75, 0
1, 389883, Note_on_c, 0, 39, 57
1, 389885, Note_on_c, 0, 46, 55
1, 389916, Note_on_c, 0, 86, 87
1, 389936, Note_on_c, 0, 39, 0
1, 389940, Note_on_c, 0, 74, 49
1, 389946, Note_on_c, 0, 46, 0
1, 389946, Poly_aftertouch_c, 0, 46, 0
1, 389948, Note_on_c, 0, 77, 27
1, 389970, Note_on_c, 0, 74, 0
1, 389998, Note_on_c, 0, 77, 0
1, 390103, Control_c, 0, 67, 57
1, 390153, Note_on_c, 0, 57, 50
1, 390159, Control_c, 0, 67, 53
1, 390163, Note_on_c, 0, 79, 49
1, 390172, Note_on_c, 0, 75, 46
1, 390196, Control_c, 0, 67, 48
1, 390202, Note_on_c, 0, 75, 0
1, 390202, Poly_aftertouch_c, 0, 75, 0
1, 390235, Control_c, 0, 67, 43
1, 390242, Note_on_c, 0, 63, 56
1, 390249, Note_on_c, 0, 79, 0
1, 390253, Control_c, 0, 67, 39
1, 390273, Control_c, 0, 67, 35
1, 390309, Control_c, 0, 67, 31
1, 390323, Note_on_c, 0, 65, 53
1, 390330, Note_on_c, 0, 63, 0
1, 390330, Poly_aftertouch_c, 0, 63, 0
1, 390360, Note_on_c, 0, 65, 0
1, 390360, Poly_aftertouch_c, 0, 65, 0
1, 390384, Control_c, 0, 67, 27
1, 390423, Note_on_c, 0, 86, 0
1, 390426, Note_on_c, 0, 79, 62
1, 390440, Poly_aftertouch_c, 0, 57, 24
1, 390443, Note_on_c, 0, 75, 58
1, 390447, Note_on_c, 0, 62, 54
1, 390457, Note_on_c, 0, 67, 53
1, 390458, Note_on_c, 0, 79, 0
1, 390477, Note_on_c, 0, 75, 0
1, 390477, Poly_aftertouch_c, 0, 75, 0
1, 390478, Note_on_c, 0, 57, 0
1, 390478, Poly_aftertouch_c, 0, 57, 0
1, 390479, Poly_aftertouch_c, 0, 57, 0
1, 390484, Note_on_c, 0, 62, 0
1, 390484, Poly_aftertouch_c, 0, 62, 0
1, 390490, Note_on_c, 0, 67, 0
1, 390589, Control_c, 0, 67, 31
1, 390625, Note_on_c, 0, 75, 10
1, 390682, Control_c, 0, 67, 36
1, 390704, Note_on_c, 0, 75, 0
1, 390704, Poly_aftertouch_c, 0, 75, 0
1, 390719, Control_c, 0, 67, 43
1, 390757, Control_c, 0, 67, 49
1, 390775, Control_c, 0, 67, 53
1, 390794, Control_c, 0, 64, 99
1, 390795, Control_c, 0, 67, 62
1, 390801, Note_on_c, 0, 84, 80
1, 390806, Note_on_c, 0, 77, 61
1, 390813, Control_c, 0, 64, 58
1, 390816, Control_c, 0, 67, 72
1, 390820, Note_on_c, 0, 39, 51
1, 390826, Note_on_c, 0, 46, 56
1, 390832, Control_c, 0, 64, 0
1, 390833, Control_c, 0, 67, 79
1, 390834, Note_on_c, 0, 74, 32
1, 390850, Control_c, 0, 67, 83
1, 390855, Note_on_c, 0, 72, 22
1, 390870, Control_c, 0, 64, 43
1, 390875, Note_on_c, 0, 39, 0
1, 390881, Note_on_c, 0, 74, 0
1, 390887, Note_on_c, 0, 46, 0
1, 390887, Poly_aftertouch_c, 0, 46, 0
1, 390888, Control_c, 0, 64, 74
1, 390907, Control_c, 0, 64, 96
1, 390925, Control_c, 0, 64, 127
1, 390927, Control_c, 0, 67, 89
1, 390963, Control_c, 0, 67, 93
1, 390981, Note_on_c, 0, 77, 0
1, 391000, Control_c, 0, 67, 99
1, 391010, Note_on_c, 0, 72, 0
1, 391018, Control_c, 0, 67, 103
1, 391056, Control_c, 0, 67, 107
1, 391122, Note_on_c, 0, 56, 50
1, 391125, Note_on_c, 0, 84, 0
1, 391130, Control_c, 0, 67, 111
1, 391140, Note_on_c, 0, 79, 55
1, 391144, Note_on_c, 0, 75, 45
1, 391201, Note_on_c, 0, 56, 0
1, 391201, Poly_aftertouch_c, 0, 56, 0
1, 391202, Note_on_c, 0, 62, 39
1, 391230, Note_on_c, 0, 75, 0
1, 391230, Poly_aftertouch_c, 0, 75, 0
1, 391244, Control_c, 0, 67, 115
1, 391282, Note_on_c, 0, 62, 0
1, 391282, Poly_aftertouch_c, 0, 62, 0
1, 391299, Note_on_c, 0, 65, 44
1, 391349, Note_on_c, 0, 65, 0
1, 391349, Note_on_c, 0, 79, 0
1, 391349, Poly_aftertouch_c, 0, 65, 0
1, 391507, Note_on_c, 0, 79, 54
1, 391523, Note_on_c, 0, 75, 43
1, 391535, Note_on_c, 0, 67, 37
1, 391545, Note_on_c, 0, 60, 40
1, 391554, Note_on_c, 0, 63, 34
1, 391582, Note_on_c, 0, 67, 0
1, 391594, Note_on_c, 0, 75, 0
1, 391594, Poly_aftertouch_c, 0, 75, 0
1, 391600, Note_on_c, 0, 63, 0
1, 391600, Note_on_c, 0, 60, 0
1, 391600, Poly_aftertouch_c, 0, 63, 0
1, 391637, Control_c, 0, 67, 119
1, 391711, Control_c, 0, 67, 124
1, 391797, Note_on_c, 0, 79, 0
1, 392049, Control_c, 0, 64, 121
1, 392066, Control_c, 0, 64, 113
1, 392072, Note_on_c, 0, 82, 55
1, 392081, Note_on_c, 0, 70, 41
1, 392084, Note_on_c, 0, 74, 43
1, 392084, Control_c, 0, 64, 101
1, 392085, Note_on_c, 0, 77, 51
1, 392100, Note_on_c, 0, 46, 41
1, 392104, Control_c, 0, 64, 79
1, 392108, Note_on_c, 0, 39, 31
1, 392123, Control_c, 0, 64, 49
1, 392140, Control_c, 0, 64, 0
1, 392197, Control_c, 0, 64, 38
1, 392215, Control_c, 0, 64, 63
1, 392235, Control_c, 0, 64, 85
1, 392253, Control_c, 0, 64, 101
1, 392272, Control_c, 0, 64, 117
1, 392287, Note_on_c, 0, 46, 0
1, 392287, Poly_aftertouch_c, 0, 46, 0
1, 392290, Control_c, 0, 64, 125
1, 392309, Note_on_c, 0, 39, 0
1, 392316, Note_on_c, 0, 74, 0
1, 392389, Note_on_c, 0, 77, 0
1, 392844, Note_on_c, 0, 79, 35
1, 392848, Note_on_c, 0, 75, 28
1, 392852, Note_on_c, 0, 55, 27
1, 392959, Poly_aftertouch_c, 0, 70, 24
1, 393018, Note_on_c, 0, 70, 0
1, 393018, Poly_aftertouch_c, 0, 70, 0
1, 393061, Note_on_c, 0, 60, 25
1, 393079, Note_on_c, 0, 75, 0
1, 393079, Poly_aftertouch_c, 0, 75, 0
1, 393098, Note_on_c, 0, 79, 0
1, 393146, Note_on_c, 0, 60, 0
1, 393296, Note_on_c, 0, 65, 29
1, 393370, Note_on_c, 0, 65, 0
1, 393370, Poly_aftertouch_c, 0, 65, 0
1, 393466, Poly_aftertouch_c, 0, 55, 24
1, 393711, Poly_aftertouch_c, 0, 55, 22
1, 393904, Note_on_c, 0, 79, 34
1, 393909, Note_on_c, 0, 70, 24
1, 393912, Note_on_c, 0, 75, 30
1, 393936, Note_on_c, 0, 58, 20
1, 393954, Note_on_c, 0, 67, 19
1, 393959, Note_on_c, 0, 63, 11
1, 393973, Control_c, 0, 64, 114
1, 393992, Control_c, 0, 64, 96
1, 394004, Poly_aftertouch_c, 0, 55, 20
1, 394010, Control_c, 0, 64, 69
1, 394029, Control_c, 0, 64, 44
1, 394042, Note_on_c, 0, 55, 0
1, 394042, Poly_aftertouch_c, 0, 55, 0
1, 394048, Control_c, 0, 64, 29
1, 394085, Control_c, 0, 64, 36
1, 394104, Control_c, 0, 64, 46
1, 394123, Control_c, 0, 64, 56
1, 394143, Control_c, 0, 64, 68
1, 394160, Control_c, 0, 64, 77
1, 394180, Control_c, 0, 64, 82
1, 394198, Control_c, 0, 64, 86
1, 394235, Control_c, 0, 64, 94
1, 394254, Control_c, 0, 64, 99
1, 394272, Control_c, 0, 64, 104
1, 394310, Control_c, 0, 64, 111
1, 394329, Control_c, 0, 64, 115
1, 394362, Note_on_c, 0, 70, 0
1, 394362, Poly_aftertouch_c, 0, 70, 0
1, 394364, Control_c, 0, 64, 121
1, 394422, Control_c, 0, 64, 125
1, 394519, Poly_aftertouch_c, 0, 75, 20
1, 394525, Note_on_c, 0, 75, 0
1, 394525, Poly_aftertouch_c, 0, 75, 0
1, 394527, Poly_aftertouch_c, 0, 67, 24
1, 394576, Poly_aftertouch_c, 0, 79, 24
1, 394614, Note_on_c, 0, 67, 0
1, 394614, Poly_aftertouch_c, 0, 67, 0
1, 394641, Poly_aftertouch_c, 0, 63, 24
1, 394650, Note_on_c, 0, 79, 0
1, 394650, Poly_aftertouch_c, 0, 79, 0
1, 394711, Note_on_c, 0, 63, 0
1, 394711, Poly_aftertouch_c, 0, 63, 0
1, 394712, Poly_aftertouch_c, 0, 63, 0
1, 394738, Poly_aftertouch_c, 0, 58, 24
1, 394838, Note_on_c, 0, 58, 0
1, 394838, Poly_aftertouch_c, 0, 58, 0
1, 395150, Control_c, 0, 67, 120
1, 395226, Control_c, 0, 67, 116
1, 395319, Control_c, 0, 67, 112
1, 395431, Control_c, 0, 67, 107
1, 395487, Control_c, 0, 67, 103
1, 395525, Control_c, 0, 67, 99
1, 395563, Control_c, 0, 67, 94
1, 395600, Control_c, 0, 67, 89
1, 395637, Control_c, 0, 67, 84
1, 395675, Control_c, 0, 67, 78
1, 395712, Control_c, 0, 67, 73
1, 395749, Control_c, 0, 67, 68
1, 395786, Control_c, 0, 67, 63
1, 395824, Control_c, 0, 67, 57
1, 395861, Control_c, 0, 67, 51
1, 395898, Control_c, 0, 67, 44
1, 395937, Control_c, 0, 67, 36
1, 395955, Control_c, 0, 67, 32
1, 395974, Control_c, 0, 67, 28
1, 395992, Control_c, 0, 67, 24
1, 396011, Control_c, 0, 67, 19
1, 396030, Control_c, 0, 67, 13
1, 396049, Control_c, 0, 67, 9
1, 396236, Control_c, 0, 67, 0
1, 396628, Control_c, 0, 64, 121
1, 396640, Note_on_c, 0, 80, 54
1, 396667, Control_c, 0, 64, 117
1, 396685, Control_c, 0, 64, 110
1, 396702, Control_c, 0, 64, 96
1, 396722, Control_c, 0, 64, 79
1, 396741, Control_c, 0, 64, 71
1, 396759, Control_c, 0, 64, 73
1, 396778, Control_c, 0, 64, 77
1, 396798, Control_c, 0, 64, 82
1, 396816, Control_c, 0, 64, 88
1, 396833, Control_c, 0, 64, 96
1, 396852, Control_c, 0, 64, 105
1, 396860, Note_on_c, 0, 80, 0
1, 396860, Poly_aftertouch_c, 0, 80, 0
1, 396873, Control_c, 0, 64, 111
1, 396876, Note_on_c, 0, 82, 0
1, 396890, Control_c, 0, 64, 115
1, 396927, Control_c, 0, 64, 119
1, 396983, Control_c, 0, 64, 124
1, 397001, Note_on_c, 0, 79, 45
1, 397036, Note_on_c, 0, 79, 0
1, 397036, Poly_aftertouch_c, 0, 79, 0
1, 397045, Note_on_c, 0, 80, 64
1, 397092, Note_on_c, 0, 80, 0
1, 397092, Poly_aftertouch_c, 0, 80, 0
1, 397113, Note_on_c, 0, 79, 62
1, 397437, Note_on_c, 0, 77, 72
1, 397489, Control_c, 0, 64, 114
1, 397508, Control_c, 0, 64, 92
1, 397527, Control_c, 0, 64, 70
1, 397545, Control_c, 0, 64, 66
1, 397563, Control_c, 0, 64, 70
1, 397582, Control_c, 0, 64, 78
1, 397601, Control_c, 0, 64, 88
1, 397620, Control_c, 0, 64, 102
1, 397638, Control_c, 0, 64, 114
1, 397639, Note_on_c, 0, 79, 0
1, 397639, Poly_aftertouch_c, 0, 79, 0
1, 397657, Control_c, 0, 64, 121
1, 397694, Control_c, 0, 64, 127
1, 397767, Note_on_c, 0, 77, 0
1, 397767, Note_on_c, 0, 75, 74
1, 397798, Note_on_c, 0, 75, 0
1, 397798, Poly_aftertouch_c, 0, 75, 0
1, 398146, Note_on_c, 0, 63, 28
1, 398210, Note_on_c, 0, 72, 64
1, 398246, Note_on_c, 0, 67, 28
1, 398293, Control_c, 0, 64, 109
1, 398311, Control_c, 0, 64, 83
1, 398330, Control_c, 0, 64, 62
1, 398349, Control_c, 0, 64, 61
1, 398367, Control_c, 0, 64, 67
1, 398386, Control_c, 0, 64, 77
1, 398405, Control_c, 0, 64, 88
1, 398423, Control_c, 0, 64, 102
1, 398442, Control_c, 0, 64, 118
1, 398460, Control_c, 0, 64, 127
1, 398580, Note_on_c, 0, 63, 0
1, 398772, Note_on_c, 0, 72, 0
1, 398789, Note_on_c, 0, 70, 51
1, 398802, Note_on_c, 0, 62, 32
1, 398846, Poly_aftertouch_c, 0, 67, 24
1, 398851, Control_c, 0, 64, 122
1, 398873, Control_c, 0, 64, 98
1, 398880, Note_on_c, 0, 67, 0
1, 398880, Poly_aftertouch_c, 0, 67, 0
1, 398881, Poly_aftertouch_c, 0, 67, 0
1, 398891, Control_c, 0, 64, 72
1, 398909, Control_c, 0, 64, 67
1, 398929, Control_c, 0, 64, 72
1, 398948, Control_c, 0, 64, 81
1, 398967, Control_c, 0, 64, 91
1, 398985, Control_c, 0, 64, 106
1, 399003, Control_c, 0, 64, 118
1, 399023, Control_c, 0, 64, 125
1, 399024, Control_c, 0, 67, 8
1, 399074, Note_on_c, 0, 62, 0
1, 399074, Poly_aftertouch_c, 0, 62, 0
1, 399134, Control_c, 0, 67, 13
1, 399172, Control_c, 0, 64, 119
1, 399181, Note_on_c, 0, 70, 0
1, 399181, Poly_aftertouch_c, 0, 70, 0
1, 399190, Control_c, 0, 64, 105
1, 399191, Control_c, 0, 67, 19
1, 399201, Note_on_c, 0, 67, 46
1, 399208, Control_c, 0, 64, 80
1, 399212, Note_on_c, 0, 63, 37
1, 399216, Note_on_c, 0, 61, 35
1, 399228, Control_c, 0, 64, 59
1, 399230, Control_c, 0, 67, 27
1, 399245, Control_c, 0, 67, 33
1, 399266, Control_c, 0, 64, 66
1, 399267, Control_c, 0, 67, 39
1, 399284, Control_c, 0, 64, 74
1, 399285, Control_c, 0, 67, 45
1, 399303, Control_c, 0, 64, 82
1, 399304, Control_c, 0, 67, 52
1, 399321, Control_c, 0, 64, 90
1, 399324, Control_c, 0, 67, 58
1, 399340, Control_c, 0, 64, 98
1, 399341, Control_c, 0, 67, 63
1, 399360, Control_c, 0, 64, 103
1, 399361, Control_c, 0, 67, 67
1, 399374, Note_on_c, 0, 67, 0
1, 399390, Note_on_c, 0, 61, 0
1, 399395, Control_c, 0, 64, 110
1, 399397, Control_c, 0, 67, 74
1, 399416, Control_c, 0, 64, 114
1, 399434, Control_c, 0, 64, 118
1, 399434, Control_c, 0, 67, 80
1, 399451, Control_c, 0, 64, 122
1, 399471, Control_c, 0, 67, 87
1, 399489, Control_c, 0, 64, 127
1, 399490, Control_c, 0, 67, 91
1, 399508, Control_c, 0, 67, 95
1, 399518, Note_on_c, 0, 63, 0
1, 399526, Control_c, 0, 67, 99
1, 399545, Control_c, 0, 67, 103
1, 399565, Control_c, 0, 67, 108
1, 399601, Control_c, 0, 67, 114
1, 399657, Control_c, 0, 67, 119
1, 399732, Control_c, 0, 67, 123
1, 399807, Control_c, 0, 67, 127
1, 399933, Note_on_c, 0, 39, 32
1, 399955, Note_on_c, 0, 58, 26
1, 399963, Note_on_c, 0, 60, 41
1, 399974, Control_c, 0, 64, 123
1, 399977, Note_on_c, 0, 55, 27
1, 400013, Control_c, 0, 64, 118
1, 400032, Control_c, 0, 64, 109
1, 400050, Control_c, 0, 64, 90
1, 400069, Control_c, 0, 64, 65
1, 400088, Control_c, 0, 64, 35
1, 400107, Control_c, 0, 64, 0
1, 400124, Control_c, 0, 64, 23
1, 400145, Control_c, 0, 64, 45
1, 400162, Control_c, 0, 64, 65
1, 400181, Control_c, 0, 64, 80
1, 400200, Control_c, 0, 64, 90
1, 400218, Control_c, 0, 64, 101
1, 400232, Poly_aftertouch_c, 0, 39, 24
1, 400237, Control_c, 0, 64, 108
1, 400256, Control_c, 0, 64, 112
1, 400324, Note_on_c, 0, 55, 0
1, 400324, Poly_aftertouch_c, 0, 55, 0
1, 400341, Note_on_c, 0, 39, 0
1, 400341, Poly_aftertouch_c, 0, 39, 0
1, 400349, Control_c, 0, 64, 116
1, 400356, Note_on_c, 0, 48, 34
1, 400382, Poly_aftertouch_c, 0, 58, 22
1, 400405, Control_c, 0, 64, 121
1, 400409, Note_on_c, 0, 58, 0
1, 400409, Poly_aftertouch_c, 0, 58, 0
1, 400421, Note_on_c, 0, 48, 0
1, 400443, Control_c, 0, 64, 125
1, 400458, Poly_aftertouch_c, 0, 60, 20
1, 400470, Note_on_c, 0, 60, 0
1, 400470, Poly_aftertouch_c, 0, 60, 0
1, 400724, Note_on_c, 0, 58, 34
1, 400910, Control_c, 0, 67, 123
1, 400985, Control_c, 0, 67, 118
1, 400999, Poly_aftertouch_c, 0, 58, 24
1, 401026, Note_on_c, 0, 58, 0
1, 401026, Poly_aftertouch_c, 0, 58, 0
1, 401045, Note_on_c, 0, 60, 25
1, 401061, Control_c, 0, 67, 114
1, 401116, Control_c, 0, 67, 110
1, 401191, Control_c, 0, 67, 104
1, 401200, Note_on_c, 0, 60, 0
1, 401200, Poly_aftertouch_c, 0, 60, 0
1, 401228, Control_c, 0, 67, 99
1, 401284, Control_c, 0, 67, 93
1, 401340, Control_c, 0, 67, 88
1, 401415, Control_c, 0, 67, 84
1, 401479, Note_on_c, 0, 67, 30
1, 401509, Control_c, 0, 67, 80
1, 401565, Note_on_c, 0, 94, 59
1, 401584, Control_c, 0, 67, 76
1, 401658, Control_c, 0, 67, 70
1, 401695, Control_c, 0, 67, 66
1, 401752, Control_c, 0, 67, 62
1, 401800, Note_on_c, 0, 67, 0
1, 401826, Control_c, 0, 67, 57
1, 401936, Note_on_c, 0, 94, 0
1, 401957, Control_c, 0, 67, 53
1, 402053, Note_on_c, 0, 93, 60
1, 402216, Note_on_c, 0, 60, 42
1, 402278, Note_on_c, 0, 60, 0
1, 402278, Poly_aftertouch_c, 0, 60, 0
1, 402404, Note_on_c, 0, 92, 65
1, 402414, Note_on_c, 0, 58, 45
1, 402421, Note_on_c, 0, 93, 0
1, 402426, Note_on_c, 0, 84, 40
1, 402450, Note_on_c, 0, 58, 0
1, 402450, Poly_aftertouch_c, 0, 58, 0
1, 402493, Note_on_c, 0, 84, 0
1, 402601, Note_on_c, 0, 48, 54
1, 402651, Note_on_c, 0, 48, 0
1, 402739, Note_on_c, 0, 92, 0
1, 402751, Note_on_c, 0, 91, 55
1, 402758, Note_on_c, 0, 83, 45
1, 402775, Note_on_c, 0, 39, 44
1, 402778, Note_on_c, 0, 91, 0
1, 402796, Note_on_c, 0, 83, 0
1, 403062, Note_on_c, 0, 84, 68
1, 403093, Note_on_c, 0, 82, 44
1, 403166, Note_on_c, 0, 39, 0
1, 403166, Poly_aftertouch_c, 0, 39, 0
1, 403206, Note_on_c, 0, 48, 43
1, 403245, Note_on_c, 0, 48, 0
1, 403420, Note_on_c, 0, 58, 46
1, 403424, Note_on_c, 0, 79, 62
1, 403495, Note_on_c, 0, 58, 0
1, 403495, Poly_aftertouch_c, 0, 58, 0
1, 403578, Note_on_c, 0, 84, 0
1, 403588, Note_on_c, 0, 60, 52
1, 403605, Note_on_c, 0, 82, 0
1, 403632, Note_on_c, 0, 60, 0
1, 403632, Poly_aftertouch_c, 0, 60, 0
1, 403820, Note_on_c, 0, 67, 44
1, 403957, Note_on_c, 0, 83, 71
1, 403963, Note_on_c, 0, 79, 0
1, 403963, Poly_aftertouch_c, 0, 79, 0
1, 403979, Note_on_c, 0, 72, 45
1, 404067, Note_on_c, 0, 67, 0
1, 404321, Note_on_c, 0, 82, 67
1, 404385, Note_on_c, 0, 83, 0
1, 404444, Note_on_c, 0, 82, 0
1, 404447, Note_on_c, 0, 72, 0
1, 404471, Note_on_c, 0, 60, 47
1, 404529, Note_on_c, 0, 60, 0
1, 404529, Poly_aftertouch_c, 0, 60, 0
1, 404601, Note_on_c, 0, 79, 66
1, 404614, Note_on_c, 0, 58, 58
1, 404618, Note_on_c, 0, 71, 46
1, 404635, Note_on_c, 0, 79, 0
1, 404635, Poly_aftertouch_c, 0, 79, 0
1, 404647, Note_on_c, 0, 58, 0
1, 404647, Poly_aftertouch_c, 0, 58, 0
1, 404654, Note_on_c, 0, 71, 0
1, 404654, Poly_aftertouch_c, 0, 71, 0
1, 404782, Note_on_c, 0, 48, 55
1, 404816, Note_on_c, 0, 48, 0
1, 404928, Note_on_c, 0, 72, 61
1, 404933, Note_on_c, 0, 70, 57
1, 404936, Note_on_c, 0, 40, 55
1, 404987, Control_c, 0, 64, 119
1, 405005, Control_c, 0, 64, 84
1, 405024, Control_c, 0, 64, 41
1, 405026, Control_c, 0, 67, 49
1, 405043, Control_c, 0, 64, 0
1, 405062, Control_c, 0, 64, 38
1, 405064, Control_c, 0, 67, 43
1, 405080, Control_c, 0, 64, 66
1, 405099, Control_c, 0, 64, 88
1, 405103, Control_c, 0, 67, 37
1, 405118, Control_c, 0, 64, 115
1, 405136, Control_c, 0, 64, 127
1, 405155, Control_c, 0, 67, 32
1, 405229, Note_on_c, 0, 67, 70
1, 405232, Note_on_c, 0, 60, 62
1, 405248, Control_c, 0, 67, 28
1, 405258, Note_on_c, 0, 70, 0
1, 405258, Poly_aftertouch_c, 0, 70, 0
1, 405269, Note_on_c, 0, 60, 0
1, 405269, Poly_aftertouch_c, 0, 60, 0
1, 405273, Note_on_c, 0, 72, 0
1, 405284, Poly_aftertouch_c, 0, 40, 24
1, 405297, Note_on_c, 0, 67, 0
1, 405361, Control_c, 0, 67, 23
1, 405407, Note_on_c, 0, 48, 65
1, 405436, Note_on_c, 0, 40, 0
1, 405436, Poly_aftertouch_c, 0, 40, 0
1, 405454, Control_c, 0, 67, 19
1, 405529, Control_c, 0, 67, 15
1, 405590, Note_on_c, 0, 48, 0
1, 405622, Control_c, 0, 67, 11
1, 405642, Note_on_c, 0, 55, 50
1, 405710, Note_on_c, 0, 55, 0
1, 405710, Poly_aftertouch_c, 0, 55, 0
1, 405821, Note_on_c, 0, 94, 83
1, 406035, Note_on_c, 0, 60, 54
1, 406111, Note_on_c, 0, 94, 0
1, 406189, Note_on_c, 0, 60, 0
1, 406189, Poly_aftertouch_c, 0, 60, 0
1, 406238, Note_on_c, 0, 93, 83
1, 406255, Note_on_c, 0, 70, 54
1, 406264, Note_on_c, 0, 84, 65
1, 406378, Note_on_c, 0, 84, 0
1, 406383, Note_on_c, 0, 70, 0
1, 406383, Poly_aftertouch_c, 0, 70, 0
1, 406524, Note_on_c, 0, 92, 84
1, 406542, Note_on_c, 0, 83, 66
1, 406567, Note_on_c, 0, 93, 0
1, 406617, Note_on_c, 0, 83, 0
1, 406654, Note_on_c, 0, 60, 50
1, 406694, Note_on_c, 0, 60, 0
1, 406694, Poly_aftertouch_c, 0, 60, 0
1, 406791, Note_on_c, 0, 91, 78
1, 406793, Note_on_c, 0, 82, 69
1, 406800, Note_on_c, 0, 55, 59
1, 406820, Note_on_c, 0, 91, 0
1, 406823, Note_on_c, 0, 82, 0
1, 406840, Note_on_c, 0, 55, 0
1, 406840, Poly_aftertouch_c, 0, 55, 0
1, 406845, Note_on_c, 0, 92, 0
1, 406950, Note_on_c, 0, 48, 41
1, 407004, Note_on_c, 0, 48, 0
1, 407043, Control_c, 0, 67, 15
1, 407092, Note_on_c, 0, 84, 81
1, 407106, Note_on_c, 0, 40, 49
1, 407106, Note_on_c, 0, 79, 60
1, 407373, Note_on_c, 0, 72, 73
1, 407390, Poly_aftertouch_c, 0, 40, 22
1, 407455, Note_on_c, 0, 40, 0
1, 407455, Poly_aftertouch_c, 0, 40, 0
1, 407474, Control_c, 0, 67, 19
1, 407493, Note_on_c, 0, 84, 0
1, 407522, Note_on_c, 0, 48, 52
1, 407580, Note_on_c, 0, 48, 0
1, 407623, Control_c, 0, 67, 24
1, 407668, Note_on_c, 0, 83, 79
1, 407681, Note_on_c, 0, 79, 0
1, 407681, Poly_aftertouch_c, 0, 79, 0
1, 407682, Note_on_c, 0, 55, 45
1, 407698, Control_c, 0, 67, 28
1, 407723, Note_on_c, 0, 55, 0
1, 407723, Poly_aftertouch_c, 0, 55, 0
1, 407772, Control_c, 0, 67, 32
1, 407838, Note_on_c, 0, 60, 50
1, 407885, Control_c, 0, 67, 36
1, 407890, Note_on_c, 0, 60, 0
1, 407890, Poly_aftertouch_c, 0, 60, 0
1, 407960, Control_c, 0, 67, 41
1, 407972, Note_on_c, 0, 82, 75
1, 408008, Note_on_c, 0, 70, 56
1, 408015, Control_c, 0, 67, 46
1, 408051, Note_on_c, 0, 70, 0
1, 408051, Poly_aftertouch_c, 0, 70, 0
1, 408085, Note_on_c, 0, 83, 0
1, 408101, Note_on_c, 0, 72, 0
1, 408124, Note_on_c, 0, 82, 0
1, 408257, Note_on_c, 0, 79, 67
1, 408259, Control_c, 0, 67, 50
1, 408272, Note_on_c, 0, 71, 49
1, 408291, Note_on_c, 0, 79, 0
1, 408291, Poly_aftertouch_c, 0, 79, 0
1, 408302, Note_on_c, 0, 71, 0
1, 408302, Poly_aftertouch_c, 0, 71, 0
1, 408314, Control_c, 0, 67, 55
1, 408371, Control_c, 0, 67, 61
1, 408427, Note_on_c, 0, 60, 46
1, 408427, Control_c, 0, 67, 65
1, 408463, Note_on_c, 0, 60, 0
1, 408463, Poly_aftertouch_c, 0, 60, 0
1, 408595, Control_c, 0, 67, 69
1, 408611, Note_on_c, 0, 72, 60
1, 408626, Note_on_c, 0, 70, 50
1, 408638, Note_on_c, 0, 55, 40
1, 408651, Control_c, 0, 67, 73
1, 408689, Note_on_c, 0, 70, 0
1, 408689, Poly_aftertouch_c, 0, 70, 0
1, 408689, Control_c, 0, 67, 78
1, 408710, Note_on_c, 0, 55, 0
1, 408710, Poly_aftertouch_c, 0, 55, 0
1, 408726, Control_c, 0, 67, 82
1, 408765, Control_c, 0, 67, 87
1, 408802, Control_c, 0, 67, 91
1, 408815, Note_on_c, 0, 48, 42
1, 408858, Note_on_c, 0, 48, 0
1, 408878, Control_c, 0, 67, 96
1, 408932, Control_c, 0, 67, 100
1, 408988, Control_c, 0, 67, 104
1, 409050, Note_on_c, 0, 60, 47
1, 409052, Note_on_c, 0, 70, 48
1, 409063, Control_c, 0, 67, 109
1, 409075, Poly_aftertouch_c, 0, 72, 20
1, 409078, Note_on_c, 0, 72, 0
1, 409078, Poly_aftertouch_c, 0, 72, 0
1, 409080, Note_on_c, 0, 40, 25
1, 409146, Note_on_c, 0, 40, 0
1, 409146, Poly_aftertouch_c, 0, 40, 0
1, 409147, Note_on_c, 0, 60, 0
1, 409147, Poly_aftertouch_c, 0, 60, 0
1, 409156, Control_c, 0, 67, 114
1, 409249, Note_on_c, 0, 70, 0
1, 409249, Poly_aftertouch_c, 0, 70, 0
1, 409249, Control_c, 0, 67, 118
1, 409346, Note_on_c, 0, 59, 51
1, 409399, Control_c, 0, 67, 122
1, 409455, Note_on_c, 0, 59, 0
1, 409531, Control_c, 0, 64, 122
1, 409569, Control_c, 0, 64, 117
1, 409624, Control_c, 0, 64, 113
1, 409773, Note_on_c, 0, 29, 35
1, 409773, Control_c, 0, 64, 109
1, 409848, Control_c, 0, 64, 104
1, 409905, Control_c, 0, 64, 100
1, 409930, Note_on_c, 0, 60, 38
1, 409941, Note_on_c, 0, 55, 30
1, 409941, Control_c, 0, 64, 96
1, 409957, Note_on_c, 0, 58, 25
1, 409980, Control_c, 0, 64, 87
1, 409998, Control_c, 0, 64, 74
1, 410016, Control_c, 0, 64, 54
1, 410036, Control_c, 0, 64, 0
1, 410110, Control_c, 0, 64, 33
1, 410128, Poly_aftertouch_c, 0, 29, 24
1, 410129, Control_c, 0, 64, 57
1, 410148, Control_c, 0, 64, 75
1, 410166, Control_c, 0, 64, 82
1, 410177, Note_on_c, 0, 29, 0
1, 410177, Poly_aftertouch_c, 0, 29, 0
1, 410185, Control_c, 0, 64, 86
1, 410204, Control_c, 0, 64, 91
1, 410222, Control_c, 0, 64, 96
1, 410240, Control_c, 0, 64, 102
1, 410243, Note_on_c, 0, 41, 28
1, 410261, Control_c, 0, 64, 108
1, 410278, Control_c, 0, 64, 112
1, 410297, Note_on_c, 0, 41, 0
1, 410297, Poly_aftertouch_c, 0, 41, 0
1, 410297, Control_c, 0, 64, 116
1, 410298, Control_c, 0, 67, 117
1, 410317, Control_c, 0, 64, 121
1, 410334, Control_c, 0, 64, 125
1, 410372, Note_on_c, 0, 55, 0
1, 410372, Poly_aftertouch_c, 0, 55, 0
1, 410390, Control_c, 0, 67, 113
1, 410412, Note_on_c, 0, 58, 0
1, 410412, Poly_aftertouch_c, 0, 58, 0
1, 410446, Note_on_c, 0, 60, 0
1, 410446, Poly_aftertouch_c, 0, 60, 0
1, 410446, Control_c, 0, 67, 109
1, 410503, Control_c, 0, 67, 105
1, 410559, Control_c, 0, 67, 100
1, 410586, Note_on_c, 0, 48, 37
1, 410614, Control_c, 0, 67, 95
1, 410671, Control_c, 0, 67, 90
1, 410727, Control_c, 0, 67, 86
1, 410783, Control_c, 0, 67, 81
1, 410805, Note_on_c, 0, 48, 0
1, 410840, Control_c, 0, 67, 76
1, 410851, Note_on_c, 0, 58, 33
1, 410895, Control_c, 0, 67, 70
1, 410951, Control_c, 0, 67, 66
1, 411007, Control_c, 0, 67, 62
1, 411064, Control_c, 0, 67, 58
1, 411104, Note_on_c, 0, 58, 0
1, 411104, Poly_aftertouch_c, 0, 58, 0
1, 411120, Control_c, 0, 67, 54
1, 411176, Control_c, 0, 67, 48
1, 411213, Control_c, 0, 67, 44
1, 411257, Note_on_c, 0, 82, 60
1, 411262, Note_on_c, 0, 60, 28
1, 411269, Control_c, 0, 67, 38
1, 411307, Control_c, 0, 67, 34
1, 411344, Control_c, 0, 67, 30
1, 411400, Control_c, 0, 67, 25
1, 411456, Control_c, 0, 67, 20
1, 411512, Control_c, 0, 67, 15
1, 411568, Control_c, 0, 67, 10
1, 411569, Poly_aftertouch_c, 0, 60, 24
1, 411585, Note_on_c, 0, 82, 0
1, 411597, Note_on_c, 0, 60, 0
1, 411597, Poly_aftertouch_c, 0, 60, 0
1, 411676, Note_on_c, 0, 81, 63
1, 411696, Note_on_c, 0, 72, 46
1, 411873, Note_on_c, 0, 60, 42
1, 412019, Poly_aftertouch_c, 0, 81, 24
1, 412033, Note_on_c, 0, 81, 0
1, 412033, Poly_aftertouch_c, 0, 81, 0
1, 412052, Note_on_c, 0, 80, 53
1, 412107, Note_on_c, 0, 58, 39
1, 412115, Note_on_c, 0, 60, 0
1, 412115, Poly_aftertouch_c, 0, 60, 0
1, 412116, Poly_aftertouch_c, 0, 72, 24
1, 412186, Note_on_c, 0, 72, 0
1, 412186, Poly_aftertouch_c, 0, 72, 0
1, 412193, Note_on_c, 0, 58, 0
1, 412193, Poly_aftertouch_c, 0, 58, 0
1, 412261, Note_on_c, 0, 80, 0
1, 412261, Poly_aftertouch_c, 0, 80, 0
1, 412331, Poly_aftertouch_c, 0, 48, 127
1, 412362, Poly_aftertouch_c, 0, 48, 0
1, 412381, Note_on_c, 0, 79, 60
1, 412389, Note_on_c, 0, 71, 54
1, 412440, Note_on_c, 0, 71, 0
1, 412440, Poly_aftertouch_c, 0, 71, 0
1, 412539, Note_on_c, 0, 48, 38
1, 412558, Note_on_c, 0, 79, 0
1, 412558, Poly_aftertouch_c, 0, 79, 0
1, 412644, Note_on_c, 0, 48, 0
1, 412691, Note_on_c, 0, 72, 57
1, 412696, Note_on_c, 0, 70, 43
1, 412721, Note_on_c, 0, 41, 39
1, 412728, Control_c, 0, 64, 112
1, 412747, Control_c, 0, 64, 79
1, 412767, Control_c, 0, 64, 47
1, 412784, Control_c, 0, 64, 40
1, 412802, Control_c, 0, 64, 51
1, 412817, Note_on_c, 0, 41, 0
1, 412817, Poly_aftertouch_c, 0, 41, 0
1, 412820, Control_c, 0, 64, 66
1, 412840, Control_c, 0, 64, 79
1, 412855, Note_on_c, 0, 48, 40
1, 412859, Control_c, 0, 64, 93
1, 412877, Control_c, 0, 64, 112
1, 412896, Control_c, 0, 64, 127
1, 412901, Note_on_c, 0, 48, 0
1, 413005, Note_on_c, 0, 48, 57
1, 413095, Note_on_c, 0, 48, 0
1, 413178, Note_on_c, 0, 58, 50
1, 413249, Note_on_c, 0, 58, 0
1, 413249, Poly_aftertouch_c, 0, 58, 0
1, 413383, Note_on_c, 0, 60, 43
1, 413446, Note_on_c, 0, 60, 0
1, 413446, Poly_aftertouch_c, 0, 60, 0
1, 413473, Note_on_c, 0, 79, 75
1, 413592, Note_on_c, 0, 72, 0
1, 413592, Poly_aftertouch_c, 0, 72, 0
1, 413701, Control_c, 0, 67, 14
1, 413793, Control_c, 0, 67, 18
1, 413815, Note_on_c, 0, 78, 73
1, 413832, Control_c, 0, 67, 26
1, 413905, Control_c, 0, 67, 31
1, 413907, Note_on_c, 0, 79, 0
1, 413907, Poly_aftertouch_c, 0, 79, 0
1, 413925, Control_c, 0, 67, 35
1, 413943, Control_c, 0, 67, 41
1, 413958, Note_on_c, 0, 60, 46
1, 413962, Note_on_c, 0, 70, 0
1, 413962, Poly_aftertouch_c, 0, 70, 0
1, 413981, Control_c, 0, 67, 46
1, 414007, Note_on_c, 0, 78, 0
1, 414037, Control_c, 0, 67, 54
1, 414056, Control_c, 0, 67, 59
1, 414064, Note_on_c, 0, 60, 0
1, 414064, Poly_aftertouch_c, 0, 60, 0
1, 414075, Note_on_c, 0, 77, 79
1, 414097, Note_on_c, 0, 69, 57
1, 414104, Note_on_c, 0, 58, 42
1, 414130, Note_on_c, 0, 69, 0
1, 414159, Note_on_c, 0, 58, 0
1, 414159, Poly_aftertouch_c, 0, 58, 0
1, 414223, Note_on_c, 0, 48, 52
1, 414256, Note_on_c, 0, 48, 0
1, 414347, Note_on_c, 0, 76, 76
1, 414361, Note_on_c, 0, 68, 63
1, 414392, Control_c, 0, 67, 63
1, 414429, Control_c, 0, 67, 69
1, 414448, Control_c, 0, 67, 74
1, 414468, Control_c, 0, 67, 78
1, 414484, Note_on_c, 0, 68, 0
1, 414484, Control_c, 0, 67, 82
1, 414494, Note_on_c, 0, 48, 45
1, 414502, Control_c, 0, 67, 89
1, 414525, Control_c, 0, 67, 96
1, 414542, Control_c, 0, 67, 103
1, 414559, Control_c, 0, 67, 109
1, 414571, Note_on_c, 0, 48, 0
1, 414597, Control_c, 0, 67, 113
1, 414616, Control_c, 0, 64, 121
1, 414637, Control_c, 0, 64, 96
1, 414644, Note_on_c, 0, 70, 63
1, 414649, Note_on_c, 0, 76, 0
1, 414652, Note_on_c, 0, 67, 51
1, 414654, Note_on_c, 0, 41, 50
1, 414656, Control_c, 0, 64, 65
1, 414673, Control_c, 0, 64, 27
1, 414677, Note_on_c, 0, 77, 0
1, 414692, Control_c, 0, 64, 13
1, 414710, Control_c, 0, 64, 45
1, 414730, Control_c, 0, 64, 73
1, 414747, Control_c, 0, 64, 95
1, 414757, Note_on_c, 0, 41, 0
1, 414757, Poly_aftertouch_c, 0, 41, 0
1, 414766, Control_c, 0, 64, 127
1, 414773, Note_on_c, 0, 48, 55
1, 414806, Note_on_c, 0, 48, 0
1, 414821, Control_c, 0, 67, 109
1, 414829, Note_on_c, 0, 67, 0
1, 414887, Note_on_c, 0, 70, 0
1, 414887, Poly_aftertouch_c, 0, 70, 0
1, 414923, Note_on_c, 0, 48, 55
1, 414966, Note_on_c, 0, 48, 0
1, 414972, Control_c, 0, 67, 105
1, 415027, Control_c, 0, 67, 100
1, 415065, Note_on_c, 0, 58, 59
1, 415065, Control_c, 0, 67, 95
1, 415128, Note_on_c, 0, 58, 0
1, 415128, Poly_aftertouch_c, 0, 58, 0
1, 415178, Control_c, 0, 67, 90
1, 415252, Note_on_c, 0, 60, 33
1, 415289, Control_c, 0, 67, 86
1, 415298, Note_on_c, 0, 60, 0
1, 415298, Poly_aftertouch_c, 0, 60, 0
1, 415340, Note_on_c, 0, 75, 70
1, 415348, Note_on_c, 0, 66, 55
1, 415366, Note_on_c, 0, 70, 51
1, 415604, Note_on_c, 0, 75, 0
1, 415604, Poly_aftertouch_c, 0, 75, 0
1, 415740, Note_on_c, 0, 74, 72
1, 415804, Note_on_c, 0, 66, 0
1, 415804, Poly_aftertouch_c, 0, 66, 0
1, 415887, Note_on_c, 0, 60, 56
1, 415944, Note_on_c, 0, 60, 0
1, 415944, Poly_aftertouch_c, 0, 60, 0
1, 416021, Note_on_c, 0, 73, 69
1, 416024, Note_on_c, 0, 65, 59
1, 416026, Note_on_c, 0, 58, 50
1, 416048, Note_on_c, 0, 74, 0
1, 416093, Control_c, 0, 67, 81
1, 416095, Note_on_c, 0, 58, 0
1, 416095, Poly_aftertouch_c, 0, 58, 0
1, 416150, Note_on_c, 0, 48, 56
1, 416152, Note_on_c, 0, 65, 0
1, 416152, Poly_aftertouch_c, 0, 65, 0
1, 416168, Control_c, 0, 67, 77
1, 416190, Note_on_c, 0, 48, 0
1, 416261, Control_c, 0, 67, 73
1, 416269, Note_on_c, 0, 70, 0
1, 416269, Poly_aftertouch_c, 0, 70, 0
1, 416277, Note_on_c, 0, 73, 0
1, 416277, Poly_aftertouch_c, 0, 73, 0
1, 416288, Note_on_c, 0, 64, 70
1, 416289, Note_on_c, 0, 72, 75
1, 416327, Note_on_c, 0, 64, 0
1, 416356, Control_c, 0, 67, 68
1, 416361, Note_on_c, 0, 72, 0
1, 416361, Poly_aftertouch_c, 0, 72, 0
1, 416432, Note_on_c, 0, 41, 57
1, 416468, Control_c, 0, 67, 64
1, 416478, Note_on_c, 0, 41, 0
1, 416478, Poly_aftertouch_c, 0, 41, 0
1, 416523, Control_c, 0, 67, 60
1, 416593, Note_on_c, 0, 59, 54
1, 416595, Note_on_c, 0, 63, 55
1, 416598, Control_c, 0, 64, 114
1, 416601, Note_on_c, 0, 66, 66
1, 416604, Note_on_c, 0, 29, 59
1, 416617, Control_c, 0, 64, 78
1, 416635, Control_c, 0, 64, 30
1, 416654, Control_c, 0, 64, 0
1, 416692, Control_c, 0, 64, 34
1, 416700, Note_on_c, 0, 29, 0
1, 416700, Poly_aftertouch_c, 0, 29, 0
1, 416710, Control_c, 0, 64, 66
1, 416731, Control_c, 0, 64, 90
1, 416737, Note_on_c, 0, 41, 63
1, 416749, Control_c, 0, 64, 116
1, 416766, Control_c, 0, 64, 127
1, 416767, Note_on_c, 0, 41, 0
1, 416767, Poly_aftertouch_c, 0, 41, 0
1, 416878, Control_c, 0, 67, 56
1, 416919, Note_on_c, 0, 51, 64
1, 416950, Note_on_c, 0, 63, 0
1, 417040, Note_on_c, 0, 59, 0
1, 417058, Note_on_c, 0, 51, 0
1, 417058, Poly_aftertouch_c, 0, 51, 0
1, 417074, Note_on_c, 0, 54, 58
1, 417161, Note_on_c, 0, 66, 0
1, 417161, Poly_aftertouch_c, 0, 66, 0
1, 417372, Note_on_c, 0, 63, 70
1, 417372, Note_on_c, 0, 71, 67
1, 417454, Note_on_c, 0, 54, 0
1, 417457, Control_c, 0, 67, 60
1, 417570, Control_c, 0, 67, 64
1, 417608, Control_c, 0, 67, 69
1, 417645, Control_c, 0, 67, 74
1, 417683, Control_c, 0, 67, 80
1, 417720, Control_c, 0, 67, 84
1, 417795, Control_c, 0, 67, 88
1, 417832, Control_c, 0, 67, 93
1, 417846, Note_on_c, 0, 70, 57
1, 417850, Control_c, 0, 67, 97
1, 417870, Control_c, 0, 67, 101
1, 417874, Note_on_c, 0, 71, 0
1, 417874, Poly_aftertouch_c, 0, 71, 0
1, 417907, Control_c, 0, 67, 107
1, 417925, Control_c, 0, 67, 111
1, 417930, Note_on_c, 0, 54, 53
1, 417942, Poly_aftertouch_c, 0, 63, 24
1, 417963, Control_c, 0, 67, 117
1, 418038, Control_c, 0, 67, 121
1, 418055, Note_on_c, 0, 54, 0
1, 418115, Note_on_c, 0, 70, 0
1, 418115, Poly_aftertouch_c, 0, 70, 0
1, 418127, Note_on_c, 0, 51, 59
1, 418157, Note_on_c, 0, 63, 0
1, 418157, Poly_aftertouch_c, 0, 63, 0
1, 418158, Poly_aftertouch_c, 0, 63, 0
1, 418166, Note_on_c, 0, 62, 62
1, 418170, Note_on_c, 0, 51, 0
1, 418170, Poly_aftertouch_c, 0, 51, 0
1, 418319, Control_c, 0, 67, 117
1, 418352, Note_on_c, 0, 41, 55
1, 418382, Note_on_c, 0, 41, 0
1, 418382, Poly_aftertouch_c, 0, 41, 0
1, 418450, Note_on_c, 0, 62, 0
1, 418450, Poly_aftertouch_c, 0, 62, 0
1, 418468, Control_c, 0, 67, 113
1, 418488, Note_on_c, 0, 69, 70
1, 418524, Control_c, 0, 67, 108
1, 418562, Control_c, 0, 67, 103
1, 418599, Control_c, 0, 67, 98
1, 418628, Note_on_c, 0, 41, 58
1, 418636, Control_c, 0, 67, 91
1, 418655, Control_c, 0, 67, 85
1, 418667, Note_on_c, 0, 41, 0
1, 418667, Poly_aftertouch_c, 0, 41, 0
1, 418671, Control_c, 0, 67, 81
1, 418711, Control_c, 0, 67, 76
1, 418743, Note_on_c, 0, 69, 0
1, 418747, Control_c, 0, 64, 118
1, 418749, Control_c, 0, 67, 72
1, 418768, Control_c, 0, 64, 106
1, 418770, Note_on_c, 0, 58, 63
1, 418771, Note_on_c, 0, 66, 67
1, 418781, Note_on_c, 0, 63, 60
1, 418787, Control_c, 0, 64, 83
1, 418787, Control_c, 0, 67, 64
1, 418788, Note_on_c, 0, 29, 61
1, 418806, Control_c, 0, 64, 49
1, 418809, Control_c, 0, 67, 57
1, 418825, Control_c, 0, 64, 0
1, 418827, Control_c, 0, 67, 52
1, 418861, Control_c, 0, 67, 48
1, 418872, Note_on_c, 0, 29, 0
1, 418872, Poly_aftertouch_c, 0, 29, 0
1, 418879, Control_c, 0, 64, 49
1, 418900, Control_c, 0, 64, 75
1, 418911, Note_on_c, 0, 41, 65
1, 418916, Control_c, 0, 64, 97
1, 418919, Control_c, 0, 67, 44
1, 418935, Control_c, 0, 64, 125
1, 418945, Note_on_c, 0, 41, 0
1, 418945, Poly_aftertouch_c, 0, 41, 0
1, 419003, Note_on_c, 0, 58, 0
1, 419003, Poly_aftertouch_c, 0, 58, 0
1, 419103, Note_on_c, 0, 51, 52
1, 419223, Note_on_c, 0, 51, 0
1, 419223, Poly_aftertouch_c, 0, 51, 0
1, 419229, Note_on_c, 0, 54, 59
1, 419406, Note_on_c, 0, 54, 0
1, 419407, Note_on_c, 0, 63, 0
1, 419407, Poly_aftertouch_c, 0, 54, 0
1, 419507, Note_on_c, 0, 70, 69
1, 419511, Note_on_c, 0, 62, 63
1, 419521, Note_on_c, 0, 66, 0
1, 419521, Poly_aftertouch_c, 0, 66, 0
1, 419627, Control_c, 0, 64, 101
1, 419628, Control_c, 0, 67, 48
1, 419647, Control_c, 0, 64, 77
1, 419665, Control_c, 0, 64, 73
1, 419684, Control_c, 0, 64, 80
1, 419703, Control_c, 0, 64, 90
1, 419705, Control_c, 0, 67, 53
1, 419721, Control_c, 0, 64, 104
1, 419739, Control_c, 0, 64, 119
1, 419740, Control_c, 0, 67, 59
1, 419759, Control_c, 0, 64, 127
1, 419764, Note_on_c, 0, 70, 0
1, 419764, Poly_aftertouch_c, 0, 70, 0
1, 419778, Control_c, 0, 67, 64
1, 419815, Control_c, 0, 67, 69
1, 419852, Control_c, 0, 67, 75
1, 419883, Note_on_c, 0, 62, 0
1, 419883, Poly_aftertouch_c, 0, 62, 0
1, 419888, Control_c, 0, 67, 80
1, 419927, Control_c, 0, 67, 85
1, 419932, Note_on_c, 0, 69, 60
1, 419964, Control_c, 0, 67, 90
1, 420001, Control_c, 0, 67, 95
1, 420039, Control_c, 0, 67, 100
1, 420059, Note_on_c, 0, 54, 49
1, 420076, Control_c, 0, 67, 105
1, 420115, Control_c, 0, 67, 111
1, 420122, Note_on_c, 0, 54, 0
1, 420150, Control_c, 0, 67, 116
1, 420188, Control_c, 0, 67, 120
1, 420227, Note_on_c, 0, 61, 58
1, 420236, Note_on_c, 0, 51, 54
1, 420262, Control_c, 0, 67, 124
1, 420269, Note_on_c, 0, 51, 0
1, 420269, Poly_aftertouch_c, 0, 51, 0
1, 420316, Note_on_c, 0, 69, 0
1, 420454, Note_on_c, 0, 61, 0
1, 420547, Note_on_c, 0, 68, 65
1, 420558, Note_on_c, 0, 60, 52
1, 420625, Note_on_c, 0, 60, 0
1, 420625, Poly_aftertouch_c, 0, 60, 0
1, 420700, Note_on_c, 0, 41, 51
1, 420736, Note_on_c, 0, 41, 0
1, 420736, Poly_aftertouch_c, 0, 41, 0
1, 420824, Control_c, 0, 64, 122
1, 420843, Control_c, 0, 64, 116
1, 420863, Control_c, 0, 64, 106
1, 420876, Note_on_c, 0, 68, 0
1, 420879, Control_c, 0, 64, 89
1, 420887, Note_on_c, 0, 63, 54
1, 420893, Note_on_c, 0, 29, 48
1, 420895, Note_on_c, 0, 61, 47
1, 420898, Control_c, 0, 64, 62
1, 420903, Note_on_c, 0, 57, 41
1, 420919, Control_c, 0, 64, 0
1, 420974, Control_c, 0, 64, 15
1, 420993, Control_c, 0, 64, 54
1, 421011, Control_c, 0, 64, 81
1, 421013, Note_on_c, 0, 29, 0
1, 421013, Poly_aftertouch_c, 0, 29, 0
1, 421031, Control_c, 0, 64, 101
1, 421049, Control_c, 0, 64, 125
1, 421055, Note_on_c, 0, 41, 54
1, 421092, Note_on_c, 0, 41, 0
1, 421092, Poly_aftertouch_c, 0, 41, 0
1, 421243, Note_on_c, 0, 61, 0
1, 421247, Note_on_c, 0, 57, 0
1, 421274, Note_on_c, 0, 51, 47
1, 421466, Note_on_c, 0, 51, 0
1, 421466, Poly_aftertouch_c, 0, 51, 0
1, 421481, Note_on_c, 0, 54, 35
1, 421659, Note_on_c, 0, 54, 0
1, 421707, Note_on_c, 0, 63, 0
1, 421803, Note_on_c, 0, 69, 64
1, 421823, Note_on_c, 0, 61, 53
1, 422111, Note_on_c, 0, 61, 0
1, 422545, Note_on_c, 0, 69, 0
1, 422555, Note_on_c, 0, 68, 51
1, 422789, Note_on_c, 0, 68, 0
1, 422836, Note_on_c, 0, 54, 28
1, 422952, Note_on_c, 0, 54, 0
1, 423131, Note_on_c, 0, 67, 50
1, 423164, Control_c, 0, 64, 112
1, 423176, Note_on_c, 0, 51, 33
1, 423180, Control_c, 0, 64, 80
1, 423200, Control_c, 0, 64, 56
1, 423236, Control_c, 0, 64, 65
1, 423257, Control_c, 0, 64, 77
1, 423274, Control_c, 0, 64, 90
1, 423292, Control_c, 0, 64, 107
1, 423312, Control_c, 0, 64, 120
1, 423313, Note_on_c, 0, 51, 0
1, 423313, Poly_aftertouch_c, 0, 51, 0
1, 423330, Control_c, 0, 64, 127
1, 423590, Note_on_c, 0, 60, 35
1, 423590, Control_c, 0, 64, 114
1, 423605, Note_on_c, 0, 41, 28
1, 423609, Control_c, 0, 64, 89
1, 423629, Control_c, 0, 64, 63
1, 423648, Control_c, 0, 64, 61
1, 423667, Control_c, 0, 64, 70
1, 423685, Control_c, 0, 64, 80
1, 423704, Control_c, 0, 64, 92
1, 423723, Control_c, 0, 64, 107
1, 423733, Note_on_c, 0, 41, 0
1, 423733, Poly_aftertouch_c, 0, 41, 0
1, 423740, Control_c, 0, 64, 118
1, 423760, Control_c, 0, 64, 123
1, 423854, Control_c, 0, 64, 127
1, 423869, Note_on_c, 0, 67, 0
1, 423917, Note_on_c, 0, 60, 0
1, 423917, Poly_aftertouch_c, 0, 60, 0
1, 424321, Note_on_c, 0, 66, 36
1, 424342, Note_on_c, 0, 61, 26
1, 424350, Note_on_c, 0, 57, 23
1, 424357, Note_on_c, 0, 51, 29
1, 424377, Control_c, 0, 64, 122
1, 424395, Control_c, 0, 64, 118
1, 424415, Control_c, 0, 64, 108
1, 424433, Control_c, 0, 64, 86
1, 424452, Control_c, 0, 64, 60
1, 424472, Control_c, 0, 64, 49
1, 424508, Control_c, 0, 64, 58
1, 424529, Control_c, 0, 64, 70
1, 424546, Control_c, 0, 64, 80
1, 424565, Control_c, 0, 64, 89
1, 424583, Control_c, 0, 64, 96
1, 424591, Poly_aftertouch_c, 0, 57, 24
1, 424599, Control_c, 0, 64, 102
1, 424639, Control_c, 0, 64, 108
1, 424644, Note_on_c, 0, 57, 0
1, 424644, Poly_aftertouch_c, 0, 57, 0
1, 424650, Poly_aftertouch_c, 0, 51, 24
1, 424677, Control_c, 0, 64, 112
1, 424687, Poly_aftertouch_c, 0, 61, 24
1, 424714, Control_c, 0, 64, 116
1, 424726, Note_on_c, 0, 51, 0
1, 424726, Poly_aftertouch_c, 0, 51, 0
1, 424731, Note_on_c, 0, 66, 0
1, 424731, Poly_aftertouch_c, 0, 66, 0
1, 424759, Note_on_c, 0, 61, 0
1, 424759, Poly_aftertouch_c, 0, 61, 0
1, 424825, Control_c, 0, 64, 120
1, 425573, Control_c, 0, 67, 120
1, 425760, Control_c, 0, 67, 116
1, 425873, Control_c, 0, 64, 116
1, 425875, Control_c, 0, 67, 112
1, 425919, Note_on_c, 0, 58, 32
1, 425926, Control_c, 0, 64, 109
1, 425933, Note_on_c, 0, 53, 32
1, 425936, Note_on_c, 0, 22, 38
1, 425936, Note_on_c, 0, 46, 28
1, 425938, Note_on_c, 0, 29, 31
1, 425946, Control_c, 0, 64, 95
1, 425947, Note_on_c, 0, 34, 27
1, 425966, Control_c, 0, 64, 67
1, 425985, Control_c, 0, 64, 15
1, 426004, Control_c, 0, 64, 0
1, 426023, Control_c, 0, 64, 15
1, 426026, Note_on_c, 0, 46, 0
1, 426026, Poly_aftertouch_c, 0, 46, 0
1, 426038, Note_on_c, 0, 53, 0
1, 426040, Control_c, 0, 64, 51
1, 426059, Control_c, 0, 64, 78
1, 426061, Note_on_c, 0, 22, 0
1, 426063, Note_on_c, 0, 29, 0
1, 426063, Poly_aftertouch_c, 0, 29, 0
1, 426079, Control_c, 0, 64, 98
1, 426083, Note_on_c, 0, 58, 0
1, 426083, Poly_aftertouch_c, 0, 58, 0
1, 426097, Control_c, 0, 64, 119
1, 426116, Control_c, 0, 64, 127
1, 426138, Note_on_c, 0, 34, 0
1, 426808, Note_on_c, 0, 65, 35
1, 426812, Note_on_c, 0, 54, 27
1, 426820, Note_on_c, 0, 58, 25
1, 426821, Note_on_c, 0, 42, 32
1, 426836, Note_on_c, 0, 53, 23
1, 426850, Note_on_c, 0, 46, 26
1, 426859, Note_on_c, 0, 50, 20
1, 426874, Note_on_c, 0, 62, 8
1, 426904, Note_on_c, 0, 65, 0
1, 426904, Poly_aftertouch_c, 0, 65, 0
1, 426926, Note_on_c, 0, 58, 0
1, 426926, Poly_aftertouch_c, 0, 58, 0
1, 426944, Note_on_c, 0, 50, 0
1, 426948, Note_on_c, 0, 46, 0
1, 426948, Poly_aftertouch_c, 0, 46, 0
1, 426959, Note_on_c, 0, 62, 0
1, 426959, Poly_aftertouch_c, 0, 62, 0
1, 427045, Note_on_c, 0, 54, 0
1, 427047, Note_on_c, 0, 53, 0
1, 427223, Note_on_c, 0, 42, 0
1, 427223, Poly_aftertouch_c, 0, 42, 0
1, 427593, Control_c, 0, 67, 108
1, 427724, Control_c, 0, 67, 103
1, 427855, Control_c, 0, 67, 99
1, 427926, Note_on_c, 0, 65, 42
1, 427927, Note_on_c, 0, 55, 39
1, 427941, Note_on_c, 0, 53, 36
1, 427943, Note_on_c, 0, 62, 39
1, 427944, Note_on_c, 0, 58, 33
1, 427949, Note_on_c, 0, 43, 35
1, 427953, Note_on_c, 0, 46, 34
1, 427953, Note_on_c, 0, 50, 34
1, 427985, Control_c, 0, 67, 95
1, 428005, Control_c, 0, 64, 112
1, 428023, Control_c, 0, 64, 86
1, 428042, Control_c, 0, 64, 70
1, 428061, Control_c, 0, 64, 73
1, 428072, Note_on_c, 0, 50, 0
1, 428078, Control_c, 0, 64, 76
1, 428081, Control_c, 0, 67, 91
1, 428099, Control_c, 0, 64, 82
1, 428117, Control_c, 0, 64, 90
1, 428135, Control_c, 0, 64, 98
1, 428156, Control_c, 0, 64, 106
1, 428173, Control_c, 0, 64, 110
1, 428197, Poly_aftertouch_c, 0, 53, 22
1, 428211, Control_c, 0, 67, 87
1, 428226, Note_on_c, 0, 62, 0
1, 428226, Poly_aftertouch_c, 0, 62, 0
1, 428238, Poly_aftertouch_c, 0, 43, 24
1, 428244, Note_on_c, 0, 55, 0
1, 428244, Poly_aftertouch_c, 0, 55, 0
1, 428247, Control_c, 0, 64, 114
1, 428253, Poly_aftertouch_c, 0, 58, 22
1, 428255, Note_on_c, 0, 53, 0
1, 428255, Poly_aftertouch_c, 0, 53, 0
1, 428265, Note_on_c, 0, 58, 0
1, 428265, Poly_aftertouch_c, 0, 58, 0
1, 428270, Note_on_c, 0, 65, 0
1, 428270, Poly_aftertouch_c, 0, 65, 0
1, 428285, Control_c, 0, 64, 118
1, 428294, Poly_aftertouch_c, 0, 50, 0
1, 428342, Control_c, 0, 64, 122
1, 428394, Poly_aftertouch_c, 0, 46, 24
1, 428397, Control_c, 0, 64, 127
1, 428466, Note_on_c, 0, 43, 0
1, 428466, Poly_aftertouch_c, 0, 43, 0
1, 428466, Poly_aftertouch_c, 0, 43, 0
1, 428473, Note_on_c, 0, 46, 0
1, 428473, Poly_aftertouch_c, 0, 46, 0
1, 428547, Control_c, 0, 67, 83
1, 428678, Control_c, 0, 67, 79
1, 428790, Control_c, 0, 67, 75
1, 428846, Control_c, 0, 67, 71
1, 428889, Note_on_c, 0, 56, 57
1, 428891, Note_on_c, 0, 65, 58
1, 428903, Note_on_c, 0, 53, 48
1, 428903, Note_on_c, 0, 62, 51
1, 428907, Note_on_c, 0, 50, 47
1, 428909, Note_on_c, 0, 58, 43
1, 428912, Note_on_c, 0, 44, 45
1, 428920, Control_c, 0, 67, 67
1, 428939, Note_on_c, 0, 56, 0
1, 428939, Poly_aftertouch_c, 0, 56, 0
1, 428941, Note_on_c, 0, 46, 32
1, 428942, Note_on_c, 0, 53, 0
1, 428942, Poly_aftertouch_c, 0, 53, 0
1, 428943, Note_on_c, 0, 62, 0
1, 428943, Poly_aftertouch_c, 0, 62, 0
1, 428946, Note_on_c, 0, 58, 0
1, 428946, Poly_aftertouch_c, 0, 58, 0
1, 428950, Note_on_c, 0, 50, 0
1, 428951, Note_on_c, 0, 65, 0
1, 428951, Poly_aftertouch_c, 0, 65, 0
1, 428987, Note_on_c, 0, 44, 0
1, 428987, Note_on_c, 0, 46, 0
1, 428987, Poly_aftertouch_c, 0, 44, 0
1, 428987, Poly_aftertouch_c, 0, 46, 0
1, 428995, Control_c, 0, 67, 62
1, 429033, Control_c, 0, 67, 58
1, 429071, Control_c, 0, 67, 54
1, 429126, Control_c, 0, 67, 48
1, 429163, Control_c, 0, 67, 42
1, 429183, Control_c, 0, 67, 37
1, 429201, Control_c, 0, 67, 30
1, 429220, Control_c, 0, 67, 22
1, 429239, Control_c, 0, 67, 17
1, 429257, Control_c, 0, 67, 13
1, 429295, Control_c, 0, 67, 9
1, 429338, Note_on_c, 0, 69, 67
1, 429353, Note_on_c, 0, 57, 52
1, 429356, Note_on_c, 0, 62, 55
1, 429358, Note_on_c, 0, 42, 54
1, 429358, Note_on_c, 0, 66, 57
1, 429359, Note_on_c, 0, 45, 49
1, 429365, Note_on_c, 0, 33, 45
1, 429373, Control_c, 0, 64, 106
1, 429383, Note_on_c, 0, 38, 46
1, 429389, Control_c, 0, 64, 68
1, 429406, Control_c, 0, 64, 10
1, 429446, Control_c, 0, 64, 39
1, 429460, Note_on_c, 0, 57, 0
1, 429460, Poly_aftertouch_c, 0, 57, 0
1, 429461, Note_on_c, 0, 33, 0
1, 429461, Control_c, 0, 64, 64
1, 429469, Note_on_c, 0, 38, 0
1, 429474, Note_on_c, 0, 62, 0
1, 429474, Poly_aftertouch_c, 0, 62, 0
1, 429480, Control_c, 0, 64, 85
1, 429487, Note_on_c, 0, 42, 0
1, 429487, Poly_aftertouch_c, 0, 42, 0
1, 429493, Note_on_c, 0, 45, 0
1, 429493, Poly_aftertouch_c, 0, 45, 0
1, 429494, Note_on_c, 0, 66, 0
1, 429494, Poly_aftertouch_c, 0, 66, 0
1, 429499, Control_c, 0, 64, 108
1, 429509, Note_on_c, 0, 69, 0
1, 429518, Control_c, 0, 64, 127
1, 429852, Note_on_c, 0, 74, 73
1, 429862, Note_on_c, 0, 64, 68
1, 429872, Note_on_c, 0, 62, 51
1, 429878, Note_on_c, 0, 58, 55
1, 429882, Note_on_c, 0, 70, 52
1, 429887, Note_on_c, 0, 52, 51
1, 429900, Note_on_c, 0, 50, 41
1, 429968, Control_c, 0, 64, 123
1, 429987, Control_c, 0, 64, 95
1, 430005, Control_c, 0, 64, 71
1, 430043, Control_c, 0, 64, 73
1, 430061, Control_c, 0, 64, 82
1, 430080, Control_c, 0, 64, 99
1, 430099, Control_c, 0, 64, 123
1, 430117, Control_c, 0, 64, 127
1, 430174, Control_c, 0, 67, 13
1, 430178, Note_on_c, 0, 62, 0
1, 430178, Poly_aftertouch_c, 0, 62, 0
1, 430257, Note_on_c, 0, 64, 0
1, 430263, Note_on_c, 0, 58, 0
1, 430263, Note_on_c, 0, 50, 0
1, 430263, Poly_aftertouch_c, 0, 58, 0
1, 430487, Note_on_c, 0, 74, 0
1, 430542, Note_on_c, 0, 70, 0
1, 430542, Poly_aftertouch_c, 0, 70, 0
1, 430548, Note_on_c, 0, 52, 0
1, 430697, Control_c, 0, 67, 17
1, 430977, Note_on_c, 0, 74, 60
1, 430984, Note_on_c, 0, 65, 54
1, 430990, Note_on_c, 0, 62, 46
1, 430996, Note_on_c, 0, 50, 35
1, 430999, Note_on_c, 0, 70, 47
1, 431001, Note_on_c, 0, 58, 35
1, 431016, Note_on_c, 0, 53, 35
1, 431053, Control_c, 0, 64, 115
1, 431072, Control_c, 0, 64, 95
1, 431090, Control_c, 0, 64, 69
1, 431109, Control_c, 0, 64, 48
1, 431111, Control_c, 0, 67, 23
1, 431128, Control_c, 0, 64, 40
1, 431145, Control_c, 0, 64, 45
1, 431146, Control_c, 0, 67, 28
1, 431165, Control_c, 0, 64, 57
1, 431184, Control_c, 0, 64, 69
1, 431185, Control_c, 0, 67, 33
1, 431201, Control_c, 0, 64, 81
1, 431221, Control_c, 0, 64, 93
1, 431239, Control_c, 0, 64, 106
1, 431240, Control_c, 0, 67, 38
1, 431254, Note_on_c, 0, 62, 0
1, 431254, Poly_aftertouch_c, 0, 62, 0
1, 431259, Control_c, 0, 64, 115
1, 431277, Control_c, 0, 64, 120
1, 431295, Control_c, 0, 64, 126
1, 431314, Control_c, 0, 67, 42
1, 431377, Note_on_c, 0, 65, 0
1, 431377, Poly_aftertouch_c, 0, 65, 0
1, 431379, Note_on_c, 0, 50, 0
1, 431389, Control_c, 0, 67, 46
1, 431391, Note_on_c, 0, 58, 0
1, 431391, Poly_aftertouch_c, 0, 58, 0
1, 431464, Control_c, 0, 67, 50
1, 431515, Note_on_c, 0, 74, 0
1, 431539, Control_c, 0, 67, 54
1, 431547, Poly_aftertouch_c, 0, 70, 24
1, 431635, Note_on_c, 0, 70, 0
1, 431635, Poly_aftertouch_c, 0, 70, 0
1, 431678, Poly_aftertouch_c, 0, 53, 24
1, 431757, Note_on_c, 0, 53, 0
1, 431757, Poly_aftertouch_c, 0, 53, 0
1, 432025, Control_c, 0, 64, 118
1, 432042, Control_c, 0, 64, 101
1, 432043, Note_on_c, 0, 74, 61
1, 432049, Note_on_c, 0, 66, 53
1, 432054, Note_on_c, 0, 50, 42
1, 432055, Note_on_c, 0, 58, 46
1, 432056, Note_on_c, 0, 70, 48
1, 432058, Note_on_c, 0, 54, 46
1, 432060, Note_on_c, 0, 62, 37
1, 432062, Control_c, 0, 64, 97
1, 432080, Control_c, 0, 64, 105
1, 432098, Note_on_c, 0, 74, 0
1, 432099, Control_c, 0, 64, 119
1, 432103, Note_on_c, 0, 58, 0
1, 432103, Poly_aftertouch_c, 0, 58, 0
1, 432108, Note_on_c, 0, 54, 0
1, 432108, Note_on_c, 0, 62, 0
1, 432108, Poly_aftertouch_c, 0, 62, 0
1, 432111, Note_on_c, 0, 66, 0
1, 432111, Poly_aftertouch_c, 0, 66, 0
1, 432113, Note_on_c, 0, 70, 0
1, 432113, Poly_aftertouch_c, 0, 70, 0
1, 432117, Note_on_c, 0, 50, 0
1, 432118, Control_c, 0, 64, 127
1, 432193, Control_c, 0, 67, 60
1, 432231, Control_c, 0, 67, 69
1, 432249, Control_c, 0, 67, 77
1, 432268, Control_c, 0, 67, 85
1, 432286, Control_c, 0, 67, 90
1, 432324, Control_c, 0, 67, 97
1, 432342, Control_c, 0, 67, 102
1, 432361, Control_c, 0, 67, 106
1, 432381, Control_c, 0, 67, 110
1, 432398, Control_c, 0, 67, 115
1, 432417, Control_c, 0, 67, 119
1, 432436, Control_c, 0, 67, 124
1, 432585, Control_c, 0, 64, 119
1, 432605, Control_c, 0, 64, 111
1, 432622, Control_c, 0, 64, 100
1, 432642, Control_c, 0, 64, 88
1, 432661, Control_c, 0, 64, 77
1, 432678, Control_c, 0, 64, 67
1, 432698, Control_c, 0, 64, 58
1, 432716, Note_on_c, 0, 58, 33
1, 432716, Control_c, 0, 64, 37
1, 432722, Note_on_c, 0, 53, 37
1, 432726, Note_on_c, 0, 46, 23
1, 432736, Control_c, 0, 64, 0
1, 432746, Note_on_c, 0, 29, 31
1, 432749, Note_on_c, 0, 22, 33
1, 432757, Note_on_c, 0, 34, 23
1, 432792, Control_c, 0, 64, 16
1, 432810, Control_c, 0, 64, 50
1, 432829, Control_c, 0, 64, 76
1, 432848, Control_c, 0, 64, 92
1, 432866, Control_c, 0, 64, 112
1, 432868, Note_on_c, 0, 53, 0
1, 432868, Poly_aftertouch_c, 0, 53, 0
1, 432873, Note_on_c, 0, 22, 0
1, 432874, Note_on_c, 0, 29, 0
1, 432874, Poly_aftertouch_c, 0, 29, 0
1, 432884, Control_c, 0, 64, 127
1, 432898, Note_on_c, 0, 46, 0
1, 432898, Poly_aftertouch_c, 0, 46, 0
1, 432912, Note_on_c, 0, 58, 0
1, 432912, Poly_aftertouch_c, 0, 58, 0
1, 432921, Note_on_c, 0, 34, 0
1, 433666, Note_on_c, 0, 71, 39
1, 433672, Note_on_c, 0, 59, 34
1, 433679, Note_on_c, 0, 61, 30
1, 433679, Note_on_c, 0, 77, 37
1, 433680, Note_on_c, 0, 53, 29
1, 433684, Note_on_c, 0, 73, 32
1, 433701, Note_on_c, 0, 65, 15
1, 433930, Poly_aftertouch_c, 0, 53, 24
1, 433969, Poly_aftertouch_c, 0, 77, 24
1, 433971, Poly_aftertouch_c, 0, 65, 24
1, 433992, Poly_aftertouch_c, 0, 61, 24
1, 434038, Note_on_c, 0, 73, 0
1, 434038, Poly_aftertouch_c, 0, 73, 0
1, 434047, Note_on_c, 0, 53, 0
1, 434047, Poly_aftertouch_c, 0, 53, 0
1, 434060, Note_on_c, 0, 61, 0
1, 434060, Poly_aftertouch_c, 0, 61, 0
1, 434067, Note_on_c, 0, 77, 0
1, 434067, Poly_aftertouch_c, 0, 77, 0
1, 434105, Note_on_c, 0, 65, 0
1, 434105, Poly_aftertouch_c, 0, 65, 0
1, 434106, Poly_aftertouch_c, 0, 65, 0
1, 434140, Note_on_c, 0, 71, 0
1, 434140, Poly_aftertouch_c, 0, 71, 0
1, 434184, Poly_aftertouch_c, 0, 59, 24
1, 434319, Note_on_c, 0, 59, 0
1, 434319, Poly_aftertouch_c, 0, 59, 0
1, 434381, Control_c, 0, 67, 119
1, 434455, Control_c, 0, 67, 115
1, 434530, Control_c, 0, 67, 110
1, 434586, Control_c, 0, 67, 106
1, 434661, Control_c, 0, 67, 101
1, 434727, Note_on_c, 0, 72, 52
1, 434736, Control_c, 0, 67, 96
1, 434741, Note_on_c, 0, 77, 44
1, 434742, Note_on_c, 0, 60, 44
1, 434748, Note_on_c, 0, 53, 30
1, 434748, Note_on_c, 0, 65, 30
1, 434752, Note_on_c, 0, 61, 33
1, 434755, Note_on_c, 0, 73, 32
1, 434773, Control_c, 0, 67, 92
1, 434848, Control_c, 0, 67, 87
1, 434903, Control_c, 0, 67, 83
1, 434941, Control_c, 0, 67, 78
1, 434979, Control_c, 0, 67, 74
1, 434999, Note_on_c, 0, 73, 0
1, 434999, Poly_aftertouch_c, 0, 73, 0
1, 435003, Note_on_c, 0, 53, 0
1, 435003, Poly_aftertouch_c, 0, 53, 0
1, 435035, Control_c, 0, 67, 69
1, 435040, Poly_aftertouch_c, 0, 61, 20
1, 435041, Poly_aftertouch_c, 0, 65, 24
1, 435049, Note_on_c, 0, 61, 0
1, 435049, Poly_aftertouch_c, 0, 61, 0
1, 435090, Note_on_c, 0, 65, 0
1, 435090, Poly_aftertouch_c, 0, 65, 0
1, 435091, Poly_aftertouch_c, 0, 65, 0
1, 435091, Control_c, 0, 67, 64
1, 435148, Control_c, 0, 67, 58
1, 435184, Control_c, 0, 67, 54
1, 435223, Control_c, 0, 67, 50
1, 435236, Note_on_c, 0, 77, 0
1, 435236, Poly_aftertouch_c, 0, 77, 0
1, 435259, Control_c, 0, 67, 46
1, 435282, Poly_aftertouch_c, 0, 72, 24
1, 435335, Control_c, 0, 67, 42
1, 435374, Note_on_c, 0, 72, 0
1, 435374, Poly_aftertouch_c, 0, 72, 0
1, 435390, Control_c, 0, 67, 37
1, 435447, Control_c, 0, 67, 33
1, 435502, Control_c, 0, 67, 29
1, 435539, Control_c, 0, 67, 25
1, 435576, Control_c, 0, 67, 20
1, 435615, Control_c, 0, 67, 14
1, 435675, Poly_aftertouch_c, 0, 60, 24
1, 435690, Control_c, 0, 67, 10
1, 435701, Note_on_c, 0, 77, 60
1, 435705, Note_on_c, 0, 73, 65
1, 435712, Note_on_c, 0, 65, 43
1, 435720, Note_on_c, 0, 61, 53
1, 435723, Note_on_c, 0, 60, 0
1, 435723, Poly_aftertouch_c, 0, 60, 0
1, 435732, Note_on_c, 0, 53, 46
1, 435750, Note_on_c, 0, 65, 0
1, 435753, Note_on_c, 0, 77, 0
1, 435753, Poly_aftertouch_c, 0, 77, 0
1, 435764, Note_on_c, 0, 61, 0
1, 435764, Poly_aftertouch_c, 0, 61, 0
1, 435768, Note_on_c, 0, 73, 0
1, 435768, Poly_aftertouch_c, 0, 73, 0
1, 435772, Note_on_c, 0, 53, 0
1, 435772, Poly_aftertouch_c, 0, 53, 0
1, 436128, Note_on_c, 0, 80, 72
1, 436133, Note_on_c, 0, 77, 69
1, 436135, Note_on_c, 0, 73, 63
1, 436136, Note_on_c, 0, 56, 65
1, 436137, Note_on_c, 0, 68, 59
1, 436139, Note_on_c, 0, 53, 66
1, 436139, Control_c, 0, 64, 115
1, 436145, Note_on_c, 0, 44, 58
1, 436158, Note_on_c, 0, 49, 56
1, 436158, Control_c, 0, 64, 80
1, 436175, Control_c, 0, 64, 28
1, 436195, Control_c, 0, 64, 0
1, 436232, Control_c, 0, 64, 9
1, 436250, Control_c, 0, 64, 46
1, 436263, Note_on_c, 0, 44, 0
1, 436263, Poly_aftertouch_c, 0, 44, 0
1, 436264, Note_on_c, 0, 68, 0
1, 436269, Control_c, 0, 64, 69
1, 436278, Note_on_c, 0, 49, 0
1, 436278, Poly_aftertouch_c, 0, 49, 0
1, 436289, Note_on_c, 0, 53, 0
1, 436289, Poly_aftertouch_c, 0, 53, 0
1, 436289, Control_c, 0, 64, 86
1, 436291, Note_on_c, 0, 73, 0
1, 436291, Poly_aftertouch_c, 0, 73, 0
1, 436300, Note_on_c, 0, 77, 0
1, 436300, Poly_aftertouch_c, 0, 77, 0
1, 436305, Control_c, 0, 64, 101
1, 436318, Note_on_c, 0, 56, 0
1, 436318, Poly_aftertouch_c, 0, 56, 0
1, 436325, Control_c, 0, 64, 116
1, 436333, Note_on_c, 0, 80, 0
1, 436333, Poly_aftertouch_c, 0, 80, 0
1, 436344, Control_c, 0, 64, 127
1, 436363, Control_c, 0, 67, 14
1, 436736, Control_c, 0, 67, 18
1, 436751, Note_on_c, 0, 85, 75
1, 436764, Note_on_c, 0, 75, 66
1, 436768, Note_on_c, 0, 70, 52
1, 436772, Note_on_c, 0, 73, 50
1, 436772, Note_on_c, 0, 82, 60
1, 436775, Note_on_c, 0, 61, 48
1, 436779, Note_on_c, 0, 63, 51
1, 437128, Note_on_c, 0, 70, 0
1, 437128, Poly_aftertouch_c, 0, 70, 0
1, 437166, Note_on_c, 0, 73, 0
1, 437166, Poly_aftertouch_c, 0, 73, 0
1, 437205, Note_on_c, 0, 61, 0
1, 437205, Poly_aftertouch_c, 0, 61, 0
1, 437316, Control_c, 0, 67, 23
1, 437373, Control_c, 0, 67, 27
1, 437410, Note_on_c, 0, 82, 0
1, 437428, Control_c, 0, 67, 31
1, 437522, Note_on_c, 0, 85, 0
1, 437573, Note_on_c, 0, 75, 0
1, 437573, Poly_aftertouch_c, 0, 75, 0
1, 437577, Control_c, 0, 67, 35
1, 437618, Note_on_c, 0, 63, 0
1, 437747, Control_c, 0, 67, 39
1, 437822, Control_c, 0, 67, 44
1, 438049, Note_on_c, 0, 85, 55
1, 438053, Note_on_c, 0, 76, 47
1, 438055, Note_on_c, 0, 61, 30
1, 438061, Note_on_c, 0, 70, 34
1, 438063, Control_c, 0, 67, 48
1, 438071, Note_on_c, 0, 73, 38
1, 438089, Note_on_c, 0, 64, 35
1, 438102, Control_c, 0, 64, 120
1, 438120, Control_c, 0, 64, 112
1, 438139, Control_c, 0, 64, 95
1, 438159, Control_c, 0, 64, 73
1, 438177, Control_c, 0, 64, 59
1, 438177, Control_c, 0, 67, 52
1, 438233, Control_c, 0, 64, 65
1, 438251, Control_c, 0, 64, 71
1, 438252, Control_c, 0, 67, 56
1, 438271, Control_c, 0, 64, 79
1, 438289, Control_c, 0, 64, 86
1, 438308, Control_c, 0, 64, 95
1, 438309, Control_c, 0, 67, 61
1, 438326, Control_c, 0, 64, 103
1, 438345, Control_c, 0, 64, 108
1, 438364, Control_c, 0, 64, 112
1, 438383, Control_c, 0, 64, 116
1, 438401, Control_c, 0, 64, 121
1, 438402, Control_c, 0, 67, 65
1, 438420, Control_c, 0, 64, 125
1, 438457, Control_c, 0, 67, 69
1, 438550, Control_c, 0, 67, 74
1, 438557, Note_on_c, 0, 70, 0
1, 438557, Poly_aftertouch_c, 0, 70, 0
1, 438607, Control_c, 0, 67, 78
1, 438632, Note_on_c, 0, 73, 0
1, 438632, Poly_aftertouch_c, 0, 73, 0
1, 438662, Note_on_c, 0, 61, 0
1, 438662, Poly_aftertouch_c, 0, 61, 0
1, 438700, Control_c, 0, 67, 82
1, 438708, Note_on_c, 0, 85, 0
1, 438766, Note_on_c, 0, 76, 0
1, 438774, Control_c, 0, 67, 86
1, 438868, Control_c, 0, 67, 90
1, 438962, Control_c, 0, 67, 94
1, 439010, Note_on_c, 0, 64, 0
1, 439055, Control_c, 0, 67, 98
1, 439129, Control_c, 0, 67, 102
1, 439224, Control_c, 0, 67, 107
1, 439317, Control_c, 0, 67, 111
1, 439373, Control_c, 0, 67, 115
1, 439467, Control_c, 0, 67, 119
1, 439587, Note_on_c, 0, 85, 33
1, 439605, Note_on_c, 0, 73, 21
1, 439610, Note_on_c, 0, 61, 13
1, 439611, Note_on_c, 0, 65, 27
1, 439614, Note_on_c, 0, 82, 28
1, 439615, Control_c, 0, 67, 124
1, 439622, Note_on_c, 0, 70, 17
1, 439636, Control_c, 0, 64, 121
1, 439654, Control_c, 0, 64, 117
1, 439657, Poly_aftertouch_c, 0, 77, 127
1, 439672, Control_c, 0, 64, 107
1, 439691, Control_c, 0, 64, 90
1, 439710, Control_c, 0, 64, 69
1, 439728, Control_c, 0, 64, 61
1, 439747, Control_c, 0, 64, 63
1, 439766, Control_c, 0, 64, 68
1, 439785, Control_c, 0, 64, 75
1, 439803, Control_c, 0, 64, 83
1, 439823, Control_c, 0, 64, 91
1, 439842, Control_c, 0, 64, 99
1, 439859, Control_c, 0, 64, 106
1, 439865, Poly_aftertouch_c, 0, 70, 24
1, 439878, Control_c, 0, 64, 112
1, 439897, Control_c, 0, 64, 116
1, 439914, Note_on_c, 0, 70, 0
1, 439914, Poly_aftertouch_c, 0, 70, 0
1, 439916, Control_c, 0, 64, 121
1, 439934, Control_c, 0, 64, 126
1, 439951, Note_on_c, 0, 65, 0
1, 440017, Poly_aftertouch_c, 0, 61, 24
1, 440021, Poly_aftertouch_c, 0, 82, 24
1, 440063, Note_on_c, 0, 61, 0
1, 440063, Poly_aftertouch_c, 0, 61, 0
1, 440081, Note_on_c, 0, 82, 0
1, 440081, Poly_aftertouch_c, 0, 82, 0
1, 440090, Note_on_c, 0, 85, 0
1, 440138, Poly_aftertouch_c, 0, 73, 24
1, 440192, Note_on_c, 0, 73, 0
1, 440192, Poly_aftertouch_c, 0, 73, 0
1, 440237, Poly_aftertouch_c, 0, 77, 24
1, 440314, Poly_aftertouch_c, 0, 77, 0
1, 441136, Note_on_c, 0, 46, 33
1, 441141, Note_on_c, 0, 34, 31
1, 441225, Control_c, 0, 64, 122
1, 441243, Control_c, 0, 64, 115
1, 441262, Control_c, 0, 64, 95
1, 441281, Control_c, 0, 64, 71
1, 441299, Control_c, 0, 64, 67
1, 441320, Control_c, 0, 64, 70
1, 441336, Control_c, 0, 64, 74
1, 441356, Control_c, 0, 64, 80
1, 441374, Control_c, 0, 64, 86
1, 441393, Control_c, 0, 64, 94
1, 441410, Control_c, 0, 64, 103
1, 441430, Control_c, 0, 64, 109
1, 441468, Control_c, 0, 64, 114
1, 441505, Control_c, 0, 64, 118
1, 441542, Control_c, 0, 64, 122
1, 441617, Control_c, 0, 64, 127
1, 441630, Note_on_c, 0, 58, 42
1, 441724, Note_on_c, 0, 46, 0
1, 441724, Poly_aftertouch_c, 0, 46, 0
1, 441779, Note_on_c, 0, 49, 40
1, 441883, Note_on_c, 0, 58, 0
1, 441883, Poly_aftertouch_c, 0, 58, 0
1, 441905, Note_on_c, 0, 34, 0
1, 441971, Note_on_c, 0, 53, 10
1, 441992, Note_on_c, 0, 49, 0
1, 441992, Poly_aftertouch_c, 0, 49, 0
1, 441999, Note_on_c, 0, 45, 49
1, 442024, Note_on_c, 0, 33, 34
1, 442043, Note_on_c, 0, 53, 0
1, 442043, Poly_aftertouch_c, 0, 53, 0
1, 442097, Note_on_c, 0, 58, 20
1, 442138, Note_on_c, 0, 33, 0
1, 442147, Note_on_c, 0, 48, 50
1, 442152, Note_on_c, 0, 45, 0
1, 442152, Poly_aftertouch_c, 0, 45, 0
1, 442158, Note_on_c, 0, 58, 0
1, 442158, Poly_aftertouch_c, 0, 58, 0
1, 442256, Note_on_c, 0, 52, 37
1, 442265, Note_on_c, 0, 48, 0
1, 442332, Note_on_c, 0, 52, 0
1, 442389, Note_on_c, 0, 42, 53
1, 442409, Note_on_c, 0, 30, 43
1, 442440, Control_c, 0, 64, 120
1, 442444, Note_on_c, 0, 58, 14
1, 442458, Control_c, 0, 64, 112
1, 442478, Control_c, 0, 64, 95
1, 442496, Control_c, 0, 64, 72
1, 442514, Control_c, 0, 64, 56
1, 442518, Note_on_c, 0, 58, 0
1, 442518, Poly_aftertouch_c, 0, 58, 0
1, 442523, Note_on_c, 0, 47, 47
1, 442552, Control_c, 0, 64, 60
1, 442570, Control_c, 0, 64, 68
1, 442590, Control_c, 0, 64, 77
1, 442608, Control_c, 0, 64, 84
1, 442625, Note_on_c, 0, 51, 43
1, 442626, Control_c, 0, 64, 93
1, 442633, Note_on_c, 0, 47, 0
1, 442646, Control_c, 0, 64, 102
1, 442664, Control_c, 0, 64, 107
1, 442740, Control_c, 0, 64, 112
1, 442756, Note_on_c, 0, 58, 39
1, 442771, Note_on_c, 0, 51, 0
1, 442771, Poly_aftertouch_c, 0, 51, 0
1, 442774, Control_c, 0, 64, 117
1, 442809, Note_on_c, 0, 58, 0
1, 442809, Poly_aftertouch_c, 0, 58, 0
1, 442833, Note_on_c, 0, 48, 55
1, 442842, Note_on_c, 0, 42, 0
1, 442842, Poly_aftertouch_c, 0, 42, 0
1, 442858, Note_on_c, 0, 30, 0
1, 442928, Note_on_c, 0, 48, 0
1, 443069, Note_on_c, 0, 43, 60
1, 443072, Poly_aftertouch_c, 0, 53, 0
1, 443089, Note_on_c, 0, 31, 45
1, 443091, Note_on_c, 0, 58, 34
1, 443093, Control_c, 0, 64, 112
1, 443113, Control_c, 0, 64, 104
1, 443132, Control_c, 0, 64, 85
1, 443150, Control_c, 0, 64, 57
1, 443169, Control_c, 0, 64, 26
1, 443204, Note_on_c, 0, 49, 47
1, 443208, Control_c, 0, 64, 39
1, 443222, Note_on_c, 0, 58, 0
1, 443222, Poly_aftertouch_c, 0, 58, 0
1, 443225, Note_on_c, 0, 31, 0
1, 443227, Control_c, 0, 64, 54
1, 443244, Control_c, 0, 64, 71
1, 443262, Control_c, 0, 64, 83
1, 443281, Control_c, 0, 64, 89
1, 443289, Note_on_c, 0, 43, 0
1, 443300, Control_c, 0, 64, 94
1, 443313, Note_on_c, 0, 53, 31
1, 443318, Control_c, 0, 64, 99
1, 443334, Note_on_c, 0, 49, 0
1, 443334, Poly_aftertouch_c, 0, 49, 0
1, 443336, Control_c, 0, 64, 104
1, 443374, Control_c, 0, 64, 109
1, 443398, Note_on_c, 0, 53, 0
1, 443518, Note_on_c, 0, 46, 55
1, 443543, Note_on_c, 0, 34, 39
1, 443544, Control_c, 0, 64, 103
1, 443562, Control_c, 0, 64, 95
1, 443581, Control_c, 0, 64, 78
1, 443600, Control_c, 0, 64, 54
1, 443618, Control_c, 0, 64, 27
1, 443636, Control_c, 0, 64, 18
1, 443657, Control_c, 0, 64, 28
1, 443674, Control_c, 0, 64, 43
1, 443693, Control_c, 0, 64, 60
1, 443712, Control_c, 0, 64, 76
1, 443730, Control_c, 0, 64, 83
1, 443749, Control_c, 0, 64, 89
1, 443767, Control_c, 0, 64, 94
1, 443785, Control_c, 0, 64, 99
1, 443805, Control_c, 0, 64, 105
1, 443823, Control_c, 0, 64, 110
1, 443842, Control_c, 0, 64, 114
1, 443880, Control_c, 0, 64, 118
1, 443916, Note_on_c, 0, 58, 39
1, 443917, Control_c, 0, 64, 123
1, 443972, Control_c, 0, 64, 127
1, 443985, Note_on_c, 0, 46, 0
1, 443985, Poly_aftertouch_c, 0, 46, 0
1, 444016, Note_on_c, 0, 48, 50
1, 444020, Note_on_c, 0, 58, 0
1, 444020, Poly_aftertouch_c, 0, 58, 0
1, 444100, Note_on_c, 0, 52, 39
1, 444103, Control_c, 0, 67, 120
1, 444114, Note_on_c, 0, 48, 0
1, 444199, Note_on_c, 0, 52, 0
1, 444227, Note_on_c, 0, 45, 70
1, 444234, Note_on_c, 0, 58, 39
1, 444273, Note_on_c, 0, 33, 51
1, 444284, Note_on_c, 0, 34, 0
1, 444290, Control_c, 0, 67, 116
1, 444318, Note_on_c, 0, 58, 0
1, 444318, Poly_aftertouch_c, 0, 58, 0
1, 444368, Note_on_c, 0, 47, 48
1, 444395, Note_on_c, 0, 45, 0
1, 444395, Poly_aftertouch_c, 0, 45, 0
1, 444410, Note_on_c, 0, 33, 0
1, 444431, Note_on_c, 0, 47, 0
1, 444448, Note_on_c, 0, 51, 50
1, 444518, Note_on_c, 0, 51, 0
1, 444518, Poly_aftertouch_c, 0, 51, 0
1, 444591, Note_on_c, 0, 41, 69
1, 444602, Note_on_c, 0, 58, 27
1, 444607, Control_c, 0, 64, 121
1, 444625, Note_on_c, 0, 29, 51
1, 444627, Control_c, 0, 64, 114
1, 444646, Control_c, 0, 64, 94
1, 444666, Control_c, 0, 64, 65
1, 444668, Control_c, 0, 67, 120
1, 444671, Note_on_c, 0, 58, 0
1, 444671, Poly_aftertouch_c, 0, 58, 0
1, 444680, Note_on_c, 0, 46, 48
1, 444683, Control_c, 0, 64, 23
1, 444702, Control_c, 0, 64, 0
1, 444740, Control_c, 0, 64, 27
1, 444758, Control_c, 0, 64, 48
1, 444765, Note_on_c, 0, 46, 0
1, 444765, Poly_aftertouch_c, 0, 46, 0
1, 444777, Control_c, 0, 64, 65
1, 444796, Control_c, 0, 64, 77
1, 444814, Control_c, 0, 64, 83
1, 444817, Note_on_c, 0, 50, 19
1, 444834, Control_c, 0, 64, 88
1, 444852, Control_c, 0, 64, 96
1, 444871, Control_c, 0, 64, 106
1, 444890, Control_c, 0, 64, 113
1, 444899, Note_on_c, 0, 50, 0
1, 444906, Note_on_c, 0, 58, 59
1, 444927, Control_c, 0, 64, 117
1, 444928, Control_c, 0, 67, 124
1, 444964, Note_on_c, 0, 29, 0
1, 444964, Poly_aftertouch_c, 0, 29, 0
1, 445036, Note_on_c, 0, 47, 53
1, 445042, Note_on_c, 0, 41, 0
1, 445042, Poly_aftertouch_c, 0, 41, 0
1, 445091, Note_on_c, 0, 47, 0
1, 445117, Note_on_c, 0, 58, 0
1, 445117, Poly_aftertouch_c, 0, 58, 0
1, 445131, Control_c, 0, 64, 121
1, 445137, Note_on_c, 0, 51, 47
1, 445208, Note_on_c, 0, 51, 0
1, 445208, Poly_aftertouch_c, 0, 51, 0
1, 445319, Control_c, 0, 64, 116
1, 445341, Note_on_c, 0, 42, 48
1, 445351, Note_on_c, 0, 30, 43
1, 445357, Control_c, 0, 64, 106
1, 445375, Control_c, 0, 64, 87
1, 445395, Control_c, 0, 64, 58
1, 445413, Control_c, 0, 64, 25
1, 445431, Control_c, 0, 64, 18
1, 445451, Control_c, 0, 64, 31
1, 445461, Poly_aftertouch_c, 0, 58, 0
1, 445469, Control_c, 0, 64, 48
1, 445475, Note_on_c, 0, 48, 33
1, 445488, Control_c, 0, 64, 63
1, 445505, Control_c, 0, 64, 73
1, 445525, Control_c, 0, 64, 78
1, 445540, Note_on_c, 0, 30, 0
1, 445543, Control_c, 0, 64, 83
1, 445563, Control_c, 0, 64, 88
1, 445581, Control_c, 0, 64, 93
1, 445592, Note_on_c, 0, 52, 26
1, 445598, Control_c, 0, 64, 97
1, 445615, Note_on_c, 0, 42, 0
1, 445615, Poly_aftertouch_c, 0, 42, 0
1, 445637, Control_c, 0, 64, 102
1, 445650, Note_on_c, 0, 48, 0
1, 445675, Control_c, 0, 64, 109
1, 445713, Control_c, 0, 64, 115
1, 445733, Note_on_c, 0, 52, 0
1, 445768, Control_c, 0, 64, 119
1, 445972, Note_on_c, 0, 46, 40
1, 446000, Note_on_c, 0, 34, 28
1, 446011, Control_c, 0, 64, 114
1, 446031, Control_c, 0, 64, 106
1, 446049, Control_c, 0, 64, 86
1, 446067, Control_c, 0, 64, 64
1, 446086, Control_c, 0, 64, 61
1, 446104, Control_c, 0, 64, 64
1, 446123, Control_c, 0, 64, 69
1, 446142, Control_c, 0, 64, 74
1, 446146, Note_on_c, 0, 48, 21
1, 446161, Control_c, 0, 64, 79
1, 446180, Control_c, 0, 64, 83
1, 446198, Control_c, 0, 64, 87
1, 446217, Control_c, 0, 64, 91
1, 446230, Note_on_c, 0, 48, 0
1, 446236, Control_c, 0, 64, 95
1, 446254, Control_c, 0, 64, 99
1, 446268, Note_on_c, 0, 52, 19
1, 446292, Control_c, 0, 64, 105
1, 446329, Control_c, 0, 64, 112
1, 446348, Note_on_c, 0, 52, 0
1, 446366, Control_c, 0, 64, 117
1, 446370, Note_on_c, 0, 58, 36
1, 446404, Control_c, 0, 64, 123
1, 446430, Note_on_c, 0, 46, 0
1, 446430, Poly_aftertouch_c, 0, 46, 0
1, 446441, Control_c, 0, 64, 127
1, 446441, Control_c, 0, 67, 120
1, 446446, Note_on_c, 0, 58, 0
1, 446487, Note_on_c, 0, 49, 39
1, 446530, Note_on_c, 0, 49, 0
1, 446530, Poly_aftertouch_c, 0, 49, 0
1, 446591, Control_c, 0, 67, 116
1, 446615, Note_on_c, 0, 34, 0
1, 446636, Note_on_c, 0, 45, 38
1, 446645, Note_on_c, 0, 59, 52
1, 446655, Poly_aftertouch_c, 0, 53, 0
1, 446658, Note_on_c, 0, 33, 31
1, 446722, Note_on_c, 0, 45, 0
1, 446722, Poly_aftertouch_c, 0, 45, 0
1, 446732, Note_on_c, 0, 33, 0
1, 446740, Note_on_c, 0, 59, 0
1, 446740, Poly_aftertouch_c, 0, 59, 0
1, 446767, Note_on_c, 0, 50, 29
1, 446819, Note_on_c, 0, 50, 0
1, 446836, Note_on_c, 0, 54, 30
1, 446924, Note_on_c, 0, 54, 0
1, 446964, Note_on_c, 0, 58, 50
1, 446966, Note_on_c, 0, 40, 51
1, 446966, Control_c, 0, 64, 123
1, 446982, Control_c, 0, 64, 114
1, 446990, Note_on_c, 0, 28, 38
1, 447002, Control_c, 0, 64, 97
1, 447021, Control_c, 0, 64, 81
1, 447040, Control_c, 0, 64, 77
1, 447056, Note_on_c, 0, 49, 32
1, 447057, Control_c, 0, 64, 79
1, 447077, Control_c, 0, 64, 84
1, 447096, Control_c, 0, 64, 91
1, 447110, Note_on_c, 0, 58, 0
1, 447113, Control_c, 0, 64, 101
1, 447133, Control_c, 0, 64, 106
1, 447208, Control_c, 0, 67, 110
1, 447231, Note_on_c, 0, 49, 0
1, 447231, Poly_aftertouch_c, 0, 49, 0
1, 447241, Note_on_c, 0, 57, 60
1, 447265, Control_c, 0, 67, 106
1, 447282, Control_c, 0, 64, 110
1, 447319, Control_c, 0, 67, 101
1, 447334, Note_on_c, 0, 28, 0
1, 447347, Note_on_c, 0, 57, 0
1, 447347, Poly_aftertouch_c, 0, 57, 0
1, 447357, Control_c, 0, 64, 114
1, 447365, Note_on_c, 0, 48, 40
1, 447376, Note_on_c, 0, 40, 0
1, 447376, Poly_aftertouch_c, 0, 40, 0
1, 447376, Control_c, 0, 67, 97
1, 447414, Note_on_c, 0, 48, 0
1, 447433, Control_c, 0, 67, 92
1, 447450, Control_c, 0, 64, 119
1, 447511, Note_on_c, 0, 56, 56
1, 447536, Note_on_c, 0, 41, 66
1, 447543, Note_on_c, 0, 29, 58
1, 447544, Control_c, 0, 64, 123
1, 447588, Note_on_c, 0, 29, 0
1, 447588, Poly_aftertouch_c, 0, 29, 0
1, 447611, Note_on_c, 0, 41, 0
1, 447611, Poly_aftertouch_c, 0, 41, 0
1, 447616, Note_on_c, 0, 47, 46
1, 447618, Control_c, 0, 64, 127
1, 447628, Note_on_c, 0, 56, 0
1, 447628, Poly_aftertouch_c, 0, 56, 0
1, 447681, Note_on_c, 0, 47, 0
1, 447711, Note_on_c, 0, 51, 45
1, 447828, Note_on_c, 0, 51, 0
1, 447828, Poly_aftertouch_c, 0, 51, 0
1, 447832, Note_on_c, 0, 57, 55
1, 447839, Note_on_c, 0, 46, 63
1, 447843, Control_c, 0, 64, 119
1, 447859, Note_on_c, 0, 34, 52
1, 447861, Control_c, 0, 64, 101
1, 447881, Control_c, 0, 64, 75
1, 447900, Control_c, 0, 64, 54
1, 447918, Control_c, 0, 64, 50
1, 447921, Note_on_c, 0, 57, 0
1, 447921, Poly_aftertouch_c, 0, 57, 0
1, 447932, Note_on_c, 0, 48, 46
1, 447956, Control_c, 0, 64, 57
1, 447976, Control_c, 0, 64, 66
1, 447993, Control_c, 0, 64, 75
1, 448012, Note_on_c, 0, 48, 0
1, 448012, Note_on_c, 0, 52, 49
1, 448012, Control_c, 0, 64, 82
1, 448031, Control_c, 0, 64, 89
1, 448049, Control_c, 0, 64, 96
1, 448070, Control_c, 0, 64, 104
1, 448087, Control_c, 0, 64, 112
1, 448096, Note_on_c, 0, 46, 0
1, 448096, Poly_aftertouch_c, 0, 46, 0
1, 448105, Control_c, 0, 64, 119
1, 448123, Control_c, 0, 64, 125
1, 448124, Control_c, 0, 67, 97
1, 448128, Note_on_c, 0, 58, 61
1, 448152, Note_on_c, 0, 52, 0
1, 448198, Control_c, 0, 67, 102
1, 448220, Note_on_c, 0, 49, 57
1, 448234, Note_on_c, 0, 58, 0
1, 448236, Control_c, 0, 67, 107
1, 448255, Note_on_c, 0, 49, 0
1, 448255, Poly_aftertouch_c, 0, 49, 0
1, 448273, Control_c, 0, 67, 113
1, 448283, Note_on_c, 0, 53, 59
1, 448312, Control_c, 0, 67, 119
1, 448368, Control_c, 0, 67, 123
1, 448398, Note_on_c, 0, 53, 0
1, 448400, Note_on_c, 0, 34, 0
1, 448400, Note_on_c, 0, 59, 70
1, 448411, Note_on_c, 0, 45, 69
1, 448418, Note_on_c, 0, 33, 59
1, 448444, Note_on_c, 0, 45, 0
1, 448444, Poly_aftertouch_c, 0, 45, 0
1, 448455, Note_on_c, 0, 33, 0
1, 448519, Note_on_c, 0, 59, 0
1, 448519, Poly_aftertouch_c, 0, 59, 0
1, 448525, Note_on_c, 0, 50, 56
1, 448561, Note_on_c, 0, 54, 51
1, 448566, Note_on_c, 0, 50, 0
1, 448667, Control_c, 0, 64, 113
1, 448683, Note_on_c, 0, 54, 0
1, 448687, Control_c, 0, 64, 83
1, 448691, Note_on_c, 0, 40, 59
1, 448696, Note_on_c, 0, 58, 59
1, 448699, Note_on_c, 0, 28, 55
1, 448706, Control_c, 0, 64, 51
1, 448722, Control_c, 0, 64, 28
1, 448758, Note_on_c, 0, 49, 58
1, 448759, Control_c, 0, 64, 42
1, 448779, Control_c, 0, 64, 58
1, 448798, Control_c, 0, 64, 76
1, 448816, Control_c, 0, 64, 92
1, 448835, Control_c, 0, 64, 112
1, 448843, Note_on_c, 0, 58, 0
1, 448845, Note_on_c, 0, 49, 0
1, 448845, Poly_aftertouch_c, 0, 49, 0
1, 448852, Control_c, 0, 64, 127
1, 448883, Note_on_c, 0, 53, 43
1, 448890, Control_c, 0, 67, 118
1, 448961, Note_on_c, 0, 53, 0
1, 448966, Control_c, 0, 64, 97
1, 448969, Note_on_c, 0, 57, 68
1, 448986, Control_c, 0, 64, 72
1, 449003, Control_c, 0, 64, 75
1, 449021, Control_c, 0, 64, 81
1, 449032, Note_on_c, 0, 28, 0
1, 449041, Control_c, 0, 64, 92
1, 449059, Control_c, 0, 64, 108
1, 449073, Note_on_c, 0, 48, 52
1, 449077, Control_c, 0, 64, 121
1, 449096, Control_c, 0, 64, 127
1, 449115, Note_on_c, 0, 57, 0
1, 449115, Poly_aftertouch_c, 0, 57, 0
1, 449125, Note_on_c, 0, 40, 0
1, 449125, Poly_aftertouch_c, 0, 40, 0
1, 449143, Note_on_c, 0, 48, 0
1, 449145, Note_on_c, 0, 52, 53
1, 449192, Note_on_c, 0, 52, 0
1, 449287, Note_on_c, 0, 56, 60
1, 449302, Control_c, 0, 64, 102
1, 449309, Note_on_c, 0, 41, 55
1, 449321, Control_c, 0, 64, 67
1, 449324, Note_on_c, 0, 29, 44
1, 449339, Control_c, 0, 64, 19
1, 449358, Control_c, 0, 64, 0
1, 449380, Note_on_c, 0, 47, 46
1, 449385, Note_on_c, 0, 56, 0
1, 449385, Poly_aftertouch_c, 0, 56, 0
1, 449394, Control_c, 0, 64, 41
1, 449414, Control_c, 0, 64, 66
1, 449433, Control_c, 0, 64, 84
1, 449453, Control_c, 0, 64, 96
1, 449467, Note_on_c, 0, 29, 0
1, 449467, Poly_aftertouch_c, 0, 29, 0
1, 449469, Control_c, 0, 64, 107
1, 449489, Control_c, 0, 64, 112
1, 449526, Control_c, 0, 64, 118
1, 449545, Control_c, 0, 67, 114
1, 449601, Control_c, 0, 64, 122
1, 449604, Note_on_c, 0, 51, 43
1, 449620, Control_c, 0, 67, 109
1, 449677, Control_c, 0, 67, 105
1, 449685, Note_on_c, 0, 47, 0
1, 449734, Note_on_c, 0, 51, 0
1, 449734, Poly_aftertouch_c, 0, 51, 0
1, 449805, Note_on_c, 0, 42, 62
1, 449836, Note_on_c, 0, 57, 44
1, 449863, Control_c, 0, 64, 116
1, 449865, Note_on_c, 0, 34, 34
1, 449868, Note_on_c, 0, 41, 0
1, 449868, Poly_aftertouch_c, 0, 41, 0
1, 449882, Control_c, 0, 64, 99
1, 449900, Control_c, 0, 64, 70
1, 449919, Control_c, 0, 64, 37
1, 449937, Control_c, 0, 64, 17
1, 449938, Control_c, 0, 67, 101
1, 449956, Control_c, 0, 64, 26
1, 449957, Note_on_c, 0, 57, 0
1, 449957, Poly_aftertouch_c, 0, 57, 0
1, 449977, Control_c, 0, 64, 45
1, 449978, Control_c, 0, 67, 96
1, 449994, Control_c, 0, 64, 61
1, 450011, Control_c, 0, 64, 74
1, 450020, Note_on_c, 0, 51, 31
1, 450032, Control_c, 0, 64, 80
1, 450033, Control_c, 0, 67, 91
1, 450051, Control_c, 0, 64, 85
1, 450068, Control_c, 0, 64, 89
1, 450069, Control_c, 0, 67, 86
1, 450087, Control_c, 0, 64, 95
1, 450092, Note_on_c, 0, 51, 0
1, 450092, Poly_aftertouch_c, 0, 51, 0
1, 450107, Control_c, 0, 64, 99
1, 450108, Control_c, 0, 67, 81
1, 450140, Note_on_c, 0, 50, 41
1, 450162, Control_c, 0, 67, 77
1, 450217, Note_on_c, 0, 50, 0
1, 450218, Control_c, 0, 67, 71
1, 450241, Note_on_c, 0, 42, 0
1, 450241, Poly_aftertouch_c, 0, 42, 0
1, 450246, Note_on_c, 0, 41, 62
1, 450257, Control_c, 0, 64, 82
1, 450261, Note_on_c, 0, 49, 44
1, 450275, Control_c, 0, 64, 64
1, 450293, Control_c, 0, 64, 65
1, 450311, Note_on_c, 0, 49, 0
1, 450311, Poly_aftertouch_c, 0, 49, 0
1, 450311, Control_c, 0, 64, 70
1, 450331, Control_c, 0, 64, 77
1, 450335, Note_on_c, 0, 53, 48
1, 450349, Control_c, 0, 64, 83
1, 450369, Control_c, 0, 64, 88
1, 450388, Control_c, 0, 64, 94
1, 450405, Control_c, 0, 64, 98
1, 450412, Note_on_c, 0, 53, 0
1, 450430, Note_on_c, 0, 58, 46
1, 450462, Control_c, 0, 64, 103
1, 450479, Note_on_c, 0, 58, 0
1, 450519, Note_on_c, 0, 41, 0
1, 450519, Poly_aftertouch_c, 0, 41, 0
1, 450530, Note_on_c, 0, 40, 62
1, 450535, Control_c, 0, 64, 93
1, 450549, Note_on_c, 0, 59, 53
1, 450553, Control_c, 0, 64, 70
1, 450575, Control_c, 0, 64, 50
1, 450577, Control_c, 0, 67, 67
1, 450611, Control_c, 0, 64, 57
1, 450630, Control_c, 0, 64, 67
1, 450650, Control_c, 0, 64, 75
1, 450654, Note_on_c, 0, 50, 46
1, 450667, Control_c, 0, 64, 81
1, 450686, Control_c, 0, 64, 88
1, 450690, Control_c, 0, 67, 63
1, 450704, Note_on_c, 0, 50, 0
1, 450706, Control_c, 0, 64, 94
1, 450720, Note_on_c, 0, 59, 0
1, 450720, Poly_aftertouch_c, 0, 59, 0
1, 450723, Control_c, 0, 64, 99
1, 450755, Note_on_c, 0, 49, 52
1, 450760, Control_c, 0, 67, 59
1, 450813, Note_on_c, 0, 49, 0
1, 450813, Poly_aftertouch_c, 0, 49, 0
1, 450816, Control_c, 0, 64, 94
1, 450834, Note_on_c, 0, 39, 64
1, 450834, Control_c, 0, 64, 80
1, 450854, Control_c, 0, 64, 68
1, 450868, Note_on_c, 0, 48, 45
1, 450872, Control_c, 0, 64, 71
1, 450889, Note_on_c, 0, 40, 0
1, 450889, Poly_aftertouch_c, 0, 40, 0
1, 450892, Control_c, 0, 64, 76
1, 450911, Control_c, 0, 64, 83
1, 450912, Control_c, 0, 67, 54
1, 450929, Control_c, 0, 64, 90
1, 450934, Note_on_c, 0, 48, 0
1, 450948, Control_c, 0, 64, 96
1, 450959, Note_on_c, 0, 54, 53
1, 450985, Control_c, 0, 64, 101
1, 451007, Note_on_c, 0, 54, 0
1, 451022, Control_c, 0, 67, 50
1, 451031, Note_on_c, 0, 59, 54
1, 451057, Note_on_c, 0, 59, 0
1, 451057, Poly_aftertouch_c, 0, 59, 0
1, 451098, Control_c, 0, 64, 88
1, 451117, Control_c, 0, 64, 67
1, 451119, Control_c, 0, 67, 45
1, 451135, Control_c, 0, 64, 58
1, 451145, Note_on_c, 0, 38, 67
1, 451148, Note_on_c, 0, 39, 0
1, 451148, Poly_aftertouch_c, 0, 39, 0
1, 451150, Note_on_c, 0, 60, 65
1, 451154, Control_c, 0, 64, 60
1, 451173, Control_c, 0, 64, 65
1, 451191, Control_c, 0, 64, 71
1, 451192, Control_c, 0, 67, 41
1, 451208, Control_c, 0, 64, 79
1, 451213, Note_on_c, 0, 60, 0
1, 451213, Poly_aftertouch_c, 0, 60, 0
1, 451228, Control_c, 0, 64, 84
1, 451247, Control_c, 0, 64, 89
1, 451253, Note_on_c, 0, 56, 45
1, 451266, Control_c, 0, 64, 94
1, 451266, Control_c, 0, 67, 37
1, 451284, Control_c, 0, 64, 99
1, 451303, Control_c, 0, 64, 104
1, 451305, Note_on_c, 0, 56, 0
1, 451305, Poly_aftertouch_c, 0, 56, 0
1, 451323, Control_c, 0, 64, 110
1, 451323, Control_c, 0, 67, 32
1, 451325, Note_on_c, 0, 54, 50
1, 451340, Control_c, 0, 64, 115
1, 451377, Note_on_c, 0, 54, 0
1, 451377, Control_c, 0, 64, 107
1, 451386, Note_on_c, 0, 38, 0
1, 451397, Control_c, 0, 64, 88
1, 451409, Note_on_c, 0, 37, 62
1, 451410, Note_on_c, 0, 34, 0
1, 451415, Control_c, 0, 64, 74
1, 451424, Note_on_c, 0, 53, 55
1, 451435, Control_c, 0, 64, 76
1, 451436, Control_c, 0, 67, 27
1, 451453, Control_c, 0, 64, 80
1, 451471, Control_c, 0, 64, 85
1, 451474, Note_on_c, 0, 53, 0
1, 451489, Control_c, 0, 64, 90
1, 451509, Control_c, 0, 64, 96
1, 451511, Control_c, 0, 67, 23
1, 451521, Note_on_c, 0, 59, 57
1, 451527, Control_c, 0, 64, 102
1, 451545, Control_c, 0, 64, 108
1, 451549, Note_on_c, 0, 37, 0
1, 451549, Poly_aftertouch_c, 0, 37, 0
1, 451559, Note_on_c, 0, 34, 66
1, 451563, Control_c, 0, 64, 112
1, 451583, Note_on_c, 0, 59, 0
1, 451583, Poly_aftertouch_c, 0, 59, 0
1, 451583, Control_c, 0, 67, 19
1, 451602, Control_c, 0, 64, 118
1, 451622, Note_on_c, 0, 61, 60
1, 451640, Control_c, 0, 64, 123
1, 451677, Control_c, 0, 64, 127
1, 451738, Note_on_c, 0, 61, 0
1, 451738, Poly_aftertouch_c, 0, 61, 0
1, 451764, Note_on_c, 0, 63, 59
1, 451786, Note_on_c, 0, 49, 74
1, 451792, Note_on_c, 0, 34, 0
1, 451826, Control_c, 0, 64, 122
1, 451846, Control_c, 0, 64, 99
1, 451864, Control_c, 0, 64, 82
1, 451900, Control_c, 0, 64, 90
1, 451903, Note_on_c, 0, 58, 44
1, 451906, Note_on_c, 0, 63, 0
1, 451921, Control_c, 0, 64, 101
1, 451939, Control_c, 0, 64, 114
1, 451956, Note_on_c, 0, 58, 0
1, 451957, Control_c, 0, 64, 124
1, 451972, Note_on_c, 0, 56, 54
1, 451990, Note_on_c, 0, 49, 0
1, 451990, Poly_aftertouch_c, 0, 49, 0
1, 452027, Note_on_c, 0, 56, 0
1, 452027, Poly_aftertouch_c, 0, 56, 0
1, 452073, Note_on_c, 0, 55, 55
1, 452074, Note_on_c, 0, 48, 74
1, 452088, Control_c, 0, 67, 15
1, 452126, Control_c, 0, 64, 110
1, 452138, Note_on_c, 0, 55, 0
1, 452138, Poly_aftertouch_c, 0, 55, 0
1, 452144, Control_c, 0, 64, 90
1, 452162, Control_c, 0, 64, 82
1, 452167, Note_on_c, 0, 58, 50
1, 452182, Control_c, 0, 64, 87
1, 452202, Control_c, 0, 64, 94
1, 452219, Control_c, 0, 64, 106
1, 452231, Note_on_c, 0, 63, 59
1, 452237, Control_c, 0, 64, 116
1, 452256, Control_c, 0, 64, 121
1, 452264, Note_on_c, 0, 58, 0
1, 452313, Note_on_c, 0, 47, 82
1, 452332, Note_on_c, 0, 48, 0
1, 452351, Note_on_c, 0, 63, 0
1, 452351, Control_c, 0, 64, 117
1, 452368, Control_c, 0, 64, 107
1, 452372, Note_on_c, 0, 64, 55
1, 452388, Control_c, 0, 64, 89
1, 452407, Control_c, 0, 64, 80
1, 452424, Control_c, 0, 64, 84
1, 452444, Control_c, 0, 64, 90
1, 452462, Control_c, 0, 64, 100
1, 452476, Poly_aftertouch_c, 0, 61, 0
1, 452478, Note_on_c, 0, 57, 35
1, 452481, Control_c, 0, 64, 113
1, 452499, Control_c, 0, 64, 124
1, 452524, Note_on_c, 0, 64, 0
1, 452549, Note_on_c, 0, 56, 65
1, 452550, Note_on_c, 0, 57, 0
1, 452550, Poly_aftertouch_c, 0, 57, 0
1, 452573, Note_on_c, 0, 46, 77
1, 452594, Control_c, 0, 64, 119
1, 452612, Control_c, 0, 64, 103
1, 452620, Note_on_c, 0, 47, 0
1, 452630, Control_c, 0, 64, 92
1, 452633, Note_on_c, 0, 56, 0
1, 452633, Poly_aftertouch_c, 0, 56, 0
1, 452653, Note_on_c, 0, 62, 47
1, 452669, Control_c, 0, 64, 101
1, 452686, Control_c, 0, 64, 109
1, 452704, Note_on_c, 0, 62, 0
1, 452704, Poly_aftertouch_c, 0, 62, 0
1, 452706, Control_c, 0, 64, 118
1, 452711, Note_on_c, 0, 65, 70
1, 452724, Control_c, 0, 64, 125
1, 452780, Control_c, 0, 67, 11
1, 452820, Note_on_c, 0, 46, 0
1, 452820, Poly_aftertouch_c, 0, 46, 0
1, 452821, Note_on_c, 0, 65, 0
1, 452830, Note_on_c, 0, 45, 82
1, 452835, Note_on_c, 0, 66, 65
1, 452835, Control_c, 0, 64, 116
1, 452855, Control_c, 0, 64, 96
1, 452875, Control_c, 0, 64, 74
1, 452892, Control_c, 0, 64, 72
1, 452913, Note_on_c, 0, 66, 0
1, 452913, Poly_aftertouch_c, 0, 66, 0
1, 452913, Control_c, 0, 64, 77
1, 452931, Control_c, 0, 64, 86
1, 452934, Note_on_c, 0, 61, 58
1, 452949, Control_c, 0, 64, 100
1, 452967, Control_c, 0, 64, 117
1, 452975, Note_on_c, 0, 61, 0
1, 452984, Note_on_c, 0, 60, 64
1, 452986, Control_c, 0, 64, 127
1, 453020, Note_on_c, 0, 60, 0
1, 453020, Poly_aftertouch_c, 0, 60, 0
1, 453036, Note_on_c, 0, 45, 0
1, 453036, Note_on_c, 0, 44, 74
1, 453036, Poly_aftertouch_c, 0, 45, 0
1, 453081, Note_on_c, 0, 44, 0
1, 453081, Poly_aftertouch_c, 0, 44, 0
1, 453114, Note_on_c, 0, 59, 65
1, 453166, Note_on_c, 0, 59, 0
1, 453166, Poly_aftertouch_c, 0, 59, 0
1, 453172, Note_on_c, 0, 34, 79
1, 453182, Note_on_c, 0, 63, 58
1, 453212, Note_on_c, 0, 34, 0
1, 453241, Note_on_c, 0, 63, 0
1, 453242, Note_on_c, 0, 67, 68
1, 453281, Note_on_c, 0, 67, 0
1, 453415, Note_on_c, 0, 68, 66
1, 453417, Note_on_c, 0, 54, 86
1, 453453, Control_c, 0, 64, 123
1, 453472, Control_c, 0, 64, 100
1, 453490, Control_c, 0, 64, 79
1, 453493, Note_on_c, 0, 63, 56
1, 453515, Note_on_c, 0, 68, 0
1, 453528, Control_c, 0, 64, 88
1, 453548, Control_c, 0, 64, 102
1, 453564, Control_c, 0, 64, 119
1, 453568, Note_on_c, 0, 61, 63
1, 453577, Note_on_c, 0, 63, 0
1, 453582, Control_c, 0, 64, 127
1, 453608, Note_on_c, 0, 54, 0
1, 453642, Note_on_c, 0, 61, 0
1, 453659, Note_on_c, 0, 60, 66
1, 453700, Note_on_c, 0, 53, 84
1, 453734, Note_on_c, 0, 60, 0
1, 453734, Poly_aftertouch_c, 0, 60, 0
1, 453745, Note_on_c, 0, 63, 70
1, 453753, Control_c, 0, 64, 118
1, 453771, Control_c, 0, 64, 95
1, 453790, Control_c, 0, 64, 85
1, 453809, Control_c, 0, 64, 93
1, 453826, Control_c, 0, 64, 106
1, 453832, Note_on_c, 0, 68, 67
1, 453833, Note_on_c, 0, 63, 0
1, 453846, Control_c, 0, 64, 120
1, 453864, Control_c, 0, 64, 127
1, 453930, Note_on_c, 0, 52, 88
1, 453938, Note_on_c, 0, 68, 0
1, 453944, Note_on_c, 0, 53, 0
1, 453946, Note_on_c, 0, 66, 52
1, 453947, Note_on_c, 0, 69, 67
1, 453977, Control_c, 0, 64, 102
1, 453988, Note_on_c, 0, 66, 0
1, 453988, Poly_aftertouch_c, 0, 66, 0
1, 453996, Control_c, 0, 64, 78
1, 454032, Control_c, 0, 64, 87
1, 454047, Note_on_c, 0, 69, 0
1, 454051, Control_c, 0, 64, 99
1, 454056, Note_on_c, 0, 62, 51
1, 454070, Control_c, 0, 64, 114
1, 454089, Control_c, 0, 64, 127
1, 454133, Note_on_c, 0, 62, 0
1, 454133, Poly_aftertouch_c, 0, 62, 0
1, 454136, Note_on_c, 0, 61, 68
1, 454176, Note_on_c, 0, 51, 83
1, 454201, Control_c, 0, 64, 115
1, 454221, Note_on_c, 0, 52, 0
1, 454221, Note_on_c, 0, 46, 55
1, 454221, Control_c, 0, 64, 94
1, 454223, Note_on_c, 0, 61, 0
1, 454231, Note_on_c, 0, 67, 56
1, 454238, Control_c, 0, 64, 87
1, 454258, Control_c, 0, 64, 96
1, 454276, Control_c, 0, 64, 107
1, 454288, Note_on_c, 0, 67, 0
1, 454290, Note_on_c, 0, 69, 70
1, 454293, Control_c, 0, 64, 121
1, 454312, Control_c, 0, 64, 127
1, 454406, Note_on_c, 0, 51, 0
1, 454406, Poly_aftertouch_c, 0, 51, 0
1, 454416, Note_on_c, 0, 69, 0
1, 454416, Note_on_c, 0, 70, 65
1, 454434, Note_on_c, 0, 50, 88
1, 454463, Control_c, 0, 64, 101
1, 454482, Control_c, 0, 64, 75
1, 454493, Note_on_c, 0, 70, 0
1, 454493, Poly_aftertouch_c, 0, 70, 0
1, 454499, Control_c, 0, 64, 73
1, 454516, Note_on_c, 0, 66, 63
1, 454519, Control_c, 0, 64, 79
1, 454538, Control_c, 0, 64, 87
1, 454557, Control_c, 0, 64, 98
1, 454574, Control_c, 0, 64, 112
1, 454577, Note_on_c, 0, 66, 0
1, 454577, Poly_aftertouch_c, 0, 66, 0
1, 454594, Control_c, 0, 64, 125
1, 454604, Note_on_c, 0, 64, 68
1, 454628, Note_on_c, 0, 49, 81
1, 454635, Note_on_c, 0, 50, 0
1, 454635, Note_on_c, 0, 46, 0
1, 454635, Poly_aftertouch_c, 0, 46, 0
1, 454663, Note_on_c, 0, 49, 0
1, 454663, Poly_aftertouch_c, 0, 49, 0
1, 454691, Note_on_c, 0, 64, 0
1, 454694, Note_on_c, 0, 63, 64
1, 454766, Note_on_c, 0, 67, 60
1, 454766, Note_on_c, 0, 34, 87
1, 454771, Note_on_c, 0, 63, 0
1, 454800, Note_on_c, 0, 34, 0
1, 454821, Note_on_c, 0, 71, 72
1, 454844, Note_on_c, 0, 67, 0
1, 454855, Note_on_c, 0, 71, 0
1, 454855, Poly_aftertouch_c, 0, 71, 0
1, 454988, Note_on_c, 0, 72, 67
1, 454993, Note_on_c, 0, 58, 89
1, 455061, Control_c, 0, 64, 103
1, 455077, Note_on_c, 0, 68, 60
1, 455080, Control_c, 0, 64, 73
1, 455099, Control_c, 0, 64, 61
1, 455116, Note_on_c, 0, 72, 0
1, 455116, Poly_aftertouch_c, 0, 72, 0
1, 455116, Control_c, 0, 64, 68
1, 455137, Control_c, 0, 64, 83
1, 455154, Note_on_c, 0, 66, 66
1, 455154, Control_c, 0, 64, 102
1, 455173, Control_c, 0, 64, 127
1, 455202, Note_on_c, 0, 68, 0
1, 455220, Note_on_c, 0, 58, 0
1, 455243, Note_on_c, 0, 65, 73
1, 455251, Note_on_c, 0, 66, 0
1, 455251, Poly_aftertouch_c, 0, 66, 0
1, 455294, Note_on_c, 0, 57, 91
1, 455348, Note_on_c, 0, 69, 67
1, 455362, Control_c, 0, 64, 98
1, 455378, Note_on_c, 0, 65, 0
1, 455378, Control_c, 0, 64, 70
1, 455417, Control_c, 0, 64, 85
1, 455432, Note_on_c, 0, 73, 69
1, 455435, Control_c, 0, 64, 107
1, 455454, Control_c, 0, 64, 127
1, 455475, Note_on_c, 0, 69, 0
1, 455495, Note_on_c, 0, 73, 0
1, 455495, Poly_aftertouch_c, 0, 73, 0
1, 455563, Note_on_c, 0, 56, 87
1, 455566, Control_c, 0, 64, 114
1, 455584, Note_on_c, 0, 74, 72
1, 455584, Control_c, 0, 64, 79
1, 455595, Note_on_c, 0, 57, 0
1, 455595, Poly_aftertouch_c, 0, 57, 0
1, 455602, Control_c, 0, 64, 45
1, 455640, Control_c, 0, 64, 61
1, 455645, Note_on_c, 0, 66, 58
1, 455659, Control_c, 0, 64, 81
1, 455679, Control_c, 0, 64, 99
1, 455681, Note_on_c, 0, 74, 0
1, 455697, Control_c, 0, 64, 124
1, 455725, Note_on_c, 0, 64, 68
1, 455735, Note_on_c, 0, 66, 0
1, 455735, Poly_aftertouch_c, 0, 66, 0
1, 455761, Note_on_c, 0, 64, 0
1, 455850, Note_on_c, 0, 55, 82
1, 455865, Note_on_c, 0, 56, 0
1, 455865, Poly_aftertouch_c, 0, 56, 0
1, 455866, Control_c, 0, 64, 116
1, 455881, Note_on_c, 0, 63, 70
1, 455884, Control_c, 0, 64, 81
1, 455887, Note_on_c, 0, 46, 68
1, 455903, Control_c, 0, 64, 43
1, 455922, Control_c, 0, 64, 29
1, 455941, Control_c, 0, 64, 49
1, 455958, Control_c, 0, 64, 73
1, 455961, Note_on_c, 0, 71, 55
1, 455979, Control_c, 0, 64, 93
1, 455996, Control_c, 0, 64, 116
1, 456015, Control_c, 0, 64, 127
1, 456021, Note_on_c, 0, 63, 0
1, 456034, Note_on_c, 0, 75, 74
1, 456067, Note_on_c, 0, 71, 0
1, 456067, Poly_aftertouch_c, 0, 71, 0
1, 456111, Note_on_c, 0, 75, 0
1, 456111, Poly_aftertouch_c, 0, 75, 0
1, 456153, Note_on_c, 0, 54, 80
1, 456165, Control_c, 0, 64, 102
1, 456184, Control_c, 0, 64, 63
1, 456193, Note_on_c, 0, 76, 68
1, 456197, Note_on_c, 0, 55, 0
1, 456197, Poly_aftertouch_c, 0, 55, 0
1, 456202, Control_c, 0, 64, 0
1, 456239, Control_c, 0, 64, 30
1, 456240, Note_on_c, 0, 70, 62
1, 456258, Control_c, 0, 64, 65
1, 456277, Control_c, 0, 64, 88
1, 456293, Note_on_c, 0, 76, 0
1, 456294, Control_c, 0, 64, 108
1, 456313, Control_c, 0, 64, 123
1, 456334, Control_c, 0, 64, 127
1, 456391, Note_on_c, 0, 62, 68
1, 456415, Note_on_c, 0, 54, 0
1, 456446, Note_on_c, 0, 70, 0
1, 456446, Poly_aftertouch_c, 0, 70, 0
1, 456633, Control_c, 0, 64, 115
1, 456638, Note_on_c, 0, 61, 69
1, 456639, Note_on_c, 0, 53, 51
1, 456650, Control_c, 0, 64, 98
1, 456670, Control_c, 0, 64, 77
1, 456688, Control_c, 0, 64, 60
1, 456707, Control_c, 0, 64, 43
1, 456711, Note_on_c, 0, 62, 0
1, 456711, Poly_aftertouch_c, 0, 62, 0
1, 456725, Control_c, 0, 64, 0
1, 456783, Note_on_c, 0, 69, 60
1, 456820, Control_c, 0, 64, 42
1, 456838, Control_c, 0, 64, 84
1, 456856, Control_c, 0, 64, 109
1, 456874, Control_c, 0, 64, 127
1, 456882, Note_on_c, 0, 69, 0
1, 456931, Note_on_c, 0, 77, 60
1, 456937, Note_on_c, 0, 46, 0
1, 456937, Poly_aftertouch_c, 0, 46, 0
1, 457032, Note_on_c, 0, 61, 0
1, 457037, Note_on_c, 0, 53, 0
1, 457117, Note_on_c, 0, 77, 0
1, 457129, Note_on_c, 0, 76, 58
1, 457284, Note_on_c, 0, 72, 48
1, 457310, Note_on_c, 0, 76, 0
1, 457395, Note_on_c, 0, 72, 0
1, 457395, Poly_aftertouch_c, 0, 72, 0
1, 457466, Note_on_c, 0, 71, 48
1, 457748, Note_on_c, 0, 70, 47
1, 457768, Note_on_c, 0, 82, 81
1, 457773, Note_on_c, 0, 71, 0
1, 457773, Poly_aftertouch_c, 0, 71, 0
1, 457848, Note_on_c, 0, 73, 55
1, 457905, Control_c, 0, 67, 0
1, 457972, Note_on_c, 0, 70, 0
1, 457972, Poly_aftertouch_c, 0, 70, 0
1, 458001, Note_on_c, 0, 73, 0
1, 458001, Poly_aftertouch_c, 0, 73, 0
1, 458020, Note_on_c, 0, 77, 52
1, 458199, Note_on_c, 0, 76, 47
1, 458202, Note_on_c, 0, 81, 79
1, 458210, Note_on_c, 0, 77, 0
1, 458248, Note_on_c, 0, 82, 0
1, 458248, Poly_aftertouch_c, 0, 82, 0
1, 458296, Note_on_c, 0, 76, 0
1, 458323, Note_on_c, 0, 72, 44
1, 458370, Note_on_c, 0, 81, 0
1, 458370, Poly_aftertouch_c, 0, 81, 0
1, 458375, Note_on_c, 0, 72, 0
1, 458375, Poly_aftertouch_c, 0, 72, 0
1, 458398, Note_on_c, 0, 71, 50
1, 458512, Note_on_c, 0, 71, 0
1, 458512, Poly_aftertouch_c, 0, 71, 0
1, 458513, Note_on_c, 0, 80, 77
1, 458521, Control_c, 0, 67, 8
1, 458538, Note_on_c, 0, 70, 53
1, 458555, Note_on_c, 0, 80, 0
1, 458555, Poly_aftertouch_c, 0, 80, 0
1, 458591, Note_on_c, 0, 70, 0
1, 458591, Poly_aftertouch_c, 0, 70, 0
1, 458594, Control_c, 0, 67, 13
1, 458626, Note_on_c, 0, 73, 56
1, 458686, Note_on_c, 0, 73, 0
1, 458686, Poly_aftertouch_c, 0, 73, 0
1, 458687, Control_c, 0, 67, 17
1, 458706, Note_on_c, 0, 77, 57
1, 458765, Control_c, 0, 67, 22
1, 458807, Note_on_c, 0, 77, 0
1, 458811, Note_on_c, 0, 69, 75
1, 458828, Note_on_c, 0, 76, 53
1, 458839, Control_c, 0, 67, 26
1, 458876, Control_c, 0, 67, 31
1, 458885, Note_on_c, 0, 76, 0
1, 458914, Control_c, 0, 67, 38
1, 458948, Note_on_c, 0, 72, 23
1, 458950, Control_c, 0, 67, 45
1, 458993, Note_on_c, 0, 71, 45
1, 459004, Note_on_c, 0, 72, 0
1, 459004, Poly_aftertouch_c, 0, 72, 0
1, 459005, Control_c, 0, 67, 50
1, 459062, Control_c, 0, 67, 55
1, 459064, Note_on_c, 0, 71, 0
1, 459064, Poly_aftertouch_c, 0, 71, 0
1, 459087, Note_on_c, 0, 69, 0
1, 459090, Note_on_c, 0, 68, 69
1, 459098, Control_c, 0, 67, 59
1, 459108, Note_on_c, 0, 70, 43
1, 459138, Control_c, 0, 67, 64
1, 459158, Note_on_c, 0, 70, 0
1, 459158, Poly_aftertouch_c, 0, 70, 0
1, 459173, Note_on_c, 0, 73, 53
1, 459173, Control_c, 0, 67, 69
1, 459212, Control_c, 0, 67, 75
1, 459249, Control_c, 0, 67, 80
1, 459256, Note_on_c, 0, 73, 0
1, 459256, Poly_aftertouch_c, 0, 73, 0
1, 459278, Note_on_c, 0, 77, 49
1, 459306, Control_c, 0, 67, 84
1, 459330, Note_on_c, 0, 68, 0
1, 459377, Note_on_c, 0, 77, 0
1, 459377, Note_on_c, 0, 67, 65
1, 459381, Control_c, 0, 67, 89
1, 459396, Note_on_c, 0, 76, 51
1, 459413, Note_on_c, 0, 67, 0
1, 459418, Control_c, 0, 67, 93
1, 459444, Note_on_c, 0, 76, 0
1, 459455, Control_c, 0, 67, 97
1, 459508, Note_on_c, 0, 72, 21
1, 459510, Control_c, 0, 67, 102
1, 459556, Note_on_c, 0, 71, 45
1, 459566, Note_on_c, 0, 72, 0
1, 459566, Poly_aftertouch_c, 0, 72, 0
1, 459566, Control_c, 0, 67, 106
1, 459634, Note_on_c, 0, 71, 0
1, 459634, Poly_aftertouch_c, 0, 71, 0
1, 459641, Control_c, 0, 67, 111
1, 459679, Control_c, 0, 67, 116
1, 459685, Note_on_c, 0, 56, 65
1, 459693, Note_on_c, 0, 70, 48
1, 459718, Control_c, 0, 64, 111
1, 459719, Control_c, 0, 67, 123
1, 459735, Control_c, 0, 64, 83
1, 459755, Control_c, 0, 64, 70
1, 459758, Note_on_c, 0, 70, 0
1, 459758, Poly_aftertouch_c, 0, 70, 0
1, 459774, Control_c, 0, 64, 73
1, 459785, Note_on_c, 0, 73, 45
1, 459791, Control_c, 0, 64, 77
1, 459810, Control_c, 0, 64, 82
1, 459830, Control_c, 0, 64, 90
1, 459849, Control_c, 0, 64, 100
1, 459867, Control_c, 0, 64, 112
1, 459884, Control_c, 0, 64, 123
1, 459890, Note_on_c, 0, 77, 42
1, 459902, Note_on_c, 0, 73, 0
1, 459902, Poly_aftertouch_c, 0, 73, 0
1, 459904, Control_c, 0, 64, 127
1, 459980, Control_c, 0, 64, 110
1, 459981, Control_c, 0, 67, 127
1, 459997, Note_on_c, 0, 55, 58
1, 459998, Note_on_c, 0, 77, 0
1, 459998, Control_c, 0, 64, 84
1, 460006, Note_on_c, 0, 76, 50
1, 460007, Note_on_c, 0, 56, 0
1, 460007, Poly_aftertouch_c, 0, 56, 0
1, 460017, Control_c, 0, 64, 68
1, 460036, Control_c, 0, 64, 70
1, 460055, Control_c, 0, 64, 74
1, 460067, Note_on_c, 0, 76, 0
1, 460073, Control_c, 0, 64, 81
1, 460091, Control_c, 0, 64, 91
1, 460110, Control_c, 0, 64, 104
1, 460129, Control_c, 0, 64, 114
1, 460130, Note_on_c, 0, 72, 44
1, 460147, Control_c, 0, 64, 119
1, 460169, Note_on_c, 0, 72, 0
1, 460169, Poly_aftertouch_c, 0, 72, 0
1, 460203, Control_c, 0, 64, 123
1, 460229, Note_on_c, 0, 71, 36
1, 460277, Control_c, 0, 64, 117
1, 460289, Note_on_c, 0, 71, 0
1, 460289, Poly_aftertouch_c, 0, 71, 0
1, 460296, Control_c, 0, 64, 103
1, 460316, Control_c, 0, 64, 78
1, 460321, Note_on_c, 0, 55, 0
1, 460321, Poly_aftertouch_c, 0, 55, 0
1, 460334, Note_on_c, 0, 54, 49
1, 460334, Control_c, 0, 64, 66
1, 460349, Note_on_c, 0, 70, 43
1, 460353, Control_c, 0, 64, 70
1, 460372, Control_c, 0, 64, 75
1, 460391, Control_c, 0, 64, 83
1, 460409, Control_c, 0, 64, 93
1, 460418, Note_on_c, 0, 70, 0
1, 460418, Poly_aftertouch_c, 0, 70, 0
1, 460428, Control_c, 0, 64, 104
1, 460443, Note_on_c, 0, 54, 0
1, 460446, Control_c, 0, 64, 112
1, 460454, Note_on_c, 0, 73, 49
1, 460484, Control_c, 0, 64, 116
1, 460551, Note_on_c, 0, 73, 0
1, 460551, Poly_aftertouch_c, 0, 73, 0
1, 460579, Note_on_c, 0, 77, 47
1, 460733, Note_on_c, 0, 43, 57
1, 460746, Control_c, 0, 64, 112
1, 460756, Note_on_c, 0, 76, 43
1, 460758, Note_on_c, 0, 77, 0
1, 460759, Poly_aftertouch_c, 0, 77, 0
1, 460763, Control_c, 0, 64, 105
1, 460783, Control_c, 0, 64, 88
1, 460802, Control_c, 0, 64, 66
1, 460820, Control_c, 0, 64, 54
1, 460858, Control_c, 0, 64, 61
1, 460876, Control_c, 0, 64, 71
1, 460895, Control_c, 0, 64, 79
1, 460914, Control_c, 0, 64, 88
1, 460934, Control_c, 0, 64, 97
1, 460945, Note_on_c, 0, 76, 0
1, 460950, Note_on_c, 0, 72, 43
1, 460951, Control_c, 0, 64, 102
1, 460990, Control_c, 0, 64, 107
1, 461032, Note_on_c, 0, 72, 0
1, 461032, Poly_aftertouch_c, 0, 72, 0
1, 461101, Control_c, 0, 64, 111
1, 461124, Note_on_c, 0, 69, 28
1, 461266, Note_on_c, 0, 42, 52
1, 461268, Note_on_c, 0, 69, 0
1, 461270, Note_on_c, 0, 43, 0
1, 461300, Note_on_c, 0, 70, 40
1, 461325, Control_c, 0, 64, 104
1, 461344, Control_c, 0, 64, 97
1, 461364, Control_c, 0, 64, 80
1, 461382, Control_c, 0, 64, 57
1, 461401, Control_c, 0, 64, 37
1, 461438, Control_c, 0, 64, 47
1, 461456, Control_c, 0, 64, 62
1, 461475, Control_c, 0, 64, 74
1, 461493, Control_c, 0, 64, 82
1, 461509, Note_on_c, 0, 73, 36
1, 461511, Control_c, 0, 64, 89
1, 461531, Control_c, 0, 64, 93
1, 461551, Poly_aftertouch_c, 0, 70, 20
1, 461558, Note_on_c, 0, 70, 0
1, 461558, Poly_aftertouch_c, 0, 70, 0
1, 461559, Poly_aftertouch_c, 0, 70, 0
1, 461624, Control_c, 0, 64, 97
1, 461680, Control_c, 0, 64, 101
1, 461735, Note_on_c, 0, 77, 46
1, 461736, Note_on_c, 0, 73, 0
1, 461736, Poly_aftertouch_c, 0, 73, 0
1, 461737, Control_c, 0, 64, 106
1, 461788, Note_on_c, 0, 77, 0
1, 461886, Control_c, 0, 64, 110
1, 462147, Note_on_c, 0, 42, 0
1, 462147, Poly_aftertouch_c, 0, 42, 0
1, 462171, Note_on_c, 0, 41, 34
1, 462179, Note_on_c, 0, 34, 33
1, 462279, Control_c, 0, 64, 102
1, 462281, Note_on_c, 0, 81, 50
1, 462297, Control_c, 0, 64, 91
1, 462319, Control_c, 0, 64, 73
1, 462335, Control_c, 0, 64, 60
1, 462372, Control_c, 0, 64, 66
1, 462391, Control_c, 0, 64, 71
1, 462396, Note_on_c, 0, 81, 0
1, 462396, Poly_aftertouch_c, 0, 81, 0
1, 462410, Control_c, 0, 64, 77
1, 462427, Control_c, 0, 64, 82
1, 462438, Note_on_c, 0, 76, 30
1, 462445, Control_c, 0, 64, 86
1, 462481, Note_on_c, 0, 76, 0
1, 462484, Control_c, 0, 64, 90
1, 462525, Note_on_c, 0, 72, 43
1, 462559, Control_c, 0, 64, 94
1, 462573, Note_on_c, 0, 72, 0
1, 462573, Poly_aftertouch_c, 0, 72, 0
1, 462631, Note_on_c, 0, 73, 47
1, 462665, Note_on_c, 0, 73, 0
1, 462665, Poly_aftertouch_c, 0, 73, 0
1, 462723, Note_on_c, 0, 77, 67
1, 462758, Note_on_c, 0, 77, 0
1, 462828, Note_on_c, 0, 82, 59
1, 462871, Note_on_c, 0, 82, 0
1, 462871, Poly_aftertouch_c, 0, 82, 0
1, 462906, Note_on_c, 0, 84, 66
1, 462914, Control_c, 0, 64, 90
1, 462952, Control_c, 0, 64, 88
1, 462989, Control_c, 0, 64, 85
1, 463004, Note_on_c, 0, 84, 0
1, 463008, Control_c, 0, 64, 83
1, 463020, Note_on_c, 0, 81, 52
1, 463025, Control_c, 0, 64, 80
1, 463064, Control_c, 0, 64, 77
1, 463093, Note_on_c, 0, 81, 0
1, 463093, Poly_aftertouch_c, 0, 81, 0
1, 463101, Control_c, 0, 64, 75
1, 463121, Control_c, 0, 64, 73
1, 463149, Note_on_c, 0, 76, 28
1, 463157, Control_c, 0, 64, 70
1, 463214, Control_c, 0, 64, 68
1, 463233, Note_on_c, 0, 77, 45
1, 463233, Control_c, 0, 64, 67
1, 463241, Note_on_c, 0, 76, 0
1, 463252, Control_c, 0, 64, 66
1, 463270, Control_c, 0, 64, 65
1, 463341, Note_on_c, 0, 77, 0
1, 463361, Note_on_c, 0, 82, 52
1, 463457, Control_c, 0, 64, 64
1, 463460, Note_on_c, 0, 82, 0
1, 463460, Poly_aftertouch_c, 0, 82, 0
1, 463474, Note_on_c, 0, 85, 49
1, 463609, Note_on_c, 0, 88, 51
1, 463644, Note_on_c, 0, 85, 0
1, 463718, Control_c, 0, 64, 63
1, 463795, Note_on_c, 0, 84, 36
1, 463799, Note_on_c, 0, 88, 0
1, 463865, Note_on_c, 0, 84, 0
1, 463887, Control_c, 0, 64, 62
1, 463974, Note_on_c, 0, 81, 38
1, 464167, Note_on_c, 0, 81, 0
1, 464167, Poly_aftertouch_c, 0, 81, 0
1, 464181, Note_on_c, 0, 82, 33
1, 464261, Control_c, 0, 64, 63
1, 464298, Control_c, 0, 64, 64
1, 464355, Control_c, 0, 64, 65
1, 464392, Control_c, 0, 64, 66
1, 464411, Note_on_c, 0, 82, 0
1, 464411, Poly_aftertouch_c, 0, 82, 0
1, 464429, Note_on_c, 0, 85, 35
1, 464448, Control_c, 0, 64, 67
1, 464487, Control_c, 0, 64, 69
1, 464523, Control_c, 0, 64, 72
1, 464543, Control_c, 0, 64, 74
1, 464579, Control_c, 0, 64, 77
1, 464598, Control_c, 0, 64, 79
1, 464617, Control_c, 0, 64, 81
1, 464635, Control_c, 0, 64, 83
1, 464646, Note_on_c, 0, 85, 0
1, 464652, Control_c, 0, 64, 85
1, 464710, Control_c, 0, 64, 91
1, 464741, Note_on_c, 0, 89, 38
1, 464748, Control_c, 0, 64, 96
1, 464784, Control_c, 0, 64, 101
1, 464823, Control_c, 0, 64, 105
1, 464897, Control_c, 0, 64, 110
1, 464900, Note_on_c, 0, 89, 0
1, 464900, Poly_aftertouch_c, 0, 89, 0
1, 464934, Control_c, 0, 64, 114
1, 465009, Control_c, 0, 64, 118
1, 465121, Control_c, 0, 64, 123
1, 465248, Poly_aftertouch_c, 0, 41, 24
1, 465405, Note_on_c, 0, 41, 0
1, 465405, Poly_aftertouch_c, 0, 41, 0
1, 465794, Note_on_c, 0, 94, 19
1, 465831, Note_on_c, 0, 94, 0
1, 466315, Poly_aftertouch_c, 0, 34, 24
1, 466579, Poly_aftertouch_c, 0, 34, 22
1, 466653, Note_on_c, 0, 34, 0
1, 466653, Poly_aftertouch_c, 0, 34, 0
1, 467104, Control_c, 0, 64, 119
1, 467795, Control_c, 0, 64, 115
1, 467907, Control_c, 0, 67, 122
1, 467925, Control_c, 0, 64, 110
1, 467925, Control_c, 0, 67, 118
1, 467944, Control_c, 0, 67, 114
1, 468000, Control_c, 0, 67, 107
1, 468020, Control_c, 0, 67, 103
1, 468038, Control_c, 0, 67, 98
1, 468056, Control_c, 0, 67, 92
1, 468075, Control_c, 0, 67, 88
1, 468094, Control_c, 0, 67, 83
1, 468113, Control_c, 0, 67, 77
1, 468132, Control_c, 0, 67, 69
1, 468151, Control_c, 0, 67, 62
1, 468169, Control_c, 0, 67, 55
1, 468189, Control_c, 0, 67, 48
1, 468206, Control_c, 0, 64, 105
1, 468207, Control_c, 0, 67, 41
1, 468225, Control_c, 0, 64, 100
1, 468227, Control_c, 0, 67, 33
1, 468246, Control_c, 0, 64, 96
1, 468247, Control_c, 0, 67, 25
1, 468262, Control_c, 0, 67, 16
1, 468281, Control_c, 0, 67, 8
1, 468319, Control_c, 0, 64, 92
1, 468356, Control_c, 0, 67, 0
1, 468394, Control_c, 0, 64, 84
1, 468412, Control_c, 0, 64, 77
1, 468431, Control_c, 0, 64, 72
1, 468449, Control_c, 0, 64, 67
1, 468468, Control_c, 0, 64, 63
1, 468486, Control_c, 0, 64, 64
1, 468506, Control_c, 0, 64, 71
1, 468524, Control_c, 0, 64, 85
1, 468542, Control_c, 0, 64, 98
1, 468562, Control_c, 0, 64, 115
1, 468580, Control_c, 0, 64, 127
1, 468678, Note_on_c, 0, 44, 45
1, 468875, Note_on_c, 0, 44, 0
1, 468875, Poly_aftertouch_c, 0, 44, 0
1, 468888, Note_on_c, 0, 53, 49
1, 468951, Note_on_c, 0, 53, 0
1, 468968, Note_on_c, 0, 56, 60
1, 469008, Note_on_c, 0, 56, 0
1, 469008, Poly_aftertouch_c, 0, 56, 0
1, 469054, Note_on_c, 0, 61, 63
1, 469140, Note_on_c, 0, 65, 64
1, 469210, Note_on_c, 0, 61, 0
1, 469255, Note_on_c, 0, 68, 66
1, 469676, Note_on_c, 0, 77, 81
1, 469700, Note_on_c, 0, 73, 58
1, 469747, Note_on_c, 0, 73, 0
1, 469747, Poly_aftertouch_c, 0, 73, 0
1, 469826, Note_on_c, 0, 77, 0
1, 470385, Note_on_c, 0, 65, 0
1, 470680, Note_on_c, 0, 68, 0
1, 473197, Note_on_c, 0, 76, 56
1, 473222, Note_on_c, 0, 72, 42
1, 473598, Note_on_c, 0, 72, 0
1, 473598, Poly_aftertouch_c, 0, 72, 0
1, 474194, Note_on_c, 0, 76, 0
1, 474451, Control_c, 0, 67, 8
1, 474620, Control_c, 0, 67, 12
1, 474752, Control_c, 0, 67, 16
1, 474826, Control_c, 0, 67, 21
1, 474862, Control_c, 0, 67, 25
1, 474901, Control_c, 0, 67, 30
1, 474938, Control_c, 0, 67, 36
1, 474975, Control_c, 0, 67, 40
1, 475013, Control_c, 0, 67, 44
1, 475033, Note_on_c, 0, 75, 44
1, 475050, Control_c, 0, 67, 48
1, 475065, Note_on_c, 0, 71, 32
1, 475087, Control_c, 0, 67, 53
1, 475126, Control_c, 0, 67, 58
1, 475162, Control_c, 0, 67, 63
1, 475199, Control_c, 0, 67, 67
1, 475237, Control_c, 0, 67, 71
1, 475274, Control_c, 0, 67, 76
1, 475312, Control_c, 0, 67, 81
1, 475350, Control_c, 0, 67, 86
1, 475387, Control_c, 0, 67, 93
1, 475425, Control_c, 0, 67, 99
1, 475461, Control_c, 0, 67, 105
1, 475500, Control_c, 0, 67, 111
1, 475536, Control_c, 0, 67, 116
1, 475592, Control_c, 0, 64, 123
1, 475593, Control_c, 0, 67, 120
1, 475648, Control_c, 0, 67, 124
1, 475686, Control_c, 0, 64, 119
1, 475761, Control_c, 0, 64, 115
1, 475872, Control_c, 0, 64, 110
1, 475987, Note_on_c, 0, 34, 24
1, 476003, Control_c, 0, 64, 106
1, 476041, Control_c, 0, 64, 92
1, 476060, Control_c, 0, 64, 71
1, 476078, Control_c, 0, 64, 34
1, 476097, Control_c, 0, 64, 0
1, 476154, Control_c, 0, 64, 40
1, 476172, Control_c, 0, 64, 69
1, 476191, Control_c, 0, 64, 88
1, 476209, Control_c, 0, 64, 103
1, 476229, Control_c, 0, 64, 114
1, 476247, Control_c, 0, 64, 119
1, 476303, Control_c, 0, 64, 123
1, 476314, Note_on_c, 0, 71, 0
1, 476314, Poly_aftertouch_c, 0, 71, 0
1, 476338, Note_on_c, 0, 75, 0
1, 476338, Poly_aftertouch_c, 0, 75, 0
1, 476359, Control_c, 0, 64, 127
1, 476524, Note_on_c, 0, 41, 22
1, 476621, Note_on_c, 0, 41, 0
1, 476621, Poly_aftertouch_c, 0, 41, 0
1, 476780, Note_on_c, 0, 46, 31
1, 476902, Poly_aftertouch_c, 0, 34, 24
1, 476989, Note_on_c, 0, 34, 0
1, 476989, Poly_aftertouch_c, 0, 34, 0
1, 476990, Poly_aftertouch_c, 0, 34, 0
1, 476998, Note_on_c, 0, 49, 29
1, 477083, Note_on_c, 0, 46, 0
1, 477083, Poly_aftertouch_c, 0, 46, 0
1, 477216, Note_on_c, 0, 53, 25
1, 477454, Poly_aftertouch_c, 0, 53, 24
1, 477469, Note_on_c, 0, 58, 12
1, 477783, Note_on_c, 0, 61, 30
1, 477896, Poly_aftertouch_c, 0, 53, 22
1, 478184, Poly_aftertouch_c, 0, 49, 24
1, 478471, Note_on_c, 0, 73, 36
1, 478499, Note_on_c, 0, 70, 33
1, 478608, Poly_aftertouch_c, 0, 49, 22
1, 478609, Poly_aftertouch_c, 0, 53, 20
1, 478760, Note_on_c, 0, 49, 0
1, 478760, Poly_aftertouch_c, 0, 49, 0
1, 478978, Note_on_c, 0, 53, 0
1, 478978, Poly_aftertouch_c, 0, 53, 0
1, 478979, Poly_aftertouch_c, 0, 53, 0
1, 478989, Poly_aftertouch_c, 0, 58, 24
1, 479159, Note_on_c, 0, 58, 0
1, 479159, Poly_aftertouch_c, 0, 58, 0
1, 479177, Note_on_c, 0, 73, 0
1, 479177, Poly_aftertouch_c, 0, 73, 0
1, 479310, Poly_aftertouch_c, 0, 61, 24
1, 479368, Poly_aftertouch_c, 0, 70, 24
1, 479393, Note_on_c, 0, 61, 0
1, 479393, Poly_aftertouch_c, 0, 61, 0
1, 479436, Note_on_c, 0, 70, 0
1, 479436, Poly_aftertouch_c, 0, 70, 0
1, 479437, Poly_aftertouch_c, 0, 70, 0
1, 481860, Note_on_c, 0, 70, 27
1, 482332, Poly_aftertouch_c, 0, 70, 24
1, 482451, Note_on_c, 0, 70, 0
1, 482451, Poly_aftertouch_c, 0, 70, 0
1, 483425, Note_on_c, 0, 65, 15
1, 486250, Control_c, 0, 67, 120
1, 486456, Control_c, 0, 67, 116
1, 486681, Control_c, 0, 67, 112
1, 486849, Control_c, 0, 67, 108
1, 487017, Control_c, 0, 67, 104
1, 487223, Control_c, 0, 67, 100
1, 487353, Control_c, 0, 67, 96
1, 487428, Control_c, 0, 67, 91
1, 487523, Control_c, 0, 64, 123
1, 487634, Control_c, 0, 67, 87
1, 487653, Control_c, 0, 64, 119
1, 487765, Control_c, 0, 67, 83
1, 487839, Control_c, 0, 64, 115
1, 488027, Control_c, 0, 64, 111
1, 488064, Control_c, 0, 67, 78
1, 488139, Control_c, 0, 67, 74
1, 488290, Control_c, 0, 64, 107
1, 488291, Control_c, 0, 67, 70
1, 488457, Control_c, 0, 67, 66
1, 488513, Control_c, 0, 64, 103
1, 488606, Control_c, 0, 67, 62
1, 488681, Control_c, 0, 64, 99
1, 488700, Control_c, 0, 67, 58
1, 488756, Control_c, 0, 67, 54
1, 488812, Control_c, 0, 64, 94
1, 488813, Control_c, 0, 67, 50
1, 488868, Control_c, 0, 67, 45
1, 488924, Control_c, 0, 67, 41
1, 488961, Control_c, 0, 64, 90
1, 488962, Control_c, 0, 67, 37
1, 488999, Control_c, 0, 67, 33
1, 489036, Control_c, 0, 67, 29
1, 489073, Control_c, 0, 67, 25
1, 489093, Control_c, 0, 64, 88
1, 489131, Control_c, 0, 67, 20
1, 489187, Control_c, 0, 67, 16
1, 489205, Control_c, 0, 64, 86
1, 489262, Control_c, 0, 67, 12
1, 489298, Control_c, 0, 64, 84
1, 489336, Control_c, 0, 64, 82
1, 489373, Control_c, 0, 64, 80
1, 489410, Control_c, 0, 64, 78
1, 489429, Control_c, 0, 67, 8
1, 489467, Control_c, 0, 64, 75
1, 489523, Control_c, 0, 64, 73
1, 489579, Control_c, 0, 64, 71
1, 489635, Control_c, 0, 64, 69
1, 489673, Control_c, 0, 64, 67
1, 489691, Control_c, 0, 64, 66
1, 489709, Control_c, 0, 64, 65
1, 489729, Control_c, 0, 64, 63
1, 489746, Control_c, 0, 64, 62
1, 489766, Control_c, 0, 64, 60
1, 489804, Control_c, 0, 64, 57
1, 489821, Control_c, 0, 64, 55
1, 489841, Control_c, 0, 64, 53
1, 489859, Control_c, 0, 64, 50
1, 489878, Control_c, 0, 64, 48
1, 489896, Control_c, 0, 64, 46
1, 489915, Control_c, 0, 64, 44
1, 489934, Control_c, 0, 64, 41
1, 489971, Control_c, 0, 64, 36
1, 489990, Control_c, 0, 67, 0
1, 490009, Control_c, 0, 64, 32
1, 490046, Control_c, 0, 64, 28
1, 490083, Control_c, 0, 64, 23
1, 490121, Control_c, 0, 64, 19
1, 490158, Control_c, 0, 64, 14
1, 490177, Control_c, 0, 64, 9
1, 490196, Control_c, 0, 64, 0
1, 491280, Note_on_c, 0, 65, 0
1, 495187, Control_c, 0, 64, 9
1, 495207, Control_c, 0, 64, 21
1, 495226, Control_c, 0, 64, 33
1, 495245, Control_c, 0, 64, 43
1, 495263, Control_c, 0, 64, 51
1, 495282, Control_c, 0, 64, 59
1, 495301, Control_c, 0, 64, 67
1, 495318, Control_c, 0, 64, 71
1, 495338, Control_c, 0, 64, 73
1, 495376, Control_c, 0, 64, 75
1, 495393, Control_c, 0, 64, 77
1, 495413, Control_c, 0, 64, 79
1, 495431, Control_c, 0, 64, 81
1, 495450, Control_c, 0, 64, 83
1, 495468, Control_c, 0, 64, 86
1, 495506, Control_c, 0, 64, 94
1, 495524, Control_c, 0, 64, 98
1, 495543, Control_c, 0, 64, 102
1, 495562, Control_c, 0, 64, 107
1, 495581, Control_c, 0, 64, 111
1, 495618, Control_c, 0, 64, 117
1, 495656, Control_c, 0, 64, 123
1, 495693, Control_c, 0, 64, 127
1, 496520, Note_on_c, 0, 78, 71
1, 496562, Note_on_c, 0, 70, 37
1, 496566, Note_on_c, 0, 61, 34
1, 496572, Note_on_c, 0, 54, 30
1, 496634, Poly_aftertouch_c, 0, 64, 127
1, 497523, Note_on_c, 0, 79, 68
1, 497658, Note_on_c, 0, 78, 0
1, 497731, Control_c, 0, 64, 116
1, 497750, Control_c, 0, 64, 104
1, 497769, Control_c, 0, 64, 90
1, 497787, Control_c, 0, 64, 71
1, 497806, Control_c, 0, 64, 50
1, 497825, Control_c, 0, 64, 16
1, 497843, Control_c, 0, 64, 0
1, 497899, Control_c, 0, 64, 21
1, 497919, Control_c, 0, 64, 45
1, 497936, Control_c, 0, 64, 63
1, 497956, Control_c, 0, 64, 79
1, 497974, Control_c, 0, 64, 88
1, 497993, Control_c, 0, 64, 97
1, 498012, Control_c, 0, 64, 104
1, 498030, Control_c, 0, 64, 108
1, 498142, Control_c, 0, 64, 112
1, 498181, Control_c, 0, 64, 116
1, 498217, Control_c, 0, 64, 123
1, 498236, Control_c, 0, 64, 127
1, 499656, Note_on_c, 0, 78, 58
1, 500267, Note_on_c, 0, 75, 59
1, 500590, Poly_aftertouch_c, 0, 64, 0
1, 500648, Note_on_c, 0, 76, 67
1, 500736, Note_on_c, 0, 70, 0
1, 500736, Poly_aftertouch_c, 0, 70, 0
1, 500784, Note_on_c, 0, 75, 0
1, 500784, Poly_aftertouch_c, 0, 75, 0
1, 500800, Note_on_c, 0, 78, 0
1, 500870, Note_on_c, 0, 76, 0
1, 501120, Note_on_c, 0, 76, 69
1, 501161, Note_on_c, 0, 69, 35
1, 501174, Note_on_c, 0, 60, 31
1, 501181, Note_on_c, 0, 64, 32
1, 501207, Poly_aftertouch_c, 0, 54, 24
1, 501208, Note_on_c, 0, 61, 0
1, 501208, Poly_aftertouch_c, 0, 61, 0
1, 501228, Control_c, 0, 64, 116
1, 501246, Control_c, 0, 64, 103
1, 501266, Control_c, 0, 64, 87
1, 501273, Note_on_c, 0, 79, 0
1, 501273, Poly_aftertouch_c, 0, 79, 0
1, 501285, Control_c, 0, 64, 67
1, 501302, Control_c, 0, 64, 39
1, 501321, Control_c, 0, 64, 0
1, 501323, Control_c, 0, 67, 8
1, 501327, Note_on_c, 0, 54, 0
1, 501327, Poly_aftertouch_c, 0, 54, 0
1, 501377, Control_c, 0, 64, 8
1, 501396, Control_c, 0, 64, 38
1, 501415, Control_c, 0, 64, 60
1, 501433, Control_c, 0, 64, 77
1, 501452, Control_c, 0, 64, 86
1, 501471, Control_c, 0, 64, 93
1, 501489, Control_c, 0, 64, 99
1, 501508, Control_c, 0, 64, 104
1, 501528, Control_c, 0, 64, 111
1, 501529, Control_c, 0, 67, 13
1, 501547, Control_c, 0, 64, 116
1, 501583, Control_c, 0, 64, 121
1, 501621, Control_c, 0, 64, 127
1, 501661, Note_on_c, 0, 69, 0
1, 501733, Control_c, 0, 67, 17
1, 501808, Control_c, 0, 67, 21
1, 501883, Control_c, 0, 67, 26
1, 501921, Control_c, 0, 67, 30
1, 501977, Control_c, 0, 67, 36
1, 502126, Control_c, 0, 67, 40
1, 502279, Note_on_c, 0, 69, 52
1, 502367, Control_c, 0, 64, 122
1, 502407, Control_c, 0, 64, 116
1, 502425, Control_c, 0, 64, 109
1, 502426, Control_c, 0, 67, 44
1, 502443, Control_c, 0, 64, 97
1, 502464, Control_c, 0, 64, 78
1, 502467, Control_c, 0, 67, 48
1, 502481, Control_c, 0, 64, 56
1, 502499, Control_c, 0, 64, 33
1, 502518, Control_c, 0, 64, 21
1, 502519, Control_c, 0, 67, 53
1, 502537, Control_c, 0, 64, 25
1, 502556, Control_c, 0, 64, 39
1, 502574, Control_c, 0, 64, 51
1, 502593, Control_c, 0, 64, 64
1, 502613, Control_c, 0, 64, 75
1, 502630, Control_c, 0, 64, 81
1, 502649, Control_c, 0, 64, 85
1, 502669, Control_c, 0, 64, 88
1, 502704, Poly_aftertouch_c, 0, 76, 20
1, 502705, Control_c, 0, 64, 94
1, 502711, Note_on_c, 0, 76, 0
1, 502711, Poly_aftertouch_c, 0, 76, 0
1, 502743, Control_c, 0, 64, 101
1, 502780, Control_c, 0, 64, 108
1, 502798, Control_c, 0, 64, 112
1, 502835, Control_c, 0, 64, 118
1, 502837, Control_c, 0, 67, 58
1, 502873, Control_c, 0, 67, 63
1, 502893, Control_c, 0, 64, 123
1, 502929, Control_c, 0, 67, 68
1, 502985, Control_c, 0, 64, 127
1, 503135, Control_c, 0, 67, 72
1, 503139, Note_on_c, 0, 64, 0
1, 503397, Poly_aftertouch_c, 0, 60, 24
1, 503439, Note_on_c, 0, 60, 0
1, 503439, Poly_aftertouch_c, 0, 60, 0
1, 503491, Control_c, 0, 67, 68
1, 503771, Control_c, 0, 67, 64
1, 503884, Control_c, 0, 67, 59
1, 503939, Control_c, 0, 67, 54
1, 503976, Control_c, 0, 67, 50
1, 504033, Control_c, 0, 67, 45
1, 504070, Control_c, 0, 67, 41
1, 504126, Control_c, 0, 67, 36
1, 504181, Control_c, 0, 67, 31
1, 504208, Note_on_c, 0, 67, 47
1, 504220, Control_c, 0, 67, 27
1, 504251, Note_on_c, 0, 62, 29
1, 504252, Note_on_c, 0, 59, 27
1, 504256, Control_c, 0, 67, 22
1, 504295, Control_c, 0, 67, 16
1, 504332, Control_c, 0, 64, 121
1, 504334, Control_c, 0, 67, 11
1, 504351, Control_c, 0, 64, 106
1, 504370, Control_c, 0, 64, 76
1, 504388, Control_c, 0, 64, 50
1, 504426, Control_c, 0, 64, 59
1, 504444, Control_c, 0, 64, 73
1, 504463, Control_c, 0, 64, 82
1, 504482, Control_c, 0, 64, 93
1, 504500, Control_c, 0, 64, 107
1, 504519, Control_c, 0, 64, 118
1, 504537, Control_c, 0, 64, 123
1, 504556, Note_on_c, 0, 71, 68
1, 504575, Control_c, 0, 64, 127
1, 504717, Note_on_c, 0, 67, 0
1, 504723, Control_c, 0, 67, 0
1, 504787, Note_on_c, 0, 62, 0
1, 504787, Poly_aftertouch_c, 0, 62, 0
1, 504804, Poly_aftertouch_c, 0, 59, 24
1, 504862, Note_on_c, 0, 59, 0
1, 504862, Poly_aftertouch_c, 0, 59, 0
1, 504924, Note_on_c, 0, 69, 0
1, 505067, Note_on_c, 0, 60, 28
1, 505078, Note_on_c, 0, 57, 26
1, 505104, Note_on_c, 0, 72, 69
1, 505127, Note_on_c, 0, 66, 49
1, 505135, Control_c, 0, 64, 121
1, 505154, Control_c, 0, 64, 113
1, 505175, Control_c, 0, 64, 100
1, 505191, Control_c, 0, 64, 81
1, 505211, Control_c, 0, 64, 54
1, 505216, Note_on_c, 0, 71, 0
1, 505216, Poly_aftertouch_c, 0, 71, 0
1, 505230, Control_c, 0, 64, 0
1, 505304, Control_c, 0, 64, 35
1, 505323, Control_c, 0, 64, 63
1, 505341, Control_c, 0, 64, 80
1, 505361, Control_c, 0, 64, 90
1, 505380, Control_c, 0, 64, 103
1, 505397, Control_c, 0, 64, 115
1, 505417, Control_c, 0, 64, 126
1, 505923, Note_on_c, 0, 76, 70
1, 506048, Note_on_c, 0, 72, 0
1, 506048, Poly_aftertouch_c, 0, 72, 0
1, 506396, Note_on_c, 0, 76, 0
1, 506396, Poly_aftertouch_c, 0, 76, 0
1, 506500, Control_c, 0, 67, 8
1, 506564, Poly_aftertouch_c, 0, 57, 22
1, 506593, Note_on_c, 0, 57, 0
1, 506593, Poly_aftertouch_c, 0, 57, 0
1, 506594, Control_c, 0, 67, 13
1, 506669, Control_c, 0, 67, 18
1, 506708, Control_c, 0, 67, 22
1, 506744, Control_c, 0, 67, 26
1, 506782, Control_c, 0, 67, 32
1, 506820, Control_c, 0, 67, 36
1, 506857, Control_c, 0, 67, 40
1, 506913, Control_c, 0, 67, 44
1, 506950, Control_c, 0, 67, 48
1, 507005, Control_c, 0, 67, 53
1, 507080, Control_c, 0, 67, 57
1, 507155, Control_c, 0, 67, 61
1, 507212, Control_c, 0, 67, 65
1, 507267, Control_c, 0, 67, 70
1, 507342, Control_c, 0, 67, 75
1, 507398, Control_c, 0, 67, 79
1, 507473, Control_c, 0, 67, 84
1, 507502, Note_on_c, 0, 66, 0
1, 507502, Poly_aftertouch_c, 0, 66, 0
1, 507548, Control_c, 0, 67, 88
1, 507622, Control_c, 0, 67, 92
1, 507699, Control_c, 0, 67, 96
1, 507809, Control_c, 0, 67, 100
1, 507894, Note_on_c, 0, 74, 48
1, 507940, Control_c, 0, 67, 104
1, 508071, Control_c, 0, 67, 108
1, 508149, Note_on_c, 0, 60, 0
1, 508149, Poly_aftertouch_c, 0, 60, 0
1, 508184, Control_c, 0, 67, 112
1, 508314, Control_c, 0, 67, 116
1, 508435, Note_on_c, 0, 56, 31
1, 508531, Note_on_c, 0, 71, 49
1, 508539, Note_on_c, 0, 65, 32
1, 508557, Control_c, 0, 67, 120
1, 508634, Control_c, 0, 64, 107
1, 508651, Control_c, 0, 64, 81
1, 508670, Note_on_c, 0, 74, 0
1, 508670, Control_c, 0, 64, 68
1, 508689, Control_c, 0, 64, 72
1, 508707, Control_c, 0, 64, 76
1, 508727, Control_c, 0, 64, 83
1, 508744, Control_c, 0, 64, 92
1, 508763, Control_c, 0, 64, 102
1, 508783, Control_c, 0, 64, 113
1, 508801, Control_c, 0, 64, 121
1, 508886, Note_on_c, 0, 72, 58
1, 508893, Control_c, 0, 64, 125
1, 508942, Note_on_c, 0, 71, 0
1, 508942, Poly_aftertouch_c, 0, 71, 0
1, 509010, Note_on_c, 0, 65, 0
1, 509018, Note_on_c, 0, 72, 0
1, 509018, Poly_aftertouch_c, 0, 72, 0
1, 509045, Control_c, 0, 67, 116
1, 509120, Note_on_c, 0, 56, 0
1, 509120, Poly_aftertouch_c, 0, 56, 0
1, 509156, Control_c, 0, 67, 112
1, 509250, Control_c, 0, 67, 108
1, 509269, Note_on_c, 0, 72, 53
1, 509290, Note_on_c, 0, 64, 36
1, 509303, Note_on_c, 0, 55, 32
1, 509305, Control_c, 0, 67, 104
1, 509312, Note_on_c, 0, 48, 30
1, 509325, Control_c, 0, 64, 119
1, 509343, Control_c, 0, 67, 99
1, 509362, Control_c, 0, 64, 111
1, 509380, Control_c, 0, 64, 101
1, 509381, Control_c, 0, 67, 93
1, 509399, Control_c, 0, 64, 84
1, 509400, Control_c, 0, 67, 89
1, 509418, Control_c, 0, 64, 64
1, 509421, Control_c, 0, 67, 84
1, 509437, Control_c, 0, 64, 50
1, 509438, Control_c, 0, 67, 78
1, 509455, Control_c, 0, 64, 42
1, 509456, Control_c, 0, 67, 72
1, 509475, Control_c, 0, 64, 44
1, 509475, Control_c, 0, 67, 65
1, 509493, Control_c, 0, 64, 54
1, 509494, Control_c, 0, 67, 60
1, 509511, Control_c, 0, 64, 64
1, 509532, Control_c, 0, 64, 73
1, 509534, Control_c, 0, 67, 55
1, 509549, Control_c, 0, 64, 80
1, 509567, Control_c, 0, 64, 86
1, 509570, Control_c, 0, 67, 51
1, 509586, Control_c, 0, 64, 91
1, 509606, Control_c, 0, 64, 95
1, 509607, Control_c, 0, 67, 47
1, 509625, Control_c, 0, 64, 99
1, 509662, Control_c, 0, 64, 107
1, 509663, Control_c, 0, 67, 43
1, 509680, Control_c, 0, 64, 111
1, 509699, Control_c, 0, 64, 115
1, 509738, Control_c, 0, 64, 122
1, 509754, Control_c, 0, 67, 39
1, 509811, Control_c, 0, 64, 126
1, 509811, Control_c, 0, 67, 35
1, 509867, Control_c, 0, 67, 30
1, 509923, Control_c, 0, 67, 24
1, 509960, Control_c, 0, 67, 19
1, 509998, Control_c, 0, 67, 15
1, 510035, Control_c, 0, 67, 11
1, 510047, Note_on_c, 0, 67, 56
1, 510166, Control_c, 0, 64, 121
1, 510185, Control_c, 0, 64, 116
1, 510203, Control_c, 0, 64, 100
1, 510204, Note_on_c, 0, 72, 0
1, 510204, Poly_aftertouch_c, 0, 72, 0
1, 510223, Control_c, 0, 64, 73
1, 510241, Control_c, 0, 64, 55
1, 510279, Control_c, 0, 64, 62
1, 510296, Control_c, 0, 64, 72
1, 510316, Control_c, 0, 64, 80
1, 510335, Control_c, 0, 64, 90
1, 510353, Control_c, 0, 64, 102
1, 510372, Control_c, 0, 64, 112
1, 510390, Control_c, 0, 64, 118
1, 510410, Note_on_c, 0, 64, 0
1, 510410, Control_c, 0, 64, 122
1, 510445, Control_c, 0, 64, 127
1, 510553, Note_on_c, 0, 55, 0
1, 510553, Poly_aftertouch_c, 0, 55, 0
1, 510686, Note_on_c, 0, 63, 43
1, 510704, Note_on_c, 0, 54, 36
1, 510783, Control_c, 0, 64, 113
1, 510802, Control_c, 0, 64, 81
1, 510821, Control_c, 0, 64, 57
1, 510838, Control_c, 0, 64, 59
1, 510858, Control_c, 0, 64, 79
1, 510877, Control_c, 0, 64, 102
1, 510894, Control_c, 0, 64, 127
1, 511001, Note_on_c, 0, 69, 63
1, 511090, Poly_aftertouch_c, 0, 48, 24
1, 511177, Note_on_c, 0, 54, 0
1, 511177, Note_on_c, 0, 63, 0
1, 511177, Poly_aftertouch_c, 0, 54, 0
1, 511309, Note_on_c, 0, 67, 0
1, 511342, Poly_aftertouch_c, 0, 48, 20
1, 511362, Control_c, 0, 64, 123
1, 511376, Note_on_c, 0, 53, 36
1, 511380, Control_c, 0, 64, 117
1, 511391, Note_on_c, 0, 62, 54
1, 511401, Control_c, 0, 64, 112
1, 511419, Control_c, 0, 64, 104
1, 511436, Control_c, 0, 64, 93
1, 511456, Control_c, 0, 64, 72
1, 511475, Control_c, 0, 64, 35
1, 511493, Control_c, 0, 64, 0
1, 511512, Control_c, 0, 64, 21
1, 511530, Control_c, 0, 64, 57
1, 511551, Control_c, 0, 64, 88
1, 511568, Control_c, 0, 64, 108
1, 511587, Control_c, 0, 64, 127
1, 511610, Note_on_c, 0, 48, 0
1, 511610, Poly_aftertouch_c, 0, 48, 0
1, 511691, Note_on_c, 0, 71, 64
1, 511734, Note_on_c, 0, 69, 0
1, 511755, Note_on_c, 0, 62, 0
1, 511755, Poly_aftertouch_c, 0, 62, 0
1, 511849, Note_on_c, 0, 53, 0
1, 512038, Note_on_c, 0, 71, 0
1, 512038, Poly_aftertouch_c, 0, 71, 0
1, 512042, Note_on_c, 0, 69, 55
1, 512044, Note_on_c, 0, 61, 50
1, 512063, Note_on_c, 0, 45, 34
1, 512066, Note_on_c, 0, 52, 33
1, 512073, Control_c, 0, 64, 120
1, 512092, Control_c, 0, 64, 106
1, 512110, Control_c, 0, 64, 85
1, 512129, Control_c, 0, 64, 53
1, 512148, Control_c, 0, 64, 0
1, 512149, Control_c, 0, 67, 15
1, 512223, Control_c, 0, 64, 15
1, 512241, Control_c, 0, 64, 44
1, 512261, Control_c, 0, 64, 62
1, 512280, Control_c, 0, 64, 75
1, 512297, Control_c, 0, 64, 82
1, 512316, Control_c, 0, 64, 89
1, 512335, Control_c, 0, 64, 97
1, 512353, Control_c, 0, 64, 108
1, 512372, Control_c, 0, 64, 117
1, 512390, Control_c, 0, 64, 123
1, 512428, Control_c, 0, 64, 127
1, 512747, Note_on_c, 0, 64, 49
1, 512765, Control_c, 0, 67, 19
1, 512821, Control_c, 0, 64, 118
1, 512821, Control_c, 0, 67, 24
1, 512840, Control_c, 0, 64, 107
1, 512842, Note_on_c, 0, 69, 0
1, 512858, Control_c, 0, 64, 88
1, 512877, Control_c, 0, 64, 61
1, 512879, Control_c, 0, 67, 29
1, 512897, Control_c, 0, 64, 27
1, 512914, Control_c, 0, 64, 0
1, 512934, Control_c, 0, 64, 23
1, 512935, Control_c, 0, 67, 35
1, 512952, Control_c, 0, 64, 44
1, 512971, Control_c, 0, 64, 62
1, 512990, Control_c, 0, 64, 77
1, 512992, Control_c, 0, 67, 39
1, 513009, Control_c, 0, 64, 88
1, 513028, Control_c, 0, 64, 99
1, 513046, Control_c, 0, 64, 109
1, 513064, Control_c, 0, 64, 116
1, 513102, Control_c, 0, 64, 123
1, 513102, Control_c, 0, 67, 43
1, 513140, Control_c, 0, 64, 127
1, 513214, Control_c, 0, 67, 47
1, 513270, Control_c, 0, 67, 52
1, 513303, Note_on_c, 0, 61, 0
1, 513303, Poly_aftertouch_c, 0, 61, 0
1, 513306, Control_c, 0, 67, 56
1, 513316, Note_on_c, 0, 52, 0
1, 513382, Control_c, 0, 67, 60
1, 513512, Control_c, 0, 67, 64
1, 513606, Control_c, 0, 67, 68
1, 513623, Note_on_c, 0, 60, 39
1, 513643, Control_c, 0, 64, 121
1, 513662, Control_c, 0, 64, 116
1, 513668, Note_on_c, 0, 51, 29
1, 513683, Control_c, 0, 64, 106
1, 513685, Control_c, 0, 67, 72
1, 513700, Control_c, 0, 64, 85
1, 513718, Control_c, 0, 64, 59
1, 513734, Poly_aftertouch_c, 0, 45, 24
1, 513737, Control_c, 0, 64, 30
1, 513739, Control_c, 0, 67, 78
1, 513757, Control_c, 0, 64, 21
1, 513775, Control_c, 0, 64, 34
1, 513794, Control_c, 0, 64, 50
1, 513795, Control_c, 0, 67, 82
1, 513812, Control_c, 0, 64, 66
1, 513832, Control_c, 0, 64, 77
1, 513849, Control_c, 0, 64, 84
1, 513868, Control_c, 0, 64, 90
1, 513887, Control_c, 0, 64, 95
1, 513906, Control_c, 0, 64, 100
1, 513908, Note_on_c, 0, 45, 0
1, 513908, Poly_aftertouch_c, 0, 45, 0
1, 513924, Control_c, 0, 64, 105
1, 513943, Control_c, 0, 64, 109
1, 513980, Control_c, 0, 64, 116
1, 513999, Control_c, 0, 64, 120
1, 514036, Control_c, 0, 64, 126
1, 514166, Note_on_c, 0, 66, 52
1, 514333, Note_on_c, 0, 60, 0
1, 514333, Poly_aftertouch_c, 0, 60, 0
1, 514347, Note_on_c, 0, 64, 0
1, 514381, Note_on_c, 0, 51, 0
1, 514381, Poly_aftertouch_c, 0, 51, 0
1, 514609, Note_on_c, 0, 59, 40
1, 514629, Note_on_c, 0, 50, 30
1, 514635, Control_c, 0, 64, 120
1, 514640, Note_on_c, 0, 43, 24
1, 514653, Control_c, 0, 64, 112
1, 514672, Control_c, 0, 64, 97
1, 514691, Control_c, 0, 64, 75
1, 514710, Control_c, 0, 64, 52
1, 514728, Control_c, 0, 64, 37
1, 514746, Control_c, 0, 64, 44
1, 514766, Control_c, 0, 64, 57
1, 514784, Control_c, 0, 64, 73
1, 514803, Control_c, 0, 64, 83
1, 514822, Control_c, 0, 64, 93
1, 514840, Control_c, 0, 64, 104
1, 514859, Control_c, 0, 64, 112
1, 514878, Control_c, 0, 64, 116
1, 514897, Control_c, 0, 67, 86
1, 514921, Note_on_c, 0, 50, 0
1, 514970, Control_c, 0, 67, 91
1, 514976, Note_on_c, 0, 67, 50
1, 514990, Control_c, 0, 64, 120
1, 515016, Note_on_c, 0, 66, 0
1, 515016, Poly_aftertouch_c, 0, 66, 0
1, 515037, Note_on_c, 0, 49, 34
1, 515064, Control_c, 0, 67, 96
1, 515069, Poly_aftertouch_c, 0, 43, 22
1, 515088, Note_on_c, 0, 43, 0
1, 515088, Poly_aftertouch_c, 0, 43, 0
1, 515113, Note_on_c, 0, 59, 0
1, 515113, Poly_aftertouch_c, 0, 59, 0
1, 515120, Control_c, 0, 67, 100
1, 515121, Note_on_c, 0, 49, 0
1, 515121, Poly_aftertouch_c, 0, 49, 0
1, 515177, Control_c, 0, 67, 104
1, 515195, Note_on_c, 0, 67, 0
1, 515252, Control_c, 0, 67, 109
1, 515364, Control_c, 0, 67, 114
1, 515639, Note_on_c, 0, 66, 45
1, 515645, Control_c, 0, 67, 118
1, 515653, Note_on_c, 0, 62, 35
1, 515671, Note_on_c, 0, 38, 31
1, 515674, Note_on_c, 0, 57, 26
1, 515691, Note_on_c, 0, 50, 22
1, 515699, Control_c, 0, 64, 116
1, 515739, Control_c, 0, 64, 107
1, 515740, Control_c, 0, 67, 122
1, 515757, Control_c, 0, 64, 95
1, 515775, Control_c, 0, 64, 78
1, 515794, Control_c, 0, 64, 58
1, 515813, Control_c, 0, 64, 32
1, 515831, Control_c, 0, 64, 0
1, 515869, Control_c, 0, 64, 11
1, 515887, Control_c, 0, 64, 31
1, 515907, Control_c, 0, 64, 45
1, 515925, Control_c, 0, 64, 59
1, 515943, Control_c, 0, 64, 70
1, 515963, Control_c, 0, 64, 76
1, 515981, Control_c, 0, 64, 79
1, 516000, Control_c, 0, 64, 81
1, 516018, Control_c, 0, 64, 85
1, 516037, Control_c, 0, 64, 89
1, 516056, Control_c, 0, 64, 94
1, 516074, Control_c, 0, 64, 98
1, 516093, Control_c, 0, 64, 104
1, 516112, Control_c, 0, 64, 110
1, 516131, Control_c, 0, 64, 115
1, 516170, Control_c, 0, 64, 120
1, 516221, Poly_aftertouch_c, 0, 50, 24
1, 516243, Control_c, 0, 64, 124
1, 516305, Poly_aftertouch_c, 0, 57, 24
1, 516328, Note_on_c, 0, 38, 0
1, 516362, Note_on_c, 0, 50, 0
1, 516362, Poly_aftertouch_c, 0, 50, 0
1, 516364, Note_on_c, 0, 66, 0
1, 516364, Poly_aftertouch_c, 0, 66, 0
1, 516392, Control_c, 0, 67, 126
1, 516451, Note_on_c, 0, 57, 0
1, 516451, Poly_aftertouch_c, 0, 57, 0
1, 516512, Poly_aftertouch_c, 0, 62, 20
1, 516523, Note_on_c, 0, 62, 0
1, 516523, Poly_aftertouch_c, 0, 62, 0
1, 517510, Note_on_c, 0, 62, 33
1, 517510, Note_on_c, 0, 64, 38
1, 517527, Note_on_c, 0, 50, 25
1, 517541, Note_on_c, 0, 55, 22
1, 517556, Note_on_c, 0, 35, 25
1, 517608, Control_c, 0, 64, 115
1, 517627, Control_c, 0, 64, 106
1, 517645, Control_c, 0, 64, 93
1, 517665, Control_c, 0, 64, 73
1, 517682, Control_c, 0, 64, 54
1, 517702, Control_c, 0, 64, 36
1, 517720, Control_c, 0, 64, 30
1, 517738, Control_c, 0, 64, 36
1, 517757, Control_c, 0, 64, 47
1, 517776, Control_c, 0, 64, 59
1, 517795, Control_c, 0, 64, 70
1, 517813, Control_c, 0, 64, 76
1, 517833, Control_c, 0, 64, 80
1, 517851, Control_c, 0, 64, 83
1, 517870, Control_c, 0, 64, 86
1, 517907, Control_c, 0, 64, 94
1, 517926, Control_c, 0, 64, 100
1, 517944, Control_c, 0, 64, 106
1, 517963, Control_c, 0, 64, 112
1, 517970, Poly_aftertouch_c, 0, 55, 24
1, 517982, Control_c, 0, 64, 117
1, 518019, Control_c, 0, 64, 123
1, 518075, Control_c, 0, 64, 127
1, 518141, Poly_aftertouch_c, 0, 35, 24
1, 518179, Poly_aftertouch_c, 0, 62, 24
1, 518217, Poly_aftertouch_c, 0, 50, 24
1, 518218, Poly_aftertouch_c, 0, 55, 20
1, 518231, Note_on_c, 0, 55, 0
1, 518231, Poly_aftertouch_c, 0, 55, 0
1, 518232, Note_on_c, 0, 62, 0
1, 518232, Poly_aftertouch_c, 0, 62, 0
1, 518327, Note_on_c, 0, 50, 0
1, 518327, Poly_aftertouch_c, 0, 50, 0
1, 518397, Note_on_c, 0, 35, 0
1, 518397, Poly_aftertouch_c, 0, 35, 0
1, 518562, Poly_aftertouch_c, 0, 64, 24
1, 518801, Note_on_c, 0, 64, 0
1, 518801, Poly_aftertouch_c, 0, 64, 0
1, 520122, Note_on_c, 0, 62, 15
1, 520123, Note_on_c, 0, 66, 25
1, 520139, Note_on_c, 0, 50, 18
1, 520144, Note_on_c, 0, 38, 17
1, 520149, Control_c, 0, 64, 123
1, 520152, Note_on_c, 0, 57, 10
1, 520188, Control_c, 0, 64, 119
1, 520208, Control_c, 0, 64, 115
1, 520226, Control_c, 0, 64, 108
1, 520245, Control_c, 0, 64, 99
1, 520263, Control_c, 0, 64, 89
1, 520283, Control_c, 0, 64, 79
1, 520300, Control_c, 0, 64, 70
1, 520319, Control_c, 0, 64, 65
1, 520338, Control_c, 0, 64, 61
1, 520356, Control_c, 0, 64, 56
1, 520375, Control_c, 0, 64, 50
1, 520395, Control_c, 0, 64, 46
1, 520415, Poly_aftertouch_c, 0, 57, 24
1, 520450, Control_c, 0, 64, 49
1, 520469, Control_c, 0, 64, 53
1, 520488, Control_c, 0, 64, 57
1, 520506, Control_c, 0, 64, 63
1, 520525, Control_c, 0, 64, 68
1, 520544, Control_c, 0, 64, 71
1, 520562, Control_c, 0, 64, 74
1, 520580, Control_c, 0, 64, 76
1, 520601, Control_c, 0, 64, 79
1, 520618, Control_c, 0, 64, 82
1, 520637, Control_c, 0, 64, 85
1, 520656, Control_c, 0, 64, 90
1, 520674, Control_c, 0, 64, 94
1, 520693, Control_c, 0, 64, 98
1, 520730, Control_c, 0, 64, 104
1, 520767, Control_c, 0, 64, 108
1, 520805, Control_c, 0, 64, 112
1, 520842, Control_c, 0, 64, 116
1, 520880, Control_c, 0, 64, 120
1, 520917, Control_c, 0, 64, 124
1, 521434, Poly_aftertouch_c, 0, 66, 24
1, 521464, Poly_aftertouch_c, 0, 50, 24
1, 521492, Poly_aftertouch_c, 0, 62, 24
1, 521513, Poly_aftertouch_c, 0, 57, 22
1, 521548, Poly_aftertouch_c, 0, 38, 24
1, 521552, Note_on_c, 0, 66, 0
1, 521552, Poly_aftertouch_c, 0, 66, 0
1, 521581, Note_on_c, 0, 57, 0
1, 521581, Poly_aftertouch_c, 0, 57, 0
1, 521582, Poly_aftertouch_c, 0, 57, 0
1, 521603, Note_on_c, 0, 62, 0
1, 521603, Poly_aftertouch_c, 0, 62, 0
1, 521717, Poly_aftertouch_c, 0, 50, 20
1, 521725, Note_on_c, 0, 50, 0
1, 521725, Poly_aftertouch_c, 0, 50, 0
1, 521793, Poly_aftertouch_c, 0, 38, 22
1, 521838, Note_on_c, 0, 38, 0
1, 521838, Poly_aftertouch_c, 0, 38, 0
1, 524414, Control_c, 0, 64, 120
1, 524434, Control_c, 0, 64, 115
1, 524451, Control_c, 0, 64, 109
1, 524470, Control_c, 0, 64, 103
1, 524508, Control_c, 0, 64, 96
1, 524545, Control_c, 0, 64, 91
1, 524582, Control_c, 0, 64, 86
1, 524602, Control_c, 0, 64, 83
1, 524619, Control_c, 0, 64, 81
1, 524657, Control_c, 0, 64, 79
1, 524714, Control_c, 0, 64, 76
1, 524751, Control_c, 0, 64, 73
1, 524788, Control_c, 0, 64, 71
1, 525012, Control_c, 0, 64, 73
1, 525051, Control_c, 0, 64, 76
1, 525068, Control_c, 0, 64, 78
1, 525087, Control_c, 0, 64, 81
1, 525106, Control_c, 0, 64, 83
1, 525124, Control_c, 0, 64, 86
1, 525143, Control_c, 0, 64, 90
1, 525162, Control_c, 0, 64, 95
1, 525180, Control_c, 0, 64, 99
1, 525199, Control_c, 0, 64, 104
1, 525237, Control_c, 0, 64, 110
1, 525274, Control_c, 0, 64, 116
1, 525293, Control_c, 0, 64, 120
1, 525313, Control_c, 0, 64, 124
1, 525573, Note_on_c, 0, 67, 39
1, 525590, Note_on_c, 0, 52, 23
1, 525598, Note_on_c, 0, 59, 25
1, 525602, Note_on_c, 0, 64, 30
1, 525609, Note_on_c, 0, 40, 18
1, 525914, Poly_aftertouch_c, 0, 40, 24
1, 525990, Note_on_c, 0, 52, 0
1, 526153, Note_on_c, 0, 40, 0
1, 526153, Poly_aftertouch_c, 0, 40, 0
1, 526571, Poly_aftertouch_c, 0, 59, 24
1, 526835, Poly_aftertouch_c, 0, 64, 22
1, 526896, Poly_aftertouch_c, 0, 67, 24
1, 526922, Note_on_c, 0, 64, 0
1, 526922, Poly_aftertouch_c, 0, 64, 0
1, 526935, Poly_aftertouch_c, 0, 59, 22
1, 526950, Note_on_c, 0, 69, 44
1, 526957, Note_on_c, 0, 67, 0
1, 526957, Poly_aftertouch_c, 0, 67, 0
1, 527039, Note_on_c, 0, 59, 0
1, 527039, Poly_aftertouch_c, 0, 59, 0
1, 527213, Note_on_c, 0, 69, 0
1, 527518, Note_on_c, 0, 33, 20
1, 527519, Note_on_c, 0, 45, 21
1, 527657, Note_on_c, 0, 60, 28
1, 527767, Note_on_c, 0, 66, 33
1, 527851, Note_on_c, 0, 67, 44
1, 527930, Control_c, 0, 64, 120
1, 527947, Control_c, 0, 64, 111
1, 527968, Control_c, 0, 64, 96
1, 527986, Control_c, 0, 64, 72
1, 528004, Control_c, 0, 64, 50
1, 528023, Control_c, 0, 64, 36
1, 528061, Control_c, 0, 64, 47
1, 528063, Control_c, 0, 67, 122
1, 528078, Control_c, 0, 64, 62
1, 528097, Control_c, 0, 64, 78
1, 528116, Control_c, 0, 64, 89
1, 528120, Control_c, 0, 67, 118
1, 528135, Control_c, 0, 64, 102
1, 528154, Control_c, 0, 64, 114
1, 528173, Control_c, 0, 64, 121
1, 528174, Control_c, 0, 67, 112
1, 528210, Control_c, 0, 64, 127
1, 528228, Control_c, 0, 67, 107
1, 528304, Control_c, 0, 67, 103
1, 528338, Note_on_c, 0, 33, 0
1, 528359, Control_c, 0, 67, 97
1, 528398, Control_c, 0, 67, 93
1, 528434, Control_c, 0, 67, 89
1, 528471, Control_c, 0, 67, 85
1, 528510, Control_c, 0, 67, 81
1, 528564, Control_c, 0, 67, 76
1, 528621, Control_c, 0, 67, 71
1, 528678, Control_c, 0, 67, 67
1, 528733, Control_c, 0, 67, 63
1, 528809, Control_c, 0, 67, 59
1, 528902, Control_c, 0, 67, 55
1, 528995, Control_c, 0, 67, 50
1, 528998, Poly_aftertouch_c, 0, 60, 24
1, 529000, Poly_aftertouch_c, 0, 66, 24
1, 529082, Note_on_c, 0, 66, 0
1, 529082, Poly_aftertouch_c, 0, 66, 0
1, 529088, Control_c, 0, 67, 46
1, 529144, Note_on_c, 0, 52, 31
1, 529153, Note_on_c, 0, 60, 0
1, 529153, Poly_aftertouch_c, 0, 60, 0
1, 529182, Control_c, 0, 67, 42
1, 529250, Note_on_c, 0, 67, 0
1, 529250, Poly_aftertouch_c, 0, 67, 0
1, 529256, Control_c, 0, 67, 37
1, 529313, Control_c, 0, 67, 33
1, 529388, Control_c, 0, 67, 29
1, 529482, Control_c, 0, 67, 25
1, 529574, Control_c, 0, 67, 21
1, 529668, Control_c, 0, 67, 16
1, 529781, Control_c, 0, 67, 12
1, 529870, Note_on_c, 0, 71, 44
1, 529949, Note_on_c, 0, 71, 0
1, 529949, Poly_aftertouch_c, 0, 71, 0
1, 530228, Note_on_c, 0, 67, 56
1, 530258, Note_on_c, 0, 60, 34
1, 530283, Note_on_c, 0, 64, 24
1, 530521, Note_on_c, 0, 60, 0
1, 530521, Poly_aftertouch_c, 0, 60, 0
1, 530534, Note_on_c, 0, 67, 0
1, 530534, Poly_aftertouch_c, 0, 67, 0
1, 530561, Poly_aftertouch_c, 0, 64, 24
1, 530584, Note_on_c, 0, 64, 0
1, 530584, Poly_aftertouch_c, 0, 64, 0
1, 530622, Control_c, 0, 67, 17
1, 530754, Control_c, 0, 67, 21
1, 530810, Control_c, 0, 67, 27
1, 530846, Control_c, 0, 67, 32
1, 530884, Control_c, 0, 67, 36
1, 530940, Control_c, 0, 67, 41
1, 530977, Note_on_c, 0, 69, 54
1, 530995, Control_c, 0, 67, 45
1, 531005, Poly_aftertouch_c, 0, 45, 24
1, 531052, Control_c, 0, 67, 50
1, 531126, Control_c, 0, 67, 54
1, 531135, Note_on_c, 0, 52, 0
1, 531144, Note_on_c, 0, 69, 0
1, 531253, Poly_aftertouch_c, 0, 45, 20
1, 531288, Note_on_c, 0, 50, 27
1, 531293, Note_on_c, 0, 45, 0
1, 531293, Poly_aftertouch_c, 0, 45, 0
1, 531362, Note_on_c, 0, 66, 51
1, 531368, Control_c, 0, 67, 58
1, 531399, Note_on_c, 0, 59, 30
1, 531401, Note_on_c, 0, 64, 37
1, 531426, Control_c, 0, 64, 118
1, 531445, Control_c, 0, 64, 109
1, 531446, Control_c, 0, 67, 62
1, 531463, Control_c, 0, 64, 96
1, 531483, Control_c, 0, 64, 82
1, 531484, Control_c, 0, 67, 67
1, 531502, Control_c, 0, 64, 68
1, 531519, Control_c, 0, 64, 51
1, 531520, Control_c, 0, 67, 73
1, 531538, Control_c, 0, 64, 0
1, 531557, Control_c, 0, 67, 80
1, 531594, Control_c, 0, 67, 85
1, 531613, Control_c, 0, 64, 28
1, 531632, Control_c, 0, 64, 54
1, 531650, Control_c, 0, 64, 76
1, 531651, Control_c, 0, 67, 90
1, 531669, Control_c, 0, 64, 89
1, 531688, Control_c, 0, 64, 102
1, 531707, Control_c, 0, 64, 113
1, 531708, Control_c, 0, 67, 94
1, 531726, Control_c, 0, 64, 120
1, 531744, Control_c, 0, 64, 125
1, 531763, Control_c, 0, 67, 100
1, 531764, Note_on_c, 0, 59, 0
1, 531764, Poly_aftertouch_c, 0, 59, 0
1, 531800, Control_c, 0, 67, 104
1, 531801, Note_on_c, 0, 50, 0
1, 531801, Poly_aftertouch_c, 0, 50, 0
1, 531818, Note_on_c, 0, 64, 0
1, 531818, Poly_aftertouch_c, 0, 64, 0
1, 531837, Control_c, 0, 67, 108
1, 531872, Note_on_c, 0, 66, 0
1, 531872, Poly_aftertouch_c, 0, 66, 0
1, 531893, Control_c, 0, 67, 112
1, 531949, Control_c, 0, 67, 117
1, 532080, Control_c, 0, 67, 121
1, 532087, Note_on_c, 0, 54, 29
1, 532153, Note_on_c, 0, 54, 0
1, 532153, Poly_aftertouch_c, 0, 54, 0
1, 532174, Note_on_c, 0, 60, 31
1, 532243, Note_on_c, 0, 62, 30
1, 532293, Note_on_c, 0, 69, 49
1, 532360, Note_on_c, 0, 69, 0
1, 532395, Note_on_c, 0, 60, 0
1, 532395, Poly_aftertouch_c, 0, 60, 0
1, 532435, Note_on_c, 0, 62, 0
1, 532435, Poly_aftertouch_c, 0, 62, 0
1, 532770, Note_on_c, 0, 66, 36
1, 532802, Note_on_c, 0, 64, 27
1, 532803, Note_on_c, 0, 43, 12
1, 532803, Note_on_c, 0, 31, 27
1, 532804, Note_on_c, 0, 59, 18
1, 532829, Control_c, 0, 64, 121
1, 532846, Control_c, 0, 64, 115
1, 532866, Control_c, 0, 64, 104
1, 532884, Control_c, 0, 64, 92
1, 532904, Control_c, 0, 64, 81
1, 532922, Control_c, 0, 64, 67
1, 532940, Control_c, 0, 64, 49
1, 532960, Control_c, 0, 64, 0
1, 533016, Control_c, 0, 64, 20
1, 533034, Control_c, 0, 64, 39
1, 533052, Control_c, 0, 64, 55
1, 533073, Control_c, 0, 64, 67
1, 533090, Control_c, 0, 64, 75
1, 533109, Control_c, 0, 64, 79
1, 533127, Control_c, 0, 64, 82
1, 533147, Control_c, 0, 64, 86
1, 533166, Control_c, 0, 64, 90
1, 533167, Control_c, 0, 67, 117
1, 533183, Control_c, 0, 64, 95
1, 533221, Control_c, 0, 64, 103
1, 533241, Control_c, 0, 64, 107
1, 533245, Note_on_c, 0, 31, 0
1, 533258, Control_c, 0, 64, 112
1, 533277, Control_c, 0, 64, 116
1, 533297, Control_c, 0, 64, 120
1, 533314, Control_c, 0, 67, 113
1, 533332, Control_c, 0, 64, 125
1, 533428, Control_c, 0, 67, 108
1, 533539, Control_c, 0, 67, 103
1, 533578, Poly_aftertouch_c, 0, 59, 20
1, 533592, Note_on_c, 0, 59, 0
1, 533592, Poly_aftertouch_c, 0, 59, 0
1, 533633, Control_c, 0, 67, 99
1, 533707, Control_c, 0, 67, 95
1, 533802, Poly_aftertouch_c, 0, 64, 24
1, 533856, Control_c, 0, 67, 90
1, 533865, Note_on_c, 0, 64, 0
1, 533865, Poly_aftertouch_c, 0, 64, 0
1, 533928, Note_on_c, 0, 66, 0
1, 533928, Poly_aftertouch_c, 0, 66, 0
1, 533987, Control_c, 0, 67, 86
1, 534075, Note_on_c, 0, 50, 32
1, 534119, Control_c, 0, 67, 82
1, 534213, Control_c, 0, 67, 77
1, 534286, Control_c, 0, 67, 73
1, 534343, Control_c, 0, 67, 69
1, 534417, Control_c, 0, 67, 64
1, 534494, Control_c, 0, 67, 60
1, 534568, Control_c, 0, 67, 55
1, 534642, Control_c, 0, 67, 51
1, 534754, Control_c, 0, 67, 47
1, 534842, Note_on_c, 0, 69, 46
1, 534904, Control_c, 0, 67, 43
1, 534909, Note_on_c, 0, 69, 0
1, 535016, Control_c, 0, 67, 39
1, 535148, Control_c, 0, 67, 35
1, 535202, Note_on_c, 0, 66, 54
1, 535220, Note_on_c, 0, 60, 37
1, 535221, Note_on_c, 0, 64, 39
1, 535316, Control_c, 0, 67, 31
1, 535456, Note_on_c, 0, 64, 0
1, 535456, Poly_aftertouch_c, 0, 64, 0
1, 535787, Poly_aftertouch_c, 0, 43, 24
1, 535832, Note_on_c, 0, 66, 0
1, 535832, Poly_aftertouch_c, 0, 66, 0
1, 535881, Note_on_c, 0, 67, 58
1, 535922, Poly_aftertouch_c, 0, 60, 24
1, 535986, Note_on_c, 0, 60, 0
1, 535986, Poly_aftertouch_c, 0, 60, 0
1, 536060, Note_on_c, 0, 50, 0
1, 536060, Poly_aftertouch_c, 0, 50, 0
1, 536108, Note_on_c, 0, 67, 0
1, 536108, Poly_aftertouch_c, 0, 67, 0
1, 536144, Note_on_c, 0, 48, 36
1, 536251, Note_on_c, 0, 64, 61
1, 536251, Control_c, 0, 64, 118
1, 536270, Control_c, 0, 64, 112
1, 536288, Note_on_c, 0, 62, 39
1, 536291, Note_on_c, 0, 59, 36
1, 536291, Control_c, 0, 64, 103
1, 536307, Control_c, 0, 64, 93
1, 536326, Control_c, 0, 64, 81
1, 536343, Control_c, 0, 64, 61
1, 536355, Poly_aftertouch_c, 0, 43, 22
1, 536361, Control_c, 0, 64, 25
1, 536382, Control_c, 0, 64, 0
1, 536419, Control_c, 0, 64, 37
1, 536437, Note_on_c, 0, 43, 0
1, 536437, Poly_aftertouch_c, 0, 43, 0
1, 536437, Control_c, 0, 64, 63
1, 536457, Control_c, 0, 64, 85
1, 536474, Control_c, 0, 64, 106
1, 536493, Control_c, 0, 64, 127
1, 536535, Note_on_c, 0, 59, 0
1, 536535, Poly_aftertouch_c, 0, 59, 0
1, 536574, Note_on_c, 0, 62, 0
1, 536574, Poly_aftertouch_c, 0, 62, 0
1, 536610, Note_on_c, 0, 64, 0
1, 536610, Poly_aftertouch_c, 0, 64, 0
1, 536655, Note_on_c, 0, 48, 0
1, 536655, Poly_aftertouch_c, 0, 48, 0
1, 536790, Note_on_c, 0, 52, 41
1, 536853, Note_on_c, 0, 52, 0
1, 536883, Note_on_c, 0, 55, 53
1, 536930, Note_on_c, 0, 55, 0
1, 536930, Poly_aftertouch_c, 0, 55, 0
1, 536970, Note_on_c, 0, 60, 45
1, 537024, Note_on_c, 0, 64, 45
1, 537108, Note_on_c, 0, 71, 67
1, 537111, Note_on_c, 0, 60, 0
1, 537111, Poly_aftertouch_c, 0, 60, 0
1, 537142, Note_on_c, 0, 64, 0
1, 537142, Poly_aftertouch_c, 0, 64, 0
1, 537183, Note_on_c, 0, 71, 0
1, 537183, Poly_aftertouch_c, 0, 71, 0
1, 537584, Note_on_c, 0, 64, 53
1, 537620, Note_on_c, 0, 30, 36
1, 537625, Note_on_c, 0, 42, 35
1, 537628, Note_on_c, 0, 62, 30
1, 537637, Note_on_c, 0, 59, 21
1, 537652, Control_c, 0, 64, 119
1, 537672, Control_c, 0, 64, 107
1, 537691, Control_c, 0, 64, 94
1, 537709, Control_c, 0, 64, 79
1, 537711, Control_c, 0, 67, 35
1, 537728, Control_c, 0, 64, 64
1, 537746, Control_c, 0, 64, 43
1, 537765, Control_c, 0, 64, 0
1, 537783, Control_c, 0, 67, 39
1, 537820, Control_c, 0, 67, 48
1, 537839, Control_c, 0, 67, 54
1, 537859, Control_c, 0, 64, 14
1, 537860, Control_c, 0, 67, 60
1, 537877, Control_c, 0, 64, 47
1, 537878, Control_c, 0, 67, 66
1, 537896, Control_c, 0, 64, 70
1, 537898, Control_c, 0, 67, 73
1, 537915, Control_c, 0, 64, 85
1, 537917, Control_c, 0, 67, 79
1, 537934, Control_c, 0, 64, 96
1, 537935, Control_c, 0, 67, 84
1, 537952, Control_c, 0, 64, 108
1, 537953, Control_c, 0, 67, 88
1, 537970, Control_c, 0, 64, 118
1, 537990, Control_c, 0, 64, 126
1, 537991, Control_c, 0, 67, 94
1, 538009, Note_on_c, 0, 30, 0
1, 538026, Control_c, 0, 67, 99
1, 538064, Control_c, 0, 67, 104
1, 538100, Control_c, 0, 67, 109
1, 538158, Control_c, 0, 67, 114
1, 538214, Control_c, 0, 67, 118
1, 538726, Note_on_c, 0, 59, 0
1, 538726, Poly_aftertouch_c, 0, 59, 0
1, 538811, Note_on_c, 0, 62, 0
1, 538811, Poly_aftertouch_c, 0, 62, 0
1, 538849, Control_c, 0, 67, 114
1, 538930, Note_on_c, 0, 48, 28
1, 538946, Note_on_c, 0, 64, 0
1, 538946, Poly_aftertouch_c, 0, 64, 0
1, 539036, Control_c, 0, 67, 110
1, 539111, Control_c, 0, 67, 106
1, 539167, Control_c, 0, 67, 101
1, 539223, Control_c, 0, 67, 95
1, 539279, Control_c, 0, 67, 90
1, 539335, Control_c, 0, 67, 85
1, 539392, Control_c, 0, 67, 81
1, 539466, Control_c, 0, 67, 77
1, 539559, Control_c, 0, 67, 73
1, 539678, Note_on_c, 0, 67, 43
1, 539728, Control_c, 0, 67, 69
1, 539752, Note_on_c, 0, 67, 0
1, 539752, Poly_aftertouch_c, 0, 67, 0
1, 539840, Control_c, 0, 67, 65
1, 539990, Control_c, 0, 67, 61
1, 540066, Note_on_c, 0, 64, 54
1, 540101, Note_on_c, 0, 57, 32
1, 540109, Note_on_c, 0, 62, 33
1, 540120, Control_c, 0, 67, 56
1, 540232, Control_c, 0, 67, 52
1, 540271, Control_c, 0, 64, 120
1, 540289, Control_c, 0, 64, 101
1, 540308, Control_c, 0, 64, 79
1, 540310, Control_c, 0, 67, 47
1, 540327, Control_c, 0, 64, 65
1, 540345, Control_c, 0, 64, 66
1, 540365, Control_c, 0, 64, 71
1, 540382, Control_c, 0, 64, 79
1, 540382, Control_c, 0, 67, 42
1, 540402, Control_c, 0, 64, 88
1, 540421, Control_c, 0, 64, 101
1, 540438, Control_c, 0, 64, 117
1, 540440, Control_c, 0, 67, 38
1, 540457, Control_c, 0, 64, 127
1, 540495, Control_c, 0, 67, 33
1, 540551, Control_c, 0, 67, 29
1, 540625, Control_c, 0, 67, 25
1, 540682, Control_c, 0, 67, 21
1, 540756, Control_c, 0, 67, 16
1, 540768, Note_on_c, 0, 66, 64
1, 540831, Control_c, 0, 67, 12
1, 540867, Note_on_c, 0, 62, 0
1, 540867, Poly_aftertouch_c, 0, 62, 0
1, 540894, Note_on_c, 0, 64, 0
1, 540894, Poly_aftertouch_c, 0, 64, 0
1, 540974, Note_on_c, 0, 48, 0
1, 540974, Poly_aftertouch_c, 0, 48, 0
1, 540981, Note_on_c, 0, 57, 0
1, 541141, Note_on_c, 0, 47, 39
1, 541222, Note_on_c, 0, 63, 64
1, 541237, Note_on_c, 0, 60, 49
1, 541254, Note_on_c, 0, 57, 32
1, 541356, Control_c, 0, 64, 112
1, 541374, Control_c, 0, 64, 82
1, 541389, Note_on_c, 0, 66, 0
1, 541389, Poly_aftertouch_c, 0, 66, 0
1, 541392, Control_c, 0, 64, 51
1, 541412, Control_c, 0, 64, 54
1, 541430, Control_c, 0, 64, 75
1, 541449, Control_c, 0, 64, 91
1, 541467, Control_c, 0, 64, 109
1, 541486, Control_c, 0, 64, 127
1, 541616, Note_on_c, 0, 57, 0
1, 541651, Note_on_c, 0, 60, 0
1, 541651, Poly_aftertouch_c, 0, 60, 0
1, 541689, Note_on_c, 0, 42, 0
1, 541689, Poly_aftertouch_c, 0, 42, 0
1, 541767, Control_c, 0, 67, 16
1, 541834, Note_on_c, 0, 47, 0
1, 541849, Note_on_c, 0, 48, 48
1, 541938, Note_on_c, 0, 64, 69
1, 541958, Note_on_c, 0, 63, 0
1, 541963, Note_on_c, 0, 59, 51
1, 541973, Note_on_c, 0, 56, 45
1, 542018, Note_on_c, 0, 48, 0
1, 542018, Poly_aftertouch_c, 0, 48, 0
1, 542099, Note_on_c, 0, 59, 0
1, 542099, Poly_aftertouch_c, 0, 59, 0
1, 542143, Note_on_c, 0, 40, 53
1, 542186, Note_on_c, 0, 56, 0
1, 542186, Poly_aftertouch_c, 0, 56, 0
1, 542460, Note_on_c, 0, 66, 69
1, 542476, Note_on_c, 0, 55, 42
1, 542478, Note_on_c, 0, 49, 48
1, 542480, Note_on_c, 0, 58, 49
1, 542514, Control_c, 0, 64, 109
1, 542533, Control_c, 0, 64, 72
1, 542550, Note_on_c, 0, 64, 0
1, 542550, Poly_aftertouch_c, 0, 64, 0
1, 542551, Control_c, 0, 64, 0
1, 542572, Control_c, 0, 64, 15
1, 542589, Control_c, 0, 64, 51
1, 542608, Control_c, 0, 64, 75
1, 542626, Note_on_c, 0, 55, 0
1, 542626, Poly_aftertouch_c, 0, 55, 0
1, 542627, Control_c, 0, 64, 90
1, 542641, Note_on_c, 0, 40, 0
1, 542641, Poly_aftertouch_c, 0, 40, 0
1, 542645, Control_c, 0, 64, 108
1, 542665, Control_c, 0, 64, 125
1, 542722, Note_on_c, 0, 58, 0
1, 542722, Poly_aftertouch_c, 0, 58, 0
1, 542867, Note_on_c, 0, 66, 0
1, 542867, Poly_aftertouch_c, 0, 66, 0
1, 543073, Note_on_c, 0, 67, 63
1, 543076, Control_c, 0, 67, 20
1, 543113, Control_c, 0, 67, 25
1, 543150, Control_c, 0, 67, 32
1, 543155, Note_on_c, 0, 49, 0
1, 543155, Poly_aftertouch_c, 0, 49, 0
1, 543170, Control_c, 0, 67, 36
1, 543208, Control_c, 0, 67, 43
1, 543244, Control_c, 0, 67, 48
1, 543288, Note_on_c, 0, 55, 43
1, 543300, Control_c, 0, 67, 53
1, 543356, Control_c, 0, 67, 59
1, 543393, Control_c, 0, 67, 63
1, 543451, Poly_aftertouch_c, 0, 67, 22
1, 543468, Control_c, 0, 67, 67
1, 543484, Note_on_c, 0, 67, 0
1, 543484, Poly_aftertouch_c, 0, 67, 0
1, 543485, Note_on_c, 0, 70, 58
1, 543523, Control_c, 0, 67, 72
1, 543543, Control_c, 0, 64, 118
1, 543561, Control_c, 0, 64, 99
1, 543563, Control_c, 0, 67, 80
1, 543581, Control_c, 0, 64, 77
1, 543583, Control_c, 0, 67, 87
1, 543599, Control_c, 0, 64, 72
1, 543600, Control_c, 0, 67, 93
1, 543618, Control_c, 0, 64, 77
1, 543619, Control_c, 0, 67, 99
1, 543636, Control_c, 0, 64, 81
1, 543636, Control_c, 0, 67, 103
1, 543656, Control_c, 0, 64, 86
1, 543674, Control_c, 0, 64, 94
1, 543675, Control_c, 0, 67, 108
1, 543692, Control_c, 0, 64, 103
1, 543713, Control_c, 0, 64, 109
1, 543749, Control_c, 0, 64, 115
1, 543809, Note_on_c, 0, 75, 59
1, 543825, Control_c, 0, 67, 113
1, 543861, Control_c, 0, 64, 106
1, 543872, Note_on_c, 0, 55, 0
1, 543872, Poly_aftertouch_c, 0, 55, 0
1, 543878, Control_c, 0, 64, 90
1, 543879, Control_c, 0, 67, 117
1, 543899, Control_c, 0, 64, 78
1, 543935, Control_c, 0, 64, 82
1, 543954, Control_c, 0, 64, 85
1, 543973, Control_c, 0, 64, 92
1, 543988, Note_on_c, 0, 61, 44
1, 543990, Control_c, 0, 64, 101
1, 544011, Control_c, 0, 64, 111
1, 544029, Control_c, 0, 64, 116
1, 544184, Note_on_c, 0, 75, 0
1, 544184, Poly_aftertouch_c, 0, 75, 0
1, 544216, Control_c, 0, 64, 112
1, 544227, Note_on_c, 0, 76, 52
1, 544232, Control_c, 0, 64, 106
1, 544234, Control_c, 0, 67, 122
1, 544253, Control_c, 0, 64, 90
1, 544272, Control_c, 0, 64, 65
1, 544291, Control_c, 0, 64, 43
1, 544310, Control_c, 0, 64, 38
1, 544328, Control_c, 0, 64, 46
1, 544346, Control_c, 0, 64, 59
1, 544366, Control_c, 0, 64, 73
1, 544384, Control_c, 0, 64, 83
1, 544403, Control_c, 0, 64, 91
1, 544421, Control_c, 0, 64, 99
1, 544440, Control_c, 0, 64, 104
1, 544477, Control_c, 0, 64, 110
1, 544516, Control_c, 0, 64, 114
1, 544628, Control_c, 0, 64, 119
1, 544727, Poly_aftertouch_c, 0, 61, 24
1, 544977, Note_on_c, 0, 78, 50
1, 544988, Poly_aftertouch_c, 0, 61, 32
1, 544997, Note_on_c, 0, 64, 34
1, 544998, Note_on_c, 0, 76, 0
1, 544998, Poly_aftertouch_c, 0, 76, 0
1, 545011, Note_on_c, 0, 59, 29
1, 545017, Control_c, 0, 64, 115
1, 545058, Control_c, 0, 64, 110
1, 545075, Control_c, 0, 64, 103
1, 545095, Control_c, 0, 64, 93
1, 545113, Control_c, 0, 64, 82
1, 545132, Control_c, 0, 64, 68
1, 545150, Control_c, 0, 64, 52
1, 545170, Control_c, 0, 64, 23
1, 545188, Control_c, 0, 64, 0
1, 545225, Control_c, 0, 64, 23
1, 545245, Control_c, 0, 64, 38
1, 545263, Control_c, 0, 64, 52
1, 545282, Control_c, 0, 64, 64
1, 545300, Control_c, 0, 64, 73
1, 545319, Control_c, 0, 64, 77
1, 545337, Control_c, 0, 64, 79
1, 545357, Control_c, 0, 64, 82
1, 545376, Control_c, 0, 64, 84
1, 545394, Control_c, 0, 64, 86
1, 545431, Control_c, 0, 64, 92
1, 545450, Control_c, 0, 64, 96
1, 545469, Control_c, 0, 64, 102
1, 545487, Control_c, 0, 64, 106
1, 545506, Control_c, 0, 64, 111
1, 545525, Control_c, 0, 64, 115
1, 545544, Control_c, 0, 64, 119
1, 545599, Control_c, 0, 64, 124
1, 545633, Note_on_c, 0, 64, 0
1, 545633, Poly_aftertouch_c, 0, 64, 0
1, 545663, Poly_aftertouch_c, 0, 61, 24
1, 545766, Note_on_c, 0, 61, 0
1, 545766, Poly_aftertouch_c, 0, 61, 0
1, 545767, Poly_aftertouch_c, 0, 61, 0
1, 545948, Poly_aftertouch_c, 0, 70, 24
1, 546038, Note_on_c, 0, 70, 0
1, 546038, Poly_aftertouch_c, 0, 70, 0
1, 546722, Note_on_c, 0, 71, 33
1, 546741, Note_on_c, 0, 63, 22
1, 546758, Control_c, 0, 64, 119
1, 546778, Control_c, 0, 64, 110
1, 546799, Control_c, 0, 64, 91
1, 546800, Control_c, 0, 67, 127
1, 546814, Control_c, 0, 64, 68
1, 546834, Control_c, 0, 64, 40
1, 546852, Control_c, 0, 64, 0
1, 547776, Poly_aftertouch_c, 0, 63, 24
1, 548022, Poly_aftertouch_c, 0, 63, 22
1, 548158, Poly_aftertouch_c, 0, 59, 24
1, 548275, Note_on_c, 0, 63, 0
1, 548275, Poly_aftertouch_c, 0, 63, 0
1, 548327, Note_on_c, 0, 59, 0
1, 548327, Poly_aftertouch_c, 0, 59, 0
1, 548385, Note_on_c, 0, 78, 0
1, 548597, Note_on_c, 0, 71, 0
1, 548597, Poly_aftertouch_c, 0, 71, 0
1, 549432, Control_c, 0, 64, 24
1, 549452, Control_c, 0, 64, 37
1, 549470, Control_c, 0, 64, 49
1, 549489, Control_c, 0, 64, 58
1, 549507, Control_c, 0, 64, 66
1, 549527, Control_c, 0, 64, 71
1, 549545, Control_c, 0, 64, 75
1, 549563, Control_c, 0, 64, 77
1, 549582, Control_c, 0, 64, 80
1, 549602, Control_c, 0, 64, 83
1, 549620, Control_c, 0, 64, 86
1, 549638, Control_c, 0, 64, 90
1, 549657, Control_c, 0, 64, 96
1, 549676, Control_c, 0, 64, 102
1, 549694, Control_c, 0, 64, 108
1, 549713, Control_c, 0, 64, 114
1, 549732, Control_c, 0, 64, 118
1, 549769, Control_c, 0, 64, 123
1, 549826, Control_c, 0, 64, 127
1, 549903, Note_on_c, 0, 59, 36
1, 549922, Note_on_c, 0, 67, 27
1, 549942, Note_on_c, 0, 40, 20
1, 549943, Note_on_c, 0, 52, 19
1, 549948, Note_on_c, 0, 64, 14
1, 550064, Note_on_c, 0, 64, 0
1, 550064, Poly_aftertouch_c, 0, 64, 0
1, 550133, Note_on_c, 0, 59, 0
1, 550133, Poly_aftertouch_c, 0, 59, 0
1, 550200, Note_on_c, 0, 67, 0
1, 550200, Poly_aftertouch_c, 0, 67, 0
1, 550411, Note_on_c, 0, 52, 0
1, 550528, Poly_aftertouch_c, 0, 40, 24
1, 550648, Note_on_c, 0, 40, 0
1, 550648, Poly_aftertouch_c, 0, 40, 0
1, 550667, Control_c, 0, 67, 123
1, 550733, Note_on_c, 0, 69, 40
1, 550739, Note_on_c, 0, 60, 38
1, 550804, Note_on_c, 0, 69, 0
1, 550806, Note_on_c, 0, 60, 0
1, 550806, Poly_aftertouch_c, 0, 60, 0
1, 550832, Poly_aftertouch_c, 0, 64, 127
1, 550859, Poly_aftertouch_c, 0, 64, 0
1, 550947, Control_c, 0, 67, 119
1, 551151, Note_on_c, 0, 62, 37
1, 551171, Note_on_c, 0, 67, 34
1, 551173, Note_on_c, 0, 64, 26
1, 551182, Note_on_c, 0, 33, 31
1, 551187, Note_on_c, 0, 45, 28
1, 551228, Control_c, 0, 64, 112
1, 551246, Control_c, 0, 64, 85
1, 551265, Control_c, 0, 64, 51
1, 551303, Control_c, 0, 64, 11
1, 551321, Control_c, 0, 64, 34
1, 551323, Control_c, 0, 67, 115
1, 551340, Control_c, 0, 64, 58
1, 551359, Control_c, 0, 64, 79
1, 551377, Control_c, 0, 64, 92
1, 551396, Control_c, 0, 64, 108
1, 551415, Control_c, 0, 64, 119
1, 551433, Control_c, 0, 64, 124
1, 551452, Note_on_c, 0, 64, 0
1, 551456, Note_on_c, 0, 33, 0
1, 551465, Note_on_c, 0, 62, 0
1, 551465, Poly_aftertouch_c, 0, 62, 0
1, 551469, Control_c, 0, 67, 110
1, 551473, Note_on_c, 0, 45, 0
1, 551473, Poly_aftertouch_c, 0, 45, 0
1, 551523, Note_on_c, 0, 67, 0
1, 551523, Poly_aftertouch_c, 0, 67, 0
1, 551566, Control_c, 0, 67, 106
1, 551676, Control_c, 0, 67, 102
1, 551808, Control_c, 0, 67, 98
1, 551863, Control_c, 0, 67, 94
1, 551919, Control_c, 0, 67, 89
1, 551976, Control_c, 0, 67, 84
1, 552033, Control_c, 0, 67, 79
1, 552088, Control_c, 0, 67, 75
1, 552096, Note_on_c, 0, 79, 40
1, 552112, Note_on_c, 0, 52, 33
1, 552144, Control_c, 0, 67, 71
1, 552237, Control_c, 0, 67, 67
1, 552299, Note_on_c, 0, 52, 0
1, 552330, Control_c, 0, 67, 63
1, 552415, Poly_aftertouch_c, 0, 79, 24
1, 552455, Note_on_c, 0, 76, 37
1, 552459, Control_c, 0, 67, 59
1, 552483, Note_on_c, 0, 79, 0
1, 552483, Poly_aftertouch_c, 0, 79, 0
1, 552505, Note_on_c, 0, 64, 21
1, 552597, Note_on_c, 0, 64, 0
1, 552607, Note_on_c, 0, 76, 0
1, 552607, Poly_aftertouch_c, 0, 76, 0
1, 553333, Note_on_c, 0, 71, 54
1, 553339, Note_on_c, 0, 60, 45
1, 553340, Note_on_c, 0, 55, 45
1, 553352, Note_on_c, 0, 64, 34
1, 553407, Note_on_c, 0, 64, 0
1, 553410, Note_on_c, 0, 60, 0
1, 553410, Poly_aftertouch_c, 0, 60, 0
1, 553419, Note_on_c, 0, 71, 0
1, 553419, Poly_aftertouch_c, 0, 71, 0
1, 553490, Note_on_c, 0, 55, 0
1, 553490, Poly_aftertouch_c, 0, 55, 0
1, 553527, Control_c, 0, 67, 63
1, 553689, Note_on_c, 0, 62, 52
1, 553699, Note_on_c, 0, 67, 50
1, 553705, Note_on_c, 0, 52, 36
1, 553740, Note_on_c, 0, 64, 26
1, 553773, Control_c, 0, 64, 101
1, 553790, Control_c, 0, 64, 68
1, 553808, Control_c, 0, 64, 37
1, 553828, Control_c, 0, 64, 28
1, 553830, Control_c, 0, 67, 67
1, 553846, Control_c, 0, 64, 42
1, 553864, Control_c, 0, 64, 59
1, 553883, Control_c, 0, 64, 75
1, 553902, Control_c, 0, 64, 89
1, 553921, Control_c, 0, 64, 106
1, 553939, Control_c, 0, 64, 121
1, 553940, Control_c, 0, 67, 71
1, 553957, Control_c, 0, 64, 127
1, 554011, Note_on_c, 0, 52, 0
1, 554014, Note_on_c, 0, 62, 0
1, 554014, Poly_aftertouch_c, 0, 62, 0
1, 554021, Note_on_c, 0, 67, 0
1, 554021, Poly_aftertouch_c, 0, 67, 0
1, 554028, Note_on_c, 0, 64, 0
1, 554032, Control_c, 0, 67, 77
1, 554089, Control_c, 0, 67, 81
1, 554163, Control_c, 0, 67, 86
1, 554182, Control_c, 0, 67, 91
1, 554220, Control_c, 0, 67, 97
1, 554418, Note_on_c, 0, 45, 39
1, 554419, Note_on_c, 0, 60, 56
1, 554420, Note_on_c, 0, 69, 52
1, 554550, Note_on_c, 0, 69, 0
1, 554560, Note_on_c, 0, 60, 0
1, 554560, Poly_aftertouch_c, 0, 60, 0
1, 554761, Note_on_c, 0, 45, 0
1, 554761, Poly_aftertouch_c, 0, 45, 0
1, 554801, Note_on_c, 0, 50, 39
1, 554810, Note_on_c, 0, 59, 47
1, 554822, Note_on_c, 0, 66, 47
1, 554833, Note_on_c, 0, 64, 35
1, 554837, Control_c, 0, 64, 119
1, 554856, Control_c, 0, 64, 108
1, 554873, Control_c, 0, 64, 90
1, 554893, Control_c, 0, 64, 66
1, 554911, Control_c, 0, 64, 20
1, 554930, Control_c, 0, 64, 0
1, 554968, Control_c, 0, 64, 10
1, 554970, Control_c, 0, 67, 101
1, 554986, Control_c, 0, 64, 46
1, 555005, Control_c, 0, 64, 69
1, 555006, Control_c, 0, 67, 105
1, 555025, Control_c, 0, 64, 84
1, 555042, Control_c, 0, 64, 97
1, 555061, Control_c, 0, 64, 109
1, 555079, Control_c, 0, 64, 116
1, 555098, Control_c, 0, 67, 109
1, 555117, Control_c, 0, 64, 123
1, 555138, Note_on_c, 0, 64, 0
1, 555192, Note_on_c, 0, 59, 0
1, 555192, Poly_aftertouch_c, 0, 59, 0
1, 555192, Control_c, 0, 67, 114
1, 555210, Note_on_c, 0, 66, 0
1, 555210, Poly_aftertouch_c, 0, 66, 0
1, 555249, Control_c, 0, 67, 118
1, 555258, Note_on_c, 0, 50, 0
1, 555258, Poly_aftertouch_c, 0, 50, 0
1, 555323, Control_c, 0, 67, 123
1, 555380, Control_c, 0, 64, 127
1, 555454, Control_c, 0, 67, 127
1, 555540, Note_on_c, 0, 54, 35
1, 555574, Note_on_c, 0, 57, 49
1, 555606, Note_on_c, 0, 54, 0
1, 555606, Poly_aftertouch_c, 0, 54, 0
1, 555641, Note_on_c, 0, 60, 40
1, 555675, Note_on_c, 0, 62, 38
1, 555726, Note_on_c, 0, 57, 0
1, 555735, Note_on_c, 0, 69, 50
1, 555743, Note_on_c, 0, 62, 0
1, 555743, Poly_aftertouch_c, 0, 62, 0
1, 555771, Note_on_c, 0, 60, 0
1, 555771, Poly_aftertouch_c, 0, 60, 0
1, 555847, Note_on_c, 0, 69, 0
1, 556126, Control_c, 0, 64, 123
1, 556201, Control_c, 0, 64, 117
1, 556204, Note_on_c, 0, 60, 38
1, 556220, Note_on_c, 0, 66, 36
1, 556232, Note_on_c, 0, 31, 33
1, 556233, Note_on_c, 0, 43, 31
1, 556237, Control_c, 0, 64, 108
1, 556242, Note_on_c, 0, 64, 25
1, 556258, Control_c, 0, 64, 98
1, 556276, Control_c, 0, 64, 85
1, 556295, Control_c, 0, 64, 65
1, 556314, Control_c, 0, 64, 35
1, 556333, Control_c, 0, 64, 0
1, 556390, Control_c, 0, 64, 38
1, 556407, Control_c, 0, 64, 61
1, 556426, Control_c, 0, 64, 79
1, 556446, Control_c, 0, 64, 91
1, 556464, Control_c, 0, 64, 104
1, 556481, Control_c, 0, 64, 114
1, 556497, Note_on_c, 0, 31, 0
1, 556500, Control_c, 0, 64, 119
1, 556510, Note_on_c, 0, 43, 0
1, 556510, Poly_aftertouch_c, 0, 43, 0
1, 556539, Control_c, 0, 64, 125
1, 556547, Note_on_c, 0, 60, 0
1, 556547, Poly_aftertouch_c, 0, 60, 0
1, 556555, Control_c, 0, 67, 123
1, 556572, Poly_aftertouch_c, 0, 64, 24
1, 556624, Note_on_c, 0, 64, 0
1, 556624, Poly_aftertouch_c, 0, 64, 0
1, 556630, Control_c, 0, 67, 119
1, 556699, Note_on_c, 0, 66, 0
1, 556699, Poly_aftertouch_c, 0, 66, 0
1, 556705, Control_c, 0, 67, 114
1, 556781, Control_c, 0, 67, 110
1, 556856, Control_c, 0, 67, 106
1, 556931, Control_c, 0, 67, 101
1, 556987, Control_c, 0, 67, 96
1, 557043, Control_c, 0, 67, 92
1, 557118, Control_c, 0, 67, 88
1, 557212, Control_c, 0, 67, 83
1, 557246, Note_on_c, 0, 78, 47
1, 557272, Note_on_c, 0, 50, 28
1, 557305, Control_c, 0, 67, 79
1, 557398, Control_c, 0, 67, 75
1, 557439, Note_on_c, 0, 50, 0
1, 557439, Poly_aftertouch_c, 0, 50, 0
1, 557491, Control_c, 0, 67, 71
1, 557585, Control_c, 0, 67, 67
1, 557613, Note_on_c, 0, 74, 43
1, 557635, Note_on_c, 0, 62, 28
1, 557672, Note_on_c, 0, 78, 0
1, 557773, Control_c, 0, 67, 63
1, 557783, Note_on_c, 0, 74, 0
1, 557793, Note_on_c, 0, 62, 0
1, 557793, Poly_aftertouch_c, 0, 62, 0
1, 557865, Control_c, 0, 67, 59
1, 558015, Control_c, 0, 67, 55
1, 558108, Control_c, 0, 67, 51
1, 558333, Control_c, 0, 67, 47
1, 558640, Note_on_c, 0, 59, 45
1, 558640, Note_on_c, 0, 69, 41
1, 558651, Note_on_c, 0, 54, 37
1, 558661, Note_on_c, 0, 62, 29
1, 558720, Note_on_c, 0, 59, 0
1, 558720, Poly_aftertouch_c, 0, 59, 0
1, 558729, Note_on_c, 0, 69, 0
1, 558731, Note_on_c, 0, 62, 0
1, 558731, Poly_aftertouch_c, 0, 62, 0
1, 558771, Note_on_c, 0, 54, 0
1, 558771, Poly_aftertouch_c, 0, 54, 0
1, 558980, Note_on_c, 0, 60, 53
1, 558982, Note_on_c, 0, 66, 54
1, 559011, Note_on_c, 0, 50, 37
1, 559037, Note_on_c, 0, 64, 24
1, 559042, Control_c, 0, 64, 118
1, 559062, Control_c, 0, 64, 89
1, 559082, Control_c, 0, 64, 57
1, 559100, Control_c, 0, 64, 43
1, 559118, Control_c, 0, 64, 46
1, 559137, Control_c, 0, 64, 59
1, 559156, Control_c, 0, 64, 75
1, 559176, Control_c, 0, 64, 87
1, 559193, Control_c, 0, 64, 103
1, 559212, Control_c, 0, 64, 119
1, 559231, Control_c, 0, 64, 127
1, 559288, Note_on_c, 0, 50, 0
1, 559288, Poly_aftertouch_c, 0, 50, 0
1, 559292, Note_on_c, 0, 60, 0
1, 559292, Poly_aftertouch_c, 0, 60, 0
1, 559310, Poly_aftertouch_c, 0, 64, 24
1, 559347, Note_on_c, 0, 66, 0
1, 559347, Poly_aftertouch_c, 0, 66, 0
1, 559379, Note_on_c, 0, 64, 0
1, 559379, Poly_aftertouch_c, 0, 64, 0
1, 559732, Note_on_c, 0, 59, 62
1, 559739, Note_on_c, 0, 67, 56
1, 559743, Note_on_c, 0, 43, 43
1, 559796, Note_on_c, 0, 62, 20
1, 559860, Note_on_c, 0, 62, 0
1, 559860, Poly_aftertouch_c, 0, 62, 0
1, 559866, Note_on_c, 0, 59, 0
1, 559866, Poly_aftertouch_c, 0, 59, 0
1, 559899, Note_on_c, 0, 67, 0
1, 559899, Poly_aftertouch_c, 0, 67, 0
1, 560093, Note_on_c, 0, 48, 42
1, 560120, Note_on_c, 0, 57, 55
1, 560125, Note_on_c, 0, 64, 56
1, 560143, Note_on_c, 0, 62, 39
1, 560147, Control_c, 0, 64, 112
1, 560166, Control_c, 0, 64, 87
1, 560170, Note_on_c, 0, 43, 0
1, 560170, Poly_aftertouch_c, 0, 43, 0
1, 560184, Control_c, 0, 64, 48
1, 560203, Control_c, 0, 64, 0
1, 560259, Control_c, 0, 64, 40
1, 560279, Control_c, 0, 64, 68
1, 560297, Control_c, 0, 64, 86
1, 560315, Control_c, 0, 64, 104
1, 560334, Control_c, 0, 64, 127
1, 560420, Note_on_c, 0, 62, 0
1, 560420, Poly_aftertouch_c, 0, 62, 0
1, 560458, Note_on_c, 0, 57, 0
1, 560578, Note_on_c, 0, 64, 0
1, 560578, Poly_aftertouch_c, 0, 64, 0
1, 560618, Note_on_c, 0, 48, 0
1, 560618, Poly_aftertouch_c, 0, 48, 0
1, 560746, Control_c, 0, 67, 51
1, 560868, Note_on_c, 0, 52, 43
1, 560933, Note_on_c, 0, 52, 0
1, 560955, Note_on_c, 0, 55, 52
1, 561021, Note_on_c, 0, 60, 48
1, 561075, Note_on_c, 0, 67, 55
1, 561081, Control_c, 0, 67, 55
1, 561121, Note_on_c, 0, 55, 0
1, 561121, Poly_aftertouch_c, 0, 55, 0
1, 561139, Control_c, 0, 67, 61
1, 561155, Note_on_c, 0, 60, 0
1, 561155, Poly_aftertouch_c, 0, 60, 0
1, 561185, Note_on_c, 0, 67, 0
1, 561185, Poly_aftertouch_c, 0, 67, 0
1, 561193, Control_c, 0, 67, 65
1, 561249, Control_c, 0, 67, 69
1, 561306, Control_c, 0, 67, 75
1, 561343, Control_c, 0, 67, 81
1, 561363, Control_c, 0, 67, 86
1, 561380, Control_c, 0, 67, 90
1, 561418, Control_c, 0, 67, 96
1, 561475, Control_c, 0, 64, 122
1, 561476, Control_c, 0, 67, 100
1, 561487, Note_on_c, 0, 59, 51
1, 561494, Control_c, 0, 64, 114
1, 561511, Note_on_c, 0, 64, 47
1, 561512, Control_c, 0, 64, 104
1, 561518, Note_on_c, 0, 30, 37
1, 561527, Note_on_c, 0, 62, 35
1, 561527, Note_on_c, 0, 42, 31
1, 561530, Control_c, 0, 64, 94
1, 561531, Control_c, 0, 67, 106
1, 561550, Control_c, 0, 64, 81
1, 561569, Control_c, 0, 64, 61
1, 561571, Control_c, 0, 67, 114
1, 561586, Control_c, 0, 64, 22
1, 561606, Control_c, 0, 64, 0
1, 561607, Control_c, 0, 67, 119
1, 561661, Control_c, 0, 67, 124
1, 561680, Control_c, 0, 64, 40
1, 561699, Control_c, 0, 64, 66
1, 561718, Control_c, 0, 64, 85
1, 561736, Control_c, 0, 64, 99
1, 561743, Note_on_c, 0, 30, 0
1, 561756, Control_c, 0, 64, 114
1, 561774, Control_c, 0, 64, 123
1, 561790, Note_on_c, 0, 59, 0
1, 561790, Poly_aftertouch_c, 0, 59, 0
1, 561791, Control_c, 0, 64, 127
1, 561811, Note_on_c, 0, 42, 0
1, 561811, Poly_aftertouch_c, 0, 42, 0
1, 561857, Note_on_c, 0, 62, 0
1, 561857, Poly_aftertouch_c, 0, 62, 0
1, 561875, Note_on_c, 0, 64, 0
1, 561875, Poly_aftertouch_c, 0, 64, 0
1, 562452, Note_on_c, 0, 76, 43
1, 562460, Note_on_c, 0, 48, 33
1, 562710, Note_on_c, 0, 48, 0
1, 562710, Poly_aftertouch_c, 0, 48, 0
1, 562823, Note_on_c, 0, 72, 42
1, 562843, Note_on_c, 0, 60, 30
1, 562867, Note_on_c, 0, 76, 0
1, 562867, Poly_aftertouch_c, 0, 76, 0
1, 562908, Note_on_c, 0, 72, 0
1, 562908, Poly_aftertouch_c, 0, 72, 0
1, 562932, Note_on_c, 0, 60, 0
1, 562932, Poly_aftertouch_c, 0, 60, 0
1, 563194, Control_c, 0, 67, 120
1, 563288, Control_c, 0, 67, 116
1, 563362, Control_c, 0, 67, 111
1, 563438, Control_c, 0, 67, 107
1, 563512, Control_c, 0, 67, 102
1, 563569, Control_c, 0, 67, 98
1, 563625, Control_c, 0, 67, 93
1, 563680, Control_c, 0, 67, 88
1, 563736, Control_c, 0, 67, 83
1, 563793, Control_c, 0, 67, 79
1, 563845, Note_on_c, 0, 57, 51
1, 563856, Note_on_c, 0, 67, 45
1, 563868, Control_c, 0, 67, 75
1, 563871, Note_on_c, 0, 60, 31
1, 563885, Note_on_c, 0, 52, 29
1, 563928, Note_on_c, 0, 67, 0
1, 563928, Poly_aftertouch_c, 0, 67, 0
1, 563935, Note_on_c, 0, 57, 0
1, 563938, Note_on_c, 0, 60, 0
1, 563938, Poly_aftertouch_c, 0, 60, 0
1, 563942, Control_c, 0, 67, 70
1, 563980, Control_c, 0, 67, 64
1, 564036, Control_c, 0, 67, 60
1, 564092, Control_c, 0, 67, 56
1, 564102, Note_on_c, 0, 52, 0
1, 564167, Control_c, 0, 67, 52
1, 564209, Note_on_c, 0, 59, 58
1, 564219, Note_on_c, 0, 64, 55
1, 564243, Note_on_c, 0, 48, 37
1, 564247, Note_on_c, 0, 62, 36
1, 564279, Control_c, 0, 64, 105
1, 564298, Control_c, 0, 64, 73
1, 564317, Control_c, 0, 64, 48
1, 564336, Control_c, 0, 64, 46
1, 564338, Control_c, 0, 67, 48
1, 564354, Control_c, 0, 64, 53
1, 564373, Control_c, 0, 64, 66
1, 564393, Control_c, 0, 64, 79
1, 564410, Control_c, 0, 64, 89
1, 564429, Control_c, 0, 64, 103
1, 564449, Control_c, 0, 64, 115
1, 564466, Control_c, 0, 64, 123
1, 564468, Control_c, 0, 67, 44
1, 564504, Control_c, 0, 64, 127
1, 564523, Control_c, 0, 67, 39
1, 564563, Note_on_c, 0, 48, 0
1, 564563, Poly_aftertouch_c, 0, 48, 0
1, 564568, Note_on_c, 0, 59, 0
1, 564568, Poly_aftertouch_c, 0, 59, 0
1, 564659, Note_on_c, 0, 64, 0
1, 564659, Poly_aftertouch_c, 0, 64, 0
1, 564691, Control_c, 0, 67, 35
1, 564710, Note_on_c, 0, 62, 0
1, 564710, Poly_aftertouch_c, 0, 62, 0
1, 564767, Control_c, 0, 67, 30
1, 564877, Control_c, 0, 67, 26
1, 564926, Note_on_c, 0, 42, 47
1, 564972, Control_c, 0, 64, 123
1, 564980, Note_on_c, 0, 57, 60
1, 564991, Control_c, 0, 67, 22
1, 564993, Note_on_c, 0, 66, 53
1, 565001, Note_on_c, 0, 60, 50
1, 565083, Control_c, 0, 64, 117
1, 565102, Control_c, 0, 67, 18
1, 565158, Control_c, 0, 64, 121
1, 565177, Control_c, 0, 67, 14
1, 565195, Note_on_c, 0, 60, 0
1, 565195, Poly_aftertouch_c, 0, 60, 0
1, 565252, Note_on_c, 0, 57, 0
1, 565252, Control_c, 0, 67, 9
1, 565308, Note_on_c, 0, 42, 0
1, 565308, Poly_aftertouch_c, 0, 42, 0
1, 565378, Note_on_c, 0, 47, 52
1, 565438, Control_c, 0, 64, 117
1, 565475, Note_on_c, 0, 57, 62
1, 565475, Control_c, 0, 64, 105
1, 565479, Note_on_c, 0, 63, 63
1, 565495, Note_on_c, 0, 59, 54
1, 565495, Control_c, 0, 64, 81
1, 565514, Control_c, 0, 64, 38
1, 565527, Note_on_c, 0, 66, 0
1, 565527, Poly_aftertouch_c, 0, 66, 0
1, 565532, Control_c, 0, 64, 0
1, 565569, Control_c, 0, 64, 20
1, 565588, Control_c, 0, 64, 64
1, 565608, Control_c, 0, 64, 90
1, 565625, Control_c, 0, 64, 117
1, 565644, Control_c, 0, 64, 127
1, 565668, Note_on_c, 0, 59, 0
1, 565668, Poly_aftertouch_c, 0, 59, 0
1, 565685, Note_on_c, 0, 63, 0
1, 565685, Poly_aftertouch_c, 0, 63, 0
1, 565703, Note_on_c, 0, 57, 0
1, 566055, Note_on_c, 0, 47, 0
1, 566094, Note_on_c, 0, 71, 64
1, 566238, Note_on_c, 0, 56, 72
1, 566266, Note_on_c, 0, 48, 51
1, 566335, Note_on_c, 0, 56, 0
1, 566335, Poly_aftertouch_c, 0, 56, 0
1, 566397, Note_on_c, 0, 64, 73
1, 566410, Note_on_c, 0, 48, 0
1, 566410, Poly_aftertouch_c, 0, 48, 0
1, 566544, Note_on_c, 0, 40, 58
1, 566585, Note_on_c, 0, 40, 0
1, 566585, Poly_aftertouch_c, 0, 40, 0
1, 566856, Note_on_c, 0, 55, 65
1, 566883, Note_on_c, 0, 49, 48
1, 566953, Control_c, 0, 67, 0
1, 566989, Note_on_c, 0, 70, 69
1, 566998, Note_on_c, 0, 66, 56
1, 567010, Control_c, 0, 64, 98
1, 567027, Control_c, 0, 64, 59
1, 567032, Note_on_c, 0, 71, 0
1, 567032, Poly_aftertouch_c, 0, 71, 0
1, 567047, Control_c, 0, 64, 23
1, 567066, Control_c, 0, 64, 16
1, 567084, Control_c, 0, 64, 33
1, 567104, Control_c, 0, 64, 51
1, 567121, Control_c, 0, 64, 70
1, 567141, Control_c, 0, 64, 87
1, 567143, Note_on_c, 0, 64, 0
1, 567143, Poly_aftertouch_c, 0, 64, 0
1, 567160, Control_c, 0, 64, 106
1, 567177, Control_c, 0, 64, 123
1, 567196, Control_c, 0, 64, 127
1, 567217, Poly_aftertouch_c, 0, 49, 24
1, 567230, Note_on_c, 0, 49, 0
1, 567230, Poly_aftertouch_c, 0, 49, 0
1, 567426, Note_on_c, 0, 55, 0
1, 567426, Poly_aftertouch_c, 0, 55, 0
1, 567513, Note_on_c, 0, 67, 68
1, 567525, Note_on_c, 0, 66, 0
1, 567525, Poly_aftertouch_c, 0, 66, 0
1, 567576, Note_on_c, 0, 70, 0
1, 567576, Poly_aftertouch_c, 0, 70, 0
1, 567707, Note_on_c, 0, 61, 57
1, 567821, Note_on_c, 0, 70, 74
1, 568079, Note_on_c, 0, 75, 80
1, 568114, Note_on_c, 0, 67, 0
1, 568114, Poly_aftertouch_c, 0, 67, 0
1, 568219, Note_on_c, 0, 64, 64
1, 568259, Note_on_c, 0, 64, 0
1, 568259, Poly_aftertouch_c, 0, 64, 0
1, 568346, Note_on_c, 0, 76, 84
1, 568381, Note_on_c, 0, 61, 0
1, 568447, Note_on_c, 0, 75, 0
1, 568447, Poly_aftertouch_c, 0, 75, 0
1, 568497, Note_on_c, 0, 59, 62
1, 568794, Note_on_c, 0, 63, 54
1, 568860, Control_c, 0, 64, 122
1, 568879, Control_c, 0, 64, 112
1, 568897, Control_c, 0, 64, 101
1, 568904, Note_on_c, 0, 78, 78
1, 568916, Control_c, 0, 64, 91
1, 568926, Note_on_c, 0, 69, 54
1, 568934, Control_c, 0, 64, 82
1, 568948, Note_on_c, 0, 76, 0
1, 568948, Poly_aftertouch_c, 0, 76, 0
1, 568953, Control_c, 0, 64, 73
1, 568962, Note_on_c, 0, 70, 0
1, 568962, Poly_aftertouch_c, 0, 70, 0
1, 568972, Control_c, 0, 64, 67
1, 568991, Control_c, 0, 64, 63
1, 569011, Control_c, 0, 64, 57
1, 569029, Control_c, 0, 64, 34
1, 569048, Control_c, 0, 64, 0
1, 569141, Control_c, 0, 64, 17
1, 569160, Control_c, 0, 64, 53
1, 569177, Control_c, 0, 64, 75
1, 569197, Control_c, 0, 64, 89
1, 569216, Control_c, 0, 64, 102
1, 569234, Control_c, 0, 64, 112
1, 569253, Control_c, 0, 64, 121
1, 569268, Note_on_c, 0, 69, 0
1, 569272, Control_c, 0, 64, 127
1, 569609, Note_on_c, 0, 59, 0
1, 569609, Poly_aftertouch_c, 0, 59, 0
1, 569808, Note_on_c, 0, 58, 23
1, 569923, Note_on_c, 0, 71, 42
1, 569927, Note_on_c, 0, 68, 43
1, 570156, Note_on_c, 0, 58, 0
1, 570156, Poly_aftertouch_c, 0, 58, 0
1, 570206, Note_on_c, 0, 57, 36
1, 570210, Note_on_c, 0, 68, 0
1, 570334, Note_on_c, 0, 67, 50
1, 570356, Control_c, 0, 64, 121
1, 570375, Control_c, 0, 64, 110
1, 570393, Control_c, 0, 64, 89
1, 570413, Control_c, 0, 64, 63
1, 570432, Control_c, 0, 64, 57
1, 570449, Control_c, 0, 64, 61
1, 570470, Control_c, 0, 64, 70
1, 570487, Control_c, 0, 64, 77
1, 570506, Control_c, 0, 64, 85
1, 570507, Note_on_c, 0, 71, 0
1, 570507, Poly_aftertouch_c, 0, 71, 0
1, 570525, Control_c, 0, 64, 94
1, 570543, Control_c, 0, 64, 103
1, 570562, Control_c, 0, 64, 109
1, 570600, Control_c, 0, 64, 115
1, 570637, Control_c, 0, 64, 120
1, 570655, Control_c, 0, 64, 124
1, 570696, Note_on_c, 0, 72, 65
1, 570804, Note_on_c, 0, 78, 0
1, 570924, Note_on_c, 0, 67, 0
1, 570924, Poly_aftertouch_c, 0, 67, 0
1, 571000, Note_on_c, 0, 75, 75
1, 571250, Note_on_c, 0, 78, 81
1, 571286, Poly_aftertouch_c, 0, 57, 24
1, 571410, Note_on_c, 0, 67, 58
1, 571414, Note_on_c, 0, 57, 0
1, 571414, Poly_aftertouch_c, 0, 57, 0
1, 571434, Note_on_c, 0, 63, 0
1, 571434, Poly_aftertouch_c, 0, 63, 0
1, 571439, Note_on_c, 0, 67, 0
1, 571439, Poly_aftertouch_c, 0, 67, 0
1, 571522, Note_on_c, 0, 79, 83
1, 571561, Note_on_c, 0, 75, 0
1, 571561, Poly_aftertouch_c, 0, 75, 0
1, 571564, Note_on_c, 0, 72, 0
1, 571564, Poly_aftertouch_c, 0, 72, 0
1, 571593, Note_on_c, 0, 78, 0
1, 571662, Note_on_c, 0, 50, 57
1, 571694, Note_on_c, 0, 79, 0
1, 571694, Poly_aftertouch_c, 0, 79, 0
1, 571702, Note_on_c, 0, 50, 0
1, 571702, Poly_aftertouch_c, 0, 50, 0
1, 571946, Note_on_c, 0, 66, 68
1, 571989, Note_on_c, 0, 60, 46
1, 572057, Note_on_c, 0, 81, 80
1, 572088, Note_on_c, 0, 74, 51
1, 572097, Control_c, 0, 64, 95
1, 572100, Note_on_c, 0, 69, 44
1, 572115, Control_c, 0, 64, 58
1, 572132, Control_c, 0, 64, 13
1, 572152, Control_c, 0, 64, 22
1, 572153, Control_c, 0, 67, 8
1, 572171, Control_c, 0, 64, 42
1, 572188, Control_c, 0, 64, 64
1, 572208, Control_c, 0, 64, 81
1, 572226, Control_c, 0, 64, 97
1, 572230, Control_c, 0, 67, 13
1, 572245, Control_c, 0, 64, 116
1, 572262, Control_c, 0, 64, 127
1, 572295, Note_on_c, 0, 69, 0
1, 572301, Control_c, 0, 67, 18
1, 572334, Note_on_c, 0, 74, 0
1, 572337, Control_c, 0, 67, 23
1, 572345, Note_on_c, 0, 81, 0
1, 572345, Poly_aftertouch_c, 0, 81, 0
1, 572375, Control_c, 0, 67, 30
1, 572394, Control_c, 0, 67, 34
1, 572432, Control_c, 0, 67, 39
1, 572469, Control_c, 0, 67, 44
1, 572524, Note_on_c, 0, 66, 0
1, 572524, Poly_aftertouch_c, 0, 66, 0
1, 572544, Control_c, 0, 67, 48
1, 572740, Note_on_c, 0, 83, 71
1, 572768, Note_on_c, 0, 71, 46
1, 572788, Control_c, 0, 67, 52
1, 572900, Control_c, 0, 67, 56
1, 572908, Note_on_c, 0, 60, 0
1, 572908, Poly_aftertouch_c, 0, 60, 0
1, 572975, Control_c, 0, 67, 61
1, 572990, Note_on_c, 0, 76, 52
1, 573004, Note_on_c, 0, 64, 58
1, 573018, Note_on_c, 0, 71, 0
1, 573018, Poly_aftertouch_c, 0, 71, 0
1, 573051, Control_c, 0, 67, 65
1, 573060, Note_on_c, 0, 55, 26
1, 573066, Note_on_c, 0, 64, 0
1, 573066, Poly_aftertouch_c, 0, 64, 0
1, 573074, Note_on_c, 0, 83, 0
1, 573136, Note_on_c, 0, 76, 0
1, 573136, Poly_aftertouch_c, 0, 76, 0
1, 573179, Control_c, 0, 67, 69
1, 573292, Control_c, 0, 67, 73
1, 573353, Note_on_c, 0, 55, 0
1, 573353, Poly_aftertouch_c, 0, 55, 0
1, 573367, Control_c, 0, 64, 123
1, 573372, Note_on_c, 0, 84, 62
1, 573386, Control_c, 0, 64, 114
1, 573390, Note_on_c, 0, 62, 44
1, 573400, Note_on_c, 0, 54, 33
1, 573400, Note_on_c, 0, 78, 37
1, 573404, Control_c, 0, 64, 94
1, 573415, Note_on_c, 0, 72, 20
1, 573423, Control_c, 0, 64, 65
1, 573442, Control_c, 0, 64, 47
1, 573443, Control_c, 0, 67, 77
1, 573460, Control_c, 0, 64, 49
1, 573479, Control_c, 0, 64, 58
1, 573498, Control_c, 0, 64, 70
1, 573516, Control_c, 0, 64, 78
1, 573518, Control_c, 0, 67, 81
1, 573537, Control_c, 0, 64, 87
1, 573554, Control_c, 0, 64, 98
1, 573572, Control_c, 0, 64, 108
1, 573573, Control_c, 0, 67, 87
1, 573590, Note_on_c, 0, 54, 0
1, 573590, Poly_aftertouch_c, 0, 54, 0
1, 573592, Control_c, 0, 64, 116
1, 573629, Control_c, 0, 64, 121
1, 573648, Control_c, 0, 67, 91
1, 573665, Note_on_c, 0, 62, 0
1, 573665, Poly_aftertouch_c, 0, 62, 0
1, 573685, Control_c, 0, 64, 127
1, 573703, Control_c, 0, 67, 97
1, 573759, Control_c, 0, 67, 101
1, 573816, Control_c, 0, 67, 105
1, 573890, Control_c, 0, 67, 109
1, 573984, Control_c, 0, 67, 114
1, 574039, Control_c, 0, 67, 118
1, 574190, Control_c, 0, 67, 122
1, 574261, Note_on_c, 0, 43, 53
1, 574284, Control_c, 0, 64, 123
1, 574286, Control_c, 0, 67, 126
1, 574320, Control_c, 0, 64, 110
1, 574340, Control_c, 0, 64, 83
1, 574358, Control_c, 0, 64, 49
1, 574376, Control_c, 0, 64, 26
1, 574396, Control_c, 0, 64, 35
1, 574413, Control_c, 0, 64, 53
1, 574433, Control_c, 0, 64, 73
1, 574451, Control_c, 0, 64, 88
1, 574470, Control_c, 0, 64, 106
1, 574489, Control_c, 0, 64, 120
1, 574507, Control_c, 0, 64, 126
1, 574553, Poly_aftertouch_c, 0, 72, 24
1, 574594, Note_on_c, 0, 43, 0
1, 574594, Poly_aftertouch_c, 0, 43, 0
1, 574601, Note_on_c, 0, 50, 41
1, 574609, Note_on_c, 0, 72, 0
1, 574609, Poly_aftertouch_c, 0, 72, 0
1, 574660, Note_on_c, 0, 50, 0
1, 574660, Poly_aftertouch_c, 0, 50, 0
1, 574675, Note_on_c, 0, 78, 0
1, 574788, Note_on_c, 0, 84, 0
1, 574791, Note_on_c, 0, 59, 41
1, 574846, Note_on_c, 0, 59, 0
1, 574846, Poly_aftertouch_c, 0, 59, 0
1, 574933, Note_on_c, 0, 74, 40
1, 575086, Note_on_c, 0, 79, 32
1, 575167, Note_on_c, 0, 74, 0
1, 575381, Note_on_c, 0, 71, 39
1, 575417, Note_on_c, 0, 62, 28
1, 575417, Note_on_c, 0, 67, 32
1, 575536, Poly_aftertouch_c, 0, 79, 24
1, 575538, Note_on_c, 0, 71, 0
1, 575538, Poly_aftertouch_c, 0, 71, 0
1, 575559, Note_on_c, 0, 86, 69
1, 575597, Note_on_c, 0, 79, 0
1, 575597, Poly_aftertouch_c, 0, 79, 0
1, 575664, Note_on_c, 0, 86, 0
1, 575671, Note_on_c, 0, 67, 0
1, 575671, Poly_aftertouch_c, 0, 67, 0
1, 575704, Poly_aftertouch_c, 0, 62, 20
1, 575706, Note_on_c, 0, 62, 0
1, 575706, Poly_aftertouch_c, 0, 62, 0
1, 576133, Note_on_c, 0, 72, 32
1, 576151, Note_on_c, 0, 64, 26
1, 576229, Note_on_c, 0, 64, 0
1, 576229, Poly_aftertouch_c, 0, 64, 0
1, 576270, Note_on_c, 0, 72, 0
1, 576270, Poly_aftertouch_c, 0, 72, 0
1, 576502, Note_on_c, 0, 62, 41
1, 576505, Note_on_c, 0, 71, 39
1, 576573, Note_on_c, 0, 62, 0
1, 576573, Poly_aftertouch_c, 0, 62, 0
1, 576709, Note_on_c, 0, 71, 0
1, 576709, Poly_aftertouch_c, 0, 71, 0
1, 576817, Note_on_c, 0, 74, 42
1, 576835, Note_on_c, 0, 67, 33
1, 576864, Poly_aftertouch_c, 0, 71, 127
1, 576921, Note_on_c, 0, 67, 0
1, 576921, Poly_aftertouch_c, 0, 67, 0
1, 577028, Note_on_c, 0, 74, 0
1, 577133, Note_on_c, 0, 66, 35
1, 577133, Note_on_c, 0, 69, 31
1, 577136, Note_on_c, 0, 60, 29
1, 577161, Poly_aftertouch_c, 0, 71, 0
1, 577184, Note_on_c, 0, 69, 0
1, 577198, Note_on_c, 0, 66, 0
1, 577198, Poly_aftertouch_c, 0, 66, 0
1, 577200, Note_on_c, 0, 60, 0
1, 577200, Poly_aftertouch_c, 0, 60, 0
1, 577446, Note_on_c, 0, 71, 38
1, 577457, Note_on_c, 0, 62, 29
1, 577513, Note_on_c, 0, 71, 0
1, 577527, Note_on_c, 0, 62, 0
1, 577527, Poly_aftertouch_c, 0, 62, 0
1, 577760, Note_on_c, 0, 69, 39
1, 577784, Note_on_c, 0, 60, 27
1, 577842, Note_on_c, 0, 60, 0
1, 577842, Poly_aftertouch_c, 0, 60, 0
1, 577935, Note_on_c, 0, 69, 0
1, 578077, Note_on_c, 0, 74, 35
1, 578093, Note_on_c, 0, 66, 21
1, 578101, Note_on_c, 0, 71, 27
1, 578221, Note_on_c, 0, 71, 0
1, 578263, Note_on_c, 0, 66, 0
1, 578263, Poly_aftertouch_c, 0, 66, 0
1, 578277, Note_on_c, 0, 74, 0
1, 578372, Note_on_c, 0, 67, 33
1, 578391, Note_on_c, 0, 59, 24
1, 578418, Note_on_c, 0, 64, 25
1, 578453, Note_on_c, 0, 67, 0
1, 578453, Poly_aftertouch_c, 0, 67, 0
1, 578488, Note_on_c, 0, 59, 0
1, 578488, Poly_aftertouch_c, 0, 59, 0
1, 578489, Note_on_c, 0, 64, 0
1, 578489, Poly_aftertouch_c, 0, 64, 0
1, 578690, Note_on_c, 0, 69, 38
1, 578713, Note_on_c, 0, 60, 34
1, 578751, Note_on_c, 0, 69, 0
1, 578787, Note_on_c, 0, 60, 0
1, 578787, Poly_aftertouch_c, 0, 60, 0
1, 579003, Note_on_c, 0, 67, 42
1, 579017, Note_on_c, 0, 59, 32
1, 579066, Note_on_c, 0, 59, 0
1, 579066, Poly_aftertouch_c, 0, 59, 0
1, 579107, Control_c, 0, 67, 121
1, 579136, Note_on_c, 0, 67, 0
1, 579136, Poly_aftertouch_c, 0, 67, 0
1, 579164, Control_c, 0, 67, 116
1, 579201, Control_c, 0, 67, 112
1, 579239, Control_c, 0, 67, 107
1, 579276, Control_c, 0, 67, 101
1, 579311, Note_on_c, 0, 74, 47
1, 579312, Control_c, 0, 67, 94
1, 579328, Note_on_c, 0, 64, 25
1, 579329, Control_c, 0, 67, 90
1, 579350, Control_c, 0, 67, 86
1, 579369, Note_on_c, 0, 74, 0
1, 579369, Control_c, 0, 67, 80
1, 579388, Control_c, 0, 67, 75
1, 579389, Note_on_c, 0, 64, 0
1, 579389, Poly_aftertouch_c, 0, 64, 0
1, 579406, Control_c, 0, 67, 71
1, 579426, Control_c, 0, 67, 67
1, 579463, Control_c, 0, 67, 60
1, 579501, Control_c, 0, 67, 54
1, 579537, Control_c, 0, 67, 49
1, 579574, Control_c, 0, 67, 43
1, 579612, Control_c, 0, 67, 37
1, 579650, Control_c, 0, 67, 32
1, 579687, Control_c, 0, 67, 26
1, 579705, Control_c, 0, 67, 22
1, 579723, Note_on_c, 0, 64, 32
1, 579724, Note_on_c, 0, 60, 28
1, 579744, Control_c, 0, 67, 16
1, 579780, Control_c, 0, 67, 10
1, 579821, Note_on_c, 0, 81, 74
1, 579867, Note_on_c, 0, 69, 34
1, 579930, Control_c, 0, 64, 96
1, 579949, Control_c, 0, 64, 70
1, 579986, Control_c, 0, 64, 75
1, 580004, Control_c, 0, 64, 82
1, 580024, Control_c, 0, 64, 93
1, 580042, Control_c, 0, 64, 107
1, 580061, Control_c, 0, 64, 120
1, 580080, Control_c, 0, 64, 127
1, 580082, Note_on_c, 0, 64, 0
1, 580082, Poly_aftertouch_c, 0, 64, 0
1, 580083, Note_on_c, 0, 69, 0
1, 580091, Note_on_c, 0, 60, 0
1, 580091, Poly_aftertouch_c, 0, 60, 0
1, 580184, Note_on_c, 0, 71, 49
1, 580194, Note_on_c, 0, 66, 38
1, 580224, Note_on_c, 0, 62, 30
1, 580307, Note_on_c, 0, 66, 0
1, 580307, Poly_aftertouch_c, 0, 66, 0
1, 580316, Note_on_c, 0, 62, 0
1, 580316, Poly_aftertouch_c, 0, 62, 0
1, 580341, Note_on_c, 0, 71, 0
1, 580397, Control_c, 0, 67, 14
1, 580490, Control_c, 0, 67, 18
1, 580495, Note_on_c, 0, 69, 46
1, 580516, Note_on_c, 0, 60, 34
1, 580528, Control_c, 0, 67, 25
1, 580546, Note_on_c, 0, 64, 22
1, 580546, Control_c, 0, 67, 29
1, 580564, Note_on_c, 0, 60, 0
1, 580564, Poly_aftertouch_c, 0, 60, 0
1, 580567, Control_c, 0, 67, 38
1, 580584, Control_c, 0, 67, 48
1, 580603, Control_c, 0, 67, 59
1, 580615, Note_on_c, 0, 64, 0
1, 580615, Poly_aftertouch_c, 0, 64, 0
1, 580621, Control_c, 0, 67, 67
1, 580641, Note_on_c, 0, 69, 0
1, 580641, Control_c, 0, 67, 73
1, 580652, Poly_aftertouch_c, 0, 81, 22
1, 580658, Control_c, 0, 67, 79
1, 580666, Note_on_c, 0, 81, 0
1, 580666, Poly_aftertouch_c, 0, 81, 0
1, 580678, Control_c, 0, 67, 83
1, 580696, Control_c, 0, 67, 88
1, 580715, Control_c, 0, 67, 92
1, 580753, Control_c, 0, 67, 97
1, 580839, Note_on_c, 0, 69, 34
1, 580851, Note_on_c, 0, 74, 52
1, 580872, Note_on_c, 0, 66, 26
1, 580896, Note_on_c, 0, 69, 0
1, 580923, Note_on_c, 0, 66, 0
1, 580923, Poly_aftertouch_c, 0, 66, 0
1, 581127, Note_on_c, 0, 79, 70
1, 581296, Control_c, 0, 64, 113
1, 581314, Note_on_c, 0, 43, 57
1, 581314, Control_c, 0, 64, 79
1, 581332, Control_c, 0, 64, 43
1, 581350, Control_c, 0, 64, 48
1, 581370, Control_c, 0, 64, 75
1, 581371, Control_c, 0, 67, 92
1, 581388, Control_c, 0, 64, 98
1, 581408, Control_c, 0, 64, 127
1, 581409, Control_c, 0, 67, 88
1, 581444, Control_c, 0, 67, 80
1, 581463, Control_c, 0, 67, 75
1, 581501, Control_c, 0, 67, 69
1, 581531, Note_on_c, 0, 43, 0
1, 581531, Poly_aftertouch_c, 0, 43, 0
1, 581537, Control_c, 0, 67, 64
1, 581562, Note_on_c, 0, 74, 0
1, 581570, Note_on_c, 0, 50, 43
1, 581594, Control_c, 0, 67, 59
1, 581631, Note_on_c, 0, 50, 0
1, 581631, Poly_aftertouch_c, 0, 50, 0
1, 581631, Control_c, 0, 67, 55
1, 581681, Note_on_c, 0, 79, 0
1, 581681, Poly_aftertouch_c, 0, 79, 0
1, 581720, Note_on_c, 0, 59, 44
1, 581743, Control_c, 0, 67, 51
1, 581775, Note_on_c, 0, 59, 0
1, 581775, Poly_aftertouch_c, 0, 59, 0
1, 581836, Note_on_c, 0, 67, 49
1, 581914, Note_on_c, 0, 67, 0
1, 581914, Poly_aftertouch_c, 0, 67, 0
1, 581933, Note_on_c, 0, 74, 56
1, 582057, Note_on_c, 0, 79, 60
1, 582062, Note_on_c, 0, 74, 0
1, 582068, Poly_aftertouch_c, 0, 74, 0
1, 582098, Control_c, 0, 67, 47
1, 582119, Note_on_c, 0, 79, 0
1, 582119, Poly_aftertouch_c, 0, 79, 0
1, 582248, Control_c, 0, 67, 43
1, 582375, Note_on_c, 0, 71, 38
1, 582394, Note_on_c, 0, 62, 29
1, 582415, Note_on_c, 0, 67, 29
1, 582537, Note_on_c, 0, 86, 72
1, 582589, Note_on_c, 0, 86, 0
1, 582672, Note_on_c, 0, 71, 0
1, 582717, Poly_aftertouch_c, 0, 67, 24
1, 582750, Poly_aftertouch_c, 0, 62, 24
1, 582763, Note_on_c, 0, 67, 0
1, 582763, Poly_aftertouch_c, 0, 67, 0
1, 582831, Note_on_c, 0, 62, 0
1, 582831, Poly_aftertouch_c, 0, 62, 0
1, 583091, Control_c, 0, 67, 47
1, 583161, Note_on_c, 0, 72, 39
1, 583193, Note_on_c, 0, 64, 30
1, 583241, Control_c, 0, 67, 51
1, 583244, Note_on_c, 0, 72, 0
1, 583244, Poly_aftertouch_c, 0, 72, 0
1, 583263, Note_on_c, 0, 64, 0
1, 583263, Poly_aftertouch_c, 0, 64, 0
1, 583295, Control_c, 0, 67, 55
1, 583333, Control_c, 0, 67, 60
1, 583371, Control_c, 0, 67, 66
1, 583407, Control_c, 0, 67, 71
1, 583446, Control_c, 0, 67, 75
1, 583483, Control_c, 0, 67, 79
1, 583520, Control_c, 0, 67, 84
1, 583557, Control_c, 0, 67, 88
1, 583595, Note_on_c, 0, 62, 35
1, 583595, Control_c, 0, 67, 94
1, 583599, Note_on_c, 0, 71, 34
1, 583632, Control_c, 0, 67, 100
1, 583670, Control_c, 0, 67, 106
1, 583707, Control_c, 0, 67, 110
1, 583712, Note_on_c, 0, 62, 0
1, 583712, Poly_aftertouch_c, 0, 62, 0
1, 583731, Note_on_c, 0, 71, 0
1, 583764, Control_c, 0, 67, 114
1, 583839, Control_c, 0, 67, 119
1, 583912, Control_c, 0, 67, 123
1, 583922, Note_on_c, 0, 74, 44
1, 583930, Note_on_c, 0, 67, 35
1, 583940, Note_on_c, 0, 71, 26
1, 584081, Control_c, 0, 67, 127
1, 584126, Note_on_c, 0, 67, 0
1, 584126, Poly_aftertouch_c, 0, 67, 0
1, 584145, Note_on_c, 0, 74, 0
1, 584233, Note_on_c, 0, 60, 28
1, 584248, Poly_aftertouch_c, 0, 71, 20
1, 584250, Note_on_c, 0, 69, 25
1, 584257, Note_on_c, 0, 71, 0
1, 584257, Poly_aftertouch_c, 0, 71, 0
1, 584262, Note_on_c, 0, 66, 24
1, 584310, Note_on_c, 0, 69, 0
1, 584316, Note_on_c, 0, 60, 0
1, 584316, Poly_aftertouch_c, 0, 60, 0
1, 584323, Note_on_c, 0, 66, 0
1, 584323, Poly_aftertouch_c, 0, 66, 0
1, 584555, Note_on_c, 0, 71, 31
1, 584557, Note_on_c, 0, 62, 33
1, 584628, Note_on_c, 0, 71, 0
1, 584628, Poly_aftertouch_c, 0, 71, 0
1, 584662, Note_on_c, 0, 62, 0
1, 584662, Poly_aftertouch_c, 0, 62, 0
1, 584870, Note_on_c, 0, 69, 35
1, 584877, Note_on_c, 0, 60, 25
1, 584932, Note_on_c, 0, 60, 0
1, 584932, Poly_aftertouch_c, 0, 60, 0
1, 584945, Note_on_c, 0, 69, 0
1, 585159, Note_on_c, 0, 74, 36
1, 585160, Note_on_c, 0, 66, 34
1, 585201, Note_on_c, 0, 71, 18
1, 585316, Note_on_c, 0, 66, 0
1, 585316, Poly_aftertouch_c, 0, 66, 0
1, 585382, Note_on_c, 0, 74, 0
1, 585445, Note_on_c, 0, 67, 32
1, 585446, Poly_aftertouch_c, 0, 71, 24
1, 585453, Note_on_c, 0, 59, 30
1, 585480, Note_on_c, 0, 64, 25
1, 585520, Note_on_c, 0, 67, 0
1, 585520, Poly_aftertouch_c, 0, 67, 0
1, 585528, Note_on_c, 0, 71, 0
1, 585528, Poly_aftertouch_c, 0, 71, 0
1, 585529, Poly_aftertouch_c, 0, 71, 0
1, 585543, Note_on_c, 0, 59, 0
1, 585543, Poly_aftertouch_c, 0, 59, 0
1, 585556, Note_on_c, 0, 64, 0
1, 585556, Poly_aftertouch_c, 0, 64, 0
1, 585753, Note_on_c, 0, 69, 39
1, 585774, Note_on_c, 0, 60, 28
1, 585805, Note_on_c, 0, 69, 0
1, 585866, Note_on_c, 0, 60, 0
1, 585866, Poly_aftertouch_c, 0, 60, 0
1, 586051, Note_on_c, 0, 67, 48
1, 586083, Note_on_c, 0, 59, 24
1, 586150, Note_on_c, 0, 67, 0
1, 586150, Poly_aftertouch_c, 0, 67, 0
1, 586158, Note_on_c, 0, 59, 0
1, 586158, Poly_aftertouch_c, 0, 59, 0
1, 586347, Note_on_c, 0, 74, 48
1, 586374, Note_on_c, 0, 64, 29
1, 586429, Note_on_c, 0, 64, 0
1, 586429, Poly_aftertouch_c, 0, 64, 0
1, 586437, Note_on_c, 0, 74, 0
1, 586699, Control_c, 0, 67, 122
1, 586712, Note_on_c, 0, 57, 34
1, 586720, Note_on_c, 0, 64, 36
1, 586736, Note_on_c, 0, 60, 28
1, 586845, Note_on_c, 0, 79, 77
1, 586847, Control_c, 0, 67, 116
1, 586866, Control_c, 0, 64, 121
1, 586872, Note_on_c, 0, 67, 46
1, 586886, Control_c, 0, 64, 111
1, 586905, Control_c, 0, 64, 95
1, 586924, Control_c, 0, 64, 71
1, 586943, Control_c, 0, 64, 51
1, 586960, Control_c, 0, 64, 48
1, 586980, Control_c, 0, 64, 57
1, 586998, Control_c, 0, 64, 71
1, 587018, Control_c, 0, 64, 80
1, 587018, Control_c, 0, 67, 112
1, 587036, Control_c, 0, 64, 92
1, 587054, Control_c, 0, 64, 106
1, 587064, Poly_aftertouch_c, 0, 57, 24
1, 587072, Control_c, 0, 64, 119
1, 587073, Note_on_c, 0, 64, 0
1, 587073, Poly_aftertouch_c, 0, 64, 0
1, 587078, Note_on_c, 0, 67, 0
1, 587078, Poly_aftertouch_c, 0, 67, 0
1, 587091, Control_c, 0, 64, 127
1, 587103, Note_on_c, 0, 60, 0
1, 587103, Poly_aftertouch_c, 0, 60, 0
1, 587111, Note_on_c, 0, 57, 0
1, 587111, Poly_aftertouch_c, 0, 57, 0
1, 587255, Note_on_c, 0, 62, 39
1, 587258, Note_on_c, 0, 69, 43
1, 587273, Note_on_c, 0, 59, 31
1, 587307, Note_on_c, 0, 62, 0
1, 587307, Poly_aftertouch_c, 0, 62, 0
1, 587313, Note_on_c, 0, 79, 0
1, 587313, Poly_aftertouch_c, 0, 79, 0
1, 587322, Note_on_c, 0, 59, 0
1, 587322, Poly_aftertouch_c, 0, 59, 0
1, 587528, Note_on_c, 0, 69, 0
1, 587545, Note_on_c, 0, 67, 46
1, 587553, Note_on_c, 0, 57, 30
1, 587560, Note_on_c, 0, 60, 36
1, 587589, Note_on_c, 0, 67, 0
1, 587589, Poly_aftertouch_c, 0, 67, 0
1, 587596, Control_c, 0, 67, 116
1, 587612, Note_on_c, 0, 60, 0
1, 587612, Poly_aftertouch_c, 0, 60, 0
1, 587627, Note_on_c, 0, 57, 0
1, 587627, Poly_aftertouch_c, 0, 57, 0
1, 587691, Control_c, 0, 67, 121
1, 587747, Control_c, 0, 67, 126
1, 587985, Note_on_c, 0, 69, 41
1, 588004, Note_on_c, 0, 59, 40
1, 588063, Note_on_c, 0, 69, 0
1, 588089, Poly_aftertouch_c, 0, 62, 127
1, 588104, Note_on_c, 0, 59, 0
1, 588104, Poly_aftertouch_c, 0, 59, 0
1, 588144, Poly_aftertouch_c, 0, 62, 0
1, 588292, Note_on_c, 0, 78, 61
1, 588329, Note_on_c, 0, 66, 39
1, 588368, Note_on_c, 0, 74, 26
1, 588569, Control_c, 0, 64, 116
1, 588587, Control_c, 0, 64, 87
1, 588606, Control_c, 0, 64, 57
1, 588612, Note_on_c, 0, 40, 42
1, 588626, Control_c, 0, 64, 47
1, 588643, Control_c, 0, 64, 54
1, 588662, Control_c, 0, 64, 68
1, 588681, Control_c, 0, 64, 83
1, 588700, Control_c, 0, 64, 100
1, 588719, Control_c, 0, 64, 123
1, 588737, Control_c, 0, 64, 127
1, 588821, Note_on_c, 0, 40, 0
1, 588821, Poly_aftertouch_c, 0, 40, 0
1, 588831, Note_on_c, 0, 78, 0
1, 588831, Note_on_c, 0, 47, 37
1, 588882, Note_on_c, 0, 66, 0
1, 588882, Poly_aftertouch_c, 0, 66, 0
1, 588894, Note_on_c, 0, 47, 0
1, 588923, Control_c, 0, 67, 122
1, 588930, Note_on_c, 0, 74, 0
1, 588992, Note_on_c, 0, 55, 42
1, 589069, Note_on_c, 0, 55, 0
1, 589069, Poly_aftertouch_c, 0, 55, 0
1, 589161, Note_on_c, 0, 64, 38
1, 589252, Note_on_c, 0, 64, 0
1, 589252, Poly_aftertouch_c, 0, 64, 0
1, 589275, Note_on_c, 0, 71, 40
1, 589361, Note_on_c, 0, 71, 0
1, 589392, Note_on_c, 0, 76, 51
1, 589471, Note_on_c, 0, 76, 0
1, 589471, Poly_aftertouch_c, 0, 76, 0
1, 589740, Note_on_c, 0, 71, 33
1, 589765, Control_c, 0, 67, 118
1, 589767, Note_on_c, 0, 62, 21
1, 589794, Note_on_c, 0, 67, 23
1, 589928, Note_on_c, 0, 86, 46
1, 590027, Note_on_c, 0, 86, 0
1, 590057, Note_on_c, 0, 71, 0
1, 590075, Poly_aftertouch_c, 0, 67, 24
1, 590094, Poly_aftertouch_c, 0, 62, 24
1, 590107, Note_on_c, 0, 67, 0
1, 590107, Poly_aftertouch_c, 0, 67, 0
1, 590121, Control_c, 0, 67, 112
1, 590197, Note_on_c, 0, 62, 0
1, 590197, Poly_aftertouch_c, 0, 62, 0
1, 590214, Control_c, 0, 67, 108
1, 590290, Control_c, 0, 67, 103
1, 590364, Control_c, 0, 67, 99
1, 590439, Control_c, 0, 67, 95
1, 590470, Note_on_c, 0, 72, 37
1, 590489, Note_on_c, 0, 64, 34
1, 590513, Control_c, 0, 67, 91
1, 590576, Note_on_c, 0, 72, 0
1, 590576, Poly_aftertouch_c, 0, 72, 0
1, 590597, Note_on_c, 0, 64, 0
1, 590597, Poly_aftertouch_c, 0, 64, 0
1, 590606, Control_c, 0, 67, 87
1, 590682, Control_c, 0, 67, 82
1, 590737, Control_c, 0, 67, 78
1, 590793, Control_c, 0, 67, 73
1, 590834, Note_on_c, 0, 62, 37
1, 590834, Note_on_c, 0, 71, 36
1, 590850, Control_c, 0, 67, 69
1, 590915, Note_on_c, 0, 62, 0
1, 590915, Poly_aftertouch_c, 0, 62, 0
1, 590925, Control_c, 0, 67, 64
1, 590985, Note_on_c, 0, 71, 0
1, 590999, Control_c, 0, 67, 59
1, 591056, Control_c, 0, 67, 54
1, 591130, Control_c, 0, 67, 50
1, 591158, Note_on_c, 0, 74, 38
1, 591161, Note_on_c, 0, 67, 29
1, 591175, Note_on_c, 0, 71, 30
1, 591243, Control_c, 0, 67, 46
1, 591330, Note_on_c, 0, 67, 0
1, 591330, Poly_aftertouch_c, 0, 67, 0
1, 591333, Control_c, 0, 67, 42
1, 591397, Note_on_c, 0, 74, 0
1, 591428, Control_c, 0, 67, 38
1, 591434, Note_on_c, 0, 69, 39
1, 591458, Note_on_c, 0, 66, 28
1, 591463, Poly_aftertouch_c, 0, 71, 22
1, 591465, Note_on_c, 0, 60, 26
1, 591501, Note_on_c, 0, 71, 0
1, 591501, Poly_aftertouch_c, 0, 71, 0
1, 591509, Note_on_c, 0, 69, 0
1, 591530, Note_on_c, 0, 66, 0
1, 591530, Poly_aftertouch_c, 0, 66, 0
1, 591542, Control_c, 0, 67, 34
1, 591546, Note_on_c, 0, 60, 0
1, 591546, Poly_aftertouch_c, 0, 60, 0
1, 591674, Control_c, 0, 67, 30
1, 591748, Note_on_c, 0, 71, 44
1, 591768, Note_on_c, 0, 62, 34
1, 591797, Note_on_c, 0, 71, 0
1, 591797, Poly_aftertouch_c, 0, 71, 0
1, 591827, Note_on_c, 0, 62, 0
1, 591827, Poly_aftertouch_c, 0, 62, 0
1, 591972, Control_c, 0, 67, 26
1, 592055, Note_on_c, 0, 60, 36
1, 592073, Note_on_c, 0, 69, 20
1, 592101, Note_on_c, 0, 60, 0
1, 592101, Poly_aftertouch_c, 0, 60, 0
1, 592122, Control_c, 0, 67, 22
1, 592215, Control_c, 0, 67, 17
1, 592291, Note_on_c, 0, 69, 0
1, 592309, Control_c, 0, 67, 13
1, 592331, Note_on_c, 0, 74, 48
1, 592335, Note_on_c, 0, 66, 39
1, 592371, Note_on_c, 0, 71, 22
1, 592421, Note_on_c, 0, 66, 0
1, 592421, Poly_aftertouch_c, 0, 66, 0
1, 592554, Note_on_c, 0, 74, 0
1, 592570, Control_c, 0, 67, 9
1, 592596, Note_on_c, 0, 67, 50
1, 592623, Note_on_c, 0, 59, 37
1, 592624, Poly_aftertouch_c, 0, 71, 24
1, 592667, Note_on_c, 0, 64, 18
1, 592700, Note_on_c, 0, 59, 0
1, 592700, Poly_aftertouch_c, 0, 59, 0
1, 592707, Note_on_c, 0, 67, 0
1, 592707, Poly_aftertouch_c, 0, 67, 0
1, 592738, Note_on_c, 0, 64, 0
1, 592738, Poly_aftertouch_c, 0, 64, 0
1, 592780, Note_on_c, 0, 71, 0
1, 592780, Poly_aftertouch_c, 0, 71, 0
1, 592911, Note_on_c, 0, 69, 48
1, 592932, Note_on_c, 0, 60, 35
1, 592968, Note_on_c, 0, 69, 0
1, 593085, Note_on_c, 0, 60, 0
1, 593085, Poly_aftertouch_c, 0, 60, 0
1, 593203, Note_on_c, 0, 67, 46
1, 593216, Note_on_c, 0, 59, 37
1, 593263, Note_on_c, 0, 67, 0
1, 593263, Poly_aftertouch_c, 0, 67, 0
1, 593278, Note_on_c, 0, 59, 0
1, 593278, Poly_aftertouch_c, 0, 59, 0
1, 593465, Note_on_c, 0, 74, 55
1, 593483, Note_on_c, 0, 64, 35
1, 593530, Note_on_c, 0, 64, 0
1, 593530, Note_on_c, 0, 74, 0
1, 593530, Poly_aftertouch_c, 0, 64, 0
1, 593768, Note_on_c, 0, 64, 31
1, 593781, Note_on_c, 0, 57, 26
1, 593782, Note_on_c, 0, 60, 34
1, 593893, Note_on_c, 0, 78, 77
1, 593916, Control_c, 0, 64, 116
1, 593921, Note_on_c, 0, 66, 49
1, 593936, Control_c, 0, 64, 84
1, 593955, Control_c, 0, 64, 52
1, 593972, Control_c, 0, 64, 56
1, 593991, Control_c, 0, 64, 78
1, 594010, Control_c, 0, 64, 96
1, 594028, Control_c, 0, 64, 120
1, 594047, Control_c, 0, 64, 127
1, 594105, Note_on_c, 0, 78, 0
1, 594137, Note_on_c, 0, 64, 0
1, 594137, Poly_aftertouch_c, 0, 64, 0
1, 594157, Note_on_c, 0, 60, 0
1, 594157, Poly_aftertouch_c, 0, 60, 0
1, 594174, Note_on_c, 0, 66, 0
1, 594174, Poly_aftertouch_c, 0, 66, 0
1, 594176, Note_on_c, 0, 57, 0
1, 594176, Poly_aftertouch_c, 0, 57, 0
1, 594241, Note_on_c, 0, 62, 50
1, 594247, Note_on_c, 0, 67, 49
1, 594251, Note_on_c, 0, 59, 44
1, 594297, Note_on_c, 0, 62, 0
1, 594297, Poly_aftertouch_c, 0, 62, 0
1, 594301, Note_on_c, 0, 59, 0
1, 594301, Poly_aftertouch_c, 0, 59, 0
1, 594416, Note_on_c, 0, 67, 0
1, 594416, Poly_aftertouch_c, 0, 67, 0
1, 594526, Note_on_c, 0, 57, 38
1, 594527, Note_on_c, 0, 60, 38
1, 594538, Note_on_c, 0, 66, 56
1, 594568, Note_on_c, 0, 57, 0
1, 594568, Poly_aftertouch_c, 0, 57, 0
1, 594576, Note_on_c, 0, 66, 0
1, 594576, Poly_aftertouch_c, 0, 66, 0
1, 594581, Note_on_c, 0, 60, 0
1, 594581, Poly_aftertouch_c, 0, 60, 0
1, 594754, Note_on_c, 0, 59, 32
1, 594818, Note_on_c, 0, 62, 39
1, 594865, Note_on_c, 0, 67, 30
1, 594884, Note_on_c, 0, 62, 0
1, 594884, Poly_aftertouch_c, 0, 62, 0
1, 594917, Note_on_c, 0, 67, 0
1, 594917, Poly_aftertouch_c, 0, 67, 0
1, 594930, Note_on_c, 0, 59, 0
1, 594930, Poly_aftertouch_c, 0, 59, 0
1, 595064, Note_on_c, 0, 76, 76
1, 595095, Note_on_c, 0, 74, 47
1, 595099, Note_on_c, 0, 64, 42
1, 595299, Note_on_c, 0, 40, 63
1, 595319, Control_c, 0, 64, 105
1, 595338, Control_c, 0, 64, 70
1, 595355, Control_c, 0, 64, 21
1, 595375, Control_c, 0, 64, 12
1, 595393, Control_c, 0, 64, 44
1, 595413, Control_c, 0, 64, 71
1, 595431, Control_c, 0, 64, 91
1, 595449, Control_c, 0, 64, 118
1, 595469, Control_c, 0, 64, 127
1, 595552, Note_on_c, 0, 40, 0
1, 595552, Poly_aftertouch_c, 0, 40, 0
1, 595553, Note_on_c, 0, 64, 0
1, 595553, Poly_aftertouch_c, 0, 64, 0
1, 595575, Note_on_c, 0, 47, 49
1, 595618, Control_c, 0, 67, 13
1, 595680, Poly_aftertouch_c, 0, 74, 22
1, 595690, Note_on_c, 0, 47, 0
1, 595708, Note_on_c, 0, 74, 0
1, 595708, Poly_aftertouch_c, 0, 74, 0
1, 595724, Note_on_c, 0, 55, 53
1, 595813, Note_on_c, 0, 55, 0
1, 595813, Poly_aftertouch_c, 0, 55, 0
1, 595865, Note_on_c, 0, 76, 0
1, 595865, Poly_aftertouch_c, 0, 76, 0
1, 595866, Note_on_c, 0, 64, 39
1, 595919, Note_on_c, 0, 64, 0
1, 595919, Poly_aftertouch_c, 0, 64, 0
1, 595946, Note_on_c, 0, 71, 61
1, 596065, Note_on_c, 0, 71, 0
1, 596065, Note_on_c, 0, 76, 68
1, 596065, Poly_aftertouch_c, 0, 71, 0
1, 596146, Note_on_c, 0, 76, 0
1, 596146, Poly_aftertouch_c, 0, 76, 0
1, 596206, Note_on_c, 0, 74, 67
1, 596346, Note_on_c, 0, 74, 0
1, 596346, Poly_aftertouch_c, 0, 74, 0
1, 596350, Note_on_c, 0, 76, 70
1, 596582, Note_on_c, 0, 71, 46
1, 596586, Note_on_c, 0, 76, 0
1, 596586, Poly_aftertouch_c, 0, 76, 0
1, 596599, Note_on_c, 0, 62, 30
1, 596612, Note_on_c, 0, 67, 38
1, 596820, Note_on_c, 0, 71, 0
1, 596820, Poly_aftertouch_c, 0, 71, 0
1, 596878, Poly_aftertouch_c, 0, 62, 24
1, 596964, Note_on_c, 0, 86, 77
1, 596965, Note_on_c, 0, 62, 0
1, 596965, Poly_aftertouch_c, 0, 62, 0
1, 596999, Note_on_c, 0, 67, 0
1, 596999, Poly_aftertouch_c, 0, 67, 0
1, 597075, Note_on_c, 0, 86, 0
1, 597189, Control_c, 0, 67, 18
1, 597283, Control_c, 0, 67, 23
1, 597339, Control_c, 0, 67, 28
1, 597396, Control_c, 0, 67, 33
1, 597450, Control_c, 0, 67, 39
1, 597452, Note_on_c, 0, 72, 41
1, 597480, Note_on_c, 0, 64, 31
1, 597487, Control_c, 0, 67, 43
1, 597525, Control_c, 0, 67, 47
1, 597557, Note_on_c, 0, 72, 0
1, 597557, Poly_aftertouch_c, 0, 72, 0
1, 597563, Control_c, 0, 67, 51
1, 597566, Note_on_c, 0, 64, 0
1, 597566, Poly_aftertouch_c, 0, 64, 0
1, 597619, Control_c, 0, 67, 55
1, 597656, Control_c, 0, 67, 59
1, 597694, Control_c, 0, 67, 64
1, 597768, Control_c, 0, 67, 69
1, 597792, Note_on_c, 0, 71, 42
1, 597817, Note_on_c, 0, 62, 33
1, 597880, Control_c, 0, 67, 73
1, 597883, Note_on_c, 0, 62, 0
1, 597883, Poly_aftertouch_c, 0, 62, 0
1, 597904, Note_on_c, 0, 71, 0
1, 597904, Poly_aftertouch_c, 0, 71, 0
1, 597918, Control_c, 0, 67, 78
1, 597974, Control_c, 0, 67, 82
1, 598068, Control_c, 0, 67, 86
1, 598102, Note_on_c, 0, 74, 47
1, 598115, Note_on_c, 0, 67, 40
1, 598128, Note_on_c, 0, 71, 35
1, 598142, Control_c, 0, 67, 90
1, 598179, Control_c, 0, 67, 94
1, 598187, Note_on_c, 0, 67, 0
1, 598187, Poly_aftertouch_c, 0, 67, 0
1, 598217, Control_c, 0, 67, 98
1, 598273, Control_c, 0, 67, 104
1, 598323, Note_on_c, 0, 74, 0
1, 598323, Poly_aftertouch_c, 0, 74, 0
1, 598328, Control_c, 0, 67, 108
1, 598396, Note_on_c, 0, 69, 36
1, 598398, Note_on_c, 0, 66, 40
1, 598407, Note_on_c, 0, 60, 25
1, 598423, Control_c, 0, 67, 112
1, 598432, Poly_aftertouch_c, 0, 71, 22
1, 598458, Note_on_c, 0, 69, 0
1, 598473, Note_on_c, 0, 66, 0
1, 598473, Poly_aftertouch_c, 0, 66, 0
1, 598477, Note_on_c, 0, 71, 0
1, 598477, Poly_aftertouch_c, 0, 71, 0
1, 598517, Note_on_c, 0, 60, 0
1, 598517, Poly_aftertouch_c, 0, 60, 0
1, 598572, Control_c, 0, 67, 117
1, 598647, Control_c, 0, 67, 121
1, 598693, Note_on_c, 0, 71, 46
1, 598721, Note_on_c, 0, 62, 34
1, 598741, Control_c, 0, 67, 125
1, 598757, Note_on_c, 0, 71, 0
1, 598757, Poly_aftertouch_c, 0, 71, 0
1, 598793, Note_on_c, 0, 62, 0
1, 598793, Poly_aftertouch_c, 0, 62, 0
1, 599013, Note_on_c, 0, 69, 38
1, 599024, Note_on_c, 0, 60, 30
1, 599084, Note_on_c, 0, 60, 0
1, 599084, Poly_aftertouch_c, 0, 60, 0
1, 599115, Note_on_c, 0, 69, 0
1, 599311, Note_on_c, 0, 74, 44
1, 599318, Note_on_c, 0, 66, 35
1, 599357, Note_on_c, 0, 71, 21
1, 599477, Note_on_c, 0, 66, 0
1, 599477, Poly_aftertouch_c, 0, 66, 0
1, 599521, Note_on_c, 0, 74, 0
1, 599521, Poly_aftertouch_c, 0, 74, 0
1, 599601, Note_on_c, 0, 67, 37
1, 599613, Poly_aftertouch_c, 0, 71, 20
1, 599625, Note_on_c, 0, 59, 29
1, 599646, Note_on_c, 0, 64, 28
1, 599696, Note_on_c, 0, 67, 0
1, 599696, Poly_aftertouch_c, 0, 67, 0
1, 599704, Note_on_c, 0, 71, 0
1, 599704, Poly_aftertouch_c, 0, 71, 0
1, 599725, Note_on_c, 0, 64, 0
1, 599725, Poly_aftertouch_c, 0, 64, 0
1, 599741, Note_on_c, 0, 59, 0
1, 599741, Poly_aftertouch_c, 0, 59, 0
1, 599932, Note_on_c, 0, 69, 41
1, 599959, Note_on_c, 0, 60, 27
1, 599981, Note_on_c, 0, 69, 0
1, 600026, Note_on_c, 0, 60, 0
1, 600026, Poly_aftertouch_c, 0, 60, 0
1, 600241, Note_on_c, 0, 67, 40
1, 600267, Note_on_c, 0, 59, 37
1, 600340, Note_on_c, 0, 59, 0
1, 600340, Poly_aftertouch_c, 0, 59, 0
1, 600351, Note_on_c, 0, 67, 0
1, 600351, Poly_aftertouch_c, 0, 67, 0
1, 600610, Control_c, 0, 67, 121
1, 600632, Note_on_c, 0, 74, 42
1, 600641, Note_on_c, 0, 64, 34
1, 600721, Poly_aftertouch_c, 0, 71, 127
1, 600722, Control_c, 0, 67, 117
1, 600780, Poly_aftertouch_c, 0, 71, 0
1, 600800, Note_on_c, 0, 64, 0
1, 600800, Poly_aftertouch_c, 0, 64, 0
1, 600815, Note_on_c, 0, 74, 0
1, 600815, Poly_aftertouch_c, 0, 74, 0
1, 600815, Control_c, 0, 67, 112
1, 600849, Note_on_c, 0, 45, 40
1, 600891, Control_c, 0, 67, 108
1, 600946, Control_c, 0, 67, 103
1, 600999, Note_on_c, 0, 45, 0
1, 600999, Poly_aftertouch_c, 0, 45, 0
1, 601003, Control_c, 0, 67, 98
1, 601041, Control_c, 0, 67, 94
1, 601078, Control_c, 0, 67, 89
1, 601116, Control_c, 0, 67, 84
1, 601152, Control_c, 0, 67, 80
1, 601209, Control_c, 0, 67, 74
1, 601225, Note_on_c, 0, 76, 59
1, 601246, Control_c, 0, 67, 70
1, 601252, Note_on_c, 0, 67, 34
1, 601257, Note_on_c, 0, 59, 34
1, 601260, Note_on_c, 0, 64, 30
1, 601283, Control_c, 0, 67, 65
1, 601295, Note_on_c, 0, 52, 20
1, 601322, Control_c, 0, 67, 61
1, 601339, Control_c, 0, 64, 115
1, 601359, Control_c, 0, 64, 91
1, 601380, Control_c, 0, 64, 77
1, 601383, Control_c, 0, 67, 56
1, 601414, Control_c, 0, 64, 82
1, 601433, Control_c, 0, 64, 88
1, 601453, Control_c, 0, 64, 98
1, 601453, Control_c, 0, 67, 52
1, 601466, Note_on_c, 0, 59, 0
1, 601466, Poly_aftertouch_c, 0, 59, 0
1, 601469, Control_c, 0, 64, 110
1, 601489, Control_c, 0, 64, 120
1, 601509, Control_c, 0, 64, 126
1, 601564, Control_c, 0, 67, 48
1, 601801, Note_on_c, 0, 69, 43
1, 601849, Note_on_c, 0, 61, 21
1, 601890, Note_on_c, 0, 67, 0
1, 601890, Poly_aftertouch_c, 0, 67, 0
1, 601901, Control_c, 0, 67, 53
1, 601987, Note_on_c, 0, 61, 0
1, 602013, Control_c, 0, 67, 57
1, 602069, Control_c, 0, 67, 62
1, 602126, Control_c, 0, 67, 68
1, 602163, Control_c, 0, 67, 72
1, 602193, Note_on_c, 0, 76, 0
1, 602193, Poly_aftertouch_c, 0, 76, 0
1, 602197, Poly_aftertouch_c, 0, 69, 24
1, 602217, Control_c, 0, 67, 78
1, 602223, Note_on_c, 0, 67, 41
1, 602241, Note_on_c, 0, 59, 43
1, 602257, Control_c, 0, 67, 83
1, 602294, Control_c, 0, 67, 87
1, 602311, Poly_aftertouch_c, 0, 52, 20
1, 602320, Note_on_c, 0, 52, 0
1, 602320, Poly_aftertouch_c, 0, 52, 0
1, 602331, Note_on_c, 0, 69, 0
1, 602331, Poly_aftertouch_c, 0, 69, 0
1, 602337, Poly_aftertouch_c, 0, 64, 24
1, 602349, Control_c, 0, 67, 93
1, 602361, Note_on_c, 0, 59, 0
1, 602361, Poly_aftertouch_c, 0, 59, 0
1, 602406, Control_c, 0, 67, 98
1, 602427, Note_on_c, 0, 64, 0
1, 602427, Poly_aftertouch_c, 0, 64, 0
1, 602480, Control_c, 0, 67, 103
1, 602537, Control_c, 0, 67, 108
1, 602565, Note_on_c, 0, 67, 0
1, 602565, Poly_aftertouch_c, 0, 67, 0
1, 602649, Control_c, 0, 67, 112
1, 602723, Control_c, 0, 67, 116
1, 602855, Control_c, 0, 67, 120
1, 602960, Note_on_c, 0, 74, 48
1, 602988, Note_on_c, 0, 67, 28
1, 602989, Note_on_c, 0, 71, 33
1, 602999, Note_on_c, 0, 64, 30
1, 603002, Control_c, 0, 67, 125
1, 603008, Note_on_c, 0, 57, 29
1, 603028, Note_on_c, 0, 62, 25
1, 603041, Control_c, 0, 64, 113
1, 603060, Control_c, 0, 64, 88
1, 603079, Control_c, 0, 64, 64
1, 603097, Control_c, 0, 64, 58
1, 603135, Control_c, 0, 64, 66
1, 603154, Control_c, 0, 64, 73
1, 603172, Control_c, 0, 64, 80
1, 603192, Control_c, 0, 64, 88
1, 603195, Note_on_c, 0, 67, 0
1, 603195, Poly_aftertouch_c, 0, 67, 0
1, 603210, Control_c, 0, 64, 96
1, 603228, Control_c, 0, 64, 102
1, 603243, Note_on_c, 0, 62, 0
1, 603243, Poly_aftertouch_c, 0, 62, 0
1, 603248, Control_c, 0, 64, 106
1, 603266, Control_c, 0, 64, 111
1, 603284, Control_c, 0, 64, 115
1, 603308, Poly_aftertouch_c, 0, 57, 22
1, 603323, Control_c, 0, 64, 122
1, 603325, Note_on_c, 0, 57, 0
1, 603325, Poly_aftertouch_c, 0, 57, 0
1, 603359, Control_c, 0, 64, 127
1, 603453, Control_c, 0, 67, 121
1, 603789, Control_c, 0, 67, 117
1, 603928, Note_on_c, 0, 38, 37
1, 604051, Control_c, 0, 64, 116
1, 604070, Control_c, 0, 64, 90
1, 604089, Control_c, 0, 64, 61
1, 604107, Control_c, 0, 64, 50
1, 604126, Control_c, 0, 64, 55
1, 604144, Control_c, 0, 64, 67
1, 604163, Control_c, 0, 64, 80
1, 604182, Control_c, 0, 64, 93
1, 604201, Control_c, 0, 64, 109
1, 604219, Control_c, 0, 64, 123
1, 604238, Control_c, 0, 64, 127
1, 604293, Control_c, 0, 67, 112
1, 604329, Note_on_c, 0, 45, 38
1, 604337, Note_on_c, 0, 38, 0
1, 604337, Poly_aftertouch_c, 0, 38, 0
1, 604397, Note_on_c, 0, 71, 0
1, 604407, Note_on_c, 0, 64, 0
1, 604407, Poly_aftertouch_c, 0, 64, 0
1, 604420, Note_on_c, 0, 45, 0
1, 604420, Poly_aftertouch_c, 0, 45, 0
1, 604422, Note_on_c, 0, 74, 0
1, 604422, Poly_aftertouch_c, 0, 74, 0
1, 604564, Note_on_c, 0, 54, 42
1, 604652, Note_on_c, 0, 54, 0
1, 604652, Poly_aftertouch_c, 0, 54, 0
1, 604713, Note_on_c, 0, 62, 28
1, 604824, Note_on_c, 0, 62, 0
1, 604824, Poly_aftertouch_c, 0, 62, 0
1, 604832, Note_on_c, 0, 69, 36
1, 604941, Note_on_c, 0, 69, 0
1, 604941, Poly_aftertouch_c, 0, 69, 0
1, 604952, Note_on_c, 0, 74, 49
1, 605005, Note_on_c, 0, 74, 0
1, 605005, Poly_aftertouch_c, 0, 74, 0
1, 605136, Note_on_c, 0, 74, 38
1, 605248, Control_c, 0, 67, 108
1, 605303, Control_c, 0, 67, 103
1, 605323, Note_on_c, 0, 81, 44
1, 605379, Control_c, 0, 67, 99
1, 605386, Poly_aftertouch_c, 0, 74, 24
1, 605417, Control_c, 0, 67, 95
1, 605472, Control_c, 0, 67, 90
1, 605528, Control_c, 0, 67, 84
1, 605572, Note_on_c, 0, 69, 28
1, 605584, Control_c, 0, 67, 80
1, 605596, Note_on_c, 0, 62, 18
1, 605621, Control_c, 0, 67, 75
1, 605629, Note_on_c, 0, 66, 19
1, 605677, Control_c, 0, 67, 70
1, 605682, Poly_aftertouch_c, 0, 74, 32
1, 605734, Control_c, 0, 67, 66
1, 605790, Control_c, 0, 67, 62
1, 605869, Note_on_c, 0, 86, 57
1, 605883, Control_c, 0, 67, 57
1, 605892, Poly_aftertouch_c, 0, 62, 24
1, 605929, Poly_aftertouch_c, 0, 66, 24
1, 605930, Poly_aftertouch_c, 0, 74, 22
1, 605948, Note_on_c, 0, 62, 0
1, 605948, Poly_aftertouch_c, 0, 62, 0
1, 605951, Note_on_c, 0, 66, 0
1, 605951, Poly_aftertouch_c, 0, 66, 0
1, 605957, Control_c, 0, 67, 53
1, 605992, Note_on_c, 0, 69, 0
1, 605992, Poly_aftertouch_c, 0, 69, 0
1, 606001, Note_on_c, 0, 74, 0
1, 606001, Poly_aftertouch_c, 0, 74, 0
1, 606002, Poly_aftertouch_c, 0, 74, 0
1, 606033, Control_c, 0, 67, 49
1, 606109, Control_c, 0, 67, 44
1, 606183, Control_c, 0, 67, 39
1, 606239, Control_c, 0, 67, 34
1, 606294, Control_c, 0, 67, 30
1, 606351, Control_c, 0, 67, 26
1, 606391, Note_on_c, 0, 71, 37
1, 606407, Control_c, 0, 67, 20
1, 606421, Note_on_c, 0, 61, 26
1, 606444, Control_c, 0, 67, 16
1, 606451, Note_on_c, 0, 66, 21
1, 606500, Control_c, 0, 67, 12
1, 606536, Note_on_c, 0, 76, 47
1, 606630, Control_c, 0, 67, 8
1, 606649, Note_on_c, 0, 71, 0
1, 606678, Poly_aftertouch_c, 0, 81, 22
1, 606699, Note_on_c, 0, 81, 0
1, 606699, Poly_aftertouch_c, 0, 81, 0
1, 606753, Note_on_c, 0, 76, 0
1, 606753, Poly_aftertouch_c, 0, 76, 0
1, 606819, Note_on_c, 0, 66, 0
1, 606819, Poly_aftertouch_c, 0, 66, 0
1, 606849, Note_on_c, 0, 61, 0
1, 606893, Control_c, 0, 67, 0
1, 606908, Note_on_c, 0, 86, 0
1, 606941, Note_on_c, 0, 74, 43
1, 606962, Note_on_c, 0, 69, 33
1, 606964, Note_on_c, 0, 62, 29
1, 607151, Poly_aftertouch_c, 0, 66, 0
1, 607173, Note_on_c, 0, 69, 0
1, 607173, Poly_aftertouch_c, 0, 69, 0
1, 607265, Note_on_c, 0, 83, 64
1, 607313, Note_on_c, 0, 74, 0
1, 607317, Note_on_c, 0, 76, 39
1, 607421, Note_on_c, 0, 62, 0
1, 607421, Poly_aftertouch_c, 0, 62, 0
1, 607735, Note_on_c, 0, 71, 35
1, 607737, Note_on_c, 0, 74, 44
1, 607739, Note_on_c, 0, 76, 0
1, 607739, Poly_aftertouch_c, 0, 76, 0
1, 607741, Note_on_c, 0, 60, 28
1, 607792, Note_on_c, 0, 66, 15
1, 607884, Note_on_c, 0, 71, 0
1, 608040, Note_on_c, 0, 81, 64
1, 608066, Note_on_c, 0, 76, 45
1, 608070, Note_on_c, 0, 69, 32
1, 608073, Note_on_c, 0, 83, 0
1, 608091, Note_on_c, 0, 62, 30
1, 608115, Note_on_c, 0, 74, 0
1, 608161, Note_on_c, 0, 69, 0
1, 608161, Poly_aftertouch_c, 0, 69, 0
1, 608166, Note_on_c, 0, 60, 0
1, 608166, Poly_aftertouch_c, 0, 60, 0
1, 608279, Note_on_c, 0, 66, 0
1, 608280, Note_on_c, 0, 81, 0
1, 608280, Poly_aftertouch_c, 0, 81, 0
1, 608364, Note_on_c, 0, 86, 75
1, 608367, Note_on_c, 0, 76, 0
1, 608367, Poly_aftertouch_c, 0, 76, 0
1, 608394, Note_on_c, 0, 74, 34
1, 608453, Note_on_c, 0, 62, 0
1, 608453, Poly_aftertouch_c, 0, 62, 0
1, 608503, Note_on_c, 0, 74, 0
1, 608680, Note_on_c, 0, 76, 50
1, 608697, Note_on_c, 0, 59, 37
1, 608704, Note_on_c, 0, 71, 35
1, 608739, Note_on_c, 0, 66, 23
1, 608792, Note_on_c, 0, 71, 0
1, 608819, Note_on_c, 0, 86, 0
1, 608912, Note_on_c, 0, 66, 0
1, 608985, Poly_aftertouch_c, 0, 59, 24
1, 609002, Note_on_c, 0, 76, 0
1, 609002, Poly_aftertouch_c, 0, 76, 0
1, 609007, Note_on_c, 0, 74, 51
1, 609018, Note_on_c, 0, 62, 34
1, 609018, Note_on_c, 0, 69, 36
1, 609101, Note_on_c, 0, 59, 0
1, 609101, Poly_aftertouch_c, 0, 59, 0
1, 609103, Note_on_c, 0, 62, 0
1, 609103, Poly_aftertouch_c, 0, 62, 0
1, 609129, Note_on_c, 0, 69, 0
1, 609129, Poly_aftertouch_c, 0, 69, 0
1, 609257, Note_on_c, 0, 74, 0
1, 609303, Note_on_c, 0, 79, 68
1, 609334, Note_on_c, 0, 76, 48
1, 609607, Note_on_c, 0, 71, 44
1, 609613, Note_on_c, 0, 74, 43
1, 609632, Note_on_c, 0, 57, 36
1, 609642, Control_c, 0, 64, 103
1, 609648, Note_on_c, 0, 62, 36
1, 609661, Control_c, 0, 64, 68
1, 609679, Control_c, 0, 64, 52
1, 609698, Control_c, 0, 64, 59
1, 609705, Note_on_c, 0, 76, 0
1, 609705, Poly_aftertouch_c, 0, 76, 0
1, 609716, Note_on_c, 0, 71, 0
1, 609717, Control_c, 0, 64, 73
1, 609735, Control_c, 0, 64, 86
1, 609754, Control_c, 0, 64, 104
1, 609773, Control_c, 0, 64, 127
1, 609854, Note_on_c, 0, 74, 0
1, 609885, Poly_aftertouch_c, 0, 57, 24
1, 609900, Note_on_c, 0, 79, 0
1, 609900, Poly_aftertouch_c, 0, 79, 0
1, 609916, Note_on_c, 0, 78, 63
1, 609940, Note_on_c, 0, 66, 41
1, 609941, Note_on_c, 0, 69, 41
1, 609950, Note_on_c, 0, 78, 0
1, 609960, Poly_aftertouch_c, 0, 62, 24
1, 609994, Note_on_c, 0, 69, 0
1, 609994, Poly_aftertouch_c, 0, 69, 0
1, 610011, Poly_aftertouch_c, 0, 76, 127
1, 610030, Poly_aftertouch_c, 0, 76, 0
1, 610054, Note_on_c, 0, 62, 0
1, 610054, Poly_aftertouch_c, 0, 62, 0
1, 610063, Note_on_c, 0, 66, 0
1, 610121, Note_on_c, 0, 57, 0
1, 610121, Poly_aftertouch_c, 0, 57, 0
1, 610122, Poly_aftertouch_c, 0, 57, 0
1, 610146, Control_c, 0, 67, 8
1, 610203, Control_c, 0, 67, 12
1, 610232, Note_on_c, 0, 86, 72
1, 610258, Control_c, 0, 67, 17
1, 610264, Note_on_c, 0, 86, 0
1, 610264, Note_on_c, 0, 74, 48
1, 610296, Control_c, 0, 67, 24
1, 610299, Note_on_c, 0, 74, 0
1, 610315, Control_c, 0, 67, 29
1, 610334, Control_c, 0, 67, 35
1, 610352, Control_c, 0, 67, 41
1, 610371, Control_c, 0, 67, 48
1, 610389, Control_c, 0, 67, 55
1, 610408, Control_c, 0, 67, 60
1, 610428, Control_c, 0, 67, 64
1, 610464, Control_c, 0, 67, 70
1, 610502, Control_c, 0, 67, 77
1, 610521, Control_c, 0, 67, 81
1, 610554, Note_on_c, 0, 64, 44
1, 610557, Control_c, 0, 67, 88
1, 610559, Note_on_c, 0, 67, 40
1, 610565, Note_on_c, 0, 59, 37
1, 610576, Control_c, 0, 67, 92
1, 610586, Note_on_c, 0, 54, 23
1, 610594, Control_c, 0, 67, 96
1, 610615, Control_c, 0, 67, 100
1, 610652, Control_c, 0, 67, 106
1, 610688, Note_on_c, 0, 64, 0
1, 610688, Poly_aftertouch_c, 0, 64, 0
1, 610688, Control_c, 0, 67, 111
1, 610745, Control_c, 0, 67, 115
1, 610748, Note_on_c, 0, 59, 0
1, 610748, Poly_aftertouch_c, 0, 59, 0
1, 610749, Poly_aftertouch_c, 0, 59, 0
1, 610794, Note_on_c, 0, 67, 0
1, 610794, Poly_aftertouch_c, 0, 67, 0
1, 610841, Poly_aftertouch_c, 0, 54, 24
1, 610860, Note_on_c, 0, 66, 50
1, 610866, Note_on_c, 0, 62, 44
1, 610889, Note_on_c, 0, 57, 27
1, 610896, Control_c, 0, 67, 119
1, 610905, Note_on_c, 0, 66, 0
1, 611022, Note_on_c, 0, 57, 0
1, 611049, Note_on_c, 0, 62, 0
1, 611049, Poly_aftertouch_c, 0, 62, 0
1, 611135, Poly_aftertouch_c, 0, 54, 22
1, 611168, Note_on_c, 0, 76, 73
1, 611203, Note_on_c, 0, 59, 36
1, 611274, Note_on_c, 0, 54, 0
1, 611274, Poly_aftertouch_c, 0, 54, 0
1, 611281, Note_on_c, 0, 59, 0
1, 611486, Note_on_c, 0, 67, 47
1, 611492, Control_c, 0, 64, 104
1, 611511, Control_c, 0, 64, 76
1, 611514, Note_on_c, 0, 64, 21
1, 611517, Note_on_c, 0, 50, 32
1, 611522, Note_on_c, 0, 57, 28
1, 611530, Control_c, 0, 64, 66
1, 611550, Control_c, 0, 64, 70
1, 611568, Control_c, 0, 64, 77
1, 611588, Control_c, 0, 64, 88
1, 611604, Control_c, 0, 64, 105
1, 611624, Control_c, 0, 64, 124
1, 611627, Poly_aftertouch_c, 0, 76, 24
1, 611663, Note_on_c, 0, 76, 0
1, 611663, Poly_aftertouch_c, 0, 76, 0
1, 611678, Note_on_c, 0, 64, 0
1, 611678, Poly_aftertouch_c, 0, 64, 0
1, 611679, Note_on_c, 0, 67, 0
1, 611679, Poly_aftertouch_c, 0, 67, 0
1, 611723, Note_on_c, 0, 57, 0
1, 611808, Note_on_c, 0, 74, 56
1, 611818, Note_on_c, 0, 59, 37
1, 611818, Note_on_c, 0, 62, 34
1, 611829, Note_on_c, 0, 66, 29
1, 611849, Note_on_c, 0, 74, 0
1, 611862, Note_on_c, 0, 62, 0
1, 611862, Poly_aftertouch_c, 0, 62, 0
1, 611866, Control_c, 0, 67, 124
1, 611881, Note_on_c, 0, 66, 0
1, 611901, Note_on_c, 0, 59, 0
1, 611973, Poly_aftertouch_c, 0, 50, 24
1, 612121, Note_on_c, 0, 57, 29
1, 612143, Note_on_c, 0, 86, 72
1, 612162, Note_on_c, 0, 50, 0
1, 612162, Poly_aftertouch_c, 0, 50, 0
1, 612165, Note_on_c, 0, 57, 0
1, 612172, Note_on_c, 0, 86, 0
1, 612355, Note_on_c, 0, 45, 39
1, 612407, Note_on_c, 0, 45, 0
1, 612407, Poly_aftertouch_c, 0, 45, 0
1, 612591, Note_on_c, 0, 67, 62
1, 612616, Note_on_c, 0, 59, 47
1, 612626, Note_on_c, 0, 64, 41
1, 612640, Note_on_c, 0, 50, 36
1, 612742, Note_on_c, 0, 59, 0
1, 612778, Note_on_c, 0, 64, 0
1, 612778, Poly_aftertouch_c, 0, 64, 0
1, 613005, Note_on_c, 0, 57, 48
1, 613005, Note_on_c, 0, 66, 64
1, 613016, Note_on_c, 0, 62, 48
1, 613245, Note_on_c, 0, 57, 0
1, 613286, Poly_aftertouch_c, 0, 50, 24
1, 613428, Note_on_c, 0, 50, 0
1, 613428, Poly_aftertouch_c, 0, 50, 0
1, 613495, Note_on_c, 0, 52, 44
1, 613532, Control_c, 0, 64, 115
1, 613549, Control_c, 0, 64, 99
1, 613559, Note_on_c, 0, 72, 65
1, 613568, Control_c, 0, 64, 76
1, 613588, Control_c, 0, 64, 49
1, 613600, Note_on_c, 0, 67, 0
1, 613600, Poly_aftertouch_c, 0, 67, 0
1, 613625, Control_c, 0, 64, 21
1, 613643, Control_c, 0, 64, 42
1, 613662, Control_c, 0, 64, 61
1, 613680, Control_c, 0, 64, 76
1, 613699, Control_c, 0, 64, 87
1, 613720, Control_c, 0, 64, 97
1, 613737, Control_c, 0, 64, 106
1, 613756, Control_c, 0, 64, 112
1, 613766, Note_on_c, 0, 52, 0
1, 613766, Poly_aftertouch_c, 0, 52, 0
1, 613774, Control_c, 0, 64, 116
1, 613783, Poly_aftertouch_c, 0, 62, 24
1, 613811, Control_c, 0, 64, 121
1, 613839, Note_on_c, 0, 62, 0
1, 613839, Poly_aftertouch_c, 0, 62, 0
1, 613906, Control_c, 0, 64, 125
1, 614223, Control_c, 0, 64, 121
1, 614250, Note_on_c, 0, 66, 0
1, 614250, Note_on_c, 0, 43, 36
1, 614263, Note_on_c, 0, 58, 30
1, 614264, Note_on_c, 0, 67, 40
1, 614274, Note_on_c, 0, 64, 37
1, 614278, Control_c, 0, 64, 114
1, 614286, Note_on_c, 0, 50, 35
1, 614298, Control_c, 0, 64, 108
1, 614316, Control_c, 0, 64, 96
1, 614336, Control_c, 0, 64, 78
1, 614354, Control_c, 0, 64, 54
1, 614372, Control_c, 0, 64, 0
1, 614448, Control_c, 0, 64, 18
1, 614466, Control_c, 0, 64, 43
1, 614485, Control_c, 0, 64, 61
1, 614503, Control_c, 0, 64, 73
1, 614523, Control_c, 0, 64, 78
1, 614541, Control_c, 0, 64, 81
1, 614548, Note_on_c, 0, 50, 0
1, 614548, Poly_aftertouch_c, 0, 50, 0
1, 614559, Control_c, 0, 64, 83
1, 614579, Control_c, 0, 64, 86
1, 614616, Control_c, 0, 64, 91
1, 614642, Note_on_c, 0, 64, 0
1, 614642, Poly_aftertouch_c, 0, 64, 0
1, 614654, Control_c, 0, 64, 96
1, 614672, Control_c, 0, 64, 100
1, 614690, Control_c, 0, 64, 104
1, 614703, Note_on_c, 0, 58, 0
1, 614703, Poly_aftertouch_c, 0, 58, 0
1, 614708, Control_c, 0, 64, 108
1, 614726, Note_on_c, 0, 67, 0
1, 614726, Poly_aftertouch_c, 0, 67, 0
1, 614747, Control_c, 0, 64, 113
1, 614816, Poly_aftertouch_c, 0, 43, 24
1, 614860, Control_c, 0, 64, 117
1, 615077, Poly_aftertouch_c, 0, 43, 22
1, 615083, Control_c, 0, 64, 121
1, 615245, Note_on_c, 0, 43, 0
1, 615245, Poly_aftertouch_c, 0, 43, 0
1, 615367, Note_on_c, 0, 66, 29
1, 615391, Note_on_c, 0, 70, 34
1, 615396, Note_on_c, 0, 62, 23
1, 615397, Note_on_c, 0, 52, 27
1, 615408, Poly_aftertouch_c, 0, 72, 24
1, 615488, Note_on_c, 0, 72, 0
1, 615488, Poly_aftertouch_c, 0, 72, 0
1, 615531, Note_on_c, 0, 52, 0
1, 615531, Poly_aftertouch_c, 0, 52, 0
1, 616188, Note_on_c, 0, 66, 0
1, 616298, Control_c, 0, 64, 117
1, 616454, Note_on_c, 0, 26, 35
1, 616461, Note_on_c, 0, 62, 0
1, 616461, Poly_aftertouch_c, 0, 62, 0
1, 616523, Control_c, 0, 64, 111
1, 616543, Control_c, 0, 64, 104
1, 616561, Control_c, 0, 64, 85
1, 616579, Control_c, 0, 64, 60
1, 616599, Control_c, 0, 64, 54
1, 616617, Control_c, 0, 64, 60
1, 616634, Control_c, 0, 64, 69
1, 616654, Control_c, 0, 64, 77
1, 616673, Control_c, 0, 64, 85
1, 616691, Control_c, 0, 64, 94
1, 616710, Control_c, 0, 64, 104
1, 616728, Control_c, 0, 64, 111
1, 616766, Control_c, 0, 64, 117
1, 616803, Control_c, 0, 64, 121
1, 616840, Control_c, 0, 64, 125
1, 616927, Note_on_c, 0, 70, 0
1, 616927, Poly_aftertouch_c, 0, 70, 0
1, 616932, Note_on_c, 0, 57, 26
1, 617124, Note_on_c, 0, 62, 34
1, 617131, Note_on_c, 0, 57, 0
1, 617210, Note_on_c, 0, 62, 0
1, 617210, Poly_aftertouch_c, 0, 62, 0
1, 617272, Note_on_c, 0, 66, 31
1, 617323, Note_on_c, 0, 66, 0
1, 617421, Note_on_c, 0, 69, 44
1, 617482, Note_on_c, 0, 69, 0
1, 617482, Poly_aftertouch_c, 0, 69, 0
1, 617572, Note_on_c, 0, 74, 10
1, 617728, Note_on_c, 0, 78, 37
1, 617745, Note_on_c, 0, 74, 0
1, 617839, Note_on_c, 0, 78, 0
1, 617907, Note_on_c, 0, 26, 0
1, 618017, Note_on_c, 0, 38, 27
1, 618175, Note_on_c, 0, 86, 56
1, 618235, Note_on_c, 0, 38, 0
1, 618235, Poly_aftertouch_c, 0, 38, 0
1, 618695, Poly_aftertouch_c, 0, 86, 24
1, 618742, Note_on_c, 0, 88, 55
1, 618764, Note_on_c, 0, 45, 30
1, 618784, Note_on_c, 0, 86, 0
1, 618784, Poly_aftertouch_c, 0, 86, 0
1, 618854, Note_on_c, 0, 45, 0
1, 618854, Poly_aftertouch_c, 0, 45, 0
1, 618860, Note_on_c, 0, 88, 0
1, 619092, Note_on_c, 0, 52, 32
1, 619092, Note_on_c, 0, 86, 43
1, 619122, Note_on_c, 0, 79, 31
1, 619126, Note_on_c, 0, 74, 20
1, 619205, Note_on_c, 0, 74, 0
1, 619207, Note_on_c, 0, 52, 0
1, 619207, Poly_aftertouch_c, 0, 52, 0
1, 619289, Note_on_c, 0, 79, 0
1, 619289, Poly_aftertouch_c, 0, 79, 0
1, 619342, Note_on_c, 0, 45, 35
1, 619345, Note_on_c, 0, 88, 40
1, 619378, Note_on_c, 0, 86, 0
1, 619378, Poly_aftertouch_c, 0, 86, 0
1, 619400, Note_on_c, 0, 45, 0
1, 619400, Poly_aftertouch_c, 0, 45, 0
1, 619491, Note_on_c, 0, 88, 0
1, 619554, Note_on_c, 0, 86, 39
1, 619559, Note_on_c, 0, 81, 36
1, 619579, Note_on_c, 0, 54, 35
1, 619637, Note_on_c, 0, 54, 0
1, 619637, Poly_aftertouch_c, 0, 54, 0
1, 619659, Poly_aftertouch_c, 0, 74, 127
1, 619702, Poly_aftertouch_c, 0, 74, 0
1, 619755, Note_on_c, 0, 81, 0
1, 619755, Poly_aftertouch_c, 0, 81, 0
1, 619757, Note_on_c, 0, 50, 39
1, 619761, Note_on_c, 0, 88, 48
1, 619778, Note_on_c, 0, 86, 0
1, 619778, Poly_aftertouch_c, 0, 86, 0
1, 619810, Note_on_c, 0, 50, 0
1, 619810, Poly_aftertouch_c, 0, 50, 0
1, 619823, Note_on_c, 0, 88, 0
1, 619935, Note_on_c, 0, 81, 44
1, 619947, Note_on_c, 0, 86, 32
1, 619963, Note_on_c, 0, 57, 42
1, 619984, Note_on_c, 0, 74, 14
1, 620003, Note_on_c, 0, 57, 0
1, 620048, Note_on_c, 0, 81, 0
1, 620048, Poly_aftertouch_c, 0, 81, 0
1, 620060, Note_on_c, 0, 74, 0
1, 620125, Note_on_c, 0, 88, 40
1, 620128, Note_on_c, 0, 54, 38
1, 620134, Note_on_c, 0, 86, 0
1, 620134, Poly_aftertouch_c, 0, 86, 0
1, 620186, Note_on_c, 0, 54, 0
1, 620186, Poly_aftertouch_c, 0, 54, 0
1, 620240, Note_on_c, 0, 88, 0
1, 620269, Note_on_c, 0, 83, 52
1, 620274, Note_on_c, 0, 86, 38
1, 620286, Note_on_c, 0, 59, 43
1, 620338, Note_on_c, 0, 59, 0
1, 620371, Poly_aftertouch_c, 0, 74, 0
1, 620392, Note_on_c, 0, 83, 0
1, 620437, Note_on_c, 0, 88, 46
1, 620448, Note_on_c, 0, 52, 41
1, 620477, Note_on_c, 0, 86, 0
1, 620477, Poly_aftertouch_c, 0, 86, 0
1, 620478, Poly_aftertouch_c, 0, 86, 0
1, 620524, Note_on_c, 0, 52, 0
1, 620524, Poly_aftertouch_c, 0, 52, 0
1, 620561, Note_on_c, 0, 88, 0
1, 620601, Note_on_c, 0, 81, 38
1, 620604, Note_on_c, 0, 57, 40
1, 620606, Note_on_c, 0, 86, 46
1, 620669, Poly_aftertouch_c, 0, 74, 127
1, 620694, Note_on_c, 0, 57, 0
1, 620714, Poly_aftertouch_c, 0, 74, 0
1, 620717, Note_on_c, 0, 81, 0
1, 620717, Poly_aftertouch_c, 0, 81, 0
1, 620738, Note_on_c, 0, 86, 0
1, 620752, Note_on_c, 0, 88, 53
1, 620773, Note_on_c, 0, 54, 39
1, 620820, Note_on_c, 0, 54, 0
1, 620820, Poly_aftertouch_c, 0, 54, 0
1, 620903, Note_on_c, 0, 88, 0
1, 620929, Note_on_c, 0, 81, 45
1, 620946, Note_on_c, 0, 62, 38
1, 620950, Note_on_c, 0, 86, 34
1, 621005, Note_on_c, 0, 62, 0
1, 621005, Poly_aftertouch_c, 0, 62, 0
1, 621015, Note_on_c, 0, 81, 0
1, 621015, Poly_aftertouch_c, 0, 81, 0
1, 621081, Note_on_c, 0, 88, 54
1, 621092, Note_on_c, 0, 54, 44
1, 621093, Note_on_c, 0, 86, 0
1, 621133, Note_on_c, 0, 54, 0
1, 621133, Poly_aftertouch_c, 0, 54, 0
1, 621174, Note_on_c, 0, 88, 0
1, 621259, Note_on_c, 0, 64, 38
1, 621267, Note_on_c, 0, 86, 32
1, 621279, Note_on_c, 0, 79, 36
1, 621320, Note_on_c, 0, 64, 0
1, 621320, Poly_aftertouch_c, 0, 64, 0
1, 621357, Poly_aftertouch_c, 0, 74, 0
1, 621362, Note_on_c, 0, 79, 0
1, 621362, Poly_aftertouch_c, 0, 79, 0
1, 621421, Note_on_c, 0, 57, 38
1, 621446, Note_on_c, 0, 86, 0
1, 621458, Note_on_c, 0, 88, 18
1, 621462, Note_on_c, 0, 57, 0
1, 621551, Note_on_c, 0, 88, 0
1, 621586, Note_on_c, 0, 86, 36
1, 621608, Note_on_c, 0, 81, 43
1, 621619, Note_on_c, 0, 66, 33
1, 621673, Note_on_c, 0, 66, 0
1, 621694, Poly_aftertouch_c, 0, 74, 0
1, 621713, Note_on_c, 0, 81, 0
1, 621713, Poly_aftertouch_c, 0, 81, 0
1, 621774, Note_on_c, 0, 62, 35
1, 621778, Note_on_c, 0, 86, 0
1, 621778, Note_on_c, 0, 88, 45
1, 621826, Note_on_c, 0, 62, 0
1, 621826, Poly_aftertouch_c, 0, 62, 0
1, 621870, Note_on_c, 0, 88, 0
1, 621955, Note_on_c, 0, 81, 43
1, 621964, Note_on_c, 0, 86, 29
1, 621971, Note_on_c, 0, 69, 41
1, 622031, Note_on_c, 0, 81, 0
1, 622031, Poly_aftertouch_c, 0, 81, 0
1, 622045, Note_on_c, 0, 69, 0
1, 622045, Poly_aftertouch_c, 0, 69, 0
1, 622053, Poly_aftertouch_c, 0, 74, 127
1, 622085, Poly_aftertouch_c, 0, 74, 0
1, 622109, Note_on_c, 0, 86, 0
1, 622119, Note_on_c, 0, 88, 45
1, 622144, Note_on_c, 0, 66, 42
1, 622204, Note_on_c, 0, 66, 0
1, 622284, Note_on_c, 0, 88, 0
1, 622299, Note_on_c, 0, 83, 49
1, 622302, Note_on_c, 0, 86, 38
1, 622328, Note_on_c, 0, 71, 40
1, 622408, Note_on_c, 0, 83, 0
1, 622427, Note_on_c, 0, 71, 0
1, 622468, Note_on_c, 0, 86, 0
1, 622475, Note_on_c, 0, 88, 50
1, 622504, Note_on_c, 0, 64, 37
1, 622546, Note_on_c, 0, 64, 0
1, 622546, Poly_aftertouch_c, 0, 64, 0
1, 622667, Note_on_c, 0, 88, 0
1, 622689, Note_on_c, 0, 86, 33
1, 622726, Note_on_c, 0, 74, 47
1, 622746, Note_on_c, 0, 81, 30
1, 622882, Note_on_c, 0, 74, 0
1, 622884, Note_on_c, 0, 81, 0
1, 622884, Poly_aftertouch_c, 0, 81, 0
1, 622947, Note_on_c, 0, 86, 0
1, 622956, Note_on_c, 0, 88, 48
1, 622991, Note_on_c, 0, 66, 23
1, 623081, Note_on_c, 0, 66, 0
1, 623293, Note_on_c, 0, 88, 0
1, 623358, Note_on_c, 0, 86, 35
1, 623393, Note_on_c, 0, 78, 22
1, 623393, Note_on_c, 0, 81, 36
1, 623407, Note_on_c, 0, 74, 31
1, 623423, Control_c, 0, 64, 120
1, 623441, Control_c, 0, 64, 116
1, 623460, Control_c, 0, 64, 110
1, 623479, Control_c, 0, 64, 96
1, 623497, Control_c, 0, 64, 69
1, 623516, Control_c, 0, 64, 47
1, 623555, Control_c, 0, 64, 53
1, 623572, Control_c, 0, 64, 65
1, 623591, Control_c, 0, 64, 79
1, 623610, Control_c, 0, 64, 92
1, 623628, Control_c, 0, 64, 109
1, 623648, Control_c, 0, 64, 122
1, 623684, Control_c, 0, 64, 126
1, 623764, Note_on_c, 0, 78, 0
1, 623832, Poly_aftertouch_c, 0, 86, 24
1, 623858, Note_on_c, 0, 86, 0
1, 623858, Poly_aftertouch_c, 0, 86, 0
1, 623926, Note_on_c, 0, 88, 41
1, 624181, Note_on_c, 0, 69, 30
1, 624235, Note_on_c, 0, 69, 0
1, 624235, Poly_aftertouch_c, 0, 69, 0
1, 624421, Note_on_c, 0, 88, 0
1, 624429, Note_on_c, 0, 86, 42
1, 624573, Poly_aftertouch_c, 0, 74, 24
1, 624636, Note_on_c, 0, 74, 0
1, 624636, Poly_aftertouch_c, 0, 74, 0
1, 624729, Poly_aftertouch_c, 0, 81, 24
1, 624886, Note_on_c, 0, 62, 23
1, 625014, Poly_aftertouch_c, 0, 81, 22
1, 625055, Note_on_c, 0, 81, 0
1, 625055, Poly_aftertouch_c, 0, 81, 0
1, 625824, Poly_aftertouch_c, 0, 86, 24
1, 626031, Poly_aftertouch_c, 0, 62, 24
1, 626058, Note_on_c, 0, 86, 0
1, 626058, Poly_aftertouch_c, 0, 86, 0
1, 626126, Note_on_c, 0, 74, 32
1, 626354, Note_on_c, 0, 74, 0
1, 626354, Poly_aftertouch_c, 0, 74, 0
1, 626381, Poly_aftertouch_c, 0, 62, 22
1, 626453, Note_on_c, 0, 62, 0
1, 626453, Poly_aftertouch_c, 0, 62, 0
1, 627013, Control_c, 0, 64, 122
1, 627517, Control_c, 0, 64, 118
1, 627798, Control_c, 0, 64, 114
1, 627931, Control_c, 0, 64, 109
1, 627948, Control_c, 0, 67, 120
1, 628059, Control_c, 0, 64, 105
1, 628098, Control_c, 0, 67, 116
1, 628229, Control_c, 0, 67, 112
1, 628247, Control_c, 0, 64, 101
1, 628340, Control_c, 0, 67, 108
1, 628434, Control_c, 0, 64, 97
1, 628472, Control_c, 0, 67, 103
1, 628547, Control_c, 0, 67, 99
1, 628585, Control_c, 0, 64, 93
1, 628621, Control_c, 0, 67, 95
1, 628676, Control_c, 0, 67, 90
1, 628696, Control_c, 0, 64, 89
1, 628733, Control_c, 0, 67, 85
1, 628751, Control_c, 0, 64, 87
1, 628788, Control_c, 0, 67, 81
1, 628808, Control_c, 0, 64, 85
1, 628846, Control_c, 0, 67, 77
1, 628863, Control_c, 0, 64, 83
1, 628901, Control_c, 0, 67, 73
1, 628920, Control_c, 0, 64, 81
1, 628960, Control_c, 0, 67, 68
1, 628976, Control_c, 0, 64, 79
1, 629014, Control_c, 0, 64, 77
1, 629016, Control_c, 0, 67, 62
1, 629070, Control_c, 0, 67, 58
1, 629088, Control_c, 0, 64, 74
1, 629108, Control_c, 0, 67, 53
1, 629145, Control_c, 0, 64, 72
1, 629163, Control_c, 0, 67, 48
1, 629200, Control_c, 0, 64, 70
1, 629201, Control_c, 0, 67, 44
1, 629238, Control_c, 0, 64, 67
1, 629239, Control_c, 0, 67, 39
1, 629257, Control_c, 0, 64, 66
1, 629275, Control_c, 0, 64, 64
1, 629276, Control_c, 0, 67, 34
1, 629294, Control_c, 0, 64, 62
1, 629314, Control_c, 0, 64, 61
1, 629315, Control_c, 0, 67, 30
1, 629350, Control_c, 0, 67, 25
1, 629389, Control_c, 0, 64, 63
1, 629391, Control_c, 0, 67, 19
1, 629406, Control_c, 0, 64, 65
1, 629425, Control_c, 0, 64, 66
1, 629426, Control_c, 0, 67, 12
1, 629444, Control_c, 0, 64, 67
1, 629462, Control_c, 0, 64, 69
1, 629462, Control_c, 0, 67, 8
1, 629480, Control_c, 0, 64, 71
1, 629500, Control_c, 0, 64, 74
1, 629518, Control_c, 0, 64, 76
1, 629556, Control_c, 0, 64, 79
1, 629593, Control_c, 0, 64, 83
1, 629612, Control_c, 0, 64, 85
1, 629630, Control_c, 0, 64, 87
1, 629667, Control_c, 0, 64, 94
1, 629687, Control_c, 0, 64, 98
1, 629688, Control_c, 0, 67, 0
1, 629705, Control_c, 0, 64, 102
1, 629742, Control_c, 0, 64, 110
1, 629762, Control_c, 0, 64, 114
1, 629799, Control_c, 0, 64, 121
1, 629837, Control_c, 0, 64, 127
1, 630180, Note_on_c, 0, 67, 76
1, 630207, Note_on_c, 0, 52, 52
1, 630208, Note_on_c, 0, 59, 50
1, 630211, Note_on_c, 0, 64, 50
1, 630447, Note_on_c, 0, 52, 0
1, 630447, Poly_aftertouch_c, 0, 52, 0
1, 630492, Note_on_c, 0, 59, 0
1, 630510, Note_on_c, 0, 64, 0
1, 630510, Poly_aftertouch_c, 0, 64, 0
1, 630824, Note_on_c, 0, 67, 0
1, 630824, Poly_aftertouch_c, 0, 67, 0
1, 630896, Note_on_c, 0, 69, 80
1, 630926, Note_on_c, 0, 64, 54
1, 630929, Note_on_c, 0, 60, 54
1, 630931, Note_on_c, 0, 40, 56
1, 630969, Note_on_c, 0, 40, 0
1, 630969, Poly_aftertouch_c, 0, 40, 0
1, 631070, Note_on_c, 0, 60, 0
1, 631070, Poly_aftertouch_c, 0, 60, 0
1, 631086, Note_on_c, 0, 64, 0
1, 631086, Poly_aftertouch_c, 0, 64, 0
1, 631335, Note_on_c, 0, 45, 59
1, 631340, Note_on_c, 0, 33, 56
1, 631369, Control_c, 0, 64, 120
1, 631373, Note_on_c, 0, 69, 0
1, 631373, Poly_aftertouch_c, 0, 69, 0
1, 631376, Note_on_c, 0, 67, 77
1, 631389, Control_c, 0, 64, 91
1, 631404, Note_on_c, 0, 64, 53
1, 631406, Control_c, 0, 64, 55
1, 631417, Note_on_c, 0, 62, 48
1, 631424, Control_c, 0, 64, 0
1, 631452, Note_on_c, 0, 64, 0
1, 631452, Poly_aftertouch_c, 0, 64, 0
1, 631464, Control_c, 0, 64, 40
1, 631465, Note_on_c, 0, 62, 0
1, 631465, Poly_aftertouch_c, 0, 62, 0
1, 631481, Note_on_c, 0, 67, 0
1, 631481, Poly_aftertouch_c, 0, 67, 0
1, 631482, Control_c, 0, 64, 73
1, 631500, Control_c, 0, 64, 97
1, 631519, Control_c, 0, 64, 127
1, 631526, Note_on_c, 0, 33, 0
1, 631582, Note_on_c, 0, 45, 0
1, 631582, Poly_aftertouch_c, 0, 45, 0
1, 631981, Note_on_c, 0, 88, 59
1, 632202, Note_on_c, 0, 88, 0
1, 632301, Note_on_c, 0, 76, 43
1, 632313, Note_on_c, 0, 59, 40
1, 632338, Note_on_c, 0, 76, 0
1, 632338, Poly_aftertouch_c, 0, 76, 0
1, 632404, Note_on_c, 0, 59, 0
1, 632619, Note_on_c, 0, 76, 42
1, 632645, Note_on_c, 0, 64, 29
1, 632700, Note_on_c, 0, 64, 0
1, 632700, Poly_aftertouch_c, 0, 64, 0
1, 632965, Note_on_c, 0, 83, 54
1, 632968, Note_on_c, 0, 76, 0
1, 632968, Poly_aftertouch_c, 0, 76, 0
1, 632992, Note_on_c, 0, 83, 0
1, 633463, Note_on_c, 0, 71, 77
1, 633486, Note_on_c, 0, 60, 52
1, 633491, Note_on_c, 0, 64, 53
1, 633645, Note_on_c, 0, 60, 0
1, 633645, Poly_aftertouch_c, 0, 60, 0
1, 633648, Note_on_c, 0, 71, 0
1, 633730, Note_on_c, 0, 64, 0
1, 633730, Poly_aftertouch_c, 0, 64, 0
1, 633825, Note_on_c, 0, 67, 80
1, 633842, Note_on_c, 0, 71, 47
1, 633843, Note_on_c, 0, 62, 56
1, 633851, Note_on_c, 0, 64, 38
1, 633933, Note_on_c, 0, 64, 0
1, 633933, Poly_aftertouch_c, 0, 64, 0
1, 633934, Note_on_c, 0, 67, 0
1, 633934, Poly_aftertouch_c, 0, 67, 0
1, 634004, Note_on_c, 0, 62, 0
1, 634004, Poly_aftertouch_c, 0, 62, 0
1, 634022, Poly_aftertouch_c, 0, 62, 0
1, 634141, Note_on_c, 0, 76, 57
1, 634147, Note_on_c, 0, 71, 0
1, 634167, Note_on_c, 0, 76, 0
1, 634167, Poly_aftertouch_c, 0, 76, 0
1, 634467, Note_on_c, 0, 69, 75
1, 634504, Note_on_c, 0, 64, 45
1, 634505, Note_on_c, 0, 60, 50
1, 634612, Note_on_c, 0, 64, 0
1, 634612, Poly_aftertouch_c, 0, 64, 0
1, 634644, Note_on_c, 0, 60, 0
1, 634644, Poly_aftertouch_c, 0, 60, 0
1, 634779, Note_on_c, 0, 50, 51
1, 634841, Note_on_c, 0, 66, 70
1, 634858, Note_on_c, 0, 64, 48
1, 634861, Note_on_c, 0, 69, 0
1, 634861, Poly_aftertouch_c, 0, 69, 0
1, 634866, Control_c, 0, 64, 118
1, 634875, Note_on_c, 0, 59, 41
1, 634885, Control_c, 0, 64, 95
1, 634904, Control_c, 0, 64, 63
1, 634922, Control_c, 0, 64, 0
1, 635016, Control_c, 0, 64, 15
1, 635035, Control_c, 0, 64, 70
1, 635053, Control_c, 0, 64, 104
1, 635072, Control_c, 0, 64, 127
1, 635204, Note_on_c, 0, 71, 47
1, 635205, Note_on_c, 0, 59, 0
1, 635228, Note_on_c, 0, 64, 0
1, 635228, Poly_aftertouch_c, 0, 64, 0
1, 635238, Note_on_c, 0, 71, 0
1, 635240, Note_on_c, 0, 66, 0
1, 635290, Note_on_c, 0, 50, 0
1, 635290, Poly_aftertouch_c, 0, 50, 0
1, 635325, Note_on_c, 0, 54, 51
1, 635377, Note_on_c, 0, 54, 0
1, 635377, Poly_aftertouch_c, 0, 54, 0
1, 635413, Note_on_c, 0, 60, 57
1, 635446, Note_on_c, 0, 62, 58
1, 635533, Note_on_c, 0, 69, 77
1, 635542, Note_on_c, 0, 60, 0
1, 635542, Poly_aftertouch_c, 0, 60, 0
1, 635644, Note_on_c, 0, 62, 0
1, 635685, Note_on_c, 0, 31, 65
1, 635755, Note_on_c, 0, 31, 0
1, 635812, Note_on_c, 0, 43, 58
1, 635893, Note_on_c, 0, 43, 0
1, 635893, Poly_aftertouch_c, 0, 43, 0
1, 636087, Note_on_c, 0, 66, 69
1, 636101, Note_on_c, 0, 64, 57
1, 636105, Note_on_c, 0, 69, 0
1, 636105, Poly_aftertouch_c, 0, 69, 0
1, 636121, Note_on_c, 0, 50, 44
1, 636127, Note_on_c, 0, 59, 39
1, 636138, Control_c, 0, 64, 110
1, 636157, Control_c, 0, 64, 59
1, 636175, Control_c, 0, 64, 0
1, 636232, Control_c, 0, 64, 54
1, 636249, Control_c, 0, 64, 81
1, 636269, Control_c, 0, 64, 106
1, 636282, Note_on_c, 0, 59, 0
1, 636287, Control_c, 0, 64, 127
1, 636305, Note_on_c, 0, 64, 0
1, 636305, Poly_aftertouch_c, 0, 64, 0
1, 636331, Note_on_c, 0, 66, 0
1, 636396, Note_on_c, 0, 50, 0
1, 636396, Poly_aftertouch_c, 0, 50, 0
1, 636738, Note_on_c, 0, 88, 45
1, 636954, Note_on_c, 0, 88, 0
1, 637052, Note_on_c, 0, 76, 46
1, 637080, Note_on_c, 0, 59, 37
1, 637112, Note_on_c, 0, 76, 0
1, 637112, Poly_aftertouch_c, 0, 76, 0
1, 637180, Note_on_c, 0, 59, 0
1, 637392, Note_on_c, 0, 76, 43
1, 637398, Note_on_c, 0, 64, 33
1, 637466, Note_on_c, 0, 64, 0
1, 637466, Poly_aftertouch_c, 0, 64, 0
1, 637746, Note_on_c, 0, 83, 48
1, 637753, Note_on_c, 0, 76, 0
1, 637753, Poly_aftertouch_c, 0, 76, 0
1, 637835, Note_on_c, 0, 83, 0
1, 638170, Note_on_c, 0, 69, 69
1, 638204, Note_on_c, 0, 59, 47
1, 638220, Note_on_c, 0, 62, 41
1, 638326, Note_on_c, 0, 69, 0
1, 638326, Poly_aftertouch_c, 0, 69, 0
1, 638369, Note_on_c, 0, 59, 0
1, 638470, Note_on_c, 0, 62, 0
1, 638565, Note_on_c, 0, 66, 73
1, 638587, Note_on_c, 0, 60, 52
1, 638587, Note_on_c, 0, 71, 45
1, 638634, Note_on_c, 0, 64, 15
1, 638727, Note_on_c, 0, 64, 0
1, 638727, Poly_aftertouch_c, 0, 64, 0
1, 638739, Note_on_c, 0, 66, 0
1, 638747, Note_on_c, 0, 60, 0
1, 638747, Poly_aftertouch_c, 0, 60, 0
1, 638867, Note_on_c, 0, 76, 61
1, 638877, Note_on_c, 0, 71, 0
1, 638906, Note_on_c, 0, 76, 0
1, 638906, Poly_aftertouch_c, 0, 76, 0
1, 639250, Note_on_c, 0, 67, 73
1, 639273, Note_on_c, 0, 57, 57
1, 639281, Note_on_c, 0, 60, 56
1, 639392, Note_on_c, 0, 57, 0
1, 639486, Note_on_c, 0, 60, 0
1, 639486, Poly_aftertouch_c, 0, 60, 0
1, 639546, Note_on_c, 0, 48, 50
1, 639601, Note_on_c, 0, 64, 75
1, 639625, Note_on_c, 0, 62, 52
1, 639627, Note_on_c, 0, 59, 48
1, 639633, Control_c, 0, 64, 105
1, 639654, Control_c, 0, 64, 72
1, 639671, Control_c, 0, 64, 30
1, 639680, Note_on_c, 0, 67, 0
1, 639680, Poly_aftertouch_c, 0, 67, 0
1, 639690, Control_c, 0, 64, 0
1, 639727, Control_c, 0, 64, 28
1, 639747, Control_c, 0, 64, 62
1, 639765, Control_c, 0, 64, 87
1, 639784, Control_c, 0, 64, 117
1, 639786, Note_on_c, 0, 62, 0
1, 639798, Note_on_c, 0, 64, 0
1, 639798, Poly_aftertouch_c, 0, 64, 0
1, 639802, Control_c, 0, 64, 127
1, 639929, Note_on_c, 0, 71, 47
1, 639942, Note_on_c, 0, 59, 0
1, 639964, Note_on_c, 0, 71, 0
1, 639983, Note_on_c, 0, 48, 0
1, 639983, Poly_aftertouch_c, 0, 48, 0
1, 640091, Note_on_c, 0, 52, 48
1, 640132, Note_on_c, 0, 52, 0
1, 640132, Poly_aftertouch_c, 0, 52, 0
1, 640195, Note_on_c, 0, 55, 46
1, 640236, Note_on_c, 0, 60, 65
1, 640289, Note_on_c, 0, 55, 0
1, 640289, Poly_aftertouch_c, 0, 55, 0
1, 640310, Poly_aftertouch_c, 0, 57, 127
1, 640327, Note_on_c, 0, 67, 80
1, 640327, Poly_aftertouch_c, 0, 57, 0
1, 640544, Note_on_c, 0, 60, 0
1, 640544, Poly_aftertouch_c, 0, 60, 0
1, 640759, Note_on_c, 0, 67, 0
1, 640759, Poly_aftertouch_c, 0, 67, 0
1, 640805, Note_on_c, 0, 42, 46
1, 640805, Note_on_c, 0, 30, 48
1, 640831, Control_c, 0, 64, 106
1, 640846, Note_on_c, 0, 64, 69
1, 640848, Control_c, 0, 64, 74
1, 640867, Control_c, 0, 64, 30
1, 640869, Note_on_c, 0, 62, 50
1, 640873, Note_on_c, 0, 59, 46
1, 640887, Control_c, 0, 64, 0
1, 640924, Control_c, 0, 64, 14
1, 640943, Control_c, 0, 64, 61
1, 640947, Note_on_c, 0, 59, 0
1, 640962, Control_c, 0, 64, 97
1, 640966, Note_on_c, 0, 62, 0
1, 640980, Control_c, 0, 64, 127
1, 640986, Note_on_c, 0, 64, 0
1, 640986, Poly_aftertouch_c, 0, 64, 0
1, 640999, Note_on_c, 0, 30, 0
1, 641045, Note_on_c, 0, 42, 0
1, 641045, Poly_aftertouch_c, 0, 42, 0
1, 641412, Note_on_c, 0, 88, 49
1, 641659, Note_on_c, 0, 88, 0
1, 641733, Note_on_c, 0, 76, 51
1, 641755, Note_on_c, 0, 59, 35
1, 641786, Note_on_c, 0, 76, 0
1, 641786, Poly_aftertouch_c, 0, 76, 0
1, 641904, Note_on_c, 0, 59, 0
1, 642067, Note_on_c, 0, 76, 43
1, 642079, Note_on_c, 0, 64, 33
1, 642141, Note_on_c, 0, 64, 0
1, 642141, Poly_aftertouch_c, 0, 64, 0
1, 642404, Note_on_c, 0, 83, 53
1, 642465, Note_on_c, 0, 76, 0
1, 642465, Poly_aftertouch_c, 0, 76, 0
1, 642542, Note_on_c, 0, 83, 0
1, 642737, Note_on_c, 0, 67, 72
1, 642766, Note_on_c, 0, 57, 52
1, 642776, Note_on_c, 0, 60, 48
1, 642925, Note_on_c, 0, 67, 0
1, 642925, Poly_aftertouch_c, 0, 67, 0
1, 642963, Note_on_c, 0, 60, 0
1, 642963, Poly_aftertouch_c, 0, 60, 0
1, 642984, Note_on_c, 0, 57, 0
1, 643138, Note_on_c, 0, 64, 75
1, 643148, Note_on_c, 0, 59, 59
1, 643151, Note_on_c, 0, 71, 46
1, 643153, Note_on_c, 0, 62, 52
1, 643260, Note_on_c, 0, 64, 0
1, 643260, Poly_aftertouch_c, 0, 64, 0
1, 643282, Note_on_c, 0, 59, 0
1, 643298, Note_on_c, 0, 62, 0
1, 643398, Note_on_c, 0, 76, 54
1, 643401, Note_on_c, 0, 71, 0
1, 643426, Note_on_c, 0, 76, 0
1, 643426, Poly_aftertouch_c, 0, 76, 0
1, 643737, Note_on_c, 0, 66, 80
1, 643776, Note_on_c, 0, 60, 48
1, 643782, Note_on_c, 0, 57, 39
1, 643969, Note_on_c, 0, 57, 0
1, 644017, Note_on_c, 0, 47, 61
1, 644032, Note_on_c, 0, 60, 0
1, 644032, Poly_aftertouch_c, 0, 60, 0
1, 644139, Note_on_c, 0, 57, 50
1, 644139, Note_on_c, 0, 63, 78
1, 644140, Control_c, 0, 64, 122
1, 644159, Control_c, 0, 64, 82
1, 644179, Control_c, 0, 64, 10
1, 644196, Control_c, 0, 64, 0
1, 644216, Note_on_c, 0, 66, 0
1, 644252, Control_c, 0, 64, 39
1, 644272, Control_c, 0, 64, 72
1, 644290, Control_c, 0, 64, 102
1, 644308, Control_c, 0, 64, 127
1, 644362, Note_on_c, 0, 57, 0
1, 644576, Note_on_c, 0, 47, 0
1, 644594, Note_on_c, 0, 71, 59
1, 644656, Note_on_c, 0, 63, 0
1, 644656, Poly_aftertouch_c, 0, 63, 0
1, 644724, Note_on_c, 0, 56, 64
1, 644749, Note_on_c, 0, 48, 49
1, 644785, Note_on_c, 0, 56, 0
1, 644785, Poly_aftertouch_c, 0, 56, 0
1, 644791, Note_on_c, 0, 48, 0
1, 644791, Poly_aftertouch_c, 0, 48, 0
1, 644813, Note_on_c, 0, 71, 0
1, 644843, Note_on_c, 0, 64, 81
1, 644881, Note_on_c, 0, 59, 49
1, 644909, Note_on_c, 0, 64, 0
1, 644909, Poly_aftertouch_c, 0, 64, 0
1, 644916, Note_on_c, 0, 59, 0
1, 645007, Note_on_c, 0, 40, 70
1, 645278, Note_on_c, 0, 49, 71
1, 645325, Note_on_c, 0, 66, 78
1, 645338, Control_c, 0, 64, 122
1, 645345, Note_on_c, 0, 63, 64
1, 645350, Note_on_c, 0, 58, 56
1, 645356, Control_c, 0, 64, 100
1, 645375, Control_c, 0, 64, 75
1, 645393, Control_c, 0, 64, 55
1, 645413, Control_c, 0, 64, 52
1, 645431, Control_c, 0, 64, 66
1, 645449, Control_c, 0, 64, 87
1, 645469, Control_c, 0, 64, 115
1, 645487, Control_c, 0, 64, 127
1, 645489, Poly_aftertouch_c, 0, 55, 127
1, 645493, Note_on_c, 0, 58, 0
1, 645493, Poly_aftertouch_c, 0, 58, 0
1, 645503, Poly_aftertouch_c, 0, 55, 0
1, 645516, Note_on_c, 0, 63, 0
1, 645516, Poly_aftertouch_c, 0, 63, 0
1, 645575, Note_on_c, 0, 66, 0
1, 645646, Note_on_c, 0, 40, 0
1, 645646, Poly_aftertouch_c, 0, 40, 0
1, 645747, Note_on_c, 0, 67, 76
1, 645769, Note_on_c, 0, 64, 54
1, 645882, Note_on_c, 0, 64, 0
1, 645882, Poly_aftertouch_c, 0, 64, 0
1, 645894, Note_on_c, 0, 67, 0
1, 645894, Poly_aftertouch_c, 0, 67, 0
1, 645901, Note_on_c, 0, 49, 0
1, 645901, Poly_aftertouch_c, 0, 49, 0
1, 645929, Note_on_c, 0, 55, 60
1, 646021, Note_on_c, 0, 70, 80
1, 646053, Note_on_c, 0, 66, 49
1, 646089, Note_on_c, 0, 66, 0
1, 646116, Note_on_c, 0, 70, 0
1, 646116, Poly_aftertouch_c, 0, 70, 0
1, 646235, Note_on_c, 0, 55, 0
1, 646268, Note_on_c, 0, 75, 79
1, 646281, Note_on_c, 0, 67, 59
1, 646420, Note_on_c, 0, 61, 61
1, 646522, Note_on_c, 0, 75, 0
1, 646522, Poly_aftertouch_c, 0, 75, 0
1, 646538, Note_on_c, 0, 76, 78
1, 646558, Note_on_c, 0, 70, 63
1, 646638, Note_on_c, 0, 67, 0
1, 646638, Poly_aftertouch_c, 0, 67, 0
1, 646639, Poly_aftertouch_c, 0, 67, 0
1, 646903, Note_on_c, 0, 61, 0
1, 646958, Note_on_c, 0, 64, 56
1, 646971, Note_on_c, 0, 59, 45
1, 647058, Control_c, 0, 64, 122
1, 647092, Note_on_c, 0, 78, 73
1, 647094, Control_c, 0, 64, 114
1, 647114, Control_c, 0, 64, 108
1, 647132, Control_c, 0, 64, 101
1, 647134, Note_on_c, 0, 76, 0
1, 647134, Poly_aftertouch_c, 0, 76, 0
1, 647151, Control_c, 0, 64, 94
1, 647170, Control_c, 0, 64, 81
1, 647188, Control_c, 0, 64, 61
1, 647207, Control_c, 0, 64, 27
1, 647226, Control_c, 0, 64, 0
1, 647263, Control_c, 0, 64, 35
1, 647283, Control_c, 0, 64, 59
1, 647301, Control_c, 0, 64, 77
1, 647320, Control_c, 0, 64, 89
1, 647338, Control_c, 0, 64, 99
1, 647357, Control_c, 0, 64, 107
1, 647375, Control_c, 0, 64, 112
1, 647394, Control_c, 0, 64, 118
1, 647412, Control_c, 0, 64, 124
1, 647491, Note_on_c, 0, 64, 0
1, 647491, Poly_aftertouch_c, 0, 64, 0
1, 647521, Note_on_c, 0, 70, 0
1, 647521, Poly_aftertouch_c, 0, 70, 0
1, 647626, Note_on_c, 0, 61, 48
1, 648060, Poly_aftertouch_c, 0, 61, 24
1, 648069, Note_on_c, 0, 71, 53
1, 648074, Note_on_c, 0, 66, 44
1, 648092, Note_on_c, 0, 61, 0
1, 648092, Poly_aftertouch_c, 0, 61, 0
1, 648099, Note_on_c, 0, 63, 43
1, 648198, Control_c, 0, 64, 109
1, 648217, Control_c, 0, 64, 94
1, 648254, Control_c, 0, 64, 100
1, 648273, Control_c, 0, 64, 109
1, 648292, Control_c, 0, 64, 118
1, 648311, Control_c, 0, 64, 125
1, 648312, Note_on_c, 0, 66, 0
1, 648353, Note_on_c, 0, 63, 0
1, 648353, Poly_aftertouch_c, 0, 63, 0
1, 648415, Note_on_c, 0, 67, 73
1, 648438, Note_on_c, 0, 64, 44
1, 648592, Note_on_c, 0, 64, 0
1, 648592, Note_on_c, 0, 78, 0
1, 648592, Poly_aftertouch_c, 0, 64, 0
1, 648605, Note_on_c, 0, 67, 0
1, 648734, Note_on_c, 0, 69, 80
1, 648753, Note_on_c, 0, 65, 64
1, 648794, Note_on_c, 0, 71, 0
1, 648842, Note_on_c, 0, 65, 0
1, 649079, Note_on_c, 0, 78, 88
1, 649100, Note_on_c, 0, 70, 63
1, 649105, Note_on_c, 0, 66, 66
1, 649171, Control_c, 0, 64, 112
1, 649189, Control_c, 0, 64, 107
1, 649208, Control_c, 0, 64, 114
1, 649226, Control_c, 0, 64, 122
1, 649246, Control_c, 0, 64, 127
1, 649296, Note_on_c, 0, 69, 0
1, 649296, Poly_aftertouch_c, 0, 69, 0
1, 649298, Note_on_c, 0, 66, 0
1, 649351, Note_on_c, 0, 78, 0
1, 649365, Note_on_c, 0, 70, 0
1, 649365, Poly_aftertouch_c, 0, 70, 0
1, 649472, Note_on_c, 0, 79, 89
1, 649477, Note_on_c, 0, 59, 0
1, 649485, Note_on_c, 0, 67, 71
1, 649485, Note_on_c, 0, 71, 73
1, 649487, Control_c, 0, 64, 119
1, 649492, Note_on_c, 0, 64, 63
1, 649508, Control_c, 0, 64, 86
1, 649526, Control_c, 0, 64, 44
1, 649544, Control_c, 0, 64, 0
1, 649582, Control_c, 0, 64, 35
1, 649600, Control_c, 0, 64, 65
1, 649620, Control_c, 0, 64, 88
1, 649639, Control_c, 0, 64, 112
1, 649657, Control_c, 0, 64, 127
1, 649687, Note_on_c, 0, 67, 0
1, 649716, Note_on_c, 0, 79, 0
1, 649716, Note_on_c, 0, 71, 0
1, 649716, Poly_aftertouch_c, 0, 79, 0
1, 649848, Note_on_c, 0, 81, 92
1, 649856, Note_on_c, 0, 64, 0
1, 649856, Note_on_c, 0, 72, 68
1, 649856, Poly_aftertouch_c, 0, 64, 0
1, 649867, Note_on_c, 0, 69, 67
1, 649902, Note_on_c, 0, 69, 0
1, 649902, Poly_aftertouch_c, 0, 69, 0
1, 649907, Note_on_c, 0, 73, 27
1, 649907, Poly_aftertouch_c, 0, 73, 0
1, 649908, Note_on_c, 0, 73, 0
1, 650010, Note_on_c, 0, 81, 0
1, 650010, Poly_aftertouch_c, 0, 81, 0
1, 650135, Note_on_c, 0, 72, 0
1, 650135, Poly_aftertouch_c, 0, 72, 0
1, 650269, Note_on_c, 0, 79, 89
1, 650283, Note_on_c, 0, 67, 68
1, 650283, Note_on_c, 0, 74, 71
1, 650325, Note_on_c, 0, 67, 0
1, 650363, Note_on_c, 0, 74, 0
1, 650363, Poly_aftertouch_c, 0, 74, 0
1, 650557, Note_on_c, 0, 79, 0
1, 650557, Poly_aftertouch_c, 0, 79, 0
1, 650722, Control_c, 0, 64, 114
1, 650727, Note_on_c, 0, 45, 72
1, 650741, Control_c, 0, 64, 107
1, 650759, Control_c, 0, 64, 103
1, 650797, Control_c, 0, 64, 96
1, 650816, Control_c, 0, 64, 92
1, 650834, Control_c, 0, 64, 88
1, 650845, Note_on_c, 0, 79, 86
1, 650853, Control_c, 0, 64, 84
1, 650865, Note_on_c, 0, 76, 69
1, 650869, Note_on_c, 0, 67, 59
1, 650871, Control_c, 0, 64, 78
1, 650891, Control_c, 0, 64, 71
1, 650909, Control_c, 0, 64, 66
1, 650929, Control_c, 0, 64, 59
1, 650946, Control_c, 0, 64, 45
1, 650965, Control_c, 0, 64, 0
1, 651077, Control_c, 0, 64, 51
1, 651097, Control_c, 0, 64, 109
1, 651116, Control_c, 0, 64, 127
1, 651233, Note_on_c, 0, 67, 0
1, 651241, Note_on_c, 0, 79, 0
1, 651241, Poly_aftertouch_c, 0, 79, 0
1, 651299, Note_on_c, 0, 52, 55
1, 651346, Note_on_c, 0, 45, 0
1, 651346, Poly_aftertouch_c, 0, 45, 0
1, 651385, Note_on_c, 0, 76, 0
1, 651385, Poly_aftertouch_c, 0, 76, 0
1, 651443, Note_on_c, 0, 83, 80
1, 651459, Note_on_c, 0, 74, 22
1, 651463, Note_on_c, 0, 71, 58
1, 651551, Note_on_c, 0, 83, 0
1, 651559, Note_on_c, 0, 71, 0
1, 651626, Note_on_c, 0, 52, 0
1, 651626, Poly_aftertouch_c, 0, 52, 0
1, 651634, Note_on_c, 0, 74, 0
1, 651634, Poly_aftertouch_c, 0, 74, 0
1, 651700, Note_on_c, 0, 60, 41
1, 651743, Note_on_c, 0, 60, 0
1, 651743, Poly_aftertouch_c, 0, 60, 0
1, 651779, Note_on_c, 0, 78, 82
1, 651785, Note_on_c, 0, 74, 62
1, 651789, Note_on_c, 0, 66, 66
1, 651963, Note_on_c, 0, 66, 0
1, 651963, Note_on_c, 0, 78, 0
1, 652012, Note_on_c, 0, 74, 0
1, 652012, Poly_aftertouch_c, 0, 74, 0
1, 652279, Note_on_c, 0, 78, 60
1, 652280, Note_on_c, 0, 71, 86
1, 652286, Note_on_c, 0, 66, 49
1, 652489, Note_on_c, 0, 66, 0
1, 652501, Note_on_c, 0, 71, 0
1, 652650, Note_on_c, 0, 78, 0
1, 652818, Note_on_c, 0, 60, 48
1, 652818, Note_on_c, 0, 83, 67
1, 652844, Note_on_c, 0, 71, 39
1, 652850, Note_on_c, 0, 83, 0
1, 652882, Note_on_c, 0, 71, 0
1, 652884, Note_on_c, 0, 60, 0
1, 652884, Poly_aftertouch_c, 0, 60, 0
1, 653152, Note_on_c, 0, 76, 66
1, 653167, Note_on_c, 0, 72, 61
1, 653178, Note_on_c, 0, 52, 49
1, 653181, Note_on_c, 0, 64, 28
1, 653353, Note_on_c, 0, 76, 0
1, 653353, Poly_aftertouch_c, 0, 76, 0
1, 653363, Note_on_c, 0, 72, 0
1, 653363, Poly_aftertouch_c, 0, 72, 0
1, 653365, Note_on_c, 0, 64, 0
1, 653365, Poly_aftertouch_c, 0, 64, 0
1, 653366, Poly_aftertouch_c, 0, 64, 0
1, 653473, Note_on_c, 0, 76, 87
1, 653481, Note_on_c, 0, 64, 70
1, 653498, Note_on_c, 0, 72, 61
1, 653522, Note_on_c, 0, 64, 0
1, 653538, Note_on_c, 0, 72, 0
1, 653538, Poly_aftertouch_c, 0, 72, 0
1, 653599, Note_on_c, 0, 76, 0
1, 653599, Poly_aftertouch_c, 0, 76, 0
1, 653759, Note_on_c, 0, 52, 0
1, 653759, Poly_aftertouch_c, 0, 52, 0
1, 653768, Note_on_c, 0, 83, 74
1, 653778, Note_on_c, 0, 71, 58
1, 653788, Note_on_c, 0, 60, 53
1, 653795, Note_on_c, 0, 83, 0
1, 653806, Note_on_c, 0, 71, 0
1, 653887, Note_on_c, 0, 60, 0
1, 653887, Poly_aftertouch_c, 0, 60, 0
1, 654075, Note_on_c, 0, 69, 81
1, 654087, Note_on_c, 0, 74, 73
1, 654098, Note_on_c, 0, 62, 63
1, 654144, Note_on_c, 0, 62, 0
1, 654183, Note_on_c, 0, 74, 0
1, 654183, Poly_aftertouch_c, 0, 74, 0
1, 654199, Note_on_c, 0, 69, 0
1, 654199, Poly_aftertouch_c, 0, 69, 0
1, 654456, Note_on_c, 0, 67, 80
1, 654461, Control_c, 0, 64, 122
1, 654474, Note_on_c, 0, 76, 73
1, 654480, Control_c, 0, 64, 87
1, 654488, Note_on_c, 0, 57, 53
1, 654499, Note_on_c, 0, 64, 45
1, 654499, Control_c, 0, 64, 40
1, 654516, Note_on_c, 0, 60, 40
1, 654516, Control_c, 0, 64, 0
1, 654555, Control_c, 0, 64, 29
1, 654574, Control_c, 0, 64, 69
1, 654588, Note_on_c, 0, 60, 0
1, 654588, Poly_aftertouch_c, 0, 60, 0
1, 654591, Note_on_c, 0, 64, 0
1, 654594, Control_c, 0, 64, 98
1, 654601, Note_on_c, 0, 57, 0
1, 654605, Poly_aftertouch_c, 0, 72, 127
1, 654611, Note_on_c, 0, 67, 0
1, 654612, Control_c, 0, 64, 127
1, 654630, Poly_aftertouch_c, 0, 72, 0
1, 654660, Note_on_c, 0, 76, 0
1, 654660, Poly_aftertouch_c, 0, 76, 0
1, 654816, Note_on_c, 0, 50, 57
1, 654817, Note_on_c, 0, 81, 57
1, 654846, Note_on_c, 0, 69, 35
1, 654858, Note_on_c, 0, 50, 0
1, 654858, Poly_aftertouch_c, 0, 50, 0
1, 654976, Note_on_c, 0, 81, 0
1, 654976, Poly_aftertouch_c, 0, 81, 0
1, 655029, Note_on_c, 0, 69, 0
1, 655029, Poly_aftertouch_c, 0, 69, 0
1, 655092, Note_on_c, 0, 66, 78
1, 655102, Note_on_c, 0, 78, 80
1, 655113, Note_on_c, 0, 60, 64
1, 655113, Note_on_c, 0, 74, 68
1, 655119, Note_on_c, 0, 66, 0
1, 655124, Note_on_c, 0, 57, 56
1, 655148, Note_on_c, 0, 60, 0
1, 655148, Poly_aftertouch_c, 0, 60, 0
1, 655157, Note_on_c, 0, 57, 0
1, 655191, Note_on_c, 0, 74, 0
1, 655191, Poly_aftertouch_c, 0, 74, 0
1, 655211, Note_on_c, 0, 78, 0
1, 655397, Note_on_c, 0, 43, 77
1, 655397, Control_c, 0, 64, 104
1, 655406, Note_on_c, 0, 78, 85
1, 655416, Control_c, 0, 64, 55
1, 655419, Note_on_c, 0, 74, 68
1, 655420, Note_on_c, 0, 66, 70
1, 655434, Control_c, 0, 64, 0
1, 655509, Control_c, 0, 64, 48
1, 655528, Control_c, 0, 64, 87
1, 655547, Control_c, 0, 64, 127
1, 655571, Note_on_c, 0, 66, 0
1, 655607, Note_on_c, 0, 74, 0
1, 655607, Poly_aftertouch_c, 0, 74, 0
1, 655631, Note_on_c, 0, 78, 0
1, 655719, Note_on_c, 0, 83, 83
1, 655730, Note_on_c, 0, 50, 56
1, 655735, Note_on_c, 0, 71, 60
1, 655747, Note_on_c, 0, 83, 0
1, 655758, Note_on_c, 0, 43, 0
1, 655758, Poly_aftertouch_c, 0, 43, 0
1, 655759, Note_on_c, 0, 71, 0
1, 655882, Note_on_c, 0, 50, 0
1, 655882, Poly_aftertouch_c, 0, 50, 0
1, 656019, Note_on_c, 0, 76, 81
1, 656025, Note_on_c, 0, 59, 72
1, 656034, Note_on_c, 0, 72, 67
1, 656035, Note_on_c, 0, 64, 61
1, 656061, Note_on_c, 0, 59, 0
1, 656261, Note_on_c, 0, 76, 0
1, 656261, Poly_aftertouch_c, 0, 76, 0
1, 656265, Note_on_c, 0, 64, 0
1, 656268, Note_on_c, 0, 72, 0
1, 656477, Note_on_c, 0, 69, 83
1, 656491, Note_on_c, 0, 76, 72
1, 656515, Note_on_c, 0, 72, 48
1, 656526, Note_on_c, 0, 64, 37
1, 656671, Note_on_c, 0, 64, 0
1, 656707, Note_on_c, 0, 69, 0
1, 656707, Poly_aftertouch_c, 0, 69, 0
1, 656744, Note_on_c, 0, 72, 0
1, 656808, Note_on_c, 0, 76, 0
1, 656808, Poly_aftertouch_c, 0, 76, 0
1, 657036, Note_on_c, 0, 83, 66
1, 657049, Note_on_c, 0, 59, 45
1, 657053, Note_on_c, 0, 71, 52
1, 657075, Note_on_c, 0, 83, 0
1, 657090, Note_on_c, 0, 71, 0
1, 657265, Note_on_c, 0, 59, 0
1, 657464, Note_on_c, 0, 74, 61
1, 657471, Note_on_c, 0, 71, 52
1, 657473, Note_on_c, 0, 50, 39
1, 657476, Note_on_c, 0, 62, 41
1, 657633, Note_on_c, 0, 62, 0
1, 657643, Note_on_c, 0, 74, 0
1, 657643, Poly_aftertouch_c, 0, 74, 0
1, 657665, Note_on_c, 0, 71, 0
1, 657777, Note_on_c, 0, 74, 72
1, 657782, Note_on_c, 0, 62, 54
1, 657819, Note_on_c, 0, 71, 42
1, 657831, Note_on_c, 0, 62, 0
1, 657865, Note_on_c, 0, 71, 0
1, 657904, Note_on_c, 0, 74, 0
1, 657904, Poly_aftertouch_c, 0, 74, 0
1, 658057, Note_on_c, 0, 83, 68
1, 658062, Note_on_c, 0, 50, 0
1, 658062, Poly_aftertouch_c, 0, 50, 0
1, 658075, Note_on_c, 0, 59, 53
1, 658083, Note_on_c, 0, 71, 34
1, 658087, Note_on_c, 0, 83, 0
1, 658131, Note_on_c, 0, 71, 0
1, 658245, Note_on_c, 0, 59, 0
1, 658376, Note_on_c, 0, 72, 63
1, 658376, Note_on_c, 0, 67, 79
1, 658402, Note_on_c, 0, 60, 40
1, 658467, Note_on_c, 0, 60, 0
1, 658467, Poly_aftertouch_c, 0, 60, 0
1, 658512, Note_on_c, 0, 72, 0
1, 658528, Note_on_c, 0, 67, 0
1, 658755, Note_on_c, 0, 66, 80
1, 658766, Note_on_c, 0, 74, 52
1, 658772, Note_on_c, 0, 62, 43
1, 658781, Control_c, 0, 64, 112
1, 658795, Note_on_c, 0, 57, 53
1, 658799, Control_c, 0, 64, 85
1, 658821, Control_c, 0, 64, 58
1, 658838, Control_c, 0, 64, 34
1, 658875, Control_c, 0, 64, 55
1, 658893, Control_c, 0, 64, 75
1, 658899, Note_on_c, 0, 62, 0
1, 658901, Poly_aftertouch_c, 0, 71, 127
1, 658913, Control_c, 0, 64, 92
1, 658931, Control_c, 0, 64, 115
1, 658949, Control_c, 0, 64, 127
1, 658974, Note_on_c, 0, 74, 0
1, 658974, Poly_aftertouch_c, 0, 74, 0
1, 658983, Poly_aftertouch_c, 0, 71, 0
1, 659055, Note_on_c, 0, 66, 0
1, 659127, Note_on_c, 0, 81, 70
1, 659142, Note_on_c, 0, 60, 47
1, 659150, Note_on_c, 0, 69, 44
1, 659158, Note_on_c, 0, 81, 0
1, 659158, Poly_aftertouch_c, 0, 81, 0
1, 659190, Note_on_c, 0, 69, 0
1, 659190, Poly_aftertouch_c, 0, 69, 0
1, 659411, Note_on_c, 0, 64, 77
1, 659412, Note_on_c, 0, 76, 76
1, 659422, Note_on_c, 0, 72, 61
1, 659431, Poly_aftertouch_c, 0, 60, 22
1, 659443, Note_on_c, 0, 64, 0
1, 659459, Note_on_c, 0, 72, 0
1, 659459, Note_on_c, 0, 60, 0
1, 659459, Poly_aftertouch_c, 0, 60, 0
1, 659470, Note_on_c, 0, 76, 0
1, 659470, Poly_aftertouch_c, 0, 76, 0
1, 659491, Note_on_c, 0, 57, 0
1, 659720, Note_on_c, 0, 76, 84
1, 659730, Note_on_c, 0, 42, 79
1, 659735, Control_c, 0, 64, 109
1, 659742, Note_on_c, 0, 72, 66
1, 659744, Note_on_c, 0, 64, 66
1, 659754, Control_c, 0, 64, 73
1, 659772, Control_c, 0, 64, 21
1, 659792, Control_c, 0, 64, 0
1, 659810, Control_c, 0, 64, 30
1, 659829, Control_c, 0, 64, 77
1, 659848, Control_c, 0, 64, 125
1, 659872, Note_on_c, 0, 64, 0
1, 659918, Note_on_c, 0, 72, 0
1, 659939, Note_on_c, 0, 76, 0
1, 659939, Poly_aftertouch_c, 0, 76, 0
1, 660032, Note_on_c, 0, 42, 0
1, 660032, Poly_aftertouch_c, 0, 42, 0
1, 660037, Note_on_c, 0, 83, 88
1, 660043, Note_on_c, 0, 48, 54
1, 660049, Note_on_c, 0, 71, 69
1, 660066, Note_on_c, 0, 83, 0
1, 660072, Note_on_c, 0, 71, 0
1, 660313, Note_on_c, 0, 48, 0
1, 660313, Poly_aftertouch_c, 0, 48, 0
1, 660348, Note_on_c, 0, 74, 85
1, 660349, Note_on_c, 0, 57, 68
1, 660355, Note_on_c, 0, 62, 78
1, 660358, Note_on_c, 0, 71, 61
1, 660383, Note_on_c, 0, 57, 0
1, 660576, Note_on_c, 0, 62, 0
1, 660589, Note_on_c, 0, 74, 0
1, 660589, Poly_aftertouch_c, 0, 74, 0
1, 660615, Note_on_c, 0, 71, 0
1, 660812, Note_on_c, 0, 74, 63
1, 660813, Note_on_c, 0, 67, 82
1, 660817, Note_on_c, 0, 71, 42
1, 660841, Note_on_c, 0, 62, 34
1, 660896, Note_on_c, 0, 62, 0
1, 661045, Note_on_c, 0, 71, 0
1, 661069, Note_on_c, 0, 74, 0
1, 661069, Poly_aftertouch_c, 0, 74, 0
1, 661186, Note_on_c, 0, 67, 0
1, 661304, Note_on_c, 0, 83, 65
1, 661315, Note_on_c, 0, 57, 50
1, 661328, Note_on_c, 0, 71, 37
1, 661338, Note_on_c, 0, 83, 0
1, 661371, Note_on_c, 0, 71, 0
1, 661592, Note_on_c, 0, 57, 0
1, 661635, Poly_aftertouch_c, 0, 57, 0
1, 661697, Note_on_c, 0, 72, 66
1, 661720, Note_on_c, 0, 52, 41
1, 661724, Note_on_c, 0, 60, 40
1, 661731, Note_on_c, 0, 69, 39
1, 661879, Note_on_c, 0, 72, 0
1, 661896, Note_on_c, 0, 60, 0
1, 661896, Poly_aftertouch_c, 0, 60, 0
1, 661914, Note_on_c, 0, 69, 0
1, 661914, Poly_aftertouch_c, 0, 69, 0
1, 662003, Note_on_c, 0, 72, 70
1, 662019, Note_on_c, 0, 60, 50
1, 662035, Note_on_c, 0, 69, 42
1, 662066, Note_on_c, 0, 60, 0
1, 662066, Poly_aftertouch_c, 0, 60, 0
1, 662104, Note_on_c, 0, 69, 0
1, 662104, Poly_aftertouch_c, 0, 69, 0
1, 662141, Note_on_c, 0, 72, 0
1, 662287, Note_on_c, 0, 76, 66
1, 662302, Note_on_c, 0, 57, 50
1, 662308, Note_on_c, 0, 52, 0
1, 662308, Poly_aftertouch_c, 0, 52, 0
1, 662313, Note_on_c, 0, 64, 29
1, 662320, Note_on_c, 0, 76, 0
1, 662320, Poly_aftertouch_c, 0, 76, 0
1, 662370, Note_on_c, 0, 64, 0
1, 662461, Note_on_c, 0, 57, 0
1, 662587, Note_on_c, 0, 71, 64
1, 662589, Note_on_c, 0, 66, 77
1, 662608, Note_on_c, 0, 59, 34
1, 662651, Note_on_c, 0, 59, 0
1, 662671, Note_on_c, 0, 71, 0
1, 662702, Note_on_c, 0, 66, 0
1, 662967, Note_on_c, 0, 64, 63
1, 662967, Note_on_c, 0, 73, 69
1, 662969, Control_c, 0, 64, 104
1, 662982, Note_on_c, 0, 61, 50
1, 662987, Note_on_c, 0, 54, 45
1, 662988, Control_c, 0, 64, 68
1, 662998, Note_on_c, 0, 69, 39
1, 663006, Note_on_c, 0, 57, 41
1, 663006, Control_c, 0, 64, 25
1, 663026, Control_c, 0, 64, 0
1, 663064, Control_c, 0, 64, 43
1, 663080, Note_on_c, 0, 69, 0
1, 663080, Poly_aftertouch_c, 0, 69, 0
1, 663081, Control_c, 0, 64, 72
1, 663084, Note_on_c, 0, 57, 0
1, 663100, Control_c, 0, 64, 96
1, 663112, Note_on_c, 0, 61, 0
1, 663112, Poly_aftertouch_c, 0, 61, 0
1, 663119, Control_c, 0, 64, 124
1, 663131, Note_on_c, 0, 64, 0
1, 663142, Note_on_c, 0, 54, 0
1, 663142, Poly_aftertouch_c, 0, 54, 0
1, 663184, Note_on_c, 0, 73, 0
1, 663184, Poly_aftertouch_c, 0, 73, 0
1, 663355, Note_on_c, 0, 47, 53
1, 663358, Note_on_c, 0, 78, 64
1, 663374, Note_on_c, 0, 66, 43
1, 663396, Note_on_c, 0, 47, 0
1, 663427, Note_on_c, 0, 66, 0
1, 663441, Note_on_c, 0, 78, 0
1, 663653, Note_on_c, 0, 75, 78
1, 663659, Note_on_c, 0, 63, 73
1, 663660, Note_on_c, 0, 69, 61
1, 663684, Note_on_c, 0, 57, 52
1, 663685, Note_on_c, 0, 54, 53
1, 663801, Note_on_c, 0, 69, 0
1, 663801, Poly_aftertouch_c, 0, 69, 0
1, 663810, Note_on_c, 0, 75, 0
1, 663810, Poly_aftertouch_c, 0, 75, 0
1, 663815, Note_on_c, 0, 63, 0
1, 663815, Poly_aftertouch_c, 0, 63, 0
1, 663831, Note_on_c, 0, 54, 0
1, 663831, Poly_aftertouch_c, 0, 54, 0
1, 663845, Note_on_c, 0, 57, 0
1, 663951, Note_on_c, 0, 75, 82
1, 663961, Control_c, 0, 64, 89
1, 663963, Note_on_c, 0, 63, 78
1, 663969, Note_on_c, 0, 69, 68
1, 663979, Control_c, 0, 64, 32
1, 663983, Note_on_c, 0, 54, 62
1, 663999, Control_c, 0, 64, 0
1, 664003, Note_on_c, 0, 57, 54
1, 664054, Control_c, 0, 64, 32
1, 664075, Control_c, 0, 64, 71
1, 664085, Note_on_c, 0, 69, 0
1, 664085, Poly_aftertouch_c, 0, 69, 0
1, 664092, Control_c, 0, 64, 105
1, 664100, Note_on_c, 0, 63, 0
1, 664100, Poly_aftertouch_c, 0, 63, 0
1, 664108, Note_on_c, 0, 57, 0
1, 664110, Note_on_c, 0, 54, 0
1, 664110, Poly_aftertouch_c, 0, 54, 0
1, 664110, Control_c, 0, 64, 127
1, 664204, Note_on_c, 0, 75, 0
1, 664204, Poly_aftertouch_c, 0, 75, 0
1, 664276, Note_on_c, 0, 79, 72
1, 664280, Note_on_c, 0, 48, 60
1, 664283, Note_on_c, 0, 67, 59
1, 664315, Note_on_c, 0, 48, 0
1, 664315, Poly_aftertouch_c, 0, 48, 0
1, 664333, Note_on_c, 0, 67, 0
1, 664371, Note_on_c, 0, 79, 0
1, 664371, Poly_aftertouch_c, 0, 79, 0
1, 664570, Note_on_c, 0, 76, 83
1, 664578, Note_on_c, 0, 71, 78
1, 664590, Note_on_c, 0, 64, 69
1, 664591, Note_on_c, 0, 55, 65
1, 664597, Note_on_c, 0, 59, 64
1, 664644, Note_on_c, 0, 64, 0
1, 664650, Note_on_c, 0, 59, 0
1, 664654, Note_on_c, 0, 55, 0
1, 664664, Note_on_c, 0, 71, 0
1, 664671, Note_on_c, 0, 76, 0
1, 664671, Poly_aftertouch_c, 0, 76, 0
1, 664858, Control_c, 0, 64, 110
1, 664875, Note_on_c, 0, 78, 88
1, 664877, Note_on_c, 0, 66, 81
1, 664877, Control_c, 0, 64, 73
1, 664882, Note_on_c, 0, 63, 81
1, 664897, Note_on_c, 0, 75, 62
1, 664897, Control_c, 0, 64, 45
1, 664904, Note_on_c, 0, 57, 61
1, 664906, Note_on_c, 0, 54, 66
1, 664933, Control_c, 0, 64, 59
1, 664952, Control_c, 0, 64, 81
1, 664971, Control_c, 0, 64, 105
1, 664990, Control_c, 0, 64, 127
1, 665017, Note_on_c, 0, 63, 0
1, 665017, Poly_aftertouch_c, 0, 63, 0
1, 665019, Note_on_c, 0, 57, 0
1, 665038, Note_on_c, 0, 66, 0
1, 665042, Note_on_c, 0, 54, 0
1, 665042, Poly_aftertouch_c, 0, 54, 0
1, 665046, Note_on_c, 0, 75, 0
1, 665046, Poly_aftertouch_c, 0, 75, 0
1, 665070, Note_on_c, 0, 78, 0
1, 665183, Note_on_c, 0, 83, 87
1, 665198, Note_on_c, 0, 71, 63
1, 665200, Note_on_c, 0, 45, 56
1, 665207, Note_on_c, 0, 83, 0
1, 665223, Note_on_c, 0, 71, 0
1, 665234, Note_on_c, 0, 45, 0
1, 665234, Poly_aftertouch_c, 0, 45, 0
1, 665303, Poly_aftertouch_c, 0, 47, 0
1, 665469, Note_on_c, 0, 79, 90
1, 665471, Note_on_c, 0, 67, 87
1, 665472, Note_on_c, 0, 64, 77
1, 665477, Note_on_c, 0, 55, 63
1, 665478, Note_on_c, 0, 59, 61
1, 665478, Note_on_c, 0, 76, 79
1, 665506, Note_on_c, 0, 64, 0
1, 665511, Note_on_c, 0, 55, 0
1, 665511, Note_on_c, 0, 67, 0
1, 665517, Note_on_c, 0, 59, 0
1, 665537, Note_on_c, 0, 76, 0
1, 665537, Poly_aftertouch_c, 0, 76, 0
1, 665539, Note_on_c, 0, 79, 0
1, 665539, Poly_aftertouch_c, 0, 79, 0
1, 665757, Control_c, 0, 64, 114
1, 665773, Note_on_c, 0, 66, 82
1, 665773, Note_on_c, 0, 81, 94
1, 665775, Note_on_c, 0, 69, 89
1, 665775, Control_c, 0, 64, 61
1, 665777, Note_on_c, 0, 78, 82
1, 665780, Note_on_c, 0, 57, 73
1, 665789, Note_on_c, 0, 62, 75
1, 665792, Control_c, 0, 64, 0
1, 665805, Note_on_c, 0, 66, 0
1, 665818, Note_on_c, 0, 62, 0
1, 665833, Note_on_c, 0, 57, 0
1, 665833, Control_c, 0, 64, 38
1, 665849, Control_c, 0, 64, 79
1, 665868, Control_c, 0, 64, 119
1, 665887, Control_c, 0, 64, 127
1, 665949, Note_on_c, 0, 69, 0
1, 665949, Poly_aftertouch_c, 0, 69, 0
1, 665981, Note_on_c, 0, 81, 0
1, 665981, Poly_aftertouch_c, 0, 81, 0
1, 665997, Note_on_c, 0, 78, 0
1, 666099, Note_on_c, 0, 43, 82
1, 666100, Note_on_c, 0, 50, 82
1, 666106, Note_on_c, 0, 86, 93
1, 666108, Note_on_c, 0, 74, 88
1, 666126, Note_on_c, 0, 74, 0
1, 666126, Poly_aftertouch_c, 0, 74, 0
1, 666129, Note_on_c, 0, 86, 0
1, 666129, Poly_aftertouch_c, 0, 86, 0
1, 666133, Note_on_c, 0, 50, 0
1, 666133, Poly_aftertouch_c, 0, 50, 0
1, 666135, Note_on_c, 0, 43, 0
1, 666135, Poly_aftertouch_c, 0, 43, 0
1, 666419, Note_on_c, 0, 59, 75
1, 666421, Note_on_c, 0, 67, 80
1, 666424, Note_on_c, 0, 83, 91
1, 666429, Note_on_c, 0, 62, 63
1, 666429, Note_on_c, 0, 71, 91
1, 666433, Note_on_c, 0, 79, 85
1, 666449, Note_on_c, 0, 67, 0
1, 666451, Note_on_c, 0, 59, 0
1, 666462, Note_on_c, 0, 62, 0
1, 666490, Note_on_c, 0, 71, 0
1, 666519, Note_on_c, 0, 79, 0
1, 666519, Poly_aftertouch_c, 0, 79, 0
1, 666550, Note_on_c, 0, 83, 0
1, 666765, Control_c, 0, 64, 96
1, 666766, Note_on_c, 0, 66, 88
1, 666771, Note_on_c, 0, 69, 92
1, 666772, Note_on_c, 0, 81, 92
1, 666775, Note_on_c, 0, 78, 87
1, 666777, Note_on_c, 0, 57, 78
1, 666782, Note_on_c, 0, 64, 80
1, 666783, Control_c, 0, 64, 45
1, 666803, Control_c, 0, 64, 0
1, 666822, Control_c, 0, 64, 28
1, 666828, Note_on_c, 0, 66, 0
1, 666834, Note_on_c, 0, 64, 0
1, 666841, Control_c, 0, 64, 63
1, 666847, Note_on_c, 0, 57, 0
1, 666860, Control_c, 0, 64, 99
1, 666878, Control_c, 0, 64, 127
1, 667026, Note_on_c, 0, 69, 0
1, 667026, Poly_aftertouch_c, 0, 69, 0
1, 667064, Note_on_c, 0, 81, 0
1, 667064, Poly_aftertouch_c, 0, 81, 0
1, 667094, Note_on_c, 0, 78, 0
1, 667252, Note_on_c, 0, 52, 92
1, 667256, Note_on_c, 0, 40, 83
1, 667259, Note_on_c, 0, 88, 97
1, 667264, Note_on_c, 0, 76, 86
1, 667286, Note_on_c, 0, 76, 0
1, 667286, Poly_aftertouch_c, 0, 76, 0
1, 667295, Note_on_c, 0, 88, 0
1, 667298, Note_on_c, 0, 52, 0
1, 667298, Poly_aftertouch_c, 0, 52, 0
1, 667300, Note_on_c, 0, 40, 0
1, 667300, Poly_aftertouch_c, 0, 40, 0
1, 667649, Note_on_c, 0, 59, 62
1, 667722, Note_on_c, 0, 64, 64
1, 667796, Note_on_c, 0, 67, 89
1, 667800, Note_on_c, 0, 59, 0
1, 667841, Note_on_c, 0, 64, 0
1, 667848, Note_on_c, 0, 67, 0
1, 667905, Note_on_c, 0, 76, 85
1, 667905, Note_on_c, 0, 83, 94
1, 667909, Note_on_c, 0, 71, 95
1, 667913, Note_on_c, 0, 79, 75
1, 668086, Note_on_c, 0, 83, 0
1, 668125, Note_on_c, 0, 79, 0
1, 668125, Poly_aftertouch_c, 0, 79, 0
1, 668127, Note_on_c, 0, 71, 0
1, 668129, Note_on_c, 0, 76, 0
1, 668129, Poly_aftertouch_c, 0, 76, 0
1, 668641, Note_on_c, 0, 45, 93
1, 668650, Note_on_c, 0, 33, 86
1, 668694, Note_on_c, 0, 60, 87
1, 668694, Note_on_c, 0, 55, 93
1, 668696, Note_on_c, 0, 67, 91
1, 668701, Note_on_c, 0, 64, 80
1, 668749, Control_c, 0, 64, 122
1, 668767, Control_c, 0, 64, 75
1, 668786, Control_c, 0, 64, 0
1, 668841, Control_c, 0, 64, 41
1, 668861, Control_c, 0, 64, 80
1, 668869, Note_on_c, 0, 33, 0
1, 668878, Control_c, 0, 64, 110
1, 668898, Control_c, 0, 64, 127
1, 668954, Note_on_c, 0, 45, 0
1, 668954, Poly_aftertouch_c, 0, 45, 0
1, 669009, Note_on_c, 0, 55, 0
1, 669197, Note_on_c, 0, 67, 0
1, 669197, Note_on_c, 0, 60, 0
1, 669197, Poly_aftertouch_c, 0, 60, 0
1, 669229, Note_on_c, 0, 64, 0
1, 669438, Note_on_c, 0, 72, 60
1, 669452, Note_on_c, 0, 60, 49
1, 669582, Note_on_c, 0, 60, 0
1, 669582, Poly_aftertouch_c, 0, 60, 0
1, 669597, Note_on_c, 0, 72, 0
1, 669942, Note_on_c, 0, 64, 51
1, 669942, Note_on_c, 0, 66, 69
1, 669950, Note_on_c, 0, 54, 57
1, 669957, Note_on_c, 0, 60, 56
1, 670060, Note_on_c, 0, 84, 90
1, 670086, Note_on_c, 0, 72, 67
1, 670090, Note_on_c, 0, 81, 60
1, 670119, Note_on_c, 0, 54, 0
1, 670119, Poly_aftertouch_c, 0, 54, 0
1, 670196, Note_on_c, 0, 66, 0
1, 670231, Note_on_c, 0, 64, 0
1, 670263, Note_on_c, 0, 60, 0
1, 670263, Poly_aftertouch_c, 0, 60, 0
1, 670369, Note_on_c, 0, 66, 69
1, 670374, Note_on_c, 0, 64, 68
1, 670375, Note_on_c, 0, 54, 62
1, 670396, Note_on_c, 0, 60, 47
1, 670407, Note_on_c, 0, 72, 0
1, 670420, Note_on_c, 0, 54, 0
1, 670420, Poly_aftertouch_c, 0, 54, 0
1, 670440, Note_on_c, 0, 60, 0
1, 670440, Poly_aftertouch_c, 0, 60, 0
1, 670457, Note_on_c, 0, 64, 0
1, 670474, Note_on_c, 0, 66, 0
1, 670496, Poly_aftertouch_c, 0, 81, 24
1, 670552, Note_on_c, 0, 81, 0
1, 670552, Poly_aftertouch_c, 0, 81, 0
1, 670615, Note_on_c, 0, 84, 0
1, 670685, Note_on_c, 0, 72, 77
1, 670704, Note_on_c, 0, 60, 52
1, 670712, Note_on_c, 0, 72, 0
1, 670737, Note_on_c, 0, 60, 0
1, 670737, Poly_aftertouch_c, 0, 60, 0
1, 670989, Note_on_c, 0, 86, 91
1, 671006, Note_on_c, 0, 74, 72
1, 671013, Note_on_c, 0, 83, 60
1, 671021, Note_on_c, 0, 64, 45
1, 671058, Note_on_c, 0, 52, 19
1, 671136, Note_on_c, 0, 52, 0
1, 671136, Poly_aftertouch_c, 0, 52, 0
1, 671172, Note_on_c, 0, 74, 0
1, 671172, Note_on_c, 0, 64, 0
1, 671172, Poly_aftertouch_c, 0, 74, 0
1, 671211, Note_on_c, 0, 86, 0
1, 671211, Poly_aftertouch_c, 0, 86, 0
1, 671230, Note_on_c, 0, 83, 0
1, 671286, Note_on_c, 0, 88, 96
1, 671294, Note_on_c, 0, 52, 54
1, 671294, Note_on_c, 0, 64, 66
1, 671298, Note_on_c, 0, 76, 77
1, 671305, Note_on_c, 0, 84, 70
1, 671321, Note_on_c, 0, 76, 0
1, 671321, Poly_aftertouch_c, 0, 76, 0
1, 671326, Note_on_c, 0, 52, 0
1, 671326, Poly_aftertouch_c, 0, 52, 0
1, 671327, Note_on_c, 0, 84, 0
1, 671329, Note_on_c, 0, 64, 0
1, 671351, Note_on_c, 0, 88, 0
1, 671550, Note_on_c, 0, 87, 14
1, 671581, Note_on_c, 0, 90, 96
1, 671586, Note_on_c, 0, 87, 0
1, 671586, Poly_aftertouch_c, 0, 87, 0
1, 671587, Note_on_c, 0, 78, 84
1, 671591, Note_on_c, 0, 60, 77
1, 671597, Note_on_c, 0, 86, 68
1, 671608, Note_on_c, 0, 72, 42
1, 671620, Note_on_c, 0, 60, 0
1, 671620, Poly_aftertouch_c, 0, 60, 0
1, 671621, Note_on_c, 0, 78, 0
1, 671625, Note_on_c, 0, 86, 0
1, 671625, Poly_aftertouch_c, 0, 86, 0
1, 671641, Note_on_c, 0, 72, 0
1, 671686, Note_on_c, 0, 90, 0
1, 671877, Note_on_c, 0, 50, 76
1, 671879, Note_on_c, 0, 91, 98
1, 671886, Note_on_c, 0, 62, 55
1, 671888, Note_on_c, 0, 79, 84
1, 671914, Note_on_c, 0, 50, 0
1, 671914, Note_on_c, 0, 88, 52
1, 671914, Poly_aftertouch_c, 0, 50, 0
1, 671918, Note_on_c, 0, 62, 0
1, 671943, Note_on_c, 0, 88, 0
1, 672015, Note_on_c, 0, 79, 0
1, 672015, Poly_aftertouch_c, 0, 79, 0
1, 672017, Note_on_c, 0, 36, 72
1, 672020, Note_on_c, 0, 38, 68
1, 672022, Poly_aftertouch_c, 0, 79, 0
1, 672048, Note_on_c, 0, 36, 0
1, 672048, Poly_aftertouch_c, 0, 36, 0
1, 672052, Note_on_c, 0, 38, 0
1, 672052, Poly_aftertouch_c, 0, 38, 0
1, 672085, Note_on_c, 0, 91, 0
1, 672262, Note_on_c, 0, 93, 102
1, 672275, Note_on_c, 0, 62, 87
1, 672276, Note_on_c, 0, 81, 87
1, 672280, Note_on_c, 0, 50, 80
1, 672283, Note_on_c, 0, 90, 68
1, 672300, Note_on_c, 0, 62, 0
1, 672312, Note_on_c, 0, 50, 0
1, 672312, Poly_aftertouch_c, 0, 50, 0
1, 672418, Note_on_c, 0, 81, 0
1, 672418, Poly_aftertouch_c, 0, 81, 0
1, 672490, Note_on_c, 0, 93, 0
1, 672544, Note_on_c, 0, 60, 60
1, 672575, Note_on_c, 0, 90, 0
1, 672586, Note_on_c, 0, 64, 54
1, 672608, Note_on_c, 0, 67, 57
1, 672655, Note_on_c, 0, 95, 102
1, 672655, Note_on_c, 0, 72, 93
1, 672660, Note_on_c, 0, 91, 85
1, 672663, Note_on_c, 0, 83, 96
1, 672678, Note_on_c, 0, 60, 0
1, 672678, Poly_aftertouch_c, 0, 60, 0
1, 672680, Note_on_c, 0, 72, 0
1, 672690, Note_on_c, 0, 83, 0
1, 672700, Note_on_c, 0, 67, 0
1, 672708, Note_on_c, 0, 64, 0
1, 672709, Note_on_c, 0, 91, 0
1, 672717, Note_on_c, 0, 95, 0
1, 673101, Note_on_c, 0, 81, 91
1, 673101, Note_on_c, 0, 69, 91
1, 673103, Note_on_c, 0, 74, 86
1, 673104, Note_on_c, 0, 66, 94
1, 673106, Note_on_c, 0, 78, 89
1, 673109, Note_on_c, 0, 54, 87
1, 673129, Note_on_c, 0, 66, 0
1, 673140, Note_on_c, 0, 54, 0
1, 673140, Poly_aftertouch_c, 0, 54, 0
1, 673147, Note_on_c, 0, 69, 0
1, 673147, Poly_aftertouch_c, 0, 69, 0
1, 673169, Note_on_c, 0, 81, 0
1, 673169, Poly_aftertouch_c, 0, 81, 0
1, 673173, Note_on_c, 0, 74, 0
1, 673173, Poly_aftertouch_c, 0, 74, 0
1, 673190, Note_on_c, 0, 78, 0
1, 673709, Note_on_c, 0, 43, 95
1, 673716, Note_on_c, 0, 31, 90
1, 673746, Note_on_c, 0, 54, 94
1, 673746, Note_on_c, 0, 66, 92
1, 673749, Note_on_c, 0, 59, 83
1, 673755, Note_on_c, 0, 62, 82
1, 673759, Control_c, 0, 64, 123
1, 673777, Control_c, 0, 64, 83
1, 673798, Control_c, 0, 64, 12
1, 673815, Control_c, 0, 64, 0
1, 673923, Note_on_c, 0, 31, 0
1, 673927, Control_c, 0, 64, 16
1, 673946, Control_c, 0, 64, 98
1, 673965, Control_c, 0, 64, 127
1, 674006, Note_on_c, 0, 43, 0
1, 674006, Poly_aftertouch_c, 0, 43, 0
1, 674023, Note_on_c, 0, 54, 0
1, 674023, Poly_aftertouch_c, 0, 54, 0
1, 674190, Note_on_c, 0, 66, 0
1, 674266, Note_on_c, 0, 59, 0
1, 674309, Note_on_c, 0, 62, 0
1, 674541, Note_on_c, 0, 71, 61
1, 674548, Note_on_c, 0, 59, 53
1, 674586, Note_on_c, 0, 71, 0
1, 674592, Note_on_c, 0, 59, 0
1, 675025, Note_on_c, 0, 64, 66
1, 675027, Note_on_c, 0, 62, 52
1, 675032, Note_on_c, 0, 52, 57
1, 675052, Note_on_c, 0, 59, 53
1, 675149, Note_on_c, 0, 83, 89
1, 675177, Note_on_c, 0, 71, 63
1, 675179, Note_on_c, 0, 79, 57
1, 675312, Note_on_c, 0, 52, 0
1, 675312, Poly_aftertouch_c, 0, 52, 0
1, 675363, Note_on_c, 0, 64, 0
1, 675369, Note_on_c, 0, 62, 0
1, 675376, Note_on_c, 0, 59, 0
1, 675451, Note_on_c, 0, 71, 0
1, 675537, Note_on_c, 0, 62, 49
1, 675540, Note_on_c, 0, 64, 58
1, 675543, Note_on_c, 0, 52, 46
1, 675574, Note_on_c, 0, 59, 42
1, 675583, Note_on_c, 0, 52, 0
1, 675583, Poly_aftertouch_c, 0, 52, 0
1, 675615, Note_on_c, 0, 59, 0
1, 675618, Note_on_c, 0, 62, 0
1, 675649, Note_on_c, 0, 64, 0
1, 675760, Note_on_c, 0, 79, 0
1, 675815, Note_on_c, 0, 83, 0
1, 675915, Note_on_c, 0, 71, 68
1, 675939, Note_on_c, 0, 59, 52
1, 675949, Note_on_c, 0, 71, 0
1, 675976, Note_on_c, 0, 59, 0
1, 676235, Note_on_c, 0, 84, 88
1, 676256, Note_on_c, 0, 81, 66
1, 676258, Note_on_c, 0, 72, 62
1, 676263, Note_on_c, 0, 50, 56
1, 676264, Note_on_c, 0, 62, 55
1, 676405, Note_on_c, 0, 62, 0
1, 676407, Note_on_c, 0, 72, 0
1, 676407, Note_on_c, 0, 50, 0
1, 676407, Poly_aftertouch_c, 0, 50, 0
1, 676425, Note_on_c, 0, 81, 0
1, 676425, Poly_aftertouch_c, 0, 81, 0
1, 676458, Note_on_c, 0, 84, 0
1, 676554, Note_on_c, 0, 62, 68
1, 676558, Note_on_c, 0, 50, 63
1, 676558, Note_on_c, 0, 86, 93
1, 676569, Note_on_c, 0, 74, 75
1, 676572, Note_on_c, 0, 83, 74
1, 676588, Note_on_c, 0, 50, 0
1, 676588, Note_on_c, 0, 62, 0
1, 676588, Poly_aftertouch_c, 0, 50, 0
1, 676729, Note_on_c, 0, 74, 0
1, 676729, Poly_aftertouch_c, 0, 74, 0
1, 676758, Note_on_c, 0, 86, 0
1, 676758, Note_on_c, 0, 83, 0
1, 676758, Poly_aftertouch_c, 0, 86, 0
1, 676840, Note_on_c, 0, 88, 95
1, 676845, Note_on_c, 0, 76, 88
1, 676846, Note_on_c, 0, 84, 86
1, 676846, Note_on_c, 0, 59, 74
1, 676846, Note_on_c, 0, 71, 70
1, 676873, Note_on_c, 0, 76, 0
1, 676873, Poly_aftertouch_c, 0, 76, 0
1, 676879, Note_on_c, 0, 71, 0
1, 676881, Note_on_c, 0, 59, 0
1, 676903, Note_on_c, 0, 84, 0
1, 676906, Note_on_c, 0, 88, 0
1, 677137, Note_on_c, 0, 86, 77
1, 677139, Note_on_c, 0, 90, 92
1, 677140, Note_on_c, 0, 78, 87
1, 677140, Note_on_c, 0, 48, 80
1, 677146, Note_on_c, 0, 60, 64
1, 677170, Note_on_c, 0, 60, 0
1, 677170, Poly_aftertouch_c, 0, 60, 0
1, 677177, Note_on_c, 0, 48, 0
1, 677177, Poly_aftertouch_c, 0, 48, 0
1, 677183, Note_on_c, 0, 78, 0
1, 677196, Note_on_c, 0, 86, 0
1, 677196, Poly_aftertouch_c, 0, 86, 0
1, 677229, Note_on_c, 0, 90, 0
1, 677275, Note_on_c, 0, 36, 91
1, 677312, Note_on_c, 0, 36, 0
1, 677312, Poly_aftertouch_c, 0, 36, 0
1, 677538, Note_on_c, 0, 91, 99
1, 677542, Note_on_c, 0, 79, 96
1, 677548, Note_on_c, 0, 88, 89
1, 677556, Note_on_c, 0, 48, 85
1, 677557, Note_on_c, 0, 60, 83
1, 677585, Note_on_c, 0, 48, 0
1, 677585, Poly_aftertouch_c, 0, 48, 0
1, 677588, Note_on_c, 0, 60, 0
1, 677588, Poly_aftertouch_c, 0, 60, 0
1, 677664, Note_on_c, 0, 88, 0
1, 677731, Note_on_c, 0, 79, 0
1, 677754, Note_on_c, 0, 91, 0
1, 677847, Note_on_c, 0, 59, 65
1, 677874, Poly_aftertouch_c, 0, 90, 127
1, 677913, Note_on_c, 0, 64, 68
1, 677919, Note_on_c, 0, 67, 68
1, 677936, Note_on_c, 0, 59, 0
1, 677950, Note_on_c, 0, 93, 99
1, 677954, Note_on_c, 0, 81, 94
1, 677958, Note_on_c, 0, 71, 87
1, 677986, Note_on_c, 0, 71, 0
1, 677993, Note_on_c, 0, 64, 0
1, 677994, Note_on_c, 0, 67, 0
1, 677997, Note_on_c, 0, 87, 41
1, 677999, Note_on_c, 0, 81, 0
1, 677999, Poly_aftertouch_c, 0, 81, 0
1, 678016, Note_on_c, 0, 93, 0
1, 678031, Poly_aftertouch_c, 0, 90, 0
1, 678035, Note_on_c, 0, 87, 0
1, 678035, Poly_aftertouch_c, 0, 87, 0
1, 678433, Note_on_c, 0, 79, 94
1, 678433, Note_on_c, 0, 67, 96
1, 678435, Note_on_c, 0, 72, 90
1, 678439, Note_on_c, 0, 64, 95
1, 678442, Note_on_c, 0, 76, 83
1, 678448, Note_on_c, 0, 52, 86
1, 678478, Note_on_c, 0, 52, 0
1, 678478, Poly_aftertouch_c, 0, 52, 0
1, 678479, Note_on_c, 0, 64, 0
1, 678503, Note_on_c, 0, 67, 0
1, 678526, Note_on_c, 0, 79, 0
1, 678543, Note_on_c, 0, 72, 0
1, 678544, Note_on_c, 0, 76, 0
1, 678544, Poly_aftertouch_c, 0, 76, 0
1, 679177, Note_on_c, 0, 57, 82
1, 679178, Note_on_c, 0, 42, 98
1, 679179, Note_on_c, 0, 52, 91
1, 679182, Note_on_c, 0, 64, 89
1, 679184, Note_on_c, 0, 60, 82
1, 679185, Note_on_c, 0, 30, 92
1, 679219, Control_c, 0, 64, 122
1, 679237, Control_c, 0, 64, 84
1, 679258, Control_c, 0, 64, 36
1, 679275, Control_c, 0, 64, 0
1, 679349, Control_c, 0, 64, 49
1, 679368, Note_on_c, 0, 30, 0
1, 679368, Control_c, 0, 64, 80
1, 679388, Control_c, 0, 64, 105
1, 679406, Control_c, 0, 64, 127
1, 679438, Note_on_c, 0, 52, 0
1, 679438, Poly_aftertouch_c, 0, 52, 0
1, 679443, Note_on_c, 0, 42, 0
1, 679443, Poly_aftertouch_c, 0, 42, 0
1, 679681, Note_on_c, 0, 57, 0
1, 679701, Note_on_c, 0, 64, 0
1, 679726, Note_on_c, 0, 60, 0
1, 679726, Poly_aftertouch_c, 0, 60, 0
1, 679977, Note_on_c, 0, 69, 61
1, 679982, Note_on_c, 0, 57, 54
1, 680032, Note_on_c, 0, 69, 0
1, 680032, Poly_aftertouch_c, 0, 69, 0
1, 680066, Note_on_c, 0, 57, 0
1, 680535, Note_on_c, 0, 60, 52
1, 680540, Note_on_c, 0, 62, 50
1, 680540, Note_on_c, 0, 57, 50
1, 680555, Note_on_c, 0, 50, 42
1, 680693, Note_on_c, 0, 81, 83
1, 680712, Note_on_c, 0, 78, 55
1, 680722, Note_on_c, 0, 69, 57
1, 680795, Poly_aftertouch_c, 0, 50, 24
1, 680865, Note_on_c, 0, 50, 0
1, 680865, Poly_aftertouch_c, 0, 50, 0
1, 680898, Note_on_c, 0, 62, 0
1, 680931, Note_on_c, 0, 60, 0
1, 680931, Poly_aftertouch_c, 0, 60, 0
1, 680976, Note_on_c, 0, 57, 0
1, 681102, Note_on_c, 0, 60, 55
1, 681102, Note_on_c, 0, 62, 62
1, 681114, Note_on_c, 0, 69, 0
1, 681114, Poly_aftertouch_c, 0, 69, 0
1, 681120, Note_on_c, 0, 50, 41
1, 681128, Note_on_c, 0, 57, 47
1, 681165, Note_on_c, 0, 50, 0
1, 681165, Poly_aftertouch_c, 0, 50, 0
1, 681182, Note_on_c, 0, 57, 0
1, 681213, Note_on_c, 0, 62, 0
1, 681213, Note_on_c, 0, 60, 0
1, 681213, Poly_aftertouch_c, 0, 60, 0
1, 681384, Note_on_c, 0, 81, 0
1, 681384, Poly_aftertouch_c, 0, 81, 0
1, 681436, Note_on_c, 0, 69, 73
1, 681454, Note_on_c, 0, 57, 62
1, 681457, Note_on_c, 0, 78, 0
1, 681468, Note_on_c, 0, 69, 0
1, 681468, Poly_aftertouch_c, 0, 69, 0
1, 681494, Note_on_c, 0, 57, 0
1, 681747, Note_on_c, 0, 83, 87
1, 681760, Note_on_c, 0, 60, 64
1, 681767, Note_on_c, 0, 71, 60
1, 681769, Note_on_c, 0, 79, 59
1, 681771, Note_on_c, 0, 48, 58
1, 681888, Note_on_c, 0, 48, 0
1, 681888, Poly_aftertouch_c, 0, 48, 0
1, 681909, Note_on_c, 0, 60, 0
1, 681909, Poly_aftertouch_c, 0, 60, 0
1, 681965, Note_on_c, 0, 83, 0
1, 681967, Note_on_c, 0, 79, 0
1, 681972, Note_on_c, 0, 71, 0
1, 682057, Note_on_c, 0, 60, 68
1, 682057, Note_on_c, 0, 48, 63
1, 682061, Note_on_c, 0, 84, 90
1, 682075, Note_on_c, 0, 72, 71
1, 682076, Note_on_c, 0, 81, 71
1, 682091, Note_on_c, 0, 48, 0
1, 682091, Poly_aftertouch_c, 0, 48, 0
1, 682093, Note_on_c, 0, 60, 0
1, 682093, Poly_aftertouch_c, 0, 60, 0
1, 682249, Note_on_c, 0, 72, 0
1, 682283, Note_on_c, 0, 81, 0
1, 682283, Poly_aftertouch_c, 0, 81, 0
1, 682291, Note_on_c, 0, 84, 0
1, 682376, Note_on_c, 0, 86, 96
1, 682384, Note_on_c, 0, 69, 64
1, 682384, Note_on_c, 0, 57, 71
1, 682385, Note_on_c, 0, 74, 87
1, 682387, Note_on_c, 0, 83, 83
1, 682408, Note_on_c, 0, 69, 0
1, 682408, Poly_aftertouch_c, 0, 69, 0
1, 682421, Note_on_c, 0, 57, 0
1, 682607, Note_on_c, 0, 74, 0
1, 682607, Poly_aftertouch_c, 0, 74, 0
1, 682645, Note_on_c, 0, 86, 0
1, 682645, Poly_aftertouch_c, 0, 86, 0
1, 682651, Note_on_c, 0, 83, 0
1, 682748, Note_on_c, 0, 59, 65
1, 682748, Note_on_c, 0, 88, 97
1, 682752, Note_on_c, 0, 47, 71
1, 682755, Note_on_c, 0, 84, 89
1, 682756, Note_on_c, 0, 76, 90
1, 682777, Note_on_c, 0, 59, 0
1, 682788, Note_on_c, 0, 47, 0
1, 682908, Note_on_c, 0, 35, 91
1, 682915, Note_on_c, 0, 76, 0
1, 682915, Poly_aftertouch_c, 0, 76, 0
1, 682933, Note_on_c, 0, 84, 0
1, 682935, Note_on_c, 0, 88, 0
1, 682945, Note_on_c, 0, 35, 0
1, 682945, Poly_aftertouch_c, 0, 35, 0
1, 683255, Note_on_c, 0, 78, 97
1, 683256, Note_on_c, 0, 59, 86
1, 683257, Note_on_c, 0, 90, 95
1, 683261, Note_on_c, 0, 47, 82
1, 683263, Note_on_c, 0, 87, 88
1, 683286, Note_on_c, 0, 59, 0
1, 683292, Note_on_c, 0, 47, 0
1, 683318, Note_on_c, 0, 85, 25
1, 683376, Note_on_c, 0, 85, 0
1, 683589, Note_on_c, 0, 57, 58
1, 683602, Note_on_c, 0, 90, 0
1, 683606, Note_on_c, 0, 78, 0
1, 683650, Note_on_c, 0, 60, 64
1, 683683, Note_on_c, 0, 57, 0
1, 683706, Note_on_c, 0, 64, 72
1, 683767, Note_on_c, 0, 87, 0
1, 683767, Poly_aftertouch_c, 0, 87, 0
1, 683783, Note_on_c, 0, 60, 0
1, 683783, Poly_aftertouch_c, 0, 60, 0
1, 683793, Note_on_c, 0, 69, 88
1, 683830, Note_on_c, 0, 64, 0
1, 683837, Note_on_c, 0, 69, 0
1, 683837, Poly_aftertouch_c, 0, 69, 0
1, 683932, Note_on_c, 0, 91, 97
1, 683938, Note_on_c, 0, 88, 86
1, 683938, Note_on_c, 0, 79, 97
1, 684520, Note_on_c, 0, 91, 0
1, 684620, Note_on_c, 0, 88, 0
1, 684677, Note_on_c, 0, 79, 0
1, 684901, Note_on_c, 0, 57, 66
1, 684906, Note_on_c, 0, 45, 59
1, 684956, Note_on_c, 0, 45, 0
1, 684956, Poly_aftertouch_c, 0, 45, 0
1, 684977, Note_on_c, 0, 57, 0
1, 685190, Note_on_c, 0, 83, 91
1, 685214, Note_on_c, 0, 71, 67
1, 685215, Note_on_c, 0, 76, 59
1, 685314, Note_on_c, 0, 40, 73
1, 685334, Control_c, 0, 64, 112
1, 685352, Control_c, 0, 64, 71
1, 685371, Control_c, 0, 64, 43
1, 685389, Control_c, 0, 64, 57
1, 685408, Control_c, 0, 64, 82
1, 685428, Control_c, 0, 64, 110
1, 685446, Control_c, 0, 64, 127
1, 685469, Note_on_c, 0, 47, 71
1, 685486, Note_on_c, 0, 40, 0
1, 685486, Poly_aftertouch_c, 0, 40, 0
1, 685580, Note_on_c, 0, 47, 0
1, 685614, Note_on_c, 0, 57, 78
1, 685616, Note_on_c, 0, 76, 0
1, 685616, Poly_aftertouch_c, 0, 76, 0
1, 685643, Note_on_c, 0, 71, 0
1, 685651, Note_on_c, 0, 83, 0
1, 685674, Note_on_c, 0, 57, 0
1, 685779, Note_on_c, 0, 83, 92
1, 685802, Note_on_c, 0, 71, 67
1, 685807, Note_on_c, 0, 76, 51
1, 685995, Note_on_c, 0, 71, 0
1, 686064, Note_on_c, 0, 76, 0
1, 686064, Poly_aftertouch_c, 0, 76, 0
1, 686118, Note_on_c, 0, 83, 0
1, 686360, Note_on_c, 0, 64, 60
1, 686420, Note_on_c, 0, 64, 0
1, 686663, Note_on_c, 0, 55, 55
1, 686679, Note_on_c, 0, 47, 55
1, 686704, Note_on_c, 0, 55, 0
1, 686718, Note_on_c, 0, 47, 0
1, 686764, Note_on_c, 0, 88, 88
1, 686782, Note_on_c, 0, 83, 68
1, 686791, Note_on_c, 0, 76, 54
1, 686936, Note_on_c, 0, 40, 56
1, 686991, Note_on_c, 0, 47, 53
1, 687017, Control_c, 0, 64, 121
1, 687030, Note_on_c, 0, 40, 0
1, 687030, Poly_aftertouch_c, 0, 40, 0
1, 687034, Control_c, 0, 64, 86
1, 687054, Control_c, 0, 64, 46
1, 687072, Control_c, 0, 64, 0
1, 687091, Control_c, 0, 64, 37
1, 687110, Control_c, 0, 64, 63
1, 687128, Control_c, 0, 64, 85
1, 687148, Note_on_c, 0, 55, 53
1, 687148, Control_c, 0, 64, 110
1, 687161, Note_on_c, 0, 53, 54
1, 687164, Control_c, 0, 64, 127
1, 687202, Note_on_c, 0, 53, 0
1, 687230, Note_on_c, 0, 88, 0
1, 687251, Note_on_c, 0, 47, 0
1, 687276, Note_on_c, 0, 55, 0
1, 687339, Note_on_c, 0, 83, 0
1, 687364, Note_on_c, 0, 76, 0
1, 687364, Poly_aftertouch_c, 0, 76, 0
1, 687391, Control_c, 0, 67, 8
1, 687528, Note_on_c, 0, 59, 14
1, 687578, Control_c, 0, 67, 12
1, 687596, Note_on_c, 0, 59, 0
1, 687788, Note_on_c, 0, 83, 82
1, 687801, Control_c, 0, 67, 16
1, 687805, Note_on_c, 0, 54, 37
1, 687809, Note_on_c, 0, 71, 57
1, 687811, Note_on_c, 0, 76, 60
1, 687849, Note_on_c, 0, 54, 0
1, 687849, Poly_aftertouch_c, 0, 54, 0
1, 687857, Control_c, 0, 67, 20
1, 687896, Poly_aftertouch_c, 0, 45, 0
1, 687915, Control_c, 0, 67, 24
1, 687951, Control_c, 0, 67, 29
1, 687979, Note_on_c, 0, 40, 47
1, 687989, Control_c, 0, 67, 37
1, 688007, Control_c, 0, 67, 41
1, 688026, Control_c, 0, 67, 45
1, 688043, Note_on_c, 0, 40, 0
1, 688043, Poly_aftertouch_c, 0, 40, 0
1, 688047, Note_on_c, 0, 47, 47
1, 688063, Control_c, 0, 67, 51
1, 688102, Control_c, 0, 64, 93
1, 688103, Control_c, 0, 67, 55
1, 688120, Control_c, 0, 64, 59
1, 688135, Note_on_c, 0, 54, 58
1, 688137, Control_c, 0, 64, 38
1, 688139, Control_c, 0, 67, 62
1, 688157, Control_c, 0, 64, 44
1, 688178, Control_c, 0, 64, 59
1, 688179, Control_c, 0, 67, 67
1, 688195, Control_c, 0, 64, 75
1, 688213, Control_c, 0, 64, 89
1, 688231, Control_c, 0, 64, 108
1, 688251, Control_c, 0, 64, 126
1, 688252, Control_c, 0, 67, 71
1, 688259, Note_on_c, 0, 54, 0
1, 688259, Poly_aftertouch_c, 0, 54, 0
1, 688269, Note_on_c, 0, 47, 0
1, 688327, Note_on_c, 0, 83, 0
1, 688363, Control_c, 0, 67, 77
1, 688371, Note_on_c, 0, 76, 0
1, 688371, Poly_aftertouch_c, 0, 76, 0
1, 688392, Note_on_c, 0, 71, 0
1, 688400, Control_c, 0, 67, 82
1, 688475, Note_on_c, 0, 59, 47
1, 688513, Control_c, 0, 67, 87
1, 688524, Note_on_c, 0, 59, 0
1, 688550, Control_c, 0, 67, 92
1, 688606, Control_c, 0, 67, 96
1, 688642, Control_c, 0, 67, 101
1, 688680, Control_c, 0, 67, 107
1, 688774, Control_c, 0, 67, 111
1, 688820, Note_on_c, 0, 76, 68
1, 688847, Note_on_c, 0, 45, 39
1, 688848, Note_on_c, 0, 52, 42
1, 688848, Note_on_c, 0, 71, 45
1, 688848, Control_c, 0, 67, 115
1, 688849, Note_on_c, 0, 64, 32
1, 688868, Control_c, 0, 64, 110
1, 688886, Control_c, 0, 64, 92
1, 688901, Note_on_c, 0, 52, 0
1, 688901, Poly_aftertouch_c, 0, 52, 0
1, 688914, Note_on_c, 0, 45, 0
1, 688925, Control_c, 0, 64, 96
1, 688926, Control_c, 0, 67, 119
1, 688942, Control_c, 0, 64, 104
1, 688960, Control_c, 0, 64, 113
1, 688980, Control_c, 0, 64, 122
1, 688999, Control_c, 0, 64, 127
1, 689112, Note_on_c, 0, 40, 44
1, 689148, Note_on_c, 0, 47, 37
1, 689168, Control_c, 0, 64, 123
1, 689169, Control_c, 0, 67, 124
1, 689185, Control_c, 0, 64, 116
1, 689205, Control_c, 0, 64, 98
1, 689225, Control_c, 0, 64, 73
1, 689234, Note_on_c, 0, 40, 0
1, 689234, Poly_aftertouch_c, 0, 40, 0
1, 689245, Control_c, 0, 64, 54
1, 689248, Note_on_c, 0, 52, 39
1, 689261, Control_c, 0, 64, 51
1, 689278, Control_c, 0, 64, 57
1, 689298, Control_c, 0, 64, 70
1, 689318, Control_c, 0, 64, 80
1, 689335, Control_c, 0, 64, 91
1, 689354, Control_c, 0, 64, 104
1, 689372, Control_c, 0, 64, 112
1, 689391, Note_on_c, 0, 52, 0
1, 689391, Poly_aftertouch_c, 0, 52, 0
1, 689392, Control_c, 0, 64, 117
1, 689447, Control_c, 0, 64, 122
1, 689484, Note_on_c, 0, 47, 0
1, 689504, Control_c, 0, 64, 126
1, 689667, Note_on_c, 0, 55, 40
1, 689670, Control_c, 0, 64, 121
1, 689691, Control_c, 0, 64, 109
1, 689709, Control_c, 0, 64, 86
1, 689728, Control_c, 0, 64, 71
1, 689748, Control_c, 0, 64, 73
1, 689765, Control_c, 0, 64, 77
1, 689784, Control_c, 0, 64, 85
1, 689803, Control_c, 0, 64, 94
1, 689821, Control_c, 0, 64, 105
1, 689841, Control_c, 0, 64, 114
1, 689859, Control_c, 0, 64, 120
1, 689915, Control_c, 0, 64, 124
1, 689965, Poly_aftertouch_c, 0, 76, 24
1, 690008, Note_on_c, 0, 76, 0
1, 690008, Poly_aftertouch_c, 0, 76, 0
1, 690057, Note_on_c, 0, 64, 0
1, 690063, Note_on_c, 0, 55, 0
1, 690159, Note_on_c, 0, 47, 43
1, 690195, Control_c, 0, 64, 107
1, 690214, Control_c, 0, 64, 90
1, 690223, Note_on_c, 0, 71, 0
1, 690232, Control_c, 0, 64, 86
1, 690251, Control_c, 0, 64, 90
1, 690270, Control_c, 0, 64, 95
1, 690288, Control_c, 0, 64, 104
1, 690308, Control_c, 0, 64, 112
1, 690326, Control_c, 0, 64, 118
1, 690905, Control_c, 0, 64, 114
1, 690976, Note_on_c, 0, 40, 33
1, 691018, Control_c, 0, 64, 108
1, 691036, Control_c, 0, 64, 103
1, 691056, Control_c, 0, 64, 98
1, 691074, Control_c, 0, 64, 94
1, 691092, Control_c, 0, 64, 90
1, 691112, Control_c, 0, 64, 87
1, 691130, Control_c, 0, 64, 83
1, 691150, Control_c, 0, 64, 80
1, 691597, Control_c, 0, 64, 78
1, 691728, Control_c, 0, 64, 76
1, 691735, Note_on_c, 0, 59, 39
1, 691840, Control_c, 0, 64, 74
1, 691915, Control_c, 0, 64, 71
1, 692048, Control_c, 0, 64, 69
1, 692121, Control_c, 0, 64, 68
1, 692139, Control_c, 0, 64, 67
1, 692170, Note_on_c, 0, 58, 44
1, 692175, Control_c, 0, 64, 65
1, 692196, Control_c, 0, 64, 64
1, 692215, Control_c, 0, 64, 63
1, 692233, Control_c, 0, 64, 61
1, 692245, Note_on_c, 0, 59, 0
1, 692251, Control_c, 0, 64, 60
1, 692290, Control_c, 0, 64, 56
1, 692307, Control_c, 0, 64, 53
1, 692327, Control_c, 0, 64, 49
1, 692345, Control_c, 0, 64, 45
1, 692364, Control_c, 0, 64, 42
1, 692382, Control_c, 0, 64, 38
1, 692402, Control_c, 0, 64, 32
1, 692421, Control_c, 0, 64, 25
1, 692438, Control_c, 0, 64, 15
1, 692455, Note_on_c, 0, 57, 45
1, 692457, Control_c, 0, 64, 0
1, 692504, Note_on_c, 0, 58, 0
1, 692504, Poly_aftertouch_c, 0, 58, 0
1, 692519, Note_on_c, 0, 47, 0
1, 692737, Note_on_c, 0, 55, 39
1, 692742, Note_on_c, 0, 57, 0
1, 693001, Note_on_c, 0, 47, 38
1, 693205, Poly_aftertouch_c, 0, 55, 24
1, 693332, Note_on_c, 0, 55, 0
1, 693332, Poly_aftertouch_c, 0, 55, 0
1, 693411, Control_c, 0, 64, 13
1, 693430, Control_c, 0, 64, 27
1, 693448, Control_c, 0, 64, 40
1, 693467, Control_c, 0, 64, 49
1, 693486, Control_c, 0, 64, 55
1, 693504, Control_c, 0, 64, 60
1, 693523, Control_c, 0, 64, 65
1, 693543, Control_c, 0, 64, 69
1, 693561, Control_c, 0, 64, 72
1, 693598, Control_c, 0, 64, 75
1, 693654, Control_c, 0, 64, 77
1, 693692, Control_c, 0, 64, 79
1, 693752, Note_on_c, 0, 67, 35
1, 693935, Control_c, 0, 64, 81
1, 693990, Control_c, 0, 67, 120
1, 694010, Control_c, 0, 64, 84
1, 694011, Note_on_c, 0, 67, 0
1, 694026, Note_on_c, 0, 66, 38
1, 694026, Control_c, 0, 64, 86
1, 694048, Control_c, 0, 64, 88
1, 694084, Control_c, 0, 64, 92
1, 694104, Control_c, 0, 67, 115
1, 694118, Note_on_c, 0, 66, 0
1, 694121, Control_c, 0, 64, 96
1, 694178, Control_c, 0, 67, 110
1, 694228, Note_on_c, 0, 65, 42
1, 694233, Control_c, 0, 67, 105
1, 694253, Control_c, 0, 64, 100
1, 694271, Control_c, 0, 67, 100
1, 694309, Control_c, 0, 67, 94
1, 694346, Control_c, 0, 67, 89
1, 694383, Control_c, 0, 67, 84
1, 694394, Note_on_c, 0, 64, 53
1, 694402, Control_c, 0, 64, 96
1, 694414, Note_on_c, 0, 65, 0
1, 694422, Control_c, 0, 64, 91
1, 694423, Control_c, 0, 67, 80
1, 694440, Control_c, 0, 64, 78
1, 694458, Control_c, 0, 64, 61
1, 694479, Control_c, 0, 64, 54
1, 694502, Note_on_c, 0, 64, 0
1, 694513, Control_c, 0, 64, 60
1, 694533, Control_c, 0, 64, 67
1, 694551, Control_c, 0, 64, 75
1, 694562, Note_on_c, 0, 55, 47
1, 694569, Control_c, 0, 64, 83
1, 694589, Control_c, 0, 64, 92
1, 694608, Control_c, 0, 64, 100
1, 694626, Note_on_c, 0, 55, 0
1, 694626, Poly_aftertouch_c, 0, 55, 0
1, 694626, Control_c, 0, 64, 106
1, 694664, Control_c, 0, 64, 110
1, 694719, Control_c, 0, 64, 115
1, 694813, Control_c, 0, 64, 119
1, 694821, Note_on_c, 0, 71, 63
1, 694850, Control_c, 0, 64, 126
1, 695033, Note_on_c, 0, 70, 70
1, 695042, Note_on_c, 0, 71, 0
1, 695078, Note_on_c, 0, 70, 0
1, 695078, Poly_aftertouch_c, 0, 70, 0
1, 695192, Note_on_c, 0, 69, 75
1, 695291, Poly_aftertouch_c, 0, 40, 24
1, 695325, Note_on_c, 0, 69, 0
1, 695325, Poly_aftertouch_c, 0, 69, 0
1, 695327, Note_on_c, 0, 67, 74
1, 695391, Note_on_c, 0, 40, 0
1, 695391, Poly_aftertouch_c, 0, 40, 0
1, 695392, Poly_aftertouch_c, 0, 40, 0
1, 695392, Control_c, 0, 67, 76
1, 695436, Note_on_c, 0, 67, 0
1, 695445, Note_on_c, 0, 64, 72
1, 695515, Note_on_c, 0, 64, 0
1, 695561, Note_on_c, 0, 47, 0
1, 695568, Note_on_c, 0, 55, 68
1, 695604, Note_on_c, 0, 55, 0
1, 695604, Poly_aftertouch_c, 0, 55, 0
1, 695617, Control_c, 0, 67, 71
1, 695651, Note_on_c, 0, 40, 53
1, 695654, Control_c, 0, 67, 67
1, 695712, Control_c, 0, 64, 100
1, 695717, Note_on_c, 0, 47, 59
1, 695730, Control_c, 0, 64, 66
1, 695733, Control_c, 0, 67, 62
1, 695749, Control_c, 0, 64, 32
1, 695767, Control_c, 0, 64, 27
1, 695781, Note_on_c, 0, 56, 65
1, 695786, Control_c, 0, 64, 44
1, 695786, Control_c, 0, 67, 58
1, 695805, Control_c, 0, 64, 64
1, 695823, Control_c, 0, 64, 82
1, 695844, Control_c, 0, 64, 102
1, 695859, Note_on_c, 0, 62, 63
1, 695862, Control_c, 0, 64, 127
1, 695867, Note_on_c, 0, 56, 0
1, 695867, Poly_aftertouch_c, 0, 56, 0
1, 695914, Note_on_c, 0, 65, 76
1, 695916, Control_c, 0, 67, 54
1, 695926, Note_on_c, 0, 62, 0
1, 695943, Note_on_c, 0, 65, 0
1, 695991, Control_c, 0, 67, 49
1, 696178, Note_on_c, 0, 74, 87
1, 696337, Note_on_c, 0, 40, 0
1, 696340, Note_on_c, 0, 47, 0
1, 696488, Note_on_c, 0, 73, 83
1, 696519, Note_on_c, 0, 74, 0
1, 696519, Poly_aftertouch_c, 0, 74, 0
1, 696580, Note_on_c, 0, 73, 0
1, 696580, Poly_aftertouch_c, 0, 73, 0
1, 696648, Note_on_c, 0, 72, 84
1, 696807, Note_on_c, 0, 71, 80
1, 696833, Note_on_c, 0, 72, 0
1, 696941, Note_on_c, 0, 62, 78
1, 696951, Note_on_c, 0, 71, 0
1, 696985, Note_on_c, 0, 62, 0
1, 697117, Note_on_c, 0, 34, 61
1, 697263, Control_c, 0, 64, 118
1, 697281, Control_c, 0, 64, 103
1, 697301, Control_c, 0, 64, 86
1, 697321, Control_c, 0, 64, 72
1, 697322, Control_c, 0, 67, 53
1, 697337, Control_c, 0, 64, 64
1, 697357, Control_c, 0, 64, 57
1, 697375, Control_c, 0, 64, 44
1, 697376, Control_c, 0, 67, 60
1, 697395, Control_c, 0, 64, 17
1, 697413, Control_c, 0, 64, 0
1, 697414, Control_c, 0, 67, 68
1, 697430, Control_c, 0, 67, 73
1, 697437, Note_on_c, 0, 41, 49
1, 697450, Control_c, 0, 67, 78
1, 697469, Control_c, 0, 67, 82
1, 697487, Control_c, 0, 67, 87
1, 697506, Control_c, 0, 67, 91
1, 697525, Control_c, 0, 64, 11
1, 697543, Control_c, 0, 64, 25
1, 697562, Control_c, 0, 64, 36
1, 697581, Control_c, 0, 64, 47
1, 697600, Control_c, 0, 64, 55
1, 697618, Control_c, 0, 64, 63
1, 697637, Note_on_c, 0, 49, 48
1, 697637, Control_c, 0, 64, 69
1, 697656, Control_c, 0, 64, 74
1, 697674, Control_c, 0, 64, 78
1, 697694, Control_c, 0, 64, 81
1, 697712, Control_c, 0, 64, 84
1, 697731, Control_c, 0, 64, 86
1, 697749, Control_c, 0, 67, 87
1, 697768, Control_c, 0, 64, 93
1, 697775, Note_on_c, 0, 53, 34
1, 697787, Control_c, 0, 64, 98
1, 697805, Control_c, 0, 64, 102
1, 697825, Control_c, 0, 64, 107
1, 697826, Control_c, 0, 67, 81
1, 697843, Control_c, 0, 64, 111
1, 697862, Control_c, 0, 64, 115
1, 697863, Control_c, 0, 67, 75
1, 697880, Control_c, 0, 67, 71
1, 697900, Control_c, 0, 64, 121
1, 697901, Control_c, 0, 67, 67
1, 697919, Control_c, 0, 67, 62
1, 697927, Note_on_c, 0, 58, 44
1, 697936, Control_c, 0, 64, 125
1, 697936, Control_c, 0, 67, 57
1, 697943, Note_on_c, 0, 53, 0
1, 697956, Control_c, 0, 67, 52
1, 697974, Control_c, 0, 67, 48
1, 697994, Control_c, 0, 67, 44
1, 698011, Control_c, 0, 67, 39
1, 698030, Control_c, 0, 67, 34
1, 698048, Control_c, 0, 67, 30
1, 698067, Control_c, 0, 67, 26
1, 698083, Note_on_c, 0, 58, 0
1, 698083, Poly_aftertouch_c, 0, 58, 0
1, 698084, Control_c, 0, 67, 22
1, 698092, Note_on_c, 0, 61, 35
1, 698104, Control_c, 0, 67, 16
1, 698124, Control_c, 0, 67, 12
1, 698189, Note_on_c, 0, 61, 0
1, 698189, Poly_aftertouch_c, 0, 61, 0
1, 698200, Note_on_c, 0, 65, 48
1, 698236, Note_on_c, 0, 65, 0
1, 698291, Control_c, 0, 67, 0
1, 698671, Note_on_c, 0, 77, 84
1, 698960, Note_on_c, 0, 77, 0
1, 698991, Note_on_c, 0, 76, 59
1, 699108, Note_on_c, 0, 76, 0
1, 699108, Poly_aftertouch_c, 0, 76, 0
1, 699184, Note_on_c, 0, 75, 23
1, 699262, Note_on_c, 0, 75, 0
1, 699262, Poly_aftertouch_c, 0, 75, 0
1, 699281, Poly_aftertouch_c, 0, 74, 127
1, 699296, Note_on_c, 0, 73, 51
1, 699317, Poly_aftertouch_c, 0, 74, 0
1, 699350, Note_on_c, 0, 73, 0
1, 699350, Poly_aftertouch_c, 0, 73, 0
1, 699376, Note_on_c, 0, 70, 64
1, 699415, Note_on_c, 0, 70, 0
1, 699415, Poly_aftertouch_c, 0, 70, 0
1, 699476, Note_on_c, 0, 65, 53
1, 699508, Note_on_c, 0, 65, 0
1, 699563, Note_on_c, 0, 64, 60
1, 699631, Poly_aftertouch_c, 0, 49, 24
1, 699649, Note_on_c, 0, 63, 67
1, 699650, Note_on_c, 0, 64, 0
1, 699676, Note_on_c, 0, 49, 0
1, 699676, Poly_aftertouch_c, 0, 49, 0
1, 699693, Control_c, 0, 67, 8
1, 699696, Note_on_c, 0, 63, 0
1, 699696, Poly_aftertouch_c, 0, 63, 0
1, 699717, Note_on_c, 0, 61, 68
1, 699741, Note_on_c, 0, 34, 0
1, 699769, Control_c, 0, 67, 13
1, 699778, Note_on_c, 0, 61, 0
1, 699778, Poly_aftertouch_c, 0, 61, 0
1, 699789, Note_on_c, 0, 41, 0
1, 699789, Poly_aftertouch_c, 0, 41, 0
1, 699794, Note_on_c, 0, 58, 59
1, 699806, Control_c, 0, 67, 24
1, 699825, Control_c, 0, 64, 112
1, 699828, Control_c, 0, 67, 35
1, 699843, Control_c, 0, 64, 83
1, 699844, Control_c, 0, 67, 50
1, 699858, Note_on_c, 0, 53, 59
1, 699862, Note_on_c, 0, 58, 0
1, 699862, Poly_aftertouch_c, 0, 58, 0
1, 699862, Control_c, 0, 64, 48
1, 699864, Control_c, 0, 67, 65
1, 699881, Control_c, 0, 64, 0
1, 699881, Control_c, 0, 67, 79
1, 699899, Control_c, 0, 67, 92
1, 699919, Control_c, 0, 67, 104
1, 699927, Note_on_c, 0, 53, 0
1, 699937, Control_c, 0, 67, 115
1, 699953, Note_on_c, 0, 49, 62
1, 699955, Control_c, 0, 67, 122
1, 699971, Note_on_c, 0, 41, 40
1, 699993, Control_c, 0, 67, 127
1, 700000, Note_on_c, 0, 49, 0
1, 700000, Poly_aftertouch_c, 0, 49, 0
1, 700030, Control_c, 0, 64, 33
1, 700046, Note_on_c, 0, 41, 0
1, 700046, Poly_aftertouch_c, 0, 41, 0
1, 700050, Control_c, 0, 64, 61
1, 700054, Note_on_c, 0, 34, 56
1, 700070, Control_c, 0, 64, 75
1, 700086, Control_c, 0, 64, 81
1, 700089, Note_on_c, 0, 34, 0
1, 700106, Control_c, 0, 64, 84
1, 700125, Control_c, 0, 64, 87
1, 700143, Control_c, 0, 64, 93
1, 700161, Control_c, 0, 64, 99
1, 700166, Note_on_c, 0, 65, 49
1, 700172, Note_on_c, 0, 58, 39
1, 700181, Control_c, 0, 64, 104
1, 700188, Note_on_c, 0, 61, 32
1, 700200, Control_c, 0, 64, 108
1, 700216, Note_on_c, 0, 58, 0
1, 700216, Poly_aftertouch_c, 0, 58, 0
1, 700229, Note_on_c, 0, 65, 0
1, 700238, Note_on_c, 0, 61, 0
1, 700238, Poly_aftertouch_c, 0, 61, 0
1, 700255, Control_c, 0, 64, 101
1, 700256, Control_c, 0, 67, 121
1, 700274, Control_c, 0, 64, 77
1, 700283, Note_on_c, 0, 57, 52
1, 700290, Control_c, 0, 64, 16
1, 700292, Control_c, 0, 67, 114
1, 700311, Control_c, 0, 64, 0
1, 700313, Note_on_c, 0, 49, 46
1, 700313, Control_c, 0, 67, 110
1, 700315, Note_on_c, 0, 57, 0
1, 700329, Control_c, 0, 67, 104
1, 700349, Control_c, 0, 67, 97
1, 700350, Note_on_c, 0, 49, 0
1, 700350, Poly_aftertouch_c, 0, 49, 0
1, 700352, Note_on_c, 0, 41, 69
1, 700367, Control_c, 0, 67, 90
1, 700386, Note_on_c, 0, 41, 0
1, 700386, Poly_aftertouch_c, 0, 41, 0
1, 700422, Control_c, 0, 67, 86
1, 700455, Note_on_c, 0, 69, 56
1, 700475, Note_on_c, 0, 61, 34
1, 700481, Note_on_c, 0, 60, 37
1, 700492, Note_on_c, 0, 65, 37
1, 700561, Note_on_c, 0, 60, 0
1, 700561, Poly_aftertouch_c, 0, 60, 0
1, 700578, Note_on_c, 0, 49, 58
1, 700588, Note_on_c, 0, 69, 0
1, 700588, Note_on_c, 0, 41, 41
1, 700588, Poly_aftertouch_c, 0, 69, 0
1, 700611, Control_c, 0, 64, 53
1, 700628, Control_c, 0, 64, 78
1, 700643, Note_on_c, 0, 49, 0
1, 700643, Poly_aftertouch_c, 0, 49, 0
1, 700647, Control_c, 0, 64, 99
1, 700656, Note_on_c, 0, 61, 0
1, 700656, Poly_aftertouch_c, 0, 61, 0
1, 700667, Control_c, 0, 64, 126
1, 700693, Note_on_c, 0, 34, 68
1, 700695, Note_on_c, 0, 41, 0
1, 700695, Poly_aftertouch_c, 0, 41, 0
1, 700698, Note_on_c, 0, 65, 0
1, 700730, Note_on_c, 0, 34, 0
1, 700744, Note_on_c, 0, 58, 67
1, 700749, Note_on_c, 0, 65, 53
1, 700763, Note_on_c, 0, 61, 48
1, 700778, Control_c, 0, 64, 115
1, 700781, Note_on_c, 0, 58, 0
1, 700781, Poly_aftertouch_c, 0, 58, 0
1, 700795, Note_on_c, 0, 65, 0
1, 700797, Control_c, 0, 64, 69
1, 700802, Note_on_c, 0, 61, 0
1, 700802, Poly_aftertouch_c, 0, 61, 0
1, 700816, Control_c, 0, 64, 0
1, 700817, Control_c, 0, 67, 79
1, 700835, Control_c, 0, 67, 73
1, 700854, Control_c, 0, 67, 66
1, 700865, Note_on_c, 0, 56, 62
1, 700873, Control_c, 0, 67, 59
1, 700884, Note_on_c, 0, 49, 50
1, 700892, Control_c, 0, 67, 52
1, 700902, Note_on_c, 0, 56, 0
1, 700902, Poly_aftertouch_c, 0, 56, 0
1, 700909, Control_c, 0, 67, 48
1, 700940, Note_on_c, 0, 49, 0
1, 700940, Poly_aftertouch_c, 0, 49, 0
1, 700945, Note_on_c, 0, 41, 74
1, 700947, Control_c, 0, 67, 42
1, 700974, Note_on_c, 0, 41, 0
1, 700974, Poly_aftertouch_c, 0, 41, 0
1, 700984, Control_c, 0, 67, 37
1, 701023, Note_on_c, 0, 68, 69
1, 701036, Note_on_c, 0, 60, 52
1, 701038, Note_on_c, 0, 61, 42
1, 701059, Control_c, 0, 67, 33
1, 701070, Note_on_c, 0, 65, 36
1, 701109, Note_on_c, 0, 60, 0
1, 701109, Poly_aftertouch_c, 0, 60, 0
1, 701147, Note_on_c, 0, 49, 71
1, 701170, Control_c, 0, 64, 81
1, 701179, Note_on_c, 0, 65, 0
1, 701190, Control_c, 0, 64, 127
1, 701194, Note_on_c, 0, 41, 10
1, 701199, Note_on_c, 0, 61, 0
1, 701199, Poly_aftertouch_c, 0, 61, 0
1, 701208, Control_c, 0, 67, 37
1, 701232, Note_on_c, 0, 49, 0
1, 701232, Poly_aftertouch_c, 0, 49, 0
1, 701255, Note_on_c, 0, 34, 79
1, 701272, Note_on_c, 0, 41, 0
1, 701272, Poly_aftertouch_c, 0, 41, 0
1, 701282, Note_on_c, 0, 68, 0
1, 701283, Note_on_c, 0, 34, 0
1, 701328, Note_on_c, 0, 58, 68
1, 701329, Note_on_c, 0, 65, 71
1, 701334, Note_on_c, 0, 61, 72
1, 701358, Control_c, 0, 64, 94
1, 701366, Note_on_c, 0, 58, 0
1, 701366, Poly_aftertouch_c, 0, 58, 0
1, 701377, Control_c, 0, 64, 0
1, 701379, Control_c, 0, 67, 32
1, 701414, Control_c, 0, 67, 27
1, 701430, Note_on_c, 0, 55, 69
1, 701432, Control_c, 0, 67, 22
1, 701433, Note_on_c, 0, 61, 0
1, 701433, Poly_aftertouch_c, 0, 61, 0
1, 701443, Note_on_c, 0, 49, 62
1, 701451, Control_c, 0, 67, 17
1, 701457, Note_on_c, 0, 65, 0
1, 701462, Note_on_c, 0, 55, 0
1, 701462, Poly_aftertouch_c, 0, 55, 0
1, 701508, Control_c, 0, 67, 12
1, 701515, Note_on_c, 0, 41, 78
1, 701521, Note_on_c, 0, 49, 0
1, 701521, Poly_aftertouch_c, 0, 49, 0
1, 701541, Note_on_c, 0, 41, 0
1, 701541, Poly_aftertouch_c, 0, 41, 0
1, 701566, Note_on_c, 0, 67, 80
1, 701584, Note_on_c, 0, 60, 64
1, 701605, Note_on_c, 0, 61, 61
1, 701654, Note_on_c, 0, 60, 0
1, 701654, Note_on_c, 0, 65, 19
1, 701654, Poly_aftertouch_c, 0, 60, 0
1, 701709, Note_on_c, 0, 49, 74
1, 701712, Control_c, 0, 64, 90
1, 701720, Note_on_c, 0, 41, 50
1, 701726, Note_on_c, 0, 65, 0
1, 701730, Control_c, 0, 64, 127
1, 701735, Note_on_c, 0, 67, 0
1, 701741, Note_on_c, 0, 61, 0
1, 701741, Poly_aftertouch_c, 0, 61, 0
1, 701786, Note_on_c, 0, 49, 0
1, 701786, Poly_aftertouch_c, 0, 49, 0
1, 701811, Note_on_c, 0, 34, 80
1, 701826, Note_on_c, 0, 41, 0
1, 701826, Poly_aftertouch_c, 0, 41, 0
1, 701840, Note_on_c, 0, 34, 0
1, 701885, Note_on_c, 0, 65, 76
1, 701888, Note_on_c, 0, 58, 71
1, 701896, Note_on_c, 0, 61, 67
1, 701922, Note_on_c, 0, 58, 0
1, 701922, Poly_aftertouch_c, 0, 58, 0
1, 701927, Note_on_c, 0, 65, 0
1, 701930, Note_on_c, 0, 61, 0
1, 701930, Poly_aftertouch_c, 0, 61, 0
1, 702021, Note_on_c, 0, 54, 76
1, 702056, Note_on_c, 0, 49, 66
1, 702079, Note_on_c, 0, 54, 0
1, 702079, Poly_aftertouch_c, 0, 54, 0
1, 702152, Note_on_c, 0, 41, 81
1, 702157, Note_on_c, 0, 49, 0
1, 702157, Poly_aftertouch_c, 0, 49, 0
1, 702182, Note_on_c, 0, 41, 0
1, 702182, Poly_aftertouch_c, 0, 41, 0
1, 702378, Note_on_c, 0, 66, 87
1, 702403, Note_on_c, 0, 58, 53
1, 702412, Note_on_c, 0, 54, 47
1, 702412, Note_on_c, 0, 61, 54
1, 702442, Control_c, 0, 64, 108
1, 702462, Control_c, 0, 64, 73
1, 702480, Control_c, 0, 64, 0
1, 702517, Control_c, 0, 67, 17
1, 702561, Note_on_c, 0, 30, 77
1, 702573, Control_c, 0, 64, 14
1, 702594, Control_c, 0, 64, 56
1, 702595, Control_c, 0, 67, 21
1, 702611, Control_c, 0, 64, 77
1, 702630, Control_c, 0, 64, 90
1, 702632, Control_c, 0, 67, 28
1, 702650, Control_c, 0, 64, 104
1, 702651, Control_c, 0, 67, 33
1, 702667, Control_c, 0, 64, 112
1, 702668, Control_c, 0, 67, 38
1, 702686, Control_c, 0, 64, 117
1, 702688, Control_c, 0, 67, 42
1, 702704, Control_c, 0, 64, 122
1, 702706, Poly_aftertouch_c, 0, 29, 0
1, 702722, Control_c, 0, 67, 48
1, 702730, Note_on_c, 0, 42, 76
1, 702741, Note_on_c, 0, 30, 0
1, 702761, Control_c, 0, 64, 126
1, 702770, Note_on_c, 0, 42, 0
1, 702770, Poly_aftertouch_c, 0, 42, 0
1, 702965, Note_on_c, 0, 54, 0
1, 702965, Poly_aftertouch_c, 0, 54, 0
1, 703004, Control_c, 0, 67, 52
1, 703179, Note_on_c, 0, 53, 80
1, 703228, Control_c, 0, 64, 121
1, 703265, Control_c, 0, 64, 114
1, 703267, Control_c, 0, 67, 57
1, 703285, Control_c, 0, 64, 97
1, 703303, Control_c, 0, 64, 70
1, 703321, Control_c, 0, 64, 45
1, 703340, Control_c, 0, 64, 38
1, 703359, Control_c, 0, 64, 49
1, 703361, Control_c, 0, 67, 61
1, 703377, Control_c, 0, 64, 63
1, 703398, Control_c, 0, 64, 79
1, 703415, Control_c, 0, 64, 94
1, 703435, Control_c, 0, 64, 112
1, 703453, Control_c, 0, 64, 124
1, 703454, Control_c, 0, 67, 65
1, 703612, Note_on_c, 0, 52, 73
1, 703620, Control_c, 0, 67, 69
1, 703638, Note_on_c, 0, 53, 0
1, 703658, Control_c, 0, 64, 104
1, 703677, Control_c, 0, 64, 77
1, 703696, Control_c, 0, 64, 67
1, 703715, Control_c, 0, 64, 69
1, 703733, Control_c, 0, 64, 74
1, 703752, Control_c, 0, 64, 81
1, 703771, Control_c, 0, 64, 90
1, 703771, Control_c, 0, 67, 65
1, 703788, Control_c, 0, 64, 102
1, 703808, Control_c, 0, 64, 114
1, 703826, Control_c, 0, 64, 119
1, 703838, Note_on_c, 0, 51, 71
1, 703844, Control_c, 0, 64, 114
1, 703862, Note_on_c, 0, 52, 0
1, 703862, Poly_aftertouch_c, 0, 52, 0
1, 703863, Control_c, 0, 64, 100
1, 703882, Control_c, 0, 64, 77
1, 703901, Control_c, 0, 64, 65
1, 703919, Control_c, 0, 64, 67
1, 703938, Control_c, 0, 64, 71
1, 703940, Note_on_c, 0, 51, 0
1, 703940, Poly_aftertouch_c, 0, 51, 0
1, 703958, Control_c, 0, 64, 76
1, 703976, Control_c, 0, 64, 84
1, 703994, Control_c, 0, 64, 95
1, 704014, Control_c, 0, 64, 108
1, 704029, Note_on_c, 0, 49, 77
1, 704031, Control_c, 0, 64, 114
1, 704051, Control_c, 0, 64, 106
1, 704069, Control_c, 0, 64, 87
1, 704089, Control_c, 0, 64, 64
1, 704108, Control_c, 0, 64, 60
1, 704125, Control_c, 0, 64, 61
1, 704144, Control_c, 0, 64, 66
1, 704163, Control_c, 0, 64, 71
1, 704181, Control_c, 0, 64, 79
1, 704201, Control_c, 0, 64, 88
1, 704204, Control_c, 0, 67, 61
1, 704218, Note_on_c, 0, 46, 66
1, 704218, Control_c, 0, 64, 96
1, 704238, Note_on_c, 0, 49, 0
1, 704238, Poly_aftertouch_c, 0, 49, 0
1, 704255, Control_c, 0, 64, 80
1, 704263, Note_on_c, 0, 66, 0
1, 704277, Control_c, 0, 64, 57
1, 704294, Control_c, 0, 64, 41
1, 704312, Control_c, 0, 67, 57
1, 704332, Control_c, 0, 64, 49
1, 704350, Control_c, 0, 64, 60
1, 704369, Control_c, 0, 64, 72
1, 704387, Control_c, 0, 64, 80
1, 704406, Control_c, 0, 64, 83
1, 704410, Note_on_c, 0, 61, 0
1, 704410, Note_on_c, 0, 58, 0
1, 704410, Poly_aftertouch_c, 0, 58, 0
1, 704410, Poly_aftertouch_c, 0, 61, 0
1, 704424, Note_on_c, 0, 42, 68
1, 704424, Control_c, 0, 64, 77
1, 704425, Control_c, 0, 67, 53
1, 704440, Note_on_c, 0, 46, 0
1, 704440, Poly_aftertouch_c, 0, 46, 0
1, 704443, Control_c, 0, 64, 63
1, 704462, Control_c, 0, 64, 37
1, 704481, Control_c, 0, 64, 17
1, 704500, Control_c, 0, 67, 48
1, 704518, Control_c, 0, 64, 28
1, 704537, Control_c, 0, 64, 39
1, 704556, Control_c, 0, 64, 52
1, 704575, Control_c, 0, 64, 61
1, 704592, Control_c, 0, 64, 66
1, 704612, Control_c, 0, 64, 68
1, 704613, Control_c, 0, 67, 44
1, 704649, Control_c, 0, 64, 71
1, 704667, Control_c, 0, 64, 74
1, 704687, Control_c, 0, 64, 76
1, 704688, Control_c, 0, 67, 40
1, 704706, Control_c, 0, 64, 79
1, 704723, Control_c, 0, 64, 81
1, 704743, Control_c, 0, 64, 83
1, 704744, Control_c, 0, 67, 36
1, 704762, Control_c, 0, 64, 86
1, 704780, Control_c, 0, 67, 32
1, 704800, Control_c, 0, 64, 94
1, 704817, Control_c, 0, 67, 27
1, 704837, Control_c, 0, 64, 102
1, 704855, Control_c, 0, 64, 106
1, 704856, Control_c, 0, 67, 22
1, 704892, Control_c, 0, 64, 112
1, 704893, Control_c, 0, 67, 18
1, 704930, Control_c, 0, 64, 117
1, 704931, Control_c, 0, 67, 14
1, 704986, Control_c, 0, 64, 122
1, 704987, Control_c, 0, 67, 10
1, 705096, Note_on_c, 0, 60, 56
1, 705410, Note_on_c, 0, 42, 0
1, 705410, Poly_aftertouch_c, 0, 42, 0
1, 705455, Note_on_c, 0, 59, 64
1, 705472, Control_c, 0, 67, 0
1, 705631, Note_on_c, 0, 60, 0
1, 705631, Poly_aftertouch_c, 0, 60, 0
1, 705637, Note_on_c, 0, 58, 68
1, 705692, Note_on_c, 0, 59, 0
1, 705802, Note_on_c, 0, 54, 74
1, 705814, Note_on_c, 0, 58, 0
1, 705814, Poly_aftertouch_c, 0, 58, 0
1, 705884, Control_c, 0, 64, 126
1, 705946, Note_on_c, 0, 54, 0
1, 705946, Poly_aftertouch_c, 0, 54, 0
1, 705948, Note_on_c, 0, 49, 77
1, 706007, Note_on_c, 0, 49, 0
1, 706007, Poly_aftertouch_c, 0, 49, 0
1, 706155, Note_on_c, 0, 65, 78
1, 706334, Note_on_c, 0, 64, 77
1, 706391, Note_on_c, 0, 65, 0
1, 706470, Note_on_c, 0, 63, 82
1, 706496, Note_on_c, 0, 64, 0
1, 706597, Note_on_c, 0, 61, 82
1, 706608, Note_on_c, 0, 63, 0
1, 706608, Poly_aftertouch_c, 0, 63, 0
1, 706711, Note_on_c, 0, 61, 0
1, 706711, Poly_aftertouch_c, 0, 61, 0
1, 706718, Note_on_c, 0, 58, 79
1, 706827, Note_on_c, 0, 56, 82
1, 706861, Note_on_c, 0, 58, 0
1, 706861, Poly_aftertouch_c, 0, 58, 0
1, 706903, Note_on_c, 0, 39, 72
1, 706988, Note_on_c, 0, 46, 77
1, 707043, Control_c, 0, 64, 119
1, 707062, Control_c, 0, 64, 102
1, 707072, Note_on_c, 0, 55, 71
1, 707079, Control_c, 0, 64, 75
1, 707095, Note_on_c, 0, 56, 0
1, 707095, Poly_aftertouch_c, 0, 56, 0
1, 707097, Control_c, 0, 64, 43
1, 707118, Control_c, 0, 64, 0
1, 707150, Note_on_c, 0, 61, 70
1, 707173, Control_c, 0, 64, 37
1, 707193, Control_c, 0, 64, 69
1, 707207, Note_on_c, 0, 64, 80
1, 707211, Control_c, 0, 64, 97
1, 707222, Note_on_c, 0, 55, 0
1, 707222, Poly_aftertouch_c, 0, 55, 0
1, 707229, Control_c, 0, 64, 127
1, 707249, Note_on_c, 0, 61, 0
1, 707249, Poly_aftertouch_c, 0, 61, 0
1, 707265, Note_on_c, 0, 64, 0
1, 707490, Note_on_c, 0, 73, 87
1, 707643, Note_on_c, 0, 73, 0
1, 707643, Poly_aftertouch_c, 0, 73, 0
1, 707732, Note_on_c, 0, 46, 0
1, 707732, Poly_aftertouch_c, 0, 46, 0
1, 707774, Note_on_c, 0, 72, 87
1, 707851, Note_on_c, 0, 39, 0
1, 707851, Poly_aftertouch_c, 0, 39, 0
1, 707940, Note_on_c, 0, 71, 80
1, 708004, Note_on_c, 0, 72, 0
1, 708077, Note_on_c, 0, 70, 85
1, 708082, Note_on_c, 0, 71, 0
1, 708200, Note_on_c, 0, 61, 88
1, 708312, Note_on_c, 0, 33, 86
1, 708313, Control_c, 0, 64, 121
1, 708320, Note_on_c, 0, 70, 0
1, 708320, Poly_aftertouch_c, 0, 70, 0
1, 708333, Control_c, 0, 64, 80
1, 708351, Control_c, 0, 64, 21
1, 708363, Note_on_c, 0, 61, 0
1, 708363, Poly_aftertouch_c, 0, 61, 0
1, 708369, Control_c, 0, 64, 0
1, 708389, Control_c, 0, 64, 39
1, 708407, Control_c, 0, 64, 72
1, 708426, Control_c, 0, 64, 96
1, 708444, Control_c, 0, 64, 127
1, 708473, Note_on_c, 0, 40, 66
1, 708498, Note_on_c, 0, 33, 0
1, 708568, Note_on_c, 0, 48, 73
1, 708577, Note_on_c, 0, 40, 0
1, 708602, Note_on_c, 0, 48, 0
1, 708602, Poly_aftertouch_c, 0, 48, 0
1, 708628, Note_on_c, 0, 52, 74
1, 708698, Note_on_c, 0, 57, 70
1, 708715, Note_on_c, 0, 52, 0
1, 708715, Poly_aftertouch_c, 0, 52, 0
1, 708746, Note_on_c, 0, 60, 75
1, 708859, Note_on_c, 0, 64, 93
1, 708876, Note_on_c, 0, 57, 0
1, 708885, Note_on_c, 0, 60, 0
1, 708885, Poly_aftertouch_c, 0, 60, 0
1, 708900, Note_on_c, 0, 64, 0
1, 709182, Note_on_c, 0, 88, 89
1, 709384, Note_on_c, 0, 76, 97
1, 709397, Note_on_c, 0, 87, 76
1, 709413, Note_on_c, 0, 88, 0
1, 709501, Note_on_c, 0, 87, 0
1, 709501, Poly_aftertouch_c, 0, 87, 0
1, 709574, Note_on_c, 0, 86, 67
1, 709579, Note_on_c, 0, 88, 60
1, 709604, Note_on_c, 0, 88, 0
1, 709694, Note_on_c, 0, 75, 93
1, 709713, Note_on_c, 0, 85, 49
1, 709724, Note_on_c, 0, 76, 0
1, 709724, Poly_aftertouch_c, 0, 76, 0
1, 709749, Note_on_c, 0, 85, 0
1, 709755, Note_on_c, 0, 86, 0
1, 709755, Poly_aftertouch_c, 0, 86, 0
1, 709836, Note_on_c, 0, 84, 74
1, 709923, Note_on_c, 0, 74, 94
1, 709938, Note_on_c, 0, 84, 0
1, 709940, Note_on_c, 0, 81, 70
1, 709973, Note_on_c, 0, 75, 0
1, 709973, Poly_aftertouch_c, 0, 75, 0
1, 710030, Note_on_c, 0, 81, 0
1, 710030, Poly_aftertouch_c, 0, 81, 0
1, 710060, Note_on_c, 0, 74, 0
1, 710060, Note_on_c, 0, 76, 72
1, 710144, Note_on_c, 0, 72, 91
1, 710192, Note_on_c, 0, 76, 0
1, 710192, Poly_aftertouch_c, 0, 76, 0
1, 710202, Control_c, 0, 64, 104
1, 710221, Control_c, 0, 64, 62
1, 710241, Control_c, 0, 64, 28
1, 710259, Control_c, 0, 64, 45
1, 710271, Note_on_c, 0, 75, 70
1, 710278, Control_c, 0, 64, 65
1, 710297, Control_c, 0, 64, 81
1, 710315, Control_c, 0, 64, 96
1, 710334, Control_c, 0, 64, 121
1, 710341, Note_on_c, 0, 75, 0
1, 710341, Poly_aftertouch_c, 0, 75, 0
1, 710353, Control_c, 0, 64, 127
1, 710362, Note_on_c, 0, 72, 0
1, 710370, Note_on_c, 0, 74, 71
1, 710439, Note_on_c, 0, 74, 0
1, 710494, Note_on_c, 0, 73, 71
1, 710496, Note_on_c, 0, 69, 73
1, 710543, Note_on_c, 0, 69, 0
1, 710543, Poly_aftertouch_c, 0, 69, 0
1, 710550, Note_on_c, 0, 73, 0
1, 710550, Poly_aftertouch_c, 0, 73, 0
1, 710601, Note_on_c, 0, 64, 88
1, 710621, Note_on_c, 0, 72, 62
1, 710629, Note_on_c, 0, 64, 0
1, 710672, Note_on_c, 0, 72, 0
1, 710696, Note_on_c, 0, 69, 72
1, 710753, Note_on_c, 0, 69, 0
1, 710753, Poly_aftertouch_c, 0, 69, 0
1, 710792, Note_on_c, 0, 64, 65
1, 710864, Note_on_c, 0, 64, 0
1, 710901, Note_on_c, 0, 63, 68
1, 710952, Note_on_c, 0, 63, 0
1, 710952, Poly_aftertouch_c, 0, 63, 0
1, 710996, Note_on_c, 0, 62, 68
1, 711035, Note_on_c, 0, 62, 0
1, 711094, Note_on_c, 0, 60, 70
1, 711153, Note_on_c, 0, 60, 0
1, 711153, Poly_aftertouch_c, 0, 60, 0
1, 711209, Note_on_c, 0, 57, 68
1, 711274, Note_on_c, 0, 57, 0
1, 711316, Note_on_c, 0, 52, 71
1, 711456, Control_c, 0, 64, 98
1, 711457, Control_c, 0, 67, 10
1, 711475, Control_c, 0, 64, 53
1, 711477, Control_c, 0, 67, 14
1, 711493, Control_c, 0, 64, 0
1, 711493, Control_c, 0, 67, 19
1, 711511, Control_c, 0, 64, 16
1, 711513, Control_c, 0, 67, 28
1, 711531, Control_c, 0, 64, 41
1, 711532, Control_c, 0, 67, 40
1, 711551, Control_c, 0, 64, 67
1, 711552, Control_c, 0, 67, 52
1, 711567, Control_c, 0, 64, 85
1, 711569, Control_c, 0, 67, 65
1, 711586, Control_c, 0, 64, 103
1, 711588, Control_c, 0, 67, 75
1, 711606, Control_c, 0, 64, 120
1, 711608, Control_c, 0, 67, 82
1, 711625, Control_c, 0, 64, 127
1, 711625, Control_c, 0, 67, 87
1, 711660, Control_c, 0, 67, 92
1, 711698, Control_c, 0, 67, 96
1, 711736, Control_c, 0, 64, 119
1, 711737, Control_c, 0, 67, 101
1, 711755, Control_c, 0, 64, 112
1, 711772, Control_c, 0, 64, 96
1, 711773, Control_c, 0, 67, 106
1, 711782, Note_on_c, 0, 51, 66
1, 711783, Note_on_c, 0, 52, 0
1, 711783, Poly_aftertouch_c, 0, 52, 0
1, 711790, Control_c, 0, 64, 74
1, 711810, Control_c, 0, 64, 51
1, 711830, Control_c, 0, 64, 16
1, 711867, Control_c, 0, 64, 32
1, 711885, Control_c, 0, 64, 56
1, 711904, Control_c, 0, 64, 78
1, 711912, Note_on_c, 0, 51, 0
1, 711912, Poly_aftertouch_c, 0, 51, 0
1, 711923, Control_c, 0, 64, 92
1, 711933, Note_on_c, 0, 52, 66
1, 711941, Control_c, 0, 64, 110
1, 711961, Control_c, 0, 64, 120
1, 711998, Control_c, 0, 64, 103
1, 712016, Control_c, 0, 64, 69
1, 712035, Control_c, 0, 64, 0
1, 712071, Note_on_c, 0, 53, 57
1, 712076, Note_on_c, 0, 52, 0
1, 712076, Poly_aftertouch_c, 0, 52, 0
1, 712092, Control_c, 0, 64, 22
1, 712111, Control_c, 0, 64, 57
1, 712112, Control_c, 0, 67, 102
1, 712129, Control_c, 0, 64, 84
1, 712148, Control_c, 0, 64, 96
1, 712160, Note_on_c, 0, 53, 0
1, 712162, Note_on_c, 0, 38, 45
1, 712166, Control_c, 0, 64, 101
1, 712184, Control_c, 0, 64, 90
1, 712204, Control_c, 0, 64, 68
1, 712223, Control_c, 0, 64, 46
1, 712224, Control_c, 0, 67, 98
1, 712240, Control_c, 0, 64, 52
1, 712260, Control_c, 0, 64, 64
1, 712278, Control_c, 0, 64, 76
1, 712283, Note_on_c, 0, 45, 46
1, 712297, Control_c, 0, 64, 86
1, 712315, Control_c, 0, 64, 97
1, 712334, Control_c, 0, 64, 104
1, 712335, Control_c, 0, 67, 93
1, 712371, Control_c, 0, 64, 108
1, 712391, Note_on_c, 0, 54, 53
1, 712408, Control_c, 0, 64, 112
1, 712484, Control_c, 0, 64, 107
1, 712503, Control_c, 0, 64, 94
1, 712521, Control_c, 0, 64, 69
1, 712534, Note_on_c, 0, 60, 49
1, 712540, Control_c, 0, 64, 33
1, 712559, Control_c, 0, 64, 23
1, 712578, Control_c, 0, 64, 42
1, 712596, Control_c, 0, 64, 64
1, 712614, Control_c, 0, 64, 83
1, 712634, Control_c, 0, 64, 98
1, 712653, Control_c, 0, 64, 114
1, 712656, Note_on_c, 0, 60, 0
1, 712656, Poly_aftertouch_c, 0, 60, 0
1, 712660, Note_on_c, 0, 63, 56
1, 712671, Control_c, 0, 64, 124
1, 712683, Note_on_c, 0, 54, 0
1, 712683, Poly_aftertouch_c, 0, 54, 0
1, 712707, Note_on_c, 0, 63, 0
1, 712707, Poly_aftertouch_c, 0, 63, 0
1, 712919, Note_on_c, 0, 45, 0
1, 712974, Poly_aftertouch_c, 0, 38, 24
1, 713041, Note_on_c, 0, 38, 0
1, 713041, Poly_aftertouch_c, 0, 38, 0
1, 713044, Note_on_c, 0, 72, 55
1, 713409, Note_on_c, 0, 71, 57
1, 713436, Note_on_c, 0, 72, 0
1, 713640, Note_on_c, 0, 70, 59
1, 713658, Note_on_c, 0, 71, 0
1, 713806, Note_on_c, 0, 70, 0
1, 713806, Poly_aftertouch_c, 0, 70, 0
1, 713821, Note_on_c, 0, 69, 48
1, 713907, Note_on_c, 0, 69, 0
1, 713907, Poly_aftertouch_c, 0, 69, 0
1, 713931, Note_on_c, 0, 60, 62
1, 713973, Note_on_c, 0, 60, 0
1, 713973, Poly_aftertouch_c, 0, 60, 0
1, 714092, Note_on_c, 0, 30, 50
1, 714185, Control_c, 0, 64, 119
1, 714203, Control_c, 0, 64, 109
1, 714211, Note_on_c, 0, 42, 51
1, 714223, Control_c, 0, 64, 80
1, 714242, Control_c, 0, 64, 31
1, 714260, Control_c, 0, 64, 0
1, 714280, Control_c, 0, 64, 33
1, 714284, Note_on_c, 0, 51, 45
1, 714299, Control_c, 0, 64, 54
1, 714316, Control_c, 0, 64, 72
1, 714335, Control_c, 0, 64, 81
1, 714353, Note_on_c, 0, 54, 56
1, 714353, Control_c, 0, 64, 89
1, 714356, Note_on_c, 0, 30, 0
1, 714372, Control_c, 0, 64, 96
1, 714391, Control_c, 0, 64, 103
1, 714393, Note_on_c, 0, 51, 0
1, 714393, Poly_aftertouch_c, 0, 51, 0
1, 714409, Control_c, 0, 64, 109
1, 714442, Note_on_c, 0, 59, 56
1, 714447, Control_c, 0, 64, 113
1, 714453, Note_on_c, 0, 42, 0
1, 714453, Poly_aftertouch_c, 0, 42, 0
1, 714485, Control_c, 0, 64, 119
1, 714503, Control_c, 0, 64, 123
1, 714518, Note_on_c, 0, 54, 0
1, 714518, Poly_aftertouch_c, 0, 54, 0
1, 714522, Control_c, 0, 64, 127
1, 714549, Note_on_c, 0, 63, 68
1, 714555, Note_on_c, 0, 59, 0
1, 714590, Note_on_c, 0, 63, 0
1, 714590, Poly_aftertouch_c, 0, 63, 0
1, 714727, Control_c, 0, 67, 88
1, 714746, Control_c, 0, 67, 83
1, 714765, Control_c, 0, 67, 78
1, 714784, Control_c, 0, 67, 73
1, 714822, Control_c, 0, 67, 68
1, 714858, Control_c, 0, 67, 63
1, 714886, Note_on_c, 0, 62, 51
1, 714896, Control_c, 0, 67, 59
1, 714933, Control_c, 0, 67, 55
1, 714941, Note_on_c, 0, 62, 0
1, 714971, Control_c, 0, 67, 50
1, 715008, Control_c, 0, 67, 45
1, 715019, Note_on_c, 0, 75, 68
1, 715063, Control_c, 0, 67, 41
1, 715120, Control_c, 0, 67, 35
1, 715129, Poly_aftertouch_c, 0, 73, 0
1, 715158, Note_on_c, 0, 61, 47
1, 715158, Control_c, 0, 67, 30
1, 715173, Note_on_c, 0, 75, 0
1, 715173, Poly_aftertouch_c, 0, 75, 0
1, 715195, Control_c, 0, 67, 25
1, 715198, Note_on_c, 0, 61, 0
1, 715198, Poly_aftertouch_c, 0, 61, 0
1, 715233, Control_c, 0, 67, 17
1, 715252, Control_c, 0, 67, 12
1, 715269, Control_c, 0, 67, 8
1, 715386, Note_on_c, 0, 59, 45
1, 715433, Note_on_c, 0, 59, 0
1, 715475, Control_c, 0, 67, 0
1, 715499, Note_on_c, 0, 74, 66
1, 715651, Note_on_c, 0, 51, 44
1, 715697, Note_on_c, 0, 51, 0
1, 715697, Poly_aftertouch_c, 0, 51, 0
1, 715764, Note_on_c, 0, 73, 75
1, 715790, Note_on_c, 0, 74, 0
1, 715830, Note_on_c, 0, 73, 0
1, 715857, Note_on_c, 0, 42, 63
1, 715903, Note_on_c, 0, 42, 0
1, 715903, Poly_aftertouch_c, 0, 42, 0
1, 716049, Note_on_c, 0, 71, 71
1, 716220, Note_on_c, 0, 68, 73
1, 716233, Note_on_c, 0, 59, 60
1, 716257, Note_on_c, 0, 71, 0
1, 716261, Note_on_c, 0, 59, 0
1, 716303, Note_on_c, 0, 68, 0
1, 716369, Note_on_c, 0, 69, 70
1, 716375, Note_on_c, 0, 60, 63
1, 716409, Note_on_c, 0, 60, 0
1, 716409, Poly_aftertouch_c, 0, 60, 0
1, 716433, Note_on_c, 0, 69, 0
1, 716433, Poly_aftertouch_c, 0, 69, 0
1, 716495, Note_on_c, 0, 66, 76
1, 716615, Control_c, 0, 64, 122
1, 716620, Note_on_c, 0, 61, 61
1, 716620, Note_on_c, 0, 70, 79
1, 716635, Control_c, 0, 64, 90
1, 716641, Note_on_c, 0, 64, 51
1, 716654, Control_c, 0, 64, 57
1, 716664, Note_on_c, 0, 61, 0
1, 716664, Poly_aftertouch_c, 0, 61, 0
1, 716671, Control_c, 0, 64, 55
1, 716690, Control_c, 0, 64, 70
1, 716696, Note_on_c, 0, 71, 33
1, 716710, Note_on_c, 0, 64, 0
1, 716710, Control_c, 0, 64, 85
1, 716729, Control_c, 0, 64, 99
1, 716747, Control_c, 0, 64, 120
1, 716752, Note_on_c, 0, 71, 0
1, 716758, Note_on_c, 0, 70, 0
1, 716758, Poly_aftertouch_c, 0, 70, 0
1, 716766, Control_c, 0, 64, 127
1, 716775, Note_on_c, 0, 66, 0
1, 716875, Note_on_c, 0, 65, 70
1, 716941, Note_on_c, 0, 65, 0
1, 716976, Note_on_c, 0, 78, 84
1, 717120, Note_on_c, 0, 64, 70
1, 717151, Note_on_c, 0, 64, 0
1, 717279, Note_on_c, 0, 78, 0
1, 717286, Note_on_c, 0, 58, 71
1, 717365, Note_on_c, 0, 58, 0
1, 717365, Poly_aftertouch_c, 0, 58, 0
1, 717420, Note_on_c, 0, 52, 69
1, 717465, Note_on_c, 0, 52, 0
1, 717465, Poly_aftertouch_c, 0, 52, 0
1, 717472, Note_on_c, 0, 77, 82
1, 717598, Note_on_c, 0, 42, 76
1, 717633, Note_on_c, 0, 42, 0
1, 717633, Poly_aftertouch_c, 0, 42, 0
1, 717656, Note_on_c, 0, 77, 0
1, 717766, Note_on_c, 0, 76, 83
1, 717949, Note_on_c, 0, 71, 81
1, 717958, Note_on_c, 0, 67, 65
1, 717970, Note_on_c, 0, 76, 0
1, 717970, Poly_aftertouch_c, 0, 76, 0
1, 717994, Note_on_c, 0, 67, 0
1, 718026, Note_on_c, 0, 71, 0
1, 718089, Note_on_c, 0, 68, 78
1, 718089, Note_on_c, 0, 72, 82
1, 718119, Note_on_c, 0, 68, 0
1, 718176, Note_on_c, 0, 72, 0
1, 718219, Note_on_c, 0, 68, 86
1, 718224, Note_on_c, 0, 57, 67
1, 718226, Note_on_c, 0, 63, 72
1, 718299, Control_c, 0, 64, 94
1, 718314, Note_on_c, 0, 73, 87
1, 718318, Control_c, 0, 64, 57
1, 718337, Control_c, 0, 64, 20
1, 718354, Control_c, 0, 64, 32
1, 718374, Control_c, 0, 64, 54
1, 718392, Control_c, 0, 64, 76
1, 718393, Note_on_c, 0, 63, 0
1, 718393, Poly_aftertouch_c, 0, 63, 0
1, 718411, Control_c, 0, 64, 91
1, 718414, Note_on_c, 0, 57, 0
1, 718417, Note_on_c, 0, 68, 0
1, 718430, Control_c, 0, 64, 113
1, 718448, Control_c, 0, 64, 127
1, 718485, Note_on_c, 0, 73, 0
1, 718517, Note_on_c, 0, 69, 80
1, 718521, Note_on_c, 0, 66, 77
1, 718604, Note_on_c, 0, 69, 0
1, 718604, Poly_aftertouch_c, 0, 69, 0
1, 718647, Note_on_c, 0, 66, 0
1, 718674, Note_on_c, 0, 81, 82
1, 718679, Note_on_c, 0, 72, 73
1, 718685, Note_on_c, 0, 63, 79
1, 718709, Note_on_c, 0, 72, 0
1, 718713, Note_on_c, 0, 63, 0
1, 718713, Poly_aftertouch_c, 0, 63, 0
1, 718834, Note_on_c, 0, 73, 86
1, 718837, Note_on_c, 0, 57, 80
1, 718882, Note_on_c, 0, 81, 0
1, 718882, Poly_aftertouch_c, 0, 81, 0
1, 718896, Note_on_c, 0, 57, 0
1, 718971, Note_on_c, 0, 45, 72
1, 718972, Note_on_c, 0, 80, 82
1, 719006, Note_on_c, 0, 45, 0
1, 719009, Note_on_c, 0, 73, 0
1, 719123, Note_on_c, 0, 78, 89
1, 719139, Note_on_c, 0, 72, 67
1, 719156, Note_on_c, 0, 80, 0
1, 719156, Poly_aftertouch_c, 0, 80, 0
1, 719167, Note_on_c, 0, 72, 0
1, 719289, Note_on_c, 0, 72, 88
1, 719296, Note_on_c, 0, 65, 73
1, 719308, Note_on_c, 0, 61, 69
1, 719364, Control_c, 0, 64, 109
1, 719384, Control_c, 0, 64, 80
1, 719392, Note_on_c, 0, 77, 91
1, 719403, Control_c, 0, 64, 40
1, 719408, Note_on_c, 0, 78, 0
1, 719420, Control_c, 0, 64, 0
1, 719458, Control_c, 0, 64, 23
1, 719478, Control_c, 0, 64, 62
1, 719495, Control_c, 0, 64, 89
1, 719514, Control_c, 0, 64, 119
1, 719533, Control_c, 0, 64, 127
1, 719545, Note_on_c, 0, 72, 0
1, 719599, Note_on_c, 0, 70, 80
1, 719608, Note_on_c, 0, 73, 88
1, 719631, Note_on_c, 0, 77, 0
1, 719722, Note_on_c, 0, 73, 0
1, 719765, Note_on_c, 0, 70, 0
1, 719765, Poly_aftertouch_c, 0, 70, 0
1, 719802, Note_on_c, 0, 68, 73
1, 719806, Note_on_c, 0, 76, 80
1, 719808, Note_on_c, 0, 85, 91
1, 719843, Note_on_c, 0, 68, 0
1, 719856, Note_on_c, 0, 65, 0
1, 719866, Note_on_c, 0, 61, 0
1, 719866, Poly_aftertouch_c, 0, 61, 0
1, 719889, Note_on_c, 0, 76, 0
1, 719889, Poly_aftertouch_c, 0, 76, 0
1, 720097, Note_on_c, 0, 61, 69
1, 720116, Note_on_c, 0, 77, 83
1, 720168, Note_on_c, 0, 85, 0
1, 720283, Note_on_c, 0, 61, 0
1, 720283, Poly_aftertouch_c, 0, 61, 0
1, 720387, Note_on_c, 0, 53, 65
1, 720476, Note_on_c, 0, 84, 92
1, 720492, Note_on_c, 0, 72, 68
1, 720605, Poly_aftertouch_c, 0, 82, 127
1, 720626, Poly_aftertouch_c, 0, 82, 0
1, 720627, Note_on_c, 0, 84, 0
1, 720634, Note_on_c, 0, 72, 0
1, 720634, Poly_aftertouch_c, 0, 72, 0
1, 720657, Note_on_c, 0, 44, 68
1, 720687, Note_on_c, 0, 53, 0
1, 720750, Note_on_c, 0, 83, 97
1, 720766, Note_on_c, 0, 71, 80
1, 720781, Note_on_c, 0, 77, 0
1, 720808, Note_on_c, 0, 44, 0
1, 720808, Poly_aftertouch_c, 0, 44, 0
1, 720868, Note_on_c, 0, 71, 0
1, 720910, Note_on_c, 0, 83, 0
1, 720915, Note_on_c, 0, 43, 86
1, 720973, Control_c, 0, 64, 94
1, 720992, Control_c, 0, 64, 25
1, 721010, Control_c, 0, 64, 0
1, 721021, Note_on_c, 0, 82, 96
1, 721029, Control_c, 0, 64, 57
1, 721033, Note_on_c, 0, 70, 73
1, 721044, Note_on_c, 0, 75, 65
1, 721048, Control_c, 0, 64, 100
1, 721062, Note_on_c, 0, 70, 0
1, 721062, Poly_aftertouch_c, 0, 70, 0
1, 721066, Control_c, 0, 64, 127
1, 721085, Note_on_c, 0, 75, 0
1, 721085, Poly_aftertouch_c, 0, 75, 0
1, 721162, Note_on_c, 0, 82, 0
1, 721264, Note_on_c, 0, 51, 83
1, 721282, Note_on_c, 0, 43, 0
1, 721282, Note_on_c, 0, 50, 29
1, 721282, Poly_aftertouch_c, 0, 43, 0
1, 721333, Note_on_c, 0, 50, 0
1, 721333, Poly_aftertouch_c, 0, 50, 0
1, 721445, Note_on_c, 0, 87, 95
1, 721452, Note_on_c, 0, 75, 77
1, 721461, Note_on_c, 0, 85, 69
1, 721549, Note_on_c, 0, 51, 0
1, 721549, Poly_aftertouch_c, 0, 51, 0
1, 721556, Note_on_c, 0, 85, 0
1, 721568, Poly_aftertouch_c, 0, 88, 0
1, 721581, Note_on_c, 0, 75, 0
1, 721581, Poly_aftertouch_c, 0, 75, 0
1, 721587, Note_on_c, 0, 58, 80
1, 721603, Note_on_c, 0, 87, 0
1, 721603, Poly_aftertouch_c, 0, 87, 0
1, 721620, Note_on_c, 0, 58, 0
1, 721620, Poly_aftertouch_c, 0, 58, 0
1, 721759, Note_on_c, 0, 62, 82
1, 721760, Note_on_c, 0, 86, 92
1, 721774, Note_on_c, 0, 74, 75
1, 721778, Note_on_c, 0, 83, 70
1, 721814, Note_on_c, 0, 74, 0
1, 721895, Note_on_c, 0, 83, 0
1, 721899, Note_on_c, 0, 86, 0
1, 721899, Poly_aftertouch_c, 0, 86, 0
1, 721915, Note_on_c, 0, 62, 0
1, 721916, Poly_aftertouch_c, 0, 62, 0
1, 721921, Note_on_c, 0, 63, 75
1, 721998, Note_on_c, 0, 85, 91
1, 722004, Note_on_c, 0, 73, 80
1, 722009, Note_on_c, 0, 82, 72
1, 722032, Note_on_c, 0, 73, 0
1, 722038, Note_on_c, 0, 82, 0
1, 722058, Note_on_c, 0, 85, 0
1, 722112, Note_on_c, 0, 70, 78
1, 722143, Note_on_c, 0, 63, 0
1, 722143, Poly_aftertouch_c, 0, 63, 0
1, 722144, Note_on_c, 0, 70, 0
1, 722144, Poly_aftertouch_c, 0, 70, 0
1, 722365, Note_on_c, 0, 75, 86
1, 722373, Note_on_c, 0, 74, 67
1, 722786, Note_on_c, 0, 61, 63
1, 722880, Note_on_c, 0, 73, 69
1, 722899, Control_c, 0, 64, 108
1, 722907, Note_on_c, 0, 74, 0
1, 722917, Control_c, 0, 64, 81
1, 722937, Control_c, 0, 64, 84
1, 722955, Control_c, 0, 64, 102
1, 722974, Control_c, 0, 64, 124
1, 723010, Note_on_c, 0, 61, 0
1, 723010, Poly_aftertouch_c, 0, 61, 0
1, 723086, Note_on_c, 0, 75, 0
1, 723086, Poly_aftertouch_c, 0, 75, 0
1, 723086, Control_c, 0, 64, 118
1, 723103, Note_on_c, 0, 51, 54
1, 723103, Control_c, 0, 64, 99
1, 723128, Note_on_c, 0, 73, 0
1, 723140, Note_on_c, 0, 72, 67
1, 723141, Control_c, 0, 64, 110
1, 723160, Control_c, 0, 64, 124
1, 723181, Note_on_c, 0, 51, 0
1, 723181, Poly_aftertouch_c, 0, 51, 0
1, 723242, Note_on_c, 0, 72, 0
1, 723345, Note_on_c, 0, 43, 48
1, 723387, Note_on_c, 0, 74, 63
1, 723398, Note_on_c, 0, 72, 52
1, 723403, Control_c, 0, 64, 111
1, 723423, Control_c, 0, 64, 80
1, 723442, Control_c, 0, 64, 45
1, 723460, Control_c, 0, 64, 0
1, 723479, Control_c, 0, 64, 22
1, 723497, Control_c, 0, 64, 53
1, 723515, Control_c, 0, 64, 77
1, 723534, Control_c, 0, 64, 94
1, 723553, Control_c, 0, 64, 109
1, 723573, Control_c, 0, 64, 115
1, 723621, Note_on_c, 0, 43, 0
1, 723621, Poly_aftertouch_c, 0, 43, 0
1, 723624, Note_on_c, 0, 50, 49
1, 723699, Note_on_c, 0, 50, 0
1, 723699, Poly_aftertouch_c, 0, 50, 0
1, 723725, Note_on_c, 0, 72, 0
1, 723740, Control_c, 0, 64, 120
1, 723742, Note_on_c, 0, 71, 55
1, 723778, Control_c, 0, 64, 126
1, 723926, Note_on_c, 0, 62, 56
1, 724022, Note_on_c, 0, 71, 0
1, 724118, Note_on_c, 0, 70, 63
1, 724149, Note_on_c, 0, 62, 0
1, 724303, Note_on_c, 0, 61, 60
1, 724400, Note_on_c, 0, 67, 70
1, 724405, Note_on_c, 0, 70, 0
1, 724405, Poly_aftertouch_c, 0, 70, 0
1, 724409, Note_on_c, 0, 74, 0
1, 724432, Note_on_c, 0, 67, 0
1, 724439, Note_on_c, 0, 61, 0
1, 724439, Poly_aftertouch_c, 0, 61, 0
1, 724505, Note_on_c, 0, 60, 58
1, 724534, Note_on_c, 0, 60, 0
1, 724534, Poly_aftertouch_c, 0, 60, 0
1, 724830, Note_on_c, 0, 60, 69
1, 724832, Note_on_c, 0, 62, 69
1, 724844, Note_on_c, 0, 50, 57
1, 724880, Control_c, 0, 64, 117
1, 724900, Control_c, 0, 64, 91
1, 724919, Control_c, 0, 64, 77
1, 724937, Control_c, 0, 64, 81
1, 724956, Control_c, 0, 64, 88
1, 724975, Control_c, 0, 64, 101
1, 724993, Control_c, 0, 64, 116
1, 725011, Control_c, 0, 64, 127
1, 725067, Note_on_c, 0, 43, 72
1, 725080, Note_on_c, 0, 59, 84
1, 725122, Note_on_c, 0, 62, 0
1, 725128, Note_on_c, 0, 50, 0
1, 725128, Poly_aftertouch_c, 0, 50, 0
1, 725241, Note_on_c, 0, 42, 75
1, 725244, Note_on_c, 0, 58, 86
1, 725300, Note_on_c, 0, 59, 0
1, 725314, Note_on_c, 0, 43, 0
1, 725314, Poly_aftertouch_c, 0, 43, 0
1, 725364, Note_on_c, 0, 60, 0
1, 725364, Poly_aftertouch_c, 0, 60, 0
1, 725386, Control_c, 0, 64, 116
1, 725397, Note_on_c, 0, 58, 0
1, 725397, Poly_aftertouch_c, 0, 58, 0
1, 725403, Control_c, 0, 64, 63
1, 725410, Note_on_c, 0, 49, 82
1, 725422, Control_c, 0, 64, 0
1, 725425, Note_on_c, 0, 41, 76
1, 725452, Note_on_c, 0, 61, 89
1, 725469, Note_on_c, 0, 42, 0
1, 725469, Note_on_c, 0, 58, 67
1, 725469, Poly_aftertouch_c, 0, 42, 0
1, 725498, Control_c, 0, 64, 71
1, 725517, Control_c, 0, 64, 115
1, 725522, Note_on_c, 0, 58, 0
1, 725522, Poly_aftertouch_c, 0, 58, 0
1, 725533, Note_on_c, 0, 41, 0
1, 725533, Poly_aftertouch_c, 0, 41, 0
1, 725534, Control_c, 0, 64, 127
1, 725550, Note_on_c, 0, 61, 0
1, 725550, Poly_aftertouch_c, 0, 61, 0
1, 725560, Note_on_c, 0, 49, 0
1, 725560, Poly_aftertouch_c, 0, 49, 0
1, 725812, Note_on_c, 0, 70, 85
1, 725826, Note_on_c, 0, 66, 68
1, 725909, Poly_aftertouch_c, 0, 65, 127
1, 725957, Poly_aftertouch_c, 0, 65, 0
1, 725979, Note_on_c, 0, 85, 93
1, 725989, Note_on_c, 0, 73, 68
1, 726002, Note_on_c, 0, 70, 0
1, 726002, Poly_aftertouch_c, 0, 70, 0
1, 726236, Note_on_c, 0, 69, 63
1, 726240, Note_on_c, 0, 66, 0
1, 726245, Note_on_c, 0, 61, 63
1, 726274, Note_on_c, 0, 85, 0
1, 726345, Poly_aftertouch_c, 0, 82, 0
1, 726394, Note_on_c, 0, 61, 0
1, 726394, Poly_aftertouch_c, 0, 61, 0
1, 726501, Note_on_c, 0, 84, 83
1, 726548, Note_on_c, 0, 69, 0
1, 726548, Note_on_c, 0, 68, 55
1, 726548, Poly_aftertouch_c, 0, 69, 0
1, 726591, Note_on_c, 0, 65, 40
1, 726666, Note_on_c, 0, 84, 0
1, 726690, Note_on_c, 0, 68, 0
1, 726727, Note_on_c, 0, 65, 0
1, 726735, Note_on_c, 0, 73, 0
1, 726744, Note_on_c, 0, 67, 65
1, 726767, Note_on_c, 0, 58, 65
1, 726807, Note_on_c, 0, 83, 89
1, 726898, Note_on_c, 0, 66, 73
1, 726902, Note_on_c, 0, 67, 0
1, 726911, Note_on_c, 0, 58, 0
1, 726911, Poly_aftertouch_c, 0, 58, 0
1, 726916, Note_on_c, 0, 61, 68
1, 726929, Note_on_c, 0, 66, 0
1, 726950, Note_on_c, 0, 61, 0
1, 726950, Poly_aftertouch_c, 0, 61, 0
1, 727060, Note_on_c, 0, 73, 79
1, 727061, Note_on_c, 0, 82, 82
1, 727077, Note_on_c, 0, 53, 67
1, 727078, Note_on_c, 0, 65, 63
1, 727086, Control_c, 0, 64, 90
1, 727106, Control_c, 0, 64, 65
1, 727126, Control_c, 0, 64, 71
1, 727143, Control_c, 0, 64, 83
1, 727161, Note_on_c, 0, 53, 0
1, 727162, Control_c, 0, 64, 102
1, 727180, Note_on_c, 0, 73, 0
1, 727180, Control_c, 0, 64, 127
1, 727186, Note_on_c, 0, 65, 0
1, 727187, Note_on_c, 0, 83, 0
1, 727218, Note_on_c, 0, 82, 0
1, 727256, Note_on_c, 0, 52, 76
1, 727258, Note_on_c, 0, 72, 81
1, 727296, Note_on_c, 0, 52, 0
1, 727296, Poly_aftertouch_c, 0, 52, 0
1, 727314, Note_on_c, 0, 72, 0
1, 727401, Note_on_c, 0, 73, 87
1, 727403, Note_on_c, 0, 51, 87
1, 727411, Note_on_c, 0, 71, 71
1, 727434, Note_on_c, 0, 51, 0
1, 727434, Poly_aftertouch_c, 0, 51, 0
1, 727441, Note_on_c, 0, 72, 51
1, 727476, Note_on_c, 0, 72, 0
1, 727488, Note_on_c, 0, 71, 0
1, 727502, Note_on_c, 0, 73, 0
1, 727556, Note_on_c, 0, 42, 84
1, 727571, Note_on_c, 0, 73, 80
1, 727584, Note_on_c, 0, 71, 68
1, 727592, Control_c, 0, 64, 102
1, 727610, Control_c, 0, 64, 60
1, 727629, Control_c, 0, 64, 0
1, 727685, Control_c, 0, 64, 15
1, 727704, Control_c, 0, 64, 72
1, 727706, Note_on_c, 0, 71, 0
1, 727724, Control_c, 0, 64, 109
1, 727742, Control_c, 0, 64, 127
1, 727750, Note_on_c, 0, 49, 82
1, 727779, Note_on_c, 0, 42, 0
1, 727779, Poly_aftertouch_c, 0, 42, 0
1, 727818, Note_on_c, 0, 49, 0
1, 727818, Poly_aftertouch_c, 0, 49, 0
1, 727876, Note_on_c, 0, 70, 82
1, 727967, Control_c, 0, 67, 8
1, 727980, Note_on_c, 0, 61, 80
1, 728041, Control_c, 0, 67, 13
1, 728116, Control_c, 0, 67, 17
1, 728153, Control_c, 0, 67, 23
1, 728168, Note_on_c, 0, 70, 0
1, 728168, Poly_aftertouch_c, 0, 70, 0
1, 728191, Control_c, 0, 67, 30
1, 728247, Control_c, 0, 67, 35
1, 728315, Note_on_c, 0, 69, 73
1, 728321, Control_c, 0, 67, 40
1, 728396, Control_c, 0, 64, 119
1, 728415, Control_c, 0, 64, 103
1, 728416, Control_c, 0, 67, 44
1, 728453, Control_c, 0, 64, 107
1, 728471, Control_c, 0, 64, 113
1, 728489, Control_c, 0, 64, 118
1, 728508, Control_c, 0, 64, 123
1, 728566, Note_on_c, 0, 60, 65
1, 728575, Note_on_c, 0, 61, 0
1, 728575, Poly_aftertouch_c, 0, 61, 0
1, 728602, Control_c, 0, 64, 114
1, 728620, Control_c, 0, 64, 94
1, 728640, Control_c, 0, 64, 63
1, 728642, Control_c, 0, 67, 50
1, 728649, Note_on_c, 0, 68, 72
1, 728658, Control_c, 0, 64, 41
1, 728659, Control_c, 0, 67, 54
1, 728695, Control_c, 0, 64, 52
1, 728697, Control_c, 0, 67, 59
1, 728715, Control_c, 0, 64, 67
1, 728722, Note_on_c, 0, 69, 0
1, 728722, Poly_aftertouch_c, 0, 69, 0
1, 728733, Control_c, 0, 64, 83
1, 728751, Control_c, 0, 64, 101
1, 728770, Control_c, 0, 64, 120
1, 728795, Note_on_c, 0, 73, 0
1, 728805, Note_on_c, 0, 59, 61
1, 728808, Control_c, 0, 64, 110
1, 728827, Control_c, 0, 64, 85
1, 728828, Control_c, 0, 67, 63
1, 728830, Note_on_c, 0, 60, 0
1, 728830, Poly_aftertouch_c, 0, 60, 0
1, 728846, Control_c, 0, 64, 57
1, 728883, Control_c, 0, 64, 65
1, 728884, Control_c, 0, 67, 69
1, 728901, Control_c, 0, 64, 79
1, 728920, Control_c, 0, 64, 96
1, 728941, Control_c, 0, 64, 116
1, 728957, Control_c, 0, 64, 127
1, 728975, Control_c, 0, 67, 73
1, 729085, Note_on_c, 0, 59, 0
1, 729088, Control_c, 0, 64, 117
1, 729107, Control_c, 0, 64, 92
1, 729112, Note_on_c, 0, 73, 63
1, 729118, Note_on_c, 0, 66, 51
1, 729125, Control_c, 0, 64, 57
1, 729130, Note_on_c, 0, 58, 40
1, 729136, Note_on_c, 0, 61, 44
1, 729144, Control_c, 0, 64, 18
1, 729151, Note_on_c, 0, 68, 0
1, 729163, Control_c, 0, 64, 31
1, 729182, Control_c, 0, 64, 54
1, 729200, Control_c, 0, 64, 78
1, 729220, Control_c, 0, 64, 97
1, 729238, Control_c, 0, 64, 121
1, 729239, Control_c, 0, 67, 77
1, 729247, Note_on_c, 0, 61, 0
1, 729247, Poly_aftertouch_c, 0, 61, 0
1, 729249, Note_on_c, 0, 73, 0
1, 729257, Control_c, 0, 64, 127
1, 729262, Note_on_c, 0, 58, 0
1, 729262, Poly_aftertouch_c, 0, 58, 0
1, 729271, Note_on_c, 0, 66, 0
1, 729312, Control_c, 0, 67, 81
1, 729368, Control_c, 0, 67, 87
1, 729574, Control_c, 0, 67, 91
1, 729583, Note_on_c, 0, 61, 64
1, 729593, Note_on_c, 0, 57, 51
1, 729610, Note_on_c, 0, 49, 40
1, 729611, Note_on_c, 0, 42, 50
1, 729611, Control_c, 0, 64, 122
1, 729631, Control_c, 0, 64, 112
1, 729632, Control_c, 0, 67, 95
1, 729649, Control_c, 0, 64, 90
1, 729668, Control_c, 0, 64, 59
1, 729687, Control_c, 0, 64, 0
1, 729688, Control_c, 0, 67, 100
1, 729724, Control_c, 0, 64, 13
1, 729742, Control_c, 0, 64, 40
1, 729761, Control_c, 0, 64, 56
1, 729779, Control_c, 0, 64, 68
1, 729780, Control_c, 0, 67, 105
1, 729799, Control_c, 0, 64, 75
1, 729818, Control_c, 0, 64, 80
1, 729836, Control_c, 0, 64, 83
1, 729837, Control_c, 0, 67, 109
1, 729855, Control_c, 0, 64, 85
1, 729874, Control_c, 0, 64, 87
1, 729892, Control_c, 0, 67, 113
1, 729911, Control_c, 0, 64, 92
1, 729950, Control_c, 0, 64, 99
1, 729986, Control_c, 0, 64, 106
1, 729987, Control_c, 0, 67, 117
1, 730024, Control_c, 0, 64, 111
1, 730041, Control_c, 0, 67, 121
1, 730062, Control_c, 0, 64, 116
1, 730154, Control_c, 0, 67, 126
1, 730172, Control_c, 0, 64, 120
1, 730202, Note_on_c, 0, 49, 0
1, 730202, Poly_aftertouch_c, 0, 49, 0
1, 730384, Note_on_c, 0, 42, 0
1, 730384, Poly_aftertouch_c, 0, 42, 0
1, 730454, Poly_aftertouch_c, 0, 57, 24
1, 730517, Note_on_c, 0, 56, 40
1, 730540, Note_on_c, 0, 41, 35
1, 730552, Note_on_c, 0, 57, 0
1, 730552, Poly_aftertouch_c, 0, 57, 0
1, 730553, Poly_aftertouch_c, 0, 57, 0
1, 730565, Control_c, 0, 64, 114
1, 730583, Control_c, 0, 64, 99
1, 730605, Control_c, 0, 64, 71
1, 730621, Control_c, 0, 64, 50
1, 730658, Control_c, 0, 64, 55
1, 730678, Control_c, 0, 64, 65
1, 730696, Control_c, 0, 64, 75
1, 730715, Control_c, 0, 64, 83
1, 730733, Control_c, 0, 64, 91
1, 730753, Control_c, 0, 64, 97
1, 730790, Control_c, 0, 64, 101
1, 730797, Poly_aftertouch_c, 0, 61, 24
1, 730844, Note_on_c, 0, 61, 0
1, 730844, Poly_aftertouch_c, 0, 61, 0
1, 730865, Control_c, 0, 64, 106
1, 730872, Poly_aftertouch_c, 0, 41, 24
1, 730952, Note_on_c, 0, 41, 0
1, 730952, Poly_aftertouch_c, 0, 41, 0
1, 730957, Control_c, 0, 64, 111
1, 731170, Note_on_c, 0, 56, 0
1, 731170, Poly_aftertouch_c, 0, 56, 0
1, 731337, Note_on_c, 0, 60, 32
1, 731357, Note_on_c, 0, 55, 35
1, 731366, Note_on_c, 0, 48, 30
1, 731368, Note_on_c, 0, 40, 28
1, 731388, Control_c, 0, 64, 105
1, 731407, Control_c, 0, 64, 95
1, 731427, Control_c, 0, 64, 77
1, 731444, Control_c, 0, 64, 54
1, 731463, Control_c, 0, 64, 31
1, 731500, Control_c, 0, 64, 41
1, 731518, Control_c, 0, 64, 57
1, 731538, Control_c, 0, 64, 71
1, 731557, Control_c, 0, 64, 81
1, 731575, Control_c, 0, 64, 88
1, 731593, Control_c, 0, 64, 93
1, 731614, Control_c, 0, 64, 98
1, 731618, Poly_aftertouch_c, 0, 40, 24
1, 731650, Control_c, 0, 64, 104
1, 731705, Note_on_c, 0, 48, 0
1, 731705, Poly_aftertouch_c, 0, 48, 0
1, 731725, Control_c, 0, 64, 109
1, 731780, Control_c, 0, 64, 113
1, 731795, Note_on_c, 0, 40, 0
1, 731795, Poly_aftertouch_c, 0, 40, 0
1, 731796, Poly_aftertouch_c, 0, 40, 0
1, 731939, Note_on_c, 0, 59, 35
1, 732024, Poly_aftertouch_c, 0, 55, 24
1, 732147, Note_on_c, 0, 55, 0
1, 732147, Poly_aftertouch_c, 0, 55, 0
1, 732232, Poly_aftertouch_c, 0, 60, 24
1, 732270, Note_on_c, 0, 57, 35
1, 732281, Note_on_c, 0, 60, 0
1, 732281, Poly_aftertouch_c, 0, 60, 0
1, 732378, Note_on_c, 0, 59, 0
1, 732514, Poly_aftertouch_c, 0, 57, 24
1, 732546, Note_on_c, 0, 55, 37
1, 732560, Note_on_c, 0, 28, 39
1, 732562, Note_on_c, 0, 40, 33
1, 732613, Note_on_c, 0, 28, 0
1, 732626, Note_on_c, 0, 57, 0
1, 732626, Poly_aftertouch_c, 0, 57, 0
1, 732627, Note_on_c, 0, 40, 0
1, 732831, Note_on_c, 0, 55, 0
1, 732831, Poly_aftertouch_c, 0, 55, 0
1, 732848, Note_on_c, 0, 52, 29
1, 733106, Note_on_c, 0, 47, 43
1, 733332, Control_c, 0, 64, 103
1, 733350, Control_c, 0, 64, 82
1, 733355, Note_on_c, 0, 48, 50
1, 733358, Note_on_c, 0, 47, 0
1, 733370, Control_c, 0, 64, 59
1, 733407, Control_c, 0, 64, 63
1, 733426, Control_c, 0, 64, 72
1, 733446, Control_c, 0, 64, 80
1, 733463, Control_c, 0, 64, 87
1, 733482, Control_c, 0, 64, 95
1, 733492, Poly_aftertouch_c, 0, 52, 24
1, 733500, Control_c, 0, 64, 100
1, 733539, Note_on_c, 0, 48, 0
1, 733539, Poly_aftertouch_c, 0, 48, 0
1, 733644, Note_on_c, 0, 59, 34
1, 733782, Control_c, 0, 64, 104
1, 733862, Poly_aftertouch_c, 0, 52, 22
1, 733881, Note_on_c, 0, 57, 34
1, 733904, Note_on_c, 0, 52, 0
1, 733904, Poly_aftertouch_c, 0, 52, 0
1, 733914, Note_on_c, 0, 59, 0
1, 734086, Note_on_c, 0, 57, 0
1, 734086, Poly_aftertouch_c, 0, 57, 0
1, 734121, Note_on_c, 0, 40, 32
1, 734124, Note_on_c, 0, 55, 35
1, 734129, Note_on_c, 0, 28, 39
1, 734192, Note_on_c, 0, 28, 0
1, 734211, Note_on_c, 0, 40, 0
1, 734371, Poly_aftertouch_c, 0, 55, 20
1, 734376, Note_on_c, 0, 55, 0
1, 734376, Poly_aftertouch_c, 0, 55, 0
1, 734384, Note_on_c, 0, 52, 30
1, 734602, Note_on_c, 0, 47, 40
1, 734726, Poly_aftertouch_c, 0, 52, 24
1, 734849, Control_c, 0, 64, 96
1, 734850, Note_on_c, 0, 47, 0
1, 734851, Note_on_c, 0, 48, 53
1, 734865, Control_c, 0, 64, 76
1, 734885, Control_c, 0, 64, 54
1, 734903, Control_c, 0, 64, 47
1, 734922, Control_c, 0, 64, 52
1, 734941, Control_c, 0, 64, 63
1, 734959, Control_c, 0, 64, 73
1, 734979, Control_c, 0, 64, 79
1, 734996, Control_c, 0, 64, 85
1, 735016, Control_c, 0, 64, 90
1, 735031, Note_on_c, 0, 48, 0
1, 735031, Poly_aftertouch_c, 0, 48, 0
1, 735071, Control_c, 0, 64, 94
1, 735076, Note_on_c, 0, 59, 37
1, 735109, Control_c, 0, 64, 98
1, 735146, Control_c, 0, 64, 102
1, 735240, Control_c, 0, 64, 107
1, 735265, Note_on_c, 0, 57, 30
1, 735275, Poly_aftertouch_c, 0, 52, 22
1, 735291, Note_on_c, 0, 59, 0
1, 735407, Note_on_c, 0, 52, 0
1, 735407, Poly_aftertouch_c, 0, 52, 0
1, 735408, Poly_aftertouch_c, 0, 52, 0
1, 735432, Note_on_c, 0, 56, 40
1, 735453, Note_on_c, 0, 57, 0
1, 735453, Poly_aftertouch_c, 0, 57, 0
1, 735614, Note_on_c, 0, 40, 34
1, 735615, Note_on_c, 0, 28, 39
1, 735627, Note_on_c, 0, 55, 32
1, 735658, Note_on_c, 0, 56, 0
1, 735658, Poly_aftertouch_c, 0, 56, 0
1, 735675, Note_on_c, 0, 28, 0
1, 735684, Note_on_c, 0, 40, 0
1, 735853, Note_on_c, 0, 55, 0
1, 735853, Note_on_c, 0, 52, 39
1, 735853, Poly_aftertouch_c, 0, 55, 0
1, 736093, Note_on_c, 0, 46, 46
1, 736283, Poly_aftertouch_c, 0, 52, 24
1, 736285, Control_c, 0, 64, 98
1, 736301, Note_on_c, 0, 46, 0
1, 736301, Poly_aftertouch_c, 0, 46, 0
1, 736305, Control_c, 0, 64, 82
1, 736325, Note_on_c, 0, 47, 52
1, 736325, Control_c, 0, 64, 58
1, 736343, Control_c, 0, 64, 42
1, 736361, Control_c, 0, 64, 45
1, 736380, Control_c, 0, 64, 56
1, 736399, Control_c, 0, 64, 70
1, 736418, Control_c, 0, 64, 77
1, 736437, Control_c, 0, 64, 85
1, 736455, Control_c, 0, 64, 90
1, 736510, Note_on_c, 0, 47, 0
1, 736548, Control_c, 0, 64, 94
1, 736554, Note_on_c, 0, 61, 42
1, 736605, Control_c, 0, 64, 99
1, 736719, Poly_aftertouch_c, 0, 52, 22
1, 736768, Note_on_c, 0, 57, 33
1, 736777, Note_on_c, 0, 52, 0
1, 736777, Poly_aftertouch_c, 0, 52, 0
1, 736845, Poly_aftertouch_c, 0, 61, 24
1, 736879, Note_on_c, 0, 61, 0
1, 736879, Poly_aftertouch_c, 0, 61, 0
1, 736977, Note_on_c, 0, 57, 0
1, 736977, Poly_aftertouch_c, 0, 57, 0
1, 736993, Note_on_c, 0, 55, 34
1, 736996, Note_on_c, 0, 40, 36
1, 736999, Note_on_c, 0, 28, 35
1, 737053, Note_on_c, 0, 28, 0
1, 737081, Note_on_c, 0, 40, 0
1, 737201, Note_on_c, 0, 55, 0
1, 737201, Poly_aftertouch_c, 0, 55, 0
1, 737209, Note_on_c, 0, 52, 36
1, 737441, Note_on_c, 0, 46, 51
1, 737464, Poly_aftertouch_c, 0, 52, 24
1, 737614, Note_on_c, 0, 46, 0
1, 737614, Poly_aftertouch_c, 0, 46, 0
1, 737633, Control_c, 0, 64, 89
1, 737640, Note_on_c, 0, 47, 56
1, 737653, Control_c, 0, 64, 70
1, 737671, Control_c, 0, 64, 49
1, 737689, Control_c, 0, 64, 38
1, 737708, Control_c, 0, 64, 45
1, 737726, Poly_aftertouch_c, 0, 52, 20
1, 737726, Control_c, 0, 64, 58
1, 737746, Control_c, 0, 64, 71
1, 737766, Control_c, 0, 64, 79
1, 737783, Control_c, 0, 64, 85
1, 737802, Control_c, 0, 64, 91
1, 737814, Note_on_c, 0, 47, 0
1, 737825, Note_on_c, 0, 61, 46
1, 737877, Control_c, 0, 64, 95
1, 737996, Note_on_c, 0, 57, 31
1, 738033, Note_on_c, 0, 52, 0
1, 738033, Poly_aftertouch_c, 0, 52, 0
1, 738034, Poly_aftertouch_c, 0, 52, 0
1, 738106, Note_on_c, 0, 61, 0
1, 738106, Poly_aftertouch_c, 0, 61, 0
1, 738135, Note_on_c, 0, 57, 0
1, 738135, Poly_aftertouch_c, 0, 57, 0
1, 738142, Note_on_c, 0, 56, 41
1, 738306, Control_c, 0, 64, 99
1, 738337, Note_on_c, 0, 56, 0
1, 738337, Poly_aftertouch_c, 0, 56, 0
1, 738344, Note_on_c, 0, 28, 37
1, 738345, Note_on_c, 0, 55, 38
1, 738352, Note_on_c, 0, 40, 37
1, 738393, Note_on_c, 0, 28, 0
1, 738432, Note_on_c, 0, 40, 0
1, 738559, Note_on_c, 0, 55, 0
1, 738559, Poly_aftertouch_c, 0, 55, 0
1, 738579, Note_on_c, 0, 52, 36
1, 738789, Note_on_c, 0, 45, 45
1, 738820, Note_on_c, 0, 52, 0
1, 738833, Note_on_c, 0, 45, 0
1, 739054, Control_c, 0, 64, 94
1, 739073, Control_c, 0, 64, 81
1, 739091, Control_c, 0, 64, 63
1, 739092, Note_on_c, 0, 46, 47
1, 739096, Note_on_c, 0, 34, 50
1, 739099, Note_on_c, 0, 62, 48
1, 739111, Control_c, 0, 64, 59
1, 739129, Control_c, 0, 64, 64
1, 739148, Note_on_c, 0, 34, 0
1, 739148, Control_c, 0, 64, 74
1, 739156, Note_on_c, 0, 46, 0
1, 739156, Poly_aftertouch_c, 0, 46, 0
1, 739168, Control_c, 0, 64, 83
1, 739185, Control_c, 0, 64, 96
1, 739205, Control_c, 0, 64, 113
1, 739223, Control_c, 0, 64, 127
1, 739347, Note_on_c, 0, 60, 35
1, 739601, Poly_aftertouch_c, 0, 60, 22
1, 739641, Note_on_c, 0, 79, 73
1, 739667, Note_on_c, 0, 79, 0
1, 739689, Note_on_c, 0, 60, 0
1, 739689, Poly_aftertouch_c, 0, 60, 0
1, 739691, Control_c, 0, 67, 120
1, 739702, Note_on_c, 0, 58, 34
1, 739727, Control_c, 0, 67, 113
1, 739764, Control_c, 0, 67, 105
1, 739783, Control_c, 0, 67, 100
1, 739800, Note_on_c, 0, 62, 0
1, 739801, Control_c, 0, 67, 96
1, 739839, Control_c, 0, 67, 92
1, 739902, Note_on_c, 0, 55, 41
1, 739913, Note_on_c, 0, 58, 0
1, 739913, Poly_aftertouch_c, 0, 58, 0
1, 739952, Control_c, 0, 67, 88
1, 739988, Control_c, 0, 67, 84
1, 740064, Control_c, 0, 67, 80
1, 740120, Control_c, 0, 67, 76
1, 740130, Note_on_c, 0, 50, 49
1, 740131, Note_on_c, 0, 28, 53
1, 740143, Note_on_c, 0, 40, 48
1, 740173, Note_on_c, 0, 28, 0
1, 740174, Note_on_c, 0, 55, 0
1, 740174, Poly_aftertouch_c, 0, 55, 0
1, 740183, Note_on_c, 0, 40, 0
1, 740195, Control_c, 0, 67, 71
1, 740209, Note_on_c, 0, 50, 0
1, 740209, Poly_aftertouch_c, 0, 50, 0
1, 740251, Control_c, 0, 67, 65
1, 740317, Note_on_c, 0, 62, 43
1, 740345, Control_c, 0, 67, 61
1, 740473, Note_on_c, 0, 60, 40
1, 740495, Control_c, 0, 67, 57
1, 740607, Control_c, 0, 67, 53
1, 740618, Poly_aftertouch_c, 0, 62, 22
1, 740619, Note_on_c, 0, 58, 49
1, 740638, Note_on_c, 0, 60, 0
1, 740638, Poly_aftertouch_c, 0, 60, 0
1, 740643, Note_on_c, 0, 62, 0
1, 740643, Poly_aftertouch_c, 0, 62, 0
1, 740682, Control_c, 0, 67, 48
1, 740737, Control_c, 0, 67, 44
1, 740809, Note_on_c, 0, 46, 57
1, 740813, Control_c, 0, 67, 40
1, 740848, Note_on_c, 0, 46, 0
1, 740848, Poly_aftertouch_c, 0, 46, 0
1, 740851, Note_on_c, 0, 58, 0
1, 740851, Poly_aftertouch_c, 0, 58, 0
1, 740860, Note_on_c, 0, 55, 34
1, 740887, Control_c, 0, 67, 36
1, 740943, Control_c, 0, 67, 32
1, 741027, Note_on_c, 0, 50, 51
1, 741158, Poly_aftertouch_c, 0, 55, 22
1, 741168, Note_on_c, 0, 50, 0
1, 741168, Poly_aftertouch_c, 0, 50, 0
1, 741205, Control_c, 0, 67, 28
1, 741252, Note_on_c, 0, 76, 79
1, 741260, Control_c, 0, 67, 24
1, 741281, Note_on_c, 0, 76, 0
1, 741281, Poly_aftertouch_c, 0, 76, 0
1, 741298, Control_c, 0, 67, 19
1, 741336, Control_c, 0, 67, 15
1, 741360, Note_on_c, 0, 62, 51
1, 741406, Note_on_c, 0, 55, 0
1, 741406, Poly_aftertouch_c, 0, 55, 0
1, 741629, Note_on_c, 0, 60, 49
1, 741650, Note_on_c, 0, 28, 61
1, 741650, Note_on_c, 0, 40, 61
1, 741683, Note_on_c, 0, 40, 0
1, 741690, Note_on_c, 0, 28, 0
1, 741801, Note_on_c, 0, 60, 0
1, 741801, Poly_aftertouch_c, 0, 60, 0
1, 741815, Note_on_c, 0, 58, 51
1, 741871, Poly_aftertouch_c, 0, 62, 20
1, 741877, Note_on_c, 0, 62, 0
1, 741877, Poly_aftertouch_c, 0, 62, 0
1, 742029, Note_on_c, 0, 55, 44
1, 742109, Note_on_c, 0, 58, 0
1, 742109, Poly_aftertouch_c, 0, 58, 0
1, 742272, Note_on_c, 0, 46, 53
1, 742299, Note_on_c, 0, 50, 47
1, 742311, Note_on_c, 0, 46, 0
1, 742311, Poly_aftertouch_c, 0, 46, 0
1, 742318, Note_on_c, 0, 55, 0
1, 742318, Poly_aftertouch_c, 0, 55, 0
1, 742358, Note_on_c, 0, 50, 0
1, 742358, Poly_aftertouch_c, 0, 50, 0
1, 742447, Note_on_c, 0, 62, 53
1, 742514, Control_c, 0, 67, 11
1, 742646, Note_on_c, 0, 72, 83
1, 742664, Note_on_c, 0, 60, 58
1, 742673, Note_on_c, 0, 72, 0
1, 742850, Note_on_c, 0, 58, 54
1, 742877, Note_on_c, 0, 62, 0
1, 742877, Poly_aftertouch_c, 0, 62, 0
1, 743018, Note_on_c, 0, 28, 72
1, 743024, Note_on_c, 0, 40, 61
1, 743033, Note_on_c, 0, 55, 58
1, 743055, Note_on_c, 0, 28, 0
1, 743061, Note_on_c, 0, 60, 0
1, 743061, Poly_aftertouch_c, 0, 60, 0
1, 743063, Note_on_c, 0, 40, 0
1, 743193, Note_on_c, 0, 50, 58
1, 743252, Note_on_c, 0, 58, 0
1, 743252, Poly_aftertouch_c, 0, 58, 0
1, 743302, Note_on_c, 0, 55, 0
1, 743302, Poly_aftertouch_c, 0, 55, 0
1, 743320, Note_on_c, 0, 50, 0
1, 743320, Poly_aftertouch_c, 0, 50, 0
1, 743399, Note_on_c, 0, 64, 62
1, 743417, Poly_aftertouch_c, 0, 55, 0
1, 743579, Control_c, 0, 64, 122
1, 743598, Control_c, 0, 64, 88
1, 743609, Note_on_c, 0, 62, 62
1, 743617, Control_c, 0, 64, 69
1, 743622, Note_on_c, 0, 45, 64
1, 743636, Control_c, 0, 64, 78
1, 743656, Control_c, 0, 64, 90
1, 743673, Control_c, 0, 64, 110
1, 743692, Control_c, 0, 64, 127
1, 743715, Note_on_c, 0, 45, 0
1, 743808, Note_on_c, 0, 60, 64
1, 743878, Note_on_c, 0, 62, 0
1, 743878, Poly_aftertouch_c, 0, 62, 0
1, 743991, Note_on_c, 0, 69, 88
1, 744020, Note_on_c, 0, 69, 0
1, 744020, Poly_aftertouch_c, 0, 69, 0
1, 744062, Note_on_c, 0, 64, 0
1, 744095, Note_on_c, 0, 55, 59
1, 744303, Note_on_c, 0, 52, 65
1, 744314, Note_on_c, 0, 40, 74
1, 744315, Note_on_c, 0, 28, 76
1, 744350, Note_on_c, 0, 28, 0
1, 744351, Note_on_c, 0, 40, 0
1, 744374, Note_on_c, 0, 60, 0
1, 744374, Poly_aftertouch_c, 0, 60, 0
1, 744491, Note_on_c, 0, 64, 68
1, 744538, Note_on_c, 0, 52, 0
1, 744601, Note_on_c, 0, 55, 0
1, 744660, Note_on_c, 0, 62, 72
1, 744837, Note_on_c, 0, 60, 77
1, 744843, Note_on_c, 0, 45, 83
1, 744875, Note_on_c, 0, 45, 0
1, 744937, Note_on_c, 0, 62, 0
1, 744937, Poly_aftertouch_c, 0, 62, 0
1, 745002, Note_on_c, 0, 55, 79
1, 745087, Note_on_c, 0, 64, 0
1, 745161, Note_on_c, 0, 67, 97
1, 745186, Note_on_c, 0, 67, 0
1, 745200, Note_on_c, 0, 60, 0
1, 745200, Poly_aftertouch_c, 0, 60, 0
1, 745306, Note_on_c, 0, 52, 78
1, 745568, Note_on_c, 0, 52, 0
1, 745576, Note_on_c, 0, 40, 92
1, 745583, Note_on_c, 0, 28, 86
1, 745599, Note_on_c, 0, 55, 0
1, 745602, Note_on_c, 0, 29, 71
1, 745658, Note_on_c, 0, 29, 0
1, 745895, Note_on_c, 0, 28, 0
1, 745921, Note_on_c, 0, 95, 99
1, 745955, Note_on_c, 0, 40, 0
1, 746060, Note_on_c, 0, 93, 77
1, 746082, Note_on_c, 0, 95, 0
1, 746131, Note_on_c, 0, 93, 0
1, 746137, Note_on_c, 0, 92, 71
1, 746165, Note_on_c, 0, 92, 0
1, 746202, Note_on_c, 0, 91, 81
1, 746239, Note_on_c, 0, 88, 74
1, 746253, Control_c, 0, 64, 97
1, 746272, Control_c, 0, 64, 30
1, 746287, Note_on_c, 0, 45, 82
1, 746289, Control_c, 0, 64, 0
1, 746291, Note_on_c, 0, 91, 0
1, 746293, Note_on_c, 0, 40, 72
1, 746301, Note_on_c, 0, 83, 89
1, 746326, Note_on_c, 0, 40, 0
1, 746328, Control_c, 0, 64, 34
1, 746329, Note_on_c, 0, 45, 0
1, 746332, Note_on_c, 0, 88, 0
1, 746347, Control_c, 0, 64, 76
1, 746366, Control_c, 0, 64, 113
1, 746384, Control_c, 0, 64, 127
1, 746459, Note_on_c, 0, 91, 70
1, 746524, Note_on_c, 0, 90, 65
1, 746535, Note_on_c, 0, 91, 0
1, 746559, Note_on_c, 0, 90, 0
1, 746568, Note_on_c, 0, 64, 68
1, 746588, Note_on_c, 0, 55, 62
1, 746595, Note_on_c, 0, 60, 47
1, 746602, Note_on_c, 0, 64, 0
1, 746609, Note_on_c, 0, 83, 0
1, 746618, Note_on_c, 0, 89, 77
1, 746620, Note_on_c, 0, 55, 0
1, 746631, Note_on_c, 0, 60, 0
1, 746631, Poly_aftertouch_c, 0, 60, 0
1, 746680, Note_on_c, 0, 88, 74
1, 746707, Note_on_c, 0, 89, 0
1, 746707, Poly_aftertouch_c, 0, 89, 0
1, 746750, Note_on_c, 0, 84, 78
1, 746788, Note_on_c, 0, 88, 0
1, 746823, Note_on_c, 0, 40, 83
1, 746824, Note_on_c, 0, 79, 89
1, 746834, Note_on_c, 0, 33, 74
1, 746841, Note_on_c, 0, 84, 0
1, 746853, Note_on_c, 0, 40, 0
1, 746866, Note_on_c, 0, 33, 0
1, 746885, Note_on_c, 0, 79, 0
1, 746964, Note_on_c, 0, 84, 49
1, 746966, Note_on_c, 0, 83, 60
1, 746995, Note_on_c, 0, 84, 0
1, 747008, Note_on_c, 0, 81, 72
1, 747040, Poly_aftertouch_c, 0, 40, 0
1, 747045, Note_on_c, 0, 83, 0
1, 747073, Note_on_c, 0, 80, 50
1, 747098, Note_on_c, 0, 81, 0
1, 747098, Poly_aftertouch_c, 0, 81, 0
1, 747106, Note_on_c, 0, 80, 0
1, 747106, Poly_aftertouch_c, 0, 80, 0
1, 747164, Note_on_c, 0, 81, 34
1, 747214, Note_on_c, 0, 76, 73
1, 747216, Note_on_c, 0, 81, 0
1, 747216, Poly_aftertouch_c, 0, 81, 0
1, 747223, Note_on_c, 0, 77, 58
1, 747245, Control_c, 0, 64, 110
1, 747251, Note_on_c, 0, 77, 0
1, 747264, Control_c, 0, 64, 59
1, 747276, Note_on_c, 0, 28, 79
1, 747278, Poly_aftertouch_c, 0, 79, 127
1, 747280, Note_on_c, 0, 33, 81
1, 747281, Control_c, 0, 64, 0
1, 747286, Note_on_c, 0, 71, 78
1, 747286, Poly_aftertouch_c, 0, 79, 0
1, 747291, Note_on_c, 0, 76, 0
1, 747291, Poly_aftertouch_c, 0, 76, 0
1, 747302, Note_on_c, 0, 72, 71
1, 747318, Note_on_c, 0, 28, 0
1, 747318, Note_on_c, 0, 33, 0
1, 747319, Control_c, 0, 64, 62
1, 747330, Note_on_c, 0, 72, 0
1, 747338, Control_c, 0, 64, 123
1, 747356, Control_c, 0, 64, 127
1, 747413, Note_on_c, 0, 79, 67
1, 747491, Note_on_c, 0, 78, 70
1, 747497, Note_on_c, 0, 79, 0
1, 747501, Poly_aftertouch_c, 0, 72, 0
1, 747521, Note_on_c, 0, 52, 74
1, 747523, Note_on_c, 0, 78, 0
1, 747523, Note_on_c, 0, 71, 0
1, 747523, Note_on_c, 0, 60, 65
1, 747525, Note_on_c, 0, 55, 63
1, 747546, Note_on_c, 0, 60, 0
1, 747546, Poly_aftertouch_c, 0, 60, 0
1, 747552, Note_on_c, 0, 55, 0
1, 747554, Note_on_c, 0, 52, 0
1, 747574, Note_on_c, 0, 77, 76
1, 747623, Note_on_c, 0, 76, 80
1, 747676, Note_on_c, 0, 77, 0
1, 747695, Note_on_c, 0, 72, 79
1, 747734, Note_on_c, 0, 76, 0
1, 747734, Poly_aftertouch_c, 0, 76, 0
1, 747764, Note_on_c, 0, 40, 89
1, 747768, Note_on_c, 0, 67, 90
1, 747770, Note_on_c, 0, 33, 83
1, 747790, Note_on_c, 0, 40, 0
1, 747798, Note_on_c, 0, 33, 0
1, 747806, Note_on_c, 0, 72, 0
1, 747815, Note_on_c, 0, 67, 0
1, 747978, Poly_aftertouch_c, 0, 40, 0
1, 747984, Note_on_c, 0, 95, 68
1, 747998, Note_on_c, 0, 93, 70
1, 748068, Note_on_c, 0, 95, 0
1, 748094, Note_on_c, 0, 92, 74
1, 748105, Note_on_c, 0, 93, 0
1, 748144, Note_on_c, 0, 92, 0
1, 748183, Note_on_c, 0, 91, 76
1, 748196, Note_on_c, 0, 88, 76
1, 748217, Control_c, 0, 64, 81
1, 748237, Control_c, 0, 64, 36
1, 748243, Note_on_c, 0, 40, 80
1, 748244, Note_on_c, 0, 45, 86
1, 748251, Note_on_c, 0, 83, 94
1, 748253, Control_c, 0, 64, 51
1, 748274, Control_c, 0, 64, 81
1, 748286, Note_on_c, 0, 40, 0
1, 748291, Note_on_c, 0, 88, 0
1, 748292, Note_on_c, 0, 45, 0
1, 748293, Control_c, 0, 64, 110
1, 748309, Control_c, 0, 64, 127
1, 748334, Note_on_c, 0, 91, 0
1, 748375, Note_on_c, 0, 91, 70
1, 748437, Note_on_c, 0, 90, 77
1, 748481, Note_on_c, 0, 64, 91
1, 748485, Note_on_c, 0, 91, 0
1, 748489, Note_on_c, 0, 55, 81
1, 748492, Note_on_c, 0, 90, 0
1, 748496, Note_on_c, 0, 60, 75
1, 748507, Note_on_c, 0, 64, 0
1, 748522, Note_on_c, 0, 55, 0
1, 748528, Note_on_c, 0, 60, 0
1, 748528, Poly_aftertouch_c, 0, 60, 0
1, 748532, Note_on_c, 0, 89, 82
1, 748539, Note_on_c, 0, 83, 0
1, 748614, Note_on_c, 0, 88, 80
1, 748668, Note_on_c, 0, 84, 77
1, 748674, Note_on_c, 0, 89, 0
1, 748674, Poly_aftertouch_c, 0, 89, 0
1, 748718, Note_on_c, 0, 88, 0
1, 748722, Note_on_c, 0, 40, 87
1, 748727, Note_on_c, 0, 33, 82
1, 748738, Note_on_c, 0, 79, 89
1, 748747, Note_on_c, 0, 40, 0
1, 748758, Note_on_c, 0, 84, 0
1, 748759, Note_on_c, 0, 33, 0
1, 748797, Note_on_c, 0, 79, 0
1, 748836, Note_on_c, 0, 83, 83
1, 748909, Note_on_c, 0, 81, 75
1, 748935, Poly_aftertouch_c, 0, 40, 0
1, 748945, Note_on_c, 0, 83, 0
1, 748952, Note_on_c, 0, 80, 72
1, 748980, Note_on_c, 0, 81, 0
1, 748980, Poly_aftertouch_c, 0, 81, 0
1, 749024, Note_on_c, 0, 80, 0
1, 749024, Poly_aftertouch_c, 0, 80, 0
1, 749049, Note_on_c, 0, 79, 79
1, 749090, Note_on_c, 0, 76, 78
1, 749114, Control_c, 0, 64, 107
1, 749133, Control_c, 0, 64, 59
1, 749141, Note_on_c, 0, 79, 0
1, 749147, Note_on_c, 0, 28, 82
1, 749151, Note_on_c, 0, 33, 86
1, 749153, Control_c, 0, 64, 0
1, 749161, Note_on_c, 0, 71, 91
1, 749171, Control_c, 0, 64, 45
1, 749186, Note_on_c, 0, 28, 0
1, 749188, Control_c, 0, 64, 77
1, 749191, Note_on_c, 0, 33, 0
1, 749209, Control_c, 0, 64, 107
1, 749211, Note_on_c, 0, 76, 0
1, 749211, Poly_aftertouch_c, 0, 76, 0
1, 749226, Control_c, 0, 64, 127
1, 749295, Note_on_c, 0, 79, 74
1, 749371, Note_on_c, 0, 78, 73
1, 749387, Note_on_c, 0, 79, 0
1, 749402, Note_on_c, 0, 62, 59
1, 749403, Note_on_c, 0, 52, 59
1, 749407, Note_on_c, 0, 78, 0
1, 749413, Note_on_c, 0, 71, 0
1, 749416, Note_on_c, 0, 60, 48
1, 749416, Poly_aftertouch_c, 0, 60, 0
1, 749417, Note_on_c, 0, 60, 0
1, 749419, Note_on_c, 0, 53, 45
1, 749427, Note_on_c, 0, 55, 25
1, 749430, Note_on_c, 0, 62, 0
1, 749430, Poly_aftertouch_c, 0, 62, 0
1, 749432, Note_on_c, 0, 52, 0
1, 749453, Note_on_c, 0, 53, 0
1, 749455, Poly_aftertouch_c, 0, 60, 0
1, 749463, Note_on_c, 0, 77, 75
1, 749471, Control_c, 0, 67, 0
1, 749478, Note_on_c, 0, 55, 0
1, 749509, Note_on_c, 0, 76, 74
1, 749550, Note_on_c, 0, 77, 0
1, 749561, Note_on_c, 0, 72, 80
1, 749610, Note_on_c, 0, 76, 0
1, 749610, Poly_aftertouch_c, 0, 76, 0
1, 749621, Note_on_c, 0, 38, 94
1, 749636, Note_on_c, 0, 33, 74
1, 749638, Note_on_c, 0, 67, 90
1, 749651, Note_on_c, 0, 38, 0
1, 749651, Poly_aftertouch_c, 0, 38, 0
1, 749668, Note_on_c, 0, 33, 0
1, 749678, Note_on_c, 0, 72, 0
1, 749705, Note_on_c, 0, 67, 0
1, 749731, Poly_aftertouch_c, 0, 31, 127
1, 749753, Poly_aftertouch_c, 0, 31, 0
1, 749798, Note_on_c, 0, 83, 80
1, 749864, Note_on_c, 0, 81, 71
1, 749890, Note_on_c, 0, 83, 0
1, 749908, Note_on_c, 0, 80, 77
1, 749934, Note_on_c, 0, 81, 0
1, 749934, Poly_aftertouch_c, 0, 81, 0
1, 749989, Note_on_c, 0, 79, 82
1, 750010, Note_on_c, 0, 76, 73
1, 750031, Control_c, 0, 64, 106
1, 750033, Note_on_c, 0, 80, 0
1, 750033, Poly_aftertouch_c, 0, 80, 0
1, 750049, Control_c, 0, 64, 49
1, 750067, Control_c, 0, 64, 0
1, 750078, Note_on_c, 0, 40, 80
1, 750079, Note_on_c, 0, 45, 81
1, 750085, Note_on_c, 0, 71, 93
1, 750085, Control_c, 0, 64, 10
1, 750106, Control_c, 0, 64, 69
1, 750114, Note_on_c, 0, 79, 0
1, 750116, Note_on_c, 0, 45, 0
1, 750124, Note_on_c, 0, 40, 0
1, 750124, Control_c, 0, 64, 123
1, 750127, Note_on_c, 0, 76, 0
1, 750127, Poly_aftertouch_c, 0, 76, 0
1, 750141, Note_on_c, 0, 71, 0
1, 750142, Control_c, 0, 64, 127
1, 750256, Note_on_c, 0, 91, 84
1, 750327, Note_on_c, 0, 90, 65
1, 750331, Note_on_c, 0, 91, 0
1, 750359, Note_on_c, 0, 64, 77
1, 750360, Note_on_c, 0, 90, 0
1, 750367, Note_on_c, 0, 55, 75
1, 750371, Note_on_c, 0, 60, 73
1, 750389, Note_on_c, 0, 64, 0
1, 750397, Note_on_c, 0, 55, 0
1, 750401, Note_on_c, 0, 89, 82
1, 750402, Note_on_c, 0, 60, 0
1, 750468, Note_on_c, 0, 88, 78
1, 750519, Note_on_c, 0, 89, 0
1, 750519, Poly_aftertouch_c, 0, 89, 0
1, 750520, Note_on_c, 0, 84, 80
1, 750565, Note_on_c, 0, 60, 75
1, 750565, Note_on_c, 0, 55, 79
1, 750566, Note_on_c, 0, 52, 83
1, 750571, Note_on_c, 0, 79, 91
1, 750585, Note_on_c, 0, 88, 0
1, 750591, Note_on_c, 0, 55, 0
1, 750596, Note_on_c, 0, 52, 0
1, 750603, Note_on_c, 0, 60, 0
1, 750604, Note_on_c, 0, 59, 30
1, 750605, Note_on_c, 0, 59, 0
1, 750610, Note_on_c, 0, 84, 0
1, 750649, Note_on_c, 0, 79, 0
1, 750649, Poly_aftertouch_c, 0, 59, 0
1, 750689, Note_on_c, 0, 83, 86
1, 750765, Note_on_c, 0, 81, 79
1, 750805, Note_on_c, 0, 83, 0
1, 750830, Note_on_c, 0, 80, 77
1, 750849, Note_on_c, 0, 81, 0
1, 750849, Poly_aftertouch_c, 0, 81, 0
1, 750914, Note_on_c, 0, 79, 86
1, 750921, Note_on_c, 0, 80, 0
1, 750921, Poly_aftertouch_c, 0, 80, 0
1, 750982, Note_on_c, 0, 76, 80
1, 751002, Control_c, 0, 64, 104
1, 751022, Control_c, 0, 64, 49
1, 751040, Note_on_c, 0, 33, 90
1, 751040, Control_c, 0, 64, 0
1, 751041, Note_on_c, 0, 40, 88
1, 751050, Note_on_c, 0, 71, 92
1, 751058, Control_c, 0, 64, 27
1, 751078, Control_c, 0, 64, 80
1, 751090, Note_on_c, 0, 79, 0
1, 751097, Control_c, 0, 64, 127
1, 751110, Note_on_c, 0, 76, 0
1, 751110, Poly_aftertouch_c, 0, 76, 0
1, 751115, Note_on_c, 0, 33, 0
1, 751116, Note_on_c, 0, 71, 0
1, 751142, Note_on_c, 0, 40, 0
1, 751289, Note_on_c, 0, 95, 102
1, 751407, Note_on_c, 0, 93, 85
1, 751452, Note_on_c, 0, 95, 0
1, 751482, Note_on_c, 0, 64, 93
1, 751482, Note_on_c, 0, 55, 86
1, 751486, Note_on_c, 0, 60, 83
1, 751491, Note_on_c, 0, 92, 80
1, 751505, Note_on_c, 0, 64, 0
1, 751511, Note_on_c, 0, 60, 0
1, 751515, Note_on_c, 0, 55, 0
1, 751519, Note_on_c, 0, 93, 0
1, 751573, Note_on_c, 0, 92, 0
1, 751581, Note_on_c, 0, 91, 84
1, 751658, Note_on_c, 0, 88, 66
1, 751695, Note_on_c, 0, 87, 43
1, 751695, Poly_aftertouch_c, 0, 87, 0
1, 751696, Note_on_c, 0, 87, 0
1, 751699, Note_on_c, 0, 91, 0
1, 751713, Note_on_c, 0, 79, 95
1, 751736, Poly_aftertouch_c, 0, 87, 0
1, 751739, Note_on_c, 0, 88, 0
1, 751786, Note_on_c, 0, 79, 0
1, 751832, Note_on_c, 0, 83, 85
1, 751919, Note_on_c, 0, 81, 75
1, 751957, Note_on_c, 0, 83, 0
1, 751976, Note_on_c, 0, 80, 80
1, 751982, Note_on_c, 0, 52, 79
1, 751984, Note_on_c, 0, 60, 86
1, 751988, Note_on_c, 0, 55, 77
1, 752004, Note_on_c, 0, 81, 0
1, 752004, Poly_aftertouch_c, 0, 81, 0
1, 752012, Note_on_c, 0, 52, 0
1, 752015, Note_on_c, 0, 60, 0
1, 752020, Note_on_c, 0, 55, 0
1, 752044, Note_on_c, 0, 80, 0
1, 752044, Poly_aftertouch_c, 0, 80, 0
1, 752067, Note_on_c, 0, 79, 85
1, 752142, Note_on_c, 0, 76, 80
1, 752187, Note_on_c, 0, 79, 0
1, 752262, Note_on_c, 0, 71, 97
1, 752271, Note_on_c, 0, 64, 90
1, 752274, Note_on_c, 0, 55, 82
1, 752277, Note_on_c, 0, 60, 75
1, 752300, Note_on_c, 0, 64, 0
1, 752309, Note_on_c, 0, 60, 0
1, 752313, Note_on_c, 0, 55, 0
1, 752320, Note_on_c, 0, 76, 0
1, 752320, Poly_aftertouch_c, 0, 76, 0
1, 752473, Note_on_c, 0, 83, 94
1, 752585, Note_on_c, 0, 71, 0
1, 752586, Note_on_c, 0, 81, 81
1, 752630, Note_on_c, 0, 83, 0
1, 752674, Note_on_c, 0, 81, 0
1, 752674, Note_on_c, 0, 80, 72
1, 752674, Poly_aftertouch_c, 0, 81, 0
1, 752710, Note_on_c, 0, 80, 0
1, 752710, Poly_aftertouch_c, 0, 80, 0
1, 752751, Note_on_c, 0, 79, 79
1, 752809, Note_on_c, 0, 76, 80
1, 752857, Note_on_c, 0, 79, 0
1, 752877, Note_on_c, 0, 33, 96
1, 752877, Note_on_c, 0, 71, 85
1, 752878, Note_on_c, 0, 28, 88
1, 752903, Note_on_c, 0, 76, 0
1, 752903, Poly_aftertouch_c, 0, 76, 0
1, 752923, Note_on_c, 0, 28, 0
1, 752929, Note_on_c, 0, 33, 0
1, 752945, Note_on_c, 0, 71, 0
1, 753028, Note_on_c, 0, 69, 75
1, 753080, Note_on_c, 0, 69, 0
1, 753080, Poly_aftertouch_c, 0, 69, 0
1, 753105, Note_on_c, 0, 68, 77
1, 753173, Note_on_c, 0, 67, 77
1, 753177, Note_on_c, 0, 68, 0
1, 753236, Note_on_c, 0, 67, 0
1, 753239, Note_on_c, 0, 64, 80
1, 753309, Note_on_c, 0, 64, 0
1, 753323, Note_on_c, 0, 60, 80
1, 753351, Note_on_c, 0, 60, 0
1, 753409, Note_on_c, 0, 59, 84
1, 753482, Note_on_c, 0, 59, 0
1, 753496, Note_on_c, 0, 57, 75
1, 753570, Note_on_c, 0, 56, 80
1, 753583, Note_on_c, 0, 57, 0
1, 753583, Poly_aftertouch_c, 0, 57, 0
1, 753643, Note_on_c, 0, 56, 0
1, 753643, Poly_aftertouch_c, 0, 56, 0
1, 753664, Note_on_c, 0, 55, 79
1, 753755, Note_on_c, 0, 52, 83
1, 753760, Note_on_c, 0, 55, 0
1, 753854, Note_on_c, 0, 48, 87
1, 753866, Note_on_c, 0, 52, 0
1, 753898, Note_on_c, 0, 48, 0
1, 753898, Poly_aftertouch_c, 0, 48, 0
1, 753971, Note_on_c, 0, 47, 96
1, 754027, Note_on_c, 0, 47, 0
1, 754097, Note_on_c, 0, 45, 90
1, 754166, Note_on_c, 0, 45, 0
1, 754223, Note_on_c, 0, 44, 93
1, 754283, Note_on_c, 0, 44, 0
1, 754283, Poly_aftertouch_c, 0, 44, 0
1, 754360, Note_on_c, 0, 43, 93
1, 754425, Note_on_c, 0, 43, 0
1, 754425, Poly_aftertouch_c, 0, 43, 0
1, 754516, Note_on_c, 0, 40, 91
1, 754588, Note_on_c, 0, 40, 0
1, 754667, Note_on_c, 0, 36, 98
1, 754713, Note_on_c, 0, 36, 0
1, 754713, Poly_aftertouch_c, 0, 36, 0
1, 755009, Note_on_c, 0, 33, 98
1, 755014, Note_on_c, 0, 21, 98
1, 755022, Control_c, 0, 64, 121
1, 755042, Control_c, 0, 64, 69
1, 755061, Control_c, 0, 64, 0
1, 755228, Control_c, 0, 64, 85
1, 755247, Control_c, 0, 64, 127
1, 755304, Note_on_c, 0, 21, 0
1, 755510, Note_on_c, 0, 33, 0
1, 755613, Note_on_c, 0, 40, 78
1, 756029, Note_on_c, 0, 45, 86
1, 756053, Note_on_c, 0, 40, 0
1, 756213, Note_on_c, 0, 45, 0
1, 756289, Note_on_c, 0, 48, 82
1, 756480, Note_on_c, 0, 51, 89
1, 756526, Note_on_c, 0, 48, 0
1, 756526, Poly_aftertouch_c, 0, 48, 0
1, 756647, Note_on_c, 0, 52, 88
1, 756671, Note_on_c, 0, 51, 0
1, 756671, Poly_aftertouch_c, 0, 51, 0
1, 756799, Note_on_c, 0, 52, 0
1, 756856, Note_on_c, 0, 53, 84
1, 756949, Note_on_c, 0, 60, 67
1, 757023, Control_c, 0, 64, 123
1, 757042, Control_c, 0, 64, 92
1, 757046, Note_on_c, 0, 63, 66
1, 757061, Control_c, 0, 64, 67
1, 757067, Note_on_c, 0, 60, 0
1, 757080, Control_c, 0, 64, 66
1, 757098, Control_c, 0, 64, 71
1, 757116, Control_c, 0, 64, 80
1, 757119, Note_on_c, 0, 68, 58
1, 757134, Note_on_c, 0, 54, 85
1, 757136, Control_c, 0, 64, 89
1, 757153, Note_on_c, 0, 63, 0
1, 757153, Poly_aftertouch_c, 0, 63, 0
1, 757153, Control_c, 0, 64, 104
1, 757164, Note_on_c, 0, 53, 0
1, 757172, Control_c, 0, 64, 123
1, 757180, Note_on_c, 0, 71, 62
1, 757194, Control_c, 0, 64, 127
1, 757216, Note_on_c, 0, 68, 0
1, 757258, Note_on_c, 0, 71, 0
1, 757295, Note_on_c, 0, 64, 72
1, 757311, Note_on_c, 0, 56, 85
1, 757323, Control_c, 0, 64, 123
1, 757349, Note_on_c, 0, 69, 60
1, 757354, Note_on_c, 0, 54, 0
1, 757354, Poly_aftertouch_c, 0, 54, 0
1, 757359, Control_c, 0, 64, 127
1, 757379, Note_on_c, 0, 64, 0
1, 757393, Note_on_c, 0, 69, 0
1, 757393, Poly_aftertouch_c, 0, 69, 0
1, 757396, Note_on_c, 0, 71, 58
1, 757435, Note_on_c, 0, 71, 0
1, 757446, Note_on_c, 0, 72, 39
1, 757453, Note_on_c, 0, 57, 83
1, 757456, Note_on_c, 0, 56, 0
1, 757456, Poly_aftertouch_c, 0, 56, 0
1, 757479, Note_on_c, 0, 74, 66
1, 757483, Note_on_c, 0, 72, 0
1, 757504, Note_on_c, 0, 74, 0
1, 757535, Note_on_c, 0, 57, 0
1, 757535, Poly_aftertouch_c, 0, 57, 0
1, 757559, Note_on_c, 0, 68, 78
1, 757592, Note_on_c, 0, 59, 86
1, 757641, Note_on_c, 0, 71, 71
1, 757659, Note_on_c, 0, 68, 0
1, 757695, Control_c, 0, 64, 105
1, 757697, Note_on_c, 0, 75, 65
1, 757715, Control_c, 0, 64, 89
1, 757732, Note_on_c, 0, 60, 84
1, 757753, Control_c, 0, 64, 98
1, 757763, Note_on_c, 0, 59, 0
1, 757766, Note_on_c, 0, 77, 82
1, 757770, Control_c, 0, 64, 111
1, 757772, Note_on_c, 0, 71, 0
1, 757790, Control_c, 0, 64, 127
1, 757805, Note_on_c, 0, 75, 0
1, 757805, Poly_aftertouch_c, 0, 75, 0
1, 757853, Note_on_c, 0, 77, 0
1, 757858, Note_on_c, 0, 69, 78
1, 757874, Note_on_c, 0, 63, 89
1, 757897, Note_on_c, 0, 72, 63
1, 757911, Note_on_c, 0, 60, 0
1, 757937, Note_on_c, 0, 75, 82
1, 757939, Control_c, 0, 64, 121
1, 757958, Control_c, 0, 64, 102
1, 757962, Note_on_c, 0, 69, 0
1, 757962, Poly_aftertouch_c, 0, 69, 0
1, 757978, Control_c, 0, 64, 96
1, 757987, Note_on_c, 0, 76, 59
1, 757994, Note_on_c, 0, 72, 0
1, 757997, Control_c, 0, 64, 102
1, 758015, Control_c, 0, 64, 110
1, 758018, Note_on_c, 0, 63, 0
1, 758018, Poly_aftertouch_c, 0, 63, 0
1, 758020, Note_on_c, 0, 64, 85
1, 758032, Control_c, 0, 64, 121
1, 758035, Note_on_c, 0, 80, 83
1, 758045, Note_on_c, 0, 75, 0
1, 758045, Poly_aftertouch_c, 0, 75, 0
1, 758050, Control_c, 0, 64, 127
1, 758056, Note_on_c, 0, 76, 0
1, 758056, Poly_aftertouch_c, 0, 76, 0
1, 758089, Note_on_c, 0, 64, 0
1, 758124, Note_on_c, 0, 80, 0
1, 758124, Poly_aftertouch_c, 0, 80, 0
1, 758140, Note_on_c, 0, 72, 80
1, 758148, Note_on_c, 0, 65, 82
1, 758211, Note_on_c, 0, 75, 77
1, 758220, Control_c, 0, 64, 112
1, 758239, Control_c, 0, 64, 83
1, 758243, Note_on_c, 0, 72, 0
1, 758249, Note_on_c, 0, 66, 80
1, 758250, Note_on_c, 0, 65, 0
1, 758258, Control_c, 0, 64, 71
1, 758272, Note_on_c, 0, 80, 72
1, 758277, Control_c, 0, 64, 76
1, 758295, Control_c, 0, 64, 85
1, 758313, Control_c, 0, 64, 98
1, 758328, Note_on_c, 0, 75, 0
1, 758328, Note_on_c, 0, 83, 75
1, 758328, Poly_aftertouch_c, 0, 75, 0
1, 758332, Control_c, 0, 64, 119
1, 758345, Note_on_c, 0, 67, 80
1, 758347, Note_on_c, 0, 66, 0
1, 758351, Control_c, 0, 64, 127
1, 758368, Note_on_c, 0, 80, 0
1, 758368, Poly_aftertouch_c, 0, 80, 0
1, 758396, Note_on_c, 0, 83, 0
1, 758434, Note_on_c, 0, 76, 80
1, 758448, Note_on_c, 0, 68, 81
1, 758462, Note_on_c, 0, 67, 0
1, 758477, Note_on_c, 0, 81, 71
1, 758481, Control_c, 0, 64, 111
1, 758500, Control_c, 0, 64, 89
1, 758520, Control_c, 0, 64, 85
1, 758527, Note_on_c, 0, 68, 0
1, 758529, Note_on_c, 0, 76, 0
1, 758529, Poly_aftertouch_c, 0, 76, 0
1, 758530, Note_on_c, 0, 83, 77
1, 758534, Note_on_c, 0, 69, 81
1, 758539, Control_c, 0, 64, 91
1, 758557, Control_c, 0, 64, 100
1, 758567, Note_on_c, 0, 84, 64
1, 758568, Note_on_c, 0, 81, 0
1, 758568, Poly_aftertouch_c, 0, 81, 0
1, 758576, Control_c, 0, 64, 114
1, 758594, Control_c, 0, 64, 127
1, 758606, Note_on_c, 0, 83, 0
1, 758608, Note_on_c, 0, 87, 82
1, 758611, Note_on_c, 0, 84, 0
1, 758631, Note_on_c, 0, 70, 83
1, 758646, Note_on_c, 0, 69, 0
1, 758646, Poly_aftertouch_c, 0, 69, 0
1, 758690, Note_on_c, 0, 87, 0
1, 758694, Note_on_c, 0, 80, 82
1, 758728, Note_on_c, 0, 71, 81
1, 758729, Note_on_c, 0, 70, 0
1, 758729, Poly_aftertouch_c, 0, 70, 0
1, 758751, Note_on_c, 0, 83, 80
1, 758762, Control_c, 0, 64, 101
1, 758769, Note_on_c, 0, 80, 0
1, 758769, Poly_aftertouch_c, 0, 80, 0
1, 758781, Control_c, 0, 64, 85
1, 758799, Control_c, 0, 64, 87
1, 758806, Note_on_c, 0, 71, 0
1, 758819, Control_c, 0, 64, 94
1, 758826, Note_on_c, 0, 72, 80
1, 758829, Note_on_c, 0, 87, 73
1, 758837, Control_c, 0, 64, 105
1, 758856, Control_c, 0, 64, 119
1, 758875, Control_c, 0, 64, 127
1, 758881, Note_on_c, 0, 89, 77
1, 758888, Note_on_c, 0, 83, 0
1, 758920, Note_on_c, 0, 87, 0
1, 758924, Note_on_c, 0, 73, 81
1, 758937, Note_on_c, 0, 72, 0
1, 758958, Note_on_c, 0, 89, 0
1, 758958, Poly_aftertouch_c, 0, 89, 0
1, 758967, Note_on_c, 0, 81, 79
1, 759005, Note_on_c, 0, 73, 0
1, 759008, Note_on_c, 0, 84, 76
1, 759013, Note_on_c, 0, 74, 85
1, 759024, Control_c, 0, 64, 122
1, 759042, Control_c, 0, 64, 110
1, 759046, Note_on_c, 0, 87, 84
1, 759058, Note_on_c, 0, 81, 0
1, 759058, Poly_aftertouch_c, 0, 81, 0
1, 759081, Control_c, 0, 64, 116
1, 759094, Note_on_c, 0, 88, 61
1, 759099, Note_on_c, 0, 75, 86
1, 759099, Control_c, 0, 64, 124
1, 759100, Note_on_c, 0, 84, 0
1, 759126, Note_on_c, 0, 74, 0
1, 759134, Note_on_c, 0, 92, 83
1, 759144, Note_on_c, 0, 87, 0
1, 759162, Note_on_c, 0, 88, 0
1, 759194, Note_on_c, 0, 76, 82
1, 759201, Note_on_c, 0, 75, 0
1, 759201, Poly_aftertouch_c, 0, 75, 0
1, 759215, Note_on_c, 0, 92, 0
1, 759227, Note_on_c, 0, 84, 83
1, 759271, Note_on_c, 0, 76, 0
1, 759271, Poly_aftertouch_c, 0, 76, 0
1, 759289, Note_on_c, 0, 87, 79
1, 759295, Note_on_c, 0, 77, 82
1, 759332, Note_on_c, 0, 84, 0
1, 759351, Note_on_c, 0, 92, 78
1, 759388, Note_on_c, 0, 78, 83
1, 759395, Note_on_c, 0, 95, 82
1, 759400, Note_on_c, 0, 77, 0
1, 759403, Note_on_c, 0, 87, 0
1, 759444, Note_on_c, 0, 92, 0
1, 759474, Note_on_c, 0, 95, 0
1, 759486, Note_on_c, 0, 78, 0
1, 759491, Note_on_c, 0, 79, 86
1, 759500, Note_on_c, 0, 88, 80
1, 759553, Note_on_c, 0, 93, 72
1, 759589, Note_on_c, 0, 80, 87
1, 759593, Note_on_c, 0, 95, 83
1, 759612, Note_on_c, 0, 88, 0
1, 759612, Note_on_c, 0, 79, 0
1, 759623, Note_on_c, 0, 96, 81
1, 759649, Note_on_c, 0, 93, 0
1, 759691, Note_on_c, 0, 80, 0
1, 759691, Poly_aftertouch_c, 0, 80, 0
1, 759705, Note_on_c, 0, 81, 85
1, 759721, Note_on_c, 0, 99, 92
1, 759739, Note_on_c, 0, 95, 0
1, 759757, Note_on_c, 0, 96, 0
1, 759810, Note_on_c, 0, 99, 0
1, 759843, Note_on_c, 0, 82, 87
1, 759856, Note_on_c, 0, 81, 0
1, 759856, Poly_aftertouch_c, 0, 81, 0
1, 759895, Note_on_c, 0, 98, 103
1, 759945, Note_on_c, 0, 98, 0
1, 760049, Note_on_c, 0, 83, 91
1, 760056, Note_on_c, 0, 82, 0
1, 760228, Note_on_c, 0, 84, 98
1, 760248, Note_on_c, 0, 83, 0
1, 760290, Note_on_c, 0, 77, 29
1, 760341, Note_on_c, 0, 77, 0
1, 760418, Note_on_c, 0, 85, 104
1, 760454, Note_on_c, 0, 84, 0
1, 760633, Control_c, 0, 64, 113
1, 760651, Control_c, 0, 64, 85
1, 760654, Note_on_c, 0, 86, 102
1, 760689, Control_c, 0, 64, 101
1, 760699, Note_on_c, 0, 85, 0
1, 760706, Control_c, 0, 64, 119
1, 760725, Control_c, 0, 64, 127
1, 760923, Note_on_c, 0, 87, 106
1, 760961, Note_on_c, 0, 86, 0
1, 760961, Poly_aftertouch_c, 0, 86, 0
1, 761432, Note_on_c, 0, 88, 99
1, 761469, Note_on_c, 0, 87, 0
1, 761490, Note_on_c, 0, 88, 0
1, 763082, Control_c, 0, 64, 123
1, 763158, Control_c, 0, 64, 118
1, 763269, Control_c, 0, 64, 114
1, 763343, Control_c, 0, 64, 110
1, 763456, Control_c, 0, 64, 106
1, 763587, Control_c, 0, 64, 101
1, 763643, Control_c, 0, 64, 97
1, 763662, Control_c, 0, 64, 93
1, 763680, Control_c, 0, 64, 83
1, 763699, Control_c, 0, 64, 65
1, 763717, Control_c, 0, 64, 0
1, 764970, Control_c, 0, 67, 8
1, 765082, Control_c, 0, 67, 13
1, 765139, Control_c, 0, 67, 18
1, 765158, Control_c, 0, 67, 23
1, 765177, Control_c, 0, 67, 29
1, 765195, Control_c, 0, 67, 36
1, 765213, Control_c, 0, 67, 42
1, 765232, Control_c, 0, 67, 47
1, 765251, Control_c, 0, 67, 51
1, 765288, Control_c, 0, 67, 59
1, 765327, Control_c, 0, 67, 65
1, 765363, Control_c, 0, 67, 72
1, 765402, Control_c, 0, 67, 79
1, 765438, Control_c, 0, 67, 85
1, 765476, Control_c, 0, 67, 93
1, 765489, Note_on_c, 0, 52, 39
1, 765492, Control_c, 0, 67, 97
1, 765513, Control_c, 0, 67, 101
1, 765533, Control_c, 0, 67, 105
1, 765550, Control_c, 0, 67, 109
1, 765588, Control_c, 0, 67, 115
1, 765644, Control_c, 0, 67, 120
1, 765794, Control_c, 0, 64, 30
1, 765811, Control_c, 0, 64, 42
1, 765831, Control_c, 0, 64, 53
1, 765849, Control_c, 0, 64, 62
1, 765868, Control_c, 0, 64, 68
1, 765887, Control_c, 0, 64, 71
1, 765905, Control_c, 0, 64, 74
1, 765925, Control_c, 0, 64, 76
1, 765943, Control_c, 0, 64, 79
1, 765962, Control_c, 0, 64, 81
1, 765980, Control_c, 0, 64, 83
1, 766000, Control_c, 0, 64, 85
1, 766037, Control_c, 0, 64, 93
1, 766055, Control_c, 0, 64, 98
1, 766075, Control_c, 0, 64, 102
1, 766092, Control_c, 0, 64, 106
1, 766111, Control_c, 0, 64, 110
1, 766148, Control_c, 0, 64, 115
1, 766242, Control_c, 0, 64, 119
1, 766416, Note_on_c, 0, 57, 49
1, 766440, Note_on_c, 0, 33, 34
1, 766466, Control_c, 0, 64, 115
1, 766484, Control_c, 0, 64, 111
1, 766499, Poly_aftertouch_c, 0, 52, 24
1, 766502, Control_c, 0, 64, 98
1, 766522, Control_c, 0, 64, 75
1, 766542, Control_c, 0, 64, 52
1, 766557, Note_on_c, 0, 52, 0
1, 766557, Poly_aftertouch_c, 0, 52, 0
1, 766558, Control_c, 0, 64, 49
1, 766578, Control_c, 0, 64, 55
1, 766598, Control_c, 0, 64, 67
1, 766616, Control_c, 0, 64, 79
1, 766635, Control_c, 0, 64, 90
1, 766654, Control_c, 0, 64, 102
1, 766673, Control_c, 0, 64, 112
1, 766690, Control_c, 0, 64, 117
1, 766747, Note_on_c, 0, 33, 0
1, 766785, Control_c, 0, 64, 123
1, 766823, Control_c, 0, 64, 127
1, 766859, Control_c, 0, 67, 116
1, 767041, Note_on_c, 0, 57, 0
1, 767041, Poly_aftertouch_c, 0, 57, 0
1, 767196, Control_c, 0, 67, 112
1, 767238, Note_on_c, 0, 48, 26
1, 767278, Poly_aftertouch_c, 0, 64, 127
1, 767314, Poly_aftertouch_c, 0, 64, 0
1, 767399, Note_on_c, 0, 48, 0
1, 767399, Poly_aftertouch_c, 0, 48, 0
1, 767625, Note_on_c, 0, 71, 57
1, 767640, Note_on_c, 0, 59, 42
1, 767641, Note_on_c, 0, 40, 38
1, 767700, Note_on_c, 0, 71, 0
1, 767782, Note_on_c, 0, 40, 0
1, 767813, Control_c, 0, 67, 116
1, 767848, Note_on_c, 0, 59, 0
1, 767849, Poly_aftertouch_c, 0, 59, 0
1, 767905, Control_c, 0, 67, 120
1, 767981, Control_c, 0, 67, 126
1, 768033, Note_on_c, 0, 60, 42
1, 768052, Note_on_c, 0, 52, 37
1, 768145, Note_on_c, 0, 52, 0
1, 768145, Poly_aftertouch_c, 0, 52, 0
1, 768264, Note_on_c, 0, 60, 0
1, 768567, Note_on_c, 0, 64, 41
1, 768594, Note_on_c, 0, 45, 33
1, 768631, Note_on_c, 0, 64, 0
1, 768766, Note_on_c, 0, 45, 0
1, 768971, Note_on_c, 0, 52, 60
1, 768991, Note_on_c, 0, 40, 41
1, 769044, Note_on_c, 0, 40, 0
1, 769395, Note_on_c, 0, 55, 64
1, 769401, Control_c, 0, 64, 112
1, 769422, Control_c, 0, 64, 81
1, 769430, Note_on_c, 0, 36, 43
1, 769439, Control_c, 0, 64, 37
1, 769458, Control_c, 0, 64, 0
1, 769497, Note_on_c, 0, 52, 0
1, 769497, Poly_aftertouch_c, 0, 52, 0
1, 769513, Control_c, 0, 64, 54
1, 769534, Control_c, 0, 64, 86
1, 769552, Control_c, 0, 64, 114
1, 769570, Note_on_c, 0, 36, 0
1, 769570, Poly_aftertouch_c, 0, 36, 0
1, 769570, Control_c, 0, 64, 127
1, 769765, Note_on_c, 0, 55, 0
1, 769772, Note_on_c, 0, 64, 57
1, 769786, Note_on_c, 0, 52, 37
1, 769811, Note_on_c, 0, 64, 0
1, 769891, Note_on_c, 0, 52, 0
1, 769891, Poly_aftertouch_c, 0, 52, 0
1, 770234, Note_on_c, 0, 71, 64
1, 770254, Note_on_c, 0, 43, 43
1, 770258, Note_on_c, 0, 59, 43
1, 770331, Note_on_c, 0, 71, 0
1, 770433, Note_on_c, 0, 43, 0
1, 770433, Poly_aftertouch_c, 0, 43, 0
1, 770447, Note_on_c, 0, 59, 0
1, 770717, Note_on_c, 0, 60, 43
1, 770749, Note_on_c, 0, 55, 34
1, 770786, Control_c, 0, 64, 116
1, 770804, Control_c, 0, 64, 83
1, 770824, Control_c, 0, 64, 59
1, 770843, Control_c, 0, 64, 61
1, 770860, Control_c, 0, 64, 68
1, 770880, Control_c, 0, 64, 78
1, 770898, Control_c, 0, 64, 88
1, 770917, Control_c, 0, 64, 101
1, 770935, Control_c, 0, 64, 115
1, 770954, Control_c, 0, 64, 124
1, 771114, Note_on_c, 0, 60, 0
1, 771151, Note_on_c, 0, 55, 0
1, 771227, Note_on_c, 0, 64, 44
1, 771244, Note_on_c, 0, 48, 34
1, 771305, Note_on_c, 0, 64, 0
1, 771353, Note_on_c, 0, 48, 0
1, 771353, Poly_aftertouch_c, 0, 48, 0
1, 772035, Note_on_c, 0, 52, 37
1, 772061, Note_on_c, 0, 43, 29
1, 772114, Control_c, 0, 64, 107
1, 772132, Control_c, 0, 64, 80
1, 772151, Control_c, 0, 64, 60
1, 772188, Control_c, 0, 64, 65
1, 772207, Control_c, 0, 64, 74
1, 772225, Control_c, 0, 64, 83
1, 772246, Control_c, 0, 64, 93
1, 772263, Control_c, 0, 64, 104
1, 772281, Control_c, 0, 64, 112
1, 772301, Control_c, 0, 64, 116
1, 772353, Poly_aftertouch_c, 0, 43, 22
1, 772378, Note_on_c, 0, 43, 0
1, 772378, Poly_aftertouch_c, 0, 43, 0
1, 772413, Control_c, 0, 64, 121
1, 772468, Control_c, 0, 64, 125
1, 772823, Poly_aftertouch_c, 0, 52, 24
1, 772947, Note_on_c, 0, 52, 0
1, 772947, Poly_aftertouch_c, 0, 52, 0
1, 773658, Note_on_c, 0, 56, 31
1, 773662, Note_on_c, 0, 28, 27
1, 773777, Control_c, 0, 64, 110
1, 773797, Control_c, 0, 64, 83
1, 773815, Control_c, 0, 64, 57
1, 773834, Control_c, 0, 64, 41
1, 773853, Control_c, 0, 64, 43
1, 773870, Control_c, 0, 64, 55
1, 773890, Control_c, 0, 64, 69
1, 773908, Control_c, 0, 64, 79
1, 773928, Control_c, 0, 64, 90
1, 773945, Control_c, 0, 64, 100
1, 773965, Control_c, 0, 64, 106
1, 773984, Control_c, 0, 64, 110
1, 774040, Control_c, 0, 64, 115
1, 774077, Control_c, 0, 64, 120
1, 774095, Note_on_c, 0, 28, 0
1, 774115, Control_c, 0, 64, 125
1, 774320, Note_on_c, 0, 56, 0
1, 774320, Poly_aftertouch_c, 0, 56, 0
1, 774740, Note_on_c, 0, 64, 29
1, 774775, Note_on_c, 0, 47, 18
1, 774839, Note_on_c, 0, 64, 0
1, 774965, Note_on_c, 0, 47, 0
1, 775458, Note_on_c, 0, 71, 29
1, 775470, Note_on_c, 0, 59, 27
1, 775478, Note_on_c, 0, 40, 25
1, 775565, Note_on_c, 0, 40, 0
1, 775709, Poly_aftertouch_c, 0, 59, 24
1, 775810, Note_on_c, 0, 59, 0
1, 775810, Poly_aftertouch_c, 0, 59, 0
1, 775863, Poly_aftertouch_c, 0, 71, 24
1, 776067, Note_on_c, 0, 61, 35
1, 776076, Note_on_c, 0, 56, 27
1, 776237, Poly_aftertouch_c, 0, 71, 22
1, 776275, Note_on_c, 0, 56, 0
1, 776275, Poly_aftertouch_c, 0, 56, 0
1, 776311, Note_on_c, 0, 61, 0
1, 776311, Poly_aftertouch_c, 0, 61, 0
1, 776381, Note_on_c, 0, 71, 0
1, 776381, Poly_aftertouch_c, 0, 71, 0
1, 776527, Note_on_c, 0, 64, 36
1, 776540, Note_on_c, 0, 47, 28
1, 776590, Note_on_c, 0, 64, 0
1, 776636, Note_on_c, 0, 47, 0
1, 776924, Note_on_c, 0, 64, 29
1, 776925, Note_on_c, 0, 59, 37
1, 777138, Note_on_c, 0, 64, 0
1, 777176, Note_on_c, 0, 59, 0
1, 777176, Poly_aftertouch_c, 0, 59, 0
1, 777337, Note_on_c, 0, 71, 40
1, 777344, Note_on_c, 0, 61, 31
1, 777455, Note_on_c, 0, 61, 0
1, 777455, Poly_aftertouch_c, 0, 61, 0
1, 777532, Note_on_c, 0, 71, 0
1, 777532, Poly_aftertouch_c, 0, 71, 0
1, 777791, Note_on_c, 0, 64, 26
1, 777791, Note_on_c, 0, 76, 39
1, 778170, Note_on_c, 0, 76, 0
1, 778170, Poly_aftertouch_c, 0, 76, 0
1, 778250, Note_on_c, 0, 71, 31
1, 778759, Poly_aftertouch_c, 0, 71, 24
1, 778760, Note_on_c, 0, 73, 36
1, 778794, Note_on_c, 0, 71, 0
1, 778794, Poly_aftertouch_c, 0, 71, 0
1, 779059, Note_on_c, 0, 73, 0
1, 779248, Poly_aftertouch_c, 0, 64, 24
1, 779292, Note_on_c, 0, 64, 0
1, 779292, Poly_aftertouch_c, 0, 64, 0
1, 779391, Note_on_c, 0, 76, 31
1, 779399, Note_on_c, 0, 71, 24
1, 780060, Control_c, 0, 67, 122
1, 780172, Control_c, 0, 67, 117
1, 780303, Control_c, 0, 67, 113
1, 780308, Note_on_c, 0, 73, 31
1, 780359, Control_c, 0, 67, 109
1, 780378, Poly_aftertouch_c, 0, 71, 24
1, 780452, Control_c, 0, 67, 105
1, 780454, Note_on_c, 0, 71, 0
1, 780454, Poly_aftertouch_c, 0, 71, 0
1, 780510, Control_c, 0, 67, 100
1, 780547, Control_c, 0, 67, 96
1, 780584, Control_c, 0, 67, 92
1, 780593, Note_on_c, 0, 73, 0
1, 780640, Control_c, 0, 67, 87
1, 780676, Control_c, 0, 67, 83
1, 780715, Control_c, 0, 67, 79
1, 780720, Poly_aftertouch_c, 0, 76, 24
1, 780767, Note_on_c, 0, 76, 0
1, 780767, Poly_aftertouch_c, 0, 76, 0
1, 780769, Control_c, 0, 67, 73
1, 780827, Control_c, 0, 67, 69
1, 780882, Control_c, 0, 67, 64
1, 780938, Control_c, 0, 67, 59
1, 780995, Control_c, 0, 67, 54
1, 781070, Control_c, 0, 67, 50
1, 781127, Control_c, 0, 67, 43
1, 781164, Control_c, 0, 67, 39
1, 781239, Control_c, 0, 67, 35
1, 781331, Control_c, 0, 67, 31
1, 781406, Control_c, 0, 67, 26
1, 781462, Control_c, 0, 67, 22
1, 781519, Control_c, 0, 67, 18
1, 781594, Control_c, 0, 67, 13
1, 781668, Control_c, 0, 67, 8
1, 782309, Note_on_c, 0, 80, 65
1, 782343, Note_on_c, 0, 71, 32
1, 782346, Note_on_c, 0, 76, 44
1, 782358, Note_on_c, 0, 68, 25
1, 782382, Note_on_c, 0, 64, 28
1, 782491, Control_c, 0, 67, 12
1, 782603, Control_c, 0, 67, 16
1, 782678, Control_c, 0, 67, 22
1, 782716, Control_c, 0, 67, 28
1, 782733, Control_c, 0, 67, 32
1, 782744, Note_on_c, 0, 76, 0
1, 782744, Poly_aftertouch_c, 0, 76, 0
1, 782765, Note_on_c, 0, 68, 0
1, 782772, Control_c, 0, 67, 37
1, 782827, Control_c, 0, 67, 41
1, 782851, Note_on_c, 0, 71, 0
1, 782851, Poly_aftertouch_c, 0, 71, 0
1, 782865, Control_c, 0, 67, 47
1, 782902, Control_c, 0, 67, 52
1, 782939, Control_c, 0, 67, 58
1, 782977, Control_c, 0, 67, 63
1, 782988, Note_on_c, 0, 64, 0
1, 782988, Poly_aftertouch_c, 0, 64, 0
1, 783014, Control_c, 0, 67, 69
1, 783089, Control_c, 0, 67, 73
1, 783145, Control_c, 0, 67, 78
1, 783220, Control_c, 0, 67, 83
1, 783257, Control_c, 0, 67, 87
1, 783273, Note_on_c, 0, 80, 0
1, 783273, Poly_aftertouch_c, 0, 80, 0
1, 783333, Control_c, 0, 67, 91
1, 783537, Note_on_c, 0, 79, 52
1, 783537, Control_c, 0, 67, 95
1, 783565, Note_on_c, 0, 63, 32
1, 783595, Control_c, 0, 67, 99
1, 783632, Control_c, 0, 67, 105
1, 783688, Control_c, 0, 67, 110
1, 783745, Note_on_c, 0, 63, 0
1, 783745, Poly_aftertouch_c, 0, 63, 0
1, 783757, Note_on_c, 0, 79, 0
1, 783762, Control_c, 0, 67, 114
1, 783811, Note_on_c, 0, 78, 56
1, 783819, Note_on_c, 0, 61, 27
1, 783819, Control_c, 0, 67, 119
1, 783835, Note_on_c, 0, 73, 36
1, 783859, Note_on_c, 0, 69, 19
1, 783874, Control_c, 0, 64, 114
1, 783875, Control_c, 0, 67, 123
1, 783888, Note_on_c, 0, 66, 18
1, 783891, Control_c, 0, 64, 96
1, 783912, Control_c, 0, 64, 69
1, 783931, Control_c, 0, 64, 39
1, 783949, Control_c, 0, 64, 11
1, 783969, Control_c, 0, 64, 28
1, 783987, Control_c, 0, 64, 49
1, 784005, Control_c, 0, 64, 67
1, 784024, Control_c, 0, 64, 81
1, 784043, Control_c, 0, 64, 90
1, 784063, Control_c, 0, 64, 100
1, 784078, Note_on_c, 0, 66, 0
1, 784080, Control_c, 0, 64, 105
1, 784086, Note_on_c, 0, 69, 0
1, 784086, Poly_aftertouch_c, 0, 69, 0
1, 784118, Control_c, 0, 64, 110
1, 784156, Control_c, 0, 64, 115
1, 784193, Control_c, 0, 64, 119
1, 784216, Note_on_c, 0, 78, 0
1, 784223, Note_on_c, 0, 73, 0
1, 784413, Poly_aftertouch_c, 0, 61, 24
1, 784475, Note_on_c, 0, 80, 44
1, 784480, Note_on_c, 0, 68, 31
1, 784508, Note_on_c, 0, 76, 29
1, 784511, Note_on_c, 0, 71, 20
1, 784529, Control_c, 0, 64, 114
1, 784539, Note_on_c, 0, 64, 22
1, 784546, Control_c, 0, 64, 110
1, 784564, Note_on_c, 0, 61, 0
1, 784564, Poly_aftertouch_c, 0, 61, 0
1, 784565, Control_c, 0, 64, 101
1, 784586, Control_c, 0, 64, 90
1, 784604, Control_c, 0, 64, 78
1, 784622, Control_c, 0, 64, 63
1, 784642, Control_c, 0, 64, 45
1, 784660, Control_c, 0, 64, 23
1, 784697, Control_c, 0, 64, 30
1, 784716, Control_c, 0, 64, 42
1, 784736, Control_c, 0, 64, 52
1, 784753, Control_c, 0, 64, 63
1, 784773, Control_c, 0, 64, 71
1, 784791, Control_c, 0, 64, 75
1, 784828, Control_c, 0, 64, 79
1, 784848, Control_c, 0, 64, 82
1, 784866, Control_c, 0, 64, 86
1, 784885, Control_c, 0, 64, 90
1, 784903, Control_c, 0, 64, 94
1, 784941, Control_c, 0, 64, 100
1, 784978, Control_c, 0, 64, 106
1, 785015, Control_c, 0, 64, 110
1, 785053, Control_c, 0, 64, 114
1, 785109, Control_c, 0, 64, 120
1, 785146, Control_c, 0, 64, 126
1, 785581, Poly_aftertouch_c, 0, 68, 24
1, 785602, Poly_aftertouch_c, 0, 71, 24
1, 785663, Note_on_c, 0, 68, 0
1, 785663, Poly_aftertouch_c, 0, 68, 0
1, 785700, Poly_aftertouch_c, 0, 76, 24
1, 785772, Note_on_c, 0, 71, 0
1, 785772, Poly_aftertouch_c, 0, 71, 0
1, 785787, Note_on_c, 0, 76, 0
1, 785787, Poly_aftertouch_c, 0, 76, 0
1, 785932, Control_c, 0, 67, 119
1, 786180, Poly_aftertouch_c, 0, 80, 24
1, 786193, Control_c, 0, 67, 115
1, 786255, Note_on_c, 0, 80, 0
1, 786255, Poly_aftertouch_c, 0, 80, 0
1, 786401, Control_c, 0, 67, 111
1, 786408, Poly_aftertouch_c, 0, 64, 24
1, 786515, Note_on_c, 0, 64, 0
1, 786515, Poly_aftertouch_c, 0, 64, 0
1, 786516, Poly_aftertouch_c, 0, 64, 0
1, 786623, Control_c, 0, 67, 107
1, 786773, Control_c, 0, 67, 103
1, 786922, Control_c, 0, 67, 99
1, 786997, Note_on_c, 0, 78, 42
1, 787015, Note_on_c, 0, 63, 28
1, 787117, Note_on_c, 0, 63, 0
1, 787117, Poly_aftertouch_c, 0, 63, 0
1, 787130, Note_on_c, 0, 78, 0
1, 787285, Note_on_c, 0, 76, 52
1, 787334, Note_on_c, 0, 73, 25
1, 787339, Note_on_c, 0, 69, 25
1, 787367, Note_on_c, 0, 64, 13
1, 787370, Control_c, 0, 64, 120
1, 787378, Poly_aftertouch_c, 0, 61, 127
1, 787390, Control_c, 0, 64, 95
1, 787409, Control_c, 0, 64, 64
1, 787429, Control_c, 0, 64, 50
1, 787446, Control_c, 0, 64, 54
1, 787465, Control_c, 0, 64, 66
1, 787484, Control_c, 0, 64, 78
1, 787502, Control_c, 0, 64, 90
1, 787520, Control_c, 0, 64, 107
1, 787540, Control_c, 0, 64, 122
1, 787558, Control_c, 0, 64, 127
1, 787580, Note_on_c, 0, 69, 0
1, 787580, Poly_aftertouch_c, 0, 69, 0
1, 787585, Note_on_c, 0, 64, 0
1, 787648, Note_on_c, 0, 73, 0
1, 787662, Note_on_c, 0, 76, 0
1, 787662, Poly_aftertouch_c, 0, 76, 0
1, 787720, Poly_aftertouch_c, 0, 61, 0
1, 787784, Note_on_c, 0, 80, 72
1, 787810, Note_on_c, 0, 76, 53
1, 787826, Note_on_c, 0, 71, 27
1, 787853, Note_on_c, 0, 64, 21
1, 787892, Poly_aftertouch_c, 0, 68, 127
1, 787940, Poly_aftertouch_c, 0, 68, 0
1, 787961, Note_on_c, 0, 71, 0
1, 787961, Poly_aftertouch_c, 0, 71, 0
1, 788059, Note_on_c, 0, 64, 0
1, 788064, Note_on_c, 0, 76, 0
1, 788064, Poly_aftertouch_c, 0, 76, 0
1, 788118, Control_c, 0, 67, 103
1, 788161, Note_on_c, 0, 78, 64
1, 788184, Note_on_c, 0, 63, 39
1, 788192, Control_c, 0, 67, 108
1, 788250, Control_c, 0, 67, 112
1, 788310, Note_on_c, 0, 76, 73
1, 788337, Note_on_c, 0, 80, 0
1, 788337, Note_on_c, 0, 61, 52
1, 788337, Poly_aftertouch_c, 0, 80, 0
1, 788346, Note_on_c, 0, 63, 0
1, 788346, Poly_aftertouch_c, 0, 63, 0
1, 788347, Note_on_c, 0, 78, 0
1, 788384, Note_on_c, 0, 61, 0
1, 788456, Control_c, 0, 64, 120
1, 788475, Control_c, 0, 64, 106
1, 788484, Note_on_c, 0, 75, 76
1, 788493, Control_c, 0, 64, 84
1, 788498, Note_on_c, 0, 71, 51
1, 788505, Note_on_c, 0, 76, 0
1, 788505, Poly_aftertouch_c, 0, 76, 0
1, 788511, Control_c, 0, 64, 54
1, 788530, Control_c, 0, 64, 0
1, 788534, Note_on_c, 0, 59, 44
1, 788538, Note_on_c, 0, 68, 42
1, 788542, Note_on_c, 0, 63, 28
1, 788587, Control_c, 0, 64, 49
1, 788606, Control_c, 0, 64, 74
1, 788625, Control_c, 0, 64, 95
1, 788636, Note_on_c, 0, 71, 0
1, 788636, Poly_aftertouch_c, 0, 71, 0
1, 788643, Control_c, 0, 64, 121
1, 788652, Note_on_c, 0, 63, 0
1, 788652, Poly_aftertouch_c, 0, 63, 0
1, 788660, Note_on_c, 0, 59, 0
1, 788660, Poly_aftertouch_c, 0, 59, 0
1, 788660, Control_c, 0, 64, 127
1, 788680, Note_on_c, 0, 75, 0
1, 788680, Poly_aftertouch_c, 0, 75, 0
1, 788688, Note_on_c, 0, 68, 0
1, 788736, Control_c, 0, 67, 108
1, 788944, Note_on_c, 0, 80, 75
1, 788974, Note_on_c, 0, 76, 58
1, 788993, Note_on_c, 0, 64, 41
1, 789007, Note_on_c, 0, 71, 35
1, 789011, Note_on_c, 0, 68, 30
1, 789015, Control_c, 0, 64, 119
1, 789036, Control_c, 0, 64, 96
1, 789038, Control_c, 0, 67, 112
1, 789055, Control_c, 0, 64, 67
1, 789074, Control_c, 0, 64, 32
1, 789092, Control_c, 0, 64, 0
1, 789129, Control_c, 0, 64, 27
1, 789148, Control_c, 0, 64, 57
1, 789167, Control_c, 0, 64, 79
1, 789188, Control_c, 0, 64, 94
1, 789204, Control_c, 0, 64, 111
1, 789222, Control_c, 0, 64, 121
1, 789237, Note_on_c, 0, 71, 0
1, 789237, Poly_aftertouch_c, 0, 71, 0
1, 789241, Control_c, 0, 64, 125
1, 789277, Note_on_c, 0, 68, 0
1, 789373, Control_c, 0, 67, 116
1, 789381, Note_on_c, 0, 64, 0
1, 789522, Control_c, 0, 67, 120
1, 789723, Poly_aftertouch_c, 0, 76, 20
1, 789732, Note_on_c, 0, 76, 0
1, 789732, Poly_aftertouch_c, 0, 76, 0
1, 789783, Note_on_c, 0, 83, 68
1, 789811, Note_on_c, 0, 78, 49
1, 789812, Note_on_c, 0, 73, 38
1, 789832, Note_on_c, 0, 69, 33
1, 789833, Note_on_c, 0, 80, 0
1, 789833, Note_on_c, 0, 63, 31
1, 789833, Poly_aftertouch_c, 0, 80, 0
1, 789885, Note_on_c, 0, 69, 0
1, 789885, Poly_aftertouch_c, 0, 69, 0
1, 789916, Note_on_c, 0, 73, 0
1, 789952, Control_c, 0, 67, 116
1, 789958, Note_on_c, 0, 78, 0
1, 790035, Note_on_c, 0, 63, 0
1, 790035, Poly_aftertouch_c, 0, 63, 0
1, 790119, Note_on_c, 0, 83, 0
1, 790138, Note_on_c, 0, 80, 58
1, 790139, Control_c, 0, 64, 121
1, 790151, Note_on_c, 0, 76, 48
1, 790177, Note_on_c, 0, 71, 32
1, 790177, Control_c, 0, 64, 108
1, 790178, Note_on_c, 0, 68, 24
1, 790193, Control_c, 0, 64, 89
1, 790199, Note_on_c, 0, 64, 24
1, 790213, Control_c, 0, 64, 62
1, 790233, Control_c, 0, 64, 23
1, 790250, Control_c, 0, 64, 0
1, 790288, Control_c, 0, 64, 38
1, 790308, Control_c, 0, 64, 61
1, 790326, Control_c, 0, 64, 77
1, 790345, Control_c, 0, 64, 87
1, 790364, Control_c, 0, 64, 96
1, 790382, Control_c, 0, 64, 103
1, 790418, Poly_aftertouch_c, 0, 68, 24
1, 790420, Control_c, 0, 64, 107
1, 790452, Note_on_c, 0, 64, 0
1, 790460, Note_on_c, 0, 80, 0
1, 790460, Note_on_c, 0, 76, 0
1, 790460, Poly_aftertouch_c, 0, 76, 0
1, 790460, Poly_aftertouch_c, 0, 80, 0
1, 790476, Control_c, 0, 64, 111
1, 790508, Note_on_c, 0, 71, 0
1, 790508, Poly_aftertouch_c, 0, 71, 0
1, 790513, Control_c, 0, 64, 118
1, 790524, Note_on_c, 0, 68, 0
1, 790524, Poly_aftertouch_c, 0, 68, 0
1, 790550, Control_c, 0, 64, 123
1, 791027, Note_on_c, 0, 80, 40
1, 791055, Note_on_c, 0, 76, 38
1, 791059, Note_on_c, 0, 68, 21
1, 791059, Note_on_c, 0, 71, 15
1, 791092, Control_c, 0, 64, 117
1, 791096, Note_on_c, 0, 64, 18
1, 791129, Control_c, 0, 64, 105
1, 791148, Control_c, 0, 64, 90
1, 791168, Control_c, 0, 64, 70
1, 791186, Control_c, 0, 64, 49
1, 791204, Control_c, 0, 64, 12
1, 791223, Control_c, 0, 64, 0
1, 791242, Control_c, 0, 64, 17
1, 791260, Control_c, 0, 64, 36
1, 791281, Control_c, 0, 64, 50
1, 791298, Control_c, 0, 64, 62
1, 791317, Control_c, 0, 64, 71
1, 791335, Control_c, 0, 64, 75
1, 791338, Poly_aftertouch_c, 0, 64, 24
1, 791355, Control_c, 0, 64, 77
1, 791392, Control_c, 0, 64, 79
1, 791429, Control_c, 0, 64, 83
1, 791448, Control_c, 0, 64, 85
1, 791485, Control_c, 0, 64, 92
1, 791523, Control_c, 0, 64, 97
1, 791560, Control_c, 0, 64, 101
1, 791616, Control_c, 0, 64, 106
1, 791672, Control_c, 0, 64, 111
1, 791746, Control_c, 0, 64, 115
1, 791897, Control_c, 0, 64, 119
1, 791938, Poly_aftertouch_c, 0, 64, 22
1, 792062, Poly_aftertouch_c, 0, 76, 24
1, 792100, Note_on_c, 0, 64, 0
1, 792100, Poly_aftertouch_c, 0, 64, 0
1, 792121, Control_c, 0, 67, 112
1, 792125, Poly_aftertouch_c, 0, 68, 24
1, 792158, Control_c, 0, 64, 123
1, 792173, Poly_aftertouch_c, 0, 71, 24
1, 792256, Note_on_c, 0, 68, 0
1, 792256, Poly_aftertouch_c, 0, 68, 0
1, 792342, Poly_aftertouch_c, 0, 76, 22
1, 792383, Control_c, 0, 67, 108
1, 792409, Note_on_c, 0, 71, 0
1, 792409, Poly_aftertouch_c, 0, 71, 0
1, 792427, Note_on_c, 0, 76, 0
1, 792427, Poly_aftertouch_c, 0, 76, 0
1, 792570, Control_c, 0, 67, 104
1, 792663, Control_c, 0, 67, 100
1, 792737, Control_c, 0, 67, 96
1, 792814, Control_c, 0, 67, 91
1, 792887, Control_c, 0, 67, 87
1, 792962, Control_c, 0, 67, 83
1, 793018, Control_c, 0, 67, 79
1, 793112, Control_c, 0, 67, 74
1, 793205, Control_c, 0, 67, 69
1, 793318, Control_c, 0, 67, 65
1, 793429, Control_c, 0, 67, 61
1, 793523, Control_c, 0, 67, 57
1, 793636, Control_c, 0, 67, 53
1, 793648, Note_on_c, 0, 59, 19
1, 793711, Control_c, 0, 67, 49
1, 793748, Control_c, 0, 67, 44
1, 793785, Control_c, 0, 67, 38
1, 793822, Control_c, 0, 67, 34
1, 793877, Control_c, 0, 67, 28
1, 793904, Poly_aftertouch_c, 0, 59, 24
1, 793916, Control_c, 0, 67, 23
1, 793953, Control_c, 0, 67, 17
1, 793991, Control_c, 0, 67, 12
1, 794046, Control_c, 0, 64, 127
1, 794053, Note_on_c, 0, 59, 0
1, 794053, Poly_aftertouch_c, 0, 59, 0
1, 794053, Poly_aftertouch_c, 0, 59, 0
1, 794103, Control_c, 0, 67, 8
1, 794362, Note_on_c, 0, 71, 30
1, 794420, Control_c, 0, 67, 0
1, 794511, Note_on_c, 0, 78, 58
1, 794569, Note_on_c, 0, 71, 0
1, 794569, Poly_aftertouch_c, 0, 71, 0
1, 794624, Note_on_c, 0, 80, 0
1, 794624, Poly_aftertouch_c, 0, 80, 0
1, 794998, Note_on_c, 0, 66, 37
1, 795016, Note_on_c, 0, 68, 28
1, 795108, Note_on_c, 0, 66, 0
1, 795143, Note_on_c, 0, 80, 72
1, 795144, Note_on_c, 0, 68, 0
1, 795144, Poly_aftertouch_c, 0, 68, 0
1, 795183, Note_on_c, 0, 75, 36
1, 795189, Note_on_c, 0, 71, 38
1, 795208, Note_on_c, 0, 78, 0
1, 796422, Note_on_c, 0, 83, 71
1, 796541, Note_on_c, 0, 75, 0
1, 796541, Poly_aftertouch_c, 0, 75, 0
1, 796557, Note_on_c, 0, 80, 0
1, 796557, Poly_aftertouch_c, 0, 80, 0
1, 796705, Note_on_c, 0, 71, 0
1, 796705, Note_on_c, 0, 83, 0
1, 796705, Poly_aftertouch_c, 0, 71, 0
1, 797143, Note_on_c, 0, 64, 29
1, 797287, Note_on_c, 0, 68, 34
1, 797463, Note_on_c, 0, 73, 50
1, 797822, Note_on_c, 0, 76, 64
1, 798601, Note_on_c, 0, 40, 35
1, 799059, Poly_aftertouch_c, 0, 40, 24
1, 799135, Note_on_c, 0, 40, 0
1, 799135, Poly_aftertouch_c, 0, 40, 0
1, 799321, Note_on_c, 0, 49, 47
1, 799685, Note_on_c, 0, 64, 0
1, 799685, Poly_aftertouch_c, 0, 64, 0
1, 799781, Note_on_c, 0, 68, 0
1, 799781, Poly_aftertouch_c, 0, 68, 0
1, 799783, Note_on_c, 0, 56, 50
1, 799796, Note_on_c, 0, 49, 0
1, 799796, Poly_aftertouch_c, 0, 49, 0
1, 799876, Note_on_c, 0, 56, 0
1, 799876, Poly_aftertouch_c, 0, 56, 0
1, 799960, Note_on_c, 0, 73, 0
1, 800184, Note_on_c, 0, 56, 51
1, 800620, Note_on_c, 0, 66, 44
1, 800693, Note_on_c, 0, 75, 67
1, 800810, Note_on_c, 0, 76, 0
1, 800810, Poly_aftertouch_c, 0, 76, 0
1, 800923, Note_on_c, 0, 66, 0
1, 801136, Note_on_c, 0, 56, 0
1, 801136, Poly_aftertouch_c, 0, 56, 0
1, 801233, Note_on_c, 0, 64, 35
1, 801312, Note_on_c, 0, 75, 0
1, 801312, Poly_aftertouch_c, 0, 75, 0
1, 801393, Note_on_c, 0, 76, 58
1, 801414, Note_on_c, 0, 73, 33
1, 801422, Note_on_c, 0, 68, 35
1, 801526, Control_c, 0, 64, 100
1, 801545, Control_c, 0, 64, 78
1, 801583, Control_c, 0, 64, 80
1, 801601, Control_c, 0, 64, 86
1, 801619, Control_c, 0, 64, 96
1, 801640, Control_c, 0, 64, 112
1, 801657, Control_c, 0, 64, 127
1, 801779, Note_on_c, 0, 75, 71
1, 801865, Note_on_c, 0, 76, 0
1, 801865, Poly_aftertouch_c, 0, 76, 0
1, 802018, Note_on_c, 0, 64, 0
1, 802018, Poly_aftertouch_c, 0, 64, 0
1, 802021, Note_on_c, 0, 56, 48
1, 802142, Note_on_c, 0, 76, 76
1, 802189, Note_on_c, 0, 75, 0
1, 802189, Poly_aftertouch_c, 0, 75, 0
1, 802235, Note_on_c, 0, 73, 0
1, 802292, Control_c, 0, 67, 8
1, 802310, Note_on_c, 0, 68, 0
1, 802310, Poly_aftertouch_c, 0, 68, 0
1, 802387, Control_c, 0, 67, 12
1, 802480, Control_c, 0, 67, 16
1, 802588, Note_on_c, 0, 63, 40
1, 802612, Control_c, 0, 64, 123
1, 802614, Control_c, 0, 67, 20
1, 802648, Control_c, 0, 64, 116
1, 802678, Note_on_c, 0, 78, 74
1, 802685, Control_c, 0, 64, 110
1, 802721, Note_on_c, 0, 66, 31
1, 802721, Note_on_c, 0, 72, 45
1, 802724, Control_c, 0, 64, 103
1, 802731, Note_on_c, 0, 76, 0
1, 802731, Poly_aftertouch_c, 0, 76, 0
1, 802760, Control_c, 0, 64, 98
1, 802798, Control_c, 0, 64, 93
1, 802818, Control_c, 0, 64, 88
1, 802835, Control_c, 0, 64, 81
1, 802855, Control_c, 0, 64, 68
1, 802872, Control_c, 0, 64, 45
1, 802891, Control_c, 0, 64, 0
1, 802947, Control_c, 0, 64, 25
1, 802966, Control_c, 0, 64, 45
1, 802985, Control_c, 0, 64, 61
1, 802986, Control_c, 0, 67, 24
1, 803003, Control_c, 0, 64, 75
1, 803021, Control_c, 0, 64, 80
1, 803041, Control_c, 0, 64, 83
1, 803042, Control_c, 0, 67, 28
1, 803060, Control_c, 0, 64, 86
1, 803062, Control_c, 0, 67, 32
1, 803078, Control_c, 0, 64, 91
1, 803097, Control_c, 0, 64, 97
1, 803098, Control_c, 0, 67, 38
1, 803116, Control_c, 0, 64, 103
1, 803117, Control_c, 0, 67, 42
1, 803135, Control_c, 0, 64, 108
1, 803153, Control_c, 0, 64, 114
1, 803154, Control_c, 0, 67, 46
1, 803172, Control_c, 0, 64, 121
1, 803191, Control_c, 0, 64, 125
1, 803193, Control_c, 0, 67, 52
1, 803227, Control_c, 0, 67, 56
1, 803265, Control_c, 0, 67, 62
1, 803322, Control_c, 0, 67, 66
1, 803359, Control_c, 0, 67, 71
1, 803398, Poly_aftertouch_c, 0, 56, 24
1, 803414, Control_c, 0, 67, 76
1, 803471, Control_c, 0, 67, 80
1, 803490, Note_on_c, 0, 56, 0
1, 803490, Poly_aftertouch_c, 0, 56, 0
1, 803545, Control_c, 0, 67, 85
1, 803602, Control_c, 0, 67, 90
1, 803714, Control_c, 0, 67, 95
1, 803720, Note_on_c, 0, 63, 0
1, 803720, Poly_aftertouch_c, 0, 63, 0
1, 803770, Control_c, 0, 67, 100
1, 803826, Control_c, 0, 67, 105
1, 803882, Control_c, 0, 67, 109
1, 803957, Control_c, 0, 67, 113
1, 804059, Poly_aftertouch_c, 0, 66, 24
1, 804106, Control_c, 0, 67, 117
1, 804139, Note_on_c, 0, 66, 0
1, 804139, Poly_aftertouch_c, 0, 66, 0
1, 804141, Note_on_c, 0, 62, 28
1, 804196, Note_on_c, 0, 80, 60
1, 804200, Control_c, 0, 67, 121
1, 804246, Note_on_c, 0, 78, 0
1, 804349, Control_c, 0, 67, 126
1, 804361, Poly_aftertouch_c, 0, 72, 24
1, 804364, Note_on_c, 0, 62, 0
1, 804364, Poly_aftertouch_c, 0, 62, 0
1, 804367, Note_on_c, 0, 80, 0
1, 804367, Poly_aftertouch_c, 0, 80, 0
1, 804439, Note_on_c, 0, 72, 0
1, 804439, Poly_aftertouch_c, 0, 72, 0
1, 804990, Note_on_c, 0, 40, 25
1, 805147, Note_on_c, 0, 61, 24
1, 805247, Note_on_c, 0, 64, 30
1, 805356, Note_on_c, 0, 69, 41
1, 805641, Note_on_c, 0, 71, 50
1, 805658, Control_c, 0, 64, 120
1, 805695, Control_c, 0, 64, 115
1, 805733, Control_c, 0, 64, 107
1, 805753, Control_c, 0, 64, 98
1, 805770, Control_c, 0, 64, 80
1, 805790, Control_c, 0, 64, 62
1, 805809, Control_c, 0, 64, 64
1, 805826, Control_c, 0, 64, 72
1, 805846, Control_c, 0, 64, 81
1, 805864, Control_c, 0, 64, 90
1, 805884, Control_c, 0, 64, 102
1, 805902, Control_c, 0, 64, 113
1, 805920, Control_c, 0, 64, 122
1, 805941, Control_c, 0, 64, 127
1, 806001, Poly_aftertouch_c, 0, 40, 24
1, 806196, Note_on_c, 0, 40, 0
1, 806196, Poly_aftertouch_c, 0, 40, 0
1, 806207, Note_on_c, 0, 47, 36
1, 806362, Note_on_c, 0, 47, 0
1, 806633, Note_on_c, 0, 54, 35
1, 806687, Control_c, 0, 67, 122
1, 806791, Note_on_c, 0, 54, 0
1, 806791, Poly_aftertouch_c, 0, 54, 0
1, 806934, Note_on_c, 0, 61, 0
1, 807033, Note_on_c, 0, 57, 40
1, 807061, Control_c, 0, 67, 117
1, 807172, Control_c, 0, 67, 113
1, 807219, Note_on_c, 0, 64, 0
1, 807219, Poly_aftertouch_c, 0, 64, 0
1, 807230, Control_c, 0, 67, 109
1, 807285, Control_c, 0, 67, 105
1, 807361, Control_c, 0, 67, 101
1, 807421, Note_on_c, 0, 59, 38
1, 807462, Note_on_c, 0, 69, 0
1, 807462, Poly_aftertouch_c, 0, 69, 0
1, 807483, Note_on_c, 0, 57, 0
1, 807483, Poly_aftertouch_c, 0, 57, 0
1, 807489, Control_c, 0, 67, 97
1, 807603, Control_c, 0, 67, 93
1, 807679, Control_c, 0, 67, 89
1, 807733, Note_on_c, 0, 59, 0
1, 807753, Control_c, 0, 67, 84
1, 807829, Note_on_c, 0, 61, 41
1, 807846, Control_c, 0, 67, 80
1, 807921, Control_c, 0, 67, 76
1, 807995, Control_c, 0, 67, 72
1, 808071, Control_c, 0, 67, 68
1, 808152, Note_on_c, 0, 61, 0
1, 808164, Control_c, 0, 67, 64
1, 808239, Control_c, 0, 67, 59
1, 808297, Control_c, 0, 67, 55
1, 808351, Control_c, 0, 67, 51
1, 808426, Note_on_c, 0, 64, 38
1, 808426, Control_c, 0, 67, 47
1, 808429, Note_on_c, 0, 68, 31
1, 808455, Note_on_c, 0, 59, 31
1, 808520, Control_c, 0, 64, 120
1, 808521, Control_c, 0, 67, 43
1, 808538, Control_c, 0, 64, 107
1, 808558, Control_c, 0, 64, 83
1, 808576, Control_c, 0, 64, 58
1, 808594, Control_c, 0, 64, 50
1, 808597, Control_c, 0, 67, 39
1, 808613, Control_c, 0, 64, 52
1, 808632, Control_c, 0, 64, 60
1, 808650, Control_c, 0, 64, 71
1, 808653, Control_c, 0, 67, 35
1, 808669, Control_c, 0, 64, 79
1, 808688, Control_c, 0, 64, 89
1, 808706, Control_c, 0, 64, 99
1, 808726, Control_c, 0, 64, 108
1, 808727, Control_c, 0, 67, 31
1, 808744, Control_c, 0, 64, 113
1, 808781, Control_c, 0, 64, 119
1, 808799, Control_c, 0, 67, 26
1, 808838, Control_c, 0, 64, 124
1, 808875, Control_c, 0, 67, 22
1, 808948, Note_on_c, 0, 59, 0
1, 808986, Control_c, 0, 67, 17
1, 809099, Control_c, 0, 67, 13
1, 809218, Note_on_c, 0, 64, 0
1, 809218, Poly_aftertouch_c, 0, 64, 0
1, 809365, Note_on_c, 0, 73, 59
1, 809389, Note_on_c, 0, 47, 31
1, 809480, Note_on_c, 0, 71, 0
1, 809480, Poly_aftertouch_c, 0, 71, 0
1, 809483, Note_on_c, 0, 68, 0
1, 809483, Poly_aftertouch_c, 0, 68, 0
1, 809827, Note_on_c, 0, 73, 0
1, 809940, Note_on_c, 0, 75, 63
1, 809969, Note_on_c, 0, 68, 39
1, 809974, Note_on_c, 0, 63, 31
1, 809982, Note_on_c, 0, 59, 50
1, 810053, Control_c, 0, 64, 113
1, 810071, Control_c, 0, 64, 96
1, 810093, Control_c, 0, 64, 72
1, 810109, Control_c, 0, 64, 51
1, 810127, Control_c, 0, 64, 42
1, 810146, Control_c, 0, 64, 45
1, 810165, Control_c, 0, 64, 55
1, 810183, Control_c, 0, 64, 67
1, 810202, Control_c, 0, 64, 77
1, 810222, Control_c, 0, 64, 85
1, 810240, Control_c, 0, 64, 94
1, 810258, Control_c, 0, 64, 101
1, 810297, Control_c, 0, 64, 107
1, 810315, Control_c, 0, 67, 17
1, 810340, Note_on_c, 0, 59, 0
1, 810352, Control_c, 0, 64, 114
1, 810371, Control_c, 0, 64, 118
1, 810389, Control_c, 0, 64, 123
1, 810427, Control_c, 0, 64, 127
1, 810520, Control_c, 0, 67, 22
1, 810599, Note_on_c, 0, 68, 0
1, 810599, Poly_aftertouch_c, 0, 68, 0
1, 810614, Control_c, 0, 67, 27
1, 810652, Control_c, 0, 67, 31
1, 810707, Control_c, 0, 67, 36
1, 810748, Poly_aftertouch_c, 0, 63, 24
1, 810763, Control_c, 0, 67, 40
1, 810776, Note_on_c, 0, 75, 0
1, 810776, Poly_aftertouch_c, 0, 75, 0
1, 810791, Note_on_c, 0, 63, 0
1, 810791, Poly_aftertouch_c, 0, 63, 0
1, 810819, Control_c, 0, 67, 44
1, 810875, Control_c, 0, 67, 48
1, 810950, Control_c, 0, 67, 53
1, 811006, Control_c, 0, 67, 57
1, 811062, Control_c, 0, 67, 61
1, 811130, Note_on_c, 0, 58, 51
1, 811136, Control_c, 0, 67, 66
1, 811196, Poly_aftertouch_c, 0, 47, 24
1, 811201, Note_on_c, 0, 58, 0
1, 811201, Poly_aftertouch_c, 0, 58, 0
1, 811213, Control_c, 0, 67, 71
1, 811254, Note_on_c, 0, 47, 0
1, 811254, Poly_aftertouch_c, 0, 47, 0
1, 811265, Note_on_c, 0, 62, 25
1, 811267, Control_c, 0, 67, 75
1, 811320, Note_on_c, 0, 67, 37
1, 811362, Control_c, 0, 67, 79
1, 811431, Note_on_c, 0, 62, 0
1, 811431, Note_on_c, 0, 76, 59
1, 811431, Poly_aftertouch_c, 0, 62, 0
1, 811437, Control_c, 0, 67, 84
1, 811474, Control_c, 0, 67, 89
1, 811494, Note_on_c, 0, 76, 0
1, 811494, Poly_aftertouch_c, 0, 76, 0
1, 811523, Note_on_c, 0, 67, 0
1, 811529, Control_c, 0, 67, 94
1, 811587, Control_c, 0, 67, 99
1, 811641, Control_c, 0, 67, 104
1, 811678, Control_c, 0, 67, 108
1, 811754, Control_c, 0, 67, 112
1, 811788, Note_on_c, 0, 40, 30
1, 811866, Control_c, 0, 67, 116
1, 811978, Control_c, 0, 67, 120
1, 811982, Note_on_c, 0, 57, 39
1, 812086, Note_on_c, 0, 61, 38
1, 812110, Control_c, 0, 67, 124
1, 812189, Note_on_c, 0, 66, 44
1, 812278, Control_c, 0, 64, 123
1, 812335, Control_c, 0, 64, 118
1, 812353, Control_c, 0, 64, 113
1, 812371, Control_c, 0, 64, 106
1, 812379, Note_on_c, 0, 68, 49
1, 812391, Control_c, 0, 64, 98
1, 812408, Control_c, 0, 64, 82
1, 812428, Control_c, 0, 64, 60
1, 812447, Control_c, 0, 64, 43
1, 812465, Control_c, 0, 64, 40
1, 812483, Control_c, 0, 64, 46
1, 812502, Control_c, 0, 64, 56
1, 812521, Control_c, 0, 64, 66
1, 812539, Control_c, 0, 64, 75
1, 812558, Control_c, 0, 64, 81
1, 812578, Control_c, 0, 64, 88
1, 812596, Control_c, 0, 64, 95
1, 812613, Control_c, 0, 64, 101
1, 812633, Control_c, 0, 64, 105
1, 812671, Poly_aftertouch_c, 0, 40, 24
1, 812671, Control_c, 0, 64, 111
1, 812709, Control_c, 0, 64, 117
1, 812765, Control_c, 0, 64, 122
1, 812859, Note_on_c, 0, 40, 0
1, 812859, Poly_aftertouch_c, 0, 40, 0
1, 812861, Note_on_c, 0, 47, 30
1, 813007, Control_c, 0, 64, 126
1, 813050, Note_on_c, 0, 47, 0
1, 813050, Poly_aftertouch_c, 0, 47, 0
1, 813142, Poly_aftertouch_c, 0, 57, 22
1, 813178, Note_on_c, 0, 57, 0
1, 813178, Poly_aftertouch_c, 0, 57, 0
1, 813259, Note_on_c, 0, 54, 32
1, 813499, Poly_aftertouch_c, 0, 61, 24
1, 813532, Note_on_c, 0, 61, 0
1, 813532, Poly_aftertouch_c, 0, 61, 0
1, 813642, Note_on_c, 0, 56, 39
1, 813672, Note_on_c, 0, 54, 0
1, 813672, Poly_aftertouch_c, 0, 54, 0
1, 813798, Poly_aftertouch_c, 0, 66, 24
1, 813852, Note_on_c, 0, 66, 0
1, 813852, Poly_aftertouch_c, 0, 66, 0
1, 814031, Note_on_c, 0, 57, 39
1, 814067, Note_on_c, 0, 56, 0
1, 814067, Poly_aftertouch_c, 0, 56, 0
1, 814374, Note_on_c, 0, 57, 0
1, 814374, Poly_aftertouch_c, 0, 57, 0
1, 814427, Note_on_c, 0, 59, 44
1, 814698, Note_on_c, 0, 59, 0
1, 814952, Control_c, 0, 64, 122
1, 815002, Note_on_c, 0, 60, 29
1, 815006, Note_on_c, 0, 64, 30
1, 815017, Note_on_c, 0, 56, 33
1, 815045, Control_c, 0, 64, 118
1, 815082, Control_c, 0, 64, 104
1, 815101, Control_c, 0, 64, 81
1, 815120, Control_c, 0, 64, 57
1, 815139, Control_c, 0, 64, 52
1, 815176, Control_c, 0, 64, 59
1, 815195, Control_c, 0, 64, 67
1, 815214, Control_c, 0, 64, 74
1, 815232, Control_c, 0, 64, 80
1, 815251, Control_c, 0, 64, 85
1, 815270, Control_c, 0, 64, 89
1, 815288, Control_c, 0, 64, 93
1, 815325, Control_c, 0, 64, 100
1, 815345, Control_c, 0, 64, 105
1, 815362, Control_c, 0, 64, 110
1, 815382, Control_c, 0, 64, 114
1, 815420, Control_c, 0, 64, 119
1, 815513, Control_c, 0, 64, 123
1, 815552, Note_on_c, 0, 64, 0
1, 815552, Poly_aftertouch_c, 0, 64, 0
1, 815571, Poly_aftertouch_c, 0, 56, 24
1, 815597, Poly_aftertouch_c, 0, 60, 24
1, 815679, Note_on_c, 0, 60, 0
1, 815679, Poly_aftertouch_c, 0, 60, 0
1, 815690, Note_on_c, 0, 56, 0
1, 815690, Poly_aftertouch_c, 0, 56, 0
1, 816054, Note_on_c, 0, 69, 49
1, 816078, Note_on_c, 0, 68, 0
1, 816078, Poly_aftertouch_c, 0, 68, 0
1, 816089, Note_on_c, 0, 47, 34
1, 816132, Control_c, 0, 67, 119
1, 816186, Control_c, 0, 67, 114
1, 816242, Control_c, 0, 67, 109
1, 816279, Note_on_c, 0, 69, 0
1, 816279, Poly_aftertouch_c, 0, 69, 0
1, 816279, Control_c, 0, 67, 103
1, 816317, Control_c, 0, 67, 99
1, 816355, Control_c, 0, 67, 95
1, 816393, Control_c, 0, 67, 91
1, 816466, Control_c, 0, 67, 87
1, 816542, Control_c, 0, 67, 81
1, 816597, Control_c, 0, 67, 77
1, 816672, Control_c, 0, 67, 73
1, 816687, Note_on_c, 0, 71, 53
1, 816691, Control_c, 0, 64, 119
1, 816709, Note_on_c, 0, 56, 44
1, 816713, Note_on_c, 0, 64, 28
1, 816717, Note_on_c, 0, 59, 27
1, 816747, Control_c, 0, 64, 115
1, 816766, Control_c, 0, 64, 111
1, 816783, Control_c, 0, 64, 101
1, 816803, Control_c, 0, 64, 81
1, 816822, Control_c, 0, 64, 53
1, 816840, Control_c, 0, 64, 23
1, 816879, Control_c, 0, 64, 35
1, 816897, Control_c, 0, 64, 51
1, 816916, Control_c, 0, 64, 65
1, 816934, Control_c, 0, 64, 74
1, 816952, Control_c, 0, 64, 80
1, 816972, Control_c, 0, 64, 84
1, 816990, Control_c, 0, 64, 86
1, 816992, Poly_aftertouch_c, 0, 59, 24
1, 817008, Control_c, 0, 64, 88
1, 817045, Control_c, 0, 64, 94
1, 817060, Note_on_c, 0, 59, 0
1, 817060, Poly_aftertouch_c, 0, 59, 0
1, 817083, Control_c, 0, 64, 100
1, 817088, Poly_aftertouch_c, 0, 64, 24
1, 817120, Control_c, 0, 64, 105
1, 817137, Note_on_c, 0, 71, 0
1, 817137, Poly_aftertouch_c, 0, 71, 0
1, 817176, Control_c, 0, 64, 110
1, 817182, Note_on_c, 0, 64, 0
1, 817182, Poly_aftertouch_c, 0, 64, 0
1, 817183, Poly_aftertouch_c, 0, 64, 0
1, 817196, Note_on_c, 0, 56, 0
1, 817196, Poly_aftertouch_c, 0, 56, 0
1, 817234, Control_c, 0, 64, 114
1, 817291, Control_c, 0, 64, 118
1, 817402, Control_c, 0, 64, 122
1, 817693, Poly_aftertouch_c, 0, 47, 24
1, 817719, Control_c, 0, 67, 77
1, 817867, Control_c, 0, 67, 81
1, 817870, Note_on_c, 0, 55, 33
1, 817938, Poly_aftertouch_c, 0, 47, 22
1, 817942, Control_c, 0, 67, 85
1, 817978, Note_on_c, 0, 47, 0
1, 817978, Poly_aftertouch_c, 0, 47, 0
1, 817998, Note_on_c, 0, 58, 27
1, 817998, Control_c, 0, 67, 89
1, 818046, Note_on_c, 0, 55, 0
1, 818073, Control_c, 0, 67, 94
1, 818080, Note_on_c, 0, 63, 35
1, 818131, Control_c, 0, 67, 100
1, 818149, Note_on_c, 0, 58, 0
1, 818149, Poly_aftertouch_c, 0, 58, 0
1, 818168, Control_c, 0, 67, 105
1, 818205, Control_c, 0, 67, 109
1, 818278, Control_c, 0, 67, 113
1, 818284, Note_on_c, 0, 73, 52
1, 818345, Note_on_c, 0, 73, 0
1, 818353, Control_c, 0, 67, 118
1, 818389, Poly_aftertouch_c, 0, 63, 20
1, 818392, Note_on_c, 0, 63, 0
1, 818392, Poly_aftertouch_c, 0, 63, 0
1, 818448, Control_c, 0, 67, 123
1, 818637, Control_c, 0, 67, 127
1, 818766, Control_c, 0, 64, 118
1, 818821, Note_on_c, 0, 28, 30
1, 818951, Note_on_c, 0, 54, 29
1, 819035, Note_on_c, 0, 57, 34
1, 819180, Note_on_c, 0, 62, 32
1, 819271, Control_c, 0, 64, 114
1, 819440, Control_c, 0, 64, 110
1, 819462, Note_on_c, 0, 64, 49
1, 819476, Control_c, 0, 64, 106
1, 819514, Control_c, 0, 64, 99
1, 819533, Control_c, 0, 64, 95
1, 819552, Control_c, 0, 64, 86
1, 819571, Control_c, 0, 64, 71
1, 819588, Control_c, 0, 64, 57
1, 819607, Control_c, 0, 64, 52
1, 819646, Control_c, 0, 64, 61
1, 819663, Control_c, 0, 64, 70
1, 819682, Control_c, 0, 64, 76
1, 819701, Control_c, 0, 64, 82
1, 819720, Control_c, 0, 64, 88
1, 819739, Control_c, 0, 64, 93
1, 819757, Control_c, 0, 64, 98
1, 819794, Control_c, 0, 64, 104
1, 819832, Control_c, 0, 64, 112
1, 819870, Control_c, 0, 64, 117
1, 819878, Note_on_c, 0, 28, 0
1, 819907, Control_c, 0, 64, 121
1, 819943, Control_c, 0, 64, 125
1, 819947, Note_on_c, 0, 40, 30
1, 820019, Note_on_c, 0, 40, 0
1, 820019, Poly_aftertouch_c, 0, 40, 0
1, 820359, Note_on_c, 0, 47, 33
1, 820407, Note_on_c, 0, 47, 0
1, 820407, Poly_aftertouch_c, 0, 47, 0
1, 820720, Note_on_c, 0, 49, 44
1, 820756, Note_on_c, 0, 54, 0
1, 820756, Poly_aftertouch_c, 0, 54, 0
1, 820973, Poly_aftertouch_c, 0, 57, 24
1, 820978, Note_on_c, 0, 49, 0
1, 820978, Poly_aftertouch_c, 0, 49, 0
1, 821023, Note_on_c, 0, 57, 0
1, 821023, Poly_aftertouch_c, 0, 57, 0
1, 821096, Note_on_c, 0, 50, 43
1, 821198, Poly_aftertouch_c, 0, 62, 24
1, 821259, Note_on_c, 0, 62, 0
1, 821259, Poly_aftertouch_c, 0, 62, 0
1, 821264, Note_on_c, 0, 50, 0
1, 821264, Poly_aftertouch_c, 0, 50, 0
1, 821520, Note_on_c, 0, 57, 42
1, 821819, Note_on_c, 0, 57, 0
1, 821819, Poly_aftertouch_c, 0, 57, 0
1, 821888, Control_c, 0, 67, 123
1, 822002, Control_c, 0, 67, 119
1, 822048, Note_on_c, 0, 56, 32
1, 822049, Note_on_c, 0, 61, 34
1, 822060, Note_on_c, 0, 52, 33
1, 822075, Control_c, 0, 64, 121
1, 822076, Control_c, 0, 67, 115
1, 822095, Control_c, 0, 64, 115
1, 822113, Control_c, 0, 64, 100
1, 822133, Control_c, 0, 64, 75
1, 822135, Control_c, 0, 67, 111
1, 822150, Control_c, 0, 64, 55
1, 822171, Control_c, 0, 64, 47
1, 822188, Control_c, 0, 67, 106
1, 822206, Control_c, 0, 64, 50
1, 822225, Control_c, 0, 64, 57
1, 822226, Control_c, 0, 67, 102
1, 822245, Control_c, 0, 64, 67
1, 822263, Control_c, 0, 64, 74
1, 822282, Control_c, 0, 64, 79
1, 822284, Control_c, 0, 67, 97
1, 822300, Control_c, 0, 64, 82
1, 822319, Control_c, 0, 64, 85
1, 822322, Control_c, 0, 67, 93
1, 822356, Control_c, 0, 64, 93
1, 822375, Control_c, 0, 64, 98
1, 822376, Control_c, 0, 67, 88
1, 822394, Control_c, 0, 64, 102
1, 822412, Control_c, 0, 64, 106
1, 822431, Control_c, 0, 64, 110
1, 822450, Control_c, 0, 67, 83
1, 822468, Control_c, 0, 64, 116
1, 822525, Control_c, 0, 64, 122
1, 822545, Control_c, 0, 67, 79
1, 822562, Control_c, 0, 64, 127
1, 822674, Control_c, 0, 67, 75
1, 822823, Control_c, 0, 67, 71
1, 822903, Note_on_c, 0, 52, 0
1, 822903, Poly_aftertouch_c, 0, 52, 0
1, 822955, Control_c, 0, 67, 67
1, 823067, Control_c, 0, 67, 62
1, 823141, Note_on_c, 0, 66, 56
1, 823174, Note_on_c, 0, 40, 27
1, 823234, Control_c, 0, 67, 58
1, 823245, Poly_aftertouch_c, 0, 56, 24
1, 823292, Note_on_c, 0, 56, 0
1, 823292, Poly_aftertouch_c, 0, 56, 0
1, 823297, Note_on_c, 0, 61, 0
1, 823297, Poly_aftertouch_c, 0, 61, 0
1, 823328, Control_c, 0, 67, 54
1, 823366, Note_on_c, 0, 64, 0
1, 823551, Note_on_c, 0, 66, 0
1, 823551, Poly_aftertouch_c, 0, 66, 0
1, 823823, Note_on_c, 0, 68, 56
1, 823855, Note_on_c, 0, 60, 36
1, 823860, Note_on_c, 0, 54, 27
1, 823865, Note_on_c, 0, 51, 37
1, 823890, Control_c, 0, 64, 119
1, 823908, Control_c, 0, 64, 110
1, 823927, Control_c, 0, 64, 96
1, 823946, Control_c, 0, 64, 72
1, 823964, Control_c, 0, 64, 39
1, 823983, Control_c, 0, 64, 0
1, 824038, Poly_aftertouch_c, 0, 40, 24
1, 824038, Control_c, 0, 64, 21
1, 824058, Control_c, 0, 64, 46
1, 824077, Control_c, 0, 64, 65
1, 824096, Control_c, 0, 64, 76
1, 824096, Control_c, 0, 67, 59
1, 824114, Control_c, 0, 64, 82
1, 824133, Control_c, 0, 64, 86
1, 824153, Control_c, 0, 64, 90
1, 824155, Control_c, 0, 67, 63
1, 824171, Control_c, 0, 64, 95
1, 824189, Control_c, 0, 64, 100
1, 824191, Control_c, 0, 67, 70
1, 824208, Control_c, 0, 64, 106
1, 824226, Control_c, 0, 64, 110
1, 824227, Control_c, 0, 67, 77
1, 824263, Control_c, 0, 64, 116
1, 824283, Control_c, 0, 67, 82
1, 824294, Poly_aftertouch_c, 0, 40, 32
1, 824321, Control_c, 0, 64, 122
1, 824323, Control_c, 0, 67, 86
1, 824357, Control_c, 0, 64, 126
1, 824359, Note_on_c, 0, 54, 0
1, 824359, Poly_aftertouch_c, 0, 54, 0
1, 824394, Control_c, 0, 67, 91
1, 824431, Control_c, 0, 67, 95
1, 824525, Control_c, 0, 67, 99
1, 824546, Note_on_c, 0, 51, 0
1, 824546, Poly_aftertouch_c, 0, 51, 0
1, 824552, Poly_aftertouch_c, 0, 40, 24
1, 824565, Note_on_c, 0, 68, 0
1, 824565, Poly_aftertouch_c, 0, 68, 0
1, 824600, Control_c, 0, 67, 103
1, 824656, Control_c, 0, 67, 108
1, 824771, Note_on_c, 0, 60, 0
1, 824771, Poly_aftertouch_c, 0, 60, 0
1, 824807, Control_c, 0, 67, 112
1, 824956, Control_c, 0, 67, 117
1, 825039, Poly_aftertouch_c, 0, 40, 22
1, 825087, Control_c, 0, 67, 121
1, 825181, Note_on_c, 0, 40, 0
1, 825181, Poly_aftertouch_c, 0, 40, 0
1, 825182, Poly_aftertouch_c, 0, 40, 0
1, 825254, Control_c, 0, 67, 125
1, 825500, Note_on_c, 0, 69, 44
1, 825534, Note_on_c, 0, 50, 29
1, 825603, Note_on_c, 0, 50, 0
1, 825603, Poly_aftertouch_c, 0, 50, 0
1, 825608, Note_on_c, 0, 69, 0
1, 825608, Poly_aftertouch_c, 0, 69, 0
1, 826394, Note_on_c, 0, 40, 20
1, 826406, Note_on_c, 0, 28, 15
1, 826524, Note_on_c, 0, 49, 30
1, 826635, Note_on_c, 0, 52, 29
1, 826747, Note_on_c, 0, 57, 34
1, 826956, Control_c, 0, 64, 121
1, 827012, Control_c, 0, 64, 115
1, 827022, Note_on_c, 0, 59, 47
1, 827031, Control_c, 0, 64, 106
1, 827050, Control_c, 0, 64, 85
1, 827068, Control_c, 0, 64, 63
1, 827087, Control_c, 0, 64, 60
1, 827106, Control_c, 0, 64, 63
1, 827124, Control_c, 0, 64, 68
1, 827144, Control_c, 0, 64, 76
1, 827163, Control_c, 0, 64, 86
1, 827180, Control_c, 0, 64, 97
1, 827199, Control_c, 0, 64, 106
1, 827218, Control_c, 0, 64, 111
1, 827237, Note_on_c, 0, 28, 0
1, 827255, Control_c, 0, 64, 116
1, 827274, Control_c, 0, 64, 120
1, 827280, Poly_aftertouch_c, 0, 49, 24
1, 827293, Control_c, 0, 64, 124
1, 827305, Poly_aftertouch_c, 0, 57, 24
1, 827335, Note_on_c, 0, 40, 0
1, 827374, Note_on_c, 0, 49, 0
1, 827374, Poly_aftertouch_c, 0, 49, 0
1, 827468, Note_on_c, 0, 52, 0
1, 827468, Poly_aftertouch_c, 0, 52, 0
1, 827576, Poly_aftertouch_c, 0, 57, 22
1, 827623, Note_on_c, 0, 57, 0
1, 827623, Poly_aftertouch_c, 0, 57, 0
1, 827671, Note_on_c, 0, 59, 0
1, 827671, Poly_aftertouch_c, 0, 59, 0
1, 827840, Note_on_c, 0, 49, 33
1, 827938, Note_on_c, 0, 49, 0
1, 827938, Poly_aftertouch_c, 0, 49, 0
1, 828337, Note_on_c, 0, 56, 33
1, 828583, Note_on_c, 0, 56, 0
1, 828583, Poly_aftertouch_c, 0, 56, 0
1, 828728, Note_on_c, 0, 57, 36
1, 829090, Note_on_c, 0, 61, 44
1, 829103, Note_on_c, 0, 57, 0
1, 829103, Poly_aftertouch_c, 0, 57, 0
1, 829124, Control_c, 0, 67, 120
1, 829162, Control_c, 0, 67, 115
1, 829199, Control_c, 0, 67, 109
1, 829219, Control_c, 0, 67, 104
1, 829237, Control_c, 0, 67, 99
1, 829256, Control_c, 0, 67, 93
1, 829274, Control_c, 0, 67, 87
1, 829293, Control_c, 0, 67, 82
1, 829312, Control_c, 0, 67, 76
1, 829330, Control_c, 0, 67, 71
1, 829349, Control_c, 0, 67, 65
1, 829367, Note_on_c, 0, 61, 0
1, 829367, Poly_aftertouch_c, 0, 61, 0
1, 829368, Control_c, 0, 67, 60
1, 829387, Control_c, 0, 67, 56
1, 829424, Control_c, 0, 67, 50
1, 829462, Control_c, 0, 67, 43
1, 829495, Note_on_c, 0, 64, 37
1, 829497, Control_c, 0, 67, 36
1, 829536, Control_c, 0, 67, 30
1, 829561, Note_on_c, 0, 64, 0
1, 829575, Control_c, 0, 67, 24
1, 829610, Control_c, 0, 67, 20
1, 829667, Control_c, 0, 67, 16
1, 829700, Note_on_c, 0, 85, 74
1, 830133, Note_on_c, 0, 68, 40
1, 830167, Note_on_c, 0, 59, 35
1, 830176, Note_on_c, 0, 57, 28
1, 830350, Note_on_c, 0, 75, 68
1, 830358, Control_c, 0, 67, 20
1, 830434, Control_c, 0, 67, 24
1, 830454, Control_c, 0, 67, 29
1, 830470, Poly_aftertouch_c, 0, 57, 24
1, 830470, Control_c, 0, 67, 34
1, 830491, Control_c, 0, 67, 39
1, 830510, Control_c, 0, 67, 43
1, 830528, Note_on_c, 0, 57, 0
1, 830528, Poly_aftertouch_c, 0, 57, 0
1, 830546, Control_c, 0, 67, 50
1, 830564, Control_c, 0, 67, 55
1, 830574, Note_on_c, 0, 68, 0
1, 830574, Poly_aftertouch_c, 0, 68, 0
1, 830576, Note_on_c, 0, 75, 0
1, 830576, Poly_aftertouch_c, 0, 75, 0
1, 830583, Control_c, 0, 67, 60
1, 830602, Control_c, 0, 67, 65
1, 830621, Control_c, 0, 67, 69
1, 830640, Control_c, 0, 67, 73
1, 830643, Note_on_c, 0, 85, 0
1, 830655, Note_on_c, 0, 59, 0
1, 830655, Poly_aftertouch_c, 0, 59, 0
1, 830658, Control_c, 0, 67, 78
1, 830696, Control_c, 0, 67, 83
1, 830733, Control_c, 0, 67, 90
1, 830751, Control_c, 0, 67, 94
1, 830789, Control_c, 0, 67, 102
1, 830808, Control_c, 0, 67, 106
1, 830845, Control_c, 0, 67, 114
1, 830901, Control_c, 0, 67, 120
1, 830925, Note_on_c, 0, 66, 28
1, 830939, Control_c, 0, 67, 125
1, 831010, Note_on_c, 0, 66, 0
1, 831010, Poly_aftertouch_c, 0, 66, 0
1, 831286, Note_on_c, 0, 63, 37
1, 831336, Note_on_c, 0, 63, 0
1, 831336, Poly_aftertouch_c, 0, 63, 0
1, 831681, Note_on_c, 0, 61, 34
1, 831843, Note_on_c, 0, 61, 0
1, 831843, Poly_aftertouch_c, 0, 61, 0
1, 832096, Note_on_c, 0, 56, 28
1, 832192, Note_on_c, 0, 56, 0
1, 832192, Poly_aftertouch_c, 0, 56, 0
1, 832674, Note_on_c, 0, 69, 43
1, 832698, Note_on_c, 0, 54, 27
1, 832779, Note_on_c, 0, 54, 0
1, 832779, Poly_aftertouch_c, 0, 54, 0
1, 832780, Note_on_c, 0, 69, 0
1, 832780, Poly_aftertouch_c, 0, 69, 0
1, 833501, Note_on_c, 0, 40, 28
1, 833505, Note_on_c, 0, 28, 28
1, 833610, Note_on_c, 0, 49, 27
1, 833701, Note_on_c, 0, 52, 27
1, 833819, Note_on_c, 0, 57, 32
1, 834064, Note_on_c, 0, 59, 44
1, 834118, Control_c, 0, 64, 117
1, 834136, Control_c, 0, 64, 101
1, 834155, Control_c, 0, 64, 74
1, 834175, Control_c, 0, 64, 58
1, 834212, Control_c, 0, 64, 65
1, 834229, Control_c, 0, 64, 75
1, 834249, Control_c, 0, 64, 86
1, 834250, Note_on_c, 0, 28, 0
1, 834268, Control_c, 0, 64, 100
1, 834286, Control_c, 0, 64, 116
1, 834305, Control_c, 0, 64, 127
1, 834362, Note_on_c, 0, 40, 0
1, 834404, Note_on_c, 0, 49, 0
1, 834404, Poly_aftertouch_c, 0, 49, 0
1, 834406, Poly_aftertouch_c, 0, 57, 24
1, 834466, Note_on_c, 0, 52, 0
1, 834466, Poly_aftertouch_c, 0, 52, 0
1, 834582, Note_on_c, 0, 57, 0
1, 834582, Poly_aftertouch_c, 0, 57, 0
1, 834762, Note_on_c, 0, 49, 36
1, 834812, Note_on_c, 0, 59, 0
1, 834812, Poly_aftertouch_c, 0, 59, 0
1, 834868, Note_on_c, 0, 49, 0
1, 834868, Poly_aftertouch_c, 0, 49, 0
1, 835146, Control_c, 0, 67, 121
1, 835215, Note_on_c, 0, 56, 36
1, 835220, Control_c, 0, 67, 116
1, 835278, Control_c, 0, 67, 111
1, 835313, Control_c, 0, 67, 107
1, 835371, Control_c, 0, 67, 102
1, 835407, Control_c, 0, 67, 98
1, 835464, Control_c, 0, 67, 93
1, 835490, Note_on_c, 0, 56, 0
1, 835490, Poly_aftertouch_c, 0, 56, 0
1, 835520, Control_c, 0, 67, 88
1, 835558, Control_c, 0, 67, 83
1, 835596, Control_c, 0, 67, 79
1, 835609, Note_on_c, 0, 57, 41
1, 835632, Control_c, 0, 67, 75
1, 835670, Control_c, 0, 67, 70
1, 835707, Control_c, 0, 67, 65
1, 835745, Control_c, 0, 67, 60
1, 835782, Control_c, 0, 67, 54
1, 835819, Control_c, 0, 67, 48
1, 835856, Control_c, 0, 67, 42
1, 835894, Control_c, 0, 67, 37
1, 835931, Control_c, 0, 67, 33
1, 835988, Control_c, 0, 67, 28
1, 835993, Note_on_c, 0, 61, 47
1, 836026, Control_c, 0, 67, 24
1, 836049, Note_on_c, 0, 57, 0
1, 836049, Poly_aftertouch_c, 0, 57, 0
1, 836081, Control_c, 0, 67, 20
1, 836137, Control_c, 0, 67, 16
1, 836238, Note_on_c, 0, 61, 0
1, 836238, Poly_aftertouch_c, 0, 61, 0
1, 836458, Note_on_c, 0, 85, 75
1, 836481, Note_on_c, 0, 64, 38
1, 836566, Note_on_c, 0, 64, 0
1, 837130, Note_on_c, 0, 68, 37
1, 837153, Note_on_c, 0, 59, 35
1, 837154, Note_on_c, 0, 57, 29
1, 837293, Note_on_c, 0, 75, 61
1, 837297, Control_c, 0, 67, 20
1, 837391, Control_c, 0, 64, 112
1, 837393, Control_c, 0, 67, 24
1, 837402, Poly_aftertouch_c, 0, 57, 24
1, 837407, Control_c, 0, 64, 84
1, 837429, Control_c, 0, 64, 42
1, 837431, Control_c, 0, 67, 29
1, 837446, Control_c, 0, 64, 0
1, 837465, Control_c, 0, 67, 36
1, 837484, Control_c, 0, 64, 16
1, 837503, Control_c, 0, 64, 43
1, 837504, Control_c, 0, 67, 42
1, 837521, Control_c, 0, 64, 61
1, 837522, Control_c, 0, 67, 46
1, 837539, Control_c, 0, 64, 73
1, 837541, Control_c, 0, 67, 52
1, 837557, Note_on_c, 0, 57, 0
1, 837557, Poly_aftertouch_c, 0, 57, 0
1, 837559, Control_c, 0, 64, 82
1, 837560, Control_c, 0, 67, 56
1, 837577, Control_c, 0, 64, 91
1, 837580, Control_c, 0, 67, 61
1, 837596, Control_c, 0, 64, 104
1, 837614, Control_c, 0, 64, 117
1, 837615, Control_c, 0, 67, 67
1, 837633, Control_c, 0, 64, 126
1, 837652, Control_c, 0, 67, 73
1, 837690, Control_c, 0, 67, 79
1, 837726, Control_c, 0, 67, 84
1, 837739, Note_on_c, 0, 68, 0
1, 837739, Poly_aftertouch_c, 0, 68, 0
1, 837744, Note_on_c, 0, 85, 0
1, 837763, Control_c, 0, 67, 88
1, 837789, Note_on_c, 0, 75, 0
1, 837789, Poly_aftertouch_c, 0, 75, 0
1, 837791, Note_on_c, 0, 59, 0
1, 837791, Poly_aftertouch_c, 0, 59, 0
1, 837800, Control_c, 0, 67, 94
1, 837820, Control_c, 0, 67, 99
1, 837857, Control_c, 0, 67, 104
1, 837895, Control_c, 0, 67, 108
1, 837918, Note_on_c, 0, 66, 35
1, 837932, Control_c, 0, 67, 113
1, 837987, Control_c, 0, 67, 117
1, 838016, Note_on_c, 0, 66, 0
1, 838016, Poly_aftertouch_c, 0, 66, 0
1, 838045, Control_c, 0, 67, 121
1, 838101, Control_c, 0, 67, 126
1, 838322, Note_on_c, 0, 63, 34
1, 838377, Note_on_c, 0, 63, 0
1, 838377, Poly_aftertouch_c, 0, 63, 0
1, 838706, Note_on_c, 0, 61, 37
1, 838948, Note_on_c, 0, 61, 0
1, 838948, Poly_aftertouch_c, 0, 61, 0
1, 839120, Note_on_c, 0, 56, 34
1, 839229, Note_on_c, 0, 56, 0
1, 839229, Poly_aftertouch_c, 0, 56, 0
1, 839691, Note_on_c, 0, 69, 44
1, 839699, Note_on_c, 0, 54, 31
1, 839754, Note_on_c, 0, 69, 0
1, 839754, Poly_aftertouch_c, 0, 69, 0
1, 839765, Note_on_c, 0, 54, 0
1, 839765, Poly_aftertouch_c, 0, 54, 0
1, 840623, Note_on_c, 0, 52, 38
1, 840645, Note_on_c, 0, 59, 34
1, 840651, Note_on_c, 0, 49, 24
1, 840669, Note_on_c, 0, 40, 28
1, 840674, Note_on_c, 0, 57, 31
1, 840674, Note_on_c, 0, 28, 29
1, 840718, Control_c, 0, 64, 122
1, 840737, Control_c, 0, 64, 105
1, 840755, Control_c, 0, 64, 76
1, 840775, Control_c, 0, 64, 34
1, 840794, Control_c, 0, 64, 0
1, 840888, Control_c, 0, 64, 27
1, 840905, Control_c, 0, 64, 51
1, 840925, Control_c, 0, 64, 70
1, 840942, Control_c, 0, 64, 82
1, 840962, Control_c, 0, 64, 93
1, 840980, Control_c, 0, 64, 104
1, 840999, Control_c, 0, 64, 115
1, 841018, Control_c, 0, 64, 122
1, 841036, Control_c, 0, 64, 126
1, 841139, Note_on_c, 0, 28, 0
1, 841196, Note_on_c, 0, 40, 0
1, 841262, Poly_aftertouch_c, 0, 57, 24
1, 841313, Note_on_c, 0, 57, 0
1, 841313, Poly_aftertouch_c, 0, 57, 0
1, 841343, Note_on_c, 0, 54, 36
1, 841479, Poly_aftertouch_c, 0, 59, 24
1, 841512, Poly_aftertouch_c, 0, 49, 24
1, 841560, Control_c, 0, 67, 122
1, 841615, Control_c, 0, 67, 117
1, 841620, Note_on_c, 0, 49, 0
1, 841620, Poly_aftertouch_c, 0, 49, 0
1, 841672, Control_c, 0, 67, 111
1, 841729, Control_c, 0, 67, 106
1, 841730, Poly_aftertouch_c, 0, 59, 22
1, 841784, Control_c, 0, 67, 102
1, 841808, Poly_aftertouch_c, 0, 52, 24
1, 841840, Control_c, 0, 67, 98
1, 841896, Control_c, 0, 67, 94
1, 841916, Note_on_c, 0, 54, 0
1, 841916, Poly_aftertouch_c, 0, 54, 0
1, 841932, Note_on_c, 0, 56, 46
1, 841970, Control_c, 0, 67, 90
1, 841990, Poly_aftertouch_c, 0, 59, 24
1, 842055, Note_on_c, 0, 52, 0
1, 842055, Poly_aftertouch_c, 0, 52, 0
1, 842083, Control_c, 0, 67, 85
1, 842177, Control_c, 0, 67, 81
1, 842251, Control_c, 0, 67, 77
1, 842252, Poly_aftertouch_c, 0, 59, 22
1, 842309, Note_on_c, 0, 59, 0
1, 842309, Poly_aftertouch_c, 0, 59, 0
1, 842364, Control_c, 0, 67, 73
1, 842455, Note_on_c, 0, 57, 53
1, 842456, Control_c, 0, 67, 69
1, 842533, Control_c, 0, 67, 64
1, 842607, Control_c, 0, 64, 109
1, 842627, Control_c, 0, 64, 83
1, 842644, Control_c, 0, 64, 65
1, 842647, Control_c, 0, 67, 60
1, 842682, Control_c, 0, 64, 67
1, 842700, Control_c, 0, 64, 72
1, 842720, Control_c, 0, 64, 82
1, 842738, Control_c, 0, 64, 96
1, 842755, Control_c, 0, 64, 115
1, 842775, Control_c, 0, 64, 127
1, 842814, Poly_aftertouch_c, 0, 56, 20
1, 842858, Note_on_c, 0, 56, 0
1, 842858, Poly_aftertouch_c, 0, 56, 0
1, 843025, Note_on_c, 0, 52, 35
1, 843429, Control_c, 0, 67, 64
1, 843449, Note_on_c, 0, 59, 44
1, 843581, Poly_aftertouch_c, 0, 52, 24
1, 843648, Note_on_c, 0, 52, 0
1, 843648, Poly_aftertouch_c, 0, 52, 0
1, 843766, Control_c, 0, 67, 68
1, 843879, Note_on_c, 0, 56, 49
1, 843879, Control_c, 0, 67, 72
1, 843964, Note_on_c, 0, 57, 0
1, 843964, Poly_aftertouch_c, 0, 57, 0
1, 843971, Control_c, 0, 64, 113
1, 843973, Control_c, 0, 67, 77
1, 843992, Control_c, 0, 64, 90
1, 844010, Control_c, 0, 64, 66
1, 844028, Control_c, 0, 64, 56
1, 844065, Control_c, 0, 64, 62
1, 844085, Control_c, 0, 64, 72
1, 844086, Control_c, 0, 67, 81
1, 844103, Control_c, 0, 64, 80
1, 844121, Control_c, 0, 64, 88
1, 844141, Control_c, 0, 64, 97
1, 844159, Control_c, 0, 64, 104
1, 844160, Control_c, 0, 67, 85
1, 844177, Control_c, 0, 64, 108
1, 844201, Poly_aftertouch_c, 0, 59, 24
1, 844215, Control_c, 0, 64, 112
1, 844234, Control_c, 0, 67, 89
1, 844271, Control_c, 0, 64, 116
1, 844284, Note_on_c, 0, 51, 34
1, 844288, Control_c, 0, 67, 93
1, 844309, Control_c, 0, 64, 121
1, 844320, Note_on_c, 0, 59, 0
1, 844320, Poly_aftertouch_c, 0, 59, 0
1, 844346, Control_c, 0, 64, 125
1, 844347, Control_c, 0, 67, 98
1, 844402, Control_c, 0, 67, 103
1, 844477, Control_c, 0, 67, 108
1, 844504, Note_on_c, 0, 56, 0
1, 844504, Poly_aftertouch_c, 0, 56, 0
1, 844551, Control_c, 0, 67, 112
1, 844700, Control_c, 0, 67, 116
1, 844703, Note_on_c, 0, 59, 29
1, 844752, Poly_aftertouch_c, 0, 51, 24
1, 844775, Control_c, 0, 67, 120
1, 844810, Note_on_c, 0, 51, 0
1, 844810, Poly_aftertouch_c, 0, 51, 0
1, 845119, Note_on_c, 0, 54, 41
1, 845189, Control_c, 0, 64, 118
1, 845206, Control_c, 0, 64, 111
1, 845209, Poly_aftertouch_c, 0, 59, 24
1, 845225, Control_c, 0, 64, 94
1, 845244, Control_c, 0, 64, 70
1, 845247, Control_c, 0, 67, 124
1, 845262, Control_c, 0, 64, 57
1, 845300, Control_c, 0, 64, 59
1, 845317, Control_c, 0, 64, 68
1, 845337, Control_c, 0, 64, 75
1, 845355, Control_c, 0, 64, 82
1, 845374, Control_c, 0, 64, 88
1, 845394, Control_c, 0, 64, 94
1, 845411, Control_c, 0, 64, 98
1, 845448, Control_c, 0, 64, 104
1, 845456, Poly_aftertouch_c, 0, 59, 22
1, 845486, Control_c, 0, 64, 108
1, 845522, Note_on_c, 0, 49, 27
1, 845524, Control_c, 0, 64, 112
1, 845528, Note_on_c, 0, 59, 0
1, 845528, Poly_aftertouch_c, 0, 59, 0
1, 845561, Control_c, 0, 64, 116
1, 845617, Control_c, 0, 64, 120
1, 845690, Note_on_c, 0, 54, 0
1, 845690, Poly_aftertouch_c, 0, 54, 0
1, 845774, Poly_aftertouch_c, 0, 49, 24
1, 845926, Note_on_c, 0, 59, 32
1, 845981, Note_on_c, 0, 49, 0
1, 845981, Poly_aftertouch_c, 0, 49, 0
1, 846337, Note_on_c, 0, 52, 37
1, 846366, Control_c, 0, 64, 116
1, 846422, Control_c, 0, 64, 111
1, 846440, Control_c, 0, 64, 103
1, 846459, Control_c, 0, 64, 85
1, 846478, Control_c, 0, 64, 64
1, 846496, Control_c, 0, 64, 54
1, 846533, Control_c, 0, 64, 61
1, 846553, Control_c, 0, 64, 69
1, 846571, Control_c, 0, 64, 76
1, 846590, Control_c, 0, 64, 81
1, 846608, Control_c, 0, 64, 86
1, 846627, Control_c, 0, 64, 90
1, 846664, Control_c, 0, 64, 95
1, 846683, Poly_aftertouch_c, 0, 59, 24
1, 846703, Control_c, 0, 64, 100
1, 846740, Control_c, 0, 64, 104
1, 846747, Note_on_c, 0, 57, 26
1, 846787, Note_on_c, 0, 59, 0
1, 846787, Poly_aftertouch_c, 0, 59, 0
1, 846788, Poly_aftertouch_c, 0, 59, 0
1, 846795, Control_c, 0, 64, 110
1, 846850, Control_c, 0, 64, 115
1, 847030, Poly_aftertouch_c, 0, 57, 24
1, 847156, Note_on_c, 0, 59, 35
1, 847293, Note_on_c, 0, 57, 0
1, 847293, Poly_aftertouch_c, 0, 57, 0
1, 847405, Poly_aftertouch_c, 0, 59, 24
1, 847565, Note_on_c, 0, 51, 41
1, 847596, Poly_aftertouch_c, 0, 52, 24
1, 847654, Control_c, 0, 64, 110
1, 847665, Note_on_c, 0, 52, 0
1, 847665, Poly_aftertouch_c, 0, 52, 0
1, 847674, Control_c, 0, 64, 103
1, 847694, Control_c, 0, 64, 86
1, 847712, Control_c, 0, 64, 65
1, 847730, Control_c, 0, 64, 59
1, 847751, Poly_aftertouch_c, 0, 59, 22
1, 847768, Control_c, 0, 64, 65
1, 847786, Control_c, 0, 64, 70
1, 847805, Control_c, 0, 64, 76
1, 847824, Control_c, 0, 64, 81
1, 847839, Note_on_c, 0, 59, 0
1, 847839, Poly_aftertouch_c, 0, 59, 0
1, 847843, Control_c, 0, 64, 85
1, 847861, Control_c, 0, 64, 88
1, 847918, Control_c, 0, 64, 93
1, 847955, Control_c, 0, 64, 97
1, 847981, Note_on_c, 0, 56, 25
1, 847991, Control_c, 0, 64, 102
1, 848049, Control_c, 0, 64, 106
1, 848123, Control_c, 0, 64, 111
1, 848278, Poly_aftertouch_c, 0, 56, 24
1, 848407, Note_on_c, 0, 59, 27
1, 848531, Poly_aftertouch_c, 0, 56, 20
1, 848555, Note_on_c, 0, 56, 0
1, 848555, Poly_aftertouch_c, 0, 56, 0
1, 848766, Poly_aftertouch_c, 0, 59, 24
1, 848773, Poly_aftertouch_c, 0, 51, 20
1, 848775, Note_on_c, 0, 51, 0
1, 848775, Poly_aftertouch_c, 0, 51, 0
1, 848833, Note_on_c, 0, 49, 35
1, 848908, Control_c, 0, 64, 106
1, 848927, Control_c, 0, 64, 94
1, 848946, Control_c, 0, 64, 74
1, 848964, Control_c, 0, 64, 57
1, 848984, Control_c, 0, 64, 54
1, 849021, Control_c, 0, 64, 60
1, 849039, Control_c, 0, 64, 67
1, 849058, Control_c, 0, 64, 73
1, 849076, Control_c, 0, 64, 77
1, 849081, Poly_aftertouch_c, 0, 59, 22
1, 849096, Control_c, 0, 64, 81
1, 849114, Control_c, 0, 64, 83
1, 849133, Control_c, 0, 64, 85
1, 849138, Note_on_c, 0, 59, 0
1, 849138, Poly_aftertouch_c, 0, 59, 0
1, 849139, Poly_aftertouch_c, 0, 59, 0
1, 849150, Control_c, 0, 64, 88
1, 849189, Control_c, 0, 64, 93
1, 849226, Control_c, 0, 64, 97
1, 849281, Note_on_c, 0, 54, 20
1, 849301, Control_c, 0, 64, 102
1, 849357, Control_c, 0, 64, 106
1, 849450, Poly_aftertouch_c, 0, 49, 24
1, 849450, Control_c, 0, 64, 110
1, 849557, Note_on_c, 0, 49, 0
1, 849557, Poly_aftertouch_c, 0, 49, 0
1, 849772, Note_on_c, 0, 59, 18
1, 849962, Poly_aftertouch_c, 0, 54, 24
1, 850133, Poly_aftertouch_c, 0, 59, 24
1, 850155, Note_on_c, 0, 54, 0
1, 850155, Poly_aftertouch_c, 0, 54, 0
1, 850294, Note_on_c, 0, 47, 32
1, 850367, Control_c, 0, 64, 106
1, 850386, Control_c, 0, 64, 101
1, 850404, Control_c, 0, 64, 87
1, 850423, Control_c, 0, 64, 70
1, 850442, Control_c, 0, 64, 62
1, 850479, Control_c, 0, 64, 66
1, 850497, Control_c, 0, 64, 71
1, 850517, Control_c, 0, 64, 77
1, 850535, Control_c, 0, 64, 83
1, 850554, Control_c, 0, 64, 88
1, 850592, Control_c, 0, 64, 94
1, 850629, Control_c, 0, 64, 98
1, 850667, Control_c, 0, 64, 102
1, 850712, Poly_aftertouch_c, 0, 59, 22
1, 850722, Control_c, 0, 64, 106
1, 850898, Note_on_c, 0, 52, 22
1, 850906, Note_on_c, 0, 59, 0
1, 850906, Poly_aftertouch_c, 0, 59, 0
1, 851095, Note_on_c, 0, 47, 0
1, 851095, Poly_aftertouch_c, 0, 47, 0
1, 851208, Poly_aftertouch_c, 0, 52, 24
1, 851344, Note_on_c, 0, 52, 0
1, 851344, Poly_aftertouch_c, 0, 52, 0
1, 851713, Note_on_c, 0, 59, 18
1, 851735, Note_on_c, 0, 45, 26
1, 851806, Control_c, 0, 64, 101
1, 851825, Control_c, 0, 64, 94
1, 851844, Control_c, 0, 64, 79
1, 851863, Control_c, 0, 64, 62
1, 851881, Control_c, 0, 64, 55
1, 851919, Control_c, 0, 64, 60
1, 851938, Control_c, 0, 64, 68
1, 851956, Control_c, 0, 64, 74
1, 851975, Control_c, 0, 64, 79
1, 851994, Control_c, 0, 64, 83
1, 852013, Control_c, 0, 64, 86
1, 852049, Control_c, 0, 64, 92
1, 852069, Control_c, 0, 64, 96
1, 852106, Control_c, 0, 64, 102
1, 852143, Control_c, 0, 64, 106
1, 852200, Control_c, 0, 64, 110
1, 852275, Control_c, 0, 64, 114
1, 852430, Note_on_c, 0, 45, 0
1, 853033, Note_on_c, 0, 56, 24
1, 853044, Note_on_c, 0, 47, 18
1, 853051, Note_on_c, 0, 44, 23
1, 853052, Note_on_c, 0, 51, 20
1, 853115, Control_c, 0, 64, 110
1, 853172, Control_c, 0, 64, 104
1, 853190, Control_c, 0, 64, 99
1, 853211, Control_c, 0, 64, 93
1, 853227, Control_c, 0, 64, 86
1, 853247, Control_c, 0, 64, 80
1, 853265, Control_c, 0, 64, 75
1, 853284, Control_c, 0, 64, 71
1, 853301, Control_c, 0, 64, 67
1, 853321, Control_c, 0, 64, 63
1, 853339, Control_c, 0, 64, 59
1, 853358, Control_c, 0, 64, 57
1, 853433, Control_c, 0, 64, 60
1, 853452, Control_c, 0, 64, 62
1, 853471, Control_c, 0, 64, 63
1, 853490, Control_c, 0, 64, 66
1, 853508, Control_c, 0, 64, 68
1, 853546, Control_c, 0, 64, 71
1, 853584, Control_c, 0, 64, 75
1, 853620, Control_c, 0, 64, 77
1, 853640, Control_c, 0, 64, 79
1, 853677, Control_c, 0, 64, 83
1, 853714, Control_c, 0, 64, 86
1, 853752, Control_c, 0, 64, 90
1, 853789, Control_c, 0, 64, 94
1, 853845, Control_c, 0, 64, 99
1, 853939, Control_c, 0, 64, 104
1, 853945, Poly_aftertouch_c, 0, 59, 24
1, 853994, Control_c, 0, 64, 108
1, 854069, Control_c, 0, 64, 112
1, 854163, Control_c, 0, 64, 116
1, 854275, Control_c, 0, 64, 120
1, 854412, Poly_aftertouch_c, 0, 59, 22
1, 854479, Note_on_c, 0, 59, 0
1, 854479, Poly_aftertouch_c, 0, 59, 0
1, 854480, Control_c, 0, 64, 124
1, 854611, Poly_aftertouch_c, 0, 56, 24
1, 854613, Poly_aftertouch_c, 0, 47, 24
1, 854630, Poly_aftertouch_c, 0, 44, 24
1, 854762, Control_c, 0, 67, 120
1, 854825, Poly_aftertouch_c, 0, 51, 24
1, 854861, Poly_aftertouch_c, 0, 56, 20
1, 854873, Poly_aftertouch_c, 0, 47, 22
1, 854944, Note_on_c, 0, 56, 0
1, 854944, Poly_aftertouch_c, 0, 56, 0
1, 855049, Note_on_c, 0, 47, 0
1, 855049, Poly_aftertouch_c, 0, 47, 0
1, 855059, Poly_aftertouch_c, 0, 44, 22
1, 855087, Poly_aftertouch_c, 0, 51, 22
1, 855123, Note_on_c, 0, 44, 0
1, 855123, Poly_aftertouch_c, 0, 44, 0
1, 855174, Note_on_c, 0, 51, 0
1, 855174, Poly_aftertouch_c, 0, 51, 0
1, 855247, Control_c, 0, 67, 116
1, 855434, Control_c, 0, 67, 112
1, 855527, Control_c, 0, 67, 108
1, 855603, Control_c, 0, 67, 104
1, 855658, Control_c, 0, 67, 99
1, 855752, Control_c, 0, 67, 95
1, 855829, Control_c, 0, 67, 90
1, 855883, Control_c, 0, 67, 85
1, 855939, Control_c, 0, 67, 81
1, 855995, Control_c, 0, 67, 76
1, 856050, Control_c, 0, 67, 70
1, 856107, Control_c, 0, 67, 65
1, 856164, Control_c, 0, 67, 60
1, 856220, Control_c, 0, 67, 56
1, 856275, Control_c, 0, 67, 51
1, 856312, Control_c, 0, 67, 46
1, 856350, Control_c, 0, 67, 41
1, 856387, Control_c, 0, 67, 37
1, 856426, Control_c, 0, 67, 33
1, 856482, Control_c, 0, 67, 28
1, 856575, Control_c, 0, 67, 24
1, 856706, Control_c, 0, 67, 19
1, 856912, Control_c, 0, 67, 15
1, 857851, Note_on_c, 0, 59, 50
1, 857874, Note_on_c, 0, 57, 37
1, 857876, Note_on_c, 0, 52, 32
1, 857887, Note_on_c, 0, 49, 32
1, 857892, Note_on_c, 0, 42, 35
1, 858128, Control_c, 0, 64, 119
1, 858165, Control_c, 0, 64, 113
1, 858201, Control_c, 0, 64, 108
1, 858240, Control_c, 0, 64, 104
1, 858258, Control_c, 0, 64, 100
1, 858295, Control_c, 0, 64, 96
1, 858331, Control_c, 0, 64, 92
1, 858369, Control_c, 0, 64, 87
1, 858389, Control_c, 0, 64, 84
1, 858406, Control_c, 0, 64, 80
1, 858426, Control_c, 0, 64, 77
1, 858429, Control_c, 0, 67, 19
1, 858463, Control_c, 0, 64, 75
1, 858482, Control_c, 0, 64, 73
1, 858502, Control_c, 0, 64, 71
1, 858557, Control_c, 0, 64, 69
1, 858576, Control_c, 0, 64, 67
1, 858614, Control_c, 0, 64, 66
1, 858668, Control_c, 0, 64, 65
1, 858688, Control_c, 0, 64, 63
1, 858706, Control_c, 0, 64, 62
1, 858726, Control_c, 0, 64, 61
1, 858763, Control_c, 0, 64, 58
1, 858764, Control_c, 0, 67, 23
1, 858782, Control_c, 0, 64, 54
1, 858799, Control_c, 0, 64, 52
1, 858819, Control_c, 0, 64, 50
1, 858857, Control_c, 0, 64, 48
1, 858874, Control_c, 0, 64, 46
1, 858912, Control_c, 0, 64, 44
1, 858913, Control_c, 0, 67, 27
1, 858949, Control_c, 0, 64, 40
1, 858987, Control_c, 0, 64, 36
1, 859024, Control_c, 0, 67, 32
1, 859136, Control_c, 0, 67, 36
1, 859211, Control_c, 0, 67, 41
1, 859230, Control_c, 0, 64, 40
1, 859267, Control_c, 0, 64, 42
1, 859286, Control_c, 0, 67, 46
1, 859305, Control_c, 0, 64, 45
1, 859342, Control_c, 0, 64, 47
1, 859343, Control_c, 0, 67, 50
1, 859380, Control_c, 0, 64, 51
1, 859398, Control_c, 0, 64, 54
1, 859399, Control_c, 0, 67, 56
1, 859416, Control_c, 0, 64, 56
1, 859454, Control_c, 0, 64, 59
1, 859455, Control_c, 0, 67, 61
1, 859473, Control_c, 0, 64, 61
1, 859491, Control_c, 0, 64, 63
1, 859492, Control_c, 0, 67, 65
1, 859510, Control_c, 0, 64, 65
1, 859530, Control_c, 0, 64, 66
1, 859549, Control_c, 0, 64, 67
1, 859550, Control_c, 0, 67, 71
1, 859585, Control_c, 0, 64, 70
1, 859586, Control_c, 0, 67, 75
1, 859622, Control_c, 0, 64, 72
1, 859641, Control_c, 0, 67, 80
1, 859662, Control_c, 0, 64, 74
1, 859716, Control_c, 0, 64, 77
1, 859717, Control_c, 0, 67, 85
1, 859753, Control_c, 0, 64, 80
1, 859772, Control_c, 0, 67, 89
1, 859791, Control_c, 0, 64, 83
1, 859828, Control_c, 0, 64, 86
1, 859847, Control_c, 0, 67, 93
1, 859866, Control_c, 0, 64, 90
1, 859884, Control_c, 0, 67, 97
1, 859924, Control_c, 0, 64, 95
1, 859925, Control_c, 0, 67, 105
1, 859931, Note_on_c, 0, 57, 0
1, 859931, Poly_aftertouch_c, 0, 57, 0
1, 859959, Control_c, 0, 67, 111
1, 859978, Control_c, 0, 64, 100
1, 860035, Control_c, 0, 64, 105
1, 860036, Control_c, 0, 67, 116
1, 860090, Control_c, 0, 64, 111
1, 860128, Control_c, 0, 64, 115
1, 860146, Control_c, 0, 67, 120
1, 860165, Control_c, 0, 64, 119
1, 860221, Control_c, 0, 64, 124
1, 860241, Control_c, 0, 67, 124
1, 860491, Note_on_c, 0, 52, 0
1, 860491, Poly_aftertouch_c, 0, 52, 0
1, 860494, Note_on_c, 0, 59, 0
1, 860494, Poly_aftertouch_c, 0, 59, 0
1, 860594, Poly_aftertouch_c, 0, 49, 24
1, 860664, Note_on_c, 0, 49, 0
1, 860664, Poly_aftertouch_c, 0, 49, 0
1, 860856, Poly_aftertouch_c, 0, 42, 24
1, 861097, Note_on_c, 0, 42, 0
1, 861097, Poly_aftertouch_c, 0, 42, 0
1, 861438, Note_on_c, 0, 58, 34
1, 861561, Note_on_c, 0, 58, 0
1, 861561, Poly_aftertouch_c, 0, 58, 0
1, 861835, Note_on_c, 0, 57, 28
1, 861837, Note_on_c, 0, 53, 23
1, 861849, Note_on_c, 0, 48, 22
1, 861866, Note_on_c, 0, 41, 24
1, 861923, Control_c, 0, 64, 114
1, 861941, Control_c, 0, 64, 97
1, 861960, Control_c, 0, 64, 72
1, 861979, Control_c, 0, 64, 45
1, 861997, Control_c, 0, 64, 0
1, 862055, Control_c, 0, 64, 30
1, 862072, Control_c, 0, 64, 47
1, 862090, Control_c, 0, 64, 62
1, 862109, Control_c, 0, 64, 73
1, 862129, Control_c, 0, 64, 77
1, 862147, Control_c, 0, 64, 80
1, 862165, Control_c, 0, 64, 83
1, 862171, Poly_aftertouch_c, 0, 41, 24
1, 862185, Control_c, 0, 64, 86
1, 862203, Control_c, 0, 64, 90
1, 862240, Control_c, 0, 64, 98
1, 862260, Control_c, 0, 64, 102
1, 862278, Control_c, 0, 64, 106
1, 862295, Control_c, 0, 64, 110
1, 862309, Note_on_c, 0, 41, 0
1, 862309, Poly_aftertouch_c, 0, 41, 0
1, 862333, Control_c, 0, 64, 116
1, 862390, Control_c, 0, 64, 121
1, 862395, Poly_aftertouch_c, 0, 53, 22
1, 862446, Control_c, 0, 64, 125
1, 862455, Note_on_c, 0, 53, 0
1, 862455, Poly_aftertouch_c, 0, 53, 0
1, 862487, Poly_aftertouch_c, 0, 57, 24
1, 862651, Poly_aftertouch_c, 0, 48, 24
1, 862698, Note_on_c, 0, 57, 0
1, 862698, Poly_aftertouch_c, 0, 57, 0
1, 862773, Note_on_c, 0, 48, 0
1, 862773, Poly_aftertouch_c, 0, 48, 0
1, 863407, Note_on_c, 0, 56, 33
1, 863441, Note_on_c, 0, 59, 30
1, 863450, Note_on_c, 0, 52, 15
1, 863452, Note_on_c, 0, 47, 20
1, 863478, Note_on_c, 0, 40, 19
1, 863511, Control_c, 0, 64, 120
1, 863549, Control_c, 0, 64, 112
1, 863568, Control_c, 0, 64, 103
1, 863586, Control_c, 0, 64, 92
1, 863606, Control_c, 0, 64, 82
1, 863624, Control_c, 0, 64, 73
1, 863643, Control_c, 0, 64, 68
1, 863661, Control_c, 0, 64, 61
1, 863681, Control_c, 0, 64, 53
1, 863698, Control_c, 0, 64, 41
1, 863717, Control_c, 0, 64, 33
1, 863794, Control_c, 0, 64, 39
1, 863811, Control_c, 0, 64, 41
1, 863830, Control_c, 0, 64, 43
1, 863848, Control_c, 0, 64, 46
1, 863866, Control_c, 0, 64, 49
1, 863886, Control_c, 0, 64, 53
1, 863904, Control_c, 0, 64, 57
1, 863923, Control_c, 0, 64, 60
1, 863942, Control_c, 0, 64, 62
1, 863960, Control_c, 0, 64, 64
1, 863979, Control_c, 0, 64, 65
1, 863998, Control_c, 0, 64, 67
1, 864035, Control_c, 0, 64, 70
1, 864073, Control_c, 0, 64, 73
1, 864111, Control_c, 0, 64, 75
1, 864148, Control_c, 0, 64, 77
1, 864185, Control_c, 0, 64, 79
1, 864223, Control_c, 0, 64, 81
1, 864260, Control_c, 0, 64, 84
1, 864298, Control_c, 0, 64, 88
1, 864354, Control_c, 0, 64, 92
1, 864391, Control_c, 0, 64, 96
1, 864446, Control_c, 0, 64, 100
1, 864521, Control_c, 0, 64, 104
1, 864596, Control_c, 0, 64, 109
1, 864671, Control_c, 0, 64, 114
1, 864746, Control_c, 0, 64, 119
1, 864820, Control_c, 0, 64, 123
1, 864896, Control_c, 0, 64, 127
1, 865419, Control_c, 0, 67, 120
1, 865490, Poly_aftertouch_c, 0, 59, 24
1, 865610, Poly_aftertouch_c, 0, 40, 24
1, 865713, Poly_aftertouch_c, 0, 47, 24
1, 865736, Control_c, 0, 67, 116
1, 865747, Poly_aftertouch_c, 0, 59, 22
1, 865826, Note_on_c, 0, 59, 0
1, 865826, Poly_aftertouch_c, 0, 59, 0
1, 865939, Poly_aftertouch_c, 0, 40, 22
1, 866039, Note_on_c, 0, 40, 0
1, 866039, Poly_aftertouch_c, 0, 40, 0
1, 866088, Poly_aftertouch_c, 0, 56, 24
1, 866111, Poly_aftertouch_c, 0, 47, 22
1, 866148, Poly_aftertouch_c, 0, 52, 24
1, 866243, Note_on_c, 0, 47, 0
1, 866243, Poly_aftertouch_c, 0, 47, 0
1, 866463, Poly_aftertouch_c, 0, 52, 22
1, 866600, Note_on_c, 0, 52, 0
1, 866600, Poly_aftertouch_c, 0, 52, 0
1, 866756, Poly_aftertouch_c, 0, 56, 22
1, 866881, Note_on_c, 0, 56, 0
1, 866881, Poly_aftertouch_c, 0, 56, 0
1, 868541, Control_c, 0, 67, 112
1, 868728, Control_c, 0, 67, 108
1, 868897, Control_c, 0, 67, 104
1, 869083, Control_c, 0, 67, 100
1, 869214, Control_c, 0, 67, 96
1, 869327, Control_c, 0, 67, 92
1, 869420, Control_c, 0, 67, 88
1, 869514, Control_c, 0, 67, 83
1, 869607, Control_c, 0, 67, 79
1, 869720, Control_c, 0, 67, 75
1, 869812, Control_c, 0, 67, 71
1, 869888, Control_c, 0, 67, 67
1, 869962, Control_c, 0, 67, 63
1, 870056, Control_c, 0, 67, 58
1, 870150, Control_c, 0, 67, 54
1, 870207, Control_c, 0, 67, 49
1, 870264, Control_c, 0, 67, 45
1, 870318, Control_c, 0, 67, 41
1, 870393, Control_c, 0, 67, 37
1, 870468, Control_c, 0, 67, 32
1, 870543, Control_c, 0, 67, 28
1, 870636, Control_c, 0, 67, 24
1, 870710, Control_c, 0, 67, 18
1, 870766, Control_c, 0, 67, 13
1, 870879, Control_c, 0, 64, 123
1, 870917, Control_c, 0, 67, 9
1, 871047, Control_c, 0, 64, 119
1, 871159, Control_c, 0, 64, 115
1, 871253, Control_c, 0, 64, 110
1, 871328, Control_c, 0, 64, 106
1, 871421, Control_c, 0, 64, 102
1, 871664, Control_c, 0, 64, 98
1, 871777, Control_c, 0, 64, 93
1, 871928, Control_c, 0, 64, 89
1, 872094, Control_c, 0, 64, 87
1, 872207, Control_c, 0, 67, 0
1, 872225, Control_c, 0, 64, 85
1, 872338, Control_c, 0, 64, 83
1, 872805, Control_c, 0, 64, 81
1, 873309, Control_c, 0, 64, 79
1, 873572, Control_c, 0, 64, 81
1, 873609, Control_c, 0, 64, 83
1, 873648, Control_c, 0, 64, 85
1, 873665, Control_c, 0, 64, 87
1, 873721, Control_c, 0, 64, 93
1, 873760, Control_c, 0, 64, 98
1, 873796, Control_c, 0, 64, 104
1, 873833, Control_c, 0, 64, 110
1, 873871, Control_c, 0, 64, 116
1, 873908, Control_c, 0, 64, 121
1, 873946, Control_c, 0, 64, 127
1, 874745, Note_on_c, 0, 76, 68
1, 874770, Note_on_c, 0, 68, 43
1, 874777, Note_on_c, 0, 59, 36
1, 874790, Note_on_c, 0, 52, 30
1, 874796, Note_on_c, 0, 62, 30
1, 875610, Note_on_c, 0, 77, 65
1, 875674, Note_on_c, 0, 76, 0
1, 875674, Poly_aftertouch_c, 0, 76, 0
1, 875741, Control_c, 0, 64, 123
1, 875759, Control_c, 0, 64, 112
1, 875779, Control_c, 0, 64, 101
1, 875796, Control_c, 0, 64, 90
1, 875815, Control_c, 0, 64, 78
1, 875836, Control_c, 0, 64, 66
1, 875852, Control_c, 0, 64, 58
1, 875872, Control_c, 0, 64, 53
1, 875890, Control_c, 0, 64, 45
1, 875909, Control_c, 0, 64, 32
1, 875927, Control_c, 0, 64, 0
1, 876095, Control_c, 0, 64, 12
1, 876115, Control_c, 0, 64, 25
1, 876133, Control_c, 0, 64, 36
1, 876152, Control_c, 0, 64, 48
1, 876171, Control_c, 0, 64, 58
1, 876188, Control_c, 0, 64, 69
1, 876208, Control_c, 0, 64, 75
1, 876226, Control_c, 0, 64, 78
1, 876246, Control_c, 0, 64, 81
1, 876264, Control_c, 0, 64, 85
1, 876283, Control_c, 0, 64, 90
1, 876302, Control_c, 0, 64, 94
1, 876320, Control_c, 0, 64, 99
1, 876339, Control_c, 0, 64, 104
1, 876357, Control_c, 0, 64, 110
1, 876377, Control_c, 0, 64, 115
1, 876394, Control_c, 0, 64, 120
1, 876433, Control_c, 0, 64, 125
1, 877459, Note_on_c, 0, 76, 47
1, 878086, Note_on_c, 0, 73, 48
1, 878118, Poly_aftertouch_c, 0, 68, 24
1, 878159, Note_on_c, 0, 68, 0
1, 878159, Poly_aftertouch_c, 0, 68, 0
1, 878315, Poly_aftertouch_c, 0, 76, 24
1, 878391, Note_on_c, 0, 76, 0
1, 878391, Poly_aftertouch_c, 0, 76, 0
1, 878412, Note_on_c, 0, 62, 0
1, 878412, Poly_aftertouch_c, 0, 62, 0
1, 878481, Note_on_c, 0, 74, 50
1, 878579, Note_on_c, 0, 73, 0
1, 878584, Poly_aftertouch_c, 0, 77, 24
1, 878594, Poly_aftertouch_c, 0, 52, 24
1, 878647, Note_on_c, 0, 74, 0
1, 878682, Note_on_c, 0, 59, 0
1, 878682, Poly_aftertouch_c, 0, 59, 0
1, 878695, Note_on_c, 0, 52, 0
1, 878695, Poly_aftertouch_c, 0, 52, 0
1, 878841, Poly_aftertouch_c, 0, 77, 32
1, 878864, Control_c, 0, 64, 121
1, 878918, Note_on_c, 0, 74, 50
1, 878952, Note_on_c, 0, 58, 28
1, 878955, Control_c, 0, 64, 117
1, 878967, Note_on_c, 0, 67, 23
1, 878970, Note_on_c, 0, 62, 25
1, 878995, Control_c, 0, 64, 110
1, 879001, Note_on_c, 0, 77, 0
1, 879001, Poly_aftertouch_c, 0, 77, 0
1, 879012, Control_c, 0, 64, 105
1, 879032, Control_c, 0, 64, 99
1, 879050, Control_c, 0, 64, 91
1, 879069, Control_c, 0, 64, 77
1, 879087, Control_c, 0, 64, 59
1, 879106, Control_c, 0, 64, 43
1, 879125, Control_c, 0, 64, 33
1, 879162, Control_c, 0, 64, 47
1, 879182, Control_c, 0, 64, 59
1, 879200, Control_c, 0, 64, 70
1, 879219, Control_c, 0, 64, 77
1, 879237, Control_c, 0, 64, 81
1, 879256, Control_c, 0, 64, 84
1, 879258, Poly_aftertouch_c, 0, 67, 24
1, 879274, Control_c, 0, 64, 88
1, 879293, Control_c, 0, 64, 92
1, 879312, Control_c, 0, 64, 96
1, 879324, Note_on_c, 0, 67, 0
1, 879324, Poly_aftertouch_c, 0, 67, 0
1, 879330, Control_c, 0, 64, 101
1, 879349, Control_c, 0, 64, 105
1, 879387, Control_c, 0, 64, 110
1, 879424, Control_c, 0, 64, 114
1, 879480, Control_c, 0, 64, 119
1, 879983, Note_on_c, 0, 74, 0
1, 880005, Note_on_c, 0, 67, 35
1, 880023, Control_c, 0, 64, 115
1, 880116, Control_c, 0, 64, 110
1, 880153, Control_c, 0, 64, 101
1, 880172, Control_c, 0, 64, 86
1, 880192, Control_c, 0, 64, 69
1, 880210, Control_c, 0, 64, 64
1, 880228, Control_c, 0, 64, 65
1, 880247, Control_c, 0, 64, 69
1, 880267, Control_c, 0, 64, 71
1, 880284, Control_c, 0, 64, 76
1, 880303, Control_c, 0, 64, 80
1, 880324, Control_c, 0, 64, 83
1, 880341, Control_c, 0, 64, 86
1, 880378, Control_c, 0, 64, 94
1, 880396, Control_c, 0, 64, 98
1, 880415, Control_c, 0, 64, 103
1, 880433, Control_c, 0, 64, 107
1, 880452, Control_c, 0, 64, 111
1, 880472, Control_c, 0, 64, 115
1, 880508, Control_c, 0, 64, 120
1, 880546, Control_c, 0, 64, 124
1, 880582, Poly_aftertouch_c, 0, 62, 24
1, 880611, Poly_aftertouch_c, 0, 58, 24
1, 880653, Note_on_c, 0, 62, 0
1, 880653, Poly_aftertouch_c, 0, 62, 0
1, 880684, Note_on_c, 0, 58, 0
1, 880684, Poly_aftertouch_c, 0, 58, 0
1, 881134, Note_on_c, 0, 65, 36
1, 881146, Note_on_c, 0, 60, 28
1, 881157, Note_on_c, 0, 57, 28
1, 881219, Control_c, 0, 64, 114
1, 881238, Control_c, 0, 64, 89
1, 881257, Control_c, 0, 64, 59
1, 881276, Control_c, 0, 64, 47
1, 881294, Control_c, 0, 64, 52
1, 881312, Control_c, 0, 64, 63
1, 881332, Control_c, 0, 64, 76
1, 881351, Control_c, 0, 64, 86
1, 881369, Control_c, 0, 64, 100
1, 881387, Control_c, 0, 64, 117
1, 881406, Control_c, 0, 64, 127
1, 881498, Note_on_c, 0, 69, 62
1, 881571, Poly_aftertouch_c, 0, 57, 24
1, 881589, Note_on_c, 0, 60, 0
1, 881589, Poly_aftertouch_c, 0, 60, 0
1, 881639, Note_on_c, 0, 65, 0
1, 881645, Note_on_c, 0, 57, 0
1, 881645, Poly_aftertouch_c, 0, 57, 0
1, 881956, Note_on_c, 0, 67, 0
1, 881956, Poly_aftertouch_c, 0, 67, 0
1, 881983, Note_on_c, 0, 58, 33
1, 881984, Note_on_c, 0, 55, 35
1, 882048, Note_on_c, 0, 70, 65
1, 882062, Note_on_c, 0, 64, 46
1, 882063, Note_on_c, 0, 69, 0
1, 882063, Poly_aftertouch_c, 0, 69, 0
1, 882097, Control_c, 0, 64, 119
1, 882117, Control_c, 0, 64, 96
1, 882135, Control_c, 0, 64, 66
1, 882154, Control_c, 0, 64, 0
1, 882192, Control_c, 0, 64, 23
1, 882210, Control_c, 0, 64, 49
1, 882229, Control_c, 0, 64, 70
1, 882247, Control_c, 0, 64, 80
1, 882268, Control_c, 0, 64, 88
1, 882286, Control_c, 0, 64, 96
1, 882303, Control_c, 0, 64, 104
1, 882323, Control_c, 0, 64, 114
1, 882341, Control_c, 0, 64, 120
1, 882453, Control_c, 0, 64, 124
1, 882526, Note_on_c, 0, 74, 69
1, 882622, Control_c, 0, 64, 119
1, 882641, Control_c, 0, 64, 110
1, 882659, Control_c, 0, 64, 87
1, 882679, Control_c, 0, 64, 52
1, 882697, Control_c, 0, 64, 0
1, 882734, Control_c, 0, 64, 27
1, 882753, Control_c, 0, 64, 51
1, 882771, Control_c, 0, 64, 69
1, 882790, Control_c, 0, 64, 83
1, 882810, Control_c, 0, 64, 97
1, 882828, Control_c, 0, 64, 113
1, 882846, Control_c, 0, 64, 123
1, 882865, Control_c, 0, 64, 127
1, 882993, Note_on_c, 0, 55, 0
1, 883005, Note_on_c, 0, 64, 0
1, 883120, Note_on_c, 0, 70, 0
1, 883120, Poly_aftertouch_c, 0, 70, 0
1, 883164, Control_c, 0, 67, 8
1, 883487, Poly_aftertouch_c, 0, 58, 24
1, 883559, Note_on_c, 0, 58, 0
1, 883559, Poly_aftertouch_c, 0, 58, 0
1, 883620, Note_on_c, 0, 72, 53
1, 883708, Note_on_c, 0, 74, 0
1, 883903, Note_on_c, 0, 72, 0
1, 883903, Poly_aftertouch_c, 0, 72, 0
1, 883958, Note_on_c, 0, 69, 60
1, 883985, Note_on_c, 0, 63, 42
1, 883991, Note_on_c, 0, 54, 37
1, 884275, Note_on_c, 0, 70, 68
1, 884322, Note_on_c, 0, 69, 0
1, 884322, Poly_aftertouch_c, 0, 69, 0
1, 884364, Note_on_c, 0, 54, 0
1, 884364, Poly_aftertouch_c, 0, 54, 0
1, 884386, Note_on_c, 0, 63, 0
1, 884386, Poly_aftertouch_c, 0, 63, 0
1, 884387, Note_on_c, 0, 70, 0
1, 884387, Poly_aftertouch_c, 0, 70, 0
1, 884556, Note_on_c, 0, 53, 43
1, 884565, Control_c, 0, 64, 123
1, 884580, Note_on_c, 0, 46, 31
1, 884583, Control_c, 0, 64, 118
1, 884603, Control_c, 0, 64, 112
1, 884623, Control_c, 0, 64, 105
1, 884629, Note_on_c, 0, 70, 62
1, 884641, Control_c, 0, 64, 98
1, 884659, Control_c, 0, 64, 90
1, 884672, Note_on_c, 0, 62, 33
1, 884678, Control_c, 0, 64, 82
1, 884699, Control_c, 0, 64, 76
1, 884715, Control_c, 0, 64, 70
1, 884735, Control_c, 0, 64, 58
1, 884753, Control_c, 0, 64, 19
1, 884772, Control_c, 0, 64, 0
1, 884810, Control_c, 0, 64, 32
1, 884828, Control_c, 0, 64, 56
1, 884847, Control_c, 0, 64, 73
1, 884866, Control_c, 0, 64, 85
1, 884884, Control_c, 0, 64, 96
1, 884903, Control_c, 0, 64, 104
1, 884921, Control_c, 0, 64, 108
1, 884960, Control_c, 0, 64, 112
1, 884982, Note_on_c, 0, 65, 67
1, 885052, Control_c, 0, 64, 116
1, 885103, Note_on_c, 0, 70, 0
1, 885103, Poly_aftertouch_c, 0, 70, 0
1, 885128, Note_on_c, 0, 62, 0
1, 885128, Poly_aftertouch_c, 0, 62, 0
1, 885208, Note_on_c, 0, 53, 0
1, 885208, Poly_aftertouch_c, 0, 53, 0
1, 885314, Control_c, 0, 64, 112
1, 885315, Control_c, 0, 67, 12
1, 885331, Note_on_c, 0, 52, 46
1, 885338, Note_on_c, 0, 61, 54
1, 885351, Control_c, 0, 64, 101
1, 885371, Control_c, 0, 64, 87
1, 885388, Control_c, 0, 64, 66
1, 885408, Control_c, 0, 64, 23
1, 885428, Control_c, 0, 64, 0
1, 885502, Control_c, 0, 64, 33
1, 885504, Control_c, 0, 67, 16
1, 885520, Control_c, 0, 64, 59
1, 885538, Control_c, 0, 64, 79
1, 885558, Control_c, 0, 64, 90
1, 885577, Control_c, 0, 64, 102
1, 885594, Control_c, 0, 64, 112
1, 885614, Control_c, 0, 64, 120
1, 885632, Control_c, 0, 64, 126
1, 885687, Control_c, 0, 67, 20
1, 885800, Note_on_c, 0, 61, 0
1, 885800, Poly_aftertouch_c, 0, 61, 0
1, 885800, Control_c, 0, 67, 25
1, 885868, Note_on_c, 0, 52, 0
1, 885868, Poly_aftertouch_c, 0, 52, 0
1, 885914, Control_c, 0, 67, 29
1, 885949, Poly_aftertouch_c, 0, 46, 24
1, 886039, Note_on_c, 0, 46, 0
1, 886039, Poly_aftertouch_c, 0, 46, 0
1, 886155, Note_on_c, 0, 67, 56
1, 886171, Note_on_c, 0, 60, 40
1, 886193, Note_on_c, 0, 51, 37
1, 886211, Note_on_c, 0, 65, 0
1, 886211, Control_c, 0, 64, 122
1, 886231, Control_c, 0, 64, 115
1, 886250, Control_c, 0, 64, 103
1, 886268, Control_c, 0, 64, 84
1, 886269, Control_c, 0, 67, 34
1, 886286, Control_c, 0, 64, 60
1, 886305, Control_c, 0, 64, 33
1, 886325, Control_c, 0, 64, 0
1, 886342, Control_c, 0, 64, 16
1, 886361, Control_c, 0, 64, 36
1, 886380, Control_c, 0, 64, 54
1, 886399, Control_c, 0, 64, 69
1, 886417, Control_c, 0, 64, 80
1, 886437, Control_c, 0, 64, 87
1, 886455, Control_c, 0, 64, 92
1, 886473, Control_c, 0, 64, 96
1, 886512, Control_c, 0, 64, 103
1, 886549, Control_c, 0, 64, 108
1, 886586, Control_c, 0, 64, 114
1, 886623, Control_c, 0, 64, 120
1, 886637, Note_on_c, 0, 60, 0
1, 886637, Poly_aftertouch_c, 0, 60, 0
1, 886792, Note_on_c, 0, 67, 0
1, 886792, Poly_aftertouch_c, 0, 67, 0
1, 886850, Note_on_c, 0, 69, 59
1, 886935, Note_on_c, 0, 51, 0
1, 886935, Poly_aftertouch_c, 0, 51, 0
1, 887008, Note_on_c, 0, 69, 0
1, 887008, Poly_aftertouch_c, 0, 69, 0
1, 887124, Note_on_c, 0, 50, 35
1, 887148, Note_on_c, 0, 43, 30
1, 887148, Control_c, 0, 64, 115
1, 887161, Note_on_c, 0, 67, 57
1, 887179, Note_on_c, 0, 59, 40
1, 887185, Control_c, 0, 64, 109
1, 887202, Control_c, 0, 64, 102
1, 887222, Control_c, 0, 64, 92
1, 887223, Control_c, 0, 67, 38
1, 887241, Control_c, 0, 64, 75
1, 887259, Control_c, 0, 64, 57
1, 887278, Control_c, 0, 64, 37
1, 887297, Control_c, 0, 64, 23
1, 887315, Control_c, 0, 64, 32
1, 887335, Control_c, 0, 64, 47
1, 887352, Control_c, 0, 64, 65
1, 887372, Control_c, 0, 64, 79
1, 887390, Control_c, 0, 64, 88
1, 887408, Control_c, 0, 64, 98
1, 887427, Control_c, 0, 64, 106
1, 887446, Control_c, 0, 64, 112
1, 887465, Control_c, 0, 64, 116
1, 887467, Control_c, 0, 67, 42
1, 887613, Control_c, 0, 67, 46
1, 887638, Note_on_c, 0, 62, 55
1, 887653, Control_c, 0, 64, 110
1, 887671, Control_c, 0, 64, 96
1, 887672, Control_c, 0, 67, 52
1, 887689, Control_c, 0, 64, 84
1, 887698, Note_on_c, 0, 59, 0
1, 887698, Poly_aftertouch_c, 0, 59, 0
1, 887708, Control_c, 0, 67, 56
1, 887717, Note_on_c, 0, 67, 0
1, 887717, Poly_aftertouch_c, 0, 67, 0
1, 887726, Control_c, 0, 64, 89
1, 887727, Control_c, 0, 67, 60
1, 887745, Control_c, 0, 64, 95
1, 887746, Control_c, 0, 67, 64
1, 887764, Control_c, 0, 64, 103
1, 887782, Control_c, 0, 64, 110
1, 887801, Control_c, 0, 64, 117
1, 887951, Control_c, 0, 67, 69
1, 887982, Note_on_c, 0, 58, 47
1, 887989, Control_c, 0, 64, 112
1, 888006, Note_on_c, 0, 49, 42
1, 888006, Control_c, 0, 64, 100
1, 888006, Control_c, 0, 67, 73
1, 888008, Note_on_c, 0, 50, 0
1, 888008, Poly_aftertouch_c, 0, 50, 0
1, 888012, Poly_aftertouch_c, 0, 43, 24
1, 888026, Control_c, 0, 64, 78
1, 888044, Control_c, 0, 64, 53
1, 888064, Control_c, 0, 64, 40
1, 888065, Control_c, 0, 67, 78
1, 888082, Control_c, 0, 64, 44
1, 888083, Control_c, 0, 67, 84
1, 888101, Control_c, 0, 64, 56
1, 888102, Control_c, 0, 67, 89
1, 888118, Control_c, 0, 64, 70
1, 888138, Control_c, 0, 64, 79
1, 888140, Control_c, 0, 67, 93
1, 888157, Control_c, 0, 64, 88
1, 888177, Control_c, 0, 64, 98
1, 888194, Control_c, 0, 64, 108
1, 888212, Control_c, 0, 64, 114
1, 888213, Control_c, 0, 67, 98
1, 888269, Control_c, 0, 67, 102
1, 888306, Control_c, 0, 67, 106
1, 888342, Note_on_c, 0, 64, 54
1, 888343, Control_c, 0, 67, 110
1, 888350, Poly_aftertouch_c, 0, 43, 22
1, 888362, Control_c, 0, 64, 109
1, 888372, Note_on_c, 0, 43, 0
1, 888372, Poly_aftertouch_c, 0, 43, 0
1, 888373, Poly_aftertouch_c, 0, 43, 0
1, 888379, Control_c, 0, 64, 91
1, 888381, Control_c, 0, 67, 116
1, 888400, Control_c, 0, 64, 70
1, 888415, Note_on_c, 0, 62, 0
1, 888415, Poly_aftertouch_c, 0, 62, 0
1, 888437, Control_c, 0, 64, 72
1, 888457, Control_c, 0, 64, 80
1, 888458, Control_c, 0, 67, 121
1, 888474, Control_c, 0, 64, 89
1, 888493, Control_c, 0, 64, 103
1, 888496, Note_on_c, 0, 58, 0
1, 888496, Poly_aftertouch_c, 0, 58, 0
1, 888511, Control_c, 0, 64, 116
1, 888531, Control_c, 0, 64, 121
1, 888575, Poly_aftertouch_c, 0, 49, 24
1, 888621, Note_on_c, 0, 49, 0
1, 888621, Poly_aftertouch_c, 0, 49, 0
1, 888643, Control_c, 0, 67, 125
1, 888755, Control_c, 0, 64, 117
1, 888764, Note_on_c, 0, 57, 40
1, 888773, Control_c, 0, 64, 113
1, 888784, Note_on_c, 0, 48, 33
1, 888790, Control_c, 0, 64, 105
1, 888801, Note_on_c, 0, 41, 27
1, 888810, Control_c, 0, 64, 89
1, 888830, Control_c, 0, 64, 67
1, 888848, Control_c, 0, 64, 51
1, 888885, Control_c, 0, 64, 59
1, 888904, Control_c, 0, 64, 72
1, 888925, Control_c, 0, 64, 84
1, 888941, Control_c, 0, 64, 100
1, 888960, Control_c, 0, 64, 118
1, 888979, Control_c, 0, 64, 126
1, 889078, Poly_aftertouch_c, 0, 41, 24
1, 889109, Poly_aftertouch_c, 0, 64, 24
1, 889166, Control_c, 0, 64, 121
1, 889170, Note_on_c, 0, 65, 49
1, 889180, Note_on_c, 0, 48, 0
1, 889180, Poly_aftertouch_c, 0, 48, 0
1, 889185, Control_c, 0, 64, 110
1, 889196, Note_on_c, 0, 47, 36
1, 889202, Control_c, 0, 64, 86
1, 889210, Note_on_c, 0, 64, 0
1, 889210, Poly_aftertouch_c, 0, 64, 0
1, 889222, Control_c, 0, 64, 57
1, 889241, Control_c, 0, 64, 46
1, 889260, Control_c, 0, 64, 53
1, 889278, Control_c, 0, 64, 66
1, 889293, Poly_aftertouch_c, 0, 57, 22
1, 889295, Control_c, 0, 64, 81
1, 889307, Note_on_c, 0, 57, 0
1, 889307, Poly_aftertouch_c, 0, 57, 0
1, 889315, Control_c, 0, 64, 94
1, 889332, Poly_aftertouch_c, 0, 41, 20
1, 889335, Note_on_c, 0, 41, 0
1, 889335, Poly_aftertouch_c, 0, 41, 0
1, 889335, Control_c, 0, 64, 109
1, 889336, Poly_aftertouch_c, 0, 41, 0
1, 889353, Control_c, 0, 64, 119
1, 889408, Note_on_c, 0, 47, 0
1, 889408, Poly_aftertouch_c, 0, 47, 0
1, 889450, Note_on_c, 0, 65, 0
1, 889887, Note_on_c, 0, 64, 40
1, 889895, Note_on_c, 0, 60, 34
1, 889903, Note_on_c, 0, 55, 22
1, 889905, Note_on_c, 0, 36, 30
1, 889913, Control_c, 0, 64, 115
1, 889926, Note_on_c, 0, 48, 27
1, 889931, Control_c, 0, 64, 110
1, 889952, Control_c, 0, 64, 102
1, 889970, Control_c, 0, 64, 88
1, 889990, Control_c, 0, 64, 68
1, 890009, Control_c, 0, 64, 48
1, 890026, Control_c, 0, 64, 20
1, 890082, Control_c, 0, 64, 35
1, 890100, Control_c, 0, 64, 51
1, 890120, Control_c, 0, 64, 66
1, 890139, Control_c, 0, 64, 75
1, 890156, Control_c, 0, 64, 79
1, 890176, Control_c, 0, 64, 83
1, 890194, Control_c, 0, 64, 86
1, 890214, Control_c, 0, 64, 90
1, 890231, Poly_aftertouch_c, 0, 36, 24
1, 890231, Control_c, 0, 64, 94
1, 890270, Control_c, 0, 64, 101
1, 890288, Control_c, 0, 64, 105
1, 890307, Control_c, 0, 64, 110
1, 890344, Control_c, 0, 64, 116
1, 890401, Control_c, 0, 64, 121
1, 890432, Note_on_c, 0, 36, 0
1, 890432, Poly_aftertouch_c, 0, 36, 0
1, 890441, Note_on_c, 0, 64, 0
1, 890441, Poly_aftertouch_c, 0, 64, 0
1, 890456, Control_c, 0, 64, 126
1, 890474, Poly_aftertouch_c, 0, 48, 24
1, 890474, Poly_aftertouch_c, 0, 60, 24
1, 890494, Poly_aftertouch_c, 0, 55, 24
1, 890512, Note_on_c, 0, 48, 0
1, 890512, Poly_aftertouch_c, 0, 48, 0
1, 890611, Note_on_c, 0, 55, 0
1, 890611, Poly_aftertouch_c, 0, 55, 0
1, 890623, Note_on_c, 0, 60, 0
1, 890623, Poly_aftertouch_c, 0, 60, 0
1, 891672, Control_c, 0, 64, 122
1, 891674, Note_on_c, 0, 62, 35
1, 891682, Note_on_c, 0, 53, 15
1, 891695, Note_on_c, 0, 60, 26
1, 891701, Note_on_c, 0, 48, 22
1, 891720, Note_on_c, 0, 33, 24
1, 891726, Control_c, 0, 64, 113
1, 891747, Control_c, 0, 64, 104
1, 891765, Control_c, 0, 64, 90
1, 891784, Control_c, 0, 64, 70
1, 891803, Control_c, 0, 64, 43
1, 891822, Control_c, 0, 64, 0
1, 891896, Control_c, 0, 64, 16
1, 891916, Control_c, 0, 64, 38
1, 891934, Control_c, 0, 64, 55
1, 891952, Control_c, 0, 64, 67
1, 891971, Control_c, 0, 64, 73
1, 891989, Control_c, 0, 64, 77
1, 892009, Control_c, 0, 64, 81
1, 892027, Control_c, 0, 64, 85
1, 892046, Control_c, 0, 64, 89
1, 892084, Control_c, 0, 64, 94
1, 892092, Poly_aftertouch_c, 0, 53, 24
1, 892121, Control_c, 0, 64, 99
1, 892139, Poly_aftertouch_c, 0, 33, 24
1, 892159, Control_c, 0, 64, 104
1, 892214, Control_c, 0, 64, 110
1, 892251, Control_c, 0, 64, 115
1, 892289, Control_c, 0, 64, 119
1, 892311, Poly_aftertouch_c, 0, 60, 20
1, 892326, Control_c, 0, 64, 124
1, 892328, Note_on_c, 0, 60, 0
1, 892328, Poly_aftertouch_c, 0, 60, 0
1, 892349, Poly_aftertouch_c, 0, 53, 20
1, 892362, Note_on_c, 0, 33, 0
1, 892362, Poly_aftertouch_c, 0, 33, 0
1, 892365, Note_on_c, 0, 53, 0
1, 892365, Poly_aftertouch_c, 0, 53, 0
1, 892367, Poly_aftertouch_c, 0, 48, 22
1, 892390, Note_on_c, 0, 48, 0
1, 892390, Poly_aftertouch_c, 0, 48, 0
1, 892513, Poly_aftertouch_c, 0, 62, 24
1, 892743, Note_on_c, 0, 62, 0
1, 892743, Poly_aftertouch_c, 0, 62, 0
1, 893906, Note_on_c, 0, 64, 26
1, 893913, Note_on_c, 0, 60, 22
1, 893934, Note_on_c, 0, 48, 19
1, 893943, Note_on_c, 0, 36, 18
1, 893972, Control_c, 0, 64, 119
1, 893987, Poly_aftertouch_c, 0, 55, 127
1, 894008, Control_c, 0, 64, 110
1, 894028, Control_c, 0, 64, 100
1, 894045, Control_c, 0, 64, 85
1, 894065, Control_c, 0, 64, 69
1, 894084, Control_c, 0, 64, 58
1, 894103, Control_c, 0, 64, 47
1, 894121, Control_c, 0, 64, 25
1, 894139, Control_c, 0, 64, 0
1, 894177, Control_c, 0, 64, 15
1, 894196, Control_c, 0, 64, 25
1, 894215, Control_c, 0, 64, 30
1, 894234, Control_c, 0, 64, 35
1, 894251, Control_c, 0, 64, 42
1, 894271, Control_c, 0, 64, 49
1, 894289, Control_c, 0, 64, 54
1, 894309, Control_c, 0, 64, 58
1, 894328, Control_c, 0, 64, 62
1, 894346, Control_c, 0, 64, 65
1, 894365, Control_c, 0, 64, 68
1, 894383, Control_c, 0, 64, 70
1, 894402, Control_c, 0, 64, 72
1, 894420, Control_c, 0, 64, 74
1, 894458, Control_c, 0, 64, 77
1, 894496, Control_c, 0, 64, 80
1, 894514, Control_c, 0, 64, 82
1, 894533, Control_c, 0, 64, 84
1, 894552, Control_c, 0, 64, 86
1, 894588, Control_c, 0, 64, 92
1, 894626, Control_c, 0, 64, 96
1, 894637, Poly_aftertouch_c, 0, 36, 24
1, 894663, Control_c, 0, 64, 100
1, 894720, Control_c, 0, 64, 105
1, 894758, Control_c, 0, 64, 109
1, 894814, Control_c, 0, 64, 114
1, 894888, Control_c, 0, 64, 119
1, 894927, Control_c, 0, 64, 123
1, 895018, Control_c, 0, 64, 127
1, 895089, Poly_aftertouch_c, 0, 36, 22
1, 895099, Poly_aftertouch_c, 0, 48, 24
1, 895166, Note_on_c, 0, 36, 0
1, 895166, Poly_aftertouch_c, 0, 36, 0
1, 895260, Note_on_c, 0, 48, 0
1, 895260, Poly_aftertouch_c, 0, 48, 0
1, 895455, Poly_aftertouch_c, 0, 60, 24
1, 895669, Poly_aftertouch_c, 0, 55, 0
1, 895703, Poly_aftertouch_c, 0, 60, 20
1, 895709, Note_on_c, 0, 60, 0
1, 895709, Poly_aftertouch_c, 0, 60, 0
1, 896269, Poly_aftertouch_c, 0, 64, 24
1, 896425, Note_on_c, 0, 64, 0
1, 896425, Poly_aftertouch_c, 0, 64, 0
1, 897431, Control_c, 0, 64, 116
1, 897450, Control_c, 0, 64, 87
1, 897452, Control_c, 0, 67, 86
1, 897468, Control_c, 0, 64, 83
1, 897468, Control_c, 0, 67, 13
1, 897470, Note_on_c, 0, 29, 88
1, 897470, Note_on_c, 0, 41, 97
1, 897487, Control_c, 0, 64, 115
1, 897489, Control_c, 0, 67, 0
1, 897505, Control_c, 0, 64, 127
1, 897507, Note_on_c, 0, 29, 0
1, 897518, Note_on_c, 0, 41, 0
1, 897741, Note_on_c, 0, 89, 104
1, 897894, Note_on_c, 0, 89, 0
1, 897894, Poly_aftertouch_c, 0, 89, 0
1, 897902, Note_on_c, 0, 88, 95
1, 898010, Control_c, 0, 64, 100
1, 898030, Control_c, 0, 64, 48
1, 898037, Note_on_c, 0, 67, 99
1, 898040, Note_on_c, 0, 64, 88
1, 898041, Note_on_c, 0, 55, 82
1, 898042, Note_on_c, 0, 87, 86
1, 898048, Control_c, 0, 64, 0
1, 898051, Note_on_c, 0, 61, 81
1, 898055, Note_on_c, 0, 58, 76
1, 898071, Note_on_c, 0, 88, 0
1, 898072, Control_c, 0, 64, 71
1, 898076, Note_on_c, 0, 55, 0
1, 898086, Control_c, 0, 64, 126
1, 898087, Note_on_c, 0, 67, 0
1, 898087, Poly_aftertouch_c, 0, 67, 0
1, 898089, Note_on_c, 0, 58, 0
1, 898089, Poly_aftertouch_c, 0, 58, 0
1, 898092, Note_on_c, 0, 64, 0
1, 898092, Poly_aftertouch_c, 0, 64, 0
1, 898104, Note_on_c, 0, 61, 0
1, 898104, Poly_aftertouch_c, 0, 61, 0
1, 898138, Note_on_c, 0, 85, 83
1, 898161, Note_on_c, 0, 87, 0
1, 898202, Note_on_c, 0, 82, 82
1, 898214, Note_on_c, 0, 85, 0
1, 898229, Note_on_c, 0, 82, 0
1, 898308, Note_on_c, 0, 79, 70
1, 898370, Note_on_c, 0, 79, 0
1, 898377, Note_on_c, 0, 77, 76
1, 898440, Note_on_c, 0, 76, 80
1, 898462, Note_on_c, 0, 77, 0
1, 898462, Poly_aftertouch_c, 0, 77, 0
1, 898482, Note_on_c, 0, 76, 0
1, 898482, Poly_aftertouch_c, 0, 76, 0
1, 898530, Note_on_c, 0, 75, 81
1, 898585, Note_on_c, 0, 73, 84
1, 898606, Note_on_c, 0, 75, 0
1, 898606, Poly_aftertouch_c, 0, 75, 0
1, 898646, Control_c, 0, 64, 119
1, 898652, Note_on_c, 0, 70, 83
1, 898666, Control_c, 0, 64, 112
1, 898667, Note_on_c, 0, 73, 0
1, 898684, Control_c, 0, 64, 104
1, 898692, Note_on_c, 0, 70, 0
1, 898692, Poly_aftertouch_c, 0, 70, 0
1, 898703, Control_c, 0, 64, 91
1, 898714, Note_on_c, 0, 67, 89
1, 898722, Control_c, 0, 64, 76
1, 898740, Control_c, 0, 64, 63
1, 898760, Control_c, 0, 64, 53
1, 898775, Note_on_c, 0, 67, 0
1, 898775, Poly_aftertouch_c, 0, 67, 0
1, 898777, Control_c, 0, 64, 34
1, 898783, Note_on_c, 0, 65, 76
1, 898796, Control_c, 0, 64, 0
1, 898853, Note_on_c, 0, 64, 82
1, 898877, Note_on_c, 0, 65, 0
1, 898886, Note_on_c, 0, 64, 0
1, 898886, Poly_aftertouch_c, 0, 64, 0
1, 898928, Note_on_c, 0, 63, 81
1, 898992, Note_on_c, 0, 61, 80
1, 899014, Note_on_c, 0, 63, 0
1, 899014, Poly_aftertouch_c, 0, 63, 0
1, 899060, Note_on_c, 0, 58, 81
1, 899072, Note_on_c, 0, 61, 0
1, 899072, Poly_aftertouch_c, 0, 61, 0
1, 899125, Note_on_c, 0, 58, 0
1, 899125, Note_on_c, 0, 55, 69
1, 899125, Poly_aftertouch_c, 0, 58, 0
1, 899160, Note_on_c, 0, 55, 0
1, 899311, Note_on_c, 0, 50, 92
1, 899311, Note_on_c, 0, 53, 92
1, 899311, Note_on_c, 0, 62, 97
1, 899311, Note_on_c, 0, 41, 90
1, 899312, Note_on_c, 0, 34, 84
1, 899318, Control_c, 0, 64, 48
1, 899338, Control_c, 0, 64, 127
1, 899340, Note_on_c, 0, 50, 0
1, 899340, Poly_aftertouch_c, 0, 50, 0
1, 899346, Note_on_c, 0, 53, 0
1, 899346, Poly_aftertouch_c, 0, 53, 0
1, 899357, Control_c, 0, 64, 120
1, 899361, Note_on_c, 0, 41, 0
1, 899361, Note_on_c, 0, 34, 0
1, 899364, Note_on_c, 0, 62, 0
1, 899364, Poly_aftertouch_c, 0, 62, 0
1, 899377, Control_c, 0, 64, 66
1, 899394, Control_c, 0, 64, 0
1, 900263, Note_on_c, 0, 41, 97
1, 900264, Note_on_c, 0, 50, 93
1, 900265, Note_on_c, 0, 34, 97
1, 900266, Note_on_c, 0, 62, 89
1, 900267, Note_on_c, 0, 53, 85
1, 900271, Note_on_c, 0, 58, 84
1, 900273, Control_c, 0, 64, 12
1, 900291, Control_c, 0, 64, 127
1, 900305, Note_on_c, 0, 34, 0
1, 900307, Note_on_c, 0, 41, 0
1, 900308, Note_on_c, 0, 50, 0
1, 900308, Poly_aftertouch_c, 0, 50, 0
1, 900323, Note_on_c, 0, 53, 0
1, 900323, Note_on_c, 0, 58, 0
1, 900323, Poly_aftertouch_c, 0, 53, 0
1, 900323, Poly_aftertouch_c, 0, 58, 0
1, 900333, Note_on_c, 0, 62, 0
1, 900333, Poly_aftertouch_c, 0, 62, 0
1, 900348, Control_c, 0, 64, 98
1, 900366, Control_c, 0, 64, 0
1, 900398, Poly_aftertouch_c, 0, 33, 0
1, 901256, Note_on_c, 0, 50, 76
1, 901260, Note_on_c, 0, 41, 80
1, 901261, Note_on_c, 0, 62, 72
1, 901262, Note_on_c, 0, 53, 69
1, 901263, Note_on_c, 0, 58, 70
1, 901263, Note_on_c, 0, 34, 81
1, 901285, Control_c, 0, 64, 61
1, 901290, Note_on_c, 0, 50, 0
1, 901290, Poly_aftertouch_c, 0, 50, 0
1, 901297, Note_on_c, 0, 41, 0
1, 901297, Note_on_c, 0, 34, 0
1, 901298, Note_on_c, 0, 62, 0
1, 901298, Poly_aftertouch_c, 0, 62, 0
1, 901300, Note_on_c, 0, 58, 0
1, 901300, Note_on_c, 0, 53, 0
1, 901300, Poly_aftertouch_c, 0, 53, 0
1, 901300, Poly_aftertouch_c, 0, 58, 0
1, 901304, Control_c, 0, 64, 79
1, 901321, Control_c, 0, 64, 37
1, 901338, Control_c, 0, 64, 0
1, 901348, Note_on_c, 0, 50, 85
1, 901354, Note_on_c, 0, 41, 86
1, 901358, Note_on_c, 0, 53, 81
1, 901360, Note_on_c, 0, 34, 79
1, 901363, Note_on_c, 0, 58, 76
1, 901365, Note_on_c, 0, 62, 66
1, 901397, Note_on_c, 0, 50, 0
1, 901397, Poly_aftertouch_c, 0, 50, 0
1, 901399, Note_on_c, 0, 34, 0
1, 901400, Note_on_c, 0, 62, 0
1, 901400, Poly_aftertouch_c, 0, 62, 0
1, 901402, Note_on_c, 0, 41, 0
1, 901404, Note_on_c, 0, 58, 0
1, 901404, Poly_aftertouch_c, 0, 58, 0
1, 901406, Note_on_c, 0, 53, 0
1, 901406, Poly_aftertouch_c, 0, 53, 0
1, 901460, Note_on_c, 0, 41, 91
1, 901463, Note_on_c, 0, 50, 92
1, 901463, Note_on_c, 0, 34, 93
1, 901469, Note_on_c, 0, 53, 77
1, 901474, Note_on_c, 0, 58, 78
1, 901475, Note_on_c, 0, 62, 77
1, 901508, Note_on_c, 0, 41, 0
1, 901513, Note_on_c, 0, 50, 0
1, 901513, Note_on_c, 0, 34, 0
1, 901513, Poly_aftertouch_c, 0, 50, 0
1, 901526, Note_on_c, 0, 62, 0
1, 901526, Poly_aftertouch_c, 0, 62, 0
1, 901533, Note_on_c, 0, 53, 0
1, 901533, Poly_aftertouch_c, 0, 53, 0
1, 901539, Note_on_c, 0, 58, 0
1, 901539, Poly_aftertouch_c, 0, 58, 0
1, 901727, Note_on_c, 0, 50, 96
1, 901730, Note_on_c, 0, 41, 98
1, 901731, Note_on_c, 0, 58, 87
1, 901731, Control_c, 0, 64, 66
1, 901733, Note_on_c, 0, 62, 88
1, 901733, Note_on_c, 0, 53, 82
1, 901734, Note_on_c, 0, 34, 91
1, 901757, Control_c, 0, 64, 85
1, 901765, Note_on_c, 0, 41, 0
1, 901770, Note_on_c, 0, 34, 0
1, 901776, Control_c, 0, 64, 48
1, 901781, Note_on_c, 0, 50, 0
1, 901781, Poly_aftertouch_c, 0, 50, 0
1, 901788, Control_c, 0, 64, 0
1, 901865, Note_on_c, 0, 62, 0
1, 901865, Poly_aftertouch_c, 0, 62, 0
1, 901867, Note_on_c, 0, 53, 0
1, 901867, Poly_aftertouch_c, 0, 53, 0
1, 901885, Note_on_c, 0, 58, 0
1, 901885, Poly_aftertouch_c, 0, 58, 0
1, 902340, Note_on_c, 0, 50, 67
1, 902342, Note_on_c, 0, 62, 69
1, 902342, Note_on_c, 0, 41, 72
1, 902345, Note_on_c, 0, 53, 64
1, 902348, Note_on_c, 0, 34, 70
1, 902352, Note_on_c, 0, 58, 58
1, 902370, Control_c, 0, 64, 94
1, 902380, Note_on_c, 0, 41, 0
1, 902381, Note_on_c, 0, 62, 0
1, 902381, Poly_aftertouch_c, 0, 62, 0
1, 902383, Note_on_c, 0, 50, 0
1, 902383, Poly_aftertouch_c, 0, 50, 0
1, 902385, Note_on_c, 0, 34, 0
1, 902386, Note_on_c, 0, 53, 0
1, 902386, Poly_aftertouch_c, 0, 53, 0
1, 902390, Control_c, 0, 64, 105
1, 902393, Note_on_c, 0, 58, 0
1, 902393, Poly_aftertouch_c, 0, 58, 0
1, 902405, Control_c, 0, 64, 110
1, 902426, Control_c, 0, 64, 100
1, 902442, Control_c, 0, 64, 90
1, 902446, Note_on_c, 0, 50, 82
1, 902446, Note_on_c, 0, 41, 85
1, 902447, Note_on_c, 0, 53, 84
1, 902456, Note_on_c, 0, 34, 85
1, 902460, Control_c, 0, 64, 83
1, 902464, Note_on_c, 0, 58, 78
1, 902469, Note_on_c, 0, 62, 66
1, 902480, Control_c, 0, 64, 81
1, 902483, Note_on_c, 0, 50, 0
1, 902483, Poly_aftertouch_c, 0, 50, 0
1, 902493, Note_on_c, 0, 41, 0
1, 902495, Note_on_c, 0, 34, 0
1, 902500, Note_on_c, 0, 62, 0
1, 902500, Poly_aftertouch_c, 0, 62, 0
1, 902502, Note_on_c, 0, 58, 0
1, 902502, Poly_aftertouch_c, 0, 58, 0
1, 902511, Note_on_c, 0, 53, 0
1, 902511, Poly_aftertouch_c, 0, 53, 0
1, 902516, Control_c, 0, 64, 85
1, 902554, Control_c, 0, 64, 89
1, 902562, Note_on_c, 0, 53, 79
1, 902562, Note_on_c, 0, 50, 101
1, 902563, Note_on_c, 0, 41, 98
1, 902568, Note_on_c, 0, 62, 95
1, 902569, Note_on_c, 0, 34, 98
1, 902572, Note_on_c, 0, 58, 88
1, 902572, Control_c, 0, 64, 94
1, 902592, Control_c, 0, 64, 100
1, 902611, Control_c, 0, 64, 106
1, 902624, Note_on_c, 0, 34, 0
1, 902625, Note_on_c, 0, 41, 0
1, 902645, Note_on_c, 0, 50, 0
1, 902645, Poly_aftertouch_c, 0, 50, 0
1, 902686, Control_c, 0, 64, 101
1, 902690, Note_on_c, 0, 53, 0
1, 902690, Poly_aftertouch_c, 0, 53, 0
1, 902692, Note_on_c, 0, 62, 0
1, 902692, Poly_aftertouch_c, 0, 62, 0
1, 902704, Control_c, 0, 64, 86
1, 902712, Note_on_c, 0, 58, 0
1, 902712, Poly_aftertouch_c, 0, 58, 0
1, 902723, Control_c, 0, 64, 59
1, 902740, Control_c, 0, 64, 0
1, 902991, Note_on_c, 0, 38, 49
1, 902994, Note_on_c, 0, 34, 46
1, 902998, Note_on_c, 0, 62, 48
1, 903011, Note_on_c, 0, 58, 39
1, 903030, Note_on_c, 0, 34, 0
1, 903031, Note_on_c, 0, 62, 0
1, 903031, Poly_aftertouch_c, 0, 62, 0
1, 903036, Note_on_c, 0, 38, 0
1, 903036, Poly_aftertouch_c, 0, 38, 0
1, 903053, Note_on_c, 0, 58, 0
1, 903053, Poly_aftertouch_c, 0, 58, 0
1, 903142, Note_on_c, 0, 62, 60
1, 903146, Note_on_c, 0, 34, 55
1, 903147, Note_on_c, 0, 58, 61
1, 903148, Note_on_c, 0, 40, 63
1, 903182, Note_on_c, 0, 62, 0
1, 903182, Poly_aftertouch_c, 0, 62, 0
1, 903184, Note_on_c, 0, 40, 0
1, 903184, Poly_aftertouch_c, 0, 40, 0
1, 903185, Note_on_c, 0, 58, 0
1, 903185, Poly_aftertouch_c, 0, 58, 0
1, 903186, Note_on_c, 0, 34, 0
1, 903289, Note_on_c, 0, 57, 55
1, 903294, Note_on_c, 0, 34, 55
1, 903302, Note_on_c, 0, 62, 29
1, 903303, Note_on_c, 0, 38, 47
1, 903318, Note_on_c, 0, 57, 0
1, 903318, Poly_aftertouch_c, 0, 57, 0
1, 903329, Note_on_c, 0, 34, 0
1, 903340, Note_on_c, 0, 38, 0
1, 903340, Poly_aftertouch_c, 0, 38, 0
1, 903353, Note_on_c, 0, 62, 0
1, 903353, Poly_aftertouch_c, 0, 62, 0
1, 903423, Note_on_c, 0, 41, 65
1, 903426, Note_on_c, 0, 58, 64
1, 903431, Note_on_c, 0, 34, 60
1, 903455, Note_on_c, 0, 41, 0
1, 903462, Poly_aftertouch_c, 0, 50, 0
1, 903464, Note_on_c, 0, 58, 0
1, 903464, Poly_aftertouch_c, 0, 58, 0
1, 903467, Note_on_c, 0, 34, 0
1, 903467, Note_on_c, 0, 62, 17
1, 903538, Note_on_c, 0, 62, 0
1, 903538, Poly_aftertouch_c, 0, 62, 0
1, 903551, Note_on_c, 0, 56, 72
1, 903559, Note_on_c, 0, 38, 54
1, 903567, Note_on_c, 0, 34, 57
1, 903586, Note_on_c, 0, 56, 0
1, 903586, Poly_aftertouch_c, 0, 56, 0
1, 903600, Poly_aftertouch_c, 0, 50, 0
1, 903605, Note_on_c, 0, 38, 0
1, 903605, Poly_aftertouch_c, 0, 38, 0
1, 903607, Note_on_c, 0, 34, 0
1, 903684, Note_on_c, 0, 42, 78
1, 903686, Note_on_c, 0, 58, 74
1, 903694, Note_on_c, 0, 62, 51
1, 903697, Note_on_c, 0, 34, 66
1, 903700, Note_on_c, 0, 50, 46
1, 903721, Note_on_c, 0, 58, 0
1, 903721, Poly_aftertouch_c, 0, 58, 0
1, 903726, Note_on_c, 0, 62, 0
1, 903726, Poly_aftertouch_c, 0, 62, 0
1, 903728, Note_on_c, 0, 42, 0
1, 903728, Poly_aftertouch_c, 0, 42, 0
1, 903732, Note_on_c, 0, 34, 0
1, 903738, Note_on_c, 0, 50, 0
1, 903801, Note_on_c, 0, 55, 78
1, 903802, Note_on_c, 0, 38, 63
1, 903826, Note_on_c, 0, 34, 68
1, 903845, Note_on_c, 0, 55, 0
1, 903852, Note_on_c, 0, 50, 20
1, 903865, Note_on_c, 0, 34, 0
1, 903880, Note_on_c, 0, 38, 0
1, 903880, Poly_aftertouch_c, 0, 38, 0
1, 903932, Note_on_c, 0, 34, 80
1, 903933, Note_on_c, 0, 58, 81
1, 903935, Note_on_c, 0, 41, 78
1, 903938, Control_c, 0, 64, 23
1, 903957, Control_c, 0, 64, 59
1, 903967, Poly_aftertouch_c, 0, 62, 127
1, 903975, Control_c, 0, 64, 0
1, 903978, Poly_aftertouch_c, 0, 62, 0
1, 903992, Note_on_c, 0, 41, 0
1, 903994, Note_on_c, 0, 58, 0
1, 903994, Poly_aftertouch_c, 0, 58, 0
1, 904013, Note_on_c, 0, 50, 0
1, 904050, Note_on_c, 0, 54, 86
1, 904062, Note_on_c, 0, 38, 78
1, 904089, Note_on_c, 0, 34, 0
1, 904109, Note_on_c, 0, 62, 22
1, 904118, Note_on_c, 0, 54, 0
1, 904118, Poly_aftertouch_c, 0, 54, 0
1, 904145, Note_on_c, 0, 62, 0
1, 904145, Control_c, 0, 64, 54
1, 904157, Note_on_c, 0, 38, 0
1, 904157, Poly_aftertouch_c, 0, 38, 0
1, 904161, Control_c, 0, 64, 122
1, 904181, Note_on_c, 0, 58, 81
1, 904181, Control_c, 0, 64, 127
1, 904183, Note_on_c, 0, 40, 89
1, 904194, Note_on_c, 0, 62, 39
1, 904219, Control_c, 0, 64, 82
1, 904223, Note_on_c, 0, 40, 0
1, 904223, Poly_aftertouch_c, 0, 40, 0
1, 904231, Note_on_c, 0, 62, 0
1, 904238, Control_c, 0, 64, 0
1, 904245, Note_on_c, 0, 58, 0
1, 904245, Poly_aftertouch_c, 0, 58, 0
1, 904292, Note_on_c, 0, 53, 80
1, 904311, Note_on_c, 0, 22, 91
1, 904338, Note_on_c, 0, 53, 0
1, 904338, Poly_aftertouch_c, 0, 53, 0
1, 904385, Note_on_c, 0, 22, 0
1, 904430, Note_on_c, 0, 34, 98
1, 904433, Note_on_c, 0, 49, 92
1, 904434, Note_on_c, 0, 61, 93
1, 904446, Note_on_c, 0, 54, 74
1, 904460, Note_on_c, 0, 49, 0
1, 904460, Poly_aftertouch_c, 0, 49, 0
1, 904460, Control_c, 0, 64, 50
1, 904478, Note_on_c, 0, 54, 0
1, 904478, Poly_aftertouch_c, 0, 54, 0
1, 904479, Control_c, 0, 64, 127
1, 904486, Note_on_c, 0, 61, 0
1, 904486, Poly_aftertouch_c, 0, 61, 0
1, 904487, Note_on_c, 0, 34, 0
1, 904553, Poly_aftertouch_c, 0, 58, 127
1, 904567, Poly_aftertouch_c, 0, 58, 0
1, 904779, Note_on_c, 0, 73, 81
1, 904784, Note_on_c, 0, 70, 69
1, 904793, Note_on_c, 0, 42, 63
1, 904852, Note_on_c, 0, 42, 0
1, 904852, Poly_aftertouch_c, 0, 42, 0
1, 904871, Note_on_c, 0, 70, 0
1, 904871, Poly_aftertouch_c, 0, 70, 0
1, 904919, Note_on_c, 0, 73, 0
1, 904984, Note_on_c, 0, 58, 74
1, 905005, Note_on_c, 0, 82, 102
1, 905012, Note_on_c, 0, 70, 88
1, 905024, Note_on_c, 0, 58, 0
1, 905029, Note_on_c, 0, 73, 68
1, 905036, Note_on_c, 0, 70, 0
1, 905036, Poly_aftertouch_c, 0, 70, 0
1, 905061, Note_on_c, 0, 73, 0
1, 905065, Note_on_c, 0, 82, 0
1, 905121, Note_on_c, 0, 49, 62
1, 905137, Poly_aftertouch_c, 0, 78, 0
1, 905151, Note_on_c, 0, 49, 0
1, 905151, Poly_aftertouch_c, 0, 49, 0
1, 905162, Note_on_c, 0, 42, 50
1, 905190, Note_on_c, 0, 42, 0
1, 905190, Poly_aftertouch_c, 0, 42, 0
1, 905259, Note_on_c, 0, 34, 93
1, 905337, Note_on_c, 0, 34, 0
1, 905388, Note_on_c, 0, 61, 80
1, 905390, Note_on_c, 0, 73, 86
1, 905397, Note_on_c, 0, 70, 68
1, 905400, Note_on_c, 0, 22, 85
1, 905415, Note_on_c, 0, 61, 0
1, 905415, Poly_aftertouch_c, 0, 61, 0
1, 905424, Note_on_c, 0, 70, 0
1, 905424, Poly_aftertouch_c, 0, 70, 0
1, 905444, Note_on_c, 0, 73, 0
1, 905509, Poly_aftertouch_c, 0, 25, 127
1, 905539, Note_on_c, 0, 34, 85
1, 905550, Poly_aftertouch_c, 0, 25, 0
1, 905551, Note_on_c, 0, 22, 0
1, 905585, Note_on_c, 0, 34, 0
1, 905647, Note_on_c, 0, 80, 96
1, 905647, Note_on_c, 0, 68, 94
1, 905657, Note_on_c, 0, 77, 84
1, 905718, Note_on_c, 0, 68, 0
1, 905718, Poly_aftertouch_c, 0, 68, 0
1, 905734, Note_on_c, 0, 80, 0
1, 905734, Poly_aftertouch_c, 0, 80, 0
1, 905738, Note_on_c, 0, 77, 0
1, 905738, Poly_aftertouch_c, 0, 77, 0
1, 905788, Note_on_c, 0, 42, 68
1, 905827, Note_on_c, 0, 42, 0
1, 905827, Poly_aftertouch_c, 0, 42, 0
1, 905891, Note_on_c, 0, 58, 78
1, 905919, Note_on_c, 0, 58, 0
1, 906006, Note_on_c, 0, 49, 58
1, 906039, Note_on_c, 0, 42, 65
1, 906040, Note_on_c, 0, 49, 0
1, 906040, Poly_aftertouch_c, 0, 49, 0
1, 906046, Note_on_c, 0, 61, 67
1, 906052, Note_on_c, 0, 70, 67
1, 906052, Note_on_c, 0, 73, 75
1, 906067, Note_on_c, 0, 42, 0
1, 906067, Poly_aftertouch_c, 0, 42, 0
1, 906074, Poly_aftertouch_c, 0, 48, 0
1, 906078, Note_on_c, 0, 61, 0
1, 906078, Poly_aftertouch_c, 0, 61, 0
1, 906082, Note_on_c, 0, 73, 0
1, 906084, Note_on_c, 0, 70, 0
1, 906084, Poly_aftertouch_c, 0, 70, 0
1, 906157, Note_on_c, 0, 66, 97
1, 906162, Note_on_c, 0, 78, 95
1, 906164, Note_on_c, 0, 34, 89
1, 906165, Note_on_c, 0, 75, 89
1, 906181, Note_on_c, 0, 66, 0
1, 906181, Poly_aftertouch_c, 0, 66, 0
1, 906184, Note_on_c, 0, 78, 0
1, 906190, Note_on_c, 0, 75, 0
1, 906190, Poly_aftertouch_c, 0, 75, 0
1, 906274, Note_on_c, 0, 34, 0
1, 906322, Note_on_c, 0, 22, 75
1, 906396, Note_on_c, 0, 34, 86
1, 906397, Note_on_c, 0, 22, 0
1, 906435, Note_on_c, 0, 34, 0
1, 906551, Note_on_c, 0, 58, 53
1, 906552, Note_on_c, 0, 70, 69
1, 906557, Note_on_c, 0, 42, 65
1, 906579, Note_on_c, 0, 58, 0
1, 906584, Note_on_c, 0, 70, 0
1, 906584, Poly_aftertouch_c, 0, 70, 0
1, 906623, Note_on_c, 0, 42, 0
1, 906623, Poly_aftertouch_c, 0, 65, 0
1, 906623, Poly_aftertouch_c, 0, 42, 0
1, 906692, Note_on_c, 0, 65, 88
1, 906694, Note_on_c, 0, 77, 96
1, 906696, Note_on_c, 0, 58, 75
1, 906716, Note_on_c, 0, 65, 0
1, 906719, Note_on_c, 0, 72, 67
1, 906738, Note_on_c, 0, 58, 0
1, 906739, Note_on_c, 0, 77, 0
1, 906739, Poly_aftertouch_c, 0, 77, 0
1, 906740, Note_on_c, 0, 72, 0
1, 906740, Poly_aftertouch_c, 0, 72, 0
1, 906783, Note_on_c, 0, 76, 19
1, 906783, Poly_aftertouch_c, 0, 76, 0
1, 906784, Note_on_c, 0, 76, 0
1, 906818, Note_on_c, 0, 49, 72
1, 906850, Note_on_c, 0, 42, 80
1, 906859, Note_on_c, 0, 49, 0
1, 906859, Poly_aftertouch_c, 0, 49, 0
1, 906883, Note_on_c, 0, 42, 0
1, 906883, Poly_aftertouch_c, 0, 42, 0
1, 906969, Note_on_c, 0, 34, 89
1, 907049, Note_on_c, 0, 34, 0
1, 907095, Note_on_c, 0, 58, 80
1, 907106, Note_on_c, 0, 66, 70
1, 907107, Note_on_c, 0, 70, 73
1, 907122, Note_on_c, 0, 58, 0
1, 907124, Note_on_c, 0, 22, 72
1, 907135, Note_on_c, 0, 66, 0
1, 907135, Poly_aftertouch_c, 0, 66, 0
1, 907138, Note_on_c, 0, 70, 0
1, 907138, Poly_aftertouch_c, 0, 70, 0
1, 907214, Note_on_c, 0, 34, 81
1, 907218, Note_on_c, 0, 22, 0
1, 907224, Note_on_c, 0, 75, 99
1, 907228, Note_on_c, 0, 63, 88
1, 907240, Note_on_c, 0, 71, 72
1, 907249, Note_on_c, 0, 34, 0
1, 907252, Note_on_c, 0, 63, 0
1, 907252, Poly_aftertouch_c, 0, 63, 0
1, 907262, Note_on_c, 0, 71, 0
1, 907262, Poly_aftertouch_c, 0, 71, 0
1, 907266, Note_on_c, 0, 75, 0
1, 907266, Poly_aftertouch_c, 0, 75, 0
1, 907287, Note_on_c, 0, 35, 19
1, 907351, Note_on_c, 0, 35, 0
1, 907351, Poly_aftertouch_c, 0, 35, 0
1, 907376, Note_on_c, 0, 42, 64
1, 907429, Note_on_c, 0, 42, 0
1, 907429, Poly_aftertouch_c, 0, 42, 0
1, 907494, Note_on_c, 0, 58, 74
1, 907520, Note_on_c, 0, 58, 0
1, 907573, Note_on_c, 0, 49, 53
1, 907623, Note_on_c, 0, 49, 0
1, 907623, Poly_aftertouch_c, 0, 49, 0
1, 907624, Note_on_c, 0, 58, 74
1, 907631, Note_on_c, 0, 42, 68
1, 907640, Note_on_c, 0, 70, 73
1, 907654, Note_on_c, 0, 58, 0
1, 907662, Note_on_c, 0, 67, 43
1, 907668, Note_on_c, 0, 42, 0
1, 907668, Poly_aftertouch_c, 0, 42, 0
1, 907669, Note_on_c, 0, 70, 0
1, 907669, Poly_aftertouch_c, 0, 70, 0
1, 907696, Control_c, 0, 64, 104
1, 907702, Note_on_c, 0, 67, 0
1, 907702, Poly_aftertouch_c, 0, 67, 0
1, 907715, Control_c, 0, 64, 59
1, 907733, Control_c, 0, 64, 0
1, 907745, Note_on_c, 0, 34, 96
1, 907747, Note_on_c, 0, 61, 89
1, 907751, Control_c, 0, 64, 19
1, 907752, Note_on_c, 0, 73, 96
1, 907761, Note_on_c, 0, 70, 80
1, 907769, Control_c, 0, 64, 51
1, 907772, Note_on_c, 0, 61, 0
1, 907772, Poly_aftertouch_c, 0, 61, 0
1, 907779, Note_on_c, 0, 73, 0
1, 907791, Control_c, 0, 64, 79
1, 907792, Note_on_c, 0, 70, 0
1, 907792, Poly_aftertouch_c, 0, 70, 0
1, 907811, Control_c, 0, 64, 107
1, 907827, Control_c, 0, 64, 127
1, 907894, Poly_aftertouch_c, 0, 36, 0
1, 907900, Poly_aftertouch_c, 0, 35, 0
1, 907912, Note_on_c, 0, 34, 0
1, 907915, Note_on_c, 0, 22, 74
1, 907983, Note_on_c, 0, 34, 80
1, 907998, Note_on_c, 0, 22, 0
1, 908013, Poly_aftertouch_c, 0, 26, 0
1, 908030, Note_on_c, 0, 34, 0
1, 908126, Control_c, 0, 64, 110
1, 908145, Control_c, 0, 64, 71
1, 908164, Control_c, 0, 64, 0
1, 908206, Note_on_c, 0, 82, 83
1, 908216, Note_on_c, 0, 77, 73
1, 908217, Note_on_c, 0, 89, 71
1, 908220, Note_on_c, 0, 53, 56
1, 908236, Note_on_c, 0, 77, 0
1, 908236, Note_on_c, 0, 62, 63
1, 908236, Poly_aftertouch_c, 0, 77, 0
1, 908238, Note_on_c, 0, 58, 54
1, 908240, Note_on_c, 0, 82, 0
1, 908241, Note_on_c, 0, 89, 0
1, 908241, Poly_aftertouch_c, 0, 89, 0
1, 908248, Note_on_c, 0, 53, 0
1, 908248, Poly_aftertouch_c, 0, 53, 0
1, 908272, Note_on_c, 0, 62, 0
1, 908276, Note_on_c, 0, 58, 0
1, 908301, Note_on_c, 0, 86, 96
1, 908303, Note_on_c, 0, 74, 99
1, 908307, Note_on_c, 0, 82, 81
1, 908314, Control_c, 0, 64, 77
1, 908323, Note_on_c, 0, 74, 0
1, 908323, Note_on_c, 0, 65, 70
1, 908332, Control_c, 0, 64, 127
1, 908334, Note_on_c, 0, 82, 0
1, 908348, Note_on_c, 0, 86, 0
1, 908348, Poly_aftertouch_c, 0, 86, 0
1, 908377, Note_on_c, 0, 65, 0
1, 908407, Note_on_c, 0, 64, 66
1, 908434, Poly_aftertouch_c, 0, 80, 0
1, 908456, Note_on_c, 0, 64, 0
1, 908456, Poly_aftertouch_c, 0, 64, 0
1, 908483, Note_on_c, 0, 63, 70
1, 908514, Note_on_c, 0, 63, 0
1, 908514, Poly_aftertouch_c, 0, 63, 0
1, 908560, Note_on_c, 0, 62, 64
1, 908598, Note_on_c, 0, 62, 0
1, 908644, Note_on_c, 0, 58, 71
1, 908679, Note_on_c, 0, 58, 0
1, 908705, Control_c, 0, 64, 111
1, 908725, Control_c, 0, 64, 93
1, 908744, Control_c, 0, 64, 73
1, 908757, Note_on_c, 0, 54, 60
1, 908762, Control_c, 0, 64, 51
1, 908781, Control_c, 0, 64, 0
1, 908795, Note_on_c, 0, 54, 0
1, 908795, Poly_aftertouch_c, 0, 54, 0
1, 908826, Note_on_c, 0, 62, 49
1, 908831, Note_on_c, 0, 58, 48
1, 908836, Note_on_c, 0, 65, 72
1, 908856, Control_c, 0, 64, 43
1, 908875, Note_on_c, 0, 53, 63
1, 908876, Control_c, 0, 64, 69
1, 908893, Control_c, 0, 64, 89
1, 908912, Control_c, 0, 64, 104
1, 908914, Note_on_c, 0, 53, 0
1, 908914, Poly_aftertouch_c, 0, 53, 0
1, 908929, Note_on_c, 0, 62, 0
1, 908930, Control_c, 0, 64, 113
1, 908949, Control_c, 0, 64, 117
1, 908963, Note_on_c, 0, 52, 66
1, 908973, Note_on_c, 0, 58, 0
1, 908986, Note_on_c, 0, 65, 0
1, 908986, Control_c, 0, 64, 123
1, 909006, Note_on_c, 0, 52, 0
1, 909006, Poly_aftertouch_c, 0, 52, 0
1, 909043, Control_c, 0, 64, 115
1, 909061, Control_c, 0, 64, 88
1, 909066, Note_on_c, 0, 51, 67
1, 909080, Control_c, 0, 64, 54
1, 909098, Note_on_c, 0, 64, 82
1, 909098, Control_c, 0, 64, 44
1, 909104, Note_on_c, 0, 56, 48
1, 909107, Note_on_c, 0, 51, 0
1, 909107, Poly_aftertouch_c, 0, 51, 0
1, 909117, Note_on_c, 0, 52, 59
1, 909117, Control_c, 0, 64, 52
1, 909124, Note_on_c, 0, 55, 63
1, 909136, Control_c, 0, 64, 64
1, 909142, Note_on_c, 0, 56, 0
1, 909142, Poly_aftertouch_c, 0, 56, 0
1, 909152, Note_on_c, 0, 50, 64
1, 909154, Control_c, 0, 64, 74
1, 909174, Control_c, 0, 64, 84
1, 909187, Note_on_c, 0, 50, 0
1, 909190, Control_c, 0, 64, 100
1, 909212, Control_c, 0, 64, 124
1, 909216, Note_on_c, 0, 48, 34
1, 909223, Note_on_c, 0, 52, 0
1, 909223, Poly_aftertouch_c, 0, 52, 0
1, 909227, Note_on_c, 0, 64, 0
1, 909227, Poly_aftertouch_c, 0, 64, 0
1, 909243, Note_on_c, 0, 55, 0
1, 909285, Control_c, 0, 64, 120
1, 909296, Note_on_c, 0, 48, 0
1, 909304, Control_c, 0, 64, 93
1, 909322, Control_c, 0, 64, 84
1, 909324, Note_on_c, 0, 46, 74
1, 909341, Control_c, 0, 64, 97
1, 909343, Note_on_c, 0, 63, 88
1, 909349, Note_on_c, 0, 57, 73
1, 909349, Note_on_c, 0, 51, 80
1, 909360, Control_c, 0, 64, 118
1, 909375, Note_on_c, 0, 46, 0
1, 909375, Poly_aftertouch_c, 0, 46, 0
1, 909377, Control_c, 0, 64, 127
1, 909416, Note_on_c, 0, 45, 73
1, 909431, Note_on_c, 0, 51, 0
1, 909431, Poly_aftertouch_c, 0, 51, 0
1, 909450, Note_on_c, 0, 45, 0
1, 909481, Note_on_c, 0, 63, 0
1, 909481, Poly_aftertouch_c, 0, 63, 0
1, 909489, Note_on_c, 0, 43, 77
1, 909582, Note_on_c, 0, 57, 0
1, 909582, Poly_aftertouch_c, 0, 57, 0
1, 909617, Note_on_c, 0, 41, 73
1, 909621, Control_c, 0, 64, 96
1, 909623, Note_on_c, 0, 50, 81
1, 909630, Note_on_c, 0, 34, 77
1, 909633, Note_on_c, 0, 58, 73
1, 909634, Note_on_c, 0, 62, 70
1, 909638, Note_on_c, 0, 64, 65
1, 909640, Control_c, 0, 64, 70
1, 909644, Note_on_c, 0, 43, 0
1, 909644, Note_on_c, 0, 43, 43
1, 909658, Note_on_c, 0, 50, 0
1, 909659, Control_c, 0, 64, 0
1, 909664, Note_on_c, 0, 64, 0
1, 909664, Poly_aftertouch_c, 0, 64, 0
1, 909665, Note_on_c, 0, 58, 0
1, 909665, Note_on_c, 0, 43, 0
1, 909667, Note_on_c, 0, 41, 0
1, 909668, Note_on_c, 0, 62, 0
1, 909673, Note_on_c, 0, 34, 0
1, 909753, Poly_aftertouch_c, 0, 52, 0
1, 909776, Note_on_c, 0, 58, 61
1, 909782, Note_on_c, 0, 62, 62
1, 909795, Note_on_c, 0, 50, 54
1, 909806, Note_on_c, 0, 34, 40
1, 909807, Note_on_c, 0, 38, 48
1, 909809, Note_on_c, 0, 58, 0
1, 909814, Note_on_c, 0, 62, 0
1, 909834, Note_on_c, 0, 50, 0
1, 909847, Note_on_c, 0, 38, 0
1, 909847, Poly_aftertouch_c, 0, 38, 0
1, 909860, Note_on_c, 0, 34, 0
1, 909917, Note_on_c, 0, 62, 66
1, 909920, Note_on_c, 0, 58, 64
1, 909922, Note_on_c, 0, 50, 72
1, 909928, Note_on_c, 0, 40, 70
1, 909947, Note_on_c, 0, 50, 0
1, 909955, Note_on_c, 0, 62, 0
1, 909959, Note_on_c, 0, 58, 0
1, 909963, Note_on_c, 0, 40, 0
1, 909963, Poly_aftertouch_c, 0, 40, 0
1, 909965, Note_on_c, 0, 34, 30
1, 910021, Note_on_c, 0, 34, 0
1, 910042, Note_on_c, 0, 50, 62
1, 910049, Note_on_c, 0, 41, 80
1, 910050, Note_on_c, 0, 57, 63
1, 910073, Note_on_c, 0, 62, 37
1, 910079, Note_on_c, 0, 41, 0
1, 910079, Note_on_c, 0, 50, 0
1, 910084, Note_on_c, 0, 57, 0
1, 910084, Poly_aftertouch_c, 0, 57, 0
1, 910113, Note_on_c, 0, 62, 0
1, 910138, Poly_aftertouch_c, 0, 34, 0
1, 910182, Note_on_c, 0, 58, 81
1, 910184, Control_c, 0, 64, 39
1, 910189, Note_on_c, 0, 38, 73
1, 910196, Note_on_c, 0, 50, 55
1, 910202, Note_on_c, 0, 62, 68
1, 910203, Control_c, 0, 64, 54
1, 910205, Note_on_c, 0, 34, 58
1, 910217, Note_on_c, 0, 58, 0
1, 910220, Control_c, 0, 64, 0
1, 910223, Note_on_c, 0, 38, 0
1, 910223, Poly_aftertouch_c, 0, 38, 0
1, 910232, Note_on_c, 0, 50, 0
1, 910234, Note_on_c, 0, 62, 0
1, 910240, Note_on_c, 0, 34, 0
1, 910311, Note_on_c, 0, 56, 78
1, 910320, Note_on_c, 0, 50, 66
1, 910334, Note_on_c, 0, 38, 39
1, 910346, Note_on_c, 0, 56, 0
1, 910346, Poly_aftertouch_c, 0, 56, 0
1, 910348, Note_on_c, 0, 50, 0
1, 910367, Note_on_c, 0, 34, 19
1, 910370, Note_on_c, 0, 38, 0
1, 910370, Poly_aftertouch_c, 0, 38, 0
1, 910426, Note_on_c, 0, 34, 0
1, 910446, Control_c, 0, 64, 57
1, 910449, Note_on_c, 0, 58, 84
1, 910450, Note_on_c, 0, 42, 85
1, 910455, Note_on_c, 0, 50, 70
1, 910464, Control_c, 0, 64, 88
1, 910474, Note_on_c, 0, 34, 35
1, 910483, Control_c, 0, 64, 63
1, 910486, Note_on_c, 0, 42, 0
1, 910486, Note_on_c, 0, 58, 0
1, 910486, Poly_aftertouch_c, 0, 42, 0
1, 910488, Poly_aftertouch_c, 0, 62, 0
1, 910491, Note_on_c, 0, 50, 0
1, 910501, Control_c, 0, 64, 0
1, 910511, Note_on_c, 0, 34, 0
1, 910577, Note_on_c, 0, 55, 78
1, 910578, Note_on_c, 0, 38, 56
1, 910585, Note_on_c, 0, 50, 59
1, 910591, Note_on_c, 0, 34, 53
1, 910614, Note_on_c, 0, 50, 0
1, 910614, Note_on_c, 0, 55, 0
1, 910618, Note_on_c, 0, 62, 17
1, 910629, Note_on_c, 0, 38, 0
1, 910629, Poly_aftertouch_c, 0, 38, 0
1, 910631, Note_on_c, 0, 34, 0
1, 910705, Note_on_c, 0, 50, 78
1, 910707, Note_on_c, 0, 41, 84
1, 910707, Control_c, 0, 64, 53
1, 910709, Note_on_c, 0, 58, 85
1, 910716, Note_on_c, 0, 34, 79
1, 910728, Control_c, 0, 64, 90
1, 910733, Note_on_c, 0, 62, 0
1, 910733, Note_on_c, 0, 62, 47
1, 910740, Note_on_c, 0, 50, 0
1, 910744, Control_c, 0, 64, 61
1, 910748, Note_on_c, 0, 41, 0
1, 910751, Note_on_c, 0, 34, 0
1, 910752, Note_on_c, 0, 62, 0
1, 910762, Control_c, 0, 64, 0
1, 910786, Note_on_c, 0, 58, 0
1, 910824, Note_on_c, 0, 38, 65
1, 910835, Note_on_c, 0, 54, 80
1, 910837, Note_on_c, 0, 34, 68
1, 910839, Note_on_c, 0, 50, 52
1, 910879, Note_on_c, 0, 50, 0
1, 910895, Note_on_c, 0, 54, 0
1, 910895, Poly_aftertouch_c, 0, 54, 0
1, 910924, Note_on_c, 0, 38, 0
1, 910924, Poly_aftertouch_c, 0, 38, 0
1, 910931, Note_on_c, 0, 34, 0
1, 910951, Control_c, 0, 64, 21
1, 910968, Control_c, 0, 64, 127
1, 910969, Note_on_c, 0, 58, 85
1, 910969, Control_c, 0, 67, 8
1, 910971, Note_on_c, 0, 40, 82
1, 910980, Note_on_c, 0, 62, 65
1, 911011, Note_on_c, 0, 62, 0
1, 911011, Note_on_c, 0, 40, 0
1, 911011, Poly_aftertouch_c, 0, 40, 0
1, 911025, Control_c, 0, 64, 83
1, 911043, Control_c, 0, 64, 0
1, 911058, Note_on_c, 0, 58, 0
1, 911087, Note_on_c, 0, 53, 82
1, 911092, Note_on_c, 0, 22, 88
1, 911146, Note_on_c, 0, 53, 0
1, 911146, Poly_aftertouch_c, 0, 53, 0
1, 911170, Note_on_c, 0, 22, 0
1, 911212, Control_c, 0, 67, 0
1, 911221, Note_on_c, 0, 34, 96
1, 911223, Note_on_c, 0, 49, 92
1, 911225, Note_on_c, 0, 61, 94
1, 911228, Control_c, 0, 64, 66
1, 911231, Note_on_c, 0, 54, 82
1, 911249, Control_c, 0, 64, 127
1, 911251, Note_on_c, 0, 49, 0
1, 911251, Poly_aftertouch_c, 0, 49, 0
1, 911258, Note_on_c, 0, 58, 41
1, 911266, Note_on_c, 0, 54, 0
1, 911266, Poly_aftertouch_c, 0, 54, 0
1, 911278, Note_on_c, 0, 61, 0
1, 911278, Poly_aftertouch_c, 0, 61, 0
1, 911280, Note_on_c, 0, 34, 0
1, 911288, Note_on_c, 0, 58, 0
1, 911590, Note_on_c, 0, 73, 80
1, 911592, Note_on_c, 0, 42, 67
1, 911599, Note_on_c, 0, 70, 68
1, 911663, Note_on_c, 0, 42, 0
1, 911663, Poly_aftertouch_c, 0, 42, 0
1, 911775, Note_on_c, 0, 70, 0
1, 911775, Poly_aftertouch_c, 0, 70, 0
1, 911810, Note_on_c, 0, 58, 86
1, 911812, Note_on_c, 0, 73, 0
1, 911875, Note_on_c, 0, 58, 0
1, 911917, Note_on_c, 0, 82, 102
1, 911921, Note_on_c, 0, 70, 83
1, 911937, Note_on_c, 0, 73, 77
1, 911946, Note_on_c, 0, 70, 0
1, 911946, Poly_aftertouch_c, 0, 70, 0
1, 911965, Note_on_c, 0, 73, 0
1, 911984, Note_on_c, 0, 82, 0
1, 912019, Note_on_c, 0, 49, 74
1, 912078, Note_on_c, 0, 42, 68
1, 912080, Note_on_c, 0, 49, 0
1, 912080, Poly_aftertouch_c, 0, 49, 0
1, 912111, Note_on_c, 0, 42, 0
1, 912111, Poly_aftertouch_c, 0, 42, 0
1, 912188, Note_on_c, 0, 34, 91
1, 912281, Note_on_c, 0, 34, 0
1, 912305, Note_on_c, 0, 61, 69
1, 912308, Note_on_c, 0, 73, 80
1, 912314, Note_on_c, 0, 70, 63
1, 912337, Note_on_c, 0, 61, 0
1, 912337, Poly_aftertouch_c, 0, 61, 0
1, 912338, Note_on_c, 0, 22, 84
1, 912346, Note_on_c, 0, 70, 0
1, 912346, Poly_aftertouch_c, 0, 70, 0
1, 912366, Note_on_c, 0, 73, 0
1, 912469, Note_on_c, 0, 34, 82
1, 912475, Note_on_c, 0, 22, 0
1, 912503, Poly_aftertouch_c, 0, 25, 0
1, 912521, Note_on_c, 0, 34, 0
1, 912581, Note_on_c, 0, 80, 93
1, 912584, Note_on_c, 0, 68, 88
1, 912598, Note_on_c, 0, 77, 75
1, 912649, Note_on_c, 0, 68, 0
1, 912649, Poly_aftertouch_c, 0, 68, 0
1, 912681, Note_on_c, 0, 77, 0
1, 912681, Poly_aftertouch_c, 0, 77, 0
1, 912684, Note_on_c, 0, 80, 0
1, 912721, Note_on_c, 0, 42, 69
1, 912770, Note_on_c, 0, 42, 0
1, 912770, Poly_aftertouch_c, 0, 42, 0
1, 912831, Note_on_c, 0, 58, 84
1, 912872, Note_on_c, 0, 58, 0
1, 912955, Note_on_c, 0, 49, 53
1, 912993, Note_on_c, 0, 61, 71
1, 912995, Note_on_c, 0, 42, 74
1, 912997, Note_on_c, 0, 73, 77
1, 913003, Note_on_c, 0, 70, 64
1, 913006, Note_on_c, 0, 49, 0
1, 913006, Poly_aftertouch_c, 0, 49, 0
1, 913024, Note_on_c, 0, 61, 0
1, 913024, Poly_aftertouch_c, 0, 61, 0
1, 913027, Note_on_c, 0, 73, 0
1, 913029, Note_on_c, 0, 42, 0
1, 913029, Poly_aftertouch_c, 0, 42, 0
1, 913034, Note_on_c, 0, 70, 0
1, 913034, Poly_aftertouch_c, 0, 70, 0
1, 913112, Note_on_c, 0, 66, 94
1, 913113, Note_on_c, 0, 78, 96
1, 913117, Note_on_c, 0, 75, 88
1, 913117, Note_on_c, 0, 34, 91
1, 913133, Note_on_c, 0, 66, 0
1, 913133, Poly_aftertouch_c, 0, 66, 0
1, 913140, Note_on_c, 0, 78, 0
1, 913140, Note_on_c, 0, 75, 0
1, 913140, Poly_aftertouch_c, 0, 75, 0
1, 913193, Note_on_c, 0, 34, 0
1, 913286, Note_on_c, 0, 22, 65
1, 913345, Note_on_c, 0, 22, 0
1, 913350, Note_on_c, 0, 34, 85
1, 913393, Note_on_c, 0, 34, 0
1, 913507, Note_on_c, 0, 58, 62
1, 913513, Note_on_c, 0, 70, 66
1, 913520, Note_on_c, 0, 42, 55
1, 913523, Note_on_c, 0, 66, 48
1, 913529, Note_on_c, 0, 58, 0
1, 913548, Note_on_c, 0, 70, 0
1, 913548, Poly_aftertouch_c, 0, 70, 0
1, 913551, Note_on_c, 0, 66, 0
1, 913551, Poly_aftertouch_c, 0, 66, 0
1, 913566, Note_on_c, 0, 42, 0
1, 913566, Poly_aftertouch_c, 0, 42, 0
1, 913657, Note_on_c, 0, 77, 98
1, 913658, Note_on_c, 0, 65, 90
1, 913659, Note_on_c, 0, 58, 65
1, 913662, Note_on_c, 0, 73, 89
1, 913682, Note_on_c, 0, 65, 0
1, 913686, Note_on_c, 0, 73, 0
1, 913702, Note_on_c, 0, 77, 0
1, 913702, Poly_aftertouch_c, 0, 77, 0
1, 913712, Note_on_c, 0, 58, 0
1, 913773, Note_on_c, 0, 49, 59
1, 913821, Note_on_c, 0, 42, 74
1, 913826, Note_on_c, 0, 49, 0
1, 913826, Poly_aftertouch_c, 0, 49, 0
1, 913850, Note_on_c, 0, 42, 0
1, 913850, Poly_aftertouch_c, 0, 42, 0
1, 913942, Note_on_c, 0, 34, 88
1, 914029, Note_on_c, 0, 34, 0
1, 914065, Note_on_c, 0, 58, 67
1, 914067, Note_on_c, 0, 66, 67
1, 914071, Note_on_c, 0, 70, 70
1, 914093, Note_on_c, 0, 22, 69
1, 914095, Note_on_c, 0, 58, 0
1, 914099, Note_on_c, 0, 66, 0
1, 914099, Poly_aftertouch_c, 0, 66, 0
1, 914102, Note_on_c, 0, 70, 0
1, 914102, Poly_aftertouch_c, 0, 70, 0
1, 914203, Note_on_c, 0, 22, 0
1, 914203, Note_on_c, 0, 34, 80
1, 914204, Note_on_c, 0, 75, 98
1, 914206, Note_on_c, 0, 63, 91
1, 914215, Note_on_c, 0, 71, 80
1, 914229, Note_on_c, 0, 63, 0
1, 914229, Poly_aftertouch_c, 0, 63, 0
1, 914240, Note_on_c, 0, 71, 0
1, 914240, Note_on_c, 0, 75, 0
1, 914240, Poly_aftertouch_c, 0, 71, 0
1, 914240, Poly_aftertouch_c, 0, 75, 0
1, 914243, Note_on_c, 0, 34, 0
1, 914379, Note_on_c, 0, 42, 57
1, 914415, Note_on_c, 0, 42, 0
1, 914415, Poly_aftertouch_c, 0, 42, 0
1, 914473, Note_on_c, 0, 58, 78
1, 914511, Note_on_c, 0, 58, 0
1, 914581, Note_on_c, 0, 49, 39
1, 914634, Note_on_c, 0, 58, 64
1, 914638, Note_on_c, 0, 42, 60
1, 914639, Note_on_c, 0, 49, 0
1, 914639, Note_on_c, 0, 66, 63
1, 914639, Poly_aftertouch_c, 0, 49, 0
1, 914651, Note_on_c, 0, 70, 52
1, 914655, Note_on_c, 0, 58, 0
1, 914676, Note_on_c, 0, 42, 0
1, 914676, Poly_aftertouch_c, 0, 42, 0
1, 914679, Note_on_c, 0, 66, 0
1, 914679, Poly_aftertouch_c, 0, 66, 0
1, 914680, Note_on_c, 0, 70, 0
1, 914680, Poly_aftertouch_c, 0, 70, 0
1, 914745, Note_on_c, 0, 73, 96
1, 914745, Control_c, 0, 64, 83
1, 914747, Note_on_c, 0, 61, 89
1, 914753, Note_on_c, 0, 34, 89
1, 914753, Note_on_c, 0, 70, 82
1, 914765, Control_c, 0, 64, 0
1, 914791, Note_on_c, 0, 61, 0
1, 914791, Poly_aftertouch_c, 0, 61, 0
1, 914831, Note_on_c, 0, 34, 0
1, 914870, Note_on_c, 0, 61, 40
1, 914912, Note_on_c, 0, 22, 67
1, 914966, Note_on_c, 0, 61, 0
1, 914966, Poly_aftertouch_c, 0, 61, 0
1, 914969, Note_on_c, 0, 70, 0
1, 914969, Poly_aftertouch_c, 0, 70, 0
1, 914970, Poly_aftertouch_c, 0, 70, 0
1, 914983, Note_on_c, 0, 22, 0
1, 914989, Note_on_c, 0, 34, 84
1, 915003, Note_on_c, 0, 73, 0
1, 915006, Control_c, 0, 64, 65
1, 915025, Note_on_c, 0, 34, 0
1, 915025, Control_c, 0, 64, 108
1, 915045, Control_c, 0, 64, 92
1, 915064, Control_c, 0, 64, 52
1, 915082, Control_c, 0, 64, 0
1, 915221, Note_on_c, 0, 53, 71
1, 915256, Note_on_c, 0, 68, 53
1, 915259, Note_on_c, 0, 72, 64
1, 915275, Note_on_c, 0, 53, 0
1, 915275, Poly_aftertouch_c, 0, 53, 0
1, 915279, Note_on_c, 0, 65, 90
1, 915287, Control_c, 0, 64, 117
1, 915298, Note_on_c, 0, 68, 0
1, 915298, Poly_aftertouch_c, 0, 68, 0
1, 915306, Control_c, 0, 64, 127
1, 915320, Note_on_c, 0, 77, 76
1, 915325, Note_on_c, 0, 65, 0
1, 915332, Note_on_c, 0, 72, 0
1, 915332, Poly_aftertouch_c, 0, 72, 0
1, 915390, Note_on_c, 0, 77, 0
1, 915390, Poly_aftertouch_c, 0, 77, 0
1, 915466, Note_on_c, 0, 63, 67
1, 915499, Note_on_c, 0, 63, 0
1, 915499, Poly_aftertouch_c, 0, 63, 0
1, 915534, Note_on_c, 0, 73, 62
1, 915538, Note_on_c, 0, 69, 38
1, 915550, Control_c, 0, 64, 109
1, 915570, Control_c, 0, 64, 66
1, 915578, Note_on_c, 0, 69, 0
1, 915578, Poly_aftertouch_c, 0, 69, 0
1, 915586, Control_c, 0, 64, 0
1, 915596, Note_on_c, 0, 77, 66
1, 915618, Note_on_c, 0, 73, 0
1, 915628, Note_on_c, 0, 64, 44
1, 915668, Note_on_c, 0, 64, 0
1, 915668, Poly_aftertouch_c, 0, 64, 0
1, 915671, Note_on_c, 0, 77, 0
1, 915671, Poly_aftertouch_c, 0, 77, 0
1, 915686, Note_on_c, 0, 65, 56
1, 915766, Note_on_c, 0, 70, 63
1, 915768, Note_on_c, 0, 74, 62
1, 915769, Note_on_c, 0, 62, 67
1, 915771, Note_on_c, 0, 65, 0
1, 915803, Note_on_c, 0, 62, 0
1, 915809, Note_on_c, 0, 77, 66
1, 915818, Note_on_c, 0, 74, 0
1, 915818, Note_on_c, 0, 70, 0
1, 915868, Note_on_c, 0, 77, 0
1, 915868, Poly_aftertouch_c, 0, 77, 0
1, 915885, Note_on_c, 0, 60, 48
1, 915919, Note_on_c, 0, 60, 0
1, 915919, Note_on_c, 0, 66, 66
1, 915919, Poly_aftertouch_c, 0, 60, 0
1, 915956, Note_on_c, 0, 58, 61
1, 915993, Note_on_c, 0, 58, 0
1, 916001, Note_on_c, 0, 66, 0
1, 916001, Poly_aftertouch_c, 0, 66, 0
1, 916005, Note_on_c, 0, 70, 56
1, 916007, Note_on_c, 0, 73, 67
1, 916035, Note_on_c, 0, 57, 75
1, 916046, Note_on_c, 0, 78, 69
1, 916056, Note_on_c, 0, 70, 0
1, 916060, Note_on_c, 0, 57, 0
1, 916060, Poly_aftertouch_c, 0, 57, 0
1, 916084, Note_on_c, 0, 73, 0
1, 916144, Note_on_c, 0, 78, 0
1, 916145, Note_on_c, 0, 55, 39
1, 916167, Note_on_c, 0, 67, 61
1, 916205, Control_c, 0, 67, 9
1, 916222, Control_c, 0, 67, 14
1, 916224, Note_on_c, 0, 70, 63
1, 916229, Note_on_c, 0, 74, 67
1, 916232, Note_on_c, 0, 67, 0
1, 916232, Poly_aftertouch_c, 0, 67, 0
1, 916241, Control_c, 0, 67, 23
1, 916242, Note_on_c, 0, 55, 0
1, 916260, Control_c, 0, 67, 43
1, 916279, Control_c, 0, 64, 65
1, 916279, Control_c, 0, 67, 71
1, 916286, Note_on_c, 0, 79, 88
1, 916297, Note_on_c, 0, 39, 86
1, 916297, Control_c, 0, 64, 127
1, 916299, Control_c, 0, 67, 97
1, 916301, Note_on_c, 0, 70, 0
1, 916301, Note_on_c, 0, 74, 0
1, 916313, Note_on_c, 0, 79, 0
1, 916316, Control_c, 0, 67, 118
1, 916334, Note_on_c, 0, 39, 0
1, 916334, Poly_aftertouch_c, 0, 39, 0
1, 916335, Control_c, 0, 67, 125
1, 916447, Control_c, 0, 64, 113
1, 916466, Control_c, 0, 64, 72
1, 916476, Poly_aftertouch_c, 0, 39, 0
1, 916485, Control_c, 0, 64, 0
1, 916486, Control_c, 0, 67, 121
1, 916540, Control_c, 0, 67, 115
1, 916550, Note_on_c, 0, 73, 66
1, 916554, Note_on_c, 0, 69, 52
1, 916556, Note_on_c, 0, 65, 63
1, 916578, Control_c, 0, 67, 110
1, 916584, Note_on_c, 0, 69, 0
1, 916584, Poly_aftertouch_c, 0, 69, 0
1, 916593, Note_on_c, 0, 65, 0
1, 916623, Note_on_c, 0, 73, 0
1, 916627, Note_on_c, 0, 77, 63
1, 916634, Control_c, 0, 67, 104
1, 916640, Note_on_c, 0, 64, 53
1, 916653, Control_c, 0, 67, 100
1, 916671, Control_c, 0, 67, 95
1, 916675, Note_on_c, 0, 77, 0
1, 916675, Poly_aftertouch_c, 0, 77, 0
1, 916684, Note_on_c, 0, 64, 0
1, 916684, Poly_aftertouch_c, 0, 64, 0
1, 916690, Control_c, 0, 67, 90
1, 916714, Note_on_c, 0, 65, 47
1, 916728, Control_c, 0, 67, 84
1, 916752, Note_on_c, 0, 65, 0
1, 916784, Control_c, 0, 67, 80
1, 916800, Note_on_c, 0, 62, 50
1, 916801, Note_on_c, 0, 70, 50
1, 916803, Note_on_c, 0, 74, 51
1, 916821, Control_c, 0, 67, 74
1, 916832, Poly_aftertouch_c, 0, 63, 0
1, 916833, Note_on_c, 0, 70, 0
1, 916833, Note_on_c, 0, 62, 0
1, 916840, Note_on_c, 0, 74, 0
1, 916863, Note_on_c, 0, 79, 67
1, 916913, Note_on_c, 0, 79, 0
1, 916915, Note_on_c, 0, 58, 53
1, 916915, Control_c, 0, 67, 69
1, 916952, Control_c, 0, 67, 62
1, 916970, Control_c, 0, 67, 58
1, 916972, Note_on_c, 0, 72, 62
1, 917004, Note_on_c, 0, 58, 0
1, 917027, Control_c, 0, 67, 54
1, 917031, Note_on_c, 0, 72, 0
1, 917031, Poly_aftertouch_c, 0, 72, 0
1, 917040, Note_on_c, 0, 70, 69
1, 917049, Note_on_c, 0, 78, 62
1, 917061, Poly_aftertouch_c, 0, 62, 127
1, 917065, Note_on_c, 0, 74, 29
1, 917066, Poly_aftertouch_c, 0, 62, 0
1, 917072, Note_on_c, 0, 70, 0
1, 917102, Control_c, 0, 67, 50
1, 917117, Note_on_c, 0, 74, 0
1, 917120, Note_on_c, 0, 78, 0
1, 917124, Note_on_c, 0, 81, 70
1, 917153, Note_on_c, 0, 69, 56
1, 917169, Note_on_c, 0, 81, 0
1, 917169, Poly_aftertouch_c, 0, 81, 0
1, 917177, Control_c, 0, 67, 45
1, 917184, Note_on_c, 0, 69, 0
1, 917184, Poly_aftertouch_c, 0, 69, 0
1, 917193, Note_on_c, 0, 68, 68
1, 917212, Note_on_c, 0, 74, 62
1, 917212, Control_c, 0, 67, 41
1, 917252, Control_c, 0, 67, 35
1, 917279, Note_on_c, 0, 63, 66
1, 917281, Note_on_c, 0, 79, 71
1, 917282, Note_on_c, 0, 75, 72
1, 917285, Note_on_c, 0, 74, 0
1, 917288, Control_c, 0, 67, 29
1, 917295, Note_on_c, 0, 67, 77
1, 917298, Note_on_c, 0, 68, 0
1, 917298, Poly_aftertouch_c, 0, 68, 0
1, 917314, Note_on_c, 0, 79, 0
1, 917316, Note_on_c, 0, 75, 0
1, 917316, Poly_aftertouch_c, 0, 75, 0
1, 917318, Note_on_c, 0, 63, 0
1, 917325, Control_c, 0, 67, 24
1, 917334, Note_on_c, 0, 67, 0
1, 917334, Poly_aftertouch_c, 0, 67, 0
1, 917358, Note_on_c, 0, 86, 77
1, 917401, Control_c, 0, 67, 18
1, 917438, Control_c, 0, 67, 14
1, 917464, Note_on_c, 0, 62, 53
1, 917464, Note_on_c, 0, 75, 77
1, 917478, Note_on_c, 0, 86, 0
1, 917478, Poly_aftertouch_c, 0, 86, 0
1, 917494, Control_c, 0, 67, 10
1, 917502, Note_on_c, 0, 62, 0
1, 917530, Note_on_c, 0, 74, 80
1, 917537, Note_on_c, 0, 75, 0
1, 917537, Poly_aftertouch_c, 0, 75, 0
1, 917542, Note_on_c, 0, 81, 69
1, 917548, Note_on_c, 0, 78, 70
1, 917566, Note_on_c, 0, 66, 57
1, 917592, Note_on_c, 0, 74, 0
1, 917593, Note_on_c, 0, 78, 0
1, 917599, Note_on_c, 0, 81, 0
1, 917599, Poly_aftertouch_c, 0, 81, 0
1, 917603, Note_on_c, 0, 86, 79
1, 917642, Note_on_c, 0, 86, 0
1, 917642, Poly_aftertouch_c, 0, 86, 0
1, 917655, Note_on_c, 0, 66, 0
1, 917655, Poly_aftertouch_c, 0, 66, 0
1, 917661, Note_on_c, 0, 73, 68
1, 917692, Note_on_c, 0, 73, 0
1, 917723, Note_on_c, 0, 78, 79
1, 917773, Note_on_c, 0, 72, 71
1, 917782, Note_on_c, 0, 82, 74
1, 917787, Note_on_c, 0, 78, 0
1, 917797, Note_on_c, 0, 86, 71
1, 917801, Note_on_c, 0, 63, 74
1, 917803, Note_on_c, 0, 72, 0
1, 917803, Poly_aftertouch_c, 0, 72, 0
1, 917828, Note_on_c, 0, 67, 43
1, 917829, Note_on_c, 0, 63, 0
1, 917841, Note_on_c, 0, 91, 87
1, 917868, Note_on_c, 0, 82, 0
1, 917870, Note_on_c, 0, 67, 0
1, 917870, Poly_aftertouch_c, 0, 67, 0
1, 917875, Poly_aftertouch_c, 0, 71, 0
1, 917882, Note_on_c, 0, 86, 0
1, 917882, Poly_aftertouch_c, 0, 86, 0
1, 917924, Note_on_c, 0, 79, 73
1, 917997, Note_on_c, 0, 79, 0
1, 918046, Note_on_c, 0, 39, 92
1, 918050, Note_on_c, 0, 27, 90
1, 918055, Control_c, 0, 64, 77
1, 918075, Control_c, 0, 64, 127
1, 918078, Note_on_c, 0, 91, 0
1, 918084, Note_on_c, 0, 27, 0
1, 918084, Note_on_c, 0, 39, 0
1, 918236, Note_on_c, 0, 79, 77
1, 918252, Note_on_c, 0, 46, 72
1, 918263, Note_on_c, 0, 79, 0
1, 918308, Note_on_c, 0, 46, 0
1, 918308, Poly_aftertouch_c, 0, 46, 0
1, 918329, Note_on_c, 0, 94, 104
1, 918331, Note_on_c, 0, 82, 96
1, 918338, Note_on_c, 0, 55, 86
1, 918341, Note_on_c, 0, 86, 61
1, 918357, Note_on_c, 0, 82, 0
1, 918357, Note_on_c, 0, 95, 67
1, 918358, Note_on_c, 0, 95, 0
1, 918372, Note_on_c, 0, 86, 0
1, 918372, Poly_aftertouch_c, 0, 86, 0
1, 918381, Note_on_c, 0, 94, 0
1, 918388, Note_on_c, 0, 55, 0
1, 918517, Note_on_c, 0, 78, 71
1, 918525, Note_on_c, 0, 49, 65
1, 918548, Note_on_c, 0, 78, 0
1, 918560, Control_c, 0, 64, 100
1, 918579, Control_c, 0, 64, 39
1, 918599, Control_c, 0, 64, 0
1, 918603, Note_on_c, 0, 93, 105
1, 918610, Note_on_c, 0, 81, 86
1, 918611, Note_on_c, 0, 85, 87
1, 918612, Note_on_c, 0, 90, 69
1, 918622, Note_on_c, 0, 57, 59
1, 918630, Note_on_c, 0, 55, 55
1, 918634, Note_on_c, 0, 79, 49
1, 918635, Note_on_c, 0, 79, 0
1, 918643, Note_on_c, 0, 57, 0
1, 918643, Poly_aftertouch_c, 0, 57, 0
1, 918657, Note_on_c, 0, 90, 0
1, 918659, Note_on_c, 0, 49, 0
1, 918659, Poly_aftertouch_c, 0, 49, 0
1, 918660, Note_on_c, 0, 55, 0
1, 918699, Note_on_c, 0, 89, 51
1, 918747, Note_on_c, 0, 89, 0
1, 918747, Poly_aftertouch_c, 0, 89, 0
1, 918756, Note_on_c, 0, 93, 0
1, 918775, Note_on_c, 0, 81, 0
1, 918775, Poly_aftertouch_c, 0, 81, 0
1, 918790, Note_on_c, 0, 85, 0
1, 918848, Note_on_c, 0, 43, 96
1, 918855, Note_on_c, 0, 31, 88
1, 918858, Control_c, 0, 64, 127
1, 918879, Note_on_c, 0, 43, 0
1, 918893, Note_on_c, 0, 31, 0
1, 919024, Note_on_c, 0, 74, 67
1, 919047, Note_on_c, 0, 74, 0
1, 919064, Note_on_c, 0, 50, 47
1, 919115, Note_on_c, 0, 90, 100
1, 919115, Note_on_c, 0, 58, 82
1, 919118, Note_on_c, 0, 78, 93
1, 919129, Note_on_c, 0, 50, 0
1, 919148, Note_on_c, 0, 78, 0
1, 919158, Note_on_c, 0, 58, 0
1, 919172, Note_on_c, 0, 90, 0
1, 919179, Note_on_c, 0, 91, 35
1, 919180, Note_on_c, 0, 91, 0
1, 919278, Note_on_c, 0, 51, 66
1, 919289, Note_on_c, 0, 73, 77
1, 919313, Note_on_c, 0, 73, 0
1, 919364, Control_c, 0, 64, 86
1, 919378, Note_on_c, 0, 61, 85
1, 919382, Note_on_c, 0, 89, 101
1, 919384, Control_c, 0, 64, 0
1, 919387, Note_on_c, 0, 77, 91
1, 919395, Note_on_c, 0, 82, 82
1, 919411, Note_on_c, 0, 61, 0
1, 919411, Poly_aftertouch_c, 0, 61, 0
1, 919420, Note_on_c, 0, 85, 20
1, 919450, Note_on_c, 0, 51, 0
1, 919450, Poly_aftertouch_c, 0, 51, 0
1, 919547, Note_on_c, 0, 89, 0
1, 919547, Poly_aftertouch_c, 0, 89, 0
1, 919576, Note_on_c, 0, 77, 0
1, 919576, Poly_aftertouch_c, 0, 77, 0
1, 919588, Note_on_c, 0, 85, 0
1, 919591, Note_on_c, 0, 82, 0
1, 919625, Control_c, 0, 64, 39
1, 919630, Note_on_c, 0, 46, 91
1, 919642, Note_on_c, 0, 44, 72
1, 919645, Control_c, 0, 64, 127
1, 919647, Note_on_c, 0, 32, 69
1, 919657, Note_on_c, 0, 34, 53
1, 919659, Note_on_c, 0, 46, 0
1, 919659, Poly_aftertouch_c, 0, 46, 0
1, 919668, Note_on_c, 0, 44, 0
1, 919668, Poly_aftertouch_c, 0, 44, 0
1, 919679, Note_on_c, 0, 32, 0
1, 919696, Note_on_c, 0, 34, 0
1, 919817, Note_on_c, 0, 70, 53
1, 919830, Note_on_c, 0, 82, 59
1, 919847, Note_on_c, 0, 70, 0
1, 919858, Note_on_c, 0, 55, 34
1, 919861, Note_on_c, 0, 82, 0
1, 919897, Note_on_c, 0, 86, 96
1, 919903, Note_on_c, 0, 74, 84
1, 919909, Note_on_c, 0, 79, 73
1, 919913, Note_on_c, 0, 55, 0
1, 919915, Note_on_c, 0, 82, 70
1, 919920, Note_on_c, 0, 63, 81
1, 919928, Note_on_c, 0, 74, 0
1, 919940, Note_on_c, 0, 79, 0
1, 919942, Note_on_c, 0, 82, 0
1, 919954, Note_on_c, 0, 63, 0
1, 919960, Note_on_c, 0, 86, 0
1, 919960, Poly_aftertouch_c, 0, 86, 0
1, 920076, Note_on_c, 0, 69, 72
1, 920088, Note_on_c, 0, 57, 58
1, 920098, Note_on_c, 0, 69, 0
1, 920098, Poly_aftertouch_c, 0, 69, 0
1, 920107, Note_on_c, 0, 81, 41
1, 920140, Note_on_c, 0, 81, 0
1, 920140, Poly_aftertouch_c, 0, 81, 0
1, 920149, Control_c, 0, 64, 111
1, 920163, Note_on_c, 0, 73, 100
1, 920163, Note_on_c, 0, 66, 88
1, 920164, Note_on_c, 0, 85, 99
1, 920167, Control_c, 0, 64, 57
1, 920174, Note_on_c, 0, 78, 83
1, 920187, Control_c, 0, 64, 0
1, 920209, Note_on_c, 0, 66, 0
1, 920209, Poly_aftertouch_c, 0, 66, 0
1, 920235, Note_on_c, 0, 57, 0
1, 920235, Poly_aftertouch_c, 0, 57, 0
1, 920353, Note_on_c, 0, 78, 0
1, 920357, Note_on_c, 0, 85, 0
1, 920357, Note_on_c, 0, 73, 0
1, 920407, Note_on_c, 0, 51, 98
1, 920408, Note_on_c, 0, 39, 96
1, 920411, Control_c, 0, 64, 71
1, 920432, Control_c, 0, 64, 127
1, 920434, Note_on_c, 0, 51, 0
1, 920434, Poly_aftertouch_c, 0, 51, 0
1, 920440, Note_on_c, 0, 39, 0
1, 920468, Control_c, 0, 67, 14
1, 920590, Note_on_c, 0, 67, 67
1, 920617, Note_on_c, 0, 67, 0
1, 920617, Note_on_c, 0, 58, 64
1, 920617, Note_on_c, 0, 79, 36
1, 920617, Poly_aftertouch_c, 0, 67, 0
1, 920617, Control_c, 0, 67, 10
1, 920657, Note_on_c, 0, 79, 0
1, 920677, Note_on_c, 0, 74, 77
1, 920677, Note_on_c, 0, 70, 91
1, 920680, Note_on_c, 0, 82, 97
1, 920685, Note_on_c, 0, 58, 0
1, 920689, Note_on_c, 0, 67, 86
1, 920722, Note_on_c, 0, 74, 0
1, 920730, Note_on_c, 0, 70, 0
1, 920734, Note_on_c, 0, 82, 0
1, 920749, Note_on_c, 0, 67, 0
1, 920749, Poly_aftertouch_c, 0, 67, 0
1, 920862, Note_on_c, 0, 66, 76
1, 920888, Note_on_c, 0, 66, 0
1, 920888, Poly_aftertouch_c, 0, 66, 0
1, 920899, Note_on_c, 0, 61, 69
1, 920935, Control_c, 0, 64, 117
1, 920944, Note_on_c, 0, 81, 89
1, 920954, Control_c, 0, 64, 71
1, 920955, Note_on_c, 0, 73, 85
1, 920967, Note_on_c, 0, 78, 74
1, 920971, Note_on_c, 0, 69, 79
1, 920972, Control_c, 0, 64, 0
1, 921134, Note_on_c, 0, 69, 0
1, 921134, Poly_aftertouch_c, 0, 69, 0
1, 921146, Note_on_c, 0, 81, 0
1, 921146, Poly_aftertouch_c, 0, 81, 0
1, 921172, Note_on_c, 0, 73, 0
1, 921190, Note_on_c, 0, 78, 0
1, 921192, Note_on_c, 0, 61, 0
1, 921192, Poly_aftertouch_c, 0, 61, 0
1, 921272, Control_c, 0, 67, 15
1, 921482, Note_on_c, 0, 82, 68
1, 921485, Note_on_c, 0, 74, 58
1, 921495, Note_on_c, 0, 67, 45
1, 921497, Note_on_c, 0, 70, 46
1, 921498, Note_on_c, 0, 62, 51
1, 921511, Note_on_c, 0, 82, 0
1, 921512, Note_on_c, 0, 74, 0
1, 921531, Note_on_c, 0, 62, 0
1, 921532, Note_on_c, 0, 70, 0
1, 921534, Note_on_c, 0, 67, 0
1, 921534, Poly_aftertouch_c, 0, 67, 0
1, 921626, Control_c, 0, 67, 11
1, 921754, Note_on_c, 0, 76, 62
1, 921758, Note_on_c, 0, 66, 53
1, 921759, Note_on_c, 0, 58, 43
1, 921771, Note_on_c, 0, 61, 52
1, 921778, Note_on_c, 0, 70, 41
1, 921790, Note_on_c, 0, 76, 0
1, 921790, Poly_aftertouch_c, 0, 76, 0
1, 921801, Note_on_c, 0, 66, 0
1, 921801, Poly_aftertouch_c, 0, 66, 0
1, 921809, Note_on_c, 0, 58, 0
1, 921812, Note_on_c, 0, 70, 0
1, 921819, Note_on_c, 0, 61, 0
1, 921819, Poly_aftertouch_c, 0, 61, 0
1, 922021, Note_on_c, 0, 82, 72
1, 922025, Note_on_c, 0, 74, 60
1, 922032, Note_on_c, 0, 67, 52
1, 922033, Note_on_c, 0, 70, 51
1, 922038, Note_on_c, 0, 62, 53
1, 922038, Control_c, 0, 64, 71
1, 922049, Note_on_c, 0, 82, 0
1, 922052, Note_on_c, 0, 74, 0
1, 922057, Control_c, 0, 64, 64
1, 922064, Note_on_c, 0, 70, 0
1, 922066, Note_on_c, 0, 67, 0
1, 922066, Poly_aftertouch_c, 0, 67, 0
1, 922072, Note_on_c, 0, 62, 0
1, 922076, Control_c, 0, 64, 0
1, 922279, Note_on_c, 0, 75, 70
1, 922289, Note_on_c, 0, 71, 55
1, 922291, Note_on_c, 0, 63, 46
1, 922291, Note_on_c, 0, 65, 67
1, 922294, Note_on_c, 0, 56, 58
1, 922311, Note_on_c, 0, 75, 0
1, 922311, Poly_aftertouch_c, 0, 75, 0
1, 922319, Note_on_c, 0, 71, 0
1, 922324, Note_on_c, 0, 59, 39
1, 922326, Note_on_c, 0, 56, 0
1, 922326, Note_on_c, 0, 63, 0
1, 922326, Poly_aftertouch_c, 0, 56, 0
1, 922327, Note_on_c, 0, 65, 0
1, 922361, Note_on_c, 0, 59, 0
1, 922361, Poly_aftertouch_c, 0, 59, 0
1, 922553, Note_on_c, 0, 82, 89
1, 922556, Note_on_c, 0, 74, 82
1, 922556, Note_on_c, 0, 70, 81
1, 922562, Control_c, 0, 64, 72
1, 922564, Note_on_c, 0, 67, 75
1, 922566, Note_on_c, 0, 58, 71
1, 922581, Control_c, 0, 64, 127
1, 922583, Note_on_c, 0, 70, 0
1, 922585, Note_on_c, 0, 74, 0
1, 922593, Note_on_c, 0, 82, 0
1, 922594, Note_on_c, 0, 67, 0
1, 922594, Poly_aftertouch_c, 0, 67, 0
1, 922601, Control_c, 0, 64, 123
1, 922618, Control_c, 0, 64, 73
1, 922624, Note_on_c, 0, 58, 0
1, 922637, Control_c, 0, 64, 0
1, 922681, Poly_aftertouch_c, 0, 62, 0
1, 922803, Note_on_c, 0, 64, 80
1, 922814, Note_on_c, 0, 54, 74
1, 922816, Note_on_c, 0, 73, 84
1, 922827, Note_on_c, 0, 58, 58
1, 922841, Note_on_c, 0, 64, 0
1, 922841, Poly_aftertouch_c, 0, 64, 0
1, 922843, Note_on_c, 0, 73, 0
1, 922845, Note_on_c, 0, 61, 41
1, 922858, Note_on_c, 0, 54, 0
1, 922858, Poly_aftertouch_c, 0, 54, 0
1, 922865, Note_on_c, 0, 58, 0
1, 922868, Note_on_c, 0, 61, 0
1, 922868, Poly_aftertouch_c, 0, 61, 0
1, 923078, Note_on_c, 0, 82, 93
1, 923079, Note_on_c, 0, 65, 89
1, 923080, Note_on_c, 0, 70, 89
1, 923085, Note_on_c, 0, 62, 78
1, 923085, Control_c, 0, 64, 17
1, 923089, Note_on_c, 0, 56, 73
1, 923089, Note_on_c, 0, 74, 74
1, 923094, Note_on_c, 0, 53, 71
1, 923094, Note_on_c, 0, 77, 80
1, 923118, Control_c, 0, 64, 127
1, 923119, Note_on_c, 0, 65, 0
1, 923121, Note_on_c, 0, 70, 0
1, 923127, Note_on_c, 0, 62, 0
1, 923133, Note_on_c, 0, 74, 0
1, 923135, Note_on_c, 0, 77, 0
1, 923135, Poly_aftertouch_c, 0, 77, 0
1, 923137, Control_c, 0, 64, 121
1, 923141, Note_on_c, 0, 82, 0
1, 923146, Note_on_c, 0, 53, 0
1, 923146, Poly_aftertouch_c, 0, 53, 0
1, 923154, Note_on_c, 0, 56, 0
1, 923154, Poly_aftertouch_c, 0, 56, 0
1, 923156, Control_c, 0, 64, 68
1, 923159, Control_c, 0, 67, 0
1, 923160, Control_c, 0, 64, 0
1, 923342, Note_on_c, 0, 60, 86
1, 923350, Note_on_c, 0, 72, 80
1, 923352, Note_on_c, 0, 57, 76
1, 923356, Note_on_c, 0, 54, 71
1, 923359, Note_on_c, 0, 63, 61
1, 923360, Note_on_c, 0, 66, 63
1, 923362, Note_on_c, 0, 60, 0
1, 923362, Note_on_c, 0, 51, 64
1, 923362, Poly_aftertouch_c, 0, 60, 0
1, 923369, Note_on_c, 0, 72, 0
1, 923369, Poly_aftertouch_c, 0, 72, 0
1, 923385, Note_on_c, 0, 57, 0
1, 923385, Poly_aftertouch_c, 0, 57, 0
1, 923388, Note_on_c, 0, 63, 0
1, 923388, Note_on_c, 0, 66, 0
1, 923388, Poly_aftertouch_c, 0, 66, 0
1, 923396, Note_on_c, 0, 54, 0
1, 923396, Poly_aftertouch_c, 0, 54, 0
1, 923406, Note_on_c, 0, 51, 0
1, 923406, Poly_aftertouch_c, 0, 51, 0
1, 923528, Note_on_c, 0, 46, 57
1, 923582, Note_on_c, 0, 46, 0
1, 923582, Poly_aftertouch_c, 0, 46, 0
1, 923597, Note_on_c, 0, 53, 35
1, 923640, Note_on_c, 0, 58, 80
1, 923650, Note_on_c, 0, 62, 96
1, 923651, Note_on_c, 0, 53, 0
1, 923651, Poly_aftertouch_c, 0, 53, 0
1, 923653, Note_on_c, 0, 70, 95
1, 923655, Note_on_c, 0, 82, 91
1, 923660, Note_on_c, 0, 74, 77
1, 923662, Note_on_c, 0, 77, 85
1, 923664, Control_c, 0, 64, 120
1, 923683, Control_c, 0, 64, 127
1, 923695, Note_on_c, 0, 62, 0
1, 923700, Note_on_c, 0, 58, 0
1, 923703, Note_on_c, 0, 70, 0
1, 923704, Note_on_c, 0, 82, 0
1, 923710, Note_on_c, 0, 77, 0
1, 923710, Poly_aftertouch_c, 0, 77, 0
1, 923720, Note_on_c, 0, 74, 0
1, 923834, Control_c, 0, 64, 116
1, 923852, Control_c, 0, 64, 61
1, 923870, Control_c, 0, 64, 0
1, 924084, Note_on_c, 0, 53, 56
1, 924090, Note_on_c, 0, 65, 42
1, 924096, Note_on_c, 0, 62, 41
1, 924096, Note_on_c, 0, 46, 68
1, 924114, Note_on_c, 0, 53, 0
1, 924114, Poly_aftertouch_c, 0, 53, 0
1, 924115, Note_on_c, 0, 41, 50
1, 924119, Note_on_c, 0, 34, 47
1, 924129, Note_on_c, 0, 46, 0
1, 924129, Poly_aftertouch_c, 0, 46, 0
1, 924130, Note_on_c, 0, 65, 0
1, 924137, Note_on_c, 0, 62, 0
1, 924150, Note_on_c, 0, 41, 0
1, 924156, Note_on_c, 0, 34, 0
1, 924192, Note_on_c, 0, 46, 96
1, 924193, Note_on_c, 0, 50, 96
1, 924200, Note_on_c, 0, 62, 98
1, 924200, Note_on_c, 0, 58, 88
1, 924205, Note_on_c, 0, 34, 75
1, 924206, Control_c, 0, 64, 127
1, 924217, Note_on_c, 0, 41, 73
1, 924229, Note_on_c, 0, 50, 0
1, 924235, Note_on_c, 0, 34, 0
1, 924240, Note_on_c, 0, 46, 0
1, 924240, Poly_aftertouch_c, 0, 46, 0
1, 924249, Note_on_c, 0, 41, 0
1, 924254, Note_on_c, 0, 58, 0
1, 924261, Note_on_c, 0, 62, 0
1, 924376, Control_c, 0, 64, 103
1, 924394, Control_c, 0, 64, 32
1, 924413, Control_c, 0, 64, 0
1, 924646, Note_on_c, 0, 65, 61
1, 924649, Note_on_c, 0, 53, 53
1, 924649, Note_on_c, 0, 62, 50
1, 924653, Note_on_c, 0, 46, 67
1, 924662, Note_on_c, 0, 34, 60
1, 924671, Note_on_c, 0, 41, 53
1, 924675, Note_on_c, 0, 65, 0
1, 924681, Note_on_c, 0, 53, 0
1, 924681, Note_on_c, 0, 62, 0
1, 924681, Poly_aftertouch_c, 0, 53, 0
1, 924685, Note_on_c, 0, 46, 0
1, 924685, Poly_aftertouch_c, 0, 46, 0
1, 924701, Note_on_c, 0, 34, 0
1, 924709, Note_on_c, 0, 41, 0
1, 924756, Note_on_c, 0, 46, 98
1, 924757, Note_on_c, 0, 50, 96
1, 924759, Note_on_c, 0, 62, 93
1, 924760, Note_on_c, 0, 58, 92
1, 924768, Control_c, 0, 64, 127
1, 924769, Note_on_c, 0, 34, 88
1, 924772, Note_on_c, 0, 41, 84
1, 924788, Note_on_c, 0, 50, 0
1, 924803, Note_on_c, 0, 34, 0
1, 924806, Note_on_c, 0, 46, 0
1, 924806, Poly_aftertouch_c, 0, 46, 0
1, 924809, Note_on_c, 0, 58, 0
1, 924811, Note_on_c, 0, 41, 0
1, 924823, Note_on_c, 0, 62, 0
1, 924956, Control_c, 0, 64, 105
1, 924974, Control_c, 0, 64, 46
1, 924992, Control_c, 0, 64, 0
1, 925071, Poly_aftertouch_c, 0, 62, 127
1, 925097, Poly_aftertouch_c, 0, 62, 0
1, 925167, Note_on_c, 0, 65, 66
1, 925171, Note_on_c, 0, 53, 61
1, 925184, Note_on_c, 0, 62, 51
1, 925186, Note_on_c, 0, 46, 56
1, 925197, Note_on_c, 0, 41, 51
1, 925204, Note_on_c, 0, 65, 0
1, 925207, Note_on_c, 0, 53, 0
1, 925207, Poly_aftertouch_c, 0, 53, 0
1, 925216, Note_on_c, 0, 62, 0
1, 925224, Note_on_c, 0, 46, 0
1, 925224, Poly_aftertouch_c, 0, 46, 0
1, 925244, Note_on_c, 0, 41, 0
1, 925298, Note_on_c, 0, 62, 87
1, 925298, Note_on_c, 0, 50, 88
1, 925301, Note_on_c, 0, 58, 85
1, 925308, Note_on_c, 0, 46, 72
1, 925311, Control_c, 0, 64, 90
1, 925329, Control_c, 0, 64, 127
1, 925330, Note_on_c, 0, 50, 0
1, 925336, Poly_aftertouch_c, 0, 34, 127
1, 925340, Note_on_c, 0, 46, 0
1, 925340, Poly_aftertouch_c, 0, 46, 0
1, 925347, Poly_aftertouch_c, 0, 34, 0
1, 925356, Note_on_c, 0, 58, 0
1, 925358, Note_on_c, 0, 62, 0
1, 925404, Control_c, 0, 64, 86
1, 925421, Poly_aftertouch_c, 0, 41, 0
1, 925423, Control_c, 0, 64, 0
1, 925439, Note_on_c, 0, 34, 81
1, 925442, Note_on_c, 0, 22, 81
1, 925466, Note_on_c, 0, 50, 46
1, 925470, Note_on_c, 0, 58, 47
1, 925471, Note_on_c, 0, 22, 0
1, 925474, Note_on_c, 0, 34, 0
1, 925502, Note_on_c, 0, 58, 0
1, 925504, Note_on_c, 0, 50, 0
1, 925580, Note_on_c, 0, 58, 75
1, 925584, Note_on_c, 0, 40, 65
1, 925591, Note_on_c, 0, 50, 61
1, 925593, Note_on_c, 0, 62, 51
1, 925596, Note_on_c, 0, 28, 57
1, 925617, Note_on_c, 0, 40, 0
1, 925617, Poly_aftertouch_c, 0, 40, 0
1, 925618, Note_on_c, 0, 58, 0
1, 925622, Note_on_c, 0, 50, 0
1, 925634, Note_on_c, 0, 28, 0
1, 925635, Note_on_c, 0, 62, 0
1, 925712, Note_on_c, 0, 57, 66
1, 925718, Note_on_c, 0, 50, 57
1, 925726, Note_on_c, 0, 22, 65
1, 925733, Note_on_c, 0, 34, 49
1, 925751, Note_on_c, 0, 57, 0
1, 925751, Poly_aftertouch_c, 0, 57, 0
1, 925753, Note_on_c, 0, 50, 0
1, 925767, Note_on_c, 0, 22, 0
1, 925779, Note_on_c, 0, 34, 0
1, 925848, Note_on_c, 0, 50, 59
1, 925849, Note_on_c, 0, 58, 70
1, 925850, Note_on_c, 0, 41, 72
1, 925851, Note_on_c, 0, 62, 59
1, 925857, Note_on_c, 0, 29, 67
1, 925880, Note_on_c, 0, 50, 0
1, 925885, Note_on_c, 0, 41, 0
1, 925889, Note_on_c, 0, 58, 0
1, 925895, Note_on_c, 0, 29, 0
1, 925896, Note_on_c, 0, 62, 0
1, 925970, Note_on_c, 0, 56, 69
1, 925986, Note_on_c, 0, 22, 65
1, 925990, Note_on_c, 0, 32, 54
1, 925991, Note_on_c, 0, 32, 0
1, 926013, Note_on_c, 0, 56, 0
1, 926013, Note_on_c, 0, 34, 29
1, 926013, Poly_aftertouch_c, 0, 56, 0
1, 926014, Note_on_c, 0, 34, 0
1, 926029, Note_on_c, 0, 22, 0
1, 926036, Poly_aftertouch_c, 0, 32, 0
1, 926081, Poly_aftertouch_c, 0, 34, 0
1, 926102, Note_on_c, 0, 58, 72
1, 926103, Note_on_c, 0, 42, 90
1, 926121, Note_on_c, 0, 30, 68
1, 926129, Note_on_c, 0, 62, 49
1, 926133, Note_on_c, 0, 42, 0
1, 926133, Poly_aftertouch_c, 0, 42, 0
1, 926154, Note_on_c, 0, 30, 0
1, 926162, Note_on_c, 0, 62, 0
1, 926188, Note_on_c, 0, 58, 0
1, 926210, Note_on_c, 0, 55, 78
1, 926229, Poly_aftertouch_c, 0, 32, 0
1, 926239, Note_on_c, 0, 22, 87
1, 926240, Note_on_c, 0, 34, 79
1, 926272, Note_on_c, 0, 34, 0
1, 926272, Note_on_c, 0, 22, 0
1, 926272, Note_on_c, 0, 25, 39
1, 926273, Note_on_c, 0, 25, 0
1, 926275, Note_on_c, 0, 55, 0
1, 926324, Poly_aftertouch_c, 0, 25, 0
1, 926357, Note_on_c, 0, 58, 78
1, 926367, Note_on_c, 0, 62, 66
1, 926369, Note_on_c, 0, 41, 88
1, 926385, Note_on_c, 0, 29, 61
1, 926392, Note_on_c, 0, 28, 67
1, 926400, Note_on_c, 0, 41, 0
1, 926408, Note_on_c, 0, 62, 0
1, 926425, Note_on_c, 0, 29, 0
1, 926429, Note_on_c, 0, 28, 0
1, 926472, Note_on_c, 0, 54, 80
1, 926481, Note_on_c, 0, 58, 0
1, 926512, Note_on_c, 0, 34, 77
1, 926513, Note_on_c, 0, 22, 88
1, 926539, Note_on_c, 0, 22, 0
1, 926550, Note_on_c, 0, 34, 0
1, 926588, Note_on_c, 0, 54, 0
1, 926588, Poly_aftertouch_c, 0, 54, 0
1, 926604, Poly_aftertouch_c, 0, 27, 0
1, 926612, Note_on_c, 0, 27, 18
1, 926613, Note_on_c, 0, 27, 0
1, 926627, Note_on_c, 0, 58, 81
1, 926629, Note_on_c, 0, 40, 92
1, 926637, Note_on_c, 0, 28, 86
1, 926643, Note_on_c, 0, 62, 66
1, 926669, Note_on_c, 0, 40, 0
1, 926669, Poly_aftertouch_c, 0, 40, 0
1, 926675, Note_on_c, 0, 28, 0
1, 926683, Note_on_c, 0, 62, 0
1, 926731, Poly_aftertouch_c, 0, 34, 0
1, 926751, Note_on_c, 0, 53, 87
1, 926767, Note_on_c, 0, 22, 89
1, 926788, Note_on_c, 0, 58, 0
1, 926792, Note_on_c, 0, 25, 68
1, 926810, Note_on_c, 0, 53, 0
1, 926810, Poly_aftertouch_c, 0, 53, 0
1, 926829, Note_on_c, 0, 25, 0
1, 926893, Note_on_c, 0, 49, 96
1, 926897, Note_on_c, 0, 61, 88
1, 926900, Control_c, 0, 64, 67
1, 926901, Note_on_c, 0, 54, 78
1, 926901, Note_on_c, 0, 34, 90
1, 926916, Note_on_c, 0, 49, 0
1, 926916, Poly_aftertouch_c, 0, 49, 0
1, 926919, Control_c, 0, 64, 127
1, 926928, Note_on_c, 0, 36, 68
1, 926929, Note_on_c, 0, 35, 68
1, 926933, Note_on_c, 0, 54, 0
1, 926933, Poly_aftertouch_c, 0, 54, 0
1, 926937, Note_on_c, 0, 22, 0
1, 926937, Note_on_c, 0, 58, 40
1, 926938, Note_on_c, 0, 61, 0
1, 926938, Poly_aftertouch_c, 0, 61, 0
1, 926961, Note_on_c, 0, 35, 0
1, 926961, Note_on_c, 0, 34, 0
1, 926961, Note_on_c, 0, 36, 0
1, 926982, Note_on_c, 0, 58, 0
1, 927347, Note_on_c, 0, 73, 80
1, 927357, Note_on_c, 0, 42, 62
1, 927360, Note_on_c, 0, 70, 67
1, 927500, Note_on_c, 0, 42, 0
1, 927500, Poly_aftertouch_c, 0, 42, 0
1, 927580, Poly_aftertouch_c, 0, 47, 0
1, 927629, Note_on_c, 0, 70, 0
1, 927650, Note_on_c, 0, 58, 87
1, 927684, Note_on_c, 0, 73, 0
1, 927792, Note_on_c, 0, 58, 0
1, 927795, Note_on_c, 0, 82, 98
1, 927800, Note_on_c, 0, 70, 78
1, 927819, Note_on_c, 0, 73, 73
1, 927854, Note_on_c, 0, 70, 0
1, 927920, Note_on_c, 0, 82, 0
1, 927939, Note_on_c, 0, 73, 0
1, 927982, Note_on_c, 0, 49, 71
1, 928091, Note_on_c, 0, 49, 0
1, 928091, Note_on_c, 0, 42, 65
1, 928091, Poly_aftertouch_c, 0, 49, 0
1, 928122, Note_on_c, 0, 42, 0
1, 928122, Poly_aftertouch_c, 0, 42, 0
1, 928224, Note_on_c, 0, 34, 93
1, 928292, Note_on_c, 0, 61, 79
1, 928296, Note_on_c, 0, 73, 87
1, 928302, Note_on_c, 0, 70, 73
1, 928319, Note_on_c, 0, 61, 0
1, 928319, Poly_aftertouch_c, 0, 61, 0
1, 928328, Note_on_c, 0, 70, 0
1, 928347, Note_on_c, 0, 22, 13
1, 928352, Note_on_c, 0, 34, 0
1, 928355, Note_on_c, 0, 73, 0
1, 928386, Poly_aftertouch_c, 0, 32, 0
1, 928424, Note_on_c, 0, 25, 43
1, 928485, Note_on_c, 0, 25, 0
1, 928522, Note_on_c, 0, 34, 86
1, 928545, Note_on_c, 0, 22, 0
1, 928578, Note_on_c, 0, 34, 0
1, 928589, Note_on_c, 0, 68, 87
1, 928591, Note_on_c, 0, 80, 89
1, 928598, Note_on_c, 0, 77, 80
1, 928703, Note_on_c, 0, 68, 0
1, 928703, Poly_aftertouch_c, 0, 68, 0
1, 928713, Note_on_c, 0, 80, 0
1, 928733, Note_on_c, 0, 77, 0
1, 928733, Poly_aftertouch_c, 0, 77, 0
1, 928775, Note_on_c, 0, 42, 71
1, 928834, Note_on_c, 0, 42, 0
1, 928834, Poly_aftertouch_c, 0, 42, 0
1, 928891, Note_on_c, 0, 58, 80
1, 928922, Note_on_c, 0, 58, 0
1, 928999, Note_on_c, 0, 49, 69
1, 929016, Note_on_c, 0, 61, 74
1, 929019, Note_on_c, 0, 73, 81
1, 929022, Note_on_c, 0, 70, 73
1, 929033, Note_on_c, 0, 49, 0
1, 929033, Poly_aftertouch_c, 0, 49, 0
1, 929041, Note_on_c, 0, 42, 67
1, 929044, Note_on_c, 0, 61, 0
1, 929044, Poly_aftertouch_c, 0, 61, 0
1, 929049, Note_on_c, 0, 73, 0
1, 929051, Note_on_c, 0, 70, 0
1, 929068, Note_on_c, 0, 42, 0
1, 929068, Poly_aftertouch_c, 0, 42, 0
1, 929131, Note_on_c, 0, 66, 96
1, 929135, Note_on_c, 0, 78, 97
1, 929143, Note_on_c, 0, 75, 85
1, 929151, Note_on_c, 0, 66, 0
1, 929151, Poly_aftertouch_c, 0, 66, 0
1, 929157, Note_on_c, 0, 34, 90
1, 929162, Note_on_c, 0, 78, 0
1, 929164, Note_on_c, 0, 75, 0
1, 929164, Poly_aftertouch_c, 0, 75, 0
1, 929240, Note_on_c, 0, 34, 0
1, 929316, Note_on_c, 0, 22, 72
1, 929377, Note_on_c, 0, 34, 92
1, 929399, Note_on_c, 0, 22, 0
1, 929422, Note_on_c, 0, 34, 0
1, 929439, Note_on_c, 0, 35, 34
1, 929488, Note_on_c, 0, 35, 0
1, 929523, Note_on_c, 0, 58, 62
1, 929523, Note_on_c, 0, 66, 70
1, 929529, Note_on_c, 0, 70, 68
1, 929546, Note_on_c, 0, 58, 0
1, 929551, Note_on_c, 0, 66, 0
1, 929551, Note_on_c, 0, 42, 73
1, 929551, Poly_aftertouch_c, 0, 66, 0
1, 929561, Note_on_c, 0, 70, 0
1, 929606, Note_on_c, 0, 42, 0
1, 929606, Poly_aftertouch_c, 0, 42, 0
1, 929677, Note_on_c, 0, 77, 97
1, 929677, Note_on_c, 0, 65, 93
1, 929682, Note_on_c, 0, 73, 89
1, 929685, Note_on_c, 0, 58, 71
1, 929700, Note_on_c, 0, 65, 0
1, 929707, Note_on_c, 0, 73, 0
1, 929720, Note_on_c, 0, 77, 0
1, 929720, Poly_aftertouch_c, 0, 77, 0
1, 929731, Note_on_c, 0, 58, 0
1, 929791, Poly_aftertouch_c, 0, 48, 127
1, 929811, Note_on_c, 0, 49, 53
1, 929849, Poly_aftertouch_c, 0, 48, 0
1, 929852, Note_on_c, 0, 42, 71
1, 929858, Note_on_c, 0, 49, 0
1, 929858, Poly_aftertouch_c, 0, 49, 0
1, 929887, Note_on_c, 0, 42, 0
1, 929887, Poly_aftertouch_c, 0, 42, 0
1, 929965, Note_on_c, 0, 34, 89
1, 930059, Note_on_c, 0, 34, 0
1, 930082, Note_on_c, 0, 58, 74
1, 930083, Note_on_c, 0, 66, 73
1, 930092, Note_on_c, 0, 70, 72
1, 930113, Note_on_c, 0, 58, 0
1, 930114, Note_on_c, 0, 66, 0
1, 930114, Poly_aftertouch_c, 0, 66, 0
1, 930117, Note_on_c, 0, 22, 71
1, 930124, Note_on_c, 0, 70, 0
1, 930211, Note_on_c, 0, 63, 92
1, 930212, Note_on_c, 0, 75, 95
1, 930212, Note_on_c, 0, 34, 87
1, 930213, Note_on_c, 0, 22, 0
1, 930220, Note_on_c, 0, 71, 80
1, 930233, Note_on_c, 0, 63, 0
1, 930243, Poly_aftertouch_c, 0, 25, 0
1, 930244, Note_on_c, 0, 71, 0
1, 930245, Note_on_c, 0, 75, 0
1, 930245, Poly_aftertouch_c, 0, 75, 0
1, 930253, Note_on_c, 0, 34, 0
1, 930375, Note_on_c, 0, 42, 65
1, 930415, Note_on_c, 0, 42, 0
1, 930415, Poly_aftertouch_c, 0, 42, 0
1, 930475, Note_on_c, 0, 58, 86
1, 930518, Note_on_c, 0, 58, 0
1, 930569, Note_on_c, 0, 48, 27
1, 930589, Poly_aftertouch_c, 0, 49, 127
1, 930621, Note_on_c, 0, 48, 0
1, 930635, Poly_aftertouch_c, 0, 49, 0
1, 930639, Note_on_c, 0, 58, 72
1, 930645, Note_on_c, 0, 66, 61
1, 930646, Note_on_c, 0, 42, 51
1, 930649, Note_on_c, 0, 70, 65
1, 930674, Note_on_c, 0, 70, 0
1, 930674, Note_on_c, 0, 66, 0
1, 930674, Poly_aftertouch_c, 0, 66, 0
1, 930675, Note_on_c, 0, 42, 0
1, 930675, Poly_aftertouch_c, 0, 42, 0
1, 930676, Note_on_c, 0, 58, 0
1, 930733, Control_c, 0, 64, 106
1, 930743, Note_on_c, 0, 61, 93
1, 930744, Note_on_c, 0, 73, 94
1, 930750, Note_on_c, 0, 34, 90
1, 930752, Control_c, 0, 64, 57
1, 930758, Note_on_c, 0, 70, 73
1, 930770, Control_c, 0, 64, 0
1, 930835, Note_on_c, 0, 34, 0
1, 930917, Note_on_c, 0, 22, 68
1, 930973, Note_on_c, 0, 70, 0
1, 930975, Control_c, 0, 64, 32
1, 930976, Note_on_c, 0, 61, 0
1, 930976, Poly_aftertouch_c, 0, 61, 0
1, 930984, Note_on_c, 0, 34, 85
1, 930988, Note_on_c, 0, 22, 0
1, 930993, Control_c, 0, 64, 116
1, 930995, Note_on_c, 0, 73, 0
1, 931014, Control_c, 0, 64, 127
1, 931021, Note_on_c, 0, 34, 0
1, 931051, Control_c, 0, 64, 104
1, 931070, Control_c, 0, 64, 69
1, 931089, Control_c, 0, 64, 0
1, 931208, Note_on_c, 0, 53, 69
1, 931244, Note_on_c, 0, 68, 62
1, 931247, Note_on_c, 0, 72, 64
1, 931262, Note_on_c, 0, 65, 91
1, 931277, Control_c, 0, 64, 63
1, 931286, Note_on_c, 0, 53, 0
1, 931286, Poly_aftertouch_c, 0, 53, 0
1, 931289, Note_on_c, 0, 68, 0
1, 931289, Poly_aftertouch_c, 0, 68, 0
1, 931293, Control_c, 0, 64, 127
1, 931313, Note_on_c, 0, 65, 0
1, 931316, Note_on_c, 0, 72, 0
1, 931316, Poly_aftertouch_c, 0, 72, 0
1, 931320, Note_on_c, 0, 77, 66
1, 931451, Note_on_c, 0, 77, 0
1, 931451, Poly_aftertouch_c, 0, 77, 0
1, 931460, Note_on_c, 0, 63, 59
1, 931493, Note_on_c, 0, 63, 0
1, 931527, Note_on_c, 0, 69, 43
1, 931538, Note_on_c, 0, 73, 62
1, 931574, Note_on_c, 0, 69, 0
1, 931574, Poly_aftertouch_c, 0, 69, 0
1, 931574, Control_c, 0, 64, 121
1, 931593, Control_c, 0, 64, 92
1, 931603, Note_on_c, 0, 77, 66
1, 931609, Note_on_c, 0, 64, 46
1, 931612, Control_c, 0, 64, 65
1, 931613, Note_on_c, 0, 73, 0
1, 931631, Control_c, 0, 64, 49
1, 931647, Note_on_c, 0, 64, 0
1, 931647, Poly_aftertouch_c, 0, 64, 0
1, 931649, Control_c, 0, 64, 34
1, 931668, Note_on_c, 0, 77, 0
1, 931668, Poly_aftertouch_c, 0, 77, 0
1, 931668, Control_c, 0, 64, 28
1, 931677, Note_on_c, 0, 65, 52
1, 931679, Note_on_c, 0, 63, 50
1, 931717, Note_on_c, 0, 63, 0
1, 931742, Control_c, 0, 64, 0
1, 931743, Note_on_c, 0, 70, 64
1, 931749, Note_on_c, 0, 65, 0
1, 931749, Note_on_c, 0, 62, 59
1, 931750, Note_on_c, 0, 74, 67
1, 931785, Note_on_c, 0, 62, 0
1, 931795, Note_on_c, 0, 70, 0
1, 931810, Note_on_c, 0, 77, 60
1, 931817, Note_on_c, 0, 74, 0
1, 931837, Note_on_c, 0, 60, 54
1, 931852, Note_on_c, 0, 77, 0
1, 931852, Poly_aftertouch_c, 0, 77, 0
1, 931866, Note_on_c, 0, 60, 0
1, 931866, Poly_aftertouch_c, 0, 60, 0
1, 931909, Note_on_c, 0, 66, 58
1, 931919, Note_on_c, 0, 58, 58
1, 931957, Note_on_c, 0, 58, 0
1, 931966, Note_on_c, 0, 70, 59
1, 931967, Note_on_c, 0, 66, 0
1, 931967, Poly_aftertouch_c, 0, 66, 0
1, 931972, Note_on_c, 0, 73, 60
1, 932039, Note_on_c, 0, 70, 0
1, 932046, Note_on_c, 0, 78, 67
1, 932051, Note_on_c, 0, 73, 0
1, 932071, Note_on_c, 0, 56, 47
1, 932072, Note_on_c, 0, 57, 20
1, 932072, Poly_aftertouch_c, 0, 57, 0
1, 932073, Note_on_c, 0, 57, 0
1, 932109, Note_on_c, 0, 56, 0
1, 932109, Poly_aftertouch_c, 0, 56, 0
1, 932114, Note_on_c, 0, 78, 0
1, 932122, Note_on_c, 0, 55, 54
1, 932130, Note_on_c, 0, 67, 62
1, 932154, Note_on_c, 0, 55, 0
1, 932201, Note_on_c, 0, 67, 0
1, 932201, Poly_aftertouch_c, 0, 67, 0
1, 932213, Note_on_c, 0, 70, 57
1, 932227, Note_on_c, 0, 46, 70
1, 932231, Note_on_c, 0, 74, 58
1, 932272, Note_on_c, 0, 79, 79
1, 932305, Note_on_c, 0, 39, 72
1, 932312, Note_on_c, 0, 46, 0
1, 932312, Poly_aftertouch_c, 0, 46, 0
1, 932382, Note_on_c, 0, 70, 0
1, 932382, Note_on_c, 0, 70, 10
1, 932394, Note_on_c, 0, 39, 0
1, 932410, Note_on_c, 0, 79, 0
1, 932498, Note_on_c, 0, 36, 96
1, 932506, Note_on_c, 0, 74, 0
1, 932509, Control_c, 0, 64, 77
1, 932528, Control_c, 0, 64, 127
1, 932530, Control_c, 0, 67, 8
1, 932539, Note_on_c, 0, 36, 0
1, 932544, Note_on_c, 0, 70, 0
1, 932704, Note_on_c, 0, 63, 42
1, 932715, Note_on_c, 0, 55, 68
1, 932746, Note_on_c, 0, 70, 66
1, 932749, Note_on_c, 0, 63, 0
1, 932757, Note_on_c, 0, 74, 69
1, 932777, Note_on_c, 0, 67, 96
1, 932800, Note_on_c, 0, 55, 0
1, 932810, Note_on_c, 0, 70, 0
1, 932819, Note_on_c, 0, 67, 0
1, 932819, Note_on_c, 0, 79, 72
1, 932819, Poly_aftertouch_c, 0, 67, 0
1, 932854, Note_on_c, 0, 74, 0
1, 932891, Note_on_c, 0, 79, 0
1, 932944, Note_on_c, 0, 65, 60
1, 933014, Note_on_c, 0, 65, 0
1, 933021, Note_on_c, 0, 74, 70
1, 933021, Note_on_c, 0, 71, 68
1, 933052, Control_c, 0, 64, 116
1, 933070, Control_c, 0, 64, 82
1, 933090, Control_c, 0, 64, 44
1, 933092, Control_c, 0, 67, 13
1, 933100, Note_on_c, 0, 71, 0
1, 933103, Note_on_c, 0, 79, 78
1, 933108, Control_c, 0, 64, 0
1, 933112, Note_on_c, 0, 65, 54
1, 933113, Note_on_c, 0, 74, 0
1, 933126, Control_c, 0, 67, 19
1, 933164, Control_c, 0, 67, 25
1, 933169, Note_on_c, 0, 65, 0
1, 933172, Note_on_c, 0, 67, 67
1, 933185, Note_on_c, 0, 79, 0
1, 933201, Control_c, 0, 67, 31
1, 933218, Control_c, 0, 67, 38
1, 933219, Note_on_c, 0, 64, 32
1, 933234, Note_on_c, 0, 72, 66
1, 933238, Control_c, 0, 67, 48
1, 933246, Note_on_c, 0, 63, 62
1, 933248, Note_on_c, 0, 75, 68
1, 933256, Control_c, 0, 67, 61
1, 933272, Note_on_c, 0, 64, 0
1, 933272, Poly_aftertouch_c, 0, 64, 0
1, 933275, Note_on_c, 0, 67, 0
1, 933275, Poly_aftertouch_c, 0, 67, 0
1, 933276, Control_c, 0, 67, 73
1, 933279, Note_on_c, 0, 63, 0
1, 933296, Control_c, 0, 67, 81
1, 933307, Note_on_c, 0, 79, 77
1, 933315, Note_on_c, 0, 72, 0
1, 933315, Poly_aftertouch_c, 0, 72, 0
1, 933321, Note_on_c, 0, 75, 0
1, 933321, Poly_aftertouch_c, 0, 75, 0
1, 933330, Note_on_c, 0, 62, 65
1, 933330, Control_c, 0, 67, 85
1, 933367, Note_on_c, 0, 62, 0
1, 933381, Note_on_c, 0, 79, 0
1, 933415, Note_on_c, 0, 61, 71
1, 933416, Note_on_c, 0, 68, 68
1, 933466, Note_on_c, 0, 68, 0
1, 933466, Poly_aftertouch_c, 0, 68, 0
1, 933478, Note_on_c, 0, 72, 71
1, 933480, Note_on_c, 0, 75, 74
1, 933486, Note_on_c, 0, 61, 0
1, 933486, Poly_aftertouch_c, 0, 61, 0
1, 933511, Note_on_c, 0, 58, 68
1, 933532, Note_on_c, 0, 58, 0
1, 933539, Note_on_c, 0, 72, 0
1, 933539, Poly_aftertouch_c, 0, 72, 0
1, 933553, Note_on_c, 0, 75, 0
1, 933553, Note_on_c, 0, 80, 67
1, 933553, Poly_aftertouch_c, 0, 75, 0
1, 933575, Control_c, 0, 67, 80
1, 933606, Note_on_c, 0, 57, 70
1, 933614, Note_on_c, 0, 80, 0
1, 933629, Control_c, 0, 67, 74
1, 933632, Note_on_c, 0, 69, 61
1, 933639, Note_on_c, 0, 57, 0
1, 933639, Poly_aftertouch_c, 0, 57, 0
1, 933668, Control_c, 0, 67, 67
1, 933684, Note_on_c, 0, 48, 56
1, 933698, Note_on_c, 0, 69, 0
1, 933698, Poly_aftertouch_c, 0, 69, 0
1, 933705, Note_on_c, 0, 75, 68
1, 933706, Control_c, 0, 67, 63
1, 933709, Note_on_c, 0, 72, 57
1, 933746, Note_on_c, 0, 72, 0
1, 933746, Note_on_c, 0, 48, 0
1, 933746, Poly_aftertouch_c, 0, 72, 0
1, 933758, Note_on_c, 0, 81, 82
1, 933759, Note_on_c, 0, 41, 70
1, 933762, Control_c, 0, 64, 12
1, 933776, Note_on_c, 0, 75, 0
1, 933776, Poly_aftertouch_c, 0, 75, 0
1, 933781, Control_c, 0, 64, 89
1, 933782, Control_c, 0, 67, 58
1, 933789, Note_on_c, 0, 41, 0
1, 933791, Note_on_c, 0, 43, 29
1, 933799, Control_c, 0, 64, 83
1, 933819, Control_c, 0, 64, 62
1, 933837, Control_c, 0, 64, 0
1, 933838, Control_c, 0, 67, 52
1, 933843, Note_on_c, 0, 43, 0
1, 933874, Control_c, 0, 67, 45
1, 933893, Control_c, 0, 67, 41
1, 933897, Note_on_c, 0, 81, 0
1, 933897, Poly_aftertouch_c, 0, 81, 0
1, 933929, Control_c, 0, 67, 36
1, 933936, Note_on_c, 0, 50, 69
1, 933954, Note_on_c, 0, 69, 60
1, 933974, Note_on_c, 0, 50, 0
1, 933987, Control_c, 0, 67, 31
1, 933992, Note_on_c, 0, 69, 0
1, 933992, Poly_aftertouch_c, 0, 69, 0
1, 934030, Note_on_c, 0, 74, 63
1, 934043, Note_on_c, 0, 65, 67
1, 934046, Note_on_c, 0, 57, 31
1, 934055, Note_on_c, 0, 59, 48
1, 934060, Note_on_c, 0, 81, 71
1, 934064, Note_on_c, 0, 74, 0
1, 934076, Note_on_c, 0, 65, 0
1, 934087, Note_on_c, 0, 59, 0
1, 934087, Poly_aftertouch_c, 0, 59, 0
1, 934089, Note_on_c, 0, 81, 0
1, 934089, Poly_aftertouch_c, 0, 81, 0
1, 934163, Note_on_c, 0, 74, 71
1, 934187, Note_on_c, 0, 57, 0
1, 934187, Poly_aftertouch_c, 0, 57, 0
1, 934211, Control_c, 0, 67, 27
1, 934221, Note_on_c, 0, 74, 0
1, 934231, Note_on_c, 0, 81, 77
1, 934255, Note_on_c, 0, 60, 59
1, 934255, Note_on_c, 0, 66, 61
1, 934269, Note_on_c, 0, 81, 0
1, 934269, Poly_aftertouch_c, 0, 81, 0
1, 934285, Control_c, 0, 64, 33
1, 934292, Note_on_c, 0, 66, 0
1, 934292, Note_on_c, 0, 60, 0
1, 934292, Poly_aftertouch_c, 0, 60, 0
1, 934292, Poly_aftertouch_c, 0, 66, 0
1, 934304, Control_c, 0, 64, 45
1, 934306, Note_on_c, 0, 86, 74
1, 934306, Control_c, 0, 67, 22
1, 934323, Control_c, 0, 64, 0
1, 934349, Note_on_c, 0, 86, 0
1, 934349, Poly_aftertouch_c, 0, 86, 0
1, 934362, Note_on_c, 0, 55, 74
1, 934398, Control_c, 0, 67, 17
1, 934399, Note_on_c, 0, 55, 0
1, 934406, Note_on_c, 0, 81, 74
1, 934476, Note_on_c, 0, 81, 0
1, 934476, Poly_aftertouch_c, 0, 81, 0
1, 934478, Note_on_c, 0, 86, 86
1, 934505, Note_on_c, 0, 64, 65
1, 934505, Note_on_c, 0, 70, 75
1, 934510, Control_c, 0, 64, 50
1, 934514, Note_on_c, 0, 62, 44
1, 934523, Note_on_c, 0, 86, 0
1, 934523, Poly_aftertouch_c, 0, 86, 0
1, 934528, Control_c, 0, 64, 44
1, 934532, Note_on_c, 0, 70, 0
1, 934539, Note_on_c, 0, 64, 0
1, 934539, Poly_aftertouch_c, 0, 64, 0
1, 934546, Control_c, 0, 64, 0
1, 934561, Note_on_c, 0, 62, 0
1, 934562, Note_on_c, 0, 93, 79
1, 934619, Note_on_c, 0, 93, 0
1, 934657, Note_on_c, 0, 86, 74
1, 934711, Note_on_c, 0, 86, 0
1, 934711, Poly_aftertouch_c, 0, 86, 0
1, 934722, Note_on_c, 0, 93, 86
1, 934734, Control_c, 0, 64, 16
1, 934746, Note_on_c, 0, 71, 55
1, 934747, Note_on_c, 0, 65, 50
1, 934753, Control_c, 0, 64, 25
1, 934764, Note_on_c, 0, 93, 0
1, 934772, Control_c, 0, 64, 0
1, 934775, Note_on_c, 0, 71, 0
1, 934781, Note_on_c, 0, 65, 0
1, 934800, Note_on_c, 0, 98, 83
1, 934839, Note_on_c, 0, 60, 66
1, 934858, Note_on_c, 0, 98, 0
1, 934868, Note_on_c, 0, 60, 0
1, 934868, Poly_aftertouch_c, 0, 60, 0
1, 934888, Note_on_c, 0, 93, 79
1, 934961, Note_on_c, 0, 98, 91
1, 934964, Note_on_c, 0, 93, 0
1, 934973, Note_on_c, 0, 75, 83
1, 934977, Note_on_c, 0, 69, 62
1, 934977, Control_c, 0, 64, 78
1, 934989, Note_on_c, 0, 67, 51
1, 934995, Control_c, 0, 64, 122
1, 935006, Note_on_c, 0, 75, 0
1, 935006, Poly_aftertouch_c, 0, 75, 0
1, 935014, Control_c, 0, 64, 105
1, 935027, Note_on_c, 0, 69, 0
1, 935027, Poly_aftertouch_c, 0, 69, 0
1, 935034, Control_c, 0, 64, 63
1, 935048, Note_on_c, 0, 105, 92
1, 935049, Note_on_c, 0, 98, 0
1, 935052, Control_c, 0, 64, 0
1, 935100, Note_on_c, 0, 93, 80
1, 935108, Note_on_c, 0, 67, 0
1, 935108, Poly_aftertouch_c, 0, 67, 0
1, 935113, Note_on_c, 0, 105, 0
1, 935158, Note_on_c, 0, 93, 0
1, 935207, Note_on_c, 0, 96, 95
1, 935220, Note_on_c, 0, 76, 67
1, 935224, Note_on_c, 0, 70, 69
1, 935256, Note_on_c, 0, 76, 0
1, 935256, Poly_aftertouch_c, 0, 76, 0
1, 935268, Note_on_c, 0, 70, 0
1, 935295, Note_on_c, 0, 91, 75
1, 935306, Note_on_c, 0, 96, 0
1, 935356, Note_on_c, 0, 84, 69
1, 935357, Note_on_c, 0, 91, 0
1, 935385, Note_on_c, 0, 84, 0
1, 935451, Note_on_c, 0, 89, 95
1, 935458, Note_on_c, 0, 75, 80
1, 935461, Note_on_c, 0, 81, 77
1, 935464, Control_c, 0, 64, 86
1, 935467, Note_on_c, 0, 65, 69
1, 935482, Note_on_c, 0, 81, 0
1, 935482, Poly_aftertouch_c, 0, 81, 0
1, 935483, Note_on_c, 0, 69, 56
1, 935483, Control_c, 0, 64, 127
1, 935485, Note_on_c, 0, 75, 0
1, 935485, Poly_aftertouch_c, 0, 75, 0
1, 935491, Note_on_c, 0, 89, 0
1, 935491, Poly_aftertouch_c, 0, 89, 0
1, 935499, Note_on_c, 0, 65, 0
1, 935500, Control_c, 0, 64, 97
1, 935508, Note_on_c, 0, 69, 0
1, 935508, Poly_aftertouch_c, 0, 69, 0
1, 935521, Control_c, 0, 64, 40
1, 935538, Control_c, 0, 64, 0
1, 935659, Note_on_c, 0, 86, 14
1, 935696, Note_on_c, 0, 86, 0
1, 935696, Poly_aftertouch_c, 0, 86, 0
1, 935726, Control_c, 0, 67, 22
1, 935733, Note_on_c, 0, 82, 89
1, 935743, Note_on_c, 0, 70, 74
1, 935743, Note_on_c, 0, 74, 75
1, 935748, Note_on_c, 0, 58, 74
1, 935752, Note_on_c, 0, 65, 65
1, 935764, Control_c, 0, 64, 72
1, 935771, Note_on_c, 0, 74, 0
1, 935771, Note_on_c, 0, 70, 0
1, 935782, Note_on_c, 0, 58, 0
1, 935782, Control_c, 0, 64, 77
1, 935783, Control_c, 0, 67, 26
1, 935786, Note_on_c, 0, 65, 0
1, 935787, Note_on_c, 0, 82, 0
1, 935800, Control_c, 0, 64, 0
1, 936023, Note_on_c, 0, 77, 82
1, 936027, Note_on_c, 0, 50, 68
1, 936033, Note_on_c, 0, 69, 67
1, 936036, Note_on_c, 0, 62, 59
1, 936036, Note_on_c, 0, 65, 68
1, 936039, Note_on_c, 0, 57, 60
1, 936059, Note_on_c, 0, 77, 0
1, 936059, Poly_aftertouch_c, 0, 77, 0
1, 936062, Note_on_c, 0, 65, 0
1, 936064, Note_on_c, 0, 62, 0
1, 936064, Note_on_c, 0, 69, 0
1, 936064, Poly_aftertouch_c, 0, 69, 0
1, 936066, Note_on_c, 0, 50, 0
1, 936076, Note_on_c, 0, 57, 0
1, 936076, Poly_aftertouch_c, 0, 57, 0
1, 936341, Note_on_c, 0, 70, 69
1, 936343, Note_on_c, 0, 62, 58
1, 936346, Note_on_c, 0, 43, 58
1, 936347, Note_on_c, 0, 55, 57
1, 936348, Note_on_c, 0, 58, 57
1, 936369, Control_c, 0, 67, 31
1, 936371, Note_on_c, 0, 50, 46
1, 936379, Note_on_c, 0, 70, 0
1, 936380, Control_c, 0, 67, 36
1, 936381, Note_on_c, 0, 55, 0
1, 936383, Note_on_c, 0, 43, 0
1, 936386, Note_on_c, 0, 62, 0
1, 936388, Note_on_c, 0, 58, 0
1, 936399, Control_c, 0, 67, 41
1, 936400, Note_on_c, 0, 50, 0
1, 936692, Note_on_c, 0, 65, 53
1, 936693, Note_on_c, 0, 59, 53
1, 936696, Note_on_c, 0, 44, 49
1, 936697, Note_on_c, 0, 53, 46
1, 936702, Note_on_c, 0, 51, 41
1, 936740, Note_on_c, 0, 59, 0
1, 936740, Poly_aftertouch_c, 0, 59, 0
1, 936745, Note_on_c, 0, 65, 0
1, 936751, Note_on_c, 0, 51, 0
1, 936751, Poly_aftertouch_c, 0, 51, 0
1, 936755, Note_on_c, 0, 44, 0
1, 936755, Poly_aftertouch_c, 0, 44, 0
1, 936762, Note_on_c, 0, 53, 0
1, 936762, Poly_aftertouch_c, 0, 53, 0
1, 936810, Control_c, 0, 64, 20
1, 936829, Control_c, 0, 64, 43
1, 936849, Control_c, 0, 64, 54
1, 936867, Control_c, 0, 64, 65
1, 936885, Control_c, 0, 64, 69
1, 936903, Control_c, 0, 67, 47
1, 936941, Control_c, 0, 67, 51
1, 937016, Control_c, 0, 64, 68
1, 937126, Control_c, 0, 64, 71
1, 937133, Note_on_c, 0, 58, 51
1, 937145, Control_c, 0, 64, 79
1, 937147, Note_on_c, 0, 34, 41
1, 937151, Note_on_c, 0, 41, 38
1, 937153, Note_on_c, 0, 46, 32
1, 937155, Note_on_c, 0, 50, 45
1, 937166, Control_c, 0, 64, 89
1, 937168, Control_c, 0, 67, 47
1, 937184, Control_c, 0, 64, 105
1, 937199, Note_on_c, 0, 58, 0
1, 937201, Note_on_c, 0, 50, 0
1, 937201, Control_c, 0, 64, 120
1, 937217, Note_on_c, 0, 41, 0
1, 937221, Control_c, 0, 64, 127
1, 937221, Control_c, 0, 67, 41
1, 937227, Note_on_c, 0, 34, 0
1, 937249, Note_on_c, 0, 46, 0
1, 937249, Poly_aftertouch_c, 0, 46, 0
1, 937258, Control_c, 0, 67, 37
1, 937352, Control_c, 0, 64, 120
1, 937370, Control_c, 0, 64, 105
1, 937390, Control_c, 0, 64, 83
1, 937409, Control_c, 0, 64, 65
1, 937427, Control_c, 0, 64, 58
1, 937446, Control_c, 0, 64, 55
1, 937464, Control_c, 0, 64, 50
1, 937483, Control_c, 0, 64, 40
1, 937501, Control_c, 0, 64, 29
1, 937521, Control_c, 0, 64, 20
1, 937688, Control_c, 0, 64, 25
1, 937726, Control_c, 0, 67, 33
1, 937746, Control_c, 0, 64, 29
1, 937763, Control_c, 0, 67, 28
1, 937801, Control_c, 0, 67, 24
1, 937839, Control_c, 0, 67, 18
1, 937857, Control_c, 0, 64, 35
1, 937859, Control_c, 0, 67, 13
1, 937876, Control_c, 0, 64, 51
1, 937896, Control_c, 0, 64, 87
1, 937898, Control_c, 0, 67, 0
1, 937913, Control_c, 0, 64, 127
1, 937914, Note_on_c, 0, 86, 101
1, 937916, Note_on_c, 0, 62, 72
1, 937918, Note_on_c, 0, 50, 74
1, 937926, Note_on_c, 0, 74, 77
1, 937946, Note_on_c, 0, 50, 0
1, 937947, Note_on_c, 0, 74, 0
1, 937949, Note_on_c, 0, 62, 0
1, 937953, Note_on_c, 0, 86, 0
1, 937953, Poly_aftertouch_c, 0, 86, 0
1, 938099, Poly_aftertouch_c, 0, 74, 0
1, 938496, Note_on_c, 0, 62, 83
1, 938510, Note_on_c, 0, 50, 64
1, 938512, Note_on_c, 0, 38, 90
1, 938513, Note_on_c, 0, 26, 88
1, 938534, Note_on_c, 0, 50, 0
1, 938542, Note_on_c, 0, 26, 0
1, 938542, Note_on_c, 0, 38, 0
1, 938542, Poly_aftertouch_c, 0, 38, 0
1, 938547, Note_on_c, 0, 62, 0
1, 938643, Control_c, 0, 64, 104
1, 938661, Control_c, 0, 64, 71
1, 938680, Control_c, 0, 64, 39
1, 938699, Control_c, 0, 64, 0
1, 938806, Note_on_c, 0, 60, 63
1, 938814, Note_on_c, 0, 48, 52
1, 938864, Note_on_c, 0, 60, 0
1, 938864, Poly_aftertouch_c, 0, 60, 0
1, 938871, Note_on_c, 0, 62, 63
1, 938874, Note_on_c, 0, 48, 0
1, 938883, Note_on_c, 0, 50, 53
1, 938930, Note_on_c, 0, 50, 0
1, 938937, Note_on_c, 0, 51, 56
1, 938948, Note_on_c, 0, 63, 59
1, 938980, Note_on_c, 0, 62, 0
1, 939003, Note_on_c, 0, 51, 0
1, 939003, Poly_aftertouch_c, 0, 51, 0
1, 939019, Note_on_c, 0, 63, 0
1, 939023, Note_on_c, 0, 65, 76
1, 939031, Note_on_c, 0, 58, 71
1, 939039, Note_on_c, 0, 53, 62
1, 939050, Note_on_c, 0, 46, 68
1, 939062, Note_on_c, 0, 65, 0
1, 939064, Note_on_c, 0, 58, 0
1, 939075, Note_on_c, 0, 53, 0
1, 939075, Poly_aftertouch_c, 0, 53, 0
1, 939083, Note_on_c, 0, 46, 0
1, 939083, Poly_aftertouch_c, 0, 46, 0
1, 939317, Control_c, 0, 64, 57
1, 939319, Note_on_c, 0, 67, 77
1, 939328, Note_on_c, 0, 55, 55
1, 939333, Control_c, 0, 64, 88
1, 939339, Note_on_c, 0, 51, 66
1, 939340, Note_on_c, 0, 39, 67
1, 939344, Note_on_c, 0, 67, 0
1, 939344, Poly_aftertouch_c, 0, 67, 0
1, 939351, Control_c, 0, 64, 67
1, 939356, Note_on_c, 0, 58, 18
1, 939364, Note_on_c, 0, 55, 0
1, 939369, Control_c, 0, 64, 0
1, 939374, Note_on_c, 0, 39, 0
1, 939374, Note_on_c, 0, 51, 0
1, 939374, Poly_aftertouch_c, 0, 51, 0
1, 939423, Note_on_c, 0, 58, 0
1, 939596, Control_c, 0, 64, 59
1, 939605, Note_on_c, 0, 79, 93
1, 939615, Note_on_c, 0, 67, 80
1, 939615, Control_c, 0, 64, 127
1, 939621, Note_on_c, 0, 55, 77
1, 939636, Note_on_c, 0, 79, 0
1, 939642, Note_on_c, 0, 67, 0
1, 939642, Poly_aftertouch_c, 0, 67, 0
1, 939648, Note_on_c, 0, 55, 0
1, 939888, Note_on_c, 0, 69, 72
1, 939895, Note_on_c, 0, 66, 65
1, 939898, Note_on_c, 0, 57, 64
1, 939905, Note_on_c, 0, 50, 57
1, 939912, Note_on_c, 0, 62, 43
1, 939920, Note_on_c, 0, 69, 0
1, 939920, Poly_aftertouch_c, 0, 69, 0
1, 939922, Note_on_c, 0, 57, 0
1, 939922, Poly_aftertouch_c, 0, 57, 0
1, 939929, Note_on_c, 0, 66, 0
1, 939929, Poly_aftertouch_c, 0, 66, 0
1, 939938, Note_on_c, 0, 50, 0
1, 939953, Note_on_c, 0, 62, 0
1, 939988, Control_c, 0, 64, 104
1, 940008, Control_c, 0, 64, 64
1, 940027, Control_c, 0, 64, 0
1, 940159, Note_on_c, 0, 58, 67
1, 940159, Note_on_c, 0, 70, 78
1, 940170, Note_on_c, 0, 43, 65
1, 940171, Note_on_c, 0, 50, 57
1, 940171, Note_on_c, 0, 55, 67
1, 940175, Control_c, 0, 64, 98
1, 940186, Note_on_c, 0, 67, 37
1, 940191, Note_on_c, 0, 58, 0
1, 940192, Control_c, 0, 64, 127
1, 940203, Note_on_c, 0, 70, 0
1, 940204, Note_on_c, 0, 50, 0
1, 940207, Note_on_c, 0, 55, 0
1, 940209, Note_on_c, 0, 43, 0
1, 940234, Note_on_c, 0, 67, 0
1, 940234, Poly_aftertouch_c, 0, 67, 0
1, 940269, Control_c, 0, 64, 123
1, 940290, Control_c, 0, 64, 85
1, 940306, Control_c, 0, 64, 37
1, 940325, Control_c, 0, 64, 0
1, 940494, Note_on_c, 0, 86, 96
1, 940497, Note_on_c, 0, 74, 86
1, 940502, Note_on_c, 0, 50, 76
1, 940502, Note_on_c, 0, 62, 80
1, 940520, Note_on_c, 0, 74, 0
1, 940528, Note_on_c, 0, 62, 0
1, 940531, Control_c, 0, 64, 127
1, 940537, Note_on_c, 0, 50, 0
1, 940545, Note_on_c, 0, 86, 0
1, 940545, Poly_aftertouch_c, 0, 86, 0
1, 941056, Note_on_c, 0, 50, 79
1, 941058, Note_on_c, 0, 38, 82
1, 941060, Note_on_c, 0, 26, 76
1, 941061, Note_on_c, 0, 62, 82
1, 941087, Note_on_c, 0, 50, 0
1, 941098, Note_on_c, 0, 38, 0
1, 941098, Poly_aftertouch_c, 0, 38, 0
1, 941100, Note_on_c, 0, 26, 0
1, 941204, Control_c, 0, 64, 116
1, 941224, Control_c, 0, 64, 94
1, 941241, Control_c, 0, 64, 68
1, 941254, Note_on_c, 0, 62, 0
1, 941255, Poly_aftertouch_c, 0, 62, 0
1, 941259, Control_c, 0, 64, 31
1, 941280, Control_c, 0, 64, 0
1, 941327, Note_on_c, 0, 55, 63
1, 941328, Note_on_c, 0, 43, 49
1, 941370, Note_on_c, 0, 55, 0
1, 941381, Note_on_c, 0, 43, 0
1, 941388, Note_on_c, 0, 45, 57
1, 941396, Note_on_c, 0, 57, 61
1, 941444, Note_on_c, 0, 45, 0
1, 941461, Note_on_c, 0, 46, 54
1, 941469, Note_on_c, 0, 58, 59
1, 941480, Note_on_c, 0, 57, 0
1, 941480, Poly_aftertouch_c, 0, 57, 0
1, 941511, Note_on_c, 0, 46, 0
1, 941511, Poly_aftertouch_c, 0, 46, 0
1, 941529, Note_on_c, 0, 58, 0
1, 941559, Note_on_c, 0, 60, 66
1, 941575, Note_on_c, 0, 53, 61
1, 941577, Note_on_c, 0, 41, 64
1, 941581, Note_on_c, 0, 48, 47
1, 941585, Note_on_c, 0, 57, 61
1, 941601, Note_on_c, 0, 60, 0
1, 941601, Poly_aftertouch_c, 0, 60, 0
1, 941608, Note_on_c, 0, 53, 0
1, 941608, Poly_aftertouch_c, 0, 53, 0
1, 941610, Note_on_c, 0, 57, 0
1, 941610, Poly_aftertouch_c, 0, 57, 0
1, 941612, Note_on_c, 0, 41, 0
1, 941618, Note_on_c, 0, 48, 0
1, 941840, Control_c, 0, 64, 75
1, 941857, Note_on_c, 0, 62, 68
1, 941859, Control_c, 0, 64, 127
1, 941860, Note_on_c, 0, 46, 61
1, 941860, Control_c, 0, 67, 9
1, 941863, Note_on_c, 0, 34, 61
1, 941870, Note_on_c, 0, 50, 38
1, 941890, Note_on_c, 0, 62, 0
1, 941895, Note_on_c, 0, 46, 0
1, 941895, Poly_aftertouch_c, 0, 46, 0
1, 941899, Note_on_c, 0, 34, 0
1, 941916, Note_on_c, 0, 50, 0
1, 942008, Control_c, 0, 64, 117
1, 942028, Control_c, 0, 64, 84
1, 942046, Control_c, 0, 64, 49
1, 942064, Control_c, 0, 64, 0
1, 942157, Control_c, 0, 64, 73
1, 942158, Note_on_c, 0, 67, 87
1, 942169, Note_on_c, 0, 55, 74
1, 942176, Control_c, 0, 64, 115
1, 942195, Control_c, 0, 64, 127
1, 942196, Control_c, 0, 67, 0
1, 942202, Note_on_c, 0, 55, 0
1, 942503, Note_on_c, 0, 64, 60
1, 942506, Note_on_c, 0, 45, 57
1, 942514, Note_on_c, 0, 52, 41
1, 942514, Note_on_c, 0, 61, 41
1, 942523, Note_on_c, 0, 57, 29
1, 942529, Control_c, 0, 64, 115
1, 942531, Note_on_c, 0, 67, 0
1, 942531, Poly_aftertouch_c, 0, 67, 0
1, 942543, Note_on_c, 0, 45, 0
1, 942550, Control_c, 0, 64, 75
1, 942554, Note_on_c, 0, 52, 0
1, 942558, Note_on_c, 0, 57, 0
1, 942558, Poly_aftertouch_c, 0, 57, 0
1, 942563, Note_on_c, 0, 61, 0
1, 942563, Poly_aftertouch_c, 0, 61, 0
1, 942568, Control_c, 0, 64, 51
1, 942588, Control_c, 0, 64, 56
1, 942606, Control_c, 0, 64, 66
1, 942626, Control_c, 0, 64, 75
1, 942635, Note_on_c, 0, 64, 0
1, 942635, Poly_aftertouch_c, 0, 64, 0
1, 942644, Control_c, 0, 64, 83
1, 942662, Control_c, 0, 64, 92
1, 942681, Control_c, 0, 64, 101
1, 942719, Control_c, 0, 64, 79
1, 942737, Control_c, 0, 64, 46
1, 942756, Control_c, 0, 64, 0
1, 942756, Control_c, 0, 67, 8
1, 942778, Control_c, 0, 64, 19
1, 942783, Note_on_c, 0, 38, 56
1, 942785, Note_on_c, 0, 54, 53
1, 942786, Note_on_c, 0, 50, 56
1, 942788, Note_on_c, 0, 66, 66
1, 942797, Control_c, 0, 64, 54
1, 942799, Note_on_c, 0, 45, 42
1, 942812, Control_c, 0, 64, 79
1, 942813, Note_on_c, 0, 54, 0
1, 942813, Poly_aftertouch_c, 0, 54, 0
1, 942818, Note_on_c, 0, 66, 0
1, 942818, Poly_aftertouch_c, 0, 66, 0
1, 942819, Note_on_c, 0, 38, 0
1, 942819, Poly_aftertouch_c, 0, 38, 0
1, 942824, Note_on_c, 0, 50, 0
1, 942831, Control_c, 0, 64, 102
1, 942836, Note_on_c, 0, 45, 0
1, 942850, Control_c, 0, 64, 127
1, 942875, Poly_aftertouch_c, 0, 62, 0
1, 943094, Control_c, 0, 64, 106
1, 943112, Control_c, 0, 64, 73
1, 943131, Control_c, 0, 64, 38
1, 943149, Control_c, 0, 64, 19
1, 943158, Note_on_c, 0, 74, 75
1, 943163, Note_on_c, 0, 62, 57
1, 943168, Note_on_c, 0, 50, 50
1, 943168, Control_c, 0, 64, 45
1, 943186, Control_c, 0, 64, 72
1, 943196, Note_on_c, 0, 62, 0
1, 943204, Note_on_c, 0, 50, 0
1, 943204, Control_c, 0, 64, 94
1, 943207, Control_c, 0, 67, 0
1, 943223, Control_c, 0, 64, 121
1, 943243, Control_c, 0, 64, 127
1, 943288, Poly_aftertouch_c, 0, 68, 127
1, 943289, Note_on_c, 0, 74, 0
1, 943337, Poly_aftertouch_c, 0, 68, 0
1, 943888, Note_on_c, 0, 38, 49
1, 943904, Note_on_c, 0, 26, 47
1, 943952, Note_on_c, 0, 26, 0
1, 943958, Note_on_c, 0, 62, 55
1, 943968, Note_on_c, 0, 38, 0
1, 943968, Note_on_c, 0, 50, 48
1, 943968, Poly_aftertouch_c, 0, 38, 0
1, 944005, Note_on_c, 0, 50, 0
1, 944032, Note_on_c, 0, 62, 0
1, 944381, Note_on_c, 0, 51, 82
1, 944458, Note_on_c, 0, 66, 88
1, 944487, Note_on_c, 0, 63, 55
1, 944493, Note_on_c, 0, 54, 55
1, 944504, Note_on_c, 0, 51, 0
1, 944504, Poly_aftertouch_c, 0, 51, 0
1, 944514, Control_c, 0, 64, 122
1, 944532, Control_c, 0, 64, 110
1, 944542, Note_on_c, 0, 50, 61
1, 944550, Control_c, 0, 64, 97
1, 944570, Control_c, 0, 64, 84
1, 944586, Note_on_c, 0, 50, 0
1, 944589, Control_c, 0, 64, 73
1, 944609, Control_c, 0, 64, 66
1, 944626, Control_c, 0, 64, 61
1, 944634, Note_on_c, 0, 49, 65
1, 944646, Control_c, 0, 64, 56
1, 944663, Control_c, 0, 64, 49
1, 944676, Note_on_c, 0, 49, 0
1, 944680, Control_c, 0, 64, 37
1, 944701, Control_c, 0, 64, 18
1, 944715, Note_on_c, 0, 48, 66
1, 944720, Control_c, 0, 64, 11
1, 944753, Note_on_c, 0, 48, 0
1, 944780, Note_on_c, 0, 47, 70
1, 944878, Note_on_c, 0, 47, 0
1, 944882, Note_on_c, 0, 46, 70
1, 944954, Note_on_c, 0, 42, 62
1, 944959, Note_on_c, 0, 46, 0
1, 944959, Poly_aftertouch_c, 0, 46, 0
1, 945037, Note_on_c, 0, 42, 0
1, 945037, Poly_aftertouch_c, 0, 42, 0
1, 945039, Note_on_c, 0, 39, 55
1, 945054, Note_on_c, 0, 54, 0
1, 945054, Poly_aftertouch_c, 0, 54, 0
1, 945075, Note_on_c, 0, 39, 0
1, 945113, Control_c, 0, 64, 0
1, 945143, Note_on_c, 0, 38, 51
1, 945146, Note_on_c, 0, 40, 51
1, 945185, Note_on_c, 0, 38, 0
1, 945185, Poly_aftertouch_c, 0, 38, 0
1, 945186, Note_on_c, 0, 40, 0
1, 945186, Poly_aftertouch_c, 0, 40, 0
1, 945242, Note_on_c, 0, 37, 67
1, 945242, Note_on_c, 0, 58, 78
1, 945328, Note_on_c, 0, 37, 0
1, 945328, Poly_aftertouch_c, 0, 37, 0
1, 945344, Note_on_c, 0, 36, 63
1, 945395, Note_on_c, 0, 36, 0
1, 945425, Note_on_c, 0, 35, 67
1, 945513, Note_on_c, 0, 63, 0
1, 945520, Note_on_c, 0, 57, 80
1, 945522, Note_on_c, 0, 66, 0
1, 945522, Poly_aftertouch_c, 0, 66, 0
1, 945523, Control_c, 0, 67, 8
1, 945532, Note_on_c, 0, 35, 0
1, 945547, Note_on_c, 0, 34, 65
1, 945579, Note_on_c, 0, 58, 0
1, 945634, Note_on_c, 0, 34, 0
1, 945639, Note_on_c, 0, 30, 56
1, 945696, Note_on_c, 0, 27, 66
1, 945700, Note_on_c, 0, 30, 0
1, 945748, Control_c, 0, 67, 12
1, 945795, Note_on_c, 0, 56, 74
1, 945815, Note_on_c, 0, 27, 0
1, 945816, Note_on_c, 0, 37, 50
1, 945822, Control_c, 0, 67, 16
1, 945833, Note_on_c, 0, 57, 0
1, 945833, Poly_aftertouch_c, 0, 57, 0
1, 945861, Note_on_c, 0, 37, 0
1, 945861, Poly_aftertouch_c, 0, 37, 0
1, 945886, Note_on_c, 0, 36, 56
1, 945897, Control_c, 0, 67, 20
1, 945940, Note_on_c, 0, 36, 0
1, 945953, Control_c, 0, 67, 24
1, 945987, Note_on_c, 0, 35, 53
1, 945991, Control_c, 0, 67, 29
1, 946047, Control_c, 0, 67, 34
1, 946065, Note_on_c, 0, 54, 71
1, 946084, Control_c, 0, 67, 41
1, 946088, Note_on_c, 0, 35, 0
1, 946096, Note_on_c, 0, 56, 0
1, 946096, Poly_aftertouch_c, 0, 56, 0
1, 946097, Note_on_c, 0, 34, 59
1, 946122, Control_c, 0, 67, 45
1, 946159, Control_c, 0, 67, 49
1, 946180, Note_on_c, 0, 34, 0
1, 946191, Note_on_c, 0, 30, 49
1, 946195, Control_c, 0, 67, 56
1, 946235, Note_on_c, 0, 30, 0
1, 946243, Note_on_c, 0, 27, 55
1, 946252, Control_c, 0, 67, 61
1, 946290, Control_c, 0, 67, 68
1, 946328, Control_c, 0, 67, 72
1, 946361, Note_on_c, 0, 51, 65
1, 946369, Note_on_c, 0, 27, 0
1, 946375, Note_on_c, 0, 54, 0
1, 946375, Note_on_c, 0, 37, 46
1, 946375, Poly_aftertouch_c, 0, 54, 0
1, 946382, Control_c, 0, 67, 78
1, 946402, Control_c, 0, 67, 82
1, 946418, Note_on_c, 0, 37, 0
1, 946418, Poly_aftertouch_c, 0, 37, 0
1, 946419, Control_c, 0, 67, 86
1, 946457, Control_c, 0, 67, 93
1, 946464, Note_on_c, 0, 36, 43
1, 946495, Control_c, 0, 67, 99
1, 946508, Note_on_c, 0, 36, 0
1, 946534, Control_c, 0, 67, 105
1, 946544, Note_on_c, 0, 35, 49
1, 946571, Control_c, 0, 67, 110
1, 946627, Control_c, 0, 67, 115
1, 946631, Note_on_c, 0, 35, 0
1, 946650, Note_on_c, 0, 34, 56
1, 946658, Note_on_c, 0, 51, 0
1, 946658, Note_on_c, 0, 46, 62
1, 946658, Poly_aftertouch_c, 0, 51, 0
1, 946682, Control_c, 0, 67, 119
1, 946722, Control_c, 0, 67, 124
1, 946727, Note_on_c, 0, 34, 0
1, 946740, Note_on_c, 0, 30, 48
1, 946796, Note_on_c, 0, 30, 0
1, 946801, Note_on_c, 0, 27, 50
1, 946924, Note_on_c, 0, 37, 58
1, 946935, Note_on_c, 0, 27, 0
1, 946961, Note_on_c, 0, 37, 0
1, 946961, Poly_aftertouch_c, 0, 37, 0
1, 947081, Note_on_c, 0, 46, 0
1, 947081, Poly_aftertouch_c, 0, 46, 0
1, 947085, Note_on_c, 0, 45, 55
1, 947218, Note_on_c, 0, 45, 0
1, 947237, Note_on_c, 0, 36, 51
1, 947252, Note_on_c, 0, 44, 50
1, 947274, Note_on_c, 0, 36, 0
1, 947366, Note_on_c, 0, 44, 0
1, 947366, Poly_aftertouch_c, 0, 44, 0
1, 947408, Note_on_c, 0, 43, 48
1, 947559, Note_on_c, 0, 43, 0
1, 947585, Note_on_c, 0, 42, 45
1, 947588, Note_on_c, 0, 34, 46
1, 947628, Note_on_c, 0, 34, 0
1, 947756, Note_on_c, 0, 42, 0
1, 947756, Poly_aftertouch_c, 0, 42, 0
1, 947765, Note_on_c, 0, 39, 33
1, 947958, Note_on_c, 0, 30, 47
1, 948009, Note_on_c, 0, 30, 0
1, 948013, Note_on_c, 0, 39, 0
1, 948471, Note_on_c, 0, 27, 47
1, 948516, Note_on_c, 0, 27, 0
1, 949113, Control_c, 0, 67, 119
1, 949132, Control_c, 0, 67, 115
1, 949151, Control_c, 0, 67, 111
1, 949163, Note_on_c, 0, 66, 56
1, 949168, Note_on_c, 0, 45, 43
1, 949175, Note_on_c, 0, 57, 46
1, 949186, Note_on_c, 0, 62, 25
1, 949187, Control_c, 0, 67, 104
1, 949201, Note_on_c, 0, 66, 0
1, 949201, Poly_aftertouch_c, 0, 66, 0
1, 949206, Note_on_c, 0, 54, 36
1, 949208, Note_on_c, 0, 57, 0
1, 949208, Poly_aftertouch_c, 0, 57, 0
1, 949208, Control_c, 0, 67, 100
1, 949210, Note_on_c, 0, 45, 0
1, 949226, Control_c, 0, 67, 96
1, 949242, Note_on_c, 0, 54, 0
1, 949242, Poly_aftertouch_c, 0, 54, 0
1, 949245, Note_on_c, 0, 62, 0
1, 949245, Control_c, 0, 67, 92
1, 949283, Control_c, 0, 67, 86
1, 949320, Control_c, 0, 67, 82
1, 949358, Control_c, 0, 67, 78
1, 949394, Control_c, 0, 67, 74
1, 949399, Note_on_c, 0, 67, 63
1, 949407, Note_on_c, 0, 58, 53
1, 949417, Note_on_c, 0, 55, 39
1, 949424, Note_on_c, 0, 64, 29
1, 949430, Control_c, 0, 67, 69
1, 949437, Note_on_c, 0, 58, 0
1, 949437, Note_on_c, 0, 67, 0
1, 949437, Note_on_c, 0, 46, 15
1, 949437, Poly_aftertouch_c, 0, 67, 0
1, 949459, Note_on_c, 0, 55, 0
1, 949468, Control_c, 0, 67, 64
1, 949492, Note_on_c, 0, 69, 72
1, 949500, Note_on_c, 0, 66, 62
1, 949504, Note_on_c, 0, 46, 0
1, 949504, Note_on_c, 0, 57, 61
1, 949504, Poly_aftertouch_c, 0, 46, 0
1, 949504, Control_c, 0, 67, 58
1, 949506, Note_on_c, 0, 45, 64
1, 949519, Poly_aftertouch_c, 0, 50, 127
1, 949520, Note_on_c, 0, 54, 56
1, 949524, Note_on_c, 0, 64, 0
1, 949524, Poly_aftertouch_c, 0, 64, 0
1, 949529, Note_on_c, 0, 57, 0
1, 949529, Poly_aftertouch_c, 0, 57, 0
1, 949544, Control_c, 0, 67, 51
1, 949548, Note_on_c, 0, 45, 0
1, 949548, Poly_aftertouch_c, 0, 50, 0
1, 949552, Note_on_c, 0, 54, 0
1, 949552, Poly_aftertouch_c, 0, 54, 0
1, 949581, Control_c, 0, 67, 46
1, 949619, Control_c, 0, 67, 42
1, 949674, Control_c, 0, 67, 38
1, 949786, Control_c, 0, 64, 58
1, 949798, Note_on_c, 0, 38, 57
1, 949805, Control_c, 0, 64, 104
1, 949825, Control_c, 0, 64, 127
1, 949826, Note_on_c, 0, 69, 0
1, 949826, Poly_aftertouch_c, 0, 69, 0
1, 949839, Note_on_c, 0, 38, 0
1, 949839, Poly_aftertouch_c, 0, 38, 0
1, 949952, Note_on_c, 0, 66, 0
1, 949952, Poly_aftertouch_c, 0, 66, 0
1, 950095, Note_on_c, 0, 70, 83
1, 950115, Note_on_c, 0, 58, 62
1, 950116, Note_on_c, 0, 56, 63
1, 950123, Note_on_c, 0, 62, 55
1, 950124, Note_on_c, 0, 53, 57
1, 950131, Note_on_c, 0, 44, 50
1, 950132, Note_on_c, 0, 50, 50
1, 950146, Note_on_c, 0, 56, 0
1, 950146, Poly_aftertouch_c, 0, 56, 0
1, 950151, Note_on_c, 0, 65, 49
1, 950157, Note_on_c, 0, 53, 0
1, 950157, Poly_aftertouch_c, 0, 53, 0
1, 950164, Note_on_c, 0, 50, 0
1, 950173, Note_on_c, 0, 44, 0
1, 950173, Poly_aftertouch_c, 0, 44, 0
1, 950177, Note_on_c, 0, 62, 0
1, 950195, Note_on_c, 0, 58, 0
1, 950204, Note_on_c, 0, 65, 0
1, 950243, Note_on_c, 0, 70, 0
1, 950347, Control_c, 0, 64, 88
1, 950367, Control_c, 0, 64, 37
1, 950373, Note_on_c, 0, 64, 70
1, 950377, Note_on_c, 0, 60, 61
1, 950382, Note_on_c, 0, 43, 45
1, 950383, Note_on_c, 0, 55, 57
1, 950384, Control_c, 0, 64, 0
1, 950392, Note_on_c, 0, 52, 55
1, 950405, Note_on_c, 0, 60, 0
1, 950405, Poly_aftertouch_c, 0, 60, 0
1, 950406, Note_on_c, 0, 64, 0
1, 950406, Poly_aftertouch_c, 0, 64, 0
1, 950413, Note_on_c, 0, 55, 0
1, 950417, Note_on_c, 0, 48, 29
1, 950423, Note_on_c, 0, 43, 0
1, 950426, Note_on_c, 0, 52, 0
1, 950467, Note_on_c, 0, 48, 0
1, 950587, Note_on_c, 0, 65, 59
1, 950595, Note_on_c, 0, 56, 47
1, 950615, Note_on_c, 0, 62, 24
1, 950615, Note_on_c, 0, 44, 30
1, 950626, Note_on_c, 0, 65, 0
1, 950626, Note_on_c, 0, 48, 20
1, 950627, Note_on_c, 0, 56, 0
1, 950627, Poly_aftertouch_c, 0, 56, 0
1, 950665, Note_on_c, 0, 67, 79
1, 950665, Control_c, 0, 67, 33
1, 950666, Note_on_c, 0, 44, 0
1, 950666, Note_on_c, 0, 55, 65
1, 950666, Poly_aftertouch_c, 0, 44, 0
1, 950670, Poly_aftertouch_c, 0, 52, 127
1, 950674, Note_on_c, 0, 43, 63
1, 950676, Note_on_c, 0, 64, 67
1, 950703, Control_c, 0, 67, 28
1, 950707, Note_on_c, 0, 55, 0
1, 950707, Poly_aftertouch_c, 0, 52, 0
1, 950711, Note_on_c, 0, 43, 0
1, 950718, Note_on_c, 0, 48, 0
1, 950727, Note_on_c, 0, 62, 0
1, 950908, Control_c, 0, 67, 32
1, 950922, Note_on_c, 0, 64, 0
1, 950922, Poly_aftertouch_c, 0, 64, 0
1, 950926, Control_c, 0, 64, 49
1, 950945, Control_c, 0, 64, 108
1, 950951, Note_on_c, 0, 38, 60
1, 950965, Control_c, 0, 64, 127
1, 950983, Control_c, 0, 67, 37
1, 950989, Note_on_c, 0, 38, 0
1, 950989, Poly_aftertouch_c, 0, 38, 0
1, 951061, Note_on_c, 0, 67, 0
1, 951061, Poly_aftertouch_c, 0, 67, 0
1, 951251, Note_on_c, 0, 69, 75
1, 951260, Note_on_c, 0, 42, 67
1, 951263, Note_on_c, 0, 54, 63
1, 951265, Note_on_c, 0, 57, 57
1, 951274, Note_on_c, 0, 51, 57
1, 951285, Note_on_c, 0, 69, 0
1, 951285, Poly_aftertouch_c, 0, 69, 0
1, 951288, Note_on_c, 0, 60, 42
1, 951290, Note_on_c, 0, 57, 0
1, 951290, Poly_aftertouch_c, 0, 57, 0
1, 951299, Note_on_c, 0, 54, 0
1, 951299, Poly_aftertouch_c, 0, 54, 0
1, 951301, Note_on_c, 0, 42, 0
1, 951301, Poly_aftertouch_c, 0, 42, 0
1, 951305, Note_on_c, 0, 48, 28
1, 951317, Note_on_c, 0, 51, 0
1, 951317, Poly_aftertouch_c, 0, 51, 0
1, 951326, Note_on_c, 0, 60, 0
1, 951326, Poly_aftertouch_c, 0, 60, 0
1, 951347, Poly_aftertouch_c, 0, 63, 0
1, 951357, Note_on_c, 0, 48, 0
1, 951508, Control_c, 0, 64, 102
1, 951518, Note_on_c, 0, 58, 70
1, 951519, Note_on_c, 0, 62, 75
1, 951527, Control_c, 0, 64, 58
1, 951534, Note_on_c, 0, 53, 60
1, 951537, Note_on_c, 0, 41, 45
1, 951546, Control_c, 0, 64, 0
1, 951548, Note_on_c, 0, 50, 47
1, 951550, Note_on_c, 0, 58, 0
1, 951551, Note_on_c, 0, 46, 50
1, 951552, Note_on_c, 0, 62, 0
1, 951566, Note_on_c, 0, 53, 0
1, 951566, Poly_aftertouch_c, 0, 53, 0
1, 951584, Note_on_c, 0, 50, 0
1, 951586, Note_on_c, 0, 41, 0
1, 951587, Note_on_c, 0, 46, 0
1, 951587, Poly_aftertouch_c, 0, 46, 0
1, 951732, Note_on_c, 0, 54, 59
1, 951736, Note_on_c, 0, 63, 57
1, 951742, Note_on_c, 0, 42, 56
1, 951750, Note_on_c, 0, 60, 30
1, 951773, Note_on_c, 0, 54, 0
1, 951773, Poly_aftertouch_c, 0, 54, 0
1, 951803, Note_on_c, 0, 65, 80
1, 951813, Note_on_c, 0, 62, 74
1, 951818, Note_on_c, 0, 53, 69
1, 951818, Poly_aftertouch_c, 0, 50, 127
1, 951823, Note_on_c, 0, 46, 50
1, 951828, Note_on_c, 0, 63, 0
1, 951835, Note_on_c, 0, 60, 0
1, 951835, Poly_aftertouch_c, 0, 60, 0
1, 951836, Note_on_c, 0, 65, 0
1, 951841, Note_on_c, 0, 62, 0
1, 951851, Note_on_c, 0, 53, 0
1, 951851, Poly_aftertouch_c, 0, 53, 0
1, 951855, Poly_aftertouch_c, 0, 50, 0
1, 951860, Note_on_c, 0, 42, 0
1, 951860, Poly_aftertouch_c, 0, 42, 0
1, 951862, Note_on_c, 0, 46, 0
1, 951862, Poly_aftertouch_c, 0, 46, 0
1, 951956, Control_c, 0, 67, 33
1, 952030, Control_c, 0, 67, 29
1, 952109, Note_on_c, 0, 67, 74
1, 952113, Note_on_c, 0, 52, 60
1, 952116, Note_on_c, 0, 55, 59
1, 952116, Note_on_c, 0, 40, 62
1, 952119, Note_on_c, 0, 58, 59
1, 952125, Note_on_c, 0, 49, 57
1, 952128, Note_on_c, 0, 61, 55
1, 952131, Note_on_c, 0, 46, 43
1, 952149, Note_on_c, 0, 55, 0
1, 952149, Note_on_c, 0, 52, 0
1, 952153, Note_on_c, 0, 67, 0
1, 952153, Poly_aftertouch_c, 0, 67, 0
1, 952155, Note_on_c, 0, 40, 0
1, 952155, Poly_aftertouch_c, 0, 40, 0
1, 952156, Note_on_c, 0, 58, 0
1, 952161, Note_on_c, 0, 61, 0
1, 952161, Note_on_c, 0, 49, 0
1, 952161, Poly_aftertouch_c, 0, 61, 0
1, 952169, Note_on_c, 0, 46, 0
1, 952169, Poly_aftertouch_c, 0, 46, 0
1, 952310, Note_on_c, 0, 46, 8
1, 952384, Note_on_c, 0, 46, 0
1, 952384, Poly_aftertouch_c, 0, 46, 0
1, 952444, Note_on_c, 0, 67, 65
1, 952448, Note_on_c, 0, 61, 57
1, 952459, Note_on_c, 0, 52, 52
1, 952465, Note_on_c, 0, 49, 53
1, 952469, Note_on_c, 0, 55, 50
1, 952471, Note_on_c, 0, 40, 40
1, 952471, Note_on_c, 0, 57, 42
1, 952490, Note_on_c, 0, 52, 0
1, 952498, Control_c, 0, 64, 48
1, 952499, Control_c, 0, 67, 25
1, 952503, Note_on_c, 0, 45, 28
1, 952508, Note_on_c, 0, 49, 0
1, 952514, Note_on_c, 0, 40, 0
1, 952514, Poly_aftertouch_c, 0, 40, 0
1, 952517, Control_c, 0, 64, 69
1, 952536, Control_c, 0, 64, 79
1, 952538, Control_c, 0, 67, 20
1, 952541, Note_on_c, 0, 57, 0
1, 952541, Poly_aftertouch_c, 0, 57, 0
1, 952543, Note_on_c, 0, 45, 0
1, 952555, Control_c, 0, 64, 85
1, 952573, Control_c, 0, 64, 90
1, 952591, Control_c, 0, 64, 96
1, 952592, Control_c, 0, 67, 16
1, 952612, Control_c, 0, 64, 101
1, 952649, Control_c, 0, 64, 107
1, 952680, Poly_aftertouch_c, 0, 57, 127
1, 952698, Note_on_c, 0, 67, 0
1, 952698, Poly_aftertouch_c, 0, 67, 0
1, 952704, Note_on_c, 0, 61, 0
1, 952704, Poly_aftertouch_c, 0, 57, 0
1, 952704, Poly_aftertouch_c, 0, 61, 0
1, 952712, Note_on_c, 0, 55, 0
1, 952713, Poly_aftertouch_c, 0, 55, 0
1, 952722, Control_c, 0, 64, 111
1, 952872, Control_c, 0, 67, 11
1, 952881, Note_on_c, 0, 38, 46
1, 952927, Control_c, 0, 64, 106
1, 952947, Control_c, 0, 64, 98
1, 952955, Note_on_c, 0, 38, 0
1, 952955, Poly_aftertouch_c, 0, 38, 0
1, 952966, Control_c, 0, 64, 79
1, 952971, Note_on_c, 0, 45, 49
1, 952984, Control_c, 0, 64, 61
1, 953002, Control_c, 0, 64, 59
1, 953023, Control_c, 0, 64, 62
1, 953040, Control_c, 0, 64, 68
1, 953052, Note_on_c, 0, 45, 0
1, 953058, Control_c, 0, 64, 75
1, 953073, Note_on_c, 0, 69, 61
1, 953077, Control_c, 0, 64, 82
1, 953083, Note_on_c, 0, 54, 58
1, 953088, Note_on_c, 0, 57, 32
1, 953096, Control_c, 0, 64, 93
1, 953107, Note_on_c, 0, 69, 0
1, 953107, Poly_aftertouch_c, 0, 69, 0
1, 953110, Note_on_c, 0, 66, 23
1, 953111, Note_on_c, 0, 54, 0
1, 953111, Note_on_c, 0, 62, 12
1, 953111, Poly_aftertouch_c, 0, 54, 0
1, 953114, Control_c, 0, 64, 108
1, 953133, Note_on_c, 0, 57, 0
1, 953134, Control_c, 0, 64, 124
1, 953167, Note_on_c, 0, 66, 0
1, 953167, Poly_aftertouch_c, 0, 66, 0
1, 953196, Note_on_c, 0, 62, 0
1, 953395, Control_c, 0, 64, 104
1, 953400, Note_on_c, 0, 78, 90
1, 953412, Note_on_c, 0, 66, 72
1, 953414, Control_c, 0, 64, 71
1, 953421, Note_on_c, 0, 63, 68
1, 953432, Control_c, 0, 64, 60
1, 953438, Note_on_c, 0, 75, 45
1, 953452, Control_c, 0, 64, 66
1, 953453, Note_on_c, 0, 63, 0
1, 953470, Control_c, 0, 64, 72
1, 953489, Control_c, 0, 64, 79
1, 953498, Note_on_c, 0, 62, 72
1, 953510, Control_c, 0, 64, 85
1, 953526, Control_c, 0, 64, 94
1, 953545, Control_c, 0, 64, 108
1, 953548, Note_on_c, 0, 62, 0
1, 953564, Control_c, 0, 64, 120
1, 953584, Note_on_c, 0, 61, 77
1, 953584, Control_c, 0, 64, 127
1, 953623, Note_on_c, 0, 61, 0
1, 953623, Poly_aftertouch_c, 0, 61, 0
1, 953629, Note_on_c, 0, 75, 0
1, 953629, Poly_aftertouch_c, 0, 75, 0
1, 953636, Note_on_c, 0, 78, 0
1, 953651, Note_on_c, 0, 66, 0
1, 953651, Poly_aftertouch_c, 0, 66, 0
1, 953668, Note_on_c, 0, 60, 77
1, 953701, Note_on_c, 0, 60, 0
1, 953701, Poly_aftertouch_c, 0, 60, 0
1, 953754, Note_on_c, 0, 59, 67
1, 953833, Note_on_c, 0, 59, 0
1, 953833, Poly_aftertouch_c, 0, 59, 0
1, 953837, Note_on_c, 0, 58, 76
1, 953866, Note_on_c, 0, 58, 0
1, 953920, Control_c, 0, 64, 89
1, 953937, Control_c, 0, 64, 9
1, 953958, Note_on_c, 0, 66, 73
1, 953958, Control_c, 0, 64, 0
1, 953961, Note_on_c, 0, 62, 64
1, 953985, Note_on_c, 0, 57, 39
1, 953987, Note_on_c, 0, 66, 0
1, 953987, Poly_aftertouch_c, 0, 66, 0
1, 953993, Note_on_c, 0, 62, 0
1, 953994, Note_on_c, 0, 43, 41
1, 953995, Note_on_c, 0, 43, 0
1, 954014, Poly_aftertouch_c, 0, 55, 0
1, 954024, Note_on_c, 0, 57, 0
1, 954056, Poly_aftertouch_c, 0, 43, 0
1, 954202, Note_on_c, 0, 67, 67
1, 954215, Note_on_c, 0, 64, 49
1, 954224, Note_on_c, 0, 58, 56
1, 954241, Note_on_c, 0, 67, 0
1, 954241, Poly_aftertouch_c, 0, 67, 0
1, 954247, Note_on_c, 0, 46, 37
1, 954248, Note_on_c, 0, 54, 40
1, 954254, Note_on_c, 0, 64, 0
1, 954254, Poly_aftertouch_c, 0, 64, 0
1, 954256, Note_on_c, 0, 58, 0
1, 954267, Note_on_c, 0, 50, 11
1, 954293, Note_on_c, 0, 69, 80
1, 954301, Note_on_c, 0, 46, 0
1, 954301, Poly_aftertouch_c, 0, 46, 0
1, 954309, Note_on_c, 0, 66, 66
1, 954313, Note_on_c, 0, 45, 71
1, 954325, Note_on_c, 0, 57, 59
1, 954347, Note_on_c, 0, 57, 0
1, 954357, Note_on_c, 0, 54, 0
1, 954357, Poly_aftertouch_c, 0, 54, 0
1, 954358, Poly_aftertouch_c, 0, 54, 0
1, 954375, Note_on_c, 0, 50, 0
1, 954391, Note_on_c, 0, 45, 0
1, 954408, Poly_aftertouch_c, 0, 64, 127
1, 954519, Control_c, 0, 64, 57
1, 954536, Control_c, 0, 64, 127
1, 954539, Control_c, 0, 67, 0
1, 954576, Note_on_c, 0, 38, 82
1, 954589, Poly_aftertouch_c, 0, 64, 0
1, 954606, Note_on_c, 0, 66, 0
1, 954606, Poly_aftertouch_c, 0, 66, 0
1, 954617, Note_on_c, 0, 38, 0
1, 954617, Poly_aftertouch_c, 0, 38, 0
1, 954713, Note_on_c, 0, 69, 0
1, 954713, Poly_aftertouch_c, 0, 69, 0
1, 954883, Note_on_c, 0, 71, 91
1, 954895, Note_on_c, 0, 56, 69
1, 954898, Note_on_c, 0, 59, 70
1, 954899, Note_on_c, 0, 44, 64
1, 954901, Note_on_c, 0, 62, 62
1, 954904, Note_on_c, 0, 53, 57
1, 954927, Note_on_c, 0, 56, 0
1, 954927, Poly_aftertouch_c, 0, 56, 0
1, 954943, Note_on_c, 0, 59, 0
1, 954943, Note_on_c, 0, 50, 10
1, 954943, Poly_aftertouch_c, 0, 59, 0
1, 954945, Note_on_c, 0, 53, 0
1, 954945, Poly_aftertouch_c, 0, 53, 0
1, 954955, Note_on_c, 0, 44, 0
1, 954955, Poly_aftertouch_c, 0, 44, 0
1, 954983, Poly_aftertouch_c, 0, 65, 0
1, 955023, Note_on_c, 0, 50, 0
1, 955047, Note_on_c, 0, 71, 0
1, 955075, Note_on_c, 0, 62, 0
1, 955135, Control_c, 0, 64, 87
1, 955150, Note_on_c, 0, 43, 47
1, 955150, Note_on_c, 0, 64, 65
1, 955153, Control_c, 0, 64, 0
1, 955156, Note_on_c, 0, 55, 60
1, 955160, Note_on_c, 0, 60, 56
1, 955172, Note_on_c, 0, 52, 50
1, 955188, Note_on_c, 0, 48, 37
1, 955189, Note_on_c, 0, 60, 0
1, 955189, Note_on_c, 0, 43, 0
1, 955189, Poly_aftertouch_c, 0, 60, 0
1, 955192, Note_on_c, 0, 64, 0
1, 955196, Note_on_c, 0, 55, 0
1, 955216, Note_on_c, 0, 52, 0
1, 955231, Note_on_c, 0, 48, 0
1, 955363, Note_on_c, 0, 65, 65
1, 955367, Note_on_c, 0, 56, 62
1, 955369, Note_on_c, 0, 62, 54
1, 955377, Note_on_c, 0, 44, 53
1, 955388, Note_on_c, 0, 52, 26
1, 955393, Note_on_c, 0, 56, 0
1, 955393, Poly_aftertouch_c, 0, 56, 0
1, 955398, Note_on_c, 0, 62, 0
1, 955399, Note_on_c, 0, 65, 0
1, 955408, Note_on_c, 0, 48, 30
1, 955413, Note_on_c, 0, 44, 0
1, 955413, Poly_aftertouch_c, 0, 44, 0
1, 955441, Note_on_c, 0, 67, 79
1, 955457, Note_on_c, 0, 43, 68
1, 955458, Note_on_c, 0, 55, 68
1, 955460, Note_on_c, 0, 64, 62
1, 955494, Note_on_c, 0, 55, 0
1, 955509, Note_on_c, 0, 52, 0
1, 955528, Note_on_c, 0, 43, 0
1, 955528, Note_on_c, 0, 48, 0
1, 955641, Poly_aftertouch_c, 0, 62, 127
1, 955678, Control_c, 0, 64, 30
1, 955695, Control_c, 0, 64, 110
1, 955701, Poly_aftertouch_c, 0, 62, 0
1, 955713, Control_c, 0, 64, 127
1, 955718, Note_on_c, 0, 38, 67
1, 955719, Note_on_c, 0, 64, 0
1, 955749, Note_on_c, 0, 38, 0
1, 955749, Poly_aftertouch_c, 0, 38, 0
1, 955820, Note_on_c, 0, 67, 0
1, 955820, Poly_aftertouch_c, 0, 67, 0
1, 956023, Note_on_c, 0, 69, 81
1, 956027, Note_on_c, 0, 42, 62
1, 956038, Note_on_c, 0, 54, 53
1, 956042, Note_on_c, 0, 60, 62
1, 956046, Note_on_c, 0, 51, 53
1, 956050, Note_on_c, 0, 57, 51
1, 956077, Note_on_c, 0, 54, 0
1, 956088, Note_on_c, 0, 57, 0
1, 956091, Note_on_c, 0, 51, 0
1, 956091, Poly_aftertouch_c, 0, 51, 0
1, 956100, Note_on_c, 0, 42, 0
1, 956100, Poly_aftertouch_c, 0, 42, 0
1, 956104, Note_on_c, 0, 69, 0
1, 956104, Poly_aftertouch_c, 0, 69, 0
1, 956202, Note_on_c, 0, 60, 0
1, 956202, Poly_aftertouch_c, 0, 60, 0
1, 956295, Control_c, 0, 64, 114
1, 956306, Note_on_c, 0, 62, 77
1, 956315, Note_on_c, 0, 53, 60
1, 956315, Control_c, 0, 64, 66
1, 956317, Note_on_c, 0, 58, 61
1, 956319, Note_on_c, 0, 41, 44
1, 956331, Control_c, 0, 64, 0
1, 956338, Note_on_c, 0, 46, 43
1, 956340, Note_on_c, 0, 53, 0
1, 956340, Poly_aftertouch_c, 0, 53, 0
1, 956344, Note_on_c, 0, 62, 0
1, 956344, Note_on_c, 0, 58, 0
1, 956361, Note_on_c, 0, 50, 13
1, 956364, Note_on_c, 0, 41, 0
1, 956380, Note_on_c, 0, 46, 0
1, 956380, Poly_aftertouch_c, 0, 46, 0
1, 956435, Note_on_c, 0, 50, 0
1, 956510, Note_on_c, 0, 54, 64
1, 956518, Note_on_c, 0, 63, 62
1, 956522, Note_on_c, 0, 42, 61
1, 956551, Note_on_c, 0, 54, 0
1, 956588, Note_on_c, 0, 50, 20
1, 956589, Note_on_c, 0, 60, 14
1, 956590, Note_on_c, 0, 65, 78
1, 956594, Note_on_c, 0, 62, 73
1, 956596, Poly_aftertouch_c, 0, 46, 127
1, 956604, Note_on_c, 0, 53, 75
1, 956615, Note_on_c, 0, 63, 0
1, 956621, Note_on_c, 0, 65, 0
1, 956623, Note_on_c, 0, 60, 0
1, 956623, Note_on_c, 0, 62, 0
1, 956623, Poly_aftertouch_c, 0, 60, 0
1, 956633, Note_on_c, 0, 53, 0
1, 956633, Poly_aftertouch_c, 0, 53, 0
1, 956638, Note_on_c, 0, 50, 0
1, 956642, Note_on_c, 0, 42, 0
1, 956642, Poly_aftertouch_c, 0, 42, 0
1, 956653, Poly_aftertouch_c, 0, 46, 0
1, 956808, Note_on_c, 0, 46, 8
1, 956921, Note_on_c, 0, 67, 81
1, 956922, Note_on_c, 0, 40, 61
1, 956926, Note_on_c, 0, 52, 62
1, 956929, Note_on_c, 0, 55, 68
1, 956931, Note_on_c, 0, 49, 65
1, 956936, Note_on_c, 0, 58, 62
1, 956942, Note_on_c, 0, 61, 61
1, 956961, Note_on_c, 0, 57, 38
1, 956962, Note_on_c, 0, 57, 0
1, 956962, Note_on_c, 0, 40, 0
1, 956962, Poly_aftertouch_c, 0, 40, 0
1, 956964, Note_on_c, 0, 55, 0
1, 956967, Note_on_c, 0, 46, 0
1, 956967, Note_on_c, 0, 46, 26
1, 956968, Note_on_c, 0, 52, 0
1, 956968, Note_on_c, 0, 49, 0
1, 956976, Note_on_c, 0, 58, 0
1, 956976, Note_on_c, 0, 46, 0
1, 956980, Note_on_c, 0, 61, 0
1, 956980, Poly_aftertouch_c, 0, 61, 0
1, 956986, Control_c, 0, 67, 9
1, 956990, Note_on_c, 0, 67, 0
1, 956990, Poly_aftertouch_c, 0, 67, 0
1, 957005, Poly_aftertouch_c, 0, 57, 0
1, 957061, Control_c, 0, 67, 13
1, 957285, Control_c, 0, 67, 8
1, 957342, Control_c, 0, 64, 28
1, 957354, Note_on_c, 0, 67, 74
1, 957359, Control_c, 0, 64, 47
1, 957364, Note_on_c, 0, 51, 53
1, 957373, Note_on_c, 0, 39, 46
1, 957374, Note_on_c, 0, 61, 52
1, 957377, Note_on_c, 0, 45, 45
1, 957379, Control_c, 0, 64, 60
1, 957387, Note_on_c, 0, 55, 43
1, 957396, Note_on_c, 0, 57, 35
1, 957397, Control_c, 0, 64, 68
1, 957417, Control_c, 0, 64, 72
1, 957418, Control_c, 0, 67, 0
1, 957434, Control_c, 0, 64, 76
1, 957453, Control_c, 0, 64, 79
1, 957472, Control_c, 0, 64, 83
1, 957490, Control_c, 0, 64, 87
1, 957510, Control_c, 0, 64, 92
1, 957513, Note_on_c, 0, 57, 0
1, 957513, Note_on_c, 0, 45, 0
1, 957516, Note_on_c, 0, 55, 0
1, 957529, Control_c, 0, 64, 99
1, 957547, Control_c, 0, 64, 106
1, 957549, Note_on_c, 0, 67, 0
1, 957549, Poly_aftertouch_c, 0, 67, 0
1, 957566, Control_c, 0, 64, 112
1, 957581, Note_on_c, 0, 61, 0
1, 957581, Poly_aftertouch_c, 0, 61, 0
1, 957583, Control_c, 0, 64, 117
1, 957622, Control_c, 0, 64, 123
1, 957627, Note_on_c, 0, 39, 0
1, 957636, Note_on_c, 0, 51, 0
1, 957636, Poly_aftertouch_c, 0, 51, 0
1, 957659, Control_c, 0, 64, 127
1, 957918, Note_on_c, 0, 38, 43
1, 958036, Note_on_c, 0, 38, 0
1, 958036, Poly_aftertouch_c, 0, 38, 0
1, 958066, Note_on_c, 0, 45, 46
1, 958221, Control_c, 0, 64, 123
1, 958233, Note_on_c, 0, 69, 56
1, 958239, Control_c, 0, 64, 106
1, 958251, Note_on_c, 0, 45, 0
1, 958251, Note_on_c, 0, 54, 51
1, 958254, Note_on_c, 0, 62, 45
1, 958258, Control_c, 0, 64, 75
1, 958277, Note_on_c, 0, 57, 8
1, 958277, Control_c, 0, 64, 45
1, 958288, Note_on_c, 0, 66, 25
1, 958293, Control_c, 0, 64, 39
1, 958314, Control_c, 0, 64, 50
1, 958333, Control_c, 0, 64, 66
1, 958347, Note_on_c, 0, 57, 0
1, 958350, Note_on_c, 0, 62, 0
1, 958351, Control_c, 0, 64, 78
1, 958369, Control_c, 0, 64, 88
1, 958389, Control_c, 0, 64, 102
1, 958399, Note_on_c, 0, 54, 0
1, 958407, Note_on_c, 0, 69, 0
1, 958407, Poly_aftertouch_c, 0, 69, 0
1, 958407, Control_c, 0, 64, 114
1, 958415, Note_on_c, 0, 66, 0
1, 958415, Poly_aftertouch_c, 0, 66, 0
1, 958426, Control_c, 0, 64, 120
1, 958463, Control_c, 0, 64, 126
1, 958802, Note_on_c, 0, 66, 74
1, 958897, Note_on_c, 0, 82, 86
1, 958930, Note_on_c, 0, 78, 57
1, 958930, Control_c, 0, 64, 120
1, 958933, Note_on_c, 0, 70, 58
1, 958949, Control_c, 0, 64, 96
1, 958969, Control_c, 0, 64, 64
1, 958987, Control_c, 0, 64, 35
1, 959025, Control_c, 0, 64, 51
1, 959042, Control_c, 0, 64, 69
1, 959062, Control_c, 0, 64, 80
1, 959080, Control_c, 0, 64, 90
1, 959099, Control_c, 0, 64, 101
1, 959117, Control_c, 0, 64, 111
1, 959120, Note_on_c, 0, 66, 0
1, 959120, Poly_aftertouch_c, 0, 66, 0
1, 959136, Control_c, 0, 64, 116
1, 959152, Note_on_c, 0, 82, 0
1, 959169, Note_on_c, 0, 78, 0
1, 959172, Control_c, 0, 64, 120
1, 959198, Note_on_c, 0, 65, 51
1, 959211, Control_c, 0, 64, 126
1, 959242, Note_on_c, 0, 70, 0
1, 959258, Note_on_c, 0, 65, 0
1, 959292, Note_on_c, 0, 64, 56
1, 959343, Note_on_c, 0, 64, 0
1, 959378, Note_on_c, 0, 63, 61
1, 959416, Note_on_c, 0, 63, 0
1, 959481, Note_on_c, 0, 62, 62
1, 959558, Note_on_c, 0, 62, 0
1, 959561, Note_on_c, 0, 61, 69
1, 959701, Note_on_c, 0, 70, 83
1, 959729, Note_on_c, 0, 66, 50
1, 959771, Control_c, 0, 64, 116
1, 959790, Control_c, 0, 64, 95
1, 959809, Control_c, 0, 64, 66
1, 959829, Control_c, 0, 64, 50
1, 959846, Control_c, 0, 64, 54
1, 959859, Note_on_c, 0, 61, 0
1, 959859, Poly_aftertouch_c, 0, 61, 0
1, 959865, Control_c, 0, 64, 62
1, 959884, Control_c, 0, 64, 73
1, 959897, Note_on_c, 0, 60, 58
1, 959903, Control_c, 0, 64, 80
1, 959922, Control_c, 0, 64, 89
1, 959940, Control_c, 0, 64, 99
1, 959959, Control_c, 0, 64, 108
1, 959961, Note_on_c, 0, 60, 0
1, 959961, Poly_aftertouch_c, 0, 60, 0
1, 959976, Control_c, 0, 64, 114
1, 960047, Note_on_c, 0, 59, 58
1, 960193, Note_on_c, 0, 66, 0
1, 960193, Poly_aftertouch_c, 0, 66, 0
1, 960206, Note_on_c, 0, 69, 66
1, 960225, Note_on_c, 0, 59, 0
1, 960225, Poly_aftertouch_c, 0, 59, 0
1, 960229, Note_on_c, 0, 65, 54
1, 960238, Note_on_c, 0, 58, 55
1, 960239, Control_c, 0, 64, 98
1, 960259, Control_c, 0, 64, 71
1, 960276, Control_c, 0, 64, 34
1, 960296, Control_c, 0, 64, 0
1, 960333, Control_c, 0, 64, 21
1, 960351, Control_c, 0, 64, 47
1, 960372, Control_c, 0, 64, 66
1, 960375, Note_on_c, 0, 58, 0
1, 960389, Control_c, 0, 64, 79
1, 960405, Note_on_c, 0, 57, 52
1, 960408, Control_c, 0, 64, 88
1, 960426, Control_c, 0, 64, 95
1, 960444, Control_c, 0, 64, 99
1, 960481, Note_on_c, 0, 65, 0
1, 960517, Note_on_c, 0, 57, 0
1, 960550, Note_on_c, 0, 58, 56
1, 960594, Control_c, 0, 67, 8
1, 960707, Control_c, 0, 64, 95
1, 960709, Control_c, 0, 67, 12
1, 960726, Note_on_c, 0, 69, 0
1, 960726, Poly_aftertouch_c, 0, 69, 0
1, 960734, Note_on_c, 0, 64, 42
1, 960735, Note_on_c, 0, 68, 59
1, 960744, Control_c, 0, 64, 86
1, 960751, Note_on_c, 0, 58, 0
1, 960759, Note_on_c, 0, 59, 50
1, 960764, Control_c, 0, 64, 73
1, 960782, Control_c, 0, 64, 52
1, 960783, Control_c, 0, 67, 17
1, 960800, Control_c, 0, 64, 0
1, 960819, Control_c, 0, 67, 23
1, 960838, Control_c, 0, 67, 27
1, 960856, Control_c, 0, 64, 15
1, 960876, Control_c, 0, 64, 41
1, 960878, Control_c, 0, 67, 34
1, 960894, Control_c, 0, 64, 58
1, 960896, Note_on_c, 0, 59, 0
1, 960896, Poly_aftertouch_c, 0, 59, 0
1, 960896, Control_c, 0, 67, 38
1, 960912, Control_c, 0, 64, 73
1, 960913, Control_c, 0, 67, 43
1, 960931, Control_c, 0, 64, 80
1, 960932, Control_c, 0, 67, 47
1, 960945, Note_on_c, 0, 58, 47
1, 960950, Control_c, 0, 64, 86
1, 960953, Control_c, 0, 67, 51
1, 960987, Control_c, 0, 64, 93
1, 960989, Control_c, 0, 67, 57
1, 961005, Control_c, 0, 64, 97
1, 961025, Control_c, 0, 67, 62
1, 961044, Control_c, 0, 64, 101
1, 961062, Control_c, 0, 67, 67
1, 961100, Control_c, 0, 67, 72
1, 961106, Note_on_c, 0, 58, 0
1, 961118, Control_c, 0, 64, 106
1, 961136, Control_c, 0, 67, 77
1, 961139, Note_on_c, 0, 59, 58
1, 961212, Control_c, 0, 67, 81
1, 961306, Control_c, 0, 67, 86
1, 961342, Control_c, 0, 64, 100
1, 961354, Note_on_c, 0, 60, 51
1, 961361, Control_c, 0, 64, 87
1, 961362, Control_c, 0, 67, 91
1, 961363, Note_on_c, 0, 59, 0
1, 961363, Poly_aftertouch_c, 0, 59, 0
1, 961380, Control_c, 0, 64, 64
1, 961399, Control_c, 0, 64, 49
1, 961401, Control_c, 0, 67, 96
1, 961436, Control_c, 0, 64, 58
1, 961457, Control_c, 0, 64, 65
1, 961458, Control_c, 0, 67, 101
1, 961473, Control_c, 0, 64, 71
1, 961493, Control_c, 0, 64, 75
1, 961494, Control_c, 0, 67, 105
1, 961511, Control_c, 0, 64, 80
1, 961529, Control_c, 0, 64, 83
1, 961550, Control_c, 0, 67, 109
1, 961568, Control_c, 0, 64, 85
1, 961576, Note_on_c, 0, 60, 0
1, 961576, Poly_aftertouch_c, 0, 60, 0
1, 961591, Note_on_c, 0, 59, 37
1, 961623, Control_c, 0, 64, 91
1, 961624, Control_c, 0, 67, 114
1, 961660, Control_c, 0, 64, 96
1, 961687, Note_on_c, 0, 68, 0
1, 961699, Control_c, 0, 64, 100
1, 961700, Control_c, 0, 67, 118
1, 961729, Note_on_c, 0, 64, 0
1, 961773, Control_c, 0, 64, 105
1, 961826, Note_on_c, 0, 59, 0
1, 961826, Poly_aftertouch_c, 0, 59, 0
1, 961829, Control_c, 0, 67, 122
1, 961860, Note_on_c, 0, 60, 35
1, 962053, Control_c, 0, 67, 126
1, 962082, Note_on_c, 0, 60, 0
1, 962082, Poly_aftertouch_c, 0, 60, 0
1, 962180, Note_on_c, 0, 67, 42
1, 962198, Note_on_c, 0, 61, 27
1, 962203, Note_on_c, 0, 63, 28
1, 962259, Control_c, 0, 64, 97
1, 962279, Control_c, 0, 64, 85
1, 962296, Control_c, 0, 64, 63
1, 962316, Control_c, 0, 64, 43
1, 962334, Control_c, 0, 64, 35
1, 962353, Control_c, 0, 64, 40
1, 962371, Control_c, 0, 64, 50
1, 962389, Control_c, 0, 64, 59
1, 962408, Control_c, 0, 64, 68
1, 962427, Control_c, 0, 64, 73
1, 962446, Control_c, 0, 64, 77
1, 962464, Control_c, 0, 64, 79
1, 962483, Control_c, 0, 64, 81
1, 962490, Note_on_c, 0, 61, 0
1, 962490, Poly_aftertouch_c, 0, 61, 0
1, 962502, Control_c, 0, 64, 83
1, 962539, Control_c, 0, 64, 87
1, 962551, Note_on_c, 0, 60, 37
1, 962577, Control_c, 0, 64, 93
1, 962614, Control_c, 0, 64, 101
1, 962633, Control_c, 0, 64, 106
1, 962653, Control_c, 0, 64, 110
1, 962689, Control_c, 0, 64, 116
1, 962744, Control_c, 0, 64, 120
1, 962801, Control_c, 0, 64, 124
1, 962804, Note_on_c, 0, 70, 0
1, 962867, Note_on_c, 0, 60, 0
1, 962867, Poly_aftertouch_c, 0, 60, 0
1, 962869, Note_on_c, 0, 63, 0
1, 962969, Note_on_c, 0, 67, 0
1, 962969, Poly_aftertouch_c, 0, 67, 0
1, 962993, Note_on_c, 0, 61, 36
1, 963118, Note_on_c, 0, 61, 0
1, 963118, Poly_aftertouch_c, 0, 61, 0
1, 963754, Control_c, 0, 64, 120
1, 963767, Note_on_c, 0, 39, 43
1, 963829, Control_c, 0, 64, 116
1, 963842, Note_on_c, 0, 62, 43
1, 963844, Note_on_c, 0, 67, 47
1, 963869, Note_on_c, 0, 56, 30
1, 963885, Control_c, 0, 64, 108
1, 963904, Control_c, 0, 64, 98
1, 963923, Control_c, 0, 64, 85
1, 963942, Control_c, 0, 64, 65
1, 963961, Control_c, 0, 64, 16
1, 963979, Control_c, 0, 64, 0
1, 964016, Control_c, 0, 64, 41
1, 964035, Control_c, 0, 64, 70
1, 964054, Control_c, 0, 64, 88
1, 964072, Control_c, 0, 64, 106
1, 964092, Control_c, 0, 64, 122
1, 964110, Control_c, 0, 64, 127
1, 964118, Note_on_c, 0, 56, 0
1, 964118, Poly_aftertouch_c, 0, 56, 0
1, 964119, Poly_aftertouch_c, 0, 56, 0
1, 964234, Note_on_c, 0, 62, 0
1, 964344, Note_on_c, 0, 67, 0
1, 964344, Poly_aftertouch_c, 0, 67, 0
1, 964414, Note_on_c, 0, 39, 0
1, 964455, Note_on_c, 0, 46, 44
1, 964561, Note_on_c, 0, 46, 0
1, 964588, Note_on_c, 0, 67, 58
1, 964614, Control_c, 0, 67, 122
1, 964671, Control_c, 0, 67, 116
1, 964708, Control_c, 0, 67, 110
1, 964727, Control_c, 0, 67, 106
1, 964745, Control_c, 0, 67, 102
1, 964763, Control_c, 0, 67, 97
1, 964783, Control_c, 0, 67, 92
1, 964801, Control_c, 0, 67, 87
1, 964820, Control_c, 0, 67, 81
1, 964839, Control_c, 0, 67, 75
1, 964859, Control_c, 0, 67, 69
1, 964876, Control_c, 0, 67, 63
1, 964895, Control_c, 0, 67, 56
1, 964914, Control_c, 0, 67, 50
1, 964933, Control_c, 0, 67, 44
1, 964951, Control_c, 0, 67, 39
1, 964970, Control_c, 0, 67, 34
1, 964989, Control_c, 0, 67, 30
1, 964992, Note_on_c, 0, 67, 0
1, 964992, Poly_aftertouch_c, 0, 67, 0
1, 965026, Control_c, 0, 67, 24
1, 965038, Note_on_c, 0, 63, 42
1, 965055, Note_on_c, 0, 56, 34
1, 965063, Control_c, 0, 67, 17
1, 965100, Control_c, 0, 67, 13
1, 965138, Control_c, 0, 67, 9
1, 965157, Note_on_c, 0, 63, 0
1, 965197, Note_on_c, 0, 79, 72
1, 965221, Note_on_c, 0, 72, 56
1, 965271, Note_on_c, 0, 72, 0
1, 965271, Poly_aftertouch_c, 0, 72, 0
1, 965373, Note_on_c, 0, 79, 0
1, 965419, Control_c, 0, 67, 15
1, 965457, Control_c, 0, 67, 23
1, 965475, Control_c, 0, 67, 27
1, 965494, Control_c, 0, 67, 33
1, 965512, Control_c, 0, 67, 38
1, 965531, Control_c, 0, 67, 45
1, 965542, Note_on_c, 0, 56, 0
1, 965549, Control_c, 0, 67, 54
1, 965568, Control_c, 0, 67, 61
1, 965588, Control_c, 0, 67, 67
1, 965606, Control_c, 0, 67, 71
1, 965655, Note_on_c, 0, 46, 41
1, 965718, Note_on_c, 0, 46, 0
1, 965737, Note_on_c, 0, 62, 47
1, 965782, Note_on_c, 0, 62, 0
1, 965998, Note_on_c, 0, 71, 45
1, 966002, Note_on_c, 0, 62, 38
1, 966036, Note_on_c, 0, 67, 30
1, 966037, Note_on_c, 0, 62, 0
1, 966037, Note_on_c, 0, 56, 36
1, 966064, Note_on_c, 0, 71, 0
1, 966072, Control_c, 0, 67, 67
1, 966104, Note_on_c, 0, 67, 0
1, 966104, Poly_aftertouch_c, 0, 67, 0
1, 966130, Control_c, 0, 67, 62
1, 966140, Note_on_c, 0, 56, 0
1, 966167, Control_c, 0, 67, 58
1, 966261, Note_on_c, 0, 70, 79
1, 966271, Note_on_c, 0, 46, 55
1, 966277, Note_on_c, 0, 58, 54
1, 966310, Note_on_c, 0, 46, 0
1, 966333, Note_on_c, 0, 58, 0
1, 966372, Control_c, 0, 67, 54
1, 966425, Note_on_c, 0, 70, 0
1, 966561, Note_on_c, 0, 70, 78
1, 966589, Note_on_c, 0, 39, 49
1, 966596, Control_c, 0, 64, 116
1, 966599, Note_on_c, 0, 62, 46
1, 966604, Note_on_c, 0, 67, 49
1, 966616, Control_c, 0, 64, 81
1, 966635, Control_c, 0, 64, 31
1, 966653, Control_c, 0, 64, 0
1, 966690, Control_c, 0, 64, 35
1, 966708, Control_c, 0, 64, 61
1, 966728, Control_c, 0, 64, 79
1, 966747, Control_c, 0, 64, 95
1, 966766, Control_c, 0, 64, 110
1, 966784, Control_c, 0, 64, 118
1, 966821, Control_c, 0, 64, 122
1, 966878, Control_c, 0, 64, 126
1, 966889, Note_on_c, 0, 46, 42
1, 966900, Note_on_c, 0, 39, 0
1, 966957, Note_on_c, 0, 46, 0
1, 966985, Note_on_c, 0, 62, 0
1, 967004, Note_on_c, 0, 60, 45
1, 967040, Note_on_c, 0, 60, 0
1, 967040, Poly_aftertouch_c, 0, 60, 0
1, 967041, Note_on_c, 0, 70, 0
1, 967046, Note_on_c, 0, 67, 0
1, 967046, Poly_aftertouch_c, 0, 67, 0
1, 967334, Note_on_c, 0, 60, 43
1, 967349, Note_on_c, 0, 54, 36
1, 967349, Note_on_c, 0, 75, 77
1, 967363, Control_c, 0, 64, 114
1, 967382, Control_c, 0, 64, 85
1, 967384, Note_on_c, 0, 69, 45
1, 967391, Note_on_c, 0, 63, 36
1, 967401, Control_c, 0, 64, 49
1, 967420, Control_c, 0, 64, 19
1, 967438, Control_c, 0, 64, 36
1, 967457, Control_c, 0, 64, 56
1, 967476, Control_c, 0, 64, 73
1, 967484, Note_on_c, 0, 60, 0
1, 967484, Poly_aftertouch_c, 0, 60, 0
1, 967494, Control_c, 0, 64, 85
1, 967513, Control_c, 0, 64, 101
1, 967532, Control_c, 0, 64, 116
1, 967540, Note_on_c, 0, 69, 0
1, 967540, Poly_aftertouch_c, 0, 69, 0
1, 967549, Note_on_c, 0, 75, 0
1, 967549, Poly_aftertouch_c, 0, 75, 0
1, 967549, Control_c, 0, 64, 125
1, 967589, Note_on_c, 0, 63, 0
1, 967677, Note_on_c, 0, 54, 0
1, 967765, Note_on_c, 0, 46, 39
1, 967767, Note_on_c, 0, 59, 50
1, 967824, Note_on_c, 0, 59, 0
1, 967824, Poly_aftertouch_c, 0, 59, 0
1, 967850, Note_on_c, 0, 46, 0
1, 968002, Note_on_c, 0, 68, 52
1, 968035, Note_on_c, 0, 63, 41
1, 968037, Note_on_c, 0, 55, 49
1, 968056, Note_on_c, 0, 59, 30
1, 968098, Note_on_c, 0, 63, 0
1, 968107, Note_on_c, 0, 59, 0
1, 968107, Poly_aftertouch_c, 0, 59, 0
1, 968163, Note_on_c, 0, 68, 0
1, 968184, Note_on_c, 0, 55, 0
1, 968230, Note_on_c, 0, 67, 63
1, 968241, Note_on_c, 0, 46, 59
1, 968242, Note_on_c, 0, 58, 51
1, 968269, Note_on_c, 0, 67, 0
1, 968269, Poly_aftertouch_c, 0, 67, 0
1, 968275, Note_on_c, 0, 58, 0
1, 968278, Note_on_c, 0, 46, 0
1, 968392, Control_c, 0, 67, 50
1, 968429, Control_c, 0, 67, 45
1, 968486, Control_c, 0, 67, 40
1, 968523, Control_c, 0, 67, 36
1, 968524, Note_on_c, 0, 39, 61
1, 968560, Control_c, 0, 67, 32
1, 968580, Control_c, 0, 64, 102
1, 968598, Control_c, 0, 64, 72
1, 968615, Note_on_c, 0, 74, 79
1, 968616, Control_c, 0, 64, 67
1, 968618, Control_c, 0, 67, 27
1, 968635, Control_c, 0, 64, 74
1, 968653, Control_c, 0, 64, 84
1, 968673, Control_c, 0, 64, 96
1, 968675, Control_c, 0, 67, 22
1, 968691, Control_c, 0, 64, 115
1, 968701, Note_on_c, 0, 68, 23
1, 968707, Control_c, 0, 64, 127
1, 968708, Control_c, 0, 67, 18
1, 968766, Control_c, 0, 67, 14
1, 968769, Note_on_c, 0, 68, 0
1, 968771, Note_on_c, 0, 74, 0
1, 968866, Note_on_c, 0, 39, 0
1, 968874, Note_on_c, 0, 47, 50
1, 968885, Note_on_c, 0, 59, 65
1, 968925, Note_on_c, 0, 47, 0
1, 968936, Note_on_c, 0, 59, 0
1, 968936, Poly_aftertouch_c, 0, 59, 0
1, 969091, Note_on_c, 0, 67, 63
1, 969097, Note_on_c, 0, 59, 56
1, 969127, Note_on_c, 0, 62, 43
1, 969133, Note_on_c, 0, 59, 0
1, 969133, Poly_aftertouch_c, 0, 59, 0
1, 969151, Note_on_c, 0, 67, 0
1, 969151, Poly_aftertouch_c, 0, 67, 0
1, 969181, Note_on_c, 0, 62, 0
1, 969305, Note_on_c, 0, 58, 67
1, 969307, Note_on_c, 0, 47, 58
1, 969351, Note_on_c, 0, 58, 0
1, 969357, Note_on_c, 0, 47, 0
1, 969581, Note_on_c, 0, 58, 55
1, 969652, Note_on_c, 0, 71, 80
1, 969681, Control_c, 0, 64, 106
1, 969687, Note_on_c, 0, 66, 49
1, 969696, Note_on_c, 0, 62, 36
1, 969701, Control_c, 0, 64, 77
1, 969738, Control_c, 0, 64, 85
1, 969750, Note_on_c, 0, 58, 0
1, 969754, Note_on_c, 0, 66, 0
1, 969754, Poly_aftertouch_c, 0, 66, 0
1, 969757, Control_c, 0, 64, 98
1, 969775, Control_c, 0, 64, 113
1, 969794, Control_c, 0, 64, 127
1, 969835, Note_on_c, 0, 71, 0
1, 969865, Note_on_c, 0, 47, 44
1, 969905, Note_on_c, 0, 57, 58
1, 969910, Note_on_c, 0, 47, 0
1, 969948, Note_on_c, 0, 57, 0
1, 969956, Note_on_c, 0, 62, 0
1, 970116, Note_on_c, 0, 39, 53
1, 970187, Control_c, 0, 64, 104
1, 970199, Note_on_c, 0, 71, 77
1, 970206, Control_c, 0, 64, 73
1, 970225, Control_c, 0, 64, 25
1, 970226, Control_c, 0, 67, 18
1, 970243, Control_c, 0, 64, 0
1, 970281, Control_c, 0, 64, 17
1, 970300, Control_c, 0, 64, 54
1, 970318, Control_c, 0, 64, 78
1, 970319, Control_c, 0, 67, 22
1, 970336, Control_c, 0, 64, 93
1, 970355, Control_c, 0, 64, 109
1, 970375, Control_c, 0, 64, 118
1, 970412, Control_c, 0, 64, 123
1, 970413, Control_c, 0, 67, 26
1, 970462, Note_on_c, 0, 39, 0
1, 970467, Note_on_c, 0, 71, 0
1, 970504, Control_c, 0, 64, 127
1, 970505, Control_c, 0, 67, 31
1, 970506, Note_on_c, 0, 46, 39
1, 970542, Control_c, 0, 67, 35
1, 970545, Note_on_c, 0, 57, 45
1, 970579, Control_c, 0, 67, 41
1, 970590, Note_on_c, 0, 46, 0
1, 970594, Note_on_c, 0, 57, 0
1, 970618, Control_c, 0, 67, 47
1, 970654, Control_c, 0, 67, 52
1, 970767, Control_c, 0, 67, 56
1, 970818, Note_on_c, 0, 65, 43
1, 970831, Note_on_c, 0, 57, 40
1, 970839, Control_c, 0, 67, 60
1, 970843, Note_on_c, 0, 61, 34
1, 970897, Control_c, 0, 67, 65
1, 970907, Note_on_c, 0, 57, 0
1, 970934, Control_c, 0, 67, 70
1, 970942, Note_on_c, 0, 65, 0
1, 970991, Control_c, 0, 67, 74
1, 970998, Note_on_c, 0, 61, 0
1, 970998, Poly_aftertouch_c, 0, 61, 0
1, 971047, Control_c, 0, 67, 79
1, 971103, Note_on_c, 0, 46, 43
1, 971103, Control_c, 0, 67, 84
1, 971106, Note_on_c, 0, 56, 48
1, 971159, Control_c, 0, 67, 89
1, 971172, Note_on_c, 0, 56, 0
1, 971196, Control_c, 0, 67, 93
1, 971198, Note_on_c, 0, 46, 0
1, 971271, Control_c, 0, 67, 98
1, 971308, Control_c, 0, 67, 102
1, 971384, Control_c, 0, 67, 106
1, 971453, Note_on_c, 0, 56, 38
1, 971549, Note_on_c, 0, 67, 52
1, 971570, Note_on_c, 0, 61, 37
1, 971584, Note_on_c, 0, 64, 37
1, 971588, Control_c, 0, 64, 108
1, 971608, Control_c, 0, 64, 79
1, 971627, Control_c, 0, 64, 53
1, 971646, Control_c, 0, 64, 43
1, 971664, Control_c, 0, 64, 49
1, 971683, Control_c, 0, 64, 61
1, 971702, Control_c, 0, 64, 71
1, 971720, Control_c, 0, 64, 80
1, 971739, Control_c, 0, 64, 89
1, 971757, Control_c, 0, 64, 99
1, 971777, Control_c, 0, 64, 108
1, 971795, Control_c, 0, 64, 113
1, 971919, Note_on_c, 0, 56, 0
1, 971925, Control_c, 0, 64, 117
1, 971952, Note_on_c, 0, 46, 35
1, 971983, Control_c, 0, 64, 122
1, 971998, Poly_aftertouch_c, 0, 61, 24
1, 972004, Note_on_c, 0, 55, 37
1, 972019, Control_c, 0, 67, 101
1, 972034, Note_on_c, 0, 46, 0
1, 972037, Note_on_c, 0, 61, 0
1, 972037, Poly_aftertouch_c, 0, 61, 0
1, 972038, Control_c, 0, 64, 126
1, 972043, Note_on_c, 0, 64, 0
1, 972075, Control_c, 0, 67, 96
1, 972113, Control_c, 0, 67, 91
1, 972170, Control_c, 0, 67, 86
1, 972203, Note_on_c, 0, 55, 0
1, 972204, Control_c, 0, 67, 81
1, 972244, Control_c, 0, 67, 74
1, 972281, Control_c, 0, 67, 67
1, 972293, Note_on_c, 0, 44, 60
1, 972319, Control_c, 0, 64, 119
1, 972321, Control_c, 0, 67, 62
1, 972338, Control_c, 0, 64, 94
1, 972356, Control_c, 0, 64, 63
1, 972358, Control_c, 0, 67, 56
1, 972375, Control_c, 0, 64, 54
1, 972393, Control_c, 0, 64, 58
1, 972394, Control_c, 0, 67, 49
1, 972413, Control_c, 0, 64, 69
1, 972414, Control_c, 0, 67, 44
1, 972431, Control_c, 0, 64, 78
1, 972432, Control_c, 0, 67, 36
1, 972450, Control_c, 0, 64, 88
1, 972452, Control_c, 0, 67, 28
1, 972468, Control_c, 0, 64, 102
1, 972469, Control_c, 0, 67, 21
1, 972489, Control_c, 0, 64, 118
1, 972490, Control_c, 0, 67, 17
1, 972506, Control_c, 0, 64, 127
1, 972524, Control_c, 0, 67, 13
1, 972622, Note_on_c, 0, 44, 0
1, 972622, Poly_aftertouch_c, 0, 44, 0
1, 972637, Control_c, 0, 67, 8
1, 972686, Note_on_c, 0, 51, 41
1, 972707, Note_on_c, 0, 60, 29
1, 972720, Note_on_c, 0, 67, 0
1, 972720, Poly_aftertouch_c, 0, 67, 0
1, 972747, Note_on_c, 0, 51, 0
1, 972747, Poly_aftertouch_c, 0, 51, 0
1, 972950, Poly_aftertouch_c, 0, 60, 22
1, 972996, Note_on_c, 0, 60, 0
1, 972996, Poly_aftertouch_c, 0, 60, 0
1, 973240, Note_on_c, 0, 63, 34
1, 973256, Note_on_c, 0, 58, 23
1, 973330, Note_on_c, 0, 70, 58
1, 973365, Note_on_c, 0, 67, 38
1, 973421, Control_c, 0, 67, 0
1, 973496, Note_on_c, 0, 63, 0
1, 973614, Poly_aftertouch_c, 0, 58, 24
1, 973648, Note_on_c, 0, 67, 0
1, 973648, Poly_aftertouch_c, 0, 67, 0
1, 973667, Note_on_c, 0, 58, 0
1, 973667, Poly_aftertouch_c, 0, 58, 0
1, 973673, Note_on_c, 0, 60, 41
1, 973891, Note_on_c, 0, 68, 69
1, 973903, Note_on_c, 0, 59, 45
1, 973927, Note_on_c, 0, 60, 0
1, 973927, Poly_aftertouch_c, 0, 60, 0
1, 973928, Note_on_c, 0, 65, 44
1, 974000, Note_on_c, 0, 59, 0
1, 974000, Poly_aftertouch_c, 0, 59, 0
1, 974023, Note_on_c, 0, 70, 0
1, 974037, Note_on_c, 0, 65, 0
1, 974091, Note_on_c, 0, 68, 0
1, 974114, Note_on_c, 0, 60, 48
1, 974132, Note_on_c, 0, 51, 42
1, 974193, Note_on_c, 0, 60, 0
1, 974193, Poly_aftertouch_c, 0, 60, 0
1, 974201, Note_on_c, 0, 51, 0
1, 974201, Poly_aftertouch_c, 0, 51, 0
1, 974369, Note_on_c, 0, 67, 67
1, 974375, Control_c, 0, 67, 8
1, 974395, Note_on_c, 0, 57, 31
1, 974395, Control_c, 0, 64, 122
1, 974399, Note_on_c, 0, 63, 49
1, 974412, Control_c, 0, 64, 94
1, 974432, Control_c, 0, 64, 62
1, 974434, Control_c, 0, 67, 13
1, 974451, Control_c, 0, 64, 51
1, 974469, Control_c, 0, 64, 56
1, 974470, Control_c, 0, 67, 17
1, 974488, Control_c, 0, 64, 68
1, 974506, Control_c, 0, 64, 79
1, 974508, Control_c, 0, 67, 24
1, 974525, Control_c, 0, 64, 88
1, 974528, Control_c, 0, 67, 28
1, 974543, Control_c, 0, 64, 100
1, 974544, Control_c, 0, 67, 34
1, 974563, Control_c, 0, 64, 112
1, 974564, Control_c, 0, 67, 39
1, 974581, Control_c, 0, 64, 119
1, 974583, Control_c, 0, 67, 44
1, 974600, Control_c, 0, 67, 49
1, 974618, Control_c, 0, 67, 53
1, 974635, Note_on_c, 0, 63, 0
1, 974635, Control_c, 0, 67, 57
1, 974637, Poly_aftertouch_c, 0, 57, 20
1, 974640, Note_on_c, 0, 57, 0
1, 974640, Poly_aftertouch_c, 0, 57, 0
1, 974642, Note_on_c, 0, 58, 49
1, 974669, Note_on_c, 0, 48, 38
1, 974674, Control_c, 0, 64, 123
1, 974674, Control_c, 0, 67, 64
1, 974712, Control_c, 0, 67, 71
1, 974729, Note_on_c, 0, 58, 0
1, 974729, Poly_aftertouch_c, 0, 58, 0
1, 974749, Control_c, 0, 67, 78
1, 974756, Note_on_c, 0, 48, 0
1, 974787, Control_c, 0, 67, 84
1, 974824, Control_c, 0, 67, 89
1, 974862, Control_c, 0, 67, 93
1, 974871, Note_on_c, 0, 67, 0
1, 974871, Poly_aftertouch_c, 0, 67, 0
1, 974899, Control_c, 0, 67, 97
1, 974918, Note_on_c, 0, 65, 50
1, 974927, Note_on_c, 0, 56, 42
1, 974935, Control_c, 0, 64, 117
1, 974937, Note_on_c, 0, 63, 37
1, 974937, Control_c, 0, 67, 103
1, 974955, Control_c, 0, 64, 97
1, 974974, Control_c, 0, 64, 68
1, 974977, Control_c, 0, 67, 109
1, 974993, Control_c, 0, 64, 45
1, 975011, Control_c, 0, 67, 114
1, 975030, Control_c, 0, 64, 52
1, 975049, Control_c, 0, 64, 66
1, 975068, Control_c, 0, 64, 76
1, 975085, Control_c, 0, 64, 85
1, 975106, Control_c, 0, 64, 94
1, 975123, Control_c, 0, 64, 99
1, 975180, Control_c, 0, 64, 104
1, 975187, Note_on_c, 0, 56, 0
1, 975219, Note_on_c, 0, 47, 36
1, 975228, Note_on_c, 0, 57, 27
1, 975234, Control_c, 0, 64, 108
1, 975273, Control_c, 0, 64, 113
1, 975278, Note_on_c, 0, 47, 0
1, 975308, Note_on_c, 0, 65, 0
1, 975310, Note_on_c, 0, 57, 0
1, 975310, Poly_aftertouch_c, 0, 57, 0
1, 975310, Control_c, 0, 64, 117
1, 975415, Note_on_c, 0, 63, 0
1, 975537, Note_on_c, 0, 67, 46
1, 975568, Note_on_c, 0, 62, 31
1, 975569, Note_on_c, 0, 55, 31
1, 975571, Control_c, 0, 64, 108
1, 975591, Control_c, 0, 64, 89
1, 975610, Control_c, 0, 64, 66
1, 975629, Control_c, 0, 64, 62
1, 975631, Control_c, 0, 67, 110
1, 975647, Control_c, 0, 64, 65
1, 975666, Control_c, 0, 64, 72
1, 975684, Control_c, 0, 64, 79
1, 975685, Control_c, 0, 67, 106
1, 975703, Control_c, 0, 64, 88
1, 975722, Control_c, 0, 64, 97
1, 975722, Control_c, 0, 67, 101
1, 975740, Control_c, 0, 64, 104
1, 975759, Control_c, 0, 64, 108
1, 975760, Control_c, 0, 67, 97
1, 975797, Control_c, 0, 64, 113
1, 975798, Control_c, 0, 67, 91
1, 975834, Control_c, 0, 64, 117
1, 975835, Control_c, 0, 67, 87
1, 975837, Note_on_c, 0, 55, 0
1, 975862, Note_on_c, 0, 62, 0
1, 975880, Note_on_c, 0, 46, 36
1, 975888, Control_c, 0, 64, 123
1, 975892, Note_on_c, 0, 56, 45
1, 975909, Control_c, 0, 67, 82
1, 975927, Control_c, 0, 64, 127
1, 975964, Control_c, 0, 67, 77
1, 975965, Note_on_c, 0, 46, 0
1, 976003, Control_c, 0, 67, 72
1, 976039, Control_c, 0, 67, 67
1, 976077, Control_c, 0, 67, 61
1, 976114, Control_c, 0, 67, 57
1, 976152, Control_c, 0, 67, 52
1, 976189, Control_c, 0, 67, 45
1, 976208, Control_c, 0, 67, 41
1, 976226, Control_c, 0, 67, 36
1, 976231, Poly_aftertouch_c, 0, 67, 22
1, 976246, Control_c, 0, 67, 32
1, 976264, Control_c, 0, 67, 28
1, 976284, Control_c, 0, 67, 24
1, 976286, Note_on_c, 0, 56, 0
1, 976312, Note_on_c, 0, 67, 0
1, 976312, Poly_aftertouch_c, 0, 67, 0
1, 976318, Control_c, 0, 67, 18
1, 976364, Note_on_c, 0, 39, 57
1, 976377, Control_c, 0, 67, 13
1, 976434, Control_c, 0, 67, 9
1, 976487, Note_on_c, 0, 58, 59
1, 976694, Control_c, 0, 67, 0
1, 976702, Note_on_c, 0, 58, 0
1, 976702, Poly_aftertouch_c, 0, 58, 0
1, 976829, Note_on_c, 0, 46, 60
1, 976859, Note_on_c, 0, 39, 0
1, 976922, Note_on_c, 0, 46, 0
1, 976947, Note_on_c, 0, 67, 75
1, 977233, Note_on_c, 0, 63, 57
1, 977246, Note_on_c, 0, 56, 49
1, 977357, Note_on_c, 0, 79, 82
1, 977358, Note_on_c, 0, 63, 0
1, 977375, Note_on_c, 0, 67, 0
1, 977375, Poly_aftertouch_c, 0, 67, 0
1, 977379, Note_on_c, 0, 72, 57
1, 977544, Note_on_c, 0, 79, 0
1, 977579, Note_on_c, 0, 72, 0
1, 977579, Poly_aftertouch_c, 0, 72, 0
1, 977722, Note_on_c, 0, 46, 51
1, 977759, Note_on_c, 0, 56, 0
1, 977777, Note_on_c, 0, 46, 0
1, 977779, Note_on_c, 0, 62, 55
1, 977848, Note_on_c, 0, 62, 0
1, 977994, Note_on_c, 0, 71, 62
1, 978002, Note_on_c, 0, 62, 55
1, 978022, Note_on_c, 0, 56, 37
1, 978026, Note_on_c, 0, 67, 43
1, 978030, Note_on_c, 0, 62, 0
1, 978076, Note_on_c, 0, 71, 0
1, 978092, Note_on_c, 0, 67, 0
1, 978092, Poly_aftertouch_c, 0, 67, 0
1, 978120, Note_on_c, 0, 56, 0
1, 978223, Note_on_c, 0, 46, 66
1, 978228, Note_on_c, 0, 70, 85
1, 978244, Note_on_c, 0, 58, 61
1, 978256, Note_on_c, 0, 46, 0
1, 978295, Note_on_c, 0, 58, 0
1, 978295, Poly_aftertouch_c, 0, 58, 0
1, 978393, Note_on_c, 0, 70, 0
1, 978508, Note_on_c, 0, 70, 85
1, 978524, Note_on_c, 0, 67, 65
1, 978525, Note_on_c, 0, 39, 65
1, 978526, Control_c, 0, 64, 104
1, 978540, Note_on_c, 0, 62, 47
1, 978545, Control_c, 0, 64, 57
1, 978565, Control_c, 0, 64, 0
1, 978620, Control_c, 0, 64, 35
1, 978640, Control_c, 0, 64, 67
1, 978657, Control_c, 0, 64, 96
1, 978676, Control_c, 0, 64, 127
1, 978768, Note_on_c, 0, 46, 61
1, 978779, Note_on_c, 0, 39, 0
1, 978835, Note_on_c, 0, 46, 0
1, 978902, Note_on_c, 0, 61, 79
1, 978932, Note_on_c, 0, 62, 0
1, 978932, Note_on_c, 0, 67, 0
1, 978932, Poly_aftertouch_c, 0, 67, 0
1, 978963, Note_on_c, 0, 61, 0
1, 978963, Poly_aftertouch_c, 0, 61, 0
1, 978972, Note_on_c, 0, 70, 0
1, 979113, Note_on_c, 0, 60, 60
1, 979126, Note_on_c, 0, 54, 47
1, 979234, Note_on_c, 0, 75, 84
1, 979255, Note_on_c, 0, 63, 49
1, 979267, Note_on_c, 0, 69, 49
1, 979273, Control_c, 0, 64, 121
1, 979293, Control_c, 0, 64, 84
1, 979312, Control_c, 0, 64, 50
1, 979330, Control_c, 0, 64, 41
1, 979349, Control_c, 0, 64, 55
1, 979358, Note_on_c, 0, 60, 0
1, 979358, Poly_aftertouch_c, 0, 60, 0
1, 979369, Control_c, 0, 64, 77
1, 979386, Control_c, 0, 64, 96
1, 979405, Control_c, 0, 64, 120
1, 979410, Note_on_c, 0, 69, 0
1, 979410, Poly_aftertouch_c, 0, 69, 0
1, 979424, Control_c, 0, 64, 127
1, 979437, Note_on_c, 0, 75, 0
1, 979437, Poly_aftertouch_c, 0, 75, 0
1, 979473, Note_on_c, 0, 63, 0
1, 979593, Note_on_c, 0, 46, 55
1, 979597, Note_on_c, 0, 54, 0
1, 979618, Note_on_c, 0, 59, 63
1, 979706, Note_on_c, 0, 46, 0
1, 979715, Note_on_c, 0, 59, 0
1, 979715, Poly_aftertouch_c, 0, 59, 0
1, 979838, Note_on_c, 0, 59, 55
1, 979850, Note_on_c, 0, 68, 70
1, 979854, Note_on_c, 0, 55, 45
1, 979867, Note_on_c, 0, 63, 56
1, 979893, Note_on_c, 0, 59, 0
1, 979893, Poly_aftertouch_c, 0, 59, 0
1, 979991, Note_on_c, 0, 63, 0
1, 980057, Note_on_c, 0, 55, 0
1, 980066, Note_on_c, 0, 67, 73
1, 980075, Note_on_c, 0, 46, 66
1, 980111, Note_on_c, 0, 68, 0
1, 980113, Note_on_c, 0, 46, 0
1, 980114, Note_on_c, 0, 67, 0
1, 980114, Poly_aftertouch_c, 0, 67, 0
1, 980327, Note_on_c, 0, 43, 66
1, 980405, Note_on_c, 0, 74, 84
1, 980436, Note_on_c, 0, 70, 54
1, 980438, Note_on_c, 0, 67, 51
1, 980453, Control_c, 0, 64, 116
1, 980472, Control_c, 0, 64, 84
1, 980491, Control_c, 0, 64, 50
1, 980509, Control_c, 0, 64, 30
1, 980527, Control_c, 0, 64, 42
1, 980545, Control_c, 0, 64, 64
1, 980565, Control_c, 0, 64, 80
1, 980583, Control_c, 0, 64, 94
1, 980602, Control_c, 0, 64, 114
1, 980621, Control_c, 0, 64, 127
1, 980636, Note_on_c, 0, 43, 0
1, 980640, Note_on_c, 0, 50, 61
1, 980657, Note_on_c, 0, 66, 73
1, 980669, Note_on_c, 0, 70, 0
1, 980676, Note_on_c, 0, 67, 0
1, 980676, Poly_aftertouch_c, 0, 67, 0
1, 980678, Note_on_c, 0, 50, 0
1, 980687, Note_on_c, 0, 74, 0
1, 980782, Note_on_c, 0, 66, 0
1, 980782, Poly_aftertouch_c, 0, 66, 0
1, 980935, Note_on_c, 0, 61, 60
1, 980939, Note_on_c, 0, 73, 81
1, 980963, Note_on_c, 0, 57, 52
1, 980971, Note_on_c, 0, 65, 53
1, 980975, Note_on_c, 0, 69, 46
1, 980977, Control_c, 0, 64, 108
1, 980994, Control_c, 0, 64, 72
1, 981013, Control_c, 0, 64, 56
1, 981032, Control_c, 0, 64, 66
1, 981051, Control_c, 0, 64, 84
1, 981069, Control_c, 0, 64, 105
1, 981076, Note_on_c, 0, 61, 0
1, 981076, Poly_aftertouch_c, 0, 61, 0
1, 981084, Note_on_c, 0, 57, 0
1, 981084, Poly_aftertouch_c, 0, 57, 0
1, 981086, Control_c, 0, 64, 127
1, 981098, Note_on_c, 0, 65, 0
1, 981197, Note_on_c, 0, 64, 62
1, 981381, Note_on_c, 0, 43, 67
1, 981407, Control_c, 0, 64, 102
1, 981425, Control_c, 0, 64, 66
1, 981444, Control_c, 0, 64, 62
1, 981461, Control_c, 0, 64, 77
1, 981481, Control_c, 0, 64, 95
1, 981499, Control_c, 0, 64, 125
1, 981520, Note_on_c, 0, 64, 0
1, 981548, Note_on_c, 0, 73, 0
1, 981657, Note_on_c, 0, 50, 53
1, 981658, Note_on_c, 0, 74, 77
1, 981660, Note_on_c, 0, 43, 0
1, 981679, Note_on_c, 0, 65, 54
1, 981698, Note_on_c, 0, 50, 0
1, 981708, Note_on_c, 0, 69, 0
1, 981708, Poly_aftertouch_c, 0, 69, 0
1, 981722, Note_on_c, 0, 65, 0
1, 981761, Control_c, 0, 67, 8
1, 981766, Note_on_c, 0, 74, 0
1, 981818, Control_c, 0, 67, 12
1, 981913, Control_c, 0, 67, 16
1, 981945, Note_on_c, 0, 72, 67
1, 981946, Note_on_c, 0, 64, 48
1, 981948, Control_c, 0, 67, 23
1, 981965, Note_on_c, 0, 56, 46
1, 981968, Control_c, 0, 64, 95
1, 981969, Control_c, 0, 67, 28
1, 981971, Note_on_c, 0, 60, 47
1, 981975, Note_on_c, 0, 68, 47
1, 981987, Control_c, 0, 64, 61
1, 981988, Control_c, 0, 67, 33
1, 982004, Control_c, 0, 64, 0
1, 982006, Control_c, 0, 67, 38
1, 982022, Control_c, 0, 67, 43
1, 982042, Control_c, 0, 64, 22
1, 982044, Control_c, 0, 67, 48
1, 982060, Control_c, 0, 64, 50
1, 982062, Control_c, 0, 67, 53
1, 982080, Control_c, 0, 64, 71
1, 982081, Control_c, 0, 67, 57
1, 982098, Control_c, 0, 64, 85
1, 982116, Note_on_c, 0, 60, 0
1, 982116, Poly_aftertouch_c, 0, 60, 0
1, 982117, Control_c, 0, 64, 98
1, 982119, Control_c, 0, 67, 65
1, 982135, Control_c, 0, 64, 110
1, 982135, Control_c, 0, 67, 69
1, 982146, Note_on_c, 0, 56, 0
1, 982153, Control_c, 0, 64, 117
1, 982173, Control_c, 0, 64, 122
1, 982175, Control_c, 0, 67, 74
1, 982192, Control_c, 0, 64, 126
1, 982229, Control_c, 0, 67, 79
1, 982253, Note_on_c, 0, 63, 49
1, 982266, Control_c, 0, 67, 83
1, 982275, Note_on_c, 0, 64, 0
1, 982464, Note_on_c, 0, 43, 51
1, 982509, Control_c, 0, 64, 114
1, 982528, Control_c, 0, 64, 78
1, 982546, Control_c, 0, 64, 61
1, 982566, Control_c, 0, 64, 67
1, 982584, Control_c, 0, 64, 74
1, 982603, Control_c, 0, 64, 85
1, 982622, Control_c, 0, 64, 98
1, 982627, Note_on_c, 0, 63, 0
1, 982640, Control_c, 0, 64, 114
1, 982660, Note_on_c, 0, 72, 0
1, 982660, Poly_aftertouch_c, 0, 72, 0
1, 982660, Control_c, 0, 64, 127
1, 982678, Note_on_c, 0, 68, 0
1, 982752, Control_c, 0, 67, 87
1, 982769, Note_on_c, 0, 74, 69
1, 982779, Note_on_c, 0, 64, 57
1, 982790, Control_c, 0, 67, 91
1, 982791, Note_on_c, 0, 50, 45
1, 982797, Note_on_c, 0, 43, 0
1, 982818, Note_on_c, 0, 74, 0
1, 982825, Control_c, 0, 67, 97
1, 982834, Note_on_c, 0, 50, 0
1, 982838, Note_on_c, 0, 64, 0
1, 982864, Control_c, 0, 67, 104
1, 982902, Control_c, 0, 67, 111
1, 982958, Control_c, 0, 67, 116
1, 983032, Control_c, 0, 67, 120
1, 983126, Control_c, 0, 67, 124
1, 983208, Note_on_c, 0, 70, 51
1, 983216, Note_on_c, 0, 58, 34
1, 983221, Note_on_c, 0, 63, 40
1, 983238, Note_on_c, 0, 55, 32
1, 983238, Control_c, 0, 64, 112
1, 983250, Note_on_c, 0, 67, 36
1, 983256, Control_c, 0, 64, 81
1, 983276, Control_c, 0, 64, 45
1, 983295, Control_c, 0, 64, 12
1, 983313, Control_c, 0, 64, 27
1, 983332, Control_c, 0, 64, 47
1, 983350, Control_c, 0, 64, 64
1, 983369, Control_c, 0, 64, 78
1, 983389, Control_c, 0, 64, 90
1, 983407, Control_c, 0, 64, 103
1, 983425, Control_c, 0, 64, 111
1, 983444, Control_c, 0, 64, 115
1, 983465, Note_on_c, 0, 58, 0
1, 983465, Poly_aftertouch_c, 0, 58, 0
1, 983481, Control_c, 0, 64, 120
1, 983518, Note_on_c, 0, 55, 0
1, 983518, Control_c, 0, 64, 124
1, 983624, Poly_aftertouch_c, 0, 63, 24
1, 983701, Poly_aftertouch_c, 0, 67, 24
1, 983721, Note_on_c, 0, 63, 0
1, 983721, Poly_aftertouch_c, 0, 63, 0
1, 983722, Poly_aftertouch_c, 0, 63, 0
1, 983754, Note_on_c, 0, 67, 0
1, 983754, Poly_aftertouch_c, 0, 67, 0
1, 983759, Note_on_c, 0, 62, 39
1, 984099, Control_c, 0, 64, 106
1, 984111, Note_on_c, 0, 34, 53
1, 984118, Control_c, 0, 64, 73
1, 984136, Control_c, 0, 64, 36
1, 984154, Control_c, 0, 64, 18
1, 984173, Control_c, 0, 64, 34
1, 984192, Control_c, 0, 64, 56
1, 984210, Control_c, 0, 64, 73
1, 984229, Control_c, 0, 64, 85
1, 984249, Control_c, 0, 64, 98
1, 984267, Control_c, 0, 64, 109
1, 984285, Control_c, 0, 64, 114
1, 984292, Poly_aftertouch_c, 0, 62, 20
1, 984342, Control_c, 0, 64, 118
1, 984398, Control_c, 0, 67, 118
1, 984416, Control_c, 0, 64, 123
1, 984437, Control_c, 0, 67, 114
1, 984463, Note_on_c, 0, 62, 0
1, 984463, Poly_aftertouch_c, 0, 62, 0
1, 984472, Control_c, 0, 64, 127
1, 984481, Note_on_c, 0, 34, 0
1, 984491, Control_c, 0, 67, 109
1, 984510, Note_on_c, 0, 41, 43
1, 984519, Note_on_c, 0, 58, 32
1, 984528, Control_c, 0, 67, 105
1, 984555, Note_on_c, 0, 41, 0
1, 984565, Control_c, 0, 67, 101
1, 984604, Control_c, 0, 67, 96
1, 984659, Control_c, 0, 67, 92
1, 984683, Note_on_c, 0, 58, 0
1, 984683, Poly_aftertouch_c, 0, 58, 0
1, 984716, Control_c, 0, 67, 88
1, 984771, Control_c, 0, 67, 83
1, 984827, Control_c, 0, 67, 79
1, 984874, Note_on_c, 0, 65, 53
1, 984880, Note_on_c, 0, 57, 52
1, 984883, Control_c, 0, 67, 75
1, 984921, Note_on_c, 0, 46, 33
1, 984928, Note_on_c, 0, 62, 26
1, 984941, Control_c, 0, 67, 70
1, 984955, Note_on_c, 0, 57, 0
1, 984955, Poly_aftertouch_c, 0, 57, 0
1, 984977, Control_c, 0, 67, 66
1, 984993, Poly_aftertouch_c, 0, 50, 127
1, 985014, Control_c, 0, 67, 61
1, 985027, Poly_aftertouch_c, 0, 70, 24
1, 985036, Poly_aftertouch_c, 0, 50, 0
1, 985040, Note_on_c, 0, 46, 0
1, 985053, Control_c, 0, 67, 56
1, 985089, Note_on_c, 0, 70, 0
1, 985089, Poly_aftertouch_c, 0, 70, 0
1, 985107, Control_c, 0, 67, 52
1, 985161, Note_on_c, 0, 58, 42
1, 985164, Note_on_c, 0, 41, 47
1, 985173, Note_on_c, 0, 62, 0
1, 985173, Poly_aftertouch_c, 0, 62, 0
1, 985184, Note_on_c, 0, 65, 0
1, 985207, Note_on_c, 0, 41, 0
1, 985220, Control_c, 0, 67, 48
1, 985229, Note_on_c, 0, 58, 0
1, 985229, Poly_aftertouch_c, 0, 58, 0
1, 985277, Control_c, 0, 67, 43
1, 985332, Control_c, 0, 67, 39
1, 985355, Note_on_c, 0, 70, 73
1, 985386, Note_on_c, 0, 56, 57
1, 985400, Note_on_c, 0, 65, 38
1, 985403, Note_on_c, 0, 62, 34
1, 985412, Note_on_c, 0, 46, 43
1, 985424, Note_on_c, 0, 50, 24
1, 985429, Note_on_c, 0, 56, 0
1, 985488, Note_on_c, 0, 50, 0
1, 985523, Note_on_c, 0, 65, 0
1, 985537, Note_on_c, 0, 62, 0
1, 985537, Poly_aftertouch_c, 0, 62, 0
1, 985552, Note_on_c, 0, 70, 0
1, 985552, Poly_aftertouch_c, 0, 70, 0
1, 985569, Note_on_c, 0, 46, 0
1, 985593, Note_on_c, 0, 58, 53
1, 985593, Note_on_c, 0, 41, 53
1, 985629, Note_on_c, 0, 58, 0
1, 985629, Poly_aftertouch_c, 0, 58, 0
1, 985632, Note_on_c, 0, 41, 0
1, 985931, Note_on_c, 0, 72, 77
1, 985939, Note_on_c, 0, 34, 51
1, 985950, Control_c, 0, 64, 115
1, 985968, Control_c, 0, 64, 80
1, 985988, Control_c, 0, 64, 44
1, 986006, Control_c, 0, 64, 25
1, 986024, Control_c, 0, 64, 43
1, 986042, Control_c, 0, 64, 67
1, 986062, Control_c, 0, 64, 84
1, 986081, Control_c, 0, 64, 102
1, 986088, Note_on_c, 0, 72, 0
1, 986088, Poly_aftertouch_c, 0, 72, 0
1, 986100, Control_c, 0, 64, 122
1, 986118, Control_c, 0, 64, 127
1, 986203, Note_on_c, 0, 34, 0
1, 986244, Note_on_c, 0, 58, 50
1, 986253, Note_on_c, 0, 41, 50
1, 986296, Note_on_c, 0, 41, 0
1, 986302, Note_on_c, 0, 58, 0
1, 986302, Poly_aftertouch_c, 0, 58, 0
1, 986581, Note_on_c, 0, 55, 40
1, 986581, Note_on_c, 0, 65, 45
1, 986590, Note_on_c, 0, 61, 36
1, 986635, Note_on_c, 0, 46, 19
1, 986638, Note_on_c, 0, 49, 21
1, 986702, Note_on_c, 0, 55, 0
1, 986724, Note_on_c, 0, 49, 0
1, 986750, Note_on_c, 0, 46, 0
1, 986773, Note_on_c, 0, 61, 0
1, 986773, Poly_aftertouch_c, 0, 61, 0
1, 986815, Note_on_c, 0, 58, 51
1, 986822, Note_on_c, 0, 41, 46
1, 986832, Note_on_c, 0, 65, 0
1, 986862, Note_on_c, 0, 41, 0
1, 986876, Note_on_c, 0, 58, 0
1, 986876, Poly_aftertouch_c, 0, 58, 0
1, 987024, Note_on_c, 0, 70, 69
1, 987044, Note_on_c, 0, 56, 55
1, 987058, Note_on_c, 0, 65, 43
1, 987060, Note_on_c, 0, 61, 36
1, 987082, Note_on_c, 0, 46, 35
1, 987084, Note_on_c, 0, 49, 23
1, 987090, Note_on_c, 0, 56, 0
1, 987176, Note_on_c, 0, 49, 0
1, 987230, Note_on_c, 0, 46, 0
1, 987259, Note_on_c, 0, 41, 58
1, 987271, Note_on_c, 0, 58, 54
1, 987295, Note_on_c, 0, 41, 0
1, 987330, Note_on_c, 0, 58, 0
1, 987330, Poly_aftertouch_c, 0, 58, 0
1, 987483, Control_c, 0, 64, 109
1, 987501, Control_c, 0, 64, 66
1, 987503, Note_on_c, 0, 34, 68
1, 987521, Control_c, 0, 64, 0
1, 987595, Control_c, 0, 64, 49
1, 987612, Poly_aftertouch_c, 0, 65, 22
1, 987613, Control_c, 0, 64, 73
1, 987634, Control_c, 0, 64, 97
1, 987651, Control_c, 0, 64, 127
1, 987720, Poly_aftertouch_c, 0, 61, 24
1, 987747, Note_on_c, 0, 34, 0
1, 987757, Note_on_c, 0, 41, 55
1, 987761, Note_on_c, 0, 61, 0
1, 987761, Poly_aftertouch_c, 0, 61, 0
1, 987768, Note_on_c, 0, 58, 45
1, 987796, Note_on_c, 0, 41, 0
1, 987800, Note_on_c, 0, 65, 0
1, 987800, Poly_aftertouch_c, 0, 65, 0
1, 987804, Note_on_c, 0, 70, 0
1, 987804, Poly_aftertouch_c, 0, 70, 0
1, 987820, Note_on_c, 0, 58, 0
1, 987820, Poly_aftertouch_c, 0, 58, 0
1, 987876, Control_c, 0, 67, 35
1, 988007, Control_c, 0, 67, 30
1, 988082, Control_c, 0, 67, 26
1, 988091, Note_on_c, 0, 69, 73
1, 988093, Note_on_c, 0, 57, 55
1, 988130, Note_on_c, 0, 62, 44
1, 988140, Note_on_c, 0, 46, 41
1, 988159, Note_on_c, 0, 50, 23
1, 988174, Control_c, 0, 67, 21
1, 988213, Poly_aftertouch_c, 0, 65, 127
1, 988216, Note_on_c, 0, 57, 0
1, 988216, Poly_aftertouch_c, 0, 57, 0
1, 988249, Control_c, 0, 67, 17
1, 988340, Note_on_c, 0, 46, 0
1, 988351, Note_on_c, 0, 50, 0
1, 988361, Control_c, 0, 67, 13
1, 988373, Note_on_c, 0, 58, 60
1, 988384, Note_on_c, 0, 41, 61
1, 988393, Poly_aftertouch_c, 0, 65, 0
1, 988411, Note_on_c, 0, 62, 0
1, 988411, Poly_aftertouch_c, 0, 62, 0
1, 988427, Note_on_c, 0, 41, 0
1, 988466, Note_on_c, 0, 58, 0
1, 988466, Poly_aftertouch_c, 0, 58, 0
1, 988571, Note_on_c, 0, 65, 57
1, 988583, Note_on_c, 0, 56, 65
1, 988586, Note_on_c, 0, 62, 39
1, 988612, Note_on_c, 0, 46, 43
1, 988634, Note_on_c, 0, 69, 0
1, 988634, Poly_aftertouch_c, 0, 69, 0
1, 988642, Note_on_c, 0, 56, 0
1, 988661, Note_on_c, 0, 50, 7
1, 988744, Note_on_c, 0, 50, 0
1, 988792, Control_c, 0, 67, 9
1, 988828, Note_on_c, 0, 41, 58
1, 988830, Note_on_c, 0, 46, 0
1, 988913, Note_on_c, 0, 41, 0
1, 988966, Note_on_c, 0, 70, 79
1, 988995, Note_on_c, 0, 58, 51
1, 989003, Note_on_c, 0, 62, 0
1, 989003, Poly_aftertouch_c, 0, 62, 0
1, 989033, Note_on_c, 0, 65, 0
1, 989169, Note_on_c, 0, 58, 0
1, 989169, Poly_aftertouch_c, 0, 58, 0
1, 989180, Note_on_c, 0, 70, 0
1, 989180, Poly_aftertouch_c, 0, 70, 0
1, 989231, Note_on_c, 0, 37, 70
1, 989315, Control_c, 0, 64, 118
1, 989320, Note_on_c, 0, 70, 84
1, 989335, Control_c, 0, 64, 90
1, 989343, Note_on_c, 0, 61, 54
1, 989353, Control_c, 0, 64, 54
1, 989371, Control_c, 0, 64, 0
1, 989379, Note_on_c, 0, 65, 34
1, 989409, Control_c, 0, 64, 13
1, 989428, Control_c, 0, 64, 56
1, 989446, Control_c, 0, 64, 83
1, 989466, Control_c, 0, 64, 109
1, 989484, Control_c, 0, 64, 127
1, 989622, Note_on_c, 0, 70, 0
1, 989622, Poly_aftertouch_c, 0, 70, 0
1, 989670, Note_on_c, 0, 43, 58
1, 989716, Note_on_c, 0, 37, 0
1, 989716, Poly_aftertouch_c, 0, 37, 0
1, 989768, Note_on_c, 0, 43, 0
1, 989815, Note_on_c, 0, 69, 80
1, 989838, Note_on_c, 0, 57, 54
1, 989877, Control_c, 0, 67, 13
1, 989890, Note_on_c, 0, 65, 0
1, 989951, Note_on_c, 0, 57, 0
1, 989951, Poly_aftertouch_c, 0, 57, 0
1, 989970, Control_c, 0, 67, 18
1, 989999, Note_on_c, 0, 69, 0
1, 989999, Poly_aftertouch_c, 0, 69, 0
1, 990001, Note_on_c, 0, 61, 0
1, 990001, Poly_aftertouch_c, 0, 61, 0
1, 990007, Control_c, 0, 67, 22
1, 990045, Control_c, 0, 67, 27
1, 990082, Control_c, 0, 64, 110
1, 990083, Control_c, 0, 67, 33
1, 990102, Control_c, 0, 64, 73
1, 990104, Control_c, 0, 67, 38
1, 990115, Note_on_c, 0, 57, 45
1, 990116, Note_on_c, 0, 69, 70
1, 990120, Control_c, 0, 64, 28
1, 990122, Control_c, 0, 67, 42
1, 990131, Note_on_c, 0, 61, 57
1, 990135, Note_on_c, 0, 53, 39
1, 990138, Note_on_c, 0, 49, 38
1, 990139, Control_c, 0, 64, 0
1, 990141, Control_c, 0, 67, 46
1, 990157, Control_c, 0, 64, 34
1, 990159, Control_c, 0, 67, 50
1, 990167, Note_on_c, 0, 65, 24
1, 990168, Note_on_c, 0, 57, 0
1, 990168, Poly_aftertouch_c, 0, 57, 0
1, 990176, Control_c, 0, 64, 59
1, 990194, Control_c, 0, 64, 79
1, 990195, Control_c, 0, 67, 56
1, 990213, Control_c, 0, 64, 93
1, 990228, Note_on_c, 0, 69, 0
1, 990228, Poly_aftertouch_c, 0, 69, 0
1, 990232, Control_c, 0, 64, 110
1, 990234, Control_c, 0, 67, 61
1, 990247, Note_on_c, 0, 53, 0
1, 990247, Poly_aftertouch_c, 0, 53, 0
1, 990250, Control_c, 0, 64, 121
1, 990269, Control_c, 0, 64, 125
1, 990287, Control_c, 0, 67, 65
1, 990297, Note_on_c, 0, 61, 0
1, 990297, Poly_aftertouch_c, 0, 61, 0
1, 990302, Note_on_c, 0, 65, 0
1, 990307, Poly_aftertouch_c, 0, 61, 0
1, 990332, Note_on_c, 0, 49, 0
1, 990343, Control_c, 0, 67, 71
1, 990380, Control_c, 0, 64, 102
1, 990381, Note_on_c, 0, 68, 73
1, 990382, Control_c, 0, 67, 75
1, 990388, Note_on_c, 0, 56, 63
1, 990396, Note_on_c, 0, 43, 36
1, 990398, Control_c, 0, 64, 69
1, 990401, Control_c, 0, 67, 79
1, 990419, Control_c, 0, 64, 52
1, 990421, Control_c, 0, 67, 83
1, 990437, Control_c, 0, 64, 54
1, 990438, Control_c, 0, 67, 88
1, 990450, Note_on_c, 0, 56, 0
1, 990455, Control_c, 0, 64, 64
1, 990456, Control_c, 0, 67, 92
1, 990458, Note_on_c, 0, 43, 0
1, 990475, Control_c, 0, 64, 75
1, 990476, Control_c, 0, 67, 97
1, 990494, Control_c, 0, 64, 85
1, 990498, Control_c, 0, 67, 101
1, 990513, Control_c, 0, 64, 97
1, 990531, Control_c, 0, 64, 110
1, 990532, Control_c, 0, 67, 106
1, 990550, Control_c, 0, 64, 119
1, 990553, Note_on_c, 0, 68, 0
1, 990569, Control_c, 0, 67, 111
1, 990605, Control_c, 0, 64, 112
1, 990607, Control_c, 0, 67, 116
1, 990626, Control_c, 0, 64, 88
1, 990644, Control_c, 0, 64, 56
1, 990659, Note_on_c, 0, 68, 61
1, 990662, Control_c, 0, 64, 34
1, 990671, Note_on_c, 0, 59, 49
1, 990680, Control_c, 0, 64, 38
1, 990690, Note_on_c, 0, 62, 32
1, 990697, Control_c, 0, 64, 50
1, 990706, Note_on_c, 0, 53, 14
1, 990716, Control_c, 0, 64, 65
1, 990718, Note_on_c, 0, 59, 0
1, 990718, Note_on_c, 0, 65, 7
1, 990718, Poly_aftertouch_c, 0, 59, 0
1, 990724, Note_on_c, 0, 50, 13
1, 990736, Control_c, 0, 64, 77
1, 990756, Control_c, 0, 64, 86
1, 990775, Control_c, 0, 64, 96
1, 990789, Note_on_c, 0, 53, 0
1, 990789, Poly_aftertouch_c, 0, 53, 0
1, 990791, Control_c, 0, 64, 104
1, 990811, Control_c, 0, 64, 109
1, 990829, Note_on_c, 0, 65, 0
1, 990850, Control_c, 0, 64, 114
1, 990916, Note_on_c, 0, 68, 0
1, 990920, Note_on_c, 0, 50, 0
1, 990952, Note_on_c, 0, 62, 0
1, 990952, Poly_aftertouch_c, 0, 62, 0
1, 991028, Note_on_c, 0, 67, 51
1, 991035, Control_c, 0, 64, 101
1, 991045, Note_on_c, 0, 55, 39
1, 991050, Note_on_c, 0, 43, 46
1, 991053, Control_c, 0, 64, 82
1, 991074, Control_c, 0, 64, 65
1, 991092, Control_c, 0, 64, 67
1, 991111, Control_c, 0, 64, 74
1, 991129, Control_c, 0, 64, 83
1, 991148, Control_c, 0, 64, 94
1, 991166, Control_c, 0, 64, 108
1, 991167, Note_on_c, 0, 43, 0
1, 991186, Control_c, 0, 64, 120
1, 991204, Control_c, 0, 64, 127
1, 991205, Control_c, 0, 67, 111
1, 991252, Note_on_c, 0, 55, 0
1, 991260, Control_c, 0, 67, 105
1, 991316, Control_c, 0, 67, 101
1, 991372, Control_c, 0, 67, 96
1, 991391, Control_c, 0, 67, 92
1, 991402, Note_on_c, 0, 36, 61
1, 991408, Control_c, 0, 67, 88
1, 991448, Control_c, 0, 67, 81
1, 991465, Control_c, 0, 64, 88
1, 991486, Control_c, 0, 67, 77
1, 991505, Control_c, 0, 64, 0
1, 991540, Control_c, 0, 67, 73
1, 991559, Control_c, 0, 64, 50
1, 991578, Control_c, 0, 64, 71
1, 991579, Control_c, 0, 67, 65
1, 991596, Control_c, 0, 64, 86
1, 991598, Control_c, 0, 67, 60
1, 991616, Control_c, 0, 64, 98
1, 991618, Control_c, 0, 67, 54
1, 991635, Control_c, 0, 64, 108
1, 991637, Control_c, 0, 67, 47
1, 991654, Control_c, 0, 64, 114
1, 991655, Control_c, 0, 67, 40
1, 991671, Control_c, 0, 64, 120
1, 991672, Control_c, 0, 67, 33
1, 991690, Control_c, 0, 64, 127
1, 991692, Control_c, 0, 67, 26
1, 991700, Note_on_c, 0, 36, 0
1, 991700, Note_on_c, 0, 43, 54
1, 991708, Control_c, 0, 67, 19
1, 991716, Note_on_c, 0, 67, 0
1, 991716, Poly_aftertouch_c, 0, 67, 0
1, 991727, Note_on_c, 0, 60, 38
1, 991727, Control_c, 0, 67, 11
1, 991740, Note_on_c, 0, 43, 0
1, 991821, Control_c, 0, 67, 0
1, 991904, Note_on_c, 0, 60, 0
1, 991904, Poly_aftertouch_c, 0, 60, 0
1, 991975, Note_on_c, 0, 67, 77
1, 991986, Note_on_c, 0, 59, 59
1, 992006, Note_on_c, 0, 64, 49
1, 992020, Note_on_c, 0, 48, 38
1, 992027, Note_on_c, 0, 59, 0
1, 992027, Poly_aftertouch_c, 0, 59, 0
1, 992037, Note_on_c, 0, 52, 19
1, 992090, Note_on_c, 0, 48, 0
1, 992125, Note_on_c, 0, 52, 0
1, 992216, Note_on_c, 0, 43, 41
1, 992231, Note_on_c, 0, 60, 58
1, 992260, Note_on_c, 0, 43, 0
1, 992289, Note_on_c, 0, 67, 0
1, 992289, Poly_aftertouch_c, 0, 67, 0
1, 992293, Note_on_c, 0, 64, 0
1, 992309, Note_on_c, 0, 60, 0
1, 992309, Poly_aftertouch_c, 0, 60, 0
1, 992453, Note_on_c, 0, 58, 62
1, 992458, Note_on_c, 0, 72, 88
1, 992467, Note_on_c, 0, 52, 55
1, 992484, Note_on_c, 0, 64, 53
1, 992488, Note_on_c, 0, 48, 48
1, 992500, Note_on_c, 0, 58, 0
1, 992500, Poly_aftertouch_c, 0, 58, 0
1, 992502, Note_on_c, 0, 67, 28
1, 992597, Note_on_c, 0, 52, 0
1, 992667, Note_on_c, 0, 48, 0
1, 992676, Note_on_c, 0, 43, 65
1, 992683, Note_on_c, 0, 60, 69
1, 992714, Note_on_c, 0, 43, 0
1, 992755, Note_on_c, 0, 72, 0
1, 992755, Poly_aftertouch_c, 0, 72, 0
1, 992861, Note_on_c, 0, 60, 0
1, 992861, Poly_aftertouch_c, 0, 60, 0
1, 992960, Poly_aftertouch_c, 0, 67, 24
1, 992970, Note_on_c, 0, 36, 79
1, 993061, Note_on_c, 0, 73, 86
1, 993131, Note_on_c, 0, 67, 0
1, 993131, Poly_aftertouch_c, 0, 67, 0
1, 993132, Poly_aftertouch_c, 0, 67, 0
1, 993149, Control_c, 0, 64, 97
1, 993168, Control_c, 0, 64, 60
1, 993187, Control_c, 0, 64, 0
1, 993202, Note_on_c, 0, 64, 0
1, 993244, Control_c, 0, 64, 47
1, 993261, Control_c, 0, 64, 84
1, 993280, Control_c, 0, 64, 121
1, 993298, Control_c, 0, 64, 127
1, 993353, Note_on_c, 0, 42, 60
1, 993357, Note_on_c, 0, 36, 0
1, 993399, Note_on_c, 0, 42, 0
1, 993399, Poly_aftertouch_c, 0, 42, 0
1, 993429, Note_on_c, 0, 60, 59
1, 993529, Note_on_c, 0, 60, 0
1, 993529, Poly_aftertouch_c, 0, 60, 0
1, 993625, Note_on_c, 0, 57, 58
1, 993639, Note_on_c, 0, 48, 38
1, 993657, Note_on_c, 0, 51, 52
1, 993664, Note_on_c, 0, 66, 49
1, 993666, Note_on_c, 0, 57, 0
1, 993666, Note_on_c, 0, 63, 40
1, 993666, Poly_aftertouch_c, 0, 57, 0
1, 993707, Note_on_c, 0, 48, 0
1, 993746, Note_on_c, 0, 51, 0
1, 993746, Poly_aftertouch_c, 0, 51, 0
1, 993776, Note_on_c, 0, 63, 0
1, 993804, Note_on_c, 0, 66, 0
1, 993804, Poly_aftertouch_c, 0, 66, 0
1, 993829, Note_on_c, 0, 73, 0
1, 993869, Note_on_c, 0, 42, 56
1, 993887, Note_on_c, 0, 60, 49
1, 993912, Note_on_c, 0, 42, 0
1, 993912, Poly_aftertouch_c, 0, 42, 0
1, 993967, Note_on_c, 0, 60, 0
1, 993967, Poly_aftertouch_c, 0, 60, 0
1, 994170, Note_on_c, 0, 72, 67
1, 994186, Note_on_c, 0, 63, 45
1, 994189, Note_on_c, 0, 58, 54
1, 994192, Note_on_c, 0, 66, 46
1, 994199, Note_on_c, 0, 51, 40
1, 994218, Note_on_c, 0, 48, 40
1, 994233, Control_c, 0, 64, 93
1, 994252, Control_c, 0, 64, 65
1, 994270, Control_c, 0, 64, 61
1, 994289, Control_c, 0, 64, 67
1, 994292, Note_on_c, 0, 58, 0
1, 994292, Poly_aftertouch_c, 0, 58, 0
1, 994308, Control_c, 0, 64, 76
1, 994328, Control_c, 0, 64, 85
1, 994345, Control_c, 0, 64, 98
1, 994363, Control_c, 0, 64, 116
1, 994383, Control_c, 0, 64, 127
1, 994417, Note_on_c, 0, 51, 0
1, 994417, Poly_aftertouch_c, 0, 51, 0
1, 994420, Note_on_c, 0, 48, 0
1, 994434, Note_on_c, 0, 42, 58
1, 994450, Note_on_c, 0, 60, 50
1, 994471, Note_on_c, 0, 42, 0
1, 994471, Poly_aftertouch_c, 0, 42, 0
1, 994545, Note_on_c, 0, 60, 0
1, 994545, Poly_aftertouch_c, 0, 60, 0
1, 994669, Note_on_c, 0, 36, 81
1, 994682, Control_c, 0, 64, 123
1, 994701, Control_c, 0, 64, 90
1, 994720, Control_c, 0, 64, 51
1, 994739, Control_c, 0, 64, 0
1, 994747, Poly_aftertouch_c, 0, 66, 24
1, 994776, Control_c, 0, 64, 52
1, 994794, Control_c, 0, 64, 87
1, 994813, Control_c, 0, 64, 122
1, 994831, Control_c, 0, 64, 127
1, 994869, Note_on_c, 0, 72, 0
1, 994869, Poly_aftertouch_c, 0, 72, 0
1, 994905, Note_on_c, 0, 66, 0
1, 994905, Poly_aftertouch_c, 0, 66, 0
1, 994908, Note_on_c, 0, 36, 0
1, 994908, Note_on_c, 0, 43, 66
1, 994917, Note_on_c, 0, 60, 61
1, 994936, Note_on_c, 0, 63, 0
1, 994940, Note_on_c, 0, 43, 0
1, 994974, Note_on_c, 0, 60, 0
1, 994974, Poly_aftertouch_c, 0, 60, 0
1, 995188, Note_on_c, 0, 59, 68
1, 995214, Note_on_c, 0, 71, 85
1, 995217, Note_on_c, 0, 48, 46
1, 995218, Note_on_c, 0, 52, 53
1, 995233, Note_on_c, 0, 59, 0
1, 995233, Poly_aftertouch_c, 0, 59, 0
1, 995250, Note_on_c, 0, 64, 57
1, 995298, Note_on_c, 0, 48, 0
1, 995310, Note_on_c, 0, 67, 6
1, 995390, Note_on_c, 0, 52, 0
1, 995406, Note_on_c, 0, 67, 0
1, 995434, Note_on_c, 0, 43, 72
1, 995446, Note_on_c, 0, 60, 72
1, 995470, Note_on_c, 0, 43, 0
1, 995470, Note_on_c, 0, 64, 0
1, 995597, Note_on_c, 0, 60, 0
1, 995597, Poly_aftertouch_c, 0, 60, 0
1, 995656, Note_on_c, 0, 58, 71
1, 995661, Note_on_c, 0, 52, 65
1, 995668, Note_on_c, 0, 67, 79
1, 995686, Note_on_c, 0, 64, 60
1, 995690, Note_on_c, 0, 48, 53
1, 995695, Note_on_c, 0, 58, 0
1, 995695, Poly_aftertouch_c, 0, 58, 0
1, 995727, Note_on_c, 0, 71, 0
1, 995862, Note_on_c, 0, 43, 71
1, 995863, Note_on_c, 0, 52, 0
1, 995876, Note_on_c, 0, 48, 0
1, 995894, Note_on_c, 0, 43, 0
1, 995969, Note_on_c, 0, 72, 91
1, 995983, Note_on_c, 0, 67, 0
1, 996009, Note_on_c, 0, 64, 0
1, 996011, Note_on_c, 0, 60, 50
1, 996177, Note_on_c, 0, 60, 0
1, 996177, Poly_aftertouch_c, 0, 60, 0
1, 996217, Note_on_c, 0, 72, 0
1, 996217, Poly_aftertouch_c, 0, 72, 0
1, 996279, Note_on_c, 0, 33, 80
1, 996393, Note_on_c, 0, 72, 85
1, 996402, Control_c, 0, 64, 112
1, 996422, Control_c, 0, 64, 68
1, 996426, Note_on_c, 0, 63, 47
1, 996442, Control_c, 0, 64, 0
1, 996494, Poly_aftertouch_c, 0, 67, 127
1, 996495, Control_c, 0, 64, 49
1, 996515, Control_c, 0, 64, 87
1, 996533, Control_c, 0, 64, 110
1, 996552, Control_c, 0, 64, 127
1, 996607, Note_on_c, 0, 72, 0
1, 996607, Poly_aftertouch_c, 0, 72, 0
1, 996697, Poly_aftertouch_c, 0, 67, 22
1, 996751, Poly_aftertouch_c, 0, 67, 0
1, 996764, Note_on_c, 0, 33, 0
1, 996776, Note_on_c, 0, 45, 64
1, 996848, Note_on_c, 0, 45, 0
1, 996886, Note_on_c, 0, 71, 82
1, 996889, Control_c, 0, 67, 8
1, 996911, Note_on_c, 0, 59, 54
1, 996950, Note_on_c, 0, 63, 0
1, 996974, Note_on_c, 0, 59, 0
1, 996974, Poly_aftertouch_c, 0, 59, 0
1, 996981, Control_c, 0, 67, 12
1, 997070, Note_on_c, 0, 71, 0
1, 997094, Control_c, 0, 67, 17
1, 997131, Control_c, 0, 67, 23
1, 997151, Control_c, 0, 64, 101
1, 997152, Control_c, 0, 67, 27
1, 997170, Control_c, 0, 64, 58
1, 997173, Control_c, 0, 67, 32
1, 997184, Note_on_c, 0, 71, 69
1, 997189, Control_c, 0, 64, 0
1, 997190, Control_c, 0, 67, 37
1, 997197, Note_on_c, 0, 59, 54
1, 997203, Note_on_c, 0, 63, 49
1, 997204, Note_on_c, 0, 55, 44
1, 997209, Control_c, 0, 67, 44
1, 997213, Note_on_c, 0, 51, 41
1, 997221, Note_on_c, 0, 67, 36
1, 997226, Control_c, 0, 64, 29
1, 997227, Control_c, 0, 67, 50
1, 997236, Note_on_c, 0, 59, 0
1, 997236, Poly_aftertouch_c, 0, 59, 0
1, 997242, Control_c, 0, 64, 58
1, 997263, Control_c, 0, 64, 79
1, 997264, Control_c, 0, 67, 56
1, 997282, Control_c, 0, 64, 96
1, 997291, Note_on_c, 0, 71, 0
1, 997295, Note_on_c, 0, 55, 0
1, 997300, Control_c, 0, 64, 116
1, 997300, Control_c, 0, 67, 60
1, 997311, Note_on_c, 0, 67, 0
1, 997317, Control_c, 0, 64, 127
1, 997339, Control_c, 0, 67, 66
1, 997356, Control_c, 0, 67, 70
1, 997369, Note_on_c, 0, 63, 0
1, 997371, Note_on_c, 0, 51, 0
1, 997371, Poly_aftertouch_c, 0, 51, 0
1, 997373, Control_c, 0, 67, 75
1, 997392, Control_c, 0, 67, 80
1, 997412, Control_c, 0, 67, 85
1, 997425, Note_on_c, 0, 45, 60
1, 997431, Control_c, 0, 64, 121
1, 997431, Control_c, 0, 67, 91
1, 997445, Note_on_c, 0, 70, 68
1, 997449, Control_c, 0, 64, 87
1, 997452, Note_on_c, 0, 58, 59
1, 997452, Control_c, 0, 67, 96
1, 997468, Control_c, 0, 64, 64
1, 997472, Control_c, 0, 67, 101
1, 997487, Control_c, 0, 64, 68
1, 997489, Control_c, 0, 67, 106
1, 997490, Note_on_c, 0, 45, 0
1, 997505, Control_c, 0, 64, 75
1, 997507, Note_on_c, 0, 58, 0
1, 997507, Poly_aftertouch_c, 0, 58, 0
1, 997524, Control_c, 0, 64, 85
1, 997526, Control_c, 0, 67, 112
1, 997543, Control_c, 0, 64, 100
1, 997546, Note_on_c, 0, 70, 0
1, 997546, Poly_aftertouch_c, 0, 70, 0
1, 997562, Control_c, 0, 64, 118
1, 997580, Control_c, 0, 64, 127
1, 997693, Control_c, 0, 64, 112
1, 997707, Note_on_c, 0, 70, 63
1, 997711, Control_c, 0, 64, 77
1, 997730, Control_c, 0, 64, 51
1, 997741, Note_on_c, 0, 55, 46
1, 997741, Note_on_c, 0, 61, 49
1, 997751, Note_on_c, 0, 67, 36
1, 997751, Note_on_c, 0, 64, 35
1, 997767, Note_on_c, 0, 52, 31
1, 997767, Control_c, 0, 64, 59
1, 997786, Control_c, 0, 64, 71
1, 997788, Note_on_c, 0, 61, 0
1, 997804, Control_c, 0, 64, 83
1, 997824, Control_c, 0, 64, 98
1, 997834, Note_on_c, 0, 67, 0
1, 997842, Control_c, 0, 64, 115
1, 997847, Note_on_c, 0, 55, 0
1, 997861, Control_c, 0, 64, 127
1, 997882, Note_on_c, 0, 70, 0
1, 997882, Poly_aftertouch_c, 0, 70, 0
1, 997896, Note_on_c, 0, 64, 0
1, 997930, Note_on_c, 0, 52, 0
1, 997991, Control_c, 0, 67, 108
1, 998085, Control_c, 0, 67, 103
1, 998100, Note_on_c, 0, 69, 61
1, 998103, Control_c, 0, 64, 119
1, 998115, Note_on_c, 0, 57, 47
1, 998120, Note_on_c, 0, 45, 45
1, 998121, Control_c, 0, 64, 91
1, 998141, Control_c, 0, 64, 61
1, 998161, Control_c, 0, 64, 54
1, 998162, Control_c, 0, 67, 99
1, 998178, Control_c, 0, 64, 59
1, 998197, Control_c, 0, 64, 70
1, 998217, Control_c, 0, 64, 80
1, 998218, Control_c, 0, 67, 95
1, 998235, Control_c, 0, 64, 94
1, 998253, Control_c, 0, 64, 111
1, 998273, Control_c, 0, 64, 126
1, 998282, Note_on_c, 0, 45, 0
1, 998290, Control_c, 0, 67, 90
1, 998329, Control_c, 0, 67, 85
1, 998348, Note_on_c, 0, 57, 0
1, 998348, Poly_aftertouch_c, 0, 57, 0
1, 998366, Control_c, 0, 67, 81
1, 998403, Control_c, 0, 67, 77
1, 998441, Control_c, 0, 67, 71
1, 998478, Control_c, 0, 67, 64
1, 998514, Control_c, 0, 67, 59
1, 998551, Note_on_c, 0, 38, 59
1, 998572, Control_c, 0, 67, 54
1, 998590, Control_c, 0, 64, 106
1, 998611, Control_c, 0, 64, 74
1, 998614, Control_c, 0, 67, 50
1, 998627, Control_c, 0, 64, 43
1, 998665, Control_c, 0, 64, 55
1, 998666, Control_c, 0, 67, 45
1, 998684, Control_c, 0, 64, 73
1, 998703, Control_c, 0, 64, 88
1, 998705, Control_c, 0, 67, 41
1, 998720, Control_c, 0, 64, 106
1, 998740, Control_c, 0, 64, 120
1, 998742, Control_c, 0, 67, 37
1, 998758, Control_c, 0, 64, 125
1, 998777, Control_c, 0, 67, 31
1, 998815, Control_c, 0, 67, 26
1, 998848, Note_on_c, 0, 69, 0
1, 998848, Poly_aftertouch_c, 0, 69, 0
1, 998850, Control_c, 0, 67, 22
1, 998890, Control_c, 0, 67, 18
1, 998893, Note_on_c, 0, 45, 40
1, 998901, Note_on_c, 0, 38, 0
1, 998901, Poly_aftertouch_c, 0, 38, 0
1, 998902, Note_on_c, 0, 62, 40
1, 998938, Note_on_c, 0, 45, 0
1, 998946, Control_c, 0, 67, 13
1, 998980, Note_on_c, 0, 62, 0
1, 998980, Poly_aftertouch_c, 0, 62, 0
1, 999057, Control_c, 0, 67, 9
1, 999261, Note_on_c, 0, 69, 64
1, 999271, Note_on_c, 0, 61, 47
1, 999303, Note_on_c, 0, 50, 45
1, 999305, Note_on_c, 0, 54, 39
1, 999328, Note_on_c, 0, 66, 26
1, 999340, Note_on_c, 0, 61, 0
1, 999370, Note_on_c, 0, 50, 0
1, 999402, Note_on_c, 0, 54, 0
1, 999511, Note_on_c, 0, 66, 0
1, 999511, Poly_aftertouch_c, 0, 66, 0
1, 999540, Note_on_c, 0, 45, 55
1, 999545, Note_on_c, 0, 69, 0
1, 999545, Poly_aftertouch_c, 0, 69, 0
1, 999559, Note_on_c, 0, 62, 46
1, 999586, Note_on_c, 0, 45, 0
1, 999632, Note_on_c, 0, 62, 0
1, 999632, Poly_aftertouch_c, 0, 62, 0
1, 999675, Control_c, 0, 67, 0
1, 999779, Note_on_c, 0, 74, 75
1, 999794, Note_on_c, 0, 60, 58
1, 999802, Note_on_c, 0, 54, 54
1, 999822, Note_on_c, 0, 69, 48
1, 999825, Note_on_c, 0, 66, 42
1, 999835, Note_on_c, 0, 60, 0
1, 999835, Poly_aftertouch_c, 0, 60, 0
1, 999842, Note_on_c, 0, 50, 33
1, 999932, Note_on_c, 0, 50, 0
1, 999946, Note_on_c, 0, 74, 0
1, 999991, Note_on_c, 0, 69, 0
1, 999991, Poly_aftertouch_c, 0, 69, 0
1, 1000014, Note_on_c, 0, 66, 0
1, 1000014, Poly_aftertouch_c, 0, 66, 0
1, 1000035, Note_on_c, 0, 62, 57
1, 1000042, Note_on_c, 0, 45, 55
1, 1000044, Note_on_c, 0, 54, 0
1, 1000074, Note_on_c, 0, 62, 0
1, 1000074, Poly_aftertouch_c, 0, 62, 0
1, 1000093, Note_on_c, 0, 45, 0
1, 1000251, Note_on_c, 0, 75, 86
1, 1000328, Control_c, 0, 64, 106
1, 1000347, Control_c, 0, 64, 75
1, 1000367, Control_c, 0, 64, 63
1, 1000383, Poly_aftertouch_c, 0, 68, 127
1, 1000384, Control_c, 0, 64, 69
1, 1000403, Control_c, 0, 64, 77
1, 1000423, Control_c, 0, 64, 85
1, 1000441, Control_c, 0, 64, 94
1, 1000460, Control_c, 0, 64, 107
1, 1000478, Control_c, 0, 64, 121
1, 1000490, Poly_aftertouch_c, 0, 68, 0
1, 1000492, Note_on_c, 0, 50, 61
1, 1000495, Note_on_c, 0, 63, 61
1, 1000497, Control_c, 0, 64, 127
1, 1000533, Note_on_c, 0, 50, 0
1, 1000541, Note_on_c, 0, 63, 0
1, 1000726, Note_on_c, 0, 72, 72
1, 1000738, Note_on_c, 0, 66, 63
1, 1000751, Note_on_c, 0, 60, 58
1, 1000760, Note_on_c, 0, 68, 47
1, 1000770, Note_on_c, 0, 75, 0
1, 1000770, Poly_aftertouch_c, 0, 75, 0
1, 1000830, Note_on_c, 0, 66, 0
1, 1000830, Poly_aftertouch_c, 0, 66, 0
1, 1000883, Note_on_c, 0, 60, 0
1, 1000883, Poly_aftertouch_c, 0, 60, 0
1, 1000908, Note_on_c, 0, 68, 0
1, 1000910, Note_on_c, 0, 72, 0
1, 1000910, Poly_aftertouch_c, 0, 72, 0
1, 1000944, Note_on_c, 0, 56, 65
1, 1000950, Note_on_c, 0, 63, 76
1, 1001029, Note_on_c, 0, 63, 0
1, 1001036, Note_on_c, 0, 56, 0
1, 1001188, Note_on_c, 0, 67, 73
1, 1001207, Note_on_c, 0, 60, 64
1, 1001221, Note_on_c, 0, 76, 93
1, 1001242, Note_on_c, 0, 68, 63
1, 1001260, Note_on_c, 0, 67, 0
1, 1001331, Poly_aftertouch_c, 0, 72, 0
1, 1001439, Note_on_c, 0, 60, 0
1, 1001439, Note_on_c, 0, 56, 71
1, 1001439, Poly_aftertouch_c, 0, 60, 0
1, 1001443, Note_on_c, 0, 68, 0
1, 1001467, Note_on_c, 0, 56, 0
1, 1001509, Note_on_c, 0, 64, 80
1, 1001573, Note_on_c, 0, 76, 0
1, 1001573, Poly_aftertouch_c, 0, 76, 0
1, 1001635, Note_on_c, 0, 64, 0
1, 1001775, Note_on_c, 0, 43, 75
1, 1001777, Note_on_c, 0, 31, 73
1, 1001788, Control_c, 0, 64, 92
1, 1001800, Note_on_c, 0, 77, 94
1, 1001805, Control_c, 0, 64, 50
1, 1001820, Note_on_c, 0, 71, 63
1, 1001822, Note_on_c, 0, 74, 61
1, 1001824, Control_c, 0, 64, 15
1, 1001843, Control_c, 0, 64, 44
1, 1001861, Note_on_c, 0, 31, 0
1, 1001863, Control_c, 0, 64, 75
1, 1001881, Control_c, 0, 64, 106
1, 1001884, Note_on_c, 0, 43, 0
1, 1001899, Control_c, 0, 64, 127
1, 1001937, Note_on_c, 0, 74, 0
1, 1001999, Note_on_c, 0, 71, 0
1, 1002114, Note_on_c, 0, 74, 74
1, 1002117, Note_on_c, 0, 65, 76
1, 1002123, Note_on_c, 0, 59, 71
1, 1002123, Note_on_c, 0, 50, 63
1, 1002124, Note_on_c, 0, 71, 71
1, 1002137, Note_on_c, 0, 77, 0
1, 1002137, Poly_aftertouch_c, 0, 77, 0
1, 1002138, Note_on_c, 0, 53, 49
1, 1002171, Note_on_c, 0, 59, 0
1, 1002171, Poly_aftertouch_c, 0, 59, 0
1, 1002174, Note_on_c, 0, 53, 0
1, 1002174, Poly_aftertouch_c, 0, 53, 0
1, 1002189, Note_on_c, 0, 50, 0
1, 1002213, Note_on_c, 0, 65, 0
1, 1002258, Note_on_c, 0, 74, 0
1, 1002287, Note_on_c, 0, 71, 0
1, 1002396, Note_on_c, 0, 78, 97
1, 1002418, Note_on_c, 0, 59, 75
1, 1002420, Note_on_c, 0, 62, 75
1, 1002422, Note_on_c, 0, 54, 68
1, 1002422, Note_on_c, 0, 74, 80
1, 1002443, Note_on_c, 0, 71, 55
1, 1002504, Note_on_c, 0, 62, 0
1, 1002504, Poly_aftertouch_c, 0, 62, 0
1, 1002558, Note_on_c, 0, 59, 0
1, 1002558, Poly_aftertouch_c, 0, 59, 0
1, 1002570, Note_on_c, 0, 74, 0
1, 1002618, Note_on_c, 0, 71, 0
1, 1002667, Note_on_c, 0, 50, 75
1, 1002674, Note_on_c, 0, 66, 80
1, 1002680, Note_on_c, 0, 74, 82
1, 1002682, Note_on_c, 0, 59, 72
1, 1002683, Note_on_c, 0, 71, 62
1, 1002703, Note_on_c, 0, 50, 0
1, 1002704, Note_on_c, 0, 78, 0
1, 1002706, Note_on_c, 0, 66, 0
1, 1002706, Poly_aftertouch_c, 0, 66, 0
1, 1002726, Note_on_c, 0, 59, 0
1, 1002726, Poly_aftertouch_c, 0, 59, 0
1, 1002743, Note_on_c, 0, 54, 0
1, 1002751, Note_on_c, 0, 74, 0
1, 1002751, Note_on_c, 0, 71, 0
1, 1002981, Note_on_c, 0, 63, 89
1, 1002982, Note_on_c, 0, 79, 97
1, 1002987, Note_on_c, 0, 59, 80
1, 1002999, Note_on_c, 0, 75, 73
1, 1002999, Note_on_c, 0, 71, 68
1, 1003002, Note_on_c, 0, 55, 70
1, 1003052, Note_on_c, 0, 63, 0
1, 1003077, Note_on_c, 0, 75, 0
1, 1003077, Poly_aftertouch_c, 0, 75, 0
1, 1003120, Note_on_c, 0, 59, 0
1, 1003120, Poly_aftertouch_c, 0, 59, 0
1, 1003224, Note_on_c, 0, 71, 0
1, 1003266, Note_on_c, 0, 51, 78
1, 1003269, Note_on_c, 0, 59, 61
1, 1003289, Note_on_c, 0, 59, 0
1, 1003289, Note_on_c, 0, 55, 0
1, 1003289, Poly_aftertouch_c, 0, 59, 0
1, 1003302, Note_on_c, 0, 51, 0
1, 1003302, Poly_aftertouch_c, 0, 51, 0
1, 1003308, Note_on_c, 0, 67, 81
1, 1003309, Note_on_c, 0, 75, 86
1, 1003317, Note_on_c, 0, 71, 75
1, 1003545, Control_c, 0, 64, 117
1, 1003563, Control_c, 0, 64, 64
1, 1003568, Note_on_c, 0, 36, 91
1, 1003583, Control_c, 0, 64, 0
1, 1003620, Control_c, 0, 64, 21
1, 1003638, Control_c, 0, 64, 72
1, 1003658, Control_c, 0, 64, 106
1, 1003676, Control_c, 0, 64, 127
1, 1003716, Note_on_c, 0, 79, 0
1, 1003722, Note_on_c, 0, 71, 0
1, 1003742, Note_on_c, 0, 67, 0
1, 1003751, Note_on_c, 0, 75, 0
1, 1003751, Poly_aftertouch_c, 0, 75, 0
1, 1003827, Note_on_c, 0, 36, 0
1, 1003900, Note_on_c, 0, 52, 87
1, 1003936, Note_on_c, 0, 52, 0
1, 1004066, Note_on_c, 0, 82, 99
1, 1004072, Note_on_c, 0, 76, 77
1, 1004075, Note_on_c, 0, 70, 84
1, 1004078, Note_on_c, 0, 73, 71
1, 1004360, Note_on_c, 0, 76, 0
1, 1004360, Poly_aftertouch_c, 0, 76, 0
1, 1004366, Note_on_c, 0, 82, 0
1, 1004382, Note_on_c, 0, 73, 0
1, 1004450, Note_on_c, 0, 70, 0
1, 1004450, Poly_aftertouch_c, 0, 70, 0
1, 1004564, Note_on_c, 0, 52, 57
1, 1004587, Note_on_c, 0, 58, 59
1, 1004693, Note_on_c, 0, 61, 72
1, 1004699, Note_on_c, 0, 67, 69
1, 1004706, Note_on_c, 0, 73, 71
1, 1004706, Note_on_c, 0, 70, 66
1, 1004771, Note_on_c, 0, 58, 0
1, 1004771, Poly_aftertouch_c, 0, 58, 0
1, 1004846, Note_on_c, 0, 61, 0
1, 1004933, Note_on_c, 0, 67, 0
1, 1004976, Note_on_c, 0, 52, 0
1, 1004977, Note_on_c, 0, 70, 0
1, 1004977, Poly_aftertouch_c, 0, 70, 0
1, 1005005, Note_on_c, 0, 73, 0
1, 1005061, Note_on_c, 0, 61, 60
1, 1005062, Note_on_c, 0, 64, 65
1, 1005063, Note_on_c, 0, 76, 82
1, 1005075, Note_on_c, 0, 58, 55
1, 1005088, Note_on_c, 0, 70, 68
1, 1005108, Note_on_c, 0, 73, 37
1, 1005139, Note_on_c, 0, 64, 0
1, 1005172, Note_on_c, 0, 73, 0
1, 1005208, Note_on_c, 0, 61, 0
1, 1005210, Note_on_c, 0, 70, 0
1, 1005210, Poly_aftertouch_c, 0, 70, 0
1, 1005287, Note_on_c, 0, 52, 62
1, 1005338, Note_on_c, 0, 58, 0
1, 1005338, Note_on_c, 0, 58, 37
1, 1005352, Note_on_c, 0, 52, 0
1, 1005363, Note_on_c, 0, 61, 69
1, 1005367, Note_on_c, 0, 73, 80
1, 1005371, Note_on_c, 0, 70, 68
1, 1005375, Note_on_c, 0, 76, 0
1, 1005375, Note_on_c, 0, 67, 56
1, 1005375, Poly_aftertouch_c, 0, 76, 0
1, 1005407, Note_on_c, 0, 67, 0
1, 1005411, Note_on_c, 0, 58, 0
1, 1005411, Poly_aftertouch_c, 0, 58, 0
1, 1005431, Note_on_c, 0, 70, 0
1, 1005431, Poly_aftertouch_c, 0, 70, 0
1, 1005436, Note_on_c, 0, 61, 0
1, 1005437, Note_on_c, 0, 73, 0
1, 1005757, Note_on_c, 0, 64, 57
1, 1005763, Note_on_c, 0, 60, 55
1, 1005764, Note_on_c, 0, 70, 70
1, 1005816, Note_on_c, 0, 70, 0
1, 1005816, Poly_aftertouch_c, 0, 70, 0
1, 1005838, Note_on_c, 0, 80, 91
1, 1005848, Note_on_c, 0, 76, 68
1, 1005908, Note_on_c, 0, 72, 20
1, 1005934, Note_on_c, 0, 64, 0
1, 1005974, Note_on_c, 0, 72, 0
1, 1006094, Poly_aftertouch_c, 0, 60, 24
1, 1006179, Note_on_c, 0, 60, 0
1, 1006179, Poly_aftertouch_c, 0, 60, 0
1, 1006323, Note_on_c, 0, 64, 47
1, 1006331, Note_on_c, 0, 58, 45
1, 1006372, Note_on_c, 0, 64, 0
1, 1006396, Note_on_c, 0, 72, 53
1, 1006408, Note_on_c, 0, 68, 38
1, 1006426, Note_on_c, 0, 76, 0
1, 1006426, Poly_aftertouch_c, 0, 76, 0
1, 1006455, Note_on_c, 0, 58, 0
1, 1006455, Poly_aftertouch_c, 0, 58, 0
1, 1006600, Note_on_c, 0, 80, 0
1, 1006633, Note_on_c, 0, 68, 0
1, 1006806, Note_on_c, 0, 41, 73
1, 1006855, Note_on_c, 0, 79, 91
1, 1006957, Note_on_c, 0, 72, 0
1, 1006967, Control_c, 0, 64, 117
1, 1006986, Control_c, 0, 64, 71
1, 1007004, Control_c, 0, 64, 0
1, 1007024, Control_c, 0, 64, 46
1, 1007042, Control_c, 0, 64, 84
1, 1007060, Control_c, 0, 64, 107
1, 1007080, Control_c, 0, 64, 127
1, 1007151, Note_on_c, 0, 41, 0
1, 1007166, Note_on_c, 0, 51, 60
1, 1007244, Note_on_c, 0, 51, 0
1, 1007244, Poly_aftertouch_c, 0, 51, 0
1, 1007278, Note_on_c, 0, 75, 59
1, 1007297, Note_on_c, 0, 71, 49
1, 1007334, Note_on_c, 0, 79, 0
1, 1007348, Note_on_c, 0, 71, 0
1, 1007526, Note_on_c, 0, 77, 88
1, 1007542, Note_on_c, 0, 65, 51
1, 1007544, Note_on_c, 0, 59, 53
1, 1007546, Note_on_c, 0, 75, 0
1, 1007546, Poly_aftertouch_c, 0, 75, 0
1, 1007553, Note_on_c, 0, 70, 60
1, 1007554, Note_on_c, 0, 73, 61
1, 1007645, Note_on_c, 0, 73, 0
1, 1007666, Note_on_c, 0, 65, 0
1, 1007692, Note_on_c, 0, 70, 0
1, 1007692, Poly_aftertouch_c, 0, 70, 0
1, 1007839, Poly_aftertouch_c, 0, 59, 24
1, 1007842, Note_on_c, 0, 56, 61
1, 1007845, Note_on_c, 0, 68, 56
1, 1007847, Note_on_c, 0, 71, 61
1, 1007874, Note_on_c, 0, 59, 0
1, 1007874, Poly_aftertouch_c, 0, 59, 0
1, 1007874, Poly_aftertouch_c, 0, 59, 0
1, 1007886, Note_on_c, 0, 68, 0
1, 1007920, Note_on_c, 0, 71, 0
1, 1008074, Note_on_c, 0, 73, 71
1, 1008076, Note_on_c, 0, 70, 61
1, 1008098, Note_on_c, 0, 67, 53
1, 1008101, Note_on_c, 0, 63, 59
1, 1008150, Note_on_c, 0, 67, 0
1, 1008150, Note_on_c, 0, 56, 0
1, 1008169, Note_on_c, 0, 77, 0
1, 1008169, Poly_aftertouch_c, 0, 77, 0
1, 1008217, Note_on_c, 0, 63, 0
1, 1008275, Note_on_c, 0, 70, 0
1, 1008275, Poly_aftertouch_c, 0, 70, 0
1, 1008291, Note_on_c, 0, 59, 59
1, 1008291, Note_on_c, 0, 75, 71
1, 1008311, Note_on_c, 0, 71, 46
1, 1008316, Note_on_c, 0, 59, 0
1, 1008319, Note_on_c, 0, 73, 0
1, 1008384, Note_on_c, 0, 71, 0
1, 1008536, Control_c, 0, 64, 102
1, 1008538, Note_on_c, 0, 79, 89
1, 1008543, Note_on_c, 0, 43, 72
1, 1008558, Control_c, 0, 64, 56
1, 1008576, Control_c, 0, 64, 0
1, 1008579, Note_on_c, 0, 75, 0
1, 1008579, Poly_aftertouch_c, 0, 75, 0
1, 1008613, Control_c, 0, 64, 8
1, 1008631, Control_c, 0, 64, 51
1, 1008650, Control_c, 0, 64, 73
1, 1008668, Control_c, 0, 64, 91
1, 1008688, Control_c, 0, 64, 114
1, 1008706, Control_c, 0, 64, 127
1, 1008707, Note_on_c, 0, 43, 0
1, 1008750, Note_on_c, 0, 51, 66
1, 1008758, Note_on_c, 0, 73, 63
1, 1008761, Note_on_c, 0, 79, 0
1, 1008774, Note_on_c, 0, 70, 60
1, 1008790, Note_on_c, 0, 51, 0
1, 1008790, Poly_aftertouch_c, 0, 51, 0
1, 1008793, Note_on_c, 0, 73, 0
1, 1008805, Note_on_c, 0, 70, 0
1, 1008805, Poly_aftertouch_c, 0, 70, 0
1, 1009051, Note_on_c, 0, 63, 76
1, 1009068, Note_on_c, 0, 58, 61
1, 1009153, Note_on_c, 0, 75, 81
1, 1009175, Note_on_c, 0, 71, 53
1, 1009191, Note_on_c, 0, 68, 31
1, 1009246, Note_on_c, 0, 68, 0
1, 1009310, Note_on_c, 0, 63, 0
1, 1009431, Note_on_c, 0, 51, 56
1, 1009432, Note_on_c, 0, 71, 0
1, 1009432, Note_on_c, 0, 70, 64
1, 1009447, Note_on_c, 0, 67, 41
1, 1009472, Note_on_c, 0, 58, 0
1, 1009472, Poly_aftertouch_c, 0, 58, 0
1, 1009476, Note_on_c, 0, 51, 0
1, 1009476, Poly_aftertouch_c, 0, 51, 0
1, 1009490, Note_on_c, 0, 67, 0
1, 1009521, Note_on_c, 0, 70, 0
1, 1009521, Poly_aftertouch_c, 0, 70, 0
1, 1009624, Note_on_c, 0, 65, 62
1, 1009634, Note_on_c, 0, 68, 68
1, 1009640, Note_on_c, 0, 71, 64
1, 1009645, Note_on_c, 0, 58, 52
1, 1009650, Note_on_c, 0, 63, 55
1, 1009670, Note_on_c, 0, 65, 0
1, 1009707, Note_on_c, 0, 68, 0
1, 1009752, Note_on_c, 0, 63, 0
1, 1009825, Note_on_c, 0, 73, 73
1, 1009830, Note_on_c, 0, 67, 73
1, 1009848, Note_on_c, 0, 70, 48
1, 1009858, Note_on_c, 0, 71, 0
1, 1009861, Note_on_c, 0, 75, 0
1, 1009861, Poly_aftertouch_c, 0, 75, 0
1, 1009863, Note_on_c, 0, 67, 0
1, 1009875, Note_on_c, 0, 58, 0
1, 1009875, Note_on_c, 0, 70, 0
1, 1009875, Poly_aftertouch_c, 0, 58, 0
1, 1009875, Poly_aftertouch_c, 0, 70, 0
1, 1009881, Note_on_c, 0, 73, 0
1, 1009883, Control_c, 0, 67, 8
1, 1010131, Note_on_c, 0, 44, 68
1, 1010139, Note_on_c, 0, 79, 87
1, 1010183, Control_c, 0, 64, 83
1, 1010202, Control_c, 0, 64, 28
1, 1010221, Control_c, 0, 64, 0
1, 1010239, Control_c, 0, 67, 13
1, 1010258, Control_c, 0, 64, 38
1, 1010276, Control_c, 0, 64, 66
1, 1010296, Control_c, 0, 64, 83
1, 1010315, Control_c, 0, 64, 97
1, 1010332, Control_c, 0, 64, 110
1, 1010333, Control_c, 0, 67, 18
1, 1010352, Control_c, 0, 64, 116
1, 1010353, Control_c, 0, 67, 23
1, 1010373, Control_c, 0, 64, 120
1, 1010374, Control_c, 0, 67, 28
1, 1010389, Control_c, 0, 64, 124
1, 1010408, Control_c, 0, 67, 33
1, 1010419, Note_on_c, 0, 51, 52
1, 1010421, Note_on_c, 0, 44, 0
1, 1010421, Poly_aftertouch_c, 0, 44, 0
1, 1010445, Control_c, 0, 67, 38
1, 1010471, Note_on_c, 0, 51, 0
1, 1010471, Poly_aftertouch_c, 0, 51, 0
1, 1010478, Note_on_c, 0, 71, 57
1, 1010482, Control_c, 0, 67, 46
1, 1010490, Note_on_c, 0, 68, 41
1, 1010498, Control_c, 0, 67, 51
1, 1010503, Note_on_c, 0, 79, 0
1, 1010520, Control_c, 0, 67, 55
1, 1010556, Control_c, 0, 67, 61
1, 1010590, Note_on_c, 0, 71, 0
1, 1010594, Control_c, 0, 67, 65
1, 1010743, Note_on_c, 0, 62, 64
1, 1010777, Note_on_c, 0, 59, 36
1, 1010788, Note_on_c, 0, 56, 26
1, 1010806, Note_on_c, 0, 68, 0
1, 1010824, Note_on_c, 0, 74, 77
1, 1010840, Note_on_c, 0, 67, 55
1, 1010846, Note_on_c, 0, 59, 0
1, 1010862, Note_on_c, 0, 70, 36
1, 1010890, Note_on_c, 0, 67, 0
1, 1010961, Note_on_c, 0, 62, 0
1, 1010961, Poly_aftertouch_c, 0, 62, 0
1, 1011047, Note_on_c, 0, 56, 0
1, 1011095, Note_on_c, 0, 70, 0
1, 1011095, Poly_aftertouch_c, 0, 70, 0
1, 1011130, Note_on_c, 0, 51, 51
1, 1011133, Note_on_c, 0, 68, 54
1, 1011137, Note_on_c, 0, 65, 49
1, 1011170, Note_on_c, 0, 65, 0
1, 1011186, Note_on_c, 0, 68, 0
1, 1011240, Note_on_c, 0, 51, 0
1, 1011240, Poly_aftertouch_c, 0, 51, 0
1, 1011350, Note_on_c, 0, 63, 53
1, 1011358, Note_on_c, 0, 70, 60
1, 1011361, Note_on_c, 0, 67, 52
1, 1011374, Note_on_c, 0, 59, 47
1, 1011406, Note_on_c, 0, 63, 0
1, 1011413, Poly_aftertouch_c, 0, 51, 127
1, 1011427, Note_on_c, 0, 67, 0
1, 1011489, Note_on_c, 0, 59, 0
1, 1011528, Note_on_c, 0, 74, 0
1, 1011562, Note_on_c, 0, 71, 58
1, 1011569, Note_on_c, 0, 56, 59
1, 1011576, Note_on_c, 0, 68, 38
1, 1011602, Note_on_c, 0, 56, 0
1, 1011602, Note_on_c, 0, 71, 0
1, 1011602, Poly_aftertouch_c, 0, 51, 0
1, 1011622, Note_on_c, 0, 68, 0
1, 1011623, Note_on_c, 0, 70, 0
1, 1011623, Poly_aftertouch_c, 0, 70, 0
1, 1011624, Poly_aftertouch_c, 0, 70, 0
1, 1011774, Note_on_c, 0, 46, 10
1, 1011862, Note_on_c, 0, 46, 0
1, 1011863, Poly_aftertouch_c, 0, 46, 0
1, 1011938, Note_on_c, 0, 34, 58
1, 1012030, Note_on_c, 0, 79, 72
1, 1012090, Control_c, 0, 64, 95
1, 1012109, Control_c, 0, 64, 55
1, 1012127, Control_c, 0, 64, 0
1, 1012184, Control_c, 0, 64, 40
1, 1012203, Control_c, 0, 64, 63
1, 1012221, Control_c, 0, 64, 80
1, 1012241, Control_c, 0, 64, 92
1, 1012260, Control_c, 0, 64, 105
1, 1012276, Control_c, 0, 64, 112
1, 1012296, Control_c, 0, 64, 116
1, 1012334, Control_c, 0, 64, 121
1, 1012441, Note_on_c, 0, 34, 0
1, 1012465, Control_c, 0, 64, 125
1, 1012473, Note_on_c, 0, 79, 0
1, 1012521, Note_on_c, 0, 46, 39
1, 1012613, Control_c, 0, 67, 69
1, 1012652, Control_c, 0, 67, 75
1, 1012667, Note_on_c, 0, 46, 0
1, 1012687, Note_on_c, 0, 68, 37
1, 1012687, Control_c, 0, 67, 81
1, 1012699, Note_on_c, 0, 71, 40
1, 1012726, Control_c, 0, 67, 86
1, 1012763, Control_c, 0, 67, 92
1, 1012801, Control_c, 0, 67, 97
1, 1012838, Control_c, 0, 67, 101
1, 1012875, Note_on_c, 0, 71, 0
1, 1012875, Control_c, 0, 67, 106
1, 1012932, Control_c, 0, 67, 110
1, 1013120, Note_on_c, 0, 68, 0
1, 1013133, Note_on_c, 0, 60, 42
1, 1013174, Note_on_c, 0, 56, 28
1, 1013255, Note_on_c, 0, 72, 59
1, 1013281, Note_on_c, 0, 67, 38
1, 1013317, Note_on_c, 0, 70, 25
1, 1013360, Note_on_c, 0, 60, 0
1, 1013360, Poly_aftertouch_c, 0, 60, 0
1, 1013477, Poly_aftertouch_c, 0, 56, 24
1, 1013490, Note_on_c, 0, 67, 0
1, 1013542, Note_on_c, 0, 56, 0
1, 1013542, Poly_aftertouch_c, 0, 56, 0
1, 1013568, Control_c, 0, 67, 106
1, 1013661, Control_c, 0, 67, 102
1, 1013717, Control_c, 0, 67, 98
1, 1013720, Note_on_c, 0, 46, 49
1, 1013725, Note_on_c, 0, 68, 45
1, 1013734, Note_on_c, 0, 65, 37
1, 1013745, Poly_aftertouch_c, 0, 70, 24
1, 1013773, Control_c, 0, 67, 93
1, 1013775, Note_on_c, 0, 46, 0
1, 1013819, Note_on_c, 0, 68, 0
1, 1013824, Note_on_c, 0, 70, 0
1, 1013824, Poly_aftertouch_c, 0, 70, 0
1, 1013825, Poly_aftertouch_c, 0, 70, 0
1, 1013827, Control_c, 0, 67, 89
1, 1013829, Note_on_c, 0, 65, 0
1, 1013867, Control_c, 0, 67, 85
1, 1013923, Control_c, 0, 67, 80
1, 1013960, Control_c, 0, 67, 76
1, 1014014, Note_on_c, 0, 64, 59
1, 1014016, Control_c, 0, 67, 71
1, 1014031, Note_on_c, 0, 67, 46
1, 1014039, Note_on_c, 0, 61, 50
1, 1014059, Note_on_c, 0, 56, 34
1, 1014072, Control_c, 0, 67, 66
1, 1014089, Note_on_c, 0, 64, 0
1, 1014110, Note_on_c, 0, 67, 0
1, 1014157, Note_on_c, 0, 61, 0
1, 1014408, Note_on_c, 0, 71, 63
1, 1014411, Note_on_c, 0, 72, 0
1, 1014422, Note_on_c, 0, 62, 53
1, 1014425, Note_on_c, 0, 65, 45
1, 1014433, Note_on_c, 0, 68, 43
1, 1014466, Note_on_c, 0, 62, 0
1, 1014466, Poly_aftertouch_c, 0, 62, 0
1, 1014502, Control_c, 0, 64, 121
1, 1014520, Poly_aftertouch_c, 0, 56, 24
1, 1014554, Note_on_c, 0, 56, 0
1, 1014554, Poly_aftertouch_c, 0, 56, 0
1, 1014689, Control_c, 0, 64, 116
1, 1014724, Poly_aftertouch_c, 0, 68, 24
1, 1014764, Control_c, 0, 64, 112
1, 1014796, Note_on_c, 0, 68, 0
1, 1014796, Poly_aftertouch_c, 0, 68, 0
1, 1014821, Control_c, 0, 64, 107
1, 1014845, Note_on_c, 0, 71, 0
1, 1014913, Control_c, 0, 64, 101
1, 1014989, Control_c, 0, 64, 97
1, 1015045, Control_c, 0, 64, 92
1, 1015113, Note_on_c, 0, 39, 39
1, 1015118, Control_c, 0, 64, 87
1, 1015157, Control_c, 0, 64, 85
1, 1015166, Note_on_c, 0, 65, 0
1, 1015213, Control_c, 0, 64, 82
1, 1015232, Control_c, 0, 64, 79
1, 1015237, Note_on_c, 0, 77, 67
1, 1015251, Control_c, 0, 64, 76
1, 1015269, Control_c, 0, 64, 71
1, 1015289, Control_c, 0, 64, 55
1, 1015306, Control_c, 0, 64, 0
1, 1015362, Control_c, 0, 64, 40
1, 1015381, Control_c, 0, 64, 67
1, 1015400, Control_c, 0, 64, 84
1, 1015419, Control_c, 0, 64, 97
1, 1015437, Control_c, 0, 64, 109
1, 1015457, Control_c, 0, 64, 116
1, 1015493, Control_c, 0, 64, 121
1, 1015615, Note_on_c, 0, 77, 0
1, 1015615, Poly_aftertouch_c, 0, 77, 0
1, 1015661, Note_on_c, 0, 46, 39
1, 1015739, Note_on_c, 0, 39, 0
1, 1015787, Note_on_c, 0, 46, 0
1, 1015825, Note_on_c, 0, 62, 46
1, 1015942, Control_c, 0, 64, 127
1, 1015979, Note_on_c, 0, 62, 0
1, 1015979, Poly_aftertouch_c, 0, 62, 0
1, 1016164, Note_on_c, 0, 61, 53
1, 1016214, Note_on_c, 0, 56, 29
1, 1016247, Note_on_c, 0, 70, 56
1, 1016305, Note_on_c, 0, 61, 0
1, 1016346, Poly_aftertouch_c, 0, 65, 127
1, 1016347, Poly_aftertouch_c, 0, 68, 127
1, 1016392, Poly_aftertouch_c, 0, 65, 0
1, 1016408, Poly_aftertouch_c, 0, 68, 0
1, 1016485, Note_on_c, 0, 56, 0
1, 1016485, Poly_aftertouch_c, 0, 56, 0
1, 1016527, Note_on_c, 0, 60, 52
1, 1016540, Note_on_c, 0, 46, 46
1, 1016584, Note_on_c, 0, 46, 0
1, 1016642, Note_on_c, 0, 60, 0
1, 1016642, Poly_aftertouch_c, 0, 60, 0
1, 1016766, Note_on_c, 0, 68, 65
1, 1016777, Note_on_c, 0, 60, 58
1, 1016795, Note_on_c, 0, 56, 49
1, 1016799, Note_on_c, 0, 64, 40
1, 1016815, Note_on_c, 0, 60, 0
1, 1016815, Poly_aftertouch_c, 0, 60, 0
1, 1016830, Note_on_c, 0, 70, 0
1, 1016854, Note_on_c, 0, 56, 0
1, 1016854, Poly_aftertouch_c, 0, 56, 0
1, 1016897, Note_on_c, 0, 64, 0
1, 1016954, Note_on_c, 0, 68, 0
1, 1016992, Note_on_c, 0, 59, 64
1, 1016996, Note_on_c, 0, 46, 59
1, 1017019, Note_on_c, 0, 59, 0
1, 1017028, Note_on_c, 0, 46, 0
1, 1017213, Control_c, 0, 64, 116
1, 1017233, Control_c, 0, 64, 81
1, 1017248, Note_on_c, 0, 75, 78
1, 1017251, Control_c, 0, 64, 36
1, 1017269, Control_c, 0, 64, 0
1, 1017271, Note_on_c, 0, 39, 60
1, 1017288, Control_c, 0, 64, 44
1, 1017307, Control_c, 0, 64, 68
1, 1017326, Control_c, 0, 64, 86
1, 1017345, Control_c, 0, 64, 107
1, 1017364, Control_c, 0, 64, 127
1, 1017371, Note_on_c, 0, 75, 0
1, 1017371, Poly_aftertouch_c, 0, 75, 0
1, 1017446, Poly_aftertouch_c, 0, 68, 0
1, 1017506, Note_on_c, 0, 58, 56
1, 1017506, Note_on_c, 0, 46, 59
1, 1017511, Note_on_c, 0, 39, 0
1, 1017540, Note_on_c, 0, 46, 0
1, 1017556, Note_on_c, 0, 58, 0
1, 1017556, Poly_aftertouch_c, 0, 58, 0
1, 1017780, Note_on_c, 0, 70, 66
1, 1017785, Note_on_c, 0, 57, 48
1, 1017808, Note_on_c, 0, 63, 42
1, 1017842, Note_on_c, 0, 57, 0
1, 1017842, Poly_aftertouch_c, 0, 57, 0
1, 1017846, Note_on_c, 0, 67, 15
1, 1017855, Note_on_c, 0, 63, 0
1, 1017917, Note_on_c, 0, 70, 0
1, 1017922, Note_on_c, 0, 67, 0
1, 1017944, Control_c, 0, 67, 70
1, 1018010, Note_on_c, 0, 46, 53
1, 1018024, Note_on_c, 0, 56, 51
1, 1018054, Control_c, 0, 67, 74
1, 1018070, Note_on_c, 0, 46, 0
1, 1018089, Note_on_c, 0, 56, 0
1, 1018089, Poly_aftertouch_c, 0, 56, 0
1, 1018204, Control_c, 0, 67, 78
1, 1018236, Note_on_c, 0, 56, 61
1, 1018246, Note_on_c, 0, 63, 51
1, 1018275, Note_on_c, 0, 60, 31
1, 1018305, Note_on_c, 0, 56, 0
1, 1018305, Poly_aftertouch_c, 0, 56, 0
1, 1018317, Control_c, 0, 67, 83
1, 1018373, Note_on_c, 0, 60, 0
1, 1018373, Poly_aftertouch_c, 0, 60, 0
1, 1018373, Control_c, 0, 67, 87
1, 1018421, Note_on_c, 0, 63, 0
1, 1018428, Control_c, 0, 67, 91
1, 1018465, Note_on_c, 0, 46, 56
1, 1018474, Note_on_c, 0, 55, 55
1, 1018507, Note_on_c, 0, 46, 0
1, 1018516, Note_on_c, 0, 55, 0
1, 1018541, Control_c, 0, 67, 95
1, 1018636, Control_c, 0, 67, 100
1, 1018797, Note_on_c, 0, 39, 45
1, 1018801, Control_c, 0, 64, 110
1, 1018806, Note_on_c, 0, 72, 67
1, 1018822, Control_c, 0, 64, 75
1, 1018841, Control_c, 0, 64, 31
1, 1018843, Control_c, 0, 67, 104
1, 1018859, Control_c, 0, 64, 0
1, 1018878, Control_c, 0, 64, 34
1, 1018897, Control_c, 0, 64, 61
1, 1018916, Control_c, 0, 64, 83
1, 1018933, Note_on_c, 0, 72, 0
1, 1018934, Control_c, 0, 64, 102
1, 1018937, Control_c, 0, 67, 108
1, 1018952, Control_c, 0, 64, 124
1, 1019046, Control_c, 0, 67, 112
1, 1019084, Note_on_c, 0, 39, 0
1, 1019101, Note_on_c, 0, 46, 45
1, 1019118, Note_on_c, 0, 55, 44
1, 1019120, Control_c, 0, 67, 117
1, 1019157, Note_on_c, 0, 46, 0
1, 1019177, Note_on_c, 0, 55, 0
1, 1019177, Control_c, 0, 67, 121
1, 1019310, Control_c, 0, 67, 125
1, 1019494, Note_on_c, 0, 55, 55
1, 1019551, Note_on_c, 0, 69, 60
1, 1019570, Control_c, 0, 64, 115
1, 1019582, Note_on_c, 0, 63, 42
1, 1019588, Control_c, 0, 64, 85
1, 1019601, Note_on_c, 0, 60, 31
1, 1019608, Control_c, 0, 64, 63
1, 1019625, Control_c, 0, 64, 65
1, 1019645, Control_c, 0, 64, 70
1, 1019657, Note_on_c, 0, 69, 0
1, 1019657, Poly_aftertouch_c, 0, 69, 0
1, 1019662, Control_c, 0, 64, 79
1, 1019682, Control_c, 0, 64, 89
1, 1019701, Control_c, 0, 64, 105
1, 1019720, Note_on_c, 0, 55, 0
1, 1019720, Control_c, 0, 64, 123
1, 1019737, Control_c, 0, 64, 127
1, 1019779, Note_on_c, 0, 63, 0
1, 1019798, Note_on_c, 0, 60, 0
1, 1019798, Poly_aftertouch_c, 0, 60, 0
1, 1019873, Note_on_c, 0, 54, 49
1, 1019874, Note_on_c, 0, 46, 42
1, 1019939, Note_on_c, 0, 54, 0
1, 1019942, Note_on_c, 0, 46, 0
1, 1020134, Note_on_c, 0, 62, 41
1, 1020152, Note_on_c, 0, 58, 26
1, 1020157, Note_on_c, 0, 54, 41
1, 1020212, Note_on_c, 0, 54, 0
1, 1020215, Note_on_c, 0, 62, 0
1, 1020215, Poly_aftertouch_c, 0, 62, 0
1, 1020241, Note_on_c, 0, 58, 0
1, 1020241, Poly_aftertouch_c, 0, 58, 0
1, 1020323, Note_on_c, 0, 55, 47
1, 1020388, Note_on_c, 0, 55, 0
1, 1020466, Note_on_c, 0, 46, 50
1, 1020525, Note_on_c, 0, 46, 0
1, 1020599, Note_on_c, 0, 70, 58
1, 1020729, Note_on_c, 0, 70, 0
1, 1020928, Note_on_c, 0, 39, 42
1, 1020929, Note_on_c, 0, 70, 50
1, 1020953, Control_c, 0, 64, 115
1, 1020972, Control_c, 0, 64, 87
1, 1020992, Control_c, 0, 64, 60
1, 1021009, Control_c, 0, 64, 58
1, 1021028, Control_c, 0, 64, 65
1, 1021047, Control_c, 0, 64, 74
1, 1021066, Control_c, 0, 64, 83
1, 1021085, Control_c, 0, 64, 93
1, 1021103, Control_c, 0, 64, 107
1, 1021122, Control_c, 0, 64, 119
1, 1021126, Note_on_c, 0, 70, 0
1, 1021140, Control_c, 0, 64, 127
1, 1021300, Note_on_c, 0, 55, 41
1, 1021313, Note_on_c, 0, 46, 37
1, 1021339, Note_on_c, 0, 39, 0
1, 1021401, Note_on_c, 0, 55, 0
1, 1021413, Note_on_c, 0, 46, 0
1, 1021716, Note_on_c, 0, 63, 43
1, 1021724, Note_on_c, 0, 56, 38
1, 1021736, Note_on_c, 0, 53, 39
1, 1021737, Control_c, 0, 64, 117
1, 1021757, Control_c, 0, 64, 100
1, 1021776, Control_c, 0, 64, 74
1, 1021795, Control_c, 0, 64, 59
1, 1021814, Control_c, 0, 64, 62
1, 1021832, Control_c, 0, 64, 68
1, 1021851, Control_c, 0, 64, 77
1, 1021870, Control_c, 0, 64, 84
1, 1021888, Control_c, 0, 64, 93
1, 1021908, Control_c, 0, 64, 104
1, 1021919, Note_on_c, 0, 53, 0
1, 1021919, Poly_aftertouch_c, 0, 53, 0
1, 1021926, Control_c, 0, 64, 113
1, 1021944, Control_c, 0, 64, 119
1, 1021981, Control_c, 0, 64, 123
1, 1022045, Note_on_c, 0, 56, 0
1, 1022045, Poly_aftertouch_c, 0, 56, 0
1, 1022162, Note_on_c, 0, 52, 32
1, 1022167, Note_on_c, 0, 47, 21
1, 1022188, Control_c, 0, 64, 119
1, 1022206, Control_c, 0, 64, 106
1, 1022224, Control_c, 0, 64, 86
1, 1022244, Control_c, 0, 64, 76
1, 1022262, Control_c, 0, 64, 80
1, 1022280, Control_c, 0, 64, 84
1, 1022300, Control_c, 0, 64, 92
1, 1022318, Control_c, 0, 64, 103
1, 1022338, Control_c, 0, 64, 114
1, 1022355, Control_c, 0, 64, 121
1, 1022364, Note_on_c, 0, 52, 0
1, 1022374, Control_c, 0, 64, 125
1, 1022409, Poly_aftertouch_c, 0, 47, 22
1, 1022425, Note_on_c, 0, 47, 0
1, 1022425, Poly_aftertouch_c, 0, 47, 0
1, 1022660, Note_on_c, 0, 55, 30
1, 1022667, Note_on_c, 0, 52, 29
1, 1022692, Control_c, 0, 64, 120
1, 1022711, Control_c, 0, 64, 104
1, 1022730, Control_c, 0, 64, 80
1, 1022749, Control_c, 0, 64, 66
1, 1022768, Control_c, 0, 64, 68
1, 1022786, Control_c, 0, 64, 72
1, 1022805, Control_c, 0, 64, 77
1, 1022823, Control_c, 0, 64, 83
1, 1022842, Control_c, 0, 64, 91
1, 1022861, Control_c, 0, 64, 98
1, 1022879, Control_c, 0, 64, 105
1, 1022916, Control_c, 0, 64, 111
1, 1022953, Control_c, 0, 64, 116
1, 1023010, Control_c, 0, 64, 120
1, 1023072, Note_on_c, 0, 52, 0
1, 1023101, Poly_aftertouch_c, 0, 55, 24
1, 1023123, Control_c, 0, 64, 124
1, 1023224, Note_on_c, 0, 55, 0
1, 1023224, Poly_aftertouch_c, 0, 55, 0
1, 1023440, Control_c, 0, 64, 119
1, 1023458, Note_on_c, 0, 51, 33
1, 1023458, Control_c, 0, 64, 112
1, 1023461, Note_on_c, 0, 46, 33
1, 1023478, Control_c, 0, 64, 93
1, 1023497, Control_c, 0, 64, 67
1, 1023515, Control_c, 0, 64, 60
1, 1023535, Control_c, 0, 64, 65
1, 1023552, Control_c, 0, 64, 72
1, 1023571, Control_c, 0, 64, 79
1, 1023590, Control_c, 0, 64, 86
1, 1023609, Control_c, 0, 64, 95
1, 1023610, Control_c, 0, 67, 120
1, 1023628, Control_c, 0, 64, 104
1, 1023646, Control_c, 0, 64, 112
1, 1023665, Control_c, 0, 64, 116
1, 1023685, Control_c, 0, 67, 116
1, 1023702, Control_c, 0, 64, 120
1, 1023740, Control_c, 0, 64, 125
1, 1023757, Poly_aftertouch_c, 0, 46, 24
1, 1023768, Note_on_c, 0, 51, 0
1, 1023775, Control_c, 0, 67, 112
1, 1023788, Note_on_c, 0, 46, 0
1, 1023788, Poly_aftertouch_c, 0, 46, 0
1, 1023921, Poly_aftertouch_c, 0, 63, 24
1, 1023945, Control_c, 0, 67, 108
1, 1023975, Note_on_c, 0, 63, 0
1, 1023975, Poly_aftertouch_c, 0, 63, 0
1, 1024094, Control_c, 0, 67, 104
1, 1024264, Control_c, 0, 67, 100
1, 1024488, Control_c, 0, 67, 96
1, 1024544, Control_c, 0, 67, 90
1, 1024563, Control_c, 0, 67, 81
1, 1024580, Control_c, 0, 67, 58
1, 1024585, Note_on_c, 0, 43, 101
1, 1024591, Note_on_c, 0, 31, 88
1, 1024599, Control_c, 0, 67, 16
1, 1024619, Control_c, 0, 67, 0
1, 1024627, Note_on_c, 0, 31, 0
1, 1024632, Note_on_c, 0, 43, 0
1, 1024808, Note_on_c, 0, 79, 91
1, 1024925, Note_on_c, 0, 91, 97
1, 1024963, Note_on_c, 0, 79, 0
1, 1025048, Control_c, 0, 64, 94
1, 1025066, Control_c, 0, 64, 33
1, 1025068, Note_on_c, 0, 66, 100
1, 1025069, Note_on_c, 0, 89, 89
1, 1025070, Note_on_c, 0, 63, 86
1, 1025073, Note_on_c, 0, 54, 79
1, 1025085, Note_on_c, 0, 57, 68
1, 1025085, Control_c, 0, 64, 0
1, 1025090, Note_on_c, 0, 60, 69
1, 1025104, Control_c, 0, 64, 39
1, 1025108, Note_on_c, 0, 54, 0
1, 1025115, Note_on_c, 0, 91, 0
1, 1025122, Note_on_c, 0, 57, 0
1, 1025122, Poly_aftertouch_c, 0, 57, 0
1, 1025123, Note_on_c, 0, 66, 0
1, 1025123, Poly_aftertouch_c, 0, 66, 0
1, 1025123, Control_c, 0, 64, 80
1, 1025130, Note_on_c, 0, 60, 0
1, 1025130, Poly_aftertouch_c, 0, 60, 0
1, 1025133, Note_on_c, 0, 63, 0
1, 1025133, Poly_aftertouch_c, 0, 63, 0
1, 1025142, Control_c, 0, 64, 107
1, 1025161, Control_c, 0, 64, 127
1, 1025176, Note_on_c, 0, 87, 87
1, 1025195, Note_on_c, 0, 89, 0
1, 1025195, Poly_aftertouch_c, 0, 89, 0
1, 1025256, Note_on_c, 0, 84, 84
1, 1025281, Note_on_c, 0, 87, 0
1, 1025332, Note_on_c, 0, 81, 82
1, 1025336, Note_on_c, 0, 84, 0
1, 1025381, Note_on_c, 0, 81, 0
1, 1025381, Poly_aftertouch_c, 0, 81, 0
1, 1025417, Note_on_c, 0, 79, 70
1, 1025436, Note_on_c, 0, 81, 37
1, 1025452, Note_on_c, 0, 81, 0
1, 1025452, Poly_aftertouch_c, 0, 81, 0
1, 1025463, Note_on_c, 0, 78, 85
1, 1025468, Note_on_c, 0, 79, 0
1, 1025497, Note_on_c, 0, 78, 0
1, 1025557, Note_on_c, 0, 77, 94
1, 1025633, Note_on_c, 0, 75, 81
1, 1025643, Note_on_c, 0, 77, 0
1, 1025643, Poly_aftertouch_c, 0, 77, 0
1, 1025680, Note_on_c, 0, 72, 79
1, 1025720, Note_on_c, 0, 75, 0
1, 1025720, Poly_aftertouch_c, 0, 75, 0
1, 1025753, Note_on_c, 0, 69, 79
1, 1025761, Note_on_c, 0, 72, 0
1, 1025778, Control_c, 0, 64, 114
1, 1025796, Control_c, 0, 64, 74
1, 1025807, Note_on_c, 0, 69, 0
1, 1025807, Poly_aftertouch_c, 0, 69, 0
1, 1025814, Control_c, 0, 64, 0
1, 1025826, Note_on_c, 0, 67, 77
1, 1025892, Note_on_c, 0, 66, 86
1, 1025897, Note_on_c, 0, 67, 0
1, 1025927, Note_on_c, 0, 66, 0
1, 1025927, Poly_aftertouch_c, 0, 66, 0
1, 1025990, Note_on_c, 0, 65, 84
1, 1026048, Note_on_c, 0, 63, 72
1, 1026049, Note_on_c, 0, 65, 0
1, 1026102, Note_on_c, 0, 60, 77
1, 1026113, Note_on_c, 0, 63, 0
1, 1026113, Poly_aftertouch_c, 0, 63, 0
1, 1026155, Note_on_c, 0, 60, 0
1, 1026155, Poly_aftertouch_c, 0, 60, 0
1, 1026166, Note_on_c, 0, 57, 68
1, 1026202, Note_on_c, 0, 57, 0
1, 1026202, Poly_aftertouch_c, 0, 57, 0
1, 1026288, Note_on_c, 0, 36, 90
1, 1026289, Note_on_c, 0, 43, 94
1, 1026297, Note_on_c, 0, 60, 87
1, 1026297, Note_on_c, 0, 64, 85
1, 1026297, Note_on_c, 0, 52, 91
1, 1026301, Control_c, 0, 64, 127
1, 1026322, Note_on_c, 0, 43, 0
1, 1026337, Note_on_c, 0, 36, 0
1, 1026340, Control_c, 0, 64, 71
1, 1026344, Note_on_c, 0, 52, 0
1, 1026357, Control_c, 0, 64, 0
1, 1026414, Note_on_c, 0, 64, 0
1, 1026414, Note_on_c, 0, 64, 32
1, 1026438, Note_on_c, 0, 64, 0
1, 1026440, Note_on_c, 0, 60, 0
1, 1026440, Poly_aftertouch_c, 0, 60, 0
1, 1026860, Note_on_c, 0, 52, 90
1, 1026864, Control_c, 0, 64, 124
1, 1026865, Note_on_c, 0, 43, 99
1, 1026865, Note_on_c, 0, 64, 87
1, 1026865, Note_on_c, 0, 55, 86
1, 1026865, Note_on_c, 0, 60, 83
1, 1026865, Note_on_c, 0, 36, 97
1, 1026911, Note_on_c, 0, 43, 0
1, 1026913, Note_on_c, 0, 52, 0
1, 1026916, Control_c, 0, 64, 79
1, 1026917, Note_on_c, 0, 36, 0
1, 1026936, Note_on_c, 0, 55, 0
1, 1026936, Poly_aftertouch_c, 0, 55, 0
1, 1026936, Control_c, 0, 64, 0
1, 1026945, Note_on_c, 0, 64, 0
1, 1026952, Note_on_c, 0, 60, 0
1, 1026952, Poly_aftertouch_c, 0, 60, 0
1, 1027389, Note_on_c, 0, 43, 61
1, 1027398, Note_on_c, 0, 55, 56
1, 1027398, Note_on_c, 0, 52, 55
1, 1027404, Note_on_c, 0, 64, 56
1, 1027405, Note_on_c, 0, 60, 50
1, 1027419, Note_on_c, 0, 36, 32
1, 1027426, Control_c, 0, 64, 22
1, 1027429, Note_on_c, 0, 55, 0
1, 1027429, Poly_aftertouch_c, 0, 55, 0
1, 1027432, Note_on_c, 0, 43, 0
1, 1027435, Note_on_c, 0, 52, 0
1, 1027438, Note_on_c, 0, 64, 0
1, 1027441, Note_on_c, 0, 60, 0
1, 1027441, Poly_aftertouch_c, 0, 60, 0
1, 1027444, Control_c, 0, 64, 0
1, 1027505, Note_on_c, 0, 43, 68
1, 1027514, Note_on_c, 0, 55, 64
1, 1027514, Note_on_c, 0, 52, 51
1, 1027525, Note_on_c, 0, 64, 51
1, 1027529, Note_on_c, 0, 60, 54
1, 1027542, Note_on_c, 0, 43, 0
1, 1027551, Note_on_c, 0, 52, 0
1, 1027551, Note_on_c, 0, 55, 0
1, 1027551, Poly_aftertouch_c, 0, 55, 0
1, 1027554, Note_on_c, 0, 36, 0
1, 1027557, Note_on_c, 0, 64, 0
1, 1027561, Note_on_c, 0, 60, 0
1, 1027561, Poly_aftertouch_c, 0, 60, 0
1, 1027606, Note_on_c, 0, 43, 92
1, 1027611, Note_on_c, 0, 36, 81
1, 1027612, Note_on_c, 0, 52, 87
1, 1027618, Note_on_c, 0, 64, 80
1, 1027620, Note_on_c, 0, 60, 82
1, 1027625, Note_on_c, 0, 55, 75
1, 1027631, Control_c, 0, 64, 97
1, 1027640, Note_on_c, 0, 52, 0
1, 1027647, Control_c, 0, 64, 127
1, 1027653, Note_on_c, 0, 55, 0
1, 1027653, Poly_aftertouch_c, 0, 55, 0
1, 1027680, Note_on_c, 0, 60, 0
1, 1027680, Poly_aftertouch_c, 0, 60, 0
1, 1027687, Note_on_c, 0, 64, 0
1, 1027705, Control_c, 0, 64, 106
1, 1027722, Control_c, 0, 64, 67
1, 1027741, Control_c, 0, 64, 0
1, 1027782, Note_on_c, 0, 43, 0
1, 1027786, Note_on_c, 0, 36, 0
1, 1027853, Control_c, 0, 64, 40
1, 1027861, Note_on_c, 0, 43, 97
1, 1027872, Control_c, 0, 64, 127
1, 1027873, Note_on_c, 0, 31, 83
1, 1027899, Note_on_c, 0, 31, 0
1, 1027908, Note_on_c, 0, 43, 0
1, 1027970, Note_on_c, 0, 79, 80
1, 1027992, Poly_aftertouch_c, 0, 29, 0
1, 1028038, Note_on_c, 0, 79, 0
1, 1028060, Note_on_c, 0, 91, 85
1, 1028115, Control_c, 0, 64, 118
1, 1028134, Control_c, 0, 64, 67
1, 1028153, Control_c, 0, 64, 0
1, 1028179, Note_on_c, 0, 89, 85
1, 1028181, Note_on_c, 0, 63, 88
1, 1028184, Note_on_c, 0, 66, 94
1, 1028190, Note_on_c, 0, 54, 68
1, 1028192, Note_on_c, 0, 60, 69
1, 1028192, Note_on_c, 0, 57, 70
1, 1028209, Control_c, 0, 64, 67
1, 1028219, Note_on_c, 0, 54, 0
1, 1028221, Note_on_c, 0, 91, 0
1, 1028225, Note_on_c, 0, 60, 0
1, 1028225, Poly_aftertouch_c, 0, 60, 0
1, 1028226, Note_on_c, 0, 66, 0
1, 1028226, Poly_aftertouch_c, 0, 66, 0
1, 1028227, Control_c, 0, 64, 112
1, 1028228, Note_on_c, 0, 57, 0
1, 1028228, Poly_aftertouch_c, 0, 57, 0
1, 1028236, Note_on_c, 0, 63, 0
1, 1028236, Poly_aftertouch_c, 0, 63, 0
1, 1028247, Control_c, 0, 64, 127
1, 1028266, Note_on_c, 0, 87, 87
1, 1028289, Note_on_c, 0, 89, 0
1, 1028289, Poly_aftertouch_c, 0, 89, 0
1, 1028317, Note_on_c, 0, 84, 78
1, 1028363, Note_on_c, 0, 87, 0
1, 1028370, Note_on_c, 0, 81, 89
1, 1028396, Note_on_c, 0, 84, 0
1, 1028414, Note_on_c, 0, 81, 0
1, 1028414, Poly_aftertouch_c, 0, 81, 0
1, 1028481, Note_on_c, 0, 79, 65
1, 1028488, Note_on_c, 0, 81, 68
1, 1028521, Note_on_c, 0, 81, 0
1, 1028521, Poly_aftertouch_c, 0, 81, 0
1, 1028525, Note_on_c, 0, 78, 80
1, 1028550, Note_on_c, 0, 79, 0
1, 1028600, Note_on_c, 0, 75, 75
1, 1028643, Note_on_c, 0, 78, 0
1, 1028655, Note_on_c, 0, 72, 81
1, 1028674, Note_on_c, 0, 75, 0
1, 1028674, Poly_aftertouch_c, 0, 75, 0
1, 1028717, Note_on_c, 0, 72, 0
1, 1028733, Note_on_c, 0, 67, 70
1, 1028776, Note_on_c, 0, 67, 0
1, 1028776, Note_on_c, 0, 69, 7
1, 1028801, Note_on_c, 0, 66, 63
1, 1028834, Note_on_c, 0, 66, 0
1, 1028834, Poly_aftertouch_c, 0, 66, 0
1, 1028851, Note_on_c, 0, 69, 0
1, 1028851, Poly_aftertouch_c, 0, 69, 0
1, 1028861, Control_c, 0, 64, 118
1, 1028866, Note_on_c, 0, 65, 70
1, 1028881, Control_c, 0, 64, 65
1, 1028901, Control_c, 0, 64, 0
1, 1028944, Note_on_c, 0, 63, 75
1, 1028945, Note_on_c, 0, 65, 0
1, 1029009, Note_on_c, 0, 60, 64
1, 1029016, Note_on_c, 0, 63, 0
1, 1029016, Poly_aftertouch_c, 0, 63, 0
1, 1029046, Note_on_c, 0, 60, 0
1, 1029046, Poly_aftertouch_c, 0, 60, 0
1, 1029055, Note_on_c, 0, 57, 73
1, 1029089, Note_on_c, 0, 57, 0
1, 1029089, Poly_aftertouch_c, 0, 57, 0
1, 1029140, Note_on_c, 0, 55, 79
1, 1029212, Note_on_c, 0, 55, 0
1, 1029212, Poly_aftertouch_c, 0, 55, 0
1, 1029220, Note_on_c, 0, 54, 76
1, 1029275, Note_on_c, 0, 54, 0
1, 1029308, Note_on_c, 0, 51, 62
1, 1029363, Note_on_c, 0, 51, 0
1, 1029385, Note_on_c, 0, 63, 80
1, 1029392, Note_on_c, 0, 60, 69
1, 1029393, Note_on_c, 0, 43, 72
1, 1029398, Note_on_c, 0, 36, 63
1, 1029406, Control_c, 0, 64, 100
1, 1029423, Note_on_c, 0, 43, 0
1, 1029423, Note_on_c, 0, 60, 0
1, 1029423, Poly_aftertouch_c, 0, 60, 0
1, 1029423, Control_c, 0, 64, 114
1, 1029431, Note_on_c, 0, 63, 0
1, 1029431, Poly_aftertouch_c, 0, 63, 0
1, 1029439, Note_on_c, 0, 36, 0
1, 1029443, Control_c, 0, 64, 97
1, 1029461, Control_c, 0, 64, 57
1, 1029479, Control_c, 0, 64, 0
1, 1029811, Note_on_c, 0, 67, 68
1, 1029816, Note_on_c, 0, 55, 54
1, 1029827, Note_on_c, 0, 42, 51
1, 1029835, Note_on_c, 0, 36, 46
1, 1029840, Note_on_c, 0, 63, 30
1, 1029846, Note_on_c, 0, 67, 0
1, 1029848, Note_on_c, 0, 55, 0
1, 1029848, Poly_aftertouch_c, 0, 55, 0
1, 1029865, Note_on_c, 0, 42, 0
1, 1029865, Poly_aftertouch_c, 0, 42, 0
1, 1029878, Note_on_c, 0, 36, 0
1, 1029889, Note_on_c, 0, 63, 0
1, 1029889, Poly_aftertouch_c, 0, 63, 0
1, 1029919, Note_on_c, 0, 43, 78
1, 1029942, Note_on_c, 0, 51, 68
1, 1029943, Note_on_c, 0, 63, 74
1, 1029947, Control_c, 0, 64, 80
1, 1029951, Note_on_c, 0, 43, 0
1, 1029954, Note_on_c, 0, 36, 34
1, 1029966, Control_c, 0, 64, 127
1, 1029970, Note_on_c, 0, 51, 0
1, 1029974, Note_on_c, 0, 63, 0
1, 1029974, Poly_aftertouch_c, 0, 63, 0
1, 1030003, Control_c, 0, 64, 86
1, 1030007, Note_on_c, 0, 36, 0
1, 1030023, Control_c, 0, 64, 28
1, 1030040, Control_c, 0, 64, 0
1, 1030375, Note_on_c, 0, 42, 62
1, 1030379, Note_on_c, 0, 67, 64
1, 1030380, Note_on_c, 0, 55, 59
1, 1030382, Note_on_c, 0, 36, 54
1, 1030386, Note_on_c, 0, 63, 60
1, 1030402, Note_on_c, 0, 67, 0
1, 1030407, Note_on_c, 0, 55, 0
1, 1030407, Poly_aftertouch_c, 0, 55, 0
1, 1030409, Note_on_c, 0, 42, 0
1, 1030409, Poly_aftertouch_c, 0, 42, 0
1, 1030422, Note_on_c, 0, 63, 0
1, 1030422, Poly_aftertouch_c, 0, 63, 0
1, 1030424, Note_on_c, 0, 36, 0
1, 1030489, Control_c, 0, 64, 108
1, 1030493, Note_on_c, 0, 43, 78
1, 1030496, Note_on_c, 0, 63, 88
1, 1030499, Note_on_c, 0, 51, 75
1, 1030501, Note_on_c, 0, 36, 77
1, 1030508, Control_c, 0, 64, 127
1, 1030524, Note_on_c, 0, 43, 0
1, 1030530, Note_on_c, 0, 51, 0
1, 1030535, Note_on_c, 0, 36, 0
1, 1030540, Note_on_c, 0, 63, 0
1, 1030540, Poly_aftertouch_c, 0, 63, 0
1, 1030544, Control_c, 0, 64, 100
1, 1030565, Control_c, 0, 64, 56
1, 1030584, Control_c, 0, 64, 0
1, 1030922, Note_on_c, 0, 67, 60
1, 1030923, Note_on_c, 0, 43, 63
1, 1030923, Note_on_c, 0, 31, 64
1, 1030934, Note_on_c, 0, 55, 50
1, 1030938, Note_on_c, 0, 63, 52
1, 1030952, Note_on_c, 0, 67, 0
1, 1030958, Note_on_c, 0, 31, 0
1, 1030961, Note_on_c, 0, 43, 0
1, 1030966, Note_on_c, 0, 55, 0
1, 1030966, Poly_aftertouch_c, 0, 55, 0
1, 1030972, Note_on_c, 0, 63, 0
1, 1030972, Poly_aftertouch_c, 0, 63, 0
1, 1031048, Note_on_c, 0, 44, 98
1, 1031051, Control_c, 0, 64, 22
1, 1031053, Note_on_c, 0, 51, 80
1, 1031055, Note_on_c, 0, 32, 89
1, 1031063, Note_on_c, 0, 61, 68
1, 1031069, Note_on_c, 0, 62, 78
1, 1031069, Control_c, 0, 64, 127
1, 1031079, Note_on_c, 0, 44, 0
1, 1031079, Poly_aftertouch_c, 0, 44, 0
1, 1031086, Note_on_c, 0, 51, 0
1, 1031086, Note_on_c, 0, 32, 0
1, 1031092, Note_on_c, 0, 61, 0
1, 1031103, Note_on_c, 0, 62, 0
1, 1031103, Poly_aftertouch_c, 0, 62, 0
1, 1031293, Control_c, 0, 64, 109
1, 1031313, Control_c, 0, 64, 59
1, 1031330, Note_on_c, 0, 63, 86
1, 1031331, Control_c, 0, 64, 0
1, 1031339, Note_on_c, 0, 75, 90
1, 1031346, Note_on_c, 0, 51, 77
1, 1031349, Note_on_c, 0, 71, 73
1, 1031349, Note_on_c, 0, 68, 78
1, 1031381, Note_on_c, 0, 51, 0
1, 1031391, Note_on_c, 0, 63, 0
1, 1031391, Poly_aftertouch_c, 0, 63, 0
1, 1031455, Note_on_c, 0, 62, 84
1, 1031469, Note_on_c, 0, 50, 70
1, 1031480, Note_on_c, 0, 62, 0
1, 1031480, Poly_aftertouch_c, 0, 62, 0
1, 1031485, Note_on_c, 0, 75, 0
1, 1031485, Poly_aftertouch_c, 0, 75, 0
1, 1031490, Note_on_c, 0, 71, 0
1, 1031493, Note_on_c, 0, 50, 0
1, 1031500, Note_on_c, 0, 68, 0
1, 1031582, Note_on_c, 0, 61, 82
1, 1031588, Note_on_c, 0, 49, 82
1, 1031611, Note_on_c, 0, 61, 0
1, 1031620, Note_on_c, 0, 49, 0
1, 1031712, Note_on_c, 0, 60, 82
1, 1031717, Note_on_c, 0, 63, 72
1, 1031721, Note_on_c, 0, 56, 68
1, 1031727, Note_on_c, 0, 48, 65
1, 1031742, Note_on_c, 0, 60, 0
1, 1031742, Poly_aftertouch_c, 0, 60, 0
1, 1031749, Note_on_c, 0, 63, 0
1, 1031749, Poly_aftertouch_c, 0, 63, 0
1, 1031757, Note_on_c, 0, 56, 0
1, 1031757, Note_on_c, 0, 48, 0
1, 1031757, Poly_aftertouch_c, 0, 56, 0
1, 1031826, Note_on_c, 0, 63, 81
1, 1031830, Note_on_c, 0, 56, 76
1, 1031834, Note_on_c, 0, 59, 81
1, 1031836, Control_c, 0, 64, 10
1, 1031850, Note_on_c, 0, 47, 66
1, 1031855, Control_c, 0, 64, 57
1, 1031864, Note_on_c, 0, 59, 0
1, 1031873, Control_c, 0, 64, 0
1, 1031899, Note_on_c, 0, 47, 0
1, 1031899, Poly_aftertouch_c, 0, 47, 0
1, 1031918, Note_on_c, 0, 63, 0
1, 1031918, Poly_aftertouch_c, 0, 63, 0
1, 1031948, Note_on_c, 0, 56, 0
1, 1031948, Poly_aftertouch_c, 0, 56, 0
1, 1031952, Note_on_c, 0, 51, 72
1, 1031985, Note_on_c, 0, 51, 0
1, 1032072, Note_on_c, 0, 50, 77
1, 1032078, Control_c, 0, 64, 36
1, 1032097, Control_c, 0, 64, 0
1, 1032106, Note_on_c, 0, 50, 0
1, 1032135, Poly_aftertouch_c, 0, 38, 0
1, 1032200, Note_on_c, 0, 49, 77
1, 1032201, Note_on_c, 0, 51, 58
1, 1032216, Note_on_c, 0, 37, 63
1, 1032239, Note_on_c, 0, 51, 0
1, 1032239, Note_on_c, 0, 49, 0
1, 1032252, Poly_aftertouch_c, 0, 44, 0
1, 1032256, Note_on_c, 0, 37, 0
1, 1032256, Poly_aftertouch_c, 0, 37, 0
1, 1032317, Note_on_c, 0, 51, 78
1, 1032323, Control_c, 0, 64, 62
1, 1032327, Poly_aftertouch_c, 0, 44, 127
1, 1032341, Control_c, 0, 64, 112
1, 1032347, Note_on_c, 0, 51, 0
1, 1032350, Poly_aftertouch_c, 0, 44, 0
1, 1032353, Note_on_c, 0, 47, 59
1, 1032359, Control_c, 0, 64, 88
1, 1032377, Control_c, 0, 64, 42
1, 1032397, Control_c, 0, 64, 0
1, 1032429, Poly_aftertouch_c, 0, 37, 127
1, 1032448, Note_on_c, 0, 39, 72
1, 1032451, Note_on_c, 0, 47, 0
1, 1032451, Poly_aftertouch_c, 0, 47, 0
1, 1032459, Poly_aftertouch_c, 0, 37, 0
1, 1032491, Note_on_c, 0, 39, 0
1, 1032599, Note_on_c, 0, 59, 84
1, 1032602, Note_on_c, 0, 47, 84
1, 1032607, Note_on_c, 0, 35, 96
1, 1032611, Note_on_c, 0, 23, 96
1, 1032620, Control_c, 0, 64, 127
1, 1032633, Note_on_c, 0, 47, 0
1, 1032633, Poly_aftertouch_c, 0, 47, 0
1, 1032637, Note_on_c, 0, 35, 0
1, 1032638, Note_on_c, 0, 59, 0
1, 1032646, Note_on_c, 0, 56, 44
1, 1032650, Note_on_c, 0, 23, 0
1, 1032683, Note_on_c, 0, 56, 0
1, 1032683, Poly_aftertouch_c, 0, 56, 0
1, 1032793, Poly_aftertouch_c, 0, 47, 0
1, 1033190, Note_on_c, 0, 83, 99
1, 1033343, Note_on_c, 0, 95, 102
1, 1033371, Note_on_c, 0, 83, 0
1, 1033449, Poly_aftertouch_c, 0, 84, 0
1, 1033478, Note_on_c, 0, 67, 101
1, 1033482, Note_on_c, 0, 64, 93
1, 1033486, Note_on_c, 0, 55, 78
1, 1033488, Note_on_c, 0, 58, 82
1, 1033489, Note_on_c, 0, 94, 95
1, 1033490, Note_on_c, 0, 61, 85
1, 1033513, Note_on_c, 0, 67, 0
1, 1033517, Note_on_c, 0, 55, 0
1, 1033517, Poly_aftertouch_c, 0, 55, 0
1, 1033523, Note_on_c, 0, 64, 0
1, 1033524, Note_on_c, 0, 95, 0
1, 1033534, Note_on_c, 0, 58, 0
1, 1033534, Poly_aftertouch_c, 0, 58, 0
1, 1033542, Note_on_c, 0, 61, 0
1, 1033591, Note_on_c, 0, 91, 87
1, 1033598, Note_on_c, 0, 94, 0
1, 1033649, Note_on_c, 0, 91, 0
1, 1033666, Note_on_c, 0, 88, 80
1, 1033696, Note_on_c, 0, 88, 0
1, 1033750, Note_on_c, 0, 85, 79
1, 1033817, Note_on_c, 0, 82, 82
1, 1033833, Note_on_c, 0, 85, 0
1, 1033866, Note_on_c, 0, 79, 83
1, 1033888, Note_on_c, 0, 82, 0
1, 1033911, Note_on_c, 0, 79, 0
1, 1033942, Note_on_c, 0, 76, 74
1, 1034001, Note_on_c, 0, 73, 77
1, 1034011, Note_on_c, 0, 76, 0
1, 1034011, Poly_aftertouch_c, 0, 76, 0
1, 1034052, Note_on_c, 0, 70, 73
1, 1034088, Note_on_c, 0, 73, 0
1, 1034122, Note_on_c, 0, 67, 77
1, 1034127, Note_on_c, 0, 70, 0
1, 1034174, Note_on_c, 0, 67, 0
1, 1034178, Note_on_c, 0, 66, 78
1, 1034243, Note_on_c, 0, 66, 0
1, 1034243, Poly_aftertouch_c, 0, 66, 0
1, 1034263, Note_on_c, 0, 64, 75
1, 1034310, Note_on_c, 0, 64, 0
1, 1034346, Note_on_c, 0, 61, 80
1, 1034412, Note_on_c, 0, 58, 82
1, 1034414, Note_on_c, 0, 61, 0
1, 1034475, Note_on_c, 0, 58, 0
1, 1034475, Poly_aftertouch_c, 0, 58, 0
1, 1034478, Note_on_c, 0, 55, 79
1, 1034551, Note_on_c, 0, 54, 81
1, 1034557, Note_on_c, 0, 55, 0
1, 1034557, Poly_aftertouch_c, 0, 55, 0
1, 1034584, Control_c, 0, 64, 115
1, 1034604, Control_c, 0, 64, 82
1, 1034620, Note_on_c, 0, 52, 81
1, 1034621, Control_c, 0, 64, 24
1, 1034640, Control_c, 0, 64, 0
1, 1034647, Note_on_c, 0, 54, 0
1, 1034676, Note_on_c, 0, 52, 0
1, 1034693, Note_on_c, 0, 40, 95
1, 1034701, Note_on_c, 0, 28, 88
1, 1034716, Control_c, 0, 64, 59
1, 1034726, Note_on_c, 0, 40, 0
1, 1034726, Poly_aftertouch_c, 0, 40, 0
1, 1034730, Note_on_c, 0, 28, 0
1, 1034735, Control_c, 0, 64, 94
1, 1034753, Control_c, 0, 64, 127
1, 1034925, Poly_aftertouch_c, 0, 28, 0
1, 1035127, Note_on_c, 0, 76, 73
1, 1035194, Note_on_c, 0, 48, 71
1, 1035251, Note_on_c, 0, 48, 0
1, 1035325, Note_on_c, 0, 76, 0
1, 1035325, Poly_aftertouch_c, 0, 76, 0
1, 1035468, Note_on_c, 0, 60, 56
1, 1035469, Note_on_c, 0, 57, 38
1, 1035470, Note_on_c, 0, 84, 94
1, 1035480, Note_on_c, 0, 52, 51
1, 1035482, Note_on_c, 0, 76, 69
1, 1035484, Note_on_c, 0, 72, 71
1, 1035486, Note_on_c, 0, 81, 68
1, 1035555, Note_on_c, 0, 60, 0
1, 1035555, Poly_aftertouch_c, 0, 60, 0
1, 1035651, Note_on_c, 0, 48, 68
1, 1035657, Note_on_c, 0, 57, 0
1, 1035657, Poly_aftertouch_c, 0, 57, 0
1, 1035670, Note_on_c, 0, 52, 0
1, 1035676, Note_on_c, 0, 76, 0
1, 1035676, Poly_aftertouch_c, 0, 76, 0
1, 1035678, Note_on_c, 0, 84, 0
1, 1035680, Note_on_c, 0, 48, 0
1, 1035731, Note_on_c, 0, 72, 0
1, 1035770, Note_on_c, 0, 81, 0
1, 1035770, Poly_aftertouch_c, 0, 81, 0
1, 1035779, Note_on_c, 0, 40, 86
1, 1035887, Note_on_c, 0, 40, 0
1, 1035887, Poly_aftertouch_c, 0, 40, 0
1, 1035902, Note_on_c, 0, 76, 76
1, 1035905, Note_on_c, 0, 28, 82
1, 1035957, Note_on_c, 0, 76, 0
1, 1035957, Poly_aftertouch_c, 0, 76, 0
1, 1035993, Note_on_c, 0, 28, 0
1, 1036003, Note_on_c, 0, 83, 98
1, 1036004, Note_on_c, 0, 40, 88
1, 1036012, Note_on_c, 0, 71, 85
1, 1036018, Note_on_c, 0, 76, 59
1, 1036025, Note_on_c, 0, 79, 69
1, 1036032, Note_on_c, 0, 40, 0
1, 1036032, Poly_aftertouch_c, 0, 40, 0
1, 1036135, Note_on_c, 0, 76, 0
1, 1036135, Poly_aftertouch_c, 0, 76, 0
1, 1036151, Note_on_c, 0, 79, 0
1, 1036162, Note_on_c, 0, 48, 62
1, 1036181, Note_on_c, 0, 83, 0
1, 1036232, Note_on_c, 0, 48, 0
1, 1036240, Note_on_c, 0, 57, 65
1, 1036244, Note_on_c, 0, 52, 62
1, 1036247, Note_on_c, 0, 60, 75
1, 1036275, Note_on_c, 0, 57, 0
1, 1036275, Poly_aftertouch_c, 0, 57, 0
1, 1036277, Note_on_c, 0, 60, 0
1, 1036277, Poly_aftertouch_c, 0, 60, 0
1, 1036289, Note_on_c, 0, 52, 0
1, 1036327, Note_on_c, 0, 71, 0
1, 1036335, Note_on_c, 0, 60, 88
1, 1036348, Note_on_c, 0, 57, 80
1, 1036354, Note_on_c, 0, 52, 60
1, 1036378, Note_on_c, 0, 57, 0
1, 1036378, Poly_aftertouch_c, 0, 57, 0
1, 1036391, Note_on_c, 0, 60, 0
1, 1036391, Poly_aftertouch_c, 0, 60, 0
1, 1036435, Note_on_c, 0, 48, 69
1, 1036459, Note_on_c, 0, 72, 86
1, 1036474, Note_on_c, 0, 52, 0
1, 1036501, Note_on_c, 0, 48, 0
1, 1036685, Note_on_c, 0, 40, 78
1, 1036769, Note_on_c, 0, 81, 94
1, 1036784, Note_on_c, 0, 77, 64
1, 1036790, Note_on_c, 0, 69, 62
1, 1036800, Note_on_c, 0, 40, 0
1, 1036800, Poly_aftertouch_c, 0, 40, 0
1, 1036825, Note_on_c, 0, 77, 0
1, 1036825, Poly_aftertouch_c, 0, 77, 0
1, 1036833, Note_on_c, 0, 72, 0
1, 1036867, Note_on_c, 0, 28, 64
1, 1036955, Note_on_c, 0, 28, 0
1, 1036963, Note_on_c, 0, 81, 0
1, 1036963, Poly_aftertouch_c, 0, 81, 0
1, 1036966, Note_on_c, 0, 40, 83
1, 1037005, Note_on_c, 0, 40, 0
1, 1037005, Poly_aftertouch_c, 0, 40, 0
1, 1037007, Note_on_c, 0, 69, 0
1, 1037007, Poly_aftertouch_c, 0, 69, 0
1, 1037121, Note_on_c, 0, 48, 67
1, 1037138, Note_on_c, 0, 72, 80
1, 1037165, Note_on_c, 0, 48, 0
1, 1037212, Note_on_c, 0, 72, 0
1, 1037253, Note_on_c, 0, 72, 61
1, 1037254, Note_on_c, 0, 60, 82
1, 1037256, Note_on_c, 0, 57, 63
1, 1037256, Note_on_c, 0, 79, 97
1, 1037258, Note_on_c, 0, 67, 91
1, 1037264, Note_on_c, 0, 52, 62
1, 1037266, Note_on_c, 0, 76, 79
1, 1037318, Note_on_c, 0, 60, 0
1, 1037318, Poly_aftertouch_c, 0, 60, 0
1, 1037345, Note_on_c, 0, 76, 0
1, 1037345, Poly_aftertouch_c, 0, 76, 0
1, 1037358, Note_on_c, 0, 72, 0
1, 1037370, Note_on_c, 0, 57, 0
1, 1037370, Poly_aftertouch_c, 0, 57, 0
1, 1037383, Note_on_c, 0, 79, 0
1, 1037388, Note_on_c, 0, 48, 72
1, 1037404, Note_on_c, 0, 52, 0
1, 1037427, Note_on_c, 0, 48, 0
1, 1037504, Note_on_c, 0, 40, 83
1, 1037531, Note_on_c, 0, 67, 0
1, 1037587, Note_on_c, 0, 40, 0
1, 1037587, Poly_aftertouch_c, 0, 40, 0
1, 1037632, Note_on_c, 0, 28, 78
1, 1037648, Note_on_c, 0, 72, 71
1, 1037654, Note_on_c, 0, 69, 63
1, 1037698, Note_on_c, 0, 69, 0
1, 1037698, Poly_aftertouch_c, 0, 69, 0
1, 1037719, Note_on_c, 0, 72, 0
1, 1037726, Note_on_c, 0, 28, 0
1, 1037741, Note_on_c, 0, 40, 88
1, 1037754, Poly_aftertouch_c, 0, 30, 0
1, 1037758, Note_on_c, 0, 77, 101
1, 1037765, Note_on_c, 0, 65, 92
1, 1037769, Note_on_c, 0, 40, 0
1, 1037769, Poly_aftertouch_c, 0, 40, 0
1, 1037772, Note_on_c, 0, 69, 67
1, 1037794, Note_on_c, 0, 72, 31
1, 1037836, Note_on_c, 0, 72, 0
1, 1037896, Note_on_c, 0, 48, 58
1, 1037921, Poly_aftertouch_c, 0, 40, 127
1, 1037940, Note_on_c, 0, 48, 0
1, 1037950, Poly_aftertouch_c, 0, 40, 0
1, 1037951, Note_on_c, 0, 69, 0
1, 1037951, Poly_aftertouch_c, 0, 69, 0
1, 1037958, Note_on_c, 0, 57, 56
1, 1037962, Note_on_c, 0, 52, 55
1, 1037990, Note_on_c, 0, 60, 61
1, 1038008, Note_on_c, 0, 77, 0
1, 1038008, Poly_aftertouch_c, 0, 77, 0
1, 1038010, Note_on_c, 0, 57, 0
1, 1038010, Poly_aftertouch_c, 0, 57, 0
1, 1038013, Note_on_c, 0, 52, 0
1, 1038014, Note_on_c, 0, 60, 0
1, 1038014, Poly_aftertouch_c, 0, 60, 0
1, 1038067, Note_on_c, 0, 60, 93
1, 1038071, Note_on_c, 0, 65, 0
1, 1038072, Note_on_c, 0, 57, 66
1, 1038078, Note_on_c, 0, 52, 61
1, 1038110, Note_on_c, 0, 57, 0
1, 1038110, Poly_aftertouch_c, 0, 57, 0
1, 1038112, Note_on_c, 0, 60, 0
1, 1038112, Poly_aftertouch_c, 0, 60, 0
1, 1038167, Note_on_c, 0, 48, 82
1, 1038174, Note_on_c, 0, 72, 89
1, 1038174, Note_on_c, 0, 69, 87
1, 1038198, Note_on_c, 0, 52, 0
1, 1038215, Note_on_c, 0, 48, 0
1, 1038368, Note_on_c, 0, 69, 0
1, 1038368, Poly_aftertouch_c, 0, 69, 0
1, 1038377, Note_on_c, 0, 72, 0
1, 1038436, Note_on_c, 0, 76, 97
1, 1038436, Control_c, 0, 64, 86
1, 1038445, Note_on_c, 0, 64, 81
1, 1038453, Note_on_c, 0, 40, 76
1, 1038455, Note_on_c, 0, 69, 60
1, 1038455, Control_c, 0, 64, 59
1, 1038463, Note_on_c, 0, 72, 59
1, 1038493, Control_c, 0, 64, 66
1, 1038511, Note_on_c, 0, 40, 0
1, 1038511, Control_c, 0, 64, 78
1, 1038530, Control_c, 0, 64, 91
1, 1038549, Control_c, 0, 64, 114
1, 1038557, Note_on_c, 0, 69, 0
1, 1038557, Poly_aftertouch_c, 0, 69, 0
1, 1038567, Control_c, 0, 64, 127
1, 1038568, Note_on_c, 0, 72, 0
1, 1038578, Note_on_c, 0, 64, 0
1, 1038587, Note_on_c, 0, 76, 0
1, 1038587, Note_on_c, 0, 28, 63
1, 1038587, Poly_aftertouch_c, 0, 76, 0
1, 1038629, Note_on_c, 0, 28, 0
1, 1038643, Control_c, 0, 67, 8
1, 1038660, Control_c, 0, 67, 12
1, 1038699, Control_c, 0, 64, 116
1, 1038700, Control_c, 0, 67, 18
1, 1038718, Control_c, 0, 64, 109
1, 1038719, Control_c, 0, 67, 23
1, 1038735, Control_c, 0, 64, 105
1, 1038736, Control_c, 0, 67, 30
1, 1038754, Control_c, 0, 67, 39
1, 1038774, Control_c, 0, 64, 98
1, 1038775, Control_c, 0, 67, 47
1, 1038792, Control_c, 0, 64, 90
1, 1038793, Control_c, 0, 67, 55
1, 1038811, Control_c, 0, 64, 78
1, 1038813, Control_c, 0, 67, 62
1, 1038830, Control_c, 0, 64, 65
1, 1038832, Control_c, 0, 67, 67
1, 1038839, Note_on_c, 0, 67, 58
1, 1038839, Note_on_c, 0, 70, 54
1, 1038840, Note_on_c, 0, 72, 67
1, 1038849, Control_c, 0, 64, 48
1, 1038850, Control_c, 0, 67, 73
1, 1038866, Control_c, 0, 64, 0
1, 1038867, Control_c, 0, 67, 78
1, 1038881, Note_on_c, 0, 70, 0
1, 1038883, Note_on_c, 0, 67, 0
1, 1038883, Control_c, 0, 67, 82
1, 1038904, Control_c, 0, 67, 87
1, 1038923, Control_c, 0, 67, 91
1, 1038941, Control_c, 0, 67, 96
1, 1038954, Note_on_c, 0, 69, 59
1, 1038959, Control_c, 0, 67, 100
1, 1038980, Note_on_c, 0, 66, 48
1, 1038980, Control_c, 0, 67, 104
1, 1038982, Note_on_c, 0, 69, 0
1, 1038982, Poly_aftertouch_c, 0, 69, 0
1, 1038988, Note_on_c, 0, 60, 38
1, 1038996, Control_c, 0, 67, 109
1, 1039014, Note_on_c, 0, 66, 0
1, 1039014, Poly_aftertouch_c, 0, 66, 0
1, 1039021, Note_on_c, 0, 72, 0
1, 1039029, Note_on_c, 0, 60, 0
1, 1039029, Poly_aftertouch_c, 0, 60, 0
1, 1039034, Control_c, 0, 67, 114
1, 1039084, Note_on_c, 0, 69, 72
1, 1039106, Note_on_c, 0, 66, 55
1, 1039113, Note_on_c, 0, 69, 0
1, 1039113, Poly_aftertouch_c, 0, 69, 0
1, 1039132, Note_on_c, 0, 60, 8
1, 1039132, Poly_aftertouch_c, 0, 60, 0
1, 1039133, Note_on_c, 0, 60, 0
1, 1039136, Note_on_c, 0, 66, 0
1, 1039136, Poly_aftertouch_c, 0, 66, 0
1, 1039213, Note_on_c, 0, 52, 60
1, 1039218, Note_on_c, 0, 59, 55
1, 1039238, Poly_aftertouch_c, 0, 60, 0
1, 1039246, Note_on_c, 0, 59, 0
1, 1039248, Note_on_c, 0, 52, 0
1, 1039297, Control_c, 0, 67, 110
1, 1039326, Note_on_c, 0, 81, 80
1, 1039351, Note_on_c, 0, 81, 0
1, 1039351, Poly_aftertouch_c, 0, 81, 0
1, 1039391, Control_c, 0, 67, 105
1, 1039465, Control_c, 0, 67, 101
1, 1039521, Control_c, 0, 67, 95
1, 1039558, Control_c, 0, 67, 88
1, 1039581, Note_on_c, 0, 72, 72
1, 1039588, Note_on_c, 0, 66, 64
1, 1039594, Control_c, 0, 67, 82
1, 1039608, Note_on_c, 0, 69, 44
1, 1039613, Control_c, 0, 64, 46
1, 1039625, Note_on_c, 0, 66, 0
1, 1039625, Poly_aftertouch_c, 0, 66, 0
1, 1039632, Control_c, 0, 64, 0
1, 1039633, Control_c, 0, 67, 78
1, 1039641, Note_on_c, 0, 69, 0
1, 1039641, Poly_aftertouch_c, 0, 69, 0
1, 1039694, Note_on_c, 0, 68, 70
1, 1039705, Note_on_c, 0, 60, 64
1, 1039716, Note_on_c, 0, 65, 59
1, 1039724, Note_on_c, 0, 68, 0
1, 1039742, Note_on_c, 0, 60, 0
1, 1039745, Control_c, 0, 67, 74
1, 1039751, Note_on_c, 0, 65, 0
1, 1039773, Note_on_c, 0, 72, 0
1, 1039831, Note_on_c, 0, 68, 72
1, 1039849, Note_on_c, 0, 65, 46
1, 1039864, Note_on_c, 0, 68, 0
1, 1039868, Note_on_c, 0, 60, 26
1, 1039886, Note_on_c, 0, 60, 0
1, 1039888, Note_on_c, 0, 65, 0
1, 1039914, Control_c, 0, 67, 70
1, 1039961, Note_on_c, 0, 52, 56
1, 1039969, Control_c, 0, 67, 66
1, 1039984, Note_on_c, 0, 59, 15
1, 1039985, Note_on_c, 0, 59, 0
1, 1039995, Note_on_c, 0, 52, 0
1, 1040078, Note_on_c, 0, 80, 78
1, 1040102, Note_on_c, 0, 80, 0
1, 1040232, Control_c, 0, 67, 62
1, 1040338, Note_on_c, 0, 72, 74
1, 1040343, Control_c, 0, 64, 11
1, 1040347, Note_on_c, 0, 65, 62
1, 1040356, Note_on_c, 0, 68, 52
1, 1040361, Control_c, 0, 64, 46
1, 1040381, Control_c, 0, 64, 0
1, 1040391, Note_on_c, 0, 68, 0
1, 1040393, Note_on_c, 0, 65, 0
1, 1040456, Note_on_c, 0, 67, 66
1, 1040468, Note_on_c, 0, 59, 53
1, 1040474, Note_on_c, 0, 64, 56
1, 1040492, Note_on_c, 0, 67, 0
1, 1040493, Control_c, 0, 67, 58
1, 1040496, Note_on_c, 0, 59, 0
1, 1040505, Note_on_c, 0, 64, 0
1, 1040524, Note_on_c, 0, 72, 0
1, 1040588, Note_on_c, 0, 67, 76
1, 1040594, Note_on_c, 0, 59, 63
1, 1040601, Note_on_c, 0, 64, 56
1, 1040618, Note_on_c, 0, 67, 0
1, 1040622, Note_on_c, 0, 59, 0
1, 1040631, Note_on_c, 0, 64, 0
1, 1040702, Note_on_c, 0, 52, 56
1, 1040711, Note_on_c, 0, 59, 57
1, 1040734, Note_on_c, 0, 52, 0
1, 1040736, Control_c, 0, 67, 53
1, 1040738, Note_on_c, 0, 59, 0
1, 1040826, Note_on_c, 0, 79, 78
1, 1040853, Note_on_c, 0, 79, 0
1, 1041076, Note_on_c, 0, 72, 68
1, 1041088, Note_on_c, 0, 64, 53
1, 1041095, Note_on_c, 0, 67, 47
1, 1041110, Control_c, 0, 64, 55
1, 1041130, Control_c, 0, 64, 86
1, 1041148, Control_c, 0, 64, 97
1, 1041151, Note_on_c, 0, 67, 0
1, 1041164, Note_on_c, 0, 72, 0
1, 1041166, Control_c, 0, 64, 106
1, 1041176, Note_on_c, 0, 58, 71
1, 1041185, Control_c, 0, 64, 110
1, 1041210, Note_on_c, 0, 58, 0
1, 1041210, Poly_aftertouch_c, 0, 58, 0
1, 1041213, Note_on_c, 0, 64, 0
1, 1041221, Control_c, 0, 67, 49
1, 1041256, Poly_aftertouch_c, 0, 66, 127
1, 1041282, Poly_aftertouch_c, 0, 66, 0
1, 1041326, Note_on_c, 0, 58, 56
1, 1041329, Note_on_c, 0, 66, 51
1, 1041353, Note_on_c, 0, 58, 0
1, 1041353, Poly_aftertouch_c, 0, 58, 0
1, 1041360, Note_on_c, 0, 66, 0
1, 1041372, Control_c, 0, 64, 106
1, 1041391, Control_c, 0, 64, 100
1, 1041409, Control_c, 0, 64, 91
1, 1041427, Control_c, 0, 64, 80
1, 1041429, Note_on_c, 0, 48, 61
1, 1041447, Control_c, 0, 64, 69
1, 1041450, Note_on_c, 0, 58, 54
1, 1041467, Control_c, 0, 64, 58
1, 1041468, Control_c, 0, 67, 45
1, 1041473, Note_on_c, 0, 48, 0
1, 1041484, Control_c, 0, 64, 37
1, 1041487, Note_on_c, 0, 58, 0
1, 1041487, Poly_aftertouch_c, 0, 58, 0
1, 1041503, Control_c, 0, 64, 0
1, 1041566, Note_on_c, 0, 78, 83
1, 1041588, Note_on_c, 0, 78, 0
1, 1041634, Control_c, 0, 67, 40
1, 1041671, Control_c, 0, 67, 36
1, 1041709, Control_c, 0, 67, 32
1, 1041746, Control_c, 0, 67, 27
1, 1041783, Control_c, 0, 67, 22
1, 1041872, Note_on_c, 0, 29, 65
1, 1041875, Note_on_c, 0, 53, 62
1, 1041889, Note_on_c, 0, 41, 50
1, 1041901, Note_on_c, 0, 53, 0
1, 1041901, Poly_aftertouch_c, 0, 53, 0
1, 1041909, Note_on_c, 0, 29, 0
1, 1041915, Control_c, 0, 64, 117
1, 1041917, Control_c, 0, 67, 16
1, 1041933, Control_c, 0, 64, 127
1, 1041938, Note_on_c, 0, 41, 0
1, 1042121, Note_on_c, 0, 48, 51
1, 1042151, Note_on_c, 0, 57, 49
1, 1042157, Note_on_c, 0, 84, 74
1, 1042170, Note_on_c, 0, 48, 0
1, 1042192, Note_on_c, 0, 57, 0
1, 1042192, Poly_aftertouch_c, 0, 57, 0
1, 1042201, Note_on_c, 0, 81, 76
1, 1042219, Note_on_c, 0, 84, 0
1, 1042233, Note_on_c, 0, 81, 0
1, 1042233, Poly_aftertouch_c, 0, 81, 0
1, 1042235, Note_on_c, 0, 60, 61
1, 1042270, Control_c, 0, 67, 12
1, 1042279, Note_on_c, 0, 60, 0
1, 1042341, Note_on_c, 0, 63, 62
1, 1042401, Control_c, 0, 64, 85
1, 1042407, Note_on_c, 0, 63, 0
1, 1042407, Poly_aftertouch_c, 0, 63, 0
1, 1042418, Note_on_c, 0, 66, 74
1, 1042419, Control_c, 0, 64, 0
1, 1042438, Control_c, 0, 67, 8
1, 1042448, Note_on_c, 0, 66, 0
1, 1042448, Note_on_c, 0, 69, 70
1, 1042479, Note_on_c, 0, 69, 0
1, 1042479, Poly_aftertouch_c, 0, 69, 0
1, 1042499, Note_on_c, 0, 72, 61
1, 1042535, Note_on_c, 0, 72, 0
1, 1042538, Note_on_c, 0, 75, 80
1, 1042567, Note_on_c, 0, 75, 0
1, 1042567, Poly_aftertouch_c, 0, 75, 0
1, 1042644, Control_c, 0, 67, 0
1, 1042659, Note_on_c, 0, 90, 95
1, 1042661, Control_c, 0, 64, 44
1, 1042669, Note_on_c, 0, 66, 82
1, 1042675, Note_on_c, 0, 54, 65
1, 1042680, Control_c, 0, 64, 127
1, 1042683, Note_on_c, 0, 90, 0
1, 1042692, Note_on_c, 0, 78, 43
1, 1042693, Note_on_c, 0, 78, 0
1, 1042697, Note_on_c, 0, 66, 0
1, 1042699, Note_on_c, 0, 54, 0
1, 1042910, Note_on_c, 0, 83, 94
1, 1042916, Note_on_c, 0, 59, 72
1, 1042916, Note_on_c, 0, 69, 73
1, 1042927, Note_on_c, 0, 75, 61
1, 1042930, Note_on_c, 0, 63, 68
1, 1042931, Note_on_c, 0, 71, 50
1, 1042932, Note_on_c, 0, 83, 0
1, 1042945, Note_on_c, 0, 69, 0
1, 1042945, Poly_aftertouch_c, 0, 69, 0
1, 1042951, Note_on_c, 0, 59, 0
1, 1042952, Note_on_c, 0, 75, 0
1, 1042952, Poly_aftertouch_c, 0, 75, 0
1, 1042964, Note_on_c, 0, 71, 0
1, 1042964, Note_on_c, 0, 63, 0
1, 1042964, Poly_aftertouch_c, 0, 63, 0
1, 1043170, Note_on_c, 0, 70, 92
1, 1043178, Note_on_c, 0, 58, 74
1, 1043179, Note_on_c, 0, 51, 78
1, 1043186, Note_on_c, 0, 63, 71
1, 1043198, Note_on_c, 0, 70, 0
1, 1043208, Note_on_c, 0, 58, 0
1, 1043208, Poly_aftertouch_c, 0, 58, 0
1, 1043213, Note_on_c, 0, 51, 0
1, 1043222, Note_on_c, 0, 63, 0
1, 1043222, Poly_aftertouch_c, 0, 63, 0
1, 1043298, Control_c, 0, 67, 8
1, 1043337, Control_c, 0, 64, 113
1, 1043338, Control_c, 0, 67, 16
1, 1043355, Control_c, 0, 64, 84
1, 1043356, Control_c, 0, 67, 24
1, 1043368, Poly_aftertouch_c, 0, 58, 0
1, 1043373, Control_c, 0, 64, 46
1, 1043375, Control_c, 0, 67, 37
1, 1043391, Control_c, 0, 64, 0
1, 1043392, Control_c, 0, 67, 55
1, 1043411, Control_c, 0, 67, 77
1, 1043429, Control_c, 0, 67, 100
1, 1043447, Control_c, 0, 67, 118
1, 1043467, Control_c, 0, 67, 125
1, 1043485, Control_c, 0, 64, 21
1, 1043489, Note_on_c, 0, 40, 66
1, 1043490, Note_on_c, 0, 53, 65
1, 1043491, Note_on_c, 0, 28, 57
1, 1043503, Control_c, 0, 64, 78
1, 1043515, Note_on_c, 0, 53, 0
1, 1043515, Poly_aftertouch_c, 0, 53, 0
1, 1043522, Control_c, 0, 64, 107
1, 1043523, Note_on_c, 0, 40, 0
1, 1043528, Note_on_c, 0, 28, 0
1, 1043541, Control_c, 0, 64, 127
1, 1043560, Control_c, 0, 67, 121
1, 1043634, Control_c, 0, 67, 117
1, 1043636, Poly_aftertouch_c, 0, 29, 0
1, 1043709, Control_c, 0, 67, 113
1, 1043734, Note_on_c, 0, 72, 59
1, 1043740, Note_on_c, 0, 57, 50
1, 1043745, Control_c, 0, 67, 104
1, 1043747, Note_on_c, 0, 69, 60
1, 1043760, Note_on_c, 0, 72, 0
1, 1043763, Note_on_c, 0, 48, 25
1, 1043765, Control_c, 0, 64, 108
1, 1043765, Control_c, 0, 67, 99
1, 1043785, Control_c, 0, 64, 69
1, 1043787, Control_c, 0, 67, 94
1, 1043789, Note_on_c, 0, 69, 0
1, 1043789, Poly_aftertouch_c, 0, 69, 0
1, 1043790, Note_on_c, 0, 66, 78
1, 1043805, Control_c, 0, 64, 53
1, 1043807, Control_c, 0, 67, 89
1, 1043809, Note_on_c, 0, 60, 74
1, 1043820, Note_on_c, 0, 63, 46
1, 1043822, Note_on_c, 0, 48, 0
1, 1043822, Control_c, 0, 64, 60
1, 1043823, Control_c, 0, 67, 83
1, 1043831, Note_on_c, 0, 57, 0
1, 1043831, Poly_aftertouch_c, 0, 57, 0
1, 1043840, Control_c, 0, 64, 70
1, 1043842, Control_c, 0, 67, 77
1, 1043847, Note_on_c, 0, 60, 0
1, 1043859, Control_c, 0, 64, 78
1, 1043859, Control_c, 0, 67, 72
1, 1043860, Note_on_c, 0, 66, 0
1, 1043879, Control_c, 0, 64, 86
1, 1043897, Control_c, 0, 64, 99
1, 1043898, Control_c, 0, 67, 66
1, 1043916, Note_on_c, 0, 61, 81
1, 1043917, Control_c, 0, 64, 116
1, 1043925, Note_on_c, 0, 63, 0
1, 1043925, Poly_aftertouch_c, 0, 63, 0
1, 1043933, Control_c, 0, 64, 127
1, 1043934, Control_c, 0, 67, 61
1, 1043945, Note_on_c, 0, 61, 0
1, 1043973, Control_c, 0, 67, 54
1, 1044007, Note_on_c, 0, 60, 65
1, 1044008, Control_c, 0, 67, 48
1, 1044043, Note_on_c, 0, 60, 0
1, 1044044, Control_c, 0, 67, 41
1, 1044059, Note_on_c, 0, 57, 64
1, 1044063, Control_c, 0, 67, 35
1, 1044084, Control_c, 0, 67, 29
1, 1044101, Control_c, 0, 67, 23
1, 1044121, Control_c, 0, 67, 16
1, 1044130, Note_on_c, 0, 57, 0
1, 1044130, Poly_aftertouch_c, 0, 57, 0
1, 1044134, Note_on_c, 0, 54, 78
1, 1044137, Poly_aftertouch_c, 0, 59, 0
1, 1044140, Control_c, 0, 67, 8
1, 1044164, Note_on_c, 0, 54, 0
1, 1044216, Control_c, 0, 64, 123
1, 1044217, Control_c, 0, 67, 0
1, 1044233, Control_c, 0, 64, 92
1, 1044253, Control_c, 0, 64, 53
1, 1044265, Note_on_c, 0, 63, 83
1, 1044269, Control_c, 0, 64, 23
1, 1044270, Note_on_c, 0, 51, 80
1, 1044282, Note_on_c, 0, 39, 71
1, 1044289, Control_c, 0, 64, 43
1, 1044303, Note_on_c, 0, 51, 0
1, 1044306, Control_c, 0, 64, 65
1, 1044318, Note_on_c, 0, 63, 0
1, 1044318, Poly_aftertouch_c, 0, 63, 0
1, 1044323, Note_on_c, 0, 39, 0
1, 1044325, Control_c, 0, 64, 83
1, 1044345, Control_c, 0, 64, 100
1, 1044364, Control_c, 0, 64, 122
1, 1044382, Control_c, 0, 64, 127
1, 1044437, Note_on_c, 0, 59, 66
1, 1044450, Note_on_c, 0, 47, 69
1, 1044476, Note_on_c, 0, 59, 0
1, 1044496, Note_on_c, 0, 47, 0
1, 1044531, Note_on_c, 0, 46, 74
1, 1044545, Note_on_c, 0, 58, 54
1, 1044567, Note_on_c, 0, 46, 0
1, 1044567, Poly_aftertouch_c, 0, 46, 0
1, 1044576, Note_on_c, 0, 58, 0
1, 1044601, Note_on_c, 0, 57, 68
1, 1044617, Note_on_c, 0, 45, 71
1, 1044633, Note_on_c, 0, 57, 0
1, 1044633, Poly_aftertouch_c, 0, 57, 0
1, 1044655, Note_on_c, 0, 45, 0
1, 1044685, Note_on_c, 0, 54, 74
1, 1044693, Note_on_c, 0, 42, 73
1, 1044753, Note_on_c, 0, 39, 76
1, 1044760, Note_on_c, 0, 51, 78
1, 1044761, Note_on_c, 0, 42, 0
1, 1044761, Poly_aftertouch_c, 0, 42, 0
1, 1044762, Note_on_c, 0, 54, 0
1, 1044794, Control_c, 0, 64, 119
1, 1044797, Note_on_c, 0, 39, 0
1, 1044809, Note_on_c, 0, 51, 0
1, 1044811, Control_c, 0, 64, 105
1, 1044832, Control_c, 0, 64, 91
1, 1044841, Note_on_c, 0, 47, 73
1, 1044850, Control_c, 0, 64, 82
1, 1044869, Control_c, 0, 64, 79
1, 1044876, Note_on_c, 0, 47, 0
1, 1044906, Control_c, 0, 64, 77
1, 1044914, Note_on_c, 0, 46, 79
1, 1044925, Control_c, 0, 64, 70
1, 1044944, Control_c, 0, 64, 54
1, 1044963, Control_c, 0, 64, 0
1, 1044979, Note_on_c, 0, 45, 88
1, 1045003, Note_on_c, 0, 46, 0
1, 1045003, Poly_aftertouch_c, 0, 46, 0
1, 1045023, Note_on_c, 0, 45, 0
1, 1045040, Note_on_c, 0, 41, 98
1, 1045041, Note_on_c, 0, 29, 88
1, 1045056, Control_c, 0, 64, 34
1, 1045074, Control_c, 0, 64, 81
1, 1045079, Note_on_c, 0, 29, 0
1, 1045083, Note_on_c, 0, 41, 0
1, 1045094, Control_c, 0, 64, 109
1, 1045112, Control_c, 0, 64, 127
1, 1045186, Poly_aftertouch_c, 0, 32, 0
1, 1045404, Note_on_c, 0, 49, 60
1, 1045424, Note_on_c, 0, 77, 76
1, 1045515, Poly_aftertouch_c, 0, 78, 0
1, 1045523, Note_on_c, 0, 49, 0
1, 1045616, Note_on_c, 0, 77, 0
1, 1045616, Poly_aftertouch_c, 0, 77, 0
1, 1045654, Note_on_c, 0, 58, 68
1, 1045659, Note_on_c, 0, 61, 71
1, 1045672, Note_on_c, 0, 53, 55
1, 1045719, Note_on_c, 0, 61, 0
1, 1045786, Note_on_c, 0, 85, 98
1, 1045798, Note_on_c, 0, 73, 82
1, 1045825, Note_on_c, 0, 58, 0
1, 1045833, Note_on_c, 0, 82, 42
1, 1045868, Note_on_c, 0, 77, 15
1, 1045870, Note_on_c, 0, 82, 0
1, 1045930, Note_on_c, 0, 73, 0
1, 1045957, Poly_aftertouch_c, 0, 53, 22
1, 1045959, Note_on_c, 0, 49, 71
1, 1045977, Poly_aftertouch_c, 0, 78, 0
1, 1045978, Note_on_c, 0, 53, 0
1, 1045978, Poly_aftertouch_c, 0, 53, 0
1, 1045998, Note_on_c, 0, 49, 0
1, 1046008, Note_on_c, 0, 77, 0
1, 1046008, Poly_aftertouch_c, 0, 77, 0
1, 1046011, Note_on_c, 0, 85, 0
1, 1046099, Note_on_c, 0, 41, 85
1, 1046189, Note_on_c, 0, 41, 0
1, 1046201, Note_on_c, 0, 77, 81
1, 1046228, Note_on_c, 0, 29, 80
1, 1046264, Note_on_c, 0, 77, 0
1, 1046264, Poly_aftertouch_c, 0, 77, 0
1, 1046304, Note_on_c, 0, 29, 0
1, 1046313, Note_on_c, 0, 41, 87
1, 1046316, Note_on_c, 0, 84, 101
1, 1046323, Note_on_c, 0, 77, 70
1, 1046326, Note_on_c, 0, 72, 82
1, 1046327, Note_on_c, 0, 80, 80
1, 1046352, Note_on_c, 0, 41, 0
1, 1046365, Poly_aftertouch_c, 0, 32, 0
1, 1046435, Note_on_c, 0, 77, 0
1, 1046435, Poly_aftertouch_c, 0, 77, 0
1, 1046441, Note_on_c, 0, 84, 0
1, 1046446, Note_on_c, 0, 80, 0
1, 1046469, Note_on_c, 0, 49, 55
1, 1046471, Note_on_c, 0, 72, 0
1, 1046513, Note_on_c, 0, 49, 0
1, 1046563, Note_on_c, 0, 61, 78
1, 1046566, Note_on_c, 0, 58, 71
1, 1046594, Note_on_c, 0, 61, 0
1, 1046598, Note_on_c, 0, 53, 49
1, 1046602, Note_on_c, 0, 58, 0
1, 1046662, Note_on_c, 0, 61, 81
1, 1046665, Note_on_c, 0, 58, 68
1, 1046693, Note_on_c, 0, 61, 0
1, 1046733, Note_on_c, 0, 77, 89
1, 1046735, Note_on_c, 0, 58, 0
1, 1046756, Note_on_c, 0, 49, 78
1, 1046767, Note_on_c, 0, 53, 0
1, 1046767, Poly_aftertouch_c, 0, 53, 0
1, 1046802, Note_on_c, 0, 49, 0
1, 1046961, Note_on_c, 0, 41, 81
1, 1047029, Note_on_c, 0, 82, 98
1, 1047036, Note_on_c, 0, 78, 70
1, 1047041, Note_on_c, 0, 70, 80
1, 1047048, Note_on_c, 0, 73, 55
1, 1047068, Note_on_c, 0, 77, 0
1, 1047068, Poly_aftertouch_c, 0, 77, 0
1, 1047069, Note_on_c, 0, 41, 0
1, 1047101, Note_on_c, 0, 73, 0
1, 1047146, Note_on_c, 0, 29, 65
1, 1047147, Note_on_c, 0, 70, 0
1, 1047227, Note_on_c, 0, 82, 0
1, 1047236, Note_on_c, 0, 29, 0
1, 1047247, Note_on_c, 0, 41, 84
1, 1047280, Note_on_c, 0, 41, 0
1, 1047399, Note_on_c, 0, 73, 80
1, 1047411, Note_on_c, 0, 49, 42
1, 1047417, Note_on_c, 0, 78, 0
1, 1047445, Note_on_c, 0, 49, 0
1, 1047516, Note_on_c, 0, 80, 96
1, 1047519, Note_on_c, 0, 68, 90
1, 1047523, Note_on_c, 0, 61, 85
1, 1047524, Note_on_c, 0, 58, 79
1, 1047537, Note_on_c, 0, 77, 72
1, 1047556, Note_on_c, 0, 61, 0
1, 1047556, Note_on_c, 0, 53, 52
1, 1047584, Note_on_c, 0, 68, 0
1, 1047587, Note_on_c, 0, 77, 0
1, 1047587, Poly_aftertouch_c, 0, 77, 0
1, 1047594, Note_on_c, 0, 73, 0
1, 1047624, Note_on_c, 0, 58, 0
1, 1047636, Note_on_c, 0, 80, 0
1, 1047656, Note_on_c, 0, 53, 0
1, 1047656, Poly_aftertouch_c, 0, 53, 0
1, 1047663, Note_on_c, 0, 49, 49
1, 1047702, Note_on_c, 0, 49, 0
1, 1047779, Note_on_c, 0, 41, 86
1, 1047912, Note_on_c, 0, 29, 76
1, 1047916, Note_on_c, 0, 73, 87
1, 1047918, Note_on_c, 0, 70, 81
1, 1047924, Note_on_c, 0, 41, 0
1, 1047955, Note_on_c, 0, 70, 0
1, 1047969, Note_on_c, 0, 73, 0
1, 1048018, Note_on_c, 0, 29, 0
1, 1048029, Note_on_c, 0, 41, 90
1, 1048039, Note_on_c, 0, 78, 96
1, 1048042, Note_on_c, 0, 66, 89
1, 1048044, Note_on_c, 0, 73, 80
1, 1048054, Note_on_c, 0, 70, 78
1, 1048055, Note_on_c, 0, 41, 0
1, 1048185, Note_on_c, 0, 49, 57
1, 1048215, Note_on_c, 0, 66, 0
1, 1048225, Note_on_c, 0, 49, 0
1, 1048245, Note_on_c, 0, 53, 36
1, 1048257, Note_on_c, 0, 61, 80
1, 1048266, Note_on_c, 0, 58, 68
1, 1048283, Note_on_c, 0, 78, 0
1, 1048287, Note_on_c, 0, 61, 0
1, 1048296, Note_on_c, 0, 58, 0
1, 1048312, Note_on_c, 0, 70, 0
1, 1048327, Note_on_c, 0, 73, 0
1, 1048358, Note_on_c, 0, 61, 83
1, 1048369, Note_on_c, 0, 58, 81
1, 1048414, Note_on_c, 0, 61, 0
1, 1048458, Note_on_c, 0, 73, 89
1, 1048460, Note_on_c, 0, 70, 85
1, 1048464, Note_on_c, 0, 49, 79
1, 1048466, Note_on_c, 0, 58, 0
1, 1048483, Note_on_c, 0, 53, 0
1, 1048483, Poly_aftertouch_c, 0, 53, 0
1, 1048512, Note_on_c, 0, 49, 0
1, 1048664, Note_on_c, 0, 70, 0
1, 1048680, Note_on_c, 0, 73, 0
1, 1048722, Note_on_c, 0, 77, 98
1, 1048738, Note_on_c, 0, 65, 76
1, 1048738, Control_c, 0, 64, 102
1, 1048740, Control_c, 0, 67, 9
1, 1048744, Note_on_c, 0, 41, 70
1, 1048746, Note_on_c, 0, 70, 58
1, 1048759, Control_c, 0, 64, 62
1, 1048761, Note_on_c, 0, 73, 51
1, 1048777, Control_c, 0, 64, 0
1, 1048778, Control_c, 0, 67, 15
1, 1048795, Control_c, 0, 67, 19
1, 1048813, Control_c, 0, 67, 24
1, 1048833, Control_c, 0, 64, 26
1, 1048834, Control_c, 0, 67, 30
1, 1048836, Note_on_c, 0, 73, 0
1, 1048853, Control_c, 0, 64, 57
1, 1048854, Control_c, 0, 67, 39
1, 1048857, Note_on_c, 0, 41, 0
1, 1048870, Note_on_c, 0, 70, 0
1, 1048870, Control_c, 0, 64, 79
1, 1048871, Control_c, 0, 67, 48
1, 1048885, Note_on_c, 0, 29, 74
1, 1048889, Control_c, 0, 64, 98
1, 1048892, Control_c, 0, 67, 58
1, 1048893, Note_on_c, 0, 65, 0
1, 1048908, Control_c, 0, 64, 116
1, 1048909, Control_c, 0, 67, 68
1, 1048927, Note_on_c, 0, 29, 0
1, 1048927, Control_c, 0, 64, 125
1, 1048928, Control_c, 0, 67, 76
1, 1048944, Control_c, 0, 67, 81
1, 1049001, Control_c, 0, 67, 86
1, 1049038, Control_c, 0, 67, 90
1, 1049114, Control_c, 0, 64, 111
1, 1049131, Control_c, 0, 64, 86
1, 1049151, Control_c, 0, 64, 54
1, 1049154, Control_c, 0, 67, 94
1, 1049164, Note_on_c, 0, 73, 72
1, 1049170, Note_on_c, 0, 71, 62
1, 1049170, Control_c, 0, 64, 0
1, 1049181, Note_on_c, 0, 77, 0
1, 1049181, Poly_aftertouch_c, 0, 77, 0
1, 1049183, Note_on_c, 0, 68, 48
1, 1049207, Control_c, 0, 67, 101
1, 1049222, Note_on_c, 0, 67, 58
1, 1049223, Note_on_c, 0, 68, 0
1, 1049244, Control_c, 0, 67, 105
1, 1049276, Note_on_c, 0, 67, 0
1, 1049311, Note_on_c, 0, 66, 58
1, 1049352, Note_on_c, 0, 66, 0
1, 1049384, Note_on_c, 0, 73, 0
1, 1049394, Note_on_c, 0, 65, 57
1, 1049395, Note_on_c, 0, 71, 0
1, 1049419, Note_on_c, 0, 70, 64
1, 1049423, Note_on_c, 0, 65, 0
1, 1049423, Note_on_c, 0, 67, 56
1, 1049453, Note_on_c, 0, 67, 0
1, 1049453, Note_on_c, 0, 70, 0
1, 1049477, Note_on_c, 0, 64, 54
1, 1049518, Note_on_c, 0, 64, 0
1, 1049570, Note_on_c, 0, 61, 54
1, 1049604, Note_on_c, 0, 61, 0
1, 1049642, Note_on_c, 0, 53, 62
1, 1049652, Note_on_c, 0, 82, 77
1, 1049673, Control_c, 0, 67, 111
1, 1049674, Note_on_c, 0, 82, 0
1, 1049675, Note_on_c, 0, 53, 0
1, 1049675, Poly_aftertouch_c, 0, 53, 0
1, 1049712, Control_c, 0, 67, 118
1, 1049921, Note_on_c, 0, 73, 77
1, 1049945, Note_on_c, 0, 67, 45
1, 1049955, Note_on_c, 0, 70, 48
1, 1049980, Note_on_c, 0, 67, 0
1, 1050009, Note_on_c, 0, 66, 54
1, 1050051, Note_on_c, 0, 66, 0
1, 1050089, Note_on_c, 0, 65, 61
1, 1050118, Note_on_c, 0, 65, 0
1, 1050136, Note_on_c, 0, 73, 0
1, 1050159, Note_on_c, 0, 70, 0
1, 1050173, Note_on_c, 0, 66, 56
1, 1050180, Note_on_c, 0, 69, 61
1, 1050182, Note_on_c, 0, 64, 49
1, 1050215, Note_on_c, 0, 64, 0
1, 1050216, Note_on_c, 0, 69, 0
1, 1050216, Poly_aftertouch_c, 0, 69, 0
1, 1050224, Note_on_c, 0, 66, 0
1, 1050263, Note_on_c, 0, 62, 54
1, 1050291, Control_c, 0, 67, 114
1, 1050296, Note_on_c, 0, 62, 0
1, 1050296, Poly_aftertouch_c, 0, 62, 0
1, 1050321, Note_on_c, 0, 61, 67
1, 1050375, Note_on_c, 0, 61, 0
1, 1050409, Note_on_c, 0, 81, 79
1, 1050419, Note_on_c, 0, 53, 60
1, 1050433, Note_on_c, 0, 81, 0
1, 1050433, Poly_aftertouch_c, 0, 81, 0
1, 1050459, Note_on_c, 0, 53, 0
1, 1050459, Poly_aftertouch_c, 0, 53, 0
1, 1050552, Control_c, 0, 67, 109
1, 1050674, Note_on_c, 0, 73, 73
1, 1050677, Note_on_c, 0, 69, 62
1, 1050681, Note_on_c, 0, 66, 53
1, 1050702, Control_c, 0, 67, 105
1, 1050713, Note_on_c, 0, 66, 0
1, 1050763, Note_on_c, 0, 65, 55
1, 1050808, Note_on_c, 0, 65, 0
1, 1050828, Note_on_c, 0, 64, 48
1, 1050877, Note_on_c, 0, 64, 0
1, 1050884, Note_on_c, 0, 69, 0
1, 1050884, Poly_aftertouch_c, 0, 69, 0
1, 1050902, Note_on_c, 0, 73, 0
1, 1050909, Control_c, 0, 67, 101
1, 1050912, Note_on_c, 0, 65, 62
1, 1050916, Note_on_c, 0, 68, 65
1, 1050920, Note_on_c, 0, 63, 50
1, 1050950, Note_on_c, 0, 68, 0
1, 1050953, Note_on_c, 0, 63, 0
1, 1050953, Poly_aftertouch_c, 0, 63, 0
1, 1050955, Note_on_c, 0, 65, 0
1, 1050987, Note_on_c, 0, 62, 64
1, 1051020, Control_c, 0, 67, 97
1, 1051029, Note_on_c, 0, 62, 0
1, 1051029, Poly_aftertouch_c, 0, 62, 0
1, 1051092, Note_on_c, 0, 61, 60
1, 1051114, Control_c, 0, 67, 93
1, 1051135, Note_on_c, 0, 61, 0
1, 1051148, Note_on_c, 0, 53, 64
1, 1051155, Note_on_c, 0, 80, 78
1, 1051180, Note_on_c, 0, 80, 0
1, 1051181, Note_on_c, 0, 53, 0
1, 1051181, Poly_aftertouch_c, 0, 53, 0
1, 1051226, Control_c, 0, 67, 89
1, 1051281, Control_c, 0, 67, 84
1, 1051339, Control_c, 0, 67, 79
1, 1051413, Note_on_c, 0, 73, 80
1, 1051413, Control_c, 0, 67, 75
1, 1051428, Note_on_c, 0, 65, 58
1, 1051428, Note_on_c, 0, 68, 63
1, 1051451, Control_c, 0, 64, 56
1, 1051469, Control_c, 0, 64, 78
1, 1051477, Note_on_c, 0, 65, 0
1, 1051488, Control_c, 0, 64, 80
1, 1051505, Note_on_c, 0, 62, 54
1, 1051545, Note_on_c, 0, 62, 0
1, 1051545, Poly_aftertouch_c, 0, 62, 0
1, 1051573, Note_on_c, 0, 61, 56
1, 1051580, Control_c, 0, 67, 71
1, 1051612, Note_on_c, 0, 61, 0
1, 1051650, Note_on_c, 0, 68, 0
1, 1051651, Note_on_c, 0, 73, 0
1, 1051659, Note_on_c, 0, 60, 52
1, 1051682, Note_on_c, 0, 67, 67
1, 1051688, Note_on_c, 0, 64, 61
1, 1051692, Note_on_c, 0, 60, 0
1, 1051717, Note_on_c, 0, 67, 0
1, 1051724, Note_on_c, 0, 59, 51
1, 1051730, Note_on_c, 0, 64, 0
1, 1051730, Control_c, 0, 67, 66
1, 1051768, Note_on_c, 0, 58, 23
1, 1051798, Note_on_c, 0, 59, 0
1, 1051805, Control_c, 0, 67, 62
1, 1051817, Note_on_c, 0, 49, 69
1, 1051822, Note_on_c, 0, 58, 0
1, 1051847, Note_on_c, 0, 49, 0
1, 1051862, Control_c, 0, 64, 76
1, 1051863, Control_c, 0, 67, 58
1, 1051881, Control_c, 0, 64, 67
1, 1051900, Control_c, 0, 64, 38
1, 1051912, Note_on_c, 0, 79, 80
1, 1051918, Control_c, 0, 64, 0
1, 1051938, Note_on_c, 0, 79, 0
1, 1052031, Control_c, 0, 67, 54
1, 1052184, Note_on_c, 0, 54, 72
1, 1052197, Note_on_c, 0, 42, 74
1, 1052210, Note_on_c, 0, 30, 54
1, 1052217, Note_on_c, 0, 54, 0
1, 1052217, Control_c, 0, 64, 106
1, 1052218, Control_c, 0, 67, 49
1, 1052230, Note_on_c, 0, 42, 0
1, 1052230, Poly_aftertouch_c, 0, 42, 0
1, 1052235, Control_c, 0, 64, 127
1, 1052255, Note_on_c, 0, 30, 0
1, 1052255, Control_c, 0, 67, 45
1, 1052310, Control_c, 0, 67, 41
1, 1052456, Note_on_c, 0, 49, 63
1, 1052456, Note_on_c, 0, 85, 67
1, 1052460, Control_c, 0, 67, 37
1, 1052478, Note_on_c, 0, 85, 0
1, 1052535, Note_on_c, 0, 70, 82
1, 1052544, Note_on_c, 0, 76, 67
1, 1052560, Poly_aftertouch_c, 0, 73, 0
1, 1052561, Note_on_c, 0, 70, 0
1, 1052567, Poly_aftertouch_c, 0, 82, 127
1, 1052568, Note_on_c, 0, 76, 0
1, 1052568, Poly_aftertouch_c, 0, 76, 0
1, 1052577, Note_on_c, 0, 49, 0
1, 1052595, Poly_aftertouch_c, 0, 82, 0
1, 1052606, Note_on_c, 0, 61, 67
1, 1052644, Note_on_c, 0, 61, 0
1, 1052717, Note_on_c, 0, 64, 69
1, 1052742, Control_c, 0, 64, 101
1, 1052744, Note_on_c, 0, 64, 0
1, 1052761, Control_c, 0, 64, 33
1, 1052774, Note_on_c, 0, 67, 79
1, 1052777, Control_c, 0, 64, 0
1, 1052778, Control_c, 0, 67, 33
1, 1052825, Note_on_c, 0, 70, 70
1, 1052826, Note_on_c, 0, 67, 0
1, 1052872, Control_c, 0, 67, 28
1, 1052891, Note_on_c, 0, 73, 81
1, 1052898, Note_on_c, 0, 70, 0
1, 1052910, Control_c, 0, 67, 22
1, 1052918, Note_on_c, 0, 73, 0
1, 1052928, Control_c, 0, 67, 17
1, 1052946, Control_c, 0, 67, 11
1, 1053002, Control_c, 0, 67, 0
1, 1053017, Note_on_c, 0, 91, 99
1, 1053021, Note_on_c, 0, 55, 64
1, 1053021, Control_c, 0, 64, 120
1, 1053022, Note_on_c, 0, 67, 76
1, 1053025, Note_on_c, 0, 79, 74
1, 1053040, Control_c, 0, 64, 127
1, 1053049, Note_on_c, 0, 79, 0
1, 1053051, Note_on_c, 0, 67, 0
1, 1053053, Note_on_c, 0, 55, 0
1, 1053053, Poly_aftertouch_c, 0, 55, 0
1, 1053062, Note_on_c, 0, 91, 0
1, 1053264, Note_on_c, 0, 70, 84
1, 1053269, Note_on_c, 0, 60, 78
1, 1053274, Note_on_c, 0, 84, 95
1, 1053278, Note_on_c, 0, 72, 84
1, 1053282, Note_on_c, 0, 64, 49
1, 1053285, Note_on_c, 0, 76, 78
1, 1053290, Note_on_c, 0, 70, 0
1, 1053303, Note_on_c, 0, 72, 0
1, 1053305, Note_on_c, 0, 60, 0
1, 1053312, Note_on_c, 0, 76, 0
1, 1053312, Poly_aftertouch_c, 0, 76, 0
1, 1053316, Note_on_c, 0, 64, 0
1, 1053319, Note_on_c, 0, 84, 0
1, 1053532, Note_on_c, 0, 71, 91
1, 1053533, Note_on_c, 0, 59, 75
1, 1053534, Note_on_c, 0, 52, 78
1, 1053546, Note_on_c, 0, 64, 68
1, 1053552, Note_on_c, 0, 71, 0
1, 1053563, Note_on_c, 0, 59, 0
1, 1053566, Note_on_c, 0, 52, 0
1, 1053568, Note_on_c, 0, 64, 0
1, 1053621, Control_c, 0, 64, 122
1, 1053638, Control_c, 0, 64, 87
1, 1053658, Control_c, 0, 64, 45
1, 1053676, Control_c, 0, 64, 0
1, 1053803, Note_on_c, 0, 54, 82
1, 1053815, Note_on_c, 0, 30, 82
1, 1053824, Note_on_c, 0, 42, 72
1, 1053824, Control_c, 0, 64, 91
1, 1053835, Note_on_c, 0, 54, 0
1, 1053843, Control_c, 0, 64, 127
1, 1053855, Note_on_c, 0, 42, 0
1, 1053855, Poly_aftertouch_c, 0, 42, 0
1, 1053856, Note_on_c, 0, 30, 0
1, 1053994, Poly_aftertouch_c, 0, 54, 0
1, 1054063, Note_on_c, 0, 73, 78
1, 1054075, Note_on_c, 0, 49, 58
1, 1054082, Note_on_c, 0, 58, 63
1, 1054086, Control_c, 0, 64, 115
1, 1054105, Control_c, 0, 64, 67
1, 1054124, Control_c, 0, 64, 0
1, 1054131, Note_on_c, 0, 49, 0
1, 1054132, Note_on_c, 0, 61, 77
1, 1054134, Note_on_c, 0, 58, 0
1, 1054138, Note_on_c, 0, 70, 80
1, 1054148, Note_on_c, 0, 67, 37
1, 1054162, Control_c, 0, 64, 31
1, 1054166, Note_on_c, 0, 61, 0
1, 1054181, Control_c, 0, 64, 58
1, 1054190, Note_on_c, 0, 67, 0
1, 1054190, Note_on_c, 0, 64, 66
1, 1054200, Control_c, 0, 64, 71
1, 1054203, Note_on_c, 0, 73, 0
1, 1054219, Control_c, 0, 64, 81
1, 1054237, Control_c, 0, 64, 86
1, 1054276, Control_c, 0, 64, 78
1, 1054293, Control_c, 0, 64, 50
1, 1054311, Control_c, 0, 64, 0
1, 1054323, Note_on_c, 0, 62, 65
1, 1054347, Note_on_c, 0, 70, 0
1, 1054348, Control_c, 0, 64, 45
1, 1054351, Note_on_c, 0, 64, 0
1, 1054367, Control_c, 0, 64, 69
1, 1054379, Note_on_c, 0, 62, 0
1, 1054379, Note_on_c, 0, 61, 71
1, 1054379, Poly_aftertouch_c, 0, 62, 0
1, 1054386, Control_c, 0, 64, 85
1, 1054405, Control_c, 0, 64, 100
1, 1054424, Control_c, 0, 64, 110
1, 1054478, Note_on_c, 0, 58, 57
1, 1054480, Note_on_c, 0, 61, 0
1, 1054496, Note_on_c, 0, 55, 69
1, 1054513, Note_on_c, 0, 58, 0
1, 1054516, Control_c, 0, 64, 104
1, 1054531, Note_on_c, 0, 55, 0
1, 1054531, Poly_aftertouch_c, 0, 55, 0
1, 1054536, Control_c, 0, 64, 85
1, 1054555, Control_c, 0, 64, 47
1, 1054573, Control_c, 0, 64, 0
1, 1054602, Note_on_c, 0, 64, 83
1, 1054610, Control_c, 0, 64, 49
1, 1054617, Note_on_c, 0, 52, 78
1, 1054630, Control_c, 0, 64, 86
1, 1054632, Note_on_c, 0, 64, 0
1, 1054634, Note_on_c, 0, 40, 71
1, 1054649, Control_c, 0, 64, 114
1, 1054651, Note_on_c, 0, 52, 0
1, 1054662, Note_on_c, 0, 40, 0
1, 1054667, Control_c, 0, 64, 127
1, 1054821, Note_on_c, 0, 60, 64
1, 1054842, Note_on_c, 0, 48, 64
1, 1054859, Note_on_c, 0, 60, 0
1, 1054886, Note_on_c, 0, 59, 69
1, 1054921, Note_on_c, 0, 59, 0
1, 1054930, Note_on_c, 0, 48, 0
1, 1054933, Note_on_c, 0, 47, 61
1, 1054960, Note_on_c, 0, 58, 71
1, 1054991, Note_on_c, 0, 46, 67
1, 1055011, Note_on_c, 0, 58, 0
1, 1055020, Note_on_c, 0, 55, 71
1, 1055031, Note_on_c, 0, 47, 0
1, 1055056, Note_on_c, 0, 46, 0
1, 1055056, Poly_aftertouch_c, 0, 46, 0
1, 1055072, Note_on_c, 0, 43, 37
1, 1055076, Note_on_c, 0, 55, 0
1, 1055076, Poly_aftertouch_c, 0, 55, 0
1, 1055086, Note_on_c, 0, 52, 73
1, 1055120, Note_on_c, 0, 43, 0
1, 1055127, Note_on_c, 0, 52, 0
1, 1055178, Note_on_c, 0, 48, 83
1, 1055213, Poly_aftertouch_c, 0, 53, 0
1, 1055253, Note_on_c, 0, 47, 80
1, 1055259, Note_on_c, 0, 48, 0
1, 1055314, Note_on_c, 0, 46, 95
1, 1055330, Note_on_c, 0, 47, 0
1, 1055340, Control_c, 0, 64, 112
1, 1055359, Control_c, 0, 64, 54
1, 1055362, Note_on_c, 0, 46, 0
1, 1055362, Poly_aftertouch_c, 0, 46, 0
1, 1055377, Control_c, 0, 64, 0
1, 1055389, Note_on_c, 0, 42, 105
1, 1055392, Note_on_c, 0, 30, 94
1, 1055415, Control_c, 0, 64, 8
1, 1055435, Control_c, 0, 64, 60
1, 1055441, Note_on_c, 0, 32, 31
1, 1055452, Control_c, 0, 64, 88
1, 1055456, Note_on_c, 0, 30, 0
1, 1055456, Note_on_c, 0, 42, 0
1, 1055456, Poly_aftertouch_c, 0, 42, 0
1, 1055470, Control_c, 0, 64, 127
1, 1055497, Note_on_c, 0, 32, 0
1, 1055719, Note_on_c, 0, 84, 16
1, 1055795, Note_on_c, 0, 84, 0
1, 1055815, Note_on_c, 0, 78, 88
1, 1055826, Note_on_c, 0, 50, 67
1, 1056107, Note_on_c, 0, 62, 82
1, 1056108, Note_on_c, 0, 59, 79
1, 1056109, Note_on_c, 0, 78, 0
1, 1056112, Note_on_c, 0, 54, 74
1, 1056168, Note_on_c, 0, 50, 0
1, 1056270, Note_on_c, 0, 62, 0
1, 1056270, Poly_aftertouch_c, 0, 62, 0
1, 1056271, Note_on_c, 0, 86, 99
1, 1056287, Note_on_c, 0, 74, 83
1, 1056300, Note_on_c, 0, 78, 61
1, 1056341, Note_on_c, 0, 78, 0
1, 1056346, Note_on_c, 0, 59, 0
1, 1056487, Poly_aftertouch_c, 0, 78, 0
1, 1056488, Note_on_c, 0, 50, 74
1, 1056511, Note_on_c, 0, 54, 0
1, 1056526, Note_on_c, 0, 50, 0
1, 1056594, Note_on_c, 0, 86, 0
1, 1056594, Poly_aftertouch_c, 0, 86, 0
1, 1056619, Note_on_c, 0, 74, 0
1, 1056636, Note_on_c, 0, 42, 88
1, 1056736, Note_on_c, 0, 78, 82
1, 1056737, Note_on_c, 0, 42, 0
1, 1056737, Poly_aftertouch_c, 0, 42, 0
1, 1056775, Note_on_c, 0, 30, 80
1, 1056808, Note_on_c, 0, 78, 0
1, 1056822, Note_on_c, 0, 32, 31
1, 1056854, Note_on_c, 0, 85, 98
1, 1056854, Note_on_c, 0, 73, 91
1, 1056860, Note_on_c, 0, 78, 60
1, 1056862, Note_on_c, 0, 30, 0
1, 1056867, Note_on_c, 0, 42, 85
1, 1056872, Note_on_c, 0, 81, 71
1, 1056876, Note_on_c, 0, 32, 0
1, 1056898, Note_on_c, 0, 42, 0
1, 1056898, Poly_aftertouch_c, 0, 42, 0
1, 1056922, Note_on_c, 0, 82, 10
1, 1056923, Note_on_c, 0, 82, 0
1, 1056939, Note_on_c, 0, 81, 0
1, 1056939, Poly_aftertouch_c, 0, 81, 0
1, 1056941, Note_on_c, 0, 78, 0
1, 1056967, Note_on_c, 0, 85, 0
1, 1056974, Note_on_c, 0, 73, 0
1, 1057026, Note_on_c, 0, 50, 64
1, 1057104, Note_on_c, 0, 59, 62
1, 1057120, Note_on_c, 0, 50, 0
1, 1057120, Note_on_c, 0, 62, 66
1, 1057130, Note_on_c, 0, 54, 55
1, 1057151, Note_on_c, 0, 59, 0
1, 1057156, Note_on_c, 0, 62, 0
1, 1057156, Poly_aftertouch_c, 0, 62, 0
1, 1057206, Note_on_c, 0, 62, 88
1, 1057209, Note_on_c, 0, 59, 80
1, 1057224, Note_on_c, 0, 54, 0
1, 1057224, Note_on_c, 0, 54, 47
1, 1057258, Note_on_c, 0, 62, 0
1, 1057258, Poly_aftertouch_c, 0, 62, 0
1, 1057276, Note_on_c, 0, 59, 0
1, 1057281, Note_on_c, 0, 78, 90
1, 1057287, Note_on_c, 0, 74, 89
1, 1057305, Note_on_c, 0, 50, 82
1, 1057328, Note_on_c, 0, 54, 0
1, 1057337, Note_on_c, 0, 50, 0
1, 1057476, Note_on_c, 0, 42, 86
1, 1057547, Note_on_c, 0, 30, 10
1, 1057547, Note_on_c, 0, 83, 101
1, 1057557, Note_on_c, 0, 71, 86
1, 1057584, Note_on_c, 0, 78, 0
1, 1057591, Note_on_c, 0, 30, 0
1, 1057599, Note_on_c, 0, 74, 0
1, 1057610, Note_on_c, 0, 42, 0
1, 1057610, Poly_aftertouch_c, 0, 42, 0
1, 1057669, Note_on_c, 0, 30, 77
1, 1057740, Note_on_c, 0, 83, 0
1, 1057749, Note_on_c, 0, 42, 78
1, 1057752, Note_on_c, 0, 30, 0
1, 1057792, Note_on_c, 0, 42, 0
1, 1057792, Poly_aftertouch_c, 0, 42, 0
1, 1057801, Note_on_c, 0, 71, 0
1, 1057807, Poly_aftertouch_c, 0, 32, 0
1, 1057901, Note_on_c, 0, 74, 82
1, 1057910, Note_on_c, 0, 50, 62
1, 1057962, Note_on_c, 0, 50, 0
1, 1058009, Note_on_c, 0, 74, 0
1, 1058009, Note_on_c, 0, 74, 52
1, 1058019, Note_on_c, 0, 81, 98
1, 1058022, Note_on_c, 0, 69, 93
1, 1058025, Note_on_c, 0, 59, 77
1, 1058026, Note_on_c, 0, 62, 84
1, 1058029, Note_on_c, 0, 78, 82
1, 1058039, Note_on_c, 0, 54, 68
1, 1058088, Note_on_c, 0, 62, 0
1, 1058088, Poly_aftertouch_c, 0, 62, 0
1, 1058139, Note_on_c, 0, 59, 0
1, 1058155, Note_on_c, 0, 74, 0
1, 1058161, Note_on_c, 0, 78, 0
1, 1058161, Note_on_c, 0, 50, 74
1, 1058165, Note_on_c, 0, 54, 0
1, 1058182, Note_on_c, 0, 81, 0
1, 1058182, Poly_aftertouch_c, 0, 81, 0
1, 1058200, Note_on_c, 0, 50, 0
1, 1058258, Note_on_c, 0, 69, 0
1, 1058258, Poly_aftertouch_c, 0, 69, 0
1, 1058271, Note_on_c, 0, 42, 90
1, 1058375, Note_on_c, 0, 42, 0
1, 1058375, Poly_aftertouch_c, 0, 42, 0
1, 1058404, Note_on_c, 0, 30, 83
1, 1058414, Note_on_c, 0, 74, 85
1, 1058457, Note_on_c, 0, 71, 45
1, 1058494, Note_on_c, 0, 71, 0
1, 1058507, Note_on_c, 0, 74, 0
1, 1058517, Note_on_c, 0, 30, 0
1, 1058528, Note_on_c, 0, 42, 83
1, 1058543, Note_on_c, 0, 67, 95
1, 1058544, Note_on_c, 0, 79, 97
1, 1058548, Note_on_c, 0, 74, 67
1, 1058561, Note_on_c, 0, 71, 73
1, 1058569, Note_on_c, 0, 42, 0
1, 1058569, Poly_aftertouch_c, 0, 29, 0
1, 1058569, Poly_aftertouch_c, 0, 42, 0
1, 1058592, Note_on_c, 0, 77, 36
1, 1058592, Poly_aftertouch_c, 0, 77, 0
1, 1058593, Note_on_c, 0, 77, 0
1, 1058688, Note_on_c, 0, 50, 66
1, 1058710, Note_on_c, 0, 67, 0
1, 1058714, Note_on_c, 0, 79, 0
1, 1058727, Note_on_c, 0, 74, 0
1, 1058747, Note_on_c, 0, 71, 0
1, 1058755, Note_on_c, 0, 59, 48
1, 1058769, Note_on_c, 0, 50, 0
1, 1058784, Poly_aftertouch_c, 0, 52, 0
1, 1058796, Note_on_c, 0, 62, 60
1, 1058818, Note_on_c, 0, 54, 20
1, 1058907, Note_on_c, 0, 74, 86
1, 1058908, Note_on_c, 0, 71, 82
1, 1058946, Note_on_c, 0, 62, 0
1, 1058946, Poly_aftertouch_c, 0, 62, 0
1, 1058972, Note_on_c, 0, 59, 0
1, 1058973, Poly_aftertouch_c, 0, 59, 0
1, 1058974, Note_on_c, 0, 74, 0
1, 1058985, Note_on_c, 0, 71, 0
1, 1059005, Note_on_c, 0, 50, 86
1, 1059028, Note_on_c, 0, 54, 0
1, 1059036, Note_on_c, 0, 50, 0
1, 1059050, Note_on_c, 0, 66, 97
1, 1059053, Note_on_c, 0, 78, 92
1, 1059055, Note_on_c, 0, 74, 85
1, 1059056, Note_on_c, 0, 71, 75
1, 1059075, Note_on_c, 0, 66, 0
1, 1059087, Note_on_c, 0, 71, 0
1, 1059090, Note_on_c, 0, 74, 0
1, 1059110, Note_on_c, 0, 78, 0
1, 1059124, Note_on_c, 0, 42, 89
1, 1059140, Note_on_c, 0, 44, 76
1, 1059185, Note_on_c, 0, 44, 0
1, 1059267, Note_on_c, 0, 42, 0
1, 1059267, Poly_aftertouch_c, 0, 42, 0
1, 1059277, Note_on_c, 0, 30, 9
1, 1059317, Note_on_c, 0, 30, 0
1, 1059379, Control_c, 0, 64, 96
1, 1059398, Control_c, 0, 64, 39
1, 1059416, Control_c, 0, 64, 0
1, 1059424, Note_on_c, 0, 53, 95
1, 1059427, Note_on_c, 0, 65, 90
1, 1059430, Note_on_c, 0, 62, 80
1, 1059431, Note_on_c, 0, 58, 87
1, 1059435, Note_on_c, 0, 38, 106
1, 1059440, Note_on_c, 0, 26, 98
1, 1059458, Note_on_c, 0, 53, 0
1, 1059468, Note_on_c, 0, 38, 0
1, 1059471, Note_on_c, 0, 26, 0
1, 1059471, Control_c, 0, 64, 62
1, 1059472, Note_on_c, 0, 62, 0
1, 1059472, Poly_aftertouch_c, 0, 62, 0
1, 1059482, Note_on_c, 0, 58, 0
1, 1059491, Note_on_c, 0, 65, 0
1, 1059491, Control_c, 0, 64, 96
1, 1059509, Control_c, 0, 64, 127
1, 1059658, Note_on_c, 0, 51, 43
1, 1059697, Note_on_c, 0, 51, 0
1, 1059768, Note_on_c, 0, 77, 80
1, 1059775, Note_on_c, 0, 50, 72
1, 1059794, Note_on_c, 0, 74, 47
1, 1059824, Note_on_c, 0, 77, 0
1, 1059824, Poly_aftertouch_c, 0, 77, 0
1, 1059828, Note_on_c, 0, 74, 0
1, 1059868, Note_on_c, 0, 86, 101
1, 1059869, Note_on_c, 0, 77, 83
1, 1059869, Note_on_c, 0, 74, 103
1, 1059870, Note_on_c, 0, 82, 95
1, 1059891, Note_on_c, 0, 58, 87
1, 1059893, Note_on_c, 0, 62, 90
1, 1059896, Note_on_c, 0, 53, 70
1, 1059906, Note_on_c, 0, 78, 36
1, 1059907, Note_on_c, 0, 78, 0
1, 1059910, Note_on_c, 0, 74, 0
1, 1059914, Note_on_c, 0, 50, 0
1, 1059933, Note_on_c, 0, 86, 0
1, 1059933, Poly_aftertouch_c, 0, 86, 0
1, 1059935, Note_on_c, 0, 77, 0
1, 1059935, Poly_aftertouch_c, 0, 77, 0
1, 1059940, Note_on_c, 0, 62, 0
1, 1059940, Poly_aftertouch_c, 0, 62, 0
1, 1059943, Note_on_c, 0, 82, 0
1, 1060021, Note_on_c, 0, 58, 0
1, 1060053, Note_on_c, 0, 53, 0
1, 1060064, Note_on_c, 0, 50, 76
1, 1060110, Note_on_c, 0, 50, 0
1, 1060233, Note_on_c, 0, 38, 92
1, 1060331, Note_on_c, 0, 65, 70
1, 1060332, Note_on_c, 0, 74, 71
1, 1060336, Note_on_c, 0, 77, 70
1, 1060364, Note_on_c, 0, 74, 0
1, 1060364, Note_on_c, 0, 65, 0
1, 1060377, Note_on_c, 0, 38, 0
1, 1060377, Note_on_c, 0, 26, 76
1, 1060378, Note_on_c, 0, 77, 0
1, 1060378, Poly_aftertouch_c, 0, 77, 0
1, 1060461, Note_on_c, 0, 84, 102
1, 1060464, Note_on_c, 0, 72, 97
1, 1060465, Note_on_c, 0, 81, 94
1, 1060474, Note_on_c, 0, 38, 91
1, 1060481, Note_on_c, 0, 26, 0
1, 1060483, Note_on_c, 0, 81, 0
1, 1060483, Note_on_c, 0, 72, 0
1, 1060483, Poly_aftertouch_c, 0, 81, 0
1, 1060506, Note_on_c, 0, 84, 0
1, 1060530, Note_on_c, 0, 38, 0
1, 1060644, Note_on_c, 0, 52, 78
1, 1060765, Note_on_c, 0, 62, 78
1, 1060766, Note_on_c, 0, 52, 0
1, 1060774, Poly_aftertouch_c, 0, 54, 127
1, 1060789, Note_on_c, 0, 58, 47
1, 1060801, Note_on_c, 0, 62, 0
1, 1060801, Poly_aftertouch_c, 0, 62, 0
1, 1060848, Note_on_c, 0, 58, 0
1, 1060862, Note_on_c, 0, 65, 85
1, 1060865, Note_on_c, 0, 74, 79
1, 1060874, Note_on_c, 0, 77, 76
1, 1060880, Poly_aftertouch_c, 0, 54, 0
1, 1060882, Note_on_c, 0, 50, 76
1, 1060892, Note_on_c, 0, 65, 0
1, 1060895, Note_on_c, 0, 74, 0
1, 1060905, Note_on_c, 0, 77, 0
1, 1060905, Poly_aftertouch_c, 0, 77, 0
1, 1060909, Note_on_c, 0, 50, 0
1, 1060994, Note_on_c, 0, 82, 102
1, 1060997, Note_on_c, 0, 70, 96
1, 1061001, Note_on_c, 0, 38, 91
1, 1061015, Note_on_c, 0, 70, 0
1, 1061033, Note_on_c, 0, 82, 0
1, 1061078, Note_on_c, 0, 38, 0
1, 1061149, Note_on_c, 0, 26, 80
1, 1061189, Note_on_c, 0, 27, 43
1, 1061233, Note_on_c, 0, 27, 0
1, 1061244, Note_on_c, 0, 26, 0
1, 1061250, Note_on_c, 0, 38, 85
1, 1061290, Note_on_c, 0, 38, 0
1, 1061366, Note_on_c, 0, 74, 82
1, 1061368, Note_on_c, 0, 62, 72
1, 1061371, Note_on_c, 0, 70, 74
1, 1061390, Note_on_c, 0, 62, 0
1, 1061390, Poly_aftertouch_c, 0, 62, 0
1, 1061397, Note_on_c, 0, 70, 0
1, 1061397, Note_on_c, 0, 74, 0
1, 1061415, Note_on_c, 0, 50, 51
1, 1061449, Note_on_c, 0, 50, 0
1, 1061502, Note_on_c, 0, 81, 99
1, 1061504, Note_on_c, 0, 69, 95
1, 1061507, Note_on_c, 0, 77, 91
1, 1061513, Note_on_c, 0, 62, 75
1, 1061522, Note_on_c, 0, 58, 78
1, 1061524, Note_on_c, 0, 69, 0
1, 1061524, Poly_aftertouch_c, 0, 69, 0
1, 1061527, Note_on_c, 0, 77, 0
1, 1061527, Poly_aftertouch_c, 0, 77, 0
1, 1061544, Note_on_c, 0, 81, 0
1, 1061544, Poly_aftertouch_c, 0, 81, 0
1, 1061546, Note_on_c, 0, 53, 45
1, 1061565, Note_on_c, 0, 62, 0
1, 1061565, Poly_aftertouch_c, 0, 62, 0
1, 1061567, Note_on_c, 0, 54, 33
1, 1061619, Note_on_c, 0, 58, 0
1, 1061626, Note_on_c, 0, 54, 0
1, 1061634, Note_on_c, 0, 50, 60
1, 1061660, Note_on_c, 0, 53, 0
1, 1061689, Note_on_c, 0, 50, 0
1, 1061782, Note_on_c, 0, 38, 90
1, 1061864, Note_on_c, 0, 38, 0
1, 1061893, Note_on_c, 0, 62, 75
1, 1061897, Note_on_c, 0, 74, 75
1, 1061899, Note_on_c, 0, 70, 72
1, 1061924, Note_on_c, 0, 62, 0
1, 1061924, Poly_aftertouch_c, 0, 62, 0
1, 1061925, Note_on_c, 0, 70, 0
1, 1061928, Note_on_c, 0, 74, 0
1, 1061935, Note_on_c, 0, 26, 71
1, 1062019, Note_on_c, 0, 75, 99
1, 1062020, Note_on_c, 0, 67, 90
1, 1062021, Note_on_c, 0, 79, 98
1, 1062029, Note_on_c, 0, 38, 89
1, 1062034, Note_on_c, 0, 26, 0
1, 1062038, Note_on_c, 0, 75, 0
1, 1062038, Poly_aftertouch_c, 0, 75, 0
1, 1062043, Note_on_c, 0, 79, 0
1, 1062047, Note_on_c, 0, 67, 0
1, 1062047, Poly_aftertouch_c, 0, 27, 127
1, 1062075, Note_on_c, 0, 38, 0
1, 1062089, Poly_aftertouch_c, 0, 27, 0
1, 1062195, Note_on_c, 0, 50, 63
1, 1062252, Note_on_c, 0, 50, 0
1, 1062308, Note_on_c, 0, 62, 82
1, 1062311, Note_on_c, 0, 58, 80
1, 1062347, Note_on_c, 0, 62, 0
1, 1062347, Poly_aftertouch_c, 0, 62, 0
1, 1062384, Note_on_c, 0, 53, 40
1, 1062385, Note_on_c, 0, 58, 0
1, 1062416, Note_on_c, 0, 50, 67
1, 1062418, Note_on_c, 0, 70, 76
1, 1062419, Note_on_c, 0, 53, 0
1, 1062426, Note_on_c, 0, 74, 72
1, 1062446, Note_on_c, 0, 70, 0
1, 1062448, Note_on_c, 0, 50, 0
1, 1062452, Note_on_c, 0, 62, 35
1, 1062454, Note_on_c, 0, 74, 0
1, 1062481, Note_on_c, 0, 62, 0
1, 1062481, Poly_aftertouch_c, 0, 62, 0
1, 1062539, Control_c, 0, 64, 104
1, 1062542, Note_on_c, 0, 65, 98
1, 1062542, Note_on_c, 0, 77, 99
1, 1062544, Note_on_c, 0, 38, 90
1, 1062546, Note_on_c, 0, 74, 96
1, 1062560, Control_c, 0, 64, 33
1, 1062577, Control_c, 0, 64, 0
1, 1062678, Note_on_c, 0, 38, 0
1, 1062707, Note_on_c, 0, 26, 72
1, 1062777, Note_on_c, 0, 65, 0
1, 1062782, Control_c, 0, 64, 63
1, 1062791, Note_on_c, 0, 38, 96
1, 1062799, Control_c, 0, 64, 127
1, 1062804, Note_on_c, 0, 77, 0
1, 1062804, Poly_aftertouch_c, 0, 77, 0
1, 1062808, Note_on_c, 0, 74, 0
1, 1062810, Note_on_c, 0, 26, 0
1, 1062818, Control_c, 0, 67, 9
1, 1062833, Note_on_c, 0, 38, 0
1, 1062858, Control_c, 0, 64, 122
1, 1062859, Control_c, 0, 67, 17
1, 1062876, Control_c, 0, 64, 73
1, 1062879, Control_c, 0, 67, 22
1, 1062894, Control_c, 0, 64, 0
1, 1062895, Control_c, 0, 67, 28
1, 1062912, Control_c, 0, 67, 33
1, 1062932, Control_c, 0, 67, 37
1, 1062950, Control_c, 0, 67, 44
1, 1062969, Control_c, 0, 67, 50
1, 1062987, Control_c, 0, 67, 55
1, 1062996, Note_on_c, 0, 66, 35
1, 1063007, Note_on_c, 0, 54, 50
1, 1063025, Note_on_c, 0, 72, 53
1, 1063038, Note_on_c, 0, 66, 0
1, 1063051, Note_on_c, 0, 76, 64
1, 1063057, Note_on_c, 0, 54, 0
1, 1063061, Note_on_c, 0, 72, 0
1, 1063070, Note_on_c, 0, 60, 55
1, 1063075, Note_on_c, 0, 64, 59
1, 1063093, Note_on_c, 0, 76, 0
1, 1063093, Poly_aftertouch_c, 0, 76, 0
1, 1063100, Note_on_c, 0, 81, 63
1, 1063119, Note_on_c, 0, 64, 0
1, 1063119, Note_on_c, 0, 60, 0
1, 1063140, Note_on_c, 0, 81, 0
1, 1063140, Poly_aftertouch_c, 0, 81, 0
1, 1063194, Control_c, 0, 67, 51
1, 1063221, Note_on_c, 0, 55, 53
1, 1063230, Note_on_c, 0, 67, 60
1, 1063274, Note_on_c, 0, 67, 0
1, 1063275, Note_on_c, 0, 55, 0
1, 1063275, Poly_aftertouch_c, 0, 55, 0
1, 1063282, Note_on_c, 0, 73, 60
1, 1063293, Note_on_c, 0, 77, 64
1, 1063313, Note_on_c, 0, 65, 60
1, 1063329, Note_on_c, 0, 61, 55
1, 1063345, Note_on_c, 0, 81, 70
1, 1063347, Note_on_c, 0, 73, 0
1, 1063355, Note_on_c, 0, 77, 0
1, 1063355, Poly_aftertouch_c, 0, 77, 0
1, 1063359, Note_on_c, 0, 65, 0
1, 1063362, Control_c, 0, 67, 45
1, 1063391, Note_on_c, 0, 61, 0
1, 1063416, Note_on_c, 0, 81, 0
1, 1063416, Poly_aftertouch_c, 0, 81, 0
1, 1063417, Control_c, 0, 67, 40
1, 1063440, Note_on_c, 0, 57, 52
1, 1063454, Control_c, 0, 67, 36
1, 1063461, Note_on_c, 0, 69, 59
1, 1063473, Note_on_c, 0, 57, 0
1, 1063473, Poly_aftertouch_c, 0, 57, 0
1, 1063493, Control_c, 0, 67, 32
1, 1063517, Note_on_c, 0, 74, 60
1, 1063521, Note_on_c, 0, 78, 67
1, 1063530, Control_c, 0, 64, 45
1, 1063543, Note_on_c, 0, 69, 0
1, 1063543, Poly_aftertouch_c, 0, 69, 0
1, 1063547, Control_c, 0, 64, 0
1, 1063549, Note_on_c, 0, 66, 74
1, 1063557, Note_on_c, 0, 62, 62
1, 1063575, Note_on_c, 0, 81, 74
1, 1063597, Note_on_c, 0, 74, 0
1, 1063606, Note_on_c, 0, 78, 0
1, 1063617, Note_on_c, 0, 62, 0
1, 1063617, Poly_aftertouch_c, 0, 62, 0
1, 1063618, Note_on_c, 0, 66, 0
1, 1063663, Note_on_c, 0, 81, 0
1, 1063663, Poly_aftertouch_c, 0, 81, 0
1, 1063680, Note_on_c, 0, 58, 68
1, 1063687, Note_on_c, 0, 70, 72
1, 1063755, Note_on_c, 0, 78, 74
1, 1063755, Note_on_c, 0, 74, 71
1, 1063755, Control_c, 0, 64, 19
1, 1063756, Control_c, 0, 67, 28
1, 1063757, Note_on_c, 0, 70, 0
1, 1063761, Note_on_c, 0, 58, 0
1, 1063772, Control_c, 0, 64, 65
1, 1063790, Note_on_c, 0, 62, 63
1, 1063790, Control_c, 0, 64, 0
1, 1063794, Note_on_c, 0, 67, 66
1, 1063828, Note_on_c, 0, 82, 75
1, 1063832, Note_on_c, 0, 67, 0
1, 1063838, Note_on_c, 0, 74, 0
1, 1063846, Control_c, 0, 67, 23
1, 1063852, Note_on_c, 0, 78, 0
1, 1063885, Control_c, 0, 67, 18
1, 1063890, Note_on_c, 0, 82, 0
1, 1063898, Note_on_c, 0, 62, 0
1, 1063898, Poly_aftertouch_c, 0, 62, 0
1, 1063908, Note_on_c, 0, 71, 65
1, 1063923, Control_c, 0, 67, 14
1, 1063969, Note_on_c, 0, 59, 49
1, 1063980, Note_on_c, 0, 74, 71
1, 1063989, Note_on_c, 0, 68, 75
1, 1063992, Note_on_c, 0, 78, 77
1, 1064011, Note_on_c, 0, 71, 0
1, 1064017, Control_c, 0, 64, 118
1, 1064019, Note_on_c, 0, 59, 0
1, 1064019, Control_c, 0, 67, 9
1, 1064021, Note_on_c, 0, 68, 0
1, 1064023, Note_on_c, 0, 62, 73
1, 1064035, Control_c, 0, 64, 127
1, 1064043, Note_on_c, 0, 83, 87
1, 1064049, Note_on_c, 0, 62, 0
1, 1064049, Poly_aftertouch_c, 0, 62, 0
1, 1064054, Control_c, 0, 64, 99
1, 1064073, Control_c, 0, 64, 0
1, 1064085, Note_on_c, 0, 74, 0
1, 1064225, Note_on_c, 0, 83, 0
1, 1064260, Note_on_c, 0, 40, 80
1, 1064262, Note_on_c, 0, 47, 81
1, 1064263, Note_on_c, 0, 78, 0
1, 1064279, Control_c, 0, 64, 127
1, 1064294, Poly_aftertouch_c, 0, 74, 0
1, 1064306, Note_on_c, 0, 40, 0
1, 1064319, Note_on_c, 0, 47, 0
1, 1064333, Control_c, 0, 67, 0
1, 1064452, Note_on_c, 0, 67, 68
1, 1064466, Note_on_c, 0, 55, 65
1, 1064475, Note_on_c, 0, 74, 62
1, 1064488, Note_on_c, 0, 67, 0
1, 1064497, Note_on_c, 0, 78, 58
1, 1064522, Note_on_c, 0, 55, 0
1, 1064522, Poly_aftertouch_c, 0, 55, 0
1, 1064538, Note_on_c, 0, 62, 44
1, 1064554, Note_on_c, 0, 83, 79
1, 1064561, Note_on_c, 0, 74, 0
1, 1064561, Note_on_c, 0, 66, 71
1, 1064561, Control_c, 0, 64, 106
1, 1064574, Note_on_c, 0, 78, 0
1, 1064576, Control_c, 0, 64, 85
1, 1064594, Note_on_c, 0, 66, 0
1, 1064594, Control_c, 0, 64, 71
1, 1064596, Note_on_c, 0, 62, 0
1, 1064596, Poly_aftertouch_c, 0, 62, 0
1, 1064615, Control_c, 0, 64, 66
1, 1064634, Control_c, 0, 64, 65
1, 1064652, Control_c, 0, 64, 64
1, 1064669, Note_on_c, 0, 83, 0
1, 1064670, Control_c, 0, 64, 55
1, 1064689, Note_on_c, 0, 69, 65
1, 1064690, Control_c, 0, 64, 9
1, 1064700, Note_on_c, 0, 57, 62
1, 1064708, Control_c, 0, 64, 0
1, 1064731, Note_on_c, 0, 75, 68
1, 1064742, Note_on_c, 0, 79, 62
1, 1064758, Note_on_c, 0, 69, 0
1, 1064758, Poly_aftertouch_c, 0, 69, 0
1, 1064760, Note_on_c, 0, 57, 0
1, 1064760, Poly_aftertouch_c, 0, 57, 0
1, 1064779, Note_on_c, 0, 63, 70
1, 1064783, Note_on_c, 0, 67, 68
1, 1064821, Note_on_c, 0, 83, 73
1, 1064823, Note_on_c, 0, 75, 0
1, 1064823, Poly_aftertouch_c, 0, 75, 0
1, 1064827, Note_on_c, 0, 67, 0
1, 1064830, Note_on_c, 0, 79, 0
1, 1064851, Note_on_c, 0, 63, 0
1, 1064851, Poly_aftertouch_c, 0, 63, 0
1, 1064865, Note_on_c, 0, 81, 41
1, 1064865, Poly_aftertouch_c, 0, 81, 0
1, 1064866, Note_on_c, 0, 81, 0
1, 1064909, Note_on_c, 0, 83, 0
1, 1064909, Note_on_c, 0, 71, 72
1, 1064930, Note_on_c, 0, 59, 61
1, 1064951, Note_on_c, 0, 75, 59
1, 1064970, Control_c, 0, 64, 15
1, 1064976, Note_on_c, 0, 80, 81
1, 1064988, Control_c, 0, 64, 0
1, 1064989, Control_c, 0, 67, 8
1, 1064995, Note_on_c, 0, 71, 0
1, 1065003, Note_on_c, 0, 68, 70
1, 1065004, Note_on_c, 0, 76, 61
1, 1065013, Note_on_c, 0, 59, 0
1, 1065026, Note_on_c, 0, 64, 54
1, 1065044, Note_on_c, 0, 83, 77
1, 1065052, Note_on_c, 0, 75, 0
1, 1065052, Poly_aftertouch_c, 0, 75, 0
1, 1065059, Note_on_c, 0, 68, 0
1, 1065071, Note_on_c, 0, 76, 0
1, 1065071, Poly_aftertouch_c, 0, 76, 0
1, 1065079, Note_on_c, 0, 64, 0
1, 1065087, Note_on_c, 0, 80, 0
1, 1065125, Note_on_c, 0, 72, 77
1, 1065143, Note_on_c, 0, 83, 0
1, 1065146, Note_on_c, 0, 60, 58
1, 1065196, Note_on_c, 0, 76, 70
1, 1065203, Note_on_c, 0, 79, 78
1, 1065206, Note_on_c, 0, 60, 0
1, 1065219, Note_on_c, 0, 72, 0
1, 1065236, Note_on_c, 0, 69, 72
1, 1065245, Note_on_c, 0, 64, 65
1, 1065253, Note_on_c, 0, 84, 82
1, 1065274, Note_on_c, 0, 69, 0
1, 1065274, Poly_aftertouch_c, 0, 69, 0
1, 1065289, Note_on_c, 0, 79, 0
1, 1065291, Note_on_c, 0, 76, 0
1, 1065291, Poly_aftertouch_c, 0, 76, 0
1, 1065345, Note_on_c, 0, 84, 0
1, 1065363, Note_on_c, 0, 64, 0
1, 1065371, Note_on_c, 0, 73, 72
1, 1065389, Note_on_c, 0, 61, 64
1, 1065444, Note_on_c, 0, 76, 68
1, 1065448, Note_on_c, 0, 73, 0
1, 1065450, Note_on_c, 0, 79, 75
1, 1065453, Note_on_c, 0, 70, 73
1, 1065474, Note_on_c, 0, 64, 62
1, 1065475, Control_c, 0, 64, 124
1, 1065478, Note_on_c, 0, 61, 0
1, 1065479, Note_on_c, 0, 70, 0
1, 1065482, Note_on_c, 0, 85, 93
1, 1065504, Note_on_c, 0, 76, 0
1, 1065504, Poly_aftertouch_c, 0, 76, 0
1, 1065506, Note_on_c, 0, 79, 0
1, 1065510, Note_on_c, 0, 64, 0
1, 1065527, Note_on_c, 0, 85, 0
1, 1065606, Control_c, 0, 67, 13
1, 1065616, Poly_aftertouch_c, 0, 70, 0
1, 1065643, Control_c, 0, 67, 17
1, 1065662, Control_c, 0, 67, 25
1, 1065680, Control_c, 0, 67, 40
1, 1065700, Control_c, 0, 67, 60
1, 1065717, Control_c, 0, 64, 114
1, 1065718, Control_c, 0, 67, 76
1, 1065736, Control_c, 0, 64, 73
1, 1065738, Control_c, 0, 67, 88
1, 1065755, Control_c, 0, 64, 0
1, 1065757, Control_c, 0, 67, 98
1, 1065773, Control_c, 0, 67, 109
1, 1065792, Control_c, 0, 67, 117
1, 1065812, Control_c, 0, 67, 121
1, 1065830, Control_c, 0, 64, 9
1, 1065848, Control_c, 0, 64, 48
1, 1065853, Note_on_c, 0, 30, 67
1, 1065857, Note_on_c, 0, 42, 59
1, 1065867, Control_c, 0, 64, 69
1, 1065886, Control_c, 0, 64, 85
1, 1065905, Control_c, 0, 64, 96
1, 1065907, Note_on_c, 0, 30, 0
1, 1065910, Note_on_c, 0, 42, 0
1, 1065910, Poly_aftertouch_c, 0, 42, 0
1, 1065924, Control_c, 0, 64, 102
1, 1065942, Control_c, 0, 64, 106
1, 1065974, Note_on_c, 0, 61, 63
1, 1065979, Control_c, 0, 64, 111
1, 1066021, Note_on_c, 0, 61, 0
1, 1066073, Control_c, 0, 64, 115
1, 1066130, Note_on_c, 0, 49, 52
1, 1066130, Control_c, 0, 64, 120
1, 1066143, Note_on_c, 0, 73, 68
1, 1066161, Note_on_c, 0, 57, 52
1, 1066162, Note_on_c, 0, 69, 53
1, 1066167, Control_c, 0, 64, 125
1, 1066167, Control_c, 0, 67, 117
1, 1066176, Note_on_c, 0, 49, 0
1, 1066191, Note_on_c, 0, 57, 0
1, 1066191, Poly_aftertouch_c, 0, 57, 0
1, 1066207, Note_on_c, 0, 69, 0
1, 1066207, Poly_aftertouch_c, 0, 69, 0
1, 1066260, Control_c, 0, 67, 112
1, 1066266, Note_on_c, 0, 73, 0
1, 1066280, Note_on_c, 0, 61, 48
1, 1066293, Note_on_c, 0, 49, 56
1, 1066298, Control_c, 0, 67, 106
1, 1066309, Note_on_c, 0, 61, 0
1, 1066318, Note_on_c, 0, 42, 40
1, 1066335, Control_c, 0, 67, 99
1, 1066353, Control_c, 0, 67, 94
1, 1066360, Note_on_c, 0, 49, 0
1, 1066365, Note_on_c, 0, 42, 0
1, 1066365, Poly_aftertouch_c, 0, 42, 0
1, 1066372, Control_c, 0, 64, 95
1, 1066373, Control_c, 0, 67, 89
1, 1066391, Control_c, 0, 64, 50
1, 1066394, Control_c, 0, 67, 85
1, 1066396, Note_on_c, 0, 74, 77
1, 1066403, Note_on_c, 0, 58, 74
1, 1066406, Note_on_c, 0, 70, 66
1, 1066410, Control_c, 0, 64, 0
1, 1066411, Control_c, 0, 67, 78
1, 1066428, Control_c, 0, 67, 71
1, 1066434, Note_on_c, 0, 58, 0
1, 1066447, Control_c, 0, 67, 64
1, 1066465, Control_c, 0, 67, 58
1, 1066484, Control_c, 0, 67, 52
1, 1066489, Note_on_c, 0, 50, 39
1, 1066503, Control_c, 0, 67, 47
1, 1066521, Control_c, 0, 67, 43
1, 1066530, Note_on_c, 0, 50, 0
1, 1066532, Note_on_c, 0, 42, 62
1, 1066533, Note_on_c, 0, 62, 48
1, 1066559, Control_c, 0, 67, 37
1, 1066567, Note_on_c, 0, 42, 0
1, 1066567, Poly_aftertouch_c, 0, 42, 0
1, 1066583, Note_on_c, 0, 62, 0
1, 1066583, Poly_aftertouch_c, 0, 62, 0
1, 1066590, Note_on_c, 0, 70, 0
1, 1066641, Note_on_c, 0, 43, 81
1, 1066651, Note_on_c, 0, 31, 74
1, 1066652, Note_on_c, 0, 74, 0
1, 1066652, Control_c, 0, 64, 57
1, 1066653, Control_c, 0, 67, 33
1, 1066672, Control_c, 0, 64, 127
1, 1066673, Note_on_c, 0, 43, 0
1, 1066682, Note_on_c, 0, 31, 0
1, 1066796, Note_on_c, 0, 62, 68
1, 1066817, Note_on_c, 0, 49, 41
1, 1066859, Note_on_c, 0, 49, 0
1, 1066900, Note_on_c, 0, 50, 23
1, 1066909, Note_on_c, 0, 58, 74
1, 1066912, Note_on_c, 0, 74, 90
1, 1066913, Note_on_c, 0, 70, 83
1, 1066933, Control_c, 0, 67, 29
1, 1066942, Note_on_c, 0, 58, 0
1, 1066959, Note_on_c, 0, 62, 0
1, 1066959, Note_on_c, 0, 50, 0
1, 1066959, Poly_aftertouch_c, 0, 62, 0
1, 1066961, Note_on_c, 0, 68, 26
1, 1066987, Poly_aftertouch_c, 0, 62, 0
1, 1067018, Note_on_c, 0, 68, 0
1, 1067025, Control_c, 0, 67, 24
1, 1067044, Note_on_c, 0, 74, 0
1, 1067049, Note_on_c, 0, 50, 43
1, 1067064, Control_c, 0, 67, 17
1, 1067072, Note_on_c, 0, 43, 72
1, 1067076, Note_on_c, 0, 70, 0
1, 1067091, Poly_aftertouch_c, 0, 62, 127
1, 1067102, Control_c, 0, 67, 13
1, 1067117, Poly_aftertouch_c, 0, 62, 0
1, 1067127, Note_on_c, 0, 43, 0
1, 1067129, Note_on_c, 0, 50, 0
1, 1067157, Control_c, 0, 67, 9
1, 1067185, Note_on_c, 0, 75, 91
1, 1067187, Note_on_c, 0, 59, 81
1, 1067187, Note_on_c, 0, 71, 82
1, 1067194, Control_c, 0, 64, 85
1, 1067213, Control_c, 0, 64, 0
1, 1067223, Note_on_c, 0, 51, 57
1, 1067225, Note_on_c, 0, 59, 0
1, 1067307, Note_on_c, 0, 51, 0
1, 1067320, Note_on_c, 0, 43, 67
1, 1067332, Note_on_c, 0, 63, 60
1, 1067353, Note_on_c, 0, 43, 0
1, 1067418, Note_on_c, 0, 63, 0
1, 1067418, Poly_aftertouch_c, 0, 63, 0
1, 1067419, Control_c, 0, 64, 35
1, 1067424, Note_on_c, 0, 44, 95
1, 1067428, Note_on_c, 0, 32, 88
1, 1067437, Control_c, 0, 64, 127
1, 1067445, Note_on_c, 0, 71, 0
1, 1067452, Note_on_c, 0, 44, 0
1, 1067454, Note_on_c, 0, 32, 0
1, 1067456, Control_c, 0, 67, 13
1, 1067457, Note_on_c, 0, 75, 0
1, 1067457, Poly_aftertouch_c, 0, 75, 0
1, 1067543, Poly_aftertouch_c, 0, 34, 0
1, 1067569, Note_on_c, 0, 63, 77
1, 1067622, Note_on_c, 0, 52, 71
1, 1067626, Poly_aftertouch_c, 0, 44, 0
1, 1067646, Poly_aftertouch_c, 0, 32, 0
1, 1067650, Note_on_c, 0, 63, 0
1, 1067650, Poly_aftertouch_c, 0, 63, 0
1, 1067664, Note_on_c, 0, 52, 0
1, 1067681, Control_c, 0, 64, 83
1, 1067690, Note_on_c, 0, 75, 92
1, 1067701, Control_c, 0, 64, 0
1, 1067702, Note_on_c, 0, 71, 78
1, 1067703, Note_on_c, 0, 62, 72
1, 1067768, Note_on_c, 0, 62, 0
1, 1067774, Control_c, 0, 64, 37
1, 1067794, Control_c, 0, 64, 58
1, 1067809, Note_on_c, 0, 61, 74
1, 1067813, Control_c, 0, 64, 78
1, 1067833, Control_c, 0, 64, 93
1, 1067837, Note_on_c, 0, 63, 62
1, 1067844, Note_on_c, 0, 61, 0
1, 1067849, Control_c, 0, 64, 106
1, 1067853, Note_on_c, 0, 71, 0
1, 1067867, Control_c, 0, 64, 110
1, 1067881, Note_on_c, 0, 63, 0
1, 1067881, Poly_aftertouch_c, 0, 63, 0
1, 1067882, Note_on_c, 0, 75, 0
1, 1067882, Poly_aftertouch_c, 0, 75, 0
1, 1067886, Control_c, 0, 64, 98
1, 1067887, Control_c, 0, 67, 17
1, 1067904, Note_on_c, 0, 60, 73
1, 1067905, Control_c, 0, 64, 59
1, 1067925, Control_c, 0, 64, 0
1, 1067925, Control_c, 0, 67, 24
1, 1067940, Note_on_c, 0, 60, 0
1, 1067941, Control_c, 0, 67, 29
1, 1067965, Note_on_c, 0, 76, 83
1, 1067975, Note_on_c, 0, 71, 77
1, 1067981, Control_c, 0, 67, 33
1, 1067990, Note_on_c, 0, 59, 69
1, 1068000, Control_c, 0, 64, 38
1, 1068001, Control_c, 0, 67, 38
1, 1068018, Control_c, 0, 64, 54
1, 1068020, Control_c, 0, 67, 44
1, 1068036, Control_c, 0, 64, 71
1, 1068038, Control_c, 0, 67, 52
1, 1068055, Note_on_c, 0, 59, 0
1, 1068056, Control_c, 0, 64, 80
1, 1068056, Control_c, 0, 67, 59
1, 1068074, Control_c, 0, 64, 83
1, 1068075, Control_c, 0, 67, 64
1, 1068090, Note_on_c, 0, 58, 61
1, 1068099, Note_on_c, 0, 71, 0
1, 1068110, Note_on_c, 0, 76, 0
1, 1068110, Poly_aftertouch_c, 0, 76, 0
1, 1068110, Control_c, 0, 67, 70
1, 1068115, Note_on_c, 0, 64, 54
1, 1068125, Note_on_c, 0, 58, 0
1, 1068150, Control_c, 0, 64, 79
1, 1068153, Control_c, 0, 67, 78
1, 1068168, Control_c, 0, 64, 64
1, 1068169, Control_c, 0, 67, 84
1, 1068176, Note_on_c, 0, 57, 59
1, 1068188, Control_c, 0, 64, 0
1, 1068189, Control_c, 0, 67, 89
1, 1068204, Control_c, 0, 67, 93
1, 1068218, Note_on_c, 0, 64, 0
1, 1068224, Note_on_c, 0, 57, 0
1, 1068224, Poly_aftertouch_c, 0, 57, 0
1, 1068241, Note_on_c, 0, 76, 74
1, 1068243, Control_c, 0, 67, 99
1, 1068248, Note_on_c, 0, 72, 62
1, 1068261, Control_c, 0, 64, 38
1, 1068267, Note_on_c, 0, 56, 64
1, 1068280, Control_c, 0, 64, 58
1, 1068282, Control_c, 0, 67, 105
1, 1068298, Control_c, 0, 64, 73
1, 1068307, Note_on_c, 0, 56, 0
1, 1068307, Poly_aftertouch_c, 0, 56, 0
1, 1068318, Control_c, 0, 64, 81
1, 1068319, Control_c, 0, 67, 112
1, 1068335, Control_c, 0, 64, 85
1, 1068337, Control_c, 0, 67, 116
1, 1068347, Note_on_c, 0, 72, 0
1, 1068377, Note_on_c, 0, 55, 54
1, 1068386, Note_on_c, 0, 64, 52
1, 1068388, Note_on_c, 0, 76, 0
1, 1068388, Poly_aftertouch_c, 0, 76, 0
1, 1068391, Control_c, 0, 64, 87
1, 1068410, Control_c, 0, 67, 120
1, 1068423, Note_on_c, 0, 55, 0
1, 1068423, Poly_aftertouch_c, 0, 55, 0
1, 1068428, Control_c, 0, 64, 92
1, 1068445, Note_on_c, 0, 64, 0
1, 1068481, Note_on_c, 0, 54, 54
1, 1068485, Control_c, 0, 64, 87
1, 1068504, Control_c, 0, 64, 68
1, 1068523, Control_c, 0, 64, 30
1, 1068528, Note_on_c, 0, 54, 0
1, 1068540, Control_c, 0, 64, 0
1, 1068569, Note_on_c, 0, 77, 66
1, 1068570, Note_on_c, 0, 73, 60
1, 1068578, Control_c, 0, 64, 17
1, 1068589, Note_on_c, 0, 53, 55
1, 1068597, Control_c, 0, 64, 38
1, 1068615, Control_c, 0, 64, 52
1, 1068630, Note_on_c, 0, 53, 0
1, 1068636, Control_c, 0, 64, 64
1, 1068653, Control_c, 0, 64, 72
1, 1068672, Control_c, 0, 64, 74
1, 1068673, Note_on_c, 0, 77, 0
1, 1068673, Poly_aftertouch_c, 0, 77, 0
1, 1068680, Note_on_c, 0, 52, 42
1, 1068686, Note_on_c, 0, 73, 0
1, 1068691, Control_c, 0, 67, 116
1, 1068715, Note_on_c, 0, 65, 49
1, 1068746, Control_c, 0, 64, 76
1, 1068765, Note_on_c, 0, 65, 0
1, 1068765, Note_on_c, 0, 52, 0
1, 1068788, Note_on_c, 0, 51, 57
1, 1068802, Control_c, 0, 64, 79
1, 1068804, Control_c, 0, 67, 111
1, 1068830, Note_on_c, 0, 51, 0
1, 1068861, Control_c, 0, 67, 106
1, 1068877, Control_c, 0, 64, 75
1, 1068897, Control_c, 0, 64, 64
1, 1068916, Control_c, 0, 64, 33
1, 1068918, Control_c, 0, 67, 102
1, 1068930, Note_on_c, 0, 78, 60
1, 1068934, Control_c, 0, 64, 0
1, 1068937, Note_on_c, 0, 66, 45
1, 1068940, Note_on_c, 0, 45, 38
1, 1068950, Note_on_c, 0, 50, 47
1, 1068958, Note_on_c, 0, 73, 23
1, 1068966, Note_on_c, 0, 78, 0
1, 1068974, Note_on_c, 0, 66, 0
1, 1068999, Note_on_c, 0, 73, 0
1, 1069003, Note_on_c, 0, 45, 0
1, 1069015, Note_on_c, 0, 50, 0
1, 1069065, Note_on_c, 0, 74, 56
1, 1069078, Note_on_c, 0, 71, 45
1, 1069082, Note_on_c, 0, 54, 48
1, 1069105, Note_on_c, 0, 74, 0
1, 1069111, Note_on_c, 0, 71, 0
1, 1069124, Note_on_c, 0, 54, 0
1, 1069158, Control_c, 0, 67, 98
1, 1069164, Note_on_c, 0, 57, 52
1, 1069196, Note_on_c, 0, 57, 0
1, 1069196, Poly_aftertouch_c, 0, 57, 0
1, 1069251, Control_c, 0, 64, 10
1, 1069254, Note_on_c, 0, 79, 71
1, 1069258, Note_on_c, 0, 62, 70
1, 1069270, Control_c, 0, 64, 0
1, 1069273, Note_on_c, 0, 74, 49
1, 1069293, Note_on_c, 0, 79, 0
1, 1069306, Note_on_c, 0, 74, 0
1, 1069364, Control_c, 0, 67, 94
1, 1069400, Note_on_c, 0, 76, 56
1, 1069402, Note_on_c, 0, 73, 55
1, 1069409, Note_on_c, 0, 62, 0
1, 1069419, Control_c, 0, 67, 90
1, 1069425, Note_on_c, 0, 76, 0
1, 1069425, Poly_aftertouch_c, 0, 76, 0
1, 1069430, Note_on_c, 0, 73, 0
1, 1069458, Control_c, 0, 67, 86
1, 1069471, Note_on_c, 0, 64, 40
1, 1069495, Control_c, 0, 67, 81
1, 1069508, Note_on_c, 0, 64, 0
1, 1069510, Note_on_c, 0, 66, 64
1, 1069523, Note_on_c, 0, 76, 62
1, 1069529, Note_on_c, 0, 81, 66
1, 1069546, Note_on_c, 0, 66, 0
1, 1069549, Note_on_c, 0, 76, 0
1, 1069549, Poly_aftertouch_c, 0, 76, 0
1, 1069550, Control_c, 0, 67, 77
1, 1069564, Note_on_c, 0, 81, 0
1, 1069564, Poly_aftertouch_c, 0, 81, 0
1, 1069606, Note_on_c, 0, 67, 58
1, 1069625, Control_c, 0, 67, 72
1, 1069638, Note_on_c, 0, 78, 65
1, 1069644, Note_on_c, 0, 67, 0
1, 1069648, Note_on_c, 0, 74, 57
1, 1069669, Note_on_c, 0, 69, 56
1, 1069670, Note_on_c, 0, 78, 0
1, 1069674, Note_on_c, 0, 74, 0
1, 1069697, Note_on_c, 0, 69, 0
1, 1069697, Poly_aftertouch_c, 0, 69, 0
1, 1069760, Note_on_c, 0, 82, 80
1, 1069764, Note_on_c, 0, 70, 82
1, 1069779, Note_on_c, 0, 78, 60
1, 1069780, Note_on_c, 0, 61, 60
1, 1069791, Note_on_c, 0, 70, 0
1, 1069804, Note_on_c, 0, 64, 37
1, 1069814, Note_on_c, 0, 78, 0
1, 1069816, Note_on_c, 0, 61, 0
1, 1069846, Note_on_c, 0, 64, 0
1, 1069868, Note_on_c, 0, 82, 0
1, 1069898, Note_on_c, 0, 76, 55
1, 1069916, Note_on_c, 0, 79, 27
1, 1069925, Note_on_c, 0, 76, 0
1, 1069925, Poly_aftertouch_c, 0, 76, 0
1, 1069966, Note_on_c, 0, 79, 0
1, 1070027, Note_on_c, 0, 76, 75
1, 1070033, Note_on_c, 0, 73, 75
1, 1070045, Note_on_c, 0, 45, 53
1, 1070108, Note_on_c, 0, 45, 0
1, 1070130, Note_on_c, 0, 73, 0
1, 1070141, Note_on_c, 0, 52, 48
1, 1070145, Note_on_c, 0, 76, 0
1, 1070145, Poly_aftertouch_c, 0, 76, 0
1, 1070175, Note_on_c, 0, 52, 0
1, 1070213, Note_on_c, 0, 55, 51
1, 1070226, Note_on_c, 0, 78, 47
1, 1070235, Note_on_c, 0, 74, 37
1, 1070250, Note_on_c, 0, 55, 0
1, 1070250, Poly_aftertouch_c, 0, 55, 0
1, 1070280, Note_on_c, 0, 74, 0
1, 1070291, Note_on_c, 0, 79, 72
1, 1070298, Note_on_c, 0, 75, 75
1, 1070301, Note_on_c, 0, 78, 0
1, 1070316, Note_on_c, 0, 58, 59
1, 1070319, Note_on_c, 0, 79, 0
1, 1070327, Note_on_c, 0, 75, 0
1, 1070327, Poly_aftertouch_c, 0, 75, 0
1, 1070384, Note_on_c, 0, 58, 0
1, 1070405, Note_on_c, 0, 61, 55
1, 1070421, Note_on_c, 0, 73, 69
1, 1070440, Note_on_c, 0, 76, 42
1, 1070450, Note_on_c, 0, 61, 0
1, 1070451, Note_on_c, 0, 73, 0
1, 1070465, Note_on_c, 0, 67, 36
1, 1070467, Note_on_c, 0, 77, 14
1, 1070477, Note_on_c, 0, 76, 0
1, 1070477, Poly_aftertouch_c, 0, 76, 0
1, 1070512, Note_on_c, 0, 67, 0
1, 1070552, Note_on_c, 0, 81, 70
1, 1070572, Note_on_c, 0, 60, 62
1, 1070574, Note_on_c, 0, 69, 58
1, 1070582, Note_on_c, 0, 63, 53
1, 1070583, Note_on_c, 0, 81, 0
1, 1070583, Poly_aftertouch_c, 0, 81, 0
1, 1070596, Note_on_c, 0, 77, 0
1, 1070596, Poly_aftertouch_c, 0, 77, 0
1, 1070599, Note_on_c, 0, 69, 0
1, 1070599, Poly_aftertouch_c, 0, 69, 0
1, 1070601, Note_on_c, 0, 60, 0
1, 1070610, Note_on_c, 0, 63, 0
1, 1070610, Poly_aftertouch_c, 0, 63, 0
1, 1070616, Control_c, 0, 67, 76
1, 1070673, Note_on_c, 0, 78, 77
1, 1070673, Note_on_c, 0, 75, 67
1, 1070673, Control_c, 0, 67, 80
1, 1070704, Note_on_c, 0, 75, 0
1, 1070704, Poly_aftertouch_c, 0, 75, 0
1, 1070705, Note_on_c, 0, 78, 0
1, 1070709, Control_c, 0, 67, 88
1, 1070747, Control_c, 0, 67, 94
1, 1070811, Note_on_c, 0, 74, 77
1, 1070812, Note_on_c, 0, 70, 72
1, 1070815, Note_on_c, 0, 67, 67
1, 1070840, Note_on_c, 0, 70, 0
1, 1070840, Note_on_c, 0, 74, 0
1, 1070843, Note_on_c, 0, 67, 0
1, 1070858, Note_on_c, 0, 45, 45
1, 1070892, Note_on_c, 0, 52, 52
1, 1070908, Note_on_c, 0, 45, 0
1, 1070933, Note_on_c, 0, 52, 0
1, 1070939, Note_on_c, 0, 76, 82
1, 1070964, Note_on_c, 0, 55, 58
1, 1070976, Note_on_c, 0, 76, 0
1, 1070976, Poly_aftertouch_c, 0, 76, 0
1, 1071002, Note_on_c, 0, 55, 0
1, 1071002, Poly_aftertouch_c, 0, 55, 0
1, 1071009, Control_c, 0, 67, 90
1, 1071063, Note_on_c, 0, 58, 68
1, 1071068, Note_on_c, 0, 78, 86
1, 1071071, Note_on_c, 0, 74, 75
1, 1071115, Note_on_c, 0, 74, 0
1, 1071121, Control_c, 0, 67, 86
1, 1071161, Note_on_c, 0, 58, 0
1, 1071176, Note_on_c, 0, 61, 65
1, 1071195, Note_on_c, 0, 67, 73
1, 1071204, Note_on_c, 0, 79, 67
1, 1071212, Note_on_c, 0, 78, 0
1, 1071216, Control_c, 0, 67, 80
1, 1071227, Note_on_c, 0, 76, 45
1, 1071231, Note_on_c, 0, 67, 0
1, 1071243, Note_on_c, 0, 79, 0
1, 1071248, Note_on_c, 0, 61, 0
1, 1071252, Control_c, 0, 67, 73
1, 1071259, Note_on_c, 0, 76, 0
1, 1071259, Poly_aftertouch_c, 0, 76, 0
1, 1071290, Control_c, 0, 67, 69
1, 1071319, Note_on_c, 0, 57, 66
1, 1071326, Note_on_c, 0, 66, 63
1, 1071326, Control_c, 0, 64, 20
1, 1071328, Control_c, 0, 67, 65
1, 1071333, Note_on_c, 0, 81, 81
1, 1071341, Note_on_c, 0, 74, 69
1, 1071345, Control_c, 0, 64, 0
1, 1071347, Note_on_c, 0, 62, 46
1, 1071347, Note_on_c, 0, 78, 70
1, 1071354, Note_on_c, 0, 57, 0
1, 1071354, Poly_aftertouch_c, 0, 57, 0
1, 1071362, Note_on_c, 0, 66, 0
1, 1071380, Note_on_c, 0, 74, 0
1, 1071383, Note_on_c, 0, 62, 0
1, 1071383, Control_c, 0, 67, 60
1, 1071385, Note_on_c, 0, 78, 0
1, 1071421, Control_c, 0, 67, 55
1, 1071424, Note_on_c, 0, 81, 0
1, 1071424, Poly_aftertouch_c, 0, 81, 0
1, 1071471, Note_on_c, 0, 69, 58
1, 1071475, Control_c, 0, 67, 51
1, 1071498, Note_on_c, 0, 46, 66
1, 1071502, Note_on_c, 0, 69, 0
1, 1071502, Poly_aftertouch_c, 0, 69, 0
1, 1071554, Note_on_c, 0, 46, 0
1, 1071554, Poly_aftertouch_c, 0, 46, 0
1, 1071575, Note_on_c, 0, 56, 64
1, 1071597, Note_on_c, 0, 80, 59
1, 1071601, Note_on_c, 0, 70, 58
1, 1071602, Note_on_c, 0, 82, 61
1, 1071608, Control_c, 0, 67, 47
1, 1071614, Note_on_c, 0, 56, 0
1, 1071614, Poly_aftertouch_c, 0, 56, 0
1, 1071616, Poly_aftertouch_c, 0, 52, 127
1, 1071623, Note_on_c, 0, 74, 22
1, 1071624, Note_on_c, 0, 60, 31
1, 1071625, Note_on_c, 0, 60, 0
1, 1071625, Note_on_c, 0, 80, 0
1, 1071626, Note_on_c, 0, 82, 0
1, 1071629, Note_on_c, 0, 70, 0
1, 1071646, Control_c, 0, 67, 42
1, 1071654, Poly_aftertouch_c, 0, 52, 0
1, 1071662, Control_c, 0, 67, 36
1, 1071682, Note_on_c, 0, 74, 0
1, 1071682, Control_c, 0, 67, 29
1, 1071701, Control_c, 0, 67, 21
1, 1071720, Control_c, 0, 67, 16
1, 1071726, Note_on_c, 0, 83, 90
1, 1071731, Note_on_c, 0, 71, 88
1, 1071739, Control_c, 0, 64, 127
1, 1071742, Control_c, 0, 67, 11
1, 1071744, Note_on_c, 0, 80, 48
1, 1071744, Note_on_c, 0, 78, 71
1, 1071744, Note_on_c, 0, 68, 73
1, 1071763, Note_on_c, 0, 66, 55
1, 1071774, Note_on_c, 0, 80, 0
1, 1071825, Note_on_c, 0, 66, 0
1, 1071921, Note_on_c, 0, 83, 0
1, 1071926, Note_on_c, 0, 78, 0
1, 1071933, Note_on_c, 0, 68, 0
1, 1071962, Note_on_c, 0, 71, 0
1, 1071963, Poly_aftertouch_c, 0, 71, 0
1, 1072019, Note_on_c, 0, 64, 66
1, 1072019, Note_on_c, 0, 83, 82
1, 1072021, Note_on_c, 0, 76, 70
1, 1072024, Note_on_c, 0, 71, 53
1, 1072025, Note_on_c, 0, 80, 71
1, 1072050, Note_on_c, 0, 76, 0
1, 1072050, Poly_aftertouch_c, 0, 76, 0
1, 1072078, Note_on_c, 0, 71, 0
1, 1072114, Poly_aftertouch_c, 0, 68, 127
1, 1072125, Note_on_c, 0, 83, 0
1, 1072167, Note_on_c, 0, 80, 0
1, 1072238, Note_on_c, 0, 64, 0
1, 1072243, Control_c, 0, 67, 0
1, 1072274, Note_on_c, 0, 83, 66
1, 1072275, Note_on_c, 0, 71, 68
1, 1072282, Note_on_c, 0, 63, 63
1, 1072288, Note_on_c, 0, 75, 39
1, 1072307, Note_on_c, 0, 83, 0
1, 1072310, Poly_aftertouch_c, 0, 68, 0
1, 1072312, Note_on_c, 0, 71, 0
1, 1072322, Note_on_c, 0, 63, 0
1, 1072322, Poly_aftertouch_c, 0, 63, 0
1, 1072323, Note_on_c, 0, 75, 0
1, 1072323, Poly_aftertouch_c, 0, 75, 0
1, 1072342, Note_on_c, 0, 80, 18
1, 1072343, Note_on_c, 0, 80, 0
1, 1072374, Control_c, 0, 64, 87
1, 1072393, Control_c, 0, 64, 0
1, 1072409, Note_on_c, 0, 62, 69
1, 1072413, Note_on_c, 0, 83, 94
1, 1072415, Note_on_c, 0, 95, 101
1, 1072417, Note_on_c, 0, 74, 77
1, 1072420, Note_on_c, 0, 88, 82
1, 1072426, Note_on_c, 0, 92, 78
1, 1072433, Note_on_c, 0, 83, 0
1, 1072442, Note_on_c, 0, 62, 0
1, 1072445, Note_on_c, 0, 74, 0
1, 1072447, Note_on_c, 0, 68, 45
1, 1072448, Note_on_c, 0, 88, 0
1, 1072453, Note_on_c, 0, 92, 0
1, 1072456, Note_on_c, 0, 95, 0
1, 1072463, Note_on_c, 0, 66, 7
1, 1072464, Note_on_c, 0, 66, 0
1, 1072485, Note_on_c, 0, 68, 0
1, 1072506, Poly_aftertouch_c, 0, 90, 0
1, 1072531, Note_on_c, 0, 73, 93
1, 1072532, Note_on_c, 0, 83, 95
1, 1072538, Note_on_c, 0, 88, 70
1, 1072538, Note_on_c, 0, 95, 86
1, 1072549, Note_on_c, 0, 61, 75
1, 1072549, Note_on_c, 0, 92, 78
1, 1072554, Note_on_c, 0, 68, 63
1, 1072558, Note_on_c, 0, 64, 41
1, 1072559, Note_on_c, 0, 83, 0
1, 1072572, Note_on_c, 0, 88, 0
1, 1072576, Note_on_c, 0, 92, 0
1, 1072581, Note_on_c, 0, 95, 0
1, 1072588, Note_on_c, 0, 61, 0
1, 1072590, Note_on_c, 0, 73, 0
1, 1072592, Note_on_c, 0, 68, 0
1, 1072618, Note_on_c, 0, 64, 0
1, 1072654, Note_on_c, 0, 72, 83
1, 1072657, Note_on_c, 0, 83, 98
1, 1072660, Note_on_c, 0, 68, 81
1, 1072661, Note_on_c, 0, 95, 88
1, 1072662, Note_on_c, 0, 88, 83
1, 1072665, Note_on_c, 0, 64, 56
1, 1072665, Note_on_c, 0, 92, 82
1, 1072689, Note_on_c, 0, 83, 0
1, 1072689, Note_on_c, 0, 72, 0
1, 1072697, Note_on_c, 0, 88, 0
1, 1072706, Note_on_c, 0, 68, 0
1, 1072706, Note_on_c, 0, 92, 0
1, 1072713, Note_on_c, 0, 95, 0
1, 1072714, Note_on_c, 0, 64, 0
1, 1072781, Note_on_c, 0, 95, 97
1, 1072781, Note_on_c, 0, 71, 88
1, 1072781, Note_on_c, 0, 83, 105
1, 1072783, Note_on_c, 0, 64, 75
1, 1072784, Control_c, 0, 64, 89
1, 1072785, Note_on_c, 0, 68, 83
1, 1072788, Note_on_c, 0, 92, 95
1, 1072794, Note_on_c, 0, 88, 74
1, 1072815, Note_on_c, 0, 71, 0
1, 1072815, Note_on_c, 0, 59, 71
1, 1072815, Control_c, 0, 64, 127
1, 1072826, Note_on_c, 0, 88, 0
1, 1072829, Note_on_c, 0, 83, 0
1, 1072837, Note_on_c, 0, 59, 0
1, 1072840, Note_on_c, 0, 68, 0
1, 1072844, Note_on_c, 0, 95, 0
1, 1072847, Note_on_c, 0, 92, 0
1, 1072848, Note_on_c, 0, 64, 0
1, 1072850, Note_on_c, 0, 90, 11
1, 1072851, Note_on_c, 0, 90, 0
1, 1072859, Poly_aftertouch_c, 0, 61, 127
1, 1072862, Poly_aftertouch_c, 0, 61, 0
1, 1072937, Control_c, 0, 64, 115
1, 1072955, Control_c, 0, 64, 69
1, 1072957, Control_c, 0, 67, 15
1, 1072972, Control_c, 0, 64, 0
1, 1072979, Note_on_c, 0, 59, 44
1, 1072980, Note_on_c, 0, 59, 0
1, 1072991, Control_c, 0, 67, 19
1, 1073010, Control_c, 0, 67, 25
1, 1073029, Control_c, 0, 67, 41
1, 1073048, Control_c, 0, 67, 64
1, 1073066, Control_c, 0, 67, 89
1, 1073084, Control_c, 0, 67, 111
1, 1073103, Control_c, 0, 67, 123
1, 1073129, Note_on_c, 0, 80, 62
1, 1073132, Note_on_c, 0, 75, 59
1, 1073133, Note_on_c, 0, 47, 50
1, 1073192, Note_on_c, 0, 56, 55
1, 1073198, Note_on_c, 0, 75, 0
1, 1073198, Poly_aftertouch_c, 0, 75, 0
1, 1073208, Note_on_c, 0, 47, 0
1, 1073253, Note_on_c, 0, 56, 0
1, 1073253, Poly_aftertouch_c, 0, 56, 0
1, 1073254, Note_on_c, 0, 80, 0
1, 1073258, Note_on_c, 0, 73, 58
1, 1073277, Note_on_c, 0, 76, 39
1, 1073283, Note_on_c, 0, 73, 0
1, 1073292, Note_on_c, 0, 59, 53
1, 1073313, Note_on_c, 0, 76, 0
1, 1073313, Poly_aftertouch_c, 0, 76, 0
1, 1073319, Note_on_c, 0, 59, 0
1, 1073408, Note_on_c, 0, 81, 71
1, 1073410, Note_on_c, 0, 76, 65
1, 1073418, Note_on_c, 0, 64, 54
1, 1073439, Note_on_c, 0, 81, 0
1, 1073439, Poly_aftertouch_c, 0, 81, 0
1, 1073440, Note_on_c, 0, 76, 0
1, 1073440, Poly_aftertouch_c, 0, 76, 0
1, 1073528, Note_on_c, 0, 64, 0
1, 1073541, Note_on_c, 0, 78, 60
1, 1073545, Note_on_c, 0, 66, 58
1, 1073546, Note_on_c, 0, 75, 51
1, 1073550, Control_c, 0, 67, 119
1, 1073574, Note_on_c, 0, 75, 0
1, 1073574, Poly_aftertouch_c, 0, 75, 0
1, 1073575, Note_on_c, 0, 78, 0
1, 1073621, Note_on_c, 0, 66, 0
1, 1073626, Control_c, 0, 67, 114
1, 1073646, Note_on_c, 0, 68, 52
1, 1073662, Note_on_c, 0, 83, 75
1, 1073663, Note_on_c, 0, 78, 65
1, 1073683, Control_c, 0, 67, 110
1, 1073686, Note_on_c, 0, 68, 0
1, 1073701, Note_on_c, 0, 83, 0
1, 1073704, Note_on_c, 0, 78, 0
1, 1073711, Note_on_c, 0, 69, 64
1, 1073739, Control_c, 0, 67, 104
1, 1073752, Note_on_c, 0, 69, 0
1, 1073752, Poly_aftertouch_c, 0, 69, 0
1, 1073776, Control_c, 0, 67, 100
1, 1073783, Note_on_c, 0, 80, 64
1, 1073794, Note_on_c, 0, 76, 58
1, 1073806, Note_on_c, 0, 71, 55
1, 1073814, Control_c, 0, 67, 96
1, 1073818, Note_on_c, 0, 80, 0
1, 1073819, Note_on_c, 0, 76, 0
1, 1073819, Poly_aftertouch_c, 0, 76, 0
1, 1073835, Note_on_c, 0, 71, 0
1, 1073851, Control_c, 0, 67, 90
1, 1073889, Control_c, 0, 67, 83
1, 1073901, Note_on_c, 0, 84, 80
1, 1073915, Note_on_c, 0, 72, 61
1, 1073925, Note_on_c, 0, 63, 54
1, 1073928, Note_on_c, 0, 80, 54
1, 1073940, Note_on_c, 0, 72, 0
1, 1073956, Note_on_c, 0, 80, 0
1, 1073956, Note_on_c, 0, 63, 0
1, 1073956, Poly_aftertouch_c, 0, 63, 0
1, 1073975, Note_on_c, 0, 84, 0
1, 1073987, Poly_aftertouch_c, 0, 66, 0
1, 1074041, Note_on_c, 0, 78, 70
1, 1074044, Note_on_c, 0, 81, 63
1, 1074069, Note_on_c, 0, 81, 0
1, 1074069, Poly_aftertouch_c, 0, 81, 0
1, 1074071, Note_on_c, 0, 78, 0
1, 1074075, Control_c, 0, 67, 88
1, 1074113, Control_c, 0, 67, 94
1, 1074152, Control_c, 0, 67, 99
1, 1074184, Note_on_c, 0, 75, 81
1, 1074185, Note_on_c, 0, 78, 77
1, 1074190, Note_on_c, 0, 47, 61
1, 1074247, Note_on_c, 0, 54, 53
1, 1074262, Note_on_c, 0, 47, 0
1, 1074266, Note_on_c, 0, 75, 0
1, 1074266, Poly_aftertouch_c, 0, 75, 0
1, 1074300, Note_on_c, 0, 54, 0
1, 1074321, Note_on_c, 0, 78, 0
1, 1074328, Note_on_c, 0, 57, 59
1, 1074353, Note_on_c, 0, 57, 0
1, 1074353, Poly_aftertouch_c, 0, 57, 0
1, 1074362, Note_on_c, 0, 80, 64
1, 1074366, Note_on_c, 0, 76, 60
1, 1074393, Note_on_c, 0, 76, 0
1, 1074393, Poly_aftertouch_c, 0, 76, 0
1, 1074416, Note_on_c, 0, 80, 0
1, 1074434, Note_on_c, 0, 77, 61
1, 1074437, Note_on_c, 0, 60, 66
1, 1074448, Note_on_c, 0, 81, 64
1, 1074480, Note_on_c, 0, 77, 0
1, 1074480, Poly_aftertouch_c, 0, 77, 0
1, 1074489, Note_on_c, 0, 81, 0
1, 1074489, Poly_aftertouch_c, 0, 81, 0
1, 1074500, Note_on_c, 0, 60, 0
1, 1074540, Note_on_c, 0, 63, 54
1, 1074569, Note_on_c, 0, 69, 59
1, 1074574, Note_on_c, 0, 78, 71
1, 1074588, Note_on_c, 0, 63, 0
1, 1074588, Poly_aftertouch_c, 0, 63, 0
1, 1074601, Note_on_c, 0, 69, 0
1, 1074601, Poly_aftertouch_c, 0, 69, 0
1, 1074603, Note_on_c, 0, 78, 0
1, 1074656, Poly_aftertouch_c, 0, 76, 0
1, 1074692, Note_on_c, 0, 71, 73
1, 1074699, Note_on_c, 0, 65, 61
1, 1074701, Note_on_c, 0, 79, 82
1, 1074704, Note_on_c, 0, 62, 59
1, 1074706, Note_on_c, 0, 83, 79
1, 1074721, Note_on_c, 0, 71, 0
1, 1074735, Note_on_c, 0, 79, 0
1, 1074738, Note_on_c, 0, 65, 0
1, 1074743, Note_on_c, 0, 62, 0
1, 1074759, Note_on_c, 0, 83, 0
1, 1074818, Note_on_c, 0, 80, 81
1, 1074838, Note_on_c, 0, 77, 57
1, 1074857, Note_on_c, 0, 80, 0
1, 1074859, Note_on_c, 0, 77, 0
1, 1074859, Poly_aftertouch_c, 0, 77, 0
1, 1074936, Control_c, 0, 67, 95
1, 1074960, Note_on_c, 0, 76, 76
1, 1074960, Note_on_c, 0, 69, 72
1, 1074971, Note_on_c, 0, 73, 62
1, 1074984, Note_on_c, 0, 69, 0
1, 1074984, Poly_aftertouch_c, 0, 69, 0
1, 1074989, Note_on_c, 0, 47, 56
1, 1074995, Note_on_c, 0, 76, 0
1, 1075008, Note_on_c, 0, 73, 0
1, 1075030, Note_on_c, 0, 54, 67
1, 1075048, Control_c, 0, 67, 91
1, 1075054, Note_on_c, 0, 47, 0
1, 1075082, Note_on_c, 0, 78, 85
1, 1075084, Note_on_c, 0, 54, 0
1, 1075104, Note_on_c, 0, 57, 64
1, 1075123, Control_c, 0, 67, 87
1, 1075141, Note_on_c, 0, 57, 0
1, 1075141, Poly_aftertouch_c, 0, 57, 0
1, 1075144, Note_on_c, 0, 78, 0
1, 1075179, Control_c, 0, 67, 82
1, 1075214, Note_on_c, 0, 80, 89
1, 1075216, Control_c, 0, 64, 45
1, 1075218, Note_on_c, 0, 76, 76
1, 1075219, Note_on_c, 0, 60, 66
1, 1075235, Control_c, 0, 64, 60
1, 1075254, Control_c, 0, 64, 0
1, 1075255, Control_c, 0, 67, 77
1, 1075256, Note_on_c, 0, 60, 0
1, 1075264, Note_on_c, 0, 76, 0
1, 1075274, Note_on_c, 0, 63, 53
1, 1075291, Poly_aftertouch_c, 0, 62, 0
1, 1075310, Control_c, 0, 67, 73
1, 1075337, Note_on_c, 0, 81, 75
1, 1075340, Note_on_c, 0, 69, 50
1, 1075347, Note_on_c, 0, 78, 65
1, 1075365, Note_on_c, 0, 80, 0
1, 1075366, Control_c, 0, 67, 68
1, 1075370, Note_on_c, 0, 69, 0
1, 1075370, Poly_aftertouch_c, 0, 69, 0
1, 1075379, Note_on_c, 0, 63, 0
1, 1075379, Poly_aftertouch_c, 0, 63, 0
1, 1075390, Note_on_c, 0, 78, 0
1, 1075398, Note_on_c, 0, 81, 0
1, 1075398, Poly_aftertouch_c, 0, 81, 0
1, 1075403, Control_c, 0, 67, 63
1, 1075441, Control_c, 0, 67, 57
1, 1075474, Note_on_c, 0, 83, 94
1, 1075476, Note_on_c, 0, 68, 69
1, 1075478, Note_on_c, 0, 59, 54
1, 1075480, Control_c, 0, 64, 52
1, 1075481, Control_c, 0, 67, 52
1, 1075492, Note_on_c, 0, 76, 72
1, 1075498, Control_c, 0, 64, 73
1, 1075508, Note_on_c, 0, 59, 0
1, 1075509, Note_on_c, 0, 68, 0
1, 1075515, Control_c, 0, 64, 33
1, 1075533, Control_c, 0, 64, 0
1, 1075606, Note_on_c, 0, 71, 75
1, 1075615, Note_on_c, 0, 83, 0
1, 1075628, Control_c, 0, 67, 48
1, 1075635, Note_on_c, 0, 71, 0
1, 1075639, Note_on_c, 0, 76, 0
1, 1075669, Note_on_c, 0, 48, 40
1, 1075682, Control_c, 0, 67, 44
1, 1075687, Note_on_c, 0, 58, 67
1, 1075713, Note_on_c, 0, 48, 0
1, 1075741, Note_on_c, 0, 84, 77
1, 1075745, Note_on_c, 0, 82, 68
1, 1075751, Note_on_c, 0, 72, 55
1, 1075752, Note_on_c, 0, 72, 0
1, 1075759, Note_on_c, 0, 58, 0
1, 1075761, Note_on_c, 0, 64, 47
1, 1075762, Control_c, 0, 67, 38
1, 1075770, Note_on_c, 0, 84, 0
1, 1075770, Poly_aftertouch_c, 0, 76, 0
1, 1075774, Note_on_c, 0, 62, 12
1, 1075775, Note_on_c, 0, 82, 0
1, 1075794, Note_on_c, 0, 64, 0
1, 1075796, Control_c, 0, 67, 32
1, 1075855, Note_on_c, 0, 62, 0
1, 1075873, Note_on_c, 0, 73, 90
1, 1075885, Note_on_c, 0, 86, 73
1, 1075891, Note_on_c, 0, 85, 60
1, 1075893, Note_on_c, 0, 83, 61
1, 1075897, Note_on_c, 0, 81, 56
1, 1075908, Control_c, 0, 67, 26
1, 1075916, Note_on_c, 0, 68, 29
1, 1075926, Control_c, 0, 64, 117
1, 1075928, Control_c, 0, 67, 17
1, 1075937, Note_on_c, 0, 83, 0
1, 1075944, Control_c, 0, 64, 127
1, 1075979, Poly_aftertouch_c, 0, 69, 127
1, 1075982, Control_c, 0, 67, 0
1, 1075984, Poly_aftertouch_c, 0, 66, 127
1, 1075996, Note_on_c, 0, 68, 0
1, 1076008, Poly_aftertouch_c, 0, 69, 0
1, 1076011, Poly_aftertouch_c, 0, 66, 0
1, 1076016, Note_on_c, 0, 73, 0
1, 1076017, Note_on_c, 0, 86, 0
1, 1076017, Poly_aftertouch_c, 0, 86, 0
1, 1076049, Note_on_c, 0, 85, 0
1, 1076050, Poly_aftertouch_c, 0, 85, 0
1, 1076053, Note_on_c, 0, 81, 0
1, 1076053, Poly_aftertouch_c, 0, 81, 0
1, 1076126, Note_on_c, 0, 73, 80
1, 1076134, Note_on_c, 0, 85, 86
1, 1076135, Note_on_c, 0, 79, 75
1, 1076137, Note_on_c, 0, 67, 68
1, 1076138, Note_on_c, 0, 82, 79
1, 1076159, Note_on_c, 0, 73, 0
1, 1076164, Note_on_c, 0, 79, 0
1, 1076166, Note_on_c, 0, 82, 0
1, 1076177, Note_on_c, 0, 67, 0
1, 1076178, Note_on_c, 0, 70, 21
1, 1076192, Note_on_c, 0, 85, 0
1, 1076257, Note_on_c, 0, 78, 89
1, 1076259, Note_on_c, 0, 85, 71
1, 1076263, Note_on_c, 0, 73, 84
1, 1076265, Note_on_c, 0, 66, 75
1, 1076276, Note_on_c, 0, 82, 71
1, 1076290, Note_on_c, 0, 78, 0
1, 1076297, Note_on_c, 0, 73, 0
1, 1076307, Note_on_c, 0, 82, 0
1, 1076309, Note_on_c, 0, 70, 0
1, 1076309, Note_on_c, 0, 70, 26
1, 1076317, Note_on_c, 0, 85, 0
1, 1076327, Note_on_c, 0, 70, 0
1, 1076375, Note_on_c, 0, 77, 81
1, 1076377, Note_on_c, 0, 85, 79
1, 1076382, Note_on_c, 0, 82, 81
1, 1076386, Note_on_c, 0, 73, 88
1, 1076392, Note_on_c, 0, 65, 78
1, 1076400, Note_on_c, 0, 77, 0
1, 1076400, Poly_aftertouch_c, 0, 77, 0
1, 1076406, Note_on_c, 0, 82, 0
1, 1076428, Note_on_c, 0, 85, 0
1, 1076432, Note_on_c, 0, 65, 0
1, 1076435, Note_on_c, 0, 66, 0
1, 1076436, Poly_aftertouch_c, 0, 66, 0
1, 1076437, Note_on_c, 0, 73, 0
1, 1076512, Note_on_c, 0, 85, 99
1, 1076512, Note_on_c, 0, 76, 95
1, 1076519, Note_on_c, 0, 66, 84
1, 1076520, Note_on_c, 0, 96, 95
1, 1076521, Note_on_c, 0, 94, 86
1, 1076529, Note_on_c, 0, 90, 74
1, 1076534, Note_on_c, 0, 85, 0
1, 1076546, Note_on_c, 0, 94, 0
1, 1076549, Note_on_c, 0, 96, 0
1, 1076552, Note_on_c, 0, 90, 0
1, 1076560, Note_on_c, 0, 76, 0
1, 1076562, Control_c, 0, 64, 105
1, 1076573, Note_on_c, 0, 66, 0
1, 1076582, Control_c, 0, 64, 67
1, 1076600, Control_c, 0, 64, 0
1, 1076635, Note_on_c, 0, 75, 88
1, 1076638, Note_on_c, 0, 85, 97
1, 1076641, Note_on_c, 0, 97, 97
1, 1076642, Note_on_c, 0, 63, 80
1, 1076643, Note_on_c, 0, 90, 78
1, 1076646, Note_on_c, 0, 94, 89
1, 1076649, Poly_aftertouch_c, 0, 71, 0
1, 1076657, Note_on_c, 0, 70, 68
1, 1076664, Note_on_c, 0, 66, 55
1, 1076669, Note_on_c, 0, 85, 0
1, 1076676, Note_on_c, 0, 90, 0
1, 1076682, Note_on_c, 0, 94, 0
1, 1076693, Note_on_c, 0, 70, 0
1, 1076699, Note_on_c, 0, 75, 0
1, 1076699, Poly_aftertouch_c, 0, 75, 0
1, 1076701, Note_on_c, 0, 97, 0
1, 1076712, Note_on_c, 0, 66, 0
1, 1076734, Note_on_c, 0, 63, 0
1, 1076734, Poly_aftertouch_c, 0, 63, 0
1, 1076763, Note_on_c, 0, 85, 99
1, 1076768, Note_on_c, 0, 74, 89
1, 1076771, Note_on_c, 0, 97, 86
1, 1076773, Note_on_c, 0, 94, 91
1, 1076774, Note_on_c, 0, 90, 87
1, 1076782, Note_on_c, 0, 70, 80
1, 1076783, Note_on_c, 0, 62, 68
1, 1076795, Note_on_c, 0, 66, 70
1, 1076815, Note_on_c, 0, 62, 0
1, 1076816, Note_on_c, 0, 85, 0
1, 1076820, Note_on_c, 0, 74, 0
1, 1076825, Note_on_c, 0, 70, 0
1, 1076826, Note_on_c, 0, 94, 0
1, 1076830, Note_on_c, 0, 66, 0
1, 1076832, Note_on_c, 0, 97, 0
1, 1076832, Note_on_c, 0, 90, 0
1, 1076895, Note_on_c, 0, 85, 102
1, 1076896, Note_on_c, 0, 97, 94
1, 1076901, Note_on_c, 0, 94, 93
1, 1076903, Note_on_c, 0, 73, 95
1, 1076904, Note_on_c, 0, 90, 79
1, 1076905, Note_on_c, 0, 70, 84
1, 1076907, Note_on_c, 0, 61, 82
1, 1076914, Note_on_c, 0, 66, 69
1, 1076918, Control_c, 0, 64, 127
1, 1076946, Note_on_c, 0, 73, 0
1, 1076946, Note_on_c, 0, 85, 0
1, 1076950, Note_on_c, 0, 66, 0
1, 1076953, Note_on_c, 0, 70, 0
1, 1076954, Note_on_c, 0, 90, 0
1, 1076956, Note_on_c, 0, 61, 0
1, 1076959, Note_on_c, 0, 97, 0
1, 1076962, Note_on_c, 0, 94, 0
1, 1077106, Control_c, 0, 64, 101
1, 1077124, Control_c, 0, 64, 51
1, 1077142, Control_c, 0, 64, 0
1, 1077198, Control_c, 0, 67, 9
1, 1077213, Note_on_c, 0, 77, 67
1, 1077229, Note_on_c, 0, 82, 71
1, 1077235, Control_c, 0, 67, 15
1, 1077249, Note_on_c, 0, 49, 55
1, 1077272, Control_c, 0, 67, 21
1, 1077281, Note_on_c, 0, 58, 56
1, 1077310, Control_c, 0, 67, 29
1, 1077316, Note_on_c, 0, 49, 0
1, 1077316, Note_on_c, 0, 77, 0
1, 1077316, Poly_aftertouch_c, 0, 77, 0
1, 1077329, Control_c, 0, 67, 39
1, 1077343, Note_on_c, 0, 82, 0
1, 1077346, Note_on_c, 0, 75, 61
1, 1077347, Control_c, 0, 67, 51
1, 1077354, Note_on_c, 0, 78, 62
1, 1077357, Note_on_c, 0, 58, 0
1, 1077368, Note_on_c, 0, 61, 59
1, 1077368, Control_c, 0, 67, 64
1, 1077377, Note_on_c, 0, 75, 0
1, 1077377, Poly_aftertouch_c, 0, 75, 0
1, 1077385, Control_c, 0, 67, 73
1, 1077387, Note_on_c, 0, 78, 0
1, 1077396, Note_on_c, 0, 61, 0
1, 1077403, Control_c, 0, 67, 80
1, 1077495, Note_on_c, 0, 78, 73
1, 1077496, Note_on_c, 0, 68, 69
1, 1077501, Note_on_c, 0, 83, 66
1, 1077544, Note_on_c, 0, 68, 0
1, 1077548, Note_on_c, 0, 83, 0
1, 1077574, Note_on_c, 0, 78, 0
1, 1077628, Note_on_c, 0, 80, 58
1, 1077629, Note_on_c, 0, 62, 52
1, 1077631, Note_on_c, 0, 76, 44
1, 1077644, Note_on_c, 0, 59, 62
1, 1077657, Note_on_c, 0, 80, 0
1, 1077667, Note_on_c, 0, 76, 0
1, 1077674, Note_on_c, 0, 62, 0
1, 1077684, Control_c, 0, 67, 76
1, 1077689, Note_on_c, 0, 59, 0
1, 1077745, Note_on_c, 0, 80, 78
1, 1077752, Note_on_c, 0, 85, 76
1, 1077756, Note_on_c, 0, 70, 72
1, 1077817, Control_c, 0, 67, 72
1, 1077819, Note_on_c, 0, 70, 0
1, 1077870, Control_c, 0, 67, 64
1, 1077876, Note_on_c, 0, 64, 58
1, 1077878, Note_on_c, 0, 78, 63
1, 1077881, Note_on_c, 0, 80, 0
1, 1077881, Note_on_c, 0, 82, 66
1, 1077884, Note_on_c, 0, 85, 0
1, 1077889, Control_c, 0, 67, 58
1, 1077901, Note_on_c, 0, 61, 58
1, 1077908, Control_c, 0, 67, 52
1, 1077912, Note_on_c, 0, 78, 0
1, 1077916, Note_on_c, 0, 82, 0
1, 1077920, Note_on_c, 0, 64, 0
1, 1077927, Control_c, 0, 67, 44
1, 1077946, Control_c, 0, 67, 35
1, 1077948, Note_on_c, 0, 61, 0
1, 1077964, Control_c, 0, 67, 27
1, 1077984, Control_c, 0, 64, 16
1, 1077985, Control_c, 0, 67, 21
1, 1077998, Note_on_c, 0, 71, 80
1, 1077999, Note_on_c, 0, 86, 80
1, 1078002, Control_c, 0, 64, 85
1, 1078005, Note_on_c, 0, 65, 68
1, 1078005, Note_on_c, 0, 81, 74
1, 1078005, Control_c, 0, 67, 17
1, 1078006, Note_on_c, 0, 62, 72
1, 1078026, Control_c, 0, 64, 65
1, 1078028, Note_on_c, 0, 71, 0
1, 1078038, Note_on_c, 0, 65, 0
1, 1078039, Control_c, 0, 64, 0
1, 1078040, Control_c, 0, 67, 11
1, 1078044, Note_on_c, 0, 62, 0
1, 1078045, Note_on_c, 0, 81, 0
1, 1078045, Poly_aftertouch_c, 0, 81, 0
1, 1078095, Note_on_c, 0, 86, 0
1, 1078095, Poly_aftertouch_c, 0, 86, 0
1, 1078104, Note_on_c, 0, 83, 70
1, 1078119, Note_on_c, 0, 79, 50
1, 1078134, Note_on_c, 0, 83, 0
1, 1078148, Note_on_c, 0, 79, 0
1, 1078190, Control_c, 0, 67, 0
1, 1078264, Control_c, 0, 64, 127
1, 1078265, Note_on_c, 0, 50, 91
1, 1078266, Note_on_c, 0, 62, 89
1, 1078271, Note_on_c, 0, 74, 84
1, 1078274, Note_on_c, 0, 76, 86
1, 1078282, Note_on_c, 0, 38, 70
1, 1078288, Note_on_c, 0, 48, 65
1, 1078289, Note_on_c, 0, 64, 64
1, 1078293, Note_on_c, 0, 50, 0
1, 1078293, Note_on_c, 0, 36, 53
1, 1078294, Note_on_c, 0, 36, 0
1, 1078294, Note_on_c, 0, 62, 0
1, 1078297, Note_on_c, 0, 76, 0
1, 1078297, Note_on_c, 0, 74, 0
1, 1078313, Note_on_c, 0, 38, 0
1, 1078321, Note_on_c, 0, 48, 0
1, 1078323, Note_on_c, 0, 64, 0
1, 1078332, Poly_aftertouch_c, 0, 36, 0
1, 1078470, Note_on_c, 0, 60, 40
1, 1078515, Note_on_c, 0, 54, 67
1, 1078523, Note_on_c, 0, 63, 81
1, 1078531, Note_on_c, 0, 66, 96
1, 1078532, Note_on_c, 0, 87, 98
1, 1078534, Note_on_c, 0, 75, 92
1, 1078539, Note_on_c, 0, 78, 82
1, 1078540, Note_on_c, 0, 82, 79
1, 1078556, Note_on_c, 0, 75, 0
1, 1078556, Poly_aftertouch_c, 0, 75, 0
1, 1078572, Note_on_c, 0, 82, 0
1, 1078578, Note_on_c, 0, 66, 0
1, 1078584, Note_on_c, 0, 63, 0
1, 1078584, Poly_aftertouch_c, 0, 63, 0
1, 1078586, Note_on_c, 0, 54, 0
1, 1078591, Note_on_c, 0, 87, 0
1, 1078593, Note_on_c, 0, 78, 0
1, 1078595, Note_on_c, 0, 60, 0
1, 1078639, Control_c, 0, 67, 8
1, 1078662, Note_on_c, 0, 81, 83
1, 1078694, Control_c, 0, 67, 14
1, 1078713, Note_on_c, 0, 81, 0
1, 1078713, Poly_aftertouch_c, 0, 81, 0
1, 1078715, Control_c, 0, 64, 89
1, 1078716, Control_c, 0, 67, 18
1, 1078733, Control_c, 0, 64, 25
1, 1078734, Control_c, 0, 67, 24
1, 1078751, Control_c, 0, 64, 0
1, 1078753, Control_c, 0, 67, 34
1, 1078769, Control_c, 0, 67, 47
1, 1078788, Control_c, 0, 67, 58
1, 1078806, Control_c, 0, 67, 64
1, 1078817, Note_on_c, 0, 84, 71
1, 1078821, Note_on_c, 0, 79, 64
1, 1078822, Note_on_c, 0, 61, 66
1, 1078825, Control_c, 0, 67, 69
1, 1078840, Note_on_c, 0, 52, 30
1, 1078844, Note_on_c, 0, 54, 23
1, 1078852, Note_on_c, 0, 61, 0
1, 1078853, Note_on_c, 0, 79, 0
1, 1078867, Note_on_c, 0, 83, 20
1, 1078868, Note_on_c, 0, 83, 0
1, 1078881, Note_on_c, 0, 52, 0
1, 1078894, Note_on_c, 0, 84, 0
1, 1078894, Note_on_c, 0, 60, 36
1, 1078909, Note_on_c, 0, 54, 0
1, 1078924, Note_on_c, 0, 63, 65
1, 1078927, Note_on_c, 0, 80, 71
1, 1078934, Note_on_c, 0, 60, 0
1, 1078940, Note_on_c, 0, 77, 58
1, 1078954, Note_on_c, 0, 63, 0
1, 1078954, Poly_aftertouch_c, 0, 63, 0
1, 1078962, Note_on_c, 0, 80, 0
1, 1078964, Note_on_c, 0, 77, 0
1, 1078964, Poly_aftertouch_c, 0, 77, 0
1, 1079054, Note_on_c, 0, 70, 81
1, 1079055, Note_on_c, 0, 85, 83
1, 1079063, Note_on_c, 0, 80, 78
1, 1079107, Note_on_c, 0, 70, 0
1, 1079162, Control_c, 0, 67, 64
1, 1079177, Note_on_c, 0, 64, 68
1, 1079179, Note_on_c, 0, 82, 80
1, 1079181, Note_on_c, 0, 80, 0
1, 1079186, Note_on_c, 0, 79, 66
1, 1079192, Note_on_c, 0, 85, 0
1, 1079199, Control_c, 0, 67, 57
1, 1079217, Note_on_c, 0, 79, 0
1, 1079218, Control_c, 0, 67, 52
1, 1079236, Control_c, 0, 67, 48
1, 1079239, Note_on_c, 0, 61, 65
1, 1079240, Note_on_c, 0, 82, 0
1, 1079256, Control_c, 0, 67, 44
1, 1079261, Note_on_c, 0, 64, 0
1, 1079274, Control_c, 0, 67, 40
1, 1079293, Control_c, 0, 67, 36
1, 1079311, Control_c, 0, 64, 82
1, 1079313, Control_c, 0, 67, 29
1, 1079317, Note_on_c, 0, 61, 0
1, 1079319, Note_on_c, 0, 87, 88
1, 1079321, Note_on_c, 0, 82, 80
1, 1079329, Control_c, 0, 64, 125
1, 1079332, Control_c, 0, 67, 25
1, 1079334, Note_on_c, 0, 72, 77
1, 1079349, Control_c, 0, 64, 121
1, 1079367, Control_c, 0, 64, 84
1, 1079387, Control_c, 0, 64, 26
1, 1079389, Note_on_c, 0, 87, 0
1, 1079406, Control_c, 0, 64, 0
1, 1079407, Note_on_c, 0, 72, 0
1, 1079428, Note_on_c, 0, 66, 73
1, 1079433, Note_on_c, 0, 86, 44
1, 1079443, Note_on_c, 0, 84, 80
1, 1079450, Note_on_c, 0, 80, 70
1, 1079453, Note_on_c, 0, 82, 0
1, 1079462, Note_on_c, 0, 63, 68
1, 1079469, Note_on_c, 0, 86, 0
1, 1079469, Poly_aftertouch_c, 0, 86, 0
1, 1079482, Note_on_c, 0, 80, 0
1, 1079499, Control_c, 0, 67, 21
1, 1079508, Note_on_c, 0, 84, 0
1, 1079523, Note_on_c, 0, 66, 0
1, 1079537, Control_c, 0, 67, 17
1, 1079538, Note_on_c, 0, 63, 0
1, 1079538, Poly_aftertouch_c, 0, 63, 0
1, 1079554, Control_c, 0, 67, 12
1, 1079571, Note_on_c, 0, 64, 81
1, 1079576, Note_on_c, 0, 88, 94
1, 1079578, Note_on_c, 0, 84, 85
1, 1079593, Control_c, 0, 64, 79
1, 1079595, Note_on_c, 0, 72, 66
1, 1079607, Note_on_c, 0, 67, 46
1, 1079611, Control_c, 0, 64, 127
1, 1079618, Note_on_c, 0, 72, 0
1, 1079625, Note_on_c, 0, 73, 31
1, 1079630, Control_c, 0, 67, 0
1, 1079640, Note_on_c, 0, 64, 0
1, 1079643, Note_on_c, 0, 73, 0
1, 1079645, Note_on_c, 0, 67, 0
1, 1079698, Note_on_c, 0, 88, 0
1, 1079701, Note_on_c, 0, 85, 83
1, 1079706, Note_on_c, 0, 82, 79
1, 1079713, Note_on_c, 0, 84, 0
1, 1079731, Note_on_c, 0, 82, 0
1, 1079751, Note_on_c, 0, 85, 0
1, 1079835, Control_c, 0, 64, 98
1, 1079854, Control_c, 0, 64, 57
1, 1079873, Control_c, 0, 64, 0
1, 1079941, Note_on_c, 0, 52, 93
1, 1079941, Note_on_c, 0, 40, 86
1, 1079946, Note_on_c, 0, 76, 101
1, 1079947, Note_on_c, 0, 64, 97
1, 1079947, Control_c, 0, 64, 75
1, 1079966, Control_c, 0, 64, 124
1, 1079968, Note_on_c, 0, 64, 0
1, 1079982, Note_on_c, 0, 52, 0
1, 1079984, Note_on_c, 0, 40, 0
1, 1079989, Note_on_c, 0, 73, 44
1, 1079990, Note_on_c, 0, 73, 0
1, 1079991, Note_on_c, 0, 76, 0
1, 1080028, Poly_aftertouch_c, 0, 73, 0
1, 1080079, Poly_aftertouch_c, 0, 42, 0
1, 1080278, Note_on_c, 0, 56, 72
1, 1080346, Note_on_c, 0, 62, 75
1, 1080366, Note_on_c, 0, 65, 73
1, 1080393, Note_on_c, 0, 56, 0
1, 1080393, Poly_aftertouch_c, 0, 56, 0
1, 1080436, Note_on_c, 0, 68, 101
1, 1080461, Note_on_c, 0, 85, 82
1, 1080462, Note_on_c, 0, 89, 101
1, 1080465, Note_on_c, 0, 80, 94
1, 1080465, Note_on_c, 0, 77, 101
1, 1080485, Note_on_c, 0, 68, 0
1, 1080492, Note_on_c, 0, 65, 0
1, 1080497, Note_on_c, 0, 62, 0
1, 1080546, Note_on_c, 0, 77, 0
1, 1080546, Poly_aftertouch_c, 0, 77, 0
1, 1080581, Note_on_c, 0, 85, 0
1, 1080678, Note_on_c, 0, 80, 0
1, 1080748, Note_on_c, 0, 83, 67
1, 1080786, Note_on_c, 0, 83, 0
1, 1080786, Poly_aftertouch_c, 0, 80, 0
1, 1080791, Control_c, 0, 64, 102
1, 1080799, Poly_aftertouch_c, 0, 64, 0
1, 1080805, Note_on_c, 0, 89, 0
1, 1080805, Poly_aftertouch_c, 0, 89, 0
1, 1080809, Control_c, 0, 64, 55
1, 1080825, Control_c, 0, 64, 0
1, 1080875, Note_on_c, 0, 57, 47
1, 1080908, Note_on_c, 0, 57, 0
1, 1080908, Poly_aftertouch_c, 0, 57, 0
1, 1080935, Note_on_c, 0, 64, 48
1, 1080969, Note_on_c, 0, 64, 0
1, 1080985, Note_on_c, 0, 88, 58
1, 1080994, Control_c, 0, 67, 8
1, 1081014, Note_on_c, 0, 85, 27
1, 1081016, Note_on_c, 0, 73, 60
1, 1081029, Note_on_c, 0, 88, 0
1, 1081031, Control_c, 0, 67, 15
1, 1081042, Note_on_c, 0, 73, 0
1, 1081049, Control_c, 0, 67, 19
1, 1081056, Note_on_c, 0, 81, 52
1, 1081058, Note_on_c, 0, 85, 0
1, 1081069, Control_c, 0, 67, 26
1, 1081088, Control_c, 0, 67, 32
1, 1081091, Note_on_c, 0, 81, 0
1, 1081091, Poly_aftertouch_c, 0, 81, 0
1, 1081106, Control_c, 0, 67, 38
1, 1081125, Control_c, 0, 67, 47
1, 1081145, Control_c, 0, 67, 61
1, 1081158, Note_on_c, 0, 86, 38
1, 1081163, Control_c, 0, 67, 77
1, 1081170, Note_on_c, 0, 89, 43
1, 1081181, Control_c, 0, 67, 93
1, 1081200, Control_c, 0, 67, 105
1, 1081211, Note_on_c, 0, 89, 0
1, 1081211, Poly_aftertouch_c, 0, 89, 0
1, 1081218, Control_c, 0, 67, 110
1, 1081227, Note_on_c, 0, 91, 67
1, 1081243, Note_on_c, 0, 76, 72
1, 1081251, Note_on_c, 0, 88, 50
1, 1081263, Note_on_c, 0, 73, 55
1, 1081271, Note_on_c, 0, 76, 0
1, 1081279, Note_on_c, 0, 86, 0
1, 1081279, Poly_aftertouch_c, 0, 86, 0
1, 1081285, Note_on_c, 0, 91, 0
1, 1081285, Note_on_c, 0, 88, 0
1, 1081288, Poly_aftertouch_c, 0, 69, 0
1, 1081307, Note_on_c, 0, 73, 0
1, 1081325, Note_on_c, 0, 81, 61
1, 1081382, Note_on_c, 0, 81, 0
1, 1081382, Poly_aftertouch_c, 0, 81, 0
1, 1081417, Note_on_c, 0, 91, 60
1, 1081425, Note_on_c, 0, 65, 46
1, 1081483, Note_on_c, 0, 91, 0
1, 1081487, Note_on_c, 0, 93, 71
1, 1081496, Note_on_c, 0, 65, 0
1, 1081496, Note_on_c, 0, 77, 67
1, 1081501, Note_on_c, 0, 69, 68
1, 1081517, Note_on_c, 0, 77, 0
1, 1081517, Poly_aftertouch_c, 0, 77, 0
1, 1081529, Note_on_c, 0, 69, 0
1, 1081535, Control_c, 0, 67, 106
1, 1081542, Note_on_c, 0, 81, 55
1, 1081546, Note_on_c, 0, 93, 0
1, 1081590, Note_on_c, 0, 81, 0
1, 1081590, Poly_aftertouch_c, 0, 81, 0
1, 1081612, Control_c, 0, 67, 102
1, 1081630, Note_on_c, 0, 93, 75
1, 1081649, Control_c, 0, 67, 95
1, 1081667, Control_c, 0, 67, 91
1, 1081687, Note_on_c, 0, 57, 57
1, 1081687, Control_c, 0, 67, 87
1, 1081716, Note_on_c, 0, 57, 0
1, 1081716, Poly_aftertouch_c, 0, 57, 0
1, 1081717, Note_on_c, 0, 93, 0
1, 1081722, Note_on_c, 0, 62, 53
1, 1081723, Control_c, 0, 67, 80
1, 1081744, Note_on_c, 0, 86, 58
1, 1081761, Control_c, 0, 67, 75
1, 1081765, Note_on_c, 0, 62, 0
1, 1081775, Note_on_c, 0, 71, 55
1, 1081797, Note_on_c, 0, 86, 0
1, 1081797, Poly_aftertouch_c, 0, 86, 0
1, 1081802, Note_on_c, 0, 71, 0
1, 1081806, Note_on_c, 0, 81, 70
1, 1081835, Control_c, 0, 67, 71
1, 1081851, Note_on_c, 0, 81, 0
1, 1081851, Poly_aftertouch_c, 0, 81, 0
1, 1081894, Note_on_c, 0, 85, 67
1, 1081906, Note_on_c, 0, 88, 67
1, 1081965, Note_on_c, 0, 73, 19
1, 1081979, Note_on_c, 0, 85, 0
1, 1081986, Note_on_c, 0, 88, 0
1, 1081986, Note_on_c, 0, 89, 68
1, 1081991, Note_on_c, 0, 71, 55
1, 1081992, Note_on_c, 0, 74, 64
1, 1082000, Note_on_c, 0, 73, 0
1, 1082023, Note_on_c, 0, 71, 0
1, 1082026, Note_on_c, 0, 74, 0
1, 1082037, Note_on_c, 0, 89, 0
1, 1082037, Poly_aftertouch_c, 0, 89, 0
1, 1082040, Poly_aftertouch_c, 0, 67, 0
1, 1082049, Note_on_c, 0, 81, 62
1, 1082130, Note_on_c, 0, 81, 0
1, 1082130, Poly_aftertouch_c, 0, 81, 0
1, 1082159, Note_on_c, 0, 89, 63
1, 1082160, Note_on_c, 0, 61, 57
1, 1082162, Note_on_c, 0, 86, 46
1, 1082195, Note_on_c, 0, 67, 26
1, 1082197, Note_on_c, 0, 61, 0
1, 1082210, Note_on_c, 0, 86, 0
1, 1082210, Poly_aftertouch_c, 0, 86, 0
1, 1082210, Control_c, 0, 67, 67
1, 1082230, Note_on_c, 0, 89, 0
1, 1082230, Poly_aftertouch_c, 0, 89, 0
1, 1082247, Note_on_c, 0, 91, 73
1, 1082252, Note_on_c, 0, 76, 73
1, 1082253, Note_on_c, 0, 70, 70
1, 1082281, Note_on_c, 0, 76, 0
1, 1082292, Note_on_c, 0, 70, 0
1, 1082295, Note_on_c, 0, 91, 0
1, 1082303, Note_on_c, 0, 67, 0
1, 1082329, Note_on_c, 0, 81, 53
1, 1082391, Note_on_c, 0, 91, 79
1, 1082403, Note_on_c, 0, 81, 0
1, 1082403, Poly_aftertouch_c, 0, 81, 0
1, 1082415, Control_c, 0, 67, 63
1, 1082418, Note_on_c, 0, 57, 62
1, 1082473, Note_on_c, 0, 60, 31
1, 1082497, Note_on_c, 0, 84, 75
1, 1082499, Note_on_c, 0, 91, 0
1, 1082503, Note_on_c, 0, 57, 0
1, 1082503, Poly_aftertouch_c, 0, 57, 0
1, 1082518, Note_on_c, 0, 65, 30
1, 1082529, Note_on_c, 0, 69, 62
1, 1082531, Note_on_c, 0, 60, 0
1, 1082550, Note_on_c, 0, 84, 0
1, 1082565, Note_on_c, 0, 69, 0
1, 1082567, Note_on_c, 0, 65, 0
1, 1082589, Note_on_c, 0, 81, 71
1, 1082634, Note_on_c, 0, 81, 0
1, 1082634, Poly_aftertouch_c, 0, 81, 0
1, 1082647, Note_on_c, 0, 71, 77
1, 1082652, Note_on_c, 0, 86, 67
1, 1082675, Note_on_c, 0, 71, 0
1, 1082714, Control_c, 0, 67, 59
1, 1082726, Note_on_c, 0, 85, 68
1, 1082735, Note_on_c, 0, 86, 0
1, 1082735, Poly_aftertouch_c, 0, 86, 0
1, 1082766, Note_on_c, 0, 73, 80
1, 1082769, Note_on_c, 0, 85, 0
1, 1082771, Note_on_c, 0, 88, 65
1, 1082773, Note_on_c, 0, 65, 64
1, 1082808, Note_on_c, 0, 73, 0
1, 1082809, Note_on_c, 0, 88, 0
1, 1082816, Note_on_c, 0, 65, 0
1, 1082862, Note_on_c, 0, 81, 58
1, 1082863, Control_c, 0, 67, 54
1, 1082899, Note_on_c, 0, 74, 67
1, 1082918, Note_on_c, 0, 89, 73
1, 1082919, Control_c, 0, 67, 50
1, 1082921, Note_on_c, 0, 81, 0
1, 1082921, Poly_aftertouch_c, 0, 81, 0
1, 1082924, Note_on_c, 0, 74, 0
1, 1082959, Control_c, 0, 67, 46
1, 1083014, Note_on_c, 0, 76, 78
1, 1083028, Note_on_c, 0, 73, 59
1, 1083032, Note_on_c, 0, 89, 0
1, 1083032, Poly_aftertouch_c, 0, 89, 0
1, 1083033, Note_on_c, 0, 91, 79
1, 1083050, Note_on_c, 0, 76, 0
1, 1083067, Note_on_c, 0, 73, 0
1, 1083082, Note_on_c, 0, 91, 0
1, 1083120, Poly_aftertouch_c, 0, 69, 0
1, 1083123, Note_on_c, 0, 81, 63
1, 1083150, Note_on_c, 0, 64, 69
1, 1083151, Note_on_c, 0, 81, 0
1, 1083151, Poly_aftertouch_c, 0, 81, 0
1, 1083153, Note_on_c, 0, 93, 82
1, 1083179, Note_on_c, 0, 93, 0
1, 1083181, Note_on_c, 0, 64, 0
1, 1083292, Note_on_c, 0, 95, 80
1, 1083293, Note_on_c, 0, 81, 63
1, 1083329, Note_on_c, 0, 81, 0
1, 1083329, Poly_aftertouch_c, 0, 81, 0
1, 1083354, Note_on_c, 0, 76, 57
1, 1083361, Note_on_c, 0, 93, 68
1, 1083382, Note_on_c, 0, 97, 75
1, 1083427, Note_on_c, 0, 76, 0
1, 1083428, Note_on_c, 0, 95, 0
1, 1083431, Note_on_c, 0, 69, 62
1, 1083443, Note_on_c, 0, 98, 70
1, 1083451, Note_on_c, 0, 93, 0
1, 1083468, Note_on_c, 0, 69, 0
1, 1083510, Note_on_c, 0, 100, 82
1, 1083512, Note_on_c, 0, 97, 0
1, 1083523, Note_on_c, 0, 98, 0
1, 1083548, Note_on_c, 0, 69, 64
1, 1083572, Note_on_c, 0, 100, 0
1, 1083577, Note_on_c, 0, 69, 0
1, 1083595, Note_on_c, 0, 63, 61
1, 1083599, Note_on_c, 0, 93, 67
1, 1083649, Control_c, 0, 67, 41
1, 1083650, Note_on_c, 0, 63, 0
1, 1083650, Poly_aftertouch_c, 0, 63, 0
1, 1083672, Note_on_c, 0, 101, 74
1, 1083676, Note_on_c, 0, 93, 0
1, 1083679, Note_on_c, 0, 57, 65
1, 1083687, Control_c, 0, 67, 36
1, 1083691, Poly_aftertouch_c, 0, 64, 0
1, 1083708, Poly_aftertouch_c, 0, 64, 0
1, 1083715, Note_on_c, 0, 57, 0
1, 1083715, Poly_aftertouch_c, 0, 57, 0
1, 1083761, Control_c, 0, 67, 32
1, 1083762, Note_on_c, 0, 103, 78
1, 1083771, Note_on_c, 0, 101, 0
1, 1083779, Control_c, 0, 64, 27
1, 1083782, Note_on_c, 0, 72, 78
1, 1083799, Note_on_c, 0, 65, 60
1, 1083799, Control_c, 0, 64, 103
1, 1083805, Note_on_c, 0, 103, 0
1, 1083810, Note_on_c, 0, 72, 0
1, 1083817, Control_c, 0, 64, 123
1, 1083818, Control_c, 0, 67, 27
1, 1083827, Note_on_c, 0, 65, 0
1, 1083834, Note_on_c, 0, 93, 70
1, 1083836, Control_c, 0, 64, 127
1, 1083886, Note_on_c, 0, 93, 0
1, 1083907, Note_on_c, 0, 105, 84
1, 1083936, Note_on_c, 0, 105, 0
1, 1083968, Control_c, 0, 64, 98
1, 1083986, Control_c, 0, 64, 47
1, 1084005, Control_c, 0, 64, 0
1, 1084010, Note_on_c, 0, 79, 72
1, 1084020, Note_on_c, 0, 95, 80
1, 1084040, Note_on_c, 0, 79, 0
1, 1084090, Note_on_c, 0, 91, 65
1, 1084108, Note_on_c, 0, 95, 0
1, 1084111, Poly_aftertouch_c, 0, 73, 0
1, 1084118, Note_on_c, 0, 74, 62
1, 1084155, Note_on_c, 0, 74, 0
1, 1084159, Note_on_c, 0, 67, 70
1, 1084170, Note_on_c, 0, 93, 63
1, 1084188, Note_on_c, 0, 91, 0
1, 1084189, Note_on_c, 0, 97, 73
1, 1084190, Note_on_c, 0, 67, 0
1, 1084264, Note_on_c, 0, 67, 80
1, 1084265, Control_c, 0, 64, 38
1, 1084282, Note_on_c, 0, 98, 78
1, 1084284, Control_c, 0, 64, 8
1, 1084285, Note_on_c, 0, 93, 0
1, 1084296, Note_on_c, 0, 97, 0
1, 1084303, Control_c, 0, 64, 0
1, 1084309, Note_on_c, 0, 67, 0
1, 1084334, Note_on_c, 0, 98, 0
1, 1084347, Note_on_c, 0, 91, 71
1, 1084353, Note_on_c, 0, 62, 56
1, 1084395, Note_on_c, 0, 57, 70
1, 1084402, Note_on_c, 0, 62, 0
1, 1084422, Note_on_c, 0, 57, 0
1, 1084422, Poly_aftertouch_c, 0, 57, 0
1, 1084435, Note_on_c, 0, 91, 0
1, 1084438, Note_on_c, 0, 97, 73
1, 1084450, Note_on_c, 0, 100, 67
1, 1084510, Note_on_c, 0, 70, 87
1, 1084521, Note_on_c, 0, 97, 0
1, 1084528, Note_on_c, 0, 64, 61
1, 1084528, Control_c, 0, 64, 54
1, 1084529, Note_on_c, 0, 101, 78
1, 1084539, Note_on_c, 0, 100, 0
1, 1084539, Note_on_c, 0, 98, 61
1, 1084543, Note_on_c, 0, 70, 0
1, 1084546, Control_c, 0, 64, 76
1, 1084566, Control_c, 0, 64, 17
1, 1084567, Note_on_c, 0, 64, 0
1, 1084580, Note_on_c, 0, 98, 0
1, 1084582, Note_on_c, 0, 101, 0
1, 1084584, Control_c, 0, 64, 0
1, 1084598, Note_on_c, 0, 91, 65
1, 1084664, Note_on_c, 0, 103, 85
1, 1084666, Note_on_c, 0, 91, 0
1, 1084667, Note_on_c, 0, 100, 80
1, 1084689, Note_on_c, 0, 103, 0
1, 1084695, Note_on_c, 0, 100, 0
1, 1084715, Control_c, 0, 67, 23
1, 1084782, Note_on_c, 0, 57, 43
1, 1084789, Control_c, 0, 67, 19
1, 1084801, Note_on_c, 0, 89, 74
1, 1084801, Note_on_c, 0, 93, 83
1, 1084805, Note_on_c, 0, 60, 60
1, 1084809, Control_c, 0, 64, 25
1, 1084824, Note_on_c, 0, 57, 0
1, 1084824, Poly_aftertouch_c, 0, 57, 0
1, 1084826, Control_c, 0, 64, 0
1, 1084828, Note_on_c, 0, 89, 0
1, 1084828, Poly_aftertouch_c, 0, 89, 0
1, 1084851, Note_on_c, 0, 93, 0
1, 1084859, Note_on_c, 0, 60, 0
1, 1084898, Note_on_c, 0, 65, 48
1, 1084932, Note_on_c, 0, 65, 0
1, 1084932, Note_on_c, 0, 94, 83
1, 1084942, Note_on_c, 0, 91, 61
1, 1084961, Note_on_c, 0, 69, 63
1, 1084968, Note_on_c, 0, 91, 0
1, 1084982, Note_on_c, 0, 94, 0
1, 1084999, Note_on_c, 0, 69, 0
1, 1085084, Note_on_c, 0, 70, 68
1, 1085088, Note_on_c, 0, 96, 89
1, 1085094, Note_on_c, 0, 93, 72
1, 1085127, Note_on_c, 0, 93, 0
1, 1085132, Note_on_c, 0, 96, 0
1, 1085183, Note_on_c, 0, 70, 0
1, 1085236, Note_on_c, 0, 74, 43
1, 1085246, Note_on_c, 0, 98, 88
1, 1085252, Note_on_c, 0, 94, 76
1, 1085266, Note_on_c, 0, 77, 60
1, 1085280, Note_on_c, 0, 94, 0
1, 1085300, Note_on_c, 0, 74, 0
1, 1085300, Note_on_c, 0, 98, 0
1, 1085303, Note_on_c, 0, 77, 0
1, 1085303, Poly_aftertouch_c, 0, 77, 0
1, 1085448, Note_on_c, 0, 100, 98
1, 1085455, Note_on_c, 0, 88, 76
1, 1085461, Control_c, 0, 67, 0
1, 1085463, Note_on_c, 0, 76, 67
1, 1085465, Note_on_c, 0, 69, 64
1, 1085467, Note_on_c, 0, 97, 67
1, 1085471, Note_on_c, 0, 93, 51
1, 1085475, Note_on_c, 0, 88, 0
1, 1085480, Note_on_c, 0, 73, 65
1, 1085481, Control_c, 0, 64, 65
1, 1085490, Note_on_c, 0, 97, 0
1, 1085495, Note_on_c, 0, 76, 0
1, 1085499, Control_c, 0, 64, 127
1, 1085500, Note_on_c, 0, 69, 0
1, 1085501, Note_on_c, 0, 100, 0
1, 1085504, Note_on_c, 0, 93, 0
1, 1085514, Note_on_c, 0, 73, 0
1, 1086218, Note_on_c, 0, 53, 89
1, 1086241, Note_on_c, 0, 28, 65
1, 1086242, Note_on_c, 0, 40, 62
1, 1086278, Note_on_c, 0, 53, 0
1, 1086289, Note_on_c, 0, 28, 0
1, 1086299, Note_on_c, 0, 40, 0
1, 1086590, Note_on_c, 0, 57, 88
1, 1086591, Note_on_c, 0, 69, 89
1, 1086593, Note_on_c, 0, 63, 85
1, 1086598, Note_on_c, 0, 53, 90
1, 1086603, Note_on_c, 0, 41, 80
1, 1086606, Note_on_c, 0, 48, 82
1, 1086621, Note_on_c, 0, 57, 0
1, 1086621, Poly_aftertouch_c, 0, 57, 0
1, 1086633, Note_on_c, 0, 53, 0
1, 1086635, Note_on_c, 0, 41, 0
1, 1086641, Note_on_c, 0, 63, 0
1, 1086641, Poly_aftertouch_c, 0, 63, 0
1, 1086643, Note_on_c, 0, 48, 0
1, 1086647, Note_on_c, 0, 69, 0
1, 1086927, Note_on_c, 0, 75, 95
1, 1086938, Note_on_c, 0, 65, 92
1, 1086938, Note_on_c, 0, 69, 84
1, 1086946, Note_on_c, 0, 53, 68
1, 1086946, Note_on_c, 0, 60, 80
1, 1086962, Note_on_c, 0, 52, 47
1, 1086964, Note_on_c, 0, 69, 0
1, 1086977, Note_on_c, 0, 53, 0
1, 1086984, Note_on_c, 0, 75, 0
1, 1086984, Poly_aftertouch_c, 0, 75, 0
1, 1086990, Note_on_c, 0, 65, 0
1, 1087002, Note_on_c, 0, 52, 0
1, 1087202, Note_on_c, 0, 60, 0
1, 1087221, Control_c, 0, 64, 98
1, 1087240, Control_c, 0, 64, 39
1, 1087259, Control_c, 0, 64, 0
1, 1087271, Note_on_c, 0, 66, 99
1, 1087274, Note_on_c, 0, 78, 97
1, 1087276, Note_on_c, 0, 90, 99
1, 1087280, Note_on_c, 0, 54, 87
1, 1087296, Control_c, 0, 64, 49
1, 1087315, Note_on_c, 0, 54, 0
1, 1087315, Control_c, 0, 64, 85
1, 1087322, Note_on_c, 0, 78, 0
1, 1087331, Note_on_c, 0, 66, 0
1, 1087333, Control_c, 0, 64, 115
1, 1087335, Note_on_c, 0, 90, 0
1, 1087351, Control_c, 0, 64, 127
1, 1087589, Poly_aftertouch_c, 0, 63, 0
1, 1087634, Note_on_c, 0, 69, 93
1, 1087637, Note_on_c, 0, 63, 73
1, 1087637, Note_on_c, 0, 59, 80
1, 1087637, Note_on_c, 0, 83, 93
1, 1087638, Note_on_c, 0, 71, 93
1, 1087640, Note_on_c, 0, 75, 89
1, 1087668, Note_on_c, 0, 69, 0
1, 1087676, Note_on_c, 0, 59, 0
1, 1087679, Note_on_c, 0, 71, 0
1, 1087693, Note_on_c, 0, 63, 0
1, 1087698, Note_on_c, 0, 75, 0
1, 1087698, Poly_aftertouch_c, 0, 75, 0
1, 1087700, Note_on_c, 0, 83, 0
1, 1087750, Poly_aftertouch_c, 0, 61, 0
1, 1088062, Note_on_c, 0, 63, 92
1, 1088063, Note_on_c, 0, 70, 93
1, 1088064, Note_on_c, 0, 58, 95
1, 1088068, Note_on_c, 0, 51, 83
1, 1088115, Note_on_c, 0, 58, 0
1, 1088125, Note_on_c, 0, 51, 0
1, 1088125, Note_on_c, 0, 63, 0
1, 1088134, Note_on_c, 0, 70, 0
1, 1088754, Note_on_c, 0, 53, 95
1, 1088766, Note_on_c, 0, 41, 96
1, 1088775, Note_on_c, 0, 29, 88
1, 1088848, Control_c, 0, 64, 84
1, 1088867, Control_c, 0, 64, 27
1, 1088885, Control_c, 0, 64, 0
1, 1088960, Control_c, 0, 64, 35
1, 1088979, Control_c, 0, 64, 69
1, 1088998, Control_c, 0, 64, 93
1, 1089017, Control_c, 0, 64, 123
1, 1089035, Control_c, 0, 64, 127
1, 1089052, Note_on_c, 0, 29, 0
1, 1089119, Note_on_c, 0, 53, 0
1, 1089316, Note_on_c, 0, 41, 0
1, 1089933, Note_on_c, 0, 65, 63
1, 1089939, Note_on_c, 0, 50, 50
1, 1089950, Note_on_c, 0, 57, 49
1, 1089954, Note_on_c, 0, 63, 48
1, 1090012, Note_on_c, 0, 57, 0
1, 1090012, Poly_aftertouch_c, 0, 57, 0
1, 1090063, Note_on_c, 0, 63, 0
1, 1090204, Note_on_c, 0, 65, 0
1, 1090504, Note_on_c, 0, 67, 64
1, 1090512, Note_on_c, 0, 48, 45
1, 1090518, Note_on_c, 0, 50, 0
1, 1090526, Note_on_c, 0, 58, 44
1, 1090531, Note_on_c, 0, 63, 49
1, 1090623, Control_c, 0, 64, 103
1, 1090645, Control_c, 0, 64, 73
1, 1090661, Control_c, 0, 64, 60
1, 1090681, Control_c, 0, 64, 64
1, 1090699, Control_c, 0, 64, 70
1, 1090718, Control_c, 0, 64, 77
1, 1090737, Control_c, 0, 64, 85
1, 1090755, Control_c, 0, 64, 96
1, 1090774, Control_c, 0, 64, 111
1, 1090792, Control_c, 0, 64, 125
1, 1090798, Note_on_c, 0, 58, 0
1, 1090826, Poly_aftertouch_c, 0, 63, 22
1, 1090860, Note_on_c, 0, 63, 0
1, 1090860, Poly_aftertouch_c, 0, 63, 0
1, 1090880, Note_on_c, 0, 41, 55
1, 1090900, Note_on_c, 0, 67, 0
1, 1091124, Note_on_c, 0, 48, 0
1, 1091170, Note_on_c, 0, 69, 81
1, 1091183, Note_on_c, 0, 63, 64
1, 1091183, Note_on_c, 0, 57, 65
1, 1091186, Note_on_c, 0, 50, 61
1, 1091216, Note_on_c, 0, 41, 0
1, 1091305, Note_on_c, 0, 50, 0
1, 1091330, Note_on_c, 0, 57, 0
1, 1091330, Poly_aftertouch_c, 0, 57, 0
1, 1091343, Note_on_c, 0, 69, 0
1, 1091408, Note_on_c, 0, 63, 0
1, 1091408, Poly_aftertouch_c, 0, 63, 0
1, 1091458, Note_on_c, 0, 41, 62
1, 1091521, Note_on_c, 0, 41, 0
1, 1091682, Note_on_c, 0, 70, 86
1, 1091698, Note_on_c, 0, 58, 67
1, 1091702, Note_on_c, 0, 63, 66
1, 1091703, Note_on_c, 0, 51, 67
1, 1091720, Note_on_c, 0, 67, 46
1, 1091784, Note_on_c, 0, 67, 0
1, 1091804, Note_on_c, 0, 58, 0
1, 1091829, Note_on_c, 0, 63, 0
1, 1091829, Poly_aftertouch_c, 0, 63, 0
1, 1091853, Note_on_c, 0, 70, 0
1, 1091857, Note_on_c, 0, 51, 0
1, 1091911, Note_on_c, 0, 41, 71
1, 1092133, Note_on_c, 0, 72, 92
1, 1092144, Note_on_c, 0, 63, 68
1, 1092147, Note_on_c, 0, 54, 75
1, 1092149, Note_on_c, 0, 60, 68
1, 1092161, Note_on_c, 0, 48, 65
1, 1092186, Note_on_c, 0, 60, 0
1, 1092191, Note_on_c, 0, 41, 0
1, 1092221, Note_on_c, 0, 63, 0
1, 1092221, Poly_aftertouch_c, 0, 63, 0
1, 1092242, Note_on_c, 0, 54, 0
1, 1092250, Poly_aftertouch_c, 0, 69, 127
1, 1092273, Poly_aftertouch_c, 0, 69, 0
1, 1092284, Note_on_c, 0, 72, 0
1, 1092305, Note_on_c, 0, 48, 0
1, 1092354, Note_on_c, 0, 41, 78
1, 1092421, Note_on_c, 0, 41, 0
1, 1092591, Note_on_c, 0, 74, 96
1, 1092598, Note_on_c, 0, 62, 84
1, 1092606, Note_on_c, 0, 67, 74
1, 1092608, Note_on_c, 0, 55, 81
1, 1092621, Note_on_c, 0, 48, 69
1, 1092621, Note_on_c, 0, 70, 66
1, 1092679, Note_on_c, 0, 55, 0
1, 1092679, Poly_aftertouch_c, 0, 55, 0
1, 1092733, Note_on_c, 0, 62, 0
1, 1092754, Note_on_c, 0, 74, 0
1, 1092775, Note_on_c, 0, 67, 0
1, 1092783, Note_on_c, 0, 70, 0
1, 1092817, Note_on_c, 0, 48, 0
1, 1092817, Note_on_c, 0, 41, 85
1, 1092858, Note_on_c, 0, 41, 0
1, 1093045, Note_on_c, 0, 75, 92
1, 1093045, Note_on_c, 0, 63, 90
1, 1093050, Note_on_c, 0, 67, 85
1, 1093051, Note_on_c, 0, 70, 86
1, 1093053, Control_c, 0, 64, 105
1, 1093061, Note_on_c, 0, 58, 92
1, 1093069, Note_on_c, 0, 48, 79
1, 1093093, Control_c, 0, 64, 123
1, 1093110, Control_c, 0, 64, 127
1, 1093155, Note_on_c, 0, 58, 0
1, 1093174, Poly_aftertouch_c, 0, 46, 127
1, 1093176, Note_on_c, 0, 63, 0
1, 1093176, Poly_aftertouch_c, 0, 63, 0
1, 1093191, Note_on_c, 0, 67, 0
1, 1093193, Note_on_c, 0, 48, 0
1, 1093209, Note_on_c, 0, 70, 0
1, 1093212, Poly_aftertouch_c, 0, 46, 0
1, 1093227, Note_on_c, 0, 75, 0
1, 1093227, Poly_aftertouch_c, 0, 75, 0
1, 1093288, Note_on_c, 0, 41, 86
1, 1093314, Note_on_c, 0, 41, 0
1, 1093482, Poly_aftertouch_c, 0, 41, 0
1, 1093522, Control_c, 0, 64, 121
1, 1093542, Control_c, 0, 64, 87
1, 1093555, Note_on_c, 0, 79, 95
1, 1093555, Note_on_c, 0, 67, 95
1, 1093557, Note_on_c, 0, 71, 86
1, 1093560, Note_on_c, 0, 75, 86
1, 1093560, Note_on_c, 0, 59, 82
1, 1093562, Control_c, 0, 64, 67
1, 1093565, Note_on_c, 0, 51, 82
1, 1093583, Control_c, 0, 64, 71
1, 1093597, Control_c, 0, 64, 78
1, 1093616, Control_c, 0, 64, 87
1, 1093635, Control_c, 0, 64, 98
1, 1093651, Note_on_c, 0, 59, 0
1, 1093653, Control_c, 0, 64, 113
1, 1093671, Control_c, 0, 64, 127
1, 1093701, Note_on_c, 0, 51, 0
1, 1093728, Note_on_c, 0, 67, 0
1, 1093754, Note_on_c, 0, 71, 0
1, 1093783, Note_on_c, 0, 79, 0
1, 1093790, Note_on_c, 0, 41, 91
1, 1093791, Note_on_c, 0, 75, 0
1, 1093791, Poly_aftertouch_c, 0, 75, 0
1, 1093817, Note_on_c, 0, 41, 0
1, 1094103, Control_c, 0, 64, 86
1, 1094117, Note_on_c, 0, 69, 99
1, 1094117, Note_on_c, 0, 75, 85
1, 1094119, Note_on_c, 0, 62, 92
1, 1094119, Note_on_c, 0, 81, 93
1, 1094121, Control_c, 0, 64, 56
1, 1094124, Note_on_c, 0, 79, 72
1, 1094124, Note_on_c, 0, 55, 77
1, 1094129, Note_on_c, 0, 51, 80
1, 1094151, Control_c, 0, 64, 59
1, 1094158, Control_c, 0, 64, 75
1, 1094177, Control_c, 0, 64, 91
1, 1094196, Control_c, 0, 64, 113
1, 1094214, Control_c, 0, 64, 127
1, 1094272, Note_on_c, 0, 62, 0
1, 1094312, Note_on_c, 0, 55, 0
1, 1094312, Poly_aftertouch_c, 0, 55, 0
1, 1094338, Note_on_c, 0, 51, 0
1, 1094438, Note_on_c, 0, 69, 0
1, 1094447, Note_on_c, 0, 41, 94
1, 1094449, Note_on_c, 0, 81, 0
1, 1094449, Poly_aftertouch_c, 0, 81, 0
1, 1094491, Note_on_c, 0, 41, 0
1, 1094499, Note_on_c, 0, 79, 0
1, 1094499, Note_on_c, 0, 75, 0
1, 1094499, Poly_aftertouch_c, 0, 75, 0
1, 1094776, Control_c, 0, 64, 118
1, 1094786, Note_on_c, 0, 70, 101
1, 1094788, Note_on_c, 0, 82, 95
1, 1094790, Note_on_c, 0, 75, 89
1, 1094791, Note_on_c, 0, 60, 93
1, 1094792, Note_on_c, 0, 55, 81
1, 1094793, Control_c, 0, 64, 66
1, 1094806, Note_on_c, 0, 51, 80
1, 1094807, Note_on_c, 0, 79, 71
1, 1094812, Control_c, 0, 64, 0
1, 1094858, Poly_aftertouch_c, 0, 56, 0
1, 1094869, Control_c, 0, 64, 47
1, 1094887, Control_c, 0, 64, 69
1, 1094907, Control_c, 0, 64, 93
1, 1094924, Control_c, 0, 64, 124
1, 1095014, Note_on_c, 0, 60, 0
1, 1095048, Note_on_c, 0, 55, 0
1, 1095048, Poly_aftertouch_c, 0, 55, 0
1, 1095072, Note_on_c, 0, 51, 0
1, 1095207, Note_on_c, 0, 41, 97
1, 1095214, Note_on_c, 0, 40, 77
1, 1095243, Note_on_c, 0, 40, 0
1, 1095251, Note_on_c, 0, 41, 0
1, 1095345, Note_on_c, 0, 70, 0
1, 1095356, Note_on_c, 0, 79, 0
1, 1095397, Note_on_c, 0, 82, 0
1, 1095400, Note_on_c, 0, 75, 0
1, 1095400, Poly_aftertouch_c, 0, 75, 0
1, 1095732, Note_on_c, 0, 58, 99
1, 1095735, Note_on_c, 0, 84, 97
1, 1095735, Note_on_c, 0, 75, 95
1, 1095736, Note_on_c, 0, 54, 85
1, 1095737, Note_on_c, 0, 72, 102
1, 1095742, Note_on_c, 0, 78, 82
1, 1095742, Note_on_c, 0, 51, 81
1, 1095768, Control_c, 0, 64, 117
1, 1095785, Control_c, 0, 64, 75
1, 1095822, Control_c, 0, 64, 0
1, 1095859, Control_c, 0, 64, 35
1, 1095879, Control_c, 0, 64, 67
1, 1095897, Control_c, 0, 64, 91
1, 1095916, Control_c, 0, 64, 124
1, 1095976, Note_on_c, 0, 58, 0
1, 1096018, Note_on_c, 0, 54, 0
1, 1096043, Note_on_c, 0, 51, 0
1, 1096355, Note_on_c, 0, 84, 0
1, 1096358, Note_on_c, 0, 41, 99
1, 1096367, Note_on_c, 0, 72, 0
1, 1096431, Note_on_c, 0, 78, 0
1, 1096436, Note_on_c, 0, 75, 0
1, 1096436, Poly_aftertouch_c, 0, 75, 0
1, 1096831, Note_on_c, 0, 41, 0
1, 1097068, Note_on_c, 0, 34, 86
1, 1097149, Control_c, 0, 64, 85
1, 1097155, Note_on_c, 0, 53, 97
1, 1097168, Control_c, 0, 64, 31
1, 1097176, Note_on_c, 0, 41, 92
1, 1097187, Control_c, 0, 64, 37
1, 1097206, Control_c, 0, 64, 81
1, 1097224, Control_c, 0, 64, 120
1, 1097240, Note_on_c, 0, 34, 0
1, 1097242, Note_on_c, 0, 41, 0
1, 1097242, Control_c, 0, 64, 127
1, 1097264, Note_on_c, 0, 53, 0
1, 1097508, Note_on_c, 0, 41, 66
1, 1097514, Note_on_c, 0, 51, 80
1, 1097528, Note_on_c, 0, 57, 83
1, 1097530, Note_on_c, 0, 53, 77
1, 1097533, Note_on_c, 0, 65, 80
1, 1097534, Note_on_c, 0, 62, 82
1, 1097556, Note_on_c, 0, 57, 0
1, 1097556, Poly_aftertouch_c, 0, 57, 0
1, 1097560, Note_on_c, 0, 41, 0
1, 1097571, Note_on_c, 0, 62, 0
1, 1097576, Note_on_c, 0, 51, 0
1, 1097582, Note_on_c, 0, 53, 0
1, 1097587, Note_on_c, 0, 65, 0
1, 1097891, Note_on_c, 0, 57, 60
1, 1097955, Note_on_c, 0, 63, 71
1, 1097968, Note_on_c, 0, 65, 70
1, 1098013, Note_on_c, 0, 57, 0
1, 1098013, Poly_aftertouch_c, 0, 57, 0
1, 1098053, Note_on_c, 0, 69, 92
1, 1098074, Note_on_c, 0, 86, 99
1, 1098076, Note_on_c, 0, 77, 85
1, 1098076, Note_on_c, 0, 74, 101
1, 1098079, Note_on_c, 0, 81, 85
1, 1098121, Note_on_c, 0, 69, 0
1, 1098155, Note_on_c, 0, 74, 0
1, 1098158, Note_on_c, 0, 65, 0
1, 1098176, Note_on_c, 0, 63, 0
1, 1098176, Poly_aftertouch_c, 0, 63, 0
1, 1098179, Note_on_c, 0, 86, 0
1, 1098179, Poly_aftertouch_c, 0, 86, 0
1, 1098193, Note_on_c, 0, 81, 0
1, 1098193, Poly_aftertouch_c, 0, 81, 0
1, 1098195, Note_on_c, 0, 77, 0
1, 1098195, Poly_aftertouch_c, 0, 77, 0
1, 1098573, Note_on_c, 0, 53, 55
1, 1098597, Note_on_c, 0, 63, 58
1, 1098635, Note_on_c, 0, 57, 44
1, 1098647, Note_on_c, 0, 69, 72
1, 1098653, Note_on_c, 0, 65, 64
1, 1098689, Note_on_c, 0, 53, 0
1, 1098775, Note_on_c, 0, 57, 0
1, 1098775, Poly_aftertouch_c, 0, 57, 0
1, 1098784, Note_on_c, 0, 63, 0
1, 1098784, Poly_aftertouch_c, 0, 63, 0
1, 1098791, Note_on_c, 0, 65, 0
1, 1098836, Note_on_c, 0, 69, 0
1, 1098867, Note_on_c, 0, 65, 63
1, 1098872, Note_on_c, 0, 57, 48
1, 1098895, Note_on_c, 0, 63, 55
1, 1098906, Note_on_c, 0, 74, 88
1, 1098917, Note_on_c, 0, 69, 60
1, 1098955, Note_on_c, 0, 65, 0
1, 1098986, Note_on_c, 0, 63, 0
1, 1098986, Poly_aftertouch_c, 0, 63, 0
1, 1099020, Note_on_c, 0, 69, 0
1, 1099062, Note_on_c, 0, 63, 79
1, 1099078, Note_on_c, 0, 53, 73
1, 1099091, Note_on_c, 0, 63, 0
1, 1099091, Poly_aftertouch_c, 0, 63, 0
1, 1099112, Note_on_c, 0, 53, 0
1, 1099115, Note_on_c, 0, 57, 0
1, 1099115, Poly_aftertouch_c, 0, 57, 0
1, 1099140, Note_on_c, 0, 74, 0
1, 1099170, Note_on_c, 0, 77, 98
1, 1099179, Note_on_c, 0, 69, 72
1, 1099180, Note_on_c, 0, 65, 84
1, 1099345, Note_on_c, 0, 65, 0
1, 1099352, Note_on_c, 0, 69, 0
1, 1099394, Note_on_c, 0, 77, 0
1, 1099394, Poly_aftertouch_c, 0, 77, 0
1, 1099431, Control_c, 0, 64, 104
1, 1099450, Control_c, 0, 64, 53
1, 1099455, Note_on_c, 0, 41, 82
1, 1099458, Note_on_c, 0, 34, 80
1, 1099468, Control_c, 0, 64, 0
1, 1099475, Note_on_c, 0, 77, 97
1, 1099480, Note_on_c, 0, 65, 91
1, 1099487, Control_c, 0, 64, 37
1, 1099498, Note_on_c, 0, 34, 0
1, 1099501, Note_on_c, 0, 41, 0
1, 1099504, Note_on_c, 0, 70, 67
1, 1099504, Control_c, 0, 64, 71
1, 1099520, Note_on_c, 0, 65, 0
1, 1099523, Note_on_c, 0, 74, 37
1, 1099526, Control_c, 0, 64, 98
1, 1099539, Note_on_c, 0, 70, 0
1, 1099543, Control_c, 0, 64, 127
1, 1099566, Note_on_c, 0, 74, 0
1, 1099629, Note_on_c, 0, 77, 0
1, 1099629, Poly_aftertouch_c, 0, 77, 0
1, 1099769, Note_on_c, 0, 41, 69
1, 1099772, Note_on_c, 0, 53, 78
1, 1099776, Note_on_c, 0, 50, 72
1, 1099779, Note_on_c, 0, 62, 78
1, 1099779, Note_on_c, 0, 70, 83
1, 1099786, Note_on_c, 0, 46, 70
1, 1099805, Note_on_c, 0, 41, 0
1, 1099806, Note_on_c, 0, 53, 0
1, 1099810, Note_on_c, 0, 62, 0
1, 1099810, Note_on_c, 0, 50, 0
1, 1099812, Note_on_c, 0, 46, 0
1, 1099830, Note_on_c, 0, 70, 0
1, 1100154, Note_on_c, 0, 58, 78
1, 1100160, Note_on_c, 0, 67, 83
1, 1100169, Note_on_c, 0, 82, 97
1, 1100170, Note_on_c, 0, 63, 77
1, 1100175, Note_on_c, 0, 70, 91
1, 1100176, Note_on_c, 0, 72, 80
1, 1100185, Note_on_c, 0, 60, 65
1, 1100188, Note_on_c, 0, 67, 0
1, 1100197, Note_on_c, 0, 58, 0
1, 1100204, Note_on_c, 0, 63, 0
1, 1100204, Poly_aftertouch_c, 0, 63, 0
1, 1100205, Note_on_c, 0, 70, 0
1, 1100217, Note_on_c, 0, 60, 0
1, 1100232, Note_on_c, 0, 72, 0
1, 1100239, Note_on_c, 0, 82, 0
1, 1100588, Note_on_c, 0, 53, 68
1, 1100597, Note_on_c, 0, 70, 75
1, 1100598, Note_on_c, 0, 63, 71
1, 1100599, Note_on_c, 0, 60, 63
1, 1100639, Note_on_c, 0, 60, 0
1, 1100661, Note_on_c, 0, 63, 0
1, 1100661, Poly_aftertouch_c, 0, 63, 0
1, 1100712, Note_on_c, 0, 70, 0
1, 1100719, Note_on_c, 0, 53, 0
1, 1100846, Note_on_c, 0, 74, 80
1, 1100860, Note_on_c, 0, 65, 75
1, 1100861, Note_on_c, 0, 70, 66
1, 1100864, Note_on_c, 0, 62, 67
1, 1100876, Note_on_c, 0, 58, 59
1, 1100893, Note_on_c, 0, 65, 0
1, 1100899, Note_on_c, 0, 70, 0
1, 1100935, Note_on_c, 0, 62, 0
1, 1100966, Note_on_c, 0, 58, 0
1, 1101080, Note_on_c, 0, 62, 68
1, 1101085, Note_on_c, 0, 58, 64
1, 1101089, Note_on_c, 0, 53, 68
1, 1101109, Note_on_c, 0, 74, 0
1, 1101120, Note_on_c, 0, 53, 0
1, 1101120, Note_on_c, 0, 58, 0
1, 1101124, Note_on_c, 0, 70, 80
1, 1101156, Note_on_c, 0, 62, 0
1, 1101183, Note_on_c, 0, 70, 0
1, 1101311, Note_on_c, 0, 69, 71
1, 1101359, Note_on_c, 0, 72, 75
1, 1101439, Note_on_c, 0, 75, 84
1, 1101514, Note_on_c, 0, 34, 90
1, 1101563, Control_c, 0, 64, 122
1, 1101583, Control_c, 0, 64, 81
1, 1101600, Control_c, 0, 64, 0
1, 1101656, Control_c, 0, 64, 23
1, 1101664, Note_on_c, 0, 81, 97
1, 1101675, Control_c, 0, 64, 58
1, 1101694, Control_c, 0, 64, 80
1, 1101700, Note_on_c, 0, 34, 0
1, 1101712, Control_c, 0, 64, 106
1, 1101731, Control_c, 0, 64, 127
1, 1101781, Note_on_c, 0, 69, 0
1, 1101849, Note_on_c, 0, 72, 0
1, 1101856, Note_on_c, 0, 81, 0
1, 1101856, Poly_aftertouch_c, 0, 81, 0
1, 1101891, Note_on_c, 0, 75, 0
1, 1101891, Poly_aftertouch_c, 0, 75, 0
1, 1101981, Note_on_c, 0, 51, 68
1, 1102034, Note_on_c, 0, 57, 61
1, 1102058, Note_on_c, 0, 60, 63
1, 1102072, Note_on_c, 0, 51, 0
1, 1102148, Note_on_c, 0, 66, 80
1, 1102164, Note_on_c, 0, 60, 0
1, 1102171, Note_on_c, 0, 57, 0
1, 1102171, Poly_aftertouch_c, 0, 57, 0
1, 1102184, Note_on_c, 0, 66, 0
1, 1102343, Note_on_c, 0, 60, 59
1, 1102371, Note_on_c, 0, 63, 61
1, 1102375, Note_on_c, 0, 68, 80
1, 1102384, Note_on_c, 0, 60, 0
1, 1102415, Note_on_c, 0, 63, 0
1, 1102415, Poly_aftertouch_c, 0, 63, 0
1, 1102440, Note_on_c, 0, 68, 0
1, 1102454, Note_on_c, 0, 54, 54
1, 1102506, Note_on_c, 0, 60, 65
1, 1102546, Note_on_c, 0, 63, 72
1, 1102551, Note_on_c, 0, 54, 0
1, 1102632, Note_on_c, 0, 60, 0
1, 1102633, Note_on_c, 0, 69, 86
1, 1102649, Note_on_c, 0, 63, 0
1, 1102649, Poly_aftertouch_c, 0, 63, 0
1, 1102688, Note_on_c, 0, 69, 0
1, 1102697, Note_on_c, 0, 66, 72
1, 1102747, Note_on_c, 0, 69, 69
1, 1102754, Note_on_c, 0, 66, 0
1, 1102786, Note_on_c, 0, 71, 75
1, 1102864, Note_on_c, 0, 78, 92
1, 1102885, Note_on_c, 0, 69, 0
1, 1102905, Note_on_c, 0, 71, 0
1, 1102930, Note_on_c, 0, 78, 0
1, 1102939, Note_on_c, 0, 57, 73
1, 1103011, Note_on_c, 0, 63, 72
1, 1103033, Note_on_c, 0, 57, 0
1, 1103033, Poly_aftertouch_c, 0, 57, 0
1, 1103068, Note_on_c, 0, 66, 68
1, 1103131, Note_on_c, 0, 72, 89
1, 1103148, Note_on_c, 0, 63, 0
1, 1103148, Note_on_c, 0, 63, 51
1, 1103175, Note_on_c, 0, 72, 0
1, 1103194, Note_on_c, 0, 66, 0
1, 1103219, Note_on_c, 0, 63, 0
1, 1103219, Poly_aftertouch_c, 0, 63, 0
1, 1103280, Note_on_c, 0, 66, 69
1, 1103359, Note_on_c, 0, 68, 78
1, 1103454, Note_on_c, 0, 71, 71
1, 1103472, Note_on_c, 0, 66, 0
1, 1103549, Note_on_c, 0, 34, 88
1, 1103658, Control_c, 0, 64, 112
1, 1103671, Note_on_c, 0, 78, 95
1, 1103676, Control_c, 0, 64, 73
1, 1103695, Control_c, 0, 64, 30
1, 1103714, Control_c, 0, 64, 0
1, 1103732, Control_c, 0, 64, 28
1, 1103751, Control_c, 0, 64, 69
1, 1103755, Note_on_c, 0, 34, 0
1, 1103769, Control_c, 0, 64, 104
1, 1103787, Control_c, 0, 64, 127
1, 1103862, Note_on_c, 0, 68, 0
1, 1103884, Note_on_c, 0, 71, 0
1, 1103884, Note_on_c, 0, 78, 0
1, 1103998, Note_on_c, 0, 53, 37
1, 1104083, Note_on_c, 0, 56, 54
1, 1104128, Note_on_c, 0, 63, 72
1, 1104169, Note_on_c, 0, 63, 0
1, 1104169, Poly_aftertouch_c, 0, 63, 0
1, 1104175, Note_on_c, 0, 56, 0
1, 1104180, Note_on_c, 0, 53, 0
1, 1104306, Note_on_c, 0, 59, 58
1, 1104339, Note_on_c, 0, 62, 60
1, 1104354, Note_on_c, 0, 59, 0
1, 1104359, Note_on_c, 0, 64, 75
1, 1104412, Note_on_c, 0, 62, 0
1, 1104437, Note_on_c, 0, 64, 0
1, 1104479, Note_on_c, 0, 56, 65
1, 1104522, Note_on_c, 0, 59, 62
1, 1104583, Note_on_c, 0, 56, 0
1, 1104621, Note_on_c, 0, 65, 64
1, 1104622, Note_on_c, 0, 59, 0
1, 1104659, Note_on_c, 0, 65, 0
1, 1104742, Note_on_c, 0, 62, 63
1, 1104761, Note_on_c, 0, 65, 57
1, 1104773, Note_on_c, 0, 62, 0
1, 1104802, Note_on_c, 0, 67, 70
1, 1104868, Note_on_c, 0, 74, 84
1, 1104883, Note_on_c, 0, 65, 0
1, 1104897, Note_on_c, 0, 67, 0
1, 1104924, Note_on_c, 0, 74, 0
1, 1104956, Poly_aftertouch_c, 0, 62, 0
1, 1105028, Note_on_c, 0, 59, 57
1, 1105102, Note_on_c, 0, 62, 59
1, 1105123, Note_on_c, 0, 59, 0
1, 1105185, Note_on_c, 0, 68, 84
1, 1105225, Note_on_c, 0, 62, 0
1, 1105236, Note_on_c, 0, 68, 0
1, 1105494, Note_on_c, 0, 39, 89
1, 1105584, Control_c, 0, 64, 84
1, 1105602, Control_c, 0, 64, 34
1, 1105620, Control_c, 0, 64, 0
1, 1105640, Control_c, 0, 64, 19
1, 1105658, Control_c, 0, 64, 64
1, 1105677, Control_c, 0, 64, 98
1, 1105695, Control_c, 0, 64, 127
1, 1105760, Note_on_c, 0, 46, 61
1, 1105777, Note_on_c, 0, 39, 0
1, 1105827, Note_on_c, 0, 70, 74
1, 1105833, Note_on_c, 0, 62, 52
1, 1105837, Note_on_c, 0, 55, 68
1, 1105849, Note_on_c, 0, 46, 0
1, 1105864, Note_on_c, 0, 70, 0
1, 1105867, Note_on_c, 0, 62, 0
1, 1105876, Note_on_c, 0, 55, 0
1, 1105876, Poly_aftertouch_c, 0, 55, 0
1, 1105923, Poly_aftertouch_c, 0, 67, 127
1, 1105950, Poly_aftertouch_c, 0, 67, 0
1, 1106080, Note_on_c, 0, 55, 48
1, 1106252, Note_on_c, 0, 61, 75
1, 1106277, Note_on_c, 0, 77, 91
1, 1106308, Note_on_c, 0, 70, 55
1, 1106308, Note_on_c, 0, 67, 58
1, 1106350, Note_on_c, 0, 70, 0
1, 1106419, Note_on_c, 0, 61, 0
1, 1106437, Note_on_c, 0, 77, 0
1, 1106437, Poly_aftertouch_c, 0, 77, 0
1, 1106451, Note_on_c, 0, 67, 0
1, 1106521, Note_on_c, 0, 55, 0
1, 1106521, Poly_aftertouch_c, 0, 55, 0
1, 1106673, Note_on_c, 0, 46, 57
1, 1106696, Note_on_c, 0, 55, 47
1, 1106726, Note_on_c, 0, 46, 0
1, 1106794, Note_on_c, 0, 70, 61
1, 1106799, Note_on_c, 0, 67, 44
1, 1106803, Note_on_c, 0, 62, 49
1, 1106877, Note_on_c, 0, 62, 0
1, 1106909, Note_on_c, 0, 55, 0
1, 1106909, Poly_aftertouch_c, 0, 55, 0
1, 1106945, Note_on_c, 0, 70, 0
1, 1106946, Note_on_c, 0, 67, 0
1, 1107031, Note_on_c, 0, 62, 66
1, 1107046, Note_on_c, 0, 75, 89
1, 1107063, Note_on_c, 0, 55, 59
1, 1107075, Note_on_c, 0, 67, 67
1, 1107091, Note_on_c, 0, 62, 0
1, 1107104, Note_on_c, 0, 70, 49
1, 1107192, Note_on_c, 0, 70, 0
1, 1107233, Note_on_c, 0, 55, 0
1, 1107233, Poly_aftertouch_c, 0, 55, 0
1, 1107311, Note_on_c, 0, 55, 54
1, 1107321, Note_on_c, 0, 46, 67
1, 1107328, Note_on_c, 0, 63, 74
1, 1107331, Note_on_c, 0, 70, 76
1, 1107369, Note_on_c, 0, 46, 0
1, 1107400, Note_on_c, 0, 55, 0
1, 1107400, Poly_aftertouch_c, 0, 55, 0
1, 1107411, Note_on_c, 0, 75, 0
1, 1107411, Poly_aftertouch_c, 0, 75, 0
1, 1107416, Note_on_c, 0, 63, 0
1, 1107416, Poly_aftertouch_c, 0, 63, 0
1, 1107473, Note_on_c, 0, 67, 0
1, 1107493, Note_on_c, 0, 70, 0
1, 1107560, Note_on_c, 0, 74, 93
1, 1107564, Control_c, 0, 64, 114
1, 1107566, Note_on_c, 0, 58, 78
1, 1107569, Note_on_c, 0, 50, 65
1, 1107576, Note_on_c, 0, 70, 69
1, 1107581, Note_on_c, 0, 62, 67
1, 1107583, Control_c, 0, 64, 78
1, 1107603, Control_c, 0, 64, 57
1, 1107621, Control_c, 0, 64, 59
1, 1107640, Control_c, 0, 64, 71
1, 1107646, Note_on_c, 0, 58, 0
1, 1107659, Note_on_c, 0, 50, 0
1, 1107659, Control_c, 0, 64, 85
1, 1107676, Control_c, 0, 64, 104
1, 1107696, Control_c, 0, 64, 127
1, 1107723, Note_on_c, 0, 62, 0
1, 1107770, Note_on_c, 0, 70, 0
1, 1107793, Note_on_c, 0, 74, 0
1, 1107820, Note_on_c, 0, 64, 73
1, 1107823, Note_on_c, 0, 43, 56
1, 1107829, Note_on_c, 0, 52, 70
1, 1107863, Note_on_c, 0, 43, 0
1, 1107917, Poly_aftertouch_c, 0, 51, 0
1, 1107925, Note_on_c, 0, 52, 0
1, 1107985, Note_on_c, 0, 64, 0
1, 1108090, Note_on_c, 0, 72, 82
1, 1108100, Note_on_c, 0, 58, 70
1, 1108100, Note_on_c, 0, 70, 67
1, 1108107, Note_on_c, 0, 60, 61
1, 1108108, Note_on_c, 0, 48, 59
1, 1108108, Control_c, 0, 64, 101
1, 1108128, Control_c, 0, 64, 67
1, 1108144, Control_c, 0, 64, 52
1, 1108162, Control_c, 0, 64, 57
1, 1108182, Control_c, 0, 64, 70
1, 1108202, Note_on_c, 0, 58, 0
1, 1108202, Control_c, 0, 64, 82
1, 1108220, Control_c, 0, 64, 98
1, 1108238, Control_c, 0, 64, 120
1, 1108257, Control_c, 0, 64, 127
1, 1108360, Poly_aftertouch_c, 0, 60, 22
1, 1108395, Note_on_c, 0, 63, 67
1, 1108395, Note_on_c, 0, 51, 66
1, 1108397, Note_on_c, 0, 42, 62
1, 1108398, Note_on_c, 0, 48, 0
1, 1108399, Note_on_c, 0, 60, 0
1, 1108399, Poly_aftertouch_c, 0, 60, 0
1, 1108400, Poly_aftertouch_c, 0, 60, 0
1, 1108430, Note_on_c, 0, 70, 0
1, 1108452, Note_on_c, 0, 72, 0
1, 1108461, Note_on_c, 0, 42, 0
1, 1108506, Note_on_c, 0, 63, 0
1, 1108506, Poly_aftertouch_c, 0, 63, 0
1, 1108524, Note_on_c, 0, 51, 0
1, 1108694, Note_on_c, 0, 74, 84
1, 1108697, Note_on_c, 0, 62, 73
1, 1108700, Note_on_c, 0, 69, 72
1, 1108707, Note_on_c, 0, 50, 59
1, 1108707, Note_on_c, 0, 57, 70
1, 1108725, Control_c, 0, 64, 110
1, 1108744, Control_c, 0, 64, 79
1, 1108761, Control_c, 0, 64, 68
1, 1108781, Control_c, 0, 64, 76
1, 1108799, Control_c, 0, 64, 89
1, 1108818, Control_c, 0, 64, 107
1, 1108837, Control_c, 0, 64, 127
1, 1108840, Note_on_c, 0, 57, 0
1, 1108840, Poly_aftertouch_c, 0, 57, 0
1, 1108887, Note_on_c, 0, 50, 0
1, 1108918, Note_on_c, 0, 74, 0
1, 1109017, Note_on_c, 0, 63, 84
1, 1109023, Note_on_c, 0, 51, 87
1, 1109026, Note_on_c, 0, 41, 81
1, 1109042, Note_on_c, 0, 69, 0
1, 1109058, Note_on_c, 0, 51, 0
1, 1109059, Note_on_c, 0, 62, 0
1, 1109066, Note_on_c, 0, 41, 0
1, 1109071, Note_on_c, 0, 63, 0
1, 1109071, Poly_aftertouch_c, 0, 63, 0
1, 1109407, Note_on_c, 0, 34, 92
1, 1109407, Note_on_c, 0, 41, 94
1, 1109410, Note_on_c, 0, 53, 95
1, 1109411, Note_on_c, 0, 57, 81
1, 1109413, Note_on_c, 0, 65, 90
1, 1109416, Note_on_c, 0, 63, 82
1, 1109416, Control_c, 0, 64, 90
1, 1109435, Control_c, 0, 64, 78
1, 1109453, Control_c, 0, 64, 90
1, 1109462, Note_on_c, 0, 41, 0
1, 1109464, Note_on_c, 0, 34, 0
1, 1109471, Control_c, 0, 64, 106
1, 1109491, Control_c, 0, 64, 127
1, 1109502, Note_on_c, 0, 53, 0
1, 1109553, Note_on_c, 0, 57, 0
1, 1109553, Poly_aftertouch_c, 0, 57, 0
1, 1109569, Note_on_c, 0, 65, 0
1, 1109627, Note_on_c, 0, 63, 0
1, 1109627, Poly_aftertouch_c, 0, 63, 0
1, 1109733, Note_on_c, 0, 57, 92
1, 1109737, Note_on_c, 0, 51, 80
1, 1109738, Note_on_c, 0, 62, 87
1, 1109738, Note_on_c, 0, 41, 66
1, 1109738, Note_on_c, 0, 53, 83
1, 1109746, Note_on_c, 0, 67, 78
1, 1109751, Note_on_c, 0, 65, 76
1, 1109771, Note_on_c, 0, 57, 0
1, 1109771, Poly_aftertouch_c, 0, 57, 0
1, 1109776, Note_on_c, 0, 67, 0
1, 1109778, Note_on_c, 0, 62, 0
1, 1109782, Note_on_c, 0, 41, 0
1, 1109787, Note_on_c, 0, 53, 0
1, 1109788, Note_on_c, 0, 65, 0
1, 1109795, Note_on_c, 0, 51, 0
1, 1109857, Poly_aftertouch_c, 0, 52, 0
1, 1110060, Note_on_c, 0, 57, 71
1, 1110113, Note_on_c, 0, 63, 73
1, 1110124, Note_on_c, 0, 65, 63
1, 1110145, Note_on_c, 0, 57, 0
1, 1110145, Poly_aftertouch_c, 0, 57, 0
1, 1110195, Note_on_c, 0, 71, 81
1, 1110196, Note_on_c, 0, 69, 79
1, 1110199, Note_on_c, 0, 86, 98
1, 1110201, Note_on_c, 0, 74, 102
1, 1110204, Note_on_c, 0, 77, 91
1, 1110206, Note_on_c, 0, 81, 89
1, 1110223, Note_on_c, 0, 69, 0
1, 1110224, Note_on_c, 0, 71, 0
1, 1110226, Note_on_c, 0, 65, 0
1, 1110239, Note_on_c, 0, 63, 0
1, 1110239, Poly_aftertouch_c, 0, 63, 0
1, 1110261, Note_on_c, 0, 74, 0
1, 1110289, Note_on_c, 0, 77, 0
1, 1110289, Poly_aftertouch_c, 0, 77, 0
1, 1110291, Note_on_c, 0, 86, 0
1, 1110291, Poly_aftertouch_c, 0, 86, 0
1, 1110295, Note_on_c, 0, 81, 0
1, 1110295, Poly_aftertouch_c, 0, 81, 0
1, 1110526, Note_on_c, 0, 41, 67
1, 1110581, Note_on_c, 0, 51, 67
1, 1110601, Note_on_c, 0, 41, 0
1, 1110651, Note_on_c, 0, 69, 58
1, 1110657, Note_on_c, 0, 77, 84
1, 1110660, Note_on_c, 0, 57, 74
1, 1110665, Note_on_c, 0, 65, 72
1, 1110666, Note_on_c, 0, 51, 0
1, 1110677, Note_on_c, 0, 75, 65
1, 1110691, Note_on_c, 0, 57, 0
1, 1110691, Poly_aftertouch_c, 0, 57, 0
1, 1110767, Note_on_c, 0, 77, 0
1, 1110767, Poly_aftertouch_c, 0, 77, 0
1, 1110790, Note_on_c, 0, 65, 0
1, 1110818, Note_on_c, 0, 75, 0
1, 1110818, Poly_aftertouch_c, 0, 75, 0
1, 1110826, Note_on_c, 0, 69, 0
1, 1110908, Note_on_c, 0, 67, 80
1, 1110909, Note_on_c, 0, 57, 71
1, 1110923, Note_on_c, 0, 64, 71
1, 1110924, Note_on_c, 0, 60, 52
1, 1110926, Note_on_c, 0, 76, 89
1, 1110938, Note_on_c, 0, 67, 0
1, 1110952, Note_on_c, 0, 57, 0
1, 1110952, Poly_aftertouch_c, 0, 57, 0
1, 1110953, Note_on_c, 0, 69, 58
1, 1110967, Note_on_c, 0, 60, 0
1, 1111025, Note_on_c, 0, 64, 0
1, 1111078, Note_on_c, 0, 76, 0
1, 1111174, Note_on_c, 0, 63, 78
1, 1111175, Note_on_c, 0, 53, 77
1, 1111181, Note_on_c, 0, 77, 101
1, 1111184, Note_on_c, 0, 60, 74
1, 1111188, Note_on_c, 0, 65, 86
1, 1111205, Note_on_c, 0, 63, 0
1, 1111205, Poly_aftertouch_c, 0, 63, 0
1, 1111213, Note_on_c, 0, 60, 0
1, 1111231, Note_on_c, 0, 53, 0
1, 1111288, Poly_aftertouch_c, 0, 75, 0
1, 1111373, Note_on_c, 0, 69, 0
1, 1111374, Poly_aftertouch_c, 0, 69, 0
1, 1111401, Note_on_c, 0, 77, 0
1, 1111401, Poly_aftertouch_c, 0, 77, 0
1, 1111416, Note_on_c, 0, 65, 0
1, 1111556, Note_on_c, 0, 34, 80
1, 1111558, Note_on_c, 0, 41, 78
1, 1111572, Note_on_c, 0, 77, 98
1, 1111585, Control_c, 0, 64, 108
1, 1111586, Note_on_c, 0, 65, 81
1, 1111592, Note_on_c, 0, 70, 74
1, 1111604, Control_c, 0, 64, 55
1, 1111623, Control_c, 0, 64, 0
1, 1111659, Control_c, 0, 64, 41
1, 1111679, Control_c, 0, 64, 97
1, 1111682, Note_on_c, 0, 41, 0
1, 1111682, Note_on_c, 0, 34, 0
1, 1111698, Control_c, 0, 64, 127
1, 1111787, Note_on_c, 0, 70, 0
1, 1111788, Note_on_c, 0, 77, 0
1, 1111788, Poly_aftertouch_c, 0, 77, 0
1, 1111790, Note_on_c, 0, 65, 0
1, 1111811, Poly_aftertouch_c, 0, 74, 127
1, 1111867, Poly_aftertouch_c, 0, 74, 0
1, 1111944, Note_on_c, 0, 41, 61
1, 1111958, Poly_aftertouch_c, 0, 49, 0
1, 1111960, Note_on_c, 0, 53, 77
1, 1111963, Note_on_c, 0, 50, 65
1, 1111964, Note_on_c, 0, 70, 82
1, 1111975, Note_on_c, 0, 62, 65
1, 1111977, Note_on_c, 0, 46, 65
1, 1111983, Note_on_c, 0, 41, 0
1, 1112002, Note_on_c, 0, 62, 0
1, 1112002, Note_on_c, 0, 53, 0
1, 1112006, Note_on_c, 0, 50, 0
1, 1112009, Note_on_c, 0, 46, 0
1, 1112023, Note_on_c, 0, 70, 0
1, 1112091, Poly_aftertouch_c, 0, 64, 0
1, 1112410, Note_on_c, 0, 57, 73
1, 1112410, Note_on_c, 0, 65, 91
1, 1112420, Note_on_c, 0, 62, 72
1, 1112429, Note_on_c, 0, 58, 62
1, 1112532, Note_on_c, 0, 82, 94
1, 1112544, Note_on_c, 0, 70, 76
1, 1112549, Note_on_c, 0, 74, 67
1, 1112645, Note_on_c, 0, 57, 0
1, 1112645, Poly_aftertouch_c, 0, 57, 0
1, 1112676, Note_on_c, 0, 58, 0
1, 1112872, Note_on_c, 0, 65, 0
1, 1112926, Note_on_c, 0, 82, 0
1, 1112973, Note_on_c, 0, 70, 0
1, 1112973, Note_on_c, 0, 74, 0
1, 1113036, Note_on_c, 0, 62, 0
1, 1113082, Note_on_c, 0, 64, 90
1, 1113091, Note_on_c, 0, 55, 78
1, 1113099, Note_on_c, 0, 58, 74
1, 1113127, Note_on_c, 0, 64, 0
1, 1113143, Note_on_c, 0, 58, 0
1, 1113149, Note_on_c, 0, 55, 0
1, 1113149, Poly_aftertouch_c, 0, 55, 0
1, 1113411, Note_on_c, 0, 63, 80
1, 1113412, Note_on_c, 0, 54, 77
1, 1113423, Note_on_c, 0, 41, 79
1, 1113437, Note_on_c, 0, 58, 62
1, 1113593, Note_on_c, 0, 58, 0
1, 1113595, Note_on_c, 0, 54, 0
1, 1113605, Note_on_c, 0, 63, 0
1, 1113605, Poly_aftertouch_c, 0, 63, 0
1, 1113670, Note_on_c, 0, 41, 0
1, 1113671, Note_on_c, 0, 34, 80
1, 1113676, Note_on_c, 0, 62, 89
1, 1113685, Note_on_c, 0, 53, 75
1, 1113694, Note_on_c, 0, 58, 68
1, 1113706, Note_on_c, 0, 34, 0
1, 1113717, Note_on_c, 0, 53, 0
1, 1113724, Note_on_c, 0, 58, 0
1, 1113730, Note_on_c, 0, 62, 0
1, 1113923, Note_on_c, 0, 26, 78
1, 1113997, Poly_aftertouch_c, 0, 73, 0
1, 1114035, Control_c, 0, 64, 97
1, 1114053, Control_c, 0, 64, 39
1, 1114072, Control_c, 0, 64, 0
1, 1114077, Note_on_c, 0, 81, 96
1, 1114081, Note_on_c, 0, 77, 79
1, 1114082, Note_on_c, 0, 69, 84
1, 1114084, Note_on_c, 0, 74, 62
1, 1114088, Note_on_c, 0, 38, 83
1, 1114110, Control_c, 0, 64, 54
1, 1114117, Note_on_c, 0, 26, 0
1, 1114128, Control_c, 0, 64, 86
1, 1114149, Control_c, 0, 64, 127
1, 1114152, Note_on_c, 0, 74, 0
1, 1114154, Note_on_c, 0, 38, 0
1, 1114338, Note_on_c, 0, 81, 0
1, 1114338, Poly_aftertouch_c, 0, 81, 0
1, 1114350, Note_on_c, 0, 73, 74
1, 1114356, Note_on_c, 0, 53, 77
1, 1114357, Note_on_c, 0, 45, 73
1, 1114367, Note_on_c, 0, 77, 0
1, 1114367, Poly_aftertouch_c, 0, 77, 0
1, 1114389, Note_on_c, 0, 69, 0
1, 1114390, Note_on_c, 0, 45, 0
1, 1114393, Note_on_c, 0, 53, 0
1, 1114419, Note_on_c, 0, 73, 0
1, 1114606, Note_on_c, 0, 80, 96
1, 1114618, Note_on_c, 0, 68, 80
1, 1114620, Note_on_c, 0, 72, 74
1, 1114624, Note_on_c, 0, 76, 73
1, 1114628, Note_on_c, 0, 60, 62
1, 1114636, Note_on_c, 0, 64, 65
1, 1114642, Note_on_c, 0, 56, 60
1, 1114711, Note_on_c, 0, 72, 0
1, 1114735, Note_on_c, 0, 64, 0
1, 1114755, Note_on_c, 0, 56, 0
1, 1114820, Note_on_c, 0, 60, 0
1, 1114890, Note_on_c, 0, 59, 71
1, 1114891, Note_on_c, 0, 71, 74
1, 1114919, Note_on_c, 0, 59, 0
1, 1115254, Note_on_c, 0, 45, 77
1, 1115259, Note_on_c, 0, 38, 69
1, 1115307, Control_c, 0, 64, 89
1, 1115325, Control_c, 0, 64, 42
1, 1115343, Control_c, 0, 64, 12
1, 1115362, Control_c, 0, 64, 52
1, 1115381, Control_c, 0, 64, 85
1, 1115395, Note_on_c, 0, 71, 0
1, 1115399, Control_c, 0, 64, 122
1, 1115418, Control_c, 0, 64, 127
1, 1115446, Note_on_c, 0, 38, 0
1, 1115468, Note_on_c, 0, 68, 0
1, 1115483, Note_on_c, 0, 80, 0
1, 1115527, Note_on_c, 0, 45, 0
1, 1115548, Note_on_c, 0, 53, 68
1, 1115559, Note_on_c, 0, 81, 89
1, 1115564, Note_on_c, 0, 76, 0
1, 1115569, Note_on_c, 0, 72, 67
1, 1115571, Note_on_c, 0, 69, 71
1, 1115585, Note_on_c, 0, 53, 0
1, 1115598, Note_on_c, 0, 73, 47
1, 1115606, Note_on_c, 0, 69, 0
1, 1115636, Note_on_c, 0, 73, 0
1, 1115643, Note_on_c, 0, 72, 0
1, 1115664, Note_on_c, 0, 81, 0
1, 1115664, Poly_aftertouch_c, 0, 81, 0
1, 1115829, Note_on_c, 0, 63, 70
1, 1115831, Note_on_c, 0, 79, 88
1, 1115839, Note_on_c, 0, 71, 59
1, 1115840, Note_on_c, 0, 59, 54
1, 1115844, Note_on_c, 0, 67, 74
1, 1115850, Control_c, 0, 64, 103
1, 1115856, Note_on_c, 0, 55, 45
1, 1115862, Note_on_c, 0, 75, 60
1, 1115867, Control_c, 0, 64, 60
1, 1115886, Control_c, 0, 64, 0
1, 1115905, Control_c, 0, 64, 15
1, 1115924, Control_c, 0, 64, 47
1, 1115942, Control_c, 0, 64, 76
1, 1115954, Note_on_c, 0, 71, 0
1, 1115961, Control_c, 0, 64, 101
1, 1115972, Note_on_c, 0, 63, 0
1, 1115972, Poly_aftertouch_c, 0, 63, 0
1, 1115979, Control_c, 0, 64, 127
1, 1116076, Note_on_c, 0, 59, 0
1, 1116121, Poly_aftertouch_c, 0, 55, 24
1, 1116139, Note_on_c, 0, 70, 63
1, 1116146, Note_on_c, 0, 58, 62
1, 1116184, Note_on_c, 0, 55, 0
1, 1116184, Poly_aftertouch_c, 0, 55, 0
1, 1116185, Note_on_c, 0, 58, 0
1, 1116185, Poly_aftertouch_c, 0, 55, 0
1, 1116297, Control_c, 0, 67, 11
1, 1116558, Control_c, 0, 64, 105
1, 1116559, Control_c, 0, 67, 15
1, 1116566, Note_on_c, 0, 45, 49
1, 1116569, Note_on_c, 0, 38, 52
1, 1116577, Control_c, 0, 64, 66
1, 1116579, Control_c, 0, 67, 20
1, 1116597, Control_c, 0, 64, 55
1, 1116598, Control_c, 0, 67, 24
1, 1116615, Control_c, 0, 64, 65
1, 1116635, Control_c, 0, 64, 80
1, 1116636, Control_c, 0, 67, 30
1, 1116653, Control_c, 0, 64, 94
1, 1116655, Note_on_c, 0, 70, 0
1, 1116655, Control_c, 0, 67, 37
1, 1116671, Control_c, 0, 64, 115
1, 1116672, Control_c, 0, 67, 47
1, 1116691, Control_c, 0, 64, 127
1, 1116692, Control_c, 0, 67, 55
1, 1116700, Note_on_c, 0, 79, 0
1, 1116709, Control_c, 0, 67, 60
1, 1116735, Note_on_c, 0, 38, 0
1, 1116745, Control_c, 0, 67, 64
1, 1116755, Note_on_c, 0, 67, 0
1, 1116796, Note_on_c, 0, 75, 0
1, 1116798, Note_on_c, 0, 45, 0
1, 1116820, Control_c, 0, 67, 72
1, 1116840, Control_c, 0, 67, 79
1, 1116856, Note_on_c, 0, 81, 80
1, 1116859, Control_c, 0, 67, 83
1, 1116876, Note_on_c, 0, 53, 49
1, 1116895, Control_c, 0, 67, 88
1, 1116919, Note_on_c, 0, 53, 0
1, 1116923, Note_on_c, 0, 81, 0
1, 1116923, Poly_aftertouch_c, 0, 81, 0
1, 1116932, Control_c, 0, 67, 93
1, 1116952, Control_c, 0, 67, 98
1, 1116968, Poly_aftertouch_c, 0, 69, 127
1, 1116969, Control_c, 0, 67, 103
1, 1116990, Poly_aftertouch_c, 0, 72, 0
1, 1116996, Poly_aftertouch_c, 0, 69, 0
1, 1117007, Control_c, 0, 67, 108
1, 1117045, Control_c, 0, 67, 112
1, 1117266, Note_on_c, 0, 61, 46
1, 1117274, Note_on_c, 0, 77, 61
1, 1117284, Note_on_c, 0, 53, 30
1, 1117292, Note_on_c, 0, 70, 43
1, 1117296, Note_on_c, 0, 73, 45
1, 1117300, Note_on_c, 0, 58, 42
1, 1117306, Control_c, 0, 67, 116
1, 1117308, Note_on_c, 0, 65, 29
1, 1117344, Control_c, 0, 64, 114
1, 1117364, Control_c, 0, 64, 81
1, 1117365, Control_c, 0, 67, 122
1, 1117382, Control_c, 0, 64, 51
1, 1117400, Control_c, 0, 64, 44
1, 1117408, Note_on_c, 0, 70, 0
1, 1117419, Control_c, 0, 64, 52
1, 1117438, Control_c, 0, 64, 67
1, 1117456, Control_c, 0, 64, 80
1, 1117463, Note_on_c, 0, 61, 0
1, 1117475, Control_c, 0, 64, 93
1, 1117494, Control_c, 0, 64, 108
1, 1117512, Control_c, 0, 64, 119
1, 1117528, Poly_aftertouch_c, 0, 53, 24
1, 1117530, Control_c, 0, 64, 124
1, 1117548, Note_on_c, 0, 73, 0
1, 1117548, Control_c, 0, 67, 127
1, 1117603, Poly_aftertouch_c, 0, 58, 20
1, 1117620, Note_on_c, 0, 58, 0
1, 1117620, Poly_aftertouch_c, 0, 58, 0
1, 1117696, Note_on_c, 0, 53, 0
1, 1117696, Poly_aftertouch_c, 0, 53, 0
1, 1117769, Note_on_c, 0, 74, 47
1, 1117780, Note_on_c, 0, 57, 40
1, 1117783, Note_on_c, 0, 69, 39
1, 1117785, Note_on_c, 0, 62, 28
1, 1117844, Note_on_c, 0, 62, 0
1, 1117855, Note_on_c, 0, 57, 0
1, 1117855, Poly_aftertouch_c, 0, 57, 0
1, 1117901, Note_on_c, 0, 77, 0
1, 1117901, Poly_aftertouch_c, 0, 77, 0
1, 1118241, Note_on_c, 0, 69, 0
1, 1118279, Control_c, 0, 64, 94
1, 1118298, Control_c, 0, 64, 62
1, 1118316, Control_c, 0, 64, 53
1, 1118336, Control_c, 0, 64, 60
1, 1118353, Control_c, 0, 64, 75
1, 1118373, Control_c, 0, 64, 86
1, 1118393, Control_c, 0, 64, 103
1, 1118411, Control_c, 0, 64, 121
1, 1118411, Control_c, 0, 67, 123
1, 1118426, Poly_aftertouch_c, 0, 41, 127
1, 1118427, Control_c, 0, 64, 127
1, 1118442, Poly_aftertouch_c, 0, 29, 0
1, 1118467, Poly_aftertouch_c, 0, 41, 0
1, 1118470, Note_on_c, 0, 65, 0
1, 1118572, Note_on_c, 0, 74, 0
1, 1118578, Control_c, 0, 67, 119
1, 1118673, Control_c, 0, 67, 115
1, 1118709, Note_on_c, 0, 65, 47
1, 1118711, Note_on_c, 0, 60, 39
1, 1118722, Note_on_c, 0, 51, 43
1, 1118742, Note_on_c, 0, 69, 31
1, 1118746, Control_c, 0, 67, 110
1, 1118777, Note_on_c, 0, 51, 0
1, 1118783, Control_c, 0, 67, 106
1, 1118788, Note_on_c, 0, 60, 0
1, 1118802, Note_on_c, 0, 65, 0
1, 1118806, Note_on_c, 0, 69, 0
1, 1118808, Poly_aftertouch_c, 0, 48, 127
1, 1118831, Poly_aftertouch_c, 0, 41, 0
1, 1118837, Poly_aftertouch_c, 0, 48, 0
1, 1118840, Control_c, 0, 67, 100
1, 1118878, Control_c, 0, 67, 96
1, 1118934, Control_c, 0, 67, 91
1, 1118992, Note_on_c, 0, 72, 62
1, 1119009, Control_c, 0, 67, 86
1, 1119016, Note_on_c, 0, 65, 41
1, 1119018, Note_on_c, 0, 57, 43
1, 1119033, Note_on_c, 0, 51, 47
1, 1119055, Note_on_c, 0, 48, 13
1, 1119056, Note_on_c, 0, 57, 0
1, 1119056, Poly_aftertouch_c, 0, 57, 0
1, 1119083, Control_c, 0, 67, 81
1, 1119084, Note_on_c, 0, 51, 0
1, 1119102, Poly_aftertouch_c, 0, 69, 127
1, 1119134, Poly_aftertouch_c, 0, 69, 0
1, 1119139, Note_on_c, 0, 48, 0
1, 1119139, Control_c, 0, 67, 76
1, 1119195, Control_c, 0, 67, 71
1, 1119221, Note_on_c, 0, 69, 53
1, 1119230, Note_on_c, 0, 72, 0
1, 1119230, Note_on_c, 0, 41, 46
1, 1119231, Note_on_c, 0, 60, 41
1, 1119239, Note_on_c, 0, 65, 0
1, 1119245, Note_on_c, 0, 51, 49
1, 1119260, Note_on_c, 0, 69, 0
1, 1119268, Note_on_c, 0, 60, 0
1, 1119269, Note_on_c, 0, 41, 0
1, 1119269, Control_c, 0, 67, 65
1, 1119286, Note_on_c, 0, 51, 0
1, 1119308, Control_c, 0, 67, 60
1, 1119346, Control_c, 0, 67, 56
1, 1119401, Control_c, 0, 67, 52
1, 1119457, Control_c, 0, 67, 47
1, 1119491, Note_on_c, 0, 77, 82
1, 1119503, Note_on_c, 0, 63, 55
1, 1119512, Note_on_c, 0, 53, 51
1, 1119514, Note_on_c, 0, 69, 39
1, 1119532, Control_c, 0, 67, 42
1, 1119536, Note_on_c, 0, 72, 37
1, 1119544, Note_on_c, 0, 63, 0
1, 1119544, Poly_aftertouch_c, 0, 63, 0
1, 1119553, Note_on_c, 0, 57, 14
1, 1119558, Note_on_c, 0, 53, 0
1, 1119558, Poly_aftertouch_c, 0, 53, 0
1, 1119581, Note_on_c, 0, 72, 0
1, 1119587, Control_c, 0, 67, 38
1, 1119625, Note_on_c, 0, 57, 0
1, 1119625, Poly_aftertouch_c, 0, 57, 0
1, 1119632, Note_on_c, 0, 69, 0
1, 1119682, Control_c, 0, 67, 34
1, 1119740, Note_on_c, 0, 72, 48
1, 1119750, Note_on_c, 0, 69, 17
1, 1119752, Note_on_c, 0, 57, 55
1, 1119757, Note_on_c, 0, 65, 48
1, 1119769, Note_on_c, 0, 53, 40
1, 1119780, Note_on_c, 0, 57, 0
1, 1119780, Poly_aftertouch_c, 0, 57, 0
1, 1119788, Note_on_c, 0, 77, 0
1, 1119788, Poly_aftertouch_c, 0, 77, 0
1, 1119803, Note_on_c, 0, 72, 0
1, 1119812, Note_on_c, 0, 69, 0
1, 1119818, Note_on_c, 0, 53, 0
1, 1119818, Poly_aftertouch_c, 0, 53, 0
1, 1120194, Note_on_c, 0, 79, 79
1, 1120198, Note_on_c, 0, 29, 60
1, 1120225, Control_c, 0, 64, 118
1, 1120234, Poly_aftertouch_c, 0, 65, 22
1, 1120242, Control_c, 0, 64, 83
1, 1120261, Control_c, 0, 64, 66
1, 1120280, Control_c, 0, 64, 77
1, 1120296, Note_on_c, 0, 29, 0
1, 1120298, Control_c, 0, 64, 96
1, 1120311, Note_on_c, 0, 79, 0
1, 1120316, Control_c, 0, 64, 127
1, 1120384, Note_on_c, 0, 65, 0
1, 1120384, Poly_aftertouch_c, 0, 65, 0
1, 1120605, Note_on_c, 0, 60, 45
1, 1120613, Note_on_c, 0, 63, 45
1, 1120629, Note_on_c, 0, 51, 41
1, 1120633, Note_on_c, 0, 68, 38
1, 1120635, Note_on_c, 0, 41, 19
1, 1120673, Note_on_c, 0, 51, 0
1, 1120673, Note_on_c, 0, 63, 0
1, 1120673, Poly_aftertouch_c, 0, 63, 0
1, 1120678, Note_on_c, 0, 60, 0
1, 1120685, Note_on_c, 0, 68, 0
1, 1120693, Note_on_c, 0, 41, 0
1, 1120725, Poly_aftertouch_c, 0, 48, 0
1, 1120847, Note_on_c, 0, 56, 53
1, 1120848, Note_on_c, 0, 72, 57
1, 1120878, Note_on_c, 0, 48, 41
1, 1120883, Note_on_c, 0, 63, 22
1, 1120884, Note_on_c, 0, 56, 0
1, 1120887, Note_on_c, 0, 51, 33
1, 1120939, Note_on_c, 0, 51, 0
1, 1120947, Note_on_c, 0, 48, 0
1, 1120950, Note_on_c, 0, 63, 0
1, 1120950, Poly_aftertouch_c, 0, 63, 0
1, 1121050, Note_on_c, 0, 72, 0
1, 1121058, Note_on_c, 0, 68, 61
1, 1121068, Note_on_c, 0, 51, 60
1, 1121071, Note_on_c, 0, 41, 41
1, 1121095, Note_on_c, 0, 68, 0
1, 1121114, Note_on_c, 0, 41, 0
1, 1121116, Note_on_c, 0, 51, 0
1, 1121165, Poly_aftertouch_c, 0, 60, 0
1, 1121300, Note_on_c, 0, 77, 81
1, 1121326, Note_on_c, 0, 63, 50
1, 1121327, Control_c, 0, 67, 30
1, 1121329, Note_on_c, 0, 53, 53
1, 1121340, Note_on_c, 0, 68, 28
1, 1121341, Note_on_c, 0, 56, 44
1, 1121350, Note_on_c, 0, 72, 30
1, 1121358, Note_on_c, 0, 63, 0
1, 1121358, Poly_aftertouch_c, 0, 63, 0
1, 1121361, Note_on_c, 0, 53, 0
1, 1121361, Poly_aftertouch_c, 0, 53, 0
1, 1121377, Note_on_c, 0, 56, 0
1, 1121380, Note_on_c, 0, 68, 0
1, 1121522, Note_on_c, 0, 68, 60
1, 1121523, Note_on_c, 0, 56, 48
1, 1121559, Note_on_c, 0, 56, 0
1, 1121561, Note_on_c, 0, 65, 35
1, 1121563, Note_on_c, 0, 53, 38
1, 1121607, Poly_aftertouch_c, 0, 72, 24
1, 1121617, Note_on_c, 0, 53, 0
1, 1121617, Poly_aftertouch_c, 0, 53, 0
1, 1121795, Control_c, 0, 64, 115
1, 1121802, Note_on_c, 0, 29, 74
1, 1121814, Control_c, 0, 64, 80
1, 1121832, Control_c, 0, 64, 47
1, 1121850, Control_c, 0, 64, 52
1, 1121870, Control_c, 0, 64, 78
1, 1121888, Control_c, 0, 64, 108
1, 1121892, Note_on_c, 0, 29, 0
1, 1121907, Control_c, 0, 64, 127
1, 1121948, Poly_aftertouch_c, 0, 72, 22
1, 1121978, Note_on_c, 0, 72, 0
1, 1121978, Poly_aftertouch_c, 0, 72, 0
1, 1121979, Poly_aftertouch_c, 0, 72, 0
1, 1121983, Note_on_c, 0, 65, 0
1, 1121983, Poly_aftertouch_c, 0, 65, 0
1, 1121989, Note_on_c, 0, 68, 0
1, 1122000, Control_c, 0, 67, 26
1, 1122141, Note_on_c, 0, 65, 42
1, 1122142, Note_on_c, 0, 72, 54
1, 1122147, Note_on_c, 0, 69, 50
1, 1122151, Control_c, 0, 67, 22
1, 1122157, Note_on_c, 0, 41, 40
1, 1122172, Note_on_c, 0, 77, 0
1, 1122172, Poly_aftertouch_c, 0, 77, 0
1, 1122185, Note_on_c, 0, 51, 49
1, 1122195, Note_on_c, 0, 41, 0
1, 1122205, Note_on_c, 0, 48, 21
1, 1122263, Control_c, 0, 67, 18
1, 1122269, Note_on_c, 0, 69, 0
1, 1122288, Note_on_c, 0, 65, 0
1, 1122288, Poly_aftertouch_c, 0, 65, 0
1, 1122327, Note_on_c, 0, 72, 0
1, 1122342, Note_on_c, 0, 51, 0
1, 1122410, Note_on_c, 0, 57, 59
1, 1122430, Control_c, 0, 67, 14
1, 1122455, Note_on_c, 0, 51, 35
1, 1122497, Note_on_c, 0, 76, 82
1, 1122501, Note_on_c, 0, 57, 0
1, 1122501, Poly_aftertouch_c, 0, 57, 0
1, 1122526, Note_on_c, 0, 69, 58
1, 1122529, Note_on_c, 0, 72, 53
1, 1122561, Control_c, 0, 67, 10
1, 1122628, Note_on_c, 0, 72, 0
1, 1122633, Note_on_c, 0, 69, 0
1, 1122662, Poly_aftertouch_c, 0, 48, 24
1, 1122698, Note_on_c, 0, 41, 61
1, 1122709, Note_on_c, 0, 48, 0
1, 1122709, Poly_aftertouch_c, 0, 48, 0
1, 1122710, Poly_aftertouch_c, 0, 48, 0
1, 1122727, Note_on_c, 0, 41, 0
1, 1122745, Note_on_c, 0, 65, 63
1, 1122755, Note_on_c, 0, 51, 0
1, 1122755, Note_on_c, 0, 72, 61
1, 1122767, Note_on_c, 0, 69, 53
1, 1122810, Note_on_c, 0, 65, 0
1, 1122810, Poly_aftertouch_c, 0, 65, 0
1, 1122818, Note_on_c, 0, 69, 0
1, 1122862, Note_on_c, 0, 72, 0
1, 1122928, Note_on_c, 0, 57, 53
1, 1122930, Note_on_c, 0, 63, 59
1, 1122964, Note_on_c, 0, 72, 75
1, 1122970, Note_on_c, 0, 69, 67
1, 1122977, Note_on_c, 0, 65, 59
1, 1123013, Note_on_c, 0, 63, 0
1, 1123013, Poly_aftertouch_c, 0, 63, 0
1, 1123027, Note_on_c, 0, 76, 0
1, 1123078, Note_on_c, 0, 65, 0
1, 1123078, Poly_aftertouch_c, 0, 65, 0
1, 1123104, Note_on_c, 0, 57, 0
1, 1123104, Poly_aftertouch_c, 0, 57, 0
1, 1123110, Note_on_c, 0, 53, 68
1, 1123126, Note_on_c, 0, 69, 0
1, 1123146, Note_on_c, 0, 53, 0
1, 1123146, Poly_aftertouch_c, 0, 53, 0
1, 1123204, Note_on_c, 0, 77, 91
1, 1123218, Note_on_c, 0, 69, 38
1, 1123230, Note_on_c, 0, 65, 57
1, 1123369, Note_on_c, 0, 69, 0
1, 1123394, Note_on_c, 0, 65, 0
1, 1123394, Poly_aftertouch_c, 0, 65, 0
1, 1123407, Note_on_c, 0, 77, 0
1, 1123407, Poly_aftertouch_c, 0, 77, 0
1, 1123432, Note_on_c, 0, 38, 69
1, 1123466, Poly_aftertouch_c, 0, 72, 20
1, 1123471, Note_on_c, 0, 72, 0
1, 1123471, Poly_aftertouch_c, 0, 72, 0
1, 1123496, Control_c, 0, 67, 14
1, 1123527, Note_on_c, 0, 77, 88
1, 1123533, Control_c, 0, 64, 102
1, 1123552, Control_c, 0, 64, 59
1, 1123555, Note_on_c, 0, 65, 52
1, 1123559, Note_on_c, 0, 68, 49
1, 1123572, Control_c, 0, 64, 0
1, 1123589, Poly_aftertouch_c, 0, 72, 127
1, 1123609, Control_c, 0, 64, 42
1, 1123628, Control_c, 0, 64, 69
1, 1123647, Control_c, 0, 64, 91
1, 1123665, Control_c, 0, 64, 117
1, 1123666, Control_c, 0, 67, 18
1, 1123683, Control_c, 0, 64, 127
1, 1123693, Note_on_c, 0, 77, 0
1, 1123693, Poly_aftertouch_c, 0, 77, 0
1, 1123705, Note_on_c, 0, 65, 0
1, 1123705, Poly_aftertouch_c, 0, 65, 0
1, 1123720, Control_c, 0, 67, 22
1, 1123735, Note_on_c, 0, 38, 0
1, 1123736, Note_on_c, 0, 68, 0
1, 1123751, Note_on_c, 0, 44, 56
1, 1123754, Note_on_c, 0, 50, 53
1, 1123790, Note_on_c, 0, 44, 0
1, 1123792, Poly_aftertouch_c, 0, 72, 0
1, 1123796, Control_c, 0, 67, 27
1, 1123805, Note_on_c, 0, 50, 0
1, 1123836, Note_on_c, 0, 76, 88
1, 1123859, Note_on_c, 0, 64, 59
1, 1123864, Note_on_c, 0, 68, 58
1, 1123870, Control_c, 0, 67, 31
1, 1123880, Note_on_c, 0, 72, 29
1, 1123970, Note_on_c, 0, 72, 0
1, 1123972, Note_on_c, 0, 64, 0
1, 1123979, Note_on_c, 0, 68, 0
1, 1123993, Note_on_c, 0, 76, 0
1, 1124057, Control_c, 0, 64, 113
1, 1124077, Note_on_c, 0, 60, 56
1, 1124077, Control_c, 0, 64, 77
1, 1124081, Note_on_c, 0, 76, 76
1, 1124089, Note_on_c, 0, 51, 54
1, 1124095, Control_c, 0, 64, 59
1, 1124103, Note_on_c, 0, 64, 49
1, 1124112, Note_on_c, 0, 68, 44
1, 1124114, Control_c, 0, 64, 61
1, 1124119, Note_on_c, 0, 60, 0
1, 1124132, Note_on_c, 0, 72, 46
1, 1124132, Control_c, 0, 64, 69
1, 1124151, Control_c, 0, 64, 80
1, 1124162, Note_on_c, 0, 64, 0
1, 1124169, Control_c, 0, 64, 93
1, 1124188, Control_c, 0, 64, 110
1, 1124198, Note_on_c, 0, 76, 0
1, 1124206, Control_c, 0, 64, 127
1, 1124211, Note_on_c, 0, 72, 0
1, 1124215, Note_on_c, 0, 51, 0
1, 1124223, Note_on_c, 0, 68, 0
1, 1124319, Control_c, 0, 64, 104
1, 1124323, Note_on_c, 0, 75, 77
1, 1124327, Note_on_c, 0, 44, 53
1, 1124335, Note_on_c, 0, 52, 53
1, 1124338, Control_c, 0, 64, 76
1, 1124349, Note_on_c, 0, 63, 47
1, 1124361, Note_on_c, 0, 72, 51
1, 1124365, Note_on_c, 0, 44, 0
1, 1124367, Note_on_c, 0, 68, 47
1, 1124376, Control_c, 0, 64, 82
1, 1124393, Control_c, 0, 64, 92
1, 1124413, Control_c, 0, 64, 108
1, 1124418, Note_on_c, 0, 52, 0
1, 1124431, Control_c, 0, 64, 125
1, 1124437, Note_on_c, 0, 63, 0
1, 1124437, Poly_aftertouch_c, 0, 63, 0
1, 1124445, Note_on_c, 0, 75, 0
1, 1124453, Note_on_c, 0, 72, 0
1, 1124462, Note_on_c, 0, 68, 0
1, 1124562, Control_c, 0, 64, 115
1, 1124581, Control_c, 0, 64, 81
1, 1124588, Note_on_c, 0, 75, 65
1, 1124599, Control_c, 0, 64, 55
1, 1124602, Note_on_c, 0, 53, 54
1, 1124603, Note_on_c, 0, 60, 49
1, 1124607, Note_on_c, 0, 63, 43
1, 1124636, Control_c, 0, 64, 63
1, 1124640, Note_on_c, 0, 72, 35
1, 1124641, Note_on_c, 0, 60, 0
1, 1124641, Note_on_c, 0, 68, 27
1, 1124656, Control_c, 0, 64, 76
1, 1124673, Control_c, 0, 64, 89
1, 1124693, Control_c, 0, 64, 105
1, 1124696, Note_on_c, 0, 72, 0
1, 1124705, Note_on_c, 0, 68, 0
1, 1124710, Control_c, 0, 64, 120
1, 1124711, Note_on_c, 0, 63, 0
1, 1124711, Poly_aftertouch_c, 0, 63, 0
1, 1124729, Control_c, 0, 64, 127
1, 1124743, Note_on_c, 0, 53, 0
1, 1124743, Poly_aftertouch_c, 0, 53, 0
1, 1124758, Note_on_c, 0, 75, 0
1, 1124917, Control_c, 0, 64, 119
1, 1124935, Control_c, 0, 64, 93
1, 1124954, Control_c, 0, 64, 66
1, 1124966, Note_on_c, 0, 74, 50
1, 1124973, Control_c, 0, 64, 62
1, 1124974, Control_c, 0, 67, 27
1, 1124981, Note_on_c, 0, 44, 47
1, 1124986, Note_on_c, 0, 54, 40
1, 1124986, Note_on_c, 0, 68, 38
1, 1124991, Control_c, 0, 64, 68
1, 1124994, Note_on_c, 0, 62, 23
1, 1125012, Control_c, 0, 64, 76
1, 1125030, Control_c, 0, 64, 86
1, 1125048, Control_c, 0, 64, 98
1, 1125051, Note_on_c, 0, 54, 0
1, 1125066, Control_c, 0, 64, 111
1, 1125085, Control_c, 0, 64, 120
1, 1125104, Control_c, 0, 64, 126
1, 1125105, Control_c, 0, 67, 23
1, 1125118, Note_on_c, 0, 44, 0
1, 1125146, Note_on_c, 0, 62, 0
1, 1125179, Control_c, 0, 67, 19
1, 1125271, Control_c, 0, 67, 15
1, 1125314, Poly_aftertouch_c, 0, 68, 24
1, 1125347, Control_c, 0, 64, 111
1, 1125355, Note_on_c, 0, 68, 0
1, 1125355, Poly_aftertouch_c, 0, 68, 0
1, 1125366, Control_c, 0, 64, 83
1, 1125380, Note_on_c, 0, 43, 59
1, 1125384, Note_on_c, 0, 31, 55
1, 1125384, Control_c, 0, 64, 59
1, 1125403, Control_c, 0, 64, 61
1, 1125422, Control_c, 0, 64, 71
1, 1125441, Control_c, 0, 64, 84
1, 1125449, Note_on_c, 0, 31, 0
1, 1125459, Control_c, 0, 64, 101
1, 1125460, Control_c, 0, 67, 11
1, 1125478, Control_c, 0, 64, 125
1, 1125501, Note_on_c, 0, 43, 0
1, 1125713, Note_on_c, 0, 43, 48
1, 1125724, Note_on_c, 0, 74, 0
1, 1125729, Note_on_c, 0, 71, 50
1, 1125731, Note_on_c, 0, 67, 46
1, 1125745, Note_on_c, 0, 50, 33
1, 1125751, Note_on_c, 0, 53, 34
1, 1125777, Note_on_c, 0, 43, 0
1, 1125788, Note_on_c, 0, 67, 0
1, 1125790, Note_on_c, 0, 53, 0
1, 1125790, Poly_aftertouch_c, 0, 53, 0
1, 1125796, Note_on_c, 0, 50, 0
1, 1125870, Control_c, 0, 67, 0
1, 1125907, Note_on_c, 0, 71, 0
1, 1125973, Note_on_c, 0, 74, 82
1, 1125997, Note_on_c, 0, 50, 31
1, 1126001, Note_on_c, 0, 71, 42
1, 1126002, Note_on_c, 0, 59, 47
1, 1126003, Note_on_c, 0, 53, 45
1, 1126037, Note_on_c, 0, 59, 0
1, 1126083, Note_on_c, 0, 53, 0
1, 1126083, Poly_aftertouch_c, 0, 53, 0
1, 1126088, Note_on_c, 0, 71, 0
1, 1126192, Note_on_c, 0, 43, 65
1, 1126204, Note_on_c, 0, 53, 59
1, 1126209, Note_on_c, 0, 67, 63
1, 1126216, Note_on_c, 0, 43, 0
1, 1126237, Note_on_c, 0, 50, 0
1, 1126242, Note_on_c, 0, 53, 0
1, 1126242, Poly_aftertouch_c, 0, 53, 0
1, 1126258, Note_on_c, 0, 74, 0
1, 1126265, Note_on_c, 0, 71, 29
1, 1126314, Note_on_c, 0, 67, 0
1, 1126332, Note_on_c, 0, 71, 0
1, 1126440, Note_on_c, 0, 79, 91
1, 1126453, Note_on_c, 0, 55, 52
1, 1126455, Note_on_c, 0, 65, 52
1, 1126462, Note_on_c, 0, 71, 64
1, 1126465, Note_on_c, 0, 74, 58
1, 1126486, Note_on_c, 0, 55, 0
1, 1126487, Note_on_c, 0, 65, 0
1, 1126487, Poly_aftertouch_c, 0, 65, 0
1, 1126514, Note_on_c, 0, 74, 0
1, 1126549, Poly_aftertouch_c, 0, 59, 0
1, 1126689, Note_on_c, 0, 59, 68
1, 1126694, Note_on_c, 0, 55, 56
1, 1126698, Note_on_c, 0, 67, 69
1, 1126700, Note_on_c, 0, 74, 58
1, 1126707, Note_on_c, 0, 79, 0
1, 1126712, Note_on_c, 0, 71, 0
1, 1126712, Note_on_c, 0, 71, 21
1, 1126722, Note_on_c, 0, 59, 0
1, 1126727, Note_on_c, 0, 55, 0
1, 1126841, Note_on_c, 0, 67, 0
1, 1127113, Note_on_c, 0, 31, 66
1, 1127176, Note_on_c, 0, 80, 92
1, 1127218, Control_c, 0, 64, 112
1, 1127236, Control_c, 0, 64, 77
1, 1127255, Control_c, 0, 64, 63
1, 1127273, Note_on_c, 0, 31, 0
1, 1127274, Control_c, 0, 64, 82
1, 1127289, Note_on_c, 0, 71, 0
1, 1127291, Control_c, 0, 64, 111
1, 1127302, Note_on_c, 0, 74, 0
1, 1127308, Note_on_c, 0, 80, 0
1, 1127309, Control_c, 0, 64, 127
1, 1127581, Note_on_c, 0, 43, 49
1, 1127587, Note_on_c, 0, 65, 52
1, 1127589, Note_on_c, 0, 53, 47
1, 1127591, Note_on_c, 0, 70, 62
1, 1127593, Note_on_c, 0, 49, 46
1, 1127609, Note_on_c, 0, 61, 51
1, 1127622, Note_on_c, 0, 43, 0
1, 1127624, Note_on_c, 0, 53, 0
1, 1127624, Poly_aftertouch_c, 0, 53, 0
1, 1127631, Note_on_c, 0, 49, 0
1, 1127664, Note_on_c, 0, 61, 0
1, 1127699, Note_on_c, 0, 65, 0
1, 1127699, Poly_aftertouch_c, 0, 65, 0
1, 1127745, Note_on_c, 0, 70, 0
1, 1127798, Note_on_c, 0, 58, 70
1, 1127806, Note_on_c, 0, 53, 45
1, 1127820, Note_on_c, 0, 73, 77
1, 1127822, Note_on_c, 0, 49, 45
1, 1127836, Note_on_c, 0, 58, 0
1, 1127836, Poly_aftertouch_c, 0, 58, 0
1, 1127845, Note_on_c, 0, 65, 53
1, 1127885, Note_on_c, 0, 53, 0
1, 1127885, Poly_aftertouch_c, 0, 53, 0
1, 1127893, Note_on_c, 0, 65, 0
1, 1127893, Poly_aftertouch_c, 0, 65, 0
1, 1127902, Poly_aftertouch_c, 0, 61, 0
1, 1127987, Note_on_c, 0, 61, 42
1, 1127987, Note_on_c, 0, 70, 66
1, 1127998, Note_on_c, 0, 73, 0
1, 1128002, Note_on_c, 0, 43, 57
1, 1128015, Note_on_c, 0, 53, 58
1, 1128023, Note_on_c, 0, 70, 0
1, 1128035, Note_on_c, 0, 61, 0
1, 1128037, Note_on_c, 0, 43, 0
1, 1128038, Note_on_c, 0, 45, 30
1, 1128054, Note_on_c, 0, 53, 0
1, 1128054, Poly_aftertouch_c, 0, 53, 0
1, 1128065, Note_on_c, 0, 49, 0
1, 1128092, Note_on_c, 0, 45, 0
1, 1128240, Note_on_c, 0, 79, 88
1, 1128249, Note_on_c, 0, 55, 63
1, 1128254, Note_on_c, 0, 65, 61
1, 1128264, Note_on_c, 0, 70, 60
1, 1128269, Note_on_c, 0, 73, 65
1, 1128281, Note_on_c, 0, 58, 49
1, 1128289, Note_on_c, 0, 55, 0
1, 1128292, Note_on_c, 0, 65, 0
1, 1128292, Poly_aftertouch_c, 0, 65, 0
1, 1128298, Note_on_c, 0, 70, 0
1, 1128317, Note_on_c, 0, 58, 0
1, 1128317, Poly_aftertouch_c, 0, 58, 0
1, 1128432, Note_on_c, 0, 58, 72
1, 1128458, Note_on_c, 0, 70, 61
1, 1128459, Note_on_c, 0, 49, 72
1, 1128462, Note_on_c, 0, 58, 0
1, 1128462, Poly_aftertouch_c, 0, 58, 0
1, 1128469, Note_on_c, 0, 67, 56
1, 1128473, Note_on_c, 0, 55, 35
1, 1128489, Note_on_c, 0, 49, 0
1, 1128512, Note_on_c, 0, 55, 0
1, 1128688, Note_on_c, 0, 31, 84
1, 1128693, Control_c, 0, 64, 89
1, 1128712, Control_c, 0, 64, 47
1, 1128730, Note_on_c, 0, 33, 47
1, 1128730, Control_c, 0, 64, 0
1, 1128731, Note_on_c, 0, 33, 0
1, 1128751, Control_c, 0, 64, 13
1, 1128769, Control_c, 0, 64, 49
1, 1128783, Note_on_c, 0, 67, 0
1, 1128787, Control_c, 0, 64, 75
1, 1128792, Note_on_c, 0, 31, 0
1, 1128807, Control_c, 0, 64, 98
1, 1128825, Control_c, 0, 64, 127
1, 1128831, Note_on_c, 0, 70, 0
1, 1128849, Note_on_c, 0, 73, 0
1, 1128901, Note_on_c, 0, 79, 0
1, 1128950, Note_on_c, 0, 74, 65
1, 1128953, Note_on_c, 0, 71, 62
1, 1128959, Note_on_c, 0, 66, 58
1, 1128970, Note_on_c, 0, 50, 51
1, 1128973, Note_on_c, 0, 53, 60
1, 1128997, Note_on_c, 0, 43, 49
1, 1129012, Note_on_c, 0, 50, 0
1, 1129014, Note_on_c, 0, 53, 0
1, 1129014, Poly_aftertouch_c, 0, 53, 0
1, 1129017, Note_on_c, 0, 66, 0
1, 1129034, Note_on_c, 0, 43, 0
1, 1129039, Note_on_c, 0, 71, 0
1, 1129107, Note_on_c, 0, 74, 0
1, 1129178, Note_on_c, 0, 50, 11
1, 1129237, Note_on_c, 0, 59, 71
1, 1129252, Note_on_c, 0, 53, 40
1, 1129276, Note_on_c, 0, 78, 89
1, 1129282, Note_on_c, 0, 59, 0
1, 1129308, Note_on_c, 0, 71, 61
1, 1129312, Note_on_c, 0, 74, 55
1, 1129368, Note_on_c, 0, 74, 0
1, 1129415, Note_on_c, 0, 53, 0
1, 1129415, Poly_aftertouch_c, 0, 53, 0
1, 1129418, Note_on_c, 0, 71, 0
1, 1129491, Note_on_c, 0, 43, 71
1, 1129516, Note_on_c, 0, 66, 69
1, 1129516, Note_on_c, 0, 74, 74
1, 1129520, Note_on_c, 0, 71, 63
1, 1129524, Note_on_c, 0, 50, 0
1, 1129526, Note_on_c, 0, 43, 0
1, 1129541, Note_on_c, 0, 53, 18
1, 1129541, Poly_aftertouch_c, 0, 53, 0
1, 1129542, Note_on_c, 0, 53, 0
1, 1129560, Note_on_c, 0, 66, 0
1, 1129619, Note_on_c, 0, 71, 0
1, 1129641, Note_on_c, 0, 74, 0
1, 1129700, Note_on_c, 0, 65, 72
1, 1129715, Note_on_c, 0, 59, 62
1, 1129716, Note_on_c, 0, 66, 77
1, 1129720, Note_on_c, 0, 74, 74
1, 1129743, Note_on_c, 0, 61, 34
1, 1129743, Note_on_c, 0, 71, 64
1, 1129776, Note_on_c, 0, 65, 0
1, 1129776, Poly_aftertouch_c, 0, 65, 0
1, 1129781, Note_on_c, 0, 78, 0
1, 1129783, Note_on_c, 0, 66, 0
1, 1129792, Note_on_c, 0, 61, 0
1, 1129834, Note_on_c, 0, 71, 0
1, 1129874, Note_on_c, 0, 55, 79
1, 1129900, Note_on_c, 0, 59, 0
1, 1129912, Note_on_c, 0, 55, 0
1, 1129977, Note_on_c, 0, 79, 97
1, 1129996, Note_on_c, 0, 71, 65
1, 1129997, Note_on_c, 0, 67, 73
1, 1130132, Note_on_c, 0, 71, 0
1, 1130181, Note_on_c, 0, 79, 0
1, 1130204, Note_on_c, 0, 67, 0
1, 1130205, Poly_aftertouch_c, 0, 67, 0
1, 1130213, Note_on_c, 0, 40, 80
1, 1130298, Note_on_c, 0, 79, 97
1, 1130301, Control_c, 0, 64, 113
1, 1130310, Note_on_c, 0, 67, 74
1, 1130313, Note_on_c, 0, 70, 68
1, 1130320, Control_c, 0, 64, 68
1, 1130340, Control_c, 0, 64, 20
1, 1130359, Control_c, 0, 64, 33
1, 1130377, Control_c, 0, 64, 63
1, 1130396, Control_c, 0, 64, 88
1, 1130416, Control_c, 0, 64, 113
1, 1130433, Control_c, 0, 64, 127
1, 1130511, Note_on_c, 0, 79, 0
1, 1130529, Note_on_c, 0, 67, 0
1, 1130604, Note_on_c, 0, 70, 0
1, 1130628, Note_on_c, 0, 40, 0
1, 1130628, Note_on_c, 0, 46, 61
1, 1130632, Note_on_c, 0, 52, 61
1, 1130649, Note_on_c, 0, 74, 0
1, 1130650, Poly_aftertouch_c, 0, 74, 0
1, 1130696, Note_on_c, 0, 46, 0
1, 1130737, Note_on_c, 0, 52, 0
1, 1130741, Note_on_c, 0, 78, 90
1, 1130764, Note_on_c, 0, 70, 53
1, 1130766, Note_on_c, 0, 66, 56
1, 1130769, Note_on_c, 0, 74, 58
1, 1130854, Note_on_c, 0, 70, 0
1, 1130854, Note_on_c, 0, 70, 35
1, 1130910, Note_on_c, 0, 66, 0
1, 1130931, Note_on_c, 0, 78, 0
1, 1130936, Note_on_c, 0, 70, 0
1, 1130983, Note_on_c, 0, 74, 0
1, 1130984, Poly_aftertouch_c, 0, 74, 0
1, 1131013, Control_c, 0, 64, 101
1, 1131016, Note_on_c, 0, 62, 69
1, 1131031, Control_c, 0, 64, 71
1, 1131035, Note_on_c, 0, 78, 76
1, 1131037, Note_on_c, 0, 53, 52
1, 1131050, Control_c, 0, 64, 65
1, 1131061, Note_on_c, 0, 66, 50
1, 1131069, Control_c, 0, 64, 71
1, 1131071, Note_on_c, 0, 74, 37
1, 1131076, Note_on_c, 0, 70, 45
1, 1131089, Control_c, 0, 64, 83
1, 1131099, Note_on_c, 0, 62, 0
1, 1131106, Control_c, 0, 64, 101
1, 1131124, Control_c, 0, 64, 125
1, 1131150, Note_on_c, 0, 66, 0
1, 1131182, Note_on_c, 0, 70, 0
1, 1131185, Note_on_c, 0, 78, 0
1, 1131222, Note_on_c, 0, 53, 0
1, 1131222, Poly_aftertouch_c, 0, 53, 0
1, 1131274, Control_c, 0, 64, 116
1, 1131288, Note_on_c, 0, 54, 67
1, 1131291, Note_on_c, 0, 77, 79
1, 1131293, Control_c, 0, 64, 84
1, 1131305, Note_on_c, 0, 46, 57
1, 1131311, Note_on_c, 0, 65, 49
1, 1131312, Control_c, 0, 64, 70
1, 1131323, Note_on_c, 0, 70, 52
1, 1131331, Control_c, 0, 64, 76
1, 1131334, Note_on_c, 0, 74, 0
1, 1131334, Note_on_c, 0, 74, 28
1, 1131350, Control_c, 0, 64, 84
1, 1131356, Note_on_c, 0, 46, 0
1, 1131369, Control_c, 0, 64, 98
1, 1131386, Control_c, 0, 64, 120
1, 1131390, Note_on_c, 0, 65, 0
1, 1131390, Poly_aftertouch_c, 0, 65, 0
1, 1131405, Note_on_c, 0, 54, 0
1, 1131405, Control_c, 0, 64, 127
1, 1131420, Note_on_c, 0, 70, 0
1, 1131452, Note_on_c, 0, 77, 0
1, 1131452, Poly_aftertouch_c, 0, 77, 0
1, 1131466, Note_on_c, 0, 74, 0
1, 1131551, Note_on_c, 0, 62, 63
1, 1131554, Control_c, 0, 64, 102
1, 1131557, Note_on_c, 0, 77, 72
1, 1131566, Note_on_c, 0, 65, 48
1, 1131571, Note_on_c, 0, 55, 57
1, 1131573, Control_c, 0, 64, 76
1, 1131579, Note_on_c, 0, 74, 55
1, 1131582, Note_on_c, 0, 70, 50
1, 1131590, Control_c, 0, 64, 72
1, 1131612, Control_c, 0, 64, 77
1, 1131614, Note_on_c, 0, 62, 0
1, 1131625, Note_on_c, 0, 65, 0
1, 1131625, Poly_aftertouch_c, 0, 65, 0
1, 1131629, Control_c, 0, 64, 86
1, 1131635, Note_on_c, 0, 70, 0
1, 1131648, Control_c, 0, 64, 104
1, 1131667, Control_c, 0, 64, 127
1, 1131698, Note_on_c, 0, 77, 0
1, 1131698, Poly_aftertouch_c, 0, 77, 0
1, 1131714, Note_on_c, 0, 55, 0
1, 1131751, Note_on_c, 0, 74, 0
1, 1131865, Note_on_c, 0, 76, 67
1, 1131874, Note_on_c, 0, 70, 59
1, 1131883, Note_on_c, 0, 64, 53
1, 1131888, Note_on_c, 0, 46, 65
1, 1131893, Note_on_c, 0, 56, 57
1, 1131933, Note_on_c, 0, 56, 0
1, 1131948, Note_on_c, 0, 46, 0
1, 1131964, Note_on_c, 0, 64, 0
1, 1132103, Note_on_c, 0, 70, 0
1, 1132247, Control_c, 0, 64, 111
1, 1132259, Note_on_c, 0, 45, 82
1, 1132265, Control_c, 0, 64, 76
1, 1132267, Note_on_c, 0, 33, 75
1, 1132285, Control_c, 0, 64, 41
1, 1132303, Control_c, 0, 64, 37
1, 1132321, Control_c, 0, 64, 55
1, 1132334, Note_on_c, 0, 33, 0
1, 1132340, Control_c, 0, 64, 77
1, 1132359, Control_c, 0, 64, 97
1, 1132369, Note_on_c, 0, 45, 0
1, 1132377, Control_c, 0, 64, 127
1, 1132711, Note_on_c, 0, 73, 54
1, 1132725, Note_on_c, 0, 69, 35
1, 1132726, Note_on_c, 0, 52, 41
1, 1132727, Note_on_c, 0, 61, 47
1, 1132748, Note_on_c, 0, 55, 40
1, 1132754, Note_on_c, 0, 76, 0
1, 1132769, Note_on_c, 0, 73, 0
1, 1132771, Note_on_c, 0, 69, 0
1, 1132779, Note_on_c, 0, 52, 0
1, 1132793, Note_on_c, 0, 61, 0
1, 1132816, Note_on_c, 0, 55, 0
1, 1132992, Note_on_c, 0, 52, 53
1, 1132994, Note_on_c, 0, 61, 57
1, 1132996, Note_on_c, 0, 55, 45
1, 1133039, Note_on_c, 0, 76, 78
1, 1133068, Note_on_c, 0, 69, 43
1, 1133081, Note_on_c, 0, 73, 40
1, 1133121, Note_on_c, 0, 69, 0
1, 1133154, Note_on_c, 0, 61, 0
1, 1133157, Note_on_c, 0, 73, 0
1, 1133169, Note_on_c, 0, 55, 0
1, 1133182, Note_on_c, 0, 52, 0
1, 1133341, Note_on_c, 0, 62, 53
1, 1133345, Note_on_c, 0, 74, 66
1, 1133355, Note_on_c, 0, 57, 49
1, 1133360, Note_on_c, 0, 53, 44
1, 1133360, Note_on_c, 0, 69, 47
1, 1133381, Note_on_c, 0, 76, 0
1, 1133396, Note_on_c, 0, 62, 0
1, 1133410, Note_on_c, 0, 69, 0
1, 1133421, Note_on_c, 0, 57, 0
1, 1133421, Poly_aftertouch_c, 0, 57, 0
1, 1133423, Note_on_c, 0, 53, 0
1, 1133423, Poly_aftertouch_c, 0, 53, 0
1, 1133442, Note_on_c, 0, 74, 0
1, 1133556, Note_on_c, 0, 81, 90
1, 1133567, Note_on_c, 0, 53, 60
1, 1133569, Note_on_c, 0, 62, 61
1, 1133571, Note_on_c, 0, 69, 65
1, 1133578, Note_on_c, 0, 57, 57
1, 1133580, Note_on_c, 0, 74, 66
1, 1133608, Note_on_c, 0, 69, 0
1, 1133610, Note_on_c, 0, 53, 0
1, 1133610, Poly_aftertouch_c, 0, 53, 0
1, 1133618, Note_on_c, 0, 74, 0
1, 1133624, Note_on_c, 0, 62, 0
1, 1133626, Note_on_c, 0, 57, 0
1, 1133626, Poly_aftertouch_c, 0, 57, 0
1, 1133807, Note_on_c, 0, 70, 69
1, 1133810, Note_on_c, 0, 63, 72
1, 1133810, Note_on_c, 0, 75, 74
1, 1133818, Note_on_c, 0, 81, 0
1, 1133818, Poly_aftertouch_c, 0, 81, 0
1, 1133827, Note_on_c, 0, 54, 53
1, 1133830, Note_on_c, 0, 60, 54
1, 1133847, Note_on_c, 0, 70, 0
1, 1133871, Note_on_c, 0, 63, 0
1, 1133871, Poly_aftertouch_c, 0, 63, 0
1, 1133882, Note_on_c, 0, 54, 0
1, 1133888, Note_on_c, 0, 60, 0
1, 1133906, Note_on_c, 0, 75, 0
1, 1134074, Note_on_c, 0, 82, 95
1, 1134079, Note_on_c, 0, 63, 72
1, 1134084, Note_on_c, 0, 60, 61
1, 1134084, Note_on_c, 0, 75, 73
1, 1134087, Note_on_c, 0, 70, 73
1, 1134096, Note_on_c, 0, 54, 58
1, 1134118, Control_c, 0, 64, 97
1, 1134127, Note_on_c, 0, 70, 0
1, 1134134, Control_c, 0, 64, 72
1, 1134154, Control_c, 0, 64, 74
1, 1134173, Control_c, 0, 64, 83
1, 1134192, Control_c, 0, 64, 100
1, 1134210, Control_c, 0, 64, 123
1, 1134222, Note_on_c, 0, 60, 0
1, 1134224, Note_on_c, 0, 54, 0
1, 1134228, Control_c, 0, 64, 127
1, 1134242, Note_on_c, 0, 63, 0
1, 1134242, Poly_aftertouch_c, 0, 63, 0
1, 1134256, Note_on_c, 0, 75, 0
1, 1134341, Note_on_c, 0, 76, 80
1, 1134342, Note_on_c, 0, 70, 81
1, 1134359, Note_on_c, 0, 64, 68
1, 1134363, Note_on_c, 0, 61, 64
1, 1134365, Note_on_c, 0, 55, 60
1, 1134413, Note_on_c, 0, 70, 0
1, 1134435, Note_on_c, 0, 64, 0
1, 1134435, Note_on_c, 0, 55, 0
1, 1134470, Note_on_c, 0, 61, 0
1, 1134482, Note_on_c, 0, 76, 0
1, 1134550, Note_on_c, 0, 76, 72
1, 1134551, Note_on_c, 0, 70, 79
1, 1134561, Note_on_c, 0, 55, 71
1, 1134565, Note_on_c, 0, 61, 63
1, 1134565, Note_on_c, 0, 64, 77
1, 1134630, Note_on_c, 0, 70, 0
1, 1134639, Note_on_c, 0, 55, 0
1, 1134652, Note_on_c, 0, 64, 0
1, 1134684, Note_on_c, 0, 82, 0
1, 1134700, Note_on_c, 0, 61, 0
1, 1134770, Note_on_c, 0, 77, 89
1, 1134773, Note_on_c, 0, 71, 82
1, 1134773, Note_on_c, 0, 65, 81
1, 1134780, Note_on_c, 0, 62, 71
1, 1134786, Note_on_c, 0, 56, 73
1, 1134791, Note_on_c, 0, 76, 0
1, 1134824, Note_on_c, 0, 71, 0
1, 1134836, Note_on_c, 0, 77, 0
1, 1134836, Poly_aftertouch_c, 0, 77, 0
1, 1134854, Note_on_c, 0, 65, 0
1, 1134854, Poly_aftertouch_c, 0, 65, 0
1, 1134893, Note_on_c, 0, 56, 0
1, 1134997, Note_on_c, 0, 65, 79
1, 1135015, Note_on_c, 0, 56, 73
1, 1135018, Note_on_c, 0, 83, 99
1, 1135024, Note_on_c, 0, 62, 0
1, 1135024, Note_on_c, 0, 62, 34
1, 1135030, Note_on_c, 0, 71, 88
1, 1135031, Note_on_c, 0, 77, 81
1, 1135084, Note_on_c, 0, 71, 0
1, 1135084, Note_on_c, 0, 65, 0
1, 1135084, Poly_aftertouch_c, 0, 65, 0
1, 1135113, Note_on_c, 0, 56, 0
1, 1135151, Note_on_c, 0, 62, 0
1, 1135170, Note_on_c, 0, 77, 0
1, 1135170, Poly_aftertouch_c, 0, 77, 0
1, 1135263, Note_on_c, 0, 66, 86
1, 1135267, Note_on_c, 0, 57, 81
1, 1135268, Note_on_c, 0, 72, 80
1, 1135271, Note_on_c, 0, 78, 90
1, 1135289, Note_on_c, 0, 62, 69
1, 1135290, Note_on_c, 0, 66, 0
1, 1135290, Note_on_c, 0, 83, 0
1, 1135313, Note_on_c, 0, 72, 0
1, 1135317, Note_on_c, 0, 62, 0
1, 1135321, Note_on_c, 0, 57, 0
1, 1135321, Poly_aftertouch_c, 0, 57, 0
1, 1135347, Note_on_c, 0, 78, 0
1, 1135467, Poly_aftertouch_c, 0, 62, 0
1, 1135557, Control_c, 0, 64, 123
1, 1135576, Control_c, 0, 64, 75
1, 1135590, Note_on_c, 0, 84, 97
1, 1135594, Control_c, 0, 64, 45
1, 1135596, Note_on_c, 0, 72, 97
1, 1135600, Note_on_c, 0, 50, 95
1, 1135602, Note_on_c, 0, 38, 92
1, 1135608, Note_on_c, 0, 78, 76
1, 1135611, Control_c, 0, 64, 79
1, 1135630, Control_c, 0, 64, 110
1, 1135632, Note_on_c, 0, 82, 58
1, 1135650, Control_c, 0, 64, 127
1, 1135656, Note_on_c, 0, 38, 0
1, 1135661, Note_on_c, 0, 50, 0
1, 1135670, Note_on_c, 0, 82, 0
1, 1135734, Note_on_c, 0, 78, 0
1, 1135772, Note_on_c, 0, 72, 0
1, 1135939, Poly_aftertouch_c, 0, 61, 0
1, 1135946, Note_on_c, 0, 72, 91
1, 1135950, Note_on_c, 0, 83, 86
1, 1135950, Note_on_c, 0, 78, 86
1, 1135951, Note_on_c, 0, 71, 89
1, 1135953, Note_on_c, 0, 66, 81
1, 1135962, Note_on_c, 0, 60, 73
1, 1135964, Note_on_c, 0, 59, 74
1, 1135985, Note_on_c, 0, 84, 0
1, 1135997, Note_on_c, 0, 72, 0
1, 1135999, Note_on_c, 0, 59, 0
1, 1136009, Note_on_c, 0, 71, 0
1, 1136035, Note_on_c, 0, 78, 0
1, 1136041, Note_on_c, 0, 60, 0
1, 1136049, Note_on_c, 0, 66, 0
1, 1136053, Note_on_c, 0, 83, 0
1, 1136253, Note_on_c, 0, 71, 95
1, 1136254, Note_on_c, 0, 85, 101
1, 1136254, Note_on_c, 0, 73, 101
1, 1136258, Note_on_c, 0, 59, 80
1, 1136259, Note_on_c, 0, 60, 67
1, 1136260, Note_on_c, 0, 66, 80
1, 1136268, Note_on_c, 0, 78, 70
1, 1136286, Note_on_c, 0, 59, 0
1, 1136292, Note_on_c, 0, 82, 51
1, 1136303, Note_on_c, 0, 71, 0
1, 1136321, Note_on_c, 0, 66, 0
1, 1136322, Note_on_c, 0, 82, 0
1, 1136323, Note_on_c, 0, 60, 0
1, 1136390, Note_on_c, 0, 78, 0
1, 1136469, Note_on_c, 0, 73, 0
1, 1136572, Note_on_c, 0, 73, 99
1, 1136576, Note_on_c, 0, 70, 98
1, 1136576, Note_on_c, 0, 78, 89
1, 1136576, Note_on_c, 0, 82, 95
1, 1136580, Note_on_c, 0, 66, 89
1, 1136585, Note_on_c, 0, 58, 80
1, 1136592, Note_on_c, 0, 61, 77
1, 1136617, Note_on_c, 0, 58, 0
1, 1136617, Poly_aftertouch_c, 0, 58, 0
1, 1136622, Note_on_c, 0, 85, 0
1, 1136631, Note_on_c, 0, 70, 0
1, 1136635, Note_on_c, 0, 73, 0
1, 1136646, Note_on_c, 0, 66, 0
1, 1136661, Note_on_c, 0, 61, 0
1, 1136671, Note_on_c, 0, 78, 0
1, 1136697, Note_on_c, 0, 82, 0
1, 1136844, Note_on_c, 0, 58, 6
1, 1136926, Note_on_c, 0, 58, 0
1, 1136926, Poly_aftertouch_c, 0, 58, 0
1, 1136927, Poly_aftertouch_c, 0, 58, 0
1, 1136956, Note_on_c, 0, 58, 71
1, 1136956, Note_on_c, 0, 70, 101
1, 1136959, Note_on_c, 0, 74, 103
1, 1136960, Note_on_c, 0, 78, 94
1, 1136960, Note_on_c, 0, 82, 89
1, 1136962, Note_on_c, 0, 86, 98
1, 1136963, Note_on_c, 0, 66, 95
1, 1136968, Note_on_c, 0, 61, 81
1, 1137015, Note_on_c, 0, 70, 0
1, 1137018, Note_on_c, 0, 58, 0
1, 1137030, Note_on_c, 0, 66, 0
1, 1137041, Note_on_c, 0, 61, 0
1, 1137064, Note_on_c, 0, 74, 0
1, 1137108, Note_on_c, 0, 78, 0
1, 1137119, Note_on_c, 0, 82, 0
1, 1137395, Note_on_c, 0, 74, 102
1, 1137395, Note_on_c, 0, 78, 96
1, 1137397, Note_on_c, 0, 81, 95
1, 1137397, Note_on_c, 0, 66, 94
1, 1137398, Note_on_c, 0, 69, 99
1, 1137399, Note_on_c, 0, 57, 88
1, 1137409, Note_on_c, 0, 62, 78
1, 1137436, Note_on_c, 0, 57, 0
1, 1137436, Note_on_c, 0, 69, 0
1, 1137436, Poly_aftertouch_c, 0, 57, 0
1, 1137454, Note_on_c, 0, 86, 0
1, 1137454, Note_on_c, 0, 66, 0
1, 1137454, Poly_aftertouch_c, 0, 86, 0
1, 1137457, Note_on_c, 0, 74, 0
1, 1137462, Note_on_c, 0, 62, 0
1, 1137477, Note_on_c, 0, 81, 0
1, 1137477, Poly_aftertouch_c, 0, 81, 0
1, 1137483, Note_on_c, 0, 78, 0
1, 1138062, Control_c, 0, 64, 121
1, 1138082, Control_c, 0, 64, 72
1, 1138099, Control_c, 0, 64, 0
1, 1138118, Control_c, 0, 64, 53
1, 1138125, Note_on_c, 0, 89, 97
1, 1138126, Note_on_c, 0, 77, 104
1, 1138126, Note_on_c, 0, 81, 91
1, 1138127, Note_on_c, 0, 84, 88
1, 1138128, Note_on_c, 0, 43, 105
1, 1138136, Note_on_c, 0, 31, 97
1, 1138137, Control_c, 0, 64, 99
1, 1138157, Control_c, 0, 64, 127
1, 1138173, Note_on_c, 0, 31, 0
1, 1138187, Note_on_c, 0, 43, 0
1, 1138454, Note_on_c, 0, 81, 0
1, 1138454, Poly_aftertouch_c, 0, 81, 0
1, 1138470, Note_on_c, 0, 89, 0
1, 1138470, Poly_aftertouch_c, 0, 89, 0
1, 1138492, Note_on_c, 0, 84, 0
1, 1138576, Note_on_c, 0, 77, 0
1, 1138576, Poly_aftertouch_c, 0, 77, 0
1, 1138613, Note_on_c, 0, 57, 63
1, 1138659, Note_on_c, 0, 60, 62
1, 1138720, Note_on_c, 0, 65, 70
1, 1138846, Note_on_c, 0, 69, 91
1, 1138875, Note_on_c, 0, 81, 84
1, 1138876, Note_on_c, 0, 77, 85
1, 1138876, Note_on_c, 0, 72, 86
1, 1139082, Note_on_c, 0, 72, 0
1, 1139086, Note_on_c, 0, 69, 0
1, 1139105, Note_on_c, 0, 57, 0
1, 1139105, Poly_aftertouch_c, 0, 57, 0
1, 1139110, Note_on_c, 0, 81, 0
1, 1139110, Poly_aftertouch_c, 0, 81, 0
1, 1139119, Note_on_c, 0, 77, 0
1, 1139119, Poly_aftertouch_c, 0, 77, 0
1, 1139133, Note_on_c, 0, 60, 0
1, 1139141, Note_on_c, 0, 65, 0
1, 1139141, Poly_aftertouch_c, 0, 65, 0
1, 1139208, Note_on_c, 0, 69, 97
1, 1139210, Note_on_c, 0, 72, 95
1, 1139212, Note_on_c, 0, 77, 90
1, 1139213, Note_on_c, 0, 81, 94
1, 1139214, Note_on_c, 0, 65, 69
1, 1139215, Note_on_c, 0, 57, 85
1, 1139224, Note_on_c, 0, 60, 62
1, 1139264, Note_on_c, 0, 57, 0
1, 1139264, Poly_aftertouch_c, 0, 57, 0
1, 1139323, Note_on_c, 0, 69, 0
1, 1139324, Poly_aftertouch_c, 0, 69, 0
1, 1139411, Note_on_c, 0, 72, 0
1, 1139415, Note_on_c, 0, 65, 0
1, 1139415, Poly_aftertouch_c, 0, 65, 0
1, 1139434, Note_on_c, 0, 77, 0
1, 1139434, Poly_aftertouch_c, 0, 77, 0
1, 1139442, Note_on_c, 0, 60, 0
1, 1139443, Poly_aftertouch_c, 0, 60, 0
1, 1139459, Note_on_c, 0, 81, 0
1, 1139459, Poly_aftertouch_c, 0, 81, 0
1, 1139558, Note_on_c, 0, 72, 95
1, 1139559, Note_on_c, 0, 80, 97
1, 1139561, Note_on_c, 0, 65, 80
1, 1139563, Note_on_c, 0, 77, 93
1, 1139564, Note_on_c, 0, 68, 101
1, 1139571, Note_on_c, 0, 60, 72
1, 1139576, Note_on_c, 0, 56, 75
1, 1139604, Note_on_c, 0, 56, 0
1, 1139610, Note_on_c, 0, 72, 0
1, 1139635, Note_on_c, 0, 68, 0
1, 1139635, Poly_aftertouch_c, 0, 68, 0
1, 1139680, Note_on_c, 0, 77, 0
1, 1139680, Poly_aftertouch_c, 0, 77, 0
1, 1139691, Note_on_c, 0, 65, 0
1, 1139691, Poly_aftertouch_c, 0, 65, 0
1, 1139694, Note_on_c, 0, 80, 0
1, 1139828, Note_on_c, 0, 56, 64
1, 1139900, Note_on_c, 0, 65, 63
1, 1140015, Note_on_c, 0, 68, 98
1, 1140028, Note_on_c, 0, 56, 0
1, 1140030, Note_on_c, 0, 80, 80
1, 1140035, Note_on_c, 0, 87, 98
1, 1140037, Note_on_c, 0, 77, 87
1, 1140039, Note_on_c, 0, 75, 101
1, 1140071, Note_on_c, 0, 68, 0
1, 1140071, Poly_aftertouch_c, 0, 68, 0
1, 1140096, Note_on_c, 0, 78, 14
1, 1140097, Note_on_c, 0, 78, 0
1, 1140110, Note_on_c, 0, 60, 0
1, 1140114, Poly_aftertouch_c, 0, 61, 0
1, 1140143, Note_on_c, 0, 65, 0
1, 1140143, Poly_aftertouch_c, 0, 65, 0
1, 1140144, Note_on_c, 0, 75, 0
1, 1140163, Note_on_c, 0, 87, 0
1, 1140250, Note_on_c, 0, 80, 0
1, 1140464, Poly_aftertouch_c, 0, 77, 20
1, 1140500, Note_on_c, 0, 77, 0
1, 1140500, Poly_aftertouch_c, 0, 77, 0
1, 1140589, Note_on_c, 0, 65, 88
1, 1140590, Note_on_c, 0, 77, 74
1, 1140593, Note_on_c, 0, 67, 98
1, 1140595, Note_on_c, 0, 71, 97
1, 1140598, Note_on_c, 0, 79, 93
1, 1140603, Note_on_c, 0, 55, 75
1, 1140604, Note_on_c, 0, 59, 80
1, 1140627, Note_on_c, 0, 55, 0
1, 1140636, Note_on_c, 0, 67, 0
1, 1140645, Note_on_c, 0, 65, 0
1, 1140645, Poly_aftertouch_c, 0, 65, 0
1, 1140648, Note_on_c, 0, 71, 0
1, 1140658, Note_on_c, 0, 59, 0
1, 1140679, Note_on_c, 0, 77, 0
1, 1140679, Poly_aftertouch_c, 0, 77, 0
1, 1140681, Note_on_c, 0, 79, 0
1, 1141538, Note_on_c, 0, 48, 84
1, 1141548, Note_on_c, 0, 36, 72
1, 1141609, Note_on_c, 0, 86, 97
1, 1141615, Control_c, 0, 64, 119
1, 1141621, Note_on_c, 0, 74, 75
1, 1141635, Control_c, 0, 64, 76
1, 1141652, Control_c, 0, 64, 32
1, 1141670, Control_c, 0, 64, 36
1, 1141690, Control_c, 0, 64, 65
1, 1141694, Note_on_c, 0, 36, 0
1, 1141709, Control_c, 0, 64, 95
1, 1141728, Control_c, 0, 64, 127
1, 1141738, Note_on_c, 0, 86, 0
1, 1141738, Poly_aftertouch_c, 0, 86, 0
1, 1141743, Note_on_c, 0, 48, 0
1, 1141765, Note_on_c, 0, 74, 0
1, 1142039, Note_on_c, 0, 77, 72
1, 1142043, Note_on_c, 0, 65, 56
1, 1142045, Note_on_c, 0, 63, 58
1, 1142068, Note_on_c, 0, 56, 49
1, 1142073, Note_on_c, 0, 65, 0
1, 1142073, Poly_aftertouch_c, 0, 65, 0
1, 1142079, Note_on_c, 0, 58, 37
1, 1142082, Note_on_c, 0, 77, 0
1, 1142082, Poly_aftertouch_c, 0, 77, 0
1, 1142089, Note_on_c, 0, 63, 0
1, 1142089, Poly_aftertouch_c, 0, 63, 0
1, 1142115, Note_on_c, 0, 58, 0
1, 1142160, Note_on_c, 0, 56, 0
1, 1142211, Note_on_c, 0, 84, 95
1, 1142221, Note_on_c, 0, 72, 81
1, 1142226, Note_on_c, 0, 60, 63
1, 1142247, Note_on_c, 0, 84, 0
1, 1142249, Note_on_c, 0, 72, 0
1, 1142528, Note_on_c, 0, 78, 64
1, 1142543, Note_on_c, 0, 66, 49
1, 1142551, Note_on_c, 0, 54, 49
1, 1142551, Note_on_c, 0, 70, 53
1, 1142562, Note_on_c, 0, 63, 53
1, 1142572, Note_on_c, 0, 75, 43
1, 1142582, Note_on_c, 0, 60, 0
1, 1142647, Note_on_c, 0, 54, 0
1, 1142647, Note_on_c, 0, 63, 0
1, 1142647, Poly_aftertouch_c, 0, 63, 0
1, 1142713, Note_on_c, 0, 66, 0
1, 1142741, Note_on_c, 0, 70, 0
1, 1142766, Note_on_c, 0, 78, 0
1, 1142788, Note_on_c, 0, 75, 0
1, 1142897, Note_on_c, 0, 53, 69
1, 1142899, Note_on_c, 0, 63, 63
1, 1142913, Note_on_c, 0, 80, 80
1, 1142921, Note_on_c, 0, 68, 58
1, 1142932, Note_on_c, 0, 53, 0
1, 1142932, Poly_aftertouch_c, 0, 53, 0
1, 1142935, Note_on_c, 0, 63, 0
1, 1142935, Poly_aftertouch_c, 0, 63, 0
1, 1142939, Note_on_c, 0, 80, 0
1, 1142948, Note_on_c, 0, 68, 0
1, 1142948, Poly_aftertouch_c, 0, 68, 0
1, 1143130, Control_c, 0, 64, 117
1, 1143149, Control_c, 0, 64, 79
1, 1143167, Control_c, 0, 64, 59
1, 1143174, Note_on_c, 0, 38, 74
1, 1143177, Note_on_c, 0, 50, 73
1, 1143179, Note_on_c, 0, 86, 99
1, 1143186, Note_on_c, 0, 74, 84
1, 1143186, Control_c, 0, 64, 73
1, 1143205, Control_c, 0, 64, 91
1, 1143211, Note_on_c, 0, 74, 0
1, 1143215, Note_on_c, 0, 38, 0
1, 1143217, Note_on_c, 0, 50, 0
1, 1143218, Note_on_c, 0, 86, 0
1, 1143218, Poly_aftertouch_c, 0, 86, 0
1, 1143225, Control_c, 0, 64, 115
1, 1143242, Control_c, 0, 64, 127
1, 1143426, Note_on_c, 0, 76, 78
1, 1143431, Note_on_c, 0, 55, 46
1, 1143438, Note_on_c, 0, 62, 60
1, 1143455, Note_on_c, 0, 76, 0
1, 1143478, Note_on_c, 0, 62, 0
1, 1143634, Note_on_c, 0, 82, 89
1, 1143641, Note_on_c, 0, 58, 76
1, 1143641, Note_on_c, 0, 70, 82
1, 1143662, Note_on_c, 0, 82, 0
1, 1143667, Note_on_c, 0, 70, 0
1, 1143696, Note_on_c, 0, 55, 0
1, 1143769, Note_on_c, 0, 58, 0
1, 1143941, Note_on_c, 0, 77, 67
1, 1143942, Note_on_c, 0, 62, 51
1, 1143951, Note_on_c, 0, 65, 56
1, 1143953, Note_on_c, 0, 70, 52
1, 1143953, Note_on_c, 0, 74, 53
1, 1143956, Note_on_c, 0, 53, 41
1, 1144122, Note_on_c, 0, 65, 0
1, 1144122, Note_on_c, 0, 77, 0
1, 1144122, Poly_aftertouch_c, 0, 65, 0
1, 1144122, Poly_aftertouch_c, 0, 77, 0
1, 1144155, Note_on_c, 0, 74, 0
1, 1144173, Note_on_c, 0, 53, 0
1, 1144173, Poly_aftertouch_c, 0, 53, 0
1, 1144181, Note_on_c, 0, 62, 0
1, 1144182, Note_on_c, 0, 70, 0
1, 1144292, Note_on_c, 0, 78, 81
1, 1144293, Note_on_c, 0, 66, 66
1, 1144298, Note_on_c, 0, 62, 68
1, 1144304, Note_on_c, 0, 52, 69
1, 1144316, Note_on_c, 0, 78, 0
1, 1144327, Note_on_c, 0, 66, 0
1, 1144333, Note_on_c, 0, 62, 0
1, 1144339, Note_on_c, 0, 52, 0
1, 1144458, Control_c, 0, 64, 119
1, 1144476, Control_c, 0, 64, 78
1, 1144495, Control_c, 0, 64, 59
1, 1144508, Note_on_c, 0, 86, 99
1, 1144513, Note_on_c, 0, 74, 87
1, 1144513, Control_c, 0, 64, 76
1, 1144514, Note_on_c, 0, 51, 85
1, 1144516, Note_on_c, 0, 39, 82
1, 1144532, Control_c, 0, 64, 101
1, 1144535, Note_on_c, 0, 74, 0
1, 1144543, Note_on_c, 0, 86, 0
1, 1144543, Poly_aftertouch_c, 0, 86, 0
1, 1144544, Note_on_c, 0, 51, 0
1, 1144548, Note_on_c, 0, 39, 0
1, 1144550, Control_c, 0, 64, 127
1, 1144714, Poly_aftertouch_c, 0, 39, 0
1, 1144740, Note_on_c, 0, 75, 79
1, 1144742, Note_on_c, 0, 63, 71
1, 1144743, Note_on_c, 0, 60, 70
1, 1144759, Note_on_c, 0, 54, 58
1, 1144766, Note_on_c, 0, 63, 0
1, 1144766, Poly_aftertouch_c, 0, 63, 0
1, 1144767, Note_on_c, 0, 75, 0
1, 1144778, Note_on_c, 0, 60, 0
1, 1144861, Note_on_c, 0, 54, 0
1, 1144912, Note_on_c, 0, 81, 97
1, 1144920, Note_on_c, 0, 69, 80
1, 1144922, Note_on_c, 0, 57, 74
1, 1144938, Note_on_c, 0, 81, 0
1, 1144938, Poly_aftertouch_c, 0, 81, 0
1, 1144942, Note_on_c, 0, 69, 0
1, 1145017, Note_on_c, 0, 57, 0
1, 1145017, Note_on_c, 0, 57, 29
1, 1145143, Note_on_c, 0, 57, 0
1, 1145143, Poly_aftertouch_c, 0, 57, 0
1, 1145175, Note_on_c, 0, 76, 58
1, 1145178, Note_on_c, 0, 60, 64
1, 1145182, Note_on_c, 0, 69, 38
1, 1145187, Note_on_c, 0, 53, 50
1, 1145218, Note_on_c, 0, 64, 39
1, 1145339, Note_on_c, 0, 64, 0
1, 1145351, Note_on_c, 0, 60, 0
1, 1145360, Note_on_c, 0, 76, 0
1, 1145385, Note_on_c, 0, 69, 0
1, 1145488, Poly_aftertouch_c, 0, 53, 20
1, 1145503, Note_on_c, 0, 53, 0
1, 1145503, Poly_aftertouch_c, 0, 53, 0
1, 1145512, Note_on_c, 0, 60, 62
1, 1145516, Note_on_c, 0, 77, 80
1, 1145519, Note_on_c, 0, 65, 62
1, 1145521, Note_on_c, 0, 51, 64
1, 1145541, Note_on_c, 0, 60, 0
1, 1145543, Note_on_c, 0, 77, 0
1, 1145543, Poly_aftertouch_c, 0, 77, 0
1, 1145546, Note_on_c, 0, 65, 0
1, 1145546, Poly_aftertouch_c, 0, 65, 0
1, 1145554, Note_on_c, 0, 51, 0
1, 1145673, Control_c, 0, 64, 113
1, 1145691, Control_c, 0, 64, 75
1, 1145709, Control_c, 0, 64, 61
1, 1145716, Note_on_c, 0, 86, 99
1, 1145720, Note_on_c, 0, 74, 91
1, 1145726, Note_on_c, 0, 52, 83
1, 1145727, Control_c, 0, 64, 77
1, 1145731, Note_on_c, 0, 40, 78
1, 1145742, Note_on_c, 0, 74, 0
1, 1145746, Control_c, 0, 64, 99
1, 1145751, Note_on_c, 0, 86, 0
1, 1145751, Poly_aftertouch_c, 0, 86, 0
1, 1145758, Note_on_c, 0, 52, 0
1, 1145765, Note_on_c, 0, 40, 0
1, 1145765, Control_c, 0, 64, 127
1, 1145940, Note_on_c, 0, 74, 80
1, 1145945, Note_on_c, 0, 62, 63
1, 1145947, Note_on_c, 0, 58, 62
1, 1145967, Note_on_c, 0, 62, 0
1, 1145968, Note_on_c, 0, 74, 0
1, 1145994, Note_on_c, 0, 50, 41
1, 1146002, Note_on_c, 0, 58, 0
1, 1146105, Note_on_c, 0, 79, 93
1, 1146110, Note_on_c, 0, 50, 0
1, 1146111, Note_on_c, 0, 67, 80
1, 1146116, Note_on_c, 0, 55, 71
1, 1146127, Note_on_c, 0, 79, 0
1, 1146139, Note_on_c, 0, 67, 0
1, 1146159, Note_on_c, 0, 55, 0
1, 1146316, Poly_aftertouch_c, 0, 55, 127
1, 1146363, Note_on_c, 0, 75, 73
1, 1146363, Poly_aftertouch_c, 0, 55, 0
1, 1146377, Note_on_c, 0, 63, 58
1, 1146382, Note_on_c, 0, 49, 62
1, 1146389, Note_on_c, 0, 58, 56
1, 1146395, Note_on_c, 0, 70, 53
1, 1146420, Control_c, 0, 64, 105
1, 1146420, Control_c, 0, 67, 8
1, 1146439, Control_c, 0, 64, 99
1, 1146458, Control_c, 0, 64, 114
1, 1146477, Control_c, 0, 64, 127
1, 1146495, Note_on_c, 0, 49, 0
1, 1146555, Note_on_c, 0, 58, 0
1, 1146572, Note_on_c, 0, 70, 0
1, 1146576, Note_on_c, 0, 63, 0
1, 1146576, Poly_aftertouch_c, 0, 63, 0
1, 1146594, Note_on_c, 0, 75, 0
1, 1146713, Note_on_c, 0, 58, 59
1, 1146724, Note_on_c, 0, 48, 58
1, 1146729, Note_on_c, 0, 76, 65
1, 1146747, Note_on_c, 0, 58, 0
1, 1146755, Note_on_c, 0, 76, 0
1, 1146757, Note_on_c, 0, 70, 18
1, 1146762, Note_on_c, 0, 48, 0
1, 1146810, Poly_aftertouch_c, 0, 64, 127
1, 1146816, Note_on_c, 0, 70, 0
1, 1146841, Poly_aftertouch_c, 0, 64, 0
1, 1146983, Control_c, 0, 64, 106
1, 1147000, Control_c, 0, 64, 88
1, 1147011, Note_on_c, 0, 29, 63
1, 1147011, Note_on_c, 0, 86, 79
1, 1147021, Note_on_c, 0, 41, 61
1, 1147021, Note_on_c, 0, 74, 67
1, 1147037, Control_c, 0, 64, 102
1, 1147042, Note_on_c, 0, 86, 0
1, 1147042, Poly_aftertouch_c, 0, 86, 0
1, 1147047, Note_on_c, 0, 74, 0
1, 1147052, Note_on_c, 0, 29, 0
1, 1147055, Note_on_c, 0, 41, 0
1, 1147055, Control_c, 0, 64, 117
1, 1147075, Control_c, 0, 64, 127
1, 1147155, Poly_aftertouch_c, 0, 31, 0
1, 1147217, Note_on_c, 0, 74, 66
1, 1147218, Note_on_c, 0, 50, 65
1, 1147223, Note_on_c, 0, 70, 64
1, 1147249, Note_on_c, 0, 70, 0
1, 1147252, Note_on_c, 0, 74, 0
1, 1147261, Note_on_c, 0, 50, 0
1, 1147355, Control_c, 0, 64, 101
1, 1147375, Control_c, 0, 64, 61
1, 1147392, Control_c, 0, 64, 31
1, 1147394, Note_on_c, 0, 78, 81
1, 1147400, Note_on_c, 0, 54, 64
1, 1147402, Note_on_c, 0, 42, 60
1, 1147405, Note_on_c, 0, 66, 64
1, 1147411, Control_c, 0, 64, 44
1, 1147430, Control_c, 0, 64, 67
1, 1147444, Note_on_c, 0, 42, 0
1, 1147448, Note_on_c, 0, 54, 0
1, 1147448, Control_c, 0, 64, 90
1, 1147468, Control_c, 0, 64, 118
1, 1147486, Control_c, 0, 64, 127
1, 1147606, Note_on_c, 0, 66, 0
1, 1147607, Poly_aftertouch_c, 0, 66, 0
1, 1147616, Note_on_c, 0, 74, 58
1, 1147621, Note_on_c, 0, 62, 53
1, 1147623, Note_on_c, 0, 70, 51
1, 1147625, Note_on_c, 0, 50, 49
1, 1147629, Note_on_c, 0, 58, 54
1, 1147724, Note_on_c, 0, 50, 0
1, 1147772, Note_on_c, 0, 74, 0
1, 1147774, Note_on_c, 0, 62, 0
1, 1147800, Note_on_c, 0, 58, 0
1, 1147823, Note_on_c, 0, 70, 0
1, 1147925, Note_on_c, 0, 74, 63
1, 1147928, Note_on_c, 0, 78, 0
1, 1147937, Note_on_c, 0, 70, 58
1, 1147939, Note_on_c, 0, 62, 46
1, 1147939, Note_on_c, 0, 58, 67
1, 1147954, Note_on_c, 0, 50, 57
1, 1147958, Note_on_c, 0, 74, 0
1, 1147964, Note_on_c, 0, 70, 0
1, 1147977, Note_on_c, 0, 58, 0
1, 1147977, Note_on_c, 0, 62, 0
1, 1147985, Note_on_c, 0, 50, 0
1, 1148066, Control_c, 0, 64, 103
1, 1148086, Control_c, 0, 64, 78
1, 1148104, Control_c, 0, 64, 80
1, 1148116, Note_on_c, 0, 86, 95
1, 1148121, Control_c, 0, 64, 94
1, 1148125, Note_on_c, 0, 74, 75
1, 1148129, Note_on_c, 0, 29, 76
1, 1148136, Note_on_c, 0, 43, 67
1, 1148141, Note_on_c, 0, 86, 0
1, 1148141, Poly_aftertouch_c, 0, 86, 0
1, 1148141, Control_c, 0, 64, 119
1, 1148143, Note_on_c, 0, 41, 58
1, 1148146, Note_on_c, 0, 74, 0
1, 1148150, Note_on_c, 0, 31, 48
1, 1148159, Control_c, 0, 64, 127
1, 1148162, Note_on_c, 0, 29, 0
1, 1148168, Note_on_c, 0, 43, 0
1, 1148176, Note_on_c, 0, 41, 0
1, 1148197, Note_on_c, 0, 31, 0
1, 1148301, Note_on_c, 0, 74, 57
1, 1148301, Note_on_c, 0, 50, 80
1, 1148313, Note_on_c, 0, 70, 75
1, 1148332, Note_on_c, 0, 50, 0
1, 1148340, Note_on_c, 0, 70, 0
1, 1148349, Note_on_c, 0, 74, 0
1, 1148458, Control_c, 0, 64, 109
1, 1148477, Control_c, 0, 64, 70
1, 1148478, Note_on_c, 0, 77, 97
1, 1148478, Note_on_c, 0, 55, 83
1, 1148482, Note_on_c, 0, 65, 85
1, 1148484, Note_on_c, 0, 43, 78
1, 1148498, Control_c, 0, 64, 57
1, 1148512, Note_on_c, 0, 55, 0
1, 1148512, Control_c, 0, 64, 69
1, 1148516, Note_on_c, 0, 43, 0
1, 1148534, Control_c, 0, 64, 86
1, 1148554, Control_c, 0, 64, 110
1, 1148570, Control_c, 0, 64, 127
1, 1148684, Note_on_c, 0, 62, 73
1, 1148685, Note_on_c, 0, 70, 72
1, 1148686, Note_on_c, 0, 74, 70
1, 1148690, Note_on_c, 0, 58, 68
1, 1148695, Note_on_c, 0, 50, 64
1, 1148712, Note_on_c, 0, 65, 0
1, 1148712, Poly_aftertouch_c, 0, 65, 0
1, 1148832, Note_on_c, 0, 50, 0
1, 1148857, Note_on_c, 0, 62, 0
1, 1148864, Note_on_c, 0, 70, 0
1, 1148869, Note_on_c, 0, 74, 0
1, 1148884, Note_on_c, 0, 58, 0
1, 1148971, Note_on_c, 0, 77, 0
1, 1148971, Poly_aftertouch_c, 0, 77, 0
1, 1148996, Note_on_c, 0, 62, 58
1, 1148997, Note_on_c, 0, 70, 73
1, 1148997, Note_on_c, 0, 74, 79
1, 1148999, Note_on_c, 0, 50, 66
1, 1149003, Note_on_c, 0, 58, 68
1, 1149022, Note_on_c, 0, 70, 0
1, 1149022, Note_on_c, 0, 62, 0
1, 1149024, Note_on_c, 0, 74, 0
1, 1149036, Note_on_c, 0, 50, 0
1, 1149036, Note_on_c, 0, 58, 0
1, 1149132, Control_c, 0, 64, 98
1, 1149151, Control_c, 0, 64, 78
1, 1149170, Control_c, 0, 64, 91
1, 1149181, Note_on_c, 0, 41, 96
1, 1149183, Note_on_c, 0, 86, 101
1, 1149185, Note_on_c, 0, 29, 91
1, 1149188, Note_on_c, 0, 74, 89
1, 1149188, Control_c, 0, 64, 122
1, 1149207, Control_c, 0, 64, 127
1, 1149208, Note_on_c, 0, 41, 0
1, 1149209, Note_on_c, 0, 74, 0
1, 1149210, Note_on_c, 0, 86, 0
1, 1149210, Poly_aftertouch_c, 0, 86, 0
1, 1149212, Note_on_c, 0, 29, 0
1, 1149381, Note_on_c, 0, 74, 81
1, 1149383, Note_on_c, 0, 50, 79
1, 1149386, Note_on_c, 0, 70, 78
1, 1149416, Poly_aftertouch_c, 0, 29, 0
1, 1149417, Note_on_c, 0, 70, 0
1, 1149426, Note_on_c, 0, 50, 0
1, 1149440, Note_on_c, 0, 74, 0
1, 1149543, Control_c, 0, 64, 106
1, 1149563, Control_c, 0, 64, 66
1, 1149570, Note_on_c, 0, 76, 97
1, 1149572, Note_on_c, 0, 64, 89
1, 1149575, Note_on_c, 0, 56, 89
1, 1149581, Note_on_c, 0, 44, 83
1, 1149581, Control_c, 0, 64, 65
1, 1149599, Control_c, 0, 64, 79
1, 1149606, Note_on_c, 0, 56, 0
1, 1149617, Note_on_c, 0, 44, 0
1, 1149618, Control_c, 0, 64, 98
1, 1149636, Control_c, 0, 64, 127
1, 1149730, Control_c, 0, 67, 0
1, 1149777, Note_on_c, 0, 62, 67
1, 1149780, Note_on_c, 0, 70, 73
1, 1149781, Note_on_c, 0, 74, 75
1, 1149804, Note_on_c, 0, 50, 45
1, 1149810, Note_on_c, 0, 64, 0
1, 1149811, Note_on_c, 0, 48, 40
1, 1149839, Note_on_c, 0, 57, 21
1, 1149852, Note_on_c, 0, 48, 0
1, 1149906, Note_on_c, 0, 57, 0
1, 1149906, Poly_aftertouch_c, 0, 57, 0
1, 1149962, Note_on_c, 0, 50, 0
1, 1149971, Note_on_c, 0, 62, 0
1, 1149979, Note_on_c, 0, 70, 0
1, 1149986, Note_on_c, 0, 74, 0
1, 1150109, Note_on_c, 0, 76, 0
1, 1150127, Note_on_c, 0, 74, 80
1, 1150130, Note_on_c, 0, 62, 60
1, 1150130, Note_on_c, 0, 58, 78
1, 1150132, Note_on_c, 0, 70, 69
1, 1150133, Note_on_c, 0, 50, 70
1, 1150154, Note_on_c, 0, 70, 0
1, 1150154, Note_on_c, 0, 74, 0
1, 1150159, Note_on_c, 0, 62, 0
1, 1150161, Note_on_c, 0, 58, 0
1, 1150165, Note_on_c, 0, 50, 0
1, 1150320, Poly_aftertouch_c, 0, 70, 0
1, 1150348, Control_c, 0, 64, 92
1, 1150367, Control_c, 0, 64, 50
1, 1150384, Control_c, 0, 64, 68
1, 1150394, Note_on_c, 0, 29, 90
1, 1150395, Note_on_c, 0, 41, 96
1, 1150398, Note_on_c, 0, 86, 100
1, 1150400, Note_on_c, 0, 74, 98
1, 1150402, Control_c, 0, 64, 127
1, 1150439, Note_on_c, 0, 29, 0
1, 1150441, Note_on_c, 0, 74, 0
1, 1150447, Note_on_c, 0, 41, 0
1, 1150450, Note_on_c, 0, 86, 0
1, 1150450, Poly_aftertouch_c, 0, 86, 0
1, 1150508, Poly_aftertouch_c, 0, 32, 0
1, 1150705, Note_on_c, 0, 69, 88
1, 1150709, Note_on_c, 0, 51, 96
1, 1150710, Note_on_c, 0, 74, 89
1, 1150744, Note_on_c, 0, 73, 61
1, 1150757, Note_on_c, 0, 69, 0
1, 1150772, Note_on_c, 0, 73, 0
1, 1150772, Note_on_c, 0, 74, 0
1, 1151002, Control_c, 0, 64, 111
1, 1151021, Control_c, 0, 64, 68
1, 1151038, Control_c, 0, 64, 60
1, 1151040, Note_on_c, 0, 63, 90
1, 1151042, Note_on_c, 0, 75, 90
1, 1151045, Note_on_c, 0, 57, 98
1, 1151048, Note_on_c, 0, 45, 82
1, 1151056, Control_c, 0, 64, 95
1, 1151076, Control_c, 0, 64, 127
1, 1151084, Note_on_c, 0, 51, 0
1, 1151088, Note_on_c, 0, 45, 0
1, 1151097, Note_on_c, 0, 57, 0
1, 1151097, Poly_aftertouch_c, 0, 57, 0
1, 1151108, Note_on_c, 0, 63, 0
1, 1151108, Poly_aftertouch_c, 0, 63, 0
1, 1151142, Note_on_c, 0, 75, 0
1, 1151575, Note_on_c, 0, 74, 91
1, 1151578, Note_on_c, 0, 65, 94
1, 1151578, Note_on_c, 0, 63, 97
1, 1151579, Note_on_c, 0, 69, 90
1, 1151589, Note_on_c, 0, 53, 80
1, 1151591, Note_on_c, 0, 57, 78
1, 1151629, Note_on_c, 0, 53, 0
1, 1151629, Poly_aftertouch_c, 0, 53, 0
1, 1151632, Note_on_c, 0, 63, 0
1, 1151632, Poly_aftertouch_c, 0, 63, 0
1, 1151652, Note_on_c, 0, 57, 0
1, 1151652, Poly_aftertouch_c, 0, 57, 0
1, 1152601, Note_on_c, 0, 74, 0
1, 1152620, Note_on_c, 0, 69, 0
1, 1152714, Note_on_c, 0, 65, 0
1, 1152714, Poly_aftertouch_c, 0, 65, 0
1, 1152783, Note_on_c, 0, 63, 95
1, 1152785, Note_on_c, 0, 74, 94
1, 1152786, Note_on_c, 0, 69, 93
1, 1152788, Note_on_c, 0, 53, 83
1, 1152789, Note_on_c, 0, 65, 97
1, 1152810, Note_on_c, 0, 57, 80
1, 1152826, Note_on_c, 0, 53, 0
1, 1152826, Poly_aftertouch_c, 0, 53, 0
1, 1152829, Note_on_c, 0, 63, 0
1, 1152829, Poly_aftertouch_c, 0, 63, 0
1, 1152840, Note_on_c, 0, 57, 0
1, 1152840, Poly_aftertouch_c, 0, 57, 0
1, 1153653, Note_on_c, 0, 74, 0
1, 1153658, Note_on_c, 0, 69, 0
1, 1153675, Note_on_c, 0, 34, 107
1, 1153683, Note_on_c, 0, 65, 0
1, 1153683, Note_on_c, 0, 22, 95
1, 1153683, Poly_aftertouch_c, 0, 65, 0
1, 1153715, Note_on_c, 0, 22, 0
1, 1153725, Note_on_c, 0, 34, 0
1, 1153731, Control_c, 0, 67, 21
1, 1153750, Control_c, 0, 67, 25
1, 1153806, Control_c, 0, 64, 119
1, 1153825, Control_c, 0, 64, 79
1, 1153845, Control_c, 0, 64, 0
1, 1153919, Control_c, 0, 67, 31
1, 1153936, Control_c, 0, 67, 38
1, 1153957, Control_c, 0, 67, 45
1, 1153974, Control_c, 0, 67, 50
1, 1153994, Control_c, 0, 67, 54
1, 1154012, Control_c, 0, 67, 60
1, 1154018, Note_on_c, 0, 53, 57
1, 1154018, Note_on_c, 0, 41, 56
1, 1154032, Control_c, 0, 67, 69
1, 1154049, Control_c, 0, 67, 80
1, 1154058, Note_on_c, 0, 53, 0
1, 1154058, Poly_aftertouch_c, 0, 53, 0
1, 1154067, Control_c, 0, 67, 91
1, 1154086, Note_on_c, 0, 58, 56
1, 1154087, Control_c, 0, 67, 102
1, 1154106, Note_on_c, 0, 46, 35
1, 1154106, Control_c, 0, 67, 111
1, 1154112, Note_on_c, 0, 41, 0
1, 1154119, Note_on_c, 0, 58, 0
1, 1154123, Control_c, 0, 67, 115
1, 1154148, Note_on_c, 0, 61, 54
1, 1154152, Note_on_c, 0, 50, 36
1, 1154155, Note_on_c, 0, 46, 0
1, 1154180, Control_c, 0, 67, 119
1, 1154188, Note_on_c, 0, 61, 0
1, 1154192, Note_on_c, 0, 50, 0
1, 1154199, Note_on_c, 0, 62, 46
1, 1154235, Note_on_c, 0, 62, 0
1, 1154238, Note_on_c, 0, 53, 44
1, 1154286, Note_on_c, 0, 65, 64
1, 1154290, Note_on_c, 0, 53, 0
1, 1154290, Poly_aftertouch_c, 0, 53, 0
1, 1154320, Note_on_c, 0, 65, 0
1, 1154320, Poly_aftertouch_c, 0, 65, 0
1, 1154362, Note_on_c, 0, 66, 56
1, 1154364, Note_on_c, 0, 54, 43
1, 1154398, Note_on_c, 0, 54, 0
1, 1154404, Note_on_c, 0, 66, 0
1, 1154423, Note_on_c, 0, 55, 63
1, 1154433, Note_on_c, 0, 67, 70
1, 1154462, Note_on_c, 0, 55, 0
1, 1154463, Note_on_c, 0, 67, 0
1, 1154511, Note_on_c, 0, 56, 78
1, 1154514, Note_on_c, 0, 68, 68
1, 1154529, Note_on_c, 0, 53, 58
1, 1154555, Control_c, 0, 64, 26
1, 1154561, Note_on_c, 0, 53, 0
1, 1154561, Poly_aftertouch_c, 0, 53, 0
1, 1154571, Note_on_c, 0, 68, 0
1, 1154571, Note_on_c, 0, 56, 0
1, 1154571, Poly_aftertouch_c, 0, 68, 0
1, 1154573, Control_c, 0, 64, 0
1, 1154602, Note_on_c, 0, 71, 64
1, 1154650, Note_on_c, 0, 71, 0
1, 1154652, Note_on_c, 0, 59, 62
1, 1154683, Note_on_c, 0, 67, 56
1, 1154703, Note_on_c, 0, 59, 0
1, 1154712, Note_on_c, 0, 67, 0
1, 1154756, Note_on_c, 0, 66, 56
1, 1154770, Note_on_c, 0, 56, 51
1, 1154778, Control_c, 0, 67, 114
1, 1154799, Note_on_c, 0, 66, 0
1, 1154826, Note_on_c, 0, 56, 0
1, 1154828, Note_on_c, 0, 65, 46
1, 1154847, Note_on_c, 0, 53, 50
1, 1154865, Note_on_c, 0, 65, 0
1, 1154865, Poly_aftertouch_c, 0, 65, 0
1, 1154880, Note_on_c, 0, 53, 0
1, 1154880, Poly_aftertouch_c, 0, 53, 0
1, 1154891, Control_c, 0, 67, 110
1, 1154929, Control_c, 0, 67, 106
1, 1154933, Note_on_c, 0, 60, 17
1, 1154965, Control_c, 0, 67, 100
1, 1154990, Note_on_c, 0, 50, 48
1, 1155002, Note_on_c, 0, 60, 0
1, 1155003, Control_c, 0, 67, 94
1, 1155010, Note_on_c, 0, 59, 45
1, 1155026, Note_on_c, 0, 50, 0
1, 1155040, Control_c, 0, 67, 89
1, 1155042, Note_on_c, 0, 59, 0
1, 1155062, Note_on_c, 0, 56, 66
1, 1155077, Control_c, 0, 67, 83
1, 1155097, Control_c, 0, 67, 79
1, 1155099, Note_on_c, 0, 41, 62
1, 1155101, Note_on_c, 0, 56, 0
1, 1155134, Note_on_c, 0, 41, 0
1, 1155134, Control_c, 0, 67, 74
1, 1155140, Note_on_c, 0, 53, 62
1, 1155172, Control_c, 0, 67, 70
1, 1155179, Note_on_c, 0, 53, 0
1, 1155179, Poly_aftertouch_c, 0, 53, 0
1, 1155208, Control_c, 0, 64, 55
1, 1155209, Control_c, 0, 67, 65
1, 1155210, Note_on_c, 0, 34, 89
1, 1155227, Control_c, 0, 64, 127
1, 1155396, Control_c, 0, 64, 104
1, 1155408, Note_on_c, 0, 34, 0
1, 1155411, Note_on_c, 0, 54, 67
1, 1155414, Control_c, 0, 64, 64
1, 1155435, Control_c, 0, 64, 0
1, 1155442, Note_on_c, 0, 41, 15
1, 1155451, Note_on_c, 0, 54, 0
1, 1155475, Note_on_c, 0, 58, 65
1, 1155476, Note_on_c, 0, 49, 63
1, 1155503, Note_on_c, 0, 41, 0
1, 1155521, Note_on_c, 0, 49, 0
1, 1155540, Note_on_c, 0, 58, 0
1, 1155542, Note_on_c, 0, 60, 57
1, 1155575, Note_on_c, 0, 61, 71
1, 1155581, Note_on_c, 0, 60, 0
1, 1155600, Note_on_c, 0, 54, 61
1, 1155606, Note_on_c, 0, 61, 0
1, 1155637, Note_on_c, 0, 54, 0
1, 1155697, Note_on_c, 0, 66, 67
1, 1155715, Control_c, 0, 67, 61
1, 1155729, Note_on_c, 0, 66, 0
1, 1155776, Note_on_c, 0, 70, 60
1, 1155809, Control_c, 0, 67, 57
1, 1155815, Note_on_c, 0, 58, 58
1, 1155822, Note_on_c, 0, 70, 0
1, 1155848, Note_on_c, 0, 71, 78
1, 1155857, Note_on_c, 0, 54, 53
1, 1155861, Note_on_c, 0, 59, 71
1, 1155862, Control_c, 0, 67, 53
1, 1155870, Note_on_c, 0, 58, 0
1, 1155900, Note_on_c, 0, 71, 0
1, 1155901, Control_c, 0, 67, 47
1, 1155910, Note_on_c, 0, 54, 0
1, 1155920, Note_on_c, 0, 72, 79
1, 1155928, Note_on_c, 0, 60, 80
1, 1155932, Note_on_c, 0, 59, 0
1, 1155938, Control_c, 0, 64, 67
1, 1155939, Control_c, 0, 67, 42
1, 1155956, Control_c, 0, 64, 54
1, 1155976, Control_c, 0, 64, 0
1, 1155991, Note_on_c, 0, 72, 0
1, 1156001, Note_on_c, 0, 75, 75
1, 1156056, Note_on_c, 0, 60, 0
1, 1156064, Note_on_c, 0, 75, 0
1, 1156071, Note_on_c, 0, 63, 60
1, 1156083, Note_on_c, 0, 71, 69
1, 1156109, Note_on_c, 0, 63, 0
1, 1156109, Poly_aftertouch_c, 0, 63, 0
1, 1156120, Note_on_c, 0, 71, 0
1, 1156148, Note_on_c, 0, 59, 77
1, 1156156, Note_on_c, 0, 70, 72
1, 1156162, Control_c, 0, 67, 38
1, 1156186, Note_on_c, 0, 59, 0
1, 1156194, Note_on_c, 0, 70, 0
1, 1156249, Note_on_c, 0, 69, 47
1, 1156284, Note_on_c, 0, 69, 0
1, 1156328, Note_on_c, 0, 66, 61
1, 1156373, Note_on_c, 0, 66, 0
1, 1156383, Note_on_c, 0, 63, 68
1, 1156384, Note_on_c, 0, 57, 8
1, 1156420, Note_on_c, 0, 57, 0
1, 1156420, Poly_aftertouch_c, 0, 57, 0
1, 1156423, Control_c, 0, 67, 34
1, 1156444, Note_on_c, 0, 63, 0
1, 1156444, Poly_aftertouch_c, 0, 63, 0
1, 1156451, Note_on_c, 0, 60, 72
1, 1156461, Control_c, 0, 67, 29
1, 1156486, Note_on_c, 0, 54, 68
1, 1156504, Note_on_c, 0, 60, 0
1, 1156516, Note_on_c, 0, 54, 0
1, 1156517, Control_c, 0, 67, 25
1, 1156527, Note_on_c, 0, 57, 66
1, 1156561, Note_on_c, 0, 57, 0
1, 1156561, Poly_aftertouch_c, 0, 57, 0
1, 1156593, Control_c, 0, 64, 127
1, 1156598, Note_on_c, 0, 34, 97
1, 1156627, Note_on_c, 0, 34, 0
1, 1156649, Control_c, 0, 67, 29
1, 1156760, Control_c, 0, 64, 88
1, 1156781, Control_c, 0, 64, 29
1, 1156800, Note_on_c, 0, 62, 64
1, 1156800, Control_c, 0, 64, 0
1, 1156835, Note_on_c, 0, 50, 43
1, 1156843, Note_on_c, 0, 62, 0
1, 1156863, Note_on_c, 0, 67, 67
1, 1156864, Note_on_c, 0, 55, 39
1, 1156931, Note_on_c, 0, 58, 60
1, 1156932, Note_on_c, 0, 50, 0
1, 1156935, Note_on_c, 0, 67, 0
1, 1156935, Note_on_c, 0, 70, 64
1, 1156953, Note_on_c, 0, 55, 0
1, 1156966, Control_c, 0, 67, 25
1, 1156977, Note_on_c, 0, 70, 0
1, 1156992, Note_on_c, 0, 58, 0
1, 1156999, Note_on_c, 0, 62, 63
1, 1157003, Note_on_c, 0, 73, 64
1, 1157038, Note_on_c, 0, 73, 0
1, 1157040, Note_on_c, 0, 62, 0
1, 1157088, Note_on_c, 0, 74, 60
1, 1157117, Note_on_c, 0, 74, 0
1, 1157139, Note_on_c, 0, 65, 63
1, 1157153, Control_c, 0, 67, 21
1, 1157165, Note_on_c, 0, 77, 63
1, 1157219, Note_on_c, 0, 77, 0
1, 1157219, Poly_aftertouch_c, 0, 77, 0
1, 1157225, Note_on_c, 0, 78, 70
1, 1157243, Note_on_c, 0, 66, 69
1, 1157244, Note_on_c, 0, 65, 0
1, 1157244, Poly_aftertouch_c, 0, 65, 0
1, 1157284, Note_on_c, 0, 78, 0
1, 1157294, Note_on_c, 0, 67, 96
1, 1157302, Note_on_c, 0, 61, 68
1, 1157303, Control_c, 0, 67, 17
1, 1157305, Note_on_c, 0, 79, 71
1, 1157322, Control_c, 0, 64, 51
1, 1157323, Note_on_c, 0, 66, 0
1, 1157337, Note_on_c, 0, 79, 0
1, 1157337, Note_on_c, 0, 64, 54
1, 1157340, Control_c, 0, 64, 110
1, 1157342, Control_c, 0, 67, 13
1, 1157358, Control_c, 0, 64, 91
1, 1157378, Control_c, 0, 64, 60
1, 1157390, Note_on_c, 0, 82, 71
1, 1157397, Control_c, 0, 64, 0
1, 1157446, Note_on_c, 0, 61, 0
1, 1157460, Note_on_c, 0, 67, 0
1, 1157465, Note_on_c, 0, 82, 0
1, 1157476, Note_on_c, 0, 70, 53
1, 1157477, Note_on_c, 0, 78, 73
1, 1157542, Note_on_c, 0, 66, 59
1, 1157543, Note_on_c, 0, 78, 0
1, 1157547, Note_on_c, 0, 77, 69
1, 1157550, Note_on_c, 0, 70, 0
1, 1157555, Note_on_c, 0, 64, 0
1, 1157578, Note_on_c, 0, 77, 0
1, 1157578, Poly_aftertouch_c, 0, 77, 0
1, 1157590, Note_on_c, 0, 66, 0
1, 1157623, Note_on_c, 0, 76, 73
1, 1157624, Note_on_c, 0, 65, 73
1, 1157663, Note_on_c, 0, 65, 0
1, 1157663, Poly_aftertouch_c, 0, 65, 0
1, 1157696, Note_on_c, 0, 73, 78
1, 1157701, Note_on_c, 0, 76, 0
1, 1157748, Note_on_c, 0, 64, 56
1, 1157752, Note_on_c, 0, 73, 0
1, 1157765, Note_on_c, 0, 70, 70
1, 1157801, Note_on_c, 0, 70, 0
1, 1157804, Note_on_c, 0, 64, 0
1, 1157814, Note_on_c, 0, 61, 72
1, 1157818, Note_on_c, 0, 67, 70
1, 1157845, Note_on_c, 0, 61, 0
1, 1157852, Note_on_c, 0, 67, 0
1, 1157863, Control_c, 0, 67, 8
1, 1157896, Note_on_c, 0, 64, 75
1, 1157928, Note_on_c, 0, 64, 0
1, 1157963, Note_on_c, 0, 34, 97
1, 1157977, Control_c, 0, 64, 127
1, 1157993, Note_on_c, 0, 34, 0
1, 1158156, Note_on_c, 0, 66, 69
1, 1158212, Note_on_c, 0, 54, 55
1, 1158216, Note_on_c, 0, 66, 0
1, 1158217, Note_on_c, 0, 70, 74
1, 1158273, Note_on_c, 0, 74, 74
1, 1158278, Note_on_c, 0, 63, 60
1, 1158304, Note_on_c, 0, 70, 0
1, 1158340, Note_on_c, 0, 54, 0
1, 1158341, Note_on_c, 0, 74, 0
1, 1158350, Note_on_c, 0, 66, 83
1, 1158353, Note_on_c, 0, 75, 63
1, 1158362, Note_on_c, 0, 63, 0
1, 1158362, Poly_aftertouch_c, 0, 63, 0
1, 1158366, Poly_aftertouch_c, 0, 57, 0
1, 1158377, Note_on_c, 0, 75, 0
1, 1158387, Control_c, 0, 64, 114
1, 1158393, Note_on_c, 0, 66, 0
1, 1158406, Control_c, 0, 64, 75
1, 1158426, Control_c, 0, 64, 0
1, 1158448, Note_on_c, 0, 78, 71
1, 1158483, Note_on_c, 0, 78, 0
1, 1158515, Note_on_c, 0, 82, 66
1, 1158529, Note_on_c, 0, 70, 66
1, 1158536, Note_on_c, 0, 66, 49
1, 1158561, Note_on_c, 0, 82, 0
1, 1158597, Note_on_c, 0, 71, 67
1, 1158597, Note_on_c, 0, 83, 80
1, 1158634, Note_on_c, 0, 70, 0
1, 1158641, Note_on_c, 0, 66, 0
1, 1158648, Note_on_c, 0, 83, 0
1, 1158650, Note_on_c, 0, 72, 88
1, 1158673, Note_on_c, 0, 71, 0
1, 1158674, Note_on_c, 0, 84, 80
1, 1158687, Control_c, 0, 64, 69
1, 1158705, Control_c, 0, 64, 127
1, 1158715, Note_on_c, 0, 72, 0
1, 1158742, Poly_aftertouch_c, 0, 85, 0
1, 1158751, Note_on_c, 0, 84, 0
1, 1158757, Note_on_c, 0, 87, 69
1, 1158777, Note_on_c, 0, 72, 46
1, 1158797, Note_on_c, 0, 72, 0
1, 1158811, Note_on_c, 0, 75, 62
1, 1158821, Note_on_c, 0, 87, 0
1, 1158821, Note_on_c, 0, 83, 71
1, 1158834, Note_on_c, 0, 75, 0
1, 1158870, Note_on_c, 0, 83, 0
1, 1158895, Note_on_c, 0, 71, 77
1, 1158909, Note_on_c, 0, 83, 41
1, 1158929, Control_c, 0, 64, 118
1, 1158939, Note_on_c, 0, 71, 0
1, 1158946, Note_on_c, 0, 83, 0
1, 1158948, Control_c, 0, 64, 99
1, 1158961, Note_on_c, 0, 81, 70
1, 1158961, Poly_aftertouch_c, 0, 72, 0
1, 1158967, Control_c, 0, 64, 83
1, 1158986, Control_c, 0, 64, 71
1, 1158990, Note_on_c, 0, 81, 0
1, 1158990, Poly_aftertouch_c, 0, 81, 0
1, 1159005, Control_c, 0, 64, 50
1, 1159024, Control_c, 0, 64, 0
1, 1159057, Note_on_c, 0, 78, 74
1, 1159095, Note_on_c, 0, 69, 56
1, 1159102, Note_on_c, 0, 68, 24
1, 1159103, Note_on_c, 0, 68, 0
1, 1159103, Poly_aftertouch_c, 0, 68, 0
1, 1159122, Note_on_c, 0, 75, 78
1, 1159128, Note_on_c, 0, 78, 0
1, 1159164, Note_on_c, 0, 69, 0
1, 1159179, Note_on_c, 0, 72, 77
1, 1159203, Note_on_c, 0, 66, 74
1, 1159205, Note_on_c, 0, 75, 0
1, 1159231, Note_on_c, 0, 66, 0
1, 1159255, Note_on_c, 0, 69, 81
1, 1159274, Note_on_c, 0, 72, 0
1, 1159319, Note_on_c, 0, 69, 0
1, 1159321, Control_c, 0, 64, 97
1, 1159341, Control_c, 0, 64, 127
1, 1159350, Note_on_c, 0, 35, 85
1, 1159375, Note_on_c, 0, 35, 0
1, 1159446, Poly_aftertouch_c, 0, 34, 0
1, 1159453, Control_c, 0, 64, 106
1, 1159472, Control_c, 0, 64, 79
1, 1159492, Control_c, 0, 64, 48
1, 1159509, Control_c, 0, 64, 0
1, 1159520, Note_on_c, 0, 74, 64
1, 1159530, Note_on_c, 0, 72, 71
1, 1159536, Note_on_c, 0, 53, 61
1, 1159584, Note_on_c, 0, 70, 70
1, 1159587, Note_on_c, 0, 72, 0
1, 1159592, Note_on_c, 0, 76, 72
1, 1159600, Note_on_c, 0, 74, 0
1, 1159614, Note_on_c, 0, 59, 56
1, 1159615, Note_on_c, 0, 53, 0
1, 1159615, Poly_aftertouch_c, 0, 53, 0
1, 1159635, Note_on_c, 0, 57, 36
1, 1159638, Note_on_c, 0, 64, 75
1, 1159647, Note_on_c, 0, 59, 0
1, 1159650, Note_on_c, 0, 70, 0
1, 1159661, Note_on_c, 0, 76, 0
1, 1159675, Note_on_c, 0, 64, 0
1, 1159678, Note_on_c, 0, 57, 0
1, 1159785, Note_on_c, 0, 60, 42
1, 1159792, Note_on_c, 0, 56, 46
1, 1159813, Note_on_c, 0, 77, 83
1, 1159815, Note_on_c, 0, 72, 77
1, 1159822, Note_on_c, 0, 60, 0
1, 1159829, Note_on_c, 0, 56, 0
1, 1159844, Note_on_c, 0, 72, 0
1, 1159848, Note_on_c, 0, 65, 72
1, 1159863, Note_on_c, 0, 77, 0
1, 1159863, Poly_aftertouch_c, 0, 77, 0
1, 1159864, Poly_aftertouch_c, 0, 61, 127
1, 1159882, Poly_aftertouch_c, 0, 61, 0
1, 1159941, Note_on_c, 0, 65, 0
1, 1159941, Poly_aftertouch_c, 0, 65, 0
1, 1159989, Note_on_c, 0, 64, 43
1, 1160035, Note_on_c, 0, 80, 82
1, 1160049, Note_on_c, 0, 77, 51
1, 1160053, Note_on_c, 0, 76, 62
1, 1160078, Note_on_c, 0, 77, 0
1, 1160078, Poly_aftertouch_c, 0, 77, 0
1, 1160090, Note_on_c, 0, 76, 0
1, 1160108, Note_on_c, 0, 64, 0
1, 1160133, Note_on_c, 0, 68, 73
1, 1160147, Note_on_c, 0, 80, 0
1, 1160155, Note_on_c, 0, 62, 76
1, 1160164, Note_on_c, 0, 68, 0
1, 1160164, Poly_aftertouch_c, 0, 68, 0
1, 1160213, Note_on_c, 0, 62, 0
1, 1160256, Note_on_c, 0, 61, 81
1, 1160257, Control_c, 0, 64, 15
1, 1160268, Note_on_c, 0, 84, 87
1, 1160273, Note_on_c, 0, 80, 78
1, 1160276, Control_c, 0, 64, 0
1, 1160296, Note_on_c, 0, 61, 0
1, 1160310, Note_on_c, 0, 80, 0
1, 1160342, Note_on_c, 0, 60, 73
1, 1160348, Note_on_c, 0, 72, 72
1, 1160358, Note_on_c, 0, 84, 0
1, 1160381, Note_on_c, 0, 72, 0
1, 1160401, Note_on_c, 0, 60, 0
1, 1160437, Note_on_c, 0, 56, 70
1, 1160494, Note_on_c, 0, 53, 66
1, 1160504, Note_on_c, 0, 84, 86
1, 1160506, Note_on_c, 0, 77, 78
1, 1160513, Note_on_c, 0, 56, 0
1, 1160524, Note_on_c, 0, 91, 63
1, 1160525, Note_on_c, 0, 89, 60
1, 1160527, Note_on_c, 0, 77, 0
1, 1160527, Note_on_c, 0, 84, 0
1, 1160527, Poly_aftertouch_c, 0, 77, 0
1, 1160538, Note_on_c, 0, 51, 64
1, 1160538, Control_c, 0, 67, 0
1, 1160553, Note_on_c, 0, 91, 0
1, 1160578, Note_on_c, 0, 77, 97
1, 1160581, Note_on_c, 0, 84, 78
1, 1160615, Note_on_c, 0, 53, 0
1, 1160615, Poly_aftertouch_c, 0, 53, 0
1, 1160625, Note_on_c, 0, 50, 69
1, 1160656, Note_on_c, 0, 51, 0
1, 1160658, Note_on_c, 0, 50, 0
1, 1160678, Note_on_c, 0, 89, 0
1, 1160678, Poly_aftertouch_c, 0, 89, 0
1, 1160687, Note_on_c, 0, 84, 0
1, 1160707, Note_on_c, 0, 77, 0
1, 1160707, Poly_aftertouch_c, 0, 77, 0
1, 1160724, Control_c, 0, 64, 112
1, 1160740, Note_on_c, 0, 37, 92
1, 1160742, Control_c, 0, 64, 127
1, 1160767, Note_on_c, 0, 35, 49
1, 1160773, Note_on_c, 0, 37, 0
1, 1160813, Note_on_c, 0, 35, 0
1, 1160873, Note_on_c, 0, 75, 47
1, 1160937, Note_on_c, 0, 76, 80
1, 1160970, Note_on_c, 0, 55, 37
1, 1160976, Note_on_c, 0, 78, 82
1, 1160979, Note_on_c, 0, 73, 80
1, 1160991, Note_on_c, 0, 75, 0
1, 1160992, Note_on_c, 0, 58, 54
1, 1161003, Note_on_c, 0, 61, 78
1, 1161007, Note_on_c, 0, 76, 0
1, 1161037, Note_on_c, 0, 55, 0
1, 1161051, Note_on_c, 0, 58, 0
1, 1161052, Note_on_c, 0, 66, 81
1, 1161082, Note_on_c, 0, 73, 0
1, 1161086, Note_on_c, 0, 78, 0
1, 1161111, Note_on_c, 0, 66, 0
1, 1161136, Control_c, 0, 64, 117
1, 1161156, Control_c, 0, 64, 72
1, 1161170, Note_on_c, 0, 61, 0
1, 1161170, Note_on_c, 0, 61, 34
1, 1161174, Note_on_c, 0, 58, 64
1, 1161174, Control_c, 0, 64, 0
1, 1161199, Note_on_c, 0, 74, 84
1, 1161201, Note_on_c, 0, 79, 89
1, 1161221, Note_on_c, 0, 61, 0
1, 1161230, Note_on_c, 0, 58, 0
1, 1161260, Note_on_c, 0, 74, 0
1, 1161262, Note_on_c, 0, 67, 75
1, 1161310, Note_on_c, 0, 79, 0
1, 1161340, Note_on_c, 0, 67, 0
1, 1161371, Note_on_c, 0, 66, 66
1, 1161413, Note_on_c, 0, 66, 0
1, 1161417, Note_on_c, 0, 77, 80
1, 1161424, Note_on_c, 0, 82, 87
1, 1161437, Control_c, 0, 64, 23
1, 1161453, Control_c, 0, 64, 0
1, 1161458, Note_on_c, 0, 65, 75
1, 1161478, Note_on_c, 0, 77, 0
1, 1161478, Poly_aftertouch_c, 0, 77, 0
1, 1161500, Note_on_c, 0, 65, 0
1, 1161500, Poly_aftertouch_c, 0, 65, 0
1, 1161519, Note_on_c, 0, 70, 69
1, 1161533, Note_on_c, 0, 82, 0
1, 1161553, Note_on_c, 0, 70, 0
1, 1161561, Note_on_c, 0, 64, 65
1, 1161637, Note_on_c, 0, 63, 78
1, 1161639, Note_on_c, 0, 64, 0
1, 1161641, Note_on_c, 0, 86, 86
1, 1161647, Note_on_c, 0, 82, 81
1, 1161668, Note_on_c, 0, 63, 0
1, 1161668, Poly_aftertouch_c, 0, 63, 0
1, 1161690, Note_on_c, 0, 82, 0
1, 1161726, Note_on_c, 0, 62, 79
1, 1161735, Note_on_c, 0, 86, 0
1, 1161735, Poly_aftertouch_c, 0, 86, 0
1, 1161737, Note_on_c, 0, 74, 74
1, 1161763, Note_on_c, 0, 74, 0
1, 1161781, Note_on_c, 0, 62, 0
1, 1161829, Note_on_c, 0, 58, 76
1, 1161881, Note_on_c, 0, 79, 87
1, 1161885, Note_on_c, 0, 85, 85
1, 1161890, Note_on_c, 0, 91, 86
1, 1161903, Note_on_c, 0, 58, 0
1, 1161904, Note_on_c, 0, 79, 0
1, 1161904, Note_on_c, 0, 55, 58
1, 1161908, Note_on_c, 0, 85, 0
1, 1161913, Note_on_c, 0, 91, 0
1, 1161953, Note_on_c, 0, 91, 83
1, 1161954, Note_on_c, 0, 79, 94
1, 1161957, Note_on_c, 0, 85, 88
1, 1161993, Note_on_c, 0, 53, 68
1, 1162009, Note_on_c, 0, 55, 0
1, 1162014, Note_on_c, 0, 52, 78
1, 1162029, Note_on_c, 0, 53, 0
1, 1162029, Poly_aftertouch_c, 0, 53, 0
1, 1162046, Note_on_c, 0, 52, 0
1, 1162101, Note_on_c, 0, 91, 0
1, 1162106, Note_on_c, 0, 79, 0
1, 1162127, Control_c, 0, 64, 127
1, 1162137, Note_on_c, 0, 34, 86
1, 1162143, Note_on_c, 0, 37, 84
1, 1162147, Note_on_c, 0, 85, 0
1, 1162155, Note_on_c, 0, 34, 0
1, 1162166, Note_on_c, 0, 87, 18
1, 1162189, Note_on_c, 0, 37, 0
1, 1162201, Note_on_c, 0, 87, 0
1, 1162216, Poly_aftertouch_c, 0, 52, 0
1, 1162300, Note_on_c, 0, 75, 77
1, 1162301, Note_on_c, 0, 87, 82
1, 1162316, Poly_aftertouch_c, 0, 34, 127
1, 1162327, Note_on_c, 0, 75, 0
1, 1162328, Note_on_c, 0, 87, 0
1, 1162349, Poly_aftertouch_c, 0, 34, 0
1, 1162432, Note_on_c, 0, 80, 99
1, 1162434, Note_on_c, 0, 92, 104
1, 1162443, Note_on_c, 0, 68, 82
1, 1162444, Note_on_c, 0, 59, 66
1, 1162445, Poly_aftertouch_c, 0, 53, 0
1, 1162448, Note_on_c, 0, 63, 66
1, 1162456, Note_on_c, 0, 80, 0
1, 1162458, Note_on_c, 0, 93, 72
1, 1162459, Note_on_c, 0, 93, 0
1, 1162473, Note_on_c, 0, 92, 0
1, 1162476, Note_on_c, 0, 68, 0
1, 1162476, Poly_aftertouch_c, 0, 68, 0
1, 1162484, Note_on_c, 0, 63, 0
1, 1162484, Poly_aftertouch_c, 0, 63, 0
1, 1162547, Note_on_c, 0, 59, 0
1, 1162581, Note_on_c, 0, 53, 71
1, 1162586, Note_on_c, 0, 75, 81
1, 1162597, Note_on_c, 0, 87, 78
1, 1162609, Note_on_c, 0, 75, 0
1, 1162625, Note_on_c, 0, 53, 0
1, 1162626, Note_on_c, 0, 87, 0
1, 1162692, Note_on_c, 0, 63, 70
1, 1162693, Note_on_c, 0, 91, 95
1, 1162694, Note_on_c, 0, 79, 91
1, 1162697, Note_on_c, 0, 69, 77
1, 1162718, Note_on_c, 0, 79, 0
1, 1162726, Poly_aftertouch_c, 0, 59, 127
1, 1162732, Note_on_c, 0, 69, 0
1, 1162734, Note_on_c, 0, 63, 0
1, 1162734, Poly_aftertouch_c, 0, 63, 0
1, 1162737, Note_on_c, 0, 91, 0
1, 1162741, Poly_aftertouch_c, 0, 59, 0
1, 1162827, Note_on_c, 0, 75, 85
1, 1162834, Note_on_c, 0, 87, 84
1, 1162853, Note_on_c, 0, 75, 0
1, 1162853, Note_on_c, 0, 60, 63
1, 1162857, Note_on_c, 0, 87, 0
1, 1162902, Poly_aftertouch_c, 0, 61, 127
1, 1162930, Note_on_c, 0, 70, 73
1, 1162941, Note_on_c, 0, 91, 92
1, 1162944, Note_on_c, 0, 79, 85
1, 1162960, Poly_aftertouch_c, 0, 61, 0
1, 1162968, Note_on_c, 0, 79, 0
1, 1162970, Note_on_c, 0, 91, 0
1, 1162984, Note_on_c, 0, 60, 0
1, 1162991, Note_on_c, 0, 70, 0
1, 1163004, Note_on_c, 0, 63, 41
1, 1163068, Note_on_c, 0, 75, 89
1, 1163072, Note_on_c, 0, 87, 85
1, 1163091, Note_on_c, 0, 75, 0
1, 1163096, Note_on_c, 0, 58, 72
1, 1163103, Note_on_c, 0, 87, 0
1, 1163132, Note_on_c, 0, 85, 13
1, 1163133, Note_on_c, 0, 85, 0
1, 1163184, Note_on_c, 0, 90, 95
1, 1163187, Note_on_c, 0, 71, 46
1, 1163187, Note_on_c, 0, 78, 89
1, 1163197, Note_on_c, 0, 58, 0
1, 1163198, Note_on_c, 0, 69, 53
1, 1163215, Note_on_c, 0, 78, 0
1, 1163216, Poly_aftertouch_c, 0, 85, 0
1, 1163228, Note_on_c, 0, 71, 0
1, 1163232, Note_on_c, 0, 69, 0
1, 1163239, Note_on_c, 0, 90, 0
1, 1163265, Note_on_c, 0, 57, 67
1, 1163301, Note_on_c, 0, 57, 0
1, 1163317, Note_on_c, 0, 75, 79
1, 1163329, Note_on_c, 0, 87, 70
1, 1163343, Note_on_c, 0, 75, 0
1, 1163347, Note_on_c, 0, 87, 0
1, 1163354, Note_on_c, 0, 65, 40
1, 1163360, Note_on_c, 0, 72, 90
1, 1163382, Note_on_c, 0, 72, 0
1, 1163398, Note_on_c, 0, 89, 97
1, 1163406, Note_on_c, 0, 77, 88
1, 1163412, Note_on_c, 0, 65, 0
1, 1163412, Poly_aftertouch_c, 0, 65, 0
1, 1163436, Note_on_c, 0, 63, 0
1, 1163436, Poly_aftertouch_c, 0, 63, 0
1, 1163453, Note_on_c, 0, 77, 0
1, 1163453, Poly_aftertouch_c, 0, 77, 0
1, 1163455, Control_c, 0, 64, 116
1, 1163473, Control_c, 0, 64, 85
1, 1163493, Control_c, 0, 64, 50
1, 1163511, Control_c, 0, 64, 0
1, 1163543, Note_on_c, 0, 87, 82
1, 1163553, Note_on_c, 0, 75, 84
1, 1163582, Note_on_c, 0, 89, 0
1, 1163582, Poly_aftertouch_c, 0, 89, 0
1, 1163584, Note_on_c, 0, 75, 0
1, 1163608, Note_on_c, 0, 46, 99
1, 1163619, Note_on_c, 0, 87, 0
1, 1163621, Control_c, 0, 64, 67
1, 1163624, Note_on_c, 0, 34, 81
1, 1163627, Poly_aftertouch_c, 0, 89, 0
1, 1163643, Control_c, 0, 64, 127
1, 1163651, Note_on_c, 0, 46, 0
1, 1163653, Note_on_c, 0, 34, 0
1, 1163815, Note_on_c, 0, 76, 78
1, 1163820, Note_on_c, 0, 54, 75
1, 1163822, Note_on_c, 0, 89, 86
1, 1163826, Note_on_c, 0, 88, 76
1, 1163840, Note_on_c, 0, 89, 0
1, 1163842, Note_on_c, 0, 76, 0
1, 1163848, Note_on_c, 0, 88, 0
1, 1163899, Note_on_c, 0, 54, 0
1, 1164012, Note_on_c, 0, 69, 91
1, 1164014, Note_on_c, 0, 64, 80
1, 1164022, Note_on_c, 0, 93, 110
1, 1164023, Note_on_c, 0, 84, 97
1, 1164024, Note_on_c, 0, 81, 96
1, 1164026, Note_on_c, 0, 87, 96
1, 1164033, Note_on_c, 0, 60, 42
1, 1164042, Note_on_c, 0, 81, 0
1, 1164042, Note_on_c, 0, 69, 0
1, 1164042, Poly_aftertouch_c, 0, 81, 0
1, 1164056, Note_on_c, 0, 87, 0
1, 1164059, Note_on_c, 0, 93, 0
1, 1164063, Note_on_c, 0, 84, 0
1, 1164072, Note_on_c, 0, 64, 0
1, 1164165, Poly_aftertouch_c, 0, 61, 0
1, 1164195, Note_on_c, 0, 54, 80
1, 1164200, Note_on_c, 0, 76, 78
1, 1164203, Note_on_c, 0, 88, 82
1, 1164221, Note_on_c, 0, 76, 0
1, 1164228, Note_on_c, 0, 88, 0
1, 1164263, Note_on_c, 0, 54, 0
1, 1164304, Note_on_c, 0, 92, 102
1, 1164305, Note_on_c, 0, 80, 97
1, 1164314, Note_on_c, 0, 64, 58
1, 1164324, Note_on_c, 0, 70, 82
1, 1164334, Note_on_c, 0, 80, 0
1, 1164341, Note_on_c, 0, 60, 0
1, 1164345, Note_on_c, 0, 92, 0
1, 1164361, Note_on_c, 0, 64, 0
1, 1164380, Note_on_c, 0, 70, 0
1, 1164458, Note_on_c, 0, 61, 82
1, 1164461, Note_on_c, 0, 76, 78
1, 1164461, Note_on_c, 0, 88, 83
1, 1164480, Note_on_c, 0, 76, 0
1, 1164482, Note_on_c, 0, 88, 0
1, 1164557, Note_on_c, 0, 80, 95
1, 1164559, Note_on_c, 0, 92, 98
1, 1164579, Note_on_c, 0, 71, 72
1, 1164584, Note_on_c, 0, 68, 73
1, 1164587, Note_on_c, 0, 61, 0
1, 1164596, Note_on_c, 0, 80, 0
1, 1164610, Note_on_c, 0, 92, 0
1, 1164611, Note_on_c, 0, 64, 54
1, 1164612, Note_on_c, 0, 71, 0
1, 1164648, Note_on_c, 0, 68, 0
1, 1164648, Poly_aftertouch_c, 0, 68, 0
1, 1164663, Note_on_c, 0, 64, 0
1, 1164690, Note_on_c, 0, 59, 79
1, 1164704, Note_on_c, 0, 88, 80
1, 1164721, Note_on_c, 0, 76, 53
1, 1164730, Note_on_c, 0, 88, 0
1, 1164751, Note_on_c, 0, 59, 0
1, 1164752, Note_on_c, 0, 76, 0
1, 1164812, Note_on_c, 0, 72, 75
1, 1164812, Note_on_c, 0, 91, 91
1, 1164812, Note_on_c, 0, 79, 84
1, 1164820, Note_on_c, 0, 64, 56
1, 1164825, Note_on_c, 0, 67, 65
1, 1164836, Note_on_c, 0, 79, 0
1, 1164838, Note_on_c, 0, 72, 0
1, 1164861, Note_on_c, 0, 67, 0
1, 1164862, Note_on_c, 0, 91, 0
1, 1164916, Note_on_c, 0, 64, 0
1, 1164945, Note_on_c, 0, 58, 76
1, 1164954, Note_on_c, 0, 76, 73
1, 1164973, Note_on_c, 0, 76, 0
1, 1165004, Note_on_c, 0, 58, 0
1, 1165036, Note_on_c, 0, 64, 51
1, 1165043, Note_on_c, 0, 66, 80
1, 1165046, Note_on_c, 0, 73, 93
1, 1165051, Note_on_c, 0, 78, 96
1, 1165052, Note_on_c, 0, 90, 98
1, 1165068, Poly_aftertouch_c, 0, 88, 0
1, 1165070, Note_on_c, 0, 73, 0
1, 1165101, Note_on_c, 0, 66, 0
1, 1165102, Note_on_c, 0, 78, 0
1, 1165118, Note_on_c, 0, 64, 0
1, 1165151, Note_on_c, 0, 90, 0
1, 1165169, Poly_aftertouch_c, 0, 62, 0
1, 1165200, Note_on_c, 0, 88, 84
1, 1165257, Note_on_c, 0, 88, 0
1, 1165270, Control_c, 0, 64, 103
1, 1165288, Control_c, 0, 64, 45
1, 1165306, Control_c, 0, 64, 0
1, 1165307, Note_on_c, 0, 46, 104
1, 1165315, Note_on_c, 0, 34, 93
1, 1165343, Note_on_c, 0, 34, 0
1, 1165343, Control_c, 0, 64, 55
1, 1165354, Note_on_c, 0, 46, 0
1, 1165361, Control_c, 0, 64, 85
1, 1165381, Control_c, 0, 64, 114
1, 1165400, Control_c, 0, 64, 127
1, 1165532, Poly_aftertouch_c, 0, 34, 0
1, 1165592, Note_on_c, 0, 55, 76
1, 1165594, Note_on_c, 0, 91, 104
1, 1165640, Note_on_c, 0, 91, 0
1, 1165645, Note_on_c, 0, 93, 36
1, 1165694, Note_on_c, 0, 93, 0
1, 1165804, Note_on_c, 0, 60, 58
1, 1165809, Note_on_c, 0, 67, 91
1, 1165813, Note_on_c, 0, 63, 80
1, 1165841, Note_on_c, 0, 55, 0
1, 1165895, Note_on_c, 0, 84, 93
1, 1165896, Note_on_c, 0, 91, 91
1, 1165900, Note_on_c, 0, 98, 88
1, 1165904, Note_on_c, 0, 67, 0
1, 1165909, Note_on_c, 0, 86, 71
1, 1165911, Note_on_c, 0, 96, 75
1, 1165913, Note_on_c, 0, 94, 59
1, 1165914, Note_on_c, 0, 94, 0
1, 1165914, Note_on_c, 0, 88, 59
1, 1165917, Note_on_c, 0, 84, 0
1, 1165917, Note_on_c, 0, 92, 60
1, 1165921, Note_on_c, 0, 91, 0
1, 1165928, Note_on_c, 0, 98, 0
1, 1165929, Note_on_c, 0, 86, 0
1, 1165929, Poly_aftertouch_c, 0, 86, 0
1, 1165936, Poly_aftertouch_c, 0, 94, 0
1, 1165937, Note_on_c, 0, 63, 0
1, 1165937, Poly_aftertouch_c, 0, 63, 0
1, 1165938, Note_on_c, 0, 88, 0
1, 1165939, Note_on_c, 0, 96, 0
1, 1165942, Note_on_c, 0, 92, 0
1, 1165962, Note_on_c, 0, 60, 0
1, 1166002, Note_on_c, 0, 96, 69
1, 1166016, Note_on_c, 0, 87, 49
1, 1166017, Note_on_c, 0, 87, 0
1, 1166023, Note_on_c, 0, 96, 0
1, 1166027, Note_on_c, 0, 84, 42
1, 1166055, Poly_aftertouch_c, 0, 87, 0
1, 1166073, Note_on_c, 0, 91, 61
1, 1166082, Note_on_c, 0, 96, 80
1, 1166087, Note_on_c, 0, 87, 54
1, 1166094, Note_on_c, 0, 95, 74
1, 1166118, Note_on_c, 0, 90, 23
1, 1166119, Note_on_c, 0, 90, 0
1, 1166119, Note_on_c, 0, 95, 0
1, 1166125, Note_on_c, 0, 96, 0
1, 1166130, Note_on_c, 0, 84, 0
1, 1166136, Note_on_c, 0, 87, 0
1, 1166154, Note_on_c, 0, 91, 0
1, 1166179, Poly_aftertouch_c, 0, 92, 0
1, 1166188, Poly_aftertouch_c, 0, 86, 127
1, 1166197, Note_on_c, 0, 68, 87
1, 1166206, Poly_aftertouch_c, 0, 86, 0
1, 1166210, Note_on_c, 0, 56, 77
1, 1166213, Note_on_c, 0, 63, 75
1, 1166216, Note_on_c, 0, 60, 56
1, 1166220, Note_on_c, 0, 68, 0
1, 1166220, Poly_aftertouch_c, 0, 68, 0
1, 1166236, Note_on_c, 0, 63, 0
1, 1166236, Poly_aftertouch_c, 0, 63, 0
1, 1166250, Note_on_c, 0, 60, 0
1, 1166268, Note_on_c, 0, 56, 0
1, 1166279, Note_on_c, 0, 83, 87
1, 1166279, Control_c, 0, 64, 123
1, 1166280, Note_on_c, 0, 87, 85
1, 1166283, Note_on_c, 0, 91, 87
1, 1166284, Note_on_c, 0, 95, 87
1, 1166299, Control_c, 0, 64, 83
1, 1166306, Note_on_c, 0, 83, 0
1, 1166313, Note_on_c, 0, 91, 0
1, 1166318, Note_on_c, 0, 87, 0
1, 1166318, Poly_aftertouch_c, 0, 58, 0
1, 1166318, Control_c, 0, 64, 0
1, 1166323, Note_on_c, 0, 95, 0
1, 1166357, Note_on_c, 0, 92, 80
1, 1166370, Note_on_c, 0, 83, 87
1, 1166375, Note_on_c, 0, 84, 80
1, 1166377, Note_on_c, 0, 95, 85
1, 1166379, Note_on_c, 0, 96, 73
1, 1166384, Note_on_c, 0, 87, 58
1, 1166387, Note_on_c, 0, 88, 82
1, 1166400, Note_on_c, 0, 96, 0
1, 1166411, Note_on_c, 0, 46, 105
1, 1166418, Note_on_c, 0, 34, 90
1, 1166428, Control_c, 0, 64, 123
1, 1166431, Note_on_c, 0, 46, 0
1, 1166442, Note_on_c, 0, 34, 0
1, 1166446, Control_c, 0, 64, 127
1, 1166453, Note_on_c, 0, 87, 0
1, 1166459, Note_on_c, 0, 83, 0
1, 1166484, Note_on_c, 0, 84, 0
1, 1166557, Note_on_c, 0, 92, 0
1, 1166595, Note_on_c, 0, 95, 0
1, 1166611, Note_on_c, 0, 88, 0
1, 1166618, Note_on_c, 0, 91, 6
1, 1166629, Poly_aftertouch_c, 0, 34, 0
1, 1166692, Note_on_c, 0, 91, 0
1, 1166717, Note_on_c, 0, 60, 32
1, 1166726, Note_on_c, 0, 68, 80
1, 1166748, Note_on_c, 0, 56, 51
1, 1166779, Note_on_c, 0, 63, 52
1, 1166779, Note_on_c, 0, 83, 85
1, 1166779, Note_on_c, 0, 91, 90
1, 1166779, Note_on_c, 0, 87, 84
1, 1166784, Note_on_c, 0, 95, 82
1, 1166788, Note_on_c, 0, 56, 0
1, 1166794, Note_on_c, 0, 68, 0
1, 1166794, Poly_aftertouch_c, 0, 68, 0
1, 1166801, Note_on_c, 0, 91, 0
1, 1166803, Note_on_c, 0, 83, 0
1, 1166803, Note_on_c, 0, 87, 0
1, 1166809, Note_on_c, 0, 60, 0
1, 1166813, Note_on_c, 0, 95, 0
1, 1166819, Note_on_c, 0, 63, 0
1, 1166819, Poly_aftertouch_c, 0, 63, 0
1, 1166864, Note_on_c, 0, 95, 99
1, 1166864, Note_on_c, 0, 83, 99
1, 1166867, Note_on_c, 0, 87, 91
1, 1166870, Note_on_c, 0, 91, 96
1, 1166873, Note_on_c, 0, 56, 85
1, 1166881, Note_on_c, 0, 69, 78
1, 1166885, Note_on_c, 0, 63, 85
1, 1166894, Note_on_c, 0, 60, 55
1, 1166899, Note_on_c, 0, 83, 0
1, 1166910, Note_on_c, 0, 69, 0
1, 1166911, Note_on_c, 0, 95, 0
1, 1166921, Note_on_c, 0, 91, 0
1, 1166921, Note_on_c, 0, 87, 0
1, 1166923, Note_on_c, 0, 63, 0
1, 1166923, Poly_aftertouch_c, 0, 63, 0
1, 1166936, Note_on_c, 0, 56, 0
1, 1166938, Note_on_c, 0, 60, 0
1, 1167074, Note_on_c, 0, 69, 65
1, 1167095, Note_on_c, 0, 57, 63
1, 1167106, Note_on_c, 0, 63, 30
1, 1167113, Note_on_c, 0, 69, 0
1, 1167121, Note_on_c, 0, 82, 89
1, 1167126, Note_on_c, 0, 94, 87
1, 1167128, Note_on_c, 0, 91, 79
1, 1167134, Note_on_c, 0, 87, 70
1, 1167156, Note_on_c, 0, 82, 0
1, 1167158, Note_on_c, 0, 94, 0
1, 1167158, Control_c, 0, 64, 112
1, 1167161, Note_on_c, 0, 91, 0
1, 1167164, Note_on_c, 0, 87, 0
1, 1167164, Note_on_c, 0, 69, 38
1, 1167167, Poly_aftertouch_c, 0, 60, 127
1, 1167177, Control_c, 0, 64, 58
1, 1167190, Note_on_c, 0, 82, 81
1, 1167194, Control_c, 0, 64, 0
1, 1167197, Note_on_c, 0, 69, 0
1, 1167197, Note_on_c, 0, 94, 84
1, 1167201, Note_on_c, 0, 87, 81
1, 1167201, Note_on_c, 0, 91, 79
1, 1167201, Poly_aftertouch_c, 0, 61, 0
1, 1167204, Note_on_c, 0, 57, 0
1, 1167208, Poly_aftertouch_c, 0, 60, 0
1, 1167211, Note_on_c, 0, 63, 0
1, 1167211, Poly_aftertouch_c, 0, 63, 0
1, 1167251, Control_c, 0, 64, 75
1, 1167269, Control_c, 0, 64, 126
1, 1167323, Note_on_c, 0, 46, 105
1, 1167330, Note_on_c, 0, 34, 95
1, 1167348, Note_on_c, 0, 46, 0
1, 1167357, Note_on_c, 0, 34, 0
1, 1167379, Note_on_c, 0, 82, 0
1, 1167453, Note_on_c, 0, 34, 19
1, 1167480, Note_on_c, 0, 34, 0
1, 1167489, Note_on_c, 0, 94, 0
1, 1167516, Poly_aftertouch_c, 0, 94, 0
1, 1167521, Note_on_c, 0, 61, 54
1, 1167535, Note_on_c, 0, 87, 0
1, 1167582, Note_on_c, 0, 91, 0
1, 1167598, Note_on_c, 0, 61, 0
1, 1167650, Note_on_c, 0, 69, 80
1, 1167654, Note_on_c, 0, 57, 66
1, 1167657, Poly_aftertouch_c, 0, 34, 0
1, 1167665, Note_on_c, 0, 63, 72
1, 1167674, Note_on_c, 0, 60, 64
1, 1167676, Note_on_c, 0, 82, 95
1, 1167684, Note_on_c, 0, 69, 0
1, 1167685, Note_on_c, 0, 87, 76
1, 1167686, Note_on_c, 0, 94, 79
1, 1167687, Note_on_c, 0, 91, 79
1, 1167689, Note_on_c, 0, 57, 0
1, 1167698, Note_on_c, 0, 63, 0
1, 1167698, Poly_aftertouch_c, 0, 63, 0
1, 1167701, Note_on_c, 0, 82, 0
1, 1167711, Note_on_c, 0, 60, 0
1, 1167712, Note_on_c, 0, 87, 0
1, 1167713, Note_on_c, 0, 91, 0
1, 1167713, Note_on_c, 0, 94, 0
1, 1167770, Note_on_c, 0, 82, 97
1, 1167773, Note_on_c, 0, 94, 93
1, 1167774, Note_on_c, 0, 91, 82
1, 1167781, Note_on_c, 0, 57, 70
1, 1167781, Note_on_c, 0, 87, 78
1, 1167782, Note_on_c, 0, 69, 91
1, 1167793, Note_on_c, 0, 63, 74
1, 1167797, Note_on_c, 0, 60, 72
1, 1167810, Note_on_c, 0, 57, 0
1, 1167814, Note_on_c, 0, 82, 0
1, 1167819, Note_on_c, 0, 69, 0
1, 1167821, Note_on_c, 0, 58, 32
1, 1167824, Note_on_c, 0, 91, 0
1, 1167828, Note_on_c, 0, 87, 0
1, 1167829, Note_on_c, 0, 63, 0
1, 1167829, Poly_aftertouch_c, 0, 63, 0
1, 1167833, Note_on_c, 0, 60, 0
1, 1167834, Note_on_c, 0, 94, 0
1, 1167865, Note_on_c, 0, 58, 0
1, 1167961, Note_on_c, 0, 70, 88
1, 1167967, Note_on_c, 0, 58, 68
1, 1167972, Note_on_c, 0, 63, 70
1, 1168006, Note_on_c, 0, 70, 0
1, 1168010, Note_on_c, 0, 58, 0
1, 1168016, Note_on_c, 0, 81, 90
1, 1168024, Note_on_c, 0, 87, 89
1, 1168026, Note_on_c, 0, 93, 88
1, 1168028, Note_on_c, 0, 63, 0
1, 1168028, Poly_aftertouch_c, 0, 63, 0
1, 1168043, Note_on_c, 0, 81, 0
1, 1168043, Poly_aftertouch_c, 0, 81, 0
1, 1168046, Note_on_c, 0, 87, 0
1, 1168048, Note_on_c, 0, 93, 0
1, 1168102, Note_on_c, 0, 70, 98
1, 1168104, Note_on_c, 0, 81, 93
1, 1168106, Note_on_c, 0, 58, 88
1, 1168108, Note_on_c, 0, 87, 96
1, 1168108, Note_on_c, 0, 63, 80
1, 1168109, Note_on_c, 0, 93, 102
1, 1168136, Poly_aftertouch_c, 0, 90, 0
1, 1168147, Note_on_c, 0, 81, 0
1, 1168147, Poly_aftertouch_c, 0, 81, 0
1, 1168152, Note_on_c, 0, 93, 0
1, 1168157, Note_on_c, 0, 87, 0
1, 1168157, Note_on_c, 0, 70, 0
1, 1168167, Note_on_c, 0, 58, 0
1, 1168183, Note_on_c, 0, 63, 0
1, 1168183, Poly_aftertouch_c, 0, 63, 0
1, 1168299, Note_on_c, 0, 71, 89
1, 1168307, Note_on_c, 0, 63, 81
1, 1168312, Note_on_c, 0, 59, 74
1, 1168316, Control_c, 0, 64, 119
1, 1168336, Control_c, 0, 64, 91
1, 1168346, Note_on_c, 0, 59, 0
1, 1168353, Control_c, 0, 64, 73
1, 1168355, Note_on_c, 0, 71, 0
1, 1168372, Control_c, 0, 64, 75
1, 1168373, Note_on_c, 0, 63, 0
1, 1168373, Poly_aftertouch_c, 0, 63, 0
1, 1168374, Note_on_c, 0, 80, 82
1, 1168380, Note_on_c, 0, 92, 92
1, 1168391, Control_c, 0, 64, 83
1, 1168394, Note_on_c, 0, 87, 55
1, 1168395, Note_on_c, 0, 87, 0
1, 1168399, Note_on_c, 0, 82, 63
1, 1168400, Note_on_c, 0, 80, 0
1, 1168402, Note_on_c, 0, 92, 0
1, 1168410, Control_c, 0, 64, 93
1, 1168424, Note_on_c, 0, 82, 0
1, 1168429, Control_c, 0, 64, 107
1, 1168444, Note_on_c, 0, 90, 28
1, 1168445, Note_on_c, 0, 90, 0
1, 1168447, Control_c, 0, 64, 122
1, 1168454, Note_on_c, 0, 71, 98
1, 1168459, Note_on_c, 0, 59, 87
1, 1168460, Note_on_c, 0, 63, 89
1, 1168466, Control_c, 0, 64, 127
1, 1168471, Note_on_c, 0, 80, 97
1, 1168475, Note_on_c, 0, 92, 104
1, 1168485, Note_on_c, 0, 86, 84
1, 1168489, Note_on_c, 0, 59, 0
1, 1168490, Note_on_c, 0, 79, 76
1, 1168493, Note_on_c, 0, 71, 0
1, 1168511, Note_on_c, 0, 79, 0
1, 1168515, Note_on_c, 0, 80, 0
1, 1168522, Note_on_c, 0, 63, 0
1, 1168522, Poly_aftertouch_c, 0, 63, 0
1, 1168530, Note_on_c, 0, 86, 0
1, 1168533, Note_on_c, 0, 92, 0
1, 1168536, Note_on_c, 0, 87, 37
1, 1168537, Note_on_c, 0, 87, 0
1, 1168573, Poly_aftertouch_c, 0, 61, 0
1, 1168729, Control_c, 0, 64, 106
1, 1168747, Control_c, 0, 64, 62
1, 1168765, Control_c, 0, 64, 16
1, 1168779, Note_on_c, 0, 79, 96
1, 1168780, Note_on_c, 0, 81, 89
1, 1168780, Note_on_c, 0, 72, 100
1, 1168781, Note_on_c, 0, 91, 89
1, 1168783, Control_c, 0, 64, 47
1, 1168785, Note_on_c, 0, 87, 85
1, 1168788, Note_on_c, 0, 69, 88
1, 1168792, Note_on_c, 0, 60, 84
1, 1168792, Note_on_c, 0, 63, 80
1, 1168797, Note_on_c, 0, 89, 82
1, 1168802, Control_c, 0, 64, 70
1, 1168826, Note_on_c, 0, 89, 0
1, 1168829, Control_c, 0, 64, 84
1, 1168839, Control_c, 0, 64, 100
1, 1168844, Note_on_c, 0, 60, 0
1, 1168856, Note_on_c, 0, 72, 0
1, 1168859, Control_c, 0, 64, 119
1, 1168868, Note_on_c, 0, 79, 0
1, 1168869, Note_on_c, 0, 91, 0
1, 1168875, Control_c, 0, 64, 127
1, 1168931, Note_on_c, 0, 81, 0
1, 1168931, Poly_aftertouch_c, 0, 81, 0
1, 1168943, Note_on_c, 0, 63, 0
1, 1168943, Poly_aftertouch_c, 0, 63, 0
1, 1168945, Note_on_c, 0, 69, 0
1, 1168948, Note_on_c, 0, 87, 0
1, 1168971, Control_c, 0, 64, 112
1, 1168990, Control_c, 0, 64, 70
1, 1169010, Control_c, 0, 64, 30
1, 1169025, Control_c, 0, 64, 47
1, 1169026, Note_on_c, 0, 78, 97
1, 1169028, Note_on_c, 0, 90, 94
1, 1169029, Note_on_c, 0, 81, 91
1, 1169030, Note_on_c, 0, 72, 93
1, 1169033, Note_on_c, 0, 64, 84
1, 1169037, Note_on_c, 0, 69, 79
1, 1169039, Note_on_c, 0, 87, 80
1, 1169044, Control_c, 0, 64, 73
1, 1169065, Control_c, 0, 64, 93
1, 1169068, Note_on_c, 0, 60, 54
1, 1169083, Control_c, 0, 64, 123
1, 1169088, Note_on_c, 0, 72, 0
1, 1169101, Note_on_c, 0, 78, 0
1, 1169102, Control_c, 0, 64, 127
1, 1169103, Note_on_c, 0, 60, 0
1, 1169110, Note_on_c, 0, 69, 0
1, 1169111, Note_on_c, 0, 90, 0
1, 1169113, Note_on_c, 0, 64, 0
1, 1169166, Note_on_c, 0, 87, 0
1, 1169173, Note_on_c, 0, 81, 0
1, 1169173, Poly_aftertouch_c, 0, 81, 0
1, 1169214, Control_c, 0, 64, 122
1, 1169234, Control_c, 0, 64, 86
1, 1169252, Control_c, 0, 64, 50
1, 1169270, Control_c, 0, 64, 47
1, 1169279, Note_on_c, 0, 77, 103
1, 1169280, Note_on_c, 0, 73, 99
1, 1169281, Note_on_c, 0, 89, 100
1, 1169283, Note_on_c, 0, 85, 88
1, 1169283, Note_on_c, 0, 81, 92
1, 1169285, Note_on_c, 0, 69, 87
1, 1169290, Control_c, 0, 64, 62
1, 1169297, Note_on_c, 0, 65, 74
1, 1169301, Note_on_c, 0, 61, 72
1, 1169307, Control_c, 0, 64, 74
1, 1169326, Control_c, 0, 64, 85
1, 1169330, Note_on_c, 0, 73, 0
1, 1169332, Note_on_c, 0, 61, 0
1, 1169346, Note_on_c, 0, 63, 19
1, 1169346, Control_c, 0, 64, 100
1, 1169350, Note_on_c, 0, 77, 0
1, 1169350, Poly_aftertouch_c, 0, 77, 0
1, 1169351, Note_on_c, 0, 69, 0
1, 1169356, Note_on_c, 0, 65, 0
1, 1169356, Poly_aftertouch_c, 0, 65, 0
1, 1169363, Control_c, 0, 64, 112
1, 1169381, Note_on_c, 0, 89, 0
1, 1169382, Control_c, 0, 64, 118
1, 1169395, Note_on_c, 0, 81, 0
1, 1169395, Poly_aftertouch_c, 0, 81, 0
1, 1169407, Note_on_c, 0, 63, 0
1, 1169407, Poly_aftertouch_c, 0, 63, 0
1, 1169483, Note_on_c, 0, 85, 0
1, 1169606, Control_c, 0, 64, 122
1, 1169738, Control_c, 0, 64, 104
1, 1169756, Control_c, 0, 64, 70
1, 1169775, Control_c, 0, 64, 59
1, 1169796, Control_c, 0, 64, 127
1, 1169799, Note_on_c, 0, 81, 93
1, 1169799, Note_on_c, 0, 76, 103
1, 1169799, Note_on_c, 0, 73, 100
1, 1169800, Note_on_c, 0, 88, 98
1, 1169801, Note_on_c, 0, 85, 92
1, 1169802, Note_on_c, 0, 61, 87
1, 1169804, Note_on_c, 0, 69, 89
1, 1169811, Note_on_c, 0, 66, 84
1, 1169846, Note_on_c, 0, 73, 0
1, 1169852, Note_on_c, 0, 61, 0
1, 1169859, Note_on_c, 0, 69, 0
1, 1169877, Note_on_c, 0, 66, 0
1, 1169922, Poly_aftertouch_c, 0, 86, 127
1, 1169991, Poly_aftertouch_c, 0, 86, 0
1, 1170878, Control_c, 0, 64, 100
1, 1170897, Control_c, 0, 64, 57
1, 1170916, Control_c, 0, 64, 45
1, 1170933, Control_c, 0, 64, 94
1, 1170941, Note_on_c, 0, 34, 110
1, 1170948, Note_on_c, 0, 22, 101
1, 1170953, Control_c, 0, 64, 127
1, 1170990, Note_on_c, 0, 22, 0
1, 1170997, Note_on_c, 0, 34, 0
1, 1171244, Note_on_c, 0, 76, 0
1, 1171304, Note_on_c, 0, 88, 0
1, 1171354, Note_on_c, 0, 81, 0
1, 1171354, Poly_aftertouch_c, 0, 81, 0
1, 1171411, Note_on_c, 0, 85, 0
1, 1171942, Note_on_c, 0, 77, 99
1, 1171943, Note_on_c, 0, 82, 96
1, 1171945, Note_on_c, 0, 53, 78
1, 1171946, Note_on_c, 0, 89, 92
1, 1171947, Note_on_c, 0, 86, 94
1, 1171949, Note_on_c, 0, 65, 97
1, 1171953, Note_on_c, 0, 62, 90
1, 1171959, Note_on_c, 0, 58, 85
1, 1171984, Note_on_c, 0, 77, 0
1, 1171984, Poly_aftertouch_c, 0, 77, 0
1, 1171995, Note_on_c, 0, 65, 0
1, 1171995, Poly_aftertouch_c, 0, 65, 0
1, 1172000, Note_on_c, 0, 87, 22
1, 1172001, Note_on_c, 0, 87, 0
1, 1172001, Note_on_c, 0, 82, 0
1, 1172007, Note_on_c, 0, 53, 0
1, 1172009, Note_on_c, 0, 86, 0
1, 1172011, Note_on_c, 0, 62, 0
1, 1172015, Note_on_c, 0, 89, 0
1, 1172056, Note_on_c, 0, 58, 0
1, 1172474, Note_on_c, 0, 103, 105
1, 1172475, Note_on_c, 0, 65, 101
1, 1172478, Note_on_c, 0, 98, 93
1, 1172478, Note_on_c, 0, 62, 95
1, 1172479, Note_on_c, 0, 94, 99
1, 1172479, Note_on_c, 0, 91, 102
1, 1172480, Note_on_c, 0, 53, 85
1, 1172485, Note_on_c, 0, 58, 87
1, 1172512, Note_on_c, 0, 53, 0
1, 1172517, Note_on_c, 0, 65, 0
1, 1172517, Poly_aftertouch_c, 0, 65, 0
1, 1172524, Note_on_c, 0, 62, 0
1, 1172535, Note_on_c, 0, 58, 0
1, 1172537, Note_on_c, 0, 56, 25
1, 1172592, Note_on_c, 0, 56, 0
1, 1173407, Note_on_c, 0, 88, 78
1, 1173413, Note_on_c, 0, 103, 0
1, 1173417, Note_on_c, 0, 86, 68
1, 1173421, Note_on_c, 0, 77, 61
1, 1173432, Note_on_c, 0, 82, 62
1, 1173478, Note_on_c, 0, 91, 0
1, 1173485, Note_on_c, 0, 94, 0
1, 1173504, Note_on_c, 0, 98, 0
1, 1173567, Note_on_c, 0, 77, 0
1, 1173567, Poly_aftertouch_c, 0, 77, 0
1, 1173586, Note_on_c, 0, 88, 0
1, 1173601, Note_on_c, 0, 86, 0
1, 1173603, Note_on_c, 0, 82, 0
1, 1173632, Note_on_c, 0, 98, 75
1, 1173635, Note_on_c, 0, 94, 70
1, 1173637, Note_on_c, 0, 89, 68
1, 1173637, Note_on_c, 0, 101, 77
1, 1173669, Note_on_c, 0, 89, 0
1, 1173678, Note_on_c, 0, 101, 0
1, 1173691, Note_on_c, 0, 94, 0
1, 1173698, Note_on_c, 0, 98, 0
1, 1173731, Note_on_c, 0, 88, 73
1, 1173736, Note_on_c, 0, 86, 73
1, 1173746, Note_on_c, 0, 82, 71
1, 1173763, Note_on_c, 0, 86, 0
1, 1173764, Note_on_c, 0, 88, 0
1, 1173777, Note_on_c, 0, 82, 0
1, 1173826, Note_on_c, 0, 89, 68
1, 1173828, Note_on_c, 0, 94, 73
1, 1173829, Note_on_c, 0, 98, 76
1, 1173835, Note_on_c, 0, 101, 66
1, 1173858, Note_on_c, 0, 94, 0
1, 1173858, Note_on_c, 0, 89, 0
1, 1173858, Poly_aftertouch_c, 0, 77, 0
1, 1173860, Note_on_c, 0, 101, 0
1, 1173863, Note_on_c, 0, 98, 0
1, 1173900, Note_on_c, 0, 85, 88
1, 1173907, Note_on_c, 0, 82, 79
1, 1173932, Note_on_c, 0, 74, 44
1, 1173952, Note_on_c, 0, 85, 0
1, 1173959, Note_on_c, 0, 77, 28
1, 1173969, Note_on_c, 0, 74, 0
1, 1173973, Note_on_c, 0, 82, 0
1, 1173991, Note_on_c, 0, 89, 71
1, 1173993, Note_on_c, 0, 98, 79
1, 1173996, Note_on_c, 0, 86, 69
1, 1174000, Note_on_c, 0, 94, 71
1, 1174016, Note_on_c, 0, 86, 0
1, 1174016, Note_on_c, 0, 77, 0
1, 1174021, Note_on_c, 0, 89, 0
1, 1174023, Note_on_c, 0, 98, 0
1, 1174030, Note_on_c, 0, 94, 0
1, 1174050, Note_on_c, 0, 82, 67
1, 1174050, Note_on_c, 0, 85, 81
1, 1174060, Note_on_c, 0, 77, 57
1, 1174062, Note_on_c, 0, 74, 61
1, 1174077, Note_on_c, 0, 85, 0
1, 1174088, Note_on_c, 0, 82, 0
1, 1174096, Note_on_c, 0, 74, 0
1, 1174101, Note_on_c, 0, 77, 0
1, 1174105, Note_on_c, 0, 86, 77
1, 1174111, Note_on_c, 0, 89, 69
1, 1174115, Note_on_c, 0, 94, 88
1, 1174136, Note_on_c, 0, 86, 0
1, 1174136, Note_on_c, 0, 98, 51
1, 1174145, Note_on_c, 0, 89, 0
1, 1174149, Note_on_c, 0, 94, 0
1, 1174171, Note_on_c, 0, 98, 0
1, 1174205, Note_on_c, 0, 81, 81
1, 1174211, Note_on_c, 0, 70, 75
1, 1174225, Note_on_c, 0, 77, 63
1, 1174232, Note_on_c, 0, 81, 0
1, 1174232, Poly_aftertouch_c, 0, 81, 0
1, 1174239, Note_on_c, 0, 74, 30
1, 1174249, Note_on_c, 0, 77, 0
1, 1174263, Note_on_c, 0, 70, 0
1, 1174287, Note_on_c, 0, 74, 0
1, 1174289, Note_on_c, 0, 86, 76
1, 1174289, Note_on_c, 0, 82, 81
1, 1174291, Note_on_c, 0, 89, 71
1, 1174299, Note_on_c, 0, 94, 65
1, 1174313, Note_on_c, 0, 89, 0
1, 1174315, Note_on_c, 0, 82, 0
1, 1174318, Note_on_c, 0, 86, 0
1, 1174320, Note_on_c, 0, 94, 0
1, 1174338, Note_on_c, 0, 81, 81
1, 1174343, Note_on_c, 0, 77, 73
1, 1174347, Note_on_c, 0, 70, 55
1, 1174359, Note_on_c, 0, 81, 0
1, 1174359, Poly_aftertouch_c, 0, 81, 0
1, 1174371, Note_on_c, 0, 77, 0
1, 1174383, Note_on_c, 0, 70, 0
1, 1174387, Note_on_c, 0, 90, 85
1, 1174391, Note_on_c, 0, 82, 79
1, 1174401, Note_on_c, 0, 86, 71
1, 1174402, Note_on_c, 0, 94, 76
1, 1174419, Note_on_c, 0, 82, 0
1, 1174431, Note_on_c, 0, 86, 0
1, 1174432, Note_on_c, 0, 94, 0
1, 1174434, Note_on_c, 0, 90, 0
1, 1174455, Poly_aftertouch_c, 0, 74, 127
1, 1174481, Note_on_c, 0, 76, 90
1, 1174483, Note_on_c, 0, 65, 81
1, 1174496, Note_on_c, 0, 70, 57
1, 1174518, Note_on_c, 0, 65, 0
1, 1174518, Note_on_c, 0, 76, 0
1, 1174518, Poly_aftertouch_c, 0, 65, 0
1, 1174531, Note_on_c, 0, 70, 0
1, 1174535, Poly_aftertouch_c, 0, 74, 0
1, 1174557, Note_on_c, 0, 77, 83
1, 1174559, Note_on_c, 0, 86, 79
1, 1174561, Note_on_c, 0, 82, 77
1, 1174588, Note_on_c, 0, 77, 0
1, 1174589, Note_on_c, 0, 82, 0
1, 1174589, Note_on_c, 0, 86, 0
1, 1174595, Note_on_c, 0, 91, 37
1, 1174599, Note_on_c, 0, 79, 43
1, 1174611, Note_on_c, 0, 89, 36
1, 1174612, Note_on_c, 0, 76, 82
1, 1174616, Note_on_c, 0, 74, 75
1, 1174621, Note_on_c, 0, 70, 72
1, 1174633, Note_on_c, 0, 79, 0
1, 1174633, Note_on_c, 0, 65, 63
1, 1174636, Note_on_c, 0, 76, 0
1, 1174637, Note_on_c, 0, 91, 0
1, 1174644, Note_on_c, 0, 74, 0
1, 1174653, Note_on_c, 0, 65, 0
1, 1174653, Poly_aftertouch_c, 0, 65, 0
1, 1174660, Note_on_c, 0, 89, 0
1, 1174660, Note_on_c, 0, 89, 67
1, 1174668, Note_on_c, 0, 77, 92
1, 1174669, Note_on_c, 0, 70, 0
1, 1174670, Note_on_c, 0, 86, 84
1, 1174671, Note_on_c, 0, 82, 87
1, 1174692, Note_on_c, 0, 77, 0
1, 1174702, Note_on_c, 0, 86, 0
1, 1174705, Note_on_c, 0, 89, 0
1, 1174706, Poly_aftertouch_c, 0, 89, 0
1, 1174725, Note_on_c, 0, 82, 0
1, 1174761, Note_on_c, 0, 73, 96
1, 1174764, Note_on_c, 0, 65, 65
1, 1174769, Note_on_c, 0, 70, 84
1, 1174782, Note_on_c, 0, 62, 60
1, 1174804, Note_on_c, 0, 70, 0
1, 1174807, Note_on_c, 0, 73, 0
1, 1174810, Note_on_c, 0, 62, 0
1, 1174835, Note_on_c, 0, 77, 85
1, 1174838, Note_on_c, 0, 74, 80
1, 1174839, Note_on_c, 0, 86, 83
1, 1174844, Note_on_c, 0, 82, 79
1, 1174862, Note_on_c, 0, 77, 0
1, 1174867, Note_on_c, 0, 86, 0
1, 1174869, Note_on_c, 0, 74, 0
1, 1174870, Note_on_c, 0, 82, 0
1, 1174887, Note_on_c, 0, 73, 85
1, 1174896, Note_on_c, 0, 70, 82
1, 1174899, Note_on_c, 0, 62, 70
1, 1174901, Note_on_c, 0, 65, 0
1, 1174901, Note_on_c, 0, 65, 34
1, 1174921, Note_on_c, 0, 70, 0
1, 1174928, Note_on_c, 0, 73, 0
1, 1174933, Note_on_c, 0, 62, 0
1, 1174945, Note_on_c, 0, 74, 88
1, 1174946, Note_on_c, 0, 82, 84
1, 1174949, Note_on_c, 0, 65, 0
1, 1174949, Poly_aftertouch_c, 0, 65, 0
1, 1174954, Note_on_c, 0, 77, 74
1, 1174965, Note_on_c, 0, 86, 58
1, 1174969, Note_on_c, 0, 74, 0
1, 1174987, Note_on_c, 0, 77, 0
1, 1174994, Note_on_c, 0, 86, 0
1, 1174996, Note_on_c, 0, 82, 0
1, 1175036, Note_on_c, 0, 69, 87
1, 1175041, Note_on_c, 0, 58, 79
1, 1175050, Note_on_c, 0, 62, 51
1, 1175050, Note_on_c, 0, 65, 69
1, 1175064, Note_on_c, 0, 69, 0
1, 1175087, Note_on_c, 0, 65, 0
1, 1175087, Poly_aftertouch_c, 0, 65, 0
1, 1175091, Note_on_c, 0, 62, 0
1, 1175103, Note_on_c, 0, 74, 84
1, 1175104, Note_on_c, 0, 70, 88
1, 1175106, Note_on_c, 0, 77, 79
1, 1175110, Note_on_c, 0, 82, 80
1, 1175115, Note_on_c, 0, 58, 0
1, 1175126, Note_on_c, 0, 70, 0
1, 1175132, Note_on_c, 0, 77, 0
1, 1175139, Note_on_c, 0, 74, 0
1, 1175141, Note_on_c, 0, 82, 0
1, 1175172, Note_on_c, 0, 69, 80
1, 1175175, Note_on_c, 0, 65, 74
1, 1175183, Note_on_c, 0, 58, 51
1, 1175190, Note_on_c, 0, 62, 57
1, 1175206, Note_on_c, 0, 70, 89
1, 1175208, Note_on_c, 0, 65, 0
1, 1175208, Poly_aftertouch_c, 0, 65, 0
1, 1175209, Note_on_c, 0, 69, 0
1, 1175219, Note_on_c, 0, 82, 69
1, 1175219, Note_on_c, 0, 77, 82
1, 1175222, Note_on_c, 0, 74, 71
1, 1175224, Note_on_c, 0, 62, 0
1, 1175224, Note_on_c, 0, 58, 0
1, 1175238, Note_on_c, 0, 70, 0
1, 1175245, Note_on_c, 0, 82, 0
1, 1175257, Note_on_c, 0, 74, 0
1, 1175257, Note_on_c, 0, 77, 0
1, 1175307, Note_on_c, 0, 53, 85
1, 1175310, Note_on_c, 0, 64, 87
1, 1175310, Note_on_c, 0, 62, 83
1, 1175325, Note_on_c, 0, 58, 62
1, 1175340, Note_on_c, 0, 64, 0
1, 1175347, Note_on_c, 0, 62, 0
1, 1175351, Note_on_c, 0, 53, 0
1, 1175360, Note_on_c, 0, 58, 0
1, 1175375, Note_on_c, 0, 65, 87
1, 1175376, Note_on_c, 0, 74, 79
1, 1175380, Note_on_c, 0, 70, 78
1, 1175384, Note_on_c, 0, 77, 81
1, 1175401, Note_on_c, 0, 65, 0
1, 1175401, Poly_aftertouch_c, 0, 65, 0
1, 1175408, Note_on_c, 0, 70, 0
1, 1175417, Note_on_c, 0, 77, 0
1, 1175424, Note_on_c, 0, 74, 0
1, 1175435, Note_on_c, 0, 64, 80
1, 1175442, Note_on_c, 0, 62, 74
1, 1175444, Note_on_c, 0, 58, 69
1, 1175455, Note_on_c, 0, 53, 51
1, 1175469, Note_on_c, 0, 62, 0
1, 1175472, Note_on_c, 0, 64, 0
1, 1175487, Note_on_c, 0, 65, 90
1, 1175489, Note_on_c, 0, 74, 74
1, 1175493, Note_on_c, 0, 70, 83
1, 1175494, Note_on_c, 0, 77, 72
1, 1175497, Note_on_c, 0, 58, 0
1, 1175504, Note_on_c, 0, 53, 0
1, 1175510, Note_on_c, 0, 65, 0
1, 1175510, Poly_aftertouch_c, 0, 65, 0
1, 1175523, Note_on_c, 0, 77, 0
1, 1175530, Note_on_c, 0, 70, 0
1, 1175533, Note_on_c, 0, 74, 0
1, 1175584, Note_on_c, 0, 61, 83
1, 1175587, Note_on_c, 0, 58, 82
1, 1175590, Note_on_c, 0, 50, 70
1, 1175600, Note_on_c, 0, 53, 70
1, 1175614, Note_on_c, 0, 61, 0
1, 1175629, Note_on_c, 0, 50, 0
1, 1175635, Note_on_c, 0, 53, 0
1, 1175657, Note_on_c, 0, 65, 77
1, 1175657, Note_on_c, 0, 70, 82
1, 1175659, Note_on_c, 0, 58, 0
1, 1175662, Note_on_c, 0, 62, 74
1, 1175663, Note_on_c, 0, 74, 77
1, 1175683, Note_on_c, 0, 70, 0
1, 1175685, Note_on_c, 0, 65, 0
1, 1175685, Poly_aftertouch_c, 0, 65, 0
1, 1175687, Note_on_c, 0, 74, 0
1, 1175701, Note_on_c, 0, 62, 0
1, 1175711, Note_on_c, 0, 61, 85
1, 1175724, Note_on_c, 0, 58, 71
1, 1175741, Note_on_c, 0, 50, 51
1, 1175744, Note_on_c, 0, 53, 62
1, 1175749, Note_on_c, 0, 58, 0
1, 1175756, Poly_aftertouch_c, 0, 68, 0
1, 1175757, Note_on_c, 0, 61, 0
1, 1175760, Note_on_c, 0, 62, 95
1, 1175766, Note_on_c, 0, 70, 89
1, 1175772, Note_on_c, 0, 65, 74
1, 1175773, Note_on_c, 0, 50, 0
1, 1175777, Note_on_c, 0, 74, 67
1, 1175783, Note_on_c, 0, 53, 0
1, 1175793, Note_on_c, 0, 62, 0
1, 1175802, Note_on_c, 0, 74, 0
1, 1175807, Note_on_c, 0, 65, 0
1, 1175807, Poly_aftertouch_c, 0, 65, 0
1, 1175814, Note_on_c, 0, 70, 0
1, 1175834, Poly_aftertouch_c, 0, 66, 0
1, 1175866, Note_on_c, 0, 57, 88
1, 1175866, Poly_aftertouch_c, 0, 54, 0
1, 1175867, Note_on_c, 0, 53, 77
1, 1175868, Note_on_c, 0, 46, 81
1, 1175875, Note_on_c, 0, 50, 63
1, 1175892, Note_on_c, 0, 57, 0
1, 1175899, Poly_aftertouch_c, 0, 66, 0
1, 1175906, Note_on_c, 0, 53, 0
1, 1175918, Note_on_c, 0, 50, 0
1, 1175923, Note_on_c, 0, 46, 0
1, 1175944, Note_on_c, 0, 62, 80
1, 1175947, Note_on_c, 0, 58, 81
1, 1175955, Note_on_c, 0, 65, 63
1, 1175957, Note_on_c, 0, 70, 66
1, 1175975, Note_on_c, 0, 58, 0
1, 1175976, Note_on_c, 0, 65, 0
1, 1175976, Poly_aftertouch_c, 0, 65, 0
1, 1175977, Note_on_c, 0, 62, 0
1, 1175984, Note_on_c, 0, 70, 0
1, 1175993, Note_on_c, 0, 57, 85
1, 1176001, Note_on_c, 0, 53, 72
1, 1176010, Note_on_c, 0, 46, 67
1, 1176019, Note_on_c, 0, 57, 0
1, 1176020, Note_on_c, 0, 50, 55
1, 1176042, Note_on_c, 0, 53, 0
1, 1176044, Note_on_c, 0, 58, 81
1, 1176045, Note_on_c, 0, 65, 84
1, 1176046, Note_on_c, 0, 46, 0
1, 1176052, Note_on_c, 0, 70, 78
1, 1176062, Note_on_c, 0, 50, 0
1, 1176063, Note_on_c, 0, 62, 69
1, 1176079, Note_on_c, 0, 58, 0
1, 1176093, Note_on_c, 0, 70, 0
1, 1176095, Note_on_c, 0, 62, 0
1, 1176104, Note_on_c, 0, 65, 0
1, 1176104, Poly_aftertouch_c, 0, 65, 0
1, 1176140, Note_on_c, 0, 52, 93
1, 1176143, Note_on_c, 0, 50, 87
1, 1176146, Note_on_c, 0, 41, 84
1, 1176161, Note_on_c, 0, 46, 68
1, 1176181, Note_on_c, 0, 52, 0
1, 1176194, Note_on_c, 0, 41, 0
1, 1176200, Note_on_c, 0, 46, 0
1, 1176210, Note_on_c, 0, 50, 0
1, 1176242, Note_on_c, 0, 62, 64
1, 1176247, Note_on_c, 0, 58, 76
1, 1176247, Note_on_c, 0, 53, 80
1, 1176251, Note_on_c, 0, 65, 76
1, 1176272, Note_on_c, 0, 53, 0
1, 1176273, Note_on_c, 0, 58, 0
1, 1176275, Note_on_c, 0, 52, 87
1, 1176279, Note_on_c, 0, 50, 78
1, 1176283, Note_on_c, 0, 62, 0
1, 1176285, Note_on_c, 0, 46, 80
1, 1176288, Note_on_c, 0, 41, 73
1, 1176289, Note_on_c, 0, 65, 0
1, 1176289, Poly_aftertouch_c, 0, 65, 0
1, 1176297, Note_on_c, 0, 52, 0
1, 1176314, Note_on_c, 0, 50, 0
1, 1176333, Note_on_c, 0, 41, 0
1, 1176335, Note_on_c, 0, 65, 78
1, 1176336, Note_on_c, 0, 53, 96
1, 1176339, Note_on_c, 0, 62, 70
1, 1176339, Control_c, 0, 64, 81
1, 1176342, Note_on_c, 0, 46, 0
1, 1176342, Note_on_c, 0, 58, 87
1, 1176350, Poly_aftertouch_c, 0, 63, 0
1, 1176357, Control_c, 0, 64, 0
1, 1176548, Note_on_c, 0, 53, 0
1, 1176586, Note_on_c, 0, 65, 0
1, 1176586, Poly_aftertouch_c, 0, 65, 0
1, 1176587, Note_on_c, 0, 34, 108
1, 1176594, Note_on_c, 0, 22, 97
1, 1176597, Note_on_c, 0, 58, 0
1, 1176599, Control_c, 0, 64, 41
1, 1176602, Note_on_c, 0, 62, 0
1, 1176620, Control_c, 0, 64, 127
1, 1176625, Note_on_c, 0, 22, 0
1, 1176633, Note_on_c, 0, 34, 0
1, 1176862, Note_on_c, 0, 58, 101
1, 1176865, Note_on_c, 0, 56, 96
1, 1176867, Note_on_c, 0, 70, 92
1, 1176869, Note_on_c, 0, 65, 83
1, 1176870, Note_on_c, 0, 62, 88
1, 1176873, Note_on_c, 0, 53, 63
1, 1176876, Note_on_c, 0, 46, 80
1, 1176901, Note_on_c, 0, 50, 59
1, 1176903, Note_on_c, 0, 56, 0
1, 1176903, Poly_aftertouch_c, 0, 61, 127
1, 1176908, Control_c, 0, 64, 100
1, 1176911, Note_on_c, 0, 53, 0
1, 1176916, Control_c, 0, 64, 25
1, 1176925, Poly_aftertouch_c, 0, 61, 0
1, 1176930, Note_on_c, 0, 50, 0
1, 1176934, Note_on_c, 0, 46, 0
1, 1176935, Control_c, 0, 64, 0
1, 1177091, Note_on_c, 0, 58, 0
1, 1177104, Note_on_c, 0, 46, 103
1, 1177109, Note_on_c, 0, 62, 0
1, 1177111, Note_on_c, 0, 34, 95
1, 1177119, Note_on_c, 0, 65, 0
1, 1177119, Poly_aftertouch_c, 0, 65, 0
1, 1177123, Control_c, 0, 64, 127
1, 1177132, Note_on_c, 0, 70, 0
1, 1177140, Note_on_c, 0, 46, 0
1, 1177145, Note_on_c, 0, 34, 0
1, 1177307, Poly_aftertouch_c, 0, 34, 0
1, 1177441, Note_on_c, 0, 69, 97
1, 1177442, Note_on_c, 0, 70, 100
1, 1177443, Note_on_c, 0, 57, 83
1, 1177444, Note_on_c, 0, 82, 95
1, 1177446, Note_on_c, 0, 75, 92
1, 1177448, Note_on_c, 0, 78, 89
1, 1177452, Note_on_c, 0, 66, 90
1, 1177455, Note_on_c, 0, 63, 81
1, 1177480, Note_on_c, 0, 69, 0
1, 1177498, Note_on_c, 0, 66, 0
1, 1177505, Note_on_c, 0, 57, 0
1, 1177510, Note_on_c, 0, 63, 0
1, 1177667, Control_c, 0, 64, 95
1, 1177685, Control_c, 0, 64, 51
1, 1177702, Control_c, 0, 64, 0
1, 1177763, Note_on_c, 0, 46, 110
1, 1177773, Note_on_c, 0, 34, 95
1, 1177776, Note_on_c, 0, 70, 0
1, 1177776, Control_c, 0, 64, 108
1, 1177790, Note_on_c, 0, 82, 0
1, 1177795, Note_on_c, 0, 75, 0
1, 1177795, Control_c, 0, 64, 127
1, 1177802, Note_on_c, 0, 78, 0
1, 1177803, Note_on_c, 0, 34, 0
1, 1177807, Note_on_c, 0, 46, 0
1, 1177983, Poly_aftertouch_c, 0, 34, 0
1, 1178142, Note_on_c, 0, 55, 64
1, 1178200, Note_on_c, 0, 60, 67
1, 1178207, Note_on_c, 0, 55, 0
1, 1178264, Note_on_c, 0, 64, 81
1, 1178281, Note_on_c, 0, 60, 0
1, 1178323, Note_on_c, 0, 64, 0
1, 1178399, Note_on_c, 0, 82, 108
1, 1178401, Note_on_c, 0, 84, 93
1, 1178404, Note_on_c, 0, 94, 103
1, 1178404, Note_on_c, 0, 70, 102
1, 1178405, Note_on_c, 0, 88, 89
1, 1178406, Note_on_c, 0, 91, 82
1, 1178444, Note_on_c, 0, 70, 0
1, 1178499, Note_on_c, 0, 85, 28
1, 1178500, Note_on_c, 0, 85, 0
1, 1178520, Note_on_c, 0, 82, 0
1, 1178550, Note_on_c, 0, 94, 0
1, 1178590, Note_on_c, 0, 91, 0
1, 1178594, Note_on_c, 0, 88, 0
1, 1178594, Note_on_c, 0, 84, 0
1, 1179385, Control_c, 0, 64, 100
1, 1179406, Control_c, 0, 64, 58
1, 1179410, Note_on_c, 0, 46, 102
1, 1179411, Note_on_c, 0, 58, 90
1, 1179413, Note_on_c, 0, 34, 108
1, 1179422, Note_on_c, 0, 22, 98
1, 1179425, Control_c, 0, 64, 52
1, 1179442, Control_c, 0, 64, 77
1, 1179451, Note_on_c, 0, 54, 57
1, 1179452, Note_on_c, 0, 22, 0
1, 1179460, Control_c, 0, 64, 106
1, 1179461, Note_on_c, 0, 34, 0
1, 1179470, Note_on_c, 0, 56, 33
1, 1179479, Control_c, 0, 64, 127
1, 1179506, Poly_aftertouch_c, 0, 51, 0
1, 1179507, Note_on_c, 0, 54, 0
1, 1179517, Note_on_c, 0, 56, 0
1, 1179537, Note_on_c, 0, 46, 0
1, 1179580, Note_on_c, 0, 58, 0
1, 1180561, Note_on_c, 0, 53, 97
1, 1180566, Note_on_c, 0, 41, 87
1, 1180567, Note_on_c, 0, 70, 99
1, 1180568, Note_on_c, 0, 74, 90
1, 1180569, Note_on_c, 0, 50, 89
1, 1180570, Note_on_c, 0, 82, 90
1, 1180575, Note_on_c, 0, 77, 89
1, 1180576, Note_on_c, 0, 46, 83
1, 1180605, Note_on_c, 0, 41, 0
1, 1180609, Note_on_c, 0, 53, 0
1, 1180627, Note_on_c, 0, 50, 0
1, 1180629, Note_on_c, 0, 46, 0
1, 1180630, Note_on_c, 0, 70, 0
1, 1180633, Note_on_c, 0, 44, 10
1, 1180654, Note_on_c, 0, 82, 0
1, 1180685, Note_on_c, 0, 74, 0
1, 1180693, Note_on_c, 0, 77, 0
1, 1180714, Note_on_c, 0, 44, 0
1, 1181050, Note_on_c, 0, 70, 101
1, 1181051, Note_on_c, 0, 62, 88
1, 1181051, Note_on_c, 0, 65, 99
1, 1181051, Note_on_c, 0, 74, 90
1, 1181053, Note_on_c, 0, 82, 93
1, 1181056, Note_on_c, 0, 58, 80
1, 1181056, Note_on_c, 0, 53, 82
1, 1181059, Note_on_c, 0, 77, 86
1, 1181089, Note_on_c, 0, 53, 0
1, 1181102, Note_on_c, 0, 65, 0
1, 1181102, Poly_aftertouch_c, 0, 65, 0
1, 1181109, Note_on_c, 0, 62, 0
1, 1181124, Note_on_c, 0, 58, 0
1, 1181176, Poly_aftertouch_c, 0, 56, 127
1, 1181198, Poly_aftertouch_c, 0, 56, 0
1, 1183457, Note_on_c, 0, 70, 0
1, 1183615, Note_on_c, 0, 82, 0
1, 1183937, Poly_aftertouch_c, 0, 77, 24
1, 1183958, Note_on_c, 0, 74, 0
1, 1184012, Note_on_c, 0, 77, 0
1, 1184012, Poly_aftertouch_c, 0, 77, 0
1, 1184323, Control_c, 0, 64, 108
1, 1184341, Control_c, 0, 64, 85
1, 1184360, Control_c, 0, 64, 62
1, 1184379, Control_c, 0, 64, 35
1, 1184397, Control_c, 0, 64, 0
1, 1192361, Poly_aftertouch_c, 0, 24, 0
1, 1192361, Poly_aftertouch_c, 0, 65, 0
1, 1192361, Poly_aftertouch_c, 0, 77, 0
1, 1192361, Poly_aftertouch_c, 0, 81, 0
1, 1192361, End_track
0, 0, End_of_file
