0, 0, Header, 1, 3, 360
1, 0, Start_track
1, 0, Title_t, "Symphony No 1 in D Minor, Opus 13"
1, 0, Copyright_t, "Copyright (C) "
1, 0, Text_t, "Rachmaninoff\012"
1, 0, Time_signature, 4, 2, 24, 8
1, 0, Key_signature, -1, "major"
1, 0, Tempo, 1463415
1, 1350, Tempo, 1463415
1, 8640, Tempo, 1463415
1, 8724, Tempo, 1486989
1, 8809, Tempo, 1510954
1, 8893, Tempo, 1536098
1, 8978, Tempo, 1561687
1, 9062, Tempo, 1588562
1, 9146, Tempo, 1615944
1, 9231, Tempo, 1644737
1, 9315, Tempo, 1674107
1, 9399, Tempo, 1705030
1, 9484, Tempo, 1736614
1, 9568, Tempo, 1769912
1, 9653, Tempo, 1803969
1, 9737, Tempo, 1839926
1, 9821, Tempo, 1876759
1, 9906, Tempo, 1915709
1, 9990, Tempo, 1955671
1, 10079, Tempo, 2000000
1, 10080, Tempo, 500000
1, 33480, Tempo, 500000
1, 33702, Tempo, 507442
1, 33924, Tempo, 515110
1, 34147, Tempo, 523013
1, 34591, Tempo, 539568
1, 34813, Tempo, 548246
1, 35036, Tempo, 557258
1, 35258, Tempo, 566519
1, 35480, Tempo, 576092
1, 35702, Tempo, 585995
1, 36146, Tempo, 606857
1, 36369, Tempo, 617856
1, 36591, Tempo, 629261
1, 36813, Tempo, 641094
1, 37035, Tempo, 653381
1, 37266, Tempo, 666667
1, 37440, Tempo, 500000
1, 68760, Tempo, 500000
1, 68853, Tempo, 507442
1, 68946, Tempo, 515110
1, 69131, Tempo, 531114
1, 69224, Tempo, 539520
1, 69317, Tempo, 548196
1, 69410, Tempo, 557155
1, 69503, Tempo, 566412
1, 69596, Tempo, 575982
1, 69688, Tempo, 585823
1, 69781, Tempo, 596066
1, 69874, Tempo, 606673
1, 69967, Tempo, 617665
1, 70059, Tempo, 629063
1, 70152, Tempo, 640889
1, 70245, Tempo, 653097
1, 70344, Tempo, 666667
1, 70560, Tempo, 500000
1, 73080, Tempo, 500000
1, 73176, Tempo, 507400
1, 73271, Tempo, 515021
1, 73463, Tempo, 530926
1, 73558, Tempo, 539277
1, 73654, Tempo, 547895
1, 73749, Tempo, 556793
1, 73845, Tempo, 565931
1, 73941, Tempo, 575429
1, 74036, Tempo, 585252
1, 74132, Tempo, 595415
1, 74228, Tempo, 605938
1, 74323, Tempo, 616776
1, 74419, Tempo, 628075
1, 74514, Tempo, 639795
1, 74610, Tempo, 651961
1, 74721, Tempo, 666667
1, 74880, Tempo, 500000
1, 85420, Tempo, 495868
1, 85680, Tempo, 491803
1, 85860, Tempo, 487805
1, 86040, Tempo, 483871
1, 86220, Tempo, 480000
1, 86400, Tempo, 476190
1, 118440, Tempo, 476190
1, 118556, Tempo, 483325
1, 118671, Tempo, 490717
1, 118786, Tempo, 498297
1, 118901, Tempo, 506116
1, 119017, Tempo, 514227
1, 119132, Tempo, 522557
1, 119247, Tempo, 531208
1, 119363, Tempo, 540103
1, 119593, Tempo, 558867
1, 119709, Tempo, 568720
1, 119824, Tempo, 578927
1, 119939, Tempo, 589565
1, 120054, Tempo, 600540
1, 120170, Tempo, 611933
1, 120285, Tempo, 623830
1, 120420, Tempo, 638298
1, 120600, Tempo, 666667
1, 120780, Tempo, 857143
1, 120960, Tempo, 666667
1, 122400, Tempo, 666667
1, 122460, Tempo, 676819
1, 122521, Tempo, 687364
1, 122582, Tempo, 698162
1, 122642, Tempo, 709304
1, 122702, Tempo, 720807
1, 122763, Tempo, 732780
1, 122823, Tempo, 745064
1, 122884, Tempo, 757767
1, 122944, Tempo, 771010
1, 123005, Tempo, 784621
1, 123065, Tempo, 798722
1, 123126, Tempo, 813449
1, 123186, Tempo, 828615
1, 123247, Tempo, 844357
1, 123307, Tempo, 860709
1, 123368, Tempo, 877835
1, 123428, Tempo, 895522
1, 123840, Tempo, 983607
1, 124560, Tempo, 983607
1, 124740, Tempo, 983607
1, 125280, Time_signature, 3, 2, 24, 8
1, 127440, Time_signature, 4, 2, 24, 8
1, 127440, Tempo, 983607
1, 131760, Time_signature, 3, 2, 24, 8
1, 133920, Time_signature, 4, 2, 24, 8
1, 138240, Tempo, 983607
1, 138324, Tempo, 999001
1, 138409, Tempo, 1014885
1, 138493, Tempo, 1031282
1, 138578, Tempo, 1048035
1, 138662, Tempo, 1065530
1, 138746, Tempo, 1083619
1, 138831, Tempo, 1102333
1, 138915, Tempo, 1121705
1, 138999, Tempo, 1141770
1, 139084, Tempo, 1162340
1, 139168, Tempo, 1183899
1, 139253, Tempo, 1206273
1, 139337, Tempo, 1229508
1, 139421, Tempo, 1253656
1, 139506, Tempo, 1278772
1, 139590, Tempo, 1304631
1, 139679, Tempo, 1333333
1, 139680, Time_signature, 7, 2, 24, 8
1, 139680, Tempo, 1224490
1, 146399, Tempo, 1224490
1, 146437, Tempo, 1243523
1, 146475, Tempo, 1262892
1, 146513, Tempo, 1283148
1, 146551, Tempo, 1304064
1, 146589, Tempo, 1325381
1, 146610, Tempo, 5000000
1, 146627, Tempo, 1347709
1, 146665, Tempo, 1370802
1, 146700, Tempo, 1666667
1, 146703, Tempo, 1394376
1, 146741, Tempo, 1419111
1, 146779, Tempo, 1444739
1, 146817, Tempo, 1470949
1, 146855, Tempo, 1498501
1, 146893, Tempo, 1527106
1, 146931, Tempo, 1556824
1, 146969, Tempo, 1587302
1, 147007, Tempo, 1619433
1, 147060, Tempo, 1666667
1, 147240, Time_signature, 4, 2, 24, 8
1, 147960, Tempo, 967742
1, 160830, Tempo, 5000000
1, 160920, Tempo, 416667
1, 161280, Tempo, 416667
1, 197640, Time_signature, 2, 2, 24, 8
1, 198360, Time_signature, 4, 2, 24, 8
1, 198360, Key_signature, 0, "major"
1, 249840, Tempo, 444444
1, 250200, Tempo, 454545
1, 289080, Tempo, 434783
1, 304920, Tempo, 434783
1, 304993, Tempo, 441274
1, 305066, Tempo, 447962
1, 305139, Tempo, 454856
1, 305213, Tempo, 461965
1, 305286, Tempo, 469337
1, 305359, Tempo, 476910
1, 305432, Tempo, 484731
1, 305505, Tempo, 492813
1, 305578, Tempo, 501169
1, 305651, Tempo, 509814
1, 305724, Tempo, 518762
1, 305798, Tempo, 528030
1, 305871, Tempo, 537683
1, 305944, Tempo, 547645
1, 306017, Tempo, 557984
1, 306090, Tempo, 568720
1, 306180, Tempo, 582524
1, 306360, Key_signature, -1, "major"
1, 306360, Tempo, 500000
1, 355320, Tempo, 500000
1, 355631, Tempo, 507442
1, 355942, Tempo, 515110
1, 356252, Tempo, 523013
1, 356874, Tempo, 539568
1, 357185, Tempo, 548196
1, 357495, Tempo, 557155
1, 357806, Tempo, 566412
1, 358428, Tempo, 585880
1, 358739, Tempo, 596125
1, 359049, Tempo, 606735
1, 359671, Tempo, 629129
1, 359982, Tempo, 640957
1, 360293, Tempo, 653239
1, 360620, Tempo, 666667
1, 361080, Key_signature, 2, "major"
1, 361080, Tempo, 952381
1, 362520, Time_signature, 3, 2, 24, 8
1, 364680, Time_signature, 4, 2, 24, 8
1, 369000, Time_signature, 3, 2, 24, 8
1, 371160, Time_signature, 4, 2, 24, 8
1, 375480, Tempo, 952381
1, 375543, Tempo, 966806
1, 375607, Tempo, 981515
1, 375670, Tempo, 996843
1, 375733, Tempo, 1012658
1, 375797, Tempo, 1028983
1, 375860, Tempo, 1045661
1, 375923, Tempo, 1063076
1, 375986, Tempo, 1081081
1, 376050, Tempo, 1099707
1, 376113, Tempo, 1118777
1, 376176, Tempo, 1138736
1, 376239, Tempo, 1159420
1, 376303, Tempo, 1180870
1, 376366, Tempo, 1202887
1, 376429, Tempo, 1225991
1, 376493, Tempo, 1250000
1, 376560, Tempo, 1276596
1, 376920, Time_signature, 7, 2, 24, 8
1, 376920, Tempo, 1224490
1, 387000, Time_signature, 4, 2, 24, 8
1, 389520, Tempo, 1224490
1, 389543, Tempo, 1255756
1, 389565, Tempo, 1288937
1, 389588, Tempo, 1323627
1, 389610, Tempo, 1360236
1, 389633, Tempo, 1399254
1, 389655, Tempo, 1440230
1, 389678, Tempo, 1483680
1, 389700, Tempo, 1530222
1, 389723, Tempo, 1579363
1, 389759, Tempo, 1666667
1, 389880, Tempo, 952381
1, 401400, Key_signature, -1, "major"
1, 401400, Tempo, 454545
1, 412920, Time_signature, 6, 2, 24, 8
1, 421560, Time_signature, 4, 2, 24, 8
1, 421560, Tempo, 434783
1, 443160, Time_signature, 3, 2, 24, 8
1, 444240, Time_signature, 4, 2, 24, 8
1, 448560, Time_signature, 3, 2, 24, 8
1, 449640, Time_signature, 4, 2, 24, 8
1, 466920, Time_signature, 6, 2, 24, 8
1, 466920, Tempo, 416667
1, 484200, Tempo, 416667
1, 484560, Tempo, 412712
1, 484920, Tempo, 408831
1, 485280, Tempo, 404995
1, 485640, Tempo, 401257
1, 486000, Tempo, 397588
1, 486360, Tempo, 393985
1, 486720, Tempo, 390422
1, 487080, Tempo, 386947
1, 487440, Tempo, 383534
1, 487800, Tempo, 380180
1, 488160, Tempo, 376884
1, 488520, Time_signature, 4, 2, 24, 8
1, 488520, Tempo, 373622
1, 488880, Tempo, 370439
1, 489240, Tempo, 367309
1, 489600, Tempo, 364232
1, 489960, Tempo, 361185
1, 490320, Tempo, 358209
1, 490680, Tempo, 355282
1, 491040, Tempo, 352402
1, 491400, Time_signature, 3, 2, 24, 8
1, 491400, Tempo, 349569
1, 491760, Tempo, 346761
1, 492120, Tempo, 344017
1, 492480, Tempo, 341316
1, 492840, Tempo, 338658
1, 493200, Tempo, 336040
1, 493560, Time_signature, 2, 2, 24, 8
1, 493560, Tempo, 333444
1, 493920, Tempo, 330907
1, 494280, Tempo, 328407
1, 494640, Tempo, 325945
1, 495000, Tempo, 323502
1, 495360, Tempo, 321113
1, 495720, Tempo, 318759
1, 496080, Tempo, 316439
1, 496440, Time_signature, 4, 2, 24, 8
1, 496442, Tempo, 314136
1, 497790, Tempo, 5000000
1, 497880, Tempo, 314136
1, 497880, End_track
2, 0, Start_track
2, 0, Title_t, "Piano"
2, 0, Program_c, 0, 0
2, 0, Control_c, 0, 7, 105
2, 0, Control_c, 0, 10, 80
2, 0, Control_c, 0, 91, 48
2, 1350, Control_c, 0, 121, 0
2, 1350, Control_c, 0, 64, 0
2, 1350, Control_c, 0, 121, 0
2, 1350, Control_c, 0, 64, 0
2, 1350, Control_c, 0, 91, 48
2, 1350, Control_c, 0, 10, 51
2, 1350, Control_c, 0, 7, 100
2, 1350, Note_on_c, 0, 61, 96
2, 1380, Note_on_c, 0, 61, 0
2, 1380, Note_on_c, 0, 62, 110
2, 1409, Note_on_c, 0, 62, 0
2, 1409, Note_on_c, 0, 63, 111
2, 1440, Note_on_c, 0, 63, 0
2, 1440, Note_on_c, 0, 62, 106
2, 2340, Note_on_c, 0, 62, 0
2, 2520, Note_on_c, 0, 62, 112
2, 2880, Note_on_c, 0, 60, 112
2, 3420, Note_on_c, 0, 60, 0
2, 3420, Note_on_c, 0, 62, 0
2, 3420, Note_on_c, 0, 62, 112
2, 3600, Note_on_c, 0, 58, 112
2, 3780, Note_on_c, 0, 58, 0
2, 3780, Note_on_c, 0, 57, 112
2, 3960, Note_on_c, 0, 57, 0
2, 4140, Note_on_c, 0, 62, 0
2, 4230, Note_on_c, 0, 61, 98
2, 4260, Note_on_c, 0, 61, 0
2, 4260, Note_on_c, 0, 62, 111
2, 4289, Note_on_c, 0, 62, 0
2, 4289, Note_on_c, 0, 63, 111
2, 4320, Note_on_c, 0, 63, 0
2, 4320, Note_on_c, 0, 62, 109
2, 4320, Note_on_c, 0, 58, 96
2, 5220, Note_on_c, 0, 58, 0
2, 5220, Note_on_c, 0, 62, 0
2, 5400, Note_on_c, 0, 62, 112
2, 5760, Note_on_c, 0, 60, 112
2, 6300, Note_on_c, 0, 60, 0
2, 6300, Note_on_c, 0, 62, 0
2, 6300, Note_on_c, 0, 62, 112
2, 6480, Note_on_c, 0, 58, 112
2, 6660, Note_on_c, 0, 58, 0
2, 6660, Note_on_c, 0, 60, 112
2, 6840, Note_on_c, 0, 60, 0
2, 6840, Note_on_c, 0, 57, 112
2, 7020, Note_on_c, 0, 57, 0
2, 7020, Note_on_c, 0, 62, 0
2, 7020, Note_on_c, 0, 58, 112
2, 7110, Note_on_c, 0, 61, 97
2, 7140, Note_on_c, 0, 61, 0
2, 7140, Note_on_c, 0, 62, 111
2, 7169, Note_on_c, 0, 62, 0
2, 7169, Note_on_c, 0, 63, 111
2, 7200, Note_on_c, 0, 63, 0
2, 7200, Note_on_c, 0, 58, 0
2, 7200, Note_on_c, 0, 62, 106
2, 7200, Note_on_c, 0, 55, 112
2, 7920, Note_on_c, 0, 55, 0
2, 7920, Note_on_c, 0, 62, 0
2, 7920, Note_on_c, 0, 62, 111
2, 8280, Note_on_c, 0, 62, 0
2, 8280, Note_on_c, 0, 62, 112
2, 8595, Note_on_c, 0, 62, 0
2, 8595, Note_on_c, 0, 74, 112
2, 8595, Note_on_c, 0, 71, 52
2, 8595, Note_on_c, 0, 62, 112
2, 8595, Note_on_c, 0, 67, 112
2, 8640, Note_on_c, 0, 67, 0
2, 8640, Note_on_c, 0, 74, 0
2, 8640, Note_on_c, 0, 71, 0
2, 8640, Note_on_c, 0, 62, 0
2, 8640, Note_on_c, 0, 74, 111
2, 8640, Note_on_c, 0, 71, 61
2, 8640, Note_on_c, 0, 62, 111
2, 8640, Note_on_c, 0, 67, 111
2, 9360, Note_on_c, 0, 71, 0
2, 9360, Note_on_c, 0, 70, 52
2, 10080, Note_on_c, 0, 70, 0
2, 10080, Note_on_c, 0, 67, 0
2, 10080, Note_on_c, 0, 62, 0
2, 10080, Note_on_c, 0, 69, 41
2, 10080, Note_on_c, 0, 62, 40
2, 10620, Note_on_c, 0, 62, 0
2, 10620, Note_on_c, 0, 69, 0
2, 10620, Note_on_c, 0, 74, 0
2, 10800, Note_on_c, 0, 62, 26
2, 10800, Note_on_c, 0, 65, 26
2, 10889, Note_on_c, 0, 65, 0
2, 10889, Note_on_c, 0, 62, 0
2, 10980, Note_on_c, 0, 62, 31
2, 10980, Note_on_c, 0, 65, 31
2, 11069, Note_on_c, 0, 65, 0
2, 11069, Note_on_c, 0, 62, 0
2, 11160, Note_on_c, 0, 62, 34
2, 11160, Note_on_c, 0, 65, 34
2, 11249, Note_on_c, 0, 65, 0
2, 11249, Note_on_c, 0, 62, 0
2, 11340, Note_on_c, 0, 62, 35
2, 11340, Note_on_c, 0, 65, 35
2, 11429, Note_on_c, 0, 65, 0
2, 11429, Note_on_c, 0, 62, 0
2, 11520, Note_on_c, 0, 62, 38
2, 11520, Note_on_c, 0, 65, 38
2, 11609, Note_on_c, 0, 65, 0
2, 11609, Note_on_c, 0, 62, 0
2, 11700, Note_on_c, 0, 62, 36
2, 11700, Note_on_c, 0, 65, 36
2, 11789, Note_on_c, 0, 65, 0
2, 11789, Note_on_c, 0, 62, 0
2, 11880, Note_on_c, 0, 62, 37
2, 11880, Note_on_c, 0, 65, 37
2, 11969, Note_on_c, 0, 65, 0
2, 11969, Note_on_c, 0, 62, 0
2, 12060, Note_on_c, 0, 62, 40
2, 12060, Note_on_c, 0, 65, 40
2, 12149, Note_on_c, 0, 65, 0
2, 12149, Note_on_c, 0, 62, 0
2, 12240, Note_on_c, 0, 62, 33
2, 12240, Note_on_c, 0, 65, 33
2, 12329, Note_on_c, 0, 65, 0
2, 12329, Note_on_c, 0, 62, 0
2, 12420, Note_on_c, 0, 62, 36
2, 12420, Note_on_c, 0, 65, 36
2, 12509, Note_on_c, 0, 65, 0
2, 12509, Note_on_c, 0, 62, 0
2, 12600, Note_on_c, 0, 62, 35
2, 12600, Note_on_c, 0, 65, 35
2, 12689, Note_on_c, 0, 65, 0
2, 12689, Note_on_c, 0, 62, 0
2, 12780, Note_on_c, 0, 62, 36
2, 12780, Note_on_c, 0, 65, 36
2, 12869, Note_on_c, 0, 65, 0
2, 12869, Note_on_c, 0, 62, 0
2, 12960, Note_on_c, 0, 62, 35
2, 12960, Note_on_c, 0, 65, 35
2, 13049, Note_on_c, 0, 65, 0
2, 13049, Note_on_c, 0, 62, 0
2, 13140, Note_on_c, 0, 62, 34
2, 13140, Note_on_c, 0, 65, 34
2, 13229, Note_on_c, 0, 65, 0
2, 13229, Note_on_c, 0, 62, 0
2, 13320, Note_on_c, 0, 62, 32
2, 13320, Note_on_c, 0, 65, 32
2, 13320, Note_on_c, 0, 69, 59
2, 13409, Note_on_c, 0, 65, 0
2, 13409, Note_on_c, 0, 62, 0
2, 13500, Note_on_c, 0, 62, 33
2, 13500, Note_on_c, 0, 65, 33
2, 13589, Note_on_c, 0, 65, 0
2, 13589, Note_on_c, 0, 62, 0
2, 13680, Note_on_c, 0, 69, 0
2, 13680, Note_on_c, 0, 67, 57
2, 13860, Note_on_c, 0, 62, 35
2, 13860, Note_on_c, 0, 65, 35
2, 13949, Note_on_c, 0, 65, 0
2, 13949, Note_on_c, 0, 62, 0
2, 14040, Note_on_c, 0, 62, 30
2, 14040, Note_on_c, 0, 65, 30
2, 14129, Note_on_c, 0, 65, 0
2, 14129, Note_on_c, 0, 62, 0
2, 14220, Note_on_c, 0, 67, 0
2, 14220, Note_on_c, 0, 62, 34
2, 14220, Note_on_c, 0, 65, 34
2, 14220, Note_on_c, 0, 69, 74
2, 14309, Note_on_c, 0, 65, 0
2, 14309, Note_on_c, 0, 62, 0
2, 14400, Note_on_c, 0, 69, 0
2, 14400, Note_on_c, 0, 65, 57
2, 14580, Note_on_c, 0, 67, 33
2, 14580, Note_on_c, 0, 69, 33
2, 14669, Note_on_c, 0, 69, 0
2, 14669, Note_on_c, 0, 67, 0
2, 14760, Note_on_c, 0, 65, 0
2, 14760, Note_on_c, 0, 67, 37
2, 14760, Note_on_c, 0, 69, 37
2, 14760, Note_on_c, 0, 64, 64
2, 14849, Note_on_c, 0, 69, 0
2, 14849, Note_on_c, 0, 67, 0
2, 14940, Note_on_c, 0, 67, 38
2, 14940, Note_on_c, 0, 69, 38
2, 15029, Note_on_c, 0, 69, 0
2, 15029, Note_on_c, 0, 67, 0
2, 15120, Note_on_c, 0, 64, 0
2, 15120, Note_on_c, 0, 69, 35
2, 15120, Note_on_c, 0, 65, 72
2, 15300, Note_on_c, 0, 69, 0
2, 15300, Note_on_c, 0, 69, 37
2, 15480, Note_on_c, 0, 69, 0
2, 15480, Note_on_c, 0, 65, 0
2, 15480, Note_on_c, 0, 65, 38
2, 15480, Note_on_c, 0, 69, 38
2, 15480, Note_on_c, 0, 62, 59
2, 15569, Note_on_c, 0, 69, 0
2, 15569, Note_on_c, 0, 65, 0
2, 15660, Note_on_c, 0, 65, 31
2, 15660, Note_on_c, 0, 69, 31
2, 15749, Note_on_c, 0, 69, 0
2, 15749, Note_on_c, 0, 65, 0
2, 15840, Note_on_c, 0, 62, 0
2, 16020, Note_on_c, 0, 62, 42
2, 16020, Note_on_c, 0, 65, 42
2, 16020, Note_on_c, 0, 69, 64
2, 16200, Note_on_c, 0, 69, 0
2, 16200, Note_on_c, 0, 67, 61
2, 16337, Note_on_c, 0, 65, 0
2, 16337, Note_on_c, 0, 62, 0
2, 16380, Note_on_c, 0, 67, 0
2, 16380, Note_on_c, 0, 62, 35
2, 16380, Note_on_c, 0, 65, 35
2, 16380, Note_on_c, 0, 69, 75
2, 16469, Note_on_c, 0, 65, 0
2, 16469, Note_on_c, 0, 62, 0
2, 16560, Note_on_c, 0, 69, 0
2, 16560, Note_on_c, 0, 65, 56
2, 16740, Note_on_c, 0, 65, 0
2, 16740, Note_on_c, 0, 69, 42
2, 16740, Note_on_c, 0, 67, 70
2, 16920, Note_on_c, 0, 67, 0
2, 16920, Note_on_c, 0, 64, 64
2, 17057, Note_on_c, 0, 69, 0
2, 17100, Note_on_c, 0, 64, 0
2, 17100, Note_on_c, 0, 67, 34
2, 17100, Note_on_c, 0, 69, 34
2, 17100, Note_on_c, 0, 65, 74
2, 17189, Note_on_c, 0, 69, 0
2, 17189, Note_on_c, 0, 67, 0
2, 17280, Note_on_c, 0, 65, 0
2, 17460, Note_on_c, 0, 65, 33
2, 17460, Note_on_c, 0, 69, 33
2, 17549, Note_on_c, 0, 69, 0
2, 17549, Note_on_c, 0, 65, 0
2, 17640, Note_on_c, 0, 65, 35
2, 17640, Note_on_c, 0, 69, 35
2, 17729, Note_on_c, 0, 69, 0
2, 17729, Note_on_c, 0, 65, 0
2, 17820, Note_on_c, 0, 69, 29
2, 17820, Note_on_c, 0, 65, 70
2, 17909, Note_on_c, 0, 69, 0
2, 17978, Note_on_c, 0, 65, 0
2, 18000, Note_on_c, 0, 65, 58
2, 18000, Note_on_c, 0, 62, 72
2, 18180, Note_on_c, 0, 65, 0
2, 18180, Note_on_c, 0, 65, 32
2, 18269, Note_on_c, 0, 65, 0
2, 18317, Note_on_c, 0, 62, 0
2, 18360, Note_on_c, 0, 64, 56
2, 18360, Note_on_c, 0, 60, 71
2, 18540, Note_on_c, 0, 64, 0
2, 18540, Note_on_c, 0, 64, 33
2, 18629, Note_on_c, 0, 64, 0
2, 18677, Note_on_c, 0, 60, 0
2, 18720, Note_on_c, 0, 65, 62
2, 18720, Note_on_c, 0, 62, 83
2, 18878, Note_on_c, 0, 62, 0
2, 18900, Note_on_c, 0, 65, 0
2, 18900, Note_on_c, 0, 62, 48
2, 18900, Note_on_c, 0, 65, 48
2, 18989, Note_on_c, 0, 65, 0
2, 18989, Note_on_c, 0, 62, 0
2, 19080, Note_on_c, 0, 62, 45
2, 19080, Note_on_c, 0, 65, 45
2, 19169, Note_on_c, 0, 65, 0
2, 19169, Note_on_c, 0, 62, 0
2, 19260, Note_on_c, 0, 62, 42
2, 19260, Note_on_c, 0, 65, 42
2, 19349, Note_on_c, 0, 65, 0
2, 19349, Note_on_c, 0, 62, 0
2, 19440, Note_on_c, 0, 62, 47
2, 19440, Note_on_c, 0, 65, 47
2, 19529, Note_on_c, 0, 65, 0
2, 19529, Note_on_c, 0, 62, 0
2, 19620, Note_on_c, 0, 62, 46
2, 19620, Note_on_c, 0, 65, 46
2, 19709, Note_on_c, 0, 65, 0
2, 19709, Note_on_c, 0, 62, 0
2, 19800, Note_on_c, 0, 62, 48
2, 19800, Note_on_c, 0, 65, 48
2, 19889, Note_on_c, 0, 65, 0
2, 19889, Note_on_c, 0, 62, 0
2, 19980, Note_on_c, 0, 62, 41
2, 19980, Note_on_c, 0, 65, 41
2, 20069, Note_on_c, 0, 65, 0
2, 20069, Note_on_c, 0, 62, 0
2, 20160, Note_on_c, 0, 62, 42
2, 20160, Note_on_c, 0, 65, 42
2, 20249, Note_on_c, 0, 65, 0
2, 20249, Note_on_c, 0, 62, 0
2, 20340, Note_on_c, 0, 62, 46
2, 20340, Note_on_c, 0, 65, 46
2, 20429, Note_on_c, 0, 65, 0
2, 20429, Note_on_c, 0, 62, 0
2, 20520, Note_on_c, 0, 62, 46
2, 20520, Note_on_c, 0, 65, 46
2, 20609, Note_on_c, 0, 65, 0
2, 20609, Note_on_c, 0, 62, 0
2, 20700, Note_on_c, 0, 62, 48
2, 20700, Note_on_c, 0, 65, 48
2, 20789, Note_on_c, 0, 65, 0
2, 20789, Note_on_c, 0, 62, 0
2, 20880, Note_on_c, 0, 62, 50
2, 20880, Note_on_c, 0, 65, 50
2, 20969, Note_on_c, 0, 65, 0
2, 20969, Note_on_c, 0, 62, 0
2, 21060, Note_on_c, 0, 62, 47
2, 21060, Note_on_c, 0, 65, 47
2, 21149, Note_on_c, 0, 65, 0
2, 21149, Note_on_c, 0, 62, 0
2, 21240, Note_on_c, 0, 62, 48
2, 21240, Note_on_c, 0, 65, 48
2, 21329, Note_on_c, 0, 65, 0
2, 21329, Note_on_c, 0, 62, 0
2, 21420, Note_on_c, 0, 62, 48
2, 21420, Note_on_c, 0, 65, 48
2, 21509, Note_on_c, 0, 65, 0
2, 21509, Note_on_c, 0, 62, 0
2, 21600, Note_on_c, 0, 62, 46
2, 21600, Note_on_c, 0, 65, 46
2, 21780, Note_on_c, 0, 65, 0
2, 21780, Note_on_c, 0, 62, 0
2, 21780, Note_on_c, 0, 62, 33
2, 21780, Note_on_c, 0, 65, 33
2, 21869, Note_on_c, 0, 65, 0
2, 21869, Note_on_c, 0, 62, 0
2, 21960, Note_on_c, 0, 62, 30
2, 21960, Note_on_c, 0, 65, 30
2, 22049, Note_on_c, 0, 65, 0
2, 22049, Note_on_c, 0, 62, 0
2, 22140, Note_on_c, 0, 62, 35
2, 22140, Note_on_c, 0, 65, 35
2, 22229, Note_on_c, 0, 65, 0
2, 22229, Note_on_c, 0, 62, 0
2, 22320, Note_on_c, 0, 62, 35
2, 22320, Note_on_c, 0, 65, 35
2, 22409, Note_on_c, 0, 65, 0
2, 22409, Note_on_c, 0, 62, 0
2, 22500, Note_on_c, 0, 62, 38
2, 22500, Note_on_c, 0, 65, 38
2, 22589, Note_on_c, 0, 65, 0
2, 22589, Note_on_c, 0, 62, 0
2, 22680, Note_on_c, 0, 62, 37
2, 22680, Note_on_c, 0, 65, 37
2, 22769, Note_on_c, 0, 65, 0
2, 22769, Note_on_c, 0, 62, 0
2, 22860, Note_on_c, 0, 62, 35
2, 22860, Note_on_c, 0, 65, 35
2, 22949, Note_on_c, 0, 65, 0
2, 22949, Note_on_c, 0, 62, 0
2, 23040, Note_on_c, 0, 62, 35
2, 23040, Note_on_c, 0, 65, 35
2, 23129, Note_on_c, 0, 65, 0
2, 23129, Note_on_c, 0, 62, 0
2, 23220, Note_on_c, 0, 62, 37
2, 23220, Note_on_c, 0, 65, 37
2, 23309, Note_on_c, 0, 65, 0
2, 23309, Note_on_c, 0, 62, 0
2, 23400, Note_on_c, 0, 62, 37
2, 23400, Note_on_c, 0, 65, 37
2, 23400, Note_on_c, 0, 69, 60
2, 23489, Note_on_c, 0, 65, 0
2, 23489, Note_on_c, 0, 62, 0
2, 23580, Note_on_c, 0, 62, 35
2, 23580, Note_on_c, 0, 65, 35
2, 23669, Note_on_c, 0, 65, 0
2, 23669, Note_on_c, 0, 62, 0
2, 23760, Note_on_c, 0, 69, 0
2, 23760, Note_on_c, 0, 67, 62
2, 23940, Note_on_c, 0, 62, 31
2, 23940, Note_on_c, 0, 65, 31
2, 24029, Note_on_c, 0, 65, 0
2, 24029, Note_on_c, 0, 62, 0
2, 24120, Note_on_c, 0, 62, 35
2, 24120, Note_on_c, 0, 65, 35
2, 24209, Note_on_c, 0, 65, 0
2, 24209, Note_on_c, 0, 62, 0
2, 24300, Note_on_c, 0, 67, 0
2, 24300, Note_on_c, 0, 62, 37
2, 24300, Note_on_c, 0, 65, 37
2, 24300, Note_on_c, 0, 69, 76
2, 24389, Note_on_c, 0, 65, 0
2, 24389, Note_on_c, 0, 62, 0
2, 24480, Note_on_c, 0, 69, 0
2, 24480, Note_on_c, 0, 65, 61
2, 24660, Note_on_c, 0, 67, 31
2, 24660, Note_on_c, 0, 69, 31
2, 24749, Note_on_c, 0, 69, 0
2, 24749, Note_on_c, 0, 67, 0
2, 24840, Note_on_c, 0, 65, 0
2, 24840, Note_on_c, 0, 67, 32
2, 24840, Note_on_c, 0, 69, 32
2, 24840, Note_on_c, 0, 64, 66
2, 24929, Note_on_c, 0, 69, 0
2, 24929, Note_on_c, 0, 67, 0
2, 25020, Note_on_c, 0, 67, 32
2, 25020, Note_on_c, 0, 69, 32
2, 25109, Note_on_c, 0, 69, 0
2, 25109, Note_on_c, 0, 67, 0
2, 25200, Note_on_c, 0, 64, 0
2, 25200, Note_on_c, 0, 69, 35
2, 25200, Note_on_c, 0, 65, 68
2, 25289, Note_on_c, 0, 69, 0
2, 25380, Note_on_c, 0, 69, 99
2, 25380, Note_on_c, 0, 81, 99
2, 25538, Note_on_c, 0, 81, 0
2, 25538, Note_on_c, 0, 69, 0
2, 25560, Note_on_c, 0, 65, 0
2, 25560, Note_on_c, 0, 67, 79
2, 25560, Note_on_c, 0, 79, 79
2, 25560, Note_on_c, 0, 62, 59
2, 25718, Note_on_c, 0, 79, 0
2, 25718, Note_on_c, 0, 67, 0
2, 25740, Note_on_c, 0, 69, 85
2, 25740, Note_on_c, 0, 81, 85
2, 25898, Note_on_c, 0, 81, 0
2, 25898, Note_on_c, 0, 69, 0
2, 25920, Note_on_c, 0, 62, 0
2, 25920, Note_on_c, 0, 77, 71
2, 26100, Note_on_c, 0, 69, 61
2, 26237, Note_on_c, 0, 77, 0
2, 26280, Note_on_c, 0, 69, 0
2, 26280, Note_on_c, 0, 76, 76
2, 26280, Note_on_c, 0, 67, 60
2, 26438, Note_on_c, 0, 76, 0
2, 26460, Note_on_c, 0, 67, 0
2, 26460, Note_on_c, 0, 77, 84
2, 26460, Note_on_c, 0, 69, 68
2, 26618, Note_on_c, 0, 77, 0
2, 26640, Note_on_c, 0, 69, 0
2, 26640, Note_on_c, 0, 74, 69
2, 26640, Note_on_c, 0, 65, 55
2, 26798, Note_on_c, 0, 74, 0
2, 26820, Note_on_c, 0, 65, 0
2, 26820, Note_on_c, 0, 69, 53
2, 26820, Note_on_c, 0, 67, 46
2, 27000, Note_on_c, 0, 67, 0
2, 27000, Note_on_c, 0, 64, 46
2, 27137, Note_on_c, 0, 69, 0
2, 27180, Note_on_c, 0, 64, 0
2, 27180, Note_on_c, 0, 69, 43
2, 27180, Note_on_c, 0, 65, 44
2, 27269, Note_on_c, 0, 69, 0
2, 27360, Note_on_c, 0, 65, 0
2, 27540, Note_on_c, 0, 65, 39
2, 27540, Note_on_c, 0, 69, 39
2, 27629, Note_on_c, 0, 69, 0
2, 27629, Note_on_c, 0, 65, 0
2, 27720, Note_on_c, 0, 65, 41
2, 27720, Note_on_c, 0, 69, 41
2, 27809, Note_on_c, 0, 69, 0
2, 27809, Note_on_c, 0, 65, 0
2, 27900, Note_on_c, 0, 69, 49
2, 27900, Note_on_c, 0, 65, 52
2, 27989, Note_on_c, 0, 69, 0
2, 28058, Note_on_c, 0, 65, 0
2, 28080, Note_on_c, 0, 65, 64
2, 28080, Note_on_c, 0, 62, 49
2, 28260, Note_on_c, 0, 65, 0
2, 28260, Note_on_c, 0, 65, 45
2, 28349, Note_on_c, 0, 65, 0
2, 28397, Note_on_c, 0, 62, 0
2, 28440, Note_on_c, 0, 65, 70
2, 28440, Note_on_c, 0, 60, 48
2, 28620, Note_on_c, 0, 65, 0
2, 28620, Note_on_c, 0, 65, 44
2, 28709, Note_on_c, 0, 65, 0
2, 28757, Note_on_c, 0, 60, 0
2, 28800, Note_on_c, 0, 65, 45
2, 28800, Note_on_c, 0, 62, 45
2, 28889, Note_on_c, 0, 65, 0
2, 28958, Note_on_c, 0, 62, 0
2, 28980, Note_on_c, 0, 62, 50
2, 28980, Note_on_c, 0, 65, 50
2, 29069, Note_on_c, 0, 65, 0
2, 29069, Note_on_c, 0, 62, 0
2, 29160, Note_on_c, 0, 62, 54
2, 29160, Note_on_c, 0, 65, 54
2, 29249, Note_on_c, 0, 65, 0
2, 29249, Note_on_c, 0, 62, 0
2, 29340, Note_on_c, 0, 62, 59
2, 29340, Note_on_c, 0, 65, 59
2, 29429, Note_on_c, 0, 65, 0
2, 29429, Note_on_c, 0, 62, 0
2, 29520, Note_on_c, 0, 62, 69
2, 29520, Note_on_c, 0, 65, 69
2, 29609, Note_on_c, 0, 65, 0
2, 29609, Note_on_c, 0, 62, 0
2, 29700, Note_on_c, 0, 62, 68
2, 29700, Note_on_c, 0, 65, 68
2, 29789, Note_on_c, 0, 65, 0
2, 29789, Note_on_c, 0, 62, 0
2, 29880, Note_on_c, 0, 62, 62
2, 29880, Note_on_c, 0, 65, 62
2, 29969, Note_on_c, 0, 65, 0
2, 29969, Note_on_c, 0, 62, 0
2, 30060, Note_on_c, 0, 62, 56
2, 30060, Note_on_c, 0, 65, 56
2, 30149, Note_on_c, 0, 65, 0
2, 30149, Note_on_c, 0, 62, 0
2, 30240, Note_on_c, 0, 62, 51
2, 30240, Note_on_c, 0, 65, 51
2, 30329, Note_on_c, 0, 65, 0
2, 30329, Note_on_c, 0, 62, 0
2, 30420, Note_on_c, 0, 62, 49
2, 30420, Note_on_c, 0, 65, 49
2, 30509, Note_on_c, 0, 65, 0
2, 30509, Note_on_c, 0, 62, 0
2, 30600, Note_on_c, 0, 62, 45
2, 30600, Note_on_c, 0, 65, 45
2, 30689, Note_on_c, 0, 65, 0
2, 30689, Note_on_c, 0, 62, 0
2, 30780, Note_on_c, 0, 62, 42
2, 30780, Note_on_c, 0, 65, 42
2, 30869, Note_on_c, 0, 65, 0
2, 30869, Note_on_c, 0, 62, 0
2, 30960, Note_on_c, 0, 62, 44
2, 30960, Note_on_c, 0, 65, 44
2, 31049, Note_on_c, 0, 65, 0
2, 31049, Note_on_c, 0, 62, 0
2, 31140, Note_on_c, 0, 62, 43
2, 31140, Note_on_c, 0, 65, 43
2, 31229, Note_on_c, 0, 65, 0
2, 31229, Note_on_c, 0, 62, 0
2, 31320, Note_on_c, 0, 62, 44
2, 31320, Note_on_c, 0, 65, 44
2, 31409, Note_on_c, 0, 65, 0
2, 31409, Note_on_c, 0, 62, 0
2, 31500, Note_on_c, 0, 62, 45
2, 31500, Note_on_c, 0, 65, 45
2, 31589, Note_on_c, 0, 65, 0
2, 31589, Note_on_c, 0, 62, 0
2, 31680, Note_on_c, 0, 62, 23
2, 31715, Note_on_c, 0, 62, 0
2, 31725, Note_on_c, 0, 65, 38
2, 31760, Note_on_c, 0, 65, 0
2, 31770, Note_on_c, 0, 62, 23
2, 31805, Note_on_c, 0, 62, 0
2, 31815, Note_on_c, 0, 65, 38
2, 31850, Note_on_c, 0, 65, 0
2, 31860, Note_on_c, 0, 62, 23
2, 31895, Note_on_c, 0, 62, 0
2, 31905, Note_on_c, 0, 65, 38
2, 31940, Note_on_c, 0, 65, 0
2, 31950, Note_on_c, 0, 62, 23
2, 31985, Note_on_c, 0, 62, 0
2, 31995, Note_on_c, 0, 65, 38
2, 32030, Note_on_c, 0, 65, 0
2, 32040, Note_on_c, 0, 62, 23
2, 32075, Note_on_c, 0, 62, 0
2, 32085, Note_on_c, 0, 65, 38
2, 32120, Note_on_c, 0, 65, 0
2, 32130, Note_on_c, 0, 62, 23
2, 32165, Note_on_c, 0, 62, 0
2, 32175, Note_on_c, 0, 65, 38
2, 32210, Note_on_c, 0, 65, 0
2, 32220, Note_on_c, 0, 62, 23
2, 32255, Note_on_c, 0, 62, 0
2, 32265, Note_on_c, 0, 65, 38
2, 32300, Note_on_c, 0, 65, 0
2, 32310, Note_on_c, 0, 62, 23
2, 32345, Note_on_c, 0, 62, 0
2, 32355, Note_on_c, 0, 65, 38
2, 32390, Note_on_c, 0, 65, 0
2, 32400, Note_on_c, 0, 62, 23
2, 32435, Note_on_c, 0, 62, 0
2, 32445, Note_on_c, 0, 65, 38
2, 32480, Note_on_c, 0, 65, 0
2, 32490, Note_on_c, 0, 62, 23
2, 32525, Note_on_c, 0, 62, 0
2, 32535, Note_on_c, 0, 65, 38
2, 32570, Note_on_c, 0, 65, 0
2, 32580, Note_on_c, 0, 62, 23
2, 32615, Note_on_c, 0, 62, 0
2, 32625, Note_on_c, 0, 65, 38
2, 32660, Note_on_c, 0, 65, 0
2, 32670, Note_on_c, 0, 62, 23
2, 32705, Note_on_c, 0, 62, 0
2, 32715, Note_on_c, 0, 65, 38
2, 32750, Note_on_c, 0, 65, 0
2, 32760, Note_on_c, 0, 70, 43
2, 32760, Note_on_c, 0, 62, 23
2, 32795, Note_on_c, 0, 62, 0
2, 32805, Note_on_c, 0, 65, 38
2, 32840, Note_on_c, 0, 65, 0
2, 32850, Note_on_c, 0, 62, 23
2, 32885, Note_on_c, 0, 62, 0
2, 32895, Note_on_c, 0, 65, 38
2, 32930, Note_on_c, 0, 65, 0
2, 32940, Note_on_c, 0, 62, 23
2, 32975, Note_on_c, 0, 62, 0
2, 32985, Note_on_c, 0, 65, 38
2, 33020, Note_on_c, 0, 65, 0
2, 33030, Note_on_c, 0, 62, 23
2, 33065, Note_on_c, 0, 62, 0
2, 33075, Note_on_c, 0, 65, 38
2, 33110, Note_on_c, 0, 65, 0
2, 33120, Note_on_c, 0, 62, 26
2, 33155, Note_on_c, 0, 62, 0
2, 33165, Note_on_c, 0, 65, 28
2, 33200, Note_on_c, 0, 65, 0
2, 33210, Note_on_c, 0, 62, 26
2, 33245, Note_on_c, 0, 62, 0
2, 33255, Note_on_c, 0, 65, 28
2, 33290, Note_on_c, 0, 65, 0
2, 33300, Note_on_c, 0, 62, 26
2, 33335, Note_on_c, 0, 62, 0
2, 33345, Note_on_c, 0, 65, 28
2, 33380, Note_on_c, 0, 65, 0
2, 33390, Note_on_c, 0, 62, 26
2, 33425, Note_on_c, 0, 62, 0
2, 33435, Note_on_c, 0, 65, 28
2, 33470, Note_on_c, 0, 65, 0
2, 33480, Note_on_c, 0, 70, 0
2, 33480, Note_on_c, 0, 74, 48
2, 33480, Note_on_c, 0, 62, 26
2, 33515, Note_on_c, 0, 62, 0
2, 33525, Note_on_c, 0, 65, 28
2, 33560, Note_on_c, 0, 65, 0
2, 33570, Note_on_c, 0, 62, 26
2, 33605, Note_on_c, 0, 62, 0
2, 33615, Note_on_c, 0, 65, 28
2, 33650, Note_on_c, 0, 65, 0
2, 33660, Note_on_c, 0, 62, 26
2, 33695, Note_on_c, 0, 62, 0
2, 33705, Note_on_c, 0, 65, 28
2, 33740, Note_on_c, 0, 65, 0
2, 33750, Note_on_c, 0, 62, 26
2, 33785, Note_on_c, 0, 62, 0
2, 33795, Note_on_c, 0, 65, 28
2, 33830, Note_on_c, 0, 65, 0
2, 33840, Note_on_c, 0, 74, 0
2, 33840, Note_on_c, 0, 77, 48
2, 33840, Note_on_c, 0, 62, 26
2, 33875, Note_on_c, 0, 62, 0
2, 33885, Note_on_c, 0, 65, 28
2, 33920, Note_on_c, 0, 65, 0
2, 33930, Note_on_c, 0, 62, 26
2, 33965, Note_on_c, 0, 62, 0
2, 33975, Note_on_c, 0, 65, 28
2, 34010, Note_on_c, 0, 65, 0
2, 34020, Note_on_c, 0, 62, 26
2, 34055, Note_on_c, 0, 62, 0
2, 34065, Note_on_c, 0, 65, 28
2, 34100, Note_on_c, 0, 65, 0
2, 34110, Note_on_c, 0, 62, 26
2, 34145, Note_on_c, 0, 62, 0
2, 34155, Note_on_c, 0, 65, 28
2, 34190, Note_on_c, 0, 65, 0
2, 34200, Note_on_c, 0, 77, 0
2, 34200, Note_on_c, 0, 74, 38
2, 34200, Note_on_c, 0, 62, 26
2, 34235, Note_on_c, 0, 62, 0
2, 34245, Note_on_c, 0, 65, 28
2, 34280, Note_on_c, 0, 65, 0
2, 34290, Note_on_c, 0, 62, 26
2, 34325, Note_on_c, 0, 62, 0
2, 34335, Note_on_c, 0, 65, 28
2, 34370, Note_on_c, 0, 65, 0
2, 34380, Note_on_c, 0, 62, 26
2, 34415, Note_on_c, 0, 62, 0
2, 34425, Note_on_c, 0, 65, 28
2, 34460, Note_on_c, 0, 65, 0
2, 34470, Note_on_c, 0, 62, 26
2, 34505, Note_on_c, 0, 62, 0
2, 34515, Note_on_c, 0, 65, 28
2, 34550, Note_on_c, 0, 65, 0
2, 34560, Note_on_c, 0, 62, 24
2, 34595, Note_on_c, 0, 62, 0
2, 34605, Note_on_c, 0, 65, 32
2, 34640, Note_on_c, 0, 65, 0
2, 34650, Note_on_c, 0, 62, 24
2, 34685, Note_on_c, 0, 62, 0
2, 34695, Note_on_c, 0, 65, 32
2, 34730, Note_on_c, 0, 65, 0
2, 34740, Note_on_c, 0, 62, 24
2, 34775, Note_on_c, 0, 62, 0
2, 34785, Note_on_c, 0, 65, 32
2, 34820, Note_on_c, 0, 65, 0
2, 34830, Note_on_c, 0, 62, 24
2, 34865, Note_on_c, 0, 62, 0
2, 34875, Note_on_c, 0, 65, 32
2, 34910, Note_on_c, 0, 65, 0
2, 34920, Note_on_c, 0, 74, 0
2, 34920, Note_on_c, 0, 70, 40
2, 34920, Note_on_c, 0, 62, 24
2, 34955, Note_on_c, 0, 62, 0
2, 34965, Note_on_c, 0, 65, 32
2, 35000, Note_on_c, 0, 65, 0
2, 35010, Note_on_c, 0, 62, 24
2, 35045, Note_on_c, 0, 62, 0
2, 35055, Note_on_c, 0, 65, 32
2, 35090, Note_on_c, 0, 65, 0
2, 35100, Note_on_c, 0, 62, 24
2, 35135, Note_on_c, 0, 62, 0
2, 35145, Note_on_c, 0, 65, 32
2, 35180, Note_on_c, 0, 65, 0
2, 35190, Note_on_c, 0, 62, 24
2, 35225, Note_on_c, 0, 62, 0
2, 35235, Note_on_c, 0, 65, 32
2, 35270, Note_on_c, 0, 65, 0
2, 35280, Note_on_c, 0, 62, 24
2, 35315, Note_on_c, 0, 62, 0
2, 35325, Note_on_c, 0, 65, 32
2, 35360, Note_on_c, 0, 65, 0
2, 35370, Note_on_c, 0, 62, 24
2, 35405, Note_on_c, 0, 62, 0
2, 35415, Note_on_c, 0, 65, 32
2, 35450, Note_on_c, 0, 65, 0
2, 35460, Note_on_c, 0, 62, 24
2, 35495, Note_on_c, 0, 62, 0
2, 35505, Note_on_c, 0, 65, 32
2, 35540, Note_on_c, 0, 65, 0
2, 35550, Note_on_c, 0, 62, 24
2, 35585, Note_on_c, 0, 62, 0
2, 35595, Note_on_c, 0, 65, 32
2, 35630, Note_on_c, 0, 65, 0
2, 35640, Note_on_c, 0, 70, 0
2, 35640, Note_on_c, 0, 69, 44
2, 35640, Note_on_c, 0, 62, 24
2, 35675, Note_on_c, 0, 62, 0
2, 35685, Note_on_c, 0, 65, 32
2, 35720, Note_on_c, 0, 65, 0
2, 35730, Note_on_c, 0, 62, 24
2, 35765, Note_on_c, 0, 62, 0
2, 35775, Note_on_c, 0, 65, 32
2, 35810, Note_on_c, 0, 65, 0
2, 35820, Note_on_c, 0, 62, 24
2, 35855, Note_on_c, 0, 62, 0
2, 35865, Note_on_c, 0, 65, 32
2, 35900, Note_on_c, 0, 65, 0
2, 35910, Note_on_c, 0, 62, 24
2, 35945, Note_on_c, 0, 62, 0
2, 35955, Note_on_c, 0, 65, 32
2, 35990, Note_on_c, 0, 65, 0
2, 36000, Note_on_c, 0, 62, 28
2, 36035, Note_on_c, 0, 62, 0
2, 36045, Note_on_c, 0, 65, 31
2, 36080, Note_on_c, 0, 65, 0
2, 36090, Note_on_c, 0, 62, 28
2, 36125, Note_on_c, 0, 62, 0
2, 36135, Note_on_c, 0, 65, 31
2, 36170, Note_on_c, 0, 65, 0
2, 36180, Note_on_c, 0, 62, 28
2, 36215, Note_on_c, 0, 62, 0
2, 36225, Note_on_c, 0, 65, 31
2, 36260, Note_on_c, 0, 65, 0
2, 36270, Note_on_c, 0, 62, 28
2, 36305, Note_on_c, 0, 62, 0
2, 36315, Note_on_c, 0, 65, 31
2, 36350, Note_on_c, 0, 65, 0
2, 36360, Note_on_c, 0, 69, 0
2, 36360, Note_on_c, 0, 62, 28
2, 36395, Note_on_c, 0, 62, 0
2, 36405, Note_on_c, 0, 65, 31
2, 36440, Note_on_c, 0, 65, 0
2, 36450, Note_on_c, 0, 62, 28
2, 36485, Note_on_c, 0, 62, 0
2, 36495, Note_on_c, 0, 65, 31
2, 36530, Note_on_c, 0, 65, 0
2, 36540, Note_on_c, 0, 62, 28
2, 36575, Note_on_c, 0, 62, 0
2, 36585, Note_on_c, 0, 65, 31
2, 36620, Note_on_c, 0, 65, 0
2, 36630, Note_on_c, 0, 62, 28
2, 36665, Note_on_c, 0, 62, 0
2, 36675, Note_on_c, 0, 65, 31
2, 36710, Note_on_c, 0, 65, 0
2, 36720, Note_on_c, 0, 62, 28
2, 36755, Note_on_c, 0, 62, 0
2, 36765, Note_on_c, 0, 65, 31
2, 36800, Note_on_c, 0, 65, 0
2, 36810, Note_on_c, 0, 62, 28
2, 36845, Note_on_c, 0, 62, 0
2, 36855, Note_on_c, 0, 65, 31
2, 36890, Note_on_c, 0, 65, 0
2, 36900, Note_on_c, 0, 62, 28
2, 36935, Note_on_c, 0, 62, 0
2, 36945, Note_on_c, 0, 65, 31
2, 36980, Note_on_c, 0, 65, 0
2, 36990, Note_on_c, 0, 62, 28
2, 37025, Note_on_c, 0, 62, 0
2, 37035, Note_on_c, 0, 65, 31
2, 37070, Note_on_c, 0, 65, 0
2, 37080, Note_on_c, 0, 62, 28
2, 37115, Note_on_c, 0, 62, 0
2, 37125, Note_on_c, 0, 65, 31
2, 37160, Note_on_c, 0, 65, 0
2, 37170, Note_on_c, 0, 62, 28
2, 37205, Note_on_c, 0, 62, 0
2, 37215, Note_on_c, 0, 65, 31
2, 37250, Note_on_c, 0, 65, 0
2, 37260, Note_on_c, 0, 62, 28
2, 37295, Note_on_c, 0, 62, 0
2, 37305, Note_on_c, 0, 65, 31
2, 37340, Note_on_c, 0, 65, 0
2, 37350, Note_on_c, 0, 62, 28
2, 37385, Note_on_c, 0, 62, 0
2, 37395, Note_on_c, 0, 65, 31
2, 37430, Note_on_c, 0, 65, 0
2, 37440, Note_on_c, 0, 52, 24
2, 37440, Note_on_c, 0, 62, 24
2, 37475, Note_on_c, 0, 62, 0
2, 37475, Note_on_c, 0, 52, 0
2, 37485, Note_on_c, 0, 64, 30
2, 37520, Note_on_c, 0, 64, 0
2, 37530, Note_on_c, 0, 52, 24
2, 37530, Note_on_c, 0, 62, 24
2, 37565, Note_on_c, 0, 62, 0
2, 37565, Note_on_c, 0, 52, 0
2, 37575, Note_on_c, 0, 64, 30
2, 37610, Note_on_c, 0, 64, 0
2, 37620, Note_on_c, 0, 52, 24
2, 37620, Note_on_c, 0, 62, 24
2, 37655, Note_on_c, 0, 62, 0
2, 37655, Note_on_c, 0, 52, 0
2, 37665, Note_on_c, 0, 64, 30
2, 37700, Note_on_c, 0, 64, 0
2, 37710, Note_on_c, 0, 52, 24
2, 37710, Note_on_c, 0, 62, 24
2, 37745, Note_on_c, 0, 62, 0
2, 37745, Note_on_c, 0, 52, 0
2, 37755, Note_on_c, 0, 64, 30
2, 37790, Note_on_c, 0, 64, 0
2, 37800, Note_on_c, 0, 52, 24
2, 37800, Note_on_c, 0, 62, 24
2, 37835, Note_on_c, 0, 62, 0
2, 37835, Note_on_c, 0, 52, 0
2, 37845, Note_on_c, 0, 64, 30
2, 37880, Note_on_c, 0, 64, 0
2, 37890, Note_on_c, 0, 52, 24
2, 37890, Note_on_c, 0, 62, 24
2, 37925, Note_on_c, 0, 62, 0
2, 37925, Note_on_c, 0, 52, 0
2, 37935, Note_on_c, 0, 64, 30
2, 37970, Note_on_c, 0, 64, 0
2, 37980, Note_on_c, 0, 52, 24
2, 37980, Note_on_c, 0, 62, 24
2, 38015, Note_on_c, 0, 62, 0
2, 38015, Note_on_c, 0, 52, 0
2, 38025, Note_on_c, 0, 64, 30
2, 38060, Note_on_c, 0, 64, 0
2, 38070, Note_on_c, 0, 52, 24
2, 38070, Note_on_c, 0, 62, 24
2, 38105, Note_on_c, 0, 62, 0
2, 38105, Note_on_c, 0, 52, 0
2, 38115, Note_on_c, 0, 64, 30
2, 38150, Note_on_c, 0, 64, 0
2, 38160, Note_on_c, 0, 52, 24
2, 38160, Note_on_c, 0, 62, 24
2, 38195, Note_on_c, 0, 62, 0
2, 38195, Note_on_c, 0, 52, 0
2, 38205, Note_on_c, 0, 64, 30
2, 38240, Note_on_c, 0, 64, 0
2, 38250, Note_on_c, 0, 52, 24
2, 38250, Note_on_c, 0, 62, 24
2, 38285, Note_on_c, 0, 62, 0
2, 38285, Note_on_c, 0, 52, 0
2, 38295, Note_on_c, 0, 64, 30
2, 38330, Note_on_c, 0, 64, 0
2, 38340, Note_on_c, 0, 52, 24
2, 38340, Note_on_c, 0, 62, 24
2, 38375, Note_on_c, 0, 62, 0
2, 38375, Note_on_c, 0, 52, 0
2, 38385, Note_on_c, 0, 64, 30
2, 38420, Note_on_c, 0, 64, 0
2, 38430, Note_on_c, 0, 52, 24
2, 38430, Note_on_c, 0, 62, 24
2, 38465, Note_on_c, 0, 62, 0
2, 38465, Note_on_c, 0, 52, 0
2, 38475, Note_on_c, 0, 64, 30
2, 38510, Note_on_c, 0, 64, 0
2, 38520, Note_on_c, 0, 52, 24
2, 38520, Note_on_c, 0, 62, 24
2, 38555, Note_on_c, 0, 62, 0
2, 38555, Note_on_c, 0, 52, 0
2, 38565, Note_on_c, 0, 64, 30
2, 38600, Note_on_c, 0, 64, 0
2, 38610, Note_on_c, 0, 52, 24
2, 38610, Note_on_c, 0, 62, 24
2, 38645, Note_on_c, 0, 62, 0
2, 38645, Note_on_c, 0, 52, 0
2, 38655, Note_on_c, 0, 64, 30
2, 38690, Note_on_c, 0, 64, 0
2, 38700, Note_on_c, 0, 52, 24
2, 38700, Note_on_c, 0, 62, 24
2, 38735, Note_on_c, 0, 62, 0
2, 38735, Note_on_c, 0, 52, 0
2, 38745, Note_on_c, 0, 64, 30
2, 38780, Note_on_c, 0, 64, 0
2, 38790, Note_on_c, 0, 52, 24
2, 38790, Note_on_c, 0, 62, 24
2, 38825, Note_on_c, 0, 62, 0
2, 38825, Note_on_c, 0, 52, 0
2, 38835, Note_on_c, 0, 64, 30
2, 38870, Note_on_c, 0, 64, 0
2, 38880, Note_on_c, 0, 52, 28
2, 38880, Note_on_c, 0, 62, 28
2, 38915, Note_on_c, 0, 62, 0
2, 38915, Note_on_c, 0, 52, 0
2, 38925, Note_on_c, 0, 64, 28
2, 38960, Note_on_c, 0, 64, 0
2, 38970, Note_on_c, 0, 52, 29
2, 38970, Note_on_c, 0, 62, 29
2, 39005, Note_on_c, 0, 62, 0
2, 39005, Note_on_c, 0, 52, 0
2, 39015, Note_on_c, 0, 64, 29
2, 39050, Note_on_c, 0, 64, 0
2, 39060, Note_on_c, 0, 52, 30
2, 39060, Note_on_c, 0, 62, 30
2, 39095, Note_on_c, 0, 62, 0
2, 39095, Note_on_c, 0, 52, 0
2, 39105, Note_on_c, 0, 64, 30
2, 39140, Note_on_c, 0, 64, 0
2, 39150, Note_on_c, 0, 52, 31
2, 39150, Note_on_c, 0, 62, 31
2, 39185, Note_on_c, 0, 62, 0
2, 39185, Note_on_c, 0, 52, 0
2, 39195, Note_on_c, 0, 64, 31
2, 39230, Note_on_c, 0, 64, 0
2, 39240, Note_on_c, 0, 52, 32
2, 39240, Note_on_c, 0, 62, 32
2, 39275, Note_on_c, 0, 62, 0
2, 39275, Note_on_c, 0, 52, 0
2, 39285, Note_on_c, 0, 64, 32
2, 39320, Note_on_c, 0, 64, 0
2, 39330, Note_on_c, 0, 52, 33
2, 39330, Note_on_c, 0, 62, 33
2, 39365, Note_on_c, 0, 62, 0
2, 39365, Note_on_c, 0, 52, 0
2, 39375, Note_on_c, 0, 64, 34
2, 39410, Note_on_c, 0, 64, 0
2, 39420, Note_on_c, 0, 52, 34
2, 39420, Note_on_c, 0, 62, 34
2, 39455, Note_on_c, 0, 62, 0
2, 39455, Note_on_c, 0, 52, 0
2, 39465, Note_on_c, 0, 64, 35
2, 39500, Note_on_c, 0, 64, 0
2, 39510, Note_on_c, 0, 52, 35
2, 39510, Note_on_c, 0, 62, 35
2, 39545, Note_on_c, 0, 62, 0
2, 39545, Note_on_c, 0, 52, 0
2, 39555, Note_on_c, 0, 64, 36
2, 39590, Note_on_c, 0, 64, 0
2, 39600, Note_on_c, 0, 62, 36
2, 39635, Note_on_c, 0, 62, 0
2, 39645, Note_on_c, 0, 64, 37
2, 39680, Note_on_c, 0, 64, 0
2, 39690, Note_on_c, 0, 62, 37
2, 39725, Note_on_c, 0, 62, 0
2, 39735, Note_on_c, 0, 64, 38
2, 39770, Note_on_c, 0, 64, 0
2, 39780, Note_on_c, 0, 62, 38
2, 39815, Note_on_c, 0, 62, 0
2, 39825, Note_on_c, 0, 64, 39
2, 39860, Note_on_c, 0, 64, 0
2, 39870, Note_on_c, 0, 62, 39
2, 39905, Note_on_c, 0, 62, 0
2, 39915, Note_on_c, 0, 64, 40
2, 39950, Note_on_c, 0, 64, 0
2, 39960, Note_on_c, 0, 64, 40
2, 39960, Note_on_c, 0, 65, 40
2, 40049, Note_on_c, 0, 65, 0
2, 40049, Note_on_c, 0, 64, 0
2, 40140, Note_on_c, 0, 65, 60
2, 40320, Note_on_c, 0, 65, 0
2, 40320, Note_on_c, 0, 64, 66
2, 40320, Note_on_c, 0, 53, 40
2, 40355, Note_on_c, 0, 53, 0
2, 40365, Note_on_c, 0, 65, 39
2, 40400, Note_on_c, 0, 65, 0
2, 40410, Note_on_c, 0, 53, 38
2, 40445, Note_on_c, 0, 53, 0
2, 40455, Note_on_c, 0, 65, 37
2, 40490, Note_on_c, 0, 65, 0
2, 40500, Note_on_c, 0, 53, 36
2, 40535, Note_on_c, 0, 53, 0
2, 40545, Note_on_c, 0, 65, 35
2, 40580, Note_on_c, 0, 65, 0
2, 40590, Note_on_c, 0, 53, 34
2, 40625, Note_on_c, 0, 53, 0
2, 40635, Note_on_c, 0, 65, 33
2, 40670, Note_on_c, 0, 65, 0
2, 40680, Note_on_c, 0, 53, 32
2, 40860, Note_on_c, 0, 53, 0
2, 40860, Note_on_c, 0, 64, 0
2, 40860, Note_on_c, 0, 65, 72
2, 41040, Note_on_c, 0, 65, 0
2, 41040, Note_on_c, 0, 62, 72
2, 41040, Note_on_c, 0, 52, 21
2, 41075, Note_on_c, 0, 52, 0
2, 41085, Note_on_c, 0, 64, 40
2, 41120, Note_on_c, 0, 64, 0
2, 41130, Note_on_c, 0, 52, 21
2, 41165, Note_on_c, 0, 52, 0
2, 41175, Note_on_c, 0, 64, 40
2, 41210, Note_on_c, 0, 64, 0
2, 41220, Note_on_c, 0, 52, 21
2, 41255, Note_on_c, 0, 52, 0
2, 41265, Note_on_c, 0, 64, 40
2, 41300, Note_on_c, 0, 64, 0
2, 41310, Note_on_c, 0, 52, 21
2, 41345, Note_on_c, 0, 52, 0
2, 41355, Note_on_c, 0, 64, 40
2, 41390, Note_on_c, 0, 64, 0
2, 41400, Note_on_c, 0, 62, 0
2, 41400, Note_on_c, 0, 52, 32
2, 41400, Note_on_c, 0, 62, 32
2, 41435, Note_on_c, 0, 62, 0
2, 41435, Note_on_c, 0, 52, 0
2, 41445, Note_on_c, 0, 64, 30
2, 41480, Note_on_c, 0, 64, 0
2, 41490, Note_on_c, 0, 52, 32
2, 41490, Note_on_c, 0, 62, 32
2, 41525, Note_on_c, 0, 62, 0
2, 41525, Note_on_c, 0, 52, 0
2, 41535, Note_on_c, 0, 64, 30
2, 41570, Note_on_c, 0, 64, 0
2, 41580, Note_on_c, 0, 52, 32
2, 41580, Note_on_c, 0, 62, 32
2, 41615, Note_on_c, 0, 62, 0
2, 41615, Note_on_c, 0, 52, 0
2, 41625, Note_on_c, 0, 64, 30
2, 41660, Note_on_c, 0, 64, 0
2, 41670, Note_on_c, 0, 52, 32
2, 41670, Note_on_c, 0, 62, 32
2, 41705, Note_on_c, 0, 62, 0
2, 41705, Note_on_c, 0, 52, 0
2, 41715, Note_on_c, 0, 64, 30
2, 41750, Note_on_c, 0, 64, 0
2, 41760, Note_on_c, 0, 52, 22
2, 41760, Note_on_c, 0, 60, 22
2, 41795, Note_on_c, 0, 60, 0
2, 41795, Note_on_c, 0, 52, 0
2, 41805, Note_on_c, 0, 65, 34
2, 41840, Note_on_c, 0, 65, 0
2, 41850, Note_on_c, 0, 52, 22
2, 41850, Note_on_c, 0, 60, 22
2, 41885, Note_on_c, 0, 60, 0
2, 41885, Note_on_c, 0, 52, 0
2, 41895, Note_on_c, 0, 65, 34
2, 41930, Note_on_c, 0, 65, 0
2, 41940, Note_on_c, 0, 52, 22
2, 41940, Note_on_c, 0, 60, 22
2, 41975, Note_on_c, 0, 60, 0
2, 41975, Note_on_c, 0, 52, 0
2, 41985, Note_on_c, 0, 65, 34
2, 42020, Note_on_c, 0, 65, 0
2, 42030, Note_on_c, 0, 52, 22
2, 42030, Note_on_c, 0, 60, 22
2, 42065, Note_on_c, 0, 60, 0
2, 42065, Note_on_c, 0, 52, 0
2, 42075, Note_on_c, 0, 65, 34
2, 42110, Note_on_c, 0, 65, 0
2, 42120, Note_on_c, 0, 52, 22
2, 42120, Note_on_c, 0, 60, 22
2, 42155, Note_on_c, 0, 60, 0
2, 42155, Note_on_c, 0, 52, 0
2, 42165, Note_on_c, 0, 65, 34
2, 42200, Note_on_c, 0, 65, 0
2, 42210, Note_on_c, 0, 52, 22
2, 42210, Note_on_c, 0, 60, 22
2, 42245, Note_on_c, 0, 60, 0
2, 42245, Note_on_c, 0, 52, 0
2, 42255, Note_on_c, 0, 65, 34
2, 42290, Note_on_c, 0, 65, 0
2, 42300, Note_on_c, 0, 52, 22
2, 42300, Note_on_c, 0, 60, 22
2, 42335, Note_on_c, 0, 60, 0
2, 42335, Note_on_c, 0, 52, 0
2, 42345, Note_on_c, 0, 65, 34
2, 42380, Note_on_c, 0, 65, 0
2, 42390, Note_on_c, 0, 52, 22
2, 42390, Note_on_c, 0, 60, 22
2, 42425, Note_on_c, 0, 60, 0
2, 42425, Note_on_c, 0, 52, 0
2, 42435, Note_on_c, 0, 65, 34
2, 42470, Note_on_c, 0, 65, 0
2, 42480, Note_on_c, 0, 52, 22
2, 42480, Note_on_c, 0, 60, 22
2, 42515, Note_on_c, 0, 60, 0
2, 42515, Note_on_c, 0, 52, 0
2, 42525, Note_on_c, 0, 65, 34
2, 42560, Note_on_c, 0, 65, 0
2, 42570, Note_on_c, 0, 52, 22
2, 42570, Note_on_c, 0, 60, 22
2, 42605, Note_on_c, 0, 60, 0
2, 42605, Note_on_c, 0, 52, 0
2, 42615, Note_on_c, 0, 65, 34
2, 42650, Note_on_c, 0, 65, 0
2, 42660, Note_on_c, 0, 52, 22
2, 42660, Note_on_c, 0, 60, 22
2, 42695, Note_on_c, 0, 60, 0
2, 42695, Note_on_c, 0, 52, 0
2, 42705, Note_on_c, 0, 65, 34
2, 42740, Note_on_c, 0, 65, 0
2, 42750, Note_on_c, 0, 52, 22
2, 42750, Note_on_c, 0, 60, 22
2, 42785, Note_on_c, 0, 60, 0
2, 42785, Note_on_c, 0, 52, 0
2, 42795, Note_on_c, 0, 65, 34
2, 42830, Note_on_c, 0, 65, 0
2, 42840, Note_on_c, 0, 52, 22
2, 42840, Note_on_c, 0, 60, 22
2, 42875, Note_on_c, 0, 60, 0
2, 42875, Note_on_c, 0, 52, 0
2, 42885, Note_on_c, 0, 65, 34
2, 42920, Note_on_c, 0, 65, 0
2, 42930, Note_on_c, 0, 52, 22
2, 42930, Note_on_c, 0, 60, 22
2, 42965, Note_on_c, 0, 60, 0
2, 42965, Note_on_c, 0, 52, 0
2, 42975, Note_on_c, 0, 65, 34
2, 43010, Note_on_c, 0, 65, 0
2, 43020, Note_on_c, 0, 52, 22
2, 43020, Note_on_c, 0, 60, 22
2, 43055, Note_on_c, 0, 60, 0
2, 43055, Note_on_c, 0, 52, 0
2, 43065, Note_on_c, 0, 65, 34
2, 43100, Note_on_c, 0, 65, 0
2, 43110, Note_on_c, 0, 52, 22
2, 43110, Note_on_c, 0, 60, 22
2, 43145, Note_on_c, 0, 60, 0
2, 43145, Note_on_c, 0, 52, 0
2, 43155, Note_on_c, 0, 65, 34
2, 43190, Note_on_c, 0, 65, 0
2, 43200, Note_on_c, 0, 60, 24
2, 43235, Note_on_c, 0, 60, 0
2, 43245, Note_on_c, 0, 64, 31
2, 43280, Note_on_c, 0, 64, 0
2, 43290, Note_on_c, 0, 60, 24
2, 43325, Note_on_c, 0, 60, 0
2, 43335, Note_on_c, 0, 64, 31
2, 43370, Note_on_c, 0, 64, 0
2, 43380, Note_on_c, 0, 60, 24
2, 43415, Note_on_c, 0, 60, 0
2, 43425, Note_on_c, 0, 64, 31
2, 43460, Note_on_c, 0, 64, 0
2, 43470, Note_on_c, 0, 60, 24
2, 43505, Note_on_c, 0, 60, 0
2, 43515, Note_on_c, 0, 64, 31
2, 43550, Note_on_c, 0, 64, 0
2, 43560, Note_on_c, 0, 60, 24
2, 43595, Note_on_c, 0, 60, 0
2, 43605, Note_on_c, 0, 64, 31
2, 43640, Note_on_c, 0, 64, 0
2, 43650, Note_on_c, 0, 60, 24
2, 43685, Note_on_c, 0, 60, 0
2, 43695, Note_on_c, 0, 64, 31
2, 43730, Note_on_c, 0, 64, 0
2, 43740, Note_on_c, 0, 60, 24
2, 43775, Note_on_c, 0, 60, 0
2, 43785, Note_on_c, 0, 64, 31
2, 43820, Note_on_c, 0, 64, 0
2, 43830, Note_on_c, 0, 60, 24
2, 43865, Note_on_c, 0, 60, 0
2, 43875, Note_on_c, 0, 64, 31
2, 43910, Note_on_c, 0, 64, 0
2, 43920, Note_on_c, 0, 60, 24
2, 43955, Note_on_c, 0, 60, 0
2, 43965, Note_on_c, 0, 64, 31
2, 44000, Note_on_c, 0, 64, 0
2, 44010, Note_on_c, 0, 60, 24
2, 44045, Note_on_c, 0, 60, 0
2, 44055, Note_on_c, 0, 64, 31
2, 44090, Note_on_c, 0, 64, 0
2, 44100, Note_on_c, 0, 60, 24
2, 44135, Note_on_c, 0, 60, 0
2, 44145, Note_on_c, 0, 64, 31
2, 44180, Note_on_c, 0, 64, 0
2, 44190, Note_on_c, 0, 60, 24
2, 44225, Note_on_c, 0, 60, 0
2, 44235, Note_on_c, 0, 64, 31
2, 44270, Note_on_c, 0, 64, 0
2, 44280, Note_on_c, 0, 60, 24
2, 44315, Note_on_c, 0, 60, 0
2, 44325, Note_on_c, 0, 64, 31
2, 44360, Note_on_c, 0, 64, 0
2, 44370, Note_on_c, 0, 60, 24
2, 44405, Note_on_c, 0, 60, 0
2, 44415, Note_on_c, 0, 64, 31
2, 44450, Note_on_c, 0, 64, 0
2, 44460, Note_on_c, 0, 60, 24
2, 44495, Note_on_c, 0, 60, 0
2, 44505, Note_on_c, 0, 64, 31
2, 44540, Note_on_c, 0, 64, 0
2, 44550, Note_on_c, 0, 60, 24
2, 44585, Note_on_c, 0, 60, 0
2, 44595, Note_on_c, 0, 64, 31
2, 44630, Note_on_c, 0, 64, 0
2, 44640, Note_on_c, 0, 60, 27
2, 44640, Note_on_c, 0, 64, 27
2, 44820, Note_on_c, 0, 64, 0
2, 44820, Note_on_c, 0, 60, 0
2, 44820, Note_on_c, 0, 67, 61
2, 45000, Note_on_c, 0, 67, 0
2, 45000, Note_on_c, 0, 66, 65
2, 45000, Note_on_c, 0, 55, 25
2, 45035, Note_on_c, 0, 55, 0
2, 45045, Note_on_c, 0, 67, 36
2, 45080, Note_on_c, 0, 67, 0
2, 45090, Note_on_c, 0, 55, 25
2, 45125, Note_on_c, 0, 55, 0
2, 45135, Note_on_c, 0, 67, 36
2, 45170, Note_on_c, 0, 67, 0
2, 45180, Note_on_c, 0, 55, 25
2, 45215, Note_on_c, 0, 55, 0
2, 45225, Note_on_c, 0, 67, 36
2, 45260, Note_on_c, 0, 67, 0
2, 45270, Note_on_c, 0, 55, 25
2, 45305, Note_on_c, 0, 55, 0
2, 45315, Note_on_c, 0, 67, 36
2, 45350, Note_on_c, 0, 67, 0
2, 45360, Note_on_c, 0, 55, 20
2, 45540, Note_on_c, 0, 55, 0
2, 45540, Note_on_c, 0, 66, 0
2, 45540, Note_on_c, 0, 67, 77
2, 45720, Note_on_c, 0, 67, 0
2, 45720, Note_on_c, 0, 64, 62
2, 46080, Note_on_c, 0, 64, 0
2, 46080, Note_on_c, 0, 64, 22
2, 46115, Note_on_c, 0, 64, 0
2, 46125, Note_on_c, 0, 67, 32
2, 46160, Note_on_c, 0, 67, 0
2, 46170, Note_on_c, 0, 64, 22
2, 46205, Note_on_c, 0, 64, 0
2, 46215, Note_on_c, 0, 67, 32
2, 46250, Note_on_c, 0, 67, 0
2, 46260, Note_on_c, 0, 64, 22
2, 46295, Note_on_c, 0, 64, 0
2, 46305, Note_on_c, 0, 67, 32
2, 46340, Note_on_c, 0, 67, 0
2, 46350, Note_on_c, 0, 64, 22
2, 46385, Note_on_c, 0, 64, 0
2, 46395, Note_on_c, 0, 67, 32
2, 46430, Note_on_c, 0, 67, 0
2, 46440, Note_on_c, 0, 64, 22
2, 46475, Note_on_c, 0, 64, 0
2, 46485, Note_on_c, 0, 67, 32
2, 46520, Note_on_c, 0, 67, 0
2, 46530, Note_on_c, 0, 64, 22
2, 46565, Note_on_c, 0, 64, 0
2, 46575, Note_on_c, 0, 67, 32
2, 46610, Note_on_c, 0, 67, 0
2, 46620, Note_on_c, 0, 64, 22
2, 46655, Note_on_c, 0, 64, 0
2, 46665, Note_on_c, 0, 67, 32
2, 46700, Note_on_c, 0, 67, 0
2, 46710, Note_on_c, 0, 64, 22
2, 46745, Note_on_c, 0, 64, 0
2, 46755, Note_on_c, 0, 67, 32
2, 46790, Note_on_c, 0, 67, 0
2, 46800, Note_on_c, 0, 55, 28
2, 46800, Note_on_c, 0, 64, 28
2, 46835, Note_on_c, 0, 64, 0
2, 46835, Note_on_c, 0, 55, 0
2, 46845, Note_on_c, 0, 67, 29
2, 46880, Note_on_c, 0, 67, 0
2, 46890, Note_on_c, 0, 55, 28
2, 46890, Note_on_c, 0, 64, 28
2, 46925, Note_on_c, 0, 64, 0
2, 46925, Note_on_c, 0, 55, 0
2, 46935, Note_on_c, 0, 67, 29
2, 46970, Note_on_c, 0, 67, 0
2, 46980, Note_on_c, 0, 55, 28
2, 46980, Note_on_c, 0, 64, 28
2, 47015, Note_on_c, 0, 64, 0
2, 47015, Note_on_c, 0, 55, 0
2, 47025, Note_on_c, 0, 67, 29
2, 47060, Note_on_c, 0, 67, 0
2, 47070, Note_on_c, 0, 55, 28
2, 47070, Note_on_c, 0, 64, 28
2, 47105, Note_on_c, 0, 64, 0
2, 47105, Note_on_c, 0, 55, 0
2, 47115, Note_on_c, 0, 67, 29
2, 47150, Note_on_c, 0, 67, 0
2, 47160, Note_on_c, 0, 57, 28
2, 47160, Note_on_c, 0, 67, 28
2, 47195, Note_on_c, 0, 67, 0
2, 47195, Note_on_c, 0, 57, 0
2, 47205, Note_on_c, 0, 69, 31
2, 47240, Note_on_c, 0, 69, 0
2, 47250, Note_on_c, 0, 57, 28
2, 47250, Note_on_c, 0, 67, 28
2, 47285, Note_on_c, 0, 67, 0
2, 47285, Note_on_c, 0, 57, 0
2, 47295, Note_on_c, 0, 69, 31
2, 47330, Note_on_c, 0, 69, 0
2, 47340, Note_on_c, 0, 57, 28
2, 47340, Note_on_c, 0, 67, 28
2, 47375, Note_on_c, 0, 67, 0
2, 47375, Note_on_c, 0, 57, 0
2, 47385, Note_on_c, 0, 69, 31
2, 47420, Note_on_c, 0, 69, 0
2, 47430, Note_on_c, 0, 57, 28
2, 47430, Note_on_c, 0, 67, 28
2, 47465, Note_on_c, 0, 67, 0
2, 47465, Note_on_c, 0, 57, 0
2, 47475, Note_on_c, 0, 69, 31
2, 47510, Note_on_c, 0, 69, 0
2, 47520, Note_on_c, 0, 57, 26
2, 47520, Note_on_c, 0, 67, 26
2, 47555, Note_on_c, 0, 67, 0
2, 47555, Note_on_c, 0, 57, 0
2, 47565, Note_on_c, 0, 69, 25
2, 47600, Note_on_c, 0, 69, 0
2, 47610, Note_on_c, 0, 57, 26
2, 47610, Note_on_c, 0, 67, 26
2, 47645, Note_on_c, 0, 67, 0
2, 47645, Note_on_c, 0, 57, 0
2, 47655, Note_on_c, 0, 69, 25
2, 47690, Note_on_c, 0, 69, 0
2, 47700, Note_on_c, 0, 57, 26
2, 47700, Note_on_c, 0, 67, 26
2, 47735, Note_on_c, 0, 67, 0
2, 47735, Note_on_c, 0, 57, 0
2, 47745, Note_on_c, 0, 69, 25
2, 47780, Note_on_c, 0, 69, 0
2, 47790, Note_on_c, 0, 57, 26
2, 47790, Note_on_c, 0, 67, 26
2, 47825, Note_on_c, 0, 67, 0
2, 47825, Note_on_c, 0, 57, 0
2, 47835, Note_on_c, 0, 69, 25
2, 47870, Note_on_c, 0, 69, 0
2, 47880, Note_on_c, 0, 57, 26
2, 47880, Note_on_c, 0, 67, 26
2, 48060, Note_on_c, 0, 67, 0
2, 48060, Note_on_c, 0, 57, 0
2, 48060, Note_on_c, 0, 69, 61
2, 48240, Note_on_c, 0, 69, 0
2, 48240, Note_on_c, 0, 67, 63
2, 48240, Note_on_c, 0, 57, 19
2, 48275, Note_on_c, 0, 57, 0
2, 48285, Note_on_c, 0, 69, 41
2, 48320, Note_on_c, 0, 69, 0
2, 48330, Note_on_c, 0, 57, 19
2, 48365, Note_on_c, 0, 57, 0
2, 48375, Note_on_c, 0, 69, 41
2, 48410, Note_on_c, 0, 69, 0
2, 48420, Note_on_c, 0, 57, 19
2, 48455, Note_on_c, 0, 57, 0
2, 48465, Note_on_c, 0, 69, 41
2, 48500, Note_on_c, 0, 69, 0
2, 48510, Note_on_c, 0, 57, 19
2, 48545, Note_on_c, 0, 57, 0
2, 48555, Note_on_c, 0, 69, 41
2, 48590, Note_on_c, 0, 69, 0
2, 48600, Note_on_c, 0, 57, 20
2, 48780, Note_on_c, 0, 57, 0
2, 48780, Note_on_c, 0, 67, 0
2, 48780, Note_on_c, 0, 69, 71
2, 48960, Note_on_c, 0, 69, 0
2, 48960, Note_on_c, 0, 65, 45
2, 48960, Note_on_c, 0, 57, 28
2, 48995, Note_on_c, 0, 57, 0
2, 49005, Note_on_c, 0, 69, 28
2, 49040, Note_on_c, 0, 69, 0
2, 49050, Note_on_c, 0, 57, 28
2, 49085, Note_on_c, 0, 57, 0
2, 49095, Note_on_c, 0, 69, 28
2, 49130, Note_on_c, 0, 69, 0
2, 49140, Note_on_c, 0, 57, 28
2, 49175, Note_on_c, 0, 57, 0
2, 49185, Note_on_c, 0, 69, 28
2, 49220, Note_on_c, 0, 69, 0
2, 49230, Note_on_c, 0, 57, 28
2, 49265, Note_on_c, 0, 57, 0
2, 49275, Note_on_c, 0, 69, 28
2, 49310, Note_on_c, 0, 69, 0
2, 49320, Note_on_c, 0, 65, 0
2, 49320, Note_on_c, 0, 57, 28
2, 49320, Note_on_c, 0, 65, 28
2, 49355, Note_on_c, 0, 65, 0
2, 49355, Note_on_c, 0, 57, 0
2, 49365, Note_on_c, 0, 69, 28
2, 49400, Note_on_c, 0, 69, 0
2, 49410, Note_on_c, 0, 57, 28
2, 49410, Note_on_c, 0, 65, 28
2, 49445, Note_on_c, 0, 65, 0
2, 49445, Note_on_c, 0, 57, 0
2, 49455, Note_on_c, 0, 69, 28
2, 49490, Note_on_c, 0, 69, 0
2, 49500, Note_on_c, 0, 57, 28
2, 49500, Note_on_c, 0, 65, 28
2, 49535, Note_on_c, 0, 65, 0
2, 49535, Note_on_c, 0, 57, 0
2, 49545, Note_on_c, 0, 69, 29
2, 49580, Note_on_c, 0, 69, 0
2, 49590, Note_on_c, 0, 57, 29
2, 49590, Note_on_c, 0, 65, 29
2, 49625, Note_on_c, 0, 65, 0
2, 49625, Note_on_c, 0, 57, 0
2, 49635, Note_on_c, 0, 69, 29
2, 49670, Note_on_c, 0, 69, 0
2, 49680, Note_on_c, 0, 58, 29
2, 49680, Note_on_c, 0, 65, 29
2, 49860, Note_on_c, 0, 70, 47
2, 50040, Note_on_c, 0, 70, 0
2, 50040, Note_on_c, 0, 69, 47
2, 50220, Note_on_c, 0, 69, 0
2, 50220, Note_on_c, 0, 70, 47
2, 50400, Note_on_c, 0, 70, 0
2, 50400, Note_on_c, 0, 65, 0
2, 50400, Note_on_c, 0, 58, 0
2, 50400, Note_on_c, 0, 67, 48
2, 50400, Note_on_c, 0, 58, 30
2, 50435, Note_on_c, 0, 58, 0
2, 50445, Note_on_c, 0, 70, 30
2, 50480, Note_on_c, 0, 70, 0
2, 50490, Note_on_c, 0, 58, 30
2, 50525, Note_on_c, 0, 58, 0
2, 50535, Note_on_c, 0, 70, 30
2, 50570, Note_on_c, 0, 70, 0
2, 50580, Note_on_c, 0, 58, 30
2, 50615, Note_on_c, 0, 58, 0
2, 50625, Note_on_c, 0, 70, 30
2, 50660, Note_on_c, 0, 70, 0
2, 50670, Note_on_c, 0, 58, 30
2, 50705, Note_on_c, 0, 58, 0
2, 50715, Note_on_c, 0, 70, 30
2, 50750, Note_on_c, 0, 70, 0
2, 50760, Note_on_c, 0, 67, 0
2, 50760, Note_on_c, 0, 59, 30
2, 50760, Note_on_c, 0, 67, 30
2, 50795, Note_on_c, 0, 67, 0
2, 50795, Note_on_c, 0, 59, 0
2, 50805, Note_on_c, 0, 71, 30
2, 50840, Note_on_c, 0, 71, 0
2, 50850, Note_on_c, 0, 59, 30
2, 50850, Note_on_c, 0, 67, 30
2, 50885, Note_on_c, 0, 67, 0
2, 50885, Note_on_c, 0, 59, 0
2, 50895, Note_on_c, 0, 71, 31
2, 50930, Note_on_c, 0, 71, 0
2, 50940, Note_on_c, 0, 59, 31
2, 50940, Note_on_c, 0, 67, 31
2, 50975, Note_on_c, 0, 67, 0
2, 50975, Note_on_c, 0, 59, 0
2, 50985, Note_on_c, 0, 71, 31
2, 51020, Note_on_c, 0, 71, 0
2, 51030, Note_on_c, 0, 59, 31
2, 51030, Note_on_c, 0, 67, 31
2, 51065, Note_on_c, 0, 67, 0
2, 51065, Note_on_c, 0, 59, 0
2, 51075, Note_on_c, 0, 71, 31
2, 51110, Note_on_c, 0, 71, 0
2, 51120, Note_on_c, 0, 59, 31
2, 51120, Note_on_c, 0, 67, 31
2, 51155, Note_on_c, 0, 67, 0
2, 51155, Note_on_c, 0, 59, 0
2, 51165, Note_on_c, 0, 71, 31
2, 51200, Note_on_c, 0, 71, 0
2, 51210, Note_on_c, 0, 59, 31
2, 51210, Note_on_c, 0, 67, 31
2, 51245, Note_on_c, 0, 67, 0
2, 51245, Note_on_c, 0, 59, 0
2, 51255, Note_on_c, 0, 71, 31
2, 51290, Note_on_c, 0, 71, 0
2, 51300, Note_on_c, 0, 59, 31
2, 51300, Note_on_c, 0, 67, 31
2, 51335, Note_on_c, 0, 67, 0
2, 51335, Note_on_c, 0, 59, 0
2, 51345, Note_on_c, 0, 71, 31
2, 51380, Note_on_c, 0, 71, 0
2, 51390, Note_on_c, 0, 59, 31
2, 51390, Note_on_c, 0, 67, 31
2, 51425, Note_on_c, 0, 67, 0
2, 51425, Note_on_c, 0, 59, 0
2, 51435, Note_on_c, 0, 71, 31
2, 51470, Note_on_c, 0, 71, 0
2, 51480, Note_on_c, 0, 60, 31
2, 51480, Note_on_c, 0, 67, 31
2, 51480, Note_on_c, 0, 70, 31
2, 51515, Note_on_c, 0, 70, 0
2, 51515, Note_on_c, 0, 67, 0
2, 51515, Note_on_c, 0, 60, 0
2, 51525, Note_on_c, 0, 72, 31
2, 51560, Note_on_c, 0, 72, 0
2, 51570, Note_on_c, 0, 60, 32
2, 51570, Note_on_c, 0, 67, 32
2, 51570, Note_on_c, 0, 70, 32
2, 51605, Note_on_c, 0, 70, 0
2, 51605, Note_on_c, 0, 67, 0
2, 51605, Note_on_c, 0, 60, 0
2, 51615, Note_on_c, 0, 72, 32
2, 51650, Note_on_c, 0, 72, 0
2, 51660, Note_on_c, 0, 60, 32
2, 51660, Note_on_c, 0, 67, 32
2, 51660, Note_on_c, 0, 70, 32
2, 51695, Note_on_c, 0, 70, 0
2, 51695, Note_on_c, 0, 67, 0
2, 51695, Note_on_c, 0, 60, 0
2, 51705, Note_on_c, 0, 72, 32
2, 51740, Note_on_c, 0, 72, 0
2, 51750, Note_on_c, 0, 60, 32
2, 51750, Note_on_c, 0, 67, 32
2, 51750, Note_on_c, 0, 70, 32
2, 51785, Note_on_c, 0, 70, 0
2, 51785, Note_on_c, 0, 67, 0
2, 51785, Note_on_c, 0, 60, 0
2, 51795, Note_on_c, 0, 72, 32
2, 51830, Note_on_c, 0, 72, 0
2, 51840, Note_on_c, 0, 60, 32
2, 51840, Note_on_c, 0, 67, 32
2, 52020, Note_on_c, 0, 72, 50
2, 52200, Note_on_c, 0, 72, 0
2, 52200, Note_on_c, 0, 70, 50
2, 52380, Note_on_c, 0, 70, 0
2, 52380, Note_on_c, 0, 72, 50
2, 52560, Note_on_c, 0, 72, 0
2, 52560, Note_on_c, 0, 67, 0
2, 52560, Note_on_c, 0, 60, 0
2, 52560, Note_on_c, 0, 67, 51
2, 52560, Note_on_c, 0, 60, 33
2, 52595, Note_on_c, 0, 60, 0
2, 52605, Note_on_c, 0, 72, 33
2, 52640, Note_on_c, 0, 72, 0
2, 52650, Note_on_c, 0, 60, 33
2, 52685, Note_on_c, 0, 60, 0
2, 52695, Note_on_c, 0, 72, 33
2, 52730, Note_on_c, 0, 72, 0
2, 52740, Note_on_c, 0, 60, 33
2, 52775, Note_on_c, 0, 60, 0
2, 52785, Note_on_c, 0, 72, 33
2, 52820, Note_on_c, 0, 72, 0
2, 52830, Note_on_c, 0, 60, 33
2, 52865, Note_on_c, 0, 60, 0
2, 52875, Note_on_c, 0, 72, 33
2, 52910, Note_on_c, 0, 72, 0
2, 52920, Note_on_c, 0, 67, 0
2, 52920, Note_on_c, 0, 60, 33
2, 52920, Note_on_c, 0, 70, 33
2, 52955, Note_on_c, 0, 70, 0
2, 52955, Note_on_c, 0, 60, 0
2, 52965, Note_on_c, 0, 72, 34
2, 53000, Note_on_c, 0, 72, 0
2, 53010, Note_on_c, 0, 60, 34
2, 53010, Note_on_c, 0, 70, 34
2, 53045, Note_on_c, 0, 70, 0
2, 53045, Note_on_c, 0, 60, 0
2, 53055, Note_on_c, 0, 72, 34
2, 53090, Note_on_c, 0, 72, 0
2, 53100, Note_on_c, 0, 60, 34
2, 53100, Note_on_c, 0, 70, 34
2, 53135, Note_on_c, 0, 70, 0
2, 53135, Note_on_c, 0, 60, 0
2, 53145, Note_on_c, 0, 72, 34
2, 53180, Note_on_c, 0, 72, 0
2, 53190, Note_on_c, 0, 60, 34
2, 53190, Note_on_c, 0, 70, 34
2, 53225, Note_on_c, 0, 70, 0
2, 53225, Note_on_c, 0, 60, 0
2, 53235, Note_on_c, 0, 72, 34
2, 53270, Note_on_c, 0, 72, 0
2, 53280, Note_on_c, 0, 60, 34
2, 53280, Note_on_c, 0, 67, 34
2, 53460, Note_on_c, 0, 72, 52
2, 53640, Note_on_c, 0, 72, 0
2, 53640, Note_on_c, 0, 70, 52
2, 53820, Note_on_c, 0, 70, 0
2, 53820, Note_on_c, 0, 72, 53
2, 54000, Note_on_c, 0, 72, 0
2, 54000, Note_on_c, 0, 67, 0
2, 54000, Note_on_c, 0, 60, 0
2, 54000, Note_on_c, 0, 68, 53
2, 54000, Note_on_c, 0, 60, 35
2, 54035, Note_on_c, 0, 60, 0
2, 54045, Note_on_c, 0, 72, 35
2, 54080, Note_on_c, 0, 72, 0
2, 54090, Note_on_c, 0, 60, 35
2, 54125, Note_on_c, 0, 60, 0
2, 54135, Note_on_c, 0, 72, 35
2, 54170, Note_on_c, 0, 72, 0
2, 54180, Note_on_c, 0, 60, 35
2, 54215, Note_on_c, 0, 60, 0
2, 54225, Note_on_c, 0, 72, 35
2, 54260, Note_on_c, 0, 72, 0
2, 54270, Note_on_c, 0, 60, 35
2, 54305, Note_on_c, 0, 60, 0
2, 54315, Note_on_c, 0, 72, 36
2, 54350, Note_on_c, 0, 72, 0
2, 54360, Note_on_c, 0, 68, 0
2, 54360, Note_on_c, 0, 60, 36
2, 54395, Note_on_c, 0, 60, 0
2, 54405, Note_on_c, 0, 72, 36
2, 54440, Note_on_c, 0, 72, 0
2, 54450, Note_on_c, 0, 60, 36
2, 54485, Note_on_c, 0, 60, 0
2, 54495, Note_on_c, 0, 72, 36
2, 54530, Note_on_c, 0, 72, 0
2, 54540, Note_on_c, 0, 60, 36
2, 54575, Note_on_c, 0, 60, 0
2, 54585, Note_on_c, 0, 72, 36
2, 54620, Note_on_c, 0, 72, 0
2, 54630, Note_on_c, 0, 60, 36
2, 54665, Note_on_c, 0, 60, 0
2, 54675, Note_on_c, 0, 72, 36
2, 54710, Note_on_c, 0, 72, 0
2, 54720, Note_on_c, 0, 68, 36
2, 54720, Note_on_c, 0, 72, 36
2, 54900, Note_on_c, 0, 72, 0
2, 54900, Note_on_c, 0, 68, 0
2, 54900, Note_on_c, 0, 72, 54
2, 54900, Note_on_c, 0, 72, 57
2, 55080, Note_on_c, 0, 72, 0
2, 55080, Note_on_c, 0, 70, 57
2, 55217, Note_on_c, 0, 72, 0
2, 55260, Note_on_c, 0, 70, 0
2, 55260, Note_on_c, 0, 72, 55
2, 55260, Note_on_c, 0, 72, 57
2, 55440, Note_on_c, 0, 72, 0
2, 55440, Note_on_c, 0, 68, 58
2, 55577, Note_on_c, 0, 72, 0
2, 55620, Note_on_c, 0, 68, 0
2, 55620, Note_on_c, 0, 72, 55
2, 55620, Note_on_c, 0, 72, 58
2, 55800, Note_on_c, 0, 72, 0
2, 55800, Note_on_c, 0, 70, 58
2, 55800, Note_on_c, 0, 60, 38
2, 55937, Note_on_c, 0, 72, 0
2, 55980, Note_on_c, 0, 70, 0
2, 55980, Note_on_c, 0, 72, 56
2, 55980, Note_on_c, 0, 72, 58
2, 56117, Note_on_c, 0, 60, 0
2, 56138, Note_on_c, 0, 72, 0
2, 56160, Note_on_c, 0, 72, 0
2, 56160, Note_on_c, 0, 69, 59
2, 56160, Note_on_c, 0, 61, 38
2, 56340, Note_on_c, 0, 69, 0
2, 56340, Note_on_c, 0, 73, 56
2, 56340, Note_on_c, 0, 73, 59
2, 56520, Note_on_c, 0, 73, 0
2, 56520, Note_on_c, 0, 71, 59
2, 56657, Note_on_c, 0, 73, 0
2, 56700, Note_on_c, 0, 71, 0
2, 56700, Note_on_c, 0, 73, 57
2, 56700, Note_on_c, 0, 73, 59
2, 56793, Note_on_c, 0, 61, 0
2, 56880, Note_on_c, 0, 73, 0
2, 56880, Note_on_c, 0, 69, 60
2, 56880, Note_on_c, 0, 62, 39
2, 57017, Note_on_c, 0, 73, 0
2, 57060, Note_on_c, 0, 69, 0
2, 57060, Note_on_c, 0, 74, 57
2, 57060, Note_on_c, 0, 74, 60
2, 57240, Note_on_c, 0, 74, 0
2, 57240, Note_on_c, 0, 72, 60
2, 57377, Note_on_c, 0, 74, 0
2, 57420, Note_on_c, 0, 72, 0
2, 57420, Note_on_c, 0, 74, 58
2, 57420, Note_on_c, 0, 74, 60
2, 57513, Note_on_c, 0, 62, 0
2, 57578, Note_on_c, 0, 74, 0
2, 57600, Note_on_c, 0, 74, 0
2, 57600, Note_on_c, 0, 67, 58
2, 57600, Note_on_c, 0, 67, 61
2, 57600, Note_on_c, 0, 62, 40
2, 57600, Note_on_c, 0, 55, 86
2, 57780, Note_on_c, 0, 67, 0
2, 57780, Note_on_c, 0, 74, 98
2, 57960, Note_on_c, 0, 74, 0
2, 57960, Note_on_c, 0, 72, 82
2, 58140, Note_on_c, 0, 72, 0
2, 58140, Note_on_c, 0, 74, 81
2, 58320, Note_on_c, 0, 74, 0
2, 58320, Note_on_c, 0, 70, 79
2, 58500, Note_on_c, 0, 70, 0
2, 58500, Note_on_c, 0, 62, 0
2, 58500, Note_on_c, 0, 72, 78
2, 58500, Note_on_c, 0, 62, 78
2, 58680, Note_on_c, 0, 62, 0
2, 58680, Note_on_c, 0, 72, 0
2, 58680, Note_on_c, 0, 69, 76
2, 58680, Note_on_c, 0, 60, 76
2, 58860, Note_on_c, 0, 60, 0
2, 58860, Note_on_c, 0, 69, 0
2, 58860, Note_on_c, 0, 70, 74
2, 58860, Note_on_c, 0, 62, 74
2, 59040, Note_on_c, 0, 62, 0
2, 59040, Note_on_c, 0, 70, 0
2, 59040, Note_on_c, 0, 67, 0
2, 59040, Note_on_c, 0, 67, 73
2, 59040, Note_on_c, 0, 58, 73
2, 59220, Note_on_c, 0, 58, 0
2, 59220, Note_on_c, 0, 60, 71
2, 59400, Note_on_c, 0, 60, 0
2, 59400, Note_on_c, 0, 57, 68
2, 59580, Note_on_c, 0, 57, 0
2, 59580, Note_on_c, 0, 58, 69
2, 59760, Note_on_c, 0, 58, 0
2, 59760, Note_on_c, 0, 55, 0
2, 59760, Note_on_c, 0, 55, 68
2, 59760, Note_on_c, 0, 55, 71
2, 60120, Note_on_c, 0, 67, 0
2, 60120, Note_on_c, 0, 70, 60
2, 60437, Note_on_c, 0, 70, 0
2, 60480, Note_on_c, 0, 55, 0
2, 60480, Note_on_c, 0, 55, 0
2, 60480, Note_on_c, 0, 67, 49
2, 60480, Note_on_c, 0, 58, 60
2, 60480, Note_on_c, 0, 62, 60
2, 60569, Note_on_c, 0, 62, 0
2, 60569, Note_on_c, 0, 58, 0
2, 60660, Note_on_c, 0, 58, 48
2, 60660, Note_on_c, 0, 62, 48
2, 60749, Note_on_c, 0, 62, 0
2, 60749, Note_on_c, 0, 58, 0
2, 60797, Note_on_c, 0, 67, 0
2, 60840, Note_on_c, 0, 65, 40
2, 60840, Note_on_c, 0, 57, 48
2, 60840, Note_on_c, 0, 62, 48
2, 60929, Note_on_c, 0, 62, 0
2, 60929, Note_on_c, 0, 57, 0
2, 60929, Note_on_c, 0, 65, 0
2, 61020, Note_on_c, 0, 62, 37
2, 61020, Note_on_c, 0, 57, 41
2, 61109, Note_on_c, 0, 57, 0
2, 61110, Note_on_c, 0, 62, 0
2, 61110, Note_on_c, 0, 65, 51
2, 61200, Note_on_c, 0, 65, 0
2, 61200, Note_on_c, 0, 67, 50
2, 61200, Note_on_c, 0, 58, 52
2, 61200, Note_on_c, 0, 62, 52
2, 61289, Note_on_c, 0, 62, 0
2, 61289, Note_on_c, 0, 58, 0
2, 61380, Note_on_c, 0, 58, 47
2, 61380, Note_on_c, 0, 62, 47
2, 61469, Note_on_c, 0, 62, 0
2, 61469, Note_on_c, 0, 58, 0
2, 61560, Note_on_c, 0, 58, 47
2, 61560, Note_on_c, 0, 62, 47
2, 61649, Note_on_c, 0, 62, 0
2, 61649, Note_on_c, 0, 58, 0
2, 61740, Note_on_c, 0, 67, 0
2, 61740, Note_on_c, 0, 58, 44
2, 61740, Note_on_c, 0, 62, 44
2, 61829, Note_on_c, 0, 62, 0
2, 61829, Note_on_c, 0, 58, 0
2, 61920, Note_on_c, 0, 69, 57
2, 62100, Note_on_c, 0, 81, 44
2, 62280, Note_on_c, 0, 81, 0
2, 62280, Note_on_c, 0, 79, 36
2, 62460, Note_on_c, 0, 79, 0
2, 62460, Note_on_c, 0, 81, 50
2, 62640, Note_on_c, 0, 81, 0
2, 62640, Note_on_c, 0, 77, 39
2, 62820, Note_on_c, 0, 77, 0
2, 62820, Note_on_c, 0, 69, 0
2, 62820, Note_on_c, 0, 79, 49
2, 62820, Note_on_c, 0, 69, 48
2, 63000, Note_on_c, 0, 69, 0
2, 63000, Note_on_c, 0, 79, 0
2, 63000, Note_on_c, 0, 76, 41
2, 63000, Note_on_c, 0, 67, 43
2, 63180, Note_on_c, 0, 67, 0
2, 63180, Note_on_c, 0, 76, 0
2, 63180, Note_on_c, 0, 77, 47
2, 63180, Note_on_c, 0, 69, 48
2, 63360, Note_on_c, 0, 69, 0
2, 63360, Note_on_c, 0, 77, 0
2, 63360, Note_on_c, 0, 74, 42
2, 63360, Note_on_c, 0, 65, 31
2, 63540, Note_on_c, 0, 65, 0
2, 63540, Note_on_c, 0, 67, 52
2, 63720, Note_on_c, 0, 67, 0
2, 63720, Note_on_c, 0, 64, 46
2, 63900, Note_on_c, 0, 64, 0
2, 63900, Note_on_c, 0, 65, 47
2, 64080, Note_on_c, 0, 65, 0
2, 64080, Note_on_c, 0, 62, 40
2, 64440, Note_on_c, 0, 74, 0
2, 64440, Note_on_c, 0, 77, 65
2, 64620, Note_on_c, 0, 62, 0
2, 64620, Note_on_c, 0, 64, 48
2, 64679, Note_on_c, 0, 64, 0
2, 64679, Note_on_c, 0, 65, 51
2, 64740, Note_on_c, 0, 65, 0
2, 64740, Note_on_c, 0, 67, 47
2, 64757, Note_on_c, 0, 77, 0
2, 64800, Note_on_c, 0, 67, 0
2, 64800, Note_on_c, 0, 74, 73
2, 64800, Note_on_c, 0, 65, 39
2, 64800, Note_on_c, 0, 58, 59
2, 64800, Note_on_c, 0, 62, 59
2, 64889, Note_on_c, 0, 62, 0
2, 64889, Note_on_c, 0, 58, 0
2, 64980, Note_on_c, 0, 58, 41
2, 64980, Note_on_c, 0, 62, 41
2, 65069, Note_on_c, 0, 62, 0
2, 65069, Note_on_c, 0, 58, 0
2, 65117, Note_on_c, 0, 74, 0
2, 65160, Note_on_c, 0, 65, 0
2, 65160, Note_on_c, 0, 72, 37
2, 65160, Note_on_c, 0, 66, 54
2, 65160, Note_on_c, 0, 58, 50
2, 65160, Note_on_c, 0, 62, 50
2, 65249, Note_on_c, 0, 62, 0
2, 65249, Note_on_c, 0, 58, 0
2, 65249, Note_on_c, 0, 72, 0
2, 65340, Note_on_c, 0, 69, 38
2, 65340, Note_on_c, 0, 58, 46
2, 65340, Note_on_c, 0, 62, 46
2, 65429, Note_on_c, 0, 62, 0
2, 65429, Note_on_c, 0, 58, 0
2, 65430, Note_on_c, 0, 69, 0
2, 65430, Note_on_c, 0, 72, 48
2, 65520, Note_on_c, 0, 72, 0
2, 65520, Note_on_c, 0, 66, 0
2, 65520, Note_on_c, 0, 74, 51
2, 65520, Note_on_c, 0, 65, 44
2, 65520, Note_on_c, 0, 58, 46
2, 65520, Note_on_c, 0, 62, 46
2, 65609, Note_on_c, 0, 62, 0
2, 65609, Note_on_c, 0, 58, 0
2, 65700, Note_on_c, 0, 65, 0
2, 65700, Note_on_c, 0, 62, 48
2, 65700, Note_on_c, 0, 65, 48
2, 65789, Note_on_c, 0, 65, 0
2, 65789, Note_on_c, 0, 62, 0
2, 65880, Note_on_c, 0, 62, 49
2, 65880, Note_on_c, 0, 65, 49
2, 65969, Note_on_c, 0, 65, 0
2, 65969, Note_on_c, 0, 62, 0
2, 66060, Note_on_c, 0, 74, 0
2, 66060, Note_on_c, 0, 62, 40
2, 66060, Note_on_c, 0, 65, 40
2, 66149, Note_on_c, 0, 65, 0
2, 66149, Note_on_c, 0, 62, 0
2, 66240, Note_on_c, 0, 62, 28
2, 66275, Note_on_c, 0, 62, 0
2, 66285, Note_on_c, 0, 65, 28
2, 66320, Note_on_c, 0, 65, 0
2, 66330, Note_on_c, 0, 62, 28
2, 66365, Note_on_c, 0, 62, 0
2, 66375, Note_on_c, 0, 65, 29
2, 66410, Note_on_c, 0, 65, 0
2, 66420, Note_on_c, 0, 62, 29
2, 66455, Note_on_c, 0, 62, 0
2, 66465, Note_on_c, 0, 65, 30
2, 66500, Note_on_c, 0, 65, 0
2, 66510, Note_on_c, 0, 62, 30
2, 66545, Note_on_c, 0, 62, 0
2, 66555, Note_on_c, 0, 65, 30
2, 66590, Note_on_c, 0, 65, 0
2, 66600, Note_on_c, 0, 62, 31
2, 66635, Note_on_c, 0, 62, 0
2, 66645, Note_on_c, 0, 65, 31
2, 66680, Note_on_c, 0, 65, 0
2, 66690, Note_on_c, 0, 62, 32
2, 66725, Note_on_c, 0, 62, 0
2, 66735, Note_on_c, 0, 65, 32
2, 66770, Note_on_c, 0, 65, 0
2, 66780, Note_on_c, 0, 62, 32
2, 66815, Note_on_c, 0, 62, 0
2, 66825, Note_on_c, 0, 65, 33
2, 66860, Note_on_c, 0, 65, 0
2, 66870, Note_on_c, 0, 62, 33
2, 66905, Note_on_c, 0, 62, 0
2, 66915, Note_on_c, 0, 65, 34
2, 66950, Note_on_c, 0, 65, 0
2, 66960, Note_on_c, 0, 62, 34
2, 66995, Note_on_c, 0, 62, 0
2, 67005, Note_on_c, 0, 65, 34
2, 67040, Note_on_c, 0, 65, 0
2, 67050, Note_on_c, 0, 62, 35
2, 67085, Note_on_c, 0, 62, 0
2, 67095, Note_on_c, 0, 65, 35
2, 67130, Note_on_c, 0, 65, 0
2, 67140, Note_on_c, 0, 62, 36
2, 67175, Note_on_c, 0, 62, 0
2, 67185, Note_on_c, 0, 65, 36
2, 67220, Note_on_c, 0, 65, 0
2, 67230, Note_on_c, 0, 62, 36
2, 67265, Note_on_c, 0, 62, 0
2, 67275, Note_on_c, 0, 65, 37
2, 67310, Note_on_c, 0, 65, 0
2, 67320, Note_on_c, 0, 70, 55
2, 67320, Note_on_c, 0, 62, 37
2, 67355, Note_on_c, 0, 62, 0
2, 67365, Note_on_c, 0, 65, 38
2, 67400, Note_on_c, 0, 65, 0
2, 67410, Note_on_c, 0, 62, 38
2, 67445, Note_on_c, 0, 62, 0
2, 67455, Note_on_c, 0, 65, 38
2, 67490, Note_on_c, 0, 65, 0
2, 67500, Note_on_c, 0, 70, 0
2, 67500, Note_on_c, 0, 74, 57
2, 67500, Note_on_c, 0, 62, 39
2, 67535, Note_on_c, 0, 62, 0
2, 67545, Note_on_c, 0, 65, 39
2, 67580, Note_on_c, 0, 65, 0
2, 67590, Note_on_c, 0, 62, 40
2, 67625, Note_on_c, 0, 62, 0
2, 67635, Note_on_c, 0, 65, 40
2, 67670, Note_on_c, 0, 65, 0
2, 67680, Note_on_c, 0, 74, 0
2, 67680, Note_on_c, 0, 77, 58
2, 67680, Note_on_c, 0, 62, 24
2, 67715, Note_on_c, 0, 62, 0
2, 67725, Note_on_c, 0, 65, 48
2, 67760, Note_on_c, 0, 65, 0
2, 67770, Note_on_c, 0, 62, 24
2, 67805, Note_on_c, 0, 62, 0
2, 67815, Note_on_c, 0, 65, 48
2, 67850, Note_on_c, 0, 65, 0
2, 67860, Note_on_c, 0, 62, 24
2, 67895, Note_on_c, 0, 62, 0
2, 67905, Note_on_c, 0, 65, 48
2, 67940, Note_on_c, 0, 65, 0
2, 67950, Note_on_c, 0, 62, 24
2, 67985, Note_on_c, 0, 62, 0
2, 67995, Note_on_c, 0, 65, 48
2, 68030, Note_on_c, 0, 65, 0
2, 68040, Note_on_c, 0, 77, 0
2, 68040, Note_on_c, 0, 73, 32
2, 68040, Note_on_c, 0, 61, 30
2, 68075, Note_on_c, 0, 61, 0
2, 68085, Note_on_c, 0, 65, 44
2, 68120, Note_on_c, 0, 65, 0
2, 68130, Note_on_c, 0, 61, 30
2, 68165, Note_on_c, 0, 61, 0
2, 68175, Note_on_c, 0, 65, 44
2, 68210, Note_on_c, 0, 65, 0
2, 68220, Note_on_c, 0, 61, 30
2, 68255, Note_on_c, 0, 61, 0
2, 68265, Note_on_c, 0, 65, 44
2, 68300, Note_on_c, 0, 65, 0
2, 68310, Note_on_c, 0, 61, 30
2, 68345, Note_on_c, 0, 61, 0
2, 68355, Note_on_c, 0, 65, 44
2, 68390, Note_on_c, 0, 65, 0
2, 68400, Note_on_c, 0, 61, 30
2, 68435, Note_on_c, 0, 61, 0
2, 68445, Note_on_c, 0, 65, 44
2, 68480, Note_on_c, 0, 65, 0
2, 68490, Note_on_c, 0, 61, 30
2, 68525, Note_on_c, 0, 61, 0
2, 68535, Note_on_c, 0, 65, 44
2, 68570, Note_on_c, 0, 65, 0
2, 68580, Note_on_c, 0, 61, 30
2, 68615, Note_on_c, 0, 61, 0
2, 68625, Note_on_c, 0, 65, 44
2, 68660, Note_on_c, 0, 65, 0
2, 68670, Note_on_c, 0, 61, 30
2, 68705, Note_on_c, 0, 61, 0
2, 68715, Note_on_c, 0, 65, 44
2, 68750, Note_on_c, 0, 65, 0
2, 68760, Note_on_c, 0, 73, 0
2, 68760, Note_on_c, 0, 70, 28
2, 68760, Note_on_c, 0, 61, 30
2, 68795, Note_on_c, 0, 61, 0
2, 68805, Note_on_c, 0, 65, 44
2, 68840, Note_on_c, 0, 65, 0
2, 68850, Note_on_c, 0, 61, 30
2, 68885, Note_on_c, 0, 61, 0
2, 68895, Note_on_c, 0, 65, 44
2, 68930, Note_on_c, 0, 65, 0
2, 68940, Note_on_c, 0, 61, 30
2, 68975, Note_on_c, 0, 61, 0
2, 68985, Note_on_c, 0, 65, 44
2, 69020, Note_on_c, 0, 65, 0
2, 69030, Note_on_c, 0, 61, 30
2, 69065, Note_on_c, 0, 61, 0
2, 69075, Note_on_c, 0, 65, 44
2, 69110, Note_on_c, 0, 65, 0
2, 69120, Note_on_c, 0, 61, 39
2, 69155, Note_on_c, 0, 61, 0
2, 69165, Note_on_c, 0, 65, 39
2, 69200, Note_on_c, 0, 65, 0
2, 69210, Note_on_c, 0, 61, 39
2, 69245, Note_on_c, 0, 61, 0
2, 69255, Note_on_c, 0, 65, 39
2, 69290, Note_on_c, 0, 65, 0
2, 69300, Note_on_c, 0, 61, 39
2, 69335, Note_on_c, 0, 61, 0
2, 69345, Note_on_c, 0, 65, 39
2, 69380, Note_on_c, 0, 65, 0
2, 69390, Note_on_c, 0, 61, 39
2, 69425, Note_on_c, 0, 61, 0
2, 69435, Note_on_c, 0, 65, 39
2, 69470, Note_on_c, 0, 65, 0
2, 69480, Note_on_c, 0, 70, 0
2, 69480, Note_on_c, 0, 69, 36
2, 69480, Note_on_c, 0, 62, 32
2, 69515, Note_on_c, 0, 62, 0
2, 69525, Note_on_c, 0, 65, 41
2, 69560, Note_on_c, 0, 65, 0
2, 69570, Note_on_c, 0, 62, 32
2, 69605, Note_on_c, 0, 62, 0
2, 69615, Note_on_c, 0, 65, 41
2, 69650, Note_on_c, 0, 65, 0
2, 69660, Note_on_c, 0, 62, 32
2, 69695, Note_on_c, 0, 62, 0
2, 69705, Note_on_c, 0, 65, 41
2, 69740, Note_on_c, 0, 65, 0
2, 69750, Note_on_c, 0, 62, 32
2, 69785, Note_on_c, 0, 62, 0
2, 69795, Note_on_c, 0, 65, 41
2, 69830, Note_on_c, 0, 65, 0
2, 69840, Note_on_c, 0, 69, 0
2, 69840, Note_on_c, 0, 62, 32
2, 69875, Note_on_c, 0, 62, 0
2, 69885, Note_on_c, 0, 65, 41
2, 69920, Note_on_c, 0, 65, 0
2, 69930, Note_on_c, 0, 62, 32
2, 69965, Note_on_c, 0, 62, 0
2, 69975, Note_on_c, 0, 65, 41
2, 70010, Note_on_c, 0, 65, 0
2, 70020, Note_on_c, 0, 62, 32
2, 70055, Note_on_c, 0, 62, 0
2, 70065, Note_on_c, 0, 65, 41
2, 70100, Note_on_c, 0, 65, 0
2, 70110, Note_on_c, 0, 62, 32
2, 70145, Note_on_c, 0, 62, 0
2, 70155, Note_on_c, 0, 65, 41
2, 70190, Note_on_c, 0, 65, 0
2, 70200, Note_on_c, 0, 62, 32
2, 70235, Note_on_c, 0, 62, 0
2, 70245, Note_on_c, 0, 65, 41
2, 70280, Note_on_c, 0, 65, 0
2, 70290, Note_on_c, 0, 62, 32
2, 70325, Note_on_c, 0, 62, 0
2, 70335, Note_on_c, 0, 65, 41
2, 70370, Note_on_c, 0, 65, 0
2, 70380, Note_on_c, 0, 62, 32
2, 70415, Note_on_c, 0, 62, 0
2, 70425, Note_on_c, 0, 65, 41
2, 70460, Note_on_c, 0, 65, 0
2, 70470, Note_on_c, 0, 62, 32
2, 70505, Note_on_c, 0, 62, 0
2, 70515, Note_on_c, 0, 65, 41
2, 70550, Note_on_c, 0, 65, 0
2, 70560, Note_on_c, 0, 65, 35
2, 70595, Note_on_c, 0, 65, 0
2, 70605, Note_on_c, 0, 69, 36
2, 70640, Note_on_c, 0, 69, 0
2, 70650, Note_on_c, 0, 65, 36
2, 70685, Note_on_c, 0, 65, 0
2, 70695, Note_on_c, 0, 69, 36
2, 70730, Note_on_c, 0, 69, 0
2, 70740, Note_on_c, 0, 65, 37
2, 70775, Note_on_c, 0, 65, 0
2, 70785, Note_on_c, 0, 69, 37
2, 70820, Note_on_c, 0, 69, 0
2, 70830, Note_on_c, 0, 65, 38
2, 70865, Note_on_c, 0, 65, 0
2, 70875, Note_on_c, 0, 69, 38
2, 70910, Note_on_c, 0, 69, 0
2, 70920, Note_on_c, 0, 65, 38
2, 70955, Note_on_c, 0, 65, 0
2, 70965, Note_on_c, 0, 69, 39
2, 71000, Note_on_c, 0, 69, 0
2, 71010, Note_on_c, 0, 65, 39
2, 71045, Note_on_c, 0, 65, 0
2, 71055, Note_on_c, 0, 69, 40
2, 71090, Note_on_c, 0, 69, 0
2, 71100, Note_on_c, 0, 65, 40
2, 71135, Note_on_c, 0, 65, 0
2, 71145, Note_on_c, 0, 69, 40
2, 71180, Note_on_c, 0, 69, 0
2, 71190, Note_on_c, 0, 65, 41
2, 71225, Note_on_c, 0, 65, 0
2, 71235, Note_on_c, 0, 69, 41
2, 71270, Note_on_c, 0, 69, 0
2, 71280, Note_on_c, 0, 65, 42
2, 71315, Note_on_c, 0, 65, 0
2, 71325, Note_on_c, 0, 69, 42
2, 71360, Note_on_c, 0, 69, 0
2, 71370, Note_on_c, 0, 65, 42
2, 71405, Note_on_c, 0, 65, 0
2, 71415, Note_on_c, 0, 69, 43
2, 71450, Note_on_c, 0, 69, 0
2, 71460, Note_on_c, 0, 65, 43
2, 71495, Note_on_c, 0, 65, 0
2, 71505, Note_on_c, 0, 69, 44
2, 71540, Note_on_c, 0, 69, 0
2, 71550, Note_on_c, 0, 65, 44
2, 71585, Note_on_c, 0, 65, 0
2, 71595, Note_on_c, 0, 69, 44
2, 71630, Note_on_c, 0, 69, 0
2, 71640, Note_on_c, 0, 74, 45
2, 71640, Note_on_c, 0, 65, 45
2, 71675, Note_on_c, 0, 65, 0
2, 71685, Note_on_c, 0, 69, 45
2, 71720, Note_on_c, 0, 69, 0
2, 71730, Note_on_c, 0, 65, 46
2, 71765, Note_on_c, 0, 65, 0
2, 71775, Note_on_c, 0, 69, 46
2, 71810, Note_on_c, 0, 69, 0
2, 71820, Note_on_c, 0, 74, 0
2, 71820, Note_on_c, 0, 77, 46
2, 71820, Note_on_c, 0, 65, 46
2, 71855, Note_on_c, 0, 65, 0
2, 71865, Note_on_c, 0, 69, 47
2, 71900, Note_on_c, 0, 69, 0
2, 71910, Note_on_c, 0, 65, 47
2, 71945, Note_on_c, 0, 65, 0
2, 71955, Note_on_c, 0, 69, 48
2, 71990, Note_on_c, 0, 69, 0
2, 72000, Note_on_c, 0, 77, 0
2, 72000, Note_on_c, 0, 81, 48
2, 72000, Note_on_c, 0, 65, 29
2, 72035, Note_on_c, 0, 65, 0
2, 72045, Note_on_c, 0, 69, 40
2, 72080, Note_on_c, 0, 69, 0
2, 72090, Note_on_c, 0, 65, 29
2, 72125, Note_on_c, 0, 65, 0
2, 72135, Note_on_c, 0, 69, 40
2, 72170, Note_on_c, 0, 69, 0
2, 72180, Note_on_c, 0, 65, 29
2, 72215, Note_on_c, 0, 65, 0
2, 72225, Note_on_c, 0, 69, 40
2, 72260, Note_on_c, 0, 69, 0
2, 72270, Note_on_c, 0, 65, 29
2, 72305, Note_on_c, 0, 65, 0
2, 72315, Note_on_c, 0, 69, 40
2, 72350, Note_on_c, 0, 69, 0
2, 72360, Note_on_c, 0, 81, 0
2, 72360, Note_on_c, 0, 77, 31
2, 72360, Note_on_c, 0, 65, 29
2, 72395, Note_on_c, 0, 65, 0
2, 72405, Note_on_c, 0, 69, 40
2, 72440, Note_on_c, 0, 69, 0
2, 72450, Note_on_c, 0, 65, 29
2, 72485, Note_on_c, 0, 65, 0
2, 72495, Note_on_c, 0, 69, 40
2, 72530, Note_on_c, 0, 69, 0
2, 72540, Note_on_c, 0, 65, 29
2, 72575, Note_on_c, 0, 65, 0
2, 72585, Note_on_c, 0, 69, 40
2, 72620, Note_on_c, 0, 69, 0
2, 72630, Note_on_c, 0, 65, 29
2, 72665, Note_on_c, 0, 65, 0
2, 72675, Note_on_c, 0, 69, 40
2, 72710, Note_on_c, 0, 69, 0
2, 72720, Note_on_c, 0, 65, 29
2, 72755, Note_on_c, 0, 65, 0
2, 72765, Note_on_c, 0, 69, 40
2, 72800, Note_on_c, 0, 69, 0
2, 72810, Note_on_c, 0, 65, 29
2, 72845, Note_on_c, 0, 65, 0
2, 72855, Note_on_c, 0, 69, 40
2, 72890, Note_on_c, 0, 69, 0
2, 72900, Note_on_c, 0, 65, 29
2, 72935, Note_on_c, 0, 65, 0
2, 72945, Note_on_c, 0, 69, 40
2, 72980, Note_on_c, 0, 69, 0
2, 72990, Note_on_c, 0, 65, 29
2, 73025, Note_on_c, 0, 65, 0
2, 73035, Note_on_c, 0, 69, 40
2, 73070, Note_on_c, 0, 69, 0
2, 73080, Note_on_c, 0, 77, 0
2, 73080, Note_on_c, 0, 73, 31
2, 73080, Note_on_c, 0, 65, 29
2, 73115, Note_on_c, 0, 65, 0
2, 73125, Note_on_c, 0, 69, 40
2, 73160, Note_on_c, 0, 69, 0
2, 73170, Note_on_c, 0, 65, 29
2, 73205, Note_on_c, 0, 65, 0
2, 73215, Note_on_c, 0, 69, 40
2, 73250, Note_on_c, 0, 69, 0
2, 73260, Note_on_c, 0, 65, 29
2, 73295, Note_on_c, 0, 65, 0
2, 73305, Note_on_c, 0, 69, 40
2, 73340, Note_on_c, 0, 69, 0
2, 73350, Note_on_c, 0, 65, 29
2, 73385, Note_on_c, 0, 65, 0
2, 73395, Note_on_c, 0, 69, 40
2, 73430, Note_on_c, 0, 69, 0
2, 73440, Note_on_c, 0, 65, 31
2, 73475, Note_on_c, 0, 65, 0
2, 73485, Note_on_c, 0, 69, 41
2, 73520, Note_on_c, 0, 69, 0
2, 73530, Note_on_c, 0, 65, 31
2, 73565, Note_on_c, 0, 65, 0
2, 73575, Note_on_c, 0, 69, 41
2, 73610, Note_on_c, 0, 69, 0
2, 73620, Note_on_c, 0, 65, 31
2, 73655, Note_on_c, 0, 65, 0
2, 73665, Note_on_c, 0, 69, 41
2, 73700, Note_on_c, 0, 69, 0
2, 73710, Note_on_c, 0, 65, 31
2, 73745, Note_on_c, 0, 65, 0
2, 73755, Note_on_c, 0, 69, 41
2, 73790, Note_on_c, 0, 69, 0
2, 73800, Note_on_c, 0, 73, 0
2, 73800, Note_on_c, 0, 72, 33
2, 73800, Note_on_c, 0, 65, 31
2, 73835, Note_on_c, 0, 65, 0
2, 73845, Note_on_c, 0, 69, 41
2, 73880, Note_on_c, 0, 69, 0
2, 73890, Note_on_c, 0, 65, 31
2, 73925, Note_on_c, 0, 65, 0
2, 73935, Note_on_c, 0, 69, 41
2, 73970, Note_on_c, 0, 69, 0
2, 73980, Note_on_c, 0, 65, 31
2, 74015, Note_on_c, 0, 65, 0
2, 74025, Note_on_c, 0, 69, 41
2, 74060, Note_on_c, 0, 69, 0
2, 74070, Note_on_c, 0, 65, 31
2, 74105, Note_on_c, 0, 65, 0
2, 74115, Note_on_c, 0, 69, 41
2, 74150, Note_on_c, 0, 69, 0
2, 74160, Note_on_c, 0, 72, 0
2, 74160, Note_on_c, 0, 65, 31
2, 74195, Note_on_c, 0, 65, 0
2, 74205, Note_on_c, 0, 69, 41
2, 74240, Note_on_c, 0, 69, 0
2, 74250, Note_on_c, 0, 65, 31
2, 74285, Note_on_c, 0, 65, 0
2, 74295, Note_on_c, 0, 69, 41
2, 74330, Note_on_c, 0, 69, 0
2, 74340, Note_on_c, 0, 65, 31
2, 74375, Note_on_c, 0, 65, 0
2, 74385, Note_on_c, 0, 69, 41
2, 74420, Note_on_c, 0, 69, 0
2, 74430, Note_on_c, 0, 65, 31
2, 74465, Note_on_c, 0, 65, 0
2, 74475, Note_on_c, 0, 69, 41
2, 74510, Note_on_c, 0, 69, 0
2, 74520, Note_on_c, 0, 65, 31
2, 74555, Note_on_c, 0, 65, 0
2, 74565, Note_on_c, 0, 69, 41
2, 74600, Note_on_c, 0, 69, 0
2, 74610, Note_on_c, 0, 65, 31
2, 74645, Note_on_c, 0, 65, 0
2, 74655, Note_on_c, 0, 69, 41
2, 74690, Note_on_c, 0, 69, 0
2, 74700, Note_on_c, 0, 65, 31
2, 74735, Note_on_c, 0, 65, 0
2, 74745, Note_on_c, 0, 69, 41
2, 74780, Note_on_c, 0, 69, 0
2, 74790, Note_on_c, 0, 65, 31
2, 74825, Note_on_c, 0, 65, 0
2, 74835, Note_on_c, 0, 69, 41
2, 74870, Note_on_c, 0, 69, 0
2, 74880, Note_on_c, 0, 81, 50
2, 74880, Note_on_c, 0, 69, 45
2, 75354, Note_on_c, 0, 69, 0
2, 75354, Note_on_c, 0, 81, 0
2, 75420, Note_on_c, 0, 81, 45
2, 75420, Note_on_c, 0, 69, 45
2, 75600, Note_on_c, 0, 69, 0
2, 75600, Note_on_c, 0, 81, 0
2, 75600, Note_on_c, 0, 79, 46
2, 75600, Note_on_c, 0, 67, 46
2, 75780, Note_on_c, 0, 67, 0
2, 75780, Note_on_c, 0, 79, 0
2, 75780, Note_on_c, 0, 81, 46
2, 75780, Note_on_c, 0, 69, 46
2, 75960, Note_on_c, 0, 69, 0
2, 75960, Note_on_c, 0, 81, 0
2, 75960, Note_on_c, 0, 77, 47
2, 75960, Note_on_c, 0, 65, 47
2, 76140, Note_on_c, 0, 65, 0
2, 76140, Note_on_c, 0, 77, 0
2, 76140, Note_on_c, 0, 76, 47
2, 76320, Note_on_c, 0, 76, 0
2, 76320, Note_on_c, 0, 81, 48
2, 76320, Note_on_c, 0, 69, 48
2, 76500, Note_on_c, 0, 69, 0
2, 76794, Note_on_c, 0, 81, 0
2, 76860, Note_on_c, 0, 80, 49
2, 76860, Note_on_c, 0, 68, 49
2, 77040, Note_on_c, 0, 68, 0
2, 77040, Note_on_c, 0, 80, 0
2, 77040, Note_on_c, 0, 81, 50
2, 77040, Note_on_c, 0, 69, 50
2, 77220, Note_on_c, 0, 69, 0
2, 77220, Note_on_c, 0, 81, 0
2, 77220, Note_on_c, 0, 80, 50
2, 77220, Note_on_c, 0, 68, 50
2, 77400, Note_on_c, 0, 68, 0
2, 77400, Note_on_c, 0, 80, 0
2, 77400, Note_on_c, 0, 81, 50
2, 77400, Note_on_c, 0, 69, 50
2, 77580, Note_on_c, 0, 69, 0
2, 77580, Note_on_c, 0, 81, 0
2, 77580, Note_on_c, 0, 80, 51
2, 77580, Note_on_c, 0, 68, 51
2, 77669, Note_on_c, 0, 68, 0
2, 77760, Note_on_c, 0, 80, 0
2, 77760, Note_on_c, 0, 81, 51
2, 77760, Note_on_c, 0, 69, 51
2, 77804, Note_on_c, 0, 69, 0
2, 77850, Note_on_c, 0, 71, 52
2, 77894, Note_on_c, 0, 71, 0
2, 77940, Note_on_c, 0, 72, 52
2, 77984, Note_on_c, 0, 72, 0
2, 78030, Note_on_c, 0, 71, 52
2, 78074, Note_on_c, 0, 71, 0
2, 78120, Note_on_c, 0, 69, 52
2, 78234, Note_on_c, 0, 81, 0
2, 78300, Note_on_c, 0, 81, 53
2, 78356, Note_on_c, 0, 69, 0
2, 78390, Note_on_c, 0, 69, 53
2, 78434, Note_on_c, 0, 69, 0
2, 78480, Note_on_c, 0, 81, 0
2, 78480, Note_on_c, 0, 79, 53
2, 78480, Note_on_c, 0, 69, 53
2, 78524, Note_on_c, 0, 69, 0
2, 78570, Note_on_c, 0, 71, 53
2, 78614, Note_on_c, 0, 71, 0
2, 78660, Note_on_c, 0, 79, 0
2, 78660, Note_on_c, 0, 81, 54
2, 78660, Note_on_c, 0, 73, 54
2, 78704, Note_on_c, 0, 73, 0
2, 78750, Note_on_c, 0, 71, 54
2, 78794, Note_on_c, 0, 71, 0
2, 78840, Note_on_c, 0, 81, 0
2, 78840, Note_on_c, 0, 85, 54
2, 78840, Note_on_c, 0, 73, 54
2, 79020, Note_on_c, 0, 85, 0
2, 79020, Note_on_c, 0, 79, 55
2, 79076, Note_on_c, 0, 73, 0
2, 79110, Note_on_c, 0, 73, 55
2, 79154, Note_on_c, 0, 73, 0
2, 79200, Note_on_c, 0, 79, 0
2, 79200, Note_on_c, 0, 81, 55
2, 79200, Note_on_c, 0, 74, 55
2, 79244, Note_on_c, 0, 74, 0
2, 79290, Note_on_c, 0, 76, 55
2, 79334, Note_on_c, 0, 76, 0
2, 79380, Note_on_c, 0, 77, 55
2, 79424, Note_on_c, 0, 77, 0
2, 79470, Note_on_c, 0, 76, 56
2, 79514, Note_on_c, 0, 76, 0
2, 79560, Note_on_c, 0, 74, 56
2, 79674, Note_on_c, 0, 81, 0
2, 79740, Note_on_c, 0, 80, 56
2, 79796, Note_on_c, 0, 74, 0
2, 79830, Note_on_c, 0, 76, 57
2, 79920, Note_on_c, 0, 76, 0
2, 79920, Note_on_c, 0, 80, 0
2, 79920, Note_on_c, 0, 81, 57
2, 79920, Note_on_c, 0, 74, 57
2, 80100, Note_on_c, 0, 81, 0
2, 80100, Note_on_c, 0, 80, 57
2, 80156, Note_on_c, 0, 74, 0
2, 80190, Note_on_c, 0, 71, 57
2, 80280, Note_on_c, 0, 71, 0
2, 80280, Note_on_c, 0, 80, 0
2, 80280, Note_on_c, 0, 81, 58
2, 80280, Note_on_c, 0, 72, 58
2, 80460, Note_on_c, 0, 81, 0
2, 80460, Note_on_c, 0, 81, 66
2, 80516, Note_on_c, 0, 72, 0
2, 80550, Note_on_c, 0, 69, 49
2, 80618, Note_on_c, 0, 81, 0
2, 80640, Note_on_c, 0, 69, 0
2, 80640, Note_on_c, 0, 74, 108
2, 80640, Note_on_c, 0, 86, 108
2, 80640, Note_on_c, 0, 62, 77
2, 81114, Note_on_c, 0, 62, 0
2, 81114, Note_on_c, 0, 86, 0
2, 81114, Note_on_c, 0, 74, 0
2, 81180, Note_on_c, 0, 74, 87
2, 81180, Note_on_c, 0, 86, 87
2, 81180, Note_on_c, 0, 62, 81
2, 81360, Note_on_c, 0, 62, 0
2, 81360, Note_on_c, 0, 86, 0
2, 81360, Note_on_c, 0, 74, 0
2, 81360, Note_on_c, 0, 72, 79
2, 81360, Note_on_c, 0, 84, 79
2, 81360, Note_on_c, 0, 60, 77
2, 81540, Note_on_c, 0, 60, 0
2, 81540, Note_on_c, 0, 84, 0
2, 81540, Note_on_c, 0, 72, 0
2, 81540, Note_on_c, 0, 74, 86
2, 81540, Note_on_c, 0, 86, 86
2, 81540, Note_on_c, 0, 62, 87
2, 81720, Note_on_c, 0, 62, 0
2, 81720, Note_on_c, 0, 86, 0
2, 81720, Note_on_c, 0, 74, 0
2, 81720, Note_on_c, 0, 70, 69
2, 81720, Note_on_c, 0, 82, 69
2, 81720, Note_on_c, 0, 58, 82
2, 81900, Note_on_c, 0, 58, 0
2, 81900, Note_on_c, 0, 82, 0
2, 81900, Note_on_c, 0, 70, 0
2, 81900, Note_on_c, 0, 81, 80
2, 81900, Note_on_c, 0, 69, 111
2, 82080, Note_on_c, 0, 69, 0
2, 82080, Note_on_c, 0, 81, 0
2, 82080, Note_on_c, 0, 86, 82
2, 82080, Note_on_c, 0, 74, 82
2, 82554, Note_on_c, 0, 74, 0
2, 82554, Note_on_c, 0, 86, 0
2, 82620, Note_on_c, 0, 85, 84
2, 82620, Note_on_c, 0, 73, 84
2, 82800, Note_on_c, 0, 73, 0
2, 82800, Note_on_c, 0, 85, 0
2, 82800, Note_on_c, 0, 86, 84
2, 82800, Note_on_c, 0, 74, 84
2, 82980, Note_on_c, 0, 74, 0
2, 82980, Note_on_c, 0, 86, 0
2, 82980, Note_on_c, 0, 85, 85
2, 82980, Note_on_c, 0, 73, 85
2, 83160, Note_on_c, 0, 73, 0
2, 83160, Note_on_c, 0, 85, 0
2, 83160, Note_on_c, 0, 86, 85
2, 83160, Note_on_c, 0, 74, 85
2, 83340, Note_on_c, 0, 74, 0
2, 83340, Note_on_c, 0, 86, 0
2, 83340, Note_on_c, 0, 85, 86
2, 83340, Note_on_c, 0, 73, 86
2, 83520, Note_on_c, 0, 73, 0
2, 83520, Note_on_c, 0, 85, 0
2, 83520, Note_on_c, 0, 86, 87
2, 83520, Note_on_c, 0, 74, 87
2, 83994, Note_on_c, 0, 74, 0
2, 83994, Note_on_c, 0, 86, 0
2, 84060, Note_on_c, 0, 86, 88
2, 84060, Note_on_c, 0, 74, 88
2, 84240, Note_on_c, 0, 74, 0
2, 84240, Note_on_c, 0, 86, 0
2, 84240, Note_on_c, 0, 84, 89
2, 84240, Note_on_c, 0, 72, 89
2, 84420, Note_on_c, 0, 72, 0
2, 84420, Note_on_c, 0, 84, 0
2, 84420, Note_on_c, 0, 86, 89
2, 84420, Note_on_c, 0, 74, 89
2, 84600, Note_on_c, 0, 74, 0
2, 84600, Note_on_c, 0, 86, 0
2, 84600, Note_on_c, 0, 89, 90
2, 84600, Note_on_c, 0, 77, 90
2, 84780, Note_on_c, 0, 77, 0
2, 84780, Note_on_c, 0, 89, 0
2, 84780, Note_on_c, 0, 84, 90
2, 84780, Note_on_c, 0, 72, 90
2, 84960, Note_on_c, 0, 72, 0
2, 84960, Note_on_c, 0, 84, 0
2, 84960, Note_on_c, 0, 86, 91
2, 84960, Note_on_c, 0, 74, 91
2, 85434, Note_on_c, 0, 74, 0
2, 85434, Note_on_c, 0, 86, 0
2, 85500, Note_on_c, 0, 86, 92
2, 85500, Note_on_c, 0, 74, 92
2, 85680, Note_on_c, 0, 74, 0
2, 85680, Note_on_c, 0, 86, 0
2, 85680, Note_on_c, 0, 84, 93
2, 85680, Note_on_c, 0, 72, 93
2, 85860, Note_on_c, 0, 72, 0
2, 85860, Note_on_c, 0, 84, 0
2, 85860, Note_on_c, 0, 86, 93
2, 85860, Note_on_c, 0, 74, 93
2, 86040, Note_on_c, 0, 74, 0
2, 86040, Note_on_c, 0, 86, 0
2, 86040, Note_on_c, 0, 90, 94
2, 86040, Note_on_c, 0, 78, 94
2, 86220, Note_on_c, 0, 78, 0
2, 86220, Note_on_c, 0, 90, 0
2, 86220, Note_on_c, 0, 84, 94
2, 86220, Note_on_c, 0, 72, 94
2, 86400, Note_on_c, 0, 72, 0
2, 86400, Note_on_c, 0, 84, 0
2, 86400, Note_on_c, 0, 79, 95
2, 86400, Note_on_c, 0, 82, 95
2, 86400, Note_on_c, 0, 86, 95
2, 86400, Note_on_c, 0, 67, 95
2, 86400, Note_on_c, 0, 70, 95
2, 86400, Note_on_c, 0, 74, 95
2, 86580, Note_on_c, 0, 74, 0
2, 86580, Note_on_c, 0, 67, 0
2, 86580, Note_on_c, 0, 70, 0
2, 86580, Note_on_c, 0, 67, 80
2, 86580, Note_on_c, 0, 70, 80
2, 86670, Note_on_c, 0, 70, 0
2, 86670, Note_on_c, 0, 67, 0
2, 86670, Note_on_c, 0, 74, 105
2, 86760, Note_on_c, 0, 74, 0
2, 86760, Note_on_c, 0, 67, 83
2, 86760, Note_on_c, 0, 70, 83
2, 86940, Note_on_c, 0, 70, 0
2, 86940, Note_on_c, 0, 67, 0
2, 86940, Note_on_c, 0, 67, 92
2, 86940, Note_on_c, 0, 70, 92
2, 87030, Note_on_c, 0, 70, 0
2, 87030, Note_on_c, 0, 67, 0
2, 87030, Note_on_c, 0, 74, 110
2, 87120, Note_on_c, 0, 74, 0
2, 87120, Note_on_c, 0, 67, 89
2, 87120, Note_on_c, 0, 70, 89
2, 87300, Note_on_c, 0, 70, 0
2, 87300, Note_on_c, 0, 67, 0
2, 87300, Note_on_c, 0, 67, 112
2, 87300, Note_on_c, 0, 70, 112
2, 87300, Note_on_c, 0, 74, 112
2, 87480, Note_on_c, 0, 74, 0
2, 87480, Note_on_c, 0, 86, 0
2, 87480, Note_on_c, 0, 79, 0
2, 87480, Note_on_c, 0, 82, 0
2, 87480, Note_on_c, 0, 70, 0
2, 87480, Note_on_c, 0, 67, 0
2, 87480, Note_on_c, 0, 76, 93
2, 87480, Note_on_c, 0, 79, 93
2, 87480, Note_on_c, 0, 84, 93
2, 87480, Note_on_c, 0, 64, 112
2, 87480, Note_on_c, 0, 67, 112
2, 87480, Note_on_c, 0, 72, 112
2, 87660, Note_on_c, 0, 72, 0
2, 87660, Note_on_c, 0, 64, 0
2, 87660, Note_on_c, 0, 67, 0
2, 87660, Note_on_c, 0, 64, 112
2, 87660, Note_on_c, 0, 67, 112
2, 87660, Note_on_c, 0, 72, 112
2, 87840, Note_on_c, 0, 72, 0
2, 87840, Note_on_c, 0, 84, 0
2, 87840, Note_on_c, 0, 76, 0
2, 87840, Note_on_c, 0, 79, 0
2, 87840, Note_on_c, 0, 67, 0
2, 87840, Note_on_c, 0, 64, 0
2, 87840, Note_on_c, 0, 79, 99
2, 87840, Note_on_c, 0, 82, 99
2, 87840, Note_on_c, 0, 86, 99
2, 87840, Note_on_c, 0, 67, 103
2, 87840, Note_on_c, 0, 70, 103
2, 87840, Note_on_c, 0, 74, 103
2, 88020, Note_on_c, 0, 74, 0
2, 88020, Note_on_c, 0, 82, 0
2, 88020, Note_on_c, 0, 86, 0
2, 88020, Note_on_c, 0, 79, 0
2, 88020, Note_on_c, 0, 70, 0
2, 88020, Note_on_c, 0, 67, 0
2, 88020, Note_on_c, 0, 84, 85
2, 88020, Note_on_c, 0, 72, 89
2, 88110, Note_on_c, 0, 72, 0
2, 88110, Note_on_c, 0, 84, 0
2, 88110, Note_on_c, 0, 86, 99
2, 88110, Note_on_c, 0, 74, 101
2, 88200, Note_on_c, 0, 74, 0
2, 88200, Note_on_c, 0, 86, 0
2, 88200, Note_on_c, 0, 82, 83
2, 88200, Note_on_c, 0, 70, 87
2, 88380, Note_on_c, 0, 70, 0
2, 88380, Note_on_c, 0, 82, 0
2, 88380, Note_on_c, 0, 81, 89
2, 88380, Note_on_c, 0, 69, 91
2, 88470, Note_on_c, 0, 69, 0
2, 88470, Note_on_c, 0, 81, 0
2, 88470, Note_on_c, 0, 82, 101
2, 88470, Note_on_c, 0, 70, 96
2, 88560, Note_on_c, 0, 70, 0
2, 88560, Note_on_c, 0, 82, 0
2, 88560, Note_on_c, 0, 79, 82
2, 88560, Note_on_c, 0, 67, 83
2, 88650, Note_on_c, 0, 67, 0
2, 88650, Note_on_c, 0, 79, 0
2, 88650, Note_on_c, 0, 81, 102
2, 88650, Note_on_c, 0, 69, 99
2, 88740, Note_on_c, 0, 69, 0
2, 88740, Note_on_c, 0, 81, 0
2, 88740, Note_on_c, 0, 82, 105
2, 88740, Note_on_c, 0, 70, 101
2, 88830, Note_on_c, 0, 70, 0
2, 88830, Note_on_c, 0, 82, 0
2, 88830, Note_on_c, 0, 81, 94
2, 88830, Note_on_c, 0, 69, 92
2, 88920, Note_on_c, 0, 69, 0
2, 88920, Note_on_c, 0, 81, 0
2, 88920, Note_on_c, 0, 82, 103
2, 88920, Note_on_c, 0, 70, 98
2, 89100, Note_on_c, 0, 70, 0
2, 89100, Note_on_c, 0, 82, 0
2, 89100, Note_on_c, 0, 82, 95
2, 89100, Note_on_c, 0, 70, 99
2, 89190, Note_on_c, 0, 70, 0
2, 89190, Note_on_c, 0, 82, 0
2, 89190, Note_on_c, 0, 84, 100
2, 89190, Note_on_c, 0, 72, 103
2, 89280, Note_on_c, 0, 72, 0
2, 89280, Note_on_c, 0, 84, 0
2, 89280, Note_on_c, 0, 79, 104
2, 89280, Note_on_c, 0, 82, 104
2, 89280, Note_on_c, 0, 86, 104
2, 89280, Note_on_c, 0, 67, 99
2, 89280, Note_on_c, 0, 70, 99
2, 89280, Note_on_c, 0, 74, 99
2, 89460, Note_on_c, 0, 74, 0
2, 89460, Note_on_c, 0, 67, 0
2, 89460, Note_on_c, 0, 70, 0
2, 89460, Note_on_c, 0, 67, 82
2, 89460, Note_on_c, 0, 70, 82
2, 89550, Note_on_c, 0, 70, 0
2, 89550, Note_on_c, 0, 67, 0
2, 89550, Note_on_c, 0, 74, 105
2, 89640, Note_on_c, 0, 74, 0
2, 89640, Note_on_c, 0, 67, 83
2, 89640, Note_on_c, 0, 70, 83
2, 89820, Note_on_c, 0, 70, 0
2, 89820, Note_on_c, 0, 67, 0
2, 89820, Note_on_c, 0, 67, 88
2, 89820, Note_on_c, 0, 70, 88
2, 89910, Note_on_c, 0, 70, 0
2, 89910, Note_on_c, 0, 67, 0
2, 89910, Note_on_c, 0, 74, 101
2, 90000, Note_on_c, 0, 74, 0
2, 90000, Note_on_c, 0, 67, 85
2, 90000, Note_on_c, 0, 70, 85
2, 90180, Note_on_c, 0, 70, 0
2, 90180, Note_on_c, 0, 67, 0
2, 90180, Note_on_c, 0, 67, 112
2, 90180, Note_on_c, 0, 70, 112
2, 90180, Note_on_c, 0, 74, 112
2, 90360, Note_on_c, 0, 74, 0
2, 90360, Note_on_c, 0, 86, 0
2, 90360, Note_on_c, 0, 79, 0
2, 90360, Note_on_c, 0, 82, 0
2, 90360, Note_on_c, 0, 70, 0
2, 90360, Note_on_c, 0, 67, 0
2, 90360, Note_on_c, 0, 76, 90
2, 90360, Note_on_c, 0, 79, 90
2, 90360, Note_on_c, 0, 84, 90
2, 90360, Note_on_c, 0, 64, 112
2, 90360, Note_on_c, 0, 67, 112
2, 90360, Note_on_c, 0, 72, 112
2, 90540, Note_on_c, 0, 72, 0
2, 90540, Note_on_c, 0, 64, 0
2, 90540, Note_on_c, 0, 67, 0
2, 90540, Note_on_c, 0, 64, 112
2, 90540, Note_on_c, 0, 67, 112
2, 90540, Note_on_c, 0, 72, 112
2, 90720, Note_on_c, 0, 72, 0
2, 90720, Note_on_c, 0, 84, 0
2, 90720, Note_on_c, 0, 76, 0
2, 90720, Note_on_c, 0, 79, 0
2, 90720, Note_on_c, 0, 67, 0
2, 90720, Note_on_c, 0, 64, 0
2, 90720, Note_on_c, 0, 79, 100
2, 90720, Note_on_c, 0, 82, 100
2, 90720, Note_on_c, 0, 86, 100
2, 90720, Note_on_c, 0, 67, 106
2, 90720, Note_on_c, 0, 70, 106
2, 90720, Note_on_c, 0, 74, 106
2, 90900, Note_on_c, 0, 74, 0
2, 90900, Note_on_c, 0, 82, 0
2, 90900, Note_on_c, 0, 86, 0
2, 90900, Note_on_c, 0, 79, 0
2, 90900, Note_on_c, 0, 70, 0
2, 90900, Note_on_c, 0, 67, 0
2, 90900, Note_on_c, 0, 84, 87
2, 90900, Note_on_c, 0, 72, 89
2, 90990, Note_on_c, 0, 72, 0
2, 90990, Note_on_c, 0, 84, 0
2, 90990, Note_on_c, 0, 86, 99
2, 90990, Note_on_c, 0, 74, 100
2, 91080, Note_on_c, 0, 74, 0
2, 91080, Note_on_c, 0, 86, 0
2, 91080, Note_on_c, 0, 82, 82
2, 91080, Note_on_c, 0, 70, 87
2, 91260, Note_on_c, 0, 70, 0
2, 91260, Note_on_c, 0, 82, 0
2, 91260, Note_on_c, 0, 81, 89
2, 91260, Note_on_c, 0, 69, 92
2, 91350, Note_on_c, 0, 69, 0
2, 91350, Note_on_c, 0, 81, 0
2, 91350, Note_on_c, 0, 82, 98
2, 91350, Note_on_c, 0, 70, 99
2, 91440, Note_on_c, 0, 70, 0
2, 91440, Note_on_c, 0, 82, 0
2, 91440, Note_on_c, 0, 79, 85
2, 91440, Note_on_c, 0, 67, 88
2, 91530, Note_on_c, 0, 67, 0
2, 91530, Note_on_c, 0, 79, 0
2, 91530, Note_on_c, 0, 81, 104
2, 91530, Note_on_c, 0, 69, 100
2, 91620, Note_on_c, 0, 69, 0
2, 91620, Note_on_c, 0, 81, 0
2, 91620, Note_on_c, 0, 82, 102
2, 91620, Note_on_c, 0, 70, 99
2, 91710, Note_on_c, 0, 70, 0
2, 91710, Note_on_c, 0, 82, 0
2, 91710, Note_on_c, 0, 81, 92
2, 91710, Note_on_c, 0, 69, 95
2, 91800, Note_on_c, 0, 69, 0
2, 91800, Note_on_c, 0, 81, 0
2, 91800, Note_on_c, 0, 82, 94
2, 91800, Note_on_c, 0, 70, 100
2, 91980, Note_on_c, 0, 70, 0
2, 91980, Note_on_c, 0, 82, 0
2, 91980, Note_on_c, 0, 82, 95
2, 91980, Note_on_c, 0, 70, 95
2, 92070, Note_on_c, 0, 70, 0
2, 92070, Note_on_c, 0, 82, 0
2, 92070, Note_on_c, 0, 84, 106
2, 92070, Note_on_c, 0, 72, 101
2, 92160, Note_on_c, 0, 72, 0
2, 92160, Note_on_c, 0, 84, 0
2, 92160, Note_on_c, 0, 86, 111
2, 92160, Note_on_c, 0, 74, 111
2, 92250, Note_on_c, 0, 74, 0
2, 92250, Note_on_c, 0, 86, 0
2, 92250, Note_on_c, 0, 91, 111
2, 92250, Note_on_c, 0, 79, 111
2, 92340, Note_on_c, 0, 79, 0
2, 92340, Note_on_c, 0, 91, 0
2, 92340, Note_on_c, 0, 90, 108
2, 92340, Note_on_c, 0, 78, 109
2, 92430, Note_on_c, 0, 78, 0
2, 92430, Note_on_c, 0, 90, 0
2, 92430, Note_on_c, 0, 91, 111
2, 92430, Note_on_c, 0, 79, 111
2, 92520, Note_on_c, 0, 79, 0
2, 92520, Note_on_c, 0, 91, 0
2, 92520, Note_on_c, 0, 86, 94
2, 92520, Note_on_c, 0, 74, 95
2, 92610, Note_on_c, 0, 74, 0
2, 92610, Note_on_c, 0, 86, 0
2, 92610, Note_on_c, 0, 91, 111
2, 92610, Note_on_c, 0, 79, 111
2, 92700, Note_on_c, 0, 79, 0
2, 92700, Note_on_c, 0, 91, 0
2, 92700, Note_on_c, 0, 90, 110
2, 92700, Note_on_c, 0, 78, 107
2, 92790, Note_on_c, 0, 78, 0
2, 92790, Note_on_c, 0, 90, 0
2, 92790, Note_on_c, 0, 91, 111
2, 92790, Note_on_c, 0, 79, 111
2, 92880, Note_on_c, 0, 79, 0
2, 92880, Note_on_c, 0, 91, 0
2, 92880, Note_on_c, 0, 85, 91
2, 92880, Note_on_c, 0, 73, 90
2, 92970, Note_on_c, 0, 73, 0
2, 92970, Note_on_c, 0, 85, 0
2, 92970, Note_on_c, 0, 90, 111
2, 92970, Note_on_c, 0, 78, 111
2, 93060, Note_on_c, 0, 78, 0
2, 93060, Note_on_c, 0, 90, 0
2, 93060, Note_on_c, 0, 89, 105
2, 93060, Note_on_c, 0, 77, 109
2, 93150, Note_on_c, 0, 77, 0
2, 93150, Note_on_c, 0, 89, 0
2, 93150, Note_on_c, 0, 90, 111
2, 93150, Note_on_c, 0, 78, 111
2, 93240, Note_on_c, 0, 78, 0
2, 93240, Note_on_c, 0, 90, 0
2, 93240, Note_on_c, 0, 85, 92
2, 93240, Note_on_c, 0, 73, 92
2, 93330, Note_on_c, 0, 73, 0
2, 93330, Note_on_c, 0, 85, 0
2, 93330, Note_on_c, 0, 90, 111
2, 93330, Note_on_c, 0, 78, 111
2, 93420, Note_on_c, 0, 78, 0
2, 93420, Note_on_c, 0, 90, 0
2, 93420, Note_on_c, 0, 89, 103
2, 93420, Note_on_c, 0, 77, 109
2, 93510, Note_on_c, 0, 77, 0
2, 93510, Note_on_c, 0, 89, 0
2, 93510, Note_on_c, 0, 90, 111
2, 93510, Note_on_c, 0, 78, 111
2, 93600, Note_on_c, 0, 78, 0
2, 93600, Note_on_c, 0, 90, 0
2, 93600, Note_on_c, 0, 83, 86
2, 93600, Note_on_c, 0, 71, 90
2, 93690, Note_on_c, 0, 71, 0
2, 93690, Note_on_c, 0, 83, 0
2, 93690, Note_on_c, 0, 90, 111
2, 93690, Note_on_c, 0, 78, 111
2, 93780, Note_on_c, 0, 78, 0
2, 93780, Note_on_c, 0, 90, 0
2, 93780, Note_on_c, 0, 89, 110
2, 93780, Note_on_c, 0, 77, 109
2, 93870, Note_on_c, 0, 77, 0
2, 93870, Note_on_c, 0, 89, 0
2, 93870, Note_on_c, 0, 90, 111
2, 93870, Note_on_c, 0, 78, 111
2, 93960, Note_on_c, 0, 78, 0
2, 93960, Note_on_c, 0, 90, 0
2, 93960, Note_on_c, 0, 83, 90
2, 93960, Note_on_c, 0, 71, 87
2, 94050, Note_on_c, 0, 71, 0
2, 94050, Note_on_c, 0, 83, 0
2, 94050, Note_on_c, 0, 90, 111
2, 94050, Note_on_c, 0, 78, 111
2, 94140, Note_on_c, 0, 78, 0
2, 94140, Note_on_c, 0, 90, 0
2, 94140, Note_on_c, 0, 89, 109
2, 94140, Note_on_c, 0, 77, 109
2, 94230, Note_on_c, 0, 77, 0
2, 94230, Note_on_c, 0, 89, 0
2, 94230, Note_on_c, 0, 90, 111
2, 94230, Note_on_c, 0, 78, 111
2, 94320, Note_on_c, 0, 78, 0
2, 94320, Note_on_c, 0, 90, 0
2, 94320, Note_on_c, 0, 82, 85
2, 94320, Note_on_c, 0, 70, 83
2, 94410, Note_on_c, 0, 70, 0
2, 94410, Note_on_c, 0, 82, 0
2, 94410, Note_on_c, 0, 87, 111
2, 94410, Note_on_c, 0, 75, 111
2, 94500, Note_on_c, 0, 75, 0
2, 94500, Note_on_c, 0, 87, 0
2, 94500, Note_on_c, 0, 86, 108
2, 94500, Note_on_c, 0, 74, 111
2, 94590, Note_on_c, 0, 74, 0
2, 94590, Note_on_c, 0, 86, 0
2, 94590, Note_on_c, 0, 87, 111
2, 94590, Note_on_c, 0, 75, 111
2, 94680, Note_on_c, 0, 75, 0
2, 94680, Note_on_c, 0, 87, 0
2, 94680, Note_on_c, 0, 82, 94
2, 94680, Note_on_c, 0, 70, 93
2, 94770, Note_on_c, 0, 70, 0
2, 94770, Note_on_c, 0, 82, 0
2, 94770, Note_on_c, 0, 87, 111
2, 94770, Note_on_c, 0, 75, 111
2, 94860, Note_on_c, 0, 75, 0
2, 94860, Note_on_c, 0, 87, 0
2, 94860, Note_on_c, 0, 86, 106
2, 94860, Note_on_c, 0, 74, 109
2, 94950, Note_on_c, 0, 74, 0
2, 94950, Note_on_c, 0, 86, 0
2, 94950, Note_on_c, 0, 87, 111
2, 94950, Note_on_c, 0, 75, 111
2, 95040, Note_on_c, 0, 75, 0
2, 95040, Note_on_c, 0, 87, 0
2, 95040, Note_on_c, 0, 79, 88
2, 95040, Note_on_c, 0, 67, 87
2, 95130, Note_on_c, 0, 67, 0
2, 95130, Note_on_c, 0, 79, 0
2, 95130, Note_on_c, 0, 86, 111
2, 95130, Note_on_c, 0, 74, 111
2, 95220, Note_on_c, 0, 74, 0
2, 95220, Note_on_c, 0, 86, 0
2, 95220, Note_on_c, 0, 85, 108
2, 95220, Note_on_c, 0, 73, 106
2, 95310, Note_on_c, 0, 73, 0
2, 95310, Note_on_c, 0, 85, 0
2, 95310, Note_on_c, 0, 86, 111
2, 95310, Note_on_c, 0, 74, 111
2, 95400, Note_on_c, 0, 74, 0
2, 95400, Note_on_c, 0, 86, 0
2, 95400, Note_on_c, 0, 79, 91
2, 95400, Note_on_c, 0, 67, 89
2, 95490, Note_on_c, 0, 67, 0
2, 95490, Note_on_c, 0, 79, 0
2, 95490, Note_on_c, 0, 86, 111
2, 95490, Note_on_c, 0, 74, 111
2, 95580, Note_on_c, 0, 74, 0
2, 95580, Note_on_c, 0, 86, 0
2, 95580, Note_on_c, 0, 85, 107
2, 95580, Note_on_c, 0, 73, 110
2, 95670, Note_on_c, 0, 73, 0
2, 95670, Note_on_c, 0, 85, 0
2, 95670, Note_on_c, 0, 86, 111
2, 95670, Note_on_c, 0, 74, 111
2, 95760, Note_on_c, 0, 74, 0
2, 95760, Note_on_c, 0, 86, 0
2, 95760, Note_on_c, 0, 78, 111
2, 95760, Note_on_c, 0, 66, 111
2, 95850, Note_on_c, 0, 66, 0
2, 95850, Note_on_c, 0, 78, 0
2, 95850, Note_on_c, 0, 82, 111
2, 95850, Note_on_c, 0, 70, 111
2, 95940, Note_on_c, 0, 70, 0
2, 95940, Note_on_c, 0, 82, 0
2, 95940, Note_on_c, 0, 81, 110
2, 95940, Note_on_c, 0, 69, 110
2, 96030, Note_on_c, 0, 69, 0
2, 96030, Note_on_c, 0, 81, 0
2, 96030, Note_on_c, 0, 82, 110
2, 96030, Note_on_c, 0, 70, 110
2, 96120, Note_on_c, 0, 70, 0
2, 96120, Note_on_c, 0, 82, 0
2, 96120, Note_on_c, 0, 78, 109
2, 96120, Note_on_c, 0, 66, 109
2, 96210, Note_on_c, 0, 66, 0
2, 96210, Note_on_c, 0, 78, 0
2, 96210, Note_on_c, 0, 82, 109
2, 96210, Note_on_c, 0, 70, 109
2, 96300, Note_on_c, 0, 70, 0
2, 96300, Note_on_c, 0, 82, 0
2, 96300, Note_on_c, 0, 81, 108
2, 96300, Note_on_c, 0, 69, 108
2, 96390, Note_on_c, 0, 69, 0
2, 96390, Note_on_c, 0, 81, 0
2, 96390, Note_on_c, 0, 82, 108
2, 96390, Note_on_c, 0, 70, 108
2, 96480, Note_on_c, 0, 70, 0
2, 96480, Note_on_c, 0, 82, 0
2, 96480, Note_on_c, 0, 71, 107
2, 96570, Note_on_c, 0, 71, 0
2, 96570, Note_on_c, 0, 78, 107
2, 96570, Note_on_c, 0, 66, 107
2, 96660, Note_on_c, 0, 66, 0
2, 96660, Note_on_c, 0, 78, 0
2, 96660, Note_on_c, 0, 77, 106
2, 96660, Note_on_c, 0, 65, 106
2, 96750, Note_on_c, 0, 65, 0
2, 96750, Note_on_c, 0, 77, 0
2, 96750, Note_on_c, 0, 78, 106
2, 96750, Note_on_c, 0, 66, 106
2, 96840, Note_on_c, 0, 66, 0
2, 96840, Note_on_c, 0, 78, 0
2, 96840, Note_on_c, 0, 71, 105
2, 96930, Note_on_c, 0, 71, 0
2, 96930, Note_on_c, 0, 78, 105
2, 96930, Note_on_c, 0, 66, 105
2, 97020, Note_on_c, 0, 66, 0
2, 97020, Note_on_c, 0, 78, 0
2, 97020, Note_on_c, 0, 77, 104
2, 97020, Note_on_c, 0, 65, 104
2, 97110, Note_on_c, 0, 65, 0
2, 97110, Note_on_c, 0, 77, 0
2, 97110, Note_on_c, 0, 78, 104
2, 97110, Note_on_c, 0, 66, 104
2, 97200, Note_on_c, 0, 66, 0
2, 97200, Note_on_c, 0, 78, 0
2, 97200, Note_on_c, 0, 70, 103
2, 97290, Note_on_c, 0, 70, 0
2, 97290, Note_on_c, 0, 75, 103
2, 97290, Note_on_c, 0, 63, 102
2, 97380, Note_on_c, 0, 63, 0
2, 97380, Note_on_c, 0, 75, 0
2, 97380, Note_on_c, 0, 74, 102
2, 97380, Note_on_c, 0, 62, 102
2, 97470, Note_on_c, 0, 62, 0
2, 97470, Note_on_c, 0, 74, 0
2, 97470, Note_on_c, 0, 75, 101
2, 97470, Note_on_c, 0, 63, 101
2, 97560, Note_on_c, 0, 63, 0
2, 97560, Note_on_c, 0, 75, 0
2, 97560, Note_on_c, 0, 70, 101
2, 97650, Note_on_c, 0, 70, 0
2, 97650, Note_on_c, 0, 75, 100
2, 97650, Note_on_c, 0, 63, 100
2, 97740, Note_on_c, 0, 63, 0
2, 97740, Note_on_c, 0, 75, 0
2, 97740, Note_on_c, 0, 74, 100
2, 97740, Note_on_c, 0, 62, 100
2, 97830, Note_on_c, 0, 62, 0
2, 97830, Note_on_c, 0, 74, 0
2, 97830, Note_on_c, 0, 75, 99
2, 97830, Note_on_c, 0, 63, 99
2, 97920, Note_on_c, 0, 63, 0
2, 97920, Note_on_c, 0, 75, 0
2, 97920, Note_on_c, 0, 74, 68
2, 97920, Note_on_c, 0, 62, 60
2, 98100, Note_on_c, 0, 74, 0
2, 98100, Note_on_c, 0, 72, 65
2, 98190, Note_on_c, 0, 72, 0
2, 98190, Note_on_c, 0, 74, 74
2, 98280, Note_on_c, 0, 74, 0
2, 98280, Note_on_c, 0, 70, 61
2, 98460, Note_on_c, 0, 70, 0
2, 98460, Note_on_c, 0, 69, 61
2, 98550, Note_on_c, 0, 69, 0
2, 98550, Note_on_c, 0, 70, 71
2, 98640, Note_on_c, 0, 70, 0
2, 98640, Note_on_c, 0, 67, 62
2, 98730, Note_on_c, 0, 67, 0
2, 98730, Note_on_c, 0, 69, 72
2, 98820, Note_on_c, 0, 69, 0
2, 98820, Note_on_c, 0, 70, 72
2, 98910, Note_on_c, 0, 70, 0
2, 98910, Note_on_c, 0, 69, 68
2, 99000, Note_on_c, 0, 69, 0
2, 99000, Note_on_c, 0, 70, 70
2, 99180, Note_on_c, 0, 70, 0
2, 99180, Note_on_c, 0, 70, 65
2, 99270, Note_on_c, 0, 70, 0
2, 99270, Note_on_c, 0, 72, 67
2, 99360, Note_on_c, 0, 72, 0
2, 99360, Note_on_c, 0, 62, 0
2, 99360, Note_on_c, 0, 74, 79
2, 99360, Note_on_c, 0, 62, 63
2, 99450, Note_on_c, 0, 74, 0
2, 99450, Note_on_c, 0, 67, 59
2, 99539, Note_on_c, 0, 62, 0
2, 99540, Note_on_c, 0, 67, 0
2, 99540, Note_on_c, 0, 74, 79
2, 99630, Note_on_c, 0, 74, 0
2, 99630, Note_on_c, 0, 67, 50
2, 99720, Note_on_c, 0, 67, 0
2, 99720, Note_on_c, 0, 72, 78
2, 99720, Note_on_c, 0, 60, 64
2, 99810, Note_on_c, 0, 72, 0
2, 99810, Note_on_c, 0, 67, 59
2, 99899, Note_on_c, 0, 60, 0
2, 99900, Note_on_c, 0, 67, 0
2, 99900, Note_on_c, 0, 72, 80
2, 99990, Note_on_c, 0, 72, 0
2, 99990, Note_on_c, 0, 67, 59
2, 100080, Note_on_c, 0, 67, 0
2, 100080, Note_on_c, 0, 74, 68
2, 100080, Note_on_c, 0, 62, 68
2, 100260, Note_on_c, 0, 74, 0
2, 100260, Note_on_c, 0, 72, 67
2, 100350, Note_on_c, 0, 72, 0
2, 100350, Note_on_c, 0, 74, 67
2, 100440, Note_on_c, 0, 74, 0
2, 100440, Note_on_c, 0, 70, 66
2, 100620, Note_on_c, 0, 70, 0
2, 100620, Note_on_c, 0, 69, 65
2, 100710, Note_on_c, 0, 69, 0
2, 100710, Note_on_c, 0, 70, 64
2, 100800, Note_on_c, 0, 70, 0
2, 100800, Note_on_c, 0, 67, 64
2, 100890, Note_on_c, 0, 67, 0
2, 100890, Note_on_c, 0, 69, 63
2, 100980, Note_on_c, 0, 69, 0
2, 100980, Note_on_c, 0, 70, 63
2, 101070, Note_on_c, 0, 70, 0
2, 101070, Note_on_c, 0, 69, 62
2, 101160, Note_on_c, 0, 69, 0
2, 101160, Note_on_c, 0, 70, 62
2, 101340, Note_on_c, 0, 70, 0
2, 101340, Note_on_c, 0, 70, 61
2, 101430, Note_on_c, 0, 70, 0
2, 101430, Note_on_c, 0, 72, 60
2, 101520, Note_on_c, 0, 72, 0
2, 101520, Note_on_c, 0, 62, 0
2, 101520, Note_on_c, 0, 74, 59
2, 101520, Note_on_c, 0, 62, 60
2, 101610, Note_on_c, 0, 74, 0
2, 101610, Note_on_c, 0, 67, 59
2, 101699, Note_on_c, 0, 62, 0
2, 101700, Note_on_c, 0, 67, 0
2, 101700, Note_on_c, 0, 74, 58
2, 101790, Note_on_c, 0, 74, 0
2, 101790, Note_on_c, 0, 67, 58
2, 101880, Note_on_c, 0, 67, 0
2, 101880, Note_on_c, 0, 72, 57
2, 101880, Note_on_c, 0, 60, 58
2, 101970, Note_on_c, 0, 72, 0
2, 101970, Note_on_c, 0, 67, 57
2, 102059, Note_on_c, 0, 60, 0
2, 102060, Note_on_c, 0, 67, 0
2, 102060, Note_on_c, 0, 72, 56
2, 102150, Note_on_c, 0, 72, 0
2, 102150, Note_on_c, 0, 67, 46
2, 102240, Note_on_c, 0, 67, 0
2, 102240, Note_on_c, 0, 74, 70
2, 102240, Note_on_c, 0, 62, 63
2, 102329, Note_on_c, 0, 74, 0
2, 102420, Note_on_c, 0, 62, 0
2, 102420, Note_on_c, 0, 60, 51
2, 102510, Note_on_c, 0, 60, 0
2, 102510, Note_on_c, 0, 62, 60
2, 102600, Note_on_c, 0, 62, 0
2, 102600, Note_on_c, 0, 58, 53
2, 102780, Note_on_c, 0, 58, 0
2, 102780, Note_on_c, 0, 57, 56
2, 102870, Note_on_c, 0, 57, 0
2, 102870, Note_on_c, 0, 58, 58
2, 102960, Note_on_c, 0, 58, 0
2, 102960, Note_on_c, 0, 55, 51
2, 103050, Note_on_c, 0, 55, 0
2, 103050, Note_on_c, 0, 57, 57
2, 103140, Note_on_c, 0, 57, 0
2, 103140, Note_on_c, 0, 58, 57
2, 103230, Note_on_c, 0, 58, 0
2, 103230, Note_on_c, 0, 57, 54
2, 103320, Note_on_c, 0, 57, 0
2, 103320, Note_on_c, 0, 58, 61
2, 103500, Note_on_c, 0, 58, 0
2, 103500, Note_on_c, 0, 58, 55
2, 103590, Note_on_c, 0, 58, 0
2, 103590, Note_on_c, 0, 60, 61
2, 103680, Note_on_c, 0, 60, 0
2, 103680, Note_on_c, 0, 62, 59
2, 103770, Note_on_c, 0, 62, 0
2, 103770, Note_on_c, 0, 55, 51
2, 103860, Note_on_c, 0, 55, 0
2, 103860, Note_on_c, 0, 62, 70
2, 103950, Note_on_c, 0, 62, 0
2, 103950, Note_on_c, 0, 55, 51
2, 104040, Note_on_c, 0, 55, 0
2, 104040, Note_on_c, 0, 60, 61
2, 104130, Note_on_c, 0, 60, 0
2, 104130, Note_on_c, 0, 55, 55
2, 104220, Note_on_c, 0, 55, 0
2, 104220, Note_on_c, 0, 60, 67
2, 104310, Note_on_c, 0, 60, 0
2, 104310, Note_on_c, 0, 55, 50
2, 104400, Note_on_c, 0, 55, 0
2, 104400, Note_on_c, 0, 62, 69
2, 104580, Note_on_c, 0, 62, 0
2, 118440, Note_on_c, 0, 55, 30
2, 118757, Note_on_c, 0, 55, 0
2, 118800, Note_on_c, 0, 58, 44
2, 119117, Note_on_c, 0, 58, 0
2, 119160, Note_on_c, 0, 61, 45
2, 119700, Note_on_c, 0, 61, 0
2, 119700, Note_on_c, 0, 62, 30
2, 120017, Note_on_c, 0, 62, 0
2, 120060, Note_on_c, 0, 67, 34
2, 120377, Note_on_c, 0, 67, 0
2, 120420, Note_on_c, 0, 70, 38
2, 120578, Note_on_c, 0, 70, 0
2, 120600, Note_on_c, 0, 73, 71
2, 120758, Note_on_c, 0, 73, 0
2, 120780, Note_on_c, 0, 74, 84
2, 120938, Note_on_c, 0, 74, 0
2, 120960, Note_on_c, 0, 82, 99
2, 122400, Note_on_c, 0, 70, 57
2, 122400, Note_on_c, 0, 74, 57
2, 124740, Note_on_c, 0, 74, 0
2, 124740, Note_on_c, 0, 70, 0
2, 124740, Note_on_c, 0, 82, 0
2, 124740, Note_on_c, 0, 81, 78
2, 124898, Note_on_c, 0, 81, 0
2, 124920, Note_on_c, 0, 78, 74
2, 125078, Note_on_c, 0, 78, 0
2, 125100, Note_on_c, 0, 77, 75
2, 125258, Note_on_c, 0, 77, 0
2, 125280, Note_on_c, 0, 75, 79
2, 125384, Note_on_c, 0, 75, 0
2, 125400, Note_on_c, 0, 74, 82
2, 125504, Note_on_c, 0, 74, 0
2, 125519, Note_on_c, 0, 73, 75
2, 125625, Note_on_c, 0, 73, 0
2, 125640, Note_on_c, 0, 74, 83
2, 125744, Note_on_c, 0, 74, 0
2, 125760, Note_on_c, 0, 75, 83
2, 125864, Note_on_c, 0, 75, 0
2, 125879, Note_on_c, 0, 74, 74
2, 125985, Note_on_c, 0, 74, 0
2, 126000, Note_on_c, 0, 79, 92
2, 126000, Note_on_c, 0, 70, 70
2, 126104, Note_on_c, 0, 70, 0
2, 126120, Note_on_c, 0, 69, 74
2, 126224, Note_on_c, 0, 69, 0
2, 126239, Note_on_c, 0, 70, 82
2, 126345, Note_on_c, 0, 70, 0
2, 126360, Note_on_c, 0, 71, 74
2, 126360, Note_on_c, 0, 67, 111
2, 126720, Note_on_c, 0, 79, 0
2, 126720, Note_on_c, 0, 75, 59
2, 127260, Note_on_c, 0, 75, 0
2, 127260, Note_on_c, 0, 74, 65
2, 127440, Note_on_c, 0, 74, 0
2, 127440, Note_on_c, 0, 72, 61
2, 127440, Note_on_c, 0, 72, 76
2, 127800, Note_on_c, 0, 72, 0
2, 127800, Note_on_c, 0, 79, 81
2, 128160, Note_on_c, 0, 79, 0
2, 128160, Note_on_c, 0, 72, 59
2, 128340, Note_on_c, 0, 72, 0
2, 128340, Note_on_c, 0, 71, 0
2, 128340, Note_on_c, 0, 67, 0
2, 128700, Note_on_c, 0, 72, 0
2, 128700, Note_on_c, 0, 70, 60
2, 128880, Note_on_c, 0, 70, 0
2, 128880, Note_on_c, 0, 70, 69
2, 128880, Note_on_c, 0, 67, 59
2, 128880, Note_on_c, 0, 63, 82
2, 129600, Note_on_c, 0, 70, 0
2, 129600, Note_on_c, 0, 69, 68
2, 129960, Note_on_c, 0, 67, 0
2, 129960, Note_on_c, 0, 66, 64
2, 130320, Note_on_c, 0, 66, 0
2, 130320, Note_on_c, 0, 69, 0
2, 130320, Note_on_c, 0, 63, 0
2, 130320, Note_on_c, 0, 69, 73
2, 130320, Note_on_c, 0, 67, 72
2, 130320, Note_on_c, 0, 62, 102
2, 130500, Note_on_c, 0, 69, 0
2, 130500, Note_on_c, 0, 70, 76
2, 130637, Note_on_c, 0, 62, 0
2, 130680, Note_on_c, 0, 70, 0
2, 130680, Note_on_c, 0, 75, 82
2, 130680, Note_on_c, 0, 61, 103
2, 131220, Note_on_c, 0, 61, 0
2, 131220, Note_on_c, 0, 75, 0
2, 131220, Note_on_c, 0, 74, 63
2, 131220, Note_on_c, 0, 62, 112
2, 131378, Note_on_c, 0, 62, 0
2, 131400, Note_on_c, 0, 74, 0
2, 131400, Note_on_c, 0, 67, 0
2, 131400, Note_on_c, 0, 70, 57
2, 131400, Note_on_c, 0, 67, 70
2, 131400, Note_on_c, 0, 62, 110
2, 131580, Note_on_c, 0, 67, 0
2, 131580, Note_on_c, 0, 70, 0
2, 131580, Note_on_c, 0, 69, 65
2, 131760, Note_on_c, 0, 69, 0
2, 131760, Note_on_c, 0, 69, 47
2, 131864, Note_on_c, 0, 69, 0
2, 131880, Note_on_c, 0, 67, 44
2, 131984, Note_on_c, 0, 67, 0
2, 131999, Note_on_c, 0, 66, 47
2, 132105, Note_on_c, 0, 66, 0
2, 132120, Note_on_c, 0, 67, 48
2, 132224, Note_on_c, 0, 67, 0
2, 132240, Note_on_c, 0, 69, 52
2, 132300, Note_on_c, 0, 62, 0
2, 132344, Note_on_c, 0, 69, 0
2, 132359, Note_on_c, 0, 67, 46
2, 132465, Note_on_c, 0, 67, 0
2, 132480, Note_on_c, 0, 74, 54
2, 132480, Note_on_c, 0, 63, 43
2, 132584, Note_on_c, 0, 63, 0
2, 132600, Note_on_c, 0, 62, 45
2, 132704, Note_on_c, 0, 62, 0
2, 132719, Note_on_c, 0, 63, 44
2, 132825, Note_on_c, 0, 63, 0
2, 132840, Note_on_c, 0, 64, 36
2, 132840, Note_on_c, 0, 60, 95
2, 133020, Note_on_c, 0, 74, 0
2, 133020, Note_on_c, 0, 72, 35
2, 133200, Note_on_c, 0, 72, 0
2, 133200, Note_on_c, 0, 69, 30
2, 133740, Note_on_c, 0, 69, 0
2, 133740, Note_on_c, 0, 67, 29
2, 133920, Note_on_c, 0, 67, 0
2, 133920, Note_on_c, 0, 64, 0
2, 133920, Note_on_c, 0, 65, 32
2, 133920, Note_on_c, 0, 65, 38
2, 134280, Note_on_c, 0, 65, 0
2, 134280, Note_on_c, 0, 72, 44
2, 134640, Note_on_c, 0, 72, 0
2, 134640, Note_on_c, 0, 65, 35
2, 134820, Note_on_c, 0, 60, 0
2, 135000, Note_on_c, 0, 65, 0
2, 135180, Note_on_c, 0, 65, 0
2, 135180, Note_on_c, 0, 63, 44
2, 135360, Note_on_c, 0, 63, 0
2, 135360, Note_on_c, 0, 63, 68
2, 135360, Note_on_c, 0, 60, 68
2, 135360, Note_on_c, 0, 57, 103
2, 136080, Note_on_c, 0, 63, 0
2, 136080, Note_on_c, 0, 62, 56
2, 136440, Note_on_c, 0, 57, 0
2, 136440, Note_on_c, 0, 56, 96
2, 136620, Note_on_c, 0, 56, 0
2, 136620, Note_on_c, 0, 57, 102
2, 136800, Note_on_c, 0, 57, 0
2, 136800, Note_on_c, 0, 62, 0
2, 136800, Note_on_c, 0, 60, 0
2, 136800, Note_on_c, 0, 61, 72
2, 136800, Note_on_c, 0, 58, 111
2, 136980, Note_on_c, 0, 61, 0
2, 136980, Note_on_c, 0, 62, 72
2, 137160, Note_on_c, 0, 70, 82
2, 137793, Note_on_c, 0, 70, 0
2, 137880, Control_c, 0, 64, 127
2, 137880, Note_on_c, 0, 69, 82
2, 138197, Note_on_c, 0, 69, 0
2, 138240, Note_on_c, 0, 66, 78
2, 138557, Note_on_c, 0, 66, 0
2, 138600, Control_c, 0, 64, 0
2, 138600, Note_on_c, 0, 65, 74
2, 138780, Note_on_c, 0, 62, 0
2, 138780, Note_on_c, 0, 58, 0
2, 139140, Note_on_c, 0, 65, 0
2, 139320, Note_on_c, 0, 74, 73
2, 139637, Note_on_c, 0, 74, 0
2, 139680, Note_on_c, 0, 74, 67
2, 139680, Note_on_c, 0, 66, 70
2, 139680, Note_on_c, 0, 69, 70
2, 139800, Note_on_c, 0, 74, 0
2, 139800, Note_on_c, 0, 72, 62
2, 139997, Note_on_c, 0, 69, 0
2, 139997, Note_on_c, 0, 66, 0
2, 140040, Note_on_c, 0, 72, 0
2, 140040, Note_on_c, 0, 74, 75
2, 140040, Note_on_c, 0, 67, 85
2, 140040, Note_on_c, 0, 70, 85
2, 140279, Note_on_c, 0, 74, 0
2, 140279, Note_on_c, 0, 72, 66
2, 140357, Note_on_c, 0, 70, 0
2, 140357, Note_on_c, 0, 67, 0
2, 140400, Note_on_c, 0, 72, 0
2, 140400, Note_on_c, 0, 74, 70
2, 140400, Note_on_c, 0, 66, 74
2, 140400, Note_on_c, 0, 69, 74
2, 140520, Note_on_c, 0, 74, 0
2, 140520, Note_on_c, 0, 72, 60
2, 140717, Note_on_c, 0, 69, 0
2, 140717, Note_on_c, 0, 66, 0
2, 140760, Note_on_c, 0, 72, 0
2, 140760, Note_on_c, 0, 69, 68
2, 140760, Note_on_c, 0, 67, 111
2, 140918, Note_on_c, 0, 69, 0
2, 140940, Note_on_c, 0, 70, 75
2, 141120, Note_on_c, 0, 73, 68
2, 141224, Note_on_c, 0, 73, 0
2, 141240, Note_on_c, 0, 74, 75
2, 141344, Note_on_c, 0, 74, 0
2, 141359, Note_on_c, 0, 79, 110
2, 141660, Note_on_c, 0, 79, 0
2, 141660, Note_on_c, 0, 78, 78
2, 141818, Note_on_c, 0, 78, 0
2, 141840, Note_on_c, 0, 75, 74
2, 141998, Note_on_c, 0, 75, 0
2, 142020, Note_on_c, 0, 74, 76
2, 142178, Note_on_c, 0, 74, 0
2, 142200, Note_on_c, 0, 70, 0
2, 142200, Note_on_c, 0, 67, 0
2, 142200, Note_on_c, 0, 74, 65
2, 142200, Note_on_c, 0, 66, 77
2, 142200, Note_on_c, 0, 69, 77
2, 142320, Note_on_c, 0, 74, 0
2, 142320, Note_on_c, 0, 72, 64
2, 142517, Note_on_c, 0, 69, 0
2, 142517, Note_on_c, 0, 66, 0
2, 142560, Note_on_c, 0, 72, 0
2, 142560, Note_on_c, 0, 74, 73
2, 142560, Note_on_c, 0, 67, 84
2, 142560, Note_on_c, 0, 70, 84
2, 142799, Note_on_c, 0, 74, 0
2, 142799, Note_on_c, 0, 72, 66
2, 142877, Note_on_c, 0, 70, 0
2, 142877, Note_on_c, 0, 67, 0
2, 142920, Note_on_c, 0, 72, 0
2, 142920, Note_on_c, 0, 74, 75
2, 142920, Note_on_c, 0, 66, 78
2, 142920, Note_on_c, 0, 69, 78
2, 143040, Note_on_c, 0, 74, 0
2, 143040, Note_on_c, 0, 72, 62
2, 143237, Note_on_c, 0, 69, 0
2, 143237, Note_on_c, 0, 66, 0
2, 143280, Note_on_c, 0, 72, 0
2, 143280, Note_on_c, 0, 69, 68
2, 143280, Note_on_c, 0, 67, 111
2, 143438, Note_on_c, 0, 69, 0
2, 143460, Note_on_c, 0, 70, 75
2, 143640, Note_on_c, 0, 73, 68
2, 143744, Note_on_c, 0, 73, 0
2, 143760, Note_on_c, 0, 74, 75
2, 143864, Note_on_c, 0, 74, 0
2, 143879, Note_on_c, 0, 79, 106
2, 144180, Note_on_c, 0, 79, 0
2, 144180, Note_on_c, 0, 78, 78
2, 144338, Note_on_c, 0, 78, 0
2, 144360, Note_on_c, 0, 75, 74
2, 144518, Note_on_c, 0, 75, 0
2, 144540, Note_on_c, 0, 74, 76
2, 144698, Note_on_c, 0, 74, 0
2, 144720, Note_on_c, 0, 70, 0
2, 144720, Note_on_c, 0, 67, 0
2, 144720, Note_on_c, 0, 69, 45
2, 144840, Note_on_c, 0, 69, 0
2, 144840, Note_on_c, 0, 70, 52
2, 144959, Note_on_c, 0, 70, 0
2, 144959, Note_on_c, 0, 73, 65
2, 145080, Note_on_c, 0, 73, 0
2, 145080, Note_on_c, 0, 74, 58
2, 145200, Note_on_c, 0, 74, 0
2, 145200, Note_on_c, 0, 79, 52
2, 145319, Note_on_c, 0, 79, 0
2, 145319, Note_on_c, 0, 78, 48
2, 145440, Note_on_c, 0, 78, 0
2, 145440, Note_on_c, 0, 75, 39
2, 145560, Note_on_c, 0, 75, 0
2, 145560, Note_on_c, 0, 74, 40
2, 145679, Note_on_c, 0, 74, 0
2, 145679, Note_on_c, 0, 69, 45
2, 145785, Note_on_c, 0, 69, 0
2, 145800, Note_on_c, 0, 70, 48
2, 145904, Note_on_c, 0, 70, 0
2, 145920, Note_on_c, 0, 73, 50
2, 146024, Note_on_c, 0, 73, 0
2, 146039, Note_on_c, 0, 74, 52
2, 146145, Note_on_c, 0, 74, 0
2, 146160, Note_on_c, 0, 76, 54
2, 146264, Note_on_c, 0, 76, 0
2, 146280, Note_on_c, 0, 77, 56
2, 146384, Note_on_c, 0, 77, 0
2, 146399, Note_on_c, 0, 82, 108
2, 146520, Note_on_c, 0, 65, 37
2, 146520, Note_on_c, 0, 70, 37
2, 146520, Note_on_c, 0, 74, 37
2, 146700, Note_on_c, 0, 82, 0
2, 146700, Note_on_c, 0, 81, 82
2, 146858, Note_on_c, 0, 81, 0
2, 146880, Note_on_c, 0, 78, 76
2, 147038, Note_on_c, 0, 78, 0
2, 147060, Note_on_c, 0, 77, 77
2, 147218, Note_on_c, 0, 77, 0
2, 147240, Note_on_c, 0, 74, 0
2, 147240, Note_on_c, 0, 70, 0
2, 147240, Note_on_c, 0, 65, 0
2, 147960, Note_on_c, 0, 86, 108
2, 147960, Note_on_c, 0, 74, 112
2, 148140, Note_on_c, 0, 74, 0
2, 148140, Note_on_c, 0, 86, 0
2, 148140, Note_on_c, 0, 87, 98
2, 148140, Note_on_c, 0, 75, 98
2, 148320, Note_on_c, 0, 75, 0
2, 148320, Note_on_c, 0, 87, 0
2, 148320, Note_on_c, 0, 88, 102
2, 148320, Note_on_c, 0, 64, 102
2, 148320, Note_on_c, 0, 76, 102
2, 148500, Note_on_c, 0, 76, 0
2, 148500, Note_on_c, 0, 64, 0
2, 148500, Note_on_c, 0, 88, 0
2, 148500, Note_on_c, 0, 89, 106
2, 148500, Note_on_c, 0, 65, 106
2, 148500, Note_on_c, 0, 77, 106
2, 148680, Note_on_c, 0, 77, 0
2, 148680, Note_on_c, 0, 65, 0
2, 148680, Note_on_c, 0, 89, 0
2, 148680, Note_on_c, 0, 94, 112
2, 148680, Note_on_c, 0, 82, 77
2, 148680, Note_on_c, 0, 86, 77
2, 148680, Note_on_c, 0, 82, 112
2, 148680, Note_on_c, 0, 70, 111
2, 148680, Note_on_c, 0, 74, 111
2, 149154, Note_on_c, 0, 82, 0
2, 149154, Note_on_c, 0, 94, 0
2, 149220, Note_on_c, 0, 93, 112
2, 149220, Note_on_c, 0, 81, 112
2, 149378, Note_on_c, 0, 81, 0
2, 149378, Note_on_c, 0, 93, 0
2, 149400, Note_on_c, 0, 90, 99
2, 149400, Note_on_c, 0, 78, 102
2, 149580, Note_on_c, 0, 78, 0
2, 149580, Note_on_c, 0, 90, 0
2, 149580, Note_on_c, 0, 89, 102
2, 149580, Note_on_c, 0, 77, 97
2, 149760, Note_on_c, 0, 77, 0
2, 149760, Note_on_c, 0, 74, 0
2, 149760, Note_on_c, 0, 86, 0
2, 149760, Note_on_c, 0, 82, 0
2, 149760, Note_on_c, 0, 89, 0
2, 149760, Note_on_c, 0, 70, 0
2, 149760, Note_on_c, 0, 87, 103
2, 149760, Note_on_c, 0, 77, 77
2, 149760, Note_on_c, 0, 82, 77
2, 149760, Note_on_c, 0, 75, 106
2, 149760, Note_on_c, 0, 70, 99
2, 149940, Note_on_c, 0, 75, 0
2, 149940, Note_on_c, 0, 87, 0
2, 149940, Note_on_c, 0, 86, 108
2, 149940, Note_on_c, 0, 74, 105
2, 150120, Note_on_c, 0, 74, 0
2, 150120, Note_on_c, 0, 77, 0
2, 150120, Note_on_c, 0, 70, 0
2, 150120, Note_on_c, 0, 82, 0
2, 150120, Note_on_c, 0, 86, 0
2, 150120, Note_on_c, 0, 86, 112
2, 150120, Note_on_c, 0, 75, 75
2, 150120, Note_on_c, 0, 78, 75
2, 150120, Note_on_c, 0, 74, 112
2, 150300, Note_on_c, 0, 74, 0
2, 150300, Note_on_c, 0, 86, 0
2, 150300, Note_on_c, 0, 83, 102
2, 150300, Note_on_c, 0, 71, 103
2, 150660, Note_on_c, 0, 71, 0
2, 150660, Note_on_c, 0, 83, 0
2, 150660, Note_on_c, 0, 82, 112
2, 150660, Note_on_c, 0, 70, 112
2, 150818, Note_on_c, 0, 70, 0
2, 150818, Note_on_c, 0, 82, 0
2, 150840, Note_on_c, 0, 78, 0
2, 150840, Note_on_c, 0, 75, 0
2, 150840, Note_on_c, 0, 82, 111
2, 150840, Note_on_c, 0, 72, 73
2, 150840, Note_on_c, 0, 75, 73
2, 150840, Note_on_c, 0, 70, 111
2, 151020, Note_on_c, 0, 70, 0
2, 151020, Note_on_c, 0, 82, 0
2, 151020, Note_on_c, 0, 81, 107
2, 151020, Note_on_c, 0, 69, 107
2, 151380, Note_on_c, 0, 69, 0
2, 151380, Note_on_c, 0, 81, 0
2, 151380, Note_on_c, 0, 78, 102
2, 151380, Note_on_c, 0, 66, 98
2, 151538, Note_on_c, 0, 66, 0
2, 151538, Note_on_c, 0, 78, 0
2, 151560, Note_on_c, 0, 75, 0
2, 151560, Note_on_c, 0, 72, 0
2, 151560, Note_on_c, 0, 82, 90
2, 151560, Note_on_c, 0, 74, 67
2, 151560, Note_on_c, 0, 70, 97
2, 152100, Note_on_c, 0, 70, 0
2, 152100, Note_on_c, 0, 82, 0
2, 152100, Note_on_c, 0, 81, 83
2, 152100, Note_on_c, 0, 69, 75
2, 152280, Note_on_c, 0, 69, 0
2, 152280, Note_on_c, 0, 81, 0
2, 152280, Note_on_c, 0, 78, 71
2, 152280, Note_on_c, 0, 66, 75
2, 152460, Note_on_c, 0, 66, 0
2, 152460, Note_on_c, 0, 78, 0
2, 152460, Note_on_c, 0, 77, 75
2, 152460, Note_on_c, 0, 65, 80
2, 152640, Note_on_c, 0, 65, 0
2, 152640, Note_on_c, 0, 77, 0
2, 152640, Note_on_c, 0, 74, 0
2, 152640, Note_on_c, 0, 75, 79
2, 152640, Note_on_c, 0, 66, 56
2, 152640, Note_on_c, 0, 63, 76
2, 152820, Note_on_c, 0, 63, 0
2, 152820, Note_on_c, 0, 75, 0
2, 152820, Note_on_c, 0, 74, 75
2, 152820, Note_on_c, 0, 62, 72
2, 153000, Note_on_c, 0, 62, 0
2, 153000, Note_on_c, 0, 74, 0
2, 153000, Note_on_c, 0, 66, 0
2, 153000, Note_on_c, 0, 74, 81
2, 153000, Note_on_c, 0, 63, 73
2, 153000, Note_on_c, 0, 67, 73
2, 153000, Note_on_c, 0, 62, 79
2, 153180, Note_on_c, 0, 62, 0
2, 153180, Note_on_c, 0, 74, 0
2, 153180, Note_on_c, 0, 71, 73
2, 153180, Note_on_c, 0, 59, 78
2, 153360, Note_on_c, 0, 59, 0
2, 153360, Note_on_c, 0, 71, 0
2, 153360, Note_on_c, 0, 70, 76
2, 153360, Note_on_c, 0, 58, 83
2, 153540, Note_on_c, 0, 58, 0
2, 153540, Note_on_c, 0, 70, 0
2, 153540, Note_on_c, 0, 71, 102
2, 153540, Note_on_c, 0, 59, 101
2, 153698, Note_on_c, 0, 59, 0
2, 153698, Note_on_c, 0, 71, 0
2, 153720, Note_on_c, 0, 67, 0
2, 153720, Note_on_c, 0, 63, 0
2, 153720, Note_on_c, 0, 70, 82
2, 153720, Note_on_c, 0, 63, 68
2, 153720, Note_on_c, 0, 66, 68
2, 153720, Note_on_c, 0, 58, 82
2, 153900, Note_on_c, 0, 58, 0
2, 153900, Note_on_c, 0, 70, 0
2, 153900, Note_on_c, 0, 69, 78
2, 153900, Note_on_c, 0, 57, 78
2, 154080, Note_on_c, 0, 57, 0
2, 154080, Note_on_c, 0, 63, 0
2, 154080, Note_on_c, 0, 66, 0
2, 154080, Note_on_c, 0, 69, 0
2, 154080, Note_on_c, 0, 66, 74
2, 154080, Note_on_c, 0, 57, 74
2, 154080, Note_on_c, 0, 63, 74
2, 154260, Note_on_c, 0, 66, 0
2, 154260, Note_on_c, 0, 65, 75
2, 154397, Note_on_c, 0, 63, 0
2, 154397, Note_on_c, 0, 57, 0
2, 154418, Note_on_c, 0, 65, 0
2, 154440, Note_on_c, 0, 64, 68
2, 154440, Note_on_c, 0, 58, 68
2, 154440, Note_on_c, 0, 62, 68
2, 154620, Note_on_c, 0, 62, 0
2, 154620, Note_on_c, 0, 58, 0
2, 154620, Note_on_c, 0, 64, 0
2, 154620, Note_on_c, 0, 65, 75
2, 154800, Note_on_c, 0, 65, 0
2, 154800, Note_on_c, 0, 70, 90
2, 154800, Note_on_c, 0, 58, 85
2, 154800, Note_on_c, 0, 62, 85
2, 155340, Note_on_c, 0, 62, 0
2, 155340, Note_on_c, 0, 58, 0
2, 155340, Note_on_c, 0, 70, 0
2, 155340, Note_on_c, 0, 69, 81
2, 155520, Note_on_c, 0, 69, 0
2, 155520, Note_on_c, 0, 66, 75
2, 155700, Note_on_c, 0, 66, 0
2, 155700, Note_on_c, 0, 65, 65
2, 155880, Note_on_c, 0, 65, 0
2, 156240, Note_on_c, 0, 63, 43
2, 156420, Note_on_c, 0, 63, 0
2, 156420, Note_on_c, 0, 62, 43
2, 156600, Note_on_c, 0, 62, 0
2, 156600, Note_on_c, 0, 63, 59
2, 156600, Note_on_c, 0, 59, 56
2, 156758, Note_on_c, 0, 59, 0
2, 156780, Note_on_c, 0, 58, 55
2, 156938, Note_on_c, 0, 58, 0
2, 156960, Note_on_c, 0, 57, 56
2, 157064, Note_on_c, 0, 57, 0
2, 157080, Note_on_c, 0, 58, 59
2, 157184, Note_on_c, 0, 58, 0
2, 157199, Note_on_c, 0, 59, 59
2, 157305, Note_on_c, 0, 59, 0
2, 157320, Note_on_c, 0, 63, 0
2, 157320, Note_on_c, 0, 62, 65
2, 157320, Note_on_c, 0, 58, 58
2, 157637, Note_on_c, 0, 58, 0
2, 157860, Note_on_c, 0, 62, 0
2, 157860, Note_on_c, 0, 57, 33
2, 157919, Note_on_c, 0, 57, 0
2, 157919, Note_on_c, 0, 58, 34
2, 157980, Note_on_c, 0, 58, 0
2, 157980, Note_on_c, 0, 59, 37
2, 158040, Note_on_c, 0, 59, 0
2, 158040, Note_on_c, 0, 58, 39
2, 158400, Note_on_c, 0, 58, 0
2, 158580, Note_on_c, 0, 57, 30
2, 158639, Note_on_c, 0, 57, 0
2, 158639, Note_on_c, 0, 58, 34
2, 158700, Note_on_c, 0, 58, 0
2, 158700, Note_on_c, 0, 59, 36
2, 158760, Note_on_c, 0, 59, 0
2, 158760, Note_on_c, 0, 58, 34
2, 159660, Note_on_c, 0, 58, 0
2, 160020, Note_on_c, 0, 91, 97
2, 160020, Note_on_c, 0, 79, 97
2, 160065, Note_on_c, 0, 79, 0
2, 160065, Note_on_c, 0, 91, 0
2, 160065, Note_on_c, 0, 92, 111
2, 160065, Note_on_c, 0, 80, 111
2, 160110, Note_on_c, 0, 80, 0
2, 160110, Note_on_c, 0, 92, 0
2, 160110, Note_on_c, 0, 93, 111
2, 160110, Note_on_c, 0, 81, 111
2, 160155, Note_on_c, 0, 81, 0
2, 160155, Note_on_c, 0, 93, 0
2, 160155, Note_on_c, 0, 94, 111
2, 160155, Note_on_c, 0, 82, 111
2, 160200, Note_on_c, 0, 82, 0
2, 160200, Note_on_c, 0, 94, 0
2, 160200, Note_on_c, 0, 91, 112
2, 160200, Note_on_c, 0, 93, 112
2, 160200, Note_on_c, 0, 73, 112
2, 160200, Note_on_c, 0, 79, 112
2, 160200, Note_on_c, 0, 81, 112
2, 160380, Note_on_c, 0, 81, 0
2, 160380, Note_on_c, 0, 73, 0
2, 160380, Note_on_c, 0, 91, 0
2, 160380, Note_on_c, 0, 93, 0
2, 160380, Note_on_c, 0, 79, 0
2, 167040, Note_on_c, 0, 74, 93
2, 167400, Note_on_c, 0, 74, 0
2, 167400, Note_on_c, 0, 72, 90
2, 167940, Note_on_c, 0, 72, 0
2, 167940, Note_on_c, 0, 74, 105
2, 168120, Note_on_c, 0, 74, 0
2, 168120, Note_on_c, 0, 70, 84
2, 168480, Note_on_c, 0, 70, 0
2, 168480, Note_on_c, 0, 69, 90
2, 168840, Note_on_c, 0, 69, 0
2, 168840, Note_on_c, 0, 70, 104
2, 169020, Note_on_c, 0, 70, 0
2, 169020, Note_on_c, 0, 67, 88
2, 169110, Note_on_c, 0, 67, 0
2, 169110, Note_on_c, 0, 69, 100
2, 169200, Note_on_c, 0, 69, 0
2, 169200, Note_on_c, 0, 70, 103
2, 169200, Note_on_c, 0, 67, 88
2, 169380, Note_on_c, 0, 70, 0
2, 169380, Note_on_c, 0, 69, 94
2, 169560, Note_on_c, 0, 69, 0
2, 169560, Note_on_c, 0, 67, 93
2, 169740, Note_on_c, 0, 67, 0
2, 169740, Note_on_c, 0, 67, 0
2, 169740, Note_on_c, 0, 74, 111
2, 169920, Note_on_c, 0, 74, 0
2, 169920, Note_on_c, 0, 72, 98
2, 170100, Note_on_c, 0, 72, 0
2, 170100, Note_on_c, 0, 74, 105
2, 170280, Note_on_c, 0, 74, 0
2, 170280, Note_on_c, 0, 70, 83
2, 170460, Note_on_c, 0, 70, 0
2, 170460, Note_on_c, 0, 72, 100
2, 170640, Note_on_c, 0, 72, 0
2, 170640, Note_on_c, 0, 69, 89
2, 170820, Note_on_c, 0, 69, 0
2, 170820, Note_on_c, 0, 70, 101
2, 171000, Note_on_c, 0, 70, 0
2, 171000, Note_on_c, 0, 67, 89
2, 171089, Note_on_c, 0, 67, 0
2, 171180, Note_on_c, 0, 69, 104
2, 171269, Note_on_c, 0, 69, 0
2, 171360, Note_on_c, 0, 70, 112
2, 171677, Note_on_c, 0, 70, 0
2, 171720, Note_on_c, 0, 67, 88
2, 171810, Note_on_c, 0, 67, 0
2, 171810, Note_on_c, 0, 69, 104
2, 171900, Note_on_c, 0, 69, 0
2, 171900, Note_on_c, 0, 67, 88
2, 171990, Note_on_c, 0, 67, 0
2, 171990, Note_on_c, 0, 65, 91
2, 172080, Note_on_c, 0, 65, 0
2, 172080, Note_on_c, 0, 63, 91
2, 172170, Note_on_c, 0, 63, 0
2, 172170, Note_on_c, 0, 65, 103
2, 172260, Note_on_c, 0, 65, 0
2, 172260, Note_on_c, 0, 63, 86
2, 172350, Note_on_c, 0, 63, 0
2, 172350, Note_on_c, 0, 62, 94
2, 172440, Note_on_c, 0, 62, 0
2, 172440, Note_on_c, 0, 61, 85
2, 172529, Note_on_c, 0, 61, 0
2, 172620, Note_on_c, 0, 62, 101
2, 172709, Note_on_c, 0, 62, 0
2, 172800, Note_on_c, 0, 64, 112
2, 173117, Note_on_c, 0, 64, 0
2, 173160, Note_on_c, 0, 65, 104
2, 173249, Note_on_c, 0, 65, 0
2, 173340, Note_on_c, 0, 67, 110
2, 173429, Note_on_c, 0, 67, 0
2, 173520, Note_on_c, 0, 69, 112
2, 173837, Note_on_c, 0, 69, 0
2, 173880, Note_on_c, 0, 66, 90
2, 173969, Note_on_c, 0, 66, 0
2, 174060, Note_on_c, 0, 67, 104
2, 174149, Note_on_c, 0, 67, 0
2, 174240, Note_on_c, 0, 69, 112
2, 174780, Note_on_c, 0, 69, 0
2, 174780, Note_on_c, 0, 70, 82
2, 174870, Note_on_c, 0, 70, 0
2, 174870, Note_on_c, 0, 72, 103
2, 174960, Note_on_c, 0, 72, 0
2, 174960, Note_on_c, 0, 74, 103
2, 175140, Note_on_c, 0, 74, 0
2, 175140, Note_on_c, 0, 76, 106
2, 175229, Note_on_c, 0, 76, 0
2, 175320, Note_on_c, 0, 77, 101
2, 175320, Note_on_c, 0, 69, 84
2, 175409, Note_on_c, 0, 69, 0
2, 175409, Note_on_c, 0, 77, 0
2, 175500, Note_on_c, 0, 79, 101
2, 175500, Note_on_c, 0, 70, 100
2, 175589, Note_on_c, 0, 70, 0
2, 175589, Note_on_c, 0, 79, 0
2, 175680, Note_on_c, 0, 81, 112
2, 175680, Note_on_c, 0, 74, 48
2, 175680, Note_on_c, 0, 69, 95
2, 175769, Note_on_c, 0, 69, 0
2, 175860, Note_on_c, 0, 72, 102
2, 175949, Note_on_c, 0, 72, 0
2, 176040, Note_on_c, 0, 70, 105
2, 176220, Note_on_c, 0, 81, 0
2, 176220, Note_on_c, 0, 82, 103
2, 176400, Note_on_c, 0, 82, 0
2, 176400, Note_on_c, 0, 74, 0
2, 176400, Note_on_c, 0, 79, 86
2, 176400, Note_on_c, 0, 76, 65
2, 176489, Note_on_c, 0, 76, 0
2, 176490, Note_on_c, 0, 70, 0
2, 176490, Note_on_c, 0, 72, 108
2, 176580, Note_on_c, 0, 72, 0
2, 176580, Note_on_c, 0, 74, 57
2, 176580, Note_on_c, 0, 70, 89
2, 176669, Note_on_c, 0, 74, 0
2, 176670, Note_on_c, 0, 70, 0
2, 176670, Note_on_c, 0, 72, 100
2, 176760, Note_on_c, 0, 72, 0
2, 176760, Note_on_c, 0, 72, 68
2, 176760, Note_on_c, 0, 69, 90
2, 176940, Note_on_c, 0, 79, 0
2, 176940, Note_on_c, 0, 81, 103
2, 177077, Note_on_c, 0, 72, 0
2, 177120, Note_on_c, 0, 81, 0
2, 177120, Note_on_c, 0, 77, 87
2, 177120, Note_on_c, 0, 74, 62
2, 177209, Note_on_c, 0, 74, 0
2, 177210, Note_on_c, 0, 69, 0
2, 177210, Note_on_c, 0, 70, 104
2, 177300, Note_on_c, 0, 70, 0
2, 177300, Note_on_c, 0, 72, 56
2, 177300, Note_on_c, 0, 69, 90
2, 177389, Note_on_c, 0, 72, 0
2, 177390, Note_on_c, 0, 69, 0
2, 177390, Note_on_c, 0, 70, 101
2, 177480, Note_on_c, 0, 70, 0
2, 177480, Note_on_c, 0, 70, 67
2, 177480, Note_on_c, 0, 67, 86
2, 177660, Note_on_c, 0, 77, 0
2, 177660, Note_on_c, 0, 79, 105
2, 177797, Note_on_c, 0, 70, 0
2, 177840, Note_on_c, 0, 79, 0
2, 177840, Note_on_c, 0, 76, 88
2, 177840, Note_on_c, 0, 72, 64
2, 177929, Note_on_c, 0, 72, 0
2, 177930, Note_on_c, 0, 67, 0
2, 177930, Note_on_c, 0, 69, 102
2, 178020, Note_on_c, 0, 69, 0
2, 178020, Note_on_c, 0, 70, 53
2, 178020, Note_on_c, 0, 67, 92
2, 178109, Note_on_c, 0, 70, 0
2, 178110, Note_on_c, 0, 67, 0
2, 178110, Note_on_c, 0, 69, 101
2, 178200, Note_on_c, 0, 69, 0
2, 178200, Note_on_c, 0, 69, 69
2, 178200, Note_on_c, 0, 65, 86
2, 178380, Note_on_c, 0, 65, 0
2, 178560, Note_on_c, 0, 76, 0
2, 178560, Note_on_c, 0, 74, 91
2, 178650, Note_on_c, 0, 74, 0
2, 178650, Note_on_c, 0, 76, 101
2, 178740, Note_on_c, 0, 76, 0
2, 178740, Note_on_c, 0, 77, 104
2, 178830, Note_on_c, 0, 77, 0
2, 178830, Note_on_c, 0, 79, 104
2, 178833, Note_on_c, 0, 69, 0
2, 178920, Note_on_c, 0, 79, 0
2, 178920, Note_on_c, 0, 81, 108
2, 179100, Note_on_c, 0, 81, 0
2, 179100, Note_on_c, 0, 81, 112
2, 179100, Note_on_c, 0, 85, 112
2, 179100, Note_on_c, 0, 73, 85
2, 179190, Note_on_c, 0, 73, 0
2, 179190, Note_on_c, 0, 72, 92
2, 179280, Note_on_c, 0, 72, 0
2, 179280, Note_on_c, 0, 85, 0
2, 179280, Note_on_c, 0, 81, 0
2, 179280, Note_on_c, 0, 80, 87
2, 179280, Note_on_c, 0, 73, 103
2, 179370, Note_on_c, 0, 73, 0
2, 179370, Note_on_c, 0, 72, 90
2, 179460, Note_on_c, 0, 72, 0
2, 179460, Note_on_c, 0, 80, 0
2, 179460, Note_on_c, 0, 81, 105
2, 179460, Note_on_c, 0, 73, 103
2, 179550, Note_on_c, 0, 73, 0
2, 179550, Note_on_c, 0, 72, 96
2, 179640, Note_on_c, 0, 72, 0
2, 179640, Note_on_c, 0, 81, 0
2, 179640, Note_on_c, 0, 80, 89
2, 179640, Note_on_c, 0, 73, 104
2, 179820, Note_on_c, 0, 73, 0
2, 179820, Note_on_c, 0, 80, 0
2, 179820, Note_on_c, 0, 80, 112
2, 179820, Note_on_c, 0, 84, 112
2, 179820, Note_on_c, 0, 72, 92
2, 179910, Note_on_c, 0, 72, 0
2, 179910, Note_on_c, 0, 71, 89
2, 180000, Note_on_c, 0, 71, 0
2, 180000, Note_on_c, 0, 84, 0
2, 180000, Note_on_c, 0, 80, 0
2, 180000, Note_on_c, 0, 79, 87
2, 180000, Note_on_c, 0, 72, 99
2, 180090, Note_on_c, 0, 72, 0
2, 180090, Note_on_c, 0, 71, 96
2, 180180, Note_on_c, 0, 71, 0
2, 180180, Note_on_c, 0, 79, 0
2, 180180, Note_on_c, 0, 80, 108
2, 180180, Note_on_c, 0, 72, 100
2, 180270, Note_on_c, 0, 72, 0
2, 180270, Note_on_c, 0, 71, 94
2, 180360, Note_on_c, 0, 71, 0
2, 180360, Note_on_c, 0, 80, 0
2, 180360, Note_on_c, 0, 79, 89
2, 180360, Note_on_c, 0, 72, 103
2, 180540, Note_on_c, 0, 72, 0
2, 180540, Note_on_c, 0, 79, 0
2, 180540, Note_on_c, 0, 79, 112
2, 180540, Note_on_c, 0, 83, 112
2, 180540, Note_on_c, 0, 71, 93
2, 180630, Note_on_c, 0, 71, 0
2, 180630, Note_on_c, 0, 70, 92
2, 180720, Note_on_c, 0, 70, 0
2, 180720, Note_on_c, 0, 83, 0
2, 180720, Note_on_c, 0, 79, 0
2, 180720, Note_on_c, 0, 78, 85
2, 180720, Note_on_c, 0, 71, 101
2, 180810, Note_on_c, 0, 71, 0
2, 180810, Note_on_c, 0, 70, 93
2, 180900, Note_on_c, 0, 70, 0
2, 180900, Note_on_c, 0, 78, 0
2, 180900, Note_on_c, 0, 79, 99
2, 180900, Note_on_c, 0, 71, 105
2, 180990, Note_on_c, 0, 71, 0
2, 180990, Note_on_c, 0, 70, 94
2, 181080, Note_on_c, 0, 70, 0
2, 181080, Note_on_c, 0, 79, 0
2, 181080, Note_on_c, 0, 79, 99
2, 181080, Note_on_c, 0, 71, 100
2, 181260, Note_on_c, 0, 71, 0
2, 181260, Note_on_c, 0, 79, 0
2, 181260, Note_on_c, 0, 79, 112
2, 181260, Note_on_c, 0, 82, 112
2, 181260, Note_on_c, 0, 64, 94
2, 181260, Note_on_c, 0, 70, 94
2, 181350, Note_on_c, 0, 70, 0
2, 181350, Note_on_c, 0, 64, 0
2, 181350, Note_on_c, 0, 66, 87
2, 181440, Note_on_c, 0, 66, 0
2, 181440, Note_on_c, 0, 82, 0
2, 181440, Note_on_c, 0, 79, 0
2, 181440, Note_on_c, 0, 78, 90
2, 181440, Note_on_c, 0, 67, 99
2, 181530, Note_on_c, 0, 67, 0
2, 181530, Note_on_c, 0, 69, 108
2, 181620, Note_on_c, 0, 69, 0
2, 181620, Note_on_c, 0, 78, 0
2, 181620, Note_on_c, 0, 79, 102
2, 181620, Note_on_c, 0, 70, 104
2, 181710, Note_on_c, 0, 70, 0
2, 181710, Note_on_c, 0, 72, 103
2, 181800, Note_on_c, 0, 72, 0
2, 181800, Note_on_c, 0, 79, 0
2, 181800, Note_on_c, 0, 79, 112
2, 181800, Note_on_c, 0, 74, 71
2, 181800, Note_on_c, 0, 70, 89
2, 181890, Note_on_c, 0, 74, 0
2, 181890, Note_on_c, 0, 75, 64
2, 181980, Note_on_c, 0, 75, 0
2, 181980, Note_on_c, 0, 70, 0
2, 181980, Note_on_c, 0, 74, 55
2, 181980, Note_on_c, 0, 72, 106
2, 182070, Note_on_c, 0, 74, 0
2, 182070, Note_on_c, 0, 75, 63
2, 182160, Note_on_c, 0, 75, 0
2, 182160, Note_on_c, 0, 72, 0
2, 182160, Note_on_c, 0, 79, 0
2, 182160, Note_on_c, 0, 81, 108
2, 182160, Note_on_c, 0, 72, 55
2, 182160, Note_on_c, 0, 69, 87
2, 182249, Note_on_c, 0, 81, 0
2, 182340, Note_on_c, 0, 79, 90
2, 182429, Note_on_c, 0, 79, 0
2, 182520, Note_on_c, 0, 77, 112
2, 182610, Note_on_c, 0, 72, 0
2, 182610, Note_on_c, 0, 74, 69
2, 182700, Note_on_c, 0, 74, 0
2, 182700, Note_on_c, 0, 69, 0
2, 182700, Note_on_c, 0, 72, 56
2, 182700, Note_on_c, 0, 70, 101
2, 182790, Note_on_c, 0, 72, 0
2, 182790, Note_on_c, 0, 74, 64
2, 182880, Note_on_c, 0, 74, 0
2, 182880, Note_on_c, 0, 70, 0
2, 182880, Note_on_c, 0, 77, 0
2, 182880, Note_on_c, 0, 79, 102
2, 182880, Note_on_c, 0, 70, 53
2, 182880, Note_on_c, 0, 67, 87
2, 182969, Note_on_c, 0, 79, 0
2, 183060, Note_on_c, 0, 77, 90
2, 183149, Note_on_c, 0, 77, 0
2, 183240, Note_on_c, 0, 75, 98
2, 183330, Note_on_c, 0, 70, 0
2, 183330, Note_on_c, 0, 72, 70
2, 183420, Note_on_c, 0, 72, 0
2, 183420, Note_on_c, 0, 67, 0
2, 183420, Note_on_c, 0, 70, 52
2, 183420, Note_on_c, 0, 69, 106
2, 183510, Note_on_c, 0, 70, 0
2, 183510, Note_on_c, 0, 72, 61
2, 183557, Note_on_c, 0, 75, 0
2, 183600, Note_on_c, 0, 72, 0
2, 183600, Note_on_c, 0, 69, 0
2, 183600, Note_on_c, 0, 77, 106
2, 183600, Note_on_c, 0, 69, 53
2, 183600, Note_on_c, 0, 65, 86
2, 183689, Note_on_c, 0, 77, 0
2, 183780, Note_on_c, 0, 75, 100
2, 183869, Note_on_c, 0, 75, 0
2, 183960, Note_on_c, 0, 74, 109
2, 184050, Note_on_c, 0, 69, 0
2, 184050, Note_on_c, 0, 70, 65
2, 184140, Note_on_c, 0, 70, 0
2, 184140, Note_on_c, 0, 69, 61
2, 184230, Note_on_c, 0, 69, 0
2, 184230, Note_on_c, 0, 70, 65
2, 184277, Note_on_c, 0, 74, 0
2, 184320, Note_on_c, 0, 70, 0
2, 184320, Note_on_c, 0, 65, 0
2, 184320, Note_on_c, 0, 67, 73
2, 184320, Note_on_c, 0, 67, 57
2, 184320, Note_on_c, 0, 67, 99
2, 184410, Note_on_c, 0, 67, 0
2, 184410, Note_on_c, 0, 69, 102
2, 184500, Note_on_c, 0, 69, 0
2, 184500, Note_on_c, 0, 70, 105
2, 184590, Note_on_c, 0, 70, 0
2, 184590, Note_on_c, 0, 72, 103
2, 184680, Note_on_c, 0, 72, 0
2, 184680, Note_on_c, 0, 67, 0
2, 184680, Note_on_c, 0, 74, 107
2, 184680, Note_on_c, 0, 62, 82
2, 184860, Note_on_c, 0, 62, 0
2, 184860, Note_on_c, 0, 74, 0
2, 184860, Note_on_c, 0, 67, 0
2, 184860, Note_on_c, 0, 74, 98
2, 184860, Note_on_c, 0, 66, 61
2, 184860, Note_on_c, 0, 62, 98
2, 184950, Note_on_c, 0, 66, 0
2, 184950, Note_on_c, 0, 65, 60
2, 185018, Note_on_c, 0, 62, 0
2, 185018, Note_on_c, 0, 74, 0
2, 185040, Note_on_c, 0, 65, 0
2, 185040, Note_on_c, 0, 73, 96
2, 185040, Note_on_c, 0, 66, 59
2, 185040, Note_on_c, 0, 61, 96
2, 185130, Note_on_c, 0, 66, 0
2, 185130, Note_on_c, 0, 65, 58
2, 185220, Note_on_c, 0, 65, 0
2, 185220, Note_on_c, 0, 61, 0
2, 185220, Note_on_c, 0, 73, 0
2, 185220, Note_on_c, 0, 74, 94
2, 185220, Note_on_c, 0, 66, 57
2, 185220, Note_on_c, 0, 62, 94
2, 185310, Note_on_c, 0, 66, 0
2, 185310, Note_on_c, 0, 65, 56
2, 185400, Note_on_c, 0, 65, 0
2, 185400, Note_on_c, 0, 62, 0
2, 185400, Note_on_c, 0, 74, 0
2, 185400, Note_on_c, 0, 73, 92
2, 185400, Note_on_c, 0, 66, 55
2, 185400, Note_on_c, 0, 61, 92
2, 185580, Note_on_c, 0, 61, 0
2, 185580, Note_on_c, 0, 66, 0
2, 185580, Note_on_c, 0, 73, 0
2, 185580, Note_on_c, 0, 73, 90
2, 185580, Note_on_c, 0, 65, 53
2, 185580, Note_on_c, 0, 61, 90
2, 185670, Note_on_c, 0, 65, 0
2, 185670, Note_on_c, 0, 64, 53
2, 185738, Note_on_c, 0, 61, 0
2, 185738, Note_on_c, 0, 73, 0
2, 185760, Note_on_c, 0, 64, 0
2, 185760, Note_on_c, 0, 72, 88
2, 185760, Note_on_c, 0, 65, 52
2, 185760, Note_on_c, 0, 60, 88
2, 185850, Note_on_c, 0, 65, 0
2, 185850, Note_on_c, 0, 64, 51
2, 185940, Note_on_c, 0, 64, 0
2, 185940, Note_on_c, 0, 60, 0
2, 185940, Note_on_c, 0, 72, 0
2, 185940, Note_on_c, 0, 73, 87
2, 185940, Note_on_c, 0, 65, 50
2, 185940, Note_on_c, 0, 61, 87
2, 186030, Note_on_c, 0, 65, 0
2, 186030, Note_on_c, 0, 64, 49
2, 186120, Note_on_c, 0, 64, 0
2, 186120, Note_on_c, 0, 61, 0
2, 186120, Note_on_c, 0, 73, 0
2, 186120, Note_on_c, 0, 72, 81
2, 186120, Note_on_c, 0, 65, 49
2, 186120, Note_on_c, 0, 60, 85
2, 186300, Note_on_c, 0, 60, 0
2, 186300, Note_on_c, 0, 65, 0
2, 186300, Note_on_c, 0, 72, 0
2, 186300, Note_on_c, 0, 72, 97
2, 186300, Note_on_c, 0, 64, 47
2, 186300, Note_on_c, 0, 60, 96
2, 186390, Note_on_c, 0, 64, 0
2, 186390, Note_on_c, 0, 63, 43
2, 186458, Note_on_c, 0, 60, 0
2, 186458, Note_on_c, 0, 72, 0
2, 186480, Note_on_c, 0, 63, 0
2, 186480, Note_on_c, 0, 71, 83
2, 186480, Note_on_c, 0, 64, 50
2, 186480, Note_on_c, 0, 59, 85
2, 186570, Note_on_c, 0, 64, 0
2, 186570, Note_on_c, 0, 63, 44
2, 186660, Note_on_c, 0, 63, 0
2, 186660, Note_on_c, 0, 59, 0
2, 186660, Note_on_c, 0, 71, 0
2, 186660, Note_on_c, 0, 72, 88
2, 186660, Note_on_c, 0, 64, 51
2, 186660, Note_on_c, 0, 60, 88
2, 186750, Note_on_c, 0, 64, 0
2, 186750, Note_on_c, 0, 63, 50
2, 186840, Note_on_c, 0, 63, 0
2, 186840, Note_on_c, 0, 60, 0
2, 186840, Note_on_c, 0, 72, 0
2, 186840, Note_on_c, 0, 71, 80
2, 186840, Note_on_c, 0, 64, 48
2, 186840, Note_on_c, 0, 59, 81
2, 186930, Note_on_c, 0, 71, 0
2, 186930, Note_on_c, 0, 72, 86
2, 187020, Note_on_c, 0, 72, 0
2, 187020, Note_on_c, 0, 59, 0
2, 187020, Note_on_c, 0, 64, 0
2, 187020, Note_on_c, 0, 74, 91
2, 187020, Note_on_c, 0, 67, 110
2, 187110, Note_on_c, 0, 74, 0
2, 187110, Note_on_c, 0, 75, 93
2, 187178, Note_on_c, 0, 67, 0
2, 187200, Note_on_c, 0, 75, 0
2, 187200, Note_on_c, 0, 77, 93
2, 187200, Note_on_c, 0, 59, 96
2, 187200, Note_on_c, 0, 65, 96
2, 187290, Note_on_c, 0, 77, 0
2, 187290, Note_on_c, 0, 79, 92
2, 187358, Note_on_c, 0, 65, 0
2, 187358, Note_on_c, 0, 59, 0
2, 187380, Note_on_c, 0, 79, 0
2, 187380, Note_on_c, 0, 81, 91
2, 187380, Note_on_c, 0, 67, 92
2, 187470, Note_on_c, 0, 81, 0
2, 187470, Note_on_c, 0, 83, 91
2, 187560, Note_on_c, 0, 83, 0
2, 187560, Note_on_c, 0, 67, 0
2, 187560, Note_on_c, 0, 84, 76
2, 187560, Note_on_c, 0, 60, 41
2, 187560, Note_on_c, 0, 63, 41
2, 187649, Note_on_c, 0, 84, 0
2, 187740, Note_on_c, 0, 63, 0
2, 187740, Note_on_c, 0, 60, 0
2, 187740, Note_on_c, 0, 86, 71
2, 187829, Note_on_c, 0, 86, 0
2, 187920, Note_on_c, 0, 87, 81
2, 188237, Note_on_c, 0, 87, 0
2, 188280, Note_on_c, 0, 84, 62
2, 188280, Note_on_c, 0, 63, 43
2, 188280, Note_on_c, 0, 67, 43
2, 188280, Note_on_c, 0, 69, 43
2, 188369, Note_on_c, 0, 69, 0
2, 188369, Note_on_c, 0, 67, 0
2, 188369, Note_on_c, 0, 63, 0
2, 188370, Note_on_c, 0, 84, 0
2, 188370, Note_on_c, 0, 86, 78
2, 188460, Note_on_c, 0, 86, 0
2, 188460, Note_on_c, 0, 84, 64
2, 188460, Note_on_c, 0, 63, 46
2, 188460, Note_on_c, 0, 67, 46
2, 188460, Note_on_c, 0, 70, 46
2, 188549, Note_on_c, 0, 70, 0
2, 188549, Note_on_c, 0, 67, 0
2, 188549, Note_on_c, 0, 63, 0
2, 188550, Note_on_c, 0, 84, 0
2, 188550, Note_on_c, 0, 82, 60
2, 188640, Note_on_c, 0, 82, 0
2, 188640, Note_on_c, 0, 81, 66
2, 188640, Note_on_c, 0, 63, 65
2, 188640, Note_on_c, 0, 67, 65
2, 188640, Note_on_c, 0, 72, 65
2, 188730, Note_on_c, 0, 81, 0
2, 188730, Note_on_c, 0, 82, 74
2, 188820, Note_on_c, 0, 82, 0
2, 188820, Note_on_c, 0, 81, 70
2, 188910, Note_on_c, 0, 81, 0
2, 188910, Note_on_c, 0, 79, 62
2, 188957, Note_on_c, 0, 63, 0
2, 188957, Note_on_c, 0, 72, 0
2, 188957, Note_on_c, 0, 67, 0
2, 189000, Note_on_c, 0, 79, 0
2, 189000, Note_on_c, 0, 78, 81
2, 189000, Note_on_c, 0, 86, 81
2, 189000, Note_on_c, 0, 69, 46
2, 189000, Note_on_c, 0, 74, 46
2, 189089, Note_on_c, 0, 86, 0
2, 189089, Note_on_c, 0, 78, 0
2, 189090, Note_on_c, 0, 69, 0
2, 189090, Note_on_c, 0, 74, 0
2, 189090, Note_on_c, 0, 75, 46
2, 189180, Note_on_c, 0, 75, 0
2, 189180, Note_on_c, 0, 79, 77
2, 189180, Note_on_c, 0, 88, 77
2, 189180, Note_on_c, 0, 74, 45
2, 189269, Note_on_c, 0, 88, 0
2, 189269, Note_on_c, 0, 79, 0
2, 189270, Note_on_c, 0, 74, 0
2, 189270, Note_on_c, 0, 72, 38
2, 189360, Note_on_c, 0, 72, 0
2, 189360, Note_on_c, 0, 81, 86
2, 189360, Note_on_c, 0, 90, 86
2, 189360, Note_on_c, 0, 70, 43
2, 189450, Note_on_c, 0, 70, 0
2, 189450, Note_on_c, 0, 72, 48
2, 189540, Note_on_c, 0, 72, 0
2, 189540, Note_on_c, 0, 70, 42
2, 189630, Note_on_c, 0, 70, 0
2, 189630, Note_on_c, 0, 69, 40
2, 189677, Note_on_c, 0, 90, 0
2, 189677, Note_on_c, 0, 81, 0
2, 189720, Note_on_c, 0, 69, 0
2, 189720, Note_on_c, 0, 79, 112
2, 189720, Note_on_c, 0, 86, 112
2, 189720, Note_on_c, 0, 91, 112
2, 189720, Note_on_c, 0, 67, 112
2, 189720, Note_on_c, 0, 74, 112
2, 189900, Note_on_c, 0, 74, 0
2, 189900, Note_on_c, 0, 91, 0
2, 189900, Note_on_c, 0, 79, 0
2, 189900, Note_on_c, 0, 86, 0
2, 189900, Note_on_c, 0, 67, 0
2, 189900, Note_on_c, 0, 81, 112
2, 189900, Note_on_c, 0, 86, 112
2, 189900, Note_on_c, 0, 93, 112
2, 189900, Note_on_c, 0, 69, 112
2, 189900, Note_on_c, 0, 74, 112
2, 190080, Note_on_c, 0, 74, 0
2, 190080, Note_on_c, 0, 93, 0
2, 190080, Note_on_c, 0, 81, 0
2, 190080, Note_on_c, 0, 86, 0
2, 190080, Note_on_c, 0, 69, 0
2, 190080, Note_on_c, 0, 82, 112
2, 190080, Note_on_c, 0, 86, 112
2, 190080, Note_on_c, 0, 94, 112
2, 190080, Note_on_c, 0, 70, 112
2, 190080, Note_on_c, 0, 74, 112
2, 190260, Note_on_c, 0, 74, 0
2, 190260, Note_on_c, 0, 94, 0
2, 190260, Note_on_c, 0, 82, 0
2, 190260, Note_on_c, 0, 86, 0
2, 190260, Note_on_c, 0, 70, 0
2, 190440, Note_on_c, 0, 72, 111
2, 190440, Note_on_c, 0, 60, 112
2, 190440, Note_on_c, 0, 67, 112
2, 190620, Note_on_c, 0, 67, 0
2, 190620, Note_on_c, 0, 60, 0
2, 190620, Note_on_c, 0, 62, 112
2, 190620, Note_on_c, 0, 67, 112
2, 190800, Note_on_c, 0, 67, 0
2, 190800, Note_on_c, 0, 62, 0
2, 190800, Note_on_c, 0, 63, 112
2, 190800, Note_on_c, 0, 67, 112
2, 190980, Note_on_c, 0, 72, 0
2, 190980, Note_on_c, 0, 74, 112
2, 191160, Note_on_c, 0, 74, 0
2, 191160, Note_on_c, 0, 63, 0
2, 191160, Note_on_c, 0, 70, 112
2, 191160, Note_on_c, 0, 62, 93
2, 191340, Note_on_c, 0, 62, 0
2, 191340, Note_on_c, 0, 70, 0
2, 191340, Note_on_c, 0, 67, 0
2, 191340, Note_on_c, 0, 84, 61
2, 191340, Note_on_c, 0, 69, 52
2, 191430, Note_on_c, 0, 69, 0
2, 191430, Note_on_c, 0, 84, 0
2, 191430, Note_on_c, 0, 79, 61
2, 191430, Note_on_c, 0, 74, 68
2, 191520, Note_on_c, 0, 74, 0
2, 191520, Note_on_c, 0, 79, 0
2, 191520, Note_on_c, 0, 86, 68
2, 191520, Note_on_c, 0, 70, 68
2, 191700, Note_on_c, 0, 70, 0
2, 191700, Note_on_c, 0, 86, 0
2, 191700, Note_on_c, 0, 79, 75
2, 191700, Note_on_c, 0, 88, 75
2, 191700, Note_on_c, 0, 69, 75
2, 191700, Note_on_c, 0, 73, 75
2, 191789, Note_on_c, 0, 73, 0
2, 191789, Note_on_c, 0, 79, 0
2, 191789, Note_on_c, 0, 88, 0
2, 191789, Note_on_c, 0, 69, 0
2, 191880, Note_on_c, 0, 77, 104
2, 191880, Note_on_c, 0, 86, 104
2, 191880, Note_on_c, 0, 89, 104
2, 191880, Note_on_c, 0, 65, 101
2, 191880, Note_on_c, 0, 74, 101
2, 191969, Note_on_c, 0, 74, 0
2, 191969, Note_on_c, 0, 65, 0
2, 192060, Note_on_c, 0, 77, 0
2, 192060, Note_on_c, 0, 86, 0
2, 192060, Note_on_c, 0, 89, 0
2, 192060, Note_on_c, 0, 88, 95
2, 192240, Note_on_c, 0, 88, 0
2, 192240, Note_on_c, 0, 89, 105
2, 192600, Note_on_c, 0, 89, 0
2, 192600, Note_on_c, 0, 86, 45
2, 192600, Note_on_c, 0, 65, 45
2, 192600, Note_on_c, 0, 69, 45
2, 192600, Note_on_c, 0, 71, 45
2, 192689, Note_on_c, 0, 71, 0
2, 192689, Note_on_c, 0, 69, 0
2, 192689, Note_on_c, 0, 65, 0
2, 192690, Note_on_c, 0, 86, 0
2, 192690, Note_on_c, 0, 88, 47
2, 192780, Note_on_c, 0, 88, 0
2, 192780, Note_on_c, 0, 86, 49
2, 192780, Note_on_c, 0, 65, 47
2, 192780, Note_on_c, 0, 69, 47
2, 192780, Note_on_c, 0, 72, 47
2, 192869, Note_on_c, 0, 72, 0
2, 192869, Note_on_c, 0, 69, 0
2, 192869, Note_on_c, 0, 65, 0
2, 192870, Note_on_c, 0, 86, 0
2, 192870, Note_on_c, 0, 84, 50
2, 192960, Note_on_c, 0, 84, 0
2, 192960, Note_on_c, 0, 83, 52
2, 192960, Note_on_c, 0, 65, 48
2, 192960, Note_on_c, 0, 69, 48
2, 192960, Note_on_c, 0, 74, 48
2, 193049, Note_on_c, 0, 74, 0
2, 193049, Note_on_c, 0, 69, 0
2, 193049, Note_on_c, 0, 65, 0
2, 193050, Note_on_c, 0, 83, 0
2, 193050, Note_on_c, 0, 84, 53
2, 193140, Note_on_c, 0, 84, 0
2, 193140, Note_on_c, 0, 83, 55
2, 193140, Note_on_c, 0, 65, 50
2, 193140, Note_on_c, 0, 69, 50
2, 193140, Note_on_c, 0, 75, 50
2, 193229, Note_on_c, 0, 75, 0
2, 193229, Note_on_c, 0, 69, 0
2, 193229, Note_on_c, 0, 65, 0
2, 193230, Note_on_c, 0, 83, 0
2, 193230, Note_on_c, 0, 81, 57
2, 193320, Note_on_c, 0, 81, 0
2, 193320, Note_on_c, 0, 80, 62
2, 193320, Note_on_c, 0, 68, 51
2, 193320, Note_on_c, 0, 74, 51
2, 193320, Note_on_c, 0, 76, 51
2, 193409, Note_on_c, 0, 76, 0
2, 193409, Note_on_c, 0, 74, 0
2, 193409, Note_on_c, 0, 68, 0
2, 193500, Note_on_c, 0, 80, 0
2, 193500, Note_on_c, 0, 81, 68
2, 193589, Note_on_c, 0, 81, 0
2, 193680, Note_on_c, 0, 82, 71
2, 193770, Note_on_c, 0, 76, 72
2, 193860, Note_on_c, 0, 76, 0
2, 193860, Note_on_c, 0, 74, 73
2, 193950, Note_on_c, 0, 74, 0
2, 193950, Note_on_c, 0, 76, 74
2, 193997, Note_on_c, 0, 82, 0
2, 194040, Note_on_c, 0, 76, 0
2, 194040, Note_on_c, 0, 84, 75
2, 194040, Note_on_c, 0, 69, 75
2, 194040, Note_on_c, 0, 72, 75
2, 194129, Note_on_c, 0, 84, 0
2, 194220, Note_on_c, 0, 72, 0
2, 194220, Note_on_c, 0, 69, 0
2, 194220, Note_on_c, 0, 86, 78
2, 194309, Note_on_c, 0, 86, 0
2, 194400, Note_on_c, 0, 88, 80
2, 194490, Note_on_c, 0, 84, 75
2, 194580, Note_on_c, 0, 84, 0
2, 194580, Note_on_c, 0, 83, 74
2, 194670, Note_on_c, 0, 83, 0
2, 194670, Note_on_c, 0, 84, 85
2, 194717, Note_on_c, 0, 88, 0
2, 194760, Note_on_c, 0, 84, 0
2, 194760, Note_on_c, 0, 89, 105
2, 194760, Note_on_c, 0, 77, 77
2, 194849, Note_on_c, 0, 89, 0
2, 194940, Note_on_c, 0, 77, 0
2, 194940, Note_on_c, 0, 91, 109
2, 195029, Note_on_c, 0, 91, 0
2, 195120, Note_on_c, 0, 92, 112
2, 195437, Note_on_c, 0, 92, 0
2, 195480, Note_on_c, 0, 89, 60
2, 195480, Note_on_c, 0, 68, 60
2, 195480, Note_on_c, 0, 72, 60
2, 195480, Note_on_c, 0, 74, 60
2, 195569, Note_on_c, 0, 74, 0
2, 195569, Note_on_c, 0, 72, 0
2, 195569, Note_on_c, 0, 68, 0
2, 195570, Note_on_c, 0, 89, 0
2, 195570, Note_on_c, 0, 91, 75
2, 195660, Note_on_c, 0, 91, 0
2, 195660, Note_on_c, 0, 89, 58
2, 195660, Note_on_c, 0, 68, 72
2, 195660, Note_on_c, 0, 72, 72
2, 195660, Note_on_c, 0, 75, 72
2, 195749, Note_on_c, 0, 75, 0
2, 195749, Note_on_c, 0, 72, 0
2, 195749, Note_on_c, 0, 68, 0
2, 195750, Note_on_c, 0, 89, 0
2, 195750, Note_on_c, 0, 87, 62
2, 195840, Note_on_c, 0, 87, 0
2, 195840, Note_on_c, 0, 86, 65
2, 195840, Note_on_c, 0, 68, 74
2, 195840, Note_on_c, 0, 72, 74
2, 195840, Note_on_c, 0, 77, 74
2, 195929, Note_on_c, 0, 77, 0
2, 195929, Note_on_c, 0, 72, 0
2, 195929, Note_on_c, 0, 68, 0
2, 195930, Note_on_c, 0, 86, 0
2, 195930, Note_on_c, 0, 87, 68
2, 196020, Note_on_c, 0, 87, 0
2, 196020, Note_on_c, 0, 86, 61
2, 196020, Note_on_c, 0, 68, 74
2, 196020, Note_on_c, 0, 72, 74
2, 196020, Note_on_c, 0, 78, 74
2, 196109, Note_on_c, 0, 78, 0
2, 196109, Note_on_c, 0, 72, 0
2, 196109, Note_on_c, 0, 68, 0
2, 196110, Note_on_c, 0, 86, 0
2, 196110, Note_on_c, 0, 84, 66
2, 196200, Note_on_c, 0, 84, 0
2, 196200, Note_on_c, 0, 83, 61
2, 196200, Note_on_c, 0, 71, 73
2, 196200, Note_on_c, 0, 77, 73
2, 196200, Note_on_c, 0, 79, 73
2, 196289, Note_on_c, 0, 79, 0
2, 196289, Note_on_c, 0, 77, 0
2, 196289, Note_on_c, 0, 71, 0
2, 196380, Note_on_c, 0, 83, 0
2, 196380, Note_on_c, 0, 84, 76
2, 196469, Note_on_c, 0, 84, 0
2, 196560, Note_on_c, 0, 86, 87
2, 196650, Note_on_c, 0, 79, 59
2, 196740, Note_on_c, 0, 79, 0
2, 196740, Note_on_c, 0, 77, 56
2, 196830, Note_on_c, 0, 77, 0
2, 196830, Note_on_c, 0, 79, 76
2, 196877, Note_on_c, 0, 86, 0
2, 196920, Note_on_c, 0, 79, 0
2, 196920, Note_on_c, 0, 88, 75
2, 196920, Note_on_c, 0, 72, 63
2, 196920, Note_on_c, 0, 76, 63
2, 197009, Note_on_c, 0, 88, 0
2, 197100, Note_on_c, 0, 76, 0
2, 197100, Note_on_c, 0, 72, 0
2, 197100, Note_on_c, 0, 89, 72
2, 197189, Note_on_c, 0, 89, 0
2, 197280, Note_on_c, 0, 91, 88
2, 197370, Note_on_c, 0, 76, 59
2, 197460, Note_on_c, 0, 76, 0
2, 197460, Note_on_c, 0, 74, 61
2, 197550, Note_on_c, 0, 74, 0
2, 197550, Note_on_c, 0, 76, 69
2, 197597, Note_on_c, 0, 91, 0
2, 197640, Note_on_c, 0, 76, 0
2, 197640, Note_on_c, 0, 81, 107
2, 197640, Note_on_c, 0, 84, 107
2, 197640, Note_on_c, 0, 88, 107
2, 197640, Note_on_c, 0, 93, 107
2, 197640, Note_on_c, 0, 69, 112
2, 197640, Note_on_c, 0, 72, 112
2, 197820, Note_on_c, 0, 72, 0
2, 197820, Note_on_c, 0, 84, 0
2, 197820, Note_on_c, 0, 88, 0
2, 197820, Note_on_c, 0, 81, 0
2, 197820, Note_on_c, 0, 69, 0
2, 197820, Note_on_c, 0, 93, 0
2, 197820, Note_on_c, 0, 95, 111
2, 198000, Note_on_c, 0, 95, 0
2, 198000, Note_on_c, 0, 96, 112
2, 198360, Note_on_c, 0, 96, 0
2, 199080, Note_on_c, 0, 52, 89
2, 200160, Note_on_c, 0, 52, 0
2, 200160, Note_on_c, 0, 48, 61
2, 200430, Note_on_c, 0, 48, 0
2, 200430, Note_on_c, 0, 50, 58
2, 200430, Note_on_c, 0, 47, 65
2, 200520, Note_on_c, 0, 47, 0
2, 200520, Note_on_c, 0, 50, 0
2, 200520, Note_on_c, 0, 52, 69
2, 200520, Note_on_c, 0, 52, 75
2, 200520, Note_on_c, 0, 48, 70
2, 200609, Note_on_c, 0, 48, 0
2, 200609, Note_on_c, 0, 52, 0
2, 200700, Note_on_c, 0, 54, 70
2, 200700, Note_on_c, 0, 50, 73
2, 200789, Note_on_c, 0, 50, 0
2, 200789, Note_on_c, 0, 54, 0
2, 200880, Note_on_c, 0, 55, 72
2, 200880, Note_on_c, 0, 52, 68
2, 200969, Note_on_c, 0, 55, 0
2, 200969, Note_on_c, 0, 52, 0
2, 201060, Note_on_c, 0, 57, 72
2, 201060, Note_on_c, 0, 54, 72
2, 201149, Note_on_c, 0, 54, 0
2, 201149, Note_on_c, 0, 57, 0
2, 201240, Note_on_c, 0, 52, 0
2, 201240, Note_on_c, 0, 59, 93
2, 201240, Note_on_c, 0, 55, 73
2, 201329, Note_on_c, 0, 55, 0
2, 201329, Note_on_c, 0, 59, 0
2, 201420, Note_on_c, 0, 57, 84
2, 201420, Note_on_c, 0, 54, 67
2, 201509, Note_on_c, 0, 54, 0
2, 201509, Note_on_c, 0, 57, 0
2, 201600, Note_on_c, 0, 55, 85
2, 201600, Note_on_c, 0, 55, 88
2, 201600, Note_on_c, 0, 52, 67
2, 201689, Note_on_c, 0, 52, 0
2, 201689, Note_on_c, 0, 55, 0
2, 201780, Note_on_c, 0, 54, 85
2, 201780, Note_on_c, 0, 50, 70
2, 201869, Note_on_c, 0, 50, 0
2, 201869, Note_on_c, 0, 54, 0
2, 201960, Note_on_c, 0, 55, 0
2, 201960, Note_on_c, 0, 54, 91
2, 201960, Note_on_c, 0, 52, 86
2, 201960, Note_on_c, 0, 48, 65
2, 202049, Note_on_c, 0, 48, 0
2, 202049, Note_on_c, 0, 52, 0
2, 202140, Note_on_c, 0, 50, 79
2, 202140, Note_on_c, 0, 47, 67
2, 202229, Note_on_c, 0, 47, 0
2, 202229, Note_on_c, 0, 50, 0
2, 202320, Note_on_c, 0, 54, 0
2, 202320, Note_on_c, 0, 55, 93
2, 202320, Note_on_c, 0, 48, 82
2, 202320, Note_on_c, 0, 45, 65
2, 202409, Note_on_c, 0, 45, 0
2, 202500, Note_on_c, 0, 48, 0
2, 202680, Note_on_c, 0, 55, 0
2, 202680, Note_on_c, 0, 52, 88
2, 203040, Note_on_c, 0, 52, 100
2, 203220, Note_on_c, 0, 52, 0
2, 203220, Note_on_c, 0, 52, 110
2, 203310, Note_on_c, 0, 52, 0
2, 203310, Note_on_c, 0, 54, 111
2, 203400, Note_on_c, 0, 54, 0
2, 203400, Note_on_c, 0, 55, 59
2, 203400, Note_on_c, 0, 52, 107
2, 203489, Note_on_c, 0, 55, 0
2, 203580, Note_on_c, 0, 52, 0
2, 203580, Note_on_c, 0, 57, 73
2, 203580, Note_on_c, 0, 54, 111
2, 203669, Note_on_c, 0, 54, 0
2, 203669, Note_on_c, 0, 57, 0
2, 203760, Note_on_c, 0, 59, 72
2, 203760, Note_on_c, 0, 55, 111
2, 203849, Note_on_c, 0, 55, 0
2, 203849, Note_on_c, 0, 59, 0
2, 203940, Note_on_c, 0, 60, 76
2, 203940, Note_on_c, 0, 57, 111
2, 204029, Note_on_c, 0, 57, 0
2, 204029, Note_on_c, 0, 60, 0
2, 204120, Note_on_c, 0, 52, 0
2, 204120, Note_on_c, 0, 64, 107
2, 204120, Note_on_c, 0, 62, 76
2, 204120, Note_on_c, 0, 59, 71
2, 204120, Note_on_c, 0, 52, 112
2, 204209, Note_on_c, 0, 59, 0
2, 204209, Note_on_c, 0, 62, 0
2, 204300, Note_on_c, 0, 60, 82
2, 204300, Note_on_c, 0, 57, 65
2, 204389, Note_on_c, 0, 57, 0
2, 204389, Note_on_c, 0, 60, 0
2, 204480, Note_on_c, 0, 59, 84
2, 204480, Note_on_c, 0, 55, 60
2, 204569, Note_on_c, 0, 55, 0
2, 204569, Note_on_c, 0, 59, 0
2, 204660, Note_on_c, 0, 57, 85
2, 204660, Note_on_c, 0, 54, 63
2, 204749, Note_on_c, 0, 54, 0
2, 204749, Note_on_c, 0, 57, 0
2, 204840, Note_on_c, 0, 55, 81
2, 204840, Note_on_c, 0, 52, 64
2, 204929, Note_on_c, 0, 55, 0
2, 204929, Note_on_c, 0, 52, 0
2, 205020, Note_on_c, 0, 54, 71
2, 205109, Note_on_c, 0, 54, 0
2, 205200, Note_on_c, 0, 52, 76
2, 205517, Note_on_c, 0, 52, 0
2, 205560, Note_on_c, 0, 52, 0
2, 205560, Note_on_c, 0, 64, 0
2, 205560, Note_on_c, 0, 64, 99
2, 205560, Note_on_c, 0, 52, 112
2, 205920, Note_on_c, 0, 60, 71
2, 205920, Note_on_c, 0, 57, 60
2, 206190, Note_on_c, 0, 57, 0
2, 206190, Note_on_c, 0, 60, 0
2, 206190, Note_on_c, 0, 62, 88
2, 206190, Note_on_c, 0, 59, 73
2, 206280, Note_on_c, 0, 59, 0
2, 206280, Note_on_c, 0, 64, 0
2, 206280, Note_on_c, 0, 52, 0
2, 206280, Note_on_c, 0, 62, 0
2, 206280, Note_on_c, 0, 64, 69
2, 206280, Note_on_c, 0, 64, 97
2, 206280, Note_on_c, 0, 60, 69
2, 206280, Note_on_c, 0, 52, 112
2, 206369, Note_on_c, 0, 60, 0
2, 206369, Note_on_c, 0, 64, 0
2, 206460, Note_on_c, 0, 66, 75
2, 206460, Note_on_c, 0, 62, 72
2, 206549, Note_on_c, 0, 62, 0
2, 206549, Note_on_c, 0, 66, 0
2, 206640, Note_on_c, 0, 67, 68
2, 206640, Note_on_c, 0, 64, 73
2, 206729, Note_on_c, 0, 67, 0
2, 206729, Note_on_c, 0, 64, 0
2, 206820, Note_on_c, 0, 69, 75
2, 206820, Note_on_c, 0, 66, 72
2, 206909, Note_on_c, 0, 66, 0
2, 206909, Note_on_c, 0, 69, 0
2, 207000, Note_on_c, 0, 52, 0
2, 207000, Note_on_c, 0, 64, 0
2, 207000, Note_on_c, 0, 71, 103
2, 207000, Note_on_c, 0, 67, 75
2, 207089, Note_on_c, 0, 67, 0
2, 207089, Note_on_c, 0, 71, 0
2, 207180, Note_on_c, 0, 69, 84
2, 207180, Note_on_c, 0, 66, 66
2, 207269, Note_on_c, 0, 66, 0
2, 207269, Note_on_c, 0, 69, 0
2, 207360, Note_on_c, 0, 67, 83
2, 207360, Note_on_c, 0, 67, 77
2, 207360, Note_on_c, 0, 64, 59
2, 207360, Note_on_c, 0, 55, 112
2, 207449, Note_on_c, 0, 64, 0
2, 207449, Note_on_c, 0, 67, 0
2, 207540, Note_on_c, 0, 66, 80
2, 207540, Note_on_c, 0, 62, 60
2, 207629, Note_on_c, 0, 62, 0
2, 207629, Note_on_c, 0, 66, 0
2, 207720, Note_on_c, 0, 67, 0
2, 207720, Note_on_c, 0, 55, 0
2, 207720, Note_on_c, 0, 66, 90
2, 207720, Note_on_c, 0, 64, 81
2, 207720, Note_on_c, 0, 60, 64
2, 207720, Note_on_c, 0, 54, 112
2, 207809, Note_on_c, 0, 60, 0
2, 207809, Note_on_c, 0, 64, 0
2, 207900, Note_on_c, 0, 62, 75
2, 207900, Note_on_c, 0, 59, 68
2, 207989, Note_on_c, 0, 59, 0
2, 207989, Note_on_c, 0, 62, 0
2, 208080, Note_on_c, 0, 66, 0
2, 208080, Note_on_c, 0, 54, 0
2, 208080, Note_on_c, 0, 67, 97
2, 208080, Note_on_c, 0, 60, 78
2, 208080, Note_on_c, 0, 57, 79
2, 208080, Note_on_c, 0, 55, 112
2, 208397, Note_on_c, 0, 57, 0
2, 208440, Note_on_c, 0, 67, 0
2, 208440, Note_on_c, 0, 60, 0
2, 208440, Note_on_c, 0, 55, 0
2, 208440, Note_on_c, 0, 64, 112
2, 208440, Note_on_c, 0, 52, 63
2, 208800, Note_on_c, 0, 52, 0
2, 208800, Note_on_c, 0, 57, 74
2, 209070, Note_on_c, 0, 57, 0
2, 209070, Note_on_c, 0, 59, 75
2, 209160, Note_on_c, 0, 59, 0
2, 209160, Note_on_c, 0, 60, 70
2, 209249, Note_on_c, 0, 60, 0
2, 209340, Note_on_c, 0, 62, 59
2, 209340, Note_on_c, 0, 59, 70
2, 209429, Note_on_c, 0, 59, 0
2, 209429, Note_on_c, 0, 62, 0
2, 209520, Note_on_c, 0, 64, 0
2, 209520, Note_on_c, 0, 64, 72
2, 209520, Note_on_c, 0, 64, 93
2, 209520, Note_on_c, 0, 60, 71
2, 209609, Note_on_c, 0, 60, 0
2, 209609, Note_on_c, 0, 64, 0
2, 209700, Note_on_c, 0, 66, 75
2, 209700, Note_on_c, 0, 59, 70
2, 209789, Note_on_c, 0, 59, 0
2, 209789, Note_on_c, 0, 66, 0
2, 209880, Note_on_c, 0, 67, 73
2, 209880, Note_on_c, 0, 58, 65
2, 209969, Note_on_c, 0, 58, 0
2, 209969, Note_on_c, 0, 67, 0
2, 210060, Note_on_c, 0, 64, 0
2, 210240, Note_on_c, 0, 82, 106
2, 210240, Note_on_c, 0, 91, 106
2, 210240, Note_on_c, 0, 76, 112
2, 210240, Note_on_c, 0, 79, 112
2, 210510, Note_on_c, 0, 79, 0
2, 210510, Note_on_c, 0, 82, 0
2, 210510, Note_on_c, 0, 91, 0
2, 210510, Note_on_c, 0, 76, 0
2, 210510, Note_on_c, 0, 90, 58
2, 210510, Note_on_c, 0, 78, 65
2, 210600, Note_on_c, 0, 78, 0
2, 210600, Note_on_c, 0, 90, 0
2, 210600, Note_on_c, 0, 82, 64
2, 210600, Note_on_c, 0, 88, 64
2, 210600, Note_on_c, 0, 76, 34
2, 210689, Note_on_c, 0, 76, 0
2, 210689, Note_on_c, 0, 88, 0
2, 210689, Note_on_c, 0, 82, 0
2, 210780, Note_on_c, 0, 82, 62
2, 210780, Note_on_c, 0, 86, 62
2, 210780, Note_on_c, 0, 74, 33
2, 210869, Note_on_c, 0, 74, 0
2, 210869, Note_on_c, 0, 86, 0
2, 210869, Note_on_c, 0, 82, 0
2, 210960, Note_on_c, 0, 77, 61
2, 210960, Note_on_c, 0, 85, 61
2, 210960, Note_on_c, 0, 73, 31
2, 211049, Note_on_c, 0, 73, 0
2, 211049, Note_on_c, 0, 85, 0
2, 211049, Note_on_c, 0, 77, 0
2, 211140, Note_on_c, 0, 76, 63
2, 211140, Note_on_c, 0, 83, 63
2, 211140, Note_on_c, 0, 71, 30
2, 211229, Note_on_c, 0, 71, 0
2, 211229, Note_on_c, 0, 83, 0
2, 211229, Note_on_c, 0, 76, 0
2, 211320, Note_on_c, 0, 76, 71
2, 211320, Note_on_c, 0, 82, 71
2, 211320, Note_on_c, 0, 70, 33
2, 211409, Note_on_c, 0, 70, 0
2, 211409, Note_on_c, 0, 82, 0
2, 211409, Note_on_c, 0, 76, 0
2, 211680, Note_on_c, 0, 82, 86
2, 211680, Note_on_c, 0, 88, 86
2, 211680, Note_on_c, 0, 76, 54
2, 211950, Note_on_c, 0, 76, 0
2, 211950, Note_on_c, 0, 88, 0
2, 211950, Note_on_c, 0, 82, 0
2, 211950, Note_on_c, 0, 86, 63
2, 211950, Note_on_c, 0, 74, 30
2, 212040, Note_on_c, 0, 74, 0
2, 212040, Note_on_c, 0, 86, 0
2, 212040, Note_on_c, 0, 76, 61
2, 212040, Note_on_c, 0, 85, 61
2, 212040, Note_on_c, 0, 73, 36
2, 212129, Note_on_c, 0, 73, 0
2, 212129, Note_on_c, 0, 85, 0
2, 212129, Note_on_c, 0, 76, 0
2, 212220, Note_on_c, 0, 76, 63
2, 212220, Note_on_c, 0, 83, 63
2, 212220, Note_on_c, 0, 71, 34
2, 212309, Note_on_c, 0, 71, 0
2, 212309, Note_on_c, 0, 83, 0
2, 212309, Note_on_c, 0, 76, 0
2, 212400, Note_on_c, 0, 82, 67
2, 212400, Note_on_c, 0, 70, 43
2, 212400, Note_on_c, 0, 73, 43
2, 212489, Note_on_c, 0, 73, 0
2, 212489, Note_on_c, 0, 70, 0
2, 212489, Note_on_c, 0, 82, 0
2, 212580, Note_on_c, 0, 81, 64
2, 212580, Note_on_c, 0, 69, 35
2, 212580, Note_on_c, 0, 73, 35
2, 212669, Note_on_c, 0, 73, 0
2, 212669, Note_on_c, 0, 69, 0
2, 212669, Note_on_c, 0, 81, 0
2, 212760, Note_on_c, 0, 79, 57
2, 212760, Note_on_c, 0, 73, 34
2, 212939, Note_on_c, 0, 73, 0
2, 212939, Note_on_c, 0, 79, 0
2, 213120, Note_on_c, 0, 76, 110
2, 213120, Note_on_c, 0, 85, 110
2, 213120, Note_on_c, 0, 73, 57
2, 213390, Note_on_c, 0, 73, 0
2, 213390, Note_on_c, 0, 85, 0
2, 213390, Note_on_c, 0, 76, 0
2, 213390, Note_on_c, 0, 83, 60
2, 213390, Note_on_c, 0, 71, 32
2, 213480, Note_on_c, 0, 71, 0
2, 213480, Note_on_c, 0, 83, 0
2, 213480, Note_on_c, 0, 73, 65
2, 213480, Note_on_c, 0, 82, 65
2, 213480, Note_on_c, 0, 70, 34
2, 213569, Note_on_c, 0, 70, 0
2, 213569, Note_on_c, 0, 82, 0
2, 213569, Note_on_c, 0, 73, 0
2, 213660, Note_on_c, 0, 73, 62
2, 213660, Note_on_c, 0, 81, 62
2, 213660, Note_on_c, 0, 69, 34
2, 213749, Note_on_c, 0, 69, 0
2, 213749, Note_on_c, 0, 81, 0
2, 213749, Note_on_c, 0, 73, 0
2, 213840, Note_on_c, 0, 73, 64
2, 213840, Note_on_c, 0, 79, 64
2, 213840, Note_on_c, 0, 67, 26
2, 213929, Note_on_c, 0, 67, 0
2, 213929, Note_on_c, 0, 79, 0
2, 213929, Note_on_c, 0, 73, 0
2, 214020, Note_on_c, 0, 73, 59
2, 214020, Note_on_c, 0, 78, 59
2, 214020, Note_on_c, 0, 66, 36
2, 214109, Note_on_c, 0, 66, 0
2, 214109, Note_on_c, 0, 78, 0
2, 214109, Note_on_c, 0, 73, 0
2, 214200, Note_on_c, 0, 73, 65
2, 214200, Note_on_c, 0, 76, 65
2, 214200, Note_on_c, 0, 64, 29
2, 214289, Note_on_c, 0, 64, 0
2, 214289, Note_on_c, 0, 76, 0
2, 214289, Note_on_c, 0, 73, 0
2, 214380, Note_on_c, 0, 73, 71
2, 214380, Note_on_c, 0, 79, 71
2, 214380, Note_on_c, 0, 67, 40
2, 214469, Note_on_c, 0, 67, 0
2, 214469, Note_on_c, 0, 79, 0
2, 214469, Note_on_c, 0, 73, 0
2, 214560, Note_on_c, 0, 73, 71
2, 214560, Note_on_c, 0, 78, 71
2, 214649, Note_on_c, 0, 78, 0
2, 214649, Note_on_c, 0, 73, 0
2, 214650, Note_on_c, 0, 69, 34
2, 214740, Note_on_c, 0, 69, 0
2, 214740, Note_on_c, 0, 76, 60
2, 214740, Note_on_c, 0, 71, 40
2, 214829, Note_on_c, 0, 76, 0
2, 214830, Note_on_c, 0, 71, 0
2, 214830, Note_on_c, 0, 73, 37
2, 214920, Note_on_c, 0, 73, 0
2, 214920, Note_on_c, 0, 74, 69
2, 214920, Note_on_c, 0, 74, 39
2, 215009, Note_on_c, 0, 74, 0
2, 215010, Note_on_c, 0, 74, 0
2, 215010, Note_on_c, 0, 76, 72
2, 215100, Note_on_c, 0, 76, 0
2, 215100, Note_on_c, 0, 78, 73
2, 215100, Note_on_c, 0, 73, 33
2, 215189, Note_on_c, 0, 73, 0
2, 215190, Note_on_c, 0, 78, 0
2, 215190, Note_on_c, 0, 76, 65
2, 215280, Note_on_c, 0, 76, 0
2, 215280, Note_on_c, 0, 78, 74
2, 215280, Note_on_c, 0, 62, 35
2, 215280, Note_on_c, 0, 71, 35
2, 215369, Note_on_c, 0, 71, 0
2, 215369, Note_on_c, 0, 62, 0
2, 215460, Note_on_c, 0, 78, 0
2, 215460, Note_on_c, 0, 64, 33
2, 215460, Note_on_c, 0, 70, 33
2, 215549, Note_on_c, 0, 70, 0
2, 215549, Note_on_c, 0, 64, 0
2, 215640, Note_on_c, 0, 62, 39
2, 215640, Note_on_c, 0, 71, 39
2, 215729, Note_on_c, 0, 71, 0
2, 215729, Note_on_c, 0, 62, 0
2, 216000, Note_on_c, 0, 84, 103
2, 216000, Note_on_c, 0, 93, 103
2, 216000, Note_on_c, 0, 78, 69
2, 216000, Note_on_c, 0, 81, 69
2, 216270, Note_on_c, 0, 81, 0
2, 216270, Note_on_c, 0, 84, 0
2, 216270, Note_on_c, 0, 93, 0
2, 216270, Note_on_c, 0, 78, 0
2, 216270, Note_on_c, 0, 92, 63
2, 216270, Note_on_c, 0, 80, 36
2, 216360, Note_on_c, 0, 80, 0
2, 216360, Note_on_c, 0, 92, 0
2, 216360, Note_on_c, 0, 84, 63
2, 216360, Note_on_c, 0, 90, 63
2, 216360, Note_on_c, 0, 78, 63
2, 216449, Note_on_c, 0, 78, 0
2, 216449, Note_on_c, 0, 90, 0
2, 216449, Note_on_c, 0, 84, 0
2, 216540, Note_on_c, 0, 84, 63
2, 216540, Note_on_c, 0, 88, 63
2, 216540, Note_on_c, 0, 76, 64
2, 216629, Note_on_c, 0, 76, 0
2, 216629, Note_on_c, 0, 88, 0
2, 216629, Note_on_c, 0, 84, 0
2, 216720, Note_on_c, 0, 78, 67
2, 216720, Note_on_c, 0, 87, 67
2, 216720, Note_on_c, 0, 75, 60
2, 216809, Note_on_c, 0, 75, 0
2, 216809, Note_on_c, 0, 87, 0
2, 216809, Note_on_c, 0, 78, 0
2, 216900, Note_on_c, 0, 78, 60
2, 216900, Note_on_c, 0, 85, 60
2, 216900, Note_on_c, 0, 73, 58
2, 216989, Note_on_c, 0, 73, 0
2, 216989, Note_on_c, 0, 85, 0
2, 216989, Note_on_c, 0, 78, 0
2, 217080, Note_on_c, 0, 78, 63
2, 217080, Note_on_c, 0, 84, 63
2, 217080, Note_on_c, 0, 72, 61
2, 217259, Note_on_c, 0, 72, 0
2, 217259, Note_on_c, 0, 84, 0
2, 217259, Note_on_c, 0, 78, 0
2, 217440, Note_on_c, 0, 84, 106
2, 217440, Note_on_c, 0, 90, 106
2, 217440, Note_on_c, 0, 78, 103
2, 217710, Note_on_c, 0, 78, 0
2, 217710, Note_on_c, 0, 90, 0
2, 217710, Note_on_c, 0, 84, 0
2, 217710, Note_on_c, 0, 88, 62
2, 217710, Note_on_c, 0, 76, 64
2, 217800, Note_on_c, 0, 76, 0
2, 217800, Note_on_c, 0, 88, 0
2, 217800, Note_on_c, 0, 78, 63
2, 217800, Note_on_c, 0, 87, 63
2, 217800, Note_on_c, 0, 75, 65
2, 217889, Note_on_c, 0, 75, 0
2, 217889, Note_on_c, 0, 87, 0
2, 217889, Note_on_c, 0, 78, 0
2, 217980, Note_on_c, 0, 78, 63
2, 217980, Note_on_c, 0, 85, 63
2, 217980, Note_on_c, 0, 73, 60
2, 218069, Note_on_c, 0, 73, 0
2, 218069, Note_on_c, 0, 85, 0
2, 218069, Note_on_c, 0, 78, 0
2, 218160, Note_on_c, 0, 84, 65
2, 218160, Note_on_c, 0, 72, 67
2, 218249, Note_on_c, 0, 72, 0
2, 218249, Note_on_c, 0, 84, 0
2, 218340, Note_on_c, 0, 83, 66
2, 218340, Note_on_c, 0, 71, 57
2, 218429, Note_on_c, 0, 71, 0
2, 218429, Note_on_c, 0, 83, 0
2, 218520, Note_on_c, 0, 81, 60
2, 218520, Note_on_c, 0, 69, 65
2, 218699, Note_on_c, 0, 69, 0
2, 218699, Note_on_c, 0, 81, 0
2, 218880, Note_on_c, 0, 77, 102
2, 218880, Note_on_c, 0, 87, 102
2, 218880, Note_on_c, 0, 75, 104
2, 219150, Note_on_c, 0, 75, 0
2, 219150, Note_on_c, 0, 87, 0
2, 219150, Note_on_c, 0, 77, 0
2, 219150, Note_on_c, 0, 85, 66
2, 219150, Note_on_c, 0, 73, 61
2, 219240, Note_on_c, 0, 73, 0
2, 219240, Note_on_c, 0, 85, 0
2, 219240, Note_on_c, 0, 75, 62
2, 219240, Note_on_c, 0, 84, 62
2, 219240, Note_on_c, 0, 72, 62
2, 219329, Note_on_c, 0, 72, 0
2, 219329, Note_on_c, 0, 84, 0
2, 219329, Note_on_c, 0, 75, 0
2, 219420, Note_on_c, 0, 75, 62
2, 219420, Note_on_c, 0, 83, 62
2, 219420, Note_on_c, 0, 71, 64
2, 219509, Note_on_c, 0, 71, 0
2, 219509, Note_on_c, 0, 83, 0
2, 219509, Note_on_c, 0, 75, 0
2, 219600, Note_on_c, 0, 75, 66
2, 219600, Note_on_c, 0, 81, 66
2, 219600, Note_on_c, 0, 69, 61
2, 219689, Note_on_c, 0, 69, 0
2, 219689, Note_on_c, 0, 81, 0
2, 219689, Note_on_c, 0, 75, 0
2, 219780, Note_on_c, 0, 75, 64
2, 219780, Note_on_c, 0, 80, 64
2, 219780, Note_on_c, 0, 68, 61
2, 219869, Note_on_c, 0, 68, 0
2, 219869, Note_on_c, 0, 80, 0
2, 219869, Note_on_c, 0, 75, 0
2, 219960, Note_on_c, 0, 75, 63
2, 219960, Note_on_c, 0, 78, 63
2, 219960, Note_on_c, 0, 66, 63
2, 220049, Note_on_c, 0, 66, 0
2, 220049, Note_on_c, 0, 78, 0
2, 220049, Note_on_c, 0, 75, 0
2, 220140, Note_on_c, 0, 75, 77
2, 220140, Note_on_c, 0, 81, 77
2, 220140, Note_on_c, 0, 69, 73
2, 220229, Note_on_c, 0, 69, 0
2, 220229, Note_on_c, 0, 81, 0
2, 220229, Note_on_c, 0, 75, 0
2, 220320, Note_on_c, 0, 75, 68
2, 220320, Note_on_c, 0, 80, 68
2, 220409, Note_on_c, 0, 80, 0
2, 220409, Note_on_c, 0, 75, 0
2, 220410, Note_on_c, 0, 71, 70
2, 220500, Note_on_c, 0, 71, 0
2, 220500, Note_on_c, 0, 78, 71
2, 220500, Note_on_c, 0, 73, 71
2, 220589, Note_on_c, 0, 78, 0
2, 220590, Note_on_c, 0, 73, 0
2, 220590, Note_on_c, 0, 75, 73
2, 220680, Note_on_c, 0, 75, 0
2, 220680, Note_on_c, 0, 76, 75
2, 220680, Note_on_c, 0, 76, 75
2, 220769, Note_on_c, 0, 76, 0
2, 220770, Note_on_c, 0, 76, 0
2, 220770, Note_on_c, 0, 78, 76
2, 220860, Note_on_c, 0, 78, 0
2, 220860, Note_on_c, 0, 80, 78
2, 220860, Note_on_c, 0, 75, 78
2, 220949, Note_on_c, 0, 75, 0
2, 220950, Note_on_c, 0, 80, 0
2, 220950, Note_on_c, 0, 78, 79
2, 221040, Note_on_c, 0, 78, 0
2, 221040, Note_on_c, 0, 80, 112
2, 221040, Note_on_c, 0, 64, 78
2, 221040, Note_on_c, 0, 73, 78
2, 221129, Note_on_c, 0, 73, 0
2, 221129, Note_on_c, 0, 64, 0
2, 221220, Note_on_c, 0, 66, 79
2, 221220, Note_on_c, 0, 72, 79
2, 221309, Note_on_c, 0, 72, 0
2, 221309, Note_on_c, 0, 66, 0
2, 221400, Note_on_c, 0, 80, 0
2, 221400, Note_on_c, 0, 78, 112
2, 221400, Note_on_c, 0, 66, 84
2, 221400, Note_on_c, 0, 68, 84
2, 221940, Note_on_c, 0, 78, 0
2, 221940, Note_on_c, 0, 80, 112
2, 222120, Note_on_c, 0, 80, 0
2, 222120, Note_on_c, 0, 76, 111
2, 222300, Note_on_c, 0, 68, 0
2, 222300, Note_on_c, 0, 66, 0
2, 222300, Note_on_c, 0, 68, 112
2, 222480, Note_on_c, 0, 68, 0
2, 222480, Note_on_c, 0, 76, 0
2, 222480, Note_on_c, 0, 75, 112
2, 222480, Note_on_c, 0, 66, 112
2, 222660, Note_on_c, 0, 66, 0
2, 222660, Note_on_c, 0, 68, 112
2, 222840, Note_on_c, 0, 68, 0
2, 222840, Note_on_c, 0, 75, 0
2, 222840, Note_on_c, 0, 76, 112
2, 222840, Note_on_c, 0, 64, 112
2, 222840, Note_on_c, 0, 68, 112
2, 223200, Note_on_c, 0, 76, 0
2, 223200, Note_on_c, 0, 73, 112
2, 223290, Note_on_c, 0, 73, 0
2, 223290, Note_on_c, 0, 72, 91
2, 223380, Note_on_c, 0, 72, 0
2, 223380, Note_on_c, 0, 73, 102
2, 223470, Note_on_c, 0, 73, 0
2, 223470, Note_on_c, 0, 75, 104
2, 223560, Note_on_c, 0, 75, 0
2, 223560, Note_on_c, 0, 68, 0
2, 223560, Note_on_c, 0, 64, 0
2, 223560, Note_on_c, 0, 76, 103
2, 223560, Note_on_c, 0, 59, 112
2, 223560, Note_on_c, 0, 64, 112
2, 223560, Note_on_c, 0, 67, 112
2, 223650, Note_on_c, 0, 76, 0
2, 223650, Note_on_c, 0, 75, 93
2, 223740, Note_on_c, 0, 75, 0
2, 223740, Note_on_c, 0, 76, 101
2, 223830, Note_on_c, 0, 76, 0
2, 223830, Note_on_c, 0, 78, 105
2, 223920, Note_on_c, 0, 78, 0
2, 223920, Note_on_c, 0, 79, 112
2, 224280, Note_on_c, 0, 79, 0
2, 224280, Note_on_c, 0, 59, 0
2, 224280, Note_on_c, 0, 64, 0
2, 224280, Note_on_c, 0, 67, 0
2, 224280, Note_on_c, 0, 78, 112
2, 224280, Note_on_c, 0, 64, 112
2, 224280, Note_on_c, 0, 66, 112
2, 224352, Note_on_c, 0, 66, 0
2, 224352, Note_on_c, 0, 64, 0
2, 224370, Note_on_c, 0, 58, 88
2, 224442, Note_on_c, 0, 58, 0
2, 224460, Note_on_c, 0, 78, 0
2, 224460, Note_on_c, 0, 78, 112
2, 224460, Note_on_c, 0, 64, 112
2, 224460, Note_on_c, 0, 66, 112
2, 224532, Note_on_c, 0, 66, 0
2, 224532, Note_on_c, 0, 64, 0
2, 224550, Note_on_c, 0, 58, 88
2, 224622, Note_on_c, 0, 58, 0
2, 224640, Note_on_c, 0, 78, 0
2, 224640, Note_on_c, 0, 76, 112
2, 224640, Note_on_c, 0, 64, 112
2, 224640, Note_on_c, 0, 66, 112
2, 224712, Note_on_c, 0, 66, 0
2, 224712, Note_on_c, 0, 64, 0
2, 224730, Note_on_c, 0, 58, 88
2, 224802, Note_on_c, 0, 58, 0
2, 224820, Note_on_c, 0, 76, 0
2, 224820, Note_on_c, 0, 78, 112
2, 224820, Note_on_c, 0, 64, 112
2, 224820, Note_on_c, 0, 66, 112
2, 224892, Note_on_c, 0, 66, 0
2, 224892, Note_on_c, 0, 64, 0
2, 224910, Note_on_c, 0, 58, 88
2, 224982, Note_on_c, 0, 58, 0
2, 225000, Note_on_c, 0, 78, 0
2, 225000, Note_on_c, 0, 74, 107
2, 225000, Note_on_c, 0, 64, 112
2, 225000, Note_on_c, 0, 66, 112
2, 225072, Note_on_c, 0, 66, 0
2, 225072, Note_on_c, 0, 64, 0
2, 225090, Note_on_c, 0, 58, 88
2, 225162, Note_on_c, 0, 58, 0
2, 225180, Note_on_c, 0, 74, 0
2, 225180, Note_on_c, 0, 76, 112
2, 225180, Note_on_c, 0, 64, 112
2, 225180, Note_on_c, 0, 66, 112
2, 225252, Note_on_c, 0, 66, 0
2, 225252, Note_on_c, 0, 64, 0
2, 225270, Note_on_c, 0, 58, 88
2, 225342, Note_on_c, 0, 58, 0
2, 225360, Note_on_c, 0, 76, 0
2, 225360, Note_on_c, 0, 73, 112
2, 225360, Note_on_c, 0, 64, 112
2, 225360, Note_on_c, 0, 66, 112
2, 225432, Note_on_c, 0, 66, 0
2, 225432, Note_on_c, 0, 64, 0
2, 225450, Note_on_c, 0, 58, 88
2, 225522, Note_on_c, 0, 58, 0
2, 225540, Note_on_c, 0, 73, 0
2, 225540, Note_on_c, 0, 74, 112
2, 225540, Note_on_c, 0, 64, 112
2, 225540, Note_on_c, 0, 66, 112
2, 225612, Note_on_c, 0, 66, 0
2, 225612, Note_on_c, 0, 64, 0
2, 225630, Note_on_c, 0, 58, 88
2, 225702, Note_on_c, 0, 58, 0
2, 225720, Note_on_c, 0, 74, 0
2, 225720, Note_on_c, 0, 71, 110
2, 225720, Note_on_c, 0, 62, 111
2, 225720, Note_on_c, 0, 66, 111
2, 225900, Note_on_c, 0, 71, 0
2, 225900, Note_on_c, 0, 73, 112
2, 226080, Note_on_c, 0, 73, 0
2, 226080, Note_on_c, 0, 74, 112
2, 226800, Note_on_c, 0, 74, 0
2, 226800, Note_on_c, 0, 78, 112
2, 227160, Note_on_c, 0, 78, 0
2, 227160, Note_on_c, 0, 66, 0
2, 227160, Note_on_c, 0, 62, 0
2, 227160, Note_on_c, 0, 76, 112
2, 227160, Note_on_c, 0, 64, 100
2, 227160, Note_on_c, 0, 66, 100
2, 227700, Note_on_c, 0, 76, 0
2, 227700, Note_on_c, 0, 78, 112
2, 227880, Note_on_c, 0, 78, 0
2, 227880, Note_on_c, 0, 74, 112
2, 228060, Note_on_c, 0, 66, 0
2, 228060, Note_on_c, 0, 64, 0
2, 228060, Note_on_c, 0, 66, 112
2, 228240, Note_on_c, 0, 66, 0
2, 228240, Note_on_c, 0, 74, 0
2, 228240, Note_on_c, 0, 73, 112
2, 228240, Note_on_c, 0, 64, 112
2, 228420, Note_on_c, 0, 64, 0
2, 228420, Note_on_c, 0, 66, 112
2, 228600, Note_on_c, 0, 66, 0
2, 228600, Note_on_c, 0, 73, 0
2, 228600, Note_on_c, 0, 74, 112
2, 228600, Note_on_c, 0, 62, 112
2, 228600, Note_on_c, 0, 66, 112
2, 228960, Note_on_c, 0, 74, 0
2, 228960, Note_on_c, 0, 71, 112
2, 229050, Note_on_c, 0, 71, 0
2, 229050, Note_on_c, 0, 70, 90
2, 229140, Note_on_c, 0, 70, 0
2, 229140, Note_on_c, 0, 71, 102
2, 229230, Note_on_c, 0, 71, 0
2, 229230, Note_on_c, 0, 73, 107
2, 229320, Note_on_c, 0, 73, 0
2, 229320, Note_on_c, 0, 66, 0
2, 229320, Note_on_c, 0, 62, 0
2, 229320, Note_on_c, 0, 74, 103
2, 229320, Note_on_c, 0, 57, 112
2, 229320, Note_on_c, 0, 62, 112
2, 229320, Note_on_c, 0, 65, 112
2, 229410, Note_on_c, 0, 74, 0
2, 229410, Note_on_c, 0, 72, 90
2, 229500, Note_on_c, 0, 72, 0
2, 229500, Note_on_c, 0, 74, 103
2, 229590, Note_on_c, 0, 74, 0
2, 229590, Note_on_c, 0, 76, 106
2, 229680, Note_on_c, 0, 76, 0
2, 229680, Note_on_c, 0, 77, 112
2, 230040, Note_on_c, 0, 77, 0
2, 230040, Note_on_c, 0, 57, 0
2, 230040, Note_on_c, 0, 62, 0
2, 230040, Note_on_c, 0, 65, 0
2, 230040, Note_on_c, 0, 76, 112
2, 230040, Note_on_c, 0, 62, 112
2, 230040, Note_on_c, 0, 64, 112
2, 230112, Note_on_c, 0, 64, 0
2, 230112, Note_on_c, 0, 62, 0
2, 230130, Note_on_c, 0, 56, 89
2, 230202, Note_on_c, 0, 56, 0
2, 230220, Note_on_c, 0, 76, 0
2, 230220, Note_on_c, 0, 76, 112
2, 230220, Note_on_c, 0, 62, 112
2, 230220, Note_on_c, 0, 64, 112
2, 230292, Note_on_c, 0, 64, 0
2, 230292, Note_on_c, 0, 62, 0
2, 230310, Note_on_c, 0, 56, 89
2, 230382, Note_on_c, 0, 56, 0
2, 230400, Note_on_c, 0, 76, 0
2, 230400, Note_on_c, 0, 74, 112
2, 230400, Note_on_c, 0, 62, 112
2, 230400, Note_on_c, 0, 64, 112
2, 230472, Note_on_c, 0, 64, 0
2, 230472, Note_on_c, 0, 62, 0
2, 230490, Note_on_c, 0, 56, 89
2, 230562, Note_on_c, 0, 56, 0
2, 230580, Note_on_c, 0, 74, 0
2, 230580, Note_on_c, 0, 76, 112
2, 230580, Note_on_c, 0, 62, 112
2, 230580, Note_on_c, 0, 64, 112
2, 230652, Note_on_c, 0, 64, 0
2, 230652, Note_on_c, 0, 62, 0
2, 230670, Note_on_c, 0, 56, 89
2, 230742, Note_on_c, 0, 56, 0
2, 230760, Note_on_c, 0, 76, 0
2, 230760, Note_on_c, 0, 72, 112
2, 230760, Note_on_c, 0, 62, 112
2, 230760, Note_on_c, 0, 64, 112
2, 230832, Note_on_c, 0, 64, 0
2, 230832, Note_on_c, 0, 62, 0
2, 230850, Note_on_c, 0, 56, 89
2, 230922, Note_on_c, 0, 56, 0
2, 230940, Note_on_c, 0, 72, 0
2, 230940, Note_on_c, 0, 74, 112
2, 230940, Note_on_c, 0, 62, 112
2, 230940, Note_on_c, 0, 64, 112
2, 231012, Note_on_c, 0, 64, 0
2, 231012, Note_on_c, 0, 62, 0
2, 231030, Note_on_c, 0, 56, 89
2, 231102, Note_on_c, 0, 56, 0
2, 231120, Note_on_c, 0, 74, 0
2, 231120, Note_on_c, 0, 71, 111
2, 231120, Note_on_c, 0, 62, 112
2, 231120, Note_on_c, 0, 64, 112
2, 231192, Note_on_c, 0, 64, 0
2, 231192, Note_on_c, 0, 62, 0
2, 231210, Note_on_c, 0, 56, 89
2, 231282, Note_on_c, 0, 56, 0
2, 231300, Note_on_c, 0, 71, 0
2, 231300, Note_on_c, 0, 72, 112
2, 231300, Note_on_c, 0, 62, 112
2, 231300, Note_on_c, 0, 64, 112
2, 231372, Note_on_c, 0, 64, 0
2, 231372, Note_on_c, 0, 62, 0
2, 231390, Note_on_c, 0, 56, 89
2, 231462, Note_on_c, 0, 56, 0
2, 231480, Note_on_c, 0, 72, 0
2, 231480, Note_on_c, 0, 69, 85
2, 231480, Note_on_c, 0, 60, 111
2, 231480, Note_on_c, 0, 64, 111
2, 231660, Note_on_c, 0, 69, 0
2, 231660, Note_on_c, 0, 71, 100
2, 231840, Note_on_c, 0, 71, 0
2, 231840, Note_on_c, 0, 72, 105
2, 232200, Note_on_c, 0, 64, 0
2, 232200, Note_on_c, 0, 60, 0
2, 232200, Note_on_c, 0, 57, 93
2, 232560, Note_on_c, 0, 57, 0
2, 232560, Note_on_c, 0, 72, 0
2, 232560, Note_on_c, 0, 78, 111
2, 232560, Note_on_c, 0, 66, 111
2, 232920, Note_on_c, 0, 66, 0
2, 232920, Note_on_c, 0, 78, 0
2, 232920, Note_on_c, 0, 79, 111
2, 232920, Note_on_c, 0, 67, 104
2, 233100, Note_on_c, 0, 67, 0
2, 233100, Note_on_c, 0, 79, 0
2, 233100, Note_on_c, 0, 80, 98
2, 233100, Note_on_c, 0, 68, 98
2, 233280, Note_on_c, 0, 68, 0
2, 233280, Note_on_c, 0, 80, 0
2, 233280, Note_on_c, 0, 86, 100
2, 233280, Note_on_c, 0, 74, 100
2, 233913, Note_on_c, 0, 74, 0
2, 233913, Note_on_c, 0, 86, 0
2, 234000, Note_on_c, 0, 86, 112
2, 234000, Note_on_c, 0, 74, 112
2, 234720, Note_on_c, 0, 74, 0
2, 234720, Note_on_c, 0, 86, 0
2, 234720, Note_on_c, 0, 84, 100
2, 234720, Note_on_c, 0, 72, 107
2, 234900, Note_on_c, 0, 72, 0
2, 234900, Note_on_c, 0, 84, 0
2, 234900, Note_on_c, 0, 86, 110
2, 234900, Note_on_c, 0, 74, 110
2, 235080, Note_on_c, 0, 74, 0
2, 235080, Note_on_c, 0, 86, 0
2, 235080, Note_on_c, 0, 83, 107
2, 235080, Note_on_c, 0, 71, 107
2, 235170, Note_on_c, 0, 71, 0
2, 235170, Note_on_c, 0, 83, 0
2, 235170, Note_on_c, 0, 82, 106
2, 235170, Note_on_c, 0, 70, 106
2, 235260, Note_on_c, 0, 70, 0
2, 235260, Note_on_c, 0, 82, 0
2, 235260, Note_on_c, 0, 83, 105
2, 235260, Note_on_c, 0, 71, 105
2, 235350, Note_on_c, 0, 71, 0
2, 235350, Note_on_c, 0, 83, 0
2, 235350, Note_on_c, 0, 80, 103
2, 235350, Note_on_c, 0, 68, 103
2, 235440, Note_on_c, 0, 68, 0
2, 235440, Note_on_c, 0, 80, 0
2, 235440, Note_on_c, 0, 83, 102
2, 235440, Note_on_c, 0, 71, 102
2, 235530, Note_on_c, 0, 71, 0
2, 235530, Note_on_c, 0, 83, 0
2, 235530, Note_on_c, 0, 82, 100
2, 235530, Note_on_c, 0, 70, 100
2, 235620, Note_on_c, 0, 70, 0
2, 235620, Note_on_c, 0, 82, 0
2, 235620, Note_on_c, 0, 83, 99
2, 235620, Note_on_c, 0, 71, 99
2, 235710, Note_on_c, 0, 71, 0
2, 235710, Note_on_c, 0, 83, 0
2, 235710, Note_on_c, 0, 80, 87
2, 235710, Note_on_c, 0, 68, 90
2, 235800, Note_on_c, 0, 68, 0
2, 235800, Note_on_c, 0, 80, 0
2, 235800, Note_on_c, 0, 79, 92
2, 235800, Note_on_c, 0, 67, 93
2, 235980, Note_on_c, 0, 67, 0
2, 235980, Note_on_c, 0, 79, 0
2, 235980, Note_on_c, 0, 80, 98
2, 235980, Note_on_c, 0, 68, 98
2, 236160, Note_on_c, 0, 68, 0
2, 236160, Note_on_c, 0, 80, 0
2, 236160, Note_on_c, 0, 86, 100
2, 236160, Note_on_c, 0, 74, 100
2, 236793, Note_on_c, 0, 74, 0
2, 236793, Note_on_c, 0, 86, 0
2, 236880, Note_on_c, 0, 86, 112
2, 236880, Note_on_c, 0, 74, 112
2, 237600, Note_on_c, 0, 74, 0
2, 237600, Note_on_c, 0, 86, 0
2, 237600, Note_on_c, 0, 84, 110
2, 237600, Note_on_c, 0, 72, 110
2, 237780, Note_on_c, 0, 72, 0
2, 237780, Note_on_c, 0, 84, 0
2, 237780, Note_on_c, 0, 86, 108
2, 237780, Note_on_c, 0, 74, 108
2, 237960, Note_on_c, 0, 74, 0
2, 237960, Note_on_c, 0, 86, 0
2, 237960, Note_on_c, 0, 83, 106
2, 237960, Note_on_c, 0, 71, 110
2, 238050, Note_on_c, 0, 71, 0
2, 238050, Note_on_c, 0, 83, 0
2, 238050, Note_on_c, 0, 82, 104
2, 238050, Note_on_c, 0, 70, 108
2, 238140, Note_on_c, 0, 70, 0
2, 238140, Note_on_c, 0, 82, 0
2, 238140, Note_on_c, 0, 83, 103
2, 238140, Note_on_c, 0, 71, 107
2, 238230, Note_on_c, 0, 71, 0
2, 238230, Note_on_c, 0, 83, 0
2, 238230, Note_on_c, 0, 80, 102
2, 238230, Note_on_c, 0, 68, 105
2, 238320, Note_on_c, 0, 68, 0
2, 238320, Note_on_c, 0, 80, 0
2, 238320, Note_on_c, 0, 83, 101
2, 238320, Note_on_c, 0, 71, 103
2, 238410, Note_on_c, 0, 71, 0
2, 238410, Note_on_c, 0, 83, 0
2, 238410, Note_on_c, 0, 82, 100
2, 238410, Note_on_c, 0, 70, 101
2, 238500, Note_on_c, 0, 70, 0
2, 238500, Note_on_c, 0, 82, 0
2, 238500, Note_on_c, 0, 83, 99
2, 238500, Note_on_c, 0, 71, 99
2, 238590, Note_on_c, 0, 71, 0
2, 238590, Note_on_c, 0, 83, 0
2, 238590, Note_on_c, 0, 80, 89
2, 238590, Note_on_c, 0, 68, 85
2, 238680, Note_on_c, 0, 68, 0
2, 238680, Note_on_c, 0, 80, 0
2, 238680, Note_on_c, 0, 79, 43
2, 238680, Note_on_c, 0, 67, 42
2, 238860, Note_on_c, 0, 67, 0
2, 238860, Note_on_c, 0, 79, 0
2, 238860, Note_on_c, 0, 80, 44
2, 238860, Note_on_c, 0, 68, 48
2, 239040, Note_on_c, 0, 68, 0
2, 239040, Note_on_c, 0, 80, 0
2, 239040, Note_on_c, 0, 86, 58
2, 239040, Note_on_c, 0, 74, 53
2, 239580, Note_on_c, 0, 74, 0
2, 239580, Note_on_c, 0, 86, 0
2, 239580, Note_on_c, 0, 86, 48
2, 239580, Note_on_c, 0, 74, 43
2, 239670, Note_on_c, 0, 74, 0
2, 239670, Note_on_c, 0, 86, 0
2, 239670, Note_on_c, 0, 85, 47
2, 239670, Note_on_c, 0, 73, 49
2, 239760, Note_on_c, 0, 73, 0
2, 239760, Note_on_c, 0, 85, 0
2, 239760, Note_on_c, 0, 86, 46
2, 239760, Note_on_c, 0, 74, 48
2, 240120, Note_on_c, 0, 74, 0
2, 240120, Note_on_c, 0, 86, 0
2, 240120, Note_on_c, 0, 80, 45
2, 240120, Note_on_c, 0, 68, 45
2, 240300, Note_on_c, 0, 68, 0
2, 240300, Note_on_c, 0, 80, 0
2, 240300, Note_on_c, 0, 81, 46
2, 240300, Note_on_c, 0, 69, 46
2, 240480, Note_on_c, 0, 69, 0
2, 240480, Note_on_c, 0, 81, 0
2, 240480, Note_on_c, 0, 86, 47
2, 240480, Note_on_c, 0, 74, 47
2, 241020, Note_on_c, 0, 74, 0
2, 241020, Note_on_c, 0, 86, 0
2, 241020, Note_on_c, 0, 86, 48
2, 241020, Note_on_c, 0, 74, 48
2, 241110, Note_on_c, 0, 74, 0
2, 241110, Note_on_c, 0, 86, 0
2, 241110, Note_on_c, 0, 85, 48
2, 241110, Note_on_c, 0, 73, 48
2, 241200, Note_on_c, 0, 73, 0
2, 241200, Note_on_c, 0, 85, 0
2, 241200, Note_on_c, 0, 86, 49
2, 241200, Note_on_c, 0, 74, 49
2, 241560, Note_on_c, 0, 74, 0
2, 241560, Note_on_c, 0, 86, 0
2, 241560, Note_on_c, 0, 81, 50
2, 241560, Note_on_c, 0, 69, 50
2, 241650, Note_on_c, 0, 69, 0
2, 241650, Note_on_c, 0, 81, 0
2, 241650, Note_on_c, 0, 86, 50
2, 241650, Note_on_c, 0, 74, 50
2, 241740, Note_on_c, 0, 74, 0
2, 241740, Note_on_c, 0, 86, 0
2, 241740, Note_on_c, 0, 85, 50
2, 241740, Note_on_c, 0, 73, 50
2, 241830, Note_on_c, 0, 73, 0
2, 241830, Note_on_c, 0, 85, 0
2, 241830, Note_on_c, 0, 86, 50
2, 241830, Note_on_c, 0, 74, 50
2, 241920, Note_on_c, 0, 74, 0
2, 241920, Note_on_c, 0, 86, 0
2, 241920, Note_on_c, 0, 82, 51
2, 241920, Note_on_c, 0, 70, 51
2, 242010, Note_on_c, 0, 70, 0
2, 242010, Note_on_c, 0, 82, 0
2, 242010, Note_on_c, 0, 86, 51
2, 242010, Note_on_c, 0, 74, 51
2, 242100, Note_on_c, 0, 74, 0
2, 242100, Note_on_c, 0, 86, 0
2, 242100, Note_on_c, 0, 85, 51
2, 242100, Note_on_c, 0, 73, 51
2, 242190, Note_on_c, 0, 73, 0
2, 242190, Note_on_c, 0, 85, 0
2, 242190, Note_on_c, 0, 86, 52
2, 242190, Note_on_c, 0, 74, 52
2, 242280, Note_on_c, 0, 74, 0
2, 242280, Note_on_c, 0, 86, 0
2, 242280, Note_on_c, 0, 82, 52
2, 242280, Note_on_c, 0, 70, 52
2, 242370, Note_on_c, 0, 70, 0
2, 242370, Note_on_c, 0, 82, 0
2, 242370, Note_on_c, 0, 86, 52
2, 242370, Note_on_c, 0, 74, 52
2, 242460, Note_on_c, 0, 74, 0
2, 242460, Note_on_c, 0, 86, 0
2, 242460, Note_on_c, 0, 85, 52
2, 242460, Note_on_c, 0, 73, 52
2, 242550, Note_on_c, 0, 73, 0
2, 242550, Note_on_c, 0, 85, 0
2, 242550, Note_on_c, 0, 86, 53
2, 242550, Note_on_c, 0, 74, 53
2, 242640, Note_on_c, 0, 74, 0
2, 242640, Note_on_c, 0, 86, 0
2, 242640, Note_on_c, 0, 83, 53
2, 242640, Note_on_c, 0, 71, 53
2, 242730, Note_on_c, 0, 71, 0
2, 242730, Note_on_c, 0, 83, 0
2, 242730, Note_on_c, 0, 86, 53
2, 242730, Note_on_c, 0, 74, 53
2, 242820, Note_on_c, 0, 74, 0
2, 242820, Note_on_c, 0, 86, 0
2, 242820, Note_on_c, 0, 85, 53
2, 242820, Note_on_c, 0, 73, 53
2, 242910, Note_on_c, 0, 73, 0
2, 242910, Note_on_c, 0, 85, 0
2, 242910, Note_on_c, 0, 86, 54
2, 242910, Note_on_c, 0, 74, 54
2, 243000, Note_on_c, 0, 74, 0
2, 243000, Note_on_c, 0, 86, 0
2, 243000, Note_on_c, 0, 83, 54
2, 243000, Note_on_c, 0, 71, 54
2, 243090, Note_on_c, 0, 71, 0
2, 243090, Note_on_c, 0, 83, 0
2, 243090, Note_on_c, 0, 86, 54
2, 243090, Note_on_c, 0, 74, 54
2, 243180, Note_on_c, 0, 74, 0
2, 243180, Note_on_c, 0, 86, 0
2, 243180, Note_on_c, 0, 85, 54
2, 243180, Note_on_c, 0, 73, 54
2, 243270, Note_on_c, 0, 73, 0
2, 243270, Note_on_c, 0, 85, 0
2, 243270, Note_on_c, 0, 86, 55
2, 243270, Note_on_c, 0, 74, 55
2, 243360, Note_on_c, 0, 74, 0
2, 243360, Note_on_c, 0, 86, 0
2, 243360, Note_on_c, 0, 84, 55
2, 243360, Note_on_c, 0, 72, 55
2, 243450, Note_on_c, 0, 72, 0
2, 243450, Note_on_c, 0, 84, 0
2, 243450, Note_on_c, 0, 86, 55
2, 243450, Note_on_c, 0, 74, 55
2, 243540, Note_on_c, 0, 74, 0
2, 243540, Note_on_c, 0, 86, 0
2, 243540, Note_on_c, 0, 85, 56
2, 243540, Note_on_c, 0, 73, 56
2, 243630, Note_on_c, 0, 73, 0
2, 243630, Note_on_c, 0, 85, 0
2, 243630, Note_on_c, 0, 86, 56
2, 243630, Note_on_c, 0, 74, 56
2, 243720, Note_on_c, 0, 74, 0
2, 243720, Note_on_c, 0, 86, 0
2, 243720, Note_on_c, 0, 85, 56
2, 243720, Note_on_c, 0, 73, 56
2, 243810, Note_on_c, 0, 73, 0
2, 243810, Note_on_c, 0, 85, 0
2, 243810, Note_on_c, 0, 86, 56
2, 243810, Note_on_c, 0, 74, 56
2, 243900, Note_on_c, 0, 74, 0
2, 243900, Note_on_c, 0, 86, 0
2, 243900, Note_on_c, 0, 85, 57
2, 243900, Note_on_c, 0, 73, 57
2, 243990, Note_on_c, 0, 73, 0
2, 243990, Note_on_c, 0, 85, 0
2, 243990, Note_on_c, 0, 86, 57
2, 243990, Note_on_c, 0, 74, 57
2, 244080, Note_on_c, 0, 74, 0
2, 244080, Note_on_c, 0, 86, 0
2, 244080, Note_on_c, 0, 86, 57
2, 244080, Note_on_c, 0, 74, 57
2, 244170, Note_on_c, 0, 74, 0
2, 244170, Note_on_c, 0, 86, 0
2, 244170, Note_on_c, 0, 86, 57
2, 244170, Note_on_c, 0, 74, 57
2, 244260, Note_on_c, 0, 74, 0
2, 244260, Note_on_c, 0, 86, 0
2, 244260, Note_on_c, 0, 85, 58
2, 244260, Note_on_c, 0, 73, 58
2, 244350, Note_on_c, 0, 73, 0
2, 244350, Note_on_c, 0, 85, 0
2, 244350, Note_on_c, 0, 86, 58
2, 244350, Note_on_c, 0, 74, 58
2, 244440, Note_on_c, 0, 74, 0
2, 244440, Note_on_c, 0, 86, 0
2, 244440, Note_on_c, 0, 83, 105
2, 244440, Note_on_c, 0, 71, 99
2, 244530, Note_on_c, 0, 71, 0
2, 244530, Note_on_c, 0, 83, 0
2, 244530, Note_on_c, 0, 86, 111
2, 244530, Note_on_c, 0, 74, 111
2, 244620, Note_on_c, 0, 74, 0
2, 244620, Note_on_c, 0, 86, 0
2, 244620, Note_on_c, 0, 85, 106
2, 244620, Note_on_c, 0, 73, 107
2, 244710, Note_on_c, 0, 73, 0
2, 244710, Note_on_c, 0, 85, 0
2, 244710, Note_on_c, 0, 86, 111
2, 244710, Note_on_c, 0, 74, 111
2, 244800, Note_on_c, 0, 74, 0
2, 244800, Note_on_c, 0, 86, 0
2, 244800, Note_on_c, 0, 83, 110
2, 244800, Note_on_c, 0, 71, 102
2, 244890, Note_on_c, 0, 71, 0
2, 244890, Note_on_c, 0, 83, 0
2, 244890, Note_on_c, 0, 86, 111
2, 244890, Note_on_c, 0, 74, 111
2, 244980, Note_on_c, 0, 74, 0
2, 244980, Note_on_c, 0, 86, 0
2, 244980, Note_on_c, 0, 85, 105
2, 244980, Note_on_c, 0, 73, 104
2, 245070, Note_on_c, 0, 73, 0
2, 245070, Note_on_c, 0, 85, 0
2, 245070, Note_on_c, 0, 86, 111
2, 245070, Note_on_c, 0, 74, 111
2, 245160, Note_on_c, 0, 74, 0
2, 245160, Note_on_c, 0, 86, 0
2, 245160, Note_on_c, 0, 83, 97
2, 245160, Note_on_c, 0, 71, 103
2, 245250, Note_on_c, 0, 71, 0
2, 245250, Note_on_c, 0, 83, 0
2, 245250, Note_on_c, 0, 86, 111
2, 245250, Note_on_c, 0, 74, 111
2, 245340, Note_on_c, 0, 74, 0
2, 245340, Note_on_c, 0, 86, 0
2, 245340, Note_on_c, 0, 85, 105
2, 245340, Note_on_c, 0, 73, 105
2, 245430, Note_on_c, 0, 73, 0
2, 245430, Note_on_c, 0, 85, 0
2, 245430, Note_on_c, 0, 86, 111
2, 245430, Note_on_c, 0, 74, 111
2, 245520, Note_on_c, 0, 74, 0
2, 245520, Note_on_c, 0, 86, 0
2, 245520, Note_on_c, 0, 83, 100
2, 245520, Note_on_c, 0, 71, 106
2, 245610, Note_on_c, 0, 71, 0
2, 245610, Note_on_c, 0, 83, 0
2, 245610, Note_on_c, 0, 86, 111
2, 245610, Note_on_c, 0, 74, 111
2, 245700, Note_on_c, 0, 74, 0
2, 245700, Note_on_c, 0, 86, 0
2, 245700, Note_on_c, 0, 85, 106
2, 245700, Note_on_c, 0, 73, 104
2, 245790, Note_on_c, 0, 73, 0
2, 245790, Note_on_c, 0, 85, 0
2, 245790, Note_on_c, 0, 86, 111
2, 245790, Note_on_c, 0, 74, 111
2, 245880, Note_on_c, 0, 74, 0
2, 245880, Note_on_c, 0, 86, 0
2, 245880, Note_on_c, 0, 83, 105
2, 245880, Note_on_c, 0, 71, 95
2, 245970, Note_on_c, 0, 71, 0
2, 245970, Note_on_c, 0, 83, 0
2, 245970, Note_on_c, 0, 86, 111
2, 245970, Note_on_c, 0, 74, 111
2, 246060, Note_on_c, 0, 74, 0
2, 246060, Note_on_c, 0, 86, 0
2, 246060, Note_on_c, 0, 85, 103
2, 246060, Note_on_c, 0, 73, 104
2, 246150, Note_on_c, 0, 73, 0
2, 246150, Note_on_c, 0, 85, 0
2, 246150, Note_on_c, 0, 86, 111
2, 246150, Note_on_c, 0, 74, 111
2, 246240, Note_on_c, 0, 74, 0
2, 246240, Note_on_c, 0, 86, 0
2, 246240, Note_on_c, 0, 83, 100
2, 246240, Note_on_c, 0, 71, 102
2, 246330, Note_on_c, 0, 71, 0
2, 246330, Note_on_c, 0, 83, 0
2, 246330, Note_on_c, 0, 86, 111
2, 246330, Note_on_c, 0, 74, 111
2, 246420, Note_on_c, 0, 74, 0
2, 246420, Note_on_c, 0, 86, 0
2, 246420, Note_on_c, 0, 85, 107
2, 246420, Note_on_c, 0, 73, 105
2, 246510, Note_on_c, 0, 73, 0
2, 246510, Note_on_c, 0, 85, 0
2, 246510, Note_on_c, 0, 86, 111
2, 246510, Note_on_c, 0, 74, 111
2, 246600, Note_on_c, 0, 74, 0
2, 246600, Note_on_c, 0, 86, 0
2, 246600, Note_on_c, 0, 83, 99
2, 246600, Note_on_c, 0, 71, 96
2, 246690, Note_on_c, 0, 71, 0
2, 246690, Note_on_c, 0, 83, 0
2, 246690, Note_on_c, 0, 86, 111
2, 246690, Note_on_c, 0, 74, 111
2, 246780, Note_on_c, 0, 74, 0
2, 246780, Note_on_c, 0, 86, 0
2, 246780, Note_on_c, 0, 85, 110
2, 246780, Note_on_c, 0, 73, 109
2, 246870, Note_on_c, 0, 73, 0
2, 246870, Note_on_c, 0, 85, 0
2, 246870, Note_on_c, 0, 86, 111
2, 246870, Note_on_c, 0, 74, 111
2, 246960, Note_on_c, 0, 74, 0
2, 246960, Note_on_c, 0, 86, 0
2, 246960, Note_on_c, 0, 83, 104
2, 246960, Note_on_c, 0, 71, 98
2, 247050, Note_on_c, 0, 71, 0
2, 247050, Note_on_c, 0, 83, 0
2, 247050, Note_on_c, 0, 86, 111
2, 247050, Note_on_c, 0, 74, 111
2, 247140, Note_on_c, 0, 74, 0
2, 247140, Note_on_c, 0, 86, 0
2, 247140, Note_on_c, 0, 85, 99
2, 247140, Note_on_c, 0, 73, 111
2, 247230, Note_on_c, 0, 73, 0
2, 247230, Note_on_c, 0, 85, 0
2, 247230, Note_on_c, 0, 86, 111
2, 247230, Note_on_c, 0, 74, 111
2, 247320, Note_on_c, 0, 74, 0
2, 247320, Note_on_c, 0, 86, 0
2, 247320, Note_on_c, 0, 83, 101
2, 247320, Note_on_c, 0, 71, 102
2, 247410, Note_on_c, 0, 71, 0
2, 247410, Note_on_c, 0, 83, 0
2, 247410, Note_on_c, 0, 86, 111
2, 247410, Note_on_c, 0, 74, 111
2, 247500, Note_on_c, 0, 74, 0
2, 247500, Note_on_c, 0, 86, 0
2, 247500, Note_on_c, 0, 85, 107
2, 247500, Note_on_c, 0, 73, 100
2, 247590, Note_on_c, 0, 73, 0
2, 247590, Note_on_c, 0, 85, 0
2, 247590, Note_on_c, 0, 86, 111
2, 247590, Note_on_c, 0, 74, 111
2, 247680, Note_on_c, 0, 74, 0
2, 247680, Note_on_c, 0, 86, 0
2, 247680, Note_on_c, 0, 83, 100
2, 247680, Note_on_c, 0, 71, 101
2, 247770, Note_on_c, 0, 71, 0
2, 247770, Note_on_c, 0, 83, 0
2, 247770, Note_on_c, 0, 86, 111
2, 247770, Note_on_c, 0, 74, 111
2, 247860, Note_on_c, 0, 74, 0
2, 247860, Note_on_c, 0, 86, 0
2, 247860, Note_on_c, 0, 85, 108
2, 247860, Note_on_c, 0, 73, 109
2, 247950, Note_on_c, 0, 73, 0
2, 247950, Note_on_c, 0, 85, 0
2, 247950, Note_on_c, 0, 86, 111
2, 247950, Note_on_c, 0, 74, 111
2, 248040, Note_on_c, 0, 74, 0
2, 248040, Note_on_c, 0, 86, 0
2, 248040, Note_on_c, 0, 83, 101
2, 248040, Note_on_c, 0, 71, 99
2, 248130, Note_on_c, 0, 71, 0
2, 248130, Note_on_c, 0, 83, 0
2, 248130, Note_on_c, 0, 86, 111
2, 248130, Note_on_c, 0, 74, 111
2, 248220, Note_on_c, 0, 74, 0
2, 248220, Note_on_c, 0, 86, 0
2, 248220, Note_on_c, 0, 85, 109
2, 248220, Note_on_c, 0, 73, 106
2, 248310, Note_on_c, 0, 73, 0
2, 248310, Note_on_c, 0, 85, 0
2, 248310, Note_on_c, 0, 86, 111
2, 248310, Note_on_c, 0, 74, 111
2, 248400, Note_on_c, 0, 74, 0
2, 248400, Note_on_c, 0, 86, 0
2, 248400, Note_on_c, 0, 83, 106
2, 248400, Note_on_c, 0, 71, 104
2, 248490, Note_on_c, 0, 71, 0
2, 248490, Note_on_c, 0, 83, 0
2, 248490, Note_on_c, 0, 86, 111
2, 248490, Note_on_c, 0, 74, 111
2, 248580, Note_on_c, 0, 74, 0
2, 248580, Note_on_c, 0, 86, 0
2, 248580, Note_on_c, 0, 85, 109
2, 248580, Note_on_c, 0, 73, 110
2, 248670, Note_on_c, 0, 73, 0
2, 248670, Note_on_c, 0, 85, 0
2, 248670, Note_on_c, 0, 86, 111
2, 248670, Note_on_c, 0, 74, 111
2, 248760, Note_on_c, 0, 74, 0
2, 248760, Note_on_c, 0, 86, 0
2, 248760, Note_on_c, 0, 83, 102
2, 248760, Note_on_c, 0, 71, 102
2, 248850, Note_on_c, 0, 71, 0
2, 248850, Note_on_c, 0, 83, 0
2, 248850, Note_on_c, 0, 86, 111
2, 248850, Note_on_c, 0, 74, 111
2, 248940, Note_on_c, 0, 74, 0
2, 248940, Note_on_c, 0, 86, 0
2, 248940, Note_on_c, 0, 85, 101
2, 248940, Note_on_c, 0, 73, 109
2, 249030, Note_on_c, 0, 73, 0
2, 249030, Note_on_c, 0, 85, 0
2, 249030, Note_on_c, 0, 86, 111
2, 249030, Note_on_c, 0, 74, 111
2, 249120, Note_on_c, 0, 74, 0
2, 249120, Note_on_c, 0, 86, 0
2, 249120, Note_on_c, 0, 83, 102
2, 249120, Note_on_c, 0, 71, 100
2, 249300, Note_on_c, 0, 71, 0
2, 249300, Note_on_c, 0, 83, 0
2, 249840, Note_on_c, 0, 86, 82
2, 249840, Note_on_c, 0, 66, 85
2, 249840, Note_on_c, 0, 71, 85
2, 249840, Note_on_c, 0, 74, 85
2, 249929, Note_on_c, 0, 74, 0
2, 249929, Note_on_c, 0, 86, 0
2, 249929, Note_on_c, 0, 66, 0
2, 249929, Note_on_c, 0, 71, 0
2, 250020, Note_on_c, 0, 83, 84
2, 250020, Note_on_c, 0, 66, 94
2, 250020, Note_on_c, 0, 71, 94
2, 250020, Note_on_c, 0, 74, 94
2, 250109, Note_on_c, 0, 74, 0
2, 250109, Note_on_c, 0, 83, 0
2, 250109, Note_on_c, 0, 66, 0
2, 250109, Note_on_c, 0, 71, 0
2, 250200, Note_on_c, 0, 85, 104
2, 250200, Note_on_c, 0, 65, 106
2, 250200, Note_on_c, 0, 71, 106
2, 250200, Note_on_c, 0, 73, 106
2, 250380, Note_on_c, 0, 85, 0
2, 250380, Note_on_c, 0, 83, 94
2, 250517, Note_on_c, 0, 65, 0
2, 250517, Note_on_c, 0, 73, 0
2, 250517, Note_on_c, 0, 71, 0
2, 250560, Note_on_c, 0, 83, 0
2, 250560, Note_on_c, 0, 85, 103
2, 250560, Note_on_c, 0, 65, 98
2, 250560, Note_on_c, 0, 71, 98
2, 250560, Note_on_c, 0, 73, 98
2, 250649, Note_on_c, 0, 73, 0
2, 250649, Note_on_c, 0, 85, 0
2, 250649, Note_on_c, 0, 65, 0
2, 250649, Note_on_c, 0, 71, 0
2, 250740, Note_on_c, 0, 77, 75
2, 250740, Note_on_c, 0, 65, 96
2, 250740, Note_on_c, 0, 71, 96
2, 250740, Note_on_c, 0, 73, 96
2, 250829, Note_on_c, 0, 73, 0
2, 250829, Note_on_c, 0, 77, 0
2, 250829, Note_on_c, 0, 65, 0
2, 250829, Note_on_c, 0, 71, 0
2, 250920, Note_on_c, 0, 85, 111
2, 250920, Note_on_c, 0, 65, 112
2, 250920, Note_on_c, 0, 71, 112
2, 250920, Note_on_c, 0, 73, 112
2, 251100, Note_on_c, 0, 85, 0
2, 251100, Note_on_c, 0, 83, 93
2, 251237, Note_on_c, 0, 65, 0
2, 251237, Note_on_c, 0, 73, 0
2, 251237, Note_on_c, 0, 71, 0
2, 251280, Note_on_c, 0, 83, 0
2, 251280, Note_on_c, 0, 86, 109
2, 251280, Note_on_c, 0, 66, 104
2, 251280, Note_on_c, 0, 71, 104
2, 251280, Note_on_c, 0, 74, 104
2, 251369, Note_on_c, 0, 74, 0
2, 251369, Note_on_c, 0, 86, 0
2, 251369, Note_on_c, 0, 66, 0
2, 251369, Note_on_c, 0, 71, 0
2, 251460, Note_on_c, 0, 78, 74
2, 251460, Note_on_c, 0, 66, 97
2, 251460, Note_on_c, 0, 71, 97
2, 251460, Note_on_c, 0, 74, 97
2, 251549, Note_on_c, 0, 74, 0
2, 251549, Note_on_c, 0, 78, 0
2, 251549, Note_on_c, 0, 66, 0
2, 251549, Note_on_c, 0, 71, 0
2, 251640, Note_on_c, 0, 83, 107
2, 251640, Note_on_c, 0, 64, 98
2, 251640, Note_on_c, 0, 67, 98
2, 251640, Note_on_c, 0, 71, 98
2, 251820, Note_on_c, 0, 83, 0
2, 251820, Note_on_c, 0, 79, 86
2, 251957, Note_on_c, 0, 64, 0
2, 251957, Note_on_c, 0, 71, 0
2, 251957, Note_on_c, 0, 67, 0
2, 252000, Note_on_c, 0, 79, 0
2, 252000, Note_on_c, 0, 85, 111
2, 252000, Note_on_c, 0, 64, 94
2, 252000, Note_on_c, 0, 67, 94
2, 252000, Note_on_c, 0, 71, 94
2, 252089, Note_on_c, 0, 71, 0
2, 252089, Note_on_c, 0, 85, 0
2, 252089, Note_on_c, 0, 64, 0
2, 252089, Note_on_c, 0, 67, 0
2, 252180, Note_on_c, 0, 76, 73
2, 252180, Note_on_c, 0, 64, 94
2, 252180, Note_on_c, 0, 67, 94
2, 252180, Note_on_c, 0, 71, 94
2, 252269, Note_on_c, 0, 71, 0
2, 252269, Note_on_c, 0, 76, 0
2, 252269, Note_on_c, 0, 64, 0
2, 252269, Note_on_c, 0, 67, 0
2, 252360, Note_on_c, 0, 81, 110
2, 252360, Note_on_c, 0, 61, 102
2, 252360, Note_on_c, 0, 64, 102
2, 252360, Note_on_c, 0, 69, 102
2, 252540, Note_on_c, 0, 81, 0
2, 252540, Note_on_c, 0, 76, 84
2, 252677, Note_on_c, 0, 61, 0
2, 252677, Note_on_c, 0, 69, 0
2, 252677, Note_on_c, 0, 64, 0
2, 252720, Note_on_c, 0, 76, 0
2, 252720, Note_on_c, 0, 85, 111
2, 252720, Note_on_c, 0, 61, 99
2, 252720, Note_on_c, 0, 64, 99
2, 252720, Note_on_c, 0, 69, 99
2, 252809, Note_on_c, 0, 69, 0
2, 252809, Note_on_c, 0, 85, 0
2, 252809, Note_on_c, 0, 61, 0
2, 252809, Note_on_c, 0, 64, 0
2, 252900, Note_on_c, 0, 81, 89
2, 252900, Note_on_c, 0, 61, 98
2, 252900, Note_on_c, 0, 64, 98
2, 252900, Note_on_c, 0, 69, 98
2, 252989, Note_on_c, 0, 69, 0
2, 252989, Note_on_c, 0, 81, 0
2, 252989, Note_on_c, 0, 61, 0
2, 252989, Note_on_c, 0, 64, 0
2, 253080, Note_on_c, 0, 83, 103
2, 253080, Note_on_c, 0, 64, 112
2, 253080, Note_on_c, 0, 67, 112
2, 253080, Note_on_c, 0, 71, 112
2, 253260, Note_on_c, 0, 83, 0
2, 253260, Note_on_c, 0, 79, 84
2, 253397, Note_on_c, 0, 64, 0
2, 253397, Note_on_c, 0, 71, 0
2, 253397, Note_on_c, 0, 67, 0
2, 253440, Note_on_c, 0, 79, 0
2, 253440, Note_on_c, 0, 85, 111
2, 253440, Note_on_c, 0, 64, 103
2, 253440, Note_on_c, 0, 67, 103
2, 253440, Note_on_c, 0, 71, 103
2, 253529, Note_on_c, 0, 71, 0
2, 253529, Note_on_c, 0, 85, 0
2, 253529, Note_on_c, 0, 64, 0
2, 253529, Note_on_c, 0, 67, 0
2, 253620, Note_on_c, 0, 76, 76
2, 253620, Note_on_c, 0, 64, 100
2, 253620, Note_on_c, 0, 67, 100
2, 253620, Note_on_c, 0, 71, 100
2, 253709, Note_on_c, 0, 71, 0
2, 253709, Note_on_c, 0, 76, 0
2, 253709, Note_on_c, 0, 64, 0
2, 253709, Note_on_c, 0, 67, 0
2, 253800, Note_on_c, 0, 83, 111
2, 253800, Note_on_c, 0, 64, 112
2, 253800, Note_on_c, 0, 67, 112
2, 253800, Note_on_c, 0, 71, 112
2, 253980, Note_on_c, 0, 83, 0
2, 253980, Note_on_c, 0, 79, 91
2, 254160, Note_on_c, 0, 79, 0
2, 254160, Note_on_c, 0, 85, 111
2, 254249, Note_on_c, 0, 85, 0
2, 254340, Note_on_c, 0, 64, 0
2, 254340, Note_on_c, 0, 67, 0
2, 254340, Note_on_c, 0, 71, 0
2, 254340, Note_on_c, 0, 76, 73
2, 254340, Note_on_c, 0, 64, 112
2, 254340, Note_on_c, 0, 67, 112
2, 254340, Note_on_c, 0, 71, 112
2, 254429, Note_on_c, 0, 76, 0
2, 254430, Note_on_c, 0, 64, 0
2, 254430, Note_on_c, 0, 67, 0
2, 254430, Note_on_c, 0, 71, 0
2, 254430, Note_on_c, 0, 64, 112
2, 254430, Note_on_c, 0, 67, 112
2, 254430, Note_on_c, 0, 71, 112
2, 254520, Note_on_c, 0, 71, 0
2, 254520, Note_on_c, 0, 67, 0
2, 254520, Note_on_c, 0, 64, 0
2, 254520, Note_on_c, 0, 83, 111
2, 254520, Note_on_c, 0, 64, 112
2, 254520, Note_on_c, 0, 67, 112
2, 254520, Note_on_c, 0, 71, 112
2, 254700, Note_on_c, 0, 83, 0
2, 254700, Note_on_c, 0, 79, 82
2, 254880, Note_on_c, 0, 79, 0
2, 254880, Note_on_c, 0, 71, 0
2, 254880, Note_on_c, 0, 67, 0
2, 254880, Note_on_c, 0, 64, 0
2, 254880, Note_on_c, 0, 85, 111
2, 254880, Note_on_c, 0, 64, 112
2, 254880, Note_on_c, 0, 67, 112
2, 254880, Note_on_c, 0, 71, 112
2, 254969, Note_on_c, 0, 85, 0
2, 255060, Note_on_c, 0, 76, 75
2, 255149, Note_on_c, 0, 76, 0
2, 255240, Note_on_c, 0, 71, 0
2, 255240, Note_on_c, 0, 67, 0
2, 255240, Note_on_c, 0, 64, 0
2, 255240, Note_on_c, 0, 83, 111
2, 255240, Note_on_c, 0, 64, 112
2, 255240, Note_on_c, 0, 67, 112
2, 255240, Note_on_c, 0, 71, 112
2, 255420, Note_on_c, 0, 83, 0
2, 255420, Note_on_c, 0, 79, 87
2, 255600, Note_on_c, 0, 79, 0
2, 255600, Note_on_c, 0, 71, 0
2, 255600, Note_on_c, 0, 67, 0
2, 255600, Note_on_c, 0, 64, 0
2, 255600, Note_on_c, 0, 86, 111
2, 255600, Note_on_c, 0, 66, 107
2, 255600, Note_on_c, 0, 71, 107
2, 255600, Note_on_c, 0, 74, 107
2, 255689, Note_on_c, 0, 74, 0
2, 255689, Note_on_c, 0, 86, 0
2, 255689, Note_on_c, 0, 66, 0
2, 255689, Note_on_c, 0, 71, 0
2, 255780, Note_on_c, 0, 83, 88
2, 255780, Note_on_c, 0, 66, 104
2, 255780, Note_on_c, 0, 71, 104
2, 255780, Note_on_c, 0, 74, 104
2, 255869, Note_on_c, 0, 74, 0
2, 255869, Note_on_c, 0, 83, 0
2, 255869, Note_on_c, 0, 66, 0
2, 255869, Note_on_c, 0, 71, 0
2, 255960, Note_on_c, 0, 85, 102
2, 255960, Note_on_c, 0, 65, 106
2, 255960, Note_on_c, 0, 71, 106
2, 255960, Note_on_c, 0, 73, 106
2, 256140, Note_on_c, 0, 85, 0
2, 256140, Note_on_c, 0, 83, 91
2, 256277, Note_on_c, 0, 65, 0
2, 256277, Note_on_c, 0, 73, 0
2, 256277, Note_on_c, 0, 71, 0
2, 256320, Note_on_c, 0, 83, 0
2, 256320, Note_on_c, 0, 85, 107
2, 256320, Note_on_c, 0, 65, 101
2, 256320, Note_on_c, 0, 71, 101
2, 256320, Note_on_c, 0, 73, 101
2, 256409, Note_on_c, 0, 73, 0
2, 256409, Note_on_c, 0, 85, 0
2, 256409, Note_on_c, 0, 65, 0
2, 256409, Note_on_c, 0, 71, 0
2, 256500, Note_on_c, 0, 77, 78
2, 256500, Note_on_c, 0, 65, 103
2, 256500, Note_on_c, 0, 71, 103
2, 256500, Note_on_c, 0, 73, 103
2, 256589, Note_on_c, 0, 73, 0
2, 256589, Note_on_c, 0, 77, 0
2, 256589, Note_on_c, 0, 65, 0
2, 256589, Note_on_c, 0, 71, 0
2, 256680, Note_on_c, 0, 85, 111
2, 256680, Note_on_c, 0, 65, 110
2, 256680, Note_on_c, 0, 71, 110
2, 256680, Note_on_c, 0, 73, 110
2, 256860, Note_on_c, 0, 85, 0
2, 256860, Note_on_c, 0, 83, 93
2, 256997, Note_on_c, 0, 65, 0
2, 256997, Note_on_c, 0, 73, 0
2, 256997, Note_on_c, 0, 71, 0
2, 257040, Note_on_c, 0, 83, 0
2, 257040, Note_on_c, 0, 86, 102
2, 257040, Note_on_c, 0, 66, 100
2, 257040, Note_on_c, 0, 71, 100
2, 257040, Note_on_c, 0, 74, 100
2, 257129, Note_on_c, 0, 74, 0
2, 257129, Note_on_c, 0, 86, 0
2, 257129, Note_on_c, 0, 66, 0
2, 257129, Note_on_c, 0, 71, 0
2, 257220, Note_on_c, 0, 78, 74
2, 257220, Note_on_c, 0, 66, 93
2, 257220, Note_on_c, 0, 71, 93
2, 257220, Note_on_c, 0, 74, 93
2, 257309, Note_on_c, 0, 74, 0
2, 257309, Note_on_c, 0, 78, 0
2, 257309, Note_on_c, 0, 66, 0
2, 257309, Note_on_c, 0, 71, 0
2, 257400, Note_on_c, 0, 83, 108
2, 257400, Note_on_c, 0, 64, 101
2, 257400, Note_on_c, 0, 67, 101
2, 257400, Note_on_c, 0, 71, 101
2, 257580, Note_on_c, 0, 83, 0
2, 257580, Note_on_c, 0, 79, 83
2, 257717, Note_on_c, 0, 64, 0
2, 257717, Note_on_c, 0, 71, 0
2, 257717, Note_on_c, 0, 67, 0
2, 257760, Note_on_c, 0, 79, 0
2, 257760, Note_on_c, 0, 85, 111
2, 257760, Note_on_c, 0, 64, 100
2, 257760, Note_on_c, 0, 67, 100
2, 257760, Note_on_c, 0, 71, 100
2, 257849, Note_on_c, 0, 71, 0
2, 257849, Note_on_c, 0, 85, 0
2, 257849, Note_on_c, 0, 64, 0
2, 257849, Note_on_c, 0, 67, 0
2, 257940, Note_on_c, 0, 76, 77
2, 257940, Note_on_c, 0, 64, 98
2, 257940, Note_on_c, 0, 67, 98
2, 257940, Note_on_c, 0, 71, 98
2, 258029, Note_on_c, 0, 71, 0
2, 258029, Note_on_c, 0, 76, 0
2, 258029, Note_on_c, 0, 64, 0
2, 258029, Note_on_c, 0, 67, 0
2, 258120, Note_on_c, 0, 81, 109
2, 258120, Note_on_c, 0, 61, 106
2, 258120, Note_on_c, 0, 64, 106
2, 258120, Note_on_c, 0, 69, 106
2, 258300, Note_on_c, 0, 81, 0
2, 258300, Note_on_c, 0, 76, 88
2, 258437, Note_on_c, 0, 61, 0
2, 258437, Note_on_c, 0, 69, 0
2, 258437, Note_on_c, 0, 64, 0
2, 258480, Note_on_c, 0, 76, 0
2, 258480, Note_on_c, 0, 85, 111
2, 258480, Note_on_c, 0, 61, 89
2, 258480, Note_on_c, 0, 64, 89
2, 258480, Note_on_c, 0, 69, 89
2, 258569, Note_on_c, 0, 69, 0
2, 258569, Note_on_c, 0, 85, 0
2, 258569, Note_on_c, 0, 61, 0
2, 258569, Note_on_c, 0, 64, 0
2, 258660, Note_on_c, 0, 81, 89
2, 258660, Note_on_c, 0, 61, 97
2, 258660, Note_on_c, 0, 64, 97
2, 258660, Note_on_c, 0, 69, 97
2, 258749, Note_on_c, 0, 69, 0
2, 258749, Note_on_c, 0, 81, 0
2, 258749, Note_on_c, 0, 61, 0
2, 258749, Note_on_c, 0, 64, 0
2, 258840, Note_on_c, 0, 86, 111
2, 258840, Note_on_c, 0, 62, 112
2, 258840, Note_on_c, 0, 67, 112
2, 258840, Note_on_c, 0, 71, 112
2, 259020, Note_on_c, 0, 86, 0
2, 259020, Note_on_c, 0, 83, 88
2, 259157, Note_on_c, 0, 62, 0
2, 259157, Note_on_c, 0, 71, 0
2, 259157, Note_on_c, 0, 67, 0
2, 259200, Note_on_c, 0, 83, 0
2, 259200, Note_on_c, 0, 88, 111
2, 259200, Note_on_c, 0, 62, 99
2, 259200, Note_on_c, 0, 67, 99
2, 259200, Note_on_c, 0, 71, 99
2, 259289, Note_on_c, 0, 71, 0
2, 259289, Note_on_c, 0, 88, 0
2, 259289, Note_on_c, 0, 62, 0
2, 259289, Note_on_c, 0, 67, 0
2, 259380, Note_on_c, 0, 79, 73
2, 259380, Note_on_c, 0, 62, 96
2, 259380, Note_on_c, 0, 67, 96
2, 259380, Note_on_c, 0, 71, 96
2, 259469, Note_on_c, 0, 71, 0
2, 259469, Note_on_c, 0, 79, 0
2, 259469, Note_on_c, 0, 62, 0
2, 259469, Note_on_c, 0, 67, 0
2, 259560, Note_on_c, 0, 86, 111
2, 259560, Note_on_c, 0, 67, 112
2, 259560, Note_on_c, 0, 71, 112
2, 259560, Note_on_c, 0, 74, 112
2, 259740, Note_on_c, 0, 86, 0
2, 259740, Note_on_c, 0, 83, 90
2, 259920, Note_on_c, 0, 83, 0
2, 259920, Note_on_c, 0, 88, 111
2, 260009, Note_on_c, 0, 88, 0
2, 260100, Note_on_c, 0, 67, 0
2, 260100, Note_on_c, 0, 71, 0
2, 260100, Note_on_c, 0, 74, 0
2, 260100, Note_on_c, 0, 79, 79
2, 260100, Note_on_c, 0, 67, 112
2, 260100, Note_on_c, 0, 71, 112
2, 260100, Note_on_c, 0, 74, 112
2, 260189, Note_on_c, 0, 79, 0
2, 260190, Note_on_c, 0, 67, 0
2, 260190, Note_on_c, 0, 71, 0
2, 260190, Note_on_c, 0, 74, 0
2, 260190, Note_on_c, 0, 67, 112
2, 260190, Note_on_c, 0, 71, 112
2, 260190, Note_on_c, 0, 74, 112
2, 260280, Note_on_c, 0, 74, 0
2, 260280, Note_on_c, 0, 71, 0
2, 260280, Note_on_c, 0, 67, 0
2, 260280, Note_on_c, 0, 86, 111
2, 260280, Note_on_c, 0, 67, 112
2, 260280, Note_on_c, 0, 71, 112
2, 260280, Note_on_c, 0, 74, 112
2, 260460, Note_on_c, 0, 86, 0
2, 260460, Note_on_c, 0, 83, 92
2, 260640, Note_on_c, 0, 83, 0
2, 260640, Note_on_c, 0, 74, 0
2, 260640, Note_on_c, 0, 71, 0
2, 260640, Note_on_c, 0, 67, 0
2, 260640, Note_on_c, 0, 88, 111
2, 260640, Note_on_c, 0, 67, 112
2, 260640, Note_on_c, 0, 71, 112
2, 260640, Note_on_c, 0, 74, 112
2, 260729, Note_on_c, 0, 88, 0
2, 260820, Note_on_c, 0, 79, 80
2, 260909, Note_on_c, 0, 79, 0
2, 261000, Note_on_c, 0, 74, 0
2, 261000, Note_on_c, 0, 71, 0
2, 261000, Note_on_c, 0, 67, 0
2, 261000, Note_on_c, 0, 86, 111
2, 261000, Note_on_c, 0, 67, 112
2, 261000, Note_on_c, 0, 71, 112
2, 261000, Note_on_c, 0, 74, 112
2, 261180, Note_on_c, 0, 86, 0
2, 261180, Note_on_c, 0, 83, 89
2, 261360, Note_on_c, 0, 83, 0
2, 261360, Note_on_c, 0, 74, 0
2, 261360, Note_on_c, 0, 71, 0
2, 261360, Note_on_c, 0, 67, 0
2, 261360, Note_on_c, 0, 91, 111
2, 261360, Note_on_c, 0, 71, 111
2, 261360, Note_on_c, 0, 76, 111
2, 261360, Note_on_c, 0, 79, 111
2, 261449, Note_on_c, 0, 79, 0
2, 261449, Note_on_c, 0, 91, 0
2, 261449, Note_on_c, 0, 71, 0
2, 261449, Note_on_c, 0, 76, 0
2, 261540, Note_on_c, 0, 88, 94
2, 261540, Note_on_c, 0, 71, 101
2, 261540, Note_on_c, 0, 76, 101
2, 261540, Note_on_c, 0, 79, 101
2, 261629, Note_on_c, 0, 79, 0
2, 261629, Note_on_c, 0, 88, 0
2, 261629, Note_on_c, 0, 71, 0
2, 261629, Note_on_c, 0, 76, 0
2, 261720, Note_on_c, 0, 90, 108
2, 261720, Note_on_c, 0, 70, 106
2, 261720, Note_on_c, 0, 76, 106
2, 261720, Note_on_c, 0, 78, 106
2, 261900, Note_on_c, 0, 90, 0
2, 261900, Note_on_c, 0, 88, 93
2, 262037, Note_on_c, 0, 70, 0
2, 262037, Note_on_c, 0, 78, 0
2, 262037, Note_on_c, 0, 76, 0
2, 262080, Note_on_c, 0, 88, 0
2, 262080, Note_on_c, 0, 90, 103
2, 262080, Note_on_c, 0, 70, 99
2, 262080, Note_on_c, 0, 76, 99
2, 262080, Note_on_c, 0, 78, 99
2, 262169, Note_on_c, 0, 78, 0
2, 262169, Note_on_c, 0, 90, 0
2, 262169, Note_on_c, 0, 70, 0
2, 262169, Note_on_c, 0, 76, 0
2, 262260, Note_on_c, 0, 82, 74
2, 262260, Note_on_c, 0, 70, 97
2, 262260, Note_on_c, 0, 76, 97
2, 262260, Note_on_c, 0, 78, 97
2, 262349, Note_on_c, 0, 78, 0
2, 262349, Note_on_c, 0, 82, 0
2, 262349, Note_on_c, 0, 70, 0
2, 262349, Note_on_c, 0, 76, 0
2, 262440, Note_on_c, 0, 90, 111
2, 262440, Note_on_c, 0, 70, 107
2, 262440, Note_on_c, 0, 76, 107
2, 262440, Note_on_c, 0, 78, 107
2, 262620, Note_on_c, 0, 90, 0
2, 262620, Note_on_c, 0, 88, 94
2, 262757, Note_on_c, 0, 70, 0
2, 262757, Note_on_c, 0, 78, 0
2, 262757, Note_on_c, 0, 76, 0
2, 262800, Note_on_c, 0, 88, 0
2, 262800, Note_on_c, 0, 91, 102
2, 262800, Note_on_c, 0, 71, 105
2, 262800, Note_on_c, 0, 76, 105
2, 262800, Note_on_c, 0, 79, 105
2, 262889, Note_on_c, 0, 79, 0
2, 262889, Note_on_c, 0, 91, 0
2, 262889, Note_on_c, 0, 71, 0
2, 262889, Note_on_c, 0, 76, 0
2, 262980, Note_on_c, 0, 83, 75
2, 262980, Note_on_c, 0, 71, 97
2, 262980, Note_on_c, 0, 76, 97
2, 262980, Note_on_c, 0, 79, 97
2, 263069, Note_on_c, 0, 79, 0
2, 263069, Note_on_c, 0, 83, 0
2, 263069, Note_on_c, 0, 71, 0
2, 263069, Note_on_c, 0, 76, 0
2, 263160, Note_on_c, 0, 88, 103
2, 263160, Note_on_c, 0, 69, 101
2, 263160, Note_on_c, 0, 72, 101
2, 263160, Note_on_c, 0, 76, 101
2, 263340, Note_on_c, 0, 88, 0
2, 263340, Note_on_c, 0, 84, 86
2, 263477, Note_on_c, 0, 69, 0
2, 263477, Note_on_c, 0, 76, 0
2, 263477, Note_on_c, 0, 72, 0
2, 263520, Note_on_c, 0, 84, 0
2, 263520, Note_on_c, 0, 90, 110
2, 263520, Note_on_c, 0, 69, 97
2, 263520, Note_on_c, 0, 72, 97
2, 263520, Note_on_c, 0, 76, 97
2, 263609, Note_on_c, 0, 76, 0
2, 263609, Note_on_c, 0, 90, 0
2, 263609, Note_on_c, 0, 69, 0
2, 263609, Note_on_c, 0, 72, 0
2, 263700, Note_on_c, 0, 81, 72
2, 263700, Note_on_c, 0, 69, 95
2, 263700, Note_on_c, 0, 72, 95
2, 263700, Note_on_c, 0, 76, 95
2, 263789, Note_on_c, 0, 76, 0
2, 263789, Note_on_c, 0, 81, 0
2, 263789, Note_on_c, 0, 69, 0
2, 263789, Note_on_c, 0, 72, 0
2, 263880, Note_on_c, 0, 86, 107
2, 263880, Note_on_c, 0, 66, 103
2, 263880, Note_on_c, 0, 69, 103
2, 263880, Note_on_c, 0, 74, 103
2, 264060, Note_on_c, 0, 86, 0
2, 264060, Note_on_c, 0, 81, 85
2, 264197, Note_on_c, 0, 66, 0
2, 264197, Note_on_c, 0, 74, 0
2, 264197, Note_on_c, 0, 69, 0
2, 264240, Note_on_c, 0, 81, 0
2, 264240, Note_on_c, 0, 90, 111
2, 264240, Note_on_c, 0, 66, 97
2, 264240, Note_on_c, 0, 69, 97
2, 264240, Note_on_c, 0, 74, 97
2, 264329, Note_on_c, 0, 74, 0
2, 264329, Note_on_c, 0, 90, 0
2, 264329, Note_on_c, 0, 66, 0
2, 264329, Note_on_c, 0, 69, 0
2, 264420, Note_on_c, 0, 86, 87
2, 264420, Note_on_c, 0, 66, 99
2, 264420, Note_on_c, 0, 69, 99
2, 264420, Note_on_c, 0, 74, 99
2, 264509, Note_on_c, 0, 74, 0
2, 264509, Note_on_c, 0, 86, 0
2, 264509, Note_on_c, 0, 66, 0
2, 264509, Note_on_c, 0, 69, 0
2, 264600, Note_on_c, 0, 88, 101
2, 264600, Note_on_c, 0, 69, 112
2, 264600, Note_on_c, 0, 72, 112
2, 264600, Note_on_c, 0, 76, 112
2, 264780, Note_on_c, 0, 88, 0
2, 264780, Note_on_c, 0, 84, 88
2, 264917, Note_on_c, 0, 69, 0
2, 264917, Note_on_c, 0, 76, 0
2, 264917, Note_on_c, 0, 72, 0
2, 264960, Note_on_c, 0, 84, 0
2, 264960, Note_on_c, 0, 90, 111
2, 264960, Note_on_c, 0, 69, 100
2, 264960, Note_on_c, 0, 72, 100
2, 264960, Note_on_c, 0, 76, 100
2, 265049, Note_on_c, 0, 76, 0
2, 265049, Note_on_c, 0, 90, 0
2, 265049, Note_on_c, 0, 69, 0
2, 265049, Note_on_c, 0, 72, 0
2, 265140, Note_on_c, 0, 81, 77
2, 265140, Note_on_c, 0, 69, 93
2, 265140, Note_on_c, 0, 72, 93
2, 265140, Note_on_c, 0, 76, 93
2, 265229, Note_on_c, 0, 76, 0
2, 265229, Note_on_c, 0, 81, 0
2, 265229, Note_on_c, 0, 69, 0
2, 265229, Note_on_c, 0, 72, 0
2, 265320, Note_on_c, 0, 88, 110
2, 265320, Note_on_c, 0, 69, 112
2, 265320, Note_on_c, 0, 72, 112
2, 265320, Note_on_c, 0, 76, 112
2, 265500, Note_on_c, 0, 88, 0
2, 265500, Note_on_c, 0, 84, 88
2, 265680, Note_on_c, 0, 84, 0
2, 265680, Note_on_c, 0, 90, 111
2, 265769, Note_on_c, 0, 90, 0
2, 265860, Note_on_c, 0, 69, 0
2, 265860, Note_on_c, 0, 72, 0
2, 265860, Note_on_c, 0, 76, 0
2, 265860, Note_on_c, 0, 81, 76
2, 265860, Note_on_c, 0, 69, 112
2, 265860, Note_on_c, 0, 72, 112
2, 265860, Note_on_c, 0, 76, 112
2, 265949, Note_on_c, 0, 81, 0
2, 265950, Note_on_c, 0, 69, 0
2, 265950, Note_on_c, 0, 72, 0
2, 265950, Note_on_c, 0, 76, 0
2, 265950, Note_on_c, 0, 69, 112
2, 265950, Note_on_c, 0, 72, 112
2, 265950, Note_on_c, 0, 76, 112
2, 266040, Note_on_c, 0, 76, 0
2, 266040, Note_on_c, 0, 72, 0
2, 266040, Note_on_c, 0, 69, 0
2, 266040, Note_on_c, 0, 88, 111
2, 266040, Note_on_c, 0, 69, 112
2, 266040, Note_on_c, 0, 72, 112
2, 266040, Note_on_c, 0, 76, 112
2, 266220, Note_on_c, 0, 88, 0
2, 266220, Note_on_c, 0, 84, 85
2, 266400, Note_on_c, 0, 84, 0
2, 266400, Note_on_c, 0, 76, 0
2, 266400, Note_on_c, 0, 72, 0
2, 266400, Note_on_c, 0, 69, 0
2, 266400, Note_on_c, 0, 90, 111
2, 266400, Note_on_c, 0, 69, 112
2, 266400, Note_on_c, 0, 72, 112
2, 266400, Note_on_c, 0, 76, 112
2, 266489, Note_on_c, 0, 90, 0
2, 266580, Note_on_c, 0, 81, 69
2, 266669, Note_on_c, 0, 81, 0
2, 266760, Note_on_c, 0, 76, 0
2, 266760, Note_on_c, 0, 72, 0
2, 266760, Note_on_c, 0, 69, 0
2, 266760, Note_on_c, 0, 88, 111
2, 266760, Note_on_c, 0, 69, 112
2, 266760, Note_on_c, 0, 72, 112
2, 266760, Note_on_c, 0, 76, 112
2, 266940, Note_on_c, 0, 88, 0
2, 266940, Note_on_c, 0, 84, 92
2, 267120, Note_on_c, 0, 84, 0
2, 267120, Note_on_c, 0, 76, 0
2, 267120, Note_on_c, 0, 72, 0
2, 267120, Note_on_c, 0, 69, 0
2, 267120, Note_on_c, 0, 91, 111
2, 267120, Note_on_c, 0, 71, 111
2, 267120, Note_on_c, 0, 76, 111
2, 267120, Note_on_c, 0, 79, 111
2, 267209, Note_on_c, 0, 79, 0
2, 267209, Note_on_c, 0, 91, 0
2, 267209, Note_on_c, 0, 71, 0
2, 267209, Note_on_c, 0, 76, 0
2, 267300, Note_on_c, 0, 88, 87
2, 267300, Note_on_c, 0, 71, 96
2, 267300, Note_on_c, 0, 76, 96
2, 267300, Note_on_c, 0, 79, 96
2, 267389, Note_on_c, 0, 79, 0
2, 267389, Note_on_c, 0, 88, 0
2, 267389, Note_on_c, 0, 71, 0
2, 267389, Note_on_c, 0, 76, 0
2, 267480, Note_on_c, 0, 90, 106
2, 267480, Note_on_c, 0, 70, 105
2, 267480, Note_on_c, 0, 76, 105
2, 267480, Note_on_c, 0, 78, 105
2, 267660, Note_on_c, 0, 90, 0
2, 267660, Note_on_c, 0, 88, 92
2, 267797, Note_on_c, 0, 70, 0
2, 267797, Note_on_c, 0, 78, 0
2, 267797, Note_on_c, 0, 76, 0
2, 267840, Note_on_c, 0, 88, 0
2, 267840, Note_on_c, 0, 90, 104
2, 267840, Note_on_c, 0, 70, 95
2, 267840, Note_on_c, 0, 76, 95
2, 267840, Note_on_c, 0, 78, 95
2, 267929, Note_on_c, 0, 78, 0
2, 267929, Note_on_c, 0, 90, 0
2, 267929, Note_on_c, 0, 70, 0
2, 267929, Note_on_c, 0, 76, 0
2, 268020, Note_on_c, 0, 82, 71
2, 268020, Note_on_c, 0, 70, 97
2, 268020, Note_on_c, 0, 76, 97
2, 268020, Note_on_c, 0, 78, 97
2, 268109, Note_on_c, 0, 78, 0
2, 268109, Note_on_c, 0, 82, 0
2, 268109, Note_on_c, 0, 70, 0
2, 268109, Note_on_c, 0, 76, 0
2, 268200, Note_on_c, 0, 90, 111
2, 268200, Note_on_c, 0, 70, 111
2, 268200, Note_on_c, 0, 76, 111
2, 268200, Note_on_c, 0, 78, 111
2, 268380, Note_on_c, 0, 90, 0
2, 268380, Note_on_c, 0, 88, 95
2, 268517, Note_on_c, 0, 70, 0
2, 268517, Note_on_c, 0, 78, 0
2, 268517, Note_on_c, 0, 76, 0
2, 268560, Note_on_c, 0, 88, 0
2, 268560, Note_on_c, 0, 91, 106
2, 268560, Note_on_c, 0, 71, 98
2, 268560, Note_on_c, 0, 76, 98
2, 268560, Note_on_c, 0, 79, 98
2, 268649, Note_on_c, 0, 79, 0
2, 268649, Note_on_c, 0, 91, 0
2, 268649, Note_on_c, 0, 71, 0
2, 268649, Note_on_c, 0, 76, 0
2, 268740, Note_on_c, 0, 83, 74
2, 268740, Note_on_c, 0, 71, 96
2, 268740, Note_on_c, 0, 76, 96
2, 268740, Note_on_c, 0, 79, 96
2, 268829, Note_on_c, 0, 79, 0
2, 268829, Note_on_c, 0, 83, 0
2, 268829, Note_on_c, 0, 71, 0
2, 268829, Note_on_c, 0, 76, 0
2, 268920, Note_on_c, 0, 88, 109
2, 268920, Note_on_c, 0, 69, 96
2, 268920, Note_on_c, 0, 72, 96
2, 268920, Note_on_c, 0, 76, 96
2, 269100, Note_on_c, 0, 88, 0
2, 269100, Note_on_c, 0, 84, 88
2, 269237, Note_on_c, 0, 69, 0
2, 269237, Note_on_c, 0, 76, 0
2, 269237, Note_on_c, 0, 72, 0
2, 269280, Note_on_c, 0, 84, 0
2, 269280, Note_on_c, 0, 90, 111
2, 269280, Note_on_c, 0, 69, 98
2, 269280, Note_on_c, 0, 72, 98
2, 269280, Note_on_c, 0, 76, 98
2, 269369, Note_on_c, 0, 76, 0
2, 269369, Note_on_c, 0, 90, 0
2, 269369, Note_on_c, 0, 69, 0
2, 269369, Note_on_c, 0, 72, 0
2, 269460, Note_on_c, 0, 81, 72
2, 269460, Note_on_c, 0, 69, 95
2, 269460, Note_on_c, 0, 72, 95
2, 269460, Note_on_c, 0, 76, 95
2, 269549, Note_on_c, 0, 76, 0
2, 269549, Note_on_c, 0, 81, 0
2, 269549, Note_on_c, 0, 69, 0
2, 269549, Note_on_c, 0, 72, 0
2, 269640, Note_on_c, 0, 86, 106
2, 269640, Note_on_c, 0, 66, 100
2, 269640, Note_on_c, 0, 69, 100
2, 269640, Note_on_c, 0, 74, 100
2, 269820, Note_on_c, 0, 86, 0
2, 269820, Note_on_c, 0, 81, 84
2, 269957, Note_on_c, 0, 66, 0
2, 269957, Note_on_c, 0, 74, 0
2, 269957, Note_on_c, 0, 69, 0
2, 270000, Note_on_c, 0, 81, 0
2, 270000, Note_on_c, 0, 90, 111
2, 270000, Note_on_c, 0, 66, 94
2, 270000, Note_on_c, 0, 69, 94
2, 270000, Note_on_c, 0, 74, 94
2, 270089, Note_on_c, 0, 74, 0
2, 270089, Note_on_c, 0, 90, 0
2, 270089, Note_on_c, 0, 66, 0
2, 270089, Note_on_c, 0, 69, 0
2, 270180, Note_on_c, 0, 86, 91
2, 270180, Note_on_c, 0, 66, 98
2, 270180, Note_on_c, 0, 69, 98
2, 270180, Note_on_c, 0, 74, 98
2, 270269, Note_on_c, 0, 74, 0
2, 270269, Note_on_c, 0, 86, 0
2, 270269, Note_on_c, 0, 66, 0
2, 270269, Note_on_c, 0, 69, 0
2, 270360, Note_on_c, 0, 91, 111
2, 270360, Note_on_c, 0, 67, 112
2, 270360, Note_on_c, 0, 72, 112
2, 270360, Note_on_c, 0, 76, 112
2, 270540, Note_on_c, 0, 91, 0
2, 270540, Note_on_c, 0, 88, 93
2, 270677, Note_on_c, 0, 67, 0
2, 270677, Note_on_c, 0, 76, 0
2, 270677, Note_on_c, 0, 72, 0
2, 270720, Note_on_c, 0, 88, 0
2, 270720, Note_on_c, 0, 93, 111
2, 270720, Note_on_c, 0, 67, 102
2, 270720, Note_on_c, 0, 72, 102
2, 270720, Note_on_c, 0, 76, 102
2, 270809, Note_on_c, 0, 76, 0
2, 270809, Note_on_c, 0, 93, 0
2, 270809, Note_on_c, 0, 67, 0
2, 270809, Note_on_c, 0, 72, 0
2, 270900, Note_on_c, 0, 84, 76
2, 270900, Note_on_c, 0, 67, 98
2, 270900, Note_on_c, 0, 72, 98
2, 270900, Note_on_c, 0, 76, 98
2, 270989, Note_on_c, 0, 76, 0
2, 270989, Note_on_c, 0, 84, 0
2, 270989, Note_on_c, 0, 67, 0
2, 270989, Note_on_c, 0, 72, 0
2, 271080, Note_on_c, 0, 91, 111
2, 271080, Note_on_c, 0, 72, 112
2, 271080, Note_on_c, 0, 76, 112
2, 271080, Note_on_c, 0, 79, 112
2, 271260, Note_on_c, 0, 91, 0
2, 271260, Note_on_c, 0, 88, 89
2, 271440, Note_on_c, 0, 88, 0
2, 271440, Note_on_c, 0, 93, 111
2, 271529, Note_on_c, 0, 93, 0
2, 271620, Note_on_c, 0, 72, 0
2, 271620, Note_on_c, 0, 76, 0
2, 271620, Note_on_c, 0, 79, 0
2, 271620, Note_on_c, 0, 84, 73
2, 271620, Note_on_c, 0, 72, 112
2, 271620, Note_on_c, 0, 76, 112
2, 271620, Note_on_c, 0, 79, 112
2, 271709, Note_on_c, 0, 84, 0
2, 271710, Note_on_c, 0, 72, 0
2, 271710, Note_on_c, 0, 76, 0
2, 271710, Note_on_c, 0, 79, 0
2, 271710, Note_on_c, 0, 72, 112
2, 271710, Note_on_c, 0, 76, 112
2, 271710, Note_on_c, 0, 79, 112
2, 271800, Note_on_c, 0, 79, 0
2, 271800, Note_on_c, 0, 76, 0
2, 271800, Note_on_c, 0, 72, 0
2, 271800, Note_on_c, 0, 91, 111
2, 271800, Note_on_c, 0, 72, 112
2, 271800, Note_on_c, 0, 76, 112
2, 271800, Note_on_c, 0, 79, 112
2, 271980, Note_on_c, 0, 91, 0
2, 271980, Note_on_c, 0, 88, 94
2, 272160, Note_on_c, 0, 88, 0
2, 272160, Note_on_c, 0, 79, 0
2, 272160, Note_on_c, 0, 76, 0
2, 272160, Note_on_c, 0, 72, 0
2, 272160, Note_on_c, 0, 93, 107
2, 272160, Note_on_c, 0, 72, 112
2, 272160, Note_on_c, 0, 76, 112
2, 272160, Note_on_c, 0, 79, 112
2, 272249, Note_on_c, 0, 93, 0
2, 272340, Note_on_c, 0, 84, 75
2, 272429, Note_on_c, 0, 84, 0
2, 272520, Note_on_c, 0, 79, 0
2, 272520, Note_on_c, 0, 76, 0
2, 272520, Note_on_c, 0, 72, 0
2, 272520, Note_on_c, 0, 91, 111
2, 272520, Note_on_c, 0, 72, 112
2, 272520, Note_on_c, 0, 76, 112
2, 272520, Note_on_c, 0, 79, 112
2, 272700, Note_on_c, 0, 91, 0
2, 272700, Note_on_c, 0, 88, 95
2, 272880, Note_on_c, 0, 88, 0
2, 272880, Note_on_c, 0, 79, 0
2, 272880, Note_on_c, 0, 76, 0
2, 272880, Note_on_c, 0, 72, 0
2, 272880, Note_on_c, 0, 79, 85
2, 272880, Note_on_c, 0, 83, 85
2, 272880, Note_on_c, 0, 86, 85
2, 272880, Note_on_c, 0, 62, 76
2, 272880, Note_on_c, 0, 67, 76
2, 272880, Note_on_c, 0, 71, 76
2, 272969, Note_on_c, 0, 71, 0
2, 272969, Note_on_c, 0, 83, 0
2, 272969, Note_on_c, 0, 86, 0
2, 272969, Note_on_c, 0, 79, 0
2, 272969, Note_on_c, 0, 67, 0
2, 272969, Note_on_c, 0, 62, 0
2, 273060, Note_on_c, 0, 74, 90
2, 273060, Note_on_c, 0, 79, 90
2, 273060, Note_on_c, 0, 83, 90
2, 273060, Note_on_c, 0, 62, 93
2, 273060, Note_on_c, 0, 67, 93
2, 273060, Note_on_c, 0, 71, 93
2, 273149, Note_on_c, 0, 71, 0
2, 273149, Note_on_c, 0, 79, 0
2, 273149, Note_on_c, 0, 83, 0
2, 273149, Note_on_c, 0, 74, 0
2, 273149, Note_on_c, 0, 67, 0
2, 273149, Note_on_c, 0, 62, 0
2, 273240, Note_on_c, 0, 78, 105
2, 273240, Note_on_c, 0, 81, 105
2, 273240, Note_on_c, 0, 86, 105
2, 273240, Note_on_c, 0, 62, 97
2, 273240, Note_on_c, 0, 66, 97
2, 273240, Note_on_c, 0, 69, 97
2, 273420, Note_on_c, 0, 86, 0
2, 273420, Note_on_c, 0, 78, 0
2, 273420, Note_on_c, 0, 81, 0
2, 273420, Note_on_c, 0, 74, 82
2, 273420, Note_on_c, 0, 78, 82
2, 273420, Note_on_c, 0, 81, 82
2, 273509, Note_on_c, 0, 81, 0
2, 273509, Note_on_c, 0, 74, 0
2, 273509, Note_on_c, 0, 78, 0
2, 273557, Note_on_c, 0, 69, 0
2, 273557, Note_on_c, 0, 62, 0
2, 273557, Note_on_c, 0, 66, 0
2, 273600, Note_on_c, 0, 79, 111
2, 273600, Note_on_c, 0, 83, 111
2, 273600, Note_on_c, 0, 86, 111
2, 273600, Note_on_c, 0, 62, 106
2, 273600, Note_on_c, 0, 67, 106
2, 273600, Note_on_c, 0, 71, 106
2, 273689, Note_on_c, 0, 71, 0
2, 273689, Note_on_c, 0, 62, 0
2, 273689, Note_on_c, 0, 67, 0
2, 273780, Note_on_c, 0, 79, 0
2, 273780, Note_on_c, 0, 86, 0
2, 273780, Note_on_c, 0, 83, 0
2, 273780, Note_on_c, 0, 74, 89
2, 273780, Note_on_c, 0, 79, 89
2, 273780, Note_on_c, 0, 83, 89
2, 273780, Note_on_c, 0, 62, 94
2, 273780, Note_on_c, 0, 67, 94
2, 273780, Note_on_c, 0, 71, 94
2, 273869, Note_on_c, 0, 71, 0
2, 273869, Note_on_c, 0, 79, 0
2, 273869, Note_on_c, 0, 83, 0
2, 273869, Note_on_c, 0, 74, 0
2, 273869, Note_on_c, 0, 67, 0
2, 273869, Note_on_c, 0, 62, 0
2, 273960, Note_on_c, 0, 79, 111
2, 273960, Note_on_c, 0, 83, 111
2, 273960, Note_on_c, 0, 88, 111
2, 273960, Note_on_c, 0, 59, 100
2, 273960, Note_on_c, 0, 64, 100
2, 273960, Note_on_c, 0, 67, 100
2, 274140, Note_on_c, 0, 88, 0
2, 274140, Note_on_c, 0, 79, 0
2, 274140, Note_on_c, 0, 83, 0
2, 274140, Note_on_c, 0, 76, 88
2, 274140, Note_on_c, 0, 79, 88
2, 274140, Note_on_c, 0, 83, 88
2, 274229, Note_on_c, 0, 83, 0
2, 274229, Note_on_c, 0, 76, 0
2, 274229, Note_on_c, 0, 79, 0
2, 274277, Note_on_c, 0, 67, 0
2, 274277, Note_on_c, 0, 59, 0
2, 274277, Note_on_c, 0, 64, 0
2, 274320, Note_on_c, 0, 78, 105
2, 274320, Note_on_c, 0, 83, 105
2, 274320, Note_on_c, 0, 87, 105
2, 274320, Note_on_c, 0, 59, 93
2, 274320, Note_on_c, 0, 63, 93
2, 274320, Note_on_c, 0, 66, 93
2, 274409, Note_on_c, 0, 66, 0
2, 274409, Note_on_c, 0, 59, 0
2, 274409, Note_on_c, 0, 63, 0
2, 274500, Note_on_c, 0, 78, 0
2, 274500, Note_on_c, 0, 87, 0
2, 274500, Note_on_c, 0, 83, 0
2, 274500, Note_on_c, 0, 75, 85
2, 274500, Note_on_c, 0, 78, 85
2, 274500, Note_on_c, 0, 83, 85
2, 274500, Note_on_c, 0, 59, 100
2, 274500, Note_on_c, 0, 63, 100
2, 274500, Note_on_c, 0, 66, 100
2, 274589, Note_on_c, 0, 66, 0
2, 274589, Note_on_c, 0, 78, 0
2, 274589, Note_on_c, 0, 83, 0
2, 274589, Note_on_c, 0, 75, 0
2, 274589, Note_on_c, 0, 63, 0
2, 274589, Note_on_c, 0, 59, 0
2, 274680, Note_on_c, 0, 79, 108
2, 274680, Note_on_c, 0, 82, 108
2, 274680, Note_on_c, 0, 87, 108
2, 274680, Note_on_c, 0, 58, 112
2, 274680, Note_on_c, 0, 63, 112
2, 274680, Note_on_c, 0, 67, 112
2, 274860, Note_on_c, 0, 87, 0
2, 274860, Note_on_c, 0, 79, 0
2, 274860, Note_on_c, 0, 82, 0
2, 274860, Note_on_c, 0, 75, 83
2, 274860, Note_on_c, 0, 79, 83
2, 274860, Note_on_c, 0, 82, 83
2, 274949, Note_on_c, 0, 82, 0
2, 274949, Note_on_c, 0, 75, 0
2, 274949, Note_on_c, 0, 79, 0
2, 274997, Note_on_c, 0, 67, 0
2, 274997, Note_on_c, 0, 58, 0
2, 274997, Note_on_c, 0, 63, 0
2, 275040, Note_on_c, 0, 75, 101
2, 275040, Note_on_c, 0, 79, 101
2, 275040, Note_on_c, 0, 84, 101
2, 275040, Note_on_c, 0, 58, 101
2, 275040, Note_on_c, 0, 63, 101
2, 275040, Note_on_c, 0, 67, 101
2, 275129, Note_on_c, 0, 67, 0
2, 275129, Note_on_c, 0, 58, 0
2, 275129, Note_on_c, 0, 63, 0
2, 275220, Note_on_c, 0, 75, 0
2, 275220, Note_on_c, 0, 84, 0
2, 275220, Note_on_c, 0, 79, 0
2, 275220, Note_on_c, 0, 70, 84
2, 275220, Note_on_c, 0, 75, 84
2, 275220, Note_on_c, 0, 79, 84
2, 275220, Note_on_c, 0, 58, 99
2, 275220, Note_on_c, 0, 63, 99
2, 275220, Note_on_c, 0, 67, 99
2, 275309, Note_on_c, 0, 67, 0
2, 275309, Note_on_c, 0, 75, 0
2, 275309, Note_on_c, 0, 79, 0
2, 275309, Note_on_c, 0, 70, 0
2, 275309, Note_on_c, 0, 63, 0
2, 275309, Note_on_c, 0, 58, 0
2, 275400, Note_on_c, 0, 79, 111
2, 275400, Note_on_c, 0, 82, 111
2, 275400, Note_on_c, 0, 87, 111
2, 275400, Note_on_c, 0, 58, 112
2, 275400, Note_on_c, 0, 63, 112
2, 275400, Note_on_c, 0, 67, 112
2, 275580, Note_on_c, 0, 87, 0
2, 275580, Note_on_c, 0, 79, 0
2, 275580, Note_on_c, 0, 82, 0
2, 275580, Note_on_c, 0, 75, 85
2, 275580, Note_on_c, 0, 79, 85
2, 275580, Note_on_c, 0, 82, 85
2, 275669, Note_on_c, 0, 82, 0
2, 275669, Note_on_c, 0, 75, 0
2, 275669, Note_on_c, 0, 79, 0
2, 275717, Note_on_c, 0, 67, 0
2, 275717, Note_on_c, 0, 58, 0
2, 275717, Note_on_c, 0, 63, 0
2, 275760, Note_on_c, 0, 75, 103
2, 275760, Note_on_c, 0, 79, 103
2, 275760, Note_on_c, 0, 84, 103
2, 275760, Note_on_c, 0, 58, 112
2, 275760, Note_on_c, 0, 63, 112
2, 275760, Note_on_c, 0, 67, 112
2, 275880, Note_on_c, 0, 67, 0
2, 275880, Note_on_c, 0, 58, 0
2, 275880, Note_on_c, 0, 63, 0
2, 275880, Note_on_c, 0, 58, 112
2, 275880, Note_on_c, 0, 63, 112
2, 275880, Note_on_c, 0, 67, 112
2, 275940, Note_on_c, 0, 75, 0
2, 275940, Note_on_c, 0, 79, 0
2, 275940, Note_on_c, 0, 84, 0
2, 275940, Note_on_c, 0, 70, 82
2, 275940, Note_on_c, 0, 75, 82
2, 275940, Note_on_c, 0, 79, 82
2, 275999, Note_on_c, 0, 58, 0
2, 275999, Note_on_c, 0, 67, 0
2, 275999, Note_on_c, 0, 63, 0
2, 275999, Note_on_c, 0, 58, 112
2, 275999, Note_on_c, 0, 63, 112
2, 275999, Note_on_c, 0, 67, 112
2, 276029, Note_on_c, 0, 70, 0
2, 276029, Note_on_c, 0, 79, 0
2, 276029, Note_on_c, 0, 75, 0
2, 276120, Note_on_c, 0, 58, 0
2, 276120, Note_on_c, 0, 63, 0
2, 276120, Note_on_c, 0, 67, 0
2, 276120, Note_on_c, 0, 79, 111
2, 276120, Note_on_c, 0, 82, 111
2, 276120, Note_on_c, 0, 87, 111
2, 276120, Note_on_c, 0, 58, 111
2, 276120, Note_on_c, 0, 63, 111
2, 276120, Note_on_c, 0, 67, 111
2, 276300, Note_on_c, 0, 87, 0
2, 276300, Note_on_c, 0, 79, 0
2, 276300, Note_on_c, 0, 82, 0
2, 276300, Note_on_c, 0, 75, 83
2, 276300, Note_on_c, 0, 79, 83
2, 276300, Note_on_c, 0, 82, 83
2, 276389, Note_on_c, 0, 82, 0
2, 276389, Note_on_c, 0, 75, 0
2, 276389, Note_on_c, 0, 79, 0
2, 276437, Note_on_c, 0, 67, 0
2, 276437, Note_on_c, 0, 58, 0
2, 276437, Note_on_c, 0, 63, 0
2, 276480, Note_on_c, 0, 75, 104
2, 276480, Note_on_c, 0, 79, 104
2, 276480, Note_on_c, 0, 84, 104
2, 276480, Note_on_c, 0, 58, 98
2, 276480, Note_on_c, 0, 63, 98
2, 276480, Note_on_c, 0, 67, 98
2, 276569, Note_on_c, 0, 67, 0
2, 276569, Note_on_c, 0, 58, 0
2, 276569, Note_on_c, 0, 63, 0
2, 276660, Note_on_c, 0, 75, 0
2, 276660, Note_on_c, 0, 84, 0
2, 276660, Note_on_c, 0, 79, 0
2, 276660, Note_on_c, 0, 70, 89
2, 276660, Note_on_c, 0, 75, 89
2, 276660, Note_on_c, 0, 79, 89
2, 276660, Note_on_c, 0, 58, 102
2, 276660, Note_on_c, 0, 63, 102
2, 276660, Note_on_c, 0, 67, 102
2, 276749, Note_on_c, 0, 67, 0
2, 276749, Note_on_c, 0, 75, 0
2, 276749, Note_on_c, 0, 79, 0
2, 276749, Note_on_c, 0, 70, 0
2, 276749, Note_on_c, 0, 63, 0
2, 276749, Note_on_c, 0, 58, 0
2, 276840, Note_on_c, 0, 79, 111
2, 276840, Note_on_c, 0, 82, 111
2, 276840, Note_on_c, 0, 87, 111
2, 276840, Note_on_c, 0, 58, 107
2, 276840, Note_on_c, 0, 63, 107
2, 276840, Note_on_c, 0, 67, 107
2, 277020, Note_on_c, 0, 87, 0
2, 277020, Note_on_c, 0, 79, 0
2, 277020, Note_on_c, 0, 82, 0
2, 277020, Note_on_c, 0, 75, 89
2, 277020, Note_on_c, 0, 79, 89
2, 277020, Note_on_c, 0, 82, 89
2, 277109, Note_on_c, 0, 82, 0
2, 277109, Note_on_c, 0, 75, 0
2, 277109, Note_on_c, 0, 79, 0
2, 277157, Note_on_c, 0, 67, 0
2, 277157, Note_on_c, 0, 58, 0
2, 277157, Note_on_c, 0, 63, 0
2, 277200, Note_on_c, 0, 82, 111
2, 277200, Note_on_c, 0, 86, 111
2, 277200, Note_on_c, 0, 89, 111
2, 277200, Note_on_c, 0, 65, 111
2, 277200, Note_on_c, 0, 70, 111
2, 277200, Note_on_c, 0, 74, 111
2, 277289, Note_on_c, 0, 74, 0
2, 277289, Note_on_c, 0, 65, 0
2, 277289, Note_on_c, 0, 70, 0
2, 277380, Note_on_c, 0, 82, 0
2, 277380, Note_on_c, 0, 89, 0
2, 277380, Note_on_c, 0, 86, 0
2, 277380, Note_on_c, 0, 77, 93
2, 277380, Note_on_c, 0, 82, 93
2, 277380, Note_on_c, 0, 86, 93
2, 277380, Note_on_c, 0, 65, 98
2, 277380, Note_on_c, 0, 70, 98
2, 277380, Note_on_c, 0, 74, 98
2, 277469, Note_on_c, 0, 74, 0
2, 277469, Note_on_c, 0, 82, 0
2, 277469, Note_on_c, 0, 86, 0
2, 277469, Note_on_c, 0, 77, 0
2, 277469, Note_on_c, 0, 70, 0
2, 277469, Note_on_c, 0, 65, 0
2, 277560, Note_on_c, 0, 81, 104
2, 277560, Note_on_c, 0, 84, 104
2, 277560, Note_on_c, 0, 89, 104
2, 277560, Note_on_c, 0, 65, 97
2, 277560, Note_on_c, 0, 69, 97
2, 277560, Note_on_c, 0, 72, 97
2, 277649, Note_on_c, 0, 89, 0
2, 277649, Note_on_c, 0, 81, 0
2, 277649, Note_on_c, 0, 84, 0
2, 277740, Note_on_c, 0, 77, 87
2, 277740, Note_on_c, 0, 81, 87
2, 277740, Note_on_c, 0, 84, 87
2, 277829, Note_on_c, 0, 84, 0
2, 277829, Note_on_c, 0, 77, 0
2, 277829, Note_on_c, 0, 81, 0
2, 277877, Note_on_c, 0, 72, 0
2, 277877, Note_on_c, 0, 65, 0
2, 277877, Note_on_c, 0, 69, 0
2, 277920, Note_on_c, 0, 82, 111
2, 277920, Note_on_c, 0, 86, 111
2, 277920, Note_on_c, 0, 89, 111
2, 277920, Note_on_c, 0, 65, 104
2, 277920, Note_on_c, 0, 70, 104
2, 277920, Note_on_c, 0, 74, 104
2, 278009, Note_on_c, 0, 74, 0
2, 278009, Note_on_c, 0, 86, 0
2, 278009, Note_on_c, 0, 89, 0
2, 278009, Note_on_c, 0, 82, 0
2, 278009, Note_on_c, 0, 70, 0
2, 278009, Note_on_c, 0, 65, 0
2, 278100, Note_on_c, 0, 77, 89
2, 278100, Note_on_c, 0, 82, 89
2, 278100, Note_on_c, 0, 86, 89
2, 278100, Note_on_c, 0, 65, 102
2, 278100, Note_on_c, 0, 70, 102
2, 278100, Note_on_c, 0, 74, 102
2, 278189, Note_on_c, 0, 74, 0
2, 278189, Note_on_c, 0, 82, 0
2, 278189, Note_on_c, 0, 86, 0
2, 278189, Note_on_c, 0, 77, 0
2, 278189, Note_on_c, 0, 70, 0
2, 278189, Note_on_c, 0, 65, 0
2, 278280, Note_on_c, 0, 82, 111
2, 278280, Note_on_c, 0, 86, 111
2, 278280, Note_on_c, 0, 91, 111
2, 278280, Note_on_c, 0, 62, 99
2, 278280, Note_on_c, 0, 67, 99
2, 278280, Note_on_c, 0, 70, 99
2, 278369, Note_on_c, 0, 91, 0
2, 278369, Note_on_c, 0, 82, 0
2, 278369, Note_on_c, 0, 86, 0
2, 278460, Note_on_c, 0, 79, 85
2, 278460, Note_on_c, 0, 82, 85
2, 278460, Note_on_c, 0, 86, 85
2, 278549, Note_on_c, 0, 86, 0
2, 278549, Note_on_c, 0, 79, 0
2, 278549, Note_on_c, 0, 82, 0
2, 278597, Note_on_c, 0, 70, 0
2, 278597, Note_on_c, 0, 62, 0
2, 278597, Note_on_c, 0, 67, 0
2, 278640, Note_on_c, 0, 81, 107
2, 278640, Note_on_c, 0, 86, 107
2, 278640, Note_on_c, 0, 90, 107
2, 278640, Note_on_c, 0, 62, 86
2, 278640, Note_on_c, 0, 66, 86
2, 278640, Note_on_c, 0, 69, 86
2, 278729, Note_on_c, 0, 69, 0
2, 278729, Note_on_c, 0, 86, 0
2, 278729, Note_on_c, 0, 90, 0
2, 278729, Note_on_c, 0, 81, 0
2, 278729, Note_on_c, 0, 66, 0
2, 278729, Note_on_c, 0, 62, 0
2, 278820, Note_on_c, 0, 78, 88
2, 278820, Note_on_c, 0, 81, 88
2, 278820, Note_on_c, 0, 86, 88
2, 278820, Note_on_c, 0, 62, 97
2, 278820, Note_on_c, 0, 66, 97
2, 278820, Note_on_c, 0, 69, 97
2, 278909, Note_on_c, 0, 69, 0
2, 278909, Note_on_c, 0, 81, 0
2, 278909, Note_on_c, 0, 86, 0
2, 278909, Note_on_c, 0, 78, 0
2, 278909, Note_on_c, 0, 66, 0
2, 278909, Note_on_c, 0, 62, 0
2, 279000, Note_on_c, 0, 82, 109
2, 279000, Note_on_c, 0, 85, 109
2, 279000, Note_on_c, 0, 90, 109
2, 279000, Note_on_c, 0, 61, 112
2, 279000, Note_on_c, 0, 66, 112
2, 279000, Note_on_c, 0, 70, 112
2, 279180, Note_on_c, 0, 90, 0
2, 279180, Note_on_c, 0, 82, 0
2, 279180, Note_on_c, 0, 85, 0
2, 279180, Note_on_c, 0, 78, 84
2, 279180, Note_on_c, 0, 82, 84
2, 279180, Note_on_c, 0, 85, 84
2, 279269, Note_on_c, 0, 85, 0
2, 279269, Note_on_c, 0, 78, 0
2, 279269, Note_on_c, 0, 82, 0
2, 279317, Note_on_c, 0, 70, 0
2, 279317, Note_on_c, 0, 61, 0
2, 279317, Note_on_c, 0, 66, 0
2, 279360, Note_on_c, 0, 78, 104
2, 279360, Note_on_c, 0, 82, 104
2, 279360, Note_on_c, 0, 87, 104
2, 279360, Note_on_c, 0, 61, 100
2, 279360, Note_on_c, 0, 66, 100
2, 279360, Note_on_c, 0, 70, 100
2, 279449, Note_on_c, 0, 70, 0
2, 279449, Note_on_c, 0, 61, 0
2, 279449, Note_on_c, 0, 66, 0
2, 279540, Note_on_c, 0, 78, 0
2, 279540, Note_on_c, 0, 87, 0
2, 279540, Note_on_c, 0, 82, 0
2, 279540, Note_on_c, 0, 73, 84
2, 279540, Note_on_c, 0, 78, 84
2, 279540, Note_on_c, 0, 82, 84
2, 279540, Note_on_c, 0, 61, 101
2, 279540, Note_on_c, 0, 66, 101
2, 279540, Note_on_c, 0, 70, 101
2, 279629, Note_on_c, 0, 70, 0
2, 279629, Note_on_c, 0, 78, 0
2, 279629, Note_on_c, 0, 82, 0
2, 279629, Note_on_c, 0, 73, 0
2, 279629, Note_on_c, 0, 66, 0
2, 279629, Note_on_c, 0, 61, 0
2, 279720, Note_on_c, 0, 82, 111
2, 279720, Note_on_c, 0, 85, 111
2, 279720, Note_on_c, 0, 90, 111
2, 279720, Note_on_c, 0, 61, 109
2, 279720, Note_on_c, 0, 66, 109
2, 279720, Note_on_c, 0, 70, 109
2, 279900, Note_on_c, 0, 90, 0
2, 279900, Note_on_c, 0, 82, 0
2, 279900, Note_on_c, 0, 85, 0
2, 279900, Note_on_c, 0, 78, 87
2, 279900, Note_on_c, 0, 82, 87
2, 279900, Note_on_c, 0, 85, 87
2, 279989, Note_on_c, 0, 85, 0
2, 279989, Note_on_c, 0, 78, 0
2, 279989, Note_on_c, 0, 82, 0
2, 280037, Note_on_c, 0, 70, 0
2, 280037, Note_on_c, 0, 61, 0
2, 280037, Note_on_c, 0, 66, 0
2, 280080, Note_on_c, 0, 78, 102
2, 280080, Note_on_c, 0, 82, 102
2, 280080, Note_on_c, 0, 87, 102
2, 280080, Note_on_c, 0, 61, 112
2, 280080, Note_on_c, 0, 66, 112
2, 280080, Note_on_c, 0, 70, 112
2, 280200, Note_on_c, 0, 70, 0
2, 280200, Note_on_c, 0, 61, 0
2, 280200, Note_on_c, 0, 66, 0
2, 280200, Note_on_c, 0, 61, 112
2, 280200, Note_on_c, 0, 66, 112
2, 280200, Note_on_c, 0, 70, 112
2, 280260, Note_on_c, 0, 78, 0
2, 280260, Note_on_c, 0, 82, 0
2, 280260, Note_on_c, 0, 87, 0
2, 280260, Note_on_c, 0, 73, 81
2, 280260, Note_on_c, 0, 78, 81
2, 280260, Note_on_c, 0, 82, 81
2, 280319, Note_on_c, 0, 61, 0
2, 280319, Note_on_c, 0, 70, 0
2, 280319, Note_on_c, 0, 66, 0
2, 280319, Note_on_c, 0, 61, 112
2, 280319, Note_on_c, 0, 66, 112
2, 280319, Note_on_c, 0, 70, 112
2, 280349, Note_on_c, 0, 73, 0
2, 280349, Note_on_c, 0, 82, 0
2, 280349, Note_on_c, 0, 78, 0
2, 280440, Note_on_c, 0, 61, 0
2, 280440, Note_on_c, 0, 66, 0
2, 280440, Note_on_c, 0, 70, 0
2, 280440, Note_on_c, 0, 82, 111
2, 280440, Note_on_c, 0, 85, 111
2, 280440, Note_on_c, 0, 90, 111
2, 280440, Note_on_c, 0, 61, 110
2, 280440, Note_on_c, 0, 66, 110
2, 280440, Note_on_c, 0, 70, 110
2, 280620, Note_on_c, 0, 90, 0
2, 280620, Note_on_c, 0, 82, 0
2, 280620, Note_on_c, 0, 85, 0
2, 280620, Note_on_c, 0, 78, 87
2, 280620, Note_on_c, 0, 82, 87
2, 280620, Note_on_c, 0, 85, 87
2, 280709, Note_on_c, 0, 85, 0
2, 280709, Note_on_c, 0, 78, 0
2, 280709, Note_on_c, 0, 82, 0
2, 280757, Note_on_c, 0, 70, 0
2, 280757, Note_on_c, 0, 61, 0
2, 280757, Note_on_c, 0, 66, 0
2, 280800, Note_on_c, 0, 78, 97
2, 280800, Note_on_c, 0, 82, 97
2, 280800, Note_on_c, 0, 87, 97
2, 280800, Note_on_c, 0, 61, 97
2, 280800, Note_on_c, 0, 66, 97
2, 280800, Note_on_c, 0, 70, 97
2, 280889, Note_on_c, 0, 70, 0
2, 280889, Note_on_c, 0, 61, 0
2, 280889, Note_on_c, 0, 66, 0
2, 280980, Note_on_c, 0, 78, 0
2, 280980, Note_on_c, 0, 87, 0
2, 280980, Note_on_c, 0, 82, 0
2, 280980, Note_on_c, 0, 73, 86
2, 280980, Note_on_c, 0, 78, 86
2, 280980, Note_on_c, 0, 82, 86
2, 280980, Note_on_c, 0, 61, 95
2, 280980, Note_on_c, 0, 66, 95
2, 280980, Note_on_c, 0, 70, 95
2, 281069, Note_on_c, 0, 70, 0
2, 281069, Note_on_c, 0, 78, 0
2, 281069, Note_on_c, 0, 82, 0
2, 281069, Note_on_c, 0, 73, 0
2, 281069, Note_on_c, 0, 66, 0
2, 281069, Note_on_c, 0, 61, 0
2, 281160, Note_on_c, 0, 82, 111
2, 281160, Note_on_c, 0, 85, 111
2, 281160, Note_on_c, 0, 90, 111
2, 281160, Note_on_c, 0, 61, 111
2, 281160, Note_on_c, 0, 66, 111
2, 281160, Note_on_c, 0, 70, 111
2, 281340, Note_on_c, 0, 90, 0
2, 281340, Note_on_c, 0, 82, 0
2, 281340, Note_on_c, 0, 85, 0
2, 281340, Note_on_c, 0, 78, 78
2, 281340, Note_on_c, 0, 82, 78
2, 281340, Note_on_c, 0, 85, 78
2, 281429, Note_on_c, 0, 85, 0
2, 281429, Note_on_c, 0, 78, 0
2, 281429, Note_on_c, 0, 82, 0
2, 281477, Note_on_c, 0, 70, 0
2, 281477, Note_on_c, 0, 61, 0
2, 281477, Note_on_c, 0, 66, 0
2, 281520, Note_on_c, 0, 85, 111
2, 281520, Note_on_c, 0, 89, 111
2, 281520, Note_on_c, 0, 92, 111
2, 281520, Note_on_c, 0, 68, 111
2, 281520, Note_on_c, 0, 73, 111
2, 281520, Note_on_c, 0, 77, 111
2, 281609, Note_on_c, 0, 77, 0
2, 281609, Note_on_c, 0, 68, 0
2, 281609, Note_on_c, 0, 73, 0
2, 281700, Note_on_c, 0, 85, 0
2, 281700, Note_on_c, 0, 92, 0
2, 281700, Note_on_c, 0, 89, 0
2, 281700, Note_on_c, 0, 80, 90
2, 281700, Note_on_c, 0, 85, 90
2, 281700, Note_on_c, 0, 89, 90
2, 281700, Note_on_c, 0, 68, 96
2, 281700, Note_on_c, 0, 73, 96
2, 281700, Note_on_c, 0, 77, 96
2, 281789, Note_on_c, 0, 77, 0
2, 281789, Note_on_c, 0, 85, 0
2, 281789, Note_on_c, 0, 89, 0
2, 281789, Note_on_c, 0, 80, 0
2, 281789, Note_on_c, 0, 73, 0
2, 281789, Note_on_c, 0, 68, 0
2, 281880, Note_on_c, 0, 84, 108
2, 281880, Note_on_c, 0, 87, 108
2, 281880, Note_on_c, 0, 92, 108
2, 281880, Note_on_c, 0, 68, 105
2, 281880, Note_on_c, 0, 72, 105
2, 281880, Note_on_c, 0, 75, 105
2, 281969, Note_on_c, 0, 92, 0
2, 281969, Note_on_c, 0, 84, 0
2, 281969, Note_on_c, 0, 87, 0
2, 282060, Note_on_c, 0, 80, 82
2, 282060, Note_on_c, 0, 84, 82
2, 282060, Note_on_c, 0, 87, 82
2, 282149, Note_on_c, 0, 87, 0
2, 282149, Note_on_c, 0, 80, 0
2, 282149, Note_on_c, 0, 84, 0
2, 282197, Note_on_c, 0, 75, 0
2, 282197, Note_on_c, 0, 68, 0
2, 282197, Note_on_c, 0, 72, 0
2, 282240, Note_on_c, 0, 85, 111
2, 282240, Note_on_c, 0, 89, 111
2, 282240, Note_on_c, 0, 92, 111
2, 282240, Note_on_c, 0, 68, 101
2, 282240, Note_on_c, 0, 73, 101
2, 282240, Note_on_c, 0, 77, 101
2, 282329, Note_on_c, 0, 77, 0
2, 282329, Note_on_c, 0, 89, 0
2, 282329, Note_on_c, 0, 92, 0
2, 282329, Note_on_c, 0, 85, 0
2, 282329, Note_on_c, 0, 73, 0
2, 282329, Note_on_c, 0, 68, 0
2, 282420, Note_on_c, 0, 80, 93
2, 282420, Note_on_c, 0, 85, 93
2, 282420, Note_on_c, 0, 89, 93
2, 282420, Note_on_c, 0, 68, 103
2, 282420, Note_on_c, 0, 73, 103
2, 282420, Note_on_c, 0, 77, 103
2, 282509, Note_on_c, 0, 77, 0
2, 282509, Note_on_c, 0, 85, 0
2, 282509, Note_on_c, 0, 89, 0
2, 282509, Note_on_c, 0, 80, 0
2, 282509, Note_on_c, 0, 73, 0
2, 282509, Note_on_c, 0, 68, 0
2, 282600, Note_on_c, 0, 85, 108
2, 282600, Note_on_c, 0, 89, 108
2, 282600, Note_on_c, 0, 94, 108
2, 282600, Note_on_c, 0, 65, 92
2, 282600, Note_on_c, 0, 70, 92
2, 282600, Note_on_c, 0, 73, 92
2, 282689, Note_on_c, 0, 94, 0
2, 282689, Note_on_c, 0, 85, 0
2, 282689, Note_on_c, 0, 89, 0
2, 282780, Note_on_c, 0, 82, 87
2, 282780, Note_on_c, 0, 85, 87
2, 282780, Note_on_c, 0, 89, 87
2, 282869, Note_on_c, 0, 89, 0
2, 282869, Note_on_c, 0, 82, 0
2, 282869, Note_on_c, 0, 85, 0
2, 282917, Note_on_c, 0, 73, 0
2, 282917, Note_on_c, 0, 65, 0
2, 282917, Note_on_c, 0, 70, 0
2, 282960, Note_on_c, 0, 84, 109
2, 282960, Note_on_c, 0, 89, 109
2, 282960, Note_on_c, 0, 93, 109
2, 282960, Note_on_c, 0, 65, 89
2, 282960, Note_on_c, 0, 69, 89
2, 282960, Note_on_c, 0, 72, 89
2, 283049, Note_on_c, 0, 72, 0
2, 283049, Note_on_c, 0, 89, 0
2, 283049, Note_on_c, 0, 93, 0
2, 283049, Note_on_c, 0, 84, 0
2, 283049, Note_on_c, 0, 69, 0
2, 283049, Note_on_c, 0, 65, 0
2, 283140, Note_on_c, 0, 81, 85
2, 283140, Note_on_c, 0, 84, 85
2, 283140, Note_on_c, 0, 89, 85
2, 283140, Note_on_c, 0, 65, 98
2, 283140, Note_on_c, 0, 69, 98
2, 283140, Note_on_c, 0, 72, 98
2, 283229, Note_on_c, 0, 72, 0
2, 283229, Note_on_c, 0, 84, 0
2, 283229, Note_on_c, 0, 89, 0
2, 283229, Note_on_c, 0, 81, 0
2, 283229, Note_on_c, 0, 69, 0
2, 283229, Note_on_c, 0, 65, 0
2, 283320, Note_on_c, 0, 85, 111
2, 283320, Note_on_c, 0, 89, 111
2, 283320, Note_on_c, 0, 94, 111
2, 283320, Note_on_c, 0, 65, 112
2, 283320, Note_on_c, 0, 70, 112
2, 283320, Note_on_c, 0, 73, 112
2, 283500, Note_on_c, 0, 94, 0
2, 283500, Note_on_c, 0, 85, 0
2, 283500, Note_on_c, 0, 89, 0
2, 283500, Note_on_c, 0, 82, 86
2, 283500, Note_on_c, 0, 85, 86
2, 283500, Note_on_c, 0, 89, 86
2, 283589, Note_on_c, 0, 89, 0
2, 283589, Note_on_c, 0, 82, 0
2, 283589, Note_on_c, 0, 85, 0
2, 283637, Note_on_c, 0, 73, 0
2, 283637, Note_on_c, 0, 65, 0
2, 283637, Note_on_c, 0, 70, 0
2, 283680, Note_on_c, 0, 82, 101
2, 283680, Note_on_c, 0, 85, 101
2, 283680, Note_on_c, 0, 89, 101
2, 283680, Note_on_c, 0, 65, 102
2, 283680, Note_on_c, 0, 70, 102
2, 283680, Note_on_c, 0, 73, 102
2, 283769, Note_on_c, 0, 73, 0
2, 283769, Note_on_c, 0, 65, 0
2, 283769, Note_on_c, 0, 70, 0
2, 283860, Note_on_c, 0, 82, 0
2, 283860, Note_on_c, 0, 89, 0
2, 283860, Note_on_c, 0, 85, 0
2, 283860, Note_on_c, 0, 77, 85
2, 283860, Note_on_c, 0, 82, 85
2, 283860, Note_on_c, 0, 85, 85
2, 283860, Note_on_c, 0, 65, 98
2, 283860, Note_on_c, 0, 70, 98
2, 283860, Note_on_c, 0, 73, 98
2, 283949, Note_on_c, 0, 73, 0
2, 283949, Note_on_c, 0, 82, 0
2, 283949, Note_on_c, 0, 85, 0
2, 283949, Note_on_c, 0, 77, 0
2, 283949, Note_on_c, 0, 70, 0
2, 283949, Note_on_c, 0, 65, 0
2, 284040, Note_on_c, 0, 85, 111
2, 284040, Note_on_c, 0, 89, 111
2, 284040, Note_on_c, 0, 94, 111
2, 284040, Note_on_c, 0, 65, 110
2, 284040, Note_on_c, 0, 70, 110
2, 284040, Note_on_c, 0, 73, 110
2, 284220, Note_on_c, 0, 94, 0
2, 284220, Note_on_c, 0, 85, 0
2, 284220, Note_on_c, 0, 89, 0
2, 284220, Note_on_c, 0, 82, 86
2, 284220, Note_on_c, 0, 85, 86
2, 284220, Note_on_c, 0, 89, 86
2, 284309, Note_on_c, 0, 89, 0
2, 284309, Note_on_c, 0, 82, 0
2, 284309, Note_on_c, 0, 85, 0
2, 284357, Note_on_c, 0, 73, 0
2, 284357, Note_on_c, 0, 65, 0
2, 284357, Note_on_c, 0, 70, 0
2, 284400, Note_on_c, 0, 85, 105
2, 284400, Note_on_c, 0, 89, 105
2, 284400, Note_on_c, 0, 92, 105
2, 284400, Note_on_c, 0, 68, 111
2, 284400, Note_on_c, 0, 73, 111
2, 284400, Note_on_c, 0, 77, 111
2, 284489, Note_on_c, 0, 77, 0
2, 284489, Note_on_c, 0, 89, 0
2, 284489, Note_on_c, 0, 92, 0
2, 284489, Note_on_c, 0, 85, 0
2, 284489, Note_on_c, 0, 73, 0
2, 284489, Note_on_c, 0, 68, 0
2, 284580, Note_on_c, 0, 80, 88
2, 284580, Note_on_c, 0, 85, 88
2, 284580, Note_on_c, 0, 89, 88
2, 284580, Note_on_c, 0, 68, 102
2, 284580, Note_on_c, 0, 73, 102
2, 284580, Note_on_c, 0, 77, 102
2, 284669, Note_on_c, 0, 77, 0
2, 284669, Note_on_c, 0, 85, 0
2, 284669, Note_on_c, 0, 89, 0
2, 284669, Note_on_c, 0, 80, 0
2, 284669, Note_on_c, 0, 73, 0
2, 284669, Note_on_c, 0, 68, 0
2, 284760, Note_on_c, 0, 84, 105
2, 284760, Note_on_c, 0, 87, 105
2, 284760, Note_on_c, 0, 92, 105
2, 284760, Note_on_c, 0, 68, 103
2, 284760, Note_on_c, 0, 72, 103
2, 284760, Note_on_c, 0, 75, 103
2, 284940, Note_on_c, 0, 92, 0
2, 284940, Note_on_c, 0, 84, 0
2, 284940, Note_on_c, 0, 87, 0
2, 284940, Note_on_c, 0, 80, 80
2, 284940, Note_on_c, 0, 84, 80
2, 284940, Note_on_c, 0, 87, 80
2, 285029, Note_on_c, 0, 87, 0
2, 285029, Note_on_c, 0, 80, 0
2, 285029, Note_on_c, 0, 84, 0
2, 285077, Note_on_c, 0, 75, 0
2, 285077, Note_on_c, 0, 68, 0
2, 285077, Note_on_c, 0, 72, 0
2, 285120, Note_on_c, 0, 85, 110
2, 285120, Note_on_c, 0, 89, 110
2, 285120, Note_on_c, 0, 92, 110
2, 285120, Note_on_c, 0, 68, 108
2, 285120, Note_on_c, 0, 73, 108
2, 285120, Note_on_c, 0, 77, 108
2, 285209, Note_on_c, 0, 77, 0
2, 285209, Note_on_c, 0, 68, 0
2, 285209, Note_on_c, 0, 73, 0
2, 285300, Note_on_c, 0, 85, 0
2, 285300, Note_on_c, 0, 92, 0
2, 285300, Note_on_c, 0, 89, 0
2, 285300, Note_on_c, 0, 80, 89
2, 285300, Note_on_c, 0, 85, 89
2, 285300, Note_on_c, 0, 89, 89
2, 285300, Note_on_c, 0, 68, 99
2, 285300, Note_on_c, 0, 73, 99
2, 285300, Note_on_c, 0, 77, 99
2, 285389, Note_on_c, 0, 77, 0
2, 285389, Note_on_c, 0, 85, 0
2, 285389, Note_on_c, 0, 89, 0
2, 285389, Note_on_c, 0, 80, 0
2, 285389, Note_on_c, 0, 73, 0
2, 285389, Note_on_c, 0, 68, 0
2, 285480, Note_on_c, 0, 85, 111
2, 285480, Note_on_c, 0, 89, 111
2, 285480, Note_on_c, 0, 94, 111
2, 285480, Note_on_c, 0, 65, 97
2, 285480, Note_on_c, 0, 70, 97
2, 285480, Note_on_c, 0, 73, 97
2, 285660, Note_on_c, 0, 94, 0
2, 285660, Note_on_c, 0, 85, 0
2, 285660, Note_on_c, 0, 89, 0
2, 285660, Note_on_c, 0, 82, 88
2, 285660, Note_on_c, 0, 85, 88
2, 285660, Note_on_c, 0, 89, 88
2, 285749, Note_on_c, 0, 89, 0
2, 285749, Note_on_c, 0, 82, 0
2, 285749, Note_on_c, 0, 85, 0
2, 285797, Note_on_c, 0, 73, 0
2, 285797, Note_on_c, 0, 65, 0
2, 285797, Note_on_c, 0, 70, 0
2, 285840, Note_on_c, 0, 84, 105
2, 285840, Note_on_c, 0, 89, 105
2, 285840, Note_on_c, 0, 93, 105
2, 285840, Note_on_c, 0, 65, 93
2, 285840, Note_on_c, 0, 69, 93
2, 285840, Note_on_c, 0, 72, 93
2, 285929, Note_on_c, 0, 72, 0
2, 285929, Note_on_c, 0, 65, 0
2, 285929, Note_on_c, 0, 69, 0
2, 286020, Note_on_c, 0, 84, 0
2, 286020, Note_on_c, 0, 93, 0
2, 286020, Note_on_c, 0, 89, 0
2, 286020, Note_on_c, 0, 81, 86
2, 286020, Note_on_c, 0, 84, 86
2, 286020, Note_on_c, 0, 89, 86
2, 286020, Note_on_c, 0, 65, 96
2, 286020, Note_on_c, 0, 69, 96
2, 286020, Note_on_c, 0, 72, 96
2, 286109, Note_on_c, 0, 72, 0
2, 286109, Note_on_c, 0, 84, 0
2, 286109, Note_on_c, 0, 89, 0
2, 286109, Note_on_c, 0, 81, 0
2, 286109, Note_on_c, 0, 69, 0
2, 286109, Note_on_c, 0, 65, 0
2, 286200, Note_on_c, 0, 81, 110
2, 286200, Note_on_c, 0, 85, 110
2, 286200, Note_on_c, 0, 88, 110
2, 286200, Note_on_c, 0, 93, 110
2, 286200, Note_on_c, 0, 64, 112
2, 286200, Note_on_c, 0, 69, 112
2, 286200, Note_on_c, 0, 73, 112
2, 286380, Note_on_c, 0, 93, 0
2, 286380, Note_on_c, 0, 88, 0
2, 286380, Note_on_c, 0, 81, 0
2, 286380, Note_on_c, 0, 85, 0
2, 286380, Note_on_c, 0, 81, 82
2, 286380, Note_on_c, 0, 85, 82
2, 286380, Note_on_c, 0, 88, 82
2, 286469, Note_on_c, 0, 88, 0
2, 286469, Note_on_c, 0, 81, 0
2, 286469, Note_on_c, 0, 85, 0
2, 286517, Note_on_c, 0, 69, 0
2, 286517, Note_on_c, 0, 73, 0
2, 286517, Note_on_c, 0, 64, 0
2, 286560, Note_on_c, 0, 81, 101
2, 286560, Note_on_c, 0, 85, 101
2, 286560, Note_on_c, 0, 90, 101
2, 286560, Note_on_c, 0, 64, 98
2, 286560, Note_on_c, 0, 69, 98
2, 286560, Note_on_c, 0, 73, 98
2, 286649, Note_on_c, 0, 73, 0
2, 286649, Note_on_c, 0, 85, 0
2, 286649, Note_on_c, 0, 90, 0
2, 286649, Note_on_c, 0, 81, 0
2, 286649, Note_on_c, 0, 69, 0
2, 286649, Note_on_c, 0, 64, 0
2, 286740, Note_on_c, 0, 76, 78
2, 286740, Note_on_c, 0, 81, 78
2, 286740, Note_on_c, 0, 85, 78
2, 286740, Note_on_c, 0, 64, 95
2, 286740, Note_on_c, 0, 69, 95
2, 286740, Note_on_c, 0, 73, 95
2, 286829, Note_on_c, 0, 73, 0
2, 286829, Note_on_c, 0, 81, 0
2, 286829, Note_on_c, 0, 85, 0
2, 286829, Note_on_c, 0, 76, 0
2, 286829, Note_on_c, 0, 69, 0
2, 286829, Note_on_c, 0, 64, 0
2, 286920, Note_on_c, 0, 81, 111
2, 286920, Note_on_c, 0, 85, 111
2, 286920, Note_on_c, 0, 88, 111
2, 286920, Note_on_c, 0, 93, 111
2, 286920, Note_on_c, 0, 64, 108
2, 286920, Note_on_c, 0, 69, 108
2, 286920, Note_on_c, 0, 73, 108
2, 287100, Note_on_c, 0, 93, 0
2, 287100, Note_on_c, 0, 88, 0
2, 287100, Note_on_c, 0, 81, 0
2, 287100, Note_on_c, 0, 85, 0
2, 287100, Note_on_c, 0, 81, 83
2, 287100, Note_on_c, 0, 85, 83
2, 287100, Note_on_c, 0, 88, 83
2, 287189, Note_on_c, 0, 88, 0
2, 287189, Note_on_c, 0, 81, 0
2, 287189, Note_on_c, 0, 85, 0
2, 287237, Note_on_c, 0, 69, 0
2, 287237, Note_on_c, 0, 73, 0
2, 287237, Note_on_c, 0, 64, 0
2, 287280, Note_on_c, 0, 81, 103
2, 287280, Note_on_c, 0, 85, 103
2, 287280, Note_on_c, 0, 90, 103
2, 287280, Note_on_c, 0, 64, 112
2, 287280, Note_on_c, 0, 69, 112
2, 287280, Note_on_c, 0, 73, 112
2, 287369, Note_on_c, 0, 90, 0
2, 287369, Note_on_c, 0, 81, 0
2, 287369, Note_on_c, 0, 85, 0
2, 287400, Note_on_c, 0, 64, 0
2, 287400, Note_on_c, 0, 69, 0
2, 287400, Note_on_c, 0, 73, 0
2, 287400, Note_on_c, 0, 64, 112
2, 287400, Note_on_c, 0, 69, 112
2, 287400, Note_on_c, 0, 73, 112
2, 287460, Note_on_c, 0, 76, 85
2, 287460, Note_on_c, 0, 81, 85
2, 287460, Note_on_c, 0, 85, 85
2, 287519, Note_on_c, 0, 73, 0
2, 287519, Note_on_c, 0, 64, 0
2, 287519, Note_on_c, 0, 69, 0
2, 287519, Note_on_c, 0, 64, 112
2, 287519, Note_on_c, 0, 69, 112
2, 287519, Note_on_c, 0, 73, 112
2, 287549, Note_on_c, 0, 76, 0
2, 287549, Note_on_c, 0, 85, 0
2, 287549, Note_on_c, 0, 81, 0
2, 287640, Note_on_c, 0, 64, 0
2, 287640, Note_on_c, 0, 69, 0
2, 287640, Note_on_c, 0, 73, 0
2, 287640, Note_on_c, 0, 81, 111
2, 287640, Note_on_c, 0, 85, 111
2, 287640, Note_on_c, 0, 88, 111
2, 287640, Note_on_c, 0, 93, 111
2, 287640, Note_on_c, 0, 64, 111
2, 287640, Note_on_c, 0, 69, 111
2, 287640, Note_on_c, 0, 73, 111
2, 287820, Note_on_c, 0, 93, 0
2, 287820, Note_on_c, 0, 88, 0
2, 287820, Note_on_c, 0, 81, 0
2, 287820, Note_on_c, 0, 85, 0
2, 287820, Note_on_c, 0, 81, 91
2, 287820, Note_on_c, 0, 85, 91
2, 287820, Note_on_c, 0, 88, 91
2, 287909, Note_on_c, 0, 88, 0
2, 287909, Note_on_c, 0, 81, 0
2, 287909, Note_on_c, 0, 85, 0
2, 287957, Note_on_c, 0, 69, 0
2, 287957, Note_on_c, 0, 73, 0
2, 287957, Note_on_c, 0, 64, 0
2, 288000, Note_on_c, 0, 81, 99
2, 288000, Note_on_c, 0, 85, 99
2, 288000, Note_on_c, 0, 90, 99
2, 288000, Note_on_c, 0, 64, 98
2, 288000, Note_on_c, 0, 69, 98
2, 288000, Note_on_c, 0, 73, 98
2, 288089, Note_on_c, 0, 73, 0
2, 288089, Note_on_c, 0, 85, 0
2, 288089, Note_on_c, 0, 90, 0
2, 288089, Note_on_c, 0, 81, 0
2, 288089, Note_on_c, 0, 69, 0
2, 288089, Note_on_c, 0, 64, 0
2, 288180, Note_on_c, 0, 76, 85
2, 288180, Note_on_c, 0, 81, 85
2, 288180, Note_on_c, 0, 85, 85
2, 288180, Note_on_c, 0, 64, 89
2, 288180, Note_on_c, 0, 69, 89
2, 288180, Note_on_c, 0, 73, 89
2, 288269, Note_on_c, 0, 73, 0
2, 288269, Note_on_c, 0, 81, 0
2, 288269, Note_on_c, 0, 85, 0
2, 288269, Note_on_c, 0, 76, 0
2, 288269, Note_on_c, 0, 69, 0
2, 288269, Note_on_c, 0, 64, 0
2, 288360, Note_on_c, 0, 81, 111
2, 288360, Note_on_c, 0, 85, 111
2, 288360, Note_on_c, 0, 88, 111
2, 288360, Note_on_c, 0, 93, 111
2, 288360, Note_on_c, 0, 64, 112
2, 288360, Note_on_c, 0, 69, 112
2, 288360, Note_on_c, 0, 73, 112
2, 288540, Note_on_c, 0, 93, 0
2, 288540, Note_on_c, 0, 88, 0
2, 288540, Note_on_c, 0, 81, 0
2, 288540, Note_on_c, 0, 85, 0
2, 288540, Note_on_c, 0, 81, 88
2, 288540, Note_on_c, 0, 85, 88
2, 288540, Note_on_c, 0, 88, 88
2, 288629, Note_on_c, 0, 88, 0
2, 288629, Note_on_c, 0, 81, 0
2, 288629, Note_on_c, 0, 85, 0
2, 288720, Note_on_c, 0, 69, 0
2, 288720, Note_on_c, 0, 73, 0
2, 288720, Note_on_c, 0, 64, 0
2, 288720, Note_on_c, 0, 81, 100
2, 288720, Note_on_c, 0, 85, 100
2, 288720, Note_on_c, 0, 90, 100
2, 288720, Note_on_c, 0, 64, 101
2, 288720, Note_on_c, 0, 69, 101
2, 288720, Note_on_c, 0, 73, 101
2, 288809, Note_on_c, 0, 73, 0
2, 288809, Note_on_c, 0, 85, 0
2, 288809, Note_on_c, 0, 90, 0
2, 288809, Note_on_c, 0, 81, 0
2, 288809, Note_on_c, 0, 69, 0
2, 288809, Note_on_c, 0, 64, 0
2, 288900, Note_on_c, 0, 76, 85
2, 288900, Note_on_c, 0, 81, 85
2, 288900, Note_on_c, 0, 85, 85
2, 288900, Note_on_c, 0, 64, 94
2, 288900, Note_on_c, 0, 69, 94
2, 288900, Note_on_c, 0, 73, 94
2, 288989, Note_on_c, 0, 73, 0
2, 288989, Note_on_c, 0, 81, 0
2, 288989, Note_on_c, 0, 85, 0
2, 288989, Note_on_c, 0, 76, 0
2, 288989, Note_on_c, 0, 69, 0
2, 288989, Note_on_c, 0, 64, 0
2, 289080, Note_on_c, 0, 93, 111
2, 289080, Note_on_c, 0, 93, 111
2, 289080, Note_on_c, 0, 81, 111
2, 289080, Note_on_c, 0, 69, 111
2, 289620, Note_on_c, 0, 81, 0
2, 289620, Note_on_c, 0, 93, 0
2, 289620, Note_on_c, 0, 93, 111
2, 289620, Note_on_c, 0, 81, 101
2, 289800, Note_on_c, 0, 81, 0
2, 289800, Note_on_c, 0, 93, 0
2, 289800, Note_on_c, 0, 91, 106
2, 289800, Note_on_c, 0, 79, 90
2, 289980, Note_on_c, 0, 79, 0
2, 289980, Note_on_c, 0, 91, 0
2, 289980, Note_on_c, 0, 93, 111
2, 289980, Note_on_c, 0, 81, 107
2, 290160, Note_on_c, 0, 81, 0
2, 290160, Note_on_c, 0, 93, 0
2, 290160, Note_on_c, 0, 89, 99
2, 290160, Note_on_c, 0, 77, 87
2, 290340, Note_on_c, 0, 77, 0
2, 290340, Note_on_c, 0, 89, 0
2, 290340, Note_on_c, 0, 87, 104
2, 290340, Note_on_c, 0, 75, 91
2, 290520, Note_on_c, 0, 75, 0
2, 290520, Note_on_c, 0, 69, 0
2, 290520, Note_on_c, 0, 93, 0
2, 290520, Note_on_c, 0, 87, 0
2, 290520, Note_on_c, 0, 93, 100
2, 290520, Note_on_c, 0, 89, 111
2, 290520, Note_on_c, 0, 77, 104
2, 290520, Note_on_c, 0, 69, 111
2, 291060, Note_on_c, 0, 77, 0
2, 291060, Note_on_c, 0, 89, 0
2, 291060, Note_on_c, 0, 89, 111
2, 291060, Note_on_c, 0, 77, 100
2, 291240, Note_on_c, 0, 77, 0
2, 291240, Note_on_c, 0, 89, 0
2, 291240, Note_on_c, 0, 87, 108
2, 291240, Note_on_c, 0, 75, 91
2, 291420, Note_on_c, 0, 75, 0
2, 291420, Note_on_c, 0, 87, 0
2, 291420, Note_on_c, 0, 89, 111
2, 291420, Note_on_c, 0, 77, 103
2, 291600, Note_on_c, 0, 77, 0
2, 291600, Note_on_c, 0, 89, 0
2, 291600, Note_on_c, 0, 85, 100
2, 291600, Note_on_c, 0, 73, 85
2, 291780, Note_on_c, 0, 73, 0
2, 291780, Note_on_c, 0, 85, 0
2, 291780, Note_on_c, 0, 83, 106
2, 291780, Note_on_c, 0, 71, 87
2, 291960, Note_on_c, 0, 71, 0
2, 291960, Note_on_c, 0, 69, 0
2, 291960, Note_on_c, 0, 93, 0
2, 291960, Note_on_c, 0, 83, 0
2, 291960, Note_on_c, 0, 93, 101
2, 291960, Note_on_c, 0, 85, 111
2, 291960, Note_on_c, 0, 73, 101
2, 291960, Note_on_c, 0, 69, 111
2, 292500, Note_on_c, 0, 73, 0
2, 292500, Note_on_c, 0, 85, 0
2, 292500, Note_on_c, 0, 85, 111
2, 292500, Note_on_c, 0, 73, 101
2, 292680, Note_on_c, 0, 73, 0
2, 292680, Note_on_c, 0, 85, 0
2, 292680, Note_on_c, 0, 83, 108
2, 292680, Note_on_c, 0, 71, 94
2, 292860, Note_on_c, 0, 71, 0
2, 292860, Note_on_c, 0, 83, 0
2, 292860, Note_on_c, 0, 85, 111
2, 292860, Note_on_c, 0, 73, 104
2, 293040, Note_on_c, 0, 73, 0
2, 293040, Note_on_c, 0, 85, 0
2, 293040, Note_on_c, 0, 81, 98
2, 293040, Note_on_c, 0, 69, 87
2, 293220, Note_on_c, 0, 81, 0
2, 293220, Note_on_c, 0, 69, 0
2, 293220, Note_on_c, 0, 79, 104
2, 293220, Note_on_c, 0, 67, 92
2, 293400, Note_on_c, 0, 67, 0
2, 293400, Note_on_c, 0, 69, 0
2, 293400, Note_on_c, 0, 93, 0
2, 293400, Note_on_c, 0, 79, 0
2, 293400, Note_on_c, 0, 81, 63
2, 293400, Note_on_c, 0, 81, 111
2, 293400, Note_on_c, 0, 69, 102
2, 293400, Note_on_c, 0, 69, 111
2, 293940, Note_on_c, 0, 69, 0
2, 293940, Note_on_c, 0, 81, 0
2, 293940, Note_on_c, 0, 81, 111
2, 293940, Note_on_c, 0, 69, 111
2, 294120, Note_on_c, 0, 81, 0
2, 294120, Note_on_c, 0, 69, 0
2, 294120, Note_on_c, 0, 79, 105
2, 294120, Note_on_c, 0, 67, 104
2, 294300, Note_on_c, 0, 67, 0
2, 294300, Note_on_c, 0, 79, 0
2, 294300, Note_on_c, 0, 81, 111
2, 294300, Note_on_c, 0, 69, 111
2, 294480, Note_on_c, 0, 81, 0
2, 294480, Note_on_c, 0, 69, 0
2, 294480, Note_on_c, 0, 77, 99
2, 294480, Note_on_c, 0, 65, 97
2, 294660, Note_on_c, 0, 65, 0
2, 294660, Note_on_c, 0, 77, 0
2, 294660, Note_on_c, 0, 75, 101
2, 294660, Note_on_c, 0, 63, 105
2, 294840, Note_on_c, 0, 63, 0
2, 294840, Note_on_c, 0, 69, 0
2, 294840, Note_on_c, 0, 81, 0
2, 294840, Note_on_c, 0, 75, 0
2, 294840, Note_on_c, 0, 81, 95
2, 294840, Note_on_c, 0, 77, 111
2, 294840, Note_on_c, 0, 69, 99
2, 294840, Note_on_c, 0, 65, 111
2, 295380, Note_on_c, 0, 65, 0
2, 295380, Note_on_c, 0, 77, 0
2, 295380, Note_on_c, 0, 77, 111
2, 295380, Note_on_c, 0, 65, 111
2, 295560, Note_on_c, 0, 65, 0
2, 295560, Note_on_c, 0, 77, 0
2, 295560, Note_on_c, 0, 75, 103
2, 295560, Note_on_c, 0, 63, 104
2, 295740, Note_on_c, 0, 63, 0
2, 295740, Note_on_c, 0, 75, 0
2, 295740, Note_on_c, 0, 77, 111
2, 295740, Note_on_c, 0, 65, 111
2, 295920, Note_on_c, 0, 65, 0
2, 295920, Note_on_c, 0, 77, 0
2, 295920, Note_on_c, 0, 73, 98
2, 295920, Note_on_c, 0, 61, 96
2, 296100, Note_on_c, 0, 61, 0
2, 296100, Note_on_c, 0, 73, 0
2, 296100, Note_on_c, 0, 71, 99
2, 296100, Note_on_c, 0, 59, 103
2, 296280, Note_on_c, 0, 59, 0
2, 296280, Note_on_c, 0, 81, 0
2, 296280, Note_on_c, 0, 69, 0
2, 296280, Note_on_c, 0, 71, 0
2, 296280, Note_on_c, 0, 81, 97
2, 296280, Note_on_c, 0, 73, 111
2, 296280, Note_on_c, 0, 69, 98
2, 296280, Note_on_c, 0, 61, 111
2, 296820, Note_on_c, 0, 61, 0
2, 296820, Note_on_c, 0, 73, 0
2, 296820, Note_on_c, 0, 73, 111
2, 296820, Note_on_c, 0, 61, 111
2, 297000, Note_on_c, 0, 61, 0
2, 297000, Note_on_c, 0, 73, 0
2, 297000, Note_on_c, 0, 71, 106
2, 297000, Note_on_c, 0, 59, 109
2, 297180, Note_on_c, 0, 59, 0
2, 297180, Note_on_c, 0, 71, 0
2, 297180, Note_on_c, 0, 73, 111
2, 297180, Note_on_c, 0, 61, 111
2, 297360, Note_on_c, 0, 61, 0
2, 297360, Note_on_c, 0, 73, 0
2, 297360, Note_on_c, 0, 69, 104
2, 297360, Note_on_c, 0, 57, 104
2, 297540, Note_on_c, 0, 57, 0
2, 297540, Note_on_c, 0, 69, 0
2, 297540, Note_on_c, 0, 79, 111
2, 297540, Note_on_c, 0, 67, 111
2, 297720, Note_on_c, 0, 67, 0
2, 297720, Note_on_c, 0, 81, 0
2, 297720, Note_on_c, 0, 69, 0
2, 297720, Note_on_c, 0, 79, 0
2, 297720, Note_on_c, 0, 81, 98
2, 297720, Note_on_c, 0, 81, 111
2, 297720, Note_on_c, 0, 69, 98
2, 297720, Note_on_c, 0, 69, 111
2, 298260, Note_on_c, 0, 69, 0
2, 298260, Note_on_c, 0, 81, 0
2, 298260, Note_on_c, 0, 81, 111
2, 298260, Note_on_c, 0, 69, 111
2, 298440, Note_on_c, 0, 81, 0
2, 298440, Note_on_c, 0, 69, 0
2, 298440, Note_on_c, 0, 79, 102
2, 298440, Note_on_c, 0, 67, 99
2, 298620, Note_on_c, 0, 67, 0
2, 298620, Note_on_c, 0, 79, 0
2, 298620, Note_on_c, 0, 81, 111
2, 298620, Note_on_c, 0, 69, 111
2, 298800, Note_on_c, 0, 81, 0
2, 298800, Note_on_c, 0, 69, 0
2, 298800, Note_on_c, 0, 77, 98
2, 298800, Note_on_c, 0, 65, 97
2, 298980, Note_on_c, 0, 65, 0
2, 298980, Note_on_c, 0, 77, 0
2, 298980, Note_on_c, 0, 76, 98
2, 298980, Note_on_c, 0, 64, 107
2, 299160, Note_on_c, 0, 64, 0
2, 299160, Note_on_c, 0, 69, 0
2, 299160, Note_on_c, 0, 81, 0
2, 299160, Note_on_c, 0, 76, 0
2, 299160, Note_on_c, 0, 81, 99
2, 299160, Note_on_c, 0, 81, 111
2, 299160, Note_on_c, 0, 69, 100
2, 299160, Note_on_c, 0, 69, 111
2, 299700, Note_on_c, 0, 69, 0
2, 299700, Note_on_c, 0, 81, 0
2, 299700, Note_on_c, 0, 81, 111
2, 299700, Note_on_c, 0, 69, 111
2, 299880, Note_on_c, 0, 81, 0
2, 299880, Note_on_c, 0, 69, 0
2, 299880, Note_on_c, 0, 79, 103
2, 299880, Note_on_c, 0, 67, 104
2, 300060, Note_on_c, 0, 67, 0
2, 300060, Note_on_c, 0, 79, 0
2, 300060, Note_on_c, 0, 81, 111
2, 300060, Note_on_c, 0, 69, 111
2, 300240, Note_on_c, 0, 81, 0
2, 300240, Note_on_c, 0, 69, 0
2, 300240, Note_on_c, 0, 77, 96
2, 300240, Note_on_c, 0, 65, 99
2, 300420, Note_on_c, 0, 65, 0
2, 300420, Note_on_c, 0, 77, 0
2, 300420, Note_on_c, 0, 76, 100
2, 300420, Note_on_c, 0, 64, 99
2, 300600, Note_on_c, 0, 64, 0
2, 300600, Note_on_c, 0, 69, 0
2, 300600, Note_on_c, 0, 81, 0
2, 300600, Note_on_c, 0, 76, 0
2, 300600, Note_on_c, 0, 81, 102
2, 300600, Note_on_c, 0, 69, 98
2, 300672, Note_on_c, 0, 81, 0
2, 300690, Note_on_c, 0, 69, 64
2, 300762, Note_on_c, 0, 69, 0
2, 300780, Note_on_c, 0, 69, 0
2, 300780, Note_on_c, 0, 81, 102
2, 300852, Note_on_c, 0, 81, 0
2, 300870, Note_on_c, 0, 69, 64
2, 300942, Note_on_c, 0, 69, 0
2, 300960, Note_on_c, 0, 81, 102
2, 301032, Note_on_c, 0, 81, 0
2, 301050, Note_on_c, 0, 69, 64
2, 301122, Note_on_c, 0, 69, 0
2, 301140, Note_on_c, 0, 81, 102
2, 301212, Note_on_c, 0, 81, 0
2, 301230, Note_on_c, 0, 69, 64
2, 301302, Note_on_c, 0, 69, 0
2, 301320, Note_on_c, 0, 81, 102
2, 301392, Note_on_c, 0, 81, 0
2, 301410, Note_on_c, 0, 69, 64
2, 301482, Note_on_c, 0, 69, 0
2, 301500, Note_on_c, 0, 81, 102
2, 301572, Note_on_c, 0, 81, 0
2, 301590, Note_on_c, 0, 69, 64
2, 301662, Note_on_c, 0, 69, 0
2, 301680, Note_on_c, 0, 81, 102
2, 301752, Note_on_c, 0, 81, 0
2, 301770, Note_on_c, 0, 69, 64
2, 301842, Note_on_c, 0, 69, 0
2, 301860, Note_on_c, 0, 81, 102
2, 301932, Note_on_c, 0, 81, 0
2, 301950, Note_on_c, 0, 69, 64
2, 302022, Note_on_c, 0, 69, 0
2, 302040, Note_on_c, 0, 81, 111
2, 302112, Note_on_c, 0, 81, 0
2, 302130, Note_on_c, 0, 69, 69
2, 302202, Note_on_c, 0, 69, 0
2, 302220, Note_on_c, 0, 81, 111
2, 302292, Note_on_c, 0, 81, 0
2, 302310, Note_on_c, 0, 69, 69
2, 302382, Note_on_c, 0, 69, 0
2, 302400, Note_on_c, 0, 81, 111
2, 302472, Note_on_c, 0, 81, 0
2, 302490, Note_on_c, 0, 69, 69
2, 302562, Note_on_c, 0, 69, 0
2, 302580, Note_on_c, 0, 81, 111
2, 302652, Note_on_c, 0, 81, 0
2, 302670, Note_on_c, 0, 69, 69
2, 302742, Note_on_c, 0, 69, 0
2, 302760, Note_on_c, 0, 81, 111
2, 302832, Note_on_c, 0, 81, 0
2, 302850, Note_on_c, 0, 69, 69
2, 302922, Note_on_c, 0, 69, 0
2, 302940, Note_on_c, 0, 81, 111
2, 303012, Note_on_c, 0, 81, 0
2, 303030, Note_on_c, 0, 69, 69
2, 303102, Note_on_c, 0, 69, 0
2, 303120, Note_on_c, 0, 80, 112
2, 303120, Note_on_c, 0, 68, 112
2, 303240, Note_on_c, 0, 68, 0
2, 303240, Note_on_c, 0, 80, 0
2, 303240, Note_on_c, 0, 81, 112
2, 303240, Note_on_c, 0, 69, 112
2, 303359, Note_on_c, 0, 69, 0
2, 303359, Note_on_c, 0, 81, 0
2, 303359, Note_on_c, 0, 82, 112
2, 303359, Note_on_c, 0, 70, 112
2, 303480, Note_on_c, 0, 70, 0
2, 303480, Note_on_c, 0, 82, 0
2, 303480, Note_on_c, 0, 81, 94
2, 303480, Note_on_c, 0, 69, 112
2, 303552, Note_on_c, 0, 81, 0
2, 303570, Note_on_c, 0, 69, 68
2, 303642, Note_on_c, 0, 69, 0
2, 303660, Note_on_c, 0, 69, 0
2, 303660, Note_on_c, 0, 81, 94
2, 303732, Note_on_c, 0, 81, 0
2, 303750, Note_on_c, 0, 69, 68
2, 303822, Note_on_c, 0, 69, 0
2, 303840, Note_on_c, 0, 81, 94
2, 303912, Note_on_c, 0, 81, 0
2, 303930, Note_on_c, 0, 69, 68
2, 304002, Note_on_c, 0, 69, 0
2, 304020, Note_on_c, 0, 81, 94
2, 304092, Note_on_c, 0, 81, 0
2, 304110, Note_on_c, 0, 69, 68
2, 304182, Note_on_c, 0, 69, 0
2, 304200, Note_on_c, 0, 81, 94
2, 304272, Note_on_c, 0, 81, 0
2, 304290, Note_on_c, 0, 69, 68
2, 304362, Note_on_c, 0, 69, 0
2, 304380, Note_on_c, 0, 81, 94
2, 304452, Note_on_c, 0, 81, 0
2, 304470, Note_on_c, 0, 69, 68
2, 304542, Note_on_c, 0, 69, 0
2, 304560, Note_on_c, 0, 81, 94
2, 304632, Note_on_c, 0, 81, 0
2, 304650, Note_on_c, 0, 69, 68
2, 304722, Note_on_c, 0, 69, 0
2, 304740, Note_on_c, 0, 81, 94
2, 304812, Note_on_c, 0, 81, 0
2, 304830, Note_on_c, 0, 69, 68
2, 304902, Note_on_c, 0, 69, 0
2, 304920, Note_on_c, 0, 81, 111
2, 304992, Note_on_c, 0, 81, 0
2, 305010, Note_on_c, 0, 69, 71
2, 305082, Note_on_c, 0, 69, 0
2, 305100, Note_on_c, 0, 81, 111
2, 305172, Note_on_c, 0, 81, 0
2, 305190, Note_on_c, 0, 69, 71
2, 305262, Note_on_c, 0, 69, 0
2, 305280, Note_on_c, 0, 81, 111
2, 305352, Note_on_c, 0, 81, 0
2, 305370, Note_on_c, 0, 69, 71
2, 305442, Note_on_c, 0, 69, 0
2, 305460, Note_on_c, 0, 81, 111
2, 305532, Note_on_c, 0, 81, 0
2, 305550, Note_on_c, 0, 69, 71
2, 305622, Note_on_c, 0, 69, 0
2, 305640, Note_on_c, 0, 81, 111
2, 305712, Note_on_c, 0, 81, 0
2, 305730, Note_on_c, 0, 69, 71
2, 305802, Note_on_c, 0, 69, 0
2, 305820, Note_on_c, 0, 81, 111
2, 305892, Note_on_c, 0, 81, 0
2, 305910, Note_on_c, 0, 69, 71
2, 305982, Note_on_c, 0, 69, 0
2, 306000, Note_on_c, 0, 80, 112
2, 306000, Note_on_c, 0, 68, 110
2, 306120, Note_on_c, 0, 68, 0
2, 306120, Note_on_c, 0, 80, 0
2, 306120, Note_on_c, 0, 81, 112
2, 306120, Note_on_c, 0, 69, 112
2, 306239, Note_on_c, 0, 69, 0
2, 306239, Note_on_c, 0, 81, 0
2, 306239, Note_on_c, 0, 82, 112
2, 306239, Note_on_c, 0, 70, 112
2, 306360, Note_on_c, 0, 70, 0
2, 306360, Note_on_c, 0, 82, 0
2, 306360, Note_on_c, 0, 81, 107
2, 306360, Note_on_c, 0, 69, 102
2, 306540, Note_on_c, 0, 69, 0
2, 306540, Note_on_c, 0, 81, 0
2, 306540, Note_on_c, 0, 62, 71
2, 306540, Note_on_c, 0, 65, 71
2, 306629, Note_on_c, 0, 65, 0
2, 306629, Note_on_c, 0, 62, 0
2, 306720, Note_on_c, 0, 62, 77
2, 306720, Note_on_c, 0, 65, 77
2, 306809, Note_on_c, 0, 65, 0
2, 306809, Note_on_c, 0, 62, 0
2, 306900, Note_on_c, 0, 62, 84
2, 306900, Note_on_c, 0, 65, 84
2, 306989, Note_on_c, 0, 65, 0
2, 306989, Note_on_c, 0, 62, 0
2, 307080, Note_on_c, 0, 62, 90
2, 307080, Note_on_c, 0, 65, 90
2, 307169, Note_on_c, 0, 65, 0
2, 307169, Note_on_c, 0, 62, 0
2, 307260, Note_on_c, 0, 62, 82
2, 307260, Note_on_c, 0, 65, 82
2, 307349, Note_on_c, 0, 65, 0
2, 307349, Note_on_c, 0, 62, 0
2, 307440, Note_on_c, 0, 62, 79
2, 307440, Note_on_c, 0, 65, 79
2, 307529, Note_on_c, 0, 65, 0
2, 307529, Note_on_c, 0, 62, 0
2, 307620, Note_on_c, 0, 62, 83
2, 307620, Note_on_c, 0, 65, 83
2, 307709, Note_on_c, 0, 65, 0
2, 307709, Note_on_c, 0, 62, 0
2, 307800, Note_on_c, 0, 62, 84
2, 307800, Note_on_c, 0, 65, 84
2, 307889, Note_on_c, 0, 65, 0
2, 307889, Note_on_c, 0, 62, 0
2, 307980, Note_on_c, 0, 62, 85
2, 307980, Note_on_c, 0, 65, 85
2, 308069, Note_on_c, 0, 65, 0
2, 308069, Note_on_c, 0, 62, 0
2, 308160, Note_on_c, 0, 69, 111
2, 308160, Note_on_c, 0, 81, 111
2, 308160, Note_on_c, 0, 62, 94
2, 308160, Note_on_c, 0, 65, 94
2, 308249, Note_on_c, 0, 65, 0
2, 308249, Note_on_c, 0, 62, 0
2, 308340, Note_on_c, 0, 62, 98
2, 308340, Note_on_c, 0, 65, 98
2, 308429, Note_on_c, 0, 65, 0
2, 308429, Note_on_c, 0, 62, 0
2, 308520, Note_on_c, 0, 81, 0
2, 308520, Note_on_c, 0, 69, 0
2, 308520, Note_on_c, 0, 69, 112
2, 308520, Note_on_c, 0, 79, 112
2, 308700, Note_on_c, 0, 57, 87
2, 308700, Note_on_c, 0, 62, 87
2, 308700, Note_on_c, 0, 67, 87
2, 308789, Note_on_c, 0, 67, 0
2, 308789, Note_on_c, 0, 57, 0
2, 308789, Note_on_c, 0, 62, 0
2, 308880, Note_on_c, 0, 57, 94
2, 308880, Note_on_c, 0, 62, 94
2, 308880, Note_on_c, 0, 67, 94
2, 308969, Note_on_c, 0, 67, 0
2, 308969, Note_on_c, 0, 57, 0
2, 308969, Note_on_c, 0, 62, 0
2, 309060, Note_on_c, 0, 79, 0
2, 309060, Note_on_c, 0, 69, 0
2, 309060, Note_on_c, 0, 69, 112
2, 309060, Note_on_c, 0, 81, 112
2, 309060, Note_on_c, 0, 57, 101
2, 309060, Note_on_c, 0, 67, 101
2, 309149, Note_on_c, 0, 67, 0
2, 309149, Note_on_c, 0, 57, 0
2, 309240, Note_on_c, 0, 81, 0
2, 309240, Note_on_c, 0, 69, 0
2, 309240, Note_on_c, 0, 69, 111
2, 309240, Note_on_c, 0, 77, 111
2, 309420, Note_on_c, 0, 57, 89
2, 309420, Note_on_c, 0, 67, 89
2, 309509, Note_on_c, 0, 67, 0
2, 309509, Note_on_c, 0, 57, 0
2, 309600, Note_on_c, 0, 77, 0
2, 309600, Note_on_c, 0, 69, 0
2, 309600, Note_on_c, 0, 69, 112
2, 309600, Note_on_c, 0, 76, 112
2, 309600, Note_on_c, 0, 57, 102
2, 309600, Note_on_c, 0, 67, 102
2, 309689, Note_on_c, 0, 67, 0
2, 309689, Note_on_c, 0, 57, 0
2, 309780, Note_on_c, 0, 57, 93
2, 309780, Note_on_c, 0, 67, 93
2, 309869, Note_on_c, 0, 67, 0
2, 309869, Note_on_c, 0, 57, 0
2, 309960, Note_on_c, 0, 76, 0
2, 309960, Note_on_c, 0, 69, 0
2, 309960, Note_on_c, 0, 69, 112
2, 309960, Note_on_c, 0, 74, 112
2, 309960, Note_on_c, 0, 77, 112
2, 309960, Note_on_c, 0, 57, 90
2, 309960, Note_on_c, 0, 65, 90
2, 310049, Note_on_c, 0, 65, 0
2, 310049, Note_on_c, 0, 57, 0
2, 310140, Note_on_c, 0, 57, 100
2, 310140, Note_on_c, 0, 65, 100
2, 310229, Note_on_c, 0, 65, 0
2, 310229, Note_on_c, 0, 57, 0
2, 310320, Note_on_c, 0, 77, 0
2, 310320, Note_on_c, 0, 74, 0
2, 310320, Note_on_c, 0, 69, 0
2, 310320, Note_on_c, 0, 74, 112
2, 310320, Note_on_c, 0, 57, 111
2, 310320, Note_on_c, 0, 65, 111
2, 310320, Note_on_c, 0, 69, 111
2, 310409, Note_on_c, 0, 69, 0
2, 310409, Note_on_c, 0, 65, 0
2, 310409, Note_on_c, 0, 57, 0
2, 310500, Note_on_c, 0, 57, 98
2, 310500, Note_on_c, 0, 69, 98
2, 310589, Note_on_c, 0, 69, 0
2, 310589, Note_on_c, 0, 57, 0
2, 310860, Note_on_c, 0, 74, 0
2, 310860, Note_on_c, 0, 81, 112
2, 310860, Note_on_c, 0, 58, 100
2, 310860, Note_on_c, 0, 62, 100
2, 311040, Note_on_c, 0, 81, 0
2, 311040, Note_on_c, 0, 79, 112
2, 311177, Note_on_c, 0, 62, 0
2, 311177, Note_on_c, 0, 58, 0
2, 311220, Note_on_c, 0, 79, 0
2, 311220, Note_on_c, 0, 81, 112
2, 311220, Note_on_c, 0, 58, 94
2, 311220, Note_on_c, 0, 62, 94
2, 311309, Note_on_c, 0, 62, 0
2, 311309, Note_on_c, 0, 58, 0
2, 311400, Note_on_c, 0, 81, 0
2, 311400, Note_on_c, 0, 77, 112
2, 311580, Note_on_c, 0, 77, 0
2, 311580, Note_on_c, 0, 77, 112
2, 311580, Note_on_c, 0, 57, 94
2, 311580, Note_on_c, 0, 62, 94
2, 311760, Note_on_c, 0, 77, 0
2, 311760, Note_on_c, 0, 76, 112
2, 311897, Note_on_c, 0, 62, 0
2, 311897, Note_on_c, 0, 57, 0
2, 311940, Note_on_c, 0, 76, 0
2, 311940, Note_on_c, 0, 77, 112
2, 311940, Note_on_c, 0, 57, 96
2, 311940, Note_on_c, 0, 62, 96
2, 312029, Note_on_c, 0, 62, 0
2, 312029, Note_on_c, 0, 57, 0
2, 312120, Note_on_c, 0, 77, 0
2, 312120, Note_on_c, 0, 74, 112
2, 312300, Note_on_c, 0, 58, 81
2, 312300, Note_on_c, 0, 62, 81
2, 312389, Note_on_c, 0, 62, 0
2, 312389, Note_on_c, 0, 58, 0
2, 312480, Note_on_c, 0, 58, 96
2, 312480, Note_on_c, 0, 62, 96
2, 312569, Note_on_c, 0, 62, 0
2, 312569, Note_on_c, 0, 58, 0
2, 312660, Note_on_c, 0, 74, 0
2, 312660, Note_on_c, 0, 77, 112
2, 312660, Note_on_c, 0, 58, 101
2, 312660, Note_on_c, 0, 62, 101
2, 312749, Note_on_c, 0, 62, 0
2, 312749, Note_on_c, 0, 58, 0
2, 312840, Note_on_c, 0, 77, 0
2, 312840, Note_on_c, 0, 74, 112
2, 312840, Note_on_c, 0, 57, 112
2, 312840, Note_on_c, 0, 62, 112
2, 312840, Note_on_c, 0, 65, 112
2, 313020, Note_on_c, 0, 65, 0
2, 313020, Note_on_c, 0, 62, 0
2, 313020, Note_on_c, 0, 57, 0
2, 313020, Note_on_c, 0, 57, 104
2, 313020, Note_on_c, 0, 62, 104
2, 313020, Note_on_c, 0, 65, 104
2, 313109, Note_on_c, 0, 65, 0
2, 313109, Note_on_c, 0, 62, 0
2, 313109, Note_on_c, 0, 57, 0
2, 313200, Note_on_c, 0, 74, 0
2, 313200, Note_on_c, 0, 72, 112
2, 313200, Note_on_c, 0, 57, 112
2, 313200, Note_on_c, 0, 60, 112
2, 313200, Note_on_c, 0, 64, 112
2, 313380, Note_on_c, 0, 64, 0
2, 313380, Note_on_c, 0, 60, 0
2, 313380, Note_on_c, 0, 57, 0
2, 313380, Note_on_c, 0, 57, 95
2, 313380, Note_on_c, 0, 60, 95
2, 313380, Note_on_c, 0, 64, 95
2, 313469, Note_on_c, 0, 64, 0
2, 313469, Note_on_c, 0, 60, 0
2, 313469, Note_on_c, 0, 57, 0
2, 313560, Note_on_c, 0, 72, 0
2, 313560, Note_on_c, 0, 74, 112
2, 313560, Note_on_c, 0, 57, 98
2, 313560, Note_on_c, 0, 62, 98
2, 313560, Note_on_c, 0, 65, 98
2, 313740, Note_on_c, 0, 65, 0
2, 313740, Note_on_c, 0, 62, 0
2, 313740, Note_on_c, 0, 57, 0
2, 313740, Note_on_c, 0, 62, 99
2, 313740, Note_on_c, 0, 65, 99
2, 313829, Note_on_c, 0, 65, 0
2, 313829, Note_on_c, 0, 62, 0
2, 313920, Note_on_c, 0, 62, 101
2, 313920, Note_on_c, 0, 65, 101
2, 314009, Note_on_c, 0, 65, 0
2, 314009, Note_on_c, 0, 62, 0
2, 314100, Note_on_c, 0, 74, 0
2, 314100, Note_on_c, 0, 62, 102
2, 314100, Note_on_c, 0, 65, 102
2, 314189, Note_on_c, 0, 65, 0
2, 314189, Note_on_c, 0, 62, 0
2, 314280, Note_on_c, 0, 62, 104
2, 314280, Note_on_c, 0, 65, 104
2, 314369, Note_on_c, 0, 65, 0
2, 314369, Note_on_c, 0, 62, 0
2, 314460, Note_on_c, 0, 62, 105
2, 314460, Note_on_c, 0, 65, 105
2, 314549, Note_on_c, 0, 65, 0
2, 314549, Note_on_c, 0, 62, 0
2, 314640, Note_on_c, 0, 62, 107
2, 314640, Note_on_c, 0, 65, 107
2, 314729, Note_on_c, 0, 65, 0
2, 314729, Note_on_c, 0, 62, 0
2, 314820, Note_on_c, 0, 62, 109
2, 314820, Note_on_c, 0, 65, 109
2, 314909, Note_on_c, 0, 65, 0
2, 314909, Note_on_c, 0, 62, 0
2, 315000, Note_on_c, 0, 62, 68
2, 315000, Note_on_c, 0, 65, 68
2, 315089, Note_on_c, 0, 65, 0
2, 315089, Note_on_c, 0, 62, 0
2, 315180, Note_on_c, 0, 62, 67
2, 315180, Note_on_c, 0, 65, 67
2, 315269, Note_on_c, 0, 65, 0
2, 315269, Note_on_c, 0, 62, 0
2, 315360, Note_on_c, 0, 62, 65
2, 315360, Note_on_c, 0, 65, 65
2, 315449, Note_on_c, 0, 65, 0
2, 315449, Note_on_c, 0, 62, 0
2, 315540, Note_on_c, 0, 62, 64
2, 315540, Note_on_c, 0, 65, 64
2, 315629, Note_on_c, 0, 65, 0
2, 315629, Note_on_c, 0, 62, 0
2, 315720, Note_on_c, 0, 62, 62
2, 315720, Note_on_c, 0, 65, 62
2, 315809, Note_on_c, 0, 65, 0
2, 315809, Note_on_c, 0, 62, 0
2, 315900, Note_on_c, 0, 62, 60
2, 315900, Note_on_c, 0, 65, 60
2, 315989, Note_on_c, 0, 65, 0
2, 315989, Note_on_c, 0, 62, 0
2, 316080, Note_on_c, 0, 62, 59
2, 316080, Note_on_c, 0, 65, 59
2, 316169, Note_on_c, 0, 65, 0
2, 316169, Note_on_c, 0, 62, 0
2, 316260, Note_on_c, 0, 62, 57
2, 316260, Note_on_c, 0, 65, 57
2, 316349, Note_on_c, 0, 65, 0
2, 316349, Note_on_c, 0, 62, 0
2, 316440, Note_on_c, 0, 62, 56
2, 316440, Note_on_c, 0, 65, 56
2, 316529, Note_on_c, 0, 65, 0
2, 316529, Note_on_c, 0, 62, 0
2, 316980, Note_on_c, 0, 68, 82
2, 317039, Note_on_c, 0, 68, 0
2, 317039, Note_on_c, 0, 69, 104
2, 317100, Note_on_c, 0, 69, 0
2, 317100, Note_on_c, 0, 70, 96
2, 317160, Note_on_c, 0, 70, 0
2, 317160, Note_on_c, 0, 69, 112
2, 317700, Note_on_c, 0, 69, 0
2, 317700, Note_on_c, 0, 68, 96
2, 317759, Note_on_c, 0, 68, 0
2, 317759, Note_on_c, 0, 69, 105
2, 317820, Note_on_c, 0, 69, 0
2, 317820, Note_on_c, 0, 70, 102
2, 317880, Note_on_c, 0, 70, 0
2, 317880, Note_on_c, 0, 69, 112
2, 318240, Note_on_c, 0, 81, 112
2, 318420, Note_on_c, 0, 69, 0
2, 318420, Note_on_c, 0, 69, 97
2, 318479, Note_on_c, 0, 69, 0
2, 318479, Note_on_c, 0, 71, 105
2, 318540, Note_on_c, 0, 71, 0
2, 318540, Note_on_c, 0, 73, 107
2, 318600, Note_on_c, 0, 73, 0
2, 318600, Note_on_c, 0, 81, 0
2, 318600, Note_on_c, 0, 79, 110
2, 318600, Note_on_c, 0, 71, 112
2, 319140, Note_on_c, 0, 71, 0
2, 319140, Note_on_c, 0, 79, 0
2, 319140, Note_on_c, 0, 81, 112
2, 319140, Note_on_c, 0, 71, 98
2, 319199, Note_on_c, 0, 71, 0
2, 319199, Note_on_c, 0, 73, 106
2, 319260, Note_on_c, 0, 73, 0
2, 319260, Note_on_c, 0, 74, 103
2, 319320, Note_on_c, 0, 74, 0
2, 319320, Note_on_c, 0, 81, 0
2, 319320, Note_on_c, 0, 77, 109
2, 319320, Note_on_c, 0, 73, 112
2, 319680, Note_on_c, 0, 77, 0
2, 319680, Note_on_c, 0, 76, 112
2, 319860, Note_on_c, 0, 73, 0
2, 319860, Note_on_c, 0, 73, 97
2, 319919, Note_on_c, 0, 73, 0
2, 319919, Note_on_c, 0, 74, 103
2, 319980, Note_on_c, 0, 74, 0
2, 319980, Note_on_c, 0, 76, 107
2, 320040, Note_on_c, 0, 76, 0
2, 320040, Note_on_c, 0, 76, 0
2, 320040, Note_on_c, 0, 77, 112
2, 320040, Note_on_c, 0, 74, 112
2, 320400, Note_on_c, 0, 77, 0
2, 320400, Note_on_c, 0, 74, 110
2, 320580, Note_on_c, 0, 74, 0
2, 320580, Note_on_c, 0, 74, 0
2, 320580, Note_on_c, 0, 74, 94
2, 320639, Note_on_c, 0, 74, 0
2, 320639, Note_on_c, 0, 76, 109
2, 320700, Note_on_c, 0, 76, 0
2, 320700, Note_on_c, 0, 77, 106
2, 320760, Note_on_c, 0, 77, 0
2, 320760, Note_on_c, 0, 76, 112
2, 320940, Note_on_c, 0, 81, 109
2, 321120, Note_on_c, 0, 81, 0
2, 321120, Note_on_c, 0, 79, 112
2, 321300, Note_on_c, 0, 79, 0
2, 321300, Note_on_c, 0, 76, 0
2, 321300, Note_on_c, 0, 81, 112
2, 321300, Note_on_c, 0, 76, 95
2, 321359, Note_on_c, 0, 76, 0
2, 321359, Note_on_c, 0, 77, 104
2, 321420, Note_on_c, 0, 77, 0
2, 321420, Note_on_c, 0, 79, 110
2, 321480, Note_on_c, 0, 79, 0
2, 321480, Note_on_c, 0, 81, 0
2, 321480, Note_on_c, 0, 77, 112
2, 321660, Note_on_c, 0, 77, 0
2, 321660, Note_on_c, 0, 77, 112
2, 321840, Note_on_c, 0, 77, 0
2, 321840, Note_on_c, 0, 76, 112
2, 322020, Note_on_c, 0, 76, 0
2, 322020, Note_on_c, 0, 77, 90
2, 322020, Note_on_c, 0, 77, 112
2, 322079, Note_on_c, 0, 77, 0
2, 322079, Note_on_c, 0, 79, 102
2, 322140, Note_on_c, 0, 79, 0
2, 322140, Note_on_c, 0, 81, 101
2, 322200, Note_on_c, 0, 81, 0
2, 322200, Note_on_c, 0, 77, 0
2, 322200, Note_on_c, 0, 79, 112
2, 322200, Note_on_c, 0, 74, 112
2, 322740, Note_on_c, 0, 74, 0
2, 322740, Note_on_c, 0, 79, 0
2, 322740, Note_on_c, 0, 79, 101
2, 322740, Note_on_c, 0, 77, 112
2, 322799, Note_on_c, 0, 79, 0
2, 322799, Note_on_c, 0, 81, 106
2, 322860, Note_on_c, 0, 81, 0
2, 322860, Note_on_c, 0, 82, 104
2, 322920, Note_on_c, 0, 82, 0
2, 322920, Note_on_c, 0, 77, 0
2, 322920, Note_on_c, 0, 81, 112
2, 322920, Note_on_c, 0, 69, 112
2, 322920, Note_on_c, 0, 74, 112
2, 323280, Note_on_c, 0, 74, 0
2, 323280, Note_on_c, 0, 69, 0
2, 323280, Note_on_c, 0, 69, 112
2, 323280, Note_on_c, 0, 72, 112
2, 323640, Note_on_c, 0, 72, 0
2, 323640, Note_on_c, 0, 69, 0
2, 323640, Note_on_c, 0, 69, 112
2, 323640, Note_on_c, 0, 74, 112
2, 323820, Note_on_c, 0, 74, 0
2, 323820, Note_on_c, 0, 69, 0
2, 323820, Note_on_c, 0, 81, 0
2, 323820, Note_on_c, 0, 62, 35
2, 323820, Note_on_c, 0, 65, 35
2, 323909, Note_on_c, 0, 65, 0
2, 323909, Note_on_c, 0, 62, 0
2, 324000, Note_on_c, 0, 62, 45
2, 324000, Note_on_c, 0, 65, 45
2, 324089, Note_on_c, 0, 65, 0
2, 324089, Note_on_c, 0, 62, 0
2, 324180, Note_on_c, 0, 62, 48
2, 324180, Note_on_c, 0, 65, 48
2, 324269, Note_on_c, 0, 65, 0
2, 324269, Note_on_c, 0, 62, 0
2, 324360, Note_on_c, 0, 62, 51
2, 324360, Note_on_c, 0, 65, 51
2, 324449, Note_on_c, 0, 65, 0
2, 324449, Note_on_c, 0, 62, 0
2, 324540, Note_on_c, 0, 62, 53
2, 324540, Note_on_c, 0, 65, 53
2, 324629, Note_on_c, 0, 65, 0
2, 324629, Note_on_c, 0, 62, 0
2, 324720, Note_on_c, 0, 62, 56
2, 324720, Note_on_c, 0, 65, 56
2, 324809, Note_on_c, 0, 65, 0
2, 324809, Note_on_c, 0, 62, 0
2, 324900, Note_on_c, 0, 62, 59
2, 324900, Note_on_c, 0, 65, 59
2, 324989, Note_on_c, 0, 65, 0
2, 324989, Note_on_c, 0, 62, 0
2, 325080, Note_on_c, 0, 62, 68
2, 325080, Note_on_c, 0, 65, 68
2, 325169, Note_on_c, 0, 65, 0
2, 325169, Note_on_c, 0, 62, 0
2, 325260, Note_on_c, 0, 62, 68
2, 325260, Note_on_c, 0, 65, 68
2, 325349, Note_on_c, 0, 65, 0
2, 325349, Note_on_c, 0, 62, 0
2, 325440, Note_on_c, 0, 62, 66
2, 325440, Note_on_c, 0, 65, 66
2, 325529, Note_on_c, 0, 65, 0
2, 325529, Note_on_c, 0, 62, 0
2, 325620, Note_on_c, 0, 62, 64
2, 325620, Note_on_c, 0, 65, 64
2, 325709, Note_on_c, 0, 65, 0
2, 325709, Note_on_c, 0, 62, 0
2, 325800, Note_on_c, 0, 62, 62
2, 325800, Note_on_c, 0, 65, 62
2, 325889, Note_on_c, 0, 65, 0
2, 325889, Note_on_c, 0, 62, 0
2, 325980, Note_on_c, 0, 62, 60
2, 325980, Note_on_c, 0, 65, 60
2, 326069, Note_on_c, 0, 65, 0
2, 326069, Note_on_c, 0, 62, 0
2, 326160, Note_on_c, 0, 62, 58
2, 326160, Note_on_c, 0, 65, 58
2, 326249, Note_on_c, 0, 65, 0
2, 326249, Note_on_c, 0, 62, 0
2, 326340, Note_on_c, 0, 62, 57
2, 326340, Note_on_c, 0, 65, 57
2, 326429, Note_on_c, 0, 65, 0
2, 326429, Note_on_c, 0, 62, 0
2, 326520, Note_on_c, 0, 62, 34
2, 326610, Note_on_c, 0, 62, 0
2, 326610, Note_on_c, 0, 64, 37
2, 326700, Note_on_c, 0, 64, 0
2, 326700, Note_on_c, 0, 65, 36
2, 326790, Note_on_c, 0, 65, 0
2, 326790, Note_on_c, 0, 64, 35
2, 326880, Note_on_c, 0, 64, 0
2, 326880, Note_on_c, 0, 62, 31
2, 327240, Note_on_c, 0, 65, 42
2, 327600, Note_on_c, 0, 65, 0
2, 327600, Note_on_c, 0, 70, 47
2, 327690, Note_on_c, 0, 62, 0
2, 327690, Note_on_c, 0, 64, 49
2, 327780, Note_on_c, 0, 64, 0
2, 327780, Note_on_c, 0, 65, 49
2, 327870, Note_on_c, 0, 65, 0
2, 327870, Note_on_c, 0, 64, 39
2, 327960, Note_on_c, 0, 64, 0
2, 327960, Note_on_c, 0, 62, 41
2, 328320, Note_on_c, 0, 70, 0
2, 328320, Note_on_c, 0, 70, 44
2, 328680, Note_on_c, 0, 70, 0
2, 328680, Note_on_c, 0, 74, 52
2, 329040, Note_on_c, 0, 74, 0
2, 329040, Note_on_c, 0, 70, 39
2, 329130, Note_on_c, 0, 62, 0
2, 329130, Note_on_c, 0, 64, 47
2, 329220, Note_on_c, 0, 64, 0
2, 329220, Note_on_c, 0, 65, 49
2, 329310, Note_on_c, 0, 65, 0
2, 329310, Note_on_c, 0, 64, 41
2, 329400, Note_on_c, 0, 64, 0
2, 329400, Note_on_c, 0, 62, 37
2, 329760, Note_on_c, 0, 70, 0
2, 329760, Note_on_c, 0, 65, 40
2, 329850, Note_on_c, 0, 62, 0
2, 329850, Note_on_c, 0, 64, 48
2, 329940, Note_on_c, 0, 64, 0
2, 329940, Note_on_c, 0, 65, 49
2, 330030, Note_on_c, 0, 65, 0
2, 330030, Note_on_c, 0, 64, 44
2, 330120, Note_on_c, 0, 64, 0
2, 330120, Note_on_c, 0, 62, 39
2, 330480, Note_on_c, 0, 65, 0
2, 330480, Note_on_c, 0, 62, 41
2, 330570, Note_on_c, 0, 62, 0
2, 330570, Note_on_c, 0, 64, 49
2, 330660, Note_on_c, 0, 64, 0
2, 330660, Note_on_c, 0, 65, 54
2, 330750, Note_on_c, 0, 65, 0
2, 330750, Note_on_c, 0, 64, 41
2, 330840, Note_on_c, 0, 64, 0
2, 330840, Note_on_c, 0, 62, 0
2, 330840, Note_on_c, 0, 62, 42
2, 331290, Note_on_c, 0, 62, 0
2, 331290, Note_on_c, 0, 64, 47
2, 331380, Note_on_c, 0, 64, 0
2, 331380, Note_on_c, 0, 65, 49
2, 331470, Note_on_c, 0, 65, 0
2, 331470, Note_on_c, 0, 64, 46
2, 331560, Note_on_c, 0, 64, 0
2, 331560, Note_on_c, 0, 62, 43
2, 331650, Note_on_c, 0, 62, 0
2, 331650, Note_on_c, 0, 64, 48
2, 331740, Note_on_c, 0, 64, 0
2, 331740, Note_on_c, 0, 65, 50
2, 331830, Note_on_c, 0, 65, 0
2, 331830, Note_on_c, 0, 64, 45
2, 331920, Note_on_c, 0, 64, 0
2, 331920, Note_on_c, 0, 62, 40
2, 332010, Note_on_c, 0, 62, 0
2, 332010, Note_on_c, 0, 64, 47
2, 332100, Note_on_c, 0, 64, 0
2, 332100, Note_on_c, 0, 65, 48
2, 332190, Note_on_c, 0, 65, 0
2, 332190, Note_on_c, 0, 64, 43
2, 332280, Note_on_c, 0, 64, 0
2, 332280, Note_on_c, 0, 62, 43
2, 332370, Note_on_c, 0, 62, 0
2, 332370, Note_on_c, 0, 64, 48
2, 332460, Note_on_c, 0, 64, 0
2, 332460, Note_on_c, 0, 65, 49
2, 332550, Note_on_c, 0, 65, 0
2, 332550, Note_on_c, 0, 64, 46
2, 332640, Note_on_c, 0, 64, 0
2, 332640, Note_on_c, 0, 62, 43
2, 333000, Note_on_c, 0, 65, 43
2, 333360, Note_on_c, 0, 65, 0
2, 333360, Note_on_c, 0, 69, 51
2, 333450, Note_on_c, 0, 62, 0
2, 333450, Note_on_c, 0, 64, 49
2, 333540, Note_on_c, 0, 64, 0
2, 333540, Note_on_c, 0, 65, 47
2, 333630, Note_on_c, 0, 65, 0
2, 333630, Note_on_c, 0, 64, 44
2, 333720, Note_on_c, 0, 64, 0
2, 333720, Note_on_c, 0, 62, 43
2, 334080, Note_on_c, 0, 69, 0
2, 334080, Note_on_c, 0, 69, 44
2, 334440, Note_on_c, 0, 69, 0
2, 334440, Note_on_c, 0, 74, 57
2, 334800, Note_on_c, 0, 74, 0
2, 334800, Note_on_c, 0, 69, 39
2, 334890, Note_on_c, 0, 62, 0
2, 334890, Note_on_c, 0, 64, 47
2, 334980, Note_on_c, 0, 64, 0
2, 334980, Note_on_c, 0, 65, 52
2, 335070, Note_on_c, 0, 65, 0
2, 335070, Note_on_c, 0, 64, 41
2, 335160, Note_on_c, 0, 64, 0
2, 335160, Note_on_c, 0, 62, 43
2, 335520, Note_on_c, 0, 69, 0
2, 335520, Note_on_c, 0, 65, 44
2, 335610, Note_on_c, 0, 62, 0
2, 335610, Note_on_c, 0, 64, 54
2, 335700, Note_on_c, 0, 64, 0
2, 335700, Note_on_c, 0, 65, 52
2, 335790, Note_on_c, 0, 65, 0
2, 335790, Note_on_c, 0, 64, 47
2, 335880, Note_on_c, 0, 64, 0
2, 335880, Note_on_c, 0, 62, 42
2, 336240, Note_on_c, 0, 65, 0
2, 336240, Note_on_c, 0, 62, 41
2, 336330, Note_on_c, 0, 62, 0
2, 336330, Note_on_c, 0, 64, 51
2, 336420, Note_on_c, 0, 64, 0
2, 336420, Note_on_c, 0, 65, 48
2, 336510, Note_on_c, 0, 65, 0
2, 336510, Note_on_c, 0, 64, 44
2, 336600, Note_on_c, 0, 64, 0
2, 336600, Note_on_c, 0, 62, 0
2, 336600, Note_on_c, 0, 62, 38
2, 337050, Note_on_c, 0, 62, 0
2, 337050, Note_on_c, 0, 64, 50
2, 337140, Note_on_c, 0, 64, 0
2, 337140, Note_on_c, 0, 65, 49
2, 337230, Note_on_c, 0, 65, 0
2, 337230, Note_on_c, 0, 64, 43
2, 337320, Note_on_c, 0, 64, 0
2, 337320, Note_on_c, 0, 62, 43
2, 337410, Note_on_c, 0, 62, 0
2, 337410, Note_on_c, 0, 65, 51
2, 337500, Note_on_c, 0, 65, 0
2, 337500, Note_on_c, 0, 64, 47
2, 337590, Note_on_c, 0, 64, 0
2, 337590, Note_on_c, 0, 65, 46
2, 337680, Note_on_c, 0, 65, 0
2, 337680, Note_on_c, 0, 62, 44
2, 337770, Note_on_c, 0, 62, 0
2, 337770, Note_on_c, 0, 64, 47
2, 337860, Note_on_c, 0, 64, 0
2, 337860, Note_on_c, 0, 60, 43
2, 337950, Note_on_c, 0, 60, 0
2, 337950, Note_on_c, 0, 62, 46
2, 338040, Note_on_c, 0, 62, 0
2, 338040, Note_on_c, 0, 58, 46
2, 338490, Note_on_c, 0, 58, 0
2, 338490, Note_on_c, 0, 60, 46
2, 338580, Note_on_c, 0, 60, 0
2, 338580, Note_on_c, 0, 62, 51
2, 338670, Note_on_c, 0, 62, 0
2, 338670, Note_on_c, 0, 60, 42
2, 338760, Note_on_c, 0, 60, 0
2, 338760, Note_on_c, 0, 58, 46
2, 339120, Note_on_c, 0, 62, 50
2, 339210, Note_on_c, 0, 58, 0
2, 339210, Note_on_c, 0, 60, 51
2, 339300, Note_on_c, 0, 60, 0
2, 339300, Note_on_c, 0, 62, 51
2, 339390, Note_on_c, 0, 62, 0
2, 339390, Note_on_c, 0, 60, 45
2, 339480, Note_on_c, 0, 60, 0
2, 339480, Note_on_c, 0, 58, 45
2, 339840, Note_on_c, 0, 62, 0
2, 339840, Note_on_c, 0, 67, 57
2, 339930, Note_on_c, 0, 58, 0
2, 339930, Note_on_c, 0, 60, 53
2, 340020, Note_on_c, 0, 60, 0
2, 340020, Note_on_c, 0, 62, 49
2, 340110, Note_on_c, 0, 62, 0
2, 340110, Note_on_c, 0, 60, 41
2, 340200, Note_on_c, 0, 60, 0
2, 340200, Note_on_c, 0, 67, 0
2, 340200, Note_on_c, 0, 62, 41
2, 340200, Note_on_c, 0, 58, 45
2, 340290, Note_on_c, 0, 58, 0
2, 340290, Note_on_c, 0, 60, 51
2, 340380, Note_on_c, 0, 60, 0
2, 340380, Note_on_c, 0, 62, 53
2, 340470, Note_on_c, 0, 62, 0
2, 340470, Note_on_c, 0, 60, 42
2, 340560, Note_on_c, 0, 60, 0
2, 340560, Note_on_c, 0, 62, 0
2, 340560, Note_on_c, 0, 58, 46
2, 340650, Note_on_c, 0, 60, 38
2, 340740, Note_on_c, 0, 60, 0
2, 340740, Note_on_c, 0, 62, 51
2, 340830, Note_on_c, 0, 62, 0
2, 340830, Note_on_c, 0, 60, 41
2, 340920, Note_on_c, 0, 60, 0
2, 340920, Note_on_c, 0, 58, 0
2, 340920, Note_on_c, 0, 58, 39
2, 341370, Note_on_c, 0, 58, 0
2, 341370, Note_on_c, 0, 60, 51
2, 341460, Note_on_c, 0, 60, 0
2, 341460, Note_on_c, 0, 62, 52
2, 341550, Note_on_c, 0, 62, 0
2, 341550, Note_on_c, 0, 60, 42
2, 341640, Note_on_c, 0, 60, 0
2, 341640, Note_on_c, 0, 58, 39
2, 342000, Note_on_c, 0, 62, 48
2, 342090, Note_on_c, 0, 58, 0
2, 342090, Note_on_c, 0, 60, 51
2, 342180, Note_on_c, 0, 60, 0
2, 342180, Note_on_c, 0, 62, 51
2, 342270, Note_on_c, 0, 62, 0
2, 342270, Note_on_c, 0, 60, 44
2, 342360, Note_on_c, 0, 60, 0
2, 342360, Note_on_c, 0, 58, 41
2, 342720, Note_on_c, 0, 62, 0
2, 342720, Note_on_c, 0, 66, 56
2, 342810, Note_on_c, 0, 58, 0
2, 342810, Note_on_c, 0, 60, 50
2, 342900, Note_on_c, 0, 60, 0
2, 342900, Note_on_c, 0, 62, 53
2, 342990, Note_on_c, 0, 62, 0
2, 342990, Note_on_c, 0, 60, 41
2, 343080, Note_on_c, 0, 60, 0
2, 343080, Note_on_c, 0, 66, 0
2, 343080, Note_on_c, 0, 62, 39
2, 343080, Note_on_c, 0, 58, 46
2, 343170, Note_on_c, 0, 58, 0
2, 343170, Note_on_c, 0, 60, 48
2, 343260, Note_on_c, 0, 60, 0
2, 343260, Note_on_c, 0, 62, 48
2, 343350, Note_on_c, 0, 62, 0
2, 343350, Note_on_c, 0, 60, 46
2, 343440, Note_on_c, 0, 60, 0
2, 343440, Note_on_c, 0, 62, 0
2, 343440, Note_on_c, 0, 58, 39
2, 343530, Note_on_c, 0, 60, 41
2, 343620, Note_on_c, 0, 60, 0
2, 343620, Note_on_c, 0, 62, 48
2, 343710, Note_on_c, 0, 62, 0
2, 343710, Note_on_c, 0, 60, 43
2, 343800, Note_on_c, 0, 60, 0
2, 343800, Note_on_c, 0, 58, 0
2, 343800, Note_on_c, 0, 58, 48
2, 344250, Note_on_c, 0, 58, 0
2, 344250, Note_on_c, 0, 60, 53
2, 344340, Note_on_c, 0, 60, 0
2, 344340, Note_on_c, 0, 62, 56
2, 344430, Note_on_c, 0, 62, 0
2, 344430, Note_on_c, 0, 60, 43
2, 344520, Note_on_c, 0, 60, 0
2, 344520, Note_on_c, 0, 58, 49
2, 344880, Note_on_c, 0, 62, 52
2, 344970, Note_on_c, 0, 58, 0
2, 344970, Note_on_c, 0, 60, 45
2, 345060, Note_on_c, 0, 60, 0
2, 345060, Note_on_c, 0, 62, 52
2, 345150, Note_on_c, 0, 62, 0
2, 345150, Note_on_c, 0, 60, 41
2, 345240, Note_on_c, 0, 60, 0
2, 345240, Note_on_c, 0, 58, 46
2, 345600, Note_on_c, 0, 62, 0
2, 345600, Note_on_c, 0, 65, 49
2, 345960, Note_on_c, 0, 65, 0
2, 345960, Note_on_c, 0, 62, 45
2, 346320, Note_on_c, 0, 62, 0
2, 346320, Note_on_c, 0, 58, 39
2, 346680, Note_on_c, 0, 58, 0
2, 346680, Note_on_c, 0, 58, 0
2, 346680, Note_on_c, 0, 59, 47
2, 346770, Note_on_c, 0, 59, 0
2, 346770, Note_on_c, 0, 61, 48
2, 346860, Note_on_c, 0, 61, 0
2, 346860, Note_on_c, 0, 62, 51
2, 346950, Note_on_c, 0, 62, 0
2, 346950, Note_on_c, 0, 61, 43
2, 347040, Note_on_c, 0, 61, 0
2, 347040, Note_on_c, 0, 59, 44
2, 347400, Note_on_c, 0, 62, 41
2, 347760, Note_on_c, 0, 62, 0
2, 347760, Note_on_c, 0, 66, 50
2, 348120, Note_on_c, 0, 66, 0
2, 348120, Note_on_c, 0, 59, 0
2, 348120, Note_on_c, 0, 58, 33
2, 348570, Note_on_c, 0, 58, 0
2, 348570, Note_on_c, 0, 60, 33
2, 348660, Note_on_c, 0, 60, 0
2, 348660, Note_on_c, 0, 62, 40
2, 348750, Note_on_c, 0, 62, 0
2, 348750, Note_on_c, 0, 60, 34
2, 348840, Note_on_c, 0, 60, 0
2, 348840, Note_on_c, 0, 58, 32
2, 349200, Note_on_c, 0, 62, 45
2, 349290, Note_on_c, 0, 58, 0
2, 349290, Note_on_c, 0, 60, 39
2, 349380, Note_on_c, 0, 60, 0
2, 349380, Note_on_c, 0, 62, 43
2, 349470, Note_on_c, 0, 62, 0
2, 349470, Note_on_c, 0, 60, 38
2, 349560, Note_on_c, 0, 60, 0
2, 349560, Note_on_c, 0, 58, 31
2, 349920, Note_on_c, 0, 62, 0
2, 349920, Note_on_c, 0, 65, 48
2, 350280, Note_on_c, 0, 65, 0
2, 350280, Note_on_c, 0, 62, 43
2, 350370, Note_on_c, 0, 58, 0
2, 350370, Note_on_c, 0, 60, 41
2, 350460, Note_on_c, 0, 60, 0
2, 350460, Note_on_c, 0, 62, 39
2, 350550, Note_on_c, 0, 62, 0
2, 350550, Note_on_c, 0, 60, 30
2, 350640, Note_on_c, 0, 60, 0
2, 350640, Note_on_c, 0, 62, 0
2, 350640, Note_on_c, 0, 58, 46
2, 350730, Note_on_c, 0, 60, 29
2, 350820, Note_on_c, 0, 60, 0
2, 350820, Note_on_c, 0, 62, 38
2, 350910, Note_on_c, 0, 62, 0
2, 350910, Note_on_c, 0, 60, 32
2, 351000, Note_on_c, 0, 60, 0
2, 351000, Note_on_c, 0, 58, 0
2, 351000, Note_on_c, 0, 59, 36
2, 351090, Note_on_c, 0, 59, 0
2, 351090, Note_on_c, 0, 61, 42
2, 351180, Note_on_c, 0, 61, 0
2, 351180, Note_on_c, 0, 62, 37
2, 351270, Note_on_c, 0, 62, 0
2, 351270, Note_on_c, 0, 61, 32
2, 351360, Note_on_c, 0, 61, 0
2, 351360, Note_on_c, 0, 59, 35
2, 351720, Note_on_c, 0, 62, 45
2, 352080, Note_on_c, 0, 62, 0
2, 352080, Note_on_c, 0, 66, 54
2, 352440, Note_on_c, 0, 66, 0
2, 352440, Note_on_c, 0, 59, 0
2, 352440, Note_on_c, 0, 58, 34
2, 352890, Note_on_c, 0, 58, 0
2, 352890, Note_on_c, 0, 60, 39
2, 352980, Note_on_c, 0, 60, 0
2, 352980, Note_on_c, 0, 62, 35
2, 353070, Note_on_c, 0, 62, 0
2, 353070, Note_on_c, 0, 60, 30
2, 353160, Note_on_c, 0, 60, 0
2, 353160, Note_on_c, 0, 58, 34
2, 353340, Note_on_c, 0, 58, 0
2, 355680, Note_on_c, 0, 58, 41
2, 355997, Note_on_c, 0, 58, 0
2, 356040, Note_on_c, 0, 62, 52
2, 356357, Note_on_c, 0, 62, 0
2, 356400, Note_on_c, 0, 64, 50
2, 356717, Note_on_c, 0, 64, 0
2, 356760, Note_on_c, 0, 65, 53
2, 357077, Note_on_c, 0, 65, 0
2, 357120, Note_on_c, 0, 70, 52
2, 357437, Note_on_c, 0, 70, 0
2, 357480, Note_on_c, 0, 74, 55
2, 357638, Note_on_c, 0, 74, 0
2, 357660, Note_on_c, 0, 76, 52
2, 357977, Note_on_c, 0, 76, 0
2, 358020, Note_on_c, 0, 77, 60
2, 358178, Note_on_c, 0, 77, 0
2, 358200, Note_on_c, 0, 86, 60
2, 359467, Note_on_c, 0, 86, 0
2, 359640, Note_on_c, 0, 86, 80
2, 360360, Note_on_c, 0, 74, 60
2, 360360, Note_on_c, 0, 77, 60
2, 360907, Note_on_c, 0, 86, 0
2, 361080, Note_on_c, 0, 77, 0
2, 361080, Note_on_c, 0, 74, 0
2, 361080, Note_on_c, 0, 86, 45
2, 361080, Note_on_c, 0, 74, 53
2, 361080, Note_on_c, 0, 78, 53
2, 361980, Note_on_c, 0, 78, 0
2, 361980, Note_on_c, 0, 74, 0
2, 361980, Note_on_c, 0, 86, 0
2, 361980, Note_on_c, 0, 85, 58
2, 362138, Note_on_c, 0, 85, 0
2, 362160, Note_on_c, 0, 82, 53
2, 362318, Note_on_c, 0, 82, 0
2, 362340, Note_on_c, 0, 81, 54
2, 362498, Note_on_c, 0, 81, 0
2, 362520, Note_on_c, 0, 79, 45
2, 362624, Note_on_c, 0, 79, 0
2, 362640, Note_on_c, 0, 78, 48
2, 362744, Note_on_c, 0, 78, 0
2, 362759, Note_on_c, 0, 77, 50
2, 362865, Note_on_c, 0, 77, 0
2, 362880, Note_on_c, 0, 78, 52
2, 362984, Note_on_c, 0, 78, 0
2, 363000, Note_on_c, 0, 79, 54
2, 363104, Note_on_c, 0, 79, 0
2, 363119, Note_on_c, 0, 78, 56
2, 363225, Note_on_c, 0, 78, 0
2, 363240, Note_on_c, 0, 83, 80
2, 363240, Note_on_c, 0, 74, 62
2, 363344, Note_on_c, 0, 74, 0
2, 363360, Note_on_c, 0, 73, 63
2, 363464, Note_on_c, 0, 73, 0
2, 363479, Note_on_c, 0, 74, 68
2, 363585, Note_on_c, 0, 74, 0
2, 363600, Note_on_c, 0, 71, 58
2, 363600, Note_on_c, 0, 75, 58
2, 363960, Note_on_c, 0, 83, 0
2, 363960, Note_on_c, 0, 79, 41
2, 364500, Note_on_c, 0, 79, 0
2, 364500, Note_on_c, 0, 78, 43
2, 364549, Note_on_c, 0, 75, 0
2, 364680, Note_on_c, 0, 78, 0
2, 364680, Note_on_c, 0, 76, 40
2, 364680, Note_on_c, 0, 76, 48
2, 365040, Note_on_c, 0, 76, 0
2, 365040, Note_on_c, 0, 83, 58
2, 365400, Note_on_c, 0, 83, 0
2, 365400, Note_on_c, 0, 76, 45
2, 365580, Note_on_c, 0, 76, 0
2, 365580, Note_on_c, 0, 71, 0
2, 365940, Note_on_c, 0, 76, 0
2, 365940, Note_on_c, 0, 74, 53
2, 366120, Note_on_c, 0, 74, 0
2, 366120, Note_on_c, 0, 74, 56
2, 366120, Note_on_c, 0, 71, 52
2, 366120, Note_on_c, 0, 67, 111
2, 366840, Note_on_c, 0, 74, 0
2, 366840, Note_on_c, 0, 73, 55
2, 367200, Note_on_c, 0, 71, 0
2, 367200, Note_on_c, 0, 70, 58
2, 367304, Note_on_c, 0, 70, 0
2, 367320, Note_on_c, 0, 69, 65
2, 367424, Note_on_c, 0, 69, 0
2, 367439, Note_on_c, 0, 70, 86
2, 367545, Note_on_c, 0, 70, 0
2, 367560, Note_on_c, 0, 73, 0
2, 367560, Note_on_c, 0, 67, 0
2, 367560, Note_on_c, 0, 73, 58
2, 367560, Note_on_c, 0, 70, 71
2, 367560, Note_on_c, 0, 64, 100
2, 367740, Note_on_c, 0, 70, 0
2, 367740, Note_on_c, 0, 73, 0
2, 367740, Note_on_c, 0, 74, 65
2, 367740, Note_on_c, 0, 71, 77
2, 367920, Note_on_c, 0, 71, 0
2, 367920, Note_on_c, 0, 74, 0
2, 367920, Note_on_c, 0, 64, 0
2, 367920, Note_on_c, 0, 79, 82
2, 367920, Note_on_c, 0, 71, 87
2, 367920, Note_on_c, 0, 65, 111
2, 368024, Note_on_c, 0, 65, 0
2, 368040, Note_on_c, 0, 64, 112
2, 368144, Note_on_c, 0, 64, 0
2, 368159, Note_on_c, 0, 65, 112
2, 368265, Note_on_c, 0, 65, 0
2, 368280, Note_on_c, 0, 65, 111
2, 368460, Note_on_c, 0, 65, 0
2, 368460, Note_on_c, 0, 79, 0
2, 368460, Note_on_c, 0, 78, 71
2, 368460, Note_on_c, 0, 66, 107
2, 368640, Note_on_c, 0, 78, 0
2, 368640, Note_on_c, 0, 74, 65
2, 368820, Note_on_c, 0, 74, 0
2, 368820, Note_on_c, 0, 71, 0
2, 368820, Note_on_c, 0, 73, 53
2, 369000, Note_on_c, 0, 73, 0
2, 369000, Note_on_c, 0, 73, 49
2, 369104, Note_on_c, 0, 73, 0
2, 369120, Note_on_c, 0, 71, 44
2, 369224, Note_on_c, 0, 71, 0
2, 369239, Note_on_c, 0, 70, 43
2, 369345, Note_on_c, 0, 70, 0
2, 369360, Note_on_c, 0, 71, 52
2, 369464, Note_on_c, 0, 71, 0
2, 369480, Note_on_c, 0, 73, 37
2, 369540, Note_on_c, 0, 66, 0
2, 369599, Note_on_c, 0, 73, 0
2, 369599, Note_on_c, 0, 71, 36
2, 369720, Note_on_c, 0, 71, 0
2, 369720, Note_on_c, 0, 78, 50
2, 369720, Note_on_c, 0, 67, 44
2, 369824, Note_on_c, 0, 67, 0
2, 369840, Note_on_c, 0, 66, 45
2, 369944, Note_on_c, 0, 66, 0
2, 369959, Note_on_c, 0, 67, 50
2, 370065, Note_on_c, 0, 67, 0
2, 370080, Note_on_c, 0, 68, 48
2, 370080, Note_on_c, 0, 64, 77
2, 370260, Note_on_c, 0, 78, 0
2, 370260, Note_on_c, 0, 76, 31
2, 370440, Note_on_c, 0, 76, 0
2, 370440, Note_on_c, 0, 73, 33
2, 370560, Note_on_c, 0, 68, 0
2, 370560, Note_on_c, 0, 67, 34
2, 370679, Note_on_c, 0, 67, 0
2, 370679, Note_on_c, 0, 68, 39
2, 370800, Note_on_c, 0, 68, 0
2, 370800, Note_on_c, 0, 68, 33
2, 370920, Note_on_c, 0, 68, 0
2, 370920, Note_on_c, 0, 67, 32
2, 370980, Note_on_c, 0, 73, 0
2, 370980, Note_on_c, 0, 71, 23
2, 371039, Note_on_c, 0, 67, 0
2, 371039, Note_on_c, 0, 68, 35
2, 371160, Note_on_c, 0, 68, 0
2, 371160, Note_on_c, 0, 71, 0
2, 371160, Note_on_c, 0, 64, 0
2, 371160, Note_on_c, 0, 69, 27
2, 371160, Note_on_c, 0, 69, 41
2, 371160, Note_on_c, 0, 64, 81
2, 371520, Note_on_c, 0, 69, 0
2, 371520, Note_on_c, 0, 76, 40
2, 371880, Note_on_c, 0, 76, 0
2, 371880, Note_on_c, 0, 69, 35
2, 372060, Note_on_c, 0, 64, 0
2, 372060, Note_on_c, 0, 69, 0
2, 372420, Note_on_c, 0, 69, 0
2, 372420, Note_on_c, 0, 67, 46
2, 372600, Note_on_c, 0, 67, 0
2, 372600, Note_on_c, 0, 67, 68
2, 372600, Note_on_c, 0, 64, 68
2, 372600, Note_on_c, 0, 61, 88
2, 373320, Note_on_c, 0, 67, 0
2, 373320, Note_on_c, 0, 66, 52
2, 373440, Note_on_c, 0, 61, 0
2, 373440, Note_on_c, 0, 60, 95
2, 373544, Note_on_c, 0, 60, 0
2, 373559, Note_on_c, 0, 61, 99
2, 373665, Note_on_c, 0, 61, 0
2, 373680, Note_on_c, 0, 61, 101
2, 373784, Note_on_c, 0, 61, 0
2, 373800, Note_on_c, 0, 60, 92
2, 373904, Note_on_c, 0, 60, 0
2, 373919, Note_on_c, 0, 61, 102
2, 374025, Note_on_c, 0, 61, 0
2, 374040, Note_on_c, 0, 66, 0
2, 374040, Note_on_c, 0, 64, 0
2, 374040, Note_on_c, 0, 65, 54
2, 374040, Note_on_c, 0, 62, 94
2, 374220, Note_on_c, 0, 65, 0
2, 374220, Note_on_c, 0, 66, 56
2, 374400, Note_on_c, 0, 74, 82
2, 375033, Note_on_c, 0, 74, 0
2, 375120, Note_on_c, 0, 73, 87
2, 375437, Note_on_c, 0, 73, 0
2, 375480, Note_on_c, 0, 70, 82
2, 375797, Note_on_c, 0, 70, 0
2, 375840, Note_on_c, 0, 69, 77
2, 376380, Note_on_c, 0, 69, 0
2, 376380, Note_on_c, 0, 66, 0
2, 376380, Note_on_c, 0, 62, 0
2, 376560, Note_on_c, 0, 74, 71
2, 376560, Note_on_c, 0, 62, 72
2, 376877, Note_on_c, 0, 62, 0
2, 376877, Note_on_c, 0, 74, 0
2, 376920, Note_on_c, 0, 74, 68
2, 376920, Note_on_c, 0, 64, 76
2, 376920, Note_on_c, 0, 67, 76
2, 376920, Note_on_c, 0, 62, 70
2, 377040, Note_on_c, 0, 62, 0
2, 377040, Note_on_c, 0, 74, 0
2, 377040, Note_on_c, 0, 73, 63
2, 377040, Note_on_c, 0, 61, 63
2, 377237, Note_on_c, 0, 67, 0
2, 377237, Note_on_c, 0, 64, 0
2, 377280, Note_on_c, 0, 73, 0
2, 377280, Note_on_c, 0, 61, 0
2, 377280, Note_on_c, 0, 74, 68
2, 377280, Note_on_c, 0, 65, 86
2, 377280, Note_on_c, 0, 68, 86
2, 377280, Note_on_c, 0, 62, 68
2, 377400, Note_on_c, 0, 62, 0
2, 377400, Note_on_c, 0, 74, 0
2, 377400, Note_on_c, 0, 73, 69
2, 377400, Note_on_c, 0, 61, 69
2, 377597, Note_on_c, 0, 68, 0
2, 377597, Note_on_c, 0, 65, 0
2, 377640, Note_on_c, 0, 73, 0
2, 377640, Note_on_c, 0, 61, 0
2, 377640, Note_on_c, 0, 74, 72
2, 377640, Note_on_c, 0, 66, 90
2, 377640, Note_on_c, 0, 69, 90
2, 377640, Note_on_c, 0, 62, 72
2, 377760, Note_on_c, 0, 62, 0
2, 377760, Note_on_c, 0, 74, 0
2, 377760, Note_on_c, 0, 73, 73
2, 377760, Note_on_c, 0, 61, 73
2, 377957, Note_on_c, 0, 69, 0
2, 377957, Note_on_c, 0, 66, 0
2, 378000, Note_on_c, 0, 73, 0
2, 378000, Note_on_c, 0, 61, 0
2, 378000, Note_on_c, 0, 73, 75
2, 378000, Note_on_c, 0, 65, 93
2, 378000, Note_on_c, 0, 70, 93
2, 378000, Note_on_c, 0, 61, 75
2, 378180, Note_on_c, 0, 61, 0
2, 378180, Note_on_c, 0, 73, 0
2, 378180, Note_on_c, 0, 74, 77
2, 378180, Note_on_c, 0, 62, 77
2, 378317, Note_on_c, 0, 70, 0
2, 378317, Note_on_c, 0, 65, 0
2, 378360, Note_on_c, 0, 74, 0
2, 378360, Note_on_c, 0, 62, 0
2, 378360, Note_on_c, 0, 76, 79
2, 378360, Note_on_c, 0, 70, 97
2, 378360, Note_on_c, 0, 74, 97
2, 378360, Note_on_c, 0, 64, 79
2, 378480, Note_on_c, 0, 64, 0
2, 378480, Note_on_c, 0, 76, 0
2, 378480, Note_on_c, 0, 77, 80
2, 378480, Note_on_c, 0, 65, 80
2, 378599, Note_on_c, 0, 65, 0
2, 378599, Note_on_c, 0, 77, 0
2, 378599, Note_on_c, 0, 82, 111
2, 378599, Note_on_c, 0, 70, 110
2, 378900, Note_on_c, 0, 82, 0
2, 378900, Note_on_c, 0, 70, 0
2, 378900, Note_on_c, 0, 81, 78
2, 378900, Note_on_c, 0, 69, 78
2, 379058, Note_on_c, 0, 69, 0
2, 379058, Note_on_c, 0, 81, 0
2, 379080, Note_on_c, 0, 78, 74
2, 379080, Note_on_c, 0, 66, 74
2, 379238, Note_on_c, 0, 66, 0
2, 379238, Note_on_c, 0, 78, 0
2, 379260, Note_on_c, 0, 77, 74
2, 379260, Note_on_c, 0, 65, 77
2, 379309, Note_on_c, 0, 74, 0
2, 379309, Note_on_c, 0, 70, 0
2, 379418, Note_on_c, 0, 77, 0
2, 379418, Note_on_c, 0, 65, 0
2, 379440, Note_on_c, 0, 74, 56
2, 379440, Note_on_c, 0, 62, 75
2, 379440, Note_on_c, 0, 65, 75
2, 379440, Note_on_c, 0, 62, 59
2, 379560, Note_on_c, 0, 62, 0
2, 379560, Note_on_c, 0, 74, 0
2, 379560, Note_on_c, 0, 73, 63
2, 379560, Note_on_c, 0, 61, 65
2, 379757, Note_on_c, 0, 65, 0
2, 379757, Note_on_c, 0, 62, 0
2, 379800, Note_on_c, 0, 73, 0
2, 379800, Note_on_c, 0, 61, 0
2, 379800, Note_on_c, 0, 74, 68
2, 379800, Note_on_c, 0, 64, 86
2, 379800, Note_on_c, 0, 67, 86
2, 379800, Note_on_c, 0, 62, 68
2, 379920, Note_on_c, 0, 62, 0
2, 379920, Note_on_c, 0, 74, 0
2, 379920, Note_on_c, 0, 73, 69
2, 379920, Note_on_c, 0, 61, 69
2, 380117, Note_on_c, 0, 67, 0
2, 380117, Note_on_c, 0, 64, 0
2, 380160, Note_on_c, 0, 73, 0
2, 380160, Note_on_c, 0, 61, 0
2, 380160, Note_on_c, 0, 74, 72
2, 380160, Note_on_c, 0, 65, 90
2, 380160, Note_on_c, 0, 68, 90
2, 380160, Note_on_c, 0, 62, 72
2, 380280, Note_on_c, 0, 62, 0
2, 380280, Note_on_c, 0, 74, 0
2, 380280, Note_on_c, 0, 73, 73
2, 380280, Note_on_c, 0, 61, 73
2, 380477, Note_on_c, 0, 68, 0
2, 380477, Note_on_c, 0, 65, 0
2, 380520, Note_on_c, 0, 73, 0
2, 380520, Note_on_c, 0, 61, 0
2, 380520, Note_on_c, 0, 73, 75
2, 380520, Note_on_c, 0, 64, 93
2, 380520, Note_on_c, 0, 69, 93
2, 380520, Note_on_c, 0, 61, 75
2, 380700, Note_on_c, 0, 61, 0
2, 380700, Note_on_c, 0, 73, 0
2, 380700, Note_on_c, 0, 74, 77
2, 380700, Note_on_c, 0, 62, 77
2, 380837, Note_on_c, 0, 69, 0
2, 380837, Note_on_c, 0, 64, 0
2, 380880, Note_on_c, 0, 74, 0
2, 380880, Note_on_c, 0, 62, 0
2, 380880, Note_on_c, 0, 75, 79
2, 380880, Note_on_c, 0, 69, 97
2, 380880, Note_on_c, 0, 73, 97
2, 380880, Note_on_c, 0, 63, 79
2, 381000, Note_on_c, 0, 63, 0
2, 381000, Note_on_c, 0, 75, 0
2, 381000, Note_on_c, 0, 76, 80
2, 381000, Note_on_c, 0, 64, 80
2, 381119, Note_on_c, 0, 64, 0
2, 381119, Note_on_c, 0, 76, 0
2, 381119, Note_on_c, 0, 81, 107
2, 381119, Note_on_c, 0, 69, 110
2, 381420, Note_on_c, 0, 81, 0
2, 381420, Note_on_c, 0, 69, 0
2, 381420, Note_on_c, 0, 80, 82
2, 381420, Note_on_c, 0, 68, 82
2, 381578, Note_on_c, 0, 68, 0
2, 381578, Note_on_c, 0, 80, 0
2, 381600, Note_on_c, 0, 77, 76
2, 381600, Note_on_c, 0, 65, 76
2, 381758, Note_on_c, 0, 65, 0
2, 381758, Note_on_c, 0, 77, 0
2, 381780, Note_on_c, 0, 76, 78
2, 381780, Note_on_c, 0, 64, 77
2, 381829, Note_on_c, 0, 73, 0
2, 381829, Note_on_c, 0, 69, 0
2, 381938, Note_on_c, 0, 76, 0
2, 381938, Note_on_c, 0, 64, 0
2, 381960, Note_on_c, 0, 81, 77
2, 381960, Note_on_c, 0, 72, 92
2, 381960, Note_on_c, 0, 70, 78
2, 381960, Note_on_c, 0, 69, 79
2, 382080, Note_on_c, 0, 69, 0
2, 382080, Note_on_c, 0, 81, 0
2, 382080, Note_on_c, 0, 79, 69
2, 382080, Note_on_c, 0, 67, 62
2, 382277, Note_on_c, 0, 72, 0
2, 382320, Note_on_c, 0, 67, 0
2, 382320, Note_on_c, 0, 79, 0
2, 382320, Note_on_c, 0, 81, 68
2, 382320, Note_on_c, 0, 73, 86
2, 382320, Note_on_c, 0, 69, 68
2, 382440, Note_on_c, 0, 69, 0
2, 382440, Note_on_c, 0, 81, 0
2, 382440, Note_on_c, 0, 79, 69
2, 382440, Note_on_c, 0, 67, 69
2, 382637, Note_on_c, 0, 73, 0
2, 382680, Note_on_c, 0, 67, 0
2, 382680, Note_on_c, 0, 79, 0
2, 382680, Note_on_c, 0, 81, 72
2, 382680, Note_on_c, 0, 74, 90
2, 382680, Note_on_c, 0, 69, 72
2, 382800, Note_on_c, 0, 69, 0
2, 382800, Note_on_c, 0, 81, 0
2, 382800, Note_on_c, 0, 79, 73
2, 382800, Note_on_c, 0, 67, 73
2, 382997, Note_on_c, 0, 74, 0
2, 383040, Note_on_c, 0, 70, 0
2, 383040, Note_on_c, 0, 79, 0
2, 383040, Note_on_c, 0, 67, 0
2, 383040, Note_on_c, 0, 78, 75
2, 383040, Note_on_c, 0, 70, 93
2, 383040, Note_on_c, 0, 75, 93
2, 383040, Note_on_c, 0, 66, 75
2, 383220, Note_on_c, 0, 66, 0
2, 383220, Note_on_c, 0, 78, 0
2, 383220, Note_on_c, 0, 79, 77
2, 383220, Note_on_c, 0, 67, 77
2, 383357, Note_on_c, 0, 75, 0
2, 383357, Note_on_c, 0, 70, 0
2, 383400, Note_on_c, 0, 79, 0
2, 383400, Note_on_c, 0, 67, 0
2, 383400, Note_on_c, 0, 81, 79
2, 383400, Note_on_c, 0, 75, 97
2, 383400, Note_on_c, 0, 79, 97
2, 383400, Note_on_c, 0, 69, 79
2, 383520, Note_on_c, 0, 69, 0
2, 383520, Note_on_c, 0, 81, 0
2, 383520, Note_on_c, 0, 82, 80
2, 383520, Note_on_c, 0, 70, 80
2, 383639, Note_on_c, 0, 70, 0
2, 383639, Note_on_c, 0, 82, 0
2, 383639, Note_on_c, 0, 87, 110
2, 383639, Note_on_c, 0, 75, 112
2, 383940, Note_on_c, 0, 87, 0
2, 383940, Note_on_c, 0, 75, 0
2, 383940, Note_on_c, 0, 86, 82
2, 383940, Note_on_c, 0, 74, 82
2, 384098, Note_on_c, 0, 74, 0
2, 384098, Note_on_c, 0, 86, 0
2, 384120, Note_on_c, 0, 83, 76
2, 384120, Note_on_c, 0, 71, 76
2, 384278, Note_on_c, 0, 71, 0
2, 384278, Note_on_c, 0, 83, 0
2, 384300, Note_on_c, 0, 82, 78
2, 384300, Note_on_c, 0, 70, 78
2, 384349, Note_on_c, 0, 79, 0
2, 384349, Note_on_c, 0, 75, 0
2, 384458, Note_on_c, 0, 82, 0
2, 384458, Note_on_c, 0, 70, 0
2, 384480, Note_on_c, 0, 81, 68
2, 384480, Note_on_c, 0, 73, 86
2, 384480, Note_on_c, 0, 70, 86
2, 384480, Note_on_c, 0, 69, 68
2, 384600, Note_on_c, 0, 69, 0
2, 384600, Note_on_c, 0, 81, 0
2, 384600, Note_on_c, 0, 79, 69
2, 384600, Note_on_c, 0, 67, 69
2, 384797, Note_on_c, 0, 73, 0
2, 384840, Note_on_c, 0, 67, 0
2, 384840, Note_on_c, 0, 79, 0
2, 384840, Note_on_c, 0, 81, 71
2, 384840, Note_on_c, 0, 72, 89
2, 384840, Note_on_c, 0, 69, 71
2, 384960, Note_on_c, 0, 69, 0
2, 384960, Note_on_c, 0, 81, 0
2, 384960, Note_on_c, 0, 79, 72
2, 384960, Note_on_c, 0, 67, 72
2, 385157, Note_on_c, 0, 72, 0
2, 385200, Note_on_c, 0, 67, 0
2, 385200, Note_on_c, 0, 79, 0
2, 385200, Note_on_c, 0, 81, 74
2, 385200, Note_on_c, 0, 73, 92
2, 385200, Note_on_c, 0, 69, 74
2, 385320, Note_on_c, 0, 69, 0
2, 385320, Note_on_c, 0, 81, 0
2, 385320, Note_on_c, 0, 79, 75
2, 385320, Note_on_c, 0, 67, 75
2, 385517, Note_on_c, 0, 73, 0
2, 385560, Note_on_c, 0, 70, 0
2, 385560, Note_on_c, 0, 79, 0
2, 385560, Note_on_c, 0, 67, 0
2, 385560, Note_on_c, 0, 78, 76
2, 385560, Note_on_c, 0, 69, 94
2, 385560, Note_on_c, 0, 74, 94
2, 385560, Note_on_c, 0, 66, 76
2, 385740, Note_on_c, 0, 66, 0
2, 385740, Note_on_c, 0, 78, 0
2, 385740, Note_on_c, 0, 79, 78
2, 385740, Note_on_c, 0, 67, 78
2, 385877, Note_on_c, 0, 74, 0
2, 385877, Note_on_c, 0, 69, 0
2, 385920, Note_on_c, 0, 79, 0
2, 385920, Note_on_c, 0, 67, 0
2, 385920, Note_on_c, 0, 80, 79
2, 385920, Note_on_c, 0, 74, 97
2, 385920, Note_on_c, 0, 78, 97
2, 385920, Note_on_c, 0, 68, 79
2, 386040, Note_on_c, 0, 68, 0
2, 386040, Note_on_c, 0, 80, 0
2, 386040, Note_on_c, 0, 81, 80
2, 386040, Note_on_c, 0, 69, 80
2, 386159, Note_on_c, 0, 69, 0
2, 386159, Note_on_c, 0, 81, 0
2, 386159, Note_on_c, 0, 86, 107
2, 386159, Note_on_c, 0, 74, 106
2, 386460, Note_on_c, 0, 86, 0
2, 386460, Note_on_c, 0, 74, 0
2, 386460, Note_on_c, 0, 85, 82
2, 386460, Note_on_c, 0, 73, 82
2, 386618, Note_on_c, 0, 73, 0
2, 386618, Note_on_c, 0, 85, 0
2, 386640, Note_on_c, 0, 82, 76
2, 386640, Note_on_c, 0, 70, 76
2, 386798, Note_on_c, 0, 70, 0
2, 386798, Note_on_c, 0, 82, 0
2, 386820, Note_on_c, 0, 81, 78
2, 386820, Note_on_c, 0, 69, 78
2, 386869, Note_on_c, 0, 78, 0
2, 386869, Note_on_c, 0, 74, 0
2, 386978, Note_on_c, 0, 81, 0
2, 386978, Note_on_c, 0, 69, 0
2, 387000, Note_on_c, 0, 80, 68
2, 387000, Note_on_c, 0, 74, 86
2, 387000, Note_on_c, 0, 78, 86
2, 387000, Note_on_c, 0, 68, 68
2, 387180, Note_on_c, 0, 68, 0
2, 387180, Note_on_c, 0, 80, 0
2, 387180, Note_on_c, 0, 81, 69
2, 387180, Note_on_c, 0, 69, 69
2, 387360, Note_on_c, 0, 69, 0
2, 387360, Note_on_c, 0, 81, 0
2, 387360, Note_on_c, 0, 86, 70
2, 387360, Note_on_c, 0, 74, 70
2, 387900, Note_on_c, 0, 86, 0
2, 387900, Note_on_c, 0, 74, 0
2, 387900, Note_on_c, 0, 85, 72
2, 387900, Note_on_c, 0, 73, 72
2, 388058, Note_on_c, 0, 73, 0
2, 388058, Note_on_c, 0, 85, 0
2, 388080, Note_on_c, 0, 82, 73
2, 388080, Note_on_c, 0, 70, 73
2, 388238, Note_on_c, 0, 70, 0
2, 388238, Note_on_c, 0, 82, 0
2, 388260, Note_on_c, 0, 81, 74
2, 388260, Note_on_c, 0, 69, 74
2, 388418, Note_on_c, 0, 69, 0
2, 388418, Note_on_c, 0, 81, 0
2, 388440, Note_on_c, 0, 78, 0
2, 388440, Note_on_c, 0, 74, 0
2, 388440, Note_on_c, 0, 81, 75
2, 388440, Note_on_c, 0, 75, 92
2, 388440, Note_on_c, 0, 79, 92
2, 388440, Note_on_c, 0, 69, 75
2, 388620, Note_on_c, 0, 69, 0
2, 388620, Note_on_c, 0, 81, 0
2, 388620, Note_on_c, 0, 82, 75
2, 388620, Note_on_c, 0, 70, 75
2, 388800, Note_on_c, 0, 70, 0
2, 388800, Note_on_c, 0, 82, 0
2, 388800, Note_on_c, 0, 87, 76
2, 388800, Note_on_c, 0, 75, 76
2, 388980, Note_on_c, 0, 87, 0
2, 388980, Note_on_c, 0, 75, 0
2, 388980, Note_on_c, 0, 86, 77
2, 388980, Note_on_c, 0, 74, 77
2, 389160, Note_on_c, 0, 74, 0
2, 389160, Note_on_c, 0, 86, 0
2, 389160, Note_on_c, 0, 83, 78
2, 389160, Note_on_c, 0, 71, 78
2, 389340, Note_on_c, 0, 71, 0
2, 389340, Note_on_c, 0, 83, 0
2, 389340, Note_on_c, 0, 82, 79
2, 389340, Note_on_c, 0, 70, 79
2, 389520, Note_on_c, 0, 70, 0
2, 389520, Note_on_c, 0, 75, 0
2, 389520, Note_on_c, 0, 79, 0
2, 389520, Note_on_c, 0, 82, 0
2, 389520, Note_on_c, 0, 79, 79
2, 389520, Note_on_c, 0, 73, 97
2, 389520, Note_on_c, 0, 79, 97
2, 389520, Note_on_c, 0, 67, 79
2, 389640, Note_on_c, 0, 67, 0
2, 389640, Note_on_c, 0, 79, 0
2, 389640, Note_on_c, 0, 80, 80
2, 389640, Note_on_c, 0, 68, 80
2, 389759, Note_on_c, 0, 68, 0
2, 389759, Note_on_c, 0, 80, 0
2, 389759, Note_on_c, 0, 81, 80
2, 389759, Note_on_c, 0, 69, 80
2, 389880, Note_on_c, 0, 69, 0
2, 389880, Note_on_c, 0, 73, 0
2, 389880, Note_on_c, 0, 79, 0
2, 389880, Note_on_c, 0, 81, 0
2, 389880, Note_on_c, 0, 86, 81
2, 389880, Note_on_c, 0, 74, 99
2, 389880, Note_on_c, 0, 78, 99
2, 389880, Note_on_c, 0, 74, 81
2, 390354, Note_on_c, 0, 74, 0
2, 390354, Note_on_c, 0, 86, 0
2, 390420, Note_on_c, 0, 85, 90
2, 390420, Note_on_c, 0, 73, 87
2, 390578, Note_on_c, 0, 73, 0
2, 390578, Note_on_c, 0, 85, 0
2, 390600, Note_on_c, 0, 82, 75
2, 390600, Note_on_c, 0, 70, 73
2, 390780, Note_on_c, 0, 70, 0
2, 390780, Note_on_c, 0, 82, 0
2, 390780, Note_on_c, 0, 81, 72
2, 390780, Note_on_c, 0, 69, 77
2, 390960, Note_on_c, 0, 69, 0
2, 390960, Note_on_c, 0, 74, 0
2, 390960, Note_on_c, 0, 78, 0
2, 390960, Note_on_c, 0, 81, 0
2, 390960, Note_on_c, 0, 79, 76
2, 390960, Note_on_c, 0, 69, 84
2, 390960, Note_on_c, 0, 74, 84
2, 390960, Note_on_c, 0, 67, 73
2, 391140, Note_on_c, 0, 67, 0
2, 391140, Note_on_c, 0, 79, 0
2, 391140, Note_on_c, 0, 78, 73
2, 391140, Note_on_c, 0, 66, 78
2, 391320, Note_on_c, 0, 66, 0
2, 391320, Note_on_c, 0, 69, 0
2, 391320, Note_on_c, 0, 74, 0
2, 391320, Note_on_c, 0, 78, 0
2, 391320, Note_on_c, 0, 78, 81
2, 391320, Note_on_c, 0, 67, 99
2, 391320, Note_on_c, 0, 70, 99
2, 391320, Note_on_c, 0, 66, 81
2, 391500, Note_on_c, 0, 66, 0
2, 391500, Note_on_c, 0, 78, 0
2, 391500, Note_on_c, 0, 75, 77
2, 391500, Note_on_c, 0, 63, 77
2, 391860, Note_on_c, 0, 63, 0
2, 391860, Note_on_c, 0, 75, 0
2, 391860, Note_on_c, 0, 74, 77
2, 391860, Note_on_c, 0, 62, 74
2, 392018, Note_on_c, 0, 62, 0
2, 392018, Note_on_c, 0, 74, 0
2, 392040, Note_on_c, 0, 70, 0
2, 392040, Note_on_c, 0, 67, 0
2, 392040, Note_on_c, 0, 74, 68
2, 392040, Note_on_c, 0, 64, 86
2, 392040, Note_on_c, 0, 67, 86
2, 392040, Note_on_c, 0, 62, 68
2, 392220, Note_on_c, 0, 62, 0
2, 392220, Note_on_c, 0, 74, 0
2, 392220, Note_on_c, 0, 73, 64
2, 392220, Note_on_c, 0, 61, 64
2, 392580, Note_on_c, 0, 61, 0
2, 392580, Note_on_c, 0, 73, 0
2, 392580, Note_on_c, 0, 71, 66
2, 392580, Note_on_c, 0, 59, 67
2, 392738, Note_on_c, 0, 59, 0
2, 392738, Note_on_c, 0, 71, 0
2, 392760, Note_on_c, 0, 67, 0
2, 392760, Note_on_c, 0, 64, 0
2, 392760, Note_on_c, 0, 74, 88
2, 392760, Note_on_c, 0, 66, 67
2, 392760, Note_on_c, 0, 62, 89
2, 393300, Note_on_c, 0, 62, 0
2, 393300, Note_on_c, 0, 74, 0
2, 393300, Note_on_c, 0, 73, 77
2, 393300, Note_on_c, 0, 61, 76
2, 393480, Note_on_c, 0, 61, 0
2, 393480, Note_on_c, 0, 73, 0
2, 393480, Note_on_c, 0, 70, 72
2, 393480, Note_on_c, 0, 58, 83
2, 393660, Note_on_c, 0, 58, 0
2, 393660, Note_on_c, 0, 70, 0
2, 393660, Note_on_c, 0, 69, 75
2, 393660, Note_on_c, 0, 57, 79
2, 393840, Note_on_c, 0, 57, 0
2, 393840, Note_on_c, 0, 69, 0
2, 393840, Note_on_c, 0, 66, 0
2, 393840, Note_on_c, 0, 67, 74
2, 393840, Note_on_c, 0, 58, 64
2, 393840, Note_on_c, 0, 55, 83
2, 394020, Note_on_c, 0, 55, 0
2, 394020, Note_on_c, 0, 67, 0
2, 394020, Note_on_c, 0, 66, 76
2, 394020, Note_on_c, 0, 54, 78
2, 394200, Note_on_c, 0, 54, 0
2, 394200, Note_on_c, 0, 66, 0
2, 394200, Note_on_c, 0, 58, 0
2, 394200, Note_on_c, 0, 66, 82
2, 394200, Note_on_c, 0, 55, 73
2, 394200, Note_on_c, 0, 59, 73
2, 394200, Note_on_c, 0, 54, 82
2, 394380, Note_on_c, 0, 54, 0
2, 394380, Note_on_c, 0, 66, 0
2, 394380, Note_on_c, 0, 63, 79
2, 394380, Note_on_c, 0, 51, 79
2, 394560, Note_on_c, 0, 51, 0
2, 394560, Note_on_c, 0, 63, 0
2, 394560, Note_on_c, 0, 62, 76
2, 394560, Note_on_c, 0, 50, 76
2, 394740, Note_on_c, 0, 50, 0
2, 394740, Note_on_c, 0, 62, 0
2, 394740, Note_on_c, 0, 63, 73
2, 394740, Note_on_c, 0, 51, 73
2, 394898, Note_on_c, 0, 51, 0
2, 394898, Note_on_c, 0, 63, 0
2, 394920, Note_on_c, 0, 59, 0
2, 394920, Note_on_c, 0, 55, 0
2, 394920, Note_on_c, 0, 62, 63
2, 394920, Note_on_c, 0, 50, 68
2, 395100, Note_on_c, 0, 50, 0
2, 395100, Note_on_c, 0, 62, 0
2, 395100, Note_on_c, 0, 61, 65
2, 395100, Note_on_c, 0, 49, 68
2, 395280, Note_on_c, 0, 49, 0
2, 395280, Note_on_c, 0, 61, 0
2, 395280, Note_on_c, 0, 59, 66
2, 395280, Note_on_c, 0, 49, 77
2, 395280, Note_on_c, 0, 55, 77
2, 395460, Note_on_c, 0, 59, 0
2, 395460, Note_on_c, 0, 57, 65
2, 395640, Note_on_c, 0, 57, 0
2, 395640, Note_on_c, 0, 55, 0
2, 395640, Note_on_c, 0, 49, 0
2, 395640, Note_on_c, 0, 56, 67
2, 395640, Note_on_c, 0, 50, 65
2, 395640, Note_on_c, 0, 54, 65
2, 395820, Note_on_c, 0, 54, 0
2, 395820, Note_on_c, 0, 50, 0
2, 395820, Note_on_c, 0, 56, 0
2, 395820, Note_on_c, 0, 57, 70
2, 396000, Note_on_c, 0, 57, 0
2, 396000, Note_on_c, 0, 62, 91
2, 396000, Note_on_c, 0, 50, 66
2, 396000, Note_on_c, 0, 54, 66
2, 396540, Note_on_c, 0, 54, 0
2, 396540, Note_on_c, 0, 50, 0
2, 396540, Note_on_c, 0, 62, 0
2, 396540, Note_on_c, 0, 61, 81
2, 396698, Note_on_c, 0, 61, 0
2, 396720, Note_on_c, 0, 58, 77
2, 396878, Note_on_c, 0, 58, 0
2, 396900, Note_on_c, 0, 57, 75
2, 397058, Note_on_c, 0, 57, 0
2, 397800, Note_on_c, 0, 55, 33
2, 398520, Note_on_c, 0, 55, 0
2, 398520, Note_on_c, 0, 54, 37
2, 399060, Note_on_c, 0, 54, 0
2, 401220, Note_on_c, 0, 85, 99
2, 401220, Note_on_c, 0, 73, 98
2, 401265, Note_on_c, 0, 73, 0
2, 401265, Note_on_c, 0, 85, 0
2, 401265, Note_on_c, 0, 86, 111
2, 401265, Note_on_c, 0, 74, 111
2, 401310, Note_on_c, 0, 74, 0
2, 401310, Note_on_c, 0, 86, 0
2, 401310, Note_on_c, 0, 87, 111
2, 401310, Note_on_c, 0, 75, 111
2, 401355, Note_on_c, 0, 75, 0
2, 401355, Note_on_c, 0, 87, 0
2, 401355, Note_on_c, 0, 89, 111
2, 401355, Note_on_c, 0, 77, 111
2, 401400, Note_on_c, 0, 77, 0
2, 401400, Note_on_c, 0, 89, 0
2, 401400, Note_on_c, 0, 82, 112
2, 401400, Note_on_c, 0, 87, 112
2, 401400, Note_on_c, 0, 70, 112
2, 401400, Note_on_c, 0, 75, 112
2, 401580, Note_on_c, 0, 75, 0
2, 401580, Note_on_c, 0, 82, 0
2, 401580, Note_on_c, 0, 87, 0
2, 401580, Note_on_c, 0, 70, 0
2, 402480, Note_on_c, 0, 86, 99
2, 402480, Note_on_c, 0, 74, 101
2, 402570, Note_on_c, 0, 74, 0
2, 402570, Note_on_c, 0, 86, 0
2, 402570, Note_on_c, 0, 87, 111
2, 402570, Note_on_c, 0, 75, 111
2, 402660, Note_on_c, 0, 75, 0
2, 402660, Note_on_c, 0, 87, 0
2, 402660, Note_on_c, 0, 88, 111
2, 402660, Note_on_c, 0, 76, 111
2, 402750, Note_on_c, 0, 76, 0
2, 402750, Note_on_c, 0, 88, 0
2, 402750, Note_on_c, 0, 89, 111
2, 402750, Note_on_c, 0, 77, 111
2, 402840, Note_on_c, 0, 77, 0
2, 402840, Note_on_c, 0, 89, 0
2, 402840, Note_on_c, 0, 83, 112
2, 402840, Note_on_c, 0, 88, 112
2, 402840, Note_on_c, 0, 71, 112
2, 402840, Note_on_c, 0, 76, 112
2, 403020, Note_on_c, 0, 76, 0
2, 403020, Note_on_c, 0, 83, 0
2, 403020, Note_on_c, 0, 88, 0
2, 403020, Note_on_c, 0, 71, 0
2, 403920, Note_on_c, 0, 87, 98
2, 403920, Note_on_c, 0, 75, 99
2, 404010, Note_on_c, 0, 75, 0
2, 404010, Note_on_c, 0, 87, 0
2, 404010, Note_on_c, 0, 88, 111
2, 404010, Note_on_c, 0, 76, 111
2, 404100, Note_on_c, 0, 76, 0
2, 404100, Note_on_c, 0, 88, 0
2, 404100, Note_on_c, 0, 89, 111
2, 404100, Note_on_c, 0, 77, 111
2, 404190, Note_on_c, 0, 77, 0
2, 404190, Note_on_c, 0, 89, 0
2, 404190, Note_on_c, 0, 90, 111
2, 404190, Note_on_c, 0, 78, 111
2, 404280, Note_on_c, 0, 78, 0
2, 404280, Note_on_c, 0, 90, 0
2, 404280, Note_on_c, 0, 84, 112
2, 404280, Note_on_c, 0, 89, 112
2, 404280, Note_on_c, 0, 72, 112
2, 404280, Note_on_c, 0, 77, 112
2, 404370, Note_on_c, 0, 77, 0
2, 404370, Note_on_c, 0, 84, 0
2, 404370, Note_on_c, 0, 89, 0
2, 404370, Note_on_c, 0, 72, 0
2, 404370, Note_on_c, 0, 88, 106
2, 404370, Note_on_c, 0, 76, 105
2, 404460, Note_on_c, 0, 76, 0
2, 404460, Note_on_c, 0, 88, 0
2, 404460, Note_on_c, 0, 89, 110
2, 404460, Note_on_c, 0, 77, 111
2, 404550, Note_on_c, 0, 77, 0
2, 404550, Note_on_c, 0, 89, 0
2, 404550, Note_on_c, 0, 91, 111
2, 404550, Note_on_c, 0, 79, 111
2, 404640, Note_on_c, 0, 79, 0
2, 404640, Note_on_c, 0, 91, 0
2, 404640, Note_on_c, 0, 84, 112
2, 404640, Note_on_c, 0, 90, 112
2, 404640, Note_on_c, 0, 72, 112
2, 404640, Note_on_c, 0, 78, 112
2, 404820, Note_on_c, 0, 78, 0
2, 404820, Note_on_c, 0, 84, 0
2, 404820, Note_on_c, 0, 90, 0
2, 404820, Note_on_c, 0, 72, 0
2, 405720, Note_on_c, 0, 87, 99
2, 405720, Note_on_c, 0, 75, 100
2, 405810, Note_on_c, 0, 75, 0
2, 405810, Note_on_c, 0, 87, 0
2, 405810, Note_on_c, 0, 88, 110
2, 405810, Note_on_c, 0, 76, 111
2, 405900, Note_on_c, 0, 76, 0
2, 405900, Note_on_c, 0, 88, 0
2, 405900, Note_on_c, 0, 89, 111
2, 405900, Note_on_c, 0, 77, 111
2, 405990, Note_on_c, 0, 77, 0
2, 405990, Note_on_c, 0, 89, 0
2, 405990, Note_on_c, 0, 90, 111
2, 405990, Note_on_c, 0, 78, 111
2, 406080, Note_on_c, 0, 78, 0
2, 406080, Note_on_c, 0, 90, 0
2, 406080, Note_on_c, 0, 84, 112
2, 406080, Note_on_c, 0, 89, 112
2, 406080, Note_on_c, 0, 72, 112
2, 406080, Note_on_c, 0, 77, 112
2, 406170, Note_on_c, 0, 77, 0
2, 406170, Note_on_c, 0, 84, 0
2, 406170, Note_on_c, 0, 89, 0
2, 406170, Note_on_c, 0, 72, 0
2, 406170, Note_on_c, 0, 88, 108
2, 406170, Note_on_c, 0, 76, 105
2, 406260, Note_on_c, 0, 76, 0
2, 406260, Note_on_c, 0, 88, 0
2, 406260, Note_on_c, 0, 89, 111
2, 406260, Note_on_c, 0, 77, 111
2, 406350, Note_on_c, 0, 77, 0
2, 406350, Note_on_c, 0, 89, 0
2, 406350, Note_on_c, 0, 91, 111
2, 406350, Note_on_c, 0, 79, 111
2, 406440, Note_on_c, 0, 79, 0
2, 406440, Note_on_c, 0, 91, 0
2, 406440, Note_on_c, 0, 84, 112
2, 406440, Note_on_c, 0, 90, 112
2, 406440, Note_on_c, 0, 72, 112
2, 406440, Note_on_c, 0, 78, 112
2, 406530, Note_on_c, 0, 78, 0
2, 406530, Note_on_c, 0, 84, 0
2, 406530, Note_on_c, 0, 90, 0
2, 406530, Note_on_c, 0, 72, 0
2, 406530, Note_on_c, 0, 89, 104
2, 406530, Note_on_c, 0, 77, 104
2, 406620, Note_on_c, 0, 77, 0
2, 406620, Note_on_c, 0, 89, 0
2, 406620, Note_on_c, 0, 90, 111
2, 406620, Note_on_c, 0, 78, 111
2, 406710, Note_on_c, 0, 78, 0
2, 406710, Note_on_c, 0, 90, 0
2, 406710, Note_on_c, 0, 92, 111
2, 406710, Note_on_c, 0, 80, 111
2, 406800, Note_on_c, 0, 80, 0
2, 406800, Note_on_c, 0, 92, 0
2, 406800, Note_on_c, 0, 86, 112
2, 406800, Note_on_c, 0, 91, 112
2, 406800, Note_on_c, 0, 74, 112
2, 406800, Note_on_c, 0, 79, 112
2, 406890, Note_on_c, 0, 79, 0
2, 406890, Note_on_c, 0, 86, 0
2, 406890, Note_on_c, 0, 91, 0
2, 406890, Note_on_c, 0, 74, 0
2, 406890, Note_on_c, 0, 90, 107
2, 406890, Note_on_c, 0, 78, 107
2, 406980, Note_on_c, 0, 78, 0
2, 406980, Note_on_c, 0, 90, 0
2, 406980, Note_on_c, 0, 91, 111
2, 406980, Note_on_c, 0, 79, 111
2, 407070, Note_on_c, 0, 79, 0
2, 407070, Note_on_c, 0, 91, 0
2, 407070, Note_on_c, 0, 93, 111
2, 407070, Note_on_c, 0, 81, 111
2, 407160, Note_on_c, 0, 81, 0
2, 407160, Note_on_c, 0, 93, 0
2, 407160, Note_on_c, 0, 86, 112
2, 407160, Note_on_c, 0, 92, 112
2, 407160, Note_on_c, 0, 74, 112
2, 407160, Note_on_c, 0, 80, 112
2, 407340, Note_on_c, 0, 80, 0
2, 407340, Note_on_c, 0, 86, 0
2, 407340, Note_on_c, 0, 92, 0
2, 407340, Note_on_c, 0, 74, 0
2, 410040, Note_on_c, 0, 68, 39
2, 411307, Note_on_c, 0, 68, 0
2, 411480, Note_on_c, 0, 69, 43
2, 412747, Note_on_c, 0, 69, 0
2, 412920, Note_on_c, 0, 70, 45
2, 413280, Note_on_c, 0, 70, 0
2, 413280, Note_on_c, 0, 74, 45
2, 414000, Note_on_c, 0, 74, 0
2, 414000, Note_on_c, 0, 77, 45
2, 414000, Note_on_c, 0, 65, 45
2, 414317, Note_on_c, 0, 77, 0
2, 414360, Note_on_c, 0, 65, 0
2, 414360, Note_on_c, 0, 82, 51
2, 414360, Note_on_c, 0, 70, 51
2, 414677, Note_on_c, 0, 82, 0
2, 414720, Note_on_c, 0, 70, 0
2, 414720, Note_on_c, 0, 86, 56
2, 414720, Note_on_c, 0, 74, 56
2, 415037, Note_on_c, 0, 86, 0
2, 415080, Note_on_c, 0, 74, 0
2, 415080, Note_on_c, 0, 82, 98
2, 415080, Note_on_c, 0, 86, 98
2, 415080, Note_on_c, 0, 90, 98
2, 415080, Note_on_c, 0, 70, 98
2, 415080, Note_on_c, 0, 74, 98
2, 415080, Note_on_c, 0, 78, 98
2, 415440, Note_on_c, 0, 78, 0
2, 415440, Note_on_c, 0, 86, 0
2, 415440, Note_on_c, 0, 90, 0
2, 415440, Note_on_c, 0, 82, 0
2, 415440, Note_on_c, 0, 74, 0
2, 415440, Note_on_c, 0, 70, 0
2, 415440, Note_on_c, 0, 86, 94
2, 415440, Note_on_c, 0, 74, 94
2, 415800, Note_on_c, 0, 74, 0
2, 415800, Note_on_c, 0, 86, 0
2, 415800, Note_on_c, 0, 82, 90
2, 415800, Note_on_c, 0, 70, 90
2, 416160, Note_on_c, 0, 70, 0
2, 416160, Note_on_c, 0, 82, 0
2, 416160, Note_on_c, 0, 78, 86
2, 416160, Note_on_c, 0, 66, 86
2, 416520, Note_on_c, 0, 66, 0
2, 416520, Note_on_c, 0, 78, 0
2, 416520, Note_on_c, 0, 74, 112
2, 416880, Note_on_c, 0, 74, 0
2, 416880, Note_on_c, 0, 70, 101
2, 417240, Note_on_c, 0, 70, 0
2, 417240, Note_on_c, 0, 74, 62
2, 417557, Note_on_c, 0, 74, 0
2, 417600, Note_on_c, 0, 77, 67
2, 418233, Note_on_c, 0, 77, 0
2, 418320, Note_on_c, 0, 82, 45
2, 418320, Note_on_c, 0, 70, 45
2, 418680, Note_on_c, 0, 70, 0
2, 418680, Note_on_c, 0, 82, 0
2, 418680, Note_on_c, 0, 86, 52
2, 418680, Note_on_c, 0, 74, 52
2, 419040, Note_on_c, 0, 74, 0
2, 419040, Note_on_c, 0, 86, 0
2, 419040, Note_on_c, 0, 89, 91
2, 419040, Note_on_c, 0, 77, 90
2, 419400, Note_on_c, 0, 77, 0
2, 419400, Note_on_c, 0, 89, 0
2, 419400, Note_on_c, 0, 86, 111
2, 419400, Note_on_c, 0, 90, 111
2, 419400, Note_on_c, 0, 94, 111
2, 419400, Note_on_c, 0, 74, 111
2, 419400, Note_on_c, 0, 78, 111
2, 419400, Note_on_c, 0, 82, 111
2, 419760, Note_on_c, 0, 82, 0
2, 419760, Note_on_c, 0, 90, 0
2, 419760, Note_on_c, 0, 94, 0
2, 419760, Note_on_c, 0, 86, 0
2, 419760, Note_on_c, 0, 78, 0
2, 419760, Note_on_c, 0, 74, 0
2, 419760, Note_on_c, 0, 90, 109
2, 419760, Note_on_c, 0, 78, 109
2, 420120, Note_on_c, 0, 78, 0
2, 420120, Note_on_c, 0, 90, 0
2, 420120, Note_on_c, 0, 86, 106
2, 420120, Note_on_c, 0, 74, 106
2, 420480, Note_on_c, 0, 74, 0
2, 420480, Note_on_c, 0, 86, 0
2, 420480, Note_on_c, 0, 82, 104
2, 420480, Note_on_c, 0, 70, 104
2, 420840, Note_on_c, 0, 70, 0
2, 420840, Note_on_c, 0, 82, 0
2, 420840, Note_on_c, 0, 78, 101
2, 420840, Note_on_c, 0, 66, 101
2, 420840, Note_on_c, 0, 70, 101
2, 421200, Note_on_c, 0, 70, 0
2, 421200, Note_on_c, 0, 66, 0
2, 421200, Note_on_c, 0, 78, 0
2, 421200, Note_on_c, 0, 74, 108
2, 421200, Note_on_c, 0, 62, 102
2, 421560, Note_on_c, 0, 62, 0
2, 421560, Note_on_c, 0, 74, 0
2, 421560, Note_on_c, 0, 62, 29
2, 421560, Note_on_c, 0, 60, 48
2, 422100, Note_on_c, 0, 62, 0
2, 422100, Note_on_c, 0, 62, 37
2, 422280, Note_on_c, 0, 62, 0
2, 422280, Note_on_c, 0, 60, 40
2, 422460, Note_on_c, 0, 60, 0
2, 422460, Note_on_c, 0, 62, 48
2, 422640, Note_on_c, 0, 62, 0
2, 422640, Note_on_c, 0, 58, 45
2, 422820, Note_on_c, 0, 58, 0
2, 422820, Note_on_c, 0, 57, 43
2, 422827, Note_on_c, 0, 60, 0
2, 423000, Note_on_c, 0, 57, 0
2, 423000, Note_on_c, 0, 62, 52
2, 423000, Note_on_c, 0, 60, 52
2, 423540, Note_on_c, 0, 62, 0
2, 423540, Note_on_c, 0, 62, 43
2, 423720, Note_on_c, 0, 62, 0
2, 423720, Note_on_c, 0, 60, 42
2, 423900, Note_on_c, 0, 60, 0
2, 423900, Note_on_c, 0, 62, 46
2, 424080, Note_on_c, 0, 62, 0
2, 424080, Note_on_c, 0, 58, 45
2, 424260, Note_on_c, 0, 58, 0
2, 424260, Note_on_c, 0, 57, 45
2, 424267, Note_on_c, 0, 60, 0
2, 424440, Note_on_c, 0, 57, 0
2, 424440, Note_on_c, 0, 62, 55
2, 424440, Note_on_c, 0, 60, 60
2, 424980, Note_on_c, 0, 62, 0
2, 424980, Note_on_c, 0, 62, 45
2, 425073, Note_on_c, 0, 60, 0
2, 425160, Note_on_c, 0, 62, 0
2, 425160, Note_on_c, 0, 63, 49
2, 425160, Note_on_c, 0, 62, 49
2, 425700, Note_on_c, 0, 63, 0
2, 425700, Note_on_c, 0, 63, 60
2, 425793, Note_on_c, 0, 62, 0
2, 425880, Note_on_c, 0, 63, 0
2, 425880, Note_on_c, 0, 64, 61
2, 425880, Note_on_c, 0, 62, 71
2, 426420, Note_on_c, 0, 64, 0
2, 426420, Note_on_c, 0, 64, 54
2, 426513, Note_on_c, 0, 62, 0
2, 426600, Note_on_c, 0, 64, 0
2, 426600, Note_on_c, 0, 65, 52
2, 426600, Note_on_c, 0, 62, 52
2, 427140, Note_on_c, 0, 65, 0
2, 427140, Note_on_c, 0, 65, 43
2, 427320, Note_on_c, 0, 65, 0
2, 427320, Note_on_c, 0, 66, 48
2, 427320, Note_on_c, 0, 59, 65
2, 427500, Note_on_c, 0, 62, 0
2, 427500, Note_on_c, 0, 61, 43
2, 427680, Note_on_c, 0, 61, 0
2, 427680, Note_on_c, 0, 62, 60
2, 427860, Note_on_c, 0, 66, 0
2, 427860, Note_on_c, 0, 66, 41
2, 428040, Note_on_c, 0, 66, 0
2, 428040, Note_on_c, 0, 64, 41
2, 428220, Note_on_c, 0, 64, 0
2, 428220, Note_on_c, 0, 66, 53
2, 428400, Note_on_c, 0, 66, 0
2, 428400, Note_on_c, 0, 62, 41
2, 428580, Note_on_c, 0, 62, 0
2, 428580, Note_on_c, 0, 59, 39
2, 428760, Note_on_c, 0, 59, 0
2, 428760, Note_on_c, 0, 59, 0
2, 428760, Note_on_c, 0, 66, 54
2, 428760, Note_on_c, 0, 59, 60
2, 428940, Note_on_c, 0, 62, 0
2, 428940, Note_on_c, 0, 61, 41
2, 429120, Note_on_c, 0, 61, 0
2, 429120, Note_on_c, 0, 62, 59
2, 429300, Note_on_c, 0, 66, 0
2, 429300, Note_on_c, 0, 66, 48
2, 429480, Note_on_c, 0, 66, 0
2, 429480, Note_on_c, 0, 64, 38
2, 429660, Note_on_c, 0, 64, 0
2, 429660, Note_on_c, 0, 66, 48
2, 429840, Note_on_c, 0, 66, 0
2, 429840, Note_on_c, 0, 62, 38
2, 430020, Note_on_c, 0, 62, 0
2, 430020, Note_on_c, 0, 59, 42
2, 430069, Note_on_c, 0, 62, 0
2, 430200, Note_on_c, 0, 59, 0
2, 430200, Note_on_c, 0, 59, 0
2, 430200, Note_on_c, 0, 59, 45
2, 430200, Note_on_c, 0, 66, 45
2, 430200, Note_on_c, 0, 62, 45
2, 430740, Note_on_c, 0, 66, 0
2, 430740, Note_on_c, 0, 59, 0
2, 430740, Note_on_c, 0, 66, 50
2, 430833, Note_on_c, 0, 62, 0
2, 430920, Note_on_c, 0, 66, 0
2, 430920, Note_on_c, 0, 67, 52
2, 430920, Note_on_c, 0, 62, 52
2, 431460, Note_on_c, 0, 67, 0
2, 431460, Note_on_c, 0, 67, 57
2, 431553, Note_on_c, 0, 62, 0
2, 431640, Note_on_c, 0, 67, 0
2, 431640, Note_on_c, 0, 68, 45
2, 431640, Note_on_c, 0, 62, 45
2, 432180, Note_on_c, 0, 68, 0
2, 432180, Note_on_c, 0, 68, 41
2, 432273, Note_on_c, 0, 62, 0
2, 432360, Note_on_c, 0, 68, 0
2, 432360, Note_on_c, 0, 65, 39
2, 432360, Note_on_c, 0, 69, 39
2, 432360, Note_on_c, 0, 62, 39
2, 432900, Note_on_c, 0, 69, 0
2, 432900, Note_on_c, 0, 65, 0
2, 432900, Note_on_c, 0, 69, 34
2, 433080, Note_on_c, 0, 69, 0
2, 433080, Note_on_c, 0, 68, 33
2, 433080, Note_on_c, 0, 70, 33
2, 433260, Note_on_c, 0, 62, 0
2, 433260, Note_on_c, 0, 61, 33
2, 433440, Note_on_c, 0, 61, 0
2, 433440, Note_on_c, 0, 62, 46
2, 433620, Note_on_c, 0, 70, 0
2, 433620, Note_on_c, 0, 68, 0
2, 433620, Note_on_c, 0, 70, 38
2, 433800, Note_on_c, 0, 70, 0
2, 433800, Note_on_c, 0, 68, 31
2, 433980, Note_on_c, 0, 68, 0
2, 433980, Note_on_c, 0, 70, 39
2, 434160, Note_on_c, 0, 70, 0
2, 434160, Note_on_c, 0, 66, 27
2, 434340, Note_on_c, 0, 66, 0
2, 434340, Note_on_c, 0, 65, 26
2, 434520, Note_on_c, 0, 65, 0
2, 434520, Note_on_c, 0, 68, 35
2, 434520, Note_on_c, 0, 70, 35
2, 434700, Note_on_c, 0, 62, 0
2, 434700, Note_on_c, 0, 61, 30
2, 434880, Note_on_c, 0, 61, 0
2, 434880, Note_on_c, 0, 62, 45
2, 435060, Note_on_c, 0, 70, 0
2, 435060, Note_on_c, 0, 68, 0
2, 435060, Note_on_c, 0, 70, 31
2, 435240, Note_on_c, 0, 70, 0
2, 435240, Note_on_c, 0, 68, 30
2, 435420, Note_on_c, 0, 68, 0
2, 435420, Note_on_c, 0, 70, 36
2, 435600, Note_on_c, 0, 70, 0
2, 435600, Note_on_c, 0, 66, 26
2, 435780, Note_on_c, 0, 66, 0
2, 435780, Note_on_c, 0, 65, 27
2, 435829, Note_on_c, 0, 62, 0
2, 435960, Note_on_c, 0, 65, 0
2, 435960, Note_on_c, 0, 68, 41
2, 435960, Note_on_c, 0, 70, 41
2, 435960, Note_on_c, 0, 62, 45
2, 436500, Note_on_c, 0, 70, 0
2, 436500, Note_on_c, 0, 68, 0
2, 436500, Note_on_c, 0, 70, 34
2, 436593, Note_on_c, 0, 62, 0
2, 436680, Note_on_c, 0, 70, 0
2, 436680, Note_on_c, 0, 68, 33
2, 436680, Note_on_c, 0, 71, 33
2, 436680, Note_on_c, 0, 62, 33
2, 437220, Note_on_c, 0, 71, 0
2, 437220, Note_on_c, 0, 68, 0
2, 437220, Note_on_c, 0, 71, 50
2, 437313, Note_on_c, 0, 62, 0
2, 437400, Note_on_c, 0, 71, 0
2, 437400, Note_on_c, 0, 65, 45
2, 437400, Note_on_c, 0, 72, 45
2, 437400, Note_on_c, 0, 62, 45
2, 437940, Note_on_c, 0, 72, 0
2, 437940, Note_on_c, 0, 65, 0
2, 437940, Note_on_c, 0, 72, 58
2, 438033, Note_on_c, 0, 62, 0
2, 438120, Note_on_c, 0, 72, 0
2, 438120, Note_on_c, 0, 73, 58
2, 438120, Note_on_c, 0, 67, 58
2, 438300, Note_on_c, 0, 67, 0
2, 438300, Note_on_c, 0, 69, 54
2, 438480, Note_on_c, 0, 69, 0
2, 438480, Note_on_c, 0, 65, 50
2, 438660, Note_on_c, 0, 65, 0
2, 438660, Note_on_c, 0, 73, 0
2, 438660, Note_on_c, 0, 73, 42
2, 438660, Note_on_c, 0, 64, 40
2, 438840, Note_on_c, 0, 64, 0
2, 438840, Note_on_c, 0, 73, 0
2, 438840, Note_on_c, 0, 77, 53
2, 438840, Note_on_c, 0, 65, 32
2, 438840, Note_on_c, 0, 65, 52
2, 439020, Note_on_c, 0, 65, 0
2, 439020, Note_on_c, 0, 77, 0
2, 439020, Note_on_c, 0, 76, 43
2, 439020, Note_on_c, 0, 64, 49
2, 439200, Note_on_c, 0, 64, 0
2, 439200, Note_on_c, 0, 76, 0
2, 439200, Note_on_c, 0, 77, 47
2, 439200, Note_on_c, 0, 65, 48
2, 439380, Note_on_c, 0, 77, 0
2, 439380, Note_on_c, 0, 65, 0
2, 439380, Note_on_c, 0, 74, 41
2, 439380, Note_on_c, 0, 62, 40
2, 439560, Note_on_c, 0, 62, 0
2, 439560, Note_on_c, 0, 74, 0
2, 439560, Note_on_c, 0, 73, 43
2, 439560, Note_on_c, 0, 61, 42
2, 439740, Note_on_c, 0, 61, 0
2, 439740, Note_on_c, 0, 73, 0
2, 439740, Note_on_c, 0, 74, 47
2, 439740, Note_on_c, 0, 62, 47
2, 440100, Note_on_c, 0, 62, 0
2, 440100, Note_on_c, 0, 74, 0
2, 440100, Note_on_c, 0, 74, 52
2, 440100, Note_on_c, 0, 62, 57
2, 440258, Note_on_c, 0, 62, 0
2, 440258, Note_on_c, 0, 74, 0
2, 440280, Note_on_c, 0, 65, 0
2, 440280, Note_on_c, 0, 77, 49
2, 440280, Note_on_c, 0, 65, 41
2, 440280, Note_on_c, 0, 65, 56
2, 440460, Note_on_c, 0, 65, 0
2, 440460, Note_on_c, 0, 77, 0
2, 440460, Note_on_c, 0, 76, 42
2, 440460, Note_on_c, 0, 64, 46
2, 440640, Note_on_c, 0, 64, 0
2, 440640, Note_on_c, 0, 76, 0
2, 440640, Note_on_c, 0, 77, 45
2, 440640, Note_on_c, 0, 65, 50
2, 440820, Note_on_c, 0, 77, 0
2, 440820, Note_on_c, 0, 65, 0
2, 440820, Note_on_c, 0, 74, 43
2, 440820, Note_on_c, 0, 62, 46
2, 441000, Note_on_c, 0, 62, 0
2, 441000, Note_on_c, 0, 74, 0
2, 441000, Note_on_c, 0, 73, 45
2, 441000, Note_on_c, 0, 61, 46
2, 441180, Note_on_c, 0, 61, 0
2, 441180, Note_on_c, 0, 73, 0
2, 441180, Note_on_c, 0, 74, 45
2, 441180, Note_on_c, 0, 62, 52
2, 441360, Note_on_c, 0, 62, 0
2, 441540, Note_on_c, 0, 74, 0
2, 441540, Note_on_c, 0, 74, 72
2, 441698, Note_on_c, 0, 74, 0
2, 441720, Note_on_c, 0, 65, 0
2, 441720, Note_on_c, 0, 82, 103
2, 441720, Note_on_c, 0, 75, 65
2, 441720, Note_on_c, 0, 79, 65
2, 441720, Note_on_c, 0, 70, 96
2, 441900, Note_on_c, 0, 70, 0
2, 441900, Note_on_c, 0, 82, 0
2, 441900, Note_on_c, 0, 81, 80
2, 441900, Note_on_c, 0, 69, 79
2, 442080, Note_on_c, 0, 69, 0
2, 442080, Note_on_c, 0, 81, 0
2, 442080, Note_on_c, 0, 82, 88
2, 442080, Note_on_c, 0, 70, 86
2, 442260, Note_on_c, 0, 82, 0
2, 442260, Note_on_c, 0, 79, 71
2, 442440, Note_on_c, 0, 79, 0
2, 442440, Note_on_c, 0, 70, 0
2, 442440, Note_on_c, 0, 79, 0
2, 442440, Note_on_c, 0, 75, 0
2, 442440, Note_on_c, 0, 81, 89
2, 442440, Note_on_c, 0, 74, 69
2, 442440, Note_on_c, 0, 77, 69
2, 442440, Note_on_c, 0, 69, 88
2, 442620, Note_on_c, 0, 69, 0
2, 442620, Note_on_c, 0, 81, 0
2, 442620, Note_on_c, 0, 79, 77
2, 442620, Note_on_c, 0, 67, 75
2, 442800, Note_on_c, 0, 67, 0
2, 442800, Note_on_c, 0, 79, 0
2, 442800, Note_on_c, 0, 81, 89
2, 442800, Note_on_c, 0, 69, 84
2, 442980, Note_on_c, 0, 81, 0
2, 442980, Note_on_c, 0, 77, 65
2, 443160, Note_on_c, 0, 77, 0
2, 443160, Note_on_c, 0, 69, 0
2, 443160, Note_on_c, 0, 77, 0
2, 443160, Note_on_c, 0, 74, 0
2, 443160, Note_on_c, 0, 79, 82
2, 443160, Note_on_c, 0, 70, 73
2, 443160, Note_on_c, 0, 75, 73
2, 443160, Note_on_c, 0, 67, 82
2, 443340, Note_on_c, 0, 79, 0
2, 443340, Note_on_c, 0, 75, 80
2, 443477, Note_on_c, 0, 67, 0
2, 443520, Note_on_c, 0, 70, 0
2, 443520, Note_on_c, 0, 75, 0
2, 443520, Note_on_c, 0, 75, 0
2, 443520, Note_on_c, 0, 77, 78
2, 443520, Note_on_c, 0, 71, 69
2, 443520, Note_on_c, 0, 74, 69
2, 443520, Note_on_c, 0, 65, 78
2, 443700, Note_on_c, 0, 77, 0
2, 443700, Note_on_c, 0, 74, 76
2, 443837, Note_on_c, 0, 65, 0
2, 443880, Note_on_c, 0, 71, 0
2, 443880, Note_on_c, 0, 74, 0
2, 443880, Note_on_c, 0, 74, 0
2, 443880, Note_on_c, 0, 76, 74
2, 443880, Note_on_c, 0, 73, 65
2, 443880, Note_on_c, 0, 64, 74
2, 444060, Note_on_c, 0, 76, 0
2, 444060, Note_on_c, 0, 73, 72
2, 444197, Note_on_c, 0, 64, 0
2, 444240, Note_on_c, 0, 73, 0
2, 444240, Note_on_c, 0, 73, 0
2, 444240, Note_on_c, 0, 77, 49
2, 444240, Note_on_c, 0, 65, 43
2, 444240, Note_on_c, 0, 65, 40
2, 444420, Note_on_c, 0, 65, 0
2, 444420, Note_on_c, 0, 77, 0
2, 444420, Note_on_c, 0, 76, 47
2, 444420, Note_on_c, 0, 64, 44
2, 444600, Note_on_c, 0, 64, 0
2, 444600, Note_on_c, 0, 76, 0
2, 444600, Note_on_c, 0, 77, 47
2, 444600, Note_on_c, 0, 65, 53
2, 444780, Note_on_c, 0, 77, 0
2, 444780, Note_on_c, 0, 65, 0
2, 444780, Note_on_c, 0, 74, 38
2, 444780, Note_on_c, 0, 62, 44
2, 444960, Note_on_c, 0, 62, 0
2, 444960, Note_on_c, 0, 74, 0
2, 444960, Note_on_c, 0, 73, 42
2, 444960, Note_on_c, 0, 61, 40
2, 445140, Note_on_c, 0, 61, 0
2, 445140, Note_on_c, 0, 73, 0
2, 445140, Note_on_c, 0, 74, 44
2, 445140, Note_on_c, 0, 62, 49
2, 445500, Note_on_c, 0, 62, 0
2, 445500, Note_on_c, 0, 74, 0
2, 445500, Note_on_c, 0, 74, 57
2, 445500, Note_on_c, 0, 62, 60
2, 445658, Note_on_c, 0, 62, 0
2, 445658, Note_on_c, 0, 74, 0
2, 445680, Note_on_c, 0, 65, 0
2, 445680, Note_on_c, 0, 77, 46
2, 445680, Note_on_c, 0, 65, 45
2, 445680, Note_on_c, 0, 65, 56
2, 445860, Note_on_c, 0, 65, 0
2, 445860, Note_on_c, 0, 77, 0
2, 445860, Note_on_c, 0, 76, 43
2, 445860, Note_on_c, 0, 64, 45
2, 446040, Note_on_c, 0, 64, 0
2, 446040, Note_on_c, 0, 76, 0
2, 446040, Note_on_c, 0, 77, 48
2, 446040, Note_on_c, 0, 65, 45
2, 446220, Note_on_c, 0, 77, 0
2, 446220, Note_on_c, 0, 65, 0
2, 446220, Note_on_c, 0, 74, 40
2, 446220, Note_on_c, 0, 62, 40
2, 446400, Note_on_c, 0, 62, 0
2, 446400, Note_on_c, 0, 74, 0
2, 446400, Note_on_c, 0, 73, 40
2, 446400, Note_on_c, 0, 61, 41
2, 446580, Note_on_c, 0, 61, 0
2, 446580, Note_on_c, 0, 73, 0
2, 446580, Note_on_c, 0, 74, 50
2, 446580, Note_on_c, 0, 62, 45
2, 446760, Note_on_c, 0, 62, 0
2, 446940, Note_on_c, 0, 74, 0
2, 446940, Note_on_c, 0, 74, 45
2, 447098, Note_on_c, 0, 74, 0
2, 447120, Note_on_c, 0, 65, 0
2, 447120, Note_on_c, 0, 84, 106
2, 447120, Note_on_c, 0, 74, 72
2, 447120, Note_on_c, 0, 72, 111
2, 447300, Note_on_c, 0, 84, 0
2, 447300, Note_on_c, 0, 82, 83
2, 447480, Note_on_c, 0, 82, 0
2, 447480, Note_on_c, 0, 84, 90
2, 447660, Note_on_c, 0, 84, 0
2, 447660, Note_on_c, 0, 81, 71
2, 447753, Note_on_c, 0, 72, 0
2, 447840, Note_on_c, 0, 81, 0
2, 447840, Note_on_c, 0, 74, 0
2, 447840, Note_on_c, 0, 82, 82
2, 447840, Note_on_c, 0, 74, 73
2, 447840, Note_on_c, 0, 70, 82
2, 448020, Note_on_c, 0, 82, 0
2, 448020, Note_on_c, 0, 81, 81
2, 448200, Note_on_c, 0, 81, 0
2, 448200, Note_on_c, 0, 82, 80
2, 448380, Note_on_c, 0, 82, 0
2, 448380, Note_on_c, 0, 79, 78
2, 448473, Note_on_c, 0, 70, 0
2, 448560, Note_on_c, 0, 79, 0
2, 448560, Note_on_c, 0, 74, 0
2, 448560, Note_on_c, 0, 82, 77
2, 448560, Note_on_c, 0, 74, 68
2, 448560, Note_on_c, 0, 79, 68
2, 448560, Note_on_c, 0, 70, 77
2, 448740, Note_on_c, 0, 82, 0
2, 448740, Note_on_c, 0, 79, 76
2, 448877, Note_on_c, 0, 70, 0
2, 448920, Note_on_c, 0, 74, 0
2, 448920, Note_on_c, 0, 79, 0
2, 448920, Note_on_c, 0, 79, 0
2, 448920, Note_on_c, 0, 81, 75
2, 448920, Note_on_c, 0, 74, 66
2, 448920, Note_on_c, 0, 77, 66
2, 448920, Note_on_c, 0, 69, 75
2, 449100, Note_on_c, 0, 81, 0
2, 449100, Note_on_c, 0, 77, 73
2, 449237, Note_on_c, 0, 69, 0
2, 449280, Note_on_c, 0, 74, 0
2, 449280, Note_on_c, 0, 77, 0
2, 449280, Note_on_c, 0, 77, 0
2, 449280, Note_on_c, 0, 79, 72
2, 449280, Note_on_c, 0, 70, 63
2, 449280, Note_on_c, 0, 74, 63
2, 449280, Note_on_c, 0, 67, 72
2, 449460, Note_on_c, 0, 79, 0
2, 449460, Note_on_c, 0, 76, 71
2, 449597, Note_on_c, 0, 67, 0
2, 449640, Note_on_c, 0, 70, 0
2, 449640, Note_on_c, 0, 74, 0
2, 449640, Note_on_c, 0, 76, 0
2, 449640, Note_on_c, 0, 77, 48
2, 449640, Note_on_c, 0, 65, 31
2, 449820, Note_on_c, 0, 65, 0
2, 449820, Note_on_c, 0, 77, 0
2, 449820, Note_on_c, 0, 76, 44
2, 449820, Note_on_c, 0, 64, 31
2, 450000, Note_on_c, 0, 64, 0
2, 450000, Note_on_c, 0, 76, 0
2, 450000, Note_on_c, 0, 77, 51
2, 450000, Note_on_c, 0, 65, 37
2, 450180, Note_on_c, 0, 65, 0
2, 450180, Note_on_c, 0, 77, 0
2, 450180, Note_on_c, 0, 74, 41
2, 450180, Note_on_c, 0, 62, 27
2, 450360, Note_on_c, 0, 62, 0
2, 450360, Note_on_c, 0, 74, 0
2, 450360, Note_on_c, 0, 73, 45
2, 450360, Note_on_c, 0, 61, 30
2, 450540, Note_on_c, 0, 61, 0
2, 450540, Note_on_c, 0, 73, 0
2, 450540, Note_on_c, 0, 74, 45
2, 450540, Note_on_c, 0, 62, 37
2, 450900, Note_on_c, 0, 62, 0
2, 450900, Note_on_c, 0, 74, 0
2, 450900, Note_on_c, 0, 74, 58
2, 450900, Note_on_c, 0, 62, 45
2, 451058, Note_on_c, 0, 62, 0
2, 451058, Note_on_c, 0, 74, 0
2, 451080, Note_on_c, 0, 81, 60
2, 451080, Note_on_c, 0, 69, 44
2, 451260, Note_on_c, 0, 69, 0
2, 451260, Note_on_c, 0, 81, 0
2, 451260, Note_on_c, 0, 79, 48
2, 451260, Note_on_c, 0, 67, 30
2, 451440, Note_on_c, 0, 67, 0
2, 451440, Note_on_c, 0, 79, 0
2, 451440, Note_on_c, 0, 81, 49
2, 451440, Note_on_c, 0, 69, 40
2, 451620, Note_on_c, 0, 69, 0
2, 451620, Note_on_c, 0, 81, 0
2, 451620, Note_on_c, 0, 77, 39
2, 451620, Note_on_c, 0, 65, 26
2, 451800, Note_on_c, 0, 65, 0
2, 451800, Note_on_c, 0, 77, 0
2, 451800, Note_on_c, 0, 76, 42
2, 451800, Note_on_c, 0, 64, 33
2, 451980, Note_on_c, 0, 64, 0
2, 451980, Note_on_c, 0, 76, 0
2, 451980, Note_on_c, 0, 77, 49
2, 451980, Note_on_c, 0, 65, 40
2, 452340, Note_on_c, 0, 65, 0
2, 452340, Note_on_c, 0, 77, 0
2, 452340, Note_on_c, 0, 77, 56
2, 452340, Note_on_c, 0, 65, 44
2, 452498, Note_on_c, 0, 65, 0
2, 452498, Note_on_c, 0, 77, 0
2, 452520, Note_on_c, 0, 82, 45
2, 452520, Note_on_c, 0, 70, 35
2, 452700, Note_on_c, 0, 70, 0
2, 452700, Note_on_c, 0, 82, 0
2, 452700, Note_on_c, 0, 81, 46
2, 452700, Note_on_c, 0, 69, 36
2, 452880, Note_on_c, 0, 69, 0
2, 452880, Note_on_c, 0, 81, 0
2, 452880, Note_on_c, 0, 82, 47
2, 452880, Note_on_c, 0, 70, 37
2, 453060, Note_on_c, 0, 70, 0
2, 453060, Note_on_c, 0, 82, 0
2, 453060, Note_on_c, 0, 79, 48
2, 453060, Note_on_c, 0, 67, 38
2, 453240, Note_on_c, 0, 67, 0
2, 453240, Note_on_c, 0, 79, 0
2, 453240, Note_on_c, 0, 78, 49
2, 453240, Note_on_c, 0, 66, 38
2, 453420, Note_on_c, 0, 66, 0
2, 453420, Note_on_c, 0, 78, 0
2, 453420, Note_on_c, 0, 79, 49
2, 453420, Note_on_c, 0, 67, 39
2, 453780, Note_on_c, 0, 67, 0
2, 453780, Note_on_c, 0, 79, 0
2, 453780, Note_on_c, 0, 79, 51
2, 453780, Note_on_c, 0, 67, 41
2, 453938, Note_on_c, 0, 67, 0
2, 453938, Note_on_c, 0, 79, 0
2, 453960, Note_on_c, 0, 86, 52
2, 453960, Note_on_c, 0, 74, 42
2, 454140, Note_on_c, 0, 74, 0
2, 454140, Note_on_c, 0, 86, 0
2, 454140, Note_on_c, 0, 84, 53
2, 454140, Note_on_c, 0, 72, 42
2, 454320, Note_on_c, 0, 72, 0
2, 454320, Note_on_c, 0, 84, 0
2, 454320, Note_on_c, 0, 86, 53
2, 454320, Note_on_c, 0, 74, 43
2, 454500, Note_on_c, 0, 74, 0
2, 454500, Note_on_c, 0, 86, 0
2, 454500, Note_on_c, 0, 82, 54
2, 454500, Note_on_c, 0, 70, 44
2, 454680, Note_on_c, 0, 70, 0
2, 454680, Note_on_c, 0, 82, 0
2, 454680, Note_on_c, 0, 81, 55
2, 454680, Note_on_c, 0, 69, 45
2, 454860, Note_on_c, 0, 69, 0
2, 454860, Note_on_c, 0, 81, 0
2, 454860, Note_on_c, 0, 82, 56
2, 454860, Note_on_c, 0, 70, 46
2, 455220, Note_on_c, 0, 70, 0
2, 455220, Note_on_c, 0, 82, 0
2, 455220, Note_on_c, 0, 82, 57
2, 455220, Note_on_c, 0, 70, 47
2, 455378, Note_on_c, 0, 70, 0
2, 455378, Note_on_c, 0, 82, 0
2, 455400, Note_on_c, 0, 89, 58
2, 455400, Note_on_c, 0, 77, 73
2, 455400, Note_on_c, 0, 82, 73
2, 455400, Note_on_c, 0, 77, 48
2, 455400, Note_on_c, 0, 65, 48
2, 455400, Note_on_c, 0, 70, 48
2, 455580, Note_on_c, 0, 77, 0
2, 455580, Note_on_c, 0, 89, 0
2, 455580, Note_on_c, 0, 88, 58
2, 455580, Note_on_c, 0, 76, 52
2, 455760, Note_on_c, 0, 76, 0
2, 455760, Note_on_c, 0, 88, 0
2, 455760, Note_on_c, 0, 89, 58
2, 455760, Note_on_c, 0, 77, 51
2, 455940, Note_on_c, 0, 89, 0
2, 455940, Note_on_c, 0, 77, 0
2, 455940, Note_on_c, 0, 86, 49
2, 455940, Note_on_c, 0, 74, 44
2, 456120, Note_on_c, 0, 74, 0
2, 456120, Note_on_c, 0, 86, 0
2, 456120, Note_on_c, 0, 85, 53
2, 456120, Note_on_c, 0, 73, 41
2, 456300, Note_on_c, 0, 73, 0
2, 456300, Note_on_c, 0, 85, 0
2, 456300, Note_on_c, 0, 86, 58
2, 456300, Note_on_c, 0, 74, 51
2, 456660, Note_on_c, 0, 74, 0
2, 456660, Note_on_c, 0, 86, 0
2, 456660, Note_on_c, 0, 86, 70
2, 456660, Note_on_c, 0, 74, 60
2, 456818, Note_on_c, 0, 74, 0
2, 456818, Note_on_c, 0, 86, 0
2, 456840, Note_on_c, 0, 65, 0
2, 456840, Note_on_c, 0, 82, 0
2, 456840, Note_on_c, 0, 77, 0
2, 456840, Note_on_c, 0, 70, 0
2, 456840, Note_on_c, 0, 89, 66
2, 456840, Note_on_c, 0, 77, 79
2, 456840, Note_on_c, 0, 82, 79
2, 456840, Note_on_c, 0, 77, 55
2, 456840, Note_on_c, 0, 65, 46
2, 456840, Note_on_c, 0, 70, 46
2, 457020, Note_on_c, 0, 77, 0
2, 457020, Note_on_c, 0, 89, 0
2, 457020, Note_on_c, 0, 88, 55
2, 457020, Note_on_c, 0, 76, 45
2, 457200, Note_on_c, 0, 76, 0
2, 457200, Note_on_c, 0, 88, 0
2, 457200, Note_on_c, 0, 89, 67
2, 457200, Note_on_c, 0, 77, 52
2, 457380, Note_on_c, 0, 89, 0
2, 457380, Note_on_c, 0, 77, 0
2, 457380, Note_on_c, 0, 86, 53
2, 457380, Note_on_c, 0, 74, 45
2, 457560, Note_on_c, 0, 74, 0
2, 457560, Note_on_c, 0, 86, 0
2, 457560, Note_on_c, 0, 85, 56
2, 457560, Note_on_c, 0, 73, 41
2, 457740, Note_on_c, 0, 73, 0
2, 457740, Note_on_c, 0, 85, 0
2, 457740, Note_on_c, 0, 86, 64
2, 457740, Note_on_c, 0, 74, 48
2, 458100, Note_on_c, 0, 74, 0
2, 458100, Note_on_c, 0, 86, 0
2, 458100, Note_on_c, 0, 86, 66
2, 458100, Note_on_c, 0, 74, 64
2, 458258, Note_on_c, 0, 74, 0
2, 458258, Note_on_c, 0, 86, 0
2, 458280, Note_on_c, 0, 65, 0
2, 458280, Note_on_c, 0, 82, 0
2, 458280, Note_on_c, 0, 77, 0
2, 458280, Note_on_c, 0, 70, 0
2, 458280, Note_on_c, 0, 89, 67
2, 458280, Note_on_c, 0, 77, 81
2, 458280, Note_on_c, 0, 83, 81
2, 458280, Note_on_c, 0, 77, 54
2, 458280, Note_on_c, 0, 65, 55
2, 458280, Note_on_c, 0, 71, 55
2, 458460, Note_on_c, 0, 77, 0
2, 458460, Note_on_c, 0, 89, 0
2, 458460, Note_on_c, 0, 88, 56
2, 458460, Note_on_c, 0, 76, 45
2, 458640, Note_on_c, 0, 76, 0
2, 458640, Note_on_c, 0, 88, 0
2, 458640, Note_on_c, 0, 89, 60
2, 458640, Note_on_c, 0, 77, 52
2, 458820, Note_on_c, 0, 89, 0
2, 458820, Note_on_c, 0, 77, 0
2, 458820, Note_on_c, 0, 86, 53
2, 458820, Note_on_c, 0, 74, 43
2, 459000, Note_on_c, 0, 74, 0
2, 459000, Note_on_c, 0, 86, 0
2, 459000, Note_on_c, 0, 85, 50
2, 459000, Note_on_c, 0, 73, 46
2, 459180, Note_on_c, 0, 73, 0
2, 459180, Note_on_c, 0, 85, 0
2, 459180, Note_on_c, 0, 86, 62
2, 459180, Note_on_c, 0, 74, 47
2, 459540, Note_on_c, 0, 74, 0
2, 459540, Note_on_c, 0, 86, 0
2, 459540, Note_on_c, 0, 86, 65
2, 459540, Note_on_c, 0, 74, 55
2, 459698, Note_on_c, 0, 74, 0
2, 459698, Note_on_c, 0, 86, 0
2, 459720, Note_on_c, 0, 65, 0
2, 459720, Note_on_c, 0, 83, 0
2, 459720, Note_on_c, 0, 77, 0
2, 459720, Note_on_c, 0, 71, 0
2, 459720, Note_on_c, 0, 89, 58
2, 459720, Note_on_c, 0, 77, 73
2, 459720, Note_on_c, 0, 84, 73
2, 459720, Note_on_c, 0, 77, 48
2, 459720, Note_on_c, 0, 65, 48
2, 459720, Note_on_c, 0, 72, 48
2, 459900, Note_on_c, 0, 77, 0
2, 459900, Note_on_c, 0, 89, 0
2, 459900, Note_on_c, 0, 88, 60
2, 459900, Note_on_c, 0, 76, 50
2, 460080, Note_on_c, 0, 76, 0
2, 460080, Note_on_c, 0, 88, 0
2, 460080, Note_on_c, 0, 89, 61
2, 460080, Note_on_c, 0, 77, 51
2, 460440, Note_on_c, 0, 84, 0
2, 460440, Note_on_c, 0, 65, 0
2, 460440, Note_on_c, 0, 77, 0
2, 460440, Note_on_c, 0, 72, 0
2, 460440, Note_on_c, 0, 77, 80
2, 460440, Note_on_c, 0, 85, 80
2, 460440, Note_on_c, 0, 65, 54
2, 460440, Note_on_c, 0, 73, 54
2, 460620, Note_on_c, 0, 77, 0
2, 460620, Note_on_c, 0, 89, 0
2, 460620, Note_on_c, 0, 88, 66
2, 460620, Note_on_c, 0, 76, 56
2, 460800, Note_on_c, 0, 76, 0
2, 460800, Note_on_c, 0, 88, 0
2, 460800, Note_on_c, 0, 89, 68
2, 460800, Note_on_c, 0, 77, 58
2, 461160, Note_on_c, 0, 77, 0
2, 461160, Note_on_c, 0, 73, 0
2, 461160, Note_on_c, 0, 65, 0
2, 461160, Note_on_c, 0, 85, 0
2, 461160, Note_on_c, 0, 89, 0
2, 461160, Note_on_c, 0, 77, 0
2, 461160, Note_on_c, 0, 89, 71
2, 461160, Note_on_c, 0, 77, 61
2, 461250, Note_on_c, 0, 86, 81
2, 461250, Note_on_c, 0, 74, 52
2, 461340, Note_on_c, 0, 74, 0
2, 461340, Note_on_c, 0, 86, 0
2, 461340, Note_on_c, 0, 89, 94
2, 461340, Note_on_c, 0, 77, 69
2, 461430, Note_on_c, 0, 77, 0
2, 461430, Note_on_c, 0, 89, 0
2, 461430, Note_on_c, 0, 86, 77
2, 461430, Note_on_c, 0, 74, 56
2, 461520, Note_on_c, 0, 74, 0
2, 461520, Note_on_c, 0, 77, 0
2, 461520, Note_on_c, 0, 89, 0
2, 461520, Note_on_c, 0, 86, 0
2, 461520, Note_on_c, 0, 91, 96
2, 461520, Note_on_c, 0, 79, 93
2, 461610, Note_on_c, 0, 86, 74
2, 461610, Note_on_c, 0, 74, 54
2, 461700, Note_on_c, 0, 74, 0
2, 461700, Note_on_c, 0, 86, 0
2, 461700, Note_on_c, 0, 91, 98
2, 461700, Note_on_c, 0, 79, 71
2, 461790, Note_on_c, 0, 79, 0
2, 461790, Note_on_c, 0, 91, 0
2, 461790, Note_on_c, 0, 86, 74
2, 461790, Note_on_c, 0, 74, 51
2, 461880, Note_on_c, 0, 74, 0
2, 461880, Note_on_c, 0, 79, 0
2, 461880, Note_on_c, 0, 91, 0
2, 461880, Note_on_c, 0, 86, 0
2, 461880, Note_on_c, 0, 93, 104
2, 461880, Note_on_c, 0, 81, 90
2, 461970, Note_on_c, 0, 89, 75
2, 461970, Note_on_c, 0, 77, 55
2, 462060, Note_on_c, 0, 77, 0
2, 462060, Note_on_c, 0, 89, 0
2, 462060, Note_on_c, 0, 93, 93
2, 462060, Note_on_c, 0, 81, 65
2, 462150, Note_on_c, 0, 81, 0
2, 462150, Note_on_c, 0, 93, 0
2, 462150, Note_on_c, 0, 89, 76
2, 462150, Note_on_c, 0, 77, 57
2, 462240, Note_on_c, 0, 77, 0
2, 462240, Note_on_c, 0, 81, 0
2, 462240, Note_on_c, 0, 93, 0
2, 462240, Note_on_c, 0, 89, 0
2, 462240, Note_on_c, 0, 93, 97
2, 462240, Note_on_c, 0, 81, 69
2, 462330, Note_on_c, 0, 81, 0
2, 462330, Note_on_c, 0, 93, 0
2, 462330, Note_on_c, 0, 88, 78
2, 462330, Note_on_c, 0, 76, 57
2, 462420, Note_on_c, 0, 76, 0
2, 462420, Note_on_c, 0, 88, 0
2, 462420, Note_on_c, 0, 93, 96
2, 462420, Note_on_c, 0, 81, 70
2, 462510, Note_on_c, 0, 81, 0
2, 462510, Note_on_c, 0, 93, 0
2, 462510, Note_on_c, 0, 88, 74
2, 462510, Note_on_c, 0, 76, 52
2, 462600, Note_on_c, 0, 76, 0
2, 462600, Note_on_c, 0, 88, 0
2, 462600, Note_on_c, 0, 94, 86
2, 462600, Note_on_c, 0, 82, 77
2, 462690, Note_on_c, 0, 91, 76
2, 462690, Note_on_c, 0, 79, 55
2, 462780, Note_on_c, 0, 79, 0
2, 462780, Note_on_c, 0, 94, 0
2, 462780, Note_on_c, 0, 82, 0
2, 462780, Note_on_c, 0, 91, 0
2, 462780, Note_on_c, 0, 94, 91
2, 462780, Note_on_c, 0, 94, 94
2, 462780, Note_on_c, 0, 82, 87
2, 462780, Note_on_c, 0, 82, 66
2, 462870, Note_on_c, 0, 82, 0
2, 462870, Note_on_c, 0, 94, 0
2, 462870, Note_on_c, 0, 91, 76
2, 462870, Note_on_c, 0, 79, 56
2, 462960, Note_on_c, 0, 79, 0
2, 462960, Note_on_c, 0, 82, 0
2, 462960, Note_on_c, 0, 94, 0
2, 462960, Note_on_c, 0, 91, 0
2, 462960, Note_on_c, 0, 93, 92
2, 462960, Note_on_c, 0, 81, 85
2, 463050, Note_on_c, 0, 87, 78
2, 463050, Note_on_c, 0, 75, 54
2, 463140, Note_on_c, 0, 75, 0
2, 463140, Note_on_c, 0, 93, 0
2, 463140, Note_on_c, 0, 81, 0
2, 463140, Note_on_c, 0, 87, 0
2, 463140, Note_on_c, 0, 94, 103
2, 463140, Note_on_c, 0, 82, 88
2, 463230, Note_on_c, 0, 87, 76
2, 463230, Note_on_c, 0, 75, 54
2, 463320, Note_on_c, 0, 75, 0
2, 463320, Note_on_c, 0, 94, 0
2, 463320, Note_on_c, 0, 82, 0
2, 463320, Note_on_c, 0, 87, 0
2, 463320, Note_on_c, 0, 91, 88
2, 463320, Note_on_c, 0, 79, 77
2, 463410, Note_on_c, 0, 86, 80
2, 463410, Note_on_c, 0, 74, 51
2, 463500, Note_on_c, 0, 74, 0
2, 463500, Note_on_c, 0, 86, 0
2, 463500, Note_on_c, 0, 91, 102
2, 463500, Note_on_c, 0, 79, 66
2, 463590, Note_on_c, 0, 79, 0
2, 463590, Note_on_c, 0, 91, 0
2, 463590, Note_on_c, 0, 86, 76
2, 463590, Note_on_c, 0, 74, 54
2, 463680, Note_on_c, 0, 74, 0
2, 463680, Note_on_c, 0, 79, 0
2, 463680, Note_on_c, 0, 91, 0
2, 463680, Note_on_c, 0, 86, 0
2, 463680, Note_on_c, 0, 89, 90
2, 463680, Note_on_c, 0, 77, 74
2, 463770, Note_on_c, 0, 86, 73
2, 463770, Note_on_c, 0, 74, 54
2, 463860, Note_on_c, 0, 74, 0
2, 463860, Note_on_c, 0, 86, 0
2, 463860, Note_on_c, 0, 89, 90
2, 463860, Note_on_c, 0, 77, 70
2, 463950, Note_on_c, 0, 77, 0
2, 463950, Note_on_c, 0, 89, 0
2, 463950, Note_on_c, 0, 86, 76
2, 463950, Note_on_c, 0, 74, 51
2, 464040, Note_on_c, 0, 74, 0
2, 464040, Note_on_c, 0, 77, 0
2, 464040, Note_on_c, 0, 89, 0
2, 464040, Note_on_c, 0, 86, 0
2, 464040, Note_on_c, 0, 86, 91
2, 464040, Note_on_c, 0, 74, 56
2, 464112, Note_on_c, 0, 74, 0
2, 464112, Note_on_c, 0, 86, 0
2, 464130, Note_on_c, 0, 79, 59
2, 464130, Note_on_c, 0, 67, 42
2, 464202, Note_on_c, 0, 67, 0
2, 464202, Note_on_c, 0, 79, 0
2, 464220, Note_on_c, 0, 86, 91
2, 464220, Note_on_c, 0, 74, 56
2, 464292, Note_on_c, 0, 74, 0
2, 464292, Note_on_c, 0, 86, 0
2, 464310, Note_on_c, 0, 79, 59
2, 464310, Note_on_c, 0, 67, 42
2, 464382, Note_on_c, 0, 67, 0
2, 464382, Note_on_c, 0, 79, 0
2, 464400, Note_on_c, 0, 86, 91
2, 464400, Note_on_c, 0, 74, 56
2, 464472, Note_on_c, 0, 74, 0
2, 464472, Note_on_c, 0, 86, 0
2, 464490, Note_on_c, 0, 79, 59
2, 464490, Note_on_c, 0, 67, 42
2, 464562, Note_on_c, 0, 67, 0
2, 464562, Note_on_c, 0, 79, 0
2, 464580, Note_on_c, 0, 86, 91
2, 464580, Note_on_c, 0, 74, 56
2, 464652, Note_on_c, 0, 74, 0
2, 464652, Note_on_c, 0, 86, 0
2, 464670, Note_on_c, 0, 79, 59
2, 464670, Note_on_c, 0, 67, 42
2, 464742, Note_on_c, 0, 67, 0
2, 464742, Note_on_c, 0, 79, 0
2, 464760, Note_on_c, 0, 86, 91
2, 464760, Note_on_c, 0, 74, 56
2, 464832, Note_on_c, 0, 74, 0
2, 464832, Note_on_c, 0, 86, 0
2, 464850, Note_on_c, 0, 79, 59
2, 464850, Note_on_c, 0, 67, 42
2, 464922, Note_on_c, 0, 67, 0
2, 464922, Note_on_c, 0, 79, 0
2, 464940, Note_on_c, 0, 86, 91
2, 464940, Note_on_c, 0, 74, 56
2, 465012, Note_on_c, 0, 74, 0
2, 465012, Note_on_c, 0, 86, 0
2, 465030, Note_on_c, 0, 79, 59
2, 465030, Note_on_c, 0, 67, 42
2, 465102, Note_on_c, 0, 67, 0
2, 465102, Note_on_c, 0, 79, 0
2, 465120, Note_on_c, 0, 86, 91
2, 465120, Note_on_c, 0, 74, 56
2, 465192, Note_on_c, 0, 74, 0
2, 465192, Note_on_c, 0, 86, 0
2, 465210, Note_on_c, 0, 79, 59
2, 465210, Note_on_c, 0, 67, 42
2, 465282, Note_on_c, 0, 67, 0
2, 465282, Note_on_c, 0, 79, 0
2, 465300, Note_on_c, 0, 86, 91
2, 465300, Note_on_c, 0, 74, 56
2, 465372, Note_on_c, 0, 74, 0
2, 465372, Note_on_c, 0, 86, 0
2, 465390, Note_on_c, 0, 79, 59
2, 465390, Note_on_c, 0, 67, 42
2, 465462, Note_on_c, 0, 67, 0
2, 465462, Note_on_c, 0, 79, 0
2, 465480, Note_on_c, 0, 86, 71
2, 465480, Note_on_c, 0, 74, 61
2, 465552, Note_on_c, 0, 74, 0
2, 465552, Note_on_c, 0, 86, 0
2, 465570, Note_on_c, 0, 77, 70
2, 465570, Note_on_c, 0, 70, 60
2, 465642, Note_on_c, 0, 70, 0
2, 465642, Note_on_c, 0, 77, 0
2, 465660, Note_on_c, 0, 86, 69
2, 465660, Note_on_c, 0, 74, 59
2, 465732, Note_on_c, 0, 74, 0
2, 465732, Note_on_c, 0, 86, 0
2, 465750, Note_on_c, 0, 77, 68
2, 465750, Note_on_c, 0, 70, 58
2, 465822, Note_on_c, 0, 70, 0
2, 465822, Note_on_c, 0, 77, 0
2, 465840, Note_on_c, 0, 86, 68
2, 465840, Note_on_c, 0, 74, 58
2, 465912, Note_on_c, 0, 74, 0
2, 465912, Note_on_c, 0, 86, 0
2, 465930, Note_on_c, 0, 77, 67
2, 465930, Note_on_c, 0, 70, 57
2, 466002, Note_on_c, 0, 70, 0
2, 466002, Note_on_c, 0, 77, 0
2, 466020, Note_on_c, 0, 86, 66
2, 466020, Note_on_c, 0, 74, 56
2, 466092, Note_on_c, 0, 74, 0
2, 466092, Note_on_c, 0, 86, 0
2, 466110, Note_on_c, 0, 77, 65
2, 466110, Note_on_c, 0, 70, 55
2, 466182, Note_on_c, 0, 70, 0
2, 466182, Note_on_c, 0, 77, 0
2, 466200, Note_on_c, 0, 85, 65
2, 466200, Note_on_c, 0, 73, 54
2, 466272, Note_on_c, 0, 73, 0
2, 466272, Note_on_c, 0, 85, 0
2, 466290, Note_on_c, 0, 76, 64
2, 466290, Note_on_c, 0, 69, 54
2, 466362, Note_on_c, 0, 69, 0
2, 466362, Note_on_c, 0, 76, 0
2, 466380, Note_on_c, 0, 85, 63
2, 466380, Note_on_c, 0, 73, 53
2, 466452, Note_on_c, 0, 73, 0
2, 466452, Note_on_c, 0, 85, 0
2, 466470, Note_on_c, 0, 76, 62
2, 466470, Note_on_c, 0, 69, 52
2, 466542, Note_on_c, 0, 69, 0
2, 466542, Note_on_c, 0, 76, 0
2, 466560, Note_on_c, 0, 85, 61
2, 466560, Note_on_c, 0, 73, 51
2, 466632, Note_on_c, 0, 73, 0
2, 466632, Note_on_c, 0, 85, 0
2, 466650, Note_on_c, 0, 76, 61
2, 466650, Note_on_c, 0, 69, 50
2, 466722, Note_on_c, 0, 69, 0
2, 466722, Note_on_c, 0, 76, 0
2, 466740, Note_on_c, 0, 85, 60
2, 466740, Note_on_c, 0, 73, 50
2, 466812, Note_on_c, 0, 73, 0
2, 466812, Note_on_c, 0, 85, 0
2, 466830, Note_on_c, 0, 76, 59
2, 466830, Note_on_c, 0, 69, 49
2, 466902, Note_on_c, 0, 69, 0
2, 466902, Note_on_c, 0, 76, 0
2, 466920, Note_on_c, 0, 86, 58
2, 466920, Note_on_c, 0, 74, 48
2, 467460, Note_on_c, 0, 74, 0
2, 467460, Note_on_c, 0, 86, 0
2, 467460, Note_on_c, 0, 89, 77
2, 467460, Note_on_c, 0, 77, 77
2, 467640, Note_on_c, 0, 77, 0
2, 467640, Note_on_c, 0, 89, 0
2, 467640, Note_on_c, 0, 88, 72
2, 467640, Note_on_c, 0, 76, 65
2, 467820, Note_on_c, 0, 76, 0
2, 467820, Note_on_c, 0, 88, 0
2, 467820, Note_on_c, 0, 89, 71
2, 467820, Note_on_c, 0, 77, 71
2, 468000, Note_on_c, 0, 77, 0
2, 468000, Note_on_c, 0, 89, 0
2, 468000, Note_on_c, 0, 86, 57
2, 468000, Note_on_c, 0, 74, 63
2, 468540, Note_on_c, 0, 74, 0
2, 468540, Note_on_c, 0, 74, 112
2, 468720, Note_on_c, 0, 74, 0
2, 468720, Note_on_c, 0, 86, 0
2, 468720, Note_on_c, 0, 85, 68
2, 468720, Note_on_c, 0, 73, 111
2, 468900, Note_on_c, 0, 73, 0
2, 468900, Note_on_c, 0, 74, 112
2, 469080, Note_on_c, 0, 74, 0
2, 469080, Note_on_c, 0, 85, 0
2, 469080, Note_on_c, 0, 82, 95
2, 469080, Note_on_c, 0, 70, 112
2, 469080, Note_on_c, 0, 70, 52
2, 469620, Note_on_c, 0, 70, 0
2, 469620, Note_on_c, 0, 82, 0
2, 469620, Note_on_c, 0, 86, 76
2, 469620, Note_on_c, 0, 74, 80
2, 469800, Note_on_c, 0, 74, 0
2, 469800, Note_on_c, 0, 86, 0
2, 469800, Note_on_c, 0, 85, 66
2, 469800, Note_on_c, 0, 73, 67
2, 469980, Note_on_c, 0, 73, 0
2, 469980, Note_on_c, 0, 85, 0
2, 469980, Note_on_c, 0, 86, 75
2, 469980, Note_on_c, 0, 74, 77
2, 470160, Note_on_c, 0, 74, 0
2, 470160, Note_on_c, 0, 86, 0
2, 470160, Note_on_c, 0, 82, 68
2, 470160, Note_on_c, 0, 70, 68
2, 470700, Note_on_c, 0, 70, 0
2, 470700, Note_on_c, 0, 70, 78
2, 470880, Note_on_c, 0, 70, 0
2, 470880, Note_on_c, 0, 82, 0
2, 470880, Note_on_c, 0, 81, 75
2, 470880, Note_on_c, 0, 69, 101
2, 471060, Note_on_c, 0, 69, 0
2, 471060, Note_on_c, 0, 70, 109
2, 471240, Note_on_c, 0, 70, 0
2, 471240, Note_on_c, 0, 81, 0
2, 471240, Note_on_c, 0, 70, 0
2, 471240, Note_on_c, 0, 79, 96
2, 471240, Note_on_c, 0, 67, 89
2, 471240, Note_on_c, 0, 67, 61
2, 471420, Note_on_c, 0, 67, 0
2, 471420, Note_on_c, 0, 79, 0
2, 471420, Note_on_c, 0, 82, 72
2, 471420, Note_on_c, 0, 70, 74
2, 471600, Note_on_c, 0, 70, 0
2, 471600, Note_on_c, 0, 82, 0
2, 471600, Note_on_c, 0, 81, 72
2, 471600, Note_on_c, 0, 69, 64
2, 471780, Note_on_c, 0, 69, 0
2, 471780, Note_on_c, 0, 81, 0
2, 471780, Note_on_c, 0, 82, 73
2, 471780, Note_on_c, 0, 70, 71
2, 471960, Note_on_c, 0, 70, 0
2, 471960, Note_on_c, 0, 82, 0
2, 471960, Note_on_c, 0, 79, 61
2, 471960, Note_on_c, 0, 67, 66
2, 472500, Note_on_c, 0, 79, 0
2, 472500, Note_on_c, 0, 67, 0
2, 472500, Note_on_c, 0, 79, 66
2, 472500, Note_on_c, 0, 67, 68
2, 472680, Note_on_c, 0, 79, 0
2, 472680, Note_on_c, 0, 67, 0
2, 472680, Note_on_c, 0, 78, 63
2, 472680, Note_on_c, 0, 66, 66
2, 472860, Note_on_c, 0, 66, 0
2, 472860, Note_on_c, 0, 78, 0
2, 472860, Note_on_c, 0, 79, 70
2, 472860, Note_on_c, 0, 67, 74
2, 473040, Note_on_c, 0, 79, 0
2, 473040, Note_on_c, 0, 67, 0
2, 473040, Note_on_c, 0, 76, 60
2, 473040, Note_on_c, 0, 64, 64
2, 473400, Note_on_c, 0, 67, 0
2, 473400, Note_on_c, 0, 67, 97
2, 473760, Note_on_c, 0, 64, 0
2, 473760, Note_on_c, 0, 76, 0
2, 473760, Note_on_c, 0, 75, 78
2, 473760, Note_on_c, 0, 63, 73
2, 474393, Note_on_c, 0, 63, 0
2, 474393, Note_on_c, 0, 75, 0
2, 474480, Note_on_c, 0, 74, 68
2, 474480, Note_on_c, 0, 62, 68
2, 475113, Note_on_c, 0, 62, 0
2, 475113, Note_on_c, 0, 74, 0
2, 475200, Note_on_c, 0, 73, 65
2, 475200, Note_on_c, 0, 61, 63
2, 475517, Note_on_c, 0, 61, 0
2, 475517, Note_on_c, 0, 73, 0
2, 475560, Note_on_c, 0, 67, 0
2, 475560, Note_on_c, 0, 74, 78
2, 475560, Note_on_c, 0, 62, 77
2, 476100, Note_on_c, 0, 62, 0
2, 476100, Note_on_c, 0, 74, 0
2, 476100, Note_on_c, 0, 77, 73
2, 476100, Note_on_c, 0, 65, 73
2, 476280, Note_on_c, 0, 65, 0
2, 476280, Note_on_c, 0, 77, 0
2, 476280, Note_on_c, 0, 76, 64
2, 476280, Note_on_c, 0, 64, 65
2, 476460, Note_on_c, 0, 64, 0
2, 476460, Note_on_c, 0, 76, 0
2, 476460, Note_on_c, 0, 77, 77
2, 476460, Note_on_c, 0, 65, 71
2, 476640, Note_on_c, 0, 65, 0
2, 476640, Note_on_c, 0, 77, 0
2, 476640, Note_on_c, 0, 74, 68
2, 476640, Note_on_c, 0, 62, 68
2, 477180, Note_on_c, 0, 62, 0
2, 477180, Note_on_c, 0, 62, 76
2, 477360, Note_on_c, 0, 62, 0
2, 477360, Note_on_c, 0, 74, 0
2, 477360, Note_on_c, 0, 73, 78
2, 477360, Note_on_c, 0, 61, 78
2, 477540, Note_on_c, 0, 61, 0
2, 477540, Note_on_c, 0, 62, 112
2, 477720, Note_on_c, 0, 62, 0
2, 477720, Note_on_c, 0, 73, 0
2, 477720, Note_on_c, 0, 70, 90
2, 477720, Note_on_c, 0, 58, 85
2, 477720, Note_on_c, 0, 58, 69
2, 478260, Note_on_c, 0, 58, 0
2, 478260, Note_on_c, 0, 70, 0
2, 478260, Note_on_c, 0, 74, 82
2, 478260, Note_on_c, 0, 62, 81
2, 478440, Note_on_c, 0, 62, 0
2, 478440, Note_on_c, 0, 74, 0
2, 478440, Note_on_c, 0, 73, 66
2, 478440, Note_on_c, 0, 61, 65
2, 478620, Note_on_c, 0, 61, 0
2, 478620, Note_on_c, 0, 73, 0
2, 478620, Note_on_c, 0, 74, 72
2, 478620, Note_on_c, 0, 62, 72
2, 478800, Note_on_c, 0, 62, 0
2, 478800, Note_on_c, 0, 74, 0
2, 478800, Note_on_c, 0, 70, 68
2, 478800, Note_on_c, 0, 58, 68
2, 479340, Note_on_c, 0, 58, 0
2, 479340, Note_on_c, 0, 58, 78
2, 479520, Note_on_c, 0, 58, 0
2, 479520, Note_on_c, 0, 70, 0
2, 479520, Note_on_c, 0, 69, 71
2, 479520, Note_on_c, 0, 57, 102
2, 479700, Note_on_c, 0, 57, 0
2, 479700, Note_on_c, 0, 58, 109
2, 479880, Note_on_c, 0, 58, 0
2, 479880, Note_on_c, 0, 69, 0
2, 479880, Note_on_c, 0, 58, 0
2, 479880, Note_on_c, 0, 67, 94
2, 479880, Note_on_c, 0, 55, 99
2, 479880, Note_on_c, 0, 55, 82
2, 480060, Note_on_c, 0, 55, 0
2, 480060, Note_on_c, 0, 67, 0
2, 480060, Note_on_c, 0, 70, 75
2, 480060, Note_on_c, 0, 58, 67
2, 480240, Note_on_c, 0, 58, 0
2, 480240, Note_on_c, 0, 70, 0
2, 480240, Note_on_c, 0, 69, 63
2, 480240, Note_on_c, 0, 57, 70
2, 480420, Note_on_c, 0, 57, 0
2, 480420, Note_on_c, 0, 69, 0
2, 480420, Note_on_c, 0, 70, 77
2, 480420, Note_on_c, 0, 58, 66
2, 480600, Note_on_c, 0, 58, 0
2, 480600, Note_on_c, 0, 70, 0
2, 480600, Note_on_c, 0, 67, 62
2, 480600, Note_on_c, 0, 55, 66
2, 481140, Note_on_c, 0, 67, 0
2, 481140, Note_on_c, 0, 55, 0
2, 481140, Note_on_c, 0, 67, 68
2, 481140, Note_on_c, 0, 55, 71
2, 481320, Note_on_c, 0, 67, 0
2, 481320, Note_on_c, 0, 55, 0
2, 481320, Note_on_c, 0, 66, 63
2, 481320, Note_on_c, 0, 54, 66
2, 481500, Note_on_c, 0, 54, 0
2, 481500, Note_on_c, 0, 66, 0
2, 481500, Note_on_c, 0, 67, 75
2, 481500, Note_on_c, 0, 55, 69
2, 481680, Note_on_c, 0, 67, 0
2, 481680, Note_on_c, 0, 55, 0
2, 481680, Note_on_c, 0, 64, 61
2, 481680, Note_on_c, 0, 52, 63
2, 482040, Note_on_c, 0, 52, 0
2, 482040, Note_on_c, 0, 55, 0
2, 482040, Note_on_c, 0, 55, 68
2, 482400, Note_on_c, 0, 64, 0
2, 482400, Note_on_c, 0, 63, 66
2, 483033, Note_on_c, 0, 63, 0
2, 483120, Note_on_c, 0, 62, 62
2, 483753, Note_on_c, 0, 62, 0
2, 483840, Note_on_c, 0, 61, 58
2, 484157, Note_on_c, 0, 61, 0
2, 484200, Note_on_c, 0, 55, 0
2, 484200, Note_on_c, 0, 62, 56
2, 484674, Note_on_c, 0, 62, 0
2, 484740, Note_on_c, 0, 65, 65
2, 484920, Note_on_c, 0, 65, 0
2, 484920, Note_on_c, 0, 64, 52
2, 485460, Note_on_c, 0, 64, 0
2, 485460, Note_on_c, 0, 65, 63
2, 485640, Note_on_c, 0, 65, 0
2, 485640, Note_on_c, 0, 62, 45
2, 485819, Note_on_c, 0, 62, 0
2, 486000, Note_on_c, 0, 61, 49
2, 486179, Note_on_c, 0, 61, 0
2, 486360, Note_on_c, 0, 62, 56
2, 486834, Note_on_c, 0, 62, 0
2, 486900, Note_on_c, 0, 65, 59
2, 487080, Note_on_c, 0, 65, 0
2, 487080, Note_on_c, 0, 64, 60
2, 487620, Note_on_c, 0, 64, 0
2, 487620, Note_on_c, 0, 65, 63
2, 487800, Note_on_c, 0, 65, 0
2, 487800, Note_on_c, 0, 62, 64
2, 487979, Note_on_c, 0, 62, 0
2, 488160, Note_on_c, 0, 61, 66
2, 488339, Note_on_c, 0, 61, 0
2, 488520, Note_on_c, 0, 74, 56
2, 488520, Note_on_c, 0, 69, 95
2, 488520, Note_on_c, 0, 62, 68
2, 489060, Note_on_c, 0, 62, 0
2, 489060, Note_on_c, 0, 74, 0
2, 489060, Note_on_c, 0, 77, 75
2, 489060, Note_on_c, 0, 65, 75
2, 489153, Note_on_c, 0, 69, 0
2, 489240, Note_on_c, 0, 65, 0
2, 489240, Note_on_c, 0, 77, 0
2, 489240, Note_on_c, 0, 74, 59
2, 489240, Note_on_c, 0, 67, 100
2, 489240, Note_on_c, 0, 62, 67
2, 489419, Note_on_c, 0, 62, 0
2, 489419, Note_on_c, 0, 74, 0
2, 489600, Note_on_c, 0, 73, 64
2, 489600, Note_on_c, 0, 61, 64
2, 489779, Note_on_c, 0, 61, 0
2, 489779, Note_on_c, 0, 73, 0
2, 489873, Note_on_c, 0, 67, 0
2, 489960, Note_on_c, 0, 74, 68
2, 489960, Note_on_c, 0, 69, 99
2, 489960, Note_on_c, 0, 62, 68
2, 490500, Note_on_c, 0, 62, 0
2, 490500, Note_on_c, 0, 74, 0
2, 490500, Note_on_c, 0, 77, 73
2, 490500, Note_on_c, 0, 65, 73
2, 490593, Note_on_c, 0, 69, 0
2, 490680, Note_on_c, 0, 65, 0
2, 490680, Note_on_c, 0, 77, 0
2, 490680, Note_on_c, 0, 74, 75
2, 490680, Note_on_c, 0, 67, 105
2, 490680, Note_on_c, 0, 62, 75
2, 490859, Note_on_c, 0, 62, 0
2, 490859, Note_on_c, 0, 74, 0
2, 491040, Note_on_c, 0, 73, 78
2, 491040, Note_on_c, 0, 61, 78
2, 491219, Note_on_c, 0, 61, 0
2, 491219, Note_on_c, 0, 73, 0
2, 491313, Note_on_c, 0, 67, 0
2, 491400, Note_on_c, 0, 81, 81
2, 491400, Note_on_c, 0, 86, 81
2, 491400, Note_on_c, 0, 69, 81
2, 491400, Note_on_c, 0, 74, 81
2, 491580, Note_on_c, 0, 74, 0
2, 491580, Note_on_c, 0, 81, 0
2, 491580, Note_on_c, 0, 86, 0
2, 491580, Note_on_c, 0, 69, 0
2, 491580, Note_on_c, 0, 89, 95
2, 491580, Note_on_c, 0, 77, 88
2, 491760, Note_on_c, 0, 77, 0
2, 491760, Note_on_c, 0, 89, 0
2, 491760, Note_on_c, 0, 79, 71
2, 491760, Note_on_c, 0, 86, 71
2, 491760, Note_on_c, 0, 67, 75
2, 491760, Note_on_c, 0, 74, 75
2, 492120, Note_on_c, 0, 74, 0
2, 492120, Note_on_c, 0, 79, 0
2, 492120, Note_on_c, 0, 86, 0
2, 492120, Note_on_c, 0, 67, 0
2, 492120, Note_on_c, 0, 85, 72
2, 492120, Note_on_c, 0, 73, 71
2, 492480, Note_on_c, 0, 73, 0
2, 492480, Note_on_c, 0, 85, 0
2, 492480, Note_on_c, 0, 81, 81
2, 492480, Note_on_c, 0, 86, 81
2, 492480, Note_on_c, 0, 69, 81
2, 492480, Note_on_c, 0, 74, 81
2, 492660, Note_on_c, 0, 74, 0
2, 492660, Note_on_c, 0, 81, 0
2, 492660, Note_on_c, 0, 86, 0
2, 492660, Note_on_c, 0, 69, 0
2, 492660, Note_on_c, 0, 89, 83
2, 492660, Note_on_c, 0, 77, 83
2, 492840, Note_on_c, 0, 77, 0
2, 492840, Note_on_c, 0, 89, 0
2, 492840, Note_on_c, 0, 79, 85
2, 492840, Note_on_c, 0, 86, 85
2, 492840, Note_on_c, 0, 67, 85
2, 492840, Note_on_c, 0, 74, 85
2, 493200, Note_on_c, 0, 74, 0
2, 493200, Note_on_c, 0, 79, 0
2, 493200, Note_on_c, 0, 86, 0
2, 493200, Note_on_c, 0, 67, 0
2, 493200, Note_on_c, 0, 85, 89
2, 493200, Note_on_c, 0, 73, 89
2, 493560, Note_on_c, 0, 73, 0
2, 493560, Note_on_c, 0, 85, 0
2, 493560, Note_on_c, 0, 81, 94
2, 493560, Note_on_c, 0, 86, 94
2, 493560, Note_on_c, 0, 74, 94
2, 493740, Note_on_c, 0, 86, 0
2, 493740, Note_on_c, 0, 81, 0
2, 493740, Note_on_c, 0, 89, 105
2, 493920, Note_on_c, 0, 89, 0
2, 493920, Note_on_c, 0, 74, 0
2, 493920, Note_on_c, 0, 79, 86
2, 493920, Note_on_c, 0, 86, 86
2, 493920, Note_on_c, 0, 74, 98
2, 494100, Note_on_c, 0, 74, 0
2, 494100, Note_on_c, 0, 86, 0
2, 494100, Note_on_c, 0, 79, 0
2, 494100, Note_on_c, 0, 85, 87
2, 494100, Note_on_c, 0, 73, 88
2, 494280, Note_on_c, 0, 73, 0
2, 494280, Note_on_c, 0, 85, 0
2, 494280, Note_on_c, 0, 81, 94
2, 494280, Note_on_c, 0, 86, 94
2, 494280, Note_on_c, 0, 74, 94
2, 494460, Note_on_c, 0, 86, 0
2, 494460, Note_on_c, 0, 81, 0
2, 494460, Note_on_c, 0, 89, 95
2, 494640, Note_on_c, 0, 89, 0
2, 494640, Note_on_c, 0, 74, 0
2, 494640, Note_on_c, 0, 79, 96
2, 494640, Note_on_c, 0, 86, 96
2, 494640, Note_on_c, 0, 74, 96
2, 494820, Note_on_c, 0, 74, 0
2, 494820, Note_on_c, 0, 86, 0
2, 494820, Note_on_c, 0, 79, 0
2, 494820, Note_on_c, 0, 85, 97
2, 494820, Note_on_c, 0, 73, 97
2, 495000, Note_on_c, 0, 73, 0
2, 495000, Note_on_c, 0, 85, 0
2, 495000, Note_on_c, 0, 81, 98
2, 495000, Note_on_c, 0, 86, 98
2, 495000, Note_on_c, 0, 74, 98
2, 495180, Note_on_c, 0, 86, 0
2, 495180, Note_on_c, 0, 81, 0
2, 495180, Note_on_c, 0, 89, 99
2, 495360, Note_on_c, 0, 89, 0
2, 495360, Note_on_c, 0, 74, 0
2, 495360, Note_on_c, 0, 79, 100
2, 495360, Note_on_c, 0, 86, 100
2, 495360, Note_on_c, 0, 74, 100
2, 495540, Note_on_c, 0, 74, 0
2, 495540, Note_on_c, 0, 86, 0
2, 495540, Note_on_c, 0, 79, 0
2, 495540, Note_on_c, 0, 85, 101
2, 495540, Note_on_c, 0, 73, 101
2, 495720, Note_on_c, 0, 73, 0
2, 495720, Note_on_c, 0, 85, 0
2, 495720, Note_on_c, 0, 81, 102
2, 495720, Note_on_c, 0, 86, 102
2, 495720, Note_on_c, 0, 74, 102
2, 495900, Note_on_c, 0, 86, 0
2, 495900, Note_on_c, 0, 81, 0
2, 495900, Note_on_c, 0, 89, 103
2, 496080, Note_on_c, 0, 89, 0
2, 496080, Note_on_c, 0, 74, 0
2, 496080, Note_on_c, 0, 79, 104
2, 496080, Note_on_c, 0, 86, 104
2, 496080, Note_on_c, 0, 74, 104
2, 496260, Note_on_c, 0, 74, 0
2, 496260, Note_on_c, 0, 86, 0
2, 496260, Note_on_c, 0, 79, 0
2, 496260, Note_on_c, 0, 85, 105
2, 496260, Note_on_c, 0, 73, 105
2, 496440, Note_on_c, 0, 73, 0
2, 496440, Note_on_c, 0, 85, 0
2, 496440, Note_on_c, 0, 86, 106
2, 496440, Note_on_c, 0, 74, 106
2, 496620, Note_on_c, 0, 74, 0
2, 496620, Note_on_c, 0, 86, 0
2, 496620, End_track
3, 0, Start_track
3, 0, Title_t, "Piano"
3, 0, Program_c, 0, 0
3, 0, Control_c, 0, 7, 105
3, 0, Control_c, 0, 10, 47
3, 0, Control_c, 0, 91, 48
3, 1350, Control_c, 0, 121, 0
3, 1350, Control_c, 0, 64, 0
3, 1350, Control_c, 0, 121, 0
3, 1350, Control_c, 0, 64, 0
3, 1350, Control_c, 0, 91, 48
3, 1350, Control_c, 0, 10, 51
3, 1350, Control_c, 0, 7, 100
3, 1440, Note_on_c, 0, 50, 99
3, 1440, Note_on_c, 0, 38, 97
3, 2340, Note_on_c, 0, 38, 0
3, 2340, Note_on_c, 0, 50, 0
3, 2520, Note_on_c, 0, 50, 96
3, 2520, Note_on_c, 0, 50, 77
3, 2520, Note_on_c, 0, 38, 99
3, 2520, Note_on_c, 0, 38, 75
3, 2880, Note_on_c, 0, 38, 0
3, 2880, Note_on_c, 0, 50, 0
3, 2880, Note_on_c, 0, 48, 83
3, 2880, Note_on_c, 0, 36, 83
3, 3420, Note_on_c, 0, 36, 0
3, 3420, Note_on_c, 0, 38, 0
3, 3420, Note_on_c, 0, 50, 0
3, 3420, Note_on_c, 0, 48, 0
3, 3420, Note_on_c, 0, 50, 110
3, 3420, Note_on_c, 0, 50, 87
3, 3420, Note_on_c, 0, 38, 110
3, 3420, Note_on_c, 0, 38, 85
3, 3600, Note_on_c, 0, 38, 0
3, 3600, Note_on_c, 0, 50, 0
3, 3600, Note_on_c, 0, 46, 78
3, 3600, Note_on_c, 0, 34, 85
3, 3960, Note_on_c, 0, 34, 0
3, 3960, Note_on_c, 0, 46, 0
3, 3960, Note_on_c, 0, 45, 84
3, 3960, Note_on_c, 0, 33, 83
3, 4140, Note_on_c, 0, 50, 0
3, 4140, Note_on_c, 0, 38, 0
3, 4320, Note_on_c, 0, 45, 0
3, 4320, Note_on_c, 0, 33, 0
3, 4320, Note_on_c, 0, 50, 99
3, 4320, Note_on_c, 0, 46, 85
3, 4320, Note_on_c, 0, 38, 101
3, 4320, Note_on_c, 0, 34, 87
3, 5220, Note_on_c, 0, 34, 0
3, 5220, Note_on_c, 0, 50, 0
3, 5220, Note_on_c, 0, 46, 0
3, 5220, Note_on_c, 0, 38, 0
3, 5400, Note_on_c, 0, 50, 97
3, 5400, Note_on_c, 0, 50, 88
3, 5400, Note_on_c, 0, 38, 98
3, 5400, Note_on_c, 0, 38, 87
3, 5760, Note_on_c, 0, 38, 0
3, 5760, Note_on_c, 0, 50, 0
3, 5760, Note_on_c, 0, 48, 80
3, 5760, Note_on_c, 0, 36, 79
3, 6300, Note_on_c, 0, 36, 0
3, 6300, Note_on_c, 0, 38, 0
3, 6300, Note_on_c, 0, 50, 0
3, 6300, Note_on_c, 0, 48, 0
3, 6300, Note_on_c, 0, 50, 107
3, 6300, Note_on_c, 0, 50, 88
3, 6300, Note_on_c, 0, 38, 109
3, 6300, Note_on_c, 0, 38, 89
3, 6480, Note_on_c, 0, 38, 0
3, 6480, Note_on_c, 0, 50, 0
3, 6480, Note_on_c, 0, 46, 83
3, 6480, Note_on_c, 0, 34, 81
3, 6660, Note_on_c, 0, 34, 0
3, 6660, Note_on_c, 0, 46, 0
3, 6660, Note_on_c, 0, 48, 87
3, 6660, Note_on_c, 0, 36, 86
3, 6840, Note_on_c, 0, 36, 0
3, 6840, Note_on_c, 0, 48, 0
3, 6840, Note_on_c, 0, 45, 81
3, 6840, Note_on_c, 0, 33, 83
3, 7020, Note_on_c, 0, 33, 0
3, 7020, Note_on_c, 0, 38, 0
3, 7020, Note_on_c, 0, 50, 0
3, 7020, Note_on_c, 0, 45, 0
3, 7020, Note_on_c, 0, 46, 86
3, 7020, Note_on_c, 0, 34, 85
3, 7200, Note_on_c, 0, 34, 0
3, 7200, Note_on_c, 0, 46, 0
3, 7200, Note_on_c, 0, 50, 94
3, 7200, Note_on_c, 0, 43, 80
3, 7200, Note_on_c, 0, 31, 111
3, 7200, Note_on_c, 0, 38, 111
3, 7920, Note_on_c, 0, 43, 0
3, 7920, Note_on_c, 0, 50, 0
3, 7920, Note_on_c, 0, 50, 104
3, 7920, Note_on_c, 0, 50, 60
3, 8100, Note_on_c, 0, 31, 0
3, 8100, Note_on_c, 0, 38, 0
3, 8280, Note_on_c, 0, 50, 0
3, 8280, Note_on_c, 0, 50, 0
3, 8280, Note_on_c, 0, 50, 111
3, 8280, Note_on_c, 0, 50, 66
3, 8595, Note_on_c, 0, 50, 0
3, 8595, Note_on_c, 0, 50, 0
3, 8595, Note_on_c, 0, 59, 111
3, 8595, Note_on_c, 0, 50, 71
3, 8595, Note_on_c, 0, 31, 111
3, 8595, Note_on_c, 0, 43, 111
3, 8640, Note_on_c, 0, 43, 0
3, 8640, Note_on_c, 0, 59, 0
3, 8640, Note_on_c, 0, 50, 0
3, 8640, Note_on_c, 0, 31, 0
3, 8640, Note_on_c, 0, 59, 110
3, 8640, Note_on_c, 0, 50, 72
3, 8640, Note_on_c, 0, 31, 110
3, 8640, Note_on_c, 0, 43, 110
3, 9360, Note_on_c, 0, 59, 0
3, 9360, Note_on_c, 0, 58, 103
3, 10080, Note_on_c, 0, 58, 0
3, 10080, Note_on_c, 0, 43, 0
3, 10080, Note_on_c, 0, 31, 0
3, 10080, Note_on_c, 0, 50, 0
3, 10080, Note_on_c, 0, 50, 45
3, 10080, Note_on_c, 0, 57, 45
3, 10080, Note_on_c, 0, 38, 51
3, 10080, Note_on_c, 0, 45, 51
3, 10620, Note_on_c, 0, 45, 0
3, 10620, Note_on_c, 0, 50, 0
3, 10620, Note_on_c, 0, 57, 0
3, 10620, Note_on_c, 0, 38, 0
3, 10620, Note_on_c, 0, 56, 42
3, 10679, Note_on_c, 0, 56, 0
3, 10679, Note_on_c, 0, 57, 44
3, 10740, Note_on_c, 0, 57, 0
3, 10740, Note_on_c, 0, 58, 45
3, 10800, Note_on_c, 0, 58, 0
3, 10800, Note_on_c, 0, 57, 62
3, 10800, Note_on_c, 0, 38, 59
3, 10800, Note_on_c, 0, 50, 59
3, 10889, Note_on_c, 0, 50, 0
3, 10889, Note_on_c, 0, 38, 0
3, 11520, Note_on_c, 0, 38, 39
3, 11520, Note_on_c, 0, 50, 39
3, 11609, Note_on_c, 0, 50, 0
3, 11609, Note_on_c, 0, 38, 0
3, 12240, Note_on_c, 0, 38, 41
3, 12240, Note_on_c, 0, 50, 41
3, 12329, Note_on_c, 0, 50, 0
3, 12329, Note_on_c, 0, 38, 0
3, 12960, Note_on_c, 0, 38, 35
3, 12960, Note_on_c, 0, 50, 35
3, 13049, Note_on_c, 0, 50, 0
3, 13049, Note_on_c, 0, 38, 0
3, 13680, Note_on_c, 0, 57, 0
3, 13680, Note_on_c, 0, 59, 49
3, 14400, Note_on_c, 0, 59, 0
3, 14400, Note_on_c, 0, 61, 47
3, 15120, Note_on_c, 0, 61, 0
3, 15120, Note_on_c, 0, 62, 48
3, 15120, Note_on_c, 0, 38, 36
3, 15120, Note_on_c, 0, 50, 36
3, 15209, Note_on_c, 0, 50, 0
3, 15209, Note_on_c, 0, 38, 0
3, 15300, Note_on_c, 0, 62, 0
3, 15480, Note_on_c, 0, 57, 53
3, 15797, Note_on_c, 0, 57, 0
3, 15840, Note_on_c, 0, 59, 59
3, 16473, Note_on_c, 0, 59, 0
3, 16560, Note_on_c, 0, 61, 63
3, 17193, Note_on_c, 0, 61, 0
3, 17280, Note_on_c, 0, 62, 59
3, 17820, Note_on_c, 0, 62, 0
3, 18000, Note_on_c, 0, 57, 63
3, 18000, Note_on_c, 0, 38, 35
3, 18000, Note_on_c, 0, 50, 35
3, 18089, Note_on_c, 0, 50, 0
3, 18089, Note_on_c, 0, 38, 0
3, 18180, Note_on_c, 0, 57, 0
3, 18180, Note_on_c, 0, 57, 46
3, 18269, Note_on_c, 0, 57, 0
3, 18360, Note_on_c, 0, 57, 74
3, 18360, Note_on_c, 0, 33, 40
3, 18360, Note_on_c, 0, 45, 40
3, 18449, Note_on_c, 0, 45, 0
3, 18449, Note_on_c, 0, 33, 0
3, 18540, Note_on_c, 0, 57, 0
3, 18540, Note_on_c, 0, 57, 47
3, 18629, Note_on_c, 0, 57, 0
3, 18720, Note_on_c, 0, 57, 45
3, 18720, Note_on_c, 0, 38, 35
3, 18720, Note_on_c, 0, 50, 35
3, 18809, Note_on_c, 0, 50, 0
3, 18809, Note_on_c, 0, 38, 0
3, 18809, Note_on_c, 0, 57, 0
3, 19260, Note_on_c, 0, 53, 35
3, 19260, Note_on_c, 0, 41, 39
3, 19440, Note_on_c, 0, 41, 0
3, 19440, Note_on_c, 0, 53, 0
3, 19440, Note_on_c, 0, 57, 43
3, 19440, Note_on_c, 0, 45, 44
3, 19529, Note_on_c, 0, 45, 0
3, 19619, Note_on_c, 0, 57, 0
3, 19980, Note_on_c, 0, 55, 37
3, 19980, Note_on_c, 0, 43, 34
3, 20160, Note_on_c, 0, 43, 0
3, 20160, Note_on_c, 0, 55, 0
3, 20160, Note_on_c, 0, 53, 42
3, 20160, Note_on_c, 0, 41, 41
3, 20250, Note_on_c, 0, 41, 0
3, 20250, Note_on_c, 0, 53, 0
3, 20250, Note_on_c, 0, 55, 46
3, 20250, Note_on_c, 0, 43, 43
3, 20340, Note_on_c, 0, 43, 0
3, 20340, Note_on_c, 0, 55, 0
3, 20340, Note_on_c, 0, 53, 38
3, 20340, Note_on_c, 0, 41, 44
3, 20430, Note_on_c, 0, 41, 0
3, 20430, Note_on_c, 0, 53, 0
3, 20430, Note_on_c, 0, 52, 41
3, 20430, Note_on_c, 0, 40, 46
3, 20520, Note_on_c, 0, 40, 0
3, 20520, Note_on_c, 0, 52, 0
3, 20520, Note_on_c, 0, 50, 40
3, 20520, Note_on_c, 0, 38, 43
3, 20610, Note_on_c, 0, 38, 0
3, 20610, Note_on_c, 0, 50, 0
3, 20610, Note_on_c, 0, 52, 49
3, 20610, Note_on_c, 0, 40, 47
3, 20700, Note_on_c, 0, 40, 0
3, 20700, Note_on_c, 0, 52, 0
3, 20700, Note_on_c, 0, 50, 44
3, 20700, Note_on_c, 0, 38, 43
3, 20790, Note_on_c, 0, 38, 0
3, 20790, Note_on_c, 0, 50, 0
3, 20790, Note_on_c, 0, 48, 46
3, 20790, Note_on_c, 0, 36, 42
3, 20880, Note_on_c, 0, 36, 0
3, 20880, Note_on_c, 0, 48, 0
3, 20880, Note_on_c, 0, 46, 42
3, 20880, Note_on_c, 0, 34, 40
3, 20969, Note_on_c, 0, 34, 0
3, 20969, Note_on_c, 0, 46, 0
3, 21240, Note_on_c, 0, 48, 33
3, 21240, Note_on_c, 0, 36, 36
3, 21329, Note_on_c, 0, 36, 0
3, 21329, Note_on_c, 0, 48, 0
3, 21600, Note_on_c, 0, 50, 37
3, 21600, Note_on_c, 0, 38, 38
3, 21689, Note_on_c, 0, 38, 0
3, 21689, Note_on_c, 0, 50, 0
3, 22140, Note_on_c, 0, 56, 38
3, 22199, Note_on_c, 0, 56, 0
3, 22199, Note_on_c, 0, 57, 41
3, 22260, Note_on_c, 0, 57, 0
3, 22260, Note_on_c, 0, 58, 51
3, 22320, Note_on_c, 0, 58, 0
3, 22320, Note_on_c, 0, 57, 61
3, 22320, Note_on_c, 0, 38, 57
3, 22320, Note_on_c, 0, 50, 57
3, 22409, Note_on_c, 0, 50, 0
3, 22409, Note_on_c, 0, 38, 0
3, 23040, Note_on_c, 0, 38, 39
3, 23040, Note_on_c, 0, 50, 39
3, 23129, Note_on_c, 0, 50, 0
3, 23129, Note_on_c, 0, 38, 0
3, 23760, Note_on_c, 0, 57, 0
3, 23760, Note_on_c, 0, 59, 43
3, 24480, Note_on_c, 0, 59, 0
3, 24480, Note_on_c, 0, 61, 49
3, 25200, Note_on_c, 0, 61, 0
3, 25200, Note_on_c, 0, 62, 46
3, 25200, Note_on_c, 0, 38, 39
3, 25200, Note_on_c, 0, 50, 39
3, 25289, Note_on_c, 0, 50, 0
3, 25289, Note_on_c, 0, 38, 0
3, 25380, Note_on_c, 0, 62, 0
3, 26280, Note_on_c, 0, 57, 52
3, 26597, Note_on_c, 0, 57, 0
3, 26640, Note_on_c, 0, 59, 60
3, 26957, Note_on_c, 0, 59, 0
3, 27000, Note_on_c, 0, 61, 61
3, 27317, Note_on_c, 0, 61, 0
3, 27360, Note_on_c, 0, 62, 59
3, 27900, Note_on_c, 0, 62, 0
3, 28080, Note_on_c, 0, 57, 60
3, 28080, Note_on_c, 0, 38, 39
3, 28080, Note_on_c, 0, 50, 39
3, 28169, Note_on_c, 0, 50, 0
3, 28169, Note_on_c, 0, 38, 0
3, 28260, Note_on_c, 0, 57, 0
3, 28260, Note_on_c, 0, 57, 44
3, 28349, Note_on_c, 0, 57, 0
3, 28440, Note_on_c, 0, 57, 67
3, 28440, Note_on_c, 0, 36, 33
3, 28440, Note_on_c, 0, 48, 33
3, 28529, Note_on_c, 0, 48, 0
3, 28529, Note_on_c, 0, 36, 0
3, 28620, Note_on_c, 0, 57, 0
3, 28620, Note_on_c, 0, 57, 47
3, 28709, Note_on_c, 0, 57, 0
3, 28800, Note_on_c, 0, 53, 43
3, 28800, Note_on_c, 0, 33, 41
3, 28800, Note_on_c, 0, 45, 41
3, 28889, Note_on_c, 0, 45, 0
3, 28889, Note_on_c, 0, 33, 0
3, 28889, Note_on_c, 0, 53, 0
3, 29340, Note_on_c, 0, 50, 39
3, 29340, Note_on_c, 0, 38, 42
3, 29520, Note_on_c, 0, 38, 0
3, 29520, Note_on_c, 0, 50, 0
3, 29520, Note_on_c, 0, 53, 41
3, 29520, Note_on_c, 0, 41, 45
3, 29699, Note_on_c, 0, 41, 0
3, 29699, Note_on_c, 0, 53, 0
3, 30060, Note_on_c, 0, 52, 43
3, 30060, Note_on_c, 0, 40, 37
3, 30149, Note_on_c, 0, 40, 0
3, 30149, Note_on_c, 0, 52, 0
3, 30240, Note_on_c, 0, 50, 40
3, 30240, Note_on_c, 0, 38, 41
3, 30330, Note_on_c, 0, 38, 0
3, 30330, Note_on_c, 0, 50, 0
3, 30330, Note_on_c, 0, 52, 43
3, 30330, Note_on_c, 0, 40, 46
3, 30420, Note_on_c, 0, 40, 0
3, 30420, Note_on_c, 0, 52, 0
3, 30420, Note_on_c, 0, 50, 42
3, 30420, Note_on_c, 0, 38, 44
3, 30510, Note_on_c, 0, 38, 0
3, 30510, Note_on_c, 0, 50, 0
3, 30510, Note_on_c, 0, 48, 48
3, 30510, Note_on_c, 0, 36, 34
3, 30600, Note_on_c, 0, 36, 0
3, 30600, Note_on_c, 0, 48, 0
3, 30600, Note_on_c, 0, 46, 42
3, 30600, Note_on_c, 0, 34, 38
3, 30690, Note_on_c, 0, 34, 0
3, 30690, Note_on_c, 0, 46, 0
3, 30690, Note_on_c, 0, 48, 45
3, 30690, Note_on_c, 0, 36, 44
3, 30780, Note_on_c, 0, 36, 0
3, 30780, Note_on_c, 0, 48, 0
3, 30780, Note_on_c, 0, 46, 45
3, 30780, Note_on_c, 0, 34, 46
3, 30870, Note_on_c, 0, 34, 0
3, 30870, Note_on_c, 0, 46, 0
3, 30870, Note_on_c, 0, 45, 39
3, 30870, Note_on_c, 0, 33, 42
3, 30960, Note_on_c, 0, 33, 0
3, 30960, Note_on_c, 0, 45, 0
3, 30960, Note_on_c, 0, 43, 44
3, 30960, Note_on_c, 0, 31, 46
3, 31049, Note_on_c, 0, 31, 0
3, 31049, Note_on_c, 0, 43, 0
3, 31320, Note_on_c, 0, 45, 38
3, 31320, Note_on_c, 0, 33, 36
3, 31409, Note_on_c, 0, 33, 0
3, 31409, Note_on_c, 0, 45, 0
3, 31680, Note_on_c, 0, 46, 37
3, 31680, Note_on_c, 0, 58, 37
3, 31680, Note_on_c, 0, 34, 39
3, 32040, Note_on_c, 0, 34, 0
3, 32040, Note_on_c, 0, 58, 0
3, 32040, Note_on_c, 0, 46, 0
3, 32040, Note_on_c, 0, 50, 37
3, 32040, Note_on_c, 0, 38, 47
3, 32400, Note_on_c, 0, 38, 0
3, 32400, Note_on_c, 0, 50, 0
3, 32400, Note_on_c, 0, 53, 46
3, 32400, Note_on_c, 0, 41, 50
3, 32760, Note_on_c, 0, 41, 0
3, 32760, Note_on_c, 0, 53, 0
3, 32760, Note_on_c, 0, 58, 48
3, 32760, Note_on_c, 0, 46, 49
3, 33480, Note_on_c, 0, 46, 0
3, 33480, Note_on_c, 0, 58, 0
3, 33480, Note_on_c, 0, 50, 37
3, 33840, Note_on_c, 0, 50, 0
3, 33840, Note_on_c, 0, 53, 44
3, 34200, Note_on_c, 0, 53, 0
3, 34200, Note_on_c, 0, 50, 41
3, 34920, Note_on_c, 0, 50, 0
3, 34920, Note_on_c, 0, 58, 48
3, 34920, Note_on_c, 0, 46, 40
3, 35640, Note_on_c, 0, 46, 0
3, 35640, Note_on_c, 0, 58, 0
3, 35640, Note_on_c, 0, 57, 42
3, 35640, Note_on_c, 0, 45, 44
3, 36360, Note_on_c, 0, 45, 0
3, 36360, Note_on_c, 0, 57, 0
3, 36360, Note_on_c, 0, 53, 42
3, 36360, Note_on_c, 0, 41, 40
3, 36720, Note_on_c, 0, 41, 0
3, 36720, Note_on_c, 0, 53, 0
3, 36720, Note_on_c, 0, 50, 40
3, 36720, Note_on_c, 0, 38, 43
3, 37080, Note_on_c, 0, 38, 0
3, 37080, Note_on_c, 0, 50, 0
3, 37080, Note_on_c, 0, 45, 38
3, 37080, Note_on_c, 0, 33, 41
3, 37440, Note_on_c, 0, 33, 0
3, 37440, Note_on_c, 0, 45, 0
3, 37440, Note_on_c, 0, 44, 41
3, 37440, Note_on_c, 0, 32, 39
3, 37530, Note_on_c, 0, 32, 0
3, 37530, Note_on_c, 0, 44, 0
3, 37530, Note_on_c, 0, 45, 42
3, 37530, Note_on_c, 0, 33, 49
3, 37620, Note_on_c, 0, 33, 0
3, 37620, Note_on_c, 0, 45, 0
3, 37620, Note_on_c, 0, 47, 46
3, 37620, Note_on_c, 0, 35, 45
3, 37710, Note_on_c, 0, 35, 0
3, 37710, Note_on_c, 0, 47, 0
3, 37710, Note_on_c, 0, 45, 44
3, 37710, Note_on_c, 0, 33, 43
3, 37800, Note_on_c, 0, 33, 0
3, 37800, Note_on_c, 0, 45, 0
3, 37800, Note_on_c, 0, 44, 57
3, 37800, Note_on_c, 0, 32, 52
3, 38036, Note_on_c, 0, 32, 0
3, 38036, Note_on_c, 0, 44, 0
3, 38070, Note_on_c, 0, 47, 47
3, 38070, Note_on_c, 0, 35, 46
3, 38160, Note_on_c, 0, 35, 0
3, 38160, Note_on_c, 0, 47, 0
3, 38160, Note_on_c, 0, 45, 56
3, 38160, Note_on_c, 0, 33, 54
3, 38396, Note_on_c, 0, 33, 0
3, 38396, Note_on_c, 0, 45, 0
3, 38430, Note_on_c, 0, 47, 46
3, 38430, Note_on_c, 0, 35, 47
3, 38520, Note_on_c, 0, 35, 0
3, 38520, Note_on_c, 0, 47, 0
3, 38520, Note_on_c, 0, 44, 43
3, 38520, Note_on_c, 0, 32, 46
3, 38609, Note_on_c, 0, 32, 0
3, 38609, Note_on_c, 0, 44, 0
3, 38700, Note_on_c, 0, 42, 43
3, 38700, Note_on_c, 0, 30, 44
3, 38789, Note_on_c, 0, 30, 0
3, 38789, Note_on_c, 0, 42, 0
3, 38880, Note_on_c, 0, 44, 60
3, 38880, Note_on_c, 0, 32, 66
3, 39116, Note_on_c, 0, 32, 0
3, 39116, Note_on_c, 0, 44, 0
3, 39150, Note_on_c, 0, 45, 46
3, 39150, Note_on_c, 0, 33, 48
3, 39240, Note_on_c, 0, 33, 0
3, 39240, Note_on_c, 0, 45, 0
3, 39240, Note_on_c, 0, 47, 44
3, 39240, Note_on_c, 0, 35, 43
3, 39329, Note_on_c, 0, 35, 0
3, 39329, Note_on_c, 0, 47, 0
3, 39420, Note_on_c, 0, 48, 46
3, 39420, Note_on_c, 0, 36, 47
3, 39509, Note_on_c, 0, 36, 0
3, 39509, Note_on_c, 0, 48, 0
3, 39600, Note_on_c, 0, 50, 40
3, 39600, Note_on_c, 0, 38, 40
3, 39689, Note_on_c, 0, 38, 0
3, 39689, Note_on_c, 0, 50, 0
3, 39780, Note_on_c, 0, 52, 48
3, 39780, Note_on_c, 0, 40, 43
3, 39869, Note_on_c, 0, 40, 0
3, 39869, Note_on_c, 0, 52, 0
3, 39960, Note_on_c, 0, 53, 69
3, 39960, Note_on_c, 0, 41, 68
3, 40320, Note_on_c, 0, 41, 0
3, 40320, Note_on_c, 0, 53, 0
3, 40320, Note_on_c, 0, 50, 41
3, 40320, Note_on_c, 0, 38, 41
3, 40410, Note_on_c, 0, 38, 0
3, 40410, Note_on_c, 0, 50, 0
3, 40410, Note_on_c, 0, 52, 44
3, 40410, Note_on_c, 0, 40, 43
3, 40500, Note_on_c, 0, 40, 0
3, 40500, Note_on_c, 0, 52, 0
3, 40500, Note_on_c, 0, 50, 46
3, 40500, Note_on_c, 0, 38, 42
3, 40590, Note_on_c, 0, 38, 0
3, 40590, Note_on_c, 0, 50, 0
3, 40590, Note_on_c, 0, 48, 45
3, 40590, Note_on_c, 0, 36, 46
3, 40680, Note_on_c, 0, 36, 0
3, 40680, Note_on_c, 0, 48, 0
3, 40680, Note_on_c, 0, 47, 43
3, 40680, Note_on_c, 0, 35, 45
3, 40770, Note_on_c, 0, 35, 0
3, 40770, Note_on_c, 0, 47, 0
3, 40770, Note_on_c, 0, 48, 44
3, 40770, Note_on_c, 0, 36, 41
3, 40860, Note_on_c, 0, 36, 0
3, 40860, Note_on_c, 0, 48, 0
3, 40860, Note_on_c, 0, 47, 42
3, 40860, Note_on_c, 0, 35, 39
3, 40950, Note_on_c, 0, 35, 0
3, 40950, Note_on_c, 0, 47, 0
3, 40950, Note_on_c, 0, 45, 38
3, 40950, Note_on_c, 0, 33, 42
3, 41040, Note_on_c, 0, 33, 0
3, 41040, Note_on_c, 0, 45, 0
3, 41040, Note_on_c, 0, 44, 46
3, 41040, Note_on_c, 0, 32, 43
3, 41310, Note_on_c, 0, 32, 0
3, 41310, Note_on_c, 0, 44, 0
3, 41310, Note_on_c, 0, 47, 49
3, 41310, Note_on_c, 0, 35, 48
3, 41400, Note_on_c, 0, 35, 0
3, 41400, Note_on_c, 0, 47, 0
3, 41400, Note_on_c, 0, 42, 38
3, 41400, Note_on_c, 0, 30, 40
3, 41489, Note_on_c, 0, 30, 0
3, 41489, Note_on_c, 0, 42, 0
3, 41580, Note_on_c, 0, 44, 49
3, 41580, Note_on_c, 0, 32, 47
3, 41669, Note_on_c, 0, 32, 0
3, 41669, Note_on_c, 0, 44, 0
3, 41760, Note_on_c, 0, 45, 46
3, 41760, Note_on_c, 0, 33, 42
3, 42030, Note_on_c, 0, 33, 0
3, 42030, Note_on_c, 0, 45, 0
3, 42030, Note_on_c, 0, 48, 42
3, 42030, Note_on_c, 0, 36, 45
3, 42120, Note_on_c, 0, 36, 0
3, 42120, Note_on_c, 0, 48, 0
3, 42120, Note_on_c, 0, 45, 41
3, 42120, Note_on_c, 0, 33, 44
3, 42209, Note_on_c, 0, 33, 0
3, 42209, Note_on_c, 0, 45, 0
3, 42300, Note_on_c, 0, 43, 43
3, 42300, Note_on_c, 0, 31, 41
3, 42389, Note_on_c, 0, 31, 0
3, 42389, Note_on_c, 0, 43, 0
3, 42480, Note_on_c, 0, 45, 47
3, 42480, Note_on_c, 0, 33, 46
3, 42570, Note_on_c, 0, 33, 0
3, 42570, Note_on_c, 0, 45, 0
3, 42570, Note_on_c, 0, 47, 47
3, 42570, Note_on_c, 0, 35, 44
3, 42660, Note_on_c, 0, 35, 0
3, 42660, Note_on_c, 0, 47, 0
3, 42660, Note_on_c, 0, 48, 43
3, 42660, Note_on_c, 0, 36, 48
3, 42750, Note_on_c, 0, 36, 0
3, 42750, Note_on_c, 0, 48, 0
3, 42750, Note_on_c, 0, 47, 46
3, 42750, Note_on_c, 0, 35, 44
3, 42840, Note_on_c, 0, 35, 0
3, 42840, Note_on_c, 0, 47, 0
3, 42840, Note_on_c, 0, 45, 41
3, 42840, Note_on_c, 0, 33, 44
3, 43110, Note_on_c, 0, 33, 0
3, 43110, Note_on_c, 0, 45, 0
3, 43110, Note_on_c, 0, 47, 47
3, 43110, Note_on_c, 0, 35, 46
3, 43200, Note_on_c, 0, 35, 0
3, 43200, Note_on_c, 0, 47, 0
3, 43200, Note_on_c, 0, 48, 45
3, 43200, Note_on_c, 0, 36, 47
3, 43289, Note_on_c, 0, 36, 0
3, 43289, Note_on_c, 0, 48, 0
3, 43380, Note_on_c, 0, 50, 46
3, 43380, Note_on_c, 0, 38, 45
3, 43469, Note_on_c, 0, 38, 0
3, 43469, Note_on_c, 0, 50, 0
3, 43560, Note_on_c, 0, 52, 48
3, 43560, Note_on_c, 0, 40, 47
3, 43649, Note_on_c, 0, 40, 0
3, 43649, Note_on_c, 0, 52, 0
3, 43740, Note_on_c, 0, 54, 46
3, 43740, Note_on_c, 0, 42, 41
3, 43829, Note_on_c, 0, 42, 0
3, 43829, Note_on_c, 0, 54, 0
3, 43920, Note_on_c, 0, 55, 72
3, 43920, Note_on_c, 0, 43, 68
3, 44280, Note_on_c, 0, 43, 0
3, 44280, Note_on_c, 0, 55, 0
3, 44280, Note_on_c, 0, 52, 44
3, 44280, Note_on_c, 0, 40, 44
3, 44370, Note_on_c, 0, 40, 0
3, 44370, Note_on_c, 0, 52, 0
3, 44370, Note_on_c, 0, 54, 45
3, 44370, Note_on_c, 0, 42, 48
3, 44460, Note_on_c, 0, 42, 0
3, 44460, Note_on_c, 0, 54, 0
3, 44460, Note_on_c, 0, 52, 38
3, 44460, Note_on_c, 0, 40, 41
3, 44550, Note_on_c, 0, 40, 0
3, 44550, Note_on_c, 0, 52, 0
3, 44550, Note_on_c, 0, 50, 42
3, 44550, Note_on_c, 0, 38, 43
3, 44640, Note_on_c, 0, 38, 0
3, 44640, Note_on_c, 0, 50, 0
3, 44640, Note_on_c, 0, 48, 47
3, 44640, Note_on_c, 0, 36, 46
3, 44730, Note_on_c, 0, 36, 0
3, 44730, Note_on_c, 0, 48, 0
3, 44730, Note_on_c, 0, 50, 45
3, 44730, Note_on_c, 0, 38, 50
3, 44820, Note_on_c, 0, 38, 0
3, 44820, Note_on_c, 0, 50, 0
3, 44820, Note_on_c, 0, 48, 44
3, 44820, Note_on_c, 0, 36, 43
3, 44910, Note_on_c, 0, 36, 0
3, 44910, Note_on_c, 0, 48, 0
3, 44910, Note_on_c, 0, 47, 44
3, 44910, Note_on_c, 0, 35, 44
3, 45000, Note_on_c, 0, 35, 0
3, 45000, Note_on_c, 0, 47, 0
3, 45000, Note_on_c, 0, 48, 44
3, 45000, Note_on_c, 0, 36, 47
3, 45270, Note_on_c, 0, 36, 0
3, 45270, Note_on_c, 0, 48, 0
3, 45270, Note_on_c, 0, 50, 47
3, 45270, Note_on_c, 0, 38, 48
3, 45360, Note_on_c, 0, 38, 0
3, 45360, Note_on_c, 0, 50, 0
3, 45360, Note_on_c, 0, 52, 46
3, 45360, Note_on_c, 0, 40, 51
3, 45449, Note_on_c, 0, 40, 0
3, 45449, Note_on_c, 0, 52, 0
3, 45540, Note_on_c, 0, 54, 45
3, 45540, Note_on_c, 0, 42, 49
3, 45629, Note_on_c, 0, 42, 0
3, 45629, Note_on_c, 0, 54, 0
3, 45720, Note_on_c, 0, 55, 46
3, 45720, Note_on_c, 0, 43, 45
3, 45809, Note_on_c, 0, 43, 0
3, 45809, Note_on_c, 0, 55, 0
3, 45900, Note_on_c, 0, 57, 48
3, 45900, Note_on_c, 0, 45, 44
3, 45989, Note_on_c, 0, 45, 0
3, 45989, Note_on_c, 0, 57, 0
3, 46080, Note_on_c, 0, 59, 67
3, 46080, Note_on_c, 0, 47, 70
3, 46440, Note_on_c, 0, 47, 0
3, 46440, Note_on_c, 0, 59, 0
3, 46440, Note_on_c, 0, 55, 42
3, 46440, Note_on_c, 0, 43, 44
3, 46530, Note_on_c, 0, 43, 0
3, 46530, Note_on_c, 0, 55, 0
3, 46530, Note_on_c, 0, 57, 47
3, 46530, Note_on_c, 0, 45, 43
3, 46620, Note_on_c, 0, 45, 0
3, 46620, Note_on_c, 0, 57, 0
3, 46620, Note_on_c, 0, 55, 45
3, 46620, Note_on_c, 0, 43, 40
3, 46710, Note_on_c, 0, 43, 0
3, 46710, Note_on_c, 0, 55, 0
3, 46710, Note_on_c, 0, 54, 43
3, 46710, Note_on_c, 0, 42, 43
3, 46800, Note_on_c, 0, 42, 0
3, 46800, Note_on_c, 0, 54, 0
3, 46800, Note_on_c, 0, 52, 41
3, 46800, Note_on_c, 0, 40, 39
3, 46890, Note_on_c, 0, 40, 0
3, 46890, Note_on_c, 0, 52, 0
3, 46890, Note_on_c, 0, 54, 47
3, 46890, Note_on_c, 0, 42, 52
3, 46980, Note_on_c, 0, 42, 0
3, 46980, Note_on_c, 0, 54, 0
3, 46980, Note_on_c, 0, 52, 40
3, 46980, Note_on_c, 0, 40, 45
3, 47070, Note_on_c, 0, 40, 0
3, 47070, Note_on_c, 0, 52, 0
3, 47070, Note_on_c, 0, 50, 44
3, 47070, Note_on_c, 0, 38, 42
3, 47160, Note_on_c, 0, 38, 0
3, 47160, Note_on_c, 0, 50, 0
3, 47160, Note_on_c, 0, 49, 46
3, 47160, Note_on_c, 0, 37, 45
3, 47430, Note_on_c, 0, 37, 0
3, 47430, Note_on_c, 0, 49, 0
3, 47430, Note_on_c, 0, 53, 44
3, 47430, Note_on_c, 0, 41, 51
3, 47520, Note_on_c, 0, 41, 0
3, 47520, Note_on_c, 0, 53, 0
3, 47520, Note_on_c, 0, 52, 46
3, 47520, Note_on_c, 0, 40, 39
3, 47790, Note_on_c, 0, 40, 0
3, 47790, Note_on_c, 0, 52, 0
3, 47790, Note_on_c, 0, 53, 47
3, 47790, Note_on_c, 0, 41, 47
3, 47880, Note_on_c, 0, 41, 0
3, 47880, Note_on_c, 0, 53, 0
3, 47880, Note_on_c, 0, 50, 44
3, 47880, Note_on_c, 0, 38, 41
3, 48150, Note_on_c, 0, 38, 0
3, 48150, Note_on_c, 0, 50, 0
3, 48150, Note_on_c, 0, 52, 46
3, 48150, Note_on_c, 0, 40, 42
3, 48240, Note_on_c, 0, 40, 0
3, 48240, Note_on_c, 0, 52, 0
3, 48240, Note_on_c, 0, 49, 40
3, 48240, Note_on_c, 0, 37, 44
3, 48329, Note_on_c, 0, 37, 0
3, 48329, Note_on_c, 0, 49, 0
3, 48420, Note_on_c, 0, 47, 35
3, 48420, Note_on_c, 0, 35, 39
3, 48600, Note_on_c, 0, 35, 0
3, 48600, Note_on_c, 0, 47, 0
3, 48600, Note_on_c, 0, 49, 62
3, 48600, Note_on_c, 0, 37, 57
3, 48917, Note_on_c, 0, 37, 0
3, 48917, Note_on_c, 0, 49, 0
3, 48960, Note_on_c, 0, 50, 44
3, 48960, Note_on_c, 0, 38, 44
3, 49230, Note_on_c, 0, 38, 0
3, 49230, Note_on_c, 0, 50, 0
3, 49230, Note_on_c, 0, 53, 45
3, 49230, Note_on_c, 0, 41, 45
3, 49320, Note_on_c, 0, 41, 0
3, 49320, Note_on_c, 0, 53, 0
3, 49320, Note_on_c, 0, 50, 45
3, 49320, Note_on_c, 0, 38, 45
3, 49409, Note_on_c, 0, 38, 0
3, 49409, Note_on_c, 0, 50, 0
3, 49500, Note_on_c, 0, 48, 45
3, 49500, Note_on_c, 0, 36, 45
3, 49589, Note_on_c, 0, 36, 0
3, 49589, Note_on_c, 0, 48, 0
3, 49680, Note_on_c, 0, 50, 46
3, 49680, Note_on_c, 0, 38, 46
3, 49770, Note_on_c, 0, 38, 0
3, 49770, Note_on_c, 0, 50, 0
3, 49770, Note_on_c, 0, 52, 46
3, 49770, Note_on_c, 0, 40, 46
3, 49860, Note_on_c, 0, 40, 0
3, 49860, Note_on_c, 0, 52, 0
3, 49860, Note_on_c, 0, 53, 46
3, 49860, Note_on_c, 0, 41, 46
3, 49950, Note_on_c, 0, 41, 0
3, 49950, Note_on_c, 0, 53, 0
3, 49950, Note_on_c, 0, 52, 46
3, 49950, Note_on_c, 0, 40, 46
3, 50040, Note_on_c, 0, 40, 0
3, 50040, Note_on_c, 0, 52, 0
3, 50040, Note_on_c, 0, 50, 46
3, 50040, Note_on_c, 0, 38, 46
3, 50400, Note_on_c, 0, 38, 0
3, 50400, Note_on_c, 0, 50, 0
3, 50400, Note_on_c, 0, 51, 47
3, 50400, Note_on_c, 0, 39, 47
3, 50489, Note_on_c, 0, 39, 0
3, 50489, Note_on_c, 0, 51, 0
3, 50580, Note_on_c, 0, 50, 47
3, 50580, Note_on_c, 0, 38, 47
3, 50669, Note_on_c, 0, 38, 0
3, 50669, Note_on_c, 0, 50, 0
3, 50760, Note_on_c, 0, 51, 48
3, 50760, Note_on_c, 0, 39, 48
3, 50850, Note_on_c, 0, 39, 0
3, 50850, Note_on_c, 0, 51, 0
3, 50850, Note_on_c, 0, 53, 48
3, 50850, Note_on_c, 0, 41, 48
3, 50940, Note_on_c, 0, 41, 0
3, 50940, Note_on_c, 0, 53, 0
3, 50940, Note_on_c, 0, 55, 48
3, 50940, Note_on_c, 0, 43, 48
3, 51030, Note_on_c, 0, 43, 0
3, 51030, Note_on_c, 0, 55, 0
3, 51030, Note_on_c, 0, 53, 48
3, 51030, Note_on_c, 0, 41, 48
3, 51120, Note_on_c, 0, 41, 0
3, 51120, Note_on_c, 0, 53, 0
3, 51120, Note_on_c, 0, 51, 48
3, 51120, Note_on_c, 0, 39, 48
3, 51480, Note_on_c, 0, 39, 0
3, 51480, Note_on_c, 0, 51, 0
3, 51480, Note_on_c, 0, 52, 49
3, 51480, Note_on_c, 0, 40, 49
3, 51570, Note_on_c, 0, 40, 0
3, 51570, Note_on_c, 0, 52, 0
3, 51570, Note_on_c, 0, 53, 49
3, 51570, Note_on_c, 0, 41, 49
3, 51660, Note_on_c, 0, 41, 0
3, 51660, Note_on_c, 0, 53, 0
3, 51660, Note_on_c, 0, 55, 49
3, 51660, Note_on_c, 0, 43, 49
3, 51750, Note_on_c, 0, 43, 0
3, 51750, Note_on_c, 0, 55, 0
3, 51750, Note_on_c, 0, 53, 49
3, 51750, Note_on_c, 0, 41, 49
3, 51840, Note_on_c, 0, 41, 0
3, 51840, Note_on_c, 0, 53, 0
3, 51840, Note_on_c, 0, 52, 50
3, 51840, Note_on_c, 0, 40, 50
3, 52076, Note_on_c, 0, 40, 0
3, 52076, Note_on_c, 0, 52, 0
3, 52110, Note_on_c, 0, 53, 50
3, 52110, Note_on_c, 0, 41, 50
3, 52200, Note_on_c, 0, 41, 0
3, 52200, Note_on_c, 0, 53, 0
3, 52200, Note_on_c, 0, 55, 50
3, 52200, Note_on_c, 0, 43, 50
3, 52289, Note_on_c, 0, 43, 0
3, 52289, Note_on_c, 0, 55, 0
3, 52380, Note_on_c, 0, 56, 50
3, 52380, Note_on_c, 0, 44, 50
3, 52469, Note_on_c, 0, 44, 0
3, 52469, Note_on_c, 0, 56, 0
3, 52560, Note_on_c, 0, 58, 51
3, 52560, Note_on_c, 0, 46, 51
3, 52920, Note_on_c, 0, 46, 0
3, 52920, Note_on_c, 0, 58, 0
3, 52920, Note_on_c, 0, 55, 51
3, 52920, Note_on_c, 0, 43, 51
3, 53010, Note_on_c, 0, 43, 0
3, 53010, Note_on_c, 0, 55, 0
3, 53010, Note_on_c, 0, 56, 52
3, 53010, Note_on_c, 0, 44, 52
3, 53100, Note_on_c, 0, 44, 0
3, 53100, Note_on_c, 0, 56, 0
3, 53100, Note_on_c, 0, 55, 52
3, 53100, Note_on_c, 0, 43, 52
3, 53190, Note_on_c, 0, 43, 0
3, 53190, Note_on_c, 0, 55, 0
3, 53190, Note_on_c, 0, 53, 52
3, 53190, Note_on_c, 0, 41, 52
3, 53280, Note_on_c, 0, 41, 0
3, 53280, Note_on_c, 0, 53, 0
3, 53280, Note_on_c, 0, 52, 52
3, 53280, Note_on_c, 0, 40, 52
3, 53550, Note_on_c, 0, 40, 0
3, 53550, Note_on_c, 0, 52, 0
3, 53550, Note_on_c, 0, 55, 53
3, 53550, Note_on_c, 0, 43, 53
3, 53640, Note_on_c, 0, 43, 0
3, 53640, Note_on_c, 0, 55, 0
3, 53640, Note_on_c, 0, 53, 53
3, 53640, Note_on_c, 0, 41, 53
3, 53729, Note_on_c, 0, 41, 0
3, 53729, Note_on_c, 0, 53, 0
3, 53820, Note_on_c, 0, 52, 53
3, 53820, Note_on_c, 0, 40, 53
3, 53909, Note_on_c, 0, 40, 0
3, 53909, Note_on_c, 0, 52, 0
3, 54000, Note_on_c, 0, 53, 53
3, 54000, Note_on_c, 0, 41, 53
3, 54236, Note_on_c, 0, 41, 0
3, 54236, Note_on_c, 0, 53, 0
3, 54270, Note_on_c, 0, 55, 54
3, 54270, Note_on_c, 0, 43, 54
3, 54360, Note_on_c, 0, 43, 0
3, 54360, Note_on_c, 0, 55, 0
3, 54360, Note_on_c, 0, 56, 54
3, 54360, Note_on_c, 0, 44, 54
3, 54449, Note_on_c, 0, 44, 0
3, 54449, Note_on_c, 0, 56, 0
3, 54540, Note_on_c, 0, 58, 54
3, 54540, Note_on_c, 0, 46, 54
3, 54629, Note_on_c, 0, 46, 0
3, 54629, Note_on_c, 0, 58, 0
3, 54720, Note_on_c, 0, 60, 55
3, 54720, Note_on_c, 0, 48, 55
3, 54809, Note_on_c, 0, 48, 0
3, 54809, Note_on_c, 0, 60, 0
3, 54900, Note_on_c, 0, 62, 55
3, 54900, Note_on_c, 0, 50, 55
3, 54989, Note_on_c, 0, 50, 0
3, 54989, Note_on_c, 0, 62, 0
3, 55080, Note_on_c, 0, 63, 55
3, 55080, Note_on_c, 0, 51, 55
3, 55440, Note_on_c, 0, 51, 0
3, 55440, Note_on_c, 0, 63, 0
3, 55440, Note_on_c, 0, 60, 56
3, 55440, Note_on_c, 0, 48, 56
3, 55530, Note_on_c, 0, 48, 0
3, 55530, Note_on_c, 0, 60, 0
3, 55530, Note_on_c, 0, 62, 56
3, 55530, Note_on_c, 0, 50, 56
3, 55620, Note_on_c, 0, 50, 0
3, 55620, Note_on_c, 0, 62, 0
3, 55620, Note_on_c, 0, 60, 56
3, 55620, Note_on_c, 0, 48, 56
3, 55710, Note_on_c, 0, 48, 0
3, 55710, Note_on_c, 0, 60, 0
3, 55710, Note_on_c, 0, 58, 56
3, 55710, Note_on_c, 0, 46, 56
3, 55800, Note_on_c, 0, 46, 0
3, 55800, Note_on_c, 0, 58, 0
3, 55800, Note_on_c, 0, 56, 57
3, 55800, Note_on_c, 0, 44, 57
3, 55890, Note_on_c, 0, 44, 0
3, 55890, Note_on_c, 0, 56, 0
3, 55890, Note_on_c, 0, 58, 57
3, 55890, Note_on_c, 0, 46, 57
3, 55980, Note_on_c, 0, 46, 0
3, 55980, Note_on_c, 0, 58, 0
3, 55980, Note_on_c, 0, 56, 57
3, 55980, Note_on_c, 0, 44, 57
3, 56070, Note_on_c, 0, 44, 0
3, 56070, Note_on_c, 0, 56, 0
3, 56070, Note_on_c, 0, 55, 57
3, 56070, Note_on_c, 0, 43, 57
3, 56160, Note_on_c, 0, 43, 0
3, 56160, Note_on_c, 0, 55, 0
3, 56160, Note_on_c, 0, 54, 44
3, 56160, Note_on_c, 0, 42, 44
3, 56430, Note_on_c, 0, 42, 0
3, 56430, Note_on_c, 0, 54, 0
3, 56430, Note_on_c, 0, 57, 42
3, 56430, Note_on_c, 0, 45, 42
3, 56520, Note_on_c, 0, 45, 0
3, 56520, Note_on_c, 0, 57, 0
3, 56520, Note_on_c, 0, 55, 41
3, 56520, Note_on_c, 0, 43, 41
3, 56790, Note_on_c, 0, 43, 0
3, 56790, Note_on_c, 0, 55, 0
3, 56790, Note_on_c, 0, 57, 39
3, 56790, Note_on_c, 0, 45, 39
3, 56880, Note_on_c, 0, 45, 0
3, 56880, Note_on_c, 0, 57, 0
3, 56880, Note_on_c, 0, 54, 38
3, 56880, Note_on_c, 0, 42, 38
3, 57150, Note_on_c, 0, 42, 0
3, 57150, Note_on_c, 0, 54, 0
3, 57150, Note_on_c, 0, 57, 36
3, 57150, Note_on_c, 0, 45, 36
3, 57240, Note_on_c, 0, 45, 0
3, 57240, Note_on_c, 0, 57, 0
3, 57240, Note_on_c, 0, 52, 35
3, 57240, Note_on_c, 0, 40, 35
3, 57510, Note_on_c, 0, 40, 0
3, 57510, Note_on_c, 0, 52, 0
3, 57510, Note_on_c, 0, 54, 33
3, 57510, Note_on_c, 0, 42, 33
3, 57600, Note_on_c, 0, 42, 0
3, 57600, Note_on_c, 0, 54, 0
3, 57600, Note_on_c, 0, 50, 32
3, 57600, Note_on_c, 0, 43, 32
3, 60300, Note_on_c, 0, 50, 0
3, 60300, Note_on_c, 0, 49, 25
3, 60359, Note_on_c, 0, 49, 0
3, 60359, Note_on_c, 0, 50, 37
3, 60420, Note_on_c, 0, 50, 0
3, 60420, Note_on_c, 0, 51, 29
3, 60480, Note_on_c, 0, 51, 0
3, 60480, Note_on_c, 0, 43, 0
3, 60480, Note_on_c, 0, 50, 56
3, 60480, Note_on_c, 0, 31, 31
3, 60480, Note_on_c, 0, 43, 31
3, 60569, Note_on_c, 0, 43, 0
3, 60569, Note_on_c, 0, 31, 0
3, 60840, Note_on_c, 0, 38, 32
3, 60929, Note_on_c, 0, 38, 0
3, 61200, Note_on_c, 0, 55, 25
3, 61200, Note_on_c, 0, 43, 26
3, 61470, Note_on_c, 0, 43, 0
3, 61470, Note_on_c, 0, 55, 0
3, 61470, Note_on_c, 0, 57, 34
3, 61470, Note_on_c, 0, 45, 38
3, 61560, Note_on_c, 0, 45, 0
3, 61560, Note_on_c, 0, 57, 0
3, 61560, Note_on_c, 0, 53, 27
3, 61560, Note_on_c, 0, 41, 28
3, 61650, Note_on_c, 0, 41, 0
3, 61650, Note_on_c, 0, 53, 0
3, 61650, Note_on_c, 0, 55, 32
3, 61650, Note_on_c, 0, 43, 34
3, 61740, Note_on_c, 0, 43, 0
3, 61740, Note_on_c, 0, 55, 0
3, 61740, Note_on_c, 0, 52, 32
3, 61740, Note_on_c, 0, 40, 26
3, 61830, Note_on_c, 0, 40, 0
3, 61830, Note_on_c, 0, 52, 0
3, 61830, Note_on_c, 0, 53, 32
3, 61830, Note_on_c, 0, 41, 33
3, 61920, Note_on_c, 0, 41, 0
3, 61920, Note_on_c, 0, 53, 0
3, 61920, Note_on_c, 0, 50, 0
3, 61920, Note_on_c, 0, 50, 29
3, 61920, Note_on_c, 0, 38, 32
3, 64800, Note_on_c, 0, 38, 0
3, 64800, Note_on_c, 0, 50, 0
3, 65520, Note_on_c, 0, 46, 27
3, 65520, Note_on_c, 0, 34, 30
3, 65880, Note_on_c, 0, 34, 0
3, 65880, Note_on_c, 0, 46, 0
3, 65880, Note_on_c, 0, 45, 29
3, 65880, Note_on_c, 0, 33, 29
3, 65969, Note_on_c, 0, 33, 0
3, 65969, Note_on_c, 0, 45, 0
3, 66060, Note_on_c, 0, 41, 32
3, 66060, Note_on_c, 0, 29, 28
3, 66104, Note_on_c, 0, 29, 0
3, 66104, Note_on_c, 0, 41, 0
3, 66150, Note_on_c, 0, 45, 30
3, 66150, Note_on_c, 0, 33, 34
3, 66194, Note_on_c, 0, 33, 0
3, 66194, Note_on_c, 0, 45, 0
3, 66240, Note_on_c, 0, 46, 33
3, 66240, Note_on_c, 0, 34, 31
3, 66600, Note_on_c, 0, 34, 0
3, 66600, Note_on_c, 0, 46, 0
3, 66600, Note_on_c, 0, 50, 33
3, 66600, Note_on_c, 0, 38, 34
3, 67140, Note_on_c, 0, 38, 0
3, 67140, Note_on_c, 0, 50, 0
3, 67140, Note_on_c, 0, 53, 34
3, 67140, Note_on_c, 0, 41, 35
3, 67320, Note_on_c, 0, 41, 0
3, 67320, Note_on_c, 0, 53, 0
3, 67320, Note_on_c, 0, 58, 34
3, 67320, Note_on_c, 0, 46, 38
3, 67500, Note_on_c, 0, 46, 0
3, 67500, Note_on_c, 0, 58, 0
3, 67500, Note_on_c, 0, 50, 32
3, 67680, Note_on_c, 0, 50, 0
3, 67680, Note_on_c, 0, 53, 31
3, 68040, Note_on_c, 0, 53, 0
3, 68040, Note_on_c, 0, 49, 32
3, 68760, Note_on_c, 0, 49, 0
3, 68760, Note_on_c, 0, 58, 33
3, 68760, Note_on_c, 0, 46, 28
3, 69480, Note_on_c, 0, 46, 0
3, 69480, Note_on_c, 0, 58, 0
3, 69480, Note_on_c, 0, 57, 30
3, 69480, Note_on_c, 0, 45, 29
3, 69840, Note_on_c, 0, 45, 0
3, 69840, Note_on_c, 0, 57, 0
3, 69840, Note_on_c, 0, 53, 29
3, 69840, Note_on_c, 0, 41, 28
3, 70200, Note_on_c, 0, 41, 0
3, 70200, Note_on_c, 0, 53, 0
3, 70200, Note_on_c, 0, 50, 31
3, 70200, Note_on_c, 0, 38, 31
3, 70560, Note_on_c, 0, 38, 0
3, 70560, Note_on_c, 0, 50, 0
3, 70560, Note_on_c, 0, 50, 34
3, 70560, Note_on_c, 0, 38, 28
3, 70920, Note_on_c, 0, 38, 0
3, 70920, Note_on_c, 0, 50, 0
3, 70920, Note_on_c, 0, 53, 33
3, 70920, Note_on_c, 0, 41, 37
3, 71460, Note_on_c, 0, 41, 0
3, 71460, Note_on_c, 0, 53, 0
3, 71460, Note_on_c, 0, 57, 35
3, 71460, Note_on_c, 0, 45, 37
3, 71640, Note_on_c, 0, 45, 0
3, 71640, Note_on_c, 0, 57, 0
3, 71640, Note_on_c, 0, 62, 38
3, 71640, Note_on_c, 0, 50, 36
3, 71820, Note_on_c, 0, 50, 0
3, 71820, Note_on_c, 0, 62, 0
3, 71820, Note_on_c, 0, 53, 29
3, 72000, Note_on_c, 0, 53, 0
3, 72000, Note_on_c, 0, 57, 36
3, 72360, Note_on_c, 0, 57, 0
3, 72360, Note_on_c, 0, 53, 35
3, 73080, Note_on_c, 0, 53, 0
3, 73080, Note_on_c, 0, 61, 43
3, 73080, Note_on_c, 0, 49, 28
3, 73800, Note_on_c, 0, 49, 0
3, 73800, Note_on_c, 0, 61, 0
3, 73800, Note_on_c, 0, 60, 27
3, 73800, Note_on_c, 0, 48, 32
3, 74160, Note_on_c, 0, 48, 0
3, 74160, Note_on_c, 0, 60, 0
3, 74160, Note_on_c, 0, 57, 26
3, 74160, Note_on_c, 0, 45, 33
3, 74520, Note_on_c, 0, 45, 0
3, 74520, Note_on_c, 0, 57, 0
3, 74520, Note_on_c, 0, 53, 29
3, 74520, Note_on_c, 0, 41, 32
3, 74880, Note_on_c, 0, 41, 0
3, 74880, Note_on_c, 0, 53, 0
3, 74880, Note_on_c, 0, 64, 59
3, 74880, Note_on_c, 0, 57, 57
3, 74880, Note_on_c, 0, 37, 50
3, 74880, Note_on_c, 0, 49, 50
3, 74924, Note_on_c, 0, 64, 0
3, 74970, Note_on_c, 0, 65, 48
3, 75014, Note_on_c, 0, 65, 0
3, 75060, Note_on_c, 0, 67, 55
3, 75104, Note_on_c, 0, 67, 0
3, 75150, Note_on_c, 0, 65, 41
3, 75194, Note_on_c, 0, 65, 0
3, 75240, Note_on_c, 0, 64, 60
3, 75476, Note_on_c, 0, 64, 0
3, 75510, Note_on_c, 0, 65, 47
3, 75600, Note_on_c, 0, 65, 0
3, 75600, Note_on_c, 0, 49, 0
3, 75600, Note_on_c, 0, 37, 0
3, 75600, Note_on_c, 0, 64, 54
3, 75600, Note_on_c, 0, 38, 45
3, 75600, Note_on_c, 0, 50, 45
3, 75836, Note_on_c, 0, 64, 0
3, 75870, Note_on_c, 0, 65, 47
3, 75960, Note_on_c, 0, 65, 0
3, 75960, Note_on_c, 0, 62, 35
3, 76049, Note_on_c, 0, 62, 0
3, 76140, Note_on_c, 0, 64, 47
3, 76229, Note_on_c, 0, 64, 0
3, 76320, Note_on_c, 0, 50, 0
3, 76320, Note_on_c, 0, 38, 0
3, 76320, Note_on_c, 0, 57, 0
3, 76320, Note_on_c, 0, 66, 49
3, 76320, Note_on_c, 0, 59, 50
3, 76320, Note_on_c, 0, 39, 51
3, 76320, Note_on_c, 0, 51, 51
3, 76364, Note_on_c, 0, 66, 0
3, 76410, Note_on_c, 0, 68, 49
3, 76454, Note_on_c, 0, 68, 0
3, 76500, Note_on_c, 0, 69, 45
3, 76544, Note_on_c, 0, 69, 0
3, 76590, Note_on_c, 0, 68, 45
3, 76634, Note_on_c, 0, 68, 0
3, 76680, Note_on_c, 0, 66, 51
3, 76916, Note_on_c, 0, 66, 0
3, 76950, Note_on_c, 0, 65, 41
3, 77040, Note_on_c, 0, 65, 0
3, 77040, Note_on_c, 0, 66, 58
3, 77276, Note_on_c, 0, 66, 0
3, 77310, Note_on_c, 0, 65, 39
3, 77400, Note_on_c, 0, 65, 0
3, 77400, Note_on_c, 0, 66, 53
3, 77760, Note_on_c, 0, 66, 0
3, 77760, Note_on_c, 0, 59, 0
3, 77760, Note_on_c, 0, 39, 0
3, 77760, Note_on_c, 0, 51, 0
3, 77760, Note_on_c, 0, 57, 59
3, 77760, Note_on_c, 0, 60, 59
3, 77760, Note_on_c, 0, 67, 59
3, 77760, Note_on_c, 0, 40, 46
3, 77760, Note_on_c, 0, 52, 46
3, 78393, Note_on_c, 0, 67, 0
3, 78393, Note_on_c, 0, 57, 0
3, 78393, Note_on_c, 0, 60, 0
3, 78480, Note_on_c, 0, 40, 0
3, 78480, Note_on_c, 0, 52, 0
3, 78480, Note_on_c, 0, 57, 54
3, 78480, Note_on_c, 0, 61, 54
3, 78480, Note_on_c, 0, 67, 54
3, 78480, Note_on_c, 0, 40, 39
3, 78480, Note_on_c, 0, 52, 39
3, 78797, Note_on_c, 0, 67, 0
3, 78797, Note_on_c, 0, 57, 0
3, 78797, Note_on_c, 0, 61, 0
3, 78840, Note_on_c, 0, 67, 67
3, 78960, Note_on_c, 0, 67, 0
3, 78960, Note_on_c, 0, 69, 68
3, 79079, Note_on_c, 0, 69, 0
3, 79079, Note_on_c, 0, 70, 72
3, 79200, Note_on_c, 0, 70, 0
3, 79200, Note_on_c, 0, 40, 0
3, 79200, Note_on_c, 0, 52, 0
3, 79200, Note_on_c, 0, 57, 43
3, 79200, Note_on_c, 0, 62, 43
3, 79200, Note_on_c, 0, 69, 43
3, 79200, Note_on_c, 0, 41, 45
3, 79200, Note_on_c, 0, 53, 45
3, 80280, Note_on_c, 0, 53, 0
3, 80280, Note_on_c, 0, 69, 0
3, 80280, Note_on_c, 0, 57, 0
3, 80280, Note_on_c, 0, 62, 0
3, 80280, Note_on_c, 0, 41, 0
3, 80280, Note_on_c, 0, 57, 32
3, 80280, Note_on_c, 0, 60, 32
3, 80280, Note_on_c, 0, 29, 39
3, 80280, Note_on_c, 0, 41, 39
3, 80640, Note_on_c, 0, 41, 0
3, 80640, Note_on_c, 0, 57, 0
3, 80640, Note_on_c, 0, 60, 0
3, 80640, Note_on_c, 0, 29, 0
3, 80640, Note_on_c, 0, 57, 60
3, 80640, Note_on_c, 0, 50, 43
3, 80640, Note_on_c, 0, 30, 66
3, 80640, Note_on_c, 0, 42, 66
3, 80684, Note_on_c, 0, 57, 0
3, 80730, Note_on_c, 0, 58, 68
3, 80774, Note_on_c, 0, 58, 0
3, 80820, Note_on_c, 0, 60, 73
3, 80864, Note_on_c, 0, 60, 0
3, 80910, Note_on_c, 0, 58, 63
3, 80954, Note_on_c, 0, 58, 0
3, 81000, Note_on_c, 0, 57, 79
3, 81236, Note_on_c, 0, 57, 0
3, 81270, Note_on_c, 0, 58, 68
3, 81360, Note_on_c, 0, 58, 0
3, 81360, Note_on_c, 0, 42, 0
3, 81360, Note_on_c, 0, 30, 0
3, 81360, Note_on_c, 0, 50, 0
3, 81360, Note_on_c, 0, 57, 78
3, 81360, Note_on_c, 0, 50, 46
3, 81360, Note_on_c, 0, 31, 70
3, 81360, Note_on_c, 0, 43, 70
3, 81596, Note_on_c, 0, 57, 0
3, 81630, Note_on_c, 0, 58, 73
3, 81720, Note_on_c, 0, 58, 0
3, 81720, Note_on_c, 0, 55, 66
3, 81809, Note_on_c, 0, 55, 0
3, 81900, Note_on_c, 0, 57, 66
3, 81989, Note_on_c, 0, 57, 0
3, 82080, Note_on_c, 0, 43, 0
3, 82080, Note_on_c, 0, 31, 0
3, 82080, Note_on_c, 0, 50, 0
3, 82080, Note_on_c, 0, 59, 65
3, 82080, Note_on_c, 0, 52, 43
3, 82080, Note_on_c, 0, 32, 69
3, 82080, Note_on_c, 0, 44, 69
3, 82124, Note_on_c, 0, 59, 0
3, 82170, Note_on_c, 0, 61, 68
3, 82214, Note_on_c, 0, 61, 0
3, 82260, Note_on_c, 0, 62, 69
3, 82304, Note_on_c, 0, 62, 0
3, 82350, Note_on_c, 0, 61, 63
3, 82394, Note_on_c, 0, 61, 0
3, 82440, Note_on_c, 0, 59, 77
3, 82676, Note_on_c, 0, 59, 0
3, 82710, Note_on_c, 0, 58, 64
3, 82800, Note_on_c, 0, 58, 0
3, 82800, Note_on_c, 0, 59, 80
3, 83036, Note_on_c, 0, 59, 0
3, 83070, Note_on_c, 0, 58, 64
3, 83160, Note_on_c, 0, 58, 0
3, 83160, Note_on_c, 0, 59, 71
3, 83249, Note_on_c, 0, 59, 0
3, 83340, Note_on_c, 0, 61, 69
3, 83429, Note_on_c, 0, 61, 0
3, 83520, Note_on_c, 0, 44, 0
3, 83520, Note_on_c, 0, 32, 0
3, 83520, Note_on_c, 0, 52, 0
3, 83520, Note_on_c, 0, 62, 73
3, 83520, Note_on_c, 0, 53, 63
3, 83520, Note_on_c, 0, 60, 63
3, 83520, Note_on_c, 0, 33, 69
3, 83520, Note_on_c, 0, 45, 69
3, 83564, Note_on_c, 0, 62, 0
3, 83610, Note_on_c, 0, 64, 74
3, 83654, Note_on_c, 0, 64, 0
3, 83700, Note_on_c, 0, 65, 74
3, 83744, Note_on_c, 0, 65, 0
3, 83790, Note_on_c, 0, 64, 62
3, 83834, Note_on_c, 0, 64, 0
3, 83880, Note_on_c, 0, 62, 74
3, 84116, Note_on_c, 0, 62, 0
3, 84150, Note_on_c, 0, 64, 72
3, 84240, Note_on_c, 0, 64, 0
3, 84240, Note_on_c, 0, 65, 82
3, 84476, Note_on_c, 0, 65, 0
3, 84510, Note_on_c, 0, 64, 64
3, 84600, Note_on_c, 0, 64, 0
3, 84600, Note_on_c, 0, 65, 74
3, 84689, Note_on_c, 0, 65, 0
3, 84780, Note_on_c, 0, 63, 64
3, 84869, Note_on_c, 0, 63, 0
3, 84960, Note_on_c, 0, 45, 0
3, 84960, Note_on_c, 0, 53, 0
3, 84960, Note_on_c, 0, 60, 0
3, 84960, Note_on_c, 0, 33, 0
3, 84960, Note_on_c, 0, 62, 63
3, 84960, Note_on_c, 0, 54, 50
3, 84960, Note_on_c, 0, 60, 50
3, 84960, Note_on_c, 0, 33, 67
3, 84960, Note_on_c, 0, 45, 67
3, 85004, Note_on_c, 0, 62, 0
3, 85050, Note_on_c, 0, 63, 67
3, 85094, Note_on_c, 0, 63, 0
3, 85140, Note_on_c, 0, 66, 76
3, 85184, Note_on_c, 0, 66, 0
3, 85230, Note_on_c, 0, 63, 61
3, 85274, Note_on_c, 0, 63, 0
3, 85320, Note_on_c, 0, 62, 62
3, 85590, Note_on_c, 0, 62, 0
3, 85590, Note_on_c, 0, 62, 81
3, 85669, Note_on_c, 0, 62, 0
3, 85680, Note_on_c, 0, 45, 0
3, 85680, Note_on_c, 0, 54, 0
3, 85680, Note_on_c, 0, 60, 0
3, 85680, Note_on_c, 0, 33, 0
3, 85680, Note_on_c, 0, 62, 67
3, 85680, Note_on_c, 0, 54, 49
3, 85680, Note_on_c, 0, 60, 49
3, 85680, Note_on_c, 0, 33, 72
3, 85680, Note_on_c, 0, 45, 72
3, 85724, Note_on_c, 0, 62, 0
3, 85770, Note_on_c, 0, 63, 74
3, 85814, Note_on_c, 0, 63, 0
3, 85860, Note_on_c, 0, 66, 76
3, 85904, Note_on_c, 0, 66, 0
3, 85950, Note_on_c, 0, 63, 58
3, 85994, Note_on_c, 0, 63, 0
3, 86040, Note_on_c, 0, 62, 65
3, 86310, Note_on_c, 0, 62, 0
3, 86310, Note_on_c, 0, 62, 78
3, 86389, Note_on_c, 0, 62, 0
3, 86400, Note_on_c, 0, 45, 0
3, 86400, Note_on_c, 0, 54, 0
3, 86400, Note_on_c, 0, 60, 0
3, 86400, Note_on_c, 0, 33, 0
3, 86400, Note_on_c, 0, 50, 68
3, 86400, Note_on_c, 0, 55, 68
3, 86400, Note_on_c, 0, 62, 68
3, 86400, Note_on_c, 0, 34, 72
3, 86400, Note_on_c, 0, 46, 72
3, 86489, Note_on_c, 0, 62, 0
3, 86489, Note_on_c, 0, 50, 0
3, 86489, Note_on_c, 0, 55, 0
3, 86580, Note_on_c, 0, 53, 100
3, 86580, Note_on_c, 0, 65, 100
3, 86760, Note_on_c, 0, 65, 0
3, 86760, Note_on_c, 0, 53, 0
3, 86760, Note_on_c, 0, 52, 88
3, 86760, Note_on_c, 0, 64, 88
3, 86940, Note_on_c, 0, 64, 0
3, 86940, Note_on_c, 0, 52, 0
3, 86940, Note_on_c, 0, 53, 97
3, 86940, Note_on_c, 0, 65, 97
3, 87120, Note_on_c, 0, 65, 0
3, 87120, Note_on_c, 0, 53, 0
3, 87120, Note_on_c, 0, 50, 84
3, 87120, Note_on_c, 0, 62, 84
3, 87480, Note_on_c, 0, 62, 0
3, 87480, Note_on_c, 0, 46, 0
3, 87480, Note_on_c, 0, 34, 0
3, 87480, Note_on_c, 0, 50, 0
3, 87480, Note_on_c, 0, 52, 89
3, 87480, Note_on_c, 0, 55, 89
3, 87480, Note_on_c, 0, 60, 89
3, 87480, Note_on_c, 0, 34, 72
3, 87480, Note_on_c, 0, 46, 72
3, 87840, Note_on_c, 0, 46, 0
3, 87840, Note_on_c, 0, 60, 0
3, 87840, Note_on_c, 0, 52, 0
3, 87840, Note_on_c, 0, 55, 0
3, 87840, Note_on_c, 0, 34, 0
3, 87840, Note_on_c, 0, 50, 101
3, 87840, Note_on_c, 0, 55, 101
3, 87840, Note_on_c, 0, 62, 101
3, 87840, Note_on_c, 0, 34, 71
3, 87840, Note_on_c, 0, 46, 71
3, 89280, Note_on_c, 0, 46, 0
3, 89280, Note_on_c, 0, 62, 0
3, 89280, Note_on_c, 0, 50, 0
3, 89280, Note_on_c, 0, 55, 0
3, 89280, Note_on_c, 0, 34, 0
3, 89280, Note_on_c, 0, 50, 72
3, 89280, Note_on_c, 0, 55, 72
3, 89280, Note_on_c, 0, 62, 72
3, 89280, Note_on_c, 0, 34, 68
3, 89280, Note_on_c, 0, 46, 68
3, 89369, Note_on_c, 0, 62, 0
3, 89369, Note_on_c, 0, 50, 0
3, 89369, Note_on_c, 0, 55, 0
3, 89460, Note_on_c, 0, 53, 99
3, 89460, Note_on_c, 0, 65, 99
3, 89640, Note_on_c, 0, 65, 0
3, 89640, Note_on_c, 0, 53, 0
3, 89640, Note_on_c, 0, 52, 91
3, 89640, Note_on_c, 0, 64, 91
3, 89820, Note_on_c, 0, 64, 0
3, 89820, Note_on_c, 0, 52, 0
3, 89820, Note_on_c, 0, 53, 96
3, 89820, Note_on_c, 0, 65, 96
3, 90000, Note_on_c, 0, 65, 0
3, 90000, Note_on_c, 0, 53, 0
3, 90000, Note_on_c, 0, 50, 83
3, 90000, Note_on_c, 0, 62, 83
3, 90360, Note_on_c, 0, 62, 0
3, 90360, Note_on_c, 0, 46, 0
3, 90360, Note_on_c, 0, 34, 0
3, 90360, Note_on_c, 0, 50, 0
3, 90360, Note_on_c, 0, 52, 86
3, 90360, Note_on_c, 0, 55, 86
3, 90360, Note_on_c, 0, 60, 86
3, 90360, Note_on_c, 0, 34, 63
3, 90360, Note_on_c, 0, 46, 63
3, 90720, Note_on_c, 0, 46, 0
3, 90720, Note_on_c, 0, 60, 0
3, 90720, Note_on_c, 0, 52, 0
3, 90720, Note_on_c, 0, 55, 0
3, 90720, Note_on_c, 0, 34, 0
3, 90720, Note_on_c, 0, 50, 100
3, 90720, Note_on_c, 0, 55, 100
3, 90720, Note_on_c, 0, 62, 100
3, 90720, Note_on_c, 0, 34, 69
3, 90720, Note_on_c, 0, 46, 69
3, 92160, Note_on_c, 0, 46, 0
3, 92160, Note_on_c, 0, 62, 0
3, 92160, Note_on_c, 0, 50, 0
3, 92160, Note_on_c, 0, 55, 0
3, 92160, Note_on_c, 0, 34, 0
3, 92160, Note_on_c, 0, 50, 111
3, 92160, Note_on_c, 0, 55, 111
3, 92160, Note_on_c, 0, 62, 111
3, 92160, Note_on_c, 0, 34, 111
3, 92160, Note_on_c, 0, 46, 111
3, 92880, Note_on_c, 0, 46, 0
3, 92880, Note_on_c, 0, 62, 0
3, 92880, Note_on_c, 0, 50, 0
3, 92880, Note_on_c, 0, 55, 0
3, 92880, Note_on_c, 0, 34, 0
3, 92880, Note_on_c, 0, 54, 111
3, 92880, Note_on_c, 0, 58, 111
3, 92880, Note_on_c, 0, 66, 111
3, 92880, Note_on_c, 0, 37, 111
3, 92880, Note_on_c, 0, 49, 111
3, 93600, Note_on_c, 0, 49, 0
3, 93600, Note_on_c, 0, 66, 0
3, 93600, Note_on_c, 0, 54, 0
3, 93600, Note_on_c, 0, 58, 0
3, 93600, Note_on_c, 0, 37, 0
3, 93600, Note_on_c, 0, 54, 111
3, 93600, Note_on_c, 0, 59, 111
3, 93600, Note_on_c, 0, 66, 111
3, 93600, Note_on_c, 0, 38, 111
3, 93600, Note_on_c, 0, 50, 111
3, 94320, Note_on_c, 0, 50, 0
3, 94320, Note_on_c, 0, 66, 0
3, 94320, Note_on_c, 0, 54, 0
3, 94320, Note_on_c, 0, 59, 0
3, 94320, Note_on_c, 0, 38, 0
3, 94320, Note_on_c, 0, 51, 111
3, 94320, Note_on_c, 0, 58, 111
3, 94320, Note_on_c, 0, 63, 111
3, 94320, Note_on_c, 0, 42, 111
3, 95040, Note_on_c, 0, 42, 0
3, 95040, Note_on_c, 0, 51, 0
3, 95040, Note_on_c, 0, 58, 0
3, 95040, Note_on_c, 0, 63, 0
3, 95040, Note_on_c, 0, 50, 111
3, 95040, Note_on_c, 0, 55, 111
3, 95040, Note_on_c, 0, 62, 111
3, 95040, Note_on_c, 0, 34, 111
3, 95040, Note_on_c, 0, 46, 111
3, 95760, Note_on_c, 0, 46, 0
3, 95760, Note_on_c, 0, 62, 0
3, 95760, Note_on_c, 0, 50, 0
3, 95760, Note_on_c, 0, 55, 0
3, 95760, Note_on_c, 0, 34, 0
3, 95760, Note_on_c, 0, 54, 110
3, 95760, Note_on_c, 0, 58, 110
3, 95760, Note_on_c, 0, 37, 110
3, 95760, Note_on_c, 0, 49, 110
3, 96480, Note_on_c, 0, 49, 0
3, 96480, Note_on_c, 0, 54, 0
3, 96480, Note_on_c, 0, 58, 0
3, 96480, Note_on_c, 0, 37, 0
3, 96480, Note_on_c, 0, 54, 106
3, 96480, Note_on_c, 0, 59, 106
3, 96480, Note_on_c, 0, 38, 106
3, 96480, Note_on_c, 0, 50, 106
3, 97200, Note_on_c, 0, 50, 0
3, 97200, Note_on_c, 0, 54, 0
3, 97200, Note_on_c, 0, 59, 0
3, 97200, Note_on_c, 0, 38, 0
3, 97200, Note_on_c, 0, 51, 102
3, 97200, Note_on_c, 0, 58, 102
3, 97200, Note_on_c, 0, 42, 102
3, 97920, Note_on_c, 0, 42, 0
3, 97920, Note_on_c, 0, 58, 0
3, 97920, Note_on_c, 0, 51, 0
3, 97920, Note_on_c, 0, 50, 64
3, 97920, Note_on_c, 0, 55, 64
3, 97920, Note_on_c, 0, 46, 71
3, 99360, Note_on_c, 0, 46, 0
3, 99360, Note_on_c, 0, 55, 0
3, 99360, Note_on_c, 0, 50, 0
3, 99360, Note_on_c, 0, 50, 66
3, 99360, Note_on_c, 0, 55, 66
3, 99360, Note_on_c, 0, 46, 67
3, 99539, Note_on_c, 0, 46, 0
3, 99539, Note_on_c, 0, 55, 0
3, 99539, Note_on_c, 0, 50, 0
3, 99720, Note_on_c, 0, 52, 66
3, 99720, Note_on_c, 0, 55, 66
3, 99720, Note_on_c, 0, 46, 69
3, 99899, Note_on_c, 0, 46, 0
3, 99899, Note_on_c, 0, 55, 0
3, 99899, Note_on_c, 0, 52, 0
3, 100080, Note_on_c, 0, 50, 80
3, 100080, Note_on_c, 0, 55, 80
3, 100080, Note_on_c, 0, 46, 76
3, 101520, Note_on_c, 0, 46, 0
3, 101520, Note_on_c, 0, 55, 0
3, 101520, Note_on_c, 0, 50, 0
3, 101520, Note_on_c, 0, 50, 67
3, 101520, Note_on_c, 0, 55, 67
3, 101520, Note_on_c, 0, 46, 68
3, 101699, Note_on_c, 0, 46, 0
3, 101699, Note_on_c, 0, 55, 0
3, 101699, Note_on_c, 0, 50, 0
3, 101880, Note_on_c, 0, 52, 63
3, 101880, Note_on_c, 0, 55, 63
3, 101880, Note_on_c, 0, 46, 64
3, 102059, Note_on_c, 0, 46, 0
3, 102059, Note_on_c, 0, 55, 0
3, 102059, Note_on_c, 0, 52, 0
3, 102240, Note_on_c, 0, 50, 53
3, 102240, Note_on_c, 0, 34, 54
3, 102240, Note_on_c, 0, 46, 54
3, 103507, Note_on_c, 0, 46, 0
3, 103507, Note_on_c, 0, 34, 0
3, 103507, Note_on_c, 0, 50, 0
3, 103680, Note_on_c, 0, 50, 48
3, 103680, Note_on_c, 0, 34, 42
3, 103680, Note_on_c, 0, 46, 42
3, 103859, Note_on_c, 0, 46, 0
3, 103859, Note_on_c, 0, 34, 0
3, 103859, Note_on_c, 0, 50, 0
3, 104040, Note_on_c, 0, 52, 46
3, 104040, Note_on_c, 0, 34, 46
3, 104040, Note_on_c, 0, 46, 46
3, 104219, Note_on_c, 0, 46, 0
3, 104219, Note_on_c, 0, 34, 0
3, 104219, Note_on_c, 0, 52, 0
3, 104400, Note_on_c, 0, 50, 45
3, 104400, Note_on_c, 0, 34, 42
3, 104400, Note_on_c, 0, 46, 42
3, 104489, Note_on_c, 0, 46, 0
3, 104489, Note_on_c, 0, 34, 0
3, 104580, Note_on_c, 0, 50, 0
3, 104580, Note_on_c, 0, 48, 44
3, 104580, Note_on_c, 0, 34, 43
3, 104580, Note_on_c, 0, 46, 43
3, 104669, Note_on_c, 0, 46, 0
3, 104669, Note_on_c, 0, 34, 0
3, 104670, Note_on_c, 0, 48, 0
3, 104670, Note_on_c, 0, 50, 45
3, 104760, Note_on_c, 0, 50, 0
3, 104760, Note_on_c, 0, 46, 42
3, 104940, Note_on_c, 0, 46, 0
3, 104940, Note_on_c, 0, 45, 42
3, 105030, Note_on_c, 0, 45, 0
3, 105030, Note_on_c, 0, 46, 46
3, 105120, Note_on_c, 0, 46, 0
3, 105120, Note_on_c, 0, 43, 49
3, 105840, Note_on_c, 0, 43, 0
3, 105840, Note_on_c, 0, 50, 64
3, 105840, Note_on_c, 0, 50, 31
3, 105840, Note_on_c, 0, 34, 47
3, 105840, Note_on_c, 0, 43, 47
3, 106020, Note_on_c, 0, 50, 0
3, 106020, Note_on_c, 0, 48, 32
3, 106110, Note_on_c, 0, 48, 0
3, 106110, Note_on_c, 0, 50, 36
3, 106200, Note_on_c, 0, 50, 0
3, 106200, Note_on_c, 0, 46, 31
3, 106380, Note_on_c, 0, 46, 0
3, 106380, Note_on_c, 0, 45, 30
3, 106470, Note_on_c, 0, 45, 0
3, 106470, Note_on_c, 0, 46, 38
3, 106560, Note_on_c, 0, 46, 0
3, 106560, Note_on_c, 0, 43, 34
3, 107280, Note_on_c, 0, 43, 0
3, 107280, Note_on_c, 0, 43, 0
3, 107280, Note_on_c, 0, 34, 0
3, 107280, Note_on_c, 0, 50, 0
3, 107280, Note_on_c, 0, 50, 45
3, 107280, Note_on_c, 0, 43, 57
3, 107280, Note_on_c, 0, 34, 31
3, 107370, Note_on_c, 0, 50, 29
3, 107460, Note_on_c, 0, 50, 0
3, 107460, Note_on_c, 0, 48, 34
3, 107550, Note_on_c, 0, 48, 0
3, 107550, Note_on_c, 0, 50, 39
3, 107640, Note_on_c, 0, 50, 0
3, 107640, Note_on_c, 0, 46, 29
3, 107730, Note_on_c, 0, 46, 0
3, 107730, Note_on_c, 0, 48, 36
3, 107820, Note_on_c, 0, 48, 0
3, 107820, Note_on_c, 0, 45, 29
3, 107910, Note_on_c, 0, 45, 0
3, 107910, Note_on_c, 0, 46, 32
3, 108000, Note_on_c, 0, 46, 0
3, 108000, Note_on_c, 0, 43, 29
3, 108540, Note_on_c, 0, 43, 0
3, 108540, Note_on_c, 0, 46, 41
3, 108720, Note_on_c, 0, 46, 0
3, 108720, Note_on_c, 0, 45, 33
3, 109260, Note_on_c, 0, 45, 0
3, 109260, Note_on_c, 0, 46, 36
3, 109440, Note_on_c, 0, 46, 0
3, 109440, Note_on_c, 0, 43, 32
3, 109800, Note_on_c, 0, 43, 0
3, 109800, Note_on_c, 0, 41, 42
3, 110160, Note_on_c, 0, 41, 0
3, 110160, Note_on_c, 0, 39, 42
3, 110520, Note_on_c, 0, 39, 0
3, 110520, Note_on_c, 0, 41, 47
3, 110880, Note_on_c, 0, 41, 0
3, 110880, Note_on_c, 0, 38, 42
3, 111600, Note_on_c, 0, 38, 0
3, 111600, Note_on_c, 0, 36, 43
3, 112320, Note_on_c, 0, 36, 0
3, 112320, Note_on_c, 0, 38, 49
3, 113760, Note_on_c, 0, 38, 0
3, 113760, Note_on_c, 0, 50, 0
3, 113760, Note_on_c, 0, 34, 0
3, 113760, Note_on_c, 0, 43, 0
3, 113760, Note_on_c, 0, 43, 27
3, 113760, Note_on_c, 0, 50, 27
3, 113760, Note_on_c, 0, 38, 30
3, 113760, Note_on_c, 0, 34, 21
3, 113939, Note_on_c, 0, 34, 0
3, 113939, Note_on_c, 0, 43, 0
3, 113939, Note_on_c, 0, 50, 0
3, 114120, Note_on_c, 0, 43, 27
3, 114120, Note_on_c, 0, 50, 27
3, 114120, Note_on_c, 0, 34, 24
3, 114299, Note_on_c, 0, 34, 0
3, 114299, Note_on_c, 0, 50, 0
3, 114299, Note_on_c, 0, 43, 0
3, 115560, Note_on_c, 0, 38, 0
3, 115560, Note_on_c, 0, 43, 27
3, 116280, Note_on_c, 0, 43, 0
3, 116280, Note_on_c, 0, 46, 29
3, 117000, Note_on_c, 0, 46, 0
3, 117000, Note_on_c, 0, 49, 28
3, 117720, Note_on_c, 0, 49, 0
3, 117720, Note_on_c, 0, 50, 26
3, 118440, Note_on_c, 0, 50, 0
3, 122400, Note_on_c, 0, 62, 23
3, 122400, Note_on_c, 0, 55, 29
3, 123120, Note_on_c, 0, 55, 0
3, 123120, Note_on_c, 0, 54, 33
3, 123840, Note_on_c, 0, 54, 0
3, 123840, Note_on_c, 0, 53, 34
3, 124740, Note_on_c, 0, 53, 0
3, 124740, Note_on_c, 0, 62, 0
3, 126360, Note_on_c, 0, 65, 22
3, 127440, Note_on_c, 0, 65, 0
3, 127440, Note_on_c, 0, 63, 26
3, 128340, Note_on_c, 0, 63, 0
3, 128520, Note_on_c, 0, 63, 21
3, 128700, Note_on_c, 0, 63, 0
3, 128700, Note_on_c, 0, 62, 20
3, 128880, Note_on_c, 0, 62, 0
3, 128880, Note_on_c, 0, 62, 27
3, 129240, Note_on_c, 0, 62, 0
3, 129240, Note_on_c, 0, 60, 24
3, 130320, Note_on_c, 0, 60, 0
3, 130320, Note_on_c, 0, 58, 25
3, 132300, Note_on_c, 0, 58, 0
3, 132840, Note_on_c, 0, 58, 23
3, 133920, Note_on_c, 0, 58, 0
3, 133920, Note_on_c, 0, 57, 26
3, 134820, Note_on_c, 0, 57, 0
3, 135000, Note_on_c, 0, 57, 57
3, 135180, Note_on_c, 0, 57, 0
3, 135180, Note_on_c, 0, 55, 67
3, 135360, Note_on_c, 0, 55, 0
3, 135360, Note_on_c, 0, 55, 53
3, 135720, Note_on_c, 0, 55, 0
3, 135720, Note_on_c, 0, 54, 50
3, 136800, Note_on_c, 0, 54, 0
3, 136800, Note_on_c, 0, 53, 64
3, 138780, Note_on_c, 0, 53, 0
3, 139680, Note_on_c, 0, 63, 66
3, 139997, Note_on_c, 0, 63, 0
3, 140040, Note_on_c, 0, 64, 84
3, 140357, Note_on_c, 0, 64, 0
3, 140400, Note_on_c, 0, 63, 72
3, 140717, Note_on_c, 0, 63, 0
3, 140760, Note_on_c, 0, 62, 72
3, 142027, Note_on_c, 0, 62, 0
3, 142200, Note_on_c, 0, 63, 82
3, 142517, Note_on_c, 0, 63, 0
3, 142560, Note_on_c, 0, 64, 83
3, 142877, Note_on_c, 0, 64, 0
3, 142920, Note_on_c, 0, 63, 74
3, 143237, Note_on_c, 0, 63, 0
3, 143280, Note_on_c, 0, 62, 76
3, 144547, Note_on_c, 0, 62, 0
3, 147960, Note_on_c, 0, 62, 80
3, 148140, Note_on_c, 0, 62, 0
3, 148140, Note_on_c, 0, 63, 94
3, 148320, Note_on_c, 0, 63, 0
3, 148320, Note_on_c, 0, 57, 93
3, 148320, Note_on_c, 0, 63, 93
3, 148320, Note_on_c, 0, 41, 83
3, 148320, Note_on_c, 0, 53, 83
3, 148680, Note_on_c, 0, 53, 0
3, 148680, Note_on_c, 0, 57, 0
3, 148680, Note_on_c, 0, 63, 0
3, 148680, Note_on_c, 0, 41, 0
3, 148680, Note_on_c, 0, 53, 61
3, 148680, Note_on_c, 0, 58, 61
3, 148680, Note_on_c, 0, 62, 61
3, 148680, Note_on_c, 0, 34, 61
3, 148680, Note_on_c, 0, 46, 61
3, 149760, Note_on_c, 0, 62, 0
3, 149760, Note_on_c, 0, 53, 0
3, 149760, Note_on_c, 0, 58, 0
3, 149760, Note_on_c, 0, 53, 76
3, 149760, Note_on_c, 0, 58, 76
3, 149760, Note_on_c, 0, 65, 76
3, 150120, Note_on_c, 0, 65, 0
3, 150120, Note_on_c, 0, 53, 0
3, 150120, Note_on_c, 0, 46, 0
3, 150120, Note_on_c, 0, 34, 0
3, 150120, Note_on_c, 0, 58, 0
3, 150120, Note_on_c, 0, 54, 72
3, 150120, Note_on_c, 0, 63, 72
3, 150120, Note_on_c, 0, 66, 72
3, 150120, Note_on_c, 0, 34, 64
3, 150120, Note_on_c, 0, 46, 64
3, 151200, Note_on_c, 0, 66, 0
3, 151200, Note_on_c, 0, 54, 0
3, 151200, Note_on_c, 0, 63, 0
3, 151200, Note_on_c, 0, 54, 59
3, 151200, Note_on_c, 0, 57, 59
3, 151200, Note_on_c, 0, 63, 59
3, 151560, Note_on_c, 0, 63, 0
3, 151560, Note_on_c, 0, 54, 0
3, 151560, Note_on_c, 0, 46, 0
3, 151560, Note_on_c, 0, 34, 0
3, 151560, Note_on_c, 0, 57, 0
3, 151560, Note_on_c, 0, 53, 58
3, 151560, Note_on_c, 0, 58, 58
3, 151560, Note_on_c, 0, 62, 58
3, 151560, Note_on_c, 0, 34, 67
3, 151560, Note_on_c, 0, 46, 67
3, 152640, Note_on_c, 0, 62, 0
3, 152640, Note_on_c, 0, 53, 0
3, 152640, Note_on_c, 0, 58, 0
3, 152640, Note_on_c, 0, 54, 61
3, 152640, Note_on_c, 0, 58, 61
3, 153000, Note_on_c, 0, 58, 0
3, 153000, Note_on_c, 0, 46, 0
3, 153000, Note_on_c, 0, 34, 0
3, 153000, Note_on_c, 0, 54, 0
3, 153000, Note_on_c, 0, 55, 60
3, 153000, Note_on_c, 0, 34, 68
3, 153000, Note_on_c, 0, 46, 68
3, 153720, Note_on_c, 0, 55, 0
3, 153720, Note_on_c, 0, 54, 66
3, 154080, Note_on_c, 0, 54, 0
3, 154080, Note_on_c, 0, 53, 67
3, 154620, Note_on_c, 0, 53, 0
3, 154620, Note_on_c, 0, 46, 0
3, 154620, Note_on_c, 0, 34, 0
3, 154800, Note_on_c, 0, 53, 73
3, 154800, Note_on_c, 0, 34, 69
3, 154800, Note_on_c, 0, 46, 69
3, 155340, Note_on_c, 0, 46, 0
3, 155340, Note_on_c, 0, 34, 0
3, 155340, Note_on_c, 0, 53, 0
3, 156600, Note_on_c, 0, 54, 40
3, 157320, Note_on_c, 0, 54, 0
3, 157320, Note_on_c, 0, 53, 42
3, 157860, Note_on_c, 0, 53, 0
3, 157860, Note_on_c, 0, 45, 30
3, 157860, Note_on_c, 0, 33, 24
3, 157919, Note_on_c, 0, 33, 0
3, 157919, Note_on_c, 0, 45, 0
3, 157919, Note_on_c, 0, 46, 33
3, 157919, Note_on_c, 0, 34, 34
3, 157980, Note_on_c, 0, 34, 0
3, 157980, Note_on_c, 0, 46, 0
3, 157980, Note_on_c, 0, 47, 37
3, 157980, Note_on_c, 0, 35, 37
3, 158040, Note_on_c, 0, 35, 0
3, 158040, Note_on_c, 0, 47, 0
3, 158040, Note_on_c, 0, 46, 32
3, 158040, Note_on_c, 0, 34, 32
3, 158400, Note_on_c, 0, 34, 0
3, 158400, Note_on_c, 0, 46, 0
3, 158580, Note_on_c, 0, 45, 31
3, 158580, Note_on_c, 0, 33, 31
3, 158639, Note_on_c, 0, 33, 0
3, 158639, Note_on_c, 0, 45, 0
3, 158639, Note_on_c, 0, 46, 35
3, 158639, Note_on_c, 0, 34, 34
3, 158700, Note_on_c, 0, 34, 0
3, 158700, Note_on_c, 0, 46, 0
3, 158700, Note_on_c, 0, 47, 37
3, 158700, Note_on_c, 0, 35, 35
3, 158760, Note_on_c, 0, 35, 0
3, 158760, Note_on_c, 0, 47, 0
3, 158760, Note_on_c, 0, 46, 31
3, 158760, Note_on_c, 0, 34, 36
3, 159660, Note_on_c, 0, 34, 0
3, 159660, Note_on_c, 0, 46, 0
3, 160200, Note_on_c, 0, 55, 48
3, 160200, Note_on_c, 0, 57, 48
3, 160200, Note_on_c, 0, 61, 48
3, 160200, Note_on_c, 0, 67, 48
3, 160200, Note_on_c, 0, 33, 44
3, 160200, Note_on_c, 0, 45, 44
3, 160380, Note_on_c, 0, 45, 0
3, 160380, Note_on_c, 0, 57, 0
3, 160380, Note_on_c, 0, 61, 0
3, 160380, Note_on_c, 0, 55, 0
3, 160380, Note_on_c, 0, 33, 0
3, 160380, Note_on_c, 0, 67, 0
3, 161280, Note_on_c, 0, 69, 81
3, 161640, Note_on_c, 0, 69, 0
3, 161640, Note_on_c, 0, 67, 88
3, 162180, Note_on_c, 0, 67, 0
3, 162180, Note_on_c, 0, 69, 100
3, 162360, Note_on_c, 0, 69, 0
3, 162360, Note_on_c, 0, 65, 87
3, 162720, Note_on_c, 0, 65, 0
3, 162720, Note_on_c, 0, 64, 90
3, 163080, Note_on_c, 0, 64, 0
3, 163080, Note_on_c, 0, 65, 103
3, 163440, Note_on_c, 0, 65, 0
3, 163440, Note_on_c, 0, 62, 87
3, 163980, Note_on_c, 0, 62, 0
3, 163980, Note_on_c, 0, 69, 110
3, 164160, Note_on_c, 0, 69, 0
3, 164160, Note_on_c, 0, 67, 90
3, 164340, Note_on_c, 0, 67, 0
3, 164340, Note_on_c, 0, 69, 100
3, 164520, Note_on_c, 0, 69, 0
3, 164520, Note_on_c, 0, 65, 85
3, 164700, Note_on_c, 0, 65, 0
3, 164700, Note_on_c, 0, 67, 102
3, 164880, Note_on_c, 0, 67, 0
3, 164880, Note_on_c, 0, 64, 87
3, 165060, Note_on_c, 0, 64, 0
3, 165060, Note_on_c, 0, 65, 98
3, 165240, Note_on_c, 0, 65, 0
3, 165240, Note_on_c, 0, 62, 89
3, 165329, Note_on_c, 0, 62, 0
3, 165420, Note_on_c, 0, 64, 106
3, 165509, Note_on_c, 0, 64, 0
3, 165600, Note_on_c, 0, 65, 111
3, 165917, Note_on_c, 0, 65, 0
3, 165960, Note_on_c, 0, 62, 84
3, 166050, Note_on_c, 0, 62, 0
3, 166050, Note_on_c, 0, 64, 102
3, 166140, Note_on_c, 0, 64, 0
3, 166140, Note_on_c, 0, 62, 89
3, 166230, Note_on_c, 0, 62, 0
3, 166230, Note_on_c, 0, 60, 88
3, 166320, Note_on_c, 0, 60, 0
3, 166320, Note_on_c, 0, 58, 90
3, 166410, Note_on_c, 0, 58, 0
3, 166410, Note_on_c, 0, 60, 105
3, 166500, Note_on_c, 0, 60, 0
3, 166500, Note_on_c, 0, 58, 86
3, 166590, Note_on_c, 0, 58, 0
3, 166590, Note_on_c, 0, 57, 95
3, 166680, Note_on_c, 0, 57, 0
3, 166680, Note_on_c, 0, 55, 90
3, 166769, Note_on_c, 0, 55, 0
3, 166860, Note_on_c, 0, 57, 101
3, 166949, Note_on_c, 0, 57, 0
3, 167040, Note_on_c, 0, 58, 111
3, 167357, Note_on_c, 0, 58, 0
3, 167400, Note_on_c, 0, 60, 104
3, 167489, Note_on_c, 0, 60, 0
3, 167580, Note_on_c, 0, 62, 102
3, 167669, Note_on_c, 0, 62, 0
3, 167760, Note_on_c, 0, 63, 111
3, 168077, Note_on_c, 0, 63, 0
3, 168120, Note_on_c, 0, 62, 95
3, 168209, Note_on_c, 0, 62, 0
3, 168300, Note_on_c, 0, 64, 104
3, 168389, Note_on_c, 0, 64, 0
3, 168480, Note_on_c, 0, 66, 111
3, 169020, Note_on_c, 0, 66, 0
3, 169740, Note_on_c, 0, 65, 90
3, 169920, Note_on_c, 0, 65, 0
3, 169920, Note_on_c, 0, 63, 86
3, 171360, Note_on_c, 0, 63, 0
3, 171360, Note_on_c, 0, 62, 87
3, 171450, Note_on_c, 0, 62, 0
3, 171450, Note_on_c, 0, 63, 102
3, 171540, Note_on_c, 0, 63, 0
3, 171540, Note_on_c, 0, 62, 90
3, 171630, Note_on_c, 0, 62, 0
3, 171630, Note_on_c, 0, 60, 92
3, 171720, Note_on_c, 0, 60, 0
3, 171720, Note_on_c, 0, 58, 96
3, 172440, Note_on_c, 0, 58, 0
3, 172440, Note_on_c, 0, 57, 94
3, 172800, Note_on_c, 0, 57, 0
3, 172800, Note_on_c, 0, 56, 96
3, 172890, Note_on_c, 0, 56, 0
3, 172890, Note_on_c, 0, 57, 95
3, 172980, Note_on_c, 0, 57, 0
3, 172980, Note_on_c, 0, 59, 100
3, 173070, Note_on_c, 0, 59, 0
3, 173070, Note_on_c, 0, 61, 106
3, 173160, Note_on_c, 0, 61, 0
3, 173160, Note_on_c, 0, 62, 103
3, 173520, Note_on_c, 0, 62, 0
3, 173520, Note_on_c, 0, 60, 88
3, 173609, Note_on_c, 0, 60, 0
3, 173700, Note_on_c, 0, 61, 100
3, 173789, Note_on_c, 0, 61, 0
3, 173880, Note_on_c, 0, 62, 111
3, 174197, Note_on_c, 0, 62, 0
3, 174240, Note_on_c, 0, 61, 94
3, 174330, Note_on_c, 0, 61, 0
3, 174330, Note_on_c, 0, 62, 103
3, 174420, Note_on_c, 0, 62, 0
3, 174420, Note_on_c, 0, 64, 106
3, 174510, Note_on_c, 0, 64, 0
3, 174510, Note_on_c, 0, 66, 104
3, 174600, Note_on_c, 0, 66, 0
3, 174600, Note_on_c, 0, 67, 102
3, 174960, Note_on_c, 0, 67, 0
3, 178380, Note_on_c, 0, 64, 84
3, 178469, Note_on_c, 0, 64, 0
3, 178560, Note_on_c, 0, 65, 109
3, 179100, Note_on_c, 0, 65, 0
3, 179100, Note_on_c, 0, 64, 92
3, 179190, Note_on_c, 0, 64, 0
3, 179190, Note_on_c, 0, 63, 89
3, 179280, Note_on_c, 0, 63, 0
3, 179280, Note_on_c, 0, 64, 109
3, 179820, Note_on_c, 0, 64, 0
3, 179820, Note_on_c, 0, 63, 95
3, 179910, Note_on_c, 0, 63, 0
3, 179910, Note_on_c, 0, 62, 89
3, 180000, Note_on_c, 0, 62, 0
3, 180000, Note_on_c, 0, 63, 111
3, 180540, Note_on_c, 0, 63, 0
3, 180540, Note_on_c, 0, 62, 94
3, 180630, Note_on_c, 0, 62, 0
3, 180630, Note_on_c, 0, 61, 91
3, 180720, Note_on_c, 0, 61, 0
3, 180720, Note_on_c, 0, 62, 107
3, 181260, Note_on_c, 0, 62, 0
3, 181260, Note_on_c, 0, 62, 96
3, 181350, Note_on_c, 0, 62, 0
3, 181350, Note_on_c, 0, 61, 92
3, 181440, Note_on_c, 0, 61, 0
3, 181440, Note_on_c, 0, 62, 101
3, 181529, Note_on_c, 0, 62, 0
3, 181620, Note_on_c, 0, 65, 104
3, 181709, Note_on_c, 0, 65, 0
3, 181800, Note_on_c, 0, 63, 105
3, 182250, Note_on_c, 0, 63, 0
3, 182250, Note_on_c, 0, 65, 105
3, 182340, Note_on_c, 0, 65, 0
3, 182340, Note_on_c, 0, 63, 93
3, 182430, Note_on_c, 0, 63, 0
3, 182430, Note_on_c, 0, 65, 101
3, 182520, Note_on_c, 0, 65, 0
3, 182520, Note_on_c, 0, 62, 99
3, 182970, Note_on_c, 0, 62, 0
3, 182970, Note_on_c, 0, 63, 106
3, 183060, Note_on_c, 0, 63, 0
3, 183060, Note_on_c, 0, 62, 89
3, 183150, Note_on_c, 0, 62, 0
3, 183150, Note_on_c, 0, 63, 104
3, 183240, Note_on_c, 0, 63, 0
3, 183240, Note_on_c, 0, 60, 100
3, 183690, Note_on_c, 0, 60, 0
3, 183690, Note_on_c, 0, 62, 101
3, 183780, Note_on_c, 0, 62, 0
3, 183780, Note_on_c, 0, 60, 89
3, 183870, Note_on_c, 0, 60, 0
3, 183870, Note_on_c, 0, 62, 103
3, 183960, Note_on_c, 0, 62, 0
3, 183960, Note_on_c, 0, 58, 104
3, 184860, Note_on_c, 0, 58, 0
3, 184860, Note_on_c, 0, 57, 97
3, 184950, Note_on_c, 0, 57, 0
3, 184950, Note_on_c, 0, 56, 96
3, 185040, Note_on_c, 0, 56, 0
3, 185040, Note_on_c, 0, 57, 95
3, 185580, Note_on_c, 0, 57, 0
3, 185580, Note_on_c, 0, 56, 89
3, 185670, Note_on_c, 0, 56, 0
3, 185670, Note_on_c, 0, 55, 88
3, 185760, Note_on_c, 0, 55, 0
3, 185760, Note_on_c, 0, 56, 87
3, 186300, Note_on_c, 0, 56, 0
3, 186300, Note_on_c, 0, 55, 82
3, 186390, Note_on_c, 0, 55, 0
3, 186390, Note_on_c, 0, 54, 80
3, 186480, Note_on_c, 0, 54, 0
3, 186480, Note_on_c, 0, 55, 98
3, 187020, Note_on_c, 0, 55, 0
3, 187020, Note_on_c, 0, 55, 82
3, 187110, Note_on_c, 0, 55, 0
3, 187110, Note_on_c, 0, 54, 82
3, 187200, Note_on_c, 0, 54, 0
3, 187200, Note_on_c, 0, 55, 88
3, 187380, Note_on_c, 0, 55, 0
3, 187560, Note_on_c, 0, 48, 38
3, 187560, Note_on_c, 0, 55, 38
3, 187560, Note_on_c, 0, 36, 38
3, 187740, Note_on_c, 0, 36, 0
3, 187740, Note_on_c, 0, 55, 0
3, 187740, Note_on_c, 0, 48, 0
3, 189000, Note_on_c, 0, 62, 41
3, 189089, Note_on_c, 0, 62, 0
3, 189180, Note_on_c, 0, 62, 47
3, 189269, Note_on_c, 0, 62, 0
3, 189360, Note_on_c, 0, 62, 61
3, 189677, Note_on_c, 0, 62, 0
3, 189720, Note_on_c, 0, 62, 96
3, 189720, Note_on_c, 0, 43, 88
3, 189720, Note_on_c, 0, 50, 88
3, 189810, Note_on_c, 0, 62, 0
3, 189810, Note_on_c, 0, 63, 105
3, 189900, Note_on_c, 0, 63, 0
3, 189900, Note_on_c, 0, 50, 0
3, 189900, Note_on_c, 0, 43, 0
3, 189900, Note_on_c, 0, 62, 87
3, 189900, Note_on_c, 0, 45, 95
3, 189900, Note_on_c, 0, 50, 95
3, 189990, Note_on_c, 0, 62, 0
3, 189990, Note_on_c, 0, 60, 93
3, 190080, Note_on_c, 0, 60, 0
3, 190080, Note_on_c, 0, 50, 0
3, 190080, Note_on_c, 0, 45, 0
3, 190080, Note_on_c, 0, 58, 89
3, 190080, Note_on_c, 0, 46, 87
3, 190080, Note_on_c, 0, 50, 87
3, 190170, Note_on_c, 0, 58, 0
3, 190170, Note_on_c, 0, 60, 106
3, 190260, Note_on_c, 0, 60, 0
3, 190260, Note_on_c, 0, 50, 0
3, 190260, Note_on_c, 0, 46, 0
3, 190260, Note_on_c, 0, 58, 95
3, 190350, Note_on_c, 0, 58, 0
3, 190350, Note_on_c, 0, 57, 93
3, 190440, Note_on_c, 0, 57, 0
3, 190440, Note_on_c, 0, 55, 92
3, 190440, Note_on_c, 0, 39, 57
3, 190440, Note_on_c, 0, 51, 57
3, 190530, Note_on_c, 0, 51, 0
3, 190530, Note_on_c, 0, 39, 0
3, 190530, Note_on_c, 0, 55, 0
3, 190530, Note_on_c, 0, 53, 94
3, 190530, Note_on_c, 0, 41, 52
3, 190620, Note_on_c, 0, 41, 0
3, 190620, Note_on_c, 0, 53, 0
3, 190620, Note_on_c, 0, 50, 91
3, 190620, Note_on_c, 0, 38, 61
3, 190710, Note_on_c, 0, 38, 0
3, 190710, Note_on_c, 0, 50, 0
3, 190710, Note_on_c, 0, 51, 101
3, 190710, Note_on_c, 0, 39, 64
3, 190800, Note_on_c, 0, 39, 0
3, 190800, Note_on_c, 0, 51, 0
3, 190800, Note_on_c, 0, 48, 93
3, 190800, Note_on_c, 0, 36, 65
3, 190980, Note_on_c, 0, 36, 0
3, 190980, Note_on_c, 0, 48, 0
3, 190980, Note_on_c, 0, 46, 89
3, 190980, Note_on_c, 0, 34, 62
3, 191070, Note_on_c, 0, 34, 0
3, 191070, Note_on_c, 0, 46, 0
3, 191070, Note_on_c, 0, 45, 97
3, 191070, Note_on_c, 0, 33, 64
3, 191160, Note_on_c, 0, 33, 0
3, 191160, Note_on_c, 0, 45, 0
3, 191160, Note_on_c, 0, 43, 94
3, 191160, Note_on_c, 0, 31, 59
3, 191340, Note_on_c, 0, 31, 0
3, 191340, Note_on_c, 0, 43, 0
3, 191700, Note_on_c, 0, 57, 60
3, 191880, Note_on_c, 0, 57, 0
3, 191880, Note_on_c, 0, 57, 110
3, 191880, Note_on_c, 0, 62, 110
3, 191880, Note_on_c, 0, 38, 85
3, 191880, Note_on_c, 0, 50, 85
3, 191969, Note_on_c, 0, 50, 0
3, 191969, Note_on_c, 0, 57, 0
3, 191969, Note_on_c, 0, 62, 0
3, 191969, Note_on_c, 0, 38, 0
3, 193320, Note_on_c, 0, 64, 70
3, 193409, Note_on_c, 0, 64, 0
3, 194580, Note_on_c, 0, 60, 66
3, 194760, Note_on_c, 0, 60, 0
3, 194760, Note_on_c, 0, 60, 110
3, 194760, Note_on_c, 0, 65, 110
3, 194760, Note_on_c, 0, 68, 110
3, 194760, Note_on_c, 0, 72, 110
3, 194760, Note_on_c, 0, 41, 98
3, 194760, Note_on_c, 0, 53, 98
3, 194940, Note_on_c, 0, 53, 0
3, 194940, Note_on_c, 0, 65, 0
3, 194940, Note_on_c, 0, 68, 0
3, 194940, Note_on_c, 0, 60, 0
3, 194940, Note_on_c, 0, 41, 0
3, 194940, Note_on_c, 0, 72, 0
3, 196200, Note_on_c, 0, 67, 70
3, 196380, Note_on_c, 0, 67, 0
3, 197460, Note_on_c, 0, 64, 92
3, 197640, Note_on_c, 0, 64, 0
3, 197640, Note_on_c, 0, 52, 111
3, 197640, Note_on_c, 0, 57, 111
3, 197640, Note_on_c, 0, 60, 111
3, 197640, Note_on_c, 0, 64, 111
3, 197640, Note_on_c, 0, 33, 111
3, 197640, Note_on_c, 0, 45, 111
3, 197820, Note_on_c, 0, 45, 0
3, 197820, Note_on_c, 0, 57, 0
3, 197820, Note_on_c, 0, 60, 0
3, 197820, Note_on_c, 0, 52, 0
3, 197820, Note_on_c, 0, 33, 0
3, 197820, Note_on_c, 0, 64, 0
3, 198360, Note_on_c, 0, 36, 70
3, 198360, Note_on_c, 0, 33, 71
3, 198720, Note_on_c, 0, 33, 0
3, 198720, Note_on_c, 0, 36, 0
3, 198720, Note_on_c, 0, 36, 53
3, 198720, Note_on_c, 0, 33, 55
3, 198990, Note_on_c, 0, 33, 0
3, 198990, Note_on_c, 0, 36, 0
3, 198990, Note_on_c, 0, 38, 60
3, 198990, Note_on_c, 0, 35, 59
3, 199080, Note_on_c, 0, 35, 0
3, 199080, Note_on_c, 0, 38, 0
3, 199080, Note_on_c, 0, 40, 56
3, 199080, Note_on_c, 0, 36, 61
3, 199169, Note_on_c, 0, 36, 0
3, 199169, Note_on_c, 0, 40, 0
3, 199260, Note_on_c, 0, 42, 56
3, 199260, Note_on_c, 0, 38, 52
3, 199349, Note_on_c, 0, 38, 0
3, 199349, Note_on_c, 0, 42, 0
3, 199440, Note_on_c, 0, 43, 55
3, 199440, Note_on_c, 0, 40, 56
3, 199529, Note_on_c, 0, 40, 0
3, 199529, Note_on_c, 0, 43, 0
3, 199620, Note_on_c, 0, 45, 58
3, 199620, Note_on_c, 0, 42, 58
3, 199709, Note_on_c, 0, 42, 0
3, 199709, Note_on_c, 0, 45, 0
3, 199800, Note_on_c, 0, 47, 85
3, 199800, Note_on_c, 0, 43, 82
3, 199980, Note_on_c, 0, 43, 0
3, 199980, Note_on_c, 0, 47, 0
3, 199980, Note_on_c, 0, 45, 50
3, 199980, Note_on_c, 0, 42, 50
3, 200069, Note_on_c, 0, 42, 0
3, 200069, Note_on_c, 0, 45, 0
3, 200160, Note_on_c, 0, 43, 50
3, 200160, Note_on_c, 0, 40, 52
3, 200249, Note_on_c, 0, 40, 0
3, 200249, Note_on_c, 0, 43, 0
3, 200340, Note_on_c, 0, 42, 54
3, 200340, Note_on_c, 0, 38, 54
3, 200429, Note_on_c, 0, 38, 0
3, 200429, Note_on_c, 0, 42, 0
3, 200520, Note_on_c, 0, 40, 56
3, 200520, Note_on_c, 0, 36, 51
3, 200609, Note_on_c, 0, 36, 0
3, 200609, Note_on_c, 0, 40, 0
3, 200700, Note_on_c, 0, 38, 58
3, 200700, Note_on_c, 0, 35, 54
3, 200789, Note_on_c, 0, 35, 0
3, 200789, Note_on_c, 0, 38, 0
3, 200880, Note_on_c, 0, 36, 81
3, 200880, Note_on_c, 0, 33, 81
3, 201600, Note_on_c, 0, 33, 0
3, 201600, Note_on_c, 0, 36, 0
3, 201600, Note_on_c, 0, 36, 51
3, 201600, Note_on_c, 0, 33, 57
3, 201780, Note_on_c, 0, 33, 0
3, 201780, Note_on_c, 0, 36, 0
3, 201780, Note_on_c, 0, 36, 60
3, 201780, Note_on_c, 0, 33, 58
3, 201870, Note_on_c, 0, 33, 0
3, 201870, Note_on_c, 0, 36, 0
3, 201870, Note_on_c, 0, 38, 55
3, 201870, Note_on_c, 0, 35, 59
3, 201960, Note_on_c, 0, 35, 0
3, 201960, Note_on_c, 0, 38, 0
3, 201960, Note_on_c, 0, 40, 55
3, 201960, Note_on_c, 0, 36, 54
3, 202140, Note_on_c, 0, 36, 0
3, 202140, Note_on_c, 0, 40, 0
3, 202140, Note_on_c, 0, 42, 54
3, 202140, Note_on_c, 0, 38, 52
3, 202229, Note_on_c, 0, 38, 0
3, 202229, Note_on_c, 0, 42, 0
3, 202320, Note_on_c, 0, 43, 58
3, 202320, Note_on_c, 0, 40, 58
3, 202409, Note_on_c, 0, 40, 0
3, 202409, Note_on_c, 0, 43, 0
3, 202500, Note_on_c, 0, 45, 56
3, 202500, Note_on_c, 0, 42, 52
3, 202589, Note_on_c, 0, 42, 0
3, 202589, Note_on_c, 0, 45, 0
3, 202680, Note_on_c, 0, 47, 54
3, 202680, Note_on_c, 0, 43, 50
3, 202769, Note_on_c, 0, 43, 0
3, 202769, Note_on_c, 0, 47, 0
3, 202860, Note_on_c, 0, 48, 62
3, 202860, Note_on_c, 0, 45, 58
3, 202949, Note_on_c, 0, 45, 0
3, 202949, Note_on_c, 0, 48, 0
3, 203040, Note_on_c, 0, 50, 55
3, 203040, Note_on_c, 0, 47, 59
3, 203129, Note_on_c, 0, 47, 0
3, 203129, Note_on_c, 0, 50, 0
3, 203220, Note_on_c, 0, 48, 52
3, 203220, Note_on_c, 0, 45, 49
3, 203309, Note_on_c, 0, 45, 0
3, 203309, Note_on_c, 0, 48, 0
3, 203400, Note_on_c, 0, 47, 52
3, 203400, Note_on_c, 0, 43, 56
3, 203489, Note_on_c, 0, 43, 0
3, 203489, Note_on_c, 0, 47, 0
3, 203580, Note_on_c, 0, 45, 55
3, 203580, Note_on_c, 0, 42, 51
3, 203669, Note_on_c, 0, 42, 0
3, 203669, Note_on_c, 0, 45, 0
3, 203760, Note_on_c, 0, 43, 52
3, 203760, Note_on_c, 0, 40, 58
3, 203849, Note_on_c, 0, 40, 0
3, 203849, Note_on_c, 0, 43, 0
3, 203940, Note_on_c, 0, 42, 58
3, 203940, Note_on_c, 0, 38, 49
3, 204029, Note_on_c, 0, 38, 0
3, 204029, Note_on_c, 0, 42, 0
3, 204120, Note_on_c, 0, 40, 74
3, 204120, Note_on_c, 0, 36, 80
3, 204480, Note_on_c, 0, 36, 0
3, 204480, Note_on_c, 0, 40, 0
3, 204480, Note_on_c, 0, 40, 56
3, 204480, Note_on_c, 0, 36, 54
3, 204750, Note_on_c, 0, 36, 0
3, 204750, Note_on_c, 0, 40, 0
3, 204750, Note_on_c, 0, 42, 55
3, 204750, Note_on_c, 0, 38, 54
3, 204840, Note_on_c, 0, 38, 0
3, 204840, Note_on_c, 0, 42, 0
3, 204840, Note_on_c, 0, 43, 57
3, 204840, Note_on_c, 0, 40, 61
3, 204929, Note_on_c, 0, 40, 0
3, 204929, Note_on_c, 0, 43, 0
3, 205020, Note_on_c, 0, 45, 55
3, 205020, Note_on_c, 0, 42, 57
3, 205109, Note_on_c, 0, 42, 0
3, 205109, Note_on_c, 0, 45, 0
3, 205200, Note_on_c, 0, 47, 56
3, 205200, Note_on_c, 0, 43, 58
3, 205289, Note_on_c, 0, 43, 0
3, 205289, Note_on_c, 0, 47, 0
3, 205380, Note_on_c, 0, 48, 61
3, 205380, Note_on_c, 0, 45, 55
3, 205469, Note_on_c, 0, 45, 0
3, 205469, Note_on_c, 0, 48, 0
3, 205560, Note_on_c, 0, 47, 52
3, 205560, Note_on_c, 0, 43, 53
3, 205649, Note_on_c, 0, 43, 0
3, 205649, Note_on_c, 0, 47, 0
3, 205740, Note_on_c, 0, 45, 52
3, 205740, Note_on_c, 0, 42, 48
3, 205829, Note_on_c, 0, 42, 0
3, 205829, Note_on_c, 0, 45, 0
3, 205920, Note_on_c, 0, 43, 49
3, 205920, Note_on_c, 0, 40, 51
3, 206009, Note_on_c, 0, 40, 0
3, 206009, Note_on_c, 0, 43, 0
3, 206100, Note_on_c, 0, 42, 48
3, 206100, Note_on_c, 0, 38, 55
3, 206189, Note_on_c, 0, 38, 0
3, 206189, Note_on_c, 0, 42, 0
3, 206280, Note_on_c, 0, 40, 53
3, 206280, Note_on_c, 0, 36, 47
3, 206369, Note_on_c, 0, 36, 0
3, 206369, Note_on_c, 0, 40, 0
3, 206460, Note_on_c, 0, 38, 54
3, 206460, Note_on_c, 0, 35, 51
3, 206549, Note_on_c, 0, 35, 0
3, 206549, Note_on_c, 0, 38, 0
3, 206640, Note_on_c, 0, 36, 82
3, 206640, Note_on_c, 0, 33, 82
3, 207360, Note_on_c, 0, 33, 0
3, 207360, Note_on_c, 0, 36, 0
3, 207360, Note_on_c, 0, 36, 55
3, 207360, Note_on_c, 0, 33, 55
3, 207630, Note_on_c, 0, 33, 0
3, 207630, Note_on_c, 0, 36, 0
3, 207630, Note_on_c, 0, 38, 53
3, 207630, Note_on_c, 0, 35, 53
3, 207720, Note_on_c, 0, 35, 0
3, 207720, Note_on_c, 0, 38, 0
3, 207720, Note_on_c, 0, 40, 56
3, 207720, Note_on_c, 0, 36, 61
3, 207809, Note_on_c, 0, 36, 0
3, 207809, Note_on_c, 0, 40, 0
3, 207900, Note_on_c, 0, 42, 56
3, 207900, Note_on_c, 0, 38, 52
3, 207989, Note_on_c, 0, 38, 0
3, 207989, Note_on_c, 0, 42, 0
3, 208080, Note_on_c, 0, 43, 60
3, 208080, Note_on_c, 0, 40, 58
3, 208169, Note_on_c, 0, 40, 0
3, 208169, Note_on_c, 0, 43, 0
3, 208260, Note_on_c, 0, 45, 57
3, 208260, Note_on_c, 0, 42, 54
3, 208349, Note_on_c, 0, 42, 0
3, 208349, Note_on_c, 0, 45, 0
3, 208440, Note_on_c, 0, 43, 54
3, 208440, Note_on_c, 0, 40, 50
3, 208529, Note_on_c, 0, 40, 0
3, 208529, Note_on_c, 0, 43, 0
3, 208620, Note_on_c, 0, 45, 57
3, 208620, Note_on_c, 0, 42, 55
3, 208709, Note_on_c, 0, 42, 0
3, 208709, Note_on_c, 0, 45, 0
3, 208800, Note_on_c, 0, 43, 51
3, 208800, Note_on_c, 0, 40, 52
3, 208889, Note_on_c, 0, 40, 0
3, 208889, Note_on_c, 0, 43, 0
3, 208980, Note_on_c, 0, 42, 51
3, 208980, Note_on_c, 0, 38, 57
3, 209069, Note_on_c, 0, 38, 0
3, 209069, Note_on_c, 0, 42, 0
3, 209160, Note_on_c, 0, 40, 65
3, 209160, Note_on_c, 0, 36, 51
3, 209249, Note_on_c, 0, 36, 0
3, 209340, Note_on_c, 0, 35, 51
3, 209429, Note_on_c, 0, 35, 0
3, 209520, Note_on_c, 0, 33, 53
3, 209609, Note_on_c, 0, 33, 0
3, 209700, Note_on_c, 0, 31, 51
3, 209789, Note_on_c, 0, 31, 0
3, 209793, Note_on_c, 0, 40, 0
3, 209880, Note_on_c, 0, 30, 66
3, 209880, Note_on_c, 0, 42, 66
3, 210060, Note_on_c, 0, 42, 0
3, 210060, Note_on_c, 0, 30, 0
3, 210240, Note_on_c, 0, 61, 55
3, 210240, Note_on_c, 0, 42, 55
3, 210240, Note_on_c, 0, 52, 55
3, 210240, Note_on_c, 0, 58, 55
3, 210330, Note_on_c, 0, 61, 0
3, 210330, Note_on_c, 0, 62, 59
3, 210420, Note_on_c, 0, 62, 0
3, 210420, Note_on_c, 0, 58, 0
3, 210420, Note_on_c, 0, 52, 0
3, 210420, Note_on_c, 0, 42, 0
3, 210420, Note_on_c, 0, 64, 63
3, 210510, Note_on_c, 0, 64, 0
3, 210510, Note_on_c, 0, 66, 66
3, 210600, Note_on_c, 0, 66, 0
3, 210600, Note_on_c, 0, 66, 83
3, 210600, Note_on_c, 0, 43, 51
3, 210600, Note_on_c, 0, 55, 51
3, 210690, Note_on_c, 0, 66, 0
3, 210690, Note_on_c, 0, 67, 87
3, 210758, Note_on_c, 0, 55, 0
3, 210758, Note_on_c, 0, 43, 0
3, 210780, Note_on_c, 0, 67, 0
3, 210780, Note_on_c, 0, 64, 74
3, 210780, Note_on_c, 0, 43, 61
3, 210780, Note_on_c, 0, 55, 61
3, 210870, Note_on_c, 0, 64, 0
3, 210870, Note_on_c, 0, 62, 71
3, 210960, Note_on_c, 0, 62, 0
3, 210960, Note_on_c, 0, 64, 86
3, 211050, Note_on_c, 0, 64, 0
3, 211050, Note_on_c, 0, 67, 88
3, 211140, Note_on_c, 0, 67, 0
3, 211140, Note_on_c, 0, 66, 78
3, 211230, Note_on_c, 0, 66, 0
3, 211230, Note_on_c, 0, 67, 87
3, 211320, Note_on_c, 0, 67, 0
3, 211320, Note_on_c, 0, 55, 0
3, 211320, Note_on_c, 0, 43, 0
3, 211320, Note_on_c, 0, 64, 81
3, 211320, Note_on_c, 0, 42, 44
3, 211320, Note_on_c, 0, 54, 44
3, 211410, Note_on_c, 0, 64, 0
3, 211410, Note_on_c, 0, 62, 80
3, 211478, Note_on_c, 0, 54, 0
3, 211478, Note_on_c, 0, 42, 0
3, 211500, Note_on_c, 0, 62, 0
3, 211500, Note_on_c, 0, 64, 80
3, 211500, Note_on_c, 0, 42, 43
3, 211500, Note_on_c, 0, 54, 43
3, 211590, Note_on_c, 0, 64, 0
3, 211590, Note_on_c, 0, 67, 79
3, 211680, Note_on_c, 0, 67, 0
3, 211680, Note_on_c, 0, 66, 78
3, 211770, Note_on_c, 0, 66, 0
3, 211770, Note_on_c, 0, 67, 77
3, 211860, Note_on_c, 0, 67, 0
3, 211860, Note_on_c, 0, 64, 77
3, 211950, Note_on_c, 0, 64, 0
3, 211950, Note_on_c, 0, 62, 76
3, 212040, Note_on_c, 0, 62, 0
3, 212040, Note_on_c, 0, 54, 0
3, 212040, Note_on_c, 0, 42, 0
3, 212040, Note_on_c, 0, 64, 75
3, 212040, Note_on_c, 0, 43, 38
3, 212040, Note_on_c, 0, 55, 38
3, 212130, Note_on_c, 0, 64, 0
3, 212130, Note_on_c, 0, 67, 74
3, 212198, Note_on_c, 0, 55, 0
3, 212198, Note_on_c, 0, 43, 0
3, 212220, Note_on_c, 0, 67, 0
3, 212220, Note_on_c, 0, 66, 73
3, 212220, Note_on_c, 0, 43, 37
3, 212220, Note_on_c, 0, 55, 37
3, 212310, Note_on_c, 0, 66, 0
3, 212310, Note_on_c, 0, 67, 73
3, 212400, Note_on_c, 0, 67, 0
3, 212400, Note_on_c, 0, 64, 72
3, 212490, Note_on_c, 0, 64, 0
3, 212490, Note_on_c, 0, 63, 71
3, 212580, Note_on_c, 0, 63, 0
3, 212580, Note_on_c, 0, 64, 70
3, 212670, Note_on_c, 0, 64, 0
3, 212670, Note_on_c, 0, 66, 69
3, 212760, Note_on_c, 0, 66, 0
3, 212760, Note_on_c, 0, 55, 0
3, 212760, Note_on_c, 0, 43, 0
3, 212760, Note_on_c, 0, 67, 81
3, 212760, Note_on_c, 0, 40, 44
3, 212760, Note_on_c, 0, 52, 44
3, 212850, Note_on_c, 0, 67, 0
3, 212850, Note_on_c, 0, 66, 83
3, 212918, Note_on_c, 0, 52, 0
3, 212918, Note_on_c, 0, 40, 0
3, 212940, Note_on_c, 0, 66, 0
3, 212940, Note_on_c, 0, 67, 84
3, 212940, Note_on_c, 0, 40, 48
3, 212940, Note_on_c, 0, 52, 48
3, 213030, Note_on_c, 0, 67, 0
3, 213030, Note_on_c, 0, 64, 86
3, 213120, Note_on_c, 0, 64, 0
3, 213120, Note_on_c, 0, 67, 88
3, 213210, Note_on_c, 0, 67, 0
3, 213210, Note_on_c, 0, 66, 89
3, 213300, Note_on_c, 0, 66, 0
3, 213300, Note_on_c, 0, 67, 91
3, 213390, Note_on_c, 0, 67, 0
3, 213390, Note_on_c, 0, 64, 92
3, 213480, Note_on_c, 0, 64, 0
3, 213480, Note_on_c, 0, 52, 0
3, 213480, Note_on_c, 0, 40, 0
3, 213480, Note_on_c, 0, 67, 110
3, 213480, Note_on_c, 0, 39, 95
3, 213480, Note_on_c, 0, 51, 95
3, 213570, Note_on_c, 0, 67, 0
3, 213570, Note_on_c, 0, 66, 104
3, 213638, Note_on_c, 0, 51, 0
3, 213638, Note_on_c, 0, 39, 0
3, 213660, Note_on_c, 0, 66, 0
3, 213660, Note_on_c, 0, 67, 82
3, 213660, Note_on_c, 0, 39, 97
3, 213660, Note_on_c, 0, 51, 97
3, 213840, Note_on_c, 0, 67, 0
3, 213840, Note_on_c, 0, 61, 36
3, 213930, Note_on_c, 0, 61, 0
3, 213930, Note_on_c, 0, 59, 43
3, 214020, Note_on_c, 0, 59, 0
3, 214020, Note_on_c, 0, 58, 44
3, 214110, Note_on_c, 0, 58, 0
3, 214110, Note_on_c, 0, 59, 48
3, 214200, Note_on_c, 0, 59, 0
3, 214200, Note_on_c, 0, 51, 0
3, 214200, Note_on_c, 0, 39, 0
3, 214200, Note_on_c, 0, 61, 44
3, 214200, Note_on_c, 0, 40, 44
3, 214200, Note_on_c, 0, 52, 44
3, 214290, Note_on_c, 0, 61, 0
3, 214290, Note_on_c, 0, 62, 49
3, 214358, Note_on_c, 0, 52, 0
3, 214358, Note_on_c, 0, 40, 0
3, 214380, Note_on_c, 0, 62, 0
3, 214380, Note_on_c, 0, 64, 53
3, 214380, Note_on_c, 0, 40, 53
3, 214380, Note_on_c, 0, 52, 53
3, 214470, Note_on_c, 0, 64, 0
3, 214470, Note_on_c, 0, 66, 63
3, 214560, Note_on_c, 0, 66, 0
3, 214560, Note_on_c, 0, 67, 102
3, 214740, Note_on_c, 0, 67, 0
3, 214740, Note_on_c, 0, 52, 0
3, 214740, Note_on_c, 0, 40, 0
3, 214740, Note_on_c, 0, 52, 85
3, 214740, Note_on_c, 0, 40, 82
3, 214799, Note_on_c, 0, 40, 0
3, 214799, Note_on_c, 0, 52, 0
3, 214799, Note_on_c, 0, 54, 96
3, 214799, Note_on_c, 0, 42, 94
3, 214860, Note_on_c, 0, 42, 0
3, 214860, Note_on_c, 0, 54, 0
3, 214860, Note_on_c, 0, 55, 104
3, 214860, Note_on_c, 0, 43, 101
3, 214920, Note_on_c, 0, 43, 0
3, 214920, Note_on_c, 0, 55, 0
3, 214920, Note_on_c, 0, 54, 111
3, 214920, Note_on_c, 0, 42, 111
3, 215640, Note_on_c, 0, 42, 0
3, 215640, Note_on_c, 0, 54, 0
3, 215640, Note_on_c, 0, 55, 48
3, 215640, Note_on_c, 0, 43, 48
3, 215820, Note_on_c, 0, 43, 0
3, 215820, Note_on_c, 0, 55, 0
3, 216000, Note_on_c, 0, 63, 44
3, 216000, Note_on_c, 0, 44, 44
3, 216000, Note_on_c, 0, 54, 44
3, 216000, Note_on_c, 0, 60, 44
3, 216090, Note_on_c, 0, 63, 0
3, 216090, Note_on_c, 0, 64, 49
3, 216180, Note_on_c, 0, 64, 0
3, 216180, Note_on_c, 0, 60, 0
3, 216180, Note_on_c, 0, 54, 0
3, 216180, Note_on_c, 0, 44, 0
3, 216180, Note_on_c, 0, 66, 53
3, 216270, Note_on_c, 0, 66, 0
3, 216270, Note_on_c, 0, 68, 64
3, 216360, Note_on_c, 0, 68, 0
3, 216360, Note_on_c, 0, 68, 79
3, 216360, Note_on_c, 0, 45, 84
3, 216360, Note_on_c, 0, 57, 84
3, 216450, Note_on_c, 0, 68, 0
3, 216450, Note_on_c, 0, 69, 82
3, 216518, Note_on_c, 0, 57, 0
3, 216518, Note_on_c, 0, 45, 0
3, 216540, Note_on_c, 0, 69, 0
3, 216540, Note_on_c, 0, 66, 73
3, 216540, Note_on_c, 0, 45, 87
3, 216540, Note_on_c, 0, 57, 87
3, 216630, Note_on_c, 0, 66, 0
3, 216630, Note_on_c, 0, 64, 75
3, 216720, Note_on_c, 0, 64, 0
3, 216720, Note_on_c, 0, 66, 83
3, 216810, Note_on_c, 0, 66, 0
3, 216810, Note_on_c, 0, 69, 91
3, 216900, Note_on_c, 0, 69, 0
3, 216900, Note_on_c, 0, 68, 82
3, 216990, Note_on_c, 0, 68, 0
3, 216990, Note_on_c, 0, 69, 88
3, 217080, Note_on_c, 0, 69, 0
3, 217080, Note_on_c, 0, 57, 0
3, 217080, Note_on_c, 0, 45, 0
3, 217080, Note_on_c, 0, 66, 81
3, 217080, Note_on_c, 0, 44, 81
3, 217080, Note_on_c, 0, 56, 81
3, 217170, Note_on_c, 0, 66, 0
3, 217170, Note_on_c, 0, 64, 80
3, 217238, Note_on_c, 0, 56, 0
3, 217238, Note_on_c, 0, 44, 0
3, 217260, Note_on_c, 0, 64, 0
3, 217260, Note_on_c, 0, 66, 80
3, 217260, Note_on_c, 0, 44, 80
3, 217260, Note_on_c, 0, 56, 80
3, 217350, Note_on_c, 0, 66, 0
3, 217350, Note_on_c, 0, 69, 79
3, 217440, Note_on_c, 0, 69, 0
3, 217440, Note_on_c, 0, 68, 78
3, 217530, Note_on_c, 0, 68, 0
3, 217530, Note_on_c, 0, 69, 77
3, 217620, Note_on_c, 0, 69, 0
3, 217620, Note_on_c, 0, 66, 77
3, 217710, Note_on_c, 0, 66, 0
3, 217710, Note_on_c, 0, 64, 76
3, 217800, Note_on_c, 0, 64, 0
3, 217800, Note_on_c, 0, 56, 0
3, 217800, Note_on_c, 0, 44, 0
3, 217800, Note_on_c, 0, 66, 75
3, 217800, Note_on_c, 0, 45, 75
3, 217800, Note_on_c, 0, 57, 75
3, 217890, Note_on_c, 0, 66, 0
3, 217890, Note_on_c, 0, 69, 74
3, 217958, Note_on_c, 0, 57, 0
3, 217958, Note_on_c, 0, 45, 0
3, 217980, Note_on_c, 0, 69, 0
3, 217980, Note_on_c, 0, 68, 73
3, 217980, Note_on_c, 0, 45, 73
3, 217980, Note_on_c, 0, 57, 73
3, 218070, Note_on_c, 0, 68, 0
3, 218070, Note_on_c, 0, 69, 73
3, 218160, Note_on_c, 0, 69, 0
3, 218160, Note_on_c, 0, 66, 72
3, 218250, Note_on_c, 0, 66, 0
3, 218250, Note_on_c, 0, 65, 71
3, 218340, Note_on_c, 0, 65, 0
3, 218340, Note_on_c, 0, 66, 70
3, 218430, Note_on_c, 0, 66, 0
3, 218430, Note_on_c, 0, 68, 69
3, 218520, Note_on_c, 0, 68, 0
3, 218520, Note_on_c, 0, 57, 0
3, 218520, Note_on_c, 0, 45, 0
3, 218520, Note_on_c, 0, 69, 81
3, 218520, Note_on_c, 0, 42, 81
3, 218520, Note_on_c, 0, 54, 81
3, 218610, Note_on_c, 0, 69, 0
3, 218610, Note_on_c, 0, 68, 83
3, 218678, Note_on_c, 0, 54, 0
3, 218678, Note_on_c, 0, 42, 0
3, 218700, Note_on_c, 0, 68, 0
3, 218700, Note_on_c, 0, 69, 84
3, 218700, Note_on_c, 0, 42, 84
3, 218700, Note_on_c, 0, 54, 84
3, 218790, Note_on_c, 0, 69, 0
3, 218790, Note_on_c, 0, 66, 86
3, 218880, Note_on_c, 0, 66, 0
3, 218880, Note_on_c, 0, 69, 88
3, 218970, Note_on_c, 0, 69, 0
3, 218970, Note_on_c, 0, 68, 89
3, 219060, Note_on_c, 0, 68, 0
3, 219060, Note_on_c, 0, 69, 91
3, 219150, Note_on_c, 0, 69, 0
3, 219150, Note_on_c, 0, 66, 92
3, 219240, Note_on_c, 0, 66, 0
3, 219240, Note_on_c, 0, 54, 0
3, 219240, Note_on_c, 0, 42, 0
3, 219240, Note_on_c, 0, 69, 111
3, 219240, Note_on_c, 0, 41, 90
3, 219240, Note_on_c, 0, 53, 90
3, 219330, Note_on_c, 0, 69, 0
3, 219330, Note_on_c, 0, 68, 106
3, 219398, Note_on_c, 0, 53, 0
3, 219398, Note_on_c, 0, 41, 0
3, 219420, Note_on_c, 0, 68, 0
3, 219420, Note_on_c, 0, 69, 83
3, 219420, Note_on_c, 0, 41, 94
3, 219420, Note_on_c, 0, 53, 94
3, 219600, Note_on_c, 0, 69, 0
3, 219600, Note_on_c, 0, 63, 34
3, 219690, Note_on_c, 0, 63, 0
3, 219690, Note_on_c, 0, 60, 39
3, 219780, Note_on_c, 0, 60, 0
3, 219780, Note_on_c, 0, 60, 45
3, 219870, Note_on_c, 0, 60, 0
3, 219870, Note_on_c, 0, 60, 50
3, 219960, Note_on_c, 0, 60, 0
3, 219960, Note_on_c, 0, 53, 0
3, 219960, Note_on_c, 0, 41, 0
3, 219960, Note_on_c, 0, 63, 44
3, 219960, Note_on_c, 0, 42, 44
3, 219960, Note_on_c, 0, 54, 44
3, 220050, Note_on_c, 0, 63, 0
3, 220050, Note_on_c, 0, 64, 49
3, 220118, Note_on_c, 0, 54, 0
3, 220118, Note_on_c, 0, 42, 0
3, 220140, Note_on_c, 0, 64, 0
3, 220140, Note_on_c, 0, 66, 53
3, 220140, Note_on_c, 0, 42, 53
3, 220140, Note_on_c, 0, 54, 53
3, 220230, Note_on_c, 0, 66, 0
3, 220230, Note_on_c, 0, 68, 59
3, 220320, Note_on_c, 0, 68, 0
3, 220320, Note_on_c, 0, 69, 60
3, 220500, Note_on_c, 0, 69, 0
3, 220500, Note_on_c, 0, 54, 0
3, 220500, Note_on_c, 0, 42, 0
3, 220500, Note_on_c, 0, 54, 79
3, 220500, Note_on_c, 0, 42, 81
3, 220559, Note_on_c, 0, 42, 0
3, 220559, Note_on_c, 0, 54, 0
3, 220559, Note_on_c, 0, 56, 98
3, 220559, Note_on_c, 0, 44, 97
3, 220620, Note_on_c, 0, 44, 0
3, 220620, Note_on_c, 0, 56, 0
3, 220620, Note_on_c, 0, 57, 100
3, 220620, Note_on_c, 0, 45, 104
3, 220680, Note_on_c, 0, 45, 0
3, 220680, Note_on_c, 0, 57, 0
3, 220680, Note_on_c, 0, 56, 111
3, 220680, Note_on_c, 0, 44, 111
3, 221400, Note_on_c, 0, 44, 0
3, 221400, Note_on_c, 0, 56, 0
3, 221400, Note_on_c, 0, 57, 111
3, 221400, Note_on_c, 0, 37, 103
3, 221400, Note_on_c, 0, 49, 103
3, 221717, Note_on_c, 0, 57, 0
3, 221760, Note_on_c, 0, 58, 111
3, 222077, Note_on_c, 0, 58, 0
3, 222120, Note_on_c, 0, 59, 111
3, 222437, Note_on_c, 0, 59, 0
3, 222480, Note_on_c, 0, 60, 111
3, 222797, Note_on_c, 0, 60, 0
3, 222840, Note_on_c, 0, 61, 111
3, 223200, Note_on_c, 0, 61, 0
3, 223200, Note_on_c, 0, 61, 111
3, 223560, Note_on_c, 0, 61, 0
3, 223560, Note_on_c, 0, 49, 0
3, 223560, Note_on_c, 0, 37, 0
3, 223560, Note_on_c, 0, 49, 80
3, 223560, Note_on_c, 0, 37, 81
3, 224100, Note_on_c, 0, 37, 0
3, 224100, Note_on_c, 0, 49, 0
3, 224100, Note_on_c, 0, 52, 96
3, 224100, Note_on_c, 0, 40, 99
3, 224159, Note_on_c, 0, 40, 0
3, 224159, Note_on_c, 0, 52, 0
3, 224159, Note_on_c, 0, 54, 102
3, 224159, Note_on_c, 0, 42, 99
3, 224220, Note_on_c, 0, 42, 0
3, 224220, Note_on_c, 0, 54, 0
3, 224220, Note_on_c, 0, 55, 99
3, 224220, Note_on_c, 0, 43, 101
3, 224280, Note_on_c, 0, 43, 0
3, 224280, Note_on_c, 0, 55, 0
3, 224280, Note_on_c, 0, 54, 111
3, 224280, Note_on_c, 0, 42, 111
3, 225720, Note_on_c, 0, 42, 0
3, 225720, Note_on_c, 0, 54, 0
3, 225720, Note_on_c, 0, 35, 111
3, 225720, Note_on_c, 0, 47, 111
3, 226440, Note_on_c, 0, 59, 100
3, 226757, Note_on_c, 0, 59, 0
3, 226800, Note_on_c, 0, 54, 101
3, 227117, Note_on_c, 0, 54, 0
3, 227160, Note_on_c, 0, 47, 0
3, 227160, Note_on_c, 0, 35, 0
3, 227160, Note_on_c, 0, 55, 108
3, 227160, Note_on_c, 0, 35, 95
3, 227160, Note_on_c, 0, 47, 95
3, 227477, Note_on_c, 0, 55, 0
3, 227520, Note_on_c, 0, 56, 111
3, 227837, Note_on_c, 0, 56, 0
3, 227880, Note_on_c, 0, 57, 110
3, 228197, Note_on_c, 0, 57, 0
3, 228240, Note_on_c, 0, 58, 111
3, 228557, Note_on_c, 0, 58, 0
3, 228600, Note_on_c, 0, 59, 111
3, 228960, Note_on_c, 0, 59, 0
3, 228960, Note_on_c, 0, 59, 111
3, 229320, Note_on_c, 0, 59, 0
3, 229320, Note_on_c, 0, 47, 0
3, 229320, Note_on_c, 0, 35, 0
3, 229320, Note_on_c, 0, 47, 81
3, 229320, Note_on_c, 0, 35, 80
3, 229860, Note_on_c, 0, 35, 0
3, 229860, Note_on_c, 0, 47, 0
3, 229860, Note_on_c, 0, 50, 94
3, 229860, Note_on_c, 0, 38, 97
3, 229919, Note_on_c, 0, 38, 0
3, 229919, Note_on_c, 0, 50, 0
3, 229919, Note_on_c, 0, 52, 100
3, 229919, Note_on_c, 0, 40, 103
3, 229980, Note_on_c, 0, 40, 0
3, 229980, Note_on_c, 0, 52, 0
3, 229980, Note_on_c, 0, 53, 100
3, 229980, Note_on_c, 0, 41, 97
3, 230040, Note_on_c, 0, 41, 0
3, 230040, Note_on_c, 0, 53, 0
3, 230040, Note_on_c, 0, 52, 94
3, 230040, Note_on_c, 0, 40, 94
3, 231480, Note_on_c, 0, 40, 0
3, 231480, Note_on_c, 0, 52, 0
3, 231480, Note_on_c, 0, 33, 106
3, 231480, Note_on_c, 0, 45, 106
3, 232740, Note_on_c, 0, 45, 0
3, 232740, Note_on_c, 0, 33, 0
3, 232740, Note_on_c, 0, 46, 103
3, 232799, Note_on_c, 0, 46, 0
3, 232799, Note_on_c, 0, 47, 98
3, 232860, Note_on_c, 0, 47, 0
3, 232860, Note_on_c, 0, 48, 96
3, 232920, Note_on_c, 0, 48, 0
3, 232920, Note_on_c, 0, 35, 97
3, 232920, Note_on_c, 0, 47, 97
3, 233280, Note_on_c, 0, 56, 100
3, 233280, Note_on_c, 0, 68, 100
3, 233280, Note_on_c, 0, 62, 88
3, 233280, Note_on_c, 0, 65, 88
3, 233640, Note_on_c, 0, 68, 0
3, 233640, Note_on_c, 0, 56, 0
3, 233640, Note_on_c, 0, 55, 103
3, 233640, Note_on_c, 0, 67, 103
3, 234000, Note_on_c, 0, 67, 0
3, 234000, Note_on_c, 0, 55, 0
3, 234000, Note_on_c, 0, 56, 106
3, 234000, Note_on_c, 0, 68, 106
3, 234360, Note_on_c, 0, 68, 0
3, 234360, Note_on_c, 0, 65, 0
3, 234360, Note_on_c, 0, 62, 0
3, 234360, Note_on_c, 0, 35, 0
3, 234360, Note_on_c, 0, 56, 0
3, 234360, Note_on_c, 0, 47, 0
3, 234360, Note_on_c, 0, 62, 97
3, 234360, Note_on_c, 0, 65, 97
3, 234360, Note_on_c, 0, 28, 97
3, 234360, Note_on_c, 0, 40, 97
3, 234432, Note_on_c, 0, 65, 0
3, 234432, Note_on_c, 0, 62, 0
3, 234450, Note_on_c, 0, 56, 96
3, 234522, Note_on_c, 0, 56, 0
3, 234540, Note_on_c, 0, 62, 95
3, 234540, Note_on_c, 0, 65, 95
3, 234612, Note_on_c, 0, 65, 0
3, 234612, Note_on_c, 0, 62, 0
3, 234630, Note_on_c, 0, 56, 94
3, 234702, Note_on_c, 0, 56, 0
3, 234720, Note_on_c, 0, 62, 93
3, 234720, Note_on_c, 0, 65, 93
3, 234792, Note_on_c, 0, 65, 0
3, 234792, Note_on_c, 0, 62, 0
3, 234810, Note_on_c, 0, 56, 92
3, 234882, Note_on_c, 0, 56, 0
3, 234900, Note_on_c, 0, 62, 91
3, 234900, Note_on_c, 0, 65, 91
3, 234972, Note_on_c, 0, 65, 0
3, 234972, Note_on_c, 0, 62, 0
3, 234990, Note_on_c, 0, 56, 90
3, 235062, Note_on_c, 0, 56, 0
3, 235080, Note_on_c, 0, 62, 90
3, 235080, Note_on_c, 0, 65, 90
3, 235152, Note_on_c, 0, 65, 0
3, 235152, Note_on_c, 0, 62, 0
3, 235170, Note_on_c, 0, 56, 89
3, 235242, Note_on_c, 0, 56, 0
3, 235260, Note_on_c, 0, 62, 88
3, 235260, Note_on_c, 0, 65, 88
3, 235332, Note_on_c, 0, 65, 0
3, 235332, Note_on_c, 0, 62, 0
3, 235350, Note_on_c, 0, 56, 87
3, 235422, Note_on_c, 0, 56, 0
3, 235440, Note_on_c, 0, 62, 86
3, 235440, Note_on_c, 0, 65, 86
3, 235512, Note_on_c, 0, 65, 0
3, 235512, Note_on_c, 0, 62, 0
3, 235530, Note_on_c, 0, 56, 85
3, 235602, Note_on_c, 0, 56, 0
3, 235620, Note_on_c, 0, 28, 0
3, 235620, Note_on_c, 0, 40, 0
3, 235620, Note_on_c, 0, 62, 84
3, 235620, Note_on_c, 0, 65, 84
3, 235620, Note_on_c, 0, 46, 84
3, 235679, Note_on_c, 0, 46, 0
3, 235679, Note_on_c, 0, 47, 90
3, 235692, Note_on_c, 0, 65, 0
3, 235692, Note_on_c, 0, 62, 0
3, 235710, Note_on_c, 0, 56, 84
3, 235740, Note_on_c, 0, 47, 0
3, 235740, Note_on_c, 0, 48, 84
3, 235782, Note_on_c, 0, 56, 0
3, 235800, Note_on_c, 0, 48, 0
3, 235800, Note_on_c, 0, 55, 81
3, 235800, Note_on_c, 0, 35, 80
3, 235800, Note_on_c, 0, 47, 80
3, 236160, Note_on_c, 0, 55, 0
3, 236160, Note_on_c, 0, 56, 84
3, 236160, Note_on_c, 0, 68, 84
3, 236160, Note_on_c, 0, 62, 82
3, 236160, Note_on_c, 0, 65, 82
3, 236520, Note_on_c, 0, 68, 0
3, 236520, Note_on_c, 0, 56, 0
3, 236520, Note_on_c, 0, 55, 88
3, 236520, Note_on_c, 0, 67, 88
3, 236880, Note_on_c, 0, 67, 0
3, 236880, Note_on_c, 0, 55, 0
3, 236880, Note_on_c, 0, 56, 92
3, 236880, Note_on_c, 0, 68, 92
3, 237240, Note_on_c, 0, 68, 0
3, 237240, Note_on_c, 0, 65, 0
3, 237240, Note_on_c, 0, 62, 0
3, 237240, Note_on_c, 0, 35, 0
3, 237240, Note_on_c, 0, 56, 0
3, 237240, Note_on_c, 0, 47, 0
3, 237240, Note_on_c, 0, 62, 111
3, 237240, Note_on_c, 0, 65, 111
3, 237240, Note_on_c, 0, 28, 84
3, 237240, Note_on_c, 0, 40, 84
3, 237312, Note_on_c, 0, 65, 0
3, 237312, Note_on_c, 0, 62, 0
3, 237330, Note_on_c, 0, 56, 75
3, 237402, Note_on_c, 0, 56, 0
3, 237420, Note_on_c, 0, 62, 111
3, 237420, Note_on_c, 0, 65, 111
3, 237492, Note_on_c, 0, 65, 0
3, 237492, Note_on_c, 0, 62, 0
3, 237510, Note_on_c, 0, 56, 75
3, 237582, Note_on_c, 0, 56, 0
3, 237600, Note_on_c, 0, 62, 111
3, 237600, Note_on_c, 0, 65, 111
3, 237672, Note_on_c, 0, 65, 0
3, 237672, Note_on_c, 0, 62, 0
3, 237690, Note_on_c, 0, 56, 75
3, 237762, Note_on_c, 0, 56, 0
3, 237780, Note_on_c, 0, 62, 111
3, 237780, Note_on_c, 0, 65, 111
3, 237852, Note_on_c, 0, 65, 0
3, 237852, Note_on_c, 0, 62, 0
3, 237870, Note_on_c, 0, 56, 75
3, 237942, Note_on_c, 0, 56, 0
3, 237960, Note_on_c, 0, 62, 111
3, 237960, Note_on_c, 0, 65, 111
3, 238032, Note_on_c, 0, 65, 0
3, 238032, Note_on_c, 0, 62, 0
3, 238050, Note_on_c, 0, 56, 75
3, 238122, Note_on_c, 0, 56, 0
3, 238140, Note_on_c, 0, 62, 111
3, 238140, Note_on_c, 0, 65, 111
3, 238212, Note_on_c, 0, 65, 0
3, 238212, Note_on_c, 0, 62, 0
3, 238230, Note_on_c, 0, 56, 75
3, 238302, Note_on_c, 0, 56, 0
3, 238320, Note_on_c, 0, 62, 111
3, 238320, Note_on_c, 0, 65, 111
3, 238392, Note_on_c, 0, 65, 0
3, 238392, Note_on_c, 0, 62, 0
3, 238410, Note_on_c, 0, 56, 75
3, 238482, Note_on_c, 0, 56, 0
3, 238500, Note_on_c, 0, 28, 0
3, 238500, Note_on_c, 0, 40, 0
3, 238500, Note_on_c, 0, 62, 111
3, 238500, Note_on_c, 0, 65, 111
3, 238500, Note_on_c, 0, 46, 76
3, 238559, Note_on_c, 0, 46, 0
3, 238559, Note_on_c, 0, 47, 74
3, 238572, Note_on_c, 0, 65, 0
3, 238572, Note_on_c, 0, 62, 0
3, 238590, Note_on_c, 0, 56, 75
3, 238620, Note_on_c, 0, 47, 0
3, 238620, Note_on_c, 0, 48, 75
3, 238662, Note_on_c, 0, 56, 0
3, 238680, Note_on_c, 0, 48, 0
3, 238680, Note_on_c, 0, 35, 43
3, 238680, Note_on_c, 0, 47, 43
3, 239220, Note_on_c, 0, 47, 0
3, 239220, Note_on_c, 0, 35, 0
3, 239220, Note_on_c, 0, 40, 43
3, 239279, Note_on_c, 0, 40, 0
3, 239279, Note_on_c, 0, 41, 43
3, 239340, Note_on_c, 0, 41, 0
3, 239340, Note_on_c, 0, 42, 49
3, 239400, Note_on_c, 0, 42, 0
3, 239400, Note_on_c, 0, 50, 91
3, 239400, Note_on_c, 0, 56, 91
3, 239400, Note_on_c, 0, 29, 46
3, 239400, Note_on_c, 0, 41, 46
3, 240660, Note_on_c, 0, 41, 0
3, 240660, Note_on_c, 0, 29, 0
3, 240660, Note_on_c, 0, 40, 44
3, 240719, Note_on_c, 0, 40, 0
3, 240719, Note_on_c, 0, 41, 40
3, 240780, Note_on_c, 0, 41, 0
3, 240780, Note_on_c, 0, 42, 45
3, 240840, Note_on_c, 0, 42, 0
3, 240840, Note_on_c, 0, 56, 0
3, 240840, Note_on_c, 0, 50, 0
3, 240840, Note_on_c, 0, 50, 84
3, 240840, Note_on_c, 0, 57, 84
3, 240840, Note_on_c, 0, 30, 44
3, 240840, Note_on_c, 0, 42, 44
3, 241920, Note_on_c, 0, 42, 0
3, 241920, Note_on_c, 0, 50, 0
3, 241920, Note_on_c, 0, 57, 0
3, 241920, Note_on_c, 0, 30, 0
3, 241920, Note_on_c, 0, 50, 88
3, 241920, Note_on_c, 0, 58, 88
3, 241920, Note_on_c, 0, 31, 48
3, 241920, Note_on_c, 0, 43, 48
3, 242553, Note_on_c, 0, 43, 0
3, 242553, Note_on_c, 0, 50, 0
3, 242553, Note_on_c, 0, 58, 0
3, 242553, Note_on_c, 0, 31, 0
3, 242640, Note_on_c, 0, 50, 90
3, 242640, Note_on_c, 0, 59, 90
3, 242640, Note_on_c, 0, 32, 51
3, 242640, Note_on_c, 0, 44, 51
3, 243360, Note_on_c, 0, 44, 0
3, 243360, Note_on_c, 0, 50, 0
3, 243360, Note_on_c, 0, 59, 0
3, 243360, Note_on_c, 0, 32, 0
3, 243360, Note_on_c, 0, 50, 93
3, 243360, Note_on_c, 0, 60, 93
3, 243360, Note_on_c, 0, 33, 53
3, 243360, Note_on_c, 0, 45, 53
3, 243720, Note_on_c, 0, 45, 0
3, 243720, Note_on_c, 0, 50, 0
3, 243720, Note_on_c, 0, 60, 0
3, 243720, Note_on_c, 0, 33, 0
3, 243720, Note_on_c, 0, 50, 94
3, 243720, Note_on_c, 0, 61, 94
3, 243720, Note_on_c, 0, 34, 55
3, 243720, Note_on_c, 0, 46, 55
3, 244080, Note_on_c, 0, 46, 0
3, 244080, Note_on_c, 0, 50, 0
3, 244080, Note_on_c, 0, 61, 0
3, 244080, Note_on_c, 0, 34, 0
3, 244080, Note_on_c, 0, 50, 95
3, 244080, Note_on_c, 0, 62, 95
3, 244080, Note_on_c, 0, 35, 56
3, 244080, Note_on_c, 0, 47, 56
3, 244200, Note_on_c, 0, 47, 0
3, 244200, Note_on_c, 0, 50, 0
3, 244200, Note_on_c, 0, 62, 0
3, 244200, Note_on_c, 0, 35, 0
3, 244200, Note_on_c, 0, 50, 96
3, 244200, Note_on_c, 0, 62, 96
3, 244200, Note_on_c, 0, 35, 56
3, 244200, Note_on_c, 0, 47, 56
3, 244319, Note_on_c, 0, 47, 0
3, 244319, Note_on_c, 0, 50, 0
3, 244319, Note_on_c, 0, 62, 0
3, 244319, Note_on_c, 0, 35, 0
3, 244319, Note_on_c, 0, 50, 96
3, 244319, Note_on_c, 0, 62, 96
3, 244319, Note_on_c, 0, 35, 57
3, 244319, Note_on_c, 0, 47, 57
3, 244440, Note_on_c, 0, 47, 0
3, 244440, Note_on_c, 0, 50, 0
3, 244440, Note_on_c, 0, 62, 0
3, 244440, Note_on_c, 0, 35, 0
3, 244440, Note_on_c, 0, 50, 86
3, 244440, Note_on_c, 0, 54, 86
3, 244440, Note_on_c, 0, 59, 86
3, 244440, Note_on_c, 0, 62, 86
3, 244440, Note_on_c, 0, 35, 79
3, 244440, Note_on_c, 0, 42, 79
3, 244440, Note_on_c, 0, 47, 79
3, 245160, Note_on_c, 0, 47, 0
3, 245160, Note_on_c, 0, 35, 0
3, 245160, Note_on_c, 0, 54, 0
3, 245160, Note_on_c, 0, 59, 0
3, 245160, Note_on_c, 0, 50, 0
3, 245160, Note_on_c, 0, 42, 0
3, 245160, Note_on_c, 0, 62, 0
3, 245160, Note_on_c, 0, 50, 83
3, 245160, Note_on_c, 0, 54, 83
3, 245160, Note_on_c, 0, 59, 83
3, 245160, Note_on_c, 0, 62, 83
3, 245160, Note_on_c, 0, 35, 78
3, 245160, Note_on_c, 0, 42, 78
3, 245160, Note_on_c, 0, 47, 78
3, 245700, Note_on_c, 0, 47, 0
3, 245700, Note_on_c, 0, 35, 0
3, 245700, Note_on_c, 0, 54, 0
3, 245700, Note_on_c, 0, 59, 0
3, 245700, Note_on_c, 0, 50, 0
3, 245700, Note_on_c, 0, 42, 0
3, 245700, Note_on_c, 0, 62, 0
3, 245700, Note_on_c, 0, 50, 84
3, 245700, Note_on_c, 0, 54, 84
3, 245700, Note_on_c, 0, 59, 84
3, 245700, Note_on_c, 0, 62, 84
3, 245700, Note_on_c, 0, 35, 91
3, 245700, Note_on_c, 0, 42, 91
3, 245700, Note_on_c, 0, 47, 91
3, 245790, Note_on_c, 0, 47, 0
3, 245790, Note_on_c, 0, 35, 0
3, 245790, Note_on_c, 0, 54, 0
3, 245790, Note_on_c, 0, 59, 0
3, 245790, Note_on_c, 0, 50, 0
3, 245790, Note_on_c, 0, 42, 0
3, 245790, Note_on_c, 0, 62, 0
3, 245790, Note_on_c, 0, 50, 81
3, 245790, Note_on_c, 0, 54, 81
3, 245790, Note_on_c, 0, 59, 81
3, 245790, Note_on_c, 0, 62, 81
3, 245790, Note_on_c, 0, 35, 79
3, 245790, Note_on_c, 0, 42, 79
3, 245790, Note_on_c, 0, 47, 79
3, 245880, Note_on_c, 0, 47, 0
3, 245880, Note_on_c, 0, 35, 0
3, 245880, Note_on_c, 0, 54, 0
3, 245880, Note_on_c, 0, 59, 0
3, 245880, Note_on_c, 0, 50, 0
3, 245880, Note_on_c, 0, 42, 0
3, 245880, Note_on_c, 0, 62, 0
3, 245880, Note_on_c, 0, 50, 86
3, 245880, Note_on_c, 0, 54, 86
3, 245880, Note_on_c, 0, 59, 86
3, 245880, Note_on_c, 0, 62, 86
3, 245880, Note_on_c, 0, 35, 81
3, 245880, Note_on_c, 0, 42, 81
3, 245880, Note_on_c, 0, 47, 81
3, 246060, Note_on_c, 0, 47, 0
3, 246060, Note_on_c, 0, 35, 0
3, 246060, Note_on_c, 0, 54, 0
3, 246060, Note_on_c, 0, 59, 0
3, 246060, Note_on_c, 0, 50, 0
3, 246060, Note_on_c, 0, 42, 0
3, 246060, Note_on_c, 0, 62, 0
3, 246240, Note_on_c, 0, 50, 72
3, 246240, Note_on_c, 0, 54, 72
3, 246240, Note_on_c, 0, 59, 72
3, 246240, Note_on_c, 0, 62, 72
3, 246240, Note_on_c, 0, 35, 72
3, 246240, Note_on_c, 0, 42, 72
3, 246240, Note_on_c, 0, 47, 72
3, 246960, Note_on_c, 0, 47, 0
3, 246960, Note_on_c, 0, 35, 0
3, 246960, Note_on_c, 0, 54, 0
3, 246960, Note_on_c, 0, 59, 0
3, 246960, Note_on_c, 0, 50, 0
3, 246960, Note_on_c, 0, 42, 0
3, 246960, Note_on_c, 0, 62, 0
3, 246960, Note_on_c, 0, 50, 109
3, 246960, Note_on_c, 0, 54, 109
3, 246960, Note_on_c, 0, 59, 109
3, 246960, Note_on_c, 0, 62, 109
3, 246960, Note_on_c, 0, 35, 107
3, 246960, Note_on_c, 0, 42, 107
3, 246960, Note_on_c, 0, 47, 107
3, 247140, Note_on_c, 0, 47, 0
3, 247140, Note_on_c, 0, 35, 0
3, 247140, Note_on_c, 0, 54, 0
3, 247140, Note_on_c, 0, 59, 0
3, 247140, Note_on_c, 0, 50, 0
3, 247140, Note_on_c, 0, 42, 0
3, 247140, Note_on_c, 0, 62, 0
3, 247140, Note_on_c, 0, 50, 111
3, 247140, Note_on_c, 0, 54, 111
3, 247140, Note_on_c, 0, 59, 111
3, 247140, Note_on_c, 0, 62, 111
3, 247140, Note_on_c, 0, 35, 109
3, 247140, Note_on_c, 0, 42, 109
3, 247140, Note_on_c, 0, 47, 109
3, 247320, Note_on_c, 0, 47, 0
3, 247320, Note_on_c, 0, 35, 0
3, 247320, Note_on_c, 0, 54, 0
3, 247320, Note_on_c, 0, 59, 0
3, 247320, Note_on_c, 0, 50, 0
3, 247320, Note_on_c, 0, 42, 0
3, 247320, Note_on_c, 0, 62, 0
3, 247680, Note_on_c, 0, 50, 96
3, 247680, Note_on_c, 0, 54, 96
3, 247680, Note_on_c, 0, 59, 96
3, 247680, Note_on_c, 0, 62, 96
3, 247680, Note_on_c, 0, 35, 95
3, 247680, Note_on_c, 0, 42, 95
3, 247680, Note_on_c, 0, 47, 95
3, 247800, Note_on_c, 0, 47, 0
3, 247800, Note_on_c, 0, 35, 0
3, 247800, Note_on_c, 0, 54, 0
3, 247800, Note_on_c, 0, 59, 0
3, 247800, Note_on_c, 0, 50, 0
3, 247800, Note_on_c, 0, 42, 0
3, 247800, Note_on_c, 0, 62, 0
3, 247800, Note_on_c, 0, 50, 109
3, 247800, Note_on_c, 0, 54, 109
3, 247800, Note_on_c, 0, 59, 109
3, 247800, Note_on_c, 0, 62, 109
3, 247800, Note_on_c, 0, 35, 102
3, 247800, Note_on_c, 0, 42, 102
3, 247800, Note_on_c, 0, 47, 102
3, 247919, Note_on_c, 0, 47, 0
3, 247919, Note_on_c, 0, 35, 0
3, 247919, Note_on_c, 0, 54, 0
3, 247919, Note_on_c, 0, 59, 0
3, 247919, Note_on_c, 0, 50, 0
3, 247919, Note_on_c, 0, 42, 0
3, 247919, Note_on_c, 0, 62, 0
3, 247919, Note_on_c, 0, 50, 108
3, 247919, Note_on_c, 0, 54, 108
3, 247919, Note_on_c, 0, 59, 108
3, 247919, Note_on_c, 0, 62, 108
3, 247919, Note_on_c, 0, 35, 107
3, 247919, Note_on_c, 0, 42, 107
3, 247919, Note_on_c, 0, 47, 107
3, 248040, Note_on_c, 0, 47, 0
3, 248040, Note_on_c, 0, 35, 0
3, 248040, Note_on_c, 0, 54, 0
3, 248040, Note_on_c, 0, 59, 0
3, 248040, Note_on_c, 0, 50, 0
3, 248040, Note_on_c, 0, 42, 0
3, 248040, Note_on_c, 0, 62, 0
3, 248400, Note_on_c, 0, 50, 96
3, 248400, Note_on_c, 0, 54, 96
3, 248400, Note_on_c, 0, 59, 96
3, 248400, Note_on_c, 0, 62, 96
3, 248400, Note_on_c, 0, 35, 98
3, 248400, Note_on_c, 0, 42, 98
3, 248400, Note_on_c, 0, 47, 98
3, 248850, Note_on_c, 0, 47, 0
3, 248850, Note_on_c, 0, 35, 0
3, 248850, Note_on_c, 0, 54, 0
3, 248850, Note_on_c, 0, 59, 0
3, 248850, Note_on_c, 0, 50, 0
3, 248850, Note_on_c, 0, 42, 0
3, 248850, Note_on_c, 0, 62, 0
3, 248850, Note_on_c, 0, 50, 103
3, 248850, Note_on_c, 0, 54, 103
3, 248850, Note_on_c, 0, 59, 103
3, 248850, Note_on_c, 0, 62, 103
3, 248850, Note_on_c, 0, 35, 106
3, 248850, Note_on_c, 0, 42, 106
3, 248850, Note_on_c, 0, 47, 106
3, 248940, Note_on_c, 0, 47, 0
3, 248940, Note_on_c, 0, 35, 0
3, 248940, Note_on_c, 0, 54, 0
3, 248940, Note_on_c, 0, 59, 0
3, 248940, Note_on_c, 0, 50, 0
3, 248940, Note_on_c, 0, 42, 0
3, 248940, Note_on_c, 0, 62, 0
3, 248940, Note_on_c, 0, 50, 104
3, 248940, Note_on_c, 0, 54, 104
3, 248940, Note_on_c, 0, 59, 104
3, 248940, Note_on_c, 0, 62, 104
3, 248940, Note_on_c, 0, 35, 107
3, 248940, Note_on_c, 0, 42, 107
3, 248940, Note_on_c, 0, 47, 107
3, 249030, Note_on_c, 0, 47, 0
3, 249030, Note_on_c, 0, 35, 0
3, 249030, Note_on_c, 0, 54, 0
3, 249030, Note_on_c, 0, 59, 0
3, 249030, Note_on_c, 0, 50, 0
3, 249030, Note_on_c, 0, 42, 0
3, 249030, Note_on_c, 0, 62, 0
3, 249030, Note_on_c, 0, 50, 107
3, 249030, Note_on_c, 0, 54, 107
3, 249030, Note_on_c, 0, 59, 107
3, 249030, Note_on_c, 0, 62, 107
3, 249030, Note_on_c, 0, 35, 107
3, 249030, Note_on_c, 0, 42, 107
3, 249030, Note_on_c, 0, 47, 107
3, 249120, Note_on_c, 0, 47, 0
3, 249120, Note_on_c, 0, 35, 0
3, 249120, Note_on_c, 0, 54, 0
3, 249120, Note_on_c, 0, 59, 0
3, 249120, Note_on_c, 0, 50, 0
3, 249120, Note_on_c, 0, 42, 0
3, 249120, Note_on_c, 0, 62, 0
3, 249120, Note_on_c, 0, 50, 102
3, 249120, Note_on_c, 0, 54, 102
3, 249120, Note_on_c, 0, 59, 102
3, 249120, Note_on_c, 0, 62, 102
3, 249120, Note_on_c, 0, 35, 109
3, 249120, Note_on_c, 0, 42, 109
3, 249120, Note_on_c, 0, 47, 109
3, 249300, Note_on_c, 0, 47, 0
3, 249300, Note_on_c, 0, 35, 0
3, 249300, Note_on_c, 0, 54, 0
3, 249300, Note_on_c, 0, 59, 0
3, 249300, Note_on_c, 0, 50, 0
3, 249300, Note_on_c, 0, 42, 0
3, 249300, Note_on_c, 0, 62, 0
3, 249840, Note_on_c, 0, 54, 111
3, 249840, Note_on_c, 0, 59, 111
3, 249840, Note_on_c, 0, 62, 111
3, 249840, Note_on_c, 0, 35, 82
3, 250157, Note_on_c, 0, 35, 0
3, 250157, Note_on_c, 0, 54, 0
3, 250157, Note_on_c, 0, 59, 0
3, 250157, Note_on_c, 0, 62, 0
3, 250200, Note_on_c, 0, 53, 111
3, 250200, Note_on_c, 0, 59, 111
3, 250200, Note_on_c, 0, 61, 111
3, 250200, Note_on_c, 0, 37, 96
3, 251149, Note_on_c, 0, 37, 0
3, 251149, Note_on_c, 0, 53, 0
3, 251149, Note_on_c, 0, 59, 0
3, 251149, Note_on_c, 0, 61, 0
3, 251280, Note_on_c, 0, 54, 111
3, 251280, Note_on_c, 0, 59, 111
3, 251280, Note_on_c, 0, 62, 111
3, 251280, Note_on_c, 0, 35, 94
3, 251597, Note_on_c, 0, 35, 0
3, 251597, Note_on_c, 0, 54, 0
3, 251597, Note_on_c, 0, 59, 0
3, 251597, Note_on_c, 0, 62, 0
3, 251640, Note_on_c, 0, 55, 111
3, 251640, Note_on_c, 0, 59, 111
3, 251640, Note_on_c, 0, 40, 106
3, 251640, Note_on_c, 0, 47, 106
3, 252273, Note_on_c, 0, 47, 0
3, 252273, Note_on_c, 0, 55, 0
3, 252273, Note_on_c, 0, 59, 0
3, 252273, Note_on_c, 0, 40, 0
3, 252360, Note_on_c, 0, 52, 111
3, 252360, Note_on_c, 0, 57, 111
3, 252360, Note_on_c, 0, 45, 95
3, 252360, Note_on_c, 0, 49, 95
3, 252993, Note_on_c, 0, 49, 0
3, 252993, Note_on_c, 0, 52, 0
3, 252993, Note_on_c, 0, 57, 0
3, 252993, Note_on_c, 0, 45, 0
3, 253080, Note_on_c, 0, 55, 111
3, 253080, Note_on_c, 0, 59, 111
3, 253080, Note_on_c, 0, 40, 104
3, 253080, Note_on_c, 0, 47, 104
3, 255420, Note_on_c, 0, 47, 0
3, 255420, Note_on_c, 0, 55, 0
3, 255420, Note_on_c, 0, 59, 0
3, 255420, Note_on_c, 0, 40, 0
3, 255600, Note_on_c, 0, 54, 107
3, 255600, Note_on_c, 0, 59, 107
3, 255600, Note_on_c, 0, 62, 107
3, 255600, Note_on_c, 0, 35, 85
3, 255917, Note_on_c, 0, 35, 0
3, 255917, Note_on_c, 0, 54, 0
3, 255917, Note_on_c, 0, 59, 0
3, 255917, Note_on_c, 0, 62, 0
3, 255960, Note_on_c, 0, 53, 111
3, 255960, Note_on_c, 0, 59, 111
3, 255960, Note_on_c, 0, 61, 111
3, 255960, Note_on_c, 0, 37, 94
3, 256909, Note_on_c, 0, 37, 0
3, 256909, Note_on_c, 0, 53, 0
3, 256909, Note_on_c, 0, 59, 0
3, 256909, Note_on_c, 0, 61, 0
3, 257040, Note_on_c, 0, 54, 111
3, 257040, Note_on_c, 0, 59, 111
3, 257040, Note_on_c, 0, 62, 111
3, 257040, Note_on_c, 0, 35, 91
3, 257357, Note_on_c, 0, 35, 0
3, 257357, Note_on_c, 0, 54, 0
3, 257357, Note_on_c, 0, 59, 0
3, 257357, Note_on_c, 0, 62, 0
3, 257400, Note_on_c, 0, 55, 111
3, 257400, Note_on_c, 0, 59, 111
3, 257400, Note_on_c, 0, 40, 104
3, 257400, Note_on_c, 0, 47, 104
3, 258033, Note_on_c, 0, 47, 0
3, 258033, Note_on_c, 0, 55, 0
3, 258033, Note_on_c, 0, 59, 0
3, 258033, Note_on_c, 0, 40, 0
3, 258120, Note_on_c, 0, 52, 111
3, 258120, Note_on_c, 0, 57, 111
3, 258120, Note_on_c, 0, 45, 104
3, 258120, Note_on_c, 0, 49, 104
3, 258753, Note_on_c, 0, 49, 0
3, 258753, Note_on_c, 0, 52, 0
3, 258753, Note_on_c, 0, 57, 0
3, 258753, Note_on_c, 0, 45, 0
3, 258840, Note_on_c, 0, 55, 111
3, 258840, Note_on_c, 0, 59, 111
3, 258840, Note_on_c, 0, 43, 109
3, 258840, Note_on_c, 0, 50, 109
3, 261180, Note_on_c, 0, 50, 0
3, 261180, Note_on_c, 0, 55, 0
3, 261180, Note_on_c, 0, 59, 0
3, 261180, Note_on_c, 0, 43, 0
3, 261360, Note_on_c, 0, 59, 111
3, 261360, Note_on_c, 0, 64, 111
3, 261360, Note_on_c, 0, 67, 111
3, 261360, Note_on_c, 0, 40, 80
3, 261677, Note_on_c, 0, 40, 0
3, 261677, Note_on_c, 0, 59, 0
3, 261677, Note_on_c, 0, 64, 0
3, 261677, Note_on_c, 0, 67, 0
3, 261720, Note_on_c, 0, 58, 111
3, 261720, Note_on_c, 0, 64, 111
3, 261720, Note_on_c, 0, 66, 111
3, 261720, Note_on_c, 0, 42, 93
3, 262669, Note_on_c, 0, 42, 0
3, 262669, Note_on_c, 0, 58, 0
3, 262669, Note_on_c, 0, 64, 0
3, 262669, Note_on_c, 0, 66, 0
3, 262800, Note_on_c, 0, 59, 111
3, 262800, Note_on_c, 0, 64, 111
3, 262800, Note_on_c, 0, 67, 111
3, 262800, Note_on_c, 0, 40, 91
3, 263117, Note_on_c, 0, 40, 0
3, 263117, Note_on_c, 0, 59, 0
3, 263117, Note_on_c, 0, 64, 0
3, 263117, Note_on_c, 0, 67, 0
3, 263160, Note_on_c, 0, 60, 111
3, 263160, Note_on_c, 0, 64, 111
3, 263160, Note_on_c, 0, 45, 104
3, 263160, Note_on_c, 0, 52, 104
3, 263793, Note_on_c, 0, 52, 0
3, 263793, Note_on_c, 0, 60, 0
3, 263793, Note_on_c, 0, 64, 0
3, 263793, Note_on_c, 0, 45, 0
3, 263880, Note_on_c, 0, 57, 111
3, 263880, Note_on_c, 0, 62, 111
3, 263880, Note_on_c, 0, 50, 97
3, 263880, Note_on_c, 0, 54, 97
3, 264513, Note_on_c, 0, 54, 0
3, 264513, Note_on_c, 0, 57, 0
3, 264513, Note_on_c, 0, 62, 0
3, 264513, Note_on_c, 0, 50, 0
3, 264600, Note_on_c, 0, 60, 111
3, 264600, Note_on_c, 0, 64, 111
3, 264600, Note_on_c, 0, 45, 105
3, 264600, Note_on_c, 0, 52, 105
3, 266940, Note_on_c, 0, 52, 0
3, 266940, Note_on_c, 0, 60, 0
3, 266940, Note_on_c, 0, 64, 0
3, 266940, Note_on_c, 0, 45, 0
3, 267120, Note_on_c, 0, 59, 111
3, 267120, Note_on_c, 0, 64, 111
3, 267120, Note_on_c, 0, 67, 111
3, 267120, Note_on_c, 0, 40, 81
3, 267437, Note_on_c, 0, 40, 0
3, 267437, Note_on_c, 0, 59, 0
3, 267437, Note_on_c, 0, 64, 0
3, 267437, Note_on_c, 0, 67, 0
3, 267480, Note_on_c, 0, 58, 111
3, 267480, Note_on_c, 0, 64, 111
3, 267480, Note_on_c, 0, 66, 111
3, 267480, Note_on_c, 0, 42, 95
3, 268429, Note_on_c, 0, 42, 0
3, 268429, Note_on_c, 0, 58, 0
3, 268429, Note_on_c, 0, 64, 0
3, 268429, Note_on_c, 0, 66, 0
3, 268560, Note_on_c, 0, 59, 111
3, 268560, Note_on_c, 0, 64, 111
3, 268560, Note_on_c, 0, 67, 111
3, 268560, Note_on_c, 0, 40, 90
3, 268877, Note_on_c, 0, 40, 0
3, 268877, Note_on_c, 0, 59, 0
3, 268877, Note_on_c, 0, 64, 0
3, 268877, Note_on_c, 0, 67, 0
3, 268920, Note_on_c, 0, 60, 111
3, 268920, Note_on_c, 0, 64, 111
3, 268920, Note_on_c, 0, 45, 104
3, 268920, Note_on_c, 0, 52, 104
3, 269553, Note_on_c, 0, 52, 0
3, 269553, Note_on_c, 0, 60, 0
3, 269553, Note_on_c, 0, 64, 0
3, 269553, Note_on_c, 0, 45, 0
3, 269640, Note_on_c, 0, 54, 111
3, 269640, Note_on_c, 0, 57, 111
3, 269640, Note_on_c, 0, 62, 111
3, 269640, Note_on_c, 0, 38, 82
3, 270273, Note_on_c, 0, 38, 0
3, 270273, Note_on_c, 0, 54, 0
3, 270273, Note_on_c, 0, 57, 0
3, 270273, Note_on_c, 0, 62, 0
3, 270360, Note_on_c, 0, 55, 111
3, 270360, Note_on_c, 0, 60, 111
3, 270360, Note_on_c, 0, 64, 111
3, 270360, Note_on_c, 0, 36, 99
3, 272700, Note_on_c, 0, 36, 0
3, 272700, Note_on_c, 0, 55, 0
3, 272700, Note_on_c, 0, 60, 0
3, 272700, Note_on_c, 0, 64, 0
3, 272880, Note_on_c, 0, 55, 108
3, 272880, Note_on_c, 0, 59, 108
3, 272880, Note_on_c, 0, 43, 85
3, 272880, Note_on_c, 0, 50, 85
3, 273197, Note_on_c, 0, 50, 0
3, 273197, Note_on_c, 0, 55, 0
3, 273197, Note_on_c, 0, 59, 0
3, 273197, Note_on_c, 0, 43, 0
3, 273240, Note_on_c, 0, 54, 111
3, 273240, Note_on_c, 0, 57, 111
3, 273240, Note_on_c, 0, 38, 94
3, 273240, Note_on_c, 0, 50, 94
3, 273557, Note_on_c, 0, 50, 0
3, 273557, Note_on_c, 0, 54, 0
3, 273557, Note_on_c, 0, 57, 0
3, 273557, Note_on_c, 0, 38, 0
3, 273600, Note_on_c, 0, 55, 111
3, 273600, Note_on_c, 0, 59, 111
3, 273600, Note_on_c, 0, 43, 91
3, 273600, Note_on_c, 0, 50, 91
3, 273917, Note_on_c, 0, 50, 0
3, 273917, Note_on_c, 0, 55, 0
3, 273917, Note_on_c, 0, 59, 0
3, 273917, Note_on_c, 0, 43, 0
3, 273960, Note_on_c, 0, 52, 111
3, 273960, Note_on_c, 0, 55, 111
3, 273960, Note_on_c, 0, 40, 94
3, 273960, Note_on_c, 0, 47, 94
3, 274277, Note_on_c, 0, 47, 0
3, 274277, Note_on_c, 0, 52, 0
3, 274277, Note_on_c, 0, 55, 0
3, 274277, Note_on_c, 0, 40, 0
3, 274320, Note_on_c, 0, 51, 111
3, 274320, Note_on_c, 0, 54, 111
3, 274320, Note_on_c, 0, 35, 89
3, 274320, Note_on_c, 0, 47, 89
3, 274637, Note_on_c, 0, 47, 0
3, 274637, Note_on_c, 0, 51, 0
3, 274637, Note_on_c, 0, 54, 0
3, 274637, Note_on_c, 0, 35, 0
3, 274680, Note_on_c, 0, 51, 111
3, 274680, Note_on_c, 0, 55, 111
3, 274680, Note_on_c, 0, 39, 104
3, 274680, Note_on_c, 0, 46, 104
3, 275760, Note_on_c, 0, 46, 0
3, 275760, Note_on_c, 0, 51, 0
3, 275760, Note_on_c, 0, 55, 0
3, 275760, Note_on_c, 0, 39, 0
3, 275760, Note_on_c, 0, 51, 111
3, 275760, Note_on_c, 0, 55, 111
3, 275760, Note_on_c, 0, 39, 108
3, 275760, Note_on_c, 0, 46, 108
3, 275880, Note_on_c, 0, 46, 0
3, 275880, Note_on_c, 0, 51, 0
3, 275880, Note_on_c, 0, 55, 0
3, 275880, Note_on_c, 0, 39, 0
3, 275880, Note_on_c, 0, 51, 111
3, 275880, Note_on_c, 0, 55, 111
3, 275880, Note_on_c, 0, 39, 109
3, 275880, Note_on_c, 0, 46, 109
3, 275999, Note_on_c, 0, 46, 0
3, 275999, Note_on_c, 0, 51, 0
3, 275999, Note_on_c, 0, 55, 0
3, 275999, Note_on_c, 0, 39, 0
3, 275999, Note_on_c, 0, 51, 111
3, 275999, Note_on_c, 0, 55, 111
3, 275999, Note_on_c, 0, 39, 107
3, 275999, Note_on_c, 0, 46, 107
3, 276120, Note_on_c, 0, 46, 0
3, 276120, Note_on_c, 0, 51, 0
3, 276120, Note_on_c, 0, 55, 0
3, 276120, Note_on_c, 0, 39, 0
3, 276120, Note_on_c, 0, 51, 111
3, 276120, Note_on_c, 0, 55, 111
3, 276120, Note_on_c, 0, 39, 108
3, 276120, Note_on_c, 0, 46, 108
3, 277200, Note_on_c, 0, 46, 0
3, 277200, Note_on_c, 0, 51, 0
3, 277200, Note_on_c, 0, 55, 0
3, 277200, Note_on_c, 0, 39, 0
3, 277200, Note_on_c, 0, 58, 111
3, 277200, Note_on_c, 0, 62, 111
3, 277200, Note_on_c, 0, 46, 104
3, 277200, Note_on_c, 0, 53, 104
3, 277517, Note_on_c, 0, 53, 0
3, 277517, Note_on_c, 0, 58, 0
3, 277517, Note_on_c, 0, 62, 0
3, 277517, Note_on_c, 0, 46, 0
3, 277560, Note_on_c, 0, 57, 111
3, 277560, Note_on_c, 0, 60, 111
3, 277560, Note_on_c, 0, 41, 94
3, 277560, Note_on_c, 0, 53, 94
3, 277877, Note_on_c, 0, 53, 0
3, 277877, Note_on_c, 0, 57, 0
3, 277877, Note_on_c, 0, 60, 0
3, 277877, Note_on_c, 0, 41, 0
3, 277920, Note_on_c, 0, 58, 111
3, 277920, Note_on_c, 0, 62, 111
3, 277920, Note_on_c, 0, 46, 88
3, 277920, Note_on_c, 0, 53, 88
3, 278237, Note_on_c, 0, 53, 0
3, 278237, Note_on_c, 0, 58, 0
3, 278237, Note_on_c, 0, 62, 0
3, 278237, Note_on_c, 0, 46, 0
3, 278280, Note_on_c, 0, 55, 111
3, 278280, Note_on_c, 0, 58, 111
3, 278280, Note_on_c, 0, 43, 91
3, 278280, Note_on_c, 0, 50, 91
3, 278597, Note_on_c, 0, 50, 0
3, 278597, Note_on_c, 0, 55, 0
3, 278597, Note_on_c, 0, 58, 0
3, 278597, Note_on_c, 0, 43, 0
3, 278640, Note_on_c, 0, 54, 111
3, 278640, Note_on_c, 0, 57, 111
3, 278640, Note_on_c, 0, 38, 93
3, 278640, Note_on_c, 0, 50, 93
3, 278957, Note_on_c, 0, 50, 0
3, 278957, Note_on_c, 0, 54, 0
3, 278957, Note_on_c, 0, 57, 0
3, 278957, Note_on_c, 0, 38, 0
3, 279000, Note_on_c, 0, 54, 111
3, 279000, Note_on_c, 0, 58, 111
3, 279000, Note_on_c, 0, 42, 106
3, 279000, Note_on_c, 0, 49, 106
3, 280080, Note_on_c, 0, 49, 0
3, 280080, Note_on_c, 0, 54, 0
3, 280080, Note_on_c, 0, 58, 0
3, 280080, Note_on_c, 0, 42, 0
3, 280080, Note_on_c, 0, 54, 111
3, 280080, Note_on_c, 0, 58, 111
3, 280080, Note_on_c, 0, 42, 100
3, 280080, Note_on_c, 0, 49, 100
3, 280200, Note_on_c, 0, 49, 0
3, 280200, Note_on_c, 0, 54, 0
3, 280200, Note_on_c, 0, 58, 0
3, 280200, Note_on_c, 0, 42, 0
3, 280200, Note_on_c, 0, 54, 111
3, 280200, Note_on_c, 0, 58, 111
3, 280200, Note_on_c, 0, 42, 109
3, 280200, Note_on_c, 0, 49, 109
3, 280319, Note_on_c, 0, 49, 0
3, 280319, Note_on_c, 0, 54, 0
3, 280319, Note_on_c, 0, 58, 0
3, 280319, Note_on_c, 0, 42, 0
3, 280319, Note_on_c, 0, 54, 111
3, 280319, Note_on_c, 0, 58, 111
3, 280319, Note_on_c, 0, 42, 106
3, 280319, Note_on_c, 0, 49, 106
3, 280440, Note_on_c, 0, 49, 0
3, 280440, Note_on_c, 0, 54, 0
3, 280440, Note_on_c, 0, 58, 0
3, 280440, Note_on_c, 0, 42, 0
3, 280440, Note_on_c, 0, 54, 111
3, 280440, Note_on_c, 0, 58, 111
3, 280440, Note_on_c, 0, 42, 109
3, 280440, Note_on_c, 0, 49, 109
3, 281340, Note_on_c, 0, 49, 0
3, 281340, Note_on_c, 0, 54, 0
3, 281340, Note_on_c, 0, 58, 0
3, 281340, Note_on_c, 0, 42, 0
3, 281520, Note_on_c, 0, 61, 109
3, 281520, Note_on_c, 0, 65, 109
3, 281520, Note_on_c, 0, 49, 85
3, 281520, Note_on_c, 0, 56, 85
3, 281837, Note_on_c, 0, 56, 0
3, 281837, Note_on_c, 0, 61, 0
3, 281837, Note_on_c, 0, 65, 0
3, 281837, Note_on_c, 0, 49, 0
3, 281880, Note_on_c, 0, 60, 111
3, 281880, Note_on_c, 0, 63, 111
3, 281880, Note_on_c, 0, 44, 88
3, 281880, Note_on_c, 0, 56, 88
3, 282197, Note_on_c, 0, 56, 0
3, 282197, Note_on_c, 0, 60, 0
3, 282197, Note_on_c, 0, 63, 0
3, 282197, Note_on_c, 0, 44, 0
3, 282240, Note_on_c, 0, 61, 111
3, 282240, Note_on_c, 0, 65, 111
3, 282240, Note_on_c, 0, 49, 91
3, 282240, Note_on_c, 0, 56, 91
3, 282557, Note_on_c, 0, 56, 0
3, 282557, Note_on_c, 0, 61, 0
3, 282557, Note_on_c, 0, 65, 0
3, 282557, Note_on_c, 0, 49, 0
3, 282600, Note_on_c, 0, 58, 110
3, 282600, Note_on_c, 0, 61, 110
3, 282600, Note_on_c, 0, 46, 91
3, 282600, Note_on_c, 0, 53, 91
3, 282917, Note_on_c, 0, 53, 0
3, 282917, Note_on_c, 0, 58, 0
3, 282917, Note_on_c, 0, 61, 0
3, 282917, Note_on_c, 0, 46, 0
3, 282960, Note_on_c, 0, 57, 111
3, 282960, Note_on_c, 0, 60, 111
3, 282960, Note_on_c, 0, 41, 90
3, 282960, Note_on_c, 0, 53, 90
3, 283277, Note_on_c, 0, 53, 0
3, 283277, Note_on_c, 0, 57, 0
3, 283277, Note_on_c, 0, 60, 0
3, 283277, Note_on_c, 0, 41, 0
3, 283320, Note_on_c, 0, 53, 111
3, 283320, Note_on_c, 0, 58, 111
3, 283320, Note_on_c, 0, 61, 111
3, 283320, Note_on_c, 0, 34, 99
3, 283320, Note_on_c, 0, 46, 99
3, 284220, Note_on_c, 0, 46, 0
3, 284220, Note_on_c, 0, 61, 0
3, 284220, Note_on_c, 0, 53, 0
3, 284220, Note_on_c, 0, 58, 0
3, 284220, Note_on_c, 0, 34, 0
3, 284400, Note_on_c, 0, 61, 111
3, 284400, Note_on_c, 0, 65, 111
3, 284400, Note_on_c, 0, 49, 82
3, 284400, Note_on_c, 0, 56, 82
3, 284717, Note_on_c, 0, 56, 0
3, 284717, Note_on_c, 0, 61, 0
3, 284717, Note_on_c, 0, 65, 0
3, 284717, Note_on_c, 0, 49, 0
3, 284760, Note_on_c, 0, 60, 110
3, 284760, Note_on_c, 0, 63, 110
3, 284760, Note_on_c, 0, 44, 92
3, 284760, Note_on_c, 0, 56, 92
3, 285077, Note_on_c, 0, 56, 0
3, 285077, Note_on_c, 0, 60, 0
3, 285077, Note_on_c, 0, 63, 0
3, 285077, Note_on_c, 0, 44, 0
3, 285120, Note_on_c, 0, 61, 111
3, 285120, Note_on_c, 0, 65, 111
3, 285120, Note_on_c, 0, 49, 92
3, 285120, Note_on_c, 0, 56, 92
3, 285437, Note_on_c, 0, 56, 0
3, 285437, Note_on_c, 0, 61, 0
3, 285437, Note_on_c, 0, 65, 0
3, 285437, Note_on_c, 0, 49, 0
3, 285480, Note_on_c, 0, 58, 109
3, 285480, Note_on_c, 0, 61, 109
3, 285480, Note_on_c, 0, 46, 87
3, 285480, Note_on_c, 0, 53, 87
3, 285797, Note_on_c, 0, 53, 0
3, 285797, Note_on_c, 0, 58, 0
3, 285797, Note_on_c, 0, 61, 0
3, 285797, Note_on_c, 0, 46, 0
3, 285840, Note_on_c, 0, 57, 111
3, 285840, Note_on_c, 0, 60, 111
3, 285840, Note_on_c, 0, 41, 95
3, 285840, Note_on_c, 0, 53, 95
3, 286157, Note_on_c, 0, 53, 0
3, 286157, Note_on_c, 0, 57, 0
3, 286157, Note_on_c, 0, 60, 0
3, 286157, Note_on_c, 0, 41, 0
3, 286200, Note_on_c, 0, 52, 111
3, 286200, Note_on_c, 0, 57, 111
3, 286200, Note_on_c, 0, 61, 111
3, 286200, Note_on_c, 0, 33, 94
3, 286200, Note_on_c, 0, 45, 94
3, 287280, Note_on_c, 0, 45, 0
3, 287280, Note_on_c, 0, 61, 0
3, 287280, Note_on_c, 0, 52, 0
3, 287280, Note_on_c, 0, 57, 0
3, 287280, Note_on_c, 0, 33, 0
3, 287280, Note_on_c, 0, 52, 111
3, 287280, Note_on_c, 0, 57, 111
3, 287280, Note_on_c, 0, 61, 111
3, 287280, Note_on_c, 0, 33, 103
3, 287280, Note_on_c, 0, 45, 103
3, 287400, Note_on_c, 0, 45, 0
3, 287400, Note_on_c, 0, 61, 0
3, 287400, Note_on_c, 0, 52, 0
3, 287400, Note_on_c, 0, 57, 0
3, 287400, Note_on_c, 0, 33, 0
3, 287400, Note_on_c, 0, 52, 111
3, 287400, Note_on_c, 0, 57, 111
3, 287400, Note_on_c, 0, 61, 111
3, 287400, Note_on_c, 0, 33, 106
3, 287400, Note_on_c, 0, 45, 106
3, 287519, Note_on_c, 0, 45, 0
3, 287519, Note_on_c, 0, 61, 0
3, 287519, Note_on_c, 0, 52, 0
3, 287519, Note_on_c, 0, 57, 0
3, 287519, Note_on_c, 0, 33, 0
3, 287519, Note_on_c, 0, 52, 111
3, 287519, Note_on_c, 0, 57, 111
3, 287519, Note_on_c, 0, 61, 111
3, 287519, Note_on_c, 0, 33, 103
3, 287519, Note_on_c, 0, 45, 103
3, 287640, Note_on_c, 0, 45, 0
3, 287640, Note_on_c, 0, 61, 0
3, 287640, Note_on_c, 0, 52, 0
3, 287640, Note_on_c, 0, 57, 0
3, 287640, Note_on_c, 0, 33, 0
3, 287640, Note_on_c, 0, 52, 111
3, 287640, Note_on_c, 0, 57, 111
3, 287640, Note_on_c, 0, 61, 111
3, 287640, Note_on_c, 0, 33, 104
3, 287640, Note_on_c, 0, 45, 104
3, 288360, Note_on_c, 0, 45, 0
3, 288360, Note_on_c, 0, 61, 0
3, 288360, Note_on_c, 0, 52, 0
3, 288360, Note_on_c, 0, 57, 0
3, 288360, Note_on_c, 0, 33, 0
3, 288360, Note_on_c, 0, 52, 111
3, 288360, Note_on_c, 0, 57, 111
3, 288360, Note_on_c, 0, 61, 111
3, 288360, Note_on_c, 0, 33, 105
3, 288360, Note_on_c, 0, 45, 105
3, 289080, Note_on_c, 0, 45, 0
3, 289080, Note_on_c, 0, 61, 0
3, 289080, Note_on_c, 0, 52, 0
3, 289080, Note_on_c, 0, 57, 0
3, 289080, Note_on_c, 0, 33, 0
3, 289080, Note_on_c, 0, 57, 111
3, 289080, Note_on_c, 0, 33, 72
3, 289152, Note_on_c, 0, 33, 0
3, 289170, Note_on_c, 0, 45, 92
3, 289242, Note_on_c, 0, 45, 0
3, 289260, Note_on_c, 0, 33, 72
3, 289332, Note_on_c, 0, 33, 0
3, 289350, Note_on_c, 0, 45, 92
3, 289422, Note_on_c, 0, 45, 0
3, 289440, Note_on_c, 0, 33, 72
3, 289512, Note_on_c, 0, 33, 0
3, 289530, Note_on_c, 0, 45, 92
3, 289602, Note_on_c, 0, 45, 0
3, 289620, Note_on_c, 0, 33, 72
3, 289692, Note_on_c, 0, 33, 0
3, 289710, Note_on_c, 0, 45, 92
3, 289782, Note_on_c, 0, 45, 0
3, 289800, Note_on_c, 0, 57, 0
3, 289800, Note_on_c, 0, 35, 105
3, 289800, Note_on_c, 0, 33, 72
3, 289872, Note_on_c, 0, 33, 0
3, 289890, Note_on_c, 0, 45, 92
3, 289962, Note_on_c, 0, 45, 0
3, 289980, Note_on_c, 0, 33, 72
3, 290052, Note_on_c, 0, 33, 0
3, 290070, Note_on_c, 0, 45, 92
3, 290142, Note_on_c, 0, 45, 0
3, 290160, Note_on_c, 0, 33, 72
3, 290232, Note_on_c, 0, 33, 0
3, 290250, Note_on_c, 0, 45, 92
3, 290322, Note_on_c, 0, 45, 0
3, 290340, Note_on_c, 0, 33, 72
3, 290412, Note_on_c, 0, 33, 0
3, 290430, Note_on_c, 0, 45, 92
3, 290502, Note_on_c, 0, 45, 0
3, 290520, Note_on_c, 0, 35, 0
3, 290520, Note_on_c, 0, 37, 111
3, 290520, Note_on_c, 0, 33, 71
3, 290592, Note_on_c, 0, 33, 0
3, 290610, Note_on_c, 0, 45, 91
3, 290682, Note_on_c, 0, 45, 0
3, 290700, Note_on_c, 0, 33, 71
3, 290772, Note_on_c, 0, 33, 0
3, 290790, Note_on_c, 0, 45, 91
3, 290862, Note_on_c, 0, 45, 0
3, 290880, Note_on_c, 0, 33, 71
3, 290952, Note_on_c, 0, 33, 0
3, 290970, Note_on_c, 0, 45, 91
3, 291042, Note_on_c, 0, 45, 0
3, 291060, Note_on_c, 0, 33, 71
3, 291132, Note_on_c, 0, 33, 0
3, 291150, Note_on_c, 0, 45, 91
3, 291222, Note_on_c, 0, 45, 0
3, 291240, Note_on_c, 0, 37, 0
3, 291240, Note_on_c, 0, 39, 111
3, 291240, Note_on_c, 0, 33, 71
3, 291312, Note_on_c, 0, 33, 0
3, 291330, Note_on_c, 0, 45, 91
3, 291402, Note_on_c, 0, 45, 0
3, 291420, Note_on_c, 0, 33, 71
3, 291492, Note_on_c, 0, 33, 0
3, 291510, Note_on_c, 0, 45, 91
3, 291582, Note_on_c, 0, 45, 0
3, 291600, Note_on_c, 0, 33, 71
3, 291672, Note_on_c, 0, 33, 0
3, 291690, Note_on_c, 0, 45, 91
3, 291762, Note_on_c, 0, 45, 0
3, 291780, Note_on_c, 0, 33, 71
3, 291852, Note_on_c, 0, 33, 0
3, 291870, Note_on_c, 0, 45, 91
3, 291942, Note_on_c, 0, 45, 0
3, 291960, Note_on_c, 0, 39, 0
3, 291960, Note_on_c, 0, 41, 111
3, 291960, Note_on_c, 0, 33, 72
3, 292032, Note_on_c, 0, 33, 0
3, 292050, Note_on_c, 0, 45, 93
3, 292122, Note_on_c, 0, 45, 0
3, 292140, Note_on_c, 0, 33, 72
3, 292212, Note_on_c, 0, 33, 0
3, 292230, Note_on_c, 0, 45, 93
3, 292302, Note_on_c, 0, 45, 0
3, 292320, Note_on_c, 0, 33, 72
3, 292392, Note_on_c, 0, 33, 0
3, 292410, Note_on_c, 0, 45, 93
3, 292482, Note_on_c, 0, 45, 0
3, 292500, Note_on_c, 0, 33, 72
3, 292572, Note_on_c, 0, 33, 0
3, 292590, Note_on_c, 0, 45, 93
3, 292662, Note_on_c, 0, 45, 0
3, 292680, Note_on_c, 0, 41, 0
3, 292680, Note_on_c, 0, 43, 111
3, 292680, Note_on_c, 0, 33, 72
3, 292752, Note_on_c, 0, 33, 0
3, 292770, Note_on_c, 0, 45, 93
3, 292842, Note_on_c, 0, 45, 0
3, 292860, Note_on_c, 0, 33, 72
3, 292932, Note_on_c, 0, 33, 0
3, 292950, Note_on_c, 0, 45, 93
3, 293022, Note_on_c, 0, 45, 0
3, 293040, Note_on_c, 0, 33, 72
3, 293112, Note_on_c, 0, 33, 0
3, 293130, Note_on_c, 0, 45, 93
3, 293202, Note_on_c, 0, 45, 0
3, 293220, Note_on_c, 0, 33, 72
3, 293292, Note_on_c, 0, 33, 0
3, 293310, Note_on_c, 0, 45, 93
3, 293382, Note_on_c, 0, 45, 0
3, 293400, Note_on_c, 0, 43, 0
3, 293400, Note_on_c, 0, 45, 111
3, 293400, Note_on_c, 0, 33, 69
3, 293472, Note_on_c, 0, 33, 0
3, 293490, Note_on_c, 0, 45, 92
3, 293562, Note_on_c, 0, 45, 0
3, 293580, Note_on_c, 0, 33, 69
3, 293652, Note_on_c, 0, 33, 0
3, 293670, Note_on_c, 0, 45, 92
3, 293742, Note_on_c, 0, 45, 0
3, 293760, Note_on_c, 0, 45, 0
3, 293760, Note_on_c, 0, 45, 111
3, 293760, Note_on_c, 0, 33, 69
3, 293832, Note_on_c, 0, 33, 0
3, 293850, Note_on_c, 0, 45, 92
3, 293922, Note_on_c, 0, 45, 0
3, 293940, Note_on_c, 0, 33, 69
3, 294012, Note_on_c, 0, 33, 0
3, 294030, Note_on_c, 0, 45, 92
3, 294102, Note_on_c, 0, 45, 0
3, 294120, Note_on_c, 0, 45, 0
3, 294120, Note_on_c, 0, 47, 111
3, 294120, Note_on_c, 0, 33, 69
3, 294192, Note_on_c, 0, 33, 0
3, 294210, Note_on_c, 0, 45, 92
3, 294282, Note_on_c, 0, 45, 0
3, 294300, Note_on_c, 0, 33, 69
3, 294372, Note_on_c, 0, 33, 0
3, 294390, Note_on_c, 0, 45, 92
3, 294462, Note_on_c, 0, 45, 0
3, 294480, Note_on_c, 0, 47, 0
3, 294480, Note_on_c, 0, 45, 111
3, 294480, Note_on_c, 0, 33, 69
3, 294552, Note_on_c, 0, 33, 0
3, 294570, Note_on_c, 0, 45, 92
3, 294642, Note_on_c, 0, 45, 0
3, 294660, Note_on_c, 0, 33, 69
3, 294732, Note_on_c, 0, 33, 0
3, 294750, Note_on_c, 0, 45, 92
3, 294822, Note_on_c, 0, 45, 0
3, 294840, Note_on_c, 0, 45, 0
3, 294840, Note_on_c, 0, 49, 111
3, 294840, Note_on_c, 0, 33, 65
3, 294912, Note_on_c, 0, 33, 0
3, 294930, Note_on_c, 0, 45, 90
3, 295002, Note_on_c, 0, 45, 0
3, 295020, Note_on_c, 0, 33, 65
3, 295092, Note_on_c, 0, 33, 0
3, 295110, Note_on_c, 0, 45, 90
3, 295182, Note_on_c, 0, 45, 0
3, 295200, Note_on_c, 0, 49, 0
3, 295200, Note_on_c, 0, 49, 111
3, 295200, Note_on_c, 0, 33, 65
3, 295272, Note_on_c, 0, 33, 0
3, 295290, Note_on_c, 0, 45, 90
3, 295362, Note_on_c, 0, 45, 0
3, 295380, Note_on_c, 0, 33, 65
3, 295452, Note_on_c, 0, 33, 0
3, 295470, Note_on_c, 0, 45, 90
3, 295542, Note_on_c, 0, 45, 0
3, 295560, Note_on_c, 0, 49, 0
3, 295560, Note_on_c, 0, 51, 111
3, 295560, Note_on_c, 0, 33, 65
3, 295632, Note_on_c, 0, 33, 0
3, 295650, Note_on_c, 0, 45, 90
3, 295722, Note_on_c, 0, 45, 0
3, 295740, Note_on_c, 0, 33, 65
3, 295812, Note_on_c, 0, 33, 0
3, 295830, Note_on_c, 0, 45, 90
3, 295902, Note_on_c, 0, 45, 0
3, 295920, Note_on_c, 0, 51, 0
3, 295920, Note_on_c, 0, 49, 111
3, 295920, Note_on_c, 0, 33, 65
3, 295992, Note_on_c, 0, 33, 0
3, 296010, Note_on_c, 0, 45, 90
3, 296082, Note_on_c, 0, 45, 0
3, 296100, Note_on_c, 0, 33, 65
3, 296172, Note_on_c, 0, 33, 0
3, 296190, Note_on_c, 0, 45, 90
3, 296262, Note_on_c, 0, 45, 0
3, 296280, Note_on_c, 0, 49, 0
3, 296280, Note_on_c, 0, 53, 111
3, 296280, Note_on_c, 0, 33, 72
3, 296352, Note_on_c, 0, 33, 0
3, 296370, Note_on_c, 0, 45, 92
3, 296442, Note_on_c, 0, 45, 0
3, 296460, Note_on_c, 0, 33, 72
3, 296532, Note_on_c, 0, 33, 0
3, 296550, Note_on_c, 0, 45, 92
3, 296622, Note_on_c, 0, 45, 0
3, 296640, Note_on_c, 0, 53, 0
3, 296640, Note_on_c, 0, 53, 111
3, 296640, Note_on_c, 0, 33, 72
3, 296712, Note_on_c, 0, 33, 0
3, 296730, Note_on_c, 0, 45, 92
3, 296802, Note_on_c, 0, 45, 0
3, 296820, Note_on_c, 0, 33, 72
3, 296892, Note_on_c, 0, 33, 0
3, 296910, Note_on_c, 0, 45, 92
3, 296982, Note_on_c, 0, 45, 0
3, 297000, Note_on_c, 0, 53, 0
3, 297000, Note_on_c, 0, 55, 111
3, 297000, Note_on_c, 0, 33, 72
3, 297072, Note_on_c, 0, 33, 0
3, 297090, Note_on_c, 0, 45, 92
3, 297162, Note_on_c, 0, 45, 0
3, 297180, Note_on_c, 0, 33, 72
3, 297252, Note_on_c, 0, 33, 0
3, 297270, Note_on_c, 0, 45, 92
3, 297342, Note_on_c, 0, 45, 0
3, 297360, Note_on_c, 0, 55, 0
3, 297360, Note_on_c, 0, 53, 111
3, 297360, Note_on_c, 0, 33, 72
3, 297432, Note_on_c, 0, 33, 0
3, 297450, Note_on_c, 0, 45, 92
3, 297522, Note_on_c, 0, 45, 0
3, 297540, Note_on_c, 0, 33, 72
3, 297612, Note_on_c, 0, 33, 0
3, 297630, Note_on_c, 0, 45, 92
3, 297702, Note_on_c, 0, 45, 0
3, 297720, Note_on_c, 0, 53, 0
3, 297720, Note_on_c, 0, 57, 111
3, 297720, Note_on_c, 0, 33, 72
3, 297792, Note_on_c, 0, 33, 0
3, 297810, Note_on_c, 0, 45, 94
3, 297882, Note_on_c, 0, 45, 0
3, 297900, Note_on_c, 0, 33, 72
3, 297972, Note_on_c, 0, 33, 0
3, 297990, Note_on_c, 0, 45, 94
3, 298062, Note_on_c, 0, 45, 0
3, 298080, Note_on_c, 0, 33, 72
3, 298152, Note_on_c, 0, 33, 0
3, 298170, Note_on_c, 0, 45, 94
3, 298242, Note_on_c, 0, 45, 0
3, 298260, Note_on_c, 0, 33, 72
3, 298332, Note_on_c, 0, 33, 0
3, 298350, Note_on_c, 0, 45, 94
3, 298422, Note_on_c, 0, 45, 0
3, 298440, Note_on_c, 0, 33, 72
3, 298512, Note_on_c, 0, 33, 0
3, 298530, Note_on_c, 0, 45, 94
3, 298602, Note_on_c, 0, 45, 0
3, 298620, Note_on_c, 0, 33, 72
3, 298692, Note_on_c, 0, 33, 0
3, 298710, Note_on_c, 0, 45, 94
3, 298782, Note_on_c, 0, 45, 0
3, 298800, Note_on_c, 0, 33, 72
3, 298872, Note_on_c, 0, 33, 0
3, 298890, Note_on_c, 0, 45, 94
3, 298962, Note_on_c, 0, 45, 0
3, 298980, Note_on_c, 0, 33, 72
3, 299052, Note_on_c, 0, 33, 0
3, 299070, Note_on_c, 0, 45, 94
3, 299142, Note_on_c, 0, 45, 0
3, 299160, Note_on_c, 0, 57, 0
3, 299160, Note_on_c, 0, 57, 111
3, 299160, Note_on_c, 0, 33, 70
3, 299232, Note_on_c, 0, 33, 0
3, 299250, Note_on_c, 0, 45, 94
3, 299322, Note_on_c, 0, 45, 0
3, 299340, Note_on_c, 0, 33, 70
3, 299412, Note_on_c, 0, 33, 0
3, 299430, Note_on_c, 0, 45, 94
3, 299502, Note_on_c, 0, 45, 0
3, 299520, Note_on_c, 0, 33, 70
3, 299592, Note_on_c, 0, 33, 0
3, 299610, Note_on_c, 0, 45, 94
3, 299682, Note_on_c, 0, 45, 0
3, 299700, Note_on_c, 0, 33, 70
3, 299772, Note_on_c, 0, 33, 0
3, 299790, Note_on_c, 0, 45, 94
3, 299862, Note_on_c, 0, 45, 0
3, 299880, Note_on_c, 0, 33, 70
3, 299952, Note_on_c, 0, 33, 0
3, 299970, Note_on_c, 0, 45, 94
3, 300042, Note_on_c, 0, 45, 0
3, 300060, Note_on_c, 0, 33, 70
3, 300132, Note_on_c, 0, 33, 0
3, 300150, Note_on_c, 0, 45, 94
3, 300222, Note_on_c, 0, 45, 0
3, 300240, Note_on_c, 0, 33, 70
3, 300312, Note_on_c, 0, 33, 0
3, 300330, Note_on_c, 0, 45, 94
3, 300402, Note_on_c, 0, 45, 0
3, 300420, Note_on_c, 0, 33, 70
3, 300492, Note_on_c, 0, 33, 0
3, 300510, Note_on_c, 0, 45, 94
3, 300582, Note_on_c, 0, 45, 0
3, 300600, Note_on_c, 0, 57, 0
3, 300600, Note_on_c, 0, 57, 111
3, 300600, Note_on_c, 0, 33, 105
3, 300600, Note_on_c, 0, 45, 105
3, 301680, Note_on_c, 0, 45, 0
3, 301680, Note_on_c, 0, 33, 0
3, 301680, Note_on_c, 0, 57, 0
3, 301680, Note_on_c, 0, 57, 111
3, 301680, Note_on_c, 0, 45, 105
3, 302040, Note_on_c, 0, 45, 0
3, 302040, Note_on_c, 0, 57, 0
3, 302040, Note_on_c, 0, 55, 111
3, 302040, Note_on_c, 0, 57, 111
3, 302040, Note_on_c, 0, 43, 102
3, 302580, Note_on_c, 0, 43, 0
3, 302580, Note_on_c, 0, 57, 0
3, 302580, Note_on_c, 0, 55, 0
3, 302580, Note_on_c, 0, 57, 111
3, 302580, Note_on_c, 0, 45, 105
3, 302760, Note_on_c, 0, 45, 0
3, 302760, Note_on_c, 0, 57, 0
3, 302760, Note_on_c, 0, 53, 111
3, 302760, Note_on_c, 0, 57, 111
3, 302760, Note_on_c, 0, 41, 102
3, 303120, Note_on_c, 0, 41, 0
3, 303120, Note_on_c, 0, 57, 0
3, 303120, Note_on_c, 0, 53, 0
3, 303120, Note_on_c, 0, 52, 111
3, 303120, Note_on_c, 0, 57, 111
3, 303120, Note_on_c, 0, 40, 104
3, 303480, Note_on_c, 0, 40, 0
3, 303480, Note_on_c, 0, 57, 0
3, 303480, Note_on_c, 0, 52, 0
3, 303480, Note_on_c, 0, 53, 111
3, 303480, Note_on_c, 0, 57, 111
3, 303480, Note_on_c, 0, 41, 108
3, 304560, Note_on_c, 0, 41, 0
3, 304560, Note_on_c, 0, 57, 0
3, 304560, Note_on_c, 0, 53, 0
3, 304560, Note_on_c, 0, 57, 111
3, 304560, Note_on_c, 0, 45, 109
3, 304920, Note_on_c, 0, 45, 0
3, 304920, Note_on_c, 0, 57, 0
3, 304920, Note_on_c, 0, 55, 111
3, 304920, Note_on_c, 0, 57, 111
3, 304920, Note_on_c, 0, 43, 104
3, 305460, Note_on_c, 0, 43, 0
3, 305460, Note_on_c, 0, 57, 0
3, 305460, Note_on_c, 0, 55, 0
3, 305460, Note_on_c, 0, 57, 111
3, 305460, Note_on_c, 0, 45, 107
3, 305640, Note_on_c, 0, 45, 0
3, 305640, Note_on_c, 0, 57, 0
3, 305640, Note_on_c, 0, 53, 111
3, 305640, Note_on_c, 0, 57, 111
3, 305640, Note_on_c, 0, 41, 101
3, 305820, Note_on_c, 0, 41, 0
3, 305820, Note_on_c, 0, 57, 0
3, 305820, Note_on_c, 0, 53, 0
3, 305820, Note_on_c, 0, 55, 111
3, 305820, Note_on_c, 0, 57, 111
3, 305820, Note_on_c, 0, 43, 111
3, 306000, Note_on_c, 0, 43, 0
3, 306000, Note_on_c, 0, 57, 0
3, 306000, Note_on_c, 0, 55, 0
3, 306000, Note_on_c, 0, 52, 111
3, 306000, Note_on_c, 0, 57, 111
3, 306000, Note_on_c, 0, 40, 101
3, 306180, Note_on_c, 0, 40, 0
3, 306180, Note_on_c, 0, 57, 0
3, 306180, Note_on_c, 0, 52, 0
3, 306180, Note_on_c, 0, 53, 111
3, 306180, Note_on_c, 0, 57, 111
3, 306180, Note_on_c, 0, 41, 109
3, 306360, Note_on_c, 0, 41, 0
3, 306360, Note_on_c, 0, 57, 0
3, 306360, Note_on_c, 0, 53, 0
3, 306360, Note_on_c, 0, 50, 111
3, 306360, Note_on_c, 0, 57, 111
3, 306360, Note_on_c, 0, 38, 111
3, 306360, Note_on_c, 0, 45, 111
3, 306540, Note_on_c, 0, 45, 0
3, 306540, Note_on_c, 0, 50, 0
3, 306540, Note_on_c, 0, 57, 0
3, 306540, Note_on_c, 0, 38, 0
3, 306900, Note_on_c, 0, 56, 88
3, 306959, Note_on_c, 0, 56, 0
3, 306959, Note_on_c, 0, 57, 93
3, 307020, Note_on_c, 0, 57, 0
3, 307020, Note_on_c, 0, 58, 100
3, 307080, Note_on_c, 0, 58, 0
3, 307080, Note_on_c, 0, 57, 111
3, 307080, Note_on_c, 0, 38, 76
3, 307080, Note_on_c, 0, 45, 76
3, 307080, Note_on_c, 0, 50, 76
3, 307260, Note_on_c, 0, 50, 0
3, 307260, Note_on_c, 0, 45, 0
3, 307260, Note_on_c, 0, 38, 0
3, 307620, Note_on_c, 0, 57, 0
3, 307620, Note_on_c, 0, 56, 92
3, 307679, Note_on_c, 0, 56, 0
3, 307679, Note_on_c, 0, 57, 96
3, 307740, Note_on_c, 0, 57, 0
3, 307740, Note_on_c, 0, 58, 100
3, 307800, Note_on_c, 0, 58, 0
3, 307800, Note_on_c, 0, 57, 111
3, 307800, Note_on_c, 0, 38, 67
3, 307800, Note_on_c, 0, 45, 67
3, 307800, Note_on_c, 0, 50, 67
3, 307980, Note_on_c, 0, 50, 0
3, 307980, Note_on_c, 0, 45, 0
3, 307980, Note_on_c, 0, 38, 0
3, 308340, Note_on_c, 0, 57, 0
3, 308340, Note_on_c, 0, 57, 95
3, 308399, Note_on_c, 0, 57, 0
3, 308399, Note_on_c, 0, 59, 100
3, 308460, Note_on_c, 0, 59, 0
3, 308460, Note_on_c, 0, 61, 108
3, 308520, Note_on_c, 0, 61, 0
3, 308520, Note_on_c, 0, 59, 111
3, 309060, Note_on_c, 0, 59, 0
3, 309060, Note_on_c, 0, 59, 95
3, 309119, Note_on_c, 0, 59, 0
3, 309119, Note_on_c, 0, 61, 100
3, 309180, Note_on_c, 0, 61, 0
3, 309180, Note_on_c, 0, 62, 101
3, 309240, Note_on_c, 0, 62, 0
3, 309240, Note_on_c, 0, 61, 111
3, 309780, Note_on_c, 0, 61, 0
3, 309780, Note_on_c, 0, 61, 97
3, 309839, Note_on_c, 0, 61, 0
3, 309839, Note_on_c, 0, 62, 106
3, 309900, Note_on_c, 0, 62, 0
3, 309900, Note_on_c, 0, 64, 109
3, 309960, Note_on_c, 0, 64, 0
3, 309960, Note_on_c, 0, 62, 111
3, 309960, Note_on_c, 0, 38, 75
3, 309960, Note_on_c, 0, 45, 75
3, 309960, Note_on_c, 0, 50, 75
3, 310140, Note_on_c, 0, 50, 0
3, 310140, Note_on_c, 0, 45, 0
3, 310140, Note_on_c, 0, 38, 0
3, 310500, Note_on_c, 0, 62, 0
3, 310500, Note_on_c, 0, 62, 94
3, 310559, Note_on_c, 0, 62, 0
3, 310559, Note_on_c, 0, 64, 105
3, 310620, Note_on_c, 0, 64, 0
3, 310620, Note_on_c, 0, 65, 103
3, 310680, Note_on_c, 0, 65, 0
3, 310680, Note_on_c, 0, 64, 111
3, 311220, Note_on_c, 0, 64, 0
3, 311220, Note_on_c, 0, 64, 98
3, 311279, Note_on_c, 0, 64, 0
3, 311279, Note_on_c, 0, 65, 103
3, 311340, Note_on_c, 0, 65, 0
3, 311340, Note_on_c, 0, 67, 104
3, 311400, Note_on_c, 0, 67, 0
3, 311400, Note_on_c, 0, 65, 111
3, 311940, Note_on_c, 0, 65, 0
3, 311940, Note_on_c, 0, 65, 97
3, 311999, Note_on_c, 0, 65, 0
3, 311999, Note_on_c, 0, 67, 102
3, 312060, Note_on_c, 0, 67, 0
3, 312060, Note_on_c, 0, 69, 110
3, 312120, Note_on_c, 0, 69, 0
3, 312120, Note_on_c, 0, 67, 111
3, 312660, Note_on_c, 0, 67, 0
3, 312660, Note_on_c, 0, 67, 101
3, 312719, Note_on_c, 0, 67, 0
3, 312719, Note_on_c, 0, 69, 108
3, 312780, Note_on_c, 0, 69, 0
3, 312780, Note_on_c, 0, 70, 105
3, 312840, Note_on_c, 0, 70, 0
3, 312840, Note_on_c, 0, 69, 111
3, 312840, Note_on_c, 0, 38, 104
3, 312840, Note_on_c, 0, 50, 104
3, 313157, Note_on_c, 0, 50, 0
3, 313157, Note_on_c, 0, 38, 0
3, 313200, Note_on_c, 0, 33, 89
3, 313200, Note_on_c, 0, 45, 89
3, 313517, Note_on_c, 0, 45, 0
3, 313517, Note_on_c, 0, 33, 0
3, 313560, Note_on_c, 0, 38, 88
3, 313560, Note_on_c, 0, 50, 88
3, 313649, Note_on_c, 0, 50, 0
3, 313649, Note_on_c, 0, 38, 0
3, 313740, Note_on_c, 0, 69, 0
3, 314100, Note_on_c, 0, 53, 53
3, 314100, Note_on_c, 0, 41, 65
3, 314189, Note_on_c, 0, 41, 0
3, 314189, Note_on_c, 0, 53, 0
3, 314280, Note_on_c, 0, 57, 71
3, 314280, Note_on_c, 0, 45, 69
3, 314369, Note_on_c, 0, 45, 0
3, 314369, Note_on_c, 0, 57, 0
3, 314820, Note_on_c, 0, 55, 54
3, 314820, Note_on_c, 0, 43, 58
3, 314909, Note_on_c, 0, 43, 0
3, 314909, Note_on_c, 0, 55, 0
3, 315000, Note_on_c, 0, 53, 66
3, 315000, Note_on_c, 0, 41, 64
3, 315090, Note_on_c, 0, 41, 0
3, 315090, Note_on_c, 0, 53, 0
3, 315090, Note_on_c, 0, 55, 69
3, 315090, Note_on_c, 0, 43, 71
3, 315180, Note_on_c, 0, 43, 0
3, 315180, Note_on_c, 0, 55, 0
3, 315180, Note_on_c, 0, 53, 68
3, 315180, Note_on_c, 0, 41, 65
3, 315270, Note_on_c, 0, 41, 0
3, 315270, Note_on_c, 0, 53, 0
3, 315270, Note_on_c, 0, 52, 68
3, 315270, Note_on_c, 0, 40, 63
3, 315360, Note_on_c, 0, 40, 0
3, 315360, Note_on_c, 0, 52, 0
3, 315360, Note_on_c, 0, 50, 62
3, 315360, Note_on_c, 0, 38, 67
3, 315450, Note_on_c, 0, 38, 0
3, 315450, Note_on_c, 0, 50, 0
3, 315450, Note_on_c, 0, 52, 70
3, 315450, Note_on_c, 0, 40, 69
3, 315540, Note_on_c, 0, 40, 0
3, 315540, Note_on_c, 0, 52, 0
3, 315540, Note_on_c, 0, 50, 65
3, 315540, Note_on_c, 0, 38, 62
3, 315630, Note_on_c, 0, 38, 0
3, 315630, Note_on_c, 0, 50, 0
3, 315630, Note_on_c, 0, 48, 68
3, 315630, Note_on_c, 0, 36, 66
3, 315720, Note_on_c, 0, 36, 0
3, 315720, Note_on_c, 0, 48, 0
3, 315720, Note_on_c, 0, 46, 67
3, 315720, Note_on_c, 0, 34, 67
3, 315809, Note_on_c, 0, 34, 0
3, 315809, Note_on_c, 0, 46, 0
3, 316080, Note_on_c, 0, 48, 62
3, 316080, Note_on_c, 0, 36, 57
3, 316169, Note_on_c, 0, 36, 0
3, 316169, Note_on_c, 0, 48, 0
3, 316440, Note_on_c, 0, 50, 72
3, 316440, Note_on_c, 0, 38, 73
3, 316529, Note_on_c, 0, 38, 0
3, 316529, Note_on_c, 0, 50, 0
3, 316620, Note_on_c, 0, 57, 107
3, 316620, Note_on_c, 0, 62, 107
3, 316620, Note_on_c, 0, 65, 107
3, 316709, Note_on_c, 0, 65, 0
3, 316709, Note_on_c, 0, 62, 0
3, 316709, Note_on_c, 0, 57, 0
3, 316800, Note_on_c, 0, 57, 89
3, 316800, Note_on_c, 0, 62, 89
3, 316800, Note_on_c, 0, 65, 89
3, 316889, Note_on_c, 0, 65, 0
3, 316889, Note_on_c, 0, 62, 0
3, 316889, Note_on_c, 0, 57, 0
3, 316980, Note_on_c, 0, 57, 87
3, 316980, Note_on_c, 0, 62, 87
3, 316980, Note_on_c, 0, 65, 87
3, 317069, Note_on_c, 0, 65, 0
3, 317069, Note_on_c, 0, 62, 0
3, 317069, Note_on_c, 0, 57, 0
3, 317160, Note_on_c, 0, 57, 85
3, 317160, Note_on_c, 0, 62, 85
3, 317160, Note_on_c, 0, 65, 85
3, 317160, Note_on_c, 0, 38, 71
3, 317160, Note_on_c, 0, 45, 71
3, 317160, Note_on_c, 0, 50, 71
3, 317249, Note_on_c, 0, 50, 0
3, 317249, Note_on_c, 0, 62, 0
3, 317249, Note_on_c, 0, 65, 0
3, 317249, Note_on_c, 0, 57, 0
3, 317249, Note_on_c, 0, 45, 0
3, 317249, Note_on_c, 0, 38, 0
3, 317340, Note_on_c, 0, 57, 74
3, 317340, Note_on_c, 0, 62, 74
3, 317340, Note_on_c, 0, 65, 74
3, 317429, Note_on_c, 0, 65, 0
3, 317429, Note_on_c, 0, 62, 0
3, 317429, Note_on_c, 0, 57, 0
3, 317520, Note_on_c, 0, 57, 82
3, 317520, Note_on_c, 0, 62, 82
3, 317520, Note_on_c, 0, 65, 82
3, 317609, Note_on_c, 0, 65, 0
3, 317609, Note_on_c, 0, 62, 0
3, 317609, Note_on_c, 0, 57, 0
3, 317700, Note_on_c, 0, 57, 85
3, 317700, Note_on_c, 0, 62, 85
3, 317700, Note_on_c, 0, 65, 85
3, 317789, Note_on_c, 0, 65, 0
3, 317789, Note_on_c, 0, 62, 0
3, 317789, Note_on_c, 0, 57, 0
3, 317880, Note_on_c, 0, 57, 82
3, 317880, Note_on_c, 0, 62, 82
3, 317880, Note_on_c, 0, 65, 82
3, 317880, Note_on_c, 0, 38, 73
3, 317880, Note_on_c, 0, 45, 73
3, 317880, Note_on_c, 0, 50, 73
3, 317969, Note_on_c, 0, 50, 0
3, 317969, Note_on_c, 0, 62, 0
3, 317969, Note_on_c, 0, 65, 0
3, 317969, Note_on_c, 0, 57, 0
3, 317969, Note_on_c, 0, 45, 0
3, 317969, Note_on_c, 0, 38, 0
3, 318060, Note_on_c, 0, 57, 82
3, 318060, Note_on_c, 0, 62, 82
3, 318060, Note_on_c, 0, 65, 82
3, 318149, Note_on_c, 0, 65, 0
3, 318149, Note_on_c, 0, 62, 0
3, 318149, Note_on_c, 0, 57, 0
3, 318240, Note_on_c, 0, 57, 77
3, 318240, Note_on_c, 0, 62, 77
3, 318240, Note_on_c, 0, 65, 77
3, 318329, Note_on_c, 0, 65, 0
3, 318329, Note_on_c, 0, 62, 0
3, 318329, Note_on_c, 0, 57, 0
3, 318420, Note_on_c, 0, 57, 82
3, 318420, Note_on_c, 0, 62, 82
3, 318420, Note_on_c, 0, 65, 82
3, 318509, Note_on_c, 0, 65, 0
3, 318509, Note_on_c, 0, 62, 0
3, 318509, Note_on_c, 0, 57, 0
3, 318780, Note_on_c, 0, 57, 69
3, 318780, Note_on_c, 0, 62, 69
3, 318780, Note_on_c, 0, 67, 69
3, 318869, Note_on_c, 0, 67, 0
3, 318869, Note_on_c, 0, 62, 0
3, 318869, Note_on_c, 0, 57, 0
3, 318960, Note_on_c, 0, 57, 81
3, 318960, Note_on_c, 0, 62, 81
3, 318960, Note_on_c, 0, 67, 81
3, 319049, Note_on_c, 0, 67, 0
3, 319049, Note_on_c, 0, 62, 0
3, 319049, Note_on_c, 0, 57, 0
3, 319140, Note_on_c, 0, 57, 83
3, 319140, Note_on_c, 0, 62, 83
3, 319140, Note_on_c, 0, 67, 83
3, 319229, Note_on_c, 0, 67, 0
3, 319229, Note_on_c, 0, 62, 0
3, 319229, Note_on_c, 0, 57, 0
3, 319500, Note_on_c, 0, 57, 71
3, 319500, Note_on_c, 0, 67, 71
3, 319500, Note_on_c, 0, 69, 71
3, 319589, Note_on_c, 0, 69, 0
3, 319589, Note_on_c, 0, 67, 0
3, 319589, Note_on_c, 0, 57, 0
3, 319680, Note_on_c, 0, 57, 77
3, 319680, Note_on_c, 0, 67, 77
3, 319680, Note_on_c, 0, 69, 77
3, 319769, Note_on_c, 0, 69, 0
3, 319769, Note_on_c, 0, 67, 0
3, 319769, Note_on_c, 0, 57, 0
3, 319860, Note_on_c, 0, 57, 83
3, 319860, Note_on_c, 0, 67, 83
3, 319860, Note_on_c, 0, 69, 83
3, 319949, Note_on_c, 0, 69, 0
3, 319949, Note_on_c, 0, 67, 0
3, 319949, Note_on_c, 0, 57, 0
3, 320040, Note_on_c, 0, 57, 83
3, 320040, Note_on_c, 0, 65, 83
3, 320040, Note_on_c, 0, 69, 83
3, 320040, Note_on_c, 0, 38, 71
3, 320040, Note_on_c, 0, 45, 71
3, 320040, Note_on_c, 0, 50, 71
3, 320129, Note_on_c, 0, 50, 0
3, 320129, Note_on_c, 0, 65, 0
3, 320129, Note_on_c, 0, 69, 0
3, 320129, Note_on_c, 0, 57, 0
3, 320129, Note_on_c, 0, 45, 0
3, 320129, Note_on_c, 0, 38, 0
3, 320220, Note_on_c, 0, 57, 82
3, 320220, Note_on_c, 0, 65, 82
3, 320220, Note_on_c, 0, 69, 82
3, 320309, Note_on_c, 0, 69, 0
3, 320309, Note_on_c, 0, 65, 0
3, 320309, Note_on_c, 0, 57, 0
3, 320400, Note_on_c, 0, 57, 83
3, 320400, Note_on_c, 0, 65, 83
3, 320400, Note_on_c, 0, 69, 83
3, 320489, Note_on_c, 0, 69, 0
3, 320489, Note_on_c, 0, 65, 0
3, 320489, Note_on_c, 0, 57, 0
3, 320580, Note_on_c, 0, 57, 81
3, 320580, Note_on_c, 0, 65, 81
3, 320580, Note_on_c, 0, 69, 81
3, 320669, Note_on_c, 0, 69, 0
3, 320669, Note_on_c, 0, 65, 0
3, 320669, Note_on_c, 0, 57, 0
3, 320940, Note_on_c, 0, 58, 85
3, 320940, Note_on_c, 0, 62, 85
3, 320940, Note_on_c, 0, 70, 85
3, 321257, Note_on_c, 0, 70, 0
3, 321257, Note_on_c, 0, 62, 0
3, 321257, Note_on_c, 0, 58, 0
3, 321300, Note_on_c, 0, 58, 81
3, 321300, Note_on_c, 0, 62, 81
3, 321300, Note_on_c, 0, 70, 81
3, 321389, Note_on_c, 0, 70, 0
3, 321389, Note_on_c, 0, 62, 0
3, 321389, Note_on_c, 0, 58, 0
3, 321660, Note_on_c, 0, 57, 85
3, 321660, Note_on_c, 0, 62, 85
3, 321660, Note_on_c, 0, 69, 85
3, 321977, Note_on_c, 0, 69, 0
3, 321977, Note_on_c, 0, 62, 0
3, 321977, Note_on_c, 0, 57, 0
3, 322020, Note_on_c, 0, 57, 83
3, 322020, Note_on_c, 0, 62, 83
3, 322020, Note_on_c, 0, 69, 83
3, 322109, Note_on_c, 0, 69, 0
3, 322109, Note_on_c, 0, 62, 0
3, 322109, Note_on_c, 0, 57, 0
3, 322380, Note_on_c, 0, 58, 70
3, 322380, Note_on_c, 0, 62, 70
3, 322380, Note_on_c, 0, 67, 70
3, 322469, Note_on_c, 0, 67, 0
3, 322469, Note_on_c, 0, 62, 0
3, 322469, Note_on_c, 0, 58, 0
3, 322560, Note_on_c, 0, 58, 83
3, 322560, Note_on_c, 0, 62, 83
3, 322560, Note_on_c, 0, 67, 83
3, 322649, Note_on_c, 0, 67, 0
3, 322649, Note_on_c, 0, 62, 0
3, 322649, Note_on_c, 0, 58, 0
3, 322740, Note_on_c, 0, 58, 80
3, 322740, Note_on_c, 0, 62, 80
3, 322740, Note_on_c, 0, 67, 80
3, 322829, Note_on_c, 0, 67, 0
3, 322829, Note_on_c, 0, 62, 0
3, 322829, Note_on_c, 0, 58, 0
3, 322920, Note_on_c, 0, 57, 100
3, 322920, Note_on_c, 0, 62, 100
3, 322920, Note_on_c, 0, 65, 100
3, 322920, Note_on_c, 0, 38, 100
3, 322920, Note_on_c, 0, 50, 100
3, 323100, Note_on_c, 0, 65, 0
3, 323100, Note_on_c, 0, 57, 0
3, 323100, Note_on_c, 0, 62, 0
3, 323100, Note_on_c, 0, 57, 84
3, 323100, Note_on_c, 0, 62, 84
3, 323100, Note_on_c, 0, 65, 84
3, 323189, Note_on_c, 0, 65, 0
3, 323189, Note_on_c, 0, 57, 0
3, 323189, Note_on_c, 0, 62, 0
3, 323280, Note_on_c, 0, 38, 0
3, 323280, Note_on_c, 0, 50, 0
3, 323280, Note_on_c, 0, 57, 102
3, 323280, Note_on_c, 0, 60, 102
3, 323280, Note_on_c, 0, 65, 102
3, 323280, Note_on_c, 0, 36, 103
3, 323280, Note_on_c, 0, 48, 103
3, 323460, Note_on_c, 0, 65, 0
3, 323460, Note_on_c, 0, 57, 0
3, 323460, Note_on_c, 0, 60, 0
3, 323460, Note_on_c, 0, 57, 83
3, 323460, Note_on_c, 0, 60, 83
3, 323460, Note_on_c, 0, 65, 83
3, 323549, Note_on_c, 0, 65, 0
3, 323549, Note_on_c, 0, 57, 0
3, 323549, Note_on_c, 0, 60, 0
3, 323640, Note_on_c, 0, 36, 0
3, 323640, Note_on_c, 0, 48, 0
3, 323640, Note_on_c, 0, 53, 107
3, 323640, Note_on_c, 0, 62, 107
3, 323640, Note_on_c, 0, 65, 107
3, 323640, Note_on_c, 0, 33, 106
3, 323640, Note_on_c, 0, 45, 106
3, 323820, Note_on_c, 0, 45, 0
3, 323820, Note_on_c, 0, 65, 0
3, 323820, Note_on_c, 0, 53, 0
3, 323820, Note_on_c, 0, 62, 0
3, 323820, Note_on_c, 0, 33, 0
3, 324180, Note_on_c, 0, 50, 56
3, 324180, Note_on_c, 0, 38, 59
3, 324269, Note_on_c, 0, 38, 0
3, 324269, Note_on_c, 0, 50, 0
3, 324360, Note_on_c, 0, 53, 69
3, 324360, Note_on_c, 0, 41, 67
3, 324449, Note_on_c, 0, 41, 0
3, 324449, Note_on_c, 0, 53, 0
3, 324900, Note_on_c, 0, 52, 57
3, 324900, Note_on_c, 0, 40, 60
3, 324989, Note_on_c, 0, 40, 0
3, 324989, Note_on_c, 0, 52, 0
3, 325080, Note_on_c, 0, 50, 63
3, 325080, Note_on_c, 0, 38, 63
3, 325170, Note_on_c, 0, 38, 0
3, 325170, Note_on_c, 0, 50, 0
3, 325170, Note_on_c, 0, 52, 69
3, 325170, Note_on_c, 0, 40, 74
3, 325260, Note_on_c, 0, 40, 0
3, 325260, Note_on_c, 0, 52, 0
3, 325260, Note_on_c, 0, 50, 63
3, 325260, Note_on_c, 0, 38, 61
3, 325350, Note_on_c, 0, 38, 0
3, 325350, Note_on_c, 0, 50, 0
3, 325350, Note_on_c, 0, 48, 68
3, 325350, Note_on_c, 0, 36, 65
3, 325440, Note_on_c, 0, 36, 0
3, 325440, Note_on_c, 0, 48, 0
3, 325440, Note_on_c, 0, 46, 64
3, 325440, Note_on_c, 0, 34, 64
3, 325530, Note_on_c, 0, 34, 0
3, 325530, Note_on_c, 0, 46, 0
3, 325530, Note_on_c, 0, 48, 70
3, 325530, Note_on_c, 0, 36, 73
3, 325620, Note_on_c, 0, 36, 0
3, 325620, Note_on_c, 0, 48, 0
3, 325620, Note_on_c, 0, 46, 62
3, 325620, Note_on_c, 0, 34, 68
3, 325710, Note_on_c, 0, 34, 0
3, 325710, Note_on_c, 0, 46, 0
3, 325710, Note_on_c, 0, 45, 60
3, 325710, Note_on_c, 0, 33, 68
3, 325800, Note_on_c, 0, 33, 0
3, 325800, Note_on_c, 0, 45, 0
3, 325800, Note_on_c, 0, 43, 72
3, 325800, Note_on_c, 0, 31, 65
3, 325889, Note_on_c, 0, 31, 0
3, 325889, Note_on_c, 0, 43, 0
3, 326160, Note_on_c, 0, 45, 58
3, 326160, Note_on_c, 0, 33, 58
3, 326249, Note_on_c, 0, 33, 0
3, 326249, Note_on_c, 0, 45, 0
3, 326520, Note_on_c, 0, 58, 33
3, 326520, Note_on_c, 0, 53, 71
3, 326520, Note_on_c, 0, 34, 40
3, 326880, Note_on_c, 0, 34, 0
3, 326880, Note_on_c, 0, 38, 50
3, 327240, Note_on_c, 0, 38, 0
3, 327240, Note_on_c, 0, 41, 43
3, 327600, Note_on_c, 0, 41, 0
3, 327600, Note_on_c, 0, 46, 48
3, 328320, Note_on_c, 0, 46, 0
3, 328320, Note_on_c, 0, 46, 46
3, 328680, Note_on_c, 0, 46, 0
3, 328680, Note_on_c, 0, 50, 45
3, 329040, Note_on_c, 0, 50, 0
3, 329040, Note_on_c, 0, 46, 43
3, 329760, Note_on_c, 0, 46, 0
3, 329760, Note_on_c, 0, 41, 41
3, 330480, Note_on_c, 0, 41, 0
3, 330480, Note_on_c, 0, 38, 42
3, 331200, Note_on_c, 0, 38, 0
3, 331200, Note_on_c, 0, 58, 0
3, 331200, Note_on_c, 0, 58, 30
3, 331200, Note_on_c, 0, 34, 41
3, 331740, Note_on_c, 0, 34, 0
3, 331740, Note_on_c, 0, 58, 0
3, 331740, Note_on_c, 0, 60, 39
3, 331740, Note_on_c, 0, 36, 48
3, 331920, Note_on_c, 0, 36, 0
3, 331920, Note_on_c, 0, 60, 0
3, 331920, Note_on_c, 0, 58, 33
3, 331920, Note_on_c, 0, 34, 43
3, 332100, Note_on_c, 0, 34, 0
3, 332100, Note_on_c, 0, 58, 0
3, 332100, Note_on_c, 0, 60, 41
3, 332100, Note_on_c, 0, 36, 46
3, 332280, Note_on_c, 0, 36, 0
3, 332280, Note_on_c, 0, 60, 0
3, 332280, Note_on_c, 0, 53, 0
3, 332280, Note_on_c, 0, 57, 26
3, 332280, Note_on_c, 0, 53, 86
3, 332280, Note_on_c, 0, 33, 41
3, 332640, Note_on_c, 0, 33, 0
3, 332640, Note_on_c, 0, 38, 50
3, 333000, Note_on_c, 0, 38, 0
3, 333000, Note_on_c, 0, 41, 48
3, 333360, Note_on_c, 0, 41, 0
3, 333360, Note_on_c, 0, 45, 47
3, 334080, Note_on_c, 0, 45, 0
3, 334080, Note_on_c, 0, 45, 44
3, 334440, Note_on_c, 0, 45, 0
3, 334440, Note_on_c, 0, 50, 47
3, 334800, Note_on_c, 0, 50, 0
3, 334800, Note_on_c, 0, 45, 40
3, 335520, Note_on_c, 0, 45, 0
3, 335520, Note_on_c, 0, 41, 41
3, 336240, Note_on_c, 0, 41, 0
3, 336240, Note_on_c, 0, 38, 42
3, 336960, Note_on_c, 0, 38, 0
3, 336960, Note_on_c, 0, 57, 0
3, 336960, Note_on_c, 0, 57, 49
3, 336960, Note_on_c, 0, 33, 61
3, 336960, Note_on_c, 0, 45, 61
3, 337909, Note_on_c, 0, 45, 0
3, 337909, Note_on_c, 0, 33, 0
3, 337909, Note_on_c, 0, 57, 0
3, 338040, Note_on_c, 0, 53, 0
3, 338040, Note_on_c, 0, 50, 37
3, 338040, Note_on_c, 0, 55, 37
3, 338040, Note_on_c, 0, 31, 48
3, 338040, Note_on_c, 0, 43, 48
3, 338400, Note_on_c, 0, 43, 0
3, 338400, Note_on_c, 0, 31, 0
3, 338400, Note_on_c, 0, 34, 35
3, 339120, Note_on_c, 0, 34, 0
3, 339120, Note_on_c, 0, 38, 49
3, 339840, Note_on_c, 0, 38, 0
3, 339840, Note_on_c, 0, 43, 45
3, 340200, Note_on_c, 0, 43, 0
3, 340200, Note_on_c, 0, 38, 42
3, 340560, Note_on_c, 0, 38, 0
3, 340560, Note_on_c, 0, 34, 36
3, 340920, Note_on_c, 0, 34, 0
3, 340920, Note_on_c, 0, 55, 0
3, 340920, Note_on_c, 0, 50, 0
3, 340920, Note_on_c, 0, 50, 34
3, 340920, Note_on_c, 0, 54, 34
3, 340920, Note_on_c, 0, 30, 51
3, 340920, Note_on_c, 0, 42, 51
3, 341280, Note_on_c, 0, 42, 0
3, 341280, Note_on_c, 0, 30, 0
3, 341280, Note_on_c, 0, 34, 42
3, 342000, Note_on_c, 0, 34, 0
3, 342000, Note_on_c, 0, 38, 47
3, 342720, Note_on_c, 0, 38, 0
3, 342720, Note_on_c, 0, 42, 48
3, 343080, Note_on_c, 0, 42, 0
3, 343080, Note_on_c, 0, 38, 37
3, 343440, Note_on_c, 0, 38, 0
3, 343440, Note_on_c, 0, 34, 44
3, 343800, Note_on_c, 0, 34, 0
3, 343800, Note_on_c, 0, 54, 0
3, 343800, Note_on_c, 0, 50, 0
3, 343800, Note_on_c, 0, 46, 34
3, 343800, Note_on_c, 0, 53, 34
3, 343800, Note_on_c, 0, 41, 50
3, 343800, Note_on_c, 0, 38, 76
3, 344160, Note_on_c, 0, 41, 0
3, 344160, Note_on_c, 0, 46, 51
3, 344880, Note_on_c, 0, 46, 0
3, 344880, Note_on_c, 0, 50, 49
3, 345600, Note_on_c, 0, 50, 0
3, 345600, Note_on_c, 0, 53, 48
3, 345960, Note_on_c, 0, 53, 0
3, 345960, Note_on_c, 0, 50, 43
3, 346320, Note_on_c, 0, 50, 0
3, 346320, Note_on_c, 0, 46, 40
3, 346680, Note_on_c, 0, 46, 0
3, 346680, Note_on_c, 0, 46, 0
3, 346680, Note_on_c, 0, 38, 0
3, 346680, Note_on_c, 0, 53, 0
3, 346680, Note_on_c, 0, 47, 34
3, 346680, Note_on_c, 0, 54, 34
3, 346680, Note_on_c, 0, 42, 45
3, 346680, Note_on_c, 0, 38, 92
3, 347040, Note_on_c, 0, 42, 0
3, 347040, Note_on_c, 0, 47, 49
3, 347400, Note_on_c, 0, 47, 0
3, 347400, Note_on_c, 0, 50, 50
3, 347760, Note_on_c, 0, 50, 0
3, 347760, Note_on_c, 0, 54, 48
3, 348120, Note_on_c, 0, 54, 0
3, 348120, Note_on_c, 0, 38, 0
3, 348120, Note_on_c, 0, 54, 0
3, 348120, Note_on_c, 0, 47, 0
3, 348120, Note_on_c, 0, 46, 30
3, 348120, Note_on_c, 0, 53, 30
3, 348120, Note_on_c, 0, 41, 28
3, 348120, Note_on_c, 0, 38, 89
3, 348480, Note_on_c, 0, 41, 0
3, 348480, Note_on_c, 0, 46, 35
3, 349200, Note_on_c, 0, 46, 0
3, 349200, Note_on_c, 0, 50, 35
3, 349920, Note_on_c, 0, 50, 0
3, 349920, Note_on_c, 0, 53, 37
3, 350280, Note_on_c, 0, 53, 0
3, 350280, Note_on_c, 0, 50, 26
3, 350640, Note_on_c, 0, 50, 0
3, 350640, Note_on_c, 0, 46, 33
3, 351000, Note_on_c, 0, 46, 0
3, 351000, Note_on_c, 0, 46, 0
3, 351000, Note_on_c, 0, 38, 0
3, 351000, Note_on_c, 0, 53, 0
3, 351000, Note_on_c, 0, 47, 35
3, 351000, Note_on_c, 0, 54, 35
3, 351000, Note_on_c, 0, 42, 33
3, 351000, Note_on_c, 0, 38, 94
3, 351360, Note_on_c, 0, 42, 0
3, 351360, Note_on_c, 0, 47, 43
3, 351720, Note_on_c, 0, 47, 0
3, 351720, Note_on_c, 0, 50, 35
3, 352080, Note_on_c, 0, 50, 0
3, 352080, Note_on_c, 0, 54, 36
3, 352440, Note_on_c, 0, 54, 0
3, 352440, Note_on_c, 0, 38, 0
3, 352440, Note_on_c, 0, 54, 0
3, 352440, Note_on_c, 0, 47, 0
3, 352440, Note_on_c, 0, 46, 34
3, 352440, Note_on_c, 0, 53, 34
3, 352440, Note_on_c, 0, 41, 29
3, 352440, Note_on_c, 0, 38, 88
3, 352800, Note_on_c, 0, 41, 0
3, 352800, Note_on_c, 0, 46, 45
3, 353340, Note_on_c, 0, 46, 0
3, 353340, Note_on_c, 0, 38, 0
3, 353340, Note_on_c, 0, 53, 0
3, 353520, Note_on_c, 0, 46, 0
3, 353520, Note_on_c, 0, 50, 37
3, 354240, Note_on_c, 0, 50, 0
3, 354240, Note_on_c, 0, 52, 28
3, 354960, Note_on_c, 0, 52, 0
3, 354960, Note_on_c, 0, 53, 35
3, 355680, Note_on_c, 0, 53, 0
3, 360360, Note_on_c, 0, 58, 41
3, 360360, Note_on_c, 0, 65, 41
3, 361080, Note_on_c, 0, 65, 0
3, 361080, Note_on_c, 0, 58, 0
3, 361080, Note_on_c, 0, 57, 47
3, 361080, Note_on_c, 0, 66, 47
3, 361980, Note_on_c, 0, 66, 0
3, 361980, Note_on_c, 0, 57, 0
3, 363600, Note_on_c, 0, 69, 38
3, 364680, Note_on_c, 0, 69, 0
3, 364680, Note_on_c, 0, 67, 62
3, 365580, Note_on_c, 0, 67, 0
3, 365760, Note_on_c, 0, 67, 67
3, 365940, Note_on_c, 0, 67, 0
3, 365940, Note_on_c, 0, 66, 51
3, 366120, Note_on_c, 0, 66, 0
3, 366120, Note_on_c, 0, 66, 50
3, 366480, Note_on_c, 0, 66, 0
3, 366480, Note_on_c, 0, 64, 51
3, 367560, Note_on_c, 0, 64, 0
3, 367560, Note_on_c, 0, 62, 41
3, 369540, Note_on_c, 0, 62, 0
3, 370080, Note_on_c, 0, 62, 35
3, 371160, Note_on_c, 0, 62, 0
3, 371160, Note_on_c, 0, 61, 46
3, 372060, Note_on_c, 0, 61, 0
3, 372240, Note_on_c, 0, 61, 61
3, 372420, Note_on_c, 0, 61, 0
3, 372420, Note_on_c, 0, 59, 66
3, 372600, Note_on_c, 0, 59, 0
3, 372600, Note_on_c, 0, 59, 67
3, 372960, Note_on_c, 0, 59, 0
3, 372960, Note_on_c, 0, 58, 53
3, 374040, Note_on_c, 0, 58, 0
3, 374040, Note_on_c, 0, 57, 75
3, 376380, Note_on_c, 0, 57, 0
3, 378000, Note_on_c, 0, 53, 68
3, 378000, Note_on_c, 0, 58, 68
3, 378000, Note_on_c, 0, 29, 71
3, 378000, Note_on_c, 0, 41, 71
3, 378360, Note_on_c, 0, 58, 0
3, 378360, Note_on_c, 0, 53, 0
3, 378360, Note_on_c, 0, 50, 71
3, 378720, Note_on_c, 0, 50, 0
3, 378720, Note_on_c, 0, 58, 111
3, 378720, Note_on_c, 0, 62, 111
3, 379353, Note_on_c, 0, 62, 0
3, 379353, Note_on_c, 0, 58, 0
3, 379440, Note_on_c, 0, 29, 0
3, 379440, Note_on_c, 0, 41, 0
3, 380520, Note_on_c, 0, 52, 76
3, 380520, Note_on_c, 0, 57, 76
3, 380520, Note_on_c, 0, 28, 72
3, 380520, Note_on_c, 0, 40, 72
3, 380880, Note_on_c, 0, 57, 0
3, 380880, Note_on_c, 0, 52, 0
3, 380880, Note_on_c, 0, 49, 73
3, 381240, Note_on_c, 0, 49, 0
3, 381240, Note_on_c, 0, 57, 111
3, 381240, Note_on_c, 0, 61, 111
3, 381873, Note_on_c, 0, 61, 0
3, 381873, Note_on_c, 0, 57, 0
3, 381960, Note_on_c, 0, 28, 0
3, 381960, Note_on_c, 0, 40, 0
3, 383040, Note_on_c, 0, 58, 70
3, 383040, Note_on_c, 0, 63, 70
3, 383040, Note_on_c, 0, 34, 73
3, 383040, Note_on_c, 0, 46, 73
3, 383400, Note_on_c, 0, 63, 0
3, 383400, Note_on_c, 0, 58, 0
3, 383400, Note_on_c, 0, 55, 69
3, 383760, Note_on_c, 0, 55, 0
3, 383760, Note_on_c, 0, 63, 111
3, 383760, Note_on_c, 0, 67, 111
3, 384393, Note_on_c, 0, 67, 0
3, 384393, Note_on_c, 0, 63, 0
3, 384480, Note_on_c, 0, 34, 0
3, 384480, Note_on_c, 0, 46, 0
3, 385560, Note_on_c, 0, 57, 69
3, 385560, Note_on_c, 0, 62, 69
3, 385560, Note_on_c, 0, 33, 78
3, 385560, Note_on_c, 0, 45, 78
3, 385920, Note_on_c, 0, 62, 0
3, 385920, Note_on_c, 0, 57, 0
3, 385920, Note_on_c, 0, 54, 75
3, 386280, Note_on_c, 0, 54, 0
3, 386280, Note_on_c, 0, 62, 111
3, 386280, Note_on_c, 0, 66, 111
3, 386913, Note_on_c, 0, 66, 0
3, 386913, Note_on_c, 0, 62, 0
3, 387000, Note_on_c, 0, 62, 67
3, 387000, Note_on_c, 0, 66, 67
3, 387120, Note_on_c, 0, 66, 0
3, 387120, Note_on_c, 0, 62, 0
3, 387120, Note_on_c, 0, 54, 68
3, 387239, Note_on_c, 0, 54, 0
3, 387239, Note_on_c, 0, 62, 68
3, 387239, Note_on_c, 0, 66, 68
3, 387360, Note_on_c, 0, 66, 0
3, 387360, Note_on_c, 0, 62, 0
3, 387360, Note_on_c, 0, 62, 69
3, 387360, Note_on_c, 0, 66, 69
3, 387480, Note_on_c, 0, 66, 0
3, 387480, Note_on_c, 0, 62, 0
3, 387480, Note_on_c, 0, 54, 70
3, 387599, Note_on_c, 0, 54, 0
3, 387599, Note_on_c, 0, 62, 70
3, 387599, Note_on_c, 0, 66, 70
3, 387720, Note_on_c, 0, 66, 0
3, 387720, Note_on_c, 0, 45, 0
3, 387720, Note_on_c, 0, 33, 0
3, 387720, Note_on_c, 0, 62, 0
3, 387720, Note_on_c, 0, 62, 71
3, 387720, Note_on_c, 0, 66, 71
3, 387720, Note_on_c, 0, 33, 71
3, 387720, Note_on_c, 0, 45, 71
3, 387840, Note_on_c, 0, 66, 0
3, 387840, Note_on_c, 0, 62, 0
3, 387840, Note_on_c, 0, 54, 71
3, 387959, Note_on_c, 0, 54, 0
3, 387959, Note_on_c, 0, 62, 72
3, 387959, Note_on_c, 0, 66, 72
3, 388080, Note_on_c, 0, 66, 0
3, 388080, Note_on_c, 0, 62, 0
3, 388080, Note_on_c, 0, 62, 72
3, 388080, Note_on_c, 0, 66, 72
3, 388200, Note_on_c, 0, 66, 0
3, 388200, Note_on_c, 0, 62, 0
3, 388200, Note_on_c, 0, 54, 73
3, 388319, Note_on_c, 0, 54, 0
3, 388319, Note_on_c, 0, 62, 73
3, 388319, Note_on_c, 0, 66, 73
3, 388440, Note_on_c, 0, 66, 0
3, 388440, Note_on_c, 0, 45, 0
3, 388440, Note_on_c, 0, 33, 0
3, 388440, Note_on_c, 0, 62, 0
3, 388440, Note_on_c, 0, 63, 74
3, 388440, Note_on_c, 0, 67, 74
3, 388440, Note_on_c, 0, 34, 74
3, 388440, Note_on_c, 0, 46, 74
3, 388560, Note_on_c, 0, 67, 0
3, 388560, Note_on_c, 0, 63, 0
3, 388560, Note_on_c, 0, 55, 74
3, 388679, Note_on_c, 0, 55, 0
3, 388679, Note_on_c, 0, 63, 75
3, 388679, Note_on_c, 0, 67, 75
3, 388800, Note_on_c, 0, 67, 0
3, 388800, Note_on_c, 0, 63, 0
3, 388800, Note_on_c, 0, 63, 76
3, 388800, Note_on_c, 0, 67, 76
3, 388920, Note_on_c, 0, 67, 0
3, 388920, Note_on_c, 0, 63, 0
3, 388920, Note_on_c, 0, 55, 76
3, 389039, Note_on_c, 0, 55, 0
3, 389039, Note_on_c, 0, 63, 77
3, 389039, Note_on_c, 0, 67, 77
3, 389160, Note_on_c, 0, 67, 0
3, 389160, Note_on_c, 0, 63, 0
3, 389160, Note_on_c, 0, 63, 77
3, 389264, Note_on_c, 0, 63, 0
3, 389280, Note_on_c, 0, 55, 78
3, 389389, Note_on_c, 0, 34, 0
3, 389389, Note_on_c, 0, 46, 0
3, 389399, Note_on_c, 0, 55, 0
3, 389399, Note_on_c, 0, 62, 78
3, 389505, Note_on_c, 0, 62, 0
3, 389520, Note_on_c, 0, 55, 79
3, 389520, Note_on_c, 0, 61, 79
3, 389520, Note_on_c, 0, 33, 79
3, 389520, Note_on_c, 0, 45, 79
3, 389837, Note_on_c, 0, 45, 0
3, 389837, Note_on_c, 0, 55, 0
3, 389837, Note_on_c, 0, 61, 0
3, 389837, Note_on_c, 0, 33, 0
3, 389880, Note_on_c, 0, 54, 111
3, 389880, Note_on_c, 0, 62, 111
3, 389880, Note_on_c, 0, 45, 111
3, 389880, Note_on_c, 0, 38, 78
3, 390960, Note_on_c, 0, 45, 0
3, 390960, Note_on_c, 0, 54, 0
3, 390960, Note_on_c, 0, 62, 0
3, 390960, Note_on_c, 0, 50, 66
3, 390960, Note_on_c, 0, 57, 66
3, 390960, Note_on_c, 0, 45, 61
3, 391320, Note_on_c, 0, 45, 0
3, 391320, Note_on_c, 0, 38, 0
3, 391320, Note_on_c, 0, 50, 0
3, 391320, Note_on_c, 0, 57, 0
3, 391320, Note_on_c, 0, 55, 74
3, 391320, Note_on_c, 0, 58, 74
3, 391320, Note_on_c, 0, 46, 69
3, 391320, Note_on_c, 0, 38, 88
3, 392400, Note_on_c, 0, 58, 0
3, 392400, Note_on_c, 0, 55, 0
3, 392400, Note_on_c, 0, 49, 60
3, 392400, Note_on_c, 0, 55, 60
3, 392760, Note_on_c, 0, 55, 0
3, 392760, Note_on_c, 0, 38, 0
3, 392760, Note_on_c, 0, 46, 0
3, 392760, Note_on_c, 0, 49, 0
3, 392760, Note_on_c, 0, 50, 100
3, 392760, Note_on_c, 0, 54, 100
3, 392760, Note_on_c, 0, 45, 74
3, 392760, Note_on_c, 0, 38, 87
3, 393840, Note_on_c, 0, 45, 0
3, 393840, Note_on_c, 0, 50, 0
3, 393840, Note_on_c, 0, 54, 0
3, 393840, Note_on_c, 0, 50, 59
3, 393840, Note_on_c, 0, 46, 72
3, 394200, Note_on_c, 0, 46, 0
3, 394200, Note_on_c, 0, 50, 0
3, 394200, Note_on_c, 0, 38, 0
3, 394200, Note_on_c, 0, 47, 64
3, 394200, Note_on_c, 0, 38, 52
3, 394920, Note_on_c, 0, 47, 0
3, 394920, Note_on_c, 0, 46, 67
3, 395280, Note_on_c, 0, 46, 0
3, 395280, Note_on_c, 0, 45, 54
3, 395820, Note_on_c, 0, 45, 0
3, 395820, Note_on_c, 0, 38, 0
3, 396000, Note_on_c, 0, 45, 62
3, 396000, Note_on_c, 0, 38, 73
3, 396540, Note_on_c, 0, 38, 0
3, 396540, Note_on_c, 0, 45, 0
3, 397440, Note_on_c, 0, 55, 54
3, 397598, Note_on_c, 0, 55, 0
3, 397620, Note_on_c, 0, 54, 58
3, 397778, Note_on_c, 0, 54, 0
3, 397800, Note_on_c, 0, 51, 54
3, 397800, Note_on_c, 0, 46, 26
3, 397958, Note_on_c, 0, 51, 0
3, 397980, Note_on_c, 0, 50, 53
3, 398138, Note_on_c, 0, 50, 0
3, 398160, Note_on_c, 0, 49, 54
3, 398264, Note_on_c, 0, 49, 0
3, 398280, Note_on_c, 0, 50, 54
3, 398384, Note_on_c, 0, 50, 0
3, 398399, Note_on_c, 0, 51, 60
3, 398505, Note_on_c, 0, 51, 0
3, 398520, Note_on_c, 0, 46, 0
3, 398520, Note_on_c, 0, 50, 42
3, 398520, Note_on_c, 0, 45, 34
3, 399060, Note_on_c, 0, 45, 0
3, 399060, Note_on_c, 0, 50, 0
3, 399060, Note_on_c, 0, 49, 43
3, 399060, Note_on_c, 0, 37, 32
3, 399119, Note_on_c, 0, 37, 0
3, 399119, Note_on_c, 0, 49, 0
3, 399119, Note_on_c, 0, 50, 46
3, 399119, Note_on_c, 0, 38, 39
3, 399180, Note_on_c, 0, 38, 0
3, 399180, Note_on_c, 0, 50, 0
3, 399180, Note_on_c, 0, 51, 49
3, 399180, Note_on_c, 0, 39, 36
3, 399240, Note_on_c, 0, 39, 0
3, 399240, Note_on_c, 0, 51, 0
3, 399240, Note_on_c, 0, 50, 40
3, 399240, Note_on_c, 0, 38, 33
3, 399600, Note_on_c, 0, 38, 0
3, 399600, Note_on_c, 0, 50, 0
3, 399780, Note_on_c, 0, 49, 40
3, 399780, Note_on_c, 0, 37, 30
3, 399839, Note_on_c, 0, 37, 0
3, 399839, Note_on_c, 0, 49, 0
3, 399839, Note_on_c, 0, 50, 42
3, 399839, Note_on_c, 0, 38, 35
3, 399900, Note_on_c, 0, 38, 0
3, 399900, Note_on_c, 0, 50, 0
3, 399900, Note_on_c, 0, 51, 45
3, 399900, Note_on_c, 0, 39, 35
3, 399960, Note_on_c, 0, 39, 0
3, 399960, Note_on_c, 0, 51, 0
3, 399960, Note_on_c, 0, 50, 43
3, 399960, Note_on_c, 0, 38, 35
3, 400320, Note_on_c, 0, 38, 0
3, 400320, Note_on_c, 0, 50, 0
3, 400320, Note_on_c, 0, 62, 65
3, 401400, Note_on_c, 0, 62, 0
3, 401400, Note_on_c, 0, 62, 49
3, 401400, Note_on_c, 0, 51, 105
3, 401400, Note_on_c, 0, 58, 105
3, 401400, Note_on_c, 0, 63, 105
3, 401400, Note_on_c, 0, 31, 57
3, 401400, Note_on_c, 0, 43, 57
3, 401580, Note_on_c, 0, 43, 0
3, 401580, Note_on_c, 0, 51, 0
3, 401580, Note_on_c, 0, 58, 0
3, 401580, Note_on_c, 0, 63, 0
3, 401580, Note_on_c, 0, 31, 0
3, 402840, Note_on_c, 0, 62, 0
3, 402840, Note_on_c, 0, 62, 41
3, 402840, Note_on_c, 0, 52, 77
3, 402840, Note_on_c, 0, 59, 77
3, 402840, Note_on_c, 0, 64, 77
3, 402840, Note_on_c, 0, 32, 51
3, 402840, Note_on_c, 0, 44, 51
3, 403020, Note_on_c, 0, 44, 0
3, 403020, Note_on_c, 0, 52, 0
3, 403020, Note_on_c, 0, 59, 0
3, 403020, Note_on_c, 0, 64, 0
3, 403020, Note_on_c, 0, 32, 0
3, 404280, Note_on_c, 0, 62, 0
3, 404280, Note_on_c, 0, 62, 51
3, 404280, Note_on_c, 0, 53, 81
3, 404280, Note_on_c, 0, 60, 81
3, 404280, Note_on_c, 0, 65, 81
3, 404280, Note_on_c, 0, 34, 53
3, 404280, Note_on_c, 0, 46, 53
3, 404460, Note_on_c, 0, 46, 0
3, 404460, Note_on_c, 0, 53, 0
3, 404460, Note_on_c, 0, 60, 0
3, 404460, Note_on_c, 0, 65, 0
3, 404460, Note_on_c, 0, 34, 0
3, 404640, Note_on_c, 0, 54, 77
3, 404640, Note_on_c, 0, 60, 77
3, 404640, Note_on_c, 0, 66, 77
3, 404640, Note_on_c, 0, 34, 54
3, 404640, Note_on_c, 0, 46, 54
3, 404820, Note_on_c, 0, 46, 0
3, 404820, Note_on_c, 0, 54, 0
3, 404820, Note_on_c, 0, 60, 0
3, 404820, Note_on_c, 0, 66, 0
3, 404820, Note_on_c, 0, 34, 0
3, 405720, Note_on_c, 0, 62, 0
3, 405720, Note_on_c, 0, 62, 45
3, 406080, Note_on_c, 0, 53, 80
3, 406080, Note_on_c, 0, 60, 80
3, 406080, Note_on_c, 0, 65, 80
3, 406080, Note_on_c, 0, 33, 52
3, 406080, Note_on_c, 0, 45, 52
3, 406260, Note_on_c, 0, 45, 0
3, 406260, Note_on_c, 0, 53, 0
3, 406260, Note_on_c, 0, 60, 0
3, 406260, Note_on_c, 0, 65, 0
3, 406260, Note_on_c, 0, 33, 0
3, 406440, Note_on_c, 0, 54, 74
3, 406440, Note_on_c, 0, 60, 74
3, 406440, Note_on_c, 0, 66, 74
3, 406440, Note_on_c, 0, 33, 53
3, 406440, Note_on_c, 0, 45, 53
3, 406620, Note_on_c, 0, 45, 0
3, 406620, Note_on_c, 0, 54, 0
3, 406620, Note_on_c, 0, 60, 0
3, 406620, Note_on_c, 0, 66, 0
3, 406620, Note_on_c, 0, 33, 0
3, 406800, Note_on_c, 0, 55, 78
3, 406800, Note_on_c, 0, 62, 78
3, 406800, Note_on_c, 0, 67, 78
3, 406800, Note_on_c, 0, 34, 55
3, 406800, Note_on_c, 0, 46, 55
3, 406980, Note_on_c, 0, 46, 0
3, 406980, Note_on_c, 0, 67, 0
3, 406980, Note_on_c, 0, 55, 0
3, 406980, Note_on_c, 0, 62, 0
3, 406980, Note_on_c, 0, 34, 0
3, 407160, Note_on_c, 0, 62, 0
3, 407160, Note_on_c, 0, 56, 73
3, 407160, Note_on_c, 0, 62, 73
3, 407160, Note_on_c, 0, 68, 73
3, 407160, Note_on_c, 0, 40, 56
3, 407160, Note_on_c, 0, 47, 56
3, 407340, Note_on_c, 0, 47, 0
3, 407340, Note_on_c, 0, 68, 0
3, 407340, Note_on_c, 0, 56, 0
3, 407340, Note_on_c, 0, 62, 0
3, 407340, Note_on_c, 0, 40, 0
3, 407520, Note_on_c, 0, 62, 51
3, 408960, Note_on_c, 0, 62, 0
3, 408960, Note_on_c, 0, 62, 35
3, 410040, Note_on_c, 0, 56, 41
3, 411307, Note_on_c, 0, 56, 0
3, 411480, Note_on_c, 0, 57, 46
3, 412747, Note_on_c, 0, 57, 0
3, 412920, Note_on_c, 0, 62, 0
3, 412920, Note_on_c, 0, 50, 44
3, 412920, Note_on_c, 0, 53, 44
3, 412920, Note_on_c, 0, 58, 44
3, 412920, Note_on_c, 0, 62, 44
3, 412920, Note_on_c, 0, 29, 44
3, 412959, Note_on_c, 0, 29, 0
3, 412971, Note_on_c, 0, 41, 45
3, 413010, Note_on_c, 0, 41, 0
3, 413021, Note_on_c, 0, 29, 45
3, 413061, Note_on_c, 0, 29, 0
3, 413072, Note_on_c, 0, 41, 45
3, 413111, Note_on_c, 0, 41, 0
3, 413123, Note_on_c, 0, 29, 46
3, 413162, Note_on_c, 0, 29, 0
3, 413173, Note_on_c, 0, 41, 46
3, 413213, Note_on_c, 0, 41, 0
3, 413224, Note_on_c, 0, 29, 46
3, 413263, Note_on_c, 0, 29, 0
3, 413274, Note_on_c, 0, 41, 47
3, 413314, Note_on_c, 0, 41, 0
3, 413325, Note_on_c, 0, 29, 47
3, 413364, Note_on_c, 0, 29, 0
3, 413376, Note_on_c, 0, 41, 47
3, 413415, Note_on_c, 0, 41, 0
3, 413426, Note_on_c, 0, 29, 47
3, 413466, Note_on_c, 0, 29, 0
3, 413477, Note_on_c, 0, 41, 48
3, 413516, Note_on_c, 0, 41, 0
3, 413528, Note_on_c, 0, 29, 48
3, 413567, Note_on_c, 0, 29, 0
3, 413578, Note_on_c, 0, 41, 48
3, 413618, Note_on_c, 0, 41, 0
3, 413629, Note_on_c, 0, 29, 49
3, 413668, Note_on_c, 0, 29, 0
3, 413679, Note_on_c, 0, 41, 49
3, 413719, Note_on_c, 0, 41, 0
3, 413730, Note_on_c, 0, 29, 49
3, 413769, Note_on_c, 0, 29, 0
3, 413781, Note_on_c, 0, 41, 50
3, 413820, Note_on_c, 0, 41, 0
3, 413831, Note_on_c, 0, 29, 50
3, 413871, Note_on_c, 0, 29, 0
3, 413882, Note_on_c, 0, 41, 50
3, 413921, Note_on_c, 0, 41, 0
3, 413933, Note_on_c, 0, 29, 50
3, 413972, Note_on_c, 0, 29, 0
3, 413983, Note_on_c, 0, 41, 51
3, 414023, Note_on_c, 0, 41, 0
3, 414034, Note_on_c, 0, 29, 51
3, 414073, Note_on_c, 0, 29, 0
3, 414084, Note_on_c, 0, 41, 51
3, 414124, Note_on_c, 0, 41, 0
3, 414135, Note_on_c, 0, 29, 52
3, 414174, Note_on_c, 0, 29, 0
3, 414186, Note_on_c, 0, 41, 52
3, 414225, Note_on_c, 0, 41, 0
3, 414236, Note_on_c, 0, 29, 52
3, 414276, Note_on_c, 0, 29, 0
3, 414287, Note_on_c, 0, 41, 52
3, 414326, Note_on_c, 0, 41, 0
3, 414338, Note_on_c, 0, 29, 53
3, 414377, Note_on_c, 0, 29, 0
3, 414388, Note_on_c, 0, 41, 53
3, 414428, Note_on_c, 0, 41, 0
3, 414439, Note_on_c, 0, 29, 53
3, 414478, Note_on_c, 0, 29, 0
3, 414489, Note_on_c, 0, 41, 54
3, 414529, Note_on_c, 0, 41, 0
3, 414540, Note_on_c, 0, 29, 54
3, 414579, Note_on_c, 0, 29, 0
3, 414591, Note_on_c, 0, 41, 54
3, 414630, Note_on_c, 0, 41, 0
3, 414641, Note_on_c, 0, 29, 55
3, 414681, Note_on_c, 0, 29, 0
3, 414692, Note_on_c, 0, 41, 55
3, 414731, Note_on_c, 0, 41, 0
3, 414743, Note_on_c, 0, 29, 55
3, 414782, Note_on_c, 0, 29, 0
3, 414793, Note_on_c, 0, 41, 55
3, 414820, Note_on_c, 0, 58, 0
3, 414820, Note_on_c, 0, 62, 0
3, 414820, Note_on_c, 0, 50, 0
3, 414820, Note_on_c, 0, 53, 0
3, 414833, Note_on_c, 0, 41, 0
3, 414844, Note_on_c, 0, 29, 56
3, 414883, Note_on_c, 0, 29, 0
3, 414894, Note_on_c, 0, 41, 56
3, 414934, Note_on_c, 0, 41, 0
3, 414945, Note_on_c, 0, 29, 56
3, 414984, Note_on_c, 0, 29, 0
3, 414996, Note_on_c, 0, 41, 57
3, 415035, Note_on_c, 0, 41, 0
3, 415046, Note_on_c, 0, 29, 57
3, 415080, Note_on_c, 0, 50, 111
3, 415080, Note_on_c, 0, 54, 111
3, 415080, Note_on_c, 0, 58, 111
3, 415080, Note_on_c, 0, 62, 111
3, 415080, Note_on_c, 0, 30, 97
3, 415086, Note_on_c, 0, 29, 0
3, 415119, Note_on_c, 0, 30, 0
3, 415131, Note_on_c, 0, 42, 97
3, 415170, Note_on_c, 0, 42, 0
3, 415181, Note_on_c, 0, 30, 97
3, 415221, Note_on_c, 0, 30, 0
3, 415232, Note_on_c, 0, 42, 97
3, 415260, Note_on_c, 0, 58, 0
3, 415260, Note_on_c, 0, 62, 0
3, 415260, Note_on_c, 0, 50, 0
3, 415260, Note_on_c, 0, 54, 0
3, 415260, Note_on_c, 0, 50, 97
3, 415260, Note_on_c, 0, 54, 97
3, 415260, Note_on_c, 0, 58, 97
3, 415260, Note_on_c, 0, 62, 97
3, 415271, Note_on_c, 0, 42, 0
3, 415283, Note_on_c, 0, 30, 96
3, 415322, Note_on_c, 0, 30, 0
3, 415333, Note_on_c, 0, 42, 96
3, 415373, Note_on_c, 0, 42, 0
3, 415384, Note_on_c, 0, 30, 95
3, 415423, Note_on_c, 0, 30, 0
3, 415434, Note_on_c, 0, 42, 94
3, 415474, Note_on_c, 0, 42, 0
3, 415485, Note_on_c, 0, 30, 94
3, 415524, Note_on_c, 0, 30, 0
3, 415536, Note_on_c, 0, 42, 93
3, 415575, Note_on_c, 0, 42, 0
3, 415586, Note_on_c, 0, 30, 93
3, 415626, Note_on_c, 0, 30, 0
3, 415637, Note_on_c, 0, 42, 92
3, 415676, Note_on_c, 0, 42, 0
3, 415688, Note_on_c, 0, 30, 92
3, 415727, Note_on_c, 0, 30, 0
3, 415738, Note_on_c, 0, 42, 91
3, 415778, Note_on_c, 0, 42, 0
3, 415789, Note_on_c, 0, 30, 90
3, 415828, Note_on_c, 0, 30, 0
3, 415839, Note_on_c, 0, 42, 90
3, 415879, Note_on_c, 0, 42, 0
3, 415890, Note_on_c, 0, 30, 89
3, 415929, Note_on_c, 0, 30, 0
3, 415941, Note_on_c, 0, 42, 89
3, 415980, Note_on_c, 0, 42, 0
3, 415991, Note_on_c, 0, 30, 88
3, 416031, Note_on_c, 0, 30, 0
3, 416042, Note_on_c, 0, 42, 87
3, 416081, Note_on_c, 0, 42, 0
3, 416093, Note_on_c, 0, 30, 87
3, 416132, Note_on_c, 0, 30, 0
3, 416143, Note_on_c, 0, 42, 86
3, 416183, Note_on_c, 0, 42, 0
3, 416194, Note_on_c, 0, 30, 86
3, 416233, Note_on_c, 0, 30, 0
3, 416244, Note_on_c, 0, 42, 85
3, 416284, Note_on_c, 0, 42, 0
3, 416295, Note_on_c, 0, 30, 84
3, 416334, Note_on_c, 0, 30, 0
3, 416346, Note_on_c, 0, 42, 84
3, 416385, Note_on_c, 0, 42, 0
3, 416396, Note_on_c, 0, 30, 83
3, 416436, Note_on_c, 0, 30, 0
3, 416447, Note_on_c, 0, 42, 83
3, 416486, Note_on_c, 0, 42, 0
3, 416498, Note_on_c, 0, 30, 82
3, 416537, Note_on_c, 0, 30, 0
3, 416548, Note_on_c, 0, 42, 82
3, 416588, Note_on_c, 0, 42, 0
3, 416599, Note_on_c, 0, 30, 81
3, 416638, Note_on_c, 0, 30, 0
3, 416649, Note_on_c, 0, 42, 80
3, 416689, Note_on_c, 0, 42, 0
3, 416700, Note_on_c, 0, 30, 80
3, 416739, Note_on_c, 0, 30, 0
3, 416751, Note_on_c, 0, 42, 79
3, 416790, Note_on_c, 0, 42, 0
3, 416801, Note_on_c, 0, 30, 79
3, 416841, Note_on_c, 0, 30, 0
3, 416852, Note_on_c, 0, 42, 78
3, 416891, Note_on_c, 0, 42, 0
3, 416903, Note_on_c, 0, 30, 77
3, 416942, Note_on_c, 0, 30, 0
3, 416953, Note_on_c, 0, 42, 77
3, 416993, Note_on_c, 0, 42, 0
3, 417004, Note_on_c, 0, 30, 76
3, 417043, Note_on_c, 0, 30, 0
3, 417054, Note_on_c, 0, 42, 76
3, 417094, Note_on_c, 0, 42, 0
3, 417105, Note_on_c, 0, 30, 75
3, 417144, Note_on_c, 0, 30, 0
3, 417156, Note_on_c, 0, 42, 74
3, 417195, Note_on_c, 0, 42, 0
3, 417206, Note_on_c, 0, 30, 74
3, 417240, Note_on_c, 0, 58, 0
3, 417240, Note_on_c, 0, 62, 0
3, 417240, Note_on_c, 0, 50, 0
3, 417240, Note_on_c, 0, 54, 0
3, 417240, Note_on_c, 0, 53, 44
3, 417240, Note_on_c, 0, 58, 44
3, 417240, Note_on_c, 0, 62, 44
3, 417240, Note_on_c, 0, 65, 44
3, 417240, Note_on_c, 0, 34, 44
3, 417246, Note_on_c, 0, 30, 0
3, 417279, Note_on_c, 0, 34, 0
3, 417291, Note_on_c, 0, 46, 45
3, 417330, Note_on_c, 0, 46, 0
3, 417341, Note_on_c, 0, 34, 45
3, 417381, Note_on_c, 0, 34, 0
3, 417392, Note_on_c, 0, 46, 45
3, 417431, Note_on_c, 0, 46, 0
3, 417443, Note_on_c, 0, 34, 46
3, 417482, Note_on_c, 0, 34, 0
3, 417493, Note_on_c, 0, 46, 46
3, 417533, Note_on_c, 0, 46, 0
3, 417544, Note_on_c, 0, 34, 46
3, 417583, Note_on_c, 0, 34, 0
3, 417594, Note_on_c, 0, 46, 47
3, 417634, Note_on_c, 0, 46, 0
3, 417645, Note_on_c, 0, 34, 47
3, 417684, Note_on_c, 0, 34, 0
3, 417696, Note_on_c, 0, 46, 47
3, 417735, Note_on_c, 0, 46, 0
3, 417746, Note_on_c, 0, 34, 47
3, 417786, Note_on_c, 0, 34, 0
3, 417797, Note_on_c, 0, 46, 48
3, 417836, Note_on_c, 0, 46, 0
3, 417848, Note_on_c, 0, 34, 48
3, 417887, Note_on_c, 0, 34, 0
3, 417898, Note_on_c, 0, 46, 48
3, 417938, Note_on_c, 0, 46, 0
3, 417949, Note_on_c, 0, 34, 49
3, 417988, Note_on_c, 0, 34, 0
3, 417999, Note_on_c, 0, 46, 49
3, 418039, Note_on_c, 0, 46, 0
3, 418050, Note_on_c, 0, 34, 49
3, 418089, Note_on_c, 0, 34, 0
3, 418101, Note_on_c, 0, 46, 50
3, 418140, Note_on_c, 0, 46, 0
3, 418151, Note_on_c, 0, 34, 50
3, 418191, Note_on_c, 0, 34, 0
3, 418202, Note_on_c, 0, 46, 50
3, 418241, Note_on_c, 0, 46, 0
3, 418253, Note_on_c, 0, 34, 50
3, 418292, Note_on_c, 0, 34, 0
3, 418303, Note_on_c, 0, 46, 51
3, 418343, Note_on_c, 0, 46, 0
3, 418354, Note_on_c, 0, 34, 51
3, 418393, Note_on_c, 0, 34, 0
3, 418404, Note_on_c, 0, 46, 51
3, 418444, Note_on_c, 0, 46, 0
3, 418455, Note_on_c, 0, 34, 52
3, 418494, Note_on_c, 0, 34, 0
3, 418506, Note_on_c, 0, 46, 52
3, 418545, Note_on_c, 0, 46, 0
3, 418556, Note_on_c, 0, 34, 52
3, 418596, Note_on_c, 0, 34, 0
3, 418607, Note_on_c, 0, 46, 52
3, 418646, Note_on_c, 0, 46, 0
3, 418658, Note_on_c, 0, 34, 53
3, 418697, Note_on_c, 0, 34, 0
3, 418708, Note_on_c, 0, 46, 53
3, 418748, Note_on_c, 0, 46, 0
3, 418759, Note_on_c, 0, 34, 53
3, 418798, Note_on_c, 0, 34, 0
3, 418809, Note_on_c, 0, 46, 54
3, 418849, Note_on_c, 0, 46, 0
3, 418860, Note_on_c, 0, 34, 54
3, 418899, Note_on_c, 0, 34, 0
3, 418911, Note_on_c, 0, 46, 54
3, 418950, Note_on_c, 0, 46, 0
3, 418961, Note_on_c, 0, 34, 55
3, 419001, Note_on_c, 0, 34, 0
3, 419012, Note_on_c, 0, 46, 55
3, 419051, Note_on_c, 0, 46, 0
3, 419063, Note_on_c, 0, 34, 55
3, 419102, Note_on_c, 0, 34, 0
3, 419113, Note_on_c, 0, 46, 55
3, 419140, Note_on_c, 0, 62, 0
3, 419140, Note_on_c, 0, 65, 0
3, 419140, Note_on_c, 0, 53, 0
3, 419140, Note_on_c, 0, 58, 0
3, 419153, Note_on_c, 0, 46, 0
3, 419164, Note_on_c, 0, 34, 56
3, 419203, Note_on_c, 0, 34, 0
3, 419214, Note_on_c, 0, 46, 56
3, 419254, Note_on_c, 0, 46, 0
3, 419265, Note_on_c, 0, 34, 56
3, 419304, Note_on_c, 0, 34, 0
3, 419316, Note_on_c, 0, 46, 57
3, 419355, Note_on_c, 0, 46, 0
3, 419366, Note_on_c, 0, 34, 57
3, 419400, Note_on_c, 0, 54, 111
3, 419400, Note_on_c, 0, 58, 111
3, 419400, Note_on_c, 0, 62, 111
3, 419400, Note_on_c, 0, 66, 111
3, 419400, Note_on_c, 0, 26, 110
3, 419406, Note_on_c, 0, 34, 0
3, 419439, Note_on_c, 0, 26, 0
3, 419451, Note_on_c, 0, 38, 110
3, 419490, Note_on_c, 0, 38, 0
3, 419501, Note_on_c, 0, 26, 110
3, 419541, Note_on_c, 0, 26, 0
3, 419552, Note_on_c, 0, 38, 110
3, 419580, Note_on_c, 0, 62, 0
3, 419580, Note_on_c, 0, 66, 0
3, 419580, Note_on_c, 0, 54, 0
3, 419580, Note_on_c, 0, 58, 0
3, 419580, Note_on_c, 0, 54, 110
3, 419580, Note_on_c, 0, 58, 110
3, 419580, Note_on_c, 0, 62, 110
3, 419580, Note_on_c, 0, 66, 110
3, 419591, Note_on_c, 0, 38, 0
3, 419603, Note_on_c, 0, 26, 110
3, 419642, Note_on_c, 0, 26, 0
3, 419653, Note_on_c, 0, 38, 110
3, 419693, Note_on_c, 0, 38, 0
3, 419704, Note_on_c, 0, 26, 110
3, 419743, Note_on_c, 0, 26, 0
3, 419754, Note_on_c, 0, 38, 109
3, 419794, Note_on_c, 0, 38, 0
3, 419805, Note_on_c, 0, 26, 109
3, 419844, Note_on_c, 0, 26, 0
3, 419856, Note_on_c, 0, 38, 108
3, 419895, Note_on_c, 0, 38, 0
3, 419906, Note_on_c, 0, 26, 108
3, 419946, Note_on_c, 0, 26, 0
3, 419957, Note_on_c, 0, 38, 108
3, 419996, Note_on_c, 0, 38, 0
3, 420008, Note_on_c, 0, 26, 107
3, 420047, Note_on_c, 0, 26, 0
3, 420058, Note_on_c, 0, 38, 107
3, 420098, Note_on_c, 0, 38, 0
3, 420109, Note_on_c, 0, 26, 106
3, 420148, Note_on_c, 0, 26, 0
3, 420159, Note_on_c, 0, 38, 106
3, 420199, Note_on_c, 0, 38, 0
3, 420210, Note_on_c, 0, 26, 106
3, 420249, Note_on_c, 0, 26, 0
3, 420261, Note_on_c, 0, 38, 105
3, 420300, Note_on_c, 0, 38, 0
3, 420311, Note_on_c, 0, 26, 105
3, 420351, Note_on_c, 0, 26, 0
3, 420362, Note_on_c, 0, 38, 104
3, 420401, Note_on_c, 0, 38, 0
3, 420413, Note_on_c, 0, 26, 104
3, 420452, Note_on_c, 0, 26, 0
3, 420463, Note_on_c, 0, 38, 104
3, 420503, Note_on_c, 0, 38, 0
3, 420514, Note_on_c, 0, 26, 103
3, 420553, Note_on_c, 0, 26, 0
3, 420564, Note_on_c, 0, 38, 103
3, 420604, Note_on_c, 0, 38, 0
3, 420615, Note_on_c, 0, 26, 102
3, 420654, Note_on_c, 0, 26, 0
3, 420666, Note_on_c, 0, 38, 102
3, 420705, Note_on_c, 0, 38, 0
3, 420716, Note_on_c, 0, 26, 102
3, 420756, Note_on_c, 0, 26, 0
3, 420767, Note_on_c, 0, 38, 101
3, 420806, Note_on_c, 0, 38, 0
3, 420818, Note_on_c, 0, 26, 101
3, 420840, Note_on_c, 0, 62, 0
3, 420840, Note_on_c, 0, 66, 0
3, 420840, Note_on_c, 0, 54, 0
3, 420840, Note_on_c, 0, 58, 0
3, 420840, Note_on_c, 0, 50, 101
3, 420840, Note_on_c, 0, 54, 101
3, 420857, Note_on_c, 0, 26, 0
3, 420868, Note_on_c, 0, 38, 100
3, 420908, Note_on_c, 0, 38, 0
3, 420919, Note_on_c, 0, 26, 100
3, 420958, Note_on_c, 0, 26, 0
3, 420969, Note_on_c, 0, 38, 100
3, 421009, Note_on_c, 0, 38, 0
3, 421020, Note_on_c, 0, 26, 99
3, 421059, Note_on_c, 0, 26, 0
3, 421071, Note_on_c, 0, 38, 99
3, 421110, Note_on_c, 0, 38, 0
3, 421121, Note_on_c, 0, 26, 98
3, 421161, Note_on_c, 0, 26, 0
3, 421172, Note_on_c, 0, 38, 98
3, 421211, Note_on_c, 0, 38, 0
3, 421223, Note_on_c, 0, 26, 98
3, 421262, Note_on_c, 0, 26, 0
3, 421273, Note_on_c, 0, 38, 97
3, 421313, Note_on_c, 0, 38, 0
3, 421324, Note_on_c, 0, 26, 97
3, 421363, Note_on_c, 0, 26, 0
3, 421374, Note_on_c, 0, 38, 96
3, 421414, Note_on_c, 0, 38, 0
3, 421425, Note_on_c, 0, 26, 96
3, 421464, Note_on_c, 0, 26, 0
3, 421473, Note_on_c, 0, 54, 0
3, 421473, Note_on_c, 0, 50, 0
3, 421476, Note_on_c, 0, 38, 96
3, 421515, Note_on_c, 0, 38, 0
3, 421526, Note_on_c, 0, 26, 95
3, 421560, Note_on_c, 0, 50, 43
3, 421560, Note_on_c, 0, 30, 31
3, 421566, Note_on_c, 0, 26, 0
3, 421632, Note_on_c, 0, 30, 0
3, 421650, Note_on_c, 0, 42, 42
3, 421722, Note_on_c, 0, 42, 0
3, 421740, Note_on_c, 0, 30, 31
3, 421812, Note_on_c, 0, 30, 0
3, 421830, Note_on_c, 0, 42, 42
3, 421902, Note_on_c, 0, 42, 0
3, 421920, Note_on_c, 0, 30, 31
3, 421992, Note_on_c, 0, 30, 0
3, 422010, Note_on_c, 0, 42, 42
3, 422082, Note_on_c, 0, 42, 0
3, 422100, Note_on_c, 0, 30, 31
3, 422172, Note_on_c, 0, 30, 0
3, 422190, Note_on_c, 0, 42, 42
3, 422262, Note_on_c, 0, 42, 0
3, 422280, Note_on_c, 0, 30, 31
3, 422352, Note_on_c, 0, 30, 0
3, 422370, Note_on_c, 0, 42, 42
3, 422442, Note_on_c, 0, 42, 0
3, 422460, Note_on_c, 0, 30, 31
3, 422532, Note_on_c, 0, 30, 0
3, 422550, Note_on_c, 0, 42, 42
3, 422622, Note_on_c, 0, 42, 0
3, 422640, Note_on_c, 0, 30, 31
3, 422712, Note_on_c, 0, 30, 0
3, 422730, Note_on_c, 0, 42, 42
3, 422802, Note_on_c, 0, 42, 0
3, 422820, Note_on_c, 0, 30, 31
3, 422827, Note_on_c, 0, 50, 0
3, 422892, Note_on_c, 0, 30, 0
3, 422910, Note_on_c, 0, 42, 42
3, 422982, Note_on_c, 0, 42, 0
3, 423000, Note_on_c, 0, 50, 43
3, 423000, Note_on_c, 0, 30, 32
3, 423072, Note_on_c, 0, 30, 0
3, 423090, Note_on_c, 0, 42, 39
3, 423162, Note_on_c, 0, 42, 0
3, 423180, Note_on_c, 0, 30, 32
3, 423252, Note_on_c, 0, 30, 0
3, 423270, Note_on_c, 0, 42, 39
3, 423342, Note_on_c, 0, 42, 0
3, 423360, Note_on_c, 0, 30, 32
3, 423432, Note_on_c, 0, 30, 0
3, 423450, Note_on_c, 0, 42, 39
3, 423522, Note_on_c, 0, 42, 0
3, 423540, Note_on_c, 0, 30, 32
3, 423612, Note_on_c, 0, 30, 0
3, 423630, Note_on_c, 0, 42, 39
3, 423702, Note_on_c, 0, 42, 0
3, 423720, Note_on_c, 0, 30, 32
3, 423792, Note_on_c, 0, 30, 0
3, 423810, Note_on_c, 0, 42, 39
3, 423882, Note_on_c, 0, 42, 0
3, 423900, Note_on_c, 0, 30, 32
3, 423972, Note_on_c, 0, 30, 0
3, 423990, Note_on_c, 0, 42, 39
3, 424062, Note_on_c, 0, 42, 0
3, 424080, Note_on_c, 0, 30, 32
3, 424152, Note_on_c, 0, 30, 0
3, 424170, Note_on_c, 0, 42, 39
3, 424242, Note_on_c, 0, 42, 0
3, 424260, Note_on_c, 0, 30, 32
3, 424267, Note_on_c, 0, 50, 0
3, 424332, Note_on_c, 0, 30, 0
3, 424350, Note_on_c, 0, 42, 39
3, 424422, Note_on_c, 0, 42, 0
3, 424440, Note_on_c, 0, 50, 42
3, 424440, Note_on_c, 0, 30, 27
3, 424512, Note_on_c, 0, 30, 0
3, 424530, Note_on_c, 0, 42, 37
3, 424602, Note_on_c, 0, 42, 0
3, 424620, Note_on_c, 0, 30, 27
3, 424692, Note_on_c, 0, 30, 0
3, 424710, Note_on_c, 0, 42, 37
3, 424782, Note_on_c, 0, 42, 0
3, 424800, Note_on_c, 0, 30, 27
3, 424872, Note_on_c, 0, 30, 0
3, 424890, Note_on_c, 0, 42, 37
3, 424914, Note_on_c, 0, 50, 0
3, 424962, Note_on_c, 0, 42, 0
3, 424980, Note_on_c, 0, 50, 34
3, 424980, Note_on_c, 0, 30, 27
3, 425052, Note_on_c, 0, 30, 0
3, 425070, Note_on_c, 0, 42, 37
3, 425142, Note_on_c, 0, 42, 0
3, 425160, Note_on_c, 0, 50, 0
3, 425160, Note_on_c, 0, 51, 37
3, 425160, Note_on_c, 0, 31, 37
3, 425232, Note_on_c, 0, 31, 0
3, 425250, Note_on_c, 0, 43, 39
3, 425322, Note_on_c, 0, 43, 0
3, 425340, Note_on_c, 0, 31, 41
3, 425412, Note_on_c, 0, 31, 0
3, 425430, Note_on_c, 0, 43, 42
3, 425502, Note_on_c, 0, 43, 0
3, 425520, Note_on_c, 0, 31, 44
3, 425592, Note_on_c, 0, 31, 0
3, 425610, Note_on_c, 0, 43, 45
3, 425682, Note_on_c, 0, 43, 0
3, 425700, Note_on_c, 0, 51, 0
3, 425700, Note_on_c, 0, 51, 45
3, 425700, Note_on_c, 0, 31, 47
3, 425772, Note_on_c, 0, 31, 0
3, 425790, Note_on_c, 0, 43, 49
3, 425862, Note_on_c, 0, 43, 0
3, 425880, Note_on_c, 0, 51, 0
3, 425880, Note_on_c, 0, 52, 47
3, 425880, Note_on_c, 0, 32, 47
3, 425952, Note_on_c, 0, 32, 0
3, 425970, Note_on_c, 0, 44, 46
3, 426042, Note_on_c, 0, 44, 0
3, 426060, Note_on_c, 0, 32, 44
3, 426132, Note_on_c, 0, 32, 0
3, 426150, Note_on_c, 0, 44, 43
3, 426222, Note_on_c, 0, 44, 0
3, 426240, Note_on_c, 0, 32, 42
3, 426312, Note_on_c, 0, 32, 0
3, 426330, Note_on_c, 0, 44, 41
3, 426354, Note_on_c, 0, 52, 0
3, 426402, Note_on_c, 0, 44, 0
3, 426420, Note_on_c, 0, 52, 39
3, 426420, Note_on_c, 0, 32, 39
3, 426492, Note_on_c, 0, 32, 0
3, 426510, Note_on_c, 0, 44, 38
3, 426582, Note_on_c, 0, 44, 0
3, 426600, Note_on_c, 0, 52, 0
3, 426600, Note_on_c, 0, 53, 37
3, 426600, Note_on_c, 0, 33, 40
3, 426672, Note_on_c, 0, 33, 0
3, 426690, Note_on_c, 0, 45, 45
3, 426762, Note_on_c, 0, 45, 0
3, 426780, Note_on_c, 0, 33, 40
3, 426852, Note_on_c, 0, 33, 0
3, 426870, Note_on_c, 0, 45, 45
3, 426942, Note_on_c, 0, 45, 0
3, 426960, Note_on_c, 0, 34, 29
3, 427032, Note_on_c, 0, 34, 0
3, 427050, Note_on_c, 0, 46, 40
3, 427122, Note_on_c, 0, 46, 0
3, 427140, Note_on_c, 0, 53, 0
3, 427140, Note_on_c, 0, 53, 33
3, 427140, Note_on_c, 0, 34, 29
3, 427212, Note_on_c, 0, 34, 0
3, 427230, Note_on_c, 0, 46, 40
3, 427302, Note_on_c, 0, 46, 0
3, 427320, Note_on_c, 0, 53, 0
3, 427320, Note_on_c, 0, 54, 48
3, 427320, Note_on_c, 0, 35, 27
3, 427392, Note_on_c, 0, 35, 0
3, 427410, Note_on_c, 0, 47, 35
3, 427482, Note_on_c, 0, 47, 0
3, 427500, Note_on_c, 0, 35, 27
3, 427572, Note_on_c, 0, 35, 0
3, 427590, Note_on_c, 0, 47, 35
3, 427662, Note_on_c, 0, 47, 0
3, 427680, Note_on_c, 0, 35, 27
3, 427752, Note_on_c, 0, 35, 0
3, 427770, Note_on_c, 0, 47, 35
3, 427842, Note_on_c, 0, 47, 0
3, 427860, Note_on_c, 0, 35, 27
3, 427932, Note_on_c, 0, 35, 0
3, 427950, Note_on_c, 0, 47, 35
3, 428022, Note_on_c, 0, 47, 0
3, 428040, Note_on_c, 0, 35, 27
3, 428112, Note_on_c, 0, 35, 0
3, 428130, Note_on_c, 0, 47, 35
3, 428202, Note_on_c, 0, 47, 0
3, 428220, Note_on_c, 0, 35, 27
3, 428292, Note_on_c, 0, 35, 0
3, 428310, Note_on_c, 0, 47, 35
3, 428382, Note_on_c, 0, 47, 0
3, 428400, Note_on_c, 0, 35, 27
3, 428472, Note_on_c, 0, 35, 0
3, 428490, Note_on_c, 0, 47, 35
3, 428562, Note_on_c, 0, 47, 0
3, 428580, Note_on_c, 0, 35, 27
3, 428587, Note_on_c, 0, 54, 0
3, 428652, Note_on_c, 0, 35, 0
3, 428670, Note_on_c, 0, 47, 35
3, 428742, Note_on_c, 0, 47, 0
3, 428760, Note_on_c, 0, 54, 42
3, 428760, Note_on_c, 0, 35, 27
3, 428832, Note_on_c, 0, 35, 0
3, 428850, Note_on_c, 0, 47, 39
3, 428922, Note_on_c, 0, 47, 0
3, 428940, Note_on_c, 0, 35, 27
3, 429012, Note_on_c, 0, 35, 0
3, 429030, Note_on_c, 0, 47, 39
3, 429102, Note_on_c, 0, 47, 0
3, 429120, Note_on_c, 0, 35, 27
3, 429192, Note_on_c, 0, 35, 0
3, 429210, Note_on_c, 0, 47, 39
3, 429282, Note_on_c, 0, 47, 0
3, 429300, Note_on_c, 0, 35, 27
3, 429372, Note_on_c, 0, 35, 0
3, 429390, Note_on_c, 0, 47, 39
3, 429462, Note_on_c, 0, 47, 0
3, 429480, Note_on_c, 0, 35, 27
3, 429552, Note_on_c, 0, 35, 0
3, 429570, Note_on_c, 0, 47, 39
3, 429642, Note_on_c, 0, 47, 0
3, 429660, Note_on_c, 0, 35, 27
3, 429732, Note_on_c, 0, 35, 0
3, 429750, Note_on_c, 0, 47, 39
3, 429822, Note_on_c, 0, 47, 0
3, 429840, Note_on_c, 0, 35, 27
3, 429912, Note_on_c, 0, 35, 0
3, 429930, Note_on_c, 0, 47, 39
3, 430002, Note_on_c, 0, 47, 0
3, 430020, Note_on_c, 0, 35, 27
3, 430027, Note_on_c, 0, 54, 0
3, 430092, Note_on_c, 0, 35, 0
3, 430110, Note_on_c, 0, 47, 39
3, 430182, Note_on_c, 0, 47, 0
3, 430200, Note_on_c, 0, 54, 34
3, 430200, Note_on_c, 0, 35, 34
3, 430272, Note_on_c, 0, 35, 0
3, 430290, Note_on_c, 0, 47, 35
3, 430362, Note_on_c, 0, 47, 0
3, 430380, Note_on_c, 0, 35, 36
3, 430452, Note_on_c, 0, 35, 0
3, 430470, Note_on_c, 0, 47, 37
3, 430542, Note_on_c, 0, 47, 0
3, 430560, Note_on_c, 0, 35, 37
3, 430632, Note_on_c, 0, 35, 0
3, 430650, Note_on_c, 0, 47, 38
3, 430674, Note_on_c, 0, 54, 0
3, 430722, Note_on_c, 0, 47, 0
3, 430740, Note_on_c, 0, 54, 39
3, 430740, Note_on_c, 0, 35, 39
3, 430812, Note_on_c, 0, 35, 0
3, 430830, Note_on_c, 0, 47, 40
3, 430902, Note_on_c, 0, 47, 0
3, 430920, Note_on_c, 0, 54, 0
3, 430920, Note_on_c, 0, 55, 41
3, 430920, Note_on_c, 0, 35, 41
3, 430992, Note_on_c, 0, 35, 0
3, 431010, Note_on_c, 0, 47, 41
3, 431082, Note_on_c, 0, 47, 0
3, 431100, Note_on_c, 0, 35, 42
3, 431172, Note_on_c, 0, 35, 0
3, 431190, Note_on_c, 0, 47, 43
3, 431262, Note_on_c, 0, 47, 0
3, 431280, Note_on_c, 0, 35, 44
3, 431352, Note_on_c, 0, 35, 0
3, 431370, Note_on_c, 0, 47, 45
3, 431442, Note_on_c, 0, 47, 0
3, 431460, Note_on_c, 0, 55, 0
3, 431460, Note_on_c, 0, 55, 45
3, 431460, Note_on_c, 0, 35, 45
3, 431532, Note_on_c, 0, 35, 0
3, 431550, Note_on_c, 0, 47, 46
3, 431622, Note_on_c, 0, 47, 0
3, 431640, Note_on_c, 0, 55, 0
3, 431640, Note_on_c, 0, 56, 34
3, 431640, Note_on_c, 0, 34, 34
3, 431712, Note_on_c, 0, 34, 0
3, 431730, Note_on_c, 0, 46, 34
3, 431802, Note_on_c, 0, 46, 0
3, 431820, Note_on_c, 0, 34, 33
3, 431892, Note_on_c, 0, 34, 0
3, 431910, Note_on_c, 0, 46, 32
3, 431982, Note_on_c, 0, 46, 0
3, 432000, Note_on_c, 0, 34, 31
3, 432072, Note_on_c, 0, 34, 0
3, 432090, Note_on_c, 0, 46, 30
3, 432114, Note_on_c, 0, 56, 0
3, 432162, Note_on_c, 0, 46, 0
3, 432180, Note_on_c, 0, 56, 30
3, 432180, Note_on_c, 0, 34, 30
3, 432252, Note_on_c, 0, 34, 0
3, 432270, Note_on_c, 0, 46, 29
3, 432342, Note_on_c, 0, 46, 0
3, 432360, Note_on_c, 0, 56, 0
3, 432360, Note_on_c, 0, 57, 28
3, 432360, Note_on_c, 0, 33, 28
3, 432432, Note_on_c, 0, 33, 0
3, 432450, Note_on_c, 0, 45, 27
3, 432522, Note_on_c, 0, 45, 0
3, 432540, Note_on_c, 0, 33, 26
3, 432612, Note_on_c, 0, 33, 0
3, 432630, Note_on_c, 0, 45, 26
3, 432702, Note_on_c, 0, 45, 0
3, 432720, Note_on_c, 0, 33, 25
3, 432792, Note_on_c, 0, 33, 0
3, 432810, Note_on_c, 0, 45, 24
3, 432882, Note_on_c, 0, 45, 0
3, 432900, Note_on_c, 0, 57, 0
3, 432900, Note_on_c, 0, 57, 23
3, 432900, Note_on_c, 0, 33, 23
3, 432972, Note_on_c, 0, 33, 0
3, 432990, Note_on_c, 0, 45, 22
3, 433062, Note_on_c, 0, 45, 0
3, 433080, Note_on_c, 0, 57, 0
3, 433080, Note_on_c, 0, 56, 22
3, 433080, Note_on_c, 0, 58, 22
3, 433080, Note_on_c, 0, 29, 42
3, 433152, Note_on_c, 0, 29, 0
3, 433170, Note_on_c, 0, 41, 26
3, 433242, Note_on_c, 0, 41, 0
3, 433260, Note_on_c, 0, 29, 42
3, 433332, Note_on_c, 0, 29, 0
3, 433350, Note_on_c, 0, 41, 26
3, 433422, Note_on_c, 0, 41, 0
3, 433440, Note_on_c, 0, 29, 42
3, 433512, Note_on_c, 0, 29, 0
3, 433530, Note_on_c, 0, 41, 26
3, 433602, Note_on_c, 0, 41, 0
3, 433620, Note_on_c, 0, 29, 42
3, 433692, Note_on_c, 0, 29, 0
3, 433710, Note_on_c, 0, 41, 26
3, 433782, Note_on_c, 0, 41, 0
3, 433800, Note_on_c, 0, 29, 42
3, 433872, Note_on_c, 0, 29, 0
3, 433890, Note_on_c, 0, 41, 26
3, 433962, Note_on_c, 0, 41, 0
3, 433980, Note_on_c, 0, 29, 42
3, 434052, Note_on_c, 0, 29, 0
3, 434070, Note_on_c, 0, 41, 26
3, 434142, Note_on_c, 0, 41, 0
3, 434160, Note_on_c, 0, 29, 42
3, 434232, Note_on_c, 0, 29, 0
3, 434250, Note_on_c, 0, 41, 26
3, 434322, Note_on_c, 0, 41, 0
3, 434340, Note_on_c, 0, 29, 42
3, 434347, Note_on_c, 0, 58, 0
3, 434347, Note_on_c, 0, 56, 0
3, 434412, Note_on_c, 0, 29, 0
3, 434430, Note_on_c, 0, 41, 26
3, 434502, Note_on_c, 0, 41, 0
3, 434520, Note_on_c, 0, 56, 29
3, 434520, Note_on_c, 0, 58, 29
3, 434520, Note_on_c, 0, 29, 14
3, 434592, Note_on_c, 0, 29, 0
3, 434610, Note_on_c, 0, 41, 24
3, 434682, Note_on_c, 0, 41, 0
3, 434700, Note_on_c, 0, 29, 14
3, 434772, Note_on_c, 0, 29, 0
3, 434790, Note_on_c, 0, 41, 24
3, 434862, Note_on_c, 0, 41, 0
3, 434880, Note_on_c, 0, 29, 14
3, 434952, Note_on_c, 0, 29, 0
3, 434970, Note_on_c, 0, 41, 24
3, 435042, Note_on_c, 0, 41, 0
3, 435060, Note_on_c, 0, 29, 14
3, 435132, Note_on_c, 0, 29, 0
3, 435150, Note_on_c, 0, 41, 24
3, 435222, Note_on_c, 0, 41, 0
3, 435240, Note_on_c, 0, 29, 14
3, 435312, Note_on_c, 0, 29, 0
3, 435330, Note_on_c, 0, 41, 24
3, 435402, Note_on_c, 0, 41, 0
3, 435420, Note_on_c, 0, 29, 14
3, 435492, Note_on_c, 0, 29, 0
3, 435510, Note_on_c, 0, 41, 24
3, 435582, Note_on_c, 0, 41, 0
3, 435600, Note_on_c, 0, 29, 14
3, 435672, Note_on_c, 0, 29, 0
3, 435690, Note_on_c, 0, 41, 24
3, 435762, Note_on_c, 0, 41, 0
3, 435780, Note_on_c, 0, 29, 14
3, 435787, Note_on_c, 0, 58, 0
3, 435787, Note_on_c, 0, 56, 0
3, 435852, Note_on_c, 0, 29, 0
3, 435870, Note_on_c, 0, 41, 24
3, 435942, Note_on_c, 0, 41, 0
3, 435960, Note_on_c, 0, 56, 28
3, 435960, Note_on_c, 0, 58, 28
3, 435960, Note_on_c, 0, 41, 20
3, 436032, Note_on_c, 0, 41, 0
3, 436050, Note_on_c, 0, 53, 24
3, 436122, Note_on_c, 0, 53, 0
3, 436140, Note_on_c, 0, 41, 20
3, 436212, Note_on_c, 0, 41, 0
3, 436230, Note_on_c, 0, 53, 24
3, 436302, Note_on_c, 0, 53, 0
3, 436320, Note_on_c, 0, 41, 20
3, 436392, Note_on_c, 0, 41, 0
3, 436410, Note_on_c, 0, 53, 24
3, 436482, Note_on_c, 0, 53, 0
3, 436500, Note_on_c, 0, 58, 0
3, 436500, Note_on_c, 0, 56, 0
3, 436500, Note_on_c, 0, 58, 24
3, 436500, Note_on_c, 0, 41, 20
3, 436572, Note_on_c, 0, 41, 0
3, 436590, Note_on_c, 0, 53, 24
3, 436662, Note_on_c, 0, 53, 0
3, 436680, Note_on_c, 0, 58, 0
3, 436680, Note_on_c, 0, 56, 22
3, 436680, Note_on_c, 0, 59, 22
3, 436680, Note_on_c, 0, 40, 22
3, 436752, Note_on_c, 0, 40, 0
3, 436770, Note_on_c, 0, 52, 24
3, 436842, Note_on_c, 0, 52, 0
3, 436860, Note_on_c, 0, 40, 26
3, 436932, Note_on_c, 0, 40, 0
3, 436950, Note_on_c, 0, 52, 28
3, 437022, Note_on_c, 0, 52, 0
3, 437040, Note_on_c, 0, 40, 30
3, 437112, Note_on_c, 0, 40, 0
3, 437130, Note_on_c, 0, 52, 32
3, 437202, Note_on_c, 0, 52, 0
3, 437220, Note_on_c, 0, 59, 0
3, 437220, Note_on_c, 0, 56, 0
3, 437220, Note_on_c, 0, 59, 39
3, 437220, Note_on_c, 0, 40, 34
3, 437292, Note_on_c, 0, 40, 0
3, 437310, Note_on_c, 0, 52, 36
3, 437382, Note_on_c, 0, 52, 0
3, 437400, Note_on_c, 0, 59, 0
3, 437400, Note_on_c, 0, 60, 34
3, 437400, Note_on_c, 0, 45, 34
3, 437472, Note_on_c, 0, 45, 0
3, 437490, Note_on_c, 0, 57, 36
3, 437562, Note_on_c, 0, 57, 0
3, 437580, Note_on_c, 0, 45, 39
3, 437652, Note_on_c, 0, 45, 0
3, 437670, Note_on_c, 0, 57, 41
3, 437742, Note_on_c, 0, 57, 0
3, 437760, Note_on_c, 0, 45, 43
3, 437832, Note_on_c, 0, 45, 0
3, 437850, Note_on_c, 0, 57, 45
3, 437922, Note_on_c, 0, 57, 0
3, 437940, Note_on_c, 0, 60, 0
3, 437940, Note_on_c, 0, 60, 44
3, 437940, Note_on_c, 0, 45, 47
3, 438012, Note_on_c, 0, 45, 0
3, 438030, Note_on_c, 0, 57, 49
3, 438102, Note_on_c, 0, 57, 0
3, 438120, Note_on_c, 0, 60, 0
3, 438120, Note_on_c, 0, 61, 47
3, 438120, Note_on_c, 0, 57, 47
3, 438660, Note_on_c, 0, 61, 0
3, 438660, Note_on_c, 0, 61, 48
3, 438818, Note_on_c, 0, 61, 0
3, 438840, Note_on_c, 0, 57, 0
3, 438840, Note_on_c, 0, 57, 33
3, 438840, Note_on_c, 0, 50, 50
3, 438840, Note_on_c, 0, 38, 24
3, 439020, Note_on_c, 0, 50, 0
3, 439740, Note_on_c, 0, 57, 0
3, 439740, Note_on_c, 0, 60, 35
3, 439920, Note_on_c, 0, 60, 0
3, 439920, Note_on_c, 0, 58, 34
3, 440100, Note_on_c, 0, 58, 0
3, 440100, Note_on_c, 0, 60, 37
3, 440280, Note_on_c, 0, 60, 0
3, 440280, Note_on_c, 0, 57, 30
3, 440640, Note_on_c, 0, 57, 0
3, 440640, Note_on_c, 0, 55, 32
3, 441000, Note_on_c, 0, 55, 0
3, 441000, Note_on_c, 0, 57, 36
3, 441360, Note_on_c, 0, 57, 0
3, 441360, Note_on_c, 0, 57, 34
3, 441677, Note_on_c, 0, 57, 0
3, 441720, Note_on_c, 0, 38, 0
3, 441720, Note_on_c, 0, 67, 111
3, 441720, Note_on_c, 0, 58, 100
3, 441720, Note_on_c, 0, 63, 100
3, 441720, Note_on_c, 0, 39, 84
3, 441900, Note_on_c, 0, 63, 0
3, 441900, Note_on_c, 0, 58, 0
3, 442440, Note_on_c, 0, 67, 0
3, 442440, Note_on_c, 0, 39, 0
3, 442440, Note_on_c, 0, 65, 102
3, 442440, Note_on_c, 0, 57, 59
3, 442440, Note_on_c, 0, 62, 59
3, 442440, Note_on_c, 0, 41, 87
3, 442620, Note_on_c, 0, 62, 0
3, 442620, Note_on_c, 0, 57, 0
3, 443160, Note_on_c, 0, 65, 0
3, 443160, Note_on_c, 0, 41, 0
3, 443160, Note_on_c, 0, 63, 81
3, 443160, Note_on_c, 0, 55, 72
3, 443160, Note_on_c, 0, 58, 72
3, 443160, Note_on_c, 0, 43, 81
3, 443339, Note_on_c, 0, 63, 0
3, 443340, Note_on_c, 0, 55, 0
3, 443340, Note_on_c, 0, 58, 0
3, 443477, Note_on_c, 0, 43, 0
3, 443520, Note_on_c, 0, 62, 77
3, 443520, Note_on_c, 0, 53, 68
3, 443520, Note_on_c, 0, 59, 68
3, 443520, Note_on_c, 0, 44, 77
3, 443699, Note_on_c, 0, 62, 0
3, 443700, Note_on_c, 0, 53, 0
3, 443700, Note_on_c, 0, 59, 0
3, 443837, Note_on_c, 0, 44, 0
3, 443880, Note_on_c, 0, 61, 73
3, 443880, Note_on_c, 0, 52, 64
3, 443880, Note_on_c, 0, 57, 64
3, 443880, Note_on_c, 0, 45, 73
3, 444060, Note_on_c, 0, 57, 0
3, 444060, Note_on_c, 0, 52, 0
3, 444197, Note_on_c, 0, 61, 0
3, 444197, Note_on_c, 0, 45, 0
3, 444240, Note_on_c, 0, 57, 46
3, 444240, Note_on_c, 0, 50, 50
3, 444240, Note_on_c, 0, 38, 39
3, 444420, Note_on_c, 0, 50, 0
3, 445140, Note_on_c, 0, 57, 0
3, 445140, Note_on_c, 0, 60, 47
3, 445320, Note_on_c, 0, 60, 0
3, 445320, Note_on_c, 0, 58, 41
3, 445500, Note_on_c, 0, 58, 0
3, 445500, Note_on_c, 0, 60, 47
3, 445680, Note_on_c, 0, 60, 0
3, 445680, Note_on_c, 0, 57, 47
3, 446040, Note_on_c, 0, 57, 0
3, 446040, Note_on_c, 0, 55, 46
3, 446400, Note_on_c, 0, 55, 0
3, 446400, Note_on_c, 0, 57, 49
3, 446760, Note_on_c, 0, 57, 0
3, 446760, Note_on_c, 0, 57, 44
3, 447077, Note_on_c, 0, 57, 0
3, 447120, Note_on_c, 0, 38, 0
3, 447120, Note_on_c, 0, 67, 106
3, 447120, Note_on_c, 0, 60, 62
3, 447120, Note_on_c, 0, 62, 62
3, 447120, Note_on_c, 0, 42, 86
3, 447300, Note_on_c, 0, 62, 0
3, 447300, Note_on_c, 0, 67, 0
3, 447300, Note_on_c, 0, 60, 0
3, 447300, Note_on_c, 0, 69, 92
3, 447480, Note_on_c, 0, 69, 0
3, 447480, Note_on_c, 0, 67, 77
3, 447840, Note_on_c, 0, 67, 0
3, 447840, Note_on_c, 0, 42, 0
3, 447840, Note_on_c, 0, 67, 81
3, 447840, Note_on_c, 0, 58, 72
3, 447840, Note_on_c, 0, 62, 72
3, 447840, Note_on_c, 0, 43, 81
3, 448020, Note_on_c, 0, 62, 0
3, 448020, Note_on_c, 0, 67, 0
3, 448020, Note_on_c, 0, 58, 0
3, 448020, Note_on_c, 0, 69, 80
3, 448200, Note_on_c, 0, 69, 0
3, 448200, Note_on_c, 0, 67, 79
3, 448560, Note_on_c, 0, 67, 0
3, 448560, Note_on_c, 0, 43, 0
3, 448560, Note_on_c, 0, 67, 76
3, 448560, Note_on_c, 0, 58, 67
3, 448560, Note_on_c, 0, 62, 67
3, 448560, Note_on_c, 0, 40, 76
3, 448740, Note_on_c, 0, 62, 0
3, 448740, Note_on_c, 0, 58, 0
3, 448877, Note_on_c, 0, 67, 0
3, 448877, Note_on_c, 0, 40, 0
3, 448920, Note_on_c, 0, 65, 74
3, 448920, Note_on_c, 0, 57, 65
3, 448920, Note_on_c, 0, 62, 65
3, 448920, Note_on_c, 0, 41, 74
3, 449100, Note_on_c, 0, 62, 0
3, 449100, Note_on_c, 0, 57, 0
3, 449237, Note_on_c, 0, 65, 0
3, 449237, Note_on_c, 0, 41, 0
3, 449280, Note_on_c, 0, 62, 71
3, 449280, Note_on_c, 0, 55, 62
3, 449280, Note_on_c, 0, 58, 62
3, 449280, Note_on_c, 0, 43, 71
3, 449460, Note_on_c, 0, 58, 0
3, 449460, Note_on_c, 0, 55, 0
3, 449597, Note_on_c, 0, 62, 0
3, 449597, Note_on_c, 0, 43, 0
3, 449640, Note_on_c, 0, 53, 43
3, 449640, Note_on_c, 0, 57, 43
3, 449640, Note_on_c, 0, 33, 31
3, 449712, Note_on_c, 0, 33, 0
3, 449730, Note_on_c, 0, 45, 36
3, 449802, Note_on_c, 0, 45, 0
3, 449820, Note_on_c, 0, 33, 31
3, 449892, Note_on_c, 0, 33, 0
3, 449910, Note_on_c, 0, 45, 36
3, 449982, Note_on_c, 0, 45, 0
3, 450000, Note_on_c, 0, 33, 31
3, 450072, Note_on_c, 0, 33, 0
3, 450090, Note_on_c, 0, 45, 36
3, 450162, Note_on_c, 0, 45, 0
3, 450180, Note_on_c, 0, 33, 31
3, 450252, Note_on_c, 0, 33, 0
3, 450270, Note_on_c, 0, 45, 36
3, 450273, Note_on_c, 0, 57, 0
3, 450273, Note_on_c, 0, 53, 0
3, 450342, Note_on_c, 0, 45, 0
3, 450360, Note_on_c, 0, 46, 48
3, 450360, Note_on_c, 0, 53, 48
3, 450360, Note_on_c, 0, 58, 48
3, 450360, Note_on_c, 0, 33, 31
3, 450432, Note_on_c, 0, 33, 0
3, 450450, Note_on_c, 0, 45, 36
3, 450522, Note_on_c, 0, 45, 0
3, 450540, Note_on_c, 0, 33, 31
3, 450612, Note_on_c, 0, 33, 0
3, 450630, Note_on_c, 0, 45, 36
3, 450702, Note_on_c, 0, 45, 0
3, 450720, Note_on_c, 0, 33, 31
3, 450792, Note_on_c, 0, 33, 0
3, 450810, Note_on_c, 0, 45, 36
3, 450882, Note_on_c, 0, 45, 0
3, 450900, Note_on_c, 0, 33, 31
3, 450972, Note_on_c, 0, 33, 0
3, 450990, Note_on_c, 0, 45, 36
3, 450993, Note_on_c, 0, 46, 0
3, 450993, Note_on_c, 0, 58, 0
3, 450993, Note_on_c, 0, 53, 0
3, 451062, Note_on_c, 0, 45, 0
3, 451080, Note_on_c, 0, 47, 47
3, 451080, Note_on_c, 0, 53, 47
3, 451080, Note_on_c, 0, 57, 47
3, 451080, Note_on_c, 0, 59, 47
3, 451080, Note_on_c, 0, 33, 25
3, 451152, Note_on_c, 0, 33, 0
3, 451170, Note_on_c, 0, 45, 40
3, 451242, Note_on_c, 0, 45, 0
3, 451260, Note_on_c, 0, 33, 25
3, 451332, Note_on_c, 0, 33, 0
3, 451350, Note_on_c, 0, 45, 40
3, 451422, Note_on_c, 0, 45, 0
3, 451440, Note_on_c, 0, 33, 25
3, 451512, Note_on_c, 0, 33, 0
3, 451530, Note_on_c, 0, 45, 40
3, 451602, Note_on_c, 0, 45, 0
3, 451620, Note_on_c, 0, 33, 25
3, 451692, Note_on_c, 0, 33, 0
3, 451710, Note_on_c, 0, 45, 40
3, 451713, Note_on_c, 0, 57, 0
3, 451713, Note_on_c, 0, 59, 0
3, 451713, Note_on_c, 0, 47, 0
3, 451713, Note_on_c, 0, 53, 0
3, 451782, Note_on_c, 0, 45, 0
3, 451800, Note_on_c, 0, 48, 50
3, 451800, Note_on_c, 0, 53, 50
3, 451800, Note_on_c, 0, 57, 50
3, 451800, Note_on_c, 0, 60, 50
3, 451800, Note_on_c, 0, 33, 25
3, 451872, Note_on_c, 0, 33, 0
3, 451890, Note_on_c, 0, 45, 40
3, 451962, Note_on_c, 0, 45, 0
3, 451980, Note_on_c, 0, 33, 25
3, 452052, Note_on_c, 0, 33, 0
3, 452070, Note_on_c, 0, 45, 40
3, 452117, Note_on_c, 0, 57, 0
3, 452117, Note_on_c, 0, 60, 0
3, 452117, Note_on_c, 0, 48, 0
3, 452117, Note_on_c, 0, 53, 0
3, 452142, Note_on_c, 0, 45, 0
3, 452160, Note_on_c, 0, 49, 50
3, 452160, Note_on_c, 0, 53, 50
3, 452160, Note_on_c, 0, 57, 50
3, 452160, Note_on_c, 0, 61, 50
3, 452160, Note_on_c, 0, 33, 25
3, 452232, Note_on_c, 0, 33, 0
3, 452250, Note_on_c, 0, 45, 40
3, 452322, Note_on_c, 0, 45, 0
3, 452340, Note_on_c, 0, 33, 25
3, 452412, Note_on_c, 0, 33, 0
3, 452430, Note_on_c, 0, 45, 40
3, 452477, Note_on_c, 0, 57, 0
3, 452477, Note_on_c, 0, 61, 0
3, 452477, Note_on_c, 0, 49, 0
3, 452477, Note_on_c, 0, 53, 0
3, 452502, Note_on_c, 0, 45, 0
3, 452520, Note_on_c, 0, 50, 34
3, 452520, Note_on_c, 0, 55, 34
3, 452520, Note_on_c, 0, 58, 34
3, 452520, Note_on_c, 0, 62, 34
3, 452520, Note_on_c, 0, 33, 34
3, 452592, Note_on_c, 0, 33, 0
3, 452610, Note_on_c, 0, 45, 35
3, 452682, Note_on_c, 0, 45, 0
3, 452700, Note_on_c, 0, 33, 35
3, 452772, Note_on_c, 0, 33, 0
3, 452790, Note_on_c, 0, 45, 35
3, 452862, Note_on_c, 0, 45, 0
3, 452880, Note_on_c, 0, 33, 36
3, 452952, Note_on_c, 0, 33, 0
3, 452970, Note_on_c, 0, 45, 36
3, 453042, Note_on_c, 0, 45, 0
3, 453060, Note_on_c, 0, 33, 37
3, 453132, Note_on_c, 0, 33, 0
3, 453150, Note_on_c, 0, 45, 37
3, 453153, Note_on_c, 0, 58, 0
3, 453153, Note_on_c, 0, 62, 0
3, 453153, Note_on_c, 0, 50, 0
3, 453153, Note_on_c, 0, 55, 0
3, 453222, Note_on_c, 0, 45, 0
3, 453240, Note_on_c, 0, 51, 37
3, 453240, Note_on_c, 0, 55, 37
3, 453240, Note_on_c, 0, 58, 37
3, 453240, Note_on_c, 0, 63, 37
3, 453240, Note_on_c, 0, 33, 37
3, 453312, Note_on_c, 0, 33, 0
3, 453330, Note_on_c, 0, 45, 38
3, 453402, Note_on_c, 0, 45, 0
3, 453420, Note_on_c, 0, 33, 38
3, 453492, Note_on_c, 0, 33, 0
3, 453510, Note_on_c, 0, 45, 39
3, 453582, Note_on_c, 0, 45, 0
3, 453600, Note_on_c, 0, 33, 39
3, 453672, Note_on_c, 0, 33, 0
3, 453690, Note_on_c, 0, 45, 39
3, 453762, Note_on_c, 0, 45, 0
3, 453780, Note_on_c, 0, 33, 40
3, 453852, Note_on_c, 0, 33, 0
3, 453870, Note_on_c, 0, 45, 40
3, 453873, Note_on_c, 0, 58, 0
3, 453873, Note_on_c, 0, 63, 0
3, 453873, Note_on_c, 0, 51, 0
3, 453873, Note_on_c, 0, 55, 0
3, 453942, Note_on_c, 0, 45, 0
3, 453960, Note_on_c, 0, 52, 41
3, 453960, Note_on_c, 0, 58, 41
3, 453960, Note_on_c, 0, 62, 41
3, 453960, Note_on_c, 0, 64, 41
3, 453960, Note_on_c, 0, 33, 41
3, 454032, Note_on_c, 0, 33, 0
3, 454050, Note_on_c, 0, 45, 41
3, 454122, Note_on_c, 0, 45, 0
3, 454140, Note_on_c, 0, 33, 41
3, 454212, Note_on_c, 0, 33, 0
3, 454230, Note_on_c, 0, 45, 42
3, 454302, Note_on_c, 0, 45, 0
3, 454320, Note_on_c, 0, 64, 0
3, 454320, Note_on_c, 0, 52, 0
3, 454320, Note_on_c, 0, 58, 0
3, 454320, Note_on_c, 0, 62, 0
3, 454320, Note_on_c, 0, 53, 42
3, 454320, Note_on_c, 0, 58, 42
3, 454320, Note_on_c, 0, 62, 42
3, 454320, Note_on_c, 0, 65, 42
3, 454320, Note_on_c, 0, 33, 42
3, 454392, Note_on_c, 0, 33, 0
3, 454410, Note_on_c, 0, 45, 43
3, 454482, Note_on_c, 0, 45, 0
3, 454500, Note_on_c, 0, 33, 43
3, 454572, Note_on_c, 0, 33, 0
3, 454590, Note_on_c, 0, 45, 43
3, 454662, Note_on_c, 0, 45, 0
3, 454680, Note_on_c, 0, 65, 0
3, 454680, Note_on_c, 0, 53, 0
3, 454680, Note_on_c, 0, 58, 0
3, 454680, Note_on_c, 0, 62, 0
3, 454680, Note_on_c, 0, 54, 44
3, 454680, Note_on_c, 0, 58, 44
3, 454680, Note_on_c, 0, 62, 44
3, 454680, Note_on_c, 0, 66, 44
3, 454680, Note_on_c, 0, 33, 44
3, 454752, Note_on_c, 0, 33, 0
3, 454770, Note_on_c, 0, 45, 44
3, 454842, Note_on_c, 0, 45, 0
3, 454860, Note_on_c, 0, 33, 45
3, 454932, Note_on_c, 0, 33, 0
3, 454950, Note_on_c, 0, 45, 45
3, 455022, Note_on_c, 0, 45, 0
3, 455040, Note_on_c, 0, 66, 0
3, 455040, Note_on_c, 0, 54, 0
3, 455040, Note_on_c, 0, 58, 0
3, 455040, Note_on_c, 0, 62, 0
3, 455040, Note_on_c, 0, 55, 45
3, 455040, Note_on_c, 0, 58, 45
3, 455040, Note_on_c, 0, 62, 45
3, 455040, Note_on_c, 0, 67, 45
3, 455040, Note_on_c, 0, 33, 45
3, 455112, Note_on_c, 0, 33, 0
3, 455130, Note_on_c, 0, 45, 46
3, 455202, Note_on_c, 0, 45, 0
3, 455220, Note_on_c, 0, 33, 46
3, 455292, Note_on_c, 0, 33, 0
3, 455310, Note_on_c, 0, 45, 47
3, 455382, Note_on_c, 0, 45, 0
3, 455400, Note_on_c, 0, 67, 0
3, 455400, Note_on_c, 0, 55, 0
3, 455400, Note_on_c, 0, 58, 0
3, 455400, Note_on_c, 0, 62, 0
3, 455400, Note_on_c, 0, 50, 47
3, 455400, Note_on_c, 0, 58, 47
3, 455400, Note_on_c, 0, 62, 47
3, 455400, Note_on_c, 0, 31, 47
3, 455400, Note_on_c, 0, 43, 47
3, 456300, Note_on_c, 0, 43, 0
3, 456300, Note_on_c, 0, 62, 0
3, 456300, Note_on_c, 0, 50, 0
3, 456300, Note_on_c, 0, 58, 0
3, 456300, Note_on_c, 0, 31, 0
3, 456300, Note_on_c, 0, 53, 65
3, 456300, Note_on_c, 0, 31, 40
3, 456390, Note_on_c, 0, 31, 0
3, 456390, Note_on_c, 0, 43, 50
3, 456480, Note_on_c, 0, 43, 0
3, 456480, Note_on_c, 0, 53, 0
3, 456480, Note_on_c, 0, 52, 88
3, 456480, Note_on_c, 0, 64, 88
3, 456480, Note_on_c, 0, 31, 39
3, 456569, Note_on_c, 0, 31, 0
3, 456660, Note_on_c, 0, 64, 0
3, 456660, Note_on_c, 0, 52, 0
3, 456660, Note_on_c, 0, 53, 67
3, 456660, Note_on_c, 0, 31, 57
3, 456660, Note_on_c, 0, 43, 57
3, 456749, Note_on_c, 0, 43, 0
3, 456749, Note_on_c, 0, 31, 0
3, 456840, Note_on_c, 0, 53, 0
3, 456840, Note_on_c, 0, 50, 85
3, 456840, Note_on_c, 0, 58, 85
3, 456840, Note_on_c, 0, 62, 85
3, 456840, Note_on_c, 0, 31, 73
3, 456840, Note_on_c, 0, 43, 73
3, 457740, Note_on_c, 0, 43, 0
3, 457740, Note_on_c, 0, 62, 0
3, 457740, Note_on_c, 0, 50, 0
3, 457740, Note_on_c, 0, 58, 0
3, 457740, Note_on_c, 0, 31, 0
3, 457740, Note_on_c, 0, 53, 66
3, 457740, Note_on_c, 0, 31, 37
3, 457830, Note_on_c, 0, 31, 0
3, 457830, Note_on_c, 0, 43, 52
3, 457920, Note_on_c, 0, 43, 0
3, 457920, Note_on_c, 0, 53, 0
3, 457920, Note_on_c, 0, 52, 85
3, 457920, Note_on_c, 0, 64, 85
3, 457920, Note_on_c, 0, 31, 46
3, 458009, Note_on_c, 0, 31, 0
3, 458100, Note_on_c, 0, 64, 0
3, 458100, Note_on_c, 0, 52, 0
3, 458100, Note_on_c, 0, 53, 69
3, 458100, Note_on_c, 0, 31, 57
3, 458100, Note_on_c, 0, 43, 57
3, 458189, Note_on_c, 0, 43, 0
3, 458189, Note_on_c, 0, 31, 0
3, 458280, Note_on_c, 0, 53, 0
3, 458280, Note_on_c, 0, 50, 85
3, 458280, Note_on_c, 0, 59, 85
3, 458280, Note_on_c, 0, 62, 85
3, 458280, Note_on_c, 0, 32, 77
3, 458280, Note_on_c, 0, 44, 77
3, 459180, Note_on_c, 0, 44, 0
3, 459180, Note_on_c, 0, 62, 0
3, 459180, Note_on_c, 0, 50, 0
3, 459180, Note_on_c, 0, 59, 0
3, 459180, Note_on_c, 0, 32, 0
3, 459180, Note_on_c, 0, 53, 68
3, 459180, Note_on_c, 0, 32, 37
3, 459270, Note_on_c, 0, 32, 0
3, 459270, Note_on_c, 0, 44, 54
3, 459360, Note_on_c, 0, 44, 0
3, 459360, Note_on_c, 0, 53, 0
3, 459360, Note_on_c, 0, 52, 88
3, 459360, Note_on_c, 0, 64, 88
3, 459360, Note_on_c, 0, 32, 37
3, 459449, Note_on_c, 0, 32, 0
3, 459540, Note_on_c, 0, 64, 0
3, 459540, Note_on_c, 0, 52, 0
3, 459540, Note_on_c, 0, 53, 66
3, 459540, Note_on_c, 0, 32, 55
3, 459540, Note_on_c, 0, 44, 55
3, 459629, Note_on_c, 0, 44, 0
3, 459629, Note_on_c, 0, 32, 0
3, 459720, Note_on_c, 0, 53, 0
3, 459720, Note_on_c, 0, 51, 47
3, 459720, Note_on_c, 0, 60, 47
3, 459720, Note_on_c, 0, 63, 47
3, 459720, Note_on_c, 0, 33, 47
3, 459720, Note_on_c, 0, 45, 47
3, 460080, Note_on_c, 0, 45, 0
3, 460080, Note_on_c, 0, 33, 0
3, 460080, Note_on_c, 0, 33, 50
3, 460169, Note_on_c, 0, 33, 0
3, 460260, Note_on_c, 0, 63, 0
3, 460260, Note_on_c, 0, 60, 0
3, 460260, Note_on_c, 0, 51, 0
3, 460260, Note_on_c, 0, 53, 52
3, 460260, Note_on_c, 0, 33, 52
3, 460350, Note_on_c, 0, 33, 0
3, 460350, Note_on_c, 0, 45, 53
3, 460440, Note_on_c, 0, 45, 0
3, 460440, Note_on_c, 0, 53, 0
3, 460440, Note_on_c, 0, 52, 53
3, 460440, Note_on_c, 0, 61, 53
3, 460440, Note_on_c, 0, 64, 53
3, 460440, Note_on_c, 0, 33, 53
3, 460800, Note_on_c, 0, 33, 0
3, 460800, Note_on_c, 0, 33, 57
3, 460800, Note_on_c, 0, 45, 57
3, 460889, Note_on_c, 0, 45, 0
3, 460889, Note_on_c, 0, 33, 0
3, 460980, Note_on_c, 0, 64, 0
3, 460980, Note_on_c, 0, 61, 0
3, 460980, Note_on_c, 0, 52, 0
3, 460980, Note_on_c, 0, 53, 58
3, 460980, Note_on_c, 0, 33, 58
3, 461070, Note_on_c, 0, 33, 0
3, 461070, Note_on_c, 0, 45, 59
3, 461160, Note_on_c, 0, 45, 0
3, 461160, Note_on_c, 0, 53, 0
3, 461160, Note_on_c, 0, 57, 60
3, 461160, Note_on_c, 0, 62, 60
3, 461160, Note_on_c, 0, 69, 60
3, 461160, Note_on_c, 0, 34, 60
3, 461160, Note_on_c, 0, 46, 60
3, 461249, Note_on_c, 0, 46, 0
3, 461249, Note_on_c, 0, 69, 0
3, 461249, Note_on_c, 0, 57, 0
3, 461249, Note_on_c, 0, 62, 0
3, 461249, Note_on_c, 0, 34, 0
3, 461520, Note_on_c, 0, 55, 48
3, 461520, Note_on_c, 0, 62, 48
3, 461520, Note_on_c, 0, 67, 48
3, 461520, Note_on_c, 0, 35, 51
3, 461520, Note_on_c, 0, 47, 51
3, 461609, Note_on_c, 0, 47, 0
3, 461609, Note_on_c, 0, 67, 0
3, 461609, Note_on_c, 0, 55, 0
3, 461609, Note_on_c, 0, 62, 0
3, 461609, Note_on_c, 0, 35, 0
3, 461880, Note_on_c, 0, 53, 53
3, 461880, Note_on_c, 0, 57, 53
3, 461880, Note_on_c, 0, 65, 53
3, 461880, Note_on_c, 0, 36, 48
3, 461880, Note_on_c, 0, 48, 48
3, 461969, Note_on_c, 0, 48, 0
3, 461969, Note_on_c, 0, 65, 0
3, 461969, Note_on_c, 0, 53, 0
3, 461969, Note_on_c, 0, 57, 0
3, 461969, Note_on_c, 0, 36, 0
3, 462240, Note_on_c, 0, 52, 51
3, 462240, Note_on_c, 0, 57, 51
3, 462240, Note_on_c, 0, 64, 51
3, 462240, Note_on_c, 0, 37, 52
3, 462240, Note_on_c, 0, 49, 52
3, 462329, Note_on_c, 0, 49, 0
3, 462329, Note_on_c, 0, 64, 0
3, 462329, Note_on_c, 0, 52, 0
3, 462329, Note_on_c, 0, 57, 0
3, 462329, Note_on_c, 0, 37, 0
3, 462600, Note_on_c, 0, 55, 55
3, 462600, Note_on_c, 0, 58, 55
3, 462600, Note_on_c, 0, 62, 55
3, 462600, Note_on_c, 0, 40, 53
3, 462600, Note_on_c, 0, 52, 53
3, 462689, Note_on_c, 0, 52, 0
3, 462689, Note_on_c, 0, 62, 0
3, 462689, Note_on_c, 0, 55, 0
3, 462689, Note_on_c, 0, 58, 0
3, 462689, Note_on_c, 0, 40, 0
3, 462960, Note_on_c, 0, 63, 53
3, 462960, Note_on_c, 0, 69, 53
3, 462960, Note_on_c, 0, 72, 53
3, 462960, Note_on_c, 0, 42, 49
3, 462960, Note_on_c, 0, 54, 49
3, 463049, Note_on_c, 0, 54, 0
3, 463049, Note_on_c, 0, 72, 0
3, 463049, Note_on_c, 0, 63, 0
3, 463049, Note_on_c, 0, 69, 0
3, 463049, Note_on_c, 0, 42, 0
3, 463320, Note_on_c, 0, 62, 50
3, 463320, Note_on_c, 0, 67, 50
3, 463320, Note_on_c, 0, 70, 50
3, 463320, Note_on_c, 0, 43, 52
3, 463320, Note_on_c, 0, 55, 52
3, 463409, Note_on_c, 0, 55, 0
3, 463409, Note_on_c, 0, 70, 0
3, 463409, Note_on_c, 0, 62, 0
3, 463409, Note_on_c, 0, 67, 0
3, 463409, Note_on_c, 0, 43, 0
3, 463680, Note_on_c, 0, 62, 56
3, 463680, Note_on_c, 0, 65, 56
3, 463680, Note_on_c, 0, 69, 56
3, 463680, Note_on_c, 0, 45, 52
3, 463680, Note_on_c, 0, 57, 52
3, 463769, Note_on_c, 0, 57, 0
3, 463769, Note_on_c, 0, 69, 0
3, 463769, Note_on_c, 0, 62, 0
3, 463769, Note_on_c, 0, 65, 0
3, 463769, Note_on_c, 0, 45, 0
3, 464040, Note_on_c, 0, 55, 74
3, 464040, Note_on_c, 0, 62, 74
3, 464040, Note_on_c, 0, 67, 74
3, 464040, Note_on_c, 0, 46, 76
3, 464040, Note_on_c, 0, 58, 76
3, 464400, Note_on_c, 0, 67, 0
3, 464400, Note_on_c, 0, 55, 0
3, 464400, Note_on_c, 0, 62, 0
3, 464400, Note_on_c, 0, 62, 71
3, 464760, Note_on_c, 0, 62, 0
3, 464760, Note_on_c, 0, 55, 96
3, 464760, Note_on_c, 0, 62, 96
3, 464760, Note_on_c, 0, 67, 96
3, 465300, Note_on_c, 0, 67, 0
3, 465300, Note_on_c, 0, 55, 0
3, 465300, Note_on_c, 0, 62, 0
3, 465300, Note_on_c, 0, 53, 80
3, 465300, Note_on_c, 0, 62, 80
3, 465300, Note_on_c, 0, 65, 80
3, 465480, Note_on_c, 0, 65, 0
3, 465480, Note_on_c, 0, 53, 0
3, 465480, Note_on_c, 0, 62, 0
3, 465480, Note_on_c, 0, 53, 60
3, 465480, Note_on_c, 0, 62, 60
3, 465480, Note_on_c, 0, 65, 60
3, 465660, Note_on_c, 0, 46, 0
3, 465660, Note_on_c, 0, 58, 0
3, 465660, Note_on_c, 0, 46, 58
3, 465840, Note_on_c, 0, 46, 0
3, 465840, Note_on_c, 0, 45, 57
3, 466020, Note_on_c, 0, 45, 0
3, 466020, Note_on_c, 0, 46, 55
3, 466200, Note_on_c, 0, 46, 0
3, 466200, Note_on_c, 0, 65, 0
3, 466200, Note_on_c, 0, 53, 0
3, 466200, Note_on_c, 0, 62, 0
3, 466200, Note_on_c, 0, 52, 53
3, 466200, Note_on_c, 0, 61, 53
3, 466200, Note_on_c, 0, 64, 53
3, 466200, Note_on_c, 0, 43, 53
3, 466200, Note_on_c, 0, 55, 53
3, 466560, Note_on_c, 0, 55, 0
3, 466560, Note_on_c, 0, 43, 0
3, 466560, Note_on_c, 0, 45, 50
3, 466560, Note_on_c, 0, 57, 50
3, 466920, Note_on_c, 0, 57, 0
3, 466920, Note_on_c, 0, 52, 0
3, 466920, Note_on_c, 0, 64, 0
3, 466920, Note_on_c, 0, 61, 0
3, 466920, Note_on_c, 0, 45, 0
3, 466920, Note_on_c, 0, 50, 47
3, 466920, Note_on_c, 0, 62, 47
3, 466920, Note_on_c, 0, 38, 67
3, 466992, Note_on_c, 0, 38, 0
3, 467010, Note_on_c, 0, 50, 67
3, 467082, Note_on_c, 0, 50, 0
3, 467100, Note_on_c, 0, 50, 0
3, 467100, Note_on_c, 0, 62, 0
3, 467100, Note_on_c, 0, 38, 67
3, 467172, Note_on_c, 0, 38, 0
3, 467190, Note_on_c, 0, 50, 67
3, 467262, Note_on_c, 0, 50, 0
3, 467280, Note_on_c, 0, 73, 69
3, 467280, Note_on_c, 0, 38, 67
3, 467352, Note_on_c, 0, 38, 0
3, 467370, Note_on_c, 0, 50, 67
3, 467442, Note_on_c, 0, 50, 0
3, 467460, Note_on_c, 0, 38, 67
3, 467532, Note_on_c, 0, 38, 0
3, 467550, Note_on_c, 0, 50, 67
3, 467597, Note_on_c, 0, 73, 0
3, 467622, Note_on_c, 0, 50, 0
3, 467640, Note_on_c, 0, 72, 74
3, 467640, Note_on_c, 0, 38, 67
3, 467712, Note_on_c, 0, 38, 0
3, 467730, Note_on_c, 0, 50, 67
3, 467802, Note_on_c, 0, 50, 0
3, 467820, Note_on_c, 0, 38, 67
3, 467892, Note_on_c, 0, 38, 0
3, 467910, Note_on_c, 0, 50, 67
3, 467957, Note_on_c, 0, 72, 0
3, 467982, Note_on_c, 0, 50, 0
3, 468000, Note_on_c, 0, 71, 67
3, 468000, Note_on_c, 0, 38, 67
3, 468072, Note_on_c, 0, 38, 0
3, 468090, Note_on_c, 0, 50, 69
3, 468162, Note_on_c, 0, 50, 0
3, 468180, Note_on_c, 0, 38, 70
3, 468252, Note_on_c, 0, 38, 0
3, 468270, Note_on_c, 0, 50, 71
3, 468317, Note_on_c, 0, 71, 0
3, 468342, Note_on_c, 0, 50, 0
3, 468360, Note_on_c, 0, 70, 72
3, 468360, Note_on_c, 0, 38, 72
3, 468432, Note_on_c, 0, 38, 0
3, 468450, Note_on_c, 0, 50, 74
3, 468522, Note_on_c, 0, 50, 0
3, 468540, Note_on_c, 0, 38, 75
3, 468612, Note_on_c, 0, 38, 0
3, 468630, Note_on_c, 0, 50, 76
3, 468677, Note_on_c, 0, 70, 0
3, 468702, Note_on_c, 0, 50, 0
3, 468720, Note_on_c, 0, 69, 77
3, 468720, Note_on_c, 0, 38, 77
3, 468792, Note_on_c, 0, 38, 0
3, 468810, Note_on_c, 0, 50, 79
3, 468882, Note_on_c, 0, 50, 0
3, 468900, Note_on_c, 0, 38, 80
3, 468972, Note_on_c, 0, 38, 0
3, 468990, Note_on_c, 0, 50, 81
3, 469037, Note_on_c, 0, 69, 0
3, 469062, Note_on_c, 0, 50, 0
3, 469080, Note_on_c, 0, 38, 67
3, 469152, Note_on_c, 0, 38, 0
3, 469170, Note_on_c, 0, 50, 67
3, 469242, Note_on_c, 0, 50, 0
3, 469260, Note_on_c, 0, 38, 67
3, 469332, Note_on_c, 0, 38, 0
3, 469350, Note_on_c, 0, 50, 67
3, 469422, Note_on_c, 0, 50, 0
3, 469440, Note_on_c, 0, 69, 69
3, 469440, Note_on_c, 0, 38, 67
3, 469512, Note_on_c, 0, 38, 0
3, 469530, Note_on_c, 0, 50, 67
3, 469602, Note_on_c, 0, 50, 0
3, 469620, Note_on_c, 0, 38, 67
3, 469692, Note_on_c, 0, 38, 0
3, 469710, Note_on_c, 0, 50, 67
3, 469757, Note_on_c, 0, 69, 0
3, 469782, Note_on_c, 0, 50, 0
3, 469800, Note_on_c, 0, 68, 75
3, 469800, Note_on_c, 0, 38, 67
3, 469872, Note_on_c, 0, 38, 0
3, 469890, Note_on_c, 0, 50, 67
3, 469962, Note_on_c, 0, 50, 0
3, 469980, Note_on_c, 0, 38, 67
3, 470052, Note_on_c, 0, 38, 0
3, 470070, Note_on_c, 0, 50, 67
3, 470117, Note_on_c, 0, 68, 0
3, 470142, Note_on_c, 0, 50, 0
3, 470160, Note_on_c, 0, 67, 67
3, 470160, Note_on_c, 0, 38, 67
3, 470232, Note_on_c, 0, 38, 0
3, 470250, Note_on_c, 0, 50, 69
3, 470322, Note_on_c, 0, 50, 0
3, 470340, Note_on_c, 0, 38, 70
3, 470412, Note_on_c, 0, 38, 0
3, 470430, Note_on_c, 0, 50, 72
3, 470477, Note_on_c, 0, 67, 0
3, 470502, Note_on_c, 0, 50, 0
3, 470520, Note_on_c, 0, 66, 74
3, 470520, Note_on_c, 0, 38, 74
3, 470592, Note_on_c, 0, 38, 0
3, 470610, Note_on_c, 0, 50, 75
3, 470682, Note_on_c, 0, 50, 0
3, 470700, Note_on_c, 0, 38, 77
3, 470772, Note_on_c, 0, 38, 0
3, 470790, Note_on_c, 0, 50, 78
3, 470837, Note_on_c, 0, 66, 0
3, 470862, Note_on_c, 0, 50, 0
3, 470880, Note_on_c, 0, 65, 89
3, 470880, Note_on_c, 0, 38, 80
3, 470952, Note_on_c, 0, 38, 0
3, 470970, Note_on_c, 0, 50, 82
3, 471042, Note_on_c, 0, 50, 0
3, 471060, Note_on_c, 0, 38, 83
3, 471132, Note_on_c, 0, 38, 0
3, 471150, Note_on_c, 0, 50, 85
3, 471197, Note_on_c, 0, 65, 0
3, 471222, Note_on_c, 0, 50, 0
3, 471240, Note_on_c, 0, 64, 99
3, 471240, Note_on_c, 0, 38, 78
3, 471312, Note_on_c, 0, 38, 0
3, 471330, Note_on_c, 0, 50, 76
3, 471402, Note_on_c, 0, 50, 0
3, 471420, Note_on_c, 0, 38, 78
3, 471492, Note_on_c, 0, 38, 0
3, 471510, Note_on_c, 0, 50, 76
3, 471557, Note_on_c, 0, 64, 0
3, 471582, Note_on_c, 0, 50, 0
3, 471600, Note_on_c, 0, 63, 80
3, 471600, Note_on_c, 0, 38, 78
3, 471672, Note_on_c, 0, 38, 0
3, 471690, Note_on_c, 0, 50, 76
3, 471762, Note_on_c, 0, 50, 0
3, 471780, Note_on_c, 0, 38, 78
3, 471852, Note_on_c, 0, 38, 0
3, 471870, Note_on_c, 0, 50, 76
3, 471917, Note_on_c, 0, 63, 0
3, 471942, Note_on_c, 0, 50, 0
3, 471960, Note_on_c, 0, 62, 76
3, 471960, Note_on_c, 0, 38, 78
3, 472032, Note_on_c, 0, 38, 0
3, 472050, Note_on_c, 0, 50, 76
3, 472122, Note_on_c, 0, 50, 0
3, 472140, Note_on_c, 0, 38, 78
3, 472212, Note_on_c, 0, 38, 0
3, 472230, Note_on_c, 0, 50, 76
3, 472277, Note_on_c, 0, 62, 0
3, 472302, Note_on_c, 0, 50, 0
3, 472320, Note_on_c, 0, 61, 74
3, 472320, Note_on_c, 0, 38, 78
3, 472392, Note_on_c, 0, 38, 0
3, 472410, Note_on_c, 0, 50, 76
3, 472482, Note_on_c, 0, 50, 0
3, 472500, Note_on_c, 0, 38, 78
3, 472572, Note_on_c, 0, 38, 0
3, 472590, Note_on_c, 0, 50, 76
3, 472637, Note_on_c, 0, 61, 0
3, 472662, Note_on_c, 0, 50, 0
3, 472680, Note_on_c, 0, 60, 76
3, 472680, Note_on_c, 0, 38, 78
3, 472752, Note_on_c, 0, 38, 0
3, 472770, Note_on_c, 0, 50, 76
3, 472842, Note_on_c, 0, 50, 0
3, 472860, Note_on_c, 0, 38, 78
3, 472932, Note_on_c, 0, 38, 0
3, 472950, Note_on_c, 0, 50, 76
3, 472997, Note_on_c, 0, 60, 0
3, 473022, Note_on_c, 0, 50, 0
3, 473040, Note_on_c, 0, 59, 73
3, 473040, Note_on_c, 0, 38, 78
3, 473112, Note_on_c, 0, 38, 0
3, 473130, Note_on_c, 0, 50, 76
3, 473202, Note_on_c, 0, 50, 0
3, 473220, Note_on_c, 0, 38, 78
3, 473292, Note_on_c, 0, 38, 0
3, 473310, Note_on_c, 0, 50, 76
3, 473357, Note_on_c, 0, 59, 0
3, 473382, Note_on_c, 0, 50, 0
3, 473400, Note_on_c, 0, 58, 75
3, 473400, Note_on_c, 0, 38, 67
3, 473472, Note_on_c, 0, 38, 0
3, 473490, Note_on_c, 0, 50, 67
3, 473562, Note_on_c, 0, 50, 0
3, 473580, Note_on_c, 0, 38, 66
3, 473652, Note_on_c, 0, 38, 0
3, 473670, Note_on_c, 0, 50, 66
3, 473742, Note_on_c, 0, 50, 0
3, 473760, Note_on_c, 0, 38, 65
3, 473832, Note_on_c, 0, 38, 0
3, 473850, Note_on_c, 0, 50, 65
3, 473922, Note_on_c, 0, 50, 0
3, 473940, Note_on_c, 0, 38, 64
3, 474012, Note_on_c, 0, 38, 0
3, 474030, Note_on_c, 0, 50, 64
3, 474102, Note_on_c, 0, 50, 0
3, 474120, Note_on_c, 0, 38, 63
3, 474192, Note_on_c, 0, 38, 0
3, 474210, Note_on_c, 0, 50, 63
3, 474282, Note_on_c, 0, 50, 0
3, 474300, Note_on_c, 0, 38, 62
3, 474372, Note_on_c, 0, 38, 0
3, 474390, Note_on_c, 0, 50, 62
3, 474462, Note_on_c, 0, 50, 0
3, 474480, Note_on_c, 0, 38, 61
3, 474552, Note_on_c, 0, 38, 0
3, 474570, Note_on_c, 0, 50, 60
3, 474642, Note_on_c, 0, 50, 0
3, 474660, Note_on_c, 0, 38, 60
3, 474732, Note_on_c, 0, 38, 0
3, 474750, Note_on_c, 0, 50, 59
3, 474822, Note_on_c, 0, 50, 0
3, 474840, Note_on_c, 0, 57, 93
3, 474840, Note_on_c, 0, 38, 59
3, 474912, Note_on_c, 0, 38, 0
3, 474930, Note_on_c, 0, 50, 58
3, 475002, Note_on_c, 0, 50, 0
3, 475020, Note_on_c, 0, 38, 58
3, 475092, Note_on_c, 0, 38, 0
3, 475110, Note_on_c, 0, 50, 57
3, 475182, Note_on_c, 0, 50, 0
3, 475200, Note_on_c, 0, 38, 57
3, 475272, Note_on_c, 0, 38, 0
3, 475290, Note_on_c, 0, 50, 56
3, 475300, Note_on_c, 0, 58, 0
3, 475362, Note_on_c, 0, 50, 0
3, 475380, Note_on_c, 0, 38, 56
3, 475452, Note_on_c, 0, 38, 0
3, 475470, Note_on_c, 0, 50, 55
3, 475473, Note_on_c, 0, 57, 0
3, 475542, Note_on_c, 0, 50, 0
3, 475560, Note_on_c, 0, 26, 75
3, 475632, Note_on_c, 0, 26, 0
3, 475650, Note_on_c, 0, 38, 62
3, 475722, Note_on_c, 0, 38, 0
3, 475740, Note_on_c, 0, 26, 75
3, 475812, Note_on_c, 0, 26, 0
3, 475830, Note_on_c, 0, 38, 62
3, 475902, Note_on_c, 0, 38, 0
3, 475920, Note_on_c, 0, 61, 74
3, 475920, Note_on_c, 0, 26, 75
3, 475992, Note_on_c, 0, 26, 0
3, 476010, Note_on_c, 0, 38, 62
3, 476082, Note_on_c, 0, 38, 0
3, 476100, Note_on_c, 0, 26, 75
3, 476172, Note_on_c, 0, 26, 0
3, 476190, Note_on_c, 0, 38, 62
3, 476237, Note_on_c, 0, 61, 0
3, 476262, Note_on_c, 0, 38, 0
3, 476280, Note_on_c, 0, 60, 75
3, 476280, Note_on_c, 0, 26, 75
3, 476352, Note_on_c, 0, 26, 0
3, 476370, Note_on_c, 0, 38, 62
3, 476442, Note_on_c, 0, 38, 0
3, 476460, Note_on_c, 0, 26, 75
3, 476532, Note_on_c, 0, 26, 0
3, 476550, Note_on_c, 0, 38, 62
3, 476597, Note_on_c, 0, 60, 0
3, 476622, Note_on_c, 0, 38, 0
3, 476640, Note_on_c, 0, 59, 74
3, 476640, Note_on_c, 0, 26, 75
3, 476712, Note_on_c, 0, 26, 0
3, 476730, Note_on_c, 0, 38, 62
3, 476802, Note_on_c, 0, 38, 0
3, 476820, Note_on_c, 0, 26, 75
3, 476892, Note_on_c, 0, 26, 0
3, 476910, Note_on_c, 0, 38, 62
3, 476957, Note_on_c, 0, 59, 0
3, 476982, Note_on_c, 0, 38, 0
3, 477000, Note_on_c, 0, 58, 75
3, 477000, Note_on_c, 0, 26, 75
3, 477072, Note_on_c, 0, 26, 0
3, 477090, Note_on_c, 0, 38, 62
3, 477162, Note_on_c, 0, 38, 0
3, 477180, Note_on_c, 0, 26, 75
3, 477252, Note_on_c, 0, 26, 0
3, 477270, Note_on_c, 0, 38, 62
3, 477317, Note_on_c, 0, 58, 0
3, 477342, Note_on_c, 0, 38, 0
3, 477360, Note_on_c, 0, 57, 67
3, 477360, Note_on_c, 0, 26, 75
3, 477432, Note_on_c, 0, 26, 0
3, 477450, Note_on_c, 0, 38, 62
3, 477522, Note_on_c, 0, 38, 0
3, 477540, Note_on_c, 0, 26, 75
3, 477612, Note_on_c, 0, 26, 0
3, 477630, Note_on_c, 0, 38, 62
3, 477677, Note_on_c, 0, 57, 0
3, 477702, Note_on_c, 0, 38, 0
3, 477720, Note_on_c, 0, 26, 68
3, 477792, Note_on_c, 0, 26, 0
3, 477810, Note_on_c, 0, 38, 48
3, 477882, Note_on_c, 0, 38, 0
3, 477900, Note_on_c, 0, 26, 68
3, 477972, Note_on_c, 0, 26, 0
3, 477990, Note_on_c, 0, 38, 48
3, 478062, Note_on_c, 0, 38, 0
3, 478080, Note_on_c, 0, 57, 72
3, 478080, Note_on_c, 0, 26, 68
3, 478152, Note_on_c, 0, 26, 0
3, 478170, Note_on_c, 0, 38, 48
3, 478242, Note_on_c, 0, 38, 0
3, 478260, Note_on_c, 0, 26, 68
3, 478332, Note_on_c, 0, 26, 0
3, 478350, Note_on_c, 0, 38, 48
3, 478397, Note_on_c, 0, 57, 0
3, 478422, Note_on_c, 0, 38, 0
3, 478440, Note_on_c, 0, 56, 67
3, 478440, Note_on_c, 0, 26, 68
3, 478512, Note_on_c, 0, 26, 0
3, 478530, Note_on_c, 0, 38, 48
3, 478602, Note_on_c, 0, 38, 0
3, 478620, Note_on_c, 0, 26, 68
3, 478692, Note_on_c, 0, 26, 0
3, 478710, Note_on_c, 0, 38, 48
3, 478757, Note_on_c, 0, 56, 0
3, 478782, Note_on_c, 0, 38, 0
3, 478800, Note_on_c, 0, 55, 91
3, 478800, Note_on_c, 0, 26, 68
3, 478872, Note_on_c, 0, 26, 0
3, 478890, Note_on_c, 0, 38, 48
3, 478962, Note_on_c, 0, 38, 0
3, 478980, Note_on_c, 0, 26, 68
3, 479052, Note_on_c, 0, 26, 0
3, 479070, Note_on_c, 0, 38, 48
3, 479117, Note_on_c, 0, 55, 0
3, 479142, Note_on_c, 0, 38, 0
3, 479160, Note_on_c, 0, 54, 86
3, 479160, Note_on_c, 0, 26, 68
3, 479232, Note_on_c, 0, 26, 0
3, 479250, Note_on_c, 0, 38, 48
3, 479322, Note_on_c, 0, 38, 0
3, 479340, Note_on_c, 0, 26, 68
3, 479412, Note_on_c, 0, 26, 0
3, 479430, Note_on_c, 0, 38, 48
3, 479477, Note_on_c, 0, 54, 0
3, 479502, Note_on_c, 0, 38, 0
3, 479520, Note_on_c, 0, 53, 80
3, 479520, Note_on_c, 0, 26, 68
3, 479592, Note_on_c, 0, 26, 0
3, 479610, Note_on_c, 0, 38, 48
3, 479682, Note_on_c, 0, 38, 0
3, 479700, Note_on_c, 0, 26, 68
3, 479772, Note_on_c, 0, 26, 0
3, 479790, Note_on_c, 0, 38, 48
3, 479837, Note_on_c, 0, 53, 0
3, 479862, Note_on_c, 0, 38, 0
3, 479880, Note_on_c, 0, 52, 103
3, 479880, Note_on_c, 0, 26, 80
3, 479952, Note_on_c, 0, 26, 0
3, 479970, Note_on_c, 0, 38, 78
3, 480042, Note_on_c, 0, 38, 0
3, 480060, Note_on_c, 0, 26, 80
3, 480132, Note_on_c, 0, 26, 0
3, 480150, Note_on_c, 0, 38, 78
3, 480197, Note_on_c, 0, 52, 0
3, 480222, Note_on_c, 0, 38, 0
3, 480240, Note_on_c, 0, 51, 77
3, 480240, Note_on_c, 0, 26, 80
3, 480312, Note_on_c, 0, 26, 0
3, 480330, Note_on_c, 0, 38, 78
3, 480402, Note_on_c, 0, 38, 0
3, 480420, Note_on_c, 0, 26, 80
3, 480492, Note_on_c, 0, 26, 0
3, 480510, Note_on_c, 0, 38, 78
3, 480557, Note_on_c, 0, 51, 0
3, 480582, Note_on_c, 0, 38, 0
3, 480600, Note_on_c, 0, 50, 74
3, 480600, Note_on_c, 0, 26, 80
3, 480672, Note_on_c, 0, 26, 0
3, 480690, Note_on_c, 0, 38, 78
3, 480762, Note_on_c, 0, 38, 0
3, 480780, Note_on_c, 0, 26, 80
3, 480852, Note_on_c, 0, 26, 0
3, 480870, Note_on_c, 0, 38, 78
3, 480917, Note_on_c, 0, 50, 0
3, 480942, Note_on_c, 0, 38, 0
3, 480960, Note_on_c, 0, 49, 81
3, 480960, Note_on_c, 0, 26, 80
3, 481032, Note_on_c, 0, 26, 0
3, 481050, Note_on_c, 0, 38, 78
3, 481122, Note_on_c, 0, 38, 0
3, 481140, Note_on_c, 0, 26, 80
3, 481212, Note_on_c, 0, 26, 0
3, 481230, Note_on_c, 0, 38, 78
3, 481277, Note_on_c, 0, 49, 0
3, 481302, Note_on_c, 0, 38, 0
3, 481320, Note_on_c, 0, 48, 83
3, 481320, Note_on_c, 0, 26, 80
3, 481392, Note_on_c, 0, 26, 0
3, 481410, Note_on_c, 0, 38, 78
3, 481482, Note_on_c, 0, 38, 0
3, 481500, Note_on_c, 0, 26, 80
3, 481572, Note_on_c, 0, 26, 0
3, 481590, Note_on_c, 0, 38, 78
3, 481637, Note_on_c, 0, 48, 0
3, 481662, Note_on_c, 0, 38, 0
3, 481680, Note_on_c, 0, 47, 76
3, 481680, Note_on_c, 0, 26, 80
3, 481752, Note_on_c, 0, 26, 0
3, 481770, Note_on_c, 0, 38, 78
3, 481842, Note_on_c, 0, 38, 0
3, 481860, Note_on_c, 0, 26, 80
3, 481932, Note_on_c, 0, 26, 0
3, 481950, Note_on_c, 0, 38, 78
3, 481997, Note_on_c, 0, 47, 0
3, 482022, Note_on_c, 0, 38, 0
3, 482040, Note_on_c, 0, 46, 110
3, 482040, Note_on_c, 0, 26, 67
3, 482112, Note_on_c, 0, 26, 0
3, 482130, Note_on_c, 0, 38, 67
3, 482202, Note_on_c, 0, 38, 0
3, 482220, Note_on_c, 0, 26, 66
3, 482292, Note_on_c, 0, 26, 0
3, 482310, Note_on_c, 0, 38, 66
3, 482382, Note_on_c, 0, 38, 0
3, 482400, Note_on_c, 0, 51, 65
3, 482400, Note_on_c, 0, 26, 65
3, 482472, Note_on_c, 0, 26, 0
3, 482490, Note_on_c, 0, 38, 65
3, 482562, Note_on_c, 0, 38, 0
3, 482580, Note_on_c, 0, 26, 64
3, 482652, Note_on_c, 0, 26, 0
3, 482670, Note_on_c, 0, 38, 64
3, 482742, Note_on_c, 0, 38, 0
3, 482760, Note_on_c, 0, 26, 63
3, 482832, Note_on_c, 0, 26, 0
3, 482850, Note_on_c, 0, 38, 63
3, 482922, Note_on_c, 0, 38, 0
3, 482940, Note_on_c, 0, 26, 62
3, 483012, Note_on_c, 0, 26, 0
3, 483030, Note_on_c, 0, 38, 62
3, 483033, Note_on_c, 0, 51, 0
3, 483102, Note_on_c, 0, 38, 0
3, 483120, Note_on_c, 0, 50, 61
3, 483120, Note_on_c, 0, 26, 61
3, 483192, Note_on_c, 0, 26, 0
3, 483210, Note_on_c, 0, 38, 60
3, 483282, Note_on_c, 0, 38, 0
3, 483300, Note_on_c, 0, 26, 60
3, 483372, Note_on_c, 0, 26, 0
3, 483390, Note_on_c, 0, 38, 59
3, 483462, Note_on_c, 0, 38, 0
3, 483480, Note_on_c, 0, 46, 0
3, 483480, Note_on_c, 0, 45, 102
3, 483480, Note_on_c, 0, 26, 59
3, 483552, Note_on_c, 0, 26, 0
3, 483570, Note_on_c, 0, 38, 58
3, 483642, Note_on_c, 0, 38, 0
3, 483660, Note_on_c, 0, 26, 58
3, 483732, Note_on_c, 0, 26, 0
3, 483750, Note_on_c, 0, 38, 57
3, 483753, Note_on_c, 0, 50, 0
3, 483822, Note_on_c, 0, 38, 0
3, 483840, Note_on_c, 0, 49, 57
3, 483840, Note_on_c, 0, 26, 57
3, 483912, Note_on_c, 0, 26, 0
3, 483930, Note_on_c, 0, 38, 56
3, 484002, Note_on_c, 0, 38, 0
3, 484020, Note_on_c, 0, 26, 56
3, 484092, Note_on_c, 0, 26, 0
3, 484110, Note_on_c, 0, 38, 55
3, 484157, Note_on_c, 0, 49, 0
3, 484182, Note_on_c, 0, 38, 0
3, 484200, Note_on_c, 0, 45, 0
3, 484200, Note_on_c, 0, 57, 55
3, 484200, Note_on_c, 0, 50, 98
3, 484200, Note_on_c, 0, 38, 55
3, 484379, Note_on_c, 0, 38, 0
3, 484560, Note_on_c, 0, 37, 66
3, 484560, Note_on_c, 0, 49, 66
3, 484674, Note_on_c, 0, 50, 0
3, 484739, Note_on_c, 0, 49, 0
3, 484739, Note_on_c, 0, 37, 0
3, 484740, Note_on_c, 0, 53, 104
3, 484920, Note_on_c, 0, 53, 0
3, 484920, Note_on_c, 0, 52, 99
3, 484920, Note_on_c, 0, 36, 58
3, 484920, Note_on_c, 0, 48, 58
3, 485099, Note_on_c, 0, 48, 0
3, 485099, Note_on_c, 0, 36, 0
3, 485280, Note_on_c, 0, 35, 51
3, 485280, Note_on_c, 0, 47, 51
3, 485459, Note_on_c, 0, 47, 0
3, 485459, Note_on_c, 0, 35, 0
3, 485460, Note_on_c, 0, 52, 0
3, 485460, Note_on_c, 0, 53, 105
3, 485467, Note_on_c, 0, 57, 0
3, 485640, Note_on_c, 0, 53, 0
3, 485640, Note_on_c, 0, 55, 57
3, 485640, Note_on_c, 0, 50, 92
3, 485640, Note_on_c, 0, 34, 51
3, 485640, Note_on_c, 0, 46, 51
3, 485819, Note_on_c, 0, 46, 0
3, 485819, Note_on_c, 0, 34, 0
3, 485819, Note_on_c, 0, 50, 0
3, 486000, Note_on_c, 0, 49, 93
3, 486000, Note_on_c, 0, 33, 53
3, 486000, Note_on_c, 0, 45, 53
3, 486179, Note_on_c, 0, 45, 0
3, 486179, Note_on_c, 0, 33, 0
3, 486179, Note_on_c, 0, 49, 0
3, 486360, Note_on_c, 0, 55, 0
3, 486360, Note_on_c, 0, 57, 55
3, 486360, Note_on_c, 0, 50, 98
3, 486360, Note_on_c, 0, 38, 55
3, 486539, Note_on_c, 0, 38, 0
3, 486720, Note_on_c, 0, 37, 57
3, 486720, Note_on_c, 0, 49, 57
3, 486834, Note_on_c, 0, 50, 0
3, 486899, Note_on_c, 0, 49, 0
3, 486899, Note_on_c, 0, 37, 0
3, 486900, Note_on_c, 0, 53, 101
3, 487080, Note_on_c, 0, 53, 0
3, 487080, Note_on_c, 0, 52, 102
3, 487080, Note_on_c, 0, 36, 59
3, 487080, Note_on_c, 0, 48, 59
3, 487259, Note_on_c, 0, 48, 0
3, 487259, Note_on_c, 0, 36, 0
3, 487440, Note_on_c, 0, 35, 61
3, 487440, Note_on_c, 0, 47, 61
3, 487619, Note_on_c, 0, 47, 0
3, 487619, Note_on_c, 0, 35, 0
3, 487620, Note_on_c, 0, 52, 0
3, 487620, Note_on_c, 0, 53, 105
3, 487627, Note_on_c, 0, 57, 0
3, 487800, Note_on_c, 0, 53, 0
3, 487800, Note_on_c, 0, 55, 63
3, 487800, Note_on_c, 0, 50, 106
3, 487800, Note_on_c, 0, 34, 63
3, 487800, Note_on_c, 0, 46, 63
3, 487979, Note_on_c, 0, 46, 0
3, 487979, Note_on_c, 0, 34, 0
3, 487979, Note_on_c, 0, 50, 0
3, 488160, Note_on_c, 0, 49, 108
3, 488160, Note_on_c, 0, 33, 65
3, 488160, Note_on_c, 0, 45, 65
3, 488339, Note_on_c, 0, 45, 0
3, 488339, Note_on_c, 0, 33, 0
3, 488339, Note_on_c, 0, 49, 0
3, 488520, Note_on_c, 0, 55, 0
3, 488520, Note_on_c, 0, 57, 67
3, 488520, Note_on_c, 0, 38, 67
3, 488520, Note_on_c, 0, 50, 67
3, 488699, Note_on_c, 0, 50, 0
3, 488699, Note_on_c, 0, 38, 0
3, 488880, Note_on_c, 0, 36, 65
3, 488880, Note_on_c, 0, 48, 65
3, 489059, Note_on_c, 0, 48, 0
3, 489059, Note_on_c, 0, 36, 0
3, 489153, Note_on_c, 0, 57, 0
3, 489240, Note_on_c, 0, 55, 73
3, 489240, Note_on_c, 0, 34, 63
3, 489240, Note_on_c, 0, 46, 63
3, 489419, Note_on_c, 0, 46, 0
3, 489419, Note_on_c, 0, 34, 0
3, 489600, Note_on_c, 0, 33, 64
3, 489600, Note_on_c, 0, 45, 64
3, 489779, Note_on_c, 0, 45, 0
3, 489779, Note_on_c, 0, 33, 0
3, 489873, Note_on_c, 0, 55, 0
3, 489960, Note_on_c, 0, 57, 67
3, 489960, Note_on_c, 0, 38, 67
3, 489960, Note_on_c, 0, 50, 67
3, 490139, Note_on_c, 0, 50, 0
3, 490139, Note_on_c, 0, 38, 0
3, 490320, Note_on_c, 0, 36, 70
3, 490320, Note_on_c, 0, 48, 70
3, 490499, Note_on_c, 0, 48, 0
3, 490499, Note_on_c, 0, 36, 0
3, 490593, Note_on_c, 0, 57, 0
3, 490680, Note_on_c, 0, 55, 74
3, 490680, Note_on_c, 0, 34, 74
3, 490680, Note_on_c, 0, 46, 74
3, 490859, Note_on_c, 0, 46, 0
3, 490859, Note_on_c, 0, 34, 0
3, 491040, Note_on_c, 0, 33, 77
3, 491040, Note_on_c, 0, 45, 77
3, 491219, Note_on_c, 0, 45, 0
3, 491219, Note_on_c, 0, 33, 0
3, 491313, Note_on_c, 0, 55, 0
3, 491400, Note_on_c, 0, 57, 80
3, 491400, Note_on_c, 0, 62, 80
3, 491400, Note_on_c, 0, 38, 80
3, 491580, Note_on_c, 0, 38, 0
3, 491580, Note_on_c, 0, 62, 0
3, 491580, Note_on_c, 0, 57, 0
3, 491580, Note_on_c, 0, 65, 88
3, 491580, Note_on_c, 0, 36, 77
3, 491760, Note_on_c, 0, 36, 0
3, 491760, Note_on_c, 0, 65, 0
3, 491760, Note_on_c, 0, 55, 74
3, 491760, Note_on_c, 0, 62, 74
3, 491760, Note_on_c, 0, 34, 93
3, 491760, Note_on_c, 0, 46, 93
3, 492120, Note_on_c, 0, 46, 0
3, 492120, Note_on_c, 0, 55, 0
3, 492120, Note_on_c, 0, 62, 0
3, 492120, Note_on_c, 0, 34, 0
3, 492120, Note_on_c, 0, 61, 75
3, 492120, Note_on_c, 0, 33, 78
3, 492120, Note_on_c, 0, 45, 78
3, 492480, Note_on_c, 0, 45, 0
3, 492480, Note_on_c, 0, 33, 0
3, 492480, Note_on_c, 0, 61, 0
3, 492480, Note_on_c, 0, 57, 80
3, 492480, Note_on_c, 0, 62, 80
3, 492480, Note_on_c, 0, 38, 80
3, 492660, Note_on_c, 0, 38, 0
3, 492660, Note_on_c, 0, 62, 0
3, 492660, Note_on_c, 0, 57, 0
3, 492660, Note_on_c, 0, 65, 82
3, 492660, Note_on_c, 0, 36, 82
3, 492840, Note_on_c, 0, 36, 0
3, 492840, Note_on_c, 0, 65, 0
3, 492840, Note_on_c, 0, 55, 84
3, 492840, Note_on_c, 0, 62, 84
3, 492840, Note_on_c, 0, 34, 84
3, 492840, Note_on_c, 0, 46, 84
3, 493200, Note_on_c, 0, 46, 0
3, 493200, Note_on_c, 0, 55, 0
3, 493200, Note_on_c, 0, 62, 0
3, 493200, Note_on_c, 0, 34, 0
3, 493200, Note_on_c, 0, 61, 88
3, 493200, Note_on_c, 0, 33, 88
3, 493200, Note_on_c, 0, 45, 88
3, 493560, Note_on_c, 0, 45, 0
3, 493560, Note_on_c, 0, 33, 0
3, 493560, Note_on_c, 0, 61, 0
3, 493560, Note_on_c, 0, 57, 93
3, 493560, Note_on_c, 0, 62, 93
3, 493560, Note_on_c, 0, 69, 93
3, 493560, Note_on_c, 0, 38, 93
3, 493560, Note_on_c, 0, 50, 93
3, 493920, Note_on_c, 0, 50, 0
3, 493920, Note_on_c, 0, 69, 0
3, 493920, Note_on_c, 0, 57, 0
3, 493920, Note_on_c, 0, 62, 0
3, 493920, Note_on_c, 0, 38, 0
3, 493920, Note_on_c, 0, 55, 111
3, 493920, Note_on_c, 0, 67, 111
3, 493920, Note_on_c, 0, 34, 111
3, 493920, Note_on_c, 0, 46, 111
3, 494280, Note_on_c, 0, 46, 0
3, 494280, Note_on_c, 0, 55, 0
3, 494280, Note_on_c, 0, 67, 0
3, 494280, Note_on_c, 0, 34, 0
3, 494280, Note_on_c, 0, 57, 93
3, 494280, Note_on_c, 0, 62, 93
3, 494280, Note_on_c, 0, 69, 93
3, 494280, Note_on_c, 0, 38, 93
3, 494280, Note_on_c, 0, 50, 93
3, 494640, Note_on_c, 0, 50, 0
3, 494640, Note_on_c, 0, 69, 0
3, 494640, Note_on_c, 0, 57, 0
3, 494640, Note_on_c, 0, 62, 0
3, 494640, Note_on_c, 0, 38, 0
3, 494640, Note_on_c, 0, 55, 95
3, 494640, Note_on_c, 0, 67, 95
3, 494640, Note_on_c, 0, 34, 95
3, 494640, Note_on_c, 0, 46, 95
3, 495000, Note_on_c, 0, 46, 0
3, 495000, Note_on_c, 0, 55, 0
3, 495000, Note_on_c, 0, 67, 0
3, 495000, Note_on_c, 0, 34, 0
3, 495000, Note_on_c, 0, 57, 97
3, 495000, Note_on_c, 0, 62, 97
3, 495000, Note_on_c, 0, 69, 97
3, 495000, Note_on_c, 0, 38, 97
3, 495000, Note_on_c, 0, 50, 97
3, 495360, Note_on_c, 0, 50, 0
3, 495360, Note_on_c, 0, 69, 0
3, 495360, Note_on_c, 0, 57, 0
3, 495360, Note_on_c, 0, 62, 0
3, 495360, Note_on_c, 0, 38, 0
3, 495360, Note_on_c, 0, 55, 99
3, 495360, Note_on_c, 0, 67, 99
3, 495360, Note_on_c, 0, 34, 99
3, 495360, Note_on_c, 0, 46, 99
3, 495720, Note_on_c, 0, 46, 0
3, 495720, Note_on_c, 0, 55, 0
3, 495720, Note_on_c, 0, 67, 0
3, 495720, Note_on_c, 0, 34, 0
3, 495720, Note_on_c, 0, 57, 101
3, 495720, Note_on_c, 0, 62, 101
3, 495720, Note_on_c, 0, 69, 101
3, 495720, Note_on_c, 0, 38, 101
3, 495720, Note_on_c, 0, 50, 101
3, 496080, Note_on_c, 0, 50, 0
3, 496080, Note_on_c, 0, 69, 0
3, 496080, Note_on_c, 0, 57, 0
3, 496080, Note_on_c, 0, 62, 0
3, 496080, Note_on_c, 0, 38, 0
3, 496080, Note_on_c, 0, 55, 103
3, 496080, Note_on_c, 0, 67, 103
3, 496080, Note_on_c, 0, 34, 103
3, 496080, Note_on_c, 0, 46, 103
3, 496440, Note_on_c, 0, 46, 0
3, 496440, Note_on_c, 0, 55, 0
3, 496440, Note_on_c, 0, 67, 0
3, 496440, Note_on_c, 0, 34, 0
3, 496440, Note_on_c, 0, 62, 105
3, 496440, Note_on_c, 0, 38, 105
3, 496440, Note_on_c, 0, 50, 105
3, 496620, Note_on_c, 0, 50, 0
3, 496620, Note_on_c, 0, 38, 0
3, 496620, Note_on_c, 0, 62, 0
3, 496620, End_track
0, 0, End_of_file
