0, 0, Header, 1, 3, 360
1, 0, Start_track
1, 0, Title_t, "untitled"
1, 0, Time_signature, 2, 1, 48, 8
1, 0, Key_signature, 0, "major"
1, 0, Tempo, 238095
1, 115560, Tempo, 238095
1, 115792, Tempo, 241633
1, 116024, Tempo, 245278
1, 116256, Tempo, 249035
1, 116720, Tempo, 256915
1, 116952, Tempo, 261040
1, 117184, Tempo, 265299
1, 117416, Tempo, 269699
1, 117648, Tempo, 274248
1, 118112, Tempo, 283836
1, 118344, Tempo, 288878
1, 118577, Tempo, 294103
1, 118809, Tempo, 299521
1, 119040, Tempo, 305142
1, 119273, Tempo, 310978
1, 119520, Tempo, 317460
1, 120240, Tempo, 333333
1, 120420, Tempo, 317460
1, 120443, Tempo, 322581
1, 120465, Tempo, 327869
1, 120488, Tempo, 333333
1, 120510, Tempo, 338983
1, 120533, Tempo, 344828
1, 120555, Tempo, 350877
1, 120578, Tempo, 357143
1, 120600, Tempo, 363636
1, 120623, Tempo, 370370
1, 120645, Tempo, 377358
1, 120668, Tempo, 384615
1, 120690, Tempo, 392157
1, 120713, Tempo, 400000
1, 120735, Tempo, 408163
1, 120758, Tempo, 416667
1, 120780, Tempo, 425532
1, 120960, Tempo, 315789
1, 154080, Tempo, 315789
1, 154143, Tempo, 320547
1, 154207, Tempo, 325433
1, 154270, Tempo, 330487
1, 154333, Tempo, 335683
1, 154397, Tempo, 341064
1, 154460, Tempo, 346620
1, 154523, Tempo, 352340
1, 154586, Tempo, 358273
1, 154650, Tempo, 364409
1, 154713, Tempo, 370737
1, 154776, Tempo, 377311
1, 154839, Tempo, 384098
1, 154903, Tempo, 391160
1, 154966, Tempo, 398486
1, 155029, Tempo, 406064
1, 155093, Tempo, 413964
1, 155159, Tempo, 422535
1, 155520, Tempo, 272727
1, 187200, Tempo, 272727
1, 187362, Tempo, 267594
1, 187524, Tempo, 262651
1, 187685, Tempo, 257887
1, 187847, Tempo, 253293
1, 188009, Tempo, 248859
1, 188171, Tempo, 244579
1, 188332, Tempo, 240442
1, 188655, Tempo, 232576
1, 188817, Tempo, 228833
1, 188979, Tempo, 225208
1, 189141, Tempo, 221697
1, 189302, Tempo, 218293
1, 189464, Tempo, 214992
1, 189626, Tempo, 211790
1, 189788, Tempo, 208681
1, 189959, Tempo, 205479
1, 190080, Tempo, 238095
1, 270720, Tempo, 288462
1, 427680, Tempo, 285714
1, 428400, Tempo, 283019
1, 429120, Tempo, 280374
1, 429840, Tempo, 277778
1, 430560, Tempo, 275229
1, 431280, Tempo, 272727
1, 432000, Tempo, 270270
1, 432720, Tempo, 267857
1, 433440, Tempo, 263158
1, 433980, Tempo, 260870
1, 434879, Tempo, 258621
1, 435420, Tempo, 256410
1, 436320, Tempo, 254237
1, 437040, Tempo, 252101
1, 437760, Tempo, 250000
1, 438480, Tempo, 247934
1, 439200, Tempo, 245902
1, 439920, Tempo, 243902
1, 440640, Tempo, 241935
1, 441360, Tempo, 240000
1, 442080, Tempo, 238095
1, 554760, Tempo, 238095
1, 555024, Tempo, 241643
1, 555289, Tempo, 245298
1, 555553, Tempo, 249066
1, 556082, Tempo, 256970
1, 556346, Tempo, 261108
1, 556611, Tempo, 265381
1, 556875, Tempo, 269796
1, 557404, Tempo, 279083
1, 557668, Tempo, 283970
1, 557933, Tempo, 289031
1, 558197, Tempo, 294291
1, 558726, Tempo, 305375
1, 558990, Tempo, 311236
1, 559260, Tempo, 317460
1, 559440, Tempo, 333333
1, 559620, Tempo, 317460
1, 559643, Tempo, 322581
1, 559665, Tempo, 327869
1, 559688, Tempo, 333333
1, 559710, Tempo, 338983
1, 559733, Tempo, 344828
1, 559755, Tempo, 350877
1, 559778, Tempo, 357143
1, 559800, Tempo, 363636
1, 559823, Tempo, 370370
1, 559845, Tempo, 377358
1, 559868, Tempo, 384615
1, 559890, Tempo, 392157
1, 559913, Tempo, 400000
1, 559935, Tempo, 408163
1, 559958, Tempo, 416667
1, 559980, Tempo, 425532
1, 560160, Tempo, 315789
1, 592920, Tempo, 315789
1, 592993, Tempo, 320496
1, 593066, Tempo, 325327
1, 593139, Tempo, 330324
1, 593286, Tempo, 340774
1, 593359, Tempo, 346240
1, 593432, Tempo, 351906
1, 593505, Tempo, 357760
1, 593578, Tempo, 363791
1, 593651, Tempo, 370051
1, 593724, Tempo, 376506
1, 593798, Tempo, 383215
1, 593871, Tempo, 390142
1, 593944, Tempo, 397351
1, 594017, Tempo, 404831
1, 594090, Tempo, 412570
1, 594180, Tempo, 422535
1, 594719, Tempo, 272727
1, 596160, Tempo, 272727
1, 626400, Tempo, 272727
1, 626555, Tempo, 267594
1, 626709, Tempo, 262651
1, 626864, Tempo, 257887
1, 627019, Tempo, 253293
1, 627174, Tempo, 248859
1, 627328, Tempo, 244579
1, 627483, Tempo, 240442
1, 627638, Tempo, 236444
1, 627947, Tempo, 228833
1, 628102, Tempo, 225208
1, 628256, Tempo, 221705
1, 628411, Tempo, 218301
1, 628566, Tempo, 215000
1, 628721, Tempo, 211797
1, 628875, Tempo, 208688
1, 629040, Tempo, 205479
1, 629280, Tempo, 238095
1, 709920, Tempo, 238095
1, 710068, Tempo, 241633
1, 710216, Tempo, 245278
1, 710363, Tempo, 249035
1, 710511, Tempo, 252919
1, 710658, Tempo, 256915
1, 710806, Tempo, 261040
1, 710954, Tempo, 265299
1, 711101, Tempo, 269699
1, 711397, Tempo, 278953
1, 711544, Tempo, 283836
1, 711692, Tempo, 288878
1, 711840, Tempo, 294103
1, 711987, Tempo, 299521
1, 712135, Tempo, 305142
1, 712283, Tempo, 310978
1, 712440, Tempo, 317460
1, 712800, Tempo, 375000
1, 720000, Tempo, 375000
1, 720148, Tempo, 367985
1, 720296, Tempo, 361250
1, 720443, Tempo, 354736
1, 720591, Tempo, 348452
1, 720738, Tempo, 342407
1, 720886, Tempo, 336549
1, 721034, Tempo, 330888
1, 721181, Tempo, 325415
1, 721477, Tempo, 315010
1, 721624, Tempo, 310045
1, 721772, Tempo, 305250
1, 721920, Tempo, 300586
1, 722067, Tempo, 296062
1, 722215, Tempo, 291687
1, 722363, Tempo, 287425
1, 722520, Tempo, 283019
1, 722880, Tempo, 238095
1, 731520, Tempo, 238095
1, 731668, Tempo, 241633
1, 731816, Tempo, 245288
1, 731963, Tempo, 249045
1, 732111, Tempo, 252919
1, 732258, Tempo, 256926
1, 732406, Tempo, 261051
1, 732554, Tempo, 265311
1, 732701, Tempo, 269724
1, 732997, Tempo, 278979
1, 733144, Tempo, 283862
1, 733292, Tempo, 288906
1, 733440, Tempo, 294132
1, 733587, Tempo, 299566
1, 733735, Tempo, 305188
1, 733883, Tempo, 311042
1, 734039, Tempo, 317460
1, 734400, Tempo, 375000
1, 741600, Tempo, 375000
1, 741748, Tempo, 367985
1, 741896, Tempo, 361228
1, 742043, Tempo, 354715
1, 742191, Tempo, 348452
1, 742338, Tempo, 342388
1, 742486, Tempo, 336530
1, 742634, Tempo, 330870
1, 742781, Tempo, 325397
1, 743077, Tempo, 314977
1, 743224, Tempo, 310029
1, 743372, Tempo, 305219
1, 743520, Tempo, 300556
1, 743667, Tempo, 296033
1, 743815, Tempo, 291644
1, 743963, Tempo, 287384
1, 744119, Tempo, 283019
1, 744480, Tempo, 238095
1, 744480, End_track
2, 0, Start_track
2, 0, Title_t, "Primo"
2, 0, Program_c, 0, 0
2, 0, Control_c, 0, 7, 105
2, 0, Control_c, 0, 10, 79
2, 0, Control_c, 0, 91, 60
2, 0, Control_c, 0, 121, 0
2, 0, Control_c, 0, 121, 0
2, 0, Control_c, 0, 91, 60
2, 0, Control_c, 0, 10, 51
2, 0, Control_c, 0, 7, 100
2, 360, Note_on_c, 0, 76, 80
2, 449, Note_on_c, 0, 76, 0
2, 540, Note_on_c, 0, 76, 87
2, 629, Note_on_c, 0, 76, 0
2, 720, Note_on_c, 0, 76, 114
2, 899, Note_on_c, 0, 76, 0
2, 1080, Note_on_c, 0, 74, 85
2, 1080, Note_on_c, 0, 76, 85
2, 1169, Note_on_c, 0, 76, 0
2, 1169, Note_on_c, 0, 74, 0
2, 1260, Note_on_c, 0, 74, 89
2, 1260, Note_on_c, 0, 76, 89
2, 1349, Note_on_c, 0, 76, 0
2, 1349, Note_on_c, 0, 74, 0
2, 1440, Note_on_c, 0, 74, 113
2, 1440, Note_on_c, 0, 76, 113
2, 1800, Note_on_c, 0, 76, 0
2, 1800, Note_on_c, 0, 74, 0
2, 1800, Note_on_c, 0, 72, 88
2, 1800, Note_on_c, 0, 76, 88
2, 1889, Note_on_c, 0, 76, 0
2, 1889, Note_on_c, 0, 72, 0
2, 1980, Note_on_c, 0, 72, 87
2, 1980, Note_on_c, 0, 76, 87
2, 2069, Note_on_c, 0, 76, 0
2, 2069, Note_on_c, 0, 72, 0
2, 2160, Note_on_c, 0, 72, 114
2, 2160, Note_on_c, 0, 76, 114
2, 2520, Note_on_c, 0, 76, 0
2, 2520, Note_on_c, 0, 72, 0
2, 2520, Note_on_c, 0, 71, 86
2, 2520, Note_on_c, 0, 76, 86
2, 2609, Note_on_c, 0, 76, 0
2, 2609, Note_on_c, 0, 71, 0
2, 2700, Note_on_c, 0, 71, 87
2, 2700, Note_on_c, 0, 76, 87
2, 2789, Note_on_c, 0, 76, 0
2, 2789, Note_on_c, 0, 71, 0
2, 2880, Note_on_c, 0, 69, 111
2, 2880, Note_on_c, 0, 72, 111
2, 2880, Note_on_c, 0, 76, 111
2, 3240, Note_on_c, 0, 76, 0
2, 3240, Note_on_c, 0, 72, 0
2, 3240, Note_on_c, 0, 69, 0
2, 3240, Note_on_c, 0, 72, 56
2, 3240, Note_on_c, 0, 76, 56
2, 3329, Note_on_c, 0, 76, 0
2, 3329, Note_on_c, 0, 72, 0
2, 3420, Note_on_c, 0, 72, 63
2, 3420, Note_on_c, 0, 76, 63
2, 3509, Note_on_c, 0, 76, 0
2, 3509, Note_on_c, 0, 72, 0
2, 3600, Note_on_c, 0, 72, 64
2, 3600, Note_on_c, 0, 76, 64
2, 3960, Note_on_c, 0, 76, 0
2, 3960, Note_on_c, 0, 72, 0
2, 3960, Note_on_c, 0, 72, 67
2, 3960, Note_on_c, 0, 76, 67
2, 4139, Note_on_c, 0, 76, 0
2, 4139, Note_on_c, 0, 72, 0
2, 4320, Note_on_c, 0, 72, 87
2, 4320, Note_on_c, 0, 76, 87
2, 4680, Note_on_c, 0, 76, 0
2, 4680, Note_on_c, 0, 72, 0
2, 4680, Note_on_c, 0, 88, 77
2, 4680, Note_on_c, 0, 72, 61
2, 4680, Note_on_c, 0, 76, 61
2, 4769, Note_on_c, 0, 76, 0
2, 4769, Note_on_c, 0, 72, 0
2, 4800, Note_on_c, 0, 88, 0
2, 4800, Note_on_c, 0, 84, 73
2, 4860, Note_on_c, 0, 72, 70
2, 4860, Note_on_c, 0, 76, 70
2, 4919, Note_on_c, 0, 84, 0
2, 4919, Note_on_c, 0, 88, 90
2, 4949, Note_on_c, 0, 76, 0
2, 4949, Note_on_c, 0, 72, 0
2, 5040, Note_on_c, 0, 88, 0
2, 5040, Note_on_c, 0, 81, 71
2, 5040, Note_on_c, 0, 72, 64
2, 5040, Note_on_c, 0, 76, 64
2, 5400, Note_on_c, 0, 76, 0
2, 5400, Note_on_c, 0, 72, 0
2, 5400, Note_on_c, 0, 69, 62
2, 5400, Note_on_c, 0, 72, 62
2, 5400, Note_on_c, 0, 76, 62
2, 5579, Note_on_c, 0, 76, 0
2, 5579, Note_on_c, 0, 72, 0
2, 5579, Note_on_c, 0, 69, 0
2, 5760, Note_on_c, 0, 81, 0
2, 5760, Note_on_c, 0, 69, 92
2, 5760, Note_on_c, 0, 72, 92
2, 5760, Note_on_c, 0, 76, 92
2, 6120, Note_on_c, 0, 76, 0
2, 6120, Note_on_c, 0, 72, 0
2, 6120, Note_on_c, 0, 69, 0
2, 6120, Note_on_c, 0, 88, 81
2, 6120, Note_on_c, 0, 69, 68
2, 6120, Note_on_c, 0, 72, 68
2, 6120, Note_on_c, 0, 76, 68
2, 6209, Note_on_c, 0, 76, 0
2, 6209, Note_on_c, 0, 72, 0
2, 6209, Note_on_c, 0, 69, 0
2, 6240, Note_on_c, 0, 88, 0
2, 6240, Note_on_c, 0, 84, 74
2, 6300, Note_on_c, 0, 69, 66
2, 6300, Note_on_c, 0, 72, 66
2, 6300, Note_on_c, 0, 76, 66
2, 6359, Note_on_c, 0, 84, 0
2, 6359, Note_on_c, 0, 88, 97
2, 6389, Note_on_c, 0, 69, 0
2, 6389, Note_on_c, 0, 76, 0
2, 6389, Note_on_c, 0, 72, 0
2, 6480, Note_on_c, 0, 88, 0
2, 6480, Note_on_c, 0, 81, 74
2, 6480, Note_on_c, 0, 69, 67
2, 6480, Note_on_c, 0, 72, 67
2, 6480, Note_on_c, 0, 76, 67
2, 6840, Note_on_c, 0, 76, 0
2, 6840, Note_on_c, 0, 72, 0
2, 6840, Note_on_c, 0, 69, 0
2, 6840, Note_on_c, 0, 69, 66
2, 6840, Note_on_c, 0, 72, 66
2, 6840, Note_on_c, 0, 76, 66
2, 7019, Note_on_c, 0, 76, 0
2, 7019, Note_on_c, 0, 72, 0
2, 7019, Note_on_c, 0, 69, 0
2, 7200, Note_on_c, 0, 81, 0
2, 7200, Note_on_c, 0, 69, 96
2, 7200, Note_on_c, 0, 72, 96
2, 7200, Note_on_c, 0, 76, 96
2, 7560, Note_on_c, 0, 76, 0
2, 7560, Note_on_c, 0, 72, 0
2, 7560, Note_on_c, 0, 69, 0
2, 7560, Note_on_c, 0, 88, 76
2, 7560, Note_on_c, 0, 69, 68
2, 7560, Note_on_c, 0, 72, 68
2, 7560, Note_on_c, 0, 76, 68
2, 7649, Note_on_c, 0, 76, 0
2, 7649, Note_on_c, 0, 72, 0
2, 7649, Note_on_c, 0, 69, 0
2, 7680, Note_on_c, 0, 88, 0
2, 7680, Note_on_c, 0, 84, 72
2, 7740, Note_on_c, 0, 69, 68
2, 7740, Note_on_c, 0, 72, 68
2, 7740, Note_on_c, 0, 76, 68
2, 7799, Note_on_c, 0, 84, 0
2, 7799, Note_on_c, 0, 88, 96
2, 7829, Note_on_c, 0, 69, 0
2, 7829, Note_on_c, 0, 76, 0
2, 7829, Note_on_c, 0, 72, 0
2, 7920, Note_on_c, 0, 88, 0
2, 7920, Note_on_c, 0, 81, 70
2, 7920, Note_on_c, 0, 69, 66
2, 7920, Note_on_c, 0, 72, 66
2, 7920, Note_on_c, 0, 76, 66
2, 8280, Note_on_c, 0, 76, 0
2, 8280, Note_on_c, 0, 72, 0
2, 8280, Note_on_c, 0, 69, 0
2, 8280, Note_on_c, 0, 69, 65
2, 8280, Note_on_c, 0, 72, 65
2, 8280, Note_on_c, 0, 76, 65
2, 8459, Note_on_c, 0, 76, 0
2, 8459, Note_on_c, 0, 72, 0
2, 8459, Note_on_c, 0, 69, 0
2, 8640, Note_on_c, 0, 81, 0
2, 8640, Note_on_c, 0, 69, 68
2, 8640, Note_on_c, 0, 72, 68
2, 8640, Note_on_c, 0, 76, 68
2, 9000, Note_on_c, 0, 76, 0
2, 9000, Note_on_c, 0, 72, 0
2, 9000, Note_on_c, 0, 69, 0
2, 9000, Note_on_c, 0, 81, 80
2, 9000, Note_on_c, 0, 69, 53
2, 9179, Note_on_c, 0, 69, 0
2, 9179, Note_on_c, 0, 81, 0
2, 9360, Note_on_c, 0, 91, 109
2, 9360, Note_on_c, 0, 79, 84
2, 9539, Note_on_c, 0, 79, 0
2, 9539, Note_on_c, 0, 91, 0
2, 9720, Note_on_c, 0, 92, 93
2, 9720, Note_on_c, 0, 80, 68
2, 9899, Note_on_c, 0, 80, 0
2, 9899, Note_on_c, 0, 92, 0
2, 10080, Note_on_c, 0, 93, 87
2, 10080, Note_on_c, 0, 81, 71
2, 10259, Note_on_c, 0, 81, 0
2, 10259, Note_on_c, 0, 93, 0
2, 10440, Note_on_c, 0, 88, 94
2, 10440, Note_on_c, 0, 76, 55
2, 10620, Note_on_c, 0, 76, 0
2, 10620, Note_on_c, 0, 88, 0
2, 10620, Note_on_c, 0, 89, 97
2, 10620, Note_on_c, 0, 77, 68
2, 10800, Note_on_c, 0, 77, 0
2, 10800, Note_on_c, 0, 89, 0
2, 10800, Note_on_c, 0, 91, 100
2, 10800, Note_on_c, 0, 79, 70
2, 10979, Note_on_c, 0, 79, 0
2, 10979, Note_on_c, 0, 91, 0
2, 11160, Note_on_c, 0, 86, 106
2, 11160, Note_on_c, 0, 74, 59
2, 11340, Note_on_c, 0, 74, 0
2, 11340, Note_on_c, 0, 86, 0
2, 11340, Note_on_c, 0, 88, 109
2, 11340, Note_on_c, 0, 76, 71
2, 11520, Note_on_c, 0, 76, 0
2, 11520, Note_on_c, 0, 88, 0
2, 11520, Note_on_c, 0, 89, 113
2, 11520, Note_on_c, 0, 77, 71
2, 11699, Note_on_c, 0, 77, 0
2, 11699, Note_on_c, 0, 89, 0
2, 11880, Note_on_c, 0, 87, 109
2, 11880, Note_on_c, 0, 75, 64
2, 12059, Note_on_c, 0, 75, 0
2, 12059, Note_on_c, 0, 87, 0
2, 12240, Note_on_c, 0, 88, 117
2, 12240, Note_on_c, 0, 76, 78
2, 13320, Note_on_c, 0, 76, 0
2, 13320, Note_on_c, 0, 88, 0
2, 13320, Note_on_c, 0, 85, 111
2, 13320, Note_on_c, 0, 73, 60
2, 13499, Note_on_c, 0, 85, 0
2, 13680, Note_on_c, 0, 73, 0
2, 13680, Note_on_c, 0, 86, 108
2, 13680, Note_on_c, 0, 74, 78
2, 14760, Note_on_c, 0, 74, 0
2, 14760, Note_on_c, 0, 86, 0
2, 14760, Note_on_c, 0, 83, 102
2, 14760, Note_on_c, 0, 71, 59
2, 14939, Note_on_c, 0, 71, 0
2, 14939, Note_on_c, 0, 83, 0
2, 15120, Note_on_c, 0, 84, 100
2, 15120, Note_on_c, 0, 72, 64
2, 15299, Note_on_c, 0, 72, 0
2, 15299, Note_on_c, 0, 84, 0
2, 15480, Note_on_c, 0, 82, 98
2, 15480, Note_on_c, 0, 70, 64
2, 15659, Note_on_c, 0, 70, 0
2, 15659, Note_on_c, 0, 82, 0
2, 15840, Note_on_c, 0, 84, 96
2, 15840, Note_on_c, 0, 72, 70
2, 16019, Note_on_c, 0, 72, 0
2, 16019, Note_on_c, 0, 84, 0
2, 16200, Note_on_c, 0, 81, 94
2, 16200, Note_on_c, 0, 69, 61
2, 16380, Note_on_c, 0, 69, 0
2, 16380, Note_on_c, 0, 81, 0
2, 16380, Note_on_c, 0, 83, 93
2, 16380, Note_on_c, 0, 71, 69
2, 16560, Note_on_c, 0, 71, 0
2, 16560, Note_on_c, 0, 83, 0
2, 16560, Note_on_c, 0, 84, 92
2, 16560, Note_on_c, 0, 72, 66
2, 16739, Note_on_c, 0, 72, 0
2, 16739, Note_on_c, 0, 84, 0
2, 16920, Note_on_c, 0, 76, 74
2, 17099, Note_on_c, 0, 76, 0
2, 17280, Note_on_c, 0, 69, 59
2, 17280, Note_on_c, 0, 81, 59
2, 17459, Note_on_c, 0, 81, 0
2, 17459, Note_on_c, 0, 69, 0
2, 17640, Note_on_c, 0, 72, 87
2, 17820, Note_on_c, 0, 72, 0
2, 17820, Note_on_c, 0, 76, 92
2, 18000, Note_on_c, 0, 76, 0
2, 18000, Note_on_c, 0, 69, 96
2, 18179, Note_on_c, 0, 69, 0
2, 18360, Note_on_c, 0, 71, 104
2, 18539, Note_on_c, 0, 71, 0
2, 18720, Note_on_c, 0, 72, 117
2, 18899, Note_on_c, 0, 72, 0
2, 23400, Note_on_c, 0, 72, 77
2, 23400, Note_on_c, 0, 76, 77
2, 23489, Note_on_c, 0, 76, 0
2, 23489, Note_on_c, 0, 72, 0
2, 23580, Note_on_c, 0, 72, 81
2, 23580, Note_on_c, 0, 76, 81
2, 23669, Note_on_c, 0, 76, 0
2, 23669, Note_on_c, 0, 72, 0
2, 23760, Note_on_c, 0, 72, 87
2, 23760, Note_on_c, 0, 76, 87
2, 24120, Note_on_c, 0, 76, 0
2, 24120, Note_on_c, 0, 72, 0
2, 24120, Note_on_c, 0, 72, 87
2, 24120, Note_on_c, 0, 76, 87
2, 24299, Note_on_c, 0, 76, 0
2, 24299, Note_on_c, 0, 72, 0
2, 24480, Note_on_c, 0, 72, 117
2, 24480, Note_on_c, 0, 76, 117
2, 24840, Note_on_c, 0, 76, 0
2, 24840, Note_on_c, 0, 72, 0
2, 24840, Note_on_c, 0, 88, 100
2, 24840, Note_on_c, 0, 72, 84
2, 24840, Note_on_c, 0, 76, 84
2, 24929, Note_on_c, 0, 76, 0
2, 24929, Note_on_c, 0, 72, 0
2, 24960, Note_on_c, 0, 88, 0
2, 24960, Note_on_c, 0, 84, 95
2, 25020, Note_on_c, 0, 72, 89
2, 25020, Note_on_c, 0, 76, 89
2, 25079, Note_on_c, 0, 84, 0
2, 25079, Note_on_c, 0, 88, 116
2, 25109, Note_on_c, 0, 76, 0
2, 25109, Note_on_c, 0, 72, 0
2, 25200, Note_on_c, 0, 88, 0
2, 25200, Note_on_c, 0, 81, 92
2, 25200, Note_on_c, 0, 72, 88
2, 25200, Note_on_c, 0, 76, 88
2, 25560, Note_on_c, 0, 76, 0
2, 25560, Note_on_c, 0, 72, 0
2, 25560, Note_on_c, 0, 69, 93
2, 25560, Note_on_c, 0, 72, 93
2, 25560, Note_on_c, 0, 76, 93
2, 25739, Note_on_c, 0, 76, 0
2, 25739, Note_on_c, 0, 72, 0
2, 25739, Note_on_c, 0, 69, 0
2, 25920, Note_on_c, 0, 81, 0
2, 25920, Note_on_c, 0, 69, 113
2, 25920, Note_on_c, 0, 72, 113
2, 25920, Note_on_c, 0, 76, 113
2, 26280, Note_on_c, 0, 76, 0
2, 26280, Note_on_c, 0, 72, 0
2, 26280, Note_on_c, 0, 69, 0
2, 26280, Note_on_c, 0, 88, 103
2, 26280, Note_on_c, 0, 69, 89
2, 26280, Note_on_c, 0, 72, 89
2, 26280, Note_on_c, 0, 76, 89
2, 26369, Note_on_c, 0, 76, 0
2, 26369, Note_on_c, 0, 72, 0
2, 26369, Note_on_c, 0, 69, 0
2, 26400, Note_on_c, 0, 88, 0
2, 26400, Note_on_c, 0, 84, 97
2, 26460, Note_on_c, 0, 69, 91
2, 26460, Note_on_c, 0, 72, 91
2, 26460, Note_on_c, 0, 76, 91
2, 26519, Note_on_c, 0, 84, 0
2, 26519, Note_on_c, 0, 88, 116
2, 26549, Note_on_c, 0, 69, 0
2, 26549, Note_on_c, 0, 76, 0
2, 26549, Note_on_c, 0, 72, 0
2, 26640, Note_on_c, 0, 88, 0
2, 26640, Note_on_c, 0, 81, 94
2, 26640, Note_on_c, 0, 69, 85
2, 26640, Note_on_c, 0, 72, 85
2, 26640, Note_on_c, 0, 76, 85
2, 27000, Note_on_c, 0, 76, 0
2, 27000, Note_on_c, 0, 72, 0
2, 27000, Note_on_c, 0, 69, 0
2, 27000, Note_on_c, 0, 69, 86
2, 27000, Note_on_c, 0, 72, 86
2, 27000, Note_on_c, 0, 76, 86
2, 27179, Note_on_c, 0, 76, 0
2, 27179, Note_on_c, 0, 72, 0
2, 27179, Note_on_c, 0, 69, 0
2, 27360, Note_on_c, 0, 81, 0
2, 27360, Note_on_c, 0, 69, 115
2, 27360, Note_on_c, 0, 72, 115
2, 27360, Note_on_c, 0, 76, 115
2, 27720, Note_on_c, 0, 76, 0
2, 27720, Note_on_c, 0, 72, 0
2, 27720, Note_on_c, 0, 69, 0
2, 27720, Note_on_c, 0, 88, 102
2, 27720, Note_on_c, 0, 69, 86
2, 27720, Note_on_c, 0, 72, 86
2, 27720, Note_on_c, 0, 76, 86
2, 27809, Note_on_c, 0, 76, 0
2, 27809, Note_on_c, 0, 72, 0
2, 27809, Note_on_c, 0, 69, 0
2, 27840, Note_on_c, 0, 88, 0
2, 27840, Note_on_c, 0, 84, 97
2, 27900, Note_on_c, 0, 69, 84
2, 27900, Note_on_c, 0, 72, 84
2, 27900, Note_on_c, 0, 76, 84
2, 27959, Note_on_c, 0, 84, 0
2, 27959, Note_on_c, 0, 88, 116
2, 27989, Note_on_c, 0, 69, 0
2, 27989, Note_on_c, 0, 76, 0
2, 27989, Note_on_c, 0, 72, 0
2, 28080, Note_on_c, 0, 88, 0
2, 28080, Note_on_c, 0, 81, 95
2, 28080, Note_on_c, 0, 69, 89
2, 28080, Note_on_c, 0, 72, 89
2, 28080, Note_on_c, 0, 76, 89
2, 28440, Note_on_c, 0, 76, 0
2, 28440, Note_on_c, 0, 72, 0
2, 28440, Note_on_c, 0, 69, 0
2, 28440, Note_on_c, 0, 69, 84
2, 28440, Note_on_c, 0, 72, 84
2, 28440, Note_on_c, 0, 76, 84
2, 28619, Note_on_c, 0, 76, 0
2, 28619, Note_on_c, 0, 72, 0
2, 28619, Note_on_c, 0, 69, 0
2, 28800, Note_on_c, 0, 81, 0
2, 28800, Note_on_c, 0, 69, 114
2, 28800, Note_on_c, 0, 72, 114
2, 28800, Note_on_c, 0, 76, 114
2, 29160, Note_on_c, 0, 76, 0
2, 29160, Note_on_c, 0, 72, 0
2, 29160, Note_on_c, 0, 69, 0
2, 29160, Note_on_c, 0, 88, 87
2, 29160, Note_on_c, 0, 76, 88
2, 29339, Note_on_c, 0, 76, 0
2, 29339, Note_on_c, 0, 88, 0
2, 29520, Note_on_c, 0, 93, 96
2, 29520, Note_on_c, 0, 81, 101
2, 29699, Note_on_c, 0, 81, 0
2, 29699, Note_on_c, 0, 93, 0
2, 29880, Note_on_c, 0, 95, 104
2, 29880, Note_on_c, 0, 83, 96
2, 30059, Note_on_c, 0, 83, 0
2, 30059, Note_on_c, 0, 95, 0
2, 30240, Note_on_c, 0, 96, 117
2, 30240, Note_on_c, 0, 84, 117
2, 30419, Note_on_c, 0, 84, 0
2, 30419, Note_on_c, 0, 96, 0
2, 30600, Note_on_c, 0, 91, 97
2, 30600, Note_on_c, 0, 79, 72
2, 30780, Note_on_c, 0, 79, 0
2, 30780, Note_on_c, 0, 91, 0
2, 30780, Note_on_c, 0, 93, 111
2, 30780, Note_on_c, 0, 81, 93
2, 30960, Note_on_c, 0, 81, 0
2, 30960, Note_on_c, 0, 93, 0
2, 30960, Note_on_c, 0, 95, 117
2, 30960, Note_on_c, 0, 83, 117
2, 31139, Note_on_c, 0, 83, 0
2, 31139, Note_on_c, 0, 95, 0
2, 31320, Note_on_c, 0, 89, 94
2, 31320, Note_on_c, 0, 77, 71
2, 31500, Note_on_c, 0, 77, 0
2, 31500, Note_on_c, 0, 89, 0
2, 31500, Note_on_c, 0, 91, 116
2, 31500, Note_on_c, 0, 79, 89
2, 31680, Note_on_c, 0, 79, 0
2, 31680, Note_on_c, 0, 91, 0
2, 31680, Note_on_c, 0, 93, 117
2, 31680, Note_on_c, 0, 81, 117
2, 31859, Note_on_c, 0, 81, 0
2, 31859, Note_on_c, 0, 93, 0
2, 32040, Note_on_c, 0, 88, 94
2, 32040, Note_on_c, 0, 76, 75
2, 32219, Note_on_c, 0, 76, 0
2, 32219, Note_on_c, 0, 88, 0
2, 32400, Note_on_c, 0, 91, 113
2, 32400, Note_on_c, 0, 79, 106
2, 33480, Note_on_c, 0, 79, 0
2, 33480, Note_on_c, 0, 91, 0
2, 33480, Note_on_c, 0, 86, 94
2, 33480, Note_on_c, 0, 74, 72
2, 33660, Note_on_c, 0, 74, 0
2, 33660, Note_on_c, 0, 86, 0
2, 33660, Note_on_c, 0, 88, 90
2, 33660, Note_on_c, 0, 76, 86
2, 33840, Note_on_c, 0, 76, 0
2, 33840, Note_on_c, 0, 88, 0
2, 33840, Note_on_c, 0, 89, 62
2, 33840, Note_on_c, 0, 77, 103
2, 34473, Note_on_c, 0, 77, 0
2, 34473, Note_on_c, 0, 89, 0
2, 34920, Note_on_c, 0, 76, 62
2, 35099, Note_on_c, 0, 76, 0
2, 35280, Note_on_c, 0, 86, 89
2, 35280, Note_on_c, 0, 74, 79
2, 35459, Note_on_c, 0, 74, 0
2, 35459, Note_on_c, 0, 86, 0
2, 35640, Note_on_c, 0, 87, 80
2, 35640, Note_on_c, 0, 75, 92
2, 35819, Note_on_c, 0, 75, 0
2, 35819, Note_on_c, 0, 87, 0
2, 36000, Note_on_c, 0, 88, 80
2, 36000, Note_on_c, 0, 76, 92
2, 36179, Note_on_c, 0, 76, 0
2, 36179, Note_on_c, 0, 88, 0
2, 36360, Note_on_c, 0, 84, 63
2, 36360, Note_on_c, 0, 72, 78
2, 36540, Note_on_c, 0, 72, 0
2, 36540, Note_on_c, 0, 84, 0
2, 36540, Note_on_c, 0, 86, 80
2, 36540, Note_on_c, 0, 74, 95
2, 36720, Note_on_c, 0, 74, 0
2, 36720, Note_on_c, 0, 86, 0
2, 36720, Note_on_c, 0, 88, 88
2, 36720, Note_on_c, 0, 76, 109
2, 37800, Note_on_c, 0, 76, 0
2, 37800, Note_on_c, 0, 88, 0
2, 37800, Note_on_c, 0, 86, 73
2, 37800, Note_on_c, 0, 74, 80
2, 37979, Note_on_c, 0, 74, 0
2, 37979, Note_on_c, 0, 86, 0
2, 38160, Note_on_c, 0, 88, 70
2, 38160, Note_on_c, 0, 76, 106
2, 39240, Note_on_c, 0, 76, 0
2, 39240, Note_on_c, 0, 88, 0
2, 39240, Note_on_c, 0, 84, 59
2, 39240, Note_on_c, 0, 72, 77
2, 39420, Note_on_c, 0, 72, 0
2, 39420, Note_on_c, 0, 84, 0
2, 39420, Note_on_c, 0, 86, 57
2, 39420, Note_on_c, 0, 74, 92
2, 39600, Note_on_c, 0, 74, 0
2, 39600, Note_on_c, 0, 86, 0
2, 39600, Note_on_c, 0, 88, 55
2, 39600, Note_on_c, 0, 76, 106
2, 40680, Note_on_c, 0, 76, 0
2, 40680, Note_on_c, 0, 88, 0
2, 40680, Note_on_c, 0, 86, 48
2, 40680, Note_on_c, 0, 74, 85
2, 40859, Note_on_c, 0, 74, 0
2, 40859, Note_on_c, 0, 86, 0
2, 41040, Note_on_c, 0, 88, 53
2, 41040, Note_on_c, 0, 76, 94
2, 41219, Note_on_c, 0, 76, 0
2, 41219, Note_on_c, 0, 88, 0
2, 41400, Note_on_c, 0, 81, 40
2, 41400, Note_on_c, 0, 69, 70
2, 41579, Note_on_c, 0, 69, 0
2, 41579, Note_on_c, 0, 81, 0
2, 41760, Note_on_c, 0, 84, 53
2, 41760, Note_on_c, 0, 72, 91
2, 41939, Note_on_c, 0, 72, 0
2, 41939, Note_on_c, 0, 84, 0
2, 42120, Note_on_c, 0, 81, 47
2, 42120, Note_on_c, 0, 69, 85
2, 42300, Note_on_c, 0, 69, 0
2, 42300, Note_on_c, 0, 81, 0
2, 42300, Note_on_c, 0, 83, 49
2, 42300, Note_on_c, 0, 71, 95
2, 42480, Note_on_c, 0, 71, 0
2, 42480, Note_on_c, 0, 83, 0
2, 42480, Note_on_c, 0, 84, 49
2, 42480, Note_on_c, 0, 72, 95
2, 42840, Note_on_c, 0, 72, 0
2, 42840, Note_on_c, 0, 84, 0
2, 42840, Note_on_c, 0, 76, 103
2, 43019, Note_on_c, 0, 76, 0
2, 43200, Note_on_c, 0, 69, 102
2, 43200, Note_on_c, 0, 81, 102
2, 43379, Note_on_c, 0, 81, 0
2, 43379, Note_on_c, 0, 69, 0
2, 43560, Note_on_c, 0, 72, 50
2, 43740, Note_on_c, 0, 72, 0
2, 43740, Note_on_c, 0, 76, 55
2, 43920, Note_on_c, 0, 76, 0
2, 43920, Note_on_c, 0, 69, 59
2, 44099, Note_on_c, 0, 69, 0
2, 44280, Note_on_c, 0, 67, 67
2, 44459, Note_on_c, 0, 67, 0
2, 44640, Note_on_c, 0, 65, 88
2, 44819, Note_on_c, 0, 65, 0
2, 49320, Note_on_c, 0, 94, 76
2, 49320, Note_on_c, 0, 70, 78
2, 49499, Note_on_c, 0, 70, 0
2, 49499, Note_on_c, 0, 94, 0
2, 49680, Note_on_c, 0, 101, 103
2, 49680, Note_on_c, 0, 77, 102
2, 49859, Note_on_c, 0, 77, 0
2, 49859, Note_on_c, 0, 101, 0
2, 50040, Note_on_c, 0, 100, 87
2, 50040, Note_on_c, 0, 76, 79
2, 50219, Note_on_c, 0, 76, 0
2, 50219, Note_on_c, 0, 100, 0
2, 50400, Note_on_c, 0, 101, 92
2, 50400, Note_on_c, 0, 77, 93
2, 50579, Note_on_c, 0, 77, 0
2, 50579, Note_on_c, 0, 101, 0
2, 50760, Note_on_c, 0, 98, 76
2, 50760, Note_on_c, 0, 74, 83
2, 50940, Note_on_c, 0, 74, 0
2, 50940, Note_on_c, 0, 98, 0
2, 50940, Note_on_c, 0, 100, 91
2, 50940, Note_on_c, 0, 76, 89
2, 51120, Note_on_c, 0, 76, 0
2, 51120, Note_on_c, 0, 100, 0
2, 51120, Note_on_c, 0, 101, 97
2, 51120, Note_on_c, 0, 77, 92
2, 51299, Note_on_c, 0, 77, 0
2, 51299, Note_on_c, 0, 101, 0
2, 51480, Note_on_c, 0, 97, 80
2, 51480, Note_on_c, 0, 73, 76
2, 51660, Note_on_c, 0, 73, 0
2, 51660, Note_on_c, 0, 97, 0
2, 51660, Note_on_c, 0, 98, 96
2, 51660, Note_on_c, 0, 74, 90
2, 51840, Note_on_c, 0, 74, 0
2, 51840, Note_on_c, 0, 98, 0
2, 51840, Note_on_c, 0, 100, 95
2, 51840, Note_on_c, 0, 76, 99
2, 52019, Note_on_c, 0, 76, 0
2, 52019, Note_on_c, 0, 100, 0
2, 52200, Note_on_c, 0, 69, 69
2, 52379, Note_on_c, 0, 69, 0
2, 52560, Note_on_c, 0, 79, 101
2, 52739, Note_on_c, 0, 79, 0
2, 52920, Note_on_c, 0, 80, 95
2, 53099, Note_on_c, 0, 80, 0
2, 53280, Note_on_c, 0, 81, 95
2, 53459, Note_on_c, 0, 81, 0
2, 53640, Note_on_c, 0, 69, 59
2, 53820, Note_on_c, 0, 69, 0
2, 53820, Note_on_c, 0, 78, 105
2, 54000, Note_on_c, 0, 78, 0
2, 54000, Note_on_c, 0, 79, 92
2, 54179, Note_on_c, 0, 79, 0
2, 54360, Note_on_c, 0, 74, 77
2, 54540, Note_on_c, 0, 74, 0
2, 54540, Note_on_c, 0, 76, 95
2, 54720, Note_on_c, 0, 76, 0
2, 54720, Note_on_c, 0, 77, 90
2, 54899, Note_on_c, 0, 77, 0
2, 55080, Note_on_c, 0, 93, 76
2, 55080, Note_on_c, 0, 69, 67
2, 55259, Note_on_c, 0, 69, 0
2, 55259, Note_on_c, 0, 93, 0
2, 55440, Note_on_c, 0, 100, 103
2, 55440, Note_on_c, 0, 76, 99
2, 55619, Note_on_c, 0, 76, 0
2, 55619, Note_on_c, 0, 100, 0
2, 55800, Note_on_c, 0, 98, 83
2, 55800, Note_on_c, 0, 74, 84
2, 55979, Note_on_c, 0, 74, 0
2, 55979, Note_on_c, 0, 98, 0
2, 56160, Note_on_c, 0, 100, 91
2, 56160, Note_on_c, 0, 76, 95
2, 56339, Note_on_c, 0, 76, 0
2, 56339, Note_on_c, 0, 100, 0
2, 56520, Note_on_c, 0, 96, 77
2, 56520, Note_on_c, 0, 72, 78
2, 56700, Note_on_c, 0, 72, 0
2, 56700, Note_on_c, 0, 96, 0
2, 56700, Note_on_c, 0, 98, 95
2, 56700, Note_on_c, 0, 74, 88
2, 56880, Note_on_c, 0, 74, 0
2, 56880, Note_on_c, 0, 98, 0
2, 56880, Note_on_c, 0, 100, 95
2, 56880, Note_on_c, 0, 76, 93
2, 57059, Note_on_c, 0, 76, 0
2, 57059, Note_on_c, 0, 100, 0
2, 57240, Note_on_c, 0, 95, 75
2, 57240, Note_on_c, 0, 71, 73
2, 57420, Note_on_c, 0, 71, 0
2, 57420, Note_on_c, 0, 95, 0
2, 57420, Note_on_c, 0, 96, 89
2, 57420, Note_on_c, 0, 72, 89
2, 57600, Note_on_c, 0, 72, 0
2, 57600, Note_on_c, 0, 96, 0
2, 57600, Note_on_c, 0, 98, 94
2, 57600, Note_on_c, 0, 74, 97
2, 57779, Note_on_c, 0, 74, 0
2, 57779, Note_on_c, 0, 98, 0
2, 57960, Note_on_c, 0, 67, 70
2, 58139, Note_on_c, 0, 67, 0
2, 58320, Note_on_c, 0, 77, 110
2, 58499, Note_on_c, 0, 77, 0
2, 58680, Note_on_c, 0, 78, 96
2, 58859, Note_on_c, 0, 78, 0
2, 59040, Note_on_c, 0, 79, 87
2, 59219, Note_on_c, 0, 79, 0
2, 59400, Note_on_c, 0, 67, 81
2, 59580, Note_on_c, 0, 67, 0
2, 59580, Note_on_c, 0, 76, 78
2, 59760, Note_on_c, 0, 76, 0
2, 59760, Note_on_c, 0, 77, 75
2, 59939, Note_on_c, 0, 77, 0
2, 60120, Note_on_c, 0, 72, 68
2, 60300, Note_on_c, 0, 72, 0
2, 60300, Note_on_c, 0, 74, 65
2, 60480, Note_on_c, 0, 74, 0
2, 60480, Note_on_c, 0, 76, 62
2, 60659, Note_on_c, 0, 76, 0
2, 60840, Note_on_c, 0, 64, 55
2, 61019, Note_on_c, 0, 64, 0
2, 61200, Note_on_c, 0, 71, 85
2, 61379, Note_on_c, 0, 71, 0
2, 61560, Note_on_c, 0, 69, 70
2, 61739, Note_on_c, 0, 69, 0
2, 61920, Note_on_c, 0, 71, 81
2, 62099, Note_on_c, 0, 71, 0
2, 62280, Note_on_c, 0, 64, 56
2, 62460, Note_on_c, 0, 64, 0
2, 62460, Note_on_c, 0, 66, 72
2, 62640, Note_on_c, 0, 66, 0
2, 62640, Note_on_c, 0, 68, 77
2, 63000, Note_on_c, 0, 76, 75
2, 63360, Note_on_c, 0, 68, 0
2, 63360, Note_on_c, 0, 67, 74
2, 63540, Note_on_c, 0, 67, 0
2, 63720, Note_on_c, 0, 76, 0
2, 63720, Note_on_c, 0, 69, 87
2, 63900, Note_on_c, 0, 69, 0
2, 63900, Note_on_c, 0, 71, 88
2, 64080, Note_on_c, 0, 71, 0
2, 64080, Note_on_c, 0, 72, 89
2, 64440, Note_on_c, 0, 72, 0
2, 64440, Note_on_c, 0, 81, 91
2, 65160, Note_on_c, 0, 81, 0
2, 65160, Note_on_c, 0, 72, 94
2, 65340, Note_on_c, 0, 72, 0
2, 65340, Note_on_c, 0, 74, 95
2, 65520, Note_on_c, 0, 74, 0
2, 65520, Note_on_c, 0, 75, 96
2, 65880, Note_on_c, 0, 75, 0
2, 65880, Note_on_c, 0, 84, 97
2, 66197, Note_on_c, 0, 84, 0
2, 66240, Note_on_c, 0, 75, 99
2, 66600, Note_on_c, 0, 75, 0
2, 66600, Note_on_c, 0, 87, 101
2, 66600, Note_on_c, 0, 72, 63
2, 66780, Note_on_c, 0, 72, 0
2, 66780, Note_on_c, 0, 74, 81
2, 66917, Note_on_c, 0, 87, 0
2, 66960, Note_on_c, 0, 74, 0
2, 66960, Note_on_c, 0, 78, 103
2, 66960, Note_on_c, 0, 72, 70
2, 67140, Note_on_c, 0, 72, 0
2, 67140, Note_on_c, 0, 74, 76
2, 67320, Note_on_c, 0, 74, 0
2, 67320, Note_on_c, 0, 78, 0
2, 67320, Note_on_c, 0, 90, 104
2, 67320, Note_on_c, 0, 75, 73
2, 67500, Note_on_c, 0, 75, 0
2, 67500, Note_on_c, 0, 77, 78
2, 67637, Note_on_c, 0, 90, 0
2, 67680, Note_on_c, 0, 77, 0
2, 67680, Note_on_c, 0, 83, 106
2, 67680, Note_on_c, 0, 75, 66
2, 67860, Note_on_c, 0, 75, 0
2, 67860, Note_on_c, 0, 77, 78
2, 68040, Note_on_c, 0, 77, 0
2, 68040, Note_on_c, 0, 83, 0
2, 68040, Note_on_c, 0, 87, 108
2, 68040, Note_on_c, 0, 78, 80
2, 68220, Note_on_c, 0, 78, 0
2, 68220, Note_on_c, 0, 87, 0
2, 68220, Note_on_c, 0, 89, 108
2, 68220, Note_on_c, 0, 80, 80
2, 68400, Note_on_c, 0, 80, 0
2, 68400, Note_on_c, 0, 89, 0
2, 68400, Note_on_c, 0, 90, 109
2, 68400, Note_on_c, 0, 78, 66
2, 68580, Note_on_c, 0, 78, 0
2, 68580, Note_on_c, 0, 80, 76
2, 68760, Note_on_c, 0, 80, 0
2, 68760, Note_on_c, 0, 90, 0
2, 68760, Note_on_c, 0, 95, 111
2, 68760, Note_on_c, 0, 81, 77
2, 68940, Note_on_c, 0, 81, 0
2, 68940, Note_on_c, 0, 83, 79
2, 69120, Note_on_c, 0, 83, 0
2, 69120, Note_on_c, 0, 95, 0
2, 69120, Note_on_c, 0, 83, 113
2, 69120, Note_on_c, 0, 88, 113
2, 69120, Note_on_c, 0, 76, 65
2, 69120, Note_on_c, 0, 80, 65
2, 70200, Note_on_c, 0, 80, 0
2, 70200, Note_on_c, 0, 83, 0
2, 70200, Note_on_c, 0, 88, 0
2, 70200, Note_on_c, 0, 76, 0
2, 70200, Note_on_c, 0, 76, 84
2, 70200, Note_on_c, 0, 80, 84
2, 70200, Note_on_c, 0, 83, 84
2, 70200, Note_on_c, 0, 64, 56
2, 70200, Note_on_c, 0, 68, 56
2, 70200, Note_on_c, 0, 71, 56
2, 70289, Note_on_c, 0, 83, 0
2, 70289, Note_on_c, 0, 76, 0
2, 70289, Note_on_c, 0, 80, 0
2, 70379, Note_on_c, 0, 64, 0
2, 70379, Note_on_c, 0, 68, 0
2, 70379, Note_on_c, 0, 71, 0
2, 70380, Note_on_c, 0, 76, 101
2, 70380, Note_on_c, 0, 80, 101
2, 70380, Note_on_c, 0, 83, 101
2, 70469, Note_on_c, 0, 83, 0
2, 70469, Note_on_c, 0, 80, 0
2, 70469, Note_on_c, 0, 76, 0
2, 70560, Note_on_c, 0, 76, 112
2, 70560, Note_on_c, 0, 80, 112
2, 70560, Note_on_c, 0, 83, 112
2, 70560, Note_on_c, 0, 64, 76
2, 70560, Note_on_c, 0, 68, 76
2, 70560, Note_on_c, 0, 71, 76
2, 71509, Note_on_c, 0, 71, 0
2, 71509, Note_on_c, 0, 80, 0
2, 71509, Note_on_c, 0, 83, 0
2, 71509, Note_on_c, 0, 76, 0
2, 71509, Note_on_c, 0, 68, 0
2, 71509, Note_on_c, 0, 64, 0
2, 71640, Note_on_c, 0, 76, 103
2, 71640, Note_on_c, 0, 80, 103
2, 71640, Note_on_c, 0, 83, 103
2, 71640, Note_on_c, 0, 64, 76
2, 71640, Note_on_c, 0, 68, 76
2, 71640, Note_on_c, 0, 71, 76
2, 71729, Note_on_c, 0, 83, 0
2, 71729, Note_on_c, 0, 76, 0
2, 71729, Note_on_c, 0, 80, 0
2, 71819, Note_on_c, 0, 64, 0
2, 71819, Note_on_c, 0, 68, 0
2, 71819, Note_on_c, 0, 71, 0
2, 71820, Note_on_c, 0, 76, 105
2, 71820, Note_on_c, 0, 80, 105
2, 71820, Note_on_c, 0, 83, 105
2, 71909, Note_on_c, 0, 83, 0
2, 71909, Note_on_c, 0, 80, 0
2, 71909, Note_on_c, 0, 76, 0
2, 72000, Note_on_c, 0, 76, 100
2, 72000, Note_on_c, 0, 80, 100
2, 72000, Note_on_c, 0, 83, 100
2, 72000, Note_on_c, 0, 64, 86
2, 72000, Note_on_c, 0, 68, 86
2, 72000, Note_on_c, 0, 71, 86
2, 72317, Note_on_c, 0, 71, 0
2, 72317, Note_on_c, 0, 64, 0
2, 72317, Note_on_c, 0, 68, 0
2, 72360, Note_on_c, 0, 76, 0
2, 72360, Note_on_c, 0, 83, 0
2, 72360, Note_on_c, 0, 80, 0
2, 72360, Note_on_c, 0, 76, 103
2, 72360, Note_on_c, 0, 80, 103
2, 72360, Note_on_c, 0, 83, 103
2, 72360, Note_on_c, 0, 71, 72
2, 72449, Note_on_c, 0, 83, 0
2, 72449, Note_on_c, 0, 76, 0
2, 72449, Note_on_c, 0, 80, 0
2, 72539, Note_on_c, 0, 71, 0
2, 72540, Note_on_c, 0, 76, 104
2, 72540, Note_on_c, 0, 80, 104
2, 72540, Note_on_c, 0, 83, 104
2, 72629, Note_on_c, 0, 83, 0
2, 72629, Note_on_c, 0, 80, 0
2, 72629, Note_on_c, 0, 76, 0
2, 72720, Note_on_c, 0, 80, 100
2, 72720, Note_on_c, 0, 83, 100
2, 72720, Note_on_c, 0, 76, 85
2, 72899, Note_on_c, 0, 76, 0
2, 73080, Note_on_c, 0, 83, 0
2, 73080, Note_on_c, 0, 80, 0
2, 73080, Note_on_c, 0, 80, 105
2, 73080, Note_on_c, 0, 83, 105
2, 73080, Note_on_c, 0, 74, 72
2, 73259, Note_on_c, 0, 74, 0
2, 73440, Note_on_c, 0, 83, 0
2, 73440, Note_on_c, 0, 80, 0
2, 73440, Note_on_c, 0, 80, 103
2, 73440, Note_on_c, 0, 83, 103
2, 73440, Note_on_c, 0, 76, 78
2, 73619, Note_on_c, 0, 76, 0
2, 73800, Note_on_c, 0, 83, 0
2, 73800, Note_on_c, 0, 80, 0
2, 73800, Note_on_c, 0, 76, 104
2, 73800, Note_on_c, 0, 80, 104
2, 73800, Note_on_c, 0, 83, 104
2, 73800, Note_on_c, 0, 64, 63
2, 73800, Note_on_c, 0, 68, 63
2, 73800, Note_on_c, 0, 71, 63
2, 73889, Note_on_c, 0, 83, 0
2, 73889, Note_on_c, 0, 76, 0
2, 73889, Note_on_c, 0, 80, 0
2, 73979, Note_on_c, 0, 64, 0
2, 73979, Note_on_c, 0, 68, 0
2, 73979, Note_on_c, 0, 71, 0
2, 73980, Note_on_c, 0, 76, 107
2, 73980, Note_on_c, 0, 80, 107
2, 73980, Note_on_c, 0, 83, 107
2, 74069, Note_on_c, 0, 83, 0
2, 74069, Note_on_c, 0, 80, 0
2, 74069, Note_on_c, 0, 76, 0
2, 74160, Note_on_c, 0, 76, 100
2, 74160, Note_on_c, 0, 80, 100
2, 74160, Note_on_c, 0, 83, 100
2, 74160, Note_on_c, 0, 64, 67
2, 74160, Note_on_c, 0, 68, 67
2, 74160, Note_on_c, 0, 71, 67
2, 74339, Note_on_c, 0, 71, 0
2, 74339, Note_on_c, 0, 64, 0
2, 74339, Note_on_c, 0, 68, 0
2, 74520, Note_on_c, 0, 76, 0
2, 74520, Note_on_c, 0, 83, 0
2, 74520, Note_on_c, 0, 80, 0
2, 74520, Note_on_c, 0, 73, 99
2, 74520, Note_on_c, 0, 81, 99
2, 74520, Note_on_c, 0, 64, 69
2, 74520, Note_on_c, 0, 67, 69
2, 74520, Note_on_c, 0, 69, 69
2, 74699, Note_on_c, 0, 69, 0
2, 74699, Note_on_c, 0, 64, 0
2, 74699, Note_on_c, 0, 73, 0
2, 74699, Note_on_c, 0, 81, 0
2, 74699, Note_on_c, 0, 67, 0
2, 74880, Note_on_c, 0, 74, 81
2, 74880, Note_on_c, 0, 66, 79
2, 74880, Note_on_c, 0, 69, 79
2, 75059, Note_on_c, 0, 69, 0
2, 75059, Note_on_c, 0, 66, 0
2, 75059, Note_on_c, 0, 74, 0
2, 75240, Note_on_c, 0, 62, 60
2, 75420, Note_on_c, 0, 62, 0
2, 75420, Note_on_c, 0, 64, 76
2, 75600, Note_on_c, 0, 64, 0
2, 75600, Note_on_c, 0, 62, 46
2, 75960, Note_on_c, 0, 93, 94
2, 75960, Note_on_c, 0, 67, 64
2, 76080, Note_on_c, 0, 93, 0
2, 76080, Note_on_c, 0, 90, 88
2, 76139, Note_on_c, 0, 67, 0
2, 76199, Note_on_c, 0, 90, 0
2, 76199, Note_on_c, 0, 93, 109
2, 76320, Note_on_c, 0, 93, 0
2, 76320, Note_on_c, 0, 86, 86
2, 76320, Note_on_c, 0, 66, 72
2, 76499, Note_on_c, 0, 66, 0
2, 76680, Note_on_c, 0, 67, 83
2, 76680, Note_on_c, 0, 71, 83
2, 76859, Note_on_c, 0, 71, 0
2, 76859, Note_on_c, 0, 67, 0
2, 77040, Note_on_c, 0, 66, 69
2, 77040, Note_on_c, 0, 69, 69
2, 77219, Note_on_c, 0, 69, 0
2, 77219, Note_on_c, 0, 66, 0
2, 77400, Note_on_c, 0, 86, 0
2, 77400, Note_on_c, 0, 74, 69
2, 77400, Note_on_c, 0, 71, 78
2, 77579, Note_on_c, 0, 71, 0
2, 77580, Note_on_c, 0, 74, 0
2, 77580, Note_on_c, 0, 76, 108
2, 77760, Note_on_c, 0, 76, 0
2, 77760, Note_on_c, 0, 81, 113
2, 77760, Note_on_c, 0, 69, 83
2, 77760, Note_on_c, 0, 74, 83
2, 77880, Note_on_c, 0, 81, 0
2, 77880, Note_on_c, 0, 78, 97
2, 77939, Note_on_c, 0, 74, 0
2, 77939, Note_on_c, 0, 69, 0
2, 77999, Note_on_c, 0, 78, 0
2, 77999, Note_on_c, 0, 81, 112
2, 78120, Note_on_c, 0, 81, 0
2, 78120, Note_on_c, 0, 74, 96
2, 78120, Note_on_c, 0, 67, 62
2, 78299, Note_on_c, 0, 67, 0
2, 78480, Note_on_c, 0, 69, 73
2, 78659, Note_on_c, 0, 69, 0
2, 78753, Note_on_c, 0, 74, 0
2, 78840, Note_on_c, 0, 71, 86
2, 79020, Note_on_c, 0, 71, 0
2, 79020, Note_on_c, 0, 73, 111
2, 79200, Note_on_c, 0, 73, 0
2, 79200, Note_on_c, 0, 62, 0
2, 79200, Note_on_c, 0, 74, 108
2, 79200, Note_on_c, 0, 69, 104
2, 79200, Note_on_c, 0, 66, 65
2, 79200, Note_on_c, 0, 62, 39
2, 79289, Note_on_c, 0, 66, 0
2, 79380, Note_on_c, 0, 74, 0
2, 79380, Note_on_c, 0, 76, 111
2, 79380, Note_on_c, 0, 64, 67
2, 79560, Note_on_c, 0, 64, 0
2, 79560, Note_on_c, 0, 76, 0
2, 79560, Note_on_c, 0, 69, 0
2, 79560, Note_on_c, 0, 74, 112
2, 79560, Note_on_c, 0, 78, 112
2, 79560, Note_on_c, 0, 66, 81
2, 79739, Note_on_c, 0, 66, 0
2, 79920, Note_on_c, 0, 78, 0
2, 79920, Note_on_c, 0, 74, 0
2, 79920, Note_on_c, 0, 74, 103
2, 79920, Note_on_c, 0, 78, 103
2, 79920, Note_on_c, 0, 66, 74
2, 80099, Note_on_c, 0, 66, 0
2, 80280, Note_on_c, 0, 62, 0
2, 80280, Note_on_c, 0, 74, 0
2, 80280, Note_on_c, 0, 78, 0
2, 80280, Note_on_c, 0, 71, 115
2, 80280, Note_on_c, 0, 74, 115
2, 80280, Note_on_c, 0, 77, 115
2, 80280, Note_on_c, 0, 79, 115
2, 80280, Note_on_c, 0, 62, 75
2, 80280, Note_on_c, 0, 65, 75
2, 80280, Note_on_c, 0, 67, 75
2, 80459, Note_on_c, 0, 67, 0
2, 80459, Note_on_c, 0, 62, 0
2, 80459, Note_on_c, 0, 65, 0
2, 80640, Note_on_c, 0, 77, 0
2, 80640, Note_on_c, 0, 71, 0
2, 80640, Note_on_c, 0, 74, 0
2, 80640, Note_on_c, 0, 79, 0
2, 80640, Note_on_c, 0, 72, 112
2, 80640, Note_on_c, 0, 76, 112
2, 80640, Note_on_c, 0, 79, 112
2, 80640, Note_on_c, 0, 60, 87
2, 80640, Note_on_c, 0, 64, 87
2, 80640, Note_on_c, 0, 67, 87
2, 81589, Note_on_c, 0, 67, 0
2, 81589, Note_on_c, 0, 76, 0
2, 81589, Note_on_c, 0, 79, 0
2, 81589, Note_on_c, 0, 72, 0
2, 81589, Note_on_c, 0, 64, 0
2, 81589, Note_on_c, 0, 60, 0
2, 81720, Note_on_c, 0, 72, 103
2, 81720, Note_on_c, 0, 76, 103
2, 81720, Note_on_c, 0, 79, 103
2, 81720, Note_on_c, 0, 60, 77
2, 81720, Note_on_c, 0, 64, 77
2, 81720, Note_on_c, 0, 67, 77
2, 81809, Note_on_c, 0, 79, 0
2, 81809, Note_on_c, 0, 72, 0
2, 81809, Note_on_c, 0, 76, 0
2, 81900, Note_on_c, 0, 72, 100
2, 81900, Note_on_c, 0, 76, 100
2, 81900, Note_on_c, 0, 79, 100
2, 81989, Note_on_c, 0, 79, 0
2, 81989, Note_on_c, 0, 72, 0
2, 81989, Note_on_c, 0, 76, 0
2, 82080, Note_on_c, 0, 67, 0
2, 82080, Note_on_c, 0, 60, 0
2, 82080, Note_on_c, 0, 64, 0
2, 82080, Note_on_c, 0, 72, 116
2, 82080, Note_on_c, 0, 76, 116
2, 82080, Note_on_c, 0, 79, 116
2, 82080, Note_on_c, 0, 60, 85
2, 82080, Note_on_c, 0, 64, 85
2, 82080, Note_on_c, 0, 67, 85
2, 83029, Note_on_c, 0, 67, 0
2, 83029, Note_on_c, 0, 76, 0
2, 83029, Note_on_c, 0, 79, 0
2, 83029, Note_on_c, 0, 72, 0
2, 83029, Note_on_c, 0, 64, 0
2, 83029, Note_on_c, 0, 60, 0
2, 83160, Note_on_c, 0, 72, 81
2, 83160, Note_on_c, 0, 76, 81
2, 83160, Note_on_c, 0, 79, 81
2, 83160, Note_on_c, 0, 67, 75
2, 83249, Note_on_c, 0, 79, 0
2, 83249, Note_on_c, 0, 72, 0
2, 83249, Note_on_c, 0, 76, 0
2, 83339, Note_on_c, 0, 67, 0
2, 83340, Note_on_c, 0, 72, 89
2, 83340, Note_on_c, 0, 76, 89
2, 83340, Note_on_c, 0, 79, 89
2, 83429, Note_on_c, 0, 79, 0
2, 83429, Note_on_c, 0, 76, 0
2, 83429, Note_on_c, 0, 72, 0
2, 83520, Note_on_c, 0, 72, 87
2, 83520, Note_on_c, 0, 76, 87
2, 83520, Note_on_c, 0, 79, 87
2, 83520, Note_on_c, 0, 72, 88
2, 83699, Note_on_c, 0, 72, 0
2, 83880, Note_on_c, 0, 76, 0
2, 83880, Note_on_c, 0, 79, 0
2, 83880, Note_on_c, 0, 72, 0
2, 83880, Note_on_c, 0, 72, 91
2, 83880, Note_on_c, 0, 76, 91
2, 83880, Note_on_c, 0, 79, 91
2, 83880, Note_on_c, 0, 70, 70
2, 83969, Note_on_c, 0, 79, 0
2, 83969, Note_on_c, 0, 72, 0
2, 83969, Note_on_c, 0, 76, 0
2, 84059, Note_on_c, 0, 70, 0
2, 84060, Note_on_c, 0, 72, 88
2, 84060, Note_on_c, 0, 76, 88
2, 84060, Note_on_c, 0, 79, 88
2, 84149, Note_on_c, 0, 79, 0
2, 84149, Note_on_c, 0, 76, 0
2, 84149, Note_on_c, 0, 72, 0
2, 84240, Note_on_c, 0, 76, 88
2, 84240, Note_on_c, 0, 79, 88
2, 84240, Note_on_c, 0, 72, 82
2, 84419, Note_on_c, 0, 72, 0
2, 84600, Note_on_c, 0, 79, 0
2, 84600, Note_on_c, 0, 76, 0
2, 84600, Note_on_c, 0, 76, 88
2, 84600, Note_on_c, 0, 79, 88
2, 84600, Note_on_c, 0, 69, 68
2, 84779, Note_on_c, 0, 69, 0
2, 84960, Note_on_c, 0, 79, 0
2, 84960, Note_on_c, 0, 76, 0
2, 84960, Note_on_c, 0, 72, 87
2, 84960, Note_on_c, 0, 75, 87
2, 84960, Note_on_c, 0, 79, 87
2, 84960, Note_on_c, 0, 70, 75
2, 85139, Note_on_c, 0, 70, 0
2, 85320, Note_on_c, 0, 72, 0
2, 85320, Note_on_c, 0, 75, 0
2, 85320, Note_on_c, 0, 79, 0
2, 85320, Note_on_c, 0, 72, 87
2, 85320, Note_on_c, 0, 75, 87
2, 85320, Note_on_c, 0, 79, 87
2, 85320, Note_on_c, 0, 60, 72
2, 85320, Note_on_c, 0, 63, 72
2, 85320, Note_on_c, 0, 67, 72
2, 85409, Note_on_c, 0, 79, 0
2, 85409, Note_on_c, 0, 72, 0
2, 85409, Note_on_c, 0, 75, 0
2, 85499, Note_on_c, 0, 60, 0
2, 85499, Note_on_c, 0, 63, 0
2, 85499, Note_on_c, 0, 67, 0
2, 85500, Note_on_c, 0, 72, 85
2, 85500, Note_on_c, 0, 75, 85
2, 85500, Note_on_c, 0, 79, 85
2, 85589, Note_on_c, 0, 79, 0
2, 85589, Note_on_c, 0, 75, 0
2, 85589, Note_on_c, 0, 72, 0
2, 85680, Note_on_c, 0, 72, 81
2, 85680, Note_on_c, 0, 75, 81
2, 85680, Note_on_c, 0, 79, 81
2, 85680, Note_on_c, 0, 60, 71
2, 85680, Note_on_c, 0, 63, 71
2, 85680, Note_on_c, 0, 67, 71
2, 85859, Note_on_c, 0, 67, 0
2, 85859, Note_on_c, 0, 60, 0
2, 85859, Note_on_c, 0, 63, 0
2, 86040, Note_on_c, 0, 72, 0
2, 86040, Note_on_c, 0, 79, 0
2, 86040, Note_on_c, 0, 75, 0
2, 86040, Note_on_c, 0, 69, 80
2, 86040, Note_on_c, 0, 77, 80
2, 86040, Note_on_c, 0, 60, 66
2, 86040, Note_on_c, 0, 63, 66
2, 86040, Note_on_c, 0, 65, 66
2, 86219, Note_on_c, 0, 65, 0
2, 86219, Note_on_c, 0, 60, 0
2, 86219, Note_on_c, 0, 69, 0
2, 86219, Note_on_c, 0, 77, 0
2, 86219, Note_on_c, 0, 63, 0
2, 86400, Note_on_c, 0, 70, 69
2, 86400, Note_on_c, 0, 62, 75
2, 86400, Note_on_c, 0, 65, 75
2, 86579, Note_on_c, 0, 65, 0
2, 86579, Note_on_c, 0, 62, 0
2, 86579, Note_on_c, 0, 70, 0
2, 86760, Note_on_c, 0, 58, 69
2, 86940, Note_on_c, 0, 58, 0
2, 86940, Note_on_c, 0, 60, 77
2, 87120, Note_on_c, 0, 60, 0
2, 87120, Note_on_c, 0, 58, 32
2, 87480, Note_on_c, 0, 89, 80
2, 87480, Note_on_c, 0, 63, 62
2, 87600, Note_on_c, 0, 89, 0
2, 87600, Note_on_c, 0, 86, 76
2, 87659, Note_on_c, 0, 63, 0
2, 87719, Note_on_c, 0, 86, 0
2, 87719, Note_on_c, 0, 89, 94
2, 87840, Note_on_c, 0, 89, 0
2, 87840, Note_on_c, 0, 82, 109
2, 87840, Note_on_c, 0, 62, 70
2, 88019, Note_on_c, 0, 62, 0
2, 88200, Note_on_c, 0, 63, 82
2, 88200, Note_on_c, 0, 67, 82
2, 88379, Note_on_c, 0, 67, 0
2, 88379, Note_on_c, 0, 63, 0
2, 88560, Note_on_c, 0, 62, 66
2, 88560, Note_on_c, 0, 65, 66
2, 88739, Note_on_c, 0, 65, 0
2, 88739, Note_on_c, 0, 62, 0
2, 88920, Note_on_c, 0, 82, 0
2, 88920, Note_on_c, 0, 70, 71
2, 88920, Note_on_c, 0, 67, 79
2, 89099, Note_on_c, 0, 67, 0
2, 89100, Note_on_c, 0, 70, 0
2, 89100, Note_on_c, 0, 72, 107
2, 89280, Note_on_c, 0, 72, 0
2, 89280, Note_on_c, 0, 77, 116
2, 89280, Note_on_c, 0, 65, 81
2, 89280, Note_on_c, 0, 70, 81
2, 89400, Note_on_c, 0, 77, 0
2, 89400, Note_on_c, 0, 74, 97
2, 89459, Note_on_c, 0, 70, 0
2, 89459, Note_on_c, 0, 65, 0
2, 89519, Note_on_c, 0, 74, 0
2, 89519, Note_on_c, 0, 77, 113
2, 89640, Note_on_c, 0, 77, 0
2, 89640, Note_on_c, 0, 70, 93
2, 89640, Note_on_c, 0, 63, 57
2, 89819, Note_on_c, 0, 63, 0
2, 90000, Note_on_c, 0, 65, 78
2, 90179, Note_on_c, 0, 65, 0
2, 90273, Note_on_c, 0, 70, 0
2, 90360, Note_on_c, 0, 67, 89
2, 90540, Note_on_c, 0, 67, 0
2, 90540, Note_on_c, 0, 69, 110
2, 90720, Note_on_c, 0, 69, 0
2, 90720, Note_on_c, 0, 58, 0
2, 90720, Note_on_c, 0, 70, 112
2, 90720, Note_on_c, 0, 65, 104
2, 90720, Note_on_c, 0, 58, 40
2, 90900, Note_on_c, 0, 70, 0
2, 90900, Note_on_c, 0, 72, 112
2, 90900, Note_on_c, 0, 60, 65
2, 91080, Note_on_c, 0, 60, 0
2, 91080, Note_on_c, 0, 72, 0
2, 91080, Note_on_c, 0, 65, 0
2, 91080, Note_on_c, 0, 71, 112
2, 91080, Note_on_c, 0, 74, 112
2, 91080, Note_on_c, 0, 62, 79
2, 91259, Note_on_c, 0, 62, 0
2, 91440, Note_on_c, 0, 74, 0
2, 91440, Note_on_c, 0, 71, 0
2, 91440, Note_on_c, 0, 71, 103
2, 91440, Note_on_c, 0, 74, 103
2, 91440, Note_on_c, 0, 62, 75
2, 91619, Note_on_c, 0, 62, 0
2, 91800, Note_on_c, 0, 58, 0
2, 91800, Note_on_c, 0, 71, 0
2, 91800, Note_on_c, 0, 74, 0
2, 91800, Note_on_c, 0, 68, 115
2, 91800, Note_on_c, 0, 71, 115
2, 91800, Note_on_c, 0, 74, 115
2, 91800, Note_on_c, 0, 76, 115
2, 91800, Note_on_c, 0, 59, 74
2, 91800, Note_on_c, 0, 62, 74
2, 91800, Note_on_c, 0, 64, 74
2, 91979, Note_on_c, 0, 64, 0
2, 91979, Note_on_c, 0, 59, 0
2, 91979, Note_on_c, 0, 62, 0
2, 92160, Note_on_c, 0, 74, 0
2, 92160, Note_on_c, 0, 68, 0
2, 92160, Note_on_c, 0, 71, 0
2, 92160, Note_on_c, 0, 76, 0
2, 92160, Note_on_c, 0, 69, 86
2, 92160, Note_on_c, 0, 72, 86
2, 92160, Note_on_c, 0, 76, 86
2, 92160, Note_on_c, 0, 60, 76
2, 92160, Note_on_c, 0, 64, 76
2, 92339, Note_on_c, 0, 64, 0
2, 92339, Note_on_c, 0, 60, 0
2, 92520, Note_on_c, 0, 69, 0
2, 92520, Note_on_c, 0, 72, 0
2, 92520, Note_on_c, 0, 76, 0
2, 92520, Note_on_c, 0, 81, 103
2, 92520, Note_on_c, 0, 69, 82
2, 92699, Note_on_c, 0, 69, 0
2, 92699, Note_on_c, 0, 81, 0
2, 92880, Note_on_c, 0, 91, 107
2, 92880, Note_on_c, 0, 79, 94
2, 93059, Note_on_c, 0, 79, 0
2, 93059, Note_on_c, 0, 91, 0
2, 93240, Note_on_c, 0, 92, 96
2, 93240, Note_on_c, 0, 80, 79
2, 93419, Note_on_c, 0, 80, 0
2, 93419, Note_on_c, 0, 92, 0
2, 93600, Note_on_c, 0, 93, 95
2, 93600, Note_on_c, 0, 81, 77
2, 93779, Note_on_c, 0, 81, 0
2, 93779, Note_on_c, 0, 93, 0
2, 93960, Note_on_c, 0, 88, 77
2, 93960, Note_on_c, 0, 76, 59
2, 94140, Note_on_c, 0, 76, 0
2, 94140, Note_on_c, 0, 88, 0
2, 94140, Note_on_c, 0, 89, 92
2, 94140, Note_on_c, 0, 77, 73
2, 94320, Note_on_c, 0, 77, 0
2, 94320, Note_on_c, 0, 89, 0
2, 94320, Note_on_c, 0, 91, 97
2, 94320, Note_on_c, 0, 79, 80
2, 94499, Note_on_c, 0, 79, 0
2, 94499, Note_on_c, 0, 91, 0
2, 94680, Note_on_c, 0, 86, 77
2, 94680, Note_on_c, 0, 74, 62
2, 94860, Note_on_c, 0, 74, 0
2, 94860, Note_on_c, 0, 86, 0
2, 94860, Note_on_c, 0, 88, 90
2, 94860, Note_on_c, 0, 76, 77
2, 95040, Note_on_c, 0, 76, 0
2, 95040, Note_on_c, 0, 88, 0
2, 95040, Note_on_c, 0, 89, 88
2, 95040, Note_on_c, 0, 77, 79
2, 95219, Note_on_c, 0, 77, 0
2, 95219, Note_on_c, 0, 89, 0
2, 95400, Note_on_c, 0, 84, 77
2, 95400, Note_on_c, 0, 72, 62
2, 95579, Note_on_c, 0, 72, 0
2, 95579, Note_on_c, 0, 84, 0
2, 95760, Note_on_c, 0, 88, 106
2, 95760, Note_on_c, 0, 76, 95
2, 96840, Note_on_c, 0, 76, 0
2, 96840, Note_on_c, 0, 88, 0
2, 96840, Note_on_c, 0, 93, 89
2, 96840, Note_on_c, 0, 81, 88
2, 97019, Note_on_c, 0, 81, 0
2, 97019, Note_on_c, 0, 93, 0
2, 97200, Note_on_c, 0, 96, 92
2, 97200, Note_on_c, 0, 84, 82
2, 97379, Note_on_c, 0, 84, 0
2, 97379, Note_on_c, 0, 96, 0
2, 97560, Note_on_c, 0, 91, 94
2, 97560, Note_on_c, 0, 79, 63
2, 97740, Note_on_c, 0, 79, 0
2, 97740, Note_on_c, 0, 91, 0
2, 97740, Note_on_c, 0, 93, 95
2, 97740, Note_on_c, 0, 81, 79
2, 97920, Note_on_c, 0, 81, 0
2, 97920, Note_on_c, 0, 93, 0
2, 97920, Note_on_c, 0, 95, 96
2, 97920, Note_on_c, 0, 83, 76
2, 98099, Note_on_c, 0, 83, 0
2, 98099, Note_on_c, 0, 95, 0
2, 98280, Note_on_c, 0, 89, 98
2, 98280, Note_on_c, 0, 77, 62
2, 98459, Note_on_c, 0, 77, 0
2, 98459, Note_on_c, 0, 89, 0
2, 98640, Note_on_c, 0, 93, 100
2, 98640, Note_on_c, 0, 81, 91
2, 98640, Note_on_c, 0, 72, 51
2, 99720, Note_on_c, 0, 81, 0
2, 99720, Note_on_c, 0, 93, 0
2, 99720, Note_on_c, 0, 84, 106
2, 99720, Note_on_c, 0, 96, 106
2, 100080, Note_on_c, 0, 96, 0
2, 100080, Note_on_c, 0, 84, 0
2, 100080, Note_on_c, 0, 72, 0
2, 100080, Note_on_c, 0, 88, 108
2, 100080, Note_on_c, 0, 100, 108
2, 100080, Note_on_c, 0, 71, 69
2, 100440, Note_on_c, 0, 71, 0
2, 100440, Note_on_c, 0, 69, 65
2, 100800, Note_on_c, 0, 69, 0
2, 100800, Note_on_c, 0, 71, 76
2, 101160, Note_on_c, 0, 100, 0
2, 101160, Note_on_c, 0, 88, 0
2, 101160, Note_on_c, 0, 76, 75
2, 101339, Note_on_c, 0, 76, 0
2, 101520, Note_on_c, 0, 71, 0
2, 101520, Note_on_c, 0, 86, 116
2, 101520, Note_on_c, 0, 74, 78
2, 101520, Note_on_c, 0, 64, 28
2, 101699, Note_on_c, 0, 74, 0
2, 101699, Note_on_c, 0, 86, 0
2, 101700, Note_on_c, 0, 64, 0
2, 101880, Note_on_c, 0, 87, 116
2, 101880, Note_on_c, 0, 75, 84
2, 102059, Note_on_c, 0, 75, 0
2, 102059, Note_on_c, 0, 87, 0
2, 102240, Note_on_c, 0, 88, 116
2, 102240, Note_on_c, 0, 76, 77
2, 102419, Note_on_c, 0, 76, 0
2, 102600, Note_on_c, 0, 88, 0
2, 102600, Note_on_c, 0, 79, 89
2, 102600, Note_on_c, 0, 67, 53
2, 102780, Note_on_c, 0, 67, 0
2, 102780, Note_on_c, 0, 79, 0
2, 102780, Note_on_c, 0, 81, 116
2, 102780, Note_on_c, 0, 69, 74
2, 102960, Note_on_c, 0, 69, 0
2, 102960, Note_on_c, 0, 81, 0
2, 102960, Note_on_c, 0, 83, 116
2, 102960, Note_on_c, 0, 71, 77
2, 103139, Note_on_c, 0, 71, 0
2, 103320, Note_on_c, 0, 83, 0
2, 103320, Note_on_c, 0, 71, 71
2, 103499, Note_on_c, 0, 71, 0
2, 103680, Note_on_c, 0, 76, 83
2, 103680, Note_on_c, 0, 67, 34
2, 104040, Note_on_c, 0, 67, 0
2, 105120, Note_on_c, 0, 76, 0
2, 105120, Note_on_c, 0, 76, 76
2, 105840, Note_on_c, 0, 91, 111
2, 106473, Note_on_c, 0, 91, 0
2, 106560, Note_on_c, 0, 79, 80
2, 107280, Note_on_c, 0, 79, 0
2, 107280, Note_on_c, 0, 88, 117
2, 107913, Note_on_c, 0, 88, 0
2, 108000, Note_on_c, 0, 76, 0
2, 108000, Note_on_c, 0, 76, 116
2, 108720, Note_on_c, 0, 83, 108
2, 109353, Note_on_c, 0, 83, 0
2, 109440, Note_on_c, 0, 76, 0
2, 109440, Note_on_c, 0, 71, 104
2, 109440, Note_on_c, 0, 64, 65
2, 111600, Note_on_c, 0, 71, 0
2, 111600, Note_on_c, 0, 79, 92
2, 112233, Note_on_c, 0, 79, 0
2, 112320, Note_on_c, 0, 67, 87
2, 114480, Note_on_c, 0, 67, 0
2, 114480, Note_on_c, 0, 76, 117
2, 115113, Note_on_c, 0, 76, 0
2, 115200, Note_on_c, 0, 64, 0
2, 115200, Note_on_c, 0, 64, 40
2, 115200, Note_on_c, 0, 64, 62
2, 115560, Note_on_c, 0, 64, 0
2, 116100, Note_on_c, 0, 64, 0
2, 116100, Note_on_c, 0, 71, 62
2, 116280, Note_on_c, 0, 71, 0
2, 116280, Note_on_c, 0, 67, 45
2, 116460, Note_on_c, 0, 67, 0
2, 116460, Note_on_c, 0, 71, 56
2, 116640, Note_on_c, 0, 71, 0
2, 116640, Note_on_c, 0, 64, 41
2, 117540, Note_on_c, 0, 64, 0
2, 117540, Note_on_c, 0, 71, 61
2, 117720, Note_on_c, 0, 71, 0
2, 117720, Note_on_c, 0, 67, 46
2, 117900, Note_on_c, 0, 67, 0
2, 117900, Note_on_c, 0, 71, 56
2, 118080, Note_on_c, 0, 71, 0
2, 118080, Note_on_c, 0, 64, 43
2, 118260, Note_on_c, 0, 64, 0
2, 118260, Note_on_c, 0, 71, 67
2, 118440, Note_on_c, 0, 71, 0
2, 118440, Note_on_c, 0, 67, 44
2, 118620, Note_on_c, 0, 71, 59
2, 118800, Note_on_c, 0, 64, 39
2, 119520, Note_on_c, 0, 71, 0
2, 119520, Note_on_c, 0, 67, 0
2, 119520, Note_on_c, 0, 64, 38
2, 119700, Note_on_c, 0, 64, 0
2, 119700, Note_on_c, 0, 71, 60
2, 119880, Note_on_c, 0, 71, 0
2, 119880, Note_on_c, 0, 67, 44
2, 120060, Note_on_c, 0, 67, 0
2, 120060, Note_on_c, 0, 71, 55
2, 120240, Note_on_c, 0, 71, 0
2, 120240, Note_on_c, 0, 64, 0
2, 120240, Note_on_c, 0, 64, 38
2, 120420, Note_on_c, 0, 67, 42
2, 120600, Note_on_c, 0, 71, 34
2, 120780, Note_on_c, 0, 76, 43
2, 120960, Note_on_c, 0, 76, 0
2, 120960, Note_on_c, 0, 64, 0
2, 120960, Note_on_c, 0, 67, 0
2, 120960, Note_on_c, 0, 71, 0
2, 120960, Note_on_c, 0, 84, 63
2, 121140, Note_on_c, 0, 79, 52
2, 121320, Note_on_c, 0, 79, 0
2, 121320, Note_on_c, 0, 76, 55
2, 121500, Note_on_c, 0, 76, 0
2, 121500, Note_on_c, 0, 79, 66
2, 121680, Note_on_c, 0, 79, 0
2, 121680, Note_on_c, 0, 84, 0
2, 121680, Note_on_c, 0, 83, 65
2, 121680, Note_on_c, 0, 72, 62
2, 122040, Note_on_c, 0, 83, 0
2, 122040, Note_on_c, 0, 81, 73
2, 122400, Note_on_c, 0, 81, 0
2, 122400, Note_on_c, 0, 79, 69
2, 122580, Note_on_c, 0, 72, 0
2, 122580, Note_on_c, 0, 79, 68
2, 122760, Note_on_c, 0, 79, 0
2, 122760, Note_on_c, 0, 76, 52
2, 122940, Note_on_c, 0, 76, 0
2, 122940, Note_on_c, 0, 79, 69
2, 123120, Note_on_c, 0, 71, 70
2, 123753, Note_on_c, 0, 79, 0
2, 123840, Note_on_c, 0, 79, 0
2, 123840, Note_on_c, 0, 79, 79
2, 123840, Note_on_c, 0, 72, 57
2, 123840, Note_on_c, 0, 76, 57
2, 124020, Note_on_c, 0, 76, 0
2, 124020, Note_on_c, 0, 72, 0
2, 124020, Note_on_c, 0, 71, 0
2, 124020, Note_on_c, 0, 76, 69
2, 124200, Note_on_c, 0, 76, 0
2, 124200, Note_on_c, 0, 79, 0
2, 124200, Note_on_c, 0, 81, 76
2, 124200, Note_on_c, 0, 72, 53
2, 124380, Note_on_c, 0, 72, 0
2, 124380, Note_on_c, 0, 76, 66
2, 124560, Note_on_c, 0, 76, 0
2, 124560, Note_on_c, 0, 81, 0
2, 124560, Note_on_c, 0, 83, 74
2, 124560, Note_on_c, 0, 67, 46
2, 124740, Note_on_c, 0, 67, 0
2, 124740, Note_on_c, 0, 76, 75
2, 124920, Note_on_c, 0, 76, 0
2, 124920, Note_on_c, 0, 72, 56
2, 125100, Note_on_c, 0, 72, 0
2, 125100, Note_on_c, 0, 76, 68
2, 125280, Note_on_c, 0, 76, 0
2, 125280, Note_on_c, 0, 72, 47
2, 125280, Note_on_c, 0, 76, 47
2, 125280, Note_on_c, 0, 67, 49
2, 125460, Note_on_c, 0, 67, 0
2, 125460, Note_on_c, 0, 76, 0
2, 125460, Note_on_c, 0, 72, 0
2, 125460, Note_on_c, 0, 72, 66
2, 125640, Note_on_c, 0, 72, 0
2, 125640, Note_on_c, 0, 83, 0
2, 125640, Note_on_c, 0, 81, 71
2, 125640, Note_on_c, 0, 69, 56
2, 125820, Note_on_c, 0, 69, 0
2, 125820, Note_on_c, 0, 72, 68
2, 126000, Note_on_c, 0, 81, 0
2, 126000, Note_on_c, 0, 79, 69
2, 126000, Note_on_c, 0, 64, 66
2, 126360, Note_on_c, 0, 79, 0
2, 126360, Note_on_c, 0, 77, 65
2, 126720, Note_on_c, 0, 77, 0
2, 126720, Note_on_c, 0, 72, 0
2, 126720, Note_on_c, 0, 76, 70
2, 126720, Note_on_c, 0, 71, 43
2, 126900, Note_on_c, 0, 71, 0
2, 126900, Note_on_c, 0, 64, 0
2, 126900, Note_on_c, 0, 71, 71
2, 127080, Note_on_c, 0, 71, 0
2, 127080, Note_on_c, 0, 67, 54
2, 127260, Note_on_c, 0, 67, 0
2, 127260, Note_on_c, 0, 71, 63
2, 127440, Note_on_c, 0, 64, 64
2, 127800, Note_on_c, 0, 76, 0
2, 127800, Note_on_c, 0, 77, 79
2, 128160, Note_on_c, 0, 77, 0
2, 128160, Note_on_c, 0, 71, 0
2, 128160, Note_on_c, 0, 76, 68
2, 128160, Note_on_c, 0, 70, 46
2, 128340, Note_on_c, 0, 70, 0
2, 128340, Note_on_c, 0, 64, 0
2, 128340, Note_on_c, 0, 70, 65
2, 128520, Note_on_c, 0, 70, 0
2, 128520, Note_on_c, 0, 67, 57
2, 128700, Note_on_c, 0, 67, 0
2, 128700, Note_on_c, 0, 70, 65
2, 128880, Note_on_c, 0, 76, 0
2, 128880, Note_on_c, 0, 74, 67
2, 128880, Note_on_c, 0, 62, 65
2, 129240, Note_on_c, 0, 74, 0
2, 129240, Note_on_c, 0, 76, 77
2, 129600, Note_on_c, 0, 76, 0
2, 129600, Note_on_c, 0, 70, 0
2, 129600, Note_on_c, 0, 74, 66
2, 129600, Note_on_c, 0, 69, 46
2, 129780, Note_on_c, 0, 69, 0
2, 129780, Note_on_c, 0, 62, 0
2, 129780, Note_on_c, 0, 69, 71
2, 129960, Note_on_c, 0, 69, 0
2, 129960, Note_on_c, 0, 65, 53
2, 130140, Note_on_c, 0, 65, 0
2, 130140, Note_on_c, 0, 69, 62
2, 130320, Note_on_c, 0, 62, 60
2, 130680, Note_on_c, 0, 74, 0
2, 130680, Note_on_c, 0, 76, 78
2, 131040, Note_on_c, 0, 76, 0
2, 131040, Note_on_c, 0, 69, 0
2, 131040, Note_on_c, 0, 74, 67
2, 131040, Note_on_c, 0, 68, 49
2, 131220, Note_on_c, 0, 68, 0
2, 131220, Note_on_c, 0, 62, 0
2, 131220, Note_on_c, 0, 68, 69
2, 131400, Note_on_c, 0, 68, 0
2, 131400, Note_on_c, 0, 65, 59
2, 131580, Note_on_c, 0, 65, 0
2, 131580, Note_on_c, 0, 68, 69
2, 131760, Note_on_c, 0, 74, 0
2, 131760, Note_on_c, 0, 72, 67
2, 131760, Note_on_c, 0, 60, 59
2, 132120, Note_on_c, 0, 72, 0
2, 132120, Note_on_c, 0, 74, 80
2, 132480, Note_on_c, 0, 74, 0
2, 132480, Note_on_c, 0, 68, 0
2, 132480, Note_on_c, 0, 76, 83
2, 132660, Note_on_c, 0, 60, 0
2, 132660, Note_on_c, 0, 67, 65
2, 132840, Note_on_c, 0, 67, 0
2, 132840, Note_on_c, 0, 76, 0
2, 132840, Note_on_c, 0, 79, 84
2, 132840, Note_on_c, 0, 64, 53
2, 133020, Note_on_c, 0, 64, 0
2, 133020, Note_on_c, 0, 67, 66
2, 133200, Note_on_c, 0, 67, 0
2, 133200, Note_on_c, 0, 79, 0
2, 133200, Note_on_c, 0, 84, 86
2, 133200, Note_on_c, 0, 60, 46
2, 133380, Note_on_c, 0, 60, 0
2, 133380, Note_on_c, 0, 64, 63
2, 133560, Note_on_c, 0, 64, 0
2, 133560, Note_on_c, 0, 67, 70
2, 133740, Note_on_c, 0, 67, 0
2, 133740, Note_on_c, 0, 72, 70
2, 133920, Note_on_c, 0, 72, 0
2, 133920, Note_on_c, 0, 76, 47
2, 133920, Note_on_c, 0, 64, 54
2, 134100, Note_on_c, 0, 76, 0
2, 134100, Note_on_c, 0, 79, 54
2, 134280, Note_on_c, 0, 79, 0
2, 134280, Note_on_c, 0, 64, 0
2, 134280, Note_on_c, 0, 84, 0
2, 134280, Note_on_c, 0, 83, 65
2, 134280, Note_on_c, 0, 76, 45
2, 134280, Note_on_c, 0, 67, 54
2, 134460, Note_on_c, 0, 76, 0
2, 134460, Note_on_c, 0, 79, 54
2, 134640, Note_on_c, 0, 79, 0
2, 134640, Note_on_c, 0, 67, 0
2, 134640, Note_on_c, 0, 83, 0
2, 134640, Note_on_c, 0, 81, 69
2, 134640, Note_on_c, 0, 71, 58
2, 135000, Note_on_c, 0, 81, 0
2, 135000, Note_on_c, 0, 79, 65
2, 135000, Note_on_c, 0, 76, 66
2, 135360, Note_on_c, 0, 76, 0
2, 135360, Note_on_c, 0, 79, 0
2, 135360, Note_on_c, 0, 83, 81
2, 135360, Note_on_c, 0, 72, 38
2, 135540, Note_on_c, 0, 72, 0
2, 135540, Note_on_c, 0, 71, 0
2, 135540, Note_on_c, 0, 76, 71
2, 135720, Note_on_c, 0, 76, 0
2, 135720, Note_on_c, 0, 83, 0
2, 135720, Note_on_c, 0, 81, 70
2, 135720, Note_on_c, 0, 72, 51
2, 135900, Note_on_c, 0, 72, 0
2, 135900, Note_on_c, 0, 76, 67
2, 136080, Note_on_c, 0, 76, 0
2, 136080, Note_on_c, 0, 81, 0
2, 136080, Note_on_c, 0, 79, 68
2, 136080, Note_on_c, 0, 67, 44
2, 136260, Note_on_c, 0, 67, 0
2, 136260, Note_on_c, 0, 76, 71
2, 136440, Note_on_c, 0, 76, 0
2, 136440, Note_on_c, 0, 72, 55
2, 136620, Note_on_c, 0, 72, 0
2, 136620, Note_on_c, 0, 76, 70
2, 136800, Note_on_c, 0, 76, 0
2, 136800, Note_on_c, 0, 67, 45
2, 136980, Note_on_c, 0, 67, 0
2, 136980, Note_on_c, 0, 72, 66
2, 137160, Note_on_c, 0, 72, 0
2, 137160, Note_on_c, 0, 79, 0
2, 137160, Note_on_c, 0, 81, 79
2, 137160, Note_on_c, 0, 69, 54
2, 137340, Note_on_c, 0, 69, 0
2, 137340, Note_on_c, 0, 72, 65
2, 137520, Note_on_c, 0, 81, 0
2, 137520, Note_on_c, 0, 79, 65
2, 137520, Note_on_c, 0, 64, 59
2, 137880, Note_on_c, 0, 79, 0
2, 137880, Note_on_c, 0, 77, 63
2, 138240, Note_on_c, 0, 77, 0
2, 138240, Note_on_c, 0, 72, 0
2, 138240, Note_on_c, 0, 79, 81
2, 138420, Note_on_c, 0, 64, 0
2, 138420, Note_on_c, 0, 71, 73
2, 138600, Note_on_c, 0, 71, 0
2, 138600, Note_on_c, 0, 79, 0
2, 138600, Note_on_c, 0, 77, 67
2, 138600, Note_on_c, 0, 67, 54
2, 138780, Note_on_c, 0, 67, 0
2, 138780, Note_on_c, 0, 71, 69
2, 138960, Note_on_c, 0, 77, 0
2, 138960, Note_on_c, 0, 76, 70
2, 138960, Note_on_c, 0, 64, 60
2, 139680, Note_on_c, 0, 71, 0
2, 139680, Note_on_c, 0, 70, 48
2, 139680, Note_on_c, 0, 74, 48
2, 139860, Note_on_c, 0, 74, 0
2, 139860, Note_on_c, 0, 70, 0
2, 139860, Note_on_c, 0, 64, 0
2, 139860, Note_on_c, 0, 70, 73
2, 140040, Note_on_c, 0, 70, 0
2, 140040, Note_on_c, 0, 76, 0
2, 140040, Note_on_c, 0, 77, 77
2, 140040, Note_on_c, 0, 67, 58
2, 140220, Note_on_c, 0, 67, 0
2, 140220, Note_on_c, 0, 70, 69
2, 140400, Note_on_c, 0, 77, 0
2, 140400, Note_on_c, 0, 79, 76
2, 140400, Note_on_c, 0, 62, 59
2, 141120, Note_on_c, 0, 70, 0
2, 141120, Note_on_c, 0, 69, 44
2, 141120, Note_on_c, 0, 74, 44
2, 141300, Note_on_c, 0, 74, 0
2, 141300, Note_on_c, 0, 69, 0
2, 141480, Note_on_c, 0, 79, 0
2, 141480, Note_on_c, 0, 77, 71
2, 141840, Note_on_c, 0, 77, 0
2, 141840, Note_on_c, 0, 76, 68
2, 142020, Note_on_c, 0, 62, 0
2, 142020, Note_on_c, 0, 69, 77
2, 142200, Note_on_c, 0, 69, 0
2, 142200, Note_on_c, 0, 65, 55
2, 142380, Note_on_c, 0, 65, 0
2, 142380, Note_on_c, 0, 69, 72
2, 142560, Note_on_c, 0, 69, 0
2, 142560, Note_on_c, 0, 68, 45
2, 142560, Note_on_c, 0, 72, 45
2, 142560, Note_on_c, 0, 60, 47
2, 142920, Note_on_c, 0, 60, 0
2, 142920, Note_on_c, 0, 76, 0
2, 142920, Note_on_c, 0, 74, 71
2, 143280, Note_on_c, 0, 74, 0
2, 143280, Note_on_c, 0, 72, 69
2, 143640, Note_on_c, 0, 72, 0
2, 143640, Note_on_c, 0, 74, 73
2, 144000, Note_on_c, 0, 74, 0
2, 144000, Note_on_c, 0, 72, 0
2, 144000, Note_on_c, 0, 68, 0
2, 144000, Note_on_c, 0, 76, 78
2, 144000, Note_on_c, 0, 68, 44
2, 144720, Note_on_c, 0, 68, 0
2, 144720, Note_on_c, 0, 76, 0
2, 144720, Note_on_c, 0, 76, 72
2, 144900, Note_on_c, 0, 71, 54
2, 145080, Note_on_c, 0, 71, 0
2, 145080, Note_on_c, 0, 76, 0
2, 145080, Note_on_c, 0, 77, 80
2, 145080, Note_on_c, 0, 68, 51
2, 145260, Note_on_c, 0, 68, 0
2, 145260, Note_on_c, 0, 71, 65
2, 145440, Note_on_c, 0, 71, 0
2, 145440, Note_on_c, 0, 77, 0
2, 145440, Note_on_c, 0, 79, 79
2, 145440, Note_on_c, 0, 64, 51
2, 145620, Note_on_c, 0, 64, 0
2, 145620, Note_on_c, 0, 76, 81
2, 145800, Note_on_c, 0, 76, 0
2, 145800, Note_on_c, 0, 73, 60
2, 145980, Note_on_c, 0, 73, 0
2, 145980, Note_on_c, 0, 76, 64
2, 146160, Note_on_c, 0, 76, 0
2, 146160, Note_on_c, 0, 69, 53
2, 146520, Note_on_c, 0, 79, 0
2, 146520, Note_on_c, 0, 76, 63
2, 147060, Note_on_c, 0, 69, 0
2, 147060, Note_on_c, 0, 72, 67
2, 147240, Note_on_c, 0, 72, 0
2, 147240, Note_on_c, 0, 76, 0
2, 147240, Note_on_c, 0, 77, 71
2, 147240, Note_on_c, 0, 69, 57
2, 147420, Note_on_c, 0, 69, 0
2, 147420, Note_on_c, 0, 72, 68
2, 147600, Note_on_c, 0, 72, 0
2, 147600, Note_on_c, 0, 77, 0
2, 147600, Note_on_c, 0, 79, 81
2, 147600, Note_on_c, 0, 65, 47
2, 147780, Note_on_c, 0, 65, 0
2, 147780, Note_on_c, 0, 69, 71
2, 147960, Note_on_c, 0, 69, 0
2, 147960, Note_on_c, 0, 79, 0
2, 147960, Note_on_c, 0, 81, 80
2, 147960, Note_on_c, 0, 65, 53
2, 148140, Note_on_c, 0, 65, 0
2, 148140, Note_on_c, 0, 69, 64
2, 148320, Note_on_c, 0, 69, 0
2, 148320, Note_on_c, 0, 81, 0
2, 148320, Note_on_c, 0, 81, 74
2, 148320, Note_on_c, 0, 62, 47
2, 148500, Note_on_c, 0, 62, 0
2, 148500, Note_on_c, 0, 77, 79
2, 148680, Note_on_c, 0, 77, 0
2, 148680, Note_on_c, 0, 81, 0
2, 148680, Note_on_c, 0, 83, 77
2, 148680, Note_on_c, 0, 74, 57
2, 148860, Note_on_c, 0, 74, 0
2, 148860, Note_on_c, 0, 77, 68
2, 149040, Note_on_c, 0, 77, 0
2, 149040, Note_on_c, 0, 71, 49
2, 149400, Note_on_c, 0, 83, 0
2, 149400, Note_on_c, 0, 77, 58
2, 149760, Note_on_c, 0, 77, 0
2, 149760, Note_on_c, 0, 79, 76
2, 149940, Note_on_c, 0, 71, 0
2, 149940, Note_on_c, 0, 71, 57
2, 150120, Note_on_c, 0, 71, 0
2, 150120, Note_on_c, 0, 67, 54
2, 150300, Note_on_c, 0, 67, 0
2, 150300, Note_on_c, 0, 71, 67
2, 150480, Note_on_c, 0, 71, 0
2, 150480, Note_on_c, 0, 79, 0
2, 150480, Note_on_c, 0, 81, 76
2, 150480, Note_on_c, 0, 64, 47
2, 150660, Note_on_c, 0, 64, 0
2, 150660, Note_on_c, 0, 67, 63
2, 150840, Note_on_c, 0, 67, 0
2, 150840, Note_on_c, 0, 81, 0
2, 150840, Note_on_c, 0, 83, 80
2, 150840, Note_on_c, 0, 64, 56
2, 151020, Note_on_c, 0, 64, 0
2, 151020, Note_on_c, 0, 67, 65
2, 151200, Note_on_c, 0, 67, 0
2, 151200, Note_on_c, 0, 83, 0
2, 151200, Note_on_c, 0, 83, 77
2, 151200, Note_on_c, 0, 60, 47
2, 151380, Note_on_c, 0, 60, 0
2, 151380, Note_on_c, 0, 79, 78
2, 151560, Note_on_c, 0, 79, 0
2, 151560, Note_on_c, 0, 83, 0
2, 151560, Note_on_c, 0, 84, 83
2, 151560, Note_on_c, 0, 76, 59
2, 151740, Note_on_c, 0, 76, 0
2, 151740, Note_on_c, 0, 79, 62
2, 151920, Note_on_c, 0, 79, 0
2, 151920, Note_on_c, 0, 72, 44
2, 152280, Note_on_c, 0, 84, 0
2, 152280, Note_on_c, 0, 79, 63
2, 152640, Note_on_c, 0, 79, 0
2, 152640, Note_on_c, 0, 81, 79
2, 152820, Note_on_c, 0, 72, 0
2, 152820, Note_on_c, 0, 76, 64
2, 153000, Note_on_c, 0, 76, 0
2, 153000, Note_on_c, 0, 72, 57
2, 153180, Note_on_c, 0, 72, 0
2, 153180, Note_on_c, 0, 76, 69
2, 153360, Note_on_c, 0, 76, 0
2, 153360, Note_on_c, 0, 81, 0
2, 153360, Note_on_c, 0, 83, 75
2, 153360, Note_on_c, 0, 69, 49
2, 153540, Note_on_c, 0, 69, 0
2, 153540, Note_on_c, 0, 72, 65
2, 153720, Note_on_c, 0, 72, 0
2, 153720, Note_on_c, 0, 83, 0
2, 153720, Note_on_c, 0, 84, 80
2, 153720, Note_on_c, 0, 69, 56
2, 153900, Note_on_c, 0, 69, 0
2, 153900, Note_on_c, 0, 72, 63
2, 154080, Note_on_c, 0, 72, 0
2, 154080, Note_on_c, 0, 84, 0
2, 154080, Note_on_c, 0, 86, 81
2, 154080, Note_on_c, 0, 65, 48
2, 154260, Note_on_c, 0, 65, 0
2, 154260, Note_on_c, 0, 69, 67
2, 154440, Note_on_c, 0, 69, 0
2, 154440, Note_on_c, 0, 86, 0
2, 154440, Note_on_c, 0, 83, 69
2, 154440, Note_on_c, 0, 65, 51
2, 154620, Note_on_c, 0, 65, 0
2, 154620, Note_on_c, 0, 69, 66
2, 154800, Note_on_c, 0, 69, 0
2, 154800, Note_on_c, 0, 83, 0
2, 154800, Note_on_c, 0, 84, 77
2, 154800, Note_on_c, 0, 62, 51
2, 154980, Note_on_c, 0, 62, 0
2, 154980, Note_on_c, 0, 65, 70
2, 155160, Note_on_c, 0, 65, 0
2, 155160, Note_on_c, 0, 84, 0
2, 155160, Note_on_c, 0, 86, 84
2, 155160, Note_on_c, 0, 59, 55
2, 155340, Note_on_c, 0, 59, 0
2, 155340, Note_on_c, 0, 62, 64
2, 155520, Note_on_c, 0, 62, 0
2, 155520, Note_on_c, 0, 86, 0
2, 155520, Note_on_c, 0, 88, 78
2, 155520, Note_on_c, 0, 76, 41
2, 155520, Note_on_c, 0, 59, 70
2, 155520, Note_on_c, 0, 62, 70
2, 155520, Note_on_c, 0, 64, 70
2, 155520, Note_on_c, 0, 68, 70
2, 155880, Note_on_c, 0, 68, 0
2, 155880, Note_on_c, 0, 76, 0
2, 155880, Note_on_c, 0, 59, 0
2, 155880, Note_on_c, 0, 62, 0
2, 155880, Note_on_c, 0, 64, 0
2, 155880, Note_on_c, 0, 74, 55
2, 155880, Note_on_c, 0, 76, 55
2, 156059, Note_on_c, 0, 76, 0
2, 156059, Note_on_c, 0, 74, 0
2, 156240, Note_on_c, 0, 74, 34
2, 156240, Note_on_c, 0, 76, 34
2, 156419, Note_on_c, 0, 76, 0
2, 156419, Note_on_c, 0, 74, 0
2, 156600, Note_on_c, 0, 73, 40
2, 156600, Note_on_c, 0, 76, 40
2, 156779, Note_on_c, 0, 76, 0
2, 156779, Note_on_c, 0, 73, 0
2, 156960, Note_on_c, 0, 72, 37
2, 156960, Note_on_c, 0, 76, 37
2, 157139, Note_on_c, 0, 76, 0
2, 157139, Note_on_c, 0, 72, 0
2, 157320, Note_on_c, 0, 76, 44
2, 157320, Note_on_c, 0, 71, 35
2, 157320, Note_on_c, 0, 74, 35
2, 157409, Note_on_c, 0, 74, 0
2, 157409, Note_on_c, 0, 71, 0
2, 157409, Note_on_c, 0, 76, 0
2, 157500, Note_on_c, 0, 76, 54
2, 157500, Note_on_c, 0, 71, 39
2, 157500, Note_on_c, 0, 74, 39
2, 157589, Note_on_c, 0, 74, 0
2, 157589, Note_on_c, 0, 71, 0
2, 157589, Note_on_c, 0, 76, 0
2, 157680, Note_on_c, 0, 76, 48
2, 157680, Note_on_c, 0, 70, 39
2, 157680, Note_on_c, 0, 74, 39
2, 157859, Note_on_c, 0, 74, 0
2, 157859, Note_on_c, 0, 70, 0
2, 157859, Note_on_c, 0, 76, 0
2, 158040, Note_on_c, 0, 76, 52
2, 158040, Note_on_c, 0, 69, 41
2, 158040, Note_on_c, 0, 74, 41
2, 158219, Note_on_c, 0, 74, 0
2, 158219, Note_on_c, 0, 69, 0
2, 158219, Note_on_c, 0, 76, 0
2, 158400, Note_on_c, 0, 76, 52
2, 158400, Note_on_c, 0, 68, 41
2, 158400, Note_on_c, 0, 74, 41
2, 158579, Note_on_c, 0, 74, 0
2, 158579, Note_on_c, 0, 68, 0
2, 158579, Note_on_c, 0, 76, 0
2, 158760, Note_on_c, 0, 74, 44
2, 158760, Note_on_c, 0, 76, 44
2, 158939, Note_on_c, 0, 76, 0
2, 158939, Note_on_c, 0, 74, 0
2, 159120, Note_on_c, 0, 74, 45
2, 159120, Note_on_c, 0, 76, 45
2, 159299, Note_on_c, 0, 76, 0
2, 159299, Note_on_c, 0, 74, 0
2, 159480, Note_on_c, 0, 73, 39
2, 159480, Note_on_c, 0, 76, 39
2, 159659, Note_on_c, 0, 76, 0
2, 159659, Note_on_c, 0, 73, 0
2, 159840, Note_on_c, 0, 72, 42
2, 159840, Note_on_c, 0, 76, 42
2, 160019, Note_on_c, 0, 76, 0
2, 160019, Note_on_c, 0, 72, 0
2, 160200, Note_on_c, 0, 76, 46
2, 160200, Note_on_c, 0, 71, 38
2, 160200, Note_on_c, 0, 74, 38
2, 160289, Note_on_c, 0, 74, 0
2, 160289, Note_on_c, 0, 71, 0
2, 160380, Note_on_c, 0, 76, 0
2, 160380, Note_on_c, 0, 76, 51
2, 160380, Note_on_c, 0, 71, 42
2, 160380, Note_on_c, 0, 74, 42
2, 160469, Note_on_c, 0, 74, 0
2, 160469, Note_on_c, 0, 71, 0
2, 160560, Note_on_c, 0, 76, 0
2, 160560, Note_on_c, 0, 76, 44
2, 160560, Note_on_c, 0, 70, 40
2, 160560, Note_on_c, 0, 74, 40
2, 160739, Note_on_c, 0, 74, 0
2, 160739, Note_on_c, 0, 70, 0
2, 160920, Note_on_c, 0, 76, 0
2, 160920, Note_on_c, 0, 88, 0
2, 160920, Note_on_c, 0, 87, 76
2, 160920, Note_on_c, 0, 69, 44
2, 160920, Note_on_c, 0, 72, 44
2, 160920, Note_on_c, 0, 77, 44
2, 161099, Note_on_c, 0, 77, 0
2, 161099, Note_on_c, 0, 72, 0
2, 161099, Note_on_c, 0, 69, 0
2, 161237, Note_on_c, 0, 87, 0
2, 161280, Note_on_c, 0, 86, 80
2, 161280, Note_on_c, 0, 70, 39
2, 161280, Note_on_c, 0, 74, 39
2, 161459, Note_on_c, 0, 74, 0
2, 161459, Note_on_c, 0, 70, 0
2, 161640, Note_on_c, 0, 72, 51
2, 161640, Note_on_c, 0, 77, 51
2, 161760, Note_on_c, 0, 77, 0
2, 161760, Note_on_c, 0, 72, 0
2, 161760, Note_on_c, 0, 74, 48
2, 161879, Note_on_c, 0, 74, 0
2, 161879, Note_on_c, 0, 77, 55
2, 162000, Note_on_c, 0, 77, 0
2, 162000, Note_on_c, 0, 74, 45
2, 162000, Note_on_c, 0, 70, 54
2, 162360, Note_on_c, 0, 74, 0
2, 162360, Note_on_c, 0, 74, 52
2, 162547, Note_on_c, 0, 86, 0
2, 162720, Note_on_c, 0, 74, 0
2, 162720, Note_on_c, 0, 86, 73
2, 162720, Note_on_c, 0, 74, 52
2, 162899, Note_on_c, 0, 74, 0
2, 163080, Note_on_c, 0, 70, 0
2, 163080, Note_on_c, 0, 69, 56
2, 163080, Note_on_c, 0, 74, 56
2, 163200, Note_on_c, 0, 74, 0
2, 163200, Note_on_c, 0, 69, 0
2, 163200, Note_on_c, 0, 71, 46
2, 163319, Note_on_c, 0, 71, 0
2, 163319, Note_on_c, 0, 74, 54
2, 163440, Note_on_c, 0, 68, 59
2, 163800, Note_on_c, 0, 74, 0
2, 163800, Note_on_c, 0, 86, 0
2, 163800, Note_on_c, 0, 85, 78
2, 163800, Note_on_c, 0, 74, 57
2, 163800, Note_on_c, 0, 76, 57
2, 164073, Note_on_c, 0, 68, 0
2, 164117, Note_on_c, 0, 85, 0
2, 164160, Note_on_c, 0, 74, 0
2, 164160, Note_on_c, 0, 76, 0
2, 164160, Note_on_c, 0, 84, 70
2, 164520, Note_on_c, 0, 71, 43
2, 164520, Note_on_c, 0, 76, 43
2, 164640, Note_on_c, 0, 76, 0
2, 164640, Note_on_c, 0, 71, 0
2, 164640, Note_on_c, 0, 72, 43
2, 164759, Note_on_c, 0, 72, 0
2, 164759, Note_on_c, 0, 76, 59
2, 164880, Note_on_c, 0, 76, 0
2, 164880, Note_on_c, 0, 72, 44
2, 164880, Note_on_c, 0, 69, 65
2, 165240, Note_on_c, 0, 72, 0
2, 165240, Note_on_c, 0, 72, 47
2, 165600, Note_on_c, 0, 72, 0
2, 165600, Note_on_c, 0, 84, 0
2, 165600, Note_on_c, 0, 84, 75
2, 165600, Note_on_c, 0, 72, 54
2, 165960, Note_on_c, 0, 72, 0
2, 165960, Note_on_c, 0, 69, 0
2, 165960, Note_on_c, 0, 67, 49
2, 165960, Note_on_c, 0, 72, 49
2, 166080, Note_on_c, 0, 72, 0
2, 166080, Note_on_c, 0, 67, 0
2, 166080, Note_on_c, 0, 69, 45
2, 166199, Note_on_c, 0, 69, 0
2, 166199, Note_on_c, 0, 72, 54
2, 166320, Note_on_c, 0, 66, 57
2, 166680, Note_on_c, 0, 72, 0
2, 166680, Note_on_c, 0, 84, 0
2, 166680, Note_on_c, 0, 83, 85
2, 166680, Note_on_c, 0, 72, 46
2, 166953, Note_on_c, 0, 66, 0
2, 166997, Note_on_c, 0, 83, 0
2, 167040, Note_on_c, 0, 72, 0
2, 167040, Note_on_c, 0, 82, 65
2, 167400, Note_on_c, 0, 69, 44
2, 167400, Note_on_c, 0, 74, 44
2, 167520, Note_on_c, 0, 74, 0
2, 167520, Note_on_c, 0, 69, 0
2, 167520, Note_on_c, 0, 70, 43
2, 167639, Note_on_c, 0, 70, 0
2, 167639, Note_on_c, 0, 74, 59
2, 167760, Note_on_c, 0, 74, 0
2, 167760, Note_on_c, 0, 70, 43
2, 167760, Note_on_c, 0, 67, 66
2, 168120, Note_on_c, 0, 70, 0
2, 168120, Note_on_c, 0, 70, 50
2, 168120, Note_on_c, 0, 72, 50
2, 168393, Note_on_c, 0, 67, 0
2, 168480, Note_on_c, 0, 82, 0
2, 168480, Note_on_c, 0, 70, 0
2, 168480, Note_on_c, 0, 72, 0
2, 168480, Note_on_c, 0, 81, 71
2, 168840, Note_on_c, 0, 67, 44
2, 168840, Note_on_c, 0, 72, 44
2, 168960, Note_on_c, 0, 72, 0
2, 168960, Note_on_c, 0, 67, 0
2, 168960, Note_on_c, 0, 69, 48
2, 169079, Note_on_c, 0, 69, 0
2, 169079, Note_on_c, 0, 72, 54
2, 169200, Note_on_c, 0, 72, 0
2, 169200, Note_on_c, 0, 69, 50
2, 169200, Note_on_c, 0, 65, 55
2, 169560, Note_on_c, 0, 69, 0
2, 169560, Note_on_c, 0, 69, 53
2, 169560, Note_on_c, 0, 71, 53
2, 169833, Note_on_c, 0, 65, 0
2, 169920, Note_on_c, 0, 81, 0
2, 169920, Note_on_c, 0, 69, 0
2, 169920, Note_on_c, 0, 71, 0
2, 169920, Note_on_c, 0, 80, 72
2, 170280, Note_on_c, 0, 68, 47
2, 170460, Note_on_c, 0, 68, 0
2, 170460, Note_on_c, 0, 68, 48
2, 170640, Note_on_c, 0, 68, 0
2, 170640, Note_on_c, 0, 68, 48
2, 171000, Note_on_c, 0, 68, 0
2, 171000, Note_on_c, 0, 65, 55
2, 171000, Note_on_c, 0, 68, 55
2, 171360, Note_on_c, 0, 68, 0
2, 171360, Note_on_c, 0, 65, 0
2, 171360, Note_on_c, 0, 65, 39
2, 171360, Note_on_c, 0, 68, 39
2, 171720, Note_on_c, 0, 68, 0
2, 171720, Note_on_c, 0, 65, 0
2, 171720, Note_on_c, 0, 65, 38
2, 171720, Note_on_c, 0, 68, 38
2, 171900, Note_on_c, 0, 68, 0
2, 171900, Note_on_c, 0, 65, 0
2, 171900, Note_on_c, 0, 65, 40
2, 171900, Note_on_c, 0, 68, 40
2, 172080, Note_on_c, 0, 68, 0
2, 172080, Note_on_c, 0, 65, 0
2, 172080, Note_on_c, 0, 65, 40
2, 172080, Note_on_c, 0, 68, 40
2, 172440, Note_on_c, 0, 68, 0
2, 172440, Note_on_c, 0, 65, 0
2, 172440, Note_on_c, 0, 80, 0
2, 172440, Note_on_c, 0, 81, 75
2, 172440, Note_on_c, 0, 69, 37
2, 172800, Note_on_c, 0, 69, 0
2, 172800, Note_on_c, 0, 81, 0
2, 172800, Note_on_c, 0, 80, 70
2, 172800, Note_on_c, 0, 65, 41
2, 172800, Note_on_c, 0, 68, 41
2, 173160, Note_on_c, 0, 68, 0
2, 173160, Note_on_c, 0, 65, 0
2, 173160, Note_on_c, 0, 68, 35
2, 173340, Note_on_c, 0, 68, 0
2, 173340, Note_on_c, 0, 68, 43
2, 173520, Note_on_c, 0, 68, 0
2, 173520, Note_on_c, 0, 68, 38
2, 173880, Note_on_c, 0, 68, 0
2, 173880, Note_on_c, 0, 65, 43
2, 173880, Note_on_c, 0, 68, 43
2, 174240, Note_on_c, 0, 68, 0
2, 174240, Note_on_c, 0, 65, 0
2, 174240, Note_on_c, 0, 65, 45
2, 174240, Note_on_c, 0, 68, 45
2, 174600, Note_on_c, 0, 68, 0
2, 174600, Note_on_c, 0, 65, 0
2, 174600, Note_on_c, 0, 65, 44
2, 174600, Note_on_c, 0, 68, 44
2, 174780, Note_on_c, 0, 68, 0
2, 174780, Note_on_c, 0, 65, 0
2, 174780, Note_on_c, 0, 65, 41
2, 174780, Note_on_c, 0, 68, 41
2, 174960, Note_on_c, 0, 68, 0
2, 174960, Note_on_c, 0, 65, 0
2, 174960, Note_on_c, 0, 65, 40
2, 174960, Note_on_c, 0, 68, 40
2, 175320, Note_on_c, 0, 68, 0
2, 175320, Note_on_c, 0, 65, 0
2, 175320, Note_on_c, 0, 80, 0
2, 175320, Note_on_c, 0, 81, 75
2, 175320, Note_on_c, 0, 65, 39
2, 175320, Note_on_c, 0, 69, 39
2, 175680, Note_on_c, 0, 69, 0
2, 175680, Note_on_c, 0, 65, 0
2, 175680, Note_on_c, 0, 81, 0
2, 175680, Note_on_c, 0, 80, 66
2, 175680, Note_on_c, 0, 65, 38
2, 175680, Note_on_c, 0, 68, 38
2, 176040, Note_on_c, 0, 68, 0
2, 176040, Note_on_c, 0, 65, 0
2, 176040, Note_on_c, 0, 65, 40
2, 176040, Note_on_c, 0, 68, 40
2, 176220, Note_on_c, 0, 68, 0
2, 176220, Note_on_c, 0, 65, 0
2, 176220, Note_on_c, 0, 65, 43
2, 176220, Note_on_c, 0, 68, 43
2, 176400, Note_on_c, 0, 68, 0
2, 176400, Note_on_c, 0, 65, 0
2, 176400, Note_on_c, 0, 65, 39
2, 176400, Note_on_c, 0, 68, 39
2, 176760, Note_on_c, 0, 68, 0
2, 176760, Note_on_c, 0, 65, 0
2, 178200, Note_on_c, 0, 80, 0
2, 178200, Note_on_c, 0, 69, 52
2, 178560, Note_on_c, 0, 69, 0
2, 178560, Note_on_c, 0, 68, 62
2, 178920, Note_on_c, 0, 65, 38
2, 179100, Note_on_c, 0, 65, 0
2, 179100, Note_on_c, 0, 65, 42
2, 179280, Note_on_c, 0, 65, 0
2, 179280, Note_on_c, 0, 65, 38
2, 179640, Note_on_c, 0, 65, 0
2, 181080, Note_on_c, 0, 68, 0
2, 181080, Note_on_c, 0, 69, 74
2, 181440, Note_on_c, 0, 69, 0
2, 181440, Note_on_c, 0, 68, 68
2, 182880, Note_on_c, 0, 68, 0
2, 182880, Note_on_c, 0, 67, 41
2, 183240, Note_on_c, 0, 74, 66
2, 183360, Note_on_c, 0, 74, 0
2, 183360, Note_on_c, 0, 71, 65
2, 183479, Note_on_c, 0, 71, 0
2, 183479, Note_on_c, 0, 74, 78
2, 183600, Note_on_c, 0, 74, 0
2, 183600, Note_on_c, 0, 68, 60
2, 184320, Note_on_c, 0, 67, 0
2, 186120, Note_on_c, 0, 68, 0
2, 189720, Note_on_c, 0, 69, 82
2, 189720, Note_on_c, 0, 72, 82
2, 189720, Note_on_c, 0, 76, 82
2, 189809, Note_on_c, 0, 76, 0
2, 189809, Note_on_c, 0, 72, 0
2, 189809, Note_on_c, 0, 69, 0
2, 189900, Note_on_c, 0, 69, 88
2, 189900, Note_on_c, 0, 72, 88
2, 189900, Note_on_c, 0, 76, 88
2, 189989, Note_on_c, 0, 76, 0
2, 189989, Note_on_c, 0, 72, 0
2, 189989, Note_on_c, 0, 69, 0
2, 190080, Note_on_c, 0, 69, 88
2, 190080, Note_on_c, 0, 72, 88
2, 190080, Note_on_c, 0, 76, 88
2, 190440, Note_on_c, 0, 76, 0
2, 190440, Note_on_c, 0, 72, 0
2, 190440, Note_on_c, 0, 69, 0
2, 190440, Note_on_c, 0, 72, 35
2, 190440, Note_on_c, 0, 76, 35
2, 190529, Note_on_c, 0, 76, 0
2, 190529, Note_on_c, 0, 72, 0
2, 190620, Note_on_c, 0, 72, 42
2, 190620, Note_on_c, 0, 76, 42
2, 190709, Note_on_c, 0, 76, 0
2, 190709, Note_on_c, 0, 72, 0
2, 190800, Note_on_c, 0, 72, 39
2, 190800, Note_on_c, 0, 76, 39
2, 191160, Note_on_c, 0, 76, 0
2, 191160, Note_on_c, 0, 72, 0
2, 191160, Note_on_c, 0, 72, 39
2, 191160, Note_on_c, 0, 76, 39
2, 191520, Note_on_c, 0, 76, 0
2, 191520, Note_on_c, 0, 72, 0
2, 191520, Note_on_c, 0, 72, 41
2, 191520, Note_on_c, 0, 76, 41
2, 191880, Note_on_c, 0, 76, 0
2, 191880, Note_on_c, 0, 72, 0
2, 191880, Note_on_c, 0, 88, 78
2, 191880, Note_on_c, 0, 72, 41
2, 191880, Note_on_c, 0, 76, 41
2, 191969, Note_on_c, 0, 76, 0
2, 191969, Note_on_c, 0, 72, 0
2, 192000, Note_on_c, 0, 88, 0
2, 192000, Note_on_c, 0, 84, 71
2, 192060, Note_on_c, 0, 72, 41
2, 192060, Note_on_c, 0, 76, 41
2, 192119, Note_on_c, 0, 84, 0
2, 192119, Note_on_c, 0, 88, 94
2, 192149, Note_on_c, 0, 76, 0
2, 192149, Note_on_c, 0, 72, 0
2, 192240, Note_on_c, 0, 88, 0
2, 192240, Note_on_c, 0, 81, 71
2, 192240, Note_on_c, 0, 72, 40
2, 192240, Note_on_c, 0, 76, 40
2, 192600, Note_on_c, 0, 76, 0
2, 192600, Note_on_c, 0, 72, 0
2, 192600, Note_on_c, 0, 69, 41
2, 192600, Note_on_c, 0, 72, 41
2, 192600, Note_on_c, 0, 76, 41
2, 192960, Note_on_c, 0, 76, 0
2, 192960, Note_on_c, 0, 81, 0
2, 192960, Note_on_c, 0, 69, 0
2, 192960, Note_on_c, 0, 72, 0
2, 192960, Note_on_c, 0, 69, 43
2, 192960, Note_on_c, 0, 72, 43
2, 192960, Note_on_c, 0, 76, 43
2, 193320, Note_on_c, 0, 76, 0
2, 193320, Note_on_c, 0, 72, 0
2, 193320, Note_on_c, 0, 69, 0
2, 193320, Note_on_c, 0, 88, 76
2, 193320, Note_on_c, 0, 69, 37
2, 193320, Note_on_c, 0, 72, 37
2, 193320, Note_on_c, 0, 76, 37
2, 193409, Note_on_c, 0, 76, 0
2, 193409, Note_on_c, 0, 72, 0
2, 193409, Note_on_c, 0, 69, 0
2, 193440, Note_on_c, 0, 88, 0
2, 193440, Note_on_c, 0, 84, 71
2, 193500, Note_on_c, 0, 69, 35
2, 193500, Note_on_c, 0, 72, 35
2, 193500, Note_on_c, 0, 76, 35
2, 193559, Note_on_c, 0, 84, 0
2, 193559, Note_on_c, 0, 88, 97
2, 193589, Note_on_c, 0, 69, 0
2, 193589, Note_on_c, 0, 76, 0
2, 193589, Note_on_c, 0, 72, 0
2, 193680, Note_on_c, 0, 88, 0
2, 193680, Note_on_c, 0, 81, 68
2, 193680, Note_on_c, 0, 69, 36
2, 193680, Note_on_c, 0, 72, 36
2, 193680, Note_on_c, 0, 76, 36
2, 194040, Note_on_c, 0, 76, 0
2, 194040, Note_on_c, 0, 72, 0
2, 194040, Note_on_c, 0, 69, 0
2, 194040, Note_on_c, 0, 69, 36
2, 194040, Note_on_c, 0, 72, 36
2, 194040, Note_on_c, 0, 76, 36
2, 194400, Note_on_c, 0, 76, 0
2, 194400, Note_on_c, 0, 81, 0
2, 194400, Note_on_c, 0, 69, 0
2, 194400, Note_on_c, 0, 72, 0
2, 194400, Note_on_c, 0, 69, 43
2, 194400, Note_on_c, 0, 72, 43
2, 194400, Note_on_c, 0, 76, 43
2, 194760, Note_on_c, 0, 76, 0
2, 194760, Note_on_c, 0, 72, 0
2, 194760, Note_on_c, 0, 69, 0
2, 194760, Note_on_c, 0, 88, 76
2, 194760, Note_on_c, 0, 69, 39
2, 194760, Note_on_c, 0, 72, 39
2, 194760, Note_on_c, 0, 76, 39
2, 194849, Note_on_c, 0, 76, 0
2, 194849, Note_on_c, 0, 72, 0
2, 194849, Note_on_c, 0, 69, 0
2, 194880, Note_on_c, 0, 88, 0
2, 194880, Note_on_c, 0, 84, 77
2, 194940, Note_on_c, 0, 69, 40
2, 194940, Note_on_c, 0, 72, 40
2, 194940, Note_on_c, 0, 76, 40
2, 194999, Note_on_c, 0, 84, 0
2, 194999, Note_on_c, 0, 88, 91
2, 195029, Note_on_c, 0, 69, 0
2, 195029, Note_on_c, 0, 76, 0
2, 195029, Note_on_c, 0, 72, 0
2, 195120, Note_on_c, 0, 88, 0
2, 195120, Note_on_c, 0, 81, 72
2, 195120, Note_on_c, 0, 69, 44
2, 195120, Note_on_c, 0, 72, 44
2, 195120, Note_on_c, 0, 76, 44
2, 195480, Note_on_c, 0, 76, 0
2, 195480, Note_on_c, 0, 72, 0
2, 195480, Note_on_c, 0, 69, 0
2, 195480, Note_on_c, 0, 69, 37
2, 195480, Note_on_c, 0, 72, 37
2, 195480, Note_on_c, 0, 76, 37
2, 195840, Note_on_c, 0, 76, 0
2, 195840, Note_on_c, 0, 81, 0
2, 195840, Note_on_c, 0, 69, 0
2, 195840, Note_on_c, 0, 72, 0
2, 195840, Note_on_c, 0, 69, 38
2, 195840, Note_on_c, 0, 72, 38
2, 195840, Note_on_c, 0, 76, 38
2, 196200, Note_on_c, 0, 76, 0
2, 196200, Note_on_c, 0, 72, 0
2, 196200, Note_on_c, 0, 69, 0
2, 196200, Note_on_c, 0, 81, 78
2, 196200, Note_on_c, 0, 69, 31
2, 196379, Note_on_c, 0, 69, 0
2, 196379, Note_on_c, 0, 81, 0
2, 196560, Note_on_c, 0, 91, 109
2, 196560, Note_on_c, 0, 79, 52
2, 196739, Note_on_c, 0, 79, 0
2, 196739, Note_on_c, 0, 91, 0
2, 196920, Note_on_c, 0, 92, 95
2, 196920, Note_on_c, 0, 80, 48
2, 197099, Note_on_c, 0, 80, 0
2, 197099, Note_on_c, 0, 92, 0
2, 197280, Note_on_c, 0, 93, 94
2, 197280, Note_on_c, 0, 81, 47
2, 197459, Note_on_c, 0, 81, 0
2, 197459, Note_on_c, 0, 93, 0
2, 197640, Note_on_c, 0, 88, 75
2, 197640, Note_on_c, 0, 76, 38
2, 197820, Note_on_c, 0, 76, 0
2, 197820, Note_on_c, 0, 88, 0
2, 197820, Note_on_c, 0, 89, 86
2, 197820, Note_on_c, 0, 77, 42
2, 198000, Note_on_c, 0, 77, 0
2, 198000, Note_on_c, 0, 89, 0
2, 198000, Note_on_c, 0, 91, 95
2, 198000, Note_on_c, 0, 79, 46
2, 198179, Note_on_c, 0, 79, 0
2, 198179, Note_on_c, 0, 91, 0
2, 198360, Note_on_c, 0, 86, 77
2, 198360, Note_on_c, 0, 74, 33
2, 198540, Note_on_c, 0, 74, 0
2, 198540, Note_on_c, 0, 86, 0
2, 198540, Note_on_c, 0, 88, 90
2, 198540, Note_on_c, 0, 76, 43
2, 198720, Note_on_c, 0, 76, 0
2, 198720, Note_on_c, 0, 88, 0
2, 198720, Note_on_c, 0, 89, 87
2, 198720, Note_on_c, 0, 77, 47
2, 198899, Note_on_c, 0, 77, 0
2, 198899, Note_on_c, 0, 89, 0
2, 199080, Note_on_c, 0, 87, 90
2, 199080, Note_on_c, 0, 75, 36
2, 199259, Note_on_c, 0, 75, 0
2, 199259, Note_on_c, 0, 87, 0
2, 199440, Note_on_c, 0, 88, 92
2, 199440, Note_on_c, 0, 76, 52
2, 200520, Note_on_c, 0, 76, 0
2, 200520, Note_on_c, 0, 88, 0
2, 200520, Note_on_c, 0, 93, 100
2, 200520, Note_on_c, 0, 81, 46
2, 200699, Note_on_c, 0, 93, 0
2, 200880, Note_on_c, 0, 81, 0
2, 200880, Note_on_c, 0, 96, 103
2, 200880, Note_on_c, 0, 84, 46
2, 201059, Note_on_c, 0, 84, 0
2, 201059, Note_on_c, 0, 96, 0
2, 201240, Note_on_c, 0, 91, 105
2, 201240, Note_on_c, 0, 79, 28
2, 201420, Note_on_c, 0, 79, 0
2, 201420, Note_on_c, 0, 91, 0
2, 201420, Note_on_c, 0, 93, 106
2, 201420, Note_on_c, 0, 81, 43
2, 201600, Note_on_c, 0, 81, 0
2, 201600, Note_on_c, 0, 93, 0
2, 201600, Note_on_c, 0, 95, 108
2, 201600, Note_on_c, 0, 83, 47
2, 201960, Note_on_c, 0, 83, 0
2, 201960, Note_on_c, 0, 95, 0
2, 201960, Note_on_c, 0, 89, 110
2, 201960, Note_on_c, 0, 77, 32
2, 202139, Note_on_c, 0, 77, 0
2, 202139, Note_on_c, 0, 89, 0
2, 202320, Note_on_c, 0, 93, 113
2, 202320, Note_on_c, 0, 81, 58
2, 202953, Note_on_c, 0, 93, 0
2, 203400, Note_on_c, 0, 81, 0
2, 203400, Note_on_c, 0, 87, 101
2, 203400, Note_on_c, 0, 87, 46
2, 203579, Note_on_c, 0, 87, 0
2, 203579, Note_on_c, 0, 87, 0
2, 203760, Note_on_c, 0, 88, 117
2, 203760, Note_on_c, 0, 88, 56
2, 204393, Note_on_c, 0, 88, 0
2, 204393, Note_on_c, 0, 88, 0
2, 204480, Note_on_c, 0, 91, 116
2, 204480, Note_on_c, 0, 79, 28
2, 204659, Note_on_c, 0, 79, 0
2, 204840, Note_on_c, 0, 91, 0
2, 204840, Note_on_c, 0, 93, 117
2, 204840, Note_on_c, 0, 81, 57
2, 205473, Note_on_c, 0, 81, 0
2, 205473, Note_on_c, 0, 93, 0
2, 205560, Note_on_c, 0, 89, 100
2, 205560, Note_on_c, 0, 77, 41
2, 205560, Note_on_c, 0, 80, 41
2, 205739, Note_on_c, 0, 89, 0
2, 205740, Note_on_c, 0, 80, 0
2, 205740, Note_on_c, 0, 77, 0
2, 205740, Note_on_c, 0, 81, 39
2, 205920, Note_on_c, 0, 81, 0
2, 205920, Note_on_c, 0, 91, 116
2, 205920, Note_on_c, 0, 82, 47
2, 206099, Note_on_c, 0, 91, 0
2, 206100, Note_on_c, 0, 82, 0
2, 206100, Note_on_c, 0, 82, 37
2, 206280, Note_on_c, 0, 82, 0
2, 206280, Note_on_c, 0, 88, 103
2, 206280, Note_on_c, 0, 81, 36
2, 206459, Note_on_c, 0, 88, 0
2, 206460, Note_on_c, 0, 81, 0
2, 206460, Note_on_c, 0, 82, 39
2, 206640, Note_on_c, 0, 82, 0
2, 206640, Note_on_c, 0, 89, 116
2, 206640, Note_on_c, 0, 83, 43
2, 206819, Note_on_c, 0, 89, 0
2, 206820, Note_on_c, 0, 83, 0
2, 206820, Note_on_c, 0, 83, 39
2, 207000, Note_on_c, 0, 83, 0
2, 207000, Note_on_c, 0, 87, 107
2, 207000, Note_on_c, 0, 81, 37
2, 207179, Note_on_c, 0, 87, 0
2, 207180, Note_on_c, 0, 81, 0
2, 207180, Note_on_c, 0, 83, 44
2, 207360, Note_on_c, 0, 83, 0
2, 207360, Note_on_c, 0, 88, 116
2, 207360, Note_on_c, 0, 81, 41
2, 207360, Note_on_c, 0, 84, 41
2, 207539, Note_on_c, 0, 88, 0
2, 207720, Note_on_c, 0, 84, 0
2, 207720, Note_on_c, 0, 81, 0
2, 207720, Note_on_c, 0, 83, 103
2, 207720, Note_on_c, 0, 88, 103
2, 207720, Note_on_c, 0, 71, 84
2, 207720, Note_on_c, 0, 76, 84
2, 207899, Note_on_c, 0, 76, 0
2, 207899, Note_on_c, 0, 83, 0
2, 207899, Note_on_c, 0, 88, 0
2, 207899, Note_on_c, 0, 71, 0
2, 208080, Note_on_c, 0, 88, 116
2, 208080, Note_on_c, 0, 93, 116
2, 208080, Note_on_c, 0, 76, 116
2, 208080, Note_on_c, 0, 81, 116
2, 208259, Note_on_c, 0, 81, 0
2, 208259, Note_on_c, 0, 88, 0
2, 208259, Note_on_c, 0, 93, 0
2, 208259, Note_on_c, 0, 76, 0
2, 208440, Note_on_c, 0, 86, 103
2, 208440, Note_on_c, 0, 88, 103
2, 208440, Note_on_c, 0, 91, 103
2, 208440, Note_on_c, 0, 74, 94
2, 208440, Note_on_c, 0, 76, 94
2, 208440, Note_on_c, 0, 79, 94
2, 208619, Note_on_c, 0, 79, 0
2, 208619, Note_on_c, 0, 88, 0
2, 208619, Note_on_c, 0, 91, 0
2, 208619, Note_on_c, 0, 86, 0
2, 208619, Note_on_c, 0, 76, 0
2, 208619, Note_on_c, 0, 74, 0
2, 208800, Note_on_c, 0, 84, 112
2, 208800, Note_on_c, 0, 88, 112
2, 208800, Note_on_c, 0, 93, 112
2, 208800, Note_on_c, 0, 72, 112
2, 208800, Note_on_c, 0, 76, 112
2, 208800, Note_on_c, 0, 81, 112
2, 208979, Note_on_c, 0, 81, 0
2, 208979, Note_on_c, 0, 88, 0
2, 208979, Note_on_c, 0, 93, 0
2, 208979, Note_on_c, 0, 84, 0
2, 208979, Note_on_c, 0, 76, 0
2, 208979, Note_on_c, 0, 72, 0
2, 209160, Note_on_c, 0, 84, 85
2, 209160, Note_on_c, 0, 88, 85
2, 209160, Note_on_c, 0, 72, 86
2, 209160, Note_on_c, 0, 76, 86
2, 209340, Note_on_c, 0, 76, 0
2, 209340, Note_on_c, 0, 84, 0
2, 209340, Note_on_c, 0, 88, 0
2, 209340, Note_on_c, 0, 72, 0
2, 209340, Note_on_c, 0, 89, 107
2, 209340, Note_on_c, 0, 77, 108
2, 209520, Note_on_c, 0, 77, 0
2, 209520, Note_on_c, 0, 89, 0
2, 209520, Note_on_c, 0, 79, 106
2, 209520, Note_on_c, 0, 86, 106
2, 209520, Note_on_c, 0, 91, 106
2, 209520, Note_on_c, 0, 71, 93
2, 209520, Note_on_c, 0, 74, 93
2, 209880, Note_on_c, 0, 74, 0
2, 209880, Note_on_c, 0, 91, 0
2, 209880, Note_on_c, 0, 79, 0
2, 209880, Note_on_c, 0, 86, 0
2, 209880, Note_on_c, 0, 71, 0
2, 209880, Note_on_c, 0, 86, 106
2, 209880, Note_on_c, 0, 82, 96
2, 209880, Note_on_c, 0, 74, 112
2, 209880, Note_on_c, 0, 70, 58
2, 210060, Note_on_c, 0, 88, 106
2, 210060, Note_on_c, 0, 76, 109
2, 210240, Note_on_c, 0, 76, 0
2, 210240, Note_on_c, 0, 88, 0
2, 210240, Note_on_c, 0, 89, 108
2, 210240, Note_on_c, 0, 77, 107
2, 210600, Note_on_c, 0, 77, 0
2, 210600, Note_on_c, 0, 82, 0
2, 210600, Note_on_c, 0, 70, 0
2, 210600, Note_on_c, 0, 86, 0
2, 210600, Note_on_c, 0, 89, 0
2, 210600, Note_on_c, 0, 74, 0
2, 210600, Note_on_c, 0, 81, 95
2, 210600, Note_on_c, 0, 84, 95
2, 210600, Note_on_c, 0, 87, 95
2, 210600, Note_on_c, 0, 69, 98
2, 210600, Note_on_c, 0, 72, 98
2, 210600, Note_on_c, 0, 75, 98
2, 210960, Note_on_c, 0, 75, 0
2, 210960, Note_on_c, 0, 84, 0
2, 210960, Note_on_c, 0, 87, 0
2, 210960, Note_on_c, 0, 81, 0
2, 210960, Note_on_c, 0, 72, 0
2, 210960, Note_on_c, 0, 69, 0
2, 210960, Note_on_c, 0, 88, 108
2, 210960, Note_on_c, 0, 76, 108
2, 211140, Note_on_c, 0, 76, 0
2, 211140, Note_on_c, 0, 88, 0
2, 211140, Note_on_c, 0, 87, 95
2, 211140, Note_on_c, 0, 75, 97
2, 211320, Note_on_c, 0, 75, 0
2, 211320, Note_on_c, 0, 87, 0
2, 211320, Note_on_c, 0, 80, 117
2, 211320, Note_on_c, 0, 84, 117
2, 211320, Note_on_c, 0, 88, 117
2, 211320, Note_on_c, 0, 68, 116
2, 211320, Note_on_c, 0, 72, 116
2, 211320, Note_on_c, 0, 76, 116
2, 211637, Note_on_c, 0, 72, 0
2, 211637, Note_on_c, 0, 68, 0
2, 211637, Note_on_c, 0, 84, 0
2, 211637, Note_on_c, 0, 80, 0
2, 211680, Note_on_c, 0, 79, 100
2, 211680, Note_on_c, 0, 83, 100
2, 211680, Note_on_c, 0, 67, 98
2, 211680, Note_on_c, 0, 71, 98
2, 212040, Note_on_c, 0, 71, 0
2, 212040, Note_on_c, 0, 76, 0
2, 212040, Note_on_c, 0, 79, 0
2, 212040, Note_on_c, 0, 88, 0
2, 212040, Note_on_c, 0, 67, 0
2, 212040, Note_on_c, 0, 83, 0
2, 212040, Note_on_c, 0, 85, 91
2, 212040, Note_on_c, 0, 78, 73
2, 212040, Note_on_c, 0, 82, 73
2, 212040, Note_on_c, 0, 73, 96
2, 212040, Note_on_c, 0, 66, 53
2, 212040, Note_on_c, 0, 70, 53
2, 212400, Note_on_c, 0, 73, 0
2, 212400, Note_on_c, 0, 85, 0
2, 212400, Note_on_c, 0, 86, 104
2, 212400, Note_on_c, 0, 74, 106
2, 212580, Note_on_c, 0, 74, 0
2, 212580, Note_on_c, 0, 86, 0
2, 212580, Note_on_c, 0, 85, 94
2, 212580, Note_on_c, 0, 73, 99
2, 212760, Note_on_c, 0, 73, 0
2, 212760, Note_on_c, 0, 70, 0
2, 212760, Note_on_c, 0, 66, 0
2, 212760, Note_on_c, 0, 78, 0
2, 212760, Note_on_c, 0, 85, 0
2, 212760, Note_on_c, 0, 82, 0
2, 212760, Note_on_c, 0, 77, 117
2, 212760, Note_on_c, 0, 82, 117
2, 212760, Note_on_c, 0, 86, 117
2, 212760, Note_on_c, 0, 65, 117
2, 212760, Note_on_c, 0, 70, 117
2, 212760, Note_on_c, 0, 74, 117
2, 213077, Note_on_c, 0, 70, 0
2, 213077, Note_on_c, 0, 65, 0
2, 213077, Note_on_c, 0, 82, 0
2, 213077, Note_on_c, 0, 77, 0
2, 213120, Note_on_c, 0, 77, 73
2, 213120, Note_on_c, 0, 81, 73
2, 213120, Note_on_c, 0, 65, 53
2, 213120, Note_on_c, 0, 69, 53
2, 213480, Note_on_c, 0, 69, 0
2, 213480, Note_on_c, 0, 74, 0
2, 213480, Note_on_c, 0, 77, 0
2, 213480, Note_on_c, 0, 86, 0
2, 213480, Note_on_c, 0, 65, 0
2, 213480, Note_on_c, 0, 81, 0
2, 213480, Note_on_c, 0, 80, 116
2, 213480, Note_on_c, 0, 82, 116
2, 213480, Note_on_c, 0, 76, 65
2, 213480, Note_on_c, 0, 68, 90
2, 213480, Note_on_c, 0, 70, 90
2, 213480, Note_on_c, 0, 64, 38
2, 213660, Note_on_c, 0, 70, 0
2, 213660, Note_on_c, 0, 68, 0
2, 213660, Note_on_c, 0, 82, 0
2, 213660, Note_on_c, 0, 80, 0
2, 213660, Note_on_c, 0, 83, 106
2, 213660, Note_on_c, 0, 71, 101
2, 213840, Note_on_c, 0, 71, 0
2, 213840, Note_on_c, 0, 76, 0
2, 213840, Note_on_c, 0, 64, 0
2, 213840, Note_on_c, 0, 83, 0
2, 213840, Note_on_c, 0, 84, 108
2, 213840, Note_on_c, 0, 72, 100
2, 214200, Note_on_c, 0, 72, 0
2, 214200, Note_on_c, 0, 84, 0
2, 214200, Note_on_c, 0, 75, 117
2, 214200, Note_on_c, 0, 79, 117
2, 214200, Note_on_c, 0, 83, 117
2, 214200, Note_on_c, 0, 63, 117
2, 214200, Note_on_c, 0, 67, 117
2, 214200, Note_on_c, 0, 71, 117
2, 214560, Note_on_c, 0, 71, 0
2, 214560, Note_on_c, 0, 79, 0
2, 214560, Note_on_c, 0, 83, 0
2, 214560, Note_on_c, 0, 75, 0
2, 214560, Note_on_c, 0, 67, 0
2, 214560, Note_on_c, 0, 63, 0
2, 214560, Note_on_c, 0, 84, 110
2, 214560, Note_on_c, 0, 72, 108
2, 214920, Note_on_c, 0, 72, 0
2, 214920, Note_on_c, 0, 84, 0
2, 214920, Note_on_c, 0, 78, 117
2, 214920, Note_on_c, 0, 81, 117
2, 214920, Note_on_c, 0, 74, 67
2, 214920, Note_on_c, 0, 66, 117
2, 214920, Note_on_c, 0, 69, 117
2, 214920, Note_on_c, 0, 62, 44
2, 215100, Note_on_c, 0, 69, 0
2, 215100, Note_on_c, 0, 66, 0
2, 215100, Note_on_c, 0, 81, 0
2, 215100, Note_on_c, 0, 78, 0
2, 215100, Note_on_c, 0, 82, 104
2, 215100, Note_on_c, 0, 70, 105
2, 215280, Note_on_c, 0, 70, 0
2, 215280, Note_on_c, 0, 74, 0
2, 215280, Note_on_c, 0, 62, 0
2, 215280, Note_on_c, 0, 82, 0
2, 215280, Note_on_c, 0, 83, 109
2, 215280, Note_on_c, 0, 71, 109
2, 215640, Note_on_c, 0, 71, 0
2, 215640, Note_on_c, 0, 83, 0
2, 215640, Note_on_c, 0, 80, 117
2, 215640, Note_on_c, 0, 74, 83
2, 215640, Note_on_c, 0, 77, 83
2, 215640, Note_on_c, 0, 68, 95
2, 215640, Note_on_c, 0, 62, 53
2, 215640, Note_on_c, 0, 65, 53
2, 215820, Note_on_c, 0, 68, 0
2, 215820, Note_on_c, 0, 80, 0
2, 215820, Note_on_c, 0, 81, 105
2, 215820, Note_on_c, 0, 69, 108
2, 216000, Note_on_c, 0, 69, 0
2, 216000, Note_on_c, 0, 65, 0
2, 216000, Note_on_c, 0, 77, 0
2, 216000, Note_on_c, 0, 74, 0
2, 216000, Note_on_c, 0, 81, 0
2, 216000, Note_on_c, 0, 62, 0
2, 216000, Note_on_c, 0, 70, 117
2, 216000, Note_on_c, 0, 82, 117
2, 216000, Note_on_c, 0, 62, 116
2, 216000, Note_on_c, 0, 65, 116
2, 216179, Note_on_c, 0, 82, 0
2, 216179, Note_on_c, 0, 70, 0
2, 216360, Note_on_c, 0, 62, 0
2, 216360, Note_on_c, 0, 65, 0
2, 216360, Note_on_c, 0, 82, 106
2, 216360, Note_on_c, 0, 70, 62
2, 216360, Note_on_c, 0, 63, 95
2, 216539, Note_on_c, 0, 63, 0
2, 216539, Note_on_c, 0, 70, 0
2, 216540, Note_on_c, 0, 82, 0
2, 216540, Note_on_c, 0, 81, 98
2, 216720, Note_on_c, 0, 81, 0
2, 216720, Note_on_c, 0, 82, 117
2, 216720, Note_on_c, 0, 70, 77
2, 216720, Note_on_c, 0, 64, 112
2, 216899, Note_on_c, 0, 64, 0
2, 217080, Note_on_c, 0, 65, 105
2, 217259, Note_on_c, 0, 65, 0
2, 217440, Note_on_c, 0, 66, 109
2, 217619, Note_on_c, 0, 66, 0
2, 217800, Note_on_c, 0, 70, 0
2, 217800, Note_on_c, 0, 82, 0
2, 217800, Note_on_c, 0, 81, 100
2, 217800, Note_on_c, 0, 73, 83
2, 217800, Note_on_c, 0, 67, 115
2, 217800, Note_on_c, 0, 69, 115
2, 217979, Note_on_c, 0, 73, 0
2, 217980, Note_on_c, 0, 81, 0
2, 217980, Note_on_c, 0, 67, 0
2, 217980, Note_on_c, 0, 69, 0
2, 217980, Note_on_c, 0, 80, 97
2, 217980, Note_on_c, 0, 68, 99
2, 218160, Note_on_c, 0, 68, 0
2, 218160, Note_on_c, 0, 80, 0
2, 218160, Note_on_c, 0, 81, 117
2, 218160, Note_on_c, 0, 74, 78
2, 218160, Note_on_c, 0, 65, 110
2, 218160, Note_on_c, 0, 69, 110
2, 218339, Note_on_c, 0, 69, 0
2, 218339, Note_on_c, 0, 65, 0
2, 218339, Note_on_c, 0, 74, 0
2, 218520, Note_on_c, 0, 76, 83
2, 218520, Note_on_c, 0, 69, 111
2, 218520, Note_on_c, 0, 73, 111
2, 218699, Note_on_c, 0, 73, 0
2, 218699, Note_on_c, 0, 69, 0
2, 218699, Note_on_c, 0, 76, 0
2, 218880, Note_on_c, 0, 77, 78
2, 218880, Note_on_c, 0, 69, 111
2, 218880, Note_on_c, 0, 74, 111
2, 219059, Note_on_c, 0, 74, 0
2, 219059, Note_on_c, 0, 69, 0
2, 219059, Note_on_c, 0, 77, 0
2, 219240, Note_on_c, 0, 81, 0
2, 219240, Note_on_c, 0, 79, 108
2, 219240, Note_on_c, 0, 74, 68
2, 219240, Note_on_c, 0, 67, 93
2, 219240, Note_on_c, 0, 62, 47
2, 219600, Note_on_c, 0, 62, 0
2, 219600, Note_on_c, 0, 74, 0
2, 219600, Note_on_c, 0, 76, 80
2, 219600, Note_on_c, 0, 64, 55
2, 219873, Note_on_c, 0, 67, 0
2, 219873, Note_on_c, 0, 79, 0
2, 219960, Note_on_c, 0, 76, 0
2, 219960, Note_on_c, 0, 64, 0
2, 219960, Note_on_c, 0, 78, 111
2, 219960, Note_on_c, 0, 73, 71
2, 219960, Note_on_c, 0, 66, 95
2, 219960, Note_on_c, 0, 61, 49
2, 220320, Note_on_c, 0, 61, 0
2, 220320, Note_on_c, 0, 73, 0
2, 220320, Note_on_c, 0, 74, 78
2, 220680, Note_on_c, 0, 74, 0
2, 220680, Note_on_c, 0, 66, 0
2, 220680, Note_on_c, 0, 78, 0
2, 220680, Note_on_c, 0, 77, 92
2, 220680, Note_on_c, 0, 71, 71
2, 220680, Note_on_c, 0, 65, 97
2, 221040, Note_on_c, 0, 71, 0
2, 221040, Note_on_c, 0, 72, 85
2, 221400, Note_on_c, 0, 72, 0
2, 221400, Note_on_c, 0, 65, 0
2, 221400, Note_on_c, 0, 77, 0
2, 221400, Note_on_c, 0, 72, 87
2, 221400, Note_on_c, 0, 69, 71
2, 221400, Note_on_c, 0, 60, 86
2, 221580, Note_on_c, 0, 60, 0
2, 221580, Note_on_c, 0, 72, 0
2, 221580, Note_on_c, 0, 74, 108
2, 221580, Note_on_c, 0, 62, 108
2, 221760, Note_on_c, 0, 62, 0
2, 221760, Note_on_c, 0, 74, 0
2, 221760, Note_on_c, 0, 69, 0
2, 221760, Note_on_c, 0, 76, 110
2, 221760, Note_on_c, 0, 71, 76
2, 221760, Note_on_c, 0, 64, 86
2, 221760, Note_on_c, 0, 68, 86
2, 222120, Note_on_c, 0, 68, 0
2, 222120, Note_on_c, 0, 76, 0
2, 222120, Note_on_c, 0, 71, 0
2, 222120, Note_on_c, 0, 64, 0
2, 222120, Note_on_c, 0, 75, 109
2, 222120, Note_on_c, 0, 71, 75
2, 222120, Note_on_c, 0, 68, 89
2, 222300, Note_on_c, 0, 71, 0
2, 222300, Note_on_c, 0, 69, 73
2, 222437, Note_on_c, 0, 68, 0
2, 222480, Note_on_c, 0, 69, 0
2, 222480, Note_on_c, 0, 70, 76
2, 222480, Note_on_c, 0, 67, 70
2, 222753, Note_on_c, 0, 75, 0
2, 222840, Note_on_c, 0, 67, 0
2, 222840, Note_on_c, 0, 70, 0
2, 222840, Note_on_c, 0, 74, 107
2, 222840, Note_on_c, 0, 70, 79
2, 222840, Note_on_c, 0, 67, 69
2, 223020, Note_on_c, 0, 70, 0
2, 223020, Note_on_c, 0, 68, 69
2, 223200, Note_on_c, 0, 68, 0
2, 223200, Note_on_c, 0, 67, 0
2, 223200, Note_on_c, 0, 69, 79
2, 223200, Note_on_c, 0, 66, 72
2, 223560, Note_on_c, 0, 66, 0
2, 223560, Note_on_c, 0, 69, 0
2, 223560, Note_on_c, 0, 74, 0
2, 223560, Note_on_c, 0, 73, 110
2, 223560, Note_on_c, 0, 69, 75
2, 223560, Note_on_c, 0, 66, 73
2, 223740, Note_on_c, 0, 69, 0
2, 223740, Note_on_c, 0, 67, 75
2, 223920, Note_on_c, 0, 67, 0
2, 223920, Note_on_c, 0, 66, 0
2, 223920, Note_on_c, 0, 68, 81
2, 223920, Note_on_c, 0, 65, 72
2, 224193, Note_on_c, 0, 73, 0
2, 224280, Note_on_c, 0, 65, 0
2, 224280, Note_on_c, 0, 68, 0
2, 224280, Note_on_c, 0, 72, 95
2, 224280, Note_on_c, 0, 68, 74
2, 224280, Note_on_c, 0, 65, 75
2, 224460, Note_on_c, 0, 72, 0
2, 224460, Note_on_c, 0, 71, 98
2, 224640, Note_on_c, 0, 71, 0
2, 224640, Note_on_c, 0, 65, 0
2, 224640, Note_on_c, 0, 68, 0
2, 224640, Note_on_c, 0, 72, 108
2, 224640, Note_on_c, 0, 60, 68
2, 224640, Note_on_c, 0, 64, 68
2, 225000, Note_on_c, 0, 64, 0
2, 225000, Note_on_c, 0, 60, 0
2, 225000, Note_on_c, 0, 72, 0
2, 225000, Note_on_c, 0, 71, 96
2, 225000, Note_on_c, 0, 63, 69
2, 225179, Note_on_c, 0, 63, 0
2, 225180, Note_on_c, 0, 71, 0
2, 225180, Note_on_c, 0, 70, 96
2, 225360, Note_on_c, 0, 70, 0
2, 225360, Note_on_c, 0, 71, 117
2, 225360, Note_on_c, 0, 64, 78
2, 225539, Note_on_c, 0, 64, 0
2, 225720, Note_on_c, 0, 66, 82
2, 225899, Note_on_c, 0, 66, 0
2, 226080, Note_on_c, 0, 67, 77
2, 226259, Note_on_c, 0, 67, 0
2, 226440, Note_on_c, 0, 71, 0
2, 226440, Note_on_c, 0, 69, 105
2, 226440, Note_on_c, 0, 61, 60
2, 226598, Note_on_c, 0, 69, 0
2, 226619, Note_on_c, 0, 61, 0
2, 226620, Note_on_c, 0, 68, 92
2, 226800, Note_on_c, 0, 68, 0
2, 226800, Note_on_c, 0, 69, 110
2, 226800, Note_on_c, 0, 62, 75
2, 226979, Note_on_c, 0, 62, 0
2, 227160, Note_on_c, 0, 64, 80
2, 227339, Note_on_c, 0, 64, 0
2, 227520, Note_on_c, 0, 65, 67
2, 227699, Note_on_c, 0, 65, 0
2, 227880, Note_on_c, 0, 69, 0
2, 227880, Note_on_c, 0, 67, 110
2, 227880, Note_on_c, 0, 59, 57
2, 228038, Note_on_c, 0, 67, 0
2, 228059, Note_on_c, 0, 59, 0
2, 228060, Note_on_c, 0, 66, 97
2, 228240, Note_on_c, 0, 66, 0
2, 228240, Note_on_c, 0, 67, 104
2, 228240, Note_on_c, 0, 60, 60
2, 228419, Note_on_c, 0, 60, 0
2, 228600, Note_on_c, 0, 62, 66
2, 228779, Note_on_c, 0, 62, 0
2, 228960, Note_on_c, 0, 64, 67
2, 229139, Note_on_c, 0, 64, 0
2, 229320, Note_on_c, 0, 57, 52
2, 229499, Note_on_c, 0, 57, 0
2, 229680, Note_on_c, 0, 67, 0
2, 229680, Note_on_c, 0, 65, 96
2, 229680, Note_on_c, 0, 59, 63
2, 229859, Note_on_c, 0, 59, 0
2, 229860, Note_on_c, 0, 65, 0
2, 229860, Note_on_c, 0, 64, 94
2, 230040, Note_on_c, 0, 64, 0
2, 230040, Note_on_c, 0, 65, 105
2, 230040, Note_on_c, 0, 57, 61
2, 230219, Note_on_c, 0, 57, 0
2, 230400, Note_on_c, 0, 62, 67
2, 230760, Note_on_c, 0, 62, 0
2, 230760, Note_on_c, 0, 65, 0
2, 230760, Note_on_c, 0, 64, 91
2, 230760, Note_on_c, 0, 56, 53
2, 230939, Note_on_c, 0, 56, 0
2, 230940, Note_on_c, 0, 64, 0
2, 230940, Note_on_c, 0, 62, 90
2, 231120, Note_on_c, 0, 62, 0
2, 231120, Note_on_c, 0, 64, 117
2, 231120, Note_on_c, 0, 57, 60
2, 231299, Note_on_c, 0, 57, 0
2, 231480, Note_on_c, 0, 56, 71
2, 231480, Note_on_c, 0, 62, 71
2, 231659, Note_on_c, 0, 62, 0
2, 231659, Note_on_c, 0, 56, 0
2, 231840, Note_on_c, 0, 57, 58
2, 231840, Note_on_c, 0, 60, 58
2, 232019, Note_on_c, 0, 60, 0
2, 232019, Note_on_c, 0, 57, 0
2, 232200, Note_on_c, 0, 64, 0
2, 232200, Note_on_c, 0, 62, 107
2, 232200, Note_on_c, 0, 54, 57
2, 232358, Note_on_c, 0, 62, 0
2, 232379, Note_on_c, 0, 54, 0
2, 232380, Note_on_c, 0, 60, 95
2, 232560, Note_on_c, 0, 60, 0
2, 232560, Note_on_c, 0, 62, 103
2, 232560, Note_on_c, 0, 55, 64
2, 232560, Note_on_c, 0, 59, 64
2, 232739, Note_on_c, 0, 59, 0
2, 232739, Note_on_c, 0, 55, 0
2, 232920, Note_on_c, 0, 58, 60
2, 233099, Note_on_c, 0, 58, 0
2, 233280, Note_on_c, 0, 62, 0
2, 233280, Note_on_c, 0, 60, 103
2, 233280, Note_on_c, 0, 57, 61
2, 233459, Note_on_c, 0, 57, 0
2, 233460, Note_on_c, 0, 60, 0
2, 233460, Note_on_c, 0, 59, 102
2, 233640, Note_on_c, 0, 59, 0
2, 233640, Note_on_c, 0, 60, 101
2, 233640, Note_on_c, 0, 56, 59
2, 233819, Note_on_c, 0, 56, 0
2, 234000, Note_on_c, 0, 57, 57
2, 234179, Note_on_c, 0, 57, 0
2, 234360, Note_on_c, 0, 53, 56
2, 234539, Note_on_c, 0, 53, 0
2, 234720, Note_on_c, 0, 56, 54
2, 234899, Note_on_c, 0, 56, 0
2, 235080, Note_on_c, 0, 55, 53
2, 235259, Note_on_c, 0, 55, 0
2, 235440, Note_on_c, 0, 56, 51
2, 235619, Note_on_c, 0, 56, 0
2, 235800, Note_on_c, 0, 52, 50
2, 235979, Note_on_c, 0, 52, 0
2, 236160, Note_on_c, 0, 57, 48
2, 236339, Note_on_c, 0, 57, 0
2, 236520, Note_on_c, 0, 53, 46
2, 236699, Note_on_c, 0, 53, 0
2, 236880, Note_on_c, 0, 57, 45
2, 237059, Note_on_c, 0, 57, 0
2, 237240, Note_on_c, 0, 53, 43
2, 237419, Note_on_c, 0, 53, 0
2, 237600, Note_on_c, 0, 60, 0
2, 237600, Note_on_c, 0, 59, 83
2, 237600, Note_on_c, 0, 57, 42
2, 237779, Note_on_c, 0, 57, 0
2, 237960, Note_on_c, 0, 56, 40
2, 238139, Note_on_c, 0, 56, 0
2, 238320, Note_on_c, 0, 56, 38
2, 238499, Note_on_c, 0, 56, 0
2, 238680, Note_on_c, 0, 55, 37
2, 238859, Note_on_c, 0, 55, 0
2, 239040, Note_on_c, 0, 59, 0
2, 239040, Note_on_c, 0, 60, 77
2, 239040, Note_on_c, 0, 55, 35
2, 239400, Note_on_c, 0, 55, 0
2, 240120, Note_on_c, 0, 60, 0
2, 240120, Note_on_c, 0, 60, 65
2, 240300, Note_on_c, 0, 60, 0
2, 240300, Note_on_c, 0, 62, 77
2, 240480, Note_on_c, 0, 62, 0
2, 240480, Note_on_c, 0, 60, 28
2, 240840, Note_on_c, 0, 69, 68
2, 240840, Note_on_c, 0, 72, 68
2, 240840, Note_on_c, 0, 74, 68
2, 240840, Note_on_c, 0, 62, 70
2, 241019, Note_on_c, 0, 62, 0
2, 241019, Note_on_c, 0, 72, 0
2, 241019, Note_on_c, 0, 74, 0
2, 241019, Note_on_c, 0, 69, 0
2, 241200, Note_on_c, 0, 69, 80
2, 241200, Note_on_c, 0, 72, 80
2, 241200, Note_on_c, 0, 76, 80
2, 241200, Note_on_c, 0, 64, 84
2, 241379, Note_on_c, 0, 64, 0
2, 241379, Note_on_c, 0, 72, 0
2, 241379, Note_on_c, 0, 76, 0
2, 241379, Note_on_c, 0, 69, 0
2, 241560, Note_on_c, 0, 65, 66
2, 241560, Note_on_c, 0, 67, 66
2, 241560, Note_on_c, 0, 71, 66
2, 241739, Note_on_c, 0, 71, 0
2, 241739, Note_on_c, 0, 67, 0
2, 241739, Note_on_c, 0, 65, 0
2, 241920, Note_on_c, 0, 60, 0
2, 241920, Note_on_c, 0, 64, 77
2, 241920, Note_on_c, 0, 67, 77
2, 241920, Note_on_c, 0, 72, 77
2, 241920, Note_on_c, 0, 60, 66
2, 242099, Note_on_c, 0, 72, 0
2, 242099, Note_on_c, 0, 64, 0
2, 242099, Note_on_c, 0, 67, 0
2, 243000, Note_on_c, 0, 60, 0
2, 243000, Note_on_c, 0, 60, 75
2, 243180, Note_on_c, 0, 60, 0
2, 243180, Note_on_c, 0, 62, 77
2, 243360, Note_on_c, 0, 62, 0
2, 243360, Note_on_c, 0, 60, 28
2, 243720, Note_on_c, 0, 62, 57
2, 243899, Note_on_c, 0, 62, 0
2, 244080, Note_on_c, 0, 64, 79
2, 244259, Note_on_c, 0, 64, 0
2, 244440, Note_on_c, 0, 60, 0
2, 244800, Note_on_c, 0, 60, 36
2, 245160, Note_on_c, 0, 62, 63
2, 245339, Note_on_c, 0, 62, 0
2, 245520, Note_on_c, 0, 68, 67
2, 245520, Note_on_c, 0, 72, 67
2, 245520, Note_on_c, 0, 74, 67
2, 245520, Note_on_c, 0, 64, 75
2, 245699, Note_on_c, 0, 64, 0
2, 245699, Note_on_c, 0, 72, 0
2, 245699, Note_on_c, 0, 74, 0
2, 245699, Note_on_c, 0, 68, 0
2, 245880, Note_on_c, 0, 68, 80
2, 245880, Note_on_c, 0, 72, 80
2, 245880, Note_on_c, 0, 76, 80
2, 246059, Note_on_c, 0, 76, 0
2, 246059, Note_on_c, 0, 72, 0
2, 246059, Note_on_c, 0, 68, 0
2, 246960, Note_on_c, 0, 68, 65
2, 246960, Note_on_c, 0, 72, 65
2, 247139, Note_on_c, 0, 72, 0
2, 247139, Note_on_c, 0, 68, 0
2, 247320, Note_on_c, 0, 62, 76
2, 247320, Note_on_c, 0, 68, 76
2, 247320, Note_on_c, 0, 72, 76
2, 247320, Note_on_c, 0, 74, 76
2, 247499, Note_on_c, 0, 74, 0
2, 247499, Note_on_c, 0, 68, 0
2, 247499, Note_on_c, 0, 72, 0
2, 247499, Note_on_c, 0, 62, 0
2, 248400, Note_on_c, 0, 68, 64
2, 248400, Note_on_c, 0, 71, 64
2, 248579, Note_on_c, 0, 71, 0
2, 248579, Note_on_c, 0, 68, 0
2, 248760, Note_on_c, 0, 68, 76
2, 248760, Note_on_c, 0, 72, 76
2, 248939, Note_on_c, 0, 72, 0
2, 248939, Note_on_c, 0, 68, 0
2, 249480, Note_on_c, 0, 60, 0
2, 249480, Note_on_c, 0, 65, 27
2, 249480, Note_on_c, 0, 69, 27
2, 249480, Note_on_c, 0, 60, 44
2, 249659, Note_on_c, 0, 69, 0
2, 249659, Note_on_c, 0, 65, 0
2, 249660, Note_on_c, 0, 60, 0
2, 249660, Note_on_c, 0, 62, 54
2, 249840, Note_on_c, 0, 70, 32
2, 249840, Note_on_c, 0, 65, 46
2, 249840, Note_on_c, 0, 58, 56
2, 250019, Note_on_c, 0, 70, 0
2, 250020, Note_on_c, 0, 65, 0
2, 250020, Note_on_c, 0, 67, 53
2, 250200, Note_on_c, 0, 67, 0
2, 250200, Note_on_c, 0, 62, 0
2, 250200, Note_on_c, 0, 58, 0
2, 250200, Note_on_c, 0, 68, 30
2, 250200, Note_on_c, 0, 62, 49
2, 250200, Note_on_c, 0, 59, 45
2, 250379, Note_on_c, 0, 59, 0
2, 250379, Note_on_c, 0, 68, 0
2, 250380, Note_on_c, 0, 62, 0
2, 250380, Note_on_c, 0, 64, 51
2, 250560, Note_on_c, 0, 64, 0
2, 250560, Note_on_c, 0, 64, 37
2, 250560, Note_on_c, 0, 69, 37
2, 250560, Note_on_c, 0, 60, 52
2, 250739, Note_on_c, 0, 60, 0
2, 250739, Note_on_c, 0, 69, 0
2, 250739, Note_on_c, 0, 64, 0
2, 250920, Note_on_c, 0, 60, 34
2, 251009, Note_on_c, 0, 60, 0
2, 251100, Note_on_c, 0, 60, 42
2, 251189, Note_on_c, 0, 60, 0
2, 251280, Note_on_c, 0, 60, 44
2, 251369, Note_on_c, 0, 60, 0
2, 251460, Note_on_c, 0, 60, 43
2, 251549, Note_on_c, 0, 60, 0
2, 251640, Note_on_c, 0, 60, 41
2, 251729, Note_on_c, 0, 60, 0
2, 251820, Note_on_c, 0, 60, 42
2, 251909, Note_on_c, 0, 60, 0
2, 252000, Note_on_c, 0, 57, 35
2, 252000, Note_on_c, 0, 60, 37
2, 252144, Note_on_c, 0, 60, 0
2, 252144, Note_on_c, 0, 57, 0
2, 252180, Note_on_c, 0, 57, 33
2, 252180, Note_on_c, 0, 60, 36
2, 252324, Note_on_c, 0, 60, 0
2, 252324, Note_on_c, 0, 57, 0
2, 252360, Note_on_c, 0, 57, 38
2, 252360, Note_on_c, 0, 60, 40
2, 252504, Note_on_c, 0, 60, 0
2, 252504, Note_on_c, 0, 57, 0
2, 252540, Note_on_c, 0, 57, 37
2, 252540, Note_on_c, 0, 60, 33
2, 252684, Note_on_c, 0, 60, 0
2, 252684, Note_on_c, 0, 57, 0
2, 252720, Note_on_c, 0, 57, 42
2, 252720, Note_on_c, 0, 60, 38
2, 252864, Note_on_c, 0, 60, 0
2, 252864, Note_on_c, 0, 57, 0
2, 252900, Note_on_c, 0, 57, 37
2, 252900, Note_on_c, 0, 60, 36
2, 253044, Note_on_c, 0, 60, 0
2, 253044, Note_on_c, 0, 57, 0
2, 253080, Note_on_c, 0, 57, 43
2, 253080, Note_on_c, 0, 60, 43
2, 253224, Note_on_c, 0, 60, 0
2, 253224, Note_on_c, 0, 57, 0
2, 253260, Note_on_c, 0, 57, 41
2, 253260, Note_on_c, 0, 60, 40
2, 253404, Note_on_c, 0, 60, 0
2, 253404, Note_on_c, 0, 57, 0
2, 253440, Note_on_c, 0, 57, 38
2, 253440, Note_on_c, 0, 60, 38
2, 253619, Note_on_c, 0, 60, 0
2, 253619, Note_on_c, 0, 57, 0
2, 253800, Note_on_c, 0, 57, 39
2, 253800, Note_on_c, 0, 60, 39
2, 253889, Note_on_c, 0, 60, 0
2, 253889, Note_on_c, 0, 57, 0
2, 253980, Note_on_c, 0, 57, 37
2, 253980, Note_on_c, 0, 60, 37
2, 254069, Note_on_c, 0, 60, 0
2, 254069, Note_on_c, 0, 57, 0
2, 254160, Note_on_c, 0, 57, 41
2, 254160, Note_on_c, 0, 60, 41
2, 254339, Note_on_c, 0, 60, 0
2, 254339, Note_on_c, 0, 57, 0
2, 255240, Note_on_c, 0, 57, 32
2, 255240, Note_on_c, 0, 60, 32
2, 255329, Note_on_c, 0, 60, 0
2, 255329, Note_on_c, 0, 57, 0
2, 255420, Note_on_c, 0, 57, 37
2, 255420, Note_on_c, 0, 60, 37
2, 255509, Note_on_c, 0, 60, 0
2, 255509, Note_on_c, 0, 57, 0
2, 255600, Note_on_c, 0, 57, 40
2, 255600, Note_on_c, 0, 60, 40
2, 255779, Note_on_c, 0, 60, 0
2, 255779, Note_on_c, 0, 57, 0
2, 256680, Note_on_c, 0, 57, 33
2, 256680, Note_on_c, 0, 60, 33
2, 256769, Note_on_c, 0, 60, 0
2, 256769, Note_on_c, 0, 57, 0
2, 256860, Note_on_c, 0, 57, 39
2, 256860, Note_on_c, 0, 60, 39
2, 256949, Note_on_c, 0, 60, 0
2, 256949, Note_on_c, 0, 57, 0
2, 257040, Note_on_c, 0, 57, 41
2, 257040, Note_on_c, 0, 60, 41
2, 257219, Note_on_c, 0, 60, 0
2, 257219, Note_on_c, 0, 57, 0
2, 259920, Note_on_c, 0, 57, 37
2, 259920, Note_on_c, 0, 60, 37
2, 260009, Note_on_c, 0, 60, 0
2, 260009, Note_on_c, 0, 57, 0
2, 260100, Note_on_c, 0, 57, 43
2, 260100, Note_on_c, 0, 60, 43
2, 260189, Note_on_c, 0, 60, 0
2, 260189, Note_on_c, 0, 57, 0
2, 260280, Note_on_c, 0, 57, 39
2, 260280, Note_on_c, 0, 60, 39
2, 260459, Note_on_c, 0, 60, 0
2, 260459, Note_on_c, 0, 57, 0
2, 262800, Note_on_c, 0, 57, 35
2, 262800, Note_on_c, 0, 60, 35
2, 262889, Note_on_c, 0, 60, 0
2, 262889, Note_on_c, 0, 57, 0
2, 262980, Note_on_c, 0, 57, 40
2, 262980, Note_on_c, 0, 60, 40
2, 263069, Note_on_c, 0, 60, 0
2, 263069, Note_on_c, 0, 57, 0
2, 263160, Note_on_c, 0, 57, 40
2, 263160, Note_on_c, 0, 60, 40
2, 263339, Note_on_c, 0, 60, 0
2, 263339, Note_on_c, 0, 57, 0
2, 266400, Note_on_c, 0, 57, 35
2, 266400, Note_on_c, 0, 60, 35
2, 266489, Note_on_c, 0, 60, 0
2, 266489, Note_on_c, 0, 57, 0
2, 266580, Note_on_c, 0, 57, 42
2, 266580, Note_on_c, 0, 60, 42
2, 266669, Note_on_c, 0, 60, 0
2, 266669, Note_on_c, 0, 57, 0
2, 266760, Note_on_c, 0, 57, 40
2, 266760, Note_on_c, 0, 60, 40
2, 266939, Note_on_c, 0, 60, 0
2, 266939, Note_on_c, 0, 57, 0
2, 268560, Note_on_c, 0, 57, 36
2, 268560, Note_on_c, 0, 60, 36
2, 268739, Note_on_c, 0, 60, 0
2, 268739, Note_on_c, 0, 57, 0
2, 270720, Note_on_c, 0, 78, 53
2, 270720, Note_on_c, 0, 83, 53
2, 270720, Note_on_c, 0, 90, 53
2, 270720, Note_on_c, 0, 66, 63
2, 270720, Note_on_c, 0, 69, 63
2, 270720, Note_on_c, 0, 71, 63
2, 270900, Note_on_c, 0, 71, 0
2, 270900, Note_on_c, 0, 83, 0
2, 270900, Note_on_c, 0, 90, 0
2, 270900, Note_on_c, 0, 78, 0
2, 270900, Note_on_c, 0, 69, 0
2, 270900, Note_on_c, 0, 66, 0
2, 270900, Note_on_c, 0, 82, 65
2, 270989, Note_on_c, 0, 82, 0
2, 271080, Note_on_c, 0, 83, 88
2, 271169, Note_on_c, 0, 83, 0
2, 271260, Note_on_c, 0, 80, 75
2, 271349, Note_on_c, 0, 80, 0
2, 271440, Note_on_c, 0, 81, 87
2, 271529, Note_on_c, 0, 81, 0
2, 271620, Note_on_c, 0, 78, 83
2, 271709, Note_on_c, 0, 78, 0
2, 271800, Note_on_c, 0, 79, 90
2, 271889, Note_on_c, 0, 79, 0
2, 271980, Note_on_c, 0, 73, 77
2, 272069, Note_on_c, 0, 73, 0
2, 272160, Note_on_c, 0, 75, 91
2, 272249, Note_on_c, 0, 75, 0
2, 272340, Note_on_c, 0, 82, 73
2, 272429, Note_on_c, 0, 82, 0
2, 272520, Note_on_c, 0, 83, 90
2, 272609, Note_on_c, 0, 83, 0
2, 272700, Note_on_c, 0, 80, 75
2, 272789, Note_on_c, 0, 80, 0
2, 272880, Note_on_c, 0, 81, 91
2, 272969, Note_on_c, 0, 81, 0
2, 273060, Note_on_c, 0, 78, 82
2, 273149, Note_on_c, 0, 78, 0
2, 273240, Note_on_c, 0, 79, 95
2, 273329, Note_on_c, 0, 79, 0
2, 273420, Note_on_c, 0, 76, 75
2, 273509, Note_on_c, 0, 76, 0
2, 273600, Note_on_c, 0, 78, 92
2, 273689, Note_on_c, 0, 78, 0
2, 273780, Note_on_c, 0, 82, 79
2, 273869, Note_on_c, 0, 82, 0
2, 273960, Note_on_c, 0, 83, 89
2, 274049, Note_on_c, 0, 83, 0
2, 274140, Note_on_c, 0, 78, 76
2, 274229, Note_on_c, 0, 78, 0
2, 274320, Note_on_c, 0, 79, 94
2, 274409, Note_on_c, 0, 79, 0
2, 274500, Note_on_c, 0, 82, 76
2, 274589, Note_on_c, 0, 82, 0
2, 274680, Note_on_c, 0, 83, 90
2, 274769, Note_on_c, 0, 83, 0
2, 274860, Note_on_c, 0, 79, 78
2, 274949, Note_on_c, 0, 79, 0
2, 275040, Note_on_c, 0, 81, 96
2, 275129, Note_on_c, 0, 81, 0
2, 275220, Note_on_c, 0, 82, 75
2, 275309, Note_on_c, 0, 82, 0
2, 275400, Note_on_c, 0, 83, 87
2, 275489, Note_on_c, 0, 83, 0
2, 275580, Note_on_c, 0, 81, 75
2, 275669, Note_on_c, 0, 81, 0
2, 275760, Note_on_c, 0, 82, 91
2, 275849, Note_on_c, 0, 82, 0
2, 275940, Note_on_c, 0, 83, 80
2, 276029, Note_on_c, 0, 83, 0
2, 276120, Note_on_c, 0, 83, 87
2, 276209, Note_on_c, 0, 83, 0
2, 276300, Note_on_c, 0, 82, 78
2, 276389, Note_on_c, 0, 82, 0
2, 276480, Note_on_c, 0, 83, 73
2, 276480, Note_on_c, 0, 71, 62
2, 276569, Note_on_c, 0, 71, 0
2, 276569, Note_on_c, 0, 83, 0
2, 276660, Note_on_c, 0, 82, 80
2, 276749, Note_on_c, 0, 82, 0
2, 276840, Note_on_c, 0, 83, 92
2, 276929, Note_on_c, 0, 83, 0
2, 277020, Note_on_c, 0, 80, 78
2, 277020, Note_on_c, 0, 82, 78
2, 277109, Note_on_c, 0, 82, 0
2, 277109, Note_on_c, 0, 80, 0
2, 277200, Note_on_c, 0, 81, 98
2, 277200, Note_on_c, 0, 83, 98
2, 277289, Note_on_c, 0, 83, 0
2, 277289, Note_on_c, 0, 81, 0
2, 277380, Note_on_c, 0, 78, 74
2, 277469, Note_on_c, 0, 78, 0
2, 277560, Note_on_c, 0, 79, 91
2, 277649, Note_on_c, 0, 79, 0
2, 277740, Note_on_c, 0, 70, 71
2, 277740, Note_on_c, 0, 73, 71
2, 277829, Note_on_c, 0, 73, 0
2, 277829, Note_on_c, 0, 70, 0
2, 277920, Note_on_c, 0, 71, 89
2, 277920, Note_on_c, 0, 75, 89
2, 278009, Note_on_c, 0, 75, 0
2, 278009, Note_on_c, 0, 71, 0
2, 278100, Note_on_c, 0, 82, 79
2, 278189, Note_on_c, 0, 82, 0
2, 278280, Note_on_c, 0, 83, 88
2, 278369, Note_on_c, 0, 83, 0
2, 278460, Note_on_c, 0, 80, 84
2, 278460, Note_on_c, 0, 82, 84
2, 278549, Note_on_c, 0, 82, 0
2, 278549, Note_on_c, 0, 80, 0
2, 278640, Note_on_c, 0, 81, 91
2, 278640, Note_on_c, 0, 83, 91
2, 278729, Note_on_c, 0, 83, 0
2, 278729, Note_on_c, 0, 81, 0
2, 278820, Note_on_c, 0, 78, 75
2, 278909, Note_on_c, 0, 78, 0
2, 279000, Note_on_c, 0, 79, 91
2, 279089, Note_on_c, 0, 79, 0
2, 279180, Note_on_c, 0, 73, 76
2, 279180, Note_on_c, 0, 76, 76
2, 279269, Note_on_c, 0, 76, 0
2, 279269, Note_on_c, 0, 73, 0
2, 279360, Note_on_c, 0, 75, 89
2, 279360, Note_on_c, 0, 78, 89
2, 279449, Note_on_c, 0, 78, 0
2, 279449, Note_on_c, 0, 75, 0
2, 279540, Note_on_c, 0, 82, 80
2, 279629, Note_on_c, 0, 82, 0
2, 279720, Note_on_c, 0, 83, 94
2, 279809, Note_on_c, 0, 83, 0
2, 279900, Note_on_c, 0, 75, 78
2, 279900, Note_on_c, 0, 78, 78
2, 279989, Note_on_c, 0, 78, 0
2, 279989, Note_on_c, 0, 75, 0
2, 280080, Note_on_c, 0, 76, 94
2, 280080, Note_on_c, 0, 79, 94
2, 280169, Note_on_c, 0, 79, 0
2, 280169, Note_on_c, 0, 76, 0
2, 280260, Note_on_c, 0, 82, 76
2, 280349, Note_on_c, 0, 82, 0
2, 280440, Note_on_c, 0, 83, 92
2, 280529, Note_on_c, 0, 83, 0
2, 280620, Note_on_c, 0, 76, 80
2, 280620, Note_on_c, 0, 79, 80
2, 280709, Note_on_c, 0, 79, 0
2, 280709, Note_on_c, 0, 76, 0
2, 280800, Note_on_c, 0, 78, 91
2, 280800, Note_on_c, 0, 81, 91
2, 280889, Note_on_c, 0, 81, 0
2, 280889, Note_on_c, 0, 78, 0
2, 280980, Note_on_c, 0, 82, 73
2, 281069, Note_on_c, 0, 82, 0
2, 281160, Note_on_c, 0, 83, 92
2, 281249, Note_on_c, 0, 83, 0
2, 281340, Note_on_c, 0, 78, 77
2, 281340, Note_on_c, 0, 81, 77
2, 281429, Note_on_c, 0, 81, 0
2, 281429, Note_on_c, 0, 78, 0
2, 281520, Note_on_c, 0, 79, 89
2, 281520, Note_on_c, 0, 82, 89
2, 281609, Note_on_c, 0, 82, 0
2, 281609, Note_on_c, 0, 79, 0
2, 281700, Note_on_c, 0, 83, 75
2, 281789, Note_on_c, 0, 83, 0
2, 281880, Note_on_c, 0, 83, 81
2, 281969, Note_on_c, 0, 83, 0
2, 282060, Note_on_c, 0, 79, 83
2, 282060, Note_on_c, 0, 82, 83
2, 282149, Note_on_c, 0, 82, 0
2, 282149, Note_on_c, 0, 79, 0
2, 282240, Note_on_c, 0, 80, 90
2, 282240, Note_on_c, 0, 83, 90
2, 282420, Note_on_c, 0, 83, 0
2, 282420, Note_on_c, 0, 80, 0
2, 282420, Note_on_c, 0, 84, 94
2, 282420, Note_on_c, 0, 79, 70
2, 282600, Note_on_c, 0, 79, 0
2, 282600, Note_on_c, 0, 84, 0
2, 282600, Note_on_c, 0, 86, 93
2, 282600, Note_on_c, 0, 78, 83
2, 282780, Note_on_c, 0, 78, 0
2, 282780, Note_on_c, 0, 86, 0
2, 282780, Note_on_c, 0, 82, 76
2, 282780, Note_on_c, 0, 77, 82
2, 282960, Note_on_c, 0, 77, 0
2, 282960, Note_on_c, 0, 82, 0
2, 282960, Note_on_c, 0, 83, 89
2, 282960, Note_on_c, 0, 76, 83
2, 283140, Note_on_c, 0, 76, 0
2, 283140, Note_on_c, 0, 83, 0
2, 283140, Note_on_c, 0, 80, 74
2, 283140, Note_on_c, 0, 75, 84
2, 283320, Note_on_c, 0, 75, 0
2, 283320, Note_on_c, 0, 80, 0
2, 283320, Note_on_c, 0, 80, 89
2, 283320, Note_on_c, 0, 74, 81
2, 283500, Note_on_c, 0, 74, 0
2, 283500, Note_on_c, 0, 80, 0
2, 283500, Note_on_c, 0, 76, 78
2, 283500, Note_on_c, 0, 64, 61
2, 283680, Note_on_c, 0, 64, 0
2, 283680, Note_on_c, 0, 76, 0
2, 283680, Note_on_c, 0, 78, 99
2, 283680, Note_on_c, 0, 81, 99
2, 283860, Note_on_c, 0, 81, 0
2, 283860, Note_on_c, 0, 78, 0
2, 283860, Note_on_c, 0, 83, 93
2, 283860, Note_on_c, 0, 77, 74
2, 284040, Note_on_c, 0, 77, 0
2, 284040, Note_on_c, 0, 83, 0
2, 284040, Note_on_c, 0, 84, 93
2, 284040, Note_on_c, 0, 76, 77
2, 284220, Note_on_c, 0, 76, 0
2, 284220, Note_on_c, 0, 84, 0
2, 284220, Note_on_c, 0, 80, 79
2, 284220, Note_on_c, 0, 75, 78
2, 284400, Note_on_c, 0, 75, 0
2, 284400, Note_on_c, 0, 80, 0
2, 284400, Note_on_c, 0, 81, 86
2, 284400, Note_on_c, 0, 74, 82
2, 284580, Note_on_c, 0, 74, 0
2, 284580, Note_on_c, 0, 81, 0
2, 284580, Note_on_c, 0, 77, 77
2, 284580, Note_on_c, 0, 73, 81
2, 284760, Note_on_c, 0, 73, 0
2, 284760, Note_on_c, 0, 77, 0
2, 284760, Note_on_c, 0, 78, 94
2, 284760, Note_on_c, 0, 72, 84
2, 284940, Note_on_c, 0, 72, 0
2, 284940, Note_on_c, 0, 78, 0
2, 284940, Note_on_c, 0, 74, 76
2, 284940, Note_on_c, 0, 62, 60
2, 285120, Note_on_c, 0, 62, 0
2, 285120, Note_on_c, 0, 74, 0
2, 285120, Note_on_c, 0, 79, 112
2, 285120, Note_on_c, 0, 83, 112
2, 285300, Note_on_c, 0, 83, 0
2, 285300, Note_on_c, 0, 79, 0
2, 285300, Note_on_c, 0, 82, 82
2, 285300, Note_on_c, 0, 72, 80
2, 285480, Note_on_c, 0, 72, 0
2, 285480, Note_on_c, 0, 82, 0
2, 285480, Note_on_c, 0, 83, 91
2, 285480, Note_on_c, 0, 73, 89
2, 285660, Note_on_c, 0, 83, 0
2, 285660, Note_on_c, 0, 79, 79
2, 285840, Note_on_c, 0, 79, 0
2, 285840, Note_on_c, 0, 73, 0
2, 285840, Note_on_c, 0, 81, 94
2, 285840, Note_on_c, 0, 74, 89
2, 286020, Note_on_c, 0, 74, 0
2, 286020, Note_on_c, 0, 81, 0
2, 286020, Note_on_c, 0, 78, 82
2, 286020, Note_on_c, 0, 75, 92
2, 286200, Note_on_c, 0, 75, 0
2, 286200, Note_on_c, 0, 78, 0
2, 286200, Note_on_c, 0, 79, 88
2, 286200, Note_on_c, 0, 76, 92
2, 286380, Note_on_c, 0, 76, 0
2, 286380, Note_on_c, 0, 79, 0
2, 286380, Note_on_c, 0, 77, 81
2, 286380, Note_on_c, 0, 74, 82
2, 286560, Note_on_c, 0, 74, 0
2, 286560, Note_on_c, 0, 77, 0
2, 286560, Note_on_c, 0, 78, 93
2, 286560, Note_on_c, 0, 75, 95
2, 286920, Note_on_c, 0, 75, 0
2, 286920, Note_on_c, 0, 78, 0
2, 287100, Note_on_c, 0, 74, 80
2, 287100, Note_on_c, 0, 77, 80
2, 287280, Note_on_c, 0, 77, 0
2, 287280, Note_on_c, 0, 74, 0
2, 287280, Note_on_c, 0, 75, 88
2, 287280, Note_on_c, 0, 78, 88
2, 287460, Note_on_c, 0, 78, 0
2, 287460, Note_on_c, 0, 75, 0
2, 287820, Note_on_c, 0, 70, 80
2, 288000, Note_on_c, 0, 70, 0
2, 288000, Note_on_c, 0, 71, 91
2, 288180, Note_on_c, 0, 71, 0
2, 288540, Note_on_c, 0, 74, 75
2, 288540, Note_on_c, 0, 77, 75
2, 288720, Note_on_c, 0, 77, 0
2, 288720, Note_on_c, 0, 74, 0
2, 288720, Note_on_c, 0, 75, 89
2, 288720, Note_on_c, 0, 78, 89
2, 288900, Note_on_c, 0, 78, 0
2, 288900, Note_on_c, 0, 75, 0
2, 289260, Note_on_c, 0, 70, 77
2, 289260, Note_on_c, 0, 73, 77
2, 289440, Note_on_c, 0, 73, 0
2, 289440, Note_on_c, 0, 70, 0
2, 289440, Note_on_c, 0, 71, 94
2, 289440, Note_on_c, 0, 75, 94
2, 289620, Note_on_c, 0, 75, 0
2, 289620, Note_on_c, 0, 71, 0
2, 289980, Note_on_c, 0, 75, 74
2, 290160, Note_on_c, 0, 75, 0
2, 290160, Note_on_c, 0, 76, 93
2, 290340, Note_on_c, 0, 76, 0
2, 290700, Note_on_c, 0, 73, 80
2, 290700, Note_on_c, 0, 76, 80
2, 290880, Note_on_c, 0, 76, 0
2, 290880, Note_on_c, 0, 73, 0
2, 290880, Note_on_c, 0, 74, 91
2, 290880, Note_on_c, 0, 77, 91
2, 291060, Note_on_c, 0, 77, 0
2, 291060, Note_on_c, 0, 74, 0
2, 291420, Note_on_c, 0, 74, 80
2, 291420, Note_on_c, 0, 77, 80
2, 291600, Note_on_c, 0, 77, 0
2, 291600, Note_on_c, 0, 74, 0
2, 291600, Note_on_c, 0, 75, 91
2, 291600, Note_on_c, 0, 78, 91
2, 291780, Note_on_c, 0, 78, 0
2, 291780, Note_on_c, 0, 75, 0
2, 292140, Note_on_c, 0, 78, 80
2, 292140, Note_on_c, 0, 72, 74
2, 292320, Note_on_c, 0, 72, 0
2, 292320, Note_on_c, 0, 78, 0
2, 292320, Note_on_c, 0, 80, 89
2, 292320, Note_on_c, 0, 71, 79
2, 292500, Note_on_c, 0, 71, 0
2, 292500, Note_on_c, 0, 80, 0
2, 292500, Note_on_c, 0, 75, 100
2, 292680, Note_on_c, 0, 75, 0
2, 292680, Note_on_c, 0, 76, 91
2, 292860, Note_on_c, 0, 76, 0
2, 292860, Note_on_c, 0, 79, 75
2, 292860, Note_on_c, 0, 82, 75
2, 292860, Note_on_c, 0, 73, 86
2, 292860, Note_on_c, 0, 75, 86
2, 293040, Note_on_c, 0, 75, 0
2, 293040, Note_on_c, 0, 79, 0
2, 293040, Note_on_c, 0, 82, 0
2, 293040, Note_on_c, 0, 73, 0
2, 293040, Note_on_c, 0, 80, 90
2, 293040, Note_on_c, 0, 83, 90
2, 293040, Note_on_c, 0, 74, 95
2, 293040, Note_on_c, 0, 76, 95
2, 293220, Note_on_c, 0, 76, 0
2, 293220, Note_on_c, 0, 80, 0
2, 293220, Note_on_c, 0, 83, 0
2, 293220, Note_on_c, 0, 74, 0
2, 293580, Note_on_c, 0, 78, 77
2, 293580, Note_on_c, 0, 72, 81
2, 293760, Note_on_c, 0, 72, 0
2, 293760, Note_on_c, 0, 78, 0
2, 293760, Note_on_c, 0, 80, 93
2, 293760, Note_on_c, 0, 71, 83
2, 293940, Note_on_c, 0, 71, 0
2, 293940, Note_on_c, 0, 80, 0
2, 293940, Note_on_c, 0, 75, 100
2, 294120, Note_on_c, 0, 75, 0
2, 294120, Note_on_c, 0, 76, 94
2, 294300, Note_on_c, 0, 76, 0
2, 294300, Note_on_c, 0, 79, 75
2, 294300, Note_on_c, 0, 82, 75
2, 294300, Note_on_c, 0, 73, 85
2, 294300, Note_on_c, 0, 75, 85
2, 294480, Note_on_c, 0, 75, 0
2, 294480, Note_on_c, 0, 79, 0
2, 294480, Note_on_c, 0, 82, 0
2, 294480, Note_on_c, 0, 73, 0
2, 294480, Note_on_c, 0, 80, 92
2, 294480, Note_on_c, 0, 83, 92
2, 294480, Note_on_c, 0, 74, 94
2, 294480, Note_on_c, 0, 76, 94
2, 294660, Note_on_c, 0, 76, 0
2, 294660, Note_on_c, 0, 80, 0
2, 294660, Note_on_c, 0, 83, 0
2, 294660, Note_on_c, 0, 74, 0
2, 295020, Note_on_c, 0, 78, 76
2, 295020, Note_on_c, 0, 72, 74
2, 295200, Note_on_c, 0, 72, 0
2, 295200, Note_on_c, 0, 78, 0
2, 295200, Note_on_c, 0, 80, 89
2, 295200, Note_on_c, 0, 71, 81
2, 295380, Note_on_c, 0, 71, 0
2, 295380, Note_on_c, 0, 80, 0
2, 295380, Note_on_c, 0, 75, 99
2, 295560, Note_on_c, 0, 75, 0
2, 295560, Note_on_c, 0, 76, 91
2, 295740, Note_on_c, 0, 76, 0
2, 295740, Note_on_c, 0, 75, 77
2, 295740, Note_on_c, 0, 80, 77
2, 295740, Note_on_c, 0, 71, 80
2, 295920, Note_on_c, 0, 71, 0
2, 295920, Note_on_c, 0, 80, 0
2, 295920, Note_on_c, 0, 75, 0
2, 295920, Note_on_c, 0, 76, 92
2, 295920, Note_on_c, 0, 81, 92
2, 295920, Note_on_c, 0, 72, 91
2, 296100, Note_on_c, 0, 72, 0
2, 296100, Note_on_c, 0, 81, 0
2, 296100, Note_on_c, 0, 76, 0
2, 296100, Note_on_c, 0, 75, 98
2, 296280, Note_on_c, 0, 75, 0
2, 296280, Note_on_c, 0, 76, 92
2, 296460, Note_on_c, 0, 76, 0
2, 296460, Note_on_c, 0, 75, 74
2, 296460, Note_on_c, 0, 81, 74
2, 296460, Note_on_c, 0, 72, 74
2, 296640, Note_on_c, 0, 72, 0
2, 296640, Note_on_c, 0, 81, 0
2, 296640, Note_on_c, 0, 75, 0
2, 296640, Note_on_c, 0, 76, 89
2, 296640, Note_on_c, 0, 82, 89
2, 296640, Note_on_c, 0, 73, 92
2, 296820, Note_on_c, 0, 73, 0
2, 296820, Note_on_c, 0, 82, 0
2, 296820, Note_on_c, 0, 76, 0
2, 296820, Note_on_c, 0, 75, 92
2, 297000, Note_on_c, 0, 75, 0
2, 297000, Note_on_c, 0, 76, 94
2, 297180, Note_on_c, 0, 76, 0
2, 297180, Note_on_c, 0, 75, 77
2, 297180, Note_on_c, 0, 82, 77
2, 297180, Note_on_c, 0, 73, 87
2, 297360, Note_on_c, 0, 73, 0
2, 297360, Note_on_c, 0, 82, 0
2, 297360, Note_on_c, 0, 75, 0
2, 297360, Note_on_c, 0, 76, 92
2, 297360, Note_on_c, 0, 83, 92
2, 297360, Note_on_c, 0, 74, 86
2, 297540, Note_on_c, 0, 74, 0
2, 297540, Note_on_c, 0, 83, 0
2, 297540, Note_on_c, 0, 76, 0
2, 297540, Note_on_c, 0, 75, 94
2, 297720, Note_on_c, 0, 75, 0
2, 297720, Note_on_c, 0, 76, 95
2, 297900, Note_on_c, 0, 76, 0
2, 297900, Note_on_c, 0, 83, 76
2, 297900, Note_on_c, 0, 74, 79
2, 298080, Note_on_c, 0, 74, 0
2, 298080, Note_on_c, 0, 83, 0
2, 298080, Note_on_c, 0, 81, 76
2, 298080, Note_on_c, 0, 72, 79
2, 298260, Note_on_c, 0, 72, 0
2, 298260, Note_on_c, 0, 81, 0
2, 298260, Note_on_c, 0, 83, 95
2, 298260, Note_on_c, 0, 77, 101
2, 298440, Note_on_c, 0, 77, 0
2, 298440, Note_on_c, 0, 83, 0
2, 298440, Note_on_c, 0, 84, 89
2, 298440, Note_on_c, 0, 76, 81
2, 298620, Note_on_c, 0, 76, 0
2, 298620, Note_on_c, 0, 84, 0
2, 298620, Note_on_c, 0, 80, 78
2, 298620, Note_on_c, 0, 75, 84
2, 298800, Note_on_c, 0, 75, 0
2, 298800, Note_on_c, 0, 80, 0
2, 298800, Note_on_c, 0, 81, 92
2, 298800, Note_on_c, 0, 74, 80
2, 298980, Note_on_c, 0, 74, 0
2, 298980, Note_on_c, 0, 81, 0
2, 298980, Note_on_c, 0, 77, 76
2, 298980, Note_on_c, 0, 73, 79
2, 299160, Note_on_c, 0, 73, 0
2, 299160, Note_on_c, 0, 77, 0
2, 299160, Note_on_c, 0, 78, 91
2, 299160, Note_on_c, 0, 72, 81
2, 299340, Note_on_c, 0, 72, 0
2, 299340, Note_on_c, 0, 78, 0
2, 299340, Note_on_c, 0, 86, 106
2, 299520, Note_on_c, 0, 86, 0
2, 299520, Note_on_c, 0, 79, 84
2, 299520, Note_on_c, 0, 83, 84
2, 299520, Note_on_c, 0, 74, 79
2, 299700, Note_on_c, 0, 74, 0
2, 299700, Note_on_c, 0, 83, 0
2, 299700, Note_on_c, 0, 79, 0
2, 299700, Note_on_c, 0, 85, 93
2, 299700, Note_on_c, 0, 79, 99
2, 299880, Note_on_c, 0, 79, 0
2, 299880, Note_on_c, 0, 85, 0
2, 299880, Note_on_c, 0, 86, 95
2, 299880, Note_on_c, 0, 78, 86
2, 300060, Note_on_c, 0, 78, 0
2, 300060, Note_on_c, 0, 86, 0
2, 300060, Note_on_c, 0, 82, 77
2, 300060, Note_on_c, 0, 77, 81
2, 300240, Note_on_c, 0, 77, 0
2, 300240, Note_on_c, 0, 82, 0
2, 300240, Note_on_c, 0, 83, 92
2, 300240, Note_on_c, 0, 76, 80
2, 300420, Note_on_c, 0, 76, 0
2, 300420, Note_on_c, 0, 83, 0
2, 300420, Note_on_c, 0, 79, 81
2, 300420, Note_on_c, 0, 75, 78
2, 300600, Note_on_c, 0, 75, 0
2, 300600, Note_on_c, 0, 79, 0
2, 300600, Note_on_c, 0, 80, 88
2, 300600, Note_on_c, 0, 74, 81
2, 300780, Note_on_c, 0, 74, 0
2, 300780, Note_on_c, 0, 80, 0
2, 300780, Note_on_c, 0, 88, 109
2, 300960, Note_on_c, 0, 88, 0
2, 300960, Note_on_c, 0, 81, 83
2, 300960, Note_on_c, 0, 84, 83
2, 300960, Note_on_c, 0, 76, 76
2, 301140, Note_on_c, 0, 76, 0
2, 301140, Note_on_c, 0, 84, 0
2, 301140, Note_on_c, 0, 81, 0
2, 301140, Note_on_c, 0, 83, 101
2, 301140, Note_on_c, 0, 87, 101
2, 301140, Note_on_c, 0, 75, 83
2, 301320, Note_on_c, 0, 75, 0
2, 301320, Note_on_c, 0, 87, 0
2, 301320, Note_on_c, 0, 83, 0
2, 301320, Note_on_c, 0, 84, 91
2, 301320, Note_on_c, 0, 88, 91
2, 301320, Note_on_c, 0, 76, 89
2, 301500, Note_on_c, 0, 76, 0
2, 301500, Note_on_c, 0, 88, 0
2, 301500, Note_on_c, 0, 84, 0
2, 301500, Note_on_c, 0, 82, 83
2, 301500, Note_on_c, 0, 87, 83
2, 301500, Note_on_c, 0, 75, 80
2, 301680, Note_on_c, 0, 75, 0
2, 301680, Note_on_c, 0, 87, 0
2, 301680, Note_on_c, 0, 82, 0
2, 301680, Note_on_c, 0, 83, 87
2, 301680, Note_on_c, 0, 88, 87
2, 301680, Note_on_c, 0, 76, 94
2, 301860, Note_on_c, 0, 76, 0
2, 301860, Note_on_c, 0, 88, 0
2, 301860, Note_on_c, 0, 83, 0
2, 301860, Note_on_c, 0, 87, 88
2, 301860, Note_on_c, 0, 75, 79
2, 302040, Note_on_c, 0, 75, 0
2, 302040, Note_on_c, 0, 87, 0
2, 302040, Note_on_c, 0, 84, 91
2, 302040, Note_on_c, 0, 88, 91
2, 302040, Note_on_c, 0, 76, 87
2, 302220, Note_on_c, 0, 76, 0
2, 302220, Note_on_c, 0, 88, 0
2, 302220, Note_on_c, 0, 84, 0
2, 302220, Note_on_c, 0, 85, 94
2, 302220, Note_on_c, 0, 90, 94
2, 302220, Note_on_c, 0, 73, 96
2, 302220, Note_on_c, 0, 78, 96
2, 302400, Note_on_c, 0, 78, 0
2, 302400, Note_on_c, 0, 85, 0
2, 302400, Note_on_c, 0, 90, 0
2, 302400, Note_on_c, 0, 73, 0
2, 302400, Note_on_c, 0, 83, 88
2, 302400, Note_on_c, 0, 87, 88
2, 302400, Note_on_c, 0, 90, 88
2, 302400, Note_on_c, 0, 75, 90
2, 302400, Note_on_c, 0, 78, 90
2, 302580, Note_on_c, 0, 78, 0
2, 302580, Note_on_c, 0, 75, 0
2, 302760, Note_on_c, 0, 83, 0
2, 302760, Note_on_c, 0, 87, 0
2, 302760, Note_on_c, 0, 90, 0
2, 302940, Note_on_c, 0, 77, 87
2, 302940, Note_on_c, 0, 83, 87
2, 302940, Note_on_c, 0, 71, 87
2, 302940, Note_on_c, 0, 74, 87
2, 303120, Note_on_c, 0, 74, 0
2, 303120, Note_on_c, 0, 77, 0
2, 303120, Note_on_c, 0, 83, 0
2, 303120, Note_on_c, 0, 71, 0
2, 303120, Note_on_c, 0, 78, 88
2, 303120, Note_on_c, 0, 83, 88
2, 303120, Note_on_c, 0, 71, 88
2, 303120, Note_on_c, 0, 75, 88
2, 303300, Note_on_c, 0, 75, 0
2, 303300, Note_on_c, 0, 78, 0
2, 303300, Note_on_c, 0, 83, 0
2, 303300, Note_on_c, 0, 71, 0
2, 303300, Note_on_c, 0, 82, 88
2, 303480, Note_on_c, 0, 82, 0
2, 303480, Note_on_c, 0, 83, 89
2, 303660, Note_on_c, 0, 83, 0
2, 303660, Note_on_c, 0, 84, 89
2, 303660, Note_on_c, 0, 89, 89
2, 303660, Note_on_c, 0, 73, 89
2, 303660, Note_on_c, 0, 76, 89
2, 303660, Note_on_c, 0, 78, 89
2, 303840, Note_on_c, 0, 78, 0
2, 303840, Note_on_c, 0, 73, 0
2, 303840, Note_on_c, 0, 84, 0
2, 303840, Note_on_c, 0, 89, 0
2, 303840, Note_on_c, 0, 76, 0
2, 303840, Note_on_c, 0, 87, 89
2, 303840, Note_on_c, 0, 90, 89
2, 303840, Note_on_c, 0, 75, 89
2, 303840, Note_on_c, 0, 78, 89
2, 304020, Note_on_c, 0, 78, 0
2, 304020, Note_on_c, 0, 75, 0
2, 304200, Note_on_c, 0, 90, 0
2, 304200, Note_on_c, 0, 87, 0
2, 304380, Note_on_c, 0, 77, 91
2, 304380, Note_on_c, 0, 83, 91
2, 304380, Note_on_c, 0, 71, 91
2, 304380, Note_on_c, 0, 74, 91
2, 304560, Note_on_c, 0, 74, 0
2, 304560, Note_on_c, 0, 77, 0
2, 304560, Note_on_c, 0, 83, 0
2, 304560, Note_on_c, 0, 71, 0
2, 304560, Note_on_c, 0, 78, 91
2, 304560, Note_on_c, 0, 83, 91
2, 304560, Note_on_c, 0, 71, 91
2, 304560, Note_on_c, 0, 75, 91
2, 304740, Note_on_c, 0, 75, 0
2, 304740, Note_on_c, 0, 78, 0
2, 304740, Note_on_c, 0, 83, 0
2, 304740, Note_on_c, 0, 71, 0
2, 304740, Note_on_c, 0, 82, 91
2, 304920, Note_on_c, 0, 82, 0
2, 304920, Note_on_c, 0, 83, 92
2, 305100, Note_on_c, 0, 83, 0
2, 305100, Note_on_c, 0, 85, 92
2, 305100, Note_on_c, 0, 89, 92
2, 305100, Note_on_c, 0, 73, 92
2, 305100, Note_on_c, 0, 76, 92
2, 305100, Note_on_c, 0, 78, 92
2, 305280, Note_on_c, 0, 78, 0
2, 305280, Note_on_c, 0, 73, 0
2, 305280, Note_on_c, 0, 85, 0
2, 305280, Note_on_c, 0, 89, 0
2, 305280, Note_on_c, 0, 76, 0
2, 305280, Note_on_c, 0, 86, 93
2, 305280, Note_on_c, 0, 90, 93
2, 305280, Note_on_c, 0, 74, 93
2, 305280, Note_on_c, 0, 78, 93
2, 305460, Note_on_c, 0, 78, 0
2, 305460, Note_on_c, 0, 74, 0
2, 305640, Note_on_c, 0, 90, 0
2, 305640, Note_on_c, 0, 86, 0
2, 305820, Note_on_c, 0, 80, 94
2, 305820, Note_on_c, 0, 86, 94
2, 305820, Note_on_c, 0, 74, 94
2, 305820, Note_on_c, 0, 77, 94
2, 306000, Note_on_c, 0, 77, 0
2, 306000, Note_on_c, 0, 80, 0
2, 306000, Note_on_c, 0, 86, 0
2, 306000, Note_on_c, 0, 74, 0
2, 306000, Note_on_c, 0, 81, 94
2, 306000, Note_on_c, 0, 86, 94
2, 306000, Note_on_c, 0, 74, 94
2, 306000, Note_on_c, 0, 78, 94
2, 306180, Note_on_c, 0, 78, 0
2, 306180, Note_on_c, 0, 81, 0
2, 306180, Note_on_c, 0, 86, 0
2, 306180, Note_on_c, 0, 74, 0
2, 306180, Note_on_c, 0, 85, 95
2, 306360, Note_on_c, 0, 85, 0
2, 306360, Note_on_c, 0, 86, 95
2, 306540, Note_on_c, 0, 86, 0
2, 306540, Note_on_c, 0, 88, 96
2, 306540, Note_on_c, 0, 93, 96
2, 306540, Note_on_c, 0, 73, 96
2, 306540, Note_on_c, 0, 76, 96
2, 306540, Note_on_c, 0, 78, 96
2, 306720, Note_on_c, 0, 78, 0
2, 306720, Note_on_c, 0, 73, 0
2, 306720, Note_on_c, 0, 88, 0
2, 306720, Note_on_c, 0, 93, 0
2, 306720, Note_on_c, 0, 76, 0
2, 306720, Note_on_c, 0, 86, 96
2, 306720, Note_on_c, 0, 90, 96
2, 306720, Note_on_c, 0, 74, 96
2, 306720, Note_on_c, 0, 78, 96
2, 306900, Note_on_c, 0, 78, 0
2, 306900, Note_on_c, 0, 74, 0
2, 307080, Note_on_c, 0, 90, 0
2, 307080, Note_on_c, 0, 86, 0
2, 307260, Note_on_c, 0, 80, 97
2, 307260, Note_on_c, 0, 86, 97
2, 307260, Note_on_c, 0, 74, 97
2, 307260, Note_on_c, 0, 77, 97
2, 307440, Note_on_c, 0, 77, 0
2, 307440, Note_on_c, 0, 80, 0
2, 307440, Note_on_c, 0, 86, 0
2, 307440, Note_on_c, 0, 74, 0
2, 307440, Note_on_c, 0, 81, 98
2, 307440, Note_on_c, 0, 86, 98
2, 307440, Note_on_c, 0, 74, 98
2, 307440, Note_on_c, 0, 78, 98
2, 307620, Note_on_c, 0, 78, 0
2, 307620, Note_on_c, 0, 81, 0
2, 307620, Note_on_c, 0, 86, 0
2, 307620, Note_on_c, 0, 74, 0
2, 307620, Note_on_c, 0, 85, 98
2, 307800, Note_on_c, 0, 85, 0
2, 307800, Note_on_c, 0, 86, 99
2, 307980, Note_on_c, 0, 86, 0
2, 307980, Note_on_c, 0, 80, 99
2, 307980, Note_on_c, 0, 90, 99
2, 307980, Note_on_c, 0, 74, 99
2, 307980, Note_on_c, 0, 78, 99
2, 308160, Note_on_c, 0, 78, 0
2, 308160, Note_on_c, 0, 80, 0
2, 308160, Note_on_c, 0, 90, 0
2, 308160, Note_on_c, 0, 74, 0
2, 308160, Note_on_c, 0, 82, 99
2, 308160, Note_on_c, 0, 90, 99
2, 308160, Note_on_c, 0, 73, 99
2, 308160, Note_on_c, 0, 78, 99
2, 308340, Note_on_c, 0, 78, 0
2, 308340, Note_on_c, 0, 82, 0
2, 308340, Note_on_c, 0, 90, 0
2, 308340, Note_on_c, 0, 73, 0
2, 308340, Note_on_c, 0, 77, 100
2, 308520, Note_on_c, 0, 77, 0
2, 308520, Note_on_c, 0, 78, 100
2, 308700, Note_on_c, 0, 78, 0
2, 308700, Note_on_c, 0, 83, 101
2, 308700, Note_on_c, 0, 74, 101
2, 308700, Note_on_c, 0, 79, 101
2, 308880, Note_on_c, 0, 79, 0
2, 308880, Note_on_c, 0, 74, 0
2, 308880, Note_on_c, 0, 83, 0
2, 308880, Note_on_c, 0, 82, 101
2, 308880, Note_on_c, 0, 77, 101
2, 308880, Note_on_c, 0, 78, 101
2, 309060, Note_on_c, 0, 78, 0
2, 309060, Note_on_c, 0, 77, 0
2, 309060, Note_on_c, 0, 82, 0
2, 309060, Note_on_c, 0, 89, 101
2, 309060, Note_on_c, 0, 73, 101
2, 309060, Note_on_c, 0, 79, 101
2, 309240, Note_on_c, 0, 79, 0
2, 309240, Note_on_c, 0, 73, 0
2, 309240, Note_on_c, 0, 89, 0
2, 309240, Note_on_c, 0, 90, 102
2, 309240, Note_on_c, 0, 74, 102
2, 309240, Note_on_c, 0, 78, 102
2, 309420, Note_on_c, 0, 78, 0
2, 309420, Note_on_c, 0, 74, 0
2, 309420, Note_on_c, 0, 90, 0
2, 309420, Note_on_c, 0, 86, 102
2, 309420, Note_on_c, 0, 91, 102
2, 309420, Note_on_c, 0, 71, 102
2, 309420, Note_on_c, 0, 79, 102
2, 309600, Note_on_c, 0, 79, 0
2, 309600, Note_on_c, 0, 86, 0
2, 309600, Note_on_c, 0, 91, 0
2, 309600, Note_on_c, 0, 71, 0
2, 309600, Note_on_c, 0, 85, 103
2, 309600, Note_on_c, 0, 90, 103
2, 309600, Note_on_c, 0, 72, 103
2, 309600, Note_on_c, 0, 78, 103
2, 309780, Note_on_c, 0, 78, 0
2, 309780, Note_on_c, 0, 85, 0
2, 309780, Note_on_c, 0, 90, 0
2, 309780, Note_on_c, 0, 72, 0
2, 309780, Note_on_c, 0, 77, 103
2, 309960, Note_on_c, 0, 77, 0
2, 309960, Note_on_c, 0, 78, 104
2, 310140, Note_on_c, 0, 78, 0
2, 310140, Note_on_c, 0, 83, 104
2, 310140, Note_on_c, 0, 74, 104
2, 310140, Note_on_c, 0, 79, 104
2, 310320, Note_on_c, 0, 79, 0
2, 310320, Note_on_c, 0, 74, 0
2, 310320, Note_on_c, 0, 83, 0
2, 310320, Note_on_c, 0, 82, 104
2, 310320, Note_on_c, 0, 77, 104
2, 310320, Note_on_c, 0, 78, 104
2, 310500, Note_on_c, 0, 78, 0
2, 310500, Note_on_c, 0, 77, 0
2, 310500, Note_on_c, 0, 82, 0
2, 310500, Note_on_c, 0, 89, 105
2, 310500, Note_on_c, 0, 72, 105
2, 310500, Note_on_c, 0, 79, 105
2, 310680, Note_on_c, 0, 79, 0
2, 310680, Note_on_c, 0, 72, 0
2, 310680, Note_on_c, 0, 89, 0
2, 310680, Note_on_c, 0, 90, 105
2, 310680, Note_on_c, 0, 74, 105
2, 310680, Note_on_c, 0, 78, 105
2, 310860, Note_on_c, 0, 78, 0
2, 310860, Note_on_c, 0, 74, 0
2, 310860, Note_on_c, 0, 90, 0
2, 310860, Note_on_c, 0, 86, 106
2, 310860, Note_on_c, 0, 91, 106
2, 310860, Note_on_c, 0, 71, 106
2, 310860, Note_on_c, 0, 79, 106
2, 311040, Note_on_c, 0, 79, 0
2, 311040, Note_on_c, 0, 86, 0
2, 311040, Note_on_c, 0, 91, 0
2, 311040, Note_on_c, 0, 71, 0
2, 311040, Note_on_c, 0, 85, 106
2, 311040, Note_on_c, 0, 90, 106
2, 311040, Note_on_c, 0, 78, 106
2, 311220, Note_on_c, 0, 78, 0
2, 311220, Note_on_c, 0, 77, 106
2, 311400, Note_on_c, 0, 77, 0
2, 311400, Note_on_c, 0, 90, 0
2, 311400, Note_on_c, 0, 85, 0
2, 311400, Note_on_c, 0, 78, 107
2, 311580, Note_on_c, 0, 78, 0
2, 311580, Note_on_c, 0, 82, 107
2, 311580, Note_on_c, 0, 90, 107
2, 311580, Note_on_c, 0, 77, 107
2, 311760, Note_on_c, 0, 77, 0
2, 311760, Note_on_c, 0, 90, 0
2, 311760, Note_on_c, 0, 82, 0
2, 311760, Note_on_c, 0, 83, 108
2, 311760, Note_on_c, 0, 90, 108
2, 311760, Note_on_c, 0, 78, 108
2, 311940, Note_on_c, 0, 78, 0
2, 311940, Note_on_c, 0, 77, 108
2, 312120, Note_on_c, 0, 77, 0
2, 312120, Note_on_c, 0, 90, 0
2, 312120, Note_on_c, 0, 83, 0
2, 312120, Note_on_c, 0, 80, 109
2, 312120, Note_on_c, 0, 78, 109
2, 312300, Note_on_c, 0, 78, 0
2, 312300, Note_on_c, 0, 80, 0
2, 312300, Note_on_c, 0, 83, 109
2, 312300, Note_on_c, 0, 90, 109
2, 312300, Note_on_c, 0, 77, 109
2, 312480, Note_on_c, 0, 77, 0
2, 312480, Note_on_c, 0, 90, 0
2, 312480, Note_on_c, 0, 83, 0
2, 312480, Note_on_c, 0, 85, 109
2, 312480, Note_on_c, 0, 90, 109
2, 312480, Note_on_c, 0, 78, 109
2, 312660, Note_on_c, 0, 78, 0
2, 312660, Note_on_c, 0, 77, 110
2, 312840, Note_on_c, 0, 77, 0
2, 312840, Note_on_c, 0, 90, 0
2, 312840, Note_on_c, 0, 85, 0
2, 312840, Note_on_c, 0, 82, 110
2, 312840, Note_on_c, 0, 78, 110
2, 313020, Note_on_c, 0, 78, 0
2, 313020, Note_on_c, 0, 82, 0
2, 313020, Note_on_c, 0, 85, 111
2, 313020, Note_on_c, 0, 90, 111
2, 313020, Note_on_c, 0, 77, 111
2, 313200, Note_on_c, 0, 77, 0
2, 313200, Note_on_c, 0, 90, 0
2, 313200, Note_on_c, 0, 85, 0
2, 313200, Note_on_c, 0, 87, 111
2, 313200, Note_on_c, 0, 90, 111
2, 313200, Note_on_c, 0, 78, 111
2, 313380, Note_on_c, 0, 78, 0
2, 313380, Note_on_c, 0, 90, 0
2, 313380, Note_on_c, 0, 87, 0
2, 313380, Note_on_c, 0, 82, 111
2, 313560, Note_on_c, 0, 82, 0
2, 313560, Note_on_c, 0, 83, 112
2, 313560, Note_on_c, 0, 78, 112
2, 313740, Note_on_c, 0, 78, 0
2, 313740, Note_on_c, 0, 83, 0
2, 313740, Note_on_c, 0, 87, 112
2, 313740, Note_on_c, 0, 90, 112
2, 313740, Note_on_c, 0, 78, 112
2, 313920, Note_on_c, 0, 78, 0
2, 313920, Note_on_c, 0, 90, 0
2, 313920, Note_on_c, 0, 87, 0
2, 313920, Note_on_c, 0, 88, 113
2, 313920, Note_on_c, 0, 91, 113
2, 313920, Note_on_c, 0, 79, 113
2, 313920, Note_on_c, 0, 83, 113
2, 314100, Note_on_c, 0, 83, 0
2, 314100, Note_on_c, 0, 88, 0
2, 314100, Note_on_c, 0, 91, 0
2, 314100, Note_on_c, 0, 79, 0
2, 314100, Note_on_c, 0, 87, 103
2, 314100, Note_on_c, 0, 90, 103
2, 314280, Note_on_c, 0, 90, 0
2, 314280, Note_on_c, 0, 87, 0
2, 314280, Note_on_c, 0, 88, 116
2, 314280, Note_on_c, 0, 91, 116
2, 314460, Note_on_c, 0, 91, 0
2, 314460, Note_on_c, 0, 88, 0
2, 314460, Note_on_c, 0, 87, 106
2, 314460, Note_on_c, 0, 90, 106
2, 314640, Note_on_c, 0, 90, 0
2, 314640, Note_on_c, 0, 87, 0
2, 314640, Note_on_c, 0, 88, 116
2, 314640, Note_on_c, 0, 91, 116
2, 314820, Note_on_c, 0, 91, 0
2, 314820, Note_on_c, 0, 88, 0
2, 314820, Note_on_c, 0, 87, 108
2, 314820, Note_on_c, 0, 90, 108
2, 314820, Note_on_c, 0, 83, 102
2, 315000, Note_on_c, 0, 83, 0
2, 315000, Note_on_c, 0, 90, 0
2, 315000, Note_on_c, 0, 87, 0
2, 315000, Note_on_c, 0, 88, 116
2, 315000, Note_on_c, 0, 91, 116
2, 315000, Note_on_c, 0, 84, 113
2, 315180, Note_on_c, 0, 84, 0
2, 315180, Note_on_c, 0, 91, 0
2, 315180, Note_on_c, 0, 88, 0
2, 315180, Note_on_c, 0, 87, 105
2, 315180, Note_on_c, 0, 90, 105
2, 315180, Note_on_c, 0, 78, 108
2, 315180, Note_on_c, 0, 82, 108
2, 315360, Note_on_c, 0, 82, 0
2, 315360, Note_on_c, 0, 87, 0
2, 315360, Note_on_c, 0, 90, 0
2, 315360, Note_on_c, 0, 78, 0
2, 315360, Note_on_c, 0, 88, 116
2, 315360, Note_on_c, 0, 91, 116
2, 315360, Note_on_c, 0, 79, 116
2, 315360, Note_on_c, 0, 83, 116
2, 315540, Note_on_c, 0, 83, 0
2, 315540, Note_on_c, 0, 88, 0
2, 315540, Note_on_c, 0, 91, 0
2, 315540, Note_on_c, 0, 79, 0
2, 315540, Note_on_c, 0, 87, 106
2, 315540, Note_on_c, 0, 90, 106
2, 315540, Note_on_c, 0, 75, 91
2, 315540, Note_on_c, 0, 78, 91
2, 315720, Note_on_c, 0, 78, 0
2, 315720, Note_on_c, 0, 87, 0
2, 315720, Note_on_c, 0, 90, 0
2, 315720, Note_on_c, 0, 75, 0
2, 315720, Note_on_c, 0, 88, 116
2, 315720, Note_on_c, 0, 91, 116
2, 315720, Note_on_c, 0, 76, 116
2, 315720, Note_on_c, 0, 79, 116
2, 315900, Note_on_c, 0, 79, 0
2, 315900, Note_on_c, 0, 88, 0
2, 315900, Note_on_c, 0, 91, 0
2, 315900, Note_on_c, 0, 76, 0
2, 315900, Note_on_c, 0, 87, 108
2, 315900, Note_on_c, 0, 90, 108
2, 315900, Note_on_c, 0, 75, 111
2, 315900, Note_on_c, 0, 78, 111
2, 316080, Note_on_c, 0, 78, 0
2, 316080, Note_on_c, 0, 87, 0
2, 316080, Note_on_c, 0, 90, 0
2, 316080, Note_on_c, 0, 75, 0
2, 316080, Note_on_c, 0, 88, 114
2, 316080, Note_on_c, 0, 91, 114
2, 316080, Note_on_c, 0, 76, 113
2, 316080, Note_on_c, 0, 79, 113
2, 316260, Note_on_c, 0, 79, 0
2, 316260, Note_on_c, 0, 88, 0
2, 316260, Note_on_c, 0, 91, 0
2, 316260, Note_on_c, 0, 76, 0
2, 316260, Note_on_c, 0, 87, 107
2, 316260, Note_on_c, 0, 90, 107
2, 316260, Note_on_c, 0, 75, 99
2, 316440, Note_on_c, 0, 75, 0
2, 316440, Note_on_c, 0, 90, 0
2, 316440, Note_on_c, 0, 87, 0
2, 316440, Note_on_c, 0, 88, 116
2, 316440, Note_on_c, 0, 91, 116
2, 316440, Note_on_c, 0, 76, 116
2, 316620, Note_on_c, 0, 76, 0
2, 316620, Note_on_c, 0, 91, 0
2, 316620, Note_on_c, 0, 88, 0
2, 316620, Note_on_c, 0, 87, 110
2, 316620, Note_on_c, 0, 90, 110
2, 316620, Note_on_c, 0, 78, 116
2, 316800, Note_on_c, 0, 78, 0
2, 316800, Note_on_c, 0, 90, 0
2, 316800, Note_on_c, 0, 87, 0
2, 316800, Note_on_c, 0, 88, 116
2, 316800, Note_on_c, 0, 91, 116
2, 316800, Note_on_c, 0, 76, 116
2, 316800, Note_on_c, 0, 79, 116
2, 317160, Note_on_c, 0, 79, 0
2, 317160, Note_on_c, 0, 88, 0
2, 317160, Note_on_c, 0, 91, 0
2, 317160, Note_on_c, 0, 76, 0
2, 317340, Note_on_c, 0, 71, 111
2, 317340, Note_on_c, 0, 75, 111
2, 317520, Note_on_c, 0, 75, 0
2, 317520, Note_on_c, 0, 71, 0
2, 317520, Note_on_c, 0, 72, 109
2, 317520, Note_on_c, 0, 76, 109
2, 317700, Note_on_c, 0, 76, 0
2, 317700, Note_on_c, 0, 72, 0
2, 317700, Note_on_c, 0, 71, 107
2, 317700, Note_on_c, 0, 75, 107
2, 317880, Note_on_c, 0, 75, 0
2, 317880, Note_on_c, 0, 71, 0
2, 317880, Note_on_c, 0, 72, 105
2, 317880, Note_on_c, 0, 76, 105
2, 318060, Note_on_c, 0, 76, 0
2, 318060, Note_on_c, 0, 72, 0
2, 318060, Note_on_c, 0, 83, 104
2, 318060, Note_on_c, 0, 75, 104
2, 318060, Note_on_c, 0, 78, 104
2, 318240, Note_on_c, 0, 78, 0
2, 318240, Note_on_c, 0, 75, 0
2, 318240, Note_on_c, 0, 83, 0
2, 318240, Note_on_c, 0, 84, 102
2, 318240, Note_on_c, 0, 76, 102
2, 318240, Note_on_c, 0, 79, 102
2, 318420, Note_on_c, 0, 79, 0
2, 318420, Note_on_c, 0, 76, 0
2, 318420, Note_on_c, 0, 84, 0
2, 318420, Note_on_c, 0, 83, 100
2, 318420, Note_on_c, 0, 75, 100
2, 318420, Note_on_c, 0, 78, 100
2, 318600, Note_on_c, 0, 78, 0
2, 318600, Note_on_c, 0, 75, 0
2, 318600, Note_on_c, 0, 83, 0
2, 318600, Note_on_c, 0, 84, 98
2, 318600, Note_on_c, 0, 76, 98
2, 318600, Note_on_c, 0, 79, 98
2, 318780, Note_on_c, 0, 79, 0
2, 318780, Note_on_c, 0, 76, 0
2, 318780, Note_on_c, 0, 84, 0
2, 318780, Note_on_c, 0, 83, 96
2, 318780, Note_on_c, 0, 87, 96
2, 318780, Note_on_c, 0, 75, 96
2, 318780, Note_on_c, 0, 78, 96
2, 318960, Note_on_c, 0, 78, 0
2, 318960, Note_on_c, 0, 83, 0
2, 318960, Note_on_c, 0, 87, 0
2, 318960, Note_on_c, 0, 75, 0
2, 318960, Note_on_c, 0, 84, 95
2, 318960, Note_on_c, 0, 88, 95
2, 318960, Note_on_c, 0, 79, 95
2, 319140, Note_on_c, 0, 79, 0
2, 319140, Note_on_c, 0, 88, 0
2, 319140, Note_on_c, 0, 84, 0
2, 319140, Note_on_c, 0, 83, 93
2, 319140, Note_on_c, 0, 87, 93
2, 319140, Note_on_c, 0, 78, 93
2, 319320, Note_on_c, 0, 78, 0
2, 319320, Note_on_c, 0, 87, 0
2, 319320, Note_on_c, 0, 83, 0
2, 319320, Note_on_c, 0, 84, 91
2, 319320, Note_on_c, 0, 88, 91
2, 319320, Note_on_c, 0, 79, 91
2, 319500, Note_on_c, 0, 79, 0
2, 319500, Note_on_c, 0, 88, 0
2, 319500, Note_on_c, 0, 84, 0
2, 319500, Note_on_c, 0, 87, 89
2, 319500, Note_on_c, 0, 90, 89
2, 319500, Note_on_c, 0, 84, 89
2, 319680, Note_on_c, 0, 84, 0
2, 319680, Note_on_c, 0, 90, 0
2, 319680, Note_on_c, 0, 87, 0
2, 319680, Note_on_c, 0, 88, 87
2, 319680, Note_on_c, 0, 91, 87
2, 319680, Note_on_c, 0, 79, 87
2, 319680, Note_on_c, 0, 83, 87
2, 319860, Note_on_c, 0, 83, 0
2, 319860, Note_on_c, 0, 88, 0
2, 319860, Note_on_c, 0, 91, 0
2, 319860, Note_on_c, 0, 79, 0
2, 319860, Note_on_c, 0, 87, 81
2, 319860, Note_on_c, 0, 90, 81
2, 320040, Note_on_c, 0, 90, 0
2, 320040, Note_on_c, 0, 87, 0
2, 320040, Note_on_c, 0, 88, 95
2, 320040, Note_on_c, 0, 91, 95
2, 320220, Note_on_c, 0, 91, 0
2, 320220, Note_on_c, 0, 88, 0
2, 320220, Note_on_c, 0, 87, 84
2, 320220, Note_on_c, 0, 90, 84
2, 320400, Note_on_c, 0, 90, 0
2, 320400, Note_on_c, 0, 87, 0
2, 320400, Note_on_c, 0, 88, 87
2, 320400, Note_on_c, 0, 91, 87
2, 320580, Note_on_c, 0, 91, 0
2, 320580, Note_on_c, 0, 88, 0
2, 320580, Note_on_c, 0, 87, 89
2, 320580, Note_on_c, 0, 90, 89
2, 320580, Note_on_c, 0, 83, 89
2, 320760, Note_on_c, 0, 83, 0
2, 320760, Note_on_c, 0, 90, 0
2, 320760, Note_on_c, 0, 87, 0
2, 320760, Note_on_c, 0, 88, 92
2, 320760, Note_on_c, 0, 91, 92
2, 320760, Note_on_c, 0, 84, 92
2, 320940, Note_on_c, 0, 84, 0
2, 320940, Note_on_c, 0, 91, 0
2, 320940, Note_on_c, 0, 88, 0
2, 320940, Note_on_c, 0, 87, 94
2, 320940, Note_on_c, 0, 90, 94
2, 320940, Note_on_c, 0, 78, 94
2, 320940, Note_on_c, 0, 82, 94
2, 321120, Note_on_c, 0, 82, 0
2, 321120, Note_on_c, 0, 87, 0
2, 321120, Note_on_c, 0, 90, 0
2, 321120, Note_on_c, 0, 78, 0
2, 321120, Note_on_c, 0, 88, 96
2, 321120, Note_on_c, 0, 91, 96
2, 321120, Note_on_c, 0, 79, 96
2, 321120, Note_on_c, 0, 83, 96
2, 321300, Note_on_c, 0, 83, 0
2, 321300, Note_on_c, 0, 88, 0
2, 321300, Note_on_c, 0, 91, 0
2, 321300, Note_on_c, 0, 79, 0
2, 321300, Note_on_c, 0, 87, 98
2, 321300, Note_on_c, 0, 90, 98
2, 321300, Note_on_c, 0, 75, 98
2, 321300, Note_on_c, 0, 78, 98
2, 321480, Note_on_c, 0, 78, 0
2, 321480, Note_on_c, 0, 87, 0
2, 321480, Note_on_c, 0, 90, 0
2, 321480, Note_on_c, 0, 75, 0
2, 321480, Note_on_c, 0, 88, 100
2, 321480, Note_on_c, 0, 91, 100
2, 321480, Note_on_c, 0, 76, 100
2, 321480, Note_on_c, 0, 79, 100
2, 321660, Note_on_c, 0, 79, 0
2, 321660, Note_on_c, 0, 88, 0
2, 321660, Note_on_c, 0, 91, 0
2, 321660, Note_on_c, 0, 76, 0
2, 321660, Note_on_c, 0, 87, 102
2, 321660, Note_on_c, 0, 90, 102
2, 321660, Note_on_c, 0, 75, 102
2, 321660, Note_on_c, 0, 78, 102
2, 321840, Note_on_c, 0, 78, 0
2, 321840, Note_on_c, 0, 87, 0
2, 321840, Note_on_c, 0, 90, 0
2, 321840, Note_on_c, 0, 75, 0
2, 321840, Note_on_c, 0, 88, 104
2, 321840, Note_on_c, 0, 91, 104
2, 321840, Note_on_c, 0, 76, 104
2, 321840, Note_on_c, 0, 79, 104
2, 322020, Note_on_c, 0, 79, 0
2, 322020, Note_on_c, 0, 88, 0
2, 322020, Note_on_c, 0, 91, 0
2, 322020, Note_on_c, 0, 76, 0
2, 322020, Note_on_c, 0, 87, 106
2, 322020, Note_on_c, 0, 90, 106
2, 322020, Note_on_c, 0, 75, 106
2, 322200, Note_on_c, 0, 75, 0
2, 322200, Note_on_c, 0, 90, 0
2, 322200, Note_on_c, 0, 87, 0
2, 322200, Note_on_c, 0, 88, 108
2, 322200, Note_on_c, 0, 91, 108
2, 322200, Note_on_c, 0, 76, 108
2, 322380, Note_on_c, 0, 76, 0
2, 322380, Note_on_c, 0, 91, 0
2, 322380, Note_on_c, 0, 88, 0
2, 322380, Note_on_c, 0, 87, 111
2, 322380, Note_on_c, 0, 90, 111
2, 322380, Note_on_c, 0, 78, 111
2, 322560, Note_on_c, 0, 78, 0
2, 322560, Note_on_c, 0, 90, 0
2, 322560, Note_on_c, 0, 87, 0
2, 322560, Note_on_c, 0, 88, 113
2, 322560, Note_on_c, 0, 91, 113
2, 322560, Note_on_c, 0, 76, 113
2, 322560, Note_on_c, 0, 79, 113
2, 322920, Note_on_c, 0, 79, 0
2, 322920, Note_on_c, 0, 88, 0
2, 322920, Note_on_c, 0, 91, 0
2, 322920, Note_on_c, 0, 76, 0
2, 323100, Note_on_c, 0, 71, 99
2, 323100, Note_on_c, 0, 75, 99
2, 323280, Note_on_c, 0, 75, 0
2, 323280, Note_on_c, 0, 71, 0
2, 323280, Note_on_c, 0, 72, 116
2, 323280, Note_on_c, 0, 76, 116
2, 323460, Note_on_c, 0, 76, 0
2, 323460, Note_on_c, 0, 72, 0
2, 323460, Note_on_c, 0, 71, 107
2, 323460, Note_on_c, 0, 75, 107
2, 323640, Note_on_c, 0, 75, 0
2, 323640, Note_on_c, 0, 71, 0
2, 323640, Note_on_c, 0, 72, 116
2, 323640, Note_on_c, 0, 76, 116
2, 323820, Note_on_c, 0, 76, 0
2, 323820, Note_on_c, 0, 72, 0
2, 323820, Note_on_c, 0, 83, 100
2, 323820, Note_on_c, 0, 75, 116
2, 323820, Note_on_c, 0, 78, 116
2, 324000, Note_on_c, 0, 78, 0
2, 324000, Note_on_c, 0, 75, 0
2, 324000, Note_on_c, 0, 83, 0
2, 324000, Note_on_c, 0, 84, 113
2, 324000, Note_on_c, 0, 76, 113
2, 324000, Note_on_c, 0, 79, 113
2, 324180, Note_on_c, 0, 79, 0
2, 324180, Note_on_c, 0, 76, 0
2, 324180, Note_on_c, 0, 84, 0
2, 324180, Note_on_c, 0, 83, 110
2, 324180, Note_on_c, 0, 75, 110
2, 324180, Note_on_c, 0, 78, 110
2, 324360, Note_on_c, 0, 78, 0
2, 324360, Note_on_c, 0, 75, 0
2, 324360, Note_on_c, 0, 83, 0
2, 324360, Note_on_c, 0, 84, 106
2, 324360, Note_on_c, 0, 76, 106
2, 324360, Note_on_c, 0, 79, 106
2, 324540, Note_on_c, 0, 79, 0
2, 324540, Note_on_c, 0, 76, 0
2, 324540, Note_on_c, 0, 84, 0
2, 324540, Note_on_c, 0, 83, 103
2, 324540, Note_on_c, 0, 87, 103
2, 324540, Note_on_c, 0, 75, 103
2, 324540, Note_on_c, 0, 78, 103
2, 324720, Note_on_c, 0, 78, 0
2, 324720, Note_on_c, 0, 83, 0
2, 324720, Note_on_c, 0, 87, 0
2, 324720, Note_on_c, 0, 75, 0
2, 324720, Note_on_c, 0, 84, 100
2, 324720, Note_on_c, 0, 88, 100
2, 324720, Note_on_c, 0, 79, 100
2, 324900, Note_on_c, 0, 79, 0
2, 324900, Note_on_c, 0, 88, 0
2, 324900, Note_on_c, 0, 84, 0
2, 324900, Note_on_c, 0, 83, 97
2, 324900, Note_on_c, 0, 87, 97
2, 324900, Note_on_c, 0, 78, 97
2, 325080, Note_on_c, 0, 78, 0
2, 325080, Note_on_c, 0, 87, 0
2, 325080, Note_on_c, 0, 83, 0
2, 325080, Note_on_c, 0, 84, 94
2, 325080, Note_on_c, 0, 88, 94
2, 325080, Note_on_c, 0, 79, 94
2, 325260, Note_on_c, 0, 79, 0
2, 325260, Note_on_c, 0, 88, 0
2, 325260, Note_on_c, 0, 84, 0
2, 325260, Note_on_c, 0, 87, 91
2, 325260, Note_on_c, 0, 90, 91
2, 325260, Note_on_c, 0, 84, 91
2, 325440, Note_on_c, 0, 84, 0
2, 325440, Note_on_c, 0, 90, 0
2, 325440, Note_on_c, 0, 87, 0
2, 325440, Note_on_c, 0, 83, 87
2, 325440, Note_on_c, 0, 88, 87
2, 325440, Note_on_c, 0, 76, 87
2, 325529, Note_on_c, 0, 76, 0
2, 325529, Note_on_c, 0, 88, 0
2, 325529, Note_on_c, 0, 83, 0
2, 325620, Note_on_c, 0, 90, 87
2, 325620, Note_on_c, 0, 78, 87
2, 325709, Note_on_c, 0, 78, 0
2, 325709, Note_on_c, 0, 90, 0
2, 325800, Note_on_c, 0, 91, 96
2, 325800, Note_on_c, 0, 79, 96
2, 325889, Note_on_c, 0, 79, 0
2, 325889, Note_on_c, 0, 91, 0
2, 325980, Note_on_c, 0, 90, 104
2, 325980, Note_on_c, 0, 78, 104
2, 326069, Note_on_c, 0, 78, 0
2, 326069, Note_on_c, 0, 90, 0
2, 326160, Note_on_c, 0, 91, 100
2, 326160, Note_on_c, 0, 76, 84
2, 326318, Note_on_c, 0, 91, 0
2, 326340, Note_on_c, 0, 76, 0
2, 326340, Note_on_c, 0, 88, 82
2, 326340, Note_on_c, 0, 79, 99
2, 326520, Note_on_c, 0, 79, 0
2, 326520, Note_on_c, 0, 88, 0
2, 326520, Note_on_c, 0, 86, 79
2, 326520, Note_on_c, 0, 74, 74
2, 326609, Note_on_c, 0, 74, 0
2, 326700, Note_on_c, 0, 86, 0
2, 326700, Note_on_c, 0, 85, 83
2, 326700, Note_on_c, 0, 73, 81
2, 326789, Note_on_c, 0, 73, 0
2, 326880, Note_on_c, 0, 85, 0
2, 326880, Note_on_c, 0, 86, 92
2, 326880, Note_on_c, 0, 74, 90
2, 326969, Note_on_c, 0, 74, 0
2, 326969, Note_on_c, 0, 86, 0
2, 327060, Note_on_c, 0, 88, 97
2, 327060, Note_on_c, 0, 76, 92
2, 327149, Note_on_c, 0, 76, 0
2, 327149, Note_on_c, 0, 88, 0
2, 327240, Note_on_c, 0, 90, 95
2, 327240, Note_on_c, 0, 78, 92
2, 327329, Note_on_c, 0, 78, 0
2, 327329, Note_on_c, 0, 90, 0
2, 327420, Note_on_c, 0, 88, 80
2, 327420, Note_on_c, 0, 76, 81
2, 327509, Note_on_c, 0, 76, 0
2, 327509, Note_on_c, 0, 88, 0
2, 327600, Note_on_c, 0, 89, 109
2, 327600, Note_on_c, 0, 74, 83
2, 327758, Note_on_c, 0, 89, 0
2, 327780, Note_on_c, 0, 74, 0
2, 327780, Note_on_c, 0, 86, 81
2, 327780, Note_on_c, 0, 77, 95
2, 327960, Note_on_c, 0, 77, 0
2, 327960, Note_on_c, 0, 86, 0
2, 327960, Note_on_c, 0, 84, 77
2, 327960, Note_on_c, 0, 72, 70
2, 328049, Note_on_c, 0, 72, 0
2, 328049, Note_on_c, 0, 84, 0
2, 328140, Note_on_c, 0, 83, 81
2, 328140, Note_on_c, 0, 71, 78
2, 328229, Note_on_c, 0, 71, 0
2, 328229, Note_on_c, 0, 83, 0
2, 328320, Note_on_c, 0, 88, 108
2, 328320, Note_on_c, 0, 72, 92
2, 328478, Note_on_c, 0, 88, 0
2, 328500, Note_on_c, 0, 72, 0
2, 328500, Note_on_c, 0, 84, 79
2, 328500, Note_on_c, 0, 76, 102
2, 328680, Note_on_c, 0, 76, 0
2, 328680, Note_on_c, 0, 84, 0
2, 328680, Note_on_c, 0, 83, 79
2, 328680, Note_on_c, 0, 71, 80
2, 328769, Note_on_c, 0, 71, 0
2, 328769, Note_on_c, 0, 83, 0
2, 328860, Note_on_c, 0, 81, 84
2, 328860, Note_on_c, 0, 69, 74
2, 328949, Note_on_c, 0, 69, 0
2, 328949, Note_on_c, 0, 81, 0
2, 329040, Note_on_c, 0, 86, 109
2, 329040, Note_on_c, 0, 71, 89
2, 329198, Note_on_c, 0, 86, 0
2, 329220, Note_on_c, 0, 71, 0
2, 329220, Note_on_c, 0, 83, 85
2, 329220, Note_on_c, 0, 74, 104
2, 329400, Note_on_c, 0, 74, 0
2, 329400, Note_on_c, 0, 83, 0
2, 329400, Note_on_c, 0, 84, 105
2, 329400, Note_on_c, 0, 69, 78
2, 329558, Note_on_c, 0, 84, 0
2, 329580, Note_on_c, 0, 69, 0
2, 329580, Note_on_c, 0, 81, 76
2, 329580, Note_on_c, 0, 72, 99
2, 329760, Note_on_c, 0, 72, 0
2, 329760, Note_on_c, 0, 81, 0
2, 329760, Note_on_c, 0, 79, 92
2, 329760, Note_on_c, 0, 67, 74
2, 329918, Note_on_c, 0, 79, 0
2, 329940, Note_on_c, 0, 67, 0
2, 329940, Note_on_c, 0, 83, 95
2, 329940, Note_on_c, 0, 71, 98
2, 330120, Note_on_c, 0, 71, 0
2, 330120, Note_on_c, 0, 83, 0
2, 330120, Note_on_c, 0, 75, 76
2, 330209, Note_on_c, 0, 75, 0
2, 330300, Note_on_c, 0, 76, 89
2, 330300, Note_on_c, 0, 66, 80
2, 330300, Note_on_c, 0, 69, 80
2, 330389, Note_on_c, 0, 69, 0
2, 330389, Note_on_c, 0, 66, 0
2, 330389, Note_on_c, 0, 76, 0
2, 330480, Note_on_c, 0, 79, 105
2, 330480, Note_on_c, 0, 67, 105
2, 330480, Note_on_c, 0, 71, 105
2, 330638, Note_on_c, 0, 71, 0
2, 330638, Note_on_c, 0, 67, 0
2, 330638, Note_on_c, 0, 79, 0
2, 330660, Note_on_c, 0, 83, 102
2, 330840, Note_on_c, 0, 83, 0
2, 330840, Note_on_c, 0, 75, 69
2, 330929, Note_on_c, 0, 75, 0
2, 331020, Note_on_c, 0, 76, 88
2, 331020, Note_on_c, 0, 66, 75
2, 331020, Note_on_c, 0, 69, 75
2, 331109, Note_on_c, 0, 69, 0
2, 331109, Note_on_c, 0, 66, 0
2, 331109, Note_on_c, 0, 76, 0
2, 331200, Note_on_c, 0, 79, 104
2, 331200, Note_on_c, 0, 67, 104
2, 331200, Note_on_c, 0, 71, 104
2, 331358, Note_on_c, 0, 71, 0
2, 331358, Note_on_c, 0, 67, 0
2, 331358, Note_on_c, 0, 79, 0
2, 331380, Note_on_c, 0, 83, 104
2, 331560, Note_on_c, 0, 83, 0
2, 331560, Note_on_c, 0, 75, 70
2, 331649, Note_on_c, 0, 75, 0
2, 331740, Note_on_c, 0, 76, 88
2, 331740, Note_on_c, 0, 66, 77
2, 331740, Note_on_c, 0, 69, 77
2, 331829, Note_on_c, 0, 69, 0
2, 331829, Note_on_c, 0, 66, 0
2, 331829, Note_on_c, 0, 76, 0
2, 331920, Note_on_c, 0, 79, 106
2, 331920, Note_on_c, 0, 67, 101
2, 331920, Note_on_c, 0, 71, 101
2, 332078, Note_on_c, 0, 71, 0
2, 332078, Note_on_c, 0, 67, 0
2, 332078, Note_on_c, 0, 79, 0
2, 332100, Note_on_c, 0, 83, 101
2, 332280, Note_on_c, 0, 83, 0
2, 332280, Note_on_c, 0, 75, 70
2, 332369, Note_on_c, 0, 75, 0
2, 332460, Note_on_c, 0, 76, 88
2, 332460, Note_on_c, 0, 66, 81
2, 332460, Note_on_c, 0, 69, 81
2, 332549, Note_on_c, 0, 76, 0
2, 332640, Note_on_c, 0, 69, 0
2, 332640, Note_on_c, 0, 66, 0
2, 332640, Note_on_c, 0, 79, 96
2, 332640, Note_on_c, 0, 67, 81
2, 332729, Note_on_c, 0, 67, 0
2, 332729, Note_on_c, 0, 79, 0
2, 332820, Note_on_c, 0, 81, 88
2, 332820, Note_on_c, 0, 69, 92
2, 332909, Note_on_c, 0, 69, 0
2, 332909, Note_on_c, 0, 81, 0
2, 333000, Note_on_c, 0, 83, 94
2, 333000, Note_on_c, 0, 71, 88
2, 333089, Note_on_c, 0, 71, 0
2, 333089, Note_on_c, 0, 83, 0
2, 333180, Note_on_c, 0, 81, 79
2, 333180, Note_on_c, 0, 69, 80
2, 333269, Note_on_c, 0, 69, 0
2, 333269, Note_on_c, 0, 81, 0
2, 333360, Note_on_c, 0, 76, 108
2, 333360, Note_on_c, 0, 83, 108
2, 333360, Note_on_c, 0, 67, 79
2, 333518, Note_on_c, 0, 83, 0
2, 333518, Note_on_c, 0, 76, 0
2, 333540, Note_on_c, 0, 67, 0
2, 333540, Note_on_c, 0, 79, 78
2, 333540, Note_on_c, 0, 71, 97
2, 333720, Note_on_c, 0, 71, 0
2, 333720, Note_on_c, 0, 79, 0
2, 333720, Note_on_c, 0, 78, 82
2, 333720, Note_on_c, 0, 66, 75
2, 333809, Note_on_c, 0, 66, 0
2, 333900, Note_on_c, 0, 78, 0
2, 333900, Note_on_c, 0, 76, 80
2, 333900, Note_on_c, 0, 64, 80
2, 333989, Note_on_c, 0, 64, 0
2, 334080, Note_on_c, 0, 76, 0
2, 334080, Note_on_c, 0, 74, 87
2, 334080, Note_on_c, 0, 78, 87
2, 334080, Note_on_c, 0, 66, 87
2, 334169, Note_on_c, 0, 66, 0
2, 334169, Note_on_c, 0, 78, 0
2, 334169, Note_on_c, 0, 74, 0
2, 334260, Note_on_c, 0, 79, 86
2, 334260, Note_on_c, 0, 67, 86
2, 334349, Note_on_c, 0, 67, 0
2, 334349, Note_on_c, 0, 79, 0
2, 334440, Note_on_c, 0, 81, 84
2, 334440, Note_on_c, 0, 69, 84
2, 334529, Note_on_c, 0, 69, 0
2, 334529, Note_on_c, 0, 81, 0
2, 334620, Note_on_c, 0, 79, 83
2, 334620, Note_on_c, 0, 67, 83
2, 334709, Note_on_c, 0, 67, 0
2, 334709, Note_on_c, 0, 79, 0
2, 334800, Note_on_c, 0, 72, 81
2, 334800, Note_on_c, 0, 81, 81
2, 334800, Note_on_c, 0, 66, 81
2, 334958, Note_on_c, 0, 81, 0
2, 334958, Note_on_c, 0, 72, 0
2, 334980, Note_on_c, 0, 66, 0
2, 334980, Note_on_c, 0, 78, 79
2, 334980, Note_on_c, 0, 69, 79
2, 335160, Note_on_c, 0, 69, 0
2, 335160, Note_on_c, 0, 78, 0
2, 335160, Note_on_c, 0, 76, 78
2, 335160, Note_on_c, 0, 64, 78
2, 335249, Note_on_c, 0, 64, 0
2, 335249, Note_on_c, 0, 76, 0
2, 335340, Note_on_c, 0, 75, 76
2, 335340, Note_on_c, 0, 63, 76
2, 335429, Note_on_c, 0, 63, 0
2, 335429, Note_on_c, 0, 75, 0
2, 335520, Note_on_c, 0, 72, 75
2, 335520, Note_on_c, 0, 79, 75
2, 335520, Note_on_c, 0, 64, 75
2, 335678, Note_on_c, 0, 79, 0
2, 335678, Note_on_c, 0, 72, 0
2, 335700, Note_on_c, 0, 64, 0
2, 335700, Note_on_c, 0, 76, 73
2, 335700, Note_on_c, 0, 67, 73
2, 335880, Note_on_c, 0, 67, 0
2, 335880, Note_on_c, 0, 76, 0
2, 335880, Note_on_c, 0, 74, 71
2, 335880, Note_on_c, 0, 62, 71
2, 335969, Note_on_c, 0, 62, 0
2, 335969, Note_on_c, 0, 74, 0
2, 336060, Note_on_c, 0, 72, 70
2, 336060, Note_on_c, 0, 60, 70
2, 336149, Note_on_c, 0, 60, 0
2, 336149, Note_on_c, 0, 72, 0
2, 336240, Note_on_c, 0, 78, 68
2, 336240, Note_on_c, 0, 62, 68
2, 336240, Note_on_c, 0, 71, 68
2, 336398, Note_on_c, 0, 78, 0
2, 336420, Note_on_c, 0, 71, 0
2, 336420, Note_on_c, 0, 62, 0
2, 336420, Note_on_c, 0, 74, 67
2, 336420, Note_on_c, 0, 66, 67
2, 336600, Note_on_c, 0, 66, 0
2, 336600, Note_on_c, 0, 74, 0
2, 336600, Note_on_c, 0, 77, 65
2, 336600, Note_on_c, 0, 62, 65
2, 336600, Note_on_c, 0, 71, 65
2, 336758, Note_on_c, 0, 77, 0
2, 336780, Note_on_c, 0, 71, 0
2, 336780, Note_on_c, 0, 62, 0
2, 336780, Note_on_c, 0, 74, 64
2, 336780, Note_on_c, 0, 65, 64
2, 336960, Note_on_c, 0, 65, 0
2, 336960, Note_on_c, 0, 74, 0
2, 336960, Note_on_c, 0, 72, 62
2, 336960, Note_on_c, 0, 64, 62
2, 337118, Note_on_c, 0, 72, 0
2, 337140, Note_on_c, 0, 64, 0
2, 337140, Note_on_c, 0, 76, 70
2, 337140, Note_on_c, 0, 60, 55
2, 337320, Note_on_c, 0, 60, 0
2, 337320, Note_on_c, 0, 76, 0
2, 337320, Note_on_c, 0, 68, 54
2, 337409, Note_on_c, 0, 68, 0
2, 337500, Note_on_c, 0, 69, 66
2, 337589, Note_on_c, 0, 69, 0
2, 337680, Note_on_c, 0, 72, 78
2, 337680, Note_on_c, 0, 64, 54
2, 337838, Note_on_c, 0, 72, 0
2, 337860, Note_on_c, 0, 64, 0
2, 337860, Note_on_c, 0, 76, 70
2, 337860, Note_on_c, 0, 60, 53
2, 338040, Note_on_c, 0, 60, 0
2, 338040, Note_on_c, 0, 76, 0
2, 338040, Note_on_c, 0, 68, 47
2, 338129, Note_on_c, 0, 68, 0
2, 338220, Note_on_c, 0, 69, 63
2, 338309, Note_on_c, 0, 69, 0
2, 338400, Note_on_c, 0, 72, 79
2, 338400, Note_on_c, 0, 64, 54
2, 338558, Note_on_c, 0, 72, 0
2, 338580, Note_on_c, 0, 64, 0
2, 338580, Note_on_c, 0, 76, 72
2, 338580, Note_on_c, 0, 60, 53
2, 338760, Note_on_c, 0, 60, 0
2, 338760, Note_on_c, 0, 76, 0
2, 338760, Note_on_c, 0, 68, 50
2, 338849, Note_on_c, 0, 68, 0
2, 338940, Note_on_c, 0, 69, 62
2, 339029, Note_on_c, 0, 69, 0
2, 339120, Note_on_c, 0, 72, 82
2, 339120, Note_on_c, 0, 64, 55
2, 339278, Note_on_c, 0, 72, 0
2, 339300, Note_on_c, 0, 64, 0
2, 339300, Note_on_c, 0, 76, 68
2, 339300, Note_on_c, 0, 60, 52
2, 339480, Note_on_c, 0, 60, 0
2, 339480, Note_on_c, 0, 76, 0
2, 339480, Note_on_c, 0, 68, 50
2, 339569, Note_on_c, 0, 68, 0
2, 339660, Note_on_c, 0, 69, 65
2, 339749, Note_on_c, 0, 69, 0
2, 339840, Note_on_c, 0, 72, 62
2, 339840, Note_on_c, 0, 60, 55
2, 339929, Note_on_c, 0, 72, 0
2, 340019, Note_on_c, 0, 60, 0
2, 340020, Note_on_c, 0, 74, 68
2, 340109, Note_on_c, 0, 74, 0
2, 340200, Note_on_c, 0, 76, 75
2, 340289, Note_on_c, 0, 76, 0
2, 340380, Note_on_c, 0, 74, 81
2, 340469, Note_on_c, 0, 74, 0
2, 340560, Note_on_c, 0, 76, 87
2, 340560, Note_on_c, 0, 66, 54
2, 340718, Note_on_c, 0, 76, 0
2, 340740, Note_on_c, 0, 66, 0
2, 340740, Note_on_c, 0, 72, 62
2, 340740, Note_on_c, 0, 64, 56
2, 340920, Note_on_c, 0, 64, 0
2, 340920, Note_on_c, 0, 72, 0
2, 340920, Note_on_c, 0, 71, 67
2, 341009, Note_on_c, 0, 71, 0
2, 341100, Note_on_c, 0, 69, 69
2, 341189, Note_on_c, 0, 69, 0
2, 341280, Note_on_c, 0, 74, 73
2, 341280, Note_on_c, 0, 67, 56
2, 341438, Note_on_c, 0, 74, 0
2, 341460, Note_on_c, 0, 67, 0
2, 341460, Note_on_c, 0, 71, 70
2, 341460, Note_on_c, 0, 62, 52
2, 341640, Note_on_c, 0, 62, 0
2, 341640, Note_on_c, 0, 71, 0
2, 341640, Note_on_c, 0, 69, 66
2, 341729, Note_on_c, 0, 69, 0
2, 341820, Note_on_c, 0, 67, 62
2, 341909, Note_on_c, 0, 67, 0
2, 342000, Note_on_c, 0, 72, 59
2, 342000, Note_on_c, 0, 64, 58
2, 342158, Note_on_c, 0, 72, 0
2, 342180, Note_on_c, 0, 69, 55
2, 342360, Note_on_c, 0, 69, 0
2, 342360, Note_on_c, 0, 64, 0
2, 342360, Note_on_c, 0, 70, 52
2, 342360, Note_on_c, 0, 64, 56
2, 342518, Note_on_c, 0, 70, 0
2, 342540, Note_on_c, 0, 67, 48
2, 342720, Note_on_c, 0, 67, 0
2, 342720, Note_on_c, 0, 64, 0
2, 342720, Note_on_c, 0, 65, 49
2, 342720, Note_on_c, 0, 62, 72
2, 342878, Note_on_c, 0, 65, 0
2, 342900, Note_on_c, 0, 69, 43
2, 343037, Note_on_c, 0, 62, 0
2, 343080, Note_on_c, 0, 69, 0
2, 343080, Note_on_c, 0, 61, 56
2, 343169, Note_on_c, 0, 61, 0
2, 343260, Note_on_c, 0, 62, 63
2, 343349, Note_on_c, 0, 62, 0
2, 343440, Note_on_c, 0, 65, 45
2, 343440, Note_on_c, 0, 62, 74
2, 343598, Note_on_c, 0, 65, 0
2, 343620, Note_on_c, 0, 69, 48
2, 343757, Note_on_c, 0, 62, 0
2, 343800, Note_on_c, 0, 69, 0
2, 343800, Note_on_c, 0, 61, 57
2, 343889, Note_on_c, 0, 61, 0
2, 343980, Note_on_c, 0, 62, 60
2, 344069, Note_on_c, 0, 62, 0
2, 344160, Note_on_c, 0, 65, 46
2, 344160, Note_on_c, 0, 62, 74
2, 344318, Note_on_c, 0, 65, 0
2, 344340, Note_on_c, 0, 69, 44
2, 344477, Note_on_c, 0, 62, 0
2, 344520, Note_on_c, 0, 69, 0
2, 344520, Note_on_c, 0, 61, 59
2, 344609, Note_on_c, 0, 61, 0
2, 344700, Note_on_c, 0, 62, 63
2, 344789, Note_on_c, 0, 62, 0
2, 344880, Note_on_c, 0, 69, 40
2, 344880, Note_on_c, 0, 65, 69
2, 345038, Note_on_c, 0, 69, 0
2, 345060, Note_on_c, 0, 65, 47
2, 345240, Note_on_c, 0, 65, 0
2, 345240, Note_on_c, 0, 65, 0
2, 345240, Note_on_c, 0, 69, 53
2, 345240, Note_on_c, 0, 64, 61
2, 345398, Note_on_c, 0, 69, 0
2, 345420, Note_on_c, 0, 64, 59
2, 345600, Note_on_c, 0, 64, 0
2, 345600, Note_on_c, 0, 64, 0
2, 345600, Note_on_c, 0, 69, 90
2, 345600, Note_on_c, 0, 63, 58
2, 345960, Note_on_c, 0, 63, 0
2, 345960, Note_on_c, 0, 69, 0
2, 351000, Note_on_c, 0, 67, 79
2, 351120, Note_on_c, 0, 67, 0
2, 351120, Note_on_c, 0, 64, 76
2, 351239, Note_on_c, 0, 64, 0
2, 351239, Note_on_c, 0, 67, 91
2, 351360, Note_on_c, 0, 67, 0
2, 351360, Note_on_c, 0, 60, 87
2, 351540, Note_on_c, 0, 60, 0
2, 353880, Note_on_c, 0, 69, 40
2, 353880, Note_on_c, 0, 72, 40
2, 353969, Note_on_c, 0, 72, 0
2, 353969, Note_on_c, 0, 69, 0
2, 354150, Note_on_c, 0, 69, 41
2, 354150, Note_on_c, 0, 72, 41
2, 354194, Note_on_c, 0, 72, 0
2, 354194, Note_on_c, 0, 69, 0
2, 354240, Note_on_c, 0, 69, 49
2, 354240, Note_on_c, 0, 72, 49
2, 354419, Note_on_c, 0, 72, 0
2, 354419, Note_on_c, 0, 69, 0
2, 356760, Note_on_c, 0, 69, 44
2, 356760, Note_on_c, 0, 72, 44
2, 356849, Note_on_c, 0, 72, 0
2, 356849, Note_on_c, 0, 69, 0
2, 357030, Note_on_c, 0, 69, 47
2, 357030, Note_on_c, 0, 72, 47
2, 357074, Note_on_c, 0, 72, 0
2, 357074, Note_on_c, 0, 69, 0
2, 357120, Note_on_c, 0, 69, 50
2, 357120, Note_on_c, 0, 72, 50
2, 357299, Note_on_c, 0, 72, 0
2, 357299, Note_on_c, 0, 69, 0
2, 358560, Note_on_c, 0, 69, 42
2, 358560, Note_on_c, 0, 72, 42
2, 358739, Note_on_c, 0, 72, 0
2, 358739, Note_on_c, 0, 69, 0
2, 360000, Note_on_c, 0, 69, 34
2, 360000, Note_on_c, 0, 72, 34
2, 360179, Note_on_c, 0, 72, 0
2, 360179, Note_on_c, 0, 69, 0
2, 361440, Note_on_c, 0, 69, 25
2, 361440, Note_on_c, 0, 72, 25
2, 361619, Note_on_c, 0, 72, 0
2, 361619, Note_on_c, 0, 69, 0
2, 362880, Note_on_c, 0, 72, 33
2, 362969, Note_on_c, 0, 72, 0
2, 363600, Note_on_c, 0, 72, 34
2, 363689, Note_on_c, 0, 72, 0
2, 364320, Note_on_c, 0, 72, 40
2, 364409, Note_on_c, 0, 72, 0
2, 365040, Note_on_c, 0, 72, 34
2, 365129, Note_on_c, 0, 72, 0
2, 365760, Note_on_c, 0, 72, 33
2, 365849, Note_on_c, 0, 72, 0
2, 366480, Note_on_c, 0, 72, 53
2, 366660, Note_on_c, 0, 72, 0
2, 366660, Note_on_c, 0, 71, 57
2, 366840, Note_on_c, 0, 71, 0
2, 366840, Note_on_c, 0, 72, 66
2, 367020, Note_on_c, 0, 72, 0
2, 367020, Note_on_c, 0, 71, 54
2, 367200, Note_on_c, 0, 71, 0
2, 367200, Note_on_c, 0, 81, 34
2, 367200, Note_on_c, 0, 69, 66
2, 367200, Note_on_c, 0, 72, 66
2, 367289, Note_on_c, 0, 72, 0
2, 367289, Note_on_c, 0, 69, 0
2, 367289, Note_on_c, 0, 81, 0
2, 367380, Note_on_c, 0, 83, 43
2, 367380, Note_on_c, 0, 68, 56
2, 367469, Note_on_c, 0, 68, 0
2, 367469, Note_on_c, 0, 83, 0
2, 367560, Note_on_c, 0, 84, 45
2, 367560, Note_on_c, 0, 69, 67
2, 367649, Note_on_c, 0, 69, 0
2, 367649, Note_on_c, 0, 84, 0
2, 367740, Note_on_c, 0, 83, 36
2, 367740, Note_on_c, 0, 71, 72
2, 367829, Note_on_c, 0, 71, 0
2, 367829, Note_on_c, 0, 83, 0
2, 367920, Note_on_c, 0, 81, 45
2, 367920, Note_on_c, 0, 84, 45
2, 367920, Note_on_c, 0, 72, 61
2, 368009, Note_on_c, 0, 72, 0
2, 368009, Note_on_c, 0, 84, 0
2, 368009, Note_on_c, 0, 81, 0
2, 368100, Note_on_c, 0, 80, 31
2, 368100, Note_on_c, 0, 71, 63
2, 368189, Note_on_c, 0, 71, 0
2, 368189, Note_on_c, 0, 80, 0
2, 368280, Note_on_c, 0, 81, 44
2, 368280, Note_on_c, 0, 84, 44
2, 368280, Note_on_c, 0, 72, 66
2, 368369, Note_on_c, 0, 72, 0
2, 368369, Note_on_c, 0, 84, 0
2, 368369, Note_on_c, 0, 81, 0
2, 368460, Note_on_c, 0, 79, 33
2, 368460, Note_on_c, 0, 70, 61
2, 368549, Note_on_c, 0, 70, 0
2, 368549, Note_on_c, 0, 79, 0
2, 368640, Note_on_c, 0, 81, 46
2, 368640, Note_on_c, 0, 84, 46
2, 368640, Note_on_c, 0, 72, 64
2, 368729, Note_on_c, 0, 72, 0
2, 368729, Note_on_c, 0, 84, 0
2, 368729, Note_on_c, 0, 81, 0
2, 368820, Note_on_c, 0, 86, 46
2, 368820, Note_on_c, 0, 70, 57
2, 368909, Note_on_c, 0, 70, 0
2, 368909, Note_on_c, 0, 86, 0
2, 369000, Note_on_c, 0, 81, 33
2, 369000, Note_on_c, 0, 84, 33
2, 369000, Note_on_c, 0, 69, 60
2, 369089, Note_on_c, 0, 69, 0
2, 369089, Note_on_c, 0, 84, 0
2, 369089, Note_on_c, 0, 81, 0
2, 369180, Note_on_c, 0, 79, 36
2, 369180, Note_on_c, 0, 67, 55
2, 369269, Note_on_c, 0, 67, 0
2, 369269, Note_on_c, 0, 79, 0
2, 369360, Note_on_c, 0, 77, 45
2, 369360, Note_on_c, 0, 81, 45
2, 369360, Note_on_c, 0, 65, 60
2, 369449, Note_on_c, 0, 65, 0
2, 369449, Note_on_c, 0, 81, 0
2, 369449, Note_on_c, 0, 77, 0
2, 369540, Note_on_c, 0, 79, 34
2, 369540, Note_on_c, 0, 64, 57
2, 369629, Note_on_c, 0, 64, 0
2, 369629, Note_on_c, 0, 79, 0
2, 369720, Note_on_c, 0, 81, 50
2, 369720, Note_on_c, 0, 84, 50
2, 369720, Note_on_c, 0, 62, 57
2, 369809, Note_on_c, 0, 62, 0
2, 369809, Note_on_c, 0, 84, 0
2, 369809, Note_on_c, 0, 81, 0
2, 369900, Note_on_c, 0, 86, 40
2, 369900, Note_on_c, 0, 60, 57
2, 369989, Note_on_c, 0, 60, 0
2, 369989, Note_on_c, 0, 86, 0
2, 370080, Note_on_c, 0, 81, 35
2, 370080, Note_on_c, 0, 84, 35
2, 370169, Note_on_c, 0, 84, 0
2, 370169, Note_on_c, 0, 81, 0
2, 370260, Note_on_c, 0, 79, 31
2, 370260, Note_on_c, 0, 60, 56
2, 370349, Note_on_c, 0, 60, 0
2, 370349, Note_on_c, 0, 79, 0
2, 370440, Note_on_c, 0, 77, 43
2, 370440, Note_on_c, 0, 81, 43
2, 370440, Note_on_c, 0, 62, 65
2, 370529, Note_on_c, 0, 62, 0
2, 370529, Note_on_c, 0, 81, 0
2, 370529, Note_on_c, 0, 77, 0
2, 370620, Note_on_c, 0, 76, 37
2, 370620, Note_on_c, 0, 64, 70
2, 370709, Note_on_c, 0, 64, 0
2, 370709, Note_on_c, 0, 76, 0
2, 370800, Note_on_c, 0, 74, 44
2, 370800, Note_on_c, 0, 77, 44
2, 370800, Note_on_c, 0, 65, 66
2, 370889, Note_on_c, 0, 65, 0
2, 370889, Note_on_c, 0, 77, 0
2, 370889, Note_on_c, 0, 74, 0
2, 370980, Note_on_c, 0, 76, 39
2, 370980, Note_on_c, 0, 67, 65
2, 371069, Note_on_c, 0, 67, 0
2, 371069, Note_on_c, 0, 76, 0
2, 371160, Note_on_c, 0, 74, 40
2, 371160, Note_on_c, 0, 69, 68
2, 371249, Note_on_c, 0, 69, 0
2, 371249, Note_on_c, 0, 74, 0
2, 371340, Note_on_c, 0, 77, 48
2, 371340, Note_on_c, 0, 70, 67
2, 371429, Note_on_c, 0, 70, 0
2, 371429, Note_on_c, 0, 77, 0
2, 371520, Note_on_c, 0, 81, 40
2, 371520, Note_on_c, 0, 72, 66
2, 371609, Note_on_c, 0, 81, 0
2, 371699, Note_on_c, 0, 72, 0
2, 371700, Note_on_c, 0, 84, 47
2, 371789, Note_on_c, 0, 84, 0
2, 371880, Note_on_c, 0, 88, 53
2, 371880, Note_on_c, 0, 73, 69
2, 371880, Note_on_c, 0, 76, 69
2, 371969, Note_on_c, 0, 88, 0
2, 372059, Note_on_c, 0, 76, 0
2, 372059, Note_on_c, 0, 73, 0
2, 372060, Note_on_c, 0, 91, 59
2, 372149, Note_on_c, 0, 91, 0
2, 372240, Note_on_c, 0, 89, 90
2, 372240, Note_on_c, 0, 93, 90
2, 372240, Note_on_c, 0, 77, 73
2, 372240, Note_on_c, 0, 81, 73
2, 372329, Note_on_c, 0, 93, 0
2, 372329, Note_on_c, 0, 89, 0
2, 372419, Note_on_c, 0, 77, 0
2, 372419, Note_on_c, 0, 81, 0
2, 372420, Note_on_c, 0, 88, 60
2, 372509, Note_on_c, 0, 88, 0
2, 372600, Note_on_c, 0, 86, 68
2, 372600, Note_on_c, 0, 89, 68
2, 372689, Note_on_c, 0, 89, 0
2, 372689, Note_on_c, 0, 86, 0
2, 372780, Note_on_c, 0, 84, 56
2, 372869, Note_on_c, 0, 84, 0
2, 372960, Note_on_c, 0, 86, 66
2, 372960, Note_on_c, 0, 89, 66
2, 372960, Note_on_c, 0, 69, 57
2, 373049, Note_on_c, 0, 69, 0
2, 373049, Note_on_c, 0, 89, 0
2, 373049, Note_on_c, 0, 86, 0
2, 373140, Note_on_c, 0, 82, 63
2, 373140, Note_on_c, 0, 70, 63
2, 373229, Note_on_c, 0, 70, 0
2, 373229, Note_on_c, 0, 82, 0
2, 373320, Note_on_c, 0, 84, 59
2, 373320, Note_on_c, 0, 88, 59
2, 373320, Note_on_c, 0, 72, 69
2, 373409, Note_on_c, 0, 72, 0
2, 373409, Note_on_c, 0, 88, 0
2, 373409, Note_on_c, 0, 84, 0
2, 373500, Note_on_c, 0, 79, 56
2, 373500, Note_on_c, 0, 70, 55
2, 373589, Note_on_c, 0, 70, 0
2, 373589, Note_on_c, 0, 79, 0
2, 373680, Note_on_c, 0, 81, 53
2, 373680, Note_on_c, 0, 84, 53
2, 373680, Note_on_c, 0, 72, 71
2, 373769, Note_on_c, 0, 72, 0
2, 373769, Note_on_c, 0, 84, 0
2, 373769, Note_on_c, 0, 81, 0
2, 373860, Note_on_c, 0, 76, 50
2, 373860, Note_on_c, 0, 70, 65
2, 373949, Note_on_c, 0, 70, 0
2, 373949, Note_on_c, 0, 76, 0
2, 374040, Note_on_c, 0, 77, 47
2, 374040, Note_on_c, 0, 81, 47
2, 374040, Note_on_c, 0, 69, 55
2, 374129, Note_on_c, 0, 69, 0
2, 374129, Note_on_c, 0, 81, 0
2, 374129, Note_on_c, 0, 77, 0
2, 374220, Note_on_c, 0, 72, 44
2, 374220, Note_on_c, 0, 67, 57
2, 374309, Note_on_c, 0, 67, 0
2, 374309, Note_on_c, 0, 72, 0
2, 374400, Note_on_c, 0, 74, 40
2, 374400, Note_on_c, 0, 65, 58
2, 374489, Note_on_c, 0, 65, 0
2, 374489, Note_on_c, 0, 74, 0
2, 374580, Note_on_c, 0, 86, 58
2, 374580, Note_on_c, 0, 89, 58
2, 374580, Note_on_c, 0, 67, 65
2, 374669, Note_on_c, 0, 67, 0
2, 374669, Note_on_c, 0, 89, 0
2, 374669, Note_on_c, 0, 86, 0
2, 374760, Note_on_c, 0, 84, 37
2, 374760, Note_on_c, 0, 69, 67
2, 374849, Note_on_c, 0, 69, 0
2, 374849, Note_on_c, 0, 84, 0
2, 374940, Note_on_c, 0, 82, 38
2, 374940, Note_on_c, 0, 70, 67
2, 375029, Note_on_c, 0, 70, 0
2, 375029, Note_on_c, 0, 82, 0
2, 375120, Note_on_c, 0, 81, 47
2, 375120, Note_on_c, 0, 84, 47
2, 375120, Note_on_c, 0, 72, 64
2, 375209, Note_on_c, 0, 84, 0
2, 375209, Note_on_c, 0, 81, 0
2, 375300, Note_on_c, 0, 79, 33
2, 375389, Note_on_c, 0, 79, 0
2, 375480, Note_on_c, 0, 72, 0
2, 375480, Note_on_c, 0, 77, 37
2, 375480, Note_on_c, 0, 60, 43
2, 375569, Note_on_c, 0, 60, 0
2, 375569, Note_on_c, 0, 77, 0
2, 375660, Note_on_c, 0, 76, 40
2, 375660, Note_on_c, 0, 61, 58
2, 375749, Note_on_c, 0, 61, 0
2, 375749, Note_on_c, 0, 76, 0
2, 375840, Note_on_c, 0, 74, 38
2, 375840, Note_on_c, 0, 62, 67
2, 375929, Note_on_c, 0, 62, 0
2, 375929, Note_on_c, 0, 74, 0
2, 376020, Note_on_c, 0, 82, 50
2, 376020, Note_on_c, 0, 86, 50
2, 376020, Note_on_c, 0, 64, 65
2, 376109, Note_on_c, 0, 64, 0
2, 376109, Note_on_c, 0, 86, 0
2, 376109, Note_on_c, 0, 82, 0
2, 376200, Note_on_c, 0, 81, 37
2, 376200, Note_on_c, 0, 65, 70
2, 376289, Note_on_c, 0, 65, 0
2, 376289, Note_on_c, 0, 81, 0
2, 376380, Note_on_c, 0, 79, 36
2, 376380, Note_on_c, 0, 67, 68
2, 376469, Note_on_c, 0, 67, 0
2, 376469, Note_on_c, 0, 79, 0
2, 376560, Note_on_c, 0, 77, 42
2, 376560, Note_on_c, 0, 81, 42
2, 376560, Note_on_c, 0, 69, 66
2, 376649, Note_on_c, 0, 81, 0
2, 376649, Note_on_c, 0, 77, 0
2, 376740, Note_on_c, 0, 76, 35
2, 376829, Note_on_c, 0, 76, 0
2, 376920, Note_on_c, 0, 69, 0
2, 376920, Note_on_c, 0, 74, 43
2, 376920, Note_on_c, 0, 77, 43
2, 376920, Note_on_c, 0, 55, 51
2, 377009, Note_on_c, 0, 55, 0
2, 377009, Note_on_c, 0, 77, 0
2, 377009, Note_on_c, 0, 74, 0
2, 377100, Note_on_c, 0, 72, 29
2, 377100, Note_on_c, 0, 57, 64
2, 377189, Note_on_c, 0, 57, 0
2, 377189, Note_on_c, 0, 72, 0
2, 377280, Note_on_c, 0, 74, 42
2, 377280, Note_on_c, 0, 58, 59
2, 377369, Note_on_c, 0, 58, 0
2, 377369, Note_on_c, 0, 74, 0
2, 377460, Note_on_c, 0, 76, 44
2, 377460, Note_on_c, 0, 60, 71
2, 377549, Note_on_c, 0, 60, 0
2, 377549, Note_on_c, 0, 76, 0
2, 377640, Note_on_c, 0, 77, 40
2, 377640, Note_on_c, 0, 62, 65
2, 377729, Note_on_c, 0, 62, 0
2, 377729, Note_on_c, 0, 77, 0
2, 377820, Note_on_c, 0, 76, 41
2, 377820, Note_on_c, 0, 60, 58
2, 377909, Note_on_c, 0, 60, 0
2, 377909, Note_on_c, 0, 76, 0
2, 378000, Note_on_c, 0, 77, 41
2, 378000, Note_on_c, 0, 62, 70
2, 378089, Note_on_c, 0, 62, 0
2, 378089, Note_on_c, 0, 77, 0
2, 378180, Note_on_c, 0, 79, 46
2, 378180, Note_on_c, 0, 64, 68
2, 378269, Note_on_c, 0, 64, 0
2, 378269, Note_on_c, 0, 79, 0
2, 378360, Note_on_c, 0, 81, 45
2, 378360, Note_on_c, 0, 65, 63
2, 378449, Note_on_c, 0, 65, 0
2, 378449, Note_on_c, 0, 81, 0
2, 378540, Note_on_c, 0, 79, 38
2, 378540, Note_on_c, 0, 64, 58
2, 378629, Note_on_c, 0, 64, 0
2, 378629, Note_on_c, 0, 79, 0
2, 378720, Note_on_c, 0, 77, 39
2, 378720, Note_on_c, 0, 65, 65
2, 378809, Note_on_c, 0, 65, 0
2, 378809, Note_on_c, 0, 77, 0
2, 378900, Note_on_c, 0, 76, 41
2, 378900, Note_on_c, 0, 67, 64
2, 378989, Note_on_c, 0, 67, 0
2, 378989, Note_on_c, 0, 76, 0
2, 379080, Note_on_c, 0, 74, 37
2, 379080, Note_on_c, 0, 69, 64
2, 379169, Note_on_c, 0, 69, 0
2, 379169, Note_on_c, 0, 74, 0
2, 379260, Note_on_c, 0, 76, 42
2, 379260, Note_on_c, 0, 67, 58
2, 379349, Note_on_c, 0, 67, 0
2, 379349, Note_on_c, 0, 76, 0
2, 379440, Note_on_c, 0, 73, 33
2, 379440, Note_on_c, 0, 69, 67
2, 379529, Note_on_c, 0, 73, 0
2, 379620, Note_on_c, 0, 76, 49
2, 379709, Note_on_c, 0, 76, 0
2, 379800, Note_on_c, 0, 69, 0
2, 379800, Note_on_c, 0, 77, 43
2, 379800, Note_on_c, 0, 69, 61
2, 379889, Note_on_c, 0, 69, 0
2, 379889, Note_on_c, 0, 77, 0
2, 379980, Note_on_c, 0, 79, 39
2, 379980, Note_on_c, 0, 70, 65
2, 380069, Note_on_c, 0, 70, 0
2, 380069, Note_on_c, 0, 79, 0
2, 380160, Note_on_c, 0, 81, 40
2, 380160, Note_on_c, 0, 72, 66
2, 380249, Note_on_c, 0, 72, 0
2, 380340, Note_on_c, 0, 70, 62
2, 380429, Note_on_c, 0, 70, 0
2, 380520, Note_on_c, 0, 81, 0
2, 380520, Note_on_c, 0, 81, 44
2, 380520, Note_on_c, 0, 84, 44
2, 380520, Note_on_c, 0, 69, 61
2, 380609, Note_on_c, 0, 69, 0
2, 380609, Note_on_c, 0, 84, 0
2, 380609, Note_on_c, 0, 81, 0
2, 380700, Note_on_c, 0, 79, 30
2, 380700, Note_on_c, 0, 67, 58
2, 380789, Note_on_c, 0, 67, 0
2, 380789, Note_on_c, 0, 79, 0
2, 380880, Note_on_c, 0, 77, 41
2, 380880, Note_on_c, 0, 81, 41
2, 380880, Note_on_c, 0, 65, 57
2, 380969, Note_on_c, 0, 65, 0
2, 380969, Note_on_c, 0, 81, 0
2, 380969, Note_on_c, 0, 77, 0
2, 381060, Note_on_c, 0, 79, 39
2, 381060, Note_on_c, 0, 64, 55
2, 381149, Note_on_c, 0, 64, 0
2, 381149, Note_on_c, 0, 79, 0
2, 381240, Note_on_c, 0, 81, 45
2, 381240, Note_on_c, 0, 62, 57
2, 381329, Note_on_c, 0, 62, 0
2, 381329, Note_on_c, 0, 81, 0
2, 381420, Note_on_c, 0, 82, 37
2, 381420, Note_on_c, 0, 60, 60
2, 381509, Note_on_c, 0, 60, 0
2, 381509, Note_on_c, 0, 82, 0
2, 381600, Note_on_c, 0, 81, 45
2, 381600, Note_on_c, 0, 84, 45
2, 381689, Note_on_c, 0, 84, 0
2, 381689, Note_on_c, 0, 81, 0
2, 381780, Note_on_c, 0, 79, 34
2, 381780, Note_on_c, 0, 60, 54
2, 381869, Note_on_c, 0, 60, 0
2, 381869, Note_on_c, 0, 79, 0
2, 381960, Note_on_c, 0, 77, 44
2, 381960, Note_on_c, 0, 81, 44
2, 381960, Note_on_c, 0, 62, 70
2, 382049, Note_on_c, 0, 62, 0
2, 382049, Note_on_c, 0, 81, 0
2, 382049, Note_on_c, 0, 77, 0
2, 382140, Note_on_c, 0, 76, 29
2, 382140, Note_on_c, 0, 64, 65
2, 382229, Note_on_c, 0, 64, 0
2, 382229, Note_on_c, 0, 76, 0
2, 382320, Note_on_c, 0, 74, 44
2, 382320, Note_on_c, 0, 77, 44
2, 382320, Note_on_c, 0, 65, 62
2, 382409, Note_on_c, 0, 65, 0
2, 382409, Note_on_c, 0, 77, 0
2, 382409, Note_on_c, 0, 74, 0
2, 382500, Note_on_c, 0, 76, 42
2, 382500, Note_on_c, 0, 67, 63
2, 382589, Note_on_c, 0, 67, 0
2, 382589, Note_on_c, 0, 76, 0
2, 382680, Note_on_c, 0, 74, 36
2, 382680, Note_on_c, 0, 69, 66
2, 382769, Note_on_c, 0, 69, 0
2, 382769, Note_on_c, 0, 74, 0
2, 382860, Note_on_c, 0, 77, 44
2, 382860, Note_on_c, 0, 70, 65
2, 382949, Note_on_c, 0, 70, 0
2, 382949, Note_on_c, 0, 77, 0
2, 383040, Note_on_c, 0, 81, 40
2, 383040, Note_on_c, 0, 72, 66
2, 383129, Note_on_c, 0, 81, 0
2, 383219, Note_on_c, 0, 72, 0
2, 383220, Note_on_c, 0, 84, 47
2, 383309, Note_on_c, 0, 84, 0
2, 383400, Note_on_c, 0, 86, 53
2, 383400, Note_on_c, 0, 74, 72
2, 383400, Note_on_c, 0, 77, 72
2, 383489, Note_on_c, 0, 86, 0
2, 383579, Note_on_c, 0, 77, 0
2, 383579, Note_on_c, 0, 74, 0
2, 383580, Note_on_c, 0, 89, 59
2, 383669, Note_on_c, 0, 89, 0
2, 383760, Note_on_c, 0, 91, 98
2, 383760, Note_on_c, 0, 94, 98
2, 383760, Note_on_c, 0, 79, 73
2, 383760, Note_on_c, 0, 82, 73
2, 383849, Note_on_c, 0, 94, 0
2, 383849, Note_on_c, 0, 91, 0
2, 383939, Note_on_c, 0, 79, 0
2, 383939, Note_on_c, 0, 82, 0
2, 383940, Note_on_c, 0, 89, 57
2, 384029, Note_on_c, 0, 89, 0
2, 384120, Note_on_c, 0, 88, 68
2, 384120, Note_on_c, 0, 91, 68
2, 384120, Note_on_c, 0, 67, 47
2, 384209, Note_on_c, 0, 67, 0
2, 384209, Note_on_c, 0, 91, 0
2, 384209, Note_on_c, 0, 88, 0
2, 384300, Note_on_c, 0, 86, 60
2, 384300, Note_on_c, 0, 69, 63
2, 384389, Note_on_c, 0, 69, 0
2, 384389, Note_on_c, 0, 86, 0
2, 384480, Note_on_c, 0, 70, 62
2, 384569, Note_on_c, 0, 70, 0
2, 384660, Note_on_c, 0, 89, 63
2, 384660, Note_on_c, 0, 69, 55
2, 384749, Note_on_c, 0, 69, 0
2, 384749, Note_on_c, 0, 89, 0
2, 384840, Note_on_c, 0, 91, 59
2, 384840, Note_on_c, 0, 67, 52
2, 384929, Note_on_c, 0, 67, 0
2, 384929, Note_on_c, 0, 91, 0
2, 385020, Note_on_c, 0, 93, 56
2, 385020, Note_on_c, 0, 69, 63
2, 385109, Note_on_c, 0, 69, 0
2, 385109, Note_on_c, 0, 93, 0
2, 385200, Note_on_c, 0, 88, 53
2, 385200, Note_on_c, 0, 91, 53
2, 385200, Note_on_c, 0, 67, 56
2, 385289, Note_on_c, 0, 67, 0
2, 385289, Note_on_c, 0, 91, 0
2, 385289, Note_on_c, 0, 88, 0
2, 385380, Note_on_c, 0, 86, 50
2, 385380, Note_on_c, 0, 69, 64
2, 385469, Note_on_c, 0, 69, 0
2, 385469, Note_on_c, 0, 86, 0
2, 385560, Note_on_c, 0, 84, 47
2, 385560, Note_on_c, 0, 88, 47
2, 385560, Note_on_c, 0, 70, 69
2, 385649, Note_on_c, 0, 70, 0
2, 385649, Note_on_c, 0, 88, 0
2, 385649, Note_on_c, 0, 84, 0
2, 385740, Note_on_c, 0, 91, 44
2, 385740, Note_on_c, 0, 72, 66
2, 385829, Note_on_c, 0, 72, 0
2, 385829, Note_on_c, 0, 91, 0
2, 385920, Note_on_c, 0, 86, 40
2, 385920, Note_on_c, 0, 89, 40
2, 385920, Note_on_c, 0, 74, 66
2, 386009, Note_on_c, 0, 74, 0
2, 386009, Note_on_c, 0, 89, 0
2, 386009, Note_on_c, 0, 86, 0
2, 386100, Note_on_c, 0, 91, 45
2, 386100, Note_on_c, 0, 72, 61
2, 386189, Note_on_c, 0, 72, 0
2, 386189, Note_on_c, 0, 91, 0
2, 386280, Note_on_c, 0, 86, 33
2, 386280, Note_on_c, 0, 89, 33
2, 386280, Note_on_c, 0, 74, 69
2, 386369, Note_on_c, 0, 74, 0
2, 386369, Note_on_c, 0, 89, 0
2, 386369, Note_on_c, 0, 86, 0
2, 386460, Note_on_c, 0, 84, 31
2, 386460, Note_on_c, 0, 76, 64
2, 386549, Note_on_c, 0, 76, 0
2, 386549, Note_on_c, 0, 84, 0
2, 386640, Note_on_c, 0, 82, 41
2, 386640, Note_on_c, 0, 86, 41
2, 386640, Note_on_c, 0, 77, 65
2, 386729, Note_on_c, 0, 77, 0
2, 386729, Note_on_c, 0, 86, 0
2, 386729, Note_on_c, 0, 82, 0
2, 386820, Note_on_c, 0, 88, 43
2, 386820, Note_on_c, 0, 76, 66
2, 386909, Note_on_c, 0, 76, 0
2, 386909, Note_on_c, 0, 88, 0
2, 387000, Note_on_c, 0, 82, 41
2, 387000, Note_on_c, 0, 86, 41
2, 387000, Note_on_c, 0, 74, 60
2, 387089, Note_on_c, 0, 74, 0
2, 387089, Note_on_c, 0, 86, 0
2, 387089, Note_on_c, 0, 82, 0
2, 387180, Note_on_c, 0, 81, 30
2, 387180, Note_on_c, 0, 72, 59
2, 387269, Note_on_c, 0, 72, 0
2, 387269, Note_on_c, 0, 81, 0
2, 387360, Note_on_c, 0, 79, 40
2, 387360, Note_on_c, 0, 82, 40
2, 387360, Note_on_c, 0, 74, 65
2, 387449, Note_on_c, 0, 82, 0
2, 387449, Note_on_c, 0, 79, 0
2, 387539, Note_on_c, 0, 74, 0
2, 387540, Note_on_c, 0, 86, 40
2, 387629, Note_on_c, 0, 86, 0
2, 387720, Note_on_c, 0, 81, 38
2, 387720, Note_on_c, 0, 84, 38
2, 387720, Note_on_c, 0, 72, 58
2, 387809, Note_on_c, 0, 72, 0
2, 387809, Note_on_c, 0, 84, 0
2, 387809, Note_on_c, 0, 81, 0
2, 387900, Note_on_c, 0, 79, 35
2, 387900, Note_on_c, 0, 70, 54
2, 387989, Note_on_c, 0, 70, 0
2, 387989, Note_on_c, 0, 79, 0
2, 388080, Note_on_c, 0, 77, 41
2, 388080, Note_on_c, 0, 81, 41
2, 388080, Note_on_c, 0, 69, 63
2, 388169, Note_on_c, 0, 81, 0
2, 388169, Note_on_c, 0, 77, 0
2, 388259, Note_on_c, 0, 69, 0
2, 388260, Note_on_c, 0, 82, 44
2, 388349, Note_on_c, 0, 82, 0
2, 388440, Note_on_c, 0, 77, 34
2, 388440, Note_on_c, 0, 81, 34
2, 388529, Note_on_c, 0, 81, 0
2, 388529, Note_on_c, 0, 77, 0
2, 388620, Note_on_c, 0, 76, 34
2, 388709, Note_on_c, 0, 76, 0
2, 388800, Note_on_c, 0, 74, 36
2, 388800, Note_on_c, 0, 77, 36
2, 388889, Note_on_c, 0, 77, 0
2, 388889, Note_on_c, 0, 74, 0
2, 388980, Note_on_c, 0, 81, 49
2, 388980, Note_on_c, 0, 60, 53
2, 389069, Note_on_c, 0, 60, 0
2, 389069, Note_on_c, 0, 81, 0
2, 389160, Note_on_c, 0, 76, 39
2, 389160, Note_on_c, 0, 79, 39
2, 389160, Note_on_c, 0, 62, 65
2, 389249, Note_on_c, 0, 62, 0
2, 389249, Note_on_c, 0, 79, 0
2, 389249, Note_on_c, 0, 76, 0
2, 389340, Note_on_c, 0, 74, 33
2, 389340, Note_on_c, 0, 64, 70
2, 389429, Note_on_c, 0, 64, 0
2, 389429, Note_on_c, 0, 74, 0
2, 389520, Note_on_c, 0, 72, 47
2, 389520, Note_on_c, 0, 76, 47
2, 389520, Note_on_c, 0, 65, 61
2, 389609, Note_on_c, 0, 65, 0
2, 389609, Note_on_c, 0, 76, 0
2, 389609, Note_on_c, 0, 72, 0
2, 389700, Note_on_c, 0, 74, 39
2, 389700, Note_on_c, 0, 67, 69
2, 389789, Note_on_c, 0, 67, 0
2, 389789, Note_on_c, 0, 74, 0
2, 389880, Note_on_c, 0, 69, 68
2, 389969, Note_on_c, 0, 69, 0
2, 390060, Note_on_c, 0, 70, 60
2, 390149, Note_on_c, 0, 70, 0
2, 390240, Note_on_c, 0, 74, 31
2, 390240, Note_on_c, 0, 69, 61
2, 390329, Note_on_c, 0, 69, 0
2, 390329, Note_on_c, 0, 74, 0
2, 390420, Note_on_c, 0, 76, 42
2, 390420, Note_on_c, 0, 67, 58
2, 390509, Note_on_c, 0, 67, 0
2, 390509, Note_on_c, 0, 76, 0
2, 390600, Note_on_c, 0, 77, 47
2, 390600, Note_on_c, 0, 65, 56
2, 390689, Note_on_c, 0, 65, 0
2, 390689, Note_on_c, 0, 77, 0
2, 390780, Note_on_c, 0, 79, 45
2, 390780, Note_on_c, 0, 64, 59
2, 390869, Note_on_c, 0, 64, 0
2, 390869, Note_on_c, 0, 79, 0
2, 390960, Note_on_c, 0, 81, 48
2, 390960, Note_on_c, 0, 69, 72
2, 391049, Note_on_c, 0, 81, 0
2, 391140, Note_on_c, 0, 80, 39
2, 391229, Note_on_c, 0, 80, 0
2, 391320, Note_on_c, 0, 81, 43
2, 391409, Note_on_c, 0, 81, 0
2, 391500, Note_on_c, 0, 92, 52
2, 391589, Note_on_c, 0, 92, 0
2, 391680, Note_on_c, 0, 69, 0
2, 391680, Note_on_c, 0, 93, 46
2, 391769, Note_on_c, 0, 93, 0
2, 391860, Note_on_c, 0, 89, 31
2, 391949, Note_on_c, 0, 89, 0
2, 392040, Note_on_c, 0, 91, 45
2, 392040, Note_on_c, 0, 69, 53
2, 392129, Note_on_c, 0, 69, 0
2, 392129, Note_on_c, 0, 91, 0
2, 392220, Note_on_c, 0, 88, 33
2, 392220, Note_on_c, 0, 80, 76
2, 392309, Note_on_c, 0, 80, 0
2, 392309, Note_on_c, 0, 88, 0
2, 392400, Note_on_c, 0, 81, 42
2, 392400, Note_on_c, 0, 89, 42
2, 392400, Note_on_c, 0, 69, 47
2, 392489, Note_on_c, 0, 69, 0
2, 392489, Note_on_c, 0, 89, 0
2, 392489, Note_on_c, 0, 81, 0
2, 392580, Note_on_c, 0, 80, 37
2, 392580, Note_on_c, 0, 86, 37
2, 392580, Note_on_c, 0, 76, 75
2, 392669, Note_on_c, 0, 76, 0
2, 392669, Note_on_c, 0, 86, 0
2, 392669, Note_on_c, 0, 80, 0
2, 392760, Note_on_c, 0, 81, 30
2, 392760, Note_on_c, 0, 77, 67
2, 392849, Note_on_c, 0, 77, 0
2, 392849, Note_on_c, 0, 81, 0
2, 392940, Note_on_c, 0, 80, 40
2, 392940, Note_on_c, 0, 74, 53
2, 393029, Note_on_c, 0, 74, 0
2, 393029, Note_on_c, 0, 80, 0
2, 393120, Note_on_c, 0, 81, 45
2, 393120, Note_on_c, 0, 76, 73
2, 393120, Note_on_c, 0, 79, 73
2, 393209, Note_on_c, 0, 79, 0
2, 393209, Note_on_c, 0, 76, 0
2, 393300, Note_on_c, 0, 73, 51
2, 393389, Note_on_c, 0, 73, 0
2, 393480, Note_on_c, 0, 81, 0
2, 393480, Note_on_c, 0, 74, 38
2, 393480, Note_on_c, 0, 77, 38
2, 393480, Note_on_c, 0, 69, 51
2, 393569, Note_on_c, 0, 69, 0
2, 393569, Note_on_c, 0, 77, 0
2, 393569, Note_on_c, 0, 74, 0
2, 393660, Note_on_c, 0, 80, 50
2, 393749, Note_on_c, 0, 80, 0
2, 393840, Note_on_c, 0, 81, 44
2, 393929, Note_on_c, 0, 81, 0
2, 394020, Note_on_c, 0, 80, 41
2, 394109, Note_on_c, 0, 80, 0
2, 394200, Note_on_c, 0, 81, 42
2, 394200, Note_on_c, 0, 69, 53
2, 394289, Note_on_c, 0, 69, 0
2, 394289, Note_on_c, 0, 81, 0
2, 394380, Note_on_c, 0, 77, 39
2, 394380, Note_on_c, 0, 80, 39
2, 394469, Note_on_c, 0, 80, 0
2, 394469, Note_on_c, 0, 77, 0
2, 394560, Note_on_c, 0, 79, 44
2, 394560, Note_on_c, 0, 81, 44
2, 394649, Note_on_c, 0, 81, 0
2, 394649, Note_on_c, 0, 79, 0
2, 394740, Note_on_c, 0, 77, 38
2, 394740, Note_on_c, 0, 80, 38
2, 394829, Note_on_c, 0, 80, 0
2, 394829, Note_on_c, 0, 77, 0
2, 394920, Note_on_c, 0, 79, 41
2, 394920, Note_on_c, 0, 81, 41
2, 394920, Note_on_c, 0, 69, 56
2, 395009, Note_on_c, 0, 69, 0
2, 395009, Note_on_c, 0, 81, 0
2, 395009, Note_on_c, 0, 79, 0
2, 395100, Note_on_c, 0, 76, 37
2, 395100, Note_on_c, 0, 80, 37
2, 395189, Note_on_c, 0, 80, 0
2, 395189, Note_on_c, 0, 76, 0
2, 395280, Note_on_c, 0, 77, 43
2, 395280, Note_on_c, 0, 81, 43
2, 395369, Note_on_c, 0, 81, 0
2, 395369, Note_on_c, 0, 77, 0
2, 395460, Note_on_c, 0, 74, 40
2, 395460, Note_on_c, 0, 80, 40
2, 395549, Note_on_c, 0, 80, 0
2, 395549, Note_on_c, 0, 74, 0
2, 395640, Note_on_c, 0, 76, 48
2, 395640, Note_on_c, 0, 81, 48
2, 395640, Note_on_c, 0, 57, 49
2, 395729, Note_on_c, 0, 57, 0
2, 395729, Note_on_c, 0, 81, 0
2, 395729, Note_on_c, 0, 76, 0
2, 395820, Note_on_c, 0, 73, 35
2, 395820, Note_on_c, 0, 68, 77
2, 395909, Note_on_c, 0, 68, 0
2, 395909, Note_on_c, 0, 73, 0
2, 396000, Note_on_c, 0, 74, 39
2, 396000, Note_on_c, 0, 69, 68
2, 396089, Note_on_c, 0, 69, 0
2, 396089, Note_on_c, 0, 74, 0
2, 396180, Note_on_c, 0, 68, 36
2, 396180, Note_on_c, 0, 65, 53
2, 396269, Note_on_c, 0, 65, 0
2, 396269, Note_on_c, 0, 68, 0
2, 396360, Note_on_c, 0, 69, 46
2, 396360, Note_on_c, 0, 57, 67
2, 396360, Note_on_c, 0, 67, 67
2, 396449, Note_on_c, 0, 67, 0
2, 396449, Note_on_c, 0, 57, 0
2, 396449, Note_on_c, 0, 69, 0
2, 396540, Note_on_c, 0, 68, 32
2, 396540, Note_on_c, 0, 64, 53
2, 396629, Note_on_c, 0, 64, 0
2, 396629, Note_on_c, 0, 68, 0
2, 396720, Note_on_c, 0, 69, 37
2, 396720, Note_on_c, 0, 65, 65
2, 396809, Note_on_c, 0, 65, 0
2, 396809, Note_on_c, 0, 69, 0
2, 396900, Note_on_c, 0, 62, 54
2, 396989, Note_on_c, 0, 62, 0
2, 397080, Note_on_c, 0, 67, 35
2, 397080, Note_on_c, 0, 57, 68
2, 397080, Note_on_c, 0, 64, 68
2, 397169, Note_on_c, 0, 64, 0
2, 397169, Note_on_c, 0, 57, 0
2, 397169, Note_on_c, 0, 67, 0
2, 397260, Note_on_c, 0, 61, 54
2, 397349, Note_on_c, 0, 61, 0
2, 397440, Note_on_c, 0, 69, 38
2, 397440, Note_on_c, 0, 57, 67
2, 397440, Note_on_c, 0, 65, 67
2, 397529, Note_on_c, 0, 65, 0
2, 397529, Note_on_c, 0, 57, 0
2, 397529, Note_on_c, 0, 69, 0
2, 397620, Note_on_c, 0, 80, 53
2, 397620, Note_on_c, 0, 62, 58
2, 397709, Note_on_c, 0, 62, 0
2, 397709, Note_on_c, 0, 80, 0
2, 397800, Note_on_c, 0, 81, 45
2, 397800, Note_on_c, 0, 57, 52
2, 397889, Note_on_c, 0, 57, 0
2, 397889, Note_on_c, 0, 81, 0
2, 397980, Note_on_c, 0, 77, 36
2, 397980, Note_on_c, 0, 68, 78
2, 398069, Note_on_c, 0, 68, 0
2, 398069, Note_on_c, 0, 77, 0
2, 398160, Note_on_c, 0, 79, 40
2, 398160, Note_on_c, 0, 69, 68
2, 398249, Note_on_c, 0, 69, 0
2, 398249, Note_on_c, 0, 79, 0
2, 398340, Note_on_c, 0, 76, 41
2, 398340, Note_on_c, 0, 68, 55
2, 398429, Note_on_c, 0, 68, 0
2, 398429, Note_on_c, 0, 76, 0
2, 398520, Note_on_c, 0, 77, 42
2, 398520, Note_on_c, 0, 57, 69
2, 398520, Note_on_c, 0, 69, 69
2, 398609, Note_on_c, 0, 69, 0
2, 398609, Note_on_c, 0, 57, 0
2, 398609, Note_on_c, 0, 77, 0
2, 398700, Note_on_c, 0, 74, 40
2, 398700, Note_on_c, 0, 68, 53
2, 398789, Note_on_c, 0, 68, 0
2, 398789, Note_on_c, 0, 74, 0
2, 398880, Note_on_c, 0, 69, 67
2, 398969, Note_on_c, 0, 69, 0
2, 399060, Note_on_c, 0, 68, 58
2, 399149, Note_on_c, 0, 68, 0
2, 399240, Note_on_c, 0, 57, 38
2, 399240, Note_on_c, 0, 69, 65
2, 399329, Note_on_c, 0, 69, 0
2, 399420, Note_on_c, 0, 57, 0
2, 399420, Note_on_c, 0, 68, 62
2, 399509, Note_on_c, 0, 68, 0
2, 399600, Note_on_c, 0, 69, 67
2, 399689, Note_on_c, 0, 69, 0
2, 399780, Note_on_c, 0, 68, 57
2, 399869, Note_on_c, 0, 68, 0
2, 399960, Note_on_c, 0, 69, 63
2, 400139, Note_on_c, 0, 69, 0
2, 413280, Note_on_c, 0, 59, 70
2, 413280, Note_on_c, 0, 66, 70
2, 413459, Note_on_c, 0, 66, 0
2, 413459, Note_on_c, 0, 59, 0
2, 413820, Note_on_c, 0, 59, 79
2, 414000, Note_on_c, 0, 59, 0
2, 414000, Note_on_c, 0, 59, 97
2, 415080, Note_on_c, 0, 59, 0
2, 415260, Note_on_c, 0, 59, 80
2, 415440, Note_on_c, 0, 59, 0
2, 415440, Note_on_c, 0, 59, 97
2, 416520, Note_on_c, 0, 59, 0
2, 416520, Note_on_c, 0, 59, 102
2, 417153, Note_on_c, 0, 59, 0
2, 417240, Note_on_c, 0, 59, 99
2, 417960, Note_on_c, 0, 59, 0
2, 417960, Note_on_c, 0, 59, 101
2, 418593, Note_on_c, 0, 59, 0
2, 418680, Note_on_c, 0, 59, 98
2, 418860, Note_on_c, 0, 60, 33
2, 418860, Note_on_c, 0, 63, 33
2, 418997, Note_on_c, 0, 59, 0
2, 419040, Note_on_c, 0, 63, 0
2, 419040, Note_on_c, 0, 60, 0
2, 419040, Note_on_c, 0, 59, 63
2, 419040, Note_on_c, 0, 62, 63
2, 419400, Note_on_c, 0, 62, 0
2, 419400, Note_on_c, 0, 59, 0
2, 419580, Note_on_c, 0, 64, 33
2, 419760, Note_on_c, 0, 64, 0
2, 419760, Note_on_c, 0, 64, 38
2, 420300, Note_on_c, 0, 60, 78
2, 420300, Note_on_c, 0, 63, 78
2, 420480, Note_on_c, 0, 63, 0
2, 420480, Note_on_c, 0, 60, 0
2, 420480, Note_on_c, 0, 59, 108
2, 420480, Note_on_c, 0, 62, 108
2, 420660, Note_on_c, 0, 62, 0
2, 420660, Note_on_c, 0, 59, 0
2, 420840, Note_on_c, 0, 64, 0
2, 421020, Note_on_c, 0, 64, 33
2, 421200, Note_on_c, 0, 64, 0
2, 421200, Note_on_c, 0, 64, 40
2, 421740, Note_on_c, 0, 60, 81
2, 421740, Note_on_c, 0, 63, 81
2, 421920, Note_on_c, 0, 63, 0
2, 421920, Note_on_c, 0, 60, 0
2, 421920, Note_on_c, 0, 59, 104
2, 421920, Note_on_c, 0, 62, 104
2, 422280, Note_on_c, 0, 62, 0
2, 422280, Note_on_c, 0, 59, 0
2, 422280, Note_on_c, 0, 64, 0
2, 422280, Note_on_c, 0, 64, 38
2, 422460, Note_on_c, 0, 59, 82
2, 422460, Note_on_c, 0, 62, 82
2, 422640, Note_on_c, 0, 62, 0
2, 422640, Note_on_c, 0, 59, 0
2, 422640, Note_on_c, 0, 57, 110
2, 422640, Note_on_c, 0, 62, 110
2, 423000, Note_on_c, 0, 62, 0
2, 423000, Note_on_c, 0, 57, 0
2, 423000, Note_on_c, 0, 64, 0
2, 423000, Note_on_c, 0, 64, 40
2, 423180, Note_on_c, 0, 57, 79
2, 423180, Note_on_c, 0, 62, 79
2, 423360, Note_on_c, 0, 62, 0
2, 423360, Note_on_c, 0, 57, 0
2, 423360, Note_on_c, 0, 55, 113
2, 423360, Note_on_c, 0, 62, 113
2, 423720, Note_on_c, 0, 62, 0
2, 423720, Note_on_c, 0, 55, 0
2, 423720, Note_on_c, 0, 64, 0
2, 423720, Note_on_c, 0, 64, 42
2, 423900, Note_on_c, 0, 55, 76
2, 423900, Note_on_c, 0, 62, 76
2, 424080, Note_on_c, 0, 62, 0
2, 424080, Note_on_c, 0, 55, 0
2, 424080, Note_on_c, 0, 56, 110
2, 424080, Note_on_c, 0, 62, 110
2, 424440, Note_on_c, 0, 62, 0
2, 424440, Note_on_c, 0, 56, 0
2, 424440, Note_on_c, 0, 64, 0
2, 424440, Note_on_c, 0, 64, 36
2, 424620, Note_on_c, 0, 56, 81
2, 424620, Note_on_c, 0, 62, 81
2, 424800, Note_on_c, 0, 62, 0
2, 424800, Note_on_c, 0, 56, 0
2, 424800, Note_on_c, 0, 64, 0
2, 424800, Note_on_c, 0, 55, 117
2, 424800, Note_on_c, 0, 64, 117
2, 425160, Note_on_c, 0, 64, 0
2, 425160, Note_on_c, 0, 55, 0
2, 425340, Note_on_c, 0, 68, 73
2, 425520, Note_on_c, 0, 68, 0
2, 425520, Note_on_c, 0, 69, 93
2, 425700, Note_on_c, 0, 80, 88
2, 425880, Note_on_c, 0, 80, 0
2, 425880, Note_on_c, 0, 81, 106
2, 426060, Note_on_c, 0, 81, 0
2, 426060, Note_on_c, 0, 69, 0
2, 426060, Note_on_c, 0, 64, 88
2, 426060, Note_on_c, 0, 69, 88
2, 426240, Note_on_c, 0, 69, 0
2, 426240, Note_on_c, 0, 64, 0
2, 426240, Note_on_c, 0, 65, 117
2, 426240, Note_on_c, 0, 69, 117
2, 426240, Note_on_c, 0, 71, 117
2, 426600, Note_on_c, 0, 71, 0
2, 426600, Note_on_c, 0, 69, 0
2, 426600, Note_on_c, 0, 65, 0
2, 426780, Note_on_c, 0, 69, 73
2, 426960, Note_on_c, 0, 69, 0
2, 426960, Note_on_c, 0, 71, 93
2, 426960, Note_on_c, 0, 69, 85
2, 427140, Note_on_c, 0, 71, 0
2, 427140, Note_on_c, 0, 80, 116
2, 427320, Note_on_c, 0, 80, 0
2, 427320, Note_on_c, 0, 81, 116
2, 427500, Note_on_c, 0, 81, 0
2, 427500, Note_on_c, 0, 71, 73
2, 427500, Note_on_c, 0, 65, 21
2, 427680, Note_on_c, 0, 65, 0
2, 427680, Note_on_c, 0, 71, 0
2, 427680, Note_on_c, 0, 72, 106
2, 427680, Note_on_c, 0, 66, 50
2, 428040, Note_on_c, 0, 66, 0
2, 428040, Note_on_c, 0, 72, 0
2, 428040, Note_on_c, 0, 69, 0
2, 428040, Note_on_c, 0, 72, 103
2, 428040, Note_on_c, 0, 69, 84
2, 428220, Note_on_c, 0, 72, 0
2, 428220, Note_on_c, 0, 80, 116
2, 428220, Note_on_c, 0, 66, 20
2, 428400, Note_on_c, 0, 66, 0
2, 428400, Note_on_c, 0, 80, 0
2, 428400, Note_on_c, 0, 81, 112
2, 428400, Note_on_c, 0, 67, 53
2, 428580, Note_on_c, 0, 81, 0
2, 428580, Note_on_c, 0, 72, 79
2, 428760, Note_on_c, 0, 72, 0
2, 428760, Note_on_c, 0, 67, 0
2, 428760, Note_on_c, 0, 69, 0
2, 428760, Note_on_c, 0, 73, 96
2, 428760, Note_on_c, 0, 69, 84
2, 428940, Note_on_c, 0, 73, 0
2, 428940, Note_on_c, 0, 80, 116
2, 428940, Note_on_c, 0, 68, 21
2, 429120, Note_on_c, 0, 68, 0
2, 429120, Note_on_c, 0, 80, 0
2, 429120, Note_on_c, 0, 69, 0
2, 429120, Note_on_c, 0, 81, 110
2, 429120, Note_on_c, 0, 69, 49
2, 429480, Note_on_c, 0, 69, 0
2, 429480, Note_on_c, 0, 81, 0
2, 429480, Note_on_c, 0, 69, 23
2, 429660, Note_on_c, 0, 80, 87
2, 429660, Note_on_c, 0, 70, 84
2, 429840, Note_on_c, 0, 70, 0
2, 429840, Note_on_c, 0, 80, 0
2, 429840, Note_on_c, 0, 81, 107
2, 429840, Note_on_c, 0, 71, 116
2, 430200, Note_on_c, 0, 71, 0
2, 430200, Note_on_c, 0, 81, 0
2, 430200, Note_on_c, 0, 69, 0
2, 430200, Note_on_c, 0, 69, 49
2, 430380, Note_on_c, 0, 82, 97
2, 430380, Note_on_c, 0, 71, 76
2, 430560, Note_on_c, 0, 71, 0
2, 430560, Note_on_c, 0, 82, 0
2, 430560, Note_on_c, 0, 69, 0
2, 430560, Note_on_c, 0, 74, 112
2, 430560, Note_on_c, 0, 76, 112
2, 430560, Note_on_c, 0, 83, 112
2, 430560, Note_on_c, 0, 71, 110
2, 430740, Note_on_c, 0, 71, 0
2, 430740, Note_on_c, 0, 74, 0
2, 430740, Note_on_c, 0, 76, 0
2, 430740, Note_on_c, 0, 83, 0
2, 430740, Note_on_c, 0, 82, 95
2, 430740, Note_on_c, 0, 70, 81
2, 430920, Note_on_c, 0, 70, 0
2, 430920, Note_on_c, 0, 82, 0
2, 430920, Note_on_c, 0, 83, 109
2, 430920, Note_on_c, 0, 71, 89
2, 431100, Note_on_c, 0, 71, 0
2, 431100, Note_on_c, 0, 83, 0
2, 431100, Note_on_c, 0, 74, 79
2, 431100, Note_on_c, 0, 76, 79
2, 431100, Note_on_c, 0, 64, 64
2, 431189, Note_on_c, 0, 64, 0
2, 431189, Note_on_c, 0, 76, 0
2, 431189, Note_on_c, 0, 74, 0
2, 431280, Note_on_c, 0, 74, 107
2, 431280, Note_on_c, 0, 77, 107
2, 431280, Note_on_c, 0, 65, 85
2, 431369, Note_on_c, 0, 65, 0
2, 431369, Note_on_c, 0, 77, 0
2, 431369, Note_on_c, 0, 74, 0
2, 431460, Note_on_c, 0, 82, 116
2, 431460, Note_on_c, 0, 70, 104
2, 431640, Note_on_c, 0, 70, 0
2, 431640, Note_on_c, 0, 82, 0
2, 431640, Note_on_c, 0, 83, 110
2, 431640, Note_on_c, 0, 71, 94
2, 431820, Note_on_c, 0, 71, 0
2, 431820, Note_on_c, 0, 83, 0
2, 431820, Note_on_c, 0, 74, 85
2, 431820, Note_on_c, 0, 77, 85
2, 431820, Note_on_c, 0, 65, 76
2, 431909, Note_on_c, 0, 65, 0
2, 431909, Note_on_c, 0, 77, 0
2, 431909, Note_on_c, 0, 74, 0
2, 432000, Note_on_c, 0, 74, 99
2, 432000, Note_on_c, 0, 76, 99
2, 432000, Note_on_c, 0, 64, 83
2, 432089, Note_on_c, 0, 76, 0
2, 432089, Note_on_c, 0, 74, 0
2, 432180, Note_on_c, 0, 64, 0
2, 432180, Note_on_c, 0, 82, 116
2, 432180, Note_on_c, 0, 70, 99
2, 432360, Note_on_c, 0, 70, 0
2, 432360, Note_on_c, 0, 82, 0
2, 432360, Note_on_c, 0, 83, 110
2, 432360, Note_on_c, 0, 71, 94
2, 432540, Note_on_c, 0, 71, 0
2, 432540, Note_on_c, 0, 83, 0
2, 432540, Note_on_c, 0, 74, 81
2, 432540, Note_on_c, 0, 76, 81
2, 432540, Note_on_c, 0, 64, 70
2, 432629, Note_on_c, 0, 64, 0
2, 432629, Note_on_c, 0, 76, 0
2, 432629, Note_on_c, 0, 74, 0
2, 432720, Note_on_c, 0, 74, 98
2, 432720, Note_on_c, 0, 77, 98
2, 432720, Note_on_c, 0, 65, 88
2, 432809, Note_on_c, 0, 65, 0
2, 432809, Note_on_c, 0, 77, 0
2, 432809, Note_on_c, 0, 74, 0
2, 432900, Note_on_c, 0, 82, 116
2, 432900, Note_on_c, 0, 70, 103
2, 433080, Note_on_c, 0, 70, 0
2, 433080, Note_on_c, 0, 82, 0
2, 433080, Note_on_c, 0, 83, 110
2, 433080, Note_on_c, 0, 71, 93
2, 433260, Note_on_c, 0, 71, 0
2, 433260, Note_on_c, 0, 83, 0
2, 433260, Note_on_c, 0, 74, 86
2, 433260, Note_on_c, 0, 77, 86
2, 433260, Note_on_c, 0, 65, 74
2, 433349, Note_on_c, 0, 65, 0
2, 433349, Note_on_c, 0, 77, 0
2, 433349, Note_on_c, 0, 74, 0
2, 433440, Note_on_c, 0, 76, 77
2, 433440, Note_on_c, 0, 64, 78
2, 433529, Note_on_c, 0, 64, 0
2, 433529, Note_on_c, 0, 76, 0
2, 433620, Note_on_c, 0, 87, 114
2, 433620, Note_on_c, 0, 75, 114
2, 433800, Note_on_c, 0, 75, 0
2, 433800, Note_on_c, 0, 87, 0
2, 433800, Note_on_c, 0, 88, 95
2, 433800, Note_on_c, 0, 76, 99
2, 433980, Note_on_c, 0, 76, 0
2, 433980, Note_on_c, 0, 88, 0
2, 433980, Note_on_c, 0, 85, 80
2, 433980, Note_on_c, 0, 73, 82
2, 434160, Note_on_c, 0, 73, 0
2, 434160, Note_on_c, 0, 85, 0
2, 434160, Note_on_c, 0, 86, 93
2, 434160, Note_on_c, 0, 74, 91
2, 434340, Note_on_c, 0, 74, 0
2, 434340, Note_on_c, 0, 86, 0
2, 434340, Note_on_c, 0, 83, 77
2, 434340, Note_on_c, 0, 71, 84
2, 434520, Note_on_c, 0, 71, 0
2, 434520, Note_on_c, 0, 83, 0
2, 434520, Note_on_c, 0, 84, 83
2, 434520, Note_on_c, 0, 72, 93
2, 434700, Note_on_c, 0, 72, 0
2, 434700, Note_on_c, 0, 84, 0
2, 434700, Note_on_c, 0, 81, 77
2, 434700, Note_on_c, 0, 69, 77
2, 434880, Note_on_c, 0, 69, 0
2, 434880, Note_on_c, 0, 81, 0
2, 434880, Note_on_c, 0, 76, 76
2, 434880, Note_on_c, 0, 64, 67
2, 435060, Note_on_c, 0, 64, 0
2, 435060, Note_on_c, 0, 76, 0
2, 435060, Note_on_c, 0, 87, 111
2, 435060, Note_on_c, 0, 75, 112
2, 435240, Note_on_c, 0, 75, 0
2, 435240, Note_on_c, 0, 87, 0
2, 435240, Note_on_c, 0, 88, 99
2, 435240, Note_on_c, 0, 76, 95
2, 435420, Note_on_c, 0, 76, 0
2, 435420, Note_on_c, 0, 88, 0
2, 435420, Note_on_c, 0, 82, 73
2, 435420, Note_on_c, 0, 70, 75
2, 435600, Note_on_c, 0, 70, 0
2, 435600, Note_on_c, 0, 82, 0
2, 435600, Note_on_c, 0, 83, 92
2, 435600, Note_on_c, 0, 71, 90
2, 435780, Note_on_c, 0, 71, 0
2, 435780, Note_on_c, 0, 83, 0
2, 435780, Note_on_c, 0, 90, 106
2, 435780, Note_on_c, 0, 78, 102
2, 435960, Note_on_c, 0, 78, 0
2, 435960, Note_on_c, 0, 90, 0
2, 435960, Note_on_c, 0, 91, 99
2, 435960, Note_on_c, 0, 79, 94
2, 436140, Note_on_c, 0, 79, 0
2, 436140, Note_on_c, 0, 91, 0
2, 436140, Note_on_c, 0, 83, 66
2, 436140, Note_on_c, 0, 71, 71
2, 436320, Note_on_c, 0, 71, 0
2, 436320, Note_on_c, 0, 83, 0
2, 436320, Note_on_c, 0, 84, 103
2, 436320, Note_on_c, 0, 72, 85
2, 436500, Note_on_c, 0, 72, 0
2, 436500, Note_on_c, 0, 84, 0
2, 436500, Note_on_c, 0, 95, 99
2, 436500, Note_on_c, 0, 71, 84
2, 436680, Note_on_c, 0, 71, 0
2, 436680, Note_on_c, 0, 95, 0
2, 436680, Note_on_c, 0, 96, 107
2, 436680, Note_on_c, 0, 72, 92
2, 436860, Note_on_c, 0, 72, 0
2, 436860, Note_on_c, 0, 96, 0
2, 436860, Note_on_c, 0, 93, 93
2, 436860, Note_on_c, 0, 69, 76
2, 437040, Note_on_c, 0, 69, 0
2, 437040, Note_on_c, 0, 93, 0
2, 437040, Note_on_c, 0, 94, 108
2, 437040, Note_on_c, 0, 70, 88
2, 437220, Note_on_c, 0, 70, 0
2, 437220, Note_on_c, 0, 94, 0
2, 437220, Note_on_c, 0, 90, 87
2, 437220, Note_on_c, 0, 66, 80
2, 437400, Note_on_c, 0, 66, 0
2, 437400, Note_on_c, 0, 90, 0
2, 437400, Note_on_c, 0, 91, 106
2, 437400, Note_on_c, 0, 67, 86
2, 437580, Note_on_c, 0, 67, 0
2, 437580, Note_on_c, 0, 91, 0
2, 437580, Note_on_c, 0, 85, 90
2, 437580, Note_on_c, 0, 73, 105
2, 437760, Note_on_c, 0, 73, 0
2, 437760, Note_on_c, 0, 85, 0
2, 437760, Note_on_c, 0, 84, 94
2, 437760, Note_on_c, 0, 72, 83
2, 437940, Note_on_c, 0, 72, 0
2, 437940, Note_on_c, 0, 84, 0
2, 437940, Note_on_c, 0, 95, 116
2, 437940, Note_on_c, 0, 71, 80
2, 438120, Note_on_c, 0, 71, 0
2, 438120, Note_on_c, 0, 95, 0
2, 438120, Note_on_c, 0, 96, 112
2, 438120, Note_on_c, 0, 72, 92
2, 438300, Note_on_c, 0, 72, 0
2, 438300, Note_on_c, 0, 96, 0
2, 438300, Note_on_c, 0, 93, 92
2, 438300, Note_on_c, 0, 69, 84
2, 438480, Note_on_c, 0, 69, 0
2, 438480, Note_on_c, 0, 93, 0
2, 438480, Note_on_c, 0, 94, 105
2, 438480, Note_on_c, 0, 70, 88
2, 438660, Note_on_c, 0, 70, 0
2, 438660, Note_on_c, 0, 94, 0
2, 438660, Note_on_c, 0, 90, 88
2, 438660, Note_on_c, 0, 66, 73
2, 438840, Note_on_c, 0, 66, 0
2, 438840, Note_on_c, 0, 90, 0
2, 438840, Note_on_c, 0, 91, 104
2, 438840, Note_on_c, 0, 67, 91
2, 439020, Note_on_c, 0, 67, 0
2, 439020, Note_on_c, 0, 91, 0
2, 439020, Note_on_c, 0, 85, 84
2, 439020, Note_on_c, 0, 73, 103
2, 439200, Note_on_c, 0, 73, 0
2, 439200, Note_on_c, 0, 85, 0
2, 439200, Note_on_c, 0, 84, 96
2, 439200, Note_on_c, 0, 72, 86
2, 439380, Note_on_c, 0, 72, 0
2, 439380, Note_on_c, 0, 84, 0
2, 439380, Note_on_c, 0, 95, 116
2, 439380, Note_on_c, 0, 71, 81
2, 439560, Note_on_c, 0, 71, 0
2, 439560, Note_on_c, 0, 95, 0
2, 439560, Note_on_c, 0, 96, 112
2, 439560, Note_on_c, 0, 72, 91
2, 439740, Note_on_c, 0, 72, 0
2, 439740, Note_on_c, 0, 96, 0
2, 439740, Note_on_c, 0, 89, 81
2, 439740, Note_on_c, 0, 65, 62
2, 439920, Note_on_c, 0, 65, 0
2, 439920, Note_on_c, 0, 89, 0
2, 439920, Note_on_c, 0, 88, 93
2, 439920, Note_on_c, 0, 64, 82
2, 440100, Note_on_c, 0, 64, 0
2, 440100, Note_on_c, 0, 88, 0
2, 440100, Note_on_c, 0, 95, 116
2, 440100, Note_on_c, 0, 71, 104
2, 440280, Note_on_c, 0, 71, 0
2, 440280, Note_on_c, 0, 95, 0
2, 440280, Note_on_c, 0, 96, 114
2, 440280, Note_on_c, 0, 72, 92
2, 440460, Note_on_c, 0, 72, 0
2, 440460, Note_on_c, 0, 96, 0
2, 440460, Note_on_c, 0, 89, 84
2, 440460, Note_on_c, 0, 65, 66
2, 440640, Note_on_c, 0, 65, 0
2, 440640, Note_on_c, 0, 89, 0
2, 440640, Note_on_c, 0, 91, 106
2, 440640, Note_on_c, 0, 67, 95
2, 440820, Note_on_c, 0, 67, 0
2, 440820, Note_on_c, 0, 91, 0
2, 440820, Note_on_c, 0, 95, 116
2, 440820, Note_on_c, 0, 71, 93
2, 441000, Note_on_c, 0, 71, 0
2, 441000, Note_on_c, 0, 95, 0
2, 441000, Note_on_c, 0, 96, 115
2, 441000, Note_on_c, 0, 72, 94
2, 441180, Note_on_c, 0, 72, 0
2, 441180, Note_on_c, 0, 96, 0
2, 441180, Note_on_c, 0, 91, 88
2, 441180, Note_on_c, 0, 67, 78
2, 441360, Note_on_c, 0, 67, 0
2, 441360, Note_on_c, 0, 91, 0
2, 441360, Note_on_c, 0, 92, 103
2, 441360, Note_on_c, 0, 68, 85
2, 441540, Note_on_c, 0, 68, 0
2, 441540, Note_on_c, 0, 92, 0
2, 441540, Note_on_c, 0, 99, 116
2, 441540, Note_on_c, 0, 75, 102
2, 441720, Note_on_c, 0, 75, 0
2, 441720, Note_on_c, 0, 99, 0
2, 441720, Note_on_c, 0, 100, 109
2, 441720, Note_on_c, 0, 76, 97
2, 441900, Note_on_c, 0, 76, 0
2, 441900, Note_on_c, 0, 100, 0
2, 441900, Note_on_c, 0, 92, 81
2, 441900, Note_on_c, 0, 68, 69
2, 442080, Note_on_c, 0, 68, 0
2, 442080, Note_on_c, 0, 92, 0
2, 442080, Note_on_c, 0, 93, 102
2, 442080, Note_on_c, 0, 69, 104
2, 442080, Note_on_c, 0, 72, 104
2, 442080, Note_on_c, 0, 76, 104
2, 442260, Note_on_c, 0, 93, 0
2, 442260, Note_on_c, 0, 104, 116
2, 442440, Note_on_c, 0, 104, 0
2, 442440, Note_on_c, 0, 76, 0
2, 442440, Note_on_c, 0, 72, 0
2, 442440, Note_on_c, 0, 69, 0
2, 442440, Note_on_c, 0, 105, 110
2, 442440, Note_on_c, 0, 72, 93
2, 442440, Note_on_c, 0, 76, 93
2, 442529, Note_on_c, 0, 76, 0
2, 442529, Note_on_c, 0, 72, 0
2, 442620, Note_on_c, 0, 72, 85
2, 442620, Note_on_c, 0, 76, 85
2, 442709, Note_on_c, 0, 76, 0
2, 442709, Note_on_c, 0, 72, 0
2, 442800, Note_on_c, 0, 105, 0
2, 442800, Note_on_c, 0, 72, 90
2, 442800, Note_on_c, 0, 76, 90
2, 443160, Note_on_c, 0, 76, 0
2, 443160, Note_on_c, 0, 72, 0
2, 443160, Note_on_c, 0, 72, 90
2, 443160, Note_on_c, 0, 76, 90
2, 443520, Note_on_c, 0, 76, 0
2, 443520, Note_on_c, 0, 72, 0
2, 443520, Note_on_c, 0, 72, 91
2, 443520, Note_on_c, 0, 76, 91
2, 443880, Note_on_c, 0, 76, 0
2, 443880, Note_on_c, 0, 72, 0
2, 443880, Note_on_c, 0, 88, 93
2, 443880, Note_on_c, 0, 72, 91
2, 443880, Note_on_c, 0, 76, 91
2, 443969, Note_on_c, 0, 76, 0
2, 443969, Note_on_c, 0, 72, 0
2, 444000, Note_on_c, 0, 88, 0
2, 444000, Note_on_c, 0, 84, 86
2, 444060, Note_on_c, 0, 72, 85
2, 444060, Note_on_c, 0, 76, 85
2, 444119, Note_on_c, 0, 84, 0
2, 444119, Note_on_c, 0, 88, 112
2, 444149, Note_on_c, 0, 76, 0
2, 444149, Note_on_c, 0, 72, 0
2, 444240, Note_on_c, 0, 88, 0
2, 444240, Note_on_c, 0, 81, 85
2, 444240, Note_on_c, 0, 72, 88
2, 444240, Note_on_c, 0, 76, 88
2, 444600, Note_on_c, 0, 76, 0
2, 444600, Note_on_c, 0, 72, 0
2, 444600, Note_on_c, 0, 69, 90
2, 444600, Note_on_c, 0, 72, 90
2, 444600, Note_on_c, 0, 76, 90
2, 444779, Note_on_c, 0, 76, 0
2, 444779, Note_on_c, 0, 72, 0
2, 444779, Note_on_c, 0, 69, 0
2, 444960, Note_on_c, 0, 81, 0
2, 444960, Note_on_c, 0, 69, 87
2, 444960, Note_on_c, 0, 72, 87
2, 444960, Note_on_c, 0, 76, 87
2, 445320, Note_on_c, 0, 76, 0
2, 445320, Note_on_c, 0, 72, 0
2, 445320, Note_on_c, 0, 69, 0
2, 445320, Note_on_c, 0, 88, 95
2, 445320, Note_on_c, 0, 69, 95
2, 445320, Note_on_c, 0, 72, 95
2, 445320, Note_on_c, 0, 76, 95
2, 445409, Note_on_c, 0, 76, 0
2, 445409, Note_on_c, 0, 72, 0
2, 445409, Note_on_c, 0, 69, 0
2, 445440, Note_on_c, 0, 88, 0
2, 445440, Note_on_c, 0, 84, 90
2, 445500, Note_on_c, 0, 69, 87
2, 445500, Note_on_c, 0, 72, 87
2, 445500, Note_on_c, 0, 76, 87
2, 445559, Note_on_c, 0, 84, 0
2, 445559, Note_on_c, 0, 88, 112
2, 445589, Note_on_c, 0, 69, 0
2, 445589, Note_on_c, 0, 76, 0
2, 445589, Note_on_c, 0, 72, 0
2, 445680, Note_on_c, 0, 88, 0
2, 445680, Note_on_c, 0, 81, 88
2, 445680, Note_on_c, 0, 69, 87
2, 445680, Note_on_c, 0, 72, 87
2, 445680, Note_on_c, 0, 76, 87
2, 446040, Note_on_c, 0, 76, 0
2, 446040, Note_on_c, 0, 72, 0
2, 446040, Note_on_c, 0, 69, 0
2, 446040, Note_on_c, 0, 69, 84
2, 446040, Note_on_c, 0, 72, 84
2, 446040, Note_on_c, 0, 76, 84
2, 446219, Note_on_c, 0, 76, 0
2, 446219, Note_on_c, 0, 72, 0
2, 446219, Note_on_c, 0, 69, 0
2, 446400, Note_on_c, 0, 81, 0
2, 446400, Note_on_c, 0, 69, 89
2, 446400, Note_on_c, 0, 72, 89
2, 446400, Note_on_c, 0, 76, 89
2, 446760, Note_on_c, 0, 76, 0
2, 446760, Note_on_c, 0, 72, 0
2, 446760, Note_on_c, 0, 69, 0
2, 446760, Note_on_c, 0, 88, 89
2, 446760, Note_on_c, 0, 69, 84
2, 446760, Note_on_c, 0, 72, 84
2, 446760, Note_on_c, 0, 76, 84
2, 446849, Note_on_c, 0, 76, 0
2, 446849, Note_on_c, 0, 72, 0
2, 446849, Note_on_c, 0, 69, 0
2, 446880, Note_on_c, 0, 88, 0
2, 446880, Note_on_c, 0, 84, 91
2, 446940, Note_on_c, 0, 69, 86
2, 446940, Note_on_c, 0, 72, 86
2, 446940, Note_on_c, 0, 76, 86
2, 446999, Note_on_c, 0, 84, 0
2, 446999, Note_on_c, 0, 88, 114
2, 447029, Note_on_c, 0, 69, 0
2, 447029, Note_on_c, 0, 76, 0
2, 447029, Note_on_c, 0, 72, 0
2, 447120, Note_on_c, 0, 88, 0
2, 447120, Note_on_c, 0, 81, 83
2, 447120, Note_on_c, 0, 69, 85
2, 447120, Note_on_c, 0, 72, 85
2, 447120, Note_on_c, 0, 76, 85
2, 447480, Note_on_c, 0, 76, 0
2, 447480, Note_on_c, 0, 72, 0
2, 447480, Note_on_c, 0, 69, 0
2, 447480, Note_on_c, 0, 69, 91
2, 447480, Note_on_c, 0, 72, 91
2, 447480, Note_on_c, 0, 76, 91
2, 447659, Note_on_c, 0, 76, 0
2, 447659, Note_on_c, 0, 72, 0
2, 447659, Note_on_c, 0, 69, 0
2, 447840, Note_on_c, 0, 81, 0
2, 447840, Note_on_c, 0, 69, 89
2, 447840, Note_on_c, 0, 72, 89
2, 447840, Note_on_c, 0, 76, 89
2, 448019, Note_on_c, 0, 76, 0
2, 448019, Note_on_c, 0, 72, 0
2, 448019, Note_on_c, 0, 69, 0
2, 448200, Note_on_c, 0, 81, 76
2, 448200, Note_on_c, 0, 69, 71
2, 448379, Note_on_c, 0, 69, 0
2, 448379, Note_on_c, 0, 81, 0
2, 448560, Note_on_c, 0, 91, 109
2, 448560, Note_on_c, 0, 79, 109
2, 448739, Note_on_c, 0, 79, 0
2, 448739, Note_on_c, 0, 91, 0
2, 448920, Note_on_c, 0, 92, 96
2, 448920, Note_on_c, 0, 80, 95
2, 449099, Note_on_c, 0, 80, 0
2, 449099, Note_on_c, 0, 92, 0
2, 449280, Note_on_c, 0, 93, 87
2, 449280, Note_on_c, 0, 81, 92
2, 449459, Note_on_c, 0, 81, 0
2, 449459, Note_on_c, 0, 93, 0
2, 449640, Note_on_c, 0, 88, 94
2, 449640, Note_on_c, 0, 76, 73
2, 449820, Note_on_c, 0, 76, 0
2, 449820, Note_on_c, 0, 88, 0
2, 449820, Note_on_c, 0, 89, 97
2, 449820, Note_on_c, 0, 77, 89
2, 450000, Note_on_c, 0, 77, 0
2, 450000, Note_on_c, 0, 89, 0
2, 450000, Note_on_c, 0, 91, 100
2, 450000, Note_on_c, 0, 79, 92
2, 450179, Note_on_c, 0, 79, 0
2, 450179, Note_on_c, 0, 91, 0
2, 450360, Note_on_c, 0, 86, 106
2, 450360, Note_on_c, 0, 74, 78
2, 450540, Note_on_c, 0, 74, 0
2, 450540, Note_on_c, 0, 86, 0
2, 450540, Note_on_c, 0, 88, 109
2, 450540, Note_on_c, 0, 76, 90
2, 450720, Note_on_c, 0, 76, 0
2, 450720, Note_on_c, 0, 88, 0
2, 450720, Note_on_c, 0, 89, 113
2, 450720, Note_on_c, 0, 77, 90
2, 450899, Note_on_c, 0, 77, 0
2, 450899, Note_on_c, 0, 89, 0
2, 451080, Note_on_c, 0, 87, 107
2, 451080, Note_on_c, 0, 75, 78
2, 451259, Note_on_c, 0, 75, 0
2, 451259, Note_on_c, 0, 87, 0
2, 451440, Note_on_c, 0, 88, 117
2, 451440, Note_on_c, 0, 76, 108
2, 452520, Note_on_c, 0, 76, 0
2, 452520, Note_on_c, 0, 88, 0
2, 452520, Note_on_c, 0, 85, 111
2, 452520, Note_on_c, 0, 73, 78
2, 452699, Note_on_c, 0, 85, 0
2, 452880, Note_on_c, 0, 73, 0
2, 452880, Note_on_c, 0, 86, 108
2, 452880, Note_on_c, 0, 74, 103
2, 453960, Note_on_c, 0, 74, 0
2, 453960, Note_on_c, 0, 86, 0
2, 453960, Note_on_c, 0, 83, 102
2, 453960, Note_on_c, 0, 71, 79
2, 454139, Note_on_c, 0, 71, 0
2, 454139, Note_on_c, 0, 83, 0
2, 454320, Note_on_c, 0, 84, 100
2, 454320, Note_on_c, 0, 72, 90
2, 454499, Note_on_c, 0, 72, 0
2, 454499, Note_on_c, 0, 84, 0
2, 454680, Note_on_c, 0, 82, 98
2, 454680, Note_on_c, 0, 70, 79
2, 454859, Note_on_c, 0, 70, 0
2, 454859, Note_on_c, 0, 82, 0
2, 455040, Note_on_c, 0, 84, 96
2, 455040, Note_on_c, 0, 72, 93
2, 455219, Note_on_c, 0, 72, 0
2, 455219, Note_on_c, 0, 84, 0
2, 455400, Note_on_c, 0, 81, 94
2, 455400, Note_on_c, 0, 69, 81
2, 455580, Note_on_c, 0, 69, 0
2, 455580, Note_on_c, 0, 81, 0
2, 455580, Note_on_c, 0, 83, 93
2, 455580, Note_on_c, 0, 71, 91
2, 455760, Note_on_c, 0, 71, 0
2, 455760, Note_on_c, 0, 83, 0
2, 455760, Note_on_c, 0, 84, 92
2, 455760, Note_on_c, 0, 72, 95
2, 455939, Note_on_c, 0, 72, 0
2, 455939, Note_on_c, 0, 84, 0
2, 456120, Note_on_c, 0, 76, 98
2, 456299, Note_on_c, 0, 76, 0
2, 456480, Note_on_c, 0, 69, 62
2, 456480, Note_on_c, 0, 81, 62
2, 456659, Note_on_c, 0, 81, 0
2, 456659, Note_on_c, 0, 69, 0
2, 456840, Note_on_c, 0, 72, 87
2, 457020, Note_on_c, 0, 72, 0
2, 457020, Note_on_c, 0, 76, 92
2, 457200, Note_on_c, 0, 76, 0
2, 457200, Note_on_c, 0, 69, 96
2, 457379, Note_on_c, 0, 69, 0
2, 457560, Note_on_c, 0, 71, 104
2, 457739, Note_on_c, 0, 71, 0
2, 457920, Note_on_c, 0, 72, 117
2, 458099, Note_on_c, 0, 72, 0
2, 462600, Note_on_c, 0, 72, 90
2, 462600, Note_on_c, 0, 76, 90
2, 462689, Note_on_c, 0, 76, 0
2, 462689, Note_on_c, 0, 72, 0
2, 462780, Note_on_c, 0, 72, 97
2, 462780, Note_on_c, 0, 76, 97
2, 462869, Note_on_c, 0, 76, 0
2, 462869, Note_on_c, 0, 72, 0
2, 462960, Note_on_c, 0, 72, 105
2, 462960, Note_on_c, 0, 76, 105
2, 463320, Note_on_c, 0, 76, 0
2, 463320, Note_on_c, 0, 72, 0
2, 463320, Note_on_c, 0, 72, 110
2, 463320, Note_on_c, 0, 76, 110
2, 463680, Note_on_c, 0, 76, 0
2, 463680, Note_on_c, 0, 72, 0
2, 463680, Note_on_c, 0, 72, 107
2, 463680, Note_on_c, 0, 76, 107
2, 464040, Note_on_c, 0, 76, 0
2, 464040, Note_on_c, 0, 72, 0
2, 464040, Note_on_c, 0, 88, 103
2, 464040, Note_on_c, 0, 72, 98
2, 464040, Note_on_c, 0, 76, 98
2, 464129, Note_on_c, 0, 76, 0
2, 464129, Note_on_c, 0, 72, 0
2, 464160, Note_on_c, 0, 88, 0
2, 464160, Note_on_c, 0, 84, 97
2, 464220, Note_on_c, 0, 72, 103
2, 464220, Note_on_c, 0, 76, 103
2, 464279, Note_on_c, 0, 84, 0
2, 464279, Note_on_c, 0, 88, 116
2, 464309, Note_on_c, 0, 76, 0
2, 464309, Note_on_c, 0, 72, 0
2, 464400, Note_on_c, 0, 88, 0
2, 464400, Note_on_c, 0, 81, 92
2, 464400, Note_on_c, 0, 72, 99
2, 464400, Note_on_c, 0, 76, 99
2, 464760, Note_on_c, 0, 76, 0
2, 464760, Note_on_c, 0, 72, 0
2, 464760, Note_on_c, 0, 69, 103
2, 464760, Note_on_c, 0, 72, 103
2, 464760, Note_on_c, 0, 76, 103
2, 465120, Note_on_c, 0, 76, 0
2, 465120, Note_on_c, 0, 81, 0
2, 465120, Note_on_c, 0, 69, 0
2, 465120, Note_on_c, 0, 72, 0
2, 465120, Note_on_c, 0, 69, 109
2, 465120, Note_on_c, 0, 72, 109
2, 465120, Note_on_c, 0, 76, 109
2, 465480, Note_on_c, 0, 76, 0
2, 465480, Note_on_c, 0, 72, 0
2, 465480, Note_on_c, 0, 69, 0
2, 465480, Note_on_c, 0, 88, 102
2, 465480, Note_on_c, 0, 69, 100
2, 465480, Note_on_c, 0, 72, 100
2, 465480, Note_on_c, 0, 76, 100
2, 465569, Note_on_c, 0, 76, 0
2, 465569, Note_on_c, 0, 72, 0
2, 465569, Note_on_c, 0, 69, 0
2, 465600, Note_on_c, 0, 88, 0
2, 465600, Note_on_c, 0, 84, 97
2, 465660, Note_on_c, 0, 69, 105
2, 465660, Note_on_c, 0, 72, 105
2, 465660, Note_on_c, 0, 76, 105
2, 465719, Note_on_c, 0, 84, 0
2, 465719, Note_on_c, 0, 88, 116
2, 465749, Note_on_c, 0, 69, 0
2, 465749, Note_on_c, 0, 76, 0
2, 465749, Note_on_c, 0, 72, 0
2, 465840, Note_on_c, 0, 88, 0
2, 465840, Note_on_c, 0, 81, 94
2, 465840, Note_on_c, 0, 69, 102
2, 465840, Note_on_c, 0, 72, 102
2, 465840, Note_on_c, 0, 76, 102
2, 466200, Note_on_c, 0, 76, 0
2, 466200, Note_on_c, 0, 72, 0
2, 466200, Note_on_c, 0, 69, 0
2, 466200, Note_on_c, 0, 69, 104
2, 466200, Note_on_c, 0, 72, 104
2, 466200, Note_on_c, 0, 76, 104
2, 466560, Note_on_c, 0, 76, 0
2, 466560, Note_on_c, 0, 81, 0
2, 466560, Note_on_c, 0, 69, 0
2, 466560, Note_on_c, 0, 72, 0
2, 466560, Note_on_c, 0, 69, 101
2, 466560, Note_on_c, 0, 72, 101
2, 466560, Note_on_c, 0, 76, 101
2, 466920, Note_on_c, 0, 76, 0
2, 466920, Note_on_c, 0, 72, 0
2, 466920, Note_on_c, 0, 69, 0
2, 466920, Note_on_c, 0, 88, 99
2, 466920, Note_on_c, 0, 69, 105
2, 466920, Note_on_c, 0, 72, 105
2, 466920, Note_on_c, 0, 76, 105
2, 467009, Note_on_c, 0, 76, 0
2, 467009, Note_on_c, 0, 72, 0
2, 467009, Note_on_c, 0, 69, 0
2, 467040, Note_on_c, 0, 88, 0
2, 467040, Note_on_c, 0, 84, 94
2, 467100, Note_on_c, 0, 69, 101
2, 467100, Note_on_c, 0, 72, 101
2, 467100, Note_on_c, 0, 76, 101
2, 467159, Note_on_c, 0, 84, 0
2, 467159, Note_on_c, 0, 88, 116
2, 467189, Note_on_c, 0, 69, 0
2, 467189, Note_on_c, 0, 76, 0
2, 467189, Note_on_c, 0, 72, 0
2, 467280, Note_on_c, 0, 88, 0
2, 467280, Note_on_c, 0, 81, 94
2, 467280, Note_on_c, 0, 69, 104
2, 467280, Note_on_c, 0, 72, 104
2, 467280, Note_on_c, 0, 76, 104
2, 467640, Note_on_c, 0, 76, 0
2, 467640, Note_on_c, 0, 72, 0
2, 467640, Note_on_c, 0, 69, 0
2, 467640, Note_on_c, 0, 69, 108
2, 467640, Note_on_c, 0, 72, 108
2, 467640, Note_on_c, 0, 76, 108
2, 468000, Note_on_c, 0, 76, 0
2, 468000, Note_on_c, 0, 81, 0
2, 468000, Note_on_c, 0, 69, 0
2, 468000, Note_on_c, 0, 72, 0
2, 468000, Note_on_c, 0, 69, 106
2, 468000, Note_on_c, 0, 72, 106
2, 468000, Note_on_c, 0, 76, 106
2, 468179, Note_on_c, 0, 76, 0
2, 468179, Note_on_c, 0, 72, 0
2, 468179, Note_on_c, 0, 69, 0
2, 468360, Note_on_c, 0, 88, 87
2, 468360, Note_on_c, 0, 76, 106
2, 468539, Note_on_c, 0, 76, 0
2, 468539, Note_on_c, 0, 88, 0
2, 468720, Note_on_c, 0, 93, 96
2, 468720, Note_on_c, 0, 81, 116
2, 468899, Note_on_c, 0, 81, 0
2, 468899, Note_on_c, 0, 93, 0
2, 469080, Note_on_c, 0, 95, 104
2, 469080, Note_on_c, 0, 83, 107
2, 469259, Note_on_c, 0, 83, 0
2, 469259, Note_on_c, 0, 95, 0
2, 469440, Note_on_c, 0, 96, 116
2, 469440, Note_on_c, 0, 84, 108
2, 469619, Note_on_c, 0, 84, 0
2, 469619, Note_on_c, 0, 96, 0
2, 469800, Note_on_c, 0, 91, 102
2, 469800, Note_on_c, 0, 79, 87
2, 469980, Note_on_c, 0, 79, 0
2, 469980, Note_on_c, 0, 91, 0
2, 469980, Note_on_c, 0, 93, 116
2, 469980, Note_on_c, 0, 81, 111
2, 470160, Note_on_c, 0, 81, 0
2, 470160, Note_on_c, 0, 93, 0
2, 470160, Note_on_c, 0, 95, 115
2, 470160, Note_on_c, 0, 83, 106
2, 470339, Note_on_c, 0, 83, 0
2, 470339, Note_on_c, 0, 95, 0
2, 470520, Note_on_c, 0, 89, 95
2, 470520, Note_on_c, 0, 77, 88
2, 470700, Note_on_c, 0, 77, 0
2, 470700, Note_on_c, 0, 89, 0
2, 470700, Note_on_c, 0, 91, 116
2, 470700, Note_on_c, 0, 79, 106
2, 470880, Note_on_c, 0, 79, 0
2, 470880, Note_on_c, 0, 91, 0
2, 470880, Note_on_c, 0, 93, 116
2, 470880, Note_on_c, 0, 81, 112
2, 471059, Note_on_c, 0, 81, 0
2, 471059, Note_on_c, 0, 93, 0
2, 471240, Note_on_c, 0, 88, 99
2, 471240, Note_on_c, 0, 76, 90
2, 471419, Note_on_c, 0, 76, 0
2, 471419, Note_on_c, 0, 88, 0
2, 471600, Note_on_c, 0, 91, 113
2, 471600, Note_on_c, 0, 79, 117
2, 472680, Note_on_c, 0, 79, 0
2, 472680, Note_on_c, 0, 91, 0
2, 472680, Note_on_c, 0, 86, 94
2, 472680, Note_on_c, 0, 74, 87
2, 472860, Note_on_c, 0, 74, 0
2, 472860, Note_on_c, 0, 86, 0
2, 472860, Note_on_c, 0, 88, 90
2, 472860, Note_on_c, 0, 76, 108
2, 473040, Note_on_c, 0, 76, 0
2, 473040, Note_on_c, 0, 88, 0
2, 473040, Note_on_c, 0, 89, 65
2, 473040, Note_on_c, 0, 77, 117
2, 473673, Note_on_c, 0, 77, 0
2, 473673, Note_on_c, 0, 89, 0
2, 474120, Note_on_c, 0, 76, 65
2, 474480, Note_on_c, 0, 76, 0
2, 474480, Note_on_c, 0, 86, 91
2, 474480, Note_on_c, 0, 74, 90
2, 474659, Note_on_c, 0, 74, 0
2, 474659, Note_on_c, 0, 86, 0
2, 474840, Note_on_c, 0, 87, 83
2, 474840, Note_on_c, 0, 75, 106
2, 475019, Note_on_c, 0, 75, 0
2, 475019, Note_on_c, 0, 87, 0
2, 475200, Note_on_c, 0, 88, 77
2, 475200, Note_on_c, 0, 76, 109
2, 475379, Note_on_c, 0, 76, 0
2, 475379, Note_on_c, 0, 88, 0
2, 475560, Note_on_c, 0, 84, 66
2, 475560, Note_on_c, 0, 72, 89
2, 475740, Note_on_c, 0, 72, 0
2, 475740, Note_on_c, 0, 84, 0
2, 475740, Note_on_c, 0, 86, 76
2, 475740, Note_on_c, 0, 74, 108
2, 475920, Note_on_c, 0, 74, 0
2, 475920, Note_on_c, 0, 86, 0
2, 475920, Note_on_c, 0, 88, 91
2, 475920, Note_on_c, 0, 76, 117
2, 477000, Note_on_c, 0, 76, 0
2, 477000, Note_on_c, 0, 88, 0
2, 477000, Note_on_c, 0, 86, 73
2, 477000, Note_on_c, 0, 74, 95
2, 477179, Note_on_c, 0, 74, 0
2, 477179, Note_on_c, 0, 86, 0
2, 477360, Note_on_c, 0, 88, 70
2, 477360, Note_on_c, 0, 76, 117
2, 478440, Note_on_c, 0, 76, 0
2, 478440, Note_on_c, 0, 88, 0
2, 478440, Note_on_c, 0, 84, 59
2, 478440, Note_on_c, 0, 72, 90
2, 478620, Note_on_c, 0, 72, 0
2, 478620, Note_on_c, 0, 84, 0
2, 478620, Note_on_c, 0, 86, 57
2, 478620, Note_on_c, 0, 74, 106
2, 478800, Note_on_c, 0, 74, 0
2, 478800, Note_on_c, 0, 86, 0
2, 478800, Note_on_c, 0, 88, 55
2, 478800, Note_on_c, 0, 76, 117
2, 479880, Note_on_c, 0, 76, 0
2, 479880, Note_on_c, 0, 88, 0
2, 479880, Note_on_c, 0, 86, 45
2, 479880, Note_on_c, 0, 74, 96
2, 480059, Note_on_c, 0, 74, 0
2, 480059, Note_on_c, 0, 86, 0
2, 480240, Note_on_c, 0, 88, 54
2, 480240, Note_on_c, 0, 76, 115
2, 480419, Note_on_c, 0, 76, 0
2, 480419, Note_on_c, 0, 88, 0
2, 480600, Note_on_c, 0, 81, 37
2, 480600, Note_on_c, 0, 69, 87
2, 480779, Note_on_c, 0, 69, 0
2, 480779, Note_on_c, 0, 81, 0
2, 480960, Note_on_c, 0, 84, 54
2, 480960, Note_on_c, 0, 72, 109
2, 481139, Note_on_c, 0, 72, 0
2, 481139, Note_on_c, 0, 84, 0
2, 481320, Note_on_c, 0, 81, 48
2, 481320, Note_on_c, 0, 69, 93
2, 481500, Note_on_c, 0, 69, 0
2, 481500, Note_on_c, 0, 81, 0
2, 481500, Note_on_c, 0, 83, 53
2, 481500, Note_on_c, 0, 71, 113
2, 481680, Note_on_c, 0, 71, 0
2, 481680, Note_on_c, 0, 83, 0
2, 481680, Note_on_c, 0, 84, 55
2, 481680, Note_on_c, 0, 72, 107
2, 481859, Note_on_c, 0, 72, 0
2, 481859, Note_on_c, 0, 84, 0
2, 482040, Note_on_c, 0, 76, 116
2, 482219, Note_on_c, 0, 76, 0
2, 482400, Note_on_c, 0, 69, 116
2, 482400, Note_on_c, 0, 81, 116
2, 482579, Note_on_c, 0, 81, 0
2, 482579, Note_on_c, 0, 69, 0
2, 482760, Note_on_c, 0, 72, 50
2, 482940, Note_on_c, 0, 72, 0
2, 482940, Note_on_c, 0, 76, 55
2, 483120, Note_on_c, 0, 76, 0
2, 483120, Note_on_c, 0, 69, 59
2, 483299, Note_on_c, 0, 69, 0
2, 483480, Note_on_c, 0, 67, 67
2, 483659, Note_on_c, 0, 67, 0
2, 483840, Note_on_c, 0, 65, 94
2, 484019, Note_on_c, 0, 65, 0
2, 488520, Note_on_c, 0, 94, 82
2, 488520, Note_on_c, 0, 70, 93
2, 488699, Note_on_c, 0, 70, 0
2, 488699, Note_on_c, 0, 94, 0
2, 488880, Note_on_c, 0, 101, 101
2, 488880, Note_on_c, 0, 77, 116
2, 489059, Note_on_c, 0, 77, 0
2, 489059, Note_on_c, 0, 101, 0
2, 489240, Note_on_c, 0, 100, 88
2, 489240, Note_on_c, 0, 76, 98
2, 489419, Note_on_c, 0, 76, 0
2, 489419, Note_on_c, 0, 100, 0
2, 489600, Note_on_c, 0, 101, 98
2, 489600, Note_on_c, 0, 77, 109
2, 489779, Note_on_c, 0, 77, 0
2, 489779, Note_on_c, 0, 101, 0
2, 489960, Note_on_c, 0, 98, 78
2, 489960, Note_on_c, 0, 74, 91
2, 490140, Note_on_c, 0, 74, 0
2, 490140, Note_on_c, 0, 98, 0
2, 490140, Note_on_c, 0, 100, 93
2, 490140, Note_on_c, 0, 76, 107
2, 490320, Note_on_c, 0, 76, 0
2, 490320, Note_on_c, 0, 100, 0
2, 490320, Note_on_c, 0, 101, 94
2, 490320, Note_on_c, 0, 77, 108
2, 490499, Note_on_c, 0, 77, 0
2, 490499, Note_on_c, 0, 101, 0
2, 490680, Note_on_c, 0, 97, 80
2, 490680, Note_on_c, 0, 73, 96
2, 490860, Note_on_c, 0, 73, 0
2, 490860, Note_on_c, 0, 97, 0
2, 490860, Note_on_c, 0, 98, 90
2, 490860, Note_on_c, 0, 74, 103
2, 491040, Note_on_c, 0, 74, 0
2, 491040, Note_on_c, 0, 98, 0
2, 491040, Note_on_c, 0, 100, 92
2, 491040, Note_on_c, 0, 76, 105
2, 491219, Note_on_c, 0, 76, 0
2, 491219, Note_on_c, 0, 100, 0
2, 491400, Note_on_c, 0, 69, 69
2, 491579, Note_on_c, 0, 69, 0
2, 491760, Note_on_c, 0, 79, 107
2, 491939, Note_on_c, 0, 79, 0
2, 492120, Note_on_c, 0, 80, 95
2, 492299, Note_on_c, 0, 80, 0
2, 492480, Note_on_c, 0, 81, 98
2, 492659, Note_on_c, 0, 81, 0
2, 492840, Note_on_c, 0, 69, 63
2, 493020, Note_on_c, 0, 69, 0
2, 493020, Note_on_c, 0, 78, 104
2, 493200, Note_on_c, 0, 78, 0
2, 493200, Note_on_c, 0, 79, 95
2, 493379, Note_on_c, 0, 79, 0
2, 493560, Note_on_c, 0, 74, 73
2, 493740, Note_on_c, 0, 74, 0
2, 493740, Note_on_c, 0, 76, 91
2, 493920, Note_on_c, 0, 76, 0
2, 493920, Note_on_c, 0, 77, 89
2, 494099, Note_on_c, 0, 77, 0
2, 494280, Note_on_c, 0, 93, 76
2, 494280, Note_on_c, 0, 69, 67
2, 494459, Note_on_c, 0, 69, 0
2, 494459, Note_on_c, 0, 93, 0
2, 494640, Note_on_c, 0, 100, 103
2, 494640, Note_on_c, 0, 76, 103
2, 494819, Note_on_c, 0, 76, 0
2, 494819, Note_on_c, 0, 100, 0
2, 495000, Note_on_c, 0, 98, 84
2, 495000, Note_on_c, 0, 74, 83
2, 495179, Note_on_c, 0, 74, 0
2, 495179, Note_on_c, 0, 98, 0
2, 495360, Note_on_c, 0, 100, 91
2, 495360, Note_on_c, 0, 76, 92
2, 495539, Note_on_c, 0, 76, 0
2, 495539, Note_on_c, 0, 100, 0
2, 495720, Note_on_c, 0, 96, 78
2, 495720, Note_on_c, 0, 72, 75
2, 495900, Note_on_c, 0, 72, 0
2, 495900, Note_on_c, 0, 96, 0
2, 495900, Note_on_c, 0, 98, 92
2, 495900, Note_on_c, 0, 74, 92
2, 496080, Note_on_c, 0, 74, 0
2, 496080, Note_on_c, 0, 98, 0
2, 496080, Note_on_c, 0, 100, 98
2, 496080, Note_on_c, 0, 76, 94
2, 496259, Note_on_c, 0, 76, 0
2, 496259, Note_on_c, 0, 100, 0
2, 496440, Note_on_c, 0, 95, 74
2, 496440, Note_on_c, 0, 71, 73
2, 496620, Note_on_c, 0, 71, 0
2, 496620, Note_on_c, 0, 95, 0
2, 496620, Note_on_c, 0, 96, 91
2, 496620, Note_on_c, 0, 72, 88
2, 496800, Note_on_c, 0, 72, 0
2, 496800, Note_on_c, 0, 96, 0
2, 496800, Note_on_c, 0, 98, 93
2, 496800, Note_on_c, 0, 74, 93
2, 496979, Note_on_c, 0, 74, 0
2, 496979, Note_on_c, 0, 98, 0
2, 497160, Note_on_c, 0, 67, 68
2, 497339, Note_on_c, 0, 67, 0
2, 497520, Note_on_c, 0, 77, 112
2, 497699, Note_on_c, 0, 77, 0
2, 497880, Note_on_c, 0, 78, 96
2, 498059, Note_on_c, 0, 78, 0
2, 498240, Note_on_c, 0, 79, 87
2, 498419, Note_on_c, 0, 79, 0
2, 498600, Note_on_c, 0, 67, 81
2, 498780, Note_on_c, 0, 67, 0
2, 498780, Note_on_c, 0, 76, 78
2, 498960, Note_on_c, 0, 76, 0
2, 498960, Note_on_c, 0, 77, 75
2, 499139, Note_on_c, 0, 77, 0
2, 499320, Note_on_c, 0, 72, 68
2, 499500, Note_on_c, 0, 72, 0
2, 499500, Note_on_c, 0, 74, 65
2, 499680, Note_on_c, 0, 74, 0
2, 499680, Note_on_c, 0, 76, 62
2, 499859, Note_on_c, 0, 76, 0
2, 500040, Note_on_c, 0, 64, 44
2, 500219, Note_on_c, 0, 64, 0
2, 500400, Note_on_c, 0, 71, 85
2, 500579, Note_on_c, 0, 71, 0
2, 500760, Note_on_c, 0, 69, 67
2, 500939, Note_on_c, 0, 69, 0
2, 501120, Note_on_c, 0, 71, 76
2, 501299, Note_on_c, 0, 71, 0
2, 501480, Note_on_c, 0, 64, 57
2, 501660, Note_on_c, 0, 64, 0
2, 501660, Note_on_c, 0, 66, 74
2, 501840, Note_on_c, 0, 66, 0
2, 501840, Note_on_c, 0, 68, 93
2, 502200, Note_on_c, 0, 76, 103
2, 502473, Note_on_c, 0, 68, 0
2, 502560, Note_on_c, 0, 76, 0
2, 502560, Note_on_c, 0, 69, 70
2, 502560, Note_on_c, 0, 67, 70
2, 502740, Note_on_c, 0, 67, 0
2, 502920, Note_on_c, 0, 69, 0
2, 502920, Note_on_c, 0, 69, 87
2, 503100, Note_on_c, 0, 69, 0
2, 503100, Note_on_c, 0, 71, 88
2, 503280, Note_on_c, 0, 71, 0
2, 503280, Note_on_c, 0, 72, 89
2, 503640, Note_on_c, 0, 72, 0
2, 503640, Note_on_c, 0, 81, 91
2, 504360, Note_on_c, 0, 81, 0
2, 504360, Note_on_c, 0, 72, 94
2, 504540, Note_on_c, 0, 72, 0
2, 504540, Note_on_c, 0, 74, 95
2, 504720, Note_on_c, 0, 74, 0
2, 504720, Note_on_c, 0, 75, 96
2, 505080, Note_on_c, 0, 75, 0
2, 505080, Note_on_c, 0, 84, 97
2, 505397, Note_on_c, 0, 84, 0
2, 505440, Note_on_c, 0, 75, 99
2, 505440, Note_on_c, 0, 72, 65
2, 505620, Note_on_c, 0, 72, 0
2, 505620, Note_on_c, 0, 74, 77
2, 505800, Note_on_c, 0, 74, 0
2, 505800, Note_on_c, 0, 75, 0
2, 505800, Note_on_c, 0, 87, 101
2, 505800, Note_on_c, 0, 75, 79
2, 505980, Note_on_c, 0, 75, 0
2, 505980, Note_on_c, 0, 77, 79
2, 506117, Note_on_c, 0, 87, 0
2, 506160, Note_on_c, 0, 77, 0
2, 506160, Note_on_c, 0, 78, 103
2, 506160, Note_on_c, 0, 75, 69
2, 506340, Note_on_c, 0, 75, 0
2, 506340, Note_on_c, 0, 77, 75
2, 506520, Note_on_c, 0, 77, 0
2, 506520, Note_on_c, 0, 78, 0
2, 506520, Note_on_c, 0, 90, 104
2, 506520, Note_on_c, 0, 78, 79
2, 506640, Note_on_c, 0, 90, 0
2, 506640, Note_on_c, 0, 87, 105
2, 506700, Note_on_c, 0, 78, 0
2, 506700, Note_on_c, 0, 80, 80
2, 506759, Note_on_c, 0, 87, 0
2, 506759, Note_on_c, 0, 90, 105
2, 506880, Note_on_c, 0, 90, 0
2, 506880, Note_on_c, 0, 80, 0
2, 506880, Note_on_c, 0, 83, 106
2, 506880, Note_on_c, 0, 78, 68
2, 507060, Note_on_c, 0, 78, 0
2, 507060, Note_on_c, 0, 80, 75
2, 507240, Note_on_c, 0, 80, 0
2, 507240, Note_on_c, 0, 83, 0
2, 507240, Note_on_c, 0, 87, 108
2, 507240, Note_on_c, 0, 82, 79
2, 507420, Note_on_c, 0, 82, 0
2, 507420, Note_on_c, 0, 87, 0
2, 507420, Note_on_c, 0, 89, 108
2, 507420, Note_on_c, 0, 83, 80
2, 507600, Note_on_c, 0, 83, 0
2, 507600, Note_on_c, 0, 89, 0
2, 507600, Note_on_c, 0, 90, 109
2, 507600, Note_on_c, 0, 82, 68
2, 507780, Note_on_c, 0, 82, 0
2, 507780, Note_on_c, 0, 83, 74
2, 507960, Note_on_c, 0, 83, 0
2, 507960, Note_on_c, 0, 90, 0
2, 507960, Note_on_c, 0, 90, 111
2, 507960, Note_on_c, 0, 95, 111
2, 507960, Note_on_c, 0, 85, 78
2, 508064, Note_on_c, 0, 95, 0
2, 508064, Note_on_c, 0, 90, 0
2, 508080, Note_on_c, 0, 87, 112
2, 508140, Note_on_c, 0, 85, 0
2, 508199, Note_on_c, 0, 87, 0
2, 508199, Note_on_c, 0, 90, 112
2, 508320, Note_on_c, 0, 90, 0
2, 508320, Note_on_c, 0, 83, 113
2, 508320, Note_on_c, 0, 88, 113
2, 508320, Note_on_c, 0, 76, 64
2, 508320, Note_on_c, 0, 80, 64
2, 508680, Note_on_c, 0, 80, 0
2, 508680, Note_on_c, 0, 83, 0
2, 508680, Note_on_c, 0, 88, 0
2, 508680, Note_on_c, 0, 76, 0
2, 508680, Note_on_c, 0, 88, 60
2, 508680, Note_on_c, 0, 76, 79
2, 508859, Note_on_c, 0, 76, 0
2, 508859, Note_on_c, 0, 88, 0
2, 509040, Note_on_c, 0, 98, 103
2, 509040, Note_on_c, 0, 86, 109
2, 509219, Note_on_c, 0, 86, 0
2, 509219, Note_on_c, 0, 98, 0
2, 509400, Note_on_c, 0, 99, 95
2, 509400, Note_on_c, 0, 87, 98
2, 509579, Note_on_c, 0, 87, 0
2, 509579, Note_on_c, 0, 99, 0
2, 509760, Note_on_c, 0, 100, 93
2, 509760, Note_on_c, 0, 88, 93
2, 509939, Note_on_c, 0, 88, 0
2, 509939, Note_on_c, 0, 100, 0
2, 510120, Note_on_c, 0, 95, 74
2, 510120, Note_on_c, 0, 83, 76
2, 510300, Note_on_c, 0, 83, 0
2, 510300, Note_on_c, 0, 95, 0
2, 510300, Note_on_c, 0, 97, 91
2, 510300, Note_on_c, 0, 85, 89
2, 510480, Note_on_c, 0, 85, 0
2, 510480, Note_on_c, 0, 97, 0
2, 510480, Note_on_c, 0, 98, 90
2, 510480, Note_on_c, 0, 86, 97
2, 510659, Note_on_c, 0, 86, 0
2, 510659, Note_on_c, 0, 98, 0
2, 510840, Note_on_c, 0, 94, 73
2, 510840, Note_on_c, 0, 82, 80
2, 511020, Note_on_c, 0, 82, 0
2, 511020, Note_on_c, 0, 94, 0
2, 511020, Note_on_c, 0, 95, 90
2, 511020, Note_on_c, 0, 83, 88
2, 511200, Note_on_c, 0, 83, 0
2, 511200, Note_on_c, 0, 95, 0
2, 511200, Note_on_c, 0, 97, 92
2, 511200, Note_on_c, 0, 85, 96
2, 511379, Note_on_c, 0, 85, 0
2, 511379, Note_on_c, 0, 97, 0
2, 511560, Note_on_c, 0, 95, 82
2, 511560, Note_on_c, 0, 83, 81
2, 511739, Note_on_c, 0, 83, 0
2, 511739, Note_on_c, 0, 95, 0
2, 511920, Note_on_c, 0, 97, 106
2, 511920, Note_on_c, 0, 85, 108
2, 513000, Note_on_c, 0, 85, 0
2, 513000, Note_on_c, 0, 97, 0
2, 513000, Note_on_c, 0, 93, 80
2, 513000, Note_on_c, 0, 81, 73
2, 513179, Note_on_c, 0, 81, 0
2, 513179, Note_on_c, 0, 93, 0
2, 513360, Note_on_c, 0, 98, 100
2, 513360, Note_on_c, 0, 86, 98
2, 513539, Note_on_c, 0, 86, 0
2, 513539, Note_on_c, 0, 98, 0
2, 513720, Note_on_c, 0, 96, 83
2, 513720, Note_on_c, 0, 84, 88
2, 513899, Note_on_c, 0, 84, 0
2, 513899, Note_on_c, 0, 96, 0
2, 514080, Note_on_c, 0, 98, 92
2, 514080, Note_on_c, 0, 86, 91
2, 514259, Note_on_c, 0, 86, 0
2, 514259, Note_on_c, 0, 98, 0
2, 514440, Note_on_c, 0, 81, 77
2, 514440, Note_on_c, 0, 69, 60
2, 514620, Note_on_c, 0, 69, 0
2, 514620, Note_on_c, 0, 81, 0
2, 514620, Note_on_c, 0, 83, 88
2, 514620, Note_on_c, 0, 71, 89
2, 514800, Note_on_c, 0, 71, 0
2, 514800, Note_on_c, 0, 83, 0
2, 514800, Note_on_c, 0, 81, 81
2, 514800, Note_on_c, 0, 69, 80
2, 514980, Note_on_c, 0, 69, 0
2, 514980, Note_on_c, 0, 81, 0
2, 514980, Note_on_c, 0, 83, 93
2, 514980, Note_on_c, 0, 71, 97
2, 515160, Note_on_c, 0, 71, 0
2, 515160, Note_on_c, 0, 83, 0
2, 515160, Note_on_c, 0, 85, 93
2, 515160, Note_on_c, 0, 73, 93
2, 515340, Note_on_c, 0, 73, 0
2, 515340, Note_on_c, 0, 85, 0
2, 515340, Note_on_c, 0, 86, 91
2, 515340, Note_on_c, 0, 74, 91
2, 515520, Note_on_c, 0, 74, 0
2, 515520, Note_on_c, 0, 86, 0
2, 515520, Note_on_c, 0, 85, 83
2, 515520, Note_on_c, 0, 73, 81
2, 515700, Note_on_c, 0, 73, 0
2, 515700, Note_on_c, 0, 85, 0
2, 515700, Note_on_c, 0, 86, 88
2, 515700, Note_on_c, 0, 74, 86
2, 515880, Note_on_c, 0, 74, 0
2, 515880, Note_on_c, 0, 86, 0
2, 515880, Note_on_c, 0, 81, 74
2, 515880, Note_on_c, 0, 69, 76
2, 516060, Note_on_c, 0, 69, 0
2, 516060, Note_on_c, 0, 81, 0
2, 516060, Note_on_c, 0, 83, 92
2, 516060, Note_on_c, 0, 71, 94
2, 516240, Note_on_c, 0, 71, 0
2, 516240, Note_on_c, 0, 83, 0
2, 516240, Note_on_c, 0, 81, 85
2, 516240, Note_on_c, 0, 69, 78
2, 516420, Note_on_c, 0, 69, 0
2, 516420, Note_on_c, 0, 81, 0
2, 516420, Note_on_c, 0, 83, 90
2, 516420, Note_on_c, 0, 71, 91
2, 516600, Note_on_c, 0, 71, 0
2, 516600, Note_on_c, 0, 83, 0
2, 516600, Note_on_c, 0, 84, 94
2, 516600, Note_on_c, 0, 72, 93
2, 516780, Note_on_c, 0, 72, 0
2, 516780, Note_on_c, 0, 84, 0
2, 516780, Note_on_c, 0, 85, 93
2, 516780, Note_on_c, 0, 73, 94
2, 516960, Note_on_c, 0, 73, 0
2, 516960, Note_on_c, 0, 85, 0
2, 516960, Note_on_c, 0, 84, 82
2, 516960, Note_on_c, 0, 72, 80
2, 517140, Note_on_c, 0, 72, 0
2, 517140, Note_on_c, 0, 84, 0
2, 517140, Note_on_c, 0, 85, 90
2, 517140, Note_on_c, 0, 73, 91
2, 517320, Note_on_c, 0, 73, 0
2, 517320, Note_on_c, 0, 85, 0
2, 517320, Note_on_c, 0, 81, 75
2, 517320, Note_on_c, 0, 69, 74
2, 517500, Note_on_c, 0, 69, 0
2, 517500, Note_on_c, 0, 81, 0
2, 517500, Note_on_c, 0, 82, 87
2, 517500, Note_on_c, 0, 70, 89
2, 517680, Note_on_c, 0, 70, 0
2, 517680, Note_on_c, 0, 82, 0
2, 517680, Note_on_c, 0, 81, 81
2, 517680, Note_on_c, 0, 69, 82
2, 517860, Note_on_c, 0, 69, 0
2, 517860, Note_on_c, 0, 81, 0
2, 517860, Note_on_c, 0, 82, 93
2, 517860, Note_on_c, 0, 70, 90
2, 518040, Note_on_c, 0, 70, 0
2, 518040, Note_on_c, 0, 82, 0
2, 518040, Note_on_c, 0, 83, 93
2, 518040, Note_on_c, 0, 71, 89
2, 518220, Note_on_c, 0, 71, 0
2, 518220, Note_on_c, 0, 83, 0
2, 518220, Note_on_c, 0, 84, 92
2, 518220, Note_on_c, 0, 72, 94
2, 518400, Note_on_c, 0, 72, 0
2, 518400, Note_on_c, 0, 84, 0
2, 518400, Note_on_c, 0, 83, 79
2, 518400, Note_on_c, 0, 71, 87
2, 518580, Note_on_c, 0, 71, 0
2, 518580, Note_on_c, 0, 83, 0
2, 518580, Note_on_c, 0, 84, 94
2, 518580, Note_on_c, 0, 72, 92
2, 518760, Note_on_c, 0, 72, 0
2, 518760, Note_on_c, 0, 84, 0
2, 518760, Note_on_c, 0, 79, 78
2, 518760, Note_on_c, 0, 67, 73
2, 518940, Note_on_c, 0, 67, 0
2, 518940, Note_on_c, 0, 79, 0
2, 518940, Note_on_c, 0, 81, 91
2, 518940, Note_on_c, 0, 69, 90
2, 519120, Note_on_c, 0, 69, 0
2, 519120, Note_on_c, 0, 81, 0
2, 519120, Note_on_c, 0, 79, 83
2, 519120, Note_on_c, 0, 67, 84
2, 519300, Note_on_c, 0, 67, 0
2, 519300, Note_on_c, 0, 79, 0
2, 519300, Note_on_c, 0, 81, 96
2, 519300, Note_on_c, 0, 69, 88
2, 519480, Note_on_c, 0, 69, 0
2, 519480, Note_on_c, 0, 81, 0
2, 519480, Note_on_c, 0, 83, 92
2, 519480, Note_on_c, 0, 71, 91
2, 519660, Note_on_c, 0, 71, 0
2, 519660, Note_on_c, 0, 83, 0
2, 519660, Note_on_c, 0, 84, 90
2, 519660, Note_on_c, 0, 72, 90
2, 519840, Note_on_c, 0, 72, 0
2, 519840, Note_on_c, 0, 84, 0
2, 519840, Note_on_c, 0, 84, 90
2, 519840, Note_on_c, 0, 72, 90
2, 520200, Note_on_c, 0, 72, 0
2, 520200, Note_on_c, 0, 84, 0
2, 520200, Note_on_c, 0, 84, 57
2, 520200, Note_on_c, 0, 72, 89
2, 520379, Note_on_c, 0, 72, 0
2, 520379, Note_on_c, 0, 84, 0
2, 520560, Note_on_c, 0, 94, 105
2, 520560, Note_on_c, 0, 82, 107
2, 520739, Note_on_c, 0, 82, 0
2, 520739, Note_on_c, 0, 94, 0
2, 520920, Note_on_c, 0, 95, 95
2, 520920, Note_on_c, 0, 83, 94
2, 521099, Note_on_c, 0, 83, 0
2, 521099, Note_on_c, 0, 95, 0
2, 521280, Note_on_c, 0, 96, 94
2, 521280, Note_on_c, 0, 84, 93
2, 521459, Note_on_c, 0, 84, 0
2, 521459, Note_on_c, 0, 96, 0
2, 521640, Note_on_c, 0, 91, 76
2, 521640, Note_on_c, 0, 79, 80
2, 521820, Note_on_c, 0, 79, 0
2, 521820, Note_on_c, 0, 91, 0
2, 521820, Note_on_c, 0, 93, 95
2, 521820, Note_on_c, 0, 81, 90
2, 522000, Note_on_c, 0, 81, 0
2, 522000, Note_on_c, 0, 93, 0
2, 522000, Note_on_c, 0, 94, 93
2, 522000, Note_on_c, 0, 82, 92
2, 522179, Note_on_c, 0, 82, 0
2, 522179, Note_on_c, 0, 94, 0
2, 522360, Note_on_c, 0, 90, 74
2, 522360, Note_on_c, 0, 78, 80
2, 522540, Note_on_c, 0, 78, 0
2, 522540, Note_on_c, 0, 90, 0
2, 522540, Note_on_c, 0, 91, 86
2, 522540, Note_on_c, 0, 79, 94
2, 522720, Note_on_c, 0, 79, 0
2, 522720, Note_on_c, 0, 91, 0
2, 522720, Note_on_c, 0, 93, 93
2, 522720, Note_on_c, 0, 81, 94
2, 522899, Note_on_c, 0, 81, 0
2, 522899, Note_on_c, 0, 93, 0
2, 523080, Note_on_c, 0, 91, 83
2, 523080, Note_on_c, 0, 79, 83
2, 523259, Note_on_c, 0, 79, 0
2, 523259, Note_on_c, 0, 91, 0
2, 523440, Note_on_c, 0, 93, 105
2, 523440, Note_on_c, 0, 81, 104
2, 524520, Note_on_c, 0, 81, 0
2, 524520, Note_on_c, 0, 93, 0
2, 524520, Note_on_c, 0, 89, 73
2, 524520, Note_on_c, 0, 77, 72
2, 524699, Note_on_c, 0, 77, 0
2, 524699, Note_on_c, 0, 89, 0
2, 524880, Note_on_c, 0, 94, 96
2, 524880, Note_on_c, 0, 82, 100
2, 525059, Note_on_c, 0, 82, 0
2, 525059, Note_on_c, 0, 94, 0
2, 525240, Note_on_c, 0, 93, 87
2, 525240, Note_on_c, 0, 81, 83
2, 525419, Note_on_c, 0, 81, 0
2, 525419, Note_on_c, 0, 93, 0
2, 525600, Note_on_c, 0, 94, 87
2, 525600, Note_on_c, 0, 82, 97
2, 525779, Note_on_c, 0, 82, 0
2, 525779, Note_on_c, 0, 94, 0
2, 525960, Note_on_c, 0, 77, 76
2, 525960, Note_on_c, 0, 65, 61
2, 526140, Note_on_c, 0, 65, 0
2, 526140, Note_on_c, 0, 77, 0
2, 526140, Note_on_c, 0, 79, 85
2, 526140, Note_on_c, 0, 67, 88
2, 526320, Note_on_c, 0, 67, 0
2, 526320, Note_on_c, 0, 79, 0
2, 526320, Note_on_c, 0, 77, 78
2, 526320, Note_on_c, 0, 65, 79
2, 526500, Note_on_c, 0, 65, 0
2, 526500, Note_on_c, 0, 77, 0
2, 526500, Note_on_c, 0, 79, 95
2, 526500, Note_on_c, 0, 67, 93
2, 526680, Note_on_c, 0, 67, 0
2, 526680, Note_on_c, 0, 79, 0
2, 526680, Note_on_c, 0, 81, 98
2, 526680, Note_on_c, 0, 69, 95
2, 526860, Note_on_c, 0, 69, 0
2, 526860, Note_on_c, 0, 81, 0
2, 526860, Note_on_c, 0, 82, 94
2, 526860, Note_on_c, 0, 70, 92
2, 527040, Note_on_c, 0, 70, 0
2, 527040, Note_on_c, 0, 82, 0
2, 527040, Note_on_c, 0, 81, 86
2, 527040, Note_on_c, 0, 69, 79
2, 527220, Note_on_c, 0, 69, 0
2, 527220, Note_on_c, 0, 81, 0
2, 527220, Note_on_c, 0, 82, 90
2, 527220, Note_on_c, 0, 70, 93
2, 527400, Note_on_c, 0, 70, 0
2, 527400, Note_on_c, 0, 82, 0
2, 527400, Note_on_c, 0, 77, 79
2, 527400, Note_on_c, 0, 65, 80
2, 527580, Note_on_c, 0, 65, 0
2, 527580, Note_on_c, 0, 77, 0
2, 527580, Note_on_c, 0, 79, 95
2, 527580, Note_on_c, 0, 67, 88
2, 527760, Note_on_c, 0, 67, 0
2, 527760, Note_on_c, 0, 79, 0
2, 527760, Note_on_c, 0, 77, 79
2, 527760, Note_on_c, 0, 65, 82
2, 527940, Note_on_c, 0, 65, 0
2, 527940, Note_on_c, 0, 77, 0
2, 527940, Note_on_c, 0, 79, 92
2, 527940, Note_on_c, 0, 67, 93
2, 528120, Note_on_c, 0, 67, 0
2, 528120, Note_on_c, 0, 79, 0
2, 528120, Note_on_c, 0, 80, 96
2, 528120, Note_on_c, 0, 68, 96
2, 528300, Note_on_c, 0, 68, 0
2, 528300, Note_on_c, 0, 80, 0
2, 528300, Note_on_c, 0, 81, 92
2, 528300, Note_on_c, 0, 69, 92
2, 528480, Note_on_c, 0, 69, 0
2, 528480, Note_on_c, 0, 81, 0
2, 528480, Note_on_c, 0, 80, 85
2, 528480, Note_on_c, 0, 68, 85
2, 528660, Note_on_c, 0, 68, 0
2, 528660, Note_on_c, 0, 80, 0
2, 528660, Note_on_c, 0, 81, 92
2, 528660, Note_on_c, 0, 69, 90
2, 528840, Note_on_c, 0, 69, 0
2, 528840, Note_on_c, 0, 81, 0
2, 528840, Note_on_c, 0, 77, 72
2, 528840, Note_on_c, 0, 65, 79
2, 529020, Note_on_c, 0, 65, 0
2, 529020, Note_on_c, 0, 77, 0
2, 529020, Note_on_c, 0, 79, 92
2, 529020, Note_on_c, 0, 67, 90
2, 529200, Note_on_c, 0, 67, 0
2, 529200, Note_on_c, 0, 79, 0
2, 529200, Note_on_c, 0, 77, 80
2, 529200, Note_on_c, 0, 65, 82
2, 529380, Note_on_c, 0, 65, 0
2, 529380, Note_on_c, 0, 77, 0
2, 529380, Note_on_c, 0, 79, 91
2, 529380, Note_on_c, 0, 67, 95
2, 529560, Note_on_c, 0, 67, 0
2, 529560, Note_on_c, 0, 79, 0
2, 529560, Note_on_c, 0, 79, 86
2, 529560, Note_on_c, 0, 67, 93
2, 529740, Note_on_c, 0, 67, 0
2, 529740, Note_on_c, 0, 79, 0
2, 529740, Note_on_c, 0, 80, 91
2, 529740, Note_on_c, 0, 68, 93
2, 529920, Note_on_c, 0, 68, 0
2, 529920, Note_on_c, 0, 80, 0
2, 529920, Note_on_c, 0, 79, 84
2, 529920, Note_on_c, 0, 67, 80
2, 530100, Note_on_c, 0, 67, 0
2, 530100, Note_on_c, 0, 79, 0
2, 530100, Note_on_c, 0, 80, 91
2, 530100, Note_on_c, 0, 68, 87
2, 530280, Note_on_c, 0, 68, 0
2, 530280, Note_on_c, 0, 80, 0
2, 530280, Note_on_c, 0, 76, 76
2, 530280, Note_on_c, 0, 64, 78
2, 530460, Note_on_c, 0, 64, 0
2, 530460, Note_on_c, 0, 76, 0
2, 530460, Note_on_c, 0, 77, 92
2, 530460, Note_on_c, 0, 65, 93
2, 530640, Note_on_c, 0, 65, 0
2, 530640, Note_on_c, 0, 77, 0
2, 530640, Note_on_c, 0, 76, 82
2, 530640, Note_on_c, 0, 64, 83
2, 530820, Note_on_c, 0, 64, 0
2, 530820, Note_on_c, 0, 76, 0
2, 530820, Note_on_c, 0, 77, 95
2, 530820, Note_on_c, 0, 65, 90
2, 531000, Note_on_c, 0, 65, 0
2, 531000, Note_on_c, 0, 77, 0
2, 531000, Note_on_c, 0, 79, 97
2, 531000, Note_on_c, 0, 67, 96
2, 531180, Note_on_c, 0, 67, 0
2, 531180, Note_on_c, 0, 79, 0
2, 531180, Note_on_c, 0, 80, 90
2, 531180, Note_on_c, 0, 68, 92
2, 531360, Note_on_c, 0, 68, 0
2, 531360, Note_on_c, 0, 80, 0
2, 531360, Note_on_c, 0, 81, 94
2, 531360, Note_on_c, 0, 69, 91
2, 531539, Note_on_c, 0, 69, 0
2, 531539, Note_on_c, 0, 81, 0
2, 531720, Note_on_c, 0, 81, 61
2, 531720, Note_on_c, 0, 69, 89
2, 531899, Note_on_c, 0, 69, 0
2, 531899, Note_on_c, 0, 81, 0
2, 532080, Note_on_c, 0, 91, 108
2, 532080, Note_on_c, 0, 79, 107
2, 532259, Note_on_c, 0, 79, 0
2, 532259, Note_on_c, 0, 91, 0
2, 532440, Note_on_c, 0, 92, 94
2, 532440, Note_on_c, 0, 80, 96
2, 532619, Note_on_c, 0, 80, 0
2, 532619, Note_on_c, 0, 92, 0
2, 532800, Note_on_c, 0, 93, 94
2, 532800, Note_on_c, 0, 81, 95
2, 532979, Note_on_c, 0, 81, 0
2, 532979, Note_on_c, 0, 93, 0
2, 533160, Note_on_c, 0, 88, 74
2, 533160, Note_on_c, 0, 76, 76
2, 533340, Note_on_c, 0, 76, 0
2, 533340, Note_on_c, 0, 88, 0
2, 533340, Note_on_c, 0, 89, 91
2, 533340, Note_on_c, 0, 77, 89
2, 533520, Note_on_c, 0, 77, 0
2, 533520, Note_on_c, 0, 89, 0
2, 533520, Note_on_c, 0, 91, 93
2, 533520, Note_on_c, 0, 79, 94
2, 533699, Note_on_c, 0, 79, 0
2, 533699, Note_on_c, 0, 91, 0
2, 533880, Note_on_c, 0, 86, 76
2, 533880, Note_on_c, 0, 74, 74
2, 534060, Note_on_c, 0, 74, 0
2, 534060, Note_on_c, 0, 86, 0
2, 534060, Note_on_c, 0, 88, 95
2, 534060, Note_on_c, 0, 76, 91
2, 534240, Note_on_c, 0, 76, 0
2, 534240, Note_on_c, 0, 88, 0
2, 534240, Note_on_c, 0, 89, 88
2, 534240, Note_on_c, 0, 77, 92
2, 534419, Note_on_c, 0, 77, 0
2, 534419, Note_on_c, 0, 89, 0
2, 534600, Note_on_c, 0, 84, 74
2, 534600, Note_on_c, 0, 72, 76
2, 534779, Note_on_c, 0, 72, 0
2, 534779, Note_on_c, 0, 84, 0
2, 534960, Note_on_c, 0, 88, 105
2, 534960, Note_on_c, 0, 76, 109
2, 536040, Note_on_c, 0, 76, 0
2, 536040, Note_on_c, 0, 88, 0
2, 536040, Note_on_c, 0, 93, 101
2, 536040, Note_on_c, 0, 81, 100
2, 536219, Note_on_c, 0, 81, 0
2, 536219, Note_on_c, 0, 93, 0
2, 536400, Note_on_c, 0, 96, 98
2, 536400, Note_on_c, 0, 84, 101
2, 536579, Note_on_c, 0, 84, 0
2, 536579, Note_on_c, 0, 96, 0
2, 536760, Note_on_c, 0, 91, 77
2, 536760, Note_on_c, 0, 79, 71
2, 536940, Note_on_c, 0, 79, 0
2, 536940, Note_on_c, 0, 91, 0
2, 536940, Note_on_c, 0, 93, 96
2, 536940, Note_on_c, 0, 81, 91
2, 537120, Note_on_c, 0, 81, 0
2, 537120, Note_on_c, 0, 93, 0
2, 537120, Note_on_c, 0, 95, 95
2, 537120, Note_on_c, 0, 83, 98
2, 537299, Note_on_c, 0, 83, 0
2, 537299, Note_on_c, 0, 95, 0
2, 537480, Note_on_c, 0, 89, 68
2, 537480, Note_on_c, 0, 77, 75
2, 537659, Note_on_c, 0, 77, 0
2, 537659, Note_on_c, 0, 89, 0
2, 537840, Note_on_c, 0, 93, 109
2, 537840, Note_on_c, 0, 81, 110
2, 537840, Note_on_c, 0, 72, 1
2, 538920, Note_on_c, 0, 81, 0
2, 538920, Note_on_c, 0, 93, 0
2, 538920, Note_on_c, 0, 84, 99
2, 538920, Note_on_c, 0, 96, 99
2, 539099, Note_on_c, 0, 96, 0
2, 539099, Note_on_c, 0, 84, 0
2, 539280, Note_on_c, 0, 72, 0
2, 539280, Note_on_c, 0, 88, 115
2, 539280, Note_on_c, 0, 100, 115
2, 539280, Note_on_c, 0, 71, 71
2, 539640, Note_on_c, 0, 69, 79
2, 540000, Note_on_c, 0, 69, 0
2, 540360, Note_on_c, 0, 88, 0
2, 540360, Note_on_c, 0, 100, 0
2, 540360, Note_on_c, 0, 76, 60
2, 540720, Note_on_c, 0, 76, 0
2, 540720, Note_on_c, 0, 71, 0
2, 540720, Note_on_c, 0, 86, 103
2, 540720, Note_on_c, 0, 74, 94
2, 540720, Note_on_c, 0, 64, 1
2, 540899, Note_on_c, 0, 74, 0
2, 540899, Note_on_c, 0, 86, 0
2, 540900, Note_on_c, 0, 64, 0
2, 541080, Note_on_c, 0, 87, 96
2, 541080, Note_on_c, 0, 75, 95
2, 541259, Note_on_c, 0, 75, 0
2, 541259, Note_on_c, 0, 87, 0
2, 541440, Note_on_c, 0, 88, 92
2, 541440, Note_on_c, 0, 76, 93
2, 541619, Note_on_c, 0, 76, 0
2, 541619, Note_on_c, 0, 88, 0
2, 541800, Note_on_c, 0, 79, 67
2, 541800, Note_on_c, 0, 67, 62
2, 541980, Note_on_c, 0, 67, 0
2, 541980, Note_on_c, 0, 79, 0
2, 541980, Note_on_c, 0, 81, 87
2, 541980, Note_on_c, 0, 69, 90
2, 542160, Note_on_c, 0, 69, 0
2, 542160, Note_on_c, 0, 81, 0
2, 542160, Note_on_c, 0, 83, 99
2, 542160, Note_on_c, 0, 71, 91
2, 542339, Note_on_c, 0, 71, 0
2, 542339, Note_on_c, 0, 83, 0
2, 542520, Note_on_c, 0, 71, 87
2, 542880, Note_on_c, 0, 71, 0
2, 542880, Note_on_c, 0, 76, 104
2, 542880, Note_on_c, 0, 67, 1
2, 543240, Note_on_c, 0, 67, 0
2, 544320, Note_on_c, 0, 76, 0
2, 544320, Note_on_c, 0, 76, 89
2, 545040, Note_on_c, 0, 91, 90
2, 545673, Note_on_c, 0, 91, 0
2, 545760, Note_on_c, 0, 79, 61
2, 546480, Note_on_c, 0, 79, 0
2, 546480, Note_on_c, 0, 88, 117
2, 547113, Note_on_c, 0, 88, 0
2, 547200, Note_on_c, 0, 76, 0
2, 547200, Note_on_c, 0, 76, 101
2, 547920, Note_on_c, 0, 83, 83
2, 548553, Note_on_c, 0, 83, 0
2, 548640, Note_on_c, 0, 76, 0
2, 548640, Note_on_c, 0, 71, 79
2, 548640, Note_on_c, 0, 64, 78
2, 550080, Note_on_c, 0, 64, 0
2, 550800, Note_on_c, 0, 71, 0
2, 550800, Note_on_c, 0, 79, 66
2, 551433, Note_on_c, 0, 79, 0
2, 551520, Note_on_c, 0, 67, 62
2, 553680, Note_on_c, 0, 67, 0
2, 553680, Note_on_c, 0, 76, 92
2, 554313, Note_on_c, 0, 76, 0
2, 554400, Note_on_c, 0, 64, 34
2, 554400, Note_on_c, 0, 64, 57
2, 554760, Note_on_c, 0, 64, 0
2, 555300, Note_on_c, 0, 64, 0
2, 555300, Note_on_c, 0, 71, 63
2, 555480, Note_on_c, 0, 71, 0
2, 555480, Note_on_c, 0, 67, 51
2, 555660, Note_on_c, 0, 67, 0
2, 555660, Note_on_c, 0, 71, 56
2, 555840, Note_on_c, 0, 71, 0
2, 555840, Note_on_c, 0, 64, 38
2, 556740, Note_on_c, 0, 64, 0
2, 556740, Note_on_c, 0, 71, 62
2, 556920, Note_on_c, 0, 71, 0
2, 556920, Note_on_c, 0, 67, 45
2, 557100, Note_on_c, 0, 67, 0
2, 557100, Note_on_c, 0, 71, 54
2, 557280, Note_on_c, 0, 71, 0
2, 557280, Note_on_c, 0, 64, 50
2, 557460, Note_on_c, 0, 71, 41
2, 557640, Note_on_c, 0, 71, 0
2, 557640, Note_on_c, 0, 67, 44
2, 557820, Note_on_c, 0, 71, 57
2, 558000, Note_on_c, 0, 64, 0
2, 558000, Note_on_c, 0, 64, 57
2, 558720, Note_on_c, 0, 71, 0
2, 558720, Note_on_c, 0, 67, 0
2, 558720, Note_on_c, 0, 64, 44
2, 558900, Note_on_c, 0, 64, 0
2, 558900, Note_on_c, 0, 71, 72
2, 559080, Note_on_c, 0, 71, 0
2, 559080, Note_on_c, 0, 67, 54
2, 559260, Note_on_c, 0, 67, 0
2, 559260, Note_on_c, 0, 71, 70
2, 559440, Note_on_c, 0, 71, 0
2, 559440, Note_on_c, 0, 64, 0
2, 559440, Note_on_c, 0, 64, 60
2, 559620, Note_on_c, 0, 67, 52
2, 559800, Note_on_c, 0, 71, 67
2, 559980, Note_on_c, 0, 76, 69
2, 560160, Note_on_c, 0, 76, 0
2, 560160, Note_on_c, 0, 64, 0
2, 560160, Note_on_c, 0, 67, 0
2, 560160, Note_on_c, 0, 71, 0
2, 560160, Note_on_c, 0, 84, 65
2, 560160, Note_on_c, 0, 72, 54
2, 560340, Note_on_c, 0, 72, 0
2, 560340, Note_on_c, 0, 79, 72
2, 560520, Note_on_c, 0, 79, 0
2, 560520, Note_on_c, 0, 76, 53
2, 560700, Note_on_c, 0, 76, 0
2, 560700, Note_on_c, 0, 79, 66
2, 560880, Note_on_c, 0, 79, 0
2, 560880, Note_on_c, 0, 84, 0
2, 560880, Note_on_c, 0, 83, 67
2, 560880, Note_on_c, 0, 72, 62
2, 561240, Note_on_c, 0, 83, 0
2, 561240, Note_on_c, 0, 81, 66
2, 561600, Note_on_c, 0, 81, 0
2, 561600, Note_on_c, 0, 79, 65
2, 561780, Note_on_c, 0, 72, 0
2, 561780, Note_on_c, 0, 79, 74
2, 561960, Note_on_c, 0, 79, 0
2, 561960, Note_on_c, 0, 76, 57
2, 562140, Note_on_c, 0, 76, 0
2, 562140, Note_on_c, 0, 79, 65
2, 562320, Note_on_c, 0, 71, 73
2, 562953, Note_on_c, 0, 79, 0
2, 563040, Note_on_c, 0, 79, 0
2, 563040, Note_on_c, 0, 79, 72
2, 563040, Note_on_c, 0, 72, 53
2, 563040, Note_on_c, 0, 76, 53
2, 563220, Note_on_c, 0, 76, 0
2, 563220, Note_on_c, 0, 72, 0
2, 563220, Note_on_c, 0, 71, 0
2, 563220, Note_on_c, 0, 76, 68
2, 563400, Note_on_c, 0, 76, 0
2, 563400, Note_on_c, 0, 79, 0
2, 563400, Note_on_c, 0, 81, 80
2, 563400, Note_on_c, 0, 72, 56
2, 563580, Note_on_c, 0, 72, 0
2, 563580, Note_on_c, 0, 76, 70
2, 563760, Note_on_c, 0, 76, 0
2, 563760, Note_on_c, 0, 81, 0
2, 563760, Note_on_c, 0, 83, 76
2, 563760, Note_on_c, 0, 67, 47
2, 563940, Note_on_c, 0, 67, 0
2, 563940, Note_on_c, 0, 76, 69
2, 564120, Note_on_c, 0, 76, 0
2, 564120, Note_on_c, 0, 72, 59
2, 564300, Note_on_c, 0, 72, 0
2, 564300, Note_on_c, 0, 76, 65
2, 564480, Note_on_c, 0, 76, 0
2, 564480, Note_on_c, 0, 72, 42
2, 564480, Note_on_c, 0, 76, 42
2, 564480, Note_on_c, 0, 67, 48
2, 564660, Note_on_c, 0, 67, 0
2, 564660, Note_on_c, 0, 76, 0
2, 564660, Note_on_c, 0, 72, 0
2, 564660, Note_on_c, 0, 72, 68
2, 564840, Note_on_c, 0, 72, 0
2, 564840, Note_on_c, 0, 83, 0
2, 564840, Note_on_c, 0, 81, 71
2, 564840, Note_on_c, 0, 69, 53
2, 565020, Note_on_c, 0, 69, 0
2, 565020, Note_on_c, 0, 72, 65
2, 565200, Note_on_c, 0, 81, 0
2, 565200, Note_on_c, 0, 79, 69
2, 565200, Note_on_c, 0, 64, 58
2, 565560, Note_on_c, 0, 79, 0
2, 565560, Note_on_c, 0, 77, 66
2, 565920, Note_on_c, 0, 77, 0
2, 565920, Note_on_c, 0, 72, 0
2, 565920, Note_on_c, 0, 76, 69
2, 565920, Note_on_c, 0, 71, 45
2, 566100, Note_on_c, 0, 71, 0
2, 566100, Note_on_c, 0, 64, 0
2, 566100, Note_on_c, 0, 71, 73
2, 566280, Note_on_c, 0, 71, 0
2, 566280, Note_on_c, 0, 67, 56
2, 566460, Note_on_c, 0, 67, 0
2, 566460, Note_on_c, 0, 71, 63
2, 566640, Note_on_c, 0, 64, 56
2, 567000, Note_on_c, 0, 76, 0
2, 567000, Note_on_c, 0, 77, 76
2, 567360, Note_on_c, 0, 77, 0
2, 567360, Note_on_c, 0, 71, 0
2, 567360, Note_on_c, 0, 76, 70
2, 567360, Note_on_c, 0, 70, 45
2, 567540, Note_on_c, 0, 70, 0
2, 567540, Note_on_c, 0, 64, 0
2, 567540, Note_on_c, 0, 70, 69
2, 567720, Note_on_c, 0, 70, 0
2, 567720, Note_on_c, 0, 67, 59
2, 567900, Note_on_c, 0, 67, 0
2, 567900, Note_on_c, 0, 70, 63
2, 568080, Note_on_c, 0, 76, 0
2, 568080, Note_on_c, 0, 74, 71
2, 568080, Note_on_c, 0, 62, 59
2, 568440, Note_on_c, 0, 74, 0
2, 568440, Note_on_c, 0, 76, 80
2, 568800, Note_on_c, 0, 76, 0
2, 568800, Note_on_c, 0, 70, 0
2, 568800, Note_on_c, 0, 74, 67
2, 568800, Note_on_c, 0, 69, 43
2, 568980, Note_on_c, 0, 69, 0
2, 568980, Note_on_c, 0, 62, 0
2, 568980, Note_on_c, 0, 69, 74
2, 569160, Note_on_c, 0, 69, 0
2, 569160, Note_on_c, 0, 65, 49
2, 569340, Note_on_c, 0, 65, 0
2, 569340, Note_on_c, 0, 69, 71
2, 569520, Note_on_c, 0, 62, 61
2, 569880, Note_on_c, 0, 74, 0
2, 569880, Note_on_c, 0, 76, 77
2, 570240, Note_on_c, 0, 76, 0
2, 570240, Note_on_c, 0, 69, 0
2, 570240, Note_on_c, 0, 74, 66
2, 570240, Note_on_c, 0, 68, 40
2, 570420, Note_on_c, 0, 68, 0
2, 570420, Note_on_c, 0, 62, 0
2, 570420, Note_on_c, 0, 68, 73
2, 570600, Note_on_c, 0, 68, 0
2, 570600, Note_on_c, 0, 65, 56
2, 570780, Note_on_c, 0, 65, 0
2, 570780, Note_on_c, 0, 68, 71
2, 570960, Note_on_c, 0, 74, 0
2, 570960, Note_on_c, 0, 72, 67
2, 570960, Note_on_c, 0, 60, 62
2, 571320, Note_on_c, 0, 72, 0
2, 571320, Note_on_c, 0, 74, 78
2, 571680, Note_on_c, 0, 74, 0
2, 571680, Note_on_c, 0, 68, 0
2, 571680, Note_on_c, 0, 76, 78
2, 571860, Note_on_c, 0, 60, 0
2, 571860, Note_on_c, 0, 67, 67
2, 572040, Note_on_c, 0, 67, 0
2, 572040, Note_on_c, 0, 76, 0
2, 572040, Note_on_c, 0, 79, 83
2, 572040, Note_on_c, 0, 64, 56
2, 572220, Note_on_c, 0, 64, 0
2, 572220, Note_on_c, 0, 67, 64
2, 572400, Note_on_c, 0, 67, 0
2, 572400, Note_on_c, 0, 79, 0
2, 572400, Note_on_c, 0, 84, 81
2, 572400, Note_on_c, 0, 60, 49
2, 572580, Note_on_c, 0, 60, 0
2, 572580, Note_on_c, 0, 64, 68
2, 572760, Note_on_c, 0, 64, 0
2, 572760, Note_on_c, 0, 67, 67
2, 572940, Note_on_c, 0, 67, 0
2, 572940, Note_on_c, 0, 72, 75
2, 573120, Note_on_c, 0, 72, 0
2, 573120, Note_on_c, 0, 76, 40
2, 573120, Note_on_c, 0, 64, 54
2, 573300, Note_on_c, 0, 76, 0
2, 573300, Note_on_c, 0, 79, 51
2, 573480, Note_on_c, 0, 79, 0
2, 573480, Note_on_c, 0, 64, 0
2, 573480, Note_on_c, 0, 84, 0
2, 573480, Note_on_c, 0, 83, 70
2, 573480, Note_on_c, 0, 76, 44
2, 573480, Note_on_c, 0, 67, 53
2, 573660, Note_on_c, 0, 76, 0
2, 573660, Note_on_c, 0, 79, 53
2, 573840, Note_on_c, 0, 79, 0
2, 573840, Note_on_c, 0, 67, 0
2, 573840, Note_on_c, 0, 83, 0
2, 573840, Note_on_c, 0, 81, 65
2, 573840, Note_on_c, 0, 71, 53
2, 574200, Note_on_c, 0, 81, 0
2, 574200, Note_on_c, 0, 79, 66
2, 574200, Note_on_c, 0, 76, 44
2, 574560, Note_on_c, 0, 76, 0
2, 574560, Note_on_c, 0, 79, 0
2, 574560, Note_on_c, 0, 83, 97
2, 574560, Note_on_c, 0, 72, 45
2, 574740, Note_on_c, 0, 72, 0
2, 574740, Note_on_c, 0, 71, 0
2, 574740, Note_on_c, 0, 76, 71
2, 574877, Note_on_c, 0, 83, 0
2, 574920, Note_on_c, 0, 76, 0
2, 574920, Note_on_c, 0, 81, 69
2, 574920, Note_on_c, 0, 72, 53
2, 575100, Note_on_c, 0, 72, 0
2, 575100, Note_on_c, 0, 76, 67
2, 575280, Note_on_c, 0, 76, 0
2, 575280, Note_on_c, 0, 81, 0
2, 575280, Note_on_c, 0, 79, 66
2, 575280, Note_on_c, 0, 67, 45
2, 575460, Note_on_c, 0, 67, 0
2, 575460, Note_on_c, 0, 76, 73
2, 575640, Note_on_c, 0, 76, 0
2, 575640, Note_on_c, 0, 72, 57
2, 575820, Note_on_c, 0, 72, 0
2, 575820, Note_on_c, 0, 76, 69
2, 576000, Note_on_c, 0, 76, 0
2, 576000, Note_on_c, 0, 67, 46
2, 576180, Note_on_c, 0, 67, 0
2, 576180, Note_on_c, 0, 72, 66
2, 576360, Note_on_c, 0, 72, 0
2, 576360, Note_on_c, 0, 79, 0
2, 576360, Note_on_c, 0, 81, 76
2, 576360, Note_on_c, 0, 69, 56
2, 576540, Note_on_c, 0, 69, 0
2, 576540, Note_on_c, 0, 72, 67
2, 576720, Note_on_c, 0, 81, 0
2, 576720, Note_on_c, 0, 79, 68
2, 576720, Note_on_c, 0, 64, 60
2, 577080, Note_on_c, 0, 79, 0
2, 577080, Note_on_c, 0, 77, 65
2, 577440, Note_on_c, 0, 77, 0
2, 577440, Note_on_c, 0, 72, 0
2, 577440, Note_on_c, 0, 79, 73
2, 577620, Note_on_c, 0, 64, 0
2, 577620, Note_on_c, 0, 71, 74
2, 577800, Note_on_c, 0, 71, 0
2, 577800, Note_on_c, 0, 79, 0
2, 577800, Note_on_c, 0, 77, 64
2, 577800, Note_on_c, 0, 67, 58
2, 577980, Note_on_c, 0, 67, 0
2, 577980, Note_on_c, 0, 71, 66
2, 578160, Note_on_c, 0, 77, 0
2, 578160, Note_on_c, 0, 76, 70
2, 578160, Note_on_c, 0, 64, 65
2, 578880, Note_on_c, 0, 71, 0
2, 578880, Note_on_c, 0, 70, 47
2, 578880, Note_on_c, 0, 74, 47
2, 579060, Note_on_c, 0, 74, 0
2, 579060, Note_on_c, 0, 70, 0
2, 579060, Note_on_c, 0, 64, 0
2, 579060, Note_on_c, 0, 70, 73
2, 579240, Note_on_c, 0, 70, 0
2, 579240, Note_on_c, 0, 76, 0
2, 579240, Note_on_c, 0, 77, 77
2, 579240, Note_on_c, 0, 67, 52
2, 579420, Note_on_c, 0, 67, 0
2, 579420, Note_on_c, 0, 70, 66
2, 579600, Note_on_c, 0, 77, 0
2, 579600, Note_on_c, 0, 79, 76
2, 579600, Note_on_c, 0, 62, 64
2, 580320, Note_on_c, 0, 70, 0
2, 580320, Note_on_c, 0, 69, 50
2, 580320, Note_on_c, 0, 74, 50
2, 580500, Note_on_c, 0, 74, 0
2, 580500, Note_on_c, 0, 69, 0
2, 580680, Note_on_c, 0, 79, 0
2, 580680, Note_on_c, 0, 77, 68
2, 581040, Note_on_c, 0, 77, 0
2, 581040, Note_on_c, 0, 76, 67
2, 581220, Note_on_c, 0, 62, 0
2, 581220, Note_on_c, 0, 69, 73
2, 581400, Note_on_c, 0, 69, 0
2, 581400, Note_on_c, 0, 65, 55
2, 581580, Note_on_c, 0, 65, 0
2, 581580, Note_on_c, 0, 69, 70
2, 581760, Note_on_c, 0, 69, 0
2, 581760, Note_on_c, 0, 68, 44
2, 581760, Note_on_c, 0, 72, 44
2, 581760, Note_on_c, 0, 60, 46
2, 582120, Note_on_c, 0, 60, 0
2, 582120, Note_on_c, 0, 76, 0
2, 582120, Note_on_c, 0, 74, 70
2, 582480, Note_on_c, 0, 74, 0
2, 582480, Note_on_c, 0, 72, 66
2, 582840, Note_on_c, 0, 72, 0
2, 582840, Note_on_c, 0, 74, 72
2, 583200, Note_on_c, 0, 74, 0
2, 583200, Note_on_c, 0, 72, 0
2, 583200, Note_on_c, 0, 68, 0
2, 583200, Note_on_c, 0, 76, 80
2, 583200, Note_on_c, 0, 68, 44
2, 583920, Note_on_c, 0, 68, 0
2, 583920, Note_on_c, 0, 76, 0
2, 583920, Note_on_c, 0, 76, 74
2, 584100, Note_on_c, 0, 71, 58
2, 584280, Note_on_c, 0, 71, 0
2, 584280, Note_on_c, 0, 76, 0
2, 584280, Note_on_c, 0, 77, 79
2, 584280, Note_on_c, 0, 68, 56
2, 584460, Note_on_c, 0, 68, 0
2, 584460, Note_on_c, 0, 71, 64
2, 584640, Note_on_c, 0, 71, 0
2, 584640, Note_on_c, 0, 77, 0
2, 584640, Note_on_c, 0, 79, 80
2, 584640, Note_on_c, 0, 64, 50
2, 584820, Note_on_c, 0, 64, 0
2, 584820, Note_on_c, 0, 76, 76
2, 585000, Note_on_c, 0, 76, 0
2, 585000, Note_on_c, 0, 73, 57
2, 585180, Note_on_c, 0, 73, 0
2, 585180, Note_on_c, 0, 76, 65
2, 585360, Note_on_c, 0, 76, 0
2, 585360, Note_on_c, 0, 69, 50
2, 585720, Note_on_c, 0, 79, 0
2, 585720, Note_on_c, 0, 76, 66
2, 586260, Note_on_c, 0, 69, 0
2, 586260, Note_on_c, 0, 72, 69
2, 586440, Note_on_c, 0, 72, 0
2, 586440, Note_on_c, 0, 76, 0
2, 586440, Note_on_c, 0, 77, 81
2, 586440, Note_on_c, 0, 69, 56
2, 586620, Note_on_c, 0, 69, 0
2, 586620, Note_on_c, 0, 72, 70
2, 586800, Note_on_c, 0, 72, 0
2, 586800, Note_on_c, 0, 77, 0
2, 586800, Note_on_c, 0, 79, 81
2, 586800, Note_on_c, 0, 65, 47
2, 586980, Note_on_c, 0, 65, 0
2, 586980, Note_on_c, 0, 69, 67
2, 587160, Note_on_c, 0, 69, 0
2, 587160, Note_on_c, 0, 79, 0
2, 587160, Note_on_c, 0, 81, 72
2, 587160, Note_on_c, 0, 65, 50
2, 587340, Note_on_c, 0, 65, 0
2, 587340, Note_on_c, 0, 69, 71
2, 587520, Note_on_c, 0, 69, 0
2, 587520, Note_on_c, 0, 81, 0
2, 587520, Note_on_c, 0, 81, 74
2, 587520, Note_on_c, 0, 62, 53
2, 587700, Note_on_c, 0, 62, 0
2, 587700, Note_on_c, 0, 77, 78
2, 587880, Note_on_c, 0, 77, 0
2, 587880, Note_on_c, 0, 81, 0
2, 587880, Note_on_c, 0, 83, 82
2, 587880, Note_on_c, 0, 74, 57
2, 588060, Note_on_c, 0, 74, 0
2, 588060, Note_on_c, 0, 77, 71
2, 588240, Note_on_c, 0, 77, 0
2, 588240, Note_on_c, 0, 71, 46
2, 588600, Note_on_c, 0, 83, 0
2, 588600, Note_on_c, 0, 77, 63
2, 588960, Note_on_c, 0, 77, 0
2, 588960, Note_on_c, 0, 79, 73
2, 589140, Note_on_c, 0, 71, 0
2, 589140, Note_on_c, 0, 71, 64
2, 589320, Note_on_c, 0, 71, 0
2, 589320, Note_on_c, 0, 67, 56
2, 589500, Note_on_c, 0, 67, 0
2, 589500, Note_on_c, 0, 71, 67
2, 589680, Note_on_c, 0, 71, 0
2, 589680, Note_on_c, 0, 79, 0
2, 589680, Note_on_c, 0, 81, 78
2, 589680, Note_on_c, 0, 64, 45
2, 589860, Note_on_c, 0, 64, 0
2, 589860, Note_on_c, 0, 67, 62
2, 590040, Note_on_c, 0, 67, 0
2, 590040, Note_on_c, 0, 81, 0
2, 590040, Note_on_c, 0, 83, 78
2, 590040, Note_on_c, 0, 64, 55
2, 590220, Note_on_c, 0, 64, 0
2, 590220, Note_on_c, 0, 67, 66
2, 590400, Note_on_c, 0, 67, 0
2, 590400, Note_on_c, 0, 83, 0
2, 590400, Note_on_c, 0, 83, 76
2, 590400, Note_on_c, 0, 60, 47
2, 590580, Note_on_c, 0, 60, 0
2, 590580, Note_on_c, 0, 79, 80
2, 590760, Note_on_c, 0, 79, 0
2, 590760, Note_on_c, 0, 83, 0
2, 590760, Note_on_c, 0, 84, 74
2, 590760, Note_on_c, 0, 76, 54
2, 590940, Note_on_c, 0, 76, 0
2, 590940, Note_on_c, 0, 79, 64
2, 591120, Note_on_c, 0, 79, 0
2, 591120, Note_on_c, 0, 72, 49
2, 591480, Note_on_c, 0, 84, 0
2, 591480, Note_on_c, 0, 79, 65
2, 591840, Note_on_c, 0, 79, 0
2, 591840, Note_on_c, 0, 81, 79
2, 592020, Note_on_c, 0, 72, 0
2, 592020, Note_on_c, 0, 76, 68
2, 592200, Note_on_c, 0, 76, 0
2, 592200, Note_on_c, 0, 72, 58
2, 592380, Note_on_c, 0, 72, 0
2, 592380, Note_on_c, 0, 76, 68
2, 592560, Note_on_c, 0, 76, 0
2, 592560, Note_on_c, 0, 81, 0
2, 592560, Note_on_c, 0, 83, 75
2, 592560, Note_on_c, 0, 69, 45
2, 592740, Note_on_c, 0, 69, 0
2, 592740, Note_on_c, 0, 72, 66
2, 592920, Note_on_c, 0, 72, 0
2, 592920, Note_on_c, 0, 83, 0
2, 592920, Note_on_c, 0, 84, 79
2, 592920, Note_on_c, 0, 69, 56
2, 593100, Note_on_c, 0, 69, 0
2, 593100, Note_on_c, 0, 72, 69
2, 593280, Note_on_c, 0, 72, 0
2, 593280, Note_on_c, 0, 84, 0
2, 593280, Note_on_c, 0, 86, 80
2, 593280, Note_on_c, 0, 65, 47
2, 593460, Note_on_c, 0, 65, 0
2, 593460, Note_on_c, 0, 69, 64
2, 593640, Note_on_c, 0, 69, 0
2, 593640, Note_on_c, 0, 86, 0
2, 593640, Note_on_c, 0, 83, 65
2, 593640, Note_on_c, 0, 65, 52
2, 593820, Note_on_c, 0, 65, 0
2, 593820, Note_on_c, 0, 69, 70
2, 594000, Note_on_c, 0, 69, 0
2, 594000, Note_on_c, 0, 83, 0
2, 594000, Note_on_c, 0, 84, 76
2, 594000, Note_on_c, 0, 62, 52
2, 594180, Note_on_c, 0, 62, 0
2, 594180, Note_on_c, 0, 65, 68
2, 594360, Note_on_c, 0, 65, 0
2, 594360, Note_on_c, 0, 84, 0
2, 594360, Note_on_c, 0, 86, 78
2, 594360, Note_on_c, 0, 59, 52
2, 594540, Note_on_c, 0, 59, 0
2, 594540, Note_on_c, 0, 62, 69
2, 594720, Note_on_c, 0, 62, 0
2, 594720, Note_on_c, 0, 86, 0
2, 594720, Note_on_c, 0, 88, 77
2, 594720, Note_on_c, 0, 76, 41
2, 594720, Note_on_c, 0, 59, 73
2, 594720, Note_on_c, 0, 62, 73
2, 594720, Note_on_c, 0, 64, 73
2, 594720, Note_on_c, 0, 68, 73
2, 595080, Note_on_c, 0, 68, 0
2, 595080, Note_on_c, 0, 76, 0
2, 595080, Note_on_c, 0, 59, 0
2, 595080, Note_on_c, 0, 62, 0
2, 595080, Note_on_c, 0, 64, 0
2, 595080, Note_on_c, 0, 74, 53
2, 595080, Note_on_c, 0, 76, 53
2, 595259, Note_on_c, 0, 76, 0
2, 595259, Note_on_c, 0, 74, 0
2, 595440, Note_on_c, 0, 74, 46
2, 595440, Note_on_c, 0, 76, 46
2, 595619, Note_on_c, 0, 76, 0
2, 595619, Note_on_c, 0, 74, 0
2, 595800, Note_on_c, 0, 73, 43
2, 595800, Note_on_c, 0, 76, 43
2, 595979, Note_on_c, 0, 76, 0
2, 595979, Note_on_c, 0, 73, 0
2, 596160, Note_on_c, 0, 72, 41
2, 596160, Note_on_c, 0, 76, 41
2, 596339, Note_on_c, 0, 76, 0
2, 596339, Note_on_c, 0, 72, 0
2, 596520, Note_on_c, 0, 76, 45
2, 596520, Note_on_c, 0, 71, 39
2, 596520, Note_on_c, 0, 74, 39
2, 596609, Note_on_c, 0, 74, 0
2, 596609, Note_on_c, 0, 71, 0
2, 596609, Note_on_c, 0, 76, 0
2, 596700, Note_on_c, 0, 76, 48
2, 596700, Note_on_c, 0, 71, 40
2, 596700, Note_on_c, 0, 74, 40
2, 596789, Note_on_c, 0, 74, 0
2, 596789, Note_on_c, 0, 71, 0
2, 596789, Note_on_c, 0, 76, 0
2, 596880, Note_on_c, 0, 76, 52
2, 596880, Note_on_c, 0, 70, 39
2, 596880, Note_on_c, 0, 74, 39
2, 597059, Note_on_c, 0, 74, 0
2, 597059, Note_on_c, 0, 70, 0
2, 597059, Note_on_c, 0, 76, 0
2, 597240, Note_on_c, 0, 76, 54
2, 597240, Note_on_c, 0, 69, 45
2, 597240, Note_on_c, 0, 74, 45
2, 597419, Note_on_c, 0, 74, 0
2, 597419, Note_on_c, 0, 69, 0
2, 597419, Note_on_c, 0, 76, 0
2, 597600, Note_on_c, 0, 76, 49
2, 597600, Note_on_c, 0, 68, 40
2, 597600, Note_on_c, 0, 74, 40
2, 597779, Note_on_c, 0, 74, 0
2, 597779, Note_on_c, 0, 68, 0
2, 597779, Note_on_c, 0, 76, 0
2, 597960, Note_on_c, 0, 74, 42
2, 597960, Note_on_c, 0, 76, 42
2, 598139, Note_on_c, 0, 76, 0
2, 598139, Note_on_c, 0, 74, 0
2, 598320, Note_on_c, 0, 74, 41
2, 598320, Note_on_c, 0, 76, 41
2, 598499, Note_on_c, 0, 76, 0
2, 598499, Note_on_c, 0, 74, 0
2, 598680, Note_on_c, 0, 73, 45
2, 598680, Note_on_c, 0, 76, 45
2, 598859, Note_on_c, 0, 76, 0
2, 598859, Note_on_c, 0, 73, 0
2, 599040, Note_on_c, 0, 72, 42
2, 599040, Note_on_c, 0, 76, 42
2, 599219, Note_on_c, 0, 76, 0
2, 599219, Note_on_c, 0, 72, 0
2, 599400, Note_on_c, 0, 76, 48
2, 599400, Note_on_c, 0, 71, 38
2, 599400, Note_on_c, 0, 74, 38
2, 599489, Note_on_c, 0, 74, 0
2, 599489, Note_on_c, 0, 71, 0
2, 599580, Note_on_c, 0, 76, 0
2, 599580, Note_on_c, 0, 76, 46
2, 599580, Note_on_c, 0, 71, 39
2, 599580, Note_on_c, 0, 74, 39
2, 599669, Note_on_c, 0, 74, 0
2, 599669, Note_on_c, 0, 71, 0
2, 599760, Note_on_c, 0, 76, 0
2, 599760, Note_on_c, 0, 76, 55
2, 599760, Note_on_c, 0, 70, 39
2, 599760, Note_on_c, 0, 74, 39
2, 599939, Note_on_c, 0, 74, 0
2, 599939, Note_on_c, 0, 70, 0
2, 600120, Note_on_c, 0, 76, 0
2, 600120, Note_on_c, 0, 88, 0
2, 600120, Note_on_c, 0, 87, 80
2, 600120, Note_on_c, 0, 69, 44
2, 600120, Note_on_c, 0, 72, 44
2, 600120, Note_on_c, 0, 77, 44
2, 600299, Note_on_c, 0, 77, 0
2, 600299, Note_on_c, 0, 72, 0
2, 600299, Note_on_c, 0, 69, 0
2, 600437, Note_on_c, 0, 87, 0
2, 600480, Note_on_c, 0, 86, 81
2, 600480, Note_on_c, 0, 70, 43
2, 600480, Note_on_c, 0, 74, 43
2, 600659, Note_on_c, 0, 74, 0
2, 600659, Note_on_c, 0, 70, 0
2, 600840, Note_on_c, 0, 72, 55
2, 600840, Note_on_c, 0, 77, 55
2, 600960, Note_on_c, 0, 77, 0
2, 600960, Note_on_c, 0, 72, 0
2, 600960, Note_on_c, 0, 74, 47
2, 601079, Note_on_c, 0, 74, 0
2, 601079, Note_on_c, 0, 77, 57
2, 601200, Note_on_c, 0, 77, 0
2, 601200, Note_on_c, 0, 74, 48
2, 601200, Note_on_c, 0, 70, 57
2, 601560, Note_on_c, 0, 74, 0
2, 601560, Note_on_c, 0, 74, 50
2, 601747, Note_on_c, 0, 86, 0
2, 601920, Note_on_c, 0, 74, 0
2, 601920, Note_on_c, 0, 86, 72
2, 601920, Note_on_c, 0, 74, 55
2, 602099, Note_on_c, 0, 74, 0
2, 602280, Note_on_c, 0, 70, 0
2, 602280, Note_on_c, 0, 69, 49
2, 602280, Note_on_c, 0, 74, 49
2, 602400, Note_on_c, 0, 74, 0
2, 602400, Note_on_c, 0, 69, 0
2, 602400, Note_on_c, 0, 71, 46
2, 602519, Note_on_c, 0, 71, 0
2, 602519, Note_on_c, 0, 74, 57
2, 602640, Note_on_c, 0, 68, 58
2, 603000, Note_on_c, 0, 74, 0
2, 603000, Note_on_c, 0, 86, 0
2, 603000, Note_on_c, 0, 85, 81
2, 603000, Note_on_c, 0, 74, 57
2, 603000, Note_on_c, 0, 76, 57
2, 603273, Note_on_c, 0, 68, 0
2, 603317, Note_on_c, 0, 85, 0
2, 603360, Note_on_c, 0, 74, 0
2, 603360, Note_on_c, 0, 76, 0
2, 603360, Note_on_c, 0, 84, 74
2, 603720, Note_on_c, 0, 71, 43
2, 603720, Note_on_c, 0, 76, 43
2, 603840, Note_on_c, 0, 76, 0
2, 603840, Note_on_c, 0, 71, 0
2, 603840, Note_on_c, 0, 72, 41
2, 603959, Note_on_c, 0, 72, 0
2, 603959, Note_on_c, 0, 76, 60
2, 604080, Note_on_c, 0, 76, 0
2, 604080, Note_on_c, 0, 72, 45
2, 604080, Note_on_c, 0, 69, 55
2, 604440, Note_on_c, 0, 72, 0
2, 604440, Note_on_c, 0, 72, 48
2, 604800, Note_on_c, 0, 72, 0
2, 604800, Note_on_c, 0, 84, 0
2, 604800, Note_on_c, 0, 84, 73
2, 604800, Note_on_c, 0, 72, 55
2, 605160, Note_on_c, 0, 72, 0
2, 605160, Note_on_c, 0, 69, 0
2, 605160, Note_on_c, 0, 67, 47
2, 605160, Note_on_c, 0, 72, 47
2, 605280, Note_on_c, 0, 72, 0
2, 605280, Note_on_c, 0, 67, 0
2, 605280, Note_on_c, 0, 69, 48
2, 605399, Note_on_c, 0, 69, 0
2, 605399, Note_on_c, 0, 72, 51
2, 605520, Note_on_c, 0, 66, 55
2, 605880, Note_on_c, 0, 72, 0
2, 605880, Note_on_c, 0, 84, 0
2, 605880, Note_on_c, 0, 83, 82
2, 605880, Note_on_c, 0, 72, 53
2, 605880, Note_on_c, 0, 74, 53
2, 606153, Note_on_c, 0, 66, 0
2, 606197, Note_on_c, 0, 83, 0
2, 606240, Note_on_c, 0, 72, 0
2, 606240, Note_on_c, 0, 74, 0
2, 606240, Note_on_c, 0, 82, 70
2, 606600, Note_on_c, 0, 69, 43
2, 606600, Note_on_c, 0, 74, 43
2, 606720, Note_on_c, 0, 74, 0
2, 606720, Note_on_c, 0, 69, 0
2, 606720, Note_on_c, 0, 70, 43
2, 606839, Note_on_c, 0, 70, 0
2, 606839, Note_on_c, 0, 74, 59
2, 606960, Note_on_c, 0, 74, 0
2, 606960, Note_on_c, 0, 70, 44
2, 606960, Note_on_c, 0, 67, 57
2, 607320, Note_on_c, 0, 70, 0
2, 607320, Note_on_c, 0, 70, 56
2, 607320, Note_on_c, 0, 72, 56
2, 607593, Note_on_c, 0, 67, 0
2, 607680, Note_on_c, 0, 82, 0
2, 607680, Note_on_c, 0, 70, 0
2, 607680, Note_on_c, 0, 72, 0
2, 607680, Note_on_c, 0, 81, 67
2, 608040, Note_on_c, 0, 67, 43
2, 608040, Note_on_c, 0, 72, 43
2, 608160, Note_on_c, 0, 72, 0
2, 608160, Note_on_c, 0, 67, 0
2, 608160, Note_on_c, 0, 69, 44
2, 608279, Note_on_c, 0, 69, 0
2, 608279, Note_on_c, 0, 72, 58
2, 608400, Note_on_c, 0, 72, 0
2, 608400, Note_on_c, 0, 69, 45
2, 608400, Note_on_c, 0, 65, 53
2, 608760, Note_on_c, 0, 69, 0
2, 608760, Note_on_c, 0, 69, 54
2, 608760, Note_on_c, 0, 71, 54
2, 609033, Note_on_c, 0, 65, 0
2, 609120, Note_on_c, 0, 81, 0
2, 609120, Note_on_c, 0, 69, 0
2, 609120, Note_on_c, 0, 71, 0
2, 609120, Note_on_c, 0, 80, 70
2, 609480, Note_on_c, 0, 68, 39
2, 609569, Note_on_c, 0, 68, 0
2, 609660, Note_on_c, 0, 68, 48
2, 609749, Note_on_c, 0, 68, 0
2, 609840, Note_on_c, 0, 68, 49
2, 610019, Note_on_c, 0, 68, 0
2, 610200, Note_on_c, 0, 65, 45
2, 610200, Note_on_c, 0, 68, 45
2, 610379, Note_on_c, 0, 68, 0
2, 610379, Note_on_c, 0, 65, 0
2, 610560, Note_on_c, 0, 65, 37
2, 610560, Note_on_c, 0, 68, 37
2, 610739, Note_on_c, 0, 68, 0
2, 610739, Note_on_c, 0, 65, 0
2, 610920, Note_on_c, 0, 65, 46
2, 610920, Note_on_c, 0, 68, 46
2, 611009, Note_on_c, 0, 68, 0
2, 611009, Note_on_c, 0, 65, 0
2, 611100, Note_on_c, 0, 65, 43
2, 611100, Note_on_c, 0, 68, 43
2, 611189, Note_on_c, 0, 68, 0
2, 611189, Note_on_c, 0, 65, 0
2, 611280, Note_on_c, 0, 65, 41
2, 611280, Note_on_c, 0, 68, 41
2, 611459, Note_on_c, 0, 68, 0
2, 611459, Note_on_c, 0, 65, 0
2, 611640, Note_on_c, 0, 80, 0
2, 611640, Note_on_c, 0, 81, 76
2, 611640, Note_on_c, 0, 69, 40
2, 611819, Note_on_c, 0, 69, 0
2, 612000, Note_on_c, 0, 81, 0
2, 612000, Note_on_c, 0, 80, 66
2, 612000, Note_on_c, 0, 65, 38
2, 612000, Note_on_c, 0, 68, 38
2, 612179, Note_on_c, 0, 68, 0
2, 612179, Note_on_c, 0, 65, 0
2, 612360, Note_on_c, 0, 68, 39
2, 612449, Note_on_c, 0, 68, 0
2, 612540, Note_on_c, 0, 68, 43
2, 612629, Note_on_c, 0, 68, 0
2, 612720, Note_on_c, 0, 68, 40
2, 612899, Note_on_c, 0, 68, 0
2, 613080, Note_on_c, 0, 65, 39
2, 613080, Note_on_c, 0, 68, 39
2, 613259, Note_on_c, 0, 68, 0
2, 613259, Note_on_c, 0, 65, 0
2, 613440, Note_on_c, 0, 65, 38
2, 613440, Note_on_c, 0, 68, 38
2, 613619, Note_on_c, 0, 68, 0
2, 613619, Note_on_c, 0, 65, 0
2, 613800, Note_on_c, 0, 65, 39
2, 613800, Note_on_c, 0, 68, 39
2, 613889, Note_on_c, 0, 68, 0
2, 613889, Note_on_c, 0, 65, 0
2, 613980, Note_on_c, 0, 65, 43
2, 613980, Note_on_c, 0, 68, 43
2, 614069, Note_on_c, 0, 68, 0
2, 614069, Note_on_c, 0, 65, 0
2, 614160, Note_on_c, 0, 65, 38
2, 614160, Note_on_c, 0, 68, 38
2, 614339, Note_on_c, 0, 68, 0
2, 614339, Note_on_c, 0, 65, 0
2, 614520, Note_on_c, 0, 80, 0
2, 614520, Note_on_c, 0, 81, 80
2, 614520, Note_on_c, 0, 65, 41
2, 614520, Note_on_c, 0, 69, 41
2, 614699, Note_on_c, 0, 69, 0
2, 614699, Note_on_c, 0, 65, 0
2, 614880, Note_on_c, 0, 81, 0
2, 614880, Note_on_c, 0, 80, 71
2, 614880, Note_on_c, 0, 65, 41
2, 614880, Note_on_c, 0, 68, 41
2, 615059, Note_on_c, 0, 68, 0
2, 615059, Note_on_c, 0, 65, 0
2, 615240, Note_on_c, 0, 65, 37
2, 615240, Note_on_c, 0, 68, 37
2, 615329, Note_on_c, 0, 68, 0
2, 615329, Note_on_c, 0, 65, 0
2, 615420, Note_on_c, 0, 65, 36
2, 615420, Note_on_c, 0, 68, 36
2, 615509, Note_on_c, 0, 68, 0
2, 615509, Note_on_c, 0, 65, 0
2, 615600, Note_on_c, 0, 65, 40
2, 615600, Note_on_c, 0, 68, 40
2, 615779, Note_on_c, 0, 68, 0
2, 615779, Note_on_c, 0, 65, 0
2, 617400, Note_on_c, 0, 80, 0
2, 617400, Note_on_c, 0, 69, 50
2, 617760, Note_on_c, 0, 69, 0
2, 617760, Note_on_c, 0, 68, 63
2, 618120, Note_on_c, 0, 65, 44
2, 618209, Note_on_c, 0, 65, 0
2, 618300, Note_on_c, 0, 65, 52
2, 618389, Note_on_c, 0, 65, 0
2, 618480, Note_on_c, 0, 65, 51
2, 618659, Note_on_c, 0, 65, 0
2, 620280, Note_on_c, 0, 68, 0
2, 620280, Note_on_c, 0, 69, 79
2, 620640, Note_on_c, 0, 69, 0
2, 620640, Note_on_c, 0, 68, 67
2, 622080, Note_on_c, 0, 68, 0
2, 622080, Note_on_c, 0, 68, 45
2, 622440, Note_on_c, 0, 74, 68
2, 622560, Note_on_c, 0, 74, 0
2, 622560, Note_on_c, 0, 71, 61
2, 622679, Note_on_c, 0, 71, 0
2, 622679, Note_on_c, 0, 74, 77
2, 622800, Note_on_c, 0, 74, 0
2, 622800, Note_on_c, 0, 68, 64
2, 623520, Note_on_c, 0, 68, 0
2, 625320, Note_on_c, 0, 68, 0
2, 628920, Note_on_c, 0, 69, 82
2, 628920, Note_on_c, 0, 72, 82
2, 628920, Note_on_c, 0, 76, 82
2, 629009, Note_on_c, 0, 76, 0
2, 629009, Note_on_c, 0, 72, 0
2, 629009, Note_on_c, 0, 69, 0
2, 629100, Note_on_c, 0, 69, 86
2, 629100, Note_on_c, 0, 72, 86
2, 629100, Note_on_c, 0, 76, 86
2, 629189, Note_on_c, 0, 76, 0
2, 629189, Note_on_c, 0, 72, 0
2, 629189, Note_on_c, 0, 69, 0
2, 629280, Note_on_c, 0, 69, 88
2, 629280, Note_on_c, 0, 72, 88
2, 629280, Note_on_c, 0, 76, 88
2, 629640, Note_on_c, 0, 76, 0
2, 629640, Note_on_c, 0, 72, 0
2, 629640, Note_on_c, 0, 69, 0
2, 629640, Note_on_c, 0, 72, 91
2, 629640, Note_on_c, 0, 76, 91
2, 629820, Note_on_c, 0, 76, 0
2, 629820, Note_on_c, 0, 72, 0
2, 629820, Note_on_c, 0, 72, 85
2, 629820, Note_on_c, 0, 76, 85
2, 630000, Note_on_c, 0, 76, 0
2, 630000, Note_on_c, 0, 72, 0
2, 630000, Note_on_c, 0, 72, 87
2, 630000, Note_on_c, 0, 76, 87
2, 630360, Note_on_c, 0, 76, 0
2, 630360, Note_on_c, 0, 72, 0
2, 630360, Note_on_c, 0, 72, 88
2, 630360, Note_on_c, 0, 76, 88
2, 630720, Note_on_c, 0, 76, 0
2, 630720, Note_on_c, 0, 72, 0
2, 630720, Note_on_c, 0, 72, 90
2, 630720, Note_on_c, 0, 76, 90
2, 631080, Note_on_c, 0, 76, 0
2, 631080, Note_on_c, 0, 72, 0
2, 631080, Note_on_c, 0, 88, 76
2, 631080, Note_on_c, 0, 76, 88
2, 631200, Note_on_c, 0, 76, 0
2, 631200, Note_on_c, 0, 88, 0
2, 631200, Note_on_c, 0, 84, 73
2, 631200, Note_on_c, 0, 72, 75
2, 631319, Note_on_c, 0, 72, 0
2, 631319, Note_on_c, 0, 84, 0
2, 631319, Note_on_c, 0, 88, 93
2, 631319, Note_on_c, 0, 76, 96
2, 631440, Note_on_c, 0, 76, 0
2, 631440, Note_on_c, 0, 88, 0
2, 631440, Note_on_c, 0, 81, 68
2, 631440, Note_on_c, 0, 72, 79
2, 631800, Note_on_c, 0, 72, 0
2, 631800, Note_on_c, 0, 69, 102
2, 631800, Note_on_c, 0, 72, 102
2, 631800, Note_on_c, 0, 76, 102
2, 631979, Note_on_c, 0, 76, 0
2, 631979, Note_on_c, 0, 72, 0
2, 631979, Note_on_c, 0, 69, 0
2, 632160, Note_on_c, 0, 81, 0
2, 632160, Note_on_c, 0, 69, 89
2, 632160, Note_on_c, 0, 72, 89
2, 632160, Note_on_c, 0, 76, 89
2, 632520, Note_on_c, 0, 76, 0
2, 632520, Note_on_c, 0, 72, 0
2, 632520, Note_on_c, 0, 69, 0
2, 632520, Note_on_c, 0, 88, 80
2, 632520, Note_on_c, 0, 76, 83
2, 632640, Note_on_c, 0, 76, 0
2, 632640, Note_on_c, 0, 88, 0
2, 632640, Note_on_c, 0, 84, 74
2, 632640, Note_on_c, 0, 72, 74
2, 632759, Note_on_c, 0, 72, 0
2, 632759, Note_on_c, 0, 84, 0
2, 632759, Note_on_c, 0, 88, 99
2, 632759, Note_on_c, 0, 76, 101
2, 632880, Note_on_c, 0, 76, 0
2, 632880, Note_on_c, 0, 88, 0
2, 632880, Note_on_c, 0, 81, 71
2, 632880, Note_on_c, 0, 69, 78
2, 632880, Note_on_c, 0, 72, 78
2, 633240, Note_on_c, 0, 72, 0
2, 633240, Note_on_c, 0, 69, 0
2, 633240, Note_on_c, 0, 69, 103
2, 633240, Note_on_c, 0, 72, 103
2, 633240, Note_on_c, 0, 76, 103
2, 633240, Note_on_c, 0, 79, 103
2, 633419, Note_on_c, 0, 79, 0
2, 633419, Note_on_c, 0, 72, 0
2, 633419, Note_on_c, 0, 76, 0
2, 633419, Note_on_c, 0, 69, 0
2, 633600, Note_on_c, 0, 81, 0
2, 633600, Note_on_c, 0, 69, 100
2, 633600, Note_on_c, 0, 72, 100
2, 633600, Note_on_c, 0, 76, 100
2, 633600, Note_on_c, 0, 81, 100
2, 633960, Note_on_c, 0, 81, 0
2, 633960, Note_on_c, 0, 69, 0
2, 633960, Note_on_c, 0, 72, 0
2, 633960, Note_on_c, 0, 76, 0
2, 633960, Note_on_c, 0, 88, 80
2, 633960, Note_on_c, 0, 69, 79
2, 633960, Note_on_c, 0, 76, 79
2, 634080, Note_on_c, 0, 76, 0
2, 634080, Note_on_c, 0, 69, 0
2, 634080, Note_on_c, 0, 88, 0
2, 634080, Note_on_c, 0, 84, 73
2, 634080, Note_on_c, 0, 72, 75
2, 634199, Note_on_c, 0, 72, 0
2, 634199, Note_on_c, 0, 84, 0
2, 634199, Note_on_c, 0, 88, 99
2, 634199, Note_on_c, 0, 76, 95
2, 634320, Note_on_c, 0, 76, 0
2, 634320, Note_on_c, 0, 88, 0
2, 634320, Note_on_c, 0, 81, 69
2, 634320, Note_on_c, 0, 69, 81
2, 634320, Note_on_c, 0, 72, 81
2, 634680, Note_on_c, 0, 72, 0
2, 634680, Note_on_c, 0, 69, 0
2, 634680, Note_on_c, 0, 69, 98
2, 634680, Note_on_c, 0, 72, 98
2, 634680, Note_on_c, 0, 76, 98
2, 634680, Note_on_c, 0, 79, 98
2, 634859, Note_on_c, 0, 79, 0
2, 634859, Note_on_c, 0, 72, 0
2, 634859, Note_on_c, 0, 76, 0
2, 634859, Note_on_c, 0, 69, 0
2, 635040, Note_on_c, 0, 81, 0
2, 635040, Note_on_c, 0, 69, 89
2, 635040, Note_on_c, 0, 72, 89
2, 635040, Note_on_c, 0, 76, 89
2, 635040, Note_on_c, 0, 81, 89
2, 635219, Note_on_c, 0, 81, 0
2, 635219, Note_on_c, 0, 69, 0
2, 635219, Note_on_c, 0, 72, 0
2, 635219, Note_on_c, 0, 76, 0
2, 635400, Note_on_c, 0, 79, 76
2, 635400, Note_on_c, 0, 69, 79
2, 635400, Note_on_c, 0, 72, 79
2, 635400, Note_on_c, 0, 76, 79
2, 635580, Note_on_c, 0, 76, 0
2, 635580, Note_on_c, 0, 72, 0
2, 635580, Note_on_c, 0, 69, 0
2, 635580, Note_on_c, 0, 69, 82
2, 635580, Note_on_c, 0, 72, 82
2, 635580, Note_on_c, 0, 76, 82
2, 635760, Note_on_c, 0, 76, 0
2, 635760, Note_on_c, 0, 79, 0
2, 635760, Note_on_c, 0, 69, 0
2, 635760, Note_on_c, 0, 72, 0
2, 635760, Note_on_c, 0, 81, 89
2, 635760, Note_on_c, 0, 69, 87
2, 635760, Note_on_c, 0, 72, 87
2, 635760, Note_on_c, 0, 76, 87
2, 636120, Note_on_c, 0, 76, 0
2, 636120, Note_on_c, 0, 81, 0
2, 636120, Note_on_c, 0, 69, 0
2, 636120, Note_on_c, 0, 72, 0
2, 636120, Note_on_c, 0, 77, 79
2, 636120, Note_on_c, 0, 69, 93
2, 636120, Note_on_c, 0, 72, 93
2, 636120, Note_on_c, 0, 76, 93
2, 636300, Note_on_c, 0, 76, 0
2, 636300, Note_on_c, 0, 72, 0
2, 636300, Note_on_c, 0, 69, 0
2, 636300, Note_on_c, 0, 69, 89
2, 636300, Note_on_c, 0, 72, 89
2, 636300, Note_on_c, 0, 76, 89
2, 636480, Note_on_c, 0, 76, 0
2, 636480, Note_on_c, 0, 77, 0
2, 636480, Note_on_c, 0, 69, 0
2, 636480, Note_on_c, 0, 72, 0
2, 636480, Note_on_c, 0, 79, 99
2, 636480, Note_on_c, 0, 69, 88
2, 636480, Note_on_c, 0, 72, 88
2, 636480, Note_on_c, 0, 76, 88
2, 636840, Note_on_c, 0, 76, 0
2, 636840, Note_on_c, 0, 79, 0
2, 636840, Note_on_c, 0, 69, 0
2, 636840, Note_on_c, 0, 72, 0
2, 636840, Note_on_c, 0, 76, 87
2, 636840, Note_on_c, 0, 79, 87
2, 636840, Note_on_c, 0, 69, 80
2, 636840, Note_on_c, 0, 72, 80
2, 637020, Note_on_c, 0, 72, 0
2, 637020, Note_on_c, 0, 69, 0
2, 637020, Note_on_c, 0, 69, 86
2, 637020, Note_on_c, 0, 72, 86
2, 637200, Note_on_c, 0, 72, 0
2, 637200, Note_on_c, 0, 76, 0
2, 637200, Note_on_c, 0, 79, 0
2, 637200, Note_on_c, 0, 69, 0
2, 637200, Note_on_c, 0, 77, 93
2, 637200, Note_on_c, 0, 81, 93
2, 637200, Note_on_c, 0, 69, 91
2, 637200, Note_on_c, 0, 72, 91
2, 637560, Note_on_c, 0, 72, 0
2, 637560, Note_on_c, 0, 77, 0
2, 637560, Note_on_c, 0, 81, 0
2, 637560, Note_on_c, 0, 69, 0
2, 637560, Note_on_c, 0, 74, 78
2, 637560, Note_on_c, 0, 77, 78
2, 637560, Note_on_c, 0, 69, 89
2, 637560, Note_on_c, 0, 72, 89
2, 637740, Note_on_c, 0, 72, 0
2, 637740, Note_on_c, 0, 69, 0
2, 637740, Note_on_c, 0, 69, 87
2, 637740, Note_on_c, 0, 72, 87
2, 637920, Note_on_c, 0, 72, 0
2, 637920, Note_on_c, 0, 74, 0
2, 637920, Note_on_c, 0, 77, 0
2, 637920, Note_on_c, 0, 69, 0
2, 637920, Note_on_c, 0, 76, 89
2, 637920, Note_on_c, 0, 79, 89
2, 637920, Note_on_c, 0, 69, 86
2, 637920, Note_on_c, 0, 72, 86
2, 638280, Note_on_c, 0, 72, 0
2, 638280, Note_on_c, 0, 76, 0
2, 638280, Note_on_c, 0, 79, 0
2, 638280, Note_on_c, 0, 69, 0
2, 638280, Note_on_c, 0, 84, 90
2, 638280, Note_on_c, 0, 88, 90
2, 638280, Note_on_c, 0, 69, 97
2, 638280, Note_on_c, 0, 72, 97
2, 638280, Note_on_c, 0, 76, 97
2, 638460, Note_on_c, 0, 88, 0
2, 638460, Note_on_c, 0, 84, 0
2, 638460, Note_on_c, 0, 81, 73
2, 638640, Note_on_c, 0, 81, 0
2, 638640, Note_on_c, 0, 76, 0
2, 638640, Note_on_c, 0, 69, 0
2, 638640, Note_on_c, 0, 72, 0
2, 638640, Note_on_c, 0, 84, 68
2, 638640, Note_on_c, 0, 93, 68
2, 638640, Note_on_c, 0, 69, 95
2, 638640, Note_on_c, 0, 72, 95
2, 638640, Note_on_c, 0, 77, 95
2, 639000, Note_on_c, 0, 77, 0
2, 639000, Note_on_c, 0, 69, 0
2, 639000, Note_on_c, 0, 84, 0
2, 639000, Note_on_c, 0, 93, 0
2, 639000, Note_on_c, 0, 72, 0
2, 639000, Note_on_c, 0, 84, 58
2, 639000, Note_on_c, 0, 91, 58
2, 639000, Note_on_c, 0, 69, 81
2, 639000, Note_on_c, 0, 72, 81
2, 639000, Note_on_c, 0, 75, 81
2, 639180, Note_on_c, 0, 91, 0
2, 639180, Note_on_c, 0, 84, 0
2, 639180, Note_on_c, 0, 81, 53
2, 639360, Note_on_c, 0, 81, 0
2, 639360, Note_on_c, 0, 75, 0
2, 639360, Note_on_c, 0, 69, 0
2, 639360, Note_on_c, 0, 72, 0
2, 639360, Note_on_c, 0, 81, 62
2, 639360, Note_on_c, 0, 84, 62
2, 639360, Note_on_c, 0, 93, 62
2, 639360, Note_on_c, 0, 72, 89
2, 639360, Note_on_c, 0, 76, 89
2, 639720, Note_on_c, 0, 76, 0
2, 639720, Note_on_c, 0, 93, 0
2, 639720, Note_on_c, 0, 81, 0
2, 639720, Note_on_c, 0, 84, 0
2, 639720, Note_on_c, 0, 72, 0
2, 639720, Note_on_c, 0, 76, 54
2, 639720, Note_on_c, 0, 72, 78
2, 639899, Note_on_c, 0, 76, 0
2, 640080, Note_on_c, 0, 72, 0
2, 640080, Note_on_c, 0, 76, 81
2, 640080, Note_on_c, 0, 81, 81
2, 640080, Note_on_c, 0, 72, 83
2, 640259, Note_on_c, 0, 81, 0
2, 640259, Note_on_c, 0, 76, 0
2, 640440, Note_on_c, 0, 72, 0
2, 640440, Note_on_c, 0, 76, 69
2, 640440, Note_on_c, 0, 79, 69
2, 640440, Note_on_c, 0, 72, 85
2, 640619, Note_on_c, 0, 79, 0
2, 640619, Note_on_c, 0, 76, 0
2, 640800, Note_on_c, 0, 72, 0
2, 640800, Note_on_c, 0, 72, 75
2, 640800, Note_on_c, 0, 76, 75
2, 640800, Note_on_c, 0, 81, 75
2, 640800, Note_on_c, 0, 69, 77
2, 640979, Note_on_c, 0, 81, 0
2, 640979, Note_on_c, 0, 72, 0
2, 640979, Note_on_c, 0, 76, 0
2, 641160, Note_on_c, 0, 69, 0
2, 641160, Note_on_c, 0, 67, 81
2, 641520, Note_on_c, 0, 67, 0
2, 641520, Note_on_c, 0, 69, 92
2, 641880, Note_on_c, 0, 69, 0
2, 642600, Note_on_c, 0, 76, 49
2, 642600, Note_on_c, 0, 69, 44
2, 642600, Note_on_c, 0, 72, 44
2, 642779, Note_on_c, 0, 72, 0
2, 642779, Note_on_c, 0, 69, 0
2, 642779, Note_on_c, 0, 76, 0
2, 642960, Note_on_c, 0, 81, 53
2, 642960, Note_on_c, 0, 69, 47
2, 642960, Note_on_c, 0, 72, 47
2, 643139, Note_on_c, 0, 72, 0
2, 643139, Note_on_c, 0, 69, 0
2, 643139, Note_on_c, 0, 81, 0
2, 643320, Note_on_c, 0, 79, 48
2, 643320, Note_on_c, 0, 69, 50
2, 643320, Note_on_c, 0, 72, 50
2, 643499, Note_on_c, 0, 72, 0
2, 643499, Note_on_c, 0, 69, 0
2, 643499, Note_on_c, 0, 79, 0
2, 643680, Note_on_c, 0, 81, 53
2, 643680, Note_on_c, 0, 69, 47
2, 643680, Note_on_c, 0, 72, 47
2, 643859, Note_on_c, 0, 72, 0
2, 643859, Note_on_c, 0, 69, 0
2, 643859, Note_on_c, 0, 81, 0
2, 644040, Note_on_c, 0, 79, 47
2, 644040, Note_on_c, 0, 69, 52
2, 644040, Note_on_c, 0, 72, 52
2, 644129, Note_on_c, 0, 72, 0
2, 644129, Note_on_c, 0, 69, 0
2, 644129, Note_on_c, 0, 79, 0
2, 644220, Note_on_c, 0, 79, 49
2, 644220, Note_on_c, 0, 69, 49
2, 644220, Note_on_c, 0, 72, 49
2, 644309, Note_on_c, 0, 72, 0
2, 644309, Note_on_c, 0, 69, 0
2, 644309, Note_on_c, 0, 79, 0
2, 644400, Note_on_c, 0, 81, 53
2, 644400, Note_on_c, 0, 69, 50
2, 644400, Note_on_c, 0, 72, 50
2, 644579, Note_on_c, 0, 72, 0
2, 644579, Note_on_c, 0, 69, 0
2, 644579, Note_on_c, 0, 81, 0
2, 644760, Note_on_c, 0, 79, 46
2, 644760, Note_on_c, 0, 69, 51
2, 644760, Note_on_c, 0, 72, 51
2, 644849, Note_on_c, 0, 72, 0
2, 644849, Note_on_c, 0, 69, 0
2, 644849, Note_on_c, 0, 79, 0
2, 644940, Note_on_c, 0, 79, 48
2, 644940, Note_on_c, 0, 69, 54
2, 644940, Note_on_c, 0, 72, 54
2, 645029, Note_on_c, 0, 72, 0
2, 645029, Note_on_c, 0, 69, 0
2, 645029, Note_on_c, 0, 79, 0
2, 645120, Note_on_c, 0, 81, 51
2, 645120, Note_on_c, 0, 69, 51
2, 645120, Note_on_c, 0, 72, 51
2, 645299, Note_on_c, 0, 72, 0
2, 645299, Note_on_c, 0, 69, 0
2, 645299, Note_on_c, 0, 81, 0
2, 645480, Note_on_c, 0, 79, 41
2, 645480, Note_on_c, 0, 69, 49
2, 645480, Note_on_c, 0, 72, 49
2, 645569, Note_on_c, 0, 72, 0
2, 645569, Note_on_c, 0, 69, 0
2, 645569, Note_on_c, 0, 79, 0
2, 645660, Note_on_c, 0, 79, 51
2, 645660, Note_on_c, 0, 69, 49
2, 645660, Note_on_c, 0, 72, 49
2, 645749, Note_on_c, 0, 72, 0
2, 645749, Note_on_c, 0, 69, 0
2, 645749, Note_on_c, 0, 79, 0
2, 645840, Note_on_c, 0, 81, 55
2, 645840, Note_on_c, 0, 69, 49
2, 645840, Note_on_c, 0, 72, 49
2, 646019, Note_on_c, 0, 72, 0
2, 646019, Note_on_c, 0, 69, 0
2, 646019, Note_on_c, 0, 81, 0
2, 646200, Note_on_c, 0, 79, 43
2, 646200, Note_on_c, 0, 69, 46
2, 646200, Note_on_c, 0, 72, 46
2, 646289, Note_on_c, 0, 79, 0
2, 646379, Note_on_c, 0, 72, 0
2, 646379, Note_on_c, 0, 69, 0
2, 646380, Note_on_c, 0, 79, 51
2, 646469, Note_on_c, 0, 79, 0
2, 646560, Note_on_c, 0, 81, 51
2, 646560, Note_on_c, 0, 72, 52
2, 646740, Note_on_c, 0, 72, 0
2, 646740, Note_on_c, 0, 69, 48
2, 646920, Note_on_c, 0, 69, 0
2, 646920, Note_on_c, 0, 81, 0
2, 646920, Note_on_c, 0, 100, 60
2, 646920, Note_on_c, 0, 72, 62
2, 646920, Note_on_c, 0, 79, 62
2, 647099, Note_on_c, 0, 100, 0
2, 647100, Note_on_c, 0, 79, 0
2, 647100, Note_on_c, 0, 72, 0
2, 647100, Note_on_c, 0, 69, 42
2, 647280, Note_on_c, 0, 69, 0
2, 647280, Note_on_c, 0, 81, 43
2, 647280, Note_on_c, 0, 72, 63
2, 647280, Note_on_c, 0, 81, 63
2, 647459, Note_on_c, 0, 81, 0
2, 647460, Note_on_c, 0, 81, 0
2, 647460, Note_on_c, 0, 72, 0
2, 647460, Note_on_c, 0, 69, 34
2, 647640, Note_on_c, 0, 69, 0
2, 647640, Note_on_c, 0, 76, 42
2, 647640, Note_on_c, 0, 72, 50
2, 647819, Note_on_c, 0, 76, 0
2, 647820, Note_on_c, 0, 72, 0
2, 647820, Note_on_c, 0, 69, 42
2, 648000, Note_on_c, 0, 69, 0
2, 648000, Note_on_c, 0, 81, 60
2, 648000, Note_on_c, 0, 72, 54
2, 648179, Note_on_c, 0, 81, 0
2, 648180, Note_on_c, 0, 72, 0
2, 648180, Note_on_c, 0, 69, 47
2, 648360, Note_on_c, 0, 69, 0
2, 648360, Note_on_c, 0, 100, 61
2, 648360, Note_on_c, 0, 72, 67
2, 648360, Note_on_c, 0, 79, 67
2, 648539, Note_on_c, 0, 100, 0
2, 648540, Note_on_c, 0, 79, 0
2, 648540, Note_on_c, 0, 72, 0
2, 648540, Note_on_c, 0, 69, 36
2, 648720, Note_on_c, 0, 69, 0
2, 648720, Note_on_c, 0, 81, 41
2, 648720, Note_on_c, 0, 72, 65
2, 648720, Note_on_c, 0, 81, 65
2, 648899, Note_on_c, 0, 81, 0
2, 648900, Note_on_c, 0, 81, 0
2, 648900, Note_on_c, 0, 72, 0
2, 648900, Note_on_c, 0, 69, 34
2, 649080, Note_on_c, 0, 69, 0
2, 649080, Note_on_c, 0, 76, 41
2, 649080, Note_on_c, 0, 72, 54
2, 649259, Note_on_c, 0, 76, 0
2, 649260, Note_on_c, 0, 72, 0
2, 649260, Note_on_c, 0, 69, 49
2, 649440, Note_on_c, 0, 69, 0
2, 649440, Note_on_c, 0, 81, 57
2, 649440, Note_on_c, 0, 72, 56
2, 649619, Note_on_c, 0, 81, 0
2, 649620, Note_on_c, 0, 72, 0
2, 649620, Note_on_c, 0, 69, 50
2, 649800, Note_on_c, 0, 69, 0
2, 649800, Note_on_c, 0, 100, 67
2, 649800, Note_on_c, 0, 72, 62
2, 649800, Note_on_c, 0, 79, 62
2, 649979, Note_on_c, 0, 100, 0
2, 649980, Note_on_c, 0, 79, 0
2, 649980, Note_on_c, 0, 72, 0
2, 649980, Note_on_c, 0, 69, 41
2, 650160, Note_on_c, 0, 69, 0
2, 650160, Note_on_c, 0, 81, 47
2, 650160, Note_on_c, 0, 72, 58
2, 650160, Note_on_c, 0, 81, 58
2, 650339, Note_on_c, 0, 81, 0
2, 650340, Note_on_c, 0, 81, 0
2, 650340, Note_on_c, 0, 72, 0
2, 650340, Note_on_c, 0, 69, 35
2, 650520, Note_on_c, 0, 69, 0
2, 650520, Note_on_c, 0, 76, 40
2, 650520, Note_on_c, 0, 72, 54
2, 650699, Note_on_c, 0, 76, 0
2, 650700, Note_on_c, 0, 72, 0
2, 650700, Note_on_c, 0, 69, 45
2, 650880, Note_on_c, 0, 69, 0
2, 650880, Note_on_c, 0, 81, 56
2, 650880, Note_on_c, 0, 72, 52
2, 651059, Note_on_c, 0, 81, 0
2, 651060, Note_on_c, 0, 72, 0
2, 651060, Note_on_c, 0, 69, 46
2, 651240, Note_on_c, 0, 69, 0
2, 651240, Note_on_c, 0, 100, 63
2, 651240, Note_on_c, 0, 72, 63
2, 651240, Note_on_c, 0, 79, 63
2, 651419, Note_on_c, 0, 100, 0
2, 651420, Note_on_c, 0, 79, 0
2, 651420, Note_on_c, 0, 72, 0
2, 651420, Note_on_c, 0, 69, 33
2, 651600, Note_on_c, 0, 69, 0
2, 651600, Note_on_c, 0, 93, 47
2, 651600, Note_on_c, 0, 72, 63
2, 651600, Note_on_c, 0, 81, 63
2, 651779, Note_on_c, 0, 93, 0
2, 651780, Note_on_c, 0, 81, 0
2, 651780, Note_on_c, 0, 72, 0
2, 651780, Note_on_c, 0, 69, 36
2, 651960, Note_on_c, 0, 69, 0
2, 651960, Note_on_c, 0, 76, 41
2, 651960, Note_on_c, 0, 72, 56
2, 652139, Note_on_c, 0, 76, 0
2, 652140, Note_on_c, 0, 72, 0
2, 652140, Note_on_c, 0, 69, 49
2, 652320, Note_on_c, 0, 69, 0
2, 652320, Note_on_c, 0, 81, 60
2, 652499, Note_on_c, 0, 81, 0
2, 652680, Note_on_c, 0, 81, 51
2, 652680, Note_on_c, 0, 69, 46
2, 652859, Note_on_c, 0, 69, 0
2, 652859, Note_on_c, 0, 81, 0
2, 653040, Note_on_c, 0, 91, 65
2, 653040, Note_on_c, 0, 79, 62
2, 653219, Note_on_c, 0, 79, 0
2, 653219, Note_on_c, 0, 91, 0
2, 653400, Note_on_c, 0, 92, 57
2, 653400, Note_on_c, 0, 80, 53
2, 653579, Note_on_c, 0, 80, 0
2, 653579, Note_on_c, 0, 92, 0
2, 653760, Note_on_c, 0, 93, 59
2, 653760, Note_on_c, 0, 81, 53
2, 653939, Note_on_c, 0, 93, 0
2, 654120, Note_on_c, 0, 81, 0
2, 654120, Note_on_c, 0, 88, 39
2, 654120, Note_on_c, 0, 76, 44
2, 654300, Note_on_c, 0, 76, 0
2, 654300, Note_on_c, 0, 88, 0
2, 654300, Note_on_c, 0, 89, 51
2, 654300, Note_on_c, 0, 77, 50
2, 654480, Note_on_c, 0, 77, 0
2, 654480, Note_on_c, 0, 89, 0
2, 654480, Note_on_c, 0, 91, 56
2, 654480, Note_on_c, 0, 79, 51
2, 654659, Note_on_c, 0, 79, 0
2, 654659, Note_on_c, 0, 91, 0
2, 654840, Note_on_c, 0, 86, 45
2, 654840, Note_on_c, 0, 74, 43
2, 655020, Note_on_c, 0, 74, 0
2, 655020, Note_on_c, 0, 86, 0
2, 655020, Note_on_c, 0, 88, 52
2, 655020, Note_on_c, 0, 76, 51
2, 655200, Note_on_c, 0, 76, 0
2, 655200, Note_on_c, 0, 88, 0
2, 655200, Note_on_c, 0, 89, 53
2, 655200, Note_on_c, 0, 77, 51
2, 655379, Note_on_c, 0, 77, 0
2, 655379, Note_on_c, 0, 89, 0
2, 655560, Note_on_c, 0, 87, 46
2, 655560, Note_on_c, 0, 75, 49
2, 655739, Note_on_c, 0, 75, 0
2, 655739, Note_on_c, 0, 87, 0
2, 655920, Note_on_c, 0, 88, 69
2, 655920, Note_on_c, 0, 76, 69
2, 657000, Note_on_c, 0, 76, 0
2, 657000, Note_on_c, 0, 88, 0
2, 657000, Note_on_c, 0, 93, 89
2, 657000, Note_on_c, 0, 81, 88
2, 657179, Note_on_c, 0, 81, 0
2, 657179, Note_on_c, 0, 93, 0
2, 657360, Note_on_c, 0, 96, 86
2, 657360, Note_on_c, 0, 84, 86
2, 657539, Note_on_c, 0, 84, 0
2, 657539, Note_on_c, 0, 96, 0
2, 657720, Note_on_c, 0, 91, 65
2, 657720, Note_on_c, 0, 79, 66
2, 657900, Note_on_c, 0, 79, 0
2, 657900, Note_on_c, 0, 91, 0
2, 657900, Note_on_c, 0, 93, 77
2, 657900, Note_on_c, 0, 81, 78
2, 658080, Note_on_c, 0, 81, 0
2, 658080, Note_on_c, 0, 93, 0
2, 658080, Note_on_c, 0, 95, 80
2, 658080, Note_on_c, 0, 83, 78
2, 658259, Note_on_c, 0, 83, 0
2, 658259, Note_on_c, 0, 95, 0
2, 658440, Note_on_c, 0, 89, 60
2, 658440, Note_on_c, 0, 77, 66
2, 658619, Note_on_c, 0, 77, 0
2, 658619, Note_on_c, 0, 89, 0
2, 658800, Note_on_c, 0, 93, 85
2, 658800, Note_on_c, 0, 81, 92
2, 659433, Note_on_c, 0, 93, 0
2, 659880, Note_on_c, 0, 81, 0
2, 659880, Note_on_c, 0, 87, 73
2, 659880, Note_on_c, 0, 75, 73
2, 660059, Note_on_c, 0, 75, 0
2, 660059, Note_on_c, 0, 87, 0
2, 660240, Note_on_c, 0, 88, 76
2, 660240, Note_on_c, 0, 76, 76
2, 660873, Note_on_c, 0, 76, 0
2, 660873, Note_on_c, 0, 88, 0
2, 660960, Note_on_c, 0, 91, 80
2, 660960, Note_on_c, 0, 79, 80
2, 661139, Note_on_c, 0, 79, 0
2, 661320, Note_on_c, 0, 91, 0
2, 661320, Note_on_c, 0, 93, 83
2, 661320, Note_on_c, 0, 81, 83
2, 661953, Note_on_c, 0, 81, 0
2, 661953, Note_on_c, 0, 93, 0
2, 662040, Note_on_c, 0, 89, 87
2, 662040, Note_on_c, 0, 77, 87
2, 662040, Note_on_c, 0, 80, 87
2, 662219, Note_on_c, 0, 89, 0
2, 662220, Note_on_c, 0, 80, 0
2, 662220, Note_on_c, 0, 77, 0
2, 662220, Note_on_c, 0, 81, 88
2, 662400, Note_on_c, 0, 81, 0
2, 662400, Note_on_c, 0, 91, 89
2, 662400, Note_on_c, 0, 82, 89
2, 662579, Note_on_c, 0, 91, 0
2, 662580, Note_on_c, 0, 82, 0
2, 662580, Note_on_c, 0, 82, 91
2, 662760, Note_on_c, 0, 82, 0
2, 662760, Note_on_c, 0, 88, 92
2, 662760, Note_on_c, 0, 81, 92
2, 662939, Note_on_c, 0, 88, 0
2, 662940, Note_on_c, 0, 81, 0
2, 662940, Note_on_c, 0, 82, 93
2, 663120, Note_on_c, 0, 82, 0
2, 663120, Note_on_c, 0, 89, 94
2, 663120, Note_on_c, 0, 83, 94
2, 663299, Note_on_c, 0, 89, 0
2, 663300, Note_on_c, 0, 83, 0
2, 663300, Note_on_c, 0, 83, 95
2, 663480, Note_on_c, 0, 83, 0
2, 663480, Note_on_c, 0, 87, 96
2, 663480, Note_on_c, 0, 81, 96
2, 663659, Note_on_c, 0, 87, 0
2, 663660, Note_on_c, 0, 81, 0
2, 663660, Note_on_c, 0, 83, 98
2, 663840, Note_on_c, 0, 83, 0
2, 663840, Note_on_c, 0, 88, 104
2, 663840, Note_on_c, 0, 81, 103
2, 663840, Note_on_c, 0, 84, 103
2, 664019, Note_on_c, 0, 88, 0
2, 664200, Note_on_c, 0, 84, 0
2, 664200, Note_on_c, 0, 81, 0
2, 664200, Note_on_c, 0, 83, 105
2, 664200, Note_on_c, 0, 88, 105
2, 664200, Note_on_c, 0, 71, 82
2, 664200, Note_on_c, 0, 76, 82
2, 664379, Note_on_c, 0, 76, 0
2, 664379, Note_on_c, 0, 83, 0
2, 664379, Note_on_c, 0, 88, 0
2, 664379, Note_on_c, 0, 71, 0
2, 664560, Note_on_c, 0, 88, 116
2, 664560, Note_on_c, 0, 93, 116
2, 664560, Note_on_c, 0, 76, 116
2, 664560, Note_on_c, 0, 81, 116
2, 664739, Note_on_c, 0, 81, 0
2, 664739, Note_on_c, 0, 88, 0
2, 664739, Note_on_c, 0, 93, 0
2, 664739, Note_on_c, 0, 76, 0
2, 664920, Note_on_c, 0, 86, 102
2, 664920, Note_on_c, 0, 88, 102
2, 664920, Note_on_c, 0, 91, 102
2, 664920, Note_on_c, 0, 74, 98
2, 664920, Note_on_c, 0, 76, 98
2, 664920, Note_on_c, 0, 79, 98
2, 665099, Note_on_c, 0, 79, 0
2, 665099, Note_on_c, 0, 88, 0
2, 665099, Note_on_c, 0, 91, 0
2, 665099, Note_on_c, 0, 86, 0
2, 665099, Note_on_c, 0, 76, 0
2, 665099, Note_on_c, 0, 74, 0
2, 665280, Note_on_c, 0, 84, 109
2, 665280, Note_on_c, 0, 88, 109
2, 665280, Note_on_c, 0, 93, 109
2, 665280, Note_on_c, 0, 72, 115
2, 665280, Note_on_c, 0, 76, 115
2, 665280, Note_on_c, 0, 81, 115
2, 665459, Note_on_c, 0, 81, 0
2, 665459, Note_on_c, 0, 88, 0
2, 665459, Note_on_c, 0, 93, 0
2, 665459, Note_on_c, 0, 84, 0
2, 665459, Note_on_c, 0, 76, 0
2, 665459, Note_on_c, 0, 72, 0
2, 665640, Note_on_c, 0, 84, 86
2, 665640, Note_on_c, 0, 88, 86
2, 665640, Note_on_c, 0, 72, 85
2, 665640, Note_on_c, 0, 76, 85
2, 665820, Note_on_c, 0, 76, 0
2, 665820, Note_on_c, 0, 84, 0
2, 665820, Note_on_c, 0, 88, 0
2, 665820, Note_on_c, 0, 72, 0
2, 665820, Note_on_c, 0, 89, 105
2, 665820, Note_on_c, 0, 77, 99
2, 666000, Note_on_c, 0, 77, 0
2, 666000, Note_on_c, 0, 89, 0
2, 666000, Note_on_c, 0, 79, 112
2, 666000, Note_on_c, 0, 86, 112
2, 666000, Note_on_c, 0, 91, 112
2, 666000, Note_on_c, 0, 71, 93
2, 666000, Note_on_c, 0, 74, 93
2, 666179, Note_on_c, 0, 74, 0
2, 666179, Note_on_c, 0, 91, 0
2, 666179, Note_on_c, 0, 79, 0
2, 666179, Note_on_c, 0, 86, 0
2, 666179, Note_on_c, 0, 71, 0
2, 666360, Note_on_c, 0, 82, 92
2, 666360, Note_on_c, 0, 86, 92
2, 666360, Note_on_c, 0, 70, 102
2, 666360, Note_on_c, 0, 74, 102
2, 666540, Note_on_c, 0, 74, 0
2, 666540, Note_on_c, 0, 82, 0
2, 666540, Note_on_c, 0, 86, 0
2, 666540, Note_on_c, 0, 70, 0
2, 666540, Note_on_c, 0, 88, 111
2, 666540, Note_on_c, 0, 76, 107
2, 666720, Note_on_c, 0, 76, 0
2, 666720, Note_on_c, 0, 88, 0
2, 666720, Note_on_c, 0, 77, 104
2, 666720, Note_on_c, 0, 84, 104
2, 666720, Note_on_c, 0, 89, 104
2, 666720, Note_on_c, 0, 69, 95
2, 666720, Note_on_c, 0, 72, 95
2, 666899, Note_on_c, 0, 72, 0
2, 666899, Note_on_c, 0, 89, 0
2, 666899, Note_on_c, 0, 77, 0
2, 666899, Note_on_c, 0, 84, 0
2, 666899, Note_on_c, 0, 69, 0
2, 667080, Note_on_c, 0, 87, 93
2, 667080, Note_on_c, 0, 80, 79
2, 667080, Note_on_c, 0, 84, 79
2, 667080, Note_on_c, 0, 75, 111
2, 667080, Note_on_c, 0, 68, 99
2, 667080, Note_on_c, 0, 72, 99
2, 667440, Note_on_c, 0, 75, 0
2, 667440, Note_on_c, 0, 87, 0
2, 667440, Note_on_c, 0, 88, 109
2, 667440, Note_on_c, 0, 76, 106
2, 667620, Note_on_c, 0, 76, 0
2, 667620, Note_on_c, 0, 88, 0
2, 667620, Note_on_c, 0, 87, 98
2, 667620, Note_on_c, 0, 75, 98
2, 667713, Note_on_c, 0, 84, 0
2, 667713, Note_on_c, 0, 68, 0
2, 667713, Note_on_c, 0, 80, 0
2, 667713, Note_on_c, 0, 72, 0
2, 667800, Note_on_c, 0, 75, 0
2, 667800, Note_on_c, 0, 87, 0
2, 667800, Note_on_c, 0, 80, 117
2, 667800, Note_on_c, 0, 84, 117
2, 667800, Note_on_c, 0, 88, 117
2, 667800, Note_on_c, 0, 68, 117
2, 667800, Note_on_c, 0, 72, 117
2, 667800, Note_on_c, 0, 76, 117
2, 668069, Note_on_c, 0, 72, 0
2, 668069, Note_on_c, 0, 68, 0
2, 668069, Note_on_c, 0, 84, 0
2, 668069, Note_on_c, 0, 80, 0
2, 668160, Note_on_c, 0, 79, 98
2, 668160, Note_on_c, 0, 83, 98
2, 668160, Note_on_c, 0, 67, 105
2, 668160, Note_on_c, 0, 71, 105
2, 668520, Note_on_c, 0, 71, 0
2, 668520, Note_on_c, 0, 76, 0
2, 668520, Note_on_c, 0, 79, 0
2, 668520, Note_on_c, 0, 88, 0
2, 668520, Note_on_c, 0, 67, 0
2, 668520, Note_on_c, 0, 83, 0
2, 668520, Note_on_c, 0, 85, 92
2, 668520, Note_on_c, 0, 78, 49
2, 668520, Note_on_c, 0, 82, 49
2, 668520, Note_on_c, 0, 73, 97
2, 668520, Note_on_c, 0, 66, 77
2, 668520, Note_on_c, 0, 70, 77
2, 668880, Note_on_c, 0, 73, 0
2, 668880, Note_on_c, 0, 85, 0
2, 668880, Note_on_c, 0, 86, 107
2, 668880, Note_on_c, 0, 74, 105
2, 669060, Note_on_c, 0, 74, 0
2, 669060, Note_on_c, 0, 86, 0
2, 669060, Note_on_c, 0, 85, 100
2, 669060, Note_on_c, 0, 73, 98
2, 669240, Note_on_c, 0, 73, 0
2, 669240, Note_on_c, 0, 70, 0
2, 669240, Note_on_c, 0, 66, 0
2, 669240, Note_on_c, 0, 78, 0
2, 669240, Note_on_c, 0, 85, 0
2, 669240, Note_on_c, 0, 82, 0
2, 669240, Note_on_c, 0, 77, 117
2, 669240, Note_on_c, 0, 82, 117
2, 669240, Note_on_c, 0, 86, 117
2, 669240, Note_on_c, 0, 65, 117
2, 669240, Note_on_c, 0, 70, 117
2, 669240, Note_on_c, 0, 74, 117
2, 669557, Note_on_c, 0, 74, 0
2, 669557, Note_on_c, 0, 82, 0
2, 669557, Note_on_c, 0, 77, 0
2, 669557, Note_on_c, 0, 70, 0
2, 669600, Note_on_c, 0, 77, 105
2, 669600, Note_on_c, 0, 81, 105
2, 669600, Note_on_c, 0, 69, 97
2, 669600, Note_on_c, 0, 74, 97
2, 669960, Note_on_c, 0, 74, 0
2, 669960, Note_on_c, 0, 65, 0
2, 669960, Note_on_c, 0, 77, 0
2, 669960, Note_on_c, 0, 86, 0
2, 669960, Note_on_c, 0, 69, 0
2, 669960, Note_on_c, 0, 81, 0
2, 669960, Note_on_c, 0, 80, 89
2, 669960, Note_on_c, 0, 82, 89
2, 669960, Note_on_c, 0, 76, 43
2, 669960, Note_on_c, 0, 68, 89
2, 669960, Note_on_c, 0, 70, 89
2, 669960, Note_on_c, 0, 64, 60
2, 670140, Note_on_c, 0, 70, 0
2, 670140, Note_on_c, 0, 68, 0
2, 670140, Note_on_c, 0, 82, 0
2, 670140, Note_on_c, 0, 80, 0
2, 670140, Note_on_c, 0, 83, 104
2, 670140, Note_on_c, 0, 71, 103
2, 670320, Note_on_c, 0, 71, 0
2, 670320, Note_on_c, 0, 76, 0
2, 670320, Note_on_c, 0, 64, 0
2, 670320, Note_on_c, 0, 83, 0
2, 670320, Note_on_c, 0, 84, 108
2, 670320, Note_on_c, 0, 72, 109
2, 670499, Note_on_c, 0, 72, 0
2, 670499, Note_on_c, 0, 84, 0
2, 670680, Note_on_c, 0, 75, 96
2, 670680, Note_on_c, 0, 79, 96
2, 670680, Note_on_c, 0, 83, 96
2, 670680, Note_on_c, 0, 63, 95
2, 670680, Note_on_c, 0, 67, 95
2, 670680, Note_on_c, 0, 71, 95
2, 670859, Note_on_c, 0, 71, 0
2, 670859, Note_on_c, 0, 79, 0
2, 670859, Note_on_c, 0, 83, 0
2, 670859, Note_on_c, 0, 75, 0
2, 670859, Note_on_c, 0, 67, 0
2, 670859, Note_on_c, 0, 63, 0
2, 671040, Note_on_c, 0, 84, 106
2, 671040, Note_on_c, 0, 72, 112
2, 671219, Note_on_c, 0, 84, 0
2, 671400, Note_on_c, 0, 72, 0
2, 671400, Note_on_c, 0, 78, 95
2, 671400, Note_on_c, 0, 81, 95
2, 671400, Note_on_c, 0, 74, 44
2, 671400, Note_on_c, 0, 66, 96
2, 671400, Note_on_c, 0, 69, 96
2, 671400, Note_on_c, 0, 62, 67
2, 671580, Note_on_c, 0, 69, 0
2, 671580, Note_on_c, 0, 66, 0
2, 671580, Note_on_c, 0, 81, 0
2, 671580, Note_on_c, 0, 78, 0
2, 671580, Note_on_c, 0, 82, 108
2, 671580, Note_on_c, 0, 70, 106
2, 671760, Note_on_c, 0, 70, 0
2, 671760, Note_on_c, 0, 74, 0
2, 671760, Note_on_c, 0, 62, 0
2, 671760, Note_on_c, 0, 82, 0
2, 671760, Note_on_c, 0, 83, 109
2, 671760, Note_on_c, 0, 71, 108
2, 671939, Note_on_c, 0, 83, 0
2, 672120, Note_on_c, 0, 71, 0
2, 672120, Note_on_c, 0, 80, 98
2, 672120, Note_on_c, 0, 74, 53
2, 672120, Note_on_c, 0, 77, 53
2, 672120, Note_on_c, 0, 68, 95
2, 672120, Note_on_c, 0, 62, 83
2, 672120, Note_on_c, 0, 65, 83
2, 672300, Note_on_c, 0, 68, 0
2, 672300, Note_on_c, 0, 80, 0
2, 672300, Note_on_c, 0, 81, 110
2, 672300, Note_on_c, 0, 69, 105
2, 672480, Note_on_c, 0, 69, 0
2, 672480, Note_on_c, 0, 65, 0
2, 672480, Note_on_c, 0, 77, 0
2, 672480, Note_on_c, 0, 74, 0
2, 672480, Note_on_c, 0, 81, 0
2, 672480, Note_on_c, 0, 62, 0
2, 672480, Note_on_c, 0, 82, 105
2, 672480, Note_on_c, 0, 70, 111
2, 672659, Note_on_c, 0, 70, 0
2, 672659, Note_on_c, 0, 82, 0
2, 672840, Note_on_c, 0, 70, 96
2, 672840, Note_on_c, 0, 80, 96
2, 672840, Note_on_c, 0, 63, 92
2, 672840, Note_on_c, 0, 68, 92
2, 672929, Note_on_c, 0, 80, 0
2, 672929, Note_on_c, 0, 70, 0
2, 673020, Note_on_c, 0, 63, 0
2, 673020, Note_on_c, 0, 68, 0
2, 673020, Note_on_c, 0, 81, 109
2, 673020, Note_on_c, 0, 69, 107
2, 673200, Note_on_c, 0, 69, 0
2, 673200, Note_on_c, 0, 81, 0
2, 673200, Note_on_c, 0, 70, 105
2, 673200, Note_on_c, 0, 82, 105
2, 673200, Note_on_c, 0, 64, 94
2, 673200, Note_on_c, 0, 68, 94
2, 673289, Note_on_c, 0, 82, 0
2, 673289, Note_on_c, 0, 70, 0
2, 673380, Note_on_c, 0, 64, 0
2, 673380, Note_on_c, 0, 68, 0
2, 673380, Note_on_c, 0, 81, 99
2, 673380, Note_on_c, 0, 69, 104
2, 673560, Note_on_c, 0, 69, 0
2, 673560, Note_on_c, 0, 81, 0
2, 673560, Note_on_c, 0, 70, 115
2, 673560, Note_on_c, 0, 82, 115
2, 673560, Note_on_c, 0, 65, 93
2, 673560, Note_on_c, 0, 68, 93
2, 673920, Note_on_c, 0, 68, 0
2, 673920, Note_on_c, 0, 65, 0
2, 673920, Note_on_c, 0, 66, 92
2, 674280, Note_on_c, 0, 66, 0
2, 674280, Note_on_c, 0, 82, 0
2, 674280, Note_on_c, 0, 70, 0
2, 674280, Note_on_c, 0, 69, 115
2, 674280, Note_on_c, 0, 73, 115
2, 674280, Note_on_c, 0, 79, 115
2, 674280, Note_on_c, 0, 61, 109
2, 674280, Note_on_c, 0, 67, 109
2, 674460, Note_on_c, 0, 67, 0
2, 674460, Note_on_c, 0, 79, 0
2, 674460, Note_on_c, 0, 69, 0
2, 674460, Note_on_c, 0, 73, 0
2, 674460, Note_on_c, 0, 61, 0
2, 674460, Note_on_c, 0, 80, 102
2, 674460, Note_on_c, 0, 68, 110
2, 674640, Note_on_c, 0, 68, 0
2, 674640, Note_on_c, 0, 80, 0
2, 674640, Note_on_c, 0, 81, 111
2, 674640, Note_on_c, 0, 69, 103
2, 675000, Note_on_c, 0, 69, 0
2, 675000, Note_on_c, 0, 81, 0
2, 675000, Note_on_c, 0, 71, 117
2, 675000, Note_on_c, 0, 74, 117
2, 675000, Note_on_c, 0, 80, 117
2, 675000, Note_on_c, 0, 62, 100
2, 675000, Note_on_c, 0, 68, 100
2, 675180, Note_on_c, 0, 68, 0
2, 675180, Note_on_c, 0, 80, 0
2, 675180, Note_on_c, 0, 71, 0
2, 675180, Note_on_c, 0, 74, 0
2, 675180, Note_on_c, 0, 62, 0
2, 675180, Note_on_c, 0, 81, 106
2, 675180, Note_on_c, 0, 69, 108
2, 675360, Note_on_c, 0, 69, 0
2, 675360, Note_on_c, 0, 81, 0
2, 675360, Note_on_c, 0, 81, 103
2, 675360, Note_on_c, 0, 69, 98
2, 675720, Note_on_c, 0, 69, 0
2, 675720, Note_on_c, 0, 81, 0
2, 675720, Note_on_c, 0, 81, 103
2, 675720, Note_on_c, 0, 61, 103
2, 675720, Note_on_c, 0, 69, 103
2, 675900, Note_on_c, 0, 69, 0
2, 675900, Note_on_c, 0, 61, 0
2, 675900, Note_on_c, 0, 81, 0
2, 675900, Note_on_c, 0, 80, 102
2, 675900, Note_on_c, 0, 68, 102
2, 676080, Note_on_c, 0, 68, 0
2, 676080, Note_on_c, 0, 80, 0
2, 676080, Note_on_c, 0, 81, 102
2, 676080, Note_on_c, 0, 69, 102
2, 676080, Note_on_c, 0, 62, 75
2, 676440, Note_on_c, 0, 62, 0
2, 676440, Note_on_c, 0, 64, 75
2, 676800, Note_on_c, 0, 64, 0
2, 676800, Note_on_c, 0, 65, 101
2, 677160, Note_on_c, 0, 65, 0
2, 677160, Note_on_c, 0, 69, 0
2, 677160, Note_on_c, 0, 81, 0
2, 677160, Note_on_c, 0, 79, 100
2, 677160, Note_on_c, 0, 71, 48
2, 677160, Note_on_c, 0, 59, 100
2, 677160, Note_on_c, 0, 65, 100
2, 677160, Note_on_c, 0, 67, 100
2, 677339, Note_on_c, 0, 67, 0
2, 677339, Note_on_c, 0, 59, 0
2, 677339, Note_on_c, 0, 65, 0
2, 677339, Note_on_c, 0, 71, 0
2, 677340, Note_on_c, 0, 79, 0
2, 677340, Note_on_c, 0, 78, 100
2, 677520, Note_on_c, 0, 78, 0
2, 677520, Note_on_c, 0, 79, 100
2, 677520, Note_on_c, 0, 72, 48
2, 677520, Note_on_c, 0, 60, 100
2, 677520, Note_on_c, 0, 63, 100
2, 677520, Note_on_c, 0, 67, 100
2, 677699, Note_on_c, 0, 67, 0
2, 677699, Note_on_c, 0, 60, 0
2, 677699, Note_on_c, 0, 63, 0
2, 677699, Note_on_c, 0, 72, 0
2, 677880, Note_on_c, 0, 71, 47
2, 677880, Note_on_c, 0, 74, 47
2, 677880, Note_on_c, 0, 62, 99
2, 677880, Note_on_c, 0, 67, 99
2, 678059, Note_on_c, 0, 67, 0
2, 678059, Note_on_c, 0, 74, 0
2, 678059, Note_on_c, 0, 62, 0
2, 678059, Note_on_c, 0, 71, 0
2, 678240, Note_on_c, 0, 72, 47
2, 678240, Note_on_c, 0, 75, 47
2, 678240, Note_on_c, 0, 63, 99
2, 678240, Note_on_c, 0, 67, 99
2, 678419, Note_on_c, 0, 67, 0
2, 678419, Note_on_c, 0, 75, 0
2, 678419, Note_on_c, 0, 79, 0
2, 678419, Note_on_c, 0, 72, 0
2, 678419, Note_on_c, 0, 63, 0
2, 678600, Note_on_c, 0, 77, 98
2, 678600, Note_on_c, 0, 59, 98
2, 678600, Note_on_c, 0, 65, 98
2, 678689, Note_on_c, 0, 65, 0
2, 678689, Note_on_c, 0, 59, 0
2, 678780, Note_on_c, 0, 77, 0
2, 678780, Note_on_c, 0, 78, 98
2, 678780, Note_on_c, 0, 66, 98
2, 678960, Note_on_c, 0, 66, 0
2, 678960, Note_on_c, 0, 78, 0
2, 678960, Note_on_c, 0, 79, 98
2, 678960, Note_on_c, 0, 60, 97
2, 678960, Note_on_c, 0, 67, 97
2, 679049, Note_on_c, 0, 67, 0
2, 679049, Note_on_c, 0, 60, 0
2, 679140, Note_on_c, 0, 79, 0
2, 679140, Note_on_c, 0, 78, 97
2, 679140, Note_on_c, 0, 66, 97
2, 679320, Note_on_c, 0, 66, 0
2, 679320, Note_on_c, 0, 78, 0
2, 679320, Note_on_c, 0, 79, 97
2, 679320, Note_on_c, 0, 62, 97
2, 679320, Note_on_c, 0, 67, 97
2, 679499, Note_on_c, 0, 67, 0
2, 679499, Note_on_c, 0, 62, 0
2, 679680, Note_on_c, 0, 63, 96
2, 679680, Note_on_c, 0, 67, 96
2, 679859, Note_on_c, 0, 67, 0
2, 679859, Note_on_c, 0, 63, 0
2, 680040, Note_on_c, 0, 79, 0
2, 680040, Note_on_c, 0, 77, 96
2, 680040, Note_on_c, 0, 69, 44
2, 680040, Note_on_c, 0, 57, 96
2, 680040, Note_on_c, 0, 63, 96
2, 680040, Note_on_c, 0, 65, 96
2, 680219, Note_on_c, 0, 65, 0
2, 680219, Note_on_c, 0, 57, 0
2, 680219, Note_on_c, 0, 63, 0
2, 680219, Note_on_c, 0, 69, 0
2, 680220, Note_on_c, 0, 77, 0
2, 680220, Note_on_c, 0, 76, 96
2, 680400, Note_on_c, 0, 76, 0
2, 680400, Note_on_c, 0, 77, 95
2, 680400, Note_on_c, 0, 70, 43
2, 680400, Note_on_c, 0, 59, 95
2, 680400, Note_on_c, 0, 61, 95
2, 680400, Note_on_c, 0, 65, 95
2, 680579, Note_on_c, 0, 65, 0
2, 680579, Note_on_c, 0, 59, 0
2, 680579, Note_on_c, 0, 61, 0
2, 680579, Note_on_c, 0, 70, 0
2, 680760, Note_on_c, 0, 69, 43
2, 680760, Note_on_c, 0, 72, 43
2, 680760, Note_on_c, 0, 60, 95
2, 680760, Note_on_c, 0, 65, 95
2, 680939, Note_on_c, 0, 65, 0
2, 680939, Note_on_c, 0, 72, 0
2, 680939, Note_on_c, 0, 60, 0
2, 680939, Note_on_c, 0, 69, 0
2, 681120, Note_on_c, 0, 70, 42
2, 681120, Note_on_c, 0, 74, 42
2, 681120, Note_on_c, 0, 62, 94
2, 681120, Note_on_c, 0, 65, 94
2, 681299, Note_on_c, 0, 65, 0
2, 681299, Note_on_c, 0, 74, 0
2, 681299, Note_on_c, 0, 62, 0
2, 681299, Note_on_c, 0, 70, 0
2, 681480, Note_on_c, 0, 77, 0
2, 681480, Note_on_c, 0, 77, 94
2, 681480, Note_on_c, 0, 72, 42
2, 681480, Note_on_c, 0, 65, 93
2, 681480, Note_on_c, 0, 60, 67
2, 681840, Note_on_c, 0, 60, 0
2, 681840, Note_on_c, 0, 72, 0
2, 681840, Note_on_c, 0, 70, 41
2, 681840, Note_on_c, 0, 74, 41
2, 681840, Note_on_c, 0, 62, 66
2, 682113, Note_on_c, 0, 65, 0
2, 682113, Note_on_c, 0, 77, 0
2, 682200, Note_on_c, 0, 74, 0
2, 682200, Note_on_c, 0, 70, 0
2, 682200, Note_on_c, 0, 62, 0
2, 682200, Note_on_c, 0, 76, 93
2, 682200, Note_on_c, 0, 71, 41
2, 682200, Note_on_c, 0, 59, 92
2, 682200, Note_on_c, 0, 64, 92
2, 682517, Note_on_c, 0, 59, 0
2, 682560, Note_on_c, 0, 71, 0
2, 682560, Note_on_c, 0, 69, 40
2, 682560, Note_on_c, 0, 72, 40
2, 682560, Note_on_c, 0, 60, 92
2, 682739, Note_on_c, 0, 60, 0
2, 682739, Note_on_c, 0, 64, 0
2, 682920, Note_on_c, 0, 76, 0
2, 682920, Note_on_c, 0, 69, 0
2, 682920, Note_on_c, 0, 72, 0
2, 682920, Note_on_c, 0, 75, 91
2, 682920, Note_on_c, 0, 70, 39
2, 682920, Note_on_c, 0, 63, 91
2, 682920, Note_on_c, 0, 58, 65
2, 683280, Note_on_c, 0, 58, 0
2, 683280, Note_on_c, 0, 70, 0
2, 683280, Note_on_c, 0, 68, 39
2, 683280, Note_on_c, 0, 71, 39
2, 683280, Note_on_c, 0, 59, 64
2, 683553, Note_on_c, 0, 63, 0
2, 683553, Note_on_c, 0, 75, 0
2, 683640, Note_on_c, 0, 71, 0
2, 683640, Note_on_c, 0, 68, 0
2, 683640, Note_on_c, 0, 59, 0
2, 683640, Note_on_c, 0, 69, 90
2, 683640, Note_on_c, 0, 74, 90
2, 683640, Note_on_c, 0, 57, 90
2, 683640, Note_on_c, 0, 62, 90
2, 683798, Note_on_c, 0, 74, 0
2, 683798, Note_on_c, 0, 69, 0
2, 683820, Note_on_c, 0, 73, 90
2, 683957, Note_on_c, 0, 57, 0
2, 684000, Note_on_c, 0, 73, 0
2, 684000, Note_on_c, 0, 70, 90
2, 684000, Note_on_c, 0, 74, 90
2, 684000, Note_on_c, 0, 58, 90
2, 684000, Note_on_c, 0, 67, 90
2, 684179, Note_on_c, 0, 67, 0
2, 684179, Note_on_c, 0, 74, 0
2, 684179, Note_on_c, 0, 62, 0
2, 684179, Note_on_c, 0, 70, 0
2, 684179, Note_on_c, 0, 58, 0
2, 684360, Note_on_c, 0, 74, 89
2, 684360, Note_on_c, 0, 70, 37
2, 684360, Note_on_c, 0, 67, 89
2, 684360, Note_on_c, 0, 62, 62
2, 684540, Note_on_c, 0, 70, 0
2, 684540, Note_on_c, 0, 68, 37
2, 684720, Note_on_c, 0, 68, 0
2, 684720, Note_on_c, 0, 67, 0
2, 684720, Note_on_c, 0, 69, 37
2, 684720, Note_on_c, 0, 66, 88
2, 684993, Note_on_c, 0, 74, 0
2, 684993, Note_on_c, 0, 62, 0
2, 685080, Note_on_c, 0, 69, 0
2, 685080, Note_on_c, 0, 66, 0
2, 685080, Note_on_c, 0, 73, 88
2, 685080, Note_on_c, 0, 69, 36
2, 685080, Note_on_c, 0, 61, 88
2, 685080, Note_on_c, 0, 66, 88
2, 685260, Note_on_c, 0, 69, 0
2, 685260, Note_on_c, 0, 67, 36
2, 685397, Note_on_c, 0, 66, 0
2, 685440, Note_on_c, 0, 67, 0
2, 685440, Note_on_c, 0, 68, 36
2, 685440, Note_on_c, 0, 65, 87
2, 685619, Note_on_c, 0, 65, 0
2, 685619, Note_on_c, 0, 61, 0
2, 685800, Note_on_c, 0, 68, 0
2, 685800, Note_on_c, 0, 73, 0
2, 685800, Note_on_c, 0, 72, 87
2, 685800, Note_on_c, 0, 68, 35
2, 685800, Note_on_c, 0, 65, 87
2, 685800, Note_on_c, 0, 60, 60
2, 685980, Note_on_c, 0, 68, 0
2, 685980, Note_on_c, 0, 66, 35
2, 686160, Note_on_c, 0, 66, 0
2, 686160, Note_on_c, 0, 65, 0
2, 686160, Note_on_c, 0, 67, 34
2, 686160, Note_on_c, 0, 64, 86
2, 686433, Note_on_c, 0, 60, 0
2, 686520, Note_on_c, 0, 72, 0
2, 686520, Note_on_c, 0, 67, 0
2, 686520, Note_on_c, 0, 64, 0
2, 686520, Note_on_c, 0, 71, 86
2, 686520, Note_on_c, 0, 67, 34
2, 686520, Note_on_c, 0, 59, 86
2, 686520, Note_on_c, 0, 64, 86
2, 686700, Note_on_c, 0, 64, 0
2, 686700, Note_on_c, 0, 59, 0
2, 686700, Note_on_c, 0, 67, 0
2, 686700, Note_on_c, 0, 70, 34
2, 686700, Note_on_c, 0, 58, 85
2, 686837, Note_on_c, 0, 71, 0
2, 686880, Note_on_c, 0, 58, 0
2, 686880, Note_on_c, 0, 70, 0
2, 686880, Note_on_c, 0, 71, 85
2, 686880, Note_on_c, 0, 66, 33
2, 686880, Note_on_c, 0, 59, 85
2, 686880, Note_on_c, 0, 63, 85
2, 687059, Note_on_c, 0, 71, 0
2, 687240, Note_on_c, 0, 66, 0
2, 687240, Note_on_c, 0, 59, 0
2, 687240, Note_on_c, 0, 63, 0
2, 687240, Note_on_c, 0, 71, 85
2, 687240, Note_on_c, 0, 63, 84
2, 687419, Note_on_c, 0, 63, 0
2, 687600, Note_on_c, 0, 64, 84
2, 687779, Note_on_c, 0, 64, 0
2, 687960, Note_on_c, 0, 66, 83
2, 688139, Note_on_c, 0, 66, 0
2, 688320, Note_on_c, 0, 67, 83
2, 688499, Note_on_c, 0, 67, 0
2, 688680, Note_on_c, 0, 71, 0
2, 688680, Note_on_c, 0, 70, 83
2, 688680, Note_on_c, 0, 61, 82
2, 688859, Note_on_c, 0, 61, 0
2, 688997, Note_on_c, 0, 70, 0
2, 689040, Note_on_c, 0, 69, 82
2, 689040, Note_on_c, 0, 62, 82
2, 689219, Note_on_c, 0, 62, 0
2, 689400, Note_on_c, 0, 64, 81
2, 689579, Note_on_c, 0, 64, 0
2, 689760, Note_on_c, 0, 65, 81
2, 689939, Note_on_c, 0, 65, 0
2, 690120, Note_on_c, 0, 69, 0
2, 690120, Note_on_c, 0, 68, 80
2, 690120, Note_on_c, 0, 59, 80
2, 690299, Note_on_c, 0, 59, 0
2, 690437, Note_on_c, 0, 68, 0
2, 690480, Note_on_c, 0, 67, 80
2, 690480, Note_on_c, 0, 60, 79
2, 690659, Note_on_c, 0, 60, 0
2, 690840, Note_on_c, 0, 62, 79
2, 691019, Note_on_c, 0, 62, 0
2, 691200, Note_on_c, 0, 64, 78
2, 691379, Note_on_c, 0, 64, 0
2, 691560, Note_on_c, 0, 67, 0
2, 691560, Note_on_c, 0, 66, 78
2, 691560, Note_on_c, 0, 57, 78
2, 691739, Note_on_c, 0, 57, 0
2, 691920, Note_on_c, 0, 59, 77
2, 692099, Note_on_c, 0, 59, 0
2, 692193, Note_on_c, 0, 66, 0
2, 692280, Note_on_c, 0, 65, 61
2, 692280, Note_on_c, 0, 61, 55
2, 692459, Note_on_c, 0, 61, 0
2, 692640, Note_on_c, 0, 62, 55
2, 692819, Note_on_c, 0, 62, 0
2, 693000, Note_on_c, 0, 65, 0
2, 693000, Note_on_c, 0, 64, 44
2, 693000, Note_on_c, 0, 56, 44
2, 693179, Note_on_c, 0, 56, 0
2, 693180, Note_on_c, 0, 64, 0
2, 693180, Note_on_c, 0, 62, 50
2, 693360, Note_on_c, 0, 62, 0
2, 693360, Note_on_c, 0, 64, 67
2, 693360, Note_on_c, 0, 57, 56
2, 693539, Note_on_c, 0, 57, 0
2, 693720, Note_on_c, 0, 56, 56
2, 693720, Note_on_c, 0, 62, 56
2, 693899, Note_on_c, 0, 62, 0
2, 693899, Note_on_c, 0, 56, 0
2, 694080, Note_on_c, 0, 57, 47
2, 694080, Note_on_c, 0, 60, 47
2, 694259, Note_on_c, 0, 60, 0
2, 694259, Note_on_c, 0, 57, 0
2, 694440, Note_on_c, 0, 64, 0
2, 694440, Note_on_c, 0, 62, 46
2, 694440, Note_on_c, 0, 54, 47
2, 694619, Note_on_c, 0, 54, 0
2, 694620, Note_on_c, 0, 62, 0
2, 694620, Note_on_c, 0, 60, 46
2, 694800, Note_on_c, 0, 60, 0
2, 694800, Note_on_c, 0, 62, 62
2, 694800, Note_on_c, 0, 55, 54
2, 694800, Note_on_c, 0, 59, 54
2, 694979, Note_on_c, 0, 59, 0
2, 694979, Note_on_c, 0, 55, 0
2, 695160, Note_on_c, 0, 58, 45
2, 695339, Note_on_c, 0, 58, 0
2, 695433, Note_on_c, 0, 62, 0
2, 695520, Note_on_c, 0, 60, 59
2, 695520, Note_on_c, 0, 57, 46
2, 695678, Note_on_c, 0, 60, 0
2, 695699, Note_on_c, 0, 57, 0
2, 695700, Note_on_c, 0, 59, 49
2, 695880, Note_on_c, 0, 59, 0
2, 695880, Note_on_c, 0, 60, 53
2, 695880, Note_on_c, 0, 56, 48
2, 696059, Note_on_c, 0, 56, 0
2, 696240, Note_on_c, 0, 57, 51
2, 696419, Note_on_c, 0, 57, 0
2, 696600, Note_on_c, 0, 53, 45
2, 696779, Note_on_c, 0, 53, 0
2, 696960, Note_on_c, 0, 56, 52
2, 697139, Note_on_c, 0, 56, 0
2, 697320, Note_on_c, 0, 55, 52
2, 697499, Note_on_c, 0, 55, 0
2, 697680, Note_on_c, 0, 56, 53
2, 697859, Note_on_c, 0, 56, 0
2, 698040, Note_on_c, 0, 52, 46
2, 698219, Note_on_c, 0, 52, 0
2, 698400, Note_on_c, 0, 57, 61
2, 698579, Note_on_c, 0, 57, 0
2, 698760, Note_on_c, 0, 53, 46
2, 698939, Note_on_c, 0, 53, 0
2, 699120, Note_on_c, 0, 57, 58
2, 699299, Note_on_c, 0, 57, 0
2, 699480, Note_on_c, 0, 53, 52
2, 699659, Note_on_c, 0, 53, 0
2, 699840, Note_on_c, 0, 60, 0
2, 699840, Note_on_c, 0, 59, 48
2, 699840, Note_on_c, 0, 57, 53
2, 700019, Note_on_c, 0, 57, 0
2, 700200, Note_on_c, 0, 57, 50
2, 700379, Note_on_c, 0, 57, 0
2, 700560, Note_on_c, 0, 57, 50
2, 700739, Note_on_c, 0, 57, 0
2, 700920, Note_on_c, 0, 57, 51
2, 701099, Note_on_c, 0, 57, 0
2, 701280, Note_on_c, 0, 59, 0
2, 701280, Note_on_c, 0, 58, 48
2, 701280, Note_on_c, 0, 58, 42
2, 701459, Note_on_c, 0, 58, 0
2, 701640, Note_on_c, 0, 58, 0
2, 702360, Note_on_c, 0, 57, 37
2, 702539, Note_on_c, 0, 57, 0
2, 702720, Note_on_c, 0, 58, 40
2, 702899, Note_on_c, 0, 58, 0
2, 703800, Note_on_c, 0, 57, 31
2, 703979, Note_on_c, 0, 57, 0
2, 704160, Note_on_c, 0, 58, 40
2, 704339, Note_on_c, 0, 58, 0
2, 704520, Note_on_c, 0, 54, 39
2, 704700, Note_on_c, 0, 54, 0
2, 704700, Note_on_c, 0, 56, 36
2, 704880, Note_on_c, 0, 56, 0
2, 704880, Note_on_c, 0, 53, 42
2, 705059, Note_on_c, 0, 53, 0
2, 705240, Note_on_c, 0, 57, 38
2, 705419, Note_on_c, 0, 57, 0
2, 705600, Note_on_c, 0, 58, 44
2, 705779, Note_on_c, 0, 58, 0
2, 705960, Note_on_c, 0, 62, 46
2, 705960, Note_on_c, 0, 65, 46
2, 705960, Note_on_c, 0, 68, 46
2, 706139, Note_on_c, 0, 68, 0
2, 706139, Note_on_c, 0, 65, 0
2, 706139, Note_on_c, 0, 62, 0
2, 706320, Note_on_c, 0, 62, 53
2, 706320, Note_on_c, 0, 65, 53
2, 706320, Note_on_c, 0, 69, 53
2, 706499, Note_on_c, 0, 69, 0
2, 706499, Note_on_c, 0, 65, 0
2, 706499, Note_on_c, 0, 62, 0
2, 706680, Note_on_c, 0, 62, 52
2, 706680, Note_on_c, 0, 64, 52
2, 706680, Note_on_c, 0, 68, 52
2, 706859, Note_on_c, 0, 68, 0
2, 706859, Note_on_c, 0, 64, 0
2, 706859, Note_on_c, 0, 62, 0
2, 707040, Note_on_c, 0, 60, 57
2, 707040, Note_on_c, 0, 64, 57
2, 707040, Note_on_c, 0, 69, 57
2, 707219, Note_on_c, 0, 69, 0
2, 707219, Note_on_c, 0, 64, 0
2, 707219, Note_on_c, 0, 60, 0
2, 712800, Note_on_c, 0, 69, 79
2, 712800, Note_on_c, 0, 74, 79
2, 712800, Note_on_c, 0, 62, 78
2, 712800, Note_on_c, 0, 65, 78
2, 714960, Note_on_c, 0, 65, 0
2, 714960, Note_on_c, 0, 69, 0
2, 714960, Note_on_c, 0, 74, 0
2, 714960, Note_on_c, 0, 62, 0
2, 714960, Note_on_c, 0, 69, 68
2, 714960, Note_on_c, 0, 72, 68
2, 714960, Note_on_c, 0, 60, 76
2, 714960, Note_on_c, 0, 65, 76
2, 715139, Note_on_c, 0, 65, 0
2, 715139, Note_on_c, 0, 69, 0
2, 715139, Note_on_c, 0, 72, 0
2, 715139, Note_on_c, 0, 60, 0
2, 715320, Note_on_c, 0, 69, 77
2, 715320, Note_on_c, 0, 74, 77
2, 715320, Note_on_c, 0, 62, 71
2, 715320, Note_on_c, 0, 65, 71
2, 715499, Note_on_c, 0, 65, 0
2, 715499, Note_on_c, 0, 69, 0
2, 715499, Note_on_c, 0, 74, 0
2, 715499, Note_on_c, 0, 62, 0
2, 715680, Note_on_c, 0, 69, 73
2, 715680, Note_on_c, 0, 72, 73
2, 715680, Note_on_c, 0, 60, 74
2, 715680, Note_on_c, 0, 65, 74
2, 716039, Note_on_c, 0, 65, 0
2, 716039, Note_on_c, 0, 69, 0
2, 716039, Note_on_c, 0, 72, 0
2, 716039, Note_on_c, 0, 60, 0
2, 716400, Note_on_c, 0, 69, 94
2, 716400, Note_on_c, 0, 74, 94
2, 716400, Note_on_c, 0, 62, 81
2, 716400, Note_on_c, 0, 65, 81
2, 717840, Note_on_c, 0, 65, 0
2, 717840, Note_on_c, 0, 69, 0
2, 717840, Note_on_c, 0, 74, 0
2, 717840, Note_on_c, 0, 62, 0
2, 717840, Note_on_c, 0, 69, 73
2, 717840, Note_on_c, 0, 72, 73
2, 717840, Note_on_c, 0, 60, 73
2, 717840, Note_on_c, 0, 65, 73
2, 718473, Note_on_c, 0, 65, 0
2, 718473, Note_on_c, 0, 69, 0
2, 718473, Note_on_c, 0, 72, 0
2, 718473, Note_on_c, 0, 60, 0
2, 718560, Note_on_c, 0, 65, 65
2, 718560, Note_on_c, 0, 70, 65
2, 718560, Note_on_c, 0, 58, 65
2, 718560, Note_on_c, 0, 62, 65
2, 719193, Note_on_c, 0, 62, 0
2, 719193, Note_on_c, 0, 65, 0
2, 719193, Note_on_c, 0, 70, 0
2, 719193, Note_on_c, 0, 58, 0
2, 719280, Note_on_c, 0, 65, 56
2, 719280, Note_on_c, 0, 69, 56
2, 719280, Note_on_c, 0, 57, 56
2, 719280, Note_on_c, 0, 62, 56
2, 719459, Note_on_c, 0, 62, 0
2, 719459, Note_on_c, 0, 65, 0
2, 719459, Note_on_c, 0, 69, 0
2, 719459, Note_on_c, 0, 57, 0
2, 719640, Note_on_c, 0, 65, 52
2, 719640, Note_on_c, 0, 70, 52
2, 719640, Note_on_c, 0, 58, 52
2, 719640, Note_on_c, 0, 62, 52
2, 719819, Note_on_c, 0, 62, 0
2, 719819, Note_on_c, 0, 65, 0
2, 719819, Note_on_c, 0, 70, 0
2, 719819, Note_on_c, 0, 58, 0
2, 720000, Note_on_c, 0, 69, 56
2, 720000, Note_on_c, 0, 65, 60
2, 720000, Note_on_c, 0, 57, 53
2, 720000, Note_on_c, 0, 62, 53
2, 720360, Note_on_c, 0, 62, 0
2, 720360, Note_on_c, 0, 57, 0
2, 720360, Note_on_c, 0, 57, 46
2, 720539, Note_on_c, 0, 57, 0
2, 720720, Note_on_c, 0, 62, 58
2, 720899, Note_on_c, 0, 62, 0
2, 721080, Note_on_c, 0, 60, 50
2, 721259, Note_on_c, 0, 60, 0
2, 721440, Note_on_c, 0, 62, 50
2, 721619, Note_on_c, 0, 62, 0
2, 721800, Note_on_c, 0, 57, 59
2, 721980, Note_on_c, 0, 57, 0
2, 721980, Note_on_c, 0, 59, 63
2, 722160, Note_on_c, 0, 59, 0
2, 722160, Note_on_c, 0, 60, 67
2, 722339, Note_on_c, 0, 60, 0
2, 722520, Note_on_c, 0, 65, 0
2, 722520, Note_on_c, 0, 65, 90
2, 722640, Note_on_c, 0, 65, 0
2, 722640, Note_on_c, 0, 62, 74
2, 722759, Note_on_c, 0, 62, 0
2, 722759, Note_on_c, 0, 65, 94
2, 722880, Note_on_c, 0, 59, 70
2, 728640, Note_on_c, 0, 59, 0
2, 728640, Note_on_c, 0, 65, 0
2, 728640, Note_on_c, 0, 64, 48
2, 728640, Note_on_c, 0, 60, 80
2, 729000, Note_on_c, 0, 60, 0
2, 729000, Note_on_c, 0, 64, 0
2, 729000, Note_on_c, 0, 69, 0
2, 734400, Note_on_c, 0, 57, 78
2, 734400, Note_on_c, 0, 60, 78
2, 734400, Note_on_c, 0, 65, 78
2, 736560, Note_on_c, 0, 65, 0
2, 736560, Note_on_c, 0, 60, 0
2, 736560, Note_on_c, 0, 57, 0
2, 736560, Note_on_c, 0, 57, 66
2, 736560, Note_on_c, 0, 60, 66
2, 736560, Note_on_c, 0, 64, 66
2, 736739, Note_on_c, 0, 64, 0
2, 736739, Note_on_c, 0, 60, 0
2, 736739, Note_on_c, 0, 57, 0
2, 736920, Note_on_c, 0, 57, 79
2, 736920, Note_on_c, 0, 60, 79
2, 736920, Note_on_c, 0, 65, 79
2, 737099, Note_on_c, 0, 65, 0
2, 737099, Note_on_c, 0, 60, 0
2, 737099, Note_on_c, 0, 57, 0
2, 737280, Note_on_c, 0, 57, 66
2, 737280, Note_on_c, 0, 60, 66
2, 737280, Note_on_c, 0, 64, 66
2, 737639, Note_on_c, 0, 64, 0
2, 737639, Note_on_c, 0, 60, 0
2, 737639, Note_on_c, 0, 57, 0
2, 738000, Note_on_c, 0, 57, 90
2, 738000, Note_on_c, 0, 60, 90
2, 738000, Note_on_c, 0, 65, 90
2, 739440, Note_on_c, 0, 65, 0
2, 739440, Note_on_c, 0, 60, 0
2, 739440, Note_on_c, 0, 57, 0
2, 739440, Note_on_c, 0, 57, 73
2, 739440, Note_on_c, 0, 60, 73
2, 739440, Note_on_c, 0, 64, 73
2, 740073, Note_on_c, 0, 64, 0
2, 740073, Note_on_c, 0, 60, 0
2, 740073, Note_on_c, 0, 57, 0
2, 740160, Note_on_c, 0, 53, 66
2, 740160, Note_on_c, 0, 57, 66
2, 740160, Note_on_c, 0, 62, 66
2, 740793, Note_on_c, 0, 62, 0
2, 740793, Note_on_c, 0, 57, 0
2, 740793, Note_on_c, 0, 53, 0
2, 740880, Note_on_c, 0, 53, 59
2, 740880, Note_on_c, 0, 57, 59
2, 740880, Note_on_c, 0, 60, 59
2, 741059, Note_on_c, 0, 60, 0
2, 741059, Note_on_c, 0, 57, 0
2, 741059, Note_on_c, 0, 53, 0
2, 741240, Note_on_c, 0, 53, 55
2, 741240, Note_on_c, 0, 57, 55
2, 741240, Note_on_c, 0, 62, 55
2, 741419, Note_on_c, 0, 62, 0
2, 741419, Note_on_c, 0, 57, 0
2, 741419, Note_on_c, 0, 53, 0
2, 741600, Note_on_c, 0, 60, 43
2, 741600, Note_on_c, 0, 53, 52
2, 741600, Note_on_c, 0, 57, 52
2, 741960, Note_on_c, 0, 57, 0
2, 741960, Note_on_c, 0, 53, 0
2, 744120, Note_on_c, 0, 57, 78
2, 744240, Note_on_c, 0, 57, 0
2, 744240, Note_on_c, 0, 53, 80
2, 744359, Note_on_c, 0, 53, 0
2, 744359, Note_on_c, 0, 57, 90
2, 744480, Note_on_c, 0, 57, 0
2, 744480, Note_on_c, 0, 50, 42
2, 744480, Note_on_c, 0, 53, 42
2, 750240, Note_on_c, 0, 53, 0
2, 750240, Note_on_c, 0, 50, 0
2, 750240, Note_on_c, 0, 52, 49
2, 750240, Note_on_c, 0, 57, 49
2, 750600, Note_on_c, 0, 57, 0
2, 750600, Note_on_c, 0, 52, 0
2, 750600, Note_on_c, 0, 60, 0
2, 750600, Note_on_c, 0, 60, 39
2, 750689, Note_on_c, 0, 60, 0
2, 750780, Note_on_c, 0, 60, 39
2, 750869, Note_on_c, 0, 60, 0
2, 750960, Note_on_c, 0, 60, 39
2, 751049, Note_on_c, 0, 60, 0
2, 751140, Note_on_c, 0, 60, 44
2, 751229, Note_on_c, 0, 60, 0
2, 751320, Note_on_c, 0, 60, 38
2, 751409, Note_on_c, 0, 60, 0
2, 751500, Note_on_c, 0, 60, 40
2, 751589, Note_on_c, 0, 60, 0
2, 751680, Note_on_c, 0, 57, 43
2, 751680, Note_on_c, 0, 60, 43
2, 751769, Note_on_c, 0, 60, 0
2, 751769, Note_on_c, 0, 57, 0
2, 751860, Note_on_c, 0, 57, 40
2, 751860, Note_on_c, 0, 60, 40
2, 751949, Note_on_c, 0, 60, 0
2, 751949, Note_on_c, 0, 57, 0
2, 752040, Note_on_c, 0, 57, 48
2, 752040, Note_on_c, 0, 60, 48
2, 752129, Note_on_c, 0, 60, 0
2, 752129, Note_on_c, 0, 57, 0
2, 752220, Note_on_c, 0, 57, 46
2, 752220, Note_on_c, 0, 60, 46
2, 752309, Note_on_c, 0, 60, 0
2, 752309, Note_on_c, 0, 57, 0
2, 752400, Note_on_c, 0, 57, 38
2, 752400, Note_on_c, 0, 60, 38
2, 752489, Note_on_c, 0, 60, 0
2, 752489, Note_on_c, 0, 57, 0
2, 752580, Note_on_c, 0, 57, 41
2, 752580, Note_on_c, 0, 60, 41
2, 752669, Note_on_c, 0, 60, 0
2, 752669, Note_on_c, 0, 57, 0
2, 752760, Note_on_c, 0, 57, 40
2, 752760, Note_on_c, 0, 60, 40
2, 752849, Note_on_c, 0, 60, 0
2, 752849, Note_on_c, 0, 57, 0
2, 752940, Note_on_c, 0, 57, 43
2, 752940, Note_on_c, 0, 60, 43
2, 753029, Note_on_c, 0, 60, 0
2, 753029, Note_on_c, 0, 57, 0
2, 753120, Note_on_c, 0, 57, 40
2, 753120, Note_on_c, 0, 60, 40
2, 753299, Note_on_c, 0, 60, 0
2, 753299, Note_on_c, 0, 57, 0
2, 753480, Note_on_c, 0, 57, 38
2, 753480, Note_on_c, 0, 60, 38
2, 753569, Note_on_c, 0, 60, 0
2, 753569, Note_on_c, 0, 57, 0
2, 753660, Note_on_c, 0, 57, 38
2, 753660, Note_on_c, 0, 60, 38
2, 753749, Note_on_c, 0, 60, 0
2, 753749, Note_on_c, 0, 57, 0
2, 753840, Note_on_c, 0, 57, 42
2, 753840, Note_on_c, 0, 60, 42
2, 754019, Note_on_c, 0, 60, 0
2, 754019, Note_on_c, 0, 57, 0
2, 754920, Note_on_c, 0, 57, 35
2, 754920, Note_on_c, 0, 60, 35
2, 755009, Note_on_c, 0, 60, 0
2, 755009, Note_on_c, 0, 57, 0
2, 755100, Note_on_c, 0, 57, 37
2, 755100, Note_on_c, 0, 60, 37
2, 755189, Note_on_c, 0, 60, 0
2, 755189, Note_on_c, 0, 57, 0
2, 755280, Note_on_c, 0, 57, 39
2, 755280, Note_on_c, 0, 60, 39
2, 755459, Note_on_c, 0, 60, 0
2, 755459, Note_on_c, 0, 57, 0
2, 756360, Note_on_c, 0, 57, 35
2, 756360, Note_on_c, 0, 60, 35
2, 756449, Note_on_c, 0, 60, 0
2, 756449, Note_on_c, 0, 57, 0
2, 756540, Note_on_c, 0, 57, 41
2, 756540, Note_on_c, 0, 60, 41
2, 756629, Note_on_c, 0, 60, 0
2, 756629, Note_on_c, 0, 57, 0
2, 756720, Note_on_c, 0, 57, 42
2, 756720, Note_on_c, 0, 60, 42
2, 756899, Note_on_c, 0, 60, 0
2, 756899, Note_on_c, 0, 57, 0
2, 759240, Note_on_c, 0, 57, 32
2, 759240, Note_on_c, 0, 60, 32
2, 759329, Note_on_c, 0, 60, 0
2, 759329, Note_on_c, 0, 57, 0
2, 759420, Note_on_c, 0, 57, 38
2, 759420, Note_on_c, 0, 60, 38
2, 759509, Note_on_c, 0, 60, 0
2, 759509, Note_on_c, 0, 57, 0
2, 759600, Note_on_c, 0, 57, 44
2, 759600, Note_on_c, 0, 60, 44
2, 759779, Note_on_c, 0, 60, 0
2, 759779, Note_on_c, 0, 57, 0
2, 761760, Note_on_c, 0, 57, 39
2, 761760, Note_on_c, 0, 60, 39
2, 761939, Note_on_c, 0, 60, 0
2, 761939, Note_on_c, 0, 57, 0
2, 761939, End_track
3, 0, Start_track
3, 0, Title_t, "Secondo"
3, 0, Program_c, 0, 0
3, 0, Control_c, 0, 7, 105
3, 0, Control_c, 0, 10, 48
3, 0, Control_c, 0, 91, 60
3, 0, Control_c, 0, 121, 0
3, 0, Control_c, 0, 121, 0
3, 0, Control_c, 0, 91, 60
3, 0, Control_c, 0, 10, 51
3, 0, Control_c, 0, 7, 100
3, 3240, Note_on_c, 0, 64, 82
3, 3419, Note_on_c, 0, 64, 0
3, 3600, Note_on_c, 0, 69, 105
3, 3779, Note_on_c, 0, 69, 0
3, 3960, Note_on_c, 0, 67, 87
3, 4139, Note_on_c, 0, 67, 0
3, 4320, Note_on_c, 0, 69, 110
3, 5269, Note_on_c, 0, 69, 0
3, 5400, Note_on_c, 0, 65, 84
3, 5579, Note_on_c, 0, 65, 0
3, 5760, Note_on_c, 0, 67, 111
3, 6709, Note_on_c, 0, 67, 0
3, 6840, Note_on_c, 0, 64, 86
3, 7019, Note_on_c, 0, 64, 0
3, 7200, Note_on_c, 0, 65, 92
3, 8149, Note_on_c, 0, 65, 0
3, 8280, Note_on_c, 0, 62, 73
3, 8459, Note_on_c, 0, 62, 0
3, 8640, Note_on_c, 0, 52, 67
3, 8640, Note_on_c, 0, 60, 67
3, 8640, Note_on_c, 0, 64, 67
3, 8640, Note_on_c, 0, 33, 88
3, 8640, Note_on_c, 0, 45, 88
3, 9000, Note_on_c, 0, 45, 0
3, 9000, Note_on_c, 0, 64, 0
3, 9000, Note_on_c, 0, 52, 0
3, 9000, Note_on_c, 0, 60, 0
3, 9000, Note_on_c, 0, 33, 0
3, 9000, Note_on_c, 0, 57, 62
3, 9180, Note_on_c, 0, 57, 0
3, 9180, Note_on_c, 0, 60, 75
3, 9360, Note_on_c, 0, 60, 0
3, 9360, Note_on_c, 0, 35, 63
3, 9360, Note_on_c, 0, 47, 63
3, 9540, Note_on_c, 0, 57, 63
3, 9720, Note_on_c, 0, 57, 0
3, 9720, Note_on_c, 0, 47, 0
3, 9720, Note_on_c, 0, 35, 0
3, 9720, Note_on_c, 0, 65, 80
3, 9900, Note_on_c, 0, 65, 0
3, 9900, Note_on_c, 0, 62, 62
3, 10080, Note_on_c, 0, 62, 0
3, 10080, Note_on_c, 0, 36, 61
3, 10080, Note_on_c, 0, 48, 61
3, 10260, Note_on_c, 0, 57, 70
3, 10440, Note_on_c, 0, 57, 0
3, 10440, Note_on_c, 0, 48, 0
3, 10440, Note_on_c, 0, 36, 0
3, 10440, Note_on_c, 0, 69, 73
3, 10620, Note_on_c, 0, 69, 0
3, 10620, Note_on_c, 0, 64, 76
3, 10800, Note_on_c, 0, 64, 0
3, 10800, Note_on_c, 0, 40, 60
3, 10800, Note_on_c, 0, 52, 60
3, 10980, Note_on_c, 0, 59, 83
3, 11160, Note_on_c, 0, 59, 0
3, 11160, Note_on_c, 0, 52, 0
3, 11160, Note_on_c, 0, 40, 0
3, 11160, Note_on_c, 0, 71, 86
3, 11340, Note_on_c, 0, 71, 0
3, 11340, Note_on_c, 0, 67, 89
3, 11520, Note_on_c, 0, 67, 0
3, 11520, Note_on_c, 0, 45, 62
3, 11520, Note_on_c, 0, 57, 62
3, 11700, Note_on_c, 0, 60, 82
3, 11880, Note_on_c, 0, 60, 0
3, 11880, Note_on_c, 0, 57, 0
3, 11880, Note_on_c, 0, 45, 0
3, 11880, Note_on_c, 0, 72, 118
3, 12060, Note_on_c, 0, 72, 0
3, 12060, Note_on_c, 0, 69, 91
3, 12240, Note_on_c, 0, 69, 0
3, 12240, Note_on_c, 0, 43, 63
3, 12240, Note_on_c, 0, 55, 63
3, 12420, Note_on_c, 0, 59, 80
3, 12600, Note_on_c, 0, 59, 0
3, 12600, Note_on_c, 0, 55, 0
3, 12600, Note_on_c, 0, 43, 0
3, 12600, Note_on_c, 0, 71, 119
3, 12780, Note_on_c, 0, 71, 0
3, 12780, Note_on_c, 0, 64, 82
3, 12960, Note_on_c, 0, 64, 0
3, 12960, Note_on_c, 0, 42, 62
3, 12960, Note_on_c, 0, 54, 62
3, 13140, Note_on_c, 0, 58, 91
3, 13320, Note_on_c, 0, 58, 0
3, 13320, Note_on_c, 0, 54, 0
3, 13320, Note_on_c, 0, 42, 0
3, 13320, Note_on_c, 0, 70, 89
3, 13500, Note_on_c, 0, 70, 0
3, 13500, Note_on_c, 0, 64, 88
3, 13680, Note_on_c, 0, 64, 0
3, 13680, Note_on_c, 0, 41, 61
3, 13680, Note_on_c, 0, 53, 61
3, 13860, Note_on_c, 0, 57, 84
3, 14040, Note_on_c, 0, 57, 0
3, 14040, Note_on_c, 0, 53, 0
3, 14040, Note_on_c, 0, 41, 0
3, 14040, Note_on_c, 0, 69, 83
3, 14220, Note_on_c, 0, 69, 0
3, 14220, Note_on_c, 0, 62, 81
3, 14400, Note_on_c, 0, 62, 0
3, 14400, Note_on_c, 0, 40, 64
3, 14400, Note_on_c, 0, 52, 64
3, 14580, Note_on_c, 0, 56, 78
3, 14760, Note_on_c, 0, 56, 0
3, 14760, Note_on_c, 0, 52, 0
3, 14760, Note_on_c, 0, 40, 0
3, 14760, Note_on_c, 0, 68, 76
3, 14940, Note_on_c, 0, 68, 0
3, 14940, Note_on_c, 0, 62, 75
3, 15120, Note_on_c, 0, 62, 0
3, 15120, Note_on_c, 0, 39, 58
3, 15120, Note_on_c, 0, 51, 58
3, 15300, Note_on_c, 0, 55, 72
3, 15480, Note_on_c, 0, 55, 0
3, 15480, Note_on_c, 0, 51, 0
3, 15480, Note_on_c, 0, 39, 0
3, 15480, Note_on_c, 0, 67, 70
3, 15660, Note_on_c, 0, 67, 0
3, 15660, Note_on_c, 0, 60, 69
3, 15840, Note_on_c, 0, 60, 0
3, 15840, Note_on_c, 0, 38, 64
3, 15840, Note_on_c, 0, 50, 64
3, 16019, Note_on_c, 0, 50, 0
3, 16019, Note_on_c, 0, 38, 0
3, 16020, Note_on_c, 0, 57, 62
3, 16200, Note_on_c, 0, 57, 0
3, 16200, Note_on_c, 0, 65, 76
3, 16200, Note_on_c, 0, 39, 70
3, 16200, Note_on_c, 0, 51, 70
3, 16380, Note_on_c, 0, 65, 0
3, 16380, Note_on_c, 0, 60, 56
3, 16560, Note_on_c, 0, 60, 0
3, 16560, Note_on_c, 0, 51, 0
3, 16560, Note_on_c, 0, 39, 0
3, 16560, Note_on_c, 0, 40, 66
3, 16560, Note_on_c, 0, 52, 66
3, 16739, Note_on_c, 0, 52, 0
3, 16739, Note_on_c, 0, 40, 0
3, 16740, Note_on_c, 0, 56, 60
3, 16920, Note_on_c, 0, 56, 0
3, 16920, Note_on_c, 0, 64, 78
3, 17100, Note_on_c, 0, 64, 0
3, 17100, Note_on_c, 0, 60, 60
3, 17280, Note_on_c, 0, 60, 0
3, 17280, Note_on_c, 0, 57, 55
3, 17280, Note_on_c, 0, 45, 62
3, 17459, Note_on_c, 0, 45, 0
3, 17460, Note_on_c, 0, 57, 0
3, 17460, Note_on_c, 0, 60, 60
3, 17640, Note_on_c, 0, 60, 0
3, 17640, Note_on_c, 0, 60, 58
3, 17820, Note_on_c, 0, 60, 0
3, 17820, Note_on_c, 0, 64, 63
3, 18000, Note_on_c, 0, 64, 0
3, 18000, Note_on_c, 0, 57, 71
3, 18179, Note_on_c, 0, 57, 0
3, 18360, Note_on_c, 0, 67, 80
3, 18360, Note_on_c, 0, 59, 83
3, 18480, Note_on_c, 0, 67, 0
3, 18480, Note_on_c, 0, 64, 85
3, 18539, Note_on_c, 0, 59, 0
3, 18599, Note_on_c, 0, 64, 0
3, 18599, Note_on_c, 0, 67, 95
3, 18720, Note_on_c, 0, 67, 0
3, 18720, Note_on_c, 0, 60, 119
3, 18900, Note_on_c, 0, 60, 0
3, 18900, Note_on_c, 0, 48, 83
3, 19080, Note_on_c, 0, 48, 0
3, 19080, Note_on_c, 0, 60, 121
3, 19260, Note_on_c, 0, 60, 0
3, 19260, Note_on_c, 0, 48, 81
3, 19440, Note_on_c, 0, 48, 0
3, 19440, Note_on_c, 0, 60, 92
3, 19620, Note_on_c, 0, 60, 0
3, 19620, Note_on_c, 0, 48, 86
3, 19800, Note_on_c, 0, 48, 0
3, 19800, Note_on_c, 0, 60, 80
3, 19980, Note_on_c, 0, 60, 0
3, 19980, Note_on_c, 0, 48, 73
3, 20160, Note_on_c, 0, 48, 0
3, 20160, Note_on_c, 0, 60, 72
3, 20340, Note_on_c, 0, 60, 0
3, 20340, Note_on_c, 0, 48, 53
3, 20520, Note_on_c, 0, 48, 0
3, 20520, Note_on_c, 0, 60, 72
3, 20520, Note_on_c, 0, 40, 47
3, 20700, Note_on_c, 0, 60, 0
3, 20700, Note_on_c, 0, 48, 52
3, 20880, Note_on_c, 0, 48, 0
3, 20880, Note_on_c, 0, 40, 0
3, 20880, Note_on_c, 0, 60, 55
3, 20880, Note_on_c, 0, 41, 55
3, 21059, Note_on_c, 0, 41, 0
3, 21060, Note_on_c, 0, 60, 0
3, 21060, Note_on_c, 0, 48, 58
3, 21240, Note_on_c, 0, 48, 0
3, 21240, Note_on_c, 0, 60, 61
3, 21240, Note_on_c, 0, 38, 50
3, 21419, Note_on_c, 0, 38, 0
3, 21420, Note_on_c, 0, 60, 0
3, 21420, Note_on_c, 0, 48, 63
3, 21600, Note_on_c, 0, 48, 0
3, 21600, Note_on_c, 0, 60, 66
3, 21600, Note_on_c, 0, 40, 55
3, 21779, Note_on_c, 0, 40, 0
3, 21780, Note_on_c, 0, 60, 0
3, 21780, Note_on_c, 0, 48, 68
3, 21960, Note_on_c, 0, 48, 0
3, 21960, Note_on_c, 0, 60, 71
3, 21960, Note_on_c, 0, 36, 64
3, 22139, Note_on_c, 0, 36, 0
3, 22140, Note_on_c, 0, 60, 0
3, 22140, Note_on_c, 0, 48, 73
3, 22320, Note_on_c, 0, 48, 0
3, 22320, Note_on_c, 0, 60, 76
3, 22320, Note_on_c, 0, 38, 72
3, 22499, Note_on_c, 0, 38, 0
3, 22500, Note_on_c, 0, 60, 0
3, 22500, Note_on_c, 0, 48, 78
3, 22680, Note_on_c, 0, 48, 0
3, 22680, Note_on_c, 0, 60, 113
3, 22680, Note_on_c, 0, 40, 78
3, 22800, Note_on_c, 0, 40, 0
3, 22800, Note_on_c, 0, 36, 72
3, 22860, Note_on_c, 0, 60, 0
3, 22860, Note_on_c, 0, 48, 81
3, 22919, Note_on_c, 0, 36, 0
3, 22919, Note_on_c, 0, 40, 83
3, 23040, Note_on_c, 0, 40, 0
3, 23040, Note_on_c, 0, 48, 0
3, 23040, Note_on_c, 0, 33, 80
3, 23040, Note_on_c, 0, 45, 80
3, 23400, Note_on_c, 0, 64, 78
3, 23579, Note_on_c, 0, 64, 0
3, 23760, Note_on_c, 0, 69, 98
3, 23939, Note_on_c, 0, 69, 0
3, 24120, Note_on_c, 0, 67, 86
3, 24299, Note_on_c, 0, 67, 0
3, 24480, Note_on_c, 0, 69, 108
3, 25429, Note_on_c, 0, 69, 0
3, 25560, Note_on_c, 0, 65, 88
3, 25739, Note_on_c, 0, 65, 0
3, 25920, Note_on_c, 0, 67, 108
3, 26869, Note_on_c, 0, 67, 0
3, 27000, Note_on_c, 0, 64, 86
3, 27179, Note_on_c, 0, 64, 0
3, 27360, Note_on_c, 0, 65, 106
3, 28309, Note_on_c, 0, 65, 0
3, 28440, Note_on_c, 0, 62, 83
3, 28619, Note_on_c, 0, 62, 0
3, 28800, Note_on_c, 0, 45, 0
3, 28800, Note_on_c, 0, 33, 0
3, 28800, Note_on_c, 0, 52, 84
3, 28800, Note_on_c, 0, 60, 84
3, 28800, Note_on_c, 0, 64, 84
3, 28800, Note_on_c, 0, 33, 91
3, 28800, Note_on_c, 0, 45, 91
3, 29160, Note_on_c, 0, 45, 0
3, 29160, Note_on_c, 0, 64, 0
3, 29160, Note_on_c, 0, 52, 0
3, 29160, Note_on_c, 0, 60, 0
3, 29160, Note_on_c, 0, 33, 0
3, 29160, Note_on_c, 0, 57, 75
3, 29340, Note_on_c, 0, 57, 0
3, 29340, Note_on_c, 0, 60, 85
3, 29520, Note_on_c, 0, 60, 0
3, 29520, Note_on_c, 0, 31, 56
3, 29520, Note_on_c, 0, 43, 56
3, 29700, Note_on_c, 0, 52, 78
3, 29880, Note_on_c, 0, 52, 0
3, 29880, Note_on_c, 0, 43, 0
3, 29880, Note_on_c, 0, 31, 0
3, 29880, Note_on_c, 0, 60, 82
3, 30060, Note_on_c, 0, 60, 0
3, 30060, Note_on_c, 0, 57, 86
3, 30240, Note_on_c, 0, 57, 0
3, 30240, Note_on_c, 0, 29, 57
3, 30240, Note_on_c, 0, 41, 57
3, 30420, Note_on_c, 0, 57, 93
3, 30600, Note_on_c, 0, 57, 0
3, 30600, Note_on_c, 0, 41, 0
3, 30600, Note_on_c, 0, 29, 0
3, 30600, Note_on_c, 0, 64, 96
3, 30780, Note_on_c, 0, 64, 0
3, 30780, Note_on_c, 0, 60, 100
3, 30960, Note_on_c, 0, 60, 0
3, 30960, Note_on_c, 0, 31, 59
3, 30960, Note_on_c, 0, 43, 59
3, 31140, Note_on_c, 0, 53, 104
3, 31320, Note_on_c, 0, 53, 0
3, 31320, Note_on_c, 0, 43, 0
3, 31320, Note_on_c, 0, 31, 0
3, 31320, Note_on_c, 0, 62, 95
3, 31500, Note_on_c, 0, 62, 0
3, 31500, Note_on_c, 0, 59, 87
3, 31680, Note_on_c, 0, 59, 0
3, 31680, Note_on_c, 0, 33, 56
3, 31680, Note_on_c, 0, 45, 56
3, 31860, Note_on_c, 0, 52, 51
3, 32040, Note_on_c, 0, 52, 0
3, 32040, Note_on_c, 0, 45, 0
3, 32040, Note_on_c, 0, 33, 0
3, 32040, Note_on_c, 0, 64, 68
3, 32220, Note_on_c, 0, 64, 0
3, 32220, Note_on_c, 0, 60, 55
3, 32400, Note_on_c, 0, 60, 0
3, 32400, Note_on_c, 0, 35, 58
3, 32400, Note_on_c, 0, 47, 58
3, 32580, Note_on_c, 0, 57, 52
3, 32760, Note_on_c, 0, 57, 0
3, 32760, Note_on_c, 0, 47, 0
3, 32760, Note_on_c, 0, 35, 0
3, 32760, Note_on_c, 0, 65, 65
3, 32940, Note_on_c, 0, 65, 0
3, 32940, Note_on_c, 0, 62, 54
3, 33120, Note_on_c, 0, 62, 0
3, 33120, Note_on_c, 0, 37, 62
3, 33120, Note_on_c, 0, 49, 62
3, 33300, Note_on_c, 0, 57, 53
3, 33480, Note_on_c, 0, 57, 0
3, 33480, Note_on_c, 0, 49, 0
3, 33480, Note_on_c, 0, 37, 0
3, 33480, Note_on_c, 0, 67, 72
3, 33660, Note_on_c, 0, 67, 0
3, 33660, Note_on_c, 0, 64, 56
3, 33840, Note_on_c, 0, 64, 0
3, 33840, Note_on_c, 0, 38, 59
3, 33840, Note_on_c, 0, 50, 59
3, 34020, Note_on_c, 0, 57, 52
3, 34200, Note_on_c, 0, 57, 0
3, 34200, Note_on_c, 0, 50, 0
3, 34200, Note_on_c, 0, 38, 0
3, 34200, Note_on_c, 0, 65, 65
3, 34200, Note_on_c, 0, 37, 63
3, 34200, Note_on_c, 0, 49, 63
3, 34380, Note_on_c, 0, 49, 0
3, 34380, Note_on_c, 0, 37, 0
3, 34380, Note_on_c, 0, 65, 0
3, 34380, Note_on_c, 0, 59, 50
3, 34380, Note_on_c, 0, 38, 64
3, 34380, Note_on_c, 0, 50, 64
3, 34560, Note_on_c, 0, 50, 0
3, 34560, Note_on_c, 0, 38, 0
3, 34560, Note_on_c, 0, 59, 0
3, 34560, Note_on_c, 0, 40, 106
3, 34739, Note_on_c, 0, 40, 0
3, 34740, Note_on_c, 0, 57, 49
3, 34920, Note_on_c, 0, 57, 0
3, 34920, Note_on_c, 0, 64, 60
3, 35100, Note_on_c, 0, 64, 0
3, 35100, Note_on_c, 0, 60, 49
3, 35280, Note_on_c, 0, 60, 0
3, 35280, Note_on_c, 0, 53, 70
3, 35280, Note_on_c, 0, 41, 104
3, 35459, Note_on_c, 0, 41, 0
3, 35460, Note_on_c, 0, 60, 45
3, 35640, Note_on_c, 0, 60, 0
3, 35640, Note_on_c, 0, 72, 69
3, 35820, Note_on_c, 0, 72, 0
3, 35820, Note_on_c, 0, 69, 51
3, 36000, Note_on_c, 0, 69, 0
3, 36180, Note_on_c, 0, 60, 55
3, 36360, Note_on_c, 0, 60, 0
3, 36360, Note_on_c, 0, 53, 0
3, 36360, Note_on_c, 0, 69, 65
3, 36540, Note_on_c, 0, 69, 0
3, 36540, Note_on_c, 0, 64, 52
3, 36720, Note_on_c, 0, 64, 0
3, 36720, Note_on_c, 0, 42, 60
3, 36720, Note_on_c, 0, 54, 60
3, 36900, Note_on_c, 0, 57, 50
3, 37080, Note_on_c, 0, 57, 0
3, 37080, Note_on_c, 0, 54, 0
3, 37080, Note_on_c, 0, 42, 0
3, 37080, Note_on_c, 0, 64, 64
3, 37260, Note_on_c, 0, 64, 0
3, 37260, Note_on_c, 0, 60, 54
3, 37440, Note_on_c, 0, 60, 0
3, 37440, Note_on_c, 0, 43, 58
3, 37440, Note_on_c, 0, 52, 58
3, 37620, Note_on_c, 0, 55, 51
3, 37800, Note_on_c, 0, 55, 0
3, 37800, Note_on_c, 0, 52, 0
3, 37800, Note_on_c, 0, 43, 0
3, 37800, Note_on_c, 0, 64, 71
3, 37980, Note_on_c, 0, 64, 0
3, 37980, Note_on_c, 0, 60, 51
3, 38160, Note_on_c, 0, 60, 0
3, 38160, Note_on_c, 0, 44, 62
3, 38160, Note_on_c, 0, 52, 62
3, 38340, Note_on_c, 0, 56, 47
3, 38520, Note_on_c, 0, 56, 0
3, 38520, Note_on_c, 0, 52, 0
3, 38520, Note_on_c, 0, 44, 0
3, 38520, Note_on_c, 0, 64, 60
3, 38700, Note_on_c, 0, 64, 0
3, 38700, Note_on_c, 0, 60, 45
3, 38880, Note_on_c, 0, 60, 0
3, 38880, Note_on_c, 0, 45, 58
3, 38880, Note_on_c, 0, 52, 58
3, 39060, Note_on_c, 0, 57, 48
3, 39240, Note_on_c, 0, 57, 0
3, 39240, Note_on_c, 0, 52, 0
3, 39240, Note_on_c, 0, 45, 0
3, 39240, Note_on_c, 0, 64, 64
3, 39420, Note_on_c, 0, 64, 0
3, 39420, Note_on_c, 0, 60, 51
3, 39600, Note_on_c, 0, 60, 0
3, 39600, Note_on_c, 0, 55, 57
3, 39600, Note_on_c, 0, 46, 112
3, 39780, Note_on_c, 0, 60, 50
3, 39960, Note_on_c, 0, 60, 0
3, 39960, Note_on_c, 0, 46, 0
3, 39960, Note_on_c, 0, 67, 64
3, 39960, Note_on_c, 0, 45, 116
3, 40140, Note_on_c, 0, 45, 0
3, 40140, Note_on_c, 0, 67, 0
3, 40140, Note_on_c, 0, 64, 53
3, 40140, Note_on_c, 0, 46, 121
3, 40320, Note_on_c, 0, 46, 0
3, 40320, Note_on_c, 0, 64, 0
3, 40320, Note_on_c, 0, 47, 62
3, 40500, Note_on_c, 0, 59, 51
3, 40680, Note_on_c, 0, 59, 0
3, 40680, Note_on_c, 0, 47, 0
3, 40680, Note_on_c, 0, 55, 0
3, 40680, Note_on_c, 0, 67, 66
3, 40860, Note_on_c, 0, 67, 0
3, 40860, Note_on_c, 0, 64, 53
3, 41040, Note_on_c, 0, 64, 0
3, 41040, Note_on_c, 0, 48, 57
3, 41219, Note_on_c, 0, 48, 0
3, 41220, Note_on_c, 0, 57, 50
3, 41400, Note_on_c, 0, 57, 0
3, 41400, Note_on_c, 0, 67, 65
3, 41400, Note_on_c, 0, 49, 65
3, 41579, Note_on_c, 0, 49, 0
3, 41580, Note_on_c, 0, 67, 0
3, 41580, Note_on_c, 0, 64, 53
3, 41760, Note_on_c, 0, 64, 0
3, 41760, Note_on_c, 0, 50, 53
3, 41939, Note_on_c, 0, 50, 0
3, 41940, Note_on_c, 0, 57, 41
3, 42120, Note_on_c, 0, 57, 0
3, 42120, Note_on_c, 0, 64, 59
3, 42120, Note_on_c, 0, 65, 59
3, 42300, Note_on_c, 0, 65, 0
3, 42300, Note_on_c, 0, 64, 0
3, 42300, Note_on_c, 0, 62, 44
3, 42480, Note_on_c, 0, 62, 0
3, 42480, Note_on_c, 0, 40, 40
3, 42659, Note_on_c, 0, 40, 0
3, 42660, Note_on_c, 0, 57, 39
3, 42840, Note_on_c, 0, 57, 0
3, 42840, Note_on_c, 0, 64, 58
3, 42840, Note_on_c, 0, 65, 58
3, 43020, Note_on_c, 0, 65, 0
3, 43020, Note_on_c, 0, 64, 0
3, 43020, Note_on_c, 0, 56, 39
3, 43200, Note_on_c, 0, 56, 0
3, 43200, Note_on_c, 0, 57, 41
3, 43200, Note_on_c, 0, 45, 41
3, 43380, Note_on_c, 0, 57, 0
3, 43380, Note_on_c, 0, 60, 49
3, 43560, Note_on_c, 0, 60, 0
3, 43560, Note_on_c, 0, 45, 0
3, 43560, Note_on_c, 0, 60, 50
3, 43740, Note_on_c, 0, 60, 0
3, 43740, Note_on_c, 0, 64, 51
3, 43920, Note_on_c, 0, 64, 0
3, 43920, Note_on_c, 0, 57, 45
3, 44099, Note_on_c, 0, 57, 0
3, 44280, Note_on_c, 0, 60, 84
3, 44280, Note_on_c, 0, 55, 58
3, 44400, Note_on_c, 0, 60, 0
3, 44400, Note_on_c, 0, 57, 87
3, 44459, Note_on_c, 0, 55, 0
3, 44519, Note_on_c, 0, 57, 0
3, 44519, Note_on_c, 0, 60, 100
3, 44640, Note_on_c, 0, 60, 0
3, 44640, Note_on_c, 0, 53, 112
3, 44820, Note_on_c, 0, 41, 111
3, 45000, Note_on_c, 0, 41, 0
3, 45000, Note_on_c, 0, 53, 0
3, 45000, Note_on_c, 0, 53, 121
3, 45180, Note_on_c, 0, 53, 0
3, 45180, Note_on_c, 0, 41, 107
3, 45360, Note_on_c, 0, 41, 0
3, 45360, Note_on_c, 0, 53, 92
3, 45540, Note_on_c, 0, 53, 0
3, 45540, Note_on_c, 0, 41, 86
3, 45720, Note_on_c, 0, 41, 0
3, 45720, Note_on_c, 0, 53, 80
3, 45900, Note_on_c, 0, 53, 0
3, 45900, Note_on_c, 0, 41, 73
3, 46080, Note_on_c, 0, 41, 0
3, 46080, Note_on_c, 0, 53, 64
3, 46260, Note_on_c, 0, 53, 0
3, 46260, Note_on_c, 0, 41, 52
3, 46440, Note_on_c, 0, 41, 0
3, 46440, Note_on_c, 0, 53, 57
3, 46440, Note_on_c, 0, 38, 65
3, 46619, Note_on_c, 0, 38, 0
3, 46620, Note_on_c, 0, 53, 0
3, 46620, Note_on_c, 0, 41, 49
3, 46800, Note_on_c, 0, 41, 0
3, 46800, Note_on_c, 0, 53, 55
3, 46800, Note_on_c, 0, 40, 74
3, 46979, Note_on_c, 0, 40, 0
3, 46980, Note_on_c, 0, 53, 0
3, 46980, Note_on_c, 0, 41, 58
3, 47160, Note_on_c, 0, 41, 0
3, 47160, Note_on_c, 0, 53, 61
3, 47160, Note_on_c, 0, 36, 65
3, 47339, Note_on_c, 0, 36, 0
3, 47340, Note_on_c, 0, 53, 0
3, 47340, Note_on_c, 0, 41, 63
3, 47520, Note_on_c, 0, 41, 0
3, 47520, Note_on_c, 0, 53, 66
3, 47520, Note_on_c, 0, 38, 69
3, 47699, Note_on_c, 0, 38, 0
3, 47700, Note_on_c, 0, 53, 0
3, 47700, Note_on_c, 0, 41, 68
3, 47880, Note_on_c, 0, 41, 0
3, 47880, Note_on_c, 0, 53, 71
3, 47880, Note_on_c, 0, 35, 72
3, 48059, Note_on_c, 0, 35, 0
3, 48060, Note_on_c, 0, 53, 0
3, 48060, Note_on_c, 0, 41, 73
3, 48240, Note_on_c, 0, 41, 0
3, 48240, Note_on_c, 0, 53, 76
3, 48240, Note_on_c, 0, 36, 73
3, 48419, Note_on_c, 0, 36, 0
3, 48420, Note_on_c, 0, 53, 0
3, 48420, Note_on_c, 0, 41, 78
3, 48600, Note_on_c, 0, 41, 0
3, 48600, Note_on_c, 0, 53, 108
3, 48600, Note_on_c, 0, 38, 73
3, 48720, Note_on_c, 0, 38, 0
3, 48720, Note_on_c, 0, 34, 67
3, 48780, Note_on_c, 0, 53, 0
3, 48780, Note_on_c, 0, 41, 82
3, 48839, Note_on_c, 0, 34, 0
3, 48839, Note_on_c, 0, 38, 77
3, 48960, Note_on_c, 0, 38, 0
3, 48960, Note_on_c, 0, 41, 0
3, 48960, Note_on_c, 0, 31, 102
3, 48960, Note_on_c, 0, 43, 102
3, 49320, Note_on_c, 0, 43, 0
3, 49320, Note_on_c, 0, 31, 0
3, 49320, Note_on_c, 0, 58, 72
3, 49320, Note_on_c, 0, 62, 72
3, 49320, Note_on_c, 0, 65, 72
3, 49320, Note_on_c, 0, 43, 71
3, 49320, Note_on_c, 0, 50, 71
3, 49320, Note_on_c, 0, 53, 71
3, 49500, Note_on_c, 0, 53, 0
3, 49500, Note_on_c, 0, 62, 0
3, 49500, Note_on_c, 0, 65, 0
3, 49500, Note_on_c, 0, 58, 0
3, 49500, Note_on_c, 0, 50, 0
3, 49500, Note_on_c, 0, 43, 0
3, 49500, Note_on_c, 0, 58, 73
3, 49500, Note_on_c, 0, 62, 73
3, 49500, Note_on_c, 0, 65, 73
3, 49500, Note_on_c, 0, 43, 66
3, 49500, Note_on_c, 0, 50, 66
3, 49500, Note_on_c, 0, 53, 66
3, 49680, Note_on_c, 0, 53, 0
3, 49680, Note_on_c, 0, 62, 0
3, 49680, Note_on_c, 0, 65, 0
3, 49680, Note_on_c, 0, 58, 0
3, 49680, Note_on_c, 0, 50, 0
3, 49680, Note_on_c, 0, 43, 0
3, 49680, Note_on_c, 0, 58, 89
3, 49680, Note_on_c, 0, 62, 89
3, 49680, Note_on_c, 0, 65, 89
3, 49680, Note_on_c, 0, 70, 89
3, 49680, Note_on_c, 0, 43, 64
3, 49680, Note_on_c, 0, 50, 64
3, 49680, Note_on_c, 0, 53, 64
3, 50040, Note_on_c, 0, 53, 0
3, 50040, Note_on_c, 0, 43, 0
3, 50040, Note_on_c, 0, 62, 0
3, 50040, Note_on_c, 0, 65, 0
3, 50040, Note_on_c, 0, 58, 0
3, 50040, Note_on_c, 0, 50, 0
3, 50040, Note_on_c, 0, 70, 0
3, 50040, Note_on_c, 0, 58, 77
3, 50040, Note_on_c, 0, 62, 77
3, 50040, Note_on_c, 0, 65, 77
3, 50040, Note_on_c, 0, 70, 77
3, 50040, Note_on_c, 0, 43, 66
3, 50040, Note_on_c, 0, 50, 66
3, 50040, Note_on_c, 0, 53, 66
3, 50220, Note_on_c, 0, 53, 0
3, 50220, Note_on_c, 0, 43, 0
3, 50220, Note_on_c, 0, 62, 0
3, 50220, Note_on_c, 0, 65, 0
3, 50220, Note_on_c, 0, 58, 0
3, 50220, Note_on_c, 0, 50, 0
3, 50220, Note_on_c, 0, 70, 0
3, 50220, Note_on_c, 0, 58, 74
3, 50220, Note_on_c, 0, 62, 74
3, 50220, Note_on_c, 0, 65, 74
3, 50220, Note_on_c, 0, 70, 74
3, 50220, Note_on_c, 0, 43, 69
3, 50220, Note_on_c, 0, 50, 69
3, 50220, Note_on_c, 0, 53, 69
3, 50400, Note_on_c, 0, 53, 0
3, 50400, Note_on_c, 0, 43, 0
3, 50400, Note_on_c, 0, 62, 0
3, 50400, Note_on_c, 0, 65, 0
3, 50400, Note_on_c, 0, 58, 0
3, 50400, Note_on_c, 0, 50, 0
3, 50400, Note_on_c, 0, 70, 0
3, 50400, Note_on_c, 0, 58, 79
3, 50400, Note_on_c, 0, 62, 79
3, 50400, Note_on_c, 0, 65, 79
3, 50400, Note_on_c, 0, 70, 79
3, 50400, Note_on_c, 0, 43, 67
3, 50400, Note_on_c, 0, 50, 67
3, 50400, Note_on_c, 0, 53, 67
3, 50760, Note_on_c, 0, 53, 0
3, 50760, Note_on_c, 0, 43, 0
3, 50760, Note_on_c, 0, 62, 0
3, 50760, Note_on_c, 0, 65, 0
3, 50760, Note_on_c, 0, 58, 0
3, 50760, Note_on_c, 0, 50, 0
3, 50760, Note_on_c, 0, 70, 0
3, 50760, Note_on_c, 0, 58, 79
3, 50760, Note_on_c, 0, 62, 79
3, 50760, Note_on_c, 0, 65, 79
3, 50760, Note_on_c, 0, 70, 79
3, 50760, Note_on_c, 0, 43, 65
3, 50760, Note_on_c, 0, 50, 65
3, 50760, Note_on_c, 0, 53, 65
3, 50940, Note_on_c, 0, 53, 0
3, 50940, Note_on_c, 0, 43, 0
3, 50940, Note_on_c, 0, 62, 0
3, 50940, Note_on_c, 0, 65, 0
3, 50940, Note_on_c, 0, 58, 0
3, 50940, Note_on_c, 0, 50, 0
3, 50940, Note_on_c, 0, 70, 0
3, 50940, Note_on_c, 0, 58, 81
3, 50940, Note_on_c, 0, 62, 81
3, 50940, Note_on_c, 0, 65, 81
3, 50940, Note_on_c, 0, 70, 81
3, 50940, Note_on_c, 0, 43, 65
3, 50940, Note_on_c, 0, 50, 65
3, 50940, Note_on_c, 0, 53, 65
3, 51120, Note_on_c, 0, 53, 0
3, 51120, Note_on_c, 0, 43, 0
3, 51120, Note_on_c, 0, 62, 0
3, 51120, Note_on_c, 0, 65, 0
3, 51120, Note_on_c, 0, 58, 0
3, 51120, Note_on_c, 0, 50, 0
3, 51120, Note_on_c, 0, 70, 0
3, 51120, Note_on_c, 0, 58, 79
3, 51120, Note_on_c, 0, 62, 79
3, 51120, Note_on_c, 0, 65, 79
3, 51120, Note_on_c, 0, 70, 79
3, 51120, Note_on_c, 0, 43, 62
3, 51120, Note_on_c, 0, 50, 62
3, 51120, Note_on_c, 0, 53, 62
3, 51480, Note_on_c, 0, 53, 0
3, 51480, Note_on_c, 0, 43, 0
3, 51480, Note_on_c, 0, 62, 0
3, 51480, Note_on_c, 0, 65, 0
3, 51480, Note_on_c, 0, 58, 0
3, 51480, Note_on_c, 0, 50, 0
3, 51480, Note_on_c, 0, 70, 0
3, 51480, Note_on_c, 0, 58, 76
3, 51480, Note_on_c, 0, 62, 76
3, 51480, Note_on_c, 0, 65, 76
3, 51480, Note_on_c, 0, 70, 76
3, 51480, Note_on_c, 0, 43, 69
3, 51480, Note_on_c, 0, 50, 69
3, 51480, Note_on_c, 0, 53, 69
3, 51660, Note_on_c, 0, 53, 0
3, 51660, Note_on_c, 0, 43, 0
3, 51660, Note_on_c, 0, 62, 0
3, 51660, Note_on_c, 0, 65, 0
3, 51660, Note_on_c, 0, 58, 0
3, 51660, Note_on_c, 0, 50, 0
3, 51660, Note_on_c, 0, 70, 0
3, 51660, Note_on_c, 0, 58, 77
3, 51660, Note_on_c, 0, 62, 77
3, 51660, Note_on_c, 0, 65, 77
3, 51660, Note_on_c, 0, 70, 77
3, 51660, Note_on_c, 0, 43, 66
3, 51660, Note_on_c, 0, 50, 66
3, 51660, Note_on_c, 0, 53, 66
3, 51840, Note_on_c, 0, 53, 0
3, 51840, Note_on_c, 0, 43, 0
3, 51840, Note_on_c, 0, 62, 0
3, 51840, Note_on_c, 0, 65, 0
3, 51840, Note_on_c, 0, 58, 0
3, 51840, Note_on_c, 0, 50, 0
3, 51840, Note_on_c, 0, 70, 0
3, 51840, Note_on_c, 0, 57, 73
3, 51840, Note_on_c, 0, 61, 73
3, 51840, Note_on_c, 0, 64, 73
3, 51840, Note_on_c, 0, 69, 73
3, 51840, Note_on_c, 0, 45, 69
3, 51840, Note_on_c, 0, 52, 69
3, 51840, Note_on_c, 0, 55, 69
3, 52200, Note_on_c, 0, 55, 0
3, 52200, Note_on_c, 0, 45, 0
3, 52200, Note_on_c, 0, 61, 0
3, 52200, Note_on_c, 0, 64, 0
3, 52200, Note_on_c, 0, 57, 0
3, 52200, Note_on_c, 0, 52, 0
3, 52200, Note_on_c, 0, 69, 0
3, 52200, Note_on_c, 0, 55, 68
3, 52380, Note_on_c, 0, 55, 0
3, 52380, Note_on_c, 0, 61, 86
3, 52560, Note_on_c, 0, 61, 0
3, 52560, Note_on_c, 0, 35, 62
3, 52560, Note_on_c, 0, 47, 62
3, 52740, Note_on_c, 0, 57, 74
3, 52920, Note_on_c, 0, 57, 0
3, 52920, Note_on_c, 0, 47, 0
3, 52920, Note_on_c, 0, 35, 0
3, 52920, Note_on_c, 0, 69, 96
3, 53100, Note_on_c, 0, 69, 0
3, 53100, Note_on_c, 0, 62, 64
3, 53280, Note_on_c, 0, 62, 0
3, 53280, Note_on_c, 0, 36, 58
3, 53280, Note_on_c, 0, 48, 58
3, 53460, Note_on_c, 0, 57, 67
3, 53640, Note_on_c, 0, 57, 0
3, 53640, Note_on_c, 0, 48, 0
3, 53640, Note_on_c, 0, 36, 0
3, 53640, Note_on_c, 0, 63, 95
3, 53820, Note_on_c, 0, 63, 0
3, 53820, Note_on_c, 0, 69, 89
3, 54000, Note_on_c, 0, 69, 0
3, 54000, Note_on_c, 0, 37, 59
3, 54000, Note_on_c, 0, 49, 59
3, 54180, Note_on_c, 0, 57, 69
3, 54360, Note_on_c, 0, 57, 0
3, 54360, Note_on_c, 0, 49, 0
3, 54360, Note_on_c, 0, 37, 0
3, 54360, Note_on_c, 0, 67, 104
3, 54540, Note_on_c, 0, 67, 0
3, 54540, Note_on_c, 0, 64, 79
3, 54720, Note_on_c, 0, 64, 0
3, 54720, Note_on_c, 0, 57, 106
3, 54720, Note_on_c, 0, 65, 106
3, 54720, Note_on_c, 0, 69, 106
3, 54720, Note_on_c, 0, 29, 55
3, 54720, Note_on_c, 0, 41, 55
3, 55080, Note_on_c, 0, 41, 0
3, 55080, Note_on_c, 0, 69, 0
3, 55080, Note_on_c, 0, 57, 0
3, 55080, Note_on_c, 0, 65, 0
3, 55080, Note_on_c, 0, 29, 0
3, 55080, Note_on_c, 0, 57, 79
3, 55080, Note_on_c, 0, 60, 79
3, 55080, Note_on_c, 0, 64, 79
3, 55080, Note_on_c, 0, 41, 82
3, 55080, Note_on_c, 0, 48, 82
3, 55080, Note_on_c, 0, 52, 82
3, 55260, Note_on_c, 0, 52, 0
3, 55260, Note_on_c, 0, 60, 0
3, 55260, Note_on_c, 0, 64, 0
3, 55260, Note_on_c, 0, 57, 0
3, 55260, Note_on_c, 0, 48, 0
3, 55260, Note_on_c, 0, 41, 0
3, 55260, Note_on_c, 0, 57, 92
3, 55260, Note_on_c, 0, 60, 92
3, 55260, Note_on_c, 0, 64, 92
3, 55260, Note_on_c, 0, 41, 67
3, 55260, Note_on_c, 0, 48, 67
3, 55260, Note_on_c, 0, 52, 67
3, 55440, Note_on_c, 0, 52, 0
3, 55440, Note_on_c, 0, 60, 0
3, 55440, Note_on_c, 0, 64, 0
3, 55440, Note_on_c, 0, 57, 0
3, 55440, Note_on_c, 0, 48, 0
3, 55440, Note_on_c, 0, 41, 0
3, 55440, Note_on_c, 0, 57, 111
3, 55440, Note_on_c, 0, 60, 111
3, 55440, Note_on_c, 0, 64, 111
3, 55440, Note_on_c, 0, 69, 111
3, 55440, Note_on_c, 0, 41, 68
3, 55440, Note_on_c, 0, 48, 68
3, 55440, Note_on_c, 0, 52, 68
3, 55800, Note_on_c, 0, 52, 0
3, 55800, Note_on_c, 0, 41, 0
3, 55800, Note_on_c, 0, 60, 0
3, 55800, Note_on_c, 0, 64, 0
3, 55800, Note_on_c, 0, 57, 0
3, 55800, Note_on_c, 0, 48, 0
3, 55800, Note_on_c, 0, 69, 0
3, 55800, Note_on_c, 0, 57, 93
3, 55800, Note_on_c, 0, 60, 93
3, 55800, Note_on_c, 0, 64, 93
3, 55800, Note_on_c, 0, 69, 93
3, 55800, Note_on_c, 0, 41, 70
3, 55800, Note_on_c, 0, 48, 70
3, 55800, Note_on_c, 0, 52, 70
3, 55980, Note_on_c, 0, 52, 0
3, 55980, Note_on_c, 0, 41, 0
3, 55980, Note_on_c, 0, 60, 0
3, 55980, Note_on_c, 0, 64, 0
3, 55980, Note_on_c, 0, 57, 0
3, 55980, Note_on_c, 0, 48, 0
3, 55980, Note_on_c, 0, 69, 0
3, 55980, Note_on_c, 0, 57, 89
3, 55980, Note_on_c, 0, 60, 89
3, 55980, Note_on_c, 0, 64, 89
3, 55980, Note_on_c, 0, 69, 89
3, 55980, Note_on_c, 0, 41, 67
3, 55980, Note_on_c, 0, 48, 67
3, 55980, Note_on_c, 0, 52, 67
3, 56160, Note_on_c, 0, 52, 0
3, 56160, Note_on_c, 0, 41, 0
3, 56160, Note_on_c, 0, 60, 0
3, 56160, Note_on_c, 0, 64, 0
3, 56160, Note_on_c, 0, 57, 0
3, 56160, Note_on_c, 0, 48, 0
3, 56160, Note_on_c, 0, 69, 0
3, 56160, Note_on_c, 0, 57, 92
3, 56160, Note_on_c, 0, 60, 92
3, 56160, Note_on_c, 0, 64, 92
3, 56160, Note_on_c, 0, 69, 92
3, 56160, Note_on_c, 0, 41, 66
3, 56160, Note_on_c, 0, 48, 66
3, 56160, Note_on_c, 0, 52, 66
3, 56520, Note_on_c, 0, 52, 0
3, 56520, Note_on_c, 0, 41, 0
3, 56520, Note_on_c, 0, 60, 0
3, 56520, Note_on_c, 0, 64, 0
3, 56520, Note_on_c, 0, 57, 0
3, 56520, Note_on_c, 0, 48, 0
3, 56520, Note_on_c, 0, 69, 0
3, 56520, Note_on_c, 0, 57, 91
3, 56520, Note_on_c, 0, 60, 91
3, 56520, Note_on_c, 0, 64, 91
3, 56520, Note_on_c, 0, 69, 91
3, 56520, Note_on_c, 0, 41, 66
3, 56520, Note_on_c, 0, 48, 66
3, 56520, Note_on_c, 0, 52, 66
3, 56700, Note_on_c, 0, 52, 0
3, 56700, Note_on_c, 0, 41, 0
3, 56700, Note_on_c, 0, 60, 0
3, 56700, Note_on_c, 0, 64, 0
3, 56700, Note_on_c, 0, 57, 0
3, 56700, Note_on_c, 0, 48, 0
3, 56700, Note_on_c, 0, 69, 0
3, 56700, Note_on_c, 0, 57, 94
3, 56700, Note_on_c, 0, 60, 94
3, 56700, Note_on_c, 0, 64, 94
3, 56700, Note_on_c, 0, 69, 94
3, 56700, Note_on_c, 0, 41, 64
3, 56700, Note_on_c, 0, 48, 64
3, 56700, Note_on_c, 0, 52, 64
3, 56880, Note_on_c, 0, 52, 0
3, 56880, Note_on_c, 0, 41, 0
3, 56880, Note_on_c, 0, 60, 0
3, 56880, Note_on_c, 0, 64, 0
3, 56880, Note_on_c, 0, 57, 0
3, 56880, Note_on_c, 0, 48, 0
3, 56880, Note_on_c, 0, 69, 0
3, 56880, Note_on_c, 0, 57, 92
3, 56880, Note_on_c, 0, 60, 92
3, 56880, Note_on_c, 0, 64, 92
3, 56880, Note_on_c, 0, 69, 92
3, 56880, Note_on_c, 0, 41, 68
3, 56880, Note_on_c, 0, 48, 68
3, 56880, Note_on_c, 0, 52, 68
3, 57240, Note_on_c, 0, 52, 0
3, 57240, Note_on_c, 0, 41, 0
3, 57240, Note_on_c, 0, 60, 0
3, 57240, Note_on_c, 0, 64, 0
3, 57240, Note_on_c, 0, 57, 0
3, 57240, Note_on_c, 0, 48, 0
3, 57240, Note_on_c, 0, 69, 0
3, 57240, Note_on_c, 0, 57, 93
3, 57240, Note_on_c, 0, 60, 93
3, 57240, Note_on_c, 0, 64, 93
3, 57240, Note_on_c, 0, 69, 93
3, 57240, Note_on_c, 0, 41, 66
3, 57240, Note_on_c, 0, 48, 66
3, 57240, Note_on_c, 0, 52, 66
3, 57420, Note_on_c, 0, 52, 0
3, 57420, Note_on_c, 0, 41, 0
3, 57420, Note_on_c, 0, 60, 0
3, 57420, Note_on_c, 0, 64, 0
3, 57420, Note_on_c, 0, 57, 0
3, 57420, Note_on_c, 0, 48, 0
3, 57420, Note_on_c, 0, 69, 0
3, 57420, Note_on_c, 0, 57, 92
3, 57420, Note_on_c, 0, 60, 92
3, 57420, Note_on_c, 0, 64, 92
3, 57420, Note_on_c, 0, 69, 92
3, 57420, Note_on_c, 0, 41, 65
3, 57420, Note_on_c, 0, 48, 65
3, 57420, Note_on_c, 0, 52, 65
3, 57600, Note_on_c, 0, 52, 0
3, 57600, Note_on_c, 0, 41, 0
3, 57600, Note_on_c, 0, 60, 0
3, 57600, Note_on_c, 0, 64, 0
3, 57600, Note_on_c, 0, 57, 0
3, 57600, Note_on_c, 0, 48, 0
3, 57600, Note_on_c, 0, 69, 0
3, 57600, Note_on_c, 0, 55, 85
3, 57600, Note_on_c, 0, 59, 85
3, 57600, Note_on_c, 0, 62, 85
3, 57600, Note_on_c, 0, 67, 85
3, 57600, Note_on_c, 0, 43, 66
3, 57600, Note_on_c, 0, 50, 66
3, 57600, Note_on_c, 0, 53, 66
3, 57960, Note_on_c, 0, 53, 0
3, 57960, Note_on_c, 0, 43, 0
3, 57960, Note_on_c, 0, 59, 0
3, 57960, Note_on_c, 0, 62, 0
3, 57960, Note_on_c, 0, 55, 0
3, 57960, Note_on_c, 0, 50, 0
3, 57960, Note_on_c, 0, 67, 0
3, 57960, Note_on_c, 0, 53, 77
3, 58140, Note_on_c, 0, 53, 0
3, 58140, Note_on_c, 0, 59, 95
3, 58320, Note_on_c, 0, 59, 0
3, 58320, Note_on_c, 0, 33, 66
3, 58320, Note_on_c, 0, 45, 66
3, 58500, Note_on_c, 0, 55, 81
3, 58680, Note_on_c, 0, 55, 0
3, 58680, Note_on_c, 0, 45, 0
3, 58680, Note_on_c, 0, 33, 0
3, 58680, Note_on_c, 0, 67, 118
3, 58860, Note_on_c, 0, 67, 0
3, 58860, Note_on_c, 0, 60, 80
3, 59040, Note_on_c, 0, 60, 0
3, 59040, Note_on_c, 0, 34, 74
3, 59040, Note_on_c, 0, 46, 74
3, 59220, Note_on_c, 0, 55, 89
3, 59400, Note_on_c, 0, 55, 0
3, 59400, Note_on_c, 0, 46, 0
3, 59400, Note_on_c, 0, 34, 0
3, 59400, Note_on_c, 0, 61, 86
3, 59580, Note_on_c, 0, 61, 0
3, 59580, Note_on_c, 0, 67, 83
3, 59760, Note_on_c, 0, 67, 0
3, 59760, Note_on_c, 0, 35, 70
3, 59760, Note_on_c, 0, 47, 70
3, 59940, Note_on_c, 0, 55, 76
3, 60120, Note_on_c, 0, 55, 0
3, 60120, Note_on_c, 0, 47, 0
3, 60120, Note_on_c, 0, 35, 0
3, 60120, Note_on_c, 0, 65, 73
3, 60300, Note_on_c, 0, 65, 0
3, 60300, Note_on_c, 0, 62, 70
3, 60480, Note_on_c, 0, 62, 0
3, 60480, Note_on_c, 0, 32, 65
3, 60480, Note_on_c, 0, 44, 65
3, 60660, Note_on_c, 0, 52, 61
3, 60840, Note_on_c, 0, 52, 0
3, 60840, Note_on_c, 0, 44, 0
3, 60840, Note_on_c, 0, 32, 0
3, 60840, Note_on_c, 0, 62, 82
3, 61020, Note_on_c, 0, 62, 0
3, 61020, Note_on_c, 0, 59, 67
3, 61200, Note_on_c, 0, 59, 0
3, 61200, Note_on_c, 0, 33, 76
3, 61200, Note_on_c, 0, 45, 76
3, 61380, Note_on_c, 0, 52, 56
3, 61560, Note_on_c, 0, 52, 0
3, 61560, Note_on_c, 0, 45, 0
3, 61560, Note_on_c, 0, 33, 0
3, 61560, Note_on_c, 0, 64, 87
3, 61740, Note_on_c, 0, 64, 0
3, 61740, Note_on_c, 0, 60, 62
3, 61920, Note_on_c, 0, 60, 0
3, 62100, Note_on_c, 0, 52, 68
3, 62280, Note_on_c, 0, 52, 0
3, 62280, Note_on_c, 0, 61, 68
3, 62280, Note_on_c, 0, 34, 72
3, 62280, Note_on_c, 0, 46, 72
3, 62460, Note_on_c, 0, 61, 0
3, 62460, Note_on_c, 0, 55, 69
3, 62640, Note_on_c, 0, 55, 0
3, 62640, Note_on_c, 0, 46, 0
3, 62640, Note_on_c, 0, 34, 0
3, 62640, Note_on_c, 0, 35, 84
3, 62640, Note_on_c, 0, 47, 84
3, 62820, Note_on_c, 0, 52, 70
3, 63000, Note_on_c, 0, 52, 0
3, 63000, Note_on_c, 0, 47, 0
3, 63000, Note_on_c, 0, 35, 0
3, 63000, Note_on_c, 0, 62, 71
3, 63000, Note_on_c, 0, 64, 71
3, 63180, Note_on_c, 0, 64, 0
3, 63180, Note_on_c, 0, 62, 0
3, 63180, Note_on_c, 0, 56, 71
3, 63360, Note_on_c, 0, 56, 0
3, 63360, Note_on_c, 0, 36, 71
3, 63360, Note_on_c, 0, 48, 71
3, 63540, Note_on_c, 0, 57, 73
3, 63720, Note_on_c, 0, 57, 0
3, 63720, Note_on_c, 0, 48, 0
3, 63720, Note_on_c, 0, 36, 0
3, 63720, Note_on_c, 0, 67, 73
3, 63720, Note_on_c, 0, 37, 81
3, 63720, Note_on_c, 0, 49, 81
3, 63900, Note_on_c, 0, 67, 0
3, 63900, Note_on_c, 0, 64, 74
3, 64080, Note_on_c, 0, 64, 0
3, 64080, Note_on_c, 0, 49, 0
3, 64080, Note_on_c, 0, 37, 0
3, 64080, Note_on_c, 0, 38, 82
3, 64080, Note_on_c, 0, 50, 82
3, 64260, Note_on_c, 0, 57, 75
3, 64440, Note_on_c, 0, 57, 0
3, 64440, Note_on_c, 0, 50, 0
3, 64440, Note_on_c, 0, 38, 0
3, 64440, Note_on_c, 0, 66, 76
3, 64620, Note_on_c, 0, 66, 0
3, 64620, Note_on_c, 0, 60, 76
3, 64800, Note_on_c, 0, 60, 0
3, 64800, Note_on_c, 0, 40, 71
3, 64800, Note_on_c, 0, 52, 71
3, 64980, Note_on_c, 0, 60, 78
3, 64980, Note_on_c, 0, 65, 78
3, 65160, Note_on_c, 0, 65, 0
3, 65160, Note_on_c, 0, 40, 0
3, 65160, Note_on_c, 0, 52, 0
3, 65160, Note_on_c, 0, 60, 0
3, 65160, Note_on_c, 0, 69, 78
3, 65340, Note_on_c, 0, 69, 0
3, 65340, Note_on_c, 0, 64, 79
3, 65520, Note_on_c, 0, 64, 0
3, 65520, Note_on_c, 0, 41, 71
3, 65520, Note_on_c, 0, 53, 71
3, 65700, Note_on_c, 0, 60, 80
3, 65700, Note_on_c, 0, 63, 80
3, 65880, Note_on_c, 0, 63, 0
3, 65880, Note_on_c, 0, 41, 0
3, 65880, Note_on_c, 0, 53, 0
3, 65880, Note_on_c, 0, 60, 0
3, 65880, Note_on_c, 0, 72, 81
3, 65880, Note_on_c, 0, 42, 80
3, 65880, Note_on_c, 0, 54, 80
3, 66060, Note_on_c, 0, 72, 0
3, 66060, Note_on_c, 0, 68, 81
3, 66240, Note_on_c, 0, 68, 0
3, 66240, Note_on_c, 0, 54, 0
3, 66240, Note_on_c, 0, 42, 0
3, 66240, Note_on_c, 0, 60, 82
3, 66240, Note_on_c, 0, 63, 82
3, 66240, Note_on_c, 0, 67, 82
3, 66240, Note_on_c, 0, 43, 86
3, 66240, Note_on_c, 0, 55, 86
3, 66600, Note_on_c, 0, 55, 0
3, 66600, Note_on_c, 0, 67, 0
3, 66600, Note_on_c, 0, 60, 0
3, 66600, Note_on_c, 0, 63, 0
3, 66600, Note_on_c, 0, 43, 0
3, 66600, Note_on_c, 0, 60, 83
3, 66600, Note_on_c, 0, 63, 83
3, 66600, Note_on_c, 0, 66, 83
3, 66600, Note_on_c, 0, 44, 82
3, 66600, Note_on_c, 0, 51, 82
3, 66600, Note_on_c, 0, 54, 82
3, 67233, Note_on_c, 0, 54, 0
3, 67233, Note_on_c, 0, 63, 0
3, 67233, Note_on_c, 0, 66, 0
3, 67233, Note_on_c, 0, 60, 0
3, 67233, Note_on_c, 0, 51, 0
3, 67233, Note_on_c, 0, 44, 0
3, 67320, Note_on_c, 0, 59, 86
3, 67320, Note_on_c, 0, 63, 86
3, 67320, Note_on_c, 0, 66, 86
3, 67320, Note_on_c, 0, 71, 86
3, 67320, Note_on_c, 0, 45, 95
3, 67320, Note_on_c, 0, 51, 95
3, 67320, Note_on_c, 0, 54, 95
3, 68040, Note_on_c, 0, 54, 0
3, 68040, Note_on_c, 0, 45, 0
3, 68040, Note_on_c, 0, 63, 0
3, 68040, Note_on_c, 0, 66, 0
3, 68040, Note_on_c, 0, 59, 0
3, 68040, Note_on_c, 0, 51, 0
3, 68040, Note_on_c, 0, 71, 0
3, 68040, Note_on_c, 0, 58, 88
3, 68040, Note_on_c, 0, 63, 88
3, 68040, Note_on_c, 0, 66, 88
3, 68040, Note_on_c, 0, 70, 88
3, 68040, Note_on_c, 0, 46, 90
3, 68040, Note_on_c, 0, 51, 90
3, 68040, Note_on_c, 0, 54, 90
3, 68673, Note_on_c, 0, 54, 0
3, 68673, Note_on_c, 0, 46, 0
3, 68673, Note_on_c, 0, 51, 0
3, 68760, Note_on_c, 0, 66, 0
3, 68760, Note_on_c, 0, 58, 0
3, 68760, Note_on_c, 0, 63, 0
3, 68760, Note_on_c, 0, 70, 0
3, 68760, Note_on_c, 0, 57, 91
3, 68760, Note_on_c, 0, 59, 91
3, 68760, Note_on_c, 0, 63, 91
3, 68760, Note_on_c, 0, 66, 91
3, 68760, Note_on_c, 0, 71, 91
3, 68760, Note_on_c, 0, 47, 77
3, 68760, Note_on_c, 0, 54, 77
3, 68939, Note_on_c, 0, 54, 0
3, 68939, Note_on_c, 0, 71, 0
3, 68939, Note_on_c, 0, 59, 0
3, 68939, Note_on_c, 0, 63, 0
3, 68939, Note_on_c, 0, 57, 0
3, 68939, Note_on_c, 0, 47, 0
3, 68939, Note_on_c, 0, 66, 0
3, 69120, Note_on_c, 0, 56, 92
3, 69120, Note_on_c, 0, 64, 92
3, 69120, Note_on_c, 0, 68, 92
3, 69120, Note_on_c, 0, 40, 88
3, 69120, Note_on_c, 0, 47, 88
3, 69120, Note_on_c, 0, 52, 88
3, 69299, Note_on_c, 0, 52, 0
3, 69299, Note_on_c, 0, 64, 0
3, 69299, Note_on_c, 0, 68, 0
3, 69299, Note_on_c, 0, 56, 0
3, 69299, Note_on_c, 0, 47, 0
3, 69299, Note_on_c, 0, 40, 0
3, 72000, Note_on_c, 0, 52, 45
3, 72000, Note_on_c, 0, 56, 45
3, 72000, Note_on_c, 0, 40, 80
3, 72000, Note_on_c, 0, 47, 80
3, 72360, Note_on_c, 0, 59, 99
3, 72539, Note_on_c, 0, 59, 0
3, 72720, Note_on_c, 0, 64, 121
3, 72899, Note_on_c, 0, 64, 0
3, 73080, Note_on_c, 0, 62, 100
3, 73259, Note_on_c, 0, 62, 0
3, 73440, Note_on_c, 0, 64, 112
3, 73619, Note_on_c, 0, 64, 0
3, 74160, Note_on_c, 0, 56, 0
3, 74160, Note_on_c, 0, 52, 0
3, 74520, Note_on_c, 0, 40, 0
3, 74520, Note_on_c, 0, 47, 0
3, 74520, Note_on_c, 0, 52, 97
3, 74520, Note_on_c, 0, 55, 97
3, 74520, Note_on_c, 0, 61, 97
3, 74520, Note_on_c, 0, 33, 91
3, 74520, Note_on_c, 0, 45, 91
3, 74699, Note_on_c, 0, 61, 0
3, 74699, Note_on_c, 0, 52, 0
3, 74699, Note_on_c, 0, 55, 0
3, 74880, Note_on_c, 0, 33, 0
3, 74880, Note_on_c, 0, 45, 0
3, 74880, Note_on_c, 0, 50, 110
3, 74880, Note_on_c, 0, 54, 110
3, 74880, Note_on_c, 0, 62, 110
3, 74880, Note_on_c, 0, 38, 90
3, 74880, Note_on_c, 0, 45, 90
3, 75059, Note_on_c, 0, 45, 0
3, 75059, Note_on_c, 0, 62, 0
3, 75059, Note_on_c, 0, 50, 0
3, 75059, Note_on_c, 0, 54, 0
3, 75059, Note_on_c, 0, 38, 0
3, 75240, Note_on_c, 0, 59, 104
3, 75240, Note_on_c, 0, 50, 38
3, 75240, Note_on_c, 0, 31, 86
3, 75240, Note_on_c, 0, 43, 86
3, 75419, Note_on_c, 0, 43, 0
3, 75419, Note_on_c, 0, 31, 0
3, 75419, Note_on_c, 0, 59, 0
3, 75420, Note_on_c, 0, 50, 0
3, 75420, Note_on_c, 0, 52, 43
3, 75600, Note_on_c, 0, 52, 0
3, 75600, Note_on_c, 0, 57, 103
3, 75600, Note_on_c, 0, 50, 59
3, 75600, Note_on_c, 0, 30, 91
3, 75600, Note_on_c, 0, 42, 91
3, 75779, Note_on_c, 0, 42, 0
3, 75779, Note_on_c, 0, 30, 0
3, 75779, Note_on_c, 0, 57, 0
3, 75960, Note_on_c, 0, 55, 108
3, 75960, Note_on_c, 0, 35, 102
3, 75960, Note_on_c, 0, 47, 102
3, 76139, Note_on_c, 0, 47, 0
3, 76139, Note_on_c, 0, 35, 0
3, 76139, Note_on_c, 0, 55, 0
3, 76320, Note_on_c, 0, 54, 110
3, 76320, Note_on_c, 0, 57, 110
3, 76320, Note_on_c, 0, 33, 94
3, 76320, Note_on_c, 0, 45, 94
3, 76499, Note_on_c, 0, 45, 0
3, 76499, Note_on_c, 0, 57, 0
3, 76499, Note_on_c, 0, 33, 0
3, 76499, Note_on_c, 0, 54, 0
3, 76680, Note_on_c, 0, 59, 112
3, 76680, Note_on_c, 0, 38, 87
3, 76859, Note_on_c, 0, 59, 0
3, 76860, Note_on_c, 0, 38, 0
3, 76860, Note_on_c, 0, 40, 98
3, 77040, Note_on_c, 0, 40, 0
3, 77040, Note_on_c, 0, 57, 112
3, 77040, Note_on_c, 0, 42, 91
3, 77219, Note_on_c, 0, 57, 0
3, 77400, Note_on_c, 0, 42, 0
3, 77400, Note_on_c, 0, 55, 111
3, 77400, Note_on_c, 0, 59, 111
3, 77400, Note_on_c, 0, 43, 96
3, 77579, Note_on_c, 0, 43, 0
3, 77579, Note_on_c, 0, 59, 0
3, 77579, Note_on_c, 0, 55, 0
3, 77760, Note_on_c, 0, 57, 100
3, 77760, Note_on_c, 0, 42, 89
3, 77939, Note_on_c, 0, 42, 0
3, 77939, Note_on_c, 0, 57, 0
3, 78120, Note_on_c, 0, 55, 110
3, 78120, Note_on_c, 0, 59, 110
3, 78120, Note_on_c, 0, 38, 86
3, 78299, Note_on_c, 0, 59, 0
3, 78299, Note_on_c, 0, 55, 0
3, 78300, Note_on_c, 0, 38, 0
3, 78300, Note_on_c, 0, 40, 93
3, 78480, Note_on_c, 0, 40, 0
3, 78480, Note_on_c, 0, 57, 107
3, 78480, Note_on_c, 0, 42, 95
3, 78659, Note_on_c, 0, 42, 0
3, 78659, Note_on_c, 0, 57, 0
3, 78840, Note_on_c, 0, 59, 111
3, 78840, Note_on_c, 0, 43, 94
3, 78960, Note_on_c, 0, 59, 0
3, 78960, Note_on_c, 0, 55, 102
3, 79019, Note_on_c, 0, 43, 0
3, 79079, Note_on_c, 0, 55, 0
3, 79079, Note_on_c, 0, 59, 111
3, 79200, Note_on_c, 0, 59, 0
3, 79200, Note_on_c, 0, 50, 0
3, 79200, Note_on_c, 0, 57, 108
3, 79200, Note_on_c, 0, 50, 45
3, 79200, Note_on_c, 0, 45, 98
3, 79379, Note_on_c, 0, 45, 0
3, 79379, Note_on_c, 0, 57, 0
3, 79560, Note_on_c, 0, 58, 114
3, 79560, Note_on_c, 0, 46, 95
3, 79739, Note_on_c, 0, 46, 0
3, 79739, Note_on_c, 0, 58, 0
3, 79920, Note_on_c, 0, 59, 120
3, 79920, Note_on_c, 0, 47, 99
3, 80099, Note_on_c, 0, 47, 0
3, 80099, Note_on_c, 0, 59, 0
3, 80149, Note_on_c, 0, 50, 0
3, 80280, Note_on_c, 0, 50, 122
3, 80280, Note_on_c, 0, 55, 122
3, 80280, Note_on_c, 0, 59, 122
3, 80280, Note_on_c, 0, 47, 97
3, 80459, Note_on_c, 0, 47, 0
3, 80459, Note_on_c, 0, 50, 0
3, 80459, Note_on_c, 0, 55, 0
3, 80459, Note_on_c, 0, 59, 0
3, 80640, Note_on_c, 0, 52, 122
3, 80640, Note_on_c, 0, 55, 122
3, 80640, Note_on_c, 0, 48, 95
3, 80819, Note_on_c, 0, 48, 0
3, 80819, Note_on_c, 0, 55, 0
3, 80819, Note_on_c, 0, 52, 0
3, 83160, Note_on_c, 0, 55, 79
3, 83339, Note_on_c, 0, 55, 0
3, 83520, Note_on_c, 0, 60, 103
3, 83520, Note_on_c, 0, 52, 75
3, 83520, Note_on_c, 0, 40, 82
3, 83520, Note_on_c, 0, 47, 82
3, 83520, Note_on_c, 0, 52, 82
3, 83699, Note_on_c, 0, 60, 0
3, 83880, Note_on_c, 0, 58, 87
3, 84059, Note_on_c, 0, 58, 0
3, 84240, Note_on_c, 0, 60, 99
3, 84419, Note_on_c, 0, 60, 0
3, 84600, Note_on_c, 0, 57, 89
3, 84779, Note_on_c, 0, 57, 0
3, 84960, Note_on_c, 0, 52, 0
3, 84960, Note_on_c, 0, 52, 107
3, 84960, Note_on_c, 0, 58, 107
3, 85909, Note_on_c, 0, 58, 0
3, 85909, Note_on_c, 0, 52, 0
3, 86040, Note_on_c, 0, 47, 0
3, 86040, Note_on_c, 0, 40, 0
3, 86040, Note_on_c, 0, 52, 0
3, 86040, Note_on_c, 0, 48, 88
3, 86040, Note_on_c, 0, 52, 88
3, 86040, Note_on_c, 0, 57, 88
3, 86040, Note_on_c, 0, 29, 83
3, 86040, Note_on_c, 0, 41, 83
3, 86219, Note_on_c, 0, 57, 0
3, 86219, Note_on_c, 0, 48, 0
3, 86219, Note_on_c, 0, 52, 0
3, 86400, Note_on_c, 0, 29, 0
3, 86400, Note_on_c, 0, 41, 0
3, 86400, Note_on_c, 0, 46, 95
3, 86400, Note_on_c, 0, 50, 95
3, 86400, Note_on_c, 0, 58, 95
3, 86400, Note_on_c, 0, 34, 90
3, 86400, Note_on_c, 0, 41, 90
3, 86579, Note_on_c, 0, 41, 0
3, 86579, Note_on_c, 0, 58, 0
3, 86579, Note_on_c, 0, 46, 0
3, 86579, Note_on_c, 0, 50, 0
3, 86579, Note_on_c, 0, 34, 0
3, 86760, Note_on_c, 0, 55, 86
3, 86760, Note_on_c, 0, 46, 66
3, 86760, Note_on_c, 0, 27, 86
3, 86760, Note_on_c, 0, 39, 86
3, 86939, Note_on_c, 0, 39, 0
3, 86939, Note_on_c, 0, 27, 0
3, 86939, Note_on_c, 0, 55, 0
3, 86940, Note_on_c, 0, 46, 0
3, 86940, Note_on_c, 0, 48, 71
3, 87120, Note_on_c, 0, 48, 0
3, 87120, Note_on_c, 0, 53, 85
3, 87120, Note_on_c, 0, 46, 71
3, 87120, Note_on_c, 0, 26, 88
3, 87120, Note_on_c, 0, 38, 88
3, 87299, Note_on_c, 0, 38, 0
3, 87299, Note_on_c, 0, 26, 0
3, 87299, Note_on_c, 0, 53, 0
3, 87480, Note_on_c, 0, 51, 88
3, 87480, Note_on_c, 0, 31, 98
3, 87480, Note_on_c, 0, 43, 98
3, 87659, Note_on_c, 0, 43, 0
3, 87659, Note_on_c, 0, 31, 0
3, 87659, Note_on_c, 0, 51, 0
3, 87840, Note_on_c, 0, 50, 92
3, 87840, Note_on_c, 0, 53, 92
3, 87840, Note_on_c, 0, 29, 88
3, 87840, Note_on_c, 0, 41, 88
3, 88019, Note_on_c, 0, 41, 0
3, 88019, Note_on_c, 0, 53, 0
3, 88019, Note_on_c, 0, 29, 0
3, 88019, Note_on_c, 0, 50, 0
3, 88200, Note_on_c, 0, 55, 92
3, 88200, Note_on_c, 0, 34, 82
3, 88379, Note_on_c, 0, 55, 0
3, 88380, Note_on_c, 0, 34, 0
3, 88380, Note_on_c, 0, 36, 97
3, 88560, Note_on_c, 0, 36, 0
3, 88560, Note_on_c, 0, 53, 91
3, 88560, Note_on_c, 0, 38, 94
3, 88739, Note_on_c, 0, 53, 0
3, 88920, Note_on_c, 0, 38, 0
3, 88920, Note_on_c, 0, 51, 90
3, 88920, Note_on_c, 0, 55, 90
3, 88920, Note_on_c, 0, 39, 93
3, 89099, Note_on_c, 0, 55, 0
3, 89099, Note_on_c, 0, 51, 0
3, 89280, Note_on_c, 0, 39, 0
3, 89280, Note_on_c, 0, 53, 91
3, 89280, Note_on_c, 0, 38, 90
3, 89459, Note_on_c, 0, 53, 0
3, 89640, Note_on_c, 0, 38, 0
3, 89640, Note_on_c, 0, 51, 97
3, 89640, Note_on_c, 0, 55, 97
3, 89640, Note_on_c, 0, 34, 89
3, 89819, Note_on_c, 0, 55, 0
3, 89819, Note_on_c, 0, 51, 0
3, 89820, Note_on_c, 0, 34, 0
3, 89820, Note_on_c, 0, 36, 99
3, 90000, Note_on_c, 0, 36, 0
3, 90000, Note_on_c, 0, 53, 90
3, 90000, Note_on_c, 0, 38, 99
3, 90179, Note_on_c, 0, 53, 0
3, 90360, Note_on_c, 0, 38, 0
3, 90360, Note_on_c, 0, 55, 93
3, 90360, Note_on_c, 0, 39, 92
3, 90480, Note_on_c, 0, 55, 0
3, 90480, Note_on_c, 0, 51, 89
3, 90599, Note_on_c, 0, 51, 0
3, 90599, Note_on_c, 0, 55, 93
3, 90720, Note_on_c, 0, 55, 0
3, 90720, Note_on_c, 0, 39, 0
3, 90720, Note_on_c, 0, 46, 0
3, 90720, Note_on_c, 0, 53, 92
3, 90720, Note_on_c, 0, 46, 71
3, 90720, Note_on_c, 0, 41, 94
3, 90899, Note_on_c, 0, 53, 0
3, 91080, Note_on_c, 0, 41, 0
3, 91080, Note_on_c, 0, 54, 99
3, 91080, Note_on_c, 0, 42, 95
3, 91259, Note_on_c, 0, 54, 0
3, 91440, Note_on_c, 0, 42, 0
3, 91440, Note_on_c, 0, 55, 105
3, 91440, Note_on_c, 0, 43, 97
3, 91619, Note_on_c, 0, 55, 0
3, 91669, Note_on_c, 0, 46, 0
3, 91800, Note_on_c, 0, 43, 0
3, 91800, Note_on_c, 0, 56, 111
3, 91800, Note_on_c, 0, 44, 93
3, 91979, Note_on_c, 0, 56, 0
3, 92160, Note_on_c, 0, 44, 0
3, 92160, Note_on_c, 0, 52, 118
3, 92160, Note_on_c, 0, 57, 118
3, 92160, Note_on_c, 0, 45, 94
3, 92339, Note_on_c, 0, 57, 0
3, 92339, Note_on_c, 0, 52, 0
3, 92520, Note_on_c, 0, 45, 0
3, 92520, Note_on_c, 0, 57, 116
3, 92700, Note_on_c, 0, 57, 0
3, 92700, Note_on_c, 0, 60, 121
3, 92880, Note_on_c, 0, 60, 0
3, 92880, Note_on_c, 0, 35, 88
3, 92880, Note_on_c, 0, 47, 88
3, 93060, Note_on_c, 0, 57, 104
3, 93240, Note_on_c, 0, 57, 0
3, 93240, Note_on_c, 0, 47, 0
3, 93240, Note_on_c, 0, 35, 0
3, 93240, Note_on_c, 0, 65, 121
3, 93420, Note_on_c, 0, 65, 0
3, 93420, Note_on_c, 0, 62, 113
3, 93600, Note_on_c, 0, 62, 0
3, 93600, Note_on_c, 0, 36, 85
3, 93600, Note_on_c, 0, 48, 85
3, 93780, Note_on_c, 0, 57, 105
3, 93960, Note_on_c, 0, 57, 0
3, 93960, Note_on_c, 0, 48, 0
3, 93960, Note_on_c, 0, 36, 0
3, 93960, Note_on_c, 0, 67, 121
3, 94140, Note_on_c, 0, 67, 0
3, 94140, Note_on_c, 0, 64, 114
3, 94320, Note_on_c, 0, 64, 0
3, 94320, Note_on_c, 0, 37, 78
3, 94320, Note_on_c, 0, 49, 78
3, 94500, Note_on_c, 0, 57, 108
3, 94680, Note_on_c, 0, 57, 0
3, 94680, Note_on_c, 0, 49, 0
3, 94680, Note_on_c, 0, 37, 0
3, 94680, Note_on_c, 0, 67, 121
3, 94680, Note_on_c, 0, 69, 121
3, 94860, Note_on_c, 0, 69, 0
3, 94860, Note_on_c, 0, 67, 0
3, 94860, Note_on_c, 0, 64, 111
3, 95040, Note_on_c, 0, 64, 0
3, 95040, Note_on_c, 0, 38, 79
3, 95040, Note_on_c, 0, 50, 79
3, 95220, Note_on_c, 0, 59, 105
3, 95400, Note_on_c, 0, 59, 0
3, 95400, Note_on_c, 0, 50, 0
3, 95400, Note_on_c, 0, 38, 0
3, 95400, Note_on_c, 0, 65, 121
3, 95400, Note_on_c, 0, 69, 121
3, 95580, Note_on_c, 0, 69, 0
3, 95580, Note_on_c, 0, 65, 0
3, 95580, Note_on_c, 0, 60, 93
3, 95760, Note_on_c, 0, 60, 0
3, 95760, Note_on_c, 0, 40, 84
3, 95760, Note_on_c, 0, 52, 84
3, 95940, Note_on_c, 0, 60, 102
3, 96120, Note_on_c, 0, 60, 0
3, 96120, Note_on_c, 0, 52, 0
3, 96120, Note_on_c, 0, 40, 0
3, 96120, Note_on_c, 0, 72, 121
3, 96120, Note_on_c, 0, 41, 92
3, 96120, Note_on_c, 0, 53, 92
3, 96300, Note_on_c, 0, 72, 0
3, 96300, Note_on_c, 0, 69, 112
3, 96480, Note_on_c, 0, 69, 0
3, 96480, Note_on_c, 0, 53, 0
3, 96480, Note_on_c, 0, 41, 0
3, 96480, Note_on_c, 0, 42, 93
3, 96480, Note_on_c, 0, 54, 93
3, 96660, Note_on_c, 0, 64, 119
3, 96840, Note_on_c, 0, 64, 0
3, 96840, Note_on_c, 0, 54, 0
3, 96840, Note_on_c, 0, 42, 0
3, 96840, Note_on_c, 0, 72, 120
3, 97020, Note_on_c, 0, 72, 0
3, 97020, Note_on_c, 0, 69, 121
3, 97200, Note_on_c, 0, 69, 0
3, 97200, Note_on_c, 0, 43, 86
3, 97200, Note_on_c, 0, 55, 86
3, 97380, Note_on_c, 0, 60, 122
3, 97560, Note_on_c, 0, 60, 0
3, 97560, Note_on_c, 0, 55, 0
3, 97560, Note_on_c, 0, 43, 0
3, 97560, Note_on_c, 0, 72, 122
3, 97740, Note_on_c, 0, 72, 0
3, 97740, Note_on_c, 0, 64, 122
3, 97920, Note_on_c, 0, 64, 0
3, 97920, Note_on_c, 0, 44, 83
3, 97920, Note_on_c, 0, 56, 83
3, 98100, Note_on_c, 0, 62, 122
3, 98280, Note_on_c, 0, 62, 0
3, 98280, Note_on_c, 0, 56, 0
3, 98280, Note_on_c, 0, 44, 0
3, 98280, Note_on_c, 0, 71, 122
3, 98460, Note_on_c, 0, 71, 0
3, 98460, Note_on_c, 0, 65, 122
3, 98640, Note_on_c, 0, 65, 0
3, 98640, Note_on_c, 0, 45, 85
3, 98640, Note_on_c, 0, 57, 85
3, 98820, Note_on_c, 0, 60, 122
3, 99000, Note_on_c, 0, 60, 0
3, 99000, Note_on_c, 0, 57, 0
3, 99000, Note_on_c, 0, 45, 0
3, 99000, Note_on_c, 0, 69, 122
3, 99180, Note_on_c, 0, 69, 0
3, 99180, Note_on_c, 0, 64, 122
3, 99360, Note_on_c, 0, 64, 0
3, 99360, Note_on_c, 0, 46, 81
3, 99360, Note_on_c, 0, 58, 81
3, 99540, Note_on_c, 0, 55, 122
3, 99720, Note_on_c, 0, 55, 0
3, 99720, Note_on_c, 0, 58, 0
3, 99720, Note_on_c, 0, 46, 0
3, 99720, Note_on_c, 0, 67, 122
3, 99900, Note_on_c, 0, 67, 0
3, 99900, Note_on_c, 0, 64, 122
3, 100080, Note_on_c, 0, 64, 0
3, 100080, Note_on_c, 0, 47, 82
3, 100080, Note_on_c, 0, 55, 82
3, 100260, Note_on_c, 0, 59, 122
3, 100440, Note_on_c, 0, 59, 0
3, 100440, Note_on_c, 0, 55, 0
3, 100440, Note_on_c, 0, 47, 0
3, 100440, Note_on_c, 0, 67, 122
3, 100440, Note_on_c, 0, 48, 94
3, 100440, Note_on_c, 0, 57, 94
3, 100620, Note_on_c, 0, 67, 0
3, 100620, Note_on_c, 0, 64, 122
3, 100800, Note_on_c, 0, 64, 0
3, 100800, Note_on_c, 0, 57, 0
3, 100800, Note_on_c, 0, 48, 0
3, 100800, Note_on_c, 0, 47, 112
3, 100980, Note_on_c, 0, 55, 110
3, 101160, Note_on_c, 0, 55, 0
3, 101160, Note_on_c, 0, 47, 0
3, 101160, Note_on_c, 0, 64, 121
3, 101160, Note_on_c, 0, 55, 85
3, 101340, Note_on_c, 0, 55, 0
3, 101340, Note_on_c, 0, 64, 0
3, 101340, Note_on_c, 0, 59, 114
3, 101520, Note_on_c, 0, 59, 0
3, 101520, Note_on_c, 0, 35, 111
3, 101520, Note_on_c, 0, 47, 111
3, 101700, Note_on_c, 0, 55, 109
3, 101880, Note_on_c, 0, 55, 0
3, 101880, Note_on_c, 0, 47, 0
3, 101880, Note_on_c, 0, 35, 0
3, 101880, Note_on_c, 0, 59, 121
3, 102060, Note_on_c, 0, 59, 0
3, 102060, Note_on_c, 0, 64, 121
3, 102240, Note_on_c, 0, 64, 0
3, 102240, Note_on_c, 0, 57, 83
3, 102420, Note_on_c, 0, 57, 0
3, 102420, Note_on_c, 0, 57, 107
3, 102600, Note_on_c, 0, 57, 0
3, 102600, Note_on_c, 0, 60, 121
3, 102780, Note_on_c, 0, 60, 0
3, 102780, Note_on_c, 0, 66, 121
3, 102960, Note_on_c, 0, 66, 0
3, 102960, Note_on_c, 0, 59, 111
3, 102960, Note_on_c, 0, 35, 80
3, 102960, Note_on_c, 0, 47, 80
3, 103140, Note_on_c, 0, 59, 0
3, 103140, Note_on_c, 0, 63, 121
3, 103320, Note_on_c, 0, 63, 0
3, 103320, Note_on_c, 0, 47, 0
3, 103320, Note_on_c, 0, 35, 0
3, 103320, Note_on_c, 0, 59, 121
3, 103320, Note_on_c, 0, 63, 121
3, 103500, Note_on_c, 0, 63, 0
3, 103500, Note_on_c, 0, 59, 0
3, 103500, Note_on_c, 0, 67, 121
3, 103680, Note_on_c, 0, 67, 0
3, 103680, Note_on_c, 0, 59, 114
3, 103680, Note_on_c, 0, 64, 114
3, 103680, Note_on_c, 0, 52, 86
3, 103680, Note_on_c, 0, 55, 86
3, 104040, Note_on_c, 0, 55, 0
3, 104040, Note_on_c, 0, 59, 0
3, 104040, Note_on_c, 0, 64, 0
3, 104040, Note_on_c, 0, 52, 0
3, 104040, Note_on_c, 0, 55, 119
3, 104040, Note_on_c, 0, 64, 119
3, 104040, Note_on_c, 0, 67, 119
3, 104040, Note_on_c, 0, 40, 75
3, 104129, Note_on_c, 0, 67, 0
3, 104129, Note_on_c, 0, 55, 0
3, 104129, Note_on_c, 0, 64, 0
3, 104219, Note_on_c, 0, 40, 0
3, 104220, Note_on_c, 0, 55, 115
3, 104220, Note_on_c, 0, 64, 115
3, 104220, Note_on_c, 0, 67, 115
3, 104309, Note_on_c, 0, 67, 0
3, 104309, Note_on_c, 0, 64, 0
3, 104309, Note_on_c, 0, 55, 0
3, 104400, Note_on_c, 0, 55, 111
3, 104400, Note_on_c, 0, 64, 111
3, 104400, Note_on_c, 0, 67, 111
3, 104400, Note_on_c, 0, 50, 100
3, 104579, Note_on_c, 0, 50, 0
3, 104760, Note_on_c, 0, 55, 0
3, 104760, Note_on_c, 0, 64, 0
3, 104760, Note_on_c, 0, 67, 0
3, 104760, Note_on_c, 0, 55, 107
3, 104760, Note_on_c, 0, 64, 107
3, 104760, Note_on_c, 0, 67, 107
3, 104760, Note_on_c, 0, 51, 96
3, 104939, Note_on_c, 0, 51, 0
3, 105120, Note_on_c, 0, 55, 0
3, 105120, Note_on_c, 0, 64, 0
3, 105120, Note_on_c, 0, 67, 0
3, 105120, Note_on_c, 0, 55, 109
3, 105120, Note_on_c, 0, 64, 109
3, 105120, Note_on_c, 0, 67, 109
3, 105120, Note_on_c, 0, 52, 95
3, 105299, Note_on_c, 0, 52, 0
3, 105480, Note_on_c, 0, 55, 0
3, 105480, Note_on_c, 0, 64, 0
3, 105480, Note_on_c, 0, 67, 0
3, 105480, Note_on_c, 0, 55, 117
3, 105480, Note_on_c, 0, 64, 117
3, 105480, Note_on_c, 0, 67, 117
3, 105480, Note_on_c, 0, 48, 87
3, 105660, Note_on_c, 0, 48, 0
3, 105660, Note_on_c, 0, 49, 89
3, 105840, Note_on_c, 0, 49, 0
3, 105840, Note_on_c, 0, 50, 97
3, 106113, Note_on_c, 0, 67, 0
3, 106113, Note_on_c, 0, 55, 0
3, 106113, Note_on_c, 0, 64, 0
3, 106200, Note_on_c, 0, 50, 0
3, 106200, Note_on_c, 0, 55, 122
3, 106200, Note_on_c, 0, 64, 122
3, 106200, Note_on_c, 0, 67, 122
3, 106200, Note_on_c, 0, 47, 91
3, 106379, Note_on_c, 0, 47, 0
3, 106560, Note_on_c, 0, 48, 93
3, 106739, Note_on_c, 0, 48, 0
3, 106920, Note_on_c, 0, 67, 0
3, 106920, Note_on_c, 0, 64, 0
3, 106920, Note_on_c, 0, 55, 0
3, 106920, Note_on_c, 0, 55, 106
3, 106920, Note_on_c, 0, 64, 106
3, 106920, Note_on_c, 0, 67, 106
3, 106920, Note_on_c, 0, 46, 90
3, 107009, Note_on_c, 0, 67, 0
3, 107009, Note_on_c, 0, 55, 0
3, 107009, Note_on_c, 0, 64, 0
3, 107099, Note_on_c, 0, 46, 0
3, 107100, Note_on_c, 0, 55, 106
3, 107100, Note_on_c, 0, 64, 106
3, 107100, Note_on_c, 0, 67, 106
3, 107189, Note_on_c, 0, 67, 0
3, 107189, Note_on_c, 0, 64, 0
3, 107189, Note_on_c, 0, 55, 0
3, 107280, Note_on_c, 0, 55, 105
3, 107280, Note_on_c, 0, 64, 105
3, 107280, Note_on_c, 0, 67, 105
3, 107280, Note_on_c, 0, 47, 89
3, 107459, Note_on_c, 0, 47, 0
3, 107640, Note_on_c, 0, 43, 82
3, 107820, Note_on_c, 0, 43, 0
3, 107820, Note_on_c, 0, 44, 93
3, 108000, Note_on_c, 0, 44, 0
3, 108000, Note_on_c, 0, 45, 95
3, 108179, Note_on_c, 0, 45, 0
3, 108360, Note_on_c, 0, 67, 0
3, 108360, Note_on_c, 0, 64, 0
3, 108360, Note_on_c, 0, 55, 0
3, 108360, Note_on_c, 0, 55, 102
3, 108360, Note_on_c, 0, 64, 102
3, 108360, Note_on_c, 0, 67, 102
3, 108360, Note_on_c, 0, 42, 89
3, 108449, Note_on_c, 0, 67, 0
3, 108449, Note_on_c, 0, 55, 0
3, 108449, Note_on_c, 0, 64, 0
3, 108539, Note_on_c, 0, 42, 0
3, 108540, Note_on_c, 0, 55, 102
3, 108540, Note_on_c, 0, 64, 102
3, 108540, Note_on_c, 0, 67, 102
3, 108629, Note_on_c, 0, 67, 0
3, 108629, Note_on_c, 0, 64, 0
3, 108629, Note_on_c, 0, 55, 0
3, 108720, Note_on_c, 0, 55, 101
3, 108720, Note_on_c, 0, 64, 101
3, 108720, Note_on_c, 0, 67, 101
3, 108720, Note_on_c, 0, 43, 94
3, 108899, Note_on_c, 0, 43, 0
3, 109080, Note_on_c, 0, 37, 84
3, 109260, Note_on_c, 0, 37, 0
3, 109260, Note_on_c, 0, 39, 89
3, 109353, Note_on_c, 0, 67, 0
3, 109353, Note_on_c, 0, 55, 0
3, 109353, Note_on_c, 0, 64, 0
3, 109440, Note_on_c, 0, 39, 0
3, 109440, Note_on_c, 0, 52, 99
3, 109440, Note_on_c, 0, 55, 99
3, 109440, Note_on_c, 0, 40, 94
3, 109619, Note_on_c, 0, 40, 0
3, 109800, Note_on_c, 0, 35, 102
3, 109800, Note_on_c, 0, 47, 102
3, 109980, Note_on_c, 0, 47, 0
3, 109980, Note_on_c, 0, 35, 0
3, 109980, Note_on_c, 0, 36, 84
3, 110160, Note_on_c, 0, 36, 0
3, 110160, Note_on_c, 0, 38, 93
3, 110339, Note_on_c, 0, 38, 0
3, 110520, Note_on_c, 0, 55, 0
3, 110520, Note_on_c, 0, 52, 0
3, 110520, Note_on_c, 0, 52, 96
3, 110520, Note_on_c, 0, 55, 96
3, 110520, Note_on_c, 0, 36, 104
3, 110520, Note_on_c, 0, 48, 104
3, 110609, Note_on_c, 0, 55, 0
3, 110609, Note_on_c, 0, 52, 0
3, 110699, Note_on_c, 0, 36, 0
3, 110699, Note_on_c, 0, 48, 0
3, 110700, Note_on_c, 0, 52, 95
3, 110700, Note_on_c, 0, 55, 95
3, 110789, Note_on_c, 0, 55, 0
3, 110789, Note_on_c, 0, 52, 0
3, 110880, Note_on_c, 0, 52, 95
3, 110880, Note_on_c, 0, 55, 95
3, 110880, Note_on_c, 0, 38, 96
3, 110880, Note_on_c, 0, 50, 96
3, 111059, Note_on_c, 0, 50, 0
3, 111059, Note_on_c, 0, 38, 0
3, 111240, Note_on_c, 0, 55, 0
3, 111240, Note_on_c, 0, 52, 0
3, 111240, Note_on_c, 0, 52, 94
3, 111240, Note_on_c, 0, 55, 94
3, 111240, Note_on_c, 0, 35, 91
3, 111240, Note_on_c, 0, 47, 91
3, 111419, Note_on_c, 0, 47, 0
3, 111419, Note_on_c, 0, 35, 0
3, 111600, Note_on_c, 0, 55, 0
3, 111600, Note_on_c, 0, 52, 0
3, 111600, Note_on_c, 0, 52, 93
3, 111600, Note_on_c, 0, 55, 93
3, 111600, Note_on_c, 0, 36, 92
3, 111600, Note_on_c, 0, 48, 92
3, 111779, Note_on_c, 0, 48, 0
3, 111779, Note_on_c, 0, 36, 0
3, 111960, Note_on_c, 0, 33, 87
3, 111960, Note_on_c, 0, 45, 87
3, 112139, Note_on_c, 0, 45, 0
3, 112139, Note_on_c, 0, 33, 0
3, 112320, Note_on_c, 0, 35, 96
3, 112320, Note_on_c, 0, 47, 96
3, 112499, Note_on_c, 0, 47, 0
3, 112499, Note_on_c, 0, 35, 0
3, 112680, Note_on_c, 0, 55, 0
3, 112680, Note_on_c, 0, 52, 0
3, 112680, Note_on_c, 0, 52, 90
3, 112680, Note_on_c, 0, 55, 90
3, 112680, Note_on_c, 0, 30, 88
3, 112680, Note_on_c, 0, 42, 88
3, 112860, Note_on_c, 0, 42, 0
3, 112860, Note_on_c, 0, 30, 0
3, 112860, Note_on_c, 0, 31, 93
3, 112860, Note_on_c, 0, 43, 93
3, 113040, Note_on_c, 0, 43, 0
3, 113040, Note_on_c, 0, 31, 0
3, 113040, Note_on_c, 0, 33, 93
3, 113400, Note_on_c, 0, 55, 0
3, 113400, Note_on_c, 0, 52, 0
3, 113400, Note_on_c, 0, 52, 87
3, 113400, Note_on_c, 0, 55, 87
3, 113489, Note_on_c, 0, 55, 0
3, 113489, Note_on_c, 0, 52, 0
3, 113580, Note_on_c, 0, 52, 87
3, 113580, Note_on_c, 0, 55, 87
3, 113669, Note_on_c, 0, 55, 0
3, 113669, Note_on_c, 0, 52, 0
3, 113760, Note_on_c, 0, 52, 86
3, 113760, Note_on_c, 0, 55, 86
3, 114120, Note_on_c, 0, 55, 0
3, 114120, Note_on_c, 0, 52, 0
3, 114120, Note_on_c, 0, 33, 0
3, 114120, Note_on_c, 0, 52, 85
3, 114120, Note_on_c, 0, 55, 85
3, 114120, Note_on_c, 0, 31, 103
3, 114120, Note_on_c, 0, 43, 103
3, 114300, Note_on_c, 0, 43, 0
3, 114300, Note_on_c, 0, 31, 0
3, 114300, Note_on_c, 0, 33, 78
3, 114480, Note_on_c, 0, 33, 0
3, 114480, Note_on_c, 0, 34, 94
3, 114659, Note_on_c, 0, 34, 0
3, 114753, Note_on_c, 0, 55, 0
3, 114753, Note_on_c, 0, 52, 0
3, 114840, Note_on_c, 0, 52, 83
3, 114840, Note_on_c, 0, 55, 83
3, 114840, Note_on_c, 0, 35, 93
3, 114929, Note_on_c, 0, 55, 0
3, 114929, Note_on_c, 0, 52, 0
3, 115020, Note_on_c, 0, 52, 83
3, 115020, Note_on_c, 0, 55, 83
3, 115109, Note_on_c, 0, 55, 0
3, 115109, Note_on_c, 0, 52, 0
3, 115200, Note_on_c, 0, 35, 0
3, 115200, Note_on_c, 0, 52, 82
3, 115200, Note_on_c, 0, 55, 82
3, 115200, Note_on_c, 0, 28, 97
3, 115200, Note_on_c, 0, 40, 97
3, 115379, Note_on_c, 0, 40, 0
3, 115379, Note_on_c, 0, 52, 0
3, 115379, Note_on_c, 0, 55, 0
3, 115379, Note_on_c, 0, 28, 0
3, 118080, Note_on_c, 0, 62, 76
3, 119520, Note_on_c, 0, 55, 79
3, 120960, Note_on_c, 0, 55, 0
3, 120960, Note_on_c, 0, 62, 0
3, 120960, Note_on_c, 0, 52, 50
3, 120960, Note_on_c, 0, 60, 50
3, 120960, Note_on_c, 0, 36, 40
3, 120960, Note_on_c, 0, 43, 40
3, 120960, Note_on_c, 0, 48, 40
3, 121320, Note_on_c, 0, 52, 83
3, 121680, Note_on_c, 0, 52, 0
3, 121680, Note_on_c, 0, 55, 97
3, 122040, Note_on_c, 0, 55, 0
3, 122040, Note_on_c, 0, 57, 98
3, 122400, Note_on_c, 0, 57, 0
3, 122400, Note_on_c, 0, 36, 0
3, 122400, Note_on_c, 0, 43, 0
3, 122400, Note_on_c, 0, 60, 0
3, 122400, Note_on_c, 0, 52, 0
3, 122400, Note_on_c, 0, 48, 0
3, 122400, Note_on_c, 0, 55, 54
3, 122400, Note_on_c, 0, 59, 54
3, 122400, Note_on_c, 0, 40, 46
3, 122400, Note_on_c, 0, 47, 46
3, 122400, Note_on_c, 0, 52, 46
3, 122760, Note_on_c, 0, 55, 96
3, 123120, Note_on_c, 0, 55, 0
3, 123120, Note_on_c, 0, 59, 105
3, 123480, Note_on_c, 0, 59, 0
3, 123480, Note_on_c, 0, 64, 113
3, 123840, Note_on_c, 0, 64, 0
3, 123840, Note_on_c, 0, 59, 0
3, 123840, Note_on_c, 0, 52, 0
3, 123840, Note_on_c, 0, 47, 0
3, 123840, Note_on_c, 0, 55, 0
3, 123840, Note_on_c, 0, 40, 0
3, 123840, Note_on_c, 0, 60, 81
3, 123840, Note_on_c, 0, 55, 55
3, 123840, Note_on_c, 0, 43, 44
3, 123840, Note_on_c, 0, 48, 44
3, 123840, Note_on_c, 0, 52, 44
3, 124920, Note_on_c, 0, 60, 0
3, 124920, Note_on_c, 0, 67, 81
3, 125280, Note_on_c, 0, 67, 0
3, 125280, Note_on_c, 0, 52, 0
3, 125280, Note_on_c, 0, 55, 0
3, 125280, Note_on_c, 0, 43, 0
3, 125280, Note_on_c, 0, 48, 0
3, 125280, Note_on_c, 0, 64, 66
3, 125280, Note_on_c, 0, 60, 81
3, 125280, Note_on_c, 0, 57, 51
3, 125280, Note_on_c, 0, 45, 40
3, 125280, Note_on_c, 0, 52, 40
3, 125640, Note_on_c, 0, 64, 0
3, 126000, Note_on_c, 0, 60, 0
3, 126000, Note_on_c, 0, 57, 0
3, 126000, Note_on_c, 0, 59, 53
3, 126360, Note_on_c, 0, 59, 0
3, 126360, Note_on_c, 0, 57, 47
3, 126720, Note_on_c, 0, 57, 0
3, 126720, Note_on_c, 0, 45, 0
3, 126720, Note_on_c, 0, 52, 0
3, 126720, Note_on_c, 0, 55, 40
3, 126720, Note_on_c, 0, 59, 40
3, 126720, Note_on_c, 0, 52, 39
3, 126720, Note_on_c, 0, 40, 44
3, 126720, Note_on_c, 0, 47, 44
3, 127080, Note_on_c, 0, 52, 0
3, 127080, Note_on_c, 0, 55, 0
3, 127080, Note_on_c, 0, 59, 0
3, 127080, Note_on_c, 0, 52, 55
3, 127440, Note_on_c, 0, 55, 49
3, 127800, Note_on_c, 0, 55, 0
3, 127800, Note_on_c, 0, 57, 57
3, 128160, Note_on_c, 0, 57, 0
3, 128160, Note_on_c, 0, 52, 0
3, 128160, Note_on_c, 0, 40, 0
3, 128160, Note_on_c, 0, 47, 0
3, 128160, Note_on_c, 0, 58, 66
3, 128160, Note_on_c, 0, 55, 81
3, 128160, Note_on_c, 0, 58, 81
3, 128160, Note_on_c, 0, 43, 45
3, 128160, Note_on_c, 0, 50, 45
3, 129240, Note_on_c, 0, 58, 0
3, 129240, Note_on_c, 0, 52, 47
3, 129600, Note_on_c, 0, 52, 0
3, 129600, Note_on_c, 0, 50, 0
3, 129600, Note_on_c, 0, 55, 0
3, 129600, Note_on_c, 0, 58, 0
3, 129600, Note_on_c, 0, 43, 0
3, 129600, Note_on_c, 0, 53, 40
3, 129600, Note_on_c, 0, 57, 40
3, 129600, Note_on_c, 0, 50, 43
3, 129600, Note_on_c, 0, 38, 41
3, 129600, Note_on_c, 0, 45, 41
3, 129960, Note_on_c, 0, 50, 0
3, 129960, Note_on_c, 0, 53, 0
3, 129960, Note_on_c, 0, 57, 0
3, 129960, Note_on_c, 0, 50, 55
3, 130320, Note_on_c, 0, 53, 49
3, 130680, Note_on_c, 0, 53, 0
3, 130680, Note_on_c, 0, 55, 57
3, 131040, Note_on_c, 0, 55, 0
3, 131040, Note_on_c, 0, 50, 0
3, 131040, Note_on_c, 0, 38, 0
3, 131040, Note_on_c, 0, 45, 0
3, 131040, Note_on_c, 0, 56, 66
3, 131040, Note_on_c, 0, 53, 81
3, 131040, Note_on_c, 0, 56, 81
3, 131040, Note_on_c, 0, 41, 40
3, 131040, Note_on_c, 0, 48, 40
3, 132120, Note_on_c, 0, 56, 0
3, 132120, Note_on_c, 0, 50, 47
3, 132480, Note_on_c, 0, 50, 0
3, 132480, Note_on_c, 0, 48, 0
3, 132480, Note_on_c, 0, 53, 0
3, 132480, Note_on_c, 0, 56, 0
3, 132480, Note_on_c, 0, 41, 0
3, 132480, Note_on_c, 0, 52, 40
3, 132480, Note_on_c, 0, 55, 40
3, 132480, Note_on_c, 0, 36, 41
3, 132480, Note_on_c, 0, 43, 41
3, 132480, Note_on_c, 0, 48, 41
3, 132840, Note_on_c, 0, 52, 55
3, 133200, Note_on_c, 0, 52, 0
3, 133200, Note_on_c, 0, 55, 64
3, 133560, Note_on_c, 0, 55, 0
3, 133560, Note_on_c, 0, 60, 72
3, 133920, Note_on_c, 0, 60, 0
3, 133920, Note_on_c, 0, 55, 0
3, 133920, Note_on_c, 0, 48, 0
3, 133920, Note_on_c, 0, 43, 0
3, 133920, Note_on_c, 0, 52, 0
3, 133920, Note_on_c, 0, 36, 0
3, 133920, Note_on_c, 0, 40, 64
3, 134100, Note_on_c, 0, 55, 55
3, 134280, Note_on_c, 0, 55, 0
3, 134280, Note_on_c, 0, 52, 62
3, 134460, Note_on_c, 0, 52, 0
3, 134460, Note_on_c, 0, 55, 70
3, 134640, Note_on_c, 0, 55, 0
3, 134640, Note_on_c, 0, 47, 43
3, 134820, Note_on_c, 0, 52, 46
3, 135000, Note_on_c, 0, 55, 66
3, 135180, Note_on_c, 0, 55, 0
3, 135180, Note_on_c, 0, 59, 78
3, 135360, Note_on_c, 0, 59, 0
3, 135360, Note_on_c, 0, 52, 0
3, 135360, Note_on_c, 0, 47, 0
3, 135360, Note_on_c, 0, 40, 0
3, 135360, Note_on_c, 0, 64, 65
3, 135360, Note_on_c, 0, 55, 51
3, 135360, Note_on_c, 0, 43, 47
3, 135360, Note_on_c, 0, 48, 47
3, 135360, Note_on_c, 0, 52, 47
3, 135540, Note_on_c, 0, 64, 0
3, 135540, Note_on_c, 0, 67, 61
3, 135720, Note_on_c, 0, 67, 0
3, 135720, Note_on_c, 0, 64, 53
3, 135900, Note_on_c, 0, 64, 0
3, 135900, Note_on_c, 0, 67, 61
3, 136080, Note_on_c, 0, 67, 0
3, 136080, Note_on_c, 0, 60, 47
3, 136800, Note_on_c, 0, 52, 0
3, 136800, Note_on_c, 0, 48, 0
3, 136800, Note_on_c, 0, 55, 0
3, 136800, Note_on_c, 0, 43, 0
3, 136800, Note_on_c, 0, 57, 59
3, 136800, Note_on_c, 0, 45, 41
3, 136800, Note_on_c, 0, 52, 41
3, 136980, Note_on_c, 0, 60, 0
3, 136980, Note_on_c, 0, 64, 64
3, 137160, Note_on_c, 0, 64, 0
3, 137160, Note_on_c, 0, 60, 52
3, 137340, Note_on_c, 0, 60, 0
3, 137340, Note_on_c, 0, 64, 62
3, 137520, Note_on_c, 0, 64, 0
3, 137520, Note_on_c, 0, 55, 55
3, 137700, Note_on_c, 0, 55, 0
3, 137700, Note_on_c, 0, 60, 49
3, 137880, Note_on_c, 0, 60, 0
3, 137880, Note_on_c, 0, 57, 43
3, 138060, Note_on_c, 0, 57, 0
3, 138060, Note_on_c, 0, 60, 36
3, 138240, Note_on_c, 0, 60, 0
3, 138240, Note_on_c, 0, 57, 0
3, 138240, Note_on_c, 0, 45, 0
3, 138240, Note_on_c, 0, 52, 0
3, 138240, Note_on_c, 0, 52, 53
3, 138240, Note_on_c, 0, 55, 53
3, 138240, Note_on_c, 0, 59, 53
3, 138240, Note_on_c, 0, 40, 40
3, 138960, Note_on_c, 0, 59, 0
3, 138960, Note_on_c, 0, 55, 0
3, 139140, Note_on_c, 0, 52, 0
3, 139140, Note_on_c, 0, 59, 62
3, 139320, Note_on_c, 0, 59, 0
3, 139320, Note_on_c, 0, 55, 49
3, 139500, Note_on_c, 0, 59, 60
3, 139680, Note_on_c, 0, 59, 0
3, 139680, Note_on_c, 0, 40, 0
3, 139680, Note_on_c, 0, 50, 77
3, 139680, Note_on_c, 0, 58, 77
3, 139680, Note_on_c, 0, 43, 56
3, 140400, Note_on_c, 0, 58, 0
3, 140400, Note_on_c, 0, 55, 0
3, 140580, Note_on_c, 0, 50, 0
3, 140580, Note_on_c, 0, 50, 42
3, 140760, Note_on_c, 0, 50, 0
3, 140760, Note_on_c, 0, 46, 40
3, 140940, Note_on_c, 0, 46, 0
3, 140940, Note_on_c, 0, 50, 48
3, 141120, Note_on_c, 0, 43, 0
3, 141120, Note_on_c, 0, 38, 54
3, 141120, Note_on_c, 0, 45, 54
3, 141300, Note_on_c, 0, 57, 68
3, 141480, Note_on_c, 0, 57, 0
3, 141480, Note_on_c, 0, 53, 73
3, 141660, Note_on_c, 0, 57, 82
3, 141840, Note_on_c, 0, 50, 0
3, 141840, Note_on_c, 0, 50, 79
3, 142560, Note_on_c, 0, 50, 0
3, 142560, Note_on_c, 0, 57, 0
3, 142560, Note_on_c, 0, 38, 0
3, 142560, Note_on_c, 0, 45, 0
3, 142560, Note_on_c, 0, 53, 0
3, 142560, Note_on_c, 0, 48, 41
3, 142560, Note_on_c, 0, 41, 53
3, 142740, Note_on_c, 0, 56, 70
3, 142920, Note_on_c, 0, 56, 0
3, 142920, Note_on_c, 0, 53, 76
3, 143100, Note_on_c, 0, 56, 81
3, 143280, Note_on_c, 0, 48, 0
3, 143280, Note_on_c, 0, 48, 30
3, 143460, Note_on_c, 0, 48, 0
3, 143460, Note_on_c, 0, 50, 24
3, 143640, Note_on_c, 0, 44, 37
3, 143820, Note_on_c, 0, 44, 0
3, 143820, Note_on_c, 0, 48, 47
3, 144000, Note_on_c, 0, 48, 0
3, 144000, Note_on_c, 0, 50, 0
3, 144000, Note_on_c, 0, 41, 0
3, 144000, Note_on_c, 0, 53, 0
3, 144000, Note_on_c, 0, 56, 0
3, 144000, Note_on_c, 0, 56, 55
3, 144000, Note_on_c, 0, 52, 78
3, 144000, Note_on_c, 0, 47, 43
3, 144000, Note_on_c, 0, 40, 55
3, 144360, Note_on_c, 0, 47, 0
3, 144360, Note_on_c, 0, 52, 0
3, 144360, Note_on_c, 0, 52, 78
3, 144677, Note_on_c, 0, 52, 0
3, 144720, Note_on_c, 0, 51, 79
3, 145037, Note_on_c, 0, 51, 0
3, 145080, Note_on_c, 0, 50, 81
3, 145397, Note_on_c, 0, 50, 0
3, 145440, Note_on_c, 0, 56, 0
3, 145440, Note_on_c, 0, 40, 0
3, 145440, Note_on_c, 0, 55, 59
3, 145440, Note_on_c, 0, 61, 59
3, 145440, Note_on_c, 0, 49, 41
3, 145440, Note_on_c, 0, 45, 59
3, 145800, Note_on_c, 0, 49, 0
3, 145800, Note_on_c, 0, 52, 83
3, 146160, Note_on_c, 0, 57, 84
3, 146880, Note_on_c, 0, 57, 0
3, 146880, Note_on_c, 0, 55, 0
3, 146880, Note_on_c, 0, 45, 0
3, 146880, Note_on_c, 0, 61, 0
3, 146880, Note_on_c, 0, 52, 0
3, 146880, Note_on_c, 0, 60, 63
3, 146880, Note_on_c, 0, 53, 86
3, 146880, Note_on_c, 0, 57, 86
3, 146880, Note_on_c, 0, 50, 42
3, 146880, Note_on_c, 0, 38, 50
3, 147240, Note_on_c, 0, 57, 0
3, 147240, Note_on_c, 0, 53, 0
3, 147240, Note_on_c, 0, 53, 87
3, 147600, Note_on_c, 0, 50, 0
3, 147600, Note_on_c, 0, 52, 57
3, 147917, Note_on_c, 0, 52, 0
3, 147960, Note_on_c, 0, 50, 45
3, 148320, Note_on_c, 0, 50, 0
3, 148320, Note_on_c, 0, 60, 0
3, 148320, Note_on_c, 0, 38, 0
3, 148320, Note_on_c, 0, 53, 0
3, 148320, Note_on_c, 0, 60, 68
3, 148320, Note_on_c, 0, 53, 90
3, 148320, Note_on_c, 0, 50, 41
3, 148320, Note_on_c, 0, 43, 57
3, 148680, Note_on_c, 0, 60, 0
3, 148680, Note_on_c, 0, 59, 69
3, 149040, Note_on_c, 0, 59, 0
3, 149040, Note_on_c, 0, 53, 0
3, 149040, Note_on_c, 0, 50, 0
3, 149040, Note_on_c, 0, 55, 70
3, 149400, Note_on_c, 0, 55, 0
3, 149400, Note_on_c, 0, 57, 71
3, 149760, Note_on_c, 0, 57, 0
3, 149760, Note_on_c, 0, 43, 0
3, 149760, Note_on_c, 0, 59, 72
3, 149760, Note_on_c, 0, 52, 95
3, 149760, Note_on_c, 0, 55, 95
3, 149760, Note_on_c, 0, 40, 40
3, 150840, Note_on_c, 0, 59, 0
3, 150840, Note_on_c, 0, 57, 75
3, 151200, Note_on_c, 0, 57, 0
3, 151200, Note_on_c, 0, 40, 0
3, 151200, Note_on_c, 0, 55, 0
3, 151200, Note_on_c, 0, 52, 0
3, 151200, Note_on_c, 0, 52, 76
3, 151200, Note_on_c, 0, 55, 76
3, 151200, Note_on_c, 0, 45, 50
3, 151200, Note_on_c, 0, 48, 50
3, 151920, Note_on_c, 0, 48, 0
3, 151920, Note_on_c, 0, 52, 0
3, 151920, Note_on_c, 0, 55, 0
3, 151920, Note_on_c, 0, 45, 0
3, 151920, Note_on_c, 0, 57, 79
3, 152280, Note_on_c, 0, 57, 0
3, 152280, Note_on_c, 0, 59, 80
3, 152640, Note_on_c, 0, 59, 0
3, 152640, Note_on_c, 0, 60, 81
3, 152640, Note_on_c, 0, 54, 104
3, 152640, Note_on_c, 0, 50, 39
3, 152640, Note_on_c, 0, 38, 55
3, 153360, Note_on_c, 0, 60, 0
3, 153360, Note_on_c, 0, 59, 79
3, 153720, Note_on_c, 0, 59, 0
3, 153720, Note_on_c, 0, 57, 78
3, 154080, Note_on_c, 0, 57, 0
3, 154080, Note_on_c, 0, 54, 0
3, 154080, Note_on_c, 0, 50, 0
3, 154080, Note_on_c, 0, 38, 0
3, 154080, Note_on_c, 0, 53, 81
3, 154080, Note_on_c, 0, 57, 81
3, 154080, Note_on_c, 0, 47, 41
3, 154080, Note_on_c, 0, 50, 41
3, 155520, Note_on_c, 0, 50, 0
3, 155520, Note_on_c, 0, 53, 0
3, 155520, Note_on_c, 0, 57, 0
3, 155520, Note_on_c, 0, 47, 0
3, 155520, Note_on_c, 0, 56, 56
3, 155520, Note_on_c, 0, 52, 48
3, 155880, Note_on_c, 0, 56, 0
3, 155880, Note_on_c, 0, 56, 56
3, 155880, Note_on_c, 0, 62, 56
3, 155880, Note_on_c, 0, 64, 56
3, 155880, Note_on_c, 0, 40, 51
3, 156059, Note_on_c, 0, 64, 0
3, 156059, Note_on_c, 0, 62, 0
3, 156059, Note_on_c, 0, 56, 0
3, 156060, Note_on_c, 0, 40, 0
3, 156060, Note_on_c, 0, 40, 57
3, 156240, Note_on_c, 0, 40, 0
3, 156240, Note_on_c, 0, 56, 44
3, 156240, Note_on_c, 0, 62, 44
3, 156240, Note_on_c, 0, 64, 44
3, 156240, Note_on_c, 0, 40, 60
3, 156419, Note_on_c, 0, 64, 0
3, 156419, Note_on_c, 0, 62, 0
3, 156419, Note_on_c, 0, 56, 0
3, 156600, Note_on_c, 0, 40, 0
3, 156600, Note_on_c, 0, 56, 44
3, 156600, Note_on_c, 0, 61, 44
3, 156600, Note_on_c, 0, 64, 44
3, 156600, Note_on_c, 0, 40, 53
3, 156779, Note_on_c, 0, 64, 0
3, 156779, Note_on_c, 0, 61, 0
3, 156779, Note_on_c, 0, 56, 0
3, 156960, Note_on_c, 0, 40, 0
3, 156960, Note_on_c, 0, 56, 44
3, 156960, Note_on_c, 0, 60, 44
3, 156960, Note_on_c, 0, 64, 44
3, 156960, Note_on_c, 0, 40, 56
3, 157139, Note_on_c, 0, 64, 0
3, 157139, Note_on_c, 0, 60, 0
3, 157139, Note_on_c, 0, 56, 0
3, 157320, Note_on_c, 0, 59, 50
3, 157320, Note_on_c, 0, 62, 50
3, 157320, Note_on_c, 0, 64, 50
3, 157409, Note_on_c, 0, 64, 0
3, 157409, Note_on_c, 0, 59, 0
3, 157409, Note_on_c, 0, 62, 0
3, 157500, Note_on_c, 0, 59, 42
3, 157500, Note_on_c, 0, 62, 42
3, 157500, Note_on_c, 0, 64, 42
3, 157589, Note_on_c, 0, 64, 0
3, 157589, Note_on_c, 0, 59, 0
3, 157589, Note_on_c, 0, 62, 0
3, 157680, Note_on_c, 0, 58, 45
3, 157680, Note_on_c, 0, 62, 45
3, 157680, Note_on_c, 0, 64, 45
3, 157859, Note_on_c, 0, 64, 0
3, 157859, Note_on_c, 0, 58, 0
3, 157859, Note_on_c, 0, 62, 0
3, 158040, Note_on_c, 0, 57, 45
3, 158040, Note_on_c, 0, 62, 45
3, 158040, Note_on_c, 0, 64, 45
3, 158219, Note_on_c, 0, 64, 0
3, 158219, Note_on_c, 0, 57, 0
3, 158219, Note_on_c, 0, 62, 0
3, 158400, Note_on_c, 0, 56, 44
3, 158400, Note_on_c, 0, 62, 44
3, 158400, Note_on_c, 0, 64, 44
3, 158579, Note_on_c, 0, 64, 0
3, 158579, Note_on_c, 0, 56, 0
3, 158579, Note_on_c, 0, 62, 0
3, 158760, Note_on_c, 0, 40, 0
3, 158760, Note_on_c, 0, 56, 46
3, 158760, Note_on_c, 0, 62, 46
3, 158760, Note_on_c, 0, 64, 46
3, 158760, Note_on_c, 0, 40, 58
3, 158849, Note_on_c, 0, 40, 0
3, 158940, Note_on_c, 0, 40, 56
3, 159029, Note_on_c, 0, 40, 0
3, 159120, Note_on_c, 0, 64, 0
3, 159120, Note_on_c, 0, 62, 0
3, 159120, Note_on_c, 0, 56, 0
3, 159120, Note_on_c, 0, 56, 49
3, 159120, Note_on_c, 0, 62, 49
3, 159120, Note_on_c, 0, 64, 49
3, 159120, Note_on_c, 0, 40, 55
3, 159299, Note_on_c, 0, 40, 0
3, 159480, Note_on_c, 0, 62, 0
3, 159480, Note_on_c, 0, 64, 0
3, 159480, Note_on_c, 0, 56, 0
3, 159480, Note_on_c, 0, 56, 46
3, 159480, Note_on_c, 0, 61, 46
3, 159480, Note_on_c, 0, 64, 46
3, 159480, Note_on_c, 0, 40, 54
3, 159659, Note_on_c, 0, 40, 0
3, 159840, Note_on_c, 0, 61, 0
3, 159840, Note_on_c, 0, 64, 0
3, 159840, Note_on_c, 0, 56, 0
3, 159840, Note_on_c, 0, 56, 44
3, 159840, Note_on_c, 0, 60, 44
3, 159840, Note_on_c, 0, 64, 44
3, 159840, Note_on_c, 0, 40, 58
3, 160019, Note_on_c, 0, 64, 0
3, 160019, Note_on_c, 0, 60, 0
3, 160019, Note_on_c, 0, 56, 0
3, 160200, Note_on_c, 0, 59, 45
3, 160200, Note_on_c, 0, 62, 45
3, 160200, Note_on_c, 0, 64, 45
3, 160289, Note_on_c, 0, 64, 0
3, 160289, Note_on_c, 0, 59, 0
3, 160289, Note_on_c, 0, 62, 0
3, 160380, Note_on_c, 0, 59, 42
3, 160380, Note_on_c, 0, 62, 42
3, 160380, Note_on_c, 0, 64, 42
3, 160469, Note_on_c, 0, 64, 0
3, 160469, Note_on_c, 0, 59, 0
3, 160469, Note_on_c, 0, 62, 0
3, 160560, Note_on_c, 0, 58, 50
3, 160560, Note_on_c, 0, 62, 50
3, 160560, Note_on_c, 0, 64, 50
3, 160739, Note_on_c, 0, 64, 0
3, 160739, Note_on_c, 0, 58, 0
3, 160739, Note_on_c, 0, 62, 0
3, 160920, Note_on_c, 0, 57, 49
3, 160920, Note_on_c, 0, 60, 49
3, 160920, Note_on_c, 0, 65, 49
3, 161099, Note_on_c, 0, 65, 0
3, 161099, Note_on_c, 0, 57, 0
3, 161099, Note_on_c, 0, 60, 0
3, 161280, Note_on_c, 0, 52, 0
3, 161280, Note_on_c, 0, 58, 40
3, 161280, Note_on_c, 0, 62, 40
3, 161640, Note_on_c, 0, 62, 0
3, 161640, Note_on_c, 0, 58, 0
3, 161640, Note_on_c, 0, 58, 52
3, 161640, Note_on_c, 0, 62, 52
3, 161640, Note_on_c, 0, 65, 52
3, 161640, Note_on_c, 0, 50, 42
3, 161729, Note_on_c, 0, 50, 0
3, 161820, Note_on_c, 0, 50, 43
3, 161909, Note_on_c, 0, 50, 0
3, 162000, Note_on_c, 0, 65, 0
3, 162000, Note_on_c, 0, 62, 0
3, 162000, Note_on_c, 0, 58, 0
3, 162000, Note_on_c, 0, 58, 45
3, 162000, Note_on_c, 0, 62, 45
3, 162000, Note_on_c, 0, 65, 45
3, 162000, Note_on_c, 0, 50, 44
3, 162179, Note_on_c, 0, 50, 0
3, 162360, Note_on_c, 0, 62, 0
3, 162360, Note_on_c, 0, 65, 0
3, 162360, Note_on_c, 0, 58, 0
3, 162360, Note_on_c, 0, 57, 46
3, 162360, Note_on_c, 0, 62, 46
3, 162360, Note_on_c, 0, 65, 46
3, 162360, Note_on_c, 0, 50, 47
3, 162539, Note_on_c, 0, 50, 0
3, 162720, Note_on_c, 0, 62, 0
3, 162720, Note_on_c, 0, 65, 0
3, 162720, Note_on_c, 0, 57, 0
3, 162720, Note_on_c, 0, 56, 48
3, 162720, Note_on_c, 0, 62, 48
3, 162720, Note_on_c, 0, 65, 48
3, 162720, Note_on_c, 0, 50, 41
3, 162899, Note_on_c, 0, 50, 0
3, 163080, Note_on_c, 0, 62, 0
3, 163080, Note_on_c, 0, 65, 0
3, 163080, Note_on_c, 0, 56, 0
3, 163080, Note_on_c, 0, 57, 44
3, 163080, Note_on_c, 0, 62, 44
3, 163080, Note_on_c, 0, 65, 44
3, 163260, Note_on_c, 0, 65, 0
3, 163260, Note_on_c, 0, 62, 0
3, 163260, Note_on_c, 0, 57, 0
3, 163260, Note_on_c, 0, 57, 47
3, 163260, Note_on_c, 0, 62, 47
3, 163260, Note_on_c, 0, 65, 47
3, 163440, Note_on_c, 0, 65, 0
3, 163440, Note_on_c, 0, 62, 0
3, 163440, Note_on_c, 0, 57, 0
3, 163440, Note_on_c, 0, 58, 39
3, 163440, Note_on_c, 0, 62, 39
3, 163440, Note_on_c, 0, 65, 39
3, 163800, Note_on_c, 0, 65, 0
3, 163800, Note_on_c, 0, 62, 0
3, 163800, Note_on_c, 0, 58, 0
3, 163800, Note_on_c, 0, 59, 44
3, 163800, Note_on_c, 0, 62, 44
3, 163800, Note_on_c, 0, 64, 44
3, 164160, Note_on_c, 0, 64, 0
3, 164160, Note_on_c, 0, 62, 0
3, 164160, Note_on_c, 0, 59, 0
3, 164160, Note_on_c, 0, 52, 40
3, 164520, Note_on_c, 0, 40, 0
3, 164520, Note_on_c, 0, 57, 38
3, 164520, Note_on_c, 0, 60, 38
3, 164520, Note_on_c, 0, 64, 38
3, 164520, Note_on_c, 0, 40, 58
3, 164609, Note_on_c, 0, 40, 0
3, 164700, Note_on_c, 0, 40, 55
3, 164789, Note_on_c, 0, 40, 0
3, 164880, Note_on_c, 0, 64, 0
3, 164880, Note_on_c, 0, 60, 0
3, 164880, Note_on_c, 0, 57, 0
3, 164880, Note_on_c, 0, 57, 41
3, 164880, Note_on_c, 0, 60, 41
3, 164880, Note_on_c, 0, 64, 41
3, 164880, Note_on_c, 0, 40, 55
3, 165059, Note_on_c, 0, 40, 0
3, 165240, Note_on_c, 0, 60, 0
3, 165240, Note_on_c, 0, 64, 0
3, 165240, Note_on_c, 0, 57, 0
3, 165240, Note_on_c, 0, 55, 45
3, 165240, Note_on_c, 0, 60, 45
3, 165240, Note_on_c, 0, 64, 45
3, 165240, Note_on_c, 0, 40, 57
3, 165419, Note_on_c, 0, 40, 0
3, 165600, Note_on_c, 0, 60, 0
3, 165600, Note_on_c, 0, 64, 0
3, 165600, Note_on_c, 0, 55, 0
3, 165600, Note_on_c, 0, 54, 50
3, 165600, Note_on_c, 0, 60, 50
3, 165600, Note_on_c, 0, 64, 50
3, 165600, Note_on_c, 0, 40, 55
3, 165960, Note_on_c, 0, 64, 0
3, 165960, Note_on_c, 0, 60, 0
3, 165960, Note_on_c, 0, 54, 0
3, 165960, Note_on_c, 0, 55, 45
3, 165960, Note_on_c, 0, 60, 45
3, 165960, Note_on_c, 0, 64, 45
3, 166140, Note_on_c, 0, 64, 0
3, 166140, Note_on_c, 0, 55, 0
3, 166140, Note_on_c, 0, 60, 0
3, 166140, Note_on_c, 0, 55, 47
3, 166140, Note_on_c, 0, 60, 47
3, 166140, Note_on_c, 0, 64, 47
3, 166320, Note_on_c, 0, 64, 0
3, 166320, Note_on_c, 0, 55, 0
3, 166320, Note_on_c, 0, 60, 0
3, 166320, Note_on_c, 0, 56, 43
3, 166320, Note_on_c, 0, 60, 43
3, 166320, Note_on_c, 0, 64, 43
3, 166680, Note_on_c, 0, 64, 0
3, 166680, Note_on_c, 0, 56, 0
3, 166680, Note_on_c, 0, 60, 0
3, 166680, Note_on_c, 0, 57, 40
3, 166680, Note_on_c, 0, 60, 40
3, 166680, Note_on_c, 0, 62, 40
3, 167040, Note_on_c, 0, 62, 0
3, 167040, Note_on_c, 0, 57, 0
3, 167040, Note_on_c, 0, 60, 0
3, 167040, Note_on_c, 0, 52, 0
3, 167400, Note_on_c, 0, 55, 43
3, 167400, Note_on_c, 0, 58, 43
3, 167400, Note_on_c, 0, 62, 43
3, 167400, Note_on_c, 0, 50, 41
3, 167489, Note_on_c, 0, 50, 0
3, 167580, Note_on_c, 0, 58, 0
3, 167580, Note_on_c, 0, 62, 0
3, 167580, Note_on_c, 0, 55, 0
3, 167580, Note_on_c, 0, 55, 46
3, 167580, Note_on_c, 0, 58, 46
3, 167580, Note_on_c, 0, 62, 46
3, 167580, Note_on_c, 0, 50, 43
3, 167669, Note_on_c, 0, 50, 0
3, 167760, Note_on_c, 0, 58, 0
3, 167760, Note_on_c, 0, 62, 0
3, 167760, Note_on_c, 0, 55, 0
3, 167760, Note_on_c, 0, 55, 48
3, 167760, Note_on_c, 0, 58, 48
3, 167760, Note_on_c, 0, 62, 48
3, 167760, Note_on_c, 0, 50, 49
3, 167939, Note_on_c, 0, 50, 0
3, 168120, Note_on_c, 0, 58, 0
3, 168120, Note_on_c, 0, 62, 0
3, 168120, Note_on_c, 0, 55, 0
3, 168120, Note_on_c, 0, 55, 41
3, 168120, Note_on_c, 0, 58, 41
3, 168120, Note_on_c, 0, 60, 41
3, 168120, Note_on_c, 0, 52, 45
3, 168299, Note_on_c, 0, 52, 0
3, 168480, Note_on_c, 0, 58, 0
3, 168480, Note_on_c, 0, 60, 0
3, 168480, Note_on_c, 0, 55, 0
3, 168840, Note_on_c, 0, 53, 39
3, 168840, Note_on_c, 0, 57, 39
3, 168840, Note_on_c, 0, 60, 39
3, 168840, Note_on_c, 0, 45, 37
3, 168929, Note_on_c, 0, 45, 0
3, 169020, Note_on_c, 0, 57, 0
3, 169020, Note_on_c, 0, 60, 0
3, 169020, Note_on_c, 0, 53, 0
3, 169020, Note_on_c, 0, 53, 41
3, 169020, Note_on_c, 0, 57, 41
3, 169020, Note_on_c, 0, 60, 41
3, 169020, Note_on_c, 0, 45, 47
3, 169109, Note_on_c, 0, 45, 0
3, 169200, Note_on_c, 0, 57, 0
3, 169200, Note_on_c, 0, 60, 0
3, 169200, Note_on_c, 0, 53, 0
3, 169200, Note_on_c, 0, 53, 49
3, 169200, Note_on_c, 0, 57, 49
3, 169200, Note_on_c, 0, 60, 49
3, 169200, Note_on_c, 0, 45, 49
3, 169379, Note_on_c, 0, 45, 0
3, 169560, Note_on_c, 0, 57, 0
3, 169560, Note_on_c, 0, 60, 0
3, 169560, Note_on_c, 0, 53, 0
3, 169560, Note_on_c, 0, 53, 38
3, 169560, Note_on_c, 0, 57, 38
3, 169560, Note_on_c, 0, 59, 38
3, 169560, Note_on_c, 0, 50, 45
3, 169739, Note_on_c, 0, 50, 0
3, 169920, Note_on_c, 0, 57, 0
3, 169920, Note_on_c, 0, 40, 0
3, 169920, Note_on_c, 0, 53, 0
3, 169920, Note_on_c, 0, 59, 0
3, 169920, Note_on_c, 0, 40, 57
3, 170280, Note_on_c, 0, 59, 37
3, 170280, Note_on_c, 0, 62, 37
3, 170280, Note_on_c, 0, 65, 37
3, 170280, Note_on_c, 0, 52, 39
3, 170369, Note_on_c, 0, 52, 0
3, 170460, Note_on_c, 0, 62, 0
3, 170460, Note_on_c, 0, 65, 0
3, 170460, Note_on_c, 0, 59, 0
3, 170460, Note_on_c, 0, 59, 46
3, 170460, Note_on_c, 0, 62, 46
3, 170460, Note_on_c, 0, 65, 46
3, 170460, Note_on_c, 0, 52, 48
3, 170549, Note_on_c, 0, 52, 0
3, 170640, Note_on_c, 0, 62, 0
3, 170640, Note_on_c, 0, 65, 0
3, 170640, Note_on_c, 0, 59, 0
3, 170640, Note_on_c, 0, 59, 46
3, 170640, Note_on_c, 0, 62, 46
3, 170640, Note_on_c, 0, 65, 46
3, 170640, Note_on_c, 0, 52, 45
3, 171000, Note_on_c, 0, 65, 0
3, 171000, Note_on_c, 0, 62, 0
3, 171000, Note_on_c, 0, 40, 0
3, 171000, Note_on_c, 0, 59, 0
3, 171000, Note_on_c, 0, 61, 42
3, 171000, Note_on_c, 0, 64, 42
3, 171000, Note_on_c, 0, 40, 59
3, 171089, Note_on_c, 0, 40, 0
3, 171180, Note_on_c, 0, 40, 57
3, 171269, Note_on_c, 0, 40, 0
3, 171360, Note_on_c, 0, 64, 0
3, 171360, Note_on_c, 0, 61, 0
3, 171360, Note_on_c, 0, 60, 43
3, 171360, Note_on_c, 0, 63, 43
3, 171360, Note_on_c, 0, 40, 56
3, 171720, Note_on_c, 0, 63, 0
3, 171720, Note_on_c, 0, 60, 0
3, 171720, Note_on_c, 0, 59, 38
3, 171720, Note_on_c, 0, 62, 38
3, 171900, Note_on_c, 0, 62, 0
3, 171900, Note_on_c, 0, 59, 0
3, 171900, Note_on_c, 0, 59, 49
3, 171900, Note_on_c, 0, 62, 49
3, 172080, Note_on_c, 0, 62, 0
3, 172080, Note_on_c, 0, 59, 0
3, 172080, Note_on_c, 0, 58, 41
3, 172080, Note_on_c, 0, 61, 41
3, 172440, Note_on_c, 0, 61, 0
3, 172440, Note_on_c, 0, 58, 0
3, 172440, Note_on_c, 0, 65, 48
3, 172440, Note_on_c, 0, 57, 92
3, 172440, Note_on_c, 0, 60, 92
3, 172560, Note_on_c, 0, 65, 0
3, 172560, Note_on_c, 0, 62, 43
3, 172679, Note_on_c, 0, 62, 0
3, 172679, Note_on_c, 0, 65, 47
3, 172800, Note_on_c, 0, 65, 0
3, 172800, Note_on_c, 0, 57, 0
3, 172800, Note_on_c, 0, 60, 0
3, 172800, Note_on_c, 0, 52, 0
3, 172800, Note_on_c, 0, 56, 40
3, 172800, Note_on_c, 0, 59, 40
3, 173160, Note_on_c, 0, 59, 0
3, 173160, Note_on_c, 0, 56, 0
3, 173160, Note_on_c, 0, 59, 49
3, 173160, Note_on_c, 0, 62, 49
3, 173160, Note_on_c, 0, 65, 49
3, 173160, Note_on_c, 0, 52, 38
3, 173249, Note_on_c, 0, 52, 0
3, 173340, Note_on_c, 0, 62, 0
3, 173340, Note_on_c, 0, 65, 0
3, 173340, Note_on_c, 0, 59, 0
3, 173340, Note_on_c, 0, 59, 48
3, 173340, Note_on_c, 0, 62, 48
3, 173340, Note_on_c, 0, 65, 48
3, 173340, Note_on_c, 0, 52, 45
3, 173429, Note_on_c, 0, 52, 0
3, 173520, Note_on_c, 0, 62, 0
3, 173520, Note_on_c, 0, 65, 0
3, 173520, Note_on_c, 0, 59, 0
3, 173520, Note_on_c, 0, 59, 48
3, 173520, Note_on_c, 0, 62, 48
3, 173520, Note_on_c, 0, 65, 48
3, 173520, Note_on_c, 0, 52, 47
3, 173880, Note_on_c, 0, 65, 0
3, 173880, Note_on_c, 0, 62, 0
3, 173880, Note_on_c, 0, 40, 0
3, 173880, Note_on_c, 0, 59, 0
3, 173880, Note_on_c, 0, 61, 45
3, 173880, Note_on_c, 0, 64, 45
3, 173880, Note_on_c, 0, 40, 59
3, 173969, Note_on_c, 0, 40, 0
3, 174060, Note_on_c, 0, 40, 57
3, 174149, Note_on_c, 0, 40, 0
3, 174240, Note_on_c, 0, 64, 0
3, 174240, Note_on_c, 0, 61, 0
3, 174240, Note_on_c, 0, 60, 46
3, 174240, Note_on_c, 0, 63, 46
3, 174240, Note_on_c, 0, 40, 52
3, 174600, Note_on_c, 0, 63, 0
3, 174600, Note_on_c, 0, 60, 0
3, 174600, Note_on_c, 0, 59, 41
3, 174600, Note_on_c, 0, 62, 41
3, 174780, Note_on_c, 0, 62, 0
3, 174780, Note_on_c, 0, 59, 0
3, 174780, Note_on_c, 0, 59, 43
3, 174780, Note_on_c, 0, 62, 43
3, 174960, Note_on_c, 0, 62, 0
3, 174960, Note_on_c, 0, 59, 0
3, 174960, Note_on_c, 0, 58, 41
3, 174960, Note_on_c, 0, 61, 41
3, 175320, Note_on_c, 0, 61, 0
3, 175320, Note_on_c, 0, 58, 0
3, 175320, Note_on_c, 0, 57, 44
3, 175320, Note_on_c, 0, 60, 44
3, 175680, Note_on_c, 0, 60, 0
3, 175680, Note_on_c, 0, 57, 0
3, 175680, Note_on_c, 0, 56, 45
3, 175680, Note_on_c, 0, 59, 45
3, 176040, Note_on_c, 0, 59, 0
3, 176040, Note_on_c, 0, 56, 0
3, 176040, Note_on_c, 0, 53, 48
3, 176040, Note_on_c, 0, 56, 48
3, 176040, Note_on_c, 0, 62, 48
3, 176220, Note_on_c, 0, 62, 0
3, 176220, Note_on_c, 0, 53, 0
3, 176220, Note_on_c, 0, 56, 0
3, 176220, Note_on_c, 0, 62, 48
3, 176400, Note_on_c, 0, 62, 0
3, 176400, Note_on_c, 0, 53, 49
3, 176400, Note_on_c, 0, 56, 49
3, 176400, Note_on_c, 0, 62, 49
3, 176760, Note_on_c, 0, 62, 0
3, 176760, Note_on_c, 0, 53, 0
3, 176760, Note_on_c, 0, 56, 0
3, 176760, Note_on_c, 0, 40, 0
3, 176760, Note_on_c, 0, 56, 39
3, 176760, Note_on_c, 0, 61, 39
3, 176760, Note_on_c, 0, 40, 56
3, 176849, Note_on_c, 0, 40, 0
3, 176940, Note_on_c, 0, 40, 57
3, 177029, Note_on_c, 0, 40, 0
3, 177120, Note_on_c, 0, 61, 0
3, 177120, Note_on_c, 0, 56, 0
3, 177120, Note_on_c, 0, 52, 0
3, 177120, Note_on_c, 0, 51, 45
3, 177120, Note_on_c, 0, 56, 45
3, 177120, Note_on_c, 0, 60, 45
3, 177120, Note_on_c, 0, 40, 59
3, 177480, Note_on_c, 0, 60, 0
3, 177480, Note_on_c, 0, 51, 0
3, 177480, Note_on_c, 0, 56, 0
3, 177480, Note_on_c, 0, 50, 42
3, 177480, Note_on_c, 0, 53, 42
3, 177480, Note_on_c, 0, 59, 42
3, 177660, Note_on_c, 0, 59, 0
3, 177660, Note_on_c, 0, 53, 0
3, 177660, Note_on_c, 0, 50, 0
3, 177660, Note_on_c, 0, 50, 45
3, 177660, Note_on_c, 0, 53, 45
3, 177660, Note_on_c, 0, 59, 45
3, 177840, Note_on_c, 0, 59, 0
3, 177840, Note_on_c, 0, 53, 0
3, 177840, Note_on_c, 0, 50, 0
3, 177840, Note_on_c, 0, 49, 40
3, 177840, Note_on_c, 0, 53, 40
3, 177840, Note_on_c, 0, 58, 40
3, 178200, Note_on_c, 0, 58, 0
3, 178200, Note_on_c, 0, 53, 0
3, 178200, Note_on_c, 0, 49, 0
3, 178200, Note_on_c, 0, 62, 48
3, 178200, Note_on_c, 0, 53, 75
3, 178200, Note_on_c, 0, 57, 75
3, 178200, Note_on_c, 0, 48, 46
3, 178320, Note_on_c, 0, 62, 0
3, 178320, Note_on_c, 0, 58, 44
3, 178379, Note_on_c, 0, 48, 0
3, 178439, Note_on_c, 0, 58, 0
3, 178439, Note_on_c, 0, 62, 56
3, 178560, Note_on_c, 0, 62, 0
3, 178560, Note_on_c, 0, 57, 0
3, 178560, Note_on_c, 0, 53, 0
3, 178560, Note_on_c, 0, 56, 39
3, 178560, Note_on_c, 0, 50, 67
3, 178560, Note_on_c, 0, 47, 43
3, 178739, Note_on_c, 0, 47, 0
3, 178920, Note_on_c, 0, 50, 0
3, 178920, Note_on_c, 0, 53, 98
3, 178920, Note_on_c, 0, 62, 98
3, 179280, Note_on_c, 0, 62, 0
3, 179280, Note_on_c, 0, 53, 0
3, 179280, Note_on_c, 0, 53, 81
3, 179280, Note_on_c, 0, 62, 81
3, 179640, Note_on_c, 0, 62, 0
3, 179640, Note_on_c, 0, 53, 0
3, 179640, Note_on_c, 0, 40, 0
3, 179640, Note_on_c, 0, 52, 77
3, 179640, Note_on_c, 0, 61, 77
3, 179640, Note_on_c, 0, 40, 55
3, 179729, Note_on_c, 0, 40, 0
3, 179820, Note_on_c, 0, 40, 52
3, 179909, Note_on_c, 0, 40, 0
3, 180000, Note_on_c, 0, 61, 0
3, 180000, Note_on_c, 0, 52, 0
3, 180000, Note_on_c, 0, 56, 0
3, 180000, Note_on_c, 0, 51, 48
3, 180000, Note_on_c, 0, 56, 48
3, 180000, Note_on_c, 0, 60, 48
3, 180000, Note_on_c, 0, 40, 53
3, 180360, Note_on_c, 0, 60, 0
3, 180360, Note_on_c, 0, 51, 0
3, 180360, Note_on_c, 0, 56, 0
3, 180360, Note_on_c, 0, 50, 45
3, 180360, Note_on_c, 0, 53, 45
3, 180360, Note_on_c, 0, 59, 45
3, 180540, Note_on_c, 0, 59, 0
3, 180540, Note_on_c, 0, 53, 0
3, 180540, Note_on_c, 0, 50, 0
3, 180540, Note_on_c, 0, 50, 49
3, 180540, Note_on_c, 0, 53, 49
3, 180540, Note_on_c, 0, 59, 49
3, 180720, Note_on_c, 0, 59, 0
3, 180720, Note_on_c, 0, 53, 0
3, 180720, Note_on_c, 0, 50, 0
3, 180720, Note_on_c, 0, 49, 49
3, 180720, Note_on_c, 0, 53, 49
3, 180720, Note_on_c, 0, 58, 49
3, 181080, Note_on_c, 0, 58, 0
3, 181080, Note_on_c, 0, 53, 0
3, 181080, Note_on_c, 0, 49, 0
3, 181080, Note_on_c, 0, 48, 42
3, 181080, Note_on_c, 0, 53, 42
3, 181080, Note_on_c, 0, 57, 42
3, 181440, Note_on_c, 0, 57, 0
3, 181440, Note_on_c, 0, 53, 0
3, 181440, Note_on_c, 0, 48, 0
3, 181440, Note_on_c, 0, 47, 43
3, 181440, Note_on_c, 0, 50, 43
3, 181440, Note_on_c, 0, 56, 43
3, 181800, Note_on_c, 0, 56, 0
3, 181800, Note_on_c, 0, 50, 0
3, 181800, Note_on_c, 0, 47, 0
3, 181800, Note_on_c, 0, 56, 54
3, 181800, Note_on_c, 0, 62, 54
3, 181800, Note_on_c, 0, 53, 40
3, 181920, Note_on_c, 0, 53, 0
3, 181920, Note_on_c, 0, 50, 46
3, 181980, Note_on_c, 0, 62, 0
3, 181980, Note_on_c, 0, 56, 0
3, 181980, Note_on_c, 0, 56, 45
3, 181980, Note_on_c, 0, 62, 45
3, 182039, Note_on_c, 0, 50, 0
3, 182039, Note_on_c, 0, 53, 46
3, 182160, Note_on_c, 0, 53, 0
3, 182160, Note_on_c, 0, 62, 0
3, 182160, Note_on_c, 0, 56, 0
3, 182160, Note_on_c, 0, 53, 51
3, 182160, Note_on_c, 0, 56, 51
3, 182160, Note_on_c, 0, 62, 51
3, 182160, Note_on_c, 0, 46, 43
3, 182520, Note_on_c, 0, 62, 0
3, 182520, Note_on_c, 0, 56, 0
3, 182520, Note_on_c, 0, 53, 0
3, 182520, Note_on_c, 0, 53, 41
3, 182520, Note_on_c, 0, 56, 41
3, 182520, Note_on_c, 0, 61, 41
3, 182880, Note_on_c, 0, 61, 0
3, 182880, Note_on_c, 0, 53, 0
3, 182880, Note_on_c, 0, 56, 0
3, 182880, Note_on_c, 0, 53, 46
3, 182880, Note_on_c, 0, 56, 46
3, 182880, Note_on_c, 0, 62, 46
3, 183240, Note_on_c, 0, 62, 0
3, 183240, Note_on_c, 0, 53, 0
3, 183240, Note_on_c, 0, 56, 0
3, 183240, Note_on_c, 0, 46, 0
3, 183240, Note_on_c, 0, 56, 45
3, 183240, Note_on_c, 0, 62, 45
3, 183240, Note_on_c, 0, 65, 45
3, 183240, Note_on_c, 0, 47, 52
3, 183420, Note_on_c, 0, 65, 0
3, 183420, Note_on_c, 0, 62, 0
3, 183420, Note_on_c, 0, 56, 0
3, 183420, Note_on_c, 0, 56, 50
3, 183420, Note_on_c, 0, 62, 50
3, 183420, Note_on_c, 0, 65, 50
3, 183600, Note_on_c, 0, 65, 0
3, 183600, Note_on_c, 0, 56, 0
3, 183600, Note_on_c, 0, 62, 0
3, 183600, Note_on_c, 0, 56, 48
3, 183600, Note_on_c, 0, 62, 48
3, 183600, Note_on_c, 0, 64, 48
3, 183960, Note_on_c, 0, 64, 0
3, 183960, Note_on_c, 0, 56, 0
3, 183960, Note_on_c, 0, 62, 0
3, 183960, Note_on_c, 0, 47, 0
3, 183960, Note_on_c, 0, 56, 44
3, 183960, Note_on_c, 0, 59, 44
3, 183960, Note_on_c, 0, 63, 44
3, 184320, Note_on_c, 0, 63, 0
3, 184320, Note_on_c, 0, 59, 0
3, 184320, Note_on_c, 0, 56, 0
3, 184320, Note_on_c, 0, 56, 40
3, 184320, Note_on_c, 0, 59, 40
3, 184320, Note_on_c, 0, 62, 40
3, 184680, Note_on_c, 0, 62, 0
3, 184680, Note_on_c, 0, 59, 0
3, 184680, Note_on_c, 0, 56, 0
3, 184680, Note_on_c, 0, 56, 48
3, 184680, Note_on_c, 0, 62, 48
3, 184680, Note_on_c, 0, 53, 40
3, 184800, Note_on_c, 0, 53, 0
3, 184800, Note_on_c, 0, 50, 41
3, 184860, Note_on_c, 0, 62, 0
3, 184860, Note_on_c, 0, 56, 0
3, 184860, Note_on_c, 0, 56, 47
3, 184860, Note_on_c, 0, 62, 47
3, 184919, Note_on_c, 0, 50, 0
3, 184919, Note_on_c, 0, 53, 48
3, 185040, Note_on_c, 0, 53, 0
3, 185040, Note_on_c, 0, 62, 0
3, 185040, Note_on_c, 0, 56, 0
3, 185040, Note_on_c, 0, 53, 47
3, 185040, Note_on_c, 0, 56, 47
3, 185040, Note_on_c, 0, 62, 47
3, 185040, Note_on_c, 0, 46, 45
3, 185400, Note_on_c, 0, 62, 0
3, 185400, Note_on_c, 0, 56, 0
3, 185400, Note_on_c, 0, 53, 0
3, 185400, Note_on_c, 0, 53, 43
3, 185400, Note_on_c, 0, 56, 43
3, 185400, Note_on_c, 0, 61, 43
3, 185760, Note_on_c, 0, 61, 0
3, 185760, Note_on_c, 0, 53, 0
3, 185760, Note_on_c, 0, 56, 0
3, 185760, Note_on_c, 0, 53, 49
3, 185760, Note_on_c, 0, 56, 49
3, 185760, Note_on_c, 0, 62, 49
3, 186120, Note_on_c, 0, 62, 0
3, 186120, Note_on_c, 0, 53, 0
3, 186120, Note_on_c, 0, 56, 0
3, 186120, Note_on_c, 0, 46, 0
3, 186120, Note_on_c, 0, 53, 49
3, 186120, Note_on_c, 0, 56, 49
3, 186120, Note_on_c, 0, 62, 49
3, 186120, Note_on_c, 0, 47, 43
3, 186240, Note_on_c, 0, 62, 0
3, 186240, Note_on_c, 0, 56, 0
3, 186240, Note_on_c, 0, 53, 0
3, 186240, Note_on_c, 0, 59, 42
3, 186300, Note_on_c, 0, 53, 57
3, 186359, Note_on_c, 0, 59, 0
3, 186359, Note_on_c, 0, 62, 49
3, 186480, Note_on_c, 0, 62, 0
3, 186480, Note_on_c, 0, 53, 0
3, 186480, Note_on_c, 0, 56, 75
3, 186480, Note_on_c, 0, 52, 57
3, 186659, Note_on_c, 0, 52, 0
3, 186840, Note_on_c, 0, 47, 0
3, 186840, Note_on_c, 0, 59, 42
3, 186840, Note_on_c, 0, 51, 55
3, 187019, Note_on_c, 0, 51, 0
3, 187019, Note_on_c, 0, 59, 0
3, 187200, Note_on_c, 0, 59, 44
3, 187200, Note_on_c, 0, 50, 49
3, 187379, Note_on_c, 0, 50, 0
3, 187379, Note_on_c, 0, 59, 0
3, 187560, Note_on_c, 0, 56, 0
3, 187560, Note_on_c, 0, 56, 48
3, 187560, Note_on_c, 0, 62, 48
3, 187560, Note_on_c, 0, 53, 47
3, 187680, Note_on_c, 0, 53, 0
3, 187680, Note_on_c, 0, 50, 44
3, 187740, Note_on_c, 0, 62, 0
3, 187740, Note_on_c, 0, 56, 0
3, 187740, Note_on_c, 0, 56, 48
3, 187740, Note_on_c, 0, 62, 48
3, 187799, Note_on_c, 0, 50, 0
3, 187799, Note_on_c, 0, 53, 44
3, 187920, Note_on_c, 0, 53, 0
3, 187920, Note_on_c, 0, 62, 0
3, 187920, Note_on_c, 0, 56, 0
3, 187920, Note_on_c, 0, 53, 47
3, 187920, Note_on_c, 0, 56, 47
3, 187920, Note_on_c, 0, 62, 47
3, 187920, Note_on_c, 0, 46, 42
3, 188280, Note_on_c, 0, 46, 0
3, 188280, Note_on_c, 0, 56, 0
3, 188280, Note_on_c, 0, 62, 0
3, 188280, Note_on_c, 0, 53, 0
3, 188280, Note_on_c, 0, 53, 52
3, 188280, Note_on_c, 0, 62, 52
3, 188280, Note_on_c, 0, 65, 52
3, 188280, Note_on_c, 0, 50, 46
3, 188400, Note_on_c, 0, 50, 0
3, 188400, Note_on_c, 0, 47, 44
3, 188460, Note_on_c, 0, 62, 0
3, 188460, Note_on_c, 0, 65, 0
3, 188460, Note_on_c, 0, 53, 0
3, 188460, Note_on_c, 0, 53, 42
3, 188460, Note_on_c, 0, 62, 42
3, 188460, Note_on_c, 0, 65, 42
3, 188519, Note_on_c, 0, 47, 0
3, 188519, Note_on_c, 0, 50, 50
3, 188640, Note_on_c, 0, 50, 0
3, 188640, Note_on_c, 0, 65, 0
3, 188640, Note_on_c, 0, 62, 0
3, 188640, Note_on_c, 0, 53, 0
3, 188640, Note_on_c, 0, 53, 43
3, 188640, Note_on_c, 0, 62, 43
3, 188640, Note_on_c, 0, 65, 43
3, 188640, Note_on_c, 0, 44, 47
3, 188819, Note_on_c, 0, 44, 0
3, 189000, Note_on_c, 0, 62, 0
3, 189000, Note_on_c, 0, 65, 0
3, 189000, Note_on_c, 0, 53, 0
3, 189000, Note_on_c, 0, 56, 52
3, 189000, Note_on_c, 0, 62, 52
3, 189000, Note_on_c, 0, 68, 52
3, 189000, Note_on_c, 0, 47, 45
3, 189120, Note_on_c, 0, 47, 0
3, 189120, Note_on_c, 0, 44, 39
3, 189180, Note_on_c, 0, 62, 0
3, 189180, Note_on_c, 0, 68, 0
3, 189180, Note_on_c, 0, 56, 0
3, 189180, Note_on_c, 0, 56, 46
3, 189180, Note_on_c, 0, 62, 46
3, 189180, Note_on_c, 0, 68, 46
3, 189239, Note_on_c, 0, 44, 0
3, 189239, Note_on_c, 0, 47, 47
3, 189360, Note_on_c, 0, 47, 0
3, 189360, Note_on_c, 0, 68, 0
3, 189360, Note_on_c, 0, 40, 0
3, 189360, Note_on_c, 0, 56, 0
3, 189360, Note_on_c, 0, 62, 0
3, 189360, Note_on_c, 0, 56, 45
3, 189360, Note_on_c, 0, 62, 45
3, 189360, Note_on_c, 0, 68, 45
3, 189360, Note_on_c, 0, 40, 45
3, 189720, Note_on_c, 0, 40, 0
3, 189720, Note_on_c, 0, 56, 0
3, 189720, Note_on_c, 0, 62, 0
3, 189720, Note_on_c, 0, 68, 0
3, 189720, Note_on_c, 0, 52, 38
3, 189720, Note_on_c, 0, 40, 46
3, 189840, Note_on_c, 0, 40, 0
3, 189840, Note_on_c, 0, 52, 0
3, 189840, Note_on_c, 0, 48, 43
3, 189840, Note_on_c, 0, 36, 41
3, 189959, Note_on_c, 0, 36, 0
3, 189959, Note_on_c, 0, 48, 0
3, 189959, Note_on_c, 0, 52, 49
3, 189959, Note_on_c, 0, 40, 45
3, 190080, Note_on_c, 0, 40, 0
3, 190080, Note_on_c, 0, 52, 0
3, 190080, Note_on_c, 0, 33, 46
3, 190080, Note_on_c, 0, 45, 46
3, 190440, Note_on_c, 0, 45, 0
3, 190440, Note_on_c, 0, 33, 0
3, 190440, Note_on_c, 0, 64, 38
3, 190440, Note_on_c, 0, 52, 49
3, 190619, Note_on_c, 0, 52, 0
3, 190619, Note_on_c, 0, 64, 0
3, 190800, Note_on_c, 0, 69, 52
3, 190800, Note_on_c, 0, 57, 50
3, 190979, Note_on_c, 0, 57, 0
3, 190979, Note_on_c, 0, 69, 0
3, 191160, Note_on_c, 0, 67, 40
3, 191160, Note_on_c, 0, 52, 44
3, 191339, Note_on_c, 0, 52, 0
3, 191339, Note_on_c, 0, 67, 0
3, 191520, Note_on_c, 0, 69, 63
3, 191520, Note_on_c, 0, 57, 62
3, 192469, Note_on_c, 0, 57, 0
3, 192469, Note_on_c, 0, 69, 0
3, 192600, Note_on_c, 0, 65, 39
3, 192600, Note_on_c, 0, 53, 43
3, 192779, Note_on_c, 0, 53, 0
3, 192779, Note_on_c, 0, 65, 0
3, 192960, Note_on_c, 0, 67, 58
3, 192960, Note_on_c, 0, 55, 56
3, 193909, Note_on_c, 0, 55, 0
3, 193909, Note_on_c, 0, 67, 0
3, 194040, Note_on_c, 0, 64, 37
3, 194040, Note_on_c, 0, 52, 38
3, 194219, Note_on_c, 0, 52, 0
3, 194219, Note_on_c, 0, 64, 0
3, 194400, Note_on_c, 0, 65, 58
3, 194400, Note_on_c, 0, 53, 58
3, 195349, Note_on_c, 0, 53, 0
3, 195349, Note_on_c, 0, 65, 0
3, 195480, Note_on_c, 0, 62, 42
3, 195480, Note_on_c, 0, 50, 50
3, 195659, Note_on_c, 0, 50, 0
3, 195659, Note_on_c, 0, 62, 0
3, 195840, Note_on_c, 0, 60, 46
3, 195840, Note_on_c, 0, 64, 46
3, 195840, Note_on_c, 0, 45, 48
3, 195840, Note_on_c, 0, 52, 48
3, 196019, Note_on_c, 0, 52, 0
3, 196019, Note_on_c, 0, 60, 0
3, 196019, Note_on_c, 0, 64, 0
3, 196019, Note_on_c, 0, 45, 0
3, 196200, Note_on_c, 0, 57, 43
3, 196380, Note_on_c, 0, 57, 0
3, 196380, Note_on_c, 0, 60, 49
3, 196560, Note_on_c, 0, 60, 0
3, 196560, Note_on_c, 0, 47, 39
3, 196739, Note_on_c, 0, 47, 0
3, 196740, Note_on_c, 0, 57, 36
3, 196920, Note_on_c, 0, 57, 0
3, 196920, Note_on_c, 0, 65, 57
3, 197100, Note_on_c, 0, 65, 0
3, 197100, Note_on_c, 0, 62, 43
3, 197280, Note_on_c, 0, 62, 0
3, 197280, Note_on_c, 0, 48, 41
3, 197459, Note_on_c, 0, 48, 0
3, 197460, Note_on_c, 0, 57, 38
3, 197640, Note_on_c, 0, 57, 0
3, 197640, Note_on_c, 0, 67, 53
3, 197640, Note_on_c, 0, 49, 44
3, 197819, Note_on_c, 0, 49, 0
3, 197820, Note_on_c, 0, 67, 0
3, 197820, Note_on_c, 0, 64, 44
3, 198000, Note_on_c, 0, 64, 0
3, 198000, Note_on_c, 0, 50, 47
3, 198179, Note_on_c, 0, 50, 0
3, 198180, Note_on_c, 0, 57, 39
3, 198360, Note_on_c, 0, 57, 0
3, 198360, Note_on_c, 0, 65, 54
3, 198540, Note_on_c, 0, 65, 0
3, 198540, Note_on_c, 0, 59, 46
3, 198720, Note_on_c, 0, 59, 0
3, 198720, Note_on_c, 0, 52, 41
3, 198899, Note_on_c, 0, 52, 0
3, 198900, Note_on_c, 0, 57, 44
3, 199080, Note_on_c, 0, 57, 0
3, 199080, Note_on_c, 0, 64, 54
3, 199260, Note_on_c, 0, 64, 0
3, 199260, Note_on_c, 0, 60, 44
3, 199440, Note_on_c, 0, 60, 0
3, 199440, Note_on_c, 0, 53, 40
3, 199619, Note_on_c, 0, 53, 0
3, 199620, Note_on_c, 0, 60, 41
3, 199800, Note_on_c, 0, 60, 0
3, 199800, Note_on_c, 0, 69, 56
3, 199800, Note_on_c, 0, 52, 43
3, 199980, Note_on_c, 0, 52, 0
3, 199980, Note_on_c, 0, 69, 0
3, 199980, Note_on_c, 0, 64, 42
3, 199980, Note_on_c, 0, 53, 42
3, 200160, Note_on_c, 0, 53, 0
3, 200160, Note_on_c, 0, 64, 0
3, 200160, Note_on_c, 0, 54, 51
3, 200340, Note_on_c, 0, 64, 40
3, 200520, Note_on_c, 0, 64, 0
3, 200520, Note_on_c, 0, 54, 0
3, 200520, Note_on_c, 0, 72, 54
3, 200700, Note_on_c, 0, 72, 0
3, 200700, Note_on_c, 0, 69, 41
3, 200880, Note_on_c, 0, 69, 0
3, 200880, Note_on_c, 0, 55, 43
3, 201059, Note_on_c, 0, 55, 0
3, 201060, Note_on_c, 0, 60, 43
3, 201240, Note_on_c, 0, 60, 0
3, 201240, Note_on_c, 0, 72, 53
3, 201420, Note_on_c, 0, 72, 0
3, 201420, Note_on_c, 0, 64, 34
3, 201600, Note_on_c, 0, 64, 0
3, 201600, Note_on_c, 0, 56, 38
3, 201779, Note_on_c, 0, 56, 0
3, 201780, Note_on_c, 0, 62, 38
3, 201960, Note_on_c, 0, 62, 0
3, 201960, Note_on_c, 0, 71, 55
3, 202140, Note_on_c, 0, 71, 0
3, 202140, Note_on_c, 0, 65, 40
3, 202320, Note_on_c, 0, 65, 0
3, 202320, Note_on_c, 0, 57, 41
3, 202499, Note_on_c, 0, 57, 0
3, 202500, Note_on_c, 0, 60, 42
3, 202680, Note_on_c, 0, 60, 0
3, 202680, Note_on_c, 0, 72, 58
3, 202680, Note_on_c, 0, 56, 50
3, 202860, Note_on_c, 0, 56, 0
3, 202860, Note_on_c, 0, 72, 0
3, 202860, Note_on_c, 0, 64, 41
3, 202860, Note_on_c, 0, 57, 48
3, 203040, Note_on_c, 0, 57, 0
3, 203040, Note_on_c, 0, 64, 0
3, 203040, Note_on_c, 0, 58, 49
3, 203220, Note_on_c, 0, 64, 40
3, 203400, Note_on_c, 0, 64, 0
3, 203400, Note_on_c, 0, 58, 0
3, 203400, Note_on_c, 0, 73, 54
3, 203400, Note_on_c, 0, 57, 42
3, 203580, Note_on_c, 0, 73, 0
3, 203580, Note_on_c, 0, 67, 37
3, 203760, Note_on_c, 0, 67, 0
3, 203760, Note_on_c, 0, 57, 0
3, 203760, Note_on_c, 0, 58, 44
3, 203940, Note_on_c, 0, 64, 43
3, 204120, Note_on_c, 0, 64, 0
3, 204120, Note_on_c, 0, 58, 0
3, 204120, Note_on_c, 0, 74, 58
3, 204120, Note_on_c, 0, 59, 44
3, 204300, Note_on_c, 0, 74, 0
3, 204300, Note_on_c, 0, 68, 40
3, 204480, Note_on_c, 0, 68, 0
3, 204480, Note_on_c, 0, 59, 0
3, 204480, Note_on_c, 0, 60, 49
3, 204480, Note_on_c, 0, 63, 49
3, 204660, Note_on_c, 0, 67, 39
3, 204840, Note_on_c, 0, 67, 0
3, 204840, Note_on_c, 0, 63, 0
3, 204840, Note_on_c, 0, 60, 0
3, 204840, Note_on_c, 0, 75, 55
3, 204840, Note_on_c, 0, 59, 46
3, 205020, Note_on_c, 0, 75, 0
3, 205020, Note_on_c, 0, 69, 40
3, 205200, Note_on_c, 0, 69, 0
3, 205200, Note_on_c, 0, 59, 0
3, 205200, Note_on_c, 0, 60, 50
3, 205380, Note_on_c, 0, 67, 41
3, 205560, Note_on_c, 0, 67, 0
3, 205560, Note_on_c, 0, 60, 0
3, 205560, Note_on_c, 0, 76, 52
3, 205560, Note_on_c, 0, 61, 48
3, 205740, Note_on_c, 0, 76, 0
3, 205740, Note_on_c, 0, 69, 35
3, 205920, Note_on_c, 0, 69, 0
3, 205920, Note_on_c, 0, 61, 0
3, 205920, Note_on_c, 0, 62, 47
3, 206100, Note_on_c, 0, 65, 44
3, 206280, Note_on_c, 0, 65, 0
3, 206280, Note_on_c, 0, 62, 0
3, 206280, Note_on_c, 0, 77, 60
3, 206460, Note_on_c, 0, 77, 0
3, 206460, Note_on_c, 0, 70, 37
3, 206640, Note_on_c, 0, 70, 0
3, 206640, Note_on_c, 0, 63, 41
3, 206820, Note_on_c, 0, 63, 0
3, 206820, Note_on_c, 0, 69, 45
3, 206820, Note_on_c, 0, 64, 45
3, 207000, Note_on_c, 0, 64, 0
3, 207000, Note_on_c, 0, 69, 0
3, 207000, Note_on_c, 0, 75, 48
3, 207000, Note_on_c, 0, 65, 47
3, 207180, Note_on_c, 0, 75, 0
3, 207180, Note_on_c, 0, 70, 41
3, 207360, Note_on_c, 0, 70, 0
3, 207360, Note_on_c, 0, 65, 0
3, 207360, Note_on_c, 0, 69, 52
3, 207360, Note_on_c, 0, 72, 52
3, 207360, Note_on_c, 0, 76, 52
3, 207360, Note_on_c, 0, 64, 41
3, 207720, Note_on_c, 0, 64, 0
3, 207720, Note_on_c, 0, 69, 0
3, 207720, Note_on_c, 0, 72, 0
3, 207720, Note_on_c, 0, 76, 0
3, 207720, Note_on_c, 0, 62, 28
3, 207720, Note_on_c, 0, 64, 28
3, 207720, Note_on_c, 0, 50, 46
3, 207720, Note_on_c, 0, 59, 46
3, 207899, Note_on_c, 0, 59, 0
3, 207899, Note_on_c, 0, 62, 0
3, 207899, Note_on_c, 0, 64, 0
3, 207899, Note_on_c, 0, 50, 0
3, 208080, Note_on_c, 0, 60, 50
3, 208080, Note_on_c, 0, 64, 50
3, 208080, Note_on_c, 0, 69, 50
3, 208080, Note_on_c, 0, 48, 45
3, 208080, Note_on_c, 0, 57, 45
3, 208259, Note_on_c, 0, 57, 0
3, 208259, Note_on_c, 0, 69, 0
3, 208259, Note_on_c, 0, 60, 0
3, 208259, Note_on_c, 0, 64, 0
3, 208259, Note_on_c, 0, 48, 0
3, 208440, Note_on_c, 0, 62, 42
3, 208440, Note_on_c, 0, 64, 42
3, 208440, Note_on_c, 0, 67, 42
3, 208440, Note_on_c, 0, 47, 46
3, 208440, Note_on_c, 0, 55, 46
3, 208619, Note_on_c, 0, 55, 0
3, 208619, Note_on_c, 0, 67, 0
3, 208619, Note_on_c, 0, 62, 0
3, 208619, Note_on_c, 0, 64, 0
3, 208619, Note_on_c, 0, 47, 0
3, 208800, Note_on_c, 0, 60, 47
3, 208800, Note_on_c, 0, 64, 47
3, 208800, Note_on_c, 0, 69, 47
3, 208800, Note_on_c, 0, 45, 46
3, 208800, Note_on_c, 0, 57, 46
3, 208979, Note_on_c, 0, 57, 0
3, 208979, Note_on_c, 0, 45, 0
3, 209160, Note_on_c, 0, 60, 0
3, 209160, Note_on_c, 0, 64, 0
3, 209160, Note_on_c, 0, 69, 0
3, 209160, Note_on_c, 0, 60, 35
3, 209160, Note_on_c, 0, 64, 35
3, 209160, Note_on_c, 0, 48, 44
3, 209160, Note_on_c, 0, 55, 44
3, 209339, Note_on_c, 0, 55, 0
3, 209339, Note_on_c, 0, 48, 0
3, 209340, Note_on_c, 0, 64, 0
3, 209340, Note_on_c, 0, 60, 0
3, 209340, Note_on_c, 0, 65, 45
3, 209520, Note_on_c, 0, 65, 0
3, 209520, Note_on_c, 0, 59, 44
3, 209520, Note_on_c, 0, 62, 44
3, 209520, Note_on_c, 0, 67, 44
3, 209520, Note_on_c, 0, 43, 46
3, 209520, Note_on_c, 0, 55, 46
3, 209700, Note_on_c, 0, 55, 0
3, 209700, Note_on_c, 0, 43, 0
3, 209700, Note_on_c, 0, 45, 39
3, 209880, Note_on_c, 0, 45, 0
3, 209880, Note_on_c, 0, 67, 0
3, 209880, Note_on_c, 0, 62, 0
3, 209880, Note_on_c, 0, 59, 0
3, 209880, Note_on_c, 0, 58, 54
3, 209880, Note_on_c, 0, 62, 54
3, 209880, Note_on_c, 0, 46, 60
3, 209880, Note_on_c, 0, 53, 60
3, 210060, Note_on_c, 0, 64, 49
3, 210240, Note_on_c, 0, 64, 0
3, 210240, Note_on_c, 0, 65, 48
3, 210600, Note_on_c, 0, 65, 0
3, 210600, Note_on_c, 0, 53, 0
3, 210600, Note_on_c, 0, 58, 0
3, 210600, Note_on_c, 0, 62, 0
3, 210600, Note_on_c, 0, 46, 0
3, 210600, Note_on_c, 0, 57, 43
3, 210600, Note_on_c, 0, 60, 43
3, 210600, Note_on_c, 0, 63, 43
3, 210600, Note_on_c, 0, 41, 43
3, 210600, Note_on_c, 0, 53, 43
3, 210779, Note_on_c, 0, 53, 0
3, 210779, Note_on_c, 0, 63, 0
3, 210779, Note_on_c, 0, 57, 0
3, 210779, Note_on_c, 0, 60, 0
3, 210779, Note_on_c, 0, 41, 0
3, 210960, Note_on_c, 0, 64, 46
3, 211140, Note_on_c, 0, 64, 0
3, 211140, Note_on_c, 0, 63, 41
3, 211320, Note_on_c, 0, 63, 0
3, 211320, Note_on_c, 0, 60, 60
3, 211320, Note_on_c, 0, 64, 60
3, 211320, Note_on_c, 0, 44, 39
3, 211320, Note_on_c, 0, 56, 39
3, 211637, Note_on_c, 0, 60, 0
3, 211680, Note_on_c, 0, 56, 0
3, 211680, Note_on_c, 0, 44, 0
3, 211680, Note_on_c, 0, 55, 45
3, 211680, Note_on_c, 0, 59, 45
3, 211680, Note_on_c, 0, 40, 41
3, 211680, Note_on_c, 0, 52, 41
3, 212040, Note_on_c, 0, 52, 0
3, 212040, Note_on_c, 0, 59, 0
3, 212040, Note_on_c, 0, 64, 0
3, 212040, Note_on_c, 0, 55, 0
3, 212040, Note_on_c, 0, 40, 0
3, 212040, Note_on_c, 0, 61, 40
3, 212040, Note_on_c, 0, 58, 80
3, 212040, Note_on_c, 0, 42, 62
3, 212040, Note_on_c, 0, 54, 62
3, 212400, Note_on_c, 0, 61, 0
3, 212400, Note_on_c, 0, 62, 45
3, 212580, Note_on_c, 0, 62, 0
3, 212580, Note_on_c, 0, 61, 41
3, 212673, Note_on_c, 0, 54, 0
3, 212673, Note_on_c, 0, 42, 0
3, 212760, Note_on_c, 0, 58, 0
3, 212760, Note_on_c, 0, 61, 0
3, 212760, Note_on_c, 0, 58, 58
3, 212760, Note_on_c, 0, 62, 58
3, 212760, Note_on_c, 0, 41, 45
3, 212760, Note_on_c, 0, 53, 45
3, 212939, Note_on_c, 0, 53, 0
3, 212939, Note_on_c, 0, 41, 0
3, 213077, Note_on_c, 0, 58, 0
3, 213120, Note_on_c, 0, 53, 42
3, 213120, Note_on_c, 0, 57, 42
3, 213120, Note_on_c, 0, 38, 43
3, 213120, Note_on_c, 0, 50, 43
3, 213299, Note_on_c, 0, 50, 0
3, 213299, Note_on_c, 0, 38, 0
3, 213480, Note_on_c, 0, 62, 0
3, 213480, Note_on_c, 0, 53, 0
3, 213480, Note_on_c, 0, 57, 0
3, 213480, Note_on_c, 0, 56, 68
3, 213480, Note_on_c, 0, 58, 68
3, 213480, Note_on_c, 0, 40, 72
3, 213480, Note_on_c, 0, 52, 72
3, 213659, Note_on_c, 0, 52, 0
3, 213659, Note_on_c, 0, 40, 0
3, 213660, Note_on_c, 0, 58, 0
3, 213660, Note_on_c, 0, 56, 0
3, 213660, Note_on_c, 0, 59, 46
3, 213840, Note_on_c, 0, 59, 0
3, 213840, Note_on_c, 0, 60, 47
3, 214019, Note_on_c, 0, 60, 0
3, 214200, Note_on_c, 0, 51, 42
3, 214200, Note_on_c, 0, 55, 42
3, 214200, Note_on_c, 0, 59, 42
3, 214200, Note_on_c, 0, 36, 68
3, 214200, Note_on_c, 0, 43, 68
3, 214200, Note_on_c, 0, 48, 68
3, 214560, Note_on_c, 0, 48, 0
3, 214560, Note_on_c, 0, 55, 0
3, 214560, Note_on_c, 0, 59, 0
3, 214560, Note_on_c, 0, 51, 0
3, 214560, Note_on_c, 0, 43, 0
3, 214560, Note_on_c, 0, 36, 0
3, 214560, Note_on_c, 0, 60, 46
3, 214920, Note_on_c, 0, 60, 0
3, 214920, Note_on_c, 0, 54, 66
3, 214920, Note_on_c, 0, 57, 66
3, 214920, Note_on_c, 0, 38, 69
3, 214920, Note_on_c, 0, 45, 69
3, 214920, Note_on_c, 0, 50, 69
3, 215100, Note_on_c, 0, 57, 0
3, 215100, Note_on_c, 0, 54, 0
3, 215100, Note_on_c, 0, 58, 49
3, 215280, Note_on_c, 0, 58, 0
3, 215280, Note_on_c, 0, 50, 0
3, 215280, Note_on_c, 0, 38, 0
3, 215280, Note_on_c, 0, 45, 0
3, 215280, Note_on_c, 0, 59, 48
3, 215640, Note_on_c, 0, 59, 0
3, 215640, Note_on_c, 0, 50, 68
3, 215640, Note_on_c, 0, 53, 68
3, 215640, Note_on_c, 0, 56, 68
3, 215640, Note_on_c, 0, 41, 64
3, 215820, Note_on_c, 0, 56, 0
3, 215820, Note_on_c, 0, 50, 0
3, 215820, Note_on_c, 0, 53, 0
3, 215820, Note_on_c, 0, 57, 43
3, 216000, Note_on_c, 0, 57, 0
3, 216000, Note_on_c, 0, 41, 0
3, 216000, Note_on_c, 0, 50, 72
3, 216000, Note_on_c, 0, 53, 72
3, 216000, Note_on_c, 0, 58, 72
3, 216000, Note_on_c, 0, 34, 77
3, 216000, Note_on_c, 0, 46, 77
3, 216360, Note_on_c, 0, 46, 0
3, 216360, Note_on_c, 0, 58, 0
3, 216360, Note_on_c, 0, 50, 0
3, 216360, Note_on_c, 0, 53, 0
3, 216360, Note_on_c, 0, 34, 0
3, 216360, Note_on_c, 0, 56, 44
3, 216360, Note_on_c, 0, 58, 44
3, 216360, Note_on_c, 0, 36, 49
3, 216360, Note_on_c, 0, 48, 49
3, 216539, Note_on_c, 0, 58, 0
3, 216539, Note_on_c, 0, 56, 0
3, 216720, Note_on_c, 0, 36, 0
3, 216720, Note_on_c, 0, 48, 0
3, 216720, Note_on_c, 0, 56, 49
3, 216720, Note_on_c, 0, 58, 49
3, 216720, Note_on_c, 0, 37, 44
3, 216720, Note_on_c, 0, 49, 44
3, 216899, Note_on_c, 0, 58, 0
3, 216899, Note_on_c, 0, 56, 0
3, 217080, Note_on_c, 0, 37, 0
3, 217080, Note_on_c, 0, 49, 0
3, 217080, Note_on_c, 0, 56, 46
3, 217080, Note_on_c, 0, 58, 46
3, 217080, Note_on_c, 0, 38, 45
3, 217080, Note_on_c, 0, 50, 45
3, 217259, Note_on_c, 0, 58, 0
3, 217259, Note_on_c, 0, 56, 0
3, 217440, Note_on_c, 0, 38, 0
3, 217440, Note_on_c, 0, 50, 0
3, 217440, Note_on_c, 0, 54, 49
3, 217440, Note_on_c, 0, 58, 49
3, 217440, Note_on_c, 0, 39, 50
3, 217440, Note_on_c, 0, 51, 50
3, 217619, Note_on_c, 0, 58, 0
3, 217619, Note_on_c, 0, 54, 0
3, 217800, Note_on_c, 0, 39, 0
3, 217800, Note_on_c, 0, 51, 0
3, 217800, Note_on_c, 0, 57, 54
3, 217800, Note_on_c, 0, 61, 54
3, 217800, Note_on_c, 0, 40, 42
3, 217800, Note_on_c, 0, 52, 42
3, 217979, Note_on_c, 0, 61, 0
3, 217979, Note_on_c, 0, 57, 0
3, 218160, Note_on_c, 0, 40, 0
3, 218160, Note_on_c, 0, 52, 0
3, 218160, Note_on_c, 0, 57, 51
3, 218160, Note_on_c, 0, 62, 51
3, 218160, Note_on_c, 0, 41, 47
3, 218160, Note_on_c, 0, 53, 47
3, 218339, Note_on_c, 0, 62, 0
3, 218339, Note_on_c, 0, 57, 0
3, 218520, Note_on_c, 0, 41, 0
3, 218520, Note_on_c, 0, 53, 0
3, 218520, Note_on_c, 0, 61, 49
3, 218520, Note_on_c, 0, 64, 49
3, 218520, Note_on_c, 0, 43, 48
3, 218520, Note_on_c, 0, 55, 48
3, 218699, Note_on_c, 0, 64, 0
3, 218699, Note_on_c, 0, 61, 0
3, 218880, Note_on_c, 0, 43, 0
3, 218880, Note_on_c, 0, 55, 0
3, 218880, Note_on_c, 0, 62, 52
3, 218880, Note_on_c, 0, 65, 52
3, 218880, Note_on_c, 0, 45, 45
3, 218880, Note_on_c, 0, 57, 45
3, 219240, Note_on_c, 0, 57, 0
3, 219240, Note_on_c, 0, 62, 0
3, 219240, Note_on_c, 0, 65, 0
3, 219240, Note_on_c, 0, 45, 0
3, 219240, Note_on_c, 0, 58, 66
3, 219240, Note_on_c, 0, 55, 73
3, 219240, Note_on_c, 0, 46, 38
3, 219420, Note_on_c, 0, 46, 0
3, 219420, Note_on_c, 0, 58, 0
3, 219420, Note_on_c, 0, 59, 50
3, 219420, Note_on_c, 0, 47, 47
3, 219600, Note_on_c, 0, 47, 0
3, 219600, Note_on_c, 0, 59, 0
3, 219600, Note_on_c, 0, 60, 51
3, 219600, Note_on_c, 0, 48, 52
3, 219960, Note_on_c, 0, 48, 0
3, 219960, Note_on_c, 0, 60, 0
3, 219960, Note_on_c, 0, 55, 0
3, 219960, Note_on_c, 0, 57, 72
3, 219960, Note_on_c, 0, 54, 75
3, 219960, Note_on_c, 0, 45, 42
3, 220140, Note_on_c, 0, 45, 0
3, 220140, Note_on_c, 0, 57, 0
3, 220140, Note_on_c, 0, 58, 47
3, 220140, Note_on_c, 0, 46, 47
3, 220320, Note_on_c, 0, 46, 0
3, 220320, Note_on_c, 0, 58, 0
3, 220320, Note_on_c, 0, 59, 50
3, 220320, Note_on_c, 0, 47, 45
3, 220680, Note_on_c, 0, 47, 0
3, 220680, Note_on_c, 0, 59, 0
3, 220680, Note_on_c, 0, 54, 0
3, 220680, Note_on_c, 0, 55, 69
3, 220680, Note_on_c, 0, 53, 75
3, 220680, Note_on_c, 0, 43, 43
3, 220860, Note_on_c, 0, 43, 0
3, 220860, Note_on_c, 0, 55, 0
3, 220860, Note_on_c, 0, 56, 48
3, 220860, Note_on_c, 0, 44, 54
3, 221040, Note_on_c, 0, 44, 0
3, 221040, Note_on_c, 0, 56, 0
3, 221040, Note_on_c, 0, 57, 47
3, 221040, Note_on_c, 0, 45, 50
3, 221400, Note_on_c, 0, 45, 0
3, 221400, Note_on_c, 0, 57, 0
3, 221400, Note_on_c, 0, 53, 0
3, 221400, Note_on_c, 0, 57, 71
3, 221400, Note_on_c, 0, 52, 77
3, 221400, Note_on_c, 0, 48, 46
3, 221760, Note_on_c, 0, 48, 0
3, 221760, Note_on_c, 0, 52, 0
3, 221760, Note_on_c, 0, 57, 0
3, 221760, Note_on_c, 0, 52, 48
3, 221760, Note_on_c, 0, 56, 48
3, 221760, Note_on_c, 0, 59, 48
3, 221760, Note_on_c, 0, 44, 41
3, 222120, Note_on_c, 0, 44, 0
3, 222120, Note_on_c, 0, 52, 0
3, 222120, Note_on_c, 0, 56, 0
3, 222120, Note_on_c, 0, 59, 0
3, 222120, Note_on_c, 0, 56, 44
3, 222120, Note_on_c, 0, 59, 44
3, 222120, Note_on_c, 0, 51, 48
3, 222120, Note_on_c, 0, 47, 68
3, 222300, Note_on_c, 0, 59, 0
3, 222300, Note_on_c, 0, 56, 0
3, 222300, Note_on_c, 0, 57, 45
3, 222437, Note_on_c, 0, 47, 0
3, 222480, Note_on_c, 0, 57, 0
3, 222480, Note_on_c, 0, 58, 48
3, 222480, Note_on_c, 0, 43, 58
3, 222480, Note_on_c, 0, 55, 58
3, 222840, Note_on_c, 0, 55, 0
3, 222840, Note_on_c, 0, 51, 0
3, 222840, Note_on_c, 0, 58, 0
3, 222840, Note_on_c, 0, 43, 0
3, 222840, Note_on_c, 0, 55, 43
3, 222840, Note_on_c, 0, 58, 43
3, 222840, Note_on_c, 0, 51, 48
3, 222840, Note_on_c, 0, 46, 63
3, 223020, Note_on_c, 0, 58, 0
3, 223020, Note_on_c, 0, 55, 0
3, 223020, Note_on_c, 0, 56, 47
3, 223157, Note_on_c, 0, 46, 0
3, 223200, Note_on_c, 0, 56, 0
3, 223200, Note_on_c, 0, 57, 50
3, 223200, Note_on_c, 0, 42, 45
3, 223200, Note_on_c, 0, 54, 45
3, 223560, Note_on_c, 0, 54, 0
3, 223560, Note_on_c, 0, 51, 0
3, 223560, Note_on_c, 0, 57, 0
3, 223560, Note_on_c, 0, 42, 0
3, 223560, Note_on_c, 0, 54, 40
3, 223560, Note_on_c, 0, 57, 40
3, 223560, Note_on_c, 0, 49, 43
3, 223560, Note_on_c, 0, 45, 60
3, 223740, Note_on_c, 0, 57, 0
3, 223740, Note_on_c, 0, 54, 0
3, 223740, Note_on_c, 0, 55, 43
3, 223920, Note_on_c, 0, 55, 0
3, 223920, Note_on_c, 0, 45, 0
3, 223920, Note_on_c, 0, 56, 49
3, 223920, Note_on_c, 0, 41, 58
3, 223920, Note_on_c, 0, 53, 58
3, 224280, Note_on_c, 0, 53, 0
3, 224280, Note_on_c, 0, 49, 0
3, 224280, Note_on_c, 0, 56, 0
3, 224280, Note_on_c, 0, 41, 0
3, 224280, Note_on_c, 0, 53, 48
3, 224280, Note_on_c, 0, 56, 48
3, 224280, Note_on_c, 0, 44, 47
3, 224280, Note_on_c, 0, 49, 47
3, 224459, Note_on_c, 0, 49, 0
3, 224459, Note_on_c, 0, 44, 0
3, 224640, Note_on_c, 0, 56, 0
3, 224640, Note_on_c, 0, 53, 0
3, 224640, Note_on_c, 0, 52, 46
3, 224640, Note_on_c, 0, 40, 43
3, 224819, Note_on_c, 0, 40, 0
3, 224819, Note_on_c, 0, 52, 0
3, 225000, Note_on_c, 0, 53, 52
3, 225000, Note_on_c, 0, 57, 52
3, 225000, Note_on_c, 0, 41, 42
3, 225180, Note_on_c, 0, 41, 0
3, 225180, Note_on_c, 0, 57, 0
3, 225180, Note_on_c, 0, 53, 0
3, 225180, Note_on_c, 0, 54, 46
3, 225180, Note_on_c, 0, 42, 52
3, 225360, Note_on_c, 0, 42, 0
3, 225360, Note_on_c, 0, 54, 0
3, 225360, Note_on_c, 0, 55, 50
3, 225360, Note_on_c, 0, 59, 50
3, 225360, Note_on_c, 0, 43, 43
3, 225539, Note_on_c, 0, 43, 0
3, 225539, Note_on_c, 0, 59, 0
3, 225539, Note_on_c, 0, 55, 0
3, 225720, Note_on_c, 0, 51, 42
3, 225720, Note_on_c, 0, 57, 42
3, 225720, Note_on_c, 0, 59, 42
3, 225720, Note_on_c, 0, 39, 45
3, 225899, Note_on_c, 0, 39, 0
3, 225899, Note_on_c, 0, 51, 0
3, 225899, Note_on_c, 0, 57, 0
3, 225899, Note_on_c, 0, 59, 0
3, 226080, Note_on_c, 0, 52, 49
3, 226080, Note_on_c, 0, 55, 49
3, 226080, Note_on_c, 0, 59, 49
3, 226080, Note_on_c, 0, 40, 49
3, 226259, Note_on_c, 0, 40, 0
3, 226440, Note_on_c, 0, 52, 0
3, 226440, Note_on_c, 0, 55, 0
3, 226440, Note_on_c, 0, 59, 0
3, 226440, Note_on_c, 0, 51, 42
3, 226440, Note_on_c, 0, 55, 42
3, 226440, Note_on_c, 0, 39, 42
3, 226620, Note_on_c, 0, 39, 0
3, 226620, Note_on_c, 0, 55, 0
3, 226620, Note_on_c, 0, 51, 0
3, 226620, Note_on_c, 0, 52, 46
3, 226620, Note_on_c, 0, 40, 47
3, 226800, Note_on_c, 0, 40, 0
3, 226800, Note_on_c, 0, 52, 0
3, 226800, Note_on_c, 0, 53, 50
3, 226800, Note_on_c, 0, 57, 50
3, 226800, Note_on_c, 0, 41, 49
3, 226979, Note_on_c, 0, 41, 0
3, 226979, Note_on_c, 0, 57, 0
3, 226979, Note_on_c, 0, 53, 0
3, 227160, Note_on_c, 0, 49, 47
3, 227160, Note_on_c, 0, 55, 47
3, 227160, Note_on_c, 0, 57, 47
3, 227160, Note_on_c, 0, 37, 43
3, 227339, Note_on_c, 0, 37, 0
3, 227339, Note_on_c, 0, 49, 0
3, 227339, Note_on_c, 0, 55, 0
3, 227339, Note_on_c, 0, 57, 0
3, 227520, Note_on_c, 0, 50, 44
3, 227520, Note_on_c, 0, 53, 44
3, 227520, Note_on_c, 0, 57, 44
3, 227520, Note_on_c, 0, 38, 50
3, 227700, Note_on_c, 0, 38, 0
3, 227700, Note_on_c, 0, 50, 0
3, 227700, Note_on_c, 0, 53, 0
3, 227700, Note_on_c, 0, 57, 0
3, 227700, Note_on_c, 0, 51, 43
3, 227700, Note_on_c, 0, 39, 42
3, 227880, Note_on_c, 0, 39, 0
3, 227880, Note_on_c, 0, 51, 0
3, 227880, Note_on_c, 0, 52, 49
3, 227880, Note_on_c, 0, 55, 49
3, 227880, Note_on_c, 0, 40, 48
3, 228060, Note_on_c, 0, 40, 0
3, 228060, Note_on_c, 0, 55, 0
3, 228060, Note_on_c, 0, 52, 0
3, 228060, Note_on_c, 0, 51, 43
3, 228060, Note_on_c, 0, 39, 42
3, 228240, Note_on_c, 0, 39, 0
3, 228240, Note_on_c, 0, 51, 0
3, 228240, Note_on_c, 0, 52, 47
3, 228240, Note_on_c, 0, 55, 47
3, 228240, Note_on_c, 0, 40, 45
3, 228419, Note_on_c, 0, 40, 0
3, 228419, Note_on_c, 0, 55, 0
3, 228419, Note_on_c, 0, 52, 0
3, 228600, Note_on_c, 0, 47, 44
3, 228600, Note_on_c, 0, 53, 44
3, 228600, Note_on_c, 0, 55, 44
3, 228600, Note_on_c, 0, 35, 42
3, 228779, Note_on_c, 0, 35, 0
3, 228779, Note_on_c, 0, 47, 0
3, 228779, Note_on_c, 0, 53, 0
3, 228779, Note_on_c, 0, 55, 0
3, 228960, Note_on_c, 0, 48, 44
3, 228960, Note_on_c, 0, 52, 44
3, 228960, Note_on_c, 0, 55, 44
3, 228960, Note_on_c, 0, 36, 47
3, 229140, Note_on_c, 0, 36, 0
3, 229140, Note_on_c, 0, 48, 0
3, 229140, Note_on_c, 0, 52, 0
3, 229140, Note_on_c, 0, 55, 0
3, 229140, Note_on_c, 0, 49, 38
3, 229140, Note_on_c, 0, 37, 49
3, 229320, Note_on_c, 0, 37, 0
3, 229320, Note_on_c, 0, 49, 0
3, 229320, Note_on_c, 0, 50, 49
3, 229320, Note_on_c, 0, 52, 49
3, 229320, Note_on_c, 0, 55, 49
3, 229320, Note_on_c, 0, 38, 46
3, 229500, Note_on_c, 0, 38, 0
3, 229500, Note_on_c, 0, 50, 0
3, 229500, Note_on_c, 0, 52, 0
3, 229500, Note_on_c, 0, 55, 0
3, 229500, Note_on_c, 0, 49, 41
3, 229500, Note_on_c, 0, 37, 47
3, 229680, Note_on_c, 0, 37, 0
3, 229680, Note_on_c, 0, 49, 0
3, 229680, Note_on_c, 0, 50, 46
3, 229680, Note_on_c, 0, 53, 46
3, 229680, Note_on_c, 0, 38, 45
3, 229859, Note_on_c, 0, 38, 0
3, 229859, Note_on_c, 0, 53, 0
3, 229859, Note_on_c, 0, 50, 0
3, 230040, Note_on_c, 0, 45, 51
3, 230040, Note_on_c, 0, 49, 51
3, 230040, Note_on_c, 0, 53, 51
3, 230040, Note_on_c, 0, 33, 40
3, 230219, Note_on_c, 0, 33, 0
3, 230219, Note_on_c, 0, 45, 0
3, 230219, Note_on_c, 0, 49, 0
3, 230219, Note_on_c, 0, 53, 0
3, 230400, Note_on_c, 0, 46, 42
3, 230400, Note_on_c, 0, 50, 42
3, 230400, Note_on_c, 0, 53, 42
3, 230400, Note_on_c, 0, 34, 48
3, 230579, Note_on_c, 0, 34, 0
3, 230579, Note_on_c, 0, 46, 0
3, 230579, Note_on_c, 0, 50, 0
3, 230579, Note_on_c, 0, 53, 0
3, 230760, Note_on_c, 0, 47, 45
3, 230760, Note_on_c, 0, 52, 45
3, 230760, Note_on_c, 0, 35, 44
3, 230939, Note_on_c, 0, 35, 0
3, 230940, Note_on_c, 0, 52, 0
3, 230940, Note_on_c, 0, 47, 0
3, 230940, Note_on_c, 0, 50, 46
3, 231120, Note_on_c, 0, 50, 0
3, 231120, Note_on_c, 0, 52, 49
3, 231120, Note_on_c, 0, 48, 76
3, 231120, Note_on_c, 0, 36, 47
3, 231299, Note_on_c, 0, 36, 0
3, 231299, Note_on_c, 0, 48, 0
3, 231480, Note_on_c, 0, 47, 70
3, 231480, Note_on_c, 0, 35, 38
3, 231659, Note_on_c, 0, 35, 0
3, 231659, Note_on_c, 0, 47, 0
3, 231840, Note_on_c, 0, 45, 40
3, 231840, Note_on_c, 0, 33, 43
3, 232019, Note_on_c, 0, 33, 0
3, 232019, Note_on_c, 0, 45, 0
3, 232019, Note_on_c, 0, 52, 0
3, 232200, Note_on_c, 0, 44, 45
3, 232200, Note_on_c, 0, 50, 45
3, 232200, Note_on_c, 0, 32, 48
3, 232379, Note_on_c, 0, 32, 0
3, 232379, Note_on_c, 0, 50, 0
3, 232379, Note_on_c, 0, 44, 0
3, 232560, Note_on_c, 0, 43, 44
3, 232560, Note_on_c, 0, 50, 44
3, 232560, Note_on_c, 0, 31, 45
3, 232739, Note_on_c, 0, 31, 0
3, 232739, Note_on_c, 0, 50, 0
3, 232739, Note_on_c, 0, 43, 0
3, 232920, Note_on_c, 0, 49, 45
3, 232920, Note_on_c, 0, 52, 45
3, 232920, Note_on_c, 0, 30, 51
3, 232920, Note_on_c, 0, 42, 51
3, 233099, Note_on_c, 0, 42, 0
3, 233099, Note_on_c, 0, 49, 0
3, 233099, Note_on_c, 0, 52, 0
3, 233099, Note_on_c, 0, 30, 0
3, 233280, Note_on_c, 0, 48, 45
3, 233280, Note_on_c, 0, 53, 45
3, 233280, Note_on_c, 0, 29, 45
3, 233280, Note_on_c, 0, 41, 45
3, 233459, Note_on_c, 0, 41, 0
3, 233459, Note_on_c, 0, 29, 0
3, 233640, Note_on_c, 0, 53, 0
3, 233640, Note_on_c, 0, 48, 0
3, 233640, Note_on_c, 0, 48, 44
3, 233640, Note_on_c, 0, 40, 44
3, 233819, Note_on_c, 0, 48, 0
3, 233820, Note_on_c, 0, 40, 0
3, 233820, Note_on_c, 0, 41, 43
3, 234000, Note_on_c, 0, 41, 0
3, 234000, Note_on_c, 0, 48, 42
3, 234000, Note_on_c, 0, 40, 42
3, 234179, Note_on_c, 0, 40, 0
3, 234179, Note_on_c, 0, 48, 0
3, 234360, Note_on_c, 0, 48, 41
3, 234360, Note_on_c, 0, 45, 41
3, 234539, Note_on_c, 0, 45, 0
3, 234539, Note_on_c, 0, 48, 0
3, 234720, Note_on_c, 0, 48, 39
3, 234720, Note_on_c, 0, 40, 39
3, 234899, Note_on_c, 0, 40, 0
3, 234899, Note_on_c, 0, 48, 0
3, 235080, Note_on_c, 0, 48, 37
3, 235080, Note_on_c, 0, 39, 37
3, 235259, Note_on_c, 0, 48, 0
3, 235260, Note_on_c, 0, 39, 0
3, 235260, Note_on_c, 0, 40, 37
3, 235440, Note_on_c, 0, 40, 0
3, 235440, Note_on_c, 0, 48, 36
3, 235440, Note_on_c, 0, 39, 36
3, 235619, Note_on_c, 0, 39, 0
3, 235619, Note_on_c, 0, 48, 0
3, 235800, Note_on_c, 0, 48, 34
3, 235800, Note_on_c, 0, 44, 34
3, 235979, Note_on_c, 0, 44, 0
3, 235979, Note_on_c, 0, 48, 0
3, 236160, Note_on_c, 0, 48, 33
3, 236160, Note_on_c, 0, 40, 33
3, 236339, Note_on_c, 0, 40, 0
3, 236339, Note_on_c, 0, 48, 0
3, 236520, Note_on_c, 0, 49, 31
3, 236520, Note_on_c, 0, 45, 31
3, 236699, Note_on_c, 0, 45, 0
3, 236699, Note_on_c, 0, 49, 0
3, 236880, Note_on_c, 0, 49, 29
3, 236880, Note_on_c, 0, 41, 29
3, 237059, Note_on_c, 0, 41, 0
3, 237059, Note_on_c, 0, 49, 0
3, 237240, Note_on_c, 0, 50, 28
3, 237240, Note_on_c, 0, 45, 28
3, 237419, Note_on_c, 0, 45, 0
3, 237419, Note_on_c, 0, 50, 0
3, 237600, Note_on_c, 0, 50, 26
3, 237600, Note_on_c, 0, 41, 26
3, 237779, Note_on_c, 0, 41, 0
3, 237779, Note_on_c, 0, 50, 0
3, 237960, Note_on_c, 0, 50, 25
3, 237960, Note_on_c, 0, 40, 25
3, 238139, Note_on_c, 0, 50, 0
3, 238140, Note_on_c, 0, 40, 0
3, 238140, Note_on_c, 0, 41, 24
3, 238320, Note_on_c, 0, 41, 0
3, 238320, Note_on_c, 0, 52, 23
3, 238320, Note_on_c, 0, 40, 23
3, 238499, Note_on_c, 0, 40, 0
3, 238499, Note_on_c, 0, 52, 0
3, 238680, Note_on_c, 0, 53, 21
3, 238680, Note_on_c, 0, 38, 21
3, 238859, Note_on_c, 0, 38, 0
3, 238859, Note_on_c, 0, 53, 0
3, 239040, Note_on_c, 0, 48, 20
3, 239040, Note_on_c, 0, 36, 20
3, 239219, Note_on_c, 0, 36, 0
3, 239219, Note_on_c, 0, 48, 0
3, 239400, Note_on_c, 0, 48, 86
3, 239400, Note_on_c, 0, 56, 86
3, 239400, Note_on_c, 0, 39, 80
3, 239579, Note_on_c, 0, 39, 0
3, 239580, Note_on_c, 0, 56, 0
3, 239580, Note_on_c, 0, 48, 0
3, 239580, Note_on_c, 0, 58, 85
3, 239760, Note_on_c, 0, 58, 0
3, 239760, Note_on_c, 0, 48, 77
3, 239760, Note_on_c, 0, 55, 77
3, 239760, Note_on_c, 0, 40, 76
3, 239939, Note_on_c, 0, 40, 0
3, 239939, Note_on_c, 0, 55, 0
3, 239939, Note_on_c, 0, 48, 0
3, 240120, Note_on_c, 0, 48, 83
3, 240120, Note_on_c, 0, 56, 83
3, 240120, Note_on_c, 0, 40, 77
3, 240299, Note_on_c, 0, 40, 0
3, 240299, Note_on_c, 0, 56, 0
3, 240299, Note_on_c, 0, 48, 0
3, 240480, Note_on_c, 0, 48, 79
3, 240480, Note_on_c, 0, 57, 79
3, 240480, Note_on_c, 0, 41, 80
3, 240659, Note_on_c, 0, 41, 0
3, 240659, Note_on_c, 0, 57, 0
3, 240659, Note_on_c, 0, 48, 0
3, 240840, Note_on_c, 0, 57, 78
3, 240840, Note_on_c, 0, 41, 79
3, 241019, Note_on_c, 0, 41, 0
3, 241019, Note_on_c, 0, 57, 0
3, 241200, Note_on_c, 0, 57, 79
3, 241200, Note_on_c, 0, 42, 78
3, 241379, Note_on_c, 0, 42, 0
3, 241379, Note_on_c, 0, 57, 0
3, 241560, Note_on_c, 0, 53, 84
3, 241560, Note_on_c, 0, 55, 84
3, 241560, Note_on_c, 0, 59, 84
3, 241560, Note_on_c, 0, 43, 79
3, 241739, Note_on_c, 0, 43, 0
3, 241739, Note_on_c, 0, 53, 0
3, 241739, Note_on_c, 0, 55, 0
3, 241739, Note_on_c, 0, 59, 0
3, 241920, Note_on_c, 0, 52, 71
3, 241920, Note_on_c, 0, 55, 71
3, 241920, Note_on_c, 0, 36, 68
3, 242099, Note_on_c, 0, 36, 0
3, 242099, Note_on_c, 0, 55, 0
3, 242099, Note_on_c, 0, 52, 0
3, 242280, Note_on_c, 0, 48, 77
3, 242280, Note_on_c, 0, 56, 77
3, 242280, Note_on_c, 0, 38, 80
3, 242459, Note_on_c, 0, 38, 0
3, 242460, Note_on_c, 0, 56, 0
3, 242460, Note_on_c, 0, 48, 0
3, 242460, Note_on_c, 0, 58, 82
3, 242640, Note_on_c, 0, 58, 0
3, 242640, Note_on_c, 0, 48, 74
3, 242640, Note_on_c, 0, 55, 74
3, 242640, Note_on_c, 0, 39, 80
3, 242819, Note_on_c, 0, 39, 0
3, 242819, Note_on_c, 0, 55, 0
3, 242819, Note_on_c, 0, 48, 0
3, 243000, Note_on_c, 0, 48, 77
3, 243000, Note_on_c, 0, 56, 77
3, 243000, Note_on_c, 0, 40, 79
3, 243179, Note_on_c, 0, 40, 0
3, 243179, Note_on_c, 0, 56, 0
3, 243179, Note_on_c, 0, 48, 0
3, 243360, Note_on_c, 0, 48, 78
3, 243360, Note_on_c, 0, 57, 78
3, 243360, Note_on_c, 0, 41, 78
3, 243539, Note_on_c, 0, 41, 0
3, 243539, Note_on_c, 0, 57, 0
3, 243539, Note_on_c, 0, 48, 0
3, 243720, Note_on_c, 0, 48, 78
3, 243720, Note_on_c, 0, 56, 78
3, 243720, Note_on_c, 0, 42, 80
3, 243899, Note_on_c, 0, 42, 0
3, 243899, Note_on_c, 0, 56, 0
3, 243899, Note_on_c, 0, 48, 0
3, 244080, Note_on_c, 0, 48, 74
3, 244080, Note_on_c, 0, 55, 74
3, 244080, Note_on_c, 0, 43, 84
3, 244259, Note_on_c, 0, 43, 0
3, 244259, Note_on_c, 0, 55, 0
3, 244259, Note_on_c, 0, 48, 0
3, 244440, Note_on_c, 0, 50, 82
3, 244440, Note_on_c, 0, 53, 82
3, 244440, Note_on_c, 0, 59, 82
3, 244440, Note_on_c, 0, 44, 81
3, 244619, Note_on_c, 0, 44, 0
3, 244619, Note_on_c, 0, 50, 0
3, 244619, Note_on_c, 0, 53, 0
3, 244619, Note_on_c, 0, 59, 0
3, 244800, Note_on_c, 0, 56, 80
3, 244800, Note_on_c, 0, 36, 70
3, 244800, Note_on_c, 0, 39, 70
3, 244979, Note_on_c, 0, 39, 0
3, 244979, Note_on_c, 0, 36, 0
3, 244980, Note_on_c, 0, 56, 0
3, 244980, Note_on_c, 0, 58, 75
3, 245160, Note_on_c, 0, 58, 0
3, 245160, Note_on_c, 0, 55, 74
3, 245160, Note_on_c, 0, 40, 80
3, 245339, Note_on_c, 0, 55, 0
3, 245520, Note_on_c, 0, 40, 0
3, 245520, Note_on_c, 0, 53, 84
3, 245520, Note_on_c, 0, 56, 84
3, 245699, Note_on_c, 0, 56, 0
3, 245699, Note_on_c, 0, 53, 0
3, 245880, Note_on_c, 0, 56, 76
3, 246059, Note_on_c, 0, 56, 0
3, 246240, Note_on_c, 0, 55, 70
3, 246240, Note_on_c, 0, 36, 68
3, 246240, Note_on_c, 0, 40, 68
3, 246419, Note_on_c, 0, 40, 0
3, 246419, Note_on_c, 0, 36, 0
3, 246420, Note_on_c, 0, 55, 0
3, 246420, Note_on_c, 0, 56, 81
3, 246600, Note_on_c, 0, 56, 0
3, 246600, Note_on_c, 0, 53, 71
3, 246600, Note_on_c, 0, 38, 73
3, 246779, Note_on_c, 0, 53, 0
3, 246960, Note_on_c, 0, 38, 0
3, 246960, Note_on_c, 0, 53, 81
3, 246960, Note_on_c, 0, 56, 81
3, 247139, Note_on_c, 0, 56, 0
3, 247139, Note_on_c, 0, 53, 0
3, 247320, Note_on_c, 0, 56, 78
3, 247499, Note_on_c, 0, 56, 0
3, 247680, Note_on_c, 0, 53, 77
3, 247680, Note_on_c, 0, 38, 68
3, 247860, Note_on_c, 0, 53, 0
3, 247860, Note_on_c, 0, 55, 84
3, 248040, Note_on_c, 0, 55, 0
3, 248040, Note_on_c, 0, 38, 0
3, 248040, Note_on_c, 0, 52, 77
3, 248040, Note_on_c, 0, 36, 79
3, 248219, Note_on_c, 0, 52, 0
3, 248400, Note_on_c, 0, 36, 0
3, 248400, Note_on_c, 0, 53, 86
3, 248400, Note_on_c, 0, 59, 86
3, 248579, Note_on_c, 0, 59, 0
3, 248579, Note_on_c, 0, 53, 0
3, 248760, Note_on_c, 0, 56, 78
3, 249120, Note_on_c, 0, 56, 0
3, 249120, Note_on_c, 0, 52, 51
3, 249120, Note_on_c, 0, 36, 48
3, 249300, Note_on_c, 0, 52, 0
3, 249300, Note_on_c, 0, 53, 52
3, 249480, Note_on_c, 0, 36, 0
3, 249480, Note_on_c, 0, 50, 57
3, 249480, Note_on_c, 0, 57, 57
3, 249480, Note_on_c, 0, 38, 53
3, 249840, Note_on_c, 0, 38, 0
3, 249840, Note_on_c, 0, 53, 0
3, 249840, Note_on_c, 0, 50, 0
3, 249840, Note_on_c, 0, 57, 0
3, 250200, Note_on_c, 0, 52, 50
3, 250200, Note_on_c, 0, 56, 50
3, 250200, Note_on_c, 0, 40, 54
3, 250379, Note_on_c, 0, 40, 0
3, 250379, Note_on_c, 0, 56, 0
3, 250379, Note_on_c, 0, 52, 0
3, 250560, Note_on_c, 0, 57, 57
3, 250560, Note_on_c, 0, 45, 57
3, 250739, Note_on_c, 0, 57, 0
3, 250920, Note_on_c, 0, 45, 0
3, 250920, Note_on_c, 0, 55, 54
3, 251099, Note_on_c, 0, 55, 0
3, 251280, Note_on_c, 0, 57, 60
3, 251459, Note_on_c, 0, 57, 0
3, 251640, Note_on_c, 0, 53, 51
3, 251819, Note_on_c, 0, 53, 0
3, 252000, Note_on_c, 0, 55, 55
3, 252179, Note_on_c, 0, 55, 0
3, 252360, Note_on_c, 0, 52, 53
3, 252539, Note_on_c, 0, 52, 0
3, 252720, Note_on_c, 0, 53, 56
3, 252899, Note_on_c, 0, 53, 0
3, 253080, Note_on_c, 0, 51, 51
3, 253259, Note_on_c, 0, 51, 0
3, 253440, Note_on_c, 0, 52, 61
3, 253619, Note_on_c, 0, 52, 0
3, 254520, Note_on_c, 0, 48, 51
3, 254699, Note_on_c, 0, 48, 0
3, 254880, Note_on_c, 0, 50, 56
3, 255059, Note_on_c, 0, 50, 0
3, 255960, Note_on_c, 0, 47, 50
3, 256139, Note_on_c, 0, 47, 0
3, 256320, Note_on_c, 0, 48, 54
3, 256499, Note_on_c, 0, 48, 0
3, 257040, Note_on_c, 0, 45, 52
3, 257219, Note_on_c, 0, 45, 0
3, 257760, Note_on_c, 0, 47, 51
3, 257939, Note_on_c, 0, 47, 0
3, 258480, Note_on_c, 0, 44, 53
3, 258659, Note_on_c, 0, 44, 0
3, 259200, Note_on_c, 0, 45, 54
3, 259379, Note_on_c, 0, 45, 0
3, 260640, Note_on_c, 0, 41, 47
3, 260819, Note_on_c, 0, 41, 0
3, 262080, Note_on_c, 0, 43, 52
3, 262259, Note_on_c, 0, 43, 0
3, 263520, Note_on_c, 0, 38, 52
3, 263699, Note_on_c, 0, 38, 0
3, 264960, Note_on_c, 0, 41, 48
3, 265139, Note_on_c, 0, 41, 0
3, 267840, Note_on_c, 0, 38, 42
3, 268019, Note_on_c, 0, 38, 0
3, 270720, Note_on_c, 0, 54, 71
3, 270720, Note_on_c, 0, 57, 71
3, 270720, Note_on_c, 0, 59, 71
3, 270720, Note_on_c, 0, 39, 69
3, 270720, Note_on_c, 0, 51, 69
3, 271080, Note_on_c, 0, 51, 0
3, 271080, Note_on_c, 0, 59, 0
3, 271080, Note_on_c, 0, 54, 0
3, 271080, Note_on_c, 0, 57, 0
3, 271080, Note_on_c, 0, 39, 0
3, 286560, Note_on_c, 0, 59, 46
3, 286649, Note_on_c, 0, 59, 0
3, 286740, Note_on_c, 0, 70, 70
3, 286829, Note_on_c, 0, 70, 0
3, 286920, Note_on_c, 0, 71, 61
3, 287009, Note_on_c, 0, 71, 0
3, 287100, Note_on_c, 0, 68, 54
3, 287100, Note_on_c, 0, 70, 54
3, 287189, Note_on_c, 0, 70, 0
3, 287189, Note_on_c, 0, 68, 0
3, 287280, Note_on_c, 0, 69, 54
3, 287280, Note_on_c, 0, 71, 54
3, 287369, Note_on_c, 0, 71, 0
3, 287369, Note_on_c, 0, 69, 0
3, 287460, Note_on_c, 0, 66, 50
3, 287549, Note_on_c, 0, 66, 0
3, 287640, Note_on_c, 0, 67, 54
3, 287729, Note_on_c, 0, 67, 0
3, 287820, Note_on_c, 0, 64, 48
3, 287820, Note_on_c, 0, 61, 49
3, 287909, Note_on_c, 0, 64, 0
3, 288000, Note_on_c, 0, 61, 0
3, 288000, Note_on_c, 0, 66, 59
3, 288000, Note_on_c, 0, 63, 59
3, 288089, Note_on_c, 0, 66, 0
3, 288180, Note_on_c, 0, 63, 0
3, 288180, Note_on_c, 0, 70, 62
3, 288269, Note_on_c, 0, 70, 0
3, 288360, Note_on_c, 0, 71, 64
3, 288449, Note_on_c, 0, 71, 0
3, 288540, Note_on_c, 0, 68, 51
3, 288540, Note_on_c, 0, 70, 51
3, 288629, Note_on_c, 0, 70, 0
3, 288629, Note_on_c, 0, 68, 0
3, 288720, Note_on_c, 0, 69, 58
3, 288720, Note_on_c, 0, 71, 58
3, 288809, Note_on_c, 0, 71, 0
3, 288809, Note_on_c, 0, 69, 0
3, 288900, Note_on_c, 0, 66, 45
3, 288989, Note_on_c, 0, 66, 0
3, 289080, Note_on_c, 0, 67, 54
3, 289169, Note_on_c, 0, 67, 0
3, 289260, Note_on_c, 0, 67, 55
3, 289260, Note_on_c, 0, 64, 47
3, 289349, Note_on_c, 0, 67, 0
3, 289440, Note_on_c, 0, 64, 0
3, 289440, Note_on_c, 0, 69, 60
3, 289440, Note_on_c, 0, 66, 61
3, 289529, Note_on_c, 0, 69, 0
3, 289620, Note_on_c, 0, 66, 0
3, 289620, Note_on_c, 0, 70, 59
3, 289709, Note_on_c, 0, 70, 0
3, 289800, Note_on_c, 0, 71, 54
3, 289889, Note_on_c, 0, 71, 0
3, 289980, Note_on_c, 0, 70, 55
3, 289980, Note_on_c, 0, 66, 49
3, 290069, Note_on_c, 0, 70, 0
3, 290160, Note_on_c, 0, 66, 0
3, 290160, Note_on_c, 0, 71, 57
3, 290160, Note_on_c, 0, 67, 60
3, 290249, Note_on_c, 0, 71, 0
3, 290340, Note_on_c, 0, 67, 0
3, 290340, Note_on_c, 0, 70, 55
3, 290429, Note_on_c, 0, 70, 0
3, 290520, Note_on_c, 0, 71, 61
3, 290609, Note_on_c, 0, 71, 0
3, 290700, Note_on_c, 0, 70, 54
3, 290700, Note_on_c, 0, 67, 48
3, 290789, Note_on_c, 0, 70, 0
3, 290880, Note_on_c, 0, 67, 0
3, 290880, Note_on_c, 0, 71, 54
3, 290880, Note_on_c, 0, 68, 57
3, 290969, Note_on_c, 0, 71, 0
3, 291060, Note_on_c, 0, 68, 0
3, 291060, Note_on_c, 0, 70, 53
3, 291149, Note_on_c, 0, 70, 0
3, 291240, Note_on_c, 0, 71, 62
3, 291329, Note_on_c, 0, 71, 0
3, 291420, Note_on_c, 0, 70, 50
3, 291420, Note_on_c, 0, 68, 54
3, 291509, Note_on_c, 0, 70, 0
3, 291600, Note_on_c, 0, 68, 0
3, 291600, Note_on_c, 0, 71, 59
3, 291600, Note_on_c, 0, 69, 59
3, 291689, Note_on_c, 0, 71, 0
3, 291780, Note_on_c, 0, 69, 0
3, 291780, Note_on_c, 0, 70, 55
3, 291869, Note_on_c, 0, 70, 0
3, 291960, Note_on_c, 0, 71, 52
3, 292049, Note_on_c, 0, 71, 0
3, 292140, Note_on_c, 0, 69, 52
3, 292140, Note_on_c, 0, 63, 46
3, 292229, Note_on_c, 0, 69, 0
3, 292320, Note_on_c, 0, 63, 0
3, 292320, Note_on_c, 0, 68, 56
3, 292320, Note_on_c, 0, 64, 58
3, 292500, Note_on_c, 0, 64, 0
3, 292680, Note_on_c, 0, 68, 0
3, 293220, Note_on_c, 0, 71, 50
3, 293400, Note_on_c, 0, 71, 0
3, 293400, Note_on_c, 0, 72, 54
3, 293580, Note_on_c, 0, 72, 0
3, 293580, Note_on_c, 0, 69, 50
3, 293580, Note_on_c, 0, 63, 44
3, 293580, Note_on_c, 0, 66, 44
3, 293760, Note_on_c, 0, 66, 0
3, 293760, Note_on_c, 0, 63, 0
3, 293760, Note_on_c, 0, 69, 0
3, 293760, Note_on_c, 0, 68, 50
3, 293760, Note_on_c, 0, 64, 45
3, 293940, Note_on_c, 0, 64, 0
3, 294120, Note_on_c, 0, 68, 0
3, 294660, Note_on_c, 0, 71, 50
3, 294840, Note_on_c, 0, 71, 0
3, 294840, Note_on_c, 0, 72, 60
3, 295020, Note_on_c, 0, 72, 0
3, 295020, Note_on_c, 0, 69, 49
3, 295020, Note_on_c, 0, 63, 47
3, 295020, Note_on_c, 0, 66, 47
3, 295200, Note_on_c, 0, 66, 0
3, 295200, Note_on_c, 0, 63, 0
3, 295200, Note_on_c, 0, 69, 0
3, 295200, Note_on_c, 0, 68, 51
3, 295200, Note_on_c, 0, 64, 52
3, 295380, Note_on_c, 0, 64, 0
3, 295380, Note_on_c, 0, 68, 0
3, 295740, Note_on_c, 0, 64, 49
3, 295920, Note_on_c, 0, 64, 0
3, 295920, Note_on_c, 0, 66, 60
3, 296100, Note_on_c, 0, 66, 0
3, 296460, Note_on_c, 0, 66, 50
3, 296640, Note_on_c, 0, 66, 0
3, 296640, Note_on_c, 0, 67, 56
3, 296820, Note_on_c, 0, 67, 0
3, 297180, Note_on_c, 0, 67, 49
3, 297360, Note_on_c, 0, 67, 0
3, 297360, Note_on_c, 0, 68, 58
3, 297540, Note_on_c, 0, 68, 0
3, 297900, Note_on_c, 0, 64, 47
3, 297900, Note_on_c, 0, 68, 47
3, 298080, Note_on_c, 0, 68, 0
3, 298080, Note_on_c, 0, 64, 0
3, 298080, Note_on_c, 0, 69, 58
3, 298260, Note_on_c, 0, 69, 0
3, 298260, Note_on_c, 0, 68, 56
3, 298440, Note_on_c, 0, 68, 0
3, 298440, Note_on_c, 0, 69, 59
3, 298620, Note_on_c, 0, 69, 0
3, 298620, Note_on_c, 0, 71, 62
3, 298620, Note_on_c, 0, 65, 49
3, 298800, Note_on_c, 0, 65, 0
3, 298800, Note_on_c, 0, 71, 0
3, 298800, Note_on_c, 0, 72, 58
3, 298800, Note_on_c, 0, 66, 55
3, 298980, Note_on_c, 0, 66, 0
3, 298980, Note_on_c, 0, 72, 0
3, 298980, Note_on_c, 0, 68, 53
3, 299160, Note_on_c, 0, 68, 0
3, 299160, Note_on_c, 0, 69, 58
3, 299340, Note_on_c, 0, 69, 0
3, 299340, Note_on_c, 0, 62, 53
3, 299340, Note_on_c, 0, 69, 53
3, 299340, Note_on_c, 0, 66, 50
3, 299520, Note_on_c, 0, 66, 0
3, 299520, Note_on_c, 0, 69, 0
3, 299520, Note_on_c, 0, 62, 0
3, 299520, Note_on_c, 0, 71, 59
3, 299520, Note_on_c, 0, 67, 58
3, 299700, Note_on_c, 0, 67, 0
3, 299700, Note_on_c, 0, 71, 0
3, 299700, Note_on_c, 0, 70, 56
3, 299880, Note_on_c, 0, 70, 0
3, 299880, Note_on_c, 0, 71, 58
3, 300060, Note_on_c, 0, 71, 0
3, 300060, Note_on_c, 0, 73, 59
3, 300060, Note_on_c, 0, 67, 49
3, 300240, Note_on_c, 0, 67, 0
3, 300240, Note_on_c, 0, 73, 0
3, 300240, Note_on_c, 0, 74, 60
3, 300240, Note_on_c, 0, 68, 59
3, 300420, Note_on_c, 0, 68, 0
3, 300420, Note_on_c, 0, 74, 0
3, 300420, Note_on_c, 0, 70, 51
3, 300600, Note_on_c, 0, 70, 0
3, 300600, Note_on_c, 0, 71, 57
3, 300780, Note_on_c, 0, 71, 0
3, 300780, Note_on_c, 0, 64, 51
3, 300780, Note_on_c, 0, 71, 51
3, 300780, Note_on_c, 0, 68, 44
3, 300960, Note_on_c, 0, 68, 0
3, 300960, Note_on_c, 0, 71, 0
3, 300960, Note_on_c, 0, 64, 0
3, 300960, Note_on_c, 0, 72, 58
3, 300960, Note_on_c, 0, 69, 58
3, 301140, Note_on_c, 0, 69, 0
3, 301140, Note_on_c, 0, 72, 0
3, 301140, Note_on_c, 0, 71, 52
3, 301140, Note_on_c, 0, 65, 48
3, 301320, Note_on_c, 0, 65, 0
3, 301320, Note_on_c, 0, 71, 0
3, 301320, Note_on_c, 0, 72, 63
3, 301320, Note_on_c, 0, 66, 55
3, 301500, Note_on_c, 0, 66, 0
3, 301500, Note_on_c, 0, 72, 0
3, 301500, Note_on_c, 0, 66, 52
3, 301500, Note_on_c, 0, 70, 52
3, 301680, Note_on_c, 0, 70, 0
3, 301680, Note_on_c, 0, 66, 0
3, 301680, Note_on_c, 0, 67, 54
3, 301680, Note_on_c, 0, 71, 54
3, 301860, Note_on_c, 0, 71, 0
3, 301860, Note_on_c, 0, 67, 0
3, 301860, Note_on_c, 0, 68, 50
3, 302040, Note_on_c, 0, 68, 0
3, 302040, Note_on_c, 0, 69, 61
3, 302040, Note_on_c, 0, 72, 61
3, 302220, Note_on_c, 0, 72, 0
3, 302220, Note_on_c, 0, 69, 0
3, 302220, Note_on_c, 0, 64, 55
3, 302220, Note_on_c, 0, 70, 55
3, 302400, Note_on_c, 0, 70, 0
3, 302400, Note_on_c, 0, 64, 0
3, 302400, Note_on_c, 0, 66, 59
3, 302400, Note_on_c, 0, 71, 59
3, 302400, Note_on_c, 0, 59, 47
3, 302400, Note_on_c, 0, 63, 47
3, 302580, Note_on_c, 0, 63, 0
3, 302580, Note_on_c, 0, 66, 0
3, 302580, Note_on_c, 0, 71, 0
3, 302580, Note_on_c, 0, 59, 0
3, 302580, Note_on_c, 0, 70, 50
3, 302760, Note_on_c, 0, 70, 0
3, 302760, Note_on_c, 0, 71, 60
3, 302940, Note_on_c, 0, 71, 0
3, 302940, Note_on_c, 0, 68, 50
3, 303120, Note_on_c, 0, 68, 0
3, 303120, Note_on_c, 0, 69, 59
3, 303300, Note_on_c, 0, 69, 0
3, 303300, Note_on_c, 0, 66, 50
3, 303480, Note_on_c, 0, 66, 0
3, 303480, Note_on_c, 0, 67, 57
3, 303660, Note_on_c, 0, 67, 0
3, 303660, Note_on_c, 0, 66, 50
3, 303660, Note_on_c, 0, 58, 47
3, 303660, Note_on_c, 0, 61, 47
3, 303840, Note_on_c, 0, 61, 0
3, 303840, Note_on_c, 0, 58, 0
3, 303840, Note_on_c, 0, 66, 0
3, 303840, Note_on_c, 0, 66, 59
3, 303840, Note_on_c, 0, 59, 58
3, 303840, Note_on_c, 0, 63, 58
3, 304020, Note_on_c, 0, 63, 0
3, 304020, Note_on_c, 0, 59, 0
3, 304020, Note_on_c, 0, 66, 0
3, 304020, Note_on_c, 0, 70, 60
3, 304200, Note_on_c, 0, 70, 0
3, 304200, Note_on_c, 0, 71, 65
3, 304380, Note_on_c, 0, 71, 0
3, 304380, Note_on_c, 0, 68, 48
3, 304560, Note_on_c, 0, 68, 0
3, 304560, Note_on_c, 0, 69, 63
3, 304740, Note_on_c, 0, 69, 0
3, 304740, Note_on_c, 0, 66, 57
3, 304920, Note_on_c, 0, 66, 0
3, 304920, Note_on_c, 0, 67, 59
3, 305100, Note_on_c, 0, 67, 0
3, 305100, Note_on_c, 0, 69, 60
3, 305100, Note_on_c, 0, 61, 44
3, 305100, Note_on_c, 0, 64, 44
3, 305280, Note_on_c, 0, 64, 0
3, 305280, Note_on_c, 0, 61, 0
3, 305280, Note_on_c, 0, 69, 0
3, 305280, Note_on_c, 0, 69, 61
3, 305280, Note_on_c, 0, 62, 59
3, 305280, Note_on_c, 0, 66, 59
3, 305460, Note_on_c, 0, 66, 0
3, 305460, Note_on_c, 0, 62, 0
3, 305460, Note_on_c, 0, 69, 0
3, 305460, Note_on_c, 0, 73, 62
3, 305640, Note_on_c, 0, 73, 0
3, 305640, Note_on_c, 0, 74, 63
3, 305820, Note_on_c, 0, 74, 0
3, 305820, Note_on_c, 0, 71, 52
3, 306000, Note_on_c, 0, 71, 0
3, 306000, Note_on_c, 0, 72, 57
3, 306180, Note_on_c, 0, 72, 0
3, 306180, Note_on_c, 0, 69, 53
3, 306360, Note_on_c, 0, 69, 0
3, 306360, Note_on_c, 0, 70, 57
3, 306540, Note_on_c, 0, 70, 0
3, 306540, Note_on_c, 0, 70, 54
3, 306540, Note_on_c, 0, 61, 45
3, 306540, Note_on_c, 0, 64, 45
3, 306720, Note_on_c, 0, 64, 0
3, 306720, Note_on_c, 0, 61, 0
3, 306720, Note_on_c, 0, 70, 0
3, 306720, Note_on_c, 0, 69, 53
3, 306720, Note_on_c, 0, 62, 59
3, 306720, Note_on_c, 0, 66, 59
3, 306900, Note_on_c, 0, 66, 0
3, 306900, Note_on_c, 0, 62, 0
3, 306900, Note_on_c, 0, 69, 0
3, 306900, Note_on_c, 0, 73, 58
3, 307080, Note_on_c, 0, 73, 0
3, 307080, Note_on_c, 0, 74, 62
3, 307260, Note_on_c, 0, 74, 0
3, 307260, Note_on_c, 0, 71, 47
3, 307440, Note_on_c, 0, 71, 0
3, 307440, Note_on_c, 0, 72, 56
3, 307620, Note_on_c, 0, 72, 0
3, 307620, Note_on_c, 0, 69, 50
3, 307800, Note_on_c, 0, 69, 0
3, 307800, Note_on_c, 0, 70, 54
3, 307980, Note_on_c, 0, 70, 0
3, 307980, Note_on_c, 0, 68, 49
3, 307980, Note_on_c, 0, 64, 50
3, 308160, Note_on_c, 0, 64, 0
3, 308160, Note_on_c, 0, 68, 0
3, 308160, Note_on_c, 0, 70, 59
3, 308160, Note_on_c, 0, 66, 59
3, 308520, Note_on_c, 0, 66, 0
3, 308520, Note_on_c, 0, 70, 0
3, 308700, Note_on_c, 0, 67, 49
3, 308700, Note_on_c, 0, 71, 49
3, 308700, Note_on_c, 0, 65, 49
3, 308880, Note_on_c, 0, 65, 0
3, 308880, Note_on_c, 0, 71, 0
3, 308880, Note_on_c, 0, 67, 0
3, 308880, Note_on_c, 0, 66, 45
3, 308880, Note_on_c, 0, 70, 45
3, 309060, Note_on_c, 0, 70, 0
3, 309060, Note_on_c, 0, 66, 0
3, 309060, Note_on_c, 0, 67, 59
3, 309060, Note_on_c, 0, 71, 59
3, 309240, Note_on_c, 0, 71, 0
3, 309240, Note_on_c, 0, 67, 0
3, 309240, Note_on_c, 0, 66, 51
3, 309240, Note_on_c, 0, 70, 51
3, 309420, Note_on_c, 0, 70, 0
3, 309420, Note_on_c, 0, 66, 0
3, 309420, Note_on_c, 0, 65, 50
3, 309420, Note_on_c, 0, 67, 50
3, 309600, Note_on_c, 0, 67, 0
3, 309600, Note_on_c, 0, 65, 0
3, 309600, Note_on_c, 0, 66, 60
3, 309600, Note_on_c, 0, 70, 60
3, 309960, Note_on_c, 0, 70, 0
3, 309960, Note_on_c, 0, 66, 0
3, 310140, Note_on_c, 0, 67, 49
3, 310140, Note_on_c, 0, 71, 49
3, 310140, Note_on_c, 0, 65, 52
3, 310320, Note_on_c, 0, 65, 0
3, 310320, Note_on_c, 0, 71, 0
3, 310320, Note_on_c, 0, 67, 0
3, 310320, Note_on_c, 0, 66, 49
3, 310320, Note_on_c, 0, 70, 49
3, 310500, Note_on_c, 0, 70, 0
3, 310500, Note_on_c, 0, 66, 0
3, 310500, Note_on_c, 0, 67, 58
3, 310500, Note_on_c, 0, 71, 58
3, 310680, Note_on_c, 0, 71, 0
3, 310680, Note_on_c, 0, 67, 0
3, 310680, Note_on_c, 0, 66, 59
3, 310680, Note_on_c, 0, 70, 59
3, 310860, Note_on_c, 0, 70, 0
3, 310860, Note_on_c, 0, 66, 0
3, 310860, Note_on_c, 0, 65, 51
3, 310860, Note_on_c, 0, 67, 51
3, 311040, Note_on_c, 0, 67, 0
3, 311040, Note_on_c, 0, 65, 0
3, 311040, Note_on_c, 0, 66, 64
3, 311040, Note_on_c, 0, 70, 64
3, 311400, Note_on_c, 0, 70, 0
3, 311400, Note_on_c, 0, 66, 0
3, 311580, Note_on_c, 0, 66, 48
3, 311580, Note_on_c, 0, 70, 48
3, 311760, Note_on_c, 0, 70, 0
3, 311760, Note_on_c, 0, 66, 0
3, 311760, Note_on_c, 0, 68, 55
3, 311760, Note_on_c, 0, 71, 55
3, 312120, Note_on_c, 0, 71, 0
3, 312120, Note_on_c, 0, 68, 0
3, 312300, Note_on_c, 0, 68, 45
3, 312300, Note_on_c, 0, 71, 45
3, 312480, Note_on_c, 0, 71, 0
3, 312480, Note_on_c, 0, 68, 0
3, 312480, Note_on_c, 0, 70, 58
3, 312480, Note_on_c, 0, 73, 58
3, 312840, Note_on_c, 0, 73, 0
3, 312840, Note_on_c, 0, 70, 0
3, 313020, Note_on_c, 0, 70, 48
3, 313020, Note_on_c, 0, 73, 48
3, 313200, Note_on_c, 0, 73, 0
3, 313200, Note_on_c, 0, 70, 0
3, 313200, Note_on_c, 0, 71, 58
3, 313200, Note_on_c, 0, 75, 58
3, 313560, Note_on_c, 0, 75, 0
3, 313560, Note_on_c, 0, 71, 0
3, 313740, Note_on_c, 0, 71, 48
3, 313740, Note_on_c, 0, 75, 48
3, 313920, Note_on_c, 0, 75, 0
3, 313920, Note_on_c, 0, 71, 0
3, 313920, Note_on_c, 0, 76, 56
3, 314100, Note_on_c, 0, 76, 0
3, 314280, Note_on_c, 0, 76, 53
3, 314280, Note_on_c, 0, 64, 66
3, 314460, Note_on_c, 0, 64, 0
3, 314460, Note_on_c, 0, 76, 0
3, 314460, Note_on_c, 0, 75, 50
3, 314640, Note_on_c, 0, 75, 0
3, 314640, Note_on_c, 0, 76, 60
3, 314820, Note_on_c, 0, 76, 0
3, 314820, Note_on_c, 0, 71, 48
3, 315000, Note_on_c, 0, 71, 0
3, 315000, Note_on_c, 0, 72, 58
3, 315000, Note_on_c, 0, 67, 59
3, 315180, Note_on_c, 0, 67, 0
3, 315180, Note_on_c, 0, 72, 0
3, 315180, Note_on_c, 0, 70, 49
3, 315360, Note_on_c, 0, 70, 0
3, 315360, Note_on_c, 0, 71, 63
3, 315540, Note_on_c, 0, 71, 0
3, 315540, Note_on_c, 0, 66, 49
3, 315720, Note_on_c, 0, 66, 0
3, 315720, Note_on_c, 0, 67, 59
3, 315720, Note_on_c, 0, 64, 48
3, 315900, Note_on_c, 0, 67, 0
3, 315900, Note_on_c, 0, 66, 62
3, 315900, Note_on_c, 0, 70, 62
3, 316080, Note_on_c, 0, 70, 0
3, 316080, Note_on_c, 0, 66, 0
3, 316080, Note_on_c, 0, 67, 57
3, 316080, Note_on_c, 0, 71, 57
3, 316260, Note_on_c, 0, 71, 0
3, 316260, Note_on_c, 0, 67, 0
3, 316260, Note_on_c, 0, 64, 0
3, 316260, Note_on_c, 0, 66, 53
3, 316260, Note_on_c, 0, 70, 53
3, 316260, Note_on_c, 0, 58, 51
3, 316440, Note_on_c, 0, 58, 0
3, 316440, Note_on_c, 0, 70, 0
3, 316440, Note_on_c, 0, 66, 0
3, 316440, Note_on_c, 0, 67, 54
3, 316440, Note_on_c, 0, 71, 54
3, 316440, Note_on_c, 0, 59, 56
3, 316620, Note_on_c, 0, 59, 0
3, 316620, Note_on_c, 0, 71, 0
3, 316620, Note_on_c, 0, 67, 0
3, 316620, Note_on_c, 0, 63, 46
3, 316620, Note_on_c, 0, 66, 46
3, 316800, Note_on_c, 0, 66, 0
3, 316800, Note_on_c, 0, 63, 0
3, 316800, Note_on_c, 0, 67, 61
3, 316800, Note_on_c, 0, 60, 44
3, 316800, Note_on_c, 0, 64, 55
3, 316800, Note_on_c, 0, 40, 50
3, 316800, Note_on_c, 0, 48, 50
3, 316800, Note_on_c, 0, 52, 50
3, 316980, Note_on_c, 0, 64, 0
3, 316980, Note_on_c, 0, 63, 63
3, 317160, Note_on_c, 0, 63, 0
3, 317160, Note_on_c, 0, 64, 68
3, 317340, Note_on_c, 0, 64, 0
3, 317340, Note_on_c, 0, 66, 69
3, 317520, Note_on_c, 0, 66, 0
3, 317520, Note_on_c, 0, 67, 0
3, 317520, Note_on_c, 0, 64, 52
3, 317520, Note_on_c, 0, 67, 67
3, 317700, Note_on_c, 0, 67, 0
3, 317700, Note_on_c, 0, 66, 63
3, 317880, Note_on_c, 0, 66, 0
3, 317880, Note_on_c, 0, 67, 67
3, 319680, Note_on_c, 0, 67, 0
3, 319680, Note_on_c, 0, 60, 0
3, 319680, Note_on_c, 0, 48, 0
3, 319680, Note_on_c, 0, 64, 0
3, 319680, Note_on_c, 0, 59, 59
3, 319680, Note_on_c, 0, 64, 59
3, 319680, Note_on_c, 0, 67, 59
3, 319680, Note_on_c, 0, 47, 58
3, 320040, Note_on_c, 0, 47, 0
3, 320040, Note_on_c, 0, 40, 0
3, 320040, Note_on_c, 0, 59, 0
3, 320040, Note_on_c, 0, 52, 0
3, 320040, Note_on_c, 0, 67, 0
3, 320040, Note_on_c, 0, 64, 0
3, 320400, Note_on_c, 0, 64, 50
3, 320580, Note_on_c, 0, 64, 0
3, 320580, Note_on_c, 0, 75, 73
3, 320760, Note_on_c, 0, 75, 0
3, 320760, Note_on_c, 0, 76, 57
3, 320760, Note_on_c, 0, 67, 65
3, 320940, Note_on_c, 0, 67, 0
3, 320940, Note_on_c, 0, 76, 0
3, 320940, Note_on_c, 0, 70, 45
3, 321120, Note_on_c, 0, 70, 0
3, 321120, Note_on_c, 0, 71, 61
3, 321300, Note_on_c, 0, 71, 0
3, 321300, Note_on_c, 0, 66, 45
3, 321480, Note_on_c, 0, 66, 0
3, 321480, Note_on_c, 0, 67, 59
3, 321480, Note_on_c, 0, 64, 49
3, 321660, Note_on_c, 0, 67, 0
3, 321660, Note_on_c, 0, 66, 62
3, 321660, Note_on_c, 0, 70, 62
3, 321840, Note_on_c, 0, 70, 0
3, 321840, Note_on_c, 0, 66, 0
3, 321840, Note_on_c, 0, 67, 60
3, 321840, Note_on_c, 0, 71, 60
3, 322020, Note_on_c, 0, 71, 0
3, 322020, Note_on_c, 0, 67, 0
3, 322020, Note_on_c, 0, 64, 0
3, 322020, Note_on_c, 0, 66, 52
3, 322020, Note_on_c, 0, 70, 52
3, 322020, Note_on_c, 0, 58, 54
3, 322200, Note_on_c, 0, 58, 0
3, 322200, Note_on_c, 0, 70, 0
3, 322200, Note_on_c, 0, 66, 0
3, 322200, Note_on_c, 0, 67, 57
3, 322200, Note_on_c, 0, 71, 57
3, 322200, Note_on_c, 0, 59, 57
3, 322380, Note_on_c, 0, 59, 0
3, 322380, Note_on_c, 0, 71, 0
3, 322380, Note_on_c, 0, 67, 0
3, 322380, Note_on_c, 0, 63, 51
3, 322380, Note_on_c, 0, 66, 51
3, 322560, Note_on_c, 0, 66, 0
3, 322560, Note_on_c, 0, 63, 0
3, 322560, Note_on_c, 0, 67, 55
3, 322560, Note_on_c, 0, 60, 53
3, 322560, Note_on_c, 0, 64, 66
3, 322560, Note_on_c, 0, 43, 44
3, 322560, Note_on_c, 0, 48, 44
3, 322560, Note_on_c, 0, 52, 44
3, 322560, Note_on_c, 0, 55, 44
3, 322740, Note_on_c, 0, 64, 0
3, 322740, Note_on_c, 0, 63, 62
3, 322920, Note_on_c, 0, 63, 0
3, 322920, Note_on_c, 0, 64, 59
3, 323100, Note_on_c, 0, 64, 0
3, 323100, Note_on_c, 0, 66, 56
3, 323280, Note_on_c, 0, 66, 0
3, 323280, Note_on_c, 0, 67, 0
3, 323280, Note_on_c, 0, 64, 43
3, 323280, Note_on_c, 0, 67, 53
3, 323460, Note_on_c, 0, 67, 0
3, 323460, Note_on_c, 0, 66, 50
3, 323640, Note_on_c, 0, 66, 0
3, 323640, Note_on_c, 0, 67, 47
3, 324000, Note_on_c, 0, 72, 30
3, 325440, Note_on_c, 0, 72, 0
3, 325440, Note_on_c, 0, 67, 0
3, 325440, Note_on_c, 0, 48, 0
3, 325440, Note_on_c, 0, 60, 0
3, 325440, Note_on_c, 0, 64, 0
3, 325440, Note_on_c, 0, 59, 53
3, 325440, Note_on_c, 0, 64, 53
3, 325440, Note_on_c, 0, 67, 53
3, 325440, Note_on_c, 0, 71, 53
3, 325440, Note_on_c, 0, 47, 55
3, 325800, Note_on_c, 0, 47, 0
3, 325800, Note_on_c, 0, 55, 0
3, 325800, Note_on_c, 0, 64, 0
3, 325800, Note_on_c, 0, 52, 0
3, 325800, Note_on_c, 0, 43, 0
3, 325800, Note_on_c, 0, 59, 0
3, 325800, Note_on_c, 0, 67, 0
3, 325800, Note_on_c, 0, 71, 0
3, 326160, Note_on_c, 0, 55, 67
3, 326160, Note_on_c, 0, 61, 67
3, 326160, Note_on_c, 0, 64, 67
3, 326160, Note_on_c, 0, 67, 67
3, 326160, Note_on_c, 0, 34, 52
3, 326160, Note_on_c, 0, 46, 52
3, 326339, Note_on_c, 0, 46, 0
3, 326339, Note_on_c, 0, 61, 0
3, 326339, Note_on_c, 0, 64, 0
3, 326339, Note_on_c, 0, 55, 0
3, 326339, Note_on_c, 0, 34, 0
3, 326339, Note_on_c, 0, 67, 0
3, 326880, Note_on_c, 0, 54, 72
3, 326880, Note_on_c, 0, 59, 72
3, 326880, Note_on_c, 0, 62, 72
3, 326880, Note_on_c, 0, 66, 72
3, 326880, Note_on_c, 0, 35, 48
3, 326880, Note_on_c, 0, 47, 48
3, 327059, Note_on_c, 0, 47, 0
3, 327059, Note_on_c, 0, 59, 0
3, 327059, Note_on_c, 0, 62, 0
3, 327059, Note_on_c, 0, 54, 0
3, 327059, Note_on_c, 0, 35, 0
3, 327059, Note_on_c, 0, 66, 0
3, 327600, Note_on_c, 0, 53, 73
3, 327600, Note_on_c, 0, 59, 73
3, 327600, Note_on_c, 0, 62, 73
3, 327600, Note_on_c, 0, 65, 73
3, 327600, Note_on_c, 0, 32, 55
3, 327600, Note_on_c, 0, 44, 55
3, 327779, Note_on_c, 0, 44, 0
3, 327779, Note_on_c, 0, 59, 0
3, 327779, Note_on_c, 0, 62, 0
3, 327779, Note_on_c, 0, 53, 0
3, 327779, Note_on_c, 0, 32, 0
3, 327779, Note_on_c, 0, 65, 0
3, 328320, Note_on_c, 0, 52, 69
3, 328320, Note_on_c, 0, 57, 69
3, 328320, Note_on_c, 0, 60, 69
3, 328320, Note_on_c, 0, 64, 69
3, 328320, Note_on_c, 0, 33, 50
3, 328320, Note_on_c, 0, 45, 50
3, 328499, Note_on_c, 0, 64, 0
3, 328499, Note_on_c, 0, 60, 0
3, 328499, Note_on_c, 0, 52, 0
3, 328499, Note_on_c, 0, 57, 0
3, 328680, Note_on_c, 0, 45, 0
3, 328680, Note_on_c, 0, 33, 0
3, 329040, Note_on_c, 0, 50, 69
3, 329040, Note_on_c, 0, 52, 69
3, 329040, Note_on_c, 0, 59, 69
3, 329040, Note_on_c, 0, 62, 69
3, 329040, Note_on_c, 0, 32, 50
3, 329040, Note_on_c, 0, 44, 50
3, 329219, Note_on_c, 0, 62, 0
3, 329219, Note_on_c, 0, 59, 0
3, 329219, Note_on_c, 0, 50, 0
3, 329219, Note_on_c, 0, 52, 0
3, 329400, Note_on_c, 0, 44, 0
3, 329400, Note_on_c, 0, 32, 0
3, 329400, Note_on_c, 0, 48, 72
3, 329400, Note_on_c, 0, 52, 72
3, 329400, Note_on_c, 0, 57, 72
3, 329400, Note_on_c, 0, 60, 72
3, 329400, Note_on_c, 0, 33, 55
3, 329400, Note_on_c, 0, 45, 55
3, 329579, Note_on_c, 0, 60, 0
3, 329579, Note_on_c, 0, 57, 0
3, 329579, Note_on_c, 0, 48, 0
3, 329579, Note_on_c, 0, 52, 0
3, 329760, Note_on_c, 0, 45, 0
3, 329760, Note_on_c, 0, 33, 0
3, 329760, Note_on_c, 0, 52, 87
3, 329760, Note_on_c, 0, 55, 87
3, 329760, Note_on_c, 0, 59, 87
3, 329760, Note_on_c, 0, 64, 87
3, 329760, Note_on_c, 0, 35, 57
3, 329760, Note_on_c, 0, 47, 57
3, 329939, Note_on_c, 0, 64, 0
3, 329939, Note_on_c, 0, 59, 0
3, 329939, Note_on_c, 0, 52, 0
3, 329939, Note_on_c, 0, 55, 0
3, 330120, Note_on_c, 0, 47, 0
3, 330120, Note_on_c, 0, 35, 0
3, 330300, Note_on_c, 0, 54, 68
3, 330300, Note_on_c, 0, 57, 68
3, 330300, Note_on_c, 0, 60, 68
3, 330300, Note_on_c, 0, 64, 68
3, 330300, Note_on_c, 0, 47, 48
3, 330389, Note_on_c, 0, 47, 0
3, 330389, Note_on_c, 0, 60, 0
3, 330389, Note_on_c, 0, 54, 0
3, 330389, Note_on_c, 0, 57, 0
3, 330389, Note_on_c, 0, 64, 0
3, 330480, Note_on_c, 0, 55, 84
3, 330480, Note_on_c, 0, 59, 84
3, 330480, Note_on_c, 0, 64, 84
3, 330480, Note_on_c, 0, 35, 57
3, 330797, Note_on_c, 0, 35, 0
3, 330797, Note_on_c, 0, 55, 0
3, 330797, Note_on_c, 0, 59, 0
3, 330797, Note_on_c, 0, 64, 0
3, 331020, Note_on_c, 0, 54, 67
3, 331020, Note_on_c, 0, 57, 67
3, 331020, Note_on_c, 0, 60, 67
3, 331020, Note_on_c, 0, 64, 67
3, 331020, Note_on_c, 0, 47, 52
3, 331109, Note_on_c, 0, 47, 0
3, 331109, Note_on_c, 0, 60, 0
3, 331109, Note_on_c, 0, 54, 0
3, 331109, Note_on_c, 0, 57, 0
3, 331109, Note_on_c, 0, 64, 0
3, 331200, Note_on_c, 0, 55, 94
3, 331200, Note_on_c, 0, 59, 94
3, 331200, Note_on_c, 0, 64, 94
3, 331200, Note_on_c, 0, 35, 57
3, 331517, Note_on_c, 0, 35, 0
3, 331517, Note_on_c, 0, 55, 0
3, 331517, Note_on_c, 0, 59, 0
3, 331517, Note_on_c, 0, 64, 0
3, 331740, Note_on_c, 0, 54, 72
3, 331740, Note_on_c, 0, 57, 72
3, 331740, Note_on_c, 0, 60, 72
3, 331740, Note_on_c, 0, 64, 72
3, 331740, Note_on_c, 0, 47, 51
3, 331829, Note_on_c, 0, 47, 0
3, 331829, Note_on_c, 0, 60, 0
3, 331829, Note_on_c, 0, 54, 0
3, 331829, Note_on_c, 0, 57, 0
3, 331829, Note_on_c, 0, 64, 0
3, 331920, Note_on_c, 0, 55, 93
3, 331920, Note_on_c, 0, 59, 93
3, 331920, Note_on_c, 0, 64, 93
3, 331920, Note_on_c, 0, 35, 54
3, 332237, Note_on_c, 0, 35, 0
3, 332237, Note_on_c, 0, 55, 0
3, 332237, Note_on_c, 0, 59, 0
3, 332237, Note_on_c, 0, 64, 0
3, 332460, Note_on_c, 0, 54, 69
3, 332460, Note_on_c, 0, 57, 69
3, 332460, Note_on_c, 0, 60, 69
3, 332460, Note_on_c, 0, 64, 69
3, 332460, Note_on_c, 0, 47, 49
3, 332549, Note_on_c, 0, 47, 0
3, 332549, Note_on_c, 0, 60, 0
3, 332549, Note_on_c, 0, 54, 0
3, 332549, Note_on_c, 0, 57, 0
3, 332549, Note_on_c, 0, 64, 0
3, 332640, Note_on_c, 0, 55, 85
3, 332640, Note_on_c, 0, 59, 85
3, 332640, Note_on_c, 0, 64, 85
3, 332640, Note_on_c, 0, 35, 59
3, 332957, Note_on_c, 0, 35, 0
3, 332957, Note_on_c, 0, 55, 0
3, 332957, Note_on_c, 0, 59, 0
3, 332957, Note_on_c, 0, 64, 0
3, 333360, Note_on_c, 0, 55, 73
3, 333360, Note_on_c, 0, 59, 73
3, 333360, Note_on_c, 0, 64, 73
3, 333360, Note_on_c, 0, 37, 50
3, 333360, Note_on_c, 0, 49, 50
3, 333539, Note_on_c, 0, 49, 0
3, 333539, Note_on_c, 0, 64, 0
3, 333539, Note_on_c, 0, 55, 0
3, 333539, Note_on_c, 0, 59, 0
3, 333539, Note_on_c, 0, 37, 0
3, 334080, Note_on_c, 0, 54, 78
3, 334080, Note_on_c, 0, 59, 78
3, 334080, Note_on_c, 0, 62, 78
3, 334080, Note_on_c, 0, 38, 55
3, 334080, Note_on_c, 0, 50, 55
3, 334259, Note_on_c, 0, 50, 0
3, 334259, Note_on_c, 0, 62, 0
3, 334259, Note_on_c, 0, 54, 0
3, 334259, Note_on_c, 0, 59, 0
3, 334259, Note_on_c, 0, 38, 0
3, 334800, Note_on_c, 0, 54, 72
3, 334800, Note_on_c, 0, 57, 72
3, 334800, Note_on_c, 0, 60, 72
3, 334800, Note_on_c, 0, 39, 49
3, 334800, Note_on_c, 0, 51, 49
3, 334979, Note_on_c, 0, 51, 0
3, 334979, Note_on_c, 0, 60, 0
3, 334979, Note_on_c, 0, 54, 0
3, 334979, Note_on_c, 0, 57, 0
3, 334979, Note_on_c, 0, 39, 0
3, 335520, Note_on_c, 0, 55, 66
3, 335520, Note_on_c, 0, 60, 66
3, 335520, Note_on_c, 0, 40, 43
3, 335520, Note_on_c, 0, 52, 43
3, 335699, Note_on_c, 0, 52, 0
3, 335699, Note_on_c, 0, 55, 0
3, 335699, Note_on_c, 0, 60, 0
3, 335699, Note_on_c, 0, 40, 0
3, 336240, Note_on_c, 0, 50, 59
3, 336240, Note_on_c, 0, 54, 59
3, 336240, Note_on_c, 0, 59, 59
3, 336240, Note_on_c, 0, 42, 36
3, 336419, Note_on_c, 0, 42, 0
3, 336419, Note_on_c, 0, 50, 0
3, 336419, Note_on_c, 0, 54, 0
3, 336419, Note_on_c, 0, 59, 0
3, 336600, Note_on_c, 0, 50, 56
3, 336600, Note_on_c, 0, 53, 56
3, 336600, Note_on_c, 0, 56, 56
3, 336600, Note_on_c, 0, 59, 56
3, 336600, Note_on_c, 0, 44, 33
3, 336779, Note_on_c, 0, 44, 0
3, 336779, Note_on_c, 0, 56, 0
3, 336779, Note_on_c, 0, 50, 0
3, 336779, Note_on_c, 0, 53, 0
3, 336779, Note_on_c, 0, 59, 0
3, 336960, Note_on_c, 0, 48, 53
3, 336960, Note_on_c, 0, 52, 53
3, 336960, Note_on_c, 0, 57, 53
3, 336960, Note_on_c, 0, 45, 30
3, 337320, Note_on_c, 0, 45, 0
3, 337320, Note_on_c, 0, 48, 0
3, 337320, Note_on_c, 0, 52, 0
3, 337320, Note_on_c, 0, 57, 0
3, 337500, Note_on_c, 0, 50, 51
3, 337500, Note_on_c, 0, 53, 51
3, 337500, Note_on_c, 0, 57, 51
3, 337500, Note_on_c, 0, 60, 51
3, 337500, Note_on_c, 0, 38, 26
3, 337500, Note_on_c, 0, 45, 26
3, 337680, Note_on_c, 0, 45, 0
3, 337680, Note_on_c, 0, 53, 0
3, 337680, Note_on_c, 0, 57, 0
3, 337680, Note_on_c, 0, 50, 0
3, 337680, Note_on_c, 0, 38, 0
3, 337680, Note_on_c, 0, 60, 0
3, 337680, Note_on_c, 0, 48, 49
3, 337680, Note_on_c, 0, 52, 49
3, 337680, Note_on_c, 0, 57, 49
3, 337680, Note_on_c, 0, 33, 28
3, 337680, Note_on_c, 0, 45, 28
3, 337859, Note_on_c, 0, 45, 0
3, 337859, Note_on_c, 0, 57, 0
3, 337859, Note_on_c, 0, 48, 0
3, 337859, Note_on_c, 0, 52, 0
3, 337859, Note_on_c, 0, 33, 0
3, 338220, Note_on_c, 0, 50, 50
3, 338220, Note_on_c, 0, 53, 50
3, 338220, Note_on_c, 0, 57, 50
3, 338220, Note_on_c, 0, 60, 50
3, 338220, Note_on_c, 0, 38, 27
3, 338220, Note_on_c, 0, 45, 27
3, 338400, Note_on_c, 0, 45, 0
3, 338400, Note_on_c, 0, 53, 0
3, 338400, Note_on_c, 0, 57, 0
3, 338400, Note_on_c, 0, 50, 0
3, 338400, Note_on_c, 0, 38, 0
3, 338400, Note_on_c, 0, 60, 0
3, 338400, Note_on_c, 0, 48, 46
3, 338400, Note_on_c, 0, 52, 46
3, 338400, Note_on_c, 0, 57, 46
3, 338400, Note_on_c, 0, 33, 28
3, 338400, Note_on_c, 0, 45, 28
3, 338579, Note_on_c, 0, 45, 0
3, 338579, Note_on_c, 0, 57, 0
3, 338579, Note_on_c, 0, 48, 0
3, 338579, Note_on_c, 0, 52, 0
3, 338579, Note_on_c, 0, 33, 0
3, 338940, Note_on_c, 0, 50, 46
3, 338940, Note_on_c, 0, 53, 46
3, 338940, Note_on_c, 0, 57, 46
3, 338940, Note_on_c, 0, 60, 46
3, 338940, Note_on_c, 0, 38, 25
3, 338940, Note_on_c, 0, 45, 25
3, 339120, Note_on_c, 0, 45, 0
3, 339120, Note_on_c, 0, 53, 0
3, 339120, Note_on_c, 0, 57, 0
3, 339120, Note_on_c, 0, 50, 0
3, 339120, Note_on_c, 0, 38, 0
3, 339120, Note_on_c, 0, 60, 0
3, 339120, Note_on_c, 0, 48, 46
3, 339120, Note_on_c, 0, 52, 46
3, 339120, Note_on_c, 0, 57, 46
3, 339120, Note_on_c, 0, 33, 29
3, 339120, Note_on_c, 0, 45, 29
3, 339299, Note_on_c, 0, 45, 0
3, 339299, Note_on_c, 0, 57, 0
3, 339299, Note_on_c, 0, 48, 0
3, 339299, Note_on_c, 0, 52, 0
3, 339299, Note_on_c, 0, 33, 0
3, 339660, Note_on_c, 0, 50, 45
3, 339660, Note_on_c, 0, 53, 45
3, 339660, Note_on_c, 0, 57, 45
3, 339660, Note_on_c, 0, 60, 45
3, 339660, Note_on_c, 0, 38, 27
3, 339660, Note_on_c, 0, 45, 27
3, 339840, Note_on_c, 0, 45, 0
3, 339840, Note_on_c, 0, 53, 0
3, 339840, Note_on_c, 0, 57, 0
3, 339840, Note_on_c, 0, 50, 0
3, 339840, Note_on_c, 0, 38, 0
3, 339840, Note_on_c, 0, 60, 0
3, 339840, Note_on_c, 0, 48, 46
3, 339840, Note_on_c, 0, 52, 46
3, 339840, Note_on_c, 0, 57, 46
3, 339840, Note_on_c, 0, 33, 34
3, 339840, Note_on_c, 0, 45, 34
3, 340019, Note_on_c, 0, 45, 0
3, 340019, Note_on_c, 0, 57, 0
3, 340019, Note_on_c, 0, 48, 0
3, 340019, Note_on_c, 0, 52, 0
3, 340019, Note_on_c, 0, 33, 0
3, 340560, Note_on_c, 0, 48, 45
3, 340560, Note_on_c, 0, 52, 45
3, 340560, Note_on_c, 0, 54, 45
3, 340560, Note_on_c, 0, 60, 45
3, 340560, Note_on_c, 0, 33, 27
3, 340560, Note_on_c, 0, 45, 27
3, 340739, Note_on_c, 0, 45, 0
3, 340739, Note_on_c, 0, 52, 0
3, 340739, Note_on_c, 0, 54, 0
3, 340739, Note_on_c, 0, 48, 0
3, 340739, Note_on_c, 0, 33, 0
3, 340739, Note_on_c, 0, 60, 0
3, 341280, Note_on_c, 0, 50, 53
3, 341280, Note_on_c, 0, 55, 53
3, 341280, Note_on_c, 0, 59, 53
3, 341280, Note_on_c, 0, 35, 30
3, 341280, Note_on_c, 0, 47, 30
3, 341459, Note_on_c, 0, 47, 0
3, 341459, Note_on_c, 0, 59, 0
3, 341459, Note_on_c, 0, 50, 0
3, 341459, Note_on_c, 0, 55, 0
3, 341459, Note_on_c, 0, 35, 0
3, 342000, Note_on_c, 0, 52, 40
3, 342000, Note_on_c, 0, 57, 40
3, 342000, Note_on_c, 0, 36, 17
3, 342000, Note_on_c, 0, 48, 17
3, 342180, Note_on_c, 0, 57, 0
3, 342180, Note_on_c, 0, 52, 0
3, 342180, Note_on_c, 0, 60, 37
3, 342360, Note_on_c, 0, 60, 0
3, 342360, Note_on_c, 0, 36, 0
3, 342360, Note_on_c, 0, 48, 0
3, 342360, Note_on_c, 0, 52, 34
3, 342360, Note_on_c, 0, 55, 34
3, 342360, Note_on_c, 0, 37, 11
3, 342360, Note_on_c, 0, 49, 11
3, 342540, Note_on_c, 0, 55, 0
3, 342540, Note_on_c, 0, 52, 0
3, 342540, Note_on_c, 0, 58, 31
3, 342720, Note_on_c, 0, 58, 0
3, 342720, Note_on_c, 0, 37, 0
3, 342720, Note_on_c, 0, 49, 0
3, 342720, Note_on_c, 0, 53, 28
3, 342720, Note_on_c, 0, 57, 28
3, 342720, Note_on_c, 0, 38, 5
3, 342720, Note_on_c, 0, 50, 5
3, 342899, Note_on_c, 0, 50, 0
3, 342899, Note_on_c, 0, 53, 0
3, 342899, Note_on_c, 0, 57, 0
3, 342899, Note_on_c, 0, 38, 0
3, 343260, Note_on_c, 0, 55, 23
3, 343260, Note_on_c, 0, 57, 23
3, 343260, Note_on_c, 0, 38, 6
3, 343260, Note_on_c, 0, 45, 6
3, 343349, Note_on_c, 0, 45, 0
3, 343349, Note_on_c, 0, 55, 0
3, 343349, Note_on_c, 0, 57, 0
3, 343349, Note_on_c, 0, 38, 0
3, 343440, Note_on_c, 0, 53, 27
3, 343440, Note_on_c, 0, 57, 27
3, 343440, Note_on_c, 0, 38, 5
3, 343440, Note_on_c, 0, 45, 5
3, 343619, Note_on_c, 0, 45, 0
3, 343619, Note_on_c, 0, 53, 0
3, 343619, Note_on_c, 0, 57, 0
3, 343619, Note_on_c, 0, 38, 0
3, 343980, Note_on_c, 0, 55, 24
3, 343980, Note_on_c, 0, 57, 24
3, 343980, Note_on_c, 0, 38, 2
3, 343980, Note_on_c, 0, 45, 2
3, 344069, Note_on_c, 0, 45, 0
3, 344069, Note_on_c, 0, 55, 0
3, 344069, Note_on_c, 0, 57, 0
3, 344069, Note_on_c, 0, 38, 0
3, 344160, Note_on_c, 0, 53, 26
3, 344160, Note_on_c, 0, 57, 26
3, 344160, Note_on_c, 0, 38, 6
3, 344160, Note_on_c, 0, 45, 6
3, 344339, Note_on_c, 0, 45, 0
3, 344339, Note_on_c, 0, 53, 0
3, 344339, Note_on_c, 0, 57, 0
3, 344339, Note_on_c, 0, 38, 0
3, 344700, Note_on_c, 0, 55, 24
3, 344700, Note_on_c, 0, 57, 24
3, 344700, Note_on_c, 0, 38, 1
3, 344700, Note_on_c, 0, 45, 1
3, 344700, Note_on_c, 0, 50, 1
3, 344880, Note_on_c, 0, 50, 0
3, 344880, Note_on_c, 0, 38, 0
3, 344880, Note_on_c, 0, 55, 0
3, 344880, Note_on_c, 0, 57, 0
3, 344880, Note_on_c, 0, 45, 0
3, 344880, Note_on_c, 0, 53, 27
3, 344880, Note_on_c, 0, 57, 27
3, 344880, Note_on_c, 0, 38, 2
3, 344880, Note_on_c, 0, 45, 2
3, 344880, Note_on_c, 0, 50, 2
3, 345240, Note_on_c, 0, 50, 0
3, 345240, Note_on_c, 0, 38, 0
3, 345240, Note_on_c, 0, 53, 0
3, 345240, Note_on_c, 0, 57, 0
3, 345240, Note_on_c, 0, 45, 0
3, 345240, Note_on_c, 0, 52, 29
3, 345240, Note_on_c, 0, 57, 29
3, 345240, Note_on_c, 0, 36, 1
3, 345240, Note_on_c, 0, 45, 1
3, 345240, Note_on_c, 0, 48, 1
3, 345600, Note_on_c, 0, 48, 0
3, 345600, Note_on_c, 0, 36, 0
3, 345600, Note_on_c, 0, 52, 0
3, 345600, Note_on_c, 0, 57, 0
3, 345600, Note_on_c, 0, 45, 0
3, 345600, Note_on_c, 0, 59, 51
3, 345600, Note_on_c, 0, 51, 16
3, 345600, Note_on_c, 0, 57, 16
3, 345600, Note_on_c, 0, 35, 6
3, 345600, Note_on_c, 0, 47, 6
3, 345780, Note_on_c, 0, 47, 0
3, 345780, Note_on_c, 0, 57, 0
3, 345780, Note_on_c, 0, 35, 0
3, 345780, Note_on_c, 0, 51, 0
3, 346140, Note_on_c, 0, 56, 86
3, 346229, Note_on_c, 0, 56, 0
3, 346320, Note_on_c, 0, 57, 91
3, 346409, Note_on_c, 0, 57, 0
3, 346500, Note_on_c, 0, 53, 87
3, 346589, Note_on_c, 0, 53, 0
3, 346680, Note_on_c, 0, 55, 96
3, 346769, Note_on_c, 0, 55, 0
3, 346860, Note_on_c, 0, 59, 0
3, 346860, Note_on_c, 0, 59, 29
3, 346860, Note_on_c, 0, 49, 83
3, 346949, Note_on_c, 0, 49, 0
3, 347040, Note_on_c, 0, 59, 0
3, 347040, Note_on_c, 0, 59, 27
3, 347040, Note_on_c, 0, 51, 95
3, 347129, Note_on_c, 0, 51, 0
3, 347220, Note_on_c, 0, 58, 102
3, 347309, Note_on_c, 0, 58, 0
3, 347400, Note_on_c, 0, 59, 0
3, 347400, Note_on_c, 0, 59, 21
3, 347400, Note_on_c, 0, 59, 100
3, 347489, Note_on_c, 0, 59, 0
3, 347580, Note_on_c, 0, 56, 90
3, 347669, Note_on_c, 0, 56, 0
3, 347760, Note_on_c, 0, 58, 101
3, 347849, Note_on_c, 0, 58, 0
3, 347940, Note_on_c, 0, 54, 90
3, 348029, Note_on_c, 0, 54, 0
3, 348120, Note_on_c, 0, 55, 90
3, 348209, Note_on_c, 0, 55, 0
3, 348300, Note_on_c, 0, 59, 0
3, 348300, Note_on_c, 0, 59, 26
3, 348300, Note_on_c, 0, 52, 91
3, 348389, Note_on_c, 0, 52, 0
3, 348480, Note_on_c, 0, 59, 0
3, 348480, Note_on_c, 0, 59, 28
3, 348480, Note_on_c, 0, 54, 92
3, 348569, Note_on_c, 0, 54, 0
3, 348659, Note_on_c, 0, 59, 0
3, 348660, Note_on_c, 0, 58, 91
3, 348749, Note_on_c, 0, 58, 0
3, 348840, Note_on_c, 0, 59, 89
3, 348929, Note_on_c, 0, 59, 0
3, 349020, Note_on_c, 0, 54, 88
3, 349109, Note_on_c, 0, 54, 0
3, 349200, Note_on_c, 0, 59, 21
3, 349200, Note_on_c, 0, 55, 86
3, 349289, Note_on_c, 0, 55, 0
3, 349379, Note_on_c, 0, 59, 0
3, 349380, Note_on_c, 0, 58, 84
3, 349469, Note_on_c, 0, 58, 0
3, 349560, Note_on_c, 0, 59, 83
3, 349649, Note_on_c, 0, 59, 0
3, 349740, Note_on_c, 0, 55, 81
3, 349829, Note_on_c, 0, 55, 0
3, 349920, Note_on_c, 0, 59, 15
3, 349920, Note_on_c, 0, 57, 80
3, 350009, Note_on_c, 0, 57, 0
3, 350099, Note_on_c, 0, 59, 0
3, 350100, Note_on_c, 0, 58, 78
3, 350189, Note_on_c, 0, 58, 0
3, 350280, Note_on_c, 0, 59, 76
3, 350369, Note_on_c, 0, 59, 0
3, 350460, Note_on_c, 0, 57, 75
3, 350549, Note_on_c, 0, 57, 0
3, 350640, Note_on_c, 0, 58, 73
3, 350729, Note_on_c, 0, 58, 0
3, 350820, Note_on_c, 0, 59, 72
3, 350909, Note_on_c, 0, 59, 0
3, 351000, Note_on_c, 0, 60, 70
3, 351089, Note_on_c, 0, 60, 0
3, 351180, Note_on_c, 0, 56, 69
3, 351269, Note_on_c, 0, 56, 0
3, 351360, Note_on_c, 0, 57, 67
3, 351540, Note_on_c, 0, 57, 0
3, 351540, Note_on_c, 0, 60, 1
3, 351720, Note_on_c, 0, 56, 49
3, 351809, Note_on_c, 0, 56, 0
3, 351900, Note_on_c, 0, 57, 55
3, 351989, Note_on_c, 0, 57, 0
3, 352080, Note_on_c, 0, 60, 0
3, 352080, Note_on_c, 0, 57, 57
3, 352169, Note_on_c, 0, 57, 0
3, 352260, Note_on_c, 0, 60, 4
3, 352440, Note_on_c, 0, 56, 52
3, 352440, Note_on_c, 0, 51, 43
3, 352440, Note_on_c, 0, 54, 43
3, 352529, Note_on_c, 0, 56, 0
3, 352620, Note_on_c, 0, 54, 0
3, 352620, Note_on_c, 0, 51, 0
3, 352620, Note_on_c, 0, 57, 53
3, 352709, Note_on_c, 0, 57, 0
3, 352710, Note_on_c, 0, 51, 49
3, 352710, Note_on_c, 0, 54, 49
3, 352800, Note_on_c, 0, 54, 0
3, 352800, Note_on_c, 0, 51, 0
3, 352800, Note_on_c, 0, 60, 0
3, 352800, Note_on_c, 0, 57, 54
3, 352800, Note_on_c, 0, 51, 51
3, 352800, Note_on_c, 0, 54, 51
3, 352980, Note_on_c, 0, 57, 0
3, 352980, Note_on_c, 0, 60, 1
3, 352980, Note_on_c, 0, 56, 59
3, 353069, Note_on_c, 0, 56, 0
3, 353160, Note_on_c, 0, 51, 0
3, 353160, Note_on_c, 0, 54, 0
3, 353160, Note_on_c, 0, 57, 56
3, 353249, Note_on_c, 0, 57, 0
3, 353340, Note_on_c, 0, 57, 55
3, 353429, Note_on_c, 0, 57, 0
3, 353520, Note_on_c, 0, 60, 0
3, 353520, Note_on_c, 0, 58, 55
3, 353609, Note_on_c, 0, 58, 0
3, 353700, Note_on_c, 0, 58, 57
3, 353789, Note_on_c, 0, 58, 0
3, 353880, Note_on_c, 0, 59, 55
3, 353969, Note_on_c, 0, 59, 0
3, 354060, Note_on_c, 0, 60, 59
3, 354149, Note_on_c, 0, 60, 0
3, 354240, Note_on_c, 0, 60, 61
3, 354240, Note_on_c, 0, 60, 68
3, 354420, Note_on_c, 0, 60, 0
3, 354420, Note_on_c, 0, 63, 68
3, 354600, Note_on_c, 0, 63, 0
3, 354600, Note_on_c, 0, 59, 64
3, 354689, Note_on_c, 0, 59, 0
3, 354780, Note_on_c, 0, 60, 67
3, 354869, Note_on_c, 0, 60, 0
3, 354960, Note_on_c, 0, 60, 63
3, 355140, Note_on_c, 0, 60, 0
3, 355140, Note_on_c, 0, 63, 71
3, 355320, Note_on_c, 0, 63, 0
3, 355320, Note_on_c, 0, 59, 62
3, 355320, Note_on_c, 0, 54, 50
3, 355320, Note_on_c, 0, 57, 50
3, 355409, Note_on_c, 0, 59, 0
3, 355500, Note_on_c, 0, 57, 0
3, 355500, Note_on_c, 0, 54, 0
3, 355500, Note_on_c, 0, 60, 69
3, 355589, Note_on_c, 0, 60, 0
3, 355590, Note_on_c, 0, 54, 54
3, 355590, Note_on_c, 0, 57, 54
3, 355680, Note_on_c, 0, 57, 0
3, 355680, Note_on_c, 0, 54, 0
3, 355680, Note_on_c, 0, 60, 0
3, 355680, Note_on_c, 0, 60, 65
3, 355680, Note_on_c, 0, 60, 64
3, 355680, Note_on_c, 0, 54, 55
3, 355680, Note_on_c, 0, 57, 55
3, 355860, Note_on_c, 0, 60, 0
3, 355860, Note_on_c, 0, 63, 74
3, 356040, Note_on_c, 0, 63, 0
3, 356040, Note_on_c, 0, 57, 0
3, 356040, Note_on_c, 0, 54, 0
3, 356040, Note_on_c, 0, 59, 62
3, 356129, Note_on_c, 0, 59, 0
3, 356220, Note_on_c, 0, 60, 66
3, 356309, Note_on_c, 0, 60, 0
3, 356400, Note_on_c, 0, 60, 0
3, 356400, Note_on_c, 0, 60, 66
3, 356400, Note_on_c, 0, 60, 68
3, 356580, Note_on_c, 0, 60, 0
3, 356580, Note_on_c, 0, 61, 72
3, 356760, Note_on_c, 0, 61, 0
3, 356760, Note_on_c, 0, 62, 70
3, 356849, Note_on_c, 0, 62, 0
3, 356940, Note_on_c, 0, 63, 72
3, 357029, Note_on_c, 0, 63, 0
3, 357120, Note_on_c, 0, 60, 0
3, 357120, Note_on_c, 0, 63, 66
3, 357120, Note_on_c, 0, 60, 50
3, 357300, Note_on_c, 0, 63, 0
3, 357300, Note_on_c, 0, 66, 65
3, 357480, Note_on_c, 0, 66, 0
3, 357480, Note_on_c, 0, 62, 65
3, 357569, Note_on_c, 0, 62, 0
3, 357660, Note_on_c, 0, 63, 64
3, 357749, Note_on_c, 0, 63, 0
3, 357840, Note_on_c, 0, 60, 0
3, 357840, Note_on_c, 0, 63, 64
3, 357840, Note_on_c, 0, 60, 52
3, 357840, Note_on_c, 0, 57, 1
3, 358019, Note_on_c, 0, 57, 0
3, 358020, Note_on_c, 0, 63, 0
3, 358020, Note_on_c, 0, 66, 63
3, 358200, Note_on_c, 0, 66, 0
3, 358200, Note_on_c, 0, 62, 62
3, 358289, Note_on_c, 0, 62, 0
3, 358380, Note_on_c, 0, 63, 62
3, 358469, Note_on_c, 0, 63, 0
3, 358560, Note_on_c, 0, 63, 61
3, 358740, Note_on_c, 0, 63, 0
3, 358740, Note_on_c, 0, 66, 61
3, 358920, Note_on_c, 0, 66, 0
3, 358920, Note_on_c, 0, 62, 60
3, 359009, Note_on_c, 0, 62, 0
3, 359100, Note_on_c, 0, 63, 60
3, 359189, Note_on_c, 0, 63, 0
3, 359280, Note_on_c, 0, 60, 0
3, 359280, Note_on_c, 0, 63, 59
3, 359280, Note_on_c, 0, 60, 56
3, 359280, Note_on_c, 0, 57, 1
3, 359369, Note_on_c, 0, 63, 0
3, 359459, Note_on_c, 0, 57, 0
3, 359460, Note_on_c, 0, 64, 59
3, 359549, Note_on_c, 0, 64, 0
3, 359640, Note_on_c, 0, 65, 58
3, 359729, Note_on_c, 0, 65, 0
3, 359820, Note_on_c, 0, 66, 58
3, 359909, Note_on_c, 0, 66, 0
3, 360000, Note_on_c, 0, 66, 57
3, 360180, Note_on_c, 0, 66, 0
3, 360180, Note_on_c, 0, 69, 57
3, 360360, Note_on_c, 0, 69, 0
3, 360360, Note_on_c, 0, 65, 56
3, 360449, Note_on_c, 0, 65, 0
3, 360540, Note_on_c, 0, 66, 56
3, 360629, Note_on_c, 0, 66, 0
3, 360720, Note_on_c, 0, 60, 0
3, 360720, Note_on_c, 0, 66, 55
3, 360720, Note_on_c, 0, 63, 68
3, 360720, Note_on_c, 0, 60, 1
3, 360900, Note_on_c, 0, 66, 0
3, 360900, Note_on_c, 0, 69, 55
3, 361080, Note_on_c, 0, 69, 0
3, 361080, Note_on_c, 0, 63, 0
3, 361080, Note_on_c, 0, 65, 54
3, 361169, Note_on_c, 0, 65, 0
3, 361260, Note_on_c, 0, 66, 53
3, 361349, Note_on_c, 0, 66, 0
3, 361440, Note_on_c, 0, 66, 53
3, 361620, Note_on_c, 0, 66, 0
3, 361620, Note_on_c, 0, 69, 52
3, 361800, Note_on_c, 0, 69, 0
3, 361800, Note_on_c, 0, 65, 52
3, 361889, Note_on_c, 0, 65, 0
3, 361980, Note_on_c, 0, 66, 51
3, 362069, Note_on_c, 0, 66, 0
3, 362160, Note_on_c, 0, 60, 0
3, 362160, Note_on_c, 0, 66, 51
3, 362160, Note_on_c, 0, 63, 47
3, 362160, Note_on_c, 0, 60, 1
3, 362249, Note_on_c, 0, 66, 0
3, 362340, Note_on_c, 0, 67, 50
3, 362429, Note_on_c, 0, 67, 0
3, 362520, Note_on_c, 0, 63, 0
3, 362520, Note_on_c, 0, 68, 50
3, 362609, Note_on_c, 0, 68, 0
3, 362700, Note_on_c, 0, 69, 49
3, 362789, Note_on_c, 0, 69, 0
3, 362880, Note_on_c, 0, 69, 49
3, 363060, Note_on_c, 0, 69, 0
3, 363060, Note_on_c, 0, 72, 48
3, 363240, Note_on_c, 0, 72, 0
3, 363240, Note_on_c, 0, 68, 48
3, 363240, Note_on_c, 0, 63, 45
3, 363240, Note_on_c, 0, 66, 45
3, 363329, Note_on_c, 0, 68, 0
3, 363419, Note_on_c, 0, 66, 0
3, 363419, Note_on_c, 0, 63, 0
3, 363420, Note_on_c, 0, 69, 47
3, 363509, Note_on_c, 0, 69, 0
3, 363600, Note_on_c, 0, 69, 47
3, 363780, Note_on_c, 0, 69, 0
3, 363780, Note_on_c, 0, 72, 46
3, 363960, Note_on_c, 0, 72, 0
3, 363960, Note_on_c, 0, 68, 46
3, 363960, Note_on_c, 0, 63, 51
3, 363960, Note_on_c, 0, 66, 51
3, 364049, Note_on_c, 0, 68, 0
3, 364139, Note_on_c, 0, 66, 0
3, 364139, Note_on_c, 0, 63, 0
3, 364140, Note_on_c, 0, 69, 45
3, 364229, Note_on_c, 0, 69, 0
3, 364320, Note_on_c, 0, 69, 44
3, 364500, Note_on_c, 0, 69, 0
3, 364500, Note_on_c, 0, 72, 44
3, 364680, Note_on_c, 0, 72, 0
3, 364680, Note_on_c, 0, 68, 43
3, 364680, Note_on_c, 0, 63, 51
3, 364680, Note_on_c, 0, 66, 51
3, 364769, Note_on_c, 0, 68, 0
3, 364859, Note_on_c, 0, 66, 0
3, 364859, Note_on_c, 0, 63, 0
3, 364860, Note_on_c, 0, 69, 43
3, 364949, Note_on_c, 0, 69, 0
3, 365040, Note_on_c, 0, 69, 42
3, 365220, Note_on_c, 0, 69, 0
3, 365220, Note_on_c, 0, 72, 42
3, 365400, Note_on_c, 0, 72, 0
3, 365400, Note_on_c, 0, 68, 41
3, 365400, Note_on_c, 0, 63, 49
3, 365400, Note_on_c, 0, 66, 49
3, 365489, Note_on_c, 0, 68, 0
3, 365579, Note_on_c, 0, 66, 0
3, 365579, Note_on_c, 0, 63, 0
3, 365580, Note_on_c, 0, 69, 41
3, 365669, Note_on_c, 0, 69, 0
3, 365760, Note_on_c, 0, 60, 0
3, 365760, Note_on_c, 0, 69, 40
3, 365940, Note_on_c, 0, 69, 0
3, 365940, Note_on_c, 0, 71, 39
3, 366120, Note_on_c, 0, 71, 0
3, 366120, Note_on_c, 0, 72, 46
3, 366300, Note_on_c, 0, 72, 0
3, 366300, Note_on_c, 0, 71, 35
3, 366480, Note_on_c, 0, 71, 0
3, 366480, Note_on_c, 0, 69, 41
3, 366660, Note_on_c, 0, 69, 0
3, 368280, Note_on_c, 0, 48, 40
3, 368280, Note_on_c, 0, 52, 40
3, 368280, Note_on_c, 0, 57, 40
3, 368280, Note_on_c, 0, 36, 51
3, 368459, Note_on_c, 0, 36, 0
3, 368459, Note_on_c, 0, 48, 0
3, 368459, Note_on_c, 0, 52, 0
3, 368459, Note_on_c, 0, 57, 0
3, 368640, Note_on_c, 0, 48, 45
3, 368640, Note_on_c, 0, 53, 45
3, 368640, Note_on_c, 0, 57, 45
3, 368640, Note_on_c, 0, 41, 61
3, 368819, Note_on_c, 0, 41, 0
3, 368819, Note_on_c, 0, 48, 0
3, 368819, Note_on_c, 0, 53, 0
3, 368819, Note_on_c, 0, 57, 0
3, 369000, Note_on_c, 0, 50, 41
3, 369000, Note_on_c, 0, 38, 53
3, 369179, Note_on_c, 0, 38, 0
3, 369179, Note_on_c, 0, 50, 0
3, 369720, Note_on_c, 0, 48, 41
3, 369720, Note_on_c, 0, 52, 41
3, 369720, Note_on_c, 0, 57, 41
3, 369720, Note_on_c, 0, 36, 50
3, 369899, Note_on_c, 0, 36, 0
3, 369899, Note_on_c, 0, 48, 0
3, 369899, Note_on_c, 0, 52, 0
3, 369899, Note_on_c, 0, 57, 0
3, 370080, Note_on_c, 0, 48, 46
3, 370080, Note_on_c, 0, 53, 46
3, 370080, Note_on_c, 0, 57, 46
3, 370080, Note_on_c, 0, 41, 59
3, 370259, Note_on_c, 0, 41, 0
3, 370259, Note_on_c, 0, 48, 0
3, 370259, Note_on_c, 0, 53, 0
3, 370259, Note_on_c, 0, 57, 0
3, 370440, Note_on_c, 0, 50, 43
3, 370440, Note_on_c, 0, 38, 56
3, 370619, Note_on_c, 0, 38, 0
3, 370619, Note_on_c, 0, 50, 0
3, 371160, Note_on_c, 0, 50, 40
3, 371160, Note_on_c, 0, 53, 40
3, 371160, Note_on_c, 0, 55, 40
3, 371160, Note_on_c, 0, 34, 47
3, 371160, Note_on_c, 0, 46, 47
3, 371339, Note_on_c, 0, 46, 0
3, 371339, Note_on_c, 0, 55, 0
3, 371339, Note_on_c, 0, 50, 0
3, 371339, Note_on_c, 0, 53, 0
3, 371339, Note_on_c, 0, 34, 0
3, 371520, Note_on_c, 0, 53, 45
3, 371520, Note_on_c, 0, 57, 45
3, 371520, Note_on_c, 0, 36, 54
3, 371520, Note_on_c, 0, 48, 54
3, 371699, Note_on_c, 0, 48, 0
3, 371699, Note_on_c, 0, 53, 0
3, 371699, Note_on_c, 0, 57, 0
3, 371699, Note_on_c, 0, 36, 0
3, 371880, Note_on_c, 0, 52, 55
3, 371880, Note_on_c, 0, 57, 55
3, 371880, Note_on_c, 0, 64, 55
3, 371880, Note_on_c, 0, 37, 56
3, 371880, Note_on_c, 0, 49, 56
3, 372059, Note_on_c, 0, 49, 0
3, 372059, Note_on_c, 0, 64, 0
3, 372059, Note_on_c, 0, 52, 0
3, 372059, Note_on_c, 0, 57, 0
3, 372059, Note_on_c, 0, 37, 0
3, 372240, Note_on_c, 0, 53, 66
3, 372240, Note_on_c, 0, 57, 66
3, 372240, Note_on_c, 0, 65, 66
3, 372240, Note_on_c, 0, 38, 56
3, 372240, Note_on_c, 0, 50, 56
3, 372419, Note_on_c, 0, 50, 0
3, 372419, Note_on_c, 0, 65, 0
3, 372419, Note_on_c, 0, 53, 0
3, 372419, Note_on_c, 0, 57, 0
3, 372419, Note_on_c, 0, 38, 0
3, 372960, Note_on_c, 0, 53, 71
3, 372960, Note_on_c, 0, 57, 71
3, 372960, Note_on_c, 0, 62, 71
3, 372960, Note_on_c, 0, 41, 49
3, 373139, Note_on_c, 0, 41, 0
3, 373139, Note_on_c, 0, 53, 0
3, 373139, Note_on_c, 0, 57, 0
3, 373139, Note_on_c, 0, 62, 0
3, 373320, Note_on_c, 0, 52, 64
3, 373320, Note_on_c, 0, 57, 64
3, 373320, Note_on_c, 0, 64, 64
3, 373320, Note_on_c, 0, 36, 45
3, 373499, Note_on_c, 0, 36, 0
3, 373499, Note_on_c, 0, 52, 0
3, 373499, Note_on_c, 0, 57, 0
3, 373499, Note_on_c, 0, 64, 0
3, 374040, Note_on_c, 0, 53, 52
3, 374040, Note_on_c, 0, 57, 52
3, 374040, Note_on_c, 0, 60, 52
3, 374040, Note_on_c, 0, 38, 50
3, 374219, Note_on_c, 0, 38, 0
3, 374219, Note_on_c, 0, 53, 0
3, 374219, Note_on_c, 0, 57, 0
3, 374219, Note_on_c, 0, 60, 0
3, 374400, Note_on_c, 0, 50, 45
3, 374400, Note_on_c, 0, 53, 45
3, 374400, Note_on_c, 0, 58, 45
3, 374400, Note_on_c, 0, 62, 45
3, 374400, Note_on_c, 0, 34, 54
3, 374579, Note_on_c, 0, 34, 0
3, 374579, Note_on_c, 0, 58, 0
3, 374579, Note_on_c, 0, 50, 0
3, 374579, Note_on_c, 0, 53, 0
3, 374579, Note_on_c, 0, 62, 0
3, 374760, Note_on_c, 0, 48, 40
3, 374760, Note_on_c, 0, 52, 40
3, 374760, Note_on_c, 0, 57, 40
3, 374760, Note_on_c, 0, 36, 59
3, 374939, Note_on_c, 0, 36, 0
3, 374939, Note_on_c, 0, 48, 0
3, 374939, Note_on_c, 0, 52, 0
3, 374939, Note_on_c, 0, 57, 0
3, 375120, Note_on_c, 0, 48, 48
3, 375120, Note_on_c, 0, 53, 48
3, 375120, Note_on_c, 0, 57, 48
3, 375120, Note_on_c, 0, 41, 59
3, 375299, Note_on_c, 0, 41, 0
3, 375299, Note_on_c, 0, 48, 0
3, 375299, Note_on_c, 0, 53, 0
3, 375299, Note_on_c, 0, 57, 0
3, 375480, Note_on_c, 0, 50, 39
3, 375480, Note_on_c, 0, 38, 57
3, 375659, Note_on_c, 0, 38, 0
3, 375659, Note_on_c, 0, 50, 0
3, 376200, Note_on_c, 0, 46, 40
3, 376200, Note_on_c, 0, 50, 40
3, 376200, Note_on_c, 0, 55, 40
3, 376200, Note_on_c, 0, 34, 48
3, 376379, Note_on_c, 0, 34, 0
3, 376379, Note_on_c, 0, 46, 0
3, 376379, Note_on_c, 0, 50, 0
3, 376379, Note_on_c, 0, 55, 0
3, 376560, Note_on_c, 0, 50, 43
3, 376560, Note_on_c, 0, 53, 43
3, 376560, Note_on_c, 0, 57, 43
3, 376560, Note_on_c, 0, 38, 59
3, 376739, Note_on_c, 0, 38, 0
3, 376739, Note_on_c, 0, 50, 0
3, 376739, Note_on_c, 0, 53, 0
3, 376739, Note_on_c, 0, 57, 0
3, 376920, Note_on_c, 0, 48, 41
3, 376920, Note_on_c, 0, 36, 53
3, 377099, Note_on_c, 0, 36, 0
3, 377099, Note_on_c, 0, 48, 0
3, 377280, Note_on_c, 0, 46, 53
3, 377280, Note_on_c, 0, 50, 53
3, 377280, Note_on_c, 0, 53, 53
3, 377280, Note_on_c, 0, 34, 55
3, 377459, Note_on_c, 0, 34, 0
3, 377459, Note_on_c, 0, 46, 0
3, 377459, Note_on_c, 0, 50, 0
3, 377459, Note_on_c, 0, 53, 0
3, 377640, Note_on_c, 0, 43, 50
3, 377640, Note_on_c, 0, 50, 50
3, 377640, Note_on_c, 0, 55, 50
3, 377640, Note_on_c, 0, 31, 54
3, 377819, Note_on_c, 0, 31, 0
3, 377819, Note_on_c, 0, 43, 0
3, 377819, Note_on_c, 0, 50, 0
3, 377819, Note_on_c, 0, 55, 0
3, 378360, Note_on_c, 0, 45, 39
3, 378360, Note_on_c, 0, 50, 39
3, 378360, Note_on_c, 0, 53, 39
3, 378360, Note_on_c, 0, 38, 45
3, 378539, Note_on_c, 0, 38, 0
3, 378539, Note_on_c, 0, 45, 0
3, 378539, Note_on_c, 0, 50, 0
3, 378539, Note_on_c, 0, 53, 0
3, 379080, Note_on_c, 0, 46, 48
3, 379080, Note_on_c, 0, 50, 48
3, 379080, Note_on_c, 0, 55, 48
3, 379259, Note_on_c, 0, 55, 0
3, 379259, Note_on_c, 0, 50, 0
3, 379259, Note_on_c, 0, 46, 0
3, 379440, Note_on_c, 0, 49, 47
3, 379440, Note_on_c, 0, 52, 47
3, 379440, Note_on_c, 0, 57, 47
3, 379440, Note_on_c, 0, 33, 54
3, 379440, Note_on_c, 0, 45, 54
3, 379619, Note_on_c, 0, 45, 0
3, 379619, Note_on_c, 0, 57, 0
3, 379619, Note_on_c, 0, 49, 0
3, 379619, Note_on_c, 0, 52, 0
3, 379619, Note_on_c, 0, 33, 0
3, 380160, Note_on_c, 0, 48, 40
3, 380160, Note_on_c, 0, 53, 40
3, 380160, Note_on_c, 0, 57, 40
3, 380160, Note_on_c, 0, 41, 47
3, 380339, Note_on_c, 0, 41, 0
3, 380339, Note_on_c, 0, 48, 0
3, 380339, Note_on_c, 0, 53, 0
3, 380339, Note_on_c, 0, 57, 0
3, 380520, Note_on_c, 0, 50, 42
3, 380520, Note_on_c, 0, 38, 52
3, 380699, Note_on_c, 0, 38, 0
3, 380699, Note_on_c, 0, 50, 0
3, 381240, Note_on_c, 0, 52, 37
3, 381240, Note_on_c, 0, 57, 37
3, 381240, Note_on_c, 0, 60, 38
3, 381240, Note_on_c, 0, 36, 48
3, 381329, Note_on_c, 0, 60, 0
3, 381419, Note_on_c, 0, 52, 0
3, 381419, Note_on_c, 0, 57, 0
3, 381419, Note_on_c, 0, 36, 0
3, 381600, Note_on_c, 0, 48, 45
3, 381600, Note_on_c, 0, 53, 45
3, 381600, Note_on_c, 0, 57, 45
3, 381600, Note_on_c, 0, 41, 59
3, 381779, Note_on_c, 0, 41, 0
3, 381779, Note_on_c, 0, 48, 0
3, 381779, Note_on_c, 0, 53, 0
3, 381779, Note_on_c, 0, 57, 0
3, 381960, Note_on_c, 0, 50, 35
3, 381960, Note_on_c, 0, 38, 55
3, 382139, Note_on_c, 0, 38, 0
3, 382139, Note_on_c, 0, 50, 0
3, 382680, Note_on_c, 0, 50, 39
3, 382680, Note_on_c, 0, 53, 39
3, 382680, Note_on_c, 0, 58, 39
3, 382680, Note_on_c, 0, 34, 47
3, 382680, Note_on_c, 0, 46, 47
3, 382859, Note_on_c, 0, 46, 0
3, 382859, Note_on_c, 0, 58, 0
3, 382859, Note_on_c, 0, 50, 0
3, 382859, Note_on_c, 0, 53, 0
3, 382859, Note_on_c, 0, 34, 0
3, 383040, Note_on_c, 0, 53, 45
3, 383040, Note_on_c, 0, 57, 45
3, 383040, Note_on_c, 0, 60, 45
3, 383040, Note_on_c, 0, 33, 57
3, 383040, Note_on_c, 0, 45, 57
3, 383219, Note_on_c, 0, 45, 0
3, 383219, Note_on_c, 0, 60, 0
3, 383219, Note_on_c, 0, 53, 0
3, 383219, Note_on_c, 0, 57, 0
3, 383219, Note_on_c, 0, 33, 0
3, 383400, Note_on_c, 0, 53, 58
3, 383400, Note_on_c, 0, 58, 58
3, 383400, Note_on_c, 0, 62, 58
3, 383400, Note_on_c, 0, 34, 53
3, 383400, Note_on_c, 0, 46, 53
3, 383579, Note_on_c, 0, 46, 0
3, 383579, Note_on_c, 0, 62, 0
3, 383579, Note_on_c, 0, 53, 0
3, 383579, Note_on_c, 0, 58, 0
3, 383579, Note_on_c, 0, 34, 0
3, 383760, Note_on_c, 0, 53, 95
3, 383760, Note_on_c, 0, 58, 95
3, 383760, Note_on_c, 0, 62, 95
3, 383760, Note_on_c, 0, 65, 95
3, 383760, Note_on_c, 0, 31, 50
3, 383760, Note_on_c, 0, 43, 50
3, 383939, Note_on_c, 0, 43, 0
3, 383939, Note_on_c, 0, 58, 0
3, 383939, Note_on_c, 0, 62, 0
3, 383939, Note_on_c, 0, 53, 0
3, 383939, Note_on_c, 0, 31, 0
3, 383939, Note_on_c, 0, 65, 0
3, 384480, Note_on_c, 0, 53, 71
3, 384480, Note_on_c, 0, 58, 71
3, 384480, Note_on_c, 0, 62, 71
3, 384480, Note_on_c, 0, 34, 52
3, 384480, Note_on_c, 0, 46, 52
3, 384659, Note_on_c, 0, 46, 0
3, 384659, Note_on_c, 0, 62, 0
3, 384659, Note_on_c, 0, 53, 0
3, 384659, Note_on_c, 0, 58, 0
3, 384659, Note_on_c, 0, 34, 0
3, 384840, Note_on_c, 0, 55, 64
3, 384840, Note_on_c, 0, 60, 64
3, 384840, Note_on_c, 0, 64, 64
3, 384840, Note_on_c, 0, 33, 56
3, 384840, Note_on_c, 0, 45, 56
3, 385019, Note_on_c, 0, 45, 0
3, 385019, Note_on_c, 0, 64, 0
3, 385019, Note_on_c, 0, 55, 0
3, 385019, Note_on_c, 0, 60, 0
3, 385019, Note_on_c, 0, 33, 0
3, 385560, Note_on_c, 0, 52, 52
3, 385560, Note_on_c, 0, 55, 52
3, 385560, Note_on_c, 0, 60, 52
3, 385560, Note_on_c, 0, 36, 51
3, 385560, Note_on_c, 0, 48, 51
3, 385739, Note_on_c, 0, 48, 0
3, 385739, Note_on_c, 0, 60, 0
3, 385739, Note_on_c, 0, 52, 0
3, 385739, Note_on_c, 0, 55, 0
3, 385739, Note_on_c, 0, 36, 0
3, 385920, Note_on_c, 0, 53, 45
3, 385920, Note_on_c, 0, 58, 45
3, 385920, Note_on_c, 0, 62, 45
3, 385920, Note_on_c, 0, 34, 58
3, 385920, Note_on_c, 0, 46, 58
3, 386099, Note_on_c, 0, 46, 0
3, 386099, Note_on_c, 0, 62, 0
3, 386099, Note_on_c, 0, 53, 0
3, 386099, Note_on_c, 0, 58, 0
3, 386099, Note_on_c, 0, 34, 0
3, 386280, Note_on_c, 0, 50, 38
3, 386280, Note_on_c, 0, 53, 38
3, 386280, Note_on_c, 0, 57, 38
3, 386280, Note_on_c, 0, 38, 50
3, 386459, Note_on_c, 0, 38, 0
3, 386459, Note_on_c, 0, 50, 0
3, 386459, Note_on_c, 0, 53, 0
3, 386459, Note_on_c, 0, 57, 0
3, 386640, Note_on_c, 0, 50, 44
3, 386640, Note_on_c, 0, 55, 44
3, 386640, Note_on_c, 0, 58, 44
3, 386640, Note_on_c, 0, 43, 61
3, 386819, Note_on_c, 0, 43, 0
3, 386819, Note_on_c, 0, 50, 0
3, 386819, Note_on_c, 0, 55, 0
3, 386819, Note_on_c, 0, 58, 0
3, 387000, Note_on_c, 0, 53, 43
3, 387000, Note_on_c, 0, 40, 57
3, 387179, Note_on_c, 0, 40, 0
3, 387179, Note_on_c, 0, 53, 0
3, 387720, Note_on_c, 0, 52, 39
3, 387720, Note_on_c, 0, 57, 39
3, 387720, Note_on_c, 0, 60, 39
3, 387720, Note_on_c, 0, 40, 56
3, 387899, Note_on_c, 0, 40, 0
3, 387899, Note_on_c, 0, 52, 0
3, 387899, Note_on_c, 0, 57, 0
3, 387899, Note_on_c, 0, 60, 0
3, 388080, Note_on_c, 0, 48, 43
3, 388080, Note_on_c, 0, 53, 43
3, 388080, Note_on_c, 0, 57, 43
3, 388080, Note_on_c, 0, 41, 52
3, 388259, Note_on_c, 0, 41, 0
3, 388259, Note_on_c, 0, 48, 0
3, 388259, Note_on_c, 0, 53, 0
3, 388259, Note_on_c, 0, 57, 0
3, 388440, Note_on_c, 0, 52, 44
3, 388440, Note_on_c, 0, 40, 53
3, 388619, Note_on_c, 0, 40, 0
3, 388619, Note_on_c, 0, 52, 0
3, 388800, Note_on_c, 0, 45, 41
3, 388800, Note_on_c, 0, 50, 41
3, 388800, Note_on_c, 0, 53, 41
3, 388800, Note_on_c, 0, 38, 50
3, 388979, Note_on_c, 0, 38, 0
3, 388979, Note_on_c, 0, 45, 0
3, 388979, Note_on_c, 0, 50, 0
3, 388979, Note_on_c, 0, 53, 0
3, 389160, Note_on_c, 0, 46, 45
3, 389160, Note_on_c, 0, 50, 45
3, 389160, Note_on_c, 0, 55, 45
3, 389160, Note_on_c, 0, 34, 57
3, 389339, Note_on_c, 0, 34, 0
3, 389339, Note_on_c, 0, 46, 0
3, 389339, Note_on_c, 0, 50, 0
3, 389339, Note_on_c, 0, 55, 0
3, 389880, Note_on_c, 0, 43, 40
3, 389880, Note_on_c, 0, 48, 40
3, 389880, Note_on_c, 0, 52, 40
3, 389880, Note_on_c, 0, 36, 47
3, 390059, Note_on_c, 0, 36, 0
3, 390059, Note_on_c, 0, 43, 0
3, 390059, Note_on_c, 0, 48, 0
3, 390059, Note_on_c, 0, 52, 0
3, 390240, Note_on_c, 0, 45, 45
3, 390240, Note_on_c, 0, 50, 45
3, 390240, Note_on_c, 0, 53, 45
3, 390240, Note_on_c, 0, 38, 60
3, 390419, Note_on_c, 0, 38, 0
3, 390419, Note_on_c, 0, 45, 0
3, 390419, Note_on_c, 0, 50, 0
3, 390419, Note_on_c, 0, 53, 0
3, 390600, Note_on_c, 0, 46, 39
3, 390600, Note_on_c, 0, 50, 39
3, 390600, Note_on_c, 0, 55, 39
3, 390779, Note_on_c, 0, 55, 0
3, 390779, Note_on_c, 0, 50, 0
3, 390779, Note_on_c, 0, 46, 0
3, 390960, Note_on_c, 0, 49, 43
3, 390960, Note_on_c, 0, 52, 43
3, 390960, Note_on_c, 0, 57, 43
3, 390960, Note_on_c, 0, 45, 48
3, 391139, Note_on_c, 0, 45, 0
3, 391139, Note_on_c, 0, 49, 0
3, 391139, Note_on_c, 0, 52, 0
3, 391139, Note_on_c, 0, 57, 0
3, 391680, Note_on_c, 0, 33, 39
3, 391680, Note_on_c, 0, 45, 39
3, 391859, Note_on_c, 0, 45, 0
3, 391859, Note_on_c, 0, 33, 0
3, 392040, Note_on_c, 0, 52, 41
3, 392040, Note_on_c, 0, 57, 41
3, 392040, Note_on_c, 0, 61, 41
3, 392040, Note_on_c, 0, 64, 41
3, 392040, Note_on_c, 0, 33, 41
3, 392040, Note_on_c, 0, 45, 41
3, 392219, Note_on_c, 0, 45, 0
3, 392219, Note_on_c, 0, 57, 0
3, 392219, Note_on_c, 0, 61, 0
3, 392219, Note_on_c, 0, 52, 0
3, 392219, Note_on_c, 0, 33, 0
3, 392219, Note_on_c, 0, 64, 0
3, 392400, Note_on_c, 0, 53, 59
3, 392400, Note_on_c, 0, 57, 59
3, 392400, Note_on_c, 0, 62, 59
3, 392400, Note_on_c, 0, 65, 59
3, 392400, Note_on_c, 0, 38, 56
3, 392400, Note_on_c, 0, 45, 56
3, 393033, Note_on_c, 0, 45, 0
3, 393033, Note_on_c, 0, 57, 0
3, 393033, Note_on_c, 0, 62, 0
3, 393033, Note_on_c, 0, 53, 0
3, 393033, Note_on_c, 0, 38, 0
3, 393033, Note_on_c, 0, 65, 0
3, 393120, Note_on_c, 0, 33, 45
3, 393120, Note_on_c, 0, 45, 45
3, 393299, Note_on_c, 0, 45, 0
3, 393299, Note_on_c, 0, 33, 0
3, 393480, Note_on_c, 0, 53, 43
3, 393480, Note_on_c, 0, 57, 43
3, 393480, Note_on_c, 0, 62, 43
3, 393480, Note_on_c, 0, 38, 47
3, 393480, Note_on_c, 0, 45, 47
3, 393659, Note_on_c, 0, 45, 0
3, 393659, Note_on_c, 0, 62, 0
3, 393659, Note_on_c, 0, 53, 0
3, 393659, Note_on_c, 0, 57, 0
3, 393659, Note_on_c, 0, 38, 0
3, 393840, Note_on_c, 0, 57, 60
3, 393840, Note_on_c, 0, 61, 60
3, 393840, Note_on_c, 0, 64, 60
3, 393840, Note_on_c, 0, 33, 55
3, 393840, Note_on_c, 0, 45, 55
3, 394473, Note_on_c, 0, 45, 0
3, 394473, Note_on_c, 0, 64, 0
3, 394473, Note_on_c, 0, 57, 0
3, 394473, Note_on_c, 0, 61, 0
3, 394473, Note_on_c, 0, 33, 0
3, 394560, Note_on_c, 0, 33, 42
3, 394560, Note_on_c, 0, 45, 42
3, 394739, Note_on_c, 0, 45, 0
3, 394739, Note_on_c, 0, 33, 0
3, 394920, Note_on_c, 0, 49, 37
3, 394920, Note_on_c, 0, 52, 37
3, 394920, Note_on_c, 0, 57, 37
3, 394920, Note_on_c, 0, 33, 47
3, 394920, Note_on_c, 0, 45, 47
3, 395099, Note_on_c, 0, 45, 0
3, 395099, Note_on_c, 0, 57, 0
3, 395099, Note_on_c, 0, 49, 0
3, 395099, Note_on_c, 0, 52, 0
3, 395099, Note_on_c, 0, 33, 0
3, 395280, Note_on_c, 0, 50, 47
3, 395280, Note_on_c, 0, 53, 47
3, 395280, Note_on_c, 0, 57, 47
3, 395280, Note_on_c, 0, 38, 42
3, 395280, Note_on_c, 0, 45, 42
3, 395459, Note_on_c, 0, 45, 0
3, 395459, Note_on_c, 0, 57, 0
3, 395459, Note_on_c, 0, 50, 0
3, 395459, Note_on_c, 0, 53, 0
3, 395459, Note_on_c, 0, 38, 0
3, 395640, Note_on_c, 0, 49, 42
3, 395640, Note_on_c, 0, 52, 42
3, 395640, Note_on_c, 0, 40, 50
3, 395640, Note_on_c, 0, 45, 50
3, 395819, Note_on_c, 0, 45, 0
3, 395819, Note_on_c, 0, 49, 0
3, 395819, Note_on_c, 0, 52, 0
3, 395819, Note_on_c, 0, 40, 0
3, 396000, Note_on_c, 0, 47, 51
3, 396000, Note_on_c, 0, 50, 51
3, 396000, Note_on_c, 0, 41, 54
3, 396000, Note_on_c, 0, 45, 54
3, 396633, Note_on_c, 0, 45, 0
3, 396633, Note_on_c, 0, 47, 0
3, 396633, Note_on_c, 0, 50, 0
3, 396633, Note_on_c, 0, 41, 0
3, 396720, Note_on_c, 0, 33, 47
3, 396720, Note_on_c, 0, 45, 47
3, 396899, Note_on_c, 0, 45, 0
3, 396899, Note_on_c, 0, 33, 0
3, 397080, Note_on_c, 0, 49, 37
3, 397080, Note_on_c, 0, 52, 37
3, 397080, Note_on_c, 0, 33, 44
3, 397080, Note_on_c, 0, 45, 44
3, 397259, Note_on_c, 0, 45, 0
3, 397259, Note_on_c, 0, 49, 0
3, 397259, Note_on_c, 0, 52, 0
3, 397259, Note_on_c, 0, 33, 0
3, 397440, Note_on_c, 0, 50, 59
3, 397440, Note_on_c, 0, 53, 59
3, 397440, Note_on_c, 0, 38, 53
3, 397440, Note_on_c, 0, 45, 53
3, 398073, Note_on_c, 0, 45, 0
3, 398073, Note_on_c, 0, 50, 0
3, 398073, Note_on_c, 0, 53, 0
3, 398073, Note_on_c, 0, 38, 0
3, 398160, Note_on_c, 0, 33, 47
3, 398160, Note_on_c, 0, 45, 47
3, 398339, Note_on_c, 0, 45, 0
3, 398339, Note_on_c, 0, 33, 0
3, 398520, Note_on_c, 0, 47, 37
3, 398520, Note_on_c, 0, 50, 37
3, 398520, Note_on_c, 0, 53, 37
3, 398520, Note_on_c, 0, 38, 47
3, 398520, Note_on_c, 0, 45, 47
3, 398699, Note_on_c, 0, 45, 0
3, 398699, Note_on_c, 0, 53, 0
3, 398699, Note_on_c, 0, 47, 0
3, 398699, Note_on_c, 0, 50, 0
3, 398699, Note_on_c, 0, 38, 0
3, 398880, Note_on_c, 0, 49, 52
3, 398880, Note_on_c, 0, 52, 52
3, 398880, Note_on_c, 0, 40, 57
3, 398880, Note_on_c, 0, 45, 57
3, 399513, Note_on_c, 0, 45, 0
3, 399513, Note_on_c, 0, 49, 0
3, 399513, Note_on_c, 0, 52, 0
3, 399513, Note_on_c, 0, 40, 0
3, 399600, Note_on_c, 0, 33, 43
3, 399600, Note_on_c, 0, 45, 43
3, 399779, Note_on_c, 0, 45, 0
3, 399779, Note_on_c, 0, 33, 0
3, 399960, Note_on_c, 0, 50, 47
3, 399960, Note_on_c, 0, 41, 44
3, 399960, Note_on_c, 0, 45, 44
3, 400049, Note_on_c, 0, 50, 0
3, 400139, Note_on_c, 0, 45, 0
3, 400139, Note_on_c, 0, 41, 0
3, 400140, Note_on_c, 0, 61, 70
3, 400229, Note_on_c, 0, 61, 0
3, 400320, Note_on_c, 0, 58, 59
3, 400320, Note_on_c, 0, 62, 59
3, 400320, Note_on_c, 0, 43, 53
3, 400320, Note_on_c, 0, 47, 53
3, 400320, Note_on_c, 0, 50, 53
3, 400409, Note_on_c, 0, 62, 0
3, 400409, Note_on_c, 0, 58, 0
3, 400499, Note_on_c, 0, 47, 0
3, 400499, Note_on_c, 0, 43, 0
3, 400499, Note_on_c, 0, 50, 0
3, 400500, Note_on_c, 0, 61, 52
3, 400589, Note_on_c, 0, 61, 0
3, 400680, Note_on_c, 0, 62, 63
3, 400680, Note_on_c, 0, 45, 45
3, 400680, Note_on_c, 0, 48, 45
3, 400680, Note_on_c, 0, 50, 45
3, 400769, Note_on_c, 0, 62, 0
3, 400859, Note_on_c, 0, 45, 0
3, 400859, Note_on_c, 0, 48, 0
3, 400859, Note_on_c, 0, 50, 0
3, 400860, Note_on_c, 0, 61, 54
3, 400949, Note_on_c, 0, 61, 0
3, 401040, Note_on_c, 0, 62, 60
3, 401040, Note_on_c, 0, 47, 56
3, 401040, Note_on_c, 0, 50, 56
3, 401129, Note_on_c, 0, 62, 0
3, 401220, Note_on_c, 0, 58, 55
3, 401309, Note_on_c, 0, 58, 0
3, 401400, Note_on_c, 0, 60, 58
3, 401489, Note_on_c, 0, 60, 0
3, 401580, Note_on_c, 0, 57, 52
3, 401669, Note_on_c, 0, 57, 0
3, 401673, Note_on_c, 0, 50, 0
3, 401673, Note_on_c, 0, 47, 0
3, 401760, Note_on_c, 0, 58, 52
3, 401849, Note_on_c, 0, 58, 0
3, 401940, Note_on_c, 0, 55, 54
3, 402029, Note_on_c, 0, 55, 0
3, 402120, Note_on_c, 0, 57, 58
3, 402120, Note_on_c, 0, 46, 45
3, 402120, Note_on_c, 0, 50, 45
3, 402209, Note_on_c, 0, 57, 0
3, 402299, Note_on_c, 0, 50, 0
3, 402299, Note_on_c, 0, 46, 0
3, 402300, Note_on_c, 0, 53, 49
3, 402389, Note_on_c, 0, 53, 0
3, 402480, Note_on_c, 0, 45, 46
3, 402480, Note_on_c, 0, 49, 46
3, 402480, Note_on_c, 0, 52, 46
3, 402659, Note_on_c, 0, 52, 0
3, 402659, Note_on_c, 0, 49, 0
3, 402659, Note_on_c, 0, 45, 0
3, 402660, Note_on_c, 0, 56, 38
3, 402749, Note_on_c, 0, 56, 0
3, 402840, Note_on_c, 0, 57, 42
3, 402929, Note_on_c, 0, 57, 0
3, 403020, Note_on_c, 0, 53, 48
3, 403109, Note_on_c, 0, 53, 0
3, 403200, Note_on_c, 0, 55, 49
3, 403289, Note_on_c, 0, 55, 0
3, 403380, Note_on_c, 0, 52, 47
3, 403469, Note_on_c, 0, 52, 0
3, 403560, Note_on_c, 0, 53, 48
3, 403560, Note_on_c, 0, 46, 40
3, 403649, Note_on_c, 0, 53, 0
3, 403739, Note_on_c, 0, 46, 0
3, 403740, Note_on_c, 0, 50, 44
3, 403829, Note_on_c, 0, 50, 0
3, 403920, Note_on_c, 0, 45, 48
3, 403920, Note_on_c, 0, 49, 48
3, 403920, Note_on_c, 0, 52, 48
3, 404099, Note_on_c, 0, 52, 0
3, 404099, Note_on_c, 0, 49, 0
3, 404099, Note_on_c, 0, 45, 0
3, 404100, Note_on_c, 0, 56, 42
3, 404189, Note_on_c, 0, 56, 0
3, 404280, Note_on_c, 0, 57, 47
3, 404369, Note_on_c, 0, 57, 0
3, 404460, Note_on_c, 0, 53, 44
3, 404549, Note_on_c, 0, 53, 0
3, 404640, Note_on_c, 0, 55, 44
3, 404729, Note_on_c, 0, 55, 0
3, 404820, Note_on_c, 0, 52, 44
3, 404909, Note_on_c, 0, 52, 0
3, 405000, Note_on_c, 0, 46, 41
3, 405000, Note_on_c, 0, 50, 41
3, 405179, Note_on_c, 0, 50, 0
3, 405179, Note_on_c, 0, 46, 0
3, 405360, Note_on_c, 0, 45, 51
3, 405360, Note_on_c, 0, 49, 51
3, 405360, Note_on_c, 0, 52, 51
3, 405539, Note_on_c, 0, 52, 0
3, 405539, Note_on_c, 0, 49, 0
3, 405539, Note_on_c, 0, 45, 0
3, 405720, Note_on_c, 0, 57, 41
3, 405809, Note_on_c, 0, 57, 0
3, 405900, Note_on_c, 0, 53, 39
3, 405989, Note_on_c, 0, 53, 0
3, 406080, Note_on_c, 0, 55, 47
3, 406169, Note_on_c, 0, 55, 0
3, 406260, Note_on_c, 0, 52, 39
3, 406349, Note_on_c, 0, 52, 0
3, 406440, Note_on_c, 0, 50, 45
3, 406440, Note_on_c, 0, 46, 37
3, 406619, Note_on_c, 0, 46, 0
3, 406619, Note_on_c, 0, 50, 0
3, 406800, Note_on_c, 0, 45, 47
3, 406800, Note_on_c, 0, 49, 47
3, 406800, Note_on_c, 0, 52, 47
3, 406979, Note_on_c, 0, 52, 0
3, 406979, Note_on_c, 0, 49, 0
3, 406979, Note_on_c, 0, 45, 0
3, 406980, Note_on_c, 0, 40, 46
3, 407069, Note_on_c, 0, 40, 0
3, 407160, Note_on_c, 0, 45, 57
3, 407249, Note_on_c, 0, 45, 0
3, 407340, Note_on_c, 0, 44, 54
3, 407429, Note_on_c, 0, 44, 0
3, 407520, Note_on_c, 0, 45, 60
3, 407609, Note_on_c, 0, 45, 0
3, 407700, Note_on_c, 0, 41, 57
3, 407789, Note_on_c, 0, 41, 0
3, 407880, Note_on_c, 0, 43, 57
3, 407969, Note_on_c, 0, 43, 0
3, 408060, Note_on_c, 0, 40, 52
3, 408149, Note_on_c, 0, 40, 0
3, 408240, Note_on_c, 0, 45, 38
3, 408240, Note_on_c, 0, 49, 38
3, 408240, Note_on_c, 0, 52, 38
3, 408419, Note_on_c, 0, 52, 0
3, 408419, Note_on_c, 0, 49, 0
3, 408419, Note_on_c, 0, 45, 0
3, 408960, Note_on_c, 0, 45, 48
3, 409049, Note_on_c, 0, 45, 0
3, 409140, Note_on_c, 0, 41, 46
3, 409229, Note_on_c, 0, 41, 0
3, 409320, Note_on_c, 0, 43, 52
3, 409409, Note_on_c, 0, 43, 0
3, 409500, Note_on_c, 0, 40, 53
3, 409589, Note_on_c, 0, 40, 0
3, 409680, Note_on_c, 0, 45, 39
3, 409680, Note_on_c, 0, 49, 39
3, 409680, Note_on_c, 0, 52, 39
3, 409859, Note_on_c, 0, 52, 0
3, 409859, Note_on_c, 0, 49, 0
3, 409859, Note_on_c, 0, 45, 0
3, 409860, Note_on_c, 0, 40, 52
3, 409949, Note_on_c, 0, 40, 0
3, 410040, Note_on_c, 0, 45, 54
3, 410129, Note_on_c, 0, 45, 0
3, 410220, Note_on_c, 0, 44, 54
3, 410309, Note_on_c, 0, 44, 0
3, 410400, Note_on_c, 0, 45, 60
3, 410489, Note_on_c, 0, 45, 0
3, 410580, Note_on_c, 0, 41, 50
3, 410669, Note_on_c, 0, 41, 0
3, 410760, Note_on_c, 0, 43, 55
3, 410849, Note_on_c, 0, 43, 0
3, 410940, Note_on_c, 0, 40, 56
3, 411029, Note_on_c, 0, 40, 0
3, 411120, Note_on_c, 0, 45, 45
3, 411120, Note_on_c, 0, 48, 45
3, 411120, Note_on_c, 0, 52, 45
3, 411299, Note_on_c, 0, 52, 0
3, 411299, Note_on_c, 0, 48, 0
3, 411299, Note_on_c, 0, 45, 0
3, 411840, Note_on_c, 0, 45, 41
3, 411929, Note_on_c, 0, 45, 0
3, 412020, Note_on_c, 0, 41, 48
3, 412109, Note_on_c, 0, 41, 0
3, 412200, Note_on_c, 0, 43, 46
3, 412289, Note_on_c, 0, 43, 0
3, 412380, Note_on_c, 0, 40, 43
3, 412469, Note_on_c, 0, 40, 0
3, 412560, Note_on_c, 0, 45, 46
3, 412560, Note_on_c, 0, 48, 46
3, 412560, Note_on_c, 0, 52, 46
3, 412739, Note_on_c, 0, 52, 0
3, 412739, Note_on_c, 0, 48, 0
3, 412739, Note_on_c, 0, 45, 0
3, 413280, Note_on_c, 0, 54, 97
3, 413280, Note_on_c, 0, 57, 97
3, 413280, Note_on_c, 0, 47, 93
3, 413280, Note_on_c, 0, 39, 96
3, 413280, Note_on_c, 0, 45, 96
3, 413459, Note_on_c, 0, 45, 0
3, 413459, Note_on_c, 0, 57, 0
3, 413459, Note_on_c, 0, 54, 0
3, 413459, Note_on_c, 0, 39, 0
3, 413820, Note_on_c, 0, 47, 0
3, 413820, Note_on_c, 0, 47, 101
3, 413820, Note_on_c, 0, 44, 102
3, 414000, Note_on_c, 0, 44, 0
3, 414000, Note_on_c, 0, 45, 106
3, 414180, Note_on_c, 0, 45, 0
3, 414180, Note_on_c, 0, 42, 103
3, 414360, Note_on_c, 0, 42, 0
3, 414360, Note_on_c, 0, 43, 112
3, 414540, Note_on_c, 0, 43, 0
3, 414540, Note_on_c, 0, 46, 113
3, 414540, Note_on_c, 0, 37, 98
3, 414720, Note_on_c, 0, 37, 0
3, 414720, Note_on_c, 0, 46, 0
3, 414720, Note_on_c, 0, 47, 0
3, 414720, Note_on_c, 0, 47, 106
3, 414720, Note_on_c, 0, 39, 112
3, 414900, Note_on_c, 0, 47, 0
3, 414900, Note_on_c, 0, 46, 99
3, 415080, Note_on_c, 0, 46, 0
3, 415080, Note_on_c, 0, 39, 0
3, 415080, Note_on_c, 0, 47, 114
3, 415260, Note_on_c, 0, 47, 0
3, 415260, Note_on_c, 0, 47, 100
3, 415260, Note_on_c, 0, 44, 104
3, 415440, Note_on_c, 0, 44, 0
3, 415440, Note_on_c, 0, 46, 112
3, 415620, Note_on_c, 0, 46, 0
3, 415620, Note_on_c, 0, 42, 106
3, 415800, Note_on_c, 0, 42, 0
3, 415800, Note_on_c, 0, 43, 109
3, 415980, Note_on_c, 0, 43, 0
3, 415980, Note_on_c, 0, 46, 115
3, 415980, Note_on_c, 0, 37, 94
3, 416160, Note_on_c, 0, 37, 0
3, 416160, Note_on_c, 0, 46, 0
3, 416160, Note_on_c, 0, 47, 0
3, 416160, Note_on_c, 0, 47, 110
3, 416160, Note_on_c, 0, 39, 103
3, 416340, Note_on_c, 0, 47, 0
3, 416340, Note_on_c, 0, 46, 107
3, 416520, Note_on_c, 0, 46, 0
3, 416520, Note_on_c, 0, 39, 0
3, 416520, Note_on_c, 0, 47, 110
3, 416700, Note_on_c, 0, 39, 98
3, 416700, Note_on_c, 0, 42, 98
3, 416880, Note_on_c, 0, 42, 0
3, 416880, Note_on_c, 0, 39, 0
3, 416880, Note_on_c, 0, 40, 106
3, 416880, Note_on_c, 0, 43, 106
3, 417060, Note_on_c, 0, 43, 0
3, 417060, Note_on_c, 0, 40, 0
3, 417060, Note_on_c, 0, 47, 0
3, 417060, Note_on_c, 0, 46, 107
3, 417240, Note_on_c, 0, 46, 0
3, 417240, Note_on_c, 0, 47, 115
3, 417420, Note_on_c, 0, 40, 94
3, 417420, Note_on_c, 0, 43, 94
3, 417600, Note_on_c, 0, 43, 0
3, 417600, Note_on_c, 0, 40, 0
3, 417600, Note_on_c, 0, 41, 103
3, 417600, Note_on_c, 0, 44, 103
3, 417780, Note_on_c, 0, 47, 0
3, 417780, Note_on_c, 0, 46, 93
3, 417960, Note_on_c, 0, 46, 0
3, 417960, Note_on_c, 0, 44, 0
3, 417960, Note_on_c, 0, 41, 0
3, 417960, Note_on_c, 0, 47, 109
3, 418140, Note_on_c, 0, 41, 100
3, 418140, Note_on_c, 0, 44, 100
3, 418320, Note_on_c, 0, 44, 0
3, 418320, Note_on_c, 0, 41, 0
3, 418320, Note_on_c, 0, 42, 112
3, 418320, Note_on_c, 0, 45, 112
3, 418500, Note_on_c, 0, 45, 0
3, 418500, Note_on_c, 0, 42, 0
3, 418500, Note_on_c, 0, 46, 108
3, 418680, Note_on_c, 0, 46, 0
3, 418680, Note_on_c, 0, 47, 0
3, 418680, Note_on_c, 0, 47, 107
3, 418860, Note_on_c, 0, 46, 92
3, 418860, Note_on_c, 0, 51, 92
3, 418860, Note_on_c, 0, 43, 93
3, 419040, Note_on_c, 0, 43, 0
3, 419040, Note_on_c, 0, 47, 0
3, 419040, Note_on_c, 0, 46, 0
3, 419040, Note_on_c, 0, 51, 0
3, 419040, Note_on_c, 0, 44, 107
3, 419040, Note_on_c, 0, 52, 107
3, 419040, Note_on_c, 0, 32, 69
3, 419220, Note_on_c, 0, 32, 0
3, 419220, Note_on_c, 0, 52, 0
3, 419220, Note_on_c, 0, 44, 0
3, 419220, Note_on_c, 0, 51, 109
3, 419220, Note_on_c, 0, 39, 82
3, 419400, Note_on_c, 0, 39, 0
3, 419400, Note_on_c, 0, 51, 0
3, 419400, Note_on_c, 0, 52, 111
3, 419400, Note_on_c, 0, 40, 83
3, 419580, Note_on_c, 0, 40, 0
3, 419580, Note_on_c, 0, 52, 0
3, 419580, Note_on_c, 0, 52, 96
3, 419580, Note_on_c, 0, 49, 100
3, 419580, Note_on_c, 0, 37, 78
3, 419760, Note_on_c, 0, 37, 0
3, 419760, Note_on_c, 0, 49, 0
3, 419760, Note_on_c, 0, 50, 113
3, 419760, Note_on_c, 0, 38, 77
3, 419940, Note_on_c, 0, 38, 0
3, 419940, Note_on_c, 0, 50, 0
3, 419940, Note_on_c, 0, 47, 107
3, 419940, Note_on_c, 0, 35, 72
3, 420120, Note_on_c, 0, 35, 0
3, 420120, Note_on_c, 0, 47, 0
3, 420120, Note_on_c, 0, 48, 115
3, 420120, Note_on_c, 0, 36, 85
3, 420300, Note_on_c, 0, 36, 0
3, 420300, Note_on_c, 0, 48, 0
3, 420300, Note_on_c, 0, 45, 112
3, 420300, Note_on_c, 0, 51, 112
3, 420300, Note_on_c, 0, 33, 79
3, 420480, Note_on_c, 0, 33, 0
3, 420480, Note_on_c, 0, 52, 0
3, 420480, Note_on_c, 0, 45, 0
3, 420480, Note_on_c, 0, 51, 0
3, 420480, Note_on_c, 0, 44, 111
3, 420480, Note_on_c, 0, 52, 111
3, 420480, Note_on_c, 0, 32, 76
3, 420660, Note_on_c, 0, 32, 0
3, 420660, Note_on_c, 0, 52, 0
3, 420660, Note_on_c, 0, 44, 0
3, 420660, Note_on_c, 0, 51, 106
3, 420660, Note_on_c, 0, 39, 85
3, 420840, Note_on_c, 0, 39, 0
3, 420840, Note_on_c, 0, 51, 0
3, 420840, Note_on_c, 0, 52, 109
3, 420840, Note_on_c, 0, 40, 79
3, 421020, Note_on_c, 0, 40, 0
3, 421020, Note_on_c, 0, 52, 0
3, 421020, Note_on_c, 0, 52, 96
3, 421020, Note_on_c, 0, 49, 99
3, 421020, Note_on_c, 0, 37, 77
3, 421200, Note_on_c, 0, 37, 0
3, 421200, Note_on_c, 0, 49, 0
3, 421200, Note_on_c, 0, 50, 107
3, 421200, Note_on_c, 0, 38, 76
3, 421380, Note_on_c, 0, 38, 0
3, 421380, Note_on_c, 0, 50, 0
3, 421380, Note_on_c, 0, 47, 103
3, 421380, Note_on_c, 0, 35, 70
3, 421560, Note_on_c, 0, 35, 0
3, 421560, Note_on_c, 0, 47, 0
3, 421560, Note_on_c, 0, 48, 115
3, 421560, Note_on_c, 0, 36, 82
3, 421740, Note_on_c, 0, 36, 0
3, 421740, Note_on_c, 0, 48, 0
3, 421740, Note_on_c, 0, 45, 108
3, 421740, Note_on_c, 0, 51, 108
3, 421740, Note_on_c, 0, 33, 75
3, 421920, Note_on_c, 0, 33, 0
3, 421920, Note_on_c, 0, 52, 0
3, 421920, Note_on_c, 0, 45, 0
3, 421920, Note_on_c, 0, 51, 0
3, 421920, Note_on_c, 0, 44, 103
3, 421920, Note_on_c, 0, 52, 103
3, 421920, Note_on_c, 0, 32, 77
3, 422100, Note_on_c, 0, 32, 0
3, 422100, Note_on_c, 0, 52, 0
3, 422100, Note_on_c, 0, 44, 0
3, 422100, Note_on_c, 0, 51, 99
3, 422280, Note_on_c, 0, 51, 0
3, 422280, Note_on_c, 0, 52, 108
3, 422460, Note_on_c, 0, 32, 71
3, 422460, Note_on_c, 0, 40, 71
3, 422640, Note_on_c, 0, 40, 0
3, 422640, Note_on_c, 0, 32, 0
3, 422640, Note_on_c, 0, 33, 82
3, 422640, Note_on_c, 0, 42, 82
3, 422820, Note_on_c, 0, 42, 0
3, 422820, Note_on_c, 0, 33, 0
3, 422820, Note_on_c, 0, 52, 0
3, 422820, Note_on_c, 0, 51, 104
3, 423000, Note_on_c, 0, 51, 0
3, 423000, Note_on_c, 0, 52, 111
3, 423180, Note_on_c, 0, 33, 68
3, 423180, Note_on_c, 0, 42, 68
3, 423360, Note_on_c, 0, 42, 0
3, 423360, Note_on_c, 0, 33, 0
3, 423360, Note_on_c, 0, 34, 77
3, 423360, Note_on_c, 0, 43, 77
3, 423540, Note_on_c, 0, 43, 0
3, 423540, Note_on_c, 0, 34, 0
3, 423540, Note_on_c, 0, 52, 0
3, 423540, Note_on_c, 0, 51, 102
3, 423720, Note_on_c, 0, 51, 0
3, 423720, Note_on_c, 0, 52, 109
3, 423900, Note_on_c, 0, 34, 73
3, 423900, Note_on_c, 0, 43, 73
3, 424080, Note_on_c, 0, 43, 0
3, 424080, Note_on_c, 0, 34, 0
3, 424080, Note_on_c, 0, 35, 78
3, 424080, Note_on_c, 0, 44, 78
3, 424260, Note_on_c, 0, 44, 0
3, 424260, Note_on_c, 0, 35, 0
3, 424260, Note_on_c, 0, 52, 0
3, 424260, Note_on_c, 0, 51, 103
3, 424440, Note_on_c, 0, 51, 0
3, 424440, Note_on_c, 0, 52, 111
3, 424620, Note_on_c, 0, 36, 70
3, 424620, Note_on_c, 0, 44, 70
3, 424800, Note_on_c, 0, 44, 0
3, 424800, Note_on_c, 0, 36, 0
3, 424800, Note_on_c, 0, 37, 77
3, 424800, Note_on_c, 0, 45, 77
3, 424980, Note_on_c, 0, 45, 0
3, 424980, Note_on_c, 0, 37, 0
3, 424980, Note_on_c, 0, 52, 0
3, 424980, Note_on_c, 0, 56, 112
3, 424980, Note_on_c, 0, 44, 76
3, 425160, Note_on_c, 0, 44, 0
3, 425160, Note_on_c, 0, 56, 0
3, 425160, Note_on_c, 0, 57, 111
3, 425160, Note_on_c, 0, 45, 81
3, 425340, Note_on_c, 0, 45, 0
3, 425340, Note_on_c, 0, 57, 0
3, 425340, Note_on_c, 0, 53, 100
3, 425340, Note_on_c, 0, 57, 116
3, 425340, Note_on_c, 0, 41, 73
3, 425520, Note_on_c, 0, 41, 0
3, 425520, Note_on_c, 0, 53, 0
3, 425520, Note_on_c, 0, 55, 115
3, 425520, Note_on_c, 0, 43, 79
3, 425700, Note_on_c, 0, 43, 0
3, 425700, Note_on_c, 0, 55, 0
3, 425700, Note_on_c, 0, 52, 99
3, 425700, Note_on_c, 0, 40, 82
3, 425880, Note_on_c, 0, 40, 0
3, 425880, Note_on_c, 0, 52, 0
3, 425880, Note_on_c, 0, 53, 109
3, 425880, Note_on_c, 0, 41, 77
3, 426060, Note_on_c, 0, 41, 0
3, 426060, Note_on_c, 0, 53, 0
3, 426060, Note_on_c, 0, 49, 99
3, 426060, Note_on_c, 0, 37, 75
3, 426240, Note_on_c, 0, 37, 0
3, 426240, Note_on_c, 0, 49, 0
3, 426240, Note_on_c, 0, 50, 107
3, 426240, Note_on_c, 0, 38, 81
3, 426420, Note_on_c, 0, 38, 0
3, 426420, Note_on_c, 0, 50, 0
3, 426420, Note_on_c, 0, 56, 120
3, 426420, Note_on_c, 0, 44, 85
3, 426600, Note_on_c, 0, 44, 0
3, 426600, Note_on_c, 0, 56, 0
3, 426600, Note_on_c, 0, 57, 108
3, 426600, Note_on_c, 0, 45, 81
3, 426780, Note_on_c, 0, 45, 0
3, 426780, Note_on_c, 0, 57, 0
3, 426780, Note_on_c, 0, 57, 0
3, 426780, Note_on_c, 0, 53, 103
3, 426780, Note_on_c, 0, 57, 107
3, 426780, Note_on_c, 0, 41, 74
3, 426960, Note_on_c, 0, 41, 0
3, 426960, Note_on_c, 0, 53, 0
3, 426960, Note_on_c, 0, 55, 108
3, 426960, Note_on_c, 0, 43, 81
3, 427140, Note_on_c, 0, 43, 0
3, 427140, Note_on_c, 0, 55, 0
3, 427140, Note_on_c, 0, 52, 104
3, 427140, Note_on_c, 0, 40, 72
3, 427320, Note_on_c, 0, 40, 0
3, 427320, Note_on_c, 0, 52, 0
3, 427320, Note_on_c, 0, 53, 113
3, 427320, Note_on_c, 0, 41, 81
3, 427500, Note_on_c, 0, 41, 0
3, 427500, Note_on_c, 0, 53, 0
3, 427500, Note_on_c, 0, 50, 103
3, 427500, Note_on_c, 0, 38, 74
3, 427680, Note_on_c, 0, 38, 0
3, 427680, Note_on_c, 0, 50, 0
3, 427680, Note_on_c, 0, 57, 0
3, 427680, Note_on_c, 0, 51, 109
3, 427680, Note_on_c, 0, 57, 111
3, 427680, Note_on_c, 0, 39, 80
3, 427860, Note_on_c, 0, 39, 0
3, 427860, Note_on_c, 0, 51, 0
3, 427860, Note_on_c, 0, 56, 109
3, 427860, Note_on_c, 0, 44, 82
3, 428040, Note_on_c, 0, 44, 0
3, 428040, Note_on_c, 0, 56, 0
3, 428040, Note_on_c, 0, 57, 0
3, 428040, Note_on_c, 0, 57, 104
3, 428040, Note_on_c, 0, 45, 78
3, 428220, Note_on_c, 0, 60, 92
3, 428400, Note_on_c, 0, 60, 0
3, 428400, Note_on_c, 0, 45, 0
3, 428400, Note_on_c, 0, 61, 115
3, 428400, Note_on_c, 0, 40, 89
3, 428400, Note_on_c, 0, 52, 89
3, 428580, Note_on_c, 0, 52, 0
3, 428580, Note_on_c, 0, 40, 0
3, 428580, Note_on_c, 0, 44, 75
3, 428760, Note_on_c, 0, 44, 0
3, 428760, Note_on_c, 0, 61, 0
3, 428760, Note_on_c, 0, 57, 0
3, 428760, Note_on_c, 0, 57, 107
3, 428760, Note_on_c, 0, 45, 81
3, 428940, Note_on_c, 0, 61, 99
3, 429120, Note_on_c, 0, 61, 0
3, 429120, Note_on_c, 0, 45, 0
3, 429120, Note_on_c, 0, 58, 113
3, 429120, Note_on_c, 0, 62, 113
3, 429120, Note_on_c, 0, 41, 89
3, 429120, Note_on_c, 0, 53, 89
3, 429300, Note_on_c, 0, 53, 0
3, 429300, Note_on_c, 0, 41, 0
3, 429300, Note_on_c, 0, 44, 71
3, 429480, Note_on_c, 0, 44, 0
3, 429480, Note_on_c, 0, 62, 0
3, 429480, Note_on_c, 0, 58, 0
3, 429480, Note_on_c, 0, 57, 0
3, 429480, Note_on_c, 0, 55, 95
3, 429480, Note_on_c, 0, 57, 105
3, 429480, Note_on_c, 0, 45, 77
3, 429660, Note_on_c, 0, 55, 0
3, 429660, Note_on_c, 0, 58, 121
3, 429660, Note_on_c, 0, 62, 121
3, 429840, Note_on_c, 0, 62, 0
3, 429840, Note_on_c, 0, 58, 0
3, 429840, Note_on_c, 0, 45, 0
3, 429840, Note_on_c, 0, 59, 110
3, 429840, Note_on_c, 0, 63, 110
3, 429840, Note_on_c, 0, 42, 89
3, 429840, Note_on_c, 0, 54, 89
3, 430020, Note_on_c, 0, 54, 0
3, 430020, Note_on_c, 0, 42, 0
3, 430020, Note_on_c, 0, 44, 72
3, 430200, Note_on_c, 0, 44, 0
3, 430200, Note_on_c, 0, 63, 0
3, 430200, Note_on_c, 0, 59, 0
3, 430200, Note_on_c, 0, 57, 0
3, 430200, Note_on_c, 0, 57, 112
3, 430200, Note_on_c, 0, 45, 79
3, 430380, Note_on_c, 0, 59, 99
3, 430380, Note_on_c, 0, 63, 99
3, 430560, Note_on_c, 0, 63, 0
3, 430560, Note_on_c, 0, 57, 0
3, 430560, Note_on_c, 0, 45, 0
3, 430560, Note_on_c, 0, 59, 0
3, 430560, Note_on_c, 0, 52, 100
3, 430560, Note_on_c, 0, 59, 100
3, 430560, Note_on_c, 0, 62, 100
3, 430560, Note_on_c, 0, 44, 81
3, 431100, Note_on_c, 0, 44, 0
3, 431100, Note_on_c, 0, 52, 0
3, 431100, Note_on_c, 0, 59, 0
3, 431100, Note_on_c, 0, 62, 0
3, 431100, Note_on_c, 0, 52, 109
3, 431100, Note_on_c, 0, 59, 109
3, 431100, Note_on_c, 0, 62, 109
3, 431100, Note_on_c, 0, 44, 78
3, 431280, Note_on_c, 0, 44, 0
3, 431280, Note_on_c, 0, 52, 0
3, 431280, Note_on_c, 0, 59, 0
3, 431280, Note_on_c, 0, 62, 0
3, 431280, Note_on_c, 0, 53, 107
3, 431280, Note_on_c, 0, 59, 107
3, 431280, Note_on_c, 0, 62, 107
3, 431280, Note_on_c, 0, 45, 81
3, 431820, Note_on_c, 0, 45, 0
3, 431820, Note_on_c, 0, 53, 0
3, 431820, Note_on_c, 0, 59, 0
3, 431820, Note_on_c, 0, 62, 0
3, 431820, Note_on_c, 0, 53, 106
3, 431820, Note_on_c, 0, 59, 106
3, 431820, Note_on_c, 0, 62, 106
3, 431820, Note_on_c, 0, 45, 77
3, 432000, Note_on_c, 0, 45, 0
3, 432000, Note_on_c, 0, 53, 0
3, 432000, Note_on_c, 0, 59, 0
3, 432000, Note_on_c, 0, 62, 0
3, 432000, Note_on_c, 0, 52, 109
3, 432000, Note_on_c, 0, 59, 109
3, 432000, Note_on_c, 0, 62, 109
3, 432000, Note_on_c, 0, 44, 82
3, 432540, Note_on_c, 0, 44, 0
3, 432540, Note_on_c, 0, 52, 0
3, 432540, Note_on_c, 0, 59, 0
3, 432540, Note_on_c, 0, 62, 0
3, 432540, Note_on_c, 0, 52, 108
3, 432540, Note_on_c, 0, 59, 108
3, 432540, Note_on_c, 0, 62, 108
3, 432540, Note_on_c, 0, 44, 79
3, 432720, Note_on_c, 0, 44, 0
3, 432720, Note_on_c, 0, 52, 0
3, 432720, Note_on_c, 0, 59, 0
3, 432720, Note_on_c, 0, 62, 0
3, 432720, Note_on_c, 0, 50, 110
3, 432720, Note_on_c, 0, 53, 110
3, 432720, Note_on_c, 0, 59, 110
3, 432720, Note_on_c, 0, 62, 110
3, 432720, Note_on_c, 0, 45, 81
3, 433260, Note_on_c, 0, 45, 0
3, 433260, Note_on_c, 0, 59, 0
3, 433260, Note_on_c, 0, 50, 0
3, 433260, Note_on_c, 0, 53, 0
3, 433260, Note_on_c, 0, 62, 0
3, 433260, Note_on_c, 0, 50, 110
3, 433260, Note_on_c, 0, 53, 110
3, 433260, Note_on_c, 0, 59, 110
3, 433260, Note_on_c, 0, 62, 110
3, 433260, Note_on_c, 0, 45, 77
3, 433440, Note_on_c, 0, 45, 0
3, 433440, Note_on_c, 0, 59, 0
3, 433440, Note_on_c, 0, 50, 0
3, 433440, Note_on_c, 0, 53, 0
3, 433440, Note_on_c, 0, 62, 0
3, 433440, Note_on_c, 0, 52, 107
3, 433440, Note_on_c, 0, 59, 107
3, 433440, Note_on_c, 0, 62, 107
3, 433440, Note_on_c, 0, 44, 77
3, 434520, Note_on_c, 0, 44, 0
3, 434520, Note_on_c, 0, 52, 0
3, 434520, Note_on_c, 0, 59, 0
3, 434520, Note_on_c, 0, 62, 0
3, 434520, Note_on_c, 0, 53, 110
3, 434520, Note_on_c, 0, 60, 110
3, 434520, Note_on_c, 0, 62, 110
3, 434520, Note_on_c, 0, 45, 77
3, 434880, Note_on_c, 0, 45, 0
3, 434880, Note_on_c, 0, 53, 0
3, 434880, Note_on_c, 0, 60, 0
3, 434880, Note_on_c, 0, 62, 0
3, 434880, Note_on_c, 0, 52, 106
3, 434880, Note_on_c, 0, 59, 106
3, 434880, Note_on_c, 0, 62, 106
3, 434880, Note_on_c, 0, 44, 78
3, 435600, Note_on_c, 0, 44, 0
3, 435600, Note_on_c, 0, 52, 0
3, 435600, Note_on_c, 0, 59, 0
3, 435600, Note_on_c, 0, 62, 0
3, 435600, Note_on_c, 0, 53, 109
3, 435600, Note_on_c, 0, 59, 109
3, 435600, Note_on_c, 0, 62, 109
3, 435600, Note_on_c, 0, 43, 74
3, 436320, Note_on_c, 0, 43, 0
3, 436320, Note_on_c, 0, 53, 0
3, 436320, Note_on_c, 0, 59, 0
3, 436320, Note_on_c, 0, 62, 0
3, 436320, Note_on_c, 0, 55, 117
3, 436320, Note_on_c, 0, 58, 117
3, 436320, Note_on_c, 0, 60, 117
3, 436320, Note_on_c, 0, 64, 117
3, 436320, Note_on_c, 0, 36, 72
3, 437400, Note_on_c, 0, 36, 0
3, 437400, Note_on_c, 0, 60, 0
3, 437400, Note_on_c, 0, 55, 0
3, 437400, Note_on_c, 0, 58, 0
3, 437400, Note_on_c, 0, 64, 0
3, 437400, Note_on_c, 0, 61, 100
3, 437400, Note_on_c, 0, 53, 108
3, 437400, Note_on_c, 0, 58, 108
3, 437400, Note_on_c, 0, 43, 85
3, 437580, Note_on_c, 0, 61, 0
3, 437580, Note_on_c, 0, 61, 109
3, 437760, Note_on_c, 0, 61, 0
3, 437760, Note_on_c, 0, 43, 0
3, 437760, Note_on_c, 0, 58, 0
3, 437760, Note_on_c, 0, 53, 0
3, 437760, Note_on_c, 0, 55, 117
3, 437760, Note_on_c, 0, 58, 117
3, 437760, Note_on_c, 0, 60, 117
3, 437760, Note_on_c, 0, 64, 117
3, 437760, Note_on_c, 0, 36, 72
3, 438840, Note_on_c, 0, 36, 0
3, 438840, Note_on_c, 0, 60, 0
3, 438840, Note_on_c, 0, 55, 0
3, 438840, Note_on_c, 0, 58, 0
3, 438840, Note_on_c, 0, 64, 0
3, 438840, Note_on_c, 0, 61, 101
3, 438840, Note_on_c, 0, 53, 101
3, 438840, Note_on_c, 0, 58, 101
3, 438840, Note_on_c, 0, 43, 88
3, 439020, Note_on_c, 0, 61, 0
3, 439020, Note_on_c, 0, 61, 107
3, 439200, Note_on_c, 0, 61, 0
3, 439200, Note_on_c, 0, 43, 0
3, 439200, Note_on_c, 0, 58, 0
3, 439200, Note_on_c, 0, 53, 0
3, 439200, Note_on_c, 0, 55, 120
3, 439200, Note_on_c, 0, 58, 120
3, 439200, Note_on_c, 0, 64, 120
3, 439200, Note_on_c, 0, 36, 70
3, 439740, Note_on_c, 0, 36, 0
3, 439740, Note_on_c, 0, 55, 0
3, 439740, Note_on_c, 0, 58, 0
3, 439740, Note_on_c, 0, 64, 0
3, 439740, Note_on_c, 0, 53, 101
3, 439740, Note_on_c, 0, 58, 101
3, 439740, Note_on_c, 0, 61, 101
3, 439740, Note_on_c, 0, 43, 84
3, 439920, Note_on_c, 0, 43, 0
3, 439920, Note_on_c, 0, 53, 0
3, 439920, Note_on_c, 0, 58, 0
3, 439920, Note_on_c, 0, 61, 0
3, 439920, Note_on_c, 0, 55, 101
3, 439920, Note_on_c, 0, 58, 101
3, 439920, Note_on_c, 0, 60, 101
3, 439920, Note_on_c, 0, 36, 71
3, 440460, Note_on_c, 0, 36, 0
3, 440460, Note_on_c, 0, 55, 0
3, 440460, Note_on_c, 0, 58, 0
3, 440460, Note_on_c, 0, 60, 0
3, 440460, Note_on_c, 0, 53, 114
3, 440460, Note_on_c, 0, 58, 114
3, 440460, Note_on_c, 0, 61, 114
3, 440460, Note_on_c, 0, 43, 82
3, 440640, Note_on_c, 0, 43, 0
3, 440640, Note_on_c, 0, 53, 0
3, 440640, Note_on_c, 0, 58, 0
3, 440640, Note_on_c, 0, 61, 0
3, 440640, Note_on_c, 0, 55, 115
3, 440640, Note_on_c, 0, 58, 115
3, 440640, Note_on_c, 0, 60, 115
3, 440640, Note_on_c, 0, 64, 115
3, 440640, Note_on_c, 0, 36, 75
3, 441360, Note_on_c, 0, 36, 0
3, 441360, Note_on_c, 0, 60, 0
3, 441360, Note_on_c, 0, 55, 0
3, 441360, Note_on_c, 0, 58, 0
3, 441360, Note_on_c, 0, 64, 0
3, 441360, Note_on_c, 0, 56, 110
3, 441360, Note_on_c, 0, 59, 110
3, 441360, Note_on_c, 0, 62, 110
3, 441360, Note_on_c, 0, 64, 110
3, 441360, Note_on_c, 0, 40, 89
3, 442080, Note_on_c, 0, 40, 0
3, 442080, Note_on_c, 0, 62, 0
3, 442080, Note_on_c, 0, 56, 0
3, 442080, Note_on_c, 0, 59, 0
3, 442080, Note_on_c, 0, 64, 0
3, 442080, Note_on_c, 0, 33, 80
3, 442080, Note_on_c, 0, 45, 80
3, 442440, Note_on_c, 0, 52, 97
3, 442440, Note_on_c, 0, 64, 97
3, 442619, Note_on_c, 0, 64, 0
3, 442619, Note_on_c, 0, 52, 0
3, 442800, Note_on_c, 0, 57, 119
3, 442800, Note_on_c, 0, 69, 119
3, 442979, Note_on_c, 0, 69, 0
3, 442979, Note_on_c, 0, 57, 0
3, 443160, Note_on_c, 0, 55, 105
3, 443160, Note_on_c, 0, 67, 105
3, 443339, Note_on_c, 0, 67, 0
3, 443339, Note_on_c, 0, 55, 0
3, 443520, Note_on_c, 0, 57, 122
3, 443520, Note_on_c, 0, 69, 122
3, 444469, Note_on_c, 0, 69, 0
3, 444469, Note_on_c, 0, 57, 0
3, 444600, Note_on_c, 0, 53, 101
3, 444600, Note_on_c, 0, 65, 101
3, 444779, Note_on_c, 0, 65, 0
3, 444779, Note_on_c, 0, 53, 0
3, 444960, Note_on_c, 0, 55, 122
3, 444960, Note_on_c, 0, 67, 122
3, 445909, Note_on_c, 0, 67, 0
3, 445909, Note_on_c, 0, 55, 0
3, 446040, Note_on_c, 0, 52, 99
3, 446040, Note_on_c, 0, 64, 99
3, 446219, Note_on_c, 0, 64, 0
3, 446219, Note_on_c, 0, 52, 0
3, 446400, Note_on_c, 0, 53, 108
3, 446400, Note_on_c, 0, 65, 108
3, 447349, Note_on_c, 0, 65, 0
3, 447349, Note_on_c, 0, 53, 0
3, 447480, Note_on_c, 0, 50, 89
3, 447480, Note_on_c, 0, 62, 89
3, 447659, Note_on_c, 0, 62, 0
3, 447659, Note_on_c, 0, 50, 0
3, 447840, Note_on_c, 0, 45, 0
3, 447840, Note_on_c, 0, 33, 0
3, 447840, Note_on_c, 0, 52, 82
3, 447840, Note_on_c, 0, 64, 82
3, 447840, Note_on_c, 0, 33, 78
3, 447840, Note_on_c, 0, 45, 78
3, 448019, Note_on_c, 0, 64, 0
3, 448019, Note_on_c, 0, 52, 0
3, 448200, Note_on_c, 0, 33, 0
3, 448200, Note_on_c, 0, 45, 0
3, 448200, Note_on_c, 0, 52, 1
3, 448200, Note_on_c, 0, 57, 1
3, 448200, Note_on_c, 0, 60, 1
3, 448379, Note_on_c, 0, 60, 0
3, 448379, Note_on_c, 0, 57, 0
3, 448379, Note_on_c, 0, 52, 0
3, 448380, Note_on_c, 0, 60, 73
3, 448560, Note_on_c, 0, 60, 0
3, 448560, Note_on_c, 0, 50, 9
3, 448560, Note_on_c, 0, 57, 9
3, 448560, Note_on_c, 0, 62, 9
3, 448560, Note_on_c, 0, 35, 73
3, 448560, Note_on_c, 0, 47, 73
3, 448740, Note_on_c, 0, 57, 77
3, 448920, Note_on_c, 0, 47, 0
3, 448920, Note_on_c, 0, 35, 0
3, 448920, Note_on_c, 0, 57, 0
3, 448920, Note_on_c, 0, 65, 98
3, 449100, Note_on_c, 0, 65, 0
3, 449100, Note_on_c, 0, 62, 74
3, 449193, Note_on_c, 0, 62, 0
3, 449193, Note_on_c, 0, 50, 0
3, 449193, Note_on_c, 0, 57, 0
3, 449280, Note_on_c, 0, 62, 0
3, 449280, Note_on_c, 0, 52, 1
3, 449280, Note_on_c, 0, 52, 0
3, 449280, Note_on_c, 0, 57, 1
3, 449280, Note_on_c, 0, 57, 0
3, 449280, Note_on_c, 0, 64, 1
3, 449280, Note_on_c, 0, 64, 0
3, 449280, Note_on_c, 0, 36, 74
3, 449280, Note_on_c, 0, 48, 74
3, 449460, Note_on_c, 0, 57, 85
3, 449640, Note_on_c, 0, 57, 0
3, 449640, Note_on_c, 0, 48, 0
3, 449640, Note_on_c, 0, 36, 0
3, 449640, Note_on_c, 0, 69, 88
3, 449820, Note_on_c, 0, 69, 0
3, 449820, Note_on_c, 0, 64, 92
3, 450000, Note_on_c, 0, 64, 0
3, 450000, Note_on_c, 0, 52, 1
3, 450000, Note_on_c, 0, 52, 0
3, 450000, Note_on_c, 0, 57, 1
3, 450000, Note_on_c, 0, 57, 0
3, 450000, Note_on_c, 0, 64, 1
3, 450000, Note_on_c, 0, 64, 0
3, 450000, Note_on_c, 0, 55, 7
3, 450000, Note_on_c, 0, 59, 7
3, 450000, Note_on_c, 0, 64, 7
3, 450000, Note_on_c, 0, 67, 7
3, 450000, Note_on_c, 0, 40, 74
3, 450000, Note_on_c, 0, 52, 74
3, 450180, Note_on_c, 0, 59, 98
3, 450360, Note_on_c, 0, 52, 0
3, 450360, Note_on_c, 0, 59, 0
3, 450360, Note_on_c, 0, 40, 0
3, 450360, Note_on_c, 0, 71, 101
3, 450540, Note_on_c, 0, 71, 0
3, 450540, Note_on_c, 0, 67, 104
3, 450720, Note_on_c, 0, 67, 0
3, 450720, Note_on_c, 0, 67, 0
3, 450720, Note_on_c, 0, 55, 0
3, 450720, Note_on_c, 0, 64, 0
3, 450720, Note_on_c, 0, 59, 0
3, 450720, Note_on_c, 0, 60, 20
3, 450720, Note_on_c, 0, 65, 20
3, 450720, Note_on_c, 0, 72, 20
3, 450720, Note_on_c, 0, 45, 69
3, 450720, Note_on_c, 0, 57, 69
3, 450900, Note_on_c, 0, 60, 97
3, 451080, Note_on_c, 0, 57, 0
3, 451080, Note_on_c, 0, 45, 0
3, 451080, Note_on_c, 0, 60, 0
3, 451080, Note_on_c, 0, 72, 121
3, 451260, Note_on_c, 0, 72, 0
3, 451260, Note_on_c, 0, 69, 105
3, 451440, Note_on_c, 0, 69, 0
3, 451440, Note_on_c, 0, 64, 121
3, 451440, Note_on_c, 0, 43, 72
3, 451440, Note_on_c, 0, 55, 72
3, 451620, Note_on_c, 0, 59, 99
3, 451800, Note_on_c, 0, 59, 0
3, 451800, Note_on_c, 0, 43, 0
3, 451800, Note_on_c, 0, 65, 0
3, 451800, Note_on_c, 0, 60, 0
3, 451800, Note_on_c, 0, 72, 0
3, 451800, Note_on_c, 0, 55, 0
3, 451800, Note_on_c, 0, 59, 18
3, 451800, Note_on_c, 0, 71, 18
3, 451980, Note_on_c, 0, 64, 98
3, 452160, Note_on_c, 0, 64, 0
3, 452160, Note_on_c, 0, 64, 0
3, 452160, Note_on_c, 0, 59, 0
3, 452160, Note_on_c, 0, 71, 0
3, 452160, Note_on_c, 0, 58, 20
3, 452160, Note_on_c, 0, 70, 20
3, 452160, Note_on_c, 0, 42, 69
3, 452160, Note_on_c, 0, 54, 69
3, 452340, Note_on_c, 0, 58, 106
3, 452520, Note_on_c, 0, 54, 0
3, 452520, Note_on_c, 0, 42, 0
3, 452520, Note_on_c, 0, 58, 0
3, 452520, Note_on_c, 0, 70, 104
3, 452700, Note_on_c, 0, 70, 0
3, 452700, Note_on_c, 0, 64, 103
3, 452880, Note_on_c, 0, 64, 0
3, 452880, Note_on_c, 0, 70, 0
3, 452880, Note_on_c, 0, 58, 0
3, 452880, Note_on_c, 0, 62, 101
3, 452880, Note_on_c, 0, 58, 14
3, 452880, Note_on_c, 0, 70, 14
3, 452880, Note_on_c, 0, 41, 70
3, 452880, Note_on_c, 0, 53, 70
3, 453060, Note_on_c, 0, 57, 100
3, 453240, Note_on_c, 0, 57, 0
3, 453240, Note_on_c, 0, 58, 0
3, 453240, Note_on_c, 0, 70, 0
3, 453240, Note_on_c, 0, 41, 0
3, 453240, Note_on_c, 0, 53, 0
3, 453240, Note_on_c, 0, 57, 10
3, 453240, Note_on_c, 0, 69, 10
3, 453420, Note_on_c, 0, 62, 96
3, 453600, Note_on_c, 0, 62, 0
3, 453600, Note_on_c, 0, 62, 0
3, 453600, Note_on_c, 0, 57, 0
3, 453600, Note_on_c, 0, 69, 0
3, 453600, Note_on_c, 0, 56, 7
3, 453600, Note_on_c, 0, 68, 7
3, 453600, Note_on_c, 0, 40, 67
3, 453600, Note_on_c, 0, 52, 67
3, 453780, Note_on_c, 0, 56, 93
3, 453960, Note_on_c, 0, 52, 0
3, 453960, Note_on_c, 0, 40, 0
3, 453960, Note_on_c, 0, 56, 0
3, 453960, Note_on_c, 0, 68, 92
3, 454140, Note_on_c, 0, 68, 0
3, 454140, Note_on_c, 0, 62, 90
3, 454320, Note_on_c, 0, 62, 0
3, 454320, Note_on_c, 0, 68, 0
3, 454320, Note_on_c, 0, 56, 0
3, 454320, Note_on_c, 0, 55, 1
3, 454320, Note_on_c, 0, 60, 1
3, 454320, Note_on_c, 0, 67, 1
3, 454320, Note_on_c, 0, 39, 73
3, 454320, Note_on_c, 0, 51, 73
3, 454500, Note_on_c, 0, 55, 87
3, 454680, Note_on_c, 0, 51, 0
3, 454680, Note_on_c, 0, 39, 0
3, 454680, Note_on_c, 0, 55, 0
3, 454680, Note_on_c, 0, 67, 85
3, 454860, Note_on_c, 0, 67, 0
3, 454860, Note_on_c, 0, 60, 84
3, 455040, Note_on_c, 0, 60, 0
3, 455040, Note_on_c, 0, 67, 0
3, 455040, Note_on_c, 0, 60, 0
3, 455040, Note_on_c, 0, 55, 0
3, 455040, Note_on_c, 0, 54, 1
3, 455040, Note_on_c, 0, 54, 0
3, 455040, Note_on_c, 0, 60, 1
3, 455040, Note_on_c, 0, 60, 0
3, 455040, Note_on_c, 0, 66, 1
3, 455040, Note_on_c, 0, 66, 0
3, 455040, Note_on_c, 0, 38, 69
3, 455040, Note_on_c, 0, 50, 69
3, 455220, Note_on_c, 0, 57, 75
3, 455400, Note_on_c, 0, 57, 0
3, 455400, Note_on_c, 0, 50, 0
3, 455400, Note_on_c, 0, 38, 0
3, 455400, Note_on_c, 0, 54, 1
3, 455400, Note_on_c, 0, 54, 0
3, 455400, Note_on_c, 0, 60, 1
3, 455400, Note_on_c, 0, 60, 0
3, 455400, Note_on_c, 0, 66, 1
3, 455400, Note_on_c, 0, 66, 0
3, 455400, Note_on_c, 0, 57, 1
3, 455400, Note_on_c, 0, 65, 1
3, 455400, Note_on_c, 0, 39, 72
3, 455400, Note_on_c, 0, 51, 72
3, 455580, Note_on_c, 0, 65, 0
3, 455580, Note_on_c, 0, 57, 0
3, 455580, Note_on_c, 0, 60, 77
3, 455580, Note_on_c, 0, 59, 1
3, 455760, Note_on_c, 0, 59, 0
3, 455760, Note_on_c, 0, 51, 0
3, 455760, Note_on_c, 0, 39, 0
3, 455760, Note_on_c, 0, 60, 0
3, 455760, Note_on_c, 0, 60, 1
3, 455760, Note_on_c, 0, 64, 1
3, 455760, Note_on_c, 0, 40, 83
3, 455760, Note_on_c, 0, 52, 83
3, 455940, Note_on_c, 0, 56, 73
3, 456120, Note_on_c, 0, 56, 0
3, 456120, Note_on_c, 0, 40, 0
3, 456120, Note_on_c, 0, 60, 0
3, 456120, Note_on_c, 0, 64, 0
3, 456120, Note_on_c, 0, 52, 0
3, 456120, Note_on_c, 0, 64, 1
3, 456300, Note_on_c, 0, 60, 70
3, 456480, Note_on_c, 0, 60, 0
3, 456480, Note_on_c, 0, 64, 0
3, 456480, Note_on_c, 0, 60, 1
3, 456480, Note_on_c, 0, 69, 1
3, 456480, Note_on_c, 0, 45, 68
3, 456480, Note_on_c, 0, 52, 68
3, 456660, Note_on_c, 0, 60, 52
3, 456749, Note_on_c, 0, 52, 0
3, 456749, Note_on_c, 0, 45, 0
3, 456840, Note_on_c, 0, 60, 0
3, 456840, Note_on_c, 0, 69, 0
3, 456840, Note_on_c, 0, 60, 0
3, 456840, Note_on_c, 0, 60, 53
3, 457020, Note_on_c, 0, 60, 0
3, 457020, Note_on_c, 0, 64, 66
3, 457200, Note_on_c, 0, 64, 0
3, 457200, Note_on_c, 0, 57, 78
3, 457379, Note_on_c, 0, 57, 0
3, 457560, Note_on_c, 0, 67, 84
3, 457560, Note_on_c, 0, 59, 91
3, 457680, Note_on_c, 0, 67, 0
3, 457680, Note_on_c, 0, 64, 78
3, 457739, Note_on_c, 0, 59, 0
3, 457799, Note_on_c, 0, 64, 0
3, 457799, Note_on_c, 0, 67, 102
3, 457920, Note_on_c, 0, 67, 0
3, 457920, Note_on_c, 0, 60, 122
3, 458100, Note_on_c, 0, 60, 0
3, 458100, Note_on_c, 0, 48, 93
3, 458280, Note_on_c, 0, 48, 0
3, 458280, Note_on_c, 0, 60, 121
3, 458460, Note_on_c, 0, 60, 0
3, 458460, Note_on_c, 0, 48, 95
3, 458640, Note_on_c, 0, 48, 0
3, 458640, Note_on_c, 0, 60, 92
3, 458820, Note_on_c, 0, 60, 0
3, 458820, Note_on_c, 0, 48, 86
3, 459000, Note_on_c, 0, 48, 0
3, 459000, Note_on_c, 0, 60, 80
3, 459180, Note_on_c, 0, 60, 0
3, 459180, Note_on_c, 0, 48, 73
3, 459360, Note_on_c, 0, 48, 0
3, 459360, Note_on_c, 0, 60, 67
3, 459540, Note_on_c, 0, 60, 0
3, 459540, Note_on_c, 0, 48, 51
3, 459720, Note_on_c, 0, 48, 0
3, 459720, Note_on_c, 0, 60, 68
3, 459720, Note_on_c, 0, 40, 44
3, 459900, Note_on_c, 0, 60, 0
3, 459900, Note_on_c, 0, 48, 52
3, 460080, Note_on_c, 0, 48, 0
3, 460080, Note_on_c, 0, 40, 0
3, 460080, Note_on_c, 0, 60, 55
3, 460080, Note_on_c, 0, 41, 52
3, 460259, Note_on_c, 0, 41, 0
3, 460260, Note_on_c, 0, 60, 0
3, 460260, Note_on_c, 0, 48, 58
3, 460440, Note_on_c, 0, 48, 0
3, 460440, Note_on_c, 0, 60, 61
3, 460440, Note_on_c, 0, 38, 55
3, 460619, Note_on_c, 0, 38, 0
3, 460620, Note_on_c, 0, 60, 0
3, 460620, Note_on_c, 0, 48, 63
3, 460800, Note_on_c, 0, 48, 0
3, 460800, Note_on_c, 0, 60, 66
3, 460800, Note_on_c, 0, 40, 55
3, 460979, Note_on_c, 0, 40, 0
3, 460980, Note_on_c, 0, 60, 0
3, 460980, Note_on_c, 0, 48, 68
3, 461160, Note_on_c, 0, 48, 0
3, 461160, Note_on_c, 0, 60, 71
3, 461160, Note_on_c, 0, 36, 64
3, 461339, Note_on_c, 0, 36, 0
3, 461340, Note_on_c, 0, 60, 0
3, 461340, Note_on_c, 0, 48, 73
3, 461520, Note_on_c, 0, 48, 0
3, 461520, Note_on_c, 0, 60, 76
3, 461520, Note_on_c, 0, 38, 72
3, 461699, Note_on_c, 0, 38, 0
3, 461700, Note_on_c, 0, 60, 0
3, 461700, Note_on_c, 0, 48, 78
3, 461880, Note_on_c, 0, 48, 0
3, 461880, Note_on_c, 0, 60, 120
3, 461880, Note_on_c, 0, 40, 80
3, 462000, Note_on_c, 0, 40, 0
3, 462000, Note_on_c, 0, 36, 76
3, 462060, Note_on_c, 0, 60, 0
3, 462060, Note_on_c, 0, 48, 84
3, 462119, Note_on_c, 0, 36, 0
3, 462119, Note_on_c, 0, 40, 80
3, 462240, Note_on_c, 0, 40, 0
3, 462240, Note_on_c, 0, 48, 0
3, 462240, Note_on_c, 0, 33, 84
3, 462240, Note_on_c, 0, 45, 84
3, 462600, Note_on_c, 0, 52, 86
3, 462600, Note_on_c, 0, 64, 86
3, 462779, Note_on_c, 0, 64, 0
3, 462779, Note_on_c, 0, 52, 0
3, 462960, Note_on_c, 0, 57, 103
3, 462960, Note_on_c, 0, 69, 103
3, 463139, Note_on_c, 0, 69, 0
3, 463139, Note_on_c, 0, 57, 0
3, 463320, Note_on_c, 0, 55, 87
3, 463320, Note_on_c, 0, 67, 87
3, 463499, Note_on_c, 0, 67, 0
3, 463499, Note_on_c, 0, 55, 0
3, 463680, Note_on_c, 0, 57, 116
3, 463680, Note_on_c, 0, 69, 116
3, 464629, Note_on_c, 0, 69, 0
3, 464629, Note_on_c, 0, 57, 0
3, 464760, Note_on_c, 0, 53, 82
3, 464760, Note_on_c, 0, 65, 82
3, 464939, Note_on_c, 0, 65, 0
3, 464939, Note_on_c, 0, 53, 0
3, 465120, Note_on_c, 0, 55, 110
3, 465120, Note_on_c, 0, 67, 110
3, 466069, Note_on_c, 0, 67, 0
3, 466069, Note_on_c, 0, 55, 0
3, 466200, Note_on_c, 0, 52, 83
3, 466200, Note_on_c, 0, 64, 83
3, 466379, Note_on_c, 0, 64, 0
3, 466379, Note_on_c, 0, 52, 0
3, 466560, Note_on_c, 0, 53, 106
3, 466560, Note_on_c, 0, 65, 106
3, 467509, Note_on_c, 0, 65, 0
3, 467509, Note_on_c, 0, 53, 0
3, 467640, Note_on_c, 0, 50, 83
3, 467640, Note_on_c, 0, 62, 83
3, 467819, Note_on_c, 0, 62, 0
3, 467819, Note_on_c, 0, 50, 0
3, 468000, Note_on_c, 0, 45, 0
3, 468000, Note_on_c, 0, 33, 0
3, 468000, Note_on_c, 0, 52, 84
3, 468000, Note_on_c, 0, 60, 84
3, 468000, Note_on_c, 0, 64, 84
3, 468000, Note_on_c, 0, 33, 64
3, 468000, Note_on_c, 0, 45, 64
3, 468360, Note_on_c, 0, 45, 0
3, 468360, Note_on_c, 0, 64, 0
3, 468360, Note_on_c, 0, 52, 0
3, 468360, Note_on_c, 0, 60, 0
3, 468360, Note_on_c, 0, 33, 0
3, 468360, Note_on_c, 0, 57, 69
3, 468540, Note_on_c, 0, 57, 0
3, 468540, Note_on_c, 0, 60, 89
3, 468720, Note_on_c, 0, 60, 0
3, 468720, Note_on_c, 0, 31, 55
3, 468720, Note_on_c, 0, 43, 55
3, 468900, Note_on_c, 0, 52, 78
3, 469080, Note_on_c, 0, 52, 0
3, 469080, Note_on_c, 0, 43, 0
3, 469080, Note_on_c, 0, 31, 0
3, 469080, Note_on_c, 0, 60, 82
3, 469260, Note_on_c, 0, 60, 0
3, 469260, Note_on_c, 0, 57, 86
3, 469440, Note_on_c, 0, 57, 0
3, 469440, Note_on_c, 0, 29, 58
3, 469440, Note_on_c, 0, 41, 58
3, 469620, Note_on_c, 0, 57, 93
3, 469800, Note_on_c, 0, 57, 0
3, 469800, Note_on_c, 0, 41, 0
3, 469800, Note_on_c, 0, 29, 0
3, 469800, Note_on_c, 0, 64, 96
3, 469980, Note_on_c, 0, 64, 0
3, 469980, Note_on_c, 0, 60, 100
3, 470160, Note_on_c, 0, 60, 0
3, 470160, Note_on_c, 0, 31, 57
3, 470160, Note_on_c, 0, 43, 57
3, 470340, Note_on_c, 0, 53, 104
3, 470520, Note_on_c, 0, 53, 0
3, 470520, Note_on_c, 0, 43, 0
3, 470520, Note_on_c, 0, 31, 0
3, 470520, Note_on_c, 0, 62, 95
3, 470700, Note_on_c, 0, 62, 0
3, 470700, Note_on_c, 0, 59, 87
3, 470880, Note_on_c, 0, 59, 0
3, 470880, Note_on_c, 0, 33, 60
3, 470880, Note_on_c, 0, 45, 60
3, 471060, Note_on_c, 0, 52, 45
3, 471240, Note_on_c, 0, 52, 0
3, 471240, Note_on_c, 0, 45, 0
3, 471240, Note_on_c, 0, 33, 0
3, 471240, Note_on_c, 0, 64, 66
3, 471420, Note_on_c, 0, 64, 0
3, 471420, Note_on_c, 0, 60, 52
3, 471600, Note_on_c, 0, 60, 0
3, 471600, Note_on_c, 0, 35, 50
3, 471600, Note_on_c, 0, 47, 50
3, 471780, Note_on_c, 0, 57, 54
3, 471960, Note_on_c, 0, 57, 0
3, 471960, Note_on_c, 0, 47, 0
3, 471960, Note_on_c, 0, 35, 0
3, 471960, Note_on_c, 0, 65, 68
3, 472140, Note_on_c, 0, 65, 0
3, 472140, Note_on_c, 0, 62, 53
3, 472320, Note_on_c, 0, 62, 0
3, 472320, Note_on_c, 0, 37, 60
3, 472320, Note_on_c, 0, 49, 60
3, 472500, Note_on_c, 0, 57, 50
3, 472680, Note_on_c, 0, 57, 0
3, 472680, Note_on_c, 0, 49, 0
3, 472680, Note_on_c, 0, 37, 0
3, 472680, Note_on_c, 0, 67, 69
3, 472860, Note_on_c, 0, 67, 0
3, 472860, Note_on_c, 0, 64, 52
3, 473040, Note_on_c, 0, 64, 0
3, 473040, Note_on_c, 0, 38, 58
3, 473040, Note_on_c, 0, 50, 58
3, 473220, Note_on_c, 0, 57, 47
3, 473400, Note_on_c, 0, 57, 0
3, 473400, Note_on_c, 0, 50, 0
3, 473400, Note_on_c, 0, 38, 0
3, 473400, Note_on_c, 0, 65, 70
3, 473400, Note_on_c, 0, 37, 66
3, 473400, Note_on_c, 0, 49, 66
3, 473580, Note_on_c, 0, 49, 0
3, 473580, Note_on_c, 0, 37, 0
3, 473580, Note_on_c, 0, 65, 0
3, 473580, Note_on_c, 0, 59, 55
3, 473580, Note_on_c, 0, 38, 68
3, 473580, Note_on_c, 0, 50, 68
3, 473760, Note_on_c, 0, 50, 0
3, 473760, Note_on_c, 0, 38, 0
3, 473760, Note_on_c, 0, 59, 0
3, 473760, Note_on_c, 0, 40, 58
3, 473940, Note_on_c, 0, 57, 53
3, 474120, Note_on_c, 0, 57, 0
3, 474120, Note_on_c, 0, 40, 0
3, 474120, Note_on_c, 0, 64, 69
3, 474300, Note_on_c, 0, 64, 0
3, 474300, Note_on_c, 0, 60, 49
3, 474480, Note_on_c, 0, 60, 0
3, 474480, Note_on_c, 0, 41, 61
3, 474480, Note_on_c, 0, 53, 61
3, 474660, Note_on_c, 0, 60, 47
3, 474840, Note_on_c, 0, 60, 0
3, 474840, Note_on_c, 0, 53, 0
3, 474840, Note_on_c, 0, 41, 0
3, 474840, Note_on_c, 0, 72, 76
3, 475020, Note_on_c, 0, 72, 0
3, 475020, Note_on_c, 0, 69, 57
3, 475200, Note_on_c, 0, 69, 0
3, 475200, Note_on_c, 0, 41, 61
3, 475380, Note_on_c, 0, 60, 49
3, 475560, Note_on_c, 0, 60, 0
3, 475560, Note_on_c, 0, 41, 0
3, 475560, Note_on_c, 0, 69, 67
3, 475740, Note_on_c, 0, 69, 0
3, 475740, Note_on_c, 0, 64, 50
3, 475920, Note_on_c, 0, 64, 0
3, 475920, Note_on_c, 0, 42, 58
3, 476100, Note_on_c, 0, 57, 47
3, 476280, Note_on_c, 0, 57, 0
3, 476280, Note_on_c, 0, 42, 0
3, 476280, Note_on_c, 0, 64, 66
3, 476460, Note_on_c, 0, 64, 0
3, 476460, Note_on_c, 0, 60, 48
3, 476640, Note_on_c, 0, 60, 0
3, 476640, Note_on_c, 0, 43, 60
3, 476640, Note_on_c, 0, 52, 60
3, 476820, Note_on_c, 0, 55, 48
3, 477000, Note_on_c, 0, 55, 0
3, 477000, Note_on_c, 0, 52, 0
3, 477000, Note_on_c, 0, 43, 0
3, 477000, Note_on_c, 0, 64, 69
3, 477180, Note_on_c, 0, 64, 0
3, 477180, Note_on_c, 0, 60, 49
3, 477360, Note_on_c, 0, 60, 0
3, 477360, Note_on_c, 0, 44, 60
3, 477360, Note_on_c, 0, 52, 60
3, 477540, Note_on_c, 0, 56, 47
3, 477720, Note_on_c, 0, 56, 0
3, 477720, Note_on_c, 0, 52, 0
3, 477720, Note_on_c, 0, 44, 0
3, 477720, Note_on_c, 0, 64, 69
3, 477900, Note_on_c, 0, 64, 0
3, 477900, Note_on_c, 0, 60, 49
3, 478080, Note_on_c, 0, 60, 0
3, 478080, Note_on_c, 0, 45, 61
3, 478080, Note_on_c, 0, 52, 61
3, 478260, Note_on_c, 0, 57, 53
3, 478440, Note_on_c, 0, 57, 0
3, 478440, Note_on_c, 0, 52, 0
3, 478440, Note_on_c, 0, 45, 0
3, 478440, Note_on_c, 0, 64, 63
3, 478620, Note_on_c, 0, 64, 0
3, 478620, Note_on_c, 0, 60, 55
3, 478800, Note_on_c, 0, 60, 0
3, 478800, Note_on_c, 0, 55, 57
3, 478800, Note_on_c, 0, 46, 39
3, 478980, Note_on_c, 0, 60, 50
3, 479160, Note_on_c, 0, 60, 0
3, 479160, Note_on_c, 0, 46, 0
3, 479160, Note_on_c, 0, 67, 65
3, 479160, Note_on_c, 0, 45, 43
3, 479340, Note_on_c, 0, 45, 0
3, 479340, Note_on_c, 0, 67, 0
3, 479340, Note_on_c, 0, 64, 52
3, 479340, Note_on_c, 0, 46, 48
3, 479520, Note_on_c, 0, 46, 0
3, 479520, Note_on_c, 0, 64, 0
3, 479520, Note_on_c, 0, 47, 66
3, 479700, Note_on_c, 0, 59, 50
3, 479880, Note_on_c, 0, 59, 0
3, 479880, Note_on_c, 0, 47, 0
3, 479880, Note_on_c, 0, 55, 0
3, 479880, Note_on_c, 0, 67, 66
3, 480060, Note_on_c, 0, 67, 0
3, 480060, Note_on_c, 0, 64, 54
3, 480240, Note_on_c, 0, 64, 0
3, 480240, Note_on_c, 0, 48, 57
3, 480420, Note_on_c, 0, 57, 50
3, 480600, Note_on_c, 0, 57, 0
3, 480600, Note_on_c, 0, 48, 0
3, 480600, Note_on_c, 0, 67, 67
3, 480600, Note_on_c, 0, 49, 65
3, 480780, Note_on_c, 0, 67, 0
3, 480780, Note_on_c, 0, 64, 55
3, 480960, Note_on_c, 0, 64, 0
3, 480960, Note_on_c, 0, 49, 0
3, 480960, Note_on_c, 0, 50, 46
3, 481140, Note_on_c, 0, 57, 42
3, 481320, Note_on_c, 0, 57, 0
3, 481320, Note_on_c, 0, 50, 0
3, 481320, Note_on_c, 0, 64, 52
3, 481320, Note_on_c, 0, 65, 52
3, 481500, Note_on_c, 0, 65, 0
3, 481500, Note_on_c, 0, 64, 0
3, 481500, Note_on_c, 0, 62, 44
3, 481680, Note_on_c, 0, 62, 0
3, 481680, Note_on_c, 0, 40, 39
3, 481860, Note_on_c, 0, 57, 43
3, 482040, Note_on_c, 0, 57, 0
3, 482040, Note_on_c, 0, 40, 0
3, 482040, Note_on_c, 0, 64, 55
3, 482040, Note_on_c, 0, 65, 55
3, 482220, Note_on_c, 0, 65, 0
3, 482220, Note_on_c, 0, 64, 0
3, 482220, Note_on_c, 0, 56, 43
3, 482400, Note_on_c, 0, 56, 0
3, 482400, Note_on_c, 0, 57, 48
3, 482400, Note_on_c, 0, 45, 39
3, 482580, Note_on_c, 0, 57, 0
3, 482580, Note_on_c, 0, 60, 53
3, 482760, Note_on_c, 0, 60, 0
3, 482760, Note_on_c, 0, 45, 0
3, 482760, Note_on_c, 0, 60, 45
3, 482940, Note_on_c, 0, 60, 0
3, 482940, Note_on_c, 0, 64, 52
3, 483120, Note_on_c, 0, 64, 0
3, 483120, Note_on_c, 0, 57, 45
3, 483299, Note_on_c, 0, 57, 0
3, 483480, Note_on_c, 0, 60, 81
3, 483480, Note_on_c, 0, 55, 58
3, 483600, Note_on_c, 0, 60, 0
3, 483600, Note_on_c, 0, 57, 91
3, 483659, Note_on_c, 0, 55, 0
3, 483719, Note_on_c, 0, 57, 0
3, 483719, Note_on_c, 0, 60, 102
3, 483840, Note_on_c, 0, 60, 0
3, 483840, Note_on_c, 0, 53, 110
3, 484020, Note_on_c, 0, 41, 65
3, 484200, Note_on_c, 0, 41, 0
3, 484200, Note_on_c, 0, 53, 0
3, 484200, Note_on_c, 0, 53, 79
3, 484380, Note_on_c, 0, 53, 0
3, 484380, Note_on_c, 0, 41, 60
3, 484560, Note_on_c, 0, 41, 0
3, 484560, Note_on_c, 0, 53, 92
3, 484740, Note_on_c, 0, 53, 0
3, 484740, Note_on_c, 0, 41, 86
3, 484920, Note_on_c, 0, 41, 0
3, 484920, Note_on_c, 0, 53, 80
3, 485100, Note_on_c, 0, 53, 0
3, 485100, Note_on_c, 0, 41, 73
3, 485280, Note_on_c, 0, 41, 0
3, 485280, Note_on_c, 0, 53, 58
3, 485460, Note_on_c, 0, 53, 0
3, 485460, Note_on_c, 0, 41, 51
3, 485640, Note_on_c, 0, 41, 0
3, 485640, Note_on_c, 0, 53, 67
3, 485640, Note_on_c, 0, 38, 62
3, 485819, Note_on_c, 0, 38, 0
3, 485820, Note_on_c, 0, 53, 0
3, 485820, Note_on_c, 0, 41, 50
3, 486000, Note_on_c, 0, 41, 0
3, 486000, Note_on_c, 0, 53, 55
3, 486000, Note_on_c, 0, 40, 71
3, 486179, Note_on_c, 0, 40, 0
3, 486180, Note_on_c, 0, 53, 0
3, 486180, Note_on_c, 0, 41, 58
3, 486360, Note_on_c, 0, 41, 0
3, 486360, Note_on_c, 0, 53, 61
3, 486360, Note_on_c, 0, 36, 69
3, 486539, Note_on_c, 0, 36, 0
3, 486540, Note_on_c, 0, 53, 0
3, 486540, Note_on_c, 0, 41, 63
3, 486720, Note_on_c, 0, 41, 0
3, 486720, Note_on_c, 0, 53, 66
3, 486720, Note_on_c, 0, 38, 75
3, 486899, Note_on_c, 0, 38, 0
3, 486900, Note_on_c, 0, 53, 0
3, 486900, Note_on_c, 0, 41, 68
3, 487080, Note_on_c, 0, 41, 0
3, 487080, Note_on_c, 0, 53, 71
3, 487080, Note_on_c, 0, 35, 70
3, 487259, Note_on_c, 0, 35, 0
3, 487260, Note_on_c, 0, 53, 0
3, 487260, Note_on_c, 0, 41, 73
3, 487440, Note_on_c, 0, 41, 0
3, 487440, Note_on_c, 0, 53, 76
3, 487440, Note_on_c, 0, 36, 74
3, 487619, Note_on_c, 0, 36, 0
3, 487620, Note_on_c, 0, 53, 0
3, 487620, Note_on_c, 0, 41, 78
3, 487800, Note_on_c, 0, 41, 0
3, 487800, Note_on_c, 0, 53, 106
3, 487800, Note_on_c, 0, 38, 70
3, 487920, Note_on_c, 0, 38, 0
3, 487920, Note_on_c, 0, 34, 68
3, 487980, Note_on_c, 0, 53, 0
3, 487980, Note_on_c, 0, 41, 78
3, 488039, Note_on_c, 0, 34, 0
3, 488039, Note_on_c, 0, 38, 71
3, 488160, Note_on_c, 0, 38, 0
3, 488160, Note_on_c, 0, 41, 0
3, 488160, Note_on_c, 0, 31, 71
3, 488160, Note_on_c, 0, 43, 71
3, 488520, Note_on_c, 0, 58, 73
3, 488520, Note_on_c, 0, 62, 73
3, 488520, Note_on_c, 0, 65, 73
3, 488880, Note_on_c, 0, 65, 0
3, 488880, Note_on_c, 0, 58, 0
3, 488880, Note_on_c, 0, 31, 0
3, 488880, Note_on_c, 0, 43, 0
3, 488880, Note_on_c, 0, 62, 0
3, 488880, Note_on_c, 0, 62, 90
3, 488880, Note_on_c, 0, 65, 90
3, 488880, Note_on_c, 0, 70, 90
3, 488880, Note_on_c, 0, 50, 79
3, 488880, Note_on_c, 0, 58, 79
3, 489060, Note_on_c, 0, 70, 0
3, 489060, Note_on_c, 0, 62, 0
3, 489060, Note_on_c, 0, 65, 0
3, 489060, Note_on_c, 0, 62, 80
3, 489060, Note_on_c, 0, 65, 80
3, 489060, Note_on_c, 0, 70, 80
3, 489240, Note_on_c, 0, 70, 0
3, 489240, Note_on_c, 0, 62, 0
3, 489240, Note_on_c, 0, 58, 0
3, 489240, Note_on_c, 0, 50, 0
3, 489240, Note_on_c, 0, 65, 0
3, 489240, Note_on_c, 0, 62, 78
3, 489240, Note_on_c, 0, 65, 78
3, 489240, Note_on_c, 0, 70, 78
3, 489240, Note_on_c, 0, 43, 62
3, 489240, Note_on_c, 0, 50, 62
3, 489600, Note_on_c, 0, 50, 0
3, 489600, Note_on_c, 0, 70, 0
3, 489600, Note_on_c, 0, 62, 0
3, 489600, Note_on_c, 0, 65, 0
3, 489600, Note_on_c, 0, 43, 0
3, 489600, Note_on_c, 0, 62, 82
3, 489600, Note_on_c, 0, 65, 82
3, 489600, Note_on_c, 0, 70, 82
3, 489600, Note_on_c, 0, 50, 76
3, 489600, Note_on_c, 0, 58, 76
3, 489780, Note_on_c, 0, 70, 0
3, 489780, Note_on_c, 0, 62, 0
3, 489780, Note_on_c, 0, 65, 0
3, 489780, Note_on_c, 0, 62, 81
3, 489780, Note_on_c, 0, 65, 81
3, 489780, Note_on_c, 0, 70, 81
3, 489960, Note_on_c, 0, 70, 0
3, 489960, Note_on_c, 0, 62, 0
3, 489960, Note_on_c, 0, 58, 0
3, 489960, Note_on_c, 0, 50, 0
3, 489960, Note_on_c, 0, 65, 0
3, 489960, Note_on_c, 0, 62, 78
3, 489960, Note_on_c, 0, 65, 78
3, 489960, Note_on_c, 0, 70, 78
3, 489960, Note_on_c, 0, 43, 61
3, 489960, Note_on_c, 0, 50, 61
3, 490320, Note_on_c, 0, 50, 0
3, 490320, Note_on_c, 0, 70, 0
3, 490320, Note_on_c, 0, 62, 0
3, 490320, Note_on_c, 0, 65, 0
3, 490320, Note_on_c, 0, 43, 0
3, 490320, Note_on_c, 0, 62, 77
3, 490320, Note_on_c, 0, 65, 77
3, 490320, Note_on_c, 0, 70, 77
3, 490320, Note_on_c, 0, 50, 68
3, 490320, Note_on_c, 0, 58, 68
3, 490500, Note_on_c, 0, 70, 0
3, 490500, Note_on_c, 0, 62, 0
3, 490500, Note_on_c, 0, 65, 0
3, 490500, Note_on_c, 0, 62, 80
3, 490500, Note_on_c, 0, 65, 80
3, 490500, Note_on_c, 0, 70, 80
3, 490680, Note_on_c, 0, 70, 0
3, 490680, Note_on_c, 0, 62, 0
3, 490680, Note_on_c, 0, 58, 0
3, 490680, Note_on_c, 0, 50, 0
3, 490680, Note_on_c, 0, 65, 0
3, 490680, Note_on_c, 0, 62, 77
3, 490680, Note_on_c, 0, 65, 77
3, 490680, Note_on_c, 0, 70, 77
3, 490680, Note_on_c, 0, 43, 62
3, 490680, Note_on_c, 0, 50, 62
3, 491040, Note_on_c, 0, 50, 0
3, 491040, Note_on_c, 0, 70, 0
3, 491040, Note_on_c, 0, 62, 0
3, 491040, Note_on_c, 0, 65, 0
3, 491040, Note_on_c, 0, 43, 0
3, 491040, Note_on_c, 0, 57, 68
3, 491040, Note_on_c, 0, 61, 68
3, 491040, Note_on_c, 0, 64, 68
3, 491040, Note_on_c, 0, 45, 72
3, 491040, Note_on_c, 0, 55, 72
3, 491400, Note_on_c, 0, 55, 0
3, 491400, Note_on_c, 0, 64, 0
3, 491400, Note_on_c, 0, 57, 0
3, 491400, Note_on_c, 0, 61, 0
3, 491400, Note_on_c, 0, 45, 0
3, 491400, Note_on_c, 0, 55, 71
3, 491580, Note_on_c, 0, 55, 0
3, 491580, Note_on_c, 0, 61, 88
3, 491760, Note_on_c, 0, 61, 0
3, 491760, Note_on_c, 0, 35, 58
3, 491760, Note_on_c, 0, 47, 58
3, 491940, Note_on_c, 0, 57, 72
3, 492120, Note_on_c, 0, 57, 0
3, 492120, Note_on_c, 0, 47, 0
3, 492120, Note_on_c, 0, 35, 0
3, 492120, Note_on_c, 0, 69, 97
3, 492300, Note_on_c, 0, 69, 0
3, 492300, Note_on_c, 0, 62, 68
3, 492480, Note_on_c, 0, 62, 0
3, 492480, Note_on_c, 0, 36, 56
3, 492480, Note_on_c, 0, 48, 56
3, 492660, Note_on_c, 0, 57, 70
3, 492840, Note_on_c, 0, 57, 0
3, 492840, Note_on_c, 0, 48, 0
3, 492840, Note_on_c, 0, 36, 0
3, 492840, Note_on_c, 0, 63, 87
3, 493020, Note_on_c, 0, 63, 0
3, 493020, Note_on_c, 0, 69, 96
3, 493200, Note_on_c, 0, 69, 0
3, 493200, Note_on_c, 0, 37, 55
3, 493200, Note_on_c, 0, 49, 55
3, 493380, Note_on_c, 0, 57, 72
3, 493560, Note_on_c, 0, 57, 0
3, 493560, Note_on_c, 0, 49, 0
3, 493560, Note_on_c, 0, 37, 0
3, 493560, Note_on_c, 0, 67, 99
3, 493740, Note_on_c, 0, 67, 0
3, 493740, Note_on_c, 0, 64, 73
3, 493920, Note_on_c, 0, 64, 0
3, 493920, Note_on_c, 0, 57, 91
3, 493920, Note_on_c, 0, 65, 91
3, 493920, Note_on_c, 0, 69, 91
3, 493920, Note_on_c, 0, 29, 60
3, 493920, Note_on_c, 0, 41, 60
3, 494280, Note_on_c, 0, 69, 0
3, 494280, Note_on_c, 0, 57, 0
3, 494280, Note_on_c, 0, 65, 0
3, 494280, Note_on_c, 0, 57, 69
3, 494280, Note_on_c, 0, 60, 69
3, 494280, Note_on_c, 0, 64, 69
3, 494640, Note_on_c, 0, 64, 0
3, 494640, Note_on_c, 0, 57, 0
3, 494640, Note_on_c, 0, 41, 0
3, 494640, Note_on_c, 0, 29, 0
3, 494640, Note_on_c, 0, 60, 0
3, 494640, Note_on_c, 0, 60, 90
3, 494640, Note_on_c, 0, 64, 90
3, 494640, Note_on_c, 0, 69, 90
3, 494640, Note_on_c, 0, 48, 77
3, 494640, Note_on_c, 0, 57, 77
3, 494820, Note_on_c, 0, 69, 0
3, 494820, Note_on_c, 0, 60, 0
3, 494820, Note_on_c, 0, 64, 0
3, 494820, Note_on_c, 0, 60, 79
3, 494820, Note_on_c, 0, 64, 79
3, 494820, Note_on_c, 0, 69, 79
3, 495000, Note_on_c, 0, 69, 0
3, 495000, Note_on_c, 0, 60, 0
3, 495000, Note_on_c, 0, 57, 0
3, 495000, Note_on_c, 0, 48, 0
3, 495000, Note_on_c, 0, 64, 0
3, 495000, Note_on_c, 0, 60, 82
3, 495000, Note_on_c, 0, 64, 82
3, 495000, Note_on_c, 0, 69, 82
3, 495000, Note_on_c, 0, 41, 59
3, 495000, Note_on_c, 0, 48, 59
3, 495360, Note_on_c, 0, 48, 0
3, 495360, Note_on_c, 0, 69, 0
3, 495360, Note_on_c, 0, 60, 0
3, 495360, Note_on_c, 0, 64, 0
3, 495360, Note_on_c, 0, 41, 0
3, 495360, Note_on_c, 0, 60, 79
3, 495360, Note_on_c, 0, 64, 79
3, 495360, Note_on_c, 0, 69, 79
3, 495360, Note_on_c, 0, 48, 74
3, 495360, Note_on_c, 0, 57, 74
3, 495540, Note_on_c, 0, 69, 0
3, 495540, Note_on_c, 0, 60, 0
3, 495540, Note_on_c, 0, 64, 0
3, 495540, Note_on_c, 0, 60, 79
3, 495540, Note_on_c, 0, 64, 79
3, 495540, Note_on_c, 0, 69, 79
3, 495720, Note_on_c, 0, 69, 0
3, 495720, Note_on_c, 0, 60, 0
3, 495720, Note_on_c, 0, 57, 0
3, 495720, Note_on_c, 0, 48, 0
3, 495720, Note_on_c, 0, 64, 0
3, 495720, Note_on_c, 0, 60, 77
3, 495720, Note_on_c, 0, 64, 77
3, 495720, Note_on_c, 0, 69, 77
3, 495720, Note_on_c, 0, 41, 62
3, 495720, Note_on_c, 0, 48, 62
3, 496080, Note_on_c, 0, 48, 0
3, 496080, Note_on_c, 0, 69, 0
3, 496080, Note_on_c, 0, 60, 0
3, 496080, Note_on_c, 0, 64, 0
3, 496080, Note_on_c, 0, 41, 0
3, 496080, Note_on_c, 0, 60, 74
3, 496080, Note_on_c, 0, 64, 74
3, 496080, Note_on_c, 0, 69, 74
3, 496080, Note_on_c, 0, 48, 70
3, 496080, Note_on_c, 0, 57, 70
3, 496260, Note_on_c, 0, 69, 0
3, 496260, Note_on_c, 0, 60, 0
3, 496260, Note_on_c, 0, 64, 0
3, 496260, Note_on_c, 0, 60, 76
3, 496260, Note_on_c, 0, 64, 76
3, 496260, Note_on_c, 0, 69, 76
3, 496440, Note_on_c, 0, 69, 0
3, 496440, Note_on_c, 0, 60, 0
3, 496440, Note_on_c, 0, 57, 0
3, 496440, Note_on_c, 0, 48, 0
3, 496440, Note_on_c, 0, 64, 0
3, 496440, Note_on_c, 0, 60, 80
3, 496440, Note_on_c, 0, 64, 80
3, 496440, Note_on_c, 0, 69, 80
3, 496440, Note_on_c, 0, 41, 59
3, 496440, Note_on_c, 0, 48, 59
3, 496800, Note_on_c, 0, 48, 0
3, 496800, Note_on_c, 0, 69, 0
3, 496800, Note_on_c, 0, 60, 0
3, 496800, Note_on_c, 0, 64, 0
3, 496800, Note_on_c, 0, 41, 0
3, 496800, Note_on_c, 0, 55, 64
3, 496800, Note_on_c, 0, 59, 64
3, 496800, Note_on_c, 0, 62, 64
3, 496800, Note_on_c, 0, 43, 72
3, 496800, Note_on_c, 0, 53, 72
3, 497160, Note_on_c, 0, 53, 0
3, 497160, Note_on_c, 0, 62, 0
3, 497160, Note_on_c, 0, 55, 0
3, 497160, Note_on_c, 0, 59, 0
3, 497160, Note_on_c, 0, 43, 0
3, 497160, Note_on_c, 0, 53, 67
3, 497340, Note_on_c, 0, 53, 0
3, 497340, Note_on_c, 0, 59, 87
3, 497520, Note_on_c, 0, 59, 0
3, 497520, Note_on_c, 0, 33, 71
3, 497520, Note_on_c, 0, 45, 71
3, 497700, Note_on_c, 0, 55, 69
3, 497880, Note_on_c, 0, 55, 0
3, 497880, Note_on_c, 0, 45, 0
3, 497880, Note_on_c, 0, 33, 0
3, 497880, Note_on_c, 0, 67, 99
3, 498060, Note_on_c, 0, 67, 0
3, 498060, Note_on_c, 0, 60, 68
3, 498240, Note_on_c, 0, 60, 0
3, 498240, Note_on_c, 0, 34, 73
3, 498240, Note_on_c, 0, 46, 73
3, 498420, Note_on_c, 0, 55, 75
3, 498600, Note_on_c, 0, 55, 0
3, 498600, Note_on_c, 0, 46, 0
3, 498600, Note_on_c, 0, 34, 0
3, 498600, Note_on_c, 0, 61, 72
3, 498780, Note_on_c, 0, 61, 0
3, 498780, Note_on_c, 0, 67, 69
3, 498960, Note_on_c, 0, 67, 0
3, 498960, Note_on_c, 0, 35, 64
3, 498960, Note_on_c, 0, 47, 64
3, 499140, Note_on_c, 0, 55, 62
3, 499320, Note_on_c, 0, 55, 0
3, 499320, Note_on_c, 0, 47, 0
3, 499320, Note_on_c, 0, 35, 0
3, 499320, Note_on_c, 0, 65, 59
3, 499500, Note_on_c, 0, 65, 0
3, 499500, Note_on_c, 0, 62, 56
3, 499680, Note_on_c, 0, 62, 0
3, 499680, Note_on_c, 0, 32, 69
3, 499680, Note_on_c, 0, 44, 69
3, 499860, Note_on_c, 0, 52, 49
3, 500040, Note_on_c, 0, 52, 0
3, 500040, Note_on_c, 0, 44, 0
3, 500040, Note_on_c, 0, 32, 0
3, 500040, Note_on_c, 0, 62, 68
3, 500220, Note_on_c, 0, 62, 0
3, 500220, Note_on_c, 0, 59, 55
3, 500400, Note_on_c, 0, 59, 0
3, 500400, Note_on_c, 0, 33, 68
3, 500400, Note_on_c, 0, 45, 68
3, 500580, Note_on_c, 0, 52, 49
3, 500760, Note_on_c, 0, 52, 0
3, 500760, Note_on_c, 0, 45, 0
3, 500760, Note_on_c, 0, 33, 0
3, 500760, Note_on_c, 0, 64, 68
3, 500940, Note_on_c, 0, 64, 0
3, 500940, Note_on_c, 0, 60, 50
3, 501120, Note_on_c, 0, 60, 0
3, 501300, Note_on_c, 0, 52, 54
3, 501480, Note_on_c, 0, 52, 0
3, 501480, Note_on_c, 0, 61, 54
3, 501480, Note_on_c, 0, 34, 72
3, 501480, Note_on_c, 0, 46, 72
3, 501660, Note_on_c, 0, 61, 0
3, 501660, Note_on_c, 0, 55, 55
3, 501840, Note_on_c, 0, 55, 0
3, 501840, Note_on_c, 0, 46, 0
3, 501840, Note_on_c, 0, 34, 0
3, 501840, Note_on_c, 0, 35, 80
3, 501840, Note_on_c, 0, 47, 80
3, 502020, Note_on_c, 0, 52, 56
3, 502200, Note_on_c, 0, 52, 0
3, 502200, Note_on_c, 0, 47, 0
3, 502200, Note_on_c, 0, 35, 0
3, 502200, Note_on_c, 0, 62, 57
3, 502200, Note_on_c, 0, 64, 57
3, 502380, Note_on_c, 0, 64, 0
3, 502380, Note_on_c, 0, 62, 0
3, 502380, Note_on_c, 0, 56, 57
3, 502560, Note_on_c, 0, 56, 0
3, 502560, Note_on_c, 0, 36, 69
3, 502560, Note_on_c, 0, 48, 69
3, 502740, Note_on_c, 0, 57, 59
3, 502920, Note_on_c, 0, 57, 0
3, 502920, Note_on_c, 0, 48, 0
3, 502920, Note_on_c, 0, 36, 0
3, 502920, Note_on_c, 0, 67, 59
3, 502920, Note_on_c, 0, 37, 77
3, 502920, Note_on_c, 0, 49, 77
3, 503100, Note_on_c, 0, 67, 0
3, 503100, Note_on_c, 0, 64, 60
3, 503280, Note_on_c, 0, 64, 0
3, 503280, Note_on_c, 0, 49, 0
3, 503280, Note_on_c, 0, 37, 0
3, 503280, Note_on_c, 0, 38, 78
3, 503280, Note_on_c, 0, 50, 78
3, 503460, Note_on_c, 0, 57, 61
3, 503640, Note_on_c, 0, 57, 0
3, 503640, Note_on_c, 0, 50, 0
3, 503640, Note_on_c, 0, 38, 0
3, 503640, Note_on_c, 0, 66, 62
3, 503820, Note_on_c, 0, 66, 0
3, 503820, Note_on_c, 0, 60, 62
3, 504000, Note_on_c, 0, 60, 0
3, 504000, Note_on_c, 0, 40, 66
3, 504000, Note_on_c, 0, 52, 66
3, 504180, Note_on_c, 0, 60, 64
3, 504180, Note_on_c, 0, 65, 64
3, 504360, Note_on_c, 0, 65, 0
3, 504360, Note_on_c, 0, 40, 0
3, 504360, Note_on_c, 0, 52, 0
3, 504360, Note_on_c, 0, 60, 0
3, 504360, Note_on_c, 0, 69, 64
3, 504540, Note_on_c, 0, 69, 0
3, 504540, Note_on_c, 0, 64, 65
3, 504720, Note_on_c, 0, 64, 0
3, 504720, Note_on_c, 0, 41, 67
3, 504720, Note_on_c, 0, 53, 67
3, 504900, Note_on_c, 0, 60, 66
3, 504900, Note_on_c, 0, 63, 66
3, 505080, Note_on_c, 0, 63, 0
3, 505080, Note_on_c, 0, 41, 0
3, 505080, Note_on_c, 0, 53, 0
3, 505080, Note_on_c, 0, 60, 0
3, 505080, Note_on_c, 0, 72, 67
3, 505080, Note_on_c, 0, 42, 80
3, 505080, Note_on_c, 0, 54, 80
3, 505260, Note_on_c, 0, 72, 0
3, 505260, Note_on_c, 0, 68, 68
3, 505440, Note_on_c, 0, 68, 0
3, 505440, Note_on_c, 0, 54, 0
3, 505440, Note_on_c, 0, 42, 0
3, 505440, Note_on_c, 0, 60, 68
3, 505440, Note_on_c, 0, 63, 68
3, 505440, Note_on_c, 0, 67, 68
3, 505440, Note_on_c, 0, 43, 79
3, 505440, Note_on_c, 0, 48, 79
3, 505440, Note_on_c, 0, 51, 79
3, 505440, Note_on_c, 0, 55, 79
3, 505800, Note_on_c, 0, 55, 0
3, 505800, Note_on_c, 0, 48, 0
3, 505800, Note_on_c, 0, 63, 0
3, 505800, Note_on_c, 0, 67, 0
3, 505800, Note_on_c, 0, 60, 0
3, 505800, Note_on_c, 0, 51, 0
3, 505800, Note_on_c, 0, 43, 0
3, 505800, Note_on_c, 0, 60, 69
3, 505800, Note_on_c, 0, 44, 77
3, 505800, Note_on_c, 0, 51, 77
3, 505800, Note_on_c, 0, 54, 77
3, 505980, Note_on_c, 0, 60, 0
3, 505980, Note_on_c, 0, 62, 70
3, 506160, Note_on_c, 0, 62, 0
3, 506160, Note_on_c, 0, 60, 71
3, 506340, Note_on_c, 0, 60, 0
3, 506340, Note_on_c, 0, 62, 71
3, 506520, Note_on_c, 0, 62, 0
3, 506520, Note_on_c, 0, 54, 0
3, 506520, Note_on_c, 0, 51, 0
3, 506520, Note_on_c, 0, 44, 0
3, 506520, Note_on_c, 0, 63, 72
3, 506520, Note_on_c, 0, 59, 76
3, 506520, Note_on_c, 0, 45, 76
3, 506520, Note_on_c, 0, 51, 76
3, 506520, Note_on_c, 0, 54, 76
3, 506700, Note_on_c, 0, 63, 0
3, 506700, Note_on_c, 0, 65, 73
3, 506880, Note_on_c, 0, 65, 0
3, 506880, Note_on_c, 0, 63, 73
3, 507060, Note_on_c, 0, 63, 0
3, 507060, Note_on_c, 0, 59, 0
3, 507060, Note_on_c, 0, 65, 74
3, 507240, Note_on_c, 0, 65, 0
3, 507240, Note_on_c, 0, 54, 0
3, 507240, Note_on_c, 0, 45, 0
3, 507240, Note_on_c, 0, 51, 0
3, 507240, Note_on_c, 0, 63, 75
3, 507240, Note_on_c, 0, 66, 75
3, 507240, Note_on_c, 0, 51, 83
3, 507240, Note_on_c, 0, 54, 83
3, 507240, Note_on_c, 0, 46, 66
3, 507329, Note_on_c, 0, 46, 0
3, 507420, Note_on_c, 0, 63, 0
3, 507420, Note_on_c, 0, 66, 0
3, 507420, Note_on_c, 0, 68, 75
3, 507420, Note_on_c, 0, 46, 74
3, 507509, Note_on_c, 0, 46, 0
3, 507600, Note_on_c, 0, 68, 0
3, 507600, Note_on_c, 0, 63, 76
3, 507600, Note_on_c, 0, 66, 76
3, 507600, Note_on_c, 0, 46, 69
3, 507779, Note_on_c, 0, 46, 0
3, 507780, Note_on_c, 0, 63, 0
3, 507780, Note_on_c, 0, 66, 0
3, 507780, Note_on_c, 0, 68, 76
3, 507960, Note_on_c, 0, 68, 0
3, 507960, Note_on_c, 0, 51, 0
3, 507960, Note_on_c, 0, 54, 0
3, 507960, Note_on_c, 0, 63, 77
3, 507960, Note_on_c, 0, 69, 77
3, 507960, Note_on_c, 0, 47, 87
3, 507960, Note_on_c, 0, 54, 87
3, 507960, Note_on_c, 0, 57, 87
3, 507960, Note_on_c, 0, 59, 87
3, 508139, Note_on_c, 0, 59, 0
3, 508139, Note_on_c, 0, 54, 0
3, 508139, Note_on_c, 0, 47, 0
3, 508139, Note_on_c, 0, 57, 0
3, 508140, Note_on_c, 0, 63, 0
3, 508140, Note_on_c, 0, 69, 0
3, 508140, Note_on_c, 0, 71, 78
3, 508320, Note_on_c, 0, 71, 0
3, 508320, Note_on_c, 0, 56, 78
3, 508320, Note_on_c, 0, 64, 78
3, 508320, Note_on_c, 0, 40, 74
3, 508320, Note_on_c, 0, 47, 74
3, 508320, Note_on_c, 0, 52, 74
3, 508499, Note_on_c, 0, 52, 0
3, 508499, Note_on_c, 0, 40, 0
3, 508499, Note_on_c, 0, 56, 0
3, 508499, Note_on_c, 0, 64, 0
3, 508499, Note_on_c, 0, 47, 0
3, 508680, Note_on_c, 0, 64, 92
3, 508680, Note_on_c, 0, 68, 92
3, 508680, Note_on_c, 0, 71, 92
3, 509040, Note_on_c, 0, 40, 58
3, 509040, Note_on_c, 0, 47, 58
3, 509040, Note_on_c, 0, 52, 58
3, 509219, Note_on_c, 0, 52, 0
3, 509219, Note_on_c, 0, 40, 0
3, 509219, Note_on_c, 0, 47, 0
3, 509313, Note_on_c, 0, 64, 0
3, 509313, Note_on_c, 0, 71, 0
3, 509313, Note_on_c, 0, 68, 0
3, 509400, Note_on_c, 0, 64, 67
3, 509400, Note_on_c, 0, 68, 67
3, 509400, Note_on_c, 0, 71, 67
3, 509400, Note_on_c, 0, 56, 70
3, 509400, Note_on_c, 0, 59, 70
3, 509489, Note_on_c, 0, 71, 0
3, 509489, Note_on_c, 0, 64, 0
3, 509489, Note_on_c, 0, 68, 0
3, 509579, Note_on_c, 0, 56, 0
3, 509579, Note_on_c, 0, 59, 0
3, 509580, Note_on_c, 0, 64, 63
3, 509580, Note_on_c, 0, 68, 63
3, 509580, Note_on_c, 0, 71, 63
3, 509669, Note_on_c, 0, 71, 0
3, 509669, Note_on_c, 0, 68, 0
3, 509669, Note_on_c, 0, 64, 0
3, 509760, Note_on_c, 0, 64, 79
3, 509760, Note_on_c, 0, 68, 79
3, 509760, Note_on_c, 0, 71, 79
3, 509760, Note_on_c, 0, 56, 66
3, 509760, Note_on_c, 0, 59, 66
3, 509939, Note_on_c, 0, 59, 0
3, 509939, Note_on_c, 0, 56, 0
3, 510120, Note_on_c, 0, 40, 65
3, 510120, Note_on_c, 0, 47, 65
3, 510120, Note_on_c, 0, 52, 65
3, 510299, Note_on_c, 0, 52, 0
3, 510299, Note_on_c, 0, 40, 0
3, 510299, Note_on_c, 0, 47, 0
3, 510480, Note_on_c, 0, 40, 65
3, 510480, Note_on_c, 0, 47, 65
3, 510480, Note_on_c, 0, 52, 65
3, 510659, Note_on_c, 0, 52, 0
3, 510659, Note_on_c, 0, 40, 0
3, 510659, Note_on_c, 0, 47, 0
3, 510709, Note_on_c, 0, 68, 0
3, 510709, Note_on_c, 0, 71, 0
3, 510709, Note_on_c, 0, 64, 0
3, 510840, Note_on_c, 0, 64, 64
3, 510840, Note_on_c, 0, 68, 64
3, 510840, Note_on_c, 0, 71, 64
3, 510840, Note_on_c, 0, 56, 76
3, 510840, Note_on_c, 0, 59, 76
3, 510929, Note_on_c, 0, 71, 0
3, 510929, Note_on_c, 0, 64, 0
3, 510929, Note_on_c, 0, 68, 0
3, 511019, Note_on_c, 0, 56, 0
3, 511019, Note_on_c, 0, 59, 0
3, 511020, Note_on_c, 0, 64, 62
3, 511020, Note_on_c, 0, 68, 62
3, 511020, Note_on_c, 0, 71, 62
3, 511109, Note_on_c, 0, 71, 0
3, 511109, Note_on_c, 0, 68, 0
3, 511109, Note_on_c, 0, 64, 0
3, 511200, Note_on_c, 0, 64, 93
3, 511200, Note_on_c, 0, 67, 93
3, 511200, Note_on_c, 0, 71, 93
3, 511200, Note_on_c, 0, 55, 70
3, 511200, Note_on_c, 0, 59, 70
3, 511379, Note_on_c, 0, 59, 0
3, 511379, Note_on_c, 0, 55, 0
3, 511560, Note_on_c, 0, 64, 0
3, 511560, Note_on_c, 0, 67, 0
3, 511560, Note_on_c, 0, 71, 0
3, 511560, Note_on_c, 0, 64, 70
3, 511560, Note_on_c, 0, 67, 70
3, 511560, Note_on_c, 0, 71, 70
3, 511560, Note_on_c, 0, 40, 57
3, 511560, Note_on_c, 0, 47, 57
3, 511560, Note_on_c, 0, 52, 57
3, 511649, Note_on_c, 0, 71, 0
3, 511649, Note_on_c, 0, 64, 0
3, 511649, Note_on_c, 0, 67, 0
3, 511739, Note_on_c, 0, 40, 0
3, 511739, Note_on_c, 0, 47, 0
3, 511739, Note_on_c, 0, 52, 0
3, 511740, Note_on_c, 0, 64, 65
3, 511740, Note_on_c, 0, 67, 65
3, 511740, Note_on_c, 0, 71, 65
3, 511829, Note_on_c, 0, 71, 0
3, 511829, Note_on_c, 0, 67, 0
3, 511829, Note_on_c, 0, 64, 0
3, 511920, Note_on_c, 0, 64, 64
3, 511920, Note_on_c, 0, 67, 64
3, 511920, Note_on_c, 0, 71, 64
3, 511920, Note_on_c, 0, 40, 69
3, 511920, Note_on_c, 0, 47, 69
3, 511920, Note_on_c, 0, 52, 69
3, 512099, Note_on_c, 0, 52, 0
3, 512099, Note_on_c, 0, 40, 0
3, 512099, Note_on_c, 0, 47, 0
3, 512280, Note_on_c, 0, 64, 0
3, 512280, Note_on_c, 0, 71, 0
3, 512280, Note_on_c, 0, 67, 0
3, 512280, Note_on_c, 0, 64, 64
3, 512280, Note_on_c, 0, 67, 64
3, 512280, Note_on_c, 0, 71, 64
3, 512280, Note_on_c, 0, 55, 70
3, 512280, Note_on_c, 0, 59, 70
3, 512459, Note_on_c, 0, 59, 0
3, 512459, Note_on_c, 0, 55, 0
3, 512640, Note_on_c, 0, 64, 0
3, 512640, Note_on_c, 0, 67, 0
3, 512640, Note_on_c, 0, 71, 0
3, 512640, Note_on_c, 0, 64, 90
3, 512640, Note_on_c, 0, 67, 90
3, 512640, Note_on_c, 0, 69, 90
3, 512640, Note_on_c, 0, 55, 67
3, 512640, Note_on_c, 0, 57, 67
3, 512819, Note_on_c, 0, 57, 0
3, 512819, Note_on_c, 0, 55, 0
3, 513000, Note_on_c, 0, 64, 0
3, 513000, Note_on_c, 0, 67, 0
3, 513000, Note_on_c, 0, 69, 0
3, 513000, Note_on_c, 0, 64, 69
3, 513000, Note_on_c, 0, 67, 69
3, 513000, Note_on_c, 0, 69, 69
3, 513000, Note_on_c, 0, 40, 64
3, 513000, Note_on_c, 0, 45, 64
3, 513000, Note_on_c, 0, 52, 64
3, 513089, Note_on_c, 0, 69, 0
3, 513089, Note_on_c, 0, 64, 0
3, 513089, Note_on_c, 0, 67, 0
3, 513179, Note_on_c, 0, 40, 0
3, 513179, Note_on_c, 0, 45, 0
3, 513179, Note_on_c, 0, 52, 0
3, 513180, Note_on_c, 0, 64, 68
3, 513180, Note_on_c, 0, 67, 68
3, 513180, Note_on_c, 0, 69, 68
3, 513269, Note_on_c, 0, 69, 0
3, 513269, Note_on_c, 0, 67, 0
3, 513269, Note_on_c, 0, 64, 0
3, 513360, Note_on_c, 0, 64, 61
3, 513360, Note_on_c, 0, 67, 61
3, 513360, Note_on_c, 0, 69, 61
3, 513360, Note_on_c, 0, 40, 69
3, 513360, Note_on_c, 0, 45, 69
3, 513360, Note_on_c, 0, 52, 69
3, 513539, Note_on_c, 0, 52, 0
3, 513539, Note_on_c, 0, 40, 0
3, 513539, Note_on_c, 0, 45, 0
3, 513720, Note_on_c, 0, 64, 0
3, 513720, Note_on_c, 0, 69, 0
3, 513720, Note_on_c, 0, 67, 0
3, 513720, Note_on_c, 0, 64, 67
3, 513720, Note_on_c, 0, 67, 67
3, 513720, Note_on_c, 0, 69, 67
3, 513720, Note_on_c, 0, 55, 71
3, 513720, Note_on_c, 0, 57, 71
3, 513899, Note_on_c, 0, 57, 0
3, 513899, Note_on_c, 0, 55, 0
3, 514080, Note_on_c, 0, 64, 0
3, 514080, Note_on_c, 0, 67, 0
3, 514080, Note_on_c, 0, 69, 0
3, 514080, Note_on_c, 0, 62, 62
3, 514080, Note_on_c, 0, 66, 62
3, 514080, Note_on_c, 0, 50, 70
3, 514080, Note_on_c, 0, 57, 70
3, 514259, Note_on_c, 0, 57, 0
3, 514259, Note_on_c, 0, 50, 0
3, 514440, Note_on_c, 0, 66, 0
3, 514440, Note_on_c, 0, 62, 0
3, 514440, Note_on_c, 0, 54, 48
3, 514440, Note_on_c, 0, 57, 48
3, 514440, Note_on_c, 0, 62, 48
3, 514440, Note_on_c, 0, 38, 51
3, 514440, Note_on_c, 0, 45, 51
3, 514440, Note_on_c, 0, 50, 51
3, 514619, Note_on_c, 0, 50, 0
3, 514619, Note_on_c, 0, 57, 0
3, 514619, Note_on_c, 0, 62, 0
3, 514619, Note_on_c, 0, 54, 0
3, 514619, Note_on_c, 0, 45, 0
3, 514619, Note_on_c, 0, 38, 0
3, 514800, Note_on_c, 0, 54, 55
3, 514800, Note_on_c, 0, 57, 55
3, 514800, Note_on_c, 0, 62, 55
3, 514800, Note_on_c, 0, 38, 54
3, 514800, Note_on_c, 0, 45, 54
3, 514800, Note_on_c, 0, 50, 54
3, 514979, Note_on_c, 0, 50, 0
3, 514979, Note_on_c, 0, 57, 0
3, 514979, Note_on_c, 0, 62, 0
3, 514979, Note_on_c, 0, 54, 0
3, 514979, Note_on_c, 0, 45, 0
3, 514979, Note_on_c, 0, 38, 0
3, 515160, Note_on_c, 0, 54, 64
3, 515160, Note_on_c, 0, 57, 64
3, 515160, Note_on_c, 0, 62, 64
3, 515160, Note_on_c, 0, 66, 64
3, 515160, Note_on_c, 0, 50, 52
3, 515339, Note_on_c, 0, 50, 0
3, 515339, Note_on_c, 0, 62, 0
3, 515339, Note_on_c, 0, 54, 0
3, 515339, Note_on_c, 0, 57, 0
3, 515339, Note_on_c, 0, 66, 0
3, 515520, Note_on_c, 0, 54, 56
3, 515520, Note_on_c, 0, 57, 56
3, 515520, Note_on_c, 0, 62, 56
3, 515520, Note_on_c, 0, 66, 56
3, 515520, Note_on_c, 0, 50, 54
3, 515699, Note_on_c, 0, 50, 0
3, 515699, Note_on_c, 0, 62, 0
3, 515699, Note_on_c, 0, 54, 0
3, 515699, Note_on_c, 0, 57, 0
3, 515699, Note_on_c, 0, 66, 0
3, 515880, Note_on_c, 0, 54, 50
3, 515880, Note_on_c, 0, 57, 50
3, 515880, Note_on_c, 0, 62, 50
3, 515880, Note_on_c, 0, 38, 54
3, 515880, Note_on_c, 0, 45, 54
3, 515880, Note_on_c, 0, 50, 54
3, 516059, Note_on_c, 0, 50, 0
3, 516059, Note_on_c, 0, 57, 0
3, 516059, Note_on_c, 0, 62, 0
3, 516059, Note_on_c, 0, 54, 0
3, 516059, Note_on_c, 0, 45, 0
3, 516059, Note_on_c, 0, 38, 0
3, 516240, Note_on_c, 0, 54, 59
3, 516240, Note_on_c, 0, 57, 59
3, 516240, Note_on_c, 0, 62, 59
3, 516240, Note_on_c, 0, 38, 59
3, 516240, Note_on_c, 0, 45, 59
3, 516240, Note_on_c, 0, 50, 59
3, 516419, Note_on_c, 0, 50, 0
3, 516419, Note_on_c, 0, 57, 0
3, 516419, Note_on_c, 0, 62, 0
3, 516419, Note_on_c, 0, 54, 0
3, 516419, Note_on_c, 0, 45, 0
3, 516419, Note_on_c, 0, 38, 0
3, 516600, Note_on_c, 0, 54, 64
3, 516600, Note_on_c, 0, 57, 64
3, 516600, Note_on_c, 0, 62, 64
3, 516600, Note_on_c, 0, 66, 64
3, 516600, Note_on_c, 0, 50, 57
3, 516779, Note_on_c, 0, 50, 0
3, 516779, Note_on_c, 0, 62, 0
3, 516779, Note_on_c, 0, 54, 0
3, 516779, Note_on_c, 0, 57, 0
3, 516779, Note_on_c, 0, 66, 0
3, 516960, Note_on_c, 0, 53, 53
3, 516960, Note_on_c, 0, 57, 53
3, 516960, Note_on_c, 0, 62, 53
3, 516960, Note_on_c, 0, 65, 53
3, 516960, Note_on_c, 0, 50, 57
3, 517139, Note_on_c, 0, 50, 0
3, 517139, Note_on_c, 0, 62, 0
3, 517139, Note_on_c, 0, 53, 0
3, 517139, Note_on_c, 0, 57, 0
3, 517139, Note_on_c, 0, 65, 0
3, 517320, Note_on_c, 0, 53, 52
3, 517320, Note_on_c, 0, 57, 52
3, 517320, Note_on_c, 0, 62, 52
3, 517320, Note_on_c, 0, 38, 56
3, 517320, Note_on_c, 0, 45, 56
3, 517320, Note_on_c, 0, 50, 56
3, 517499, Note_on_c, 0, 50, 0
3, 517499, Note_on_c, 0, 57, 0
3, 517499, Note_on_c, 0, 62, 0
3, 517499, Note_on_c, 0, 53, 0
3, 517499, Note_on_c, 0, 45, 0
3, 517499, Note_on_c, 0, 38, 0
3, 517680, Note_on_c, 0, 53, 50
3, 517680, Note_on_c, 0, 57, 50
3, 517680, Note_on_c, 0, 62, 50
3, 517680, Note_on_c, 0, 38, 56
3, 517680, Note_on_c, 0, 45, 56
3, 517680, Note_on_c, 0, 50, 56
3, 517859, Note_on_c, 0, 50, 0
3, 517859, Note_on_c, 0, 57, 0
3, 517859, Note_on_c, 0, 62, 0
3, 517859, Note_on_c, 0, 53, 0
3, 517859, Note_on_c, 0, 45, 0
3, 517859, Note_on_c, 0, 38, 0
3, 518040, Note_on_c, 0, 53, 66
3, 518040, Note_on_c, 0, 57, 66
3, 518040, Note_on_c, 0, 62, 66
3, 518040, Note_on_c, 0, 65, 66
3, 518040, Note_on_c, 0, 50, 58
3, 518219, Note_on_c, 0, 50, 0
3, 518219, Note_on_c, 0, 62, 0
3, 518219, Note_on_c, 0, 53, 0
3, 518219, Note_on_c, 0, 57, 0
3, 518219, Note_on_c, 0, 65, 0
3, 518400, Note_on_c, 0, 53, 52
3, 518400, Note_on_c, 0, 55, 52
3, 518400, Note_on_c, 0, 59, 52
3, 518400, Note_on_c, 0, 65, 52
3, 518400, Note_on_c, 0, 50, 52
3, 518579, Note_on_c, 0, 50, 0
3, 518579, Note_on_c, 0, 59, 0
3, 518579, Note_on_c, 0, 53, 0
3, 518579, Note_on_c, 0, 55, 0
3, 518579, Note_on_c, 0, 65, 0
3, 518760, Note_on_c, 0, 53, 46
3, 518760, Note_on_c, 0, 55, 46
3, 518760, Note_on_c, 0, 59, 46
3, 518760, Note_on_c, 0, 62, 46
3, 518760, Note_on_c, 0, 38, 58
3, 518760, Note_on_c, 0, 43, 58
3, 518760, Note_on_c, 0, 50, 58
3, 518939, Note_on_c, 0, 50, 0
3, 518939, Note_on_c, 0, 38, 0
3, 518939, Note_on_c, 0, 55, 0
3, 518939, Note_on_c, 0, 59, 0
3, 518939, Note_on_c, 0, 53, 0
3, 518939, Note_on_c, 0, 43, 0
3, 518939, Note_on_c, 0, 62, 0
3, 519120, Note_on_c, 0, 53, 52
3, 519120, Note_on_c, 0, 55, 52
3, 519120, Note_on_c, 0, 59, 52
3, 519120, Note_on_c, 0, 62, 52
3, 519120, Note_on_c, 0, 38, 56
3, 519120, Note_on_c, 0, 43, 56
3, 519120, Note_on_c, 0, 50, 56
3, 519299, Note_on_c, 0, 50, 0
3, 519299, Note_on_c, 0, 38, 0
3, 519299, Note_on_c, 0, 55, 0
3, 519299, Note_on_c, 0, 59, 0
3, 519299, Note_on_c, 0, 53, 0
3, 519299, Note_on_c, 0, 43, 0
3, 519299, Note_on_c, 0, 62, 0
3, 519480, Note_on_c, 0, 53, 60
3, 519480, Note_on_c, 0, 55, 60
3, 519480, Note_on_c, 0, 59, 60
3, 519480, Note_on_c, 0, 65, 60
3, 519480, Note_on_c, 0, 38, 54
3, 519480, Note_on_c, 0, 43, 54
3, 519480, Note_on_c, 0, 50, 54
3, 519659, Note_on_c, 0, 50, 0
3, 519659, Note_on_c, 0, 38, 0
3, 519659, Note_on_c, 0, 55, 0
3, 519659, Note_on_c, 0, 59, 0
3, 519659, Note_on_c, 0, 53, 0
3, 519659, Note_on_c, 0, 43, 0
3, 519659, Note_on_c, 0, 65, 0
3, 519840, Note_on_c, 0, 52, 51
3, 519840, Note_on_c, 0, 55, 51
3, 519840, Note_on_c, 0, 60, 51
3, 519840, Note_on_c, 0, 64, 51
3, 519840, Note_on_c, 0, 36, 51
3, 519840, Note_on_c, 0, 43, 51
3, 519840, Note_on_c, 0, 48, 51
3, 520019, Note_on_c, 0, 48, 0
3, 520019, Note_on_c, 0, 36, 0
3, 520019, Note_on_c, 0, 55, 0
3, 520019, Note_on_c, 0, 60, 0
3, 520019, Note_on_c, 0, 52, 0
3, 520019, Note_on_c, 0, 43, 0
3, 520019, Note_on_c, 0, 64, 0
3, 520200, Note_on_c, 0, 60, 72
3, 520200, Note_on_c, 0, 64, 72
3, 520200, Note_on_c, 0, 67, 72
3, 520560, Note_on_c, 0, 36, 49
3, 520560, Note_on_c, 0, 43, 49
3, 520560, Note_on_c, 0, 48, 49
3, 520739, Note_on_c, 0, 48, 0
3, 520739, Note_on_c, 0, 36, 0
3, 520739, Note_on_c, 0, 43, 0
3, 520833, Note_on_c, 0, 60, 0
3, 520833, Note_on_c, 0, 67, 0
3, 520833, Note_on_c, 0, 64, 0
3, 520920, Note_on_c, 0, 60, 57
3, 520920, Note_on_c, 0, 64, 57
3, 520920, Note_on_c, 0, 67, 57
3, 520920, Note_on_c, 0, 52, 56
3, 520920, Note_on_c, 0, 55, 56
3, 521009, Note_on_c, 0, 67, 0
3, 521009, Note_on_c, 0, 60, 0
3, 521009, Note_on_c, 0, 64, 0
3, 521099, Note_on_c, 0, 52, 0
3, 521099, Note_on_c, 0, 55, 0
3, 521100, Note_on_c, 0, 60, 51
3, 521100, Note_on_c, 0, 64, 51
3, 521100, Note_on_c, 0, 67, 51
3, 521189, Note_on_c, 0, 67, 0
3, 521189, Note_on_c, 0, 64, 0
3, 521189, Note_on_c, 0, 60, 0
3, 521280, Note_on_c, 0, 60, 67
3, 521280, Note_on_c, 0, 64, 67
3, 521280, Note_on_c, 0, 67, 67
3, 521280, Note_on_c, 0, 52, 57
3, 521280, Note_on_c, 0, 55, 57
3, 521459, Note_on_c, 0, 55, 0
3, 521459, Note_on_c, 0, 52, 0
3, 521640, Note_on_c, 0, 36, 49
3, 521640, Note_on_c, 0, 43, 49
3, 521640, Note_on_c, 0, 48, 49
3, 521819, Note_on_c, 0, 48, 0
3, 521819, Note_on_c, 0, 36, 0
3, 521819, Note_on_c, 0, 43, 0
3, 522000, Note_on_c, 0, 36, 53
3, 522000, Note_on_c, 0, 43, 53
3, 522000, Note_on_c, 0, 48, 53
3, 522179, Note_on_c, 0, 48, 0
3, 522179, Note_on_c, 0, 36, 0
3, 522179, Note_on_c, 0, 43, 0
3, 522229, Note_on_c, 0, 64, 0
3, 522229, Note_on_c, 0, 67, 0
3, 522229, Note_on_c, 0, 60, 0
3, 522360, Note_on_c, 0, 60, 58
3, 522360, Note_on_c, 0, 64, 58
3, 522360, Note_on_c, 0, 67, 58
3, 522360, Note_on_c, 0, 52, 59
3, 522360, Note_on_c, 0, 55, 59
3, 522449, Note_on_c, 0, 67, 0
3, 522449, Note_on_c, 0, 60, 0
3, 522449, Note_on_c, 0, 64, 0
3, 522539, Note_on_c, 0, 52, 0
3, 522539, Note_on_c, 0, 55, 0
3, 522540, Note_on_c, 0, 60, 57
3, 522540, Note_on_c, 0, 64, 57
3, 522540, Note_on_c, 0, 67, 57
3, 522629, Note_on_c, 0, 67, 0
3, 522629, Note_on_c, 0, 64, 0
3, 522629, Note_on_c, 0, 60, 0
3, 522720, Note_on_c, 0, 60, 79
3, 522720, Note_on_c, 0, 63, 79
3, 522720, Note_on_c, 0, 67, 79
3, 522720, Note_on_c, 0, 51, 60
3, 522720, Note_on_c, 0, 55, 60
3, 522899, Note_on_c, 0, 55, 0
3, 522899, Note_on_c, 0, 51, 0
3, 523080, Note_on_c, 0, 60, 0
3, 523080, Note_on_c, 0, 63, 0
3, 523080, Note_on_c, 0, 67, 0
3, 523080, Note_on_c, 0, 60, 57
3, 523080, Note_on_c, 0, 63, 57
3, 523080, Note_on_c, 0, 67, 57
3, 523080, Note_on_c, 0, 36, 50
3, 523080, Note_on_c, 0, 43, 50
3, 523080, Note_on_c, 0, 48, 50
3, 523169, Note_on_c, 0, 67, 0
3, 523169, Note_on_c, 0, 60, 0
3, 523169, Note_on_c, 0, 63, 0
3, 523259, Note_on_c, 0, 36, 0
3, 523259, Note_on_c, 0, 43, 0
3, 523259, Note_on_c, 0, 48, 0
3, 523260, Note_on_c, 0, 60, 52
3, 523260, Note_on_c, 0, 63, 52
3, 523260, Note_on_c, 0, 67, 52
3, 523349, Note_on_c, 0, 67, 0
3, 523349, Note_on_c, 0, 63, 0
3, 523349, Note_on_c, 0, 60, 0
3, 523440, Note_on_c, 0, 60, 60
3, 523440, Note_on_c, 0, 63, 60
3, 523440, Note_on_c, 0, 67, 60
3, 523440, Note_on_c, 0, 36, 57
3, 523440, Note_on_c, 0, 43, 57
3, 523440, Note_on_c, 0, 48, 57
3, 523619, Note_on_c, 0, 48, 0
3, 523619, Note_on_c, 0, 36, 0
3, 523619, Note_on_c, 0, 43, 0
3, 523800, Note_on_c, 0, 60, 0
3, 523800, Note_on_c, 0, 67, 0
3, 523800, Note_on_c, 0, 63, 0
3, 523800, Note_on_c, 0, 60, 58
3, 523800, Note_on_c, 0, 63, 58
3, 523800, Note_on_c, 0, 67, 58
3, 523800, Note_on_c, 0, 51, 62
3, 523800, Note_on_c, 0, 55, 62
3, 523979, Note_on_c, 0, 55, 0
3, 523979, Note_on_c, 0, 51, 0
3, 524160, Note_on_c, 0, 60, 0
3, 524160, Note_on_c, 0, 63, 0
3, 524160, Note_on_c, 0, 67, 0
3, 524160, Note_on_c, 0, 60, 81
3, 524160, Note_on_c, 0, 63, 81
3, 524160, Note_on_c, 0, 65, 81
3, 524160, Note_on_c, 0, 51, 52
3, 524160, Note_on_c, 0, 53, 52
3, 524339, Note_on_c, 0, 53, 0
3, 524339, Note_on_c, 0, 51, 0
3, 524520, Note_on_c, 0, 60, 0
3, 524520, Note_on_c, 0, 63, 0
3, 524520, Note_on_c, 0, 65, 0
3, 524520, Note_on_c, 0, 60, 52
3, 524520, Note_on_c, 0, 63, 52
3, 524520, Note_on_c, 0, 65, 52
3, 524520, Note_on_c, 0, 36, 51
3, 524520, Note_on_c, 0, 41, 51
3, 524520, Note_on_c, 0, 48, 51
3, 524609, Note_on_c, 0, 65, 0
3, 524609, Note_on_c, 0, 60, 0
3, 524609, Note_on_c, 0, 63, 0
3, 524699, Note_on_c, 0, 36, 0
3, 524699, Note_on_c, 0, 41, 0
3, 524699, Note_on_c, 0, 48, 0
3, 524700, Note_on_c, 0, 60, 60
3, 524700, Note_on_c, 0, 63, 60
3, 524700, Note_on_c, 0, 65, 60
3, 524789, Note_on_c, 0, 65, 0
3, 524789, Note_on_c, 0, 63, 0
3, 524789, Note_on_c, 0, 60, 0
3, 524880, Note_on_c, 0, 60, 54
3, 524880, Note_on_c, 0, 63, 54
3, 524880, Note_on_c, 0, 65, 54
3, 524880, Note_on_c, 0, 36, 56
3, 524880, Note_on_c, 0, 41, 56
3, 524880, Note_on_c, 0, 48, 56
3, 525059, Note_on_c, 0, 48, 0
3, 525059, Note_on_c, 0, 36, 0
3, 525059, Note_on_c, 0, 41, 0
3, 525240, Note_on_c, 0, 60, 0
3, 525240, Note_on_c, 0, 65, 0
3, 525240, Note_on_c, 0, 63, 0
3, 525240, Note_on_c, 0, 60, 60
3, 525240, Note_on_c, 0, 63, 60
3, 525240, Note_on_c, 0, 65, 60
3, 525240, Note_on_c, 0, 51, 60
3, 525240, Note_on_c, 0, 53, 60
3, 525419, Note_on_c, 0, 53, 0
3, 525419, Note_on_c, 0, 51, 0
3, 525600, Note_on_c, 0, 60, 0
3, 525600, Note_on_c, 0, 63, 0
3, 525600, Note_on_c, 0, 65, 0
3, 525600, Note_on_c, 0, 58, 78
3, 525600, Note_on_c, 0, 62, 78
3, 525600, Note_on_c, 0, 46, 52
3, 525600, Note_on_c, 0, 53, 52
3, 525779, Note_on_c, 0, 53, 0
3, 525779, Note_on_c, 0, 46, 0
3, 525960, Note_on_c, 0, 62, 0
3, 525960, Note_on_c, 0, 58, 0
3, 525960, Note_on_c, 0, 50, 49
3, 525960, Note_on_c, 0, 53, 49
3, 525960, Note_on_c, 0, 58, 49
3, 525960, Note_on_c, 0, 34, 47
3, 525960, Note_on_c, 0, 41, 47
3, 525960, Note_on_c, 0, 46, 47
3, 526139, Note_on_c, 0, 46, 0
3, 526139, Note_on_c, 0, 53, 0
3, 526139, Note_on_c, 0, 58, 0
3, 526139, Note_on_c, 0, 50, 0
3, 526139, Note_on_c, 0, 41, 0
3, 526139, Note_on_c, 0, 34, 0
3, 526320, Note_on_c, 0, 50, 57
3, 526320, Note_on_c, 0, 53, 57
3, 526320, Note_on_c, 0, 58, 57
3, 526320, Note_on_c, 0, 34, 58
3, 526320, Note_on_c, 0, 41, 58
3, 526320, Note_on_c, 0, 46, 58
3, 526499, Note_on_c, 0, 46, 0
3, 526499, Note_on_c, 0, 53, 0
3, 526499, Note_on_c, 0, 58, 0
3, 526499, Note_on_c, 0, 50, 0
3, 526499, Note_on_c, 0, 41, 0
3, 526499, Note_on_c, 0, 34, 0
3, 526680, Note_on_c, 0, 50, 64
3, 526680, Note_on_c, 0, 53, 64
3, 526680, Note_on_c, 0, 58, 64
3, 526680, Note_on_c, 0, 62, 64
3, 526680, Note_on_c, 0, 46, 54
3, 526859, Note_on_c, 0, 46, 0
3, 526859, Note_on_c, 0, 58, 0
3, 526859, Note_on_c, 0, 50, 0
3, 526859, Note_on_c, 0, 53, 0
3, 526859, Note_on_c, 0, 62, 0
3, 527040, Note_on_c, 0, 50, 62
3, 527040, Note_on_c, 0, 53, 62
3, 527040, Note_on_c, 0, 58, 62
3, 527040, Note_on_c, 0, 62, 62
3, 527040, Note_on_c, 0, 46, 56
3, 527219, Note_on_c, 0, 46, 0
3, 527219, Note_on_c, 0, 58, 0
3, 527219, Note_on_c, 0, 50, 0
3, 527219, Note_on_c, 0, 53, 0
3, 527219, Note_on_c, 0, 62, 0
3, 527400, Note_on_c, 0, 50, 55
3, 527400, Note_on_c, 0, 53, 55
3, 527400, Note_on_c, 0, 58, 55
3, 527400, Note_on_c, 0, 34, 54
3, 527400, Note_on_c, 0, 41, 54
3, 527400, Note_on_c, 0, 46, 54
3, 527579, Note_on_c, 0, 46, 0
3, 527579, Note_on_c, 0, 53, 0
3, 527579, Note_on_c, 0, 58, 0
3, 527579, Note_on_c, 0, 50, 0
3, 527579, Note_on_c, 0, 41, 0
3, 527579, Note_on_c, 0, 34, 0
3, 527760, Note_on_c, 0, 50, 53
3, 527760, Note_on_c, 0, 53, 53
3, 527760, Note_on_c, 0, 58, 53
3, 527760, Note_on_c, 0, 34, 53
3, 527760, Note_on_c, 0, 41, 53
3, 527760, Note_on_c, 0, 46, 53
3, 527939, Note_on_c, 0, 46, 0
3, 527939, Note_on_c, 0, 53, 0
3, 527939, Note_on_c, 0, 58, 0
3, 527939, Note_on_c, 0, 50, 0
3, 527939, Note_on_c, 0, 41, 0
3, 527939, Note_on_c, 0, 34, 0
3, 528120, Note_on_c, 0, 50, 59
3, 528120, Note_on_c, 0, 53, 59
3, 528120, Note_on_c, 0, 58, 59
3, 528120, Note_on_c, 0, 62, 59
3, 528120, Note_on_c, 0, 46, 52
3, 528299, Note_on_c, 0, 46, 0
3, 528299, Note_on_c, 0, 58, 0
3, 528299, Note_on_c, 0, 50, 0
3, 528299, Note_on_c, 0, 53, 0
3, 528299, Note_on_c, 0, 62, 0
3, 528480, Note_on_c, 0, 50, 58
3, 528480, Note_on_c, 0, 53, 58
3, 528480, Note_on_c, 0, 58, 58
3, 528480, Note_on_c, 0, 62, 58
3, 528480, Note_on_c, 0, 46, 57
3, 528659, Note_on_c, 0, 46, 0
3, 528659, Note_on_c, 0, 58, 0
3, 528659, Note_on_c, 0, 50, 0
3, 528659, Note_on_c, 0, 53, 0
3, 528659, Note_on_c, 0, 62, 0
3, 528840, Note_on_c, 0, 50, 50
3, 528840, Note_on_c, 0, 53, 50
3, 528840, Note_on_c, 0, 58, 50
3, 528840, Note_on_c, 0, 34, 58
3, 528840, Note_on_c, 0, 41, 58
3, 528840, Note_on_c, 0, 46, 58
3, 529019, Note_on_c, 0, 46, 0
3, 529019, Note_on_c, 0, 53, 0
3, 529019, Note_on_c, 0, 58, 0
3, 529019, Note_on_c, 0, 50, 0
3, 529019, Note_on_c, 0, 41, 0
3, 529019, Note_on_c, 0, 34, 0
3, 529200, Note_on_c, 0, 50, 53
3, 529200, Note_on_c, 0, 53, 53
3, 529200, Note_on_c, 0, 58, 53
3, 529200, Note_on_c, 0, 34, 57
3, 529200, Note_on_c, 0, 41, 57
3, 529200, Note_on_c, 0, 46, 57
3, 529379, Note_on_c, 0, 46, 0
3, 529379, Note_on_c, 0, 53, 0
3, 529379, Note_on_c, 0, 58, 0
3, 529379, Note_on_c, 0, 50, 0
3, 529379, Note_on_c, 0, 41, 0
3, 529379, Note_on_c, 0, 34, 0
3, 529560, Note_on_c, 0, 50, 61
3, 529560, Note_on_c, 0, 53, 61
3, 529560, Note_on_c, 0, 58, 61
3, 529560, Note_on_c, 0, 62, 61
3, 529560, Note_on_c, 0, 46, 55
3, 529739, Note_on_c, 0, 46, 0
3, 529739, Note_on_c, 0, 58, 0
3, 529739, Note_on_c, 0, 50, 0
3, 529739, Note_on_c, 0, 53, 0
3, 529739, Note_on_c, 0, 62, 0
3, 529920, Note_on_c, 0, 52, 53
3, 529920, Note_on_c, 0, 56, 53
3, 529920, Note_on_c, 0, 62, 53
3, 529920, Note_on_c, 0, 46, 57
3, 530099, Note_on_c, 0, 46, 0
3, 530099, Note_on_c, 0, 52, 0
3, 530099, Note_on_c, 0, 56, 0
3, 530099, Note_on_c, 0, 62, 0
3, 530280, Note_on_c, 0, 50, 51
3, 530280, Note_on_c, 0, 52, 51
3, 530280, Note_on_c, 0, 56, 51
3, 530280, Note_on_c, 0, 34, 54
3, 530280, Note_on_c, 0, 46, 54
3, 530459, Note_on_c, 0, 46, 0
3, 530459, Note_on_c, 0, 56, 0
3, 530459, Note_on_c, 0, 50, 0
3, 530459, Note_on_c, 0, 52, 0
3, 530459, Note_on_c, 0, 34, 0
3, 530640, Note_on_c, 0, 50, 56
3, 530640, Note_on_c, 0, 52, 56
3, 530640, Note_on_c, 0, 56, 56
3, 530640, Note_on_c, 0, 34, 58
3, 530640, Note_on_c, 0, 46, 58
3, 530819, Note_on_c, 0, 46, 0
3, 530819, Note_on_c, 0, 56, 0
3, 530819, Note_on_c, 0, 50, 0
3, 530819, Note_on_c, 0, 52, 0
3, 530819, Note_on_c, 0, 34, 0
3, 531000, Note_on_c, 0, 50, 67
3, 531000, Note_on_c, 0, 52, 67
3, 531000, Note_on_c, 0, 56, 67
3, 531000, Note_on_c, 0, 62, 67
3, 531000, Note_on_c, 0, 34, 49
3, 531000, Note_on_c, 0, 46, 49
3, 531179, Note_on_c, 0, 46, 0
3, 531179, Note_on_c, 0, 52, 0
3, 531179, Note_on_c, 0, 56, 0
3, 531179, Note_on_c, 0, 50, 0
3, 531179, Note_on_c, 0, 34, 0
3, 531179, Note_on_c, 0, 62, 0
3, 531360, Note_on_c, 0, 52, 79
3, 531360, Note_on_c, 0, 57, 79
3, 531360, Note_on_c, 0, 60, 79
3, 531360, Note_on_c, 0, 33, 52
3, 531360, Note_on_c, 0, 45, 52
3, 531539, Note_on_c, 0, 45, 0
3, 531539, Note_on_c, 0, 60, 0
3, 531539, Note_on_c, 0, 52, 0
3, 531539, Note_on_c, 0, 57, 0
3, 531539, Note_on_c, 0, 33, 0
3, 531720, Note_on_c, 0, 57, 75
3, 531900, Note_on_c, 0, 57, 0
3, 531900, Note_on_c, 0, 60, 84
3, 532080, Note_on_c, 0, 60, 0
3, 532080, Note_on_c, 0, 35, 49
3, 532080, Note_on_c, 0, 47, 49
3, 532260, Note_on_c, 0, 57, 67
3, 532440, Note_on_c, 0, 57, 0
3, 532440, Note_on_c, 0, 47, 0
3, 532440, Note_on_c, 0, 35, 0
3, 532440, Note_on_c, 0, 65, 95
3, 532620, Note_on_c, 0, 65, 0
3, 532620, Note_on_c, 0, 62, 74
3, 532800, Note_on_c, 0, 62, 0
3, 532800, Note_on_c, 0, 36, 50
3, 532800, Note_on_c, 0, 48, 50
3, 532980, Note_on_c, 0, 57, 68
3, 533160, Note_on_c, 0, 57, 0
3, 533160, Note_on_c, 0, 48, 0
3, 533160, Note_on_c, 0, 36, 0
3, 533160, Note_on_c, 0, 67, 96
3, 533340, Note_on_c, 0, 67, 0
3, 533340, Note_on_c, 0, 64, 72
3, 533520, Note_on_c, 0, 64, 0
3, 533520, Note_on_c, 0, 37, 48
3, 533520, Note_on_c, 0, 49, 48
3, 533700, Note_on_c, 0, 57, 71
3, 533880, Note_on_c, 0, 57, 0
3, 533880, Note_on_c, 0, 49, 0
3, 533880, Note_on_c, 0, 37, 0
3, 533880, Note_on_c, 0, 67, 100
3, 533880, Note_on_c, 0, 69, 100
3, 534060, Note_on_c, 0, 69, 0
3, 534060, Note_on_c, 0, 67, 0
3, 534060, Note_on_c, 0, 64, 72
3, 534240, Note_on_c, 0, 64, 0
3, 534240, Note_on_c, 0, 38, 48
3, 534240, Note_on_c, 0, 50, 48
3, 534420, Note_on_c, 0, 59, 68
3, 534600, Note_on_c, 0, 59, 0
3, 534600, Note_on_c, 0, 50, 0
3, 534600, Note_on_c, 0, 38, 0
3, 534600, Note_on_c, 0, 65, 98
3, 534600, Note_on_c, 0, 69, 98
3, 534780, Note_on_c, 0, 69, 0
3, 534780, Note_on_c, 0, 65, 0
3, 534780, Note_on_c, 0, 60, 58
3, 534960, Note_on_c, 0, 60, 0
3, 534960, Note_on_c, 0, 40, 45
3, 534960, Note_on_c, 0, 52, 45
3, 535140, Note_on_c, 0, 60, 63
3, 535320, Note_on_c, 0, 60, 0
3, 535320, Note_on_c, 0, 52, 0
3, 535320, Note_on_c, 0, 40, 0
3, 535320, Note_on_c, 0, 72, 99
3, 535320, Note_on_c, 0, 41, 53
3, 535320, Note_on_c, 0, 53, 53
3, 535500, Note_on_c, 0, 72, 0
3, 535500, Note_on_c, 0, 69, 74
3, 535680, Note_on_c, 0, 69, 0
3, 535680, Note_on_c, 0, 53, 0
3, 535680, Note_on_c, 0, 41, 0
3, 535680, Note_on_c, 0, 42, 55
3, 535680, Note_on_c, 0, 54, 55
3, 535860, Note_on_c, 0, 64, 79
3, 536040, Note_on_c, 0, 64, 0
3, 536040, Note_on_c, 0, 54, 0
3, 536040, Note_on_c, 0, 42, 0
3, 536040, Note_on_c, 0, 72, 80
3, 536220, Note_on_c, 0, 72, 0
3, 536220, Note_on_c, 0, 69, 81
3, 536400, Note_on_c, 0, 69, 0
3, 536400, Note_on_c, 0, 43, 52
3, 536400, Note_on_c, 0, 55, 52
3, 536580, Note_on_c, 0, 60, 84
3, 536760, Note_on_c, 0, 60, 0
3, 536760, Note_on_c, 0, 55, 0
3, 536760, Note_on_c, 0, 43, 0
3, 536760, Note_on_c, 0, 72, 85
3, 536940, Note_on_c, 0, 72, 0
3, 536940, Note_on_c, 0, 64, 86
3, 537120, Note_on_c, 0, 64, 0
3, 537120, Note_on_c, 0, 44, 51
3, 537120, Note_on_c, 0, 56, 51
3, 537300, Note_on_c, 0, 62, 88
3, 537480, Note_on_c, 0, 62, 0
3, 537480, Note_on_c, 0, 56, 0
3, 537480, Note_on_c, 0, 44, 0
3, 537480, Note_on_c, 0, 71, 89
3, 537660, Note_on_c, 0, 71, 0
3, 537660, Note_on_c, 0, 65, 90
3, 537840, Note_on_c, 0, 65, 0
3, 537840, Note_on_c, 0, 45, 50
3, 537840, Note_on_c, 0, 57, 50
3, 538020, Note_on_c, 0, 60, 92
3, 538200, Note_on_c, 0, 60, 0
3, 538200, Note_on_c, 0, 57, 0
3, 538200, Note_on_c, 0, 45, 0
3, 538200, Note_on_c, 0, 69, 93
3, 538380, Note_on_c, 0, 69, 0
3, 538380, Note_on_c, 0, 64, 94
3, 538560, Note_on_c, 0, 64, 0
3, 538560, Note_on_c, 0, 46, 49
3, 538560, Note_on_c, 0, 58, 49
3, 538740, Note_on_c, 0, 55, 96
3, 538920, Note_on_c, 0, 55, 0
3, 538920, Note_on_c, 0, 58, 0
3, 538920, Note_on_c, 0, 46, 0
3, 538920, Note_on_c, 0, 67, 97
3, 539100, Note_on_c, 0, 67, 0
3, 539100, Note_on_c, 0, 64, 98
3, 539280, Note_on_c, 0, 64, 0
3, 539280, Note_on_c, 0, 47, 47
3, 539280, Note_on_c, 0, 55, 47
3, 539460, Note_on_c, 0, 59, 101
3, 539640, Note_on_c, 0, 59, 0
3, 539640, Note_on_c, 0, 55, 0
3, 539640, Note_on_c, 0, 47, 0
3, 539640, Note_on_c, 0, 67, 102
3, 539640, Note_on_c, 0, 48, 56
3, 539640, Note_on_c, 0, 57, 56
3, 539820, Note_on_c, 0, 67, 0
3, 539820, Note_on_c, 0, 64, 103
3, 540000, Note_on_c, 0, 64, 0
3, 540000, Note_on_c, 0, 57, 0
3, 540000, Note_on_c, 0, 48, 0
3, 540000, Note_on_c, 0, 47, 73
3, 540180, Note_on_c, 0, 55, 87
3, 540360, Note_on_c, 0, 55, 0
3, 540360, Note_on_c, 0, 47, 0
3, 540360, Note_on_c, 0, 64, 121
3, 540360, Note_on_c, 0, 55, 48
3, 540540, Note_on_c, 0, 55, 0
3, 540540, Note_on_c, 0, 64, 0
3, 540540, Note_on_c, 0, 59, 99
3, 540720, Note_on_c, 0, 59, 0
3, 540720, Note_on_c, 0, 35, 66
3, 540720, Note_on_c, 0, 47, 66
3, 540900, Note_on_c, 0, 55, 94
3, 541080, Note_on_c, 0, 55, 0
3, 541080, Note_on_c, 0, 47, 0
3, 541080, Note_on_c, 0, 35, 0
3, 541080, Note_on_c, 0, 59, 112
3, 541260, Note_on_c, 0, 59, 0
3, 541260, Note_on_c, 0, 64, 119
3, 541440, Note_on_c, 0, 64, 0
3, 541440, Note_on_c, 0, 57, 49
3, 541620, Note_on_c, 0, 57, 0
3, 541620, Note_on_c, 0, 57, 94
3, 541800, Note_on_c, 0, 57, 0
3, 541800, Note_on_c, 0, 60, 111
3, 541980, Note_on_c, 0, 60, 0
3, 541980, Note_on_c, 0, 66, 119
3, 542160, Note_on_c, 0, 66, 0
3, 542160, Note_on_c, 0, 59, 96
3, 542160, Note_on_c, 0, 35, 51
3, 542160, Note_on_c, 0, 47, 51
3, 542340, Note_on_c, 0, 59, 0
3, 542340, Note_on_c, 0, 63, 116
3, 542520, Note_on_c, 0, 63, 0
3, 542520, Note_on_c, 0, 47, 0
3, 542520, Note_on_c, 0, 35, 0
3, 542520, Note_on_c, 0, 59, 102
3, 542520, Note_on_c, 0, 63, 102
3, 542700, Note_on_c, 0, 63, 0
3, 542700, Note_on_c, 0, 59, 0
3, 542700, Note_on_c, 0, 67, 115
3, 542880, Note_on_c, 0, 67, 0
3, 542880, Note_on_c, 0, 59, 99
3, 542880, Note_on_c, 0, 64, 99
3, 542880, Note_on_c, 0, 52, 53
3, 542880, Note_on_c, 0, 55, 53
3, 543240, Note_on_c, 0, 55, 0
3, 543240, Note_on_c, 0, 59, 0
3, 543240, Note_on_c, 0, 64, 0
3, 543240, Note_on_c, 0, 52, 0
3, 543240, Note_on_c, 0, 55, 117
3, 543240, Note_on_c, 0, 64, 117
3, 543240, Note_on_c, 0, 67, 117
3, 543240, Note_on_c, 0, 40, 44
3, 543329, Note_on_c, 0, 67, 0
3, 543329, Note_on_c, 0, 55, 0
3, 543329, Note_on_c, 0, 64, 0
3, 543419, Note_on_c, 0, 40, 0
3, 543420, Note_on_c, 0, 55, 107
3, 543420, Note_on_c, 0, 64, 107
3, 543420, Note_on_c, 0, 67, 107
3, 543509, Note_on_c, 0, 67, 0
3, 543509, Note_on_c, 0, 64, 0
3, 543509, Note_on_c, 0, 55, 0
3, 543600, Note_on_c, 0, 55, 105
3, 543600, Note_on_c, 0, 64, 105
3, 543600, Note_on_c, 0, 67, 105
3, 543600, Note_on_c, 0, 50, 67
3, 543779, Note_on_c, 0, 50, 0
3, 543960, Note_on_c, 0, 55, 0
3, 543960, Note_on_c, 0, 64, 0
3, 543960, Note_on_c, 0, 67, 0
3, 543960, Note_on_c, 0, 55, 108
3, 543960, Note_on_c, 0, 64, 108
3, 543960, Note_on_c, 0, 67, 108
3, 543960, Note_on_c, 0, 51, 58
3, 544139, Note_on_c, 0, 51, 0
3, 544320, Note_on_c, 0, 55, 0
3, 544320, Note_on_c, 0, 64, 0
3, 544320, Note_on_c, 0, 67, 0
3, 544320, Note_on_c, 0, 55, 104
3, 544320, Note_on_c, 0, 64, 104
3, 544320, Note_on_c, 0, 67, 104
3, 544320, Note_on_c, 0, 52, 60
3, 544499, Note_on_c, 0, 52, 0
3, 544680, Note_on_c, 0, 55, 0
3, 544680, Note_on_c, 0, 64, 0
3, 544680, Note_on_c, 0, 67, 0
3, 544680, Note_on_c, 0, 55, 120
3, 544680, Note_on_c, 0, 64, 120
3, 544680, Note_on_c, 0, 67, 120
3, 544680, Note_on_c, 0, 48, 55
3, 544860, Note_on_c, 0, 48, 0
3, 544860, Note_on_c, 0, 49, 53
3, 545040, Note_on_c, 0, 49, 0
3, 545040, Note_on_c, 0, 50, 59
3, 545313, Note_on_c, 0, 67, 0
3, 545313, Note_on_c, 0, 55, 0
3, 545313, Note_on_c, 0, 64, 0
3, 545400, Note_on_c, 0, 50, 0
3, 545400, Note_on_c, 0, 55, 90
3, 545400, Note_on_c, 0, 64, 90
3, 545400, Note_on_c, 0, 67, 90
3, 545400, Note_on_c, 0, 47, 56
3, 545579, Note_on_c, 0, 47, 0
3, 545760, Note_on_c, 0, 48, 58
3, 545939, Note_on_c, 0, 48, 0
3, 546120, Note_on_c, 0, 67, 0
3, 546120, Note_on_c, 0, 64, 0
3, 546120, Note_on_c, 0, 55, 0
3, 546120, Note_on_c, 0, 55, 77
3, 546120, Note_on_c, 0, 64, 77
3, 546120, Note_on_c, 0, 67, 77
3, 546120, Note_on_c, 0, 46, 52
3, 546209, Note_on_c, 0, 67, 0
3, 546209, Note_on_c, 0, 55, 0
3, 546209, Note_on_c, 0, 64, 0
3, 546299, Note_on_c, 0, 46, 0
3, 546300, Note_on_c, 0, 55, 77
3, 546300, Note_on_c, 0, 64, 77
3, 546300, Note_on_c, 0, 67, 77
3, 546389, Note_on_c, 0, 67, 0
3, 546389, Note_on_c, 0, 64, 0
3, 546389, Note_on_c, 0, 55, 0
3, 546480, Note_on_c, 0, 55, 76
3, 546480, Note_on_c, 0, 64, 76
3, 546480, Note_on_c, 0, 67, 76
3, 546480, Note_on_c, 0, 47, 56
3, 546659, Note_on_c, 0, 47, 0
3, 546840, Note_on_c, 0, 43, 50
3, 547020, Note_on_c, 0, 43, 0
3, 547020, Note_on_c, 0, 44, 58
3, 547200, Note_on_c, 0, 44, 0
3, 547200, Note_on_c, 0, 45, 57
3, 547379, Note_on_c, 0, 45, 0
3, 547560, Note_on_c, 0, 67, 0
3, 547560, Note_on_c, 0, 64, 0
3, 547560, Note_on_c, 0, 55, 0
3, 547560, Note_on_c, 0, 55, 73
3, 547560, Note_on_c, 0, 64, 73
3, 547560, Note_on_c, 0, 67, 73
3, 547560, Note_on_c, 0, 42, 60
3, 547649, Note_on_c, 0, 67, 0
3, 547649, Note_on_c, 0, 55, 0
3, 547649, Note_on_c, 0, 64, 0
3, 547739, Note_on_c, 0, 42, 0
3, 547740, Note_on_c, 0, 55, 73
3, 547740, Note_on_c, 0, 64, 73
3, 547740, Note_on_c, 0, 67, 73
3, 547829, Note_on_c, 0, 67, 0
3, 547829, Note_on_c, 0, 64, 0
3, 547829, Note_on_c, 0, 55, 0
3, 547920, Note_on_c, 0, 55, 72
3, 547920, Note_on_c, 0, 64, 72
3, 547920, Note_on_c, 0, 67, 72
3, 547920, Note_on_c, 0, 43, 59
3, 548099, Note_on_c, 0, 43, 0
3, 548280, Note_on_c, 0, 37, 52
3, 548460, Note_on_c, 0, 37, 0
3, 548460, Note_on_c, 0, 39, 58
3, 548553, Note_on_c, 0, 67, 0
3, 548553, Note_on_c, 0, 55, 0
3, 548553, Note_on_c, 0, 64, 0
3, 548640, Note_on_c, 0, 39, 0
3, 548640, Note_on_c, 0, 52, 70
3, 548640, Note_on_c, 0, 55, 70
3, 548640, Note_on_c, 0, 40, 61
3, 548819, Note_on_c, 0, 40, 0
3, 549000, Note_on_c, 0, 35, 60
3, 549000, Note_on_c, 0, 47, 60
3, 549180, Note_on_c, 0, 47, 0
3, 549180, Note_on_c, 0, 35, 0
3, 549180, Note_on_c, 0, 36, 47
3, 549360, Note_on_c, 0, 36, 0
3, 549360, Note_on_c, 0, 38, 58
3, 549539, Note_on_c, 0, 38, 0
3, 549720, Note_on_c, 0, 55, 0
3, 549720, Note_on_c, 0, 52, 0
3, 549720, Note_on_c, 0, 52, 67
3, 549720, Note_on_c, 0, 55, 67
3, 549720, Note_on_c, 0, 36, 59
3, 549720, Note_on_c, 0, 48, 59
3, 549809, Note_on_c, 0, 55, 0
3, 549809, Note_on_c, 0, 52, 0
3, 549899, Note_on_c, 0, 36, 0
3, 549899, Note_on_c, 0, 48, 0
3, 549900, Note_on_c, 0, 52, 66
3, 549900, Note_on_c, 0, 55, 66
3, 549989, Note_on_c, 0, 55, 0
3, 549989, Note_on_c, 0, 52, 0
3, 550080, Note_on_c, 0, 52, 66
3, 550080, Note_on_c, 0, 55, 66
3, 550080, Note_on_c, 0, 38, 60
3, 550080, Note_on_c, 0, 50, 60
3, 550259, Note_on_c, 0, 50, 0
3, 550259, Note_on_c, 0, 38, 0
3, 550440, Note_on_c, 0, 55, 0
3, 550440, Note_on_c, 0, 52, 0
3, 550440, Note_on_c, 0, 52, 65
3, 550440, Note_on_c, 0, 55, 65
3, 550440, Note_on_c, 0, 35, 53
3, 550440, Note_on_c, 0, 47, 53
3, 550619, Note_on_c, 0, 47, 0
3, 550619, Note_on_c, 0, 35, 0
3, 550800, Note_on_c, 0, 55, 0
3, 550800, Note_on_c, 0, 52, 0
3, 550800, Note_on_c, 0, 52, 64
3, 550800, Note_on_c, 0, 55, 64
3, 550800, Note_on_c, 0, 36, 55
3, 550800, Note_on_c, 0, 48, 55
3, 550979, Note_on_c, 0, 48, 0
3, 550979, Note_on_c, 0, 36, 0
3, 551160, Note_on_c, 0, 33, 50
3, 551160, Note_on_c, 0, 45, 50
3, 551339, Note_on_c, 0, 45, 0
3, 551339, Note_on_c, 0, 33, 0
3, 551520, Note_on_c, 0, 35, 59
3, 551520, Note_on_c, 0, 47, 59
3, 551699, Note_on_c, 0, 47, 0
3, 551699, Note_on_c, 0, 35, 0
3, 551880, Note_on_c, 0, 55, 0
3, 551880, Note_on_c, 0, 52, 0
3, 551880, Note_on_c, 0, 52, 60
3, 551880, Note_on_c, 0, 55, 60
3, 551880, Note_on_c, 0, 30, 50
3, 551880, Note_on_c, 0, 42, 50
3, 552060, Note_on_c, 0, 42, 0
3, 552060, Note_on_c, 0, 30, 0
3, 552060, Note_on_c, 0, 31, 57
3, 552060, Note_on_c, 0, 43, 57
3, 552240, Note_on_c, 0, 43, 0
3, 552240, Note_on_c, 0, 31, 0
3, 552240, Note_on_c, 0, 33, 61
3, 552600, Note_on_c, 0, 55, 0
3, 552600, Note_on_c, 0, 52, 0
3, 552600, Note_on_c, 0, 52, 58
3, 552600, Note_on_c, 0, 55, 58
3, 552689, Note_on_c, 0, 55, 0
3, 552689, Note_on_c, 0, 52, 0
3, 552780, Note_on_c, 0, 52, 58
3, 552780, Note_on_c, 0, 55, 58
3, 552869, Note_on_c, 0, 55, 0
3, 552869, Note_on_c, 0, 52, 0
3, 552960, Note_on_c, 0, 52, 57
3, 552960, Note_on_c, 0, 55, 57
3, 553320, Note_on_c, 0, 55, 0
3, 553320, Note_on_c, 0, 52, 0
3, 553320, Note_on_c, 0, 33, 0
3, 553320, Note_on_c, 0, 52, 56
3, 553320, Note_on_c, 0, 55, 56
3, 553320, Note_on_c, 0, 31, 65
3, 553320, Note_on_c, 0, 43, 65
3, 553500, Note_on_c, 0, 43, 0
3, 553500, Note_on_c, 0, 31, 0
3, 553500, Note_on_c, 0, 33, 51
3, 553680, Note_on_c, 0, 33, 0
3, 553680, Note_on_c, 0, 34, 54
3, 553859, Note_on_c, 0, 34, 0
3, 553953, Note_on_c, 0, 55, 0
3, 553953, Note_on_c, 0, 52, 0
3, 554040, Note_on_c, 0, 52, 54
3, 554040, Note_on_c, 0, 55, 54
3, 554040, Note_on_c, 0, 35, 58
3, 554129, Note_on_c, 0, 55, 0
3, 554129, Note_on_c, 0, 52, 0
3, 554220, Note_on_c, 0, 52, 53
3, 554220, Note_on_c, 0, 55, 53
3, 554309, Note_on_c, 0, 55, 0
3, 554309, Note_on_c, 0, 52, 0
3, 554400, Note_on_c, 0, 35, 0
3, 554400, Note_on_c, 0, 52, 53
3, 554400, Note_on_c, 0, 55, 53
3, 554400, Note_on_c, 0, 28, 55
3, 554400, Note_on_c, 0, 40, 55
3, 554579, Note_on_c, 0, 40, 0
3, 554579, Note_on_c, 0, 52, 0
3, 554579, Note_on_c, 0, 55, 0
3, 554579, Note_on_c, 0, 28, 0
3, 557280, Note_on_c, 0, 62, 44
3, 558720, Note_on_c, 0, 55, 57
3, 560160, Note_on_c, 0, 55, 0
3, 560160, Note_on_c, 0, 62, 0
3, 560160, Note_on_c, 0, 52, 55
3, 560160, Note_on_c, 0, 60, 55
3, 560160, Note_on_c, 0, 55, 55
3, 560160, Note_on_c, 0, 36, 41
3, 560160, Note_on_c, 0, 43, 41
3, 560160, Note_on_c, 0, 48, 41
3, 560520, Note_on_c, 0, 55, 0
3, 560520, Note_on_c, 0, 52, 56
3, 560880, Note_on_c, 0, 52, 0
3, 560880, Note_on_c, 0, 55, 58
3, 561240, Note_on_c, 0, 55, 0
3, 561240, Note_on_c, 0, 57, 53
3, 561600, Note_on_c, 0, 57, 0
3, 561600, Note_on_c, 0, 48, 0
3, 561600, Note_on_c, 0, 36, 0
3, 561600, Note_on_c, 0, 60, 0
3, 561600, Note_on_c, 0, 52, 0
3, 561600, Note_on_c, 0, 43, 0
3, 561600, Note_on_c, 0, 55, 49
3, 561600, Note_on_c, 0, 59, 54
3, 561600, Note_on_c, 0, 40, 47
3, 561600, Note_on_c, 0, 47, 47
3, 561600, Note_on_c, 0, 52, 47
3, 561960, Note_on_c, 0, 59, 0
3, 561960, Note_on_c, 0, 55, 55
3, 562320, Note_on_c, 0, 55, 0
3, 562320, Note_on_c, 0, 59, 64
3, 562680, Note_on_c, 0, 64, 72
3, 563040, Note_on_c, 0, 64, 0
3, 563040, Note_on_c, 0, 40, 0
3, 563040, Note_on_c, 0, 55, 0
3, 563040, Note_on_c, 0, 47, 0
3, 563040, Note_on_c, 0, 59, 0
3, 563040, Note_on_c, 0, 52, 0
3, 563040, Note_on_c, 0, 55, 81
3, 563040, Note_on_c, 0, 60, 81
3, 563040, Note_on_c, 0, 43, 50
3, 563040, Note_on_c, 0, 48, 50
3, 563040, Note_on_c, 0, 52, 50
3, 564120, Note_on_c, 0, 60, 0
3, 564120, Note_on_c, 0, 55, 0
3, 564120, Note_on_c, 0, 67, 100
3, 564480, Note_on_c, 0, 67, 0
3, 564480, Note_on_c, 0, 52, 0
3, 564480, Note_on_c, 0, 43, 0
3, 564480, Note_on_c, 0, 48, 0
3, 564480, Note_on_c, 0, 64, 81
3, 564480, Note_on_c, 0, 60, 55
3, 564480, Note_on_c, 0, 57, 45
3, 564480, Note_on_c, 0, 45, 43
3, 564480, Note_on_c, 0, 52, 43
3, 564840, Note_on_c, 0, 64, 0
3, 565200, Note_on_c, 0, 60, 0
3, 565200, Note_on_c, 0, 59, 68
3, 565560, Note_on_c, 0, 59, 0
3, 565560, Note_on_c, 0, 57, 62
3, 565920, Note_on_c, 0, 57, 0
3, 565920, Note_on_c, 0, 45, 0
3, 565920, Note_on_c, 0, 57, 0
3, 565920, Note_on_c, 0, 52, 0
3, 565920, Note_on_c, 0, 55, 56
3, 565920, Note_on_c, 0, 59, 56
3, 565920, Note_on_c, 0, 52, 39
3, 565920, Note_on_c, 0, 40, 44
3, 565920, Note_on_c, 0, 47, 44
3, 566280, Note_on_c, 0, 52, 0
3, 566280, Note_on_c, 0, 55, 0
3, 566280, Note_on_c, 0, 59, 0
3, 566280, Note_on_c, 0, 52, 30
3, 566640, Note_on_c, 0, 55, 64
3, 567000, Note_on_c, 0, 55, 0
3, 567000, Note_on_c, 0, 57, 72
3, 567360, Note_on_c, 0, 57, 0
3, 567360, Note_on_c, 0, 52, 0
3, 567360, Note_on_c, 0, 40, 0
3, 567360, Note_on_c, 0, 47, 0
3, 567360, Note_on_c, 0, 58, 81
3, 567360, Note_on_c, 0, 55, 55
3, 567360, Note_on_c, 0, 58, 55
3, 567360, Note_on_c, 0, 43, 40
3, 567360, Note_on_c, 0, 50, 40
3, 568440, Note_on_c, 0, 58, 0
3, 568440, Note_on_c, 0, 52, 62
3, 568800, Note_on_c, 0, 52, 0
3, 568800, Note_on_c, 0, 50, 0
3, 568800, Note_on_c, 0, 55, 0
3, 568800, Note_on_c, 0, 58, 0
3, 568800, Note_on_c, 0, 43, 0
3, 568800, Note_on_c, 0, 53, 56
3, 568800, Note_on_c, 0, 57, 56
3, 568800, Note_on_c, 0, 50, 41
3, 568800, Note_on_c, 0, 38, 48
3, 568800, Note_on_c, 0, 45, 48
3, 569160, Note_on_c, 0, 50, 0
3, 569160, Note_on_c, 0, 53, 0
3, 569160, Note_on_c, 0, 57, 0
3, 569160, Note_on_c, 0, 50, 30
3, 569520, Note_on_c, 0, 53, 64
3, 569880, Note_on_c, 0, 53, 0
3, 569880, Note_on_c, 0, 55, 72
3, 570240, Note_on_c, 0, 55, 0
3, 570240, Note_on_c, 0, 50, 0
3, 570240, Note_on_c, 0, 38, 0
3, 570240, Note_on_c, 0, 45, 0
3, 570240, Note_on_c, 0, 56, 81
3, 570240, Note_on_c, 0, 53, 55
3, 570240, Note_on_c, 0, 56, 55
3, 570240, Note_on_c, 0, 41, 37
3, 570240, Note_on_c, 0, 48, 37
3, 571320, Note_on_c, 0, 56, 0
3, 571320, Note_on_c, 0, 50, 62
3, 571680, Note_on_c, 0, 50, 0
3, 571680, Note_on_c, 0, 48, 0
3, 571680, Note_on_c, 0, 53, 0
3, 571680, Note_on_c, 0, 56, 0
3, 571680, Note_on_c, 0, 41, 0
3, 571680, Note_on_c, 0, 52, 56
3, 571680, Note_on_c, 0, 55, 56
3, 571680, Note_on_c, 0, 36, 45
3, 571680, Note_on_c, 0, 43, 45
3, 571680, Note_on_c, 0, 48, 45
3, 572040, Note_on_c, 0, 52, 30
3, 572400, Note_on_c, 0, 52, 0
3, 572400, Note_on_c, 0, 55, 39
3, 572760, Note_on_c, 0, 55, 0
3, 572760, Note_on_c, 0, 60, 47
3, 573120, Note_on_c, 0, 60, 0
3, 573120, Note_on_c, 0, 55, 0
3, 573120, Note_on_c, 0, 48, 0
3, 573120, Note_on_c, 0, 43, 0
3, 573120, Note_on_c, 0, 52, 0
3, 573120, Note_on_c, 0, 36, 0
3, 573120, Note_on_c, 0, 40, 62
3, 573300, Note_on_c, 0, 55, 72
3, 573480, Note_on_c, 0, 55, 0
3, 573480, Note_on_c, 0, 52, 73
3, 573660, Note_on_c, 0, 52, 0
3, 573660, Note_on_c, 0, 55, 79
3, 573840, Note_on_c, 0, 55, 0
3, 573840, Note_on_c, 0, 47, 42
3, 574020, Note_on_c, 0, 52, 51
3, 574200, Note_on_c, 0, 55, 81
3, 574380, Note_on_c, 0, 55, 0
3, 574380, Note_on_c, 0, 59, 94
3, 574560, Note_on_c, 0, 59, 0
3, 574560, Note_on_c, 0, 52, 0
3, 574560, Note_on_c, 0, 47, 0
3, 574560, Note_on_c, 0, 40, 0
3, 574560, Note_on_c, 0, 64, 65
3, 574560, Note_on_c, 0, 55, 55
3, 574560, Note_on_c, 0, 43, 45
3, 574560, Note_on_c, 0, 48, 45
3, 574560, Note_on_c, 0, 52, 45
3, 574740, Note_on_c, 0, 64, 0
3, 574740, Note_on_c, 0, 67, 54
3, 574920, Note_on_c, 0, 67, 0
3, 574920, Note_on_c, 0, 64, 51
3, 575100, Note_on_c, 0, 64, 0
3, 575100, Note_on_c, 0, 67, 56
3, 575280, Note_on_c, 0, 67, 0
3, 575280, Note_on_c, 0, 60, 47
3, 576000, Note_on_c, 0, 52, 0
3, 576000, Note_on_c, 0, 48, 0
3, 576000, Note_on_c, 0, 55, 0
3, 576000, Note_on_c, 0, 43, 0
3, 576000, Note_on_c, 0, 57, 56
3, 576000, Note_on_c, 0, 45, 45
3, 576000, Note_on_c, 0, 52, 45
3, 576180, Note_on_c, 0, 60, 0
3, 576180, Note_on_c, 0, 64, 65
3, 576360, Note_on_c, 0, 64, 0
3, 576360, Note_on_c, 0, 60, 53
3, 576540, Note_on_c, 0, 60, 0
3, 576540, Note_on_c, 0, 64, 61
3, 576720, Note_on_c, 0, 64, 0
3, 576720, Note_on_c, 0, 57, 0
3, 576720, Note_on_c, 0, 55, 55
3, 576900, Note_on_c, 0, 55, 0
3, 576900, Note_on_c, 0, 60, 49
3, 577080, Note_on_c, 0, 60, 0
3, 577080, Note_on_c, 0, 57, 43
3, 577260, Note_on_c, 0, 57, 0
3, 577260, Note_on_c, 0, 60, 36
3, 577440, Note_on_c, 0, 60, 0
3, 577440, Note_on_c, 0, 45, 0
3, 577440, Note_on_c, 0, 52, 0
3, 577440, Note_on_c, 0, 52, 36
3, 577440, Note_on_c, 0, 55, 36
3, 577440, Note_on_c, 0, 59, 36
3, 577440, Note_on_c, 0, 40, 40
3, 578160, Note_on_c, 0, 59, 0
3, 578160, Note_on_c, 0, 55, 0
3, 578340, Note_on_c, 0, 52, 0
3, 578340, Note_on_c, 0, 59, 35
3, 578520, Note_on_c, 0, 59, 0
3, 578520, Note_on_c, 0, 55, 30
3, 578700, Note_on_c, 0, 59, 29
3, 578880, Note_on_c, 0, 59, 0
3, 578880, Note_on_c, 0, 40, 0
3, 578880, Note_on_c, 0, 50, 84
3, 578880, Note_on_c, 0, 58, 84
3, 578880, Note_on_c, 0, 43, 56
3, 579600, Note_on_c, 0, 58, 0
3, 579600, Note_on_c, 0, 55, 0
3, 579780, Note_on_c, 0, 50, 0
3, 579780, Note_on_c, 0, 50, 41
3, 579960, Note_on_c, 0, 50, 0
3, 579960, Note_on_c, 0, 46, 41
3, 580140, Note_on_c, 0, 46, 0
3, 580140, Note_on_c, 0, 50, 47
3, 580320, Note_on_c, 0, 43, 0
3, 580320, Note_on_c, 0, 38, 56
3, 580320, Note_on_c, 0, 45, 56
3, 580500, Note_on_c, 0, 57, 71
3, 580680, Note_on_c, 0, 57, 0
3, 580680, Note_on_c, 0, 53, 76
3, 580860, Note_on_c, 0, 57, 81
3, 581040, Note_on_c, 0, 50, 0
3, 581040, Note_on_c, 0, 50, 77
3, 581760, Note_on_c, 0, 50, 0
3, 581760, Note_on_c, 0, 57, 0
3, 581760, Note_on_c, 0, 38, 0
3, 581760, Note_on_c, 0, 45, 0
3, 581760, Note_on_c, 0, 53, 0
3, 581760, Note_on_c, 0, 48, 40
3, 581760, Note_on_c, 0, 41, 51
3, 581940, Note_on_c, 0, 56, 72
3, 582120, Note_on_c, 0, 56, 0
3, 582120, Note_on_c, 0, 53, 76
3, 582300, Note_on_c, 0, 56, 87
3, 582480, Note_on_c, 0, 48, 0
3, 582480, Note_on_c, 0, 48, 30
3, 582660, Note_on_c, 0, 48, 0
3, 582660, Note_on_c, 0, 50, 24
3, 582840, Note_on_c, 0, 44, 41
3, 583020, Note_on_c, 0, 44, 0
3, 583020, Note_on_c, 0, 48, 47
3, 583200, Note_on_c, 0, 48, 0
3, 583200, Note_on_c, 0, 50, 0
3, 583200, Note_on_c, 0, 41, 0
3, 583200, Note_on_c, 0, 53, 0
3, 583200, Note_on_c, 0, 56, 0
3, 583200, Note_on_c, 0, 56, 57
3, 583200, Note_on_c, 0, 52, 4
3, 583200, Note_on_c, 0, 47, 42
3, 583200, Note_on_c, 0, 40, 52
3, 583560, Note_on_c, 0, 47, 0
3, 583560, Note_on_c, 0, 52, 0
3, 583560, Note_on_c, 0, 52, 5
3, 583877, Note_on_c, 0, 52, 0
3, 583920, Note_on_c, 0, 51, 6
3, 584237, Note_on_c, 0, 51, 0
3, 584280, Note_on_c, 0, 50, 7
3, 584597, Note_on_c, 0, 50, 0
3, 584640, Note_on_c, 0, 56, 0
3, 584640, Note_on_c, 0, 40, 0
3, 584640, Note_on_c, 0, 55, 59
3, 584640, Note_on_c, 0, 61, 59
3, 584640, Note_on_c, 0, 49, 43
3, 584640, Note_on_c, 0, 45, 58
3, 585000, Note_on_c, 0, 49, 0
3, 585000, Note_on_c, 0, 52, 9
3, 585360, Note_on_c, 0, 57, 10
3, 586080, Note_on_c, 0, 57, 0
3, 586080, Note_on_c, 0, 55, 0
3, 586080, Note_on_c, 0, 45, 0
3, 586080, Note_on_c, 0, 61, 0
3, 586080, Note_on_c, 0, 52, 0
3, 586080, Note_on_c, 0, 57, 63
3, 586080, Note_on_c, 0, 60, 63
3, 586080, Note_on_c, 0, 50, 43
3, 586080, Note_on_c, 0, 38, 52
3, 586440, Note_on_c, 0, 53, 13
3, 586800, Note_on_c, 0, 50, 0
3, 586800, Note_on_c, 0, 52, 59
3, 587117, Note_on_c, 0, 52, 0
3, 587160, Note_on_c, 0, 50, 46
3, 587520, Note_on_c, 0, 50, 0
3, 587520, Note_on_c, 0, 38, 0
3, 587520, Note_on_c, 0, 57, 0
3, 587520, Note_on_c, 0, 60, 0
3, 587520, Note_on_c, 0, 53, 0
3, 587520, Note_on_c, 0, 60, 68
3, 587520, Note_on_c, 0, 53, 17
3, 587520, Note_on_c, 0, 50, 43
3, 587520, Note_on_c, 0, 43, 56
3, 587880, Note_on_c, 0, 60, 0
3, 587880, Note_on_c, 0, 59, 69
3, 588240, Note_on_c, 0, 53, 0
3, 588240, Note_on_c, 0, 50, 0
3, 588240, Note_on_c, 0, 55, 19
3, 588600, Note_on_c, 0, 55, 0
3, 588600, Note_on_c, 0, 59, 0
3, 588600, Note_on_c, 0, 57, 71
3, 588960, Note_on_c, 0, 57, 0
3, 588960, Note_on_c, 0, 43, 0
3, 588960, Note_on_c, 0, 59, 72
3, 588960, Note_on_c, 0, 52, 21
3, 588960, Note_on_c, 0, 55, 21
3, 588960, Note_on_c, 0, 40, 38
3, 590040, Note_on_c, 0, 59, 0
3, 590040, Note_on_c, 0, 57, 75
3, 590400, Note_on_c, 0, 57, 0
3, 590400, Note_on_c, 0, 40, 0
3, 590400, Note_on_c, 0, 55, 0
3, 590400, Note_on_c, 0, 52, 0
3, 590400, Note_on_c, 0, 55, 76
3, 590400, Note_on_c, 0, 52, 26
3, 590400, Note_on_c, 0, 48, 44
3, 590400, Note_on_c, 0, 45, 59
3, 591120, Note_on_c, 0, 48, 0
3, 591120, Note_on_c, 0, 55, 0
3, 591120, Note_on_c, 0, 57, 79
3, 591480, Note_on_c, 0, 57, 0
3, 591480, Note_on_c, 0, 59, 80
3, 591840, Note_on_c, 0, 59, 0
3, 591840, Note_on_c, 0, 52, 0
3, 591840, Note_on_c, 0, 45, 0
3, 591840, Note_on_c, 0, 60, 81
3, 591840, Note_on_c, 0, 54, 30
3, 591840, Note_on_c, 0, 50, 35
3, 591840, Note_on_c, 0, 38, 54
3, 592560, Note_on_c, 0, 60, 0
3, 592560, Note_on_c, 0, 59, 76
3, 592920, Note_on_c, 0, 59, 0
3, 592920, Note_on_c, 0, 57, 76
3, 593280, Note_on_c, 0, 57, 0
3, 593280, Note_on_c, 0, 54, 0
3, 593280, Note_on_c, 0, 50, 0
3, 593280, Note_on_c, 0, 38, 0
3, 593280, Note_on_c, 0, 53, 81
3, 593280, Note_on_c, 0, 57, 81
3, 593280, Note_on_c, 0, 47, 44
3, 593280, Note_on_c, 0, 50, 44
3, 594720, Note_on_c, 0, 50, 0
3, 594720, Note_on_c, 0, 53, 0
3, 594720, Note_on_c, 0, 57, 0
3, 594720, Note_on_c, 0, 47, 0
3, 594720, Note_on_c, 0, 56, 56
3, 594720, Note_on_c, 0, 52, 48
3, 595080, Note_on_c, 0, 56, 0
3, 595080, Note_on_c, 0, 56, 58
3, 595080, Note_on_c, 0, 62, 58
3, 595080, Note_on_c, 0, 64, 58
3, 595080, Note_on_c, 0, 40, 55
3, 595259, Note_on_c, 0, 64, 0
3, 595259, Note_on_c, 0, 62, 0
3, 595259, Note_on_c, 0, 56, 0
3, 595260, Note_on_c, 0, 40, 0
3, 595260, Note_on_c, 0, 40, 61
3, 595440, Note_on_c, 0, 40, 0
3, 595440, Note_on_c, 0, 56, 50
3, 595440, Note_on_c, 0, 62, 50
3, 595440, Note_on_c, 0, 64, 50
3, 595440, Note_on_c, 0, 40, 56
3, 595619, Note_on_c, 0, 64, 0
3, 595619, Note_on_c, 0, 62, 0
3, 595619, Note_on_c, 0, 56, 0
3, 595800, Note_on_c, 0, 40, 0
3, 595800, Note_on_c, 0, 56, 44
3, 595800, Note_on_c, 0, 61, 44
3, 595800, Note_on_c, 0, 64, 44
3, 595800, Note_on_c, 0, 40, 57
3, 595979, Note_on_c, 0, 64, 0
3, 595979, Note_on_c, 0, 61, 0
3, 595979, Note_on_c, 0, 56, 0
3, 596160, Note_on_c, 0, 40, 0
3, 596160, Note_on_c, 0, 56, 46
3, 596160, Note_on_c, 0, 60, 46
3, 596160, Note_on_c, 0, 64, 46
3, 596160, Note_on_c, 0, 40, 61
3, 596339, Note_on_c, 0, 64, 0
3, 596339, Note_on_c, 0, 60, 0
3, 596339, Note_on_c, 0, 56, 0
3, 596520, Note_on_c, 0, 59, 49
3, 596520, Note_on_c, 0, 62, 49
3, 596520, Note_on_c, 0, 64, 49
3, 596609, Note_on_c, 0, 64, 0
3, 596609, Note_on_c, 0, 59, 0
3, 596609, Note_on_c, 0, 62, 0
3, 596700, Note_on_c, 0, 59, 45
3, 596700, Note_on_c, 0, 62, 45
3, 596700, Note_on_c, 0, 64, 45
3, 596789, Note_on_c, 0, 64, 0
3, 596789, Note_on_c, 0, 59, 0
3, 596789, Note_on_c, 0, 62, 0
3, 596880, Note_on_c, 0, 58, 42
3, 596880, Note_on_c, 0, 62, 42
3, 596880, Note_on_c, 0, 64, 42
3, 597059, Note_on_c, 0, 64, 0
3, 597059, Note_on_c, 0, 58, 0
3, 597059, Note_on_c, 0, 62, 0
3, 597240, Note_on_c, 0, 57, 44
3, 597240, Note_on_c, 0, 62, 44
3, 597240, Note_on_c, 0, 64, 44
3, 597419, Note_on_c, 0, 64, 0
3, 597419, Note_on_c, 0, 57, 0
3, 597419, Note_on_c, 0, 62, 0
3, 597600, Note_on_c, 0, 56, 46
3, 597600, Note_on_c, 0, 62, 46
3, 597600, Note_on_c, 0, 64, 46
3, 597779, Note_on_c, 0, 64, 0
3, 597779, Note_on_c, 0, 56, 0
3, 597779, Note_on_c, 0, 62, 0
3, 597960, Note_on_c, 0, 40, 0
3, 597960, Note_on_c, 0, 56, 48
3, 597960, Note_on_c, 0, 62, 48
3, 597960, Note_on_c, 0, 64, 48
3, 597960, Note_on_c, 0, 40, 55
3, 598049, Note_on_c, 0, 40, 0
3, 598140, Note_on_c, 0, 40, 59
3, 598229, Note_on_c, 0, 40, 0
3, 598320, Note_on_c, 0, 64, 0
3, 598320, Note_on_c, 0, 62, 0
3, 598320, Note_on_c, 0, 56, 0
3, 598320, Note_on_c, 0, 56, 46
3, 598320, Note_on_c, 0, 62, 46
3, 598320, Note_on_c, 0, 64, 46
3, 598320, Note_on_c, 0, 40, 54
3, 598499, Note_on_c, 0, 40, 0
3, 598680, Note_on_c, 0, 62, 0
3, 598680, Note_on_c, 0, 64, 0
3, 598680, Note_on_c, 0, 56, 0
3, 598680, Note_on_c, 0, 56, 43
3, 598680, Note_on_c, 0, 61, 43
3, 598680, Note_on_c, 0, 64, 43
3, 598680, Note_on_c, 0, 40, 54
3, 598859, Note_on_c, 0, 40, 0
3, 599040, Note_on_c, 0, 61, 0
3, 599040, Note_on_c, 0, 64, 0
3, 599040, Note_on_c, 0, 56, 0
3, 599040, Note_on_c, 0, 56, 50
3, 599040, Note_on_c, 0, 60, 50
3, 599040, Note_on_c, 0, 64, 50
3, 599040, Note_on_c, 0, 40, 54
3, 599219, Note_on_c, 0, 64, 0
3, 599219, Note_on_c, 0, 60, 0
3, 599219, Note_on_c, 0, 56, 0
3, 599400, Note_on_c, 0, 59, 47
3, 599400, Note_on_c, 0, 62, 47
3, 599400, Note_on_c, 0, 64, 47
3, 599489, Note_on_c, 0, 64, 0
3, 599489, Note_on_c, 0, 59, 0
3, 599489, Note_on_c, 0, 62, 0
3, 599580, Note_on_c, 0, 59, 43
3, 599580, Note_on_c, 0, 62, 43
3, 599580, Note_on_c, 0, 64, 43
3, 599669, Note_on_c, 0, 64, 0
3, 599669, Note_on_c, 0, 59, 0
3, 599669, Note_on_c, 0, 62, 0
3, 599760, Note_on_c, 0, 58, 43
3, 599760, Note_on_c, 0, 62, 43
3, 599760, Note_on_c, 0, 64, 43
3, 599939, Note_on_c, 0, 64, 0
3, 599939, Note_on_c, 0, 58, 0
3, 599939, Note_on_c, 0, 62, 0
3, 600120, Note_on_c, 0, 57, 45
3, 600120, Note_on_c, 0, 60, 45
3, 600120, Note_on_c, 0, 65, 45
3, 600299, Note_on_c, 0, 65, 0
3, 600299, Note_on_c, 0, 57, 0
3, 600299, Note_on_c, 0, 60, 0
3, 600480, Note_on_c, 0, 52, 0
3, 600480, Note_on_c, 0, 58, 44
3, 600480, Note_on_c, 0, 62, 44
3, 600659, Note_on_c, 0, 62, 0
3, 600659, Note_on_c, 0, 58, 0
3, 600840, Note_on_c, 0, 58, 47
3, 600840, Note_on_c, 0, 62, 47
3, 600840, Note_on_c, 0, 65, 47
3, 600840, Note_on_c, 0, 50, 40
3, 600929, Note_on_c, 0, 50, 0
3, 601019, Note_on_c, 0, 62, 0
3, 601019, Note_on_c, 0, 65, 0
3, 601019, Note_on_c, 0, 58, 0
3, 601020, Note_on_c, 0, 50, 40
3, 601109, Note_on_c, 0, 50, 0
3, 601200, Note_on_c, 0, 58, 46
3, 601200, Note_on_c, 0, 62, 46
3, 601200, Note_on_c, 0, 65, 46
3, 601200, Note_on_c, 0, 50, 47
3, 601379, Note_on_c, 0, 50, 0
3, 601379, Note_on_c, 0, 62, 0
3, 601379, Note_on_c, 0, 65, 0
3, 601379, Note_on_c, 0, 58, 0
3, 601560, Note_on_c, 0, 57, 49
3, 601560, Note_on_c, 0, 62, 49
3, 601560, Note_on_c, 0, 65, 49
3, 601560, Note_on_c, 0, 50, 45
3, 601739, Note_on_c, 0, 50, 0
3, 601739, Note_on_c, 0, 62, 0
3, 601739, Note_on_c, 0, 65, 0
3, 601739, Note_on_c, 0, 57, 0
3, 601920, Note_on_c, 0, 56, 46
3, 601920, Note_on_c, 0, 62, 46
3, 601920, Note_on_c, 0, 65, 46
3, 601920, Note_on_c, 0, 50, 48
3, 602099, Note_on_c, 0, 50, 0
3, 602099, Note_on_c, 0, 62, 0
3, 602099, Note_on_c, 0, 65, 0
3, 602099, Note_on_c, 0, 56, 0
3, 602280, Note_on_c, 0, 57, 42
3, 602280, Note_on_c, 0, 62, 42
3, 602280, Note_on_c, 0, 65, 42
3, 602369, Note_on_c, 0, 65, 0
3, 602369, Note_on_c, 0, 62, 0
3, 602369, Note_on_c, 0, 57, 0
3, 602460, Note_on_c, 0, 57, 43
3, 602460, Note_on_c, 0, 62, 43
3, 602460, Note_on_c, 0, 65, 43
3, 602549, Note_on_c, 0, 65, 0
3, 602549, Note_on_c, 0, 62, 0
3, 602549, Note_on_c, 0, 57, 0
3, 602640, Note_on_c, 0, 58, 41
3, 602640, Note_on_c, 0, 62, 41
3, 602640, Note_on_c, 0, 65, 41
3, 602819, Note_on_c, 0, 65, 0
3, 602819, Note_on_c, 0, 62, 0
3, 602819, Note_on_c, 0, 58, 0
3, 603000, Note_on_c, 0, 59, 45
3, 603000, Note_on_c, 0, 62, 45
3, 603000, Note_on_c, 0, 64, 45
3, 603179, Note_on_c, 0, 64, 0
3, 603179, Note_on_c, 0, 62, 0
3, 603179, Note_on_c, 0, 59, 0
3, 603360, Note_on_c, 0, 52, 43
3, 603720, Note_on_c, 0, 40, 0
3, 603720, Note_on_c, 0, 57, 43
3, 603720, Note_on_c, 0, 60, 43
3, 603720, Note_on_c, 0, 64, 43
3, 603720, Note_on_c, 0, 40, 52
3, 603809, Note_on_c, 0, 40, 0
3, 603899, Note_on_c, 0, 60, 0
3, 603899, Note_on_c, 0, 64, 0
3, 603899, Note_on_c, 0, 57, 0
3, 603900, Note_on_c, 0, 40, 52
3, 603989, Note_on_c, 0, 40, 0
3, 604080, Note_on_c, 0, 57, 43
3, 604080, Note_on_c, 0, 60, 43
3, 604080, Note_on_c, 0, 64, 43
3, 604080, Note_on_c, 0, 40, 51
3, 604259, Note_on_c, 0, 40, 0
3, 604259, Note_on_c, 0, 60, 0
3, 604259, Note_on_c, 0, 64, 0
3, 604259, Note_on_c, 0, 57, 0
3, 604440, Note_on_c, 0, 55, 50
3, 604440, Note_on_c, 0, 60, 50
3, 604440, Note_on_c, 0, 64, 50
3, 604440, Note_on_c, 0, 40, 56
3, 604619, Note_on_c, 0, 40, 0
3, 604619, Note_on_c, 0, 60, 0
3, 604619, Note_on_c, 0, 64, 0
3, 604619, Note_on_c, 0, 55, 0
3, 604800, Note_on_c, 0, 54, 46
3, 604800, Note_on_c, 0, 60, 46
3, 604800, Note_on_c, 0, 64, 46
3, 604800, Note_on_c, 0, 40, 57
3, 604979, Note_on_c, 0, 64, 0
3, 604979, Note_on_c, 0, 60, 0
3, 604979, Note_on_c, 0, 54, 0
3, 605160, Note_on_c, 0, 55, 46
3, 605160, Note_on_c, 0, 60, 46
3, 605160, Note_on_c, 0, 64, 46
3, 605249, Note_on_c, 0, 64, 0
3, 605249, Note_on_c, 0, 55, 0
3, 605249, Note_on_c, 0, 60, 0
3, 605340, Note_on_c, 0, 55, 47
3, 605340, Note_on_c, 0, 60, 47
3, 605340, Note_on_c, 0, 64, 47
3, 605429, Note_on_c, 0, 64, 0
3, 605429, Note_on_c, 0, 55, 0
3, 605429, Note_on_c, 0, 60, 0
3, 605520, Note_on_c, 0, 56, 46
3, 605520, Note_on_c, 0, 60, 46
3, 605520, Note_on_c, 0, 64, 46
3, 605699, Note_on_c, 0, 64, 0
3, 605699, Note_on_c, 0, 56, 0
3, 605699, Note_on_c, 0, 60, 0
3, 605880, Note_on_c, 0, 57, 40
3, 605880, Note_on_c, 0, 60, 40
3, 605880, Note_on_c, 0, 62, 40
3, 606059, Note_on_c, 0, 62, 0
3, 606059, Note_on_c, 0, 57, 0
3, 606059, Note_on_c, 0, 60, 0
3, 606240, Note_on_c, 0, 52, 0
3, 606600, Note_on_c, 0, 55, 43
3, 606600, Note_on_c, 0, 58, 43
3, 606600, Note_on_c, 0, 62, 43
3, 606600, Note_on_c, 0, 50, 36
3, 606689, Note_on_c, 0, 50, 0
3, 606689, Note_on_c, 0, 58, 0
3, 606689, Note_on_c, 0, 62, 0
3, 606689, Note_on_c, 0, 55, 0
3, 606780, Note_on_c, 0, 55, 42
3, 606780, Note_on_c, 0, 58, 42
3, 606780, Note_on_c, 0, 62, 42
3, 606780, Note_on_c, 0, 50, 46
3, 606869, Note_on_c, 0, 50, 0
3, 606869, Note_on_c, 0, 58, 0
3, 606869, Note_on_c, 0, 62, 0
3, 606869, Note_on_c, 0, 55, 0
3, 606960, Note_on_c, 0, 55, 40
3, 606960, Note_on_c, 0, 58, 40
3, 606960, Note_on_c, 0, 62, 40
3, 606960, Note_on_c, 0, 50, 45
3, 607139, Note_on_c, 0, 50, 0
3, 607139, Note_on_c, 0, 58, 0
3, 607139, Note_on_c, 0, 62, 0
3, 607139, Note_on_c, 0, 55, 0
3, 607320, Note_on_c, 0, 55, 45
3, 607320, Note_on_c, 0, 58, 45
3, 607320, Note_on_c, 0, 60, 45
3, 607320, Note_on_c, 0, 52, 43
3, 607499, Note_on_c, 0, 52, 0
3, 607499, Note_on_c, 0, 58, 0
3, 607499, Note_on_c, 0, 60, 0
3, 607499, Note_on_c, 0, 55, 0
3, 608040, Note_on_c, 0, 53, 40
3, 608040, Note_on_c, 0, 57, 40
3, 608040, Note_on_c, 0, 60, 40
3, 608040, Note_on_c, 0, 45, 38
3, 608129, Note_on_c, 0, 45, 0
3, 608129, Note_on_c, 0, 57, 0
3, 608129, Note_on_c, 0, 60, 0
3, 608129, Note_on_c, 0, 53, 0
3, 608220, Note_on_c, 0, 53, 45
3, 608220, Note_on_c, 0, 57, 45
3, 608220, Note_on_c, 0, 60, 45
3, 608220, Note_on_c, 0, 45, 44
3, 608309, Note_on_c, 0, 45, 0
3, 608309, Note_on_c, 0, 57, 0
3, 608309, Note_on_c, 0, 60, 0
3, 608309, Note_on_c, 0, 53, 0
3, 608400, Note_on_c, 0, 53, 46
3, 608400, Note_on_c, 0, 57, 46
3, 608400, Note_on_c, 0, 60, 46
3, 608400, Note_on_c, 0, 45, 42
3, 608579, Note_on_c, 0, 45, 0
3, 608579, Note_on_c, 0, 57, 0
3, 608579, Note_on_c, 0, 60, 0
3, 608579, Note_on_c, 0, 53, 0
3, 608760, Note_on_c, 0, 53, 47
3, 608760, Note_on_c, 0, 57, 47
3, 608760, Note_on_c, 0, 59, 47
3, 608760, Note_on_c, 0, 50, 49
3, 608939, Note_on_c, 0, 50, 0
3, 608939, Note_on_c, 0, 57, 0
3, 608939, Note_on_c, 0, 59, 0
3, 608939, Note_on_c, 0, 53, 0
3, 609120, Note_on_c, 0, 40, 0
3, 609120, Note_on_c, 0, 40, 58
3, 609480, Note_on_c, 0, 59, 39
3, 609480, Note_on_c, 0, 62, 39
3, 609480, Note_on_c, 0, 65, 39
3, 609480, Note_on_c, 0, 52, 42
3, 609569, Note_on_c, 0, 52, 0
3, 609569, Note_on_c, 0, 62, 0
3, 609569, Note_on_c, 0, 65, 0
3, 609569, Note_on_c, 0, 59, 0
3, 609660, Note_on_c, 0, 59, 44
3, 609660, Note_on_c, 0, 62, 44
3, 609660, Note_on_c, 0, 65, 44
3, 609660, Note_on_c, 0, 52, 40
3, 609749, Note_on_c, 0, 52, 0
3, 609749, Note_on_c, 0, 62, 0
3, 609749, Note_on_c, 0, 65, 0
3, 609749, Note_on_c, 0, 59, 0
3, 609840, Note_on_c, 0, 59, 42
3, 609840, Note_on_c, 0, 62, 42
3, 609840, Note_on_c, 0, 65, 42
3, 609840, Note_on_c, 0, 52, 44
3, 610019, Note_on_c, 0, 65, 0
3, 610019, Note_on_c, 0, 62, 0
3, 610019, Note_on_c, 0, 59, 0
3, 610200, Note_on_c, 0, 40, 0
3, 610200, Note_on_c, 0, 61, 43
3, 610200, Note_on_c, 0, 64, 43
3, 610200, Note_on_c, 0, 40, 61
3, 610289, Note_on_c, 0, 40, 0
3, 610379, Note_on_c, 0, 64, 0
3, 610379, Note_on_c, 0, 61, 0
3, 610380, Note_on_c, 0, 40, 53
3, 610469, Note_on_c, 0, 40, 0
3, 610560, Note_on_c, 0, 60, 44
3, 610560, Note_on_c, 0, 63, 44
3, 610560, Note_on_c, 0, 40, 55
3, 610739, Note_on_c, 0, 63, 0
3, 610739, Note_on_c, 0, 60, 0
3, 610920, Note_on_c, 0, 59, 46
3, 610920, Note_on_c, 0, 62, 46
3, 611009, Note_on_c, 0, 62, 0
3, 611009, Note_on_c, 0, 59, 0
3, 611100, Note_on_c, 0, 59, 45
3, 611100, Note_on_c, 0, 62, 45
3, 611189, Note_on_c, 0, 62, 0
3, 611189, Note_on_c, 0, 59, 0
3, 611280, Note_on_c, 0, 58, 45
3, 611280, Note_on_c, 0, 61, 45
3, 611459, Note_on_c, 0, 61, 0
3, 611459, Note_on_c, 0, 58, 0
3, 611640, Note_on_c, 0, 65, 44
3, 611640, Note_on_c, 0, 57, 1
3, 611640, Note_on_c, 0, 60, 1
3, 611760, Note_on_c, 0, 65, 0
3, 611760, Note_on_c, 0, 62, 42
3, 611879, Note_on_c, 0, 62, 0
3, 611879, Note_on_c, 0, 65, 47
3, 612000, Note_on_c, 0, 65, 0
3, 612000, Note_on_c, 0, 57, 0
3, 612000, Note_on_c, 0, 60, 0
3, 612000, Note_on_c, 0, 52, 0
3, 612000, Note_on_c, 0, 56, 43
3, 612000, Note_on_c, 0, 59, 43
3, 612179, Note_on_c, 0, 59, 0
3, 612179, Note_on_c, 0, 56, 0
3, 612360, Note_on_c, 0, 59, 50
3, 612360, Note_on_c, 0, 62, 50
3, 612360, Note_on_c, 0, 65, 50
3, 612360, Note_on_c, 0, 52, 42
3, 612449, Note_on_c, 0, 52, 0
3, 612449, Note_on_c, 0, 62, 0
3, 612449, Note_on_c, 0, 65, 0
3, 612449, Note_on_c, 0, 59, 0
3, 612540, Note_on_c, 0, 59, 48
3, 612540, Note_on_c, 0, 62, 48
3, 612540, Note_on_c, 0, 65, 48
3, 612540, Note_on_c, 0, 52, 43
3, 612629, Note_on_c, 0, 52, 0
3, 612629, Note_on_c, 0, 62, 0
3, 612629, Note_on_c, 0, 65, 0
3, 612629, Note_on_c, 0, 59, 0
3, 612720, Note_on_c, 0, 59, 45
3, 612720, Note_on_c, 0, 62, 45
3, 612720, Note_on_c, 0, 65, 45
3, 612720, Note_on_c, 0, 52, 46
3, 612899, Note_on_c, 0, 65, 0
3, 612899, Note_on_c, 0, 62, 0
3, 612899, Note_on_c, 0, 59, 0
3, 613080, Note_on_c, 0, 40, 0
3, 613080, Note_on_c, 0, 61, 42
3, 613080, Note_on_c, 0, 64, 42
3, 613080, Note_on_c, 0, 40, 51
3, 613169, Note_on_c, 0, 40, 0
3, 613259, Note_on_c, 0, 64, 0
3, 613259, Note_on_c, 0, 61, 0
3, 613260, Note_on_c, 0, 40, 56
3, 613349, Note_on_c, 0, 40, 0
3, 613440, Note_on_c, 0, 60, 47
3, 613440, Note_on_c, 0, 63, 47
3, 613440, Note_on_c, 0, 40, 53
3, 613619, Note_on_c, 0, 63, 0
3, 613619, Note_on_c, 0, 60, 0
3, 613800, Note_on_c, 0, 59, 41
3, 613800, Note_on_c, 0, 62, 41
3, 613889, Note_on_c, 0, 62, 0
3, 613889, Note_on_c, 0, 59, 0
3, 613980, Note_on_c, 0, 59, 43
3, 613980, Note_on_c, 0, 62, 43
3, 614069, Note_on_c, 0, 62, 0
3, 614069, Note_on_c, 0, 59, 0
3, 614160, Note_on_c, 0, 58, 41
3, 614160, Note_on_c, 0, 61, 41
3, 614339, Note_on_c, 0, 61, 0
3, 614339, Note_on_c, 0, 58, 0
3, 614520, Note_on_c, 0, 57, 45
3, 614520, Note_on_c, 0, 60, 45
3, 614699, Note_on_c, 0, 60, 0
3, 614699, Note_on_c, 0, 57, 0
3, 614880, Note_on_c, 0, 56, 48
3, 614880, Note_on_c, 0, 59, 48
3, 615059, Note_on_c, 0, 59, 0
3, 615059, Note_on_c, 0, 56, 0
3, 615240, Note_on_c, 0, 53, 48
3, 615240, Note_on_c, 0, 56, 48
3, 615240, Note_on_c, 0, 62, 48
3, 615329, Note_on_c, 0, 62, 0
3, 615329, Note_on_c, 0, 53, 0
3, 615329, Note_on_c, 0, 56, 0
3, 615420, Note_on_c, 0, 62, 41
3, 615509, Note_on_c, 0, 62, 0
3, 615600, Note_on_c, 0, 53, 46
3, 615600, Note_on_c, 0, 56, 46
3, 615600, Note_on_c, 0, 62, 46
3, 615779, Note_on_c, 0, 62, 0
3, 615779, Note_on_c, 0, 53, 0
3, 615779, Note_on_c, 0, 56, 0
3, 615960, Note_on_c, 0, 40, 0
3, 615960, Note_on_c, 0, 52, 40
3, 615960, Note_on_c, 0, 56, 40
3, 615960, Note_on_c, 0, 61, 40
3, 615960, Note_on_c, 0, 40, 51
3, 616049, Note_on_c, 0, 40, 0
3, 616139, Note_on_c, 0, 56, 0
3, 616139, Note_on_c, 0, 61, 0
3, 616139, Note_on_c, 0, 52, 0
3, 616140, Note_on_c, 0, 40, 55
3, 616229, Note_on_c, 0, 40, 0
3, 616320, Note_on_c, 0, 52, 0
3, 616320, Note_on_c, 0, 51, 44
3, 616320, Note_on_c, 0, 56, 44
3, 616320, Note_on_c, 0, 60, 44
3, 616320, Note_on_c, 0, 40, 54
3, 616499, Note_on_c, 0, 60, 0
3, 616499, Note_on_c, 0, 51, 0
3, 616499, Note_on_c, 0, 56, 0
3, 616680, Note_on_c, 0, 50, 45
3, 616680, Note_on_c, 0, 53, 45
3, 616680, Note_on_c, 0, 59, 45
3, 616769, Note_on_c, 0, 59, 0
3, 616769, Note_on_c, 0, 53, 0
3, 616769, Note_on_c, 0, 50, 0
3, 616860, Note_on_c, 0, 50, 43
3, 616860, Note_on_c, 0, 53, 43
3, 616860, Note_on_c, 0, 59, 43
3, 616949, Note_on_c, 0, 59, 0
3, 616949, Note_on_c, 0, 53, 0
3, 616949, Note_on_c, 0, 50, 0
3, 617040, Note_on_c, 0, 49, 41
3, 617040, Note_on_c, 0, 53, 41
3, 617040, Note_on_c, 0, 58, 41
3, 617219, Note_on_c, 0, 58, 0
3, 617219, Note_on_c, 0, 53, 0
3, 617219, Note_on_c, 0, 49, 0
3, 617400, Note_on_c, 0, 62, 54
3, 617400, Note_on_c, 0, 53, 3
3, 617400, Note_on_c, 0, 57, 3
3, 617400, Note_on_c, 0, 48, 42
3, 617520, Note_on_c, 0, 62, 0
3, 617520, Note_on_c, 0, 58, 40
3, 617579, Note_on_c, 0, 48, 0
3, 617639, Note_on_c, 0, 58, 0
3, 617639, Note_on_c, 0, 62, 50
3, 617760, Note_on_c, 0, 62, 0
3, 617760, Note_on_c, 0, 57, 0
3, 617760, Note_on_c, 0, 53, 0
3, 617760, Note_on_c, 0, 56, 44
3, 617760, Note_on_c, 0, 50, 4
3, 617760, Note_on_c, 0, 47, 41
3, 617939, Note_on_c, 0, 47, 0
3, 618120, Note_on_c, 0, 50, 0
3, 618120, Note_on_c, 0, 53, 9
3, 618120, Note_on_c, 0, 62, 9
3, 618299, Note_on_c, 0, 62, 0
3, 618299, Note_on_c, 0, 53, 0
3, 618480, Note_on_c, 0, 53, 7
3, 618480, Note_on_c, 0, 62, 7
3, 618659, Note_on_c, 0, 62, 0
3, 618659, Note_on_c, 0, 53, 0
3, 618840, Note_on_c, 0, 40, 0
3, 618840, Note_on_c, 0, 52, 1
3, 618840, Note_on_c, 0, 61, 1
3, 618840, Note_on_c, 0, 40, 51
3, 618929, Note_on_c, 0, 40, 0
3, 619019, Note_on_c, 0, 61, 0
3, 619019, Note_on_c, 0, 52, 0
3, 619020, Note_on_c, 0, 40, 59
3, 619109, Note_on_c, 0, 40, 0
3, 619200, Note_on_c, 0, 56, 0
3, 619200, Note_on_c, 0, 51, 48
3, 619200, Note_on_c, 0, 56, 48
3, 619200, Note_on_c, 0, 60, 48
3, 619200, Note_on_c, 0, 40, 57
3, 619379, Note_on_c, 0, 60, 0
3, 619379, Note_on_c, 0, 51, 0
3, 619379, Note_on_c, 0, 56, 0
3, 619560, Note_on_c, 0, 50, 41
3, 619560, Note_on_c, 0, 53, 41
3, 619560, Note_on_c, 0, 59, 41
3, 619649, Note_on_c, 0, 59, 0
3, 619649, Note_on_c, 0, 53, 0
3, 619649, Note_on_c, 0, 50, 0
3, 619740, Note_on_c, 0, 50, 42
3, 619740, Note_on_c, 0, 53, 42
3, 619740, Note_on_c, 0, 59, 42
3, 619829, Note_on_c, 0, 59, 0
3, 619829, Note_on_c, 0, 53, 0
3, 619829, Note_on_c, 0, 50, 0
3, 619920, Note_on_c, 0, 49, 43
3, 619920, Note_on_c, 0, 53, 43
3, 619920, Note_on_c, 0, 58, 43
3, 620099, Note_on_c, 0, 58, 0
3, 620099, Note_on_c, 0, 53, 0
3, 620099, Note_on_c, 0, 49, 0
3, 620280, Note_on_c, 0, 48, 44
3, 620280, Note_on_c, 0, 53, 44
3, 620280, Note_on_c, 0, 57, 44
3, 620459, Note_on_c, 0, 57, 0
3, 620459, Note_on_c, 0, 53, 0
3, 620459, Note_on_c, 0, 48, 0
3, 620640, Note_on_c, 0, 47, 44
3, 620640, Note_on_c, 0, 50, 44
3, 620640, Note_on_c, 0, 56, 44
3, 620819, Note_on_c, 0, 56, 0
3, 620819, Note_on_c, 0, 50, 0
3, 620819, Note_on_c, 0, 47, 0
3, 621000, Note_on_c, 0, 56, 55
3, 621000, Note_on_c, 0, 62, 55
3, 621000, Note_on_c, 0, 53, 45
3, 621089, Note_on_c, 0, 62, 0
3, 621089, Note_on_c, 0, 56, 0
3, 621120, Note_on_c, 0, 53, 0
3, 621120, Note_on_c, 0, 50, 40
3, 621180, Note_on_c, 0, 56, 49
3, 621180, Note_on_c, 0, 62, 49
3, 621239, Note_on_c, 0, 50, 0
3, 621239, Note_on_c, 0, 53, 43
3, 621269, Note_on_c, 0, 62, 0
3, 621269, Note_on_c, 0, 56, 0
3, 621360, Note_on_c, 0, 53, 0
3, 621360, Note_on_c, 0, 53, 46
3, 621360, Note_on_c, 0, 56, 46
3, 621360, Note_on_c, 0, 62, 46
3, 621360, Note_on_c, 0, 46, 39
3, 621539, Note_on_c, 0, 62, 0
3, 621539, Note_on_c, 0, 56, 0
3, 621539, Note_on_c, 0, 53, 0
3, 621720, Note_on_c, 0, 53, 40
3, 621720, Note_on_c, 0, 56, 40
3, 621720, Note_on_c, 0, 61, 40
3, 621899, Note_on_c, 0, 61, 0
3, 621899, Note_on_c, 0, 53, 0
3, 621899, Note_on_c, 0, 56, 0
3, 622080, Note_on_c, 0, 53, 46
3, 622080, Note_on_c, 0, 56, 46
3, 622080, Note_on_c, 0, 62, 46
3, 622440, Note_on_c, 0, 62, 0
3, 622440, Note_on_c, 0, 53, 0
3, 622440, Note_on_c, 0, 56, 0
3, 622440, Note_on_c, 0, 46, 0
3, 622440, Note_on_c, 0, 56, 55
3, 622440, Note_on_c, 0, 62, 55
3, 622440, Note_on_c, 0, 65, 55
3, 622440, Note_on_c, 0, 47, 46
3, 622620, Note_on_c, 0, 65, 0
3, 622620, Note_on_c, 0, 62, 0
3, 622620, Note_on_c, 0, 56, 0
3, 622620, Note_on_c, 0, 56, 48
3, 622620, Note_on_c, 0, 62, 48
3, 622620, Note_on_c, 0, 65, 48
3, 622800, Note_on_c, 0, 65, 0
3, 622800, Note_on_c, 0, 56, 0
3, 622800, Note_on_c, 0, 62, 0
3, 622800, Note_on_c, 0, 56, 43
3, 622800, Note_on_c, 0, 62, 43
3, 622800, Note_on_c, 0, 64, 43
3, 623160, Note_on_c, 0, 64, 0
3, 623160, Note_on_c, 0, 56, 0
3, 623160, Note_on_c, 0, 62, 0
3, 623160, Note_on_c, 0, 47, 0
3, 623160, Note_on_c, 0, 56, 40
3, 623160, Note_on_c, 0, 59, 40
3, 623160, Note_on_c, 0, 63, 40
3, 623520, Note_on_c, 0, 63, 0
3, 623520, Note_on_c, 0, 59, 0
3, 623520, Note_on_c, 0, 56, 0
3, 623520, Note_on_c, 0, 56, 42
3, 623520, Note_on_c, 0, 59, 42
3, 623520, Note_on_c, 0, 62, 42
3, 623880, Note_on_c, 0, 62, 0
3, 623880, Note_on_c, 0, 59, 0
3, 623880, Note_on_c, 0, 56, 0
3, 623880, Note_on_c, 0, 56, 46
3, 623880, Note_on_c, 0, 62, 46
3, 623880, Note_on_c, 0, 53, 44
3, 624000, Note_on_c, 0, 53, 0
3, 624000, Note_on_c, 0, 50, 44
3, 624060, Note_on_c, 0, 62, 0
3, 624060, Note_on_c, 0, 56, 0
3, 624060, Note_on_c, 0, 56, 43
3, 624060, Note_on_c, 0, 62, 43
3, 624119, Note_on_c, 0, 50, 0
3, 624119, Note_on_c, 0, 53, 45
3, 624240, Note_on_c, 0, 53, 0
3, 624240, Note_on_c, 0, 62, 0
3, 624240, Note_on_c, 0, 56, 0
3, 624240, Note_on_c, 0, 53, 45
3, 624240, Note_on_c, 0, 56, 45
3, 624240, Note_on_c, 0, 62, 45
3, 624240, Note_on_c, 0, 46, 45
3, 624600, Note_on_c, 0, 62, 0
3, 624600, Note_on_c, 0, 56, 0
3, 624600, Note_on_c, 0, 53, 0
3, 624600, Note_on_c, 0, 53, 43
3, 624600, Note_on_c, 0, 56, 43
3, 624600, Note_on_c, 0, 61, 43
3, 624960, Note_on_c, 0, 61, 0
3, 624960, Note_on_c, 0, 53, 0
3, 624960, Note_on_c, 0, 56, 0
3, 624960, Note_on_c, 0, 53, 47
3, 624960, Note_on_c, 0, 56, 47
3, 624960, Note_on_c, 0, 62, 47
3, 625320, Note_on_c, 0, 62, 0
3, 625320, Note_on_c, 0, 53, 0
3, 625320, Note_on_c, 0, 56, 0
3, 625320, Note_on_c, 0, 46, 0
3, 625320, Note_on_c, 0, 53, 44
3, 625320, Note_on_c, 0, 56, 44
3, 625320, Note_on_c, 0, 62, 44
3, 625320, Note_on_c, 0, 47, 48
3, 625440, Note_on_c, 0, 62, 0
3, 625440, Note_on_c, 0, 56, 0
3, 625440, Note_on_c, 0, 53, 0
3, 625440, Note_on_c, 0, 59, 46
3, 625500, Note_on_c, 0, 53, 50
3, 625559, Note_on_c, 0, 59, 0
3, 625559, Note_on_c, 0, 62, 55
3, 625680, Note_on_c, 0, 62, 0
3, 625680, Note_on_c, 0, 53, 0
3, 625680, Note_on_c, 0, 56, 6
3, 625680, Note_on_c, 0, 52, 54
3, 625859, Note_on_c, 0, 52, 0
3, 626040, Note_on_c, 0, 47, 0
3, 626040, Note_on_c, 0, 59, 42
3, 626040, Note_on_c, 0, 51, 50
3, 626219, Note_on_c, 0, 51, 0
3, 626219, Note_on_c, 0, 59, 0
3, 626400, Note_on_c, 0, 59, 47
3, 626400, Note_on_c, 0, 50, 46
3, 626579, Note_on_c, 0, 50, 0
3, 626579, Note_on_c, 0, 59, 0
3, 626760, Note_on_c, 0, 56, 0
3, 626760, Note_on_c, 0, 56, 45
3, 626760, Note_on_c, 0, 62, 45
3, 626760, Note_on_c, 0, 53, 41
3, 626849, Note_on_c, 0, 62, 0
3, 626849, Note_on_c, 0, 56, 0
3, 626880, Note_on_c, 0, 53, 0
3, 626880, Note_on_c, 0, 50, 45
3, 626940, Note_on_c, 0, 56, 44
3, 626940, Note_on_c, 0, 62, 44
3, 626999, Note_on_c, 0, 50, 0
3, 626999, Note_on_c, 0, 53, 45
3, 627029, Note_on_c, 0, 62, 0
3, 627029, Note_on_c, 0, 56, 0
3, 627120, Note_on_c, 0, 53, 0
3, 627120, Note_on_c, 0, 53, 42
3, 627120, Note_on_c, 0, 56, 42
3, 627120, Note_on_c, 0, 62, 42
3, 627120, Note_on_c, 0, 46, 39
3, 627299, Note_on_c, 0, 62, 0
3, 627299, Note_on_c, 0, 56, 0
3, 627299, Note_on_c, 0, 53, 0
3, 627480, Note_on_c, 0, 46, 0
3, 627480, Note_on_c, 0, 53, 49
3, 627480, Note_on_c, 0, 62, 49
3, 627480, Note_on_c, 0, 65, 49
3, 627480, Note_on_c, 0, 50, 55
3, 627569, Note_on_c, 0, 65, 0
3, 627569, Note_on_c, 0, 62, 0
3, 627569, Note_on_c, 0, 53, 0
3, 627600, Note_on_c, 0, 50, 0
3, 627600, Note_on_c, 0, 47, 42
3, 627660, Note_on_c, 0, 53, 44
3, 627660, Note_on_c, 0, 62, 44
3, 627660, Note_on_c, 0, 65, 44
3, 627719, Note_on_c, 0, 47, 0
3, 627719, Note_on_c, 0, 50, 48
3, 627749, Note_on_c, 0, 62, 0
3, 627749, Note_on_c, 0, 65, 0
3, 627749, Note_on_c, 0, 53, 0
3, 627840, Note_on_c, 0, 50, 0
3, 627840, Note_on_c, 0, 53, 47
3, 627840, Note_on_c, 0, 62, 47
3, 627840, Note_on_c, 0, 65, 47
3, 627840, Note_on_c, 0, 44, 40
3, 628019, Note_on_c, 0, 44, 0
3, 628200, Note_on_c, 0, 62, 0
3, 628200, Note_on_c, 0, 65, 0
3, 628200, Note_on_c, 0, 53, 0
3, 628200, Note_on_c, 0, 56, 48
3, 628200, Note_on_c, 0, 62, 48
3, 628200, Note_on_c, 0, 68, 48
3, 628200, Note_on_c, 0, 47, 44
3, 628320, Note_on_c, 0, 47, 0
3, 628320, Note_on_c, 0, 44, 44
3, 628380, Note_on_c, 0, 62, 0
3, 628380, Note_on_c, 0, 68, 0
3, 628380, Note_on_c, 0, 56, 0
3, 628380, Note_on_c, 0, 56, 41
3, 628380, Note_on_c, 0, 62, 41
3, 628380, Note_on_c, 0, 68, 41
3, 628439, Note_on_c, 0, 44, 0
3, 628439, Note_on_c, 0, 47, 48
3, 628560, Note_on_c, 0, 47, 0
3, 628560, Note_on_c, 0, 68, 0
3, 628560, Note_on_c, 0, 40, 0
3, 628560, Note_on_c, 0, 56, 0
3, 628560, Note_on_c, 0, 62, 0
3, 628560, Note_on_c, 0, 56, 92
3, 628560, Note_on_c, 0, 62, 92
3, 628560, Note_on_c, 0, 68, 92
3, 628560, Note_on_c, 0, 40, 44
3, 628920, Note_on_c, 0, 40, 0
3, 628920, Note_on_c, 0, 56, 0
3, 628920, Note_on_c, 0, 62, 0
3, 628920, Note_on_c, 0, 68, 0
3, 628920, Note_on_c, 0, 52, 85
3, 628920, Note_on_c, 0, 40, 45
3, 629040, Note_on_c, 0, 40, 0
3, 629040, Note_on_c, 0, 52, 0
3, 629040, Note_on_c, 0, 48, 87
3, 629040, Note_on_c, 0, 36, 54
3, 629159, Note_on_c, 0, 36, 0
3, 629159, Note_on_c, 0, 48, 0
3, 629159, Note_on_c, 0, 52, 99
3, 629159, Note_on_c, 0, 40, 62
3, 629280, Note_on_c, 0, 40, 0
3, 629280, Note_on_c, 0, 52, 0
3, 629280, Note_on_c, 0, 33, 89
3, 629280, Note_on_c, 0, 45, 89
3, 629640, Note_on_c, 0, 45, 0
3, 629640, Note_on_c, 0, 33, 0
3, 629640, Note_on_c, 0, 52, 81
3, 629640, Note_on_c, 0, 64, 81
3, 629819, Note_on_c, 0, 64, 0
3, 629819, Note_on_c, 0, 52, 0
3, 630000, Note_on_c, 0, 57, 104
3, 630000, Note_on_c, 0, 69, 104
3, 630179, Note_on_c, 0, 69, 0
3, 630179, Note_on_c, 0, 57, 0
3, 630360, Note_on_c, 0, 55, 82
3, 630360, Note_on_c, 0, 67, 82
3, 630539, Note_on_c, 0, 67, 0
3, 630539, Note_on_c, 0, 55, 0
3, 630720, Note_on_c, 0, 57, 98
3, 630720, Note_on_c, 0, 69, 98
3, 631800, Note_on_c, 0, 69, 0
3, 631800, Note_on_c, 0, 57, 0
3, 631800, Note_on_c, 0, 53, 80
3, 631800, Note_on_c, 0, 65, 80
3, 631979, Note_on_c, 0, 65, 0
3, 631979, Note_on_c, 0, 53, 0
3, 632160, Note_on_c, 0, 55, 100
3, 632160, Note_on_c, 0, 67, 100
3, 633240, Note_on_c, 0, 67, 0
3, 633240, Note_on_c, 0, 55, 0
3, 633240, Note_on_c, 0, 52, 87
3, 633240, Note_on_c, 0, 64, 87
3, 633419, Note_on_c, 0, 64, 0
3, 633419, Note_on_c, 0, 52, 0
3, 633600, Note_on_c, 0, 53, 101
3, 633600, Note_on_c, 0, 65, 101
3, 634680, Note_on_c, 0, 65, 0
3, 634680, Note_on_c, 0, 53, 0
3, 634680, Note_on_c, 0, 50, 84
3, 634680, Note_on_c, 0, 62, 84
3, 634859, Note_on_c, 0, 62, 0
3, 634859, Note_on_c, 0, 50, 0
3, 635040, Note_on_c, 0, 52, 96
3, 635040, Note_on_c, 0, 64, 96
3, 635219, Note_on_c, 0, 64, 0
3, 635219, Note_on_c, 0, 52, 0
3, 635400, Note_on_c, 0, 64, 97
3, 635520, Note_on_c, 0, 64, 0
3, 635520, Note_on_c, 0, 60, 80
3, 635639, Note_on_c, 0, 60, 0
3, 635639, Note_on_c, 0, 64, 96
3, 635760, Note_on_c, 0, 64, 0
3, 635760, Note_on_c, 0, 57, 90
3, 635760, Note_on_c, 0, 64, 90
3, 637920, Note_on_c, 0, 64, 0
3, 637920, Note_on_c, 0, 57, 0
3, 638280, Note_on_c, 0, 52, 69
3, 638400, Note_on_c, 0, 52, 0
3, 638400, Note_on_c, 0, 48, 73
3, 638519, Note_on_c, 0, 48, 0
3, 638519, Note_on_c, 0, 52, 83
3, 638640, Note_on_c, 0, 52, 0
3, 638640, Note_on_c, 0, 64, 66
3, 638640, Note_on_c, 0, 45, 78
3, 638640, Note_on_c, 0, 52, 78
3, 639360, Note_on_c, 0, 64, 0
3, 639360, Note_on_c, 0, 69, 78
3, 639720, Note_on_c, 0, 60, 1
3, 639720, Note_on_c, 0, 64, 1
3, 639900, Note_on_c, 0, 64, 0
3, 639900, Note_on_c, 0, 60, 0
3, 639900, Note_on_c, 0, 60, 1
3, 639900, Note_on_c, 0, 64, 1
3, 640080, Note_on_c, 0, 64, 0
3, 640080, Note_on_c, 0, 69, 0
3, 640080, Note_on_c, 0, 60, 0
3, 640080, Note_on_c, 0, 67, 72
3, 640080, Note_on_c, 0, 60, 1
3, 640080, Note_on_c, 0, 64, 1
3, 640440, Note_on_c, 0, 64, 0
3, 640440, Note_on_c, 0, 60, 0
3, 640440, Note_on_c, 0, 57, 1
3, 640440, Note_on_c, 0, 57, 0
3, 640440, Note_on_c, 0, 60, 1
3, 640440, Note_on_c, 0, 60, 0
3, 640440, Note_on_c, 0, 64, 1
3, 640440, Note_on_c, 0, 64, 0
3, 640800, Note_on_c, 0, 67, 0
3, 640800, Note_on_c, 0, 52, 0
3, 640800, Note_on_c, 0, 45, 0
3, 640800, Note_on_c, 0, 57, 1
3, 640800, Note_on_c, 0, 57, 0
3, 640800, Note_on_c, 0, 60, 1
3, 640800, Note_on_c, 0, 60, 0
3, 640800, Note_on_c, 0, 64, 1
3, 640800, Note_on_c, 0, 64, 0
3, 640800, Note_on_c, 0, 60, 66
3, 640800, Note_on_c, 0, 64, 66
3, 641160, Note_on_c, 0, 64, 0
3, 641160, Note_on_c, 0, 60, 0
3, 641160, Note_on_c, 0, 60, 62
3, 641160, Note_on_c, 0, 64, 62
3, 641160, Note_on_c, 0, 40, 50
3, 641280, Note_on_c, 0, 40, 0
3, 641280, Note_on_c, 0, 36, 50
3, 641340, Note_on_c, 0, 64, 0
3, 641340, Note_on_c, 0, 60, 0
3, 641340, Note_on_c, 0, 60, 61
3, 641340, Note_on_c, 0, 64, 61
3, 641399, Note_on_c, 0, 36, 0
3, 641399, Note_on_c, 0, 40, 58
3, 641520, Note_on_c, 0, 40, 0
3, 641520, Note_on_c, 0, 64, 0
3, 641520, Note_on_c, 0, 60, 0
3, 641520, Note_on_c, 0, 64, 59
3, 641520, Note_on_c, 0, 60, 1
3, 641520, Note_on_c, 0, 60, 0
3, 641520, Note_on_c, 0, 33, 53
3, 641520, Note_on_c, 0, 45, 85
3, 641880, Note_on_c, 0, 33, 0
3, 641880, Note_on_c, 0, 60, 1
3, 641880, Note_on_c, 0, 60, 0
3, 641880, Note_on_c, 0, 48, 63
3, 641880, Note_on_c, 0, 52, 63
3, 642240, Note_on_c, 0, 52, 0
3, 642240, Note_on_c, 0, 48, 0
3, 642240, Note_on_c, 0, 64, 0
3, 642240, Note_on_c, 0, 69, 53
3, 642240, Note_on_c, 0, 48, 63
3, 642240, Note_on_c, 0, 52, 63
3, 642240, Note_on_c, 0, 57, 63
3, 642600, Note_on_c, 0, 57, 0
3, 642600, Note_on_c, 0, 48, 0
3, 642600, Note_on_c, 0, 52, 0
3, 642600, Note_on_c, 0, 48, 58
3, 642600, Note_on_c, 0, 52, 58
3, 642780, Note_on_c, 0, 52, 0
3, 642780, Note_on_c, 0, 48, 0
3, 642780, Note_on_c, 0, 48, 55
3, 642780, Note_on_c, 0, 52, 55
3, 642960, Note_on_c, 0, 52, 0
3, 642960, Note_on_c, 0, 48, 0
3, 642960, Note_on_c, 0, 69, 0
3, 642960, Note_on_c, 0, 67, 48
3, 642960, Note_on_c, 0, 55, 57
3, 643680, Note_on_c, 0, 55, 0
3, 643680, Note_on_c, 0, 67, 0
3, 643680, Note_on_c, 0, 69, 59
3, 643680, Note_on_c, 0, 57, 59
3, 644400, Note_on_c, 0, 57, 0
3, 644400, Note_on_c, 0, 69, 0
3, 644400, Note_on_c, 0, 65, 51
3, 644400, Note_on_c, 0, 53, 51
3, 645120, Note_on_c, 0, 53, 0
3, 645120, Note_on_c, 0, 65, 0
3, 645120, Note_on_c, 0, 67, 55
3, 645120, Note_on_c, 0, 55, 57
3, 645840, Note_on_c, 0, 55, 0
3, 645840, Note_on_c, 0, 67, 0
3, 645840, Note_on_c, 0, 64, 46
3, 645840, Note_on_c, 0, 52, 58
3, 646560, Note_on_c, 0, 52, 0
3, 646560, Note_on_c, 0, 64, 0
3, 646560, Note_on_c, 0, 45, 0
3, 646560, Note_on_c, 0, 57, 57
3, 646560, Note_on_c, 0, 65, 57
3, 646560, Note_on_c, 0, 53, 1
3, 646560, Note_on_c, 0, 60, 1
3, 646560, Note_on_c, 0, 41, 51
3, 646560, Note_on_c, 0, 48, 51
3, 646560, Note_on_c, 0, 33, 68
3, 647640, Note_on_c, 0, 53, 0
3, 647640, Note_on_c, 0, 60, 65
3, 647819, Note_on_c, 0, 60, 0
3, 648000, Note_on_c, 0, 41, 0
3, 648000, Note_on_c, 0, 60, 0
3, 648000, Note_on_c, 0, 53, 53
3, 648179, Note_on_c, 0, 53, 0
3, 649080, Note_on_c, 0, 48, 0
3, 649080, Note_on_c, 0, 48, 61
3, 649259, Note_on_c, 0, 48, 0
3, 649440, Note_on_c, 0, 41, 51
3, 649619, Note_on_c, 0, 41, 0
3, 650520, Note_on_c, 0, 60, 49
3, 650699, Note_on_c, 0, 60, 0
3, 650880, Note_on_c, 0, 53, 51
3, 651059, Note_on_c, 0, 53, 0
3, 651600, Note_on_c, 0, 57, 0
3, 651600, Note_on_c, 0, 65, 0
3, 651600, Note_on_c, 0, 51, 49
3, 651600, Note_on_c, 0, 63, 49
3, 651960, Note_on_c, 0, 60, 50
3, 651960, Note_on_c, 0, 48, 47
3, 652320, Note_on_c, 0, 48, 0
3, 652320, Note_on_c, 0, 63, 0
3, 652320, Note_on_c, 0, 60, 0
3, 652320, Note_on_c, 0, 51, 0
3, 652320, Note_on_c, 0, 52, 55
3, 652320, Note_on_c, 0, 57, 55
3, 652320, Note_on_c, 0, 60, 55
3, 652320, Note_on_c, 0, 64, 55
3, 652320, Note_on_c, 0, 45, 51
3, 652680, Note_on_c, 0, 45, 0
3, 652680, Note_on_c, 0, 52, 0
3, 652680, Note_on_c, 0, 57, 0
3, 652680, Note_on_c, 0, 33, 0
3, 652680, Note_on_c, 0, 64, 0
3, 652680, Note_on_c, 0, 60, 0
3, 652680, Note_on_c, 0, 57, 51
3, 652860, Note_on_c, 0, 57, 0
3, 652860, Note_on_c, 0, 60, 56
3, 653040, Note_on_c, 0, 60, 0
3, 653040, Note_on_c, 0, 47, 49
3, 653219, Note_on_c, 0, 47, 0
3, 653220, Note_on_c, 0, 57, 46
3, 653400, Note_on_c, 0, 57, 0
3, 653400, Note_on_c, 0, 65, 62
3, 653580, Note_on_c, 0, 65, 0
3, 653580, Note_on_c, 0, 62, 51
3, 653760, Note_on_c, 0, 62, 0
3, 653760, Note_on_c, 0, 48, 53
3, 653939, Note_on_c, 0, 48, 0
3, 653940, Note_on_c, 0, 57, 45
3, 654120, Note_on_c, 0, 57, 0
3, 654120, Note_on_c, 0, 67, 68
3, 654120, Note_on_c, 0, 49, 56
3, 654299, Note_on_c, 0, 49, 0
3, 654300, Note_on_c, 0, 67, 0
3, 654300, Note_on_c, 0, 64, 46
3, 654480, Note_on_c, 0, 64, 0
3, 654480, Note_on_c, 0, 50, 53
3, 654659, Note_on_c, 0, 50, 0
3, 654660, Note_on_c, 0, 57, 41
3, 654840, Note_on_c, 0, 57, 0
3, 654840, Note_on_c, 0, 65, 65
3, 655020, Note_on_c, 0, 65, 0
3, 655020, Note_on_c, 0, 59, 49
3, 655200, Note_on_c, 0, 59, 0
3, 655200, Note_on_c, 0, 52, 47
3, 655379, Note_on_c, 0, 52, 0
3, 655380, Note_on_c, 0, 57, 47
3, 655560, Note_on_c, 0, 57, 0
3, 655560, Note_on_c, 0, 64, 65
3, 655740, Note_on_c, 0, 64, 0
3, 655740, Note_on_c, 0, 60, 49
3, 655920, Note_on_c, 0, 60, 0
3, 655920, Note_on_c, 0, 53, 48
3, 656099, Note_on_c, 0, 53, 0
3, 656100, Note_on_c, 0, 60, 48
3, 656280, Note_on_c, 0, 60, 0
3, 656280, Note_on_c, 0, 69, 65
3, 656280, Note_on_c, 0, 52, 52
3, 656460, Note_on_c, 0, 52, 0
3, 656460, Note_on_c, 0, 69, 0
3, 656460, Note_on_c, 0, 64, 49
3, 656460, Note_on_c, 0, 53, 55
3, 656640, Note_on_c, 0, 53, 0
3, 656640, Note_on_c, 0, 64, 0
3, 656640, Note_on_c, 0, 54, 81
3, 656819, Note_on_c, 0, 54, 0
3, 656820, Note_on_c, 0, 64, 71
3, 657000, Note_on_c, 0, 64, 0
3, 657000, Note_on_c, 0, 72, 96
3, 657180, Note_on_c, 0, 72, 0
3, 657180, Note_on_c, 0, 69, 76
3, 657360, Note_on_c, 0, 69, 0
3, 657360, Note_on_c, 0, 55, 69
3, 657539, Note_on_c, 0, 55, 0
3, 657540, Note_on_c, 0, 60, 69
3, 657720, Note_on_c, 0, 60, 0
3, 657720, Note_on_c, 0, 72, 99
3, 657900, Note_on_c, 0, 72, 0
3, 657900, Note_on_c, 0, 64, 67
3, 658080, Note_on_c, 0, 64, 0
3, 658080, Note_on_c, 0, 56, 69
3, 658259, Note_on_c, 0, 56, 0
3, 658260, Note_on_c, 0, 62, 71
3, 658440, Note_on_c, 0, 62, 0
3, 658440, Note_on_c, 0, 71, 97
3, 658620, Note_on_c, 0, 71, 0
3, 658620, Note_on_c, 0, 65, 71
3, 658800, Note_on_c, 0, 65, 0
3, 658800, Note_on_c, 0, 57, 70
3, 658979, Note_on_c, 0, 57, 0
3, 658980, Note_on_c, 0, 60, 69
3, 659160, Note_on_c, 0, 60, 0
3, 659160, Note_on_c, 0, 72, 101
3, 659160, Note_on_c, 0, 56, 74
3, 659340, Note_on_c, 0, 56, 0
3, 659340, Note_on_c, 0, 72, 0
3, 659340, Note_on_c, 0, 64, 62
3, 659340, Note_on_c, 0, 57, 77
3, 659520, Note_on_c, 0, 57, 0
3, 659520, Note_on_c, 0, 64, 0
3, 659520, Note_on_c, 0, 58, 78
3, 659700, Note_on_c, 0, 64, 78
3, 659880, Note_on_c, 0, 64, 0
3, 659880, Note_on_c, 0, 58, 0
3, 659880, Note_on_c, 0, 73, 79
3, 659880, Note_on_c, 0, 57, 80
3, 660060, Note_on_c, 0, 73, 0
3, 660060, Note_on_c, 0, 67, 81
3, 660240, Note_on_c, 0, 67, 0
3, 660240, Note_on_c, 0, 57, 0
3, 660240, Note_on_c, 0, 58, 83
3, 660420, Note_on_c, 0, 64, 83
3, 660600, Note_on_c, 0, 64, 0
3, 660600, Note_on_c, 0, 58, 0
3, 660600, Note_on_c, 0, 74, 84
3, 660600, Note_on_c, 0, 59, 85
3, 660780, Note_on_c, 0, 74, 0
3, 660780, Note_on_c, 0, 68, 85
3, 660960, Note_on_c, 0, 68, 0
3, 660960, Note_on_c, 0, 59, 0
3, 660960, Note_on_c, 0, 60, 87
3, 660960, Note_on_c, 0, 63, 87
3, 661140, Note_on_c, 0, 67, 87
3, 661320, Note_on_c, 0, 67, 0
3, 661320, Note_on_c, 0, 63, 0
3, 661320, Note_on_c, 0, 60, 0
3, 661320, Note_on_c, 0, 75, 88
3, 661320, Note_on_c, 0, 59, 89
3, 661500, Note_on_c, 0, 75, 0
3, 661500, Note_on_c, 0, 69, 89
3, 661680, Note_on_c, 0, 69, 0
3, 661680, Note_on_c, 0, 59, 0
3, 661680, Note_on_c, 0, 60, 91
3, 661860, Note_on_c, 0, 67, 92
3, 662040, Note_on_c, 0, 67, 0
3, 662040, Note_on_c, 0, 60, 0
3, 662040, Note_on_c, 0, 76, 93
3, 662040, Note_on_c, 0, 61, 93
3, 662220, Note_on_c, 0, 76, 0
3, 662220, Note_on_c, 0, 69, 94
3, 662400, Note_on_c, 0, 69, 0
3, 662400, Note_on_c, 0, 61, 0
3, 662400, Note_on_c, 0, 62, 95
3, 662580, Note_on_c, 0, 65, 96
3, 662760, Note_on_c, 0, 65, 0
3, 662760, Note_on_c, 0, 62, 0
3, 662760, Note_on_c, 0, 77, 97
3, 662940, Note_on_c, 0, 77, 0
3, 662940, Note_on_c, 0, 70, 98
3, 663120, Note_on_c, 0, 70, 0
3, 663120, Note_on_c, 0, 63, 99
3, 663300, Note_on_c, 0, 63, 0
3, 663300, Note_on_c, 0, 69, 100
3, 663300, Note_on_c, 0, 64, 101
3, 663480, Note_on_c, 0, 64, 0
3, 663480, Note_on_c, 0, 69, 0
3, 663480, Note_on_c, 0, 75, 102
3, 663480, Note_on_c, 0, 65, 102
3, 663660, Note_on_c, 0, 75, 0
3, 663660, Note_on_c, 0, 70, 103
3, 663840, Note_on_c, 0, 70, 0
3, 663840, Note_on_c, 0, 65, 0
3, 663840, Note_on_c, 0, 69, 117
3, 663840, Note_on_c, 0, 72, 117
3, 663840, Note_on_c, 0, 76, 117
3, 663840, Note_on_c, 0, 64, 99
3, 664200, Note_on_c, 0, 64, 0
3, 664200, Note_on_c, 0, 69, 0
3, 664200, Note_on_c, 0, 72, 0
3, 664200, Note_on_c, 0, 76, 0
3, 664200, Note_on_c, 0, 62, 80
3, 664200, Note_on_c, 0, 64, 80
3, 664200, Note_on_c, 0, 50, 101
3, 664200, Note_on_c, 0, 59, 101
3, 664379, Note_on_c, 0, 59, 0
3, 664379, Note_on_c, 0, 62, 0
3, 664379, Note_on_c, 0, 64, 0
3, 664379, Note_on_c, 0, 50, 0
3, 664560, Note_on_c, 0, 60, 118
3, 664560, Note_on_c, 0, 64, 118
3, 664560, Note_on_c, 0, 69, 118
3, 664560, Note_on_c, 0, 48, 103
3, 664560, Note_on_c, 0, 57, 103
3, 664739, Note_on_c, 0, 57, 0
3, 664739, Note_on_c, 0, 69, 0
3, 664739, Note_on_c, 0, 60, 0
3, 664739, Note_on_c, 0, 64, 0
3, 664739, Note_on_c, 0, 48, 0
3, 664920, Note_on_c, 0, 62, 101
3, 664920, Note_on_c, 0, 64, 101
3, 664920, Note_on_c, 0, 67, 101
3, 664920, Note_on_c, 0, 47, 103
3, 664920, Note_on_c, 0, 55, 103
3, 665099, Note_on_c, 0, 55, 0
3, 665099, Note_on_c, 0, 67, 0
3, 665099, Note_on_c, 0, 62, 0
3, 665099, Note_on_c, 0, 64, 0
3, 665099, Note_on_c, 0, 47, 0
3, 665280, Note_on_c, 0, 60, 107
3, 665280, Note_on_c, 0, 64, 107
3, 665280, Note_on_c, 0, 69, 107
3, 665280, Note_on_c, 0, 45, 109
3, 665280, Note_on_c, 0, 57, 109
3, 665459, Note_on_c, 0, 57, 0
3, 665459, Note_on_c, 0, 45, 0
3, 665640, Note_on_c, 0, 60, 0
3, 665640, Note_on_c, 0, 64, 0
3, 665640, Note_on_c, 0, 69, 0
3, 665640, Note_on_c, 0, 60, 92
3, 665640, Note_on_c, 0, 64, 92
3, 665640, Note_on_c, 0, 48, 105
3, 665640, Note_on_c, 0, 55, 105
3, 665819, Note_on_c, 0, 55, 0
3, 665819, Note_on_c, 0, 48, 0
3, 665820, Note_on_c, 0, 64, 0
3, 665820, Note_on_c, 0, 60, 0
3, 665820, Note_on_c, 0, 65, 114
3, 666000, Note_on_c, 0, 65, 0
3, 666000, Note_on_c, 0, 59, 118
3, 666000, Note_on_c, 0, 62, 118
3, 666000, Note_on_c, 0, 67, 118
3, 666000, Note_on_c, 0, 43, 108
3, 666000, Note_on_c, 0, 55, 108
3, 666360, Note_on_c, 0, 55, 0
3, 666360, Note_on_c, 0, 67, 0
3, 666360, Note_on_c, 0, 59, 0
3, 666360, Note_on_c, 0, 62, 0
3, 666360, Note_on_c, 0, 43, 0
3, 666360, Note_on_c, 0, 58, 93
3, 666360, Note_on_c, 0, 62, 93
3, 666360, Note_on_c, 0, 46, 105
3, 666360, Note_on_c, 0, 53, 105
3, 666540, Note_on_c, 0, 62, 0
3, 666540, Note_on_c, 0, 58, 0
3, 666540, Note_on_c, 0, 64, 114
3, 666720, Note_on_c, 0, 64, 0
3, 666720, Note_on_c, 0, 46, 0
3, 666720, Note_on_c, 0, 53, 0
3, 666720, Note_on_c, 0, 57, 110
3, 666720, Note_on_c, 0, 60, 110
3, 666720, Note_on_c, 0, 65, 110
3, 666720, Note_on_c, 0, 41, 104
3, 666720, Note_on_c, 0, 53, 104
3, 666900, Note_on_c, 0, 53, 0
3, 666900, Note_on_c, 0, 41, 0
3, 666900, Note_on_c, 0, 43, 99
3, 667080, Note_on_c, 0, 43, 0
3, 667080, Note_on_c, 0, 65, 0
3, 667080, Note_on_c, 0, 60, 0
3, 667080, Note_on_c, 0, 57, 0
3, 667080, Note_on_c, 0, 63, 103
3, 667080, Note_on_c, 0, 56, 80
3, 667080, Note_on_c, 0, 60, 80
3, 667080, Note_on_c, 0, 44, 122
3, 667080, Note_on_c, 0, 51, 122
3, 667440, Note_on_c, 0, 63, 0
3, 667440, Note_on_c, 0, 64, 114
3, 667620, Note_on_c, 0, 64, 0
3, 667620, Note_on_c, 0, 63, 98
3, 667800, Note_on_c, 0, 63, 0
3, 667800, Note_on_c, 0, 44, 0
3, 667800, Note_on_c, 0, 56, 0
3, 667800, Note_on_c, 0, 60, 0
3, 667800, Note_on_c, 0, 51, 0
3, 667800, Note_on_c, 0, 56, 122
3, 667800, Note_on_c, 0, 60, 122
3, 667800, Note_on_c, 0, 64, 122
3, 667800, Note_on_c, 0, 44, 108
3, 667800, Note_on_c, 0, 52, 108
3, 668117, Note_on_c, 0, 60, 0
3, 668117, Note_on_c, 0, 56, 0
3, 668160, Note_on_c, 0, 44, 0
3, 668160, Note_on_c, 0, 52, 0
3, 668160, Note_on_c, 0, 55, 110
3, 668160, Note_on_c, 0, 59, 110
3, 668160, Note_on_c, 0, 40, 110
3, 668160, Note_on_c, 0, 52, 110
3, 668520, Note_on_c, 0, 52, 0
3, 668520, Note_on_c, 0, 59, 0
3, 668520, Note_on_c, 0, 64, 0
3, 668520, Note_on_c, 0, 55, 0
3, 668520, Note_on_c, 0, 40, 0
3, 668520, Note_on_c, 0, 61, 94
3, 668520, Note_on_c, 0, 54, 77
3, 668520, Note_on_c, 0, 58, 77
3, 668520, Note_on_c, 0, 42, 122
3, 668520, Note_on_c, 0, 49, 122
3, 668699, Note_on_c, 0, 61, 0
3, 668880, Note_on_c, 0, 62, 110
3, 669060, Note_on_c, 0, 62, 0
3, 669060, Note_on_c, 0, 61, 101
3, 669240, Note_on_c, 0, 61, 0
3, 669240, Note_on_c, 0, 42, 0
3, 669240, Note_on_c, 0, 54, 0
3, 669240, Note_on_c, 0, 58, 0
3, 669240, Note_on_c, 0, 49, 0
3, 669240, Note_on_c, 0, 53, 122
3, 669240, Note_on_c, 0, 58, 122
3, 669240, Note_on_c, 0, 62, 122
3, 669240, Note_on_c, 0, 41, 116
3, 669240, Note_on_c, 0, 50, 116
3, 669419, Note_on_c, 0, 50, 0
3, 669419, Note_on_c, 0, 41, 0
3, 669557, Note_on_c, 0, 53, 0
3, 669557, Note_on_c, 0, 58, 0
3, 669600, Note_on_c, 0, 53, 105
3, 669600, Note_on_c, 0, 57, 105
3, 669600, Note_on_c, 0, 38, 106
3, 669600, Note_on_c, 0, 45, 106
3, 669600, Note_on_c, 0, 50, 106
3, 669960, Note_on_c, 0, 50, 0
3, 669960, Note_on_c, 0, 53, 0
3, 669960, Note_on_c, 0, 57, 0
3, 669960, Note_on_c, 0, 62, 0
3, 669960, Note_on_c, 0, 45, 0
3, 669960, Note_on_c, 0, 38, 0
3, 669960, Note_on_c, 0, 56, 104
3, 669960, Note_on_c, 0, 58, 104
3, 669960, Note_on_c, 0, 40, 122
3, 669960, Note_on_c, 0, 47, 122
3, 669960, Note_on_c, 0, 52, 122
3, 670139, Note_on_c, 0, 52, 0
3, 670139, Note_on_c, 0, 40, 0
3, 670139, Note_on_c, 0, 47, 0
3, 670140, Note_on_c, 0, 58, 0
3, 670140, Note_on_c, 0, 56, 0
3, 670140, Note_on_c, 0, 59, 109
3, 670320, Note_on_c, 0, 59, 0
3, 670320, Note_on_c, 0, 60, 116
3, 670499, Note_on_c, 0, 60, 0
3, 670680, Note_on_c, 0, 51, 105
3, 670680, Note_on_c, 0, 55, 105
3, 670680, Note_on_c, 0, 59, 105
3, 670680, Note_on_c, 0, 36, 121
3, 670680, Note_on_c, 0, 43, 121
3, 670680, Note_on_c, 0, 48, 121
3, 671040, Note_on_c, 0, 48, 0
3, 671040, Note_on_c, 0, 55, 0
3, 671040, Note_on_c, 0, 59, 0
3, 671040, Note_on_c, 0, 51, 0
3, 671040, Note_on_c, 0, 43, 0
3, 671040, Note_on_c, 0, 36, 0
3, 671040, Note_on_c, 0, 60, 114
3, 671219, Note_on_c, 0, 60, 0
3, 671400, Note_on_c, 0, 54, 122
3, 671400, Note_on_c, 0, 57, 122
3, 671400, Note_on_c, 0, 38, 119
3, 671400, Note_on_c, 0, 45, 119
3, 671400, Note_on_c, 0, 50, 119
3, 671580, Note_on_c, 0, 57, 0
3, 671580, Note_on_c, 0, 54, 0
3, 671580, Note_on_c, 0, 58, 111
3, 671760, Note_on_c, 0, 58, 0
3, 671760, Note_on_c, 0, 50, 0
3, 671760, Note_on_c, 0, 38, 0
3, 671760, Note_on_c, 0, 45, 0
3, 671760, Note_on_c, 0, 59, 115
3, 672120, Note_on_c, 0, 59, 0
3, 672120, Note_on_c, 0, 50, 122
3, 672120, Note_on_c, 0, 53, 122
3, 672120, Note_on_c, 0, 56, 122
3, 672120, Note_on_c, 0, 34, 122
3, 672120, Note_on_c, 0, 46, 122
3, 672300, Note_on_c, 0, 56, 0
3, 672300, Note_on_c, 0, 50, 0
3, 672300, Note_on_c, 0, 53, 0
3, 672300, Note_on_c, 0, 57, 108
3, 672480, Note_on_c, 0, 57, 0
3, 672480, Note_on_c, 0, 34, 0
3, 672480, Note_on_c, 0, 46, 0
3, 672480, Note_on_c, 0, 58, 120
3, 672840, Note_on_c, 0, 58, 0
3, 672840, Note_on_c, 0, 56, 94
3, 672840, Note_on_c, 0, 58, 94
3, 672840, Note_on_c, 0, 36, 95
3, 672840, Note_on_c, 0, 48, 95
3, 673019, Note_on_c, 0, 48, 0
3, 673019, Note_on_c, 0, 56, 0
3, 673019, Note_on_c, 0, 58, 0
3, 673019, Note_on_c, 0, 36, 0
3, 673200, Note_on_c, 0, 56, 102
3, 673200, Note_on_c, 0, 58, 102
3, 673200, Note_on_c, 0, 37, 110
3, 673200, Note_on_c, 0, 49, 110
3, 673379, Note_on_c, 0, 49, 0
3, 673379, Note_on_c, 0, 56, 0
3, 673379, Note_on_c, 0, 58, 0
3, 673379, Note_on_c, 0, 37, 0
3, 673560, Note_on_c, 0, 56, 109
3, 673560, Note_on_c, 0, 58, 109
3, 673560, Note_on_c, 0, 38, 108
3, 673560, Note_on_c, 0, 50, 108
3, 673739, Note_on_c, 0, 50, 0
3, 673739, Note_on_c, 0, 56, 0
3, 673739, Note_on_c, 0, 58, 0
3, 673739, Note_on_c, 0, 38, 0
3, 673920, Note_on_c, 0, 54, 110
3, 673920, Note_on_c, 0, 58, 110
3, 673920, Note_on_c, 0, 39, 104
3, 673920, Note_on_c, 0, 51, 104
3, 674099, Note_on_c, 0, 51, 0
3, 674099, Note_on_c, 0, 54, 0
3, 674099, Note_on_c, 0, 58, 0
3, 674099, Note_on_c, 0, 39, 0
3, 674280, Note_on_c, 0, 52, 104
3, 674280, Note_on_c, 0, 55, 104
3, 674280, Note_on_c, 0, 57, 104
3, 674280, Note_on_c, 0, 40, 122
3, 674280, Note_on_c, 0, 45, 122
3, 674280, Note_on_c, 0, 49, 122
3, 674459, Note_on_c, 0, 57, 0
3, 674459, Note_on_c, 0, 52, 0
3, 674459, Note_on_c, 0, 55, 0
3, 674640, Note_on_c, 0, 40, 0
3, 674640, Note_on_c, 0, 45, 0
3, 674640, Note_on_c, 0, 49, 0
3, 675000, Note_on_c, 0, 53, 95
3, 675000, Note_on_c, 0, 56, 95
3, 675000, Note_on_c, 0, 58, 95
3, 675000, Note_on_c, 0, 41, 119
3, 675000, Note_on_c, 0, 46, 119
3, 675000, Note_on_c, 0, 50, 119
3, 675179, Note_on_c, 0, 58, 0
3, 675179, Note_on_c, 0, 53, 0
3, 675179, Note_on_c, 0, 56, 0
3, 675360, Note_on_c, 0, 41, 0
3, 675360, Note_on_c, 0, 46, 0
3, 675360, Note_on_c, 0, 50, 0
3, 675720, Note_on_c, 0, 55, 108
3, 675720, Note_on_c, 0, 57, 108
3, 675720, Note_on_c, 0, 33, 108
3, 675720, Note_on_c, 0, 45, 108
3, 675899, Note_on_c, 0, 45, 0
3, 675899, Note_on_c, 0, 55, 0
3, 675899, Note_on_c, 0, 57, 0
3, 675899, Note_on_c, 0, 33, 0
3, 676080, Note_on_c, 0, 55, 107
3, 676080, Note_on_c, 0, 57, 107
3, 676080, Note_on_c, 0, 35, 107
3, 676080, Note_on_c, 0, 47, 107
3, 676259, Note_on_c, 0, 47, 0
3, 676259, Note_on_c, 0, 55, 0
3, 676259, Note_on_c, 0, 57, 0
3, 676259, Note_on_c, 0, 35, 0
3, 676440, Note_on_c, 0, 55, 106
3, 676440, Note_on_c, 0, 57, 106
3, 676440, Note_on_c, 0, 37, 106
3, 676440, Note_on_c, 0, 49, 106
3, 676619, Note_on_c, 0, 49, 0
3, 676619, Note_on_c, 0, 55, 0
3, 676619, Note_on_c, 0, 57, 0
3, 676619, Note_on_c, 0, 37, 0
3, 676800, Note_on_c, 0, 50, 106
3, 676800, Note_on_c, 0, 53, 106
3, 676800, Note_on_c, 0, 57, 106
3, 676800, Note_on_c, 0, 38, 106
3, 676980, Note_on_c, 0, 38, 0
3, 676980, Note_on_c, 0, 50, 0
3, 676980, Note_on_c, 0, 53, 0
3, 676980, Note_on_c, 0, 57, 0
3, 676980, Note_on_c, 0, 49, 106
3, 676980, Note_on_c, 0, 37, 106
3, 677160, Note_on_c, 0, 37, 0
3, 677160, Note_on_c, 0, 49, 0
3, 677160, Note_on_c, 0, 50, 105
3, 677160, Note_on_c, 0, 55, 105
3, 677160, Note_on_c, 0, 38, 105
3, 677339, Note_on_c, 0, 38, 0
3, 677339, Note_on_c, 0, 55, 0
3, 677339, Note_on_c, 0, 50, 0
3, 677520, Note_on_c, 0, 51, 105
3, 677520, Note_on_c, 0, 55, 105
3, 677520, Note_on_c, 0, 39, 105
3, 677699, Note_on_c, 0, 39, 0
3, 677699, Note_on_c, 0, 55, 0
3, 677699, Note_on_c, 0, 51, 0
3, 677880, Note_on_c, 0, 53, 104
3, 677880, Note_on_c, 0, 59, 104
3, 677880, Note_on_c, 0, 41, 104
3, 678059, Note_on_c, 0, 41, 0
3, 678059, Note_on_c, 0, 59, 0
3, 678059, Note_on_c, 0, 53, 0
3, 678240, Note_on_c, 0, 55, 104
3, 678240, Note_on_c, 0, 60, 104
3, 678240, Note_on_c, 0, 43, 104
3, 678419, Note_on_c, 0, 43, 0
3, 678419, Note_on_c, 0, 60, 0
3, 678419, Note_on_c, 0, 55, 0
3, 678600, Note_on_c, 0, 53, 103
3, 678600, Note_on_c, 0, 55, 103
3, 678600, Note_on_c, 0, 31, 103
3, 678600, Note_on_c, 0, 43, 103
3, 678779, Note_on_c, 0, 55, 0
3, 678779, Note_on_c, 0, 53, 0
3, 678960, Note_on_c, 0, 31, 0
3, 678960, Note_on_c, 0, 43, 0
3, 678960, Note_on_c, 0, 53, 103
3, 678960, Note_on_c, 0, 55, 103
3, 678960, Note_on_c, 0, 33, 103
3, 678960, Note_on_c, 0, 45, 103
3, 679139, Note_on_c, 0, 55, 0
3, 679139, Note_on_c, 0, 53, 0
3, 679320, Note_on_c, 0, 33, 0
3, 679320, Note_on_c, 0, 45, 0
3, 679320, Note_on_c, 0, 46, 102
3, 679320, Note_on_c, 0, 55, 102
3, 679320, Note_on_c, 0, 34, 102
3, 679500, Note_on_c, 0, 34, 0
3, 679500, Note_on_c, 0, 55, 0
3, 679500, Note_on_c, 0, 46, 0
3, 679500, Note_on_c, 0, 47, 102
3, 679500, Note_on_c, 0, 35, 102
3, 679680, Note_on_c, 0, 35, 0
3, 679680, Note_on_c, 0, 47, 0
3, 679680, Note_on_c, 0, 48, 101
3, 679680, Note_on_c, 0, 51, 101
3, 679680, Note_on_c, 0, 55, 101
3, 679680, Note_on_c, 0, 36, 101
3, 679860, Note_on_c, 0, 36, 0
3, 679860, Note_on_c, 0, 48, 0
3, 679860, Note_on_c, 0, 51, 0
3, 679860, Note_on_c, 0, 55, 0
3, 679860, Note_on_c, 0, 47, 101
3, 679860, Note_on_c, 0, 35, 101
3, 680040, Note_on_c, 0, 35, 0
3, 680040, Note_on_c, 0, 47, 0
3, 680040, Note_on_c, 0, 48, 101
3, 680040, Note_on_c, 0, 53, 101
3, 680040, Note_on_c, 0, 36, 101
3, 680219, Note_on_c, 0, 36, 0
3, 680219, Note_on_c, 0, 53, 0
3, 680219, Note_on_c, 0, 48, 0
3, 680400, Note_on_c, 0, 50, 100
3, 680400, Note_on_c, 0, 53, 100
3, 680400, Note_on_c, 0, 38, 100
3, 680579, Note_on_c, 0, 38, 0
3, 680579, Note_on_c, 0, 53, 0
3, 680579, Note_on_c, 0, 50, 0
3, 680760, Note_on_c, 0, 51, 100
3, 680760, Note_on_c, 0, 57, 100
3, 680760, Note_on_c, 0, 39, 100
3, 680939, Note_on_c, 0, 39, 0
3, 680939, Note_on_c, 0, 57, 0
3, 680939, Note_on_c, 0, 51, 0
3, 681120, Note_on_c, 0, 53, 99
3, 681120, Note_on_c, 0, 58, 99
3, 681120, Note_on_c, 0, 41, 99
3, 681300, Note_on_c, 0, 41, 0
3, 681300, Note_on_c, 0, 58, 0
3, 681300, Note_on_c, 0, 53, 0
3, 681300, Note_on_c, 0, 55, 99
3, 681300, Note_on_c, 0, 43, 99
3, 681480, Note_on_c, 0, 43, 0
3, 681480, Note_on_c, 0, 55, 0
3, 681480, Note_on_c, 0, 56, 99
3, 681480, Note_on_c, 0, 53, 72
3, 681480, Note_on_c, 0, 44, 99
3, 681660, Note_on_c, 0, 44, 0
3, 681660, Note_on_c, 0, 56, 0
3, 681660, Note_on_c, 0, 57, 98
3, 681660, Note_on_c, 0, 45, 98
3, 681840, Note_on_c, 0, 45, 0
3, 681840, Note_on_c, 0, 57, 0
3, 681840, Note_on_c, 0, 58, 98
3, 681840, Note_on_c, 0, 46, 98
3, 682200, Note_on_c, 0, 46, 0
3, 682200, Note_on_c, 0, 58, 0
3, 682200, Note_on_c, 0, 53, 0
3, 682200, Note_on_c, 0, 52, 98
3, 682200, Note_on_c, 0, 55, 98
3, 682200, Note_on_c, 0, 43, 98
3, 682380, Note_on_c, 0, 43, 0
3, 682380, Note_on_c, 0, 55, 0
3, 682380, Note_on_c, 0, 52, 0
3, 682380, Note_on_c, 0, 56, 97
3, 682380, Note_on_c, 0, 44, 97
3, 682560, Note_on_c, 0, 44, 0
3, 682560, Note_on_c, 0, 56, 0
3, 682560, Note_on_c, 0, 52, 97
3, 682560, Note_on_c, 0, 57, 97
3, 682560, Note_on_c, 0, 45, 97
3, 682920, Note_on_c, 0, 45, 0
3, 682920, Note_on_c, 0, 57, 0
3, 682920, Note_on_c, 0, 52, 0
3, 682920, Note_on_c, 0, 54, 96
3, 682920, Note_on_c, 0, 51, 70
3, 682920, Note_on_c, 0, 42, 96
3, 683100, Note_on_c, 0, 42, 0
3, 683100, Note_on_c, 0, 54, 0
3, 683100, Note_on_c, 0, 55, 96
3, 683100, Note_on_c, 0, 43, 96
3, 683280, Note_on_c, 0, 43, 0
3, 683280, Note_on_c, 0, 55, 0
3, 683280, Note_on_c, 0, 56, 96
3, 683280, Note_on_c, 0, 44, 96
3, 683640, Note_on_c, 0, 44, 0
3, 683640, Note_on_c, 0, 56, 0
3, 683640, Note_on_c, 0, 51, 0
3, 683640, Note_on_c, 0, 50, 95
3, 683640, Note_on_c, 0, 54, 95
3, 683640, Note_on_c, 0, 42, 95
3, 684000, Note_on_c, 0, 42, 0
3, 684000, Note_on_c, 0, 54, 0
3, 684000, Note_on_c, 0, 50, 0
3, 684000, Note_on_c, 0, 50, 95
3, 684000, Note_on_c, 0, 55, 95
3, 684000, Note_on_c, 0, 43, 94
3, 684360, Note_on_c, 0, 43, 0
3, 684360, Note_on_c, 0, 55, 0
3, 684360, Note_on_c, 0, 50, 0
3, 684360, Note_on_c, 0, 55, 94
3, 684360, Note_on_c, 0, 58, 94
3, 684360, Note_on_c, 0, 50, 94
3, 684360, Note_on_c, 0, 46, 93
3, 684540, Note_on_c, 0, 58, 0
3, 684540, Note_on_c, 0, 55, 0
3, 684540, Note_on_c, 0, 56, 94
3, 684677, Note_on_c, 0, 46, 0
3, 684720, Note_on_c, 0, 56, 0
3, 684720, Note_on_c, 0, 57, 94
3, 684720, Note_on_c, 0, 42, 92
3, 684720, Note_on_c, 0, 54, 92
3, 685080, Note_on_c, 0, 54, 0
3, 685080, Note_on_c, 0, 50, 0
3, 685080, Note_on_c, 0, 57, 0
3, 685080, Note_on_c, 0, 42, 0
3, 685080, Note_on_c, 0, 54, 93
3, 685080, Note_on_c, 0, 57, 93
3, 685080, Note_on_c, 0, 45, 92
3, 685080, Note_on_c, 0, 49, 92
3, 685260, Note_on_c, 0, 57, 0
3, 685260, Note_on_c, 0, 54, 0
3, 685260, Note_on_c, 0, 55, 93
3, 685397, Note_on_c, 0, 45, 0
3, 685440, Note_on_c, 0, 55, 0
3, 685440, Note_on_c, 0, 56, 93
3, 685440, Note_on_c, 0, 41, 91
3, 685440, Note_on_c, 0, 53, 91
3, 685800, Note_on_c, 0, 53, 0
3, 685800, Note_on_c, 0, 49, 0
3, 685800, Note_on_c, 0, 56, 0
3, 685800, Note_on_c, 0, 41, 0
3, 685800, Note_on_c, 0, 53, 92
3, 685800, Note_on_c, 0, 56, 92
3, 685800, Note_on_c, 0, 48, 92
3, 685800, Note_on_c, 0, 44, 91
3, 685980, Note_on_c, 0, 56, 0
3, 685980, Note_on_c, 0, 53, 0
3, 685980, Note_on_c, 0, 54, 92
3, 686160, Note_on_c, 0, 54, 0
3, 686160, Note_on_c, 0, 44, 0
3, 686160, Note_on_c, 0, 55, 92
3, 686160, Note_on_c, 0, 40, 90
3, 686160, Note_on_c, 0, 52, 90
3, 686520, Note_on_c, 0, 52, 0
3, 686520, Note_on_c, 0, 48, 0
3, 686520, Note_on_c, 0, 55, 0
3, 686520, Note_on_c, 0, 40, 0
3, 686520, Note_on_c, 0, 52, 91
3, 686520, Note_on_c, 0, 55, 91
3, 686520, Note_on_c, 0, 43, 90
3, 686520, Note_on_c, 0, 47, 90
3, 686699, Note_on_c, 0, 47, 0
3, 686699, Note_on_c, 0, 43, 0
3, 686880, Note_on_c, 0, 55, 0
3, 686880, Note_on_c, 0, 52, 0
3, 686880, Note_on_c, 0, 51, 90
3, 686880, Note_on_c, 0, 54, 90
3, 686880, Note_on_c, 0, 39, 90
3, 686880, Note_on_c, 0, 47, 90
3, 687059, Note_on_c, 0, 47, 0
3, 687059, Note_on_c, 0, 39, 0
3, 687240, Note_on_c, 0, 54, 0
3, 687240, Note_on_c, 0, 51, 0
3, 687240, Note_on_c, 0, 53, 90
3, 687240, Note_on_c, 0, 57, 90
3, 687240, Note_on_c, 0, 41, 90
3, 687420, Note_on_c, 0, 41, 0
3, 687420, Note_on_c, 0, 57, 0
3, 687420, Note_on_c, 0, 53, 0
3, 687420, Note_on_c, 0, 54, 90
3, 687420, Note_on_c, 0, 42, 90
3, 687600, Note_on_c, 0, 42, 0
3, 687600, Note_on_c, 0, 54, 0
3, 687600, Note_on_c, 0, 55, 89
3, 687600, Note_on_c, 0, 59, 89
3, 687600, Note_on_c, 0, 43, 89
3, 687779, Note_on_c, 0, 43, 0
3, 687960, Note_on_c, 0, 59, 0
3, 687960, Note_on_c, 0, 55, 0
3, 687960, Note_on_c, 0, 51, 89
3, 687960, Note_on_c, 0, 57, 89
3, 687960, Note_on_c, 0, 59, 89
3, 687960, Note_on_c, 0, 39, 89
3, 688320, Note_on_c, 0, 39, 0
3, 688320, Note_on_c, 0, 51, 0
3, 688320, Note_on_c, 0, 57, 0
3, 688320, Note_on_c, 0, 59, 0
3, 688320, Note_on_c, 0, 52, 88
3, 688320, Note_on_c, 0, 55, 88
3, 688320, Note_on_c, 0, 59, 88
3, 688320, Note_on_c, 0, 40, 88
3, 688500, Note_on_c, 0, 40, 0
3, 688500, Note_on_c, 0, 52, 0
3, 688500, Note_on_c, 0, 55, 0
3, 688500, Note_on_c, 0, 59, 0
3, 688500, Note_on_c, 0, 50, 88
3, 688500, Note_on_c, 0, 38, 88
3, 688680, Note_on_c, 0, 38, 0
3, 688680, Note_on_c, 0, 50, 0
3, 688680, Note_on_c, 0, 51, 88
3, 688680, Note_on_c, 0, 55, 88
3, 688680, Note_on_c, 0, 39, 88
3, 688860, Note_on_c, 0, 39, 0
3, 688860, Note_on_c, 0, 55, 0
3, 688860, Note_on_c, 0, 51, 0
3, 688860, Note_on_c, 0, 52, 87
3, 688860, Note_on_c, 0, 40, 87
3, 689040, Note_on_c, 0, 40, 0
3, 689040, Note_on_c, 0, 52, 0
3, 689040, Note_on_c, 0, 53, 87
3, 689040, Note_on_c, 0, 57, 87
3, 689040, Note_on_c, 0, 41, 87
3, 689219, Note_on_c, 0, 41, 0
3, 689400, Note_on_c, 0, 57, 0
3, 689400, Note_on_c, 0, 53, 0
3, 689400, Note_on_c, 0, 49, 87
3, 689400, Note_on_c, 0, 55, 87
3, 689400, Note_on_c, 0, 57, 87
3, 689400, Note_on_c, 0, 37, 87
3, 689579, Note_on_c, 0, 37, 0
3, 689760, Note_on_c, 0, 49, 0
3, 689760, Note_on_c, 0, 55, 0
3, 689760, Note_on_c, 0, 57, 0
3, 689760, Note_on_c, 0, 50, 86
3, 689760, Note_on_c, 0, 53, 86
3, 689760, Note_on_c, 0, 57, 86
3, 689760, Note_on_c, 0, 38, 86
3, 689939, Note_on_c, 0, 38, 0
3, 690120, Note_on_c, 0, 50, 0
3, 690120, Note_on_c, 0, 53, 0
3, 690120, Note_on_c, 0, 57, 0
3, 690120, Note_on_c, 0, 52, 85
3, 690120, Note_on_c, 0, 56, 85
3, 690120, Note_on_c, 0, 40, 85
3, 690300, Note_on_c, 0, 40, 0
3, 690300, Note_on_c, 0, 56, 0
3, 690300, Note_on_c, 0, 52, 0
3, 690300, Note_on_c, 0, 50, 85
3, 690300, Note_on_c, 0, 38, 85
3, 690480, Note_on_c, 0, 38, 0
3, 690480, Note_on_c, 0, 50, 0
3, 690480, Note_on_c, 0, 52, 85
3, 690480, Note_on_c, 0, 55, 85
3, 690480, Note_on_c, 0, 40, 85
3, 690659, Note_on_c, 0, 40, 0
3, 690840, Note_on_c, 0, 55, 0
3, 690840, Note_on_c, 0, 52, 0
3, 690840, Note_on_c, 0, 47, 84
3, 690840, Note_on_c, 0, 53, 84
3, 690840, Note_on_c, 0, 55, 84
3, 690840, Note_on_c, 0, 35, 84
3, 691019, Note_on_c, 0, 35, 0
3, 691200, Note_on_c, 0, 47, 0
3, 691200, Note_on_c, 0, 53, 0
3, 691200, Note_on_c, 0, 55, 0
3, 691200, Note_on_c, 0, 48, 84
3, 691200, Note_on_c, 0, 52, 84
3, 691200, Note_on_c, 0, 55, 84
3, 691200, Note_on_c, 0, 36, 84
3, 691380, Note_on_c, 0, 36, 0
3, 691380, Note_on_c, 0, 48, 0
3, 691380, Note_on_c, 0, 52, 0
3, 691380, Note_on_c, 0, 55, 0
3, 691380, Note_on_c, 0, 49, 84
3, 691380, Note_on_c, 0, 37, 84
3, 691560, Note_on_c, 0, 37, 0
3, 691560, Note_on_c, 0, 49, 0
3, 691560, Note_on_c, 0, 50, 83
3, 691560, Note_on_c, 0, 54, 83
3, 691560, Note_on_c, 0, 38, 83
3, 691740, Note_on_c, 0, 38, 0
3, 691740, Note_on_c, 0, 54, 0
3, 691740, Note_on_c, 0, 50, 0
3, 691740, Note_on_c, 0, 49, 83
3, 691740, Note_on_c, 0, 37, 83
3, 691920, Note_on_c, 0, 37, 0
3, 691920, Note_on_c, 0, 49, 0
3, 691920, Note_on_c, 0, 50, 83
3, 691920, Note_on_c, 0, 54, 83
3, 691920, Note_on_c, 0, 38, 83
3, 692099, Note_on_c, 0, 38, 0
3, 692280, Note_on_c, 0, 54, 0
3, 692280, Note_on_c, 0, 50, 0
3, 692280, Note_on_c, 0, 45, 81
3, 692280, Note_on_c, 0, 49, 81
3, 692280, Note_on_c, 0, 53, 81
3, 692280, Note_on_c, 0, 33, 74
3, 692459, Note_on_c, 0, 33, 0
3, 692640, Note_on_c, 0, 45, 0
3, 692640, Note_on_c, 0, 49, 0
3, 692640, Note_on_c, 0, 53, 0
3, 692640, Note_on_c, 0, 46, 56
3, 692640, Note_on_c, 0, 50, 56
3, 692640, Note_on_c, 0, 53, 56
3, 692640, Note_on_c, 0, 34, 56
3, 692819, Note_on_c, 0, 34, 0
3, 693000, Note_on_c, 0, 46, 0
3, 693000, Note_on_c, 0, 50, 0
3, 693000, Note_on_c, 0, 53, 0
3, 693000, Note_on_c, 0, 47, 53
3, 693000, Note_on_c, 0, 52, 53
3, 693000, Note_on_c, 0, 35, 61
3, 693179, Note_on_c, 0, 35, 0
3, 693180, Note_on_c, 0, 52, 0
3, 693180, Note_on_c, 0, 47, 0
3, 693180, Note_on_c, 0, 50, 51
3, 693360, Note_on_c, 0, 50, 0
3, 693360, Note_on_c, 0, 52, 58
3, 693360, Note_on_c, 0, 48, 55
3, 693360, Note_on_c, 0, 36, 58
3, 693539, Note_on_c, 0, 36, 0
3, 693539, Note_on_c, 0, 48, 0
3, 693720, Note_on_c, 0, 47, 54
3, 693720, Note_on_c, 0, 35, 57
3, 693899, Note_on_c, 0, 35, 0
3, 693899, Note_on_c, 0, 47, 0
3, 694080, Note_on_c, 0, 45, 55
3, 694080, Note_on_c, 0, 33, 55
3, 694259, Note_on_c, 0, 45, 0
3, 694259, Note_on_c, 0, 52, 0
3, 694440, Note_on_c, 0, 33, 0
3, 694440, Note_on_c, 0, 44, 55
3, 694440, Note_on_c, 0, 50, 55
3, 694440, Note_on_c, 0, 32, 52
3, 694619, Note_on_c, 0, 50, 0
3, 694619, Note_on_c, 0, 44, 0
3, 694800, Note_on_c, 0, 32, 0
3, 694800, Note_on_c, 0, 43, 58
3, 694800, Note_on_c, 0, 50, 58
3, 694800, Note_on_c, 0, 31, 54
3, 694979, Note_on_c, 0, 50, 0
3, 694979, Note_on_c, 0, 43, 0
3, 695160, Note_on_c, 0, 31, 0
3, 695160, Note_on_c, 0, 49, 58
3, 695160, Note_on_c, 0, 52, 58
3, 695160, Note_on_c, 0, 30, 61
3, 695160, Note_on_c, 0, 42, 61
3, 695339, Note_on_c, 0, 52, 0
3, 695339, Note_on_c, 0, 49, 0
3, 695520, Note_on_c, 0, 30, 0
3, 695520, Note_on_c, 0, 42, 0
3, 695520, Note_on_c, 0, 48, 55
3, 695520, Note_on_c, 0, 53, 55
3, 695520, Note_on_c, 0, 30, 55
3, 695520, Note_on_c, 0, 42, 55
3, 695699, Note_on_c, 0, 53, 0
3, 695699, Note_on_c, 0, 48, 0
3, 695880, Note_on_c, 0, 30, 0
3, 695880, Note_on_c, 0, 42, 0
3, 695880, Note_on_c, 0, 48, 54
3, 695880, Note_on_c, 0, 40, 54
3, 696059, Note_on_c, 0, 48, 0
3, 696060, Note_on_c, 0, 40, 0
3, 696060, Note_on_c, 0, 41, 53
3, 696240, Note_on_c, 0, 41, 0
3, 696240, Note_on_c, 0, 48, 52
3, 696240, Note_on_c, 0, 40, 52
3, 696419, Note_on_c, 0, 48, 0
3, 696600, Note_on_c, 0, 40, 0
3, 696600, Note_on_c, 0, 48, 51
3, 696600, Note_on_c, 0, 45, 50
3, 696779, Note_on_c, 0, 48, 0
3, 696960, Note_on_c, 0, 45, 0
3, 696960, Note_on_c, 0, 48, 49
3, 696960, Note_on_c, 0, 40, 49
3, 697139, Note_on_c, 0, 48, 0
3, 697320, Note_on_c, 0, 40, 0
3, 697320, Note_on_c, 0, 48, 47
3, 697320, Note_on_c, 0, 39, 47
3, 697499, Note_on_c, 0, 48, 0
3, 697500, Note_on_c, 0, 39, 0
3, 697500, Note_on_c, 0, 40, 46
3, 697680, Note_on_c, 0, 40, 0
3, 697680, Note_on_c, 0, 48, 46
3, 697680, Note_on_c, 0, 39, 45
3, 697859, Note_on_c, 0, 48, 0
3, 698040, Note_on_c, 0, 39, 0
3, 698040, Note_on_c, 0, 48, 44
3, 698040, Note_on_c, 0, 44, 44
3, 698219, Note_on_c, 0, 48, 0
3, 698400, Note_on_c, 0, 44, 0
3, 698400, Note_on_c, 0, 48, 42
3, 698400, Note_on_c, 0, 40, 42
3, 698579, Note_on_c, 0, 48, 0
3, 698760, Note_on_c, 0, 40, 0
3, 698760, Note_on_c, 0, 48, 41
3, 698760, Note_on_c, 0, 45, 40
3, 698939, Note_on_c, 0, 48, 0
3, 699120, Note_on_c, 0, 45, 0
3, 699120, Note_on_c, 0, 48, 39
3, 699120, Note_on_c, 0, 41, 39
3, 699299, Note_on_c, 0, 48, 0
3, 699480, Note_on_c, 0, 41, 0
3, 699480, Note_on_c, 0, 50, 37
3, 699480, Note_on_c, 0, 45, 37
3, 699659, Note_on_c, 0, 50, 0
3, 699840, Note_on_c, 0, 45, 0
3, 699840, Note_on_c, 0, 53, 36
3, 699840, Note_on_c, 0, 38, 35
3, 700019, Note_on_c, 0, 53, 0
3, 700200, Note_on_c, 0, 38, 0
3, 700200, Note_on_c, 0, 52, 34
3, 700200, Note_on_c, 0, 40, 33
3, 700380, Note_on_c, 0, 52, 0
3, 700380, Note_on_c, 0, 53, 33
3, 700560, Note_on_c, 0, 53, 0
3, 700560, Note_on_c, 0, 40, 0
3, 700560, Note_on_c, 0, 52, 32
3, 700560, Note_on_c, 0, 40, 32
3, 700739, Note_on_c, 0, 52, 0
3, 700920, Note_on_c, 0, 40, 0
3, 700920, Note_on_c, 0, 51, 31
3, 700920, Note_on_c, 0, 41, 30
3, 701099, Note_on_c, 0, 51, 0
3, 701280, Note_on_c, 0, 41, 0
3, 701280, Note_on_c, 0, 50, 51
3, 701280, Note_on_c, 0, 34, 30
3, 701459, Note_on_c, 0, 50, 0
3, 701640, Note_on_c, 0, 34, 0
3, 701640, Note_on_c, 0, 46, 58
3, 701640, Note_on_c, 0, 51, 58
3, 701640, Note_on_c, 0, 42, 39
3, 701819, Note_on_c, 0, 51, 0
3, 701819, Note_on_c, 0, 46, 0
3, 701820, Note_on_c, 0, 42, 0
3, 701820, Note_on_c, 0, 44, 33
3, 702000, Note_on_c, 0, 44, 0
3, 702000, Note_on_c, 0, 46, 54
3, 702000, Note_on_c, 0, 50, 54
3, 702000, Note_on_c, 0, 41, 32
3, 702179, Note_on_c, 0, 50, 0
3, 702179, Note_on_c, 0, 46, 0
3, 702360, Note_on_c, 0, 41, 0
3, 702360, Note_on_c, 0, 51, 66
3, 702360, Note_on_c, 0, 54, 66
3, 702539, Note_on_c, 0, 54, 0
3, 702539, Note_on_c, 0, 51, 0
3, 702720, Note_on_c, 0, 50, 55
3, 702720, Note_on_c, 0, 53, 55
3, 702720, Note_on_c, 0, 34, 24
3, 702899, Note_on_c, 0, 53, 0
3, 702899, Note_on_c, 0, 50, 0
3, 703080, Note_on_c, 0, 34, 0
3, 703080, Note_on_c, 0, 46, 52
3, 703080, Note_on_c, 0, 50, 52
3, 703080, Note_on_c, 0, 41, 37
3, 703260, Note_on_c, 0, 41, 0
3, 703260, Note_on_c, 0, 42, 35
3, 703440, Note_on_c, 0, 42, 0
3, 703440, Note_on_c, 0, 50, 0
3, 703440, Note_on_c, 0, 46, 0
3, 703440, Note_on_c, 0, 46, 50
3, 703440, Note_on_c, 0, 48, 50
3, 703440, Note_on_c, 0, 39, 29
3, 703800, Note_on_c, 0, 39, 0
3, 703800, Note_on_c, 0, 48, 0
3, 703800, Note_on_c, 0, 46, 0
3, 703800, Note_on_c, 0, 50, 57
3, 703800, Note_on_c, 0, 53, 57
3, 704160, Note_on_c, 0, 53, 0
3, 704160, Note_on_c, 0, 50, 0
3, 704160, Note_on_c, 0, 48, 55
3, 704160, Note_on_c, 0, 51, 55
3, 704160, Note_on_c, 0, 34, 27
3, 704520, Note_on_c, 0, 34, 0
3, 704520, Note_on_c, 0, 51, 0
3, 704520, Note_on_c, 0, 48, 0
3, 704520, Note_on_c, 0, 46, 47
3, 704520, Note_on_c, 0, 39, 29
3, 704700, Note_on_c, 0, 39, 0
3, 704700, Note_on_c, 0, 41, 31
3, 704880, Note_on_c, 0, 41, 0
3, 704880, Note_on_c, 0, 46, 0
3, 704880, Note_on_c, 0, 46, 58
3, 704880, Note_on_c, 0, 38, 28
3, 705240, Note_on_c, 0, 38, 0
3, 705240, Note_on_c, 0, 46, 0
3, 705240, Note_on_c, 0, 48, 59
3, 705240, Note_on_c, 0, 51, 59
3, 705600, Note_on_c, 0, 51, 0
3, 705600, Note_on_c, 0, 48, 0
3, 705600, Note_on_c, 0, 46, 53
3, 705600, Note_on_c, 0, 50, 53
3, 705600, Note_on_c, 0, 34, 28
3, 705960, Note_on_c, 0, 34, 0
3, 705960, Note_on_c, 0, 50, 0
3, 705960, Note_on_c, 0, 46, 0
3, 705960, Note_on_c, 0, 46, 58
3, 705960, Note_on_c, 0, 50, 58
3, 705960, Note_on_c, 0, 56, 58
3, 706139, Note_on_c, 0, 56, 0
3, 706139, Note_on_c, 0, 50, 0
3, 706139, Note_on_c, 0, 46, 0
3, 706320, Note_on_c, 0, 47, 61
3, 706320, Note_on_c, 0, 50, 61
3, 706320, Note_on_c, 0, 57, 61
3, 706499, Note_on_c, 0, 57, 0
3, 706499, Note_on_c, 0, 50, 0
3, 706499, Note_on_c, 0, 47, 0
3, 706680, Note_on_c, 0, 50, 53
3, 706680, Note_on_c, 0, 52, 53
3, 706680, Note_on_c, 0, 56, 53
3, 706680, Note_on_c, 0, 40, 30
3, 706859, Note_on_c, 0, 40, 0
3, 706859, Note_on_c, 0, 50, 0
3, 706859, Note_on_c, 0, 52, 0
3, 706859, Note_on_c, 0, 56, 0
3, 707040, Note_on_c, 0, 48, 47
3, 707040, Note_on_c, 0, 57, 47
3, 707040, Note_on_c, 0, 33, 44
3, 707040, Note_on_c, 0, 45, 44
3, 707219, Note_on_c, 0, 57, 0
3, 707219, Note_on_c, 0, 48, 0
3, 707400, Note_on_c, 0, 33, 0
3, 707400, Note_on_c, 0, 45, 0
3, 707400, Note_on_c, 0, 33, 43
3, 707580, Note_on_c, 0, 33, 0
3, 707580, Note_on_c, 0, 45, 50
3, 707760, Note_on_c, 0, 45, 0
3, 707760, Note_on_c, 0, 33, 39
3, 707939, Note_on_c, 0, 33, 0
3, 708120, Note_on_c, 0, 33, 45
3, 708299, Note_on_c, 0, 33, 0
3, 708480, Note_on_c, 0, 33, 46
3, 708659, Note_on_c, 0, 33, 0
3, 708840, Note_on_c, 0, 33, 44
3, 709020, Note_on_c, 0, 33, 0
3, 709020, Note_on_c, 0, 45, 56
3, 709200, Note_on_c, 0, 45, 0
3, 709200, Note_on_c, 0, 33, 40
3, 709379, Note_on_c, 0, 33, 0
3, 709560, Note_on_c, 0, 33, 45
3, 709739, Note_on_c, 0, 33, 0
3, 709920, Note_on_c, 0, 33, 44
3, 710099, Note_on_c, 0, 33, 0
3, 710280, Note_on_c, 0, 45, 46
3, 710280, Note_on_c, 0, 33, 42
3, 710459, Note_on_c, 0, 45, 0
3, 710460, Note_on_c, 0, 33, 0
3, 710460, Note_on_c, 0, 45, 51
3, 710640, Note_on_c, 0, 45, 0
3, 710640, Note_on_c, 0, 55, 65
3, 710640, Note_on_c, 0, 33, 40
3, 710819, Note_on_c, 0, 33, 0
3, 710819, Note_on_c, 0, 55, 0
3, 711000, Note_on_c, 0, 56, 59
3, 711000, Note_on_c, 0, 33, 45
3, 711179, Note_on_c, 0, 56, 0
3, 711180, Note_on_c, 0, 33, 0
3, 711180, Note_on_c, 0, 45, 52
3, 711360, Note_on_c, 0, 45, 0
3, 711360, Note_on_c, 0, 57, 55
3, 711360, Note_on_c, 0, 33, 38
3, 711539, Note_on_c, 0, 33, 0
3, 711539, Note_on_c, 0, 57, 0
3, 711720, Note_on_c, 0, 52, 50
3, 711720, Note_on_c, 0, 33, 41
3, 711900, Note_on_c, 0, 33, 0
3, 711900, Note_on_c, 0, 52, 0
3, 711900, Note_on_c, 0, 53, 56
3, 711900, Note_on_c, 0, 45, 52
3, 712080, Note_on_c, 0, 45, 0
3, 712080, Note_on_c, 0, 53, 0
3, 712080, Note_on_c, 0, 55, 60
3, 712080, Note_on_c, 0, 33, 38
3, 712259, Note_on_c, 0, 55, 0
3, 712260, Note_on_c, 0, 33, 0
3, 712260, Note_on_c, 0, 45, 52
3, 712440, Note_on_c, 0, 45, 0
3, 712440, Note_on_c, 0, 50, 53
3, 712440, Note_on_c, 0, 33, 44
3, 712619, Note_on_c, 0, 33, 0
3, 712620, Note_on_c, 0, 50, 0
3, 712620, Note_on_c, 0, 52, 61
3, 712800, Note_on_c, 0, 52, 0
3, 712800, Note_on_c, 0, 50, 85
3, 712800, Note_on_c, 0, 57, 85
3, 712800, Note_on_c, 0, 53, 85
3, 712800, Note_on_c, 0, 33, 56
3, 712980, Note_on_c, 0, 33, 0
3, 712980, Note_on_c, 0, 45, 65
3, 713160, Note_on_c, 0, 45, 0
3, 713160, Note_on_c, 0, 53, 0
3, 713160, Note_on_c, 0, 33, 49
3, 713340, Note_on_c, 0, 33, 0
3, 713340, Note_on_c, 0, 45, 65
3, 713520, Note_on_c, 0, 45, 0
3, 713520, Note_on_c, 0, 33, 55
3, 713700, Note_on_c, 0, 33, 0
3, 713700, Note_on_c, 0, 45, 64
3, 713880, Note_on_c, 0, 45, 0
3, 713880, Note_on_c, 0, 33, 46
3, 714060, Note_on_c, 0, 33, 0
3, 714060, Note_on_c, 0, 45, 64
3, 714240, Note_on_c, 0, 45, 0
3, 714240, Note_on_c, 0, 33, 44
3, 714420, Note_on_c, 0, 33, 0
3, 714420, Note_on_c, 0, 45, 61
3, 714600, Note_on_c, 0, 45, 0
3, 714600, Note_on_c, 0, 33, 50
3, 714780, Note_on_c, 0, 33, 0
3, 714780, Note_on_c, 0, 45, 60
3, 714960, Note_on_c, 0, 45, 0
3, 714960, Note_on_c, 0, 57, 0
3, 714960, Note_on_c, 0, 50, 0
3, 714960, Note_on_c, 0, 53, 75
3, 714960, Note_on_c, 0, 57, 75
3, 714960, Note_on_c, 0, 33, 50
3, 715139, Note_on_c, 0, 57, 0
3, 715139, Note_on_c, 0, 53, 0
3, 715140, Note_on_c, 0, 33, 0
3, 715140, Note_on_c, 0, 45, 60
3, 715320, Note_on_c, 0, 45, 0
3, 715320, Note_on_c, 0, 50, 76
3, 715320, Note_on_c, 0, 57, 76
3, 715320, Note_on_c, 0, 33, 46
3, 715499, Note_on_c, 0, 57, 0
3, 715499, Note_on_c, 0, 50, 0
3, 715500, Note_on_c, 0, 33, 0
3, 715500, Note_on_c, 0, 45, 61
3, 715680, Note_on_c, 0, 45, 0
3, 715680, Note_on_c, 0, 53, 77
3, 715680, Note_on_c, 0, 57, 77
3, 715680, Note_on_c, 0, 33, 46
3, 715860, Note_on_c, 0, 33, 0
3, 715860, Note_on_c, 0, 45, 59
3, 716039, Note_on_c, 0, 57, 0
3, 716039, Note_on_c, 0, 53, 0
3, 716040, Note_on_c, 0, 45, 0
3, 716040, Note_on_c, 0, 33, 49
3, 716220, Note_on_c, 0, 33, 0
3, 716220, Note_on_c, 0, 45, 57
3, 716400, Note_on_c, 0, 45, 0
3, 716400, Note_on_c, 0, 50, 89
3, 716400, Note_on_c, 0, 57, 89
3, 716400, Note_on_c, 0, 33, 47
3, 716580, Note_on_c, 0, 33, 0
3, 716580, Note_on_c, 0, 45, 65
3, 716760, Note_on_c, 0, 45, 0
3, 716760, Note_on_c, 0, 33, 50
3, 716940, Note_on_c, 0, 33, 0
3, 716940, Note_on_c, 0, 45, 58
3, 717120, Note_on_c, 0, 45, 0
3, 717120, Note_on_c, 0, 33, 53
3, 717300, Note_on_c, 0, 33, 0
3, 717300, Note_on_c, 0, 45, 67
3, 717480, Note_on_c, 0, 45, 0
3, 717480, Note_on_c, 0, 33, 54
3, 717660, Note_on_c, 0, 33, 0
3, 717660, Note_on_c, 0, 45, 63
3, 717840, Note_on_c, 0, 45, 0
3, 717840, Note_on_c, 0, 57, 0
3, 717840, Note_on_c, 0, 50, 0
3, 717840, Note_on_c, 0, 53, 78
3, 717840, Note_on_c, 0, 57, 78
3, 717840, Note_on_c, 0, 33, 48
3, 718020, Note_on_c, 0, 33, 0
3, 718020, Note_on_c, 0, 45, 61
3, 718200, Note_on_c, 0, 45, 0
3, 718200, Note_on_c, 0, 33, 48
3, 718380, Note_on_c, 0, 33, 0
3, 718380, Note_on_c, 0, 45, 63
3, 718473, Note_on_c, 0, 57, 0
3, 718473, Note_on_c, 0, 53, 0
3, 718560, Note_on_c, 0, 45, 0
3, 718560, Note_on_c, 0, 46, 70
3, 718560, Note_on_c, 0, 53, 70
3, 718560, Note_on_c, 0, 33, 46
3, 718740, Note_on_c, 0, 33, 0
3, 718740, Note_on_c, 0, 45, 58
3, 718920, Note_on_c, 0, 45, 0
3, 718920, Note_on_c, 0, 33, 45
3, 719100, Note_on_c, 0, 33, 0
3, 719100, Note_on_c, 0, 45, 63
3, 719193, Note_on_c, 0, 53, 0
3, 719193, Note_on_c, 0, 46, 0
3, 719280, Note_on_c, 0, 45, 0
3, 719280, Note_on_c, 0, 50, 61
3, 719280, Note_on_c, 0, 53, 61
3, 719280, Note_on_c, 0, 33, 46
3, 719459, Note_on_c, 0, 53, 0
3, 719459, Note_on_c, 0, 50, 0
3, 719460, Note_on_c, 0, 33, 0
3, 719460, Note_on_c, 0, 45, 63
3, 719640, Note_on_c, 0, 45, 0
3, 719640, Note_on_c, 0, 46, 57
3, 719640, Note_on_c, 0, 53, 57
3, 719640, Note_on_c, 0, 33, 46
3, 719819, Note_on_c, 0, 53, 0
3, 719819, Note_on_c, 0, 46, 0
3, 719820, Note_on_c, 0, 33, 0
3, 719820, Note_on_c, 0, 45, 60
3, 720000, Note_on_c, 0, 45, 0
3, 720000, Note_on_c, 0, 50, 63
3, 720000, Note_on_c, 0, 53, 63
3, 720000, Note_on_c, 0, 33, 45
3, 720360, Note_on_c, 0, 33, 0
3, 720720, Note_on_c, 0, 33, 43
3, 720720, Note_on_c, 0, 45, 43
3, 721080, Note_on_c, 0, 45, 0
3, 721080, Note_on_c, 0, 33, 0
3, 721267, Note_on_c, 0, 53, 0
3, 721267, Note_on_c, 0, 50, 0
3, 721440, Note_on_c, 0, 47, 56
3, 721440, Note_on_c, 0, 50, 56
3, 722160, Note_on_c, 0, 33, 53
3, 722160, Note_on_c, 0, 45, 53
3, 722520, Note_on_c, 0, 45, 0
3, 722520, Note_on_c, 0, 47, 0
3, 722520, Note_on_c, 0, 50, 0
3, 722520, Note_on_c, 0, 33, 0
3, 722520, Note_on_c, 0, 53, 55
3, 722700, Note_on_c, 0, 53, 0
3, 722700, Note_on_c, 0, 55, 68
3, 722880, Note_on_c, 0, 55, 0
3, 722880, Note_on_c, 0, 56, 122
3, 722880, Note_on_c, 0, 50, 69
3, 722880, Note_on_c, 0, 53, 69
3, 722880, Note_on_c, 0, 33, 60
3, 722880, Note_on_c, 0, 45, 60
3, 723060, Note_on_c, 0, 56, 0
3, 723060, Note_on_c, 0, 56, 91
3, 723240, Note_on_c, 0, 56, 0
3, 723240, Note_on_c, 0, 53, 89
3, 723420, Note_on_c, 0, 53, 0
3, 723420, Note_on_c, 0, 55, 96
3, 723600, Note_on_c, 0, 55, 0
3, 723600, Note_on_c, 0, 56, 95
3, 723780, Note_on_c, 0, 56, 0
3, 723780, Note_on_c, 0, 56, 93
3, 723960, Note_on_c, 0, 56, 0
3, 723960, Note_on_c, 0, 53, 89
3, 724140, Note_on_c, 0, 53, 0
3, 724140, Note_on_c, 0, 55, 93
3, 724320, Note_on_c, 0, 55, 0
3, 724320, Note_on_c, 0, 56, 92
3, 724500, Note_on_c, 0, 56, 0
3, 724500, Note_on_c, 0, 56, 91
3, 724680, Note_on_c, 0, 56, 0
3, 724680, Note_on_c, 0, 53, 90
3, 724860, Note_on_c, 0, 53, 0
3, 724860, Note_on_c, 0, 55, 89
3, 725040, Note_on_c, 0, 55, 0
3, 725040, Note_on_c, 0, 56, 88
3, 725220, Note_on_c, 0, 56, 0
3, 725220, Note_on_c, 0, 56, 87
3, 725400, Note_on_c, 0, 56, 0
3, 725400, Note_on_c, 0, 53, 86
3, 725580, Note_on_c, 0, 53, 0
3, 725580, Note_on_c, 0, 55, 85
3, 725760, Note_on_c, 0, 55, 0
3, 725760, Note_on_c, 0, 56, 84
3, 725940, Note_on_c, 0, 56, 0
3, 725940, Note_on_c, 0, 56, 83
3, 726120, Note_on_c, 0, 56, 0
3, 726120, Note_on_c, 0, 53, 82
3, 726300, Note_on_c, 0, 53, 0
3, 726300, Note_on_c, 0, 55, 81
3, 726480, Note_on_c, 0, 55, 0
3, 726480, Note_on_c, 0, 56, 80
3, 726840, Note_on_c, 0, 56, 0
3, 726840, Note_on_c, 0, 53, 77
3, 727020, Note_on_c, 0, 53, 0
3, 727020, Note_on_c, 0, 55, 76
3, 727200, Note_on_c, 0, 55, 0
3, 727200, Note_on_c, 0, 56, 75
3, 727560, Note_on_c, 0, 56, 0
3, 727560, Note_on_c, 0, 55, 73
3, 727920, Note_on_c, 0, 55, 0
3, 727920, Note_on_c, 0, 56, 71
3, 728280, Note_on_c, 0, 56, 0
3, 728280, Note_on_c, 0, 53, 69
3, 728460, Note_on_c, 0, 53, 0
3, 728460, Note_on_c, 0, 56, 68
3, 728640, Note_on_c, 0, 56, 0
3, 728640, Note_on_c, 0, 53, 0
3, 728640, Note_on_c, 0, 45, 0
3, 728640, Note_on_c, 0, 50, 0
3, 728640, Note_on_c, 0, 52, 67
3, 728640, Note_on_c, 0, 57, 67
3, 728640, Note_on_c, 0, 45, 52
3, 729000, Note_on_c, 0, 45, 0
3, 729000, Note_on_c, 0, 33, 0
3, 729000, Note_on_c, 0, 52, 0
3, 729000, Note_on_c, 0, 57, 0
3, 729000, Note_on_c, 0, 33, 49
3, 729180, Note_on_c, 0, 33, 0
3, 729180, Note_on_c, 0, 45, 61
3, 729360, Note_on_c, 0, 45, 0
3, 729360, Note_on_c, 0, 33, 49
3, 729539, Note_on_c, 0, 33, 0
3, 729720, Note_on_c, 0, 33, 52
3, 729899, Note_on_c, 0, 33, 0
3, 730080, Note_on_c, 0, 33, 54
3, 730259, Note_on_c, 0, 33, 0
3, 730440, Note_on_c, 0, 33, 58
3, 730620, Note_on_c, 0, 33, 0
3, 730620, Note_on_c, 0, 45, 65
3, 730800, Note_on_c, 0, 45, 0
3, 730800, Note_on_c, 0, 33, 50
3, 730979, Note_on_c, 0, 33, 0
3, 731160, Note_on_c, 0, 33, 56
3, 731339, Note_on_c, 0, 33, 0
3, 731520, Note_on_c, 0, 33, 55
3, 731699, Note_on_c, 0, 33, 0
3, 731880, Note_on_c, 0, 45, 50
3, 731880, Note_on_c, 0, 33, 56
3, 732059, Note_on_c, 0, 45, 0
3, 732060, Note_on_c, 0, 33, 0
3, 732060, Note_on_c, 0, 45, 64
3, 732240, Note_on_c, 0, 45, 0
3, 732240, Note_on_c, 0, 55, 65
3, 732240, Note_on_c, 0, 33, 49
3, 732419, Note_on_c, 0, 33, 0
3, 732419, Note_on_c, 0, 55, 0
3, 732600, Note_on_c, 0, 56, 57
3, 732600, Note_on_c, 0, 33, 52
3, 732779, Note_on_c, 0, 56, 0
3, 732780, Note_on_c, 0, 33, 0
3, 732780, Note_on_c, 0, 45, 61
3, 732960, Note_on_c, 0, 45, 0
3, 732960, Note_on_c, 0, 57, 55
3, 732960, Note_on_c, 0, 33, 47
3, 733139, Note_on_c, 0, 33, 0
3, 733139, Note_on_c, 0, 57, 0
3, 733320, Note_on_c, 0, 52, 52
3, 733320, Note_on_c, 0, 33, 50
3, 733500, Note_on_c, 0, 33, 0
3, 733500, Note_on_c, 0, 52, 0
3, 733500, Note_on_c, 0, 53, 59
3, 733500, Note_on_c, 0, 45, 60
3, 733680, Note_on_c, 0, 45, 0
3, 733680, Note_on_c, 0, 53, 0
3, 733680, Note_on_c, 0, 55, 54
3, 733680, Note_on_c, 0, 33, 41
3, 733859, Note_on_c, 0, 55, 0
3, 733860, Note_on_c, 0, 33, 0
3, 733860, Note_on_c, 0, 45, 63
3, 734040, Note_on_c, 0, 45, 0
3, 734040, Note_on_c, 0, 50, 54
3, 734040, Note_on_c, 0, 33, 46
3, 734219, Note_on_c, 0, 33, 0
3, 734220, Note_on_c, 0, 50, 0
3, 734220, Note_on_c, 0, 52, 56
3, 734400, Note_on_c, 0, 52, 0
3, 734400, Note_on_c, 0, 41, 92
3, 734400, Note_on_c, 0, 48, 92
3, 734400, Note_on_c, 0, 53, 92
3, 734400, Note_on_c, 0, 33, 51
3, 734580, Note_on_c, 0, 33, 0
3, 734580, Note_on_c, 0, 45, 66
3, 734760, Note_on_c, 0, 45, 0
3, 734760, Note_on_c, 0, 33, 52
3, 734940, Note_on_c, 0, 33, 0
3, 734940, Note_on_c, 0, 45, 59
3, 735120, Note_on_c, 0, 45, 0
3, 735120, Note_on_c, 0, 33, 52
3, 735300, Note_on_c, 0, 33, 0
3, 735300, Note_on_c, 0, 45, 68
3, 735480, Note_on_c, 0, 45, 0
3, 735480, Note_on_c, 0, 33, 46
3, 735660, Note_on_c, 0, 33, 0
3, 735660, Note_on_c, 0, 45, 59
3, 735840, Note_on_c, 0, 45, 0
3, 735840, Note_on_c, 0, 33, 45
3, 736020, Note_on_c, 0, 33, 0
3, 736020, Note_on_c, 0, 45, 64
3, 736200, Note_on_c, 0, 45, 0
3, 736200, Note_on_c, 0, 33, 45
3, 736380, Note_on_c, 0, 33, 0
3, 736380, Note_on_c, 0, 45, 66
3, 736560, Note_on_c, 0, 45, 0
3, 736560, Note_on_c, 0, 53, 0
3, 736560, Note_on_c, 0, 48, 0
3, 736560, Note_on_c, 0, 41, 0
3, 736560, Note_on_c, 0, 48, 78
3, 736560, Note_on_c, 0, 52, 78
3, 736560, Note_on_c, 0, 33, 49
3, 736739, Note_on_c, 0, 52, 0
3, 736739, Note_on_c, 0, 48, 0
3, 736740, Note_on_c, 0, 33, 0
3, 736740, Note_on_c, 0, 45, 65
3, 736920, Note_on_c, 0, 45, 0
3, 736920, Note_on_c, 0, 41, 81
3, 736920, Note_on_c, 0, 48, 81
3, 736920, Note_on_c, 0, 53, 81
3, 736920, Note_on_c, 0, 33, 50
3, 737099, Note_on_c, 0, 53, 0
3, 737099, Note_on_c, 0, 41, 0
3, 737099, Note_on_c, 0, 48, 0
3, 737100, Note_on_c, 0, 33, 0
3, 737100, Note_on_c, 0, 45, 63
3, 737280, Note_on_c, 0, 45, 0
3, 737280, Note_on_c, 0, 48, 80
3, 737280, Note_on_c, 0, 52, 80
3, 737280, Note_on_c, 0, 33, 48
3, 737460, Note_on_c, 0, 33, 0
3, 737460, Note_on_c, 0, 45, 60
3, 737639, Note_on_c, 0, 52, 0
3, 737639, Note_on_c, 0, 48, 0
3, 737640, Note_on_c, 0, 45, 0
3, 737640, Note_on_c, 0, 33, 45
3, 737820, Note_on_c, 0, 33, 0
3, 737820, Note_on_c, 0, 45, 65
3, 738000, Note_on_c, 0, 45, 0
3, 738000, Note_on_c, 0, 41, 94
3, 738000, Note_on_c, 0, 48, 94
3, 738000, Note_on_c, 0, 53, 94
3, 738000, Note_on_c, 0, 33, 46
3, 738180, Note_on_c, 0, 33, 0
3, 738180, Note_on_c, 0, 45, 67
3, 738360, Note_on_c, 0, 45, 0
3, 738360, Note_on_c, 0, 33, 49
3, 738540, Note_on_c, 0, 33, 0
3, 738540, Note_on_c, 0, 45, 61
3, 738720, Note_on_c, 0, 45, 0
3, 738720, Note_on_c, 0, 33, 50
3, 738900, Note_on_c, 0, 33, 0
3, 738900, Note_on_c, 0, 45, 66
3, 739080, Note_on_c, 0, 45, 0
3, 739080, Note_on_c, 0, 33, 44
3, 739260, Note_on_c, 0, 33, 0
3, 739260, Note_on_c, 0, 45, 67
3, 739440, Note_on_c, 0, 45, 0
3, 739440, Note_on_c, 0, 53, 0
3, 739440, Note_on_c, 0, 48, 0
3, 739440, Note_on_c, 0, 41, 0
3, 739440, Note_on_c, 0, 48, 78
3, 739440, Note_on_c, 0, 52, 78
3, 739440, Note_on_c, 0, 33, 51
3, 739620, Note_on_c, 0, 33, 0
3, 739620, Note_on_c, 0, 45, 65
3, 739800, Note_on_c, 0, 45, 0
3, 739800, Note_on_c, 0, 33, 53
3, 739980, Note_on_c, 0, 33, 0
3, 739980, Note_on_c, 0, 45, 64
3, 740073, Note_on_c, 0, 52, 0
3, 740073, Note_on_c, 0, 48, 0
3, 740160, Note_on_c, 0, 45, 0
3, 740160, Note_on_c, 0, 50, 70
3, 740160, Note_on_c, 0, 38, 46
3, 740160, Note_on_c, 0, 33, 54
3, 740340, Note_on_c, 0, 33, 0
3, 740340, Note_on_c, 0, 45, 65
3, 740520, Note_on_c, 0, 45, 0
3, 740520, Note_on_c, 0, 33, 46
3, 740700, Note_on_c, 0, 33, 0
3, 740700, Note_on_c, 0, 45, 64
3, 740793, Note_on_c, 0, 50, 0
3, 740880, Note_on_c, 0, 45, 0
3, 740880, Note_on_c, 0, 38, 0
3, 740880, Note_on_c, 0, 41, 61
3, 740880, Note_on_c, 0, 48, 61
3, 740880, Note_on_c, 0, 33, 48
3, 741059, Note_on_c, 0, 48, 0
3, 741059, Note_on_c, 0, 41, 0
3, 741060, Note_on_c, 0, 33, 0
3, 741060, Note_on_c, 0, 45, 61
3, 741240, Note_on_c, 0, 45, 0
3, 741240, Note_on_c, 0, 50, 57
3, 741240, Note_on_c, 0, 38, 43
3, 741240, Note_on_c, 0, 33, 44
3, 741419, Note_on_c, 0, 50, 0
3, 741420, Note_on_c, 0, 33, 0
3, 741420, Note_on_c, 0, 45, 58
3, 741600, Note_on_c, 0, 45, 0
3, 741600, Note_on_c, 0, 38, 0
3, 741600, Note_on_c, 0, 41, 50
3, 741600, Note_on_c, 0, 45, 50
3, 741600, Note_on_c, 0, 48, 50
3, 741960, Note_on_c, 0, 48, 47
3, 742139, Note_on_c, 0, 48, 0
3, 742320, Note_on_c, 0, 53, 55
3, 742320, Note_on_c, 0, 33, 46
3, 742499, Note_on_c, 0, 33, 0
3, 742499, Note_on_c, 0, 53, 0
3, 742680, Note_on_c, 0, 52, 53
3, 742859, Note_on_c, 0, 52, 0
3, 743040, Note_on_c, 0, 53, 56
3, 743219, Note_on_c, 0, 53, 0
3, 743400, Note_on_c, 0, 48, 0
3, 743400, Note_on_c, 0, 45, 0
3, 743400, Note_on_c, 0, 41, 0
3, 743400, Note_on_c, 0, 45, 55
3, 743580, Note_on_c, 0, 45, 0
3, 743580, Note_on_c, 0, 47, 60
3, 743760, Note_on_c, 0, 47, 0
3, 743760, Note_on_c, 0, 48, 64
3, 743760, Note_on_c, 0, 33, 51
3, 743939, Note_on_c, 0, 33, 0
3, 743939, Note_on_c, 0, 48, 0
3, 744120, Note_on_c, 0, 41, 72
3, 744300, Note_on_c, 0, 41, 0
3, 744300, Note_on_c, 0, 43, 77
3, 744480, Note_on_c, 0, 43, 0
3, 744480, Note_on_c, 0, 44, 116
3, 744480, Note_on_c, 0, 41, 51
3, 744480, Note_on_c, 0, 33, 44
3, 744659, Note_on_c, 0, 41, 0
3, 744660, Note_on_c, 0, 44, 0
3, 744660, Note_on_c, 0, 44, 96
3, 744840, Note_on_c, 0, 44, 0
3, 744840, Note_on_c, 0, 41, 88
3, 745020, Note_on_c, 0, 41, 0
3, 745020, Note_on_c, 0, 43, 97
3, 745200, Note_on_c, 0, 43, 0
3, 745200, Note_on_c, 0, 44, 95
3, 745200, Note_on_c, 0, 41, 49
3, 745379, Note_on_c, 0, 41, 0
3, 745380, Note_on_c, 0, 44, 0
3, 745380, Note_on_c, 0, 44, 96
3, 745560, Note_on_c, 0, 44, 0
3, 745560, Note_on_c, 0, 41, 91
3, 745740, Note_on_c, 0, 41, 0
3, 745740, Note_on_c, 0, 43, 93
3, 745920, Note_on_c, 0, 43, 0
3, 745920, Note_on_c, 0, 44, 92
3, 745920, Note_on_c, 0, 41, 48
3, 746099, Note_on_c, 0, 41, 0
3, 746100, Note_on_c, 0, 44, 0
3, 746100, Note_on_c, 0, 44, 91
3, 746280, Note_on_c, 0, 44, 0
3, 746280, Note_on_c, 0, 41, 90
3, 746460, Note_on_c, 0, 41, 0
3, 746460, Note_on_c, 0, 43, 89
3, 746640, Note_on_c, 0, 43, 0
3, 746640, Note_on_c, 0, 44, 88
3, 746640, Note_on_c, 0, 41, 48
3, 746819, Note_on_c, 0, 41, 0
3, 746820, Note_on_c, 0, 44, 0
3, 746820, Note_on_c, 0, 44, 87
3, 747000, Note_on_c, 0, 44, 0
3, 747000, Note_on_c, 0, 41, 86
3, 747180, Note_on_c, 0, 41, 0
3, 747180, Note_on_c, 0, 43, 85
3, 747360, Note_on_c, 0, 43, 0
3, 747360, Note_on_c, 0, 44, 84
3, 747360, Note_on_c, 0, 41, 46
3, 747539, Note_on_c, 0, 41, 0
3, 747720, Note_on_c, 0, 44, 0
3, 747720, Note_on_c, 0, 41, 82
3, 747900, Note_on_c, 0, 41, 0
3, 747900, Note_on_c, 0, 43, 81
3, 748080, Note_on_c, 0, 43, 0
3, 748080, Note_on_c, 0, 44, 80
3, 748080, Note_on_c, 0, 41, 49
3, 748259, Note_on_c, 0, 41, 0
3, 748440, Note_on_c, 0, 44, 0
3, 748440, Note_on_c, 0, 43, 77
3, 748800, Note_on_c, 0, 43, 0
3, 748800, Note_on_c, 0, 44, 75
3, 748800, Note_on_c, 0, 41, 48
3, 748979, Note_on_c, 0, 41, 0
3, 748980, Note_on_c, 0, 44, 0
3, 748980, Note_on_c, 0, 44, 74
3, 749160, Note_on_c, 0, 44, 0
3, 749160, Note_on_c, 0, 41, 73
3, 749340, Note_on_c, 0, 41, 0
3, 749340, Note_on_c, 0, 43, 72
3, 749520, Note_on_c, 0, 43, 0
3, 749520, Note_on_c, 0, 44, 71
3, 749520, Note_on_c, 0, 41, 53
3, 749699, Note_on_c, 0, 41, 0
3, 749880, Note_on_c, 0, 44, 0
3, 749880, Note_on_c, 0, 41, 69
3, 750060, Note_on_c, 0, 41, 0
3, 750060, Note_on_c, 0, 44, 68
3, 750240, Note_on_c, 0, 44, 0
3, 750240, Note_on_c, 0, 33, 0
3, 750240, Note_on_c, 0, 45, 67
3, 750240, Note_on_c, 0, 33, 48
3, 750600, Note_on_c, 0, 33, 0
3, 750600, Note_on_c, 0, 45, 0
3, 750600, Note_on_c, 0, 55, 92
3, 750779, Note_on_c, 0, 55, 0
3, 750960, Note_on_c, 0, 57, 85
3, 751139, Note_on_c, 0, 57, 0
3, 751320, Note_on_c, 0, 53, 73
3, 751499, Note_on_c, 0, 53, 0
3, 751680, Note_on_c, 0, 55, 80
3, 751859, Note_on_c, 0, 55, 0
3, 752040, Note_on_c, 0, 52, 76
3, 752219, Note_on_c, 0, 52, 0
3, 752400, Note_on_c, 0, 53, 79
3, 752579, Note_on_c, 0, 53, 0
3, 752760, Note_on_c, 0, 51, 71
3, 752939, Note_on_c, 0, 51, 0
3, 753120, Note_on_c, 0, 52, 77
3, 753299, Note_on_c, 0, 52, 0
3, 754200, Note_on_c, 0, 47, 78
3, 754379, Note_on_c, 0, 47, 0
3, 754560, Note_on_c, 0, 48, 74
3, 754739, Note_on_c, 0, 48, 0
3, 755640, Note_on_c, 0, 44, 61
3, 755819, Note_on_c, 0, 44, 0
3, 756000, Note_on_c, 0, 45, 57
3, 756179, Note_on_c, 0, 45, 0
3, 756720, Note_on_c, 0, 42, 55
3, 756899, Note_on_c, 0, 42, 0
3, 757440, Note_on_c, 0, 43, 48
3, 757619, Note_on_c, 0, 43, 0
3, 758160, Note_on_c, 0, 40, 41
3, 758339, Note_on_c, 0, 40, 0
3, 758880, Note_on_c, 0, 41, 34
3, 759059, Note_on_c, 0, 41, 0
3, 760320, Note_on_c, 0, 38, 25
3, 760499, Note_on_c, 0, 38, 0
3, 762480, Note_on_c, 0, 39, 26
3, 762659, Note_on_c, 0, 39, 0
3, 764280, Note_on_c, 0, 52, 46
3, 764280, Note_on_c, 0, 40, 28
3, 764400, Note_on_c, 0, 52, 0
3, 764400, Note_on_c, 0, 48, 48
3, 764519, Note_on_c, 0, 48, 0
3, 764519, Note_on_c, 0, 52, 51
3, 764640, Note_on_c, 0, 52, 0
3, 764640, Note_on_c, 0, 40, 0
3, 764640, Note_on_c, 0, 45, 44
3, 764640, Note_on_c, 0, 33, 31
3, 765360, Note_on_c, 0, 33, 0
3, 765360, Note_on_c, 0, 45, 0
3, 765360, End_track
0, 0, End_of_file
