0, 0, Header, 1, 3, 360
1, 0, Start_track
1, 0, Title_t, "untitled"
1, 0, Time_signature, 6, 3, 12, 8
1, 0, Key_signature, 0, "major"
1, 0, Tempo, 208333
1, 110160, Key_signature, -6, "major"
1, 194400, Tempo, 208333
1, 194580, Tempo, 211260
1, 194760, Tempo, 214270
1, 194940, Tempo, 217155
1, 195120, Tempo, 220556
1, 195300, Tempo, 223839
1, 195480, Tempo, 226757
1, 195660, Tempo, 230707
1, 195840, Tempo, 234302
1, 196020, Tempo, 237248
1, 196200, Tempo, 241838
1, 196380, Tempo, 245791
1, 196560, Tempo, 250000
1, 197640, Tempo, 208333
1, 197730, Tempo, 208333
1, 197820, Tempo, 208333
1, 197910, Tempo, 208333
1, 198000, Tempo, 208333
1, 198090, Tempo, 208333
1, 198180, Tempo, 208333
1, 198270, Tempo, 208333
1, 198360, Tempo, 208333
1, 198450, Tempo, 208333
1, 198540, Tempo, 208333
1, 248400, Key_signature, -3, "major"
1, 497340, Tempo, 208333
1, 497484, Tempo, 211864
1, 497627, Tempo, 215517
1, 497771, Tempo, 219298
1, 497914, Tempo, 223214
1, 498057, Tempo, 227273
1, 498201, Tempo, 231481
1, 498344, Tempo, 235849
1, 498488, Tempo, 240385
1, 498631, Tempo, 245098
1, 498774, Tempo, 250000
1, 498960, Tempo, 250000
1, 499050, Tempo, 245098
1, 499140, Tempo, 240385
1, 499230, Tempo, 235849
1, 499320, Tempo, 231481
1, 499410, Tempo, 227273
1, 499500, Tempo, 223214
1, 499590, Tempo, 219298
1, 499680, Tempo, 215517
1, 499770, Tempo, 211864
1, 499860, Tempo, 208333
1, 628560, Tempo, 208333
1, 628740, Tempo, 211528
1, 628920, Tempo, 214823
1, 629100, Tempo, 218221
1, 629280, Tempo, 221729
1, 629460, Tempo, 225352
1, 629640, Tempo, 229095
1, 629820, Tempo, 232964
1, 630000, Tempo, 236967
1, 630180, Tempo, 241109
1, 630360, Tempo, 245399
1, 630540, Tempo, 250000
1, 630540, End_track
2, 0, Start_track
2, 0, Title_t, "Piano"
2, 0, Control_c, 0, 0, 0
2, 0, Control_c, 0, 7, 105
2, 0, Control_c, 0, 10, 79
2, 0, Control_c, 0, 91, 72
2, 0, Control_c, 0, 91, 72
2, 0, Control_c, 0, 10, 60
2, 0, Control_c, 0, 32, 0
2, 1, Program_c, 0, 0
2, 2700, Note_on_c, 0, 36, 58
2, 3187, Note_on_c, 0, 36, 0
2, 3240, Note_on_c, 0, 38, 74
2, 3727, Note_on_c, 0, 38, 0
2, 3780, Note_on_c, 0, 43, 63
2, 3780, Note_on_c, 0, 48, 63
2, 3780, Note_on_c, 0, 55, 63
2, 3780, Note_on_c, 0, 39, 73
2, 3943, Note_on_c, 0, 39, 0
2, 3960, Note_on_c, 0, 38, 62
2, 4123, Note_on_c, 0, 38, 0
2, 4140, Note_on_c, 0, 39, 69
2, 4303, Note_on_c, 0, 39, 0
2, 4320, Note_on_c, 0, 41, 74
2, 4807, Note_on_c, 0, 41, 0
2, 4860, Note_on_c, 0, 43, 71
2, 5347, Note_on_c, 0, 43, 0
2, 5400, Note_on_c, 0, 44, 74
2, 5887, Note_on_c, 0, 44, 0
2, 5887, Note_on_c, 0, 43, 0
2, 5887, Note_on_c, 0, 55, 0
2, 5887, Note_on_c, 0, 48, 0
2, 5940, Note_on_c, 0, 48, 84
2, 5940, Note_on_c, 0, 51, 82
2, 5940, Note_on_c, 0, 60, 81
2, 5940, Note_on_c, 0, 46, 75
2, 6103, Note_on_c, 0, 46, 0
2, 6120, Note_on_c, 0, 44, 61
2, 6283, Note_on_c, 0, 44, 0
2, 6300, Note_on_c, 0, 46, 71
2, 6463, Note_on_c, 0, 46, 0
2, 6480, Note_on_c, 0, 48, 76
2, 6967, Note_on_c, 0, 48, 0
2, 7020, Note_on_c, 0, 47, 62
2, 7490, Note_on_c, 0, 51, 0
2, 7490, Note_on_c, 0, 48, 0
2, 7490, Note_on_c, 0, 60, 0
2, 7507, Note_on_c, 0, 47, 0
2, 7560, Note_on_c, 0, 56, 59
2, 7560, Note_on_c, 0, 51, 66
2, 7560, Note_on_c, 0, 63, 65
2, 7560, Note_on_c, 0, 48, 70
2, 7723, Note_on_c, 0, 48, 0
2, 7740, Note_on_c, 0, 47, 64
2, 7903, Note_on_c, 0, 47, 0
2, 7920, Note_on_c, 0, 48, 68
2, 8047, Note_on_c, 0, 56, 0
2, 8083, Note_on_c, 0, 48, 0
2, 8100, Note_on_c, 0, 58, 69
2, 8100, Note_on_c, 0, 50, 72
2, 8587, Note_on_c, 0, 50, 0
2, 8587, Note_on_c, 0, 58, 0
2, 8640, Note_on_c, 0, 51, 0
2, 8640, Note_on_c, 0, 60, 74
2, 8640, Note_on_c, 0, 51, 67
2, 8640, Note_on_c, 0, 51, 75
2, 8803, Note_on_c, 0, 51, 0
2, 8820, Note_on_c, 0, 48, 62
2, 8983, Note_on_c, 0, 48, 0
2, 9000, Note_on_c, 0, 50, 70
2, 9127, Note_on_c, 0, 51, 0
2, 9127, Note_on_c, 0, 63, 0
2, 9127, Note_on_c, 0, 60, 0
2, 9163, Note_on_c, 0, 50, 0
2, 9180, Note_on_c, 0, 60, 65
2, 9180, Note_on_c, 0, 55, 78
2, 9180, Note_on_c, 0, 67, 80
2, 9180, Note_on_c, 0, 51, 71
2, 9667, Note_on_c, 0, 51, 0
2, 9667, Note_on_c, 0, 60, 0
2, 9720, Note_on_c, 0, 61, 71
2, 9720, Note_on_c, 0, 52, 72
2, 9883, Note_on_c, 0, 52, 0
2, 9900, Note_on_c, 0, 51, 64
2, 10063, Note_on_c, 0, 51, 0
2, 10080, Note_on_c, 0, 52, 70
2, 10207, Note_on_c, 0, 61, 0
2, 10207, Note_on_c, 0, 55, 0
2, 10207, Note_on_c, 0, 67, 0
2, 10243, Note_on_c, 0, 52, 0
2, 10260, Note_on_c, 0, 62, 71
2, 10260, Note_on_c, 0, 56, 76
2, 10260, Note_on_c, 0, 60, 73
2, 10260, Note_on_c, 0, 68, 76
2, 10260, Note_on_c, 0, 53, 69
2, 10747, Note_on_c, 0, 53, 0
2, 10747, Note_on_c, 0, 62, 0
2, 10800, Note_on_c, 0, 63, 71
2, 10800, Note_on_c, 0, 54, 75
2, 10963, Note_on_c, 0, 54, 0
2, 10980, Note_on_c, 0, 53, 64
2, 11143, Note_on_c, 0, 53, 0
2, 11160, Note_on_c, 0, 54, 70
2, 11287, Note_on_c, 0, 63, 0
2, 11287, Note_on_c, 0, 56, 0
2, 11287, Note_on_c, 0, 68, 0
2, 11287, Note_on_c, 0, 60, 0
2, 11323, Note_on_c, 0, 54, 0
2, 11340, Note_on_c, 0, 64, 69
2, 11340, Note_on_c, 0, 60, 78
2, 11340, Note_on_c, 0, 72, 82
2, 11340, Note_on_c, 0, 55, 73
2, 11503, Note_on_c, 0, 55, 0
2, 11520, Note_on_c, 0, 54, 62
2, 11683, Note_on_c, 0, 54, 0
2, 11700, Note_on_c, 0, 55, 69
2, 11827, Note_on_c, 0, 64, 0
2, 11863, Note_on_c, 0, 55, 0
2, 11880, Note_on_c, 0, 65, 75
2, 11880, Note_on_c, 0, 56, 72
2, 12043, Note_on_c, 0, 56, 0
2, 12060, Note_on_c, 0, 55, 65
2, 12223, Note_on_c, 0, 55, 0
2, 12240, Note_on_c, 0, 56, 68
2, 12367, Note_on_c, 0, 65, 0
2, 12367, Note_on_c, 0, 60, 0
2, 12367, Note_on_c, 0, 72, 0
2, 12403, Note_on_c, 0, 56, 0
2, 12420, Note_on_c, 0, 66, 71
2, 12420, Note_on_c, 0, 63, 78
2, 12420, Note_on_c, 0, 72, 78
2, 12420, Note_on_c, 0, 75, 80
2, 12420, Note_on_c, 0, 58, 76
2, 12420, Note_on_c, 0, 60, 57
2, 12583, Note_on_c, 0, 58, 0
2, 12600, Note_on_c, 0, 57, 63
2, 12763, Note_on_c, 0, 57, 0
2, 12780, Note_on_c, 0, 56, 63
2, 12907, Note_on_c, 0, 66, 0
2, 12943, Note_on_c, 0, 56, 0
2, 12960, Note_on_c, 0, 67, 72
2, 12960, Note_on_c, 0, 55, 75
2, 12960, Note_on_c, 0, 60, 76
2, 13123, Note_on_c, 0, 55, 0
2, 13123, Note_on_c, 0, 75, 0
2, 13123, Note_on_c, 0, 60, 0
2, 13123, Note_on_c, 0, 72, 0
2, 13123, Note_on_c, 0, 63, 0
2, 13123, Note_on_c, 0, 67, 0
2, 13500, Note_on_c, 0, 48, 57
2, 13500, Note_on_c, 0, 51, 58
2, 13500, Note_on_c, 0, 55, 59
2, 13680, Note_on_c, 0, 63, 59
2, 13680, Note_on_c, 0, 66, 59
2, 13825, Note_on_c, 0, 55, 0
2, 13825, Note_on_c, 0, 51, 0
2, 13825, Note_on_c, 0, 48, 0
2, 13843, Note_on_c, 0, 66, 0
2, 13843, Note_on_c, 0, 63, 0
2, 13860, Note_on_c, 0, 60, 69
2, 13860, Note_on_c, 0, 67, 68
2, 14023, Note_on_c, 0, 67, 0
2, 14023, Note_on_c, 0, 60, 0
2, 14040, Note_on_c, 0, 48, 62
2, 14040, Note_on_c, 0, 51, 61
2, 14040, Note_on_c, 0, 57, 60
2, 14217, Note_on_c, 0, 57, 0
2, 14217, Note_on_c, 0, 51, 0
2, 14217, Note_on_c, 0, 48, 0
2, 14220, Note_on_c, 0, 63, 58
2, 14220, Note_on_c, 0, 68, 57
2, 14383, Note_on_c, 0, 68, 0
2, 14383, Note_on_c, 0, 63, 0
2, 14400, Note_on_c, 0, 60, 69
2, 14400, Note_on_c, 0, 69, 68
2, 14563, Note_on_c, 0, 69, 0
2, 14563, Note_on_c, 0, 60, 0
2, 14580, Note_on_c, 0, 50, 59
2, 14580, Note_on_c, 0, 55, 56
2, 14580, Note_on_c, 0, 59, 59
2, 14757, Note_on_c, 0, 59, 0
2, 14757, Note_on_c, 0, 55, 0
2, 14757, Note_on_c, 0, 50, 0
2, 14760, Note_on_c, 0, 67, 59
2, 14760, Note_on_c, 0, 70, 59
2, 14923, Note_on_c, 0, 70, 0
2, 14923, Note_on_c, 0, 67, 0
2, 14940, Note_on_c, 0, 62, 67
2, 14940, Note_on_c, 0, 71, 69
2, 15103, Note_on_c, 0, 71, 0
2, 15103, Note_on_c, 0, 62, 0
2, 15120, Note_on_c, 0, 51, 63
2, 15120, Note_on_c, 0, 55, 60
2, 15120, Note_on_c, 0, 60, 62
2, 15297, Note_on_c, 0, 55, 0
2, 15297, Note_on_c, 0, 60, 0
2, 15297, Note_on_c, 0, 51, 0
2, 15300, Note_on_c, 0, 67, 57
2, 15300, Note_on_c, 0, 71, 59
2, 15463, Note_on_c, 0, 71, 0
2, 15463, Note_on_c, 0, 67, 0
2, 15480, Note_on_c, 0, 63, 67
2, 15480, Note_on_c, 0, 72, 68
2, 15643, Note_on_c, 0, 72, 0
2, 15643, Note_on_c, 0, 63, 0
2, 15660, Note_on_c, 0, 50, 59
2, 15660, Note_on_c, 0, 55, 60
2, 15660, Note_on_c, 0, 62, 59
2, 15837, Note_on_c, 0, 62, 0
2, 15837, Note_on_c, 0, 55, 0
2, 15837, Note_on_c, 0, 50, 0
2, 15840, Note_on_c, 0, 67, 57
2, 15840, Note_on_c, 0, 71, 57
2, 16003, Note_on_c, 0, 71, 0
2, 16003, Note_on_c, 0, 67, 0
2, 16020, Note_on_c, 0, 62, 71
2, 16020, Note_on_c, 0, 74, 70
2, 16183, Note_on_c, 0, 74, 0
2, 16183, Note_on_c, 0, 62, 0
2, 16200, Note_on_c, 0, 51, 59
2, 16200, Note_on_c, 0, 55, 62
2, 16200, Note_on_c, 0, 61, 61
2, 16200, Note_on_c, 0, 63, 62
2, 16377, Note_on_c, 0, 63, 0
2, 16377, Note_on_c, 0, 55, 0
2, 16377, Note_on_c, 0, 61, 0
2, 16377, Note_on_c, 0, 51, 0
2, 16380, Note_on_c, 0, 67, 57
2, 16380, Note_on_c, 0, 73, 57
2, 16543, Note_on_c, 0, 73, 0
2, 16543, Note_on_c, 0, 67, 0
2, 16560, Note_on_c, 0, 63, 71
2, 16560, Note_on_c, 0, 75, 68
2, 16723, Note_on_c, 0, 75, 0
2, 16723, Note_on_c, 0, 63, 0
2, 16740, Note_on_c, 0, 52, 59
2, 16740, Note_on_c, 0, 55, 57
2, 16740, Note_on_c, 0, 61, 56
2, 16740, Note_on_c, 0, 64, 57
2, 16917, Note_on_c, 0, 64, 0
2, 16917, Note_on_c, 0, 55, 0
2, 16917, Note_on_c, 0, 61, 0
2, 16917, Note_on_c, 0, 52, 0
2, 16920, Note_on_c, 0, 67, 56
2, 16920, Note_on_c, 0, 73, 56
2, 17083, Note_on_c, 0, 73, 0
2, 17083, Note_on_c, 0, 67, 0
2, 17100, Note_on_c, 0, 64, 72
2, 17100, Note_on_c, 0, 76, 71
2, 17263, Note_on_c, 0, 76, 0
2, 17263, Note_on_c, 0, 64, 0
2, 17280, Note_on_c, 0, 53, 62
2, 17280, Note_on_c, 0, 56, 62
2, 17280, Note_on_c, 0, 60, 63
2, 17280, Note_on_c, 0, 65, 62
2, 17457, Note_on_c, 0, 65, 0
2, 17457, Note_on_c, 0, 60, 0
2, 17457, Note_on_c, 0, 56, 0
2, 17457, Note_on_c, 0, 53, 0
2, 17460, Note_on_c, 0, 72, 56
2, 17460, Note_on_c, 0, 76, 57
2, 17623, Note_on_c, 0, 76, 0
2, 17623, Note_on_c, 0, 72, 0
2, 17640, Note_on_c, 0, 68, 69
2, 17640, Note_on_c, 0, 77, 69
2, 17803, Note_on_c, 0, 77, 0
2, 17803, Note_on_c, 0, 68, 0
2, 17820, Note_on_c, 0, 55, 59
2, 17820, Note_on_c, 0, 60, 58
2, 17820, Note_on_c, 0, 67, 57
2, 17997, Note_on_c, 0, 67, 0
2, 17997, Note_on_c, 0, 60, 0
2, 17997, Note_on_c, 0, 55, 0
2, 18000, Note_on_c, 0, 72, 57
2, 18000, Note_on_c, 0, 76, 60
2, 18163, Note_on_c, 0, 76, 0
2, 18163, Note_on_c, 0, 72, 0
2, 18180, Note_on_c, 0, 67, 69
2, 18180, Note_on_c, 0, 79, 71
2, 18343, Note_on_c, 0, 79, 0
2, 18343, Note_on_c, 0, 67, 0
2, 18360, Note_on_c, 0, 56, 59
2, 18360, Note_on_c, 0, 60, 60
2, 18360, Note_on_c, 0, 66, 61
2, 18360, Note_on_c, 0, 68, 62
2, 18537, Note_on_c, 0, 68, 0
2, 18537, Note_on_c, 0, 56, 0
2, 18537, Note_on_c, 0, 60, 0
2, 18537, Note_on_c, 0, 66, 0
2, 18540, Note_on_c, 0, 72, 58
2, 18540, Note_on_c, 0, 78, 59
2, 18703, Note_on_c, 0, 78, 0
2, 18703, Note_on_c, 0, 72, 0
2, 18720, Note_on_c, 0, 68, 69
2, 18720, Note_on_c, 0, 80, 70
2, 18883, Note_on_c, 0, 80, 0
2, 18883, Note_on_c, 0, 68, 0
2, 18900, Note_on_c, 0, 57, 56
2, 18900, Note_on_c, 0, 60, 60
2, 18900, Note_on_c, 0, 66, 59
2, 18900, Note_on_c, 0, 69, 57
2, 19077, Note_on_c, 0, 69, 0
2, 19077, Note_on_c, 0, 57, 0
2, 19077, Note_on_c, 0, 60, 0
2, 19077, Note_on_c, 0, 66, 0
2, 19080, Note_on_c, 0, 72, 57
2, 19080, Note_on_c, 0, 78, 59
2, 19243, Note_on_c, 0, 78, 0
2, 19243, Note_on_c, 0, 72, 0
2, 19260, Note_on_c, 0, 69, 70
2, 19260, Note_on_c, 0, 81, 72
2, 19423, Note_on_c, 0, 81, 0
2, 19423, Note_on_c, 0, 69, 0
2, 19440, Note_on_c, 0, 72, 76
2, 19440, Note_on_c, 0, 74, 78
2, 19440, Note_on_c, 0, 77, 77
2, 19440, Note_on_c, 0, 80, 76
2, 19440, Note_on_c, 0, 84, 77
2, 19440, Note_on_c, 0, 56, 62
2, 19440, Note_on_c, 0, 60, 61
2, 19440, Note_on_c, 0, 65, 61
2, 19440, Note_on_c, 0, 68, 61
2, 19617, Note_on_c, 0, 68, 0
2, 19617, Note_on_c, 0, 65, 0
2, 19617, Note_on_c, 0, 56, 0
2, 19617, Note_on_c, 0, 60, 0
2, 19765, Note_on_c, 0, 84, 0
2, 19765, Note_on_c, 0, 72, 0
2, 19765, Note_on_c, 0, 77, 0
2, 19765, Note_on_c, 0, 80, 0
2, 19765, Note_on_c, 0, 74, 0
2, 20520, Note_on_c, 0, 71, 60
2, 20520, Note_on_c, 0, 74, 62
2, 20520, Note_on_c, 0, 77, 61
2, 20520, Note_on_c, 0, 79, 61
2, 20520, Note_on_c, 0, 83, 61
2, 20520, Note_on_c, 0, 55, 60
2, 20520, Note_on_c, 0, 59, 61
2, 20520, Note_on_c, 0, 65, 61
2, 20520, Note_on_c, 0, 67, 61
2, 20845, Note_on_c, 0, 67, 0
2, 20845, Note_on_c, 0, 74, 0
2, 20845, Note_on_c, 0, 77, 0
2, 20845, Note_on_c, 0, 65, 0
2, 20845, Note_on_c, 0, 79, 0
2, 20845, Note_on_c, 0, 71, 0
2, 20845, Note_on_c, 0, 59, 0
2, 20845, Note_on_c, 0, 55, 0
2, 20845, Note_on_c, 0, 83, 0
2, 24300, Note_on_c, 0, 67, 60
2, 24300, Note_on_c, 0, 72, 60
2, 24300, Note_on_c, 0, 75, 61
2, 24300, Note_on_c, 0, 79, 61
2, 24300, Note_on_c, 0, 55, 60
2, 24300, Note_on_c, 0, 60, 59
2, 24300, Note_on_c, 0, 63, 63
2, 24389, Note_on_c, 0, 63, 0
2, 24389, Note_on_c, 0, 60, 0
2, 24389, Note_on_c, 0, 55, 0
2, 24389, Note_on_c, 0, 67, 0
2, 24389, Note_on_c, 0, 72, 0
2, 24389, Note_on_c, 0, 75, 0
2, 24389, Note_on_c, 0, 79, 0
2, 24840, Note_on_c, 0, 68, 60
2, 24840, Note_on_c, 0, 72, 62
2, 24840, Note_on_c, 0, 77, 62
2, 24840, Note_on_c, 0, 80, 59
2, 24840, Note_on_c, 0, 56, 63
2, 24840, Note_on_c, 0, 60, 60
2, 24840, Note_on_c, 0, 65, 60
2, 24929, Note_on_c, 0, 65, 0
2, 24929, Note_on_c, 0, 60, 0
2, 24929, Note_on_c, 0, 56, 0
2, 24929, Note_on_c, 0, 68, 0
2, 24929, Note_on_c, 0, 72, 0
2, 24929, Note_on_c, 0, 77, 0
2, 24929, Note_on_c, 0, 80, 0
2, 25380, Note_on_c, 0, 70, 61
2, 25380, Note_on_c, 0, 72, 60
2, 25380, Note_on_c, 0, 79, 62
2, 25380, Note_on_c, 0, 82, 60
2, 25380, Note_on_c, 0, 58, 61
2, 25380, Note_on_c, 0, 60, 59
2, 25380, Note_on_c, 0, 67, 59
2, 25469, Note_on_c, 0, 67, 0
2, 25469, Note_on_c, 0, 60, 0
2, 25469, Note_on_c, 0, 58, 0
2, 25469, Note_on_c, 0, 70, 0
2, 25469, Note_on_c, 0, 72, 0
2, 25469, Note_on_c, 0, 79, 0
2, 25469, Note_on_c, 0, 82, 0
2, 25920, Note_on_c, 0, 67, 63
2, 25920, Note_on_c, 0, 72, 61
2, 25920, Note_on_c, 0, 75, 59
2, 25920, Note_on_c, 0, 79, 62
2, 25920, Note_on_c, 0, 55, 61
2, 25920, Note_on_c, 0, 60, 62
2, 25920, Note_on_c, 0, 63, 61
2, 26009, Note_on_c, 0, 63, 0
2, 26009, Note_on_c, 0, 60, 0
2, 26009, Note_on_c, 0, 55, 0
2, 26009, Note_on_c, 0, 67, 0
2, 26009, Note_on_c, 0, 72, 0
2, 26009, Note_on_c, 0, 75, 0
2, 26009, Note_on_c, 0, 79, 0
2, 26460, Note_on_c, 0, 67, 60
2, 26460, Note_on_c, 0, 72, 59
2, 26460, Note_on_c, 0, 75, 60
2, 26460, Note_on_c, 0, 55, 62
2, 26460, Note_on_c, 0, 60, 62
2, 26460, Note_on_c, 0, 63, 61
2, 26549, Note_on_c, 0, 63, 0
2, 26549, Note_on_c, 0, 67, 0
2, 26549, Note_on_c, 0, 75, 0
2, 26549, Note_on_c, 0, 72, 0
2, 26549, Note_on_c, 0, 60, 0
2, 26549, Note_on_c, 0, 55, 0
2, 27000, Note_on_c, 0, 65, 59
2, 27000, Note_on_c, 0, 68, 61
2, 27000, Note_on_c, 0, 74, 62
2, 27000, Note_on_c, 0, 53, 62
2, 27000, Note_on_c, 0, 56, 61
2, 27000, Note_on_c, 0, 62, 61
2, 27089, Note_on_c, 0, 62, 0
2, 27089, Note_on_c, 0, 53, 0
2, 27089, Note_on_c, 0, 65, 0
2, 27089, Note_on_c, 0, 68, 0
2, 27089, Note_on_c, 0, 74, 0
2, 27089, Note_on_c, 0, 56, 0
2, 27540, Note_on_c, 0, 62, 62
2, 27540, Note_on_c, 0, 65, 60
2, 27540, Note_on_c, 0, 71, 59
2, 27540, Note_on_c, 0, 50, 61
2, 27540, Note_on_c, 0, 53, 61
2, 27540, Note_on_c, 0, 59, 63
2, 27629, Note_on_c, 0, 59, 0
2, 27629, Note_on_c, 0, 50, 0
2, 27629, Note_on_c, 0, 62, 0
2, 27629, Note_on_c, 0, 65, 0
2, 27629, Note_on_c, 0, 71, 0
2, 27629, Note_on_c, 0, 53, 0
2, 28080, Note_on_c, 0, 63, 63
2, 28080, Note_on_c, 0, 67, 62
2, 28080, Note_on_c, 0, 72, 62
2, 28080, Note_on_c, 0, 51, 62
2, 28080, Note_on_c, 0, 55, 63
2, 28080, Note_on_c, 0, 60, 60
2, 28169, Note_on_c, 0, 55, 0
2, 28169, Note_on_c, 0, 72, 0
2, 28169, Note_on_c, 0, 63, 0
2, 28169, Note_on_c, 0, 67, 0
2, 28169, Note_on_c, 0, 60, 0
2, 28169, Note_on_c, 0, 51, 0
2, 28620, Note_on_c, 0, 55, 56
2, 28620, Note_on_c, 0, 60, 56
2, 28620, Note_on_c, 0, 63, 57
2, 28620, Note_on_c, 0, 67, 59
2, 28800, Note_on_c, 0, 75, 60
2, 28800, Note_on_c, 0, 79, 57
2, 28945, Note_on_c, 0, 67, 0
2, 28945, Note_on_c, 0, 63, 0
2, 28945, Note_on_c, 0, 60, 0
2, 28945, Note_on_c, 0, 55, 0
2, 28963, Note_on_c, 0, 75, 0
2, 28963, Note_on_c, 0, 79, 0
2, 28980, Note_on_c, 0, 72, 53
2, 29143, Note_on_c, 0, 72, 0
2, 29160, Note_on_c, 0, 56, 59
2, 29160, Note_on_c, 0, 60, 63
2, 29160, Note_on_c, 0, 65, 61
2, 29160, Note_on_c, 0, 68, 63
2, 29340, Note_on_c, 0, 77, 59
2, 29340, Note_on_c, 0, 80, 57
2, 29485, Note_on_c, 0, 68, 0
2, 29485, Note_on_c, 0, 65, 0
2, 29485, Note_on_c, 0, 60, 0
2, 29485, Note_on_c, 0, 56, 0
2, 29503, Note_on_c, 0, 77, 0
2, 29503, Note_on_c, 0, 80, 0
2, 29520, Note_on_c, 0, 72, 51
2, 29683, Note_on_c, 0, 72, 0
2, 29700, Note_on_c, 0, 58, 57
2, 29700, Note_on_c, 0, 60, 60
2, 29700, Note_on_c, 0, 67, 58
2, 29700, Note_on_c, 0, 70, 59
2, 29880, Note_on_c, 0, 79, 59
2, 29880, Note_on_c, 0, 82, 59
2, 30025, Note_on_c, 0, 70, 0
2, 30025, Note_on_c, 0, 67, 0
2, 30025, Note_on_c, 0, 60, 0
2, 30025, Note_on_c, 0, 58, 0
2, 30043, Note_on_c, 0, 79, 0
2, 30043, Note_on_c, 0, 82, 0
2, 30060, Note_on_c, 0, 72, 47
2, 30223, Note_on_c, 0, 72, 0
2, 30240, Note_on_c, 0, 55, 62
2, 30240, Note_on_c, 0, 60, 59
2, 30240, Note_on_c, 0, 63, 62
2, 30240, Note_on_c, 0, 67, 61
2, 30420, Note_on_c, 0, 75, 56
2, 30420, Note_on_c, 0, 79, 59
2, 30565, Note_on_c, 0, 67, 0
2, 30565, Note_on_c, 0, 63, 0
2, 30565, Note_on_c, 0, 60, 0
2, 30565, Note_on_c, 0, 55, 0
2, 30583, Note_on_c, 0, 75, 0
2, 30583, Note_on_c, 0, 79, 0
2, 30600, Note_on_c, 0, 72, 53
2, 30763, Note_on_c, 0, 72, 0
2, 30780, Note_on_c, 0, 55, 58
2, 30780, Note_on_c, 0, 60, 58
2, 30780, Note_on_c, 0, 63, 58
2, 30960, Note_on_c, 0, 72, 59
2, 30960, Note_on_c, 0, 75, 58
2, 31105, Note_on_c, 0, 63, 0
2, 31105, Note_on_c, 0, 55, 0
2, 31105, Note_on_c, 0, 60, 0
2, 31123, Note_on_c, 0, 72, 0
2, 31123, Note_on_c, 0, 75, 0
2, 31140, Note_on_c, 0, 67, 47
2, 31303, Note_on_c, 0, 67, 0
2, 31320, Note_on_c, 0, 53, 60
2, 31320, Note_on_c, 0, 56, 60
2, 31320, Note_on_c, 0, 62, 60
2, 31500, Note_on_c, 0, 68, 56
2, 31500, Note_on_c, 0, 74, 57
2, 31645, Note_on_c, 0, 62, 0
2, 31645, Note_on_c, 0, 56, 0
2, 31645, Note_on_c, 0, 53, 0
2, 31663, Note_on_c, 0, 74, 0
2, 31663, Note_on_c, 0, 68, 0
2, 31680, Note_on_c, 0, 65, 49
2, 31843, Note_on_c, 0, 65, 0
2, 31860, Note_on_c, 0, 50, 56
2, 31860, Note_on_c, 0, 53, 59
2, 31860, Note_on_c, 0, 59, 57
2, 32040, Note_on_c, 0, 65, 58
2, 32040, Note_on_c, 0, 71, 58
2, 32185, Note_on_c, 0, 59, 0
2, 32185, Note_on_c, 0, 53, 0
2, 32185, Note_on_c, 0, 50, 0
2, 32203, Note_on_c, 0, 71, 0
2, 32203, Note_on_c, 0, 65, 0
2, 32220, Note_on_c, 0, 62, 47
2, 32383, Note_on_c, 0, 62, 0
2, 32400, Note_on_c, 0, 51, 60
2, 32400, Note_on_c, 0, 55, 61
2, 32400, Note_on_c, 0, 60, 60
2, 32580, Note_on_c, 0, 67, 56
2, 32580, Note_on_c, 0, 72, 59
2, 32725, Note_on_c, 0, 55, 0
2, 32725, Note_on_c, 0, 60, 0
2, 32725, Note_on_c, 0, 51, 0
2, 32743, Note_on_c, 0, 72, 0
2, 32743, Note_on_c, 0, 67, 0
2, 32760, Note_on_c, 0, 63, 48
2, 32923, Note_on_c, 0, 63, 0
2, 32940, Note_on_c, 0, 67, 78
2, 32940, Note_on_c, 0, 72, 81
2, 32940, Note_on_c, 0, 51, 59
2, 32940, Note_on_c, 0, 55, 59
2, 32940, Note_on_c, 0, 60, 58
2, 33265, Note_on_c, 0, 55, 0
2, 33265, Note_on_c, 0, 51, 0
2, 33265, Note_on_c, 0, 72, 0
2, 33265, Note_on_c, 0, 60, 0
2, 33265, Note_on_c, 0, 67, 0
2, 33300, Note_on_c, 0, 74, 74
2, 33300, Note_on_c, 0, 62, 71
2, 33463, Note_on_c, 0, 62, 0
2, 33463, Note_on_c, 0, 74, 0
2, 33480, Note_on_c, 0, 67, 74
2, 33480, Note_on_c, 0, 72, 73
2, 33480, Note_on_c, 0, 75, 73
2, 33480, Note_on_c, 0, 55, 75
2, 33480, Note_on_c, 0, 60, 74
2, 33480, Note_on_c, 0, 63, 74
2, 33643, Note_on_c, 0, 63, 0
2, 33643, Note_on_c, 0, 67, 0
2, 33643, Note_on_c, 0, 75, 0
2, 33643, Note_on_c, 0, 72, 0
2, 33643, Note_on_c, 0, 60, 0
2, 33643, Note_on_c, 0, 55, 0
2, 34020, Note_on_c, 0, 68, 62
2, 34020, Note_on_c, 0, 72, 62
2, 34020, Note_on_c, 0, 77, 61
2, 34020, Note_on_c, 0, 56, 61
2, 34020, Note_on_c, 0, 60, 60
2, 34020, Note_on_c, 0, 65, 60
2, 34109, Note_on_c, 0, 65, 0
2, 34109, Note_on_c, 0, 68, 0
2, 34109, Note_on_c, 0, 77, 0
2, 34109, Note_on_c, 0, 72, 0
2, 34109, Note_on_c, 0, 60, 0
2, 34109, Note_on_c, 0, 56, 0
2, 34560, Note_on_c, 0, 69, 61
2, 34560, Note_on_c, 0, 72, 61
2, 34560, Note_on_c, 0, 75, 60
2, 34560, Note_on_c, 0, 57, 60
2, 34560, Note_on_c, 0, 60, 61
2, 34560, Note_on_c, 0, 63, 63
2, 34649, Note_on_c, 0, 63, 0
2, 34649, Note_on_c, 0, 69, 0
2, 34649, Note_on_c, 0, 75, 0
2, 34649, Note_on_c, 0, 72, 0
2, 34649, Note_on_c, 0, 60, 0
2, 34649, Note_on_c, 0, 57, 0
2, 35100, Note_on_c, 0, 63, 62
2, 35100, Note_on_c, 0, 69, 62
2, 35100, Note_on_c, 0, 72, 61
2, 35100, Note_on_c, 0, 51, 63
2, 35100, Note_on_c, 0, 57, 60
2, 35100, Note_on_c, 0, 60, 61
2, 35189, Note_on_c, 0, 57, 0
2, 35189, Note_on_c, 0, 72, 0
2, 35189, Note_on_c, 0, 63, 0
2, 35189, Note_on_c, 0, 69, 0
2, 35189, Note_on_c, 0, 60, 0
2, 35189, Note_on_c, 0, 51, 0
2, 35640, Note_on_c, 0, 65, 62
2, 35640, Note_on_c, 0, 71, 61
2, 35640, Note_on_c, 0, 74, 62
2, 35640, Note_on_c, 0, 53, 63
2, 35640, Note_on_c, 0, 59, 61
2, 35640, Note_on_c, 0, 62, 62
2, 35729, Note_on_c, 0, 62, 0
2, 35729, Note_on_c, 0, 53, 0
2, 35729, Note_on_c, 0, 65, 0
2, 35729, Note_on_c, 0, 71, 0
2, 35729, Note_on_c, 0, 74, 0
2, 35729, Note_on_c, 0, 59, 0
2, 36180, Note_on_c, 0, 62, 61
2, 36180, Note_on_c, 0, 65, 62
2, 36180, Note_on_c, 0, 71, 62
2, 36180, Note_on_c, 0, 50, 63
2, 36180, Note_on_c, 0, 53, 61
2, 36180, Note_on_c, 0, 59, 61
2, 36269, Note_on_c, 0, 59, 0
2, 36269, Note_on_c, 0, 50, 0
2, 36269, Note_on_c, 0, 62, 0
2, 36269, Note_on_c, 0, 65, 0
2, 36269, Note_on_c, 0, 71, 0
2, 36269, Note_on_c, 0, 53, 0
2, 36720, Note_on_c, 0, 63, 61
2, 36720, Note_on_c, 0, 67, 61
2, 36720, Note_on_c, 0, 72, 59
2, 36720, Note_on_c, 0, 51, 63
2, 36720, Note_on_c, 0, 55, 62
2, 36720, Note_on_c, 0, 60, 60
2, 36809, Note_on_c, 0, 55, 0
2, 36809, Note_on_c, 0, 72, 0
2, 36809, Note_on_c, 0, 63, 0
2, 36809, Note_on_c, 0, 67, 0
2, 36809, Note_on_c, 0, 60, 0
2, 36809, Note_on_c, 0, 51, 0
2, 37260, Note_on_c, 0, 51, 57
2, 37260, Note_on_c, 0, 55, 58
2, 37260, Note_on_c, 0, 60, 57
2, 37440, Note_on_c, 0, 63, 57
2, 37440, Note_on_c, 0, 72, 58
2, 37585, Note_on_c, 0, 55, 0
2, 37585, Note_on_c, 0, 60, 0
2, 37585, Note_on_c, 0, 51, 0
2, 37603, Note_on_c, 0, 72, 0
2, 37603, Note_on_c, 0, 63, 0
2, 37620, Note_on_c, 0, 67, 69
2, 37620, Note_on_c, 0, 74, 68
2, 37620, Note_on_c, 0, 62, 70
2, 37783, Note_on_c, 0, 62, 0
2, 37783, Note_on_c, 0, 74, 0
2, 37783, Note_on_c, 0, 67, 0
2, 37800, Note_on_c, 0, 55, 73
2, 37800, Note_on_c, 0, 60, 73
2, 37800, Note_on_c, 0, 63, 74
2, 37980, Note_on_c, 0, 72, 58
2, 37980, Note_on_c, 0, 75, 57
2, 38125, Note_on_c, 0, 63, 0
2, 38125, Note_on_c, 0, 55, 0
2, 38125, Note_on_c, 0, 60, 0
2, 38143, Note_on_c, 0, 72, 0
2, 38143, Note_on_c, 0, 75, 0
2, 38160, Note_on_c, 0, 67, 49
2, 38323, Note_on_c, 0, 67, 0
2, 38340, Note_on_c, 0, 56, 56
2, 38340, Note_on_c, 0, 60, 57
2, 38340, Note_on_c, 0, 65, 58
2, 38520, Note_on_c, 0, 72, 59
2, 38520, Note_on_c, 0, 77, 59
2, 38665, Note_on_c, 0, 65, 0
2, 38665, Note_on_c, 0, 56, 0
2, 38665, Note_on_c, 0, 60, 0
2, 38683, Note_on_c, 0, 72, 0
2, 38683, Note_on_c, 0, 77, 0
2, 38700, Note_on_c, 0, 68, 48
2, 38863, Note_on_c, 0, 68, 0
2, 38880, Note_on_c, 0, 56, 62
2, 38880, Note_on_c, 0, 60, 61
2, 38880, Note_on_c, 0, 63, 62
2, 39060, Note_on_c, 0, 72, 59
2, 39060, Note_on_c, 0, 75, 59
2, 39205, Note_on_c, 0, 63, 0
2, 39205, Note_on_c, 0, 56, 0
2, 39205, Note_on_c, 0, 60, 0
2, 39223, Note_on_c, 0, 72, 0
2, 39223, Note_on_c, 0, 75, 0
2, 39240, Note_on_c, 0, 68, 52
2, 39403, Note_on_c, 0, 68, 0
2, 39420, Note_on_c, 0, 57, 60
2, 39420, Note_on_c, 0, 60, 58
2, 39600, Note_on_c, 0, 69, 57
2, 39600, Note_on_c, 0, 72, 58
2, 39745, Note_on_c, 0, 57, 0
2, 39745, Note_on_c, 0, 60, 0
2, 39763, Note_on_c, 0, 69, 0
2, 39763, Note_on_c, 0, 72, 0
2, 39780, Note_on_c, 0, 62, 46
2, 39943, Note_on_c, 0, 62, 0
2, 39960, Note_on_c, 0, 50, 59
2, 39960, Note_on_c, 0, 57, 61
2, 39960, Note_on_c, 0, 60, 61
2, 39960, Note_on_c, 0, 62, 60
2, 40140, Note_on_c, 0, 69, 59
2, 40140, Note_on_c, 0, 72, 58
2, 40140, Note_on_c, 0, 74, 59
2, 40285, Note_on_c, 0, 62, 0
2, 40285, Note_on_c, 0, 57, 0
2, 40285, Note_on_c, 0, 60, 0
2, 40285, Note_on_c, 0, 50, 0
2, 40303, Note_on_c, 0, 72, 0
2, 40303, Note_on_c, 0, 74, 0
2, 40303, Note_on_c, 0, 69, 0
2, 40320, Note_on_c, 0, 62, 46
2, 40483, Note_on_c, 0, 62, 0
2, 40500, Note_on_c, 0, 55, 56
2, 40500, Note_on_c, 0, 59, 58
2, 40680, Note_on_c, 0, 65, 57
2, 40680, Note_on_c, 0, 71, 57
2, 40825, Note_on_c, 0, 59, 0
2, 40825, Note_on_c, 0, 55, 0
2, 40843, Note_on_c, 0, 71, 0
2, 40843, Note_on_c, 0, 65, 0
2, 40860, Note_on_c, 0, 62, 47
2, 41023, Note_on_c, 0, 62, 0
2, 41040, Note_on_c, 0, 48, 61
2, 41040, Note_on_c, 0, 51, 60
2, 41040, Note_on_c, 0, 55, 60
2, 41040, Note_on_c, 0, 60, 63
2, 41220, Note_on_c, 0, 67, 56
2, 41220, Note_on_c, 0, 72, 59
2, 41365, Note_on_c, 0, 55, 0
2, 41365, Note_on_c, 0, 51, 0
2, 41365, Note_on_c, 0, 60, 0
2, 41365, Note_on_c, 0, 48, 0
2, 41383, Note_on_c, 0, 72, 0
2, 41383, Note_on_c, 0, 67, 0
2, 41400, Note_on_c, 0, 63, 46
2, 41563, Note_on_c, 0, 63, 0
2, 41940, Note_on_c, 0, 55, 57
2, 41940, Note_on_c, 0, 43, 56
2, 42103, Note_on_c, 0, 43, 0
2, 42103, Note_on_c, 0, 55, 0
2, 42120, Note_on_c, 0, 48, 74
2, 42120, Note_on_c, 0, 36, 75
2, 44210, Note_on_c, 0, 36, 0
2, 44210, Note_on_c, 0, 48, 0
2, 44280, Note_on_c, 0, 65, 117
2, 44280, Note_on_c, 0, 41, 117
2, 44280, Note_on_c, 0, 53, 117
2, 44767, Note_on_c, 0, 53, 0
2, 44767, Note_on_c, 0, 41, 0
2, 44767, Note_on_c, 0, 65, 0
2, 44820, Note_on_c, 0, 67, 103
2, 44820, Note_on_c, 0, 43, 103
2, 44820, Note_on_c, 0, 55, 101
2, 45307, Note_on_c, 0, 55, 0
2, 45307, Note_on_c, 0, 43, 0
2, 45307, Note_on_c, 0, 67, 0
2, 45360, Note_on_c, 0, 60, 84
2, 45360, Note_on_c, 0, 72, 86
2, 45360, Note_on_c, 0, 36, 63
2, 45360, Note_on_c, 0, 48, 65
2, 46260, Note_on_c, 0, 55, 57
2, 46260, Note_on_c, 0, 43, 60
2, 46370, Note_on_c, 0, 48, 0
2, 46370, Note_on_c, 0, 36, 0
2, 46370, Note_on_c, 0, 72, 0
2, 46370, Note_on_c, 0, 60, 0
2, 46423, Note_on_c, 0, 55, 0
2, 46423, Note_on_c, 0, 43, 0
2, 46440, Note_on_c, 0, 48, 55
2, 46440, Note_on_c, 0, 36, 55
2, 46927, Note_on_c, 0, 36, 0
2, 46927, Note_on_c, 0, 48, 0
2, 46980, Note_on_c, 0, 43, 54
2, 46980, Note_on_c, 0, 31, 58
2, 47143, Note_on_c, 0, 31, 0
2, 47143, Note_on_c, 0, 43, 0
2, 47160, Note_on_c, 0, 44, 67
2, 47160, Note_on_c, 0, 32, 67
2, 47323, Note_on_c, 0, 32, 0
2, 47323, Note_on_c, 0, 44, 0
2, 47340, Note_on_c, 0, 43, 62
2, 47340, Note_on_c, 0, 31, 63
2, 47503, Note_on_c, 0, 31, 0
2, 47503, Note_on_c, 0, 43, 0
2, 47520, Note_on_c, 0, 24, 79
2, 47520, Note_on_c, 0, 36, 78
2, 47683, Note_on_c, 0, 36, 0
2, 47683, Note_on_c, 0, 24, 0
2, 48060, Note_on_c, 0, 51, 80
2, 48060, Note_on_c, 0, 27, 79
2, 48060, Note_on_c, 0, 39, 81
2, 48547, Note_on_c, 0, 39, 0
2, 48547, Note_on_c, 0, 27, 0
2, 48547, Note_on_c, 0, 51, 0
2, 48600, Note_on_c, 0, 53, 97
2, 48600, Note_on_c, 0, 29, 98
2, 48600, Note_on_c, 0, 41, 98
2, 49087, Note_on_c, 0, 41, 0
2, 49087, Note_on_c, 0, 29, 0
2, 49087, Note_on_c, 0, 53, 0
2, 49140, Note_on_c, 0, 55, 96
2, 49140, Note_on_c, 0, 31, 99
2, 49140, Note_on_c, 0, 43, 96
2, 49627, Note_on_c, 0, 43, 0
2, 49627, Note_on_c, 0, 31, 0
2, 49627, Note_on_c, 0, 55, 0
2, 49680, Note_on_c, 0, 48, 48
2, 49680, Note_on_c, 0, 60, 48
2, 49680, Note_on_c, 0, 24, 78
2, 49680, Note_on_c, 0, 36, 76
2, 50220, Note_on_c, 0, 70, 62
2, 50383, Note_on_c, 0, 70, 0
2, 50400, Note_on_c, 0, 68, 58
2, 50563, Note_on_c, 0, 68, 0
2, 50580, Note_on_c, 0, 67, 61
2, 50690, Note_on_c, 0, 36, 0
2, 50690, Note_on_c, 0, 60, 0
2, 50690, Note_on_c, 0, 48, 0
2, 50690, Note_on_c, 0, 24, 0
2, 50743, Note_on_c, 0, 67, 0
2, 50760, Note_on_c, 0, 60, 55
2, 50760, Note_on_c, 0, 60, 64
2, 50760, Note_on_c, 0, 51, 89
2, 50760, Note_on_c, 0, 44, 57
2, 50923, Note_on_c, 0, 60, 0
2, 50940, Note_on_c, 0, 63, 72
2, 51103, Note_on_c, 0, 63, 0
2, 51120, Note_on_c, 0, 72, 82
2, 51283, Note_on_c, 0, 72, 0
2, 51300, Note_on_c, 0, 68, 63
2, 51463, Note_on_c, 0, 68, 0
2, 51480, Note_on_c, 0, 67, 62
2, 51643, Note_on_c, 0, 67, 0
2, 51660, Note_on_c, 0, 65, 60
2, 51770, Note_on_c, 0, 60, 0
2, 51770, Note_on_c, 0, 44, 0
2, 51823, Note_on_c, 0, 65, 0
2, 51840, Note_on_c, 0, 58, 53
2, 51840, Note_on_c, 0, 58, 62
2, 51840, Note_on_c, 0, 43, 64
2, 52003, Note_on_c, 0, 58, 0
2, 52020, Note_on_c, 0, 63, 71
2, 52183, Note_on_c, 0, 63, 0
2, 52200, Note_on_c, 0, 70, 82
2, 52363, Note_on_c, 0, 70, 0
2, 52380, Note_on_c, 0, 67, 65
2, 52543, Note_on_c, 0, 67, 0
2, 52560, Note_on_c, 0, 65, 59
2, 52723, Note_on_c, 0, 65, 0
2, 52740, Note_on_c, 0, 63, 61
2, 52850, Note_on_c, 0, 58, 0
2, 52850, Note_on_c, 0, 43, 0
2, 52850, Note_on_c, 0, 51, 0
2, 52903, Note_on_c, 0, 63, 0
2, 52920, Note_on_c, 0, 56, 54
2, 52920, Note_on_c, 0, 56, 65
2, 52920, Note_on_c, 0, 48, 61
2, 52920, Note_on_c, 0, 41, 64
2, 53083, Note_on_c, 0, 56, 0
2, 53100, Note_on_c, 0, 62, 76
2, 53263, Note_on_c, 0, 62, 0
2, 53280, Note_on_c, 0, 68, 78
2, 53443, Note_on_c, 0, 68, 0
2, 53460, Note_on_c, 0, 65, 63
2, 53623, Note_on_c, 0, 65, 0
2, 53640, Note_on_c, 0, 63, 61
2, 53803, Note_on_c, 0, 63, 0
2, 53820, Note_on_c, 0, 62, 59
2, 53930, Note_on_c, 0, 41, 0
2, 53930, Note_on_c, 0, 56, 0
2, 53983, Note_on_c, 0, 62, 0
2, 54000, Note_on_c, 0, 55, 52
2, 54000, Note_on_c, 0, 55, 62
2, 54000, Note_on_c, 0, 39, 62
2, 54163, Note_on_c, 0, 55, 0
2, 54180, Note_on_c, 0, 60, 72
2, 54343, Note_on_c, 0, 60, 0
2, 54360, Note_on_c, 0, 67, 81
2, 54523, Note_on_c, 0, 67, 0
2, 54540, Note_on_c, 0, 63, 63
2, 54703, Note_on_c, 0, 63, 0
2, 54720, Note_on_c, 0, 62, 60
2, 54883, Note_on_c, 0, 62, 0
2, 54900, Note_on_c, 0, 60, 62
2, 55010, Note_on_c, 0, 48, 0
2, 55010, Note_on_c, 0, 39, 0
2, 55010, Note_on_c, 0, 55, 0
2, 55063, Note_on_c, 0, 60, 0
2, 55080, Note_on_c, 0, 59, 65
2, 55080, Note_on_c, 0, 59, 76
2, 55080, Note_on_c, 0, 38, 51
2, 55243, Note_on_c, 0, 59, 0
2, 55260, Note_on_c, 0, 65, 77
2, 55423, Note_on_c, 0, 65, 0
2, 55440, Note_on_c, 0, 67, 72
2, 55567, Note_on_c, 0, 38, 0
2, 55567, Note_on_c, 0, 59, 0
2, 55603, Note_on_c, 0, 67, 0
2, 55620, Note_on_c, 0, 57, 52
2, 55620, Note_on_c, 0, 57, 63
2, 55620, Note_on_c, 0, 36, 59
2, 55783, Note_on_c, 0, 57, 0
2, 55800, Note_on_c, 0, 63, 72
2, 55963, Note_on_c, 0, 63, 0
2, 55980, Note_on_c, 0, 67, 76
2, 56107, Note_on_c, 0, 36, 0
2, 56107, Note_on_c, 0, 57, 0
2, 56143, Note_on_c, 0, 67, 0
2, 56160, Note_on_c, 0, 65, 67
2, 56160, Note_on_c, 0, 43, 79
2, 56160, Note_on_c, 0, 35, 59
2, 56323, Note_on_c, 0, 65, 0
2, 56340, Note_on_c, 0, 55, 49
2, 56340, Note_on_c, 0, 55, 60
2, 56503, Note_on_c, 0, 55, 0
2, 56520, Note_on_c, 0, 67, 84
2, 56647, Note_on_c, 0, 35, 0
2, 56665, Note_on_c, 0, 55, 0
2, 56683, Note_on_c, 0, 67, 0
2, 56700, Note_on_c, 0, 65, 66
2, 56700, Note_on_c, 0, 38, 70
2, 56863, Note_on_c, 0, 65, 0
2, 56880, Note_on_c, 0, 63, 60
2, 57043, Note_on_c, 0, 63, 0
2, 57060, Note_on_c, 0, 62, 62
2, 57187, Note_on_c, 0, 38, 0
2, 57223, Note_on_c, 0, 62, 0
2, 57240, Note_on_c, 0, 63, 72
2, 57240, Note_on_c, 0, 36, 71
2, 57403, Note_on_c, 0, 63, 0
2, 57420, Note_on_c, 0, 54, 50
2, 57420, Note_on_c, 0, 54, 59
2, 57583, Note_on_c, 0, 54, 0
2, 57600, Note_on_c, 0, 65, 83
2, 57745, Note_on_c, 0, 54, 0
2, 57763, Note_on_c, 0, 65, 0
2, 57780, Note_on_c, 0, 63, 66
2, 57943, Note_on_c, 0, 63, 0
2, 57960, Note_on_c, 0, 62, 62
2, 58123, Note_on_c, 0, 62, 0
2, 58140, Note_on_c, 0, 60, 58
2, 58250, Note_on_c, 0, 43, 0
2, 58303, Note_on_c, 0, 60, 0
2, 58320, Note_on_c, 0, 36, 0
2, 58320, Note_on_c, 0, 59, 75
2, 58320, Note_on_c, 0, 62, 74
2, 58320, Note_on_c, 0, 31, 71
2, 58320, Note_on_c, 0, 43, 67
2, 58483, Note_on_c, 0, 43, 0
2, 58483, Note_on_c, 0, 62, 0
2, 58483, Note_on_c, 0, 31, 0
2, 58483, Note_on_c, 0, 59, 0
2, 58860, Note_on_c, 0, 79, 56
2, 58860, Note_on_c, 0, 91, 57
2, 58860, Note_on_c, 0, 31, 58
2, 58860, Note_on_c, 0, 43, 56
2, 59347, Note_on_c, 0, 43, 0
2, 59347, Note_on_c, 0, 91, 0
2, 59347, Note_on_c, 0, 31, 0
2, 59347, Note_on_c, 0, 79, 0
2, 59400, Note_on_c, 0, 75, 83
2, 59400, Note_on_c, 0, 87, 81
2, 59400, Note_on_c, 0, 27, 76
2, 59400, Note_on_c, 0, 39, 75
2, 59940, Note_on_c, 0, 71, 58
2, 59940, Note_on_c, 0, 75, 59
2, 59940, Note_on_c, 0, 79, 56
2, 59940, Note_on_c, 0, 83, 60
2, 59940, Note_on_c, 0, 51, 58
2, 59940, Note_on_c, 0, 55, 56
2, 59940, Note_on_c, 0, 59, 57
2, 60410, Note_on_c, 0, 39, 0
2, 60410, Note_on_c, 0, 27, 0
2, 60410, Note_on_c, 0, 87, 0
2, 60410, Note_on_c, 0, 75, 0
2, 60427, Note_on_c, 0, 79, 0
2, 60427, Note_on_c, 0, 55, 0
2, 60427, Note_on_c, 0, 75, 0
2, 60427, Note_on_c, 0, 59, 0
2, 60427, Note_on_c, 0, 71, 0
2, 60427, Note_on_c, 0, 83, 0
2, 60427, Note_on_c, 0, 51, 0
2, 60480, Note_on_c, 0, 70, 63
2, 60480, Note_on_c, 0, 75, 62
2, 60480, Note_on_c, 0, 79, 61
2, 60480, Note_on_c, 0, 82, 62
2, 60480, Note_on_c, 0, 49, 88
2, 60480, Note_on_c, 0, 51, 88
2, 60480, Note_on_c, 0, 55, 88
2, 60480, Note_on_c, 0, 58, 87
2, 61490, Note_on_c, 0, 58, 0
2, 61490, Note_on_c, 0, 55, 0
2, 61490, Note_on_c, 0, 51, 0
2, 61490, Note_on_c, 0, 49, 0
2, 61560, Note_on_c, 0, 70, 0
2, 61560, Note_on_c, 0, 75, 0
2, 61560, Note_on_c, 0, 79, 0
2, 61560, Note_on_c, 0, 82, 0
2, 61560, Note_on_c, 0, 68, 68
2, 61560, Note_on_c, 0, 71, 67
2, 61560, Note_on_c, 0, 75, 68
2, 61560, Note_on_c, 0, 80, 68
2, 61560, Note_on_c, 0, 47, 68
2, 61560, Note_on_c, 0, 51, 69
2, 61560, Note_on_c, 0, 56, 67
2, 62640, Note_on_c, 0, 56, 0
2, 62640, Note_on_c, 0, 51, 0
2, 62640, Note_on_c, 0, 80, 0
2, 62640, Note_on_c, 0, 68, 0
2, 62640, Note_on_c, 0, 71, 0
2, 62640, Note_on_c, 0, 75, 0
2, 62640, Note_on_c, 0, 47, 0
2, 62640, Note_on_c, 0, 67, 68
2, 62640, Note_on_c, 0, 70, 69
2, 62640, Note_on_c, 0, 75, 68
2, 62640, Note_on_c, 0, 79, 67
2, 62640, Note_on_c, 0, 46, 91
2, 62640, Note_on_c, 0, 51, 89
2, 62640, Note_on_c, 0, 55, 89
2, 63180, Note_on_c, 0, 75, 58
2, 63180, Note_on_c, 0, 87, 58
2, 63180, Note_on_c, 0, 27, 56
2, 63180, Note_on_c, 0, 39, 57
2, 63650, Note_on_c, 0, 55, 0
2, 63650, Note_on_c, 0, 51, 0
2, 63650, Note_on_c, 0, 46, 0
2, 63667, Note_on_c, 0, 27, 0
2, 63667, Note_on_c, 0, 87, 0
2, 63667, Note_on_c, 0, 39, 0
2, 63667, Note_on_c, 0, 75, 0
2, 63720, Note_on_c, 0, 79, 0
2, 63720, Note_on_c, 0, 70, 0
2, 63720, Note_on_c, 0, 75, 0
2, 63720, Note_on_c, 0, 67, 0
2, 63720, Note_on_c, 0, 72, 107
2, 63720, Note_on_c, 0, 84, 106
2, 63720, Note_on_c, 0, 24, 69
2, 63720, Note_on_c, 0, 36, 72
2, 64260, Note_on_c, 0, 68, 56
2, 64260, Note_on_c, 0, 72, 56
2, 64260, Note_on_c, 0, 75, 58
2, 64260, Note_on_c, 0, 80, 59
2, 64260, Note_on_c, 0, 48, 57
2, 64260, Note_on_c, 0, 51, 58
2, 64260, Note_on_c, 0, 56, 58
2, 64730, Note_on_c, 0, 36, 0
2, 64730, Note_on_c, 0, 24, 0
2, 64730, Note_on_c, 0, 84, 0
2, 64730, Note_on_c, 0, 72, 0
2, 64747, Note_on_c, 0, 75, 0
2, 64747, Note_on_c, 0, 51, 0
2, 64747, Note_on_c, 0, 72, 0
2, 64747, Note_on_c, 0, 56, 0
2, 64747, Note_on_c, 0, 68, 0
2, 64747, Note_on_c, 0, 80, 0
2, 64747, Note_on_c, 0, 48, 0
2, 64800, Note_on_c, 0, 67, 67
2, 64800, Note_on_c, 0, 72, 66
2, 64800, Note_on_c, 0, 75, 67
2, 64800, Note_on_c, 0, 79, 67
2, 64800, Note_on_c, 0, 46, 65
2, 64800, Note_on_c, 0, 48, 63
2, 64800, Note_on_c, 0, 51, 63
2, 64800, Note_on_c, 0, 55, 64
2, 65810, Note_on_c, 0, 55, 0
2, 65810, Note_on_c, 0, 51, 0
2, 65810, Note_on_c, 0, 48, 0
2, 65810, Note_on_c, 0, 46, 0
2, 65880, Note_on_c, 0, 67, 0
2, 65880, Note_on_c, 0, 72, 0
2, 65880, Note_on_c, 0, 75, 0
2, 65880, Note_on_c, 0, 79, 0
2, 65880, Note_on_c, 0, 65, 62
2, 65880, Note_on_c, 0, 68, 65
2, 65880, Note_on_c, 0, 72, 62
2, 65880, Note_on_c, 0, 77, 61
2, 65880, Note_on_c, 0, 44, 65
2, 65880, Note_on_c, 0, 48, 62
2, 65880, Note_on_c, 0, 53, 63
2, 66890, Note_on_c, 0, 53, 0
2, 66890, Note_on_c, 0, 48, 0
2, 66890, Note_on_c, 0, 77, 0
2, 66890, Note_on_c, 0, 65, 0
2, 66890, Note_on_c, 0, 68, 0
2, 66890, Note_on_c, 0, 72, 0
2, 66890, Note_on_c, 0, 44, 0
2, 66960, Note_on_c, 0, 60, 0
2, 66960, Note_on_c, 0, 63, 61
2, 66960, Note_on_c, 0, 67, 64
2, 66960, Note_on_c, 0, 72, 65
2, 66960, Note_on_c, 0, 75, 62
2, 66960, Note_on_c, 0, 43, 63
2, 66960, Note_on_c, 0, 48, 62
2, 66960, Note_on_c, 0, 51, 62
2, 67447, Note_on_c, 0, 51, 0
2, 67447, Note_on_c, 0, 43, 0
2, 67447, Note_on_c, 0, 67, 0
2, 67447, Note_on_c, 0, 72, 0
2, 67447, Note_on_c, 0, 63, 0
2, 67447, Note_on_c, 0, 48, 0
2, 67447, Note_on_c, 0, 75, 0
2, 67500, Note_on_c, 0, 65, 52
2, 67500, Note_on_c, 0, 65, 45
2, 67500, Note_on_c, 0, 49, 63
2, 67500, Note_on_c, 0, 41, 57
2, 67663, Note_on_c, 0, 65, 0
2, 67680, Note_on_c, 0, 58, 47
2, 67743, Note_on_c, 0, 49, 0
2, 67770, Note_on_c, 0, 48, 63
2, 67825, Note_on_c, 0, 65, 0
2, 67843, Note_on_c, 0, 58, 0
2, 67860, Note_on_c, 0, 56, 57
2, 68013, Note_on_c, 0, 48, 0
2, 68023, Note_on_c, 0, 56, 0
2, 68040, Note_on_c, 0, 67, 89
2, 68040, Note_on_c, 0, 67, 72
2, 68040, Note_on_c, 0, 48, 69
2, 68203, Note_on_c, 0, 67, 0
2, 68220, Note_on_c, 0, 60, 56
2, 68365, Note_on_c, 0, 67, 0
2, 68383, Note_on_c, 0, 60, 0
2, 68400, Note_on_c, 0, 58, 58
2, 68527, Note_on_c, 0, 41, 0
2, 68527, Note_on_c, 0, 48, 0
2, 68563, Note_on_c, 0, 58, 0
2, 68580, Note_on_c, 0, 68, 85
2, 68580, Note_on_c, 0, 68, 69
2, 68580, Note_on_c, 0, 49, 72
2, 68580, Note_on_c, 0, 41, 65
2, 68743, Note_on_c, 0, 68, 0
2, 68760, Note_on_c, 0, 60, 56
2, 68823, Note_on_c, 0, 49, 0
2, 68850, Note_on_c, 0, 48, 61
2, 68905, Note_on_c, 0, 68, 0
2, 68923, Note_on_c, 0, 60, 0
2, 68940, Note_on_c, 0, 58, 61
2, 69093, Note_on_c, 0, 48, 0
2, 69103, Note_on_c, 0, 58, 0
2, 69120, Note_on_c, 0, 65, 81
2, 69120, Note_on_c, 0, 65, 61
2, 69120, Note_on_c, 0, 48, 69
2, 69283, Note_on_c, 0, 65, 0
2, 69300, Note_on_c, 0, 58, 56
2, 69445, Note_on_c, 0, 65, 0
2, 69463, Note_on_c, 0, 58, 0
2, 69480, Note_on_c, 0, 56, 60
2, 69607, Note_on_c, 0, 41, 0
2, 69607, Note_on_c, 0, 48, 0
2, 69643, Note_on_c, 0, 56, 0
2, 69660, Note_on_c, 0, 68, 89
2, 69660, Note_on_c, 0, 68, 72
2, 69660, Note_on_c, 0, 48, 68
2, 69660, Note_on_c, 0, 41, 66
2, 69823, Note_on_c, 0, 68, 0
2, 69840, Note_on_c, 0, 65, 62
2, 69903, Note_on_c, 0, 48, 0
2, 69930, Note_on_c, 0, 49, 70
2, 69985, Note_on_c, 0, 68, 0
2, 70003, Note_on_c, 0, 65, 0
2, 70020, Note_on_c, 0, 56, 48
2, 70173, Note_on_c, 0, 49, 0
2, 70183, Note_on_c, 0, 56, 0
2, 70200, Note_on_c, 0, 70, 84
2, 70200, Note_on_c, 0, 70, 73
2, 70200, Note_on_c, 0, 48, 66
2, 70363, Note_on_c, 0, 70, 0
2, 70380, Note_on_c, 0, 64, 59
2, 70525, Note_on_c, 0, 70, 0
2, 70543, Note_on_c, 0, 64, 0
2, 70560, Note_on_c, 0, 58, 54
2, 70687, Note_on_c, 0, 41, 0
2, 70687, Note_on_c, 0, 48, 0
2, 70723, Note_on_c, 0, 58, 0
2, 70740, Note_on_c, 0, 72, 85
2, 70740, Note_on_c, 0, 72, 72
2, 70740, Note_on_c, 0, 48, 71
2, 70740, Note_on_c, 0, 41, 65
2, 70903, Note_on_c, 0, 72, 0
2, 70920, Note_on_c, 0, 64, 56
2, 70983, Note_on_c, 0, 48, 0
2, 71010, Note_on_c, 0, 49, 71
2, 71065, Note_on_c, 0, 72, 0
2, 71083, Note_on_c, 0, 64, 0
2, 71100, Note_on_c, 0, 60, 56
2, 71253, Note_on_c, 0, 49, 0
2, 71263, Note_on_c, 0, 60, 0
2, 71280, Note_on_c, 0, 68, 83
2, 71280, Note_on_c, 0, 68, 59
2, 71280, Note_on_c, 0, 41, 68
2, 71280, Note_on_c, 0, 48, 68
2, 71443, Note_on_c, 0, 68, 0
2, 71460, Note_on_c, 0, 65, 63
2, 71605, Note_on_c, 0, 41, 0
2, 71605, Note_on_c, 0, 48, 0
2, 71605, Note_on_c, 0, 68, 0
2, 71623, Note_on_c, 0, 65, 0
2, 71640, Note_on_c, 0, 60, 54
2, 71803, Note_on_c, 0, 60, 0
2, 71820, Note_on_c, 0, 62, 116
2, 71820, Note_on_c, 0, 68, 116
2, 71820, Note_on_c, 0, 72, 117
2, 71820, Note_on_c, 0, 41, 82
2, 71820, Note_on_c, 0, 48, 78
2, 71820, Note_on_c, 0, 56, 81
2, 72307, Note_on_c, 0, 56, 0
2, 72307, Note_on_c, 0, 72, 0
2, 72307, Note_on_c, 0, 62, 0
2, 72307, Note_on_c, 0, 68, 0
2, 72307, Note_on_c, 0, 41, 0
2, 72307, Note_on_c, 0, 48, 0
2, 72360, Note_on_c, 0, 68, 65
2, 72360, Note_on_c, 0, 68, 68
2, 72360, Note_on_c, 0, 50, 54
2, 72523, Note_on_c, 0, 68, 0
2, 72540, Note_on_c, 0, 65, 58
2, 72685, Note_on_c, 0, 68, 0
2, 72703, Note_on_c, 0, 65, 0
2, 72720, Note_on_c, 0, 60, 53
2, 72847, Note_on_c, 0, 50, 0
2, 72883, Note_on_c, 0, 60, 0
2, 72900, Note_on_c, 0, 62, 83
2, 72900, Note_on_c, 0, 68, 85
2, 72900, Note_on_c, 0, 72, 84
2, 72900, Note_on_c, 0, 41, 103
2, 72900, Note_on_c, 0, 48, 103
2, 72900, Note_on_c, 0, 56, 103
2, 73387, Note_on_c, 0, 56, 0
2, 73387, Note_on_c, 0, 72, 0
2, 73387, Note_on_c, 0, 62, 0
2, 73387, Note_on_c, 0, 68, 0
2, 73387, Note_on_c, 0, 41, 0
2, 73387, Note_on_c, 0, 48, 0
2, 73440, Note_on_c, 0, 68, 63
2, 73440, Note_on_c, 0, 68, 67
2, 73440, Note_on_c, 0, 50, 57
2, 73603, Note_on_c, 0, 68, 0
2, 73620, Note_on_c, 0, 65, 58
2, 73765, Note_on_c, 0, 68, 0
2, 73783, Note_on_c, 0, 65, 0
2, 73800, Note_on_c, 0, 60, 54
2, 73927, Note_on_c, 0, 50, 0
2, 73963, Note_on_c, 0, 60, 0
2, 73980, Note_on_c, 0, 62, 84
2, 73980, Note_on_c, 0, 68, 83
2, 73980, Note_on_c, 0, 72, 85
2, 73980, Note_on_c, 0, 41, 103
2, 73980, Note_on_c, 0, 48, 105
2, 73980, Note_on_c, 0, 56, 103
2, 74467, Note_on_c, 0, 56, 0
2, 74467, Note_on_c, 0, 72, 0
2, 74467, Note_on_c, 0, 62, 0
2, 74467, Note_on_c, 0, 68, 0
2, 74467, Note_on_c, 0, 41, 0
2, 74467, Note_on_c, 0, 48, 0
2, 74520, Note_on_c, 0, 68, 62
2, 74520, Note_on_c, 0, 68, 68
2, 74520, Note_on_c, 0, 50, 60
2, 74683, Note_on_c, 0, 68, 0
2, 74700, Note_on_c, 0, 65, 56
2, 74845, Note_on_c, 0, 68, 0
2, 74863, Note_on_c, 0, 65, 0
2, 74880, Note_on_c, 0, 60, 53
2, 75007, Note_on_c, 0, 50, 0
2, 75060, Note_on_c, 0, 68, 87
2, 75060, Note_on_c, 0, 72, 87
2, 75060, Note_on_c, 0, 32, 53
2, 75060, Note_on_c, 0, 39, 51
2, 75060, Note_on_c, 0, 44, 51
2, 76087, Note_on_c, 0, 72, 0
2, 76087, Note_on_c, 0, 68, 0
2, 76087, Note_on_c, 0, 60, 0
2, 76140, Note_on_c, 0, 51, 47
2, 76627, Note_on_c, 0, 51, 0
2, 76680, Note_on_c, 0, 56, 77
2, 77167, Note_on_c, 0, 56, 0
2, 77220, Note_on_c, 0, 60, 75
2, 78247, Note_on_c, 0, 60, 0
2, 78300, Note_on_c, 0, 50, 69
2, 78300, Note_on_c, 0, 62, 70
2, 78787, Note_on_c, 0, 62, 0
2, 78787, Note_on_c, 0, 50, 0
2, 78840, Note_on_c, 0, 51, 74
2, 78840, Note_on_c, 0, 63, 74
2, 79327, Note_on_c, 0, 63, 0
2, 79327, Note_on_c, 0, 51, 0
2, 79380, Note_on_c, 0, 56, 75
2, 79380, Note_on_c, 0, 68, 76
2, 79867, Note_on_c, 0, 68, 0
2, 79867, Note_on_c, 0, 56, 0
2, 79920, Note_on_c, 0, 60, 77
2, 79920, Note_on_c, 0, 72, 79
2, 80245, Note_on_c, 0, 32, 0
2, 80245, Note_on_c, 0, 44, 0
2, 80245, Note_on_c, 0, 39, 0
2, 80407, Note_on_c, 0, 72, 0
2, 80407, Note_on_c, 0, 60, 0
2, 80460, Note_on_c, 0, 62, 71
2, 80460, Note_on_c, 0, 68, 71
2, 80460, Note_on_c, 0, 72, 72
2, 80460, Note_on_c, 0, 74, 74
2, 80460, Note_on_c, 0, 50, 58
2, 80460, Note_on_c, 0, 56, 57
2, 80460, Note_on_c, 0, 60, 58
2, 80785, Note_on_c, 0, 60, 0
2, 80785, Note_on_c, 0, 56, 0
2, 80785, Note_on_c, 0, 74, 0
2, 80785, Note_on_c, 0, 62, 0
2, 80785, Note_on_c, 0, 68, 0
2, 80785, Note_on_c, 0, 72, 0
2, 80785, Note_on_c, 0, 50, 0
2, 81000, Note_on_c, 0, 63, 62
2, 81000, Note_on_c, 0, 68, 61
2, 81000, Note_on_c, 0, 72, 59
2, 81000, Note_on_c, 0, 75, 59
2, 81000, Note_on_c, 0, 51, 62
2, 81000, Note_on_c, 0, 56, 59
2, 81000, Note_on_c, 0, 60, 62
2, 81163, Note_on_c, 0, 60, 0
2, 81163, Note_on_c, 0, 56, 0
2, 81163, Note_on_c, 0, 51, 0
2, 81325, Note_on_c, 0, 63, 0
2, 81325, Note_on_c, 0, 68, 0
2, 81325, Note_on_c, 0, 72, 0
2, 81325, Note_on_c, 0, 75, 0
2, 81540, Note_on_c, 0, 60, 59
2, 81540, Note_on_c, 0, 63, 61
2, 81540, Note_on_c, 0, 68, 62
2, 81540, Note_on_c, 0, 72, 63
2, 81540, Note_on_c, 0, 48, 60
2, 81540, Note_on_c, 0, 51, 63
2, 81540, Note_on_c, 0, 56, 62
2, 81703, Note_on_c, 0, 56, 0
2, 81703, Note_on_c, 0, 51, 0
2, 81703, Note_on_c, 0, 48, 0
2, 81865, Note_on_c, 0, 60, 0
2, 81865, Note_on_c, 0, 63, 0
2, 81865, Note_on_c, 0, 68, 0
2, 81865, Note_on_c, 0, 72, 0
2, 82080, Note_on_c, 0, 60, 61
2, 82080, Note_on_c, 0, 63, 60
2, 82080, Note_on_c, 0, 68, 61
2, 82080, Note_on_c, 0, 44, 62
2, 82080, Note_on_c, 0, 48, 62
2, 82080, Note_on_c, 0, 51, 60
2, 82080, Note_on_c, 0, 56, 63
2, 82243, Note_on_c, 0, 56, 0
2, 82243, Note_on_c, 0, 51, 0
2, 82243, Note_on_c, 0, 44, 0
2, 82243, Note_on_c, 0, 48, 0
2, 82405, Note_on_c, 0, 63, 0
2, 82405, Note_on_c, 0, 68, 0
2, 82405, Note_on_c, 0, 60, 0
2, 82620, Note_on_c, 0, 56, 63
2, 82620, Note_on_c, 0, 60, 63
2, 82620, Note_on_c, 0, 63, 60
2, 82620, Note_on_c, 0, 39, 60
2, 82620, Note_on_c, 0, 44, 62
2, 82620, Note_on_c, 0, 48, 62
2, 82620, Note_on_c, 0, 51, 59
2, 82783, Note_on_c, 0, 51, 0
2, 82783, Note_on_c, 0, 48, 0
2, 82783, Note_on_c, 0, 39, 0
2, 82783, Note_on_c, 0, 44, 0
2, 82945, Note_on_c, 0, 60, 0
2, 82945, Note_on_c, 0, 63, 0
2, 82945, Note_on_c, 0, 56, 0
2, 83160, Note_on_c, 0, 56, 59
2, 83160, Note_on_c, 0, 60, 61
2, 83160, Note_on_c, 0, 65, 60
2, 83160, Note_on_c, 0, 41, 62
2, 83160, Note_on_c, 0, 53, 61
2, 83323, Note_on_c, 0, 53, 0
2, 83323, Note_on_c, 0, 56, 0
2, 83323, Note_on_c, 0, 60, 0
2, 83323, Note_on_c, 0, 41, 0
2, 83323, Note_on_c, 0, 65, 0
2, 83700, Note_on_c, 0, 59, 59
2, 83700, Note_on_c, 0, 65, 61
2, 83700, Note_on_c, 0, 67, 61
2, 83700, Note_on_c, 0, 43, 60
2, 83700, Note_on_c, 0, 55, 61
2, 83863, Note_on_c, 0, 55, 0
2, 83863, Note_on_c, 0, 43, 0
2, 84025, Note_on_c, 0, 65, 0
2, 84025, Note_on_c, 0, 67, 0
2, 84025, Note_on_c, 0, 59, 0
2, 84240, Note_on_c, 0, 60, 105
2, 84240, Note_on_c, 0, 72, 104
2, 84240, Note_on_c, 0, 36, 83
2, 84240, Note_on_c, 0, 48, 82
2, 84780, Note_on_c, 0, 55, 57
2, 84780, Note_on_c, 0, 60, 58
2, 84780, Note_on_c, 0, 63, 57
2, 84780, Note_on_c, 0, 67, 59
2, 84960, Note_on_c, 0, 84, 56
2, 84960, Note_on_c, 0, 87, 57
2, 84960, Note_on_c, 0, 91, 56
2, 85105, Note_on_c, 0, 67, 0
2, 85105, Note_on_c, 0, 63, 0
2, 85105, Note_on_c, 0, 55, 0
2, 85105, Note_on_c, 0, 60, 0
2, 85123, Note_on_c, 0, 84, 0
2, 85123, Note_on_c, 0, 87, 0
2, 85123, Note_on_c, 0, 91, 0
2, 85140, Note_on_c, 0, 79, 45
2, 85250, Note_on_c, 0, 36, 0
2, 85250, Note_on_c, 0, 72, 0
2, 85250, Note_on_c, 0, 48, 0
2, 85250, Note_on_c, 0, 60, 0
2, 85303, Note_on_c, 0, 79, 0
2, 85320, Note_on_c, 0, 56, 61
2, 85320, Note_on_c, 0, 60, 63
2, 85320, Note_on_c, 0, 65, 63
2, 85320, Note_on_c, 0, 68, 60
2, 85500, Note_on_c, 0, 84, 57
2, 85500, Note_on_c, 0, 89, 56
2, 85500, Note_on_c, 0, 92, 57
2, 85645, Note_on_c, 0, 68, 0
2, 85645, Note_on_c, 0, 65, 0
2, 85645, Note_on_c, 0, 60, 0
2, 85645, Note_on_c, 0, 56, 0
2, 85663, Note_on_c, 0, 89, 0
2, 85663, Note_on_c, 0, 92, 0
2, 85663, Note_on_c, 0, 84, 0
2, 85680, Note_on_c, 0, 80, 45
2, 85843, Note_on_c, 0, 80, 0
2, 85860, Note_on_c, 0, 58, 57
2, 85860, Note_on_c, 0, 60, 57
2, 85860, Note_on_c, 0, 67, 58
2, 85860, Note_on_c, 0, 70, 58
2, 86040, Note_on_c, 0, 84, 58
2, 86040, Note_on_c, 0, 91, 56
2, 86040, Note_on_c, 0, 94, 58
2, 86185, Note_on_c, 0, 70, 0
2, 86185, Note_on_c, 0, 67, 0
2, 86185, Note_on_c, 0, 60, 0
2, 86185, Note_on_c, 0, 58, 0
2, 86203, Note_on_c, 0, 91, 0
2, 86203, Note_on_c, 0, 94, 0
2, 86203, Note_on_c, 0, 84, 0
2, 86220, Note_on_c, 0, 82, 45
2, 86383, Note_on_c, 0, 82, 0
2, 86400, Note_on_c, 0, 55, 60
2, 86400, Note_on_c, 0, 60, 60
2, 86400, Note_on_c, 0, 63, 63
2, 86400, Note_on_c, 0, 67, 60
2, 86580, Note_on_c, 0, 84, 56
2, 86580, Note_on_c, 0, 87, 59
2, 86580, Note_on_c, 0, 91, 57
2, 86725, Note_on_c, 0, 67, 0
2, 86725, Note_on_c, 0, 63, 0
2, 86725, Note_on_c, 0, 60, 0
2, 86725, Note_on_c, 0, 55, 0
2, 86743, Note_on_c, 0, 87, 0
2, 86743, Note_on_c, 0, 91, 0
2, 86743, Note_on_c, 0, 84, 0
2, 86760, Note_on_c, 0, 79, 44
2, 86923, Note_on_c, 0, 79, 0
2, 86940, Note_on_c, 0, 55, 58
2, 86940, Note_on_c, 0, 60, 59
2, 86940, Note_on_c, 0, 63, 60
2, 87120, Note_on_c, 0, 79, 58
2, 87120, Note_on_c, 0, 84, 58
2, 87120, Note_on_c, 0, 87, 56
2, 87265, Note_on_c, 0, 63, 0
2, 87265, Note_on_c, 0, 60, 0
2, 87265, Note_on_c, 0, 55, 0
2, 87283, Note_on_c, 0, 79, 0
2, 87283, Note_on_c, 0, 87, 0
2, 87283, Note_on_c, 0, 84, 0
2, 87300, Note_on_c, 0, 75, 44
2, 87463, Note_on_c, 0, 75, 0
2, 87480, Note_on_c, 0, 53, 61
2, 87480, Note_on_c, 0, 56, 60
2, 87480, Note_on_c, 0, 62, 60
2, 87660, Note_on_c, 0, 77, 56
2, 87660, Note_on_c, 0, 80, 58
2, 87660, Note_on_c, 0, 86, 60
2, 87805, Note_on_c, 0, 62, 0
2, 87805, Note_on_c, 0, 56, 0
2, 87805, Note_on_c, 0, 53, 0
2, 87823, Note_on_c, 0, 77, 0
2, 87823, Note_on_c, 0, 86, 0
2, 87823, Note_on_c, 0, 80, 0
2, 87840, Note_on_c, 0, 74, 42
2, 88003, Note_on_c, 0, 74, 0
2, 88020, Note_on_c, 0, 50, 58
2, 88020, Note_on_c, 0, 53, 59
2, 88020, Note_on_c, 0, 59, 60
2, 88200, Note_on_c, 0, 74, 56
2, 88200, Note_on_c, 0, 77, 57
2, 88200, Note_on_c, 0, 83, 58
2, 88345, Note_on_c, 0, 59, 0
2, 88345, Note_on_c, 0, 53, 0
2, 88345, Note_on_c, 0, 50, 0
2, 88363, Note_on_c, 0, 74, 0
2, 88363, Note_on_c, 0, 83, 0
2, 88363, Note_on_c, 0, 77, 0
2, 88380, Note_on_c, 0, 71, 44
2, 88543, Note_on_c, 0, 71, 0
2, 88560, Note_on_c, 0, 51, 61
2, 88560, Note_on_c, 0, 55, 62
2, 88560, Note_on_c, 0, 60, 59
2, 88740, Note_on_c, 0, 75, 60
2, 88740, Note_on_c, 0, 79, 56
2, 88740, Note_on_c, 0, 84, 57
2, 88885, Note_on_c, 0, 60, 0
2, 88885, Note_on_c, 0, 55, 0
2, 88885, Note_on_c, 0, 51, 0
2, 88903, Note_on_c, 0, 75, 0
2, 88903, Note_on_c, 0, 84, 0
2, 88903, Note_on_c, 0, 79, 0
2, 88920, Note_on_c, 0, 72, 45
2, 89083, Note_on_c, 0, 72, 0
2, 89100, Note_on_c, 0, 43, 56
2, 89100, Note_on_c, 0, 48, 59
2, 89100, Note_on_c, 0, 51, 57
2, 89100, Note_on_c, 0, 55, 58
2, 89280, Note_on_c, 0, 72, 58
2, 89280, Note_on_c, 0, 75, 57
2, 89280, Note_on_c, 0, 79, 58
2, 89425, Note_on_c, 0, 55, 0
2, 89425, Note_on_c, 0, 51, 0
2, 89425, Note_on_c, 0, 48, 0
2, 89425, Note_on_c, 0, 43, 0
2, 89443, Note_on_c, 0, 75, 0
2, 89443, Note_on_c, 0, 79, 0
2, 89443, Note_on_c, 0, 72, 0
2, 89460, Note_on_c, 0, 67, 44
2, 89623, Note_on_c, 0, 67, 0
2, 89640, Note_on_c, 0, 44, 61
2, 89640, Note_on_c, 0, 48, 60
2, 89640, Note_on_c, 0, 53, 63
2, 89640, Note_on_c, 0, 56, 63
2, 89820, Note_on_c, 0, 72, 56
2, 89820, Note_on_c, 0, 77, 56
2, 89820, Note_on_c, 0, 80, 58
2, 89965, Note_on_c, 0, 56, 0
2, 89965, Note_on_c, 0, 53, 0
2, 89965, Note_on_c, 0, 48, 0
2, 89965, Note_on_c, 0, 44, 0
2, 89983, Note_on_c, 0, 77, 0
2, 89983, Note_on_c, 0, 80, 0
2, 89983, Note_on_c, 0, 72, 0
2, 90000, Note_on_c, 0, 68, 45
2, 90163, Note_on_c, 0, 68, 0
2, 90180, Note_on_c, 0, 46, 57
2, 90180, Note_on_c, 0, 48, 60
2, 90180, Note_on_c, 0, 55, 60
2, 90180, Note_on_c, 0, 58, 60
2, 90360, Note_on_c, 0, 72, 59
2, 90360, Note_on_c, 0, 79, 60
2, 90360, Note_on_c, 0, 82, 58
2, 90505, Note_on_c, 0, 58, 0
2, 90505, Note_on_c, 0, 55, 0
2, 90505, Note_on_c, 0, 48, 0
2, 90505, Note_on_c, 0, 46, 0
2, 90523, Note_on_c, 0, 79, 0
2, 90523, Note_on_c, 0, 82, 0
2, 90523, Note_on_c, 0, 72, 0
2, 90540, Note_on_c, 0, 70, 42
2, 90703, Note_on_c, 0, 70, 0
2, 90720, Note_on_c, 0, 43, 61
2, 90720, Note_on_c, 0, 48, 60
2, 90720, Note_on_c, 0, 51, 63
2, 90720, Note_on_c, 0, 55, 61
2, 90900, Note_on_c, 0, 72, 58
2, 90900, Note_on_c, 0, 75, 57
2, 90900, Note_on_c, 0, 79, 60
2, 91045, Note_on_c, 0, 55, 0
2, 91045, Note_on_c, 0, 51, 0
2, 91045, Note_on_c, 0, 48, 0
2, 91045, Note_on_c, 0, 43, 0
2, 91063, Note_on_c, 0, 75, 0
2, 91063, Note_on_c, 0, 79, 0
2, 91063, Note_on_c, 0, 72, 0
2, 91080, Note_on_c, 0, 67, 42
2, 91243, Note_on_c, 0, 67, 0
2, 91260, Note_on_c, 0, 43, 58
2, 91260, Note_on_c, 0, 48, 56
2, 91260, Note_on_c, 0, 51, 60
2, 91440, Note_on_c, 0, 67, 59
2, 91440, Note_on_c, 0, 72, 56
2, 91440, Note_on_c, 0, 75, 58
2, 91585, Note_on_c, 0, 51, 0
2, 91585, Note_on_c, 0, 48, 0
2, 91585, Note_on_c, 0, 43, 0
2, 91603, Note_on_c, 0, 67, 0
2, 91603, Note_on_c, 0, 75, 0
2, 91603, Note_on_c, 0, 72, 0
2, 91620, Note_on_c, 0, 63, 44
2, 91783, Note_on_c, 0, 63, 0
2, 91800, Note_on_c, 0, 48, 61
2, 91800, Note_on_c, 0, 53, 61
2, 91800, Note_on_c, 0, 56, 60
2, 91980, Note_on_c, 0, 65, 60
2, 91980, Note_on_c, 0, 68, 59
2, 91980, Note_on_c, 0, 74, 58
2, 92125, Note_on_c, 0, 56, 0
2, 92125, Note_on_c, 0, 53, 0
2, 92125, Note_on_c, 0, 48, 0
2, 92143, Note_on_c, 0, 65, 0
2, 92143, Note_on_c, 0, 74, 0
2, 92143, Note_on_c, 0, 68, 0
2, 92160, Note_on_c, 0, 62, 46
2, 92323, Note_on_c, 0, 62, 0
2, 92340, Note_on_c, 0, 50, 57
2, 92340, Note_on_c, 0, 53, 60
2, 92340, Note_on_c, 0, 55, 58
2, 92520, Note_on_c, 0, 62, 58
2, 92520, Note_on_c, 0, 65, 56
2, 92520, Note_on_c, 0, 71, 57
2, 92665, Note_on_c, 0, 55, 0
2, 92665, Note_on_c, 0, 53, 0
2, 92665, Note_on_c, 0, 50, 0
2, 92683, Note_on_c, 0, 62, 0
2, 92683, Note_on_c, 0, 71, 0
2, 92683, Note_on_c, 0, 65, 0
2, 92700, Note_on_c, 0, 59, 44
2, 92863, Note_on_c, 0, 59, 0
2, 92880, Note_on_c, 0, 48, 60
2, 92880, Note_on_c, 0, 51, 60
2, 92880, Note_on_c, 0, 55, 61
2, 93060, Note_on_c, 0, 63, 56
2, 93060, Note_on_c, 0, 67, 56
2, 93060, Note_on_c, 0, 72, 59
2, 93205, Note_on_c, 0, 55, 0
2, 93205, Note_on_c, 0, 51, 0
2, 93205, Note_on_c, 0, 48, 0
2, 93223, Note_on_c, 0, 63, 0
2, 93223, Note_on_c, 0, 72, 0
2, 93223, Note_on_c, 0, 67, 0
2, 93240, Note_on_c, 0, 60, 45
2, 93403, Note_on_c, 0, 60, 0
2, 93420, Note_on_c, 0, 34, 58
2, 93420, Note_on_c, 0, 46, 58
2, 93597, Note_on_c, 0, 46, 0
2, 93597, Note_on_c, 0, 34, 0
2, 93780, Note_on_c, 0, 48, 60
2, 93780, Note_on_c, 0, 51, 57
2, 93780, Note_on_c, 0, 60, 58
2, 93943, Note_on_c, 0, 60, 0
2, 93943, Note_on_c, 0, 51, 0
2, 93943, Note_on_c, 0, 48, 0
2, 93960, Note_on_c, 0, 32, 62
2, 93960, Note_on_c, 0, 44, 60
2, 94137, Note_on_c, 0, 44, 0
2, 94137, Note_on_c, 0, 32, 0
2, 94320, Note_on_c, 0, 48, 59
2, 94320, Note_on_c, 0, 51, 59
2, 94320, Note_on_c, 0, 60, 57
2, 94483, Note_on_c, 0, 60, 0
2, 94483, Note_on_c, 0, 51, 0
2, 94483, Note_on_c, 0, 48, 0
2, 94500, Note_on_c, 0, 31, 81
2, 94500, Note_on_c, 0, 43, 80
2, 94677, Note_on_c, 0, 43, 0
2, 94677, Note_on_c, 0, 31, 0
2, 95040, Note_on_c, 0, 36, 59
2, 95217, Note_on_c, 0, 36, 0
2, 95400, Note_on_c, 0, 48, 60
2, 95400, Note_on_c, 0, 51, 59
2, 95400, Note_on_c, 0, 60, 57
2, 95563, Note_on_c, 0, 60, 0
2, 95563, Note_on_c, 0, 51, 0
2, 95563, Note_on_c, 0, 48, 0
2, 95580, Note_on_c, 0, 34, 57
2, 95580, Note_on_c, 0, 46, 56
2, 95757, Note_on_c, 0, 46, 0
2, 95757, Note_on_c, 0, 34, 0
2, 95940, Note_on_c, 0, 48, 60
2, 95940, Note_on_c, 0, 51, 57
2, 95940, Note_on_c, 0, 60, 58
2, 96103, Note_on_c, 0, 60, 0
2, 96103, Note_on_c, 0, 51, 0
2, 96103, Note_on_c, 0, 48, 0
2, 96120, Note_on_c, 0, 32, 63
2, 96120, Note_on_c, 0, 44, 62
2, 96297, Note_on_c, 0, 44, 0
2, 96297, Note_on_c, 0, 32, 0
2, 96480, Note_on_c, 0, 48, 59
2, 96480, Note_on_c, 0, 51, 60
2, 96480, Note_on_c, 0, 60, 58
2, 96643, Note_on_c, 0, 60, 0
2, 96643, Note_on_c, 0, 51, 0
2, 96643, Note_on_c, 0, 48, 0
2, 96660, Note_on_c, 0, 31, 82
2, 96660, Note_on_c, 0, 43, 80
2, 96985, Note_on_c, 0, 43, 0
2, 96985, Note_on_c, 0, 31, 0
2, 97200, Note_on_c, 0, 36, 62
2, 97377, Note_on_c, 0, 36, 0
2, 97740, Note_on_c, 0, 55, 60
2, 97740, Note_on_c, 0, 60, 57
2, 97740, Note_on_c, 0, 63, 59
2, 97740, Note_on_c, 0, 36, 57
2, 97740, Note_on_c, 0, 48, 56
2, 97917, Note_on_c, 0, 48, 0
2, 97917, Note_on_c, 0, 55, 0
2, 97917, Note_on_c, 0, 60, 0
2, 97917, Note_on_c, 0, 63, 0
2, 97917, Note_on_c, 0, 36, 0
2, 98280, Note_on_c, 0, 53, 62
2, 98280, Note_on_c, 0, 60, 61
2, 98280, Note_on_c, 0, 63, 62
2, 98280, Note_on_c, 0, 65, 59
2, 98280, Note_on_c, 0, 33, 61
2, 98280, Note_on_c, 0, 45, 63
2, 98457, Note_on_c, 0, 45, 0
2, 98457, Note_on_c, 0, 65, 0
2, 98457, Note_on_c, 0, 53, 0
2, 98457, Note_on_c, 0, 60, 0
2, 98457, Note_on_c, 0, 63, 0
2, 98457, Note_on_c, 0, 33, 0
2, 98820, Note_on_c, 0, 55, 57
2, 98820, Note_on_c, 0, 60, 59
2, 98820, Note_on_c, 0, 63, 58
2, 98820, Note_on_c, 0, 36, 58
2, 98820, Note_on_c, 0, 48, 58
2, 98997, Note_on_c, 0, 48, 0
2, 98997, Note_on_c, 0, 36, 0
2, 99307, Note_on_c, 0, 60, 0
2, 99307, Note_on_c, 0, 63, 0
2, 99307, Note_on_c, 0, 55, 0
2, 99360, Note_on_c, 0, 53, 71
2, 99360, Note_on_c, 0, 60, 72
2, 99360, Note_on_c, 0, 63, 72
2, 99360, Note_on_c, 0, 65, 71
2, 99360, Note_on_c, 0, 32, 59
2, 99360, Note_on_c, 0, 44, 60
2, 99537, Note_on_c, 0, 44, 0
2, 99537, Note_on_c, 0, 65, 0
2, 99537, Note_on_c, 0, 53, 0
2, 99537, Note_on_c, 0, 60, 0
2, 99537, Note_on_c, 0, 63, 0
2, 99537, Note_on_c, 0, 32, 0
2, 99900, Note_on_c, 0, 59, 56
2, 99900, Note_on_c, 0, 65, 56
2, 99900, Note_on_c, 0, 67, 58
2, 99900, Note_on_c, 0, 31, 59
2, 99900, Note_on_c, 0, 43, 58
2, 100077, Note_on_c, 0, 43, 0
2, 100077, Note_on_c, 0, 59, 0
2, 100077, Note_on_c, 0, 65, 0
2, 100077, Note_on_c, 0, 67, 0
2, 100077, Note_on_c, 0, 31, 0
2, 100440, Note_on_c, 0, 60, 61
2, 100440, Note_on_c, 0, 63, 62
2, 100440, Note_on_c, 0, 72, 61
2, 100440, Note_on_c, 0, 36, 62
2, 100440, Note_on_c, 0, 48, 63
2, 100617, Note_on_c, 0, 48, 0
2, 100617, Note_on_c, 0, 36, 0
2, 100765, Note_on_c, 0, 63, 0
2, 100765, Note_on_c, 0, 72, 0
2, 100765, Note_on_c, 0, 60, 0
2, 101520, Note_on_c, 0, 55, 59
2, 101520, Note_on_c, 0, 31, 84
2, 101520, Note_on_c, 0, 43, 81
2, 102530, Note_on_c, 0, 43, 0
2, 102530, Note_on_c, 0, 31, 0
2, 102530, Note_on_c, 0, 55, 0
2, 102600, Note_on_c, 0, 62, 117
2, 102600, Note_on_c, 0, 65, 117
2, 102600, Note_on_c, 0, 67, 117
2, 102600, Note_on_c, 0, 71, 117
2, 102600, Note_on_c, 0, 50, 117
2, 102600, Note_on_c, 0, 53, 117
2, 102600, Note_on_c, 0, 55, 117
2, 102600, Note_on_c, 0, 59, 117
2, 102925, Note_on_c, 0, 59, 0
2, 102925, Note_on_c, 0, 67, 0
2, 102925, Note_on_c, 0, 55, 0
2, 102925, Note_on_c, 0, 71, 0
2, 102925, Note_on_c, 0, 62, 0
2, 102925, Note_on_c, 0, 65, 0
2, 102925, Note_on_c, 0, 53, 0
2, 102925, Note_on_c, 0, 50, 0
2, 102960, Note_on_c, 0, 63, 102
2, 102960, Note_on_c, 0, 66, 99
2, 102960, Note_on_c, 0, 69, 100
2, 102960, Note_on_c, 0, 72, 101
2, 102960, Note_on_c, 0, 51, 99
2, 102960, Note_on_c, 0, 54, 101
2, 102960, Note_on_c, 0, 57, 100
2, 102960, Note_on_c, 0, 60, 100
2, 103303, Note_on_c, 0, 60, 0
2, 103303, Note_on_c, 0, 69, 0
2, 103303, Note_on_c, 0, 57, 0
2, 103303, Note_on_c, 0, 72, 0
2, 103303, Note_on_c, 0, 63, 0
2, 103303, Note_on_c, 0, 66, 0
2, 103303, Note_on_c, 0, 54, 0
2, 103303, Note_on_c, 0, 51, 0
2, 103320, Note_on_c, 0, 64, 94
2, 103320, Note_on_c, 0, 67, 95
2, 103320, Note_on_c, 0, 70, 95
2, 103320, Note_on_c, 0, 73, 95
2, 103320, Note_on_c, 0, 52, 96
2, 103320, Note_on_c, 0, 55, 94
2, 103320, Note_on_c, 0, 58, 95
2, 103320, Note_on_c, 0, 61, 94
2, 103645, Note_on_c, 0, 61, 0
2, 103645, Note_on_c, 0, 70, 0
2, 103645, Note_on_c, 0, 58, 0
2, 103645, Note_on_c, 0, 73, 0
2, 103645, Note_on_c, 0, 64, 0
2, 103645, Note_on_c, 0, 67, 0
2, 103645, Note_on_c, 0, 55, 0
2, 103645, Note_on_c, 0, 52, 0
2, 103680, Note_on_c, 0, 65, 72
2, 103680, Note_on_c, 0, 67, 71
2, 103680, Note_on_c, 0, 71, 75
2, 103680, Note_on_c, 0, 74, 74
2, 103680, Note_on_c, 0, 53, 74
2, 103680, Note_on_c, 0, 55, 73
2, 103680, Note_on_c, 0, 59, 72
2, 103680, Note_on_c, 0, 62, 72
2, 105770, Note_on_c, 0, 62, 0
2, 105770, Note_on_c, 0, 71, 0
2, 105770, Note_on_c, 0, 59, 0
2, 105770, Note_on_c, 0, 74, 0
2, 105770, Note_on_c, 0, 65, 0
2, 105770, Note_on_c, 0, 67, 0
2, 105770, Note_on_c, 0, 55, 0
2, 105770, Note_on_c, 0, 53, 0
2, 105840, Note_on_c, 0, 31, 48
2, 105840, Note_on_c, 0, 43, 48
2, 106017, Note_on_c, 0, 43, 0
2, 106017, Note_on_c, 0, 31, 0
2, 106200, Note_on_c, 0, 50, 59
2, 106200, Note_on_c, 0, 53, 59
2, 106200, Note_on_c, 0, 55, 60
2, 106200, Note_on_c, 0, 59, 58
2, 106377, Note_on_c, 0, 59, 0
2, 106377, Note_on_c, 0, 53, 0
2, 106377, Note_on_c, 0, 55, 0
2, 106377, Note_on_c, 0, 50, 0
2, 106560, Note_on_c, 0, 50, 63
2, 106560, Note_on_c, 0, 53, 63
2, 106560, Note_on_c, 0, 55, 63
2, 106560, Note_on_c, 0, 59, 64
2, 106737, Note_on_c, 0, 59, 0
2, 106737, Note_on_c, 0, 53, 0
2, 106737, Note_on_c, 0, 55, 0
2, 106737, Note_on_c, 0, 50, 0
2, 106920, Note_on_c, 0, 53, 70
2, 106920, Note_on_c, 0, 53, 74
2, 106920, Note_on_c, 0, 57, 71
2, 106920, Note_on_c, 0, 60, 71
2, 107097, Note_on_c, 0, 60, 0
2, 107097, Note_on_c, 0, 53, 0
2, 107097, Note_on_c, 0, 57, 0
2, 107097, Note_on_c, 0, 53, 0
2, 107280, Note_on_c, 0, 31, 58
2, 107280, Note_on_c, 0, 43, 60
2, 107457, Note_on_c, 0, 43, 0
2, 107457, Note_on_c, 0, 31, 0
2, 107640, Note_on_c, 0, 31, 63
2, 107640, Note_on_c, 0, 43, 64
2, 107817, Note_on_c, 0, 43, 0
2, 107817, Note_on_c, 0, 31, 0
2, 108000, Note_on_c, 0, 52, 61
2, 108000, Note_on_c, 0, 55, 62
2, 108000, Note_on_c, 0, 58, 63
2, 108000, Note_on_c, 0, 61, 60
2, 108177, Note_on_c, 0, 61, 0
2, 108177, Note_on_c, 0, 55, 0
2, 108177, Note_on_c, 0, 58, 0
2, 108177, Note_on_c, 0, 52, 0
2, 108360, Note_on_c, 0, 31, 58
2, 108360, Note_on_c, 0, 43, 59
2, 108537, Note_on_c, 0, 43, 0
2, 108537, Note_on_c, 0, 31, 0
2, 108720, Note_on_c, 0, 31, 63
2, 108720, Note_on_c, 0, 43, 65
2, 108897, Note_on_c, 0, 43, 0
2, 108897, Note_on_c, 0, 31, 0
2, 109080, Note_on_c, 0, 53, 60
2, 109080, Note_on_c, 0, 55, 62
2, 109080, Note_on_c, 0, 59, 61
2, 109080, Note_on_c, 0, 62, 61
2, 109257, Note_on_c, 0, 62, 0
2, 109257, Note_on_c, 0, 55, 0
2, 109257, Note_on_c, 0, 59, 0
2, 109257, Note_on_c, 0, 53, 0
2, 109440, Note_on_c, 0, 31, 56
2, 109440, Note_on_c, 0, 43, 56
2, 109617, Note_on_c, 0, 43, 0
2, 109617, Note_on_c, 0, 31, 0
2, 109800, Note_on_c, 0, 31, 62
2, 109800, Note_on_c, 0, 43, 64
2, 109977, Note_on_c, 0, 43, 0
2, 109977, Note_on_c, 0, 31, 0
2, 110160, Note_on_c, 0, 46, 117
2, 110160, Note_on_c, 0, 58, 117
2, 110160, Note_on_c, 0, 22, 50
2, 110160, Note_on_c, 0, 34, 52
2, 111170, Note_on_c, 0, 34, 0
2, 111170, Note_on_c, 0, 58, 0
2, 111170, Note_on_c, 0, 22, 0
2, 111170, Note_on_c, 0, 46, 0
2, 111240, Note_on_c, 0, 65, 84
2, 111240, Note_on_c, 0, 68, 84
2, 111240, Note_on_c, 0, 70, 83
2, 111240, Note_on_c, 0, 74, 82
2, 111240, Note_on_c, 0, 53, 107
2, 111240, Note_on_c, 0, 56, 109
2, 111240, Note_on_c, 0, 58, 110
2, 111240, Note_on_c, 0, 62, 110
2, 111565, Note_on_c, 0, 62, 0
2, 111565, Note_on_c, 0, 70, 0
2, 111565, Note_on_c, 0, 58, 0
2, 111565, Note_on_c, 0, 74, 0
2, 111565, Note_on_c, 0, 65, 0
2, 111565, Note_on_c, 0, 68, 0
2, 111565, Note_on_c, 0, 56, 0
2, 111565, Note_on_c, 0, 53, 0
2, 111600, Note_on_c, 0, 66, 96
2, 111600, Note_on_c, 0, 69, 94
2, 111600, Note_on_c, 0, 72, 95
2, 111600, Note_on_c, 0, 75, 95
2, 111600, Note_on_c, 0, 54, 98
2, 111600, Note_on_c, 0, 57, 99
2, 111600, Note_on_c, 0, 60, 98
2, 111600, Note_on_c, 0, 63, 96
2, 111943, Note_on_c, 0, 63, 0
2, 111943, Note_on_c, 0, 72, 0
2, 111943, Note_on_c, 0, 60, 0
2, 111943, Note_on_c, 0, 75, 0
2, 111943, Note_on_c, 0, 66, 0
2, 111943, Note_on_c, 0, 69, 0
2, 111943, Note_on_c, 0, 57, 0
2, 111943, Note_on_c, 0, 54, 0
2, 111960, Note_on_c, 0, 67, 95
2, 111960, Note_on_c, 0, 70, 96
2, 111960, Note_on_c, 0, 73, 94
2, 111960, Note_on_c, 0, 76, 95
2, 111960, Note_on_c, 0, 55, 93
2, 111960, Note_on_c, 0, 58, 94
2, 111960, Note_on_c, 0, 61, 96
2, 111960, Note_on_c, 0, 64, 96
2, 112285, Note_on_c, 0, 64, 0
2, 112285, Note_on_c, 0, 73, 0
2, 112285, Note_on_c, 0, 61, 0
2, 112285, Note_on_c, 0, 76, 0
2, 112285, Note_on_c, 0, 67, 0
2, 112285, Note_on_c, 0, 70, 0
2, 112285, Note_on_c, 0, 58, 0
2, 112285, Note_on_c, 0, 55, 0
2, 112320, Note_on_c, 0, 68, 98
2, 112320, Note_on_c, 0, 70, 100
2, 112320, Note_on_c, 0, 74, 100
2, 112320, Note_on_c, 0, 77, 101
2, 112320, Note_on_c, 0, 56, 98
2, 112320, Note_on_c, 0, 58, 98
2, 112320, Note_on_c, 0, 62, 101
2, 112320, Note_on_c, 0, 65, 99
2, 114410, Note_on_c, 0, 65, 0
2, 114410, Note_on_c, 0, 74, 0
2, 114410, Note_on_c, 0, 62, 0
2, 114410, Note_on_c, 0, 77, 0
2, 114410, Note_on_c, 0, 68, 0
2, 114410, Note_on_c, 0, 70, 0
2, 114410, Note_on_c, 0, 58, 0
2, 114410, Note_on_c, 0, 56, 0
2, 114480, Note_on_c, 0, 34, 47
2, 114480, Note_on_c, 0, 46, 49
2, 114657, Note_on_c, 0, 46, 0
2, 114657, Note_on_c, 0, 34, 0
2, 114840, Note_on_c, 0, 53, 59
2, 114840, Note_on_c, 0, 56, 59
2, 114840, Note_on_c, 0, 58, 57
2, 114840, Note_on_c, 0, 62, 56
2, 115017, Note_on_c, 0, 62, 0
2, 115017, Note_on_c, 0, 56, 0
2, 115017, Note_on_c, 0, 58, 0
2, 115017, Note_on_c, 0, 53, 0
2, 115200, Note_on_c, 0, 53, 63
2, 115200, Note_on_c, 0, 56, 63
2, 115200, Note_on_c, 0, 58, 64
2, 115200, Note_on_c, 0, 62, 64
2, 115377, Note_on_c, 0, 62, 0
2, 115377, Note_on_c, 0, 56, 0
2, 115377, Note_on_c, 0, 58, 0
2, 115377, Note_on_c, 0, 53, 0
2, 115560, Note_on_c, 0, 54, 71
2, 115560, Note_on_c, 0, 57, 73
2, 115560, Note_on_c, 0, 60, 70
2, 115560, Note_on_c, 0, 63, 73
2, 115737, Note_on_c, 0, 63, 0
2, 115737, Note_on_c, 0, 57, 0
2, 115737, Note_on_c, 0, 60, 0
2, 115737, Note_on_c, 0, 54, 0
2, 115920, Note_on_c, 0, 34, 56
2, 115920, Note_on_c, 0, 46, 58
2, 116097, Note_on_c, 0, 46, 0
2, 116097, Note_on_c, 0, 34, 0
2, 116280, Note_on_c, 0, 34, 65
2, 116280, Note_on_c, 0, 46, 63
2, 116457, Note_on_c, 0, 46, 0
2, 116457, Note_on_c, 0, 34, 0
2, 116640, Note_on_c, 0, 55, 63
2, 116640, Note_on_c, 0, 58, 62
2, 116640, Note_on_c, 0, 61, 62
2, 116640, Note_on_c, 0, 64, 61
2, 116817, Note_on_c, 0, 64, 0
2, 116817, Note_on_c, 0, 58, 0
2, 116817, Note_on_c, 0, 61, 0
2, 116817, Note_on_c, 0, 55, 0
2, 117000, Note_on_c, 0, 34, 56
2, 117000, Note_on_c, 0, 46, 59
2, 117177, Note_on_c, 0, 46, 0
2, 117177, Note_on_c, 0, 34, 0
2, 117360, Note_on_c, 0, 34, 65
2, 117360, Note_on_c, 0, 46, 64
2, 117537, Note_on_c, 0, 46, 0
2, 117537, Note_on_c, 0, 34, 0
2, 117720, Note_on_c, 0, 56, 59
2, 117720, Note_on_c, 0, 58, 59
2, 117720, Note_on_c, 0, 62, 60
2, 117720, Note_on_c, 0, 65, 59
2, 117897, Note_on_c, 0, 65, 0
2, 117897, Note_on_c, 0, 58, 0
2, 117897, Note_on_c, 0, 62, 0
2, 117897, Note_on_c, 0, 56, 0
2, 118080, Note_on_c, 0, 34, 58
2, 118080, Note_on_c, 0, 46, 59
2, 118257, Note_on_c, 0, 46, 0
2, 118257, Note_on_c, 0, 34, 0
2, 118440, Note_on_c, 0, 34, 64
2, 118440, Note_on_c, 0, 46, 62
2, 118617, Note_on_c, 0, 46, 0
2, 118617, Note_on_c, 0, 34, 0
2, 118800, Note_on_c, 0, 66, 83
2, 118800, Note_on_c, 0, 70, 84
2, 118800, Note_on_c, 0, 75, 83
2, 118800, Note_on_c, 0, 78, 82
2, 118800, Note_on_c, 0, 51, 117
2, 118800, Note_on_c, 0, 54, 117
2, 118800, Note_on_c, 0, 58, 117
2, 118800, Note_on_c, 0, 63, 117
2, 119810, Note_on_c, 0, 63, 0
2, 119810, Note_on_c, 0, 75, 0
2, 119810, Note_on_c, 0, 58, 0
2, 119810, Note_on_c, 0, 78, 0
2, 119810, Note_on_c, 0, 66, 0
2, 119810, Note_on_c, 0, 70, 0
2, 119810, Note_on_c, 0, 54, 0
2, 119810, Note_on_c, 0, 51, 0
2, 119880, Note_on_c, 0, 65, 89
2, 119880, Note_on_c, 0, 70, 85
2, 119880, Note_on_c, 0, 73, 88
2, 119880, Note_on_c, 0, 77, 87
2, 119880, Note_on_c, 0, 46, 94
2, 119880, Note_on_c, 0, 53, 93
2, 119880, Note_on_c, 0, 61, 91
2, 120890, Note_on_c, 0, 61, 0
2, 120890, Note_on_c, 0, 53, 0
2, 120890, Note_on_c, 0, 77, 0
2, 120890, Note_on_c, 0, 65, 0
2, 120890, Note_on_c, 0, 70, 0
2, 120890, Note_on_c, 0, 73, 0
2, 120890, Note_on_c, 0, 46, 0
2, 120960, Note_on_c, 0, 64, 87
2, 120960, Note_on_c, 0, 68, 88
2, 120960, Note_on_c, 0, 73, 89
2, 120960, Note_on_c, 0, 76, 87
2, 120960, Note_on_c, 0, 49, 94
2, 120960, Note_on_c, 0, 52, 93
2, 120960, Note_on_c, 0, 56, 94
2, 120960, Note_on_c, 0, 61, 95
2, 121970, Note_on_c, 0, 61, 0
2, 121970, Note_on_c, 0, 73, 0
2, 121970, Note_on_c, 0, 56, 0
2, 121970, Note_on_c, 0, 76, 0
2, 121970, Note_on_c, 0, 64, 0
2, 121970, Note_on_c, 0, 68, 0
2, 121970, Note_on_c, 0, 52, 0
2, 121970, Note_on_c, 0, 49, 0
2, 122040, Note_on_c, 0, 63, 90
2, 122040, Note_on_c, 0, 68, 89
2, 122040, Note_on_c, 0, 75, 90
2, 122040, Note_on_c, 0, 44, 87
2, 122040, Note_on_c, 0, 51, 88
2, 122040, Note_on_c, 0, 59, 85
2, 123607, Note_on_c, 0, 59, 0
2, 123607, Note_on_c, 0, 44, 0
2, 123607, Note_on_c, 0, 63, 0
2, 123607, Note_on_c, 0, 68, 0
2, 123607, Note_on_c, 0, 75, 0
2, 123607, Note_on_c, 0, 51, 0
2, 123660, Note_on_c, 0, 62, 87
2, 123660, Note_on_c, 0, 66, 87
2, 123660, Note_on_c, 0, 71, 85
2, 123660, Note_on_c, 0, 74, 86
2, 123660, Note_on_c, 0, 47, 91
2, 123660, Note_on_c, 0, 50, 90
2, 123660, Note_on_c, 0, 54, 91
2, 123660, Note_on_c, 0, 59, 92
2, 124687, Note_on_c, 0, 59, 0
2, 124687, Note_on_c, 0, 71, 0
2, 124687, Note_on_c, 0, 54, 0
2, 124687, Note_on_c, 0, 74, 0
2, 124687, Note_on_c, 0, 62, 0
2, 124687, Note_on_c, 0, 66, 0
2, 124687, Note_on_c, 0, 50, 0
2, 124687, Note_on_c, 0, 47, 0
2, 124740, Note_on_c, 0, 61, 87
2, 124740, Note_on_c, 0, 66, 85
2, 124740, Note_on_c, 0, 70, 87
2, 124740, Note_on_c, 0, 73, 87
2, 124740, Note_on_c, 0, 42, 86
2, 124740, Note_on_c, 0, 49, 87
2, 124740, Note_on_c, 0, 58, 86
2, 124917, Note_on_c, 0, 58, 0
2, 124917, Note_on_c, 0, 49, 0
2, 124917, Note_on_c, 0, 73, 0
2, 124917, Note_on_c, 0, 61, 0
2, 124917, Note_on_c, 0, 66, 0
2, 124917, Note_on_c, 0, 70, 0
2, 124917, Note_on_c, 0, 42, 0
2, 125280, Note_on_c, 0, 60, 89
2, 125280, Note_on_c, 0, 66, 87
2, 125280, Note_on_c, 0, 70, 90
2, 125280, Note_on_c, 0, 72, 87
2, 125280, Note_on_c, 0, 39, 88
2, 125280, Note_on_c, 0, 48, 88
2, 125280, Note_on_c, 0, 54, 89
2, 126847, Note_on_c, 0, 54, 0
2, 126847, Note_on_c, 0, 48, 0
2, 126847, Note_on_c, 0, 72, 0
2, 126847, Note_on_c, 0, 60, 0
2, 126847, Note_on_c, 0, 66, 0
2, 126847, Note_on_c, 0, 70, 0
2, 126847, Note_on_c, 0, 39, 0
2, 126900, Note_on_c, 0, 61, 94
2, 126900, Note_on_c, 0, 66, 93
2, 126900, Note_on_c, 0, 70, 95
2, 126900, Note_on_c, 0, 73, 93
2, 126900, Note_on_c, 0, 42, 101
2, 126900, Note_on_c, 0, 49, 103
2, 126900, Note_on_c, 0, 58, 101
2, 127077, Note_on_c, 0, 58, 0
2, 127077, Note_on_c, 0, 49, 0
2, 127077, Note_on_c, 0, 73, 0
2, 127077, Note_on_c, 0, 61, 0
2, 127077, Note_on_c, 0, 66, 0
2, 127077, Note_on_c, 0, 70, 0
2, 127077, Note_on_c, 0, 42, 0
2, 127440, Note_on_c, 0, 60, 90
2, 127440, Note_on_c, 0, 66, 90
2, 127440, Note_on_c, 0, 70, 90
2, 127440, Note_on_c, 0, 72, 89
2, 127440, Note_on_c, 0, 39, 90
2, 127440, Note_on_c, 0, 48, 90
2, 127440, Note_on_c, 0, 54, 88
2, 128520, Note_on_c, 0, 54, 0
2, 128520, Note_on_c, 0, 48, 0
2, 128520, Note_on_c, 0, 72, 0
2, 128520, Note_on_c, 0, 60, 0
2, 128520, Note_on_c, 0, 66, 0
2, 128520, Note_on_c, 0, 70, 0
2, 128520, Note_on_c, 0, 39, 0
2, 128520, Note_on_c, 0, 59, 71
2, 128520, Note_on_c, 0, 62, 68
2, 128520, Note_on_c, 0, 66, 71
2, 128520, Note_on_c, 0, 71, 69
2, 128520, Note_on_c, 0, 38, 73
2, 128520, Note_on_c, 0, 47, 74
2, 128520, Note_on_c, 0, 54, 75
2, 129600, Note_on_c, 0, 54, 0
2, 129600, Note_on_c, 0, 47, 0
2, 129600, Note_on_c, 0, 71, 0
2, 129600, Note_on_c, 0, 59, 0
2, 129600, Note_on_c, 0, 62, 0
2, 129600, Note_on_c, 0, 66, 0
2, 129600, Note_on_c, 0, 38, 0
2, 129600, Note_on_c, 0, 58, 70
2, 129600, Note_on_c, 0, 63, 69
2, 129600, Note_on_c, 0, 66, 69
2, 129600, Note_on_c, 0, 70, 69
2, 129600, Note_on_c, 0, 39, 75
2, 129600, Note_on_c, 0, 46, 76
2, 129600, Note_on_c, 0, 54, 75
2, 131167, Note_on_c, 0, 54, 0
2, 131167, Note_on_c, 0, 46, 0
2, 131167, Note_on_c, 0, 70, 0
2, 131167, Note_on_c, 0, 58, 0
2, 131167, Note_on_c, 0, 63, 0
2, 131167, Note_on_c, 0, 66, 0
2, 131167, Note_on_c, 0, 39, 0
2, 131220, Note_on_c, 0, 65, 58
2, 131383, Note_on_c, 0, 65, 0
2, 131400, Note_on_c, 0, 70, 73
2, 131563, Note_on_c, 0, 70, 0
2, 131580, Note_on_c, 0, 65, 55
2, 131743, Note_on_c, 0, 65, 0
2, 131760, Note_on_c, 0, 63, 62
2, 131923, Note_on_c, 0, 63, 0
2, 132120, Note_on_c, 0, 63, 59
2, 132283, Note_on_c, 0, 63, 0
2, 132300, Note_on_c, 0, 65, 73
2, 132463, Note_on_c, 0, 65, 0
2, 132480, Note_on_c, 0, 70, 74
2, 132643, Note_on_c, 0, 70, 0
2, 132660, Note_on_c, 0, 65, 58
2, 132823, Note_on_c, 0, 65, 0
2, 132840, Note_on_c, 0, 63, 62
2, 133003, Note_on_c, 0, 63, 0
2, 133200, Note_on_c, 0, 63, 57
2, 133363, Note_on_c, 0, 63, 0
2, 133380, Note_on_c, 0, 64, 71
2, 133543, Note_on_c, 0, 64, 0
2, 133560, Note_on_c, 0, 70, 78
2, 133723, Note_on_c, 0, 70, 0
2, 133740, Note_on_c, 0, 64, 55
2, 133903, Note_on_c, 0, 64, 0
2, 133920, Note_on_c, 0, 59, 109
2, 133920, Note_on_c, 0, 63, 108
2, 133920, Note_on_c, 0, 68, 108
2, 133920, Note_on_c, 0, 71, 108
2, 133920, Note_on_c, 0, 44, 84
2, 133920, Note_on_c, 0, 51, 83
2, 133920, Note_on_c, 0, 56, 83
2, 134930, Note_on_c, 0, 56, 0
2, 134930, Note_on_c, 0, 51, 0
2, 134930, Note_on_c, 0, 71, 0
2, 134930, Note_on_c, 0, 59, 0
2, 134930, Note_on_c, 0, 63, 0
2, 134930, Note_on_c, 0, 68, 0
2, 134930, Note_on_c, 0, 44, 0
2, 135000, Note_on_c, 0, 58, 91
2, 135000, Note_on_c, 0, 63, 91
2, 135000, Note_on_c, 0, 66, 90
2, 135000, Note_on_c, 0, 70, 89
2, 135000, Note_on_c, 0, 39, 86
2, 135000, Note_on_c, 0, 46, 84
2, 135000, Note_on_c, 0, 54, 84
2, 136010, Note_on_c, 0, 54, 0
2, 136010, Note_on_c, 0, 46, 0
2, 136010, Note_on_c, 0, 70, 0
2, 136010, Note_on_c, 0, 58, 0
2, 136010, Note_on_c, 0, 63, 0
2, 136010, Note_on_c, 0, 66, 0
2, 136010, Note_on_c, 0, 39, 0
2, 136080, Note_on_c, 0, 57, 88
2, 136080, Note_on_c, 0, 61, 89
2, 136080, Note_on_c, 0, 66, 88
2, 136080, Note_on_c, 0, 69, 89
2, 136080, Note_on_c, 0, 42, 92
2, 136080, Note_on_c, 0, 49, 93
2, 136080, Note_on_c, 0, 54, 93
2, 137090, Note_on_c, 0, 54, 0
2, 137090, Note_on_c, 0, 49, 0
2, 137090, Note_on_c, 0, 69, 0
2, 137090, Note_on_c, 0, 57, 0
2, 137090, Note_on_c, 0, 61, 0
2, 137090, Note_on_c, 0, 66, 0
2, 137090, Note_on_c, 0, 42, 0
2, 137160, Note_on_c, 0, 56, 87
2, 137160, Note_on_c, 0, 61, 86
2, 137160, Note_on_c, 0, 68, 89
2, 137160, Note_on_c, 0, 37, 87
2, 137160, Note_on_c, 0, 44, 86
2, 137160, Note_on_c, 0, 52, 89
2, 138727, Note_on_c, 0, 52, 0
2, 138727, Note_on_c, 0, 37, 0
2, 138727, Note_on_c, 0, 56, 0
2, 138727, Note_on_c, 0, 61, 0
2, 138727, Note_on_c, 0, 68, 0
2, 138727, Note_on_c, 0, 44, 0
2, 138780, Note_on_c, 0, 55, 86
2, 138780, Note_on_c, 0, 59, 85
2, 138780, Note_on_c, 0, 64, 85
2, 138780, Note_on_c, 0, 67, 84
2, 138780, Note_on_c, 0, 40, 90
2, 138780, Note_on_c, 0, 47, 90
2, 138780, Note_on_c, 0, 52, 92
2, 139807, Note_on_c, 0, 52, 0
2, 139807, Note_on_c, 0, 47, 0
2, 139807, Note_on_c, 0, 67, 0
2, 139807, Note_on_c, 0, 55, 0
2, 139807, Note_on_c, 0, 59, 0
2, 139807, Note_on_c, 0, 64, 0
2, 139807, Note_on_c, 0, 40, 0
2, 139860, Note_on_c, 0, 54, 86
2, 139860, Note_on_c, 0, 59, 88
2, 139860, Note_on_c, 0, 63, 88
2, 139860, Note_on_c, 0, 66, 87
2, 139860, Note_on_c, 0, 35, 88
2, 139860, Note_on_c, 0, 42, 86
2, 139860, Note_on_c, 0, 51, 88
2, 140037, Note_on_c, 0, 51, 0
2, 140037, Note_on_c, 0, 42, 0
2, 140037, Note_on_c, 0, 66, 0
2, 140037, Note_on_c, 0, 54, 0
2, 140037, Note_on_c, 0, 59, 0
2, 140037, Note_on_c, 0, 63, 0
2, 140037, Note_on_c, 0, 35, 0
2, 140400, Note_on_c, 0, 53, 87
2, 140400, Note_on_c, 0, 59, 88
2, 140400, Note_on_c, 0, 63, 88
2, 140400, Note_on_c, 0, 65, 90
2, 140400, Note_on_c, 0, 32, 87
2, 140400, Note_on_c, 0, 39, 90
2, 140400, Note_on_c, 0, 47, 87
2, 141967, Note_on_c, 0, 47, 0
2, 141967, Note_on_c, 0, 39, 0
2, 141967, Note_on_c, 0, 65, 0
2, 141967, Note_on_c, 0, 53, 0
2, 141967, Note_on_c, 0, 59, 0
2, 141967, Note_on_c, 0, 63, 0
2, 141967, Note_on_c, 0, 32, 0
2, 142020, Note_on_c, 0, 54, 94
2, 142020, Note_on_c, 0, 59, 96
2, 142020, Note_on_c, 0, 63, 93
2, 142020, Note_on_c, 0, 66, 97
2, 142020, Note_on_c, 0, 35, 103
2, 142020, Note_on_c, 0, 42, 104
2, 142020, Note_on_c, 0, 51, 102
2, 142197, Note_on_c, 0, 51, 0
2, 142197, Note_on_c, 0, 42, 0
2, 142197, Note_on_c, 0, 66, 0
2, 142197, Note_on_c, 0, 54, 0
2, 142197, Note_on_c, 0, 59, 0
2, 142197, Note_on_c, 0, 63, 0
2, 142197, Note_on_c, 0, 35, 0
2, 142560, Note_on_c, 0, 53, 90
2, 142560, Note_on_c, 0, 59, 90
2, 142560, Note_on_c, 0, 63, 91
2, 142560, Note_on_c, 0, 65, 89
2, 142560, Note_on_c, 0, 32, 88
2, 142560, Note_on_c, 0, 39, 90
2, 142560, Note_on_c, 0, 47, 90
2, 143640, Note_on_c, 0, 47, 0
2, 143640, Note_on_c, 0, 39, 0
2, 143640, Note_on_c, 0, 65, 0
2, 143640, Note_on_c, 0, 53, 0
2, 143640, Note_on_c, 0, 59, 0
2, 143640, Note_on_c, 0, 63, 0
2, 143640, Note_on_c, 0, 32, 0
2, 143640, Note_on_c, 0, 52, 92
2, 143640, Note_on_c, 0, 55, 95
2, 143640, Note_on_c, 0, 59, 91
2, 143640, Note_on_c, 0, 64, 95
2, 143640, Note_on_c, 0, 31, 98
2, 143640, Note_on_c, 0, 40, 99
2, 143640, Note_on_c, 0, 47, 99
2, 144720, Note_on_c, 0, 47, 0
2, 144720, Note_on_c, 0, 40, 0
2, 144720, Note_on_c, 0, 64, 0
2, 144720, Note_on_c, 0, 52, 0
2, 144720, Note_on_c, 0, 55, 0
2, 144720, Note_on_c, 0, 59, 0
2, 144720, Note_on_c, 0, 31, 0
2, 144720, Note_on_c, 0, 51, 68
2, 144720, Note_on_c, 0, 56, 71
2, 144720, Note_on_c, 0, 59, 70
2, 144720, Note_on_c, 0, 63, 70
2, 144720, Note_on_c, 0, 32, 77
2, 144720, Note_on_c, 0, 39, 74
2, 144720, Note_on_c, 0, 47, 75
2, 146287, Note_on_c, 0, 47, 0
2, 146287, Note_on_c, 0, 39, 0
2, 146287, Note_on_c, 0, 63, 0
2, 146287, Note_on_c, 0, 51, 0
2, 146287, Note_on_c, 0, 56, 0
2, 146287, Note_on_c, 0, 59, 0
2, 146287, Note_on_c, 0, 32, 0
2, 146340, Note_on_c, 0, 58, 57
2, 146503, Note_on_c, 0, 58, 0
2, 146520, Note_on_c, 0, 63, 73
2, 146683, Note_on_c, 0, 63, 0
2, 146700, Note_on_c, 0, 58, 59
2, 146863, Note_on_c, 0, 58, 0
2, 146880, Note_on_c, 0, 56, 61
2, 147043, Note_on_c, 0, 56, 0
2, 147240, Note_on_c, 0, 56, 56
2, 147403, Note_on_c, 0, 56, 0
2, 147420, Note_on_c, 0, 58, 71
2, 147583, Note_on_c, 0, 58, 0
2, 147600, Note_on_c, 0, 63, 75
2, 147763, Note_on_c, 0, 63, 0
2, 147780, Note_on_c, 0, 58, 56
2, 147943, Note_on_c, 0, 58, 0
2, 147960, Note_on_c, 0, 56, 63
2, 148123, Note_on_c, 0, 56, 0
2, 148320, Note_on_c, 0, 68, 56
2, 148483, Note_on_c, 0, 68, 0
2, 148500, Note_on_c, 0, 70, 73
2, 148663, Note_on_c, 0, 70, 0
2, 148680, Note_on_c, 0, 71, 69
2, 148843, Note_on_c, 0, 71, 0
2, 148860, Note_on_c, 0, 68, 62
2, 149023, Note_on_c, 0, 68, 0
2, 149040, Note_on_c, 0, 70, 78
2, 149040, Note_on_c, 0, 58, 67
2, 149220, Note_on_c, 0, 70, 0
2, 149220, Note_on_c, 0, 71, 69
2, 149383, Note_on_c, 0, 71, 0
2, 149400, Note_on_c, 0, 70, 65
2, 149563, Note_on_c, 0, 70, 0
2, 149580, Note_on_c, 0, 71, 73
2, 149743, Note_on_c, 0, 71, 0
2, 149760, Note_on_c, 0, 70, 64
2, 149923, Note_on_c, 0, 70, 0
2, 149940, Note_on_c, 0, 71, 69
2, 150103, Note_on_c, 0, 71, 0
2, 150120, Note_on_c, 0, 70, 64
2, 150283, Note_on_c, 0, 70, 0
2, 150300, Note_on_c, 0, 71, 71
2, 150463, Note_on_c, 0, 71, 0
2, 150480, Note_on_c, 0, 68, 62
2, 150607, Note_on_c, 0, 58, 0
2, 150643, Note_on_c, 0, 68, 0
2, 150660, Note_on_c, 0, 70, 73
2, 150660, Note_on_c, 0, 56, 61
2, 150823, Note_on_c, 0, 70, 0
2, 150840, Note_on_c, 0, 71, 69
2, 151003, Note_on_c, 0, 71, 0
2, 151020, Note_on_c, 0, 74, 72
2, 151147, Note_on_c, 0, 56, 0
2, 151183, Note_on_c, 0, 74, 0
2, 151200, Note_on_c, 0, 70, 69
2, 151200, Note_on_c, 0, 58, 79
2, 151380, Note_on_c, 0, 70, 0
2, 151380, Note_on_c, 0, 71, 68
2, 151543, Note_on_c, 0, 71, 0
2, 151560, Note_on_c, 0, 70, 63
2, 151723, Note_on_c, 0, 70, 0
2, 151740, Note_on_c, 0, 71, 70
2, 151903, Note_on_c, 0, 71, 0
2, 151920, Note_on_c, 0, 70, 64
2, 152083, Note_on_c, 0, 70, 0
2, 152100, Note_on_c, 0, 71, 69
2, 152263, Note_on_c, 0, 71, 0
2, 152280, Note_on_c, 0, 70, 65
2, 152443, Note_on_c, 0, 70, 0
2, 152460, Note_on_c, 0, 71, 69
2, 152623, Note_on_c, 0, 71, 0
2, 152640, Note_on_c, 0, 68, 59
2, 152767, Note_on_c, 0, 58, 0
2, 152803, Note_on_c, 0, 68, 0
2, 152820, Note_on_c, 0, 70, 70
2, 152820, Note_on_c, 0, 56, 60
2, 152983, Note_on_c, 0, 70, 0
2, 153000, Note_on_c, 0, 71, 69
2, 153163, Note_on_c, 0, 71, 0
2, 153180, Note_on_c, 0, 75, 76
2, 153307, Note_on_c, 0, 56, 0
2, 153343, Note_on_c, 0, 75, 0
2, 153360, Note_on_c, 0, 70, 66
2, 153360, Note_on_c, 0, 58, 79
2, 153540, Note_on_c, 0, 70, 0
2, 153540, Note_on_c, 0, 71, 69
2, 153703, Note_on_c, 0, 71, 0
2, 153720, Note_on_c, 0, 70, 63
2, 153883, Note_on_c, 0, 70, 0
2, 153900, Note_on_c, 0, 71, 73
2, 154063, Note_on_c, 0, 71, 0
2, 154080, Note_on_c, 0, 70, 64
2, 154243, Note_on_c, 0, 70, 0
2, 154260, Note_on_c, 0, 71, 68
2, 154423, Note_on_c, 0, 71, 0
2, 154440, Note_on_c, 0, 70, 63
2, 154603, Note_on_c, 0, 70, 0
2, 154620, Note_on_c, 0, 71, 69
2, 154783, Note_on_c, 0, 71, 0
2, 154800, Note_on_c, 0, 68, 60
2, 154927, Note_on_c, 0, 58, 0
2, 154963, Note_on_c, 0, 68, 0
2, 154980, Note_on_c, 0, 70, 71
2, 154980, Note_on_c, 0, 56, 59
2, 155143, Note_on_c, 0, 70, 0
2, 155160, Note_on_c, 0, 71, 68
2, 155323, Note_on_c, 0, 71, 0
2, 155340, Note_on_c, 0, 74, 74
2, 155467, Note_on_c, 0, 56, 0
2, 155503, Note_on_c, 0, 74, 0
2, 155520, Note_on_c, 0, 70, 67
2, 155520, Note_on_c, 0, 58, 80
2, 155700, Note_on_c, 0, 70, 0
2, 155700, Note_on_c, 0, 71, 68
2, 155863, Note_on_c, 0, 71, 0
2, 155880, Note_on_c, 0, 70, 61
2, 156043, Note_on_c, 0, 70, 0
2, 156060, Note_on_c, 0, 71, 72
2, 156223, Note_on_c, 0, 71, 0
2, 156240, Note_on_c, 0, 70, 62
2, 156403, Note_on_c, 0, 70, 0
2, 156420, Note_on_c, 0, 71, 69
2, 156583, Note_on_c, 0, 71, 0
2, 156600, Note_on_c, 0, 70, 67
2, 156763, Note_on_c, 0, 70, 0
2, 156780, Note_on_c, 0, 71, 69
2, 156943, Note_on_c, 0, 71, 0
2, 156960, Note_on_c, 0, 68, 58
2, 157087, Note_on_c, 0, 58, 0
2, 157123, Note_on_c, 0, 68, 0
2, 157140, Note_on_c, 0, 70, 70
2, 157140, Note_on_c, 0, 56, 60
2, 157303, Note_on_c, 0, 70, 0
2, 157320, Note_on_c, 0, 71, 70
2, 157483, Note_on_c, 0, 71, 0
2, 157500, Note_on_c, 0, 75, 75
2, 157627, Note_on_c, 0, 56, 0
2, 157663, Note_on_c, 0, 75, 0
2, 157680, Note_on_c, 0, 70, 59
2, 157680, Note_on_c, 0, 58, 80
2, 157843, Note_on_c, 0, 70, 0
2, 157860, Note_on_c, 0, 71, 69
2, 158023, Note_on_c, 0, 71, 0
2, 158040, Note_on_c, 0, 70, 61
2, 158203, Note_on_c, 0, 70, 0
2, 158220, Note_on_c, 0, 71, 69
2, 158383, Note_on_c, 0, 71, 0
2, 158400, Note_on_c, 0, 70, 62
2, 158563, Note_on_c, 0, 70, 0
2, 158580, Note_on_c, 0, 71, 68
2, 158743, Note_on_c, 0, 71, 0
2, 158760, Note_on_c, 0, 70, 66
2, 158923, Note_on_c, 0, 70, 0
2, 158940, Note_on_c, 0, 71, 67
2, 159103, Note_on_c, 0, 71, 0
2, 159120, Note_on_c, 0, 70, 61
2, 159283, Note_on_c, 0, 70, 0
2, 159300, Note_on_c, 0, 71, 73
2, 159463, Note_on_c, 0, 71, 0
2, 159480, Note_on_c, 0, 70, 63
2, 159643, Note_on_c, 0, 70, 0
2, 159660, Note_on_c, 0, 71, 66
2, 159823, Note_on_c, 0, 71, 0
2, 159840, Note_on_c, 0, 70, 66
2, 160003, Note_on_c, 0, 70, 0
2, 160020, Note_on_c, 0, 71, 66
2, 160183, Note_on_c, 0, 71, 0
2, 160200, Note_on_c, 0, 70, 60
2, 160363, Note_on_c, 0, 70, 0
2, 160380, Note_on_c, 0, 71, 71
2, 160543, Note_on_c, 0, 71, 0
2, 160560, Note_on_c, 0, 70, 63
2, 160723, Note_on_c, 0, 70, 0
2, 160740, Note_on_c, 0, 71, 68
2, 160903, Note_on_c, 0, 71, 0
2, 160920, Note_on_c, 0, 70, 65
2, 161083, Note_on_c, 0, 70, 0
2, 161100, Note_on_c, 0, 71, 68
2, 161263, Note_on_c, 0, 71, 0
2, 161280, Note_on_c, 0, 70, 61
2, 161443, Note_on_c, 0, 70, 0
2, 161460, Note_on_c, 0, 71, 71
2, 161623, Note_on_c, 0, 71, 0
2, 161640, Note_on_c, 0, 70, 62
2, 161803, Note_on_c, 0, 70, 0
2, 161820, Note_on_c, 0, 71, 69
2, 161930, Note_on_c, 0, 58, 0
2, 161983, Note_on_c, 0, 71, 0
2, 162000, Note_on_c, 0, 70, 66
2, 162163, Note_on_c, 0, 70, 0
2, 162180, Note_on_c, 0, 71, 66
2, 162343, Note_on_c, 0, 71, 0
2, 162360, Note_on_c, 0, 70, 62
2, 162523, Note_on_c, 0, 70, 0
2, 162540, Note_on_c, 0, 73, 75
2, 162703, Note_on_c, 0, 73, 0
2, 162720, Note_on_c, 0, 71, 60
2, 162883, Note_on_c, 0, 71, 0
2, 162900, Note_on_c, 0, 70, 60
2, 163063, Note_on_c, 0, 70, 0
2, 163080, Note_on_c, 0, 70, 69
2, 163243, Note_on_c, 0, 70, 0
2, 163260, Note_on_c, 0, 70, 66
2, 163423, Note_on_c, 0, 70, 0
2, 163440, Note_on_c, 0, 70, 64
2, 163603, Note_on_c, 0, 70, 0
2, 163620, Note_on_c, 0, 70, 68
2, 163783, Note_on_c, 0, 70, 0
2, 163800, Note_on_c, 0, 70, 65
2, 163963, Note_on_c, 0, 70, 0
2, 163980, Note_on_c, 0, 70, 68
2, 164143, Note_on_c, 0, 70, 0
2, 164160, Note_on_c, 0, 70, 67
2, 164323, Note_on_c, 0, 70, 0
2, 164340, Note_on_c, 0, 71, 69
2, 164503, Note_on_c, 0, 71, 0
2, 164520, Note_on_c, 0, 70, 63
2, 164683, Note_on_c, 0, 70, 0
2, 164700, Note_on_c, 0, 68, 62
2, 164863, Note_on_c, 0, 68, 0
2, 164880, Note_on_c, 0, 70, 69
2, 165043, Note_on_c, 0, 70, 0
2, 165060, Note_on_c, 0, 68, 60
2, 165223, Note_on_c, 0, 68, 0
2, 165240, Note_on_c, 0, 71, 72
2, 165403, Note_on_c, 0, 71, 0
2, 165420, Note_on_c, 0, 70, 62
2, 165583, Note_on_c, 0, 70, 0
2, 165600, Note_on_c, 0, 68, 59
2, 165763, Note_on_c, 0, 68, 0
2, 165780, Note_on_c, 0, 68, 66
2, 165943, Note_on_c, 0, 68, 0
2, 165960, Note_on_c, 0, 68, 65
2, 166123, Note_on_c, 0, 68, 0
2, 166140, Note_on_c, 0, 68, 67
2, 166303, Note_on_c, 0, 68, 0
2, 166320, Note_on_c, 0, 68, 68
2, 166483, Note_on_c, 0, 68, 0
2, 166500, Note_on_c, 0, 70, 71
2, 166663, Note_on_c, 0, 70, 0
2, 166680, Note_on_c, 0, 68, 59
2, 166843, Note_on_c, 0, 68, 0
2, 166860, Note_on_c, 0, 66, 62
2, 167023, Note_on_c, 0, 66, 0
2, 167040, Note_on_c, 0, 68, 68
2, 167203, Note_on_c, 0, 68, 0
2, 167220, Note_on_c, 0, 66, 61
2, 167383, Note_on_c, 0, 66, 0
2, 167400, Note_on_c, 0, 70, 76
2, 167563, Note_on_c, 0, 70, 0
2, 167580, Note_on_c, 0, 68, 63
2, 167743, Note_on_c, 0, 68, 0
2, 167760, Note_on_c, 0, 66, 59
2, 167923, Note_on_c, 0, 66, 0
2, 167940, Note_on_c, 0, 66, 66
2, 168103, Note_on_c, 0, 66, 0
2, 168120, Note_on_c, 0, 66, 68
2, 168283, Note_on_c, 0, 66, 0
2, 168300, Note_on_c, 0, 68, 70
2, 168463, Note_on_c, 0, 68, 0
2, 168480, Note_on_c, 0, 70, 73
2, 168643, Note_on_c, 0, 70, 0
2, 168660, Note_on_c, 0, 68, 60
2, 168823, Note_on_c, 0, 68, 0
2, 168840, Note_on_c, 0, 66, 62
2, 169003, Note_on_c, 0, 66, 0
2, 169020, Note_on_c, 0, 66, 64
2, 169183, Note_on_c, 0, 66, 0
2, 169200, Note_on_c, 0, 66, 67
2, 169363, Note_on_c, 0, 66, 0
2, 169380, Note_on_c, 0, 68, 71
2, 169543, Note_on_c, 0, 68, 0
2, 169560, Note_on_c, 0, 70, 101
2, 169723, Note_on_c, 0, 70, 0
2, 170100, Note_on_c, 0, 70, 59
2, 170263, Note_on_c, 0, 70, 0
2, 170280, Note_on_c, 0, 71, 67
2, 170443, Note_on_c, 0, 71, 0
2, 170460, Note_on_c, 0, 70, 60
2, 170623, Note_on_c, 0, 70, 0
2, 170640, Note_on_c, 0, 70, 70
2, 170803, Note_on_c, 0, 70, 0
2, 170820, Note_on_c, 0, 71, 69
2, 170983, Note_on_c, 0, 71, 0
2, 171000, Note_on_c, 0, 70, 63
2, 171163, Note_on_c, 0, 70, 0
2, 171180, Note_on_c, 0, 73, 75
2, 171343, Note_on_c, 0, 73, 0
2, 171360, Note_on_c, 0, 71, 63
2, 171523, Note_on_c, 0, 71, 0
2, 171540, Note_on_c, 0, 70, 63
2, 171703, Note_on_c, 0, 70, 0
2, 171720, Note_on_c, 0, 70, 67
2, 171883, Note_on_c, 0, 70, 0
2, 171900, Note_on_c, 0, 70, 65
2, 172063, Note_on_c, 0, 70, 0
2, 172080, Note_on_c, 0, 70, 66
2, 172243, Note_on_c, 0, 70, 0
2, 172260, Note_on_c, 0, 70, 71
2, 172423, Note_on_c, 0, 70, 0
2, 172440, Note_on_c, 0, 70, 65
2, 172603, Note_on_c, 0, 70, 0
2, 172620, Note_on_c, 0, 70, 68
2, 172783, Note_on_c, 0, 70, 0
2, 172800, Note_on_c, 0, 70, 69
2, 172963, Note_on_c, 0, 70, 0
2, 172980, Note_on_c, 0, 71, 68
2, 173143, Note_on_c, 0, 71, 0
2, 173160, Note_on_c, 0, 70, 62
2, 173323, Note_on_c, 0, 70, 0
2, 173340, Note_on_c, 0, 68, 65
2, 173503, Note_on_c, 0, 68, 0
2, 173520, Note_on_c, 0, 70, 71
2, 173683, Note_on_c, 0, 70, 0
2, 173700, Note_on_c, 0, 68, 62
2, 173863, Note_on_c, 0, 68, 0
2, 173880, Note_on_c, 0, 71, 75
2, 174043, Note_on_c, 0, 71, 0
2, 174060, Note_on_c, 0, 70, 63
2, 174223, Note_on_c, 0, 70, 0
2, 174240, Note_on_c, 0, 68, 60
2, 174403, Note_on_c, 0, 68, 0
2, 174420, Note_on_c, 0, 68, 65
2, 174583, Note_on_c, 0, 68, 0
2, 174600, Note_on_c, 0, 68, 68
2, 174763, Note_on_c, 0, 68, 0
2, 174780, Note_on_c, 0, 68, 67
2, 174943, Note_on_c, 0, 68, 0
2, 174960, Note_on_c, 0, 68, 69
2, 175123, Note_on_c, 0, 68, 0
2, 175140, Note_on_c, 0, 70, 69
2, 175303, Note_on_c, 0, 70, 0
2, 175320, Note_on_c, 0, 68, 61
2, 175483, Note_on_c, 0, 68, 0
2, 175500, Note_on_c, 0, 66, 61
2, 175663, Note_on_c, 0, 66, 0
2, 175680, Note_on_c, 0, 68, 69
2, 175843, Note_on_c, 0, 68, 0
2, 175860, Note_on_c, 0, 66, 62
2, 176023, Note_on_c, 0, 66, 0
2, 176040, Note_on_c, 0, 70, 75
2, 176203, Note_on_c, 0, 70, 0
2, 176220, Note_on_c, 0, 68, 61
2, 176383, Note_on_c, 0, 68, 0
2, 176400, Note_on_c, 0, 66, 59
2, 176563, Note_on_c, 0, 66, 0
2, 176580, Note_on_c, 0, 66, 65
2, 176743, Note_on_c, 0, 66, 0
2, 176760, Note_on_c, 0, 66, 65
2, 176923, Note_on_c, 0, 66, 0
2, 176940, Note_on_c, 0, 68, 69
2, 177103, Note_on_c, 0, 68, 0
2, 177120, Note_on_c, 0, 70, 76
2, 177283, Note_on_c, 0, 70, 0
2, 177300, Note_on_c, 0, 68, 61
2, 177463, Note_on_c, 0, 68, 0
2, 177480, Note_on_c, 0, 66, 60
2, 177643, Note_on_c, 0, 66, 0
2, 177660, Note_on_c, 0, 66, 66
2, 177823, Note_on_c, 0, 66, 0
2, 177840, Note_on_c, 0, 66, 67
2, 178003, Note_on_c, 0, 66, 0
2, 178020, Note_on_c, 0, 68, 72
2, 178183, Note_on_c, 0, 68, 0
2, 178200, Note_on_c, 0, 70, 103
2, 178363, Note_on_c, 0, 70, 0
2, 179280, Note_on_c, 0, 58, 60
2, 179443, Note_on_c, 0, 58, 0
2, 179460, Note_on_c, 0, 57, 61
2, 179623, Note_on_c, 0, 57, 0
2, 179640, Note_on_c, 0, 58, 70
2, 179803, Note_on_c, 0, 58, 0
2, 179820, Note_on_c, 0, 61, 75
2, 179983, Note_on_c, 0, 61, 0
2, 180000, Note_on_c, 0, 59, 61
2, 180163, Note_on_c, 0, 59, 0
2, 180180, Note_on_c, 0, 58, 60
2, 180343, Note_on_c, 0, 58, 0
2, 180360, Note_on_c, 0, 58, 69
2, 180523, Note_on_c, 0, 58, 0
2, 180540, Note_on_c, 0, 59, 67
2, 180703, Note_on_c, 0, 59, 0
2, 180720, Note_on_c, 0, 60, 71
2, 180883, Note_on_c, 0, 60, 0
2, 180900, Note_on_c, 0, 61, 70
2, 181063, Note_on_c, 0, 61, 0
2, 181080, Note_on_c, 0, 61, 67
2, 181243, Note_on_c, 0, 61, 0
2, 181260, Note_on_c, 0, 61, 68
2, 181423, Note_on_c, 0, 61, 0
2, 181440, Note_on_c, 0, 61, 70
2, 181603, Note_on_c, 0, 61, 0
2, 181620, Note_on_c, 0, 58, 60
2, 181783, Note_on_c, 0, 58, 0
2, 181800, Note_on_c, 0, 61, 71
2, 181963, Note_on_c, 0, 61, 0
2, 181980, Note_on_c, 0, 62, 72
2, 182143, Note_on_c, 0, 62, 0
2, 182160, Note_on_c, 0, 63, 71
2, 182323, Note_on_c, 0, 63, 0
2, 182340, Note_on_c, 0, 65, 73
2, 182503, Note_on_c, 0, 65, 0
2, 182520, Note_on_c, 0, 66, 73
2, 182845, Note_on_c, 0, 66, 0
2, 183060, Note_on_c, 0, 63, 59
2, 183223, Note_on_c, 0, 63, 0
2, 183240, Note_on_c, 0, 64, 67
2, 183403, Note_on_c, 0, 64, 0
2, 183420, Note_on_c, 0, 65, 68
2, 183583, Note_on_c, 0, 65, 0
2, 183600, Note_on_c, 0, 66, 74
2, 183763, Note_on_c, 0, 66, 0
2, 183780, Note_on_c, 0, 66, 66
2, 183943, Note_on_c, 0, 66, 0
2, 183960, Note_on_c, 0, 66, 65
2, 184123, Note_on_c, 0, 66, 0
2, 184140, Note_on_c, 0, 65, 62
2, 184303, Note_on_c, 0, 65, 0
2, 184320, Note_on_c, 0, 68, 71
2, 184483, Note_on_c, 0, 68, 0
2, 184500, Note_on_c, 0, 70, 72
2, 184663, Note_on_c, 0, 70, 0
2, 184680, Note_on_c, 0, 66, 61
2, 184843, Note_on_c, 0, 66, 0
2, 184860, Note_on_c, 0, 65, 59
2, 185023, Note_on_c, 0, 65, 0
2, 185040, Note_on_c, 0, 66, 69
2, 185203, Note_on_c, 0, 66, 0
2, 185220, Note_on_c, 0, 67, 71
2, 185383, Note_on_c, 0, 67, 0
2, 185400, Note_on_c, 0, 70, 74
2, 185563, Note_on_c, 0, 70, 0
2, 185580, Note_on_c, 0, 71, 69
2, 185743, Note_on_c, 0, 71, 0
2, 185760, Note_on_c, 0, 68, 63
2, 185923, Note_on_c, 0, 68, 0
2, 185940, Note_on_c, 0, 67, 63
2, 186103, Note_on_c, 0, 67, 0
2, 186120, Note_on_c, 0, 68, 70
2, 186283, Note_on_c, 0, 68, 0
2, 186300, Note_on_c, 0, 70, 72
2, 186463, Note_on_c, 0, 70, 0
2, 186480, Note_on_c, 0, 73, 74
2, 186643, Note_on_c, 0, 73, 0
2, 186660, Note_on_c, 0, 75, 70
2, 186823, Note_on_c, 0, 75, 0
2, 186840, Note_on_c, 0, 71, 61
2, 187003, Note_on_c, 0, 71, 0
2, 187020, Note_on_c, 0, 70, 61
2, 187183, Note_on_c, 0, 70, 0
2, 187200, Note_on_c, 0, 71, 66
2, 187363, Note_on_c, 0, 71, 0
2, 187380, Note_on_c, 0, 73, 74
2, 187543, Note_on_c, 0, 73, 0
2, 187560, Note_on_c, 0, 75, 70
2, 187723, Note_on_c, 0, 75, 0
2, 187740, Note_on_c, 0, 73, 61
2, 187903, Note_on_c, 0, 73, 0
2, 187920, Note_on_c, 0, 71, 65
2, 188083, Note_on_c, 0, 71, 0
2, 188460, Note_on_c, 0, 66, 60
2, 188623, Note_on_c, 0, 66, 0
2, 188640, Note_on_c, 0, 64, 59
2, 188803, Note_on_c, 0, 64, 0
2, 188820, Note_on_c, 0, 63, 62
2, 188983, Note_on_c, 0, 63, 0
2, 189000, Note_on_c, 0, 63, 68
2, 189163, Note_on_c, 0, 63, 0
2, 189180, Note_on_c, 0, 64, 69
2, 189343, Note_on_c, 0, 64, 0
2, 189360, Note_on_c, 0, 65, 68
2, 189523, Note_on_c, 0, 65, 0
2, 189540, Note_on_c, 0, 66, 69
2, 189703, Note_on_c, 0, 66, 0
2, 189720, Note_on_c, 0, 66, 68
2, 189883, Note_on_c, 0, 66, 0
2, 189900, Note_on_c, 0, 66, 64
2, 190063, Note_on_c, 0, 66, 0
2, 190080, Note_on_c, 0, 66, 70
2, 190243, Note_on_c, 0, 66, 0
2, 190260, Note_on_c, 0, 63, 59
2, 190423, Note_on_c, 0, 63, 0
2, 190440, Note_on_c, 0, 66, 70
2, 190603, Note_on_c, 0, 66, 0
2, 190620, Note_on_c, 0, 67, 71
2, 190783, Note_on_c, 0, 67, 0
2, 190800, Note_on_c, 0, 68, 72
2, 190963, Note_on_c, 0, 68, 0
2, 190980, Note_on_c, 0, 70, 71
2, 191143, Note_on_c, 0, 70, 0
2, 191160, Note_on_c, 0, 71, 72
2, 191485, Note_on_c, 0, 71, 0
2, 191700, Note_on_c, 0, 68, 59
2, 191863, Note_on_c, 0, 68, 0
2, 191880, Note_on_c, 0, 69, 67
2, 192043, Note_on_c, 0, 69, 0
2, 192060, Note_on_c, 0, 70, 69
2, 192223, Note_on_c, 0, 70, 0
2, 192240, Note_on_c, 0, 71, 72
2, 192403, Note_on_c, 0, 71, 0
2, 192420, Note_on_c, 0, 70, 64
2, 192583, Note_on_c, 0, 70, 0
2, 192600, Note_on_c, 0, 71, 70
2, 192763, Note_on_c, 0, 71, 0
2, 192780, Note_on_c, 0, 72, 73
2, 192943, Note_on_c, 0, 72, 0
2, 192960, Note_on_c, 0, 75, 71
2, 193123, Note_on_c, 0, 75, 0
2, 193140, Note_on_c, 0, 77, 71
2, 193303, Note_on_c, 0, 77, 0
2, 193320, Note_on_c, 0, 74, 63
2, 193483, Note_on_c, 0, 74, 0
2, 193500, Note_on_c, 0, 72, 61
2, 193663, Note_on_c, 0, 72, 0
2, 193680, Note_on_c, 0, 74, 70
2, 193843, Note_on_c, 0, 74, 0
2, 193860, Note_on_c, 0, 75, 74
2, 194023, Note_on_c, 0, 75, 0
2, 194040, Note_on_c, 0, 77, 69
2, 194203, Note_on_c, 0, 77, 0
2, 194220, Note_on_c, 0, 78, 71
2, 194383, Note_on_c, 0, 78, 0
2, 194400, Note_on_c, 0, 77, 67
2, 194563, Note_on_c, 0, 77, 0
2, 194580, Note_on_c, 0, 75, 60
2, 194743, Note_on_c, 0, 75, 0
2, 194760, Note_on_c, 0, 77, 69
2, 194923, Note_on_c, 0, 77, 0
2, 194940, Note_on_c, 0, 78, 75
2, 195103, Note_on_c, 0, 78, 0
2, 195120, Note_on_c, 0, 80, 73
2, 195283, Note_on_c, 0, 80, 0
2, 195300, Note_on_c, 0, 78, 63
2, 195463, Note_on_c, 0, 78, 0
2, 195480, Note_on_c, 0, 77, 64
2, 195643, Note_on_c, 0, 77, 0
2, 195660, Note_on_c, 0, 70, 49
2, 195823, Note_on_c, 0, 70, 0
2, 195840, Note_on_c, 0, 72, 68
2, 196003, Note_on_c, 0, 72, 0
2, 196020, Note_on_c, 0, 74, 75
2, 196183, Note_on_c, 0, 74, 0
2, 196200, Note_on_c, 0, 72, 61
2, 196363, Note_on_c, 0, 72, 0
2, 196380, Note_on_c, 0, 74, 72
2, 196543, Note_on_c, 0, 74, 0
2, 196560, Note_on_c, 0, 75, 74
2, 196723, Note_on_c, 0, 75, 0
2, 196740, Note_on_c, 0, 76, 75
2, 196920, Note_on_c, 0, 76, 0
2, 196920, Note_on_c, 0, 75, 68
2, 197100, Note_on_c, 0, 75, 0
2, 197100, Note_on_c, 0, 78, 84
2, 197280, Note_on_c, 0, 78, 0
2, 197280, Note_on_c, 0, 76, 68
2, 197460, Note_on_c, 0, 76, 0
2, 197460, Note_on_c, 0, 75, 68
2, 197640, Note_on_c, 0, 75, 0
2, 197640, Note_on_c, 0, 75, 70
2, 197803, Note_on_c, 0, 75, 0
2, 197820, Note_on_c, 0, 75, 67
2, 197983, Note_on_c, 0, 75, 0
2, 198000, Note_on_c, 0, 75, 67
2, 198163, Note_on_c, 0, 75, 0
2, 198180, Note_on_c, 0, 75, 70
2, 198343, Note_on_c, 0, 75, 0
2, 198360, Note_on_c, 0, 75, 64
2, 198523, Note_on_c, 0, 75, 0
2, 198540, Note_on_c, 0, 75, 68
2, 198703, Note_on_c, 0, 75, 0
2, 198720, Note_on_c, 0, 75, 68
2, 198883, Note_on_c, 0, 75, 0
2, 198900, Note_on_c, 0, 76, 68
2, 199063, Note_on_c, 0, 76, 0
2, 199080, Note_on_c, 0, 75, 64
2, 199243, Note_on_c, 0, 75, 0
2, 199260, Note_on_c, 0, 73, 65
2, 199423, Note_on_c, 0, 73, 0
2, 199440, Note_on_c, 0, 75, 68
2, 199603, Note_on_c, 0, 75, 0
2, 199620, Note_on_c, 0, 73, 61
2, 199783, Note_on_c, 0, 73, 0
2, 199800, Note_on_c, 0, 76, 74
2, 199963, Note_on_c, 0, 76, 0
2, 199980, Note_on_c, 0, 75, 64
2, 200143, Note_on_c, 0, 75, 0
2, 200160, Note_on_c, 0, 73, 62
2, 200323, Note_on_c, 0, 73, 0
2, 200340, Note_on_c, 0, 73, 65
2, 200503, Note_on_c, 0, 73, 0
2, 200520, Note_on_c, 0, 73, 67
2, 200683, Note_on_c, 0, 73, 0
2, 200700, Note_on_c, 0, 73, 65
2, 200863, Note_on_c, 0, 73, 0
2, 200880, Note_on_c, 0, 73, 70
2, 201043, Note_on_c, 0, 73, 0
2, 201060, Note_on_c, 0, 75, 72
2, 201223, Note_on_c, 0, 75, 0
2, 201240, Note_on_c, 0, 73, 62
2, 201403, Note_on_c, 0, 73, 0
2, 201420, Note_on_c, 0, 71, 63
2, 201583, Note_on_c, 0, 71, 0
2, 201600, Note_on_c, 0, 73, 70
2, 201763, Note_on_c, 0, 73, 0
2, 201780, Note_on_c, 0, 71, 60
2, 201943, Note_on_c, 0, 71, 0
2, 201960, Note_on_c, 0, 75, 77
2, 202123, Note_on_c, 0, 75, 0
2, 202140, Note_on_c, 0, 73, 63
2, 202303, Note_on_c, 0, 73, 0
2, 202320, Note_on_c, 0, 71, 61
2, 202483, Note_on_c, 0, 71, 0
2, 202500, Note_on_c, 0, 71, 65
2, 202663, Note_on_c, 0, 71, 0
2, 202680, Note_on_c, 0, 71, 68
2, 202843, Note_on_c, 0, 71, 0
2, 202860, Note_on_c, 0, 73, 70
2, 203023, Note_on_c, 0, 73, 0
2, 203040, Note_on_c, 0, 75, 75
2, 203203, Note_on_c, 0, 75, 0
2, 203220, Note_on_c, 0, 73, 62
2, 203383, Note_on_c, 0, 73, 0
2, 203400, Note_on_c, 0, 71, 61
2, 203563, Note_on_c, 0, 71, 0
2, 203580, Note_on_c, 0, 71, 65
2, 203743, Note_on_c, 0, 71, 0
2, 203760, Note_on_c, 0, 71, 64
2, 203923, Note_on_c, 0, 71, 0
2, 203940, Note_on_c, 0, 73, 68
2, 204103, Note_on_c, 0, 73, 0
2, 204120, Note_on_c, 0, 75, 74
2, 204283, Note_on_c, 0, 75, 0
2, 204660, Note_on_c, 0, 70, 59
2, 204823, Note_on_c, 0, 70, 0
2, 204840, Note_on_c, 0, 71, 68
2, 205003, Note_on_c, 0, 71, 0
2, 205020, Note_on_c, 0, 70, 61
2, 205183, Note_on_c, 0, 70, 0
2, 205200, Note_on_c, 0, 70, 68
2, 205363, Note_on_c, 0, 70, 0
2, 205380, Note_on_c, 0, 71, 70
2, 205543, Note_on_c, 0, 71, 0
2, 205560, Note_on_c, 0, 70, 65
2, 205723, Note_on_c, 0, 70, 0
2, 205740, Note_on_c, 0, 73, 75
2, 205903, Note_on_c, 0, 73, 0
2, 205920, Note_on_c, 0, 71, 61
2, 206083, Note_on_c, 0, 71, 0
2, 206100, Note_on_c, 0, 70, 60
2, 206263, Note_on_c, 0, 70, 0
2, 206280, Note_on_c, 0, 70, 67
2, 206443, Note_on_c, 0, 70, 0
2, 206460, Note_on_c, 0, 70, 68
2, 206623, Note_on_c, 0, 70, 0
2, 206640, Note_on_c, 0, 70, 68
2, 206803, Note_on_c, 0, 70, 0
2, 206820, Note_on_c, 0, 70, 70
2, 206983, Note_on_c, 0, 70, 0
2, 207000, Note_on_c, 0, 70, 68
2, 207163, Note_on_c, 0, 70, 0
2, 207180, Note_on_c, 0, 70, 67
2, 207343, Note_on_c, 0, 70, 0
2, 207360, Note_on_c, 0, 70, 69
2, 207523, Note_on_c, 0, 70, 0
2, 207540, Note_on_c, 0, 71, 67
2, 207703, Note_on_c, 0, 71, 0
2, 207720, Note_on_c, 0, 70, 62
2, 207883, Note_on_c, 0, 70, 0
2, 207900, Note_on_c, 0, 68, 66
2, 208063, Note_on_c, 0, 68, 0
2, 208080, Note_on_c, 0, 70, 68
2, 208243, Note_on_c, 0, 70, 0
2, 208260, Note_on_c, 0, 68, 60
2, 208423, Note_on_c, 0, 68, 0
2, 208440, Note_on_c, 0, 71, 74
2, 208603, Note_on_c, 0, 71, 0
2, 208620, Note_on_c, 0, 70, 65
2, 208783, Note_on_c, 0, 70, 0
2, 208800, Note_on_c, 0, 68, 61
2, 208963, Note_on_c, 0, 68, 0
2, 208980, Note_on_c, 0, 68, 64
2, 209143, Note_on_c, 0, 68, 0
2, 209160, Note_on_c, 0, 68, 66
2, 209323, Note_on_c, 0, 68, 0
2, 209340, Note_on_c, 0, 68, 67
2, 209503, Note_on_c, 0, 68, 0
2, 209520, Note_on_c, 0, 68, 69
2, 209683, Note_on_c, 0, 68, 0
2, 209700, Note_on_c, 0, 70, 72
2, 209863, Note_on_c, 0, 70, 0
2, 209880, Note_on_c, 0, 68, 61
2, 210043, Note_on_c, 0, 68, 0
2, 210060, Note_on_c, 0, 66, 64
2, 210223, Note_on_c, 0, 66, 0
2, 210240, Note_on_c, 0, 68, 68
2, 210403, Note_on_c, 0, 68, 0
2, 210420, Note_on_c, 0, 66, 63
2, 210583, Note_on_c, 0, 66, 0
2, 210600, Note_on_c, 0, 70, 77
2, 210763, Note_on_c, 0, 70, 0
2, 210780, Note_on_c, 0, 68, 60
2, 210943, Note_on_c, 0, 68, 0
2, 210960, Note_on_c, 0, 66, 60
2, 211123, Note_on_c, 0, 66, 0
2, 211140, Note_on_c, 0, 66, 66
2, 211303, Note_on_c, 0, 66, 0
2, 211320, Note_on_c, 0, 66, 68
2, 211483, Note_on_c, 0, 66, 0
2, 211500, Note_on_c, 0, 68, 69
2, 211663, Note_on_c, 0, 68, 0
2, 211680, Note_on_c, 0, 68, 70
2, 211843, Note_on_c, 0, 68, 0
2, 211860, Note_on_c, 0, 66, 60
2, 212023, Note_on_c, 0, 66, 0
2, 212040, Note_on_c, 0, 64, 62
2, 212203, Note_on_c, 0, 64, 0
2, 212220, Note_on_c, 0, 64, 65
2, 212383, Note_on_c, 0, 64, 0
2, 212400, Note_on_c, 0, 64, 67
2, 212563, Note_on_c, 0, 64, 0
2, 212580, Note_on_c, 0, 64, 66
2, 212743, Note_on_c, 0, 64, 0
2, 212760, Note_on_c, 0, 61, 63
2, 212923, Note_on_c, 0, 61, 0
2, 212940, Note_on_c, 0, 59, 59
2, 213103, Note_on_c, 0, 59, 0
2, 213120, Note_on_c, 0, 58, 60
2, 213283, Note_on_c, 0, 58, 0
2, 213300, Note_on_c, 0, 58, 67
2, 213463, Note_on_c, 0, 58, 0
2, 213480, Note_on_c, 0, 58, 65
2, 213643, Note_on_c, 0, 58, 0
2, 213660, Note_on_c, 0, 58, 64
2, 213823, Note_on_c, 0, 58, 0
2, 213840, Note_on_c, 0, 58, 67
2, 214003, Note_on_c, 0, 58, 0
2, 214020, Note_on_c, 0, 59, 71
2, 214183, Note_on_c, 0, 59, 0
2, 214200, Note_on_c, 0, 58, 65
2, 214363, Note_on_c, 0, 58, 0
2, 214380, Note_on_c, 0, 61, 74
2, 214543, Note_on_c, 0, 61, 0
2, 214560, Note_on_c, 0, 59, 64
2, 214723, Note_on_c, 0, 59, 0
2, 214740, Note_on_c, 0, 58, 63
2, 214903, Note_on_c, 0, 58, 0
2, 214920, Note_on_c, 0, 58, 67
2, 215083, Note_on_c, 0, 58, 0
2, 215100, Note_on_c, 0, 58, 64
2, 215263, Note_on_c, 0, 58, 0
2, 215280, Note_on_c, 0, 58, 66
2, 215443, Note_on_c, 0, 58, 0
2, 215460, Note_on_c, 0, 58, 68
2, 215623, Note_on_c, 0, 58, 0
2, 215640, Note_on_c, 0, 58, 67
2, 215803, Note_on_c, 0, 58, 0
2, 215820, Note_on_c, 0, 58, 66
2, 215983, Note_on_c, 0, 58, 0
2, 216000, Note_on_c, 0, 58, 71
2, 216163, Note_on_c, 0, 58, 0
2, 216180, Note_on_c, 0, 59, 69
2, 216343, Note_on_c, 0, 59, 0
2, 216360, Note_on_c, 0, 58, 61
2, 216523, Note_on_c, 0, 58, 0
2, 216540, Note_on_c, 0, 61, 76
2, 216703, Note_on_c, 0, 61, 0
2, 216720, Note_on_c, 0, 59, 64
2, 216883, Note_on_c, 0, 59, 0
2, 216900, Note_on_c, 0, 58, 61
2, 217063, Note_on_c, 0, 58, 0
2, 217080, Note_on_c, 0, 58, 66
2, 217243, Note_on_c, 0, 58, 0
2, 217260, Note_on_c, 0, 58, 65
2, 217423, Note_on_c, 0, 58, 0
2, 217440, Note_on_c, 0, 58, 66
2, 217603, Note_on_c, 0, 58, 0
2, 217620, Note_on_c, 0, 58, 70
2, 217783, Note_on_c, 0, 58, 0
2, 217800, Note_on_c, 0, 58, 68
2, 217963, Note_on_c, 0, 58, 0
2, 217980, Note_on_c, 0, 58, 64
2, 218143, Note_on_c, 0, 58, 0
2, 218160, Note_on_c, 0, 58, 67
2, 218323, Note_on_c, 0, 58, 0
2, 218340, Note_on_c, 0, 54, 57
2, 218503, Note_on_c, 0, 54, 0
2, 218520, Note_on_c, 0, 56, 70
2, 218683, Note_on_c, 0, 56, 0
2, 218700, Note_on_c, 0, 58, 75
2, 218863, Note_on_c, 0, 58, 0
2, 218880, Note_on_c, 0, 63, 76
2, 219043, Note_on_c, 0, 63, 0
2, 219060, Note_on_c, 0, 54, 50
2, 219223, Note_on_c, 0, 54, 0
2, 219240, Note_on_c, 0, 58, 76
2, 219403, Note_on_c, 0, 58, 0
2, 219420, Note_on_c, 0, 54, 58
2, 219583, Note_on_c, 0, 54, 0
2, 219600, Note_on_c, 0, 56, 67
2, 219763, Note_on_c, 0, 56, 0
2, 219780, Note_on_c, 0, 58, 73
2, 219943, Note_on_c, 0, 58, 0
2, 219960, Note_on_c, 0, 64, 76
2, 220123, Note_on_c, 0, 64, 0
2, 220140, Note_on_c, 0, 54, 49
2, 220303, Note_on_c, 0, 54, 0
2, 220320, Note_on_c, 0, 57, 71
2, 220483, Note_on_c, 0, 57, 0
2, 220500, Note_on_c, 0, 54, 61
2, 220663, Note_on_c, 0, 54, 0
2, 220680, Note_on_c, 0, 56, 71
2, 220843, Note_on_c, 0, 56, 0
2, 220860, Note_on_c, 0, 57, 72
2, 221023, Note_on_c, 0, 57, 0
2, 221040, Note_on_c, 0, 63, 78
2, 221203, Note_on_c, 0, 63, 0
2, 221220, Note_on_c, 0, 54, 49
2, 221383, Note_on_c, 0, 54, 0
2, 221400, Note_on_c, 0, 58, 75
2, 221563, Note_on_c, 0, 58, 0
2, 221580, Note_on_c, 0, 56, 61
2, 221743, Note_on_c, 0, 56, 0
2, 221760, Note_on_c, 0, 57, 70
2, 221923, Note_on_c, 0, 57, 0
2, 221940, Note_on_c, 0, 58, 71
2, 222103, Note_on_c, 0, 58, 0
2, 222120, Note_on_c, 0, 62, 73
2, 222283, Note_on_c, 0, 62, 0
2, 222300, Note_on_c, 0, 56, 54
2, 222463, Note_on_c, 0, 56, 0
2, 222480, Note_on_c, 0, 46, 50
2, 222643, Note_on_c, 0, 46, 0
2, 222660, Note_on_c, 0, 47, 66
2, 222823, Note_on_c, 0, 47, 0
2, 222840, Note_on_c, 0, 46, 61
2, 223003, Note_on_c, 0, 46, 0
2, 223020, Note_on_c, 0, 49, 72
2, 223183, Note_on_c, 0, 49, 0
2, 223200, Note_on_c, 0, 47, 62
2, 223363, Note_on_c, 0, 47, 0
2, 223380, Note_on_c, 0, 46, 59
2, 223543, Note_on_c, 0, 46, 0
2, 223560, Note_on_c, 0, 46, 67
2, 223723, Note_on_c, 0, 46, 0
2, 223740, Note_on_c, 0, 46, 68
2, 223903, Note_on_c, 0, 46, 0
2, 223920, Note_on_c, 0, 46, 64
2, 224083, Note_on_c, 0, 46, 0
2, 224100, Note_on_c, 0, 47, 69
2, 224263, Note_on_c, 0, 47, 0
2, 224280, Note_on_c, 0, 46, 62
2, 224443, Note_on_c, 0, 46, 0
2, 224460, Note_on_c, 0, 46, 67
2, 224623, Note_on_c, 0, 46, 0
2, 224640, Note_on_c, 0, 46, 69
2, 224803, Note_on_c, 0, 46, 0
2, 224820, Note_on_c, 0, 47, 68
2, 224983, Note_on_c, 0, 47, 0
2, 225000, Note_on_c, 0, 46, 62
2, 225163, Note_on_c, 0, 46, 0
2, 225180, Note_on_c, 0, 49, 74
2, 225343, Note_on_c, 0, 49, 0
2, 225360, Note_on_c, 0, 47, 63
2, 225523, Note_on_c, 0, 47, 0
2, 225540, Note_on_c, 0, 46, 63
2, 225703, Note_on_c, 0, 46, 0
2, 225720, Note_on_c, 0, 46, 69
2, 225883, Note_on_c, 0, 46, 0
2, 225900, Note_on_c, 0, 46, 67
2, 226063, Note_on_c, 0, 46, 0
2, 226080, Note_on_c, 0, 46, 67
2, 226243, Note_on_c, 0, 46, 0
2, 226260, Note_on_c, 0, 47, 69
2, 226423, Note_on_c, 0, 47, 0
2, 226440, Note_on_c, 0, 46, 61
2, 226603, Note_on_c, 0, 46, 0
2, 226620, Note_on_c, 0, 46, 68
2, 226783, Note_on_c, 0, 46, 0
2, 226800, Note_on_c, 0, 46, 70
2, 226963, Note_on_c, 0, 46, 0
2, 226980, Note_on_c, 0, 54, 80
2, 227143, Note_on_c, 0, 54, 0
2, 227160, Note_on_c, 0, 56, 75
2, 227323, Note_on_c, 0, 56, 0
2, 227340, Note_on_c, 0, 58, 75
2, 227503, Note_on_c, 0, 58, 0
2, 227520, Note_on_c, 0, 63, 75
2, 227683, Note_on_c, 0, 63, 0
2, 227700, Note_on_c, 0, 54, 51
2, 227863, Note_on_c, 0, 54, 0
2, 227880, Note_on_c, 0, 47, 53
2, 228043, Note_on_c, 0, 47, 0
2, 228060, Note_on_c, 0, 54, 76
2, 228223, Note_on_c, 0, 54, 0
2, 228240, Note_on_c, 0, 56, 73
2, 228403, Note_on_c, 0, 56, 0
2, 228420, Note_on_c, 0, 57, 72
2, 228583, Note_on_c, 0, 57, 0
2, 228600, Note_on_c, 0, 63, 79
2, 228763, Note_on_c, 0, 63, 0
2, 228780, Note_on_c, 0, 54, 50
2, 228943, Note_on_c, 0, 54, 0
2, 228960, Note_on_c, 0, 53, 63
2, 229123, Note_on_c, 0, 53, 0
2, 229140, Note_on_c, 0, 56, 72
2, 229303, Note_on_c, 0, 56, 0
2, 229320, Note_on_c, 0, 58, 72
2, 229483, Note_on_c, 0, 58, 0
2, 229500, Note_on_c, 0, 59, 74
2, 229663, Note_on_c, 0, 59, 0
2, 229680, Note_on_c, 0, 63, 75
2, 229843, Note_on_c, 0, 63, 0
2, 229860, Note_on_c, 0, 56, 54
2, 230023, Note_on_c, 0, 56, 0
2, 230040, Note_on_c, 0, 46, 48
2, 230203, Note_on_c, 0, 46, 0
2, 230220, Note_on_c, 0, 56, 80
2, 230383, Note_on_c, 0, 56, 0
2, 230400, Note_on_c, 0, 57, 70
2, 230563, Note_on_c, 0, 57, 0
2, 230580, Note_on_c, 0, 58, 74
2, 230743, Note_on_c, 0, 58, 0
2, 230760, Note_on_c, 0, 62, 72
2, 230923, Note_on_c, 0, 62, 0
2, 230940, Note_on_c, 0, 56, 55
2, 231103, Note_on_c, 0, 56, 0
2, 231120, Note_on_c, 0, 58, 80
2, 231120, Note_on_c, 0, 63, 78
2, 231120, Note_on_c, 0, 51, 60
2, 231120, Note_on_c, 0, 54, 59
2, 232130, Note_on_c, 0, 54, 0
2, 232130, Note_on_c, 0, 63, 0
2, 232130, Note_on_c, 0, 51, 0
2, 232130, Note_on_c, 0, 58, 0
2, 232200, Note_on_c, 0, 58, 76
2, 232200, Note_on_c, 0, 63, 77
2, 232200, Note_on_c, 0, 66, 76
2, 232200, Note_on_c, 0, 49, 66
2, 232200, Note_on_c, 0, 51, 69
2, 232200, Note_on_c, 0, 54, 69
2, 233210, Note_on_c, 0, 54, 0
2, 233210, Note_on_c, 0, 49, 0
2, 233210, Note_on_c, 0, 58, 0
2, 233210, Note_on_c, 0, 63, 0
2, 233210, Note_on_c, 0, 66, 0
2, 233210, Note_on_c, 0, 51, 0
2, 233280, Note_on_c, 0, 58, 80
2, 233280, Note_on_c, 0, 63, 78
2, 233280, Note_on_c, 0, 66, 79
2, 233280, Note_on_c, 0, 70, 80
2, 233280, Note_on_c, 0, 48, 68
2, 233280, Note_on_c, 0, 51, 70
2, 233280, Note_on_c, 0, 54, 68
2, 234290, Note_on_c, 0, 54, 0
2, 234290, Note_on_c, 0, 51, 0
2, 234290, Note_on_c, 0, 70, 0
2, 234290, Note_on_c, 0, 58, 0
2, 234290, Note_on_c, 0, 63, 0
2, 234290, Note_on_c, 0, 66, 0
2, 234290, Note_on_c, 0, 48, 0
2, 234360, Note_on_c, 0, 59, 76
2, 234360, Note_on_c, 0, 62, 74
2, 234360, Note_on_c, 0, 66, 76
2, 234360, Note_on_c, 0, 71, 75
2, 234360, Note_on_c, 0, 47, 67
2, 234360, Note_on_c, 0, 50, 69
2, 234360, Note_on_c, 0, 54, 70
2, 235370, Note_on_c, 0, 54, 0
2, 235370, Note_on_c, 0, 50, 0
2, 235370, Note_on_c, 0, 71, 0
2, 235370, Note_on_c, 0, 59, 0
2, 235370, Note_on_c, 0, 62, 0
2, 235370, Note_on_c, 0, 66, 0
2, 235370, Note_on_c, 0, 47, 0
2, 235440, Note_on_c, 0, 62, 77
2, 235440, Note_on_c, 0, 65, 75
2, 235440, Note_on_c, 0, 70, 76
2, 235440, Note_on_c, 0, 74, 75
2, 235440, Note_on_c, 0, 46, 78
2, 235440, Note_on_c, 0, 50, 76
2, 235440, Note_on_c, 0, 53, 76
2, 235440, Note_on_c, 0, 58, 76
2, 236450, Note_on_c, 0, 58, 0
2, 236450, Note_on_c, 0, 70, 0
2, 236450, Note_on_c, 0, 53, 0
2, 236450, Note_on_c, 0, 74, 0
2, 236450, Note_on_c, 0, 62, 0
2, 236450, Note_on_c, 0, 65, 0
2, 236450, Note_on_c, 0, 50, 0
2, 236450, Note_on_c, 0, 46, 0
2, 236520, Note_on_c, 0, 63, 75
2, 236520, Note_on_c, 0, 68, 73
2, 236520, Note_on_c, 0, 71, 72
2, 236520, Note_on_c, 0, 75, 73
2, 236520, Note_on_c, 0, 51, 73
2, 236520, Note_on_c, 0, 56, 73
2, 236520, Note_on_c, 0, 59, 71
2, 237530, Note_on_c, 0, 59, 0
2, 237530, Note_on_c, 0, 56, 0
2, 237530, Note_on_c, 0, 75, 0
2, 237530, Note_on_c, 0, 63, 0
2, 237530, Note_on_c, 0, 68, 0
2, 237530, Note_on_c, 0, 71, 0
2, 237530, Note_on_c, 0, 51, 0
2, 237600, Note_on_c, 0, 66, 75
2, 237600, Note_on_c, 0, 71, 75
2, 237600, Note_on_c, 0, 75, 77
2, 237600, Note_on_c, 0, 78, 77
2, 237600, Note_on_c, 0, 51, 68
2, 237600, Note_on_c, 0, 54, 69
2, 237600, Note_on_c, 0, 59, 70
2, 238610, Note_on_c, 0, 59, 0
2, 238610, Note_on_c, 0, 54, 0
2, 238610, Note_on_c, 0, 78, 0
2, 238610, Note_on_c, 0, 66, 0
2, 238610, Note_on_c, 0, 71, 0
2, 238610, Note_on_c, 0, 75, 0
2, 238610, Note_on_c, 0, 51, 0
2, 238680, Note_on_c, 0, 69, 77
2, 238680, Note_on_c, 0, 72, 74
2, 238680, Note_on_c, 0, 75, 78
2, 238680, Note_on_c, 0, 77, 77
2, 238680, Note_on_c, 0, 81, 75
2, 238680, Note_on_c, 0, 53, 75
2, 238680, Note_on_c, 0, 57, 77
2, 238680, Note_on_c, 0, 60, 79
2, 238680, Note_on_c, 0, 63, 78
2, 239690, Note_on_c, 0, 63, 0
2, 239690, Note_on_c, 0, 72, 0
2, 239690, Note_on_c, 0, 75, 0
2, 239690, Note_on_c, 0, 60, 0
2, 239690, Note_on_c, 0, 77, 0
2, 239690, Note_on_c, 0, 69, 0
2, 239690, Note_on_c, 0, 57, 0
2, 239690, Note_on_c, 0, 53, 0
2, 239690, Note_on_c, 0, 81, 0
2, 239760, Note_on_c, 0, 70, 71
2, 239760, Note_on_c, 0, 75, 73
2, 239760, Note_on_c, 0, 78, 71
2, 239760, Note_on_c, 0, 82, 72
2, 239760, Note_on_c, 0, 54, 75
2, 239760, Note_on_c, 0, 58, 75
2, 239760, Note_on_c, 0, 63, 77
2, 239760, Note_on_c, 0, 66, 74
2, 240247, Note_on_c, 0, 66, 0
2, 240247, Note_on_c, 0, 78, 0
2, 240247, Note_on_c, 0, 63, 0
2, 240247, Note_on_c, 0, 82, 0
2, 240247, Note_on_c, 0, 70, 0
2, 240247, Note_on_c, 0, 75, 0
2, 240247, Note_on_c, 0, 58, 0
2, 240247, Note_on_c, 0, 54, 0
2, 240300, Note_on_c, 0, 70, 66
2, 240300, Note_on_c, 0, 75, 64
2, 240300, Note_on_c, 0, 78, 66
2, 240300, Note_on_c, 0, 82, 65
2, 240300, Note_on_c, 0, 66, 71
2, 240389, Note_on_c, 0, 82, 0
2, 240389, Note_on_c, 0, 78, 0
2, 240389, Note_on_c, 0, 75, 0
2, 240389, Note_on_c, 0, 70, 0
2, 240463, Note_on_c, 0, 66, 0
2, 240480, Note_on_c, 0, 65, 63
2, 240643, Note_on_c, 0, 65, 0
2, 240660, Note_on_c, 0, 63, 60
2, 240823, Note_on_c, 0, 63, 0
2, 240840, Note_on_c, 0, 71, 62
2, 240840, Note_on_c, 0, 75, 62
2, 240840, Note_on_c, 0, 78, 62
2, 240840, Note_on_c, 0, 83, 61
2, 240840, Note_on_c, 0, 66, 73
2, 240929, Note_on_c, 0, 83, 0
2, 240929, Note_on_c, 0, 78, 0
2, 240929, Note_on_c, 0, 75, 0
2, 240929, Note_on_c, 0, 71, 0
2, 241003, Note_on_c, 0, 66, 0
2, 241020, Note_on_c, 0, 65, 61
2, 241183, Note_on_c, 0, 65, 0
2, 241200, Note_on_c, 0, 63, 60
2, 241363, Note_on_c, 0, 63, 0
2, 241380, Note_on_c, 0, 73, 62
2, 241380, Note_on_c, 0, 75, 61
2, 241380, Note_on_c, 0, 78, 61
2, 241380, Note_on_c, 0, 85, 62
2, 241380, Note_on_c, 0, 70, 81
2, 241469, Note_on_c, 0, 85, 0
2, 241469, Note_on_c, 0, 78, 0
2, 241469, Note_on_c, 0, 75, 0
2, 241469, Note_on_c, 0, 73, 0
2, 241543, Note_on_c, 0, 70, 0
2, 241560, Note_on_c, 0, 68, 62
2, 241723, Note_on_c, 0, 68, 0
2, 241740, Note_on_c, 0, 66, 62
2, 241903, Note_on_c, 0, 66, 0
2, 241920, Note_on_c, 0, 70, 62
2, 241920, Note_on_c, 0, 75, 61
2, 241920, Note_on_c, 0, 78, 59
2, 241920, Note_on_c, 0, 82, 60
2, 241920, Note_on_c, 0, 66, 66
2, 242009, Note_on_c, 0, 82, 0
2, 242009, Note_on_c, 0, 78, 0
2, 242009, Note_on_c, 0, 75, 0
2, 242009, Note_on_c, 0, 70, 0
2, 242083, Note_on_c, 0, 66, 0
2, 242100, Note_on_c, 0, 65, 63
2, 242263, Note_on_c, 0, 65, 0
2, 242280, Note_on_c, 0, 63, 60
2, 242443, Note_on_c, 0, 63, 0
2, 242460, Note_on_c, 0, 70, 56
2, 242460, Note_on_c, 0, 75, 60
2, 242460, Note_on_c, 0, 78, 57
2, 242460, Note_on_c, 0, 82, 59
2, 242460, Note_on_c, 0, 66, 74
2, 242549, Note_on_c, 0, 82, 0
2, 242549, Note_on_c, 0, 78, 0
2, 242549, Note_on_c, 0, 75, 0
2, 242549, Note_on_c, 0, 70, 0
2, 242623, Note_on_c, 0, 66, 0
2, 242640, Note_on_c, 0, 65, 63
2, 242803, Note_on_c, 0, 65, 0
2, 242820, Note_on_c, 0, 63, 59
2, 242983, Note_on_c, 0, 63, 0
2, 243000, Note_on_c, 0, 71, 61
2, 243000, Note_on_c, 0, 75, 59
2, 243000, Note_on_c, 0, 78, 60
2, 243000, Note_on_c, 0, 83, 61
2, 243000, Note_on_c, 0, 66, 74
2, 243089, Note_on_c, 0, 83, 0
2, 243089, Note_on_c, 0, 78, 0
2, 243089, Note_on_c, 0, 75, 0
2, 243089, Note_on_c, 0, 71, 0
2, 243163, Note_on_c, 0, 66, 0
2, 243180, Note_on_c, 0, 65, 64
2, 243343, Note_on_c, 0, 65, 0
2, 243360, Note_on_c, 0, 63, 62
2, 243523, Note_on_c, 0, 63, 0
2, 243540, Note_on_c, 0, 73, 56
2, 243540, Note_on_c, 0, 75, 56
2, 243540, Note_on_c, 0, 78, 57
2, 243540, Note_on_c, 0, 85, 59
2, 243540, Note_on_c, 0, 70, 81
2, 243629, Note_on_c, 0, 85, 0
2, 243629, Note_on_c, 0, 78, 0
2, 243629, Note_on_c, 0, 75, 0
2, 243629, Note_on_c, 0, 73, 0
2, 243703, Note_on_c, 0, 70, 0
2, 243720, Note_on_c, 0, 68, 64
2, 243883, Note_on_c, 0, 68, 0
2, 243900, Note_on_c, 0, 66, 59
2, 244063, Note_on_c, 0, 66, 0
2, 244080, Note_on_c, 0, 70, 62
2, 244080, Note_on_c, 0, 75, 62
2, 244080, Note_on_c, 0, 78, 60
2, 244080, Note_on_c, 0, 82, 59
2, 244080, Note_on_c, 0, 66, 66
2, 244169, Note_on_c, 0, 82, 0
2, 244169, Note_on_c, 0, 78, 0
2, 244169, Note_on_c, 0, 75, 0
2, 244169, Note_on_c, 0, 70, 0
2, 244243, Note_on_c, 0, 66, 0
2, 244260, Note_on_c, 0, 65, 64
2, 244423, Note_on_c, 0, 65, 0
2, 244440, Note_on_c, 0, 63, 62
2, 244603, Note_on_c, 0, 63, 0
2, 244620, Note_on_c, 0, 71, 57
2, 244620, Note_on_c, 0, 78, 58
2, 244620, Note_on_c, 0, 83, 59
2, 244620, Note_on_c, 0, 59, 60
2, 244783, Note_on_c, 0, 59, 0
2, 244800, Note_on_c, 0, 63, 74
2, 244945, Note_on_c, 0, 78, 0
2, 244945, Note_on_c, 0, 83, 0
2, 244945, Note_on_c, 0, 71, 0
2, 244963, Note_on_c, 0, 63, 0
2, 244980, Note_on_c, 0, 85, 70
2, 244980, Note_on_c, 0, 65, 72
2, 245143, Note_on_c, 0, 65, 0
2, 245143, Note_on_c, 0, 85, 0
2, 245160, Note_on_c, 0, 70, 63
2, 245160, Note_on_c, 0, 78, 62
2, 245160, Note_on_c, 0, 82, 63
2, 245160, Note_on_c, 0, 66, 74
2, 245323, Note_on_c, 0, 66, 0
2, 245337, Note_on_c, 0, 78, 0
2, 245337, Note_on_c, 0, 82, 0
2, 245337, Note_on_c, 0, 70, 0
2, 245340, Note_on_c, 0, 65, 62
2, 245503, Note_on_c, 0, 65, 0
2, 245520, Note_on_c, 0, 63, 63
2, 245683, Note_on_c, 0, 63, 0
2, 245700, Note_on_c, 0, 71, 56
2, 245700, Note_on_c, 0, 78, 58
2, 245700, Note_on_c, 0, 83, 58
2, 245700, Note_on_c, 0, 59, 58
2, 245863, Note_on_c, 0, 59, 0
2, 245880, Note_on_c, 0, 63, 75
2, 246025, Note_on_c, 0, 78, 0
2, 246025, Note_on_c, 0, 83, 0
2, 246025, Note_on_c, 0, 71, 0
2, 246043, Note_on_c, 0, 63, 0
2, 246060, Note_on_c, 0, 85, 69
2, 246060, Note_on_c, 0, 65, 69
2, 246223, Note_on_c, 0, 65, 0
2, 246223, Note_on_c, 0, 85, 0
2, 246240, Note_on_c, 0, 70, 63
2, 246240, Note_on_c, 0, 78, 62
2, 246240, Note_on_c, 0, 82, 65
2, 246240, Note_on_c, 0, 66, 73
2, 246403, Note_on_c, 0, 66, 0
2, 246417, Note_on_c, 0, 78, 0
2, 246417, Note_on_c, 0, 82, 0
2, 246417, Note_on_c, 0, 70, 0
2, 246420, Note_on_c, 0, 65, 64
2, 246583, Note_on_c, 0, 65, 0
2, 246600, Note_on_c, 0, 63, 61
2, 246763, Note_on_c, 0, 63, 0
2, 246780, Note_on_c, 0, 71, 57
2, 246780, Note_on_c, 0, 78, 59
2, 246780, Note_on_c, 0, 83, 58
2, 246780, Note_on_c, 0, 59, 58
2, 246943, Note_on_c, 0, 59, 0
2, 246960, Note_on_c, 0, 63, 74
2, 247105, Note_on_c, 0, 78, 0
2, 247105, Note_on_c, 0, 83, 0
2, 247105, Note_on_c, 0, 71, 0
2, 247123, Note_on_c, 0, 63, 0
2, 247140, Note_on_c, 0, 85, 68
2, 247140, Note_on_c, 0, 65, 70
2, 247303, Note_on_c, 0, 65, 0
2, 247303, Note_on_c, 0, 85, 0
2, 247320, Note_on_c, 0, 70, 63
2, 247320, Note_on_c, 0, 78, 62
2, 247320, Note_on_c, 0, 82, 65
2, 247320, Note_on_c, 0, 66, 73
2, 247483, Note_on_c, 0, 66, 0
2, 247497, Note_on_c, 0, 78, 0
2, 247497, Note_on_c, 0, 82, 0
2, 247497, Note_on_c, 0, 70, 0
2, 247500, Note_on_c, 0, 65, 63
2, 247663, Note_on_c, 0, 65, 0
2, 247680, Note_on_c, 0, 63, 60
2, 247843, Note_on_c, 0, 63, 0
2, 247860, Note_on_c, 0, 72, 57
2, 247860, Note_on_c, 0, 75, 57
2, 247860, Note_on_c, 0, 78, 58
2, 247860, Note_on_c, 0, 84, 56
2, 247860, Note_on_c, 0, 60, 60
2, 248023, Note_on_c, 0, 60, 0
2, 248023, Note_on_c, 0, 72, 0
2, 248023, Note_on_c, 0, 75, 0
2, 248023, Note_on_c, 0, 78, 0
2, 248023, Note_on_c, 0, 84, 0
2, 248400, Note_on_c, 0, 73, 62
2, 248400, Note_on_c, 0, 77, 62
2, 248400, Note_on_c, 0, 80, 59
2, 248400, Note_on_c, 0, 85, 60
2, 248400, Note_on_c, 0, 61, 60
2, 248400, Note_on_c, 0, 65, 63
2, 248400, Note_on_c, 0, 68, 59
2, 248563, Note_on_c, 0, 68, 0
2, 248563, Note_on_c, 0, 65, 0
2, 248563, Note_on_c, 0, 85, 0
2, 248563, Note_on_c, 0, 73, 0
2, 248563, Note_on_c, 0, 77, 0
2, 248563, Note_on_c, 0, 80, 0
2, 248563, Note_on_c, 0, 61, 0
2, 248940, Note_on_c, 0, 61, 61
2, 248940, Note_on_c, 0, 61, 48
2, 248940, Note_on_c, 0, 49, 60
2, 249103, Note_on_c, 0, 61, 0
2, 249120, Note_on_c, 0, 56, 55
2, 249283, Note_on_c, 0, 56, 0
2, 249300, Note_on_c, 0, 53, 57
2, 249427, Note_on_c, 0, 49, 0
2, 249427, Note_on_c, 0, 61, 0
2, 249463, Note_on_c, 0, 53, 0
2, 249480, Note_on_c, 0, 61, 82
2, 249480, Note_on_c, 0, 61, 67
2, 249480, Note_on_c, 0, 49, 65
2, 249643, Note_on_c, 0, 61, 0
2, 249660, Note_on_c, 0, 56, 59
2, 249823, Note_on_c, 0, 56, 0
2, 249840, Note_on_c, 0, 53, 60
2, 249967, Note_on_c, 0, 49, 0
2, 249967, Note_on_c, 0, 61, 0
2, 250003, Note_on_c, 0, 53, 0
2, 250020, Note_on_c, 0, 63, 87
2, 250020, Note_on_c, 0, 63, 69
2, 250020, Note_on_c, 0, 51, 71
2, 250183, Note_on_c, 0, 63, 0
2, 250200, Note_on_c, 0, 56, 54
2, 250363, Note_on_c, 0, 56, 0
2, 250380, Note_on_c, 0, 54, 57
2, 250507, Note_on_c, 0, 51, 0
2, 250507, Note_on_c, 0, 63, 0
2, 250543, Note_on_c, 0, 54, 0
2, 250560, Note_on_c, 0, 65, 117
2, 250560, Note_on_c, 0, 65, 100
2, 250560, Note_on_c, 0, 53, 100
2, 250723, Note_on_c, 0, 65, 0
2, 250740, Note_on_c, 0, 61, 60
2, 250903, Note_on_c, 0, 61, 0
2, 250920, Note_on_c, 0, 56, 54
2, 251047, Note_on_c, 0, 53, 0
2, 251047, Note_on_c, 0, 65, 0
2, 251083, Note_on_c, 0, 56, 0
2, 251100, Note_on_c, 0, 61, 75
2, 251100, Note_on_c, 0, 61, 56
2, 251100, Note_on_c, 0, 49, 59
2, 251263, Note_on_c, 0, 61, 0
2, 251280, Note_on_c, 0, 56, 59
2, 251443, Note_on_c, 0, 56, 0
2, 251460, Note_on_c, 0, 53, 57
2, 251587, Note_on_c, 0, 49, 0
2, 251587, Note_on_c, 0, 61, 0
2, 251623, Note_on_c, 0, 53, 0
2, 251640, Note_on_c, 0, 61, 80
2, 251640, Note_on_c, 0, 61, 69
2, 251640, Note_on_c, 0, 49, 67
2, 251803, Note_on_c, 0, 61, 0
2, 251820, Note_on_c, 0, 56, 57
2, 251983, Note_on_c, 0, 56, 0
2, 252000, Note_on_c, 0, 53, 57
2, 252127, Note_on_c, 0, 49, 0
2, 252127, Note_on_c, 0, 61, 0
2, 252163, Note_on_c, 0, 53, 0
2, 252180, Note_on_c, 0, 63, 86
2, 252180, Note_on_c, 0, 63, 71
2, 252180, Note_on_c, 0, 51, 71
2, 252343, Note_on_c, 0, 63, 0
2, 252360, Note_on_c, 0, 56, 53
2, 252523, Note_on_c, 0, 56, 0
2, 252540, Note_on_c, 0, 54, 57
2, 252667, Note_on_c, 0, 51, 0
2, 252667, Note_on_c, 0, 63, 0
2, 252703, Note_on_c, 0, 54, 0
2, 252720, Note_on_c, 0, 65, 117
2, 252720, Note_on_c, 0, 65, 101
2, 252720, Note_on_c, 0, 53, 99
2, 252883, Note_on_c, 0, 65, 0
2, 252900, Note_on_c, 0, 61, 59
2, 253063, Note_on_c, 0, 61, 0
2, 253080, Note_on_c, 0, 56, 54
2, 253207, Note_on_c, 0, 53, 0
2, 253207, Note_on_c, 0, 65, 0
2, 253243, Note_on_c, 0, 56, 0
2, 253260, Note_on_c, 0, 61, 76
2, 253260, Note_on_c, 0, 61, 58
2, 253260, Note_on_c, 0, 49, 59
2, 253423, Note_on_c, 0, 61, 0
2, 253440, Note_on_c, 0, 56, 58
2, 253603, Note_on_c, 0, 56, 0
2, 253620, Note_on_c, 0, 53, 57
2, 253747, Note_on_c, 0, 49, 0
2, 253747, Note_on_c, 0, 61, 0
2, 253783, Note_on_c, 0, 53, 0
2, 253800, Note_on_c, 0, 61, 84
2, 253800, Note_on_c, 0, 61, 67
2, 253800, Note_on_c, 0, 49, 68
2, 253963, Note_on_c, 0, 61, 0
2, 253980, Note_on_c, 0, 56, 58
2, 254143, Note_on_c, 0, 56, 0
2, 254160, Note_on_c, 0, 53, 56
2, 254287, Note_on_c, 0, 49, 0
2, 254287, Note_on_c, 0, 61, 0
2, 254323, Note_on_c, 0, 53, 0
2, 254340, Note_on_c, 0, 63, 86
2, 254340, Note_on_c, 0, 63, 69
2, 254340, Note_on_c, 0, 51, 71
2, 254503, Note_on_c, 0, 63, 0
2, 254520, Note_on_c, 0, 56, 55
2, 254683, Note_on_c, 0, 56, 0
2, 254700, Note_on_c, 0, 54, 59
2, 254827, Note_on_c, 0, 51, 0
2, 254827, Note_on_c, 0, 63, 0
2, 254863, Note_on_c, 0, 54, 0
2, 254880, Note_on_c, 0, 65, 87
2, 254880, Note_on_c, 0, 65, 75
2, 254880, Note_on_c, 0, 53, 73
2, 255043, Note_on_c, 0, 65, 0
2, 255060, Note_on_c, 0, 61, 60
2, 255223, Note_on_c, 0, 61, 0
2, 255240, Note_on_c, 0, 56, 54
2, 255367, Note_on_c, 0, 53, 0
2, 255367, Note_on_c, 0, 65, 0
2, 255403, Note_on_c, 0, 56, 0
2, 255420, Note_on_c, 0, 66, 86
2, 255420, Note_on_c, 0, 66, 71
2, 255420, Note_on_c, 0, 54, 70
2, 255583, Note_on_c, 0, 66, 0
2, 255600, Note_on_c, 0, 63, 62
2, 255763, Note_on_c, 0, 63, 0
2, 255780, Note_on_c, 0, 61, 61
2, 255907, Note_on_c, 0, 54, 0
2, 255907, Note_on_c, 0, 66, 0
2, 255943, Note_on_c, 0, 61, 0
2, 255960, Note_on_c, 0, 67, 81
2, 255960, Note_on_c, 0, 67, 75
2, 255960, Note_on_c, 0, 55, 75
2, 256123, Note_on_c, 0, 67, 0
2, 256140, Note_on_c, 0, 64, 59
2, 256303, Note_on_c, 0, 64, 0
2, 256320, Note_on_c, 0, 61, 57
2, 256447, Note_on_c, 0, 55, 0
2, 256447, Note_on_c, 0, 67, 0
2, 256483, Note_on_c, 0, 61, 0
2, 256500, Note_on_c, 0, 68, 81
2, 256500, Note_on_c, 0, 68, 69
2, 256500, Note_on_c, 0, 56, 71
2, 256663, Note_on_c, 0, 68, 0
2, 256680, Note_on_c, 0, 65, 61
2, 256843, Note_on_c, 0, 65, 0
2, 256860, Note_on_c, 0, 60, 54
2, 256987, Note_on_c, 0, 56, 0
2, 256987, Note_on_c, 0, 68, 0
2, 257023, Note_on_c, 0, 60, 0
2, 257040, Note_on_c, 0, 61, 87
2, 257040, Note_on_c, 0, 65, 88
2, 257040, Note_on_c, 0, 73, 89
2, 257040, Note_on_c, 0, 49, 70
2, 257040, Note_on_c, 0, 56, 70
2, 257203, Note_on_c, 0, 56, 0
2, 257203, Note_on_c, 0, 61, 0
2, 257203, Note_on_c, 0, 65, 0
2, 257203, Note_on_c, 0, 73, 0
2, 257203, Note_on_c, 0, 49, 0
2, 257580, Note_on_c, 0, 61, 63
2, 257580, Note_on_c, 0, 61, 51
2, 257580, Note_on_c, 0, 49, 59
2, 257743, Note_on_c, 0, 61, 0
2, 257760, Note_on_c, 0, 56, 53
2, 257923, Note_on_c, 0, 56, 0
2, 257940, Note_on_c, 0, 53, 57
2, 258067, Note_on_c, 0, 49, 0
2, 258067, Note_on_c, 0, 61, 0
2, 258103, Note_on_c, 0, 53, 0
2, 258120, Note_on_c, 0, 61, 80
2, 258120, Note_on_c, 0, 61, 65
2, 258120, Note_on_c, 0, 49, 68
2, 258283, Note_on_c, 0, 61, 0
2, 258300, Note_on_c, 0, 56, 56
2, 258463, Note_on_c, 0, 56, 0
2, 258480, Note_on_c, 0, 53, 58
2, 258607, Note_on_c, 0, 49, 0
2, 258607, Note_on_c, 0, 61, 0
2, 258643, Note_on_c, 0, 53, 0
2, 258660, Note_on_c, 0, 63, 86
2, 258660, Note_on_c, 0, 63, 69
2, 258660, Note_on_c, 0, 51, 71
2, 258823, Note_on_c, 0, 63, 0
2, 258840, Note_on_c, 0, 56, 54
2, 259003, Note_on_c, 0, 56, 0
2, 259020, Note_on_c, 0, 54, 58
2, 259147, Note_on_c, 0, 51, 0
2, 259147, Note_on_c, 0, 63, 0
2, 259183, Note_on_c, 0, 54, 0
2, 259200, Note_on_c, 0, 65, 116
2, 259200, Note_on_c, 0, 65, 102
2, 259200, Note_on_c, 0, 53, 102
2, 259363, Note_on_c, 0, 65, 0
2, 259380, Note_on_c, 0, 61, 60
2, 259543, Note_on_c, 0, 61, 0
2, 259560, Note_on_c, 0, 56, 54
2, 259687, Note_on_c, 0, 53, 0
2, 259687, Note_on_c, 0, 65, 0
2, 259723, Note_on_c, 0, 56, 0
2, 259740, Note_on_c, 0, 61, 75
2, 259740, Note_on_c, 0, 61, 60
2, 259740, Note_on_c, 0, 49, 57
2, 259903, Note_on_c, 0, 61, 0
2, 259920, Note_on_c, 0, 56, 59
2, 260083, Note_on_c, 0, 56, 0
2, 260100, Note_on_c, 0, 53, 58
2, 260227, Note_on_c, 0, 49, 0
2, 260227, Note_on_c, 0, 61, 0
2, 260263, Note_on_c, 0, 53, 0
2, 260280, Note_on_c, 0, 61, 83
2, 260280, Note_on_c, 0, 61, 69
2, 260280, Note_on_c, 0, 49, 66
2, 260443, Note_on_c, 0, 61, 0
2, 260460, Note_on_c, 0, 56, 57
2, 260623, Note_on_c, 0, 56, 0
2, 260640, Note_on_c, 0, 53, 59
2, 260767, Note_on_c, 0, 49, 0
2, 260767, Note_on_c, 0, 61, 0
2, 260803, Note_on_c, 0, 53, 0
2, 260820, Note_on_c, 0, 63, 87
2, 260820, Note_on_c, 0, 63, 72
2, 260820, Note_on_c, 0, 51, 69
2, 260983, Note_on_c, 0, 63, 0
2, 261000, Note_on_c, 0, 56, 54
2, 261163, Note_on_c, 0, 56, 0
2, 261180, Note_on_c, 0, 54, 61
2, 261307, Note_on_c, 0, 51, 0
2, 261307, Note_on_c, 0, 63, 0
2, 261343, Note_on_c, 0, 54, 0
2, 261360, Note_on_c, 0, 65, 117
2, 261360, Note_on_c, 0, 65, 100
2, 261360, Note_on_c, 0, 53, 102
2, 261523, Note_on_c, 0, 65, 0
2, 261540, Note_on_c, 0, 61, 61
2, 261703, Note_on_c, 0, 61, 0
2, 261720, Note_on_c, 0, 56, 55
2, 261847, Note_on_c, 0, 53, 0
2, 261847, Note_on_c, 0, 65, 0
2, 261883, Note_on_c, 0, 56, 0
2, 261900, Note_on_c, 0, 61, 76
2, 261900, Note_on_c, 0, 61, 60
2, 261900, Note_on_c, 0, 49, 57
2, 262063, Note_on_c, 0, 61, 0
2, 262080, Note_on_c, 0, 56, 56
2, 262243, Note_on_c, 0, 56, 0
2, 262260, Note_on_c, 0, 53, 58
2, 262387, Note_on_c, 0, 49, 0
2, 262387, Note_on_c, 0, 61, 0
2, 262423, Note_on_c, 0, 53, 0
2, 262440, Note_on_c, 0, 61, 83
2, 262440, Note_on_c, 0, 61, 69
2, 262440, Note_on_c, 0, 49, 66
2, 262603, Note_on_c, 0, 61, 0
2, 262620, Note_on_c, 0, 56, 59
2, 262783, Note_on_c, 0, 56, 0
2, 262800, Note_on_c, 0, 53, 60
2, 262927, Note_on_c, 0, 49, 0
2, 262927, Note_on_c, 0, 61, 0
2, 262963, Note_on_c, 0, 53, 0
2, 262980, Note_on_c, 0, 63, 85
2, 262980, Note_on_c, 0, 63, 71
2, 262980, Note_on_c, 0, 51, 68
2, 263143, Note_on_c, 0, 63, 0
2, 263160, Note_on_c, 0, 56, 55
2, 263323, Note_on_c, 0, 56, 0
2, 263340, Note_on_c, 0, 54, 60
2, 263467, Note_on_c, 0, 51, 0
2, 263467, Note_on_c, 0, 63, 0
2, 263503, Note_on_c, 0, 54, 0
2, 263520, Note_on_c, 0, 65, 85
2, 263520, Note_on_c, 0, 65, 74
2, 263520, Note_on_c, 0, 53, 74
2, 263683, Note_on_c, 0, 65, 0
2, 263700, Note_on_c, 0, 61, 62
2, 263863, Note_on_c, 0, 61, 0
2, 263880, Note_on_c, 0, 56, 55
2, 264007, Note_on_c, 0, 53, 0
2, 264007, Note_on_c, 0, 65, 0
2, 264043, Note_on_c, 0, 56, 0
2, 264060, Note_on_c, 0, 65, 84
2, 264060, Note_on_c, 0, 65, 65
2, 264060, Note_on_c, 0, 53, 68
2, 264223, Note_on_c, 0, 65, 0
2, 264240, Note_on_c, 0, 61, 59
2, 264403, Note_on_c, 0, 61, 0
2, 264420, Note_on_c, 0, 56, 55
2, 264547, Note_on_c, 0, 53, 0
2, 264547, Note_on_c, 0, 65, 0
2, 264583, Note_on_c, 0, 56, 0
2, 264600, Note_on_c, 0, 65, 84
2, 264600, Note_on_c, 0, 65, 68
2, 264600, Note_on_c, 0, 53, 69
2, 264763, Note_on_c, 0, 65, 0
2, 264780, Note_on_c, 0, 61, 61
2, 264943, Note_on_c, 0, 61, 0
2, 264960, Note_on_c, 0, 58, 58
2, 265087, Note_on_c, 0, 53, 0
2, 265087, Note_on_c, 0, 65, 0
2, 265123, Note_on_c, 0, 58, 0
2, 265140, Note_on_c, 0, 67, 85
2, 265140, Note_on_c, 0, 67, 71
2, 265140, Note_on_c, 0, 55, 71
2, 265303, Note_on_c, 0, 67, 0
2, 265320, Note_on_c, 0, 63, 61
2, 265483, Note_on_c, 0, 63, 0
2, 265500, Note_on_c, 0, 61, 62
2, 265627, Note_on_c, 0, 55, 0
2, 265627, Note_on_c, 0, 67, 0
2, 265663, Note_on_c, 0, 61, 0
2, 265680, Note_on_c, 0, 68, 82
2, 265680, Note_on_c, 0, 56, 73
2, 265680, Note_on_c, 0, 56, 85
2, 265843, Note_on_c, 0, 56, 0
2, 265860, Note_on_c, 0, 60, 75
2, 266023, Note_on_c, 0, 60, 0
2, 266040, Note_on_c, 0, 63, 71
2, 266167, Note_on_c, 0, 56, 0
2, 266167, Note_on_c, 0, 68, 0
2, 266203, Note_on_c, 0, 63, 0
2, 266220, Note_on_c, 0, 68, 67
2, 266220, Note_on_c, 0, 56, 56
2, 266220, Note_on_c, 0, 56, 68
2, 266383, Note_on_c, 0, 56, 0
2, 266400, Note_on_c, 0, 60, 71
2, 266563, Note_on_c, 0, 60, 0
2, 266580, Note_on_c, 0, 63, 73
2, 266707, Note_on_c, 0, 56, 0
2, 266707, Note_on_c, 0, 68, 0
2, 266743, Note_on_c, 0, 63, 0
2, 266760, Note_on_c, 0, 68, 68
2, 266760, Note_on_c, 0, 56, 55
2, 266760, Note_on_c, 0, 56, 70
2, 266923, Note_on_c, 0, 56, 0
2, 266940, Note_on_c, 0, 60, 73
2, 267103, Note_on_c, 0, 60, 0
2, 267120, Note_on_c, 0, 63, 73
2, 267247, Note_on_c, 0, 56, 0
2, 267247, Note_on_c, 0, 68, 0
2, 267283, Note_on_c, 0, 63, 0
2, 267300, Note_on_c, 0, 70, 72
2, 267300, Note_on_c, 0, 58, 61
2, 267300, Note_on_c, 0, 58, 71
2, 267463, Note_on_c, 0, 58, 0
2, 267480, Note_on_c, 0, 61, 71
2, 267643, Note_on_c, 0, 61, 0
2, 267660, Note_on_c, 0, 63, 72
2, 267787, Note_on_c, 0, 58, 0
2, 267787, Note_on_c, 0, 70, 0
2, 267823, Note_on_c, 0, 63, 0
2, 267840, Note_on_c, 0, 72, 99
2, 267840, Note_on_c, 0, 60, 87
2, 267840, Note_on_c, 0, 60, 99
2, 268003, Note_on_c, 0, 60, 0
2, 268020, Note_on_c, 0, 63, 71
2, 268183, Note_on_c, 0, 63, 0
2, 268200, Note_on_c, 0, 60, 59
2, 268327, Note_on_c, 0, 60, 0
2, 268327, Note_on_c, 0, 72, 0
2, 268363, Note_on_c, 0, 60, 0
2, 268380, Note_on_c, 0, 68, 58
2, 268380, Note_on_c, 0, 56, 59
2, 268380, Note_on_c, 0, 56, 59
2, 268543, Note_on_c, 0, 56, 0
2, 268560, Note_on_c, 0, 60, 74
2, 268723, Note_on_c, 0, 60, 0
2, 268740, Note_on_c, 0, 63, 74
2, 268867, Note_on_c, 0, 56, 0
2, 268867, Note_on_c, 0, 68, 0
2, 268903, Note_on_c, 0, 63, 0
2, 268920, Note_on_c, 0, 68, 69
2, 268920, Note_on_c, 0, 56, 54
2, 268920, Note_on_c, 0, 56, 65
2, 269083, Note_on_c, 0, 56, 0
2, 269100, Note_on_c, 0, 60, 73
2, 269263, Note_on_c, 0, 60, 0
2, 269280, Note_on_c, 0, 63, 73
2, 269407, Note_on_c, 0, 56, 0
2, 269407, Note_on_c, 0, 68, 0
2, 269443, Note_on_c, 0, 63, 0
2, 269460, Note_on_c, 0, 70, 71
2, 269460, Note_on_c, 0, 58, 61
2, 269460, Note_on_c, 0, 58, 69
2, 269623, Note_on_c, 0, 58, 0
2, 269640, Note_on_c, 0, 61, 73
2, 269803, Note_on_c, 0, 61, 0
2, 269820, Note_on_c, 0, 63, 72
2, 269947, Note_on_c, 0, 58, 0
2, 269947, Note_on_c, 0, 70, 0
2, 269983, Note_on_c, 0, 63, 0
2, 270000, Note_on_c, 0, 72, 99
2, 270000, Note_on_c, 0, 60, 85
2, 270000, Note_on_c, 0, 60, 100
2, 270163, Note_on_c, 0, 60, 0
2, 270180, Note_on_c, 0, 63, 70
2, 270343, Note_on_c, 0, 63, 0
2, 270360, Note_on_c, 0, 60, 58
2, 270487, Note_on_c, 0, 60, 0
2, 270487, Note_on_c, 0, 72, 0
2, 270523, Note_on_c, 0, 60, 0
2, 270540, Note_on_c, 0, 68, 58
2, 270540, Note_on_c, 0, 56, 58
2, 270540, Note_on_c, 0, 56, 60
2, 270703, Note_on_c, 0, 56, 0
2, 270720, Note_on_c, 0, 60, 72
2, 270883, Note_on_c, 0, 60, 0
2, 270900, Note_on_c, 0, 63, 75
2, 271027, Note_on_c, 0, 56, 0
2, 271027, Note_on_c, 0, 68, 0
2, 271063, Note_on_c, 0, 63, 0
2, 271080, Note_on_c, 0, 68, 65
2, 271080, Note_on_c, 0, 56, 57
2, 271080, Note_on_c, 0, 56, 66
2, 271243, Note_on_c, 0, 56, 0
2, 271260, Note_on_c, 0, 60, 73
2, 271423, Note_on_c, 0, 60, 0
2, 271440, Note_on_c, 0, 63, 73
2, 271567, Note_on_c, 0, 56, 0
2, 271567, Note_on_c, 0, 68, 0
2, 271603, Note_on_c, 0, 63, 0
2, 271620, Note_on_c, 0, 70, 70
2, 271620, Note_on_c, 0, 58, 62
2, 271620, Note_on_c, 0, 58, 70
2, 271783, Note_on_c, 0, 58, 0
2, 271800, Note_on_c, 0, 61, 69
2, 271963, Note_on_c, 0, 61, 0
2, 271980, Note_on_c, 0, 63, 72
2, 272107, Note_on_c, 0, 58, 0
2, 272107, Note_on_c, 0, 70, 0
2, 272143, Note_on_c, 0, 63, 0
2, 272160, Note_on_c, 0, 72, 73
2, 272160, Note_on_c, 0, 72, 77
2, 272160, Note_on_c, 0, 60, 63
2, 272323, Note_on_c, 0, 72, 0
2, 272340, Note_on_c, 0, 68, 58
2, 272503, Note_on_c, 0, 68, 0
2, 272520, Note_on_c, 0, 63, 56
2, 272647, Note_on_c, 0, 60, 0
2, 272647, Note_on_c, 0, 72, 0
2, 272683, Note_on_c, 0, 63, 0
2, 272700, Note_on_c, 0, 73, 86
2, 272700, Note_on_c, 0, 73, 71
2, 272700, Note_on_c, 0, 61, 66
2, 272863, Note_on_c, 0, 73, 0
2, 272880, Note_on_c, 0, 70, 63
2, 273043, Note_on_c, 0, 70, 0
2, 273060, Note_on_c, 0, 68, 58
2, 273187, Note_on_c, 0, 61, 0
2, 273187, Note_on_c, 0, 73, 0
2, 273223, Note_on_c, 0, 68, 0
2, 273240, Note_on_c, 0, 74, 81
2, 273240, Note_on_c, 0, 74, 75
2, 273240, Note_on_c, 0, 62, 73
2, 273403, Note_on_c, 0, 74, 0
2, 273420, Note_on_c, 0, 71, 61
2, 273583, Note_on_c, 0, 71, 0
2, 273600, Note_on_c, 0, 68, 57
2, 273727, Note_on_c, 0, 62, 0
2, 273727, Note_on_c, 0, 74, 0
2, 273763, Note_on_c, 0, 68, 0
2, 273780, Note_on_c, 0, 75, 80
2, 273780, Note_on_c, 0, 75, 72
2, 273780, Note_on_c, 0, 63, 72
2, 273943, Note_on_c, 0, 75, 0
2, 273960, Note_on_c, 0, 72, 61
2, 274123, Note_on_c, 0, 72, 0
2, 274140, Note_on_c, 0, 67, 56
2, 274267, Note_on_c, 0, 63, 0
2, 274267, Note_on_c, 0, 75, 0
2, 274303, Note_on_c, 0, 67, 0
2, 274320, Note_on_c, 0, 68, 88
2, 274320, Note_on_c, 0, 72, 87
2, 274320, Note_on_c, 0, 80, 89
2, 274320, Note_on_c, 0, 51, 69
2, 274320, Note_on_c, 0, 56, 69
2, 274320, Note_on_c, 0, 60, 69
2, 274320, Note_on_c, 0, 63, 70
2, 274483, Note_on_c, 0, 63, 0
2, 274483, Note_on_c, 0, 60, 0
2, 274483, Note_on_c, 0, 51, 0
2, 274483, Note_on_c, 0, 68, 0
2, 274483, Note_on_c, 0, 72, 0
2, 274483, Note_on_c, 0, 80, 0
2, 274483, Note_on_c, 0, 56, 0
2, 274860, Note_on_c, 0, 68, 56
2, 274860, Note_on_c, 0, 56, 60
2, 274860, Note_on_c, 0, 56, 60
2, 275023, Note_on_c, 0, 56, 0
2, 275040, Note_on_c, 0, 60, 72
2, 275203, Note_on_c, 0, 60, 0
2, 275220, Note_on_c, 0, 63, 72
2, 275347, Note_on_c, 0, 56, 0
2, 275347, Note_on_c, 0, 68, 0
2, 275383, Note_on_c, 0, 63, 0
2, 275400, Note_on_c, 0, 68, 66
2, 275400, Note_on_c, 0, 56, 57
2, 275400, Note_on_c, 0, 56, 70
2, 275563, Note_on_c, 0, 56, 0
2, 275580, Note_on_c, 0, 60, 73
2, 275743, Note_on_c, 0, 60, 0
2, 275760, Note_on_c, 0, 63, 75
2, 275887, Note_on_c, 0, 56, 0
2, 275887, Note_on_c, 0, 68, 0
2, 275923, Note_on_c, 0, 63, 0
2, 275940, Note_on_c, 0, 70, 68
2, 275940, Note_on_c, 0, 58, 60
2, 275940, Note_on_c, 0, 58, 71
2, 276103, Note_on_c, 0, 58, 0
2, 276120, Note_on_c, 0, 61, 72
2, 276283, Note_on_c, 0, 61, 0
2, 276300, Note_on_c, 0, 63, 73
2, 276427, Note_on_c, 0, 58, 0
2, 276427, Note_on_c, 0, 70, 0
2, 276463, Note_on_c, 0, 63, 0
2, 276480, Note_on_c, 0, 72, 102
2, 276480, Note_on_c, 0, 60, 84
2, 276480, Note_on_c, 0, 60, 100
2, 276643, Note_on_c, 0, 60, 0
2, 276660, Note_on_c, 0, 63, 73
2, 276823, Note_on_c, 0, 63, 0
2, 276840, Note_on_c, 0, 60, 62
2, 276967, Note_on_c, 0, 60, 0
2, 276967, Note_on_c, 0, 72, 0
2, 277003, Note_on_c, 0, 60, 0
2, 277020, Note_on_c, 0, 68, 57
2, 277020, Note_on_c, 0, 56, 60
2, 277020, Note_on_c, 0, 56, 58
2, 277183, Note_on_c, 0, 56, 0
2, 277200, Note_on_c, 0, 60, 71
2, 277363, Note_on_c, 0, 60, 0
2, 277380, Note_on_c, 0, 63, 72
2, 277507, Note_on_c, 0, 56, 0
2, 277507, Note_on_c, 0, 68, 0
2, 277543, Note_on_c, 0, 63, 0
2, 277560, Note_on_c, 0, 68, 66
2, 277560, Note_on_c, 0, 56, 56
2, 277560, Note_on_c, 0, 56, 65
2, 277723, Note_on_c, 0, 56, 0
2, 277740, Note_on_c, 0, 60, 72
2, 277903, Note_on_c, 0, 60, 0
2, 277920, Note_on_c, 0, 63, 72
2, 278047, Note_on_c, 0, 56, 0
2, 278047, Note_on_c, 0, 68, 0
2, 278083, Note_on_c, 0, 63, 0
2, 278100, Note_on_c, 0, 70, 71
2, 278100, Note_on_c, 0, 58, 62
2, 278100, Note_on_c, 0, 58, 71
2, 278263, Note_on_c, 0, 58, 0
2, 278280, Note_on_c, 0, 61, 71
2, 278443, Note_on_c, 0, 61, 0
2, 278460, Note_on_c, 0, 63, 71
2, 278587, Note_on_c, 0, 58, 0
2, 278587, Note_on_c, 0, 70, 0
2, 278623, Note_on_c, 0, 63, 0
2, 278640, Note_on_c, 0, 72, 102
2, 278640, Note_on_c, 0, 60, 87
2, 278640, Note_on_c, 0, 60, 102
2, 278803, Note_on_c, 0, 60, 0
2, 278820, Note_on_c, 0, 63, 70
2, 278983, Note_on_c, 0, 63, 0
2, 279000, Note_on_c, 0, 60, 58
2, 279127, Note_on_c, 0, 60, 0
2, 279127, Note_on_c, 0, 72, 0
2, 279163, Note_on_c, 0, 60, 0
2, 279180, Note_on_c, 0, 68, 60
2, 279180, Note_on_c, 0, 56, 60
2, 279180, Note_on_c, 0, 56, 56
2, 279343, Note_on_c, 0, 56, 0
2, 279360, Note_on_c, 0, 60, 73
2, 279523, Note_on_c, 0, 60, 0
2, 279540, Note_on_c, 0, 63, 72
2, 279667, Note_on_c, 0, 56, 0
2, 279667, Note_on_c, 0, 68, 0
2, 279703, Note_on_c, 0, 63, 0
2, 279720, Note_on_c, 0, 68, 68
2, 279720, Note_on_c, 0, 56, 57
2, 279720, Note_on_c, 0, 56, 65
2, 279883, Note_on_c, 0, 56, 0
2, 279900, Note_on_c, 0, 60, 70
2, 280063, Note_on_c, 0, 60, 0
2, 280080, Note_on_c, 0, 63, 72
2, 280207, Note_on_c, 0, 56, 0
2, 280207, Note_on_c, 0, 68, 0
2, 280243, Note_on_c, 0, 63, 0
2, 280260, Note_on_c, 0, 70, 71
2, 280260, Note_on_c, 0, 58, 60
2, 280260, Note_on_c, 0, 58, 69
2, 280423, Note_on_c, 0, 58, 0
2, 280440, Note_on_c, 0, 61, 71
2, 280603, Note_on_c, 0, 61, 0
2, 280620, Note_on_c, 0, 63, 71
2, 280747, Note_on_c, 0, 58, 0
2, 280747, Note_on_c, 0, 70, 0
2, 280783, Note_on_c, 0, 63, 0
2, 280800, Note_on_c, 0, 72, 76
2, 280800, Note_on_c, 0, 72, 62
2, 280800, Note_on_c, 0, 60, 61
2, 280963, Note_on_c, 0, 72, 0
2, 280980, Note_on_c, 0, 68, 58
2, 281143, Note_on_c, 0, 68, 0
2, 281160, Note_on_c, 0, 63, 55
2, 281287, Note_on_c, 0, 60, 0
2, 281287, Note_on_c, 0, 72, 0
2, 281323, Note_on_c, 0, 63, 0
2, 281340, Note_on_c, 0, 75, 87
2, 281340, Note_on_c, 0, 75, 72
2, 281340, Note_on_c, 0, 67, 82
2, 281340, Note_on_c, 0, 67, 83
2, 281503, Note_on_c, 0, 67, 0
2, 281503, Note_on_c, 0, 75, 0
2, 281520, Note_on_c, 0, 72, 64
2, 281520, Note_on_c, 0, 63, 60
2, 281683, Note_on_c, 0, 63, 0
2, 281683, Note_on_c, 0, 72, 0
2, 281700, Note_on_c, 0, 68, 57
2, 281700, Note_on_c, 0, 60, 59
2, 281827, Note_on_c, 0, 67, 0
2, 281827, Note_on_c, 0, 75, 0
2, 281863, Note_on_c, 0, 60, 0
2, 281863, Note_on_c, 0, 68, 0
2, 281880, Note_on_c, 0, 80, 87
2, 281880, Note_on_c, 0, 80, 79
2, 281880, Note_on_c, 0, 66, 77
2, 281880, Note_on_c, 0, 66, 68
2, 282043, Note_on_c, 0, 66, 0
2, 282043, Note_on_c, 0, 80, 0
2, 282060, Note_on_c, 0, 75, 58
2, 282060, Note_on_c, 0, 63, 61
2, 282223, Note_on_c, 0, 63, 0
2, 282223, Note_on_c, 0, 75, 0
2, 282240, Note_on_c, 0, 72, 59
2, 282240, Note_on_c, 0, 60, 57
2, 282367, Note_on_c, 0, 66, 0
2, 282367, Note_on_c, 0, 80, 0
2, 282403, Note_on_c, 0, 60, 0
2, 282403, Note_on_c, 0, 72, 0
2, 282420, Note_on_c, 0, 84, 86
2, 282420, Note_on_c, 0, 84, 76
2, 282420, Note_on_c, 0, 65, 75
2, 282420, Note_on_c, 0, 65, 61
2, 282583, Note_on_c, 0, 65, 0
2, 282583, Note_on_c, 0, 84, 0
2, 282600, Note_on_c, 0, 80, 63
2, 282600, Note_on_c, 0, 63, 61
2, 282763, Note_on_c, 0, 63, 0
2, 282763, Note_on_c, 0, 80, 0
2, 282780, Note_on_c, 0, 72, 50
2, 282780, Note_on_c, 0, 60, 57
2, 282907, Note_on_c, 0, 65, 0
2, 282907, Note_on_c, 0, 84, 0
2, 282943, Note_on_c, 0, 60, 0
2, 282943, Note_on_c, 0, 72, 0
2, 282960, Note_on_c, 0, 41, 0
2, 282960, Note_on_c, 0, 80, 85
2, 282960, Note_on_c, 0, 84, 86
2, 282960, Note_on_c, 0, 60, 73
2, 283123, Note_on_c, 0, 84, 0
2, 283123, Note_on_c, 0, 80, 0
2, 283500, Note_on_c, 0, 85, 61
2, 283500, Note_on_c, 0, 52, 59
2, 283500, Note_on_c, 0, 56, 58
2, 283663, Note_on_c, 0, 85, 0
2, 283680, Note_on_c, 0, 84, 60
2, 283843, Note_on_c, 0, 84, 0
2, 283860, Note_on_c, 0, 85, 69
2, 283987, Note_on_c, 0, 56, 0
2, 283987, Note_on_c, 0, 52, 0
2, 284023, Note_on_c, 0, 85, 0
2, 284040, Note_on_c, 0, 60, 0
2, 284040, Note_on_c, 0, 84, 66
2, 284040, Note_on_c, 0, 64, 84
2, 284203, Note_on_c, 0, 84, 0
2, 284220, Note_on_c, 0, 82, 59
2, 284383, Note_on_c, 0, 82, 0
2, 284400, Note_on_c, 0, 84, 72
2, 284563, Note_on_c, 0, 84, 0
2, 284580, Note_on_c, 0, 82, 62
2, 284580, Note_on_c, 0, 52, 57
2, 284580, Note_on_c, 0, 56, 58
2, 284743, Note_on_c, 0, 82, 0
2, 284760, Note_on_c, 0, 80, 61
2, 284923, Note_on_c, 0, 80, 0
2, 284940, Note_on_c, 0, 82, 69
2, 285067, Note_on_c, 0, 56, 0
2, 285067, Note_on_c, 0, 52, 0
2, 285103, Note_on_c, 0, 82, 0
2, 285120, Note_on_c, 0, 64, 0
2, 285120, Note_on_c, 0, 84, 75
2, 285120, Note_on_c, 0, 68, 85
2, 285283, Note_on_c, 0, 84, 0
2, 285660, Note_on_c, 0, 85, 60
2, 285660, Note_on_c, 0, 56, 58
2, 285660, Note_on_c, 0, 60, 60
2, 285823, Note_on_c, 0, 85, 0
2, 285840, Note_on_c, 0, 84, 59
2, 286003, Note_on_c, 0, 84, 0
2, 286020, Note_on_c, 0, 85, 66
2, 286147, Note_on_c, 0, 60, 0
2, 286147, Note_on_c, 0, 56, 0
2, 286183, Note_on_c, 0, 85, 0
2, 286200, Note_on_c, 0, 68, 0
2, 286200, Note_on_c, 0, 84, 67
2, 286200, Note_on_c, 0, 72, 84
2, 286363, Note_on_c, 0, 84, 0
2, 286380, Note_on_c, 0, 82, 61
2, 286543, Note_on_c, 0, 82, 0
2, 286560, Note_on_c, 0, 84, 68
2, 286723, Note_on_c, 0, 84, 0
2, 286740, Note_on_c, 0, 82, 62
2, 286740, Note_on_c, 0, 60, 58
2, 286740, Note_on_c, 0, 63, 56
2, 286903, Note_on_c, 0, 82, 0
2, 286920, Note_on_c, 0, 80, 59
2, 287083, Note_on_c, 0, 80, 0
2, 287100, Note_on_c, 0, 82, 71
2, 287227, Note_on_c, 0, 63, 0
2, 287227, Note_on_c, 0, 60, 0
2, 287263, Note_on_c, 0, 82, 0
2, 287280, Note_on_c, 0, 72, 0
2, 287280, Note_on_c, 0, 84, 73
2, 287280, Note_on_c, 0, 76, 84
2, 287443, Note_on_c, 0, 84, 0
2, 287640, Note_on_c, 0, 84, 59
2, 287803, Note_on_c, 0, 84, 0
2, 287820, Note_on_c, 0, 85, 73
2, 287820, Note_on_c, 0, 64, 58
2, 287820, Note_on_c, 0, 68, 59
2, 287983, Note_on_c, 0, 85, 0
2, 288000, Note_on_c, 0, 84, 62
2, 288163, Note_on_c, 0, 84, 0
2, 288180, Note_on_c, 0, 85, 69
2, 288307, Note_on_c, 0, 68, 0
2, 288307, Note_on_c, 0, 64, 0
2, 288343, Note_on_c, 0, 85, 0
2, 288360, Note_on_c, 0, 76, 0
2, 288360, Note_on_c, 0, 84, 66
2, 288360, Note_on_c, 0, 72, 69
2, 288523, Note_on_c, 0, 84, 0
2, 288540, Note_on_c, 0, 82, 62
2, 288703, Note_on_c, 0, 82, 0
2, 288720, Note_on_c, 0, 84, 71
2, 288883, Note_on_c, 0, 84, 0
2, 288900, Note_on_c, 0, 82, 62
2, 288900, Note_on_c, 0, 60, 59
2, 288900, Note_on_c, 0, 64, 58
2, 289063, Note_on_c, 0, 82, 0
2, 289080, Note_on_c, 0, 80, 61
2, 289243, Note_on_c, 0, 80, 0
2, 289260, Note_on_c, 0, 82, 71
2, 289387, Note_on_c, 0, 64, 0
2, 289387, Note_on_c, 0, 60, 0
2, 289423, Note_on_c, 0, 82, 0
2, 289440, Note_on_c, 0, 72, 0
2, 289440, Note_on_c, 0, 84, 76
2, 289440, Note_on_c, 0, 68, 62
2, 289603, Note_on_c, 0, 84, 0
2, 289800, Note_on_c, 0, 84, 58
2, 289963, Note_on_c, 0, 84, 0
2, 289980, Note_on_c, 0, 85, 69
2, 289980, Note_on_c, 0, 56, 60
2, 289980, Note_on_c, 0, 63, 60
2, 290143, Note_on_c, 0, 85, 0
2, 290160, Note_on_c, 0, 84, 63
2, 290323, Note_on_c, 0, 84, 0
2, 290340, Note_on_c, 0, 85, 66
2, 290467, Note_on_c, 0, 63, 0
2, 290467, Note_on_c, 0, 56, 0
2, 290503, Note_on_c, 0, 85, 0
2, 290520, Note_on_c, 0, 68, 0
2, 290520, Note_on_c, 0, 84, 65
2, 290520, Note_on_c, 0, 63, 62
2, 290683, Note_on_c, 0, 84, 0
2, 290700, Note_on_c, 0, 82, 62
2, 290863, Note_on_c, 0, 82, 0
2, 290880, Note_on_c, 0, 84, 70
2, 291043, Note_on_c, 0, 84, 0
2, 291060, Note_on_c, 0, 82, 65
2, 291060, Note_on_c, 0, 51, 60
2, 291060, Note_on_c, 0, 56, 56
2, 291223, Note_on_c, 0, 82, 0
2, 291240, Note_on_c, 0, 80, 59
2, 291403, Note_on_c, 0, 80, 0
2, 291420, Note_on_c, 0, 82, 71
2, 291547, Note_on_c, 0, 56, 0
2, 291547, Note_on_c, 0, 51, 0
2, 291583, Note_on_c, 0, 82, 0
2, 291600, Note_on_c, 0, 63, 0
2, 291600, Note_on_c, 0, 84, 73
2, 291600, Note_on_c, 0, 60, 67
2, 291763, Note_on_c, 0, 84, 0
2, 291780, Note_on_c, 0, 85, 71
2, 291943, Note_on_c, 0, 85, 0
2, 291960, Note_on_c, 0, 84, 64
2, 292123, Note_on_c, 0, 84, 0
2, 292140, Note_on_c, 0, 85, 70
2, 292140, Note_on_c, 0, 52, 57
2, 292140, Note_on_c, 0, 56, 57
2, 292303, Note_on_c, 0, 85, 0
2, 292320, Note_on_c, 0, 84, 64
2, 292483, Note_on_c, 0, 84, 0
2, 292500, Note_on_c, 0, 85, 67
2, 292627, Note_on_c, 0, 56, 0
2, 292627, Note_on_c, 0, 52, 0
2, 292663, Note_on_c, 0, 85, 0
2, 292680, Note_on_c, 0, 60, 0
2, 292680, Note_on_c, 0, 84, 68
2, 292680, Note_on_c, 0, 64, 81
2, 292843, Note_on_c, 0, 84, 0
2, 292860, Note_on_c, 0, 82, 60
2, 293023, Note_on_c, 0, 82, 0
2, 293040, Note_on_c, 0, 84, 69
2, 293203, Note_on_c, 0, 84, 0
2, 293220, Note_on_c, 0, 92, 82
2, 293220, Note_on_c, 0, 52, 60
2, 293220, Note_on_c, 0, 56, 56
2, 293383, Note_on_c, 0, 92, 0
2, 293400, Note_on_c, 0, 84, 54
2, 293563, Note_on_c, 0, 84, 0
2, 293580, Note_on_c, 0, 82, 59
2, 293707, Note_on_c, 0, 56, 0
2, 293707, Note_on_c, 0, 52, 0
2, 293743, Note_on_c, 0, 82, 0
2, 293760, Note_on_c, 0, 64, 0
2, 293760, Note_on_c, 0, 84, 74
2, 293760, Note_on_c, 0, 68, 84
2, 293923, Note_on_c, 0, 84, 0
2, 293940, Note_on_c, 0, 85, 69
2, 294103, Note_on_c, 0, 85, 0
2, 294120, Note_on_c, 0, 84, 64
2, 294283, Note_on_c, 0, 84, 0
2, 294300, Note_on_c, 0, 85, 70
2, 294300, Note_on_c, 0, 56, 57
2, 294300, Note_on_c, 0, 60, 60
2, 294463, Note_on_c, 0, 85, 0
2, 294480, Note_on_c, 0, 84, 64
2, 294643, Note_on_c, 0, 84, 0
2, 294660, Note_on_c, 0, 85, 67
2, 294787, Note_on_c, 0, 60, 0
2, 294787, Note_on_c, 0, 56, 0
2, 294823, Note_on_c, 0, 85, 0
2, 294840, Note_on_c, 0, 68, 0
2, 294840, Note_on_c, 0, 84, 66
2, 294840, Note_on_c, 0, 72, 86
2, 295003, Note_on_c, 0, 84, 0
2, 295020, Note_on_c, 0, 82, 59
2, 295183, Note_on_c, 0, 82, 0
2, 295200, Note_on_c, 0, 84, 69
2, 295363, Note_on_c, 0, 84, 0
2, 295380, Note_on_c, 0, 92, 85
2, 295380, Note_on_c, 0, 60, 58
2, 295380, Note_on_c, 0, 63, 56
2, 295543, Note_on_c, 0, 92, 0
2, 295560, Note_on_c, 0, 84, 54
2, 295723, Note_on_c, 0, 84, 0
2, 295740, Note_on_c, 0, 82, 58
2, 295867, Note_on_c, 0, 63, 0
2, 295867, Note_on_c, 0, 60, 0
2, 295903, Note_on_c, 0, 82, 0
2, 295920, Note_on_c, 0, 72, 0
2, 295920, Note_on_c, 0, 84, 71
2, 295920, Note_on_c, 0, 76, 85
2, 296083, Note_on_c, 0, 84, 0
2, 296100, Note_on_c, 0, 85, 68
2, 296263, Note_on_c, 0, 85, 0
2, 296280, Note_on_c, 0, 84, 64
2, 296443, Note_on_c, 0, 84, 0
2, 296460, Note_on_c, 0, 85, 70
2, 296460, Note_on_c, 0, 64, 57
2, 296460, Note_on_c, 0, 68, 58
2, 296623, Note_on_c, 0, 85, 0
2, 296640, Note_on_c, 0, 84, 63
2, 296803, Note_on_c, 0, 84, 0
2, 296820, Note_on_c, 0, 85, 69
2, 296947, Note_on_c, 0, 68, 0
2, 296947, Note_on_c, 0, 64, 0
2, 296983, Note_on_c, 0, 85, 0
2, 297000, Note_on_c, 0, 76, 0
2, 297000, Note_on_c, 0, 84, 66
2, 297000, Note_on_c, 0, 72, 67
2, 297163, Note_on_c, 0, 84, 0
2, 297180, Note_on_c, 0, 82, 60
2, 297343, Note_on_c, 0, 82, 0
2, 297360, Note_on_c, 0, 84, 69
2, 297523, Note_on_c, 0, 84, 0
2, 297540, Note_on_c, 0, 92, 84
2, 297540, Note_on_c, 0, 60, 57
2, 297540, Note_on_c, 0, 64, 57
2, 297703, Note_on_c, 0, 92, 0
2, 297720, Note_on_c, 0, 84, 55
2, 297883, Note_on_c, 0, 84, 0
2, 297900, Note_on_c, 0, 82, 58
2, 298027, Note_on_c, 0, 64, 0
2, 298027, Note_on_c, 0, 60, 0
2, 298063, Note_on_c, 0, 82, 0
2, 298080, Note_on_c, 0, 72, 0
2, 298080, Note_on_c, 0, 84, 71
2, 298080, Note_on_c, 0, 68, 62
2, 298243, Note_on_c, 0, 84, 0
2, 298260, Note_on_c, 0, 85, 70
2, 298423, Note_on_c, 0, 85, 0
2, 298440, Note_on_c, 0, 84, 64
2, 298603, Note_on_c, 0, 84, 0
2, 298620, Note_on_c, 0, 85, 70
2, 298620, Note_on_c, 0, 56, 58
2, 298620, Note_on_c, 0, 60, 58
2, 298783, Note_on_c, 0, 85, 0
2, 298800, Note_on_c, 0, 84, 63
2, 298963, Note_on_c, 0, 84, 0
2, 298980, Note_on_c, 0, 85, 70
2, 299107, Note_on_c, 0, 60, 0
2, 299107, Note_on_c, 0, 56, 0
2, 299143, Note_on_c, 0, 85, 0
2, 299160, Note_on_c, 0, 68, 0
2, 299160, Note_on_c, 0, 84, 66
2, 299160, Note_on_c, 0, 63, 63
2, 299323, Note_on_c, 0, 84, 0
2, 299340, Note_on_c, 0, 82, 61
2, 299503, Note_on_c, 0, 82, 0
2, 299520, Note_on_c, 0, 84, 72
2, 299683, Note_on_c, 0, 84, 0
2, 299700, Note_on_c, 0, 92, 84
2, 299700, Note_on_c, 0, 51, 60
2, 299700, Note_on_c, 0, 56, 57
2, 299863, Note_on_c, 0, 92, 0
2, 299880, Note_on_c, 0, 84, 53
2, 300043, Note_on_c, 0, 84, 0
2, 300060, Note_on_c, 0, 86, 69
2, 300187, Note_on_c, 0, 56, 0
2, 300187, Note_on_c, 0, 51, 0
2, 300223, Note_on_c, 0, 86, 0
2, 300240, Note_on_c, 0, 63, 0
2, 300240, Note_on_c, 0, 84, 73
2, 300240, Note_on_c, 0, 88, 74
2, 300240, Note_on_c, 0, 64, 75
2, 300403, Note_on_c, 0, 88, 0
2, 300403, Note_on_c, 0, 84, 0
2, 300780, Note_on_c, 0, 89, 61
2, 300780, Note_on_c, 0, 56, 57
2, 300780, Note_on_c, 0, 60, 56
2, 300943, Note_on_c, 0, 89, 0
2, 300960, Note_on_c, 0, 88, 62
2, 301123, Note_on_c, 0, 88, 0
2, 301140, Note_on_c, 0, 89, 68
2, 301267, Note_on_c, 0, 60, 0
2, 301267, Note_on_c, 0, 56, 0
2, 301303, Note_on_c, 0, 89, 0
2, 301320, Note_on_c, 0, 64, 0
2, 301320, Note_on_c, 0, 88, 67
2, 301320, Note_on_c, 0, 68, 83
2, 301483, Note_on_c, 0, 88, 0
2, 301500, Note_on_c, 0, 86, 62
2, 301663, Note_on_c, 0, 86, 0
2, 301680, Note_on_c, 0, 88, 70
2, 301843, Note_on_c, 0, 88, 0
2, 301860, Note_on_c, 0, 86, 63
2, 301860, Note_on_c, 0, 56, 59
2, 301860, Note_on_c, 0, 60, 58
2, 302023, Note_on_c, 0, 86, 0
2, 302040, Note_on_c, 0, 84, 59
2, 302203, Note_on_c, 0, 84, 0
2, 302220, Note_on_c, 0, 86, 70
2, 302347, Note_on_c, 0, 60, 0
2, 302347, Note_on_c, 0, 56, 0
2, 302383, Note_on_c, 0, 86, 0
2, 302400, Note_on_c, 0, 68, 0
2, 302400, Note_on_c, 0, 84, 72
2, 302400, Note_on_c, 0, 88, 74
2, 302400, Note_on_c, 0, 72, 83
2, 302563, Note_on_c, 0, 88, 0
2, 302563, Note_on_c, 0, 84, 0
2, 302940, Note_on_c, 0, 89, 62
2, 302940, Note_on_c, 0, 60, 57
2, 302940, Note_on_c, 0, 64, 57
2, 303103, Note_on_c, 0, 89, 0
2, 303120, Note_on_c, 0, 88, 59
2, 303283, Note_on_c, 0, 88, 0
2, 303300, Note_on_c, 0, 89, 70
2, 303427, Note_on_c, 0, 64, 0
2, 303427, Note_on_c, 0, 60, 0
2, 303463, Note_on_c, 0, 89, 0
2, 303480, Note_on_c, 0, 72, 0
2, 303480, Note_on_c, 0, 88, 66
2, 303480, Note_on_c, 0, 76, 86
2, 303643, Note_on_c, 0, 88, 0
2, 303660, Note_on_c, 0, 86, 59
2, 303823, Note_on_c, 0, 86, 0
2, 303840, Note_on_c, 0, 88, 68
2, 304003, Note_on_c, 0, 88, 0
2, 304020, Note_on_c, 0, 86, 64
2, 304020, Note_on_c, 0, 64, 57
2, 304020, Note_on_c, 0, 67, 59
2, 304183, Note_on_c, 0, 86, 0
2, 304200, Note_on_c, 0, 84, 62
2, 304363, Note_on_c, 0, 84, 0
2, 304380, Note_on_c, 0, 86, 69
2, 304507, Note_on_c, 0, 67, 0
2, 304507, Note_on_c, 0, 64, 0
2, 304543, Note_on_c, 0, 86, 0
2, 304560, Note_on_c, 0, 76, 0
2, 304560, Note_on_c, 0, 84, 74
2, 304560, Note_on_c, 0, 88, 76
2, 304560, Note_on_c, 0, 80, 85
2, 304723, Note_on_c, 0, 88, 0
2, 304723, Note_on_c, 0, 84, 0
2, 304920, Note_on_c, 0, 88, 59
2, 305083, Note_on_c, 0, 88, 0
2, 305100, Note_on_c, 0, 89, 72
2, 305100, Note_on_c, 0, 68, 59
2, 305100, Note_on_c, 0, 72, 59
2, 305263, Note_on_c, 0, 89, 0
2, 305280, Note_on_c, 0, 88, 63
2, 305443, Note_on_c, 0, 88, 0
2, 305460, Note_on_c, 0, 89, 68
2, 305587, Note_on_c, 0, 72, 0
2, 305587, Note_on_c, 0, 68, 0
2, 305623, Note_on_c, 0, 89, 0
2, 305640, Note_on_c, 0, 80, 0
2, 305640, Note_on_c, 0, 88, 67
2, 305640, Note_on_c, 0, 76, 66
2, 305803, Note_on_c, 0, 88, 0
2, 305820, Note_on_c, 0, 86, 61
2, 305983, Note_on_c, 0, 86, 0
2, 306000, Note_on_c, 0, 88, 72
2, 306163, Note_on_c, 0, 88, 0
2, 306180, Note_on_c, 0, 86, 63
2, 306180, Note_on_c, 0, 64, 58
2, 306180, Note_on_c, 0, 68, 56
2, 306343, Note_on_c, 0, 86, 0
2, 306360, Note_on_c, 0, 84, 61
2, 306523, Note_on_c, 0, 84, 0
2, 306540, Note_on_c, 0, 86, 70
2, 306667, Note_on_c, 0, 68, 0
2, 306667, Note_on_c, 0, 64, 0
2, 306703, Note_on_c, 0, 86, 0
2, 306720, Note_on_c, 0, 76, 0
2, 306720, Note_on_c, 0, 84, 75
2, 306720, Note_on_c, 0, 88, 75
2, 306720, Note_on_c, 0, 72, 65
2, 306883, Note_on_c, 0, 88, 0
2, 306883, Note_on_c, 0, 84, 0
2, 307080, Note_on_c, 0, 88, 59
2, 307243, Note_on_c, 0, 88, 0
2, 307260, Note_on_c, 0, 89, 71
2, 307260, Note_on_c, 0, 60, 60
2, 307260, Note_on_c, 0, 67, 58
2, 307423, Note_on_c, 0, 89, 0
2, 307440, Note_on_c, 0, 88, 63
2, 307603, Note_on_c, 0, 88, 0
2, 307620, Note_on_c, 0, 89, 66
2, 307747, Note_on_c, 0, 67, 0
2, 307747, Note_on_c, 0, 60, 0
2, 307783, Note_on_c, 0, 89, 0
2, 307800, Note_on_c, 0, 72, 0
2, 307800, Note_on_c, 0, 88, 66
2, 307800, Note_on_c, 0, 67, 62
2, 307963, Note_on_c, 0, 88, 0
2, 307980, Note_on_c, 0, 86, 62
2, 308143, Note_on_c, 0, 86, 0
2, 308160, Note_on_c, 0, 88, 71
2, 308323, Note_on_c, 0, 88, 0
2, 308340, Note_on_c, 0, 86, 65
2, 308340, Note_on_c, 0, 55, 57
2, 308340, Note_on_c, 0, 60, 56
2, 308503, Note_on_c, 0, 86, 0
2, 308520, Note_on_c, 0, 84, 61
2, 308683, Note_on_c, 0, 84, 0
2, 308700, Note_on_c, 0, 86, 69
2, 308827, Note_on_c, 0, 60, 0
2, 308827, Note_on_c, 0, 55, 0
2, 308863, Note_on_c, 0, 86, 0
2, 308880, Note_on_c, 0, 67, 0
2, 308880, Note_on_c, 0, 88, 74
2, 308880, Note_on_c, 0, 64, 64
2, 309043, Note_on_c, 0, 88, 0
2, 309060, Note_on_c, 0, 89, 70
2, 309223, Note_on_c, 0, 89, 0
2, 309240, Note_on_c, 0, 88, 64
2, 309403, Note_on_c, 0, 88, 0
2, 309420, Note_on_c, 0, 89, 73
2, 309420, Note_on_c, 0, 56, 58
2, 309420, Note_on_c, 0, 60, 59
2, 309583, Note_on_c, 0, 89, 0
2, 309600, Note_on_c, 0, 88, 62
2, 309763, Note_on_c, 0, 88, 0
2, 309780, Note_on_c, 0, 89, 68
2, 309907, Note_on_c, 0, 60, 0
2, 309907, Note_on_c, 0, 56, 0
2, 309943, Note_on_c, 0, 89, 0
2, 309960, Note_on_c, 0, 64, 0
2, 309960, Note_on_c, 0, 88, 68
2, 309960, Note_on_c, 0, 68, 84
2, 310123, Note_on_c, 0, 88, 0
2, 310140, Note_on_c, 0, 86, 62
2, 310303, Note_on_c, 0, 86, 0
2, 310320, Note_on_c, 0, 88, 71
2, 310483, Note_on_c, 0, 88, 0
2, 310500, Note_on_c, 0, 96, 82
2, 310500, Note_on_c, 0, 56, 57
2, 310500, Note_on_c, 0, 60, 59
2, 310663, Note_on_c, 0, 96, 0
2, 310680, Note_on_c, 0, 88, 53
2, 310843, Note_on_c, 0, 88, 0
2, 310860, Note_on_c, 0, 86, 59
2, 310987, Note_on_c, 0, 60, 0
2, 310987, Note_on_c, 0, 56, 0
2, 311023, Note_on_c, 0, 86, 0
2, 311040, Note_on_c, 0, 68, 0
2, 311040, Note_on_c, 0, 88, 72
2, 311040, Note_on_c, 0, 72, 86
2, 311203, Note_on_c, 0, 88, 0
2, 311220, Note_on_c, 0, 89, 71
2, 311383, Note_on_c, 0, 89, 0
2, 311400, Note_on_c, 0, 88, 63
2, 311563, Note_on_c, 0, 88, 0
2, 311580, Note_on_c, 0, 89, 71
2, 311580, Note_on_c, 0, 60, 57
2, 311580, Note_on_c, 0, 64, 56
2, 311743, Note_on_c, 0, 89, 0
2, 311760, Note_on_c, 0, 88, 62
2, 311923, Note_on_c, 0, 88, 0
2, 311940, Note_on_c, 0, 89, 68
2, 312067, Note_on_c, 0, 64, 0
2, 312067, Note_on_c, 0, 60, 0
2, 312103, Note_on_c, 0, 89, 0
2, 312120, Note_on_c, 0, 72, 0
2, 312120, Note_on_c, 0, 88, 65
2, 312120, Note_on_c, 0, 76, 84
2, 312283, Note_on_c, 0, 88, 0
2, 312300, Note_on_c, 0, 86, 62
2, 312463, Note_on_c, 0, 86, 0
2, 312480, Note_on_c, 0, 88, 71
2, 312643, Note_on_c, 0, 88, 0
2, 312660, Note_on_c, 0, 96, 83
2, 312660, Note_on_c, 0, 64, 57
2, 312660, Note_on_c, 0, 67, 58
2, 312823, Note_on_c, 0, 96, 0
2, 312840, Note_on_c, 0, 88, 52
2, 313003, Note_on_c, 0, 88, 0
2, 313020, Note_on_c, 0, 86, 61
2, 313147, Note_on_c, 0, 67, 0
2, 313147, Note_on_c, 0, 64, 0
2, 313183, Note_on_c, 0, 86, 0
2, 313200, Note_on_c, 0, 76, 0
2, 313200, Note_on_c, 0, 88, 73
2, 313200, Note_on_c, 0, 80, 84
2, 313363, Note_on_c, 0, 88, 0
2, 313380, Note_on_c, 0, 89, 70
2, 313543, Note_on_c, 0, 89, 0
2, 313560, Note_on_c, 0, 88, 65
2, 313723, Note_on_c, 0, 88, 0
2, 313740, Note_on_c, 0, 89, 70
2, 313740, Note_on_c, 0, 68, 58
2, 313740, Note_on_c, 0, 72, 60
2, 313903, Note_on_c, 0, 89, 0
2, 313920, Note_on_c, 0, 88, 61
2, 314083, Note_on_c, 0, 88, 0
2, 314100, Note_on_c, 0, 89, 71
2, 314227, Note_on_c, 0, 72, 0
2, 314227, Note_on_c, 0, 68, 0
2, 314263, Note_on_c, 0, 89, 0
2, 314280, Note_on_c, 0, 80, 0
2, 314280, Note_on_c, 0, 88, 67
2, 314280, Note_on_c, 0, 76, 69
2, 314443, Note_on_c, 0, 88, 0
2, 314460, Note_on_c, 0, 86, 60
2, 314623, Note_on_c, 0, 86, 0
2, 314640, Note_on_c, 0, 88, 70
2, 314803, Note_on_c, 0, 88, 0
2, 314820, Note_on_c, 0, 96, 85
2, 314820, Note_on_c, 0, 64, 60
2, 314820, Note_on_c, 0, 68, 59
2, 314983, Note_on_c, 0, 96, 0
2, 315000, Note_on_c, 0, 88, 51
2, 315163, Note_on_c, 0, 88, 0
2, 315180, Note_on_c, 0, 86, 61
2, 315307, Note_on_c, 0, 68, 0
2, 315307, Note_on_c, 0, 64, 0
2, 315343, Note_on_c, 0, 86, 0
2, 315360, Note_on_c, 0, 76, 0
2, 315360, Note_on_c, 0, 88, 72
2, 315360, Note_on_c, 0, 72, 63
2, 315523, Note_on_c, 0, 88, 0
2, 315540, Note_on_c, 0, 89, 69
2, 315703, Note_on_c, 0, 89, 0
2, 315720, Note_on_c, 0, 88, 64
2, 315883, Note_on_c, 0, 88, 0
2, 315900, Note_on_c, 0, 89, 71
2, 315900, Note_on_c, 0, 60, 58
2, 315900, Note_on_c, 0, 64, 59
2, 316063, Note_on_c, 0, 89, 0
2, 316080, Note_on_c, 0, 88, 61
2, 316243, Note_on_c, 0, 88, 0
2, 316260, Note_on_c, 0, 89, 69
2, 316387, Note_on_c, 0, 64, 0
2, 316387, Note_on_c, 0, 60, 0
2, 316423, Note_on_c, 0, 89, 0
2, 316440, Note_on_c, 0, 72, 0
2, 316440, Note_on_c, 0, 88, 66
2, 316440, Note_on_c, 0, 67, 62
2, 316603, Note_on_c, 0, 88, 0
2, 316620, Note_on_c, 0, 86, 62
2, 316783, Note_on_c, 0, 86, 0
2, 316800, Note_on_c, 0, 88, 70
2, 316963, Note_on_c, 0, 88, 0
2, 316980, Note_on_c, 0, 96, 85
2, 316980, Note_on_c, 0, 55, 58
2, 316980, Note_on_c, 0, 60, 59
2, 317143, Note_on_c, 0, 96, 0
2, 317160, Note_on_c, 0, 88, 52
2, 317323, Note_on_c, 0, 88, 0
2, 317340, Note_on_c, 0, 84, 55
2, 317467, Note_on_c, 0, 60, 0
2, 317467, Note_on_c, 0, 55, 0
2, 317503, Note_on_c, 0, 84, 0
2, 317520, Note_on_c, 0, 67, 0
2, 317520, Note_on_c, 0, 96, 86
2, 317520, Note_on_c, 0, 96, 72
2, 317520, Note_on_c, 0, 72, 75
2, 317520, Note_on_c, 0, 72, 88
2, 317683, Note_on_c, 0, 72, 0
2, 317683, Note_on_c, 0, 96, 0
2, 317700, Note_on_c, 0, 87, 50
2, 317700, Note_on_c, 0, 63, 51
2, 317863, Note_on_c, 0, 63, 0
2, 317863, Note_on_c, 0, 87, 0
2, 317880, Note_on_c, 0, 84, 57
2, 317880, Note_on_c, 0, 60, 58
2, 318007, Note_on_c, 0, 96, 0
2, 318007, Note_on_c, 0, 72, 0
2, 318043, Note_on_c, 0, 84, 0
2, 318043, Note_on_c, 0, 60, 0
2, 318060, Note_on_c, 0, 92, 80
2, 318060, Note_on_c, 0, 92, 55
2, 318060, Note_on_c, 0, 68, 84
2, 318060, Note_on_c, 0, 68, 61
2, 318223, Note_on_c, 0, 68, 0
2, 318223, Note_on_c, 0, 92, 0
2, 318240, Note_on_c, 0, 84, 54
2, 318240, Note_on_c, 0, 60, 54
2, 318403, Note_on_c, 0, 60, 0
2, 318403, Note_on_c, 0, 84, 0
2, 318420, Note_on_c, 0, 80, 54
2, 318420, Note_on_c, 0, 56, 56
2, 318547, Note_on_c, 0, 92, 0
2, 318547, Note_on_c, 0, 68, 0
2, 318583, Note_on_c, 0, 80, 0
2, 318583, Note_on_c, 0, 56, 0
2, 318600, Note_on_c, 0, 92, 89
2, 318600, Note_on_c, 0, 92, 67
2, 318600, Note_on_c, 0, 68, 86
2, 318600, Note_on_c, 0, 68, 68
2, 318763, Note_on_c, 0, 68, 0
2, 318763, Note_on_c, 0, 92, 0
2, 318780, Note_on_c, 0, 84, 55
2, 318780, Note_on_c, 0, 60, 53
2, 318943, Note_on_c, 0, 60, 0
2, 318943, Note_on_c, 0, 84, 0
2, 318960, Note_on_c, 0, 80, 54
2, 318960, Note_on_c, 0, 56, 53
2, 319087, Note_on_c, 0, 92, 0
2, 319087, Note_on_c, 0, 68, 0
2, 319123, Note_on_c, 0, 80, 0
2, 319123, Note_on_c, 0, 56, 0
2, 319140, Note_on_c, 0, 94, 87
2, 319140, Note_on_c, 0, 94, 71
2, 319140, Note_on_c, 0, 70, 86
2, 319140, Note_on_c, 0, 70, 70
2, 319303, Note_on_c, 0, 70, 0
2, 319303, Note_on_c, 0, 94, 0
2, 319320, Note_on_c, 0, 85, 52
2, 319320, Note_on_c, 0, 61, 53
2, 319483, Note_on_c, 0, 61, 0
2, 319483, Note_on_c, 0, 85, 0
2, 319500, Note_on_c, 0, 82, 56
2, 319500, Note_on_c, 0, 58, 57
2, 319627, Note_on_c, 0, 94, 0
2, 319627, Note_on_c, 0, 70, 0
2, 319663, Note_on_c, 0, 82, 0
2, 319663, Note_on_c, 0, 58, 0
2, 319680, Note_on_c, 0, 96, 89
2, 319680, Note_on_c, 0, 96, 75
2, 319680, Note_on_c, 0, 72, 88
2, 319680, Note_on_c, 0, 72, 73
2, 319843, Note_on_c, 0, 72, 0
2, 319843, Note_on_c, 0, 96, 0
2, 319860, Note_on_c, 0, 87, 50
2, 319860, Note_on_c, 0, 63, 51
2, 320023, Note_on_c, 0, 63, 0
2, 320023, Note_on_c, 0, 87, 0
2, 320040, Note_on_c, 0, 84, 58
2, 320040, Note_on_c, 0, 60, 58
2, 320167, Note_on_c, 0, 96, 0
2, 320167, Note_on_c, 0, 72, 0
2, 320203, Note_on_c, 0, 84, 0
2, 320203, Note_on_c, 0, 60, 0
2, 320220, Note_on_c, 0, 92, 82
2, 320220, Note_on_c, 0, 92, 58
2, 320220, Note_on_c, 0, 68, 82
2, 320220, Note_on_c, 0, 68, 58
2, 320383, Note_on_c, 0, 68, 0
2, 320383, Note_on_c, 0, 92, 0
2, 320400, Note_on_c, 0, 84, 51
2, 320400, Note_on_c, 0, 60, 51
2, 320563, Note_on_c, 0, 60, 0
2, 320563, Note_on_c, 0, 84, 0
2, 320580, Note_on_c, 0, 80, 55
2, 320580, Note_on_c, 0, 56, 53
2, 320707, Note_on_c, 0, 92, 0
2, 320707, Note_on_c, 0, 68, 0
2, 320743, Note_on_c, 0, 80, 0
2, 320743, Note_on_c, 0, 56, 0
2, 320760, Note_on_c, 0, 92, 87
2, 320760, Note_on_c, 0, 92, 65
2, 320760, Note_on_c, 0, 68, 89
2, 320760, Note_on_c, 0, 68, 66
2, 320923, Note_on_c, 0, 68, 0
2, 320923, Note_on_c, 0, 92, 0
2, 320940, Note_on_c, 0, 84, 53
2, 320940, Note_on_c, 0, 60, 55
2, 321103, Note_on_c, 0, 60, 0
2, 321103, Note_on_c, 0, 84, 0
2, 321120, Note_on_c, 0, 80, 53
2, 321120, Note_on_c, 0, 56, 56
2, 321247, Note_on_c, 0, 92, 0
2, 321247, Note_on_c, 0, 68, 0
2, 321283, Note_on_c, 0, 80, 0
2, 321283, Note_on_c, 0, 56, 0
2, 321300, Note_on_c, 0, 94, 87
2, 321300, Note_on_c, 0, 94, 70
2, 321300, Note_on_c, 0, 70, 89
2, 321300, Note_on_c, 0, 70, 72
2, 321463, Note_on_c, 0, 70, 0
2, 321463, Note_on_c, 0, 94, 0
2, 321480, Note_on_c, 0, 85, 53
2, 321480, Note_on_c, 0, 61, 52
2, 321643, Note_on_c, 0, 61, 0
2, 321643, Note_on_c, 0, 85, 0
2, 321660, Note_on_c, 0, 82, 56
2, 321660, Note_on_c, 0, 58, 57
2, 321787, Note_on_c, 0, 94, 0
2, 321787, Note_on_c, 0, 70, 0
2, 321823, Note_on_c, 0, 82, 0
2, 321823, Note_on_c, 0, 58, 0
2, 321840, Note_on_c, 0, 96, 86
2, 321840, Note_on_c, 0, 96, 74
2, 321840, Note_on_c, 0, 72, 89
2, 321840, Note_on_c, 0, 72, 73
2, 322003, Note_on_c, 0, 72, 0
2, 322003, Note_on_c, 0, 96, 0
2, 322020, Note_on_c, 0, 89, 54
2, 322020, Note_on_c, 0, 65, 53
2, 322183, Note_on_c, 0, 65, 0
2, 322183, Note_on_c, 0, 89, 0
2, 322200, Note_on_c, 0, 84, 53
2, 322200, Note_on_c, 0, 60, 54
2, 322327, Note_on_c, 0, 96, 0
2, 322327, Note_on_c, 0, 72, 0
2, 322363, Note_on_c, 0, 84, 0
2, 322363, Note_on_c, 0, 60, 0
2, 322380, Note_on_c, 0, 92, 81
2, 322380, Note_on_c, 0, 92, 60
2, 322380, Note_on_c, 0, 68, 83
2, 322380, Note_on_c, 0, 68, 59
2, 322543, Note_on_c, 0, 68, 0
2, 322543, Note_on_c, 0, 92, 0
2, 322560, Note_on_c, 0, 89, 60
2, 322560, Note_on_c, 0, 65, 61
2, 322723, Note_on_c, 0, 65, 0
2, 322723, Note_on_c, 0, 89, 0
2, 322740, Note_on_c, 0, 80, 47
2, 322740, Note_on_c, 0, 56, 50
2, 322867, Note_on_c, 0, 92, 0
2, 322867, Note_on_c, 0, 68, 0
2, 322903, Note_on_c, 0, 80, 0
2, 322903, Note_on_c, 0, 56, 0
2, 322920, Note_on_c, 0, 92, 87
2, 322920, Note_on_c, 0, 92, 66
2, 322920, Note_on_c, 0, 68, 88
2, 322920, Note_on_c, 0, 68, 67
2, 323083, Note_on_c, 0, 68, 0
2, 323083, Note_on_c, 0, 92, 0
2, 323100, Note_on_c, 0, 89, 63
2, 323100, Note_on_c, 0, 65, 62
2, 323263, Note_on_c, 0, 65, 0
2, 323263, Note_on_c, 0, 89, 0
2, 323280, Note_on_c, 0, 80, 48
2, 323280, Note_on_c, 0, 56, 48
2, 323407, Note_on_c, 0, 92, 0
2, 323407, Note_on_c, 0, 68, 0
2, 323443, Note_on_c, 0, 80, 0
2, 323443, Note_on_c, 0, 56, 0
2, 323460, Note_on_c, 0, 94, 85
2, 323460, Note_on_c, 0, 94, 71
2, 323460, Note_on_c, 0, 70, 87
2, 323460, Note_on_c, 0, 70, 69
2, 323623, Note_on_c, 0, 70, 0
2, 323623, Note_on_c, 0, 94, 0
2, 323640, Note_on_c, 0, 89, 57
2, 323640, Note_on_c, 0, 65, 60
2, 323803, Note_on_c, 0, 65, 0
2, 323803, Note_on_c, 0, 89, 0
2, 323820, Note_on_c, 0, 82, 52
2, 323820, Note_on_c, 0, 58, 51
2, 323947, Note_on_c, 0, 94, 0
2, 323947, Note_on_c, 0, 70, 0
2, 323983, Note_on_c, 0, 82, 0
2, 323983, Note_on_c, 0, 58, 0
2, 324000, Note_on_c, 0, 96, 85
2, 324000, Note_on_c, 0, 96, 73
2, 324000, Note_on_c, 0, 72, 89
2, 324000, Note_on_c, 0, 72, 73
2, 324163, Note_on_c, 0, 72, 0
2, 324163, Note_on_c, 0, 96, 0
2, 324180, Note_on_c, 0, 89, 57
2, 324180, Note_on_c, 0, 65, 55
2, 324343, Note_on_c, 0, 65, 0
2, 324343, Note_on_c, 0, 89, 0
2, 324360, Note_on_c, 0, 84, 55
2, 324360, Note_on_c, 0, 60, 54
2, 324487, Note_on_c, 0, 96, 0
2, 324487, Note_on_c, 0, 72, 0
2, 324523, Note_on_c, 0, 84, 0
2, 324523, Note_on_c, 0, 60, 0
2, 324540, Note_on_c, 0, 92, 82
2, 324540, Note_on_c, 0, 92, 58
2, 324540, Note_on_c, 0, 68, 82
2, 324540, Note_on_c, 0, 68, 58
2, 324703, Note_on_c, 0, 68, 0
2, 324703, Note_on_c, 0, 92, 0
2, 324720, Note_on_c, 0, 89, 61
2, 324720, Note_on_c, 0, 65, 60
2, 324883, Note_on_c, 0, 65, 0
2, 324883, Note_on_c, 0, 89, 0
2, 324900, Note_on_c, 0, 80, 46
2, 324900, Note_on_c, 0, 56, 47
2, 325027, Note_on_c, 0, 92, 0
2, 325027, Note_on_c, 0, 68, 0
2, 325063, Note_on_c, 0, 80, 0
2, 325063, Note_on_c, 0, 56, 0
2, 325080, Note_on_c, 0, 92, 86
2, 325080, Note_on_c, 0, 92, 68
2, 325080, Note_on_c, 0, 68, 86
2, 325080, Note_on_c, 0, 68, 67
2, 325243, Note_on_c, 0, 68, 0
2, 325243, Note_on_c, 0, 92, 0
2, 325260, Note_on_c, 0, 89, 63
2, 325260, Note_on_c, 0, 65, 64
2, 325423, Note_on_c, 0, 65, 0
2, 325423, Note_on_c, 0, 89, 0
2, 325440, Note_on_c, 0, 80, 48
2, 325440, Note_on_c, 0, 56, 47
2, 325567, Note_on_c, 0, 92, 0
2, 325567, Note_on_c, 0, 68, 0
2, 325603, Note_on_c, 0, 80, 0
2, 325603, Note_on_c, 0, 56, 0
2, 325620, Note_on_c, 0, 94, 87
2, 325620, Note_on_c, 0, 94, 71
2, 325620, Note_on_c, 0, 70, 86
2, 325620, Note_on_c, 0, 70, 70
2, 325783, Note_on_c, 0, 70, 0
2, 325783, Note_on_c, 0, 94, 0
2, 325800, Note_on_c, 0, 89, 57
2, 325800, Note_on_c, 0, 65, 60
2, 325963, Note_on_c, 0, 65, 0
2, 325963, Note_on_c, 0, 89, 0
2, 325980, Note_on_c, 0, 82, 50
2, 325980, Note_on_c, 0, 58, 51
2, 326107, Note_on_c, 0, 94, 0
2, 326107, Note_on_c, 0, 70, 0
2, 326143, Note_on_c, 0, 82, 0
2, 326143, Note_on_c, 0, 58, 0
2, 326160, Note_on_c, 0, 96, 88
2, 326160, Note_on_c, 0, 60, 87
2, 326160, Note_on_c, 0, 65, 87
2, 326160, Note_on_c, 0, 72, 86
2, 326323, Note_on_c, 0, 72, 0
2, 326323, Note_on_c, 0, 96, 0
2, 326323, Note_on_c, 0, 60, 0
2, 326323, Note_on_c, 0, 65, 0
2, 326340, Note_on_c, 0, 89, 56
2, 326503, Note_on_c, 0, 89, 0
2, 326520, Note_on_c, 0, 88, 61
2, 326683, Note_on_c, 0, 88, 0
2, 326700, Note_on_c, 0, 89, 72
2, 326700, Note_on_c, 0, 53, 58
2, 326700, Note_on_c, 0, 56, 57
2, 326700, Note_on_c, 0, 60, 57
2, 326700, Note_on_c, 0, 65, 59
2, 326863, Note_on_c, 0, 89, 0
2, 326880, Note_on_c, 0, 91, 72
2, 327043, Note_on_c, 0, 91, 0
2, 327060, Note_on_c, 0, 89, 63
2, 327223, Note_on_c, 0, 89, 0
2, 327240, Note_on_c, 0, 92, 74
2, 327403, Note_on_c, 0, 92, 0
2, 327420, Note_on_c, 0, 84, 53
2, 327583, Note_on_c, 0, 84, 0
2, 327600, Note_on_c, 0, 83, 59
2, 327727, Note_on_c, 0, 60, 0
2, 327727, Note_on_c, 0, 65, 0
2, 327727, Note_on_c, 0, 53, 0
2, 327727, Note_on_c, 0, 56, 0
2, 327763, Note_on_c, 0, 83, 0
2, 327780, Note_on_c, 0, 84, 71
2, 327780, Note_on_c, 0, 68, 86
2, 327780, Note_on_c, 0, 72, 85
2, 327780, Note_on_c, 0, 77, 84
2, 327780, Note_on_c, 0, 80, 86
2, 327943, Note_on_c, 0, 84, 0
2, 327960, Note_on_c, 0, 85, 69
2, 328123, Note_on_c, 0, 85, 0
2, 328140, Note_on_c, 0, 84, 63
2, 328303, Note_on_c, 0, 84, 0
2, 328320, Note_on_c, 0, 89, 89
2, 328483, Note_on_c, 0, 89, 0
2, 328483, Note_on_c, 0, 80, 0
2, 328483, Note_on_c, 0, 68, 0
2, 328483, Note_on_c, 0, 72, 0
2, 328483, Note_on_c, 0, 77, 0
2, 328500, Note_on_c, 0, 80, 52
2, 328663, Note_on_c, 0, 80, 0
2, 328680, Note_on_c, 0, 79, 59
2, 328843, Note_on_c, 0, 79, 0
2, 328860, Note_on_c, 0, 80, 71
2, 328860, Note_on_c, 0, 65, 58
2, 328860, Note_on_c, 0, 68, 59
2, 328860, Note_on_c, 0, 72, 59
2, 328860, Note_on_c, 0, 77, 57
2, 329023, Note_on_c, 0, 80, 0
2, 329040, Note_on_c, 0, 82, 68
2, 329203, Note_on_c, 0, 82, 0
2, 329220, Note_on_c, 0, 79, 60
2, 329383, Note_on_c, 0, 79, 0
2, 329400, Note_on_c, 0, 84, 77
2, 329563, Note_on_c, 0, 84, 0
2, 329563, Note_on_c, 0, 77, 0
2, 329563, Note_on_c, 0, 65, 0
2, 329563, Note_on_c, 0, 68, 0
2, 329563, Note_on_c, 0, 72, 0
2, 329580, Note_on_c, 0, 77, 55
2, 329743, Note_on_c, 0, 77, 0
2, 329760, Note_on_c, 0, 76, 61
2, 329923, Note_on_c, 0, 76, 0
2, 329940, Note_on_c, 0, 77, 72
2, 329940, Note_on_c, 0, 60, 56
2, 329940, Note_on_c, 0, 65, 57
2, 329940, Note_on_c, 0, 68, 60
2, 329940, Note_on_c, 0, 72, 59
2, 330103, Note_on_c, 0, 77, 0
2, 330120, Note_on_c, 0, 79, 70
2, 330283, Note_on_c, 0, 79, 0
2, 330300, Note_on_c, 0, 77, 60
2, 330463, Note_on_c, 0, 77, 0
2, 330480, Note_on_c, 0, 80, 73
2, 330643, Note_on_c, 0, 80, 0
2, 330643, Note_on_c, 0, 72, 0
2, 330643, Note_on_c, 0, 60, 0
2, 330643, Note_on_c, 0, 65, 0
2, 330643, Note_on_c, 0, 68, 0
2, 330660, Note_on_c, 0, 72, 51
2, 330823, Note_on_c, 0, 72, 0
2, 330840, Note_on_c, 0, 71, 61
2, 331003, Note_on_c, 0, 71, 0
2, 331020, Note_on_c, 0, 72, 72
2, 331020, Note_on_c, 0, 56, 60
2, 331020, Note_on_c, 0, 60, 56
2, 331020, Note_on_c, 0, 65, 56
2, 331020, Note_on_c, 0, 68, 58
2, 331183, Note_on_c, 0, 72, 0
2, 331200, Note_on_c, 0, 74, 72
2, 331363, Note_on_c, 0, 74, 0
2, 331380, Note_on_c, 0, 72, 62
2, 331543, Note_on_c, 0, 72, 0
2, 331560, Note_on_c, 0, 77, 76
2, 331723, Note_on_c, 0, 77, 0
2, 331723, Note_on_c, 0, 68, 0
2, 331723, Note_on_c, 0, 56, 0
2, 331723, Note_on_c, 0, 60, 0
2, 331723, Note_on_c, 0, 65, 0
2, 331740, Note_on_c, 0, 68, 50
2, 331903, Note_on_c, 0, 68, 0
2, 331920, Note_on_c, 0, 67, 61
2, 332083, Note_on_c, 0, 67, 0
2, 332100, Note_on_c, 0, 68, 69
2, 332100, Note_on_c, 0, 53, 59
2, 332100, Note_on_c, 0, 56, 58
2, 332100, Note_on_c, 0, 60, 57
2, 332100, Note_on_c, 0, 65, 56
2, 332263, Note_on_c, 0, 68, 0
2, 332280, Note_on_c, 0, 70, 70
2, 332443, Note_on_c, 0, 70, 0
2, 332460, Note_on_c, 0, 67, 58
2, 332623, Note_on_c, 0, 67, 0
2, 332640, Note_on_c, 0, 72, 76
2, 332803, Note_on_c, 0, 72, 0
2, 332803, Note_on_c, 0, 65, 0
2, 332803, Note_on_c, 0, 53, 0
2, 332803, Note_on_c, 0, 56, 0
2, 332803, Note_on_c, 0, 60, 0
2, 332820, Note_on_c, 0, 63, 51
2, 332983, Note_on_c, 0, 63, 0
2, 333000, Note_on_c, 0, 62, 61
2, 333163, Note_on_c, 0, 62, 0
2, 333180, Note_on_c, 0, 63, 70
2, 333180, Note_on_c, 0, 48, 56
2, 333180, Note_on_c, 0, 51, 56
2, 333180, Note_on_c, 0, 56, 56
2, 333180, Note_on_c, 0, 60, 58
2, 333343, Note_on_c, 0, 63, 0
2, 333360, Note_on_c, 0, 65, 69
2, 333523, Note_on_c, 0, 65, 0
2, 333540, Note_on_c, 0, 63, 62
2, 333703, Note_on_c, 0, 63, 0
2, 333720, Note_on_c, 0, 68, 78
2, 333883, Note_on_c, 0, 68, 0
2, 333883, Note_on_c, 0, 60, 0
2, 333883, Note_on_c, 0, 48, 0
2, 333883, Note_on_c, 0, 51, 0
2, 333883, Note_on_c, 0, 56, 0
2, 333900, Note_on_c, 0, 60, 53
2, 334063, Note_on_c, 0, 60, 0
2, 334080, Note_on_c, 0, 59, 61
2, 334243, Note_on_c, 0, 59, 0
2, 334260, Note_on_c, 0, 60, 73
2, 334260, Note_on_c, 0, 48, 57
2, 334260, Note_on_c, 0, 51, 56
2, 334260, Note_on_c, 0, 56, 59
2, 334423, Note_on_c, 0, 60, 0
2, 334440, Note_on_c, 0, 62, 69
2, 334603, Note_on_c, 0, 62, 0
2, 334620, Note_on_c, 0, 60, 62
2, 334747, Note_on_c, 0, 56, 0
2, 334747, Note_on_c, 0, 48, 0
2, 334747, Note_on_c, 0, 51, 0
2, 334783, Note_on_c, 0, 60, 0
2, 334800, Note_on_c, 0, 60, 89
2, 334800, Note_on_c, 0, 63, 88
2, 334800, Note_on_c, 0, 67, 90
2, 334800, Note_on_c, 0, 72, 89
2, 334800, Note_on_c, 0, 43, 63
2, 334800, Note_on_c, 0, 48, 65
2, 334800, Note_on_c, 0, 51, 66
2, 334800, Note_on_c, 0, 55, 64
2, 334963, Note_on_c, 0, 55, 0
2, 334963, Note_on_c, 0, 60, 0
2, 334963, Note_on_c, 0, 43, 0
2, 334963, Note_on_c, 0, 63, 0
2, 334963, Note_on_c, 0, 67, 0
2, 334963, Note_on_c, 0, 72, 0
2, 334963, Note_on_c, 0, 48, 0
2, 334963, Note_on_c, 0, 51, 0
2, 335340, Note_on_c, 0, 31, 63
2, 335340, Note_on_c, 0, 43, 63
2, 336367, Note_on_c, 0, 43, 0
2, 336367, Note_on_c, 0, 31, 0
2, 336420, Note_on_c, 0, 31, 66
2, 336420, Note_on_c, 0, 43, 67
2, 336686, Note_on_c, 0, 43, 0
2, 336686, Note_on_c, 0, 31, 0
2, 336960, Note_on_c, 0, 31, 71
2, 336960, Note_on_c, 0, 43, 69
2, 337137, Note_on_c, 0, 43, 0
2, 337137, Note_on_c, 0, 31, 0
2, 337500, Note_on_c, 0, 31, 62
2, 337500, Note_on_c, 0, 43, 65
2, 338527, Note_on_c, 0, 43, 0
2, 338527, Note_on_c, 0, 31, 0
2, 338580, Note_on_c, 0, 43, 70
2, 338743, Note_on_c, 0, 43, 0
2, 338760, Note_on_c, 0, 31, 46
2, 338923, Note_on_c, 0, 31, 0
2, 338940, Note_on_c, 0, 43, 81
2, 339120, Note_on_c, 0, 31, 71
2, 339660, Note_on_c, 0, 55, 62
2, 339823, Note_on_c, 0, 55, 0
2, 339840, Note_on_c, 0, 53, 61
2, 340003, Note_on_c, 0, 53, 0
2, 340020, Note_on_c, 0, 55, 69
2, 340183, Note_on_c, 0, 55, 0
2, 340200, Note_on_c, 0, 56, 72
2, 340525, Note_on_c, 0, 56, 0
2, 340560, Note_on_c, 0, 56, 65
2, 340723, Note_on_c, 0, 56, 0
2, 340740, Note_on_c, 0, 58, 71
2, 341065, Note_on_c, 0, 58, 0
2, 341100, Note_on_c, 0, 58, 64
2, 341263, Note_on_c, 0, 58, 0
2, 341280, Note_on_c, 0, 55, 69
2, 341820, Note_on_c, 0, 55, 0
2, 341820, Note_on_c, 0, 51, 54
2, 342145, Note_on_c, 0, 51, 0
2, 342180, Note_on_c, 0, 51, 62
2, 342343, Note_on_c, 0, 51, 0
2, 342360, Note_on_c, 0, 50, 65
2, 342685, Note_on_c, 0, 50, 0
2, 342720, Note_on_c, 0, 50, 66
2, 342883, Note_on_c, 0, 50, 0
2, 342900, Note_on_c, 0, 47, 59
2, 343225, Note_on_c, 0, 47, 0
2, 343260, Note_on_c, 0, 47, 64
2, 343370, Note_on_c, 0, 31, 0
2, 343370, Note_on_c, 0, 43, 0
2, 343423, Note_on_c, 0, 47, 0
2, 343440, Note_on_c, 0, 48, 72
2, 343440, Note_on_c, 0, 31, 47
2, 343765, Note_on_c, 0, 48, 0
2, 343800, Note_on_c, 0, 47, 63
2, 343963, Note_on_c, 0, 47, 0
2, 343980, Note_on_c, 0, 48, 73
2, 344143, Note_on_c, 0, 48, 0
2, 344160, Note_on_c, 0, 47, 64
2, 344323, Note_on_c, 0, 47, 0
2, 344340, Note_on_c, 0, 48, 68
2, 344503, Note_on_c, 0, 48, 0
2, 344520, Note_on_c, 0, 50, 72
2, 344845, Note_on_c, 0, 50, 0
2, 344880, Note_on_c, 0, 50, 64
2, 345043, Note_on_c, 0, 50, 0
2, 345060, Note_on_c, 0, 51, 70
2, 345385, Note_on_c, 0, 51, 0
2, 345420, Note_on_c, 0, 51, 64
2, 345583, Note_on_c, 0, 51, 0
2, 345600, Note_on_c, 0, 48, 62
2, 345925, Note_on_c, 0, 48, 0
2, 345960, Note_on_c, 0, 48, 62
2, 346123, Note_on_c, 0, 48, 0
2, 346140, Note_on_c, 0, 43, 56
2, 346465, Note_on_c, 0, 43, 0
2, 346500, Note_on_c, 0, 43, 63
2, 346663, Note_on_c, 0, 43, 0
2, 346680, Note_on_c, 0, 41, 64
2, 347005, Note_on_c, 0, 41, 0
2, 347040, Note_on_c, 0, 41, 65
2, 347203, Note_on_c, 0, 41, 0
2, 347220, Note_on_c, 0, 38, 60
2, 347545, Note_on_c, 0, 38, 0
2, 347580, Note_on_c, 0, 38, 64
2, 347690, Note_on_c, 0, 31, 0
2, 347743, Note_on_c, 0, 38, 0
2, 347760, Note_on_c, 0, 31, 117
2, 347760, Note_on_c, 0, 43, 117
2, 349200, Note_on_c, 0, 48, 58
2, 349289, Note_on_c, 0, 48, 0
2, 349380, Note_on_c, 0, 48, 68
2, 350186, Note_on_c, 0, 48, 0
2, 350460, Note_on_c, 0, 55, 77
2, 350623, Note_on_c, 0, 55, 0
2, 350820, Note_on_c, 0, 55, 57
2, 350983, Note_on_c, 0, 55, 0
2, 351000, Note_on_c, 0, 56, 71
2, 351163, Note_on_c, 0, 56, 0
2, 351180, Note_on_c, 0, 55, 60
2, 351343, Note_on_c, 0, 55, 0
2, 351360, Note_on_c, 0, 56, 67
2, 351523, Note_on_c, 0, 56, 0
2, 351540, Note_on_c, 0, 55, 62
2, 352243, Note_on_c, 0, 55, 0
2, 352620, Note_on_c, 0, 64, 60
2, 352620, Note_on_c, 0, 70, 61
2, 352620, Note_on_c, 0, 72, 61
2, 352863, Note_on_c, 0, 72, 0
2, 352863, Note_on_c, 0, 64, 0
2, 352863, Note_on_c, 0, 70, 0
2, 352890, Note_on_c, 0, 65, 68
2, 352890, Note_on_c, 0, 70, 68
2, 352890, Note_on_c, 0, 74, 68
2, 353133, Note_on_c, 0, 74, 0
2, 353133, Note_on_c, 0, 65, 0
2, 353133, Note_on_c, 0, 70, 0
2, 353160, Note_on_c, 0, 67, 75
2, 353160, Note_on_c, 0, 70, 74
2, 353160, Note_on_c, 0, 76, 73
2, 353294, Note_on_c, 0, 76, 0
2, 353294, Note_on_c, 0, 67, 0
2, 353294, Note_on_c, 0, 70, 0
2, 353430, Note_on_c, 0, 67, 66
2, 353430, Note_on_c, 0, 70, 67
2, 353430, Note_on_c, 0, 76, 67
2, 353564, Note_on_c, 0, 76, 0
2, 353564, Note_on_c, 0, 67, 0
2, 353564, Note_on_c, 0, 70, 0
2, 353700, Note_on_c, 0, 67, 67
2, 353700, Note_on_c, 0, 70, 68
2, 353700, Note_on_c, 0, 76, 70
2, 353834, Note_on_c, 0, 76, 0
2, 353834, Note_on_c, 0, 67, 0
2, 353834, Note_on_c, 0, 70, 0
2, 353970, Note_on_c, 0, 68, 69
2, 353970, Note_on_c, 0, 70, 71
2, 353970, Note_on_c, 0, 77, 69
2, 354104, Note_on_c, 0, 77, 0
2, 354104, Note_on_c, 0, 68, 0
2, 354104, Note_on_c, 0, 70, 0
2, 354240, Note_on_c, 0, 67, 67
2, 354240, Note_on_c, 0, 70, 66
2, 354240, Note_on_c, 0, 76, 67
2, 354374, Note_on_c, 0, 76, 0
2, 354374, Note_on_c, 0, 67, 0
2, 354374, Note_on_c, 0, 70, 0
2, 354510, Note_on_c, 0, 67, 64
2, 354510, Note_on_c, 0, 70, 67
2, 354510, Note_on_c, 0, 76, 64
2, 354644, Note_on_c, 0, 76, 0
2, 354644, Note_on_c, 0, 67, 0
2, 354644, Note_on_c, 0, 70, 0
2, 354780, Note_on_c, 0, 67, 68
2, 354780, Note_on_c, 0, 70, 67
2, 354780, Note_on_c, 0, 76, 69
2, 354914, Note_on_c, 0, 76, 0
2, 354914, Note_on_c, 0, 67, 0
2, 354914, Note_on_c, 0, 70, 0
2, 355050, Note_on_c, 0, 64, 56
2, 355050, Note_on_c, 0, 70, 58
2, 355050, Note_on_c, 0, 72, 57
2, 355184, Note_on_c, 0, 72, 0
2, 355184, Note_on_c, 0, 64, 0
2, 355184, Note_on_c, 0, 70, 0
2, 355320, Note_on_c, 0, 65, 72
2, 355320, Note_on_c, 0, 70, 71
2, 355320, Note_on_c, 0, 73, 70
2, 355454, Note_on_c, 0, 73, 0
2, 355454, Note_on_c, 0, 65, 0
2, 355454, Note_on_c, 0, 70, 0
2, 355590, Note_on_c, 0, 65, 65
2, 355590, Note_on_c, 0, 70, 68
2, 355590, Note_on_c, 0, 73, 67
2, 355724, Note_on_c, 0, 73, 0
2, 355724, Note_on_c, 0, 65, 0
2, 355724, Note_on_c, 0, 70, 0
2, 355860, Note_on_c, 0, 65, 71
2, 355860, Note_on_c, 0, 70, 68
2, 355860, Note_on_c, 0, 73, 71
2, 355994, Note_on_c, 0, 73, 0
2, 355994, Note_on_c, 0, 65, 0
2, 355994, Note_on_c, 0, 70, 0
2, 356130, Note_on_c, 0, 61, 57
2, 356130, Note_on_c, 0, 70, 59
2, 356264, Note_on_c, 0, 70, 0
2, 356264, Note_on_c, 0, 61, 0
2, 356400, Note_on_c, 0, 64, 72
2, 356400, Note_on_c, 0, 70, 71
2, 356400, Note_on_c, 0, 72, 71
2, 356563, Note_on_c, 0, 72, 0
2, 356563, Note_on_c, 0, 64, 0
2, 356563, Note_on_c, 0, 70, 0
2, 358020, Note_on_c, 0, 55, 57
2, 358490, Note_on_c, 0, 43, 0
2, 358490, Note_on_c, 0, 31, 0
2, 358507, Note_on_c, 0, 55, 0
2, 358560, Note_on_c, 0, 56, 69
2, 359047, Note_on_c, 0, 56, 0
2, 359100, Note_on_c, 0, 53, 60
2, 359587, Note_on_c, 0, 53, 0
2, 359640, Note_on_c, 0, 52, 63
2, 360127, Note_on_c, 0, 52, 0
2, 360180, Note_on_c, 0, 48, 59
2, 360667, Note_on_c, 0, 48, 0
2, 360720, Note_on_c, 0, 49, 61
2, 361730, Note_on_c, 0, 49, 0
2, 361800, Note_on_c, 0, 48, 62
2, 362810, Note_on_c, 0, 48, 0
2, 362880, Note_on_c, 0, 44, 61
2, 363890, Note_on_c, 0, 44, 0
2, 363960, Note_on_c, 0, 43, 63
2, 364970, Note_on_c, 0, 43, 0
2, 365040, Note_on_c, 0, 41, 63
2, 365203, Note_on_c, 0, 41, 0
2, 365580, Note_on_c, 0, 65, 62
2, 365580, Note_on_c, 0, 67, 63
2, 365580, Note_on_c, 0, 58, 60
2, 365743, Note_on_c, 0, 58, 0
2, 365743, Note_on_c, 0, 67, 0
2, 365743, Note_on_c, 0, 65, 0
2, 366120, Note_on_c, 0, 65, 60
2, 366120, Note_on_c, 0, 68, 61
2, 366120, Note_on_c, 0, 60, 59
2, 366283, Note_on_c, 0, 60, 0
2, 366283, Note_on_c, 0, 68, 0
2, 366283, Note_on_c, 0, 65, 0
2, 366660, Note_on_c, 0, 65, 62
2, 366660, Note_on_c, 0, 70, 61
2, 366660, Note_on_c, 0, 61, 60
2, 366823, Note_on_c, 0, 61, 0
2, 366823, Note_on_c, 0, 70, 0
2, 366823, Note_on_c, 0, 65, 0
2, 367200, Note_on_c, 0, 65, 60
2, 367200, Note_on_c, 0, 68, 61
2, 367200, Note_on_c, 0, 60, 60
2, 367363, Note_on_c, 0, 60, 0
2, 367363, Note_on_c, 0, 68, 0
2, 367363, Note_on_c, 0, 65, 0
2, 367740, Note_on_c, 0, 65, 62
2, 367740, Note_on_c, 0, 56, 63
2, 367740, Note_on_c, 0, 60, 60
2, 367903, Note_on_c, 0, 60, 0
2, 367903, Note_on_c, 0, 56, 0
2, 367903, Note_on_c, 0, 65, 0
2, 368280, Note_on_c, 0, 65, 63
2, 368280, Note_on_c, 0, 67, 61
2, 368280, Note_on_c, 0, 58, 60
2, 368443, Note_on_c, 0, 58, 0
2, 368443, Note_on_c, 0, 67, 0
2, 368443, Note_on_c, 0, 65, 0
2, 368820, Note_on_c, 0, 64, 61
2, 368820, Note_on_c, 0, 55, 60
2, 368820, Note_on_c, 0, 58, 62
2, 368983, Note_on_c, 0, 58, 0
2, 368983, Note_on_c, 0, 55, 0
2, 368983, Note_on_c, 0, 64, 0
2, 369360, Note_on_c, 0, 65, 62
2, 369360, Note_on_c, 0, 56, 60
2, 369360, Note_on_c, 0, 60, 61
2, 369523, Note_on_c, 0, 60, 0
2, 369523, Note_on_c, 0, 56, 0
2, 369523, Note_on_c, 0, 65, 0
2, 369900, Note_on_c, 0, 81, 62
2, 369900, Note_on_c, 0, 57, 61
2, 370063, Note_on_c, 0, 57, 0
2, 370063, Note_on_c, 0, 81, 0
2, 370080, Note_on_c, 0, 82, 69
2, 370080, Note_on_c, 0, 58, 69
2, 370243, Note_on_c, 0, 58, 0
2, 370243, Note_on_c, 0, 82, 0
2, 370260, Note_on_c, 0, 84, 69
2, 370260, Note_on_c, 0, 60, 69
2, 370423, Note_on_c, 0, 60, 0
2, 370423, Note_on_c, 0, 84, 0
2, 370440, Note_on_c, 0, 86, 103
2, 370440, Note_on_c, 0, 62, 103
2, 370603, Note_on_c, 0, 62, 0
2, 370603, Note_on_c, 0, 86, 0
2, 370620, Note_on_c, 0, 87, 71
2, 370620, Note_on_c, 0, 63, 70
2, 370783, Note_on_c, 0, 63, 0
2, 370783, Note_on_c, 0, 87, 0
2, 370800, Note_on_c, 0, 86, 62
2, 370800, Note_on_c, 0, 62, 64
2, 370963, Note_on_c, 0, 62, 0
2, 370963, Note_on_c, 0, 86, 0
2, 370980, Note_on_c, 0, 84, 63
2, 370980, Note_on_c, 0, 60, 62
2, 371143, Note_on_c, 0, 60, 0
2, 371143, Note_on_c, 0, 84, 0
2, 371160, Note_on_c, 0, 82, 58
2, 371160, Note_on_c, 0, 58, 62
2, 371323, Note_on_c, 0, 58, 0
2, 371323, Note_on_c, 0, 82, 0
2, 371340, Note_on_c, 0, 84, 70
2, 371340, Note_on_c, 0, 60, 70
2, 371503, Note_on_c, 0, 60, 0
2, 371503, Note_on_c, 0, 84, 0
2, 371520, Note_on_c, 0, 86, 102
2, 371520, Note_on_c, 0, 62, 101
2, 371683, Note_on_c, 0, 62, 0
2, 371683, Note_on_c, 0, 86, 0
2, 371700, Note_on_c, 0, 87, 70
2, 371700, Note_on_c, 0, 63, 71
2, 371863, Note_on_c, 0, 63, 0
2, 371863, Note_on_c, 0, 87, 0
2, 371880, Note_on_c, 0, 86, 63
2, 371880, Note_on_c, 0, 62, 62
2, 372043, Note_on_c, 0, 62, 0
2, 372043, Note_on_c, 0, 86, 0
2, 372060, Note_on_c, 0, 84, 65
2, 372060, Note_on_c, 0, 60, 64
2, 372223, Note_on_c, 0, 60, 0
2, 372223, Note_on_c, 0, 84, 0
2, 372240, Note_on_c, 0, 81, 58
2, 372240, Note_on_c, 0, 57, 58
2, 372403, Note_on_c, 0, 57, 0
2, 372403, Note_on_c, 0, 81, 0
2, 372420, Note_on_c, 0, 82, 66
2, 372420, Note_on_c, 0, 58, 67
2, 372583, Note_on_c, 0, 58, 0
2, 372583, Note_on_c, 0, 82, 0
2, 372600, Note_on_c, 0, 84, 99
2, 372600, Note_on_c, 0, 60, 100
2, 372763, Note_on_c, 0, 60, 0
2, 372763, Note_on_c, 0, 84, 0
2, 372780, Note_on_c, 0, 86, 70
2, 372780, Note_on_c, 0, 62, 73
2, 372943, Note_on_c, 0, 62, 0
2, 372943, Note_on_c, 0, 86, 0
2, 372960, Note_on_c, 0, 84, 60
2, 372960, Note_on_c, 0, 60, 63
2, 373123, Note_on_c, 0, 60, 0
2, 373123, Note_on_c, 0, 84, 0
2, 373140, Note_on_c, 0, 82, 61
2, 373140, Note_on_c, 0, 58, 63
2, 373303, Note_on_c, 0, 58, 0
2, 373303, Note_on_c, 0, 82, 0
2, 373320, Note_on_c, 0, 81, 62
2, 373320, Note_on_c, 0, 57, 60
2, 373483, Note_on_c, 0, 57, 0
2, 373483, Note_on_c, 0, 81, 0
2, 373500, Note_on_c, 0, 84, 70
2, 373500, Note_on_c, 0, 60, 70
2, 373663, Note_on_c, 0, 60, 0
2, 373663, Note_on_c, 0, 84, 0
2, 373680, Note_on_c, 0, 86, 102
2, 373680, Note_on_c, 0, 62, 100
2, 373843, Note_on_c, 0, 62, 0
2, 373843, Note_on_c, 0, 86, 0
2, 374220, Note_on_c, 0, 31, 60
2, 374220, Note_on_c, 0, 43, 56
2, 374760, Note_on_c, 0, 53, 61
2, 374923, Note_on_c, 0, 53, 0
2, 374940, Note_on_c, 0, 54, 67
2, 375103, Note_on_c, 0, 54, 0
2, 375120, Note_on_c, 0, 55, 70
2, 375247, Note_on_c, 0, 43, 0
2, 375247, Note_on_c, 0, 31, 0
2, 375283, Note_on_c, 0, 55, 0
2, 375300, Note_on_c, 0, 56, 98
2, 375300, Note_on_c, 0, 31, 65
2, 375300, Note_on_c, 0, 43, 67
2, 376003, Note_on_c, 0, 56, 0
2, 376020, Note_on_c, 0, 55, 61
2, 376183, Note_on_c, 0, 55, 0
2, 376200, Note_on_c, 0, 56, 68
2, 376327, Note_on_c, 0, 43, 0
2, 376327, Note_on_c, 0, 31, 0
2, 376363, Note_on_c, 0, 56, 0
2, 376380, Note_on_c, 0, 55, 65
2, 376380, Note_on_c, 0, 31, 67
2, 376380, Note_on_c, 0, 43, 68
2, 377083, Note_on_c, 0, 55, 0
2, 377100, Note_on_c, 0, 54, 64
2, 377263, Note_on_c, 0, 54, 0
2, 377280, Note_on_c, 0, 55, 70
2, 377407, Note_on_c, 0, 43, 0
2, 377407, Note_on_c, 0, 31, 0
2, 377443, Note_on_c, 0, 55, 0
2, 377460, Note_on_c, 0, 54, 65
2, 377460, Note_on_c, 0, 31, 67
2, 377460, Note_on_c, 0, 43, 66
2, 377623, Note_on_c, 0, 54, 0
2, 377640, Note_on_c, 0, 53, 59
2, 377803, Note_on_c, 0, 53, 0
2, 377820, Note_on_c, 0, 54, 69
2, 377983, Note_on_c, 0, 54, 0
2, 378000, Note_on_c, 0, 55, 70
2, 378163, Note_on_c, 0, 55, 0
2, 378487, Note_on_c, 0, 43, 0
2, 378487, Note_on_c, 0, 31, 0
2, 378540, Note_on_c, 0, 74, 59
2, 378540, Note_on_c, 0, 53, 87
2, 378540, Note_on_c, 0, 59, 87
2, 378540, Note_on_c, 0, 65, 85
2, 378703, Note_on_c, 0, 74, 0
2, 378720, Note_on_c, 0, 72, 61
2, 378883, Note_on_c, 0, 72, 0
2, 378900, Note_on_c, 0, 74, 69
2, 379063, Note_on_c, 0, 74, 0
2, 379080, Note_on_c, 0, 75, 72
2, 379405, Note_on_c, 0, 75, 0
2, 379440, Note_on_c, 0, 75, 65
2, 379567, Note_on_c, 0, 65, 0
2, 379567, Note_on_c, 0, 53, 0
2, 379567, Note_on_c, 0, 59, 0
2, 379603, Note_on_c, 0, 75, 0
2, 379620, Note_on_c, 0, 77, 71
2, 379620, Note_on_c, 0, 53, 67
2, 379620, Note_on_c, 0, 56, 66
2, 379620, Note_on_c, 0, 60, 68
2, 379620, Note_on_c, 0, 65, 68
2, 379945, Note_on_c, 0, 77, 0
2, 379980, Note_on_c, 0, 77, 66
2, 380143, Note_on_c, 0, 77, 0
2, 380160, Note_on_c, 0, 74, 63
2, 380485, Note_on_c, 0, 74, 0
2, 380520, Note_on_c, 0, 74, 65
2, 380647, Note_on_c, 0, 60, 0
2, 380647, Note_on_c, 0, 65, 0
2, 380647, Note_on_c, 0, 53, 0
2, 380647, Note_on_c, 0, 56, 0
2, 380683, Note_on_c, 0, 74, 0
2, 380700, Note_on_c, 0, 71, 63
2, 380700, Note_on_c, 0, 53, 68
2, 380700, Note_on_c, 0, 59, 68
2, 380700, Note_on_c, 0, 65, 66
2, 380863, Note_on_c, 0, 71, 0
2, 380880, Note_on_c, 0, 72, 66
2, 381043, Note_on_c, 0, 72, 0
2, 381060, Note_on_c, 0, 71, 62
2, 381223, Note_on_c, 0, 71, 0
2, 381240, Note_on_c, 0, 72, 69
2, 381565, Note_on_c, 0, 72, 0
2, 381600, Note_on_c, 0, 72, 67
2, 381727, Note_on_c, 0, 65, 0
2, 381727, Note_on_c, 0, 53, 0
2, 381727, Note_on_c, 0, 59, 0
2, 381763, Note_on_c, 0, 72, 0
2, 381780, Note_on_c, 0, 69, 64
2, 381780, Note_on_c, 0, 54, 70
2, 381780, Note_on_c, 0, 60, 68
2, 381780, Note_on_c, 0, 66, 68
2, 381943, Note_on_c, 0, 69, 0
2, 381960, Note_on_c, 0, 71, 67
2, 382123, Note_on_c, 0, 71, 0
2, 382140, Note_on_c, 0, 69, 60
2, 382267, Note_on_c, 0, 66, 0
2, 382267, Note_on_c, 0, 54, 0
2, 382267, Note_on_c, 0, 60, 0
2, 382303, Note_on_c, 0, 69, 0
2, 382320, Note_on_c, 0, 67, 73
2, 382320, Note_on_c, 0, 71, 73
2, 382320, Note_on_c, 0, 55, 57
2, 382320, Note_on_c, 0, 59, 56
2, 382483, Note_on_c, 0, 59, 0
2, 382483, Note_on_c, 0, 67, 0
2, 382483, Note_on_c, 0, 71, 0
2, 382483, Note_on_c, 0, 55, 0
2, 382860, Note_on_c, 0, 51, 57
2, 382860, Note_on_c, 0, 58, 58
2, 382860, Note_on_c, 0, 31, 57
2, 383023, Note_on_c, 0, 31, 0
2, 383023, Note_on_c, 0, 58, 0
2, 383023, Note_on_c, 0, 51, 0
2, 383220, Note_on_c, 0, 51, 59
2, 383220, Note_on_c, 0, 58, 56
2, 383220, Note_on_c, 0, 43, 56
2, 383383, Note_on_c, 0, 43, 0
2, 383383, Note_on_c, 0, 58, 0
2, 383383, Note_on_c, 0, 51, 0
2, 383400, Note_on_c, 0, 51, 67
2, 383400, Note_on_c, 0, 58, 66
2, 383400, Note_on_c, 0, 31, 48
2, 383563, Note_on_c, 0, 31, 0
2, 383563, Note_on_c, 0, 58, 0
2, 383563, Note_on_c, 0, 51, 0
2, 383760, Note_on_c, 0, 51, 59
2, 383760, Note_on_c, 0, 58, 58
2, 383760, Note_on_c, 0, 43, 60
2, 383923, Note_on_c, 0, 43, 0
2, 383923, Note_on_c, 0, 58, 0
2, 383923, Note_on_c, 0, 51, 0
2, 383940, Note_on_c, 0, 51, 66
2, 383940, Note_on_c, 0, 58, 69
2, 383940, Note_on_c, 0, 31, 47
2, 384103, Note_on_c, 0, 31, 0
2, 384103, Note_on_c, 0, 58, 0
2, 384103, Note_on_c, 0, 51, 0
2, 384300, Note_on_c, 0, 51, 59
2, 384300, Note_on_c, 0, 58, 59
2, 384300, Note_on_c, 0, 43, 58
2, 384463, Note_on_c, 0, 43, 0
2, 384463, Note_on_c, 0, 58, 0
2, 384463, Note_on_c, 0, 51, 0
2, 384480, Note_on_c, 0, 51, 65
2, 384480, Note_on_c, 0, 58, 65
2, 384480, Note_on_c, 0, 31, 48
2, 384643, Note_on_c, 0, 31, 0
2, 384643, Note_on_c, 0, 58, 0
2, 384643, Note_on_c, 0, 51, 0
2, 384840, Note_on_c, 0, 51, 60
2, 384840, Note_on_c, 0, 58, 59
2, 384840, Note_on_c, 0, 43, 60
2, 385003, Note_on_c, 0, 43, 0
2, 385003, Note_on_c, 0, 58, 0
2, 385003, Note_on_c, 0, 51, 0
2, 385020, Note_on_c, 0, 51, 68
2, 385020, Note_on_c, 0, 58, 67
2, 385020, Note_on_c, 0, 31, 47
2, 385183, Note_on_c, 0, 31, 0
2, 385183, Note_on_c, 0, 58, 0
2, 385183, Note_on_c, 0, 51, 0
2, 385380, Note_on_c, 0, 51, 58
2, 385380, Note_on_c, 0, 58, 57
2, 385380, Note_on_c, 0, 43, 58
2, 385543, Note_on_c, 0, 43, 0
2, 385543, Note_on_c, 0, 58, 0
2, 385543, Note_on_c, 0, 51, 0
2, 385560, Note_on_c, 0, 50, 67
2, 385560, Note_on_c, 0, 58, 69
2, 385560, Note_on_c, 0, 31, 48
2, 385723, Note_on_c, 0, 31, 0
2, 385723, Note_on_c, 0, 58, 0
2, 385723, Note_on_c, 0, 50, 0
2, 385920, Note_on_c, 0, 50, 58
2, 385920, Note_on_c, 0, 58, 59
2, 385920, Note_on_c, 0, 43, 59
2, 386083, Note_on_c, 0, 43, 0
2, 386083, Note_on_c, 0, 58, 0
2, 386083, Note_on_c, 0, 50, 0
2, 386100, Note_on_c, 0, 50, 66
2, 386100, Note_on_c, 0, 58, 68
2, 386100, Note_on_c, 0, 31, 48
2, 386263, Note_on_c, 0, 31, 0
2, 386263, Note_on_c, 0, 58, 0
2, 386263, Note_on_c, 0, 50, 0
2, 386460, Note_on_c, 0, 50, 57
2, 386460, Note_on_c, 0, 58, 59
2, 386460, Note_on_c, 0, 43, 59
2, 386623, Note_on_c, 0, 43, 0
2, 386623, Note_on_c, 0, 58, 0
2, 386623, Note_on_c, 0, 50, 0
2, 386640, Note_on_c, 0, 51, 65
2, 386640, Note_on_c, 0, 58, 67
2, 386640, Note_on_c, 0, 31, 49
2, 386803, Note_on_c, 0, 31, 0
2, 386803, Note_on_c, 0, 58, 0
2, 386803, Note_on_c, 0, 51, 0
2, 387180, Note_on_c, 0, 64, 62
2, 387180, Note_on_c, 0, 69, 59
2, 387180, Note_on_c, 0, 52, 61
2, 387180, Note_on_c, 0, 61, 63
2, 387423, Note_on_c, 0, 61, 0
2, 387423, Note_on_c, 0, 64, 0
2, 387423, Note_on_c, 0, 69, 0
2, 387423, Note_on_c, 0, 52, 0
2, 387450, Note_on_c, 0, 64, 69
2, 387450, Note_on_c, 0, 71, 67
2, 387450, Note_on_c, 0, 52, 68
2, 387450, Note_on_c, 0, 62, 67
2, 387693, Note_on_c, 0, 62, 0
2, 387693, Note_on_c, 0, 64, 0
2, 387693, Note_on_c, 0, 71, 0
2, 387693, Note_on_c, 0, 52, 0
2, 387720, Note_on_c, 0, 69, 73
2, 387720, Note_on_c, 0, 73, 74
2, 387720, Note_on_c, 0, 52, 72
2, 387720, Note_on_c, 0, 61, 74
2, 387720, Note_on_c, 0, 64, 71
2, 387854, Note_on_c, 0, 64, 0
2, 387854, Note_on_c, 0, 52, 0
2, 387854, Note_on_c, 0, 69, 0
2, 387854, Note_on_c, 0, 73, 0
2, 387854, Note_on_c, 0, 61, 0
2, 387990, Note_on_c, 0, 69, 66
2, 387990, Note_on_c, 0, 73, 66
2, 387990, Note_on_c, 0, 52, 64
2, 387990, Note_on_c, 0, 61, 66
2, 387990, Note_on_c, 0, 64, 68
2, 388124, Note_on_c, 0, 64, 0
2, 388124, Note_on_c, 0, 52, 0
2, 388124, Note_on_c, 0, 69, 0
2, 388124, Note_on_c, 0, 73, 0
2, 388124, Note_on_c, 0, 61, 0
2, 388260, Note_on_c, 0, 69, 70
2, 388260, Note_on_c, 0, 73, 68
2, 388260, Note_on_c, 0, 52, 67
2, 388260, Note_on_c, 0, 61, 68
2, 388260, Note_on_c, 0, 64, 68
2, 388394, Note_on_c, 0, 64, 0
2, 388394, Note_on_c, 0, 52, 0
2, 388394, Note_on_c, 0, 69, 0
2, 388394, Note_on_c, 0, 73, 0
2, 388394, Note_on_c, 0, 61, 0
2, 388530, Note_on_c, 0, 69, 69
2, 388530, Note_on_c, 0, 74, 67
2, 388530, Note_on_c, 0, 53, 68
2, 388530, Note_on_c, 0, 62, 68
2, 388530, Note_on_c, 0, 65, 71
2, 388664, Note_on_c, 0, 65, 0
2, 388664, Note_on_c, 0, 53, 0
2, 388664, Note_on_c, 0, 69, 0
2, 388664, Note_on_c, 0, 74, 0
2, 388664, Note_on_c, 0, 62, 0
2, 388800, Note_on_c, 0, 69, 67
2, 388800, Note_on_c, 0, 73, 66
2, 388800, Note_on_c, 0, 52, 66
2, 388800, Note_on_c, 0, 61, 66
2, 388800, Note_on_c, 0, 64, 68
2, 388934, Note_on_c, 0, 64, 0
2, 388934, Note_on_c, 0, 52, 0
2, 388934, Note_on_c, 0, 69, 0
2, 388934, Note_on_c, 0, 73, 0
2, 388934, Note_on_c, 0, 61, 0
2, 389070, Note_on_c, 0, 69, 67
2, 389070, Note_on_c, 0, 73, 65
2, 389070, Note_on_c, 0, 52, 64
2, 389070, Note_on_c, 0, 61, 65
2, 389070, Note_on_c, 0, 64, 64
2, 389204, Note_on_c, 0, 64, 0
2, 389204, Note_on_c, 0, 52, 0
2, 389204, Note_on_c, 0, 69, 0
2, 389204, Note_on_c, 0, 73, 0
2, 389204, Note_on_c, 0, 61, 0
2, 389340, Note_on_c, 0, 69, 69
2, 389340, Note_on_c, 0, 73, 70
2, 389340, Note_on_c, 0, 52, 70
2, 389340, Note_on_c, 0, 61, 68
2, 389340, Note_on_c, 0, 64, 69
2, 389474, Note_on_c, 0, 64, 0
2, 389474, Note_on_c, 0, 52, 0
2, 389474, Note_on_c, 0, 69, 0
2, 389474, Note_on_c, 0, 73, 0
2, 389474, Note_on_c, 0, 61, 0
2, 389610, Note_on_c, 0, 64, 56
2, 389610, Note_on_c, 0, 69, 58
2, 389610, Note_on_c, 0, 52, 60
2, 389610, Note_on_c, 0, 57, 59
2, 389610, Note_on_c, 0, 61, 59
2, 389744, Note_on_c, 0, 61, 0
2, 389744, Note_on_c, 0, 52, 0
2, 389744, Note_on_c, 0, 64, 0
2, 389744, Note_on_c, 0, 69, 0
2, 389744, Note_on_c, 0, 57, 0
2, 389880, Note_on_c, 0, 67, 71
2, 389880, Note_on_c, 0, 70, 70
2, 389880, Note_on_c, 0, 52, 72
2, 389880, Note_on_c, 0, 58, 69
2, 389880, Note_on_c, 0, 62, 72
2, 390014, Note_on_c, 0, 62, 0
2, 390014, Note_on_c, 0, 52, 0
2, 390014, Note_on_c, 0, 67, 0
2, 390014, Note_on_c, 0, 70, 0
2, 390014, Note_on_c, 0, 58, 0
2, 390150, Note_on_c, 0, 67, 67
2, 390150, Note_on_c, 0, 70, 66
2, 390150, Note_on_c, 0, 52, 65
2, 390150, Note_on_c, 0, 58, 66
2, 390150, Note_on_c, 0, 62, 65
2, 390284, Note_on_c, 0, 62, 0
2, 390284, Note_on_c, 0, 52, 0
2, 390284, Note_on_c, 0, 67, 0
2, 390284, Note_on_c, 0, 70, 0
2, 390284, Note_on_c, 0, 58, 0
2, 390420, Note_on_c, 0, 67, 70
2, 390420, Note_on_c, 0, 70, 70
2, 390420, Note_on_c, 0, 52, 69
2, 390420, Note_on_c, 0, 58, 71
2, 390420, Note_on_c, 0, 62, 71
2, 390554, Note_on_c, 0, 62, 0
2, 390554, Note_on_c, 0, 52, 0
2, 390554, Note_on_c, 0, 67, 0
2, 390554, Note_on_c, 0, 70, 0
2, 390554, Note_on_c, 0, 58, 0
2, 390690, Note_on_c, 0, 62, 60
2, 390690, Note_on_c, 0, 67, 58
2, 390690, Note_on_c, 0, 52, 57
2, 390690, Note_on_c, 0, 55, 58
2, 390690, Note_on_c, 0, 58, 56
2, 390824, Note_on_c, 0, 58, 0
2, 390824, Note_on_c, 0, 52, 0
2, 390824, Note_on_c, 0, 62, 0
2, 390824, Note_on_c, 0, 67, 0
2, 390824, Note_on_c, 0, 55, 0
2, 390960, Note_on_c, 0, 64, 70
2, 390960, Note_on_c, 0, 69, 73
2, 390960, Note_on_c, 0, 52, 73
2, 390960, Note_on_c, 0, 57, 72
2, 390960, Note_on_c, 0, 61, 73
2, 391123, Note_on_c, 0, 61, 0
2, 391123, Note_on_c, 0, 52, 0
2, 391123, Note_on_c, 0, 64, 0
2, 391123, Note_on_c, 0, 69, 0
2, 391123, Note_on_c, 0, 57, 0
2, 391500, Note_on_c, 0, 70, 59
2, 391500, Note_on_c, 0, 77, 61
2, 391500, Note_on_c, 0, 82, 61
2, 391500, Note_on_c, 0, 50, 62
2, 391500, Note_on_c, 0, 53, 60
2, 391500, Note_on_c, 0, 58, 62
2, 391743, Note_on_c, 0, 58, 0
2, 391743, Note_on_c, 0, 77, 0
2, 391743, Note_on_c, 0, 82, 0
2, 391743, Note_on_c, 0, 70, 0
2, 391743, Note_on_c, 0, 53, 0
2, 391743, Note_on_c, 0, 50, 0
2, 391770, Note_on_c, 0, 70, 64
2, 391770, Note_on_c, 0, 77, 65
2, 391770, Note_on_c, 0, 82, 64
2, 391770, Note_on_c, 0, 50, 63
2, 391770, Note_on_c, 0, 53, 66
2, 391770, Note_on_c, 0, 58, 63
2, 392013, Note_on_c, 0, 58, 0
2, 392013, Note_on_c, 0, 77, 0
2, 392013, Note_on_c, 0, 82, 0
2, 392013, Note_on_c, 0, 70, 0
2, 392013, Note_on_c, 0, 53, 0
2, 392013, Note_on_c, 0, 50, 0
2, 392040, Note_on_c, 0, 72, 74
2, 392040, Note_on_c, 0, 77, 73
2, 392040, Note_on_c, 0, 84, 72
2, 392040, Note_on_c, 0, 50, 75
2, 392040, Note_on_c, 0, 53, 73
2, 392040, Note_on_c, 0, 60, 74
2, 392283, Note_on_c, 0, 60, 0
2, 392283, Note_on_c, 0, 77, 0
2, 392283, Note_on_c, 0, 84, 0
2, 392283, Note_on_c, 0, 72, 0
2, 392283, Note_on_c, 0, 53, 0
2, 392283, Note_on_c, 0, 50, 0
2, 392310, Note_on_c, 0, 72, 65
2, 392310, Note_on_c, 0, 77, 65
2, 392310, Note_on_c, 0, 84, 65
2, 392310, Note_on_c, 0, 50, 66
2, 392310, Note_on_c, 0, 53, 67
2, 392310, Note_on_c, 0, 60, 68
2, 392553, Note_on_c, 0, 60, 0
2, 392553, Note_on_c, 0, 77, 0
2, 392553, Note_on_c, 0, 84, 0
2, 392553, Note_on_c, 0, 72, 0
2, 392553, Note_on_c, 0, 53, 0
2, 392553, Note_on_c, 0, 50, 0
2, 392580, Note_on_c, 0, 74, 74
2, 392580, Note_on_c, 0, 77, 73
2, 392580, Note_on_c, 0, 86, 73
2, 392580, Note_on_c, 0, 50, 73
2, 392580, Note_on_c, 0, 53, 72
2, 392580, Note_on_c, 0, 62, 74
2, 392823, Note_on_c, 0, 62, 0
2, 392823, Note_on_c, 0, 77, 0
2, 392823, Note_on_c, 0, 86, 0
2, 392823, Note_on_c, 0, 74, 0
2, 392823, Note_on_c, 0, 53, 0
2, 392823, Note_on_c, 0, 50, 0
2, 392850, Note_on_c, 0, 74, 67
2, 392850, Note_on_c, 0, 77, 68
2, 392850, Note_on_c, 0, 86, 66
2, 392850, Note_on_c, 0, 50, 68
2, 392850, Note_on_c, 0, 53, 66
2, 392850, Note_on_c, 0, 62, 67
2, 393093, Note_on_c, 0, 62, 0
2, 393093, Note_on_c, 0, 77, 0
2, 393093, Note_on_c, 0, 86, 0
2, 393093, Note_on_c, 0, 74, 0
2, 393093, Note_on_c, 0, 53, 0
2, 393093, Note_on_c, 0, 50, 0
2, 393120, Note_on_c, 0, 70, 60
2, 393120, Note_on_c, 0, 77, 59
2, 393120, Note_on_c, 0, 82, 61
2, 393120, Note_on_c, 0, 50, 62
2, 393120, Note_on_c, 0, 53, 60
2, 393120, Note_on_c, 0, 58, 60
2, 393363, Note_on_c, 0, 58, 0
2, 393363, Note_on_c, 0, 77, 0
2, 393363, Note_on_c, 0, 82, 0
2, 393363, Note_on_c, 0, 70, 0
2, 393363, Note_on_c, 0, 53, 0
2, 393363, Note_on_c, 0, 50, 0
2, 393390, Note_on_c, 0, 70, 66
2, 393390, Note_on_c, 0, 77, 63
2, 393390, Note_on_c, 0, 82, 64
2, 393390, Note_on_c, 0, 50, 66
2, 393390, Note_on_c, 0, 53, 63
2, 393390, Note_on_c, 0, 58, 64
2, 393633, Note_on_c, 0, 58, 0
2, 393633, Note_on_c, 0, 77, 0
2, 393633, Note_on_c, 0, 82, 0
2, 393633, Note_on_c, 0, 70, 0
2, 393633, Note_on_c, 0, 53, 0
2, 393633, Note_on_c, 0, 50, 0
2, 393660, Note_on_c, 0, 71, 71
2, 393660, Note_on_c, 0, 77, 73
2, 393660, Note_on_c, 0, 83, 70
2, 393660, Note_on_c, 0, 50, 71
2, 393660, Note_on_c, 0, 53, 71
2, 393660, Note_on_c, 0, 59, 70
2, 393903, Note_on_c, 0, 59, 0
2, 393903, Note_on_c, 0, 77, 0
2, 393903, Note_on_c, 0, 83, 0
2, 393903, Note_on_c, 0, 71, 0
2, 393903, Note_on_c, 0, 53, 0
2, 393903, Note_on_c, 0, 50, 0
2, 393930, Note_on_c, 0, 71, 67
2, 393930, Note_on_c, 0, 77, 65
2, 393930, Note_on_c, 0, 83, 66
2, 393930, Note_on_c, 0, 50, 66
2, 393930, Note_on_c, 0, 53, 68
2, 393930, Note_on_c, 0, 59, 67
2, 394173, Note_on_c, 0, 59, 0
2, 394173, Note_on_c, 0, 77, 0
2, 394173, Note_on_c, 0, 83, 0
2, 394173, Note_on_c, 0, 71, 0
2, 394173, Note_on_c, 0, 53, 0
2, 394173, Note_on_c, 0, 50, 0
2, 394200, Note_on_c, 0, 72, 72
2, 394200, Note_on_c, 0, 77, 73
2, 394200, Note_on_c, 0, 84, 70
2, 394200, Note_on_c, 0, 50, 70
2, 394200, Note_on_c, 0, 53, 71
2, 394200, Note_on_c, 0, 60, 72
2, 394443, Note_on_c, 0, 60, 0
2, 394443, Note_on_c, 0, 77, 0
2, 394443, Note_on_c, 0, 84, 0
2, 394443, Note_on_c, 0, 72, 0
2, 394443, Note_on_c, 0, 53, 0
2, 394443, Note_on_c, 0, 50, 0
2, 394470, Note_on_c, 0, 72, 65
2, 394470, Note_on_c, 0, 77, 67
2, 394470, Note_on_c, 0, 84, 67
2, 394470, Note_on_c, 0, 50, 67
2, 394470, Note_on_c, 0, 53, 66
2, 394470, Note_on_c, 0, 60, 65
2, 394713, Note_on_c, 0, 60, 0
2, 394713, Note_on_c, 0, 77, 0
2, 394713, Note_on_c, 0, 84, 0
2, 394713, Note_on_c, 0, 72, 0
2, 394713, Note_on_c, 0, 53, 0
2, 394713, Note_on_c, 0, 50, 0
2, 394740, Note_on_c, 0, 74, 71
2, 394740, Note_on_c, 0, 77, 73
2, 394740, Note_on_c, 0, 86, 74
2, 394740, Note_on_c, 0, 50, 73
2, 394740, Note_on_c, 0, 53, 73
2, 394740, Note_on_c, 0, 62, 74
2, 394983, Note_on_c, 0, 62, 0
2, 394983, Note_on_c, 0, 77, 0
2, 394983, Note_on_c, 0, 86, 0
2, 394983, Note_on_c, 0, 74, 0
2, 394983, Note_on_c, 0, 53, 0
2, 394983, Note_on_c, 0, 50, 0
2, 395010, Note_on_c, 0, 74, 65
2, 395010, Note_on_c, 0, 77, 66
2, 395010, Note_on_c, 0, 86, 65
2, 395010, Note_on_c, 0, 50, 68
2, 395010, Note_on_c, 0, 53, 65
2, 395010, Note_on_c, 0, 62, 68
2, 395253, Note_on_c, 0, 62, 0
2, 395253, Note_on_c, 0, 77, 0
2, 395253, Note_on_c, 0, 86, 0
2, 395253, Note_on_c, 0, 74, 0
2, 395253, Note_on_c, 0, 53, 0
2, 395253, Note_on_c, 0, 50, 0
2, 395280, Note_on_c, 0, 72, 64
2, 395280, Note_on_c, 0, 76, 66
2, 395280, Note_on_c, 0, 84, 65
2, 395280, Note_on_c, 0, 52, 63
2, 395280, Note_on_c, 0, 58, 62
2, 395280, Note_on_c, 0, 60, 65
2, 395443, Note_on_c, 0, 60, 0
2, 395443, Note_on_c, 0, 76, 0
2, 395443, Note_on_c, 0, 84, 0
2, 395443, Note_on_c, 0, 72, 0
2, 395443, Note_on_c, 0, 58, 0
2, 395443, Note_on_c, 0, 52, 0
2, 395820, Note_on_c, 0, 72, 60
2, 395820, Note_on_c, 0, 82, 62
2, 395820, Note_on_c, 0, 84, 61
2, 395820, Note_on_c, 0, 52, 62
2, 395820, Note_on_c, 0, 58, 62
2, 395820, Note_on_c, 0, 60, 60
2, 396063, Note_on_c, 0, 60, 0
2, 396063, Note_on_c, 0, 82, 0
2, 396063, Note_on_c, 0, 84, 0
2, 396063, Note_on_c, 0, 72, 0
2, 396063, Note_on_c, 0, 58, 0
2, 396063, Note_on_c, 0, 52, 0
2, 396090, Note_on_c, 0, 72, 64
2, 396090, Note_on_c, 0, 82, 65
2, 396090, Note_on_c, 0, 84, 62
2, 396090, Note_on_c, 0, 52, 62
2, 396090, Note_on_c, 0, 58, 62
2, 396090, Note_on_c, 0, 60, 63
2, 396333, Note_on_c, 0, 60, 0
2, 396333, Note_on_c, 0, 82, 0
2, 396333, Note_on_c, 0, 84, 0
2, 396333, Note_on_c, 0, 72, 0
2, 396333, Note_on_c, 0, 58, 0
2, 396333, Note_on_c, 0, 52, 0
2, 396360, Note_on_c, 0, 74, 71
2, 396360, Note_on_c, 0, 82, 75
2, 396360, Note_on_c, 0, 86, 75
2, 396360, Note_on_c, 0, 52, 72
2, 396360, Note_on_c, 0, 58, 73
2, 396360, Note_on_c, 0, 62, 71
2, 396603, Note_on_c, 0, 62, 0
2, 396603, Note_on_c, 0, 82, 0
2, 396603, Note_on_c, 0, 86, 0
2, 396603, Note_on_c, 0, 74, 0
2, 396603, Note_on_c, 0, 58, 0
2, 396603, Note_on_c, 0, 52, 0
2, 396630, Note_on_c, 0, 74, 67
2, 396630, Note_on_c, 0, 82, 66
2, 396630, Note_on_c, 0, 86, 68
2, 396630, Note_on_c, 0, 52, 68
2, 396630, Note_on_c, 0, 58, 66
2, 396630, Note_on_c, 0, 62, 65
2, 396873, Note_on_c, 0, 62, 0
2, 396873, Note_on_c, 0, 82, 0
2, 396873, Note_on_c, 0, 86, 0
2, 396873, Note_on_c, 0, 74, 0
2, 396873, Note_on_c, 0, 58, 0
2, 396873, Note_on_c, 0, 52, 0
2, 396900, Note_on_c, 0, 76, 72
2, 396900, Note_on_c, 0, 82, 72
2, 396900, Note_on_c, 0, 88, 74
2, 396900, Note_on_c, 0, 52, 75
2, 396900, Note_on_c, 0, 58, 74
2, 396900, Note_on_c, 0, 64, 73
2, 397143, Note_on_c, 0, 64, 0
2, 397143, Note_on_c, 0, 82, 0
2, 397143, Note_on_c, 0, 88, 0
2, 397143, Note_on_c, 0, 76, 0
2, 397143, Note_on_c, 0, 58, 0
2, 397143, Note_on_c, 0, 52, 0
2, 397170, Note_on_c, 0, 76, 66
2, 397170, Note_on_c, 0, 82, 64
2, 397170, Note_on_c, 0, 88, 65
2, 397170, Note_on_c, 0, 52, 65
2, 397170, Note_on_c, 0, 58, 65
2, 397170, Note_on_c, 0, 64, 67
2, 397413, Note_on_c, 0, 64, 0
2, 397413, Note_on_c, 0, 82, 0
2, 397413, Note_on_c, 0, 88, 0
2, 397413, Note_on_c, 0, 76, 0
2, 397413, Note_on_c, 0, 58, 0
2, 397413, Note_on_c, 0, 52, 0
2, 397440, Note_on_c, 0, 72, 60
2, 397440, Note_on_c, 0, 82, 60
2, 397440, Note_on_c, 0, 84, 61
2, 397440, Note_on_c, 0, 52, 60
2, 397440, Note_on_c, 0, 58, 60
2, 397440, Note_on_c, 0, 60, 59
2, 397683, Note_on_c, 0, 60, 0
2, 397683, Note_on_c, 0, 82, 0
2, 397683, Note_on_c, 0, 84, 0
2, 397683, Note_on_c, 0, 72, 0
2, 397683, Note_on_c, 0, 58, 0
2, 397683, Note_on_c, 0, 52, 0
2, 397710, Note_on_c, 0, 72, 64
2, 397710, Note_on_c, 0, 82, 63
2, 397710, Note_on_c, 0, 84, 65
2, 397710, Note_on_c, 0, 52, 64
2, 397710, Note_on_c, 0, 58, 66
2, 397710, Note_on_c, 0, 60, 64
2, 397953, Note_on_c, 0, 60, 0
2, 397953, Note_on_c, 0, 82, 0
2, 397953, Note_on_c, 0, 84, 0
2, 397953, Note_on_c, 0, 72, 0
2, 397953, Note_on_c, 0, 58, 0
2, 397953, Note_on_c, 0, 52, 0
2, 397980, Note_on_c, 0, 73, 72
2, 397980, Note_on_c, 0, 82, 72
2, 397980, Note_on_c, 0, 85, 72
2, 397980, Note_on_c, 0, 52, 73
2, 397980, Note_on_c, 0, 58, 72
2, 397980, Note_on_c, 0, 61, 72
2, 398223, Note_on_c, 0, 61, 0
2, 398223, Note_on_c, 0, 82, 0
2, 398223, Note_on_c, 0, 85, 0
2, 398223, Note_on_c, 0, 73, 0
2, 398223, Note_on_c, 0, 58, 0
2, 398223, Note_on_c, 0, 52, 0
2, 398250, Note_on_c, 0, 73, 66
2, 398250, Note_on_c, 0, 82, 67
2, 398250, Note_on_c, 0, 85, 64
2, 398250, Note_on_c, 0, 52, 66
2, 398250, Note_on_c, 0, 58, 65
2, 398250, Note_on_c, 0, 61, 66
2, 398493, Note_on_c, 0, 61, 0
2, 398493, Note_on_c, 0, 82, 0
2, 398493, Note_on_c, 0, 85, 0
2, 398493, Note_on_c, 0, 73, 0
2, 398493, Note_on_c, 0, 58, 0
2, 398493, Note_on_c, 0, 52, 0
2, 398520, Note_on_c, 0, 74, 73
2, 398520, Note_on_c, 0, 81, 71
2, 398520, Note_on_c, 0, 86, 73
2, 398520, Note_on_c, 0, 52, 73
2, 398520, Note_on_c, 0, 57, 73
2, 398520, Note_on_c, 0, 62, 72
2, 398763, Note_on_c, 0, 62, 0
2, 398763, Note_on_c, 0, 81, 0
2, 398763, Note_on_c, 0, 86, 0
2, 398763, Note_on_c, 0, 74, 0
2, 398763, Note_on_c, 0, 57, 0
2, 398763, Note_on_c, 0, 52, 0
2, 398790, Note_on_c, 0, 74, 65
2, 398790, Note_on_c, 0, 81, 67
2, 398790, Note_on_c, 0, 86, 67
2, 398790, Note_on_c, 0, 52, 66
2, 398790, Note_on_c, 0, 57, 68
2, 398790, Note_on_c, 0, 62, 64
2, 399033, Note_on_c, 0, 62, 0
2, 399033, Note_on_c, 0, 81, 0
2, 399033, Note_on_c, 0, 86, 0
2, 399033, Note_on_c, 0, 74, 0
2, 399033, Note_on_c, 0, 57, 0
2, 399033, Note_on_c, 0, 52, 0
2, 399060, Note_on_c, 0, 76, 72
2, 399060, Note_on_c, 0, 81, 75
2, 399060, Note_on_c, 0, 85, 74
2, 399060, Note_on_c, 0, 88, 74
2, 399060, Note_on_c, 0, 52, 73
2, 399060, Note_on_c, 0, 57, 72
2, 399060, Note_on_c, 0, 61, 73
2, 399060, Note_on_c, 0, 64, 75
2, 399303, Note_on_c, 0, 64, 0
2, 399303, Note_on_c, 0, 76, 0
2, 399303, Note_on_c, 0, 52, 0
2, 399303, Note_on_c, 0, 81, 0
2, 399303, Note_on_c, 0, 85, 0
2, 399303, Note_on_c, 0, 88, 0
2, 399303, Note_on_c, 0, 57, 0
2, 399303, Note_on_c, 0, 61, 0
2, 399330, Note_on_c, 0, 76, 65
2, 399330, Note_on_c, 0, 81, 66
2, 399330, Note_on_c, 0, 85, 68
2, 399330, Note_on_c, 0, 88, 66
2, 399330, Note_on_c, 0, 52, 65
2, 399330, Note_on_c, 0, 57, 65
2, 399330, Note_on_c, 0, 61, 67
2, 399330, Note_on_c, 0, 64, 66
2, 399573, Note_on_c, 0, 64, 0
2, 399573, Note_on_c, 0, 76, 0
2, 399573, Note_on_c, 0, 52, 0
2, 399573, Note_on_c, 0, 81, 0
2, 399573, Note_on_c, 0, 85, 0
2, 399573, Note_on_c, 0, 88, 0
2, 399573, Note_on_c, 0, 57, 0
2, 399573, Note_on_c, 0, 61, 0
2, 399600, Note_on_c, 0, 74, 65
2, 399600, Note_on_c, 0, 81, 62
2, 399600, Note_on_c, 0, 86, 66
2, 399600, Note_on_c, 0, 54, 62
2, 399600, Note_on_c, 0, 57, 66
2, 399600, Note_on_c, 0, 62, 62
2, 399763, Note_on_c, 0, 62, 0
2, 399763, Note_on_c, 0, 81, 0
2, 399763, Note_on_c, 0, 86, 0
2, 399763, Note_on_c, 0, 74, 0
2, 399763, Note_on_c, 0, 57, 0
2, 399763, Note_on_c, 0, 54, 0
2, 400140, Note_on_c, 0, 74, 61
2, 400140, Note_on_c, 0, 81, 59
2, 400140, Note_on_c, 0, 86, 61
2, 400140, Note_on_c, 0, 54, 61
2, 400140, Note_on_c, 0, 57, 61
2, 400140, Note_on_c, 0, 62, 62
2, 400383, Note_on_c, 0, 62, 0
2, 400383, Note_on_c, 0, 81, 0
2, 400383, Note_on_c, 0, 86, 0
2, 400383, Note_on_c, 0, 74, 0
2, 400383, Note_on_c, 0, 57, 0
2, 400383, Note_on_c, 0, 54, 0
2, 400410, Note_on_c, 0, 74, 63
2, 400410, Note_on_c, 0, 81, 62
2, 400410, Note_on_c, 0, 86, 65
2, 400410, Note_on_c, 0, 54, 62
2, 400410, Note_on_c, 0, 57, 63
2, 400410, Note_on_c, 0, 62, 63
2, 400653, Note_on_c, 0, 62, 0
2, 400653, Note_on_c, 0, 81, 0
2, 400653, Note_on_c, 0, 86, 0
2, 400653, Note_on_c, 0, 74, 0
2, 400653, Note_on_c, 0, 57, 0
2, 400653, Note_on_c, 0, 54, 0
2, 400680, Note_on_c, 0, 76, 75
2, 400680, Note_on_c, 0, 81, 75
2, 400680, Note_on_c, 0, 88, 73
2, 400680, Note_on_c, 0, 54, 75
2, 400680, Note_on_c, 0, 57, 74
2, 400680, Note_on_c, 0, 64, 72
2, 400923, Note_on_c, 0, 64, 0
2, 400923, Note_on_c, 0, 81, 0
2, 400923, Note_on_c, 0, 88, 0
2, 400923, Note_on_c, 0, 76, 0
2, 400923, Note_on_c, 0, 57, 0
2, 400923, Note_on_c, 0, 54, 0
2, 400950, Note_on_c, 0, 76, 65
2, 400950, Note_on_c, 0, 81, 64
2, 400950, Note_on_c, 0, 88, 67
2, 400950, Note_on_c, 0, 54, 65
2, 400950, Note_on_c, 0, 57, 64
2, 400950, Note_on_c, 0, 64, 65
2, 401193, Note_on_c, 0, 64, 0
2, 401193, Note_on_c, 0, 81, 0
2, 401193, Note_on_c, 0, 88, 0
2, 401193, Note_on_c, 0, 76, 0
2, 401193, Note_on_c, 0, 57, 0
2, 401193, Note_on_c, 0, 54, 0
2, 401220, Note_on_c, 0, 78, 73
2, 401220, Note_on_c, 0, 81, 71
2, 401220, Note_on_c, 0, 90, 74
2, 401220, Note_on_c, 0, 54, 74
2, 401220, Note_on_c, 0, 57, 71
2, 401220, Note_on_c, 0, 66, 72
2, 401463, Note_on_c, 0, 66, 0
2, 401463, Note_on_c, 0, 81, 0
2, 401463, Note_on_c, 0, 90, 0
2, 401463, Note_on_c, 0, 78, 0
2, 401463, Note_on_c, 0, 57, 0
2, 401463, Note_on_c, 0, 54, 0
2, 401490, Note_on_c, 0, 78, 67
2, 401490, Note_on_c, 0, 81, 66
2, 401490, Note_on_c, 0, 90, 68
2, 401490, Note_on_c, 0, 54, 67
2, 401490, Note_on_c, 0, 57, 67
2, 401490, Note_on_c, 0, 66, 64
2, 401733, Note_on_c, 0, 66, 0
2, 401733, Note_on_c, 0, 81, 0
2, 401733, Note_on_c, 0, 90, 0
2, 401733, Note_on_c, 0, 78, 0
2, 401733, Note_on_c, 0, 57, 0
2, 401733, Note_on_c, 0, 54, 0
2, 401760, Note_on_c, 0, 74, 59
2, 401760, Note_on_c, 0, 81, 62
2, 401760, Note_on_c, 0, 86, 60
2, 401760, Note_on_c, 0, 54, 59
2, 401760, Note_on_c, 0, 57, 58
2, 401760, Note_on_c, 0, 62, 59
2, 402003, Note_on_c, 0, 62, 0
2, 402003, Note_on_c, 0, 81, 0
2, 402003, Note_on_c, 0, 86, 0
2, 402003, Note_on_c, 0, 74, 0
2, 402003, Note_on_c, 0, 57, 0
2, 402003, Note_on_c, 0, 54, 0
2, 402030, Note_on_c, 0, 74, 64
2, 402030, Note_on_c, 0, 81, 63
2, 402030, Note_on_c, 0, 86, 66
2, 402030, Note_on_c, 0, 54, 63
2, 402030, Note_on_c, 0, 57, 64
2, 402030, Note_on_c, 0, 62, 66
2, 402273, Note_on_c, 0, 62, 0
2, 402273, Note_on_c, 0, 81, 0
2, 402273, Note_on_c, 0, 86, 0
2, 402273, Note_on_c, 0, 74, 0
2, 402273, Note_on_c, 0, 57, 0
2, 402273, Note_on_c, 0, 54, 0
2, 402300, Note_on_c, 0, 75, 71
2, 402300, Note_on_c, 0, 82, 73
2, 402300, Note_on_c, 0, 87, 71
2, 402300, Note_on_c, 0, 54, 73
2, 402300, Note_on_c, 0, 58, 72
2, 402300, Note_on_c, 0, 63, 73
2, 402543, Note_on_c, 0, 63, 0
2, 402543, Note_on_c, 0, 82, 0
2, 402543, Note_on_c, 0, 87, 0
2, 402543, Note_on_c, 0, 75, 0
2, 402543, Note_on_c, 0, 58, 0
2, 402543, Note_on_c, 0, 54, 0
2, 402570, Note_on_c, 0, 75, 65
2, 402570, Note_on_c, 0, 82, 65
2, 402570, Note_on_c, 0, 87, 66
2, 402570, Note_on_c, 0, 54, 67
2, 402570, Note_on_c, 0, 58, 68
2, 402570, Note_on_c, 0, 63, 67
2, 402813, Note_on_c, 0, 63, 0
2, 402813, Note_on_c, 0, 82, 0
2, 402813, Note_on_c, 0, 87, 0
2, 402813, Note_on_c, 0, 75, 0
2, 402813, Note_on_c, 0, 58, 0
2, 402813, Note_on_c, 0, 54, 0
2, 402840, Note_on_c, 0, 77, 73
2, 402840, Note_on_c, 0, 82, 73
2, 402840, Note_on_c, 0, 87, 74
2, 402840, Note_on_c, 0, 89, 73
2, 402840, Note_on_c, 0, 54, 73
2, 402840, Note_on_c, 0, 58, 74
2, 402840, Note_on_c, 0, 63, 74
2, 402840, Note_on_c, 0, 65, 73
2, 403083, Note_on_c, 0, 65, 0
2, 403083, Note_on_c, 0, 77, 0
2, 403083, Note_on_c, 0, 54, 0
2, 403083, Note_on_c, 0, 82, 0
2, 403083, Note_on_c, 0, 87, 0
2, 403083, Note_on_c, 0, 89, 0
2, 403083, Note_on_c, 0, 58, 0
2, 403083, Note_on_c, 0, 63, 0
2, 403110, Note_on_c, 0, 77, 68
2, 403110, Note_on_c, 0, 82, 68
2, 403110, Note_on_c, 0, 87, 66
2, 403110, Note_on_c, 0, 89, 67
2, 403110, Note_on_c, 0, 54, 66
2, 403110, Note_on_c, 0, 58, 64
2, 403110, Note_on_c, 0, 63, 67
2, 403110, Note_on_c, 0, 65, 67
2, 403353, Note_on_c, 0, 65, 0
2, 403353, Note_on_c, 0, 77, 0
2, 403353, Note_on_c, 0, 54, 0
2, 403353, Note_on_c, 0, 82, 0
2, 403353, Note_on_c, 0, 87, 0
2, 403353, Note_on_c, 0, 89, 0
2, 403353, Note_on_c, 0, 58, 0
2, 403353, Note_on_c, 0, 63, 0
2, 403380, Note_on_c, 0, 78, 72
2, 403380, Note_on_c, 0, 82, 72
2, 403380, Note_on_c, 0, 87, 71
2, 403380, Note_on_c, 0, 90, 73
2, 403380, Note_on_c, 0, 54, 71
2, 403380, Note_on_c, 0, 58, 72
2, 403380, Note_on_c, 0, 63, 71
2, 403380, Note_on_c, 0, 66, 74
2, 403623, Note_on_c, 0, 66, 0
2, 403623, Note_on_c, 0, 78, 0
2, 403623, Note_on_c, 0, 54, 0
2, 403623, Note_on_c, 0, 82, 0
2, 403623, Note_on_c, 0, 87, 0
2, 403623, Note_on_c, 0, 90, 0
2, 403623, Note_on_c, 0, 58, 0
2, 403623, Note_on_c, 0, 63, 0
2, 403650, Note_on_c, 0, 78, 66
2, 403650, Note_on_c, 0, 82, 66
2, 403650, Note_on_c, 0, 87, 67
2, 403650, Note_on_c, 0, 90, 66
2, 403650, Note_on_c, 0, 54, 67
2, 403650, Note_on_c, 0, 58, 67
2, 403650, Note_on_c, 0, 63, 67
2, 403650, Note_on_c, 0, 66, 67
2, 403893, Note_on_c, 0, 66, 0
2, 403893, Note_on_c, 0, 78, 0
2, 403893, Note_on_c, 0, 54, 0
2, 403893, Note_on_c, 0, 82, 0
2, 403893, Note_on_c, 0, 87, 0
2, 403893, Note_on_c, 0, 90, 0
2, 403893, Note_on_c, 0, 58, 0
2, 403893, Note_on_c, 0, 63, 0
2, 403920, Note_on_c, 0, 75, 63
2, 403920, Note_on_c, 0, 82, 62
2, 403920, Note_on_c, 0, 87, 61
2, 403920, Note_on_c, 0, 54, 62
2, 403920, Note_on_c, 0, 58, 61
2, 403920, Note_on_c, 0, 63, 60
2, 404163, Note_on_c, 0, 63, 0
2, 404163, Note_on_c, 0, 82, 0
2, 404163, Note_on_c, 0, 87, 0
2, 404163, Note_on_c, 0, 75, 0
2, 404163, Note_on_c, 0, 58, 0
2, 404163, Note_on_c, 0, 54, 0
2, 404190, Note_on_c, 0, 75, 63
2, 404190, Note_on_c, 0, 82, 63
2, 404190, Note_on_c, 0, 87, 63
2, 404190, Note_on_c, 0, 54, 63
2, 404190, Note_on_c, 0, 58, 64
2, 404190, Note_on_c, 0, 63, 63
2, 404433, Note_on_c, 0, 63, 0
2, 404433, Note_on_c, 0, 82, 0
2, 404433, Note_on_c, 0, 87, 0
2, 404433, Note_on_c, 0, 75, 0
2, 404433, Note_on_c, 0, 58, 0
2, 404433, Note_on_c, 0, 54, 0
2, 404460, Note_on_c, 0, 75, 69
2, 404460, Note_on_c, 0, 84, 68
2, 404460, Note_on_c, 0, 87, 68
2, 404460, Note_on_c, 0, 54, 67
2, 404460, Note_on_c, 0, 60, 68
2, 404460, Note_on_c, 0, 63, 67
2, 404703, Note_on_c, 0, 63, 0
2, 404703, Note_on_c, 0, 84, 0
2, 404703, Note_on_c, 0, 87, 0
2, 404703, Note_on_c, 0, 75, 0
2, 404703, Note_on_c, 0, 60, 0
2, 404703, Note_on_c, 0, 54, 0
2, 404730, Note_on_c, 0, 75, 64
2, 404730, Note_on_c, 0, 84, 66
2, 404730, Note_on_c, 0, 87, 66
2, 404730, Note_on_c, 0, 54, 67
2, 404730, Note_on_c, 0, 60, 66
2, 404730, Note_on_c, 0, 63, 66
2, 404973, Note_on_c, 0, 63, 0
2, 404973, Note_on_c, 0, 84, 0
2, 404973, Note_on_c, 0, 87, 0
2, 404973, Note_on_c, 0, 75, 0
2, 404973, Note_on_c, 0, 60, 0
2, 404973, Note_on_c, 0, 54, 0
2, 405000, Note_on_c, 0, 77, 73
2, 405000, Note_on_c, 0, 84, 72
2, 405000, Note_on_c, 0, 87, 73
2, 405000, Note_on_c, 0, 89, 72
2, 405000, Note_on_c, 0, 54, 75
2, 405000, Note_on_c, 0, 60, 73
2, 405000, Note_on_c, 0, 63, 73
2, 405000, Note_on_c, 0, 65, 74
2, 405243, Note_on_c, 0, 65, 0
2, 405243, Note_on_c, 0, 77, 0
2, 405243, Note_on_c, 0, 54, 0
2, 405243, Note_on_c, 0, 84, 0
2, 405243, Note_on_c, 0, 87, 0
2, 405243, Note_on_c, 0, 89, 0
2, 405243, Note_on_c, 0, 60, 0
2, 405243, Note_on_c, 0, 63, 0
2, 405270, Note_on_c, 0, 77, 64
2, 405270, Note_on_c, 0, 84, 67
2, 405270, Note_on_c, 0, 87, 67
2, 405270, Note_on_c, 0, 89, 66
2, 405270, Note_on_c, 0, 54, 66
2, 405270, Note_on_c, 0, 60, 66
2, 405270, Note_on_c, 0, 63, 64
2, 405270, Note_on_c, 0, 65, 68
2, 405513, Note_on_c, 0, 65, 0
2, 405513, Note_on_c, 0, 77, 0
2, 405513, Note_on_c, 0, 54, 0
2, 405513, Note_on_c, 0, 84, 0
2, 405513, Note_on_c, 0, 87, 0
2, 405513, Note_on_c, 0, 89, 0
2, 405513, Note_on_c, 0, 60, 0
2, 405513, Note_on_c, 0, 63, 0
2, 405540, Note_on_c, 0, 78, 71
2, 405540, Note_on_c, 0, 84, 73
2, 405540, Note_on_c, 0, 87, 73
2, 405540, Note_on_c, 0, 90, 70
2, 405540, Note_on_c, 0, 54, 73
2, 405540, Note_on_c, 0, 60, 73
2, 405540, Note_on_c, 0, 63, 71
2, 405540, Note_on_c, 0, 66, 72
2, 405783, Note_on_c, 0, 66, 0
2, 405783, Note_on_c, 0, 78, 0
2, 405783, Note_on_c, 0, 54, 0
2, 405783, Note_on_c, 0, 84, 0
2, 405783, Note_on_c, 0, 87, 0
2, 405783, Note_on_c, 0, 90, 0
2, 405783, Note_on_c, 0, 60, 0
2, 405783, Note_on_c, 0, 63, 0
2, 405810, Note_on_c, 0, 78, 64
2, 405810, Note_on_c, 0, 84, 67
2, 405810, Note_on_c, 0, 87, 68
2, 405810, Note_on_c, 0, 90, 66
2, 405810, Note_on_c, 0, 54, 66
2, 405810, Note_on_c, 0, 60, 65
2, 405810, Note_on_c, 0, 63, 68
2, 405810, Note_on_c, 0, 66, 66
2, 406053, Note_on_c, 0, 66, 0
2, 406053, Note_on_c, 0, 78, 0
2, 406053, Note_on_c, 0, 54, 0
2, 406053, Note_on_c, 0, 84, 0
2, 406053, Note_on_c, 0, 87, 0
2, 406053, Note_on_c, 0, 90, 0
2, 406053, Note_on_c, 0, 60, 0
2, 406053, Note_on_c, 0, 63, 0
2, 406080, Note_on_c, 0, 74, 61
2, 406080, Note_on_c, 0, 84, 59
2, 406080, Note_on_c, 0, 86, 58
2, 406080, Note_on_c, 0, 54, 60
2, 406080, Note_on_c, 0, 60, 59
2, 406080, Note_on_c, 0, 62, 61
2, 406323, Note_on_c, 0, 62, 0
2, 406323, Note_on_c, 0, 84, 0
2, 406323, Note_on_c, 0, 86, 0
2, 406323, Note_on_c, 0, 74, 0
2, 406323, Note_on_c, 0, 60, 0
2, 406323, Note_on_c, 0, 54, 0
2, 406350, Note_on_c, 0, 74, 64
2, 406350, Note_on_c, 0, 84, 65
2, 406350, Note_on_c, 0, 86, 64
2, 406350, Note_on_c, 0, 54, 64
2, 406350, Note_on_c, 0, 60, 63
2, 406350, Note_on_c, 0, 62, 64
2, 406593, Note_on_c, 0, 62, 0
2, 406593, Note_on_c, 0, 84, 0
2, 406593, Note_on_c, 0, 86, 0
2, 406593, Note_on_c, 0, 74, 0
2, 406593, Note_on_c, 0, 60, 0
2, 406593, Note_on_c, 0, 54, 0
2, 406620, Note_on_c, 0, 75, 74
2, 406620, Note_on_c, 0, 84, 72
2, 406620, Note_on_c, 0, 87, 71
2, 406620, Note_on_c, 0, 54, 73
2, 406620, Note_on_c, 0, 60, 71
2, 406620, Note_on_c, 0, 63, 71
2, 406863, Note_on_c, 0, 63, 0
2, 406863, Note_on_c, 0, 84, 0
2, 406863, Note_on_c, 0, 87, 0
2, 406863, Note_on_c, 0, 75, 0
2, 406863, Note_on_c, 0, 60, 0
2, 406863, Note_on_c, 0, 54, 0
2, 406890, Note_on_c, 0, 75, 67
2, 406890, Note_on_c, 0, 84, 66
2, 406890, Note_on_c, 0, 87, 64
2, 406890, Note_on_c, 0, 54, 65
2, 406890, Note_on_c, 0, 60, 67
2, 406890, Note_on_c, 0, 63, 67
2, 407133, Note_on_c, 0, 63, 0
2, 407133, Note_on_c, 0, 84, 0
2, 407133, Note_on_c, 0, 87, 0
2, 407133, Note_on_c, 0, 75, 0
2, 407133, Note_on_c, 0, 60, 0
2, 407133, Note_on_c, 0, 54, 0
2, 407160, Note_on_c, 0, 77, 75
2, 407160, Note_on_c, 0, 84, 73
2, 407160, Note_on_c, 0, 87, 71
2, 407160, Note_on_c, 0, 89, 72
2, 407160, Note_on_c, 0, 54, 74
2, 407160, Note_on_c, 0, 60, 72
2, 407160, Note_on_c, 0, 63, 74
2, 407160, Note_on_c, 0, 65, 71
2, 407403, Note_on_c, 0, 65, 0
2, 407403, Note_on_c, 0, 77, 0
2, 407403, Note_on_c, 0, 54, 0
2, 407403, Note_on_c, 0, 84, 0
2, 407403, Note_on_c, 0, 87, 0
2, 407403, Note_on_c, 0, 89, 0
2, 407403, Note_on_c, 0, 60, 0
2, 407403, Note_on_c, 0, 63, 0
2, 407430, Note_on_c, 0, 77, 65
2, 407430, Note_on_c, 0, 84, 66
2, 407430, Note_on_c, 0, 87, 66
2, 407430, Note_on_c, 0, 89, 67
2, 407430, Note_on_c, 0, 54, 67
2, 407430, Note_on_c, 0, 60, 65
2, 407430, Note_on_c, 0, 63, 64
2, 407430, Note_on_c, 0, 65, 65
2, 407673, Note_on_c, 0, 65, 0
2, 407673, Note_on_c, 0, 77, 0
2, 407673, Note_on_c, 0, 54, 0
2, 407673, Note_on_c, 0, 84, 0
2, 407673, Note_on_c, 0, 87, 0
2, 407673, Note_on_c, 0, 89, 0
2, 407673, Note_on_c, 0, 60, 0
2, 407673, Note_on_c, 0, 63, 0
2, 407700, Note_on_c, 0, 78, 71
2, 407700, Note_on_c, 0, 84, 73
2, 407700, Note_on_c, 0, 87, 72
2, 407700, Note_on_c, 0, 90, 72
2, 407700, Note_on_c, 0, 54, 71
2, 407700, Note_on_c, 0, 60, 72
2, 407700, Note_on_c, 0, 63, 73
2, 407700, Note_on_c, 0, 66, 70
2, 407943, Note_on_c, 0, 66, 0
2, 407943, Note_on_c, 0, 78, 0
2, 407943, Note_on_c, 0, 54, 0
2, 407943, Note_on_c, 0, 84, 0
2, 407943, Note_on_c, 0, 87, 0
2, 407943, Note_on_c, 0, 90, 0
2, 407943, Note_on_c, 0, 60, 0
2, 407943, Note_on_c, 0, 63, 0
2, 407970, Note_on_c, 0, 78, 67
2, 407970, Note_on_c, 0, 84, 65
2, 407970, Note_on_c, 0, 87, 65
2, 407970, Note_on_c, 0, 90, 64
2, 407970, Note_on_c, 0, 54, 67
2, 407970, Note_on_c, 0, 60, 66
2, 407970, Note_on_c, 0, 63, 68
2, 407970, Note_on_c, 0, 66, 66
2, 408213, Note_on_c, 0, 66, 0
2, 408213, Note_on_c, 0, 78, 0
2, 408213, Note_on_c, 0, 54, 0
2, 408213, Note_on_c, 0, 84, 0
2, 408213, Note_on_c, 0, 87, 0
2, 408213, Note_on_c, 0, 90, 0
2, 408213, Note_on_c, 0, 60, 0
2, 408213, Note_on_c, 0, 63, 0
2, 408240, Note_on_c, 0, 74, 58
2, 408240, Note_on_c, 0, 84, 59
2, 408240, Note_on_c, 0, 86, 61
2, 408240, Note_on_c, 0, 54, 60
2, 408240, Note_on_c, 0, 60, 58
2, 408240, Note_on_c, 0, 62, 60
2, 408403, Note_on_c, 0, 62, 0
2, 408403, Note_on_c, 0, 84, 0
2, 408403, Note_on_c, 0, 86, 0
2, 408403, Note_on_c, 0, 74, 0
2, 408403, Note_on_c, 0, 60, 0
2, 408403, Note_on_c, 0, 54, 0
2, 408780, Note_on_c, 0, 76, 62
2, 408780, Note_on_c, 0, 84, 63
2, 408780, Note_on_c, 0, 88, 60
2, 408780, Note_on_c, 0, 54, 60
2, 408780, Note_on_c, 0, 60, 59
2, 408780, Note_on_c, 0, 64, 62
2, 409023, Note_on_c, 0, 64, 0
2, 409023, Note_on_c, 0, 84, 0
2, 409023, Note_on_c, 0, 88, 0
2, 409023, Note_on_c, 0, 76, 0
2, 409023, Note_on_c, 0, 60, 0
2, 409023, Note_on_c, 0, 54, 0
2, 409050, Note_on_c, 0, 76, 65
2, 409050, Note_on_c, 0, 84, 63
2, 409050, Note_on_c, 0, 88, 62
2, 409050, Note_on_c, 0, 54, 63
2, 409050, Note_on_c, 0, 60, 65
2, 409050, Note_on_c, 0, 64, 64
2, 409293, Note_on_c, 0, 64, 0
2, 409293, Note_on_c, 0, 84, 0
2, 409293, Note_on_c, 0, 88, 0
2, 409293, Note_on_c, 0, 76, 0
2, 409293, Note_on_c, 0, 60, 0
2, 409293, Note_on_c, 0, 54, 0
2, 409320, Note_on_c, 0, 78, 72
2, 409320, Note_on_c, 0, 84, 72
2, 409320, Note_on_c, 0, 90, 72
2, 409320, Note_on_c, 0, 54, 75
2, 409320, Note_on_c, 0, 60, 72
2, 409320, Note_on_c, 0, 66, 71
2, 409563, Note_on_c, 0, 66, 0
2, 409563, Note_on_c, 0, 84, 0
2, 409563, Note_on_c, 0, 90, 0
2, 409563, Note_on_c, 0, 78, 0
2, 409563, Note_on_c, 0, 60, 0
2, 409563, Note_on_c, 0, 54, 0
2, 409590, Note_on_c, 0, 78, 65
2, 409590, Note_on_c, 0, 84, 67
2, 409590, Note_on_c, 0, 90, 67
2, 409590, Note_on_c, 0, 54, 68
2, 409590, Note_on_c, 0, 60, 65
2, 409590, Note_on_c, 0, 66, 64
2, 409833, Note_on_c, 0, 66, 0
2, 409833, Note_on_c, 0, 84, 0
2, 409833, Note_on_c, 0, 90, 0
2, 409833, Note_on_c, 0, 78, 0
2, 409833, Note_on_c, 0, 60, 0
2, 409833, Note_on_c, 0, 54, 0
2, 409860, Note_on_c, 0, 74, 62
2, 409860, Note_on_c, 0, 84, 59
2, 409860, Note_on_c, 0, 86, 58
2, 409860, Note_on_c, 0, 54, 61
2, 409860, Note_on_c, 0, 60, 61
2, 409860, Note_on_c, 0, 62, 58
2, 410103, Note_on_c, 0, 62, 0
2, 410103, Note_on_c, 0, 84, 0
2, 410103, Note_on_c, 0, 86, 0
2, 410103, Note_on_c, 0, 74, 0
2, 410103, Note_on_c, 0, 60, 0
2, 410103, Note_on_c, 0, 54, 0
2, 410130, Note_on_c, 0, 74, 63
2, 410130, Note_on_c, 0, 84, 63
2, 410130, Note_on_c, 0, 86, 62
2, 410130, Note_on_c, 0, 54, 62
2, 410130, Note_on_c, 0, 60, 62
2, 410130, Note_on_c, 0, 62, 64
2, 410373, Note_on_c, 0, 62, 0
2, 410373, Note_on_c, 0, 84, 0
2, 410373, Note_on_c, 0, 86, 0
2, 410373, Note_on_c, 0, 74, 0
2, 410373, Note_on_c, 0, 60, 0
2, 410373, Note_on_c, 0, 54, 0
2, 410400, Note_on_c, 0, 76, 74
2, 410400, Note_on_c, 0, 84, 72
2, 410400, Note_on_c, 0, 88, 71
2, 410400, Note_on_c, 0, 54, 74
2, 410400, Note_on_c, 0, 60, 71
2, 410400, Note_on_c, 0, 64, 73
2, 410643, Note_on_c, 0, 64, 0
2, 410643, Note_on_c, 0, 84, 0
2, 410643, Note_on_c, 0, 88, 0
2, 410643, Note_on_c, 0, 76, 0
2, 410643, Note_on_c, 0, 60, 0
2, 410643, Note_on_c, 0, 54, 0
2, 410670, Note_on_c, 0, 76, 67
2, 410670, Note_on_c, 0, 84, 66
2, 410670, Note_on_c, 0, 88, 67
2, 410670, Note_on_c, 0, 54, 68
2, 410670, Note_on_c, 0, 60, 64
2, 410670, Note_on_c, 0, 64, 68
2, 410913, Note_on_c, 0, 64, 0
2, 410913, Note_on_c, 0, 84, 0
2, 410913, Note_on_c, 0, 88, 0
2, 410913, Note_on_c, 0, 76, 0
2, 410913, Note_on_c, 0, 60, 0
2, 410913, Note_on_c, 0, 54, 0
2, 410940, Note_on_c, 0, 78, 72
2, 410940, Note_on_c, 0, 84, 72
2, 410940, Note_on_c, 0, 90, 75
2, 410940, Note_on_c, 0, 54, 74
2, 410940, Note_on_c, 0, 60, 71
2, 410940, Note_on_c, 0, 66, 73
2, 411183, Note_on_c, 0, 66, 0
2, 411183, Note_on_c, 0, 84, 0
2, 411183, Note_on_c, 0, 90, 0
2, 411183, Note_on_c, 0, 78, 0
2, 411183, Note_on_c, 0, 60, 0
2, 411183, Note_on_c, 0, 54, 0
2, 411210, Note_on_c, 0, 78, 67
2, 411210, Note_on_c, 0, 84, 66
2, 411210, Note_on_c, 0, 90, 66
2, 411210, Note_on_c, 0, 54, 68
2, 411210, Note_on_c, 0, 60, 65
2, 411210, Note_on_c, 0, 66, 67
2, 411453, Note_on_c, 0, 66, 0
2, 411453, Note_on_c, 0, 84, 0
2, 411453, Note_on_c, 0, 90, 0
2, 411453, Note_on_c, 0, 78, 0
2, 411453, Note_on_c, 0, 60, 0
2, 411453, Note_on_c, 0, 54, 0
2, 411480, Note_on_c, 0, 74, 60
2, 411480, Note_on_c, 0, 84, 61
2, 411480, Note_on_c, 0, 86, 61
2, 411480, Note_on_c, 0, 54, 59
2, 411480, Note_on_c, 0, 60, 62
2, 411480, Note_on_c, 0, 62, 59
2, 411723, Note_on_c, 0, 62, 0
2, 411723, Note_on_c, 0, 84, 0
2, 411723, Note_on_c, 0, 86, 0
2, 411723, Note_on_c, 0, 74, 0
2, 411723, Note_on_c, 0, 60, 0
2, 411723, Note_on_c, 0, 54, 0
2, 411750, Note_on_c, 0, 74, 66
2, 411750, Note_on_c, 0, 84, 63
2, 411750, Note_on_c, 0, 86, 63
2, 411750, Note_on_c, 0, 54, 64
2, 411750, Note_on_c, 0, 60, 66
2, 411750, Note_on_c, 0, 62, 63
2, 411993, Note_on_c, 0, 62, 0
2, 411993, Note_on_c, 0, 84, 0
2, 411993, Note_on_c, 0, 86, 0
2, 411993, Note_on_c, 0, 74, 0
2, 411993, Note_on_c, 0, 60, 0
2, 411993, Note_on_c, 0, 54, 0
2, 412020, Note_on_c, 0, 78, 76
2, 412020, Note_on_c, 0, 84, 75
2, 412020, Note_on_c, 0, 90, 76
2, 412020, Note_on_c, 0, 54, 77
2, 412020, Note_on_c, 0, 60, 79
2, 412020, Note_on_c, 0, 66, 76
2, 412263, Note_on_c, 0, 66, 0
2, 412263, Note_on_c, 0, 84, 0
2, 412263, Note_on_c, 0, 90, 0
2, 412263, Note_on_c, 0, 78, 0
2, 412263, Note_on_c, 0, 60, 0
2, 412263, Note_on_c, 0, 54, 0
2, 412290, Note_on_c, 0, 78, 65
2, 412290, Note_on_c, 0, 84, 66
2, 412290, Note_on_c, 0, 90, 67
2, 412290, Note_on_c, 0, 54, 65
2, 412290, Note_on_c, 0, 60, 68
2, 412290, Note_on_c, 0, 66, 67
2, 412533, Note_on_c, 0, 66, 0
2, 412533, Note_on_c, 0, 84, 0
2, 412533, Note_on_c, 0, 90, 0
2, 412533, Note_on_c, 0, 78, 0
2, 412533, Note_on_c, 0, 60, 0
2, 412533, Note_on_c, 0, 54, 0
2, 412560, Note_on_c, 0, 79, 49
2, 412560, Note_on_c, 0, 84, 47
2, 412560, Note_on_c, 0, 88, 50
2, 412560, Note_on_c, 0, 91, 50
2, 412560, Note_on_c, 0, 55, 71
2, 412560, Note_on_c, 0, 60, 72
2, 412560, Note_on_c, 0, 64, 73
2, 412560, Note_on_c, 0, 67, 73
2, 412723, Note_on_c, 0, 67, 0
2, 412723, Note_on_c, 0, 79, 0
2, 412723, Note_on_c, 0, 55, 0
2, 412723, Note_on_c, 0, 84, 0
2, 412723, Note_on_c, 0, 88, 0
2, 412723, Note_on_c, 0, 91, 0
2, 412723, Note_on_c, 0, 60, 0
2, 412723, Note_on_c, 0, 64, 0
2, 413100, Note_on_c, 0, 79, 62
2, 413100, Note_on_c, 0, 84, 62
2, 413100, Note_on_c, 0, 88, 60
2, 413100, Note_on_c, 0, 91, 62
2, 413100, Note_on_c, 0, 55, 63
2, 413100, Note_on_c, 0, 60, 62
2, 413100, Note_on_c, 0, 64, 62
2, 413100, Note_on_c, 0, 67, 59
2, 413343, Note_on_c, 0, 67, 0
2, 413343, Note_on_c, 0, 79, 0
2, 413343, Note_on_c, 0, 55, 0
2, 413343, Note_on_c, 0, 84, 0
2, 413343, Note_on_c, 0, 88, 0
2, 413343, Note_on_c, 0, 91, 0
2, 413343, Note_on_c, 0, 60, 0
2, 413343, Note_on_c, 0, 64, 0
2, 413370, Note_on_c, 0, 79, 64
2, 413370, Note_on_c, 0, 84, 63
2, 413370, Note_on_c, 0, 88, 65
2, 413370, Note_on_c, 0, 91, 65
2, 413370, Note_on_c, 0, 55, 63
2, 413370, Note_on_c, 0, 60, 64
2, 413370, Note_on_c, 0, 64, 64
2, 413370, Note_on_c, 0, 67, 63
2, 413613, Note_on_c, 0, 67, 0
2, 413613, Note_on_c, 0, 79, 0
2, 413613, Note_on_c, 0, 55, 0
2, 413613, Note_on_c, 0, 84, 0
2, 413613, Note_on_c, 0, 88, 0
2, 413613, Note_on_c, 0, 91, 0
2, 413613, Note_on_c, 0, 60, 0
2, 413613, Note_on_c, 0, 64, 0
2, 413640, Note_on_c, 0, 80, 71
2, 413640, Note_on_c, 0, 84, 73
2, 413640, Note_on_c, 0, 88, 74
2, 413640, Note_on_c, 0, 92, 72
2, 413640, Note_on_c, 0, 56, 71
2, 413640, Note_on_c, 0, 60, 71
2, 413640, Note_on_c, 0, 64, 74
2, 413640, Note_on_c, 0, 68, 72
2, 413883, Note_on_c, 0, 68, 0
2, 413883, Note_on_c, 0, 80, 0
2, 413883, Note_on_c, 0, 56, 0
2, 413883, Note_on_c, 0, 84, 0
2, 413883, Note_on_c, 0, 88, 0
2, 413883, Note_on_c, 0, 92, 0
2, 413883, Note_on_c, 0, 60, 0
2, 413883, Note_on_c, 0, 64, 0
2, 413910, Note_on_c, 0, 80, 65
2, 413910, Note_on_c, 0, 84, 67
2, 413910, Note_on_c, 0, 88, 66
2, 413910, Note_on_c, 0, 92, 67
2, 413910, Note_on_c, 0, 56, 65
2, 413910, Note_on_c, 0, 60, 68
2, 413910, Note_on_c, 0, 64, 66
2, 413910, Note_on_c, 0, 68, 67
2, 414153, Note_on_c, 0, 68, 0
2, 414153, Note_on_c, 0, 80, 0
2, 414153, Note_on_c, 0, 56, 0
2, 414153, Note_on_c, 0, 84, 0
2, 414153, Note_on_c, 0, 88, 0
2, 414153, Note_on_c, 0, 92, 0
2, 414153, Note_on_c, 0, 60, 0
2, 414153, Note_on_c, 0, 64, 0
2, 414180, Note_on_c, 0, 82, 73
2, 414180, Note_on_c, 0, 84, 73
2, 414180, Note_on_c, 0, 88, 74
2, 414180, Note_on_c, 0, 94, 73
2, 414180, Note_on_c, 0, 58, 73
2, 414180, Note_on_c, 0, 60, 72
2, 414180, Note_on_c, 0, 64, 73
2, 414180, Note_on_c, 0, 70, 74
2, 414423, Note_on_c, 0, 70, 0
2, 414423, Note_on_c, 0, 82, 0
2, 414423, Note_on_c, 0, 58, 0
2, 414423, Note_on_c, 0, 84, 0
2, 414423, Note_on_c, 0, 88, 0
2, 414423, Note_on_c, 0, 94, 0
2, 414423, Note_on_c, 0, 60, 0
2, 414423, Note_on_c, 0, 64, 0
2, 414450, Note_on_c, 0, 82, 67
2, 414450, Note_on_c, 0, 84, 66
2, 414450, Note_on_c, 0, 88, 65
2, 414450, Note_on_c, 0, 94, 67
2, 414450, Note_on_c, 0, 58, 65
2, 414450, Note_on_c, 0, 60, 67
2, 414450, Note_on_c, 0, 64, 66
2, 414450, Note_on_c, 0, 70, 67
2, 414693, Note_on_c, 0, 70, 0
2, 414693, Note_on_c, 0, 82, 0
2, 414693, Note_on_c, 0, 58, 0
2, 414693, Note_on_c, 0, 84, 0
2, 414693, Note_on_c, 0, 88, 0
2, 414693, Note_on_c, 0, 94, 0
2, 414693, Note_on_c, 0, 60, 0
2, 414693, Note_on_c, 0, 64, 0
2, 414720, Note_on_c, 0, 79, 64
2, 414720, Note_on_c, 0, 84, 62
2, 414720, Note_on_c, 0, 87, 60
2, 414720, Note_on_c, 0, 91, 61
2, 414720, Note_on_c, 0, 55, 61
2, 414720, Note_on_c, 0, 60, 61
2, 414720, Note_on_c, 0, 63, 61
2, 414720, Note_on_c, 0, 67, 63
2, 414883, Note_on_c, 0, 67, 0
2, 414883, Note_on_c, 0, 79, 0
2, 414883, Note_on_c, 0, 55, 0
2, 414883, Note_on_c, 0, 84, 0
2, 414883, Note_on_c, 0, 87, 0
2, 414883, Note_on_c, 0, 91, 0
2, 414883, Note_on_c, 0, 60, 0
2, 414883, Note_on_c, 0, 63, 0
2, 415260, Note_on_c, 0, 79, 61
2, 415260, Note_on_c, 0, 84, 61
2, 415260, Note_on_c, 0, 87, 60
2, 415260, Note_on_c, 0, 91, 62
2, 415260, Note_on_c, 0, 55, 63
2, 415260, Note_on_c, 0, 60, 63
2, 415260, Note_on_c, 0, 63, 60
2, 415260, Note_on_c, 0, 67, 62
2, 415503, Note_on_c, 0, 67, 0
2, 415503, Note_on_c, 0, 79, 0
2, 415503, Note_on_c, 0, 55, 0
2, 415503, Note_on_c, 0, 84, 0
2, 415503, Note_on_c, 0, 87, 0
2, 415503, Note_on_c, 0, 91, 0
2, 415503, Note_on_c, 0, 60, 0
2, 415503, Note_on_c, 0, 63, 0
2, 415530, Note_on_c, 0, 79, 63
2, 415530, Note_on_c, 0, 84, 63
2, 415530, Note_on_c, 0, 87, 65
2, 415530, Note_on_c, 0, 91, 62
2, 415530, Note_on_c, 0, 55, 63
2, 415530, Note_on_c, 0, 60, 65
2, 415530, Note_on_c, 0, 63, 63
2, 415530, Note_on_c, 0, 67, 63
2, 415773, Note_on_c, 0, 67, 0
2, 415773, Note_on_c, 0, 79, 0
2, 415773, Note_on_c, 0, 55, 0
2, 415773, Note_on_c, 0, 84, 0
2, 415773, Note_on_c, 0, 87, 0
2, 415773, Note_on_c, 0, 91, 0
2, 415773, Note_on_c, 0, 60, 0
2, 415773, Note_on_c, 0, 63, 0
2, 415800, Note_on_c, 0, 80, 71
2, 415800, Note_on_c, 0, 84, 72
2, 415800, Note_on_c, 0, 87, 73
2, 415800, Note_on_c, 0, 92, 71
2, 415800, Note_on_c, 0, 56, 71
2, 415800, Note_on_c, 0, 60, 72
2, 415800, Note_on_c, 0, 63, 72
2, 415800, Note_on_c, 0, 68, 73
2, 416043, Note_on_c, 0, 68, 0
2, 416043, Note_on_c, 0, 80, 0
2, 416043, Note_on_c, 0, 56, 0
2, 416043, Note_on_c, 0, 84, 0
2, 416043, Note_on_c, 0, 87, 0
2, 416043, Note_on_c, 0, 92, 0
2, 416043, Note_on_c, 0, 60, 0
2, 416043, Note_on_c, 0, 63, 0
2, 416070, Note_on_c, 0, 80, 67
2, 416070, Note_on_c, 0, 84, 66
2, 416070, Note_on_c, 0, 87, 67
2, 416070, Note_on_c, 0, 92, 67
2, 416070, Note_on_c, 0, 56, 66
2, 416070, Note_on_c, 0, 60, 68
2, 416070, Note_on_c, 0, 63, 65
2, 416070, Note_on_c, 0, 68, 68
2, 416313, Note_on_c, 0, 68, 0
2, 416313, Note_on_c, 0, 80, 0
2, 416313, Note_on_c, 0, 56, 0
2, 416313, Note_on_c, 0, 84, 0
2, 416313, Note_on_c, 0, 87, 0
2, 416313, Note_on_c, 0, 92, 0
2, 416313, Note_on_c, 0, 60, 0
2, 416313, Note_on_c, 0, 63, 0
2, 416340, Note_on_c, 0, 82, 74
2, 416340, Note_on_c, 0, 84, 72
2, 416340, Note_on_c, 0, 87, 74
2, 416340, Note_on_c, 0, 94, 72
2, 416340, Note_on_c, 0, 58, 73
2, 416340, Note_on_c, 0, 60, 72
2, 416340, Note_on_c, 0, 63, 73
2, 416340, Note_on_c, 0, 70, 74
2, 416583, Note_on_c, 0, 70, 0
2, 416583, Note_on_c, 0, 82, 0
2, 416583, Note_on_c, 0, 58, 0
2, 416583, Note_on_c, 0, 84, 0
2, 416583, Note_on_c, 0, 87, 0
2, 416583, Note_on_c, 0, 94, 0
2, 416583, Note_on_c, 0, 60, 0
2, 416583, Note_on_c, 0, 63, 0
2, 416610, Note_on_c, 0, 82, 65
2, 416610, Note_on_c, 0, 84, 67
2, 416610, Note_on_c, 0, 87, 67
2, 416610, Note_on_c, 0, 94, 67
2, 416610, Note_on_c, 0, 58, 64
2, 416610, Note_on_c, 0, 60, 67
2, 416610, Note_on_c, 0, 63, 66
2, 416610, Note_on_c, 0, 70, 67
2, 416853, Note_on_c, 0, 70, 0
2, 416853, Note_on_c, 0, 82, 0
2, 416853, Note_on_c, 0, 58, 0
2, 416853, Note_on_c, 0, 84, 0
2, 416853, Note_on_c, 0, 87, 0
2, 416853, Note_on_c, 0, 94, 0
2, 416853, Note_on_c, 0, 60, 0
2, 416853, Note_on_c, 0, 63, 0
2, 416880, Note_on_c, 0, 79, 60
2, 416880, Note_on_c, 0, 84, 63
2, 416880, Note_on_c, 0, 86, 61
2, 416880, Note_on_c, 0, 91, 63
2, 416880, Note_on_c, 0, 55, 62
2, 416880, Note_on_c, 0, 60, 63
2, 416880, Note_on_c, 0, 62, 63
2, 416880, Note_on_c, 0, 67, 61
2, 417043, Note_on_c, 0, 67, 0
2, 417043, Note_on_c, 0, 79, 0
2, 417043, Note_on_c, 0, 55, 0
2, 417043, Note_on_c, 0, 84, 0
2, 417043, Note_on_c, 0, 86, 0
2, 417043, Note_on_c, 0, 91, 0
2, 417043, Note_on_c, 0, 60, 0
2, 417043, Note_on_c, 0, 62, 0
2, 417420, Note_on_c, 0, 80, 59
2, 417420, Note_on_c, 0, 84, 61
2, 417420, Note_on_c, 0, 86, 62
2, 417420, Note_on_c, 0, 92, 60
2, 417420, Note_on_c, 0, 56, 63
2, 417420, Note_on_c, 0, 60, 59
2, 417420, Note_on_c, 0, 62, 59
2, 417420, Note_on_c, 0, 68, 60
2, 417663, Note_on_c, 0, 68, 0
2, 417663, Note_on_c, 0, 80, 0
2, 417663, Note_on_c, 0, 56, 0
2, 417663, Note_on_c, 0, 84, 0
2, 417663, Note_on_c, 0, 86, 0
2, 417663, Note_on_c, 0, 92, 0
2, 417663, Note_on_c, 0, 60, 0
2, 417663, Note_on_c, 0, 62, 0
2, 417690, Note_on_c, 0, 80, 66
2, 417690, Note_on_c, 0, 84, 63
2, 417690, Note_on_c, 0, 86, 66
2, 417690, Note_on_c, 0, 92, 64
2, 417690, Note_on_c, 0, 56, 64
2, 417690, Note_on_c, 0, 60, 65
2, 417690, Note_on_c, 0, 62, 63
2, 417690, Note_on_c, 0, 68, 62
2, 417933, Note_on_c, 0, 68, 0
2, 417933, Note_on_c, 0, 80, 0
2, 417933, Note_on_c, 0, 56, 0
2, 417933, Note_on_c, 0, 84, 0
2, 417933, Note_on_c, 0, 86, 0
2, 417933, Note_on_c, 0, 92, 0
2, 417933, Note_on_c, 0, 60, 0
2, 417933, Note_on_c, 0, 62, 0
2, 417960, Note_on_c, 0, 79, 65
2, 417960, Note_on_c, 0, 84, 64
2, 417960, Note_on_c, 0, 86, 63
2, 417960, Note_on_c, 0, 91, 65
2, 417960, Note_on_c, 0, 55, 66
2, 417960, Note_on_c, 0, 60, 64
2, 417960, Note_on_c, 0, 62, 67
2, 417960, Note_on_c, 0, 67, 64
2, 418123, Note_on_c, 0, 67, 0
2, 418123, Note_on_c, 0, 79, 0
2, 418123, Note_on_c, 0, 55, 0
2, 418123, Note_on_c, 0, 84, 0
2, 418123, Note_on_c, 0, 86, 0
2, 418123, Note_on_c, 0, 91, 0
2, 418123, Note_on_c, 0, 60, 0
2, 418123, Note_on_c, 0, 62, 0
2, 418500, Note_on_c, 0, 80, 62
2, 418500, Note_on_c, 0, 84, 60
2, 418500, Note_on_c, 0, 86, 62
2, 418500, Note_on_c, 0, 92, 62
2, 418500, Note_on_c, 0, 56, 61
2, 418500, Note_on_c, 0, 60, 61
2, 418500, Note_on_c, 0, 62, 63
2, 418500, Note_on_c, 0, 68, 63
2, 418743, Note_on_c, 0, 68, 0
2, 418743, Note_on_c, 0, 80, 0
2, 418743, Note_on_c, 0, 56, 0
2, 418743, Note_on_c, 0, 84, 0
2, 418743, Note_on_c, 0, 86, 0
2, 418743, Note_on_c, 0, 92, 0
2, 418743, Note_on_c, 0, 60, 0
2, 418743, Note_on_c, 0, 62, 0
2, 418770, Note_on_c, 0, 80, 66
2, 418770, Note_on_c, 0, 84, 66
2, 418770, Note_on_c, 0, 86, 62
2, 418770, Note_on_c, 0, 92, 62
2, 418770, Note_on_c, 0, 56, 62
2, 418770, Note_on_c, 0, 60, 64
2, 418770, Note_on_c, 0, 62, 64
2, 418770, Note_on_c, 0, 68, 66
2, 419013, Note_on_c, 0, 68, 0
2, 419013, Note_on_c, 0, 80, 0
2, 419013, Note_on_c, 0, 56, 0
2, 419013, Note_on_c, 0, 84, 0
2, 419013, Note_on_c, 0, 86, 0
2, 419013, Note_on_c, 0, 92, 0
2, 419013, Note_on_c, 0, 60, 0
2, 419013, Note_on_c, 0, 62, 0
2, 419040, Note_on_c, 0, 79, 64
2, 419040, Note_on_c, 0, 83, 63
2, 419040, Note_on_c, 0, 86, 65
2, 419040, Note_on_c, 0, 91, 67
2, 419040, Note_on_c, 0, 55, 65
2, 419040, Note_on_c, 0, 59, 66
2, 419040, Note_on_c, 0, 62, 64
2, 419040, Note_on_c, 0, 67, 64
2, 419203, Note_on_c, 0, 67, 0
2, 419203, Note_on_c, 0, 79, 0
2, 419203, Note_on_c, 0, 55, 0
2, 419203, Note_on_c, 0, 83, 0
2, 419203, Note_on_c, 0, 86, 0
2, 419203, Note_on_c, 0, 91, 0
2, 419203, Note_on_c, 0, 59, 0
2, 419203, Note_on_c, 0, 62, 0
2, 419580, Note_on_c, 0, 80, 59
2, 419580, Note_on_c, 0, 83, 61
2, 419580, Note_on_c, 0, 86, 59
2, 419580, Note_on_c, 0, 92, 61
2, 419580, Note_on_c, 0, 56, 62
2, 419580, Note_on_c, 0, 59, 63
2, 419580, Note_on_c, 0, 62, 60
2, 419580, Note_on_c, 0, 68, 60
2, 419823, Note_on_c, 0, 68, 0
2, 419823, Note_on_c, 0, 80, 0
2, 419823, Note_on_c, 0, 56, 0
2, 419823, Note_on_c, 0, 83, 0
2, 419823, Note_on_c, 0, 86, 0
2, 419823, Note_on_c, 0, 92, 0
2, 419823, Note_on_c, 0, 59, 0
2, 419823, Note_on_c, 0, 62, 0
2, 419850, Note_on_c, 0, 80, 64
2, 419850, Note_on_c, 0, 83, 65
2, 419850, Note_on_c, 0, 86, 64
2, 419850, Note_on_c, 0, 92, 65
2, 419850, Note_on_c, 0, 56, 64
2, 419850, Note_on_c, 0, 59, 64
2, 419850, Note_on_c, 0, 62, 65
2, 419850, Note_on_c, 0, 68, 66
2, 420093, Note_on_c, 0, 68, 0
2, 420093, Note_on_c, 0, 80, 0
2, 420093, Note_on_c, 0, 56, 0
2, 420093, Note_on_c, 0, 83, 0
2, 420093, Note_on_c, 0, 86, 0
2, 420093, Note_on_c, 0, 92, 0
2, 420093, Note_on_c, 0, 59, 0
2, 420093, Note_on_c, 0, 62, 0
2, 420120, Note_on_c, 0, 79, 64
2, 420120, Note_on_c, 0, 83, 66
2, 420120, Note_on_c, 0, 86, 64
2, 420120, Note_on_c, 0, 91, 65
2, 420120, Note_on_c, 0, 55, 64
2, 420120, Note_on_c, 0, 59, 64
2, 420120, Note_on_c, 0, 62, 63
2, 420120, Note_on_c, 0, 67, 66
2, 420283, Note_on_c, 0, 67, 0
2, 420283, Note_on_c, 0, 79, 0
2, 420283, Note_on_c, 0, 55, 0
2, 420283, Note_on_c, 0, 83, 0
2, 420283, Note_on_c, 0, 86, 0
2, 420283, Note_on_c, 0, 91, 0
2, 420283, Note_on_c, 0, 59, 0
2, 420283, Note_on_c, 0, 62, 0
2, 420660, Note_on_c, 0, 80, 59
2, 420660, Note_on_c, 0, 83, 60
2, 420660, Note_on_c, 0, 86, 60
2, 420660, Note_on_c, 0, 92, 60
2, 420660, Note_on_c, 0, 56, 61
2, 420660, Note_on_c, 0, 59, 59
2, 420660, Note_on_c, 0, 62, 60
2, 420660, Note_on_c, 0, 68, 63
2, 420903, Note_on_c, 0, 68, 0
2, 420903, Note_on_c, 0, 80, 0
2, 420903, Note_on_c, 0, 56, 0
2, 420903, Note_on_c, 0, 83, 0
2, 420903, Note_on_c, 0, 86, 0
2, 420903, Note_on_c, 0, 92, 0
2, 420903, Note_on_c, 0, 59, 0
2, 420903, Note_on_c, 0, 62, 0
2, 420930, Note_on_c, 0, 80, 66
2, 420930, Note_on_c, 0, 83, 63
2, 420930, Note_on_c, 0, 86, 65
2, 420930, Note_on_c, 0, 92, 62
2, 420930, Note_on_c, 0, 56, 62
2, 420930, Note_on_c, 0, 59, 64
2, 420930, Note_on_c, 0, 62, 63
2, 420930, Note_on_c, 0, 68, 65
2, 421173, Note_on_c, 0, 68, 0
2, 421173, Note_on_c, 0, 80, 0
2, 421173, Note_on_c, 0, 56, 0
2, 421173, Note_on_c, 0, 83, 0
2, 421173, Note_on_c, 0, 86, 0
2, 421173, Note_on_c, 0, 92, 0
2, 421173, Note_on_c, 0, 59, 0
2, 421173, Note_on_c, 0, 62, 0
2, 421200, Note_on_c, 0, 79, 66
2, 421200, Note_on_c, 0, 84, 66
2, 421200, Note_on_c, 0, 87, 67
2, 421200, Note_on_c, 0, 91, 66
2, 421200, Note_on_c, 0, 55, 63
2, 421200, Note_on_c, 0, 60, 64
2, 421200, Note_on_c, 0, 63, 64
2, 421200, Note_on_c, 0, 67, 64
2, 421363, Note_on_c, 0, 67, 0
2, 421363, Note_on_c, 0, 79, 0
2, 421363, Note_on_c, 0, 55, 0
2, 421363, Note_on_c, 0, 84, 0
2, 421363, Note_on_c, 0, 87, 0
2, 421363, Note_on_c, 0, 91, 0
2, 421363, Note_on_c, 0, 60, 0
2, 421363, Note_on_c, 0, 63, 0
2, 421740, Note_on_c, 0, 55, 58
2, 421920, Note_on_c, 0, 79, 58
2, 422065, Note_on_c, 0, 55, 0
2, 422083, Note_on_c, 0, 79, 0
2, 422100, Note_on_c, 0, 67, 42
2, 422263, Note_on_c, 0, 67, 0
2, 422280, Note_on_c, 0, 67, 60
2, 422460, Note_on_c, 0, 91, 58
2, 422605, Note_on_c, 0, 67, 0
2, 422623, Note_on_c, 0, 91, 0
2, 422640, Note_on_c, 0, 79, 44
2, 422803, Note_on_c, 0, 79, 0
2, 422820, Note_on_c, 0, 68, 78
2, 422983, Note_on_c, 0, 68, 0
2, 423000, Note_on_c, 0, 92, 58
2, 423163, Note_on_c, 0, 92, 0
2, 423180, Note_on_c, 0, 82, 69
2, 423180, Note_on_c, 0, 94, 69
2, 423180, Note_on_c, 0, 70, 82
2, 423343, Note_on_c, 0, 70, 0
2, 423343, Note_on_c, 0, 94, 0
2, 423343, Note_on_c, 0, 82, 0
2, 423360, Note_on_c, 0, 67, 82
2, 423540, Note_on_c, 0, 91, 81
2, 423685, Note_on_c, 0, 67, 0
2, 423703, Note_on_c, 0, 91, 0
2, 423720, Note_on_c, 0, 79, 43
2, 423883, Note_on_c, 0, 79, 0
2, 423900, Note_on_c, 0, 55, 60
2, 424080, Note_on_c, 0, 79, 57
2, 424225, Note_on_c, 0, 55, 0
2, 424243, Note_on_c, 0, 79, 0
2, 424260, Note_on_c, 0, 67, 46
2, 424423, Note_on_c, 0, 67, 0
2, 424440, Note_on_c, 0, 67, 60
2, 424620, Note_on_c, 0, 91, 60
2, 424765, Note_on_c, 0, 67, 0
2, 424783, Note_on_c, 0, 91, 0
2, 424800, Note_on_c, 0, 79, 42
2, 424963, Note_on_c, 0, 79, 0
2, 424980, Note_on_c, 0, 68, 81
2, 425143, Note_on_c, 0, 68, 0
2, 425160, Note_on_c, 0, 92, 59
2, 425323, Note_on_c, 0, 92, 0
2, 425340, Note_on_c, 0, 82, 69
2, 425340, Note_on_c, 0, 94, 70
2, 425340, Note_on_c, 0, 70, 80
2, 425503, Note_on_c, 0, 70, 0
2, 425503, Note_on_c, 0, 94, 0
2, 425503, Note_on_c, 0, 82, 0
2, 425520, Note_on_c, 0, 67, 84
2, 425700, Note_on_c, 0, 91, 81
2, 425845, Note_on_c, 0, 67, 0
2, 425863, Note_on_c, 0, 91, 0
2, 425880, Note_on_c, 0, 79, 46
2, 426043, Note_on_c, 0, 79, 0
2, 426060, Note_on_c, 0, 68, 78
2, 426223, Note_on_c, 0, 68, 0
2, 426240, Note_on_c, 0, 92, 60
2, 426403, Note_on_c, 0, 92, 0
2, 426420, Note_on_c, 0, 82, 70
2, 426420, Note_on_c, 0, 94, 68
2, 426420, Note_on_c, 0, 70, 80
2, 426583, Note_on_c, 0, 70, 0
2, 426583, Note_on_c, 0, 94, 0
2, 426583, Note_on_c, 0, 82, 0
2, 426600, Note_on_c, 0, 67, 83
2, 426780, Note_on_c, 0, 91, 81
2, 426925, Note_on_c, 0, 67, 0
2, 426943, Note_on_c, 0, 91, 0
2, 426960, Note_on_c, 0, 79, 43
2, 427123, Note_on_c, 0, 79, 0
2, 427140, Note_on_c, 0, 67, 83
2, 427320, Note_on_c, 0, 91, 80
2, 427383, Note_on_c, 0, 67, 0
2, 427410, Note_on_c, 0, 67, 89
2, 427483, Note_on_c, 0, 91, 0
2, 427500, Note_on_c, 0, 79, 43
2, 427653, Note_on_c, 0, 67, 0
2, 427663, Note_on_c, 0, 79, 0
2, 427680, Note_on_c, 0, 63, 83
2, 427860, Note_on_c, 0, 87, 82
2, 428005, Note_on_c, 0, 63, 0
2, 428023, Note_on_c, 0, 87, 0
2, 428040, Note_on_c, 0, 75, 43
2, 428203, Note_on_c, 0, 75, 0
2, 428220, Note_on_c, 0, 51, 60
2, 428400, Note_on_c, 0, 75, 60
2, 428545, Note_on_c, 0, 51, 0
2, 428563, Note_on_c, 0, 75, 0
2, 428580, Note_on_c, 0, 63, 45
2, 428743, Note_on_c, 0, 63, 0
2, 428760, Note_on_c, 0, 63, 63
2, 428940, Note_on_c, 0, 87, 59
2, 429085, Note_on_c, 0, 63, 0
2, 429103, Note_on_c, 0, 87, 0
2, 429120, Note_on_c, 0, 75, 45
2, 429283, Note_on_c, 0, 75, 0
2, 429300, Note_on_c, 0, 67, 82
2, 429480, Note_on_c, 0, 91, 79
2, 429543, Note_on_c, 0, 67, 0
2, 429570, Note_on_c, 0, 67, 91
2, 429643, Note_on_c, 0, 91, 0
2, 429660, Note_on_c, 0, 79, 43
2, 429813, Note_on_c, 0, 67, 0
2, 429823, Note_on_c, 0, 79, 0
2, 429840, Note_on_c, 0, 63, 81
2, 430020, Note_on_c, 0, 87, 78
2, 430165, Note_on_c, 0, 63, 0
2, 430183, Note_on_c, 0, 87, 0
2, 430200, Note_on_c, 0, 75, 44
2, 430363, Note_on_c, 0, 75, 0
2, 430380, Note_on_c, 0, 51, 57
2, 430560, Note_on_c, 0, 75, 56
2, 430705, Note_on_c, 0, 51, 0
2, 430723, Note_on_c, 0, 75, 0
2, 430740, Note_on_c, 0, 63, 44
2, 430903, Note_on_c, 0, 63, 0
2, 430920, Note_on_c, 0, 63, 83
2, 431100, Note_on_c, 0, 87, 78
2, 431245, Note_on_c, 0, 63, 0
2, 431263, Note_on_c, 0, 87, 0
2, 431280, Note_on_c, 0, 75, 46
2, 431443, Note_on_c, 0, 75, 0
2, 431460, Note_on_c, 0, 51, 57
2, 431640, Note_on_c, 0, 75, 60
2, 431785, Note_on_c, 0, 51, 0
2, 431803, Note_on_c, 0, 75, 0
2, 431820, Note_on_c, 0, 63, 46
2, 431983, Note_on_c, 0, 63, 0
2, 432000, Note_on_c, 0, 60, 83
2, 432180, Note_on_c, 0, 84, 58
2, 432325, Note_on_c, 0, 60, 0
2, 432343, Note_on_c, 0, 84, 0
2, 432360, Note_on_c, 0, 72, 44
2, 432523, Note_on_c, 0, 72, 0
2, 432540, Note_on_c, 0, 48, 57
2, 432720, Note_on_c, 0, 72, 58
2, 432865, Note_on_c, 0, 48, 0
2, 432883, Note_on_c, 0, 72, 0
2, 432900, Note_on_c, 0, 60, 44
2, 433063, Note_on_c, 0, 60, 0
2, 433080, Note_on_c, 0, 60, 59
2, 433260, Note_on_c, 0, 84, 57
2, 433405, Note_on_c, 0, 60, 0
2, 433423, Note_on_c, 0, 84, 0
2, 433440, Note_on_c, 0, 72, 43
2, 433603, Note_on_c, 0, 72, 0
2, 433620, Note_on_c, 0, 62, 59
2, 433783, Note_on_c, 0, 62, 0
2, 433800, Note_on_c, 0, 86, 59
2, 433963, Note_on_c, 0, 86, 0
2, 433980, Note_on_c, 0, 75, 69
2, 433980, Note_on_c, 0, 87, 67
2, 433980, Note_on_c, 0, 63, 58
2, 434143, Note_on_c, 0, 63, 0
2, 434143, Note_on_c, 0, 87, 0
2, 434143, Note_on_c, 0, 75, 0
2, 434160, Note_on_c, 0, 60, 60
2, 434340, Note_on_c, 0, 84, 57
2, 434485, Note_on_c, 0, 60, 0
2, 434503, Note_on_c, 0, 84, 0
2, 434520, Note_on_c, 0, 72, 44
2, 434683, Note_on_c, 0, 72, 0
2, 434700, Note_on_c, 0, 62, 58
2, 434863, Note_on_c, 0, 62, 0
2, 434880, Note_on_c, 0, 86, 58
2, 435043, Note_on_c, 0, 86, 0
2, 435060, Note_on_c, 0, 75, 69
2, 435060, Note_on_c, 0, 87, 67
2, 435060, Note_on_c, 0, 63, 60
2, 435223, Note_on_c, 0, 63, 0
2, 435223, Note_on_c, 0, 87, 0
2, 435223, Note_on_c, 0, 75, 0
2, 435240, Note_on_c, 0, 60, 60
2, 435420, Note_on_c, 0, 84, 59
2, 435565, Note_on_c, 0, 60, 0
2, 435583, Note_on_c, 0, 84, 0
2, 435600, Note_on_c, 0, 72, 44
2, 435763, Note_on_c, 0, 72, 0
2, 435780, Note_on_c, 0, 61, 79
2, 435943, Note_on_c, 0, 61, 0
2, 435960, Note_on_c, 0, 85, 59
2, 436123, Note_on_c, 0, 85, 0
2, 436140, Note_on_c, 0, 75, 70
2, 436140, Note_on_c, 0, 87, 68
2, 436140, Note_on_c, 0, 63, 81
2, 436303, Note_on_c, 0, 63, 0
2, 436303, Note_on_c, 0, 87, 0
2, 436303, Note_on_c, 0, 75, 0
2, 436320, Note_on_c, 0, 60, 85
2, 436500, Note_on_c, 0, 84, 80
2, 436645, Note_on_c, 0, 60, 0
2, 436663, Note_on_c, 0, 84, 0
2, 436680, Note_on_c, 0, 72, 43
2, 436843, Note_on_c, 0, 72, 0
2, 436860, Note_on_c, 0, 48, 57
2, 437040, Note_on_c, 0, 72, 57
2, 437185, Note_on_c, 0, 48, 0
2, 437203, Note_on_c, 0, 72, 0
2, 437220, Note_on_c, 0, 60, 43
2, 437383, Note_on_c, 0, 60, 0
2, 437400, Note_on_c, 0, 60, 61
2, 437580, Note_on_c, 0, 84, 56
2, 437725, Note_on_c, 0, 60, 0
2, 437743, Note_on_c, 0, 84, 0
2, 437760, Note_on_c, 0, 72, 45
2, 437923, Note_on_c, 0, 72, 0
2, 437940, Note_on_c, 0, 61, 79
2, 438103, Note_on_c, 0, 61, 0
2, 438120, Note_on_c, 0, 85, 60
2, 438283, Note_on_c, 0, 85, 0
2, 438300, Note_on_c, 0, 75, 68
2, 438300, Note_on_c, 0, 87, 69
2, 438300, Note_on_c, 0, 63, 82
2, 438463, Note_on_c, 0, 63, 0
2, 438463, Note_on_c, 0, 87, 0
2, 438463, Note_on_c, 0, 75, 0
2, 438480, Note_on_c, 0, 60, 82
2, 438660, Note_on_c, 0, 84, 81
2, 438805, Note_on_c, 0, 60, 0
2, 438823, Note_on_c, 0, 84, 0
2, 438840, Note_on_c, 0, 72, 44
2, 439003, Note_on_c, 0, 72, 0
2, 439020, Note_on_c, 0, 48, 60
2, 439200, Note_on_c, 0, 72, 59
2, 439345, Note_on_c, 0, 48, 0
2, 439363, Note_on_c, 0, 72, 0
2, 439380, Note_on_c, 0, 60, 44
2, 439543, Note_on_c, 0, 60, 0
2, 439560, Note_on_c, 0, 60, 61
2, 439740, Note_on_c, 0, 84, 57
2, 439885, Note_on_c, 0, 60, 0
2, 439903, Note_on_c, 0, 84, 0
2, 439920, Note_on_c, 0, 72, 44
2, 440083, Note_on_c, 0, 72, 0
2, 440100, Note_on_c, 0, 61, 79
2, 440263, Note_on_c, 0, 61, 0
2, 440280, Note_on_c, 0, 85, 58
2, 440443, Note_on_c, 0, 85, 0
2, 440460, Note_on_c, 0, 75, 70
2, 440460, Note_on_c, 0, 87, 69
2, 440460, Note_on_c, 0, 63, 81
2, 440623, Note_on_c, 0, 63, 0
2, 440623, Note_on_c, 0, 87, 0
2, 440623, Note_on_c, 0, 75, 0
2, 440640, Note_on_c, 0, 60, 82
2, 440820, Note_on_c, 0, 84, 79
2, 440965, Note_on_c, 0, 60, 0
2, 440983, Note_on_c, 0, 84, 0
2, 441000, Note_on_c, 0, 72, 46
2, 441163, Note_on_c, 0, 72, 0
2, 441180, Note_on_c, 0, 61, 79
2, 441343, Note_on_c, 0, 61, 0
2, 441360, Note_on_c, 0, 85, 59
2, 441523, Note_on_c, 0, 85, 0
2, 441540, Note_on_c, 0, 75, 70
2, 441540, Note_on_c, 0, 87, 71
2, 441540, Note_on_c, 0, 63, 81
2, 441703, Note_on_c, 0, 63, 0
2, 441703, Note_on_c, 0, 87, 0
2, 441703, Note_on_c, 0, 75, 0
2, 441720, Note_on_c, 0, 60, 82
2, 441900, Note_on_c, 0, 84, 80
2, 442045, Note_on_c, 0, 60, 0
2, 442063, Note_on_c, 0, 84, 0
2, 442080, Note_on_c, 0, 72, 43
2, 442243, Note_on_c, 0, 72, 0
2, 442260, Note_on_c, 0, 60, 84
2, 442440, Note_on_c, 0, 84, 80
2, 442503, Note_on_c, 0, 60, 0
2, 442530, Note_on_c, 0, 60, 90
2, 442603, Note_on_c, 0, 84, 0
2, 442620, Note_on_c, 0, 72, 46
2, 442773, Note_on_c, 0, 60, 0
2, 442783, Note_on_c, 0, 72, 0
2, 442800, Note_on_c, 0, 56, 81
2, 442980, Note_on_c, 0, 80, 78
2, 443125, Note_on_c, 0, 56, 0
2, 443143, Note_on_c, 0, 80, 0
2, 443160, Note_on_c, 0, 68, 45
2, 443323, Note_on_c, 0, 68, 0
2, 443340, Note_on_c, 0, 44, 58
2, 443520, Note_on_c, 0, 68, 58
2, 443665, Note_on_c, 0, 44, 0
2, 443683, Note_on_c, 0, 68, 0
2, 443700, Note_on_c, 0, 56, 44
2, 443863, Note_on_c, 0, 56, 0
2, 443880, Note_on_c, 0, 56, 62
2, 444060, Note_on_c, 0, 80, 56
2, 444205, Note_on_c, 0, 56, 0
2, 444223, Note_on_c, 0, 80, 0
2, 444240, Note_on_c, 0, 68, 44
2, 444403, Note_on_c, 0, 68, 0
2, 444420, Note_on_c, 0, 60, 83
2, 444600, Note_on_c, 0, 84, 78
2, 444663, Note_on_c, 0, 60, 0
2, 444690, Note_on_c, 0, 60, 89
2, 444763, Note_on_c, 0, 84, 0
2, 444780, Note_on_c, 0, 72, 45
2, 444933, Note_on_c, 0, 60, 0
2, 444943, Note_on_c, 0, 72, 0
2, 444960, Note_on_c, 0, 56, 81
2, 445140, Note_on_c, 0, 80, 81
2, 445285, Note_on_c, 0, 56, 0
2, 445303, Note_on_c, 0, 80, 0
2, 445320, Note_on_c, 0, 68, 45
2, 445483, Note_on_c, 0, 68, 0
2, 445500, Note_on_c, 0, 44, 59
2, 445680, Note_on_c, 0, 68, 58
2, 445825, Note_on_c, 0, 44, 0
2, 445843, Note_on_c, 0, 68, 0
2, 445860, Note_on_c, 0, 56, 43
2, 446023, Note_on_c, 0, 56, 0
2, 446040, Note_on_c, 0, 56, 82
2, 446220, Note_on_c, 0, 80, 78
2, 446365, Note_on_c, 0, 56, 0
2, 446383, Note_on_c, 0, 80, 0
2, 446400, Note_on_c, 0, 68, 44
2, 446563, Note_on_c, 0, 68, 0
2, 446580, Note_on_c, 0, 44, 60
2, 446760, Note_on_c, 0, 68, 56
2, 446905, Note_on_c, 0, 44, 0
2, 446923, Note_on_c, 0, 68, 0
2, 446940, Note_on_c, 0, 56, 45
2, 447103, Note_on_c, 0, 56, 0
2, 447120, Note_on_c, 0, 53, 61
2, 447300, Note_on_c, 0, 77, 57
2, 447445, Note_on_c, 0, 53, 0
2, 447463, Note_on_c, 0, 77, 0
2, 447480, Note_on_c, 0, 65, 45
2, 447643, Note_on_c, 0, 65, 0
2, 447660, Note_on_c, 0, 41, 59
2, 447840, Note_on_c, 0, 65, 58
2, 447985, Note_on_c, 0, 41, 0
2, 448003, Note_on_c, 0, 65, 0
2, 448020, Note_on_c, 0, 53, 45
2, 448183, Note_on_c, 0, 53, 0
2, 448200, Note_on_c, 0, 53, 63
2, 448380, Note_on_c, 0, 77, 58
2, 448525, Note_on_c, 0, 53, 0
2, 448543, Note_on_c, 0, 77, 0
2, 448560, Note_on_c, 0, 65, 44
2, 448723, Note_on_c, 0, 65, 0
2, 448740, Note_on_c, 0, 55, 57
2, 448903, Note_on_c, 0, 55, 0
2, 448920, Note_on_c, 0, 79, 58
2, 449083, Note_on_c, 0, 79, 0
2, 449100, Note_on_c, 0, 68, 69
2, 449100, Note_on_c, 0, 80, 67
2, 449100, Note_on_c, 0, 56, 59
2, 449263, Note_on_c, 0, 56, 0
2, 449263, Note_on_c, 0, 80, 0
2, 449263, Note_on_c, 0, 68, 0
2, 449280, Note_on_c, 0, 53, 62
2, 449460, Note_on_c, 0, 77, 59
2, 449605, Note_on_c, 0, 53, 0
2, 449623, Note_on_c, 0, 77, 0
2, 449640, Note_on_c, 0, 65, 43
2, 449803, Note_on_c, 0, 65, 0
2, 449820, Note_on_c, 0, 55, 57
2, 449983, Note_on_c, 0, 55, 0
2, 450000, Note_on_c, 0, 79, 60
2, 450163, Note_on_c, 0, 79, 0
2, 450180, Note_on_c, 0, 68, 69
2, 450180, Note_on_c, 0, 80, 70
2, 450180, Note_on_c, 0, 56, 59
2, 450343, Note_on_c, 0, 56, 0
2, 450343, Note_on_c, 0, 80, 0
2, 450343, Note_on_c, 0, 68, 0
2, 450360, Note_on_c, 0, 53, 60
2, 450540, Note_on_c, 0, 77, 59
2, 450685, Note_on_c, 0, 53, 0
2, 450703, Note_on_c, 0, 77, 0
2, 450720, Note_on_c, 0, 65, 46
2, 450883, Note_on_c, 0, 65, 0
2, 450900, Note_on_c, 0, 41, 59
2, 451225, Note_on_c, 0, 41, 0
2, 451440, Note_on_c, 0, 67, 67
2, 451440, Note_on_c, 0, 43, 62
2, 451440, Note_on_c, 0, 55, 61
2, 451765, Note_on_c, 0, 55, 0
2, 451765, Note_on_c, 0, 43, 0
2, 451980, Note_on_c, 0, 59, 59
2, 451980, Note_on_c, 0, 62, 59
2, 452305, Note_on_c, 0, 62, 0
2, 452305, Note_on_c, 0, 59, 0
2, 452520, Note_on_c, 0, 44, 61
2, 452520, Note_on_c, 0, 56, 61
2, 452845, Note_on_c, 0, 56, 0
2, 452845, Note_on_c, 0, 44, 0
2, 453007, Note_on_c, 0, 67, 0
2, 453060, Note_on_c, 0, 65, 61
2, 453060, Note_on_c, 0, 59, 57
2, 453060, Note_on_c, 0, 63, 58
2, 453385, Note_on_c, 0, 63, 0
2, 453385, Note_on_c, 0, 59, 0
2, 453547, Note_on_c, 0, 65, 0
2, 453600, Note_on_c, 0, 67, 80
2, 453600, Note_on_c, 0, 39, 62
2, 453600, Note_on_c, 0, 51, 62
2, 453925, Note_on_c, 0, 51, 0
2, 453925, Note_on_c, 0, 39, 0
2, 454140, Note_on_c, 0, 55, 57
2, 454140, Note_on_c, 0, 58, 58
2, 454140, Note_on_c, 0, 63, 59
2, 454465, Note_on_c, 0, 63, 0
2, 454465, Note_on_c, 0, 58, 0
2, 454465, Note_on_c, 0, 55, 0
2, 454680, Note_on_c, 0, 32, 85
2, 454680, Note_on_c, 0, 44, 82
2, 455005, Note_on_c, 0, 44, 0
2, 455005, Note_on_c, 0, 32, 0
2, 455167, Note_on_c, 0, 67, 0
2, 455220, Note_on_c, 0, 65, 60
2, 455220, Note_on_c, 0, 60, 59
2, 455220, Note_on_c, 0, 62, 56
2, 455545, Note_on_c, 0, 62, 0
2, 455545, Note_on_c, 0, 60, 0
2, 455707, Note_on_c, 0, 65, 0
2, 455760, Note_on_c, 0, 67, 80
2, 455760, Note_on_c, 0, 36, 60
2, 455760, Note_on_c, 0, 48, 60
2, 456085, Note_on_c, 0, 48, 0
2, 456085, Note_on_c, 0, 36, 0
2, 456300, Note_on_c, 0, 55, 60
2, 456300, Note_on_c, 0, 60, 59
2, 456300, Note_on_c, 0, 63, 59
2, 456625, Note_on_c, 0, 63, 0
2, 456625, Note_on_c, 0, 60, 0
2, 456625, Note_on_c, 0, 55, 0
2, 456840, Note_on_c, 0, 44, 59
2, 456840, Note_on_c, 0, 56, 62
2, 457165, Note_on_c, 0, 56, 0
2, 457165, Note_on_c, 0, 44, 0
2, 457327, Note_on_c, 0, 67, 0
2, 457380, Note_on_c, 0, 65, 63
2, 457380, Note_on_c, 0, 59, 60
2, 457380, Note_on_c, 0, 63, 60
2, 457705, Note_on_c, 0, 63, 0
2, 457705, Note_on_c, 0, 59, 0
2, 457867, Note_on_c, 0, 65, 0
2, 457920, Note_on_c, 0, 67, 77
2, 457920, Note_on_c, 0, 39, 62
2, 457920, Note_on_c, 0, 51, 63
2, 458245, Note_on_c, 0, 51, 0
2, 458245, Note_on_c, 0, 39, 0
2, 458460, Note_on_c, 0, 55, 57
2, 458460, Note_on_c, 0, 58, 60
2, 458460, Note_on_c, 0, 63, 59
2, 458785, Note_on_c, 0, 63, 0
2, 458785, Note_on_c, 0, 58, 0
2, 458785, Note_on_c, 0, 55, 0
2, 459000, Note_on_c, 0, 38, 85
2, 459000, Note_on_c, 0, 50, 84
2, 459325, Note_on_c, 0, 50, 0
2, 459325, Note_on_c, 0, 38, 0
2, 459487, Note_on_c, 0, 67, 0
2, 459540, Note_on_c, 0, 65, 61
2, 459540, Note_on_c, 0, 56, 60
2, 459540, Note_on_c, 0, 60, 56
2, 459865, Note_on_c, 0, 60, 0
2, 459865, Note_on_c, 0, 56, 0
2, 460027, Note_on_c, 0, 65, 0
2, 460080, Note_on_c, 0, 67, 78
2, 460080, Note_on_c, 0, 31, 61
2, 460080, Note_on_c, 0, 43, 60
2, 460405, Note_on_c, 0, 43, 0
2, 460405, Note_on_c, 0, 31, 0
2, 460620, Note_on_c, 0, 55, 59
2, 460620, Note_on_c, 0, 59, 59
2, 460945, Note_on_c, 0, 59, 0
2, 460945, Note_on_c, 0, 55, 0
2, 461485, Note_on_c, 0, 67, 0
2, 461700, Note_on_c, 0, 62, 56
2, 461700, Note_on_c, 0, 65, 58
2, 461877, Note_on_c, 0, 65, 0
2, 461877, Note_on_c, 0, 62, 0
2, 462240, Note_on_c, 0, 63, 59
2, 462240, Note_on_c, 0, 67, 59
2, 462417, Note_on_c, 0, 67, 0
2, 462417, Note_on_c, 0, 63, 0
2, 462780, Note_on_c, 0, 65, 58
2, 462780, Note_on_c, 0, 68, 57
2, 462957, Note_on_c, 0, 68, 0
2, 462957, Note_on_c, 0, 65, 0
2, 463320, Note_on_c, 0, 67, 61
2, 463320, Note_on_c, 0, 71, 61
2, 463497, Note_on_c, 0, 71, 0
2, 463497, Note_on_c, 0, 67, 0
2, 463860, Note_on_c, 0, 71, 58
2, 463860, Note_on_c, 0, 74, 59
2, 464037, Note_on_c, 0, 74, 0
2, 464037, Note_on_c, 0, 71, 0
2, 464400, Note_on_c, 0, 72, 66
2, 464400, Note_on_c, 0, 75, 65
2, 464400, Note_on_c, 0, 48, 63
2, 464400, Note_on_c, 0, 55, 59
2, 464400, Note_on_c, 0, 63, 62
2, 464725, Note_on_c, 0, 63, 0
2, 464725, Note_on_c, 0, 48, 0
2, 464725, Note_on_c, 0, 55, 0
2, 464940, Note_on_c, 0, 63, 60
2, 464940, Note_on_c, 0, 67, 57
2, 465265, Note_on_c, 0, 67, 0
2, 465265, Note_on_c, 0, 63, 0
2, 465480, Note_on_c, 0, 75, 0
2, 465480, Note_on_c, 0, 72, 0
2, 465480, Note_on_c, 0, 70, 68
2, 465480, Note_on_c, 0, 74, 70
2, 465480, Note_on_c, 0, 43, 62
2, 465480, Note_on_c, 0, 50, 62
2, 465480, Note_on_c, 0, 58, 62
2, 465805, Note_on_c, 0, 58, 0
2, 465805, Note_on_c, 0, 43, 0
2, 465805, Note_on_c, 0, 50, 0
2, 466020, Note_on_c, 0, 62, 56
2, 466020, Note_on_c, 0, 67, 57
2, 466345, Note_on_c, 0, 67, 0
2, 466345, Note_on_c, 0, 62, 0
2, 466560, Note_on_c, 0, 46, 60
2, 466560, Note_on_c, 0, 53, 62
2, 466560, Note_on_c, 0, 62, 62
2, 466885, Note_on_c, 0, 62, 0
2, 466885, Note_on_c, 0, 46, 0
2, 466885, Note_on_c, 0, 53, 0
2, 467100, Note_on_c, 0, 62, 58
2, 467100, Note_on_c, 0, 65, 60
2, 467425, Note_on_c, 0, 65, 0
2, 467425, Note_on_c, 0, 62, 0
2, 467570, Note_on_c, 0, 74, 0
2, 467570, Note_on_c, 0, 70, 0
2, 467640, Note_on_c, 0, 68, 70
2, 467640, Note_on_c, 0, 72, 70
2, 467640, Note_on_c, 0, 41, 59
2, 467640, Note_on_c, 0, 48, 63
2, 467640, Note_on_c, 0, 56, 63
2, 467965, Note_on_c, 0, 56, 0
2, 467965, Note_on_c, 0, 41, 0
2, 467965, Note_on_c, 0, 48, 0
2, 468180, Note_on_c, 0, 60, 58
2, 468180, Note_on_c, 0, 65, 60
2, 468505, Note_on_c, 0, 65, 0
2, 468505, Note_on_c, 0, 60, 0
2, 468720, Note_on_c, 0, 44, 63
2, 468720, Note_on_c, 0, 51, 60
2, 468720, Note_on_c, 0, 60, 62
2, 469045, Note_on_c, 0, 60, 0
2, 469045, Note_on_c, 0, 44, 0
2, 469045, Note_on_c, 0, 51, 0
2, 469260, Note_on_c, 0, 60, 58
2, 469260, Note_on_c, 0, 63, 59
2, 469585, Note_on_c, 0, 63, 0
2, 469585, Note_on_c, 0, 60, 0
2, 469730, Note_on_c, 0, 72, 0
2, 469730, Note_on_c, 0, 68, 0
2, 469800, Note_on_c, 0, 67, 69
2, 469800, Note_on_c, 0, 70, 71
2, 469800, Note_on_c, 0, 39, 59
2, 469800, Note_on_c, 0, 46, 62
2, 469800, Note_on_c, 0, 55, 61
2, 470125, Note_on_c, 0, 55, 0
2, 470125, Note_on_c, 0, 39, 0
2, 470125, Note_on_c, 0, 46, 0
2, 470340, Note_on_c, 0, 58, 58
2, 470340, Note_on_c, 0, 63, 59
2, 470665, Note_on_c, 0, 63, 0
2, 470665, Note_on_c, 0, 58, 0
2, 470880, Note_on_c, 0, 70, 0
2, 470880, Note_on_c, 0, 67, 0
2, 470880, Note_on_c, 0, 67, 68
2, 470880, Note_on_c, 0, 69, 72
2, 470880, Note_on_c, 0, 36, 62
2, 470880, Note_on_c, 0, 43, 60
2, 470880, Note_on_c, 0, 51, 61
2, 471205, Note_on_c, 0, 51, 0
2, 471205, Note_on_c, 0, 36, 0
2, 471205, Note_on_c, 0, 43, 0
2, 471420, Note_on_c, 0, 57, 57
2, 471420, Note_on_c, 0, 63, 59
2, 471745, Note_on_c, 0, 63, 0
2, 471745, Note_on_c, 0, 57, 0
2, 471960, Note_on_c, 0, 69, 0
2, 471960, Note_on_c, 0, 67, 0
2, 471960, Note_on_c, 0, 67, 79
2, 471960, Note_on_c, 0, 70, 79
2, 471960, Note_on_c, 0, 43, 63
2, 471960, Note_on_c, 0, 50, 62
2, 471960, Note_on_c, 0, 58, 61
2, 472285, Note_on_c, 0, 58, 0
2, 472285, Note_on_c, 0, 43, 0
2, 472285, Note_on_c, 0, 50, 0
2, 472500, Note_on_c, 0, 58, 59
2, 472500, Note_on_c, 0, 62, 60
2, 472825, Note_on_c, 0, 62, 0
2, 472825, Note_on_c, 0, 58, 0
2, 473040, Note_on_c, 0, 70, 0
2, 473040, Note_on_c, 0, 67, 0
2, 473040, Note_on_c, 0, 72, 85
2, 473040, Note_on_c, 0, 75, 84
2, 473040, Note_on_c, 0, 48, 59
2, 473040, Note_on_c, 0, 55, 61
2, 473040, Note_on_c, 0, 63, 59
2, 473365, Note_on_c, 0, 63, 0
2, 473365, Note_on_c, 0, 48, 0
2, 473365, Note_on_c, 0, 55, 0
2, 473580, Note_on_c, 0, 63, 59
2, 473580, Note_on_c, 0, 67, 59
2, 473905, Note_on_c, 0, 67, 0
2, 473905, Note_on_c, 0, 63, 0
2, 474120, Note_on_c, 0, 75, 0
2, 474120, Note_on_c, 0, 72, 0
2, 474120, Note_on_c, 0, 70, 73
2, 474120, Note_on_c, 0, 74, 75
2, 474120, Note_on_c, 0, 43, 62
2, 474120, Note_on_c, 0, 50, 62
2, 474120, Note_on_c, 0, 58, 62
2, 474445, Note_on_c, 0, 58, 0
2, 474445, Note_on_c, 0, 43, 0
2, 474445, Note_on_c, 0, 50, 0
2, 474660, Note_on_c, 0, 62, 56
2, 474660, Note_on_c, 0, 67, 56
2, 474985, Note_on_c, 0, 67, 0
2, 474985, Note_on_c, 0, 62, 0
2, 475200, Note_on_c, 0, 46, 61
2, 475200, Note_on_c, 0, 53, 60
2, 475200, Note_on_c, 0, 62, 62
2, 475525, Note_on_c, 0, 62, 0
2, 475525, Note_on_c, 0, 46, 0
2, 475525, Note_on_c, 0, 53, 0
2, 475740, Note_on_c, 0, 62, 58
2, 475740, Note_on_c, 0, 65, 57
2, 476065, Note_on_c, 0, 65, 0
2, 476065, Note_on_c, 0, 62, 0
2, 476210, Note_on_c, 0, 74, 0
2, 476210, Note_on_c, 0, 70, 0
2, 476280, Note_on_c, 0, 68, 71
2, 476280, Note_on_c, 0, 72, 68
2, 476280, Note_on_c, 0, 41, 61
2, 476280, Note_on_c, 0, 48, 60
2, 476280, Note_on_c, 0, 56, 60
2, 476605, Note_on_c, 0, 56, 0
2, 476605, Note_on_c, 0, 41, 0
2, 476605, Note_on_c, 0, 48, 0
2, 476820, Note_on_c, 0, 60, 59
2, 476820, Note_on_c, 0, 65, 58
2, 477145, Note_on_c, 0, 65, 0
2, 477145, Note_on_c, 0, 60, 0
2, 477360, Note_on_c, 0, 44, 60
2, 477360, Note_on_c, 0, 51, 61
2, 477360, Note_on_c, 0, 60, 60
2, 477685, Note_on_c, 0, 60, 0
2, 477685, Note_on_c, 0, 44, 0
2, 477685, Note_on_c, 0, 51, 0
2, 477900, Note_on_c, 0, 60, 58
2, 477900, Note_on_c, 0, 63, 58
2, 478225, Note_on_c, 0, 63, 0
2, 478225, Note_on_c, 0, 60, 0
2, 478370, Note_on_c, 0, 72, 0
2, 478370, Note_on_c, 0, 68, 0
2, 478440, Note_on_c, 0, 67, 68
2, 478440, Note_on_c, 0, 70, 69
2, 478440, Note_on_c, 0, 39, 61
2, 478440, Note_on_c, 0, 46, 60
2, 478440, Note_on_c, 0, 55, 59
2, 478765, Note_on_c, 0, 55, 0
2, 478765, Note_on_c, 0, 39, 0
2, 478765, Note_on_c, 0, 46, 0
2, 478980, Note_on_c, 0, 58, 60
2, 478980, Note_on_c, 0, 63, 59
2, 479305, Note_on_c, 0, 63, 0
2, 479305, Note_on_c, 0, 58, 0
2, 479520, Note_on_c, 0, 70, 0
2, 479520, Note_on_c, 0, 67, 0
2, 479520, Note_on_c, 0, 67, 69
2, 479520, Note_on_c, 0, 69, 69
2, 479520, Note_on_c, 0, 36, 62
2, 479520, Note_on_c, 0, 43, 63
2, 479520, Note_on_c, 0, 51, 63
2, 479845, Note_on_c, 0, 51, 0
2, 479845, Note_on_c, 0, 36, 0
2, 479845, Note_on_c, 0, 43, 0
2, 480060, Note_on_c, 0, 57, 59
2, 480060, Note_on_c, 0, 63, 59
2, 480385, Note_on_c, 0, 63, 0
2, 480385, Note_on_c, 0, 57, 0
2, 480600, Note_on_c, 0, 69, 0
2, 480600, Note_on_c, 0, 67, 0
2, 480600, Note_on_c, 0, 67, 80
2, 480600, Note_on_c, 0, 70, 76
2, 480600, Note_on_c, 0, 43, 63
2, 480600, Note_on_c, 0, 50, 59
2, 480600, Note_on_c, 0, 58, 61
2, 480925, Note_on_c, 0, 58, 0
2, 480925, Note_on_c, 0, 43, 0
2, 480925, Note_on_c, 0, 50, 0
2, 481140, Note_on_c, 0, 58, 59
2, 481140, Note_on_c, 0, 62, 57
2, 481465, Note_on_c, 0, 62, 0
2, 481465, Note_on_c, 0, 58, 0
2, 481680, Note_on_c, 0, 70, 0
2, 481680, Note_on_c, 0, 67, 0
2, 481680, Note_on_c, 0, 67, 68
2, 481680, Note_on_c, 0, 41, 59
2, 481680, Note_on_c, 0, 53, 60
2, 482005, Note_on_c, 0, 53, 0
2, 482005, Note_on_c, 0, 41, 0
2, 482220, Note_on_c, 0, 55, 60
2, 482220, Note_on_c, 0, 58, 58
2, 482220, Note_on_c, 0, 62, 56
2, 482545, Note_on_c, 0, 62, 0
2, 482545, Note_on_c, 0, 58, 0
2, 482545, Note_on_c, 0, 55, 0
2, 482760, Note_on_c, 0, 39, 62
2, 482760, Note_on_c, 0, 51, 60
2, 483085, Note_on_c, 0, 51, 0
2, 483085, Note_on_c, 0, 39, 0
2, 483300, Note_on_c, 0, 55, 57
2, 483300, Note_on_c, 0, 58, 59
2, 483300, Note_on_c, 0, 63, 58
2, 483625, Note_on_c, 0, 63, 0
2, 483625, Note_on_c, 0, 58, 0
2, 483625, Note_on_c, 0, 55, 0
2, 483770, Note_on_c, 0, 67, 0
2, 483840, Note_on_c, 0, 65, 65
2, 483840, Note_on_c, 0, 38, 61
2, 483840, Note_on_c, 0, 50, 59
2, 484165, Note_on_c, 0, 50, 0
2, 484165, Note_on_c, 0, 38, 0
2, 484380, Note_on_c, 0, 55, 56
2, 484380, Note_on_c, 0, 59, 57
2, 484705, Note_on_c, 0, 59, 0
2, 484705, Note_on_c, 0, 55, 0
2, 484850, Note_on_c, 0, 65, 0
2, 484920, Note_on_c, 0, 67, 72
2, 484920, Note_on_c, 0, 36, 59
2, 484920, Note_on_c, 0, 48, 60
2, 485245, Note_on_c, 0, 48, 0
2, 485245, Note_on_c, 0, 36, 0
2, 485460, Note_on_c, 0, 55, 57
2, 485460, Note_on_c, 0, 60, 56
2, 485460, Note_on_c, 0, 63, 57
2, 485785, Note_on_c, 0, 63, 0
2, 485785, Note_on_c, 0, 60, 0
2, 485785, Note_on_c, 0, 55, 0
2, 486000, Note_on_c, 0, 33, 60
2, 486000, Note_on_c, 0, 45, 61
2, 486325, Note_on_c, 0, 45, 0
2, 486325, Note_on_c, 0, 33, 0
2, 486540, Note_on_c, 0, 55, 59
2, 486540, Note_on_c, 0, 62, 58
2, 486540, Note_on_c, 0, 65, 58
2, 486540, Note_on_c, 0, 35, 58
2, 486540, Note_on_c, 0, 47, 59
2, 486865, Note_on_c, 0, 47, 0
2, 486865, Note_on_c, 0, 55, 0
2, 486865, Note_on_c, 0, 62, 0
2, 486865, Note_on_c, 0, 65, 0
2, 486865, Note_on_c, 0, 35, 0
2, 487080, Note_on_c, 0, 36, 61
2, 487080, Note_on_c, 0, 48, 61
2, 487405, Note_on_c, 0, 48, 0
2, 487405, Note_on_c, 0, 36, 0
2, 487405, Note_on_c, 0, 67, 0
2, 487620, Note_on_c, 0, 68, 59
2, 487620, Note_on_c, 0, 56, 59
2, 487620, Note_on_c, 0, 60, 58
2, 487620, Note_on_c, 0, 64, 59
2, 487945, Note_on_c, 0, 64, 0
2, 487945, Note_on_c, 0, 60, 0
2, 487945, Note_on_c, 0, 56, 0
2, 488107, Note_on_c, 0, 68, 0
2, 488160, Note_on_c, 0, 70, 72
2, 488160, Note_on_c, 0, 38, 62
2, 488160, Note_on_c, 0, 50, 61
2, 488485, Note_on_c, 0, 50, 0
2, 488485, Note_on_c, 0, 38, 0
2, 488700, Note_on_c, 0, 58, 57
2, 488700, Note_on_c, 0, 60, 59
2, 488700, Note_on_c, 0, 67, 59
2, 488700, Note_on_c, 0, 40, 58
2, 488700, Note_on_c, 0, 52, 58
2, 489025, Note_on_c, 0, 52, 0
2, 489025, Note_on_c, 0, 58, 0
2, 489025, Note_on_c, 0, 60, 0
2, 489025, Note_on_c, 0, 67, 0
2, 489025, Note_on_c, 0, 40, 0
2, 489170, Note_on_c, 0, 70, 0
2, 489240, Note_on_c, 0, 68, 62
2, 489240, Note_on_c, 0, 41, 62
2, 489240, Note_on_c, 0, 53, 61
2, 489565, Note_on_c, 0, 53, 0
2, 489565, Note_on_c, 0, 41, 0
2, 489565, Note_on_c, 0, 68, 0
2, 489780, Note_on_c, 0, 70, 56
2, 489780, Note_on_c, 0, 60, 56
2, 489780, Note_on_c, 0, 65, 58
2, 490105, Note_on_c, 0, 65, 0
2, 490105, Note_on_c, 0, 60, 0
2, 490267, Note_on_c, 0, 70, 0
2, 490320, Note_on_c, 0, 72, 77
2, 490320, Note_on_c, 0, 48, 62
2, 490645, Note_on_c, 0, 48, 0
2, 490860, Note_on_c, 0, 60, 58
2, 490860, Note_on_c, 0, 65, 56
2, 490860, Note_on_c, 0, 68, 57
2, 491185, Note_on_c, 0, 68, 0
2, 491185, Note_on_c, 0, 65, 0
2, 491185, Note_on_c, 0, 60, 0
2, 491400, Note_on_c, 0, 44, 60
2, 491400, Note_on_c, 0, 56, 62
2, 491725, Note_on_c, 0, 56, 0
2, 491725, Note_on_c, 0, 44, 0
2, 491940, Note_on_c, 0, 60, 60
2, 491940, Note_on_c, 0, 65, 57
2, 492265, Note_on_c, 0, 65, 0
2, 492265, Note_on_c, 0, 60, 0
2, 492410, Note_on_c, 0, 72, 0
2, 492480, Note_on_c, 0, 70, 66
2, 492480, Note_on_c, 0, 43, 63
2, 492480, Note_on_c, 0, 55, 59
2, 492805, Note_on_c, 0, 55, 0
2, 492805, Note_on_c, 0, 43, 0
2, 493020, Note_on_c, 0, 60, 59
2, 493020, Note_on_c, 0, 64, 57
2, 493345, Note_on_c, 0, 64, 0
2, 493345, Note_on_c, 0, 60, 0
2, 493490, Note_on_c, 0, 70, 0
2, 493560, Note_on_c, 0, 72, 75
2, 493560, Note_on_c, 0, 41, 60
2, 493560, Note_on_c, 0, 53, 61
2, 493885, Note_on_c, 0, 53, 0
2, 493885, Note_on_c, 0, 41, 0
2, 494100, Note_on_c, 0, 60, 58
2, 494100, Note_on_c, 0, 65, 57
2, 494100, Note_on_c, 0, 68, 58
2, 494425, Note_on_c, 0, 68, 0
2, 494425, Note_on_c, 0, 65, 0
2, 494425, Note_on_c, 0, 60, 0
2, 494640, Note_on_c, 0, 41, 62
2, 494640, Note_on_c, 0, 53, 60
2, 494965, Note_on_c, 0, 53, 0
2, 494965, Note_on_c, 0, 41, 0
2, 494965, Note_on_c, 0, 72, 0
2, 495180, Note_on_c, 0, 75, 58
2, 495180, Note_on_c, 0, 63, 60
2, 495180, Note_on_c, 0, 69, 58
2, 495180, Note_on_c, 0, 72, 58
2, 495180, Note_on_c, 0, 42, 57
2, 495180, Note_on_c, 0, 54, 58
2, 495505, Note_on_c, 0, 54, 0
2, 495505, Note_on_c, 0, 63, 0
2, 495505, Note_on_c, 0, 69, 0
2, 495505, Note_on_c, 0, 72, 0
2, 495505, Note_on_c, 0, 42, 0
2, 495667, Note_on_c, 0, 75, 0
2, 495720, Note_on_c, 0, 74, 64
2, 495720, Note_on_c, 0, 43, 60
2, 495720, Note_on_c, 0, 55, 61
2, 496045, Note_on_c, 0, 55, 0
2, 496045, Note_on_c, 0, 43, 0
2, 496260, Note_on_c, 0, 63, 58
2, 496260, Note_on_c, 0, 67, 57
2, 496260, Note_on_c, 0, 72, 60
2, 496585, Note_on_c, 0, 72, 0
2, 496585, Note_on_c, 0, 67, 0
2, 496585, Note_on_c, 0, 63, 0
2, 496800, Note_on_c, 0, 62, 60
2, 496800, Note_on_c, 0, 67, 59
2, 496800, Note_on_c, 0, 71, 59
2, 497125, Note_on_c, 0, 71, 0
2, 497125, Note_on_c, 0, 67, 0
2, 497125, Note_on_c, 0, 62, 0
2, 497287, Note_on_c, 0, 74, 0
2, 497340, Note_on_c, 0, 75, 74
2, 497340, Note_on_c, 0, 60, 57
2, 497665, Note_on_c, 0, 60, 0
2, 497880, Note_on_c, 0, 75, 0
2, 497880, Note_on_c, 0, 77, 80
2, 497880, Note_on_c, 0, 59, 63
2, 498205, Note_on_c, 0, 59, 0
2, 498420, Note_on_c, 0, 77, 0
2, 498420, Note_on_c, 0, 79, 76
2, 498420, Note_on_c, 0, 67, 57
2, 498420, Note_on_c, 0, 74, 57
2, 498745, Note_on_c, 0, 74, 0
2, 498745, Note_on_c, 0, 67, 0
2, 498960, Note_on_c, 0, 79, 0
2, 498960, Note_on_c, 0, 77, 78
2, 498960, Note_on_c, 0, 80, 81
2, 498960, Note_on_c, 0, 53, 60
2, 498960, Note_on_c, 0, 60, 62
2, 498960, Note_on_c, 0, 68, 62
2, 499285, Note_on_c, 0, 68, 0
2, 499285, Note_on_c, 0, 53, 0
2, 499285, Note_on_c, 0, 60, 0
2, 499500, Note_on_c, 0, 68, 59
2, 499500, Note_on_c, 0, 72, 59
2, 499825, Note_on_c, 0, 72, 0
2, 499825, Note_on_c, 0, 68, 0
2, 500040, Note_on_c, 0, 80, 0
2, 500040, Note_on_c, 0, 77, 0
2, 500040, Note_on_c, 0, 75, 69
2, 500040, Note_on_c, 0, 79, 72
2, 500040, Note_on_c, 0, 48, 59
2, 500040, Note_on_c, 0, 55, 62
2, 500040, Note_on_c, 0, 63, 61
2, 500365, Note_on_c, 0, 63, 0
2, 500365, Note_on_c, 0, 48, 0
2, 500365, Note_on_c, 0, 55, 0
2, 500580, Note_on_c, 0, 67, 59
2, 500580, Note_on_c, 0, 72, 60
2, 500905, Note_on_c, 0, 72, 0
2, 500905, Note_on_c, 0, 67, 0
2, 501120, Note_on_c, 0, 51, 62
2, 501120, Note_on_c, 0, 58, 60
2, 501120, Note_on_c, 0, 67, 62
2, 501445, Note_on_c, 0, 67, 0
2, 501445, Note_on_c, 0, 51, 0
2, 501445, Note_on_c, 0, 58, 0
2, 501660, Note_on_c, 0, 67, 57
2, 501660, Note_on_c, 0, 70, 57
2, 501985, Note_on_c, 0, 70, 0
2, 501985, Note_on_c, 0, 67, 0
2, 502130, Note_on_c, 0, 79, 0
2, 502130, Note_on_c, 0, 75, 0
2, 502200, Note_on_c, 0, 73, 68
2, 502200, Note_on_c, 0, 77, 70
2, 502200, Note_on_c, 0, 46, 61
2, 502200, Note_on_c, 0, 53, 60
2, 502200, Note_on_c, 0, 61, 59
2, 502525, Note_on_c, 0, 61, 0
2, 502525, Note_on_c, 0, 46, 0
2, 502525, Note_on_c, 0, 53, 0
2, 502740, Note_on_c, 0, 65, 57
2, 502740, Note_on_c, 0, 70, 58
2, 503065, Note_on_c, 0, 70, 0
2, 503065, Note_on_c, 0, 65, 0
2, 503280, Note_on_c, 0, 49, 61
2, 503280, Note_on_c, 0, 56, 61
2, 503280, Note_on_c, 0, 65, 59
2, 503605, Note_on_c, 0, 65, 0
2, 503605, Note_on_c, 0, 49, 0
2, 503605, Note_on_c, 0, 56, 0
2, 503820, Note_on_c, 0, 70, 58
2, 503820, Note_on_c, 0, 74, 59
2, 504145, Note_on_c, 0, 74, 0
2, 504145, Note_on_c, 0, 70, 0
2, 504290, Note_on_c, 0, 77, 0
2, 504290, Note_on_c, 0, 73, 0
2, 504360, Note_on_c, 0, 72, 68
2, 504360, Note_on_c, 0, 75, 69
2, 504360, Note_on_c, 0, 44, 61
2, 504360, Note_on_c, 0, 51, 62
2, 504360, Note_on_c, 0, 60, 60
2, 504685, Note_on_c, 0, 60, 0
2, 504685, Note_on_c, 0, 44, 0
2, 504685, Note_on_c, 0, 51, 0
2, 504900, Note_on_c, 0, 63, 57
2, 504900, Note_on_c, 0, 68, 57
2, 505225, Note_on_c, 0, 68, 0
2, 505225, Note_on_c, 0, 63, 0
2, 505440, Note_on_c, 0, 75, 0
2, 505440, Note_on_c, 0, 72, 0
2, 505440, Note_on_c, 0, 72, 72
2, 505440, Note_on_c, 0, 74, 71
2, 505440, Note_on_c, 0, 41, 59
2, 505440, Note_on_c, 0, 48, 61
2, 505440, Note_on_c, 0, 56, 59
2, 505765, Note_on_c, 0, 56, 0
2, 505765, Note_on_c, 0, 41, 0
2, 505765, Note_on_c, 0, 48, 0
2, 505980, Note_on_c, 0, 62, 57
2, 505980, Note_on_c, 0, 68, 58
2, 506305, Note_on_c, 0, 68, 0
2, 506305, Note_on_c, 0, 62, 0
2, 506520, Note_on_c, 0, 74, 0
2, 506520, Note_on_c, 0, 72, 0
2, 506520, Note_on_c, 0, 72, 79
2, 506520, Note_on_c, 0, 75, 77
2, 506520, Note_on_c, 0, 48, 60
2, 506520, Note_on_c, 0, 55, 60
2, 506520, Note_on_c, 0, 63, 62
2, 506845, Note_on_c, 0, 63, 0
2, 506845, Note_on_c, 0, 48, 0
2, 506845, Note_on_c, 0, 55, 0
2, 507060, Note_on_c, 0, 63, 58
2, 507060, Note_on_c, 0, 67, 59
2, 507385, Note_on_c, 0, 67, 0
2, 507385, Note_on_c, 0, 63, 0
2, 507600, Note_on_c, 0, 75, 0
2, 507600, Note_on_c, 0, 72, 0
2, 507600, Note_on_c, 0, 72, 74
2, 507600, Note_on_c, 0, 75, 75
2, 507600, Note_on_c, 0, 48, 61
2, 507600, Note_on_c, 0, 55, 63
2, 507600, Note_on_c, 0, 63, 63
2, 507925, Note_on_c, 0, 63, 0
2, 507925, Note_on_c, 0, 48, 0
2, 507925, Note_on_c, 0, 55, 0
2, 508140, Note_on_c, 0, 63, 59
2, 508140, Note_on_c, 0, 67, 59
2, 508465, Note_on_c, 0, 67, 0
2, 508465, Note_on_c, 0, 63, 0
2, 508680, Note_on_c, 0, 75, 0
2, 508680, Note_on_c, 0, 72, 0
2, 508680, Note_on_c, 0, 70, 72
2, 508680, Note_on_c, 0, 74, 70
2, 508680, Note_on_c, 0, 43, 62
2, 508680, Note_on_c, 0, 50, 60
2, 508680, Note_on_c, 0, 58, 59
2, 509005, Note_on_c, 0, 58, 0
2, 509005, Note_on_c, 0, 43, 0
2, 509005, Note_on_c, 0, 50, 0
2, 509220, Note_on_c, 0, 62, 58
2, 509220, Note_on_c, 0, 67, 57
2, 509545, Note_on_c, 0, 67, 0
2, 509545, Note_on_c, 0, 62, 0
2, 509760, Note_on_c, 0, 46, 61
2, 509760, Note_on_c, 0, 53, 62
2, 509760, Note_on_c, 0, 62, 62
2, 510085, Note_on_c, 0, 62, 0
2, 510085, Note_on_c, 0, 46, 0
2, 510085, Note_on_c, 0, 53, 0
2, 510300, Note_on_c, 0, 62, 57
2, 510300, Note_on_c, 0, 65, 59
2, 510625, Note_on_c, 0, 65, 0
2, 510625, Note_on_c, 0, 62, 0
2, 510770, Note_on_c, 0, 74, 0
2, 510770, Note_on_c, 0, 70, 0
2, 510840, Note_on_c, 0, 68, 70
2, 510840, Note_on_c, 0, 72, 68
2, 510840, Note_on_c, 0, 41, 62
2, 510840, Note_on_c, 0, 48, 63
2, 510840, Note_on_c, 0, 56, 62
2, 511165, Note_on_c, 0, 56, 0
2, 511165, Note_on_c, 0, 41, 0
2, 511165, Note_on_c, 0, 48, 0
2, 511380, Note_on_c, 0, 60, 56
2, 511380, Note_on_c, 0, 65, 60
2, 511705, Note_on_c, 0, 65, 0
2, 511705, Note_on_c, 0, 60, 0
2, 511920, Note_on_c, 0, 44, 60
2, 511920, Note_on_c, 0, 51, 60
2, 511920, Note_on_c, 0, 60, 62
2, 512245, Note_on_c, 0, 60, 0
2, 512245, Note_on_c, 0, 44, 0
2, 512245, Note_on_c, 0, 51, 0
2, 512460, Note_on_c, 0, 60, 56
2, 512460, Note_on_c, 0, 63, 58
2, 512785, Note_on_c, 0, 63, 0
2, 512785, Note_on_c, 0, 60, 0
2, 512930, Note_on_c, 0, 72, 0
2, 512930, Note_on_c, 0, 68, 0
2, 513000, Note_on_c, 0, 67, 68
2, 513000, Note_on_c, 0, 70, 69
2, 513000, Note_on_c, 0, 39, 62
2, 513000, Note_on_c, 0, 46, 62
2, 513000, Note_on_c, 0, 55, 60
2, 513325, Note_on_c, 0, 55, 0
2, 513325, Note_on_c, 0, 39, 0
2, 513325, Note_on_c, 0, 46, 0
2, 513540, Note_on_c, 0, 58, 58
2, 513540, Note_on_c, 0, 63, 56
2, 513865, Note_on_c, 0, 63, 0
2, 513865, Note_on_c, 0, 58, 0
2, 514080, Note_on_c, 0, 70, 0
2, 514080, Note_on_c, 0, 67, 0
2, 514080, Note_on_c, 0, 67, 70
2, 514080, Note_on_c, 0, 69, 71
2, 514080, Note_on_c, 0, 36, 62
2, 514080, Note_on_c, 0, 43, 59
2, 514080, Note_on_c, 0, 51, 63
2, 514405, Note_on_c, 0, 51, 0
2, 514405, Note_on_c, 0, 36, 0
2, 514405, Note_on_c, 0, 43, 0
2, 514620, Note_on_c, 0, 57, 59
2, 514620, Note_on_c, 0, 63, 57
2, 514945, Note_on_c, 0, 63, 0
2, 514945, Note_on_c, 0, 57, 0
2, 515160, Note_on_c, 0, 69, 0
2, 515160, Note_on_c, 0, 67, 0
2, 515160, Note_on_c, 0, 67, 77
2, 515160, Note_on_c, 0, 70, 78
2, 515160, Note_on_c, 0, 43, 61
2, 515160, Note_on_c, 0, 50, 63
2, 515160, Note_on_c, 0, 58, 63
2, 515485, Note_on_c, 0, 58, 0
2, 515485, Note_on_c, 0, 43, 0
2, 515485, Note_on_c, 0, 50, 0
2, 515700, Note_on_c, 0, 58, 59
2, 515700, Note_on_c, 0, 62, 57
2, 516025, Note_on_c, 0, 62, 0
2, 516025, Note_on_c, 0, 58, 0
2, 516240, Note_on_c, 0, 70, 0
2, 516240, Note_on_c, 0, 67, 0
2, 516240, Note_on_c, 0, 67, 76
2, 516240, Note_on_c, 0, 70, 74
2, 516240, Note_on_c, 0, 40, 61
2, 516240, Note_on_c, 0, 48, 63
2, 516240, Note_on_c, 0, 55, 62
2, 516565, Note_on_c, 0, 55, 0
2, 516565, Note_on_c, 0, 40, 0
2, 516565, Note_on_c, 0, 48, 0
2, 516780, Note_on_c, 0, 58, 59
2, 516780, Note_on_c, 0, 60, 60
2, 517105, Note_on_c, 0, 60, 0
2, 517105, Note_on_c, 0, 58, 0
2, 517320, Note_on_c, 0, 70, 0
2, 517320, Note_on_c, 0, 67, 0
2, 517320, Note_on_c, 0, 65, 69
2, 517320, Note_on_c, 0, 68, 69
2, 517320, Note_on_c, 0, 41, 63
2, 517320, Note_on_c, 0, 48, 61
2, 517320, Note_on_c, 0, 56, 60
2, 517645, Note_on_c, 0, 56, 0
2, 517645, Note_on_c, 0, 41, 0
2, 517645, Note_on_c, 0, 48, 0
2, 517860, Note_on_c, 0, 56, 56
2, 517860, Note_on_c, 0, 60, 57
2, 518185, Note_on_c, 0, 60, 0
2, 518185, Note_on_c, 0, 56, 0
2, 518400, Note_on_c, 0, 38, 62
2, 518400, Note_on_c, 0, 46, 62
2, 518400, Note_on_c, 0, 53, 61
2, 518725, Note_on_c, 0, 53, 0
2, 518725, Note_on_c, 0, 38, 0
2, 518725, Note_on_c, 0, 46, 0
2, 518940, Note_on_c, 0, 56, 58
2, 518940, Note_on_c, 0, 58, 57
2, 519265, Note_on_c, 0, 58, 0
2, 519265, Note_on_c, 0, 56, 0
2, 519410, Note_on_c, 0, 68, 0
2, 519410, Note_on_c, 0, 65, 0
2, 519480, Note_on_c, 0, 63, 70
2, 519480, Note_on_c, 0, 67, 70
2, 519480, Note_on_c, 0, 39, 61
2, 519480, Note_on_c, 0, 46, 62
2, 519480, Note_on_c, 0, 55, 60
2, 519805, Note_on_c, 0, 55, 0
2, 519805, Note_on_c, 0, 39, 0
2, 519805, Note_on_c, 0, 46, 0
2, 520020, Note_on_c, 0, 55, 56
2, 520020, Note_on_c, 0, 58, 59
2, 520345, Note_on_c, 0, 58, 0
2, 520345, Note_on_c, 0, 55, 0
2, 520560, Note_on_c, 0, 36, 61
2, 520560, Note_on_c, 0, 44, 60
2, 520560, Note_on_c, 0, 51, 63
2, 520885, Note_on_c, 0, 51, 0
2, 520885, Note_on_c, 0, 36, 0
2, 520885, Note_on_c, 0, 44, 0
2, 521100, Note_on_c, 0, 55, 57
2, 521100, Note_on_c, 0, 56, 57
2, 521425, Note_on_c, 0, 56, 0
2, 521425, Note_on_c, 0, 55, 0
2, 521570, Note_on_c, 0, 67, 0
2, 521570, Note_on_c, 0, 63, 0
2, 521640, Note_on_c, 0, 61, 68
2, 521640, Note_on_c, 0, 65, 69
2, 521640, Note_on_c, 0, 37, 47
2, 521640, Note_on_c, 0, 49, 46
2, 521965, Note_on_c, 0, 49, 0
2, 521965, Note_on_c, 0, 37, 0
2, 522180, Note_on_c, 0, 53, 60
2, 522180, Note_on_c, 0, 56, 58
2, 522180, Note_on_c, 0, 36, 58
2, 522180, Note_on_c, 0, 48, 57
2, 522505, Note_on_c, 0, 48, 0
2, 522505, Note_on_c, 0, 56, 0
2, 522505, Note_on_c, 0, 53, 0
2, 522505, Note_on_c, 0, 36, 0
2, 522720, Note_on_c, 0, 61, 0
2, 522720, Note_on_c, 0, 62, 73
2, 522720, Note_on_c, 0, 35, 60
2, 522720, Note_on_c, 0, 47, 59
2, 523045, Note_on_c, 0, 47, 0
2, 523045, Note_on_c, 0, 35, 0
2, 523260, Note_on_c, 0, 53, 59
2, 523260, Note_on_c, 0, 55, 58
2, 523585, Note_on_c, 0, 55, 0
2, 523585, Note_on_c, 0, 53, 0
2, 523800, Note_on_c, 0, 62, 0
2, 523800, Note_on_c, 0, 65, 0
2, 523800, Note_on_c, 0, 60, 68
2, 523800, Note_on_c, 0, 63, 69
2, 523800, Note_on_c, 0, 36, 60
2, 523800, Note_on_c, 0, 48, 61
2, 524125, Note_on_c, 0, 48, 0
2, 524125, Note_on_c, 0, 36, 0
2, 524340, Note_on_c, 0, 51, 59
2, 524340, Note_on_c, 0, 55, 58
2, 524665, Note_on_c, 0, 55, 0
2, 524665, Note_on_c, 0, 51, 0
2, 524880, Note_on_c, 0, 63, 0
2, 524880, Note_on_c, 0, 60, 0
2, 524880, Note_on_c, 0, 58, 69
2, 524880, Note_on_c, 0, 61, 70
2, 524880, Note_on_c, 0, 29, 59
2, 524880, Note_on_c, 0, 41, 62
2, 525205, Note_on_c, 0, 41, 0
2, 525205, Note_on_c, 0, 29, 0
2, 525420, Note_on_c, 0, 49, 60
2, 525420, Note_on_c, 0, 53, 59
2, 525745, Note_on_c, 0, 53, 0
2, 525745, Note_on_c, 0, 49, 0
2, 525960, Note_on_c, 0, 58, 0
2, 525960, Note_on_c, 0, 57, 76
2, 525960, Note_on_c, 0, 41, 61
2, 526285, Note_on_c, 0, 41, 0
2, 526500, Note_on_c, 0, 49, 58
2, 526500, Note_on_c, 0, 53, 59
2, 526500, Note_on_c, 0, 29, 57
2, 526825, Note_on_c, 0, 29, 0
2, 526825, Note_on_c, 0, 49, 0
2, 526825, Note_on_c, 0, 53, 0
2, 527040, Note_on_c, 0, 57, 0
2, 527040, Note_on_c, 0, 56, 68
2, 527040, Note_on_c, 0, 59, 69
2, 527040, Note_on_c, 0, 31, 63
2, 527040, Note_on_c, 0, 43, 59
2, 527365, Note_on_c, 0, 43, 0
2, 527365, Note_on_c, 0, 31, 0
2, 527580, Note_on_c, 0, 50, 59
2, 527580, Note_on_c, 0, 53, 60
2, 527905, Note_on_c, 0, 53, 0
2, 527905, Note_on_c, 0, 50, 0
2, 528120, Note_on_c, 0, 56, 0
2, 528120, Note_on_c, 0, 55, 75
2, 528120, Note_on_c, 0, 43, 61
2, 528445, Note_on_c, 0, 43, 0
2, 528660, Note_on_c, 0, 50, 60
2, 528660, Note_on_c, 0, 53, 58
2, 528660, Note_on_c, 0, 31, 57
2, 528985, Note_on_c, 0, 31, 0
2, 528985, Note_on_c, 0, 50, 0
2, 528985, Note_on_c, 0, 53, 0
2, 529200, Note_on_c, 0, 59, 0
2, 529200, Note_on_c, 0, 55, 0
2, 529200, Note_on_c, 0, 60, 79
2, 529200, Note_on_c, 0, 36, 60
2, 529200, Note_on_c, 0, 43, 62
2, 529525, Note_on_c, 0, 43, 0
2, 529525, Note_on_c, 0, 36, 0
2, 529740, Note_on_c, 0, 48, 56
2, 529740, Note_on_c, 0, 51, 57
2, 530065, Note_on_c, 0, 51, 0
2, 530065, Note_on_c, 0, 48, 0
2, 530820, Note_on_c, 0, 60, 0
2, 530820, Note_on_c, 0, 62, 69
2, 530820, Note_on_c, 0, 53, 59
2, 530820, Note_on_c, 0, 59, 58
2, 530820, Note_on_c, 0, 31, 58
2, 530820, Note_on_c, 0, 43, 60
2, 531145, Note_on_c, 0, 43, 0
2, 531145, Note_on_c, 0, 62, 0
2, 531145, Note_on_c, 0, 53, 0
2, 531145, Note_on_c, 0, 59, 0
2, 531145, Note_on_c, 0, 31, 0
2, 531180, Note_on_c, 0, 63, 70
2, 531343, Note_on_c, 0, 63, 0
2, 531360, Note_on_c, 0, 60, 70
2, 531360, Note_on_c, 0, 36, 62
2, 531360, Note_on_c, 0, 43, 62
2, 531685, Note_on_c, 0, 43, 0
2, 531685, Note_on_c, 0, 36, 0
2, 531900, Note_on_c, 0, 48, 58
2, 531900, Note_on_c, 0, 51, 57
2, 532225, Note_on_c, 0, 51, 0
2, 532225, Note_on_c, 0, 48, 0
2, 532980, Note_on_c, 0, 60, 0
2, 532980, Note_on_c, 0, 62, 69
2, 532980, Note_on_c, 0, 53, 57
2, 532980, Note_on_c, 0, 59, 58
2, 532980, Note_on_c, 0, 31, 60
2, 532980, Note_on_c, 0, 43, 57
2, 533305, Note_on_c, 0, 43, 0
2, 533305, Note_on_c, 0, 62, 0
2, 533305, Note_on_c, 0, 53, 0
2, 533305, Note_on_c, 0, 59, 0
2, 533305, Note_on_c, 0, 31, 0
2, 533340, Note_on_c, 0, 63, 68
2, 533503, Note_on_c, 0, 63, 0
2, 533520, Note_on_c, 0, 60, 63
2, 533520, Note_on_c, 0, 36, 61
2, 533520, Note_on_c, 0, 48, 61
2, 533845, Note_on_c, 0, 48, 0
2, 533845, Note_on_c, 0, 36, 0
2, 534060, Note_on_c, 0, 51, 58
2, 534060, Note_on_c, 0, 55, 60
2, 534385, Note_on_c, 0, 55, 0
2, 534385, Note_on_c, 0, 51, 0
2, 534530, Note_on_c, 0, 60, 0
2, 534600, Note_on_c, 0, 63, 80
2, 534600, Note_on_c, 0, 34, 63
2, 534600, Note_on_c, 0, 46, 63
2, 534925, Note_on_c, 0, 46, 0
2, 534925, Note_on_c, 0, 34, 0
2, 535140, Note_on_c, 0, 55, 59
2, 535140, Note_on_c, 0, 61, 59
2, 535465, Note_on_c, 0, 55, 0
2, 535465, Note_on_c, 0, 61, 0
2, 535680, Note_on_c, 0, 63, 0
2, 535680, Note_on_c, 0, 68, 84
2, 535680, Note_on_c, 0, 32, 63
2, 535680, Note_on_c, 0, 44, 62
2, 536005, Note_on_c, 0, 44, 0
2, 536005, Note_on_c, 0, 32, 0
2, 536220, Note_on_c, 0, 54, 57
2, 536220, Note_on_c, 0, 60, 56
2, 536545, Note_on_c, 0, 60, 0
2, 536545, Note_on_c, 0, 54, 0
2, 536760, Note_on_c, 0, 68, 0
2, 536760, Note_on_c, 0, 63, 67
2, 536760, Note_on_c, 0, 31, 61
2, 536760, Note_on_c, 0, 43, 60
2, 537085, Note_on_c, 0, 43, 0
2, 537085, Note_on_c, 0, 31, 0
2, 537300, Note_on_c, 0, 53, 57
2, 537300, Note_on_c, 0, 59, 59
2, 537625, Note_on_c, 0, 59, 0
2, 537625, Note_on_c, 0, 53, 0
2, 537840, Note_on_c, 0, 63, 0
2, 537840, Note_on_c, 0, 60, 66
2, 537840, Note_on_c, 0, 36, 62
2, 537840, Note_on_c, 0, 43, 61
2, 538165, Note_on_c, 0, 43, 0
2, 538165, Note_on_c, 0, 36, 0
2, 538380, Note_on_c, 0, 48, 57
2, 538380, Note_on_c, 0, 51, 57
2, 538705, Note_on_c, 0, 51, 0
2, 538705, Note_on_c, 0, 48, 0
2, 538920, Note_on_c, 0, 60, 0
2, 538920, Note_on_c, 0, 60, 69
2, 538920, Note_on_c, 0, 36, 60
2, 538920, Note_on_c, 0, 43, 60
2, 539083, Note_on_c, 0, 60, 0
2, 539100, Note_on_c, 0, 59, 62
2, 539245, Note_on_c, 0, 43, 0
2, 539245, Note_on_c, 0, 36, 0
2, 539263, Note_on_c, 0, 59, 0
2, 539280, Note_on_c, 0, 60, 69
2, 539443, Note_on_c, 0, 60, 0
2, 539460, Note_on_c, 0, 62, 71
2, 539460, Note_on_c, 0, 53, 57
2, 539460, Note_on_c, 0, 59, 56
2, 539460, Note_on_c, 0, 31, 59
2, 539460, Note_on_c, 0, 43, 59
2, 539785, Note_on_c, 0, 43, 0
2, 539785, Note_on_c, 0, 62, 0
2, 539785, Note_on_c, 0, 53, 0
2, 539785, Note_on_c, 0, 59, 0
2, 539785, Note_on_c, 0, 31, 0
2, 539820, Note_on_c, 0, 63, 70
2, 539983, Note_on_c, 0, 63, 0
2, 540000, Note_on_c, 0, 60, 68
2, 540000, Note_on_c, 0, 36, 62
2, 540000, Note_on_c, 0, 43, 62
2, 540325, Note_on_c, 0, 43, 0
2, 540325, Note_on_c, 0, 36, 0
2, 540540, Note_on_c, 0, 48, 59
2, 540540, Note_on_c, 0, 51, 58
2, 540865, Note_on_c, 0, 51, 0
2, 540865, Note_on_c, 0, 48, 0
2, 541080, Note_on_c, 0, 60, 0
2, 541080, Note_on_c, 0, 60, 69
2, 541080, Note_on_c, 0, 36, 61
2, 541080, Note_on_c, 0, 43, 61
2, 541243, Note_on_c, 0, 60, 0
2, 541260, Note_on_c, 0, 59, 64
2, 541405, Note_on_c, 0, 43, 0
2, 541405, Note_on_c, 0, 36, 0
2, 541423, Note_on_c, 0, 59, 0
2, 541440, Note_on_c, 0, 60, 70
2, 541603, Note_on_c, 0, 60, 0
2, 541620, Note_on_c, 0, 62, 68
2, 541620, Note_on_c, 0, 53, 56
2, 541620, Note_on_c, 0, 59, 57
2, 541620, Note_on_c, 0, 31, 60
2, 541620, Note_on_c, 0, 43, 57
2, 541797, Note_on_c, 0, 43, 0
2, 541797, Note_on_c, 0, 31, 0
2, 541945, Note_on_c, 0, 53, 0
2, 541945, Note_on_c, 0, 59, 0
2, 541945, Note_on_c, 0, 62, 0
2, 541980, Note_on_c, 0, 63, 72
2, 542143, Note_on_c, 0, 63, 0
2, 542160, Note_on_c, 0, 60, 67
2, 542160, Note_on_c, 0, 36, 63
2, 542160, Note_on_c, 0, 43, 59
2, 542485, Note_on_c, 0, 43, 0
2, 542485, Note_on_c, 0, 36, 0
2, 542700, Note_on_c, 0, 48, 57
2, 542700, Note_on_c, 0, 51, 60
2, 542970, Note_on_c, 0, 34, 56
2, 543025, Note_on_c, 0, 51, 0
2, 543025, Note_on_c, 0, 48, 0
2, 543213, Note_on_c, 0, 34, 0
2, 543240, Note_on_c, 0, 60, 0
2, 543240, Note_on_c, 0, 63, 80
2, 543240, Note_on_c, 0, 32, 85
2, 543240, Note_on_c, 0, 44, 85
2, 543565, Note_on_c, 0, 44, 0
2, 543565, Note_on_c, 0, 32, 0
2, 543780, Note_on_c, 0, 54, 56
2, 543780, Note_on_c, 0, 60, 58
2, 544050, Note_on_c, 0, 39, 59
2, 544105, Note_on_c, 0, 60, 0
2, 544105, Note_on_c, 0, 54, 0
2, 544293, Note_on_c, 0, 39, 0
2, 544320, Note_on_c, 0, 63, 0
2, 544320, Note_on_c, 0, 68, 86
2, 544320, Note_on_c, 0, 38, 64
2, 544645, Note_on_c, 0, 38, 0
2, 544860, Note_on_c, 0, 53, 57
2, 544860, Note_on_c, 0, 60, 59
2, 545130, Note_on_c, 0, 32, 59
2, 545185, Note_on_c, 0, 60, 0
2, 545185, Note_on_c, 0, 53, 0
2, 545373, Note_on_c, 0, 32, 0
2, 545400, Note_on_c, 0, 68, 0
2, 545400, Note_on_c, 0, 63, 67
2, 545400, Note_on_c, 0, 31, 88
2, 545400, Note_on_c, 0, 43, 88
2, 545725, Note_on_c, 0, 43, 0
2, 545725, Note_on_c, 0, 31, 0
2, 545940, Note_on_c, 0, 53, 58
2, 545940, Note_on_c, 0, 59, 57
2, 546265, Note_on_c, 0, 59, 0
2, 546265, Note_on_c, 0, 53, 0
2, 546480, Note_on_c, 0, 63, 0
2, 546480, Note_on_c, 0, 61, 0
2, 546660, Note_on_c, 0, 60, 58
2, 546660, Note_on_c, 0, 48, 57
2, 546823, Note_on_c, 0, 48, 0
2, 546823, Note_on_c, 0, 60, 0
2, 546840, Note_on_c, 0, 62, 71
2, 546840, Note_on_c, 0, 50, 70
2, 547003, Note_on_c, 0, 50, 0
2, 547003, Note_on_c, 0, 62, 0
2, 547020, Note_on_c, 0, 63, 70
2, 547020, Note_on_c, 0, 51, 70
2, 547345, Note_on_c, 0, 51, 0
2, 547345, Note_on_c, 0, 63, 0
2, 547380, Note_on_c, 0, 62, 61
2, 547380, Note_on_c, 0, 50, 63
2, 547543, Note_on_c, 0, 50, 0
2, 547543, Note_on_c, 0, 62, 0
2, 547560, Note_on_c, 0, 63, 72
2, 547560, Note_on_c, 0, 51, 71
2, 547723, Note_on_c, 0, 51, 0
2, 547723, Note_on_c, 0, 63, 0
2, 547740, Note_on_c, 0, 65, 73
2, 547740, Note_on_c, 0, 53, 71
2, 547903, Note_on_c, 0, 53, 0
2, 547903, Note_on_c, 0, 65, 0
2, 547920, Note_on_c, 0, 66, 69
2, 547920, Note_on_c, 0, 54, 68
2, 548083, Note_on_c, 0, 54, 0
2, 548083, Note_on_c, 0, 66, 0
2, 548100, Note_on_c, 0, 67, 72
2, 548100, Note_on_c, 0, 55, 72
2, 548425, Note_on_c, 0, 55, 0
2, 548425, Note_on_c, 0, 67, 0
2, 548460, Note_on_c, 0, 65, 62
2, 548460, Note_on_c, 0, 53, 63
2, 548623, Note_on_c, 0, 53, 0
2, 548623, Note_on_c, 0, 65, 0
2, 548640, Note_on_c, 0, 67, 74
2, 548640, Note_on_c, 0, 55, 74
2, 548803, Note_on_c, 0, 55, 0
2, 548803, Note_on_c, 0, 67, 0
2, 548820, Note_on_c, 0, 68, 70
2, 548820, Note_on_c, 0, 56, 69
2, 548983, Note_on_c, 0, 56, 0
2, 548983, Note_on_c, 0, 68, 0
2, 549000, Note_on_c, 0, 69, 69
2, 549000, Note_on_c, 0, 57, 70
2, 549163, Note_on_c, 0, 57, 0
2, 549163, Note_on_c, 0, 69, 0
2, 549180, Note_on_c, 0, 70, 69
2, 549180, Note_on_c, 0, 58, 71
2, 549505, Note_on_c, 0, 58, 0
2, 549505, Note_on_c, 0, 70, 0
2, 549540, Note_on_c, 0, 67, 60
2, 549540, Note_on_c, 0, 55, 62
2, 549703, Note_on_c, 0, 55, 0
2, 549703, Note_on_c, 0, 67, 0
2, 549720, Note_on_c, 0, 68, 71
2, 549720, Note_on_c, 0, 56, 73
2, 549883, Note_on_c, 0, 56, 0
2, 549883, Note_on_c, 0, 68, 0
2, 549900, Note_on_c, 0, 70, 69
2, 549900, Note_on_c, 0, 58, 71
2, 550063, Note_on_c, 0, 58, 0
2, 550063, Note_on_c, 0, 70, 0
2, 550080, Note_on_c, 0, 71, 69
2, 550080, Note_on_c, 0, 59, 68
2, 550243, Note_on_c, 0, 59, 0
2, 550243, Note_on_c, 0, 71, 0
2, 550260, Note_on_c, 0, 72, 69
2, 550260, Note_on_c, 0, 60, 71
2, 550585, Note_on_c, 0, 60, 0
2, 550585, Note_on_c, 0, 72, 0
2, 550620, Note_on_c, 0, 72, 66
2, 550620, Note_on_c, 0, 60, 64
2, 550783, Note_on_c, 0, 60, 0
2, 550783, Note_on_c, 0, 72, 0
2, 550800, Note_on_c, 0, 73, 72
2, 550800, Note_on_c, 0, 61, 72
2, 550963, Note_on_c, 0, 61, 0
2, 550963, Note_on_c, 0, 73, 0
2, 550980, Note_on_c, 0, 75, 71
2, 550980, Note_on_c, 0, 63, 71
2, 551143, Note_on_c, 0, 63, 0
2, 551143, Note_on_c, 0, 75, 0
2, 551160, Note_on_c, 0, 76, 68
2, 551160, Note_on_c, 0, 64, 71
2, 551323, Note_on_c, 0, 64, 0
2, 551323, Note_on_c, 0, 76, 0
2, 551340, Note_on_c, 0, 77, 75
2, 551340, Note_on_c, 0, 65, 71
2, 551503, Note_on_c, 0, 65, 0
2, 551503, Note_on_c, 0, 77, 0
2, 551520, Note_on_c, 0, 75, 61
2, 551520, Note_on_c, 0, 63, 62
2, 551683, Note_on_c, 0, 63, 0
2, 551683, Note_on_c, 0, 75, 0
2, 551700, Note_on_c, 0, 77, 69
2, 551700, Note_on_c, 0, 65, 71
2, 551863, Note_on_c, 0, 65, 0
2, 551863, Note_on_c, 0, 77, 0
2, 551880, Note_on_c, 0, 74, 63
2, 551880, Note_on_c, 0, 62, 63
2, 552043, Note_on_c, 0, 62, 0
2, 552043, Note_on_c, 0, 74, 0
2, 552060, Note_on_c, 0, 75, 68
2, 552060, Note_on_c, 0, 63, 66
2, 552223, Note_on_c, 0, 63, 0
2, 552223, Note_on_c, 0, 75, 0
2, 552240, Note_on_c, 0, 77, 69
2, 552240, Note_on_c, 0, 65, 70
2, 552403, Note_on_c, 0, 65, 0
2, 552403, Note_on_c, 0, 77, 0
2, 552420, Note_on_c, 0, 79, 75
2, 552420, Note_on_c, 0, 67, 75
2, 552583, Note_on_c, 0, 67, 0
2, 552583, Note_on_c, 0, 79, 0
2, 552600, Note_on_c, 0, 77, 59
2, 552600, Note_on_c, 0, 65, 61
2, 552763, Note_on_c, 0, 65, 0
2, 552763, Note_on_c, 0, 77, 0
2, 552780, Note_on_c, 0, 79, 69
2, 552780, Note_on_c, 0, 67, 69
2, 552943, Note_on_c, 0, 67, 0
2, 552943, Note_on_c, 0, 79, 0
2, 552960, Note_on_c, 0, 80, 74
2, 552960, Note_on_c, 0, 68, 72
2, 553123, Note_on_c, 0, 68, 0
2, 553123, Note_on_c, 0, 80, 0
2, 553140, Note_on_c, 0, 79, 63
2, 553140, Note_on_c, 0, 67, 62
2, 553303, Note_on_c, 0, 67, 0
2, 553303, Note_on_c, 0, 79, 0
2, 553320, Note_on_c, 0, 80, 69
2, 553320, Note_on_c, 0, 68, 70
2, 553483, Note_on_c, 0, 68, 0
2, 553483, Note_on_c, 0, 80, 0
2, 553500, Note_on_c, 0, 82, 76
2, 553500, Note_on_c, 0, 70, 75
2, 553663, Note_on_c, 0, 70, 0
2, 553663, Note_on_c, 0, 82, 0
2, 553680, Note_on_c, 0, 80, 59
2, 553680, Note_on_c, 0, 68, 61
2, 553843, Note_on_c, 0, 68, 0
2, 553843, Note_on_c, 0, 80, 0
2, 553860, Note_on_c, 0, 82, 69
2, 553860, Note_on_c, 0, 70, 69
2, 554023, Note_on_c, 0, 70, 0
2, 554023, Note_on_c, 0, 82, 0
2, 554040, Note_on_c, 0, 83, 75
2, 554040, Note_on_c, 0, 71, 74
2, 554203, Note_on_c, 0, 71, 0
2, 554203, Note_on_c, 0, 83, 0
2, 554220, Note_on_c, 0, 82, 65
2, 554220, Note_on_c, 0, 70, 61
2, 554383, Note_on_c, 0, 70, 0
2, 554383, Note_on_c, 0, 82, 0
2, 554400, Note_on_c, 0, 83, 69
2, 554400, Note_on_c, 0, 71, 70
2, 554563, Note_on_c, 0, 71, 0
2, 554563, Note_on_c, 0, 83, 0
2, 554580, Note_on_c, 0, 84, 73
2, 554580, Note_on_c, 0, 72, 75
2, 554743, Note_on_c, 0, 72, 0
2, 554743, Note_on_c, 0, 84, 0
2, 554760, Note_on_c, 0, 83, 61
2, 554760, Note_on_c, 0, 71, 63
2, 554923, Note_on_c, 0, 71, 0
2, 554923, Note_on_c, 0, 83, 0
2, 554940, Note_on_c, 0, 84, 71
2, 554940, Note_on_c, 0, 72, 69
2, 555103, Note_on_c, 0, 72, 0
2, 555103, Note_on_c, 0, 84, 0
2, 555120, Note_on_c, 0, 91, 111
2, 555120, Note_on_c, 0, 67, 82
2, 555120, Note_on_c, 0, 79, 83
2, 555283, Note_on_c, 0, 91, 0
2, 555300, Note_on_c, 0, 89, 65
2, 555463, Note_on_c, 0, 89, 0
2, 555480, Note_on_c, 0, 86, 58
2, 555607, Note_on_c, 0, 79, 0
2, 555607, Note_on_c, 0, 67, 0
2, 555643, Note_on_c, 0, 86, 0
2, 555660, Note_on_c, 0, 84, 62
2, 555660, Note_on_c, 0, 72, 56
2, 555823, Note_on_c, 0, 72, 0
2, 555823, Note_on_c, 0, 84, 0
2, 555840, Note_on_c, 0, 82, 62
2, 555840, Note_on_c, 0, 70, 58
2, 556003, Note_on_c, 0, 70, 0
2, 556003, Note_on_c, 0, 82, 0
2, 556020, Note_on_c, 0, 80, 60
2, 556020, Note_on_c, 0, 68, 62
2, 556183, Note_on_c, 0, 68, 0
2, 556183, Note_on_c, 0, 80, 0
2, 556200, Note_on_c, 0, 79, 66
2, 556200, Note_on_c, 0, 67, 62
2, 556363, Note_on_c, 0, 67, 0
2, 556363, Note_on_c, 0, 79, 0
2, 556380, Note_on_c, 0, 80, 67
2, 556380, Note_on_c, 0, 68, 69
2, 556543, Note_on_c, 0, 68, 0
2, 556543, Note_on_c, 0, 80, 0
2, 556560, Note_on_c, 0, 79, 61
2, 556560, Note_on_c, 0, 67, 63
2, 556723, Note_on_c, 0, 67, 0
2, 556723, Note_on_c, 0, 79, 0
2, 556740, Note_on_c, 0, 77, 64
2, 556740, Note_on_c, 0, 65, 64
2, 556903, Note_on_c, 0, 65, 0
2, 556903, Note_on_c, 0, 77, 0
2, 556920, Note_on_c, 0, 75, 61
2, 556920, Note_on_c, 0, 63, 62
2, 557083, Note_on_c, 0, 63, 0
2, 557083, Note_on_c, 0, 75, 0
2, 557100, Note_on_c, 0, 74, 59
2, 557100, Note_on_c, 0, 62, 61
2, 557263, Note_on_c, 0, 62, 0
2, 557263, Note_on_c, 0, 74, 0
2, 557280, Note_on_c, 0, 72, 62
2, 557280, Note_on_c, 0, 60, 62
2, 557443, Note_on_c, 0, 60, 0
2, 557443, Note_on_c, 0, 72, 0
2, 557640, Note_on_c, 0, 72, 59
2, 557803, Note_on_c, 0, 72, 0
2, 557820, Note_on_c, 0, 72, 68
2, 557983, Note_on_c, 0, 72, 0
2, 558000, Note_on_c, 0, 70, 59
2, 558163, Note_on_c, 0, 70, 0
2, 558180, Note_on_c, 0, 72, 68
2, 558343, Note_on_c, 0, 72, 0
2, 558360, Note_on_c, 0, 75, 74
2, 558360, Note_on_c, 0, 63, 65
2, 558523, Note_on_c, 0, 75, 0
2, 558540, Note_on_c, 0, 73, 60
2, 558703, Note_on_c, 0, 73, 0
2, 558720, Note_on_c, 0, 72, 61
2, 558883, Note_on_c, 0, 72, 0
2, 558900, Note_on_c, 0, 72, 69
2, 559063, Note_on_c, 0, 72, 0
2, 559080, Note_on_c, 0, 70, 62
2, 559243, Note_on_c, 0, 70, 0
2, 559260, Note_on_c, 0, 72, 70
2, 559423, Note_on_c, 0, 72, 0
2, 559440, Note_on_c, 0, 63, 0
2, 559440, Note_on_c, 0, 69, 62
2, 559440, Note_on_c, 0, 60, 61
2, 559603, Note_on_c, 0, 69, 0
2, 559620, Note_on_c, 0, 70, 70
2, 559783, Note_on_c, 0, 70, 0
2, 559800, Note_on_c, 0, 72, 71
2, 559963, Note_on_c, 0, 72, 0
2, 559980, Note_on_c, 0, 72, 68
2, 560143, Note_on_c, 0, 72, 0
2, 560340, Note_on_c, 0, 72, 58
2, 560450, Note_on_c, 0, 60, 0
2, 560503, Note_on_c, 0, 72, 0
2, 560520, Note_on_c, 0, 75, 73
2, 560520, Note_on_c, 0, 63, 80
2, 560683, Note_on_c, 0, 75, 0
2, 560700, Note_on_c, 0, 73, 63
2, 560863, Note_on_c, 0, 73, 0
2, 560880, Note_on_c, 0, 72, 62
2, 561043, Note_on_c, 0, 72, 0
2, 561060, Note_on_c, 0, 72, 68
2, 561223, Note_on_c, 0, 72, 0
2, 561240, Note_on_c, 0, 68, 58
2, 561403, Note_on_c, 0, 68, 0
2, 561420, Note_on_c, 0, 70, 67
2, 561583, Note_on_c, 0, 70, 0
2, 561600, Note_on_c, 0, 63, 0
2, 561600, Note_on_c, 0, 67, 64
2, 561600, Note_on_c, 0, 60, 62
2, 561763, Note_on_c, 0, 67, 0
2, 561780, Note_on_c, 0, 68, 66
2, 561943, Note_on_c, 0, 68, 0
2, 561960, Note_on_c, 0, 70, 70
2, 562123, Note_on_c, 0, 70, 0
2, 562140, Note_on_c, 0, 72, 74
2, 562465, Note_on_c, 0, 72, 0
2, 562500, Note_on_c, 0, 72, 65
2, 562610, Note_on_c, 0, 60, 0
2, 562663, Note_on_c, 0, 72, 0
2, 562680, Note_on_c, 0, 70, 85
2, 562680, Note_on_c, 0, 58, 86
2, 563005, Note_on_c, 0, 70, 0
2, 563040, Note_on_c, 0, 72, 71
2, 563167, Note_on_c, 0, 58, 0
2, 563203, Note_on_c, 0, 72, 0
2, 563220, Note_on_c, 0, 66, 58
2, 563220, Note_on_c, 0, 54, 58
2, 563383, Note_on_c, 0, 66, 0
2, 563400, Note_on_c, 0, 70, 72
2, 563563, Note_on_c, 0, 70, 0
2, 563580, Note_on_c, 0, 72, 71
2, 563707, Note_on_c, 0, 54, 0
2, 563743, Note_on_c, 0, 72, 0
2, 563760, Note_on_c, 0, 70, 90
2, 563760, Note_on_c, 0, 58, 102
2, 564085, Note_on_c, 0, 70, 0
2, 564120, Note_on_c, 0, 72, 70
2, 564247, Note_on_c, 0, 58, 0
2, 564283, Note_on_c, 0, 72, 0
2, 564300, Note_on_c, 0, 65, 54
2, 564300, Note_on_c, 0, 53, 55
2, 564463, Note_on_c, 0, 65, 0
2, 564480, Note_on_c, 0, 70, 74
2, 564643, Note_on_c, 0, 70, 0
2, 564660, Note_on_c, 0, 72, 69
2, 564787, Note_on_c, 0, 53, 0
2, 564823, Note_on_c, 0, 72, 0
2, 564840, Note_on_c, 0, 70, 87
2, 564840, Note_on_c, 0, 58, 103
2, 565165, Note_on_c, 0, 70, 0
2, 565200, Note_on_c, 0, 72, 70
2, 565327, Note_on_c, 0, 58, 0
2, 565363, Note_on_c, 0, 72, 0
2, 565380, Note_on_c, 0, 64, 53
2, 565380, Note_on_c, 0, 52, 57
2, 565543, Note_on_c, 0, 64, 0
2, 565560, Note_on_c, 0, 70, 76
2, 565723, Note_on_c, 0, 70, 0
2, 565740, Note_on_c, 0, 72, 70
2, 565867, Note_on_c, 0, 52, 0
2, 565903, Note_on_c, 0, 72, 0
2, 565920, Note_on_c, 0, 70, 67
2, 565920, Note_on_c, 0, 58, 106
2, 566083, Note_on_c, 0, 70, 0
2, 566100, Note_on_c, 0, 72, 72
2, 566263, Note_on_c, 0, 72, 0
2, 566280, Note_on_c, 0, 63, 50
2, 566407, Note_on_c, 0, 58, 0
2, 566443, Note_on_c, 0, 63, 0
2, 566460, Note_on_c, 0, 68, 74
2, 566460, Note_on_c, 0, 51, 55
2, 566623, Note_on_c, 0, 68, 0
2, 566640, Note_on_c, 0, 70, 69
2, 566803, Note_on_c, 0, 70, 0
2, 566820, Note_on_c, 0, 72, 71
2, 566947, Note_on_c, 0, 51, 0
2, 566983, Note_on_c, 0, 72, 0
2, 567000, Note_on_c, 0, 72, 70
2, 567000, Note_on_c, 0, 60, 81
2, 567163, Note_on_c, 0, 60, 0
2, 567163, Note_on_c, 0, 72, 0
2, 567180, Note_on_c, 0, 73, 70
2, 567180, Note_on_c, 0, 61, 70
2, 567343, Note_on_c, 0, 61, 0
2, 567343, Note_on_c, 0, 73, 0
2, 567360, Note_on_c, 0, 75, 70
2, 567360, Note_on_c, 0, 63, 69
2, 567523, Note_on_c, 0, 63, 0
2, 567523, Note_on_c, 0, 75, 0
2, 567540, Note_on_c, 0, 77, 75
2, 567540, Note_on_c, 0, 65, 76
2, 567703, Note_on_c, 0, 65, 0
2, 567703, Note_on_c, 0, 77, 0
2, 567720, Note_on_c, 0, 75, 60
2, 567720, Note_on_c, 0, 63, 59
2, 567883, Note_on_c, 0, 63, 0
2, 567883, Note_on_c, 0, 75, 0
2, 567900, Note_on_c, 0, 77, 70
2, 567900, Note_on_c, 0, 65, 70
2, 568063, Note_on_c, 0, 65, 0
2, 568063, Note_on_c, 0, 77, 0
2, 568080, Note_on_c, 0, 71, 55
2, 568080, Note_on_c, 0, 59, 57
2, 568405, Note_on_c, 0, 59, 0
2, 568405, Note_on_c, 0, 71, 0
2, 568440, Note_on_c, 0, 70, 59
2, 568603, Note_on_c, 0, 70, 0
2, 568620, Note_on_c, 0, 71, 69
2, 568620, Note_on_c, 0, 59, 62
2, 568783, Note_on_c, 0, 59, 0
2, 568783, Note_on_c, 0, 71, 0
2, 568800, Note_on_c, 0, 68, 60
2, 568800, Note_on_c, 0, 56, 59
2, 568963, Note_on_c, 0, 56, 0
2, 568963, Note_on_c, 0, 68, 0
2, 568980, Note_on_c, 0, 70, 70
2, 568980, Note_on_c, 0, 58, 70
2, 569143, Note_on_c, 0, 58, 0
2, 569143, Note_on_c, 0, 70, 0
2, 569160, Note_on_c, 0, 71, 72
2, 569160, Note_on_c, 0, 59, 73
2, 569323, Note_on_c, 0, 59, 0
2, 569323, Note_on_c, 0, 71, 0
2, 569340, Note_on_c, 0, 72, 70
2, 569340, Note_on_c, 0, 60, 71
2, 569503, Note_on_c, 0, 60, 0
2, 569503, Note_on_c, 0, 72, 0
2, 569520, Note_on_c, 0, 74, 69
2, 569520, Note_on_c, 0, 62, 72
2, 569683, Note_on_c, 0, 62, 0
2, 569683, Note_on_c, 0, 74, 0
2, 569700, Note_on_c, 0, 75, 71
2, 569700, Note_on_c, 0, 63, 72
2, 569863, Note_on_c, 0, 63, 0
2, 569863, Note_on_c, 0, 75, 0
2, 569880, Note_on_c, 0, 74, 62
2, 570043, Note_on_c, 0, 74, 0
2, 570060, Note_on_c, 0, 75, 68
2, 570223, Note_on_c, 0, 75, 0
2, 570240, Note_on_c, 0, 63, 85
2, 570403, Note_on_c, 0, 63, 0
2, 570420, Note_on_c, 0, 60, 56
2, 570583, Note_on_c, 0, 60, 0
2, 570600, Note_on_c, 0, 63, 72
2, 570763, Note_on_c, 0, 63, 0
2, 570780, Note_on_c, 0, 65, 100
2, 570943, Note_on_c, 0, 65, 0
2, 570960, Note_on_c, 0, 63, 60
2, 571123, Note_on_c, 0, 63, 0
2, 571140, Note_on_c, 0, 65, 68
2, 571303, Note_on_c, 0, 65, 0
2, 571320, Note_on_c, 0, 67, 75
2, 571645, Note_on_c, 0, 67, 0
2, 571680, Note_on_c, 0, 68, 56
2, 571843, Note_on_c, 0, 68, 0
2, 571860, Note_on_c, 0, 67, 65
2, 571860, Note_on_c, 0, 65, 58
2, 572023, Note_on_c, 0, 67, 0
2, 572040, Note_on_c, 0, 68, 69
2, 572185, Note_on_c, 0, 65, 0
2, 572203, Note_on_c, 0, 68, 0
2, 572220, Note_on_c, 0, 67, 61
2, 572383, Note_on_c, 0, 67, 0
2, 572400, Note_on_c, 0, 72, 79
2, 572400, Note_on_c, 0, 60, 59
2, 572400, Note_on_c, 0, 63, 61
2, 572725, Note_on_c, 0, 63, 0
2, 572725, Note_on_c, 0, 60, 0
2, 572725, Note_on_c, 0, 72, 0
2, 572760, Note_on_c, 0, 84, 89
2, 572923, Note_on_c, 0, 84, 0
2, 572940, Note_on_c, 0, 84, 73
2, 573103, Note_on_c, 0, 84, 0
2, 573120, Note_on_c, 0, 82, 61
2, 573283, Note_on_c, 0, 82, 0
2, 573300, Note_on_c, 0, 84, 68
2, 573463, Note_on_c, 0, 84, 0
2, 573480, Note_on_c, 0, 87, 77
2, 573480, Note_on_c, 0, 70, 65
2, 573643, Note_on_c, 0, 87, 0
2, 573660, Note_on_c, 0, 85, 62
2, 573823, Note_on_c, 0, 85, 0
2, 573840, Note_on_c, 0, 84, 61
2, 574003, Note_on_c, 0, 84, 0
2, 574020, Note_on_c, 0, 84, 69
2, 574020, Note_on_c, 0, 58, 59
2, 574020, Note_on_c, 0, 60, 59
2, 574020, Note_on_c, 0, 66, 59
2, 574183, Note_on_c, 0, 84, 0
2, 574200, Note_on_c, 0, 82, 62
2, 574345, Note_on_c, 0, 60, 0
2, 574345, Note_on_c, 0, 66, 0
2, 574345, Note_on_c, 0, 58, 0
2, 574363, Note_on_c, 0, 82, 0
2, 574380, Note_on_c, 0, 84, 68
2, 574543, Note_on_c, 0, 84, 0
2, 574560, Note_on_c, 0, 70, 0
2, 574560, Note_on_c, 0, 81, 62
2, 574560, Note_on_c, 0, 69, 67
2, 574723, Note_on_c, 0, 81, 0
2, 574740, Note_on_c, 0, 82, 68
2, 574903, Note_on_c, 0, 82, 0
2, 574920, Note_on_c, 0, 84, 69
2, 575083, Note_on_c, 0, 84, 0
2, 575100, Note_on_c, 0, 84, 69
2, 575100, Note_on_c, 0, 57, 58
2, 575100, Note_on_c, 0, 60, 58
2, 575100, Note_on_c, 0, 65, 57
2, 575425, Note_on_c, 0, 65, 0
2, 575425, Note_on_c, 0, 57, 0
2, 575425, Note_on_c, 0, 60, 0
2, 575425, Note_on_c, 0, 84, 0
2, 575460, Note_on_c, 0, 84, 67
2, 575623, Note_on_c, 0, 84, 0
2, 575640, Note_on_c, 0, 69, 0
2, 575640, Note_on_c, 0, 87, 76
2, 575640, Note_on_c, 0, 68, 69
2, 575803, Note_on_c, 0, 87, 0
2, 575820, Note_on_c, 0, 85, 62
2, 575983, Note_on_c, 0, 85, 0
2, 576000, Note_on_c, 0, 84, 61
2, 576163, Note_on_c, 0, 84, 0
2, 576180, Note_on_c, 0, 84, 69
2, 576180, Note_on_c, 0, 56, 59
2, 576180, Note_on_c, 0, 60, 57
2, 576180, Note_on_c, 0, 63, 57
2, 576343, Note_on_c, 0, 84, 0
2, 576360, Note_on_c, 0, 82, 59
2, 576505, Note_on_c, 0, 60, 0
2, 576505, Note_on_c, 0, 63, 0
2, 576505, Note_on_c, 0, 56, 0
2, 576523, Note_on_c, 0, 82, 0
2, 576540, Note_on_c, 0, 84, 69
2, 576703, Note_on_c, 0, 84, 0
2, 576720, Note_on_c, 0, 68, 0
2, 576720, Note_on_c, 0, 79, 57
2, 576720, Note_on_c, 0, 70, 78
2, 576883, Note_on_c, 0, 79, 0
2, 576900, Note_on_c, 0, 80, 66
2, 577063, Note_on_c, 0, 80, 0
2, 577080, Note_on_c, 0, 82, 69
2, 577243, Note_on_c, 0, 82, 0
2, 577260, Note_on_c, 0, 84, 70
2, 577260, Note_on_c, 0, 55, 59
2, 577260, Note_on_c, 0, 60, 58
2, 577260, Note_on_c, 0, 63, 56
2, 577585, Note_on_c, 0, 63, 0
2, 577585, Note_on_c, 0, 55, 0
2, 577585, Note_on_c, 0, 60, 0
2, 577585, Note_on_c, 0, 84, 0
2, 577620, Note_on_c, 0, 84, 67
2, 577783, Note_on_c, 0, 84, 0
2, 577800, Note_on_c, 0, 70, 0
2, 577800, Note_on_c, 0, 82, 87
2, 577800, Note_on_c, 0, 66, 82
2, 578125, Note_on_c, 0, 82, 0
2, 578160, Note_on_c, 0, 84, 69
2, 578323, Note_on_c, 0, 84, 0
2, 578340, Note_on_c, 0, 78, 59
2, 578340, Note_on_c, 0, 54, 57
2, 578340, Note_on_c, 0, 60, 57
2, 578503, Note_on_c, 0, 78, 0
2, 578520, Note_on_c, 0, 82, 73
2, 578665, Note_on_c, 0, 60, 0
2, 578665, Note_on_c, 0, 54, 0
2, 578683, Note_on_c, 0, 82, 0
2, 578700, Note_on_c, 0, 84, 70
2, 578810, Note_on_c, 0, 66, 0
2, 578863, Note_on_c, 0, 84, 0
2, 578880, Note_on_c, 0, 82, 88
2, 578880, Note_on_c, 0, 65, 86
2, 579205, Note_on_c, 0, 82, 0
2, 579240, Note_on_c, 0, 84, 70
2, 579403, Note_on_c, 0, 84, 0
2, 579420, Note_on_c, 0, 77, 55
2, 579420, Note_on_c, 0, 53, 59
2, 579420, Note_on_c, 0, 60, 56
2, 579583, Note_on_c, 0, 77, 0
2, 579600, Note_on_c, 0, 82, 74
2, 579745, Note_on_c, 0, 60, 0
2, 579745, Note_on_c, 0, 53, 0
2, 579763, Note_on_c, 0, 82, 0
2, 579780, Note_on_c, 0, 84, 72
2, 579890, Note_on_c, 0, 65, 0
2, 579943, Note_on_c, 0, 84, 0
2, 579960, Note_on_c, 0, 82, 89
2, 579960, Note_on_c, 0, 64, 86
2, 580285, Note_on_c, 0, 82, 0
2, 580320, Note_on_c, 0, 84, 72
2, 580483, Note_on_c, 0, 84, 0
2, 580500, Note_on_c, 0, 76, 53
2, 580500, Note_on_c, 0, 52, 58
2, 580500, Note_on_c, 0, 60, 60
2, 580663, Note_on_c, 0, 76, 0
2, 580680, Note_on_c, 0, 82, 76
2, 580825, Note_on_c, 0, 60, 0
2, 580825, Note_on_c, 0, 52, 0
2, 580843, Note_on_c, 0, 82, 0
2, 580860, Note_on_c, 0, 84, 72
2, 580970, Note_on_c, 0, 64, 0
2, 581023, Note_on_c, 0, 84, 0
2, 581040, Note_on_c, 0, 82, 91
2, 581040, Note_on_c, 0, 63, 86
2, 581203, Note_on_c, 0, 82, 0
2, 581220, Note_on_c, 0, 84, 71
2, 581383, Note_on_c, 0, 84, 0
2, 581400, Note_on_c, 0, 75, 48
2, 581563, Note_on_c, 0, 75, 0
2, 581580, Note_on_c, 0, 80, 75
2, 581580, Note_on_c, 0, 51, 57
2, 581580, Note_on_c, 0, 56, 59
2, 581580, Note_on_c, 0, 60, 59
2, 581743, Note_on_c, 0, 80, 0
2, 581760, Note_on_c, 0, 82, 72
2, 581905, Note_on_c, 0, 56, 0
2, 581905, Note_on_c, 0, 60, 0
2, 581905, Note_on_c, 0, 51, 0
2, 581923, Note_on_c, 0, 82, 0
2, 581940, Note_on_c, 0, 84, 70
2, 582050, Note_on_c, 0, 63, 0
2, 582103, Note_on_c, 0, 84, 0
2, 582120, Note_on_c, 0, 84, 67
2, 582120, Note_on_c, 0, 72, 85
2, 582283, Note_on_c, 0, 72, 0
2, 582283, Note_on_c, 0, 84, 0
2, 582300, Note_on_c, 0, 85, 67
2, 582300, Note_on_c, 0, 73, 72
2, 582463, Note_on_c, 0, 73, 0
2, 582463, Note_on_c, 0, 85, 0
2, 582480, Note_on_c, 0, 87, 69
2, 582480, Note_on_c, 0, 75, 71
2, 582643, Note_on_c, 0, 75, 0
2, 582643, Note_on_c, 0, 87, 0
2, 582660, Note_on_c, 0, 89, 74
2, 582660, Note_on_c, 0, 77, 76
2, 582823, Note_on_c, 0, 77, 0
2, 582823, Note_on_c, 0, 89, 0
2, 582840, Note_on_c, 0, 87, 59
2, 582840, Note_on_c, 0, 75, 61
2, 583003, Note_on_c, 0, 75, 0
2, 583003, Note_on_c, 0, 87, 0
2, 583020, Note_on_c, 0, 89, 70
2, 583020, Note_on_c, 0, 77, 71
2, 583183, Note_on_c, 0, 77, 0
2, 583183, Note_on_c, 0, 89, 0
2, 583200, Note_on_c, 0, 83, 58
2, 583200, Note_on_c, 0, 71, 57
2, 583525, Note_on_c, 0, 71, 0
2, 583525, Note_on_c, 0, 83, 0
2, 583560, Note_on_c, 0, 81, 61
2, 583560, Note_on_c, 0, 69, 60
2, 583723, Note_on_c, 0, 69, 0
2, 583723, Note_on_c, 0, 81, 0
2, 583740, Note_on_c, 0, 83, 71
2, 583740, Note_on_c, 0, 71, 71
2, 583903, Note_on_c, 0, 71, 0
2, 583903, Note_on_c, 0, 83, 0
2, 583920, Note_on_c, 0, 84, 70
2, 583920, Note_on_c, 0, 72, 69
2, 584083, Note_on_c, 0, 72, 0
2, 584083, Note_on_c, 0, 84, 0
2, 584100, Note_on_c, 0, 86, 71
2, 584100, Note_on_c, 0, 74, 71
2, 584263, Note_on_c, 0, 74, 0
2, 584263, Note_on_c, 0, 86, 0
2, 584280, Note_on_c, 0, 86, 69
2, 584280, Note_on_c, 0, 74, 68
2, 584443, Note_on_c, 0, 74, 0
2, 584443, Note_on_c, 0, 86, 0
2, 584460, Note_on_c, 0, 87, 68
2, 584460, Note_on_c, 0, 75, 68
2, 584623, Note_on_c, 0, 75, 0
2, 584623, Note_on_c, 0, 87, 0
2, 584640, Note_on_c, 0, 89, 72
2, 584640, Note_on_c, 0, 77, 72
2, 584803, Note_on_c, 0, 77, 0
2, 584803, Note_on_c, 0, 89, 0
2, 584820, Note_on_c, 0, 91, 73
2, 584820, Note_on_c, 0, 79, 74
2, 584983, Note_on_c, 0, 79, 0
2, 584983, Note_on_c, 0, 91, 0
2, 585000, Note_on_c, 0, 89, 60
2, 585000, Note_on_c, 0, 77, 62
2, 585163, Note_on_c, 0, 77, 0
2, 585163, Note_on_c, 0, 89, 0
2, 585180, Note_on_c, 0, 91, 68
2, 585180, Note_on_c, 0, 79, 69
2, 585343, Note_on_c, 0, 79, 0
2, 585343, Note_on_c, 0, 91, 0
2, 585360, Note_on_c, 0, 85, 55
2, 585360, Note_on_c, 0, 73, 58
2, 585685, Note_on_c, 0, 73, 0
2, 585685, Note_on_c, 0, 85, 0
2, 585720, Note_on_c, 0, 84, 60
2, 585720, Note_on_c, 0, 72, 61
2, 585883, Note_on_c, 0, 72, 0
2, 585883, Note_on_c, 0, 84, 0
2, 585900, Note_on_c, 0, 85, 72
2, 585900, Note_on_c, 0, 73, 69
2, 586063, Note_on_c, 0, 73, 0
2, 586063, Note_on_c, 0, 85, 0
2, 586080, Note_on_c, 0, 86, 70
2, 586080, Note_on_c, 0, 74, 70
2, 586243, Note_on_c, 0, 74, 0
2, 586243, Note_on_c, 0, 86, 0
2, 586260, Note_on_c, 0, 88, 73
2, 586260, Note_on_c, 0, 76, 70
2, 586423, Note_on_c, 0, 76, 0
2, 586423, Note_on_c, 0, 88, 0
2, 586440, Note_on_c, 0, 88, 68
2, 586440, Note_on_c, 0, 76, 70
2, 586603, Note_on_c, 0, 76, 0
2, 586603, Note_on_c, 0, 88, 0
2, 586620, Note_on_c, 0, 89, 69
2, 586620, Note_on_c, 0, 77, 69
2, 586783, Note_on_c, 0, 77, 0
2, 586783, Note_on_c, 0, 89, 0
2, 586800, Note_on_c, 0, 91, 70
2, 586800, Note_on_c, 0, 79, 70
2, 586963, Note_on_c, 0, 79, 0
2, 586963, Note_on_c, 0, 91, 0
2, 586980, Note_on_c, 0, 92, 73
2, 586980, Note_on_c, 0, 80, 74
2, 587143, Note_on_c, 0, 80, 0
2, 587143, Note_on_c, 0, 92, 0
2, 587160, Note_on_c, 0, 91, 61
2, 587160, Note_on_c, 0, 79, 64
2, 587323, Note_on_c, 0, 79, 0
2, 587323, Note_on_c, 0, 91, 0
2, 587340, Note_on_c, 0, 92, 68
2, 587340, Note_on_c, 0, 80, 69
2, 587503, Note_on_c, 0, 80, 0
2, 587503, Note_on_c, 0, 92, 0
2, 587520, Note_on_c, 0, 87, 60
2, 587520, Note_on_c, 0, 75, 61
2, 587683, Note_on_c, 0, 75, 0
2, 587683, Note_on_c, 0, 87, 0
2, 587700, Note_on_c, 0, 86, 61
2, 587700, Note_on_c, 0, 74, 59
2, 587863, Note_on_c, 0, 74, 0
2, 587863, Note_on_c, 0, 86, 0
2, 587880, Note_on_c, 0, 87, 68
2, 587880, Note_on_c, 0, 75, 68
2, 588043, Note_on_c, 0, 75, 0
2, 588043, Note_on_c, 0, 87, 0
2, 588060, Note_on_c, 0, 89, 72
2, 588060, Note_on_c, 0, 77, 75
2, 588223, Note_on_c, 0, 77, 0
2, 588223, Note_on_c, 0, 89, 0
2, 588240, Note_on_c, 0, 87, 59
2, 588240, Note_on_c, 0, 75, 60
2, 588403, Note_on_c, 0, 75, 0
2, 588403, Note_on_c, 0, 87, 0
2, 588420, Note_on_c, 0, 89, 69
2, 588420, Note_on_c, 0, 77, 69
2, 588583, Note_on_c, 0, 77, 0
2, 588583, Note_on_c, 0, 89, 0
2, 588600, Note_on_c, 0, 91, 74
2, 588600, Note_on_c, 0, 79, 76
2, 588763, Note_on_c, 0, 79, 0
2, 588763, Note_on_c, 0, 91, 0
2, 588960, Note_on_c, 0, 80, 57
2, 588960, Note_on_c, 0, 68, 57
2, 589123, Note_on_c, 0, 68, 0
2, 589123, Note_on_c, 0, 80, 0
2, 589140, Note_on_c, 0, 79, 64
2, 589140, Note_on_c, 0, 67, 65
2, 589303, Note_on_c, 0, 67, 0
2, 589303, Note_on_c, 0, 79, 0
2, 589320, Note_on_c, 0, 80, 67
2, 589320, Note_on_c, 0, 68, 69
2, 589483, Note_on_c, 0, 68, 0
2, 589483, Note_on_c, 0, 80, 0
2, 589500, Note_on_c, 0, 79, 64
2, 589500, Note_on_c, 0, 67, 61
2, 589663, Note_on_c, 0, 67, 0
2, 589663, Note_on_c, 0, 79, 0
2, 589680, Note_on_c, 0, 72, 79
2, 589680, Note_on_c, 0, 84, 77
2, 589680, Note_on_c, 0, 60, 55
2, 589843, Note_on_c, 0, 60, 0
2, 589843, Note_on_c, 0, 84, 0
2, 589843, Note_on_c, 0, 72, 0
2, 590220, Note_on_c, 0, 60, 63
2, 590220, Note_on_c, 0, 63, 59
2, 590220, Note_on_c, 0, 68, 60
2, 590220, Note_on_c, 0, 56, 63
2, 590463, Note_on_c, 0, 56, 0
2, 590463, Note_on_c, 0, 60, 0
2, 590463, Note_on_c, 0, 63, 0
2, 590463, Note_on_c, 0, 68, 0
2, 590490, Note_on_c, 0, 70, 70
2, 590490, Note_on_c, 0, 58, 70
2, 590733, Note_on_c, 0, 58, 0
2, 590733, Note_on_c, 0, 70, 0
2, 590760, Note_on_c, 0, 60, 63
2, 590760, Note_on_c, 0, 63, 63
2, 590760, Note_on_c, 0, 67, 63
2, 590760, Note_on_c, 0, 55, 62
2, 591085, Note_on_c, 0, 55, 0
2, 591085, Note_on_c, 0, 60, 0
2, 591085, Note_on_c, 0, 63, 0
2, 591085, Note_on_c, 0, 67, 0
2, 591300, Note_on_c, 0, 59, 58
2, 591300, Note_on_c, 0, 65, 57
2, 591300, Note_on_c, 0, 67, 58
2, 591300, Note_on_c, 0, 43, 60
2, 591300, Note_on_c, 0, 55, 56
2, 591477, Note_on_c, 0, 55, 0
2, 591477, Note_on_c, 0, 67, 0
2, 591477, Note_on_c, 0, 59, 0
2, 591477, Note_on_c, 0, 65, 0
2, 591477, Note_on_c, 0, 43, 0
2, 591840, Note_on_c, 0, 60, 62
2, 591840, Note_on_c, 0, 63, 60
2, 591840, Note_on_c, 0, 72, 61
2, 591840, Note_on_c, 0, 36, 59
2, 591840, Note_on_c, 0, 48, 60
2, 592017, Note_on_c, 0, 48, 0
2, 592017, Note_on_c, 0, 72, 0
2, 592017, Note_on_c, 0, 60, 0
2, 592017, Note_on_c, 0, 63, 0
2, 592017, Note_on_c, 0, 36, 0
2, 592380, Note_on_c, 0, 60, 62
2, 592380, Note_on_c, 0, 63, 59
2, 592380, Note_on_c, 0, 68, 60
2, 592380, Note_on_c, 0, 56, 62
2, 592623, Note_on_c, 0, 56, 0
2, 592623, Note_on_c, 0, 60, 0
2, 592623, Note_on_c, 0, 63, 0
2, 592623, Note_on_c, 0, 68, 0
2, 592650, Note_on_c, 0, 70, 68
2, 592650, Note_on_c, 0, 58, 68
2, 592893, Note_on_c, 0, 58, 0
2, 592893, Note_on_c, 0, 70, 0
2, 592920, Note_on_c, 0, 60, 62
2, 592920, Note_on_c, 0, 63, 63
2, 592920, Note_on_c, 0, 67, 64
2, 592920, Note_on_c, 0, 55, 63
2, 593245, Note_on_c, 0, 55, 0
2, 593245, Note_on_c, 0, 60, 0
2, 593245, Note_on_c, 0, 63, 0
2, 593245, Note_on_c, 0, 67, 0
2, 593460, Note_on_c, 0, 59, 62
2, 593460, Note_on_c, 0, 63, 61
2, 593460, Note_on_c, 0, 65, 60
2, 593460, Note_on_c, 0, 43, 62
2, 593460, Note_on_c, 0, 50, 61
2, 593594, Note_on_c, 0, 50, 0
2, 593594, Note_on_c, 0, 65, 0
2, 593594, Note_on_c, 0, 59, 0
2, 593594, Note_on_c, 0, 63, 0
2, 593594, Note_on_c, 0, 43, 0
2, 593730, Note_on_c, 0, 59, 63
2, 593730, Note_on_c, 0, 63, 64
2, 593730, Note_on_c, 0, 65, 64
2, 593730, Note_on_c, 0, 43, 64
2, 593730, Note_on_c, 0, 50, 64
2, 593864, Note_on_c, 0, 50, 0
2, 593864, Note_on_c, 0, 65, 0
2, 593864, Note_on_c, 0, 59, 0
2, 593864, Note_on_c, 0, 63, 0
2, 593864, Note_on_c, 0, 43, 0
2, 594000, Note_on_c, 0, 60, 82
2, 594000, Note_on_c, 0, 63, 82
2, 594000, Note_on_c, 0, 72, 81
2, 594000, Note_on_c, 0, 36, 62
2, 594000, Note_on_c, 0, 48, 63
2, 594325, Note_on_c, 0, 48, 0
2, 594325, Note_on_c, 0, 72, 0
2, 594325, Note_on_c, 0, 60, 0
2, 594325, Note_on_c, 0, 63, 0
2, 594325, Note_on_c, 0, 36, 0
2, 594540, Note_on_c, 0, 56, 59
2, 594540, Note_on_c, 0, 63, 58
2, 594540, Note_on_c, 0, 66, 56
2, 594540, Note_on_c, 0, 68, 60
2, 594540, Note_on_c, 0, 36, 59
2, 594540, Note_on_c, 0, 48, 59
2, 594717, Note_on_c, 0, 48, 0
2, 594717, Note_on_c, 0, 63, 0
2, 594717, Note_on_c, 0, 66, 0
2, 594717, Note_on_c, 0, 56, 0
2, 594717, Note_on_c, 0, 36, 0
2, 594717, Note_on_c, 0, 68, 0
2, 595080, Note_on_c, 0, 56, 61
2, 595080, Note_on_c, 0, 61, 60
2, 595080, Note_on_c, 0, 65, 59
2, 595080, Note_on_c, 0, 68, 60
2, 595080, Note_on_c, 0, 37, 60
2, 595080, Note_on_c, 0, 49, 62
2, 595257, Note_on_c, 0, 68, 0
2, 595257, Note_on_c, 0, 65, 0
2, 595257, Note_on_c, 0, 56, 0
2, 595257, Note_on_c, 0, 61, 0
2, 595405, Note_on_c, 0, 49, 0
2, 595405, Note_on_c, 0, 37, 0
2, 595620, Note_on_c, 0, 56, 58
2, 595620, Note_on_c, 0, 60, 58
2, 595620, Note_on_c, 0, 63, 58
2, 595620, Note_on_c, 0, 68, 58
2, 595620, Note_on_c, 0, 39, 56
2, 595620, Note_on_c, 0, 51, 57
2, 595797, Note_on_c, 0, 51, 0
2, 595797, Note_on_c, 0, 60, 0
2, 595797, Note_on_c, 0, 63, 0
2, 595797, Note_on_c, 0, 56, 0
2, 595797, Note_on_c, 0, 39, 0
2, 595797, Note_on_c, 0, 68, 0
2, 596160, Note_on_c, 0, 56, 61
2, 596160, Note_on_c, 0, 61, 60
2, 596160, Note_on_c, 0, 68, 60
2, 596160, Note_on_c, 0, 40, 60
2, 596160, Note_on_c, 0, 52, 60
2, 596337, Note_on_c, 0, 68, 0
2, 596337, Note_on_c, 0, 56, 0
2, 596337, Note_on_c, 0, 61, 0
2, 596485, Note_on_c, 0, 40, 0
2, 596485, Note_on_c, 0, 52, 0
2, 596700, Note_on_c, 0, 56, 79
2, 596700, Note_on_c, 0, 60, 82
2, 596700, Note_on_c, 0, 62, 80
2, 596700, Note_on_c, 0, 68, 82
2, 596700, Note_on_c, 0, 41, 78
2, 596700, Note_on_c, 0, 53, 79
2, 597727, Note_on_c, 0, 53, 0
2, 597727, Note_on_c, 0, 60, 0
2, 597727, Note_on_c, 0, 62, 0
2, 597727, Note_on_c, 0, 56, 0
2, 597727, Note_on_c, 0, 41, 0
2, 597727, Note_on_c, 0, 68, 0
2, 597780, Note_on_c, 0, 59, 84
2, 597780, Note_on_c, 0, 65, 86
2, 597780, Note_on_c, 0, 67, 86
2, 597780, Note_on_c, 0, 43, 95
2, 597780, Note_on_c, 0, 55, 99
2, 597957, Note_on_c, 0, 67, 0
2, 597957, Note_on_c, 0, 59, 0
2, 597957, Note_on_c, 0, 65, 0
2, 598105, Note_on_c, 0, 43, 0
2, 598105, Note_on_c, 0, 55, 0
2, 598320, Note_on_c, 0, 60, 81
2, 598320, Note_on_c, 0, 63, 85
2, 598320, Note_on_c, 0, 72, 82
2, 598320, Note_on_c, 0, 36, 82
2, 598320, Note_on_c, 0, 48, 84
2, 598497, Note_on_c, 0, 48, 0
2, 598497, Note_on_c, 0, 72, 0
2, 598497, Note_on_c, 0, 60, 0
2, 598497, Note_on_c, 0, 63, 0
2, 598497, Note_on_c, 0, 36, 0
2, 598860, Note_on_c, 0, 96, 62
2, 598860, Note_on_c, 0, 72, 62
2, 599023, Note_on_c, 0, 72, 0
2, 599023, Note_on_c, 0, 96, 0
2, 599040, Note_on_c, 0, 95, 63
2, 599040, Note_on_c, 0, 71, 59
2, 599203, Note_on_c, 0, 71, 0
2, 599203, Note_on_c, 0, 95, 0
2, 599220, Note_on_c, 0, 96, 69
2, 599220, Note_on_c, 0, 72, 66
2, 599383, Note_on_c, 0, 72, 0
2, 599383, Note_on_c, 0, 96, 0
2, 599400, Note_on_c, 0, 99, 76
2, 599400, Note_on_c, 0, 79, 83
2, 599563, Note_on_c, 0, 79, 0
2, 599563, Note_on_c, 0, 99, 0
2, 599580, Note_on_c, 0, 98, 63
2, 599580, Note_on_c, 0, 77, 63
2, 599743, Note_on_c, 0, 77, 0
2, 599743, Note_on_c, 0, 98, 0
2, 599760, Note_on_c, 0, 96, 60
2, 599760, Note_on_c, 0, 75, 60
2, 599923, Note_on_c, 0, 75, 0
2, 599923, Note_on_c, 0, 96, 0
2, 599940, Note_on_c, 0, 93, 59
2, 599940, Note_on_c, 0, 77, 74
2, 600103, Note_on_c, 0, 77, 0
2, 600103, Note_on_c, 0, 93, 0
2, 600120, Note_on_c, 0, 95, 69
2, 600120, Note_on_c, 0, 75, 62
2, 600283, Note_on_c, 0, 75, 0
2, 600283, Note_on_c, 0, 95, 0
2, 600300, Note_on_c, 0, 98, 72
2, 600300, Note_on_c, 0, 74, 60
2, 600463, Note_on_c, 0, 74, 0
2, 600463, Note_on_c, 0, 98, 0
2, 600480, Note_on_c, 0, 96, 66
2, 600480, Note_on_c, 0, 72, 69
2, 600480, Note_on_c, 0, 75, 71
2, 600643, Note_on_c, 0, 75, 0
2, 600643, Note_on_c, 0, 72, 0
2, 600643, Note_on_c, 0, 96, 0
2, 600840, Note_on_c, 0, 91, 58
2, 600840, Note_on_c, 0, 67, 56
2, 601003, Note_on_c, 0, 67, 0
2, 601003, Note_on_c, 0, 91, 0
2, 601020, Note_on_c, 0, 96, 79
2, 601020, Note_on_c, 0, 72, 79
2, 601183, Note_on_c, 0, 72, 0
2, 601183, Note_on_c, 0, 96, 0
2, 601200, Note_on_c, 0, 95, 65
2, 601200, Note_on_c, 0, 71, 64
2, 601363, Note_on_c, 0, 71, 0
2, 601363, Note_on_c, 0, 95, 0
2, 601380, Note_on_c, 0, 96, 68
2, 601380, Note_on_c, 0, 72, 68
2, 601543, Note_on_c, 0, 72, 0
2, 601543, Note_on_c, 0, 96, 0
2, 601560, Note_on_c, 0, 99, 77
2, 601560, Note_on_c, 0, 79, 82
2, 601723, Note_on_c, 0, 79, 0
2, 601723, Note_on_c, 0, 99, 0
2, 601740, Note_on_c, 0, 98, 62
2, 601740, Note_on_c, 0, 77, 63
2, 601903, Note_on_c, 0, 77, 0
2, 601903, Note_on_c, 0, 98, 0
2, 601920, Note_on_c, 0, 96, 60
2, 601920, Note_on_c, 0, 75, 63
2, 602083, Note_on_c, 0, 75, 0
2, 602083, Note_on_c, 0, 96, 0
2, 602100, Note_on_c, 0, 93, 60
2, 602100, Note_on_c, 0, 77, 75
2, 602263, Note_on_c, 0, 77, 0
2, 602263, Note_on_c, 0, 93, 0
2, 602280, Note_on_c, 0, 95, 70
2, 602280, Note_on_c, 0, 75, 61
2, 602443, Note_on_c, 0, 75, 0
2, 602443, Note_on_c, 0, 95, 0
2, 602460, Note_on_c, 0, 98, 73
2, 602460, Note_on_c, 0, 74, 60
2, 602623, Note_on_c, 0, 74, 0
2, 602623, Note_on_c, 0, 98, 0
2, 602640, Note_on_c, 0, 96, 65
2, 602640, Note_on_c, 0, 72, 71
2, 602640, Note_on_c, 0, 75, 71
2, 602803, Note_on_c, 0, 75, 0
2, 602803, Note_on_c, 0, 72, 0
2, 602803, Note_on_c, 0, 96, 0
2, 603180, Note_on_c, 0, 68, 59
2, 603180, Note_on_c, 0, 72, 60
2, 603360, Note_on_c, 0, 84, 58
2, 603360, Note_on_c, 0, 92, 58
2, 603505, Note_on_c, 0, 72, 0
2, 603505, Note_on_c, 0, 68, 0
2, 603523, Note_on_c, 0, 84, 0
2, 603523, Note_on_c, 0, 92, 0
2, 603540, Note_on_c, 0, 80, 43
2, 603703, Note_on_c, 0, 80, 0
2, 603720, Note_on_c, 0, 68, 60
2, 603720, Note_on_c, 0, 73, 62
2, 603900, Note_on_c, 0, 85, 56
2, 603900, Note_on_c, 0, 92, 56
2, 604045, Note_on_c, 0, 73, 0
2, 604045, Note_on_c, 0, 68, 0
2, 604063, Note_on_c, 0, 85, 0
2, 604063, Note_on_c, 0, 92, 0
2, 604080, Note_on_c, 0, 80, 43
2, 604243, Note_on_c, 0, 80, 0
2, 604260, Note_on_c, 0, 69, 56
2, 604260, Note_on_c, 0, 73, 60
2, 604440, Note_on_c, 0, 85, 57
2, 604440, Note_on_c, 0, 93, 58
2, 604585, Note_on_c, 0, 73, 0
2, 604585, Note_on_c, 0, 69, 0
2, 604603, Note_on_c, 0, 85, 0
2, 604603, Note_on_c, 0, 93, 0
2, 604620, Note_on_c, 0, 81, 45
2, 604783, Note_on_c, 0, 81, 0
2, 604800, Note_on_c, 0, 69, 60
2, 604800, Note_on_c, 0, 73, 60
2, 604980, Note_on_c, 0, 85, 57
2, 604980, Note_on_c, 0, 93, 56
2, 605125, Note_on_c, 0, 73, 0
2, 605125, Note_on_c, 0, 69, 0
2, 605143, Note_on_c, 0, 85, 0
2, 605143, Note_on_c, 0, 93, 0
2, 605160, Note_on_c, 0, 81, 43
2, 605323, Note_on_c, 0, 81, 0
2, 605340, Note_on_c, 0, 80, 81
2, 605520, Note_on_c, 0, 104, 79
2, 605665, Note_on_c, 0, 80, 0
2, 605683, Note_on_c, 0, 104, 0
2, 605700, Note_on_c, 0, 92, 44
2, 605863, Note_on_c, 0, 92, 0
2, 605880, Note_on_c, 0, 68, 84
2, 606060, Note_on_c, 0, 92, 81
2, 606205, Note_on_c, 0, 68, 0
2, 606223, Note_on_c, 0, 92, 0
2, 606240, Note_on_c, 0, 80, 45
2, 606403, Note_on_c, 0, 80, 0
2, 606420, Note_on_c, 0, 55, 79
2, 606420, Note_on_c, 0, 62, 82
2, 606420, Note_on_c, 0, 65, 81
2, 606420, Note_on_c, 0, 67, 81
2, 606600, Note_on_c, 0, 83, 79
2, 606600, Note_on_c, 0, 91, 78
2, 606745, Note_on_c, 0, 67, 0
2, 606745, Note_on_c, 0, 65, 0
2, 606745, Note_on_c, 0, 55, 0
2, 606745, Note_on_c, 0, 62, 0
2, 606763, Note_on_c, 0, 91, 0
2, 606763, Note_on_c, 0, 83, 0
2, 606780, Note_on_c, 0, 79, 63
2, 606943, Note_on_c, 0, 79, 0
2, 606960, Note_on_c, 0, 84, 114
2, 606960, Note_on_c, 0, 87, 117
2, 606960, Note_on_c, 0, 91, 115
2, 606960, Note_on_c, 0, 96, 117
2, 606960, Note_on_c, 0, 60, 84
2, 606960, Note_on_c, 0, 63, 84
2, 606960, Note_on_c, 0, 67, 85
2, 607285, Note_on_c, 0, 67, 0
2, 607285, Note_on_c, 0, 60, 0
2, 607285, Note_on_c, 0, 87, 0
2, 607285, Note_on_c, 0, 91, 0
2, 607285, Note_on_c, 0, 84, 0
2, 607285, Note_on_c, 0, 63, 0
2, 607285, Note_on_c, 0, 96, 0
2, 607500, Note_on_c, 0, 55, 81
2, 607500, Note_on_c, 0, 60, 78
2, 607500, Note_on_c, 0, 63, 79
2, 607500, Note_on_c, 0, 67, 81
2, 607680, Note_on_c, 0, 84, 59
2, 607680, Note_on_c, 0, 87, 57
2, 607680, Note_on_c, 0, 91, 58
2, 607825, Note_on_c, 0, 67, 0
2, 607825, Note_on_c, 0, 63, 0
2, 607825, Note_on_c, 0, 55, 0
2, 607825, Note_on_c, 0, 60, 0
2, 607843, Note_on_c, 0, 91, 0
2, 607843, Note_on_c, 0, 84, 0
2, 607843, Note_on_c, 0, 87, 0
2, 607860, Note_on_c, 0, 79, 45
2, 608023, Note_on_c, 0, 79, 0
2, 608040, Note_on_c, 0, 56, 59
2, 608040, Note_on_c, 0, 60, 63
2, 608040, Note_on_c, 0, 65, 60
2, 608040, Note_on_c, 0, 68, 61
2, 608220, Note_on_c, 0, 84, 59
2, 608220, Note_on_c, 0, 89, 56
2, 608220, Note_on_c, 0, 92, 57
2, 608365, Note_on_c, 0, 68, 0
2, 608365, Note_on_c, 0, 65, 0
2, 608365, Note_on_c, 0, 56, 0
2, 608365, Note_on_c, 0, 60, 0
2, 608383, Note_on_c, 0, 92, 0
2, 608383, Note_on_c, 0, 84, 0
2, 608383, Note_on_c, 0, 89, 0
2, 608400, Note_on_c, 0, 80, 44
2, 608563, Note_on_c, 0, 80, 0
2, 608580, Note_on_c, 0, 58, 59
2, 608580, Note_on_c, 0, 60, 58
2, 608580, Note_on_c, 0, 67, 56
2, 608580, Note_on_c, 0, 70, 57
2, 608760, Note_on_c, 0, 84, 58
2, 608760, Note_on_c, 0, 91, 57
2, 608760, Note_on_c, 0, 94, 57
2, 608905, Note_on_c, 0, 70, 0
2, 608905, Note_on_c, 0, 67, 0
2, 608905, Note_on_c, 0, 58, 0
2, 608905, Note_on_c, 0, 60, 0
2, 608923, Note_on_c, 0, 94, 0
2, 608923, Note_on_c, 0, 84, 0
2, 608923, Note_on_c, 0, 91, 0
2, 608940, Note_on_c, 0, 82, 42
2, 609103, Note_on_c, 0, 82, 0
2, 609120, Note_on_c, 0, 55, 63
2, 609120, Note_on_c, 0, 60, 63
2, 609120, Note_on_c, 0, 63, 60
2, 609120, Note_on_c, 0, 67, 61
2, 609300, Note_on_c, 0, 84, 58
2, 609300, Note_on_c, 0, 87, 57
2, 609300, Note_on_c, 0, 91, 58
2, 609445, Note_on_c, 0, 67, 0
2, 609445, Note_on_c, 0, 63, 0
2, 609445, Note_on_c, 0, 55, 0
2, 609445, Note_on_c, 0, 60, 0
2, 609463, Note_on_c, 0, 91, 0
2, 609463, Note_on_c, 0, 84, 0
2, 609463, Note_on_c, 0, 87, 0
2, 609480, Note_on_c, 0, 79, 43
2, 609643, Note_on_c, 0, 79, 0
2, 609660, Note_on_c, 0, 51, 60
2, 609660, Note_on_c, 0, 55, 60
2, 609660, Note_on_c, 0, 60, 57
2, 609660, Note_on_c, 0, 63, 59
2, 609840, Note_on_c, 0, 79, 58
2, 609840, Note_on_c, 0, 84, 56
2, 609840, Note_on_c, 0, 87, 57
2, 609985, Note_on_c, 0, 63, 0
2, 609985, Note_on_c, 0, 60, 0
2, 609985, Note_on_c, 0, 51, 0
2, 609985, Note_on_c, 0, 55, 0
2, 610003, Note_on_c, 0, 87, 0
2, 610003, Note_on_c, 0, 79, 0
2, 610003, Note_on_c, 0, 84, 0
2, 610020, Note_on_c, 0, 75, 44
2, 610183, Note_on_c, 0, 75, 0
2, 610200, Note_on_c, 0, 48, 59
2, 610200, Note_on_c, 0, 51, 63
2, 610200, Note_on_c, 0, 55, 60
2, 610200, Note_on_c, 0, 60, 60
2, 610380, Note_on_c, 0, 75, 59
2, 610380, Note_on_c, 0, 79, 59
2, 610380, Note_on_c, 0, 84, 59
2, 610525, Note_on_c, 0, 60, 0
2, 610525, Note_on_c, 0, 55, 0
2, 610525, Note_on_c, 0, 48, 0
2, 610525, Note_on_c, 0, 51, 0
2, 610543, Note_on_c, 0, 84, 0
2, 610543, Note_on_c, 0, 75, 0
2, 610543, Note_on_c, 0, 79, 0
2, 610560, Note_on_c, 0, 72, 45
2, 610723, Note_on_c, 0, 72, 0
2, 610740, Note_on_c, 0, 44, 57
2, 610740, Note_on_c, 0, 48, 58
2, 610740, Note_on_c, 0, 51, 59
2, 610740, Note_on_c, 0, 56, 57
2, 610920, Note_on_c, 0, 72, 59
2, 610920, Note_on_c, 0, 75, 57
2, 610920, Note_on_c, 0, 80, 60
2, 611065, Note_on_c, 0, 56, 0
2, 611065, Note_on_c, 0, 51, 0
2, 611065, Note_on_c, 0, 44, 0
2, 611065, Note_on_c, 0, 48, 0
2, 611083, Note_on_c, 0, 80, 0
2, 611083, Note_on_c, 0, 72, 0
2, 611083, Note_on_c, 0, 75, 0
2, 611100, Note_on_c, 0, 68, 44
2, 611263, Note_on_c, 0, 68, 0
2, 611280, Note_on_c, 0, 43, 60
2, 611280, Note_on_c, 0, 48, 59
2, 611280, Note_on_c, 0, 51, 59
2, 611280, Note_on_c, 0, 55, 61
2, 611460, Note_on_c, 0, 72, 57
2, 611460, Note_on_c, 0, 75, 60
2, 611460, Note_on_c, 0, 79, 58
2, 611605, Note_on_c, 0, 55, 0
2, 611605, Note_on_c, 0, 51, 0
2, 611605, Note_on_c, 0, 43, 0
2, 611605, Note_on_c, 0, 48, 0
2, 611623, Note_on_c, 0, 79, 0
2, 611623, Note_on_c, 0, 72, 0
2, 611623, Note_on_c, 0, 75, 0
2, 611640, Note_on_c, 0, 67, 45
2, 611803, Note_on_c, 0, 67, 0
2, 611820, Note_on_c, 0, 43, 56
2, 611820, Note_on_c, 0, 48, 60
2, 611820, Note_on_c, 0, 51, 59
2, 611820, Note_on_c, 0, 55, 59
2, 612000, Note_on_c, 0, 72, 60
2, 612000, Note_on_c, 0, 75, 57
2, 612000, Note_on_c, 0, 79, 60
2, 612145, Note_on_c, 0, 55, 0
2, 612145, Note_on_c, 0, 51, 0
2, 612145, Note_on_c, 0, 43, 0
2, 612145, Note_on_c, 0, 48, 0
2, 612163, Note_on_c, 0, 79, 0
2, 612163, Note_on_c, 0, 72, 0
2, 612163, Note_on_c, 0, 75, 0
2, 612180, Note_on_c, 0, 67, 45
2, 612343, Note_on_c, 0, 67, 0
2, 612360, Note_on_c, 0, 44, 59
2, 612360, Note_on_c, 0, 48, 60
2, 612360, Note_on_c, 0, 53, 60
2, 612360, Note_on_c, 0, 56, 63
2, 612540, Note_on_c, 0, 72, 58
2, 612540, Note_on_c, 0, 77, 59
2, 612540, Note_on_c, 0, 80, 56
2, 612685, Note_on_c, 0, 56, 0
2, 612685, Note_on_c, 0, 53, 0
2, 612685, Note_on_c, 0, 44, 0
2, 612685, Note_on_c, 0, 48, 0
2, 612703, Note_on_c, 0, 80, 0
2, 612703, Note_on_c, 0, 72, 0
2, 612703, Note_on_c, 0, 77, 0
2, 612720, Note_on_c, 0, 68, 44
2, 612883, Note_on_c, 0, 68, 0
2, 612900, Note_on_c, 0, 46, 57
2, 612900, Note_on_c, 0, 48, 59
2, 612900, Note_on_c, 0, 55, 60
2, 612900, Note_on_c, 0, 58, 58
2, 613080, Note_on_c, 0, 72, 58
2, 613080, Note_on_c, 0, 79, 59
2, 613080, Note_on_c, 0, 82, 56
2, 613225, Note_on_c, 0, 58, 0
2, 613225, Note_on_c, 0, 55, 0
2, 613225, Note_on_c, 0, 46, 0
2, 613225, Note_on_c, 0, 48, 0
2, 613243, Note_on_c, 0, 82, 0
2, 613243, Note_on_c, 0, 72, 0
2, 613243, Note_on_c, 0, 79, 0
2, 613260, Note_on_c, 0, 70, 42
2, 613423, Note_on_c, 0, 70, 0
2, 613440, Note_on_c, 0, 43, 59
2, 613440, Note_on_c, 0, 48, 63
2, 613440, Note_on_c, 0, 51, 60
2, 613440, Note_on_c, 0, 55, 61
2, 613620, Note_on_c, 0, 72, 57
2, 613620, Note_on_c, 0, 75, 57
2, 613620, Note_on_c, 0, 79, 58
2, 613765, Note_on_c, 0, 55, 0
2, 613765, Note_on_c, 0, 51, 0
2, 613765, Note_on_c, 0, 43, 0
2, 613765, Note_on_c, 0, 48, 0
2, 613783, Note_on_c, 0, 79, 0
2, 613783, Note_on_c, 0, 72, 0
2, 613783, Note_on_c, 0, 75, 0
2, 613800, Note_on_c, 0, 67, 44
2, 613963, Note_on_c, 0, 67, 0
2, 613980, Note_on_c, 0, 43, 57
2, 613980, Note_on_c, 0, 48, 59
2, 613980, Note_on_c, 0, 51, 56
2, 614160, Note_on_c, 0, 67, 56
2, 614160, Note_on_c, 0, 72, 60
2, 614160, Note_on_c, 0, 75, 58
2, 614305, Note_on_c, 0, 51, 0
2, 614305, Note_on_c, 0, 43, 0
2, 614305, Note_on_c, 0, 48, 0
2, 614323, Note_on_c, 0, 67, 0
2, 614323, Note_on_c, 0, 72, 0
2, 614323, Note_on_c, 0, 75, 0
2, 614340, Note_on_c, 0, 63, 45
2, 614503, Note_on_c, 0, 63, 0
2, 614520, Note_on_c, 0, 43, 62
2, 614520, Note_on_c, 0, 48, 63
2, 614520, Note_on_c, 0, 51, 59
2, 614700, Note_on_c, 0, 63, 58
2, 614700, Note_on_c, 0, 67, 56
2, 614700, Note_on_c, 0, 72, 59
2, 614845, Note_on_c, 0, 51, 0
2, 614845, Note_on_c, 0, 43, 0
2, 614845, Note_on_c, 0, 48, 0
2, 614863, Note_on_c, 0, 63, 0
2, 614863, Note_on_c, 0, 67, 0
2, 614863, Note_on_c, 0, 72, 0
2, 614880, Note_on_c, 0, 60, 42
2, 615043, Note_on_c, 0, 60, 0
2, 615060, Note_on_c, 0, 44, 57
2, 615060, Note_on_c, 0, 48, 56
2, 615060, Note_on_c, 0, 51, 59
2, 615240, Note_on_c, 0, 60, 58
2, 615240, Note_on_c, 0, 63, 58
2, 615240, Note_on_c, 0, 68, 57
2, 615385, Note_on_c, 0, 51, 0
2, 615385, Note_on_c, 0, 44, 0
2, 615385, Note_on_c, 0, 48, 0
2, 615403, Note_on_c, 0, 60, 0
2, 615403, Note_on_c, 0, 63, 0
2, 615403, Note_on_c, 0, 68, 0
2, 615420, Note_on_c, 0, 56, 44
2, 615583, Note_on_c, 0, 56, 0
2, 615600, Note_on_c, 0, 43, 61
2, 615600, Note_on_c, 0, 48, 59
2, 615600, Note_on_c, 0, 51, 60
2, 615780, Note_on_c, 0, 60, 58
2, 615780, Note_on_c, 0, 63, 59
2, 615780, Note_on_c, 0, 67, 60
2, 615925, Note_on_c, 0, 51, 0
2, 615925, Note_on_c, 0, 43, 0
2, 615925, Note_on_c, 0, 48, 0
2, 615943, Note_on_c, 0, 60, 0
2, 615943, Note_on_c, 0, 63, 0
2, 615943, Note_on_c, 0, 67, 0
2, 615960, Note_on_c, 0, 55, 44
2, 616123, Note_on_c, 0, 55, 0
2, 616140, Note_on_c, 0, 43, 57
2, 616140, Note_on_c, 0, 48, 59
2, 616140, Note_on_c, 0, 51, 57
2, 616320, Note_on_c, 0, 60, 57
2, 616320, Note_on_c, 0, 63, 58
2, 616320, Note_on_c, 0, 67, 59
2, 616465, Note_on_c, 0, 51, 0
2, 616465, Note_on_c, 0, 43, 0
2, 616465, Note_on_c, 0, 48, 0
2, 616483, Note_on_c, 0, 60, 0
2, 616483, Note_on_c, 0, 63, 0
2, 616483, Note_on_c, 0, 67, 0
2, 616500, Note_on_c, 0, 55, 46
2, 616663, Note_on_c, 0, 55, 0
2, 616680, Note_on_c, 0, 44, 60
2, 616680, Note_on_c, 0, 48, 61
2, 616680, Note_on_c, 0, 51, 63
2, 616860, Note_on_c, 0, 60, 60
2, 616860, Note_on_c, 0, 63, 57
2, 616860, Note_on_c, 0, 68, 59
2, 617005, Note_on_c, 0, 51, 0
2, 617005, Note_on_c, 0, 44, 0
2, 617005, Note_on_c, 0, 48, 0
2, 617023, Note_on_c, 0, 60, 0
2, 617023, Note_on_c, 0, 63, 0
2, 617023, Note_on_c, 0, 68, 0
2, 617040, Note_on_c, 0, 56, 44
2, 617203, Note_on_c, 0, 56, 0
2, 617220, Note_on_c, 0, 46, 57
2, 617220, Note_on_c, 0, 48, 57
2, 617220, Note_on_c, 0, 51, 59
2, 617400, Note_on_c, 0, 60, 60
2, 617400, Note_on_c, 0, 63, 56
2, 617400, Note_on_c, 0, 70, 60
2, 617545, Note_on_c, 0, 51, 0
2, 617545, Note_on_c, 0, 46, 0
2, 617545, Note_on_c, 0, 48, 0
2, 617563, Note_on_c, 0, 60, 0
2, 617563, Note_on_c, 0, 63, 0
2, 617563, Note_on_c, 0, 70, 0
2, 617580, Note_on_c, 0, 58, 45
2, 617743, Note_on_c, 0, 58, 0
2, 617760, Note_on_c, 0, 43, 62
2, 617760, Note_on_c, 0, 48, 59
2, 617760, Note_on_c, 0, 51, 60
2, 617940, Note_on_c, 0, 60, 56
2, 617940, Note_on_c, 0, 63, 56
2, 617940, Note_on_c, 0, 67, 57
2, 618085, Note_on_c, 0, 51, 0
2, 618085, Note_on_c, 0, 43, 0
2, 618085, Note_on_c, 0, 48, 0
2, 618103, Note_on_c, 0, 60, 0
2, 618103, Note_on_c, 0, 63, 0
2, 618103, Note_on_c, 0, 67, 0
2, 618120, Note_on_c, 0, 55, 45
2, 618283, Note_on_c, 0, 55, 0
2, 618300, Note_on_c, 0, 43, 59
2, 618300, Note_on_c, 0, 48, 59
2, 618300, Note_on_c, 0, 51, 57
2, 618480, Note_on_c, 0, 60, 59
2, 618480, Note_on_c, 0, 63, 56
2, 618480, Note_on_c, 0, 67, 59
2, 618625, Note_on_c, 0, 51, 0
2, 618625, Note_on_c, 0, 43, 0
2, 618625, Note_on_c, 0, 48, 0
2, 618643, Note_on_c, 0, 60, 0
2, 618643, Note_on_c, 0, 63, 0
2, 618643, Note_on_c, 0, 67, 0
2, 618660, Note_on_c, 0, 55, 45
2, 618823, Note_on_c, 0, 55, 0
2, 618840, Note_on_c, 0, 44, 60
2, 618840, Note_on_c, 0, 48, 62
2, 618840, Note_on_c, 0, 51, 60
2, 619020, Note_on_c, 0, 60, 57
2, 619020, Note_on_c, 0, 63, 59
2, 619020, Note_on_c, 0, 68, 57
2, 619165, Note_on_c, 0, 51, 0
2, 619165, Note_on_c, 0, 44, 0
2, 619165, Note_on_c, 0, 48, 0
2, 619183, Note_on_c, 0, 60, 0
2, 619183, Note_on_c, 0, 63, 0
2, 619183, Note_on_c, 0, 68, 0
2, 619200, Note_on_c, 0, 56, 43
2, 619363, Note_on_c, 0, 56, 0
2, 619380, Note_on_c, 0, 46, 56
2, 619380, Note_on_c, 0, 48, 56
2, 619380, Note_on_c, 0, 51, 60
2, 619560, Note_on_c, 0, 60, 56
2, 619560, Note_on_c, 0, 63, 58
2, 619560, Note_on_c, 0, 70, 58
2, 619705, Note_on_c, 0, 51, 0
2, 619705, Note_on_c, 0, 46, 0
2, 619705, Note_on_c, 0, 48, 0
2, 619723, Note_on_c, 0, 60, 0
2, 619723, Note_on_c, 0, 63, 0
2, 619723, Note_on_c, 0, 70, 0
2, 619740, Note_on_c, 0, 58, 46
2, 619903, Note_on_c, 0, 58, 0
2, 619920, Note_on_c, 0, 43, 61
2, 619920, Note_on_c, 0, 48, 63
2, 619920, Note_on_c, 0, 51, 62
2, 620100, Note_on_c, 0, 60, 60
2, 620100, Note_on_c, 0, 63, 57
2, 620100, Note_on_c, 0, 67, 60
2, 620245, Note_on_c, 0, 51, 0
2, 620245, Note_on_c, 0, 43, 0
2, 620245, Note_on_c, 0, 48, 0
2, 620263, Note_on_c, 0, 60, 0
2, 620263, Note_on_c, 0, 63, 0
2, 620263, Note_on_c, 0, 67, 0
2, 620280, Note_on_c, 0, 55, 43
2, 620443, Note_on_c, 0, 55, 0
2, 620460, Note_on_c, 0, 44, 56
2, 620460, Note_on_c, 0, 48, 60
2, 620460, Note_on_c, 0, 51, 58
2, 620640, Note_on_c, 0, 60, 58
2, 620640, Note_on_c, 0, 63, 59
2, 620640, Note_on_c, 0, 68, 58
2, 620785, Note_on_c, 0, 51, 0
2, 620785, Note_on_c, 0, 44, 0
2, 620785, Note_on_c, 0, 48, 0
2, 620803, Note_on_c, 0, 60, 0
2, 620803, Note_on_c, 0, 63, 0
2, 620803, Note_on_c, 0, 68, 0
2, 620820, Note_on_c, 0, 56, 43
2, 620983, Note_on_c, 0, 56, 0
2, 621000, Note_on_c, 0, 43, 62
2, 621000, Note_on_c, 0, 48, 62
2, 621000, Note_on_c, 0, 51, 60
2, 621180, Note_on_c, 0, 60, 58
2, 621180, Note_on_c, 0, 63, 56
2, 621180, Note_on_c, 0, 67, 59
2, 621325, Note_on_c, 0, 51, 0
2, 621325, Note_on_c, 0, 43, 0
2, 621325, Note_on_c, 0, 48, 0
2, 621343, Note_on_c, 0, 60, 0
2, 621343, Note_on_c, 0, 63, 0
2, 621343, Note_on_c, 0, 67, 0
2, 621360, Note_on_c, 0, 55, 44
2, 621523, Note_on_c, 0, 55, 0
2, 621540, Note_on_c, 0, 44, 58
2, 621540, Note_on_c, 0, 48, 57
2, 621540, Note_on_c, 0, 51, 56
2, 621720, Note_on_c, 0, 60, 59
2, 621720, Note_on_c, 0, 63, 59
2, 621720, Note_on_c, 0, 68, 59
2, 621865, Note_on_c, 0, 51, 0
2, 621865, Note_on_c, 0, 44, 0
2, 621865, Note_on_c, 0, 48, 0
2, 621883, Note_on_c, 0, 60, 0
2, 621883, Note_on_c, 0, 63, 0
2, 621883, Note_on_c, 0, 68, 0
2, 621900, Note_on_c, 0, 56, 42
2, 622063, Note_on_c, 0, 56, 0
2, 622080, Note_on_c, 0, 43, 60
2, 622080, Note_on_c, 0, 48, 61
2, 622080, Note_on_c, 0, 51, 59
2, 622260, Note_on_c, 0, 60, 58
2, 622260, Note_on_c, 0, 63, 57
2, 622260, Note_on_c, 0, 67, 58
2, 622405, Note_on_c, 0, 51, 0
2, 622405, Note_on_c, 0, 43, 0
2, 622405, Note_on_c, 0, 48, 0
2, 622423, Note_on_c, 0, 60, 0
2, 622423, Note_on_c, 0, 63, 0
2, 622423, Note_on_c, 0, 67, 0
2, 622440, Note_on_c, 0, 55, 45
2, 622603, Note_on_c, 0, 55, 0
2, 622620, Note_on_c, 0, 44, 57
2, 622620, Note_on_c, 0, 48, 58
2, 622620, Note_on_c, 0, 51, 58
2, 622800, Note_on_c, 0, 60, 57
2, 622800, Note_on_c, 0, 63, 58
2, 622800, Note_on_c, 0, 68, 58
2, 622945, Note_on_c, 0, 51, 0
2, 622945, Note_on_c, 0, 44, 0
2, 622945, Note_on_c, 0, 48, 0
2, 622963, Note_on_c, 0, 60, 0
2, 622963, Note_on_c, 0, 63, 0
2, 622963, Note_on_c, 0, 68, 0
2, 622980, Note_on_c, 0, 56, 45
2, 623143, Note_on_c, 0, 56, 0
2, 623160, Note_on_c, 0, 43, 62
2, 623160, Note_on_c, 0, 48, 60
2, 623160, Note_on_c, 0, 51, 59
2, 623340, Note_on_c, 0, 60, 56
2, 623340, Note_on_c, 0, 63, 58
2, 623340, Note_on_c, 0, 67, 59
2, 623485, Note_on_c, 0, 51, 0
2, 623485, Note_on_c, 0, 43, 0
2, 623485, Note_on_c, 0, 48, 0
2, 623503, Note_on_c, 0, 60, 0
2, 623503, Note_on_c, 0, 63, 0
2, 623503, Note_on_c, 0, 67, 0
2, 623520, Note_on_c, 0, 55, 44
2, 623683, Note_on_c, 0, 55, 0
2, 623700, Note_on_c, 0, 44, 57
2, 623700, Note_on_c, 0, 48, 57
2, 623700, Note_on_c, 0, 51, 59
2, 623880, Note_on_c, 0, 60, 59
2, 623880, Note_on_c, 0, 63, 57
2, 623880, Note_on_c, 0, 68, 58
2, 624025, Note_on_c, 0, 51, 0
2, 624025, Note_on_c, 0, 44, 0
2, 624025, Note_on_c, 0, 48, 0
2, 624043, Note_on_c, 0, 60, 0
2, 624043, Note_on_c, 0, 63, 0
2, 624043, Note_on_c, 0, 68, 0
2, 624060, Note_on_c, 0, 56, 43
2, 624223, Note_on_c, 0, 56, 0
2, 624240, Note_on_c, 0, 55, 84
2, 624240, Note_on_c, 0, 60, 84
2, 624240, Note_on_c, 0, 63, 84
2, 624240, Note_on_c, 0, 67, 83
2, 624240, Note_on_c, 0, 43, 60
2, 624240, Note_on_c, 0, 48, 60
2, 624240, Note_on_c, 0, 51, 62
2, 624403, Note_on_c, 0, 51, 0
2, 624403, Note_on_c, 0, 43, 0
2, 624403, Note_on_c, 0, 60, 0
2, 624403, Note_on_c, 0, 63, 0
2, 624403, Note_on_c, 0, 55, 0
2, 624403, Note_on_c, 0, 48, 0
2, 624403, Note_on_c, 0, 67, 0
2, 624780, Note_on_c, 0, 75, 63
2, 624780, Note_on_c, 0, 79, 63
2, 624780, Note_on_c, 0, 84, 60
2, 624780, Note_on_c, 0, 87, 62
2, 624780, Note_on_c, 0, 51, 63
2, 624780, Note_on_c, 0, 55, 60
2, 624780, Note_on_c, 0, 60, 61
2, 624780, Note_on_c, 0, 63, 62
2, 625023, Note_on_c, 0, 63, 0
2, 625023, Note_on_c, 0, 75, 0
2, 625023, Note_on_c, 0, 51, 0
2, 625023, Note_on_c, 0, 79, 0
2, 625023, Note_on_c, 0, 84, 0
2, 625023, Note_on_c, 0, 87, 0
2, 625023, Note_on_c, 0, 55, 0
2, 625023, Note_on_c, 0, 60, 0
2, 625050, Note_on_c, 0, 75, 65
2, 625050, Note_on_c, 0, 79, 63
2, 625050, Note_on_c, 0, 84, 63
2, 625050, Note_on_c, 0, 87, 63
2, 625050, Note_on_c, 0, 51, 63
2, 625050, Note_on_c, 0, 55, 62
2, 625050, Note_on_c, 0, 60, 64
2, 625050, Note_on_c, 0, 63, 65
2, 625293, Note_on_c, 0, 63, 0
2, 625293, Note_on_c, 0, 75, 0
2, 625293, Note_on_c, 0, 51, 0
2, 625293, Note_on_c, 0, 79, 0
2, 625293, Note_on_c, 0, 84, 0
2, 625293, Note_on_c, 0, 87, 0
2, 625293, Note_on_c, 0, 55, 0
2, 625293, Note_on_c, 0, 60, 0
2, 625320, Note_on_c, 0, 75, 68
2, 625320, Note_on_c, 0, 79, 71
2, 625320, Note_on_c, 0, 84, 67
2, 625320, Note_on_c, 0, 87, 69
2, 625320, Note_on_c, 0, 51, 70
2, 625320, Note_on_c, 0, 55, 69
2, 625320, Note_on_c, 0, 60, 69
2, 625320, Note_on_c, 0, 63, 69
2, 625807, Note_on_c, 0, 63, 0
2, 625807, Note_on_c, 0, 75, 0
2, 625807, Note_on_c, 0, 51, 0
2, 625807, Note_on_c, 0, 79, 0
2, 625807, Note_on_c, 0, 84, 0
2, 625807, Note_on_c, 0, 87, 0
2, 625807, Note_on_c, 0, 55, 0
2, 625807, Note_on_c, 0, 60, 0
2, 625860, Note_on_c, 0, 75, 70
2, 625860, Note_on_c, 0, 79, 68
2, 625860, Note_on_c, 0, 84, 70
2, 625860, Note_on_c, 0, 87, 69
2, 625860, Note_on_c, 0, 51, 70
2, 625860, Note_on_c, 0, 55, 68
2, 625860, Note_on_c, 0, 60, 68
2, 625860, Note_on_c, 0, 63, 67
2, 626103, Note_on_c, 0, 63, 0
2, 626103, Note_on_c, 0, 75, 0
2, 626103, Note_on_c, 0, 51, 0
2, 626103, Note_on_c, 0, 79, 0
2, 626103, Note_on_c, 0, 84, 0
2, 626103, Note_on_c, 0, 87, 0
2, 626103, Note_on_c, 0, 55, 0
2, 626103, Note_on_c, 0, 60, 0
2, 626130, Note_on_c, 0, 75, 64
2, 626130, Note_on_c, 0, 79, 68
2, 626130, Note_on_c, 0, 84, 68
2, 626130, Note_on_c, 0, 87, 67
2, 626130, Note_on_c, 0, 51, 66
2, 626130, Note_on_c, 0, 55, 67
2, 626130, Note_on_c, 0, 60, 68
2, 626130, Note_on_c, 0, 63, 66
2, 626373, Note_on_c, 0, 63, 0
2, 626373, Note_on_c, 0, 75, 0
2, 626373, Note_on_c, 0, 51, 0
2, 626373, Note_on_c, 0, 79, 0
2, 626373, Note_on_c, 0, 84, 0
2, 626373, Note_on_c, 0, 87, 0
2, 626373, Note_on_c, 0, 55, 0
2, 626373, Note_on_c, 0, 60, 0
2, 626400, Note_on_c, 0, 75, 71
2, 626400, Note_on_c, 0, 79, 69
2, 626400, Note_on_c, 0, 84, 67
2, 626400, Note_on_c, 0, 87, 70
2, 626400, Note_on_c, 0, 51, 71
2, 626400, Note_on_c, 0, 55, 68
2, 626400, Note_on_c, 0, 60, 70
2, 626400, Note_on_c, 0, 63, 68
2, 626887, Note_on_c, 0, 63, 0
2, 626887, Note_on_c, 0, 75, 0
2, 626887, Note_on_c, 0, 51, 0
2, 626887, Note_on_c, 0, 79, 0
2, 626887, Note_on_c, 0, 84, 0
2, 626887, Note_on_c, 0, 87, 0
2, 626887, Note_on_c, 0, 55, 0
2, 626887, Note_on_c, 0, 60, 0
2, 626940, Note_on_c, 0, 75, 71
2, 626940, Note_on_c, 0, 79, 67
2, 626940, Note_on_c, 0, 84, 69
2, 626940, Note_on_c, 0, 87, 71
2, 626940, Note_on_c, 0, 51, 68
2, 626940, Note_on_c, 0, 55, 70
2, 626940, Note_on_c, 0, 60, 70
2, 626940, Note_on_c, 0, 63, 68
2, 627183, Note_on_c, 0, 63, 0
2, 627183, Note_on_c, 0, 75, 0
2, 627183, Note_on_c, 0, 51, 0
2, 627183, Note_on_c, 0, 79, 0
2, 627183, Note_on_c, 0, 84, 0
2, 627183, Note_on_c, 0, 87, 0
2, 627183, Note_on_c, 0, 55, 0
2, 627183, Note_on_c, 0, 60, 0
2, 627210, Note_on_c, 0, 75, 68
2, 627210, Note_on_c, 0, 79, 64
2, 627210, Note_on_c, 0, 84, 67
2, 627210, Note_on_c, 0, 87, 66
2, 627210, Note_on_c, 0, 51, 67
2, 627210, Note_on_c, 0, 55, 64
2, 627210, Note_on_c, 0, 60, 66
2, 627210, Note_on_c, 0, 63, 68
2, 627453, Note_on_c, 0, 63, 0
2, 627453, Note_on_c, 0, 75, 0
2, 627453, Note_on_c, 0, 51, 0
2, 627453, Note_on_c, 0, 79, 0
2, 627453, Note_on_c, 0, 84, 0
2, 627453, Note_on_c, 0, 87, 0
2, 627453, Note_on_c, 0, 55, 0
2, 627453, Note_on_c, 0, 60, 0
2, 627480, Note_on_c, 0, 75, 68
2, 627480, Note_on_c, 0, 79, 68
2, 627480, Note_on_c, 0, 84, 70
2, 627480, Note_on_c, 0, 87, 71
2, 627480, Note_on_c, 0, 51, 69
2, 627480, Note_on_c, 0, 55, 71
2, 627480, Note_on_c, 0, 60, 67
2, 627480, Note_on_c, 0, 63, 68
2, 627723, Note_on_c, 0, 63, 0
2, 627723, Note_on_c, 0, 75, 0
2, 627723, Note_on_c, 0, 51, 0
2, 627723, Note_on_c, 0, 79, 0
2, 627723, Note_on_c, 0, 84, 0
2, 627723, Note_on_c, 0, 87, 0
2, 627723, Note_on_c, 0, 55, 0
2, 627723, Note_on_c, 0, 60, 0
2, 627750, Note_on_c, 0, 75, 67
2, 627750, Note_on_c, 0, 79, 67
2, 627750, Note_on_c, 0, 84, 66
2, 627750, Note_on_c, 0, 87, 66
2, 627750, Note_on_c, 0, 51, 66
2, 627750, Note_on_c, 0, 55, 65
2, 627750, Note_on_c, 0, 60, 65
2, 627750, Note_on_c, 0, 63, 67
2, 627993, Note_on_c, 0, 63, 0
2, 627993, Note_on_c, 0, 75, 0
2, 627993, Note_on_c, 0, 51, 0
2, 627993, Note_on_c, 0, 79, 0
2, 627993, Note_on_c, 0, 84, 0
2, 627993, Note_on_c, 0, 87, 0
2, 627993, Note_on_c, 0, 55, 0
2, 627993, Note_on_c, 0, 60, 0
2, 628020, Note_on_c, 0, 75, 69
2, 628020, Note_on_c, 0, 79, 67
2, 628020, Note_on_c, 0, 84, 68
2, 628020, Note_on_c, 0, 87, 70
2, 628020, Note_on_c, 0, 51, 69
2, 628020, Note_on_c, 0, 55, 69
2, 628020, Note_on_c, 0, 60, 69
2, 628020, Note_on_c, 0, 63, 69
2, 628263, Note_on_c, 0, 63, 0
2, 628263, Note_on_c, 0, 75, 0
2, 628263, Note_on_c, 0, 51, 0
2, 628263, Note_on_c, 0, 79, 0
2, 628263, Note_on_c, 0, 84, 0
2, 628263, Note_on_c, 0, 87, 0
2, 628263, Note_on_c, 0, 55, 0
2, 628263, Note_on_c, 0, 60, 0
2, 628290, Note_on_c, 0, 75, 68
2, 628290, Note_on_c, 0, 79, 67
2, 628290, Note_on_c, 0, 84, 68
2, 628290, Note_on_c, 0, 87, 67
2, 628290, Note_on_c, 0, 51, 67
2, 628290, Note_on_c, 0, 55, 67
2, 628290, Note_on_c, 0, 60, 65
2, 628290, Note_on_c, 0, 63, 65
2, 628533, Note_on_c, 0, 63, 0
2, 628533, Note_on_c, 0, 75, 0
2, 628533, Note_on_c, 0, 51, 0
2, 628533, Note_on_c, 0, 79, 0
2, 628533, Note_on_c, 0, 84, 0
2, 628533, Note_on_c, 0, 87, 0
2, 628533, Note_on_c, 0, 55, 0
2, 628533, Note_on_c, 0, 60, 0
2, 628560, Note_on_c, 0, 75, 67
2, 628560, Note_on_c, 0, 79, 68
2, 628560, Note_on_c, 0, 84, 68
2, 628560, Note_on_c, 0, 87, 70
2, 628560, Note_on_c, 0, 51, 70
2, 628560, Note_on_c, 0, 55, 69
2, 628560, Note_on_c, 0, 60, 67
2, 628560, Note_on_c, 0, 63, 67
2, 629047, Note_on_c, 0, 63, 0
2, 629047, Note_on_c, 0, 75, 0
2, 629047, Note_on_c, 0, 51, 0
2, 629047, Note_on_c, 0, 79, 0
2, 629047, Note_on_c, 0, 84, 0
2, 629047, Note_on_c, 0, 87, 0
2, 629047, Note_on_c, 0, 55, 0
2, 629047, Note_on_c, 0, 60, 0
2, 629100, Note_on_c, 0, 43, 49
2, 629100, Note_on_c, 0, 31, 47
2, 629263, Note_on_c, 0, 31, 0
2, 629263, Note_on_c, 0, 43, 0
2, 629280, Note_on_c, 0, 44, 67
2, 629280, Note_on_c, 0, 32, 68
2, 629443, Note_on_c, 0, 32, 0
2, 629443, Note_on_c, 0, 44, 0
2, 629460, Note_on_c, 0, 43, 60
2, 629460, Note_on_c, 0, 31, 63
2, 629623, Note_on_c, 0, 31, 0
2, 629623, Note_on_c, 0, 43, 0
2, 629640, Note_on_c, 0, 44, 71
2, 629640, Note_on_c, 0, 32, 70
2, 629803, Note_on_c, 0, 32, 0
2, 629803, Note_on_c, 0, 44, 0
2, 629820, Note_on_c, 0, 43, 63
2, 629820, Note_on_c, 0, 31, 63
2, 629983, Note_on_c, 0, 31, 0
2, 629983, Note_on_c, 0, 43, 0
2, 630000, Note_on_c, 0, 44, 69
2, 630000, Note_on_c, 0, 32, 66
2, 630163, Note_on_c, 0, 32, 0
2, 630163, Note_on_c, 0, 44, 0
2, 630180, Note_on_c, 0, 43, 65
2, 630180, Note_on_c, 0, 31, 66
2, 630343, Note_on_c, 0, 31, 0
2, 630343, Note_on_c, 0, 43, 0
2, 630360, Note_on_c, 0, 44, 67
2, 630360, Note_on_c, 0, 32, 68
2, 630523, Note_on_c, 0, 32, 0
2, 630523, Note_on_c, 0, 44, 0
2, 630540, Note_on_c, 0, 43, 62
2, 630540, Note_on_c, 0, 31, 61
2, 630703, Note_on_c, 0, 31, 0
2, 630703, Note_on_c, 0, 43, 0
2, 630720, Note_on_c, 0, 48, 106
2, 630720, Note_on_c, 0, 24, 106
2, 630720, Note_on_c, 0, 36, 105
2, 632810, Note_on_c, 0, 36, 0
2, 632810, Note_on_c, 0, 24, 0
2, 632810, Note_on_c, 0, 48, 0
2, 632810, End_track
3, 0, Start_track
3, 0, Title_t, "Piano"
3, 0, Control_c, 0, 0, 0
3, 0, Control_c, 0, 7, 105
3, 0, Control_c, 0, 10, 47
3, 0, Control_c, 0, 91, 72
3, 0, Control_c, 0, 91, 72
3, 0, Control_c, 0, 10, 60
3, 0, Control_c, 0, 32, 0
3, 1, Program_c, 0, 0
3, 540, Note_on_c, 0, 43, 62
3, 540, Note_on_c, 0, 31, 59
3, 703, Note_on_c, 0, 31, 0
3, 703, Note_on_c, 0, 43, 0
3, 720, Note_on_c, 0, 41, 62
3, 720, Note_on_c, 0, 29, 61
3, 883, Note_on_c, 0, 29, 0
3, 883, Note_on_c, 0, 41, 0
3, 900, Note_on_c, 0, 43, 70
3, 900, Note_on_c, 0, 31, 69
3, 1063, Note_on_c, 0, 31, 0
3, 1063, Note_on_c, 0, 43, 0
3, 1080, Note_on_c, 0, 44, 73
3, 1080, Note_on_c, 0, 32, 71
3, 1243, Note_on_c, 0, 32, 0
3, 1405, Note_on_c, 0, 44, 0
3, 1440, Note_on_c, 0, 44, 67
3, 1440, Note_on_c, 0, 32, 57
3, 1603, Note_on_c, 0, 32, 0
3, 1603, Note_on_c, 0, 44, 0
3, 1620, Note_on_c, 0, 46, 69
3, 1620, Note_on_c, 0, 34, 73
3, 1945, Note_on_c, 0, 34, 0
3, 1945, Note_on_c, 0, 46, 0
3, 1980, Note_on_c, 0, 46, 66
3, 1980, Note_on_c, 0, 34, 66
3, 2143, Note_on_c, 0, 34, 0
3, 2143, Note_on_c, 0, 46, 0
3, 2160, Note_on_c, 0, 31, 115
3, 2160, Note_on_c, 0, 43, 115
3, 4860, Note_on_c, 0, 51, 61
3, 5023, Note_on_c, 0, 51, 0
3, 5040, Note_on_c, 0, 50, 60
3, 5203, Note_on_c, 0, 50, 0
3, 5220, Note_on_c, 0, 51, 67
3, 5383, Note_on_c, 0, 51, 0
3, 5400, Note_on_c, 0, 53, 74
3, 5725, Note_on_c, 0, 53, 0
3, 5760, Note_on_c, 0, 53, 68
3, 5923, Note_on_c, 0, 53, 0
3, 5940, Note_on_c, 0, 55, 69
3, 6427, Note_on_c, 0, 55, 0
3, 6480, Note_on_c, 0, 51, 60
3, 6805, Note_on_c, 0, 51, 0
3, 6840, Note_on_c, 0, 53, 69
3, 7003, Note_on_c, 0, 53, 0
3, 7020, Note_on_c, 0, 55, 74
3, 7183, Note_on_c, 0, 55, 0
3, 7200, Note_on_c, 0, 54, 63
3, 7363, Note_on_c, 0, 54, 0
3, 7380, Note_on_c, 0, 55, 69
3, 7543, Note_on_c, 0, 55, 0
3, 7560, Note_on_c, 0, 56, 74
3, 7885, Note_on_c, 0, 56, 0
3, 7920, Note_on_c, 0, 56, 67
3, 8083, Note_on_c, 0, 56, 0
3, 8100, Note_on_c, 0, 58, 70
3, 8425, Note_on_c, 0, 58, 0
3, 8460, Note_on_c, 0, 58, 65
3, 8570, Note_on_c, 0, 43, 0
3, 8570, Note_on_c, 0, 31, 0
3, 8623, Note_on_c, 0, 58, 0
3, 8640, Note_on_c, 0, 55, 61
3, 8640, Note_on_c, 0, 31, 68
3, 8640, Note_on_c, 0, 43, 68
3, 9127, Note_on_c, 0, 55, 0
3, 9180, Note_on_c, 0, 60, 77
3, 9343, Note_on_c, 0, 60, 0
3, 9360, Note_on_c, 0, 59, 62
3, 9523, Note_on_c, 0, 59, 0
3, 9540, Note_on_c, 0, 60, 69
3, 9703, Note_on_c, 0, 60, 0
3, 9720, Note_on_c, 0, 61, 73
3, 10045, Note_on_c, 0, 61, 0
3, 10080, Note_on_c, 0, 61, 66
3, 10243, Note_on_c, 0, 61, 0
3, 10260, Note_on_c, 0, 62, 69
3, 10585, Note_on_c, 0, 62, 0
3, 10620, Note_on_c, 0, 62, 65
3, 10783, Note_on_c, 0, 62, 0
3, 10800, Note_on_c, 0, 60, 62
3, 10963, Note_on_c, 0, 60, 0
3, 10980, Note_on_c, 0, 62, 70
3, 11143, Note_on_c, 0, 62, 0
3, 11160, Note_on_c, 0, 63, 69
3, 11323, Note_on_c, 0, 63, 0
3, 11340, Note_on_c, 0, 64, 71
3, 11665, Note_on_c, 0, 64, 0
3, 11700, Note_on_c, 0, 64, 65
3, 11863, Note_on_c, 0, 64, 0
3, 11880, Note_on_c, 0, 65, 71
3, 12043, Note_on_c, 0, 65, 0
3, 12060, Note_on_c, 0, 64, 63
3, 12223, Note_on_c, 0, 64, 0
3, 12240, Note_on_c, 0, 65, 71
3, 12403, Note_on_c, 0, 65, 0
3, 12420, Note_on_c, 0, 66, 69
3, 12745, Note_on_c, 0, 66, 0
3, 12780, Note_on_c, 0, 66, 65
3, 12943, Note_on_c, 0, 66, 0
3, 12960, Note_on_c, 0, 60, 72
3, 12960, Note_on_c, 0, 63, 70
3, 12960, Note_on_c, 0, 67, 70
3, 13123, Note_on_c, 0, 67, 0
3, 13123, Note_on_c, 0, 60, 0
3, 13123, Note_on_c, 0, 31, 0
3, 13123, Note_on_c, 0, 43, 0
3, 13123, Note_on_c, 0, 63, 0
3, 13500, Note_on_c, 0, 60, 58
3, 13500, Note_on_c, 0, 63, 57
3, 13500, Note_on_c, 0, 67, 59
3, 13500, Note_on_c, 0, 43, 60
3, 13500, Note_on_c, 0, 55, 59
3, 13589, Note_on_c, 0, 55, 0
3, 13589, Note_on_c, 0, 43, 0
3, 13677, Note_on_c, 0, 60, 0
3, 13677, Note_on_c, 0, 63, 0
3, 13677, Note_on_c, 0, 67, 0
3, 14040, Note_on_c, 0, 60, 59
3, 14040, Note_on_c, 0, 63, 61
3, 14040, Note_on_c, 0, 69, 61
3, 14040, Note_on_c, 0, 42, 59
3, 14040, Note_on_c, 0, 54, 61
3, 14217, Note_on_c, 0, 54, 0
3, 14217, Note_on_c, 0, 69, 0
3, 14217, Note_on_c, 0, 60, 0
3, 14217, Note_on_c, 0, 63, 0
3, 14217, Note_on_c, 0, 42, 0
3, 14580, Note_on_c, 0, 62, 60
3, 14580, Note_on_c, 0, 67, 56
3, 14580, Note_on_c, 0, 71, 59
3, 14580, Note_on_c, 0, 41, 59
3, 14580, Note_on_c, 0, 53, 57
3, 14757, Note_on_c, 0, 53, 0
3, 14757, Note_on_c, 0, 71, 0
3, 14757, Note_on_c, 0, 62, 0
3, 14757, Note_on_c, 0, 67, 0
3, 14757, Note_on_c, 0, 41, 0
3, 15120, Note_on_c, 0, 60, 60
3, 15120, Note_on_c, 0, 63, 61
3, 15120, Note_on_c, 0, 67, 60
3, 15120, Note_on_c, 0, 72, 61
3, 15120, Note_on_c, 0, 39, 60
3, 15120, Note_on_c, 0, 51, 62
3, 15297, Note_on_c, 0, 51, 0
3, 15297, Note_on_c, 0, 63, 0
3, 15297, Note_on_c, 0, 67, 0
3, 15297, Note_on_c, 0, 60, 0
3, 15297, Note_on_c, 0, 39, 0
3, 15297, Note_on_c, 0, 72, 0
3, 15660, Note_on_c, 0, 62, 58
3, 15660, Note_on_c, 0, 67, 57
3, 15660, Note_on_c, 0, 74, 59
3, 15660, Note_on_c, 0, 35, 58
3, 15660, Note_on_c, 0, 47, 60
3, 15837, Note_on_c, 0, 47, 0
3, 15837, Note_on_c, 0, 74, 0
3, 15837, Note_on_c, 0, 62, 0
3, 15837, Note_on_c, 0, 67, 0
3, 15837, Note_on_c, 0, 35, 0
3, 16200, Note_on_c, 0, 63, 63
3, 16200, Note_on_c, 0, 67, 60
3, 16200, Note_on_c, 0, 73, 61
3, 16200, Note_on_c, 0, 75, 63
3, 16200, Note_on_c, 0, 34, 60
3, 16200, Note_on_c, 0, 46, 61
3, 16377, Note_on_c, 0, 46, 0
3, 16377, Note_on_c, 0, 67, 0
3, 16377, Note_on_c, 0, 73, 0
3, 16377, Note_on_c, 0, 63, 0
3, 16377, Note_on_c, 0, 34, 0
3, 16377, Note_on_c, 0, 75, 0
3, 16740, Note_on_c, 0, 64, 59
3, 16740, Note_on_c, 0, 67, 59
3, 16740, Note_on_c, 0, 73, 58
3, 16740, Note_on_c, 0, 76, 57
3, 16740, Note_on_c, 0, 33, 57
3, 16740, Note_on_c, 0, 45, 57
3, 16917, Note_on_c, 0, 45, 0
3, 16917, Note_on_c, 0, 67, 0
3, 16917, Note_on_c, 0, 73, 0
3, 16917, Note_on_c, 0, 64, 0
3, 16917, Note_on_c, 0, 33, 0
3, 16917, Note_on_c, 0, 76, 0
3, 17280, Note_on_c, 0, 65, 60
3, 17280, Note_on_c, 0, 68, 62
3, 17280, Note_on_c, 0, 72, 60
3, 17280, Note_on_c, 0, 77, 61
3, 17280, Note_on_c, 0, 32, 61
3, 17280, Note_on_c, 0, 44, 60
3, 17457, Note_on_c, 0, 44, 0
3, 17457, Note_on_c, 0, 68, 0
3, 17457, Note_on_c, 0, 72, 0
3, 17457, Note_on_c, 0, 65, 0
3, 17457, Note_on_c, 0, 32, 0
3, 17457, Note_on_c, 0, 77, 0
3, 17820, Note_on_c, 0, 67, 59
3, 17820, Note_on_c, 0, 72, 59
3, 17820, Note_on_c, 0, 79, 58
3, 17820, Note_on_c, 0, 28, 57
3, 17820, Note_on_c, 0, 40, 58
3, 17997, Note_on_c, 0, 40, 0
3, 17997, Note_on_c, 0, 79, 0
3, 17997, Note_on_c, 0, 67, 0
3, 17997, Note_on_c, 0, 72, 0
3, 17997, Note_on_c, 0, 28, 0
3, 18360, Note_on_c, 0, 68, 62
3, 18360, Note_on_c, 0, 72, 59
3, 18360, Note_on_c, 0, 78, 62
3, 18360, Note_on_c, 0, 80, 59
3, 18360, Note_on_c, 0, 27, 61
3, 18360, Note_on_c, 0, 39, 61
3, 18537, Note_on_c, 0, 39, 0
3, 18537, Note_on_c, 0, 72, 0
3, 18537, Note_on_c, 0, 78, 0
3, 18537, Note_on_c, 0, 68, 0
3, 18537, Note_on_c, 0, 27, 0
3, 18537, Note_on_c, 0, 80, 0
3, 18900, Note_on_c, 0, 69, 60
3, 18900, Note_on_c, 0, 72, 57
3, 18900, Note_on_c, 0, 78, 59
3, 18900, Note_on_c, 0, 81, 57
3, 18900, Note_on_c, 0, 26, 59
3, 18900, Note_on_c, 0, 38, 58
3, 19077, Note_on_c, 0, 38, 0
3, 19077, Note_on_c, 0, 72, 0
3, 19077, Note_on_c, 0, 78, 0
3, 19077, Note_on_c, 0, 69, 0
3, 19077, Note_on_c, 0, 26, 0
3, 19077, Note_on_c, 0, 81, 0
3, 19440, Note_on_c, 0, 50, 60
3, 19440, Note_on_c, 0, 53, 60
3, 19440, Note_on_c, 0, 56, 60
3, 19440, Note_on_c, 0, 60, 62
3, 19440, Note_on_c, 0, 31, 61
3, 19440, Note_on_c, 0, 43, 60
3, 19706, Note_on_c, 0, 60, 0
3, 19706, Note_on_c, 0, 56, 0
3, 19706, Note_on_c, 0, 50, 0
3, 19706, Note_on_c, 0, 53, 0
3, 19765, Note_on_c, 0, 43, 0
3, 19765, Note_on_c, 0, 31, 0
3, 20520, Note_on_c, 0, 50, 59
3, 20520, Note_on_c, 0, 53, 63
3, 20520, Note_on_c, 0, 55, 61
3, 20520, Note_on_c, 0, 59, 62
3, 20520, Note_on_c, 0, 31, 63
3, 20520, Note_on_c, 0, 43, 61
3, 20786, Note_on_c, 0, 59, 0
3, 20786, Note_on_c, 0, 55, 0
3, 20786, Note_on_c, 0, 50, 0
3, 20786, Note_on_c, 0, 53, 0
3, 20845, Note_on_c, 0, 43, 0
3, 20845, Note_on_c, 0, 31, 0
3, 23760, Note_on_c, 0, 48, 61
3, 23760, Note_on_c, 0, 60, 59
3, 23760, Note_on_c, 0, 24, 59
3, 23760, Note_on_c, 0, 36, 60
3, 27487, Note_on_c, 0, 36, 0
3, 27487, Note_on_c, 0, 48, 0
3, 27487, Note_on_c, 0, 60, 0
3, 27487, Note_on_c, 0, 24, 0
3, 27540, Note_on_c, 0, 55, 109
3, 27540, Note_on_c, 0, 67, 109
3, 27540, Note_on_c, 0, 31, 109
3, 27540, Note_on_c, 0, 43, 109
3, 28027, Note_on_c, 0, 43, 0
3, 28027, Note_on_c, 0, 55, 0
3, 28027, Note_on_c, 0, 67, 0
3, 28027, Note_on_c, 0, 31, 0
3, 28080, Note_on_c, 0, 48, 78
3, 28080, Note_on_c, 0, 60, 81
3, 28080, Note_on_c, 0, 24, 77
3, 28080, Note_on_c, 0, 36, 81
3, 31807, Note_on_c, 0, 36, 0
3, 31807, Note_on_c, 0, 48, 0
3, 31807, Note_on_c, 0, 60, 0
3, 31807, Note_on_c, 0, 24, 0
3, 31860, Note_on_c, 0, 55, 58
3, 31860, Note_on_c, 0, 31, 57
3, 32023, Note_on_c, 0, 31, 0
3, 32023, Note_on_c, 0, 55, 0
3, 32040, Note_on_c, 0, 56, 68
3, 32040, Note_on_c, 0, 32, 66
3, 32203, Note_on_c, 0, 32, 0
3, 32203, Note_on_c, 0, 56, 0
3, 32220, Note_on_c, 0, 55, 62
3, 32220, Note_on_c, 0, 31, 63
3, 32383, Note_on_c, 0, 31, 0
3, 32383, Note_on_c, 0, 55, 0
3, 32400, Note_on_c, 0, 48, 53
3, 32400, Note_on_c, 0, 24, 78
3, 32400, Note_on_c, 0, 36, 77
3, 34490, Note_on_c, 0, 36, 0
3, 34490, Note_on_c, 0, 24, 0
3, 34490, Note_on_c, 0, 48, 0
3, 34560, Note_on_c, 0, 57, 117
3, 34560, Note_on_c, 0, 60, 117
3, 34560, Note_on_c, 0, 63, 117
3, 34560, Note_on_c, 0, 69, 117
3, 34560, Note_on_c, 0, 30, 108
3, 34560, Note_on_c, 0, 42, 108
3, 35570, Note_on_c, 0, 42, 0
3, 35570, Note_on_c, 0, 60, 0
3, 35570, Note_on_c, 0, 63, 0
3, 35570, Note_on_c, 0, 57, 0
3, 35570, Note_on_c, 0, 30, 0
3, 35570, Note_on_c, 0, 69, 0
3, 35640, Note_on_c, 0, 59, 104
3, 35640, Note_on_c, 0, 62, 106
3, 35640, Note_on_c, 0, 65, 104
3, 35640, Note_on_c, 0, 71, 104
3, 35640, Note_on_c, 0, 31, 101
3, 35640, Note_on_c, 0, 43, 100
3, 36650, Note_on_c, 0, 43, 0
3, 36650, Note_on_c, 0, 62, 0
3, 36650, Note_on_c, 0, 65, 0
3, 36650, Note_on_c, 0, 59, 0
3, 36650, Note_on_c, 0, 31, 0
3, 36650, Note_on_c, 0, 71, 0
3, 36720, Note_on_c, 0, 60, 100
3, 36720, Note_on_c, 0, 72, 98
3, 36720, Note_on_c, 0, 36, 106
3, 36720, Note_on_c, 0, 48, 109
3, 38810, Note_on_c, 0, 48, 0
3, 38810, Note_on_c, 0, 60, 0
3, 38810, Note_on_c, 0, 72, 0
3, 38810, Note_on_c, 0, 36, 0
3, 38880, Note_on_c, 0, 48, 68
3, 38880, Note_on_c, 0, 56, 68
3, 38880, Note_on_c, 0, 29, 74
3, 38880, Note_on_c, 0, 41, 74
3, 39146, Note_on_c, 0, 41, 0
3, 39146, Note_on_c, 0, 29, 0
3, 39367, Note_on_c, 0, 56, 0
3, 39367, Note_on_c, 0, 48, 0
3, 39420, Note_on_c, 0, 50, 91
3, 39420, Note_on_c, 0, 57, 91
3, 39420, Note_on_c, 0, 30, 91
3, 39420, Note_on_c, 0, 42, 93
3, 40226, Note_on_c, 0, 42, 0
3, 40226, Note_on_c, 0, 30, 0
3, 40447, Note_on_c, 0, 57, 0
3, 40447, Note_on_c, 0, 50, 0
3, 40500, Note_on_c, 0, 50, 98
3, 40500, Note_on_c, 0, 53, 98
3, 40500, Note_on_c, 0, 59, 97
3, 40500, Note_on_c, 0, 31, 93
3, 40500, Note_on_c, 0, 43, 95
3, 40766, Note_on_c, 0, 43, 0
3, 40766, Note_on_c, 0, 31, 0
3, 40987, Note_on_c, 0, 50, 0
3, 40987, Note_on_c, 0, 53, 0
3, 40987, Note_on_c, 0, 59, 0
3, 41040, Note_on_c, 0, 48, 85
3, 41040, Note_on_c, 0, 60, 82
3, 41040, Note_on_c, 0, 24, 82
3, 41040, Note_on_c, 0, 36, 83
3, 41580, Note_on_c, 0, 55, 59
3, 41580, Note_on_c, 0, 60, 62
3, 41580, Note_on_c, 0, 63, 61
3, 41580, Note_on_c, 0, 67, 63
3, 41743, Note_on_c, 0, 67, 0
3, 41743, Note_on_c, 0, 63, 0
3, 41743, Note_on_c, 0, 60, 0
3, 41743, Note_on_c, 0, 55, 0
3, 41760, Note_on_c, 0, 75, 60
3, 41760, Note_on_c, 0, 79, 58
3, 41923, Note_on_c, 0, 79, 0
3, 41923, Note_on_c, 0, 75, 0
3, 41940, Note_on_c, 0, 72, 51
3, 42050, Note_on_c, 0, 60, 0
3, 42050, Note_on_c, 0, 36, 0
3, 42050, Note_on_c, 0, 48, 0
3, 42050, Note_on_c, 0, 24, 0
3, 42103, Note_on_c, 0, 72, 0
3, 42120, Note_on_c, 0, 56, 62
3, 42120, Note_on_c, 0, 60, 60
3, 42120, Note_on_c, 0, 65, 62
3, 42120, Note_on_c, 0, 68, 63
3, 42300, Note_on_c, 0, 77, 60
3, 42300, Note_on_c, 0, 80, 58
3, 42445, Note_on_c, 0, 68, 0
3, 42445, Note_on_c, 0, 65, 0
3, 42445, Note_on_c, 0, 56, 0
3, 42445, Note_on_c, 0, 60, 0
3, 42463, Note_on_c, 0, 80, 0
3, 42463, Note_on_c, 0, 77, 0
3, 42480, Note_on_c, 0, 72, 48
3, 42643, Note_on_c, 0, 72, 0
3, 42660, Note_on_c, 0, 58, 59
3, 42660, Note_on_c, 0, 60, 59
3, 42660, Note_on_c, 0, 67, 59
3, 42660, Note_on_c, 0, 70, 58
3, 42840, Note_on_c, 0, 79, 58
3, 42840, Note_on_c, 0, 82, 59
3, 42985, Note_on_c, 0, 70, 0
3, 42985, Note_on_c, 0, 67, 0
3, 42985, Note_on_c, 0, 58, 0
3, 42985, Note_on_c, 0, 60, 0
3, 43003, Note_on_c, 0, 82, 0
3, 43003, Note_on_c, 0, 79, 0
3, 43020, Note_on_c, 0, 72, 48
3, 43183, Note_on_c, 0, 72, 0
3, 43200, Note_on_c, 0, 55, 62
3, 43200, Note_on_c, 0, 60, 63
3, 43200, Note_on_c, 0, 63, 60
3, 43200, Note_on_c, 0, 67, 61
3, 43380, Note_on_c, 0, 75, 58
3, 43380, Note_on_c, 0, 79, 57
3, 43525, Note_on_c, 0, 67, 0
3, 43525, Note_on_c, 0, 63, 0
3, 43525, Note_on_c, 0, 55, 0
3, 43525, Note_on_c, 0, 60, 0
3, 43543, Note_on_c, 0, 79, 0
3, 43543, Note_on_c, 0, 75, 0
3, 43560, Note_on_c, 0, 72, 50
3, 43723, Note_on_c, 0, 72, 0
3, 43740, Note_on_c, 0, 55, 57
3, 43740, Note_on_c, 0, 60, 58
3, 43740, Note_on_c, 0, 63, 57
3, 43920, Note_on_c, 0, 72, 58
3, 43920, Note_on_c, 0, 75, 60
3, 44065, Note_on_c, 0, 63, 0
3, 44065, Note_on_c, 0, 55, 0
3, 44065, Note_on_c, 0, 60, 0
3, 44083, Note_on_c, 0, 72, 0
3, 44083, Note_on_c, 0, 75, 0
3, 44100, Note_on_c, 0, 67, 47
3, 44263, Note_on_c, 0, 67, 0
3, 44280, Note_on_c, 0, 53, 63
3, 44280, Note_on_c, 0, 56, 62
3, 44280, Note_on_c, 0, 62, 60
3, 44460, Note_on_c, 0, 68, 56
3, 44460, Note_on_c, 0, 74, 59
3, 44605, Note_on_c, 0, 62, 0
3, 44605, Note_on_c, 0, 53, 0
3, 44605, Note_on_c, 0, 56, 0
3, 44623, Note_on_c, 0, 68, 0
3, 44623, Note_on_c, 0, 74, 0
3, 44640, Note_on_c, 0, 65, 49
3, 44803, Note_on_c, 0, 65, 0
3, 44820, Note_on_c, 0, 50, 58
3, 44820, Note_on_c, 0, 55, 57
3, 44820, Note_on_c, 0, 59, 58
3, 45000, Note_on_c, 0, 65, 57
3, 45000, Note_on_c, 0, 71, 57
3, 45145, Note_on_c, 0, 59, 0
3, 45145, Note_on_c, 0, 50, 0
3, 45145, Note_on_c, 0, 55, 0
3, 45163, Note_on_c, 0, 65, 0
3, 45163, Note_on_c, 0, 71, 0
3, 45180, Note_on_c, 0, 62, 48
3, 45343, Note_on_c, 0, 62, 0
3, 45360, Note_on_c, 0, 51, 61
3, 45360, Note_on_c, 0, 55, 63
3, 45360, Note_on_c, 0, 60, 61
3, 45540, Note_on_c, 0, 67, 57
3, 45540, Note_on_c, 0, 72, 58
3, 45685, Note_on_c, 0, 60, 0
3, 45685, Note_on_c, 0, 51, 0
3, 45685, Note_on_c, 0, 55, 0
3, 45703, Note_on_c, 0, 67, 0
3, 45703, Note_on_c, 0, 72, 0
3, 45720, Note_on_c, 0, 63, 46
3, 45883, Note_on_c, 0, 63, 0
3, 45900, Note_on_c, 0, 55, 56
3, 45900, Note_on_c, 0, 60, 59
3, 45900, Note_on_c, 0, 63, 59
3, 45900, Note_on_c, 0, 67, 57
3, 46080, Note_on_c, 0, 75, 59
3, 46080, Note_on_c, 0, 79, 60
3, 46225, Note_on_c, 0, 67, 0
3, 46225, Note_on_c, 0, 63, 0
3, 46225, Note_on_c, 0, 55, 0
3, 46225, Note_on_c, 0, 60, 0
3, 46243, Note_on_c, 0, 79, 0
3, 46243, Note_on_c, 0, 75, 0
3, 46260, Note_on_c, 0, 72, 52
3, 46423, Note_on_c, 0, 72, 0
3, 46440, Note_on_c, 0, 56, 62
3, 46440, Note_on_c, 0, 60, 63
3, 46440, Note_on_c, 0, 65, 60
3, 46440, Note_on_c, 0, 68, 60
3, 46620, Note_on_c, 0, 77, 59
3, 46620, Note_on_c, 0, 80, 56
3, 46765, Note_on_c, 0, 68, 0
3, 46765, Note_on_c, 0, 65, 0
3, 46765, Note_on_c, 0, 56, 0
3, 46765, Note_on_c, 0, 60, 0
3, 46783, Note_on_c, 0, 80, 0
3, 46783, Note_on_c, 0, 77, 0
3, 46800, Note_on_c, 0, 72, 49
3, 46963, Note_on_c, 0, 72, 0
3, 46980, Note_on_c, 0, 58, 59
3, 46980, Note_on_c, 0, 60, 58
3, 46980, Note_on_c, 0, 67, 56
3, 46980, Note_on_c, 0, 70, 58
3, 47160, Note_on_c, 0, 79, 59
3, 47160, Note_on_c, 0, 82, 59
3, 47305, Note_on_c, 0, 70, 0
3, 47305, Note_on_c, 0, 67, 0
3, 47305, Note_on_c, 0, 58, 0
3, 47305, Note_on_c, 0, 60, 0
3, 47323, Note_on_c, 0, 82, 0
3, 47323, Note_on_c, 0, 79, 0
3, 47340, Note_on_c, 0, 72, 46
3, 47503, Note_on_c, 0, 72, 0
3, 47520, Note_on_c, 0, 55, 62
3, 47520, Note_on_c, 0, 60, 62
3, 47520, Note_on_c, 0, 63, 59
3, 47520, Note_on_c, 0, 67, 63
3, 47700, Note_on_c, 0, 75, 57
3, 47700, Note_on_c, 0, 79, 60
3, 47845, Note_on_c, 0, 67, 0
3, 47845, Note_on_c, 0, 63, 0
3, 47845, Note_on_c, 0, 55, 0
3, 47845, Note_on_c, 0, 60, 0
3, 47863, Note_on_c, 0, 79, 0
3, 47863, Note_on_c, 0, 75, 0
3, 47880, Note_on_c, 0, 72, 49
3, 48043, Note_on_c, 0, 72, 0
3, 48060, Note_on_c, 0, 55, 57
3, 48060, Note_on_c, 0, 60, 58
3, 48060, Note_on_c, 0, 63, 58
3, 48240, Note_on_c, 0, 72, 57
3, 48240, Note_on_c, 0, 75, 60
3, 48385, Note_on_c, 0, 63, 0
3, 48385, Note_on_c, 0, 55, 0
3, 48385, Note_on_c, 0, 60, 0
3, 48403, Note_on_c, 0, 72, 0
3, 48403, Note_on_c, 0, 75, 0
3, 48420, Note_on_c, 0, 67, 48
3, 48583, Note_on_c, 0, 67, 0
3, 48600, Note_on_c, 0, 53, 61
3, 48600, Note_on_c, 0, 56, 61
3, 48600, Note_on_c, 0, 62, 62
3, 48780, Note_on_c, 0, 68, 56
3, 48780, Note_on_c, 0, 74, 58
3, 48925, Note_on_c, 0, 62, 0
3, 48925, Note_on_c, 0, 53, 0
3, 48925, Note_on_c, 0, 56, 0
3, 48943, Note_on_c, 0, 68, 0
3, 48943, Note_on_c, 0, 74, 0
3, 48960, Note_on_c, 0, 65, 49
3, 49123, Note_on_c, 0, 65, 0
3, 49140, Note_on_c, 0, 50, 60
3, 49140, Note_on_c, 0, 55, 59
3, 49140, Note_on_c, 0, 59, 59
3, 49320, Note_on_c, 0, 65, 60
3, 49320, Note_on_c, 0, 71, 58
3, 49465, Note_on_c, 0, 59, 0
3, 49465, Note_on_c, 0, 50, 0
3, 49465, Note_on_c, 0, 55, 0
3, 49483, Note_on_c, 0, 65, 0
3, 49483, Note_on_c, 0, 71, 0
3, 49500, Note_on_c, 0, 62, 47
3, 49663, Note_on_c, 0, 62, 0
3, 49680, Note_on_c, 0, 51, 61
3, 49680, Note_on_c, 0, 55, 59
3, 49680, Note_on_c, 0, 60, 60
3, 49860, Note_on_c, 0, 67, 57
3, 49860, Note_on_c, 0, 72, 59
3, 50005, Note_on_c, 0, 60, 0
3, 50005, Note_on_c, 0, 51, 0
3, 50005, Note_on_c, 0, 55, 0
3, 50023, Note_on_c, 0, 67, 0
3, 50023, Note_on_c, 0, 72, 0
3, 50040, Note_on_c, 0, 63, 47
3, 50203, Note_on_c, 0, 63, 0
3, 50220, Note_on_c, 0, 72, 80
3, 50545, Note_on_c, 0, 72, 0
3, 50580, Note_on_c, 0, 74, 74
3, 50743, Note_on_c, 0, 74, 0
3, 50760, Note_on_c, 0, 75, 71
3, 50760, Note_on_c, 0, 60, 66
3, 50760, Note_on_c, 0, 72, 65
3, 51085, Note_on_c, 0, 75, 0
3, 51120, Note_on_c, 0, 75, 67
3, 51283, Note_on_c, 0, 75, 0
3, 51300, Note_on_c, 0, 77, 68
3, 51625, Note_on_c, 0, 77, 0
3, 51660, Note_on_c, 0, 77, 65
3, 51823, Note_on_c, 0, 77, 0
3, 51840, Note_on_c, 0, 72, 0
3, 51840, Note_on_c, 0, 60, 0
3, 51840, Note_on_c, 0, 75, 64
3, 51840, Note_on_c, 0, 58, 67
3, 51840, Note_on_c, 0, 70, 67
3, 52165, Note_on_c, 0, 75, 0
3, 52200, Note_on_c, 0, 75, 64
3, 52363, Note_on_c, 0, 75, 0
3, 52380, Note_on_c, 0, 72, 63
3, 52543, Note_on_c, 0, 72, 0
3, 52560, Note_on_c, 0, 74, 71
3, 52723, Note_on_c, 0, 74, 0
3, 52740, Note_on_c, 0, 72, 61
3, 52903, Note_on_c, 0, 72, 0
3, 52920, Note_on_c, 0, 70, 0
3, 52920, Note_on_c, 0, 58, 0
3, 52920, Note_on_c, 0, 74, 72
3, 52920, Note_on_c, 0, 56, 71
3, 52920, Note_on_c, 0, 68, 70
3, 53245, Note_on_c, 0, 74, 0
3, 53280, Note_on_c, 0, 74, 65
3, 53443, Note_on_c, 0, 74, 0
3, 53460, Note_on_c, 0, 71, 61
3, 53623, Note_on_c, 0, 71, 0
3, 53640, Note_on_c, 0, 72, 69
3, 53803, Note_on_c, 0, 72, 0
3, 53820, Note_on_c, 0, 71, 62
3, 53983, Note_on_c, 0, 71, 0
3, 54000, Note_on_c, 0, 68, 0
3, 54000, Note_on_c, 0, 56, 0
3, 54000, Note_on_c, 0, 72, 72
3, 54000, Note_on_c, 0, 55, 72
3, 54000, Note_on_c, 0, 67, 70
3, 54163, Note_on_c, 0, 72, 0
3, 54180, Note_on_c, 0, 71, 63
3, 54343, Note_on_c, 0, 71, 0
3, 54360, Note_on_c, 0, 69, 59
3, 54523, Note_on_c, 0, 69, 0
3, 54540, Note_on_c, 0, 71, 73
3, 54865, Note_on_c, 0, 71, 0
3, 54900, Note_on_c, 0, 72, 72
3, 55063, Note_on_c, 0, 72, 0
3, 55080, Note_on_c, 0, 74, 74
3, 55405, Note_on_c, 0, 74, 0
3, 55440, Note_on_c, 0, 74, 64
3, 55603, Note_on_c, 0, 74, 0
3, 55620, Note_on_c, 0, 75, 71
3, 55945, Note_on_c, 0, 75, 0
3, 55980, Note_on_c, 0, 75, 67
3, 56143, Note_on_c, 0, 75, 0
3, 56160, Note_on_c, 0, 67, 0
3, 56160, Note_on_c, 0, 55, 0
3, 56160, Note_on_c, 0, 74, 64
3, 56160, Note_on_c, 0, 53, 62
3, 56160, Note_on_c, 0, 65, 65
3, 56485, Note_on_c, 0, 74, 0
3, 56520, Note_on_c, 0, 74, 67
3, 56683, Note_on_c, 0, 74, 0
3, 56700, Note_on_c, 0, 71, 63
3, 56863, Note_on_c, 0, 71, 0
3, 56880, Note_on_c, 0, 72, 68
3, 57043, Note_on_c, 0, 72, 0
3, 57060, Note_on_c, 0, 71, 63
3, 57170, Note_on_c, 0, 65, 0
3, 57170, Note_on_c, 0, 53, 0
3, 57223, Note_on_c, 0, 71, 0
3, 57240, Note_on_c, 0, 72, 72
3, 57240, Note_on_c, 0, 51, 62
3, 57240, Note_on_c, 0, 63, 64
3, 57565, Note_on_c, 0, 72, 0
3, 57600, Note_on_c, 0, 72, 66
3, 57763, Note_on_c, 0, 72, 0
3, 57780, Note_on_c, 0, 69, 62
3, 57943, Note_on_c, 0, 69, 0
3, 57960, Note_on_c, 0, 71, 71
3, 58123, Note_on_c, 0, 71, 0
3, 58140, Note_on_c, 0, 69, 61
3, 58250, Note_on_c, 0, 63, 0
3, 58250, Note_on_c, 0, 51, 0
3, 58303, Note_on_c, 0, 69, 0
3, 58320, Note_on_c, 0, 67, 74
3, 58320, Note_on_c, 0, 71, 72
3, 58320, Note_on_c, 0, 50, 64
3, 58320, Note_on_c, 0, 55, 63
3, 58320, Note_on_c, 0, 59, 63
3, 58320, Note_on_c, 0, 62, 64
3, 58483, Note_on_c, 0, 62, 0
3, 58483, Note_on_c, 0, 71, 0
3, 58483, Note_on_c, 0, 50, 0
3, 58483, Note_on_c, 0, 67, 0
3, 58483, Note_on_c, 0, 59, 0
3, 58483, Note_on_c, 0, 55, 0
3, 58860, Note_on_c, 0, 79, 63
3, 58860, Note_on_c, 0, 55, 61
3, 59023, Note_on_c, 0, 55, 0
3, 59023, Note_on_c, 0, 79, 0
3, 59040, Note_on_c, 0, 80, 67
3, 59040, Note_on_c, 0, 56, 68
3, 59203, Note_on_c, 0, 56, 0
3, 59203, Note_on_c, 0, 80, 0
3, 59220, Note_on_c, 0, 82, 69
3, 59220, Note_on_c, 0, 58, 68
3, 59383, Note_on_c, 0, 58, 0
3, 59383, Note_on_c, 0, 82, 0
3, 59400, Note_on_c, 0, 83, 71
3, 59400, Note_on_c, 0, 59, 75
3, 59563, Note_on_c, 0, 59, 0
3, 59563, Note_on_c, 0, 83, 0
3, 59580, Note_on_c, 0, 82, 62
3, 59580, Note_on_c, 0, 58, 63
3, 59743, Note_on_c, 0, 58, 0
3, 59743, Note_on_c, 0, 82, 0
3, 59760, Note_on_c, 0, 80, 63
3, 59760, Note_on_c, 0, 56, 61
3, 59923, Note_on_c, 0, 56, 0
3, 59923, Note_on_c, 0, 80, 0
3, 59940, Note_on_c, 0, 79, 63
3, 59940, Note_on_c, 0, 55, 65
3, 60103, Note_on_c, 0, 55, 0
3, 60103, Note_on_c, 0, 79, 0
3, 60120, Note_on_c, 0, 80, 68
3, 60120, Note_on_c, 0, 56, 70
3, 60283, Note_on_c, 0, 56, 0
3, 60283, Note_on_c, 0, 80, 0
3, 60300, Note_on_c, 0, 83, 71
3, 60300, Note_on_c, 0, 59, 73
3, 60463, Note_on_c, 0, 59, 0
3, 60463, Note_on_c, 0, 83, 0
3, 60480, Note_on_c, 0, 82, 67
3, 60480, Note_on_c, 0, 58, 66
3, 60643, Note_on_c, 0, 58, 0
3, 60643, Note_on_c, 0, 82, 0
3, 60660, Note_on_c, 0, 80, 60
3, 60660, Note_on_c, 0, 56, 59
3, 60823, Note_on_c, 0, 56, 0
3, 60823, Note_on_c, 0, 80, 0
3, 60840, Note_on_c, 0, 79, 62
3, 60840, Note_on_c, 0, 55, 61
3, 61003, Note_on_c, 0, 55, 0
3, 61003, Note_on_c, 0, 79, 0
3, 61020, Note_on_c, 0, 77, 62
3, 61020, Note_on_c, 0, 53, 64
3, 61183, Note_on_c, 0, 53, 0
3, 61183, Note_on_c, 0, 77, 0
3, 61200, Note_on_c, 0, 79, 69
3, 61200, Note_on_c, 0, 55, 72
3, 61363, Note_on_c, 0, 55, 0
3, 61363, Note_on_c, 0, 79, 0
3, 61380, Note_on_c, 0, 82, 73
3, 61380, Note_on_c, 0, 58, 75
3, 61543, Note_on_c, 0, 58, 0
3, 61543, Note_on_c, 0, 82, 0
3, 61560, Note_on_c, 0, 80, 66
3, 61560, Note_on_c, 0, 56, 64
3, 61723, Note_on_c, 0, 56, 0
3, 61723, Note_on_c, 0, 80, 0
3, 61740, Note_on_c, 0, 79, 61
3, 61740, Note_on_c, 0, 55, 61
3, 61903, Note_on_c, 0, 55, 0
3, 61903, Note_on_c, 0, 79, 0
3, 61920, Note_on_c, 0, 77, 60
3, 61920, Note_on_c, 0, 53, 62
3, 62083, Note_on_c, 0, 53, 0
3, 62083, Note_on_c, 0, 77, 0
3, 62100, Note_on_c, 0, 75, 63
3, 62100, Note_on_c, 0, 51, 63
3, 62263, Note_on_c, 0, 51, 0
3, 62263, Note_on_c, 0, 75, 0
3, 62280, Note_on_c, 0, 77, 71
3, 62280, Note_on_c, 0, 53, 68
3, 62443, Note_on_c, 0, 53, 0
3, 62443, Note_on_c, 0, 77, 0
3, 62460, Note_on_c, 0, 80, 73
3, 62460, Note_on_c, 0, 56, 73
3, 62623, Note_on_c, 0, 56, 0
3, 62623, Note_on_c, 0, 80, 0
3, 62640, Note_on_c, 0, 79, 67
3, 62640, Note_on_c, 0, 55, 67
3, 62965, Note_on_c, 0, 55, 0
3, 62965, Note_on_c, 0, 79, 0
3, 63180, Note_on_c, 0, 75, 60
3, 63180, Note_on_c, 0, 63, 61
3, 63343, Note_on_c, 0, 63, 0
3, 63343, Note_on_c, 0, 75, 0
3, 63360, Note_on_c, 0, 77, 69
3, 63360, Note_on_c, 0, 65, 67
3, 63523, Note_on_c, 0, 65, 0
3, 63523, Note_on_c, 0, 77, 0
3, 63540, Note_on_c, 0, 79, 71
3, 63540, Note_on_c, 0, 67, 73
3, 63703, Note_on_c, 0, 67, 0
3, 63703, Note_on_c, 0, 79, 0
3, 63720, Note_on_c, 0, 80, 74
3, 63720, Note_on_c, 0, 68, 74
3, 63883, Note_on_c, 0, 68, 0
3, 63883, Note_on_c, 0, 80, 0
3, 63900, Note_on_c, 0, 79, 61
3, 63900, Note_on_c, 0, 67, 64
3, 64063, Note_on_c, 0, 67, 0
3, 64063, Note_on_c, 0, 79, 0
3, 64080, Note_on_c, 0, 77, 60
3, 64080, Note_on_c, 0, 65, 62
3, 64243, Note_on_c, 0, 65, 0
3, 64243, Note_on_c, 0, 77, 0
3, 64260, Note_on_c, 0, 75, 64
3, 64260, Note_on_c, 0, 63, 65
3, 64423, Note_on_c, 0, 63, 0
3, 64423, Note_on_c, 0, 75, 0
3, 64440, Note_on_c, 0, 77, 68
3, 64440, Note_on_c, 0, 65, 69
3, 64603, Note_on_c, 0, 65, 0
3, 64603, Note_on_c, 0, 77, 0
3, 64620, Note_on_c, 0, 80, 72
3, 64620, Note_on_c, 0, 68, 74
3, 64783, Note_on_c, 0, 68, 0
3, 64783, Note_on_c, 0, 80, 0
3, 64800, Note_on_c, 0, 79, 67
3, 64800, Note_on_c, 0, 67, 66
3, 64963, Note_on_c, 0, 67, 0
3, 64963, Note_on_c, 0, 79, 0
3, 64980, Note_on_c, 0, 77, 62
3, 64980, Note_on_c, 0, 65, 60
3, 65143, Note_on_c, 0, 65, 0
3, 65143, Note_on_c, 0, 77, 0
3, 65160, Note_on_c, 0, 75, 62
3, 65160, Note_on_c, 0, 63, 61
3, 65323, Note_on_c, 0, 63, 0
3, 65323, Note_on_c, 0, 75, 0
3, 65340, Note_on_c, 0, 74, 65
3, 65340, Note_on_c, 0, 62, 63
3, 65503, Note_on_c, 0, 62, 0
3, 65503, Note_on_c, 0, 74, 0
3, 65520, Note_on_c, 0, 75, 69
3, 65520, Note_on_c, 0, 63, 69
3, 65683, Note_on_c, 0, 63, 0
3, 65683, Note_on_c, 0, 75, 0
3, 65700, Note_on_c, 0, 84, 81
3, 65700, Note_on_c, 0, 72, 84
3, 65863, Note_on_c, 0, 72, 0
3, 65863, Note_on_c, 0, 84, 0
3, 65880, Note_on_c, 0, 77, 57
3, 65880, Note_on_c, 0, 65, 57
3, 66043, Note_on_c, 0, 65, 0
3, 66043, Note_on_c, 0, 77, 0
3, 66060, Note_on_c, 0, 75, 61
3, 66060, Note_on_c, 0, 63, 58
3, 66223, Note_on_c, 0, 63, 0
3, 66223, Note_on_c, 0, 75, 0
3, 66240, Note_on_c, 0, 74, 62
3, 66240, Note_on_c, 0, 62, 59
3, 66403, Note_on_c, 0, 62, 0
3, 66403, Note_on_c, 0, 74, 0
3, 66420, Note_on_c, 0, 72, 62
3, 66420, Note_on_c, 0, 60, 62
3, 66583, Note_on_c, 0, 60, 0
3, 66583, Note_on_c, 0, 72, 0
3, 66600, Note_on_c, 0, 74, 71
3, 66600, Note_on_c, 0, 62, 70
3, 66763, Note_on_c, 0, 62, 0
3, 66763, Note_on_c, 0, 74, 0
3, 66780, Note_on_c, 0, 84, 83
3, 66780, Note_on_c, 0, 72, 82
3, 66943, Note_on_c, 0, 72, 0
3, 66943, Note_on_c, 0, 84, 0
3, 66960, Note_on_c, 0, 75, 54
3, 66960, Note_on_c, 0, 63, 57
3, 67123, Note_on_c, 0, 63, 0
3, 67123, Note_on_c, 0, 75, 0
3, 67500, Note_on_c, 0, 65, 56
3, 67500, Note_on_c, 0, 68, 57
3, 67500, Note_on_c, 0, 53, 58
3, 67500, Note_on_c, 0, 56, 59
3, 67677, Note_on_c, 0, 56, 0
3, 67677, Note_on_c, 0, 65, 0
3, 67677, Note_on_c, 0, 68, 0
3, 67677, Note_on_c, 0, 53, 0
3, 68040, Note_on_c, 0, 67, 62
3, 68040, Note_on_c, 0, 70, 61
3, 68040, Note_on_c, 0, 55, 62
3, 68040, Note_on_c, 0, 58, 61
3, 68217, Note_on_c, 0, 58, 0
3, 68217, Note_on_c, 0, 67, 0
3, 68217, Note_on_c, 0, 70, 0
3, 68217, Note_on_c, 0, 55, 0
3, 68580, Note_on_c, 0, 68, 57
3, 68580, Note_on_c, 0, 72, 60
3, 68580, Note_on_c, 0, 56, 58
3, 68580, Note_on_c, 0, 60, 56
3, 68757, Note_on_c, 0, 60, 0
3, 68757, Note_on_c, 0, 68, 0
3, 68757, Note_on_c, 0, 72, 0
3, 68757, Note_on_c, 0, 56, 0
3, 69120, Note_on_c, 0, 65, 60
3, 69120, Note_on_c, 0, 68, 61
3, 69120, Note_on_c, 0, 53, 60
3, 69120, Note_on_c, 0, 56, 62
3, 69297, Note_on_c, 0, 56, 0
3, 69297, Note_on_c, 0, 65, 0
3, 69297, Note_on_c, 0, 68, 0
3, 69297, Note_on_c, 0, 53, 0
3, 69660, Note_on_c, 0, 68, 58
3, 69660, Note_on_c, 0, 72, 58
3, 69660, Note_on_c, 0, 77, 57
3, 69660, Note_on_c, 0, 56, 60
3, 69660, Note_on_c, 0, 60, 59
3, 69660, Note_on_c, 0, 65, 58
3, 69837, Note_on_c, 0, 65, 0
3, 69837, Note_on_c, 0, 72, 0
3, 69837, Note_on_c, 0, 77, 0
3, 69837, Note_on_c, 0, 68, 0
3, 69837, Note_on_c, 0, 60, 0
3, 69837, Note_on_c, 0, 56, 0
3, 70200, Note_on_c, 0, 70, 59
3, 70200, Note_on_c, 0, 72, 61
3, 70200, Note_on_c, 0, 79, 59
3, 70200, Note_on_c, 0, 58, 63
3, 70200, Note_on_c, 0, 60, 61
3, 70200, Note_on_c, 0, 67, 61
3, 70377, Note_on_c, 0, 67, 0
3, 70377, Note_on_c, 0, 72, 0
3, 70377, Note_on_c, 0, 79, 0
3, 70377, Note_on_c, 0, 70, 0
3, 70377, Note_on_c, 0, 60, 0
3, 70377, Note_on_c, 0, 58, 0
3, 70740, Note_on_c, 0, 70, 59
3, 70740, Note_on_c, 0, 72, 58
3, 70740, Note_on_c, 0, 80, 58
3, 70740, Note_on_c, 0, 58, 59
3, 70740, Note_on_c, 0, 60, 59
3, 70740, Note_on_c, 0, 68, 58
3, 70917, Note_on_c, 0, 68, 0
3, 70917, Note_on_c, 0, 72, 0
3, 70917, Note_on_c, 0, 80, 0
3, 70917, Note_on_c, 0, 70, 0
3, 70917, Note_on_c, 0, 60, 0
3, 70917, Note_on_c, 0, 58, 0
3, 71280, Note_on_c, 0, 68, 62
3, 71280, Note_on_c, 0, 72, 59
3, 71280, Note_on_c, 0, 77, 62
3, 71280, Note_on_c, 0, 56, 59
3, 71280, Note_on_c, 0, 60, 59
3, 71280, Note_on_c, 0, 65, 61
3, 71457, Note_on_c, 0, 65, 0
3, 71457, Note_on_c, 0, 72, 0
3, 71457, Note_on_c, 0, 77, 0
3, 71457, Note_on_c, 0, 68, 0
3, 71457, Note_on_c, 0, 60, 0
3, 71457, Note_on_c, 0, 56, 0
3, 71820, Note_on_c, 0, 80, 62
3, 71820, Note_on_c, 0, 84, 61
3, 71820, Note_on_c, 0, 68, 62
3, 71820, Note_on_c, 0, 72, 60
3, 71983, Note_on_c, 0, 72, 0
3, 71983, Note_on_c, 0, 80, 0
3, 71983, Note_on_c, 0, 84, 0
3, 71983, Note_on_c, 0, 68, 0
3, 72000, Note_on_c, 0, 74, 47
3, 72000, Note_on_c, 0, 62, 48
3, 72163, Note_on_c, 0, 62, 0
3, 72163, Note_on_c, 0, 74, 0
3, 72180, Note_on_c, 0, 82, 76
3, 72180, Note_on_c, 0, 70, 79
3, 72343, Note_on_c, 0, 70, 0
3, 72343, Note_on_c, 0, 82, 0
3, 72360, Note_on_c, 0, 80, 74
3, 72360, Note_on_c, 0, 84, 75
3, 72360, Note_on_c, 0, 68, 75
3, 72360, Note_on_c, 0, 72, 73
3, 72685, Note_on_c, 0, 72, 0
3, 72685, Note_on_c, 0, 80, 0
3, 72685, Note_on_c, 0, 84, 0
3, 72685, Note_on_c, 0, 68, 0
3, 72720, Note_on_c, 0, 77, 51
3, 72720, Note_on_c, 0, 65, 54
3, 72883, Note_on_c, 0, 65, 0
3, 72883, Note_on_c, 0, 77, 0
3, 72900, Note_on_c, 0, 80, 81
3, 72900, Note_on_c, 0, 84, 80
3, 72900, Note_on_c, 0, 68, 79
3, 72900, Note_on_c, 0, 72, 80
3, 73063, Note_on_c, 0, 72, 0
3, 73063, Note_on_c, 0, 80, 0
3, 73063, Note_on_c, 0, 84, 0
3, 73063, Note_on_c, 0, 68, 0
3, 73080, Note_on_c, 0, 74, 49
3, 73080, Note_on_c, 0, 62, 49
3, 73243, Note_on_c, 0, 62, 0
3, 73243, Note_on_c, 0, 74, 0
3, 73260, Note_on_c, 0, 82, 77
3, 73260, Note_on_c, 0, 70, 77
3, 73423, Note_on_c, 0, 70, 0
3, 73423, Note_on_c, 0, 82, 0
3, 73440, Note_on_c, 0, 80, 75
3, 73440, Note_on_c, 0, 84, 75
3, 73440, Note_on_c, 0, 68, 76
3, 73440, Note_on_c, 0, 72, 74
3, 73765, Note_on_c, 0, 72, 0
3, 73765, Note_on_c, 0, 80, 0
3, 73765, Note_on_c, 0, 84, 0
3, 73765, Note_on_c, 0, 68, 0
3, 73800, Note_on_c, 0, 77, 54
3, 73800, Note_on_c, 0, 65, 52
3, 73963, Note_on_c, 0, 65, 0
3, 73963, Note_on_c, 0, 77, 0
3, 73980, Note_on_c, 0, 80, 81
3, 73980, Note_on_c, 0, 84, 80
3, 73980, Note_on_c, 0, 68, 82
3, 73980, Note_on_c, 0, 72, 80
3, 74143, Note_on_c, 0, 72, 0
3, 74143, Note_on_c, 0, 80, 0
3, 74143, Note_on_c, 0, 84, 0
3, 74143, Note_on_c, 0, 68, 0
3, 74160, Note_on_c, 0, 74, 51
3, 74160, Note_on_c, 0, 62, 48
3, 74323, Note_on_c, 0, 62, 0
3, 74323, Note_on_c, 0, 74, 0
3, 74340, Note_on_c, 0, 82, 78
3, 74340, Note_on_c, 0, 70, 78
3, 74503, Note_on_c, 0, 70, 0
3, 74503, Note_on_c, 0, 82, 0
3, 74520, Note_on_c, 0, 80, 75
3, 74520, Note_on_c, 0, 84, 74
3, 74520, Note_on_c, 0, 68, 74
3, 74520, Note_on_c, 0, 72, 77
3, 74683, Note_on_c, 0, 72, 0
3, 74683, Note_on_c, 0, 80, 0
3, 74683, Note_on_c, 0, 84, 0
3, 74683, Note_on_c, 0, 68, 0
3, 74700, Note_on_c, 0, 86, 48
3, 74700, Note_on_c, 0, 74, 69
3, 74863, Note_on_c, 0, 74, 0
3, 74863, Note_on_c, 0, 86, 0
3, 74880, Note_on_c, 0, 94, 79
3, 74880, Note_on_c, 0, 82, 82
3, 75043, Note_on_c, 0, 82, 0
3, 75043, Note_on_c, 0, 94, 0
3, 75060, Note_on_c, 0, 92, 73
3, 75060, Note_on_c, 0, 96, 77
3, 75060, Note_on_c, 0, 80, 67
3, 75223, Note_on_c, 0, 80, 0
3, 75223, Note_on_c, 0, 96, 0
3, 75223, Note_on_c, 0, 92, 0
3, 75240, Note_on_c, 0, 84, 45
3, 75240, Note_on_c, 0, 72, 50
3, 75403, Note_on_c, 0, 72, 0
3, 75403, Note_on_c, 0, 84, 0
3, 75420, Note_on_c, 0, 92, 85
3, 75420, Note_on_c, 0, 96, 82
3, 75420, Note_on_c, 0, 80, 78
3, 75583, Note_on_c, 0, 80, 0
3, 75583, Note_on_c, 0, 96, 0
3, 75583, Note_on_c, 0, 92, 0
3, 75600, Note_on_c, 0, 89, 81
3, 75600, Note_on_c, 0, 77, 85
3, 75780, Note_on_c, 0, 92, 59
3, 75780, Note_on_c, 0, 96, 58
3, 75780, Note_on_c, 0, 80, 59
3, 75943, Note_on_c, 0, 80, 0
3, 75943, Note_on_c, 0, 92, 0
3, 75943, Note_on_c, 0, 96, 0
3, 75960, Note_on_c, 0, 84, 42
3, 75960, Note_on_c, 0, 72, 47
3, 76123, Note_on_c, 0, 72, 0
3, 76123, Note_on_c, 0, 84, 0
3, 76140, Note_on_c, 0, 92, 86
3, 76140, Note_on_c, 0, 96, 86
3, 76140, Note_on_c, 0, 80, 78
3, 76303, Note_on_c, 0, 80, 0
3, 76303, Note_on_c, 0, 92, 0
3, 76303, Note_on_c, 0, 96, 0
3, 76320, Note_on_c, 0, 84, 49
3, 76320, Note_on_c, 0, 72, 52
3, 76483, Note_on_c, 0, 72, 0
3, 76483, Note_on_c, 0, 84, 0
3, 76500, Note_on_c, 0, 92, 83
3, 76500, Note_on_c, 0, 96, 82
3, 76500, Note_on_c, 0, 80, 77
3, 76610, Note_on_c, 0, 77, 0
3, 76610, Note_on_c, 0, 89, 0
3, 76663, Note_on_c, 0, 96, 0
3, 76663, Note_on_c, 0, 92, 0
3, 76663, Note_on_c, 0, 80, 0
3, 76680, Note_on_c, 0, 87, 87
3, 76680, Note_on_c, 0, 75, 87
3, 76860, Note_on_c, 0, 92, 60
3, 76860, Note_on_c, 0, 96, 58
3, 76860, Note_on_c, 0, 80, 58
3, 77023, Note_on_c, 0, 80, 0
3, 77023, Note_on_c, 0, 92, 0
3, 77023, Note_on_c, 0, 96, 0
3, 77040, Note_on_c, 0, 84, 44
3, 77040, Note_on_c, 0, 72, 49
3, 77203, Note_on_c, 0, 72, 0
3, 77203, Note_on_c, 0, 84, 0
3, 77220, Note_on_c, 0, 92, 86
3, 77220, Note_on_c, 0, 96, 86
3, 77220, Note_on_c, 0, 80, 80
3, 77383, Note_on_c, 0, 80, 0
3, 77383, Note_on_c, 0, 92, 0
3, 77383, Note_on_c, 0, 96, 0
3, 77400, Note_on_c, 0, 84, 47
3, 77400, Note_on_c, 0, 72, 52
3, 77563, Note_on_c, 0, 72, 0
3, 77563, Note_on_c, 0, 84, 0
3, 77580, Note_on_c, 0, 92, 84
3, 77580, Note_on_c, 0, 96, 81
3, 77580, Note_on_c, 0, 80, 77
3, 77690, Note_on_c, 0, 75, 0
3, 77690, Note_on_c, 0, 87, 0
3, 77743, Note_on_c, 0, 96, 0
3, 77743, Note_on_c, 0, 92, 0
3, 77743, Note_on_c, 0, 80, 0
3, 77760, Note_on_c, 0, 89, 98
3, 77760, Note_on_c, 0, 77, 99
3, 77940, Note_on_c, 0, 92, 60
3, 77940, Note_on_c, 0, 96, 58
3, 77940, Note_on_c, 0, 80, 60
3, 78103, Note_on_c, 0, 80, 0
3, 78103, Note_on_c, 0, 92, 0
3, 78103, Note_on_c, 0, 96, 0
3, 78120, Note_on_c, 0, 84, 44
3, 78120, Note_on_c, 0, 72, 49
3, 78283, Note_on_c, 0, 72, 0
3, 78283, Note_on_c, 0, 84, 0
3, 78300, Note_on_c, 0, 92, 84
3, 78300, Note_on_c, 0, 96, 87
3, 78300, Note_on_c, 0, 80, 81
3, 78463, Note_on_c, 0, 80, 0
3, 78463, Note_on_c, 0, 92, 0
3, 78463, Note_on_c, 0, 96, 0
3, 78480, Note_on_c, 0, 84, 49
3, 78480, Note_on_c, 0, 72, 50
3, 78643, Note_on_c, 0, 72, 0
3, 78643, Note_on_c, 0, 84, 0
3, 78660, Note_on_c, 0, 92, 84
3, 78660, Note_on_c, 0, 96, 82
3, 78660, Note_on_c, 0, 80, 78
3, 78770, Note_on_c, 0, 77, 0
3, 78770, Note_on_c, 0, 89, 0
3, 78823, Note_on_c, 0, 96, 0
3, 78823, Note_on_c, 0, 92, 0
3, 78823, Note_on_c, 0, 80, 0
3, 78840, Note_on_c, 0, 87, 88
3, 78840, Note_on_c, 0, 75, 90
3, 79020, Note_on_c, 0, 92, 56
3, 79020, Note_on_c, 0, 96, 60
3, 79020, Note_on_c, 0, 80, 57
3, 79183, Note_on_c, 0, 80, 0
3, 79183, Note_on_c, 0, 92, 0
3, 79183, Note_on_c, 0, 96, 0
3, 79200, Note_on_c, 0, 84, 45
3, 79200, Note_on_c, 0, 72, 51
3, 79363, Note_on_c, 0, 72, 0
3, 79363, Note_on_c, 0, 84, 0
3, 79380, Note_on_c, 0, 92, 85
3, 79380, Note_on_c, 0, 96, 86
3, 79380, Note_on_c, 0, 80, 79
3, 79543, Note_on_c, 0, 80, 0
3, 79543, Note_on_c, 0, 92, 0
3, 79543, Note_on_c, 0, 96, 0
3, 79560, Note_on_c, 0, 84, 47
3, 79560, Note_on_c, 0, 72, 51
3, 79723, Note_on_c, 0, 72, 0
3, 79723, Note_on_c, 0, 84, 0
3, 79740, Note_on_c, 0, 92, 83
3, 79740, Note_on_c, 0, 96, 83
3, 79740, Note_on_c, 0, 80, 78
3, 79850, Note_on_c, 0, 75, 0
3, 79850, Note_on_c, 0, 87, 0
3, 79903, Note_on_c, 0, 96, 0
3, 79903, Note_on_c, 0, 92, 0
3, 79903, Note_on_c, 0, 80, 0
3, 79920, Note_on_c, 0, 89, 98
3, 79920, Note_on_c, 0, 77, 99
3, 80100, Note_on_c, 0, 92, 59
3, 80100, Note_on_c, 0, 96, 60
3, 80100, Note_on_c, 0, 80, 58
3, 80263, Note_on_c, 0, 80, 0
3, 80263, Note_on_c, 0, 92, 0
3, 80263, Note_on_c, 0, 96, 0
3, 80280, Note_on_c, 0, 84, 45
3, 80280, Note_on_c, 0, 72, 47
3, 80443, Note_on_c, 0, 72, 0
3, 80443, Note_on_c, 0, 84, 0
3, 80460, Note_on_c, 0, 92, 84
3, 80460, Note_on_c, 0, 96, 86
3, 80460, Note_on_c, 0, 80, 82
3, 80623, Note_on_c, 0, 80, 0
3, 80623, Note_on_c, 0, 92, 0
3, 80623, Note_on_c, 0, 96, 0
3, 80640, Note_on_c, 0, 84, 50
3, 80640, Note_on_c, 0, 72, 51
3, 80803, Note_on_c, 0, 72, 0
3, 80803, Note_on_c, 0, 84, 0
3, 80820, Note_on_c, 0, 92, 82
3, 80820, Note_on_c, 0, 96, 85
3, 80820, Note_on_c, 0, 80, 77
3, 80930, Note_on_c, 0, 77, 0
3, 80930, Note_on_c, 0, 89, 0
3, 80983, Note_on_c, 0, 96, 0
3, 80983, Note_on_c, 0, 92, 0
3, 80983, Note_on_c, 0, 80, 0
3, 81000, Note_on_c, 0, 87, 88
3, 81000, Note_on_c, 0, 75, 87
3, 81180, Note_on_c, 0, 92, 58
3, 81180, Note_on_c, 0, 96, 56
3, 81180, Note_on_c, 0, 80, 60
3, 81343, Note_on_c, 0, 80, 0
3, 81343, Note_on_c, 0, 92, 0
3, 81343, Note_on_c, 0, 96, 0
3, 81360, Note_on_c, 0, 84, 44
3, 81360, Note_on_c, 0, 72, 48
3, 81523, Note_on_c, 0, 72, 0
3, 81523, Note_on_c, 0, 84, 0
3, 81540, Note_on_c, 0, 92, 87
3, 81540, Note_on_c, 0, 96, 85
3, 81540, Note_on_c, 0, 80, 80
3, 81703, Note_on_c, 0, 80, 0
3, 81703, Note_on_c, 0, 92, 0
3, 81703, Note_on_c, 0, 96, 0
3, 81720, Note_on_c, 0, 84, 48
3, 81720, Note_on_c, 0, 72, 54
3, 81883, Note_on_c, 0, 72, 0
3, 81883, Note_on_c, 0, 84, 0
3, 81900, Note_on_c, 0, 92, 82
3, 81900, Note_on_c, 0, 96, 84
3, 81900, Note_on_c, 0, 80, 79
3, 82010, Note_on_c, 0, 75, 0
3, 82010, Note_on_c, 0, 87, 0
3, 82063, Note_on_c, 0, 96, 0
3, 82063, Note_on_c, 0, 92, 0
3, 82063, Note_on_c, 0, 80, 0
3, 82080, Note_on_c, 0, 84, 53
3, 82080, Note_on_c, 0, 72, 56
3, 82243, Note_on_c, 0, 72, 0
3, 82243, Note_on_c, 0, 84, 0
3, 82260, Note_on_c, 0, 92, 82
3, 82260, Note_on_c, 0, 96, 84
3, 82260, Note_on_c, 0, 80, 78
3, 82423, Note_on_c, 0, 80, 0
3, 82423, Note_on_c, 0, 96, 0
3, 82423, Note_on_c, 0, 92, 0
3, 82440, Note_on_c, 0, 84, 49
3, 82440, Note_on_c, 0, 72, 53
3, 82603, Note_on_c, 0, 72, 0
3, 82603, Note_on_c, 0, 84, 0
3, 82620, Note_on_c, 0, 92, 87
3, 82620, Note_on_c, 0, 96, 87
3, 82620, Note_on_c, 0, 80, 80
3, 82783, Note_on_c, 0, 80, 0
3, 82783, Note_on_c, 0, 96, 0
3, 82783, Note_on_c, 0, 92, 0
3, 82800, Note_on_c, 0, 84, 49
3, 82800, Note_on_c, 0, 72, 51
3, 82963, Note_on_c, 0, 72, 0
3, 82963, Note_on_c, 0, 84, 0
3, 82980, Note_on_c, 0, 92, 81
3, 82980, Note_on_c, 0, 96, 81
3, 82980, Note_on_c, 0, 80, 77
3, 83143, Note_on_c, 0, 80, 0
3, 83143, Note_on_c, 0, 96, 0
3, 83143, Note_on_c, 0, 92, 0
3, 83160, Note_on_c, 0, 86, 89
3, 83160, Note_on_c, 0, 86, 54
3, 83160, Note_on_c, 0, 74, 88
3, 83160, Note_on_c, 0, 74, 59
3, 83323, Note_on_c, 0, 74, 0
3, 83323, Note_on_c, 0, 86, 0
3, 83340, Note_on_c, 0, 92, 82
3, 83340, Note_on_c, 0, 96, 83
3, 83340, Note_on_c, 0, 80, 75
3, 83503, Note_on_c, 0, 80, 0
3, 83503, Note_on_c, 0, 92, 0
3, 83503, Note_on_c, 0, 96, 0
3, 83520, Note_on_c, 0, 84, 47
3, 83520, Note_on_c, 0, 72, 52
3, 83647, Note_on_c, 0, 86, 0
3, 83647, Note_on_c, 0, 74, 0
3, 83683, Note_on_c, 0, 84, 0
3, 83683, Note_on_c, 0, 72, 0
3, 83700, Note_on_c, 0, 86, 65
3, 83700, Note_on_c, 0, 86, 69
3, 83700, Note_on_c, 0, 74, 66
3, 83700, Note_on_c, 0, 74, 72
3, 83863, Note_on_c, 0, 74, 0
3, 83863, Note_on_c, 0, 86, 0
3, 83880, Note_on_c, 0, 91, 81
3, 83880, Note_on_c, 0, 95, 84
3, 83880, Note_on_c, 0, 79, 78
3, 84043, Note_on_c, 0, 79, 0
3, 84043, Note_on_c, 0, 91, 0
3, 84043, Note_on_c, 0, 95, 0
3, 84060, Note_on_c, 0, 83, 46
3, 84187, Note_on_c, 0, 86, 0
3, 84187, Note_on_c, 0, 74, 0
3, 84223, Note_on_c, 0, 83, 0
3, 84240, Note_on_c, 0, 84, 87
3, 84240, Note_on_c, 0, 87, 87
3, 84240, Note_on_c, 0, 91, 85
3, 84240, Note_on_c, 0, 96, 87
3, 84240, Note_on_c, 0, 63, 73
3, 84240, Note_on_c, 0, 67, 73
3, 84240, Note_on_c, 0, 72, 70
3, 84240, Note_on_c, 0, 75, 70
3, 84565, Note_on_c, 0, 75, 0
3, 84565, Note_on_c, 0, 84, 0
3, 84565, Note_on_c, 0, 63, 0
3, 84565, Note_on_c, 0, 87, 0
3, 84565, Note_on_c, 0, 91, 0
3, 84565, Note_on_c, 0, 96, 0
3, 84565, Note_on_c, 0, 67, 0
3, 84565, Note_on_c, 0, 72, 0
3, 84780, Note_on_c, 0, 55, 61
3, 84780, Note_on_c, 0, 43, 61
3, 84943, Note_on_c, 0, 43, 0
3, 84943, Note_on_c, 0, 55, 0
3, 84960, Note_on_c, 0, 56, 66
3, 84960, Note_on_c, 0, 44, 67
3, 85123, Note_on_c, 0, 44, 0
3, 85123, Note_on_c, 0, 56, 0
3, 85140, Note_on_c, 0, 55, 61
3, 85140, Note_on_c, 0, 43, 64
3, 85303, Note_on_c, 0, 43, 0
3, 85303, Note_on_c, 0, 55, 0
3, 85320, Note_on_c, 0, 60, 107
3, 85320, Note_on_c, 0, 36, 107
3, 85320, Note_on_c, 0, 48, 105
3, 87410, Note_on_c, 0, 48, 0
3, 87410, Note_on_c, 0, 36, 0
3, 87410, Note_on_c, 0, 60, 0
3, 87480, Note_on_c, 0, 55, 112
3, 87480, Note_on_c, 0, 67, 113
3, 87480, Note_on_c, 0, 31, 80
3, 87480, Note_on_c, 0, 43, 80
3, 88490, Note_on_c, 0, 43, 0
3, 88490, Note_on_c, 0, 55, 0
3, 88490, Note_on_c, 0, 67, 0
3, 88490, Note_on_c, 0, 31, 0
3, 88560, Note_on_c, 0, 48, 58
3, 88560, Note_on_c, 0, 60, 59
3, 88560, Note_on_c, 0, 24, 74
3, 88560, Note_on_c, 0, 36, 73
3, 88885, Note_on_c, 0, 36, 0
3, 88885, Note_on_c, 0, 48, 0
3, 88885, Note_on_c, 0, 60, 0
3, 88885, Note_on_c, 0, 24, 0
3, 89100, Note_on_c, 0, 43, 62
3, 89100, Note_on_c, 0, 31, 62
3, 89263, Note_on_c, 0, 31, 0
3, 89263, Note_on_c, 0, 43, 0
3, 89280, Note_on_c, 0, 44, 69
3, 89280, Note_on_c, 0, 32, 67
3, 89443, Note_on_c, 0, 32, 0
3, 89443, Note_on_c, 0, 44, 0
3, 89460, Note_on_c, 0, 43, 63
3, 89460, Note_on_c, 0, 31, 61
3, 89623, Note_on_c, 0, 31, 0
3, 89623, Note_on_c, 0, 43, 0
3, 89640, Note_on_c, 0, 48, 79
3, 89640, Note_on_c, 0, 24, 79
3, 89640, Note_on_c, 0, 36, 79
3, 91730, Note_on_c, 0, 36, 0
3, 91730, Note_on_c, 0, 24, 0
3, 91730, Note_on_c, 0, 48, 0
3, 91800, Note_on_c, 0, 55, 113
3, 91800, Note_on_c, 0, 31, 111
3, 91800, Note_on_c, 0, 43, 113
3, 92810, Note_on_c, 0, 43, 0
3, 92810, Note_on_c, 0, 31, 0
3, 92810, Note_on_c, 0, 55, 0
3, 92880, Note_on_c, 0, 48, 58
3, 92880, Note_on_c, 0, 36, 62
3, 93367, Note_on_c, 0, 48, 0
3, 93420, Note_on_c, 0, 36, 0
3, 93420, Note_on_c, 0, 63, 86
3, 93420, Note_on_c, 0, 51, 89
3, 93583, Note_on_c, 0, 51, 0
3, 93583, Note_on_c, 0, 63, 0
3, 93600, Note_on_c, 0, 62, 65
3, 93600, Note_on_c, 0, 50, 66
3, 93763, Note_on_c, 0, 50, 0
3, 93763, Note_on_c, 0, 62, 0
3, 93780, Note_on_c, 0, 63, 69
3, 93780, Note_on_c, 0, 51, 70
3, 93943, Note_on_c, 0, 51, 0
3, 93943, Note_on_c, 0, 63, 0
3, 93960, Note_on_c, 0, 65, 73
3, 93960, Note_on_c, 0, 53, 74
3, 94123, Note_on_c, 0, 53, 0
3, 94123, Note_on_c, 0, 65, 0
3, 94140, Note_on_c, 0, 63, 61
3, 94140, Note_on_c, 0, 51, 59
3, 94303, Note_on_c, 0, 51, 0
3, 94303, Note_on_c, 0, 63, 0
3, 94320, Note_on_c, 0, 65, 71
3, 94320, Note_on_c, 0, 53, 72
3, 94483, Note_on_c, 0, 53, 0
3, 94483, Note_on_c, 0, 65, 0
3, 94500, Note_on_c, 0, 60, 98
3, 94500, Note_on_c, 0, 63, 98
3, 94500, Note_on_c, 0, 67, 100
3, 94500, Note_on_c, 0, 48, 100
3, 94500, Note_on_c, 0, 51, 97
3, 94500, Note_on_c, 0, 55, 97
3, 94825, Note_on_c, 0, 55, 0
3, 94825, Note_on_c, 0, 63, 0
3, 94825, Note_on_c, 0, 67, 0
3, 94825, Note_on_c, 0, 60, 0
3, 94825, Note_on_c, 0, 51, 0
3, 94825, Note_on_c, 0, 48, 0
3, 95220, Note_on_c, 0, 60, 58
3, 95220, Note_on_c, 0, 48, 59
3, 95383, Note_on_c, 0, 48, 0
3, 95383, Note_on_c, 0, 60, 0
3, 95400, Note_on_c, 0, 62, 69
3, 95400, Note_on_c, 0, 50, 67
3, 95563, Note_on_c, 0, 50, 0
3, 95563, Note_on_c, 0, 62, 0
3, 95580, Note_on_c, 0, 63, 75
3, 95580, Note_on_c, 0, 51, 74
3, 95743, Note_on_c, 0, 51, 0
3, 95743, Note_on_c, 0, 63, 0
3, 95760, Note_on_c, 0, 62, 64
3, 95760, Note_on_c, 0, 50, 64
3, 95923, Note_on_c, 0, 50, 0
3, 95923, Note_on_c, 0, 62, 0
3, 95940, Note_on_c, 0, 63, 70
3, 95940, Note_on_c, 0, 51, 71
3, 96103, Note_on_c, 0, 51, 0
3, 96103, Note_on_c, 0, 63, 0
3, 96120, Note_on_c, 0, 65, 76
3, 96120, Note_on_c, 0, 53, 75
3, 96283, Note_on_c, 0, 53, 0
3, 96283, Note_on_c, 0, 65, 0
3, 96300, Note_on_c, 0, 63, 59
3, 96300, Note_on_c, 0, 51, 62
3, 96463, Note_on_c, 0, 51, 0
3, 96463, Note_on_c, 0, 63, 0
3, 96480, Note_on_c, 0, 65, 71
3, 96480, Note_on_c, 0, 53, 69
3, 96643, Note_on_c, 0, 53, 0
3, 96643, Note_on_c, 0, 65, 0
3, 96660, Note_on_c, 0, 60, 99
3, 96660, Note_on_c, 0, 63, 98
3, 96660, Note_on_c, 0, 67, 99
3, 96660, Note_on_c, 0, 48, 100
3, 96660, Note_on_c, 0, 51, 97
3, 96660, Note_on_c, 0, 55, 99
3, 96985, Note_on_c, 0, 55, 0
3, 96985, Note_on_c, 0, 63, 0
3, 96985, Note_on_c, 0, 67, 0
3, 96985, Note_on_c, 0, 60, 0
3, 96985, Note_on_c, 0, 51, 0
3, 96985, Note_on_c, 0, 48, 0
3, 97740, Note_on_c, 0, 63, 62
3, 97740, Note_on_c, 0, 55, 62
3, 97903, Note_on_c, 0, 55, 0
3, 97903, Note_on_c, 0, 63, 0
3, 97920, Note_on_c, 0, 62, 61
3, 97920, Note_on_c, 0, 60, 73
3, 98083, Note_on_c, 0, 60, 0
3, 98083, Note_on_c, 0, 62, 0
3, 98100, Note_on_c, 0, 63, 68
3, 98263, Note_on_c, 0, 63, 0
3, 98280, Note_on_c, 0, 65, 73
3, 98280, Note_on_c, 0, 53, 62
3, 98443, Note_on_c, 0, 53, 0
3, 98443, Note_on_c, 0, 65, 0
3, 98460, Note_on_c, 0, 63, 59
3, 98460, Note_on_c, 0, 60, 78
3, 98623, Note_on_c, 0, 60, 0
3, 98623, Note_on_c, 0, 63, 0
3, 98640, Note_on_c, 0, 65, 70
3, 98803, Note_on_c, 0, 65, 0
3, 98820, Note_on_c, 0, 63, 65
3, 98820, Note_on_c, 0, 55, 59
3, 98983, Note_on_c, 0, 55, 0
3, 98983, Note_on_c, 0, 63, 0
3, 99000, Note_on_c, 0, 65, 70
3, 99000, Note_on_c, 0, 60, 73
3, 99163, Note_on_c, 0, 60, 0
3, 99163, Note_on_c, 0, 65, 0
3, 99180, Note_on_c, 0, 63, 61
3, 99343, Note_on_c, 0, 63, 0
3, 99360, Note_on_c, 0, 65, 75
3, 99360, Note_on_c, 0, 53, 61
3, 99523, Note_on_c, 0, 53, 0
3, 99523, Note_on_c, 0, 65, 0
3, 99540, Note_on_c, 0, 63, 60
3, 99540, Note_on_c, 0, 60, 77
3, 99703, Note_on_c, 0, 60, 0
3, 99703, Note_on_c, 0, 63, 0
3, 99720, Note_on_c, 0, 65, 68
3, 99883, Note_on_c, 0, 65, 0
3, 99900, Note_on_c, 0, 67, 73
3, 99900, Note_on_c, 0, 55, 61
3, 100063, Note_on_c, 0, 55, 0
3, 100063, Note_on_c, 0, 67, 0
3, 100080, Note_on_c, 0, 65, 60
3, 100080, Note_on_c, 0, 59, 74
3, 100243, Note_on_c, 0, 59, 0
3, 100243, Note_on_c, 0, 65, 0
3, 100260, Note_on_c, 0, 67, 71
3, 100260, Note_on_c, 0, 55, 58
3, 100423, Note_on_c, 0, 55, 0
3, 100423, Note_on_c, 0, 67, 0
3, 100440, Note_on_c, 0, 72, 81
3, 100440, Note_on_c, 0, 60, 78
3, 100765, Note_on_c, 0, 60, 0
3, 100765, Note_on_c, 0, 72, 0
3, 102060, Note_on_c, 0, 74, 62
3, 102060, Note_on_c, 0, 62, 60
3, 102223, Note_on_c, 0, 62, 0
3, 102223, Note_on_c, 0, 74, 0
3, 102240, Note_on_c, 0, 75, 68
3, 102240, Note_on_c, 0, 63, 70
3, 102403, Note_on_c, 0, 63, 0
3, 102403, Note_on_c, 0, 75, 0
3, 102420, Note_on_c, 0, 77, 71
3, 102420, Note_on_c, 0, 65, 69
3, 102583, Note_on_c, 0, 65, 0
3, 102583, Note_on_c, 0, 77, 0
3, 102600, Note_on_c, 0, 79, 102
3, 102600, Note_on_c, 0, 67, 102
3, 102763, Note_on_c, 0, 67, 0
3, 102763, Note_on_c, 0, 79, 0
3, 102780, Note_on_c, 0, 80, 71
3, 102780, Note_on_c, 0, 68, 71
3, 102943, Note_on_c, 0, 68, 0
3, 102943, Note_on_c, 0, 80, 0
3, 102960, Note_on_c, 0, 79, 63
3, 102960, Note_on_c, 0, 67, 62
3, 103123, Note_on_c, 0, 67, 0
3, 103123, Note_on_c, 0, 79, 0
3, 103140, Note_on_c, 0, 80, 72
3, 103140, Note_on_c, 0, 68, 74
3, 103303, Note_on_c, 0, 68, 0
3, 103303, Note_on_c, 0, 80, 0
3, 103320, Note_on_c, 0, 79, 65
3, 103320, Note_on_c, 0, 67, 64
3, 103483, Note_on_c, 0, 67, 0
3, 103483, Note_on_c, 0, 79, 0
3, 103500, Note_on_c, 0, 80, 70
3, 103500, Note_on_c, 0, 68, 68
3, 103663, Note_on_c, 0, 68, 0
3, 103663, Note_on_c, 0, 80, 0
3, 103680, Note_on_c, 0, 79, 68
3, 103680, Note_on_c, 0, 67, 68
3, 103843, Note_on_c, 0, 67, 0
3, 103843, Note_on_c, 0, 79, 0
3, 103860, Note_on_c, 0, 80, 70
3, 103860, Note_on_c, 0, 68, 68
3, 104023, Note_on_c, 0, 68, 0
3, 104023, Note_on_c, 0, 80, 0
3, 104040, Note_on_c, 0, 79, 64
3, 104040, Note_on_c, 0, 67, 64
3, 104203, Note_on_c, 0, 67, 0
3, 104203, Note_on_c, 0, 79, 0
3, 104220, Note_on_c, 0, 79, 93
3, 104220, Note_on_c, 0, 67, 94
3, 104383, Note_on_c, 0, 67, 0
3, 104383, Note_on_c, 0, 79, 0
3, 104400, Note_on_c, 0, 77, 61
3, 104400, Note_on_c, 0, 65, 62
3, 104563, Note_on_c, 0, 65, 0
3, 104563, Note_on_c, 0, 77, 0
3, 104580, Note_on_c, 0, 75, 59
3, 104580, Note_on_c, 0, 63, 59
3, 104743, Note_on_c, 0, 63, 0
3, 104743, Note_on_c, 0, 75, 0
3, 104760, Note_on_c, 0, 77, 97
3, 104760, Note_on_c, 0, 65, 98
3, 104923, Note_on_c, 0, 65, 0
3, 104923, Note_on_c, 0, 77, 0
3, 104940, Note_on_c, 0, 75, 59
3, 104940, Note_on_c, 0, 63, 61
3, 105103, Note_on_c, 0, 63, 0
3, 105103, Note_on_c, 0, 75, 0
3, 105120, Note_on_c, 0, 74, 61
3, 105120, Note_on_c, 0, 62, 60
3, 105283, Note_on_c, 0, 62, 0
3, 105283, Note_on_c, 0, 74, 0
3, 105300, Note_on_c, 0, 74, 93
3, 105300, Note_on_c, 0, 62, 67
3, 105463, Note_on_c, 0, 62, 0
3, 105463, Note_on_c, 0, 74, 0
3, 105480, Note_on_c, 0, 72, 62
3, 105480, Note_on_c, 0, 60, 62
3, 105643, Note_on_c, 0, 60, 0
3, 105643, Note_on_c, 0, 72, 0
3, 105660, Note_on_c, 0, 71, 63
3, 105660, Note_on_c, 0, 59, 60
3, 105823, Note_on_c, 0, 59, 0
3, 105823, Note_on_c, 0, 71, 0
3, 105840, Note_on_c, 0, 67, 83
3, 105840, Note_on_c, 0, 55, 83
3, 106003, Note_on_c, 0, 55, 0
3, 106003, Note_on_c, 0, 67, 0
3, 106200, Note_on_c, 0, 66, 58
3, 106200, Note_on_c, 0, 54, 57
3, 106363, Note_on_c, 0, 54, 0
3, 106363, Note_on_c, 0, 66, 0
3, 106380, Note_on_c, 0, 67, 70
3, 106380, Note_on_c, 0, 55, 70
3, 106543, Note_on_c, 0, 55, 0
3, 106543, Note_on_c, 0, 67, 0
3, 106560, Note_on_c, 0, 69, 71
3, 106560, Note_on_c, 0, 57, 70
3, 106723, Note_on_c, 0, 57, 0
3, 106723, Note_on_c, 0, 69, 0
3, 106740, Note_on_c, 0, 71, 70
3, 106740, Note_on_c, 0, 59, 71
3, 106903, Note_on_c, 0, 59, 0
3, 106903, Note_on_c, 0, 71, 0
3, 106920, Note_on_c, 0, 66, 58
3, 106920, Note_on_c, 0, 54, 59
3, 107083, Note_on_c, 0, 54, 0
3, 107083, Note_on_c, 0, 66, 0
3, 107280, Note_on_c, 0, 65, 59
3, 107280, Note_on_c, 0, 53, 59
3, 107443, Note_on_c, 0, 53, 0
3, 107443, Note_on_c, 0, 65, 0
3, 107460, Note_on_c, 0, 66, 71
3, 107460, Note_on_c, 0, 54, 70
3, 107623, Note_on_c, 0, 54, 0
3, 107623, Note_on_c, 0, 66, 0
3, 107640, Note_on_c, 0, 67, 68
3, 107640, Note_on_c, 0, 55, 70
3, 107803, Note_on_c, 0, 55, 0
3, 107803, Note_on_c, 0, 67, 0
3, 107820, Note_on_c, 0, 69, 71
3, 107820, Note_on_c, 0, 57, 72
3, 107983, Note_on_c, 0, 57, 0
3, 107983, Note_on_c, 0, 69, 0
3, 108000, Note_on_c, 0, 67, 63
3, 108000, Note_on_c, 0, 55, 66
3, 108163, Note_on_c, 0, 55, 0
3, 108163, Note_on_c, 0, 67, 0
3, 108360, Note_on_c, 0, 66, 58
3, 108360, Note_on_c, 0, 54, 59
3, 108523, Note_on_c, 0, 54, 0
3, 108523, Note_on_c, 0, 66, 0
3, 108540, Note_on_c, 0, 67, 72
3, 108540, Note_on_c, 0, 55, 70
3, 108703, Note_on_c, 0, 55, 0
3, 108703, Note_on_c, 0, 67, 0
3, 108720, Note_on_c, 0, 69, 72
3, 108720, Note_on_c, 0, 57, 71
3, 108883, Note_on_c, 0, 57, 0
3, 108883, Note_on_c, 0, 69, 0
3, 108900, Note_on_c, 0, 70, 69
3, 108900, Note_on_c, 0, 58, 68
3, 109063, Note_on_c, 0, 58, 0
3, 109063, Note_on_c, 0, 70, 0
3, 109080, Note_on_c, 0, 67, 64
3, 109080, Note_on_c, 0, 55, 64
3, 109243, Note_on_c, 0, 55, 0
3, 109243, Note_on_c, 0, 67, 0
3, 109260, Note_on_c, 0, 69, 71
3, 109260, Note_on_c, 0, 57, 68
3, 109423, Note_on_c, 0, 57, 0
3, 109423, Note_on_c, 0, 69, 0
3, 109440, Note_on_c, 0, 70, 69
3, 109440, Note_on_c, 0, 58, 70
3, 109603, Note_on_c, 0, 58, 0
3, 109603, Note_on_c, 0, 70, 0
3, 109620, Note_on_c, 0, 71, 74
3, 109620, Note_on_c, 0, 59, 73
3, 109783, Note_on_c, 0, 59, 0
3, 109783, Note_on_c, 0, 71, 0
3, 109800, Note_on_c, 0, 72, 68
3, 109800, Note_on_c, 0, 60, 69
3, 109963, Note_on_c, 0, 60, 0
3, 109963, Note_on_c, 0, 72, 0
3, 109980, Note_on_c, 0, 74, 71
3, 109980, Note_on_c, 0, 62, 70
3, 110143, Note_on_c, 0, 62, 0
3, 110143, Note_on_c, 0, 74, 0
3, 110160, Note_on_c, 0, 70, 59
3, 110160, Note_on_c, 0, 58, 59
3, 110249, Note_on_c, 0, 58, 0
3, 110249, Note_on_c, 0, 70, 0
3, 110700, Note_on_c, 0, 77, 60
3, 110700, Note_on_c, 0, 65, 62
3, 110863, Note_on_c, 0, 65, 0
3, 110863, Note_on_c, 0, 77, 0
3, 110880, Note_on_c, 0, 78, 66
3, 110880, Note_on_c, 0, 66, 67
3, 111043, Note_on_c, 0, 66, 0
3, 111043, Note_on_c, 0, 78, 0
3, 111060, Note_on_c, 0, 80, 69
3, 111060, Note_on_c, 0, 68, 69
3, 111223, Note_on_c, 0, 68, 0
3, 111223, Note_on_c, 0, 80, 0
3, 111240, Note_on_c, 0, 82, 102
3, 111240, Note_on_c, 0, 70, 101
3, 111403, Note_on_c, 0, 70, 0
3, 111403, Note_on_c, 0, 82, 0
3, 111420, Note_on_c, 0, 83, 69
3, 111420, Note_on_c, 0, 71, 69
3, 111583, Note_on_c, 0, 71, 0
3, 111583, Note_on_c, 0, 83, 0
3, 111600, Note_on_c, 0, 82, 62
3, 111600, Note_on_c, 0, 70, 63
3, 111763, Note_on_c, 0, 70, 0
3, 111763, Note_on_c, 0, 82, 0
3, 111780, Note_on_c, 0, 83, 71
3, 111780, Note_on_c, 0, 71, 73
3, 111943, Note_on_c, 0, 71, 0
3, 111943, Note_on_c, 0, 83, 0
3, 111960, Note_on_c, 0, 82, 63
3, 111960, Note_on_c, 0, 70, 64
3, 112123, Note_on_c, 0, 70, 0
3, 112123, Note_on_c, 0, 82, 0
3, 112140, Note_on_c, 0, 83, 71
3, 112140, Note_on_c, 0, 71, 68
3, 112303, Note_on_c, 0, 71, 0
3, 112303, Note_on_c, 0, 83, 0
3, 112320, Note_on_c, 0, 82, 65
3, 112320, Note_on_c, 0, 70, 66
3, 112483, Note_on_c, 0, 70, 0
3, 112483, Note_on_c, 0, 82, 0
3, 112500, Note_on_c, 0, 83, 67
3, 112500, Note_on_c, 0, 71, 67
3, 112663, Note_on_c, 0, 71, 0
3, 112663, Note_on_c, 0, 83, 0
3, 112680, Note_on_c, 0, 82, 63
3, 112680, Note_on_c, 0, 70, 65
3, 112843, Note_on_c, 0, 70, 0
3, 112843, Note_on_c, 0, 82, 0
3, 112860, Note_on_c, 0, 82, 94
3, 112860, Note_on_c, 0, 70, 94
3, 113023, Note_on_c, 0, 70, 0
3, 113023, Note_on_c, 0, 82, 0
3, 113040, Note_on_c, 0, 80, 60
3, 113040, Note_on_c, 0, 68, 60
3, 113203, Note_on_c, 0, 68, 0
3, 113203, Note_on_c, 0, 80, 0
3, 113220, Note_on_c, 0, 78, 59
3, 113220, Note_on_c, 0, 66, 60
3, 113383, Note_on_c, 0, 66, 0
3, 113383, Note_on_c, 0, 78, 0
3, 113400, Note_on_c, 0, 80, 100
3, 113400, Note_on_c, 0, 68, 100
3, 113563, Note_on_c, 0, 68, 0
3, 113563, Note_on_c, 0, 80, 0
3, 113580, Note_on_c, 0, 78, 62
3, 113580, Note_on_c, 0, 66, 59
3, 113743, Note_on_c, 0, 66, 0
3, 113743, Note_on_c, 0, 78, 0
3, 113760, Note_on_c, 0, 77, 60
3, 113760, Note_on_c, 0, 65, 61
3, 113923, Note_on_c, 0, 65, 0
3, 113923, Note_on_c, 0, 77, 0
3, 113940, Note_on_c, 0, 77, 92
3, 113940, Note_on_c, 0, 65, 92
3, 114103, Note_on_c, 0, 65, 0
3, 114103, Note_on_c, 0, 77, 0
3, 114120, Note_on_c, 0, 75, 59
3, 114120, Note_on_c, 0, 63, 60
3, 114283, Note_on_c, 0, 63, 0
3, 114283, Note_on_c, 0, 75, 0
3, 114300, Note_on_c, 0, 74, 60
3, 114300, Note_on_c, 0, 62, 63
3, 114463, Note_on_c, 0, 62, 0
3, 114463, Note_on_c, 0, 74, 0
3, 114480, Note_on_c, 0, 70, 83
3, 114480, Note_on_c, 0, 58, 83
3, 114643, Note_on_c, 0, 58, 0
3, 114643, Note_on_c, 0, 70, 0
3, 114840, Note_on_c, 0, 69, 57
3, 114840, Note_on_c, 0, 57, 59
3, 115003, Note_on_c, 0, 57, 0
3, 115003, Note_on_c, 0, 69, 0
3, 115020, Note_on_c, 0, 70, 70
3, 115020, Note_on_c, 0, 58, 69
3, 115183, Note_on_c, 0, 58, 0
3, 115183, Note_on_c, 0, 70, 0
3, 115200, Note_on_c, 0, 72, 71
3, 115200, Note_on_c, 0, 60, 71
3, 115363, Note_on_c, 0, 60, 0
3, 115363, Note_on_c, 0, 72, 0
3, 115380, Note_on_c, 0, 74, 70
3, 115380, Note_on_c, 0, 62, 69
3, 115543, Note_on_c, 0, 62, 0
3, 115543, Note_on_c, 0, 74, 0
3, 115560, Note_on_c, 0, 69, 60
3, 115560, Note_on_c, 0, 57, 60
3, 115723, Note_on_c, 0, 57, 0
3, 115723, Note_on_c, 0, 69, 0
3, 115920, Note_on_c, 0, 68, 59
3, 115920, Note_on_c, 0, 56, 58
3, 116083, Note_on_c, 0, 56, 0
3, 116083, Note_on_c, 0, 68, 0
3, 116100, Note_on_c, 0, 69, 73
3, 116100, Note_on_c, 0, 57, 71
3, 116263, Note_on_c, 0, 57, 0
3, 116263, Note_on_c, 0, 69, 0
3, 116280, Note_on_c, 0, 70, 70
3, 116280, Note_on_c, 0, 58, 67
3, 116443, Note_on_c, 0, 58, 0
3, 116443, Note_on_c, 0, 70, 0
3, 116460, Note_on_c, 0, 72, 73
3, 116460, Note_on_c, 0, 60, 71
3, 116623, Note_on_c, 0, 60, 0
3, 116623, Note_on_c, 0, 72, 0
3, 116640, Note_on_c, 0, 70, 66
3, 116640, Note_on_c, 0, 58, 65
3, 116803, Note_on_c, 0, 58, 0
3, 116803, Note_on_c, 0, 70, 0
3, 117000, Note_on_c, 0, 69, 58
3, 117000, Note_on_c, 0, 57, 59
3, 117163, Note_on_c, 0, 57, 0
3, 117163, Note_on_c, 0, 69, 0
3, 117180, Note_on_c, 0, 70, 70
3, 117180, Note_on_c, 0, 58, 69
3, 117343, Note_on_c, 0, 58, 0
3, 117343, Note_on_c, 0, 70, 0
3, 117360, Note_on_c, 0, 72, 72
3, 117360, Note_on_c, 0, 60, 69
3, 117523, Note_on_c, 0, 60, 0
3, 117523, Note_on_c, 0, 72, 0
3, 117540, Note_on_c, 0, 73, 69
3, 117540, Note_on_c, 0, 61, 71
3, 117703, Note_on_c, 0, 61, 0
3, 117703, Note_on_c, 0, 73, 0
3, 117720, Note_on_c, 0, 70, 62
3, 117720, Note_on_c, 0, 58, 62
3, 117883, Note_on_c, 0, 58, 0
3, 117883, Note_on_c, 0, 70, 0
3, 117900, Note_on_c, 0, 69, 62
3, 117900, Note_on_c, 0, 57, 60
3, 118063, Note_on_c, 0, 57, 0
3, 118063, Note_on_c, 0, 69, 0
3, 118080, Note_on_c, 0, 70, 68
3, 118080, Note_on_c, 0, 58, 70
3, 118243, Note_on_c, 0, 58, 0
3, 118243, Note_on_c, 0, 70, 0
3, 118260, Note_on_c, 0, 72, 72
3, 118260, Note_on_c, 0, 60, 72
3, 118423, Note_on_c, 0, 60, 0
3, 118423, Note_on_c, 0, 72, 0
3, 118440, Note_on_c, 0, 73, 70
3, 118440, Note_on_c, 0, 61, 68
3, 118603, Note_on_c, 0, 61, 0
3, 118603, Note_on_c, 0, 73, 0
3, 118620, Note_on_c, 0, 74, 71
3, 118620, Note_on_c, 0, 62, 71
3, 118783, Note_on_c, 0, 62, 0
3, 118783, Note_on_c, 0, 74, 0
3, 119340, Note_on_c, 0, 58, 59
3, 119520, Note_on_c, 0, 82, 59
3, 119665, Note_on_c, 0, 58, 0
3, 119683, Note_on_c, 0, 82, 0
3, 119700, Note_on_c, 0, 70, 45
3, 119863, Note_on_c, 0, 70, 0
3, 119880, Note_on_c, 0, 70, 59
3, 120060, Note_on_c, 0, 94, 57
3, 120205, Note_on_c, 0, 70, 0
3, 120223, Note_on_c, 0, 94, 0
3, 120240, Note_on_c, 0, 82, 45
3, 120403, Note_on_c, 0, 82, 0
3, 120420, Note_on_c, 0, 71, 80
3, 120583, Note_on_c, 0, 71, 0
3, 120600, Note_on_c, 0, 95, 57
3, 120763, Note_on_c, 0, 95, 0
3, 120780, Note_on_c, 0, 85, 70
3, 120780, Note_on_c, 0, 97, 69
3, 120780, Note_on_c, 0, 73, 81
3, 120943, Note_on_c, 0, 73, 0
3, 120943, Note_on_c, 0, 97, 0
3, 120943, Note_on_c, 0, 85, 0
3, 120960, Note_on_c, 0, 70, 84
3, 121140, Note_on_c, 0, 94, 79
3, 121285, Note_on_c, 0, 70, 0
3, 121303, Note_on_c, 0, 94, 0
3, 121320, Note_on_c, 0, 82, 42
3, 121483, Note_on_c, 0, 82, 0
3, 121500, Note_on_c, 0, 58, 60
3, 121680, Note_on_c, 0, 82, 59
3, 121825, Note_on_c, 0, 58, 0
3, 121843, Note_on_c, 0, 82, 0
3, 121860, Note_on_c, 0, 70, 45
3, 122023, Note_on_c, 0, 70, 0
3, 122040, Note_on_c, 0, 70, 62
3, 122220, Note_on_c, 0, 94, 56
3, 122365, Note_on_c, 0, 70, 0
3, 122383, Note_on_c, 0, 94, 0
3, 122400, Note_on_c, 0, 82, 45
3, 122563, Note_on_c, 0, 82, 0
3, 122580, Note_on_c, 0, 71, 81
3, 122743, Note_on_c, 0, 71, 0
3, 122760, Note_on_c, 0, 95, 58
3, 122923, Note_on_c, 0, 95, 0
3, 122940, Note_on_c, 0, 85, 68
3, 122940, Note_on_c, 0, 97, 71
3, 122940, Note_on_c, 0, 73, 79
3, 123103, Note_on_c, 0, 73, 0
3, 123103, Note_on_c, 0, 97, 0
3, 123103, Note_on_c, 0, 85, 0
3, 123120, Note_on_c, 0, 70, 85
3, 123300, Note_on_c, 0, 94, 60
3, 123445, Note_on_c, 0, 70, 0
3, 123463, Note_on_c, 0, 94, 0
3, 123480, Note_on_c, 0, 82, 43
3, 123643, Note_on_c, 0, 82, 0
3, 123660, Note_on_c, 0, 71, 79
3, 123823, Note_on_c, 0, 71, 0
3, 123840, Note_on_c, 0, 95, 58
3, 124003, Note_on_c, 0, 95, 0
3, 124020, Note_on_c, 0, 85, 68
3, 124020, Note_on_c, 0, 97, 70
3, 124020, Note_on_c, 0, 73, 80
3, 124183, Note_on_c, 0, 73, 0
3, 124183, Note_on_c, 0, 97, 0
3, 124183, Note_on_c, 0, 85, 0
3, 124200, Note_on_c, 0, 70, 82
3, 124380, Note_on_c, 0, 94, 79
3, 124525, Note_on_c, 0, 70, 0
3, 124543, Note_on_c, 0, 94, 0
3, 124560, Note_on_c, 0, 82, 43
3, 124723, Note_on_c, 0, 82, 0
3, 124740, Note_on_c, 0, 70, 82
3, 124920, Note_on_c, 0, 94, 80
3, 124983, Note_on_c, 0, 70, 0
3, 125010, Note_on_c, 0, 70, 89
3, 125083, Note_on_c, 0, 94, 0
3, 125100, Note_on_c, 0, 82, 42
3, 125253, Note_on_c, 0, 70, 0
3, 125263, Note_on_c, 0, 82, 0
3, 125280, Note_on_c, 0, 66, 82
3, 125460, Note_on_c, 0, 90, 78
3, 125605, Note_on_c, 0, 66, 0
3, 125623, Note_on_c, 0, 90, 0
3, 125640, Note_on_c, 0, 78, 43
3, 125803, Note_on_c, 0, 78, 0
3, 125820, Note_on_c, 0, 54, 57
3, 126000, Note_on_c, 0, 78, 57
3, 126145, Note_on_c, 0, 54, 0
3, 126163, Note_on_c, 0, 78, 0
3, 126180, Note_on_c, 0, 66, 42
3, 126343, Note_on_c, 0, 66, 0
3, 126360, Note_on_c, 0, 66, 59
3, 126540, Note_on_c, 0, 90, 58
3, 126685, Note_on_c, 0, 66, 0
3, 126703, Note_on_c, 0, 90, 0
3, 126720, Note_on_c, 0, 78, 46
3, 126883, Note_on_c, 0, 78, 0
3, 126900, Note_on_c, 0, 70, 83
3, 127080, Note_on_c, 0, 94, 80
3, 127143, Note_on_c, 0, 70, 0
3, 127170, Note_on_c, 0, 70, 87
3, 127243, Note_on_c, 0, 94, 0
3, 127260, Note_on_c, 0, 82, 42
3, 127413, Note_on_c, 0, 70, 0
3, 127423, Note_on_c, 0, 82, 0
3, 127440, Note_on_c, 0, 66, 82
3, 127620, Note_on_c, 0, 90, 79
3, 127765, Note_on_c, 0, 66, 0
3, 127783, Note_on_c, 0, 90, 0
3, 127800, Note_on_c, 0, 78, 45
3, 127963, Note_on_c, 0, 78, 0
3, 127980, Note_on_c, 0, 54, 57
3, 128160, Note_on_c, 0, 78, 58
3, 128305, Note_on_c, 0, 54, 0
3, 128323, Note_on_c, 0, 78, 0
3, 128340, Note_on_c, 0, 66, 45
3, 128503, Note_on_c, 0, 66, 0
3, 128520, Note_on_c, 0, 66, 82
3, 128700, Note_on_c, 0, 90, 79
3, 128845, Note_on_c, 0, 66, 0
3, 128863, Note_on_c, 0, 90, 0
3, 128880, Note_on_c, 0, 78, 46
3, 129043, Note_on_c, 0, 78, 0
3, 129060, Note_on_c, 0, 54, 56
3, 129240, Note_on_c, 0, 78, 58
3, 129385, Note_on_c, 0, 54, 0
3, 129403, Note_on_c, 0, 78, 0
3, 129420, Note_on_c, 0, 66, 45
3, 129583, Note_on_c, 0, 66, 0
3, 129600, Note_on_c, 0, 63, 85
3, 129780, Note_on_c, 0, 87, 78
3, 129925, Note_on_c, 0, 63, 0
3, 129943, Note_on_c, 0, 87, 0
3, 129960, Note_on_c, 0, 75, 46
3, 130123, Note_on_c, 0, 75, 0
3, 130140, Note_on_c, 0, 51, 59
3, 130320, Note_on_c, 0, 75, 58
3, 130465, Note_on_c, 0, 51, 0
3, 130483, Note_on_c, 0, 75, 0
3, 130500, Note_on_c, 0, 63, 45
3, 130663, Note_on_c, 0, 63, 0
3, 130680, Note_on_c, 0, 63, 61
3, 130860, Note_on_c, 0, 87, 58
3, 131005, Note_on_c, 0, 63, 0
3, 131023, Note_on_c, 0, 87, 0
3, 131040, Note_on_c, 0, 75, 43
3, 131203, Note_on_c, 0, 75, 0
3, 131220, Note_on_c, 0, 65, 59
3, 131383, Note_on_c, 0, 65, 0
3, 131400, Note_on_c, 0, 89, 59
3, 131563, Note_on_c, 0, 89, 0
3, 131580, Note_on_c, 0, 78, 67
3, 131580, Note_on_c, 0, 90, 66
3, 131580, Note_on_c, 0, 66, 58
3, 131743, Note_on_c, 0, 66, 0
3, 131743, Note_on_c, 0, 90, 0
3, 131743, Note_on_c, 0, 78, 0
3, 131760, Note_on_c, 0, 63, 62
3, 131940, Note_on_c, 0, 87, 57
3, 132085, Note_on_c, 0, 63, 0
3, 132103, Note_on_c, 0, 87, 0
3, 132120, Note_on_c, 0, 75, 44
3, 132283, Note_on_c, 0, 75, 0
3, 132300, Note_on_c, 0, 65, 58
3, 132463, Note_on_c, 0, 65, 0
3, 132480, Note_on_c, 0, 89, 57
3, 132643, Note_on_c, 0, 89, 0
3, 132660, Note_on_c, 0, 78, 68
3, 132660, Note_on_c, 0, 90, 70
3, 132660, Note_on_c, 0, 66, 60
3, 132823, Note_on_c, 0, 66, 0
3, 132823, Note_on_c, 0, 90, 0
3, 132823, Note_on_c, 0, 78, 0
3, 132840, Note_on_c, 0, 63, 62
3, 133020, Note_on_c, 0, 87, 59
3, 133165, Note_on_c, 0, 63, 0
3, 133183, Note_on_c, 0, 87, 0
3, 133200, Note_on_c, 0, 75, 45
3, 133363, Note_on_c, 0, 75, 0
3, 133380, Note_on_c, 0, 64, 82
3, 133543, Note_on_c, 0, 64, 0
3, 133560, Note_on_c, 0, 88, 57
3, 133723, Note_on_c, 0, 88, 0
3, 133740, Note_on_c, 0, 78, 70
3, 133740, Note_on_c, 0, 90, 70
3, 133740, Note_on_c, 0, 66, 79
3, 133903, Note_on_c, 0, 66, 0
3, 133903, Note_on_c, 0, 90, 0
3, 133903, Note_on_c, 0, 78, 0
3, 133920, Note_on_c, 0, 63, 83
3, 134100, Note_on_c, 0, 87, 79
3, 134245, Note_on_c, 0, 63, 0
3, 134263, Note_on_c, 0, 87, 0
3, 134280, Note_on_c, 0, 75, 44
3, 134443, Note_on_c, 0, 75, 0
3, 134460, Note_on_c, 0, 51, 60
3, 134640, Note_on_c, 0, 75, 58
3, 134785, Note_on_c, 0, 51, 0
3, 134803, Note_on_c, 0, 75, 0
3, 134820, Note_on_c, 0, 63, 42
3, 134983, Note_on_c, 0, 63, 0
3, 135000, Note_on_c, 0, 63, 59
3, 135180, Note_on_c, 0, 87, 57
3, 135325, Note_on_c, 0, 63, 0
3, 135343, Note_on_c, 0, 87, 0
3, 135360, Note_on_c, 0, 75, 43
3, 135523, Note_on_c, 0, 75, 0
3, 135540, Note_on_c, 0, 64, 79
3, 135703, Note_on_c, 0, 64, 0
3, 135720, Note_on_c, 0, 88, 58
3, 135883, Note_on_c, 0, 88, 0
3, 135900, Note_on_c, 0, 78, 68
3, 135900, Note_on_c, 0, 90, 71
3, 135900, Note_on_c, 0, 66, 79
3, 136063, Note_on_c, 0, 66, 0
3, 136063, Note_on_c, 0, 90, 0
3, 136063, Note_on_c, 0, 78, 0
3, 136080, Note_on_c, 0, 63, 82
3, 136260, Note_on_c, 0, 87, 79
3, 136405, Note_on_c, 0, 63, 0
3, 136423, Note_on_c, 0, 87, 0
3, 136440, Note_on_c, 0, 75, 45
3, 136603, Note_on_c, 0, 75, 0
3, 136620, Note_on_c, 0, 51, 58
3, 136800, Note_on_c, 0, 75, 60
3, 136945, Note_on_c, 0, 51, 0
3, 136963, Note_on_c, 0, 75, 0
3, 136980, Note_on_c, 0, 63, 45
3, 137143, Note_on_c, 0, 63, 0
3, 137160, Note_on_c, 0, 63, 61
3, 137340, Note_on_c, 0, 87, 59
3, 137485, Note_on_c, 0, 63, 0
3, 137503, Note_on_c, 0, 87, 0
3, 137520, Note_on_c, 0, 75, 44
3, 137683, Note_on_c, 0, 75, 0
3, 137700, Note_on_c, 0, 64, 79
3, 137863, Note_on_c, 0, 64, 0
3, 137880, Note_on_c, 0, 88, 57
3, 138043, Note_on_c, 0, 88, 0
3, 138060, Note_on_c, 0, 78, 70
3, 138060, Note_on_c, 0, 90, 70
3, 138060, Note_on_c, 0, 66, 78
3, 138223, Note_on_c, 0, 66, 0
3, 138223, Note_on_c, 0, 90, 0
3, 138223, Note_on_c, 0, 78, 0
3, 138240, Note_on_c, 0, 63, 84
3, 138420, Note_on_c, 0, 87, 59
3, 138565, Note_on_c, 0, 63, 0
3, 138583, Note_on_c, 0, 87, 0
3, 138600, Note_on_c, 0, 75, 45
3, 138763, Note_on_c, 0, 75, 0
3, 138780, Note_on_c, 0, 64, 80
3, 138943, Note_on_c, 0, 64, 0
3, 138960, Note_on_c, 0, 88, 59
3, 139123, Note_on_c, 0, 88, 0
3, 139140, Note_on_c, 0, 78, 69
3, 139140, Note_on_c, 0, 90, 70
3, 139140, Note_on_c, 0, 66, 80
3, 139303, Note_on_c, 0, 66, 0
3, 139303, Note_on_c, 0, 90, 0
3, 139303, Note_on_c, 0, 78, 0
3, 139320, Note_on_c, 0, 63, 83
3, 139500, Note_on_c, 0, 87, 80
3, 139645, Note_on_c, 0, 63, 0
3, 139663, Note_on_c, 0, 87, 0
3, 139680, Note_on_c, 0, 75, 44
3, 139843, Note_on_c, 0, 75, 0
3, 139860, Note_on_c, 0, 63, 83
3, 140040, Note_on_c, 0, 87, 79
3, 140103, Note_on_c, 0, 63, 0
3, 140130, Note_on_c, 0, 63, 87
3, 140203, Note_on_c, 0, 87, 0
3, 140220, Note_on_c, 0, 75, 44
3, 140373, Note_on_c, 0, 63, 0
3, 140383, Note_on_c, 0, 75, 0
3, 140400, Note_on_c, 0, 59, 80
3, 140580, Note_on_c, 0, 83, 80
3, 140725, Note_on_c, 0, 59, 0
3, 140743, Note_on_c, 0, 83, 0
3, 140760, Note_on_c, 0, 71, 44
3, 140923, Note_on_c, 0, 71, 0
3, 140940, Note_on_c, 0, 47, 59
3, 141120, Note_on_c, 0, 71, 59
3, 141265, Note_on_c, 0, 47, 0
3, 141283, Note_on_c, 0, 71, 0
3, 141300, Note_on_c, 0, 59, 44
3, 141463, Note_on_c, 0, 59, 0
3, 141480, Note_on_c, 0, 59, 60
3, 141660, Note_on_c, 0, 83, 57
3, 141805, Note_on_c, 0, 59, 0
3, 141823, Note_on_c, 0, 83, 0
3, 141840, Note_on_c, 0, 71, 44
3, 142003, Note_on_c, 0, 71, 0
3, 142020, Note_on_c, 0, 63, 85
3, 142200, Note_on_c, 0, 87, 81
3, 142263, Note_on_c, 0, 63, 0
3, 142290, Note_on_c, 0, 63, 88
3, 142363, Note_on_c, 0, 87, 0
3, 142380, Note_on_c, 0, 75, 45
3, 142533, Note_on_c, 0, 63, 0
3, 142543, Note_on_c, 0, 75, 0
3, 142560, Note_on_c, 0, 59, 81
3, 142740, Note_on_c, 0, 83, 82
3, 142885, Note_on_c, 0, 59, 0
3, 142903, Note_on_c, 0, 83, 0
3, 142920, Note_on_c, 0, 71, 44
3, 143083, Note_on_c, 0, 71, 0
3, 143100, Note_on_c, 0, 47, 60
3, 143280, Note_on_c, 0, 71, 58
3, 143425, Note_on_c, 0, 47, 0
3, 143443, Note_on_c, 0, 71, 0
3, 143460, Note_on_c, 0, 59, 45
3, 143623, Note_on_c, 0, 59, 0
3, 143640, Note_on_c, 0, 59, 82
3, 143820, Note_on_c, 0, 83, 82
3, 143965, Note_on_c, 0, 59, 0
3, 143983, Note_on_c, 0, 83, 0
3, 144000, Note_on_c, 0, 71, 44
3, 144163, Note_on_c, 0, 71, 0
3, 144180, Note_on_c, 0, 47, 58
3, 144360, Note_on_c, 0, 71, 56
3, 144505, Note_on_c, 0, 47, 0
3, 144523, Note_on_c, 0, 71, 0
3, 144540, Note_on_c, 0, 59, 45
3, 144703, Note_on_c, 0, 59, 0
3, 144720, Note_on_c, 0, 56, 83
3, 144900, Note_on_c, 0, 80, 78
3, 145045, Note_on_c, 0, 56, 0
3, 145063, Note_on_c, 0, 80, 0
3, 145080, Note_on_c, 0, 68, 44
3, 145243, Note_on_c, 0, 68, 0
3, 145260, Note_on_c, 0, 44, 60
3, 145440, Note_on_c, 0, 68, 56
3, 145585, Note_on_c, 0, 44, 0
3, 145603, Note_on_c, 0, 68, 0
3, 145620, Note_on_c, 0, 56, 42
3, 145783, Note_on_c, 0, 56, 0
3, 145800, Note_on_c, 0, 56, 62
3, 145980, Note_on_c, 0, 80, 59
3, 146125, Note_on_c, 0, 56, 0
3, 146143, Note_on_c, 0, 80, 0
3, 146160, Note_on_c, 0, 68, 44
3, 146323, Note_on_c, 0, 68, 0
3, 146340, Note_on_c, 0, 58, 59
3, 146503, Note_on_c, 0, 58, 0
3, 146520, Note_on_c, 0, 82, 59
3, 146683, Note_on_c, 0, 82, 0
3, 146700, Note_on_c, 0, 71, 70
3, 146700, Note_on_c, 0, 83, 69
3, 146700, Note_on_c, 0, 59, 57
3, 146863, Note_on_c, 0, 59, 0
3, 146863, Note_on_c, 0, 83, 0
3, 146863, Note_on_c, 0, 71, 0
3, 146880, Note_on_c, 0, 56, 63
3, 147060, Note_on_c, 0, 80, 59
3, 147205, Note_on_c, 0, 56, 0
3, 147223, Note_on_c, 0, 80, 0
3, 147240, Note_on_c, 0, 68, 44
3, 147403, Note_on_c, 0, 68, 0
3, 147420, Note_on_c, 0, 58, 59
3, 147583, Note_on_c, 0, 58, 0
3, 147600, Note_on_c, 0, 82, 57
3, 147763, Note_on_c, 0, 82, 0
3, 147780, Note_on_c, 0, 71, 70
3, 147780, Note_on_c, 0, 83, 69
3, 147780, Note_on_c, 0, 59, 57
3, 147943, Note_on_c, 0, 59, 0
3, 147943, Note_on_c, 0, 83, 0
3, 147943, Note_on_c, 0, 71, 0
3, 147960, Note_on_c, 0, 56, 61
3, 148140, Note_on_c, 0, 80, 57
3, 148285, Note_on_c, 0, 56, 0
3, 148303, Note_on_c, 0, 80, 0
3, 148320, Note_on_c, 0, 68, 43
3, 148483, Note_on_c, 0, 68, 0
3, 148500, Note_on_c, 0, 44, 58
3, 148825, Note_on_c, 0, 44, 0
3, 149040, Note_on_c, 0, 34, 62
3, 149040, Note_on_c, 0, 46, 60
3, 149365, Note_on_c, 0, 46, 0
3, 149365, Note_on_c, 0, 34, 0
3, 149580, Note_on_c, 0, 53, 58
3, 149580, Note_on_c, 0, 58, 57
3, 149580, Note_on_c, 0, 62, 57
3, 149905, Note_on_c, 0, 62, 0
3, 149905, Note_on_c, 0, 58, 0
3, 149905, Note_on_c, 0, 53, 0
3, 150120, Note_on_c, 0, 35, 60
3, 150120, Note_on_c, 0, 47, 61
3, 150445, Note_on_c, 0, 47, 0
3, 150445, Note_on_c, 0, 35, 0
3, 150660, Note_on_c, 0, 54, 59
3, 150660, Note_on_c, 0, 56, 58
3, 150660, Note_on_c, 0, 62, 56
3, 150985, Note_on_c, 0, 62, 0
3, 150985, Note_on_c, 0, 56, 0
3, 150985, Note_on_c, 0, 54, 0
3, 151200, Note_on_c, 0, 30, 59
3, 151200, Note_on_c, 0, 42, 59
3, 151525, Note_on_c, 0, 42, 0
3, 151525, Note_on_c, 0, 30, 0
3, 151740, Note_on_c, 0, 54, 57
3, 151740, Note_on_c, 0, 58, 57
3, 151740, Note_on_c, 0, 61, 58
3, 152065, Note_on_c, 0, 61, 0
3, 152065, Note_on_c, 0, 58, 0
3, 152065, Note_on_c, 0, 54, 0
3, 152280, Note_on_c, 0, 35, 81
3, 152280, Note_on_c, 0, 47, 82
3, 152605, Note_on_c, 0, 47, 0
3, 152605, Note_on_c, 0, 35, 0
3, 152820, Note_on_c, 0, 53, 81
3, 152820, Note_on_c, 0, 56, 78
3, 152820, Note_on_c, 0, 63, 82
3, 153145, Note_on_c, 0, 63, 0
3, 153145, Note_on_c, 0, 56, 0
3, 153145, Note_on_c, 0, 53, 0
3, 153360, Note_on_c, 0, 27, 61
3, 153360, Note_on_c, 0, 39, 62
3, 153685, Note_on_c, 0, 39, 0
3, 153685, Note_on_c, 0, 27, 0
3, 153900, Note_on_c, 0, 54, 60
3, 153900, Note_on_c, 0, 58, 58
3, 153900, Note_on_c, 0, 63, 57
3, 154225, Note_on_c, 0, 63, 0
3, 154225, Note_on_c, 0, 58, 0
3, 154225, Note_on_c, 0, 54, 0
3, 154440, Note_on_c, 0, 35, 59
3, 154440, Note_on_c, 0, 47, 60
3, 154765, Note_on_c, 0, 47, 0
3, 154765, Note_on_c, 0, 35, 0
3, 154980, Note_on_c, 0, 54, 57
3, 154980, Note_on_c, 0, 56, 56
3, 154980, Note_on_c, 0, 62, 58
3, 155305, Note_on_c, 0, 62, 0
3, 155305, Note_on_c, 0, 56, 0
3, 155305, Note_on_c, 0, 54, 0
3, 155520, Note_on_c, 0, 30, 62
3, 155520, Note_on_c, 0, 42, 63
3, 155845, Note_on_c, 0, 42, 0
3, 155845, Note_on_c, 0, 30, 0
3, 156060, Note_on_c, 0, 49, 58
3, 156060, Note_on_c, 0, 54, 60
3, 156060, Note_on_c, 0, 61, 58
3, 156385, Note_on_c, 0, 61, 0
3, 156385, Note_on_c, 0, 54, 0
3, 156385, Note_on_c, 0, 49, 0
3, 156600, Note_on_c, 0, 29, 85
3, 156600, Note_on_c, 0, 41, 85
3, 156925, Note_on_c, 0, 41, 0
3, 156925, Note_on_c, 0, 29, 0
3, 157140, Note_on_c, 0, 51, 80
3, 157140, Note_on_c, 0, 56, 82
3, 157140, Note_on_c, 0, 59, 79
3, 157465, Note_on_c, 0, 59, 0
3, 157465, Note_on_c, 0, 56, 0
3, 157465, Note_on_c, 0, 51, 0
3, 157680, Note_on_c, 0, 34, 62
3, 157680, Note_on_c, 0, 46, 63
3, 158005, Note_on_c, 0, 46, 0
3, 158005, Note_on_c, 0, 34, 0
3, 158220, Note_on_c, 0, 50, 58
3, 158220, Note_on_c, 0, 56, 56
3, 158220, Note_on_c, 0, 58, 57
3, 158545, Note_on_c, 0, 58, 0
3, 158545, Note_on_c, 0, 56, 0
3, 158545, Note_on_c, 0, 50, 0
3, 159300, Note_on_c, 0, 53, 57
3, 159300, Note_on_c, 0, 56, 58
3, 159625, Note_on_c, 0, 56, 0
3, 159625, Note_on_c, 0, 53, 0
3, 159840, Note_on_c, 0, 54, 61
3, 159840, Note_on_c, 0, 58, 60
3, 160165, Note_on_c, 0, 58, 0
3, 160165, Note_on_c, 0, 54, 0
3, 160380, Note_on_c, 0, 56, 57
3, 160380, Note_on_c, 0, 59, 59
3, 160705, Note_on_c, 0, 59, 0
3, 160705, Note_on_c, 0, 56, 0
3, 160920, Note_on_c, 0, 58, 62
3, 160920, Note_on_c, 0, 62, 60
3, 161245, Note_on_c, 0, 62, 0
3, 161245, Note_on_c, 0, 58, 0
3, 161460, Note_on_c, 0, 62, 56
3, 161460, Note_on_c, 0, 65, 57
3, 161785, Note_on_c, 0, 65, 0
3, 161785, Note_on_c, 0, 62, 0
3, 162000, Note_on_c, 0, 63, 64
3, 162000, Note_on_c, 0, 66, 64
3, 162000, Note_on_c, 0, 39, 60
3, 162000, Note_on_c, 0, 46, 62
3, 162325, Note_on_c, 0, 46, 0
3, 162325, Note_on_c, 0, 39, 0
3, 162540, Note_on_c, 0, 54, 58
3, 162540, Note_on_c, 0, 58, 57
3, 162865, Note_on_c, 0, 58, 0
3, 162865, Note_on_c, 0, 54, 0
3, 163080, Note_on_c, 0, 66, 0
3, 163080, Note_on_c, 0, 63, 0
3, 163080, Note_on_c, 0, 61, 68
3, 163080, Note_on_c, 0, 65, 70
3, 163080, Note_on_c, 0, 34, 62
3, 163080, Note_on_c, 0, 46, 63
3, 163405, Note_on_c, 0, 46, 0
3, 163405, Note_on_c, 0, 34, 0
3, 163620, Note_on_c, 0, 53, 60
3, 163620, Note_on_c, 0, 58, 58
3, 163945, Note_on_c, 0, 58, 0
3, 163945, Note_on_c, 0, 53, 0
3, 164160, Note_on_c, 0, 37, 59
3, 164160, Note_on_c, 0, 44, 59
3, 164485, Note_on_c, 0, 44, 0
3, 164485, Note_on_c, 0, 37, 0
3, 164700, Note_on_c, 0, 53, 57
3, 164700, Note_on_c, 0, 56, 57
3, 165025, Note_on_c, 0, 56, 0
3, 165025, Note_on_c, 0, 53, 0
3, 165170, Note_on_c, 0, 65, 0
3, 165170, Note_on_c, 0, 61, 0
3, 165240, Note_on_c, 0, 59, 68
3, 165240, Note_on_c, 0, 63, 67
3, 165240, Note_on_c, 0, 32, 61
3, 165240, Note_on_c, 0, 44, 63
3, 165565, Note_on_c, 0, 44, 0
3, 165565, Note_on_c, 0, 32, 0
3, 165780, Note_on_c, 0, 51, 57
3, 165780, Note_on_c, 0, 56, 57
3, 166105, Note_on_c, 0, 56, 0
3, 166105, Note_on_c, 0, 51, 0
3, 166320, Note_on_c, 0, 39, 60
3, 166320, Note_on_c, 0, 46, 60
3, 166645, Note_on_c, 0, 46, 0
3, 166645, Note_on_c, 0, 39, 0
3, 166860, Note_on_c, 0, 51, 59
3, 166860, Note_on_c, 0, 54, 57
3, 167185, Note_on_c, 0, 54, 0
3, 167185, Note_on_c, 0, 51, 0
3, 167330, Note_on_c, 0, 63, 0
3, 167330, Note_on_c, 0, 59, 0
3, 167400, Note_on_c, 0, 58, 70
3, 167400, Note_on_c, 0, 61, 69
3, 167400, Note_on_c, 0, 30, 62
3, 167400, Note_on_c, 0, 42, 61
3, 167725, Note_on_c, 0, 42, 0
3, 167725, Note_on_c, 0, 30, 0
3, 167940, Note_on_c, 0, 49, 59
3, 167940, Note_on_c, 0, 54, 59
3, 168265, Note_on_c, 0, 54, 0
3, 168265, Note_on_c, 0, 49, 0
3, 168480, Note_on_c, 0, 61, 0
3, 168480, Note_on_c, 0, 58, 0
3, 168480, Note_on_c, 0, 58, 70
3, 168480, Note_on_c, 0, 60, 70
3, 168480, Note_on_c, 0, 27, 61
3, 168480, Note_on_c, 0, 39, 63
3, 168805, Note_on_c, 0, 39, 0
3, 168805, Note_on_c, 0, 27, 0
3, 169020, Note_on_c, 0, 48, 60
3, 169020, Note_on_c, 0, 54, 59
3, 169345, Note_on_c, 0, 54, 0
3, 169345, Note_on_c, 0, 48, 0
3, 169560, Note_on_c, 0, 60, 0
3, 169560, Note_on_c, 0, 58, 0
3, 169560, Note_on_c, 0, 58, 77
3, 169560, Note_on_c, 0, 61, 79
3, 169560, Note_on_c, 0, 34, 62
3, 169560, Note_on_c, 0, 46, 62
3, 169885, Note_on_c, 0, 46, 0
3, 169885, Note_on_c, 0, 34, 0
3, 170100, Note_on_c, 0, 49, 60
3, 170100, Note_on_c, 0, 53, 59
3, 170425, Note_on_c, 0, 53, 0
3, 170425, Note_on_c, 0, 49, 0
3, 170640, Note_on_c, 0, 61, 0
3, 170640, Note_on_c, 0, 58, 0
3, 170640, Note_on_c, 0, 63, 85
3, 170640, Note_on_c, 0, 66, 86
3, 170640, Note_on_c, 0, 39, 62
3, 170640, Note_on_c, 0, 46, 60
3, 170965, Note_on_c, 0, 46, 0
3, 170965, Note_on_c, 0, 39, 0
3, 171180, Note_on_c, 0, 54, 57
3, 171180, Note_on_c, 0, 58, 58
3, 171505, Note_on_c, 0, 58, 0
3, 171505, Note_on_c, 0, 54, 0
3, 171720, Note_on_c, 0, 66, 0
3, 171720, Note_on_c, 0, 63, 0
3, 171720, Note_on_c, 0, 61, 71
3, 171720, Note_on_c, 0, 65, 74
3, 171720, Note_on_c, 0, 34, 63
3, 171720, Note_on_c, 0, 46, 60
3, 172045, Note_on_c, 0, 46, 0
3, 172045, Note_on_c, 0, 34, 0
3, 172260, Note_on_c, 0, 53, 59
3, 172260, Note_on_c, 0, 58, 60
3, 172585, Note_on_c, 0, 58, 0
3, 172585, Note_on_c, 0, 53, 0
3, 172800, Note_on_c, 0, 37, 62
3, 172800, Note_on_c, 0, 44, 59
3, 173125, Note_on_c, 0, 44, 0
3, 173125, Note_on_c, 0, 37, 0
3, 173340, Note_on_c, 0, 53, 58
3, 173340, Note_on_c, 0, 56, 57
3, 173665, Note_on_c, 0, 56, 0
3, 173665, Note_on_c, 0, 53, 0
3, 173810, Note_on_c, 0, 65, 0
3, 173810, Note_on_c, 0, 61, 0
3, 173880, Note_on_c, 0, 59, 70
3, 173880, Note_on_c, 0, 63, 71
3, 173880, Note_on_c, 0, 32, 60
3, 173880, Note_on_c, 0, 44, 62
3, 174205, Note_on_c, 0, 44, 0
3, 174205, Note_on_c, 0, 32, 0
3, 174420, Note_on_c, 0, 51, 60
3, 174420, Note_on_c, 0, 56, 56
3, 174745, Note_on_c, 0, 56, 0
3, 174745, Note_on_c, 0, 51, 0
3, 174960, Note_on_c, 0, 35, 61
3, 174960, Note_on_c, 0, 42, 62
3, 175285, Note_on_c, 0, 42, 0
3, 175285, Note_on_c, 0, 35, 0
3, 175500, Note_on_c, 0, 51, 60
3, 175500, Note_on_c, 0, 54, 58
3, 175825, Note_on_c, 0, 54, 0
3, 175825, Note_on_c, 0, 51, 0
3, 176040, Note_on_c, 0, 63, 0
3, 176040, Note_on_c, 0, 59, 0
3, 176040, Note_on_c, 0, 58, 69
3, 176040, Note_on_c, 0, 61, 69
3, 176040, Note_on_c, 0, 30, 63
3, 176040, Note_on_c, 0, 42, 59
3, 176365, Note_on_c, 0, 42, 0
3, 176365, Note_on_c, 0, 30, 0
3, 176580, Note_on_c, 0, 49, 59
3, 176580, Note_on_c, 0, 54, 58
3, 176905, Note_on_c, 0, 54, 0
3, 176905, Note_on_c, 0, 49, 0
3, 177120, Note_on_c, 0, 61, 0
3, 177120, Note_on_c, 0, 58, 0
3, 177120, Note_on_c, 0, 58, 70
3, 177120, Note_on_c, 0, 60, 68
3, 177120, Note_on_c, 0, 27, 61
3, 177120, Note_on_c, 0, 39, 60
3, 177445, Note_on_c, 0, 39, 0
3, 177445, Note_on_c, 0, 27, 0
3, 177660, Note_on_c, 0, 48, 58
3, 177660, Note_on_c, 0, 54, 58
3, 177985, Note_on_c, 0, 54, 0
3, 177985, Note_on_c, 0, 48, 0
3, 178200, Note_on_c, 0, 60, 0
3, 178200, Note_on_c, 0, 58, 0
3, 178200, Note_on_c, 0, 58, 78
3, 178200, Note_on_c, 0, 61, 78
3, 178200, Note_on_c, 0, 34, 61
3, 178200, Note_on_c, 0, 46, 63
3, 178525, Note_on_c, 0, 46, 0
3, 178525, Note_on_c, 0, 34, 0
3, 178740, Note_on_c, 0, 49, 60
3, 178740, Note_on_c, 0, 53, 59
3, 179065, Note_on_c, 0, 53, 0
3, 179065, Note_on_c, 0, 49, 0
3, 179280, Note_on_c, 0, 61, 0
3, 179280, Note_on_c, 0, 58, 0
3, 179280, Note_on_c, 0, 58, 61
3, 179280, Note_on_c, 0, 44, 63
3, 179605, Note_on_c, 0, 44, 0
3, 179820, Note_on_c, 0, 49, 58
3, 179820, Note_on_c, 0, 53, 58
3, 180145, Note_on_c, 0, 53, 0
3, 180145, Note_on_c, 0, 49, 0
3, 180360, Note_on_c, 0, 42, 60
3, 180685, Note_on_c, 0, 42, 0
3, 180900, Note_on_c, 0, 49, 57
3, 180900, Note_on_c, 0, 54, 58
3, 181225, Note_on_c, 0, 54, 0
3, 181225, Note_on_c, 0, 49, 0
3, 181370, Note_on_c, 0, 58, 0
3, 181440, Note_on_c, 0, 56, 66
3, 181440, Note_on_c, 0, 41, 60
3, 181765, Note_on_c, 0, 41, 0
3, 181980, Note_on_c, 0, 46, 59
3, 181980, Note_on_c, 0, 50, 59
3, 182305, Note_on_c, 0, 50, 0
3, 182305, Note_on_c, 0, 46, 0
3, 182450, Note_on_c, 0, 56, 0
3, 182520, Note_on_c, 0, 58, 74
3, 182520, Note_on_c, 0, 39, 61
3, 182845, Note_on_c, 0, 39, 0
3, 183060, Note_on_c, 0, 46, 58
3, 183060, Note_on_c, 0, 51, 59
3, 183060, Note_on_c, 0, 54, 59
3, 183385, Note_on_c, 0, 54, 0
3, 183385, Note_on_c, 0, 51, 0
3, 183385, Note_on_c, 0, 46, 0
3, 183600, Note_on_c, 0, 36, 60
3, 183925, Note_on_c, 0, 36, 0
3, 184140, Note_on_c, 0, 46, 59
3, 184140, Note_on_c, 0, 53, 57
3, 184140, Note_on_c, 0, 56, 57
3, 184140, Note_on_c, 0, 38, 58
3, 184465, Note_on_c, 0, 38, 0
3, 184465, Note_on_c, 0, 53, 0
3, 184465, Note_on_c, 0, 56, 0
3, 184465, Note_on_c, 0, 46, 0
3, 184680, Note_on_c, 0, 39, 62
3, 185005, Note_on_c, 0, 39, 0
3, 185167, Note_on_c, 0, 58, 0
3, 185220, Note_on_c, 0, 59, 70
3, 185220, Note_on_c, 0, 51, 56
3, 185220, Note_on_c, 0, 55, 56
3, 185545, Note_on_c, 0, 55, 0
3, 185545, Note_on_c, 0, 51, 0
3, 185707, Note_on_c, 0, 59, 0
3, 185760, Note_on_c, 0, 61, 73
3, 185760, Note_on_c, 0, 41, 59
3, 186085, Note_on_c, 0, 41, 0
3, 186300, Note_on_c, 0, 51, 58
3, 186300, Note_on_c, 0, 58, 57
3, 186300, Note_on_c, 0, 43, 58
3, 186625, Note_on_c, 0, 43, 0
3, 186625, Note_on_c, 0, 58, 0
3, 186625, Note_on_c, 0, 51, 0
3, 186770, Note_on_c, 0, 61, 0
3, 186840, Note_on_c, 0, 59, 65
3, 186840, Note_on_c, 0, 44, 62
3, 187165, Note_on_c, 0, 44, 0
3, 187327, Note_on_c, 0, 59, 0
3, 187380, Note_on_c, 0, 61, 70
3, 187380, Note_on_c, 0, 51, 59
3, 187380, Note_on_c, 0, 56, 59
3, 187705, Note_on_c, 0, 56, 0
3, 187705, Note_on_c, 0, 51, 0
3, 187867, Note_on_c, 0, 61, 0
3, 187920, Note_on_c, 0, 63, 76
3, 187920, Note_on_c, 0, 39, 59
3, 188245, Note_on_c, 0, 39, 0
3, 188460, Note_on_c, 0, 51, 59
3, 188460, Note_on_c, 0, 56, 59
3, 188460, Note_on_c, 0, 59, 58
3, 188785, Note_on_c, 0, 59, 0
3, 188785, Note_on_c, 0, 56, 0
3, 188785, Note_on_c, 0, 51, 0
3, 189000, Note_on_c, 0, 35, 61
3, 189000, Note_on_c, 0, 47, 62
3, 189325, Note_on_c, 0, 47, 0
3, 189325, Note_on_c, 0, 35, 0
3, 189540, Note_on_c, 0, 51, 59
3, 189540, Note_on_c, 0, 56, 58
3, 189865, Note_on_c, 0, 56, 0
3, 189865, Note_on_c, 0, 51, 0
3, 190010, Note_on_c, 0, 63, 0
3, 190080, Note_on_c, 0, 61, 65
3, 190080, Note_on_c, 0, 34, 63
3, 190080, Note_on_c, 0, 46, 60
3, 190405, Note_on_c, 0, 46, 0
3, 190405, Note_on_c, 0, 34, 0
3, 190620, Note_on_c, 0, 51, 58
3, 190620, Note_on_c, 0, 55, 60
3, 190945, Note_on_c, 0, 55, 0
3, 190945, Note_on_c, 0, 51, 0
3, 191090, Note_on_c, 0, 61, 0
3, 191160, Note_on_c, 0, 63, 74
3, 191160, Note_on_c, 0, 32, 61
3, 191160, Note_on_c, 0, 44, 62
3, 191485, Note_on_c, 0, 44, 0
3, 191485, Note_on_c, 0, 32, 0
3, 191700, Note_on_c, 0, 51, 58
3, 191700, Note_on_c, 0, 56, 57
3, 191700, Note_on_c, 0, 59, 57
3, 192025, Note_on_c, 0, 59, 0
3, 192025, Note_on_c, 0, 56, 0
3, 192025, Note_on_c, 0, 51, 0
3, 192240, Note_on_c, 0, 32, 60
3, 192240, Note_on_c, 0, 44, 61
3, 192565, Note_on_c, 0, 44, 0
3, 192565, Note_on_c, 0, 32, 0
3, 192727, Note_on_c, 0, 63, 0
3, 192780, Note_on_c, 0, 66, 73
3, 192780, Note_on_c, 0, 54, 58
3, 192780, Note_on_c, 0, 60, 57
3, 192780, Note_on_c, 0, 63, 57
3, 192780, Note_on_c, 0, 33, 60
3, 192780, Note_on_c, 0, 45, 57
3, 193105, Note_on_c, 0, 45, 0
3, 193105, Note_on_c, 0, 54, 0
3, 193105, Note_on_c, 0, 60, 0
3, 193105, Note_on_c, 0, 63, 0
3, 193105, Note_on_c, 0, 33, 0
3, 193267, Note_on_c, 0, 66, 0
3, 193320, Note_on_c, 0, 65, 66
3, 193320, Note_on_c, 0, 34, 62
3, 193320, Note_on_c, 0, 46, 60
3, 193645, Note_on_c, 0, 46, 0
3, 193645, Note_on_c, 0, 34, 0
3, 193860, Note_on_c, 0, 54, 57
3, 193860, Note_on_c, 0, 58, 58
3, 193860, Note_on_c, 0, 63, 57
3, 194185, Note_on_c, 0, 63, 0
3, 194185, Note_on_c, 0, 58, 0
3, 194185, Note_on_c, 0, 54, 0
3, 194400, Note_on_c, 0, 53, 63
3, 194400, Note_on_c, 0, 59, 61
3, 194400, Note_on_c, 0, 61, 62
3, 194725, Note_on_c, 0, 61, 0
3, 194725, Note_on_c, 0, 59, 0
3, 194725, Note_on_c, 0, 53, 0
3, 194887, Note_on_c, 0, 65, 0
3, 194940, Note_on_c, 0, 66, 74
3, 194940, Note_on_c, 0, 39, 59
3, 194940, Note_on_c, 0, 51, 57
3, 195265, Note_on_c, 0, 51, 0
3, 195265, Note_on_c, 0, 39, 0
3, 195480, Note_on_c, 0, 66, 0
3, 195480, Note_on_c, 0, 68, 80
3, 195480, Note_on_c, 0, 38, 61
3, 195480, Note_on_c, 0, 50, 63
3, 195805, Note_on_c, 0, 50, 0
3, 195805, Note_on_c, 0, 38, 0
3, 196020, Note_on_c, 0, 68, 0
3, 196020, Note_on_c, 0, 70, 77
3, 196020, Note_on_c, 0, 58, 60
3, 196020, Note_on_c, 0, 65, 59
3, 196345, Note_on_c, 0, 65, 0
3, 196345, Note_on_c, 0, 58, 0
3, 196560, Note_on_c, 0, 70, 0
3, 196560, Note_on_c, 0, 68, 78
3, 196560, Note_on_c, 0, 71, 80
3, 196560, Note_on_c, 0, 44, 62
3, 196560, Note_on_c, 0, 51, 59
3, 196560, Note_on_c, 0, 59, 59
3, 196885, Note_on_c, 0, 59, 0
3, 196885, Note_on_c, 0, 44, 0
3, 196885, Note_on_c, 0, 51, 0
3, 197100, Note_on_c, 0, 59, 57
3, 197100, Note_on_c, 0, 63, 57
3, 197425, Note_on_c, 0, 63, 0
3, 197425, Note_on_c, 0, 59, 0
3, 197640, Note_on_c, 0, 71, 0
3, 197640, Note_on_c, 0, 68, 0
3, 197640, Note_on_c, 0, 66, 72
3, 197640, Note_on_c, 0, 70, 71
3, 197640, Note_on_c, 0, 39, 59
3, 197640, Note_on_c, 0, 46, 62
3, 197640, Note_on_c, 0, 54, 59
3, 197965, Note_on_c, 0, 54, 0
3, 197965, Note_on_c, 0, 39, 0
3, 197965, Note_on_c, 0, 46, 0
3, 198180, Note_on_c, 0, 58, 56
3, 198180, Note_on_c, 0, 63, 57
3, 198505, Note_on_c, 0, 63, 0
3, 198505, Note_on_c, 0, 58, 0
3, 198720, Note_on_c, 0, 42, 62
3, 198720, Note_on_c, 0, 49, 61
3, 198720, Note_on_c, 0, 58, 63
3, 199045, Note_on_c, 0, 58, 0
3, 199045, Note_on_c, 0, 42, 0
3, 199045, Note_on_c, 0, 49, 0
3, 199260, Note_on_c, 0, 58, 57
3, 199260, Note_on_c, 0, 61, 58
3, 199585, Note_on_c, 0, 61, 0
3, 199585, Note_on_c, 0, 58, 0
3, 199730, Note_on_c, 0, 70, 0
3, 199730, Note_on_c, 0, 66, 0
3, 199800, Note_on_c, 0, 64, 69
3, 199800, Note_on_c, 0, 68, 70
3, 199800, Note_on_c, 0, 37, 63
3, 199800, Note_on_c, 0, 44, 62
3, 199800, Note_on_c, 0, 52, 59
3, 200125, Note_on_c, 0, 52, 0
3, 200125, Note_on_c, 0, 37, 0
3, 200125, Note_on_c, 0, 44, 0
3, 200340, Note_on_c, 0, 56, 60
3, 200340, Note_on_c, 0, 61, 56
3, 200665, Note_on_c, 0, 61, 0
3, 200665, Note_on_c, 0, 56, 0
3, 200880, Note_on_c, 0, 40, 60
3, 200880, Note_on_c, 0, 47, 62
3, 200880, Note_on_c, 0, 56, 61
3, 201205, Note_on_c, 0, 56, 0
3, 201205, Note_on_c, 0, 40, 0
3, 201205, Note_on_c, 0, 47, 0
3, 201420, Note_on_c, 0, 56, 59
3, 201420, Note_on_c, 0, 59, 60
3, 201745, Note_on_c, 0, 59, 0
3, 201745, Note_on_c, 0, 56, 0
3, 201890, Note_on_c, 0, 68, 0
3, 201890, Note_on_c, 0, 64, 0
3, 201960, Note_on_c, 0, 63, 70
3, 201960, Note_on_c, 0, 66, 68
3, 201960, Note_on_c, 0, 35, 61
3, 201960, Note_on_c, 0, 42, 62
3, 201960, Note_on_c, 0, 51, 61
3, 202285, Note_on_c, 0, 51, 0
3, 202285, Note_on_c, 0, 35, 0
3, 202285, Note_on_c, 0, 42, 0
3, 202500, Note_on_c, 0, 54, 58
3, 202500, Note_on_c, 0, 59, 58
3, 202825, Note_on_c, 0, 59, 0
3, 202825, Note_on_c, 0, 54, 0
3, 203040, Note_on_c, 0, 66, 0
3, 203040, Note_on_c, 0, 63, 0
3, 203040, Note_on_c, 0, 63, 70
3, 203040, Note_on_c, 0, 65, 72
3, 203040, Note_on_c, 0, 32, 60
3, 203040, Note_on_c, 0, 39, 61
3, 203040, Note_on_c, 0, 47, 61
3, 203365, Note_on_c, 0, 47, 0
3, 203365, Note_on_c, 0, 32, 0
3, 203365, Note_on_c, 0, 39, 0
3, 203580, Note_on_c, 0, 53, 60
3, 203580, Note_on_c, 0, 59, 56
3, 203905, Note_on_c, 0, 59, 0
3, 203905, Note_on_c, 0, 53, 0
3, 204120, Note_on_c, 0, 65, 0
3, 204120, Note_on_c, 0, 63, 0
3, 204120, Note_on_c, 0, 63, 80
3, 204120, Note_on_c, 0, 66, 80
3, 204120, Note_on_c, 0, 39, 63
3, 204120, Note_on_c, 0, 46, 61
3, 204120, Note_on_c, 0, 54, 60
3, 204445, Note_on_c, 0, 54, 0
3, 204445, Note_on_c, 0, 39, 0
3, 204445, Note_on_c, 0, 46, 0
3, 204660, Note_on_c, 0, 54, 58
3, 204660, Note_on_c, 0, 58, 57
3, 204985, Note_on_c, 0, 58, 0
3, 204985, Note_on_c, 0, 54, 0
3, 205200, Note_on_c, 0, 66, 0
3, 205200, Note_on_c, 0, 63, 0
3, 205200, Note_on_c, 0, 63, 74
3, 205200, Note_on_c, 0, 66, 76
3, 205200, Note_on_c, 0, 39, 61
3, 205200, Note_on_c, 0, 46, 60
3, 205525, Note_on_c, 0, 46, 0
3, 205525, Note_on_c, 0, 39, 0
3, 205740, Note_on_c, 0, 54, 57
3, 205740, Note_on_c, 0, 58, 58
3, 206065, Note_on_c, 0, 58, 0
3, 206065, Note_on_c, 0, 54, 0
3, 206280, Note_on_c, 0, 66, 0
3, 206280, Note_on_c, 0, 63, 0
3, 206280, Note_on_c, 0, 61, 70
3, 206280, Note_on_c, 0, 65, 71
3, 206280, Note_on_c, 0, 34, 62
3, 206280, Note_on_c, 0, 46, 61
3, 206605, Note_on_c, 0, 46, 0
3, 206605, Note_on_c, 0, 34, 0
3, 206820, Note_on_c, 0, 53, 58
3, 206820, Note_on_c, 0, 58, 59
3, 207145, Note_on_c, 0, 58, 0
3, 207145, Note_on_c, 0, 53, 0
3, 207360, Note_on_c, 0, 37, 61
3, 207360, Note_on_c, 0, 44, 59
3, 207685, Note_on_c, 0, 44, 0
3, 207685, Note_on_c, 0, 37, 0
3, 207900, Note_on_c, 0, 53, 57
3, 207900, Note_on_c, 0, 56, 59
3, 208225, Note_on_c, 0, 56, 0
3, 208225, Note_on_c, 0, 53, 0
3, 208370, Note_on_c, 0, 65, 0
3, 208370, Note_on_c, 0, 61, 0
3, 208440, Note_on_c, 0, 59, 69
3, 208440, Note_on_c, 0, 63, 68
3, 208440, Note_on_c, 0, 32, 62
3, 208440, Note_on_c, 0, 44, 61
3, 208765, Note_on_c, 0, 44, 0
3, 208765, Note_on_c, 0, 32, 0
3, 208980, Note_on_c, 0, 51, 58
3, 208980, Note_on_c, 0, 56, 57
3, 209305, Note_on_c, 0, 56, 0
3, 209305, Note_on_c, 0, 51, 0
3, 209520, Note_on_c, 0, 35, 60
3, 209520, Note_on_c, 0, 42, 63
3, 209845, Note_on_c, 0, 42, 0
3, 209845, Note_on_c, 0, 35, 0
3, 210060, Note_on_c, 0, 51, 59
3, 210060, Note_on_c, 0, 54, 57
3, 210385, Note_on_c, 0, 54, 0
3, 210385, Note_on_c, 0, 51, 0
3, 210600, Note_on_c, 0, 63, 0
3, 210600, Note_on_c, 0, 59, 0
3, 210600, Note_on_c, 0, 58, 68
3, 210600, Note_on_c, 0, 61, 67
3, 210600, Note_on_c, 0, 30, 62
3, 210600, Note_on_c, 0, 42, 61
3, 210925, Note_on_c, 0, 42, 0
3, 210925, Note_on_c, 0, 30, 0
3, 211140, Note_on_c, 0, 49, 60
3, 211140, Note_on_c, 0, 54, 58
3, 211465, Note_on_c, 0, 54, 0
3, 211465, Note_on_c, 0, 49, 0
3, 211680, Note_on_c, 0, 61, 0
3, 211680, Note_on_c, 0, 58, 0
3, 211680, Note_on_c, 0, 56, 71
3, 211680, Note_on_c, 0, 59, 69
3, 211680, Note_on_c, 0, 32, 61
3, 211680, Note_on_c, 0, 44, 60
3, 212005, Note_on_c, 0, 44, 0
3, 212005, Note_on_c, 0, 32, 0
3, 212220, Note_on_c, 0, 47, 60
3, 212220, Note_on_c, 0, 52, 58
3, 212545, Note_on_c, 0, 52, 0
3, 212545, Note_on_c, 0, 47, 0
3, 212760, Note_on_c, 0, 59, 0
3, 212760, Note_on_c, 0, 56, 0
3, 212760, Note_on_c, 0, 56, 71
3, 212760, Note_on_c, 0, 58, 72
3, 212760, Note_on_c, 0, 34, 60
3, 212760, Note_on_c, 0, 46, 62
3, 213085, Note_on_c, 0, 46, 0
3, 213085, Note_on_c, 0, 34, 0
3, 213300, Note_on_c, 0, 46, 59
3, 213300, Note_on_c, 0, 50, 57
3, 213625, Note_on_c, 0, 50, 0
3, 213625, Note_on_c, 0, 46, 0
3, 213840, Note_on_c, 0, 58, 0
3, 213840, Note_on_c, 0, 56, 0
3, 213840, Note_on_c, 0, 63, 77
3, 213840, Note_on_c, 0, 39, 60
3, 213840, Note_on_c, 0, 46, 61
3, 214165, Note_on_c, 0, 46, 0
3, 214165, Note_on_c, 0, 39, 0
3, 214380, Note_on_c, 0, 51, 60
3, 214380, Note_on_c, 0, 54, 60
3, 214705, Note_on_c, 0, 54, 0
3, 214705, Note_on_c, 0, 51, 0
3, 215407, Note_on_c, 0, 63, 0
3, 215460, Note_on_c, 0, 65, 69
3, 215460, Note_on_c, 0, 56, 57
3, 215460, Note_on_c, 0, 62, 58
3, 215460, Note_on_c, 0, 34, 59
3, 215460, Note_on_c, 0, 46, 60
3, 215785, Note_on_c, 0, 46, 0
3, 215785, Note_on_c, 0, 62, 0
3, 215785, Note_on_c, 0, 65, 0
3, 215785, Note_on_c, 0, 56, 0
3, 215785, Note_on_c, 0, 34, 0
3, 215820, Note_on_c, 0, 66, 71
3, 215983, Note_on_c, 0, 66, 0
3, 216000, Note_on_c, 0, 63, 61
3, 216000, Note_on_c, 0, 39, 60
3, 216000, Note_on_c, 0, 46, 60
3, 216325, Note_on_c, 0, 46, 0
3, 216325, Note_on_c, 0, 39, 0
3, 216540, Note_on_c, 0, 51, 58
3, 216540, Note_on_c, 0, 54, 59
3, 216865, Note_on_c, 0, 54, 0
3, 216865, Note_on_c, 0, 51, 0
3, 217010, Note_on_c, 0, 63, 0
3, 217080, Note_on_c, 0, 63, 67
3, 217567, Note_on_c, 0, 63, 0
3, 217620, Note_on_c, 0, 65, 69
3, 217620, Note_on_c, 0, 56, 59
3, 217620, Note_on_c, 0, 62, 58
3, 217620, Note_on_c, 0, 34, 57
3, 217620, Note_on_c, 0, 46, 59
3, 217797, Note_on_c, 0, 65, 0
3, 217945, Note_on_c, 0, 34, 0
3, 217945, Note_on_c, 0, 56, 0
3, 217945, Note_on_c, 0, 62, 0
3, 217945, Note_on_c, 0, 46, 0
3, 217980, Note_on_c, 0, 66, 70
3, 218143, Note_on_c, 0, 66, 0
3, 218160, Note_on_c, 0, 63, 62
3, 218160, Note_on_c, 0, 39, 61
3, 218160, Note_on_c, 0, 46, 62
3, 218485, Note_on_c, 0, 46, 0
3, 218485, Note_on_c, 0, 39, 0
3, 218700, Note_on_c, 0, 51, 59
3, 218700, Note_on_c, 0, 54, 60
3, 219025, Note_on_c, 0, 54, 0
3, 219025, Note_on_c, 0, 51, 0
3, 219170, Note_on_c, 0, 63, 0
3, 219240, Note_on_c, 0, 66, 79
3, 219240, Note_on_c, 0, 37, 62
3, 219240, Note_on_c, 0, 49, 62
3, 219565, Note_on_c, 0, 49, 0
3, 219565, Note_on_c, 0, 37, 0
3, 219780, Note_on_c, 0, 58, 59
3, 219780, Note_on_c, 0, 64, 58
3, 220105, Note_on_c, 0, 64, 0
3, 220105, Note_on_c, 0, 58, 0
3, 220320, Note_on_c, 0, 66, 0
3, 220320, Note_on_c, 0, 71, 86
3, 220320, Note_on_c, 0, 35, 62
3, 220320, Note_on_c, 0, 47, 62
3, 220645, Note_on_c, 0, 47, 0
3, 220645, Note_on_c, 0, 35, 0
3, 220860, Note_on_c, 0, 57, 60
3, 220860, Note_on_c, 0, 63, 59
3, 221185, Note_on_c, 0, 63, 0
3, 221185, Note_on_c, 0, 57, 0
3, 221400, Note_on_c, 0, 71, 0
3, 221400, Note_on_c, 0, 66, 60
3, 221400, Note_on_c, 0, 34, 62
3, 221400, Note_on_c, 0, 46, 60
3, 221725, Note_on_c, 0, 46, 0
3, 221725, Note_on_c, 0, 34, 0
3, 221940, Note_on_c, 0, 56, 57
3, 221940, Note_on_c, 0, 62, 58
3, 222265, Note_on_c, 0, 62, 0
3, 222265, Note_on_c, 0, 56, 0
3, 222410, Note_on_c, 0, 66, 0
3, 222480, Note_on_c, 0, 63, 60
3, 222480, Note_on_c, 0, 39, 62
3, 222480, Note_on_c, 0, 46, 62
3, 222805, Note_on_c, 0, 46, 0
3, 222805, Note_on_c, 0, 39, 0
3, 223020, Note_on_c, 0, 51, 57
3, 223020, Note_on_c, 0, 54, 58
3, 223345, Note_on_c, 0, 54, 0
3, 223345, Note_on_c, 0, 51, 0
3, 223490, Note_on_c, 0, 63, 0
3, 223560, Note_on_c, 0, 63, 67
3, 223560, Note_on_c, 0, 39, 62
3, 223560, Note_on_c, 0, 46, 61
3, 223723, Note_on_c, 0, 63, 0
3, 223740, Note_on_c, 0, 62, 64
3, 223885, Note_on_c, 0, 46, 0
3, 223885, Note_on_c, 0, 39, 0
3, 223903, Note_on_c, 0, 62, 0
3, 223920, Note_on_c, 0, 63, 67
3, 224083, Note_on_c, 0, 63, 0
3, 224100, Note_on_c, 0, 65, 70
3, 224100, Note_on_c, 0, 56, 57
3, 224100, Note_on_c, 0, 62, 58
3, 224100, Note_on_c, 0, 34, 59
3, 224100, Note_on_c, 0, 46, 57
3, 224425, Note_on_c, 0, 46, 0
3, 224425, Note_on_c, 0, 62, 0
3, 224425, Note_on_c, 0, 65, 0
3, 224425, Note_on_c, 0, 56, 0
3, 224425, Note_on_c, 0, 34, 0
3, 224460, Note_on_c, 0, 66, 69
3, 224623, Note_on_c, 0, 66, 0
3, 224640, Note_on_c, 0, 63, 63
3, 224640, Note_on_c, 0, 39, 60
3, 224640, Note_on_c, 0, 46, 59
3, 224965, Note_on_c, 0, 46, 0
3, 224965, Note_on_c, 0, 39, 0
3, 225180, Note_on_c, 0, 51, 56
3, 225180, Note_on_c, 0, 54, 58
3, 225505, Note_on_c, 0, 54, 0
3, 225505, Note_on_c, 0, 51, 0
3, 225650, Note_on_c, 0, 63, 0
3, 225720, Note_on_c, 0, 63, 66
3, 225720, Note_on_c, 0, 39, 62
3, 225720, Note_on_c, 0, 46, 60
3, 225883, Note_on_c, 0, 63, 0
3, 225900, Note_on_c, 0, 62, 61
3, 226045, Note_on_c, 0, 46, 0
3, 226045, Note_on_c, 0, 39, 0
3, 226063, Note_on_c, 0, 62, 0
3, 226080, Note_on_c, 0, 63, 68
3, 226243, Note_on_c, 0, 63, 0
3, 226260, Note_on_c, 0, 65, 70
3, 226260, Note_on_c, 0, 56, 58
3, 226260, Note_on_c, 0, 62, 58
3, 226260, Note_on_c, 0, 34, 59
3, 226260, Note_on_c, 0, 46, 57
3, 226585, Note_on_c, 0, 46, 0
3, 226585, Note_on_c, 0, 62, 0
3, 226585, Note_on_c, 0, 65, 0
3, 226585, Note_on_c, 0, 56, 0
3, 226585, Note_on_c, 0, 34, 0
3, 226620, Note_on_c, 0, 66, 70
3, 226783, Note_on_c, 0, 66, 0
3, 226800, Note_on_c, 0, 63, 63
3, 226800, Note_on_c, 0, 39, 62
3, 226800, Note_on_c, 0, 46, 59
3, 227125, Note_on_c, 0, 46, 0
3, 227125, Note_on_c, 0, 39, 0
3, 227340, Note_on_c, 0, 51, 59
3, 227340, Note_on_c, 0, 54, 58
3, 227610, Note_on_c, 0, 37, 58
3, 227665, Note_on_c, 0, 54, 0
3, 227665, Note_on_c, 0, 51, 0
3, 227810, Note_on_c, 0, 63, 0
3, 227853, Note_on_c, 0, 37, 0
3, 227880, Note_on_c, 0, 66, 79
3, 227880, Note_on_c, 0, 35, 84
3, 227880, Note_on_c, 0, 47, 85
3, 228205, Note_on_c, 0, 47, 0
3, 228205, Note_on_c, 0, 35, 0
3, 228420, Note_on_c, 0, 57, 60
3, 228420, Note_on_c, 0, 63, 57
3, 228690, Note_on_c, 0, 30, 58
3, 228745, Note_on_c, 0, 63, 0
3, 228745, Note_on_c, 0, 57, 0
3, 228933, Note_on_c, 0, 30, 0
3, 228960, Note_on_c, 0, 66, 0
3, 228960, Note_on_c, 0, 71, 85
3, 228960, Note_on_c, 0, 29, 87
3, 228960, Note_on_c, 0, 41, 86
3, 229285, Note_on_c, 0, 41, 0
3, 229285, Note_on_c, 0, 29, 0
3, 229500, Note_on_c, 0, 56, 57
3, 229500, Note_on_c, 0, 63, 59
3, 229770, Note_on_c, 0, 35, 58
3, 229825, Note_on_c, 0, 63, 0
3, 229825, Note_on_c, 0, 56, 0
3, 230013, Note_on_c, 0, 35, 0
3, 230040, Note_on_c, 0, 71, 0
3, 230040, Note_on_c, 0, 66, 66
3, 230040, Note_on_c, 0, 34, 86
3, 230040, Note_on_c, 0, 46, 87
3, 230365, Note_on_c, 0, 46, 0
3, 230365, Note_on_c, 0, 34, 0
3, 230580, Note_on_c, 0, 56, 56
3, 230580, Note_on_c, 0, 62, 60
3, 230850, Note_on_c, 0, 46, 60
3, 230905, Note_on_c, 0, 62, 0
3, 230905, Note_on_c, 0, 56, 0
3, 231093, Note_on_c, 0, 46, 0
3, 231120, Note_on_c, 0, 66, 0
3, 231120, Note_on_c, 0, 39, 63
3, 231120, Note_on_c, 0, 51, 62
3, 231390, Note_on_c, 0, 54, 57
3, 231633, Note_on_c, 0, 54, 0
3, 231660, Note_on_c, 0, 58, 76
3, 231903, Note_on_c, 0, 58, 0
3, 231930, Note_on_c, 0, 63, 79
3, 232130, Note_on_c, 0, 51, 0
3, 232130, Note_on_c, 0, 39, 0
3, 232173, Note_on_c, 0, 63, 0
3, 232200, Note_on_c, 0, 37, 64
3, 232200, Note_on_c, 0, 49, 64
3, 232470, Note_on_c, 0, 54, 58
3, 232713, Note_on_c, 0, 54, 0
3, 232740, Note_on_c, 0, 58, 76
3, 232983, Note_on_c, 0, 58, 0
3, 233010, Note_on_c, 0, 63, 78
3, 233210, Note_on_c, 0, 49, 0
3, 233210, Note_on_c, 0, 37, 0
3, 233253, Note_on_c, 0, 63, 0
3, 233280, Note_on_c, 0, 36, 65
3, 233280, Note_on_c, 0, 48, 64
3, 233550, Note_on_c, 0, 54, 60
3, 233793, Note_on_c, 0, 54, 0
3, 233820, Note_on_c, 0, 58, 76
3, 234063, Note_on_c, 0, 58, 0
3, 234090, Note_on_c, 0, 63, 77
3, 234290, Note_on_c, 0, 48, 0
3, 234290, Note_on_c, 0, 36, 0
3, 234333, Note_on_c, 0, 63, 0
3, 234360, Note_on_c, 0, 35, 64
3, 234360, Note_on_c, 0, 47, 65
3, 234630, Note_on_c, 0, 54, 58
3, 234873, Note_on_c, 0, 54, 0
3, 234900, Note_on_c, 0, 59, 79
3, 235143, Note_on_c, 0, 59, 0
3, 235170, Note_on_c, 0, 62, 74
3, 235370, Note_on_c, 0, 47, 0
3, 235370, Note_on_c, 0, 35, 0
3, 235413, Note_on_c, 0, 62, 0
3, 235440, Note_on_c, 0, 34, 65
3, 235440, Note_on_c, 0, 46, 64
3, 235710, Note_on_c, 0, 53, 56
3, 235953, Note_on_c, 0, 53, 0
3, 235980, Note_on_c, 0, 58, 78
3, 236223, Note_on_c, 0, 58, 0
3, 236250, Note_on_c, 0, 62, 74
3, 236450, Note_on_c, 0, 46, 0
3, 236450, Note_on_c, 0, 34, 0
3, 236493, Note_on_c, 0, 62, 0
3, 236520, Note_on_c, 0, 32, 63
3, 236520, Note_on_c, 0, 44, 62
3, 236790, Note_on_c, 0, 51, 57
3, 237033, Note_on_c, 0, 51, 0
3, 237060, Note_on_c, 0, 56, 75
3, 237303, Note_on_c, 0, 56, 0
3, 237330, Note_on_c, 0, 59, 81
3, 237330, Note_on_c, 0, 63, 80
3, 237530, Note_on_c, 0, 44, 0
3, 237530, Note_on_c, 0, 32, 0
3, 237573, Note_on_c, 0, 59, 0
3, 237573, Note_on_c, 0, 63, 0
3, 237600, Note_on_c, 0, 30, 63
3, 237600, Note_on_c, 0, 42, 63
3, 237870, Note_on_c, 0, 51, 57
3, 238113, Note_on_c, 0, 51, 0
3, 238140, Note_on_c, 0, 54, 74
3, 238383, Note_on_c, 0, 54, 0
3, 238410, Note_on_c, 0, 59, 82
3, 238410, Note_on_c, 0, 63, 83
3, 238610, Note_on_c, 0, 42, 0
3, 238610, Note_on_c, 0, 30, 0
3, 238653, Note_on_c, 0, 59, 0
3, 238653, Note_on_c, 0, 63, 0
3, 238680, Note_on_c, 0, 29, 63
3, 238680, Note_on_c, 0, 41, 64
3, 238950, Note_on_c, 0, 51, 57
3, 239193, Note_on_c, 0, 51, 0
3, 239220, Note_on_c, 0, 53, 70
3, 239463, Note_on_c, 0, 53, 0
3, 239490, Note_on_c, 0, 57, 83
3, 239490, Note_on_c, 0, 63, 83
3, 239690, Note_on_c, 0, 41, 0
3, 239690, Note_on_c, 0, 29, 0
3, 239733, Note_on_c, 0, 57, 0
3, 239733, Note_on_c, 0, 63, 0
3, 239760, Note_on_c, 0, 54, 60
3, 239760, Note_on_c, 0, 58, 59
3, 239760, Note_on_c, 0, 27, 63
3, 239760, Note_on_c, 0, 39, 64
3, 240247, Note_on_c, 0, 58, 0
3, 240247, Note_on_c, 0, 54, 0
3, 240300, Note_on_c, 0, 46, 68
3, 240300, Note_on_c, 0, 51, 65
3, 240300, Note_on_c, 0, 54, 69
3, 240300, Note_on_c, 0, 58, 67
3, 240389, Note_on_c, 0, 58, 0
3, 240389, Note_on_c, 0, 51, 0
3, 240389, Note_on_c, 0, 46, 0
3, 240389, Note_on_c, 0, 54, 0
3, 240840, Note_on_c, 0, 47, 61
3, 240840, Note_on_c, 0, 51, 63
3, 240840, Note_on_c, 0, 54, 59
3, 240840, Note_on_c, 0, 59, 61
3, 240929, Note_on_c, 0, 59, 0
3, 240929, Note_on_c, 0, 51, 0
3, 240929, Note_on_c, 0, 47, 0
3, 240929, Note_on_c, 0, 54, 0
3, 241380, Note_on_c, 0, 49, 61
3, 241380, Note_on_c, 0, 51, 62
3, 241380, Note_on_c, 0, 54, 60
3, 241380, Note_on_c, 0, 61, 62
3, 241469, Note_on_c, 0, 61, 0
3, 241469, Note_on_c, 0, 51, 0
3, 241469, Note_on_c, 0, 49, 0
3, 241469, Note_on_c, 0, 54, 0
3, 241850, Note_on_c, 0, 39, 0
3, 241850, Note_on_c, 0, 27, 0
3, 241920, Note_on_c, 0, 46, 59
3, 241920, Note_on_c, 0, 51, 63
3, 241920, Note_on_c, 0, 54, 60
3, 241920, Note_on_c, 0, 58, 61
3, 241920, Note_on_c, 0, 27, 70
3, 241920, Note_on_c, 0, 39, 70
3, 242009, Note_on_c, 0, 58, 0
3, 242009, Note_on_c, 0, 54, 0
3, 242009, Note_on_c, 0, 46, 0
3, 242009, Note_on_c, 0, 51, 0
3, 242460, Note_on_c, 0, 46, 56
3, 242460, Note_on_c, 0, 51, 59
3, 242460, Note_on_c, 0, 54, 58
3, 242460, Note_on_c, 0, 58, 58
3, 242549, Note_on_c, 0, 58, 0
3, 242549, Note_on_c, 0, 51, 0
3, 242549, Note_on_c, 0, 46, 0
3, 242549, Note_on_c, 0, 54, 0
3, 243000, Note_on_c, 0, 47, 61
3, 243000, Note_on_c, 0, 51, 61
3, 243000, Note_on_c, 0, 54, 62
3, 243000, Note_on_c, 0, 59, 61
3, 243089, Note_on_c, 0, 59, 0
3, 243089, Note_on_c, 0, 51, 0
3, 243089, Note_on_c, 0, 47, 0
3, 243089, Note_on_c, 0, 54, 0
3, 243540, Note_on_c, 0, 49, 59
3, 243540, Note_on_c, 0, 51, 58
3, 243540, Note_on_c, 0, 54, 57
3, 243540, Note_on_c, 0, 61, 58
3, 243629, Note_on_c, 0, 61, 0
3, 243629, Note_on_c, 0, 51, 0
3, 243629, Note_on_c, 0, 49, 0
3, 243629, Note_on_c, 0, 54, 0
3, 244010, Note_on_c, 0, 27, 0
3, 244010, Note_on_c, 0, 39, 0
3, 244080, Note_on_c, 0, 46, 61
3, 244080, Note_on_c, 0, 51, 63
3, 244080, Note_on_c, 0, 54, 62
3, 244080, Note_on_c, 0, 58, 61
3, 244080, Note_on_c, 0, 27, 69
3, 244080, Note_on_c, 0, 39, 69
3, 244169, Note_on_c, 0, 58, 0
3, 244169, Note_on_c, 0, 54, 0
3, 244169, Note_on_c, 0, 46, 0
3, 244169, Note_on_c, 0, 51, 0
3, 244620, Note_on_c, 0, 47, 57
3, 244620, Note_on_c, 0, 54, 59
3, 244620, Note_on_c, 0, 59, 59
3, 244945, Note_on_c, 0, 59, 0
3, 244945, Note_on_c, 0, 47, 0
3, 244945, Note_on_c, 0, 54, 0
3, 244980, Note_on_c, 0, 61, 70
3, 245090, Note_on_c, 0, 39, 0
3, 245090, Note_on_c, 0, 27, 0
3, 245143, Note_on_c, 0, 61, 0
3, 245160, Note_on_c, 0, 46, 61
3, 245160, Note_on_c, 0, 54, 63
3, 245160, Note_on_c, 0, 58, 63
3, 245160, Note_on_c, 0, 27, 68
3, 245160, Note_on_c, 0, 39, 70
3, 245337, Note_on_c, 0, 58, 0
3, 245337, Note_on_c, 0, 46, 0
3, 245337, Note_on_c, 0, 54, 0
3, 245700, Note_on_c, 0, 47, 58
3, 245700, Note_on_c, 0, 54, 60
3, 245700, Note_on_c, 0, 59, 58
3, 246025, Note_on_c, 0, 59, 0
3, 246025, Note_on_c, 0, 47, 0
3, 246025, Note_on_c, 0, 54, 0
3, 246060, Note_on_c, 0, 61, 69
3, 246170, Note_on_c, 0, 27, 0
3, 246170, Note_on_c, 0, 39, 0
3, 246223, Note_on_c, 0, 61, 0
3, 246240, Note_on_c, 0, 46, 64
3, 246240, Note_on_c, 0, 54, 62
3, 246240, Note_on_c, 0, 58, 65
3, 246240, Note_on_c, 0, 27, 68
3, 246240, Note_on_c, 0, 39, 68
3, 246417, Note_on_c, 0, 58, 0
3, 246417, Note_on_c, 0, 46, 0
3, 246417, Note_on_c, 0, 54, 0
3, 246780, Note_on_c, 0, 47, 59
3, 246780, Note_on_c, 0, 54, 57
3, 246780, Note_on_c, 0, 59, 58
3, 247105, Note_on_c, 0, 59, 0
3, 247105, Note_on_c, 0, 47, 0
3, 247105, Note_on_c, 0, 54, 0
3, 247140, Note_on_c, 0, 61, 68
3, 247250, Note_on_c, 0, 27, 0
3, 247250, Note_on_c, 0, 39, 0
3, 247303, Note_on_c, 0, 61, 0
3, 247320, Note_on_c, 0, 46, 61
3, 247320, Note_on_c, 0, 54, 62
3, 247320, Note_on_c, 0, 58, 62
3, 247320, Note_on_c, 0, 27, 71
3, 247320, Note_on_c, 0, 39, 68
3, 247497, Note_on_c, 0, 58, 0
3, 247497, Note_on_c, 0, 46, 0
3, 247497, Note_on_c, 0, 54, 0
3, 247645, Note_on_c, 0, 27, 0
3, 247645, Note_on_c, 0, 39, 0
3, 247860, Note_on_c, 0, 51, 58
3, 247860, Note_on_c, 0, 54, 57
3, 247860, Note_on_c, 0, 60, 56
3, 247860, Note_on_c, 0, 63, 58
3, 247860, Note_on_c, 0, 32, 62
3, 247860, Note_on_c, 0, 44, 60
3, 248023, Note_on_c, 0, 44, 0
3, 248023, Note_on_c, 0, 54, 0
3, 248023, Note_on_c, 0, 60, 0
3, 248023, Note_on_c, 0, 51, 0
3, 248023, Note_on_c, 0, 32, 0
3, 248023, Note_on_c, 0, 63, 0
3, 248400, Note_on_c, 0, 53, 60
3, 248400, Note_on_c, 0, 56, 60
3, 248400, Note_on_c, 0, 61, 59
3, 248400, Note_on_c, 0, 65, 63
3, 248400, Note_on_c, 0, 25, 60
3, 248400, Note_on_c, 0, 37, 60
3, 248563, Note_on_c, 0, 37, 0
3, 248563, Note_on_c, 0, 56, 0
3, 248563, Note_on_c, 0, 61, 0
3, 248563, Note_on_c, 0, 53, 0
3, 248563, Note_on_c, 0, 25, 0
3, 248563, Note_on_c, 0, 65, 0
3, 248940, Note_on_c, 0, 58, 63
3, 248940, Note_on_c, 0, 58, 46
3, 249103, Note_on_c, 0, 58, 0
3, 249120, Note_on_c, 0, 53, 54
3, 249283, Note_on_c, 0, 53, 0
3, 249300, Note_on_c, 0, 56, 69
3, 249427, Note_on_c, 0, 58, 0
3, 249463, Note_on_c, 0, 56, 0
3, 249480, Note_on_c, 0, 58, 76
3, 249480, Note_on_c, 0, 58, 64
3, 249643, Note_on_c, 0, 58, 0
3, 249660, Note_on_c, 0, 53, 57
3, 249823, Note_on_c, 0, 53, 0
3, 249840, Note_on_c, 0, 56, 70
3, 249967, Note_on_c, 0, 58, 0
3, 250003, Note_on_c, 0, 56, 0
3, 250020, Note_on_c, 0, 60, 78
3, 250020, Note_on_c, 0, 60, 71
3, 250020, Note_on_c, 0, 32, 59
3, 250020, Note_on_c, 0, 44, 59
3, 250183, Note_on_c, 0, 60, 0
3, 250200, Note_on_c, 0, 54, 54
3, 250363, Note_on_c, 0, 54, 0
3, 250380, Note_on_c, 0, 56, 67
3, 250507, Note_on_c, 0, 44, 0
3, 250507, Note_on_c, 0, 60, 0
3, 250507, Note_on_c, 0, 32, 0
3, 250543, Note_on_c, 0, 56, 0
3, 250560, Note_on_c, 0, 61, 108
3, 250560, Note_on_c, 0, 61, 97
3, 250560, Note_on_c, 0, 37, 92
3, 250560, Note_on_c, 0, 44, 90
3, 250723, Note_on_c, 0, 61, 0
3, 250740, Note_on_c, 0, 56, 58
3, 250903, Note_on_c, 0, 56, 0
3, 250920, Note_on_c, 0, 53, 57
3, 251047, Note_on_c, 0, 61, 0
3, 251083, Note_on_c, 0, 53, 0
3, 251100, Note_on_c, 0, 58, 75
3, 251100, Note_on_c, 0, 58, 58
3, 251263, Note_on_c, 0, 58, 0
3, 251280, Note_on_c, 0, 53, 57
3, 251443, Note_on_c, 0, 53, 0
3, 251460, Note_on_c, 0, 56, 72
3, 251587, Note_on_c, 0, 58, 0
3, 251623, Note_on_c, 0, 56, 0
3, 251640, Note_on_c, 0, 58, 74
3, 251640, Note_on_c, 0, 58, 70
3, 251803, Note_on_c, 0, 58, 0
3, 251820, Note_on_c, 0, 53, 58
3, 251965, Note_on_c, 0, 44, 0
3, 251965, Note_on_c, 0, 37, 0
3, 251983, Note_on_c, 0, 53, 0
3, 252000, Note_on_c, 0, 56, 69
3, 252127, Note_on_c, 0, 58, 0
3, 252163, Note_on_c, 0, 56, 0
3, 252180, Note_on_c, 0, 60, 75
3, 252180, Note_on_c, 0, 60, 69
3, 252180, Note_on_c, 0, 32, 58
3, 252180, Note_on_c, 0, 44, 58
3, 252343, Note_on_c, 0, 60, 0
3, 252360, Note_on_c, 0, 54, 57
3, 252523, Note_on_c, 0, 54, 0
3, 252540, Note_on_c, 0, 56, 69
3, 252667, Note_on_c, 0, 44, 0
3, 252667, Note_on_c, 0, 60, 0
3, 252667, Note_on_c, 0, 32, 0
3, 252703, Note_on_c, 0, 56, 0
3, 252720, Note_on_c, 0, 61, 105
3, 252720, Note_on_c, 0, 61, 98
3, 252720, Note_on_c, 0, 37, 93
3, 252720, Note_on_c, 0, 44, 92
3, 252883, Note_on_c, 0, 61, 0
3, 252900, Note_on_c, 0, 56, 56
3, 253063, Note_on_c, 0, 56, 0
3, 253080, Note_on_c, 0, 53, 57
3, 253207, Note_on_c, 0, 61, 0
3, 253243, Note_on_c, 0, 53, 0
3, 253260, Note_on_c, 0, 58, 76
3, 253260, Note_on_c, 0, 58, 59
3, 253423, Note_on_c, 0, 58, 0
3, 253440, Note_on_c, 0, 53, 58
3, 253603, Note_on_c, 0, 53, 0
3, 253620, Note_on_c, 0, 56, 72
3, 253747, Note_on_c, 0, 58, 0
3, 253783, Note_on_c, 0, 56, 0
3, 253800, Note_on_c, 0, 58, 74
3, 253800, Note_on_c, 0, 58, 67
3, 253963, Note_on_c, 0, 58, 0
3, 253980, Note_on_c, 0, 53, 55
3, 254125, Note_on_c, 0, 44, 0
3, 254125, Note_on_c, 0, 37, 0
3, 254143, Note_on_c, 0, 53, 0
3, 254160, Note_on_c, 0, 56, 72
3, 254287, Note_on_c, 0, 58, 0
3, 254323, Note_on_c, 0, 56, 0
3, 254340, Note_on_c, 0, 60, 78
3, 254340, Note_on_c, 0, 60, 70
3, 254340, Note_on_c, 0, 32, 56
3, 254340, Note_on_c, 0, 44, 56
3, 254503, Note_on_c, 0, 60, 0
3, 254520, Note_on_c, 0, 54, 55
3, 254683, Note_on_c, 0, 54, 0
3, 254700, Note_on_c, 0, 56, 69
3, 254827, Note_on_c, 0, 44, 0
3, 254827, Note_on_c, 0, 60, 0
3, 254827, Note_on_c, 0, 32, 0
3, 254863, Note_on_c, 0, 56, 0
3, 254880, Note_on_c, 0, 61, 79
3, 254880, Note_on_c, 0, 61, 71
3, 254880, Note_on_c, 0, 37, 77
3, 254880, Note_on_c, 0, 49, 78
3, 255043, Note_on_c, 0, 61, 0
3, 255060, Note_on_c, 0, 56, 56
3, 255205, Note_on_c, 0, 49, 0
3, 255205, Note_on_c, 0, 37, 0
3, 255223, Note_on_c, 0, 56, 0
3, 255240, Note_on_c, 0, 53, 57
3, 255367, Note_on_c, 0, 61, 0
3, 255403, Note_on_c, 0, 53, 0
3, 255420, Note_on_c, 0, 63, 85
3, 255420, Note_on_c, 0, 63, 70
3, 255420, Note_on_c, 0, 34, 59
3, 255420, Note_on_c, 0, 46, 56
3, 255583, Note_on_c, 0, 63, 0
3, 255600, Note_on_c, 0, 61, 64
3, 255745, Note_on_c, 0, 46, 0
3, 255745, Note_on_c, 0, 34, 0
3, 255763, Note_on_c, 0, 61, 0
3, 255780, Note_on_c, 0, 54, 50
3, 255907, Note_on_c, 0, 63, 0
3, 255943, Note_on_c, 0, 54, 0
3, 255960, Note_on_c, 0, 64, 83
3, 255960, Note_on_c, 0, 64, 74
3, 255960, Note_on_c, 0, 33, 62
3, 255960, Note_on_c, 0, 45, 61
3, 256123, Note_on_c, 0, 64, 0
3, 256140, Note_on_c, 0, 61, 61
3, 256285, Note_on_c, 0, 45, 0
3, 256285, Note_on_c, 0, 33, 0
3, 256303, Note_on_c, 0, 61, 0
3, 256320, Note_on_c, 0, 55, 52
3, 256447, Note_on_c, 0, 64, 0
3, 256483, Note_on_c, 0, 55, 0
3, 256500, Note_on_c, 0, 65, 86
3, 256500, Note_on_c, 0, 65, 70
3, 256500, Note_on_c, 0, 32, 56
3, 256500, Note_on_c, 0, 44, 59
3, 256663, Note_on_c, 0, 65, 0
3, 256680, Note_on_c, 0, 60, 58
3, 256825, Note_on_c, 0, 44, 0
3, 256825, Note_on_c, 0, 32, 0
3, 256843, Note_on_c, 0, 60, 0
3, 256860, Note_on_c, 0, 54, 52
3, 256987, Note_on_c, 0, 65, 0
3, 257023, Note_on_c, 0, 54, 0
3, 257040, Note_on_c, 0, 53, 78
3, 257040, Note_on_c, 0, 61, 80
3, 257040, Note_on_c, 0, 37, 63
3, 257040, Note_on_c, 0, 44, 62
3, 257203, Note_on_c, 0, 61, 0
3, 257203, Note_on_c, 0, 53, 0
3, 257365, Note_on_c, 0, 37, 0
3, 257365, Note_on_c, 0, 44, 0
3, 257580, Note_on_c, 0, 58, 61
3, 257580, Note_on_c, 0, 58, 60
3, 257743, Note_on_c, 0, 58, 0
3, 257760, Note_on_c, 0, 53, 54
3, 257923, Note_on_c, 0, 53, 0
3, 257940, Note_on_c, 0, 56, 69
3, 258067, Note_on_c, 0, 58, 0
3, 258103, Note_on_c, 0, 56, 0
3, 258120, Note_on_c, 0, 58, 75
3, 258120, Note_on_c, 0, 58, 69
3, 258120, Note_on_c, 0, 37, 62
3, 258120, Note_on_c, 0, 44, 60
3, 258283, Note_on_c, 0, 58, 0
3, 258300, Note_on_c, 0, 53, 58
3, 258463, Note_on_c, 0, 53, 0
3, 258480, Note_on_c, 0, 56, 71
3, 258607, Note_on_c, 0, 44, 0
3, 258607, Note_on_c, 0, 58, 0
3, 258607, Note_on_c, 0, 37, 0
3, 258643, Note_on_c, 0, 56, 0
3, 258660, Note_on_c, 0, 60, 76
3, 258660, Note_on_c, 0, 60, 69
3, 258660, Note_on_c, 0, 32, 63
3, 258660, Note_on_c, 0, 44, 63
3, 258823, Note_on_c, 0, 60, 0
3, 258840, Note_on_c, 0, 54, 55
3, 259003, Note_on_c, 0, 54, 0
3, 259020, Note_on_c, 0, 56, 68
3, 259147, Note_on_c, 0, 44, 0
3, 259147, Note_on_c, 0, 60, 0
3, 259147, Note_on_c, 0, 32, 0
3, 259183, Note_on_c, 0, 56, 0
3, 259200, Note_on_c, 0, 61, 107
3, 259200, Note_on_c, 0, 61, 99
3, 259200, Note_on_c, 0, 37, 93
3, 259200, Note_on_c, 0, 44, 92
3, 259363, Note_on_c, 0, 61, 0
3, 259380, Note_on_c, 0, 56, 56
3, 259543, Note_on_c, 0, 56, 0
3, 259560, Note_on_c, 0, 53, 59
3, 259687, Note_on_c, 0, 61, 0
3, 259723, Note_on_c, 0, 53, 0
3, 259740, Note_on_c, 0, 58, 75
3, 259740, Note_on_c, 0, 58, 60
3, 259903, Note_on_c, 0, 58, 0
3, 259920, Note_on_c, 0, 53, 56
3, 260083, Note_on_c, 0, 53, 0
3, 260100, Note_on_c, 0, 56, 73
3, 260210, Note_on_c, 0, 44, 0
3, 260210, Note_on_c, 0, 37, 0
3, 260227, Note_on_c, 0, 58, 0
3, 260263, Note_on_c, 0, 56, 0
3, 260280, Note_on_c, 0, 58, 75
3, 260280, Note_on_c, 0, 58, 67
3, 260280, Note_on_c, 0, 37, 68
3, 260280, Note_on_c, 0, 44, 69
3, 260443, Note_on_c, 0, 58, 0
3, 260460, Note_on_c, 0, 53, 58
3, 260623, Note_on_c, 0, 53, 0
3, 260640, Note_on_c, 0, 56, 68
3, 260767, Note_on_c, 0, 44, 0
3, 260767, Note_on_c, 0, 58, 0
3, 260767, Note_on_c, 0, 37, 0
3, 260803, Note_on_c, 0, 56, 0
3, 260820, Note_on_c, 0, 60, 78
3, 260820, Note_on_c, 0, 60, 69
3, 260820, Note_on_c, 0, 32, 66
3, 260820, Note_on_c, 0, 44, 64
3, 260983, Note_on_c, 0, 60, 0
3, 261000, Note_on_c, 0, 54, 55
3, 261163, Note_on_c, 0, 54, 0
3, 261180, Note_on_c, 0, 56, 69
3, 261307, Note_on_c, 0, 44, 0
3, 261307, Note_on_c, 0, 60, 0
3, 261307, Note_on_c, 0, 32, 0
3, 261343, Note_on_c, 0, 56, 0
3, 261360, Note_on_c, 0, 61, 106
3, 261360, Note_on_c, 0, 61, 99
3, 261360, Note_on_c, 0, 37, 95
3, 261360, Note_on_c, 0, 44, 93
3, 261523, Note_on_c, 0, 61, 0
3, 261540, Note_on_c, 0, 56, 57
3, 261703, Note_on_c, 0, 56, 0
3, 261720, Note_on_c, 0, 53, 59
3, 261847, Note_on_c, 0, 61, 0
3, 261883, Note_on_c, 0, 53, 0
3, 261900, Note_on_c, 0, 58, 75
3, 261900, Note_on_c, 0, 58, 59
3, 262063, Note_on_c, 0, 58, 0
3, 262080, Note_on_c, 0, 53, 57
3, 262243, Note_on_c, 0, 53, 0
3, 262260, Note_on_c, 0, 56, 73
3, 262370, Note_on_c, 0, 44, 0
3, 262370, Note_on_c, 0, 37, 0
3, 262387, Note_on_c, 0, 58, 0
3, 262423, Note_on_c, 0, 56, 0
3, 262440, Note_on_c, 0, 58, 76
3, 262440, Note_on_c, 0, 58, 69
3, 262440, Note_on_c, 0, 37, 67
3, 262440, Note_on_c, 0, 44, 69
3, 262603, Note_on_c, 0, 58, 0
3, 262620, Note_on_c, 0, 53, 54
3, 262783, Note_on_c, 0, 53, 0
3, 262800, Note_on_c, 0, 56, 68
3, 262927, Note_on_c, 0, 44, 0
3, 262927, Note_on_c, 0, 58, 0
3, 262927, Note_on_c, 0, 37, 0
3, 262963, Note_on_c, 0, 56, 0
3, 262980, Note_on_c, 0, 60, 76
3, 262980, Note_on_c, 0, 60, 71
3, 262980, Note_on_c, 0, 32, 65
3, 262980, Note_on_c, 0, 44, 66
3, 263143, Note_on_c, 0, 60, 0
3, 263160, Note_on_c, 0, 54, 56
3, 263323, Note_on_c, 0, 54, 0
3, 263340, Note_on_c, 0, 56, 67
3, 263467, Note_on_c, 0, 44, 0
3, 263467, Note_on_c, 0, 60, 0
3, 263467, Note_on_c, 0, 32, 0
3, 263503, Note_on_c, 0, 56, 0
3, 263520, Note_on_c, 0, 61, 80
3, 263520, Note_on_c, 0, 61, 72
3, 263520, Note_on_c, 0, 37, 78
3, 263520, Note_on_c, 0, 49, 77
3, 263683, Note_on_c, 0, 61, 0
3, 263700, Note_on_c, 0, 56, 58
3, 263845, Note_on_c, 0, 49, 0
3, 263845, Note_on_c, 0, 37, 0
3, 263863, Note_on_c, 0, 56, 0
3, 263880, Note_on_c, 0, 53, 59
3, 264007, Note_on_c, 0, 61, 0
3, 264043, Note_on_c, 0, 53, 0
3, 264060, Note_on_c, 0, 61, 83
3, 264060, Note_on_c, 0, 61, 64
3, 264060, Note_on_c, 0, 36, 59
3, 264060, Note_on_c, 0, 48, 59
3, 264223, Note_on_c, 0, 61, 0
3, 264240, Note_on_c, 0, 56, 58
3, 264385, Note_on_c, 0, 48, 0
3, 264385, Note_on_c, 0, 36, 0
3, 264403, Note_on_c, 0, 56, 0
3, 264420, Note_on_c, 0, 53, 58
3, 264547, Note_on_c, 0, 61, 0
3, 264583, Note_on_c, 0, 53, 0
3, 264600, Note_on_c, 0, 61, 80
3, 264600, Note_on_c, 0, 61, 68
3, 264600, Note_on_c, 0, 34, 62
3, 264600, Note_on_c, 0, 46, 61
3, 264763, Note_on_c, 0, 61, 0
3, 264780, Note_on_c, 0, 58, 59
3, 264925, Note_on_c, 0, 46, 0
3, 264925, Note_on_c, 0, 34, 0
3, 264943, Note_on_c, 0, 58, 0
3, 264960, Note_on_c, 0, 53, 55
3, 265087, Note_on_c, 0, 61, 0
3, 265123, Note_on_c, 0, 53, 0
3, 265140, Note_on_c, 0, 63, 86
3, 265140, Note_on_c, 0, 63, 72
3, 265140, Note_on_c, 0, 39, 58
3, 265140, Note_on_c, 0, 51, 56
3, 265303, Note_on_c, 0, 63, 0
3, 265320, Note_on_c, 0, 61, 63
3, 265465, Note_on_c, 0, 51, 0
3, 265465, Note_on_c, 0, 39, 0
3, 265483, Note_on_c, 0, 61, 0
3, 265500, Note_on_c, 0, 55, 54
3, 265627, Note_on_c, 0, 63, 0
3, 265663, Note_on_c, 0, 55, 0
3, 265680, Note_on_c, 0, 65, 84
3, 265680, Note_on_c, 0, 65, 75
3, 265680, Note_on_c, 0, 32, 60
3, 265680, Note_on_c, 0, 44, 60
3, 265843, Note_on_c, 0, 65, 0
3, 265860, Note_on_c, 0, 60, 57
3, 266005, Note_on_c, 0, 44, 0
3, 266005, Note_on_c, 0, 32, 0
3, 266023, Note_on_c, 0, 60, 0
3, 266040, Note_on_c, 0, 56, 57
3, 266167, Note_on_c, 0, 65, 0
3, 266203, Note_on_c, 0, 56, 0
3, 266220, Note_on_c, 0, 65, 82
3, 266220, Note_on_c, 0, 53, 65
3, 266220, Note_on_c, 0, 65, 68
3, 266220, Note_on_c, 0, 39, 80
3, 266220, Note_on_c, 0, 51, 78
3, 266383, Note_on_c, 0, 65, 0
3, 266400, Note_on_c, 0, 63, 65
3, 266563, Note_on_c, 0, 63, 0
3, 266580, Note_on_c, 0, 60, 60
3, 266707, Note_on_c, 0, 53, 0
3, 266707, Note_on_c, 0, 65, 0
3, 266743, Note_on_c, 0, 60, 0
3, 266760, Note_on_c, 0, 65, 77
3, 266760, Note_on_c, 0, 53, 68
3, 266760, Note_on_c, 0, 65, 70
3, 266923, Note_on_c, 0, 65, 0
3, 266940, Note_on_c, 0, 63, 62
3, 267103, Note_on_c, 0, 63, 0
3, 267120, Note_on_c, 0, 60, 57
3, 267247, Note_on_c, 0, 65, 0
3, 267247, Note_on_c, 0, 53, 0
3, 267247, Note_on_c, 0, 39, 0
3, 267247, Note_on_c, 0, 51, 0
3, 267283, Note_on_c, 0, 60, 0
3, 267300, Note_on_c, 0, 67, 83
3, 267300, Note_on_c, 0, 55, 69
3, 267300, Note_on_c, 0, 67, 70
3, 267300, Note_on_c, 0, 27, 44
3, 267300, Note_on_c, 0, 39, 45
3, 267463, Note_on_c, 0, 67, 0
3, 267480, Note_on_c, 0, 63, 61
3, 267625, Note_on_c, 0, 27, 0
3, 267625, Note_on_c, 0, 39, 0
3, 267643, Note_on_c, 0, 63, 0
3, 267660, Note_on_c, 0, 61, 60
3, 267787, Note_on_c, 0, 67, 0
3, 267787, Note_on_c, 0, 55, 0
3, 267823, Note_on_c, 0, 61, 0
3, 267840, Note_on_c, 0, 68, 81
3, 267840, Note_on_c, 0, 56, 71
3, 267840, Note_on_c, 0, 68, 74
3, 267840, Note_on_c, 0, 32, 62
3, 267840, Note_on_c, 0, 44, 59
3, 268003, Note_on_c, 0, 68, 0
3, 268020, Note_on_c, 0, 60, 53
3, 268165, Note_on_c, 0, 32, 0
3, 268165, Note_on_c, 0, 44, 0
3, 268183, Note_on_c, 0, 60, 0
3, 268200, Note_on_c, 0, 63, 71
3, 268327, Note_on_c, 0, 68, 0
3, 268327, Note_on_c, 0, 56, 0
3, 268363, Note_on_c, 0, 63, 0
3, 268380, Note_on_c, 0, 65, 75
3, 268380, Note_on_c, 0, 53, 61
3, 268380, Note_on_c, 0, 65, 62
3, 268380, Note_on_c, 0, 39, 82
3, 268380, Note_on_c, 0, 51, 80
3, 268543, Note_on_c, 0, 65, 0
3, 268560, Note_on_c, 0, 63, 60
3, 268723, Note_on_c, 0, 63, 0
3, 268740, Note_on_c, 0, 60, 58
3, 268867, Note_on_c, 0, 53, 0
3, 268867, Note_on_c, 0, 65, 0
3, 268903, Note_on_c, 0, 60, 0
3, 268920, Note_on_c, 0, 65, 76
3, 268920, Note_on_c, 0, 53, 69
3, 268920, Note_on_c, 0, 65, 66
3, 269083, Note_on_c, 0, 65, 0
3, 269100, Note_on_c, 0, 63, 62
3, 269263, Note_on_c, 0, 63, 0
3, 269280, Note_on_c, 0, 60, 57
3, 269407, Note_on_c, 0, 65, 0
3, 269407, Note_on_c, 0, 53, 0
3, 269407, Note_on_c, 0, 39, 0
3, 269407, Note_on_c, 0, 51, 0
3, 269443, Note_on_c, 0, 60, 0
3, 269460, Note_on_c, 0, 67, 83
3, 269460, Note_on_c, 0, 55, 70
3, 269460, Note_on_c, 0, 67, 69
3, 269460, Note_on_c, 0, 27, 44
3, 269460, Note_on_c, 0, 39, 43
3, 269623, Note_on_c, 0, 67, 0
3, 269640, Note_on_c, 0, 63, 58
3, 269785, Note_on_c, 0, 27, 0
3, 269785, Note_on_c, 0, 39, 0
3, 269803, Note_on_c, 0, 63, 0
3, 269820, Note_on_c, 0, 61, 58
3, 269947, Note_on_c, 0, 67, 0
3, 269947, Note_on_c, 0, 55, 0
3, 269983, Note_on_c, 0, 61, 0
3, 270000, Note_on_c, 0, 68, 81
3, 270000, Note_on_c, 0, 56, 74
3, 270000, Note_on_c, 0, 68, 74
3, 270000, Note_on_c, 0, 32, 60
3, 270000, Note_on_c, 0, 44, 61
3, 270163, Note_on_c, 0, 68, 0
3, 270180, Note_on_c, 0, 60, 53
3, 270325, Note_on_c, 0, 32, 0
3, 270325, Note_on_c, 0, 44, 0
3, 270343, Note_on_c, 0, 60, 0
3, 270360, Note_on_c, 0, 63, 70
3, 270487, Note_on_c, 0, 68, 0
3, 270487, Note_on_c, 0, 56, 0
3, 270523, Note_on_c, 0, 63, 0
3, 270540, Note_on_c, 0, 65, 76
3, 270540, Note_on_c, 0, 53, 61
3, 270540, Note_on_c, 0, 65, 62
3, 270540, Note_on_c, 0, 39, 79
3, 270540, Note_on_c, 0, 51, 80
3, 270703, Note_on_c, 0, 65, 0
3, 270720, Note_on_c, 0, 63, 60
3, 270883, Note_on_c, 0, 63, 0
3, 270900, Note_on_c, 0, 60, 59
3, 271027, Note_on_c, 0, 53, 0
3, 271027, Note_on_c, 0, 65, 0
3, 271063, Note_on_c, 0, 60, 0
3, 271080, Note_on_c, 0, 65, 76
3, 271080, Note_on_c, 0, 53, 69
3, 271080, Note_on_c, 0, 65, 69
3, 271243, Note_on_c, 0, 65, 0
3, 271260, Note_on_c, 0, 63, 61
3, 271423, Note_on_c, 0, 63, 0
3, 271440, Note_on_c, 0, 60, 57
3, 271567, Note_on_c, 0, 65, 0
3, 271567, Note_on_c, 0, 53, 0
3, 271567, Note_on_c, 0, 39, 0
3, 271567, Note_on_c, 0, 51, 0
3, 271603, Note_on_c, 0, 60, 0
3, 271620, Note_on_c, 0, 67, 80
3, 271620, Note_on_c, 0, 55, 70
3, 271620, Note_on_c, 0, 67, 71
3, 271620, Note_on_c, 0, 39, 43
3, 271783, Note_on_c, 0, 67, 0
3, 271800, Note_on_c, 0, 63, 59
3, 271945, Note_on_c, 0, 39, 0
3, 271963, Note_on_c, 0, 63, 0
3, 271980, Note_on_c, 0, 61, 59
3, 272107, Note_on_c, 0, 67, 0
3, 272107, Note_on_c, 0, 55, 0
3, 272143, Note_on_c, 0, 61, 0
3, 272160, Note_on_c, 0, 68, 82
3, 272160, Note_on_c, 0, 56, 74
3, 272160, Note_on_c, 0, 68, 73
3, 272160, Note_on_c, 0, 44, 60
3, 272323, Note_on_c, 0, 68, 0
3, 272340, Note_on_c, 0, 63, 56
3, 272485, Note_on_c, 0, 44, 0
3, 272503, Note_on_c, 0, 63, 0
3, 272520, Note_on_c, 0, 60, 60
3, 272647, Note_on_c, 0, 68, 0
3, 272647, Note_on_c, 0, 56, 0
3, 272683, Note_on_c, 0, 60, 0
3, 272700, Note_on_c, 0, 70, 85
3, 272700, Note_on_c, 0, 58, 70
3, 272700, Note_on_c, 0, 70, 71
3, 272700, Note_on_c, 0, 41, 56
3, 272700, Note_on_c, 0, 53, 60
3, 272863, Note_on_c, 0, 70, 0
3, 272880, Note_on_c, 0, 68, 62
3, 273025, Note_on_c, 0, 41, 0
3, 273025, Note_on_c, 0, 53, 0
3, 273043, Note_on_c, 0, 68, 0
3, 273060, Note_on_c, 0, 61, 53
3, 273187, Note_on_c, 0, 70, 0
3, 273187, Note_on_c, 0, 58, 0
3, 273223, Note_on_c, 0, 61, 0
3, 273240, Note_on_c, 0, 70, 83
3, 273240, Note_on_c, 0, 59, 75
3, 273240, Note_on_c, 0, 71, 73
3, 273240, Note_on_c, 0, 40, 61
3, 273240, Note_on_c, 0, 52, 62
3, 273403, Note_on_c, 0, 70, 0
3, 273420, Note_on_c, 0, 68, 65
3, 273565, Note_on_c, 0, 40, 0
3, 273565, Note_on_c, 0, 52, 0
3, 273583, Note_on_c, 0, 68, 0
3, 273600, Note_on_c, 0, 62, 53
3, 273727, Note_on_c, 0, 71, 0
3, 273727, Note_on_c, 0, 59, 0
3, 273763, Note_on_c, 0, 62, 0
3, 273780, Note_on_c, 0, 72, 84
3, 273780, Note_on_c, 0, 60, 70
3, 273780, Note_on_c, 0, 72, 72
3, 273780, Note_on_c, 0, 39, 57
3, 273780, Note_on_c, 0, 51, 60
3, 273943, Note_on_c, 0, 72, 0
3, 273960, Note_on_c, 0, 67, 60
3, 274105, Note_on_c, 0, 39, 0
3, 274105, Note_on_c, 0, 51, 0
3, 274123, Note_on_c, 0, 67, 0
3, 274140, Note_on_c, 0, 61, 53
3, 274267, Note_on_c, 0, 72, 0
3, 274267, Note_on_c, 0, 60, 0
3, 274303, Note_on_c, 0, 61, 0
3, 274320, Note_on_c, 0, 60, 82
3, 274320, Note_on_c, 0, 68, 82
3, 274320, Note_on_c, 0, 32, 62
3, 274320, Note_on_c, 0, 44, 59
3, 274483, Note_on_c, 0, 44, 0
3, 274483, Note_on_c, 0, 60, 0
3, 274483, Note_on_c, 0, 68, 0
3, 274483, Note_on_c, 0, 32, 0
3, 274860, Note_on_c, 0, 65, 63
3, 274860, Note_on_c, 0, 53, 53
3, 274860, Note_on_c, 0, 65, 54
3, 274860, Note_on_c, 0, 27, 57
3, 274860, Note_on_c, 0, 39, 59
3, 275023, Note_on_c, 0, 65, 0
3, 275040, Note_on_c, 0, 63, 61
3, 275185, Note_on_c, 0, 27, 0
3, 275185, Note_on_c, 0, 39, 0
3, 275203, Note_on_c, 0, 63, 0
3, 275220, Note_on_c, 0, 60, 59
3, 275347, Note_on_c, 0, 65, 0
3, 275347, Note_on_c, 0, 53, 0
3, 275383, Note_on_c, 0, 60, 0
3, 275400, Note_on_c, 0, 65, 75
3, 275400, Note_on_c, 0, 53, 64
3, 275400, Note_on_c, 0, 65, 65
3, 275400, Note_on_c, 0, 39, 61
3, 275400, Note_on_c, 0, 51, 61
3, 275563, Note_on_c, 0, 65, 0
3, 275580, Note_on_c, 0, 63, 64
3, 275725, Note_on_c, 0, 39, 0
3, 275725, Note_on_c, 0, 51, 0
3, 275743, Note_on_c, 0, 63, 0
3, 275760, Note_on_c, 0, 60, 57
3, 275887, Note_on_c, 0, 65, 0
3, 275887, Note_on_c, 0, 53, 0
3, 275923, Note_on_c, 0, 60, 0
3, 275940, Note_on_c, 0, 67, 80
3, 275940, Note_on_c, 0, 55, 70
3, 275940, Note_on_c, 0, 67, 71
3, 275940, Note_on_c, 0, 39, 59
3, 276103, Note_on_c, 0, 67, 0
3, 276120, Note_on_c, 0, 63, 57
3, 276265, Note_on_c, 0, 39, 0
3, 276283, Note_on_c, 0, 63, 0
3, 276300, Note_on_c, 0, 61, 60
3, 276427, Note_on_c, 0, 67, 0
3, 276427, Note_on_c, 0, 55, 0
3, 276463, Note_on_c, 0, 61, 0
3, 276480, Note_on_c, 0, 68, 82
3, 276480, Note_on_c, 0, 56, 72
3, 276480, Note_on_c, 0, 68, 71
3, 276480, Note_on_c, 0, 32, 60
3, 276480, Note_on_c, 0, 44, 62
3, 276643, Note_on_c, 0, 68, 0
3, 276660, Note_on_c, 0, 60, 55
3, 276823, Note_on_c, 0, 60, 0
3, 276840, Note_on_c, 0, 63, 69
3, 276967, Note_on_c, 0, 56, 0
3, 276967, Note_on_c, 0, 68, 0
3, 277003, Note_on_c, 0, 63, 0
3, 277020, Note_on_c, 0, 65, 76
3, 277020, Note_on_c, 0, 53, 62
3, 277020, Note_on_c, 0, 65, 60
3, 277183, Note_on_c, 0, 65, 0
3, 277200, Note_on_c, 0, 63, 60
3, 277363, Note_on_c, 0, 63, 0
3, 277380, Note_on_c, 0, 60, 57
3, 277490, Note_on_c, 0, 32, 0
3, 277490, Note_on_c, 0, 44, 0
3, 277507, Note_on_c, 0, 53, 0
3, 277507, Note_on_c, 0, 65, 0
3, 277543, Note_on_c, 0, 60, 0
3, 277560, Note_on_c, 0, 65, 75
3, 277560, Note_on_c, 0, 53, 69
3, 277560, Note_on_c, 0, 65, 69
3, 277560, Note_on_c, 0, 39, 80
3, 277560, Note_on_c, 0, 51, 82
3, 277723, Note_on_c, 0, 65, 0
3, 277740, Note_on_c, 0, 63, 62
3, 277885, Note_on_c, 0, 39, 0
3, 277885, Note_on_c, 0, 51, 0
3, 277903, Note_on_c, 0, 63, 0
3, 277920, Note_on_c, 0, 60, 57
3, 278047, Note_on_c, 0, 65, 0
3, 278047, Note_on_c, 0, 53, 0
3, 278083, Note_on_c, 0, 60, 0
3, 278100, Note_on_c, 0, 67, 82
3, 278100, Note_on_c, 0, 55, 72
3, 278100, Note_on_c, 0, 67, 71
3, 278100, Note_on_c, 0, 27, 60
3, 278100, Note_on_c, 0, 39, 58
3, 278263, Note_on_c, 0, 67, 0
3, 278280, Note_on_c, 0, 63, 57
3, 278425, Note_on_c, 0, 27, 0
3, 278425, Note_on_c, 0, 39, 0
3, 278443, Note_on_c, 0, 63, 0
3, 278460, Note_on_c, 0, 61, 60
3, 278587, Note_on_c, 0, 67, 0
3, 278587, Note_on_c, 0, 55, 0
3, 278623, Note_on_c, 0, 61, 0
3, 278640, Note_on_c, 0, 68, 81
3, 278640, Note_on_c, 0, 56, 73
3, 278640, Note_on_c, 0, 68, 75
3, 278640, Note_on_c, 0, 32, 62
3, 278640, Note_on_c, 0, 44, 61
3, 278803, Note_on_c, 0, 68, 0
3, 278820, Note_on_c, 0, 60, 51
3, 278983, Note_on_c, 0, 60, 0
3, 279000, Note_on_c, 0, 63, 69
3, 279127, Note_on_c, 0, 56, 0
3, 279127, Note_on_c, 0, 68, 0
3, 279163, Note_on_c, 0, 63, 0
3, 279180, Note_on_c, 0, 65, 76
3, 279180, Note_on_c, 0, 53, 59
3, 279180, Note_on_c, 0, 65, 59
3, 279343, Note_on_c, 0, 65, 0
3, 279360, Note_on_c, 0, 63, 62
3, 279523, Note_on_c, 0, 63, 0
3, 279540, Note_on_c, 0, 60, 58
3, 279650, Note_on_c, 0, 32, 0
3, 279650, Note_on_c, 0, 44, 0
3, 279667, Note_on_c, 0, 53, 0
3, 279667, Note_on_c, 0, 65, 0
3, 279703, Note_on_c, 0, 60, 0
3, 279720, Note_on_c, 0, 65, 76
3, 279720, Note_on_c, 0, 53, 67
3, 279720, Note_on_c, 0, 65, 68
3, 279720, Note_on_c, 0, 39, 81
3, 279720, Note_on_c, 0, 51, 81
3, 279883, Note_on_c, 0, 65, 0
3, 279900, Note_on_c, 0, 63, 62
3, 280045, Note_on_c, 0, 39, 0
3, 280045, Note_on_c, 0, 51, 0
3, 280063, Note_on_c, 0, 63, 0
3, 280080, Note_on_c, 0, 60, 56
3, 280207, Note_on_c, 0, 65, 0
3, 280207, Note_on_c, 0, 53, 0
3, 280243, Note_on_c, 0, 60, 0
3, 280260, Note_on_c, 0, 67, 81
3, 280260, Note_on_c, 0, 55, 69
3, 280260, Note_on_c, 0, 67, 69
3, 280260, Note_on_c, 0, 27, 57
3, 280260, Note_on_c, 0, 39, 58
3, 280423, Note_on_c, 0, 67, 0
3, 280440, Note_on_c, 0, 63, 59
3, 280585, Note_on_c, 0, 27, 0
3, 280585, Note_on_c, 0, 39, 0
3, 280603, Note_on_c, 0, 63, 0
3, 280620, Note_on_c, 0, 61, 60
3, 280747, Note_on_c, 0, 67, 0
3, 280747, Note_on_c, 0, 55, 0
3, 280783, Note_on_c, 0, 61, 0
3, 280800, Note_on_c, 0, 68, 81
3, 280800, Note_on_c, 0, 56, 73
3, 280800, Note_on_c, 0, 68, 74
3, 280800, Note_on_c, 0, 32, 63
3, 280800, Note_on_c, 0, 44, 63
3, 280963, Note_on_c, 0, 68, 0
3, 280980, Note_on_c, 0, 63, 59
3, 281143, Note_on_c, 0, 63, 0
3, 281160, Note_on_c, 0, 60, 56
3, 281287, Note_on_c, 0, 56, 0
3, 281287, Note_on_c, 0, 68, 0
3, 281323, Note_on_c, 0, 60, 0
3, 281340, Note_on_c, 0, 55, 80
3, 281340, Note_on_c, 0, 63, 83
3, 281340, Note_on_c, 0, 67, 82
3, 281517, Note_on_c, 0, 67, 0
3, 281517, Note_on_c, 0, 55, 0
3, 281517, Note_on_c, 0, 63, 0
3, 281880, Note_on_c, 0, 54, 61
3, 281880, Note_on_c, 0, 60, 63
3, 281880, Note_on_c, 0, 63, 61
3, 281880, Note_on_c, 0, 66, 59
3, 282205, Note_on_c, 0, 66, 0
3, 282205, Note_on_c, 0, 60, 0
3, 282205, Note_on_c, 0, 54, 0
3, 282205, Note_on_c, 0, 63, 0
3, 282420, Note_on_c, 0, 53, 60
3, 282420, Note_on_c, 0, 60, 58
3, 282420, Note_on_c, 0, 63, 56
3, 282420, Note_on_c, 0, 65, 57
3, 282597, Note_on_c, 0, 65, 0
3, 282597, Note_on_c, 0, 60, 0
3, 282597, Note_on_c, 0, 53, 0
3, 282597, Note_on_c, 0, 63, 0
3, 282890, Note_on_c, 0, 44, 0
3, 282890, Note_on_c, 0, 32, 0
3, 282960, Note_on_c, 0, 52, 60
3, 282960, Note_on_c, 0, 56, 63
3, 282960, Note_on_c, 0, 60, 62
3, 282960, Note_on_c, 0, 64, 62
3, 282960, Note_on_c, 0, 32, 49
3, 283285, Note_on_c, 0, 64, 0
3, 283285, Note_on_c, 0, 60, 0
3, 283285, Note_on_c, 0, 52, 0
3, 283285, Note_on_c, 0, 56, 0
3, 283320, Note_on_c, 0, 55, 49
3, 283447, Note_on_c, 0, 32, 0
3, 283483, Note_on_c, 0, 55, 0
3, 283500, Note_on_c, 0, 56, 71
3, 283500, Note_on_c, 0, 44, 82
3, 283663, Note_on_c, 0, 56, 0
3, 283860, Note_on_c, 0, 58, 58
3, 283987, Note_on_c, 0, 44, 0
3, 284023, Note_on_c, 0, 58, 0
3, 284040, Note_on_c, 0, 60, 73
3, 284040, Note_on_c, 0, 52, 84
3, 284203, Note_on_c, 0, 60, 0
3, 284400, Note_on_c, 0, 58, 57
3, 284527, Note_on_c, 0, 52, 0
3, 284563, Note_on_c, 0, 58, 0
3, 284580, Note_on_c, 0, 60, 70
3, 284580, Note_on_c, 0, 44, 52
3, 284743, Note_on_c, 0, 60, 0
3, 284940, Note_on_c, 0, 61, 59
3, 285067, Note_on_c, 0, 44, 0
3, 285103, Note_on_c, 0, 61, 0
3, 285120, Note_on_c, 0, 60, 64
3, 285120, Note_on_c, 0, 32, 47
3, 285283, Note_on_c, 0, 60, 0
3, 285480, Note_on_c, 0, 61, 58
3, 285607, Note_on_c, 0, 32, 0
3, 285643, Note_on_c, 0, 61, 0
3, 285660, Note_on_c, 0, 63, 72
3, 285660, Note_on_c, 0, 51, 85
3, 285823, Note_on_c, 0, 63, 0
3, 286020, Note_on_c, 0, 64, 58
3, 286147, Note_on_c, 0, 51, 0
3, 286183, Note_on_c, 0, 64, 0
3, 286200, Note_on_c, 0, 63, 63
3, 286200, Note_on_c, 0, 56, 89
3, 286200, Note_on_c, 0, 60, 89
3, 286363, Note_on_c, 0, 63, 0
3, 286560, Note_on_c, 0, 67, 58
3, 286687, Note_on_c, 0, 60, 0
3, 286687, Note_on_c, 0, 56, 0
3, 286723, Note_on_c, 0, 67, 0
3, 286740, Note_on_c, 0, 68, 69
3, 286740, Note_on_c, 0, 51, 53
3, 286903, Note_on_c, 0, 68, 0
3, 287100, Note_on_c, 0, 70, 57
3, 287227, Note_on_c, 0, 51, 0
3, 287263, Note_on_c, 0, 70, 0
3, 287280, Note_on_c, 0, 72, 73
3, 287280, Note_on_c, 0, 32, 48
3, 287443, Note_on_c, 0, 72, 0
3, 287640, Note_on_c, 0, 70, 59
3, 287767, Note_on_c, 0, 32, 0
3, 287803, Note_on_c, 0, 70, 0
3, 287820, Note_on_c, 0, 68, 62
3, 287820, Note_on_c, 0, 52, 84
3, 287983, Note_on_c, 0, 68, 0
3, 288180, Note_on_c, 0, 67, 59
3, 288307, Note_on_c, 0, 52, 0
3, 288343, Note_on_c, 0, 67, 0
3, 288360, Note_on_c, 0, 68, 73
3, 288360, Note_on_c, 0, 56, 87
3, 288360, Note_on_c, 0, 60, 87
3, 288523, Note_on_c, 0, 68, 0
3, 288720, Note_on_c, 0, 67, 57
3, 288847, Note_on_c, 0, 60, 0
3, 288847, Note_on_c, 0, 56, 0
3, 288883, Note_on_c, 0, 67, 0
3, 288900, Note_on_c, 0, 64, 60
3, 288900, Note_on_c, 0, 52, 52
3, 289063, Note_on_c, 0, 64, 0
3, 289260, Note_on_c, 0, 61, 59
3, 289387, Note_on_c, 0, 52, 0
3, 289423, Note_on_c, 0, 61, 0
3, 289440, Note_on_c, 0, 60, 63
3, 289440, Note_on_c, 0, 32, 47
3, 289603, Note_on_c, 0, 60, 0
3, 289800, Note_on_c, 0, 56, 56
3, 289927, Note_on_c, 0, 32, 0
3, 289963, Note_on_c, 0, 56, 0
3, 289980, Note_on_c, 0, 58, 71
3, 289980, Note_on_c, 0, 51, 81
3, 290143, Note_on_c, 0, 58, 0
3, 290340, Note_on_c, 0, 61, 56
3, 290467, Note_on_c, 0, 51, 0
3, 290503, Note_on_c, 0, 61, 0
3, 290520, Note_on_c, 0, 60, 64
3, 290520, Note_on_c, 0, 56, 82
3, 290683, Note_on_c, 0, 60, 0
3, 290880, Note_on_c, 0, 60, 57
3, 291007, Note_on_c, 0, 56, 0
3, 291043, Note_on_c, 0, 60, 0
3, 291060, Note_on_c, 0, 63, 74
3, 291060, Note_on_c, 0, 51, 57
3, 291223, Note_on_c, 0, 63, 0
3, 291420, Note_on_c, 0, 70, 59
3, 291547, Note_on_c, 0, 51, 0
3, 291583, Note_on_c, 0, 70, 0
3, 291600, Note_on_c, 0, 72, 76
3, 291600, Note_on_c, 0, 32, 62
3, 291600, Note_on_c, 0, 44, 65
3, 291780, Note_on_c, 0, 70, 60
3, 291943, Note_on_c, 0, 70, 0
3, 291960, Note_on_c, 0, 68, 59
3, 292123, Note_on_c, 0, 68, 0
3, 292140, Note_on_c, 0, 70, 72
3, 292140, Note_on_c, 0, 52, 58
3, 292303, Note_on_c, 0, 70, 0
3, 292320, Note_on_c, 0, 68, 60
3, 292483, Note_on_c, 0, 68, 0
3, 292500, Note_on_c, 0, 64, 57
3, 292627, Note_on_c, 0, 52, 0
3, 292663, Note_on_c, 0, 64, 0
3, 292680, Note_on_c, 0, 72, 0
3, 292680, Note_on_c, 0, 76, 84
3, 292680, Note_on_c, 0, 60, 89
3, 292680, Note_on_c, 0, 64, 88
3, 292860, Note_on_c, 0, 73, 58
3, 293023, Note_on_c, 0, 73, 0
3, 293040, Note_on_c, 0, 72, 59
3, 293167, Note_on_c, 0, 60, 0
3, 293167, Note_on_c, 0, 64, 0
3, 293203, Note_on_c, 0, 72, 0
3, 293220, Note_on_c, 0, 73, 71
3, 293220, Note_on_c, 0, 52, 47
3, 293383, Note_on_c, 0, 73, 0
3, 293400, Note_on_c, 0, 72, 60
3, 293563, Note_on_c, 0, 72, 0
3, 293580, Note_on_c, 0, 68, 58
3, 293690, Note_on_c, 0, 32, 0
3, 293690, Note_on_c, 0, 44, 0
3, 293707, Note_on_c, 0, 52, 0
3, 293743, Note_on_c, 0, 68, 0
3, 293760, Note_on_c, 0, 76, 0
3, 293760, Note_on_c, 0, 80, 85
3, 293760, Note_on_c, 0, 32, 70
3, 293760, Note_on_c, 0, 44, 69
3, 293940, Note_on_c, 0, 76, 59
3, 294103, Note_on_c, 0, 76, 0
3, 294120, Note_on_c, 0, 75, 63
3, 294283, Note_on_c, 0, 75, 0
3, 294300, Note_on_c, 0, 76, 70
3, 294300, Note_on_c, 0, 51, 58
3, 294463, Note_on_c, 0, 76, 0
3, 294480, Note_on_c, 0, 75, 64
3, 294643, Note_on_c, 0, 75, 0
3, 294660, Note_on_c, 0, 68, 51
3, 294787, Note_on_c, 0, 51, 0
3, 294823, Note_on_c, 0, 68, 0
3, 294840, Note_on_c, 0, 80, 0
3, 294840, Note_on_c, 0, 84, 84
3, 294840, Note_on_c, 0, 60, 89
3, 294840, Note_on_c, 0, 63, 89
3, 295020, Note_on_c, 0, 82, 56
3, 295183, Note_on_c, 0, 82, 0
3, 295200, Note_on_c, 0, 80, 59
3, 295327, Note_on_c, 0, 60, 0
3, 295327, Note_on_c, 0, 63, 0
3, 295363, Note_on_c, 0, 80, 0
3, 295380, Note_on_c, 0, 82, 74
3, 295380, Note_on_c, 0, 51, 48
3, 295543, Note_on_c, 0, 82, 0
3, 295560, Note_on_c, 0, 80, 62
3, 295723, Note_on_c, 0, 80, 0
3, 295740, Note_on_c, 0, 75, 56
3, 295850, Note_on_c, 0, 32, 0
3, 295850, Note_on_c, 0, 44, 0
3, 295867, Note_on_c, 0, 51, 0
3, 295903, Note_on_c, 0, 75, 0
3, 295920, Note_on_c, 0, 84, 0
3, 295920, Note_on_c, 0, 88, 85
3, 295920, Note_on_c, 0, 32, 70
3, 295920, Note_on_c, 0, 44, 71
3, 296100, Note_on_c, 0, 85, 57
3, 296263, Note_on_c, 0, 85, 0
3, 296280, Note_on_c, 0, 84, 62
3, 296443, Note_on_c, 0, 84, 0
3, 296460, Note_on_c, 0, 85, 72
3, 296460, Note_on_c, 0, 52, 56
3, 296623, Note_on_c, 0, 85, 0
3, 296640, Note_on_c, 0, 84, 63
3, 296803, Note_on_c, 0, 84, 0
3, 296820, Note_on_c, 0, 80, 56
3, 296947, Note_on_c, 0, 52, 0
3, 296983, Note_on_c, 0, 80, 0
3, 297000, Note_on_c, 0, 88, 0
3, 297000, Note_on_c, 0, 84, 66
3, 297000, Note_on_c, 0, 60, 87
3, 297000, Note_on_c, 0, 64, 90
3, 297180, Note_on_c, 0, 82, 57
3, 297343, Note_on_c, 0, 82, 0
3, 297360, Note_on_c, 0, 80, 61
3, 297487, Note_on_c, 0, 60, 0
3, 297487, Note_on_c, 0, 64, 0
3, 297523, Note_on_c, 0, 80, 0
3, 297540, Note_on_c, 0, 82, 74
3, 297540, Note_on_c, 0, 52, 48
3, 297703, Note_on_c, 0, 82, 0
3, 297720, Note_on_c, 0, 80, 62
3, 297883, Note_on_c, 0, 80, 0
3, 297900, Note_on_c, 0, 76, 59
3, 298010, Note_on_c, 0, 32, 0
3, 298010, Note_on_c, 0, 44, 0
3, 298027, Note_on_c, 0, 52, 0
3, 298063, Note_on_c, 0, 76, 0
3, 298080, Note_on_c, 0, 84, 0
3, 298080, Note_on_c, 0, 80, 62
3, 298080, Note_on_c, 0, 32, 68
3, 298080, Note_on_c, 0, 44, 68
3, 298260, Note_on_c, 0, 76, 60
3, 298423, Note_on_c, 0, 76, 0
3, 298440, Note_on_c, 0, 75, 63
3, 298603, Note_on_c, 0, 75, 0
3, 298620, Note_on_c, 0, 76, 70
3, 298620, Note_on_c, 0, 51, 59
3, 298783, Note_on_c, 0, 76, 0
3, 298800, Note_on_c, 0, 75, 61
3, 298963, Note_on_c, 0, 75, 0
3, 298980, Note_on_c, 0, 68, 51
3, 299090, Note_on_c, 0, 44, 0
3, 299090, Note_on_c, 0, 32, 0
3, 299107, Note_on_c, 0, 51, 0
3, 299143, Note_on_c, 0, 68, 0
3, 299160, Note_on_c, 0, 80, 0
3, 299160, Note_on_c, 0, 75, 63
3, 299160, Note_on_c, 0, 56, 88
3, 299160, Note_on_c, 0, 63, 89
3, 299340, Note_on_c, 0, 73, 59
3, 299503, Note_on_c, 0, 73, 0
3, 299520, Note_on_c, 0, 72, 60
3, 299647, Note_on_c, 0, 63, 0
3, 299647, Note_on_c, 0, 56, 0
3, 299683, Note_on_c, 0, 72, 0
3, 299700, Note_on_c, 0, 73, 71
3, 299700, Note_on_c, 0, 51, 46
3, 299863, Note_on_c, 0, 73, 0
3, 299880, Note_on_c, 0, 72, 62
3, 300043, Note_on_c, 0, 72, 0
3, 300060, Note_on_c, 0, 68, 57
3, 300187, Note_on_c, 0, 51, 0
3, 300223, Note_on_c, 0, 68, 0
3, 300240, Note_on_c, 0, 75, 0
3, 300240, Note_on_c, 0, 72, 69
3, 300240, Note_on_c, 0, 76, 68
3, 300240, Note_on_c, 0, 36, 47
3, 300403, Note_on_c, 0, 76, 0
3, 300403, Note_on_c, 0, 72, 0
3, 300600, Note_on_c, 0, 59, 58
3, 300727, Note_on_c, 0, 36, 0
3, 300763, Note_on_c, 0, 59, 0
3, 300780, Note_on_c, 0, 60, 71
3, 300780, Note_on_c, 0, 48, 85
3, 300943, Note_on_c, 0, 60, 0
3, 301140, Note_on_c, 0, 62, 59
3, 301267, Note_on_c, 0, 48, 0
3, 301303, Note_on_c, 0, 62, 0
3, 301320, Note_on_c, 0, 64, 73
3, 301320, Note_on_c, 0, 56, 86
3, 301483, Note_on_c, 0, 64, 0
3, 301680, Note_on_c, 0, 62, 59
3, 301807, Note_on_c, 0, 56, 0
3, 301843, Note_on_c, 0, 62, 0
3, 301860, Note_on_c, 0, 64, 68
3, 301860, Note_on_c, 0, 48, 53
3, 302023, Note_on_c, 0, 64, 0
3, 302220, Note_on_c, 0, 65, 56
3, 302347, Note_on_c, 0, 48, 0
3, 302383, Note_on_c, 0, 65, 0
3, 302400, Note_on_c, 0, 64, 62
3, 302400, Note_on_c, 0, 36, 46
3, 302563, Note_on_c, 0, 64, 0
3, 302760, Note_on_c, 0, 65, 58
3, 302887, Note_on_c, 0, 36, 0
3, 302923, Note_on_c, 0, 65, 0
3, 302940, Note_on_c, 0, 67, 72
3, 302940, Note_on_c, 0, 55, 82
3, 303103, Note_on_c, 0, 67, 0
3, 303300, Note_on_c, 0, 68, 56
3, 303427, Note_on_c, 0, 55, 0
3, 303463, Note_on_c, 0, 68, 0
3, 303480, Note_on_c, 0, 67, 65
3, 303480, Note_on_c, 0, 60, 89
3, 303480, Note_on_c, 0, 64, 90
3, 303643, Note_on_c, 0, 67, 0
3, 303840, Note_on_c, 0, 71, 59
3, 303967, Note_on_c, 0, 64, 0
3, 303967, Note_on_c, 0, 60, 0
3, 304003, Note_on_c, 0, 71, 0
3, 304020, Note_on_c, 0, 72, 72
3, 304020, Note_on_c, 0, 55, 51
3, 304183, Note_on_c, 0, 72, 0
3, 304380, Note_on_c, 0, 74, 57
3, 304507, Note_on_c, 0, 55, 0
3, 304543, Note_on_c, 0, 74, 0
3, 304560, Note_on_c, 0, 76, 71
3, 304560, Note_on_c, 0, 36, 48
3, 304723, Note_on_c, 0, 76, 0
3, 304920, Note_on_c, 0, 74, 59
3, 305047, Note_on_c, 0, 36, 0
3, 305083, Note_on_c, 0, 74, 0
3, 305100, Note_on_c, 0, 72, 62
3, 305100, Note_on_c, 0, 56, 85
3, 305263, Note_on_c, 0, 72, 0
3, 305460, Note_on_c, 0, 71, 58
3, 305587, Note_on_c, 0, 56, 0
3, 305623, Note_on_c, 0, 71, 0
3, 305640, Note_on_c, 0, 72, 69
3, 305640, Note_on_c, 0, 60, 86
3, 305640, Note_on_c, 0, 64, 86
3, 305803, Note_on_c, 0, 72, 0
3, 306000, Note_on_c, 0, 71, 59
3, 306127, Note_on_c, 0, 64, 0
3, 306127, Note_on_c, 0, 60, 0
3, 306163, Note_on_c, 0, 71, 0
3, 306180, Note_on_c, 0, 68, 62
3, 306180, Note_on_c, 0, 56, 55
3, 306343, Note_on_c, 0, 68, 0
3, 306540, Note_on_c, 0, 65, 60
3, 306667, Note_on_c, 0, 56, 0
3, 306703, Note_on_c, 0, 65, 0
3, 306720, Note_on_c, 0, 64, 63
3, 306720, Note_on_c, 0, 36, 49
3, 306883, Note_on_c, 0, 64, 0
3, 307080, Note_on_c, 0, 60, 57
3, 307207, Note_on_c, 0, 36, 0
3, 307243, Note_on_c, 0, 60, 0
3, 307260, Note_on_c, 0, 62, 70
3, 307260, Note_on_c, 0, 55, 84
3, 307423, Note_on_c, 0, 62, 0
3, 307620, Note_on_c, 0, 65, 59
3, 307747, Note_on_c, 0, 55, 0
3, 307783, Note_on_c, 0, 65, 0
3, 307800, Note_on_c, 0, 64, 65
3, 307800, Note_on_c, 0, 60, 83
3, 307963, Note_on_c, 0, 64, 0
3, 308160, Note_on_c, 0, 64, 57
3, 308287, Note_on_c, 0, 60, 0
3, 308323, Note_on_c, 0, 64, 0
3, 308340, Note_on_c, 0, 67, 76
3, 308340, Note_on_c, 0, 55, 60
3, 308503, Note_on_c, 0, 67, 0
3, 308700, Note_on_c, 0, 74, 56
3, 308827, Note_on_c, 0, 55, 0
3, 308863, Note_on_c, 0, 74, 0
3, 308880, Note_on_c, 0, 76, 77
3, 308880, Note_on_c, 0, 36, 79
3, 308880, Note_on_c, 0, 48, 76
3, 309060, Note_on_c, 0, 74, 60
3, 309223, Note_on_c, 0, 74, 0
3, 309240, Note_on_c, 0, 72, 61
3, 309403, Note_on_c, 0, 72, 0
3, 309420, Note_on_c, 0, 74, 73
3, 309420, Note_on_c, 0, 56, 58
3, 309583, Note_on_c, 0, 74, 0
3, 309600, Note_on_c, 0, 72, 60
3, 309763, Note_on_c, 0, 72, 0
3, 309780, Note_on_c, 0, 68, 55
3, 309907, Note_on_c, 0, 56, 0
3, 309943, Note_on_c, 0, 68, 0
3, 309960, Note_on_c, 0, 76, 0
3, 309960, Note_on_c, 0, 80, 85
3, 309960, Note_on_c, 0, 64, 88
3, 309960, Note_on_c, 0, 68, 89
3, 310140, Note_on_c, 0, 77, 57
3, 310303, Note_on_c, 0, 77, 0
3, 310320, Note_on_c, 0, 76, 61
3, 310447, Note_on_c, 0, 64, 0
3, 310447, Note_on_c, 0, 68, 0
3, 310483, Note_on_c, 0, 76, 0
3, 310500, Note_on_c, 0, 77, 71
3, 310500, Note_on_c, 0, 56, 47
3, 310663, Note_on_c, 0, 77, 0
3, 310680, Note_on_c, 0, 76, 62
3, 310843, Note_on_c, 0, 76, 0
3, 310860, Note_on_c, 0, 72, 56
3, 310970, Note_on_c, 0, 36, 0
3, 310970, Note_on_c, 0, 48, 0
3, 310987, Note_on_c, 0, 56, 0
3, 311023, Note_on_c, 0, 72, 0
3, 311040, Note_on_c, 0, 80, 0
3, 311040, Note_on_c, 0, 84, 85
3, 311040, Note_on_c, 0, 36, 68
3, 311040, Note_on_c, 0, 48, 69
3, 311220, Note_on_c, 0, 80, 58
3, 311383, Note_on_c, 0, 80, 0
3, 311400, Note_on_c, 0, 79, 62
3, 311563, Note_on_c, 0, 79, 0
3, 311580, Note_on_c, 0, 80, 70
3, 311580, Note_on_c, 0, 55, 59
3, 311743, Note_on_c, 0, 80, 0
3, 311760, Note_on_c, 0, 79, 64
3, 311923, Note_on_c, 0, 79, 0
3, 311940, Note_on_c, 0, 72, 50
3, 312067, Note_on_c, 0, 55, 0
3, 312103, Note_on_c, 0, 72, 0
3, 312120, Note_on_c, 0, 84, 0
3, 312120, Note_on_c, 0, 88, 84
3, 312120, Note_on_c, 0, 64, 88
3, 312120, Note_on_c, 0, 67, 87
3, 312300, Note_on_c, 0, 86, 58
3, 312463, Note_on_c, 0, 86, 0
3, 312480, Note_on_c, 0, 84, 61
3, 312607, Note_on_c, 0, 64, 0
3, 312607, Note_on_c, 0, 67, 0
3, 312643, Note_on_c, 0, 84, 0
3, 312660, Note_on_c, 0, 86, 73
3, 312660, Note_on_c, 0, 55, 47
3, 312823, Note_on_c, 0, 86, 0
3, 312840, Note_on_c, 0, 84, 62
3, 313003, Note_on_c, 0, 84, 0
3, 313020, Note_on_c, 0, 79, 56
3, 313130, Note_on_c, 0, 36, 0
3, 313130, Note_on_c, 0, 48, 0
3, 313147, Note_on_c, 0, 55, 0
3, 313183, Note_on_c, 0, 79, 0
3, 313200, Note_on_c, 0, 88, 0
3, 313200, Note_on_c, 0, 92, 83
3, 313200, Note_on_c, 0, 36, 70
3, 313200, Note_on_c, 0, 48, 68
3, 313380, Note_on_c, 0, 89, 58
3, 313543, Note_on_c, 0, 89, 0
3, 313560, Note_on_c, 0, 88, 60
3, 313723, Note_on_c, 0, 88, 0
3, 313740, Note_on_c, 0, 89, 71
3, 313740, Note_on_c, 0, 56, 57
3, 313903, Note_on_c, 0, 89, 0
3, 313920, Note_on_c, 0, 88, 62
3, 314083, Note_on_c, 0, 88, 0
3, 314100, Note_on_c, 0, 84, 59
3, 314227, Note_on_c, 0, 56, 0
3, 314263, Note_on_c, 0, 84, 0
3, 314280, Note_on_c, 0, 92, 0
3, 314280, Note_on_c, 0, 88, 65
3, 314280, Note_on_c, 0, 64, 87
3, 314280, Note_on_c, 0, 68, 86
3, 314460, Note_on_c, 0, 86, 58
3, 314623, Note_on_c, 0, 86, 0
3, 314640, Note_on_c, 0, 84, 60
3, 314767, Note_on_c, 0, 64, 0
3, 314767, Note_on_c, 0, 68, 0
3, 314803, Note_on_c, 0, 84, 0
3, 314820, Note_on_c, 0, 86, 73
3, 314820, Note_on_c, 0, 56, 46
3, 314983, Note_on_c, 0, 86, 0
3, 315000, Note_on_c, 0, 84, 59
3, 315163, Note_on_c, 0, 84, 0
3, 315180, Note_on_c, 0, 80, 58
3, 315290, Note_on_c, 0, 36, 0
3, 315290, Note_on_c, 0, 48, 0
3, 315307, Note_on_c, 0, 56, 0
3, 315343, Note_on_c, 0, 80, 0
3, 315360, Note_on_c, 0, 88, 0
3, 315360, Note_on_c, 0, 84, 66
3, 315360, Note_on_c, 0, 36, 67
3, 315360, Note_on_c, 0, 48, 69
3, 315540, Note_on_c, 0, 80, 58
3, 315703, Note_on_c, 0, 80, 0
3, 315720, Note_on_c, 0, 79, 61
3, 315883, Note_on_c, 0, 79, 0
3, 315900, Note_on_c, 0, 80, 71
3, 315900, Note_on_c, 0, 55, 58
3, 316063, Note_on_c, 0, 80, 0
3, 316080, Note_on_c, 0, 79, 60
3, 316243, Note_on_c, 0, 79, 0
3, 316260, Note_on_c, 0, 72, 52
3, 316387, Note_on_c, 0, 55, 0
3, 316423, Note_on_c, 0, 72, 0
3, 316440, Note_on_c, 0, 84, 0
3, 316440, Note_on_c, 0, 79, 61
3, 316440, Note_on_c, 0, 64, 90
3, 316440, Note_on_c, 0, 67, 86
3, 316620, Note_on_c, 0, 77, 59
3, 316783, Note_on_c, 0, 77, 0
3, 316800, Note_on_c, 0, 76, 61
3, 316927, Note_on_c, 0, 64, 0
3, 316927, Note_on_c, 0, 67, 0
3, 316963, Note_on_c, 0, 76, 0
3, 316980, Note_on_c, 0, 77, 70
3, 316980, Note_on_c, 0, 55, 50
3, 317143, Note_on_c, 0, 77, 0
3, 317160, Note_on_c, 0, 76, 62
3, 317323, Note_on_c, 0, 76, 0
3, 317340, Note_on_c, 0, 72, 55
3, 317450, Note_on_c, 0, 36, 0
3, 317450, Note_on_c, 0, 48, 0
3, 317467, Note_on_c, 0, 55, 0
3, 317503, Note_on_c, 0, 72, 0
3, 317520, Note_on_c, 0, 79, 0
3, 317520, Note_on_c, 0, 87, 80
3, 317520, Note_on_c, 0, 87, 90
3, 317520, Note_on_c, 0, 32, 48
3, 317520, Note_on_c, 0, 44, 48
3, 317683, Note_on_c, 0, 87, 0
3, 317700, Note_on_c, 0, 78, 53
3, 317863, Note_on_c, 0, 78, 0
3, 317880, Note_on_c, 0, 75, 58
3, 318007, Note_on_c, 0, 44, 0
3, 318007, Note_on_c, 0, 87, 0
3, 318007, Note_on_c, 0, 32, 0
3, 318043, Note_on_c, 0, 75, 0
3, 318060, Note_on_c, 0, 84, 85
3, 318060, Note_on_c, 0, 84, 61
3, 318060, Note_on_c, 0, 54, 84
3, 318060, Note_on_c, 0, 60, 82
3, 318060, Note_on_c, 0, 63, 81
3, 318060, Note_on_c, 0, 66, 83
3, 318223, Note_on_c, 0, 84, 0
3, 318240, Note_on_c, 0, 75, 52
3, 318403, Note_on_c, 0, 75, 0
3, 318420, Note_on_c, 0, 72, 59
3, 318547, Note_on_c, 0, 84, 0
3, 318583, Note_on_c, 0, 72, 0
3, 318600, Note_on_c, 0, 84, 90
3, 318600, Note_on_c, 0, 84, 69
3, 318763, Note_on_c, 0, 84, 0
3, 318780, Note_on_c, 0, 75, 52
3, 318943, Note_on_c, 0, 75, 0
3, 318960, Note_on_c, 0, 72, 58
3, 319087, Note_on_c, 0, 84, 0
3, 319087, Note_on_c, 0, 63, 0
3, 319087, Note_on_c, 0, 54, 0
3, 319087, Note_on_c, 0, 60, 0
3, 319087, Note_on_c, 0, 66, 0
3, 319123, Note_on_c, 0, 72, 0
3, 319140, Note_on_c, 0, 85, 88
3, 319140, Note_on_c, 0, 85, 69
3, 319140, Note_on_c, 0, 54, 64
3, 319140, Note_on_c, 0, 61, 68
3, 319140, Note_on_c, 0, 63, 67
3, 319140, Note_on_c, 0, 66, 65
3, 319303, Note_on_c, 0, 85, 0
3, 319320, Note_on_c, 0, 75, 52
3, 319483, Note_on_c, 0, 75, 0
3, 319500, Note_on_c, 0, 73, 57
3, 319627, Note_on_c, 0, 66, 0
3, 319627, Note_on_c, 0, 63, 0
3, 319627, Note_on_c, 0, 61, 0
3, 319627, Note_on_c, 0, 85, 0
3, 319627, Note_on_c, 0, 54, 0
3, 319663, Note_on_c, 0, 73, 0
3, 319680, Note_on_c, 0, 87, 88
3, 319680, Note_on_c, 0, 87, 73
3, 319680, Note_on_c, 0, 32, 49
3, 319680, Note_on_c, 0, 44, 50
3, 319843, Note_on_c, 0, 87, 0
3, 319860, Note_on_c, 0, 78, 51
3, 320023, Note_on_c, 0, 78, 0
3, 320040, Note_on_c, 0, 75, 57
3, 320167, Note_on_c, 0, 44, 0
3, 320167, Note_on_c, 0, 87, 0
3, 320167, Note_on_c, 0, 32, 0
3, 320203, Note_on_c, 0, 75, 0
3, 320220, Note_on_c, 0, 84, 84
3, 320220, Note_on_c, 0, 84, 60
3, 320220, Note_on_c, 0, 54, 85
3, 320220, Note_on_c, 0, 60, 83
3, 320220, Note_on_c, 0, 63, 84
3, 320220, Note_on_c, 0, 66, 85
3, 320383, Note_on_c, 0, 84, 0
3, 320400, Note_on_c, 0, 75, 53
3, 320563, Note_on_c, 0, 75, 0
3, 320580, Note_on_c, 0, 72, 58
3, 320707, Note_on_c, 0, 84, 0
3, 320743, Note_on_c, 0, 72, 0
3, 320760, Note_on_c, 0, 84, 89
3, 320760, Note_on_c, 0, 84, 68
3, 320923, Note_on_c, 0, 84, 0
3, 320940, Note_on_c, 0, 75, 53
3, 321103, Note_on_c, 0, 75, 0
3, 321120, Note_on_c, 0, 72, 56
3, 321247, Note_on_c, 0, 84, 0
3, 321247, Note_on_c, 0, 63, 0
3, 321247, Note_on_c, 0, 54, 0
3, 321247, Note_on_c, 0, 60, 0
3, 321247, Note_on_c, 0, 66, 0
3, 321283, Note_on_c, 0, 72, 0
3, 321300, Note_on_c, 0, 85, 90
3, 321300, Note_on_c, 0, 85, 69
3, 321300, Note_on_c, 0, 54, 66
3, 321300, Note_on_c, 0, 61, 66
3, 321300, Note_on_c, 0, 63, 65
3, 321300, Note_on_c, 0, 66, 66
3, 321463, Note_on_c, 0, 85, 0
3, 321480, Note_on_c, 0, 75, 49
3, 321643, Note_on_c, 0, 75, 0
3, 321660, Note_on_c, 0, 73, 56
3, 321787, Note_on_c, 0, 66, 0
3, 321787, Note_on_c, 0, 63, 0
3, 321787, Note_on_c, 0, 61, 0
3, 321787, Note_on_c, 0, 85, 0
3, 321787, Note_on_c, 0, 54, 0
3, 321823, Note_on_c, 0, 73, 0
3, 321840, Note_on_c, 0, 89, 88
3, 321840, Note_on_c, 0, 89, 78
3, 321840, Note_on_c, 0, 32, 50
3, 321840, Note_on_c, 0, 44, 47
3, 322003, Note_on_c, 0, 89, 0
3, 322020, Note_on_c, 0, 80, 54
3, 322183, Note_on_c, 0, 80, 0
3, 322200, Note_on_c, 0, 77, 57
3, 322327, Note_on_c, 0, 44, 0
3, 322327, Note_on_c, 0, 89, 0
3, 322327, Note_on_c, 0, 32, 0
3, 322363, Note_on_c, 0, 77, 0
3, 322380, Note_on_c, 0, 84, 82
3, 322380, Note_on_c, 0, 84, 57
3, 322380, Note_on_c, 0, 53, 84
3, 322380, Note_on_c, 0, 56, 83
3, 322380, Note_on_c, 0, 60, 82
3, 322380, Note_on_c, 0, 65, 82
3, 322543, Note_on_c, 0, 84, 0
3, 322560, Note_on_c, 0, 80, 59
3, 322723, Note_on_c, 0, 80, 0
3, 322740, Note_on_c, 0, 72, 50
3, 322867, Note_on_c, 0, 84, 0
3, 322903, Note_on_c, 0, 72, 0
3, 322920, Note_on_c, 0, 84, 86
3, 322920, Note_on_c, 0, 84, 69
3, 323083, Note_on_c, 0, 84, 0
3, 323100, Note_on_c, 0, 80, 60
3, 323263, Note_on_c, 0, 80, 0
3, 323280, Note_on_c, 0, 72, 49
3, 323407, Note_on_c, 0, 84, 0
3, 323407, Note_on_c, 0, 60, 0
3, 323407, Note_on_c, 0, 53, 0
3, 323407, Note_on_c, 0, 56, 0
3, 323407, Note_on_c, 0, 65, 0
3, 323443, Note_on_c, 0, 72, 0
3, 323460, Note_on_c, 0, 85, 87
3, 323460, Note_on_c, 0, 85, 68
3, 323460, Note_on_c, 0, 53, 67
3, 323460, Note_on_c, 0, 58, 65
3, 323460, Note_on_c, 0, 61, 66
3, 323460, Note_on_c, 0, 65, 65
3, 323623, Note_on_c, 0, 85, 0
3, 323640, Note_on_c, 0, 82, 61
3, 323803, Note_on_c, 0, 82, 0
3, 323820, Note_on_c, 0, 73, 47
3, 323947, Note_on_c, 0, 65, 0
3, 323947, Note_on_c, 0, 61, 0
3, 323947, Note_on_c, 0, 58, 0
3, 323947, Note_on_c, 0, 85, 0
3, 323947, Note_on_c, 0, 53, 0
3, 323983, Note_on_c, 0, 73, 0
3, 324000, Note_on_c, 0, 89, 85
3, 324000, Note_on_c, 0, 89, 76
3, 324000, Note_on_c, 0, 32, 46
3, 324000, Note_on_c, 0, 44, 46
3, 324163, Note_on_c, 0, 89, 0
3, 324180, Note_on_c, 0, 80, 52
3, 324343, Note_on_c, 0, 80, 0
3, 324360, Note_on_c, 0, 77, 56
3, 324487, Note_on_c, 0, 44, 0
3, 324487, Note_on_c, 0, 89, 0
3, 324487, Note_on_c, 0, 32, 0
3, 324523, Note_on_c, 0, 77, 0
3, 324540, Note_on_c, 0, 84, 79
3, 324540, Note_on_c, 0, 84, 58
3, 324540, Note_on_c, 0, 53, 81
3, 324540, Note_on_c, 0, 56, 81
3, 324540, Note_on_c, 0, 60, 84
3, 324540, Note_on_c, 0, 65, 84
3, 324703, Note_on_c, 0, 84, 0
3, 324720, Note_on_c, 0, 80, 58
3, 324883, Note_on_c, 0, 80, 0
3, 324900, Note_on_c, 0, 72, 47
3, 325027, Note_on_c, 0, 84, 0
3, 325063, Note_on_c, 0, 72, 0
3, 325080, Note_on_c, 0, 84, 87
3, 325080, Note_on_c, 0, 84, 66
3, 325243, Note_on_c, 0, 84, 0
3, 325260, Note_on_c, 0, 80, 59
3, 325423, Note_on_c, 0, 80, 0
3, 325440, Note_on_c, 0, 72, 50
3, 325567, Note_on_c, 0, 84, 0
3, 325567, Note_on_c, 0, 60, 0
3, 325567, Note_on_c, 0, 53, 0
3, 325567, Note_on_c, 0, 56, 0
3, 325567, Note_on_c, 0, 65, 0
3, 325603, Note_on_c, 0, 72, 0
3, 325620, Note_on_c, 0, 85, 85
3, 325620, Note_on_c, 0, 85, 69
3, 325620, Note_on_c, 0, 53, 66
3, 325620, Note_on_c, 0, 58, 66
3, 325620, Note_on_c, 0, 61, 65
3, 325620, Note_on_c, 0, 65, 65
3, 325783, Note_on_c, 0, 85, 0
3, 325800, Note_on_c, 0, 82, 64
3, 325963, Note_on_c, 0, 82, 0
3, 325980, Note_on_c, 0, 73, 49
3, 326107, Note_on_c, 0, 65, 0
3, 326107, Note_on_c, 0, 61, 0
3, 326107, Note_on_c, 0, 58, 0
3, 326107, Note_on_c, 0, 85, 0
3, 326107, Note_on_c, 0, 53, 0
3, 326143, Note_on_c, 0, 73, 0
3, 326160, Note_on_c, 0, 72, 85
3, 326160, Note_on_c, 0, 77, 83
3, 326160, Note_on_c, 0, 84, 86
3, 326160, Note_on_c, 0, 25, 49
3, 326160, Note_on_c, 0, 37, 47
3, 326323, Note_on_c, 0, 84, 0
3, 326323, Note_on_c, 0, 72, 0
3, 326323, Note_on_c, 0, 77, 0
3, 326520, Note_on_c, 0, 55, 58
3, 326683, Note_on_c, 0, 55, 0
3, 326700, Note_on_c, 0, 56, 70
3, 326863, Note_on_c, 0, 56, 0
3, 327060, Note_on_c, 0, 59, 58
3, 327223, Note_on_c, 0, 59, 0
3, 327240, Note_on_c, 0, 60, 70
3, 327403, Note_on_c, 0, 60, 0
3, 327600, Note_on_c, 0, 59, 57
3, 327763, Note_on_c, 0, 59, 0
3, 327780, Note_on_c, 0, 60, 67
3, 327943, Note_on_c, 0, 60, 0
3, 328140, Note_on_c, 0, 64, 58
3, 328303, Note_on_c, 0, 64, 0
3, 328320, Note_on_c, 0, 65, 73
3, 328483, Note_on_c, 0, 65, 0
3, 328680, Note_on_c, 0, 64, 57
3, 328843, Note_on_c, 0, 64, 0
3, 328860, Note_on_c, 0, 65, 68
3, 329023, Note_on_c, 0, 65, 0
3, 329220, Note_on_c, 0, 67, 58
3, 329330, Note_on_c, 0, 25, 0
3, 329330, Note_on_c, 0, 37, 0
3, 329383, Note_on_c, 0, 67, 0
3, 329400, Note_on_c, 0, 68, 71
3, 329400, Note_on_c, 0, 37, 87
3, 329400, Note_on_c, 0, 49, 88
3, 329563, Note_on_c, 0, 68, 0
3, 329760, Note_on_c, 0, 67, 57
3, 329923, Note_on_c, 0, 67, 0
3, 329940, Note_on_c, 0, 68, 69
3, 330103, Note_on_c, 0, 68, 0
3, 330300, Note_on_c, 0, 71, 57
3, 330410, Note_on_c, 0, 49, 0
3, 330410, Note_on_c, 0, 37, 0
3, 330463, Note_on_c, 0, 71, 0
3, 330480, Note_on_c, 0, 72, 72
3, 330480, Note_on_c, 0, 38, 74
3, 330480, Note_on_c, 0, 50, 76
3, 330643, Note_on_c, 0, 72, 0
3, 330840, Note_on_c, 0, 71, 59
3, 331003, Note_on_c, 0, 71, 0
3, 331020, Note_on_c, 0, 72, 67
3, 331183, Note_on_c, 0, 72, 0
3, 331380, Note_on_c, 0, 76, 59
3, 331543, Note_on_c, 0, 76, 0
3, 331560, Note_on_c, 0, 77, 70
3, 331723, Note_on_c, 0, 77, 0
3, 331920, Note_on_c, 0, 76, 56
3, 332083, Note_on_c, 0, 76, 0
3, 332100, Note_on_c, 0, 77, 70
3, 332263, Note_on_c, 0, 77, 0
3, 332460, Note_on_c, 0, 79, 58
3, 332570, Note_on_c, 0, 50, 0
3, 332570, Note_on_c, 0, 38, 0
3, 332623, Note_on_c, 0, 79, 0
3, 332640, Note_on_c, 0, 80, 71
3, 332640, Note_on_c, 0, 32, 56
3, 332640, Note_on_c, 0, 44, 57
3, 332803, Note_on_c, 0, 80, 0
3, 333000, Note_on_c, 0, 79, 60
3, 333163, Note_on_c, 0, 79, 0
3, 333180, Note_on_c, 0, 80, 69
3, 333343, Note_on_c, 0, 80, 0
3, 333540, Note_on_c, 0, 83, 58
3, 333650, Note_on_c, 0, 44, 0
3, 333650, Note_on_c, 0, 32, 0
3, 333703, Note_on_c, 0, 83, 0
3, 333720, Note_on_c, 0, 72, 70
3, 333720, Note_on_c, 0, 84, 69
3, 333720, Note_on_c, 0, 30, 63
3, 333720, Note_on_c, 0, 42, 62
3, 333883, Note_on_c, 0, 84, 0
3, 333883, Note_on_c, 0, 72, 0
3, 334080, Note_on_c, 0, 83, 60
3, 334243, Note_on_c, 0, 83, 0
3, 334260, Note_on_c, 0, 72, 68
3, 334260, Note_on_c, 0, 84, 68
3, 334423, Note_on_c, 0, 84, 0
3, 334423, Note_on_c, 0, 72, 0
3, 334620, Note_on_c, 0, 87, 58
3, 334730, Note_on_c, 0, 30, 0
3, 334730, Note_on_c, 0, 42, 0
3, 334783, Note_on_c, 0, 87, 0
3, 334800, Note_on_c, 0, 79, 76
3, 334800, Note_on_c, 0, 84, 78
3, 334800, Note_on_c, 0, 91, 75
3, 334800, Note_on_c, 0, 31, 72
3, 334800, Note_on_c, 0, 43, 73
3, 334963, Note_on_c, 0, 43, 0
3, 334963, Note_on_c, 0, 91, 0
3, 334963, Note_on_c, 0, 79, 0
3, 334963, Note_on_c, 0, 84, 0
3, 334963, Note_on_c, 0, 31, 0
3, 338580, Note_on_c, 0, 31, 60
3, 338743, Note_on_c, 0, 31, 0
3, 338760, Note_on_c, 0, 43, 85
3, 338923, Note_on_c, 0, 43, 0
3, 338940, Note_on_c, 0, 31, 47
3, 339103, Note_on_c, 0, 31, 0
3, 339120, Note_on_c, 0, 43, 86
3, 339445, Note_on_c, 0, 43, 0
3, 340740, Note_on_c, 0, 50, 56
3, 341227, Note_on_c, 0, 50, 0
3, 341280, Note_on_c, 0, 51, 72
3, 342290, Note_on_c, 0, 51, 0
3, 342900, Note_on_c, 0, 43, 58
3, 343387, Note_on_c, 0, 43, 0
3, 343440, Note_on_c, 0, 44, 72
3, 344450, Note_on_c, 0, 44, 0
3, 344520, Note_on_c, 0, 43, 63
3, 345530, Note_on_c, 0, 43, 0
3, 345600, Note_on_c, 0, 39, 60
3, 346610, Note_on_c, 0, 39, 0
3, 346680, Note_on_c, 0, 38, 62
3, 347690, Note_on_c, 0, 38, 0
3, 347760, Note_on_c, 0, 43, 76
3, 347923, Note_on_c, 0, 43, 0
3, 348300, Note_on_c, 0, 60, 61
3, 348300, Note_on_c, 0, 62, 60
3, 348300, Note_on_c, 0, 53, 62
3, 348463, Note_on_c, 0, 53, 0
3, 348463, Note_on_c, 0, 62, 0
3, 348463, Note_on_c, 0, 60, 0
3, 348840, Note_on_c, 0, 60, 61
3, 348840, Note_on_c, 0, 63, 62
3, 348840, Note_on_c, 0, 55, 62
3, 349003, Note_on_c, 0, 55, 0
3, 349003, Note_on_c, 0, 63, 0
3, 349003, Note_on_c, 0, 60, 0
3, 349380, Note_on_c, 0, 60, 60
3, 349380, Note_on_c, 0, 65, 59
3, 349380, Note_on_c, 0, 56, 61
3, 349543, Note_on_c, 0, 56, 0
3, 349543, Note_on_c, 0, 65, 0
3, 349543, Note_on_c, 0, 60, 0
3, 349920, Note_on_c, 0, 60, 62
3, 349920, Note_on_c, 0, 63, 60
3, 349920, Note_on_c, 0, 55, 63
3, 350083, Note_on_c, 0, 55, 0
3, 350083, Note_on_c, 0, 63, 0
3, 350083, Note_on_c, 0, 60, 0
3, 350460, Note_on_c, 0, 60, 59
3, 350460, Note_on_c, 0, 51, 61
3, 350460, Note_on_c, 0, 55, 61
3, 350623, Note_on_c, 0, 55, 0
3, 350623, Note_on_c, 0, 51, 0
3, 350623, Note_on_c, 0, 60, 0
3, 351000, Note_on_c, 0, 60, 62
3, 351000, Note_on_c, 0, 62, 60
3, 351000, Note_on_c, 0, 53, 59
3, 351163, Note_on_c, 0, 53, 0
3, 351163, Note_on_c, 0, 62, 0
3, 351163, Note_on_c, 0, 60, 0
3, 351540, Note_on_c, 0, 59, 63
3, 351540, Note_on_c, 0, 50, 62
3, 351540, Note_on_c, 0, 53, 63
3, 351703, Note_on_c, 0, 53, 0
3, 351703, Note_on_c, 0, 50, 0
3, 351703, Note_on_c, 0, 59, 0
3, 352080, Note_on_c, 0, 60, 60
3, 352080, Note_on_c, 0, 51, 62
3, 352080, Note_on_c, 0, 55, 59
3, 352243, Note_on_c, 0, 55, 0
3, 352243, Note_on_c, 0, 51, 0
3, 352243, Note_on_c, 0, 60, 0
3, 352620, Note_on_c, 0, 79, 61
3, 352620, Note_on_c, 0, 55, 61
3, 352783, Note_on_c, 0, 55, 0
3, 352783, Note_on_c, 0, 79, 0
3, 352800, Note_on_c, 0, 80, 66
3, 352800, Note_on_c, 0, 56, 68
3, 352963, Note_on_c, 0, 56, 0
3, 352963, Note_on_c, 0, 80, 0
3, 352980, Note_on_c, 0, 82, 71
3, 352980, Note_on_c, 0, 58, 69
3, 353143, Note_on_c, 0, 58, 0
3, 353143, Note_on_c, 0, 82, 0
3, 353160, Note_on_c, 0, 84, 101
3, 353160, Note_on_c, 0, 60, 100
3, 353323, Note_on_c, 0, 60, 0
3, 353323, Note_on_c, 0, 84, 0
3, 353340, Note_on_c, 0, 85, 71
3, 353340, Note_on_c, 0, 61, 72
3, 353503, Note_on_c, 0, 61, 0
3, 353503, Note_on_c, 0, 85, 0
3, 353520, Note_on_c, 0, 84, 63
3, 353520, Note_on_c, 0, 60, 62
3, 353683, Note_on_c, 0, 60, 0
3, 353683, Note_on_c, 0, 84, 0
3, 353700, Note_on_c, 0, 82, 63
3, 353700, Note_on_c, 0, 58, 64
3, 353863, Note_on_c, 0, 58, 0
3, 353863, Note_on_c, 0, 82, 0
3, 353880, Note_on_c, 0, 80, 60
3, 353880, Note_on_c, 0, 56, 60
3, 354043, Note_on_c, 0, 56, 0
3, 354043, Note_on_c, 0, 80, 0
3, 354060, Note_on_c, 0, 82, 70
3, 354060, Note_on_c, 0, 58, 69
3, 354223, Note_on_c, 0, 58, 0
3, 354223, Note_on_c, 0, 82, 0
3, 354240, Note_on_c, 0, 84, 103
3, 354240, Note_on_c, 0, 60, 101
3, 354403, Note_on_c, 0, 60, 0
3, 354403, Note_on_c, 0, 84, 0
3, 354420, Note_on_c, 0, 85, 72
3, 354420, Note_on_c, 0, 61, 72
3, 354583, Note_on_c, 0, 61, 0
3, 354583, Note_on_c, 0, 85, 0
3, 354600, Note_on_c, 0, 84, 63
3, 354600, Note_on_c, 0, 60, 64
3, 354763, Note_on_c, 0, 60, 0
3, 354763, Note_on_c, 0, 84, 0
3, 354780, Note_on_c, 0, 82, 64
3, 354780, Note_on_c, 0, 58, 62
3, 354943, Note_on_c, 0, 58, 0
3, 354943, Note_on_c, 0, 82, 0
3, 354960, Note_on_c, 0, 79, 58
3, 354960, Note_on_c, 0, 55, 57
3, 355123, Note_on_c, 0, 55, 0
3, 355123, Note_on_c, 0, 79, 0
3, 355140, Note_on_c, 0, 80, 67
3, 355140, Note_on_c, 0, 56, 67
3, 355303, Note_on_c, 0, 56, 0
3, 355303, Note_on_c, 0, 80, 0
3, 355320, Note_on_c, 0, 82, 102
3, 355320, Note_on_c, 0, 58, 101
3, 355483, Note_on_c, 0, 58, 0
3, 355483, Note_on_c, 0, 82, 0
3, 355500, Note_on_c, 0, 84, 69
3, 355500, Note_on_c, 0, 60, 71
3, 355663, Note_on_c, 0, 60, 0
3, 355663, Note_on_c, 0, 84, 0
3, 355680, Note_on_c, 0, 82, 61
3, 355680, Note_on_c, 0, 58, 59
3, 355843, Note_on_c, 0, 58, 0
3, 355843, Note_on_c, 0, 82, 0
3, 355860, Note_on_c, 0, 80, 62
3, 355860, Note_on_c, 0, 56, 64
3, 356023, Note_on_c, 0, 56, 0
3, 356023, Note_on_c, 0, 80, 0
3, 356040, Note_on_c, 0, 79, 61
3, 356040, Note_on_c, 0, 55, 59
3, 356203, Note_on_c, 0, 55, 0
3, 356203, Note_on_c, 0, 79, 0
3, 356220, Note_on_c, 0, 82, 72
3, 356220, Note_on_c, 0, 58, 70
3, 356383, Note_on_c, 0, 58, 0
3, 356383, Note_on_c, 0, 82, 0
3, 356400, Note_on_c, 0, 84, 100
3, 356400, Note_on_c, 0, 60, 101
3, 356563, Note_on_c, 0, 60, 0
3, 356563, Note_on_c, 0, 84, 0
3, 356940, Note_on_c, 0, 60, 61
3, 357103, Note_on_c, 0, 60, 0
3, 357120, Note_on_c, 0, 58, 60
3, 357283, Note_on_c, 0, 58, 0
3, 357300, Note_on_c, 0, 60, 69
3, 357463, Note_on_c, 0, 60, 0
3, 357480, Note_on_c, 0, 61, 71
3, 357805, Note_on_c, 0, 61, 0
3, 357840, Note_on_c, 0, 61, 57
3, 358003, Note_on_c, 0, 61, 0
3, 358020, Note_on_c, 0, 63, 68
3, 358345, Note_on_c, 0, 63, 0
3, 358380, Note_on_c, 0, 63, 67
3, 358543, Note_on_c, 0, 63, 0
3, 358560, Note_on_c, 0, 60, 64
3, 358560, Note_on_c, 0, 31, 62
3, 358560, Note_on_c, 0, 43, 59
3, 358885, Note_on_c, 0, 60, 0
3, 358920, Note_on_c, 0, 60, 64
3, 359083, Note_on_c, 0, 60, 0
3, 359100, Note_on_c, 0, 56, 60
3, 359263, Note_on_c, 0, 56, 0
3, 359280, Note_on_c, 0, 58, 68
3, 359443, Note_on_c, 0, 58, 0
3, 359460, Note_on_c, 0, 56, 60
3, 359623, Note_on_c, 0, 56, 0
3, 359640, Note_on_c, 0, 55, 66
3, 359965, Note_on_c, 0, 55, 0
3, 360000, Note_on_c, 0, 55, 66
3, 360163, Note_on_c, 0, 55, 0
3, 360180, Note_on_c, 0, 52, 60
3, 360343, Note_on_c, 0, 52, 0
3, 360360, Note_on_c, 0, 53, 69
3, 360523, Note_on_c, 0, 53, 0
3, 360540, Note_on_c, 0, 52, 62
3, 360703, Note_on_c, 0, 52, 0
3, 360720, Note_on_c, 0, 53, 72
3, 361045, Note_on_c, 0, 53, 0
3, 361080, Note_on_c, 0, 52, 62
3, 361243, Note_on_c, 0, 52, 0
3, 361260, Note_on_c, 0, 53, 73
3, 361423, Note_on_c, 0, 53, 0
3, 361440, Note_on_c, 0, 52, 62
3, 361603, Note_on_c, 0, 52, 0
3, 361620, Note_on_c, 0, 53, 69
3, 361783, Note_on_c, 0, 53, 0
3, 361800, Note_on_c, 0, 55, 74
3, 362125, Note_on_c, 0, 55, 0
3, 362160, Note_on_c, 0, 55, 65
3, 362323, Note_on_c, 0, 55, 0
3, 362340, Note_on_c, 0, 56, 68
3, 362665, Note_on_c, 0, 56, 0
3, 362700, Note_on_c, 0, 56, 67
3, 362810, Note_on_c, 0, 43, 0
3, 362810, Note_on_c, 0, 31, 0
3, 362863, Note_on_c, 0, 56, 0
3, 362880, Note_on_c, 0, 53, 61
3, 362880, Note_on_c, 0, 31, 46
3, 363205, Note_on_c, 0, 53, 0
3, 363240, Note_on_c, 0, 53, 65
3, 363403, Note_on_c, 0, 53, 0
3, 363420, Note_on_c, 0, 48, 54
3, 363745, Note_on_c, 0, 48, 0
3, 363780, Note_on_c, 0, 48, 63
3, 363943, Note_on_c, 0, 48, 0
3, 363960, Note_on_c, 0, 46, 66
3, 364285, Note_on_c, 0, 46, 0
3, 364320, Note_on_c, 0, 46, 66
3, 364483, Note_on_c, 0, 46, 0
3, 364500, Note_on_c, 0, 43, 57
3, 364825, Note_on_c, 0, 43, 0
3, 364860, Note_on_c, 0, 43, 65
3, 365023, Note_on_c, 0, 43, 0
3, 365040, Note_on_c, 0, 48, 78
3, 365040, Note_on_c, 0, 43, 89
3, 365203, Note_on_c, 0, 48, 0
3, 366300, Note_on_c, 0, 53, 57
3, 366463, Note_on_c, 0, 53, 0
3, 366480, Note_on_c, 0, 53, 65
3, 366643, Note_on_c, 0, 53, 0
3, 366660, Note_on_c, 0, 53, 68
3, 367687, Note_on_c, 0, 53, 0
3, 367740, Note_on_c, 0, 60, 83
3, 367903, Note_on_c, 0, 60, 0
3, 367920, Note_on_c, 0, 61, 71
3, 368083, Note_on_c, 0, 61, 0
3, 368100, Note_on_c, 0, 60, 65
3, 368263, Note_on_c, 0, 60, 0
3, 368280, Note_on_c, 0, 61, 71
3, 368443, Note_on_c, 0, 61, 0
3, 368460, Note_on_c, 0, 60, 63
3, 368623, Note_on_c, 0, 60, 0
3, 368640, Note_on_c, 0, 61, 71
3, 368803, Note_on_c, 0, 61, 0
3, 368820, Note_on_c, 0, 60, 66
3, 369290, Note_on_c, 0, 43, 0
3, 369290, Note_on_c, 0, 31, 0
3, 369360, Note_on_c, 0, 31, 69
3, 369360, Note_on_c, 0, 43, 69
3, 369847, Note_on_c, 0, 60, 0
3, 369900, Note_on_c, 0, 66, 88
3, 369900, Note_on_c, 0, 72, 88
3, 369900, Note_on_c, 0, 74, 87
3, 370034, Note_on_c, 0, 74, 0
3, 370034, Note_on_c, 0, 66, 0
3, 370034, Note_on_c, 0, 72, 0
3, 370170, Note_on_c, 0, 67, 75
3, 370170, Note_on_c, 0, 72, 73
3, 370170, Note_on_c, 0, 76, 74
3, 370304, Note_on_c, 0, 76, 0
3, 370304, Note_on_c, 0, 67, 0
3, 370304, Note_on_c, 0, 72, 0
3, 370440, Note_on_c, 0, 69, 75
3, 370440, Note_on_c, 0, 72, 75
3, 370440, Note_on_c, 0, 78, 75
3, 370574, Note_on_c, 0, 78, 0
3, 370574, Note_on_c, 0, 69, 0
3, 370574, Note_on_c, 0, 72, 0
3, 370710, Note_on_c, 0, 69, 67
3, 370710, Note_on_c, 0, 72, 64
3, 370710, Note_on_c, 0, 78, 68
3, 370844, Note_on_c, 0, 78, 0
3, 370844, Note_on_c, 0, 69, 0
3, 370844, Note_on_c, 0, 72, 0
3, 370980, Note_on_c, 0, 69, 67
3, 370980, Note_on_c, 0, 72, 70
3, 370980, Note_on_c, 0, 78, 67
3, 371114, Note_on_c, 0, 78, 0
3, 371114, Note_on_c, 0, 69, 0
3, 371114, Note_on_c, 0, 72, 0
3, 371250, Note_on_c, 0, 70, 70
3, 371250, Note_on_c, 0, 72, 71
3, 371250, Note_on_c, 0, 79, 71
3, 371384, Note_on_c, 0, 79, 0
3, 371384, Note_on_c, 0, 70, 0
3, 371384, Note_on_c, 0, 72, 0
3, 371520, Note_on_c, 0, 69, 66
3, 371520, Note_on_c, 0, 72, 64
3, 371520, Note_on_c, 0, 78, 67
3, 371654, Note_on_c, 0, 78, 0
3, 371654, Note_on_c, 0, 69, 0
3, 371654, Note_on_c, 0, 72, 0
3, 371790, Note_on_c, 0, 69, 65
3, 371790, Note_on_c, 0, 72, 65
3, 371790, Note_on_c, 0, 78, 66
3, 371924, Note_on_c, 0, 78, 0
3, 371924, Note_on_c, 0, 69, 0
3, 371924, Note_on_c, 0, 72, 0
3, 372060, Note_on_c, 0, 69, 68
3, 372060, Note_on_c, 0, 72, 67
3, 372060, Note_on_c, 0, 78, 70
3, 372194, Note_on_c, 0, 78, 0
3, 372194, Note_on_c, 0, 69, 0
3, 372194, Note_on_c, 0, 72, 0
3, 372330, Note_on_c, 0, 66, 58
3, 372330, Note_on_c, 0, 72, 58
3, 372330, Note_on_c, 0, 74, 57
3, 372464, Note_on_c, 0, 74, 0
3, 372464, Note_on_c, 0, 66, 0
3, 372464, Note_on_c, 0, 72, 0
3, 372600, Note_on_c, 0, 67, 70
3, 372600, Note_on_c, 0, 72, 69
3, 372600, Note_on_c, 0, 75, 73
3, 372734, Note_on_c, 0, 75, 0
3, 372734, Note_on_c, 0, 67, 0
3, 372734, Note_on_c, 0, 72, 0
3, 372870, Note_on_c, 0, 67, 64
3, 372870, Note_on_c, 0, 72, 68
3, 372870, Note_on_c, 0, 75, 68
3, 373004, Note_on_c, 0, 75, 0
3, 373004, Note_on_c, 0, 67, 0
3, 373004, Note_on_c, 0, 72, 0
3, 373140, Note_on_c, 0, 67, 71
3, 373140, Note_on_c, 0, 72, 67
3, 373140, Note_on_c, 0, 75, 69
3, 373274, Note_on_c, 0, 75, 0
3, 373274, Note_on_c, 0, 67, 0
3, 373274, Note_on_c, 0, 72, 0
3, 373410, Note_on_c, 0, 63, 59
3, 373410, Note_on_c, 0, 72, 58
3, 373544, Note_on_c, 0, 72, 0
3, 373544, Note_on_c, 0, 63, 0
3, 373680, Note_on_c, 0, 66, 73
3, 373680, Note_on_c, 0, 72, 74
3, 373680, Note_on_c, 0, 74, 73
3, 373843, Note_on_c, 0, 74, 0
3, 373843, Note_on_c, 0, 66, 0
3, 373843, Note_on_c, 0, 31, 0
3, 373843, Note_on_c, 0, 43, 0
3, 373843, Note_on_c, 0, 72, 0
3, 374220, Note_on_c, 0, 53, 63
3, 374220, Note_on_c, 0, 59, 60
3, 374220, Note_on_c, 0, 50, 59
3, 374354, Note_on_c, 0, 50, 0
3, 374354, Note_on_c, 0, 59, 0
3, 374354, Note_on_c, 0, 53, 0
3, 374490, Note_on_c, 0, 55, 70
3, 374490, Note_on_c, 0, 60, 68
3, 374490, Note_on_c, 0, 51, 69
3, 374624, Note_on_c, 0, 51, 0
3, 374624, Note_on_c, 0, 60, 0
3, 374624, Note_on_c, 0, 55, 0
3, 374760, Note_on_c, 0, 59, 74
3, 374760, Note_on_c, 0, 62, 75
3, 374760, Note_on_c, 0, 53, 72
3, 374849, Note_on_c, 0, 53, 0
3, 374849, Note_on_c, 0, 62, 0
3, 374849, Note_on_c, 0, 59, 0
3, 375300, Note_on_c, 0, 60, 61
3, 375300, Note_on_c, 0, 63, 60
3, 375300, Note_on_c, 0, 54, 59
3, 375434, Note_on_c, 0, 54, 0
3, 375434, Note_on_c, 0, 63, 0
3, 375434, Note_on_c, 0, 60, 0
3, 375570, Note_on_c, 0, 60, 64
3, 375570, Note_on_c, 0, 63, 65
3, 375570, Note_on_c, 0, 54, 64
3, 375704, Note_on_c, 0, 54, 0
3, 375704, Note_on_c, 0, 63, 0
3, 375704, Note_on_c, 0, 60, 0
3, 375840, Note_on_c, 0, 59, 65
3, 375840, Note_on_c, 0, 62, 66
3, 375840, Note_on_c, 0, 53, 67
3, 375929, Note_on_c, 0, 53, 0
3, 375929, Note_on_c, 0, 62, 0
3, 375929, Note_on_c, 0, 59, 0
3, 376380, Note_on_c, 0, 59, 63
3, 376380, Note_on_c, 0, 50, 61
3, 376380, Note_on_c, 0, 53, 62
3, 376514, Note_on_c, 0, 53, 0
3, 376514, Note_on_c, 0, 50, 0
3, 376514, Note_on_c, 0, 59, 0
3, 376650, Note_on_c, 0, 59, 64
3, 376650, Note_on_c, 0, 50, 66
3, 376650, Note_on_c, 0, 53, 63
3, 376784, Note_on_c, 0, 53, 0
3, 376784, Note_on_c, 0, 50, 0
3, 376784, Note_on_c, 0, 59, 0
3, 376920, Note_on_c, 0, 60, 71
3, 376920, Note_on_c, 0, 51, 73
3, 376920, Note_on_c, 0, 54, 74
3, 377009, Note_on_c, 0, 54, 0
3, 377009, Note_on_c, 0, 51, 0
3, 377009, Note_on_c, 0, 60, 0
3, 377460, Note_on_c, 0, 57, 61
3, 377460, Note_on_c, 0, 48, 59
3, 377460, Note_on_c, 0, 51, 61
3, 377594, Note_on_c, 0, 51, 0
3, 377594, Note_on_c, 0, 48, 0
3, 377594, Note_on_c, 0, 57, 0
3, 377730, Note_on_c, 0, 57, 62
3, 377730, Note_on_c, 0, 48, 65
3, 377730, Note_on_c, 0, 51, 65
3, 377864, Note_on_c, 0, 51, 0
3, 377864, Note_on_c, 0, 48, 0
3, 377864, Note_on_c, 0, 57, 0
3, 378000, Note_on_c, 0, 59, 75
3, 378000, Note_on_c, 0, 50, 71
3, 378000, Note_on_c, 0, 53, 72
3, 378163, Note_on_c, 0, 53, 0
3, 378163, Note_on_c, 0, 50, 0
3, 378163, Note_on_c, 0, 59, 0
3, 378180, Note_on_c, 0, 55, 59
3, 378343, Note_on_c, 0, 55, 0
3, 378360, Note_on_c, 0, 57, 71
3, 378523, Note_on_c, 0, 57, 0
3, 378540, Note_on_c, 0, 59, 73
3, 378540, Note_on_c, 0, 31, 58
3, 378540, Note_on_c, 0, 43, 58
3, 378703, Note_on_c, 0, 59, 0
3, 378720, Note_on_c, 0, 60, 69
3, 378883, Note_on_c, 0, 60, 0
3, 378900, Note_on_c, 0, 62, 72
3, 379063, Note_on_c, 0, 62, 0
3, 379080, Note_on_c, 0, 63, 72
3, 379243, Note_on_c, 0, 63, 0
3, 379260, Note_on_c, 0, 65, 71
3, 379423, Note_on_c, 0, 65, 0
3, 379440, Note_on_c, 0, 67, 69
3, 379603, Note_on_c, 0, 67, 0
3, 379620, Note_on_c, 0, 68, 98
3, 379783, Note_on_c, 0, 68, 0
3, 379800, Note_on_c, 0, 67, 64
3, 379963, Note_on_c, 0, 67, 0
3, 379980, Note_on_c, 0, 65, 61
3, 380143, Note_on_c, 0, 65, 0
3, 380160, Note_on_c, 0, 62, 59
3, 380323, Note_on_c, 0, 62, 0
3, 380340, Note_on_c, 0, 63, 70
3, 380503, Note_on_c, 0, 63, 0
3, 380520, Note_on_c, 0, 65, 68
3, 380647, Note_on_c, 0, 43, 0
3, 380647, Note_on_c, 0, 31, 0
3, 380683, Note_on_c, 0, 65, 0
3, 380700, Note_on_c, 0, 67, 101
3, 380700, Note_on_c, 0, 31, 66
3, 380700, Note_on_c, 0, 43, 64
3, 380863, Note_on_c, 0, 67, 0
3, 380880, Note_on_c, 0, 63, 58
3, 381043, Note_on_c, 0, 63, 0
3, 381060, Note_on_c, 0, 62, 61
3, 381223, Note_on_c, 0, 62, 0
3, 381240, Note_on_c, 0, 60, 64
3, 381403, Note_on_c, 0, 60, 0
3, 381420, Note_on_c, 0, 62, 72
3, 381583, Note_on_c, 0, 62, 0
3, 381600, Note_on_c, 0, 63, 70
3, 381763, Note_on_c, 0, 63, 0
3, 381780, Note_on_c, 0, 66, 102
3, 381943, Note_on_c, 0, 66, 0
3, 381960, Note_on_c, 0, 62, 60
3, 382123, Note_on_c, 0, 62, 0
3, 382140, Note_on_c, 0, 60, 61
3, 382303, Note_on_c, 0, 60, 0
3, 382320, Note_on_c, 0, 62, 73
3, 382483, Note_on_c, 0, 62, 0
3, 382483, Note_on_c, 0, 43, 0
3, 382483, Note_on_c, 0, 31, 0
3, 382860, Note_on_c, 0, 67, 61
3, 382860, Note_on_c, 0, 51, 60
3, 382860, Note_on_c, 0, 55, 58
3, 382860, Note_on_c, 0, 63, 58
3, 383023, Note_on_c, 0, 67, 0
3, 383040, Note_on_c, 0, 65, 61
3, 383185, Note_on_c, 0, 51, 0
3, 383185, Note_on_c, 0, 63, 0
3, 383185, Note_on_c, 0, 55, 0
3, 383203, Note_on_c, 0, 65, 0
3, 383220, Note_on_c, 0, 67, 69
3, 383383, Note_on_c, 0, 67, 0
3, 383400, Note_on_c, 0, 68, 75
3, 383400, Note_on_c, 0, 53, 61
3, 383400, Note_on_c, 0, 56, 60
3, 383400, Note_on_c, 0, 65, 60
3, 383725, Note_on_c, 0, 65, 0
3, 383725, Note_on_c, 0, 68, 0
3, 383725, Note_on_c, 0, 53, 0
3, 383725, Note_on_c, 0, 56, 0
3, 383760, Note_on_c, 0, 68, 66
3, 383923, Note_on_c, 0, 68, 0
3, 383940, Note_on_c, 0, 70, 70
3, 383940, Note_on_c, 0, 55, 56
3, 383940, Note_on_c, 0, 58, 57
3, 383940, Note_on_c, 0, 67, 58
3, 384265, Note_on_c, 0, 67, 0
3, 384265, Note_on_c, 0, 70, 0
3, 384265, Note_on_c, 0, 55, 0
3, 384265, Note_on_c, 0, 58, 0
3, 384300, Note_on_c, 0, 70, 64
3, 384463, Note_on_c, 0, 70, 0
3, 384480, Note_on_c, 0, 67, 63
3, 384480, Note_on_c, 0, 51, 60
3, 384480, Note_on_c, 0, 55, 61
3, 384480, Note_on_c, 0, 63, 60
3, 384805, Note_on_c, 0, 63, 0
3, 384805, Note_on_c, 0, 67, 0
3, 384805, Note_on_c, 0, 51, 0
3, 384805, Note_on_c, 0, 55, 0
3, 384840, Note_on_c, 0, 67, 65
3, 385003, Note_on_c, 0, 67, 0
3, 385020, Note_on_c, 0, 63, 58
3, 385020, Note_on_c, 0, 48, 58
3, 385020, Note_on_c, 0, 51, 59
3, 385020, Note_on_c, 0, 60, 60
3, 385345, Note_on_c, 0, 60, 0
3, 385345, Note_on_c, 0, 63, 0
3, 385345, Note_on_c, 0, 48, 0
3, 385345, Note_on_c, 0, 51, 0
3, 385380, Note_on_c, 0, 63, 63
3, 385543, Note_on_c, 0, 63, 0
3, 385560, Note_on_c, 0, 62, 65
3, 385560, Note_on_c, 0, 46, 62
3, 385560, Note_on_c, 0, 50, 60
3, 385560, Note_on_c, 0, 58, 60
3, 385885, Note_on_c, 0, 58, 0
3, 385885, Note_on_c, 0, 62, 0
3, 385885, Note_on_c, 0, 46, 0
3, 385885, Note_on_c, 0, 50, 0
3, 385920, Note_on_c, 0, 62, 65
3, 386083, Note_on_c, 0, 62, 0
3, 386100, Note_on_c, 0, 58, 57
3, 386100, Note_on_c, 0, 43, 58
3, 386100, Note_on_c, 0, 46, 58
3, 386100, Note_on_c, 0, 55, 58
3, 386425, Note_on_c, 0, 55, 0
3, 386425, Note_on_c, 0, 58, 0
3, 386425, Note_on_c, 0, 43, 0
3, 386425, Note_on_c, 0, 46, 0
3, 386460, Note_on_c, 0, 58, 63
3, 386623, Note_on_c, 0, 58, 0
3, 386640, Note_on_c, 0, 63, 81
3, 386640, Note_on_c, 0, 43, 63
3, 386640, Note_on_c, 0, 46, 63
3, 386640, Note_on_c, 0, 55, 62
3, 386803, Note_on_c, 0, 63, 0
3, 386965, Note_on_c, 0, 43, 0
3, 386965, Note_on_c, 0, 46, 0
3, 386965, Note_on_c, 0, 55, 0
3, 387180, Note_on_c, 0, 73, 61
3, 387180, Note_on_c, 0, 43, 58
3, 387343, Note_on_c, 0, 73, 0
3, 387360, Note_on_c, 0, 74, 69
3, 387523, Note_on_c, 0, 74, 0
3, 387540, Note_on_c, 0, 76, 68
3, 387667, Note_on_c, 0, 43, 0
3, 387703, Note_on_c, 0, 76, 0
3, 387720, Note_on_c, 0, 81, 107
3, 387720, Note_on_c, 0, 31, 68
3, 387720, Note_on_c, 0, 43, 67
3, 387883, Note_on_c, 0, 81, 0
3, 387900, Note_on_c, 0, 79, 65
3, 388063, Note_on_c, 0, 79, 0
3, 388080, Note_on_c, 0, 77, 60
3, 388243, Note_on_c, 0, 77, 0
3, 388260, Note_on_c, 0, 76, 65
3, 388423, Note_on_c, 0, 76, 0
3, 388440, Note_on_c, 0, 77, 67
3, 388603, Note_on_c, 0, 77, 0
3, 388620, Note_on_c, 0, 79, 72
3, 388730, Note_on_c, 0, 43, 0
3, 388730, Note_on_c, 0, 31, 0
3, 388783, Note_on_c, 0, 79, 0
3, 388800, Note_on_c, 0, 81, 101
3, 388800, Note_on_c, 0, 31, 69
3, 388800, Note_on_c, 0, 43, 71
3, 388963, Note_on_c, 0, 81, 0
3, 388980, Note_on_c, 0, 79, 61
3, 389143, Note_on_c, 0, 79, 0
3, 389160, Note_on_c, 0, 77, 60
3, 389323, Note_on_c, 0, 77, 0
3, 389340, Note_on_c, 0, 76, 62
3, 389503, Note_on_c, 0, 76, 0
3, 389520, Note_on_c, 0, 77, 67
3, 389683, Note_on_c, 0, 77, 0
3, 389700, Note_on_c, 0, 79, 71
3, 389810, Note_on_c, 0, 43, 0
3, 389810, Note_on_c, 0, 31, 0
3, 389863, Note_on_c, 0, 79, 0
3, 389880, Note_on_c, 0, 79, 95
3, 389880, Note_on_c, 0, 31, 69
3, 389880, Note_on_c, 0, 43, 70
3, 390043, Note_on_c, 0, 79, 0
3, 390060, Note_on_c, 0, 77, 63
3, 390223, Note_on_c, 0, 77, 0
3, 390240, Note_on_c, 0, 76, 60
3, 390403, Note_on_c, 0, 76, 0
3, 390420, Note_on_c, 0, 74, 62
3, 390583, Note_on_c, 0, 74, 0
3, 390600, Note_on_c, 0, 76, 72
3, 390763, Note_on_c, 0, 76, 0
3, 390780, Note_on_c, 0, 79, 73
3, 390890, Note_on_c, 0, 43, 0
3, 390890, Note_on_c, 0, 31, 0
3, 390943, Note_on_c, 0, 79, 0
3, 390960, Note_on_c, 0, 81, 73
3, 390960, Note_on_c, 0, 31, 69
3, 390960, Note_on_c, 0, 43, 68
3, 391123, Note_on_c, 0, 43, 0
3, 391123, Note_on_c, 0, 31, 0
3, 391123, Note_on_c, 0, 81, 0
3, 391500, Note_on_c, 0, 82, 60
3, 391500, Note_on_c, 0, 31, 60
3, 391500, Note_on_c, 0, 43, 58
3, 391663, Note_on_c, 0, 82, 0
3, 391680, Note_on_c, 0, 79, 59
3, 391843, Note_on_c, 0, 79, 0
3, 391860, Note_on_c, 0, 77, 62
3, 391987, Note_on_c, 0, 43, 0
3, 391987, Note_on_c, 0, 31, 0
3, 392023, Note_on_c, 0, 77, 0
3, 392040, Note_on_c, 0, 77, 69
3, 392040, Note_on_c, 0, 53, 87
3, 392040, Note_on_c, 0, 58, 86
3, 392040, Note_on_c, 0, 65, 88
3, 392203, Note_on_c, 0, 77, 0
3, 392220, Note_on_c, 0, 74, 60
3, 392383, Note_on_c, 0, 74, 0
3, 392400, Note_on_c, 0, 72, 60
3, 392563, Note_on_c, 0, 72, 0
3, 392580, Note_on_c, 0, 70, 63
3, 392580, Note_on_c, 0, 31, 60
3, 392580, Note_on_c, 0, 43, 57
3, 392743, Note_on_c, 0, 70, 0
3, 392760, Note_on_c, 0, 67, 57
3, 392923, Note_on_c, 0, 67, 0
3, 392940, Note_on_c, 0, 65, 61
3, 393067, Note_on_c, 0, 43, 0
3, 393067, Note_on_c, 0, 31, 0
3, 393103, Note_on_c, 0, 65, 0
3, 393120, Note_on_c, 0, 65, 68
3, 393283, Note_on_c, 0, 65, 0
3, 393300, Note_on_c, 0, 67, 69
3, 393445, Note_on_c, 0, 58, 0
3, 393445, Note_on_c, 0, 65, 0
3, 393445, Note_on_c, 0, 53, 0
3, 393463, Note_on_c, 0, 67, 0
3, 393480, Note_on_c, 0, 65, 61
3, 393643, Note_on_c, 0, 65, 0
3, 393660, Note_on_c, 0, 68, 73
3, 393660, Note_on_c, 0, 31, 57
3, 393660, Note_on_c, 0, 43, 58
3, 393823, Note_on_c, 0, 68, 0
3, 393840, Note_on_c, 0, 70, 72
3, 394003, Note_on_c, 0, 70, 0
3, 394020, Note_on_c, 0, 68, 62
3, 394147, Note_on_c, 0, 43, 0
3, 394147, Note_on_c, 0, 31, 0
3, 394183, Note_on_c, 0, 68, 0
3, 394200, Note_on_c, 0, 67, 62
3, 394200, Note_on_c, 0, 53, 90
3, 394200, Note_on_c, 0, 55, 88
3, 394525, Note_on_c, 0, 67, 0
3, 394560, Note_on_c, 0, 62, 55
3, 394723, Note_on_c, 0, 62, 0
3, 394740, Note_on_c, 0, 65, 73
3, 394903, Note_on_c, 0, 65, 0
3, 394920, Note_on_c, 0, 67, 71
3, 395083, Note_on_c, 0, 67, 0
3, 395100, Note_on_c, 0, 65, 62
3, 395210, Note_on_c, 0, 55, 0
3, 395210, Note_on_c, 0, 53, 0
3, 395263, Note_on_c, 0, 65, 0
3, 395280, Note_on_c, 0, 64, 64
3, 395280, Note_on_c, 0, 31, 50
3, 395280, Note_on_c, 0, 43, 50
3, 395443, Note_on_c, 0, 43, 0
3, 395443, Note_on_c, 0, 31, 0
3, 395443, Note_on_c, 0, 64, 0
3, 395820, Note_on_c, 0, 84, 59
3, 395820, Note_on_c, 0, 31, 58
3, 395820, Note_on_c, 0, 43, 58
3, 395983, Note_on_c, 0, 84, 0
3, 396000, Note_on_c, 0, 81, 58
3, 396163, Note_on_c, 0, 81, 0
3, 396180, Note_on_c, 0, 79, 61
3, 396307, Note_on_c, 0, 43, 0
3, 396307, Note_on_c, 0, 31, 0
3, 396343, Note_on_c, 0, 79, 0
3, 396360, Note_on_c, 0, 79, 70
3, 396360, Note_on_c, 0, 58, 90
3, 396360, Note_on_c, 0, 64, 88
3, 396360, Note_on_c, 0, 70, 88
3, 396523, Note_on_c, 0, 79, 0
3, 396540, Note_on_c, 0, 76, 60
3, 396703, Note_on_c, 0, 76, 0
3, 396720, Note_on_c, 0, 74, 62
3, 396883, Note_on_c, 0, 74, 0
3, 396900, Note_on_c, 0, 72, 62
3, 396900, Note_on_c, 0, 31, 58
3, 396900, Note_on_c, 0, 43, 56
3, 397063, Note_on_c, 0, 72, 0
3, 397080, Note_on_c, 0, 69, 59
3, 397243, Note_on_c, 0, 69, 0
3, 397260, Note_on_c, 0, 67, 61
3, 397370, Note_on_c, 0, 64, 0
3, 397370, Note_on_c, 0, 70, 0
3, 397370, Note_on_c, 0, 58, 0
3, 397423, Note_on_c, 0, 67, 0
3, 397440, Note_on_c, 0, 67, 67
3, 397440, Note_on_c, 0, 31, 53
3, 397440, Note_on_c, 0, 43, 50
3, 397603, Note_on_c, 0, 67, 0
3, 397620, Note_on_c, 0, 69, 69
3, 397783, Note_on_c, 0, 69, 0
3, 397800, Note_on_c, 0, 67, 62
3, 397927, Note_on_c, 0, 43, 0
3, 397927, Note_on_c, 0, 31, 0
3, 397963, Note_on_c, 0, 67, 0
3, 397980, Note_on_c, 0, 70, 74
3, 397980, Note_on_c, 0, 31, 63
3, 397980, Note_on_c, 0, 43, 62
3, 398143, Note_on_c, 0, 70, 0
3, 398160, Note_on_c, 0, 72, 72
3, 398323, Note_on_c, 0, 72, 0
3, 398340, Note_on_c, 0, 70, 60
3, 398467, Note_on_c, 0, 31, 0
3, 398467, Note_on_c, 0, 43, 0
3, 398503, Note_on_c, 0, 70, 0
3, 398520, Note_on_c, 0, 69, 63
3, 398520, Note_on_c, 0, 52, 89
3, 398520, Note_on_c, 0, 55, 89
3, 398520, Note_on_c, 0, 57, 89
3, 398845, Note_on_c, 0, 69, 0
3, 398880, Note_on_c, 0, 64, 55
3, 399043, Note_on_c, 0, 64, 0
3, 399060, Note_on_c, 0, 67, 73
3, 399223, Note_on_c, 0, 67, 0
3, 399240, Note_on_c, 0, 69, 70
3, 399403, Note_on_c, 0, 69, 0
3, 399420, Note_on_c, 0, 67, 61
3, 399530, Note_on_c, 0, 57, 0
3, 399530, Note_on_c, 0, 52, 0
3, 399530, Note_on_c, 0, 55, 0
3, 399583, Note_on_c, 0, 67, 0
3, 399600, Note_on_c, 0, 62, 62
3, 399600, Note_on_c, 0, 66, 64
3, 399600, Note_on_c, 0, 36, 57
3, 399600, Note_on_c, 0, 48, 54
3, 399763, Note_on_c, 0, 48, 0
3, 399763, Note_on_c, 0, 66, 0
3, 399763, Note_on_c, 0, 62, 0
3, 399763, Note_on_c, 0, 36, 0
3, 400140, Note_on_c, 0, 86, 82
3, 400140, Note_on_c, 0, 36, 59
3, 400140, Note_on_c, 0, 48, 58
3, 400303, Note_on_c, 0, 86, 0
3, 400320, Note_on_c, 0, 82, 56
3, 400483, Note_on_c, 0, 82, 0
3, 400500, Note_on_c, 0, 81, 60
3, 400627, Note_on_c, 0, 48, 0
3, 400627, Note_on_c, 0, 36, 0
3, 400663, Note_on_c, 0, 81, 0
3, 400680, Note_on_c, 0, 81, 91
3, 400680, Note_on_c, 0, 54, 90
3, 400680, Note_on_c, 0, 57, 88
3, 400680, Note_on_c, 0, 66, 86
3, 400843, Note_on_c, 0, 81, 0
3, 400860, Note_on_c, 0, 76, 54
3, 401023, Note_on_c, 0, 76, 0
3, 401040, Note_on_c, 0, 69, 48
3, 401203, Note_on_c, 0, 69, 0
3, 401220, Note_on_c, 0, 74, 104
3, 401383, Note_on_c, 0, 74, 0
3, 401400, Note_on_c, 0, 69, 58
3, 401563, Note_on_c, 0, 69, 0
3, 401580, Note_on_c, 0, 63, 52
3, 401690, Note_on_c, 0, 57, 0
3, 401690, Note_on_c, 0, 54, 0
3, 401690, Note_on_c, 0, 66, 0
3, 401743, Note_on_c, 0, 63, 0
3, 401760, Note_on_c, 0, 69, 107
3, 401760, Note_on_c, 0, 36, 52
3, 401760, Note_on_c, 0, 48, 51
3, 401923, Note_on_c, 0, 69, 0
3, 401940, Note_on_c, 0, 62, 56
3, 402103, Note_on_c, 0, 62, 0
3, 402247, Note_on_c, 0, 48, 0
3, 402247, Note_on_c, 0, 36, 0
3, 402300, Note_on_c, 0, 87, 84
3, 402300, Note_on_c, 0, 34, 58
3, 402300, Note_on_c, 0, 46, 57
3, 402463, Note_on_c, 0, 87, 0
3, 402480, Note_on_c, 0, 83, 58
3, 402643, Note_on_c, 0, 83, 0
3, 402660, Note_on_c, 0, 82, 61
3, 402787, Note_on_c, 0, 46, 0
3, 402787, Note_on_c, 0, 34, 0
3, 402823, Note_on_c, 0, 82, 0
3, 402840, Note_on_c, 0, 82, 95
3, 402840, Note_on_c, 0, 54, 86
3, 402840, Note_on_c, 0, 58, 86
3, 402840, Note_on_c, 0, 66, 87
3, 403003, Note_on_c, 0, 82, 0
3, 403020, Note_on_c, 0, 77, 54
3, 403183, Note_on_c, 0, 77, 0
3, 403200, Note_on_c, 0, 70, 51
3, 403363, Note_on_c, 0, 70, 0
3, 403380, Note_on_c, 0, 75, 105
3, 403543, Note_on_c, 0, 75, 0
3, 403560, Note_on_c, 0, 70, 58
3, 403723, Note_on_c, 0, 70, 0
3, 403740, Note_on_c, 0, 63, 51
3, 403850, Note_on_c, 0, 58, 0
3, 403850, Note_on_c, 0, 54, 0
3, 403850, Note_on_c, 0, 66, 0
3, 403903, Note_on_c, 0, 63, 0
3, 403920, Note_on_c, 0, 70, 109
3, 403920, Note_on_c, 0, 34, 53
3, 403920, Note_on_c, 0, 46, 50
3, 404083, Note_on_c, 0, 70, 0
3, 404100, Note_on_c, 0, 63, 54
3, 404263, Note_on_c, 0, 63, 0
3, 404280, Note_on_c, 0, 58, 55
3, 404407, Note_on_c, 0, 46, 0
3, 404407, Note_on_c, 0, 34, 0
3, 404443, Note_on_c, 0, 58, 0
3, 404460, Note_on_c, 0, 54, 110
3, 404460, Note_on_c, 0, 60, 107
3, 404460, Note_on_c, 0, 63, 109
3, 404460, Note_on_c, 0, 66, 107
3, 404460, Note_on_c, 0, 33, 84
3, 404460, Note_on_c, 0, 45, 83
3, 405487, Note_on_c, 0, 45, 0
3, 405487, Note_on_c, 0, 33, 0
3, 405487, Note_on_c, 0, 63, 0
3, 405487, Note_on_c, 0, 60, 0
3, 405487, Note_on_c, 0, 54, 0
3, 405487, Note_on_c, 0, 66, 0
3, 405540, Note_on_c, 0, 54, 90
3, 405540, Note_on_c, 0, 60, 90
3, 405540, Note_on_c, 0, 63, 91
3, 405540, Note_on_c, 0, 66, 91
3, 405540, Note_on_c, 0, 33, 89
3, 405540, Note_on_c, 0, 45, 92
3, 406323, Note_on_c, 0, 45, 0
3, 406323, Note_on_c, 0, 33, 0
3, 406323, Note_on_c, 0, 63, 0
3, 406323, Note_on_c, 0, 60, 0
3, 406323, Note_on_c, 0, 54, 0
3, 406323, Note_on_c, 0, 66, 0
3, 406350, Note_on_c, 0, 54, 91
3, 406350, Note_on_c, 0, 60, 92
3, 406350, Note_on_c, 0, 63, 93
3, 406350, Note_on_c, 0, 66, 90
3, 406350, Note_on_c, 0, 32, 85
3, 406350, Note_on_c, 0, 44, 85
3, 406593, Note_on_c, 0, 44, 0
3, 406593, Note_on_c, 0, 32, 0
3, 406593, Note_on_c, 0, 63, 0
3, 406593, Note_on_c, 0, 60, 0
3, 406593, Note_on_c, 0, 54, 0
3, 406593, Note_on_c, 0, 66, 0
3, 406620, Note_on_c, 0, 54, 93
3, 406620, Note_on_c, 0, 60, 95
3, 406620, Note_on_c, 0, 63, 94
3, 406620, Note_on_c, 0, 66, 92
3, 406620, Note_on_c, 0, 32, 92
3, 406620, Note_on_c, 0, 44, 91
3, 407647, Note_on_c, 0, 44, 0
3, 407647, Note_on_c, 0, 32, 0
3, 407647, Note_on_c, 0, 63, 0
3, 407647, Note_on_c, 0, 60, 0
3, 407647, Note_on_c, 0, 54, 0
3, 407647, Note_on_c, 0, 66, 0
3, 407700, Note_on_c, 0, 54, 92
3, 407700, Note_on_c, 0, 60, 92
3, 407700, Note_on_c, 0, 63, 90
3, 407700, Note_on_c, 0, 66, 91
3, 407700, Note_on_c, 0, 32, 91
3, 407700, Note_on_c, 0, 44, 92
3, 408187, Note_on_c, 0, 44, 0
3, 408187, Note_on_c, 0, 32, 0
3, 408187, Note_on_c, 0, 63, 0
3, 408187, Note_on_c, 0, 60, 0
3, 408187, Note_on_c, 0, 54, 0
3, 408187, Note_on_c, 0, 66, 0
3, 408240, Note_on_c, 0, 60, 109
3, 408240, Note_on_c, 0, 62, 108
3, 408240, Note_on_c, 0, 66, 107
3, 408240, Note_on_c, 0, 72, 108
3, 408240, Note_on_c, 0, 38, 117
3, 408240, Note_on_c, 0, 45, 117
3, 408240, Note_on_c, 0, 54, 116
3, 408727, Note_on_c, 0, 54, 0
3, 408727, Note_on_c, 0, 62, 0
3, 408727, Note_on_c, 0, 45, 0
3, 408727, Note_on_c, 0, 66, 0
3, 408727, Note_on_c, 0, 38, 0
3, 408727, Note_on_c, 0, 60, 0
3, 408727, Note_on_c, 0, 72, 0
3, 408780, Note_on_c, 0, 60, 92
3, 408780, Note_on_c, 0, 62, 93
3, 408780, Note_on_c, 0, 66, 95
3, 408780, Note_on_c, 0, 72, 94
3, 408780, Note_on_c, 0, 38, 92
3, 408780, Note_on_c, 0, 45, 96
3, 408780, Note_on_c, 0, 54, 95
3, 409023, Note_on_c, 0, 54, 0
3, 409023, Note_on_c, 0, 62, 0
3, 409023, Note_on_c, 0, 45, 0
3, 409023, Note_on_c, 0, 66, 0
3, 409023, Note_on_c, 0, 38, 0
3, 409023, Note_on_c, 0, 60, 0
3, 409023, Note_on_c, 0, 72, 0
3, 409050, Note_on_c, 0, 60, 93
3, 409050, Note_on_c, 0, 62, 92
3, 409050, Note_on_c, 0, 66, 93
3, 409050, Note_on_c, 0, 72, 90
3, 409050, Note_on_c, 0, 38, 90
3, 409050, Note_on_c, 0, 45, 92
3, 409050, Note_on_c, 0, 54, 93
3, 409293, Note_on_c, 0, 54, 0
3, 409293, Note_on_c, 0, 62, 0
3, 409293, Note_on_c, 0, 45, 0
3, 409293, Note_on_c, 0, 66, 0
3, 409293, Note_on_c, 0, 38, 0
3, 409293, Note_on_c, 0, 60, 0
3, 409293, Note_on_c, 0, 72, 0
3, 409320, Note_on_c, 0, 60, 66
3, 409320, Note_on_c, 0, 62, 65
3, 409320, Note_on_c, 0, 66, 65
3, 409320, Note_on_c, 0, 72, 67
3, 409320, Note_on_c, 0, 38, 93
3, 409320, Note_on_c, 0, 45, 95
3, 409320, Note_on_c, 0, 54, 96
3, 409860, Note_on_c, 0, 86, 83
3, 410023, Note_on_c, 0, 86, 0
3, 410040, Note_on_c, 0, 81, 52
3, 410203, Note_on_c, 0, 81, 0
3, 410220, Note_on_c, 0, 74, 49
3, 410330, Note_on_c, 0, 62, 0
3, 410330, Note_on_c, 0, 60, 0
3, 410330, Note_on_c, 0, 72, 0
3, 410330, Note_on_c, 0, 66, 0
3, 410383, Note_on_c, 0, 74, 0
3, 410400, Note_on_c, 0, 81, 108
3, 410563, Note_on_c, 0, 81, 0
3, 410580, Note_on_c, 0, 76, 56
3, 410743, Note_on_c, 0, 76, 0
3, 410760, Note_on_c, 0, 69, 51
3, 410887, Note_on_c, 0, 54, 0
3, 410887, Note_on_c, 0, 45, 0
3, 410887, Note_on_c, 0, 38, 0
3, 410923, Note_on_c, 0, 69, 0
3, 410940, Note_on_c, 0, 60, 72
3, 410940, Note_on_c, 0, 62, 71
3, 410940, Note_on_c, 0, 66, 69
3, 410940, Note_on_c, 0, 72, 71
3, 410940, Note_on_c, 0, 38, 67
3, 410940, Note_on_c, 0, 45, 66
3, 410940, Note_on_c, 0, 54, 65
3, 411967, Note_on_c, 0, 54, 0
3, 411967, Note_on_c, 0, 62, 0
3, 411967, Note_on_c, 0, 45, 0
3, 411967, Note_on_c, 0, 66, 0
3, 411967, Note_on_c, 0, 38, 0
3, 411967, Note_on_c, 0, 60, 0
3, 411967, Note_on_c, 0, 72, 0
3, 412020, Note_on_c, 0, 60, 65
3, 412020, Note_on_c, 0, 62, 65
3, 412020, Note_on_c, 0, 66, 67
3, 412020, Note_on_c, 0, 72, 66
3, 412020, Note_on_c, 0, 38, 91
3, 412020, Note_on_c, 0, 45, 92
3, 412020, Note_on_c, 0, 54, 91
3, 412507, Note_on_c, 0, 54, 0
3, 412507, Note_on_c, 0, 62, 0
3, 412507, Note_on_c, 0, 45, 0
3, 412507, Note_on_c, 0, 66, 0
3, 412507, Note_on_c, 0, 38, 0
3, 412507, Note_on_c, 0, 60, 0
3, 412507, Note_on_c, 0, 72, 0
3, 412560, Note_on_c, 0, 31, 0
3, 412560, Note_on_c, 0, 43, 0
3, 412560, Note_on_c, 0, 55, 76
3, 412560, Note_on_c, 0, 60, 76
3, 412560, Note_on_c, 0, 64, 74
3, 412560, Note_on_c, 0, 67, 75
3, 412560, Note_on_c, 0, 31, 46
3, 412560, Note_on_c, 0, 43, 47
3, 412560, Note_on_c, 0, 52, 114
3, 413100, Note_on_c, 0, 67, 60
3, 413100, Note_on_c, 0, 79, 62
3, 413100, Note_on_c, 0, 55, 61
3, 413263, Note_on_c, 0, 79, 0
3, 413263, Note_on_c, 0, 67, 0
3, 413263, Note_on_c, 0, 55, 0
3, 413280, Note_on_c, 0, 67, 62
3, 413280, Note_on_c, 0, 79, 63
3, 413280, Note_on_c, 0, 55, 65
3, 413443, Note_on_c, 0, 79, 0
3, 413443, Note_on_c, 0, 67, 0
3, 413443, Note_on_c, 0, 55, 0
3, 413460, Note_on_c, 0, 67, 68
3, 413460, Note_on_c, 0, 79, 67
3, 413460, Note_on_c, 0, 55, 67
3, 413570, Note_on_c, 0, 67, 0
3, 413570, Note_on_c, 0, 60, 0
3, 413570, Note_on_c, 0, 55, 0
3, 413570, Note_on_c, 0, 52, 0
3, 413570, Note_on_c, 0, 64, 0
3, 413623, Note_on_c, 0, 67, 0
3, 413623, Note_on_c, 0, 55, 0
3, 413623, Note_on_c, 0, 79, 0
3, 413640, Note_on_c, 0, 67, 69
3, 413640, Note_on_c, 0, 79, 70
3, 413640, Note_on_c, 0, 55, 69
3, 414650, Note_on_c, 0, 55, 0
3, 414650, Note_on_c, 0, 67, 0
3, 414650, Note_on_c, 0, 79, 0
3, 414720, Note_on_c, 0, 31, 0
3, 414720, Note_on_c, 0, 43, 0
3, 414720, Note_on_c, 0, 55, 89
3, 414720, Note_on_c, 0, 60, 89
3, 414720, Note_on_c, 0, 63, 91
3, 414720, Note_on_c, 0, 66, 89
3, 414720, Note_on_c, 0, 67, 89
3, 414720, Note_on_c, 0, 31, 46
3, 414720, Note_on_c, 0, 43, 46
3, 414720, Note_on_c, 0, 51, 92
3, 415260, Note_on_c, 0, 67, 59
3, 415260, Note_on_c, 0, 55, 60
3, 415423, Note_on_c, 0, 67, 0
3, 415423, Note_on_c, 0, 55, 0
3, 415440, Note_on_c, 0, 67, 64
3, 415440, Note_on_c, 0, 55, 65
3, 415603, Note_on_c, 0, 67, 0
3, 415603, Note_on_c, 0, 55, 0
3, 415620, Note_on_c, 0, 67, 65
3, 415620, Note_on_c, 0, 55, 65
3, 415730, Note_on_c, 0, 66, 0
3, 415730, Note_on_c, 0, 51, 0
3, 415730, Note_on_c, 0, 67, 0
3, 415730, Note_on_c, 0, 60, 0
3, 415730, Note_on_c, 0, 55, 0
3, 415730, Note_on_c, 0, 63, 0
3, 415783, Note_on_c, 0, 55, 0
3, 415783, Note_on_c, 0, 67, 0
3, 415800, Note_on_c, 0, 67, 69
3, 415800, Note_on_c, 0, 55, 69
3, 416810, Note_on_c, 0, 55, 0
3, 416810, Note_on_c, 0, 67, 0
3, 416880, Note_on_c, 0, 31, 0
3, 416880, Note_on_c, 0, 43, 0
3, 416880, Note_on_c, 0, 55, 93
3, 416880, Note_on_c, 0, 60, 94
3, 416880, Note_on_c, 0, 62, 94
3, 416880, Note_on_c, 0, 65, 93
3, 416880, Note_on_c, 0, 67, 94
3, 416880, Note_on_c, 0, 31, 44
3, 416880, Note_on_c, 0, 43, 43
3, 416880, Note_on_c, 0, 50, 102
3, 416880, Note_on_c, 0, 53, 99
3, 417420, Note_on_c, 0, 55, 61
3, 417420, Note_on_c, 0, 43, 61
3, 417583, Note_on_c, 0, 43, 0
3, 417583, Note_on_c, 0, 55, 0
3, 417600, Note_on_c, 0, 55, 66
3, 417600, Note_on_c, 0, 43, 65
3, 417763, Note_on_c, 0, 43, 0
3, 417763, Note_on_c, 0, 55, 0
3, 417780, Note_on_c, 0, 55, 66
3, 417780, Note_on_c, 0, 43, 64
3, 417890, Note_on_c, 0, 65, 0
3, 417890, Note_on_c, 0, 50, 0
3, 417890, Note_on_c, 0, 60, 0
3, 417890, Note_on_c, 0, 67, 0
3, 417890, Note_on_c, 0, 55, 0
3, 417890, Note_on_c, 0, 62, 0
3, 417890, Note_on_c, 0, 53, 0
3, 417943, Note_on_c, 0, 43, 0
3, 417943, Note_on_c, 0, 55, 0
3, 417960, Note_on_c, 0, 55, 69
3, 417960, Note_on_c, 0, 43, 69
3, 418447, Note_on_c, 0, 55, 0
3, 418500, Note_on_c, 0, 55, 117
3, 418500, Note_on_c, 0, 67, 117
3, 418970, Note_on_c, 0, 43, 0
3, 418987, Note_on_c, 0, 55, 0
3, 418987, Note_on_c, 0, 67, 0
3, 419040, Note_on_c, 0, 31, 0
3, 419040, Note_on_c, 0, 43, 0
3, 419040, Note_on_c, 0, 55, 93
3, 419040, Note_on_c, 0, 59, 95
3, 419040, Note_on_c, 0, 62, 94
3, 419040, Note_on_c, 0, 65, 96
3, 419040, Note_on_c, 0, 67, 93
3, 419040, Note_on_c, 0, 31, 67
3, 419040, Note_on_c, 0, 43, 65
3, 419040, Note_on_c, 0, 50, 95
3, 419040, Note_on_c, 0, 53, 95
3, 419580, Note_on_c, 0, 43, 63
3, 419580, Note_on_c, 0, 31, 62
3, 419743, Note_on_c, 0, 43, 0
3, 419743, Note_on_c, 0, 31, 0
3, 419760, Note_on_c, 0, 43, 65
3, 419760, Note_on_c, 0, 31, 63
3, 419923, Note_on_c, 0, 31, 0
3, 419923, Note_on_c, 0, 43, 0
3, 419940, Note_on_c, 0, 43, 66
3, 419940, Note_on_c, 0, 31, 67
3, 420050, Note_on_c, 0, 50, 0
3, 420050, Note_on_c, 0, 55, 0
3, 420050, Note_on_c, 0, 65, 0
3, 420050, Note_on_c, 0, 62, 0
3, 420050, Note_on_c, 0, 53, 0
3, 420050, Note_on_c, 0, 67, 0
3, 420050, Note_on_c, 0, 59, 0
3, 420103, Note_on_c, 0, 43, 0
3, 420103, Note_on_c, 0, 31, 0
3, 420120, Note_on_c, 0, 43, 69
3, 420120, Note_on_c, 0, 31, 70
3, 421130, Note_on_c, 0, 31, 0
3, 421130, Note_on_c, 0, 43, 0
3, 421200, Note_on_c, 0, 63, 117
3, 421200, Note_on_c, 0, 67, 117
3, 421200, Note_on_c, 0, 72, 117
3, 421200, Note_on_c, 0, 75, 117
3, 421200, Note_on_c, 0, 48, 117
3, 421200, Note_on_c, 0, 51, 117
3, 421200, Note_on_c, 0, 55, 117
3, 421200, Note_on_c, 0, 60, 117
3, 422210, Note_on_c, 0, 60, 0
3, 422210, Note_on_c, 0, 63, 0
3, 422210, Note_on_c, 0, 67, 0
3, 422210, Note_on_c, 0, 55, 0
3, 422210, Note_on_c, 0, 72, 0
3, 422210, Note_on_c, 0, 48, 0
3, 422210, Note_on_c, 0, 51, 0
3, 422210, Note_on_c, 0, 75, 0
3, 422280, Note_on_c, 0, 62, 95
3, 422280, Note_on_c, 0, 67, 94
3, 422280, Note_on_c, 0, 70, 94
3, 422280, Note_on_c, 0, 74, 93
3, 422280, Note_on_c, 0, 43, 94
3, 422280, Note_on_c, 0, 50, 90
3, 422280, Note_on_c, 0, 58, 94
3, 423290, Note_on_c, 0, 58, 0
3, 423290, Note_on_c, 0, 67, 0
3, 423290, Note_on_c, 0, 50, 0
3, 423290, Note_on_c, 0, 74, 0
3, 423290, Note_on_c, 0, 43, 0
3, 423290, Note_on_c, 0, 62, 0
3, 423290, Note_on_c, 0, 70, 0
3, 423360, Note_on_c, 0, 61, 88
3, 423360, Note_on_c, 0, 65, 87
3, 423360, Note_on_c, 0, 70, 88
3, 423360, Note_on_c, 0, 73, 90
3, 423360, Note_on_c, 0, 46, 96
3, 423360, Note_on_c, 0, 49, 95
3, 423360, Note_on_c, 0, 53, 93
3, 423360, Note_on_c, 0, 58, 93
3, 424370, Note_on_c, 0, 58, 0
3, 424370, Note_on_c, 0, 61, 0
3, 424370, Note_on_c, 0, 65, 0
3, 424370, Note_on_c, 0, 53, 0
3, 424370, Note_on_c, 0, 70, 0
3, 424370, Note_on_c, 0, 46, 0
3, 424370, Note_on_c, 0, 49, 0
3, 424370, Note_on_c, 0, 73, 0
3, 424440, Note_on_c, 0, 60, 87
3, 424440, Note_on_c, 0, 65, 89
3, 424440, Note_on_c, 0, 72, 90
3, 424440, Note_on_c, 0, 41, 88
3, 424440, Note_on_c, 0, 48, 86
3, 424440, Note_on_c, 0, 56, 86
3, 426007, Note_on_c, 0, 56, 0
3, 426007, Note_on_c, 0, 48, 0
3, 426007, Note_on_c, 0, 72, 0
3, 426007, Note_on_c, 0, 65, 0
3, 426007, Note_on_c, 0, 60, 0
3, 426007, Note_on_c, 0, 41, 0
3, 426060, Note_on_c, 0, 59, 87
3, 426060, Note_on_c, 0, 63, 87
3, 426060, Note_on_c, 0, 68, 85
3, 426060, Note_on_c, 0, 71, 86
3, 426060, Note_on_c, 0, 44, 91
3, 426060, Note_on_c, 0, 47, 92
3, 426060, Note_on_c, 0, 51, 90
3, 426060, Note_on_c, 0, 56, 93
3, 427087, Note_on_c, 0, 56, 0
3, 427087, Note_on_c, 0, 59, 0
3, 427087, Note_on_c, 0, 63, 0
3, 427087, Note_on_c, 0, 51, 0
3, 427087, Note_on_c, 0, 68, 0
3, 427087, Note_on_c, 0, 44, 0
3, 427087, Note_on_c, 0, 47, 0
3, 427087, Note_on_c, 0, 71, 0
3, 427140, Note_on_c, 0, 58, 86
3, 427140, Note_on_c, 0, 63, 88
3, 427140, Note_on_c, 0, 67, 86
3, 427140, Note_on_c, 0, 70, 87
3, 427140, Note_on_c, 0, 39, 86
3, 427140, Note_on_c, 0, 46, 85
3, 427140, Note_on_c, 0, 55, 86
3, 427317, Note_on_c, 0, 55, 0
3, 427317, Note_on_c, 0, 63, 0
3, 427317, Note_on_c, 0, 46, 0
3, 427317, Note_on_c, 0, 67, 0
3, 427317, Note_on_c, 0, 39, 0
3, 427317, Note_on_c, 0, 58, 0
3, 427317, Note_on_c, 0, 70, 0
3, 427680, Note_on_c, 0, 57, 87
3, 427680, Note_on_c, 0, 63, 89
3, 427680, Note_on_c, 0, 67, 88
3, 427680, Note_on_c, 0, 69, 91
3, 427680, Note_on_c, 0, 36, 88
3, 427680, Note_on_c, 0, 45, 90
3, 427680, Note_on_c, 0, 51, 91
3, 429247, Note_on_c, 0, 51, 0
3, 429247, Note_on_c, 0, 63, 0
3, 429247, Note_on_c, 0, 45, 0
3, 429247, Note_on_c, 0, 67, 0
3, 429247, Note_on_c, 0, 36, 0
3, 429247, Note_on_c, 0, 57, 0
3, 429247, Note_on_c, 0, 69, 0
3, 429300, Note_on_c, 0, 58, 95
3, 429300, Note_on_c, 0, 63, 97
3, 429300, Note_on_c, 0, 67, 95
3, 429300, Note_on_c, 0, 70, 94
3, 429300, Note_on_c, 0, 39, 103
3, 429300, Note_on_c, 0, 46, 102
3, 429300, Note_on_c, 0, 55, 104
3, 429477, Note_on_c, 0, 55, 0
3, 429477, Note_on_c, 0, 63, 0
3, 429477, Note_on_c, 0, 46, 0
3, 429477, Note_on_c, 0, 67, 0
3, 429477, Note_on_c, 0, 39, 0
3, 429477, Note_on_c, 0, 58, 0
3, 429477, Note_on_c, 0, 70, 0
3, 429840, Note_on_c, 0, 57, 89
3, 429840, Note_on_c, 0, 63, 90
3, 429840, Note_on_c, 0, 67, 90
3, 429840, Note_on_c, 0, 69, 91
3, 429840, Note_on_c, 0, 36, 87
3, 429840, Note_on_c, 0, 45, 88
3, 429840, Note_on_c, 0, 51, 90
3, 430920, Note_on_c, 0, 51, 0
3, 430920, Note_on_c, 0, 63, 0
3, 430920, Note_on_c, 0, 45, 0
3, 430920, Note_on_c, 0, 67, 0
3, 430920, Note_on_c, 0, 36, 0
3, 430920, Note_on_c, 0, 57, 0
3, 430920, Note_on_c, 0, 69, 0
3, 430920, Note_on_c, 0, 56, 67
3, 430920, Note_on_c, 0, 59, 70
3, 430920, Note_on_c, 0, 63, 67
3, 430920, Note_on_c, 0, 68, 68
3, 430920, Note_on_c, 0, 35, 72
3, 430920, Note_on_c, 0, 44, 74
3, 430920, Note_on_c, 0, 51, 72
3, 432000, Note_on_c, 0, 51, 0
3, 432000, Note_on_c, 0, 59, 0
3, 432000, Note_on_c, 0, 44, 0
3, 432000, Note_on_c, 0, 63, 0
3, 432000, Note_on_c, 0, 35, 0
3, 432000, Note_on_c, 0, 56, 0
3, 432000, Note_on_c, 0, 68, 0
3, 432000, Note_on_c, 0, 55, 69
3, 432000, Note_on_c, 0, 60, 71
3, 432000, Note_on_c, 0, 63, 68
3, 432000, Note_on_c, 0, 67, 70
3, 432000, Note_on_c, 0, 36, 74
3, 432000, Note_on_c, 0, 43, 74
3, 432000, Note_on_c, 0, 51, 74
3, 433567, Note_on_c, 0, 51, 0
3, 433567, Note_on_c, 0, 36, 0
3, 433567, Note_on_c, 0, 60, 0
3, 433567, Note_on_c, 0, 63, 0
3, 433567, Note_on_c, 0, 43, 0
3, 433567, Note_on_c, 0, 55, 0
3, 433567, Note_on_c, 0, 67, 0
3, 433620, Note_on_c, 0, 62, 57
3, 433783, Note_on_c, 0, 62, 0
3, 433800, Note_on_c, 0, 67, 72
3, 433963, Note_on_c, 0, 67, 0
3, 433980, Note_on_c, 0, 62, 58
3, 434143, Note_on_c, 0, 62, 0
3, 434160, Note_on_c, 0, 60, 63
3, 434323, Note_on_c, 0, 60, 0
3, 434520, Note_on_c, 0, 60, 56
3, 434683, Note_on_c, 0, 60, 0
3, 434700, Note_on_c, 0, 62, 72
3, 434863, Note_on_c, 0, 62, 0
3, 434880, Note_on_c, 0, 67, 75
3, 435043, Note_on_c, 0, 67, 0
3, 435060, Note_on_c, 0, 62, 56
3, 435223, Note_on_c, 0, 62, 0
3, 435240, Note_on_c, 0, 60, 62
3, 435403, Note_on_c, 0, 60, 0
3, 435600, Note_on_c, 0, 60, 56
3, 435763, Note_on_c, 0, 60, 0
3, 435780, Note_on_c, 0, 61, 72
3, 435943, Note_on_c, 0, 61, 0
3, 435960, Note_on_c, 0, 67, 78
3, 436123, Note_on_c, 0, 67, 0
3, 436140, Note_on_c, 0, 61, 54
3, 436303, Note_on_c, 0, 61, 0
3, 436320, Note_on_c, 0, 56, 107
3, 436320, Note_on_c, 0, 60, 110
3, 436320, Note_on_c, 0, 65, 110
3, 436320, Note_on_c, 0, 68, 108
3, 436320, Note_on_c, 0, 41, 83
3, 436320, Note_on_c, 0, 48, 84
3, 436320, Note_on_c, 0, 53, 82
3, 437330, Note_on_c, 0, 53, 0
3, 437330, Note_on_c, 0, 60, 0
3, 437330, Note_on_c, 0, 48, 0
3, 437330, Note_on_c, 0, 65, 0
3, 437330, Note_on_c, 0, 41, 0
3, 437330, Note_on_c, 0, 56, 0
3, 437330, Note_on_c, 0, 68, 0
3, 437400, Note_on_c, 0, 55, 91
3, 437400, Note_on_c, 0, 60, 91
3, 437400, Note_on_c, 0, 63, 90
3, 437400, Note_on_c, 0, 67, 90
3, 437400, Note_on_c, 0, 36, 87
3, 437400, Note_on_c, 0, 43, 86
3, 437400, Note_on_c, 0, 51, 85
3, 438410, Note_on_c, 0, 51, 0
3, 438410, Note_on_c, 0, 36, 0
3, 438410, Note_on_c, 0, 60, 0
3, 438410, Note_on_c, 0, 63, 0
3, 438410, Note_on_c, 0, 43, 0
3, 438410, Note_on_c, 0, 55, 0
3, 438410, Note_on_c, 0, 67, 0
3, 438480, Note_on_c, 0, 54, 91
3, 438480, Note_on_c, 0, 58, 87
3, 438480, Note_on_c, 0, 63, 90
3, 438480, Note_on_c, 0, 66, 89
3, 438480, Note_on_c, 0, 39, 94
3, 438480, Note_on_c, 0, 46, 93
3, 438480, Note_on_c, 0, 51, 95
3, 439490, Note_on_c, 0, 51, 0
3, 439490, Note_on_c, 0, 58, 0
3, 439490, Note_on_c, 0, 46, 0
3, 439490, Note_on_c, 0, 63, 0
3, 439490, Note_on_c, 0, 39, 0
3, 439490, Note_on_c, 0, 54, 0
3, 439490, Note_on_c, 0, 66, 0
3, 439560, Note_on_c, 0, 53, 87
3, 439560, Note_on_c, 0, 58, 88
3, 439560, Note_on_c, 0, 65, 87
3, 439560, Note_on_c, 0, 34, 88
3, 439560, Note_on_c, 0, 41, 88
3, 439560, Note_on_c, 0, 49, 86
3, 441127, Note_on_c, 0, 49, 0
3, 441127, Note_on_c, 0, 41, 0
3, 441127, Note_on_c, 0, 65, 0
3, 441127, Note_on_c, 0, 58, 0
3, 441127, Note_on_c, 0, 53, 0
3, 441127, Note_on_c, 0, 34, 0
3, 441180, Note_on_c, 0, 52, 87
3, 441180, Note_on_c, 0, 56, 87
3, 441180, Note_on_c, 0, 61, 85
3, 441180, Note_on_c, 0, 64, 86
3, 441180, Note_on_c, 0, 37, 93
3, 441180, Note_on_c, 0, 44, 89
3, 441180, Note_on_c, 0, 49, 92
3, 442207, Note_on_c, 0, 49, 0
3, 442207, Note_on_c, 0, 56, 0
3, 442207, Note_on_c, 0, 44, 0
3, 442207, Note_on_c, 0, 61, 0
3, 442207, Note_on_c, 0, 37, 0
3, 442207, Note_on_c, 0, 52, 0
3, 442207, Note_on_c, 0, 64, 0
3, 442260, Note_on_c, 0, 51, 87
3, 442260, Note_on_c, 0, 56, 87
3, 442260, Note_on_c, 0, 60, 87
3, 442260, Note_on_c, 0, 63, 86
3, 442260, Note_on_c, 0, 32, 79
3, 442260, Note_on_c, 0, 44, 75
3, 442437, Note_on_c, 0, 44, 0
3, 442437, Note_on_c, 0, 32, 0
3, 442437, Note_on_c, 0, 60, 0
3, 442437, Note_on_c, 0, 56, 0
3, 442437, Note_on_c, 0, 51, 0
3, 442437, Note_on_c, 0, 63, 0
3, 442800, Note_on_c, 0, 50, 90
3, 442800, Note_on_c, 0, 56, 89
3, 442800, Note_on_c, 0, 60, 91
3, 442800, Note_on_c, 0, 62, 89
3, 442800, Note_on_c, 0, 29, 87
3, 442800, Note_on_c, 0, 41, 87
3, 444367, Note_on_c, 0, 41, 0
3, 444367, Note_on_c, 0, 29, 0
3, 444367, Note_on_c, 0, 60, 0
3, 444367, Note_on_c, 0, 56, 0
3, 444367, Note_on_c, 0, 50, 0
3, 444367, Note_on_c, 0, 62, 0
3, 444420, Note_on_c, 0, 51, 93
3, 444420, Note_on_c, 0, 56, 94
3, 444420, Note_on_c, 0, 60, 95
3, 444420, Note_on_c, 0, 63, 94
3, 444420, Note_on_c, 0, 32, 98
3, 444420, Note_on_c, 0, 44, 98
3, 444597, Note_on_c, 0, 44, 0
3, 444597, Note_on_c, 0, 32, 0
3, 444597, Note_on_c, 0, 60, 0
3, 444597, Note_on_c, 0, 56, 0
3, 444597, Note_on_c, 0, 51, 0
3, 444597, Note_on_c, 0, 63, 0
3, 444960, Note_on_c, 0, 50, 89
3, 444960, Note_on_c, 0, 56, 88
3, 444960, Note_on_c, 0, 60, 91
3, 444960, Note_on_c, 0, 62, 89
3, 444960, Note_on_c, 0, 29, 88
3, 444960, Note_on_c, 0, 41, 91
3, 446040, Note_on_c, 0, 41, 0
3, 446040, Note_on_c, 0, 29, 0
3, 446040, Note_on_c, 0, 60, 0
3, 446040, Note_on_c, 0, 56, 0
3, 446040, Note_on_c, 0, 50, 0
3, 446040, Note_on_c, 0, 62, 0
3, 446040, Note_on_c, 0, 49, 68
3, 446040, Note_on_c, 0, 56, 68
3, 446040, Note_on_c, 0, 61, 70
3, 446040, Note_on_c, 0, 28, 70
3, 446040, Note_on_c, 0, 40, 67
3, 447120, Note_on_c, 0, 40, 0
3, 447120, Note_on_c, 0, 61, 0
3, 447120, Note_on_c, 0, 56, 0
3, 447120, Note_on_c, 0, 49, 0
3, 447120, Note_on_c, 0, 28, 0
3, 447120, Note_on_c, 0, 48, 71
3, 447120, Note_on_c, 0, 53, 71
3, 447120, Note_on_c, 0, 56, 70
3, 447120, Note_on_c, 0, 60, 68
3, 447120, Note_on_c, 0, 29, 70
3, 447120, Note_on_c, 0, 41, 69
3, 448687, Note_on_c, 0, 41, 0
3, 448687, Note_on_c, 0, 29, 0
3, 448687, Note_on_c, 0, 56, 0
3, 448687, Note_on_c, 0, 53, 0
3, 448687, Note_on_c, 0, 48, 0
3, 448687, Note_on_c, 0, 60, 0
3, 448740, Note_on_c, 0, 55, 56
3, 448903, Note_on_c, 0, 55, 0
3, 448920, Note_on_c, 0, 60, 73
3, 449083, Note_on_c, 0, 60, 0
3, 449100, Note_on_c, 0, 55, 59
3, 449263, Note_on_c, 0, 55, 0
3, 449280, Note_on_c, 0, 53, 64
3, 449443, Note_on_c, 0, 53, 0
3, 449640, Note_on_c, 0, 53, 56
3, 449803, Note_on_c, 0, 53, 0
3, 449820, Note_on_c, 0, 55, 71
3, 449983, Note_on_c, 0, 55, 0
3, 450000, Note_on_c, 0, 60, 77
3, 450163, Note_on_c, 0, 60, 0
3, 450180, Note_on_c, 0, 55, 56
3, 450343, Note_on_c, 0, 55, 0
3, 450360, Note_on_c, 0, 53, 62
3, 450523, Note_on_c, 0, 53, 0
3, 450720, Note_on_c, 0, 65, 57
3, 450883, Note_on_c, 0, 65, 0
3, 450900, Note_on_c, 0, 67, 73
3, 451063, Note_on_c, 0, 67, 0
3, 451080, Note_on_c, 0, 68, 70
3, 451243, Note_on_c, 0, 68, 0
3, 451260, Note_on_c, 0, 65, 60
3, 451423, Note_on_c, 0, 65, 0
3, 451440, Note_on_c, 0, 67, 73
3, 451440, Note_on_c, 0, 55, 65
3, 451603, Note_on_c, 0, 67, 0
3, 451620, Note_on_c, 0, 68, 71
3, 451783, Note_on_c, 0, 68, 0
3, 451800, Note_on_c, 0, 67, 64
3, 451963, Note_on_c, 0, 67, 0
3, 451980, Note_on_c, 0, 68, 74
3, 452143, Note_on_c, 0, 68, 0
3, 452160, Note_on_c, 0, 67, 64
3, 452323, Note_on_c, 0, 67, 0
3, 452340, Note_on_c, 0, 68, 69
3, 452503, Note_on_c, 0, 68, 0
3, 452520, Note_on_c, 0, 67, 67
3, 452683, Note_on_c, 0, 67, 0
3, 452700, Note_on_c, 0, 68, 68
3, 452863, Note_on_c, 0, 68, 0
3, 452880, Note_on_c, 0, 65, 60
3, 453007, Note_on_c, 0, 55, 0
3, 453043, Note_on_c, 0, 65, 0
3, 453060, Note_on_c, 0, 67, 73
3, 453060, Note_on_c, 0, 53, 62
3, 453223, Note_on_c, 0, 67, 0
3, 453240, Note_on_c, 0, 68, 71
3, 453403, Note_on_c, 0, 68, 0
3, 453420, Note_on_c, 0, 71, 72
3, 453547, Note_on_c, 0, 53, 0
3, 453583, Note_on_c, 0, 71, 0
3, 453600, Note_on_c, 0, 67, 66
3, 453600, Note_on_c, 0, 55, 80
3, 453780, Note_on_c, 0, 67, 0
3, 453780, Note_on_c, 0, 68, 67
3, 453943, Note_on_c, 0, 68, 0
3, 453960, Note_on_c, 0, 67, 62
3, 454123, Note_on_c, 0, 67, 0
3, 454140, Note_on_c, 0, 68, 73
3, 454303, Note_on_c, 0, 68, 0
3, 454320, Note_on_c, 0, 67, 63
3, 454483, Note_on_c, 0, 67, 0
3, 454500, Note_on_c, 0, 68, 69
3, 454663, Note_on_c, 0, 68, 0
3, 454680, Note_on_c, 0, 67, 64
3, 454843, Note_on_c, 0, 67, 0
3, 454860, Note_on_c, 0, 68, 70
3, 455023, Note_on_c, 0, 68, 0
3, 455040, Note_on_c, 0, 65, 59
3, 455167, Note_on_c, 0, 55, 0
3, 455203, Note_on_c, 0, 65, 0
3, 455220, Note_on_c, 0, 67, 71
3, 455220, Note_on_c, 0, 53, 61
3, 455383, Note_on_c, 0, 67, 0
3, 455400, Note_on_c, 0, 68, 70
3, 455563, Note_on_c, 0, 68, 0
3, 455580, Note_on_c, 0, 72, 72
3, 455707, Note_on_c, 0, 53, 0
3, 455743, Note_on_c, 0, 72, 0
3, 455760, Note_on_c, 0, 67, 65
3, 455760, Note_on_c, 0, 55, 77
3, 455940, Note_on_c, 0, 67, 0
3, 455940, Note_on_c, 0, 68, 67
3, 456103, Note_on_c, 0, 68, 0
3, 456120, Note_on_c, 0, 67, 62
3, 456283, Note_on_c, 0, 67, 0
3, 456300, Note_on_c, 0, 68, 73
3, 456463, Note_on_c, 0, 68, 0
3, 456480, Note_on_c, 0, 67, 62
3, 456643, Note_on_c, 0, 67, 0
3, 456660, Note_on_c, 0, 68, 66
3, 456823, Note_on_c, 0, 68, 0
3, 456840, Note_on_c, 0, 67, 63
3, 457003, Note_on_c, 0, 67, 0
3, 457020, Note_on_c, 0, 68, 69
3, 457183, Note_on_c, 0, 68, 0
3, 457200, Note_on_c, 0, 65, 59
3, 457327, Note_on_c, 0, 55, 0
3, 457363, Note_on_c, 0, 65, 0
3, 457380, Note_on_c, 0, 67, 72
3, 457380, Note_on_c, 0, 53, 63
3, 457543, Note_on_c, 0, 67, 0
3, 457560, Note_on_c, 0, 68, 69
3, 457723, Note_on_c, 0, 68, 0
3, 457740, Note_on_c, 0, 71, 71
3, 457867, Note_on_c, 0, 53, 0
3, 457903, Note_on_c, 0, 71, 0
3, 457920, Note_on_c, 0, 67, 67
3, 457920, Note_on_c, 0, 55, 78
3, 458100, Note_on_c, 0, 67, 0
3, 458100, Note_on_c, 0, 68, 69
3, 458263, Note_on_c, 0, 68, 0
3, 458280, Note_on_c, 0, 67, 64
3, 458443, Note_on_c, 0, 67, 0
3, 458460, Note_on_c, 0, 68, 72
3, 458623, Note_on_c, 0, 68, 0
3, 458640, Note_on_c, 0, 67, 61
3, 458803, Note_on_c, 0, 67, 0
3, 458820, Note_on_c, 0, 68, 69
3, 458983, Note_on_c, 0, 68, 0
3, 459000, Note_on_c, 0, 67, 63
3, 459163, Note_on_c, 0, 67, 0
3, 459180, Note_on_c, 0, 68, 69
3, 459343, Note_on_c, 0, 68, 0
3, 459360, Note_on_c, 0, 65, 59
3, 459487, Note_on_c, 0, 55, 0
3, 459523, Note_on_c, 0, 65, 0
3, 459540, Note_on_c, 0, 67, 74
3, 459540, Note_on_c, 0, 53, 60
3, 459703, Note_on_c, 0, 67, 0
3, 459720, Note_on_c, 0, 68, 72
3, 459883, Note_on_c, 0, 68, 0
3, 459900, Note_on_c, 0, 72, 76
3, 460027, Note_on_c, 0, 53, 0
3, 460063, Note_on_c, 0, 72, 0
3, 460080, Note_on_c, 0, 67, 60
3, 460080, Note_on_c, 0, 55, 74
3, 460243, Note_on_c, 0, 67, 0
3, 460260, Note_on_c, 0, 68, 69
3, 460423, Note_on_c, 0, 68, 0
3, 460440, Note_on_c, 0, 67, 62
3, 460603, Note_on_c, 0, 67, 0
3, 460620, Note_on_c, 0, 68, 70
3, 460783, Note_on_c, 0, 68, 0
3, 460800, Note_on_c, 0, 67, 60
3, 460963, Note_on_c, 0, 67, 0
3, 460980, Note_on_c, 0, 68, 66
3, 461143, Note_on_c, 0, 68, 0
3, 461160, Note_on_c, 0, 67, 66
3, 461323, Note_on_c, 0, 67, 0
3, 461340, Note_on_c, 0, 68, 68
3, 461503, Note_on_c, 0, 68, 0
3, 461520, Note_on_c, 0, 67, 60
3, 461683, Note_on_c, 0, 67, 0
3, 461700, Note_on_c, 0, 68, 70
3, 461863, Note_on_c, 0, 68, 0
3, 461880, Note_on_c, 0, 67, 63
3, 462043, Note_on_c, 0, 67, 0
3, 462060, Note_on_c, 0, 68, 68
3, 462223, Note_on_c, 0, 68, 0
3, 462240, Note_on_c, 0, 67, 64
3, 462403, Note_on_c, 0, 67, 0
3, 462420, Note_on_c, 0, 68, 68
3, 462583, Note_on_c, 0, 68, 0
3, 462600, Note_on_c, 0, 67, 62
3, 462763, Note_on_c, 0, 67, 0
3, 462780, Note_on_c, 0, 68, 69
3, 462943, Note_on_c, 0, 68, 0
3, 462960, Note_on_c, 0, 67, 61
3, 463123, Note_on_c, 0, 67, 0
3, 463140, Note_on_c, 0, 68, 68
3, 463303, Note_on_c, 0, 68, 0
3, 463320, Note_on_c, 0, 67, 65
3, 463483, Note_on_c, 0, 67, 0
3, 463500, Note_on_c, 0, 68, 68
3, 463663, Note_on_c, 0, 68, 0
3, 463680, Note_on_c, 0, 67, 63
3, 463843, Note_on_c, 0, 67, 0
3, 463860, Note_on_c, 0, 68, 73
3, 464023, Note_on_c, 0, 68, 0
3, 464040, Note_on_c, 0, 67, 61
3, 464203, Note_on_c, 0, 67, 0
3, 464220, Note_on_c, 0, 68, 67
3, 464330, Note_on_c, 0, 55, 0
3, 464383, Note_on_c, 0, 68, 0
3, 464400, Note_on_c, 0, 67, 64
3, 464563, Note_on_c, 0, 67, 0
3, 464580, Note_on_c, 0, 68, 66
3, 464743, Note_on_c, 0, 68, 0
3, 464760, Note_on_c, 0, 67, 62
3, 464923, Note_on_c, 0, 67, 0
3, 464940, Note_on_c, 0, 70, 76
3, 465103, Note_on_c, 0, 70, 0
3, 465120, Note_on_c, 0, 68, 59
3, 465283, Note_on_c, 0, 68, 0
3, 465300, Note_on_c, 0, 67, 63
3, 465463, Note_on_c, 0, 67, 0
3, 465480, Note_on_c, 0, 67, 67
3, 465643, Note_on_c, 0, 67, 0
3, 465660, Note_on_c, 0, 67, 66
3, 465823, Note_on_c, 0, 67, 0
3, 465840, Note_on_c, 0, 67, 66
3, 466003, Note_on_c, 0, 67, 0
3, 466020, Note_on_c, 0, 67, 69
3, 466183, Note_on_c, 0, 67, 0
3, 466200, Note_on_c, 0, 67, 65
3, 466363, Note_on_c, 0, 67, 0
3, 466380, Note_on_c, 0, 67, 67
3, 466543, Note_on_c, 0, 67, 0
3, 466560, Note_on_c, 0, 67, 70
3, 466723, Note_on_c, 0, 67, 0
3, 466740, Note_on_c, 0, 68, 68
3, 466903, Note_on_c, 0, 68, 0
3, 466920, Note_on_c, 0, 67, 62
3, 467083, Note_on_c, 0, 67, 0
3, 467100, Note_on_c, 0, 65, 66
3, 467263, Note_on_c, 0, 65, 0
3, 467280, Note_on_c, 0, 67, 71
3, 467443, Note_on_c, 0, 67, 0
3, 467460, Note_on_c, 0, 65, 59
3, 467623, Note_on_c, 0, 65, 0
3, 467640, Note_on_c, 0, 68, 76
3, 467803, Note_on_c, 0, 68, 0
3, 467820, Note_on_c, 0, 67, 62
3, 467983, Note_on_c, 0, 67, 0
3, 468000, Note_on_c, 0, 65, 62
3, 468163, Note_on_c, 0, 65, 0
3, 468180, Note_on_c, 0, 65, 66
3, 468343, Note_on_c, 0, 65, 0
3, 468360, Note_on_c, 0, 65, 66
3, 468523, Note_on_c, 0, 65, 0
3, 468540, Note_on_c, 0, 65, 64
3, 468703, Note_on_c, 0, 65, 0
3, 468720, Note_on_c, 0, 65, 69
3, 468883, Note_on_c, 0, 65, 0
3, 468900, Note_on_c, 0, 67, 71
3, 469063, Note_on_c, 0, 67, 0
3, 469080, Note_on_c, 0, 65, 63
3, 469243, Note_on_c, 0, 65, 0
3, 469260, Note_on_c, 0, 63, 63
3, 469423, Note_on_c, 0, 63, 0
3, 469440, Note_on_c, 0, 65, 72
3, 469603, Note_on_c, 0, 65, 0
3, 469620, Note_on_c, 0, 63, 61
3, 469783, Note_on_c, 0, 63, 0
3, 469800, Note_on_c, 0, 67, 77
3, 469963, Note_on_c, 0, 67, 0
3, 469980, Note_on_c, 0, 65, 63
3, 470143, Note_on_c, 0, 65, 0
3, 470160, Note_on_c, 0, 63, 61
3, 470323, Note_on_c, 0, 63, 0
3, 470340, Note_on_c, 0, 63, 66
3, 470503, Note_on_c, 0, 63, 0
3, 470520, Note_on_c, 0, 63, 65
3, 470683, Note_on_c, 0, 63, 0
3, 470700, Note_on_c, 0, 65, 72
3, 470863, Note_on_c, 0, 65, 0
3, 470880, Note_on_c, 0, 67, 74
3, 471043, Note_on_c, 0, 67, 0
3, 471060, Note_on_c, 0, 65, 62
3, 471223, Note_on_c, 0, 65, 0
3, 471240, Note_on_c, 0, 63, 59
3, 471403, Note_on_c, 0, 63, 0
3, 471420, Note_on_c, 0, 63, 66
3, 471583, Note_on_c, 0, 63, 0
3, 471600, Note_on_c, 0, 63, 67
3, 471763, Note_on_c, 0, 63, 0
3, 471780, Note_on_c, 0, 65, 72
3, 471943, Note_on_c, 0, 65, 0
3, 471960, Note_on_c, 0, 67, 74
3, 472123, Note_on_c, 0, 67, 0
3, 472500, Note_on_c, 0, 67, 57
3, 472663, Note_on_c, 0, 67, 0
3, 472680, Note_on_c, 0, 68, 69
3, 472843, Note_on_c, 0, 68, 0
3, 472860, Note_on_c, 0, 67, 60
3, 473023, Note_on_c, 0, 67, 0
3, 473040, Note_on_c, 0, 67, 70
3, 473203, Note_on_c, 0, 67, 0
3, 473220, Note_on_c, 0, 68, 68
3, 473383, Note_on_c, 0, 68, 0
3, 473400, Note_on_c, 0, 67, 62
3, 473563, Note_on_c, 0, 67, 0
3, 473580, Note_on_c, 0, 70, 76
3, 473743, Note_on_c, 0, 70, 0
3, 473760, Note_on_c, 0, 68, 63
3, 473923, Note_on_c, 0, 68, 0
3, 473940, Note_on_c, 0, 67, 61
3, 474103, Note_on_c, 0, 67, 0
3, 474120, Note_on_c, 0, 67, 67
3, 474283, Note_on_c, 0, 67, 0
3, 474300, Note_on_c, 0, 67, 66
3, 474463, Note_on_c, 0, 67, 0
3, 474480, Note_on_c, 0, 67, 68
3, 474643, Note_on_c, 0, 67, 0
3, 474660, Note_on_c, 0, 67, 67
3, 474823, Note_on_c, 0, 67, 0
3, 474840, Note_on_c, 0, 67, 67
3, 475003, Note_on_c, 0, 67, 0
3, 475020, Note_on_c, 0, 67, 67
3, 475183, Note_on_c, 0, 67, 0
3, 475200, Note_on_c, 0, 67, 68
3, 475363, Note_on_c, 0, 67, 0
3, 475380, Note_on_c, 0, 68, 67
3, 475543, Note_on_c, 0, 68, 0
3, 475560, Note_on_c, 0, 67, 62
3, 475723, Note_on_c, 0, 67, 0
3, 475740, Note_on_c, 0, 65, 64
3, 475903, Note_on_c, 0, 65, 0
3, 475920, Note_on_c, 0, 67, 68
3, 476083, Note_on_c, 0, 67, 0
3, 476100, Note_on_c, 0, 65, 60
3, 476263, Note_on_c, 0, 65, 0
3, 476280, Note_on_c, 0, 68, 74
3, 476443, Note_on_c, 0, 68, 0
3, 476460, Note_on_c, 0, 67, 64
3, 476623, Note_on_c, 0, 67, 0
3, 476640, Note_on_c, 0, 65, 60
3, 476803, Note_on_c, 0, 65, 0
3, 476820, Note_on_c, 0, 65, 66
3, 476983, Note_on_c, 0, 65, 0
3, 477000, Note_on_c, 0, 65, 65
3, 477163, Note_on_c, 0, 65, 0
3, 477180, Note_on_c, 0, 65, 67
3, 477343, Note_on_c, 0, 65, 0
3, 477360, Note_on_c, 0, 65, 69
3, 477523, Note_on_c, 0, 65, 0
3, 477540, Note_on_c, 0, 67, 71
3, 477703, Note_on_c, 0, 67, 0
3, 477720, Note_on_c, 0, 65, 60
3, 477883, Note_on_c, 0, 65, 0
3, 477900, Note_on_c, 0, 63, 65
3, 478063, Note_on_c, 0, 63, 0
3, 478080, Note_on_c, 0, 65, 68
3, 478243, Note_on_c, 0, 65, 0
3, 478260, Note_on_c, 0, 63, 60
3, 478423, Note_on_c, 0, 63, 0
3, 478440, Note_on_c, 0, 67, 76
3, 478603, Note_on_c, 0, 67, 0
3, 478620, Note_on_c, 0, 65, 64
3, 478783, Note_on_c, 0, 65, 0
3, 478800, Note_on_c, 0, 63, 58
3, 478963, Note_on_c, 0, 63, 0
3, 478980, Note_on_c, 0, 63, 64
3, 479143, Note_on_c, 0, 63, 0
3, 479160, Note_on_c, 0, 63, 66
3, 479323, Note_on_c, 0, 63, 0
3, 479340, Note_on_c, 0, 65, 69
3, 479503, Note_on_c, 0, 65, 0
3, 479520, Note_on_c, 0, 67, 76
3, 479683, Note_on_c, 0, 67, 0
3, 479700, Note_on_c, 0, 65, 60
3, 479863, Note_on_c, 0, 65, 0
3, 479880, Note_on_c, 0, 63, 60
3, 480043, Note_on_c, 0, 63, 0
3, 480060, Note_on_c, 0, 63, 66
3, 480223, Note_on_c, 0, 63, 0
3, 480240, Note_on_c, 0, 63, 64
3, 480403, Note_on_c, 0, 63, 0
3, 480420, Note_on_c, 0, 65, 68
3, 480583, Note_on_c, 0, 65, 0
3, 480600, Note_on_c, 0, 67, 73
3, 480763, Note_on_c, 0, 67, 0
3, 481680, Note_on_c, 0, 55, 59
3, 481843, Note_on_c, 0, 55, 0
3, 481860, Note_on_c, 0, 56, 67
3, 482023, Note_on_c, 0, 56, 0
3, 482040, Note_on_c, 0, 55, 62
3, 482203, Note_on_c, 0, 55, 0
3, 482220, Note_on_c, 0, 58, 75
3, 482383, Note_on_c, 0, 58, 0
3, 482400, Note_on_c, 0, 56, 61
3, 482563, Note_on_c, 0, 56, 0
3, 482580, Note_on_c, 0, 55, 60
3, 482743, Note_on_c, 0, 55, 0
3, 482760, Note_on_c, 0, 55, 70
3, 482923, Note_on_c, 0, 55, 0
3, 482940, Note_on_c, 0, 56, 68
3, 483103, Note_on_c, 0, 56, 0
3, 483120, Note_on_c, 0, 57, 72
3, 483283, Note_on_c, 0, 57, 0
3, 483300, Note_on_c, 0, 58, 69
3, 483463, Note_on_c, 0, 58, 0
3, 483480, Note_on_c, 0, 58, 66
3, 483643, Note_on_c, 0, 58, 0
3, 483660, Note_on_c, 0, 58, 65
3, 483823, Note_on_c, 0, 58, 0
3, 483840, Note_on_c, 0, 58, 69
3, 484003, Note_on_c, 0, 58, 0
3, 484020, Note_on_c, 0, 55, 61
3, 484183, Note_on_c, 0, 55, 0
3, 484200, Note_on_c, 0, 58, 69
3, 484363, Note_on_c, 0, 58, 0
3, 484380, Note_on_c, 0, 59, 70
3, 484543, Note_on_c, 0, 59, 0
3, 484560, Note_on_c, 0, 60, 71
3, 484723, Note_on_c, 0, 60, 0
3, 484740, Note_on_c, 0, 62, 73
3, 484903, Note_on_c, 0, 62, 0
3, 484920, Note_on_c, 0, 63, 72
3, 485245, Note_on_c, 0, 63, 0
3, 485460, Note_on_c, 0, 60, 62
3, 485623, Note_on_c, 0, 60, 0
3, 485640, Note_on_c, 0, 61, 70
3, 485803, Note_on_c, 0, 61, 0
3, 485820, Note_on_c, 0, 62, 70
3, 485983, Note_on_c, 0, 62, 0
3, 486000, Note_on_c, 0, 63, 71
3, 486163, Note_on_c, 0, 63, 0
3, 486180, Note_on_c, 0, 63, 65
3, 486343, Note_on_c, 0, 63, 0
3, 486360, Note_on_c, 0, 63, 66
3, 486523, Note_on_c, 0, 63, 0
3, 486540, Note_on_c, 0, 62, 63
3, 486703, Note_on_c, 0, 62, 0
3, 486720, Note_on_c, 0, 65, 70
3, 486883, Note_on_c, 0, 65, 0
3, 486900, Note_on_c, 0, 67, 71
3, 487063, Note_on_c, 0, 67, 0
3, 487080, Note_on_c, 0, 63, 61
3, 487243, Note_on_c, 0, 63, 0
3, 487260, Note_on_c, 0, 62, 63
3, 487423, Note_on_c, 0, 62, 0
3, 487440, Note_on_c, 0, 63, 67
3, 487603, Note_on_c, 0, 63, 0
3, 487620, Note_on_c, 0, 64, 72
3, 487783, Note_on_c, 0, 64, 0
3, 487800, Note_on_c, 0, 67, 73
3, 487963, Note_on_c, 0, 67, 0
3, 487980, Note_on_c, 0, 68, 69
3, 488143, Note_on_c, 0, 68, 0
3, 488160, Note_on_c, 0, 65, 62
3, 488323, Note_on_c, 0, 65, 0
3, 488340, Note_on_c, 0, 64, 60
3, 488503, Note_on_c, 0, 64, 0
3, 488520, Note_on_c, 0, 65, 66
3, 488683, Note_on_c, 0, 65, 0
3, 488700, Note_on_c, 0, 67, 73
3, 488863, Note_on_c, 0, 67, 0
3, 488880, Note_on_c, 0, 70, 71
3, 489043, Note_on_c, 0, 70, 0
3, 489060, Note_on_c, 0, 72, 71
3, 489223, Note_on_c, 0, 72, 0
3, 489240, Note_on_c, 0, 68, 61
3, 489403, Note_on_c, 0, 68, 0
3, 489420, Note_on_c, 0, 67, 59
3, 489583, Note_on_c, 0, 67, 0
3, 489600, Note_on_c, 0, 68, 67
3, 489763, Note_on_c, 0, 68, 0
3, 489780, Note_on_c, 0, 70, 74
3, 489943, Note_on_c, 0, 70, 0
3, 489960, Note_on_c, 0, 72, 70
3, 490123, Note_on_c, 0, 72, 0
3, 490140, Note_on_c, 0, 70, 61
3, 490303, Note_on_c, 0, 70, 0
3, 490320, Note_on_c, 0, 68, 65
3, 490483, Note_on_c, 0, 68, 0
3, 490860, Note_on_c, 0, 63, 59
3, 491023, Note_on_c, 0, 63, 0
3, 491040, Note_on_c, 0, 61, 61
3, 491203, Note_on_c, 0, 61, 0
3, 491220, Note_on_c, 0, 60, 59
3, 491383, Note_on_c, 0, 60, 0
3, 491400, Note_on_c, 0, 60, 67
3, 491563, Note_on_c, 0, 60, 0
3, 491580, Note_on_c, 0, 61, 70
3, 491743, Note_on_c, 0, 61, 0
3, 491760, Note_on_c, 0, 62, 69
3, 491923, Note_on_c, 0, 62, 0
3, 491940, Note_on_c, 0, 63, 71
3, 492103, Note_on_c, 0, 63, 0
3, 492120, Note_on_c, 0, 63, 66
3, 492283, Note_on_c, 0, 63, 0
3, 492300, Note_on_c, 0, 63, 68
3, 492463, Note_on_c, 0, 63, 0
3, 492480, Note_on_c, 0, 63, 70
3, 492643, Note_on_c, 0, 63, 0
3, 492660, Note_on_c, 0, 60, 58
3, 492823, Note_on_c, 0, 60, 0
3, 492840, Note_on_c, 0, 63, 72
3, 493003, Note_on_c, 0, 63, 0
3, 493020, Note_on_c, 0, 64, 73
3, 493183, Note_on_c, 0, 64, 0
3, 493200, Note_on_c, 0, 65, 70
3, 493363, Note_on_c, 0, 65, 0
3, 493380, Note_on_c, 0, 67, 71
3, 493543, Note_on_c, 0, 67, 0
3, 493560, Note_on_c, 0, 68, 72
3, 493885, Note_on_c, 0, 68, 0
3, 494100, Note_on_c, 0, 65, 61
3, 494263, Note_on_c, 0, 65, 0
3, 494280, Note_on_c, 0, 66, 69
3, 494443, Note_on_c, 0, 66, 0
3, 494460, Note_on_c, 0, 67, 70
3, 494623, Note_on_c, 0, 67, 0
3, 494640, Note_on_c, 0, 68, 75
3, 494803, Note_on_c, 0, 68, 0
3, 494820, Note_on_c, 0, 67, 64
3, 494983, Note_on_c, 0, 67, 0
3, 495000, Note_on_c, 0, 68, 68
3, 495163, Note_on_c, 0, 68, 0
3, 495180, Note_on_c, 0, 69, 73
3, 495343, Note_on_c, 0, 69, 0
3, 495360, Note_on_c, 0, 72, 72
3, 495523, Note_on_c, 0, 72, 0
3, 495540, Note_on_c, 0, 74, 72
3, 495703, Note_on_c, 0, 74, 0
3, 495720, Note_on_c, 0, 71, 63
3, 495883, Note_on_c, 0, 71, 0
3, 495900, Note_on_c, 0, 69, 59
3, 496063, Note_on_c, 0, 69, 0
3, 496080, Note_on_c, 0, 71, 71
3, 496243, Note_on_c, 0, 71, 0
3, 496260, Note_on_c, 0, 72, 73
3, 496423, Note_on_c, 0, 72, 0
3, 496440, Note_on_c, 0, 74, 73
3, 496603, Note_on_c, 0, 74, 0
3, 496620, Note_on_c, 0, 75, 69
3, 496783, Note_on_c, 0, 75, 0
3, 496800, Note_on_c, 0, 74, 65
3, 496963, Note_on_c, 0, 74, 0
3, 496980, Note_on_c, 0, 72, 60
3, 497143, Note_on_c, 0, 72, 0
3, 497160, Note_on_c, 0, 74, 71
3, 497323, Note_on_c, 0, 74, 0
3, 497340, Note_on_c, 0, 75, 73
3, 497503, Note_on_c, 0, 75, 0
3, 497520, Note_on_c, 0, 77, 71
3, 497683, Note_on_c, 0, 77, 0
3, 497700, Note_on_c, 0, 75, 60
3, 497863, Note_on_c, 0, 75, 0
3, 497880, Note_on_c, 0, 74, 65
3, 498043, Note_on_c, 0, 74, 0
3, 498060, Note_on_c, 0, 67, 49
3, 498223, Note_on_c, 0, 67, 0
3, 498240, Note_on_c, 0, 69, 70
3, 498403, Note_on_c, 0, 69, 0
3, 498420, Note_on_c, 0, 71, 72
3, 498583, Note_on_c, 0, 71, 0
3, 498600, Note_on_c, 0, 69, 62
3, 498763, Note_on_c, 0, 69, 0
3, 498780, Note_on_c, 0, 71, 68
3, 498943, Note_on_c, 0, 71, 0
3, 498960, Note_on_c, 0, 72, 73
3, 499123, Note_on_c, 0, 72, 0
3, 499140, Note_on_c, 0, 73, 76
3, 499320, Note_on_c, 0, 73, 0
3, 499320, Note_on_c, 0, 72, 66
3, 499500, Note_on_c, 0, 72, 0
3, 499500, Note_on_c, 0, 75, 83
3, 499680, Note_on_c, 0, 75, 0
3, 499680, Note_on_c, 0, 73, 67
3, 499860, Note_on_c, 0, 73, 0
3, 499860, Note_on_c, 0, 72, 68
3, 500040, Note_on_c, 0, 72, 0
3, 500040, Note_on_c, 0, 72, 67
3, 500203, Note_on_c, 0, 72, 0
3, 500220, Note_on_c, 0, 72, 65
3, 500383, Note_on_c, 0, 72, 0
3, 500400, Note_on_c, 0, 72, 64
3, 500563, Note_on_c, 0, 72, 0
3, 500580, Note_on_c, 0, 72, 69
3, 500743, Note_on_c, 0, 72, 0
3, 500760, Note_on_c, 0, 72, 65
3, 500923, Note_on_c, 0, 72, 0
3, 500940, Note_on_c, 0, 72, 66
3, 501103, Note_on_c, 0, 72, 0
3, 501120, Note_on_c, 0, 72, 71
3, 501283, Note_on_c, 0, 72, 0
3, 501300, Note_on_c, 0, 73, 69
3, 501463, Note_on_c, 0, 73, 0
3, 501480, Note_on_c, 0, 72, 64
3, 501643, Note_on_c, 0, 72, 0
3, 501660, Note_on_c, 0, 70, 63
3, 501823, Note_on_c, 0, 70, 0
3, 501840, Note_on_c, 0, 72, 68
3, 502003, Note_on_c, 0, 72, 0
3, 502020, Note_on_c, 0, 70, 61
3, 502183, Note_on_c, 0, 70, 0
3, 502200, Note_on_c, 0, 73, 74
3, 502363, Note_on_c, 0, 73, 0
3, 502380, Note_on_c, 0, 72, 61
3, 502543, Note_on_c, 0, 72, 0
3, 502560, Note_on_c, 0, 70, 60
3, 502723, Note_on_c, 0, 70, 0
3, 502740, Note_on_c, 0, 70, 66
3, 502903, Note_on_c, 0, 70, 0
3, 502920, Note_on_c, 0, 70, 64
3, 503083, Note_on_c, 0, 70, 0
3, 503100, Note_on_c, 0, 70, 65
3, 503263, Note_on_c, 0, 70, 0
3, 503280, Note_on_c, 0, 70, 67
3, 503443, Note_on_c, 0, 70, 0
3, 503460, Note_on_c, 0, 72, 70
3, 503623, Note_on_c, 0, 72, 0
3, 503640, Note_on_c, 0, 70, 60
3, 503803, Note_on_c, 0, 70, 0
3, 503820, Note_on_c, 0, 68, 65
3, 503983, Note_on_c, 0, 68, 0
3, 504000, Note_on_c, 0, 70, 72
3, 504163, Note_on_c, 0, 70, 0
3, 504180, Note_on_c, 0, 68, 61
3, 504343, Note_on_c, 0, 68, 0
3, 504360, Note_on_c, 0, 72, 76
3, 504523, Note_on_c, 0, 72, 0
3, 504540, Note_on_c, 0, 70, 62
3, 504703, Note_on_c, 0, 70, 0
3, 504720, Note_on_c, 0, 68, 61
3, 504883, Note_on_c, 0, 68, 0
3, 504900, Note_on_c, 0, 68, 63
3, 505063, Note_on_c, 0, 68, 0
3, 505080, Note_on_c, 0, 68, 64
3, 505243, Note_on_c, 0, 68, 0
3, 505260, Note_on_c, 0, 70, 70
3, 505423, Note_on_c, 0, 70, 0
3, 505440, Note_on_c, 0, 72, 73
3, 505603, Note_on_c, 0, 72, 0
3, 505620, Note_on_c, 0, 70, 63
3, 505783, Note_on_c, 0, 70, 0
3, 505800, Note_on_c, 0, 68, 61
3, 505963, Note_on_c, 0, 68, 0
3, 505980, Note_on_c, 0, 68, 65
3, 506143, Note_on_c, 0, 68, 0
3, 506160, Note_on_c, 0, 68, 68
3, 506323, Note_on_c, 0, 68, 0
3, 506340, Note_on_c, 0, 70, 69
3, 506503, Note_on_c, 0, 70, 0
3, 506520, Note_on_c, 0, 72, 75
3, 506683, Note_on_c, 0, 72, 0
3, 507060, Note_on_c, 0, 67, 58
3, 507223, Note_on_c, 0, 67, 0
3, 507240, Note_on_c, 0, 68, 69
3, 507403, Note_on_c, 0, 68, 0
3, 507420, Note_on_c, 0, 67, 61
3, 507583, Note_on_c, 0, 67, 0
3, 507600, Note_on_c, 0, 67, 67
3, 507763, Note_on_c, 0, 67, 0
3, 507780, Note_on_c, 0, 68, 68
3, 507943, Note_on_c, 0, 68, 0
3, 507960, Note_on_c, 0, 67, 62
3, 508123, Note_on_c, 0, 67, 0
3, 508140, Note_on_c, 0, 70, 73
3, 508303, Note_on_c, 0, 70, 0
3, 508320, Note_on_c, 0, 68, 61
3, 508483, Note_on_c, 0, 68, 0
3, 508500, Note_on_c, 0, 67, 59
3, 508663, Note_on_c, 0, 67, 0
3, 508680, Note_on_c, 0, 67, 69
3, 508843, Note_on_c, 0, 67, 0
3, 508860, Note_on_c, 0, 67, 67
3, 509023, Note_on_c, 0, 67, 0
3, 509040, Note_on_c, 0, 67, 68
3, 509203, Note_on_c, 0, 67, 0
3, 509220, Note_on_c, 0, 67, 68
3, 509383, Note_on_c, 0, 67, 0
3, 509400, Note_on_c, 0, 67, 66
3, 509563, Note_on_c, 0, 67, 0
3, 509580, Note_on_c, 0, 67, 65
3, 509743, Note_on_c, 0, 67, 0
3, 509760, Note_on_c, 0, 67, 68
3, 509923, Note_on_c, 0, 67, 0
3, 509940, Note_on_c, 0, 68, 68
3, 510103, Note_on_c, 0, 68, 0
3, 510120, Note_on_c, 0, 67, 64
3, 510283, Note_on_c, 0, 67, 0
3, 510300, Note_on_c, 0, 65, 63
3, 510463, Note_on_c, 0, 65, 0
3, 510480, Note_on_c, 0, 67, 68
3, 510643, Note_on_c, 0, 67, 0
3, 510660, Note_on_c, 0, 65, 61
3, 510823, Note_on_c, 0, 65, 0
3, 510840, Note_on_c, 0, 68, 74
3, 511003, Note_on_c, 0, 68, 0
3, 511020, Note_on_c, 0, 67, 64
3, 511183, Note_on_c, 0, 67, 0
3, 511200, Note_on_c, 0, 65, 61
3, 511363, Note_on_c, 0, 65, 0
3, 511380, Note_on_c, 0, 65, 67
3, 511543, Note_on_c, 0, 65, 0
3, 511560, Note_on_c, 0, 65, 65
3, 511723, Note_on_c, 0, 65, 0
3, 511740, Note_on_c, 0, 65, 65
3, 511903, Note_on_c, 0, 65, 0
3, 511920, Note_on_c, 0, 65, 68
3, 512083, Note_on_c, 0, 65, 0
3, 512100, Note_on_c, 0, 67, 70
3, 512263, Note_on_c, 0, 67, 0
3, 512280, Note_on_c, 0, 65, 61
3, 512443, Note_on_c, 0, 65, 0
3, 512460, Note_on_c, 0, 63, 62
3, 512623, Note_on_c, 0, 63, 0
3, 512640, Note_on_c, 0, 65, 69
3, 512803, Note_on_c, 0, 65, 0
3, 512820, Note_on_c, 0, 63, 60
3, 512983, Note_on_c, 0, 63, 0
3, 513000, Note_on_c, 0, 67, 77
3, 513163, Note_on_c, 0, 67, 0
3, 513180, Note_on_c, 0, 65, 61
3, 513343, Note_on_c, 0, 65, 0
3, 513360, Note_on_c, 0, 63, 59
3, 513523, Note_on_c, 0, 63, 0
3, 513540, Note_on_c, 0, 63, 65
3, 513703, Note_on_c, 0, 63, 0
3, 513720, Note_on_c, 0, 63, 66
3, 513883, Note_on_c, 0, 63, 0
3, 513900, Note_on_c, 0, 65, 72
3, 514063, Note_on_c, 0, 65, 0
3, 514080, Note_on_c, 0, 65, 70
3, 514243, Note_on_c, 0, 65, 0
3, 514260, Note_on_c, 0, 63, 60
3, 514423, Note_on_c, 0, 63, 0
3, 514440, Note_on_c, 0, 63, 66
3, 514603, Note_on_c, 0, 63, 0
3, 514620, Note_on_c, 0, 63, 65
3, 514783, Note_on_c, 0, 63, 0
3, 514800, Note_on_c, 0, 63, 66
3, 514963, Note_on_c, 0, 63, 0
3, 514980, Note_on_c, 0, 65, 70
3, 515143, Note_on_c, 0, 65, 0
3, 515160, Note_on_c, 0, 67, 100
3, 515323, Note_on_c, 0, 67, 0
3, 515700, Note_on_c, 0, 62, 61
3, 515863, Note_on_c, 0, 62, 0
3, 515880, Note_on_c, 0, 61, 60
3, 516043, Note_on_c, 0, 61, 0
3, 516060, Note_on_c, 0, 60, 62
3, 516223, Note_on_c, 0, 60, 0
3, 516240, Note_on_c, 0, 60, 68
3, 516403, Note_on_c, 0, 60, 0
3, 516420, Note_on_c, 0, 61, 70
3, 516583, Note_on_c, 0, 61, 0
3, 516600, Note_on_c, 0, 60, 63
3, 516763, Note_on_c, 0, 60, 0
3, 516780, Note_on_c, 0, 58, 62
3, 516943, Note_on_c, 0, 58, 0
3, 516960, Note_on_c, 0, 56, 59
3, 517123, Note_on_c, 0, 56, 0
3, 517140, Note_on_c, 0, 58, 68
3, 517303, Note_on_c, 0, 58, 0
3, 517320, Note_on_c, 0, 56, 64
3, 517483, Note_on_c, 0, 56, 0
3, 517500, Note_on_c, 0, 58, 69
3, 517663, Note_on_c, 0, 58, 0
3, 517680, Note_on_c, 0, 56, 60
3, 517843, Note_on_c, 0, 56, 0
3, 517860, Note_on_c, 0, 60, 75
3, 518023, Note_on_c, 0, 60, 0
3, 518040, Note_on_c, 0, 58, 64
3, 518203, Note_on_c, 0, 58, 0
3, 518220, Note_on_c, 0, 56, 60
3, 518383, Note_on_c, 0, 56, 0
3, 518400, Note_on_c, 0, 58, 73
3, 518563, Note_on_c, 0, 58, 0
3, 518580, Note_on_c, 0, 60, 70
3, 518743, Note_on_c, 0, 60, 0
3, 518760, Note_on_c, 0, 58, 60
3, 518923, Note_on_c, 0, 58, 0
3, 518940, Note_on_c, 0, 56, 61
3, 519103, Note_on_c, 0, 56, 0
3, 519120, Note_on_c, 0, 55, 60
3, 519283, Note_on_c, 0, 55, 0
3, 519300, Note_on_c, 0, 56, 69
3, 519463, Note_on_c, 0, 56, 0
3, 519480, Note_on_c, 0, 55, 65
3, 519643, Note_on_c, 0, 55, 0
3, 519660, Note_on_c, 0, 56, 68
3, 519823, Note_on_c, 0, 56, 0
3, 519840, Note_on_c, 0, 55, 62
3, 520003, Note_on_c, 0, 55, 0
3, 520020, Note_on_c, 0, 58, 72
3, 520183, Note_on_c, 0, 58, 0
3, 520200, Note_on_c, 0, 56, 60
3, 520363, Note_on_c, 0, 56, 0
3, 520380, Note_on_c, 0, 55, 62
3, 520543, Note_on_c, 0, 55, 0
3, 520560, Note_on_c, 0, 56, 69
3, 520723, Note_on_c, 0, 56, 0
3, 520740, Note_on_c, 0, 58, 69
3, 520903, Note_on_c, 0, 58, 0
3, 520920, Note_on_c, 0, 56, 61
3, 521083, Note_on_c, 0, 56, 0
3, 521100, Note_on_c, 0, 55, 63
3, 521263, Note_on_c, 0, 55, 0
3, 521280, Note_on_c, 0, 53, 62
3, 521443, Note_on_c, 0, 53, 0
3, 521460, Note_on_c, 0, 55, 70
3, 521623, Note_on_c, 0, 55, 0
3, 521640, Note_on_c, 0, 53, 64
3, 521803, Note_on_c, 0, 53, 0
3, 521820, Note_on_c, 0, 55, 72
3, 521983, Note_on_c, 0, 55, 0
3, 522000, Note_on_c, 0, 56, 71
3, 522163, Note_on_c, 0, 56, 0
3, 522180, Note_on_c, 0, 56, 67
3, 522343, Note_on_c, 0, 56, 0
3, 522360, Note_on_c, 0, 55, 63
3, 522523, Note_on_c, 0, 55, 0
3, 522540, Note_on_c, 0, 53, 59
3, 522703, Note_on_c, 0, 53, 0
3, 522720, Note_on_c, 0, 53, 69
3, 522883, Note_on_c, 0, 53, 0
3, 522900, Note_on_c, 0, 54, 68
3, 523063, Note_on_c, 0, 54, 0
3, 523080, Note_on_c, 0, 55, 71
3, 523243, Note_on_c, 0, 55, 0
3, 523260, Note_on_c, 0, 55, 71
3, 523423, Note_on_c, 0, 55, 0
3, 523440, Note_on_c, 0, 54, 62
3, 523603, Note_on_c, 0, 54, 0
3, 523620, Note_on_c, 0, 53, 61
3, 523783, Note_on_c, 0, 53, 0
3, 523800, Note_on_c, 0, 51, 64
3, 523963, Note_on_c, 0, 51, 0
3, 523980, Note_on_c, 0, 53, 68
3, 524143, Note_on_c, 0, 53, 0
3, 524160, Note_on_c, 0, 55, 70
3, 524323, Note_on_c, 0, 55, 0
3, 524340, Note_on_c, 0, 55, 68
3, 524503, Note_on_c, 0, 55, 0
3, 524520, Note_on_c, 0, 55, 68
3, 524683, Note_on_c, 0, 55, 0
3, 524700, Note_on_c, 0, 55, 67
3, 524863, Note_on_c, 0, 55, 0
3, 524880, Note_on_c, 0, 53, 65
3, 525043, Note_on_c, 0, 53, 0
3, 525060, Note_on_c, 0, 51, 59
3, 525223, Note_on_c, 0, 51, 0
3, 525240, Note_on_c, 0, 53, 72
3, 525403, Note_on_c, 0, 53, 0
3, 525420, Note_on_c, 0, 49, 62
3, 525583, Note_on_c, 0, 49, 0
3, 525600, Note_on_c, 0, 51, 69
3, 525763, Note_on_c, 0, 51, 0
3, 525780, Note_on_c, 0, 53, 72
3, 526123, Note_on_c, 0, 53, 0
3, 526140, Note_on_c, 0, 51, 61
3, 526303, Note_on_c, 0, 51, 0
3, 526320, Note_on_c, 0, 53, 69
3, 526483, Note_on_c, 0, 53, 0
3, 526500, Note_on_c, 0, 49, 59
3, 526663, Note_on_c, 0, 49, 0
3, 526680, Note_on_c, 0, 51, 70
3, 526843, Note_on_c, 0, 51, 0
3, 526860, Note_on_c, 0, 53, 70
3, 527203, Note_on_c, 0, 53, 0
3, 527220, Note_on_c, 0, 51, 59
3, 527383, Note_on_c, 0, 51, 0
3, 527400, Note_on_c, 0, 53, 72
3, 527563, Note_on_c, 0, 53, 0
3, 527580, Note_on_c, 0, 50, 65
3, 527743, Note_on_c, 0, 50, 0
3, 527760, Note_on_c, 0, 51, 70
3, 527923, Note_on_c, 0, 51, 0
3, 527940, Note_on_c, 0, 53, 70
3, 528283, Note_on_c, 0, 53, 0
3, 528300, Note_on_c, 0, 51, 62
3, 528463, Note_on_c, 0, 51, 0
3, 528480, Note_on_c, 0, 53, 68
3, 528643, Note_on_c, 0, 53, 0
3, 528660, Note_on_c, 0, 50, 64
3, 528823, Note_on_c, 0, 50, 0
3, 528840, Note_on_c, 0, 51, 69
3, 529003, Note_on_c, 0, 51, 0
3, 529020, Note_on_c, 0, 53, 70
3, 529183, Note_on_c, 0, 53, 0
3, 529200, Note_on_c, 0, 55, 74
3, 529363, Note_on_c, 0, 55, 0
3, 529380, Note_on_c, 0, 56, 70
3, 529543, Note_on_c, 0, 56, 0
3, 529560, Note_on_c, 0, 55, 63
3, 529723, Note_on_c, 0, 55, 0
3, 529740, Note_on_c, 0, 58, 75
3, 529903, Note_on_c, 0, 58, 0
3, 529920, Note_on_c, 0, 56, 62
3, 530083, Note_on_c, 0, 56, 0
3, 530100, Note_on_c, 0, 55, 61
3, 530263, Note_on_c, 0, 55, 0
3, 530280, Note_on_c, 0, 55, 68
3, 530443, Note_on_c, 0, 55, 0
3, 530460, Note_on_c, 0, 55, 66
3, 530623, Note_on_c, 0, 55, 0
3, 530640, Note_on_c, 0, 55, 66
3, 530803, Note_on_c, 0, 55, 0
3, 530820, Note_on_c, 0, 55, 68
3, 530983, Note_on_c, 0, 55, 0
3, 531000, Note_on_c, 0, 55, 65
3, 531163, Note_on_c, 0, 55, 0
3, 531180, Note_on_c, 0, 55, 67
3, 531343, Note_on_c, 0, 55, 0
3, 531360, Note_on_c, 0, 55, 71
3, 531523, Note_on_c, 0, 55, 0
3, 531540, Note_on_c, 0, 56, 70
3, 531703, Note_on_c, 0, 56, 0
3, 531720, Note_on_c, 0, 55, 61
3, 531883, Note_on_c, 0, 55, 0
3, 531900, Note_on_c, 0, 58, 74
3, 532063, Note_on_c, 0, 58, 0
3, 532080, Note_on_c, 0, 56, 62
3, 532243, Note_on_c, 0, 56, 0
3, 532260, Note_on_c, 0, 55, 63
3, 532423, Note_on_c, 0, 55, 0
3, 532440, Note_on_c, 0, 55, 70
3, 532603, Note_on_c, 0, 55, 0
3, 532620, Note_on_c, 0, 55, 66
3, 532783, Note_on_c, 0, 55, 0
3, 532800, Note_on_c, 0, 55, 67
3, 532963, Note_on_c, 0, 55, 0
3, 532980, Note_on_c, 0, 55, 69
3, 533143, Note_on_c, 0, 55, 0
3, 533160, Note_on_c, 0, 55, 65
3, 533323, Note_on_c, 0, 55, 0
3, 533340, Note_on_c, 0, 55, 68
3, 533503, Note_on_c, 0, 55, 0
3, 533520, Note_on_c, 0, 55, 67
3, 533683, Note_on_c, 0, 55, 0
3, 533700, Note_on_c, 0, 51, 57
3, 533863, Note_on_c, 0, 51, 0
3, 533880, Note_on_c, 0, 53, 68
3, 534043, Note_on_c, 0, 53, 0
3, 534060, Note_on_c, 0, 55, 75
3, 534223, Note_on_c, 0, 55, 0
3, 534240, Note_on_c, 0, 60, 77
3, 534403, Note_on_c, 0, 60, 0
3, 534420, Note_on_c, 0, 51, 52
3, 534583, Note_on_c, 0, 51, 0
3, 534600, Note_on_c, 0, 55, 76
3, 534763, Note_on_c, 0, 55, 0
3, 534780, Note_on_c, 0, 51, 58
3, 534943, Note_on_c, 0, 51, 0
3, 534960, Note_on_c, 0, 53, 68
3, 535123, Note_on_c, 0, 53, 0
3, 535140, Note_on_c, 0, 55, 75
3, 535303, Note_on_c, 0, 55, 0
3, 535320, Note_on_c, 0, 61, 79
3, 535483, Note_on_c, 0, 61, 0
3, 535500, Note_on_c, 0, 51, 49
3, 535663, Note_on_c, 0, 51, 0
3, 535680, Note_on_c, 0, 54, 72
3, 535843, Note_on_c, 0, 54, 0
3, 535860, Note_on_c, 0, 51, 60
3, 536023, Note_on_c, 0, 51, 0
3, 536040, Note_on_c, 0, 53, 70
3, 536203, Note_on_c, 0, 53, 0
3, 536220, Note_on_c, 0, 54, 73
3, 536383, Note_on_c, 0, 54, 0
3, 536400, Note_on_c, 0, 60, 79
3, 536563, Note_on_c, 0, 60, 0
3, 536580, Note_on_c, 0, 51, 51
3, 536743, Note_on_c, 0, 51, 0
3, 536760, Note_on_c, 0, 55, 75
3, 536923, Note_on_c, 0, 55, 0
3, 536940, Note_on_c, 0, 53, 62
3, 537103, Note_on_c, 0, 53, 0
3, 537120, Note_on_c, 0, 54, 69
3, 537283, Note_on_c, 0, 54, 0
3, 537300, Note_on_c, 0, 55, 74
3, 537463, Note_on_c, 0, 55, 0
3, 537480, Note_on_c, 0, 59, 73
3, 537643, Note_on_c, 0, 59, 0
3, 537660, Note_on_c, 0, 53, 57
3, 537823, Note_on_c, 0, 53, 0
3, 537840, Note_on_c, 0, 43, 50
3, 538003, Note_on_c, 0, 43, 0
3, 538020, Note_on_c, 0, 44, 65
3, 538183, Note_on_c, 0, 44, 0
3, 538200, Note_on_c, 0, 43, 63
3, 538363, Note_on_c, 0, 43, 0
3, 538380, Note_on_c, 0, 46, 74
3, 538543, Note_on_c, 0, 46, 0
3, 538560, Note_on_c, 0, 44, 59
3, 538723, Note_on_c, 0, 44, 0
3, 538740, Note_on_c, 0, 43, 60
3, 538903, Note_on_c, 0, 43, 0
3, 538920, Note_on_c, 0, 43, 69
3, 539083, Note_on_c, 0, 43, 0
3, 539100, Note_on_c, 0, 43, 65
3, 539263, Note_on_c, 0, 43, 0
3, 539280, Note_on_c, 0, 43, 67
3, 539443, Note_on_c, 0, 43, 0
3, 539460, Note_on_c, 0, 44, 69
3, 539623, Note_on_c, 0, 44, 0
3, 539640, Note_on_c, 0, 43, 63
3, 539803, Note_on_c, 0, 43, 0
3, 539820, Note_on_c, 0, 43, 65
3, 539983, Note_on_c, 0, 43, 0
3, 540000, Note_on_c, 0, 43, 68
3, 540163, Note_on_c, 0, 43, 0
3, 540180, Note_on_c, 0, 44, 68
3, 540343, Note_on_c, 0, 44, 0
3, 540360, Note_on_c, 0, 43, 63
3, 540523, Note_on_c, 0, 43, 0
3, 540540, Note_on_c, 0, 46, 73
3, 540703, Note_on_c, 0, 46, 0
3, 540720, Note_on_c, 0, 44, 61
3, 540883, Note_on_c, 0, 44, 0
3, 540900, Note_on_c, 0, 43, 61
3, 541063, Note_on_c, 0, 43, 0
3, 541080, Note_on_c, 0, 43, 68
3, 541243, Note_on_c, 0, 43, 0
3, 541260, Note_on_c, 0, 43, 67
3, 541423, Note_on_c, 0, 43, 0
3, 541440, Note_on_c, 0, 43, 66
3, 541603, Note_on_c, 0, 43, 0
3, 541620, Note_on_c, 0, 44, 68
3, 541783, Note_on_c, 0, 44, 0
3, 541800, Note_on_c, 0, 43, 63
3, 541963, Note_on_c, 0, 43, 0
3, 541980, Note_on_c, 0, 43, 65
3, 542143, Note_on_c, 0, 43, 0
3, 542160, Note_on_c, 0, 43, 68
3, 542323, Note_on_c, 0, 43, 0
3, 542340, Note_on_c, 0, 51, 79
3, 542503, Note_on_c, 0, 51, 0
3, 542520, Note_on_c, 0, 53, 71
3, 542683, Note_on_c, 0, 53, 0
3, 542700, Note_on_c, 0, 55, 73
3, 542863, Note_on_c, 0, 55, 0
3, 542880, Note_on_c, 0, 60, 74
3, 543043, Note_on_c, 0, 60, 0
3, 543060, Note_on_c, 0, 51, 51
3, 543223, Note_on_c, 0, 51, 0
3, 543240, Note_on_c, 0, 44, 53
3, 543403, Note_on_c, 0, 44, 0
3, 543420, Note_on_c, 0, 51, 76
3, 543583, Note_on_c, 0, 51, 0
3, 543600, Note_on_c, 0, 53, 72
3, 543763, Note_on_c, 0, 53, 0
3, 543780, Note_on_c, 0, 54, 73
3, 543943, Note_on_c, 0, 54, 0
3, 543960, Note_on_c, 0, 60, 79
3, 544123, Note_on_c, 0, 60, 0
3, 544140, Note_on_c, 0, 51, 53
3, 544303, Note_on_c, 0, 51, 0
3, 544320, Note_on_c, 0, 50, 61
3, 544483, Note_on_c, 0, 50, 0
3, 544500, Note_on_c, 0, 53, 71
3, 544663, Note_on_c, 0, 53, 0
3, 544680, Note_on_c, 0, 55, 71
3, 544843, Note_on_c, 0, 55, 0
3, 544860, Note_on_c, 0, 56, 73
3, 545023, Note_on_c, 0, 56, 0
3, 545040, Note_on_c, 0, 60, 73
3, 545203, Note_on_c, 0, 60, 0
3, 545220, Note_on_c, 0, 53, 53
3, 545383, Note_on_c, 0, 53, 0
3, 545400, Note_on_c, 0, 43, 48
3, 545563, Note_on_c, 0, 43, 0
3, 545580, Note_on_c, 0, 53, 81
3, 545743, Note_on_c, 0, 53, 0
3, 545760, Note_on_c, 0, 54, 71
3, 545923, Note_on_c, 0, 54, 0
3, 545940, Note_on_c, 0, 55, 75
3, 546103, Note_on_c, 0, 55, 0
3, 546120, Note_on_c, 0, 59, 75
3, 546283, Note_on_c, 0, 59, 0
3, 546300, Note_on_c, 0, 53, 57
3, 546463, Note_on_c, 0, 53, 0
3, 546480, Note_on_c, 0, 55, 81
3, 546480, Note_on_c, 0, 60, 80
3, 546480, Note_on_c, 0, 48, 60
3, 546480, Note_on_c, 0, 51, 60
3, 546805, Note_on_c, 0, 51, 0
3, 546805, Note_on_c, 0, 60, 0
3, 546805, Note_on_c, 0, 55, 0
3, 546805, Note_on_c, 0, 48, 0
3, 547020, Note_on_c, 0, 55, 60
3, 547020, Note_on_c, 0, 60, 59
3, 547020, Note_on_c, 0, 63, 58
3, 547020, Note_on_c, 0, 46, 58
3, 547345, Note_on_c, 0, 46, 0
3, 547345, Note_on_c, 0, 60, 0
3, 547345, Note_on_c, 0, 55, 0
3, 547345, Note_on_c, 0, 63, 0
3, 547560, Note_on_c, 0, 51, 62
3, 547560, Note_on_c, 0, 60, 62
3, 547560, Note_on_c, 0, 63, 61
3, 547560, Note_on_c, 0, 44, 59
3, 547885, Note_on_c, 0, 44, 0
3, 547885, Note_on_c, 0, 60, 0
3, 547885, Note_on_c, 0, 51, 0
3, 547885, Note_on_c, 0, 63, 0
3, 548100, Note_on_c, 0, 51, 59
3, 548100, Note_on_c, 0, 58, 58
3, 548100, Note_on_c, 0, 63, 57
3, 548100, Note_on_c, 0, 43, 60
3, 548425, Note_on_c, 0, 63, 0
3, 548425, Note_on_c, 0, 58, 0
3, 548425, Note_on_c, 0, 51, 0
3, 548425, Note_on_c, 0, 43, 0
3, 548640, Note_on_c, 0, 55, 60
3, 548640, Note_on_c, 0, 58, 62
3, 548640, Note_on_c, 0, 61, 59
3, 548640, Note_on_c, 0, 67, 63
3, 548640, Note_on_c, 0, 41, 60
3, 548640, Note_on_c, 0, 53, 62
3, 548965, Note_on_c, 0, 53, 0
3, 548965, Note_on_c, 0, 41, 0
3, 548965, Note_on_c, 0, 61, 0
3, 548965, Note_on_c, 0, 58, 0
3, 548965, Note_on_c, 0, 55, 0
3, 548965, Note_on_c, 0, 67, 0
3, 549180, Note_on_c, 0, 55, 58
3, 549180, Note_on_c, 0, 58, 58
3, 549180, Note_on_c, 0, 60, 58
3, 549180, Note_on_c, 0, 67, 60
3, 549180, Note_on_c, 0, 40, 58
3, 549180, Note_on_c, 0, 52, 59
3, 549505, Note_on_c, 0, 52, 0
3, 549505, Note_on_c, 0, 40, 0
3, 549505, Note_on_c, 0, 60, 0
3, 549505, Note_on_c, 0, 58, 0
3, 549505, Note_on_c, 0, 55, 0
3, 549505, Note_on_c, 0, 67, 0
3, 549720, Note_on_c, 0, 54, 60
3, 549720, Note_on_c, 0, 56, 60
3, 549720, Note_on_c, 0, 60, 61
3, 549720, Note_on_c, 0, 66, 60
3, 549720, Note_on_c, 0, 39, 61
3, 549720, Note_on_c, 0, 51, 61
3, 550045, Note_on_c, 0, 51, 0
3, 550045, Note_on_c, 0, 39, 0
3, 550045, Note_on_c, 0, 60, 0
3, 550045, Note_on_c, 0, 56, 0
3, 550045, Note_on_c, 0, 54, 0
3, 550045, Note_on_c, 0, 66, 0
3, 550260, Note_on_c, 0, 53, 57
3, 550260, Note_on_c, 0, 56, 56
3, 550260, Note_on_c, 0, 60, 56
3, 550260, Note_on_c, 0, 65, 60
3, 550260, Note_on_c, 0, 38, 60
3, 550260, Note_on_c, 0, 50, 58
3, 550585, Note_on_c, 0, 50, 0
3, 550585, Note_on_c, 0, 38, 0
3, 550585, Note_on_c, 0, 60, 0
3, 550585, Note_on_c, 0, 56, 0
3, 550585, Note_on_c, 0, 53, 0
3, 550585, Note_on_c, 0, 65, 0
3, 550800, Note_on_c, 0, 53, 61
3, 550800, Note_on_c, 0, 56, 63
3, 550800, Note_on_c, 0, 61, 62
3, 550800, Note_on_c, 0, 65, 62
3, 550800, Note_on_c, 0, 37, 62
3, 550800, Note_on_c, 0, 49, 63
3, 551125, Note_on_c, 0, 49, 0
3, 551125, Note_on_c, 0, 37, 0
3, 551125, Note_on_c, 0, 61, 0
3, 551125, Note_on_c, 0, 56, 0
3, 551125, Note_on_c, 0, 53, 0
3, 551125, Note_on_c, 0, 65, 0
3, 551340, Note_on_c, 0, 53, 56
3, 551340, Note_on_c, 0, 56, 58
3, 551340, Note_on_c, 0, 62, 58
3, 551340, Note_on_c, 0, 65, 57
3, 551340, Note_on_c, 0, 36, 58
3, 551340, Note_on_c, 0, 48, 58
3, 551665, Note_on_c, 0, 48, 0
3, 551665, Note_on_c, 0, 36, 0
3, 551665, Note_on_c, 0, 62, 0
3, 551665, Note_on_c, 0, 56, 0
3, 551665, Note_on_c, 0, 53, 0
3, 551665, Note_on_c, 0, 65, 0
3, 551880, Note_on_c, 0, 55, 60
3, 551880, Note_on_c, 0, 62, 63
3, 551880, Note_on_c, 0, 65, 62
3, 551880, Note_on_c, 0, 67, 61
3, 551880, Note_on_c, 0, 35, 63
3, 551880, Note_on_c, 0, 47, 61
3, 552205, Note_on_c, 0, 47, 0
3, 552205, Note_on_c, 0, 35, 0
3, 552205, Note_on_c, 0, 65, 0
3, 552205, Note_on_c, 0, 62, 0
3, 552205, Note_on_c, 0, 55, 0
3, 552205, Note_on_c, 0, 67, 0
3, 552420, Note_on_c, 0, 55, 59
3, 552420, Note_on_c, 0, 61, 56
3, 552420, Note_on_c, 0, 63, 56
3, 552420, Note_on_c, 0, 67, 59
3, 552420, Note_on_c, 0, 34, 60
3, 552420, Note_on_c, 0, 46, 60
3, 552745, Note_on_c, 0, 46, 0
3, 552745, Note_on_c, 0, 34, 0
3, 552745, Note_on_c, 0, 63, 0
3, 552745, Note_on_c, 0, 61, 0
3, 552745, Note_on_c, 0, 55, 0
3, 552745, Note_on_c, 0, 67, 0
3, 552960, Note_on_c, 0, 56, 62
3, 552960, Note_on_c, 0, 60, 59
3, 552960, Note_on_c, 0, 63, 63
3, 552960, Note_on_c, 0, 68, 63
3, 552960, Note_on_c, 0, 32, 60
3, 552960, Note_on_c, 0, 44, 62
3, 553285, Note_on_c, 0, 44, 0
3, 553285, Note_on_c, 0, 32, 0
3, 553285, Note_on_c, 0, 63, 0
3, 553285, Note_on_c, 0, 60, 0
3, 553285, Note_on_c, 0, 56, 0
3, 553285, Note_on_c, 0, 68, 0
3, 553500, Note_on_c, 0, 58, 58
3, 553500, Note_on_c, 0, 61, 58
3, 553500, Note_on_c, 0, 68, 57
3, 553500, Note_on_c, 0, 70, 60
3, 553500, Note_on_c, 0, 28, 59
3, 553500, Note_on_c, 0, 40, 59
3, 553825, Note_on_c, 0, 40, 0
3, 553825, Note_on_c, 0, 28, 0
3, 553825, Note_on_c, 0, 68, 0
3, 553825, Note_on_c, 0, 61, 0
3, 553825, Note_on_c, 0, 58, 0
3, 553825, Note_on_c, 0, 70, 0
3, 554040, Note_on_c, 0, 59, 63
3, 554040, Note_on_c, 0, 62, 62
3, 554040, Note_on_c, 0, 68, 63
3, 554040, Note_on_c, 0, 71, 61
3, 554040, Note_on_c, 0, 29, 61
3, 554040, Note_on_c, 0, 41, 59
3, 554365, Note_on_c, 0, 41, 0
3, 554365, Note_on_c, 0, 29, 0
3, 554365, Note_on_c, 0, 68, 0
3, 554365, Note_on_c, 0, 62, 0
3, 554365, Note_on_c, 0, 59, 0
3, 554365, Note_on_c, 0, 71, 0
3, 554580, Note_on_c, 0, 60, 57
3, 554580, Note_on_c, 0, 63, 56
3, 554580, Note_on_c, 0, 68, 60
3, 554580, Note_on_c, 0, 72, 57
3, 554580, Note_on_c, 0, 30, 58
3, 554580, Note_on_c, 0, 42, 57
3, 554905, Note_on_c, 0, 42, 0
3, 554905, Note_on_c, 0, 30, 0
3, 554905, Note_on_c, 0, 68, 0
3, 554905, Note_on_c, 0, 63, 0
3, 554905, Note_on_c, 0, 60, 0
3, 554905, Note_on_c, 0, 72, 0
3, 555120, Note_on_c, 0, 60, 84
3, 555120, Note_on_c, 0, 62, 84
3, 555120, Note_on_c, 0, 65, 81
3, 555120, Note_on_c, 0, 67, 83
3, 555120, Note_on_c, 0, 72, 82
3, 555660, Note_on_c, 0, 60, 61
3, 555823, Note_on_c, 0, 60, 0
3, 555840, Note_on_c, 0, 58, 61
3, 556003, Note_on_c, 0, 58, 0
3, 556020, Note_on_c, 0, 56, 62
3, 556130, Note_on_c, 0, 65, 0
3, 556130, Note_on_c, 0, 43, 0
3, 556130, Note_on_c, 0, 67, 0
3, 556130, Note_on_c, 0, 31, 0
3, 556130, Note_on_c, 0, 62, 0
3, 556130, Note_on_c, 0, 60, 0
3, 556130, Note_on_c, 0, 72, 0
3, 556183, Note_on_c, 0, 56, 0
3, 556200, Note_on_c, 0, 59, 65
3, 556200, Note_on_c, 0, 65, 64
3, 556200, Note_on_c, 0, 67, 64
3, 556200, Note_on_c, 0, 71, 62
3, 556200, Note_on_c, 0, 55, 64
3, 556363, Note_on_c, 0, 55, 0
3, 556380, Note_on_c, 0, 56, 69
3, 556543, Note_on_c, 0, 56, 0
3, 556560, Note_on_c, 0, 55, 62
3, 556723, Note_on_c, 0, 55, 0
3, 556740, Note_on_c, 0, 53, 61
3, 556903, Note_on_c, 0, 53, 0
3, 556920, Note_on_c, 0, 51, 62
3, 557083, Note_on_c, 0, 51, 0
3, 557100, Note_on_c, 0, 50, 61
3, 557210, Note_on_c, 0, 67, 0
3, 557210, Note_on_c, 0, 71, 0
3, 557210, Note_on_c, 0, 59, 0
3, 557210, Note_on_c, 0, 65, 0
3, 557263, Note_on_c, 0, 50, 0
3, 557280, Note_on_c, 0, 60, 72
3, 557280, Note_on_c, 0, 63, 70
3, 557280, Note_on_c, 0, 72, 69
3, 557280, Note_on_c, 0, 48, 61
3, 557443, Note_on_c, 0, 48, 0
3, 557443, Note_on_c, 0, 60, 0
3, 557443, Note_on_c, 0, 63, 0
3, 557443, Note_on_c, 0, 72, 0
3, 557640, Note_on_c, 0, 62, 59
3, 557803, Note_on_c, 0, 62, 0
3, 557820, Note_on_c, 0, 55, 68
3, 557820, Note_on_c, 0, 60, 69
3, 557820, Note_on_c, 0, 63, 67
3, 558145, Note_on_c, 0, 63, 0
3, 558145, Note_on_c, 0, 60, 0
3, 558145, Note_on_c, 0, 55, 0
3, 558360, Note_on_c, 0, 39, 60
3, 558360, Note_on_c, 0, 51, 59
3, 558685, Note_on_c, 0, 51, 0
3, 558685, Note_on_c, 0, 39, 0
3, 558720, Note_on_c, 0, 65, 58
3, 558883, Note_on_c, 0, 65, 0
3, 558900, Note_on_c, 0, 58, 69
3, 558900, Note_on_c, 0, 60, 68
3, 558900, Note_on_c, 0, 66, 69
3, 559225, Note_on_c, 0, 66, 0
3, 559225, Note_on_c, 0, 60, 0
3, 559225, Note_on_c, 0, 58, 0
3, 559440, Note_on_c, 0, 41, 61
3, 559440, Note_on_c, 0, 53, 60
3, 559765, Note_on_c, 0, 53, 0
3, 559765, Note_on_c, 0, 41, 0
3, 559800, Note_on_c, 0, 63, 58
3, 559963, Note_on_c, 0, 63, 0
3, 559980, Note_on_c, 0, 57, 69
3, 559980, Note_on_c, 0, 60, 69
3, 559980, Note_on_c, 0, 65, 70
3, 560305, Note_on_c, 0, 65, 0
3, 560305, Note_on_c, 0, 60, 0
3, 560305, Note_on_c, 0, 57, 0
3, 560520, Note_on_c, 0, 32, 61
3, 560520, Note_on_c, 0, 44, 60
3, 560845, Note_on_c, 0, 44, 0
3, 560845, Note_on_c, 0, 32, 0
3, 560880, Note_on_c, 0, 61, 56
3, 561043, Note_on_c, 0, 61, 0
3, 561060, Note_on_c, 0, 56, 68
3, 561060, Note_on_c, 0, 60, 71
3, 561060, Note_on_c, 0, 63, 68
3, 561385, Note_on_c, 0, 63, 0
3, 561385, Note_on_c, 0, 60, 0
3, 561385, Note_on_c, 0, 56, 0
3, 561600, Note_on_c, 0, 36, 63
3, 561600, Note_on_c, 0, 48, 62
3, 561925, Note_on_c, 0, 48, 0
3, 561925, Note_on_c, 0, 36, 0
3, 561960, Note_on_c, 0, 62, 58
3, 562123, Note_on_c, 0, 62, 0
3, 562140, Note_on_c, 0, 55, 67
3, 562140, Note_on_c, 0, 60, 67
3, 562140, Note_on_c, 0, 63, 70
3, 562465, Note_on_c, 0, 63, 0
3, 562465, Note_on_c, 0, 60, 0
3, 562465, Note_on_c, 0, 55, 0
3, 562680, Note_on_c, 0, 39, 62
3, 562680, Note_on_c, 0, 44, 63
3, 563005, Note_on_c, 0, 44, 0
3, 563005, Note_on_c, 0, 39, 0
3, 563040, Note_on_c, 0, 58, 59
3, 563203, Note_on_c, 0, 58, 0
3, 563220, Note_on_c, 0, 54, 70
3, 563220, Note_on_c, 0, 60, 69
3, 563545, Note_on_c, 0, 60, 0
3, 563545, Note_on_c, 0, 54, 0
3, 563760, Note_on_c, 0, 38, 61
3, 563760, Note_on_c, 0, 44, 63
3, 564085, Note_on_c, 0, 44, 0
3, 564085, Note_on_c, 0, 38, 0
3, 564120, Note_on_c, 0, 58, 59
3, 564283, Note_on_c, 0, 58, 0
3, 564300, Note_on_c, 0, 53, 70
3, 564300, Note_on_c, 0, 60, 67
3, 564625, Note_on_c, 0, 60, 0
3, 564625, Note_on_c, 0, 53, 0
3, 564840, Note_on_c, 0, 37, 59
3, 564840, Note_on_c, 0, 44, 63
3, 565165, Note_on_c, 0, 44, 0
3, 565165, Note_on_c, 0, 37, 0
3, 565200, Note_on_c, 0, 58, 59
3, 565363, Note_on_c, 0, 58, 0
3, 565380, Note_on_c, 0, 52, 70
3, 565380, Note_on_c, 0, 60, 69
3, 565705, Note_on_c, 0, 60, 0
3, 565705, Note_on_c, 0, 52, 0
3, 565920, Note_on_c, 0, 32, 62
3, 565920, Note_on_c, 0, 44, 59
3, 566245, Note_on_c, 0, 44, 0
3, 566245, Note_on_c, 0, 32, 0
3, 566280, Note_on_c, 0, 58, 58
3, 566443, Note_on_c, 0, 58, 0
3, 566460, Note_on_c, 0, 51, 68
3, 566460, Note_on_c, 0, 56, 71
3, 566460, Note_on_c, 0, 60, 68
3, 566785, Note_on_c, 0, 60, 0
3, 566785, Note_on_c, 0, 56, 0
3, 566785, Note_on_c, 0, 51, 0
3, 567000, Note_on_c, 0, 68, 65
3, 567000, Note_on_c, 0, 41, 60
3, 567000, Note_on_c, 0, 53, 61
3, 567325, Note_on_c, 0, 53, 0
3, 567325, Note_on_c, 0, 41, 0
3, 567540, Note_on_c, 0, 56, 59
3, 567540, Note_on_c, 0, 61, 59
3, 567865, Note_on_c, 0, 61, 0
3, 567865, Note_on_c, 0, 56, 0
3, 568080, Note_on_c, 0, 41, 60
3, 568080, Note_on_c, 0, 53, 63
3, 568405, Note_on_c, 0, 53, 0
3, 568405, Note_on_c, 0, 41, 0
3, 568620, Note_on_c, 0, 56, 57
3, 568620, Note_on_c, 0, 59, 58
3, 568620, Note_on_c, 0, 62, 56
3, 568945, Note_on_c, 0, 62, 0
3, 568945, Note_on_c, 0, 59, 0
3, 568945, Note_on_c, 0, 56, 0
3, 569090, Note_on_c, 0, 68, 0
3, 569160, Note_on_c, 0, 69, 79
3, 569160, Note_on_c, 0, 42, 60
3, 569160, Note_on_c, 0, 54, 61
3, 569485, Note_on_c, 0, 54, 0
3, 569485, Note_on_c, 0, 42, 0
3, 569700, Note_on_c, 0, 57, 59
3, 569700, Note_on_c, 0, 60, 59
3, 569700, Note_on_c, 0, 63, 60
3, 570025, Note_on_c, 0, 63, 0
3, 570025, Note_on_c, 0, 60, 0
3, 570025, Note_on_c, 0, 57, 0
3, 570240, Note_on_c, 0, 69, 0
3, 570240, Note_on_c, 0, 60, 52
3, 570240, Note_on_c, 0, 31, 66
3, 570240, Note_on_c, 0, 43, 68
3, 570565, Note_on_c, 0, 43, 0
3, 570565, Note_on_c, 0, 31, 0
3, 570780, Note_on_c, 0, 50, 58
3, 570780, Note_on_c, 0, 53, 58
3, 570780, Note_on_c, 0, 32, 58
3, 570780, Note_on_c, 0, 44, 59
3, 571105, Note_on_c, 0, 44, 0
3, 571105, Note_on_c, 0, 53, 0
3, 571105, Note_on_c, 0, 32, 0
3, 571105, Note_on_c, 0, 50, 0
3, 571250, Note_on_c, 0, 60, 0
3, 571320, Note_on_c, 0, 59, 64
3, 571320, Note_on_c, 0, 31, 60
3, 571320, Note_on_c, 0, 43, 63
3, 571645, Note_on_c, 0, 43, 0
3, 571645, Note_on_c, 0, 31, 0
3, 571860, Note_on_c, 0, 50, 59
3, 571860, Note_on_c, 0, 53, 58
3, 572185, Note_on_c, 0, 53, 0
3, 572185, Note_on_c, 0, 50, 0
3, 572330, Note_on_c, 0, 59, 0
3, 572400, Note_on_c, 0, 60, 73
3, 572400, Note_on_c, 0, 36, 62
3, 572400, Note_on_c, 0, 43, 60
3, 572725, Note_on_c, 0, 43, 0
3, 572725, Note_on_c, 0, 36, 0
3, 572940, Note_on_c, 0, 51, 58
3, 572940, Note_on_c, 0, 55, 57
3, 573265, Note_on_c, 0, 55, 0
3, 573265, Note_on_c, 0, 51, 0
3, 573410, Note_on_c, 0, 60, 0
3, 573480, Note_on_c, 0, 39, 60
3, 573480, Note_on_c, 0, 51, 63
3, 573805, Note_on_c, 0, 51, 0
3, 573805, Note_on_c, 0, 39, 0
3, 573840, Note_on_c, 0, 72, 58
3, 574003, Note_on_c, 0, 72, 0
3, 574020, Note_on_c, 0, 72, 67
3, 574183, Note_on_c, 0, 72, 0
3, 574200, Note_on_c, 0, 70, 62
3, 574363, Note_on_c, 0, 70, 0
3, 574380, Note_on_c, 0, 72, 70
3, 574543, Note_on_c, 0, 72, 0
3, 574560, Note_on_c, 0, 75, 76
3, 574560, Note_on_c, 0, 41, 62
3, 574560, Note_on_c, 0, 53, 63
3, 574723, Note_on_c, 0, 75, 0
3, 574740, Note_on_c, 0, 73, 61
3, 574885, Note_on_c, 0, 53, 0
3, 574885, Note_on_c, 0, 41, 0
3, 574903, Note_on_c, 0, 73, 0
3, 574920, Note_on_c, 0, 72, 59
3, 575083, Note_on_c, 0, 72, 0
3, 575100, Note_on_c, 0, 72, 67
3, 575263, Note_on_c, 0, 72, 0
3, 575280, Note_on_c, 0, 70, 61
3, 575443, Note_on_c, 0, 70, 0
3, 575460, Note_on_c, 0, 72, 72
3, 575623, Note_on_c, 0, 72, 0
3, 575640, Note_on_c, 0, 68, 59
3, 575640, Note_on_c, 0, 32, 61
3, 575640, Note_on_c, 0, 44, 62
3, 575803, Note_on_c, 0, 68, 0
3, 575820, Note_on_c, 0, 70, 68
3, 575965, Note_on_c, 0, 44, 0
3, 575965, Note_on_c, 0, 32, 0
3, 575983, Note_on_c, 0, 70, 0
3, 576000, Note_on_c, 0, 72, 71
3, 576163, Note_on_c, 0, 72, 0
3, 576180, Note_on_c, 0, 72, 67
3, 576505, Note_on_c, 0, 72, 0
3, 576540, Note_on_c, 0, 72, 67
3, 576703, Note_on_c, 0, 72, 0
3, 576720, Note_on_c, 0, 75, 77
3, 576720, Note_on_c, 0, 36, 61
3, 576720, Note_on_c, 0, 48, 59
3, 576883, Note_on_c, 0, 75, 0
3, 576900, Note_on_c, 0, 73, 63
3, 577045, Note_on_c, 0, 48, 0
3, 577045, Note_on_c, 0, 36, 0
3, 577063, Note_on_c, 0, 73, 0
3, 577080, Note_on_c, 0, 72, 61
3, 577243, Note_on_c, 0, 72, 0
3, 577260, Note_on_c, 0, 72, 68
3, 577423, Note_on_c, 0, 72, 0
3, 577440, Note_on_c, 0, 70, 59
3, 577603, Note_on_c, 0, 70, 0
3, 577620, Note_on_c, 0, 72, 68
3, 577783, Note_on_c, 0, 72, 0
3, 577800, Note_on_c, 0, 66, 57
3, 577800, Note_on_c, 0, 39, 63
3, 577800, Note_on_c, 0, 51, 62
3, 577963, Note_on_c, 0, 66, 0
3, 577980, Note_on_c, 0, 70, 72
3, 578125, Note_on_c, 0, 51, 0
3, 578125, Note_on_c, 0, 39, 0
3, 578143, Note_on_c, 0, 70, 0
3, 578160, Note_on_c, 0, 72, 73
3, 578323, Note_on_c, 0, 72, 0
3, 578340, Note_on_c, 0, 70, 84
3, 578665, Note_on_c, 0, 70, 0
3, 578700, Note_on_c, 0, 72, 71
3, 578863, Note_on_c, 0, 72, 0
3, 578880, Note_on_c, 0, 65, 53
3, 578880, Note_on_c, 0, 38, 62
3, 578880, Note_on_c, 0, 50, 60
3, 579043, Note_on_c, 0, 65, 0
3, 579060, Note_on_c, 0, 70, 73
3, 579205, Note_on_c, 0, 50, 0
3, 579205, Note_on_c, 0, 38, 0
3, 579223, Note_on_c, 0, 70, 0
3, 579240, Note_on_c, 0, 72, 72
3, 579403, Note_on_c, 0, 72, 0
3, 579420, Note_on_c, 0, 70, 83
3, 579745, Note_on_c, 0, 70, 0
3, 579780, Note_on_c, 0, 72, 69
3, 579943, Note_on_c, 0, 72, 0
3, 579960, Note_on_c, 0, 64, 54
3, 579960, Note_on_c, 0, 37, 62
3, 579960, Note_on_c, 0, 49, 62
3, 580123, Note_on_c, 0, 64, 0
3, 580140, Note_on_c, 0, 70, 76
3, 580285, Note_on_c, 0, 49, 0
3, 580285, Note_on_c, 0, 37, 0
3, 580303, Note_on_c, 0, 70, 0
3, 580320, Note_on_c, 0, 72, 74
3, 580483, Note_on_c, 0, 72, 0
3, 580500, Note_on_c, 0, 70, 87
3, 580825, Note_on_c, 0, 70, 0
3, 580860, Note_on_c, 0, 72, 72
3, 581023, Note_on_c, 0, 72, 0
3, 581040, Note_on_c, 0, 63, 54
3, 581040, Note_on_c, 0, 32, 61
3, 581040, Note_on_c, 0, 44, 62
3, 581203, Note_on_c, 0, 63, 0
3, 581220, Note_on_c, 0, 70, 78
3, 581365, Note_on_c, 0, 44, 0
3, 581365, Note_on_c, 0, 32, 0
3, 581383, Note_on_c, 0, 70, 0
3, 581400, Note_on_c, 0, 72, 72
3, 581563, Note_on_c, 0, 72, 0
3, 581580, Note_on_c, 0, 63, 55
3, 581743, Note_on_c, 0, 63, 0
3, 581760, Note_on_c, 0, 60, 58
3, 581923, Note_on_c, 0, 60, 0
3, 581940, Note_on_c, 0, 63, 72
3, 582103, Note_on_c, 0, 63, 0
3, 582120, Note_on_c, 0, 68, 84
3, 582120, Note_on_c, 0, 41, 59
3, 582120, Note_on_c, 0, 49, 62
3, 582445, Note_on_c, 0, 49, 0
3, 582445, Note_on_c, 0, 41, 0
3, 582660, Note_on_c, 0, 56, 56
3, 582660, Note_on_c, 0, 61, 60
3, 582660, Note_on_c, 0, 65, 59
3, 582985, Note_on_c, 0, 65, 0
3, 582985, Note_on_c, 0, 61, 0
3, 582985, Note_on_c, 0, 56, 0
3, 583200, Note_on_c, 0, 68, 0
3, 583200, Note_on_c, 0, 67, 74
3, 583200, Note_on_c, 0, 43, 63
3, 583200, Note_on_c, 0, 50, 59
3, 583525, Note_on_c, 0, 50, 0
3, 583525, Note_on_c, 0, 43, 0
3, 583740, Note_on_c, 0, 55, 58
3, 583740, Note_on_c, 0, 59, 59
3, 583740, Note_on_c, 0, 65, 59
3, 584065, Note_on_c, 0, 65, 0
3, 584065, Note_on_c, 0, 59, 0
3, 584065, Note_on_c, 0, 55, 0
3, 584280, Note_on_c, 0, 67, 0
3, 584280, Note_on_c, 0, 70, 104
3, 584280, Note_on_c, 0, 43, 62
3, 584280, Note_on_c, 0, 51, 59
3, 584605, Note_on_c, 0, 51, 0
3, 584605, Note_on_c, 0, 43, 0
3, 584820, Note_on_c, 0, 58, 58
3, 584820, Note_on_c, 0, 63, 58
3, 584820, Note_on_c, 0, 67, 59
3, 585145, Note_on_c, 0, 67, 0
3, 585145, Note_on_c, 0, 63, 0
3, 585145, Note_on_c, 0, 58, 0
3, 585360, Note_on_c, 0, 45, 62
3, 585360, Note_on_c, 0, 52, 61
3, 585685, Note_on_c, 0, 52, 0
3, 585685, Note_on_c, 0, 45, 0
3, 585847, Note_on_c, 0, 70, 0
3, 585900, Note_on_c, 0, 69, 70
3, 585900, Note_on_c, 0, 57, 57
3, 585900, Note_on_c, 0, 61, 58
3, 585900, Note_on_c, 0, 67, 58
3, 586225, Note_on_c, 0, 67, 0
3, 586225, Note_on_c, 0, 61, 0
3, 586225, Note_on_c, 0, 57, 0
3, 586440, Note_on_c, 0, 69, 0
3, 586440, Note_on_c, 0, 68, 70
3, 586440, Note_on_c, 0, 41, 60
3, 586440, Note_on_c, 0, 48, 60
3, 586765, Note_on_c, 0, 48, 0
3, 586765, Note_on_c, 0, 41, 0
3, 586980, Note_on_c, 0, 56, 60
3, 586980, Note_on_c, 0, 60, 58
3, 586980, Note_on_c, 0, 65, 58
3, 586980, Note_on_c, 0, 50, 58
3, 587305, Note_on_c, 0, 50, 0
3, 587305, Note_on_c, 0, 60, 0
3, 587305, Note_on_c, 0, 65, 0
3, 587305, Note_on_c, 0, 56, 0
3, 587520, Note_on_c, 0, 68, 0
3, 587520, Note_on_c, 0, 67, 70
3, 587520, Note_on_c, 0, 43, 61
3, 587520, Note_on_c, 0, 51, 59
3, 587845, Note_on_c, 0, 51, 0
3, 587845, Note_on_c, 0, 43, 0
3, 588060, Note_on_c, 0, 56, 58
3, 588060, Note_on_c, 0, 60, 57
3, 588060, Note_on_c, 0, 65, 59
3, 588385, Note_on_c, 0, 65, 0
3, 588385, Note_on_c, 0, 60, 0
3, 588385, Note_on_c, 0, 56, 0
3, 588600, Note_on_c, 0, 31, 60
3, 588600, Note_on_c, 0, 43, 59
3, 588925, Note_on_c, 0, 43, 0
3, 588925, Note_on_c, 0, 31, 0
3, 589140, Note_on_c, 0, 55, 57
3, 589140, Note_on_c, 0, 59, 60
3, 589140, Note_on_c, 0, 65, 58
3, 589465, Note_on_c, 0, 65, 0
3, 589465, Note_on_c, 0, 59, 0
3, 589465, Note_on_c, 0, 55, 0
3, 589610, Note_on_c, 0, 67, 0
3, 589680, Note_on_c, 0, 55, 61
3, 589680, Note_on_c, 0, 60, 61
3, 589680, Note_on_c, 0, 63, 61
3, 589680, Note_on_c, 0, 36, 59
3, 589680, Note_on_c, 0, 48, 61
3, 589843, Note_on_c, 0, 48, 0
3, 589843, Note_on_c, 0, 63, 0
3, 589843, Note_on_c, 0, 55, 0
3, 589843, Note_on_c, 0, 60, 0
3, 589843, Note_on_c, 0, 36, 0
3, 590040, Note_on_c, 0, 79, 57
3, 590040, Note_on_c, 0, 55, 56
3, 590203, Note_on_c, 0, 55, 0
3, 590203, Note_on_c, 0, 79, 0
3, 590220, Note_on_c, 0, 84, 75
3, 590220, Note_on_c, 0, 60, 76
3, 590383, Note_on_c, 0, 60, 0
3, 590383, Note_on_c, 0, 84, 0
3, 590400, Note_on_c, 0, 83, 63
3, 590400, Note_on_c, 0, 59, 64
3, 590563, Note_on_c, 0, 59, 0
3, 590563, Note_on_c, 0, 83, 0
3, 590580, Note_on_c, 0, 84, 68
3, 590580, Note_on_c, 0, 60, 70
3, 590743, Note_on_c, 0, 60, 0
3, 590743, Note_on_c, 0, 84, 0
3, 590760, Note_on_c, 0, 87, 75
3, 590760, Note_on_c, 0, 67, 81
3, 590923, Note_on_c, 0, 67, 0
3, 590923, Note_on_c, 0, 87, 0
3, 590940, Note_on_c, 0, 86, 62
3, 590940, Note_on_c, 0, 65, 64
3, 591103, Note_on_c, 0, 65, 0
3, 591103, Note_on_c, 0, 86, 0
3, 591120, Note_on_c, 0, 84, 61
3, 591120, Note_on_c, 0, 63, 61
3, 591283, Note_on_c, 0, 63, 0
3, 591283, Note_on_c, 0, 84, 0
3, 591300, Note_on_c, 0, 81, 60
3, 591300, Note_on_c, 0, 65, 73
3, 591463, Note_on_c, 0, 65, 0
3, 591463, Note_on_c, 0, 81, 0
3, 591480, Note_on_c, 0, 83, 69
3, 591480, Note_on_c, 0, 63, 60
3, 591643, Note_on_c, 0, 63, 0
3, 591643, Note_on_c, 0, 83, 0
3, 591660, Note_on_c, 0, 86, 74
3, 591660, Note_on_c, 0, 62, 60
3, 591823, Note_on_c, 0, 62, 0
3, 591823, Note_on_c, 0, 86, 0
3, 591840, Note_on_c, 0, 84, 64
3, 591840, Note_on_c, 0, 60, 70
3, 591840, Note_on_c, 0, 63, 70
3, 592003, Note_on_c, 0, 63, 0
3, 592003, Note_on_c, 0, 60, 0
3, 592003, Note_on_c, 0, 84, 0
3, 592200, Note_on_c, 0, 79, 59
3, 592200, Note_on_c, 0, 55, 58
3, 592363, Note_on_c, 0, 55, 0
3, 592363, Note_on_c, 0, 79, 0
3, 592380, Note_on_c, 0, 84, 79
3, 592380, Note_on_c, 0, 60, 77
3, 592543, Note_on_c, 0, 60, 0
3, 592543, Note_on_c, 0, 84, 0
3, 592560, Note_on_c, 0, 83, 62
3, 592560, Note_on_c, 0, 59, 63
3, 592723, Note_on_c, 0, 59, 0
3, 592723, Note_on_c, 0, 83, 0
3, 592740, Note_on_c, 0, 84, 67
3, 592740, Note_on_c, 0, 60, 71
3, 592903, Note_on_c, 0, 60, 0
3, 592903, Note_on_c, 0, 84, 0
3, 592920, Note_on_c, 0, 87, 76
3, 592920, Note_on_c, 0, 67, 85
3, 593083, Note_on_c, 0, 67, 0
3, 593083, Note_on_c, 0, 87, 0
3, 593100, Note_on_c, 0, 86, 65
3, 593100, Note_on_c, 0, 65, 61
3, 593263, Note_on_c, 0, 65, 0
3, 593263, Note_on_c, 0, 86, 0
3, 593280, Note_on_c, 0, 84, 62
3, 593280, Note_on_c, 0, 63, 60
3, 593443, Note_on_c, 0, 63, 0
3, 593443, Note_on_c, 0, 84, 0
3, 593460, Note_on_c, 0, 81, 60
3, 593460, Note_on_c, 0, 65, 74
3, 593623, Note_on_c, 0, 65, 0
3, 593623, Note_on_c, 0, 81, 0
3, 593640, Note_on_c, 0, 83, 67
3, 593640, Note_on_c, 0, 63, 63
3, 593803, Note_on_c, 0, 63, 0
3, 593803, Note_on_c, 0, 83, 0
3, 593820, Note_on_c, 0, 86, 71
3, 593820, Note_on_c, 0, 62, 61
3, 593983, Note_on_c, 0, 62, 0
3, 593983, Note_on_c, 0, 86, 0
3, 594000, Note_on_c, 0, 84, 65
3, 594000, Note_on_c, 0, 60, 72
3, 594000, Note_on_c, 0, 63, 72
3, 594163, Note_on_c, 0, 63, 0
3, 594163, Note_on_c, 0, 60, 0
3, 594163, Note_on_c, 0, 84, 0
3, 594540, Note_on_c, 0, 66, 62
3, 594540, Note_on_c, 0, 68, 63
3, 594703, Note_on_c, 0, 68, 0
3, 594703, Note_on_c, 0, 66, 0
3, 594720, Note_on_c, 0, 78, 56
3, 594720, Note_on_c, 0, 80, 59
3, 594883, Note_on_c, 0, 80, 0
3, 594883, Note_on_c, 0, 78, 0
3, 594900, Note_on_c, 0, 68, 45
3, 595063, Note_on_c, 0, 68, 0
3, 595080, Note_on_c, 0, 65, 60
3, 595080, Note_on_c, 0, 68, 61
3, 595243, Note_on_c, 0, 68, 0
3, 595243, Note_on_c, 0, 65, 0
3, 595260, Note_on_c, 0, 77, 57
3, 595260, Note_on_c, 0, 80, 59
3, 595423, Note_on_c, 0, 80, 0
3, 595423, Note_on_c, 0, 77, 0
3, 595440, Note_on_c, 0, 68, 45
3, 595603, Note_on_c, 0, 68, 0
3, 595620, Note_on_c, 0, 63, 60
3, 595620, Note_on_c, 0, 68, 60
3, 595783, Note_on_c, 0, 68, 0
3, 595783, Note_on_c, 0, 63, 0
3, 595800, Note_on_c, 0, 75, 60
3, 595800, Note_on_c, 0, 80, 57
3, 595963, Note_on_c, 0, 80, 0
3, 595963, Note_on_c, 0, 75, 0
3, 595980, Note_on_c, 0, 68, 42
3, 596143, Note_on_c, 0, 68, 0
3, 596160, Note_on_c, 0, 61, 62
3, 596160, Note_on_c, 0, 68, 63
3, 596323, Note_on_c, 0, 68, 0
3, 596323, Note_on_c, 0, 61, 0
3, 596340, Note_on_c, 0, 73, 59
3, 596340, Note_on_c, 0, 80, 57
3, 596503, Note_on_c, 0, 80, 0
3, 596503, Note_on_c, 0, 73, 0
3, 596520, Note_on_c, 0, 68, 43
3, 596683, Note_on_c, 0, 68, 0
3, 596700, Note_on_c, 0, 68, 83
3, 596863, Note_on_c, 0, 68, 0
3, 596880, Note_on_c, 0, 92, 79
3, 597043, Note_on_c, 0, 92, 0
3, 597060, Note_on_c, 0, 80, 43
3, 597223, Note_on_c, 0, 80, 0
3, 597240, Note_on_c, 0, 56, 82
3, 597403, Note_on_c, 0, 56, 0
3, 597420, Note_on_c, 0, 80, 81
3, 597583, Note_on_c, 0, 80, 0
3, 597600, Note_on_c, 0, 68, 43
3, 597763, Note_on_c, 0, 68, 0
3, 597780, Note_on_c, 0, 55, 81
3, 597780, Note_on_c, 0, 62, 82
3, 597780, Note_on_c, 0, 65, 85
3, 597943, Note_on_c, 0, 65, 0
3, 597943, Note_on_c, 0, 62, 0
3, 597943, Note_on_c, 0, 55, 0
3, 597960, Note_on_c, 0, 71, 78
3, 597960, Note_on_c, 0, 79, 80
3, 598123, Note_on_c, 0, 79, 0
3, 598123, Note_on_c, 0, 71, 0
3, 598140, Note_on_c, 0, 67, 46
3, 598303, Note_on_c, 0, 67, 0
3, 598320, Note_on_c, 0, 72, 117
3, 598320, Note_on_c, 0, 75, 115
3, 598320, Note_on_c, 0, 84, 114
3, 598320, Note_on_c, 0, 55, 83
3, 598320, Note_on_c, 0, 60, 83
3, 598320, Note_on_c, 0, 63, 81
3, 598645, Note_on_c, 0, 63, 0
3, 598645, Note_on_c, 0, 75, 0
3, 598645, Note_on_c, 0, 84, 0
3, 598645, Note_on_c, 0, 72, 0
3, 598645, Note_on_c, 0, 60, 0
3, 598645, Note_on_c, 0, 55, 0
3, 598860, Note_on_c, 0, 72, 61
3, 598860, Note_on_c, 0, 75, 60
3, 598860, Note_on_c, 0, 80, 60
3, 598860, Note_on_c, 0, 60, 61
3, 598860, Note_on_c, 0, 63, 61
3, 598860, Note_on_c, 0, 68, 61
3, 599103, Note_on_c, 0, 68, 0
3, 599103, Note_on_c, 0, 75, 0
3, 599103, Note_on_c, 0, 80, 0
3, 599103, Note_on_c, 0, 72, 0
3, 599103, Note_on_c, 0, 63, 0
3, 599103, Note_on_c, 0, 60, 0
3, 599130, Note_on_c, 0, 82, 68
3, 599130, Note_on_c, 0, 70, 71
3, 599373, Note_on_c, 0, 70, 0
3, 599373, Note_on_c, 0, 82, 0
3, 599400, Note_on_c, 0, 72, 61
3, 599400, Note_on_c, 0, 75, 61
3, 599400, Note_on_c, 0, 79, 61
3, 599400, Note_on_c, 0, 60, 63
3, 599400, Note_on_c, 0, 63, 62
3, 599400, Note_on_c, 0, 67, 61
3, 599725, Note_on_c, 0, 67, 0
3, 599725, Note_on_c, 0, 75, 0
3, 599725, Note_on_c, 0, 79, 0
3, 599725, Note_on_c, 0, 72, 0
3, 599725, Note_on_c, 0, 63, 0
3, 599725, Note_on_c, 0, 60, 0
3, 599940, Note_on_c, 0, 59, 60
3, 599940, Note_on_c, 0, 65, 60
3, 599940, Note_on_c, 0, 67, 58
3, 599940, Note_on_c, 0, 43, 58
3, 599940, Note_on_c, 0, 55, 57
3, 600117, Note_on_c, 0, 55, 0
3, 600117, Note_on_c, 0, 67, 0
3, 600117, Note_on_c, 0, 59, 0
3, 600117, Note_on_c, 0, 65, 0
3, 600117, Note_on_c, 0, 43, 0
3, 600480, Note_on_c, 0, 60, 60
3, 600480, Note_on_c, 0, 63, 63
3, 600480, Note_on_c, 0, 72, 60
3, 600480, Note_on_c, 0, 36, 62
3, 600480, Note_on_c, 0, 48, 61
3, 600657, Note_on_c, 0, 48, 0
3, 600657, Note_on_c, 0, 72, 0
3, 600657, Note_on_c, 0, 60, 0
3, 600657, Note_on_c, 0, 63, 0
3, 600657, Note_on_c, 0, 36, 0
3, 601020, Note_on_c, 0, 72, 60
3, 601020, Note_on_c, 0, 75, 60
3, 601020, Note_on_c, 0, 80, 59
3, 601020, Note_on_c, 0, 60, 61
3, 601020, Note_on_c, 0, 63, 61
3, 601020, Note_on_c, 0, 68, 61
3, 601263, Note_on_c, 0, 68, 0
3, 601263, Note_on_c, 0, 75, 0
3, 601263, Note_on_c, 0, 80, 0
3, 601263, Note_on_c, 0, 72, 0
3, 601263, Note_on_c, 0, 63, 0
3, 601263, Note_on_c, 0, 60, 0
3, 601290, Note_on_c, 0, 82, 69
3, 601290, Note_on_c, 0, 70, 70
3, 601533, Note_on_c, 0, 70, 0
3, 601533, Note_on_c, 0, 82, 0
3, 601560, Note_on_c, 0, 72, 63
3, 601560, Note_on_c, 0, 75, 64
3, 601560, Note_on_c, 0, 79, 62
3, 601560, Note_on_c, 0, 60, 64
3, 601560, Note_on_c, 0, 63, 64
3, 601560, Note_on_c, 0, 67, 65
3, 601885, Note_on_c, 0, 67, 0
3, 601885, Note_on_c, 0, 75, 0
3, 601885, Note_on_c, 0, 79, 0
3, 601885, Note_on_c, 0, 72, 0
3, 601885, Note_on_c, 0, 63, 0
3, 601885, Note_on_c, 0, 60, 0
3, 602100, Note_on_c, 0, 59, 59
3, 602100, Note_on_c, 0, 65, 58
3, 602100, Note_on_c, 0, 67, 59
3, 602100, Note_on_c, 0, 43, 56
3, 602100, Note_on_c, 0, 55, 58
3, 602277, Note_on_c, 0, 55, 0
3, 602277, Note_on_c, 0, 67, 0
3, 602277, Note_on_c, 0, 59, 0
3, 602277, Note_on_c, 0, 65, 0
3, 602277, Note_on_c, 0, 43, 0
3, 602640, Note_on_c, 0, 60, 62
3, 602640, Note_on_c, 0, 63, 61
3, 602640, Note_on_c, 0, 72, 62
3, 602640, Note_on_c, 0, 36, 61
3, 602640, Note_on_c, 0, 48, 60
3, 602817, Note_on_c, 0, 48, 0
3, 602817, Note_on_c, 0, 72, 0
3, 602817, Note_on_c, 0, 60, 0
3, 602817, Note_on_c, 0, 63, 0
3, 602817, Note_on_c, 0, 36, 0
3, 603180, Note_on_c, 0, 68, 58
3, 603180, Note_on_c, 0, 72, 58
3, 603180, Note_on_c, 0, 80, 56
3, 603180, Note_on_c, 0, 42, 59
3, 603180, Note_on_c, 0, 54, 58
3, 603357, Note_on_c, 0, 54, 0
3, 603357, Note_on_c, 0, 80, 0
3, 603357, Note_on_c, 0, 68, 0
3, 603357, Note_on_c, 0, 72, 0
3, 603357, Note_on_c, 0, 42, 0
3, 603720, Note_on_c, 0, 68, 61
3, 603720, Note_on_c, 0, 73, 62
3, 603720, Note_on_c, 0, 80, 62
3, 603720, Note_on_c, 0, 41, 60
3, 603720, Note_on_c, 0, 53, 59
3, 603897, Note_on_c, 0, 53, 0
3, 603897, Note_on_c, 0, 80, 0
3, 603897, Note_on_c, 0, 68, 0
3, 603897, Note_on_c, 0, 73, 0
3, 603897, Note_on_c, 0, 41, 0
3, 604260, Note_on_c, 0, 69, 58
3, 604260, Note_on_c, 0, 73, 57
3, 604260, Note_on_c, 0, 79, 60
3, 604260, Note_on_c, 0, 81, 57
3, 604260, Note_on_c, 0, 40, 58
3, 604260, Note_on_c, 0, 52, 57
3, 604437, Note_on_c, 0, 52, 0
3, 604437, Note_on_c, 0, 73, 0
3, 604437, Note_on_c, 0, 79, 0
3, 604437, Note_on_c, 0, 69, 0
3, 604437, Note_on_c, 0, 40, 0
3, 604437, Note_on_c, 0, 81, 0
3, 604800, Note_on_c, 0, 69, 61
3, 604800, Note_on_c, 0, 73, 61
3, 604800, Note_on_c, 0, 78, 61
3, 604800, Note_on_c, 0, 81, 60
3, 604800, Note_on_c, 0, 39, 63
3, 604800, Note_on_c, 0, 51, 63
3, 604977, Note_on_c, 0, 51, 0
3, 604977, Note_on_c, 0, 73, 0
3, 604977, Note_on_c, 0, 78, 0
3, 604977, Note_on_c, 0, 69, 0
3, 604977, Note_on_c, 0, 39, 0
3, 604977, Note_on_c, 0, 81, 0
3, 605340, Note_on_c, 0, 68, 81
3, 605340, Note_on_c, 0, 72, 80
3, 605340, Note_on_c, 0, 77, 82
3, 605340, Note_on_c, 0, 80, 79
3, 605340, Note_on_c, 0, 38, 81
3, 605340, Note_on_c, 0, 50, 81
3, 606146, Note_on_c, 0, 50, 0
3, 606146, Note_on_c, 0, 72, 0
3, 606146, Note_on_c, 0, 77, 0
3, 606146, Note_on_c, 0, 68, 0
3, 606146, Note_on_c, 0, 38, 0
3, 606146, Note_on_c, 0, 80, 0
3, 606420, Note_on_c, 0, 67, 87
3, 606420, Note_on_c, 0, 71, 87
3, 606420, Note_on_c, 0, 77, 87
3, 606420, Note_on_c, 0, 79, 84
3, 606420, Note_on_c, 0, 43, 103
3, 606420, Note_on_c, 0, 55, 103
3, 606597, Note_on_c, 0, 79, 0
3, 606597, Note_on_c, 0, 77, 0
3, 606597, Note_on_c, 0, 67, 0
3, 606597, Note_on_c, 0, 71, 0
3, 606745, Note_on_c, 0, 55, 0
3, 606745, Note_on_c, 0, 43, 0
3, 606960, Note_on_c, 0, 72, 81
3, 606960, Note_on_c, 0, 75, 83
3, 606960, Note_on_c, 0, 84, 85
3, 606960, Note_on_c, 0, 36, 82
3, 606960, Note_on_c, 0, 48, 82
3, 607285, Note_on_c, 0, 48, 0
3, 607285, Note_on_c, 0, 84, 0
3, 607285, Note_on_c, 0, 72, 0
3, 607285, Note_on_c, 0, 75, 0
3, 607285, Note_on_c, 0, 36, 0
3, 607500, Note_on_c, 0, 79, 60
3, 607500, Note_on_c, 0, 84, 60
3, 607500, Note_on_c, 0, 87, 59
3, 607500, Note_on_c, 0, 91, 57
3, 607500, Note_on_c, 0, 55, 58
3, 607500, Note_on_c, 0, 60, 57
3, 607500, Note_on_c, 0, 63, 60
3, 607500, Note_on_c, 0, 67, 57
3, 607987, Note_on_c, 0, 67, 0
3, 607987, Note_on_c, 0, 79, 0
3, 607987, Note_on_c, 0, 55, 0
3, 607987, Note_on_c, 0, 84, 0
3, 607987, Note_on_c, 0, 87, 0
3, 607987, Note_on_c, 0, 91, 0
3, 607987, Note_on_c, 0, 60, 0
3, 607987, Note_on_c, 0, 63, 0
3, 608040, Note_on_c, 0, 80, 70
3, 608040, Note_on_c, 0, 84, 70
3, 608040, Note_on_c, 0, 89, 73
3, 608040, Note_on_c, 0, 92, 70
3, 608040, Note_on_c, 0, 56, 69
3, 608040, Note_on_c, 0, 60, 69
3, 608040, Note_on_c, 0, 65, 71
3, 608040, Note_on_c, 0, 68, 71
3, 608527, Note_on_c, 0, 68, 0
3, 608527, Note_on_c, 0, 80, 0
3, 608527, Note_on_c, 0, 56, 0
3, 608527, Note_on_c, 0, 84, 0
3, 608527, Note_on_c, 0, 89, 0
3, 608527, Note_on_c, 0, 92, 0
3, 608527, Note_on_c, 0, 60, 0
3, 608527, Note_on_c, 0, 65, 0
3, 608580, Note_on_c, 0, 82, 71
3, 608580, Note_on_c, 0, 84, 70
3, 608580, Note_on_c, 0, 91, 72
3, 608580, Note_on_c, 0, 94, 69
3, 608580, Note_on_c, 0, 58, 71
3, 608580, Note_on_c, 0, 60, 71
3, 608580, Note_on_c, 0, 67, 71
3, 608580, Note_on_c, 0, 70, 69
3, 609067, Note_on_c, 0, 70, 0
3, 609067, Note_on_c, 0, 82, 0
3, 609067, Note_on_c, 0, 58, 0
3, 609067, Note_on_c, 0, 84, 0
3, 609067, Note_on_c, 0, 91, 0
3, 609067, Note_on_c, 0, 94, 0
3, 609067, Note_on_c, 0, 60, 0
3, 609067, Note_on_c, 0, 67, 0
3, 609120, Note_on_c, 0, 79, 65
3, 609120, Note_on_c, 0, 84, 65
3, 609120, Note_on_c, 0, 87, 62
3, 609120, Note_on_c, 0, 91, 64
3, 609120, Note_on_c, 0, 55, 62
3, 609120, Note_on_c, 0, 60, 64
3, 609120, Note_on_c, 0, 63, 64
3, 609120, Note_on_c, 0, 67, 64
3, 609607, Note_on_c, 0, 67, 0
3, 609607, Note_on_c, 0, 79, 0
3, 609607, Note_on_c, 0, 55, 0
3, 609607, Note_on_c, 0, 84, 0
3, 609607, Note_on_c, 0, 87, 0
3, 609607, Note_on_c, 0, 91, 0
3, 609607, Note_on_c, 0, 60, 0
3, 609607, Note_on_c, 0, 63, 0
3, 609660, Note_on_c, 0, 75, 81
3, 609660, Note_on_c, 0, 79, 79
3, 609660, Note_on_c, 0, 84, 81
3, 609660, Note_on_c, 0, 87, 80
3, 609660, Note_on_c, 0, 51, 57
3, 609660, Note_on_c, 0, 55, 57
3, 609660, Note_on_c, 0, 60, 56
3, 609660, Note_on_c, 0, 63, 58
3, 610147, Note_on_c, 0, 63, 0
3, 610147, Note_on_c, 0, 75, 0
3, 610147, Note_on_c, 0, 51, 0
3, 610147, Note_on_c, 0, 79, 0
3, 610147, Note_on_c, 0, 84, 0
3, 610147, Note_on_c, 0, 87, 0
3, 610147, Note_on_c, 0, 55, 0
3, 610147, Note_on_c, 0, 60, 0
3, 610200, Note_on_c, 0, 72, 62
3, 610200, Note_on_c, 0, 75, 66
3, 610200, Note_on_c, 0, 79, 65
3, 610200, Note_on_c, 0, 84, 63
3, 610200, Note_on_c, 0, 48, 62
3, 610200, Note_on_c, 0, 51, 60
3, 610200, Note_on_c, 0, 55, 63
3, 610200, Note_on_c, 0, 60, 62
3, 610687, Note_on_c, 0, 60, 0
3, 610687, Note_on_c, 0, 72, 0
3, 610687, Note_on_c, 0, 48, 0
3, 610687, Note_on_c, 0, 75, 0
3, 610687, Note_on_c, 0, 79, 0
3, 610687, Note_on_c, 0, 84, 0
3, 610687, Note_on_c, 0, 51, 0
3, 610687, Note_on_c, 0, 55, 0
3, 610740, Note_on_c, 0, 68, 55
3, 610740, Note_on_c, 0, 72, 58
3, 610740, Note_on_c, 0, 75, 55
3, 610740, Note_on_c, 0, 80, 57
3, 610740, Note_on_c, 0, 44, 58
3, 610740, Note_on_c, 0, 48, 55
3, 610740, Note_on_c, 0, 51, 57
3, 610740, Note_on_c, 0, 56, 58
3, 611227, Note_on_c, 0, 56, 0
3, 611227, Note_on_c, 0, 68, 0
3, 611227, Note_on_c, 0, 44, 0
3, 611227, Note_on_c, 0, 72, 0
3, 611227, Note_on_c, 0, 75, 0
3, 611227, Note_on_c, 0, 80, 0
3, 611227, Note_on_c, 0, 48, 0
3, 611227, Note_on_c, 0, 51, 0
3, 611280, Note_on_c, 0, 67, 66
3, 611280, Note_on_c, 0, 72, 65
3, 611280, Note_on_c, 0, 75, 63
3, 611280, Note_on_c, 0, 79, 63
3, 611280, Note_on_c, 0, 24, 82
3, 611280, Note_on_c, 0, 36, 84
3, 611767, Note_on_c, 0, 79, 0
3, 611767, Note_on_c, 0, 75, 0
3, 611767, Note_on_c, 0, 67, 0
3, 611767, Note_on_c, 0, 72, 0
3, 611820, Note_on_c, 0, 67, 65
3, 611820, Note_on_c, 0, 72, 65
3, 611820, Note_on_c, 0, 75, 65
3, 611820, Note_on_c, 0, 79, 65
3, 611820, Note_on_c, 0, 43, 57
3, 611820, Note_on_c, 0, 48, 57
3, 611820, Note_on_c, 0, 51, 56
3, 611820, Note_on_c, 0, 55, 59
3, 612290, Note_on_c, 0, 36, 0
3, 612290, Note_on_c, 0, 24, 0
3, 612307, Note_on_c, 0, 48, 0
3, 612307, Note_on_c, 0, 72, 0
3, 612307, Note_on_c, 0, 79, 0
3, 612307, Note_on_c, 0, 67, 0
3, 612307, Note_on_c, 0, 55, 0
3, 612307, Note_on_c, 0, 51, 0
3, 612307, Note_on_c, 0, 43, 0
3, 612307, Note_on_c, 0, 75, 0
3, 612360, Note_on_c, 0, 68, 70
3, 612360, Note_on_c, 0, 72, 70
3, 612360, Note_on_c, 0, 77, 72
3, 612360, Note_on_c, 0, 80, 72
3, 612360, Note_on_c, 0, 44, 72
3, 612360, Note_on_c, 0, 48, 72
3, 612360, Note_on_c, 0, 53, 70
3, 612360, Note_on_c, 0, 56, 71
3, 612847, Note_on_c, 0, 56, 0
3, 612847, Note_on_c, 0, 68, 0
3, 612847, Note_on_c, 0, 44, 0
3, 612847, Note_on_c, 0, 72, 0
3, 612847, Note_on_c, 0, 77, 0
3, 612847, Note_on_c, 0, 80, 0
3, 612847, Note_on_c, 0, 48, 0
3, 612847, Note_on_c, 0, 53, 0
3, 612900, Note_on_c, 0, 70, 69
3, 612900, Note_on_c, 0, 72, 71
3, 612900, Note_on_c, 0, 79, 70
3, 612900, Note_on_c, 0, 82, 71
3, 612900, Note_on_c, 0, 46, 68
3, 612900, Note_on_c, 0, 48, 71
3, 612900, Note_on_c, 0, 55, 69
3, 612900, Note_on_c, 0, 58, 71
3, 613387, Note_on_c, 0, 58, 0
3, 613387, Note_on_c, 0, 70, 0
3, 613387, Note_on_c, 0, 46, 0
3, 613387, Note_on_c, 0, 72, 0
3, 613387, Note_on_c, 0, 79, 0
3, 613387, Note_on_c, 0, 82, 0
3, 613387, Note_on_c, 0, 48, 0
3, 613387, Note_on_c, 0, 55, 0
3, 613440, Note_on_c, 0, 67, 63
3, 613440, Note_on_c, 0, 72, 65
3, 613440, Note_on_c, 0, 75, 62
3, 613440, Note_on_c, 0, 79, 62
3, 613440, Note_on_c, 0, 43, 63
3, 613440, Note_on_c, 0, 48, 62
3, 613440, Note_on_c, 0, 51, 64
3, 613440, Note_on_c, 0, 55, 63
3, 613927, Note_on_c, 0, 55, 0
3, 613927, Note_on_c, 0, 67, 0
3, 613927, Note_on_c, 0, 43, 0
3, 613927, Note_on_c, 0, 72, 0
3, 613927, Note_on_c, 0, 75, 0
3, 613927, Note_on_c, 0, 79, 0
3, 613927, Note_on_c, 0, 48, 0
3, 613927, Note_on_c, 0, 51, 0
3, 613980, Note_on_c, 0, 63, 56
3, 613980, Note_on_c, 0, 67, 58
3, 613980, Note_on_c, 0, 72, 56
3, 613980, Note_on_c, 0, 75, 59
3, 613980, Note_on_c, 0, 43, 64
3, 613980, Note_on_c, 0, 48, 67
3, 613980, Note_on_c, 0, 51, 64
3, 613980, Note_on_c, 0, 55, 64
3, 614467, Note_on_c, 0, 55, 0
3, 614467, Note_on_c, 0, 63, 0
3, 614467, Note_on_c, 0, 43, 0
3, 614467, Note_on_c, 0, 67, 0
3, 614467, Note_on_c, 0, 72, 0
3, 614467, Note_on_c, 0, 75, 0
3, 614467, Note_on_c, 0, 48, 0
3, 614467, Note_on_c, 0, 51, 0
3, 614520, Note_on_c, 0, 60, 60
3, 614520, Note_on_c, 0, 63, 59
3, 614520, Note_on_c, 0, 67, 62
3, 614520, Note_on_c, 0, 72, 62
3, 614520, Note_on_c, 0, 43, 68
3, 614520, Note_on_c, 0, 48, 71
3, 614520, Note_on_c, 0, 51, 70
3, 614520, Note_on_c, 0, 55, 70
3, 615007, Note_on_c, 0, 55, 0
3, 615007, Note_on_c, 0, 60, 0
3, 615007, Note_on_c, 0, 43, 0
3, 615007, Note_on_c, 0, 63, 0
3, 615007, Note_on_c, 0, 67, 0
3, 615007, Note_on_c, 0, 72, 0
3, 615007, Note_on_c, 0, 48, 0
3, 615007, Note_on_c, 0, 51, 0
3, 615060, Note_on_c, 0, 56, 54
3, 615060, Note_on_c, 0, 60, 56
3, 615060, Note_on_c, 0, 63, 55
3, 615060, Note_on_c, 0, 68, 56
3, 615060, Note_on_c, 0, 44, 55
3, 615060, Note_on_c, 0, 48, 57
3, 615060, Note_on_c, 0, 51, 57
3, 615547, Note_on_c, 0, 51, 0
3, 615547, Note_on_c, 0, 44, 0
3, 615547, Note_on_c, 0, 60, 0
3, 615547, Note_on_c, 0, 63, 0
3, 615547, Note_on_c, 0, 56, 0
3, 615547, Note_on_c, 0, 48, 0
3, 615547, Note_on_c, 0, 68, 0
3, 615600, Note_on_c, 0, 55, 64
3, 615600, Note_on_c, 0, 60, 62
3, 615600, Note_on_c, 0, 63, 62
3, 615600, Note_on_c, 0, 67, 64
3, 615600, Note_on_c, 0, 24, 90
3, 615600, Note_on_c, 0, 36, 92
3, 616087, Note_on_c, 0, 67, 0
3, 616087, Note_on_c, 0, 63, 0
3, 616087, Note_on_c, 0, 55, 0
3, 616087, Note_on_c, 0, 60, 0
3, 616140, Note_on_c, 0, 55, 66
3, 616140, Note_on_c, 0, 60, 65
3, 616140, Note_on_c, 0, 63, 63
3, 616140, Note_on_c, 0, 67, 65
3, 616140, Note_on_c, 0, 43, 57
3, 616140, Note_on_c, 0, 48, 59
3, 616140, Note_on_c, 0, 51, 59
3, 616610, Note_on_c, 0, 36, 0
3, 616610, Note_on_c, 0, 24, 0
3, 616627, Note_on_c, 0, 60, 0
3, 616627, Note_on_c, 0, 67, 0
3, 616627, Note_on_c, 0, 55, 0
3, 616627, Note_on_c, 0, 63, 0
3, 616627, Note_on_c, 0, 51, 0
3, 616627, Note_on_c, 0, 43, 0
3, 616627, Note_on_c, 0, 48, 0
3, 616680, Note_on_c, 0, 56, 72
3, 616680, Note_on_c, 0, 60, 73
3, 616680, Note_on_c, 0, 63, 70
3, 616680, Note_on_c, 0, 68, 70
3, 616680, Note_on_c, 0, 32, 74
3, 616680, Note_on_c, 0, 44, 74
3, 617167, Note_on_c, 0, 44, 0
3, 617167, Note_on_c, 0, 60, 0
3, 617167, Note_on_c, 0, 63, 0
3, 617167, Note_on_c, 0, 56, 0
3, 617167, Note_on_c, 0, 32, 0
3, 617167, Note_on_c, 0, 68, 0
3, 617220, Note_on_c, 0, 58, 72
3, 617220, Note_on_c, 0, 60, 73
3, 617220, Note_on_c, 0, 63, 72
3, 617220, Note_on_c, 0, 70, 72
3, 617220, Note_on_c, 0, 31, 85
3, 617220, Note_on_c, 0, 43, 82
3, 617707, Note_on_c, 0, 43, 0
3, 617707, Note_on_c, 0, 60, 0
3, 617707, Note_on_c, 0, 63, 0
3, 617707, Note_on_c, 0, 58, 0
3, 617707, Note_on_c, 0, 31, 0
3, 617707, Note_on_c, 0, 70, 0
3, 617760, Note_on_c, 0, 55, 63
3, 617760, Note_on_c, 0, 60, 62
3, 617760, Note_on_c, 0, 63, 63
3, 617760, Note_on_c, 0, 67, 61
3, 617760, Note_on_c, 0, 24, 96
3, 617760, Note_on_c, 0, 36, 95
3, 618247, Note_on_c, 0, 67, 0
3, 618247, Note_on_c, 0, 63, 0
3, 618247, Note_on_c, 0, 55, 0
3, 618247, Note_on_c, 0, 60, 0
3, 618300, Note_on_c, 0, 55, 66
3, 618300, Note_on_c, 0, 60, 66
3, 618300, Note_on_c, 0, 63, 67
3, 618300, Note_on_c, 0, 67, 64
3, 618300, Note_on_c, 0, 43, 58
3, 618300, Note_on_c, 0, 48, 58
3, 618300, Note_on_c, 0, 51, 58
3, 618770, Note_on_c, 0, 36, 0
3, 618770, Note_on_c, 0, 24, 0
3, 618787, Note_on_c, 0, 60, 0
3, 618787, Note_on_c, 0, 67, 0
3, 618787, Note_on_c, 0, 55, 0
3, 618787, Note_on_c, 0, 63, 0
3, 618787, Note_on_c, 0, 51, 0
3, 618787, Note_on_c, 0, 43, 0
3, 618787, Note_on_c, 0, 48, 0
3, 618840, Note_on_c, 0, 56, 71
3, 618840, Note_on_c, 0, 60, 71
3, 618840, Note_on_c, 0, 63, 71
3, 618840, Note_on_c, 0, 68, 74
3, 618840, Note_on_c, 0, 32, 75
3, 618840, Note_on_c, 0, 44, 74
3, 619327, Note_on_c, 0, 44, 0
3, 619327, Note_on_c, 0, 60, 0
3, 619327, Note_on_c, 0, 63, 0
3, 619327, Note_on_c, 0, 56, 0
3, 619327, Note_on_c, 0, 32, 0
3, 619327, Note_on_c, 0, 68, 0
3, 619380, Note_on_c, 0, 58, 73
3, 619380, Note_on_c, 0, 60, 70
3, 619380, Note_on_c, 0, 63, 71
3, 619380, Note_on_c, 0, 70, 69
3, 619380, Note_on_c, 0, 31, 81
3, 619380, Note_on_c, 0, 43, 84
3, 619867, Note_on_c, 0, 43, 0
3, 619867, Note_on_c, 0, 60, 0
3, 619867, Note_on_c, 0, 63, 0
3, 619867, Note_on_c, 0, 58, 0
3, 619867, Note_on_c, 0, 31, 0
3, 619867, Note_on_c, 0, 70, 0
3, 619920, Note_on_c, 0, 55, 63
3, 619920, Note_on_c, 0, 60, 63
3, 619920, Note_on_c, 0, 63, 64
3, 619920, Note_on_c, 0, 67, 63
3, 619920, Note_on_c, 0, 24, 75
3, 619920, Note_on_c, 0, 36, 77
3, 620407, Note_on_c, 0, 36, 0
3, 620407, Note_on_c, 0, 60, 0
3, 620407, Note_on_c, 0, 63, 0
3, 620407, Note_on_c, 0, 55, 0
3, 620407, Note_on_c, 0, 24, 0
3, 620407, Note_on_c, 0, 67, 0
3, 620460, Note_on_c, 0, 56, 66
3, 620460, Note_on_c, 0, 60, 69
3, 620460, Note_on_c, 0, 63, 67
3, 620460, Note_on_c, 0, 68, 67
3, 620460, Note_on_c, 0, 29, 101
3, 620460, Note_on_c, 0, 41, 101
3, 620947, Note_on_c, 0, 41, 0
3, 620947, Note_on_c, 0, 60, 0
3, 620947, Note_on_c, 0, 63, 0
3, 620947, Note_on_c, 0, 56, 0
3, 620947, Note_on_c, 0, 29, 0
3, 620947, Note_on_c, 0, 68, 0
3, 621000, Note_on_c, 0, 55, 66
3, 621000, Note_on_c, 0, 60, 65
3, 621000, Note_on_c, 0, 63, 66
3, 621000, Note_on_c, 0, 67, 65
3, 621000, Note_on_c, 0, 24, 82
3, 621000, Note_on_c, 0, 36, 81
3, 621487, Note_on_c, 0, 36, 0
3, 621487, Note_on_c, 0, 60, 0
3, 621487, Note_on_c, 0, 63, 0
3, 621487, Note_on_c, 0, 55, 0
3, 621487, Note_on_c, 0, 24, 0
3, 621487, Note_on_c, 0, 67, 0
3, 621540, Note_on_c, 0, 56, 68
3, 621540, Note_on_c, 0, 60, 67
3, 621540, Note_on_c, 0, 63, 69
3, 621540, Note_on_c, 0, 68, 69
3, 621540, Note_on_c, 0, 27, 98
3, 621540, Note_on_c, 0, 39, 97
3, 622027, Note_on_c, 0, 39, 0
3, 622027, Note_on_c, 0, 60, 0
3, 622027, Note_on_c, 0, 63, 0
3, 622027, Note_on_c, 0, 56, 0
3, 622027, Note_on_c, 0, 27, 0
3, 622027, Note_on_c, 0, 68, 0
3, 622080, Note_on_c, 0, 55, 63
3, 622080, Note_on_c, 0, 60, 63
3, 622080, Note_on_c, 0, 63, 66
3, 622080, Note_on_c, 0, 67, 67
3, 622080, Note_on_c, 0, 24, 87
3, 622080, Note_on_c, 0, 36, 88
3, 622567, Note_on_c, 0, 36, 0
3, 622567, Note_on_c, 0, 60, 0
3, 622567, Note_on_c, 0, 63, 0
3, 622567, Note_on_c, 0, 55, 0
3, 622567, Note_on_c, 0, 24, 0
3, 622567, Note_on_c, 0, 67, 0
3, 622620, Note_on_c, 0, 56, 70
3, 622620, Note_on_c, 0, 60, 68
3, 622620, Note_on_c, 0, 63, 67
3, 622620, Note_on_c, 0, 68, 67
3, 622620, Note_on_c, 0, 29, 103
3, 622620, Note_on_c, 0, 41, 101
3, 623107, Note_on_c, 0, 41, 0
3, 623107, Note_on_c, 0, 60, 0
3, 623107, Note_on_c, 0, 63, 0
3, 623107, Note_on_c, 0, 56, 0
3, 623107, Note_on_c, 0, 29, 0
3, 623107, Note_on_c, 0, 68, 0
3, 623160, Note_on_c, 0, 55, 63
3, 623160, Note_on_c, 0, 60, 64
3, 623160, Note_on_c, 0, 63, 65
3, 623160, Note_on_c, 0, 67, 65
3, 623160, Note_on_c, 0, 24, 81
3, 623160, Note_on_c, 0, 36, 81
3, 623647, Note_on_c, 0, 36, 0
3, 623647, Note_on_c, 0, 60, 0
3, 623647, Note_on_c, 0, 63, 0
3, 623647, Note_on_c, 0, 55, 0
3, 623647, Note_on_c, 0, 24, 0
3, 623647, Note_on_c, 0, 67, 0
3, 623700, Note_on_c, 0, 56, 69
3, 623700, Note_on_c, 0, 60, 68
3, 623700, Note_on_c, 0, 63, 70
3, 623700, Note_on_c, 0, 68, 69
3, 623700, Note_on_c, 0, 27, 99
3, 623700, Note_on_c, 0, 39, 96
3, 624187, Note_on_c, 0, 39, 0
3, 624187, Note_on_c, 0, 60, 0
3, 624187, Note_on_c, 0, 63, 0
3, 624187, Note_on_c, 0, 56, 0
3, 624187, Note_on_c, 0, 27, 0
3, 624187, Note_on_c, 0, 68, 0
3, 624240, Note_on_c, 0, 55, 65
3, 624240, Note_on_c, 0, 60, 65
3, 624240, Note_on_c, 0, 63, 64
3, 624240, Note_on_c, 0, 67, 66
3, 624240, Note_on_c, 0, 24, 62
3, 624240, Note_on_c, 0, 36, 65
3, 624403, Note_on_c, 0, 36, 0
3, 624403, Note_on_c, 0, 60, 0
3, 624403, Note_on_c, 0, 63, 0
3, 624403, Note_on_c, 0, 55, 0
3, 624403, Note_on_c, 0, 24, 0
3, 624403, Note_on_c, 0, 67, 0
3, 624780, Note_on_c, 0, 63, 61
3, 624780, Note_on_c, 0, 67, 61
3, 624780, Note_on_c, 0, 72, 61
3, 624780, Note_on_c, 0, 75, 59
3, 624780, Note_on_c, 0, 36, 61
3, 624780, Note_on_c, 0, 39, 59
3, 624780, Note_on_c, 0, 43, 62
3, 624780, Note_on_c, 0, 48, 60
3, 625023, Note_on_c, 0, 48, 0
3, 625023, Note_on_c, 0, 63, 0
3, 625023, Note_on_c, 0, 36, 0
3, 625023, Note_on_c, 0, 67, 0
3, 625023, Note_on_c, 0, 72, 0
3, 625023, Note_on_c, 0, 75, 0
3, 625023, Note_on_c, 0, 39, 0
3, 625023, Note_on_c, 0, 43, 0
3, 625050, Note_on_c, 0, 63, 65
3, 625050, Note_on_c, 0, 67, 64
3, 625050, Note_on_c, 0, 72, 65
3, 625050, Note_on_c, 0, 75, 66
3, 625050, Note_on_c, 0, 36, 62
3, 625050, Note_on_c, 0, 39, 63
3, 625050, Note_on_c, 0, 43, 63
3, 625050, Note_on_c, 0, 48, 64
3, 625293, Note_on_c, 0, 48, 0
3, 625293, Note_on_c, 0, 63, 0
3, 625293, Note_on_c, 0, 36, 0
3, 625293, Note_on_c, 0, 67, 0
3, 625293, Note_on_c, 0, 72, 0
3, 625293, Note_on_c, 0, 75, 0
3, 625293, Note_on_c, 0, 39, 0
3, 625293, Note_on_c, 0, 43, 0
3, 625320, Note_on_c, 0, 63, 69
3, 625320, Note_on_c, 0, 67, 70
3, 625320, Note_on_c, 0, 72, 71
3, 625320, Note_on_c, 0, 75, 67
3, 625320, Note_on_c, 0, 36, 68
3, 625320, Note_on_c, 0, 39, 67
3, 625320, Note_on_c, 0, 43, 68
3, 625320, Note_on_c, 0, 48, 68
3, 625807, Note_on_c, 0, 48, 0
3, 625807, Note_on_c, 0, 63, 0
3, 625807, Note_on_c, 0, 36, 0
3, 625807, Note_on_c, 0, 67, 0
3, 625807, Note_on_c, 0, 72, 0
3, 625807, Note_on_c, 0, 75, 0
3, 625807, Note_on_c, 0, 39, 0
3, 625807, Note_on_c, 0, 43, 0
3, 625860, Note_on_c, 0, 63, 69
3, 625860, Note_on_c, 0, 67, 70
3, 625860, Note_on_c, 0, 72, 69
3, 625860, Note_on_c, 0, 75, 71
3, 625860, Note_on_c, 0, 36, 69
3, 625860, Note_on_c, 0, 39, 70
3, 625860, Note_on_c, 0, 43, 71
3, 625860, Note_on_c, 0, 48, 68
3, 626103, Note_on_c, 0, 48, 0
3, 626103, Note_on_c, 0, 63, 0
3, 626103, Note_on_c, 0, 36, 0
3, 626103, Note_on_c, 0, 67, 0
3, 626103, Note_on_c, 0, 72, 0
3, 626103, Note_on_c, 0, 75, 0
3, 626103, Note_on_c, 0, 39, 0
3, 626103, Note_on_c, 0, 43, 0
3, 626130, Note_on_c, 0, 63, 67
3, 626130, Note_on_c, 0, 67, 66
3, 626130, Note_on_c, 0, 72, 68
3, 626130, Note_on_c, 0, 75, 68
3, 626130, Note_on_c, 0, 36, 64
3, 626130, Note_on_c, 0, 39, 66
3, 626130, Note_on_c, 0, 43, 66
3, 626130, Note_on_c, 0, 48, 65
3, 626373, Note_on_c, 0, 48, 0
3, 626373, Note_on_c, 0, 63, 0
3, 626373, Note_on_c, 0, 36, 0
3, 626373, Note_on_c, 0, 67, 0
3, 626373, Note_on_c, 0, 72, 0
3, 626373, Note_on_c, 0, 75, 0
3, 626373, Note_on_c, 0, 39, 0
3, 626373, Note_on_c, 0, 43, 0
3, 626400, Note_on_c, 0, 63, 67
3, 626400, Note_on_c, 0, 67, 69
3, 626400, Note_on_c, 0, 72, 69
3, 626400, Note_on_c, 0, 75, 67
3, 626400, Note_on_c, 0, 36, 68
3, 626400, Note_on_c, 0, 39, 70
3, 626400, Note_on_c, 0, 43, 68
3, 626400, Note_on_c, 0, 48, 70
3, 626887, Note_on_c, 0, 48, 0
3, 626887, Note_on_c, 0, 63, 0
3, 626887, Note_on_c, 0, 36, 0
3, 626887, Note_on_c, 0, 67, 0
3, 626887, Note_on_c, 0, 72, 0
3, 626887, Note_on_c, 0, 75, 0
3, 626887, Note_on_c, 0, 39, 0
3, 626887, Note_on_c, 0, 43, 0
3, 626940, Note_on_c, 0, 63, 69
3, 626940, Note_on_c, 0, 67, 70
3, 626940, Note_on_c, 0, 72, 67
3, 626940, Note_on_c, 0, 75, 70
3, 626940, Note_on_c, 0, 36, 68
3, 626940, Note_on_c, 0, 39, 70
3, 626940, Note_on_c, 0, 43, 69
3, 626940, Note_on_c, 0, 48, 69
3, 627183, Note_on_c, 0, 48, 0
3, 627183, Note_on_c, 0, 63, 0
3, 627183, Note_on_c, 0, 36, 0
3, 627183, Note_on_c, 0, 67, 0
3, 627183, Note_on_c, 0, 72, 0
3, 627183, Note_on_c, 0, 75, 0
3, 627183, Note_on_c, 0, 39, 0
3, 627183, Note_on_c, 0, 43, 0
3, 627210, Note_on_c, 0, 63, 68
3, 627210, Note_on_c, 0, 67, 66
3, 627210, Note_on_c, 0, 72, 65
3, 627210, Note_on_c, 0, 75, 66
3, 627210, Note_on_c, 0, 36, 66
3, 627210, Note_on_c, 0, 39, 65
3, 627210, Note_on_c, 0, 43, 64
3, 627210, Note_on_c, 0, 48, 65
3, 627453, Note_on_c, 0, 48, 0
3, 627453, Note_on_c, 0, 63, 0
3, 627453, Note_on_c, 0, 36, 0
3, 627453, Note_on_c, 0, 67, 0
3, 627453, Note_on_c, 0, 72, 0
3, 627453, Note_on_c, 0, 75, 0
3, 627453, Note_on_c, 0, 39, 0
3, 627453, Note_on_c, 0, 43, 0
3, 627480, Note_on_c, 0, 63, 69
3, 627480, Note_on_c, 0, 67, 70
3, 627480, Note_on_c, 0, 72, 69
3, 627480, Note_on_c, 0, 75, 70
3, 627480, Note_on_c, 0, 36, 70
3, 627480, Note_on_c, 0, 39, 71
3, 627480, Note_on_c, 0, 43, 69
3, 627480, Note_on_c, 0, 48, 71
3, 627723, Note_on_c, 0, 48, 0
3, 627723, Note_on_c, 0, 63, 0
3, 627723, Note_on_c, 0, 36, 0
3, 627723, Note_on_c, 0, 67, 0
3, 627723, Note_on_c, 0, 72, 0
3, 627723, Note_on_c, 0, 75, 0
3, 627723, Note_on_c, 0, 39, 0
3, 627723, Note_on_c, 0, 43, 0
3, 627750, Note_on_c, 0, 63, 65
3, 627750, Note_on_c, 0, 67, 64
3, 627750, Note_on_c, 0, 72, 64
3, 627750, Note_on_c, 0, 75, 68
3, 627750, Note_on_c, 0, 36, 67
3, 627750, Note_on_c, 0, 39, 66
3, 627750, Note_on_c, 0, 43, 67
3, 627750, Note_on_c, 0, 48, 67
3, 627993, Note_on_c, 0, 48, 0
3, 627993, Note_on_c, 0, 63, 0
3, 627993, Note_on_c, 0, 36, 0
3, 627993, Note_on_c, 0, 67, 0
3, 627993, Note_on_c, 0, 72, 0
3, 627993, Note_on_c, 0, 75, 0
3, 627993, Note_on_c, 0, 39, 0
3, 627993, Note_on_c, 0, 43, 0
3, 628020, Note_on_c, 0, 63, 70
3, 628020, Note_on_c, 0, 67, 67
3, 628020, Note_on_c, 0, 72, 68
3, 628020, Note_on_c, 0, 75, 70
3, 628020, Note_on_c, 0, 36, 68
3, 628020, Note_on_c, 0, 39, 67
3, 628020, Note_on_c, 0, 43, 68
3, 628020, Note_on_c, 0, 48, 69
3, 628263, Note_on_c, 0, 48, 0
3, 628263, Note_on_c, 0, 63, 0
3, 628263, Note_on_c, 0, 36, 0
3, 628263, Note_on_c, 0, 67, 0
3, 628263, Note_on_c, 0, 72, 0
3, 628263, Note_on_c, 0, 75, 0
3, 628263, Note_on_c, 0, 39, 0
3, 628263, Note_on_c, 0, 43, 0
3, 628290, Note_on_c, 0, 63, 67
3, 628290, Note_on_c, 0, 67, 68
3, 628290, Note_on_c, 0, 72, 64
3, 628290, Note_on_c, 0, 75, 68
3, 628290, Note_on_c, 0, 36, 68
3, 628290, Note_on_c, 0, 39, 67
3, 628290, Note_on_c, 0, 43, 67
3, 628290, Note_on_c, 0, 48, 67
3, 628533, Note_on_c, 0, 48, 0
3, 628533, Note_on_c, 0, 63, 0
3, 628533, Note_on_c, 0, 36, 0
3, 628533, Note_on_c, 0, 67, 0
3, 628533, Note_on_c, 0, 72, 0
3, 628533, Note_on_c, 0, 75, 0
3, 628533, Note_on_c, 0, 39, 0
3, 628533, Note_on_c, 0, 43, 0
3, 628560, Note_on_c, 0, 63, 68
3, 628560, Note_on_c, 0, 67, 71
3, 628560, Note_on_c, 0, 72, 70
3, 628560, Note_on_c, 0, 75, 69
3, 628560, Note_on_c, 0, 36, 70
3, 628560, Note_on_c, 0, 39, 67
3, 628560, Note_on_c, 0, 43, 70
3, 628560, Note_on_c, 0, 48, 68
3, 629047, Note_on_c, 0, 48, 0
3, 629047, Note_on_c, 0, 63, 0
3, 629047, Note_on_c, 0, 36, 0
3, 629047, Note_on_c, 0, 67, 0
3, 629047, Note_on_c, 0, 72, 0
3, 629047, Note_on_c, 0, 75, 0
3, 629047, Note_on_c, 0, 39, 0
3, 629047, Note_on_c, 0, 43, 0
3, 629640, Note_on_c, 0, 55, 84
3, 629640, Note_on_c, 0, 67, 81
3, 629640, Note_on_c, 0, 31, 84
3, 629640, Note_on_c, 0, 43, 84
3, 630127, Note_on_c, 0, 43, 0
3, 630127, Note_on_c, 0, 55, 0
3, 630127, Note_on_c, 0, 67, 0
3, 630127, Note_on_c, 0, 31, 0
3, 630180, Note_on_c, 0, 55, 89
3, 630180, Note_on_c, 0, 67, 91
3, 630180, Note_on_c, 0, 31, 89
3, 630180, Note_on_c, 0, 43, 90
3, 630667, Note_on_c, 0, 43, 0
3, 630667, Note_on_c, 0, 55, 0
3, 630667, Note_on_c, 0, 67, 0
3, 630667, Note_on_c, 0, 31, 0
3, 630720, Note_on_c, 0, 48, 77
3, 630720, Note_on_c, 0, 60, 77
3, 630720, Note_on_c, 0, 24, 76
3, 630720, Note_on_c, 0, 36, 74
3, 632810, Note_on_c, 0, 36, 0
3, 632810, Note_on_c, 0, 48, 0
3, 632810, Note_on_c, 0, 60, 0
3, 632810, Note_on_c, 0, 24, 0
3, 632810, End_track
0, 0, End_of_file
