0, 0, Header, 1, 2, 360
1, 0, Start_track
1, 0, Title_t, "The Bells Op. 35"
1, 0, Copyright_t, "Copyright (C) "
1, 0, Text_t, "Rachmaninoff\012"
1, 0, Time_signature, 3, 2, 24, 8
1, 0, Key_signature, 2, "major"
1, 0, Tempo, 1000000
1, 42120, Time_signature, 9, 3, 12, 8
1, 58320, Time_signature, 3, 2, 24, 8
1, 62100, Tempo, 1000000
1, 62123, Tempo, 1032169
1, 62145, Tempo, 1066667
1, 62168, Tempo, 1103347
1, 62190, Tempo, 1142857
1, 62213, Tempo, 1185068
1, 62235, Tempo, 1230769
1, 62258, Tempo, 1279863
1, 62280, Tempo, 1333333
1, 62640, Tempo, 1090909
1, 73440, Tempo, 1000000
1, 77760, Time_signature, 9, 3, 12, 8
1, 89100, Time_signature, 3, 2, 24, 8
1, 89100, Tempo, 1000000
1, 89152, Tempo, 1014713
1, 89204, Tempo, 1029689
1, 89256, Tempo, 1045296
1, 89308, Tempo, 1061383
1, 89360, Tempo, 1077973
1, 89412, Tempo, 1094891
1, 89464, Tempo, 1112553
1, 89516, Tempo, 1130795
1, 89568, Tempo, 1149425
1, 89621, Tempo, 1168907
1, 89672, Tempo, 1189061
1, 89724, Tempo, 1209921
1, 89777, Tempo, 1231274
1, 89829, Tempo, 1253656
1, 89880, Tempo, 1276867
1, 89933, Tempo, 1300672
1, 90000, Tempo, 1333333
1, 90180, Tempo, 1000000
1, 94500, Time_signature, 9, 3, 12, 8
1, 100980, Tempo, 1016949
1, 101520, Tempo, 1052632
1, 102060, Tempo, 1090909
1, 102600, Tempo, 1132075
1, 120420, Tempo, 1153846
1, 120960, Tempo, 1176471
1, 121500, Tempo, 1200000
1, 122040, Tempo, 1132075
1, 154440, Time_signature, 12, 3, 12, 8
1, 165240, Tempo, 1000000
1, 167400, Time_signature, 3, 2, 24, 8
1, 169560, Time_signature, 12, 3, 12, 8
1, 171720, Time_signature, 3, 2, 24, 8
1, 207360, Time_signature, 4, 2, 24, 8
1, 211590, Tempo, 5000000
1, 211680, Tempo, 1000000
1, 211680, End_track
2, 0, Start_track
2, 0, Title_t, "PIANO"
2, 0, Program_c, 0, 0
2, 0, Control_c, 0, 7, 110
2, 0, Control_c, 0, 10, 64
2, 0, Control_c, 0, 91, 48
2, 0, Control_c, 0, 121, 0
2, 0, Control_c, 0, 64, 0
2, 0, Control_c, 0, 121, 0
2, 0, Control_c, 0, 64, 0
2, 0, Control_c, 0, 91, 48
2, 0, Control_c, 0, 10, 51
2, 0, Control_c, 0, 7, 100
2, 0, Note_on_c, 0, 63, 74
2, 599, Note_on_c, 0, 63, 0
2, 599, Note_on_c, 0, 62, 81
2, 720, Note_on_c, 0, 62, 0
2, 720, Note_on_c, 0, 63, 91
2, 1319, Note_on_c, 0, 63, 0
2, 1319, Note_on_c, 0, 60, 78
2, 1440, Note_on_c, 0, 60, 0
2, 1440, Note_on_c, 0, 63, 89
2, 1800, Note_on_c, 0, 54, 86
2, 1800, Note_on_c, 0, 56, 86
2, 1800, Note_on_c, 0, 60, 86
2, 1800, Note_on_c, 0, 38, 86
2, 1800, Note_on_c, 0, 44, 86
2, 1800, Note_on_c, 0, 50, 86
2, 2340, Note_on_c, 0, 50, 0
2, 2340, Note_on_c, 0, 38, 0
2, 2340, Note_on_c, 0, 54, 0
2, 2340, Note_on_c, 0, 56, 0
2, 2340, Note_on_c, 0, 60, 0
2, 2340, Note_on_c, 0, 44, 0
2, 2399, Note_on_c, 0, 63, 0
2, 2399, Note_on_c, 0, 62, 71
2, 2520, Note_on_c, 0, 62, 0
2, 2520, Note_on_c, 0, 63, 81
2, 2759, Note_on_c, 0, 63, 0
2, 2759, Note_on_c, 0, 60, 64
2, 2880, Note_on_c, 0, 60, 0
2, 2880, Note_on_c, 0, 63, 78
2, 3479, Note_on_c, 0, 63, 0
2, 3479, Note_on_c, 0, 58, 66
2, 3600, Note_on_c, 0, 58, 0
2, 3600, Note_on_c, 0, 63, 79
2, 3960, Note_on_c, 0, 54, 73
2, 3960, Note_on_c, 0, 56, 73
2, 3960, Note_on_c, 0, 60, 73
2, 3960, Note_on_c, 0, 38, 73
2, 3960, Note_on_c, 0, 44, 73
2, 3960, Note_on_c, 0, 50, 73
2, 4199, Note_on_c, 0, 63, 0
2, 4199, Note_on_c, 0, 62, 65
2, 4320, Note_on_c, 0, 62, 0
2, 4320, Note_on_c, 0, 63, 63
2, 4500, Note_on_c, 0, 50, 0
2, 4500, Note_on_c, 0, 38, 0
2, 4500, Note_on_c, 0, 56, 0
2, 4500, Note_on_c, 0, 60, 0
2, 4500, Note_on_c, 0, 54, 0
2, 4500, Note_on_c, 0, 44, 0
2, 4559, Note_on_c, 0, 63, 0
2, 4559, Note_on_c, 0, 60, 61
2, 4680, Note_on_c, 0, 60, 0
2, 4680, Note_on_c, 0, 63, 63
2, 4919, Note_on_c, 0, 63, 0
2, 4919, Note_on_c, 0, 58, 58
2, 5040, Note_on_c, 0, 58, 0
2, 5040, Note_on_c, 0, 63, 72
2, 5279, Note_on_c, 0, 63, 0
2, 5279, Note_on_c, 0, 56, 61
2, 5400, Note_on_c, 0, 56, 0
2, 5400, Note_on_c, 0, 68, 84
2, 5400, Note_on_c, 0, 72, 84
2, 5400, Note_on_c, 0, 75, 84
2, 5400, Note_on_c, 0, 66, 67
2, 5400, Note_on_c, 0, 63, 55
2, 5400, Note_on_c, 0, 54, 67
2, 5400, Note_on_c, 0, 56, 67
2, 5400, Note_on_c, 0, 60, 67
2, 5490, Note_on_c, 0, 63, 0
2, 5490, Note_on_c, 0, 62, 55
2, 5580, Note_on_c, 0, 62, 0
2, 5580, Note_on_c, 0, 63, 61
2, 5580, Note_on_c, 0, 26, 57
2, 5580, Note_on_c, 0, 32, 57
2, 5580, Note_on_c, 0, 38, 57
2, 5670, Note_on_c, 0, 63, 0
2, 5670, Note_on_c, 0, 60, 59
2, 5760, Note_on_c, 0, 26, 0
2, 5760, Note_on_c, 0, 38, 0
2, 5760, Note_on_c, 0, 60, 0
2, 5760, Note_on_c, 0, 66, 0
2, 5760, Note_on_c, 0, 32, 0
2, 5760, Note_on_c, 0, 63, 57
2, 5760, Note_on_c, 0, 56, 56
2, 5760, Note_on_c, 0, 60, 56
2, 5760, Note_on_c, 0, 66, 56
2, 5760, Note_on_c, 0, 50, 52
2, 5760, Note_on_c, 0, 38, 65
2, 5760, Note_on_c, 0, 44, 65
2, 5850, Note_on_c, 0, 63, 0
2, 5850, Note_on_c, 0, 58, 56
2, 5940, Note_on_c, 0, 58, 0
2, 5940, Note_on_c, 0, 44, 0
2, 5940, Note_on_c, 0, 38, 0
2, 5940, Note_on_c, 0, 63, 64
2, 5940, Note_on_c, 0, 38, 62
2, 5940, Note_on_c, 0, 44, 62
2, 6030, Note_on_c, 0, 63, 0
2, 6030, Note_on_c, 0, 56, 57
2, 6033, Note_on_c, 0, 68, 0
2, 6033, Note_on_c, 0, 75, 0
2, 6033, Note_on_c, 0, 60, 0
2, 6033, Note_on_c, 0, 72, 0
2, 6033, Note_on_c, 0, 54, 0
2, 6033, Note_on_c, 0, 56, 0
2, 6120, Note_on_c, 0, 56, 0
2, 6120, Note_on_c, 0, 38, 0
2, 6120, Note_on_c, 0, 50, 0
2, 6120, Note_on_c, 0, 44, 0
2, 6120, Note_on_c, 0, 68, 76
2, 6120, Note_on_c, 0, 72, 76
2, 6120, Note_on_c, 0, 75, 76
2, 6120, Note_on_c, 0, 63, 73
2, 6120, Note_on_c, 0, 54, 73
2, 6120, Note_on_c, 0, 56, 73
2, 6120, Note_on_c, 0, 60, 73
2, 6210, Note_on_c, 0, 63, 0
2, 6210, Note_on_c, 0, 62, 60
2, 6300, Note_on_c, 0, 62, 0
2, 6300, Note_on_c, 0, 63, 61
2, 6300, Note_on_c, 0, 26, 54
2, 6300, Note_on_c, 0, 32, 54
2, 6300, Note_on_c, 0, 38, 54
2, 6390, Note_on_c, 0, 63, 0
2, 6390, Note_on_c, 0, 60, 54
2, 6480, Note_on_c, 0, 66, 0
2, 6480, Note_on_c, 0, 26, 0
2, 6480, Note_on_c, 0, 60, 0
2, 6480, Note_on_c, 0, 56, 0
2, 6480, Note_on_c, 0, 38, 0
2, 6480, Note_on_c, 0, 32, 0
2, 6480, Note_on_c, 0, 60, 0
2, 6480, Note_on_c, 0, 56, 80
2, 6480, Note_on_c, 0, 60, 80
2, 6480, Note_on_c, 0, 66, 80
2, 6480, Note_on_c, 0, 63, 56
2, 6480, Note_on_c, 0, 50, 64
2, 6480, Note_on_c, 0, 38, 60
2, 6480, Note_on_c, 0, 44, 60
2, 6570, Note_on_c, 0, 63, 0
2, 6570, Note_on_c, 0, 58, 57
2, 6660, Note_on_c, 0, 58, 0
2, 6660, Note_on_c, 0, 44, 0
2, 6660, Note_on_c, 0, 38, 0
2, 6660, Note_on_c, 0, 63, 67
2, 6660, Note_on_c, 0, 38, 62
2, 6660, Note_on_c, 0, 44, 62
2, 6750, Note_on_c, 0, 63, 0
2, 6750, Note_on_c, 0, 56, 57
2, 6840, Note_on_c, 0, 72, 0
2, 6840, Note_on_c, 0, 60, 0
2, 6840, Note_on_c, 0, 54, 0
2, 6840, Note_on_c, 0, 56, 0
2, 6840, Note_on_c, 0, 75, 0
2, 6840, Note_on_c, 0, 56, 0
2, 6840, Note_on_c, 0, 50, 0
2, 6840, Note_on_c, 0, 68, 0
2, 6840, Note_on_c, 0, 38, 0
2, 6840, Note_on_c, 0, 44, 0
2, 6840, Note_on_c, 0, 68, 68
2, 6840, Note_on_c, 0, 72, 68
2, 6840, Note_on_c, 0, 75, 68
2, 6840, Note_on_c, 0, 63, 77
2, 6840, Note_on_c, 0, 54, 71
2, 6840, Note_on_c, 0, 56, 71
2, 6840, Note_on_c, 0, 60, 71
2, 6930, Note_on_c, 0, 63, 0
2, 6930, Note_on_c, 0, 62, 60
2, 7020, Note_on_c, 0, 62, 0
2, 7020, Note_on_c, 0, 63, 62
2, 7020, Note_on_c, 0, 26, 62
2, 7020, Note_on_c, 0, 32, 62
2, 7020, Note_on_c, 0, 38, 62
2, 7110, Note_on_c, 0, 63, 0
2, 7110, Note_on_c, 0, 60, 56
2, 7113, Note_on_c, 0, 60, 0
2, 7113, Note_on_c, 0, 56, 0
2, 7113, Note_on_c, 0, 66, 0
2, 7200, Note_on_c, 0, 60, 0
2, 7200, Note_on_c, 0, 32, 0
2, 7200, Note_on_c, 0, 26, 0
2, 7200, Note_on_c, 0, 38, 0
2, 7200, Note_on_c, 0, 56, 70
2, 7200, Note_on_c, 0, 60, 70
2, 7200, Note_on_c, 0, 66, 70
2, 7200, Note_on_c, 0, 63, 66
2, 7200, Note_on_c, 0, 50, 54
2, 7200, Note_on_c, 0, 38, 61
2, 7200, Note_on_c, 0, 44, 61
2, 7290, Note_on_c, 0, 63, 0
2, 7290, Note_on_c, 0, 58, 58
2, 7380, Note_on_c, 0, 58, 0
2, 7380, Note_on_c, 0, 44, 0
2, 7380, Note_on_c, 0, 38, 0
2, 7380, Note_on_c, 0, 63, 69
2, 7380, Note_on_c, 0, 38, 60
2, 7380, Note_on_c, 0, 44, 60
2, 7470, Note_on_c, 0, 63, 0
2, 7470, Note_on_c, 0, 56, 56
2, 7473, Note_on_c, 0, 60, 0
2, 7473, Note_on_c, 0, 56, 0
2, 7473, Note_on_c, 0, 72, 0
2, 7473, Note_on_c, 0, 54, 0
2, 7473, Note_on_c, 0, 75, 0
2, 7473, Note_on_c, 0, 68, 0
2, 7517, Note_on_c, 0, 60, 0
2, 7517, Note_on_c, 0, 66, 0
2, 7517, Note_on_c, 0, 56, 0
2, 7560, Note_on_c, 0, 38, 0
2, 7560, Note_on_c, 0, 50, 0
2, 7560, Note_on_c, 0, 44, 0
2, 7560, Note_on_c, 0, 56, 0
2, 7560, Note_on_c, 0, 68, 60
2, 7560, Note_on_c, 0, 72, 60
2, 7560, Note_on_c, 0, 75, 60
2, 7560, Note_on_c, 0, 66, 56
2, 7560, Note_on_c, 0, 63, 73
2, 7560, Note_on_c, 0, 54, 64
2, 7560, Note_on_c, 0, 56, 64
2, 7560, Note_on_c, 0, 60, 64
2, 7560, Note_on_c, 0, 38, 56
2, 7680, Note_on_c, 0, 63, 0
2, 7680, Note_on_c, 0, 62, 65
2, 7740, Note_on_c, 0, 26, 55
2, 7740, Note_on_c, 0, 32, 55
2, 7740, Note_on_c, 0, 38, 55
2, 7799, Note_on_c, 0, 62, 0
2, 7799, Note_on_c, 0, 63, 60
2, 7920, Note_on_c, 0, 63, 0
2, 7920, Note_on_c, 0, 26, 0
2, 7920, Note_on_c, 0, 38, 0
2, 7920, Note_on_c, 0, 32, 0
2, 7920, Note_on_c, 0, 60, 59
2, 8040, Note_on_c, 0, 60, 0
2, 8040, Note_on_c, 0, 63, 62
2, 8159, Note_on_c, 0, 63, 0
2, 8159, Note_on_c, 0, 58, 60
2, 8280, Note_on_c, 0, 58, 0
2, 8280, Note_on_c, 0, 63, 64
2, 8400, Note_on_c, 0, 63, 0
2, 8400, Note_on_c, 0, 56, 59
2, 8519, Note_on_c, 0, 56, 0
2, 8519, Note_on_c, 0, 63, 68
2, 8640, Note_on_c, 0, 63, 0
2, 8640, Note_on_c, 0, 38, 0
2, 8640, Note_on_c, 0, 62, 57
2, 8760, Note_on_c, 0, 62, 0
2, 8760, Note_on_c, 0, 63, 65
2, 8820, Note_on_c, 0, 56, 0
2, 8820, Note_on_c, 0, 60, 0
2, 8820, Note_on_c, 0, 54, 0
2, 8820, Note_on_c, 0, 51, 71
2, 8879, Note_on_c, 0, 63, 0
2, 8879, Note_on_c, 0, 60, 59
2, 9000, Note_on_c, 0, 60, 0
2, 9000, Note_on_c, 0, 63, 65
2, 9120, Note_on_c, 0, 63, 0
2, 9120, Note_on_c, 0, 58, 57
2, 9137, Note_on_c, 0, 51, 0
2, 9180, Note_on_c, 0, 50, 59
2, 9239, Note_on_c, 0, 58, 0
2, 9239, Note_on_c, 0, 63, 62
2, 9360, Note_on_c, 0, 63, 0
2, 9360, Note_on_c, 0, 50, 0
2, 9360, Note_on_c, 0, 56, 59
2, 9360, Note_on_c, 0, 51, 64
2, 9540, Note_on_c, 0, 51, 0
2, 9540, Note_on_c, 0, 56, 0
2, 9540, Note_on_c, 0, 48, 61
2, 9720, Note_on_c, 0, 48, 0
2, 9720, Note_on_c, 0, 51, 59
2, 9900, Note_on_c, 0, 51, 0
2, 9900, Note_on_c, 0, 46, 59
2, 10080, Note_on_c, 0, 46, 0
2, 10080, Note_on_c, 0, 51, 61
2, 10260, Note_on_c, 0, 51, 0
2, 10260, Note_on_c, 0, 44, 55
2, 10440, Note_on_c, 0, 75, 0
2, 10440, Note_on_c, 0, 66, 0
2, 10440, Note_on_c, 0, 68, 0
2, 10440, Note_on_c, 0, 72, 0
2, 10620, Note_on_c, 0, 44, 0
2, 10620, Note_on_c, 0, 43, 60
2, 10800, Note_on_c, 0, 43, 0
2, 10800, Note_on_c, 0, 42, 59
2, 11160, Note_on_c, 0, 42, 0
2, 11160, Note_on_c, 0, 43, 61
2, 11520, Note_on_c, 0, 43, 0
2, 11520, Note_on_c, 0, 44, 60
2, 12240, Note_on_c, 0, 44, 0
2, 12240, Note_on_c, 0, 43, 55
2, 12600, Note_on_c, 0, 43, 0
2, 12600, Note_on_c, 0, 44, 65
2, 12960, Note_on_c, 0, 44, 0
2, 12960, Note_on_c, 0, 45, 72
2, 12960, Note_on_c, 0, 38, 62
2, 13199, Note_on_c, 0, 45, 0
2, 13199, Note_on_c, 0, 46, 71
2, 13320, Note_on_c, 0, 46, 0
2, 13320, Note_on_c, 0, 66, 87
2, 13320, Note_on_c, 0, 55, 65
2, 13320, Note_on_c, 0, 59, 65
2, 13320, Note_on_c, 0, 47, 69
2, 13559, Note_on_c, 0, 47, 0
2, 13559, Note_on_c, 0, 49, 76
2, 13680, Note_on_c, 0, 49, 0
2, 13680, Note_on_c, 0, 66, 0
2, 13680, Note_on_c, 0, 64, 85
2, 13680, Note_on_c, 0, 50, 75
2, 13919, Note_on_c, 0, 50, 0
2, 13919, Note_on_c, 0, 52, 73
2, 14040, Note_on_c, 0, 52, 0
2, 14040, Note_on_c, 0, 64, 0
2, 14040, Note_on_c, 0, 59, 0
2, 14040, Note_on_c, 0, 55, 0
2, 14040, Note_on_c, 0, 66, 100
2, 14040, Note_on_c, 0, 57, 72
2, 14040, Note_on_c, 0, 59, 72
2, 14040, Note_on_c, 0, 54, 70
2, 14160, Note_on_c, 0, 54, 0
2, 14160, Note_on_c, 0, 57, 77
2, 14279, Note_on_c, 0, 57, 0
2, 14279, Note_on_c, 0, 56, 68
2, 14400, Note_on_c, 0, 56, 0
2, 14400, Note_on_c, 0, 57, 0
2, 14400, Note_on_c, 0, 59, 0
2, 14400, Note_on_c, 0, 66, 0
2, 14400, Note_on_c, 0, 62, 83
2, 14400, Note_on_c, 0, 55, 75
2, 14400, Note_on_c, 0, 59, 75
2, 14400, Note_on_c, 0, 55, 70
2, 14760, Note_on_c, 0, 62, 0
2, 14760, Note_on_c, 0, 66, 103
2, 14999, Note_on_c, 0, 55, 0
2, 14999, Note_on_c, 0, 54, 70
2, 15120, Note_on_c, 0, 54, 0
2, 15120, Note_on_c, 0, 66, 0
2, 15120, Note_on_c, 0, 61, 84
2, 15120, Note_on_c, 0, 52, 69
2, 15480, Note_on_c, 0, 61, 0
2, 15480, Note_on_c, 0, 66, 103
2, 15719, Note_on_c, 0, 52, 0
2, 15719, Note_on_c, 0, 50, 72
2, 15840, Note_on_c, 0, 50, 0
2, 15840, Note_on_c, 0, 66, 0
2, 15840, Note_on_c, 0, 55, 0
2, 15840, Note_on_c, 0, 59, 0
2, 15840, Note_on_c, 0, 59, 90
2, 15840, Note_on_c, 0, 52, 68
2, 15840, Note_on_c, 0, 55, 68
2, 15840, Note_on_c, 0, 49, 72
2, 16079, Note_on_c, 0, 49, 0
2, 16079, Note_on_c, 0, 47, 69
2, 16200, Note_on_c, 0, 47, 0
2, 16200, Note_on_c, 0, 50, 72
2, 16439, Note_on_c, 0, 50, 0
2, 16439, Note_on_c, 0, 45, 68
2, 16560, Note_on_c, 0, 45, 0
2, 16560, Note_on_c, 0, 50, 73
2, 16799, Note_on_c, 0, 50, 0
2, 16799, Note_on_c, 0, 43, 67
2, 17159, Note_on_c, 0, 43, 0
2, 17159, Note_on_c, 0, 42, 69
2, 17280, Note_on_c, 0, 42, 0
2, 17280, Note_on_c, 0, 59, 51
2, 17280, Note_on_c, 0, 50, 77
2, 17519, Note_on_c, 0, 50, 0
2, 17519, Note_on_c, 0, 40, 58
2, 17640, Note_on_c, 0, 59, 0
2, 17640, Note_on_c, 0, 61, 59
2, 17879, Note_on_c, 0, 40, 0
2, 17879, Note_on_c, 0, 42, 73
2, 18000, Note_on_c, 0, 42, 0
2, 18000, Note_on_c, 0, 43, 72
2, 18120, Note_on_c, 0, 43, 0
2, 18120, Note_on_c, 0, 45, 81
2, 18180, Note_on_c, 0, 61, 0
2, 18180, Note_on_c, 0, 62, 61
2, 18239, Note_on_c, 0, 45, 0
2, 18239, Note_on_c, 0, 46, 74
2, 18360, Note_on_c, 0, 46, 0
2, 18360, Note_on_c, 0, 62, 0
2, 18360, Note_on_c, 0, 55, 0
2, 18360, Note_on_c, 0, 38, 0
2, 18360, Note_on_c, 0, 59, 0
2, 18360, Note_on_c, 0, 62, 101
2, 18360, Note_on_c, 0, 55, 59
2, 18360, Note_on_c, 0, 59, 59
2, 18360, Note_on_c, 0, 47, 72
2, 18360, Note_on_c, 0, 38, 69
2, 18599, Note_on_c, 0, 47, 0
2, 18599, Note_on_c, 0, 50, 73
2, 18720, Note_on_c, 0, 50, 0
2, 18720, Note_on_c, 0, 52, 0
2, 18720, Note_on_c, 0, 62, 0
2, 18720, Note_on_c, 0, 64, 112
2, 18720, Note_on_c, 0, 71, 112
2, 18720, Note_on_c, 0, 59, 74
2, 18720, Note_on_c, 0, 55, 77
2, 18959, Note_on_c, 0, 55, 0
2, 18959, Note_on_c, 0, 57, 72
2, 19080, Note_on_c, 0, 57, 0
2, 19080, Note_on_c, 0, 55, 0
2, 19080, Note_on_c, 0, 59, 0
2, 19080, Note_on_c, 0, 64, 0
2, 19080, Note_on_c, 0, 71, 0
2, 19080, Note_on_c, 0, 66, 89
2, 19080, Note_on_c, 0, 69, 89
2, 19080, Note_on_c, 0, 59, 70
2, 19080, Note_on_c, 0, 57, 64
2, 19200, Note_on_c, 0, 59, 0
2, 19200, Note_on_c, 0, 61, 74
2, 19319, Note_on_c, 0, 61, 0
2, 19319, Note_on_c, 0, 64, 76
2, 19440, Note_on_c, 0, 64, 0
2, 19440, Note_on_c, 0, 66, 0
2, 19440, Note_on_c, 0, 69, 0
2, 19440, Note_on_c, 0, 59, 0
2, 19440, Note_on_c, 0, 57, 0
2, 19440, Note_on_c, 0, 71, 98
2, 19440, Note_on_c, 0, 64, 83
2, 19440, Note_on_c, 0, 67, 83
2, 19440, Note_on_c, 0, 62, 69
2, 19440, Note_on_c, 0, 59, 60
2, 19679, Note_on_c, 0, 62, 0
2, 19679, Note_on_c, 0, 61, 68
2, 19800, Note_on_c, 0, 61, 0
2, 19800, Note_on_c, 0, 71, 0
2, 19800, Note_on_c, 0, 67, 80
2, 19800, Note_on_c, 0, 59, 67
2, 20160, Note_on_c, 0, 67, 0
2, 20160, Note_on_c, 0, 71, 103
2, 20399, Note_on_c, 0, 59, 0
2, 20399, Note_on_c, 0, 57, 72
2, 20520, Note_on_c, 0, 57, 0
2, 20520, Note_on_c, 0, 71, 0
2, 20520, Note_on_c, 0, 64, 0
2, 20520, Note_on_c, 0, 67, 0
2, 20520, Note_on_c, 0, 59, 0
2, 20520, Note_on_c, 0, 66, 80
2, 20520, Note_on_c, 0, 59, 67
2, 20520, Note_on_c, 0, 62, 67
2, 20520, Note_on_c, 0, 66, 67
2, 20520, Note_on_c, 0, 59, 72
2, 20759, Note_on_c, 0, 59, 0
2, 20759, Note_on_c, 0, 57, 68
2, 20880, Note_on_c, 0, 57, 0
2, 20880, Note_on_c, 0, 66, 0
2, 20880, Note_on_c, 0, 71, 106
2, 20880, Note_on_c, 0, 55, 71
2, 21119, Note_on_c, 0, 55, 0
2, 21119, Note_on_c, 0, 54, 67
2, 21240, Note_on_c, 0, 54, 0
2, 21240, Note_on_c, 0, 71, 0
2, 21240, Note_on_c, 0, 66, 0
2, 21240, Note_on_c, 0, 62, 0
2, 21240, Note_on_c, 0, 59, 0
2, 21240, Note_on_c, 0, 64, 79
2, 21240, Note_on_c, 0, 55, 63
2, 21240, Note_on_c, 0, 59, 63
2, 21240, Note_on_c, 0, 55, 76
2, 21479, Note_on_c, 0, 55, 0
2, 21479, Note_on_c, 0, 52, 71
2, 21600, Note_on_c, 0, 52, 0
2, 21600, Note_on_c, 0, 55, 0
2, 21600, Note_on_c, 0, 59, 0
2, 21600, Note_on_c, 0, 55, 72
2, 21600, Note_on_c, 0, 59, 72
2, 21600, Note_on_c, 0, 64, 72
2, 21600, Note_on_c, 0, 55, 74
2, 21839, Note_on_c, 0, 55, 0
2, 21839, Note_on_c, 0, 50, 67
2, 21960, Note_on_c, 0, 64, 0
2, 21960, Note_on_c, 0, 66, 94
2, 22199, Note_on_c, 0, 50, 0
2, 22199, Note_on_c, 0, 49, 68
2, 22320, Note_on_c, 0, 49, 0
2, 22320, Note_on_c, 0, 50, 70
2, 22440, Note_on_c, 0, 50, 0
2, 22440, Note_on_c, 0, 51, 71
2, 22500, Note_on_c, 0, 66, 0
2, 22500, Note_on_c, 0, 67, 103
2, 22559, Note_on_c, 0, 51, 0
2, 22559, Note_on_c, 0, 54, 72
2, 22680, Note_on_c, 0, 54, 0
2, 22680, Note_on_c, 0, 67, 0
2, 22680, Note_on_c, 0, 59, 0
2, 22680, Note_on_c, 0, 38, 0
2, 22680, Note_on_c, 0, 55, 0
2, 22680, Note_on_c, 0, 64, 0
2, 22680, Note_on_c, 0, 67, 95
2, 22680, Note_on_c, 0, 55, 68
2, 22680, Note_on_c, 0, 59, 68
2, 22680, Note_on_c, 0, 52, 70
2, 22680, Note_on_c, 0, 38, 78
2, 22680, Note_on_c, 0, 45, 78
2, 22680, Note_on_c, 0, 52, 78
2, 22919, Note_on_c, 0, 52, 0
2, 22919, Note_on_c, 0, 55, 66
2, 23040, Note_on_c, 0, 67, 0
2, 23040, Note_on_c, 0, 71, 107
2, 23040, Note_on_c, 0, 74, 107
2, 23040, Note_on_c, 0, 59, 60
2, 23160, Note_on_c, 0, 59, 0
2, 23160, Note_on_c, 0, 61, 59
2, 23279, Note_on_c, 0, 61, 0
2, 23279, Note_on_c, 0, 62, 64
2, 23400, Note_on_c, 0, 62, 0
2, 23400, Note_on_c, 0, 74, 0
2, 23400, Note_on_c, 0, 55, 0
2, 23400, Note_on_c, 0, 71, 0
2, 23400, Note_on_c, 0, 69, 91
2, 23400, Note_on_c, 0, 73, 91
2, 23400, Note_on_c, 0, 55, 82
2, 23400, Note_on_c, 0, 61, 82
2, 23400, Note_on_c, 0, 63, 67
2, 23639, Note_on_c, 0, 63, 0
2, 23639, Note_on_c, 0, 66, 65
2, 23760, Note_on_c, 0, 66, 0
2, 23760, Note_on_c, 0, 73, 0
2, 23760, Note_on_c, 0, 61, 0
2, 23760, Note_on_c, 0, 59, 0
2, 23760, Note_on_c, 0, 52, 0
2, 23760, Note_on_c, 0, 55, 0
2, 23760, Note_on_c, 0, 69, 0
2, 23760, Note_on_c, 0, 71, 95
2, 23760, Note_on_c, 0, 74, 95
2, 23760, Note_on_c, 0, 59, 70
2, 23760, Note_on_c, 0, 64, 65
2, 24120, Note_on_c, 0, 74, 0
2, 24120, Note_on_c, 0, 71, 0
2, 24120, Note_on_c, 0, 38, 0
2, 24120, Note_on_c, 0, 45, 0
2, 24120, Note_on_c, 0, 67, 88
2, 24120, Note_on_c, 0, 71, 88
2, 24120, Note_on_c, 0, 59, 68
2, 24120, Note_on_c, 0, 38, 80
2, 24120, Note_on_c, 0, 45, 80
2, 24120, Note_on_c, 0, 52, 74
2, 24120, Note_on_c, 0, 55, 74
2, 24359, Note_on_c, 0, 64, 0
2, 24359, Note_on_c, 0, 61, 69
2, 24480, Note_on_c, 0, 61, 0
2, 24480, Note_on_c, 0, 71, 0
2, 24480, Note_on_c, 0, 67, 0
2, 24480, Note_on_c, 0, 71, 98
2, 24480, Note_on_c, 0, 74, 98
2, 24480, Note_on_c, 0, 62, 71
2, 24840, Note_on_c, 0, 74, 0
2, 24840, Note_on_c, 0, 71, 0
2, 24840, Note_on_c, 0, 55, 0
2, 24840, Note_on_c, 0, 52, 0
2, 24840, Note_on_c, 0, 55, 0
2, 24840, Note_on_c, 0, 59, 0
2, 24840, Note_on_c, 0, 59, 0
2, 24840, Note_on_c, 0, 66, 82
2, 24840, Note_on_c, 0, 69, 82
2, 24840, Note_on_c, 0, 52, 70
2, 24840, Note_on_c, 0, 55, 70
2, 24960, Note_on_c, 0, 62, 0
2, 24960, Note_on_c, 0, 61, 64
2, 25079, Note_on_c, 0, 61, 0
2, 25079, Note_on_c, 0, 57, 63
2, 25200, Note_on_c, 0, 57, 0
2, 25200, Note_on_c, 0, 69, 0
2, 25200, Note_on_c, 0, 66, 0
2, 25200, Note_on_c, 0, 71, 103
2, 25200, Note_on_c, 0, 74, 103
2, 25200, Note_on_c, 0, 59, 73
2, 25320, Note_on_c, 0, 55, 66
2, 25439, Note_on_c, 0, 55, 0
2, 25439, Note_on_c, 0, 57, 70
2, 25560, Note_on_c, 0, 57, 0
2, 25560, Note_on_c, 0, 71, 0
2, 25560, Note_on_c, 0, 74, 0
2, 25560, Note_on_c, 0, 45, 0
2, 25560, Note_on_c, 0, 52, 0
2, 25560, Note_on_c, 0, 55, 0
2, 25560, Note_on_c, 0, 59, 0
2, 25560, Note_on_c, 0, 38, 0
2, 25560, Note_on_c, 0, 64, 79
2, 25560, Note_on_c, 0, 67, 79
2, 25560, Note_on_c, 0, 59, 71
2, 25560, Note_on_c, 0, 38, 87
2, 25560, Note_on_c, 0, 45, 87
2, 25560, Note_on_c, 0, 52, 87
2, 25560, Note_on_c, 0, 59, 76
2, 25680, Note_on_c, 0, 59, 0
2, 25680, Note_on_c, 0, 59, 0
2, 25680, Note_on_c, 0, 62, 72
2, 25680, Note_on_c, 0, 45, 66
2, 25799, Note_on_c, 0, 62, 0
2, 25799, Note_on_c, 0, 45, 0
2, 25799, Note_on_c, 0, 66, 76
2, 25799, Note_on_c, 0, 52, 75
2, 25877, Note_on_c, 0, 52, 0
2, 25920, Note_on_c, 0, 67, 0
2, 25920, Note_on_c, 0, 64, 0
2, 25920, Note_on_c, 0, 66, 0
2, 25920, Note_on_c, 0, 64, 66
2, 25920, Note_on_c, 0, 55, 78
2, 26040, Note_on_c, 0, 55, 0
2, 26040, Note_on_c, 0, 52, 0
2, 26040, Note_on_c, 0, 64, 0
2, 26040, Note_on_c, 0, 62, 64
2, 26040, Note_on_c, 0, 59, 74
2, 26159, Note_on_c, 0, 59, 0
2, 26159, Note_on_c, 0, 62, 0
2, 26159, Note_on_c, 0, 61, 68
2, 26159, Note_on_c, 0, 61, 74
2, 26280, Note_on_c, 0, 61, 0
2, 26280, Note_on_c, 0, 61, 0
2, 26280, Note_on_c, 0, 71, 85
2, 26280, Note_on_c, 0, 74, 85
2, 26280, Note_on_c, 0, 62, 72
2, 26280, Note_on_c, 0, 59, 68
2, 26280, Note_on_c, 0, 55, 67
2, 26280, Note_on_c, 0, 62, 70
2, 26400, Note_on_c, 0, 62, 0
2, 26400, Note_on_c, 0, 63, 70
2, 26519, Note_on_c, 0, 63, 0
2, 26519, Note_on_c, 0, 66, 76
2, 26640, Note_on_c, 0, 66, 0
2, 26640, Note_on_c, 0, 62, 0
2, 26640, Note_on_c, 0, 59, 0
2, 26640, Note_on_c, 0, 64, 73
2, 26640, Note_on_c, 0, 61, 75
2, 26760, Note_on_c, 0, 61, 64
2, 26820, Note_on_c, 0, 74, 0
2, 26820, Note_on_c, 0, 71, 0
2, 26820, Note_on_c, 0, 69, 87
2, 26820, Note_on_c, 0, 73, 87
2, 26879, Note_on_c, 0, 61, 0
2, 26879, Note_on_c, 0, 57, 69
2, 27000, Note_on_c, 0, 57, 0
2, 27000, Note_on_c, 0, 38, 0
2, 27000, Note_on_c, 0, 55, 0
2, 27000, Note_on_c, 0, 61, 0
2, 27000, Note_on_c, 0, 45, 0
2, 27000, Note_on_c, 0, 73, 0
2, 27000, Note_on_c, 0, 69, 0
2, 27000, Note_on_c, 0, 71, 94
2, 27000, Note_on_c, 0, 74, 94
2, 27000, Note_on_c, 0, 59, 67
2, 27000, Note_on_c, 0, 38, 82
2, 27000, Note_on_c, 0, 45, 82
2, 27000, Note_on_c, 0, 52, 64
2, 27000, Note_on_c, 0, 55, 64
2, 27120, Note_on_c, 0, 64, 0
2, 27120, Note_on_c, 0, 62, 65
2, 27239, Note_on_c, 0, 62, 0
2, 27239, Note_on_c, 0, 61, 66
2, 27360, Note_on_c, 0, 61, 0
2, 27360, Note_on_c, 0, 62, 76
2, 27540, Note_on_c, 0, 71, 0
2, 27540, Note_on_c, 0, 74, 0
2, 27540, Note_on_c, 0, 67, 87
2, 27540, Note_on_c, 0, 71, 87
2, 27720, Note_on_c, 0, 71, 0
2, 27720, Note_on_c, 0, 67, 0
2, 27720, Note_on_c, 0, 52, 0
2, 27720, Note_on_c, 0, 55, 0
2, 27720, Note_on_c, 0, 59, 0
2, 27720, Note_on_c, 0, 71, 100
2, 27720, Note_on_c, 0, 74, 100
2, 27720, Note_on_c, 0, 54, 72
2, 27720, Note_on_c, 0, 57, 72
2, 27840, Note_on_c, 0, 62, 0
2, 27840, Note_on_c, 0, 57, 70
2, 27840, Note_on_c, 0, 61, 69
2, 27959, Note_on_c, 0, 61, 0
2, 27959, Note_on_c, 0, 57, 0
2, 27959, Note_on_c, 0, 54, 65
2, 27959, Note_on_c, 0, 59, 66
2, 28080, Note_on_c, 0, 59, 0
2, 28080, Note_on_c, 0, 54, 0
2, 28080, Note_on_c, 0, 57, 0
2, 28080, Note_on_c, 0, 54, 0
2, 28080, Note_on_c, 0, 52, 65
2, 28080, Note_on_c, 0, 55, 65
2, 28080, Note_on_c, 0, 61, 74
2, 28200, Note_on_c, 0, 61, 0
2, 28200, Note_on_c, 0, 59, 63
2, 28260, Note_on_c, 0, 74, 0
2, 28260, Note_on_c, 0, 71, 0
2, 28260, Note_on_c, 0, 66, 81
2, 28260, Note_on_c, 0, 69, 81
2, 28319, Note_on_c, 0, 59, 0
2, 28319, Note_on_c, 0, 57, 69
2, 28440, Note_on_c, 0, 57, 0
2, 28440, Note_on_c, 0, 69, 0
2, 28440, Note_on_c, 0, 38, 0
2, 28440, Note_on_c, 0, 52, 0
2, 28440, Note_on_c, 0, 45, 0
2, 28440, Note_on_c, 0, 66, 0
2, 28440, Note_on_c, 0, 55, 0
2, 28440, Note_on_c, 0, 71, 100
2, 28440, Note_on_c, 0, 74, 100
2, 28440, Note_on_c, 0, 59, 70
2, 28440, Note_on_c, 0, 52, 68
2, 28440, Note_on_c, 0, 55, 68
2, 28440, Note_on_c, 0, 38, 73
2, 28440, Note_on_c, 0, 45, 73
2, 28620, Note_on_c, 0, 59, 65
2, 28679, Note_on_c, 0, 74, 0
2, 28679, Note_on_c, 0, 71, 0
2, 28679, Note_on_c, 0, 64, 82
2, 28679, Note_on_c, 0, 67, 82
2, 28800, Note_on_c, 0, 67, 0
2, 28800, Note_on_c, 0, 64, 0
2, 28800, Note_on_c, 0, 59, 0
2, 28800, Note_on_c, 0, 59, 0
2, 28800, Note_on_c, 0, 67, 102
2, 28800, Note_on_c, 0, 71, 102
2, 28800, Note_on_c, 0, 59, 68
2, 28800, Note_on_c, 0, 62, 71
2, 28920, Note_on_c, 0, 59, 0
2, 28920, Note_on_c, 0, 71, 0
2, 28920, Note_on_c, 0, 67, 0
2, 28920, Note_on_c, 0, 69, 102
2, 28920, Note_on_c, 0, 73, 102
2, 28920, Note_on_c, 0, 55, 71
2, 28920, Note_on_c, 0, 61, 81
2, 28980, Note_on_c, 0, 62, 0
2, 28980, Note_on_c, 0, 66, 75
2, 29039, Note_on_c, 0, 61, 0
2, 29039, Note_on_c, 0, 55, 0
2, 29039, Note_on_c, 0, 73, 0
2, 29039, Note_on_c, 0, 69, 0
2, 29039, Note_on_c, 0, 71, 99
2, 29039, Note_on_c, 0, 74, 99
2, 29039, Note_on_c, 0, 54, 71
2, 29039, Note_on_c, 0, 62, 81
2, 29160, Note_on_c, 0, 62, 0
2, 29160, Note_on_c, 0, 66, 0
2, 29160, Note_on_c, 0, 54, 0
2, 29160, Note_on_c, 0, 55, 0
2, 29160, Note_on_c, 0, 74, 0
2, 29160, Note_on_c, 0, 52, 0
2, 29160, Note_on_c, 0, 71, 0
2, 29160, Note_on_c, 0, 72, 101
2, 29160, Note_on_c, 0, 76, 101
2, 29160, Note_on_c, 0, 64, 85
2, 29160, Note_on_c, 0, 60, 76
2, 29160, Note_on_c, 0, 55, 67
2, 29160, Note_on_c, 0, 52, 63
2, 29280, Note_on_c, 0, 52, 0
2, 29280, Note_on_c, 0, 55, 67
2, 29280, Note_on_c, 0, 55, 75
2, 29399, Note_on_c, 0, 55, 0
2, 29399, Note_on_c, 0, 72, 0
2, 29399, Note_on_c, 0, 76, 0
2, 29399, Note_on_c, 0, 62, 92
2, 29399, Note_on_c, 0, 71, 92
2, 29399, Note_on_c, 0, 74, 92
2, 29399, Note_on_c, 0, 59, 74
2, 29520, Note_on_c, 0, 59, 0
2, 29520, Note_on_c, 0, 64, 0
2, 29520, Note_on_c, 0, 55, 0
2, 29520, Note_on_c, 0, 38, 0
2, 29520, Note_on_c, 0, 45, 0
2, 29520, Note_on_c, 0, 74, 0
2, 29520, Note_on_c, 0, 71, 0
2, 29520, Note_on_c, 0, 62, 0
2, 29520, Note_on_c, 0, 60, 0
2, 29520, Note_on_c, 0, 64, 96
2, 29520, Note_on_c, 0, 72, 96
2, 29520, Note_on_c, 0, 76, 96
2, 29520, Note_on_c, 0, 60, 67
2, 29520, Note_on_c, 0, 52, 74
2, 29520, Note_on_c, 0, 55, 74
2, 29520, Note_on_c, 0, 60, 74
2, 29520, Note_on_c, 0, 38, 81
2, 29520, Note_on_c, 0, 45, 81
2, 29640, Note_on_c, 0, 60, 0
2, 29640, Note_on_c, 0, 64, 75
2, 29759, Note_on_c, 0, 64, 0
2, 29759, Note_on_c, 0, 67, 78
2, 29880, Note_on_c, 0, 67, 0
2, 29880, Note_on_c, 0, 64, 0
2, 29880, Note_on_c, 0, 55, 0
2, 29880, Note_on_c, 0, 66, 67
2, 29880, Note_on_c, 0, 50, 70
2, 29880, Note_on_c, 0, 57, 70
2, 29880, Note_on_c, 0, 57, 73
2, 30000, Note_on_c, 0, 57, 0
2, 30000, Note_on_c, 0, 59, 73
2, 30119, Note_on_c, 0, 59, 0
2, 30119, Note_on_c, 0, 76, 0
2, 30119, Note_on_c, 0, 72, 0
2, 30119, Note_on_c, 0, 69, 86
2, 30119, Note_on_c, 0, 72, 86
2, 30119, Note_on_c, 0, 60, 72
2, 30240, Note_on_c, 0, 60, 0
2, 30240, Note_on_c, 0, 57, 0
2, 30240, Note_on_c, 0, 50, 0
2, 30240, Note_on_c, 0, 72, 0
2, 30240, Note_on_c, 0, 60, 0
2, 30240, Note_on_c, 0, 55, 0
2, 30240, Note_on_c, 0, 69, 0
2, 30240, Note_on_c, 0, 52, 0
2, 30240, Note_on_c, 0, 72, 96
2, 30240, Note_on_c, 0, 76, 96
2, 30240, Note_on_c, 0, 57, 69
2, 30360, Note_on_c, 0, 66, 0
2, 30360, Note_on_c, 0, 64, 65
2, 30479, Note_on_c, 0, 64, 0
2, 30479, Note_on_c, 0, 72, 0
2, 30479, Note_on_c, 0, 76, 0
2, 30479, Note_on_c, 0, 59, 86
2, 30479, Note_on_c, 0, 67, 86
2, 30479, Note_on_c, 0, 71, 86
2, 30479, Note_on_c, 0, 62, 70
2, 30600, Note_on_c, 0, 62, 0
2, 30600, Note_on_c, 0, 67, 0
2, 30600, Note_on_c, 0, 38, 0
2, 30600, Note_on_c, 0, 45, 0
2, 30600, Note_on_c, 0, 57, 0
2, 30600, Note_on_c, 0, 71, 0
2, 30600, Note_on_c, 0, 59, 0
2, 30600, Note_on_c, 0, 72, 102
2, 30600, Note_on_c, 0, 76, 102
2, 30600, Note_on_c, 0, 64, 71
2, 30600, Note_on_c, 0, 64, 68
2, 30600, Note_on_c, 0, 52, 76
2, 30600, Note_on_c, 0, 55, 76
2, 30600, Note_on_c, 0, 60, 76
2, 30600, Note_on_c, 0, 38, 80
2, 30600, Note_on_c, 0, 45, 80
2, 30600, Note_on_c, 0, 55, 66
2, 30839, Note_on_c, 0, 55, 0
2, 30839, Note_on_c, 0, 72, 0
2, 30839, Note_on_c, 0, 64, 0
2, 30839, Note_on_c, 0, 76, 0
2, 30839, Note_on_c, 0, 66, 80
2, 30839, Note_on_c, 0, 69, 80
2, 30839, Note_on_c, 0, 60, 67
2, 30839, Note_on_c, 0, 57, 71
2, 30960, Note_on_c, 0, 57, 0
2, 30960, Note_on_c, 0, 60, 0
2, 30960, Note_on_c, 0, 59, 75
2, 30960, Note_on_c, 0, 59, 72
2, 31080, Note_on_c, 0, 59, 0
2, 31080, Note_on_c, 0, 59, 0
2, 31080, Note_on_c, 0, 69, 0
2, 31080, Note_on_c, 0, 66, 0
2, 31080, Note_on_c, 0, 69, 103
2, 31080, Note_on_c, 0, 72, 103
2, 31080, Note_on_c, 0, 57, 73
2, 31080, Note_on_c, 0, 57, 70
2, 31199, Note_on_c, 0, 57, 0
2, 31199, Note_on_c, 0, 57, 0
2, 31199, Note_on_c, 0, 69, 0
2, 31199, Note_on_c, 0, 72, 0
2, 31199, Note_on_c, 0, 71, 101
2, 31199, Note_on_c, 0, 74, 101
2, 31199, Note_on_c, 0, 54, 67
2, 31199, Note_on_c, 0, 54, 68
2, 31233, Note_on_c, 0, 45, 0
2, 31233, Note_on_c, 0, 38, 0
2, 31320, Note_on_c, 0, 60, 0
2, 31320, Note_on_c, 0, 64, 0
2, 31320, Note_on_c, 0, 71, 0
2, 31320, Note_on_c, 0, 52, 0
2, 31320, Note_on_c, 0, 54, 0
2, 31320, Note_on_c, 0, 74, 0
2, 31320, Note_on_c, 0, 55, 0
2, 31320, Note_on_c, 0, 54, 0
2, 31320, Note_on_c, 0, 64, 101
2, 31320, Note_on_c, 0, 73, 101
2, 31320, Note_on_c, 0, 76, 101
2, 31320, Note_on_c, 0, 52, 60
2, 31320, Note_on_c, 0, 55, 72
2, 31320, Note_on_c, 0, 61, 72
2, 31320, Note_on_c, 0, 38, 85
2, 31320, Note_on_c, 0, 45, 85
2, 31440, Note_on_c, 0, 52, 0
2, 31440, Note_on_c, 0, 55, 70
2, 31440, Note_on_c, 0, 55, 71
2, 31559, Note_on_c, 0, 55, 0
2, 31559, Note_on_c, 0, 64, 0
2, 31559, Note_on_c, 0, 76, 0
2, 31559, Note_on_c, 0, 73, 0
2, 31559, Note_on_c, 0, 62, 89
2, 31559, Note_on_c, 0, 71, 89
2, 31559, Note_on_c, 0, 74, 89
2, 31559, Note_on_c, 0, 59, 75
2, 31680, Note_on_c, 0, 59, 0
2, 31680, Note_on_c, 0, 74, 0
2, 31680, Note_on_c, 0, 71, 0
2, 31680, Note_on_c, 0, 55, 0
2, 31680, Note_on_c, 0, 61, 0
2, 31680, Note_on_c, 0, 62, 0
2, 31680, Note_on_c, 0, 64, 98
2, 31680, Note_on_c, 0, 73, 98
2, 31680, Note_on_c, 0, 76, 98
2, 31680, Note_on_c, 0, 61, 72
2, 31800, Note_on_c, 0, 61, 0
2, 31800, Note_on_c, 0, 64, 76
2, 31919, Note_on_c, 0, 64, 0
2, 31919, Note_on_c, 0, 76, 0
2, 31919, Note_on_c, 0, 64, 0
2, 31919, Note_on_c, 0, 55, 0
2, 31919, Note_on_c, 0, 73, 0
2, 31919, Note_on_c, 0, 69, 87
2, 31919, Note_on_c, 0, 73, 87
2, 31919, Note_on_c, 0, 67, 73
2, 31919, Note_on_c, 0, 61, 86
2, 31919, Note_on_c, 0, 64, 86
2, 31953, Note_on_c, 0, 45, 0
2, 31953, Note_on_c, 0, 38, 0
2, 32040, Note_on_c, 0, 69, 0
2, 32040, Note_on_c, 0, 67, 0
2, 32040, Note_on_c, 0, 73, 0
2, 32040, Note_on_c, 0, 64, 0
2, 32040, Note_on_c, 0, 61, 0
2, 32040, Note_on_c, 0, 64, 100
2, 32040, Note_on_c, 0, 73, 100
2, 32040, Note_on_c, 0, 76, 100
2, 32040, Note_on_c, 0, 66, 66
2, 32040, Note_on_c, 0, 54, 66
2, 32040, Note_on_c, 0, 57, 66
2, 32040, Note_on_c, 0, 61, 66
2, 32040, Note_on_c, 0, 38, 84
2, 32040, Note_on_c, 0, 45, 84
2, 32160, Note_on_c, 0, 66, 0
2, 32160, Note_on_c, 0, 64, 69
2, 32279, Note_on_c, 0, 64, 0
2, 32279, Note_on_c, 0, 62, 69
2, 32400, Note_on_c, 0, 62, 0
2, 32400, Note_on_c, 0, 64, 0
2, 32400, Note_on_c, 0, 54, 0
2, 32400, Note_on_c, 0, 57, 0
2, 32400, Note_on_c, 0, 61, 0
2, 32400, Note_on_c, 0, 64, 71
2, 32400, Note_on_c, 0, 55, 66
2, 32400, Note_on_c, 0, 59, 66
2, 32639, Note_on_c, 0, 73, 0
2, 32639, Note_on_c, 0, 76, 0
2, 32639, Note_on_c, 0, 67, 86
2, 32639, Note_on_c, 0, 71, 86
2, 32760, Note_on_c, 0, 71, 0
2, 32760, Note_on_c, 0, 45, 0
2, 32760, Note_on_c, 0, 38, 0
2, 32760, Note_on_c, 0, 67, 0
2, 32760, Note_on_c, 0, 73, 106
2, 32760, Note_on_c, 0, 76, 106
2, 32760, Note_on_c, 0, 38, 86
2, 32760, Note_on_c, 0, 45, 86
2, 32760, Note_on_c, 0, 52, 68
2, 32760, Note_on_c, 0, 55, 68
2, 32760, Note_on_c, 0, 61, 82
2, 32880, Note_on_c, 0, 64, 0
2, 32880, Note_on_c, 0, 62, 63
2, 32940, Note_on_c, 0, 61, 0
2, 32999, Note_on_c, 0, 76, 0
2, 32999, Note_on_c, 0, 62, 0
2, 32999, Note_on_c, 0, 73, 0
2, 32999, Note_on_c, 0, 66, 80
2, 32999, Note_on_c, 0, 69, 80
2, 32999, Note_on_c, 0, 59, 68
2, 33120, Note_on_c, 0, 59, 0
2, 33120, Note_on_c, 0, 69, 0
2, 33120, Note_on_c, 0, 66, 0
2, 33120, Note_on_c, 0, 59, 0
2, 33120, Note_on_c, 0, 55, 0
2, 33120, Note_on_c, 0, 69, 102
2, 33120, Note_on_c, 0, 73, 102
2, 33120, Note_on_c, 0, 64, 88
2, 33120, Note_on_c, 0, 61, 72
2, 33240, Note_on_c, 0, 73, 0
2, 33240, Note_on_c, 0, 69, 0
2, 33240, Note_on_c, 0, 71, 94
2, 33240, Note_on_c, 0, 74, 94
2, 33359, Note_on_c, 0, 74, 0
2, 33359, Note_on_c, 0, 71, 0
2, 33359, Note_on_c, 0, 73, 97
2, 33359, Note_on_c, 0, 76, 97
2, 33379, Note_on_c, 0, 38, 0
2, 33379, Note_on_c, 0, 45, 0
2, 33465, Note_on_c, 0, 38, 67
2, 33480, Note_on_c, 0, 38, 0
2, 33480, Note_on_c, 0, 64, 0
2, 33480, Note_on_c, 0, 52, 0
2, 33480, Note_on_c, 0, 55, 0
2, 33480, Note_on_c, 0, 61, 0
2, 33480, Note_on_c, 0, 73, 0
2, 33480, Note_on_c, 0, 76, 0
2, 33480, Note_on_c, 0, 65, 92
2, 33480, Note_on_c, 0, 68, 92
2, 33480, Note_on_c, 0, 77, 92
2, 33480, Note_on_c, 0, 50, 89
2, 33480, Note_on_c, 0, 60, 89
2, 33480, Note_on_c, 0, 62, 89
2, 33660, Note_on_c, 0, 68, 64
2, 33660, Note_on_c, 0, 65, 82
2, 33660, Note_on_c, 0, 48, 63
2, 33660, Note_on_c, 0, 60, 63
2, 33687, Note_on_c, 0, 65, 0
2, 33694, Note_on_c, 0, 62, 66
2, 33720, Note_on_c, 0, 62, 0
2, 33728, Note_on_c, 0, 65, 82
2, 33754, Note_on_c, 0, 65, 0
2, 33761, Note_on_c, 0, 62, 66
2, 33788, Note_on_c, 0, 62, 0
2, 33795, Note_on_c, 0, 65, 82
2, 33822, Note_on_c, 0, 65, 0
2, 33829, Note_on_c, 0, 62, 66
2, 33840, Note_on_c, 0, 48, 0
2, 33840, Note_on_c, 0, 60, 0
2, 33840, Note_on_c, 0, 68, 0
2, 33840, Note_on_c, 0, 69, 77
2, 33840, Note_on_c, 0, 46, 66
2, 33840, Note_on_c, 0, 58, 66
2, 33855, Note_on_c, 0, 62, 0
2, 33863, Note_on_c, 0, 65, 82
2, 33889, Note_on_c, 0, 65, 0
2, 33896, Note_on_c, 0, 62, 66
2, 33923, Note_on_c, 0, 62, 0
2, 34020, Note_on_c, 0, 46, 0
2, 34020, Note_on_c, 0, 69, 0
2, 34020, Note_on_c, 0, 58, 0
2, 34020, Note_on_c, 0, 70, 73
2, 34020, Note_on_c, 0, 45, 63
2, 34020, Note_on_c, 0, 57, 63
2, 34200, Note_on_c, 0, 57, 0
2, 34200, Note_on_c, 0, 50, 0
2, 34200, Note_on_c, 0, 62, 0
2, 34200, Note_on_c, 0, 60, 0
2, 34200, Note_on_c, 0, 77, 0
2, 34200, Note_on_c, 0, 65, 0
2, 34200, Note_on_c, 0, 70, 0
2, 34200, Note_on_c, 0, 68, 0
2, 34200, Note_on_c, 0, 45, 0
2, 34200, Note_on_c, 0, 62, 86
2, 34200, Note_on_c, 0, 65, 86
2, 34200, Note_on_c, 0, 74, 86
2, 34200, Note_on_c, 0, 60, 100
2, 34200, Note_on_c, 0, 72, 100
2, 34200, Note_on_c, 0, 56, 68
2, 34200, Note_on_c, 0, 26, 65
2, 34200, Note_on_c, 0, 32, 65
2, 34200, Note_on_c, 0, 38, 65
2, 34200, Note_on_c, 0, 44, 64
2, 34200, Note_on_c, 0, 53, 64
2, 34320, Note_on_c, 0, 38, 0
2, 34320, Note_on_c, 0, 32, 0
2, 34320, Note_on_c, 0, 26, 0
2, 34320, Note_on_c, 0, 50, 91
2, 34320, Note_on_c, 0, 55, 91
2, 34320, Note_on_c, 0, 62, 91
2, 34380, Note_on_c, 0, 60, 0
2, 34380, Note_on_c, 0, 72, 0
2, 34380, Note_on_c, 0, 59, 90
2, 34380, Note_on_c, 0, 71, 90
2, 34439, Note_on_c, 0, 55, 0
2, 34439, Note_on_c, 0, 62, 0
2, 34439, Note_on_c, 0, 50, 0
2, 34439, Note_on_c, 0, 26, 65
2, 34439, Note_on_c, 0, 32, 65
2, 34439, Note_on_c, 0, 38, 65
2, 34560, Note_on_c, 0, 38, 0
2, 34560, Note_on_c, 0, 44, 0
2, 34560, Note_on_c, 0, 71, 0
2, 34560, Note_on_c, 0, 53, 0
2, 34560, Note_on_c, 0, 65, 0
2, 34560, Note_on_c, 0, 56, 0
2, 34560, Note_on_c, 0, 74, 0
2, 34560, Note_on_c, 0, 26, 0
2, 34560, Note_on_c, 0, 59, 0
2, 34560, Note_on_c, 0, 62, 0
2, 34560, Note_on_c, 0, 32, 0
2, 34560, Note_on_c, 0, 65, 99
2, 34560, Note_on_c, 0, 68, 99
2, 34560, Note_on_c, 0, 77, 99
2, 34560, Note_on_c, 0, 50, 86
2, 34560, Note_on_c, 0, 60, 86
2, 34560, Note_on_c, 0, 62, 86
2, 34680, Note_on_c, 0, 50, 66
2, 34740, Note_on_c, 0, 68, 65
2, 34740, Note_on_c, 0, 60, 63
2, 34740, Note_on_c, 0, 65, 80
2, 34767, Note_on_c, 0, 65, 0
2, 34774, Note_on_c, 0, 62, 65
2, 34799, Note_on_c, 0, 50, 0
2, 34799, Note_on_c, 0, 49, 66
2, 34800, Note_on_c, 0, 62, 0
2, 34808, Note_on_c, 0, 65, 80
2, 34834, Note_on_c, 0, 65, 0
2, 34841, Note_on_c, 0, 62, 65
2, 34868, Note_on_c, 0, 62, 0
2, 34875, Note_on_c, 0, 65, 80
2, 34902, Note_on_c, 0, 65, 0
2, 34909, Note_on_c, 0, 62, 65
2, 34920, Note_on_c, 0, 68, 0
2, 34920, Note_on_c, 0, 49, 0
2, 34920, Note_on_c, 0, 60, 0
2, 34920, Note_on_c, 0, 69, 69
2, 34920, Note_on_c, 0, 58, 65
2, 34920, Note_on_c, 0, 48, 68
2, 34935, Note_on_c, 0, 62, 0
2, 34943, Note_on_c, 0, 65, 80
2, 34969, Note_on_c, 0, 65, 0
2, 34976, Note_on_c, 0, 62, 65
2, 35003, Note_on_c, 0, 62, 0
2, 35040, Note_on_c, 0, 48, 0
2, 35040, Note_on_c, 0, 46, 67
2, 35100, Note_on_c, 0, 69, 0
2, 35100, Note_on_c, 0, 58, 0
2, 35100, Note_on_c, 0, 70, 71
2, 35100, Note_on_c, 0, 57, 71
2, 35159, Note_on_c, 0, 46, 0
2, 35159, Note_on_c, 0, 45, 67
2, 35280, Note_on_c, 0, 45, 0
2, 35280, Note_on_c, 0, 70, 0
2, 35280, Note_on_c, 0, 65, 0
2, 35280, Note_on_c, 0, 50, 0
2, 35280, Note_on_c, 0, 77, 0
2, 35280, Note_on_c, 0, 62, 0
2, 35280, Note_on_c, 0, 57, 0
2, 35280, Note_on_c, 0, 60, 0
2, 35280, Note_on_c, 0, 68, 0
2, 35280, Note_on_c, 0, 62, 85
2, 35280, Note_on_c, 0, 65, 85
2, 35280, Note_on_c, 0, 74, 85
2, 35280, Note_on_c, 0, 60, 96
2, 35280, Note_on_c, 0, 72, 96
2, 35280, Note_on_c, 0, 44, 81
2, 35280, Note_on_c, 0, 56, 81
2, 35280, Note_on_c, 0, 26, 67
2, 35280, Note_on_c, 0, 32, 67
2, 35280, Note_on_c, 0, 38, 67
2, 35280, Note_on_c, 0, 44, 64
2, 35280, Note_on_c, 0, 53, 64
2, 35400, Note_on_c, 0, 38, 0
2, 35400, Note_on_c, 0, 32, 0
2, 35400, Note_on_c, 0, 26, 0
2, 35400, Note_on_c, 0, 50, 86
2, 35400, Note_on_c, 0, 56, 86
2, 35400, Note_on_c, 0, 62, 86
2, 35460, Note_on_c, 0, 72, 0
2, 35460, Note_on_c, 0, 60, 0
2, 35460, Note_on_c, 0, 59, 70
2, 35460, Note_on_c, 0, 71, 70
2, 35519, Note_on_c, 0, 50, 0
2, 35519, Note_on_c, 0, 62, 0
2, 35519, Note_on_c, 0, 56, 0
2, 35519, Note_on_c, 0, 26, 66
2, 35519, Note_on_c, 0, 32, 66
2, 35519, Note_on_c, 0, 38, 66
2, 35640, Note_on_c, 0, 38, 0
2, 35640, Note_on_c, 0, 71, 0
2, 35640, Note_on_c, 0, 62, 0
2, 35640, Note_on_c, 0, 59, 0
2, 35640, Note_on_c, 0, 44, 0
2, 35640, Note_on_c, 0, 65, 0
2, 35640, Note_on_c, 0, 44, 0
2, 35640, Note_on_c, 0, 56, 0
2, 35640, Note_on_c, 0, 53, 0
2, 35640, Note_on_c, 0, 74, 0
2, 35640, Note_on_c, 0, 32, 0
2, 35640, Note_on_c, 0, 26, 0
2, 35640, Note_on_c, 0, 79, 103
2, 35640, Note_on_c, 0, 82, 103
2, 35640, Note_on_c, 0, 38, 75
2, 35640, Note_on_c, 0, 46, 75
2, 35640, Note_on_c, 0, 56, 75
2, 35640, Note_on_c, 0, 58, 75
2, 35820, Note_on_c, 0, 67, 51
2, 35837, Note_on_c, 0, 67, 0
2, 35843, Note_on_c, 0, 70, 52
2, 35859, Note_on_c, 0, 70, 0
2, 35865, Note_on_c, 0, 67, 51
2, 35879, Note_on_c, 0, 82, 0
2, 35879, Note_on_c, 0, 79, 0
2, 35879, Note_on_c, 0, 77, 52
2, 35879, Note_on_c, 0, 80, 52
2, 35882, Note_on_c, 0, 67, 0
2, 35888, Note_on_c, 0, 70, 52
2, 35904, Note_on_c, 0, 70, 0
2, 35910, Note_on_c, 0, 67, 51
2, 35927, Note_on_c, 0, 67, 0
2, 35933, Note_on_c, 0, 70, 52
2, 35949, Note_on_c, 0, 70, 0
2, 35955, Note_on_c, 0, 67, 51
2, 35972, Note_on_c, 0, 67, 0
2, 35978, Note_on_c, 0, 70, 52
2, 35994, Note_on_c, 0, 70, 0
2, 36000, Note_on_c, 0, 80, 0
2, 36000, Note_on_c, 0, 77, 0
2, 36000, Note_on_c, 0, 79, 47
2, 36000, Note_on_c, 0, 82, 47
2, 36000, Note_on_c, 0, 65, 40
2, 36035, Note_on_c, 0, 65, 0
2, 36045, Note_on_c, 0, 68, 51
2, 36080, Note_on_c, 0, 68, 0
2, 36090, Note_on_c, 0, 65, 40
2, 36125, Note_on_c, 0, 65, 0
2, 36135, Note_on_c, 0, 68, 51
2, 36170, Note_on_c, 0, 68, 0
2, 36180, Note_on_c, 0, 65, 40
2, 36215, Note_on_c, 0, 65, 0
2, 36225, Note_on_c, 0, 68, 51
2, 36239, Note_on_c, 0, 79, 0
2, 36239, Note_on_c, 0, 82, 0
2, 36239, Note_on_c, 0, 75, 47
2, 36239, Note_on_c, 0, 79, 47
2, 36260, Note_on_c, 0, 68, 0
2, 36270, Note_on_c, 0, 65, 40
2, 36305, Note_on_c, 0, 65, 0
2, 36315, Note_on_c, 0, 68, 51
2, 36350, Note_on_c, 0, 68, 0
2, 36360, Note_on_c, 0, 75, 0
2, 36360, Note_on_c, 0, 79, 0
2, 36360, Note_on_c, 0, 79, 50
2, 36360, Note_on_c, 0, 82, 50
2, 36360, Note_on_c, 0, 63, 41
2, 36395, Note_on_c, 0, 63, 0
2, 36405, Note_on_c, 0, 67, 51
2, 36440, Note_on_c, 0, 67, 0
2, 36450, Note_on_c, 0, 63, 41
2, 36485, Note_on_c, 0, 63, 0
2, 36495, Note_on_c, 0, 67, 51
2, 36530, Note_on_c, 0, 67, 0
2, 36540, Note_on_c, 0, 63, 41
2, 36575, Note_on_c, 0, 63, 0
2, 36585, Note_on_c, 0, 67, 51
2, 36620, Note_on_c, 0, 67, 0
2, 36630, Note_on_c, 0, 63, 41
2, 36665, Note_on_c, 0, 63, 0
2, 36675, Note_on_c, 0, 67, 51
2, 36710, Note_on_c, 0, 67, 0
2, 36720, Note_on_c, 0, 62, 43
2, 36755, Note_on_c, 0, 62, 0
2, 36765, Note_on_c, 0, 65, 49
2, 36800, Note_on_c, 0, 65, 0
2, 36810, Note_on_c, 0, 62, 43
2, 36845, Note_on_c, 0, 62, 0
2, 36855, Note_on_c, 0, 65, 49
2, 36890, Note_on_c, 0, 65, 0
2, 36900, Note_on_c, 0, 62, 43
2, 36935, Note_on_c, 0, 62, 0
2, 36945, Note_on_c, 0, 65, 49
2, 36959, Note_on_c, 0, 79, 0
2, 36959, Note_on_c, 0, 82, 0
2, 36959, Note_on_c, 0, 74, 41
2, 36959, Note_on_c, 0, 77, 41
2, 36980, Note_on_c, 0, 65, 0
2, 36990, Note_on_c, 0, 62, 43
2, 37025, Note_on_c, 0, 62, 0
2, 37035, Note_on_c, 0, 65, 49
2, 37070, Note_on_c, 0, 65, 0
2, 37080, Note_on_c, 0, 74, 0
2, 37080, Note_on_c, 0, 77, 0
2, 37080, Note_on_c, 0, 79, 53
2, 37080, Note_on_c, 0, 82, 53
2, 37080, Note_on_c, 0, 60, 39
2, 37115, Note_on_c, 0, 60, 0
2, 37125, Note_on_c, 0, 63, 50
2, 37160, Note_on_c, 0, 63, 0
2, 37170, Note_on_c, 0, 60, 39
2, 37205, Note_on_c, 0, 60, 0
2, 37215, Note_on_c, 0, 63, 50
2, 37250, Note_on_c, 0, 63, 0
2, 37260, Note_on_c, 0, 60, 39
2, 37295, Note_on_c, 0, 60, 0
2, 37305, Note_on_c, 0, 63, 50
2, 37319, Note_on_c, 0, 79, 0
2, 37319, Note_on_c, 0, 82, 0
2, 37319, Note_on_c, 0, 72, 43
2, 37319, Note_on_c, 0, 75, 43
2, 37340, Note_on_c, 0, 63, 0
2, 37350, Note_on_c, 0, 60, 39
2, 37385, Note_on_c, 0, 60, 0
2, 37395, Note_on_c, 0, 63, 50
2, 37430, Note_on_c, 0, 63, 0
2, 37440, Note_on_c, 0, 72, 0
2, 37440, Note_on_c, 0, 75, 0
2, 37440, Note_on_c, 0, 79, 53
2, 37440, Note_on_c, 0, 82, 53
2, 37440, Note_on_c, 0, 58, 49
2, 37475, Note_on_c, 0, 58, 0
2, 37485, Note_on_c, 0, 62, 55
2, 37520, Note_on_c, 0, 62, 0
2, 37530, Note_on_c, 0, 58, 49
2, 37565, Note_on_c, 0, 58, 0
2, 37575, Note_on_c, 0, 62, 55
2, 37610, Note_on_c, 0, 62, 0
2, 37620, Note_on_c, 0, 58, 49
2, 37655, Note_on_c, 0, 58, 0
2, 37665, Note_on_c, 0, 62, 55
2, 37679, Note_on_c, 0, 79, 0
2, 37679, Note_on_c, 0, 82, 0
2, 37679, Note_on_c, 0, 70, 40
2, 37679, Note_on_c, 0, 74, 40
2, 37700, Note_on_c, 0, 62, 0
2, 37710, Note_on_c, 0, 58, 49
2, 37745, Note_on_c, 0, 58, 0
2, 37755, Note_on_c, 0, 62, 55
2, 37790, Note_on_c, 0, 62, 0
2, 37800, Note_on_c, 0, 58, 0
2, 37800, Note_on_c, 0, 38, 0
2, 37800, Note_on_c, 0, 56, 0
2, 37800, Note_on_c, 0, 46, 0
2, 37800, Note_on_c, 0, 74, 0
2, 37800, Note_on_c, 0, 70, 0
2, 37800, Note_on_c, 0, 74, 85
2, 37800, Note_on_c, 0, 86, 85
2, 37800, Note_on_c, 0, 66, 50
2, 37800, Note_on_c, 0, 58, 61
2, 37800, Note_on_c, 0, 62, 61
2, 37800, Note_on_c, 0, 46, 59
2, 37800, Note_on_c, 0, 38, 49
2, 37920, Note_on_c, 0, 46, 0
2, 37920, Note_on_c, 0, 48, 73
2, 38039, Note_on_c, 0, 48, 0
2, 38039, Note_on_c, 0, 49, 71
2, 38160, Note_on_c, 0, 49, 0
2, 38160, Note_on_c, 0, 66, 0
2, 38160, Note_on_c, 0, 67, 62
2, 38160, Note_on_c, 0, 50, 73
2, 38280, Note_on_c, 0, 62, 67
2, 38399, Note_on_c, 0, 50, 0
2, 38399, Note_on_c, 0, 62, 0
2, 38399, Note_on_c, 0, 51, 73
2, 38520, Note_on_c, 0, 51, 0
2, 38520, Note_on_c, 0, 67, 0
2, 38520, Note_on_c, 0, 58, 0
2, 38520, Note_on_c, 0, 62, 0
2, 38520, Note_on_c, 0, 68, 59
2, 38520, Note_on_c, 0, 62, 60
2, 38520, Note_on_c, 0, 59, 55
2, 38520, Note_on_c, 0, 52, 54
2, 38640, Note_on_c, 0, 50, 63
2, 38700, Note_on_c, 0, 74, 0
2, 38700, Note_on_c, 0, 86, 0
2, 38700, Note_on_c, 0, 73, 70
2, 38700, Note_on_c, 0, 85, 70
2, 38759, Note_on_c, 0, 50, 0
2, 38759, Note_on_c, 0, 59, 0
2, 38759, Note_on_c, 0, 62, 86
2, 38759, Note_on_c, 0, 53, 54
2, 38880, Note_on_c, 0, 53, 0
2, 38880, Note_on_c, 0, 85, 0
2, 38880, Note_on_c, 0, 52, 0
2, 38880, Note_on_c, 0, 62, 0
2, 38880, Note_on_c, 0, 73, 0
2, 38880, Note_on_c, 0, 74, 75
2, 38880, Note_on_c, 0, 86, 75
2, 38880, Note_on_c, 0, 59, 61
2, 38880, Note_on_c, 0, 54, 63
2, 39000, Note_on_c, 0, 50, 66
2, 39119, Note_on_c, 0, 50, 0
2, 39119, Note_on_c, 0, 54, 0
2, 39119, Note_on_c, 0, 62, 86
2, 39119, Note_on_c, 0, 53, 57
2, 39240, Note_on_c, 0, 53, 0
2, 39240, Note_on_c, 0, 62, 0
2, 39240, Note_on_c, 0, 59, 0
2, 39240, Note_on_c, 0, 62, 0
2, 39240, Note_on_c, 0, 68, 0
2, 39240, Note_on_c, 0, 69, 59
2, 39240, Note_on_c, 0, 62, 65
2, 39240, Note_on_c, 0, 66, 65
2, 39240, Note_on_c, 0, 72, 52
2, 39240, Note_on_c, 0, 54, 63
2, 39240, Note_on_c, 0, 60, 57
2, 39360, Note_on_c, 0, 54, 0
2, 39360, Note_on_c, 0, 55, 75
2, 39420, Note_on_c, 0, 86, 0
2, 39420, Note_on_c, 0, 74, 0
2, 39420, Note_on_c, 0, 72, 68
2, 39420, Note_on_c, 0, 84, 68
2, 39479, Note_on_c, 0, 55, 0
2, 39479, Note_on_c, 0, 57, 73
2, 39600, Note_on_c, 0, 57, 0
2, 39600, Note_on_c, 0, 72, 0
2, 39600, Note_on_c, 0, 69, 0
2, 39600, Note_on_c, 0, 72, 0
2, 39600, Note_on_c, 0, 84, 0
2, 39600, Note_on_c, 0, 60, 0
2, 39600, Note_on_c, 0, 86, 75
2, 39600, Note_on_c, 0, 61, 63
2, 39600, Note_on_c, 0, 70, 63
2, 39600, Note_on_c, 0, 73, 61
2, 39600, Note_on_c, 0, 58, 72
2, 39690, Note_on_c, 0, 58, 0
2, 39690, Note_on_c, 0, 59, 71
2, 39780, Note_on_c, 0, 59, 0
2, 39780, Note_on_c, 0, 60, 71
2, 39870, Note_on_c, 0, 60, 0
2, 39870, Note_on_c, 0, 61, 76
2, 39960, Note_on_c, 0, 61, 0
2, 39960, Note_on_c, 0, 73, 0
2, 39960, Note_on_c, 0, 61, 0
2, 39960, Note_on_c, 0, 62, 0
2, 39960, Note_on_c, 0, 66, 0
2, 39960, Note_on_c, 0, 38, 0
2, 39960, Note_on_c, 0, 70, 0
2, 39960, Note_on_c, 0, 71, 58
2, 39960, Note_on_c, 0, 66, 56
2, 39960, Note_on_c, 0, 62, 45
2, 39960, Note_on_c, 0, 43, 62
2, 39960, Note_on_c, 0, 50, 62
2, 39960, Note_on_c, 0, 60, 69
2, 39960, Note_on_c, 0, 74, 69
2, 40080, Note_on_c, 0, 50, 64
2, 40080, Note_on_c, 0, 62, 64
2, 40140, Note_on_c, 0, 86, 0
2, 40140, Note_on_c, 0, 71, 68
2, 40140, Note_on_c, 0, 83, 68
2, 40199, Note_on_c, 0, 62, 0
2, 40199, Note_on_c, 0, 50, 0
2, 40199, Note_on_c, 0, 62, 85
2, 40199, Note_on_c, 0, 66, 85
2, 40199, Note_on_c, 0, 71, 85
2, 40320, Note_on_c, 0, 71, 0
2, 40320, Note_on_c, 0, 66, 0
2, 40320, Note_on_c, 0, 83, 0
2, 40320, Note_on_c, 0, 71, 0
2, 40320, Note_on_c, 0, 71, 0
2, 40320, Note_on_c, 0, 62, 0
2, 40320, Note_on_c, 0, 60, 0
2, 40320, Note_on_c, 0, 74, 0
2, 40320, Note_on_c, 0, 74, 76
2, 40320, Note_on_c, 0, 86, 76
2, 40320, Note_on_c, 0, 70, 55
2, 40320, Note_on_c, 0, 61, 63
2, 40320, Note_on_c, 0, 66, 63
2, 40440, Note_on_c, 0, 61, 0
2, 40440, Note_on_c, 0, 66, 0
2, 40440, Note_on_c, 0, 50, 62
2, 40500, Note_on_c, 0, 62, 0
2, 40500, Note_on_c, 0, 61, 57
2, 40559, Note_on_c, 0, 50, 0
2, 40559, Note_on_c, 0, 61, 87
2, 40559, Note_on_c, 0, 66, 87
2, 40559, Note_on_c, 0, 70, 87
2, 40680, Note_on_c, 0, 70, 0
2, 40680, Note_on_c, 0, 66, 0
2, 40680, Note_on_c, 0, 61, 0
2, 40680, Note_on_c, 0, 66, 0
2, 40680, Note_on_c, 0, 61, 0
2, 40680, Note_on_c, 0, 70, 0
2, 40680, Note_on_c, 0, 66, 52
2, 40680, Note_on_c, 0, 69, 52
2, 40680, Note_on_c, 0, 62, 56
2, 40680, Note_on_c, 0, 60, 59
2, 40800, Note_on_c, 0, 60, 0
2, 40800, Note_on_c, 0, 50, 57
2, 40860, Note_on_c, 0, 86, 0
2, 40860, Note_on_c, 0, 74, 0
2, 40860, Note_on_c, 0, 69, 61
2, 40860, Note_on_c, 0, 81, 61
2, 40919, Note_on_c, 0, 50, 0
2, 40919, Note_on_c, 0, 60, 86
2, 40919, Note_on_c, 0, 66, 86
2, 40919, Note_on_c, 0, 69, 86
2, 41040, Note_on_c, 0, 69, 0
2, 41040, Note_on_c, 0, 66, 0
2, 41040, Note_on_c, 0, 69, 0
2, 41040, Note_on_c, 0, 66, 0
2, 41040, Note_on_c, 0, 62, 0
2, 41040, Note_on_c, 0, 81, 0
2, 41040, Note_on_c, 0, 60, 0
2, 41040, Note_on_c, 0, 69, 0
2, 41040, Note_on_c, 0, 74, 74
2, 41040, Note_on_c, 0, 86, 74
2, 41040, Note_on_c, 0, 59, 74
2, 41040, Note_on_c, 0, 62, 74
2, 41040, Note_on_c, 0, 66, 74
2, 41040, Note_on_c, 0, 68, 74
2, 41160, Note_on_c, 0, 50, 59
2, 41279, Note_on_c, 0, 50, 0
2, 41279, Note_on_c, 0, 62, 65
2, 41400, Note_on_c, 0, 62, 0
2, 41400, Note_on_c, 0, 68, 0
2, 41400, Note_on_c, 0, 59, 0
2, 41400, Note_on_c, 0, 62, 0
2, 41400, Note_on_c, 0, 66, 0
2, 41400, Note_on_c, 0, 58, 67
2, 41400, Note_on_c, 0, 62, 67
2, 41400, Note_on_c, 0, 67, 67
2, 41520, Note_on_c, 0, 43, 53
2, 41580, Note_on_c, 0, 86, 0
2, 41580, Note_on_c, 0, 74, 0
2, 41580, Note_on_c, 0, 67, 59
2, 41580, Note_on_c, 0, 79, 59
2, 41639, Note_on_c, 0, 43, 0
2, 41639, Note_on_c, 0, 50, 65
2, 41760, Note_on_c, 0, 79, 0
2, 41760, Note_on_c, 0, 50, 0
2, 41760, Note_on_c, 0, 67, 0
2, 41760, Note_on_c, 0, 74, 77
2, 41760, Note_on_c, 0, 86, 77
2, 41760, Note_on_c, 0, 51, 57
2, 41760, Note_on_c, 0, 55, 70
2, 41760, Note_on_c, 0, 58, 70
2, 41760, Note_on_c, 0, 62, 70
2, 41880, Note_on_c, 0, 51, 0
2, 41880, Note_on_c, 0, 50, 56
2, 41940, Note_on_c, 0, 86, 0
2, 41940, Note_on_c, 0, 74, 0
2, 41940, Note_on_c, 0, 74, 55
2, 41999, Note_on_c, 0, 50, 0
2, 41999, Note_on_c, 0, 52, 58
2, 42120, Note_on_c, 0, 52, 0
2, 42120, Note_on_c, 0, 50, 0
2, 42120, Note_on_c, 0, 62, 0
2, 42120, Note_on_c, 0, 43, 0
2, 42120, Note_on_c, 0, 62, 0
2, 42120, Note_on_c, 0, 67, 0
2, 42120, Note_on_c, 0, 74, 0
2, 42120, Note_on_c, 0, 55, 0
2, 42120, Note_on_c, 0, 58, 0
2, 42120, Note_on_c, 0, 58, 0
2, 42120, Note_on_c, 0, 90, 85
2, 42120, Note_on_c, 0, 57, 66
2, 42120, Note_on_c, 0, 62, 66
2, 42120, Note_on_c, 0, 66, 66
2, 42120, Note_on_c, 0, 69, 66
2, 42120, Note_on_c, 0, 38, 60
2, 42120, Note_on_c, 0, 50, 60
2, 42300, Note_on_c, 0, 50, 0
2, 42300, Note_on_c, 0, 38, 0
2, 42300, Note_on_c, 0, 57, 49
2, 42480, Note_on_c, 0, 57, 0
2, 42480, Note_on_c, 0, 69, 0
2, 42480, Note_on_c, 0, 62, 0
2, 42480, Note_on_c, 0, 66, 0
2, 42480, Note_on_c, 0, 57, 0
2, 42480, Note_on_c, 0, 86, 52
2, 42480, Note_on_c, 0, 61, 50
2, 42660, Note_on_c, 0, 61, 0
2, 42660, Note_on_c, 0, 90, 0
2, 42660, Note_on_c, 0, 89, 70
2, 42660, Note_on_c, 0, 65, 43
2, 42660, Note_on_c, 0, 67, 43
2, 42660, Note_on_c, 0, 62, 53
2, 42840, Note_on_c, 0, 62, 0
2, 42840, Note_on_c, 0, 57, 43
2, 43020, Note_on_c, 0, 57, 0
2, 43020, Note_on_c, 0, 86, 0
2, 43020, Note_on_c, 0, 85, 58
2, 43020, Note_on_c, 0, 61, 51
2, 43110, Note_on_c, 0, 85, 0
2, 43110, Note_on_c, 0, 84, 59
2, 43200, Note_on_c, 0, 84, 0
2, 43200, Note_on_c, 0, 61, 0
2, 43200, Note_on_c, 0, 67, 0
2, 43200, Note_on_c, 0, 65, 0
2, 43200, Note_on_c, 0, 89, 0
2, 43200, Note_on_c, 0, 86, 64
2, 43200, Note_on_c, 0, 83, 62
2, 43200, Note_on_c, 0, 65, 46
2, 43200, Note_on_c, 0, 68, 46
2, 43200, Note_on_c, 0, 62, 50
2, 43380, Note_on_c, 0, 62, 0
2, 43380, Note_on_c, 0, 57, 47
2, 43560, Note_on_c, 0, 57, 0
2, 43560, Note_on_c, 0, 83, 0
2, 43560, Note_on_c, 0, 82, 58
2, 43560, Note_on_c, 0, 61, 53
2, 43740, Note_on_c, 0, 61, 0
2, 43740, Note_on_c, 0, 86, 0
2, 43740, Note_on_c, 0, 68, 0
2, 43740, Note_on_c, 0, 65, 0
2, 43740, Note_on_c, 0, 82, 0
2, 43740, Note_on_c, 0, 83, 66
2, 43740, Note_on_c, 0, 81, 57
2, 43740, Note_on_c, 0, 66, 46
2, 43740, Note_on_c, 0, 69, 46
2, 43740, Note_on_c, 0, 62, 52
2, 43920, Note_on_c, 0, 62, 0
2, 43920, Note_on_c, 0, 57, 44
2, 44100, Note_on_c, 0, 57, 0
2, 44100, Note_on_c, 0, 81, 0
2, 44100, Note_on_c, 0, 80, 59
2, 44100, Note_on_c, 0, 61, 52
2, 44280, Note_on_c, 0, 61, 0
2, 44280, Note_on_c, 0, 83, 0
2, 44280, Note_on_c, 0, 69, 0
2, 44280, Note_on_c, 0, 66, 0
2, 44280, Note_on_c, 0, 80, 0
2, 44280, Note_on_c, 0, 82, 67
2, 44280, Note_on_c, 0, 79, 58
2, 44280, Note_on_c, 0, 67, 51
2, 44280, Note_on_c, 0, 70, 51
2, 44280, Note_on_c, 0, 62, 48
2, 44460, Note_on_c, 0, 62, 0
2, 44460, Note_on_c, 0, 57, 47
2, 44640, Note_on_c, 0, 57, 0
2, 44640, Note_on_c, 0, 79, 0
2, 44640, Note_on_c, 0, 78, 58
2, 44640, Note_on_c, 0, 61, 53
2, 44730, Note_on_c, 0, 78, 0
2, 44730, Note_on_c, 0, 77, 57
2, 44820, Note_on_c, 0, 77, 0
2, 44820, Note_on_c, 0, 61, 0
2, 44820, Note_on_c, 0, 82, 0
2, 44820, Note_on_c, 0, 80, 64
2, 44820, Note_on_c, 0, 76, 57
2, 44820, Note_on_c, 0, 62, 49
2, 45000, Note_on_c, 0, 62, 0
2, 45000, Note_on_c, 0, 57, 49
2, 45180, Note_on_c, 0, 57, 0
2, 45180, Note_on_c, 0, 76, 0
2, 45180, Note_on_c, 0, 75, 54
2, 45180, Note_on_c, 0, 61, 49
2, 45360, Note_on_c, 0, 61, 0
2, 45360, Note_on_c, 0, 70, 0
2, 45360, Note_on_c, 0, 80, 0
2, 45360, Note_on_c, 0, 67, 0
2, 45360, Note_on_c, 0, 75, 0
2, 45360, Note_on_c, 0, 78, 67
2, 45360, Note_on_c, 0, 74, 66
2, 45360, Note_on_c, 0, 66, 43
2, 45360, Note_on_c, 0, 69, 43
2, 45360, Note_on_c, 0, 62, 50
2, 45540, Note_on_c, 0, 62, 0
2, 45540, Note_on_c, 0, 57, 44
2, 45677, Note_on_c, 0, 74, 0
2, 45720, Note_on_c, 0, 57, 0
2, 45720, Note_on_c, 0, 73, 55
2, 45720, Note_on_c, 0, 61, 54
2, 45810, Note_on_c, 0, 73, 0
2, 45810, Note_on_c, 0, 72, 57
2, 45900, Note_on_c, 0, 72, 0
2, 45900, Note_on_c, 0, 61, 0
2, 45900, Note_on_c, 0, 69, 0
2, 45900, Note_on_c, 0, 66, 0
2, 45900, Note_on_c, 0, 78, 0
2, 45900, Note_on_c, 0, 77, 67
2, 45900, Note_on_c, 0, 73, 65
2, 45900, Note_on_c, 0, 65, 42
2, 45900, Note_on_c, 0, 66, 42
2, 45900, Note_on_c, 0, 62, 49
2, 46080, Note_on_c, 0, 62, 0
2, 46080, Note_on_c, 0, 57, 47
2, 46260, Note_on_c, 0, 57, 0
2, 46260, Note_on_c, 0, 73, 0
2, 46260, Note_on_c, 0, 72, 59
2, 46260, Note_on_c, 0, 61, 50
2, 46350, Note_on_c, 0, 72, 0
2, 46350, Note_on_c, 0, 71, 52
2, 46440, Note_on_c, 0, 71, 0
2, 46440, Note_on_c, 0, 61, 0
2, 46440, Note_on_c, 0, 72, 61
2, 46440, Note_on_c, 0, 62, 49
2, 46620, Note_on_c, 0, 62, 0
2, 46620, Note_on_c, 0, 57, 50
2, 46800, Note_on_c, 0, 57, 0
2, 46800, Note_on_c, 0, 61, 51
2, 46980, Note_on_c, 0, 61, 0
2, 46980, Note_on_c, 0, 62, 50
2, 47160, Note_on_c, 0, 62, 0
2, 47160, Note_on_c, 0, 57, 47
2, 47340, Note_on_c, 0, 57, 0
2, 47340, Note_on_c, 0, 72, 0
2, 47340, Note_on_c, 0, 71, 60
2, 47340, Note_on_c, 0, 61, 49
2, 47430, Note_on_c, 0, 71, 0
2, 47430, Note_on_c, 0, 70, 54
2, 47520, Note_on_c, 0, 70, 0
2, 47520, Note_on_c, 0, 61, 0
2, 47520, Note_on_c, 0, 66, 0
2, 47520, Note_on_c, 0, 65, 0
2, 47520, Note_on_c, 0, 71, 64
2, 47520, Note_on_c, 0, 65, 45
2, 47520, Note_on_c, 0, 67, 45
2, 47520, Note_on_c, 0, 62, 50
2, 47700, Note_on_c, 0, 62, 0
2, 47700, Note_on_c, 0, 57, 44
2, 47880, Note_on_c, 0, 57, 0
2, 47880, Note_on_c, 0, 71, 0
2, 47880, Note_on_c, 0, 70, 56
2, 47880, Note_on_c, 0, 61, 49
2, 47970, Note_on_c, 0, 70, 0
2, 47970, Note_on_c, 0, 69, 58
2, 48060, Note_on_c, 0, 69, 0
2, 48060, Note_on_c, 0, 61, 0
2, 48060, Note_on_c, 0, 67, 0
2, 48060, Note_on_c, 0, 65, 0
2, 48060, Note_on_c, 0, 70, 58
2, 48060, Note_on_c, 0, 66, 46
2, 48060, Note_on_c, 0, 62, 51
2, 48240, Note_on_c, 0, 62, 0
2, 48240, Note_on_c, 0, 57, 47
2, 48420, Note_on_c, 0, 57, 0
2, 48420, Note_on_c, 0, 70, 0
2, 48420, Note_on_c, 0, 69, 59
2, 48420, Note_on_c, 0, 61, 51
2, 48510, Note_on_c, 0, 69, 0
2, 48510, Note_on_c, 0, 70, 60
2, 48600, Note_on_c, 0, 70, 0
2, 48600, Note_on_c, 0, 61, 0
2, 48600, Note_on_c, 0, 66, 0
2, 48600, Note_on_c, 0, 77, 0
2, 48600, Note_on_c, 0, 83, 106
2, 48600, Note_on_c, 0, 71, 67
2, 48600, Note_on_c, 0, 74, 67
2, 48600, Note_on_c, 0, 67, 48
2, 48600, Note_on_c, 0, 62, 50
2, 48780, Note_on_c, 0, 62, 0
2, 48780, Note_on_c, 0, 55, 47
2, 48960, Note_on_c, 0, 55, 0
2, 48960, Note_on_c, 0, 79, 71
2, 48960, Note_on_c, 0, 61, 52
2, 49140, Note_on_c, 0, 61, 0
2, 49140, Note_on_c, 0, 71, 0
2, 49140, Note_on_c, 0, 83, 0
2, 49140, Note_on_c, 0, 74, 0
2, 49140, Note_on_c, 0, 82, 91
2, 49140, Note_on_c, 0, 70, 55
2, 49140, Note_on_c, 0, 73, 55
2, 49140, Note_on_c, 0, 62, 51
2, 49320, Note_on_c, 0, 62, 0
2, 49320, Note_on_c, 0, 55, 49
2, 49500, Note_on_c, 0, 55, 0
2, 49500, Note_on_c, 0, 79, 0
2, 49500, Note_on_c, 0, 78, 51
2, 49500, Note_on_c, 0, 61, 52
2, 49590, Note_on_c, 0, 78, 0
2, 49590, Note_on_c, 0, 77, 58
2, 49680, Note_on_c, 0, 77, 0
2, 49680, Note_on_c, 0, 61, 0
2, 49680, Note_on_c, 0, 67, 0
2, 49680, Note_on_c, 0, 82, 0
2, 49680, Note_on_c, 0, 79, 82
2, 49680, Note_on_c, 0, 76, 56
2, 49680, Note_on_c, 0, 67, 44
2, 49680, Note_on_c, 0, 62, 49
2, 49860, Note_on_c, 0, 62, 0
2, 49860, Note_on_c, 0, 55, 43
2, 50040, Note_on_c, 0, 55, 0
2, 50040, Note_on_c, 0, 76, 0
2, 50040, Note_on_c, 0, 75, 58
2, 50040, Note_on_c, 0, 61, 52
2, 50220, Note_on_c, 0, 61, 0
2, 50220, Note_on_c, 0, 70, 0
2, 50220, Note_on_c, 0, 67, 0
2, 50220, Note_on_c, 0, 73, 0
2, 50220, Note_on_c, 0, 75, 0
2, 50220, Note_on_c, 0, 79, 0
2, 50220, Note_on_c, 0, 76, 81
2, 50220, Note_on_c, 0, 67, 56
2, 50220, Note_on_c, 0, 71, 56
2, 50220, Note_on_c, 0, 74, 52
2, 50220, Note_on_c, 0, 62, 48
2, 50400, Note_on_c, 0, 62, 0
2, 50400, Note_on_c, 0, 50, 48
2, 50580, Note_on_c, 0, 50, 0
2, 50580, Note_on_c, 0, 74, 0
2, 50580, Note_on_c, 0, 73, 57
2, 50580, Note_on_c, 0, 54, 50
2, 50760, Note_on_c, 0, 54, 0
2, 50760, Note_on_c, 0, 76, 0
2, 50760, Note_on_c, 0, 71, 0
2, 50760, Note_on_c, 0, 67, 0
2, 50760, Note_on_c, 0, 73, 0
2, 50760, Note_on_c, 0, 75, 87
2, 50760, Note_on_c, 0, 63, 52
2, 50760, Note_on_c, 0, 66, 52
2, 50760, Note_on_c, 0, 72, 57
2, 50760, Note_on_c, 0, 60, 46
2, 50760, Note_on_c, 0, 55, 45
2, 50940, Note_on_c, 0, 55, 0
2, 50940, Note_on_c, 0, 50, 41
2, 51120, Note_on_c, 0, 50, 0
2, 51120, Note_on_c, 0, 72, 0
2, 51120, Note_on_c, 0, 71, 60
2, 51120, Note_on_c, 0, 54, 50
2, 51210, Note_on_c, 0, 71, 0
2, 51210, Note_on_c, 0, 70, 50
2, 51300, Note_on_c, 0, 70, 0
2, 51300, Note_on_c, 0, 54, 0
2, 51300, Note_on_c, 0, 75, 0
2, 51300, Note_on_c, 0, 72, 87
2, 51300, Note_on_c, 0, 69, 55
2, 51300, Note_on_c, 0, 55, 48
2, 51480, Note_on_c, 0, 55, 0
2, 51480, Note_on_c, 0, 50, 44
2, 51660, Note_on_c, 0, 50, 0
2, 51660, Note_on_c, 0, 69, 0
2, 51660, Note_on_c, 0, 68, 50
2, 51660, Note_on_c, 0, 54, 47
2, 51840, Note_on_c, 0, 54, 0
2, 51840, Note_on_c, 0, 60, 0
2, 51840, Note_on_c, 0, 72, 0
2, 51840, Note_on_c, 0, 66, 0
2, 51840, Note_on_c, 0, 68, 0
2, 51840, Note_on_c, 0, 63, 0
2, 51840, Note_on_c, 0, 71, 94
2, 51840, Note_on_c, 0, 63, 54
2, 51840, Note_on_c, 0, 67, 56
2, 51840, Note_on_c, 0, 59, 44
2, 51840, Note_on_c, 0, 55, 47
2, 52020, Note_on_c, 0, 55, 0
2, 52020, Note_on_c, 0, 50, 44
2, 52200, Note_on_c, 0, 50, 0
2, 52200, Note_on_c, 0, 67, 0
2, 52200, Note_on_c, 0, 66, 56
2, 52200, Note_on_c, 0, 54, 51
2, 52290, Note_on_c, 0, 66, 0
2, 52290, Note_on_c, 0, 65, 57
2, 52380, Note_on_c, 0, 65, 0
2, 52380, Note_on_c, 0, 54, 0
2, 52380, Note_on_c, 0, 59, 0
2, 52380, Note_on_c, 0, 63, 0
2, 52380, Note_on_c, 0, 71, 0
2, 52380, Note_on_c, 0, 70, 89
2, 52380, Note_on_c, 0, 62, 58
2, 52380, Note_on_c, 0, 66, 54
2, 52380, Note_on_c, 0, 58, 48
2, 52380, Note_on_c, 0, 55, 52
2, 52560, Note_on_c, 0, 55, 0
2, 52560, Note_on_c, 0, 50, 45
2, 52740, Note_on_c, 0, 50, 0
2, 52740, Note_on_c, 0, 54, 49
2, 52920, Note_on_c, 0, 54, 0
2, 52920, Note_on_c, 0, 62, 0
2, 52920, Note_on_c, 0, 61, 53
2, 52920, Note_on_c, 0, 55, 49
2, 53100, Note_on_c, 0, 55, 0
2, 53100, Note_on_c, 0, 50, 43
2, 53280, Note_on_c, 0, 50, 0
2, 53280, Note_on_c, 0, 66, 0
2, 53280, Note_on_c, 0, 65, 56
2, 53280, Note_on_c, 0, 54, 45
2, 53370, Note_on_c, 0, 65, 0
2, 53370, Note_on_c, 0, 64, 56
2, 53460, Note_on_c, 0, 64, 0
2, 53460, Note_on_c, 0, 54, 0
2, 53460, Note_on_c, 0, 61, 0
2, 53460, Note_on_c, 0, 61, 65
2, 53460, Note_on_c, 0, 65, 59
2, 53460, Note_on_c, 0, 55, 48
2, 53640, Note_on_c, 0, 55, 0
2, 53640, Note_on_c, 0, 50, 42
2, 53820, Note_on_c, 0, 50, 0
2, 53820, Note_on_c, 0, 54, 47
2, 54000, Note_on_c, 0, 54, 0
2, 54000, Note_on_c, 0, 55, 49
2, 54180, Note_on_c, 0, 55, 0
2, 54180, Note_on_c, 0, 65, 0
2, 54180, Note_on_c, 0, 64, 54
2, 54180, Note_on_c, 0, 50, 44
2, 54270, Note_on_c, 0, 64, 0
2, 54270, Note_on_c, 0, 63, 53
2, 54360, Note_on_c, 0, 63, 0
2, 54360, Note_on_c, 0, 50, 0
2, 54360, Note_on_c, 0, 64, 61
2, 54360, Note_on_c, 0, 54, 50
2, 54540, Note_on_c, 0, 54, 0
2, 54540, Note_on_c, 0, 61, 0
2, 54540, Note_on_c, 0, 61, 64
2, 54540, Note_on_c, 0, 55, 52
2, 54720, Note_on_c, 0, 55, 0
2, 54720, Note_on_c, 0, 50, 44
2, 54900, Note_on_c, 0, 50, 0
2, 54900, Note_on_c, 0, 64, 0
2, 54900, Note_on_c, 0, 70, 0
2, 54900, Note_on_c, 0, 63, 55
2, 54900, Note_on_c, 0, 54, 51
2, 54990, Note_on_c, 0, 63, 0
2, 54990, Note_on_c, 0, 62, 53
2, 55080, Note_on_c, 0, 62, 0
2, 55080, Note_on_c, 0, 54, 0
2, 55080, Note_on_c, 0, 61, 0
2, 55080, Note_on_c, 0, 61, 61
2, 55080, Note_on_c, 0, 55, 51
2, 55260, Note_on_c, 0, 55, 0
2, 55440, Note_on_c, 0, 50, 41
2, 55529, Note_on_c, 0, 50, 0
2, 55620, Note_on_c, 0, 55, 52
2, 55799, Note_on_c, 0, 55, 0
2, 55980, Note_on_c, 0, 50, 48
2, 56069, Note_on_c, 0, 50, 0
2, 56160, Note_on_c, 0, 61, 0
2, 56160, Note_on_c, 0, 58, 0
2, 56160, Note_on_c, 0, 58, 67
2, 56160, Note_on_c, 0, 55, 53
2, 56339, Note_on_c, 0, 55, 0
2, 56700, Note_on_c, 0, 58, 0
2, 56700, Note_on_c, 0, 55, 69
2, 57240, Note_on_c, 0, 55, 0
2, 57240, Note_on_c, 0, 52, 43
2, 57780, Note_on_c, 0, 52, 0
2, 57780, Note_on_c, 0, 51, 50
2, 58140, Note_on_c, 0, 51, 0
2, 58140, Note_on_c, 0, 50, 44
2, 58320, Note_on_c, 0, 50, 0
2, 58320, Note_on_c, 0, 58, 68
2, 58320, Note_on_c, 0, 55, 55
2, 58320, Note_on_c, 0, 52, 50
2, 58320, Note_on_c, 0, 49, 75
2, 58680, Note_on_c, 0, 49, 0
2, 58680, Note_on_c, 0, 47, 77
2, 58860, Note_on_c, 0, 58, 0
2, 58860, Note_on_c, 0, 59, 71
2, 59040, Note_on_c, 0, 59, 0
2, 59040, Note_on_c, 0, 47, 0
2, 59040, Note_on_c, 0, 60, 74
2, 59040, Note_on_c, 0, 46, 80
2, 59220, Note_on_c, 0, 55, 0
2, 59220, Note_on_c, 0, 56, 62
2, 59400, Note_on_c, 0, 56, 0
2, 59400, Note_on_c, 0, 60, 0
2, 59400, Note_on_c, 0, 61, 80
2, 59400, Note_on_c, 0, 56, 58
2, 59760, Note_on_c, 0, 56, 0
2, 59760, Note_on_c, 0, 46, 0
2, 59760, Note_on_c, 0, 57, 55
2, 59760, Note_on_c, 0, 45, 80
2, 59940, Note_on_c, 0, 45, 0
2, 59940, Note_on_c, 0, 44, 78
2, 60120, Note_on_c, 0, 44, 0
2, 60120, Note_on_c, 0, 57, 0
2, 60120, Note_on_c, 0, 61, 0
2, 60120, Note_on_c, 0, 52, 0
2, 60120, Note_on_c, 0, 62, 72
2, 60120, Note_on_c, 0, 58, 60
2, 60120, Note_on_c, 0, 52, 45
2, 60120, Note_on_c, 0, 43, 79
2, 60840, Note_on_c, 0, 43, 0
2, 60840, Note_on_c, 0, 62, 0
2, 60840, Note_on_c, 0, 58, 0
2, 60840, Note_on_c, 0, 52, 0
2, 60840, Note_on_c, 0, 63, 78
2, 60840, Note_on_c, 0, 59, 59
2, 60840, Note_on_c, 0, 51, 48
2, 60840, Note_on_c, 0, 42, 81
2, 61200, Note_on_c, 0, 51, 0
2, 61200, Note_on_c, 0, 63, 0
2, 61200, Note_on_c, 0, 59, 0
2, 61200, Note_on_c, 0, 64, 74
2, 61200, Note_on_c, 0, 58, 59
2, 61200, Note_on_c, 0, 50, 48
2, 61380, Note_on_c, 0, 50, 0
2, 61380, Note_on_c, 0, 49, 49
2, 61560, Note_on_c, 0, 49, 0
2, 61560, Note_on_c, 0, 58, 0
2, 61560, Note_on_c, 0, 64, 0
2, 61560, Note_on_c, 0, 42, 0
2, 61560, Note_on_c, 0, 65, 76
2, 61560, Note_on_c, 0, 57, 60
2, 61560, Note_on_c, 0, 48, 47
2, 61560, Note_on_c, 0, 41, 77
2, 61920, Note_on_c, 0, 41, 0
2, 61920, Note_on_c, 0, 40, 81
2, 62100, Note_on_c, 0, 57, 0
2, 62100, Note_on_c, 0, 56, 59
2, 62280, Note_on_c, 0, 56, 0
2, 62280, Note_on_c, 0, 40, 0
2, 62280, Note_on_c, 0, 48, 0
2, 62280, Note_on_c, 0, 55, 59
2, 62280, Note_on_c, 0, 47, 45
2, 62280, Note_on_c, 0, 39, 78
2, 62460, Note_on_c, 0, 47, 0
2, 62460, Note_on_c, 0, 46, 46
2, 62640, Note_on_c, 0, 46, 0
2, 62640, Note_on_c, 0, 39, 0
2, 62640, Note_on_c, 0, 55, 0
2, 62640, Note_on_c, 0, 65, 0
2, 62640, Note_on_c, 0, 74, 87
2, 62640, Note_on_c, 0, 66, 73
2, 62640, Note_on_c, 0, 54, 52
2, 62640, Note_on_c, 0, 26, 87
2, 62640, Note_on_c, 0, 38, 87
2, 62640, Note_on_c, 0, 45, 87
2, 63000, Note_on_c, 0, 74, 0
2, 63000, Note_on_c, 0, 76, 77
2, 63360, Note_on_c, 0, 76, 0
2, 63360, Note_on_c, 0, 54, 0
2, 63360, Note_on_c, 0, 66, 0
2, 63360, Note_on_c, 0, 78, 76
2, 63360, Note_on_c, 0, 62, 55
2, 63360, Note_on_c, 0, 59, 52
2, 63720, Note_on_c, 0, 59, 0
2, 63720, Note_on_c, 0, 78, 0
2, 63720, Note_on_c, 0, 26, 0
2, 63720, Note_on_c, 0, 62, 0
2, 63720, Note_on_c, 0, 73, 64
2, 63720, Note_on_c, 0, 64, 59
2, 63720, Note_on_c, 0, 57, 46
2, 64080, Note_on_c, 0, 73, 0
2, 64080, Note_on_c, 0, 74, 71
2, 64260, Note_on_c, 0, 64, 0
2, 64260, Note_on_c, 0, 66, 62
2, 64440, Note_on_c, 0, 66, 0
2, 64440, Note_on_c, 0, 74, 0
2, 64440, Note_on_c, 0, 57, 0
2, 64440, Note_on_c, 0, 76, 74
2, 64440, Note_on_c, 0, 67, 62
2, 64440, Note_on_c, 0, 52, 47
2, 64620, Note_on_c, 0, 52, 0
2, 64620, Note_on_c, 0, 54, 47
2, 64800, Note_on_c, 0, 54, 0
2, 64800, Note_on_c, 0, 67, 0
2, 64800, Note_on_c, 0, 76, 0
2, 64800, Note_on_c, 0, 71, 63
2, 64800, Note_on_c, 0, 63, 55
2, 64800, Note_on_c, 0, 55, 48
2, 65160, Note_on_c, 0, 71, 0
2, 65160, Note_on_c, 0, 72, 74
2, 65340, Note_on_c, 0, 72, 0
2, 65340, Note_on_c, 0, 55, 0
2, 65340, Note_on_c, 0, 63, 0
2, 65340, Note_on_c, 0, 73, 67
2, 65340, Note_on_c, 0, 64, 57
2, 65340, Note_on_c, 0, 56, 48
2, 65520, Note_on_c, 0, 56, 0
2, 65520, Note_on_c, 0, 73, 0
2, 65520, Note_on_c, 0, 64, 0
2, 65520, Note_on_c, 0, 74, 72
2, 65520, Note_on_c, 0, 65, 64
2, 65520, Note_on_c, 0, 57, 48
2, 65700, Note_on_c, 0, 57, 0
2, 65700, Note_on_c, 0, 65, 0
2, 65700, Note_on_c, 0, 66, 62
2, 65700, Note_on_c, 0, 58, 51
2, 65880, Note_on_c, 0, 58, 0
2, 65880, Note_on_c, 0, 74, 0
2, 65880, Note_on_c, 0, 66, 0
2, 65880, Note_on_c, 0, 70, 65
2, 65880, Note_on_c, 0, 61, 56
2, 65880, Note_on_c, 0, 54, 43
2, 66240, Note_on_c, 0, 70, 0
2, 66240, Note_on_c, 0, 71, 71
2, 66420, Note_on_c, 0, 61, 0
2, 66420, Note_on_c, 0, 62, 62
2, 66600, Note_on_c, 0, 62, 0
2, 66600, Note_on_c, 0, 71, 0
2, 66600, Note_on_c, 0, 54, 0
2, 66600, Note_on_c, 0, 72, 75
2, 66600, Note_on_c, 0, 63, 64
2, 66600, Note_on_c, 0, 55, 45
2, 66780, Note_on_c, 0, 63, 0
2, 66780, Note_on_c, 0, 64, 66
2, 66960, Note_on_c, 0, 64, 0
2, 66960, Note_on_c, 0, 55, 0
2, 66960, Note_on_c, 0, 72, 0
2, 66960, Note_on_c, 0, 67, 61
2, 66960, Note_on_c, 0, 59, 56
2, 66960, Note_on_c, 0, 51, 46
2, 67320, Note_on_c, 0, 59, 0
2, 67320, Note_on_c, 0, 67, 0
2, 67320, Note_on_c, 0, 69, 73
2, 67320, Note_on_c, 0, 60, 64
2, 67500, Note_on_c, 0, 69, 0
2, 67500, Note_on_c, 0, 51, 0
2, 67500, Note_on_c, 0, 70, 72
2, 67500, Note_on_c, 0, 52, 47
2, 67680, Note_on_c, 0, 52, 0
2, 67680, Note_on_c, 0, 60, 0
2, 67680, Note_on_c, 0, 70, 0
2, 67680, Note_on_c, 0, 71, 73
2, 67680, Note_on_c, 0, 61, 59
2, 67680, Note_on_c, 0, 53, 46
2, 67860, Note_on_c, 0, 53, 0
2, 67860, Note_on_c, 0, 61, 0
2, 67860, Note_on_c, 0, 62, 61
2, 67860, Note_on_c, 0, 54, 47
2, 68040, Note_on_c, 0, 54, 0
2, 68040, Note_on_c, 0, 71, 0
2, 68040, Note_on_c, 0, 62, 0
2, 68040, Note_on_c, 0, 45, 0
2, 68040, Note_on_c, 0, 64, 60
2, 68040, Note_on_c, 0, 55, 58
2, 68040, Note_on_c, 0, 62, 58
2, 68040, Note_on_c, 0, 47, 47
2, 68220, Note_on_c, 0, 64, 0
2, 68220, Note_on_c, 0, 66, 72
2, 68400, Note_on_c, 0, 66, 0
2, 68400, Note_on_c, 0, 47, 0
2, 68400, Note_on_c, 0, 55, 0
2, 68400, Note_on_c, 0, 67, 75
2, 68400, Note_on_c, 0, 56, 58
2, 68400, Note_on_c, 0, 46, 48
2, 68760, Note_on_c, 0, 46, 0
2, 68760, Note_on_c, 0, 67, 0
2, 68760, Note_on_c, 0, 56, 0
2, 68760, Note_on_c, 0, 62, 0
2, 68760, Note_on_c, 0, 66, 68
2, 68760, Note_on_c, 0, 57, 62
2, 68760, Note_on_c, 0, 61, 62
2, 68760, Note_on_c, 0, 45, 43
2, 68940, Note_on_c, 0, 45, 0
2, 68940, Note_on_c, 0, 57, 0
2, 68940, Note_on_c, 0, 61, 0
2, 68940, Note_on_c, 0, 58, 67
2, 68940, Note_on_c, 0, 62, 67
2, 68940, Note_on_c, 0, 44, 46
2, 69120, Note_on_c, 0, 44, 0
2, 69120, Note_on_c, 0, 58, 0
2, 69120, Note_on_c, 0, 38, 0
2, 69120, Note_on_c, 0, 66, 0
2, 69120, Note_on_c, 0, 62, 0
2, 69120, Note_on_c, 0, 63, 62
2, 69120, Note_on_c, 0, 59, 58
2, 69120, Note_on_c, 0, 43, 44
2, 69120, Note_on_c, 0, 38, 78
2, 69480, Note_on_c, 0, 63, 0
2, 69480, Note_on_c, 0, 64, 73
2, 69660, Note_on_c, 0, 59, 0
2, 69660, Note_on_c, 0, 43, 0
2, 69660, Note_on_c, 0, 58, 60
2, 69660, Note_on_c, 0, 44, 51
2, 69840, Note_on_c, 0, 44, 0
2, 69840, Note_on_c, 0, 58, 0
2, 69840, Note_on_c, 0, 64, 0
2, 69840, Note_on_c, 0, 66, 75
2, 69840, Note_on_c, 0, 57, 54
2, 69840, Note_on_c, 0, 45, 47
2, 70020, Note_on_c, 0, 57, 0
2, 70020, Note_on_c, 0, 56, 56
2, 70200, Note_on_c, 0, 56, 0
2, 70200, Note_on_c, 0, 45, 0
2, 70200, Note_on_c, 0, 66, 0
2, 70200, Note_on_c, 0, 61, 61
2, 70200, Note_on_c, 0, 55, 56
2, 70200, Note_on_c, 0, 46, 47
2, 70560, Note_on_c, 0, 46, 0
2, 70560, Note_on_c, 0, 61, 0
2, 70560, Note_on_c, 0, 62, 69
2, 70560, Note_on_c, 0, 47, 48
2, 70740, Note_on_c, 0, 47, 0
2, 70740, Note_on_c, 0, 62, 0
2, 70740, Note_on_c, 0, 63, 72
2, 70740, Note_on_c, 0, 48, 44
2, 70920, Note_on_c, 0, 63, 0
2, 70920, Note_on_c, 0, 55, 0
2, 70920, Note_on_c, 0, 64, 74
2, 70920, Note_on_c, 0, 54, 58
2, 71100, Note_on_c, 0, 48, 0
2, 71100, Note_on_c, 0, 49, 55
2, 71280, Note_on_c, 0, 49, 0
2, 71280, Note_on_c, 0, 54, 0
2, 71280, Note_on_c, 0, 64, 0
2, 71280, Note_on_c, 0, 59, 68
2, 71280, Note_on_c, 0, 53, 64
2, 71280, Note_on_c, 0, 50, 48
2, 71460, Note_on_c, 0, 59, 0
2, 71460, Note_on_c, 0, 60, 71
2, 71640, Note_on_c, 0, 60, 0
2, 71640, Note_on_c, 0, 50, 0
2, 71640, Note_on_c, 0, 53, 0
2, 71640, Note_on_c, 0, 61, 72
2, 71640, Note_on_c, 0, 52, 58
2, 71640, Note_on_c, 0, 45, 42
2, 71820, Note_on_c, 0, 52, 0
2, 71820, Note_on_c, 0, 53, 59
2, 72000, Note_on_c, 0, 53, 0
2, 72000, Note_on_c, 0, 61, 0
2, 72000, Note_on_c, 0, 62, 74
2, 72000, Note_on_c, 0, 54, 63
2, 72180, Note_on_c, 0, 45, 0
2, 72180, Note_on_c, 0, 46, 48
2, 72360, Note_on_c, 0, 46, 0
2, 72360, Note_on_c, 0, 54, 0
2, 72360, Note_on_c, 0, 62, 0
2, 72360, Note_on_c, 0, 55, 67
2, 72360, Note_on_c, 0, 52, 62
2, 72360, Note_on_c, 0, 47, 52
2, 72720, Note_on_c, 0, 47, 0
2, 72720, Note_on_c, 0, 52, 0
2, 72720, Note_on_c, 0, 55, 0
2, 72720, Note_on_c, 0, 56, 70
2, 72720, Note_on_c, 0, 51, 60
2, 72720, Note_on_c, 0, 48, 50
2, 73080, Note_on_c, 0, 48, 0
2, 73080, Note_on_c, 0, 51, 0
2, 73080, Note_on_c, 0, 50, 58
2, 73080, Note_on_c, 0, 46, 48
2, 73440, Note_on_c, 0, 46, 0
2, 73440, Note_on_c, 0, 38, 0
2, 73440, Note_on_c, 0, 56, 0
2, 73440, Note_on_c, 0, 50, 0
2, 73440, Note_on_c, 0, 57, 69
2, 73440, Note_on_c, 0, 50, 61
2, 73440, Note_on_c, 0, 54, 61
2, 73440, Note_on_c, 0, 45, 52
2, 73440, Note_on_c, 0, 38, 82
2, 73800, Note_on_c, 0, 45, 0
2, 73800, Note_on_c, 0, 57, 0
2, 73800, Note_on_c, 0, 59, 71
2, 73800, Note_on_c, 0, 47, 47
2, 73920, Note_on_c, 0, 62, 56
2, 73920, Note_on_c, 0, 55, 44
2, 73980, Note_on_c, 0, 55, 0
2, 73980, Note_on_c, 0, 51, 45
2, 74039, Note_on_c, 0, 51, 0
2, 74039, Note_on_c, 0, 62, 0
2, 74039, Note_on_c, 0, 50, 49
2, 74039, Note_on_c, 0, 54, 53
2, 74062, Note_on_c, 0, 54, 0
2, 74069, Note_on_c, 0, 50, 61
2, 74091, Note_on_c, 0, 50, 0
2, 74098, Note_on_c, 0, 54, 53
2, 74121, Note_on_c, 0, 54, 0
2, 74128, Note_on_c, 0, 50, 61
2, 74150, Note_on_c, 0, 50, 0
2, 74157, Note_on_c, 0, 54, 53
2, 74160, Note_on_c, 0, 50, 0
2, 74180, Note_on_c, 0, 54, 0
2, 74280, Note_on_c, 0, 62, 58
2, 74280, Note_on_c, 0, 55, 43
2, 74340, Note_on_c, 0, 55, 0
2, 74340, Note_on_c, 0, 51, 39
2, 74399, Note_on_c, 0, 51, 0
2, 74399, Note_on_c, 0, 62, 0
2, 74399, Note_on_c, 0, 54, 52
2, 74399, Note_on_c, 0, 50, 45
2, 74460, Note_on_c, 0, 54, 0
2, 74460, Note_on_c, 0, 50, 50
2, 74520, Note_on_c, 0, 50, 0
2, 74520, Note_on_c, 0, 50, 0
2, 74520, Note_on_c, 0, 38, 0
2, 74520, Note_on_c, 0, 47, 0
2, 74520, Note_on_c, 0, 59, 0
2, 74520, Note_on_c, 0, 54, 0
2, 74520, Note_on_c, 0, 50, 0
2, 74520, Note_on_c, 0, 57, 67
2, 74520, Note_on_c, 0, 50, 66
2, 74520, Note_on_c, 0, 54, 66
2, 74520, Note_on_c, 0, 45, 44
2, 74520, Note_on_c, 0, 38, 81
2, 74880, Note_on_c, 0, 45, 0
2, 74880, Note_on_c, 0, 57, 0
2, 74880, Note_on_c, 0, 59, 73
2, 74880, Note_on_c, 0, 47, 47
2, 75000, Note_on_c, 0, 62, 54
2, 75000, Note_on_c, 0, 55, 41
2, 75060, Note_on_c, 0, 55, 0
2, 75060, Note_on_c, 0, 51, 42
2, 75119, Note_on_c, 0, 51, 0
2, 75119, Note_on_c, 0, 62, 0
2, 75119, Note_on_c, 0, 50, 50
2, 75119, Note_on_c, 0, 54, 52
2, 75142, Note_on_c, 0, 54, 0
2, 75149, Note_on_c, 0, 50, 56
2, 75171, Note_on_c, 0, 50, 0
2, 75178, Note_on_c, 0, 54, 52
2, 75201, Note_on_c, 0, 54, 0
2, 75208, Note_on_c, 0, 50, 56
2, 75230, Note_on_c, 0, 50, 0
2, 75237, Note_on_c, 0, 54, 52
2, 75240, Note_on_c, 0, 50, 0
2, 75260, Note_on_c, 0, 54, 0
2, 75360, Note_on_c, 0, 62, 53
2, 75360, Note_on_c, 0, 55, 42
2, 75420, Note_on_c, 0, 55, 0
2, 75420, Note_on_c, 0, 51, 47
2, 75479, Note_on_c, 0, 51, 0
2, 75479, Note_on_c, 0, 62, 0
2, 75479, Note_on_c, 0, 50, 51
2, 75479, Note_on_c, 0, 54, 48
2, 75502, Note_on_c, 0, 54, 0
2, 75509, Note_on_c, 0, 50, 56
2, 75531, Note_on_c, 0, 50, 0
2, 75538, Note_on_c, 0, 54, 48
2, 75561, Note_on_c, 0, 54, 0
2, 75568, Note_on_c, 0, 50, 56
2, 75590, Note_on_c, 0, 50, 0
2, 75597, Note_on_c, 0, 54, 48
2, 75600, Note_on_c, 0, 54, 0
2, 75600, Note_on_c, 0, 50, 0
2, 75600, Note_on_c, 0, 38, 0
2, 75600, Note_on_c, 0, 47, 0
2, 75600, Note_on_c, 0, 59, 0
2, 75600, Note_on_c, 0, 50, 0
2, 75600, Note_on_c, 0, 57, 66
2, 75600, Note_on_c, 0, 50, 60
2, 75600, Note_on_c, 0, 54, 60
2, 75600, Note_on_c, 0, 45, 47
2, 75600, Note_on_c, 0, 38, 77
2, 75620, Note_on_c, 0, 54, 0
2, 75720, Note_on_c, 0, 62, 51
2, 75839, Note_on_c, 0, 62, 0
2, 75839, Note_on_c, 0, 50, 49
2, 75960, Note_on_c, 0, 50, 0
2, 75960, Note_on_c, 0, 57, 0
2, 75960, Note_on_c, 0, 45, 0
2, 75960, Note_on_c, 0, 59, 77
2, 75960, Note_on_c, 0, 47, 48
2, 76080, Note_on_c, 0, 62, 54
2, 76199, Note_on_c, 0, 62, 0
2, 76199, Note_on_c, 0, 50, 50
2, 76320, Note_on_c, 0, 59, 0
2, 76320, Note_on_c, 0, 50, 0
2, 76320, Note_on_c, 0, 47, 0
2, 76320, Note_on_c, 0, 60, 73
2, 76320, Note_on_c, 0, 48, 47
2, 76440, Note_on_c, 0, 62, 51
2, 76440, Note_on_c, 0, 50, 38
2, 76559, Note_on_c, 0, 62, 0
2, 76559, Note_on_c, 0, 50, 0
2, 76559, Note_on_c, 0, 50, 54
2, 76559, Note_on_c, 0, 49, 42
2, 76680, Note_on_c, 0, 49, 0
2, 76680, Note_on_c, 0, 38, 0
2, 76680, Note_on_c, 0, 50, 0
2, 76680, Note_on_c, 0, 60, 0
2, 76680, Note_on_c, 0, 54, 0
2, 76680, Note_on_c, 0, 50, 0
2, 76680, Note_on_c, 0, 48, 0
2, 76680, Note_on_c, 0, 62, 71
2, 76680, Note_on_c, 0, 55, 72
2, 76680, Note_on_c, 0, 60, 72
2, 76680, Note_on_c, 0, 48, 46
2, 76680, Note_on_c, 0, 36, 76
2, 76800, Note_on_c, 0, 48, 0
2, 76800, Note_on_c, 0, 43, 48
2, 76919, Note_on_c, 0, 43, 0
2, 76919, Note_on_c, 0, 50, 48
2, 77040, Note_on_c, 0, 50, 0
2, 77040, Note_on_c, 0, 62, 0
2, 77040, Note_on_c, 0, 63, 70
2, 77040, Note_on_c, 0, 48, 53
2, 77040, Note_on_c, 0, 51, 53
2, 77160, Note_on_c, 0, 51, 0
2, 77160, Note_on_c, 0, 48, 0
2, 77160, Note_on_c, 0, 50, 51
2, 77160, Note_on_c, 0, 53, 51
2, 77279, Note_on_c, 0, 53, 0
2, 77279, Note_on_c, 0, 50, 0
2, 77279, Note_on_c, 0, 51, 49
2, 77279, Note_on_c, 0, 55, 49
2, 77400, Note_on_c, 0, 51, 0
2, 77400, Note_on_c, 0, 63, 0
2, 77400, Note_on_c, 0, 62, 76
2, 77400, Note_on_c, 0, 65, 76
2, 77400, Note_on_c, 0, 55, 44
2, 77520, Note_on_c, 0, 55, 0
2, 77520, Note_on_c, 0, 60, 49
2, 77639, Note_on_c, 0, 62, 0
2, 77639, Note_on_c, 0, 65, 0
2, 77639, Note_on_c, 0, 60, 0
2, 77639, Note_on_c, 0, 60, 59
2, 77639, Note_on_c, 0, 62, 48
2, 77639, Note_on_c, 0, 65, 48
2, 77760, Note_on_c, 0, 65, 0
2, 77760, Note_on_c, 0, 60, 0
2, 77760, Note_on_c, 0, 60, 0
2, 77760, Note_on_c, 0, 55, 0
2, 77760, Note_on_c, 0, 36, 0
2, 77760, Note_on_c, 0, 62, 0
2, 77760, Note_on_c, 0, 55, 0
2, 77760, Note_on_c, 0, 67, 81
2, 77760, Note_on_c, 0, 55, 66
2, 77760, Note_on_c, 0, 58, 66
2, 77760, Note_on_c, 0, 63, 66
2, 77760, Note_on_c, 0, 39, 44
2, 77760, Note_on_c, 0, 46, 44
2, 77940, Note_on_c, 0, 46, 0
2, 77940, Note_on_c, 0, 39, 0
2, 77940, Note_on_c, 0, 58, 57
2, 78120, Note_on_c, 0, 58, 0
2, 78120, Note_on_c, 0, 62, 52
2, 78300, Note_on_c, 0, 62, 0
2, 78300, Note_on_c, 0, 58, 0
2, 78300, Note_on_c, 0, 67, 0
2, 78300, Note_on_c, 0, 55, 0
2, 78300, Note_on_c, 0, 63, 0
2, 78300, Note_on_c, 0, 68, 74
2, 78300, Note_on_c, 0, 63, 50
2, 78480, Note_on_c, 0, 63, 0
2, 78480, Note_on_c, 0, 58, 44
2, 78660, Note_on_c, 0, 58, 0
2, 78660, Note_on_c, 0, 62, 50
2, 78840, Note_on_c, 0, 62, 0
2, 78840, Note_on_c, 0, 68, 0
2, 78840, Note_on_c, 0, 69, 78
2, 78840, Note_on_c, 0, 63, 49
2, 79020, Note_on_c, 0, 63, 0
2, 79020, Note_on_c, 0, 58, 49
2, 79200, Note_on_c, 0, 58, 0
2, 79200, Note_on_c, 0, 62, 47
2, 79380, Note_on_c, 0, 62, 0
2, 79380, Note_on_c, 0, 69, 0
2, 79380, Note_on_c, 0, 67, 67
2, 79380, Note_on_c, 0, 70, 67
2, 79380, Note_on_c, 0, 63, 51
2, 79560, Note_on_c, 0, 63, 0
2, 79560, Note_on_c, 0, 58, 49
2, 79740, Note_on_c, 0, 58, 0
2, 79740, Note_on_c, 0, 62, 50
2, 79920, Note_on_c, 0, 62, 0
2, 79920, Note_on_c, 0, 70, 0
2, 79920, Note_on_c, 0, 67, 0
2, 79920, Note_on_c, 0, 71, 74
2, 79920, Note_on_c, 0, 66, 53
2, 79920, Note_on_c, 0, 63, 96
2, 80100, Note_on_c, 0, 63, 0
2, 80100, Note_on_c, 0, 58, 79
2, 80280, Note_on_c, 0, 58, 0
2, 80280, Note_on_c, 0, 62, 85
2, 80460, Note_on_c, 0, 62, 0
2, 80460, Note_on_c, 0, 71, 0
2, 80460, Note_on_c, 0, 87, 117
2, 80460, Note_on_c, 0, 69, 103
2, 80460, Note_on_c, 0, 63, 87
2, 80640, Note_on_c, 0, 63, 0
2, 80640, Note_on_c, 0, 58, 78
2, 80820, Note_on_c, 0, 58, 0
2, 80820, Note_on_c, 0, 87, 0
2, 80820, Note_on_c, 0, 86, 92
2, 80820, Note_on_c, 0, 62, 89
2, 80910, Note_on_c, 0, 86, 0
2, 80910, Note_on_c, 0, 85, 95
2, 81000, Note_on_c, 0, 85, 0
2, 81000, Note_on_c, 0, 62, 0
2, 81000, Note_on_c, 0, 69, 0
2, 81000, Note_on_c, 0, 66, 0
2, 81000, Note_on_c, 0, 84, 88
2, 81000, Note_on_c, 0, 79, 118
2, 81000, Note_on_c, 0, 67, 99
2, 81000, Note_on_c, 0, 70, 99
2, 81000, Note_on_c, 0, 63, 99
2, 81180, Note_on_c, 0, 63, 0
2, 81180, Note_on_c, 0, 58, 91
2, 81270, Note_on_c, 0, 79, 0
2, 81270, Note_on_c, 0, 78, 93
2, 81360, Note_on_c, 0, 78, 0
2, 81360, Note_on_c, 0, 58, 0
2, 81360, Note_on_c, 0, 77, 90
2, 81360, Note_on_c, 0, 62, 99
2, 81450, Note_on_c, 0, 77, 0
2, 81450, Note_on_c, 0, 76, 87
2, 81540, Note_on_c, 0, 76, 0
2, 81540, Note_on_c, 0, 62, 0
2, 81540, Note_on_c, 0, 70, 0
2, 81540, Note_on_c, 0, 67, 0
2, 81540, Note_on_c, 0, 84, 0
2, 81540, Note_on_c, 0, 81, 86
2, 81540, Note_on_c, 0, 75, 88
2, 81540, Note_on_c, 0, 66, 102
2, 81540, Note_on_c, 0, 71, 102
2, 81540, Note_on_c, 0, 63, 98
2, 81720, Note_on_c, 0, 63, 0
2, 81720, Note_on_c, 0, 58, 92
2, 81900, Note_on_c, 0, 58, 0
2, 81900, Note_on_c, 0, 75, 0
2, 81900, Note_on_c, 0, 81, 0
2, 81900, Note_on_c, 0, 74, 89
2, 81900, Note_on_c, 0, 62, 97
2, 81990, Note_on_c, 0, 74, 0
2, 81990, Note_on_c, 0, 73, 89
2, 82080, Note_on_c, 0, 73, 0
2, 82080, Note_on_c, 0, 62, 0
2, 82080, Note_on_c, 0, 71, 0
2, 82080, Note_on_c, 0, 87, 87
2, 82080, Note_on_c, 0, 72, 87
2, 82080, Note_on_c, 0, 69, 87
2, 82080, Note_on_c, 0, 63, 100
2, 82260, Note_on_c, 0, 63, 0
2, 82260, Note_on_c, 0, 58, 89
2, 82350, Note_on_c, 0, 87, 0
2, 82350, Note_on_c, 0, 86, 87
2, 82440, Note_on_c, 0, 86, 0
2, 82440, Note_on_c, 0, 58, 0
2, 82440, Note_on_c, 0, 72, 0
2, 82440, Note_on_c, 0, 86, 94
2, 82440, Note_on_c, 0, 62, 103
2, 82530, Note_on_c, 0, 86, 0
2, 82530, Note_on_c, 0, 85, 92
2, 82620, Note_on_c, 0, 85, 0
2, 82620, Note_on_c, 0, 62, 0
2, 82620, Note_on_c, 0, 66, 0
2, 82620, Note_on_c, 0, 69, 0
2, 82620, Note_on_c, 0, 84, 92
2, 82620, Note_on_c, 0, 79, 84
2, 82620, Note_on_c, 0, 67, 95
2, 82620, Note_on_c, 0, 70, 95
2, 82620, Note_on_c, 0, 63, 100
2, 82800, Note_on_c, 0, 63, 0
2, 82800, Note_on_c, 0, 58, 90
2, 82890, Note_on_c, 0, 79, 0
2, 82890, Note_on_c, 0, 78, 86
2, 82980, Note_on_c, 0, 78, 0
2, 82980, Note_on_c, 0, 58, 0
2, 82980, Note_on_c, 0, 77, 90
2, 82980, Note_on_c, 0, 62, 102
2, 83070, Note_on_c, 0, 77, 0
2, 83070, Note_on_c, 0, 76, 87
2, 83160, Note_on_c, 0, 76, 0
2, 83160, Note_on_c, 0, 62, 0
2, 83160, Note_on_c, 0, 70, 0
2, 83160, Note_on_c, 0, 67, 0
2, 83160, Note_on_c, 0, 84, 0
2, 83160, Note_on_c, 0, 81, 86
2, 83160, Note_on_c, 0, 75, 86
2, 83160, Note_on_c, 0, 66, 97
2, 83160, Note_on_c, 0, 71, 97
2, 83160, Note_on_c, 0, 63, 102
2, 83340, Note_on_c, 0, 63, 0
2, 83340, Note_on_c, 0, 58, 86
2, 83520, Note_on_c, 0, 58, 0
2, 83520, Note_on_c, 0, 75, 0
2, 83520, Note_on_c, 0, 81, 0
2, 83520, Note_on_c, 0, 74, 84
2, 83520, Note_on_c, 0, 62, 101
2, 83610, Note_on_c, 0, 74, 0
2, 83610, Note_on_c, 0, 73, 89
2, 83700, Note_on_c, 0, 73, 0
2, 83700, Note_on_c, 0, 62, 0
2, 83700, Note_on_c, 0, 71, 0
2, 83700, Note_on_c, 0, 78, 87
2, 83700, Note_on_c, 0, 72, 87
2, 83700, Note_on_c, 0, 69, 89
2, 83700, Note_on_c, 0, 63, 96
2, 83880, Note_on_c, 0, 63, 0
2, 83880, Note_on_c, 0, 58, 90
2, 84060, Note_on_c, 0, 58, 0
2, 84060, Note_on_c, 0, 72, 0
2, 84060, Note_on_c, 0, 78, 0
2, 84060, Note_on_c, 0, 77, 89
2, 84060, Note_on_c, 0, 62, 100
2, 84150, Note_on_c, 0, 77, 0
2, 84150, Note_on_c, 0, 76, 88
2, 84240, Note_on_c, 0, 76, 0
2, 84240, Note_on_c, 0, 62, 0
2, 84240, Note_on_c, 0, 66, 0
2, 84240, Note_on_c, 0, 69, 0
2, 84240, Note_on_c, 0, 63, 79
2, 84240, Note_on_c, 0, 67, 79
2, 84240, Note_on_c, 0, 70, 79
2, 84240, Note_on_c, 0, 75, 82
2, 84240, Note_on_c, 0, 51, 79
2, 84240, Note_on_c, 0, 55, 79
2, 84240, Note_on_c, 0, 61, 79
2, 84240, Note_on_c, 0, 58, 64
2, 84375, Note_on_c, 0, 58, 0
2, 84375, Note_on_c, 0, 57, 70
2, 84510, Note_on_c, 0, 57, 0
2, 84510, Note_on_c, 0, 58, 74
2, 84600, Note_on_c, 0, 75, 0
2, 84645, Note_on_c, 0, 58, 0
2, 84645, Note_on_c, 0, 55, 69
2, 84780, Note_on_c, 0, 55, 0
2, 84780, Note_on_c, 0, 33, 87
2, 84780, Note_on_c, 0, 39, 87
2, 84780, Note_on_c, 0, 45, 87
2, 84780, Note_on_c, 0, 58, 76
2, 84915, Note_on_c, 0, 58, 0
2, 84915, Note_on_c, 0, 53, 71
2, 85050, Note_on_c, 0, 53, 0
2, 85050, Note_on_c, 0, 58, 72
2, 85185, Note_on_c, 0, 58, 0
2, 85185, Note_on_c, 0, 51, 70
2, 85320, Note_on_c, 0, 51, 0
2, 85320, Note_on_c, 0, 70, 0
2, 85320, Note_on_c, 0, 61, 0
2, 85320, Note_on_c, 0, 51, 0
2, 85320, Note_on_c, 0, 63, 0
2, 85320, Note_on_c, 0, 67, 0
2, 85320, Note_on_c, 0, 55, 0
2, 85320, Note_on_c, 0, 66, 104
2, 85320, Note_on_c, 0, 75, 104
2, 85320, Note_on_c, 0, 63, 71
2, 85320, Note_on_c, 0, 50, 80
2, 85320, Note_on_c, 0, 54, 80
2, 85320, Note_on_c, 0, 58, 86
2, 85320, Note_on_c, 0, 60, 86
2, 85455, Note_on_c, 0, 60, 0
2, 85455, Note_on_c, 0, 58, 0
2, 85455, Note_on_c, 0, 50, 62
2, 85590, Note_on_c, 0, 50, 0
2, 85590, Note_on_c, 0, 58, 79
2, 85725, Note_on_c, 0, 58, 0
2, 85725, Note_on_c, 0, 57, 72
2, 85860, Note_on_c, 0, 57, 0
2, 85860, Note_on_c, 0, 50, 0
2, 85860, Note_on_c, 0, 33, 0
2, 85860, Note_on_c, 0, 75, 0
2, 85860, Note_on_c, 0, 39, 0
2, 85860, Note_on_c, 0, 45, 0
2, 85860, Note_on_c, 0, 54, 0
2, 85860, Note_on_c, 0, 63, 0
2, 85860, Note_on_c, 0, 66, 0
2, 85860, Note_on_c, 0, 63, 82
2, 85860, Note_on_c, 0, 67, 82
2, 85860, Note_on_c, 0, 70, 82
2, 85860, Note_on_c, 0, 51, 108
2, 85860, Note_on_c, 0, 55, 108
2, 85860, Note_on_c, 0, 61, 108
2, 85860, Note_on_c, 0, 58, 72
2, 85995, Note_on_c, 0, 58, 0
2, 85995, Note_on_c, 0, 57, 70
2, 86130, Note_on_c, 0, 57, 0
2, 86130, Note_on_c, 0, 58, 75
2, 86265, Note_on_c, 0, 58, 0
2, 86265, Note_on_c, 0, 55, 68
2, 86400, Note_on_c, 0, 55, 0
2, 86400, Note_on_c, 0, 33, 79
2, 86400, Note_on_c, 0, 39, 79
2, 86400, Note_on_c, 0, 45, 79
2, 86400, Note_on_c, 0, 58, 75
2, 86535, Note_on_c, 0, 58, 0
2, 86535, Note_on_c, 0, 53, 70
2, 86670, Note_on_c, 0, 53, 0
2, 86670, Note_on_c, 0, 58, 74
2, 86805, Note_on_c, 0, 58, 0
2, 86805, Note_on_c, 0, 51, 60
2, 86940, Note_on_c, 0, 51, 0
2, 86940, Note_on_c, 0, 70, 0
2, 86940, Note_on_c, 0, 61, 0
2, 86940, Note_on_c, 0, 63, 0
2, 86940, Note_on_c, 0, 51, 0
2, 86940, Note_on_c, 0, 67, 0
2, 86940, Note_on_c, 0, 55, 0
2, 86940, Note_on_c, 0, 66, 98
2, 86940, Note_on_c, 0, 75, 98
2, 86940, Note_on_c, 0, 63, 91
2, 86940, Note_on_c, 0, 50, 90
2, 86940, Note_on_c, 0, 54, 90
2, 86940, Note_on_c, 0, 58, 83
2, 86940, Note_on_c, 0, 60, 83
2, 87075, Note_on_c, 0, 60, 0
2, 87075, Note_on_c, 0, 58, 0
2, 87075, Note_on_c, 0, 50, 67
2, 87210, Note_on_c, 0, 50, 0
2, 87210, Note_on_c, 0, 58, 72
2, 87345, Note_on_c, 0, 58, 0
2, 87345, Note_on_c, 0, 57, 70
2, 87480, Note_on_c, 0, 57, 0
2, 87480, Note_on_c, 0, 50, 0
2, 87480, Note_on_c, 0, 33, 0
2, 87480, Note_on_c, 0, 75, 0
2, 87480, Note_on_c, 0, 39, 0
2, 87480, Note_on_c, 0, 45, 0
2, 87480, Note_on_c, 0, 54, 0
2, 87480, Note_on_c, 0, 63, 0
2, 87480, Note_on_c, 0, 66, 0
2, 87480, Note_on_c, 0, 63, 85
2, 87480, Note_on_c, 0, 67, 85
2, 87480, Note_on_c, 0, 70, 85
2, 87480, Note_on_c, 0, 51, 109
2, 87480, Note_on_c, 0, 55, 109
2, 87480, Note_on_c, 0, 61, 109
2, 87480, Note_on_c, 0, 58, 68
2, 87615, Note_on_c, 0, 58, 0
2, 87615, Note_on_c, 0, 57, 69
2, 87750, Note_on_c, 0, 57, 0
2, 87750, Note_on_c, 0, 58, 67
2, 87885, Note_on_c, 0, 58, 0
2, 87885, Note_on_c, 0, 55, 68
2, 88020, Note_on_c, 0, 55, 0
2, 88020, Note_on_c, 0, 33, 83
2, 88020, Note_on_c, 0, 39, 83
2, 88020, Note_on_c, 0, 45, 83
2, 88020, Note_on_c, 0, 58, 77
2, 88155, Note_on_c, 0, 58, 0
2, 88155, Note_on_c, 0, 53, 68
2, 88290, Note_on_c, 0, 53, 0
2, 88290, Note_on_c, 0, 58, 71
2, 88425, Note_on_c, 0, 58, 0
2, 88425, Note_on_c, 0, 51, 67
2, 88560, Note_on_c, 0, 51, 0
2, 88560, Note_on_c, 0, 58, 70
2, 88695, Note_on_c, 0, 58, 0
2, 88695, Note_on_c, 0, 57, 67
2, 88830, Note_on_c, 0, 57, 0
2, 88830, Note_on_c, 0, 58, 64
2, 88920, Note_on_c, 0, 34, 37
2, 88965, Note_on_c, 0, 58, 0
2, 88965, Note_on_c, 0, 55, 61
2, 89100, Note_on_c, 0, 55, 0
2, 89100, Note_on_c, 0, 51, 0
2, 89100, Note_on_c, 0, 45, 0
2, 89100, Note_on_c, 0, 39, 0
2, 89100, Note_on_c, 0, 61, 0
2, 89100, Note_on_c, 0, 55, 0
2, 89100, Note_on_c, 0, 34, 0
2, 89100, Note_on_c, 0, 33, 0
2, 89100, Note_on_c, 0, 58, 65
2, 89100, Note_on_c, 0, 38, 68
2, 89190, Note_on_c, 0, 58, 0
2, 89190, Note_on_c, 0, 53, 66
2, 89280, Note_on_c, 0, 53, 0
2, 89280, Note_on_c, 0, 38, 0
2, 89280, Note_on_c, 0, 58, 74
2, 89280, Note_on_c, 0, 39, 78
2, 89370, Note_on_c, 0, 58, 0
2, 89370, Note_on_c, 0, 51, 65
2, 89460, Note_on_c, 0, 51, 0
2, 89460, Note_on_c, 0, 39, 0
2, 89460, Note_on_c, 0, 58, 71
2, 89460, Note_on_c, 0, 34, 73
2, 89640, Note_on_c, 0, 34, 0
2, 89640, Note_on_c, 0, 38, 85
2, 89820, Note_on_c, 0, 38, 0
2, 89820, Note_on_c, 0, 39, 84
2, 90000, Note_on_c, 0, 39, 0
2, 90000, Note_on_c, 0, 58, 0
2, 90000, Note_on_c, 0, 34, 77
2, 90180, Note_on_c, 0, 34, 0
2, 90180, Note_on_c, 0, 70, 0
2, 90180, Note_on_c, 0, 63, 0
2, 90180, Note_on_c, 0, 67, 0
2, 90180, Note_on_c, 0, 57, 84
2, 90180, Note_on_c, 0, 50, 64
2, 90180, Note_on_c, 0, 54, 64
2, 90180, Note_on_c, 0, 45, 87
2, 90180, Note_on_c, 0, 38, 71
2, 90540, Note_on_c, 0, 45, 0
2, 90540, Note_on_c, 0, 57, 0
2, 90540, Note_on_c, 0, 59, 99
2, 90540, Note_on_c, 0, 47, 86
2, 90660, Note_on_c, 0, 62, 53
2, 90660, Note_on_c, 0, 55, 54
2, 90720, Note_on_c, 0, 55, 0
2, 90720, Note_on_c, 0, 51, 51
2, 90779, Note_on_c, 0, 51, 0
2, 90779, Note_on_c, 0, 62, 0
2, 90779, Note_on_c, 0, 50, 57
2, 90779, Note_on_c, 0, 54, 64
2, 90802, Note_on_c, 0, 54, 0
2, 90809, Note_on_c, 0, 50, 68
2, 90831, Note_on_c, 0, 50, 0
2, 90838, Note_on_c, 0, 54, 64
2, 90861, Note_on_c, 0, 54, 0
2, 90868, Note_on_c, 0, 50, 68
2, 90890, Note_on_c, 0, 50, 0
2, 90897, Note_on_c, 0, 54, 64
2, 90900, Note_on_c, 0, 50, 0
2, 90920, Note_on_c, 0, 54, 0
2, 91020, Note_on_c, 0, 62, 53
2, 91020, Note_on_c, 0, 55, 53
2, 91080, Note_on_c, 0, 55, 0
2, 91080, Note_on_c, 0, 51, 55
2, 91139, Note_on_c, 0, 51, 0
2, 91139, Note_on_c, 0, 62, 0
2, 91139, Note_on_c, 0, 54, 61
2, 91139, Note_on_c, 0, 50, 46
2, 91200, Note_on_c, 0, 54, 0
2, 91200, Note_on_c, 0, 50, 63
2, 91260, Note_on_c, 0, 50, 0
2, 91260, Note_on_c, 0, 50, 0
2, 91260, Note_on_c, 0, 38, 0
2, 91260, Note_on_c, 0, 47, 0
2, 91260, Note_on_c, 0, 59, 0
2, 91260, Note_on_c, 0, 54, 0
2, 91260, Note_on_c, 0, 50, 0
2, 91260, Note_on_c, 0, 57, 86
2, 91260, Note_on_c, 0, 50, 74
2, 91260, Note_on_c, 0, 54, 74
2, 91260, Note_on_c, 0, 45, 78
2, 91260, Note_on_c, 0, 38, 82
2, 91620, Note_on_c, 0, 45, 0
2, 91620, Note_on_c, 0, 57, 0
2, 91620, Note_on_c, 0, 59, 94
2, 91620, Note_on_c, 0, 47, 82
2, 91740, Note_on_c, 0, 62, 55
2, 91740, Note_on_c, 0, 55, 52
2, 91800, Note_on_c, 0, 55, 0
2, 91800, Note_on_c, 0, 51, 56
2, 91859, Note_on_c, 0, 51, 0
2, 91859, Note_on_c, 0, 62, 0
2, 91859, Note_on_c, 0, 50, 51
2, 91859, Note_on_c, 0, 54, 66
2, 91882, Note_on_c, 0, 54, 0
2, 91889, Note_on_c, 0, 50, 64
2, 91911, Note_on_c, 0, 50, 0
2, 91918, Note_on_c, 0, 54, 66
2, 91941, Note_on_c, 0, 54, 0
2, 91948, Note_on_c, 0, 50, 64
2, 91970, Note_on_c, 0, 50, 0
2, 91977, Note_on_c, 0, 54, 66
2, 91980, Note_on_c, 0, 50, 0
2, 92000, Note_on_c, 0, 54, 0
2, 92100, Note_on_c, 0, 62, 54
2, 92100, Note_on_c, 0, 55, 49
2, 92160, Note_on_c, 0, 55, 0
2, 92160, Note_on_c, 0, 51, 57
2, 92219, Note_on_c, 0, 51, 0
2, 92219, Note_on_c, 0, 62, 0
2, 92219, Note_on_c, 0, 50, 51
2, 92219, Note_on_c, 0, 54, 65
2, 92242, Note_on_c, 0, 54, 0
2, 92249, Note_on_c, 0, 50, 64
2, 92271, Note_on_c, 0, 50, 0
2, 92278, Note_on_c, 0, 54, 65
2, 92301, Note_on_c, 0, 54, 0
2, 92308, Note_on_c, 0, 50, 64
2, 92330, Note_on_c, 0, 50, 0
2, 92337, Note_on_c, 0, 54, 65
2, 92340, Note_on_c, 0, 54, 0
2, 92340, Note_on_c, 0, 50, 0
2, 92340, Note_on_c, 0, 38, 0
2, 92340, Note_on_c, 0, 47, 0
2, 92340, Note_on_c, 0, 59, 0
2, 92340, Note_on_c, 0, 50, 0
2, 92340, Note_on_c, 0, 57, 88
2, 92340, Note_on_c, 0, 54, 70
2, 92340, Note_on_c, 0, 50, 83
2, 92340, Note_on_c, 0, 38, 78
2, 92340, Note_on_c, 0, 45, 57
2, 92360, Note_on_c, 0, 54, 0
2, 92700, Note_on_c, 0, 57, 0
2, 92700, Note_on_c, 0, 45, 0
2, 92700, Note_on_c, 0, 59, 101
2, 92700, Note_on_c, 0, 47, 59
2, 93060, Note_on_c, 0, 47, 0
2, 93060, Note_on_c, 0, 59, 0
2, 93060, Note_on_c, 0, 60, 100
2, 93060, Note_on_c, 0, 48, 65
2, 93180, Note_on_c, 0, 50, 65
2, 93299, Note_on_c, 0, 50, 0
2, 93299, Note_on_c, 0, 49, 69
2, 93420, Note_on_c, 0, 49, 0
2, 93420, Note_on_c, 0, 50, 0
2, 93420, Note_on_c, 0, 60, 0
2, 93420, Note_on_c, 0, 54, 0
2, 93420, Note_on_c, 0, 38, 0
2, 93420, Note_on_c, 0, 48, 0
2, 93420, Note_on_c, 0, 50, 102
2, 93420, Note_on_c, 0, 62, 102
2, 93420, Note_on_c, 0, 56, 80
2, 93420, Note_on_c, 0, 60, 80
2, 93420, Note_on_c, 0, 48, 80
2, 93420, Note_on_c, 0, 41, 81
2, 93540, Note_on_c, 0, 48, 0
2, 93540, Note_on_c, 0, 41, 76
2, 93659, Note_on_c, 0, 41, 0
2, 93659, Note_on_c, 0, 48, 89
2, 93780, Note_on_c, 0, 48, 0
2, 93780, Note_on_c, 0, 62, 0
2, 93780, Note_on_c, 0, 56, 0
2, 93780, Note_on_c, 0, 50, 0
2, 93780, Note_on_c, 0, 60, 0
2, 93780, Note_on_c, 0, 60, 97
2, 93780, Note_on_c, 0, 63, 97
2, 93780, Note_on_c, 0, 53, 85
2, 93780, Note_on_c, 0, 53, 34
2, 93900, Note_on_c, 0, 53, 0
2, 93900, Note_on_c, 0, 55, 87
2, 94019, Note_on_c, 0, 55, 0
2, 94019, Note_on_c, 0, 53, 0
2, 94019, Note_on_c, 0, 56, 82
2, 94019, Note_on_c, 0, 48, 72
2, 94140, Note_on_c, 0, 48, 0
2, 94140, Note_on_c, 0, 53, 76
2, 94260, Note_on_c, 0, 53, 0
2, 94260, Note_on_c, 0, 56, 0
2, 94260, Note_on_c, 0, 58, 84
2, 94260, Note_on_c, 0, 55, 72
2, 94320, Note_on_c, 0, 63, 0
2, 94320, Note_on_c, 0, 60, 0
2, 94320, Note_on_c, 0, 65, 97
2, 94379, Note_on_c, 0, 55, 0
2, 94379, Note_on_c, 0, 58, 0
2, 94379, Note_on_c, 0, 60, 82
2, 94379, Note_on_c, 0, 56, 72
2, 94500, Note_on_c, 0, 56, 0
2, 94500, Note_on_c, 0, 65, 0
2, 94500, Note_on_c, 0, 41, 0
2, 94500, Note_on_c, 0, 60, 0
2, 94500, Note_on_c, 0, 55, 79
2, 94500, Note_on_c, 0, 58, 79
2, 94500, Note_on_c, 0, 62, 79
2, 94500, Note_on_c, 0, 67, 84
2, 94500, Note_on_c, 0, 43, 77
2, 94500, Note_on_c, 0, 50, 77
2, 94680, Note_on_c, 0, 62, 65
2, 94860, Note_on_c, 0, 62, 0
2, 94860, Note_on_c, 0, 66, 77
2, 95040, Note_on_c, 0, 66, 0
2, 95040, Note_on_c, 0, 70, 88
2, 95040, Note_on_c, 0, 67, 72
2, 95040, Note_on_c, 0, 67, 89
2, 95220, Note_on_c, 0, 62, 73
2, 95400, Note_on_c, 0, 62, 0
2, 95400, Note_on_c, 0, 66, 84
2, 95580, Note_on_c, 0, 66, 0
2, 95580, Note_on_c, 0, 67, 0
2, 95580, Note_on_c, 0, 67, 0
2, 95580, Note_on_c, 0, 43, 0
2, 95580, Note_on_c, 0, 50, 0
2, 95580, Note_on_c, 0, 58, 0
2, 95580, Note_on_c, 0, 62, 0
2, 95580, Note_on_c, 0, 55, 0
2, 95580, Note_on_c, 0, 70, 0
2, 95580, Note_on_c, 0, 72, 97
2, 95580, Note_on_c, 0, 69, 73
2, 95580, Note_on_c, 0, 67, 83
2, 95760, Note_on_c, 0, 67, 0
2, 95760, Note_on_c, 0, 62, 75
2, 95940, Note_on_c, 0, 62, 0
2, 95940, Note_on_c, 0, 66, 89
2, 96120, Note_on_c, 0, 66, 0
2, 96120, Note_on_c, 0, 72, 0
2, 96120, Note_on_c, 0, 69, 0
2, 96120, Note_on_c, 0, 67, 0
2, 96120, Note_on_c, 0, 73, 86
2, 96120, Note_on_c, 0, 67, 96
2, 96120, Note_on_c, 0, 70, 96
2, 96300, Note_on_c, 0, 62, 73
2, 96480, Note_on_c, 0, 62, 0
2, 96480, Note_on_c, 0, 66, 88
2, 96660, Note_on_c, 0, 66, 0
2, 96660, Note_on_c, 0, 73, 0
2, 96660, Note_on_c, 0, 79, 86
2, 96660, Note_on_c, 0, 74, 74
2, 96660, Note_on_c, 0, 67, 89
2, 96840, Note_on_c, 0, 67, 0
2, 96840, Note_on_c, 0, 62, 70
2, 97020, Note_on_c, 0, 62, 0
2, 97020, Note_on_c, 0, 66, 87
2, 97200, Note_on_c, 0, 66, 0
2, 97200, Note_on_c, 0, 74, 0
2, 97200, Note_on_c, 0, 70, 0
2, 97200, Note_on_c, 0, 67, 0
2, 97200, Note_on_c, 0, 67, 63
2, 97200, Note_on_c, 0, 70, 63
2, 97200, Note_on_c, 0, 67, 79
2, 97200, Note_on_c, 0, 57, 75
2, 97380, Note_on_c, 0, 67, 0
2, 97380, Note_on_c, 0, 61, 72
2, 97560, Note_on_c, 0, 61, 0
2, 97560, Note_on_c, 0, 57, 0
2, 97560, Note_on_c, 0, 79, 0
2, 97560, Note_on_c, 0, 78, 88
2, 97560, Note_on_c, 0, 66, 87
2, 97560, Note_on_c, 0, 58, 81
2, 97650, Note_on_c, 0, 78, 0
2, 97650, Note_on_c, 0, 77, 92
2, 97740, Note_on_c, 0, 77, 0
2, 97740, Note_on_c, 0, 58, 0
2, 97740, Note_on_c, 0, 67, 0
2, 97740, Note_on_c, 0, 70, 0
2, 97740, Note_on_c, 0, 66, 0
2, 97740, Note_on_c, 0, 76, 89
2, 97740, Note_on_c, 0, 67, 72
2, 97740, Note_on_c, 0, 70, 72
2, 97740, Note_on_c, 0, 67, 86
2, 97740, Note_on_c, 0, 62, 94
2, 97920, Note_on_c, 0, 67, 0
2, 97920, Note_on_c, 0, 62, 69
2, 98100, Note_on_c, 0, 76, 0
2, 98100, Note_on_c, 0, 62, 0
2, 98100, Note_on_c, 0, 75, 83
2, 98100, Note_on_c, 0, 66, 86
2, 98190, Note_on_c, 0, 75, 0
2, 98190, Note_on_c, 0, 74, 91
2, 98280, Note_on_c, 0, 74, 0
2, 98280, Note_on_c, 0, 66, 0
2, 98280, Note_on_c, 0, 62, 0
2, 98280, Note_on_c, 0, 73, 91
2, 98280, Note_on_c, 0, 67, 90
2, 98280, Note_on_c, 0, 55, 72
2, 98460, Note_on_c, 0, 67, 0
2, 98460, Note_on_c, 0, 62, 68
2, 98640, Note_on_c, 0, 62, 0
2, 98640, Note_on_c, 0, 73, 0
2, 98640, Note_on_c, 0, 72, 86
2, 98640, Note_on_c, 0, 66, 92
2, 98730, Note_on_c, 0, 72, 0
2, 98730, Note_on_c, 0, 71, 89
2, 98820, Note_on_c, 0, 71, 0
2, 98820, Note_on_c, 0, 66, 0
2, 98820, Note_on_c, 0, 67, 0
2, 98820, Note_on_c, 0, 70, 0
2, 98820, Note_on_c, 0, 86, 113
2, 98820, Note_on_c, 0, 70, 67
2, 98820, Note_on_c, 0, 67, 81
2, 99000, Note_on_c, 0, 67, 0
2, 99000, Note_on_c, 0, 62, 70
2, 99180, Note_on_c, 0, 62, 0
2, 99180, Note_on_c, 0, 86, 0
2, 99180, Note_on_c, 0, 55, 0
2, 99180, Note_on_c, 0, 84, 93
2, 99180, Note_on_c, 0, 63, 82
2, 99180, Note_on_c, 0, 58, 86
2, 99270, Note_on_c, 0, 84, 0
2, 99270, Note_on_c, 0, 83, 86
2, 99360, Note_on_c, 0, 83, 0
2, 99360, Note_on_c, 0, 58, 0
2, 99360, Note_on_c, 0, 63, 0
2, 99360, Note_on_c, 0, 70, 0
2, 99360, Note_on_c, 0, 82, 92
2, 99360, Note_on_c, 0, 79, 83
2, 99360, Note_on_c, 0, 67, 91
2, 99360, Note_on_c, 0, 62, 91
2, 99360, Note_on_c, 0, 70, 79
2, 99540, Note_on_c, 0, 67, 0
2, 99540, Note_on_c, 0, 62, 75
2, 99630, Note_on_c, 0, 79, 0
2, 99630, Note_on_c, 0, 78, 65
2, 99720, Note_on_c, 0, 78, 0
2, 99720, Note_on_c, 0, 62, 0
2, 99720, Note_on_c, 0, 62, 0
2, 99720, Note_on_c, 0, 77, 67
2, 99720, Note_on_c, 0, 63, 84
2, 99720, Note_on_c, 0, 63, 85
2, 99810, Note_on_c, 0, 77, 0
2, 99810, Note_on_c, 0, 76, 64
2, 99900, Note_on_c, 0, 76, 0
2, 99900, Note_on_c, 0, 63, 0
2, 99900, Note_on_c, 0, 82, 0
2, 99900, Note_on_c, 0, 70, 0
2, 99900, Note_on_c, 0, 63, 0
2, 99900, Note_on_c, 0, 79, 80
2, 99900, Note_on_c, 0, 75, 70
2, 99900, Note_on_c, 0, 67, 87
2, 99900, Note_on_c, 0, 67, 86
2, 99900, Note_on_c, 0, 71, 75
2, 100080, Note_on_c, 0, 67, 0
2, 100080, Note_on_c, 0, 62, 72
2, 100260, Note_on_c, 0, 62, 0
2, 100260, Note_on_c, 0, 79, 0
2, 100260, Note_on_c, 0, 75, 0
2, 100260, Note_on_c, 0, 74, 66
2, 100260, Note_on_c, 0, 63, 84
2, 100350, Note_on_c, 0, 74, 0
2, 100350, Note_on_c, 0, 73, 64
2, 100440, Note_on_c, 0, 73, 0
2, 100440, Note_on_c, 0, 63, 0
2, 100440, Note_on_c, 0, 67, 0
2, 100440, Note_on_c, 0, 71, 0
2, 100440, Note_on_c, 0, 86, 89
2, 100440, Note_on_c, 0, 72, 72
2, 100440, Note_on_c, 0, 66, 87
2, 100440, Note_on_c, 0, 58, 79
2, 100440, Note_on_c, 0, 69, 67
2, 100620, Note_on_c, 0, 66, 0
2, 100620, Note_on_c, 0, 62, 73
2, 100800, Note_on_c, 0, 62, 0
2, 100800, Note_on_c, 0, 86, 0
2, 100800, Note_on_c, 0, 72, 0
2, 100800, Note_on_c, 0, 84, 84
2, 100800, Note_on_c, 0, 63, 77
2, 100890, Note_on_c, 0, 84, 0
2, 100890, Note_on_c, 0, 83, 87
2, 100980, Note_on_c, 0, 83, 0
2, 100980, Note_on_c, 0, 63, 0
2, 100980, Note_on_c, 0, 69, 0
2, 100980, Note_on_c, 0, 82, 84
2, 100980, Note_on_c, 0, 79, 64
2, 100980, Note_on_c, 0, 67, 86
2, 100980, Note_on_c, 0, 67, 68
2, 100980, Note_on_c, 0, 70, 68
2, 101160, Note_on_c, 0, 67, 0
2, 101160, Note_on_c, 0, 62, 73
2, 101250, Note_on_c, 0, 79, 0
2, 101250, Note_on_c, 0, 78, 69
2, 101340, Note_on_c, 0, 78, 0
2, 101340, Note_on_c, 0, 62, 0
2, 101340, Note_on_c, 0, 77, 66
2, 101340, Note_on_c, 0, 63, 83
2, 101430, Note_on_c, 0, 77, 0
2, 101430, Note_on_c, 0, 76, 67
2, 101520, Note_on_c, 0, 76, 0
2, 101520, Note_on_c, 0, 63, 0
2, 101520, Note_on_c, 0, 82, 0
2, 101520, Note_on_c, 0, 58, 0
2, 101520, Note_on_c, 0, 70, 0
2, 101520, Note_on_c, 0, 67, 0
2, 101520, Note_on_c, 0, 79, 80
2, 101520, Note_on_c, 0, 75, 66
2, 101520, Note_on_c, 0, 67, 87
2, 101520, Note_on_c, 0, 63, 95
2, 101520, Note_on_c, 0, 67, 95
2, 101520, Note_on_c, 0, 71, 75
2, 101700, Note_on_c, 0, 67, 0
2, 101700, Note_on_c, 0, 62, 68
2, 101880, Note_on_c, 0, 62, 0
2, 101880, Note_on_c, 0, 75, 0
2, 101880, Note_on_c, 0, 79, 0
2, 101880, Note_on_c, 0, 74, 69
2, 101880, Note_on_c, 0, 63, 80
2, 101970, Note_on_c, 0, 74, 0
2, 101970, Note_on_c, 0, 73, 70
2, 102060, Note_on_c, 0, 73, 0
2, 102060, Note_on_c, 0, 63, 0
2, 102060, Note_on_c, 0, 71, 0
2, 102060, Note_on_c, 0, 67, 0
2, 102060, Note_on_c, 0, 63, 0
2, 102060, Note_on_c, 0, 78, 87
2, 102060, Note_on_c, 0, 72, 65
2, 102060, Note_on_c, 0, 66, 83
2, 102060, Note_on_c, 0, 62, 76
2, 102060, Note_on_c, 0, 66, 65
2, 102150, Note_on_c, 0, 72, 0
2, 102150, Note_on_c, 0, 71, 66
2, 102240, Note_on_c, 0, 71, 0
2, 102240, Note_on_c, 0, 66, 0
2, 102240, Note_on_c, 0, 70, 71
2, 102240, Note_on_c, 0, 62, 72
2, 102330, Note_on_c, 0, 70, 0
2, 102330, Note_on_c, 0, 71, 74
2, 102420, Note_on_c, 0, 71, 0
2, 102420, Note_on_c, 0, 62, 0
2, 102420, Note_on_c, 0, 72, 77
2, 102420, Note_on_c, 0, 63, 85
2, 102510, Note_on_c, 0, 72, 0
2, 102510, Note_on_c, 0, 74, 73
2, 102600, Note_on_c, 0, 74, 0
2, 102600, Note_on_c, 0, 63, 0
2, 102600, Note_on_c, 0, 62, 0
2, 102600, Note_on_c, 0, 66, 0
2, 102600, Note_on_c, 0, 73, 60
2, 102600, Note_on_c, 0, 58, 60
2, 102600, Note_on_c, 0, 61, 60
2, 102600, Note_on_c, 0, 66, 60
2, 102600, Note_on_c, 0, 61, 60
2, 102600, Note_on_c, 0, 66, 60
2, 102635, Note_on_c, 0, 66, 0
2, 102645, Note_on_c, 0, 58, 60
2, 102680, Note_on_c, 0, 58, 0
2, 102690, Note_on_c, 0, 66, 60
2, 102725, Note_on_c, 0, 66, 0
2, 102735, Note_on_c, 0, 58, 59
2, 102770, Note_on_c, 0, 58, 0
2, 102780, Note_on_c, 0, 61, 0
2, 102780, Note_on_c, 0, 66, 59
2, 102815, Note_on_c, 0, 66, 0
2, 102825, Note_on_c, 0, 58, 59
2, 102860, Note_on_c, 0, 58, 0
2, 102870, Note_on_c, 0, 66, 58
2, 102905, Note_on_c, 0, 66, 0
2, 102915, Note_on_c, 0, 58, 58
2, 102950, Note_on_c, 0, 58, 0
2, 102960, Note_on_c, 0, 73, 0
2, 102960, Note_on_c, 0, 66, 57
2, 102995, Note_on_c, 0, 66, 0
2, 103005, Note_on_c, 0, 58, 57
2, 103040, Note_on_c, 0, 58, 0
2, 103050, Note_on_c, 0, 66, 57
2, 103085, Note_on_c, 0, 66, 0
2, 103095, Note_on_c, 0, 58, 56
2, 103130, Note_on_c, 0, 58, 0
2, 103140, Note_on_c, 0, 66, 0
2, 103140, Note_on_c, 0, 58, 0
2, 103140, Note_on_c, 0, 61, 0
2, 103140, Note_on_c, 0, 62, 56
2, 103140, Note_on_c, 0, 66, 56
2, 103175, Note_on_c, 0, 66, 0
2, 103175, Note_on_c, 0, 62, 0
2, 103185, Note_on_c, 0, 58, 56
2, 103220, Note_on_c, 0, 58, 0
2, 103230, Note_on_c, 0, 62, 55
2, 103230, Note_on_c, 0, 66, 55
2, 103265, Note_on_c, 0, 66, 0
2, 103265, Note_on_c, 0, 62, 0
2, 103275, Note_on_c, 0, 58, 55
2, 103310, Note_on_c, 0, 58, 0
2, 103320, Note_on_c, 0, 62, 55
2, 103320, Note_on_c, 0, 66, 55
2, 103355, Note_on_c, 0, 66, 0
2, 103355, Note_on_c, 0, 62, 0
2, 103365, Note_on_c, 0, 58, 54
2, 103400, Note_on_c, 0, 58, 0
2, 103410, Note_on_c, 0, 62, 54
2, 103410, Note_on_c, 0, 66, 54
2, 103445, Note_on_c, 0, 66, 0
2, 103445, Note_on_c, 0, 62, 0
2, 103455, Note_on_c, 0, 58, 54
2, 103490, Note_on_c, 0, 58, 0
2, 103500, Note_on_c, 0, 78, 0
2, 103500, Note_on_c, 0, 77, 86
2, 103500, Note_on_c, 0, 62, 53
2, 103500, Note_on_c, 0, 66, 53
2, 103535, Note_on_c, 0, 66, 0
2, 103535, Note_on_c, 0, 62, 0
2, 103545, Note_on_c, 0, 58, 53
2, 103580, Note_on_c, 0, 58, 0
2, 103590, Note_on_c, 0, 77, 0
2, 103590, Note_on_c, 0, 76, 86
2, 103590, Note_on_c, 0, 62, 53
2, 103590, Note_on_c, 0, 66, 53
2, 103625, Note_on_c, 0, 66, 0
2, 103625, Note_on_c, 0, 62, 0
2, 103635, Note_on_c, 0, 58, 52
2, 103670, Note_on_c, 0, 58, 0
2, 103680, Note_on_c, 0, 76, 0
2, 103680, Note_on_c, 0, 78, 85
2, 103680, Note_on_c, 0, 75, 52
2, 103680, Note_on_c, 0, 63, 52
2, 103680, Note_on_c, 0, 66, 52
2, 103715, Note_on_c, 0, 66, 0
2, 103715, Note_on_c, 0, 63, 0
2, 103725, Note_on_c, 0, 58, 51
2, 103760, Note_on_c, 0, 58, 0
2, 103770, Note_on_c, 0, 63, 51
2, 103770, Note_on_c, 0, 66, 51
2, 103805, Note_on_c, 0, 66, 0
2, 103805, Note_on_c, 0, 63, 0
2, 103815, Note_on_c, 0, 58, 51
2, 103850, Note_on_c, 0, 58, 0
2, 103860, Note_on_c, 0, 63, 50
2, 103860, Note_on_c, 0, 66, 50
2, 103895, Note_on_c, 0, 66, 0
2, 103895, Note_on_c, 0, 63, 0
2, 103905, Note_on_c, 0, 58, 50
2, 103940, Note_on_c, 0, 58, 0
2, 103950, Note_on_c, 0, 63, 50
2, 103950, Note_on_c, 0, 66, 50
2, 103985, Note_on_c, 0, 66, 0
2, 103985, Note_on_c, 0, 63, 0
2, 103995, Note_on_c, 0, 58, 49
2, 104030, Note_on_c, 0, 58, 0
2, 104040, Note_on_c, 0, 75, 0
2, 104040, Note_on_c, 0, 74, 49
2, 104040, Note_on_c, 0, 63, 49
2, 104040, Note_on_c, 0, 66, 49
2, 104075, Note_on_c, 0, 66, 0
2, 104075, Note_on_c, 0, 63, 0
2, 104085, Note_on_c, 0, 58, 49
2, 104120, Note_on_c, 0, 58, 0
2, 104130, Note_on_c, 0, 63, 48
2, 104130, Note_on_c, 0, 66, 48
2, 104165, Note_on_c, 0, 66, 0
2, 104165, Note_on_c, 0, 63, 0
2, 104175, Note_on_c, 0, 58, 48
2, 104210, Note_on_c, 0, 58, 0
2, 104220, Note_on_c, 0, 74, 0
2, 104220, Note_on_c, 0, 74, 60
2, 104220, Note_on_c, 0, 64, 60
2, 104220, Note_on_c, 0, 66, 60
2, 104255, Note_on_c, 0, 66, 0
2, 104255, Note_on_c, 0, 64, 0
2, 104265, Note_on_c, 0, 58, 60
2, 104300, Note_on_c, 0, 58, 0
2, 104310, Note_on_c, 0, 64, 60
2, 104310, Note_on_c, 0, 66, 60
2, 104345, Note_on_c, 0, 66, 0
2, 104345, Note_on_c, 0, 64, 0
2, 104355, Note_on_c, 0, 58, 59
2, 104390, Note_on_c, 0, 58, 0
2, 104400, Note_on_c, 0, 64, 59
2, 104400, Note_on_c, 0, 66, 59
2, 104435, Note_on_c, 0, 66, 0
2, 104435, Note_on_c, 0, 64, 0
2, 104445, Note_on_c, 0, 58, 59
2, 104480, Note_on_c, 0, 58, 0
2, 104490, Note_on_c, 0, 64, 58
2, 104490, Note_on_c, 0, 66, 58
2, 104525, Note_on_c, 0, 66, 0
2, 104525, Note_on_c, 0, 64, 0
2, 104535, Note_on_c, 0, 58, 58
2, 104570, Note_on_c, 0, 58, 0
2, 104580, Note_on_c, 0, 78, 0
2, 104580, Note_on_c, 0, 77, 57
2, 104580, Note_on_c, 0, 73, 57
2, 104580, Note_on_c, 0, 64, 57
2, 104580, Note_on_c, 0, 66, 57
2, 104615, Note_on_c, 0, 66, 0
2, 104615, Note_on_c, 0, 64, 0
2, 104625, Note_on_c, 0, 58, 57
2, 104660, Note_on_c, 0, 58, 0
2, 104670, Note_on_c, 0, 77, 0
2, 104670, Note_on_c, 0, 76, 57
2, 104670, Note_on_c, 0, 64, 57
2, 104670, Note_on_c, 0, 66, 57
2, 104705, Note_on_c, 0, 66, 0
2, 104705, Note_on_c, 0, 64, 0
2, 104715, Note_on_c, 0, 58, 56
2, 104750, Note_on_c, 0, 58, 0
2, 104760, Note_on_c, 0, 76, 0
2, 104760, Note_on_c, 0, 73, 0
2, 104760, Note_on_c, 0, 75, 56
2, 104760, Note_on_c, 0, 66, 56
2, 104760, Note_on_c, 0, 73, 56
2, 104760, Note_on_c, 0, 63, 56
2, 104795, Note_on_c, 0, 63, 0
2, 104805, Note_on_c, 0, 58, 56
2, 104840, Note_on_c, 0, 58, 0
2, 104850, Note_on_c, 0, 63, 55
2, 104885, Note_on_c, 0, 63, 0
2, 104895, Note_on_c, 0, 58, 55
2, 104930, Note_on_c, 0, 58, 0
2, 104940, Note_on_c, 0, 63, 55
2, 104975, Note_on_c, 0, 63, 0
2, 104985, Note_on_c, 0, 58, 54
2, 105020, Note_on_c, 0, 58, 0
2, 105030, Note_on_c, 0, 63, 54
2, 105065, Note_on_c, 0, 63, 0
2, 105075, Note_on_c, 0, 58, 54
2, 105110, Note_on_c, 0, 58, 0
2, 105120, Note_on_c, 0, 73, 0
2, 105120, Note_on_c, 0, 75, 0
2, 105120, Note_on_c, 0, 72, 53
2, 105120, Note_on_c, 0, 63, 53
2, 105155, Note_on_c, 0, 63, 0
2, 105165, Note_on_c, 0, 58, 53
2, 105200, Note_on_c, 0, 58, 0
2, 105210, Note_on_c, 0, 72, 0
2, 105210, Note_on_c, 0, 71, 53
2, 105210, Note_on_c, 0, 63, 53
2, 105245, Note_on_c, 0, 63, 0
2, 105255, Note_on_c, 0, 58, 52
2, 105290, Note_on_c, 0, 58, 0
2, 105300, Note_on_c, 0, 71, 0
2, 105300, Note_on_c, 0, 71, 52
2, 105300, Note_on_c, 0, 62, 52
2, 105335, Note_on_c, 0, 62, 0
2, 105345, Note_on_c, 0, 58, 51
2, 105380, Note_on_c, 0, 58, 0
2, 105390, Note_on_c, 0, 62, 51
2, 105425, Note_on_c, 0, 62, 0
2, 105435, Note_on_c, 0, 58, 51
2, 105470, Note_on_c, 0, 58, 0
2, 105480, Note_on_c, 0, 62, 50
2, 105515, Note_on_c, 0, 62, 0
2, 105525, Note_on_c, 0, 58, 50
2, 105560, Note_on_c, 0, 58, 0
2, 105570, Note_on_c, 0, 62, 50
2, 105605, Note_on_c, 0, 62, 0
2, 105615, Note_on_c, 0, 58, 49
2, 105650, Note_on_c, 0, 58, 0
2, 105660, Note_on_c, 0, 71, 0
2, 105660, Note_on_c, 0, 66, 0
2, 105660, Note_on_c, 0, 70, 49
2, 105660, Note_on_c, 0, 65, 49
2, 105660, Note_on_c, 0, 62, 49
2, 105695, Note_on_c, 0, 62, 0
2, 105705, Note_on_c, 0, 58, 49
2, 105740, Note_on_c, 0, 58, 0
2, 105750, Note_on_c, 0, 65, 0
2, 105750, Note_on_c, 0, 64, 48
2, 105750, Note_on_c, 0, 62, 48
2, 105785, Note_on_c, 0, 62, 0
2, 105795, Note_on_c, 0, 58, 48
2, 105830, Note_on_c, 0, 58, 0
2, 105840, Note_on_c, 0, 64, 0
2, 105840, Note_on_c, 0, 70, 0
2, 105840, Note_on_c, 0, 74, 0
2, 105840, Note_on_c, 0, 82, 48
2, 105840, Note_on_c, 0, 63, 48
2, 105840, Note_on_c, 0, 61, 85
2, 105840, Note_on_c, 0, 67, 85
2, 105875, Note_on_c, 0, 67, 0
2, 105875, Note_on_c, 0, 61, 0
2, 105885, Note_on_c, 0, 58, 43
2, 105920, Note_on_c, 0, 58, 0
2, 105930, Note_on_c, 0, 61, 85
2, 105930, Note_on_c, 0, 67, 85
2, 105965, Note_on_c, 0, 67, 0
2, 105965, Note_on_c, 0, 61, 0
2, 105975, Note_on_c, 0, 58, 43
2, 106010, Note_on_c, 0, 58, 0
2, 106020, Note_on_c, 0, 61, 85
2, 106020, Note_on_c, 0, 67, 85
2, 106055, Note_on_c, 0, 67, 0
2, 106055, Note_on_c, 0, 61, 0
2, 106065, Note_on_c, 0, 58, 43
2, 106100, Note_on_c, 0, 58, 0
2, 106110, Note_on_c, 0, 61, 85
2, 106110, Note_on_c, 0, 67, 85
2, 106145, Note_on_c, 0, 67, 0
2, 106145, Note_on_c, 0, 61, 0
2, 106155, Note_on_c, 0, 58, 43
2, 106190, Note_on_c, 0, 58, 0
2, 106200, Note_on_c, 0, 61, 85
2, 106200, Note_on_c, 0, 67, 85
2, 106235, Note_on_c, 0, 67, 0
2, 106235, Note_on_c, 0, 61, 0
2, 106245, Note_on_c, 0, 58, 43
2, 106280, Note_on_c, 0, 58, 0
2, 106290, Note_on_c, 0, 61, 85
2, 106290, Note_on_c, 0, 67, 85
2, 106325, Note_on_c, 0, 67, 0
2, 106325, Note_on_c, 0, 61, 0
2, 106335, Note_on_c, 0, 58, 43
2, 106370, Note_on_c, 0, 58, 0
2, 106380, Note_on_c, 0, 61, 54
2, 106380, Note_on_c, 0, 68, 54
2, 106415, Note_on_c, 0, 68, 0
2, 106415, Note_on_c, 0, 61, 0
2, 106425, Note_on_c, 0, 58, 54
2, 106460, Note_on_c, 0, 58, 0
2, 106470, Note_on_c, 0, 61, 54
2, 106470, Note_on_c, 0, 68, 54
2, 106505, Note_on_c, 0, 68, 0
2, 106505, Note_on_c, 0, 61, 0
2, 106515, Note_on_c, 0, 58, 54
2, 106550, Note_on_c, 0, 58, 0
2, 106560, Note_on_c, 0, 61, 54
2, 106560, Note_on_c, 0, 68, 54
2, 106595, Note_on_c, 0, 68, 0
2, 106595, Note_on_c, 0, 61, 0
2, 106605, Note_on_c, 0, 58, 54
2, 106640, Note_on_c, 0, 58, 0
2, 106650, Note_on_c, 0, 61, 54
2, 106650, Note_on_c, 0, 68, 54
2, 106685, Note_on_c, 0, 68, 0
2, 106685, Note_on_c, 0, 61, 0
2, 106695, Note_on_c, 0, 58, 54
2, 106730, Note_on_c, 0, 58, 0
2, 106740, Note_on_c, 0, 82, 0
2, 106740, Note_on_c, 0, 81, 47
2, 106740, Note_on_c, 0, 73, 43
2, 106740, Note_on_c, 0, 61, 54
2, 106740, Note_on_c, 0, 68, 54
2, 106775, Note_on_c, 0, 68, 0
2, 106775, Note_on_c, 0, 61, 0
2, 106785, Note_on_c, 0, 58, 54
2, 106820, Note_on_c, 0, 58, 0
2, 106830, Note_on_c, 0, 81, 0
2, 106830, Note_on_c, 0, 80, 47
2, 106830, Note_on_c, 0, 61, 54
2, 106830, Note_on_c, 0, 68, 54
2, 106865, Note_on_c, 0, 68, 0
2, 106865, Note_on_c, 0, 61, 0
2, 106875, Note_on_c, 0, 58, 54
2, 106910, Note_on_c, 0, 58, 0
2, 106920, Note_on_c, 0, 80, 0
2, 106920, Note_on_c, 0, 73, 0
2, 106920, Note_on_c, 0, 63, 0
2, 106920, Note_on_c, 0, 71, 41
2, 106920, Note_on_c, 0, 80, 62
2, 106920, Note_on_c, 0, 63, 57
2, 106920, Note_on_c, 0, 69, 57
2, 106955, Note_on_c, 0, 69, 0
2, 106955, Note_on_c, 0, 63, 0
2, 106965, Note_on_c, 0, 59, 46
2, 107000, Note_on_c, 0, 59, 0
2, 107010, Note_on_c, 0, 63, 57
2, 107010, Note_on_c, 0, 69, 57
2, 107045, Note_on_c, 0, 69, 0
2, 107045, Note_on_c, 0, 63, 0
2, 107055, Note_on_c, 0, 59, 46
2, 107090, Note_on_c, 0, 59, 0
2, 107100, Note_on_c, 0, 71, 0
2, 107100, Note_on_c, 0, 73, 45
2, 107100, Note_on_c, 0, 63, 57
2, 107100, Note_on_c, 0, 69, 57
2, 107135, Note_on_c, 0, 69, 0
2, 107135, Note_on_c, 0, 63, 0
2, 107145, Note_on_c, 0, 59, 46
2, 107180, Note_on_c, 0, 59, 0
2, 107190, Note_on_c, 0, 63, 57
2, 107190, Note_on_c, 0, 69, 57
2, 107225, Note_on_c, 0, 69, 0
2, 107225, Note_on_c, 0, 63, 0
2, 107235, Note_on_c, 0, 59, 46
2, 107237, Note_on_c, 0, 80, 0
2, 107270, Note_on_c, 0, 59, 0
2, 107280, Note_on_c, 0, 73, 0
2, 107280, Note_on_c, 0, 75, 56
2, 107280, Note_on_c, 0, 78, 46
2, 107280, Note_on_c, 0, 63, 57
2, 107280, Note_on_c, 0, 69, 57
2, 107315, Note_on_c, 0, 69, 0
2, 107315, Note_on_c, 0, 63, 0
2, 107325, Note_on_c, 0, 59, 46
2, 107360, Note_on_c, 0, 59, 0
2, 107370, Note_on_c, 0, 63, 57
2, 107370, Note_on_c, 0, 69, 57
2, 107405, Note_on_c, 0, 69, 0
2, 107405, Note_on_c, 0, 63, 0
2, 107415, Note_on_c, 0, 59, 46
2, 107450, Note_on_c, 0, 59, 0
2, 107460, Note_on_c, 0, 75, 0
2, 107460, Note_on_c, 0, 82, 107
2, 107460, Note_on_c, 0, 63, 86
2, 107460, Note_on_c, 0, 70, 86
2, 107495, Note_on_c, 0, 70, 0
2, 107495, Note_on_c, 0, 63, 0
2, 107505, Note_on_c, 0, 60, 62
2, 107540, Note_on_c, 0, 60, 0
2, 107550, Note_on_c, 0, 63, 86
2, 107550, Note_on_c, 0, 70, 86
2, 107585, Note_on_c, 0, 70, 0
2, 107585, Note_on_c, 0, 63, 0
2, 107595, Note_on_c, 0, 60, 62
2, 107630, Note_on_c, 0, 60, 0
2, 107640, Note_on_c, 0, 78, 0
2, 107640, Note_on_c, 0, 77, 108
2, 107640, Note_on_c, 0, 63, 86
2, 107640, Note_on_c, 0, 70, 86
2, 107675, Note_on_c, 0, 70, 0
2, 107675, Note_on_c, 0, 63, 0
2, 107685, Note_on_c, 0, 60, 62
2, 107720, Note_on_c, 0, 60, 0
2, 107730, Note_on_c, 0, 63, 86
2, 107730, Note_on_c, 0, 70, 86
2, 107765, Note_on_c, 0, 70, 0
2, 107765, Note_on_c, 0, 63, 0
2, 107775, Note_on_c, 0, 60, 62
2, 107777, Note_on_c, 0, 82, 0
2, 107810, Note_on_c, 0, 60, 0
2, 107820, Note_on_c, 0, 77, 0
2, 107820, Note_on_c, 0, 81, 108
2, 107820, Note_on_c, 0, 75, 108
2, 107820, Note_on_c, 0, 63, 86
2, 107820, Note_on_c, 0, 70, 86
2, 107855, Note_on_c, 0, 70, 0
2, 107855, Note_on_c, 0, 63, 0
2, 107865, Note_on_c, 0, 60, 62
2, 107900, Note_on_c, 0, 60, 0
2, 107910, Note_on_c, 0, 81, 0
2, 107910, Note_on_c, 0, 80, 108
2, 107910, Note_on_c, 0, 63, 86
2, 107910, Note_on_c, 0, 70, 86
2, 107945, Note_on_c, 0, 70, 0
2, 107945, Note_on_c, 0, 63, 0
2, 107955, Note_on_c, 0, 60, 62
2, 107990, Note_on_c, 0, 60, 0
2, 108000, Note_on_c, 0, 80, 0
2, 108000, Note_on_c, 0, 75, 0
2, 108000, Note_on_c, 0, 80, 108
2, 108000, Note_on_c, 0, 76, 108
2, 108000, Note_on_c, 0, 64, 82
2, 108000, Note_on_c, 0, 70, 82
2, 108035, Note_on_c, 0, 70, 0
2, 108035, Note_on_c, 0, 64, 0
2, 108045, Note_on_c, 0, 60, 61
2, 108080, Note_on_c, 0, 60, 0
2, 108090, Note_on_c, 0, 64, 82
2, 108090, Note_on_c, 0, 70, 82
2, 108125, Note_on_c, 0, 70, 0
2, 108125, Note_on_c, 0, 64, 0
2, 108135, Note_on_c, 0, 60, 61
2, 108170, Note_on_c, 0, 60, 0
2, 108180, Note_on_c, 0, 64, 82
2, 108180, Note_on_c, 0, 70, 82
2, 108215, Note_on_c, 0, 70, 0
2, 108215, Note_on_c, 0, 64, 0
2, 108225, Note_on_c, 0, 60, 61
2, 108260, Note_on_c, 0, 60, 0
2, 108270, Note_on_c, 0, 64, 82
2, 108270, Note_on_c, 0, 70, 82
2, 108305, Note_on_c, 0, 70, 0
2, 108305, Note_on_c, 0, 64, 0
2, 108315, Note_on_c, 0, 60, 61
2, 108317, Note_on_c, 0, 80, 0
2, 108350, Note_on_c, 0, 60, 0
2, 108360, Note_on_c, 0, 78, 109
2, 108360, Note_on_c, 0, 64, 82
2, 108360, Note_on_c, 0, 70, 82
2, 108395, Note_on_c, 0, 70, 0
2, 108395, Note_on_c, 0, 64, 0
2, 108405, Note_on_c, 0, 60, 61
2, 108440, Note_on_c, 0, 60, 0
2, 108450, Note_on_c, 0, 64, 82
2, 108450, Note_on_c, 0, 70, 82
2, 108485, Note_on_c, 0, 70, 0
2, 108485, Note_on_c, 0, 64, 0
2, 108495, Note_on_c, 0, 60, 61
2, 108530, Note_on_c, 0, 60, 0
2, 108540, Note_on_c, 0, 78, 0
2, 108540, Note_on_c, 0, 76, 0
2, 108540, Note_on_c, 0, 82, 109
2, 108540, Note_on_c, 0, 77, 109
2, 108540, Note_on_c, 0, 65, 87
2, 108540, Note_on_c, 0, 70, 87
2, 108575, Note_on_c, 0, 70, 0
2, 108575, Note_on_c, 0, 65, 0
2, 108585, Note_on_c, 0, 61, 63
2, 108620, Note_on_c, 0, 61, 0
2, 108630, Note_on_c, 0, 65, 87
2, 108630, Note_on_c, 0, 70, 87
2, 108665, Note_on_c, 0, 70, 0
2, 108665, Note_on_c, 0, 65, 0
2, 108675, Note_on_c, 0, 61, 63
2, 108710, Note_on_c, 0, 61, 0
2, 108720, Note_on_c, 0, 77, 0
2, 108720, Note_on_c, 0, 81, 109
2, 108720, Note_on_c, 0, 65, 87
2, 108720, Note_on_c, 0, 70, 87
2, 108755, Note_on_c, 0, 70, 0
2, 108755, Note_on_c, 0, 65, 0
2, 108765, Note_on_c, 0, 61, 63
2, 108800, Note_on_c, 0, 61, 0
2, 108810, Note_on_c, 0, 82, 0
2, 108810, Note_on_c, 0, 81, 109
2, 108810, Note_on_c, 0, 65, 87
2, 108810, Note_on_c, 0, 70, 87
2, 108845, Note_on_c, 0, 70, 0
2, 108845, Note_on_c, 0, 65, 0
2, 108855, Note_on_c, 0, 61, 63
2, 108890, Note_on_c, 0, 61, 0
2, 108900, Note_on_c, 0, 81, 0
2, 108900, Note_on_c, 0, 81, 0
2, 108900, Note_on_c, 0, 80, 110
2, 108900, Note_on_c, 0, 82, 110
2, 108900, Note_on_c, 0, 65, 87
2, 108900, Note_on_c, 0, 70, 87
2, 108935, Note_on_c, 0, 70, 0
2, 108935, Note_on_c, 0, 65, 0
2, 108945, Note_on_c, 0, 61, 63
2, 108980, Note_on_c, 0, 61, 0
2, 108990, Note_on_c, 0, 80, 0
2, 108990, Note_on_c, 0, 79, 110
2, 108990, Note_on_c, 0, 65, 87
2, 108990, Note_on_c, 0, 70, 87
2, 109025, Note_on_c, 0, 70, 0
2, 109025, Note_on_c, 0, 65, 0
2, 109035, Note_on_c, 0, 61, 63
2, 109070, Note_on_c, 0, 61, 0
2, 109080, Note_on_c, 0, 79, 0
2, 109080, Note_on_c, 0, 82, 0
2, 109080, Note_on_c, 0, 86, 110
2, 109080, Note_on_c, 0, 78, 110
2, 109080, Note_on_c, 0, 66, 82
2, 109080, Note_on_c, 0, 70, 82
2, 109115, Note_on_c, 0, 70, 0
2, 109115, Note_on_c, 0, 66, 0
2, 109125, Note_on_c, 0, 61, 52
2, 109160, Note_on_c, 0, 61, 0
2, 109170, Note_on_c, 0, 66, 82
2, 109170, Note_on_c, 0, 70, 82
2, 109205, Note_on_c, 0, 70, 0
2, 109205, Note_on_c, 0, 66, 0
2, 109215, Note_on_c, 0, 61, 52
2, 109250, Note_on_c, 0, 61, 0
2, 109260, Note_on_c, 0, 66, 82
2, 109260, Note_on_c, 0, 70, 82
2, 109295, Note_on_c, 0, 70, 0
2, 109295, Note_on_c, 0, 66, 0
2, 109305, Note_on_c, 0, 61, 52
2, 109340, Note_on_c, 0, 61, 0
2, 109350, Note_on_c, 0, 66, 82
2, 109350, Note_on_c, 0, 70, 82
2, 109385, Note_on_c, 0, 70, 0
2, 109385, Note_on_c, 0, 66, 0
2, 109395, Note_on_c, 0, 61, 52
2, 109430, Note_on_c, 0, 61, 0
2, 109440, Note_on_c, 0, 78, 0
2, 109440, Note_on_c, 0, 66, 82
2, 109440, Note_on_c, 0, 70, 82
2, 109475, Note_on_c, 0, 70, 0
2, 109475, Note_on_c, 0, 66, 0
2, 109485, Note_on_c, 0, 61, 52
2, 109520, Note_on_c, 0, 61, 0
2, 109530, Note_on_c, 0, 66, 82
2, 109530, Note_on_c, 0, 70, 82
2, 109565, Note_on_c, 0, 70, 0
2, 109565, Note_on_c, 0, 66, 0
2, 109575, Note_on_c, 0, 61, 52
2, 109610, Note_on_c, 0, 61, 0
2, 109620, Note_on_c, 0, 66, 111
2, 109620, Note_on_c, 0, 66, 81
2, 109620, Note_on_c, 0, 71, 81
2, 109655, Note_on_c, 0, 71, 0
2, 109655, Note_on_c, 0, 66, 0
2, 109665, Note_on_c, 0, 61, 58
2, 109700, Note_on_c, 0, 61, 0
2, 109710, Note_on_c, 0, 66, 81
2, 109710, Note_on_c, 0, 71, 81
2, 109745, Note_on_c, 0, 71, 0
2, 109745, Note_on_c, 0, 66, 0
2, 109755, Note_on_c, 0, 61, 58
2, 109790, Note_on_c, 0, 61, 0
2, 109800, Note_on_c, 0, 66, 81
2, 109800, Note_on_c, 0, 71, 81
2, 109835, Note_on_c, 0, 71, 0
2, 109835, Note_on_c, 0, 66, 0
2, 109845, Note_on_c, 0, 61, 58
2, 109880, Note_on_c, 0, 61, 0
2, 109890, Note_on_c, 0, 66, 81
2, 109890, Note_on_c, 0, 71, 81
2, 109925, Note_on_c, 0, 71, 0
2, 109925, Note_on_c, 0, 66, 0
2, 109935, Note_on_c, 0, 61, 58
2, 109970, Note_on_c, 0, 61, 0
2, 109980, Note_on_c, 0, 86, 0
2, 109980, Note_on_c, 0, 84, 111
2, 109980, Note_on_c, 0, 66, 81
2, 109980, Note_on_c, 0, 71, 81
2, 110015, Note_on_c, 0, 71, 0
2, 110015, Note_on_c, 0, 66, 0
2, 110025, Note_on_c, 0, 61, 58
2, 110060, Note_on_c, 0, 61, 0
2, 110070, Note_on_c, 0, 84, 0
2, 110070, Note_on_c, 0, 83, 111
2, 110070, Note_on_c, 0, 66, 81
2, 110070, Note_on_c, 0, 71, 81
2, 110105, Note_on_c, 0, 71, 0
2, 110105, Note_on_c, 0, 66, 0
2, 110115, Note_on_c, 0, 61, 58
2, 110150, Note_on_c, 0, 61, 0
2, 110160, Note_on_c, 0, 83, 0
2, 110160, Note_on_c, 0, 83, 112
2, 110160, Note_on_c, 0, 66, 84
2, 110160, Note_on_c, 0, 72, 84
2, 110195, Note_on_c, 0, 72, 0
2, 110195, Note_on_c, 0, 66, 0
2, 110205, Note_on_c, 0, 62, 52
2, 110240, Note_on_c, 0, 62, 0
2, 110250, Note_on_c, 0, 66, 84
2, 110250, Note_on_c, 0, 72, 84
2, 110285, Note_on_c, 0, 72, 0
2, 110285, Note_on_c, 0, 66, 0
2, 110295, Note_on_c, 0, 62, 52
2, 110330, Note_on_c, 0, 62, 0
2, 110340, Note_on_c, 0, 66, 84
2, 110340, Note_on_c, 0, 72, 84
2, 110375, Note_on_c, 0, 72, 0
2, 110375, Note_on_c, 0, 66, 0
2, 110385, Note_on_c, 0, 62, 52
2, 110420, Note_on_c, 0, 62, 0
2, 110430, Note_on_c, 0, 66, 0
2, 110430, Note_on_c, 0, 65, 112
2, 110430, Note_on_c, 0, 66, 84
2, 110430, Note_on_c, 0, 72, 84
2, 110465, Note_on_c, 0, 72, 0
2, 110465, Note_on_c, 0, 66, 0
2, 110475, Note_on_c, 0, 62, 52
2, 110510, Note_on_c, 0, 62, 0
2, 110520, Note_on_c, 0, 65, 0
2, 110520, Note_on_c, 0, 83, 0
2, 110520, Note_on_c, 0, 82, 112
2, 110520, Note_on_c, 0, 64, 112
2, 110520, Note_on_c, 0, 66, 84
2, 110520, Note_on_c, 0, 72, 84
2, 110555, Note_on_c, 0, 72, 0
2, 110555, Note_on_c, 0, 66, 0
2, 110565, Note_on_c, 0, 62, 52
2, 110600, Note_on_c, 0, 62, 0
2, 110610, Note_on_c, 0, 64, 0
2, 110610, Note_on_c, 0, 63, 112
2, 110610, Note_on_c, 0, 66, 84
2, 110610, Note_on_c, 0, 72, 84
2, 110645, Note_on_c, 0, 72, 0
2, 110645, Note_on_c, 0, 66, 0
2, 110655, Note_on_c, 0, 62, 52
2, 110690, Note_on_c, 0, 62, 0
2, 110700, Note_on_c, 0, 63, 0
2, 110700, Note_on_c, 0, 88, 112
2, 110700, Note_on_c, 0, 63, 47
2, 110700, Note_on_c, 0, 67, 86
2, 110700, Note_on_c, 0, 73, 86
2, 110735, Note_on_c, 0, 73, 0
2, 110735, Note_on_c, 0, 67, 0
2, 110745, Note_on_c, 0, 61, 59
2, 110780, Note_on_c, 0, 61, 0
2, 110790, Note_on_c, 0, 67, 86
2, 110790, Note_on_c, 0, 73, 86
2, 110825, Note_on_c, 0, 73, 0
2, 110825, Note_on_c, 0, 67, 0
2, 110835, Note_on_c, 0, 61, 59
2, 110870, Note_on_c, 0, 61, 0
2, 110880, Note_on_c, 0, 82, 0
2, 110880, Note_on_c, 0, 81, 113
2, 110880, Note_on_c, 0, 67, 86
2, 110880, Note_on_c, 0, 73, 86
2, 110915, Note_on_c, 0, 73, 0
2, 110915, Note_on_c, 0, 67, 0
2, 110925, Note_on_c, 0, 61, 59
2, 110960, Note_on_c, 0, 61, 0
2, 110970, Note_on_c, 0, 67, 86
2, 110970, Note_on_c, 0, 73, 86
2, 111005, Note_on_c, 0, 73, 0
2, 111005, Note_on_c, 0, 67, 0
2, 111015, Note_on_c, 0, 61, 59
2, 111050, Note_on_c, 0, 61, 0
2, 111060, Note_on_c, 0, 81, 0
2, 111060, Note_on_c, 0, 63, 0
2, 111060, Note_on_c, 0, 88, 0
2, 111060, Note_on_c, 0, 80, 113
2, 111060, Note_on_c, 0, 86, 113
2, 111060, Note_on_c, 0, 67, 86
2, 111060, Note_on_c, 0, 73, 86
2, 111095, Note_on_c, 0, 73, 0
2, 111095, Note_on_c, 0, 67, 0
2, 111105, Note_on_c, 0, 61, 59
2, 111140, Note_on_c, 0, 61, 0
2, 111150, Note_on_c, 0, 86, 0
2, 111150, Note_on_c, 0, 85, 113
2, 111150, Note_on_c, 0, 67, 86
2, 111150, Note_on_c, 0, 73, 86
2, 111185, Note_on_c, 0, 73, 0
2, 111185, Note_on_c, 0, 67, 0
2, 111195, Note_on_c, 0, 61, 59
2, 111230, Note_on_c, 0, 61, 0
2, 111240, Note_on_c, 0, 85, 0
2, 111240, Note_on_c, 0, 80, 0
2, 111240, Note_on_c, 0, 85, 113
2, 111240, Note_on_c, 0, 80, 113
2, 111240, Note_on_c, 0, 76, 54
2, 111240, Note_on_c, 0, 68, 89
2, 111240, Note_on_c, 0, 73, 89
2, 111275, Note_on_c, 0, 73, 0
2, 111275, Note_on_c, 0, 68, 0
2, 111285, Note_on_c, 0, 64, 63
2, 111320, Note_on_c, 0, 64, 0
2, 111330, Note_on_c, 0, 68, 89
2, 111330, Note_on_c, 0, 73, 89
2, 111365, Note_on_c, 0, 73, 0
2, 111365, Note_on_c, 0, 68, 0
2, 111375, Note_on_c, 0, 64, 63
2, 111410, Note_on_c, 0, 64, 0
2, 111420, Note_on_c, 0, 68, 89
2, 111420, Note_on_c, 0, 73, 89
2, 111455, Note_on_c, 0, 73, 0
2, 111455, Note_on_c, 0, 68, 0
2, 111465, Note_on_c, 0, 64, 63
2, 111500, Note_on_c, 0, 64, 0
2, 111510, Note_on_c, 0, 68, 89
2, 111510, Note_on_c, 0, 73, 89
2, 111545, Note_on_c, 0, 73, 0
2, 111545, Note_on_c, 0, 68, 0
2, 111555, Note_on_c, 0, 64, 63
2, 111590, Note_on_c, 0, 64, 0
2, 111600, Note_on_c, 0, 76, 0
2, 111600, Note_on_c, 0, 80, 0
2, 111600, Note_on_c, 0, 85, 0
2, 111600, Note_on_c, 0, 79, 114
2, 111600, Note_on_c, 0, 79, 114
2, 111600, Note_on_c, 0, 75, 54
2, 111600, Note_on_c, 0, 68, 89
2, 111600, Note_on_c, 0, 73, 89
2, 111635, Note_on_c, 0, 73, 0
2, 111635, Note_on_c, 0, 68, 0
2, 111645, Note_on_c, 0, 64, 63
2, 111680, Note_on_c, 0, 64, 0
2, 111690, Note_on_c, 0, 75, 0
2, 111690, Note_on_c, 0, 73, 54
2, 111690, Note_on_c, 0, 68, 89
2, 111690, Note_on_c, 0, 73, 89
2, 111725, Note_on_c, 0, 68, 0
2, 111725, Note_on_c, 0, 73, 0
2, 111735, Note_on_c, 0, 64, 63
2, 111770, Note_on_c, 0, 64, 0
2, 111780, Note_on_c, 0, 73, 0
2, 111780, Note_on_c, 0, 79, 0
2, 111780, Note_on_c, 0, 88, 114
2, 111780, Note_on_c, 0, 73, 54
2, 111780, Note_on_c, 0, 73, 45
2, 111780, Note_on_c, 0, 69, 78
2, 111815, Note_on_c, 0, 69, 0
2, 111825, Note_on_c, 0, 64, 60
2, 111860, Note_on_c, 0, 64, 0
2, 111870, Note_on_c, 0, 69, 78
2, 111905, Note_on_c, 0, 69, 0
2, 111915, Note_on_c, 0, 64, 60
2, 111950, Note_on_c, 0, 64, 0
2, 111960, Note_on_c, 0, 73, 0
2, 111960, Note_on_c, 0, 79, 0
2, 111960, Note_on_c, 0, 78, 114
2, 111960, Note_on_c, 0, 71, 55
2, 111960, Note_on_c, 0, 69, 78
2, 111995, Note_on_c, 0, 69, 0
2, 112005, Note_on_c, 0, 64, 60
2, 112040, Note_on_c, 0, 64, 0
2, 112050, Note_on_c, 0, 69, 78
2, 112085, Note_on_c, 0, 69, 0
2, 112095, Note_on_c, 0, 64, 60
2, 112130, Note_on_c, 0, 64, 0
2, 112140, Note_on_c, 0, 71, 0
2, 112140, Note_on_c, 0, 78, 0
2, 112140, Note_on_c, 0, 88, 0
2, 112140, Note_on_c, 0, 88, 115
2, 112140, Note_on_c, 0, 73, 115
2, 112140, Note_on_c, 0, 79, 115
2, 112140, Note_on_c, 0, 70, 55
2, 112140, Note_on_c, 0, 70, 80
2, 112157, Note_on_c, 0, 70, 0
2, 112163, Note_on_c, 0, 64, 59
2, 112179, Note_on_c, 0, 64, 0
2, 112185, Note_on_c, 0, 70, 80
2, 112202, Note_on_c, 0, 70, 0
2, 112208, Note_on_c, 0, 64, 59
2, 112224, Note_on_c, 0, 64, 0
2, 112230, Note_on_c, 0, 70, 80
2, 112247, Note_on_c, 0, 70, 0
2, 112253, Note_on_c, 0, 64, 59
2, 112269, Note_on_c, 0, 64, 0
2, 112275, Note_on_c, 0, 70, 80
2, 112292, Note_on_c, 0, 70, 0
2, 112298, Note_on_c, 0, 64, 59
2, 112314, Note_on_c, 0, 64, 0
2, 112320, Note_on_c, 0, 70, 0
2, 112320, Note_on_c, 0, 73, 0
2, 112320, Note_on_c, 0, 73, 0
2, 112320, Note_on_c, 0, 88, 0
2, 112320, Note_on_c, 0, 79, 0
2, 112320, Note_on_c, 0, 92, 115
2, 112320, Note_on_c, 0, 87, 115
2, 112320, Note_on_c, 0, 64, 43
2, 112320, Note_on_c, 0, 69, 43
2, 112320, Note_on_c, 0, 73, 78
2, 112355, Note_on_c, 0, 73, 0
2, 112365, Note_on_c, 0, 64, 55
2, 112400, Note_on_c, 0, 64, 0
2, 112410, Note_on_c, 0, 73, 78
2, 112445, Note_on_c, 0, 73, 0
2, 112455, Note_on_c, 0, 64, 55
2, 112490, Note_on_c, 0, 64, 0
2, 112500, Note_on_c, 0, 73, 78
2, 112535, Note_on_c, 0, 73, 0
2, 112545, Note_on_c, 0, 64, 55
2, 112580, Note_on_c, 0, 64, 0
2, 112590, Note_on_c, 0, 73, 78
2, 112625, Note_on_c, 0, 73, 0
2, 112635, Note_on_c, 0, 64, 55
2, 112670, Note_on_c, 0, 64, 0
2, 112680, Note_on_c, 0, 92, 0
2, 112680, Note_on_c, 0, 91, 115
2, 112680, Note_on_c, 0, 73, 78
2, 112715, Note_on_c, 0, 73, 0
2, 112725, Note_on_c, 0, 64, 55
2, 112760, Note_on_c, 0, 64, 0
2, 112770, Note_on_c, 0, 91, 0
2, 112770, Note_on_c, 0, 90, 116
2, 112770, Note_on_c, 0, 73, 78
2, 112805, Note_on_c, 0, 73, 0
2, 112815, Note_on_c, 0, 64, 55
2, 112850, Note_on_c, 0, 64, 0
2, 112860, Note_on_c, 0, 90, 0
2, 112860, Note_on_c, 0, 64, 0
2, 112860, Note_on_c, 0, 69, 0
2, 112860, Note_on_c, 0, 90, 116
2, 112860, Note_on_c, 0, 64, 43
2, 112860, Note_on_c, 0, 69, 43
2, 112860, Note_on_c, 0, 75, 86
2, 112895, Note_on_c, 0, 75, 0
2, 112905, Note_on_c, 0, 64, 51
2, 112940, Note_on_c, 0, 64, 0
2, 112950, Note_on_c, 0, 75, 86
2, 112985, Note_on_c, 0, 75, 0
2, 112995, Note_on_c, 0, 64, 51
2, 113030, Note_on_c, 0, 64, 0
2, 113040, Note_on_c, 0, 75, 86
2, 113075, Note_on_c, 0, 75, 0
2, 113085, Note_on_c, 0, 64, 51
2, 113120, Note_on_c, 0, 64, 0
2, 113130, Note_on_c, 0, 75, 86
2, 113165, Note_on_c, 0, 75, 0
2, 113175, Note_on_c, 0, 64, 51
2, 113210, Note_on_c, 0, 64, 0
2, 113220, Note_on_c, 0, 87, 0
2, 113220, Note_on_c, 0, 90, 0
2, 113220, Note_on_c, 0, 90, 116
2, 113220, Note_on_c, 0, 86, 116
2, 113220, Note_on_c, 0, 75, 86
2, 113255, Note_on_c, 0, 75, 0
2, 113265, Note_on_c, 0, 64, 51
2, 113300, Note_on_c, 0, 64, 0
2, 113310, Note_on_c, 0, 86, 0
2, 113310, Note_on_c, 0, 90, 0
2, 113310, Note_on_c, 0, 88, 116
2, 113310, Note_on_c, 0, 85, 116
2, 113310, Note_on_c, 0, 75, 86
2, 113345, Note_on_c, 0, 75, 0
2, 113355, Note_on_c, 0, 64, 51
2, 113390, Note_on_c, 0, 64, 0
2, 113400, Note_on_c, 0, 85, 0
2, 113400, Note_on_c, 0, 69, 0
2, 113400, Note_on_c, 0, 88, 0
2, 113400, Note_on_c, 0, 64, 0
2, 113400, Note_on_c, 0, 88, 117
2, 113400, Note_on_c, 0, 82, 117
2, 113400, Note_on_c, 0, 85, 117
2, 113400, Note_on_c, 0, 66, 48
2, 113400, Note_on_c, 0, 70, 48
2, 113400, Note_on_c, 0, 76, 84
2, 113435, Note_on_c, 0, 76, 0
2, 113445, Note_on_c, 0, 66, 57
2, 113480, Note_on_c, 0, 66, 0
2, 113490, Note_on_c, 0, 76, 84
2, 113525, Note_on_c, 0, 76, 0
2, 113535, Note_on_c, 0, 66, 57
2, 113570, Note_on_c, 0, 66, 0
2, 113580, Note_on_c, 0, 85, 0
2, 113580, Note_on_c, 0, 82, 0
2, 113580, Note_on_c, 0, 83, 117
2, 113580, Note_on_c, 0, 76, 84
2, 113615, Note_on_c, 0, 76, 0
2, 113625, Note_on_c, 0, 66, 57
2, 113660, Note_on_c, 0, 66, 0
2, 113670, Note_on_c, 0, 76, 84
2, 113705, Note_on_c, 0, 76, 0
2, 113715, Note_on_c, 0, 66, 57
2, 113750, Note_on_c, 0, 66, 0
2, 113760, Note_on_c, 0, 83, 0
2, 113760, Note_on_c, 0, 82, 117
2, 113760, Note_on_c, 0, 76, 84
2, 113795, Note_on_c, 0, 76, 0
2, 113805, Note_on_c, 0, 66, 57
2, 113840, Note_on_c, 0, 66, 0
2, 113850, Note_on_c, 0, 76, 84
2, 113885, Note_on_c, 0, 76, 0
2, 113895, Note_on_c, 0, 66, 57
2, 113930, Note_on_c, 0, 66, 0
2, 113940, Note_on_c, 0, 82, 0
2, 113940, Note_on_c, 0, 66, 0
2, 113940, Note_on_c, 0, 70, 0
2, 113940, Note_on_c, 0, 82, 117
2, 113940, Note_on_c, 0, 67, 51
2, 113940, Note_on_c, 0, 76, 51
2, 113940, Note_on_c, 0, 70, 75
2, 113975, Note_on_c, 0, 70, 0
2, 113985, Note_on_c, 0, 67, 66
2, 114020, Note_on_c, 0, 67, 0
2, 114030, Note_on_c, 0, 70, 75
2, 114065, Note_on_c, 0, 70, 0
2, 114075, Note_on_c, 0, 67, 66
2, 114110, Note_on_c, 0, 67, 0
2, 114120, Note_on_c, 0, 82, 0
2, 114120, Note_on_c, 0, 85, 118
2, 114120, Note_on_c, 0, 70, 75
2, 114155, Note_on_c, 0, 70, 0
2, 114165, Note_on_c, 0, 67, 66
2, 114200, Note_on_c, 0, 67, 0
2, 114210, Note_on_c, 0, 70, 75
2, 114245, Note_on_c, 0, 70, 0
2, 114255, Note_on_c, 0, 67, 66
2, 114290, Note_on_c, 0, 67, 0
2, 114300, Note_on_c, 0, 85, 0
2, 114300, Note_on_c, 0, 88, 0
2, 114300, Note_on_c, 0, 87, 118
2, 114300, Note_on_c, 0, 83, 118
2, 114300, Note_on_c, 0, 70, 75
2, 114335, Note_on_c, 0, 70, 0
2, 114345, Note_on_c, 0, 67, 66
2, 114380, Note_on_c, 0, 67, 0
2, 114390, Note_on_c, 0, 87, 0
2, 114390, Note_on_c, 0, 86, 118
2, 114390, Note_on_c, 0, 70, 75
2, 114425, Note_on_c, 0, 70, 0
2, 114435, Note_on_c, 0, 67, 66
2, 114470, Note_on_c, 0, 67, 0
2, 114480, Note_on_c, 0, 86, 0
2, 114480, Note_on_c, 0, 76, 0
2, 114480, Note_on_c, 0, 83, 0
2, 114480, Note_on_c, 0, 67, 0
2, 114480, Note_on_c, 0, 86, 118
2, 114480, Note_on_c, 0, 83, 118
2, 114480, Note_on_c, 0, 66, 42
2, 114480, Note_on_c, 0, 71, 88
2, 114480, Note_on_c, 0, 77, 88
2, 114515, Note_on_c, 0, 77, 0
2, 114515, Note_on_c, 0, 71, 0
2, 114525, Note_on_c, 0, 66, 58
2, 114560, Note_on_c, 0, 66, 0
2, 114570, Note_on_c, 0, 71, 88
2, 114570, Note_on_c, 0, 77, 88
2, 114605, Note_on_c, 0, 77, 0
2, 114605, Note_on_c, 0, 71, 0
2, 114615, Note_on_c, 0, 66, 58
2, 114650, Note_on_c, 0, 66, 0
2, 114660, Note_on_c, 0, 86, 0
2, 114660, Note_on_c, 0, 85, 119
2, 114660, Note_on_c, 0, 71, 88
2, 114660, Note_on_c, 0, 77, 88
2, 114695, Note_on_c, 0, 77, 0
2, 114695, Note_on_c, 0, 71, 0
2, 114705, Note_on_c, 0, 66, 58
2, 114740, Note_on_c, 0, 66, 0
2, 114750, Note_on_c, 0, 71, 88
2, 114750, Note_on_c, 0, 77, 88
2, 114785, Note_on_c, 0, 77, 0
2, 114785, Note_on_c, 0, 71, 0
2, 114795, Note_on_c, 0, 66, 58
2, 114830, Note_on_c, 0, 66, 0
2, 114840, Note_on_c, 0, 83, 0
2, 114840, Note_on_c, 0, 85, 0
2, 114840, Note_on_c, 0, 83, 119
2, 114840, Note_on_c, 0, 85, 119
2, 114840, Note_on_c, 0, 71, 88
2, 114840, Note_on_c, 0, 77, 88
2, 114875, Note_on_c, 0, 77, 0
2, 114875, Note_on_c, 0, 71, 0
2, 114885, Note_on_c, 0, 66, 58
2, 114920, Note_on_c, 0, 66, 0
2, 114930, Note_on_c, 0, 71, 88
2, 114930, Note_on_c, 0, 77, 88
2, 114965, Note_on_c, 0, 77, 0
2, 114965, Note_on_c, 0, 71, 0
2, 114975, Note_on_c, 0, 66, 58
2, 115010, Note_on_c, 0, 66, 0
2, 115020, Note_on_c, 0, 83, 0
2, 115020, Note_on_c, 0, 85, 0
2, 115020, Note_on_c, 0, 66, 0
2, 115020, Note_on_c, 0, 87, 119
2, 115020, Note_on_c, 0, 83, 119
2, 115020, Note_on_c, 0, 78, 59
2, 115020, Note_on_c, 0, 71, 81
2, 115020, Note_on_c, 0, 78, 81
2, 115055, Note_on_c, 0, 71, 0
2, 115055, Note_on_c, 0, 78, 0
2, 115065, Note_on_c, 0, 68, 57
2, 115100, Note_on_c, 0, 68, 0
2, 115110, Note_on_c, 0, 71, 81
2, 115110, Note_on_c, 0, 78, 81
2, 115145, Note_on_c, 0, 71, 0
2, 115145, Note_on_c, 0, 78, 0
2, 115155, Note_on_c, 0, 68, 57
2, 115190, Note_on_c, 0, 68, 0
2, 115200, Note_on_c, 0, 83, 0
2, 115200, Note_on_c, 0, 85, 119
2, 115200, Note_on_c, 0, 71, 81
2, 115200, Note_on_c, 0, 78, 81
2, 115235, Note_on_c, 0, 71, 0
2, 115235, Note_on_c, 0, 78, 0
2, 115245, Note_on_c, 0, 68, 57
2, 115280, Note_on_c, 0, 68, 0
2, 115290, Note_on_c, 0, 71, 81
2, 115290, Note_on_c, 0, 78, 81
2, 115325, Note_on_c, 0, 71, 0
2, 115325, Note_on_c, 0, 78, 0
2, 115335, Note_on_c, 0, 68, 57
2, 115370, Note_on_c, 0, 68, 0
2, 115380, Note_on_c, 0, 78, 0
2, 115380, Note_on_c, 0, 85, 0
2, 115380, Note_on_c, 0, 87, 0
2, 115380, Note_on_c, 0, 90, 120
2, 115380, Note_on_c, 0, 87, 120
2, 115380, Note_on_c, 0, 77, 60
2, 115380, Note_on_c, 0, 71, 83
2, 115380, Note_on_c, 0, 80, 83
2, 115397, Note_on_c, 0, 80, 0
2, 115397, Note_on_c, 0, 71, 0
2, 115403, Note_on_c, 0, 68, 60
2, 115419, Note_on_c, 0, 68, 0
2, 115425, Note_on_c, 0, 71, 83
2, 115425, Note_on_c, 0, 80, 83
2, 115442, Note_on_c, 0, 80, 0
2, 115442, Note_on_c, 0, 71, 0
2, 115448, Note_on_c, 0, 68, 60
2, 115464, Note_on_c, 0, 68, 0
2, 115470, Note_on_c, 0, 77, 0
2, 115470, Note_on_c, 0, 75, 60
2, 115470, Note_on_c, 0, 71, 83
2, 115470, Note_on_c, 0, 80, 83
2, 115487, Note_on_c, 0, 80, 0
2, 115487, Note_on_c, 0, 71, 0
2, 115493, Note_on_c, 0, 68, 60
2, 115509, Note_on_c, 0, 68, 0
2, 115515, Note_on_c, 0, 71, 83
2, 115515, Note_on_c, 0, 80, 83
2, 115532, Note_on_c, 0, 80, 0
2, 115532, Note_on_c, 0, 71, 0
2, 115538, Note_on_c, 0, 68, 60
2, 115554, Note_on_c, 0, 68, 0
2, 115560, Note_on_c, 0, 75, 0
2, 115560, Note_on_c, 0, 87, 0
2, 115560, Note_on_c, 0, 90, 0
2, 115560, Note_on_c, 0, 94, 101
2, 115560, Note_on_c, 0, 82, 109
2, 115560, Note_on_c, 0, 94, 109
2, 115560, Note_on_c, 0, 62, 68
2, 115560, Note_on_c, 0, 68, 68
2, 115595, Note_on_c, 0, 68, 0
2, 115595, Note_on_c, 0, 62, 0
2, 115605, Note_on_c, 0, 58, 64
2, 115640, Note_on_c, 0, 58, 0
2, 115650, Note_on_c, 0, 62, 68
2, 115650, Note_on_c, 0, 68, 68
2, 115685, Note_on_c, 0, 68, 0
2, 115685, Note_on_c, 0, 62, 0
2, 115695, Note_on_c, 0, 58, 64
2, 115730, Note_on_c, 0, 58, 0
2, 115740, Note_on_c, 0, 62, 68
2, 115740, Note_on_c, 0, 68, 68
2, 115775, Note_on_c, 0, 68, 0
2, 115775, Note_on_c, 0, 62, 0
2, 115785, Note_on_c, 0, 58, 64
2, 115820, Note_on_c, 0, 58, 0
2, 115830, Note_on_c, 0, 94, 0
2, 115830, Note_on_c, 0, 93, 117
2, 115830, Note_on_c, 0, 62, 68
2, 115830, Note_on_c, 0, 68, 68
2, 115865, Note_on_c, 0, 68, 0
2, 115865, Note_on_c, 0, 62, 0
2, 115875, Note_on_c, 0, 58, 64
2, 115910, Note_on_c, 0, 58, 0
2, 115920, Note_on_c, 0, 93, 0
2, 115920, Note_on_c, 0, 92, 121
2, 115920, Note_on_c, 0, 62, 68
2, 115920, Note_on_c, 0, 68, 68
2, 115955, Note_on_c, 0, 68, 0
2, 115955, Note_on_c, 0, 62, 0
2, 115965, Note_on_c, 0, 58, 64
2, 116000, Note_on_c, 0, 58, 0
2, 116010, Note_on_c, 0, 92, 0
2, 116010, Note_on_c, 0, 91, 114
2, 116010, Note_on_c, 0, 62, 68
2, 116010, Note_on_c, 0, 68, 68
2, 116045, Note_on_c, 0, 68, 0
2, 116045, Note_on_c, 0, 62, 0
2, 116055, Note_on_c, 0, 58, 64
2, 116090, Note_on_c, 0, 58, 0
2, 116100, Note_on_c, 0, 91, 0
2, 116100, Note_on_c, 0, 90, 115
2, 116100, Note_on_c, 0, 62, 68
2, 116100, Note_on_c, 0, 68, 68
2, 116135, Note_on_c, 0, 68, 0
2, 116135, Note_on_c, 0, 62, 0
2, 116145, Note_on_c, 0, 58, 64
2, 116180, Note_on_c, 0, 58, 0
2, 116190, Note_on_c, 0, 62, 68
2, 116190, Note_on_c, 0, 68, 68
2, 116225, Note_on_c, 0, 68, 0
2, 116225, Note_on_c, 0, 62, 0
2, 116235, Note_on_c, 0, 58, 64
2, 116270, Note_on_c, 0, 58, 0
2, 116280, Note_on_c, 0, 62, 68
2, 116280, Note_on_c, 0, 68, 68
2, 116315, Note_on_c, 0, 68, 0
2, 116315, Note_on_c, 0, 62, 0
2, 116325, Note_on_c, 0, 58, 64
2, 116360, Note_on_c, 0, 58, 0
2, 116370, Note_on_c, 0, 62, 68
2, 116370, Note_on_c, 0, 68, 68
2, 116405, Note_on_c, 0, 68, 0
2, 116405, Note_on_c, 0, 62, 0
2, 116415, Note_on_c, 0, 58, 64
2, 116450, Note_on_c, 0, 58, 0
2, 116460, Note_on_c, 0, 90, 0
2, 116460, Note_on_c, 0, 94, 0
2, 116460, Note_on_c, 0, 82, 0
2, 116460, Note_on_c, 0, 89, 111
2, 116460, Note_on_c, 0, 81, 117
2, 116460, Note_on_c, 0, 93, 117
2, 116460, Note_on_c, 0, 62, 68
2, 116460, Note_on_c, 0, 68, 68
2, 116495, Note_on_c, 0, 68, 0
2, 116495, Note_on_c, 0, 62, 0
2, 116505, Note_on_c, 0, 58, 64
2, 116540, Note_on_c, 0, 58, 0
2, 116550, Note_on_c, 0, 93, 0
2, 116550, Note_on_c, 0, 81, 0
2, 116550, Note_on_c, 0, 89, 0
2, 116550, Note_on_c, 0, 88, 117
2, 116550, Note_on_c, 0, 80, 119
2, 116550, Note_on_c, 0, 92, 119
2, 116550, Note_on_c, 0, 62, 68
2, 116550, Note_on_c, 0, 68, 68
2, 116585, Note_on_c, 0, 68, 0
2, 116585, Note_on_c, 0, 62, 0
2, 116595, Note_on_c, 0, 58, 64
2, 116630, Note_on_c, 0, 58, 0
2, 116640, Note_on_c, 0, 92, 0
2, 116640, Note_on_c, 0, 80, 0
2, 116640, Note_on_c, 0, 88, 0
2, 116640, Note_on_c, 0, 87, 118
2, 116640, Note_on_c, 0, 80, 122
2, 116640, Note_on_c, 0, 92, 122
2, 116640, Note_on_c, 0, 63, 90
2, 116640, Note_on_c, 0, 69, 90
2, 116675, Note_on_c, 0, 69, 0
2, 116675, Note_on_c, 0, 63, 0
2, 116685, Note_on_c, 0, 59, 68
2, 116720, Note_on_c, 0, 59, 0
2, 116730, Note_on_c, 0, 87, 0
2, 116730, Note_on_c, 0, 86, 119
2, 116730, Note_on_c, 0, 63, 90
2, 116730, Note_on_c, 0, 69, 90
2, 116765, Note_on_c, 0, 69, 0
2, 116765, Note_on_c, 0, 63, 0
2, 116775, Note_on_c, 0, 59, 68
2, 116810, Note_on_c, 0, 59, 0
2, 116820, Note_on_c, 0, 86, 0
2, 116820, Note_on_c, 0, 85, 114
2, 116820, Note_on_c, 0, 63, 90
2, 116820, Note_on_c, 0, 69, 90
2, 116855, Note_on_c, 0, 69, 0
2, 116855, Note_on_c, 0, 63, 0
2, 116865, Note_on_c, 0, 59, 68
2, 116900, Note_on_c, 0, 59, 0
2, 116910, Note_on_c, 0, 85, 0
2, 116910, Note_on_c, 0, 84, 112
2, 116910, Note_on_c, 0, 63, 90
2, 116910, Note_on_c, 0, 69, 90
2, 116945, Note_on_c, 0, 69, 0
2, 116945, Note_on_c, 0, 63, 0
2, 116955, Note_on_c, 0, 59, 68
2, 116990, Note_on_c, 0, 59, 0
2, 117000, Note_on_c, 0, 84, 0
2, 117000, Note_on_c, 0, 92, 0
2, 117000, Note_on_c, 0, 80, 0
2, 117000, Note_on_c, 0, 83, 118
2, 117000, Note_on_c, 0, 78, 115
2, 117000, Note_on_c, 0, 90, 115
2, 117000, Note_on_c, 0, 63, 90
2, 117000, Note_on_c, 0, 69, 90
2, 117035, Note_on_c, 0, 69, 0
2, 117035, Note_on_c, 0, 63, 0
2, 117045, Note_on_c, 0, 59, 68
2, 117080, Note_on_c, 0, 59, 0
2, 117090, Note_on_c, 0, 63, 90
2, 117090, Note_on_c, 0, 69, 90
2, 117125, Note_on_c, 0, 69, 0
2, 117125, Note_on_c, 0, 63, 0
2, 117135, Note_on_c, 0, 59, 68
2, 117170, Note_on_c, 0, 59, 0
2, 117180, Note_on_c, 0, 90, 0
2, 117180, Note_on_c, 0, 78, 0
2, 117180, Note_on_c, 0, 83, 0
2, 117180, Note_on_c, 0, 94, 127
2, 117180, Note_on_c, 0, 82, 127
2, 117180, Note_on_c, 0, 94, 127
2, 117180, Note_on_c, 0, 64, 86
2, 117180, Note_on_c, 0, 70, 86
2, 117215, Note_on_c, 0, 70, 0
2, 117215, Note_on_c, 0, 64, 0
2, 117225, Note_on_c, 0, 60, 54
2, 117260, Note_on_c, 0, 60, 0
2, 117270, Note_on_c, 0, 64, 86
2, 117270, Note_on_c, 0, 70, 86
2, 117305, Note_on_c, 0, 70, 0
2, 117305, Note_on_c, 0, 64, 0
2, 117315, Note_on_c, 0, 60, 54
2, 117350, Note_on_c, 0, 60, 0
2, 117360, Note_on_c, 0, 64, 86
2, 117360, Note_on_c, 0, 70, 86
2, 117395, Note_on_c, 0, 70, 0
2, 117395, Note_on_c, 0, 64, 0
2, 117405, Note_on_c, 0, 60, 54
2, 117440, Note_on_c, 0, 60, 0
2, 117450, Note_on_c, 0, 94, 0
2, 117450, Note_on_c, 0, 93, 122
2, 117450, Note_on_c, 0, 64, 86
2, 117450, Note_on_c, 0, 70, 86
2, 117485, Note_on_c, 0, 70, 0
2, 117485, Note_on_c, 0, 64, 0
2, 117495, Note_on_c, 0, 60, 54
2, 117530, Note_on_c, 0, 60, 0
2, 117540, Note_on_c, 0, 93, 0
2, 117540, Note_on_c, 0, 92, 121
2, 117540, Note_on_c, 0, 64, 86
2, 117540, Note_on_c, 0, 70, 86
2, 117575, Note_on_c, 0, 70, 0
2, 117575, Note_on_c, 0, 64, 0
2, 117585, Note_on_c, 0, 60, 54
2, 117620, Note_on_c, 0, 60, 0
2, 117630, Note_on_c, 0, 92, 0
2, 117630, Note_on_c, 0, 91, 114
2, 117630, Note_on_c, 0, 64, 86
2, 117630, Note_on_c, 0, 70, 86
2, 117665, Note_on_c, 0, 70, 0
2, 117665, Note_on_c, 0, 64, 0
2, 117675, Note_on_c, 0, 60, 54
2, 117710, Note_on_c, 0, 60, 0
2, 117720, Note_on_c, 0, 91, 0
2, 117720, Note_on_c, 0, 90, 118
2, 117720, Note_on_c, 0, 64, 81
2, 117720, Note_on_c, 0, 70, 81
2, 117755, Note_on_c, 0, 70, 0
2, 117755, Note_on_c, 0, 64, 0
2, 117765, Note_on_c, 0, 60, 56
2, 117800, Note_on_c, 0, 60, 0
2, 117810, Note_on_c, 0, 64, 81
2, 117810, Note_on_c, 0, 70, 81
2, 117845, Note_on_c, 0, 70, 0
2, 117845, Note_on_c, 0, 64, 0
2, 117855, Note_on_c, 0, 60, 56
2, 117890, Note_on_c, 0, 60, 0
2, 117900, Note_on_c, 0, 64, 81
2, 117900, Note_on_c, 0, 70, 81
2, 117935, Note_on_c, 0, 70, 0
2, 117935, Note_on_c, 0, 64, 0
2, 117945, Note_on_c, 0, 60, 56
2, 117980, Note_on_c, 0, 60, 0
2, 117990, Note_on_c, 0, 64, 81
2, 117990, Note_on_c, 0, 70, 81
2, 118025, Note_on_c, 0, 70, 0
2, 118025, Note_on_c, 0, 64, 0
2, 118035, Note_on_c, 0, 60, 56
2, 118070, Note_on_c, 0, 60, 0
2, 118080, Note_on_c, 0, 90, 0
2, 118080, Note_on_c, 0, 94, 0
2, 118080, Note_on_c, 0, 82, 0
2, 118080, Note_on_c, 0, 89, 113
2, 118080, Note_on_c, 0, 81, 117
2, 118080, Note_on_c, 0, 93, 117
2, 118080, Note_on_c, 0, 65, 80
2, 118080, Note_on_c, 0, 70, 80
2, 118097, Note_on_c, 0, 70, 0
2, 118097, Note_on_c, 0, 65, 0
2, 118103, Note_on_c, 0, 60, 58
2, 118119, Note_on_c, 0, 60, 0
2, 118125, Note_on_c, 0, 65, 80
2, 118125, Note_on_c, 0, 70, 80
2, 118142, Note_on_c, 0, 70, 0
2, 118142, Note_on_c, 0, 65, 0
2, 118148, Note_on_c, 0, 60, 58
2, 118164, Note_on_c, 0, 60, 0
2, 118170, Note_on_c, 0, 93, 0
2, 118170, Note_on_c, 0, 81, 0
2, 118170, Note_on_c, 0, 89, 0
2, 118170, Note_on_c, 0, 88, 114
2, 118170, Note_on_c, 0, 80, 120
2, 118170, Note_on_c, 0, 92, 120
2, 118170, Note_on_c, 0, 65, 80
2, 118170, Note_on_c, 0, 70, 80
2, 118187, Note_on_c, 0, 70, 0
2, 118187, Note_on_c, 0, 65, 0
2, 118193, Note_on_c, 0, 60, 58
2, 118209, Note_on_c, 0, 60, 0
2, 118215, Note_on_c, 0, 65, 80
2, 118215, Note_on_c, 0, 70, 80
2, 118232, Note_on_c, 0, 70, 0
2, 118232, Note_on_c, 0, 65, 0
2, 118238, Note_on_c, 0, 60, 58
2, 118254, Note_on_c, 0, 60, 0
2, 118260, Note_on_c, 0, 92, 0
2, 118260, Note_on_c, 0, 80, 0
2, 118260, Note_on_c, 0, 88, 0
2, 118260, Note_on_c, 0, 87, 116
2, 118260, Note_on_c, 0, 80, 123
2, 118260, Note_on_c, 0, 92, 123
2, 118260, Note_on_c, 0, 66, 80
2, 118260, Note_on_c, 0, 70, 80
2, 118295, Note_on_c, 0, 70, 0
2, 118295, Note_on_c, 0, 66, 0
2, 118305, Note_on_c, 0, 61, 60
2, 118340, Note_on_c, 0, 61, 0
2, 118350, Note_on_c, 0, 87, 0
2, 118350, Note_on_c, 0, 86, 116
2, 118350, Note_on_c, 0, 66, 80
2, 118350, Note_on_c, 0, 70, 80
2, 118385, Note_on_c, 0, 70, 0
2, 118385, Note_on_c, 0, 66, 0
2, 118395, Note_on_c, 0, 61, 60
2, 118430, Note_on_c, 0, 61, 0
2, 118440, Note_on_c, 0, 86, 0
2, 118440, Note_on_c, 0, 85, 118
2, 118440, Note_on_c, 0, 66, 80
2, 118440, Note_on_c, 0, 70, 80
2, 118475, Note_on_c, 0, 70, 0
2, 118475, Note_on_c, 0, 66, 0
2, 118485, Note_on_c, 0, 61, 60
2, 118520, Note_on_c, 0, 61, 0
2, 118530, Note_on_c, 0, 85, 0
2, 118530, Note_on_c, 0, 84, 117
2, 118530, Note_on_c, 0, 66, 80
2, 118530, Note_on_c, 0, 70, 80
2, 118565, Note_on_c, 0, 70, 0
2, 118565, Note_on_c, 0, 66, 0
2, 118575, Note_on_c, 0, 61, 60
2, 118610, Note_on_c, 0, 61, 0
2, 118620, Note_on_c, 0, 84, 0
2, 118620, Note_on_c, 0, 92, 0
2, 118620, Note_on_c, 0, 80, 0
2, 118620, Note_on_c, 0, 83, 115
2, 118620, Note_on_c, 0, 78, 117
2, 118620, Note_on_c, 0, 90, 117
2, 118620, Note_on_c, 0, 66, 84
2, 118620, Note_on_c, 0, 71, 84
2, 118637, Note_on_c, 0, 71, 0
2, 118637, Note_on_c, 0, 66, 0
2, 118643, Note_on_c, 0, 61, 57
2, 118659, Note_on_c, 0, 61, 0
2, 118665, Note_on_c, 0, 66, 84
2, 118665, Note_on_c, 0, 71, 84
2, 118682, Note_on_c, 0, 71, 0
2, 118682, Note_on_c, 0, 66, 0
2, 118688, Note_on_c, 0, 61, 57
2, 118704, Note_on_c, 0, 61, 0
2, 118710, Note_on_c, 0, 66, 84
2, 118710, Note_on_c, 0, 71, 84
2, 118727, Note_on_c, 0, 71, 0
2, 118727, Note_on_c, 0, 66, 0
2, 118733, Note_on_c, 0, 61, 57
2, 118749, Note_on_c, 0, 61, 0
2, 118755, Note_on_c, 0, 66, 84
2, 118755, Note_on_c, 0, 71, 84
2, 118772, Note_on_c, 0, 71, 0
2, 118772, Note_on_c, 0, 66, 0
2, 118778, Note_on_c, 0, 61, 57
2, 118794, Note_on_c, 0, 61, 0
2, 118800, Note_on_c, 0, 90, 0
2, 118800, Note_on_c, 0, 78, 0
2, 118800, Note_on_c, 0, 83, 0
2, 118800, Note_on_c, 0, 82, 127
2, 118800, Note_on_c, 0, 94, 127
2, 118800, Note_on_c, 0, 66, 88
2, 118800, Note_on_c, 0, 72, 88
2, 118835, Note_on_c, 0, 72, 0
2, 118835, Note_on_c, 0, 66, 0
2, 118845, Note_on_c, 0, 62, 62
2, 118880, Note_on_c, 0, 62, 0
2, 118890, Note_on_c, 0, 66, 88
2, 118890, Note_on_c, 0, 72, 88
2, 118925, Note_on_c, 0, 72, 0
2, 118925, Note_on_c, 0, 66, 0
2, 118935, Note_on_c, 0, 62, 62
2, 118970, Note_on_c, 0, 62, 0
2, 118980, Note_on_c, 0, 94, 110
2, 118980, Note_on_c, 0, 66, 88
2, 118980, Note_on_c, 0, 72, 88
2, 119015, Note_on_c, 0, 72, 0
2, 119015, Note_on_c, 0, 66, 0
2, 119025, Note_on_c, 0, 62, 62
2, 119060, Note_on_c, 0, 62, 0
2, 119070, Note_on_c, 0, 94, 0
2, 119070, Note_on_c, 0, 93, 118
2, 119070, Note_on_c, 0, 66, 88
2, 119070, Note_on_c, 0, 72, 88
2, 119105, Note_on_c, 0, 72, 0
2, 119105, Note_on_c, 0, 66, 0
2, 119115, Note_on_c, 0, 62, 62
2, 119150, Note_on_c, 0, 62, 0
2, 119160, Note_on_c, 0, 93, 0
2, 119160, Note_on_c, 0, 92, 116
2, 119160, Note_on_c, 0, 66, 88
2, 119160, Note_on_c, 0, 72, 88
2, 119195, Note_on_c, 0, 72, 0
2, 119195, Note_on_c, 0, 66, 0
2, 119205, Note_on_c, 0, 62, 62
2, 119240, Note_on_c, 0, 62, 0
2, 119250, Note_on_c, 0, 92, 0
2, 119250, Note_on_c, 0, 91, 121
2, 119250, Note_on_c, 0, 66, 88
2, 119250, Note_on_c, 0, 72, 88
2, 119285, Note_on_c, 0, 72, 0
2, 119285, Note_on_c, 0, 66, 0
2, 119295, Note_on_c, 0, 62, 62
2, 119330, Note_on_c, 0, 62, 0
2, 119340, Note_on_c, 0, 91, 0
2, 119340, Note_on_c, 0, 90, 114
2, 119340, Note_on_c, 0, 66, 88
2, 119340, Note_on_c, 0, 72, 88
2, 119375, Note_on_c, 0, 72, 0
2, 119375, Note_on_c, 0, 66, 0
2, 119385, Note_on_c, 0, 62, 62
2, 119420, Note_on_c, 0, 62, 0
2, 119430, Note_on_c, 0, 66, 88
2, 119430, Note_on_c, 0, 72, 88
2, 119465, Note_on_c, 0, 72, 0
2, 119465, Note_on_c, 0, 66, 0
2, 119475, Note_on_c, 0, 62, 62
2, 119510, Note_on_c, 0, 62, 0
2, 119520, Note_on_c, 0, 66, 88
2, 119520, Note_on_c, 0, 72, 88
2, 119555, Note_on_c, 0, 72, 0
2, 119555, Note_on_c, 0, 66, 0
2, 119565, Note_on_c, 0, 62, 62
2, 119600, Note_on_c, 0, 62, 0
2, 119610, Note_on_c, 0, 66, 88
2, 119610, Note_on_c, 0, 72, 88
2, 119645, Note_on_c, 0, 72, 0
2, 119645, Note_on_c, 0, 66, 0
2, 119655, Note_on_c, 0, 62, 62
2, 119690, Note_on_c, 0, 62, 0
2, 119700, Note_on_c, 0, 90, 0
2, 119700, Note_on_c, 0, 94, 0
2, 119700, Note_on_c, 0, 82, 0
2, 119700, Note_on_c, 0, 89, 119
2, 119700, Note_on_c, 0, 81, 117
2, 119700, Note_on_c, 0, 93, 117
2, 119700, Note_on_c, 0, 66, 88
2, 119700, Note_on_c, 0, 72, 88
2, 119735, Note_on_c, 0, 72, 0
2, 119735, Note_on_c, 0, 66, 0
2, 119745, Note_on_c, 0, 62, 62
2, 119780, Note_on_c, 0, 62, 0
2, 119790, Note_on_c, 0, 93, 0
2, 119790, Note_on_c, 0, 81, 0
2, 119790, Note_on_c, 0, 89, 0
2, 119790, Note_on_c, 0, 88, 116
2, 119790, Note_on_c, 0, 80, 116
2, 119790, Note_on_c, 0, 92, 116
2, 119790, Note_on_c, 0, 66, 88
2, 119790, Note_on_c, 0, 72, 88
2, 119825, Note_on_c, 0, 72, 0
2, 119825, Note_on_c, 0, 66, 0
2, 119835, Note_on_c, 0, 62, 62
2, 119870, Note_on_c, 0, 62, 0
2, 119880, Note_on_c, 0, 92, 0
2, 119880, Note_on_c, 0, 80, 0
2, 119880, Note_on_c, 0, 88, 0
2, 119880, Note_on_c, 0, 87, 110
2, 119880, Note_on_c, 0, 80, 122
2, 119880, Note_on_c, 0, 92, 122
2, 119880, Note_on_c, 0, 66, 81
2, 119880, Note_on_c, 0, 71, 81
2, 119915, Note_on_c, 0, 71, 0
2, 119915, Note_on_c, 0, 66, 0
2, 119925, Note_on_c, 0, 63, 60
2, 119960, Note_on_c, 0, 63, 0
2, 119970, Note_on_c, 0, 87, 0
2, 119970, Note_on_c, 0, 86, 114
2, 119970, Note_on_c, 0, 66, 81
2, 119970, Note_on_c, 0, 71, 81
2, 120005, Note_on_c, 0, 71, 0
2, 120005, Note_on_c, 0, 66, 0
2, 120015, Note_on_c, 0, 63, 60
2, 120050, Note_on_c, 0, 63, 0
2, 120060, Note_on_c, 0, 86, 0
2, 120060, Note_on_c, 0, 85, 117
2, 120060, Note_on_c, 0, 66, 81
2, 120060, Note_on_c, 0, 71, 81
2, 120095, Note_on_c, 0, 71, 0
2, 120095, Note_on_c, 0, 66, 0
2, 120105, Note_on_c, 0, 63, 60
2, 120140, Note_on_c, 0, 63, 0
2, 120150, Note_on_c, 0, 85, 0
2, 120150, Note_on_c, 0, 84, 118
2, 120150, Note_on_c, 0, 66, 81
2, 120150, Note_on_c, 0, 71, 81
2, 120185, Note_on_c, 0, 71, 0
2, 120185, Note_on_c, 0, 66, 0
2, 120195, Note_on_c, 0, 63, 60
2, 120230, Note_on_c, 0, 63, 0
2, 120240, Note_on_c, 0, 84, 0
2, 120240, Note_on_c, 0, 92, 0
2, 120240, Note_on_c, 0, 80, 0
2, 120240, Note_on_c, 0, 83, 117
2, 120240, Note_on_c, 0, 78, 117
2, 120240, Note_on_c, 0, 90, 117
2, 120240, Note_on_c, 0, 66, 81
2, 120240, Note_on_c, 0, 71, 81
2, 120275, Note_on_c, 0, 71, 0
2, 120275, Note_on_c, 0, 66, 0
2, 120285, Note_on_c, 0, 63, 60
2, 120320, Note_on_c, 0, 63, 0
2, 120330, Note_on_c, 0, 66, 81
2, 120330, Note_on_c, 0, 71, 81
2, 120365, Note_on_c, 0, 71, 0
2, 120365, Note_on_c, 0, 66, 0
2, 120375, Note_on_c, 0, 63, 60
2, 120410, Note_on_c, 0, 63, 0
2, 120420, Note_on_c, 0, 90, 0
2, 120420, Note_on_c, 0, 78, 0
2, 120420, Note_on_c, 0, 83, 0
2, 120420, Note_on_c, 0, 82, 114
2, 120420, Note_on_c, 0, 94, 127
2, 120420, Note_on_c, 0, 67, 85
2, 120420, Note_on_c, 0, 72, 85
2, 120455, Note_on_c, 0, 72, 0
2, 120455, Note_on_c, 0, 67, 0
2, 120465, Note_on_c, 0, 64, 60
2, 120500, Note_on_c, 0, 64, 0
2, 120510, Note_on_c, 0, 67, 85
2, 120510, Note_on_c, 0, 72, 85
2, 120545, Note_on_c, 0, 72, 0
2, 120545, Note_on_c, 0, 67, 0
2, 120555, Note_on_c, 0, 64, 60
2, 120590, Note_on_c, 0, 64, 0
2, 120600, Note_on_c, 0, 82, 0
2, 120600, Note_on_c, 0, 94, 127
2, 120600, Note_on_c, 0, 67, 85
2, 120600, Note_on_c, 0, 72, 85
2, 120635, Note_on_c, 0, 72, 0
2, 120635, Note_on_c, 0, 67, 0
2, 120645, Note_on_c, 0, 64, 60
2, 120680, Note_on_c, 0, 64, 0
2, 120690, Note_on_c, 0, 67, 85
2, 120690, Note_on_c, 0, 72, 85
2, 120725, Note_on_c, 0, 72, 0
2, 120725, Note_on_c, 0, 67, 0
2, 120735, Note_on_c, 0, 64, 60
2, 120770, Note_on_c, 0, 64, 0
2, 120780, Note_on_c, 0, 94, 0
2, 120780, Note_on_c, 0, 94, 0
2, 120780, Note_on_c, 0, 93, 120
2, 120780, Note_on_c, 0, 85, 127
2, 120780, Note_on_c, 0, 97, 127
2, 120780, Note_on_c, 0, 67, 85
2, 120780, Note_on_c, 0, 72, 85
2, 120815, Note_on_c, 0, 72, 0
2, 120815, Note_on_c, 0, 67, 0
2, 120825, Note_on_c, 0, 64, 60
2, 120860, Note_on_c, 0, 64, 0
2, 120870, Note_on_c, 0, 93, 0
2, 120870, Note_on_c, 0, 92, 115
2, 120870, Note_on_c, 0, 67, 85
2, 120870, Note_on_c, 0, 72, 85
2, 120905, Note_on_c, 0, 72, 0
2, 120905, Note_on_c, 0, 67, 0
2, 120915, Note_on_c, 0, 64, 60
2, 120950, Note_on_c, 0, 64, 0
2, 120960, Note_on_c, 0, 92, 0
2, 120960, Note_on_c, 0, 90, 114
2, 120960, Note_on_c, 0, 68, 83
2, 120960, Note_on_c, 0, 73, 83
2, 120995, Note_on_c, 0, 73, 0
2, 120995, Note_on_c, 0, 68, 0
2, 121005, Note_on_c, 0, 64, 63
2, 121040, Note_on_c, 0, 64, 0
2, 121050, Note_on_c, 0, 68, 83
2, 121050, Note_on_c, 0, 73, 83
2, 121085, Note_on_c, 0, 73, 0
2, 121085, Note_on_c, 0, 68, 0
2, 121095, Note_on_c, 0, 64, 63
2, 121130, Note_on_c, 0, 64, 0
2, 121140, Note_on_c, 0, 68, 83
2, 121140, Note_on_c, 0, 73, 83
2, 121175, Note_on_c, 0, 73, 0
2, 121175, Note_on_c, 0, 68, 0
2, 121185, Note_on_c, 0, 64, 63
2, 121220, Note_on_c, 0, 64, 0
2, 121230, Note_on_c, 0, 68, 83
2, 121230, Note_on_c, 0, 73, 83
2, 121265, Note_on_c, 0, 73, 0
2, 121265, Note_on_c, 0, 68, 0
2, 121275, Note_on_c, 0, 64, 63
2, 121310, Note_on_c, 0, 64, 0
2, 121320, Note_on_c, 0, 90, 0
2, 121320, Note_on_c, 0, 97, 0
2, 121320, Note_on_c, 0, 85, 0
2, 121320, Note_on_c, 0, 92, 127
2, 121320, Note_on_c, 0, 84, 123
2, 121320, Note_on_c, 0, 96, 123
2, 121320, Note_on_c, 0, 68, 83
2, 121320, Note_on_c, 0, 73, 83
2, 121355, Note_on_c, 0, 73, 0
2, 121355, Note_on_c, 0, 68, 0
2, 121365, Note_on_c, 0, 64, 63
2, 121400, Note_on_c, 0, 64, 0
2, 121410, Note_on_c, 0, 92, 0
2, 121410, Note_on_c, 0, 90, 118
2, 121410, Note_on_c, 0, 68, 83
2, 121410, Note_on_c, 0, 73, 83
2, 121445, Note_on_c, 0, 73, 0
2, 121445, Note_on_c, 0, 68, 0
2, 121455, Note_on_c, 0, 64, 63
2, 121490, Note_on_c, 0, 64, 0
2, 121500, Note_on_c, 0, 90, 0
2, 121500, Note_on_c, 0, 96, 0
2, 121500, Note_on_c, 0, 84, 0
2, 121500, Note_on_c, 0, 90, 117
2, 121500, Note_on_c, 0, 83, 120
2, 121500, Note_on_c, 0, 95, 120
2, 121500, Note_on_c, 0, 68, 85
2, 121500, Note_on_c, 0, 74, 85
2, 121535, Note_on_c, 0, 74, 0
2, 121535, Note_on_c, 0, 68, 0
2, 121545, Note_on_c, 0, 64, 60
2, 121580, Note_on_c, 0, 64, 0
2, 121590, Note_on_c, 0, 90, 0
2, 121590, Note_on_c, 0, 89, 115
2, 121590, Note_on_c, 0, 68, 85
2, 121590, Note_on_c, 0, 74, 85
2, 121625, Note_on_c, 0, 74, 0
2, 121625, Note_on_c, 0, 68, 0
2, 121635, Note_on_c, 0, 64, 60
2, 121670, Note_on_c, 0, 64, 0
2, 121680, Note_on_c, 0, 89, 0
2, 121680, Note_on_c, 0, 88, 113
2, 121680, Note_on_c, 0, 68, 85
2, 121680, Note_on_c, 0, 74, 85
2, 121715, Note_on_c, 0, 74, 0
2, 121715, Note_on_c, 0, 68, 0
2, 121725, Note_on_c, 0, 64, 60
2, 121760, Note_on_c, 0, 64, 0
2, 121770, Note_on_c, 0, 88, 0
2, 121770, Note_on_c, 0, 87, 122
2, 121770, Note_on_c, 0, 68, 85
2, 121770, Note_on_c, 0, 74, 85
2, 121805, Note_on_c, 0, 74, 0
2, 121805, Note_on_c, 0, 68, 0
2, 121815, Note_on_c, 0, 64, 60
2, 121850, Note_on_c, 0, 64, 0
2, 121860, Note_on_c, 0, 87, 0
2, 121860, Note_on_c, 0, 95, 0
2, 121860, Note_on_c, 0, 83, 0
2, 121860, Note_on_c, 0, 86, 113
2, 121860, Note_on_c, 0, 82, 121
2, 121860, Note_on_c, 0, 94, 121
2, 121860, Note_on_c, 0, 68, 85
2, 121860, Note_on_c, 0, 74, 85
2, 121895, Note_on_c, 0, 74, 0
2, 121895, Note_on_c, 0, 68, 0
2, 121905, Note_on_c, 0, 64, 60
2, 121940, Note_on_c, 0, 64, 0
2, 121950, Note_on_c, 0, 68, 85
2, 121950, Note_on_c, 0, 74, 85
2, 121985, Note_on_c, 0, 74, 0
2, 121985, Note_on_c, 0, 68, 0
2, 121995, Note_on_c, 0, 64, 60
2, 122030, Note_on_c, 0, 64, 0
2, 122040, Note_on_c, 0, 94, 0
2, 122040, Note_on_c, 0, 82, 0
2, 122040, Note_on_c, 0, 86, 0
2, 122040, Note_on_c, 0, 82, 127
2, 122040, Note_on_c, 0, 94, 127
2, 122040, Note_on_c, 0, 58, 64
2, 122040, Note_on_c, 0, 63, 84
2, 122040, Note_on_c, 0, 67, 84
2, 122040, Note_on_c, 0, 75, 84
2, 122099, Note_on_c, 0, 75, 0
2, 122099, Note_on_c, 0, 63, 0
2, 122099, Note_on_c, 0, 67, 0
2, 122099, Note_on_c, 0, 58, 66
2, 122160, Note_on_c, 0, 58, 0
2, 122160, Note_on_c, 0, 55, 69
2, 122220, Note_on_c, 0, 55, 0
2, 122220, Note_on_c, 0, 46, 66
2, 122279, Note_on_c, 0, 46, 0
2, 122279, Note_on_c, 0, 39, 63
2, 122340, Note_on_c, 0, 39, 0
2, 122340, Note_on_c, 0, 46, 78
2, 122400, Note_on_c, 0, 46, 0
2, 122400, Note_on_c, 0, 82, 0
2, 122400, Note_on_c, 0, 94, 0
2, 122400, Note_on_c, 0, 81, 119
2, 122400, Note_on_c, 0, 93, 119
2, 122400, Note_on_c, 0, 55, 81
2, 122459, Note_on_c, 0, 55, 0
2, 122459, Note_on_c, 0, 58, 74
2, 122490, Note_on_c, 0, 93, 0
2, 122490, Note_on_c, 0, 81, 0
2, 122490, Note_on_c, 0, 80, 119
2, 122490, Note_on_c, 0, 92, 119
2, 122520, Note_on_c, 0, 58, 0
2, 122520, Note_on_c, 0, 63, 77
2, 122580, Note_on_c, 0, 63, 0
2, 122580, Note_on_c, 0, 92, 0
2, 122580, Note_on_c, 0, 80, 0
2, 122580, Note_on_c, 0, 58, 0
2, 122580, Note_on_c, 0, 80, 118
2, 122580, Note_on_c, 0, 92, 118
2, 122580, Note_on_c, 0, 60, 79
2, 122580, Note_on_c, 0, 60, 68
2, 122639, Note_on_c, 0, 60, 0
2, 122639, Note_on_c, 0, 67, 83
2, 122700, Note_on_c, 0, 67, 0
2, 122700, Note_on_c, 0, 58, 68
2, 122760, Note_on_c, 0, 58, 0
2, 122760, Note_on_c, 0, 80, 0
2, 122760, Note_on_c, 0, 92, 0
2, 122760, Note_on_c, 0, 79, 115
2, 122760, Note_on_c, 0, 91, 115
2, 122760, Note_on_c, 0, 55, 62
2, 122819, Note_on_c, 0, 55, 0
2, 122819, Note_on_c, 0, 46, 62
2, 122880, Note_on_c, 0, 46, 0
2, 122880, Note_on_c, 0, 39, 64
2, 122940, Note_on_c, 0, 39, 0
2, 122940, Note_on_c, 0, 46, 77
2, 122999, Note_on_c, 0, 46, 0
2, 122999, Note_on_c, 0, 55, 79
2, 123060, Note_on_c, 0, 55, 0
2, 123060, Note_on_c, 0, 58, 75
2, 123120, Note_on_c, 0, 58, 0
2, 123120, Note_on_c, 0, 60, 0
2, 123120, Note_on_c, 0, 62, 72
2, 123120, Note_on_c, 0, 62, 77
2, 123179, Note_on_c, 0, 62, 0
2, 123179, Note_on_c, 0, 67, 81
2, 123240, Note_on_c, 0, 67, 0
2, 123240, Note_on_c, 0, 58, 63
2, 123300, Note_on_c, 0, 58, 0
2, 123300, Note_on_c, 0, 55, 67
2, 123359, Note_on_c, 0, 55, 0
2, 123359, Note_on_c, 0, 46, 67
2, 123420, Note_on_c, 0, 46, 0
2, 123420, Note_on_c, 0, 39, 68
2, 123480, Note_on_c, 0, 39, 0
2, 123480, Note_on_c, 0, 79, 0
2, 123480, Note_on_c, 0, 91, 0
2, 123480, Note_on_c, 0, 75, 127
2, 123480, Note_on_c, 0, 87, 127
2, 123480, Note_on_c, 0, 46, 80
2, 123539, Note_on_c, 0, 46, 0
2, 123539, Note_on_c, 0, 55, 80
2, 123570, Note_on_c, 0, 87, 0
2, 123570, Note_on_c, 0, 75, 0
2, 123570, Note_on_c, 0, 74, 121
2, 123570, Note_on_c, 0, 86, 121
2, 123600, Note_on_c, 0, 55, 0
2, 123600, Note_on_c, 0, 58, 76
2, 123660, Note_on_c, 0, 58, 0
2, 123660, Note_on_c, 0, 86, 0
2, 123660, Note_on_c, 0, 74, 0
2, 123660, Note_on_c, 0, 62, 0
2, 123660, Note_on_c, 0, 73, 118
2, 123660, Note_on_c, 0, 82, 118
2, 123660, Note_on_c, 0, 85, 118
2, 123660, Note_on_c, 0, 63, 74
2, 123660, Note_on_c, 0, 63, 78
2, 123719, Note_on_c, 0, 63, 0
2, 123719, Note_on_c, 0, 67, 78
2, 123780, Note_on_c, 0, 67, 0
2, 123780, Note_on_c, 0, 58, 67
2, 123840, Note_on_c, 0, 58, 0
2, 123840, Note_on_c, 0, 55, 67
2, 123899, Note_on_c, 0, 55, 0
2, 123899, Note_on_c, 0, 46, 67
2, 123960, Note_on_c, 0, 46, 0
2, 123960, Note_on_c, 0, 39, 64
2, 124020, Note_on_c, 0, 39, 0
2, 124020, Note_on_c, 0, 73, 0
2, 124020, Note_on_c, 0, 85, 0
2, 124020, Note_on_c, 0, 82, 0
2, 124020, Note_on_c, 0, 72, 117
2, 124020, Note_on_c, 0, 81, 117
2, 124020, Note_on_c, 0, 84, 117
2, 124020, Note_on_c, 0, 46, 75
2, 124079, Note_on_c, 0, 46, 0
2, 124079, Note_on_c, 0, 55, 76
2, 124110, Note_on_c, 0, 81, 0
2, 124110, Note_on_c, 0, 84, 0
2, 124110, Note_on_c, 0, 72, 0
2, 124110, Note_on_c, 0, 71, 118
2, 124110, Note_on_c, 0, 80, 118
2, 124110, Note_on_c, 0, 83, 118
2, 124140, Note_on_c, 0, 55, 0
2, 124140, Note_on_c, 0, 58, 73
2, 124200, Note_on_c, 0, 58, 0
2, 124200, Note_on_c, 0, 83, 0
2, 124200, Note_on_c, 0, 63, 0
2, 124200, Note_on_c, 0, 71, 0
2, 124200, Note_on_c, 0, 80, 0
2, 124200, Note_on_c, 0, 70, 117
2, 124200, Note_on_c, 0, 79, 117
2, 124200, Note_on_c, 0, 82, 117
2, 124200, Note_on_c, 0, 65, 75
2, 124200, Note_on_c, 0, 62, 76
2, 124259, Note_on_c, 0, 62, 0
2, 124259, Note_on_c, 0, 70, 82
2, 124320, Note_on_c, 0, 70, 0
2, 124320, Note_on_c, 0, 58, 65
2, 124380, Note_on_c, 0, 58, 0
2, 124380, Note_on_c, 0, 55, 66
2, 124439, Note_on_c, 0, 55, 0
2, 124439, Note_on_c, 0, 46, 63
2, 124500, Note_on_c, 0, 46, 0
2, 124500, Note_on_c, 0, 39, 62
2, 124560, Note_on_c, 0, 39, 0
2, 124560, Note_on_c, 0, 79, 0
2, 124560, Note_on_c, 0, 70, 0
2, 124560, Note_on_c, 0, 82, 0
2, 124560, Note_on_c, 0, 69, 114
2, 124560, Note_on_c, 0, 81, 114
2, 124560, Note_on_c, 0, 46, 71
2, 124619, Note_on_c, 0, 46, 0
2, 124619, Note_on_c, 0, 55, 79
2, 124650, Note_on_c, 0, 81, 0
2, 124650, Note_on_c, 0, 69, 0
2, 124650, Note_on_c, 0, 68, 119
2, 124650, Note_on_c, 0, 80, 119
2, 124680, Note_on_c, 0, 55, 0
2, 124680, Note_on_c, 0, 58, 73
2, 124740, Note_on_c, 0, 58, 0
2, 124740, Note_on_c, 0, 80, 0
2, 124740, Note_on_c, 0, 68, 0
2, 124740, Note_on_c, 0, 65, 0
2, 124740, Note_on_c, 0, 67, 113
2, 124740, Note_on_c, 0, 79, 113
2, 124740, Note_on_c, 0, 67, 76
2, 124740, Note_on_c, 0, 63, 76
2, 124799, Note_on_c, 0, 63, 0
2, 124799, Note_on_c, 0, 63, 71
2, 124860, Note_on_c, 0, 63, 0
2, 124860, Note_on_c, 0, 58, 67
2, 124920, Note_on_c, 0, 58, 0
2, 124920, Note_on_c, 0, 55, 71
2, 124979, Note_on_c, 0, 55, 0
2, 124979, Note_on_c, 0, 46, 61
2, 125040, Note_on_c, 0, 46, 0
2, 125040, Note_on_c, 0, 39, 65
2, 125100, Note_on_c, 0, 39, 0
2, 125100, Note_on_c, 0, 79, 0
2, 125100, Note_on_c, 0, 67, 0
2, 125100, Note_on_c, 0, 58, 95
2, 125100, Note_on_c, 0, 70, 95
2, 125100, Note_on_c, 0, 46, 70
2, 125159, Note_on_c, 0, 46, 0
2, 125159, Note_on_c, 0, 55, 82
2, 125220, Note_on_c, 0, 55, 0
2, 125220, Note_on_c, 0, 58, 78
2, 125280, Note_on_c, 0, 58, 0
2, 125280, Note_on_c, 0, 67, 0
2, 125280, Note_on_c, 0, 58, 0
2, 125280, Note_on_c, 0, 70, 0
2, 125280, Note_on_c, 0, 65, 111
2, 125280, Note_on_c, 0, 68, 111
2, 125280, Note_on_c, 0, 63, 53
2, 125280, Note_on_c, 0, 39, 69
2, 125280, Note_on_c, 0, 46, 69
2, 125280, Note_on_c, 0, 54, 69
2, 125339, Note_on_c, 0, 54, 63
2, 125400, Note_on_c, 0, 54, 0
2, 125400, Note_on_c, 0, 58, 76
2, 125460, Note_on_c, 0, 58, 0
2, 125460, Note_on_c, 0, 63, 83
2, 125519, Note_on_c, 0, 63, 0
2, 125519, Note_on_c, 0, 66, 79
2, 125580, Note_on_c, 0, 66, 0
2, 125580, Note_on_c, 0, 71, 79
2, 125640, Note_on_c, 0, 71, 0
2, 125640, Note_on_c, 0, 75, 77
2, 125699, Note_on_c, 0, 75, 0
2, 125699, Note_on_c, 0, 78, 80
2, 125760, Note_on_c, 0, 78, 0
2, 125760, Note_on_c, 0, 82, 80
2, 125820, Note_on_c, 0, 82, 0
2, 125820, Note_on_c, 0, 63, 0
2, 125820, Note_on_c, 0, 65, 0
2, 125820, Note_on_c, 0, 68, 0
2, 125820, Note_on_c, 0, 67, 127
2, 125820, Note_on_c, 0, 71, 127
2, 125820, Note_on_c, 0, 62, 68
2, 125820, Note_on_c, 0, 67, 72
2, 125879, Note_on_c, 0, 39, 64
2, 125940, Note_on_c, 0, 39, 0
2, 125940, Note_on_c, 0, 42, 75
2, 126000, Note_on_c, 0, 42, 0
2, 126000, Note_on_c, 0, 46, 71
2, 126059, Note_on_c, 0, 46, 0
2, 126059, Note_on_c, 0, 51, 77
2, 126120, Note_on_c, 0, 51, 0
2, 126120, Note_on_c, 0, 54, 74
2, 126180, Note_on_c, 0, 54, 0
2, 126180, Note_on_c, 0, 62, 0
2, 126180, Note_on_c, 0, 60, 70
2, 126180, Note_on_c, 0, 58, 71
2, 126239, Note_on_c, 0, 58, 0
2, 126239, Note_on_c, 0, 63, 81
2, 126300, Note_on_c, 0, 63, 0
2, 126300, Note_on_c, 0, 66, 82
2, 126360, Note_on_c, 0, 66, 0
2, 126360, Note_on_c, 0, 60, 0
2, 126360, Note_on_c, 0, 71, 0
2, 126360, Note_on_c, 0, 67, 0
2, 126360, Note_on_c, 0, 68, 122
2, 126360, Note_on_c, 0, 71, 122
2, 126360, Note_on_c, 0, 59, 69
2, 126450, Note_on_c, 0, 46, 69
2, 126540, Note_on_c, 0, 46, 0
2, 126540, Note_on_c, 0, 51, 73
2, 126630, Note_on_c, 0, 51, 0
2, 126630, Note_on_c, 0, 54, 76
2, 126720, Note_on_c, 0, 54, 0
2, 126720, Note_on_c, 0, 59, 0
2, 126720, Note_on_c, 0, 58, 68
2, 126720, Note_on_c, 0, 58, 78
2, 126779, Note_on_c, 0, 58, 0
2, 126779, Note_on_c, 0, 63, 83
2, 126840, Note_on_c, 0, 63, 0
2, 126840, Note_on_c, 0, 71, 82
2, 126900, Note_on_c, 0, 71, 0
2, 126900, Note_on_c, 0, 58, 0
2, 126900, Note_on_c, 0, 67, 0
2, 126900, Note_on_c, 0, 39, 0
2, 126900, Note_on_c, 0, 68, 0
2, 126900, Note_on_c, 0, 46, 0
2, 126900, Note_on_c, 0, 71, 0
2, 126900, Note_on_c, 0, 54, 0
2, 126900, Note_on_c, 0, 70, 124
2, 126900, Note_on_c, 0, 73, 124
2, 126900, Note_on_c, 0, 58, 74
2, 126900, Note_on_c, 0, 66, 65
2, 126900, Note_on_c, 0, 37, 57
2, 126900, Note_on_c, 0, 37, 59
2, 126990, Note_on_c, 0, 37, 0
2, 126990, Note_on_c, 0, 44, 74
2, 127080, Note_on_c, 0, 44, 0
2, 127080, Note_on_c, 0, 54, 80
2, 127170, Note_on_c, 0, 54, 0
2, 127170, Note_on_c, 0, 59, 75
2, 127260, Note_on_c, 0, 59, 0
2, 127260, Note_on_c, 0, 58, 0
2, 127260, Note_on_c, 0, 56, 64
2, 127350, Note_on_c, 0, 66, 63
2, 127440, Note_on_c, 0, 66, 0
2, 127440, Note_on_c, 0, 70, 0
2, 127440, Note_on_c, 0, 73, 0
2, 127440, Note_on_c, 0, 71, 127
2, 127440, Note_on_c, 0, 75, 127
2, 127440, Note_on_c, 0, 56, 64
2, 127530, Note_on_c, 0, 56, 0
2, 127530, Note_on_c, 0, 59, 67
2, 127620, Note_on_c, 0, 59, 0
2, 127620, Note_on_c, 0, 56, 0
2, 127620, Note_on_c, 0, 58, 75
2, 127620, Note_on_c, 0, 66, 83
2, 127710, Note_on_c, 0, 66, 0
2, 127710, Note_on_c, 0, 68, 74
2, 127800, Note_on_c, 0, 68, 0
2, 127800, Note_on_c, 0, 58, 0
2, 127800, Note_on_c, 0, 59, 72
2, 127800, Note_on_c, 0, 71, 74
2, 127890, Note_on_c, 0, 71, 0
2, 127890, Note_on_c, 0, 75, 81
2, 127980, Note_on_c, 0, 75, 0
2, 127980, Note_on_c, 0, 71, 0
2, 127980, Note_on_c, 0, 75, 0
2, 127980, Note_on_c, 0, 37, 0
2, 127980, Note_on_c, 0, 66, 0
2, 127980, Note_on_c, 0, 59, 0
2, 127980, Note_on_c, 0, 77, 127
2, 127980, Note_on_c, 0, 65, 81
2, 127980, Note_on_c, 0, 73, 85
2, 127980, Note_on_c, 0, 59, 65
2, 127980, Note_on_c, 0, 49, 80
2, 128006, Note_on_c, 0, 82, 127
2, 128160, Note_on_c, 0, 59, 0
2, 128160, Note_on_c, 0, 61, 78
2, 128340, Note_on_c, 0, 61, 0
2, 128340, Note_on_c, 0, 82, 0
2, 128340, Note_on_c, 0, 73, 0
2, 128340, Note_on_c, 0, 77, 0
2, 128340, Note_on_c, 0, 75, 120
2, 128340, Note_on_c, 0, 80, 120
2, 128340, Note_on_c, 0, 71, 71
2, 128340, Note_on_c, 0, 63, 73
2, 128520, Note_on_c, 0, 63, 0
2, 128520, Note_on_c, 0, 65, 0
2, 128520, Note_on_c, 0, 75, 0
2, 128520, Note_on_c, 0, 49, 0
2, 128520, Note_on_c, 0, 71, 0
2, 128520, Note_on_c, 0, 80, 0
2, 128520, Note_on_c, 0, 73, 123
2, 128520, Note_on_c, 0, 61, 82
2, 128520, Note_on_c, 0, 59, 73
2, 128520, Note_on_c, 0, 42, 65
2, 128520, Note_on_c, 0, 50, 45
2, 128546, Note_on_c, 0, 77, 123
2, 128546, Note_on_c, 0, 70, 82
2, 128700, Note_on_c, 0, 50, 49
2, 128880, Note_on_c, 0, 50, 0
2, 128880, Note_on_c, 0, 51, 56
2, 129060, Note_on_c, 0, 51, 0
2, 129060, Note_on_c, 0, 70, 0
2, 129060, Note_on_c, 0, 68, 63
2, 129060, Note_on_c, 0, 53, 61
2, 129330, Note_on_c, 0, 73, 0
2, 129330, Note_on_c, 0, 77, 0
2, 129330, Note_on_c, 0, 71, 113
2, 129330, Note_on_c, 0, 75, 113
2, 129420, Note_on_c, 0, 53, 0
2, 129420, Note_on_c, 0, 61, 0
2, 129420, Note_on_c, 0, 68, 0
2, 129420, Note_on_c, 0, 63, 66
2, 129420, Note_on_c, 0, 66, 66
2, 129420, Note_on_c, 0, 54, 58
2, 129600, Note_on_c, 0, 54, 0
2, 129600, Note_on_c, 0, 75, 0
2, 129600, Note_on_c, 0, 59, 0
2, 129600, Note_on_c, 0, 71, 0
2, 129600, Note_on_c, 0, 66, 0
2, 129600, Note_on_c, 0, 50, 0
2, 129600, Note_on_c, 0, 63, 0
2, 129600, Note_on_c, 0, 68, 113
2, 129600, Note_on_c, 0, 71, 113
2, 129600, Note_on_c, 0, 61, 69
2, 129600, Note_on_c, 0, 65, 69
2, 129600, Note_on_c, 0, 59, 69
2, 129600, Note_on_c, 0, 56, 60
2, 129780, Note_on_c, 0, 56, 0
2, 129780, Note_on_c, 0, 58, 55
2, 129870, Note_on_c, 0, 61, 0
2, 129870, Note_on_c, 0, 65, 0
2, 129870, Note_on_c, 0, 59, 65
2, 129870, Note_on_c, 0, 63, 65
2, 129960, Note_on_c, 0, 68, 0
2, 129960, Note_on_c, 0, 71, 0
2, 129960, Note_on_c, 0, 58, 0
2, 129960, Note_on_c, 0, 66, 113
2, 129960, Note_on_c, 0, 70, 113
2, 129960, Note_on_c, 0, 59, 61
2, 130140, Note_on_c, 0, 59, 0
2, 130140, Note_on_c, 0, 66, 0
2, 130140, Note_on_c, 0, 59, 0
2, 130140, Note_on_c, 0, 63, 0
2, 130140, Note_on_c, 0, 42, 0
2, 130140, Note_on_c, 0, 70, 0
2, 130140, Note_on_c, 0, 59, 0
2, 130140, Note_on_c, 0, 70, 127
2, 130140, Note_on_c, 0, 62, 65
2, 130140, Note_on_c, 0, 66, 59
2, 130140, Note_on_c, 0, 58, 72
2, 130140, Note_on_c, 0, 46, 77
2, 130140, Note_on_c, 0, 56, 77
2, 130500, Note_on_c, 0, 66, 0
2, 130500, Note_on_c, 0, 65, 65
2, 130614, Note_on_c, 0, 70, 0
2, 130680, Note_on_c, 0, 68, 120
2, 130860, Note_on_c, 0, 62, 0
2, 130860, Note_on_c, 0, 62, 74
2, 131040, Note_on_c, 0, 62, 0
2, 131040, Note_on_c, 0, 68, 0
2, 131040, Note_on_c, 0, 65, 0
2, 131040, Note_on_c, 0, 63, 72
2, 131220, Note_on_c, 0, 58, 0
2, 131220, Note_on_c, 0, 56, 0
2, 131220, Note_on_c, 0, 46, 0
2, 131220, Note_on_c, 0, 82, 110
2, 131220, Note_on_c, 0, 66, 81
2, 131220, Note_on_c, 0, 58, 76
2, 131220, Note_on_c, 0, 46, 75
2, 131220, Note_on_c, 0, 56, 75
2, 131400, Note_on_c, 0, 78, 83
2, 131580, Note_on_c, 0, 78, 0
2, 131580, Note_on_c, 0, 82, 0
2, 131580, Note_on_c, 0, 66, 0
2, 131580, Note_on_c, 0, 63, 0
2, 131580, Note_on_c, 0, 58, 0
2, 131580, Note_on_c, 0, 80, 117
2, 131580, Note_on_c, 0, 68, 76
2, 131580, Note_on_c, 0, 77, 91
2, 131580, Note_on_c, 0, 62, 82
2, 131580, Note_on_c, 0, 65, 82
2, 131760, Note_on_c, 0, 65, 0
2, 131760, Note_on_c, 0, 77, 0
2, 131760, Note_on_c, 0, 56, 0
2, 131760, Note_on_c, 0, 80, 0
2, 131760, Note_on_c, 0, 46, 0
2, 131760, Note_on_c, 0, 62, 0
2, 131760, Note_on_c, 0, 68, 0
2, 131760, Note_on_c, 0, 73, 126
2, 131760, Note_on_c, 0, 77, 126
2, 131760, Note_on_c, 0, 61, 63
2, 131760, Note_on_c, 0, 71, 57
2, 131760, Note_on_c, 0, 59, 65
2, 131760, Note_on_c, 0, 42, 65
2, 131760, Note_on_c, 0, 49, 65
2, 131760, Note_on_c, 0, 61, 62
2, 132120, Note_on_c, 0, 71, 0
2, 132120, Note_on_c, 0, 61, 0
2, 132120, Note_on_c, 0, 68, 78
2, 132120, Note_on_c, 0, 51, 50
2, 132300, Note_on_c, 0, 51, 0
2, 132300, Note_on_c, 0, 53, 58
2, 132480, Note_on_c, 0, 53, 0
2, 132480, Note_on_c, 0, 73, 0
2, 132480, Note_on_c, 0, 77, 0
2, 132480, Note_on_c, 0, 71, 114
2, 132480, Note_on_c, 0, 75, 114
2, 132480, Note_on_c, 0, 54, 58
2, 132660, Note_on_c, 0, 54, 0
2, 132660, Note_on_c, 0, 75, 0
2, 132660, Note_on_c, 0, 61, 0
2, 132660, Note_on_c, 0, 68, 0
2, 132660, Note_on_c, 0, 71, 0
2, 132660, Note_on_c, 0, 68, 108
2, 132660, Note_on_c, 0, 71, 108
2, 132660, Note_on_c, 0, 63, 68
2, 132660, Note_on_c, 0, 67, 68
2, 132660, Note_on_c, 0, 55, 58
2, 132840, Note_on_c, 0, 55, 0
2, 132840, Note_on_c, 0, 67, 0
2, 132840, Note_on_c, 0, 59, 0
2, 132840, Note_on_c, 0, 68, 0
2, 132840, Note_on_c, 0, 49, 0
2, 132840, Note_on_c, 0, 71, 0
2, 132840, Note_on_c, 0, 68, 121
2, 132840, Note_on_c, 0, 71, 121
2, 132840, Note_on_c, 0, 66, 68
2, 132840, Note_on_c, 0, 56, 69
2, 133020, Note_on_c, 0, 56, 0
2, 133020, Note_on_c, 0, 63, 0
2, 133020, Note_on_c, 0, 66, 0
2, 133020, Note_on_c, 0, 61, 64
2, 133020, Note_on_c, 0, 65, 64
2, 133020, Note_on_c, 0, 58, 72
2, 133200, Note_on_c, 0, 58, 0
2, 133200, Note_on_c, 0, 71, 0
2, 133200, Note_on_c, 0, 68, 0
2, 133200, Note_on_c, 0, 61, 0
2, 133200, Note_on_c, 0, 65, 0
2, 133200, Note_on_c, 0, 66, 122
2, 133200, Note_on_c, 0, 70, 122
2, 133200, Note_on_c, 0, 59, 65
2, 133200, Note_on_c, 0, 63, 65
2, 133200, Note_on_c, 0, 59, 75
2, 133380, Note_on_c, 0, 59, 0
2, 133380, Note_on_c, 0, 66, 0
2, 133380, Note_on_c, 0, 70, 0
2, 133380, Note_on_c, 0, 42, 0
2, 133380, Note_on_c, 0, 63, 0
2, 133380, Note_on_c, 0, 59, 0
2, 133380, Note_on_c, 0, 66, 118
2, 133380, Note_on_c, 0, 70, 118
2, 133380, Note_on_c, 0, 58, 69
2, 133380, Note_on_c, 0, 62, 69
2, 133380, Note_on_c, 0, 56, 68
2, 133380, Note_on_c, 0, 46, 74
2, 133740, Note_on_c, 0, 70, 0
2, 133740, Note_on_c, 0, 66, 0
2, 133740, Note_on_c, 0, 65, 111
2, 133740, Note_on_c, 0, 68, 111
2, 133920, Note_on_c, 0, 68, 0
2, 133920, Note_on_c, 0, 58, 0
2, 133920, Note_on_c, 0, 62, 0
2, 133920, Note_on_c, 0, 65, 0
2, 133920, Note_on_c, 0, 70, 127
2, 133920, Note_on_c, 0, 63, 72
2, 133920, Note_on_c, 0, 65, 66
2, 134100, Note_on_c, 0, 63, 0
2, 134100, Note_on_c, 0, 70, 0
2, 134100, Note_on_c, 0, 74, 127
2, 134100, Note_on_c, 0, 62, 68
2, 134280, Note_on_c, 0, 62, 0
2, 134280, Note_on_c, 0, 56, 0
2, 134280, Note_on_c, 0, 74, 0
2, 134280, Note_on_c, 0, 77, 127
2, 134280, Note_on_c, 0, 61, 67
2, 134280, Note_on_c, 0, 55, 69
2, 134460, Note_on_c, 0, 55, 0
2, 134460, Note_on_c, 0, 77, 0
2, 134460, Note_on_c, 0, 65, 0
2, 134460, Note_on_c, 0, 46, 0
2, 134460, Note_on_c, 0, 61, 0
2, 134460, Note_on_c, 0, 82, 127
2, 134460, Note_on_c, 0, 70, 82
2, 134460, Note_on_c, 0, 60, 83
2, 134460, Note_on_c, 0, 44, 79
2, 134486, Note_on_c, 0, 66, 83
2, 134486, Note_on_c, 0, 54, 79
2, 134640, Note_on_c, 0, 66, 0
2, 134640, Note_on_c, 0, 60, 0
2, 134640, Note_on_c, 0, 65, 69
2, 134820, Note_on_c, 0, 65, 0
2, 134820, Note_on_c, 0, 82, 0
2, 134820, Note_on_c, 0, 78, 113
2, 134820, Note_on_c, 0, 66, 69
2, 135000, Note_on_c, 0, 66, 0
2, 135000, Note_on_c, 0, 70, 0
2, 135000, Note_on_c, 0, 54, 0
2, 135000, Note_on_c, 0, 44, 0
2, 135000, Note_on_c, 0, 78, 0
2, 135000, Note_on_c, 0, 78, 124
2, 135000, Note_on_c, 0, 61, 66
2, 135000, Note_on_c, 0, 67, 66
2, 135000, Note_on_c, 0, 71, 104
2, 135000, Note_on_c, 0, 38, 68
2, 135000, Note_on_c, 0, 45, 68
2, 135000, Note_on_c, 0, 55, 55
2, 135035, Note_on_c, 0, 71, 0
2, 135045, Note_on_c, 0, 67, 80
2, 135080, Note_on_c, 0, 67, 0
2, 135090, Note_on_c, 0, 71, 104
2, 135125, Note_on_c, 0, 71, 0
2, 135135, Note_on_c, 0, 67, 80
2, 135170, Note_on_c, 0, 67, 0
2, 135180, Note_on_c, 0, 71, 104
2, 135180, Note_on_c, 0, 45, 69
2, 135215, Note_on_c, 0, 71, 0
2, 135225, Note_on_c, 0, 67, 80
2, 135260, Note_on_c, 0, 67, 0
2, 135270, Note_on_c, 0, 71, 104
2, 135305, Note_on_c, 0, 71, 0
2, 135315, Note_on_c, 0, 67, 80
2, 135350, Note_on_c, 0, 67, 0
2, 135360, Note_on_c, 0, 45, 0
2, 135360, Note_on_c, 0, 71, 104
2, 135360, Note_on_c, 0, 47, 74
2, 135395, Note_on_c, 0, 71, 0
2, 135405, Note_on_c, 0, 67, 80
2, 135440, Note_on_c, 0, 67, 0
2, 135450, Note_on_c, 0, 71, 104
2, 135485, Note_on_c, 0, 71, 0
2, 135495, Note_on_c, 0, 67, 80
2, 135530, Note_on_c, 0, 67, 0
2, 135540, Note_on_c, 0, 47, 0
2, 135540, Note_on_c, 0, 78, 0
2, 135540, Note_on_c, 0, 76, 110
2, 135540, Note_on_c, 0, 71, 104
2, 135540, Note_on_c, 0, 49, 78
2, 135575, Note_on_c, 0, 71, 0
2, 135585, Note_on_c, 0, 67, 80
2, 135620, Note_on_c, 0, 67, 0
2, 135630, Note_on_c, 0, 71, 104
2, 135665, Note_on_c, 0, 71, 0
2, 135675, Note_on_c, 0, 67, 80
2, 135710, Note_on_c, 0, 67, 0
2, 135720, Note_on_c, 0, 49, 0
2, 135720, Note_on_c, 0, 55, 0
2, 135720, Note_on_c, 0, 71, 104
2, 135720, Note_on_c, 0, 52, 71
2, 135755, Note_on_c, 0, 71, 0
2, 135765, Note_on_c, 0, 67, 80
2, 135800, Note_on_c, 0, 67, 0
2, 135810, Note_on_c, 0, 71, 104
2, 135845, Note_on_c, 0, 71, 0
2, 135855, Note_on_c, 0, 67, 80
2, 135890, Note_on_c, 0, 67, 0
2, 135900, Note_on_c, 0, 52, 0
2, 135900, Note_on_c, 0, 76, 0
2, 135900, Note_on_c, 0, 71, 104
2, 135900, Note_on_c, 0, 73, 110
2, 135900, Note_on_c, 0, 55, 71
2, 135935, Note_on_c, 0, 71, 0
2, 135945, Note_on_c, 0, 67, 80
2, 135980, Note_on_c, 0, 67, 0
2, 135990, Note_on_c, 0, 71, 104
2, 136025, Note_on_c, 0, 71, 0
2, 136035, Note_on_c, 0, 67, 80
2, 136070, Note_on_c, 0, 67, 0
2, 136080, Note_on_c, 0, 55, 0
2, 136080, Note_on_c, 0, 61, 0
2, 136080, Note_on_c, 0, 67, 0
2, 136080, Note_on_c, 0, 64, 66
2, 136080, Note_on_c, 0, 67, 88
2, 136080, Note_on_c, 0, 59, 69
2, 136260, Note_on_c, 0, 59, 0
2, 136260, Note_on_c, 0, 61, 74
2, 136440, Note_on_c, 0, 61, 0
2, 136440, Note_on_c, 0, 64, 0
2, 136440, Note_on_c, 0, 73, 0
2, 136440, Note_on_c, 0, 71, 115
2, 136440, Note_on_c, 0, 62, 64
2, 136620, Note_on_c, 0, 62, 0
2, 136620, Note_on_c, 0, 45, 0
2, 136620, Note_on_c, 0, 38, 0
2, 136620, Note_on_c, 0, 67, 0
2, 136620, Note_on_c, 0, 71, 0
2, 136620, Note_on_c, 0, 71, 123
2, 136620, Note_on_c, 0, 67, 81
2, 136620, Note_on_c, 0, 61, 45
2, 136620, Note_on_c, 0, 63, 67
2, 136620, Note_on_c, 0, 38, 69
2, 136620, Note_on_c, 0, 45, 69
2, 136620, Note_on_c, 0, 55, 57
2, 136980, Note_on_c, 0, 63, 0
2, 136980, Note_on_c, 0, 71, 0
2, 136980, Note_on_c, 0, 69, 114
2, 136980, Note_on_c, 0, 64, 71
2, 137160, Note_on_c, 0, 64, 0
2, 137160, Note_on_c, 0, 67, 0
2, 137160, Note_on_c, 0, 69, 0
2, 137160, Note_on_c, 0, 83, 127
2, 137160, Note_on_c, 0, 83, 90
2, 137160, Note_on_c, 0, 67, 76
2, 137160, Note_on_c, 0, 61, 57
2, 137340, Note_on_c, 0, 61, 0
2, 137340, Note_on_c, 0, 63, 50
2, 137520, Note_on_c, 0, 63, 0
2, 137520, Note_on_c, 0, 64, 51
2, 137700, Note_on_c, 0, 64, 0
2, 137700, Note_on_c, 0, 61, 0
2, 137700, Note_on_c, 0, 38, 0
2, 137700, Note_on_c, 0, 45, 0
2, 137700, Note_on_c, 0, 55, 0
2, 137700, Note_on_c, 0, 67, 0
2, 137700, Note_on_c, 0, 66, 70
2, 137700, Note_on_c, 0, 50, 87
2, 137700, Note_on_c, 0, 60, 87
2, 137880, Note_on_c, 0, 66, 0
2, 137880, Note_on_c, 0, 83, 0
2, 137880, Note_on_c, 0, 79, 65
2, 137880, Note_on_c, 0, 67, 58
2, 137880, Note_on_c, 0, 64, 61
2, 138060, Note_on_c, 0, 64, 0
2, 138060, Note_on_c, 0, 79, 0
2, 138060, Note_on_c, 0, 83, 0
2, 138060, Note_on_c, 0, 67, 0
2, 138060, Note_on_c, 0, 81, 118
2, 138060, Note_on_c, 0, 78, 64
2, 138060, Note_on_c, 0, 69, 56
2, 138060, Note_on_c, 0, 63, 66
2, 138240, Note_on_c, 0, 63, 0
2, 138240, Note_on_c, 0, 50, 0
2, 138240, Note_on_c, 0, 81, 0
2, 138240, Note_on_c, 0, 60, 0
2, 138240, Note_on_c, 0, 69, 0
2, 138240, Note_on_c, 0, 78, 0
2, 138240, Note_on_c, 0, 74, 114
2, 138240, Note_on_c, 0, 78, 114
2, 138240, Note_on_c, 0, 66, 57
2, 138240, Note_on_c, 0, 71, 66
2, 138240, Note_on_c, 0, 62, 63
2, 138240, Note_on_c, 0, 43, 70
2, 138240, Note_on_c, 0, 50, 70
2, 138240, Note_on_c, 0, 60, 70
2, 138600, Note_on_c, 0, 62, 0
2, 138600, Note_on_c, 0, 71, 0
2, 138600, Note_on_c, 0, 70, 57
2, 138600, Note_on_c, 0, 52, 62
2, 138780, Note_on_c, 0, 52, 0
2, 138780, Note_on_c, 0, 54, 76
2, 138960, Note_on_c, 0, 54, 0
2, 138960, Note_on_c, 0, 70, 0
2, 138960, Note_on_c, 0, 69, 58
2, 138960, Note_on_c, 0, 55, 71
2, 139140, Note_on_c, 0, 55, 0
2, 139140, Note_on_c, 0, 69, 0
2, 139140, Note_on_c, 0, 74, 0
2, 139140, Note_on_c, 0, 66, 0
2, 139140, Note_on_c, 0, 78, 0
2, 139140, Note_on_c, 0, 72, 116
2, 139140, Note_on_c, 0, 76, 116
2, 139140, Note_on_c, 0, 64, 63
2, 139140, Note_on_c, 0, 68, 58
2, 139140, Note_on_c, 0, 56, 69
2, 139320, Note_on_c, 0, 56, 0
2, 139320, Note_on_c, 0, 68, 0
2, 139320, Note_on_c, 0, 76, 0
2, 139320, Note_on_c, 0, 50, 0
2, 139320, Note_on_c, 0, 60, 0
2, 139320, Note_on_c, 0, 72, 0
2, 139320, Note_on_c, 0, 64, 0
2, 139320, Note_on_c, 0, 69, 108
2, 139320, Note_on_c, 0, 72, 108
2, 139320, Note_on_c, 0, 64, 68
2, 139320, Note_on_c, 0, 67, 57
2, 139320, Note_on_c, 0, 57, 71
2, 139320, Note_on_c, 0, 52, 65
2, 139500, Note_on_c, 0, 57, 0
2, 139500, Note_on_c, 0, 59, 75
2, 139680, Note_on_c, 0, 59, 0
2, 139680, Note_on_c, 0, 67, 0
2, 139680, Note_on_c, 0, 69, 0
2, 139680, Note_on_c, 0, 72, 0
2, 139680, Note_on_c, 0, 64, 0
2, 139680, Note_on_c, 0, 67, 114
2, 139680, Note_on_c, 0, 71, 114
2, 139680, Note_on_c, 0, 64, 55
2, 139680, Note_on_c, 0, 60, 73
2, 139860, Note_on_c, 0, 60, 0
2, 139860, Note_on_c, 0, 43, 0
2, 139860, Note_on_c, 0, 67, 0
2, 139860, Note_on_c, 0, 52, 0
2, 139860, Note_on_c, 0, 64, 0
2, 139860, Note_on_c, 0, 71, 0
2, 139860, Note_on_c, 0, 71, 120
2, 139860, Note_on_c, 0, 63, 63
2, 139860, Note_on_c, 0, 67, 69
2, 139860, Note_on_c, 0, 47, 70
2, 139860, Note_on_c, 0, 57, 70
2, 140220, Note_on_c, 0, 67, 0
2, 140220, Note_on_c, 0, 66, 55
2, 140400, Note_on_c, 0, 66, 0
2, 140400, Note_on_c, 0, 71, 0
2, 140400, Note_on_c, 0, 63, 0
2, 140400, Note_on_c, 0, 69, 116
2, 140400, Note_on_c, 0, 63, 74
2, 140580, Note_on_c, 0, 63, 0
2, 140580, Note_on_c, 0, 57, 0
2, 140580, Note_on_c, 0, 47, 0
2, 140580, Note_on_c, 0, 64, 74
2, 140760, Note_on_c, 0, 64, 0
2, 140760, Note_on_c, 0, 66, 76
2, 140940, Note_on_c, 0, 66, 0
2, 140940, Note_on_c, 0, 69, 0
2, 140940, Note_on_c, 0, 71, 127
2, 140940, Note_on_c, 0, 67, 79
2, 141120, Note_on_c, 0, 67, 0
2, 141120, Note_on_c, 0, 69, 70
2, 141300, Note_on_c, 0, 69, 0
2, 141300, Note_on_c, 0, 71, 0
2, 141300, Note_on_c, 0, 74, 127
2, 141300, Note_on_c, 0, 71, 75
2, 141480, Note_on_c, 0, 71, 0
2, 141480, Note_on_c, 0, 74, 0
2, 141480, Note_on_c, 0, 65, 116
2, 141480, Note_on_c, 0, 69, 116
2, 141480, Note_on_c, 0, 72, 116
2, 142560, Note_on_c, 0, 64, 68
2, 142740, Note_on_c, 0, 60, 68
2, 142920, Note_on_c, 0, 60, 0
2, 142920, Note_on_c, 0, 64, 79
2, 143100, Note_on_c, 0, 64, 0
2, 143100, Note_on_c, 0, 65, 74
2, 143460, Note_on_c, 0, 65, 0
2, 143640, Note_on_c, 0, 64, 0
2, 143640, Note_on_c, 0, 62, 67
2, 143820, Note_on_c, 0, 60, 63
2, 144000, Note_on_c, 0, 60, 0
2, 144000, Note_on_c, 0, 64, 78
2, 144180, Note_on_c, 0, 64, 0
2, 144180, Note_on_c, 0, 65, 76
2, 144360, Note_on_c, 0, 65, 0
2, 144360, Note_on_c, 0, 60, 67
2, 144540, Note_on_c, 0, 60, 0
2, 144540, Note_on_c, 0, 64, 76
2, 144720, Note_on_c, 0, 64, 0
2, 144720, Note_on_c, 0, 62, 0
2, 144720, Note_on_c, 0, 69, 0
2, 144720, Note_on_c, 0, 72, 0
2, 144720, Note_on_c, 0, 65, 0
2, 144720, Note_on_c, 0, 65, 122
2, 144720, Note_on_c, 0, 69, 122
2, 144720, Note_on_c, 0, 72, 122
2, 144720, Note_on_c, 0, 60, 65
2, 144720, Note_on_c, 0, 53, 67
2, 144720, Note_on_c, 0, 57, 67
2, 144720, Note_on_c, 0, 63, 67
2, 144855, Note_on_c, 0, 60, 0
2, 144855, Note_on_c, 0, 59, 67
2, 144990, Note_on_c, 0, 59, 0
2, 144990, Note_on_c, 0, 60, 73
2, 144990, Note_on_c, 0, 35, 61
2, 144990, Note_on_c, 0, 41, 61
2, 145125, Note_on_c, 0, 60, 0
2, 145125, Note_on_c, 0, 57, 70
2, 145260, Note_on_c, 0, 41, 0
2, 145260, Note_on_c, 0, 35, 0
2, 145260, Note_on_c, 0, 57, 0
2, 145260, Note_on_c, 0, 60, 74
2, 145260, Note_on_c, 0, 53, 81
2, 145260, Note_on_c, 0, 57, 81
2, 145260, Note_on_c, 0, 63, 81
2, 145395, Note_on_c, 0, 60, 0
2, 145395, Note_on_c, 0, 55, 68
2, 145530, Note_on_c, 0, 55, 0
2, 145530, Note_on_c, 0, 57, 0
2, 145530, Note_on_c, 0, 53, 0
2, 145530, Note_on_c, 0, 63, 0
2, 145530, Note_on_c, 0, 60, 80
2, 145530, Note_on_c, 0, 35, 67
2, 145530, Note_on_c, 0, 41, 67
2, 145665, Note_on_c, 0, 60, 0
2, 145665, Note_on_c, 0, 53, 64
2, 145800, Note_on_c, 0, 53, 0
2, 145800, Note_on_c, 0, 35, 0
2, 145800, Note_on_c, 0, 53, 0
2, 145800, Note_on_c, 0, 41, 0
2, 145800, Note_on_c, 0, 57, 0
2, 145800, Note_on_c, 0, 63, 0
2, 145800, Note_on_c, 0, 60, 79
2, 145800, Note_on_c, 0, 53, 70
2, 145800, Note_on_c, 0, 57, 70
2, 145800, Note_on_c, 0, 63, 70
2, 145980, Note_on_c, 0, 60, 0
2, 145980, Note_on_c, 0, 60, 70
2, 146160, Note_on_c, 0, 60, 0
2, 146160, Note_on_c, 0, 64, 76
2, 146340, Note_on_c, 0, 64, 0
2, 146340, Note_on_c, 0, 57, 0
2, 146340, Note_on_c, 0, 65, 0
2, 146340, Note_on_c, 0, 72, 0
2, 146340, Note_on_c, 0, 69, 0
2, 146340, Note_on_c, 0, 63, 0
2, 146340, Note_on_c, 0, 53, 0
2, 146340, Note_on_c, 0, 65, 122
2, 146340, Note_on_c, 0, 69, 122
2, 146340, Note_on_c, 0, 72, 122
2, 146340, Note_on_c, 0, 60, 65
2, 146340, Note_on_c, 0, 53, 73
2, 146340, Note_on_c, 0, 57, 73
2, 146340, Note_on_c, 0, 63, 73
2, 146475, Note_on_c, 0, 60, 0
2, 146475, Note_on_c, 0, 59, 71
2, 146610, Note_on_c, 0, 59, 0
2, 146610, Note_on_c, 0, 60, 73
2, 146610, Note_on_c, 0, 35, 65
2, 146610, Note_on_c, 0, 41, 65
2, 146745, Note_on_c, 0, 60, 0
2, 146745, Note_on_c, 0, 57, 69
2, 146880, Note_on_c, 0, 41, 0
2, 146880, Note_on_c, 0, 35, 0
2, 146880, Note_on_c, 0, 57, 0
2, 146880, Note_on_c, 0, 60, 79
2, 146880, Note_on_c, 0, 53, 89
2, 146880, Note_on_c, 0, 57, 89
2, 146880, Note_on_c, 0, 63, 89
2, 147015, Note_on_c, 0, 60, 0
2, 147015, Note_on_c, 0, 55, 65
2, 147150, Note_on_c, 0, 55, 0
2, 147150, Note_on_c, 0, 57, 0
2, 147150, Note_on_c, 0, 53, 0
2, 147150, Note_on_c, 0, 63, 0
2, 147150, Note_on_c, 0, 60, 76
2, 147150, Note_on_c, 0, 35, 68
2, 147150, Note_on_c, 0, 41, 68
2, 147285, Note_on_c, 0, 60, 0
2, 147285, Note_on_c, 0, 53, 66
2, 147420, Note_on_c, 0, 53, 0
2, 147420, Note_on_c, 0, 35, 0
2, 147420, Note_on_c, 0, 53, 0
2, 147420, Note_on_c, 0, 41, 0
2, 147420, Note_on_c, 0, 57, 0
2, 147420, Note_on_c, 0, 63, 0
2, 147420, Note_on_c, 0, 60, 82
2, 147420, Note_on_c, 0, 53, 72
2, 147420, Note_on_c, 0, 57, 72
2, 147420, Note_on_c, 0, 63, 72
2, 147600, Note_on_c, 0, 60, 0
2, 147600, Note_on_c, 0, 60, 72
2, 147780, Note_on_c, 0, 60, 0
2, 147780, Note_on_c, 0, 64, 78
2, 147960, Note_on_c, 0, 64, 0
2, 147960, Note_on_c, 0, 57, 0
2, 147960, Note_on_c, 0, 65, 0
2, 147960, Note_on_c, 0, 72, 0
2, 147960, Note_on_c, 0, 69, 0
2, 147960, Note_on_c, 0, 63, 0
2, 147960, Note_on_c, 0, 53, 0
2, 147960, Note_on_c, 0, 65, 124
2, 147960, Note_on_c, 0, 69, 124
2, 147960, Note_on_c, 0, 72, 124
2, 147960, Note_on_c, 0, 60, 65
2, 147960, Note_on_c, 0, 53, 65
2, 147960, Note_on_c, 0, 57, 65
2, 147960, Note_on_c, 0, 63, 65
2, 148140, Note_on_c, 0, 60, 0
2, 148140, Note_on_c, 0, 59, 68
2, 148230, Note_on_c, 0, 35, 63
2, 148230, Note_on_c, 0, 41, 63
2, 148320, Note_on_c, 0, 59, 0
2, 148320, Note_on_c, 0, 60, 70
2, 148500, Note_on_c, 0, 60, 0
2, 148500, Note_on_c, 0, 41, 0
2, 148500, Note_on_c, 0, 35, 0
2, 148500, Note_on_c, 0, 57, 69
2, 148500, Note_on_c, 0, 53, 85
2, 148500, Note_on_c, 0, 57, 85
2, 148500, Note_on_c, 0, 63, 85
2, 148680, Note_on_c, 0, 57, 0
2, 148680, Note_on_c, 0, 60, 77
2, 148770, Note_on_c, 0, 53, 0
2, 148770, Note_on_c, 0, 57, 0
2, 148770, Note_on_c, 0, 63, 0
2, 148770, Note_on_c, 0, 35, 65
2, 148770, Note_on_c, 0, 41, 65
2, 148860, Note_on_c, 0, 60, 0
2, 148860, Note_on_c, 0, 55, 70
2, 149040, Note_on_c, 0, 55, 0
2, 149040, Note_on_c, 0, 35, 0
2, 149040, Note_on_c, 0, 53, 0
2, 149040, Note_on_c, 0, 41, 0
2, 149040, Note_on_c, 0, 57, 0
2, 149040, Note_on_c, 0, 63, 0
2, 149040, Note_on_c, 0, 60, 82
2, 149040, Note_on_c, 0, 53, 66
2, 149040, Note_on_c, 0, 57, 66
2, 149040, Note_on_c, 0, 63, 66
2, 149400, Note_on_c, 0, 60, 0
2, 149400, Note_on_c, 0, 53, 65
2, 149580, Note_on_c, 0, 53, 0
2, 149580, Note_on_c, 0, 63, 0
2, 149580, Note_on_c, 0, 72, 0
2, 149580, Note_on_c, 0, 65, 0
2, 149580, Note_on_c, 0, 69, 0
2, 149580, Note_on_c, 0, 57, 0
2, 149580, Note_on_c, 0, 53, 0
2, 149580, Note_on_c, 0, 60, 96
2, 149940, Note_on_c, 0, 60, 0
2, 149940, Note_on_c, 0, 59, 116
2, 150120, Note_on_c, 0, 59, 0
2, 150120, Note_on_c, 0, 60, 127
2, 150480, Note_on_c, 0, 60, 0
2, 150480, Note_on_c, 0, 57, 120
2, 150660, Note_on_c, 0, 57, 0
2, 150660, Note_on_c, 0, 60, 127
2, 150660, Note_on_c, 0, 36, 69
2, 150660, Note_on_c, 0, 43, 69
2, 150660, Note_on_c, 0, 48, 69
2, 151020, Note_on_c, 0, 48, 0
2, 151020, Note_on_c, 0, 60, 0
2, 151020, Note_on_c, 0, 36, 0
2, 151020, Note_on_c, 0, 43, 0
2, 151020, Note_on_c, 0, 55, 119
2, 151200, Note_on_c, 0, 55, 0
2, 151200, Note_on_c, 0, 60, 127
2, 151560, Note_on_c, 0, 60, 0
2, 151560, Note_on_c, 0, 59, 125
2, 151740, Note_on_c, 0, 59, 0
2, 151740, Note_on_c, 0, 60, 126
2, 152640, Note_on_c, 0, 60, 0
2, 152640, Note_on_c, 0, 57, 121
2, 152820, Note_on_c, 0, 57, 0
2, 152820, Note_on_c, 0, 60, 127
2, 152820, Note_on_c, 0, 63, 82
2, 153180, Note_on_c, 0, 59, 61
2, 153360, Note_on_c, 0, 59, 0
2, 153360, Note_on_c, 0, 60, 0
2, 153360, Note_on_c, 0, 72, 127
2, 153360, Note_on_c, 0, 60, 69
2, 153540, Note_on_c, 0, 60, 0
2, 153540, Note_on_c, 0, 62, 78
2, 153720, Note_on_c, 0, 62, 0
2, 153720, Note_on_c, 0, 63, 77
2, 153900, Note_on_c, 0, 63, 0
2, 153900, Note_on_c, 0, 63, 0
2, 153900, Note_on_c, 0, 66, 78
2, 153900, Note_on_c, 0, 64, 73
2, 153900, Note_on_c, 0, 50, 59
2, 153900, Note_on_c, 0, 60, 59
2, 154260, Note_on_c, 0, 64, 0
2, 154260, Note_on_c, 0, 72, 0
2, 154260, Note_on_c, 0, 71, 121
2, 154260, Note_on_c, 0, 62, 68
2, 154440, Note_on_c, 0, 62, 0
2, 154440, Note_on_c, 0, 66, 0
2, 154440, Note_on_c, 0, 60, 0
2, 154440, Note_on_c, 0, 50, 0
2, 154440, Note_on_c, 0, 71, 0
2, 154440, Note_on_c, 0, 62, 121
2, 154440, Note_on_c, 0, 71, 121
2, 154440, Note_on_c, 0, 64, 64
2, 154440, Note_on_c, 0, 43, 65
2, 154440, Note_on_c, 0, 50, 65
2, 154620, Note_on_c, 0, 52, 62
2, 154800, Note_on_c, 0, 52, 0
2, 154800, Note_on_c, 0, 62, 0
2, 154800, Note_on_c, 0, 71, 0
2, 154800, Note_on_c, 0, 60, 110
2, 154800, Note_on_c, 0, 69, 110
2, 154800, Note_on_c, 0, 54, 70
2, 154980, Note_on_c, 0, 54, 0
2, 154980, Note_on_c, 0, 60, 0
2, 154980, Note_on_c, 0, 64, 0
2, 154980, Note_on_c, 0, 69, 0
2, 154980, Note_on_c, 0, 62, 127
2, 154980, Note_on_c, 0, 64, 127
2, 154980, Note_on_c, 0, 71, 127
2, 155160, Note_on_c, 0, 50, 72
2, 155340, Note_on_c, 0, 71, 0
2, 155340, Note_on_c, 0, 64, 0
2, 155340, Note_on_c, 0, 62, 0
2, 155340, Note_on_c, 0, 50, 0
2, 155340, Note_on_c, 0, 59, 112
2, 155340, Note_on_c, 0, 62, 112
2, 155340, Note_on_c, 0, 67, 112
2, 155340, Note_on_c, 0, 52, 67
2, 155520, Note_on_c, 0, 52, 0
2, 155520, Note_on_c, 0, 50, 0
2, 155520, Note_on_c, 0, 59, 0
2, 155520, Note_on_c, 0, 62, 0
2, 155520, Note_on_c, 0, 67, 0
2, 155520, Note_on_c, 0, 64, 127
2, 155520, Note_on_c, 0, 71, 127
2, 155520, Note_on_c, 0, 60, 65
2, 155700, Note_on_c, 0, 49, 61
2, 155880, Note_on_c, 0, 49, 0
2, 155880, Note_on_c, 0, 71, 0
2, 155880, Note_on_c, 0, 64, 0
2, 155880, Note_on_c, 0, 66, 112
2, 155880, Note_on_c, 0, 57, 54
2, 155880, Note_on_c, 0, 50, 72
2, 156060, Note_on_c, 0, 50, 0
2, 156060, Note_on_c, 0, 57, 0
2, 156060, Note_on_c, 0, 60, 59
2, 156240, Note_on_c, 0, 60, 0
2, 156240, Note_on_c, 0, 43, 0
2, 156240, Note_on_c, 0, 62, 72
2, 156240, Note_on_c, 0, 72, 72
2, 156420, Note_on_c, 0, 72, 0
2, 156420, Note_on_c, 0, 62, 0
2, 156420, Note_on_c, 0, 63, 61
2, 156420, Note_on_c, 0, 71, 61
2, 156600, Note_on_c, 0, 71, 0
2, 156600, Note_on_c, 0, 60, 0
2, 156600, Note_on_c, 0, 66, 0
2, 156600, Note_on_c, 0, 63, 0
2, 156600, Note_on_c, 0, 60, 127
2, 156600, Note_on_c, 0, 64, 127
2, 156600, Note_on_c, 0, 71, 127
2, 156600, Note_on_c, 0, 43, 65
2, 156780, Note_on_c, 0, 50, 66
2, 156917, Note_on_c, 0, 71, 0
2, 156917, Note_on_c, 0, 60, 0
2, 156917, Note_on_c, 0, 64, 0
2, 156960, Note_on_c, 0, 50, 0
2, 156960, Note_on_c, 0, 59, 105
2, 156960, Note_on_c, 0, 62, 105
2, 156960, Note_on_c, 0, 64, 105
2, 156960, Note_on_c, 0, 52, 73
2, 157140, Note_on_c, 0, 52, 0
2, 157140, Note_on_c, 0, 62, 0
2, 157140, Note_on_c, 0, 64, 0
2, 157140, Note_on_c, 0, 59, 0
2, 157140, Note_on_c, 0, 62, 127
2, 157140, Note_on_c, 0, 71, 127
2, 157140, Note_on_c, 0, 60, 65
2, 157320, Note_on_c, 0, 49, 65
2, 157500, Note_on_c, 0, 49, 0
2, 157500, Note_on_c, 0, 71, 0
2, 157500, Note_on_c, 0, 62, 0
2, 157500, Note_on_c, 0, 62, 104
2, 157500, Note_on_c, 0, 50, 75
2, 157680, Note_on_c, 0, 50, 0
2, 157680, Note_on_c, 0, 62, 0
2, 157680, Note_on_c, 0, 60, 0
2, 157680, Note_on_c, 0, 84, 127
2, 157680, Note_on_c, 0, 52, 71
2, 157860, Note_on_c, 0, 52, 0
2, 157860, Note_on_c, 0, 54, 71
2, 158040, Note_on_c, 0, 54, 0
2, 158040, Note_on_c, 0, 84, 0
2, 158040, Note_on_c, 0, 83, 119
2, 158040, Note_on_c, 0, 55, 71
2, 158220, Note_on_c, 0, 55, 0
2, 158220, Note_on_c, 0, 83, 0
2, 158220, Note_on_c, 0, 72, 127
2, 158220, Note_on_c, 0, 83, 127
2, 158220, Note_on_c, 0, 64, 63
2, 158220, Note_on_c, 0, 67, 63
2, 158220, Note_on_c, 0, 57, 70
2, 158400, Note_on_c, 0, 57, 0
2, 158400, Note_on_c, 0, 43, 0
2, 158400, Note_on_c, 0, 58, 73
2, 158537, Note_on_c, 0, 72, 0
2, 158537, Note_on_c, 0, 83, 0
2, 158580, Note_on_c, 0, 64, 0
2, 158580, Note_on_c, 0, 67, 0
2, 158580, Note_on_c, 0, 58, 0
2, 158580, Note_on_c, 0, 71, 110
2, 158580, Note_on_c, 0, 79, 110
2, 158580, Note_on_c, 0, 62, 60
2, 158580, Note_on_c, 0, 64, 60
2, 158580, Note_on_c, 0, 59, 74
2, 158760, Note_on_c, 0, 59, 0
2, 158760, Note_on_c, 0, 62, 0
2, 158760, Note_on_c, 0, 71, 0
2, 158760, Note_on_c, 0, 79, 0
2, 158760, Note_on_c, 0, 64, 0
2, 158760, Note_on_c, 0, 83, 127
2, 158760, Note_on_c, 0, 71, 79
2, 158760, Note_on_c, 0, 61, 74
2, 158760, Note_on_c, 0, 43, 67
2, 158760, Note_on_c, 0, 66, 72
2, 158786, Note_on_c, 0, 50, 67
2, 158940, Note_on_c, 0, 61, 0
2, 158940, Note_on_c, 0, 62, 77
2, 159120, Note_on_c, 0, 62, 0
2, 159120, Note_on_c, 0, 71, 0
2, 159120, Note_on_c, 0, 83, 0
2, 159120, Note_on_c, 0, 78, 112
2, 159120, Note_on_c, 0, 69, 69
2, 159120, Note_on_c, 0, 64, 78
2, 159300, Note_on_c, 0, 64, 0
2, 159300, Note_on_c, 0, 78, 0
2, 159300, Note_on_c, 0, 66, 0
2, 159300, Note_on_c, 0, 69, 0
2, 159300, Note_on_c, 0, 83, 127
2, 159300, Note_on_c, 0, 71, 76
2, 159300, Note_on_c, 0, 64, 68
2, 159300, Note_on_c, 0, 64, 56
2, 159480, Note_on_c, 0, 64, 0
2, 159480, Note_on_c, 0, 66, 73
2, 159660, Note_on_c, 0, 66, 0
2, 159660, Note_on_c, 0, 83, 0
2, 159660, Note_on_c, 0, 71, 0
2, 159660, Note_on_c, 0, 76, 106
2, 159660, Note_on_c, 0, 67, 61
2, 159660, Note_on_c, 0, 67, 75
2, 159840, Note_on_c, 0, 67, 0
2, 159840, Note_on_c, 0, 43, 0
2, 159840, Note_on_c, 0, 50, 0
2, 159840, Note_on_c, 0, 64, 0
2, 159840, Note_on_c, 0, 67, 0
2, 159840, Note_on_c, 0, 76, 0
2, 159840, Note_on_c, 0, 83, 127
2, 159840, Note_on_c, 0, 71, 75
2, 159840, Note_on_c, 0, 61, 62
2, 159840, Note_on_c, 0, 62, 62
2, 159840, Note_on_c, 0, 54, 74
2, 159840, Note_on_c, 0, 71, 68
2, 160020, Note_on_c, 0, 71, 0
2, 160020, Note_on_c, 0, 71, 62
2, 160200, Note_on_c, 0, 71, 0
2, 160200, Note_on_c, 0, 71, 0
2, 160200, Note_on_c, 0, 83, 0
2, 160200, Note_on_c, 0, 74, 103
2, 160200, Note_on_c, 0, 66, 57
2, 160200, Note_on_c, 0, 74, 62
2, 160380, Note_on_c, 0, 74, 0
2, 160380, Note_on_c, 0, 54, 0
2, 160380, Note_on_c, 0, 62, 0
2, 160380, Note_on_c, 0, 61, 0
2, 160380, Note_on_c, 0, 66, 0
2, 160380, Note_on_c, 0, 74, 0
2, 160380, Note_on_c, 0, 71, 106
2, 160380, Note_on_c, 0, 60, 57
2, 160380, Note_on_c, 0, 55, 71
2, 160380, Note_on_c, 0, 64, 47
2, 160740, Note_on_c, 0, 60, 0
2, 160740, Note_on_c, 0, 71, 0
2, 160740, Note_on_c, 0, 64, 103
2, 160740, Note_on_c, 0, 59, 68
2, 160920, Note_on_c, 0, 59, 0
2, 160920, Note_on_c, 0, 64, 0
2, 160920, Note_on_c, 0, 55, 0
2, 160920, Note_on_c, 0, 64, 0
2, 160920, Note_on_c, 0, 71, 127
2, 160920, Note_on_c, 0, 59, 68
2, 160920, Note_on_c, 0, 62, 49
2, 160920, Note_on_c, 0, 54, 65
2, 160920, Note_on_c, 0, 43, 65
2, 160920, Note_on_c, 0, 50, 65
2, 161100, Note_on_c, 0, 59, 0
2, 161100, Note_on_c, 0, 57, 64
2, 161280, Note_on_c, 0, 57, 0
2, 161280, Note_on_c, 0, 71, 0
2, 161280, Note_on_c, 0, 62, 100
2, 161280, Note_on_c, 0, 59, 71
2, 161460, Note_on_c, 0, 59, 0
2, 161460, Note_on_c, 0, 62, 0
2, 161460, Note_on_c, 0, 54, 0
2, 161460, Note_on_c, 0, 62, 0
2, 161460, Note_on_c, 0, 59, 70
2, 161460, Note_on_c, 0, 52, 70
2, 161640, Note_on_c, 0, 59, 0
2, 161640, Note_on_c, 0, 64, 116
2, 161640, Note_on_c, 0, 67, 116
2, 161640, Note_on_c, 0, 72, 116
2, 161640, Note_on_c, 0, 55, 65
2, 161820, Note_on_c, 0, 55, 0
2, 161820, Note_on_c, 0, 67, 0
2, 161820, Note_on_c, 0, 64, 0
2, 161820, Note_on_c, 0, 52, 0
2, 161820, Note_on_c, 0, 72, 0
2, 161820, Note_on_c, 0, 62, 121
2, 161820, Note_on_c, 0, 66, 121
2, 161820, Note_on_c, 0, 71, 121
2, 161820, Note_on_c, 0, 59, 77
2, 161820, Note_on_c, 0, 54, 75
2, 162000, Note_on_c, 0, 54, 0
2, 162000, Note_on_c, 0, 71, 0
2, 162000, Note_on_c, 0, 43, 0
2, 162000, Note_on_c, 0, 62, 0
2, 162000, Note_on_c, 0, 50, 0
2, 162000, Note_on_c, 0, 59, 0
2, 162000, Note_on_c, 0, 66, 0
2, 162000, Note_on_c, 0, 62, 124
2, 162000, Note_on_c, 0, 71, 124
2, 162000, Note_on_c, 0, 59, 71
2, 162000, Note_on_c, 0, 64, 50
2, 162000, Note_on_c, 0, 50, 70
2, 162000, Note_on_c, 0, 43, 65
2, 162180, Note_on_c, 0, 50, 0
2, 162180, Note_on_c, 0, 52, 68
2, 162360, Note_on_c, 0, 52, 0
2, 162360, Note_on_c, 0, 71, 0
2, 162360, Note_on_c, 0, 62, 0
2, 162360, Note_on_c, 0, 59, 0
2, 162360, Note_on_c, 0, 60, 114
2, 162360, Note_on_c, 0, 69, 114
2, 162360, Note_on_c, 0, 54, 66
2, 162360, Note_on_c, 0, 54, 70
2, 162540, Note_on_c, 0, 54, 0
2, 162540, Note_on_c, 0, 64, 0
2, 162540, Note_on_c, 0, 60, 0
2, 162540, Note_on_c, 0, 69, 0
2, 162540, Note_on_c, 0, 54, 0
2, 162540, Note_on_c, 0, 62, 124
2, 162540, Note_on_c, 0, 64, 124
2, 162540, Note_on_c, 0, 71, 124
2, 162540, Note_on_c, 0, 59, 79
2, 162720, Note_on_c, 0, 50, 62
2, 162900, Note_on_c, 0, 50, 0
2, 162900, Note_on_c, 0, 62, 0
2, 162900, Note_on_c, 0, 64, 0
2, 162900, Note_on_c, 0, 71, 0
2, 162900, Note_on_c, 0, 59, 0
2, 162900, Note_on_c, 0, 59, 112
2, 162900, Note_on_c, 0, 62, 112
2, 162900, Note_on_c, 0, 67, 112
2, 162900, Note_on_c, 0, 52, 65
2, 162900, Note_on_c, 0, 52, 69
2, 163080, Note_on_c, 0, 52, 0
2, 163080, Note_on_c, 0, 59, 0
2, 163080, Note_on_c, 0, 62, 0
2, 163080, Note_on_c, 0, 43, 0
2, 163080, Note_on_c, 0, 52, 0
2, 163080, Note_on_c, 0, 67, 0
2, 163080, Note_on_c, 0, 60, 127
2, 163080, Note_on_c, 0, 62, 127
2, 163080, Note_on_c, 0, 71, 127
2, 163080, Note_on_c, 0, 59, 76
2, 163080, Note_on_c, 0, 43, 68
2, 163260, Note_on_c, 0, 49, 52
2, 163440, Note_on_c, 0, 49, 0
2, 163440, Note_on_c, 0, 62, 0
2, 163440, Note_on_c, 0, 71, 0
2, 163440, Note_on_c, 0, 60, 0
2, 163440, Note_on_c, 0, 59, 0
2, 163440, Note_on_c, 0, 57, 109
2, 163440, Note_on_c, 0, 60, 109
2, 163440, Note_on_c, 0, 66, 109
2, 163440, Note_on_c, 0, 50, 64
2, 163440, Note_on_c, 0, 50, 56
2, 163620, Note_on_c, 0, 50, 0
2, 163620, Note_on_c, 0, 57, 0
2, 163620, Note_on_c, 0, 60, 0
2, 163620, Note_on_c, 0, 43, 0
2, 163620, Note_on_c, 0, 50, 0
2, 163620, Note_on_c, 0, 66, 0
2, 163620, Note_on_c, 0, 62, 127
2, 163620, Note_on_c, 0, 64, 127
2, 163620, Note_on_c, 0, 71, 127
2, 163620, Note_on_c, 0, 52, 72
2, 163620, Note_on_c, 0, 45, 72
2, 163800, Note_on_c, 0, 52, 0
2, 163800, Note_on_c, 0, 54, 71
2, 163980, Note_on_c, 0, 54, 0
2, 163980, Note_on_c, 0, 62, 0
2, 163980, Note_on_c, 0, 71, 0
2, 163980, Note_on_c, 0, 64, 0
2, 163980, Note_on_c, 0, 57, 108
2, 163980, Note_on_c, 0, 60, 108
2, 163980, Note_on_c, 0, 64, 108
2, 163980, Note_on_c, 0, 55, 69
2, 164160, Note_on_c, 0, 55, 0
2, 164160, Note_on_c, 0, 60, 0
2, 164160, Note_on_c, 0, 45, 0
2, 164160, Note_on_c, 0, 57, 0
2, 164160, Note_on_c, 0, 64, 0
2, 164160, Note_on_c, 0, 64, 127
2, 164160, Note_on_c, 0, 71, 127
2, 164160, Note_on_c, 0, 57, 73
2, 164160, Note_on_c, 0, 57, 76
2, 164160, Note_on_c, 0, 47, 70
2, 164340, Note_on_c, 0, 57, 0
2, 164340, Note_on_c, 0, 59, 71
2, 164520, Note_on_c, 0, 59, 0
2, 164520, Note_on_c, 0, 64, 0
2, 164520, Note_on_c, 0, 71, 0
2, 164520, Note_on_c, 0, 63, 104
2, 164520, Note_on_c, 0, 60, 71
2, 164700, Note_on_c, 0, 60, 0
2, 164700, Note_on_c, 0, 47, 0
2, 164700, Note_on_c, 0, 57, 0
2, 164700, Note_on_c, 0, 63, 0
2, 164700, Note_on_c, 0, 72, 127
2, 164700, Note_on_c, 0, 63, 81
2, 164700, Note_on_c, 0, 55, 67
2, 164700, Note_on_c, 0, 48, 70
2, 165060, Note_on_c, 0, 48, 0
2, 165060, Note_on_c, 0, 72, 0
2, 165060, Note_on_c, 0, 63, 0
2, 165060, Note_on_c, 0, 71, 119
2, 165060, Note_on_c, 0, 63, 69
2, 165060, Note_on_c, 0, 50, 71
2, 165150, Note_on_c, 0, 50, 0
2, 165150, Note_on_c, 0, 51, 74
2, 165240, Note_on_c, 0, 51, 0
2, 165240, Note_on_c, 0, 63, 0
2, 165240, Note_on_c, 0, 71, 0
2, 165240, Note_on_c, 0, 55, 0
2, 165240, Note_on_c, 0, 71, 119
2, 165240, Note_on_c, 0, 57, 74
2, 165240, Note_on_c, 0, 61, 74
2, 165240, Note_on_c, 0, 55, 84
2, 165240, Note_on_c, 0, 38, 71
2, 165240, Note_on_c, 0, 45, 71
2, 165240, Note_on_c, 0, 52, 71
2, 165420, Note_on_c, 0, 45, 68
2, 165600, Note_on_c, 0, 45, 0
2, 165600, Note_on_c, 0, 71, 0
2, 165600, Note_on_c, 0, 69, 118
2, 165600, Note_on_c, 0, 52, 70
2, 165780, Note_on_c, 0, 69, 0
2, 165780, Note_on_c, 0, 52, 0
2, 165780, Note_on_c, 0, 71, 127
2, 165780, Note_on_c, 0, 55, 71
2, 165960, Note_on_c, 0, 55, 0
2, 165960, Note_on_c, 0, 59, 76
2, 166097, Note_on_c, 0, 71, 0
2, 166140, Note_on_c, 0, 59, 0
2, 166140, Note_on_c, 0, 67, 110
2, 166140, Note_on_c, 0, 61, 76
2, 166320, Note_on_c, 0, 61, 0
2, 166320, Note_on_c, 0, 67, 0
2, 166320, Note_on_c, 0, 61, 0
2, 166320, Note_on_c, 0, 57, 0
2, 166320, Note_on_c, 0, 71, 127
2, 166320, Note_on_c, 0, 59, 72
2, 166320, Note_on_c, 0, 62, 72
2, 166320, Note_on_c, 0, 62, 75
2, 166500, Note_on_c, 0, 62, 0
2, 166500, Note_on_c, 0, 67, 74
2, 166680, Note_on_c, 0, 67, 0
2, 166680, Note_on_c, 0, 71, 0
2, 166680, Note_on_c, 0, 66, 108
2, 166680, Note_on_c, 0, 66, 69
2, 166860, Note_on_c, 0, 66, 0
2, 166860, Note_on_c, 0, 66, 0
2, 166860, Note_on_c, 0, 59, 0
2, 166860, Note_on_c, 0, 62, 0
2, 166860, Note_on_c, 0, 71, 127
2, 166860, Note_on_c, 0, 61, 79
2, 166860, Note_on_c, 0, 64, 79
2, 166860, Note_on_c, 0, 61, 59
2, 167040, Note_on_c, 0, 61, 0
2, 167040, Note_on_c, 0, 57, 64
2, 167220, Note_on_c, 0, 57, 0
2, 167220, Note_on_c, 0, 71, 0
2, 167220, Note_on_c, 0, 64, 105
2, 167220, Note_on_c, 0, 55, 66
2, 167400, Note_on_c, 0, 55, 0
2, 167400, Note_on_c, 0, 61, 0
2, 167400, Note_on_c, 0, 52, 0
2, 167400, Note_on_c, 0, 45, 0
2, 167400, Note_on_c, 0, 38, 0
2, 167400, Note_on_c, 0, 55, 0
2, 167400, Note_on_c, 0, 64, 0
2, 167400, Note_on_c, 0, 64, 0
2, 168480, Note_on_c, 0, 63, 69
2, 168480, Note_on_c, 0, 55, 64
2, 168480, Note_on_c, 0, 48, 71
2, 168840, Note_on_c, 0, 72, 114
2, 169200, Note_on_c, 0, 79, 106
2, 169380, Note_on_c, 0, 72, 0
2, 169380, Note_on_c, 0, 48, 0
2, 169380, Note_on_c, 0, 63, 0
2, 169380, Note_on_c, 0, 62, 67
2, 169380, Note_on_c, 0, 71, 93
2, 169380, Note_on_c, 0, 50, 70
2, 169560, Note_on_c, 0, 50, 0
2, 169560, Note_on_c, 0, 62, 0
2, 169560, Note_on_c, 0, 71, 0
2, 169560, Note_on_c, 0, 55, 0
2, 169560, Note_on_c, 0, 57, 68
2, 169560, Note_on_c, 0, 61, 68
2, 169560, Note_on_c, 0, 71, 90
2, 169560, Note_on_c, 0, 38, 72
2, 169560, Note_on_c, 0, 45, 72
2, 169560, Note_on_c, 0, 52, 72
2, 169740, Note_on_c, 0, 45, 82
2, 169740, Note_on_c, 0, 52, 82
2, 169740, Note_on_c, 0, 55, 82
2, 169920, Note_on_c, 0, 55, 0
2, 169920, Note_on_c, 0, 52, 0
2, 169920, Note_on_c, 0, 79, 0
2, 169920, Note_on_c, 0, 45, 0
2, 169920, Note_on_c, 0, 71, 0
2, 169920, Note_on_c, 0, 78, 87
2, 169920, Note_on_c, 0, 71, 94
2, 169920, Note_on_c, 0, 52, 96
2, 169920, Note_on_c, 0, 55, 96
2, 169920, Note_on_c, 0, 59, 96
2, 170100, Note_on_c, 0, 59, 0
2, 170100, Note_on_c, 0, 55, 0
2, 170100, Note_on_c, 0, 71, 0
2, 170100, Note_on_c, 0, 78, 0
2, 170100, Note_on_c, 0, 52, 0
2, 170100, Note_on_c, 0, 78, 100
2, 170100, Note_on_c, 0, 71, 95
2, 170100, Note_on_c, 0, 55, 100
2, 170100, Note_on_c, 0, 59, 100
2, 170100, Note_on_c, 0, 61, 100
2, 170280, Note_on_c, 0, 59, 0
2, 170280, Note_on_c, 0, 55, 0
2, 170280, Note_on_c, 0, 61, 0
2, 170280, Note_on_c, 0, 52, 90
2, 170280, Note_on_c, 0, 55, 90
2, 170280, Note_on_c, 0, 59, 90
2, 170417, Note_on_c, 0, 78, 0
2, 170460, Note_on_c, 0, 59, 0
2, 170460, Note_on_c, 0, 52, 0
2, 170460, Note_on_c, 0, 55, 0
2, 170460, Note_on_c, 0, 71, 0
2, 170460, Note_on_c, 0, 73, 85
2, 170460, Note_on_c, 0, 67, 85
2, 170460, Note_on_c, 0, 55, 98
2, 170460, Note_on_c, 0, 59, 98
2, 170460, Note_on_c, 0, 61, 98
2, 170640, Note_on_c, 0, 61, 0
2, 170640, Note_on_c, 0, 59, 0
2, 170640, Note_on_c, 0, 67, 0
2, 170640, Note_on_c, 0, 57, 0
2, 170640, Note_on_c, 0, 61, 0
2, 170640, Note_on_c, 0, 55, 0
2, 170640, Note_on_c, 0, 73, 0
2, 170640, Note_on_c, 0, 78, 101
2, 170640, Note_on_c, 0, 59, 70
2, 170640, Note_on_c, 0, 62, 70
2, 170640, Note_on_c, 0, 71, 103
2, 170640, Note_on_c, 0, 52, 83
2, 170640, Note_on_c, 0, 55, 83
2, 170820, Note_on_c, 0, 55, 0
2, 170820, Note_on_c, 0, 52, 0
2, 170820, Note_on_c, 0, 59, 116
2, 170820, Note_on_c, 0, 62, 116
2, 170820, Note_on_c, 0, 67, 116
2, 171000, Note_on_c, 0, 67, 0
2, 171000, Note_on_c, 0, 59, 0
2, 171000, Note_on_c, 0, 78, 0
2, 171000, Note_on_c, 0, 71, 0
2, 171000, Note_on_c, 0, 62, 0
2, 171000, Note_on_c, 0, 71, 81
2, 171000, Note_on_c, 0, 66, 85
2, 171000, Note_on_c, 0, 55, 94
2, 171000, Note_on_c, 0, 59, 94
2, 171000, Note_on_c, 0, 66, 94
2, 171180, Note_on_c, 0, 66, 0
2, 171180, Note_on_c, 0, 59, 0
2, 171180, Note_on_c, 0, 66, 0
2, 171180, Note_on_c, 0, 62, 0
2, 171180, Note_on_c, 0, 59, 0
2, 171180, Note_on_c, 0, 55, 0
2, 171180, Note_on_c, 0, 71, 0
2, 171180, Note_on_c, 0, 78, 106
2, 171180, Note_on_c, 0, 61, 77
2, 171180, Note_on_c, 0, 64, 77
2, 171180, Note_on_c, 0, 71, 102
2, 171180, Note_on_c, 0, 52, 87
2, 171180, Note_on_c, 0, 55, 87
2, 171360, Note_on_c, 0, 55, 0
2, 171360, Note_on_c, 0, 52, 0
2, 171360, Note_on_c, 0, 45, 95
2, 171360, Note_on_c, 0, 52, 95
2, 171360, Note_on_c, 0, 57, 95
2, 171540, Note_on_c, 0, 57, 0
2, 171540, Note_on_c, 0, 45, 0
2, 171540, Note_on_c, 0, 52, 0
2, 171540, Note_on_c, 0, 78, 0
2, 171540, Note_on_c, 0, 71, 0
2, 171540, Note_on_c, 0, 69, 82
2, 171540, Note_on_c, 0, 64, 79
2, 171540, Note_on_c, 0, 38, 94
2, 171540, Note_on_c, 0, 45, 94
2, 171540, Note_on_c, 0, 55, 94
2, 171720, Note_on_c, 0, 55, 0
2, 171720, Note_on_c, 0, 52, 0
2, 171720, Note_on_c, 0, 45, 0
2, 171720, Note_on_c, 0, 61, 0
2, 171720, Note_on_c, 0, 38, 0
2, 171720, Note_on_c, 0, 64, 0
2, 171720, Note_on_c, 0, 38, 0
2, 171720, Note_on_c, 0, 64, 0
2, 171720, Note_on_c, 0, 69, 0
2, 171720, Note_on_c, 0, 45, 0
2, 172800, Note_on_c, 0, 66, 85
2, 172800, Note_on_c, 0, 64, 74
2, 172800, Note_on_c, 0, 60, 82
2, 172800, Note_on_c, 0, 57, 79
2, 173520, Note_on_c, 0, 57, 0
2, 173520, Note_on_c, 0, 66, 0
2, 173520, Note_on_c, 0, 67, 96
2, 173520, Note_on_c, 0, 55, 66
2, 173880, Note_on_c, 0, 55, 0
2, 173880, Note_on_c, 0, 60, 0
2, 174240, Note_on_c, 0, 67, 0
2, 174240, Note_on_c, 0, 69, 98
2, 174600, Note_on_c, 0, 69, 0
2, 174600, Note_on_c, 0, 70, 100
2, 174943, Note_on_c, 0, 40, 85
2, 174960, Note_on_c, 0, 40, 0
2, 174960, Note_on_c, 0, 70, 0
2, 174960, Note_on_c, 0, 64, 0
2, 174960, Note_on_c, 0, 64, 95
2, 174960, Note_on_c, 0, 67, 95
2, 174960, Note_on_c, 0, 71, 95
2, 174960, Note_on_c, 0, 52, 104
2, 174960, Note_on_c, 0, 59, 104
2, 175080, Note_on_c, 0, 59, 64
2, 175199, Note_on_c, 0, 59, 0
2, 175199, Note_on_c, 0, 62, 78
2, 175320, Note_on_c, 0, 62, 0
2, 175320, Note_on_c, 0, 64, 72
2, 175680, Note_on_c, 0, 64, 0
2, 175800, Note_on_c, 0, 59, 67
2, 175919, Note_on_c, 0, 59, 0
2, 175919, Note_on_c, 0, 62, 74
2, 176040, Note_on_c, 0, 62, 0
2, 176400, Note_on_c, 0, 59, 0
2, 176400, Note_on_c, 0, 52, 0
2, 176400, Note_on_c, 0, 67, 0
2, 176400, Note_on_c, 0, 64, 0
2, 176400, Note_on_c, 0, 71, 0
2, 176400, Note_on_c, 0, 64, 86
2, 176400, Note_on_c, 0, 67, 86
2, 176520, Note_on_c, 0, 59, 68
2, 176639, Note_on_c, 0, 59, 0
2, 176639, Note_on_c, 0, 62, 74
2, 176760, Note_on_c, 0, 62, 0
2, 176760, Note_on_c, 0, 67, 0
2, 176760, Note_on_c, 0, 64, 0
2, 176760, Note_on_c, 0, 66, 97
2, 176760, Note_on_c, 0, 69, 97
2, 176760, Note_on_c, 0, 64, 73
2, 176880, Note_on_c, 0, 64, 0
2, 176880, Note_on_c, 0, 59, 68
2, 176999, Note_on_c, 0, 59, 0
2, 176999, Note_on_c, 0, 62, 77
2, 177120, Note_on_c, 0, 62, 0
2, 177120, Note_on_c, 0, 69, 0
2, 177120, Note_on_c, 0, 66, 0
2, 177120, Note_on_c, 0, 67, 104
2, 177120, Note_on_c, 0, 71, 104
2, 177120, Note_on_c, 0, 64, 72
2, 177120, Note_on_c, 0, 49, 85
2, 177120, Note_on_c, 0, 55, 85
2, 177120, Note_on_c, 0, 59, 85
2, 177240, Note_on_c, 0, 64, 0
2, 177240, Note_on_c, 0, 59, 66
2, 177359, Note_on_c, 0, 59, 0
2, 177359, Note_on_c, 0, 62, 75
2, 177480, Note_on_c, 0, 62, 0
2, 177480, Note_on_c, 0, 71, 0
2, 177480, Note_on_c, 0, 67, 0
2, 177480, Note_on_c, 0, 66, 86
2, 177480, Note_on_c, 0, 69, 86
2, 177480, Note_on_c, 0, 64, 75
2, 177840, Note_on_c, 0, 64, 0
2, 177840, Note_on_c, 0, 66, 0
2, 177840, Note_on_c, 0, 69, 0
2, 177840, Note_on_c, 0, 64, 84
2, 177840, Note_on_c, 0, 67, 84
2, 177960, Note_on_c, 0, 59, 63
2, 178079, Note_on_c, 0, 59, 0
2, 178079, Note_on_c, 0, 62, 74
2, 178200, Note_on_c, 0, 62, 0
2, 178200, Note_on_c, 0, 59, 0
2, 178200, Note_on_c, 0, 49, 0
2, 178200, Note_on_c, 0, 55, 0
2, 178200, Note_on_c, 0, 64, 80
2, 178200, Note_on_c, 0, 49, 79
2, 178200, Note_on_c, 0, 42, 72
2, 178200, Note_on_c, 0, 58, 72
2, 178320, Note_on_c, 0, 64, 0
2, 178320, Note_on_c, 0, 64, 84
2, 178320, Note_on_c, 0, 67, 84
2, 178320, Note_on_c, 0, 70, 84
2, 178439, Note_on_c, 0, 70, 0
2, 178439, Note_on_c, 0, 67, 0
2, 178439, Note_on_c, 0, 64, 0
2, 178439, Note_on_c, 0, 67, 75
2, 178439, Note_on_c, 0, 71, 75
2, 178439, Note_on_c, 0, 74, 75
2, 178560, Note_on_c, 0, 74, 0
2, 178560, Note_on_c, 0, 71, 0
2, 178560, Note_on_c, 0, 64, 0
2, 178560, Note_on_c, 0, 67, 0
2, 178560, Note_on_c, 0, 49, 0
2, 178560, Note_on_c, 0, 67, 0
2, 178560, Note_on_c, 0, 62, 88
2, 178560, Note_on_c, 0, 66, 88
2, 178560, Note_on_c, 0, 70, 75
2, 178560, Note_on_c, 0, 76, 75
2, 178560, Note_on_c, 0, 50, 98
2, 178680, Note_on_c, 0, 76, 0
2, 178680, Note_on_c, 0, 70, 0
2, 178680, Note_on_c, 0, 62, 62
2, 178680, Note_on_c, 0, 66, 62
2, 178680, Note_on_c, 0, 70, 62
2, 178799, Note_on_c, 0, 70, 0
2, 178799, Note_on_c, 0, 66, 0
2, 178799, Note_on_c, 0, 62, 0
2, 178920, Note_on_c, 0, 50, 0
2, 178920, Note_on_c, 0, 62, 0
2, 178920, Note_on_c, 0, 66, 0
2, 178920, Note_on_c, 0, 61, 87
2, 178920, Note_on_c, 0, 64, 87
2, 178920, Note_on_c, 0, 52, 97
2, 179040, Note_on_c, 0, 61, 63
2, 179159, Note_on_c, 0, 61, 0
2, 179159, Note_on_c, 0, 64, 76
2, 179280, Note_on_c, 0, 64, 0
2, 179280, Note_on_c, 0, 61, 0
2, 179280, Note_on_c, 0, 64, 0
2, 179280, Note_on_c, 0, 58, 0
2, 179280, Note_on_c, 0, 42, 0
2, 179280, Note_on_c, 0, 52, 0
2, 179280, Note_on_c, 0, 69, 108
2, 179280, Note_on_c, 0, 72, 108
2, 179280, Note_on_c, 0, 66, 71
2, 179280, Note_on_c, 0, 60, 80
2, 179280, Note_on_c, 0, 54, 98
2, 179280, Note_on_c, 0, 38, 62
2, 179280, Note_on_c, 0, 50, 62
2, 179400, Note_on_c, 0, 66, 0
2, 179400, Note_on_c, 0, 60, 62
2, 179519, Note_on_c, 0, 60, 0
2, 179519, Note_on_c, 0, 64, 71
2, 179640, Note_on_c, 0, 64, 0
2, 179640, Note_on_c, 0, 72, 0
2, 179640, Note_on_c, 0, 54, 0
2, 179640, Note_on_c, 0, 69, 0
2, 179640, Note_on_c, 0, 67, 90
2, 179640, Note_on_c, 0, 71, 90
2, 179640, Note_on_c, 0, 66, 80
2, 179640, Note_on_c, 0, 60, 111
2, 179760, Note_on_c, 0, 66, 0
2, 179760, Note_on_c, 0, 60, 61
2, 179879, Note_on_c, 0, 60, 0
2, 180000, Note_on_c, 0, 71, 0
2, 180000, Note_on_c, 0, 67, 0
2, 180000, Note_on_c, 0, 66, 87
2, 180000, Note_on_c, 0, 69, 87
2, 180120, Note_on_c, 0, 60, 62
2, 180180, Note_on_c, 0, 60, 0
2, 180180, Note_on_c, 0, 50, 88
2, 180239, Note_on_c, 0, 60, 0
2, 180239, Note_on_c, 0, 64, 74
2, 180360, Note_on_c, 0, 64, 0
2, 180360, Note_on_c, 0, 50, 0
2, 180360, Note_on_c, 0, 38, 0
2, 180360, Note_on_c, 0, 50, 0
2, 180360, Note_on_c, 0, 60, 0
2, 180360, Note_on_c, 0, 66, 78
2, 180360, Note_on_c, 0, 51, 96
2, 180360, Note_on_c, 0, 43, 74
2, 180360, Note_on_c, 0, 59, 74
2, 180480, Note_on_c, 0, 66, 0
2, 180480, Note_on_c, 0, 59, 67
2, 180599, Note_on_c, 0, 59, 0
2, 180720, Note_on_c, 0, 51, 0
2, 180720, Note_on_c, 0, 69, 0
2, 180720, Note_on_c, 0, 66, 0
2, 180720, Note_on_c, 0, 64, 94
2, 180720, Note_on_c, 0, 67, 94
2, 180720, Note_on_c, 0, 52, 94
2, 180840, Note_on_c, 0, 64, 66
2, 180840, Note_on_c, 0, 67, 66
2, 180840, Note_on_c, 0, 71, 66
2, 180959, Note_on_c, 0, 71, 0
2, 180959, Note_on_c, 0, 67, 0
2, 180959, Note_on_c, 0, 64, 0
2, 180959, Note_on_c, 0, 67, 80
2, 180959, Note_on_c, 0, 72, 80
2, 180959, Note_on_c, 0, 76, 80
2, 181080, Note_on_c, 0, 76, 0
2, 181080, Note_on_c, 0, 72, 0
2, 181080, Note_on_c, 0, 64, 0
2, 181080, Note_on_c, 0, 67, 0
2, 181080, Note_on_c, 0, 52, 0
2, 181080, Note_on_c, 0, 67, 0
2, 181080, Note_on_c, 0, 62, 90
2, 181080, Note_on_c, 0, 66, 90
2, 181080, Note_on_c, 0, 69, 74
2, 181080, Note_on_c, 0, 71, 74
2, 181080, Note_on_c, 0, 78, 74
2, 181080, Note_on_c, 0, 54, 96
2, 181200, Note_on_c, 0, 78, 0
2, 181200, Note_on_c, 0, 71, 0
2, 181200, Note_on_c, 0, 69, 0
2, 181200, Note_on_c, 0, 66, 61
2, 181200, Note_on_c, 0, 69, 61
2, 181200, Note_on_c, 0, 71, 61
2, 181319, Note_on_c, 0, 71, 0
2, 181319, Note_on_c, 0, 69, 0
2, 181319, Note_on_c, 0, 66, 0
2, 181319, Note_on_c, 0, 66, 59
2, 181423, Note_on_c, 0, 59, 0
2, 181423, Note_on_c, 0, 43, 0
2, 181423, Note_on_c, 0, 40, 65
2, 181440, Note_on_c, 0, 40, 0
2, 181440, Note_on_c, 0, 66, 0
2, 181440, Note_on_c, 0, 62, 0
2, 181440, Note_on_c, 0, 66, 0
2, 181440, Note_on_c, 0, 54, 0
2, 181440, Note_on_c, 0, 71, 107
2, 181440, Note_on_c, 0, 74, 107
2, 181440, Note_on_c, 0, 67, 73
2, 181440, Note_on_c, 0, 62, 97
2, 181440, Note_on_c, 0, 55, 92
2, 181440, Note_on_c, 0, 52, 80
2, 181560, Note_on_c, 0, 67, 0
2, 181560, Note_on_c, 0, 62, 63
2, 181679, Note_on_c, 0, 62, 0
2, 181679, Note_on_c, 0, 66, 79
2, 181800, Note_on_c, 0, 66, 0
2, 181800, Note_on_c, 0, 74, 0
2, 181800, Note_on_c, 0, 55, 0
2, 181800, Note_on_c, 0, 71, 0
2, 181800, Note_on_c, 0, 69, 91
2, 181800, Note_on_c, 0, 73, 91
2, 181800, Note_on_c, 0, 67, 76
2, 181800, Note_on_c, 0, 62, 111
2, 181920, Note_on_c, 0, 67, 0
2, 181920, Note_on_c, 0, 62, 65
2, 182039, Note_on_c, 0, 62, 0
2, 182160, Note_on_c, 0, 73, 0
2, 182160, Note_on_c, 0, 69, 0
2, 182160, Note_on_c, 0, 67, 88
2, 182160, Note_on_c, 0, 71, 88
2, 182280, Note_on_c, 0, 62, 70
2, 182340, Note_on_c, 0, 62, 0
2, 182340, Note_on_c, 0, 50, 83
2, 182399, Note_on_c, 0, 62, 0
2, 182399, Note_on_c, 0, 66, 79
2, 182520, Note_on_c, 0, 66, 0
2, 182520, Note_on_c, 0, 50, 0
2, 182520, Note_on_c, 0, 52, 0
2, 182520, Note_on_c, 0, 62, 0
2, 182520, Note_on_c, 0, 67, 73
2, 182520, Note_on_c, 0, 52, 93
2, 182520, Note_on_c, 0, 45, 65
2, 182520, Note_on_c, 0, 61, 46
2, 182640, Note_on_c, 0, 67, 0
2, 182640, Note_on_c, 0, 64, 80
2, 182640, Note_on_c, 0, 67, 80
2, 182640, Note_on_c, 0, 73, 80
2, 182700, Note_on_c, 0, 52, 0
2, 182700, Note_on_c, 0, 55, 97
2, 182759, Note_on_c, 0, 73, 0
2, 182759, Note_on_c, 0, 64, 0
2, 182759, Note_on_c, 0, 67, 0
2, 182759, Note_on_c, 0, 67, 82
2, 182759, Note_on_c, 0, 71, 82
2, 182759, Note_on_c, 0, 78, 82
2, 182880, Note_on_c, 0, 78, 0
2, 182880, Note_on_c, 0, 71, 0
2, 182880, Note_on_c, 0, 71, 0
2, 182880, Note_on_c, 0, 67, 0
2, 182880, Note_on_c, 0, 67, 0
2, 182880, Note_on_c, 0, 69, 95
2, 182880, Note_on_c, 0, 73, 95
2, 182880, Note_on_c, 0, 69, 73
2, 182880, Note_on_c, 0, 73, 73
2, 182880, Note_on_c, 0, 79, 73
2, 183000, Note_on_c, 0, 79, 0
2, 183000, Note_on_c, 0, 73, 0
2, 183000, Note_on_c, 0, 69, 0
2, 183000, Note_on_c, 0, 67, 59
2, 183000, Note_on_c, 0, 69, 59
2, 183000, Note_on_c, 0, 73, 59
2, 183060, Note_on_c, 0, 55, 0
2, 183060, Note_on_c, 0, 61, 114
2, 183119, Note_on_c, 0, 69, 0
2, 183119, Note_on_c, 0, 67, 0
2, 183119, Note_on_c, 0, 73, 0
2, 183240, Note_on_c, 0, 73, 0
2, 183240, Note_on_c, 0, 61, 0
2, 183240, Note_on_c, 0, 61, 0
2, 183240, Note_on_c, 0, 69, 0
2, 183240, Note_on_c, 0, 71, 97
2, 183240, Note_on_c, 0, 74, 97
2, 183240, Note_on_c, 0, 62, 96
2, 183240, Note_on_c, 0, 59, 50
2, 183420, Note_on_c, 0, 62, 0
2, 183420, Note_on_c, 0, 64, 97
2, 183600, Note_on_c, 0, 64, 0
2, 183600, Note_on_c, 0, 59, 0
2, 183600, Note_on_c, 0, 45, 0
2, 183600, Note_on_c, 0, 71, 0
2, 183600, Note_on_c, 0, 74, 0
2, 183600, Note_on_c, 0, 72, 65
2, 183600, Note_on_c, 0, 76, 65
2, 183600, Note_on_c, 0, 69, 105
2, 183600, Note_on_c, 0, 54, 85
2, 183600, Note_on_c, 0, 60, 85
2, 183600, Note_on_c, 0, 64, 85
2, 183720, Note_on_c, 0, 84, 86
2, 183839, Note_on_c, 0, 84, 0
2, 183839, Note_on_c, 0, 83, 84
2, 183960, Note_on_c, 0, 83, 0
2, 183960, Note_on_c, 0, 69, 0
2, 183960, Note_on_c, 0, 83, 101
2, 183960, Note_on_c, 0, 68, 93
2, 184080, Note_on_c, 0, 76, 56
2, 184080, Note_on_c, 0, 80, 56
2, 184080, Note_on_c, 0, 83, 56
2, 184170, Note_on_c, 0, 83, 0
2, 184199, Note_on_c, 0, 83, 0
2, 184199, Note_on_c, 0, 80, 0
2, 184199, Note_on_c, 0, 76, 0
2, 184199, Note_on_c, 0, 80, 83
2, 184199, Note_on_c, 0, 72, 52
2, 184199, Note_on_c, 0, 76, 52
2, 184320, Note_on_c, 0, 76, 0
2, 184320, Note_on_c, 0, 60, 0
2, 184320, Note_on_c, 0, 76, 0
2, 184320, Note_on_c, 0, 72, 0
2, 184320, Note_on_c, 0, 64, 0
2, 184320, Note_on_c, 0, 54, 0
2, 184320, Note_on_c, 0, 80, 0
2, 184320, Note_on_c, 0, 68, 0
2, 184320, Note_on_c, 0, 72, 0
2, 184320, Note_on_c, 0, 83, 110
2, 184320, Note_on_c, 0, 71, 67
2, 184320, Note_on_c, 0, 75, 67
2, 184320, Note_on_c, 0, 67, 96
2, 184320, Note_on_c, 0, 47, 72
2, 184320, Note_on_c, 0, 57, 72
2, 184320, Note_on_c, 0, 63, 72
2, 184440, Note_on_c, 0, 75, 54
2, 184440, Note_on_c, 0, 79, 54
2, 184440, Note_on_c, 0, 83, 54
2, 184500, Note_on_c, 0, 67, 0
2, 184500, Note_on_c, 0, 66, 88
2, 184530, Note_on_c, 0, 83, 0
2, 184559, Note_on_c, 0, 79, 0
2, 184559, Note_on_c, 0, 83, 0
2, 184559, Note_on_c, 0, 75, 0
2, 184559, Note_on_c, 0, 78, 84
2, 184559, Note_on_c, 0, 71, 48
2, 184559, Note_on_c, 0, 75, 48
2, 184680, Note_on_c, 0, 75, 0
2, 184680, Note_on_c, 0, 75, 0
2, 184680, Note_on_c, 0, 47, 0
2, 184680, Note_on_c, 0, 71, 0
2, 184680, Note_on_c, 0, 57, 0
2, 184680, Note_on_c, 0, 66, 0
2, 184680, Note_on_c, 0, 78, 0
2, 184680, Note_on_c, 0, 63, 0
2, 184680, Note_on_c, 0, 71, 0
2, 184680, Note_on_c, 0, 70, 72
2, 184680, Note_on_c, 0, 74, 72
2, 184680, Note_on_c, 0, 55, 90
2, 184680, Note_on_c, 0, 66, 90
2, 184680, Note_on_c, 0, 52, 71
2, 184680, Note_on_c, 0, 58, 71
2, 184680, Note_on_c, 0, 62, 71
2, 184800, Note_on_c, 0, 82, 87
2, 184919, Note_on_c, 0, 82, 0
2, 184919, Note_on_c, 0, 81, 86
2, 185040, Note_on_c, 0, 81, 0
2, 185040, Note_on_c, 0, 66, 0
2, 185040, Note_on_c, 0, 55, 0
2, 185040, Note_on_c, 0, 81, 105
2, 185040, Note_on_c, 0, 65, 90
2, 185160, Note_on_c, 0, 74, 53
2, 185160, Note_on_c, 0, 77, 53
2, 185160, Note_on_c, 0, 81, 53
2, 185250, Note_on_c, 0, 81, 0
2, 185279, Note_on_c, 0, 81, 0
2, 185279, Note_on_c, 0, 77, 0
2, 185279, Note_on_c, 0, 74, 0
2, 185279, Note_on_c, 0, 77, 90
2, 185279, Note_on_c, 0, 70, 53
2, 185279, Note_on_c, 0, 74, 53
2, 185400, Note_on_c, 0, 74, 0
2, 185400, Note_on_c, 0, 74, 0
2, 185400, Note_on_c, 0, 70, 0
2, 185400, Note_on_c, 0, 70, 0
2, 185400, Note_on_c, 0, 58, 0
2, 185400, Note_on_c, 0, 52, 0
2, 185400, Note_on_c, 0, 77, 0
2, 185400, Note_on_c, 0, 62, 0
2, 185400, Note_on_c, 0, 81, 115
2, 185400, Note_on_c, 0, 69, 68
2, 185400, Note_on_c, 0, 73, 68
2, 185400, Note_on_c, 0, 45, 65
2, 185400, Note_on_c, 0, 55, 65
2, 185400, Note_on_c, 0, 61, 65
2, 185520, Note_on_c, 0, 73, 51
2, 185520, Note_on_c, 0, 77, 51
2, 185520, Note_on_c, 0, 81, 51
2, 185580, Note_on_c, 0, 65, 0
2, 185580, Note_on_c, 0, 64, 88
2, 185610, Note_on_c, 0, 81, 0
2, 185639, Note_on_c, 0, 77, 0
2, 185639, Note_on_c, 0, 73, 0
2, 185639, Note_on_c, 0, 81, 0
2, 185639, Note_on_c, 0, 76, 83
2, 185639, Note_on_c, 0, 69, 48
2, 185639, Note_on_c, 0, 73, 48
2, 185714, Note_on_c, 0, 55, 0
2, 185714, Note_on_c, 0, 45, 0
2, 185714, Note_on_c, 0, 61, 0
2, 185714, Note_on_c, 0, 41, 68
2, 185760, Note_on_c, 0, 41, 0
2, 185760, Note_on_c, 0, 73, 0
2, 185760, Note_on_c, 0, 69, 0
2, 185760, Note_on_c, 0, 64, 0
2, 185760, Note_on_c, 0, 73, 0
2, 185760, Note_on_c, 0, 76, 0
2, 185760, Note_on_c, 0, 69, 0
2, 185760, Note_on_c, 0, 68, 65
2, 185760, Note_on_c, 0, 72, 65
2, 185760, Note_on_c, 0, 64, 91
2, 185760, Note_on_c, 0, 53, 86
2, 185760, Note_on_c, 0, 56, 86
2, 185760, Note_on_c, 0, 60, 86
2, 185880, Note_on_c, 0, 80, 80
2, 185999, Note_on_c, 0, 80, 0
2, 185999, Note_on_c, 0, 79, 88
2, 186120, Note_on_c, 0, 79, 0
2, 186120, Note_on_c, 0, 64, 0
2, 186120, Note_on_c, 0, 79, 102
2, 186120, Note_on_c, 0, 63, 82
2, 186240, Note_on_c, 0, 72, 49
2, 186240, Note_on_c, 0, 75, 49
2, 186240, Note_on_c, 0, 79, 49
2, 186330, Note_on_c, 0, 79, 0
2, 186359, Note_on_c, 0, 79, 0
2, 186359, Note_on_c, 0, 75, 0
2, 186359, Note_on_c, 0, 72, 0
2, 186359, Note_on_c, 0, 75, 82
2, 186359, Note_on_c, 0, 68, 52
2, 186359, Note_on_c, 0, 72, 52
2, 186480, Note_on_c, 0, 72, 0
2, 186480, Note_on_c, 0, 72, 0
2, 186480, Note_on_c, 0, 68, 0
2, 186480, Note_on_c, 0, 68, 0
2, 186480, Note_on_c, 0, 60, 0
2, 186480, Note_on_c, 0, 53, 0
2, 186480, Note_on_c, 0, 75, 0
2, 186480, Note_on_c, 0, 56, 0
2, 186480, Note_on_c, 0, 79, 118
2, 186480, Note_on_c, 0, 67, 66
2, 186480, Note_on_c, 0, 71, 66
2, 186480, Note_on_c, 0, 43, 72
2, 186480, Note_on_c, 0, 53, 72
2, 186480, Note_on_c, 0, 59, 72
2, 186600, Note_on_c, 0, 71, 59
2, 186600, Note_on_c, 0, 75, 59
2, 186600, Note_on_c, 0, 79, 59
2, 186660, Note_on_c, 0, 63, 0
2, 186660, Note_on_c, 0, 62, 89
2, 186690, Note_on_c, 0, 79, 0
2, 186719, Note_on_c, 0, 75, 0
2, 186719, Note_on_c, 0, 71, 0
2, 186719, Note_on_c, 0, 79, 0
2, 186719, Note_on_c, 0, 74, 84
2, 186719, Note_on_c, 0, 67, 52
2, 186719, Note_on_c, 0, 71, 52
2, 186813, Note_on_c, 0, 53, 0
2, 186813, Note_on_c, 0, 43, 0
2, 186813, Note_on_c, 0, 59, 0
2, 186813, Note_on_c, 0, 40, 59
2, 186840, Note_on_c, 0, 40, 0
2, 186840, Note_on_c, 0, 71, 0
2, 186840, Note_on_c, 0, 67, 0
2, 186840, Note_on_c, 0, 62, 0
2, 186840, Note_on_c, 0, 71, 0
2, 186840, Note_on_c, 0, 74, 0
2, 186840, Note_on_c, 0, 67, 0
2, 186840, Note_on_c, 0, 66, 72
2, 186840, Note_on_c, 0, 71, 72
2, 186840, Note_on_c, 0, 62, 90
2, 186840, Note_on_c, 0, 52, 76
2, 186840, Note_on_c, 0, 55, 76
2, 186840, Note_on_c, 0, 59, 76
2, 186960, Note_on_c, 0, 79, 91
2, 187079, Note_on_c, 0, 79, 0
2, 187079, Note_on_c, 0, 78, 89
2, 187200, Note_on_c, 0, 78, 0
2, 187200, Note_on_c, 0, 62, 0
2, 187200, Note_on_c, 0, 78, 105
2, 187200, Note_on_c, 0, 61, 93
2, 187320, Note_on_c, 0, 71, 56
2, 187320, Note_on_c, 0, 74, 56
2, 187320, Note_on_c, 0, 78, 56
2, 187380, Note_on_c, 0, 61, 0
2, 187380, Note_on_c, 0, 62, 97
2, 187410, Note_on_c, 0, 78, 0
2, 187439, Note_on_c, 0, 78, 0
2, 187439, Note_on_c, 0, 74, 0
2, 187439, Note_on_c, 0, 71, 0
2, 187439, Note_on_c, 0, 74, 86
2, 187439, Note_on_c, 0, 66, 52
2, 187439, Note_on_c, 0, 71, 52
2, 187560, Note_on_c, 0, 71, 0
2, 187560, Note_on_c, 0, 55, 0
2, 187560, Note_on_c, 0, 71, 0
2, 187560, Note_on_c, 0, 66, 0
2, 187560, Note_on_c, 0, 59, 0
2, 187560, Note_on_c, 0, 66, 0
2, 187560, Note_on_c, 0, 74, 0
2, 187560, Note_on_c, 0, 52, 0
2, 187560, Note_on_c, 0, 78, 108
2, 187560, Note_on_c, 0, 66, 70
2, 187560, Note_on_c, 0, 70, 70
2, 187560, Note_on_c, 0, 42, 75
2, 187560, Note_on_c, 0, 54, 75
2, 187560, Note_on_c, 0, 58, 75
2, 187680, Note_on_c, 0, 66, 59
2, 187680, Note_on_c, 0, 70, 59
2, 187680, Note_on_c, 0, 74, 59
2, 187740, Note_on_c, 0, 62, 0
2, 187740, Note_on_c, 0, 64, 98
2, 187770, Note_on_c, 0, 78, 0
2, 187799, Note_on_c, 0, 70, 0
2, 187799, Note_on_c, 0, 74, 0
2, 187799, Note_on_c, 0, 66, 0
2, 187799, Note_on_c, 0, 73, 82
2, 187799, Note_on_c, 0, 66, 56
2, 187799, Note_on_c, 0, 70, 56
2, 187920, Note_on_c, 0, 70, 0
2, 187920, Note_on_c, 0, 70, 0
2, 187920, Note_on_c, 0, 42, 0
2, 187920, Note_on_c, 0, 66, 0
2, 187920, Note_on_c, 0, 54, 0
2, 187920, Note_on_c, 0, 64, 0
2, 187920, Note_on_c, 0, 73, 0
2, 187920, Note_on_c, 0, 58, 0
2, 187920, Note_on_c, 0, 66, 0
2, 187920, Note_on_c, 0, 86, 118
2, 187920, Note_on_c, 0, 74, 78
2, 187920, Note_on_c, 0, 66, 95
2, 187920, Note_on_c, 0, 47, 67
2, 187920, Note_on_c, 0, 54, 67
2, 187920, Note_on_c, 0, 62, 48
2, 188280, Note_on_c, 0, 66, 0
2, 188280, Note_on_c, 0, 65, 89
2, 188460, Note_on_c, 0, 86, 0
2, 188460, Note_on_c, 0, 85, 91
2, 188640, Note_on_c, 0, 85, 0
2, 188640, Note_on_c, 0, 65, 0
2, 188640, Note_on_c, 0, 74, 0
2, 188640, Note_on_c, 0, 62, 0
2, 188640, Note_on_c, 0, 85, 96
2, 188640, Note_on_c, 0, 73, 69
2, 188640, Note_on_c, 0, 64, 90
2, 188640, Note_on_c, 0, 61, 48
2, 188820, Note_on_c, 0, 85, 0
2, 188820, Note_on_c, 0, 84, 91
2, 189000, Note_on_c, 0, 84, 0
2, 189000, Note_on_c, 0, 61, 0
2, 189000, Note_on_c, 0, 73, 0
2, 189000, Note_on_c, 0, 54, 0
2, 189000, Note_on_c, 0, 47, 0
2, 189000, Note_on_c, 0, 64, 0
2, 189000, Note_on_c, 0, 84, 92
2, 189000, Note_on_c, 0, 72, 68
2, 189000, Note_on_c, 0, 86, 84
2, 189000, Note_on_c, 0, 64, 93
2, 189000, Note_on_c, 0, 43, 68
2, 189000, Note_on_c, 0, 50, 68
2, 189000, Note_on_c, 0, 60, 51
2, 189360, Note_on_c, 0, 64, 0
2, 189360, Note_on_c, 0, 63, 88
2, 189540, Note_on_c, 0, 84, 0
2, 189540, Note_on_c, 0, 83, 85
2, 189720, Note_on_c, 0, 83, 0
2, 189720, Note_on_c, 0, 63, 0
2, 189720, Note_on_c, 0, 72, 0
2, 189720, Note_on_c, 0, 60, 0
2, 189720, Note_on_c, 0, 83, 94
2, 189720, Note_on_c, 0, 74, 79
2, 189720, Note_on_c, 0, 62, 87
2, 189720, Note_on_c, 0, 59, 44
2, 189900, Note_on_c, 0, 83, 0
2, 189900, Note_on_c, 0, 82, 90
2, 189949, Note_on_c, 0, 86, 0
2, 190080, Note_on_c, 0, 59, 0
2, 190080, Note_on_c, 0, 43, 0
2, 190080, Note_on_c, 0, 74, 0
2, 190080, Note_on_c, 0, 50, 0
2, 190080, Note_on_c, 0, 82, 0
2, 190080, Note_on_c, 0, 62, 0
2, 190080, Note_on_c, 0, 82, 94
2, 190080, Note_on_c, 0, 70, 63
2, 190080, Note_on_c, 0, 86, 72
2, 190080, Note_on_c, 0, 62, 93
2, 190080, Note_on_c, 0, 39, 69
2, 190080, Note_on_c, 0, 46, 69
2, 190080, Note_on_c, 0, 66, 68
2, 190080, Note_on_c, 0, 58, 49
2, 190440, Note_on_c, 0, 62, 0
2, 190440, Note_on_c, 0, 61, 88
2, 190620, Note_on_c, 0, 82, 0
2, 190620, Note_on_c, 0, 81, 83
2, 190800, Note_on_c, 0, 81, 0
2, 190800, Note_on_c, 0, 70, 0
2, 190800, Note_on_c, 0, 58, 0
2, 190800, Note_on_c, 0, 61, 0
2, 190800, Note_on_c, 0, 81, 94
2, 190800, Note_on_c, 0, 69, 70
2, 190800, Note_on_c, 0, 60, 88
2, 190800, Note_on_c, 0, 57, 48
2, 190980, Note_on_c, 0, 81, 0
2, 190980, Note_on_c, 0, 80, 89
2, 191029, Note_on_c, 0, 86, 0
2, 191160, Note_on_c, 0, 80, 0
2, 191160, Note_on_c, 0, 69, 0
2, 191160, Note_on_c, 0, 57, 0
2, 191160, Note_on_c, 0, 60, 0
2, 191160, Note_on_c, 0, 80, 95
2, 191160, Note_on_c, 0, 68, 60
2, 191160, Note_on_c, 0, 56, 88
2, 191160, Note_on_c, 0, 59, 88
2, 191340, Note_on_c, 0, 80, 0
2, 191340, Note_on_c, 0, 79, 87
2, 191520, Note_on_c, 0, 79, 0
2, 191520, Note_on_c, 0, 59, 0
2, 191520, Note_on_c, 0, 68, 0
2, 191520, Note_on_c, 0, 66, 0
2, 191520, Note_on_c, 0, 56, 0
2, 191520, Note_on_c, 0, 79, 103
2, 191520, Note_on_c, 0, 67, 65
2, 191520, Note_on_c, 0, 55, 93
2, 191520, Note_on_c, 0, 58, 93
2, 191880, Note_on_c, 0, 67, 0
2, 191880, Note_on_c, 0, 46, 0
2, 191880, Note_on_c, 0, 39, 0
2, 191880, Note_on_c, 0, 66, 64
2, 191880, Note_on_c, 0, 43, 74
2, 191880, Note_on_c, 0, 50, 74
2, 191994, Note_on_c, 0, 79, 0
2, 192060, Note_on_c, 0, 78, 90
2, 192240, Note_on_c, 0, 78, 0
2, 192240, Note_on_c, 0, 50, 0
2, 192240, Note_on_c, 0, 66, 0
2, 192240, Note_on_c, 0, 55, 0
2, 192240, Note_on_c, 0, 58, 0
2, 192240, Note_on_c, 0, 43, 0
2, 192240, Note_on_c, 0, 78, 92
2, 192240, Note_on_c, 0, 45, 92
2, 192240, Note_on_c, 0, 57, 92
2, 192240, Note_on_c, 0, 38, 66
2, 192240, Note_on_c, 0, 50, 50
2, 192240, Note_on_c, 0, 54, 50
2, 192600, Note_on_c, 0, 57, 0
2, 192600, Note_on_c, 0, 78, 0
2, 192600, Note_on_c, 0, 45, 0
2, 192600, Note_on_c, 0, 47, 47
2, 192600, Note_on_c, 0, 59, 47
2, 192720, Note_on_c, 0, 59, 92
2, 192720, Note_on_c, 0, 62, 92
2, 192720, Note_on_c, 0, 66, 92
2, 192720, Note_on_c, 0, 62, 88
2, 192839, Note_on_c, 0, 62, 0
2, 192839, Note_on_c, 0, 50, 81
2, 192960, Note_on_c, 0, 50, 0
2, 192960, Note_on_c, 0, 62, 0
2, 192960, Note_on_c, 0, 66, 0
2, 192960, Note_on_c, 0, 59, 0
2, 192960, Note_on_c, 0, 66, 111
2, 192960, Note_on_c, 0, 69, 111
2, 192960, Note_on_c, 0, 73, 111
2, 193080, Note_on_c, 0, 62, 86
2, 193199, Note_on_c, 0, 62, 0
2, 193199, Note_on_c, 0, 73, 0
2, 193199, Note_on_c, 0, 69, 0
2, 193199, Note_on_c, 0, 66, 0
2, 193199, Note_on_c, 0, 71, 110
2, 193199, Note_on_c, 0, 74, 110
2, 193199, Note_on_c, 0, 78, 110
2, 193199, Note_on_c, 0, 50, 86
2, 193320, Note_on_c, 0, 50, 0
2, 193320, Note_on_c, 0, 50, 0
2, 193320, Note_on_c, 0, 38, 0
2, 193320, Note_on_c, 0, 59, 0
2, 193320, Note_on_c, 0, 54, 0
2, 193320, Note_on_c, 0, 47, 0
2, 193320, Note_on_c, 0, 74, 0
2, 193320, Note_on_c, 0, 71, 0
2, 193320, Note_on_c, 0, 78, 0
2, 193320, Note_on_c, 0, 45, 100
2, 193320, Note_on_c, 0, 57, 100
2, 193320, Note_on_c, 0, 38, 70
2, 193320, Note_on_c, 0, 50, 55
2, 193320, Note_on_c, 0, 54, 55
2, 193440, Note_on_c, 0, 78, 86
2, 193440, Note_on_c, 0, 81, 86
2, 193440, Note_on_c, 0, 85, 86
2, 193680, Note_on_c, 0, 85, 0
2, 193680, Note_on_c, 0, 81, 0
2, 193680, Note_on_c, 0, 57, 0
2, 193680, Note_on_c, 0, 45, 0
2, 193680, Note_on_c, 0, 78, 0
2, 193680, Note_on_c, 0, 71, 74
2, 193680, Note_on_c, 0, 74, 74
2, 193680, Note_on_c, 0, 78, 74
2, 193680, Note_on_c, 0, 47, 52
2, 193680, Note_on_c, 0, 59, 52
2, 193800, Note_on_c, 0, 62, 86
2, 193919, Note_on_c, 0, 62, 0
2, 193919, Note_on_c, 0, 78, 0
2, 193919, Note_on_c, 0, 71, 0
2, 193919, Note_on_c, 0, 74, 0
2, 193919, Note_on_c, 0, 66, 81
2, 193919, Note_on_c, 0, 69, 81
2, 193919, Note_on_c, 0, 73, 81
2, 193919, Note_on_c, 0, 50, 84
2, 194040, Note_on_c, 0, 73, 0
2, 194040, Note_on_c, 0, 69, 0
2, 194040, Note_on_c, 0, 66, 0
2, 194040, Note_on_c, 0, 50, 0
2, 194160, Note_on_c, 0, 59, 85
2, 194160, Note_on_c, 0, 62, 85
2, 194160, Note_on_c, 0, 66, 85
2, 194160, Note_on_c, 0, 62, 87
2, 194279, Note_on_c, 0, 62, 0
2, 194279, Note_on_c, 0, 50, 76
2, 194400, Note_on_c, 0, 50, 0
2, 194400, Note_on_c, 0, 66, 0
2, 194400, Note_on_c, 0, 50, 0
2, 194400, Note_on_c, 0, 47, 0
2, 194400, Note_on_c, 0, 59, 0
2, 194400, Note_on_c, 0, 38, 0
2, 194400, Note_on_c, 0, 62, 0
2, 194400, Note_on_c, 0, 59, 0
2, 194400, Note_on_c, 0, 54, 0
2, 194400, Note_on_c, 0, 60, 80
2, 194400, Note_on_c, 0, 55, 61
2, 194400, Note_on_c, 0, 58, 61
2, 194400, Note_on_c, 0, 43, 73
2, 194400, Note_on_c, 0, 48, 51
2, 194520, Note_on_c, 0, 50, 83
2, 194639, Note_on_c, 0, 50, 0
2, 194639, Note_on_c, 0, 43, 83
2, 194760, Note_on_c, 0, 43, 0
2, 194760, Note_on_c, 0, 60, 0
2, 194760, Note_on_c, 0, 48, 0
2, 194760, Note_on_c, 0, 62, 97
2, 194760, Note_on_c, 0, 50, 60
2, 194880, Note_on_c, 0, 62, 85
2, 194999, Note_on_c, 0, 62, 0
2, 194999, Note_on_c, 0, 50, 82
2, 195120, Note_on_c, 0, 50, 0
2, 195240, Note_on_c, 0, 62, 83
2, 195300, Note_on_c, 0, 62, 0
2, 195300, Note_on_c, 0, 50, 0
2, 195300, Note_on_c, 0, 63, 99
2, 195300, Note_on_c, 0, 51, 58
2, 195359, Note_on_c, 0, 62, 0
2, 195359, Note_on_c, 0, 50, 83
2, 195480, Note_on_c, 0, 50, 0
2, 195480, Note_on_c, 0, 51, 0
2, 195480, Note_on_c, 0, 58, 0
2, 195480, Note_on_c, 0, 43, 0
2, 195480, Note_on_c, 0, 55, 0
2, 195480, Note_on_c, 0, 63, 0
2, 195480, Note_on_c, 0, 64, 110
2, 195480, Note_on_c, 0, 56, 77
2, 195480, Note_on_c, 0, 59, 77
2, 195480, Note_on_c, 0, 62, 77
2, 195480, Note_on_c, 0, 46, 74
2, 195480, Note_on_c, 0, 52, 60
2, 195600, Note_on_c, 0, 50, 85
2, 195719, Note_on_c, 0, 50, 0
2, 195719, Note_on_c, 0, 46, 83
2, 195797, Note_on_c, 0, 64, 0
2, 195840, Note_on_c, 0, 46, 0
2, 195840, Note_on_c, 0, 52, 0
2, 195840, Note_on_c, 0, 65, 99
2, 195840, Note_on_c, 0, 53, 57
2, 195960, Note_on_c, 0, 62, 86
2, 196079, Note_on_c, 0, 62, 0
2, 196079, Note_on_c, 0, 50, 79
2, 196200, Note_on_c, 0, 50, 0
2, 196200, Note_on_c, 0, 62, 0
2, 196200, Note_on_c, 0, 65, 0
2, 196200, Note_on_c, 0, 56, 0
2, 196200, Note_on_c, 0, 59, 0
2, 196200, Note_on_c, 0, 67, 100
2, 196200, Note_on_c, 0, 56, 73
2, 196200, Note_on_c, 0, 58, 73
2, 196200, Note_on_c, 0, 62, 73
2, 196200, Note_on_c, 0, 55, 42
2, 196320, Note_on_c, 0, 62, 79
2, 196439, Note_on_c, 0, 62, 0
2, 196439, Note_on_c, 0, 50, 79
2, 196560, Note_on_c, 0, 50, 0
2, 196560, Note_on_c, 0, 56, 0
2, 196560, Note_on_c, 0, 58, 0
2, 196560, Note_on_c, 0, 46, 0
2, 196560, Note_on_c, 0, 67, 0
2, 196560, Note_on_c, 0, 62, 0
2, 196560, Note_on_c, 0, 55, 0
2, 196560, Note_on_c, 0, 53, 0
2, 196560, Note_on_c, 0, 57, 83
2, 196560, Note_on_c, 0, 62, 83
2, 196560, Note_on_c, 0, 66, 83
2, 196560, Note_on_c, 0, 69, 83
2, 196560, Note_on_c, 0, 45, 88
2, 196560, Note_on_c, 0, 38, 78
2, 196560, Note_on_c, 0, 54, 78
2, 196920, Note_on_c, 0, 45, 0
2, 196920, Note_on_c, 0, 69, 0
2, 196920, Note_on_c, 0, 57, 0
2, 196920, Note_on_c, 0, 66, 0
2, 196920, Note_on_c, 0, 62, 0
2, 196920, Note_on_c, 0, 59, 77
2, 196920, Note_on_c, 0, 62, 77
2, 196920, Note_on_c, 0, 66, 77
2, 196920, Note_on_c, 0, 71, 77
2, 196920, Note_on_c, 0, 47, 53
2, 197040, Note_on_c, 0, 71, 83
2, 197040, Note_on_c, 0, 74, 83
2, 197040, Note_on_c, 0, 78, 83
2, 197040, Note_on_c, 0, 59, 82
2, 197040, Note_on_c, 0, 62, 82
2, 197100, Note_on_c, 0, 62, 0
2, 197100, Note_on_c, 0, 59, 0
2, 197100, Note_on_c, 0, 66, 99
2, 197159, Note_on_c, 0, 74, 0
2, 197159, Note_on_c, 0, 78, 0
2, 197159, Note_on_c, 0, 66, 0
2, 197159, Note_on_c, 0, 71, 0
2, 197159, Note_on_c, 0, 69, 80
2, 197159, Note_on_c, 0, 73, 80
2, 197159, Note_on_c, 0, 57, 80
2, 197159, Note_on_c, 0, 61, 80
2, 197171, Note_on_c, 0, 61, 0
2, 197171, Note_on_c, 0, 57, 0
2, 197173, Note_on_c, 0, 66, 103
2, 197184, Note_on_c, 0, 66, 0
2, 197187, Note_on_c, 0, 57, 80
2, 197187, Note_on_c, 0, 61, 80
2, 197199, Note_on_c, 0, 61, 0
2, 197199, Note_on_c, 0, 57, 0
2, 197201, Note_on_c, 0, 66, 103
2, 197213, Note_on_c, 0, 66, 0
2, 197216, Note_on_c, 0, 57, 80
2, 197216, Note_on_c, 0, 61, 80
2, 197227, Note_on_c, 0, 61, 0
2, 197227, Note_on_c, 0, 57, 0
2, 197229, Note_on_c, 0, 66, 103
2, 197241, Note_on_c, 0, 66, 0
2, 197244, Note_on_c, 0, 57, 80
2, 197244, Note_on_c, 0, 61, 80
2, 197255, Note_on_c, 0, 61, 0
2, 197255, Note_on_c, 0, 57, 0
2, 197258, Note_on_c, 0, 66, 103
2, 197269, Note_on_c, 0, 66, 0
2, 197272, Note_on_c, 0, 57, 80
2, 197272, Note_on_c, 0, 61, 80
2, 197280, Note_on_c, 0, 69, 0
2, 197280, Note_on_c, 0, 73, 0
2, 197280, Note_on_c, 0, 66, 78
2, 197280, Note_on_c, 0, 59, 88
2, 197280, Note_on_c, 0, 62, 88
2, 197283, Note_on_c, 0, 57, 0
2, 197283, Note_on_c, 0, 61, 0
2, 197339, Note_on_c, 0, 59, 0
2, 197339, Note_on_c, 0, 62, 0
2, 197339, Note_on_c, 0, 66, 98
2, 197400, Note_on_c, 0, 66, 0
2, 197400, Note_on_c, 0, 66, 0
2, 197400, Note_on_c, 0, 69, 103
2, 197400, Note_on_c, 0, 73, 103
2, 197400, Note_on_c, 0, 57, 85
2, 197400, Note_on_c, 0, 61, 85
2, 197460, Note_on_c, 0, 61, 0
2, 197460, Note_on_c, 0, 57, 0
2, 197460, Note_on_c, 0, 66, 107
2, 197519, Note_on_c, 0, 69, 0
2, 197519, Note_on_c, 0, 66, 0
2, 197519, Note_on_c, 0, 73, 0
2, 197519, Note_on_c, 0, 71, 106
2, 197519, Note_on_c, 0, 74, 106
2, 197519, Note_on_c, 0, 78, 106
2, 197519, Note_on_c, 0, 59, 89
2, 197519, Note_on_c, 0, 62, 89
2, 197531, Note_on_c, 0, 59, 0
2, 197531, Note_on_c, 0, 62, 0
2, 197533, Note_on_c, 0, 66, 102
2, 197544, Note_on_c, 0, 66, 0
2, 197547, Note_on_c, 0, 59, 89
2, 197547, Note_on_c, 0, 62, 89
2, 197559, Note_on_c, 0, 59, 0
2, 197559, Note_on_c, 0, 62, 0
2, 197561, Note_on_c, 0, 66, 102
2, 197573, Note_on_c, 0, 66, 0
2, 197576, Note_on_c, 0, 59, 89
2, 197576, Note_on_c, 0, 62, 89
2, 197587, Note_on_c, 0, 59, 0
2, 197587, Note_on_c, 0, 62, 0
2, 197589, Note_on_c, 0, 66, 102
2, 197601, Note_on_c, 0, 66, 0
2, 197604, Note_on_c, 0, 59, 89
2, 197604, Note_on_c, 0, 62, 89
2, 197615, Note_on_c, 0, 59, 0
2, 197615, Note_on_c, 0, 62, 0
2, 197618, Note_on_c, 0, 66, 102
2, 197629, Note_on_c, 0, 66, 0
2, 197632, Note_on_c, 0, 59, 89
2, 197632, Note_on_c, 0, 62, 89
2, 197640, Note_on_c, 0, 59, 0
2, 197640, Note_on_c, 0, 66, 0
2, 197640, Note_on_c, 0, 74, 0
2, 197640, Note_on_c, 0, 54, 0
2, 197640, Note_on_c, 0, 38, 0
2, 197640, Note_on_c, 0, 71, 0
2, 197640, Note_on_c, 0, 47, 0
2, 197640, Note_on_c, 0, 62, 0
2, 197640, Note_on_c, 0, 78, 0
2, 197640, Note_on_c, 0, 71, 0
2, 197640, Note_on_c, 0, 57, 73
2, 197640, Note_on_c, 0, 62, 73
2, 197640, Note_on_c, 0, 66, 73
2, 197640, Note_on_c, 0, 69, 73
2, 197640, Note_on_c, 0, 45, 82
2, 197640, Note_on_c, 0, 38, 70
2, 197640, Note_on_c, 0, 54, 70
2, 197643, Note_on_c, 0, 59, 0
2, 197643, Note_on_c, 0, 62, 0
2, 197760, Note_on_c, 0, 71, 81
2, 197760, Note_on_c, 0, 74, 81
2, 197760, Note_on_c, 0, 78, 81
2, 197879, Note_on_c, 0, 78, 0
2, 197879, Note_on_c, 0, 74, 0
2, 197879, Note_on_c, 0, 45, 0
2, 197879, Note_on_c, 0, 71, 0
2, 197879, Note_on_c, 0, 78, 105
2, 197879, Note_on_c, 0, 81, 105
2, 197879, Note_on_c, 0, 85, 105
2, 197879, Note_on_c, 0, 57, 120
2, 197879, Note_on_c, 0, 61, 120
2, 197879, Note_on_c, 0, 69, 120
2, 198000, Note_on_c, 0, 69, 0
2, 198000, Note_on_c, 0, 57, 0
2, 198000, Note_on_c, 0, 81, 0
2, 198000, Note_on_c, 0, 62, 0
2, 198000, Note_on_c, 0, 78, 0
2, 198000, Note_on_c, 0, 66, 0
2, 198000, Note_on_c, 0, 57, 0
2, 198000, Note_on_c, 0, 69, 0
2, 198000, Note_on_c, 0, 85, 0
2, 198000, Note_on_c, 0, 61, 0
2, 198000, Note_on_c, 0, 71, 80
2, 198000, Note_on_c, 0, 78, 80
2, 198000, Note_on_c, 0, 62, 76
2, 198000, Note_on_c, 0, 66, 76
2, 198000, Note_on_c, 0, 71, 76
2, 198000, Note_on_c, 0, 47, 65
2, 198000, Note_on_c, 0, 59, 65
2, 198120, Note_on_c, 0, 78, 0
2, 198120, Note_on_c, 0, 71, 0
2, 198120, Note_on_c, 0, 69, 78
2, 198120, Note_on_c, 0, 73, 78
2, 198120, Note_on_c, 0, 57, 87
2, 198120, Note_on_c, 0, 61, 87
2, 198180, Note_on_c, 0, 61, 0
2, 198180, Note_on_c, 0, 57, 0
2, 198180, Note_on_c, 0, 66, 105
2, 198239, Note_on_c, 0, 69, 0
2, 198239, Note_on_c, 0, 66, 0
2, 198239, Note_on_c, 0, 73, 0
2, 198239, Note_on_c, 0, 66, 80
2, 198239, Note_on_c, 0, 59, 85
2, 198239, Note_on_c, 0, 62, 85
2, 198251, Note_on_c, 0, 59, 0
2, 198251, Note_on_c, 0, 62, 0
2, 198253, Note_on_c, 0, 66, 101
2, 198264, Note_on_c, 0, 66, 0
2, 198267, Note_on_c, 0, 59, 85
2, 198267, Note_on_c, 0, 62, 85
2, 198279, Note_on_c, 0, 59, 0
2, 198279, Note_on_c, 0, 62, 0
2, 198281, Note_on_c, 0, 66, 101
2, 198293, Note_on_c, 0, 66, 0
2, 198296, Note_on_c, 0, 59, 85
2, 198296, Note_on_c, 0, 62, 85
2, 198307, Note_on_c, 0, 59, 0
2, 198307, Note_on_c, 0, 62, 0
2, 198309, Note_on_c, 0, 66, 101
2, 198321, Note_on_c, 0, 66, 0
2, 198324, Note_on_c, 0, 59, 85
2, 198324, Note_on_c, 0, 62, 85
2, 198335, Note_on_c, 0, 59, 0
2, 198335, Note_on_c, 0, 62, 0
2, 198338, Note_on_c, 0, 66, 101
2, 198349, Note_on_c, 0, 66, 0
2, 198352, Note_on_c, 0, 59, 85
2, 198352, Note_on_c, 0, 62, 85
2, 198360, Note_on_c, 0, 66, 0
2, 198360, Note_on_c, 0, 69, 107
2, 198360, Note_on_c, 0, 73, 107
2, 198360, Note_on_c, 0, 57, 87
2, 198360, Note_on_c, 0, 61, 87
2, 198363, Note_on_c, 0, 62, 0
2, 198363, Note_on_c, 0, 59, 0
2, 198383, Note_on_c, 0, 61, 0
2, 198383, Note_on_c, 0, 57, 0
2, 198390, Note_on_c, 0, 66, 102
2, 198412, Note_on_c, 0, 66, 0
2, 198419, Note_on_c, 0, 57, 87
2, 198419, Note_on_c, 0, 61, 87
2, 198442, Note_on_c, 0, 61, 0
2, 198442, Note_on_c, 0, 57, 0
2, 198449, Note_on_c, 0, 66, 102
2, 198471, Note_on_c, 0, 66, 0
2, 198478, Note_on_c, 0, 57, 87
2, 198478, Note_on_c, 0, 61, 87
2, 198501, Note_on_c, 0, 61, 0
2, 198501, Note_on_c, 0, 57, 0
2, 198508, Note_on_c, 0, 66, 102
2, 198530, Note_on_c, 0, 66, 0
2, 198537, Note_on_c, 0, 57, 87
2, 198537, Note_on_c, 0, 61, 87
2, 198560, Note_on_c, 0, 61, 0
2, 198560, Note_on_c, 0, 57, 0
2, 198567, Note_on_c, 0, 66, 102
2, 198589, Note_on_c, 0, 66, 0
2, 198596, Note_on_c, 0, 57, 87
2, 198596, Note_on_c, 0, 61, 87
2, 198599, Note_on_c, 0, 73, 0
2, 198599, Note_on_c, 0, 69, 0
2, 198599, Note_on_c, 0, 71, 104
2, 198599, Note_on_c, 0, 74, 104
2, 198599, Note_on_c, 0, 78, 104
2, 198599, Note_on_c, 0, 59, 87
2, 198599, Note_on_c, 0, 62, 87
2, 198611, Note_on_c, 0, 59, 0
2, 198611, Note_on_c, 0, 62, 0
2, 198613, Note_on_c, 0, 66, 100
2, 198619, Note_on_c, 0, 57, 0
2, 198619, Note_on_c, 0, 61, 0
2, 198624, Note_on_c, 0, 66, 0
2, 198627, Note_on_c, 0, 59, 87
2, 198627, Note_on_c, 0, 62, 87
2, 198639, Note_on_c, 0, 59, 0
2, 198639, Note_on_c, 0, 62, 0
2, 198641, Note_on_c, 0, 66, 100
2, 198653, Note_on_c, 0, 66, 0
2, 198656, Note_on_c, 0, 59, 87
2, 198656, Note_on_c, 0, 62, 87
2, 198667, Note_on_c, 0, 59, 0
2, 198667, Note_on_c, 0, 62, 0
2, 198669, Note_on_c, 0, 66, 100
2, 198681, Note_on_c, 0, 66, 0
2, 198684, Note_on_c, 0, 59, 87
2, 198684, Note_on_c, 0, 62, 87
2, 198695, Note_on_c, 0, 59, 0
2, 198695, Note_on_c, 0, 62, 0
2, 198698, Note_on_c, 0, 66, 100
2, 198709, Note_on_c, 0, 66, 0
2, 198712, Note_on_c, 0, 59, 87
2, 198712, Note_on_c, 0, 62, 87
2, 198720, Note_on_c, 0, 59, 0
2, 198720, Note_on_c, 0, 66, 0
2, 198720, Note_on_c, 0, 78, 0
2, 198720, Note_on_c, 0, 71, 0
2, 198720, Note_on_c, 0, 47, 0
2, 198720, Note_on_c, 0, 54, 0
2, 198720, Note_on_c, 0, 74, 0
2, 198720, Note_on_c, 0, 62, 0
2, 198720, Note_on_c, 0, 38, 0
2, 198720, Note_on_c, 0, 71, 0
2, 198720, Note_on_c, 0, 60, 84
2, 198720, Note_on_c, 0, 72, 84
2, 198720, Note_on_c, 0, 65, 71
2, 198720, Note_on_c, 0, 68, 71
2, 198720, Note_on_c, 0, 72, 71
2, 198720, Note_on_c, 0, 41, 66
2, 198720, Note_on_c, 0, 56, 66
2, 198720, Note_on_c, 0, 48, 50
2, 198723, Note_on_c, 0, 59, 0
2, 198723, Note_on_c, 0, 62, 0
2, 198840, Note_on_c, 0, 50, 84
2, 198959, Note_on_c, 0, 50, 0
2, 198959, Note_on_c, 0, 62, 110
2, 199080, Note_on_c, 0, 62, 0
2, 199080, Note_on_c, 0, 72, 0
2, 199080, Note_on_c, 0, 48, 0
2, 199080, Note_on_c, 0, 60, 0
2, 199080, Note_on_c, 0, 62, 97
2, 199080, Note_on_c, 0, 74, 97
2, 199080, Note_on_c, 0, 50, 62
2, 199200, Note_on_c, 0, 62, 83
2, 199319, Note_on_c, 0, 62, 0
2, 199319, Note_on_c, 0, 74, 117
2, 199440, Note_on_c, 0, 74, 0
2, 199620, Note_on_c, 0, 50, 0
2, 199620, Note_on_c, 0, 74, 0
2, 199620, Note_on_c, 0, 62, 0
2, 199620, Note_on_c, 0, 63, 96
2, 199620, Note_on_c, 0, 75, 96
2, 199620, Note_on_c, 0, 51, 56
2, 199800, Note_on_c, 0, 51, 0
2, 199800, Note_on_c, 0, 65, 0
2, 199800, Note_on_c, 0, 72, 0
2, 199800, Note_on_c, 0, 41, 0
2, 199800, Note_on_c, 0, 56, 0
2, 199800, Note_on_c, 0, 68, 0
2, 199800, Note_on_c, 0, 63, 0
2, 199800, Note_on_c, 0, 75, 0
2, 199800, Note_on_c, 0, 64, 100
2, 199800, Note_on_c, 0, 76, 100
2, 199800, Note_on_c, 0, 64, 57
2, 199800, Note_on_c, 0, 69, 115
2, 199800, Note_on_c, 0, 72, 115
2, 199800, Note_on_c, 0, 32, 67
2, 199800, Note_on_c, 0, 44, 67
2, 199800, Note_on_c, 0, 54, 51
2, 199800, Note_on_c, 0, 57, 56
2, 199800, Note_on_c, 0, 60, 56
2, 199920, Note_on_c, 0, 69, 85
2, 200039, Note_on_c, 0, 69, 0
2, 200039, Note_on_c, 0, 57, 80
2, 200160, Note_on_c, 0, 57, 0
2, 200160, Note_on_c, 0, 76, 0
2, 200160, Note_on_c, 0, 64, 0
2, 200160, Note_on_c, 0, 66, 97
2, 200160, Note_on_c, 0, 78, 97
2, 200160, Note_on_c, 0, 69, 115
2, 200280, Note_on_c, 0, 69, 0
2, 200280, Note_on_c, 0, 57, 86
2, 200399, Note_on_c, 0, 57, 0
2, 200399, Note_on_c, 0, 69, 113
2, 200520, Note_on_c, 0, 69, 0
2, 200520, Note_on_c, 0, 78, 0
2, 200520, Note_on_c, 0, 72, 0
2, 200520, Note_on_c, 0, 60, 0
2, 200520, Note_on_c, 0, 69, 0
2, 200520, Note_on_c, 0, 66, 0
2, 200520, Note_on_c, 0, 57, 0
2, 200520, Note_on_c, 0, 64, 0
2, 200520, Note_on_c, 0, 68, 92
2, 200520, Note_on_c, 0, 75, 92
2, 200520, Note_on_c, 0, 80, 92
2, 200520, Note_on_c, 0, 56, 89
2, 200520, Note_on_c, 0, 60, 89
2, 200520, Note_on_c, 0, 63, 89
2, 200880, Note_on_c, 0, 63, 0
2, 200880, Note_on_c, 0, 68, 0
2, 200880, Note_on_c, 0, 32, 0
2, 200880, Note_on_c, 0, 75, 0
2, 200880, Note_on_c, 0, 44, 0
2, 200880, Note_on_c, 0, 54, 0
2, 200880, Note_on_c, 0, 56, 0
2, 200880, Note_on_c, 0, 80, 0
2, 200880, Note_on_c, 0, 60, 0
2, 200880, Note_on_c, 0, 69, 99
2, 200880, Note_on_c, 0, 81, 99
2, 200880, Note_on_c, 0, 66, 83
2, 200880, Note_on_c, 0, 74, 83
2, 200880, Note_on_c, 0, 62, 87
2, 200880, Note_on_c, 0, 38, 68
2, 200880, Note_on_c, 0, 45, 68
2, 200880, Note_on_c, 0, 57, 58
2, 200880, Note_on_c, 0, 54, 48
2, 201000, Note_on_c, 0, 57, 0
2, 201000, Note_on_c, 0, 54, 58
2, 201060, Note_on_c, 0, 74, 0
2, 201060, Note_on_c, 0, 66, 0
2, 201060, Note_on_c, 0, 64, 68
2, 201060, Note_on_c, 0, 69, 68
2, 201060, Note_on_c, 0, 73, 68
2, 201119, Note_on_c, 0, 54, 0
2, 201119, Note_on_c, 0, 45, 58
2, 201240, Note_on_c, 0, 62, 0
2, 201240, Note_on_c, 0, 73, 0
2, 201240, Note_on_c, 0, 64, 0
2, 201240, Note_on_c, 0, 69, 0
2, 201240, Note_on_c, 0, 81, 0
2, 201240, Note_on_c, 0, 69, 0
2, 201240, Note_on_c, 0, 45, 0
2, 201240, Note_on_c, 0, 71, 100
2, 201240, Note_on_c, 0, 83, 100
2, 201240, Note_on_c, 0, 66, 73
2, 201240, Note_on_c, 0, 69, 73
2, 201240, Note_on_c, 0, 74, 73
2, 201240, Note_on_c, 0, 61, 88
2, 201360, Note_on_c, 0, 38, 54
2, 201420, Note_on_c, 0, 74, 0
2, 201420, Note_on_c, 0, 69, 0
2, 201420, Note_on_c, 0, 66, 0
2, 201420, Note_on_c, 0, 64, 70
2, 201420, Note_on_c, 0, 67, 70
2, 201420, Note_on_c, 0, 71, 70
2, 201479, Note_on_c, 0, 38, 0
2, 201479, Note_on_c, 0, 26, 55
2, 201600, Note_on_c, 0, 26, 0
2, 201600, Note_on_c, 0, 67, 0
2, 201600, Note_on_c, 0, 71, 0
2, 201600, Note_on_c, 0, 61, 0
2, 201600, Note_on_c, 0, 64, 0
2, 201600, Note_on_c, 0, 66, 79
2, 201600, Note_on_c, 0, 69, 79
2, 201600, Note_on_c, 0, 74, 79
2, 201600, Note_on_c, 0, 62, 95
2, 201600, Note_on_c, 0, 57, 62
2, 201720, Note_on_c, 0, 57, 0
2, 201720, Note_on_c, 0, 54, 55
2, 201780, Note_on_c, 0, 74, 0
2, 201780, Note_on_c, 0, 69, 0
2, 201780, Note_on_c, 0, 66, 0
2, 201780, Note_on_c, 0, 64, 68
2, 201780, Note_on_c, 0, 69, 68
2, 201780, Note_on_c, 0, 73, 68
2, 201839, Note_on_c, 0, 54, 0
2, 201839, Note_on_c, 0, 45, 50
2, 201960, Note_on_c, 0, 45, 0
2, 201960, Note_on_c, 0, 69, 0
2, 201960, Note_on_c, 0, 38, 0
2, 201960, Note_on_c, 0, 62, 0
2, 201960, Note_on_c, 0, 83, 0
2, 201960, Note_on_c, 0, 45, 0
2, 201960, Note_on_c, 0, 73, 0
2, 201960, Note_on_c, 0, 64, 0
2, 201960, Note_on_c, 0, 71, 0
2, 201960, Note_on_c, 0, 54, 0
2, 201960, Note_on_c, 0, 69, 88
2, 201960, Note_on_c, 0, 81, 88
2, 201960, Note_on_c, 0, 66, 73
2, 201960, Note_on_c, 0, 74, 73
2, 201960, Note_on_c, 0, 59, 90
2, 202080, Note_on_c, 0, 38, 53
2, 202140, Note_on_c, 0, 74, 0
2, 202140, Note_on_c, 0, 66, 0
2, 202140, Note_on_c, 0, 62, 64
2, 202140, Note_on_c, 0, 66, 64
2, 202140, Note_on_c, 0, 69, 64
2, 202199, Note_on_c, 0, 38, 0
2, 202199, Note_on_c, 0, 26, 48
2, 202320, Note_on_c, 0, 26, 0
2, 202320, Note_on_c, 0, 69, 0
2, 202320, Note_on_c, 0, 59, 0
2, 202320, Note_on_c, 0, 81, 0
2, 202320, Note_on_c, 0, 69, 0
2, 202320, Note_on_c, 0, 66, 0
2, 202320, Note_on_c, 0, 62, 0
2, 202320, Note_on_c, 0, 71, 94
2, 202320, Note_on_c, 0, 83, 94
2, 202320, Note_on_c, 0, 66, 80
2, 202320, Note_on_c, 0, 69, 80
2, 202320, Note_on_c, 0, 74, 80
2, 202320, Note_on_c, 0, 62, 98
2, 202320, Note_on_c, 0, 57, 61
2, 202440, Note_on_c, 0, 57, 0
2, 202440, Note_on_c, 0, 54, 56
2, 202500, Note_on_c, 0, 69, 0
2, 202500, Note_on_c, 0, 66, 0
2, 202500, Note_on_c, 0, 74, 0
2, 202500, Note_on_c, 0, 64, 65
2, 202500, Note_on_c, 0, 69, 65
2, 202500, Note_on_c, 0, 73, 65
2, 202559, Note_on_c, 0, 54, 0
2, 202559, Note_on_c, 0, 45, 51
2, 202680, Note_on_c, 0, 45, 0
2, 202680, Note_on_c, 0, 73, 0
2, 202680, Note_on_c, 0, 64, 0
2, 202680, Note_on_c, 0, 62, 0
2, 202680, Note_on_c, 0, 69, 0
2, 202680, Note_on_c, 0, 66, 75
2, 202680, Note_on_c, 0, 69, 75
2, 202680, Note_on_c, 0, 74, 75
2, 202680, Note_on_c, 0, 57, 89
2, 202800, Note_on_c, 0, 38, 56
2, 202860, Note_on_c, 0, 74, 0
2, 202860, Note_on_c, 0, 69, 0
2, 202860, Note_on_c, 0, 66, 0
2, 202860, Note_on_c, 0, 57, 59
2, 202860, Note_on_c, 0, 64, 59
2, 202860, Note_on_c, 0, 67, 59
2, 202919, Note_on_c, 0, 38, 0
2, 202919, Note_on_c, 0, 26, 55
2, 203040, Note_on_c, 0, 26, 0
2, 203040, Note_on_c, 0, 67, 0
2, 203040, Note_on_c, 0, 57, 0
2, 203040, Note_on_c, 0, 71, 0
2, 203040, Note_on_c, 0, 83, 0
2, 203040, Note_on_c, 0, 64, 0
2, 203040, Note_on_c, 0, 57, 0
2, 203040, Note_on_c, 0, 57, 69
2, 203040, Note_on_c, 0, 69, 69
2, 203040, Note_on_c, 0, 66, 72
2, 203040, Note_on_c, 0, 62, 89
2, 203040, Note_on_c, 0, 57, 90
2, 203040, Note_on_c, 0, 38, 47
2, 203040, Note_on_c, 0, 45, 47
2, 203040, Note_on_c, 0, 54, 47
2, 203220, Note_on_c, 0, 66, 0
2, 203220, Note_on_c, 0, 57, 0
2, 203220, Note_on_c, 0, 64, 67
2, 203220, Note_on_c, 0, 55, 89
2, 203220, Note_on_c, 0, 50, 66
2, 203357, Note_on_c, 0, 62, 0
2, 203400, Note_on_c, 0, 69, 0
2, 203400, Note_on_c, 0, 50, 0
2, 203400, Note_on_c, 0, 55, 0
2, 203400, Note_on_c, 0, 57, 0
2, 203400, Note_on_c, 0, 64, 0
2, 203400, Note_on_c, 0, 59, 95
2, 203400, Note_on_c, 0, 71, 95
2, 203400, Note_on_c, 0, 66, 74
2, 203400, Note_on_c, 0, 61, 95
2, 203400, Note_on_c, 0, 57, 98
2, 203400, Note_on_c, 0, 45, 67
2, 203580, Note_on_c, 0, 57, 0
2, 203580, Note_on_c, 0, 66, 0
2, 203580, Note_on_c, 0, 45, 0
2, 203580, Note_on_c, 0, 61, 64
2, 203580, Note_on_c, 0, 52, 92
2, 203580, Note_on_c, 0, 38, 63
2, 203717, Note_on_c, 0, 61, 0
2, 203760, Note_on_c, 0, 52, 0
2, 203760, Note_on_c, 0, 61, 0
2, 203760, Note_on_c, 0, 38, 0
2, 203760, Note_on_c, 0, 66, 74
2, 203760, Note_on_c, 0, 62, 112
2, 203760, Note_on_c, 0, 57, 100
2, 203760, Note_on_c, 0, 57, 77
2, 203760, Note_on_c, 0, 50, 64
2, 203940, Note_on_c, 0, 57, 0
2, 203940, Note_on_c, 0, 57, 0
2, 203940, Note_on_c, 0, 66, 0
2, 203940, Note_on_c, 0, 64, 68
2, 203940, Note_on_c, 0, 55, 94
2, 203940, Note_on_c, 0, 50, 67
2, 204077, Note_on_c, 0, 62, 0
2, 204120, Note_on_c, 0, 50, 0
2, 204120, Note_on_c, 0, 71, 0
2, 204120, Note_on_c, 0, 59, 0
2, 204120, Note_on_c, 0, 54, 0
2, 204120, Note_on_c, 0, 45, 0
2, 204120, Note_on_c, 0, 55, 0
2, 204120, Note_on_c, 0, 64, 0
2, 204120, Note_on_c, 0, 38, 0
2, 204120, Note_on_c, 0, 50, 0
2, 204120, Note_on_c, 0, 57, 89
2, 204120, Note_on_c, 0, 69, 89
2, 204120, Note_on_c, 0, 62, 79
2, 204120, Note_on_c, 0, 66, 79
2, 204120, Note_on_c, 0, 59, 105
2, 204120, Note_on_c, 0, 57, 96
2, 204120, Note_on_c, 0, 45, 66
2, 204120, Note_on_c, 0, 38, 48
2, 204120, Note_on_c, 0, 45, 48
2, 204120, Note_on_c, 0, 54, 48
2, 204300, Note_on_c, 0, 45, 0
2, 204300, Note_on_c, 0, 62, 0
2, 204300, Note_on_c, 0, 66, 0
2, 204300, Note_on_c, 0, 57, 0
2, 204300, Note_on_c, 0, 59, 67
2, 204300, Note_on_c, 0, 50, 89
2, 204300, Note_on_c, 0, 35, 64
2, 204437, Note_on_c, 0, 59, 0
2, 204480, Note_on_c, 0, 69, 0
2, 204480, Note_on_c, 0, 35, 0
2, 204480, Note_on_c, 0, 57, 0
2, 204480, Note_on_c, 0, 50, 0
2, 204480, Note_on_c, 0, 59, 0
2, 204480, Note_on_c, 0, 71, 99
2, 204480, Note_on_c, 0, 66, 83
2, 204480, Note_on_c, 0, 62, 113
2, 204480, Note_on_c, 0, 59, 103
2, 204480, Note_on_c, 0, 57, 79
2, 204480, Note_on_c, 0, 50, 56
2, 204660, Note_on_c, 0, 57, 0
2, 204660, Note_on_c, 0, 66, 0
2, 204660, Note_on_c, 0, 64, 74
2, 204660, Note_on_c, 0, 50, 65
2, 204797, Note_on_c, 0, 62, 0
2, 204840, Note_on_c, 0, 64, 0
2, 204840, Note_on_c, 0, 50, 0
2, 204840, Note_on_c, 0, 62, 71
2, 204840, Note_on_c, 0, 66, 71
2, 204840, Note_on_c, 0, 57, 102
2, 204840, Note_on_c, 0, 45, 65
2, 205020, Note_on_c, 0, 66, 0
2, 205020, Note_on_c, 0, 62, 0
2, 205020, Note_on_c, 0, 45, 0
2, 205020, Note_on_c, 0, 52, 64
2, 205020, Note_on_c, 0, 55, 64
2, 205020, Note_on_c, 0, 59, 64
2, 205020, Note_on_c, 0, 38, 66
2, 205157, Note_on_c, 0, 57, 0
2, 205200, Note_on_c, 0, 55, 0
2, 205200, Note_on_c, 0, 45, 0
2, 205200, Note_on_c, 0, 50, 0
2, 205200, Note_on_c, 0, 71, 0
2, 205200, Note_on_c, 0, 38, 0
2, 205200, Note_on_c, 0, 54, 0
2, 205200, Note_on_c, 0, 59, 0
2, 205200, Note_on_c, 0, 52, 0
2, 205200, Note_on_c, 0, 59, 0
2, 205200, Note_on_c, 0, 38, 0
2, 205200, Note_on_c, 0, 62, 75
2, 205200, Note_on_c, 0, 54, 63
2, 205200, Note_on_c, 0, 45, 84
2, 205200, Note_on_c, 0, 45, 73
2, 205200, Note_on_c, 0, 38, 41
2, 205380, Note_on_c, 0, 45, 0
2, 205380, Note_on_c, 0, 45, 0
2, 205380, Note_on_c, 0, 54, 0
2, 205380, Note_on_c, 0, 52, 71
2, 205380, Note_on_c, 0, 43, 88
2, 205380, Note_on_c, 0, 38, 64
2, 205560, Note_on_c, 0, 43, 0
2, 205560, Note_on_c, 0, 52, 0
2, 205560, Note_on_c, 0, 38, 0
2, 205560, Note_on_c, 0, 62, 0
2, 205560, Note_on_c, 0, 61, 89
2, 205560, Note_on_c, 0, 54, 72
2, 205560, Note_on_c, 0, 45, 94
2, 205740, Note_on_c, 0, 45, 0
2, 205740, Note_on_c, 0, 54, 0
2, 205740, Note_on_c, 0, 55, 70
2, 205740, Note_on_c, 0, 47, 96
2, 205920, Note_on_c, 0, 47, 0
2, 205920, Note_on_c, 0, 55, 0
2, 205920, Note_on_c, 0, 61, 0
2, 205920, Note_on_c, 0, 62, 96
2, 205920, Note_on_c, 0, 54, 70
2, 205920, Note_on_c, 0, 45, 92
2, 205920, Note_on_c, 0, 45, 65
2, 206100, Note_on_c, 0, 45, 0
2, 206100, Note_on_c, 0, 54, 0
2, 206100, Note_on_c, 0, 45, 0
2, 206100, Note_on_c, 0, 52, 64
2, 206100, Note_on_c, 0, 43, 90
2, 206100, Note_on_c, 0, 38, 65
2, 206280, Note_on_c, 0, 43, 0
2, 206280, Note_on_c, 0, 52, 0
2, 206280, Note_on_c, 0, 38, 0
2, 206280, Note_on_c, 0, 62, 0
2, 206280, Note_on_c, 0, 59, 91
2, 206280, Note_on_c, 0, 54, 71
2, 206280, Note_on_c, 0, 45, 93
2, 206460, Note_on_c, 0, 45, 0
2, 206460, Note_on_c, 0, 54, 0
2, 206460, Note_on_c, 0, 55, 71
2, 206460, Note_on_c, 0, 47, 100
2, 206640, Note_on_c, 0, 47, 0
2, 206640, Note_on_c, 0, 55, 0
2, 206640, Note_on_c, 0, 59, 0
2, 206640, Note_on_c, 0, 62, 102
2, 206640, Note_on_c, 0, 54, 70
2, 206640, Note_on_c, 0, 45, 91
2, 206640, Note_on_c, 0, 45, 46
2, 206820, Note_on_c, 0, 45, 0
2, 206820, Note_on_c, 0, 54, 0
2, 206820, Note_on_c, 0, 45, 0
2, 206820, Note_on_c, 0, 52, 70
2, 206820, Note_on_c, 0, 43, 87
2, 206820, Note_on_c, 0, 38, 46
2, 207000, Note_on_c, 0, 43, 0
2, 207000, Note_on_c, 0, 52, 0
2, 207000, Note_on_c, 0, 38, 0
2, 207000, Note_on_c, 0, 62, 0
2, 207000, Note_on_c, 0, 57, 92
2, 207000, Note_on_c, 0, 54, 69
2, 207000, Note_on_c, 0, 45, 93
2, 207180, Note_on_c, 0, 45, 0
2, 207180, Note_on_c, 0, 54, 0
2, 207180, Note_on_c, 0, 55, 71
2, 207180, Note_on_c, 0, 47, 95
2, 207360, Note_on_c, 0, 47, 0
2, 207360, Note_on_c, 0, 38, 0
2, 207360, Note_on_c, 0, 57, 0
2, 207360, Note_on_c, 0, 55, 0
2, 207360, Note_on_c, 0, 62, 104
2, 207360, Note_on_c, 0, 54, 69
2, 207360, Note_on_c, 0, 45, 85
2, 207360, Note_on_c, 0, 38, 69
2, 208260, Note_on_c, 0, 38, 0
2, 208260, Note_on_c, 0, 62, 0
2, 208260, Note_on_c, 0, 54, 0
2, 208260, Note_on_c, 0, 45, 0
2, 208440, Note_on_c, 0, 71, 88
2, 208440, Note_on_c, 0, 74, 88
2, 208440, Note_on_c, 0, 62, 84
2, 209160, Note_on_c, 0, 74, 0
2, 209160, Note_on_c, 0, 71, 0
2, 209160, Note_on_c, 0, 66, 88
2, 209160, Note_on_c, 0, 70, 88
2, 209520, Note_on_c, 0, 70, 0
2, 209520, Note_on_c, 0, 66, 0
2, 209520, Note_on_c, 0, 60, 76
2, 209520, Note_on_c, 0, 63, 76
2, 209880, Note_on_c, 0, 63, 0
2, 209880, Note_on_c, 0, 60, 0
2, 209880, Note_on_c, 0, 56, 81
2, 209880, Note_on_c, 0, 59, 81
2, 210119, Note_on_c, 0, 59, 0
2, 210119, Note_on_c, 0, 56, 0
2, 210119, Note_on_c, 0, 55, 97
2, 210119, Note_on_c, 0, 58, 97
2, 210119, Note_on_c, 0, 61, 97
2, 210218, Note_on_c, 0, 62, 0
2, 210218, Note_on_c, 0, 26, 83
2, 210240, Note_on_c, 0, 26, 0
2, 210240, Note_on_c, 0, 61, 0
2, 210240, Note_on_c, 0, 58, 0
2, 210240, Note_on_c, 0, 55, 0
2, 210240, Note_on_c, 0, 54, 90
2, 210240, Note_on_c, 0, 57, 90
2, 210240, Note_on_c, 0, 62, 90
2, 210240, Note_on_c, 0, 38, 98
2, 210240, Note_on_c, 0, 45, 98
2, 210240, Note_on_c, 0, 50, 98
2, 211680, Note_on_c, 0, 50, 0
2, 211680, Note_on_c, 0, 57, 0
2, 211680, Note_on_c, 0, 62, 0
2, 211680, Note_on_c, 0, 54, 0
2, 211680, Note_on_c, 0, 45, 0
2, 211680, Note_on_c, 0, 38, 0
2, 211680, End_track
0, 0, End_of_file
