0, 0, Header, 1, 2, 360
1, 0, Start_track
1, 0, Title_t, "3 Russian Folksongs Op 41 No III"
1, 0, Copyright_t, "Copyright (C) "
1, 0, Text_t, "Rachmaninoff\012"
1, 0, Time_signature, 3, 2, 24, 8
1, 0, Key_signature, -1, "major"
1, 0, Tempo, 1200000
1, 5760, Tempo, 1333333
1, 5819, Tempo, 1500000
1, 5880, Tempo, 1714286
1, 5940, Tempo, 2000000
1, 5999, Tempo, 2400000
1, 6060, Tempo, 3000000
1, 6480, Tempo, 1200000
1, 6570, Tempo, 5000000
1, 6660, Tempo, 1200000
1, 63180, Tempo, 1200000
1, 63208, Tempo, 1218274
1, 63236, Tempo, 1237113
1, 63264, Tempo, 1256545
1, 63293, Tempo, 1276596
1, 63321, Tempo, 1297297
1, 63349, Tempo, 1318681
1, 63377, Tempo, 1340483
1, 63405, Tempo, 1363327
1, 63433, Tempo, 1386963
1, 63461, Tempo, 1411433
1, 63489, Tempo, 1436782
1, 63518, Tempo, 1463058
1, 63546, Tempo, 1490313
1, 63574, Tempo, 1518603
1, 63602, Tempo, 1547988
1, 63630, Tempo, 1578532
1, 63668, Tempo, 1621622
1, 63720, Tempo, 1200000
1, 73440, Tempo, 1200000
1, 73503, Tempo, 1218522
1, 73567, Tempo, 1237624
1, 73630, Tempo, 1257334
1, 73693, Tempo, 1277683
1, 73757, Tempo, 1298701
1, 73820, Tempo, 1320423
1, 73883, Tempo, 1343183
1, 73946, Tempo, 1366431
1, 74010, Tempo, 1390498
1, 74073, Tempo, 1415428
1, 74136, Tempo, 1441268
1, 74199, Tempo, 1468069
1, 74263, Tempo, 1495886
1, 74326, Tempo, 1524778
1, 74389, Tempo, 1554807
1, 74453, Tempo, 1586043
1, 74520, Tempo, 1500000
1, 74522, Tempo, 1621622
1, 78359, Tempo, 1666667
1, 78420, Tempo, 1875000
1, 78480, Tempo, 2142857
1, 78539, Tempo, 2500000
1, 78600, Tempo, 3000000
1, 78660, Tempo, 3750000
1, 78719, Tempo, 5000000
1, 78780, Tempo, 7500000
1, 78840, Tempo, 1500000
1, 79830, Tempo, 5000000
1, 79920, Tempo, 1500000
1, 79920, End_track
2, 0, Start_track
2, 0, Title_t, "Piano"
2, 0, Program_c, 0, 0
2, 0, Control_c, 0, 7, 105
2, 0, Control_c, 0, 10, 63
2, 0, Control_c, 0, 91, 48
2, 0, Control_c, 0, 121, 0
2, 0, Control_c, 0, 64, 0
2, 0, Control_c, 0, 121, 0
2, 0, Control_c, 0, 64, 0
2, 0, Control_c, 0, 91, 48
2, 0, Control_c, 0, 10, 51
2, 0, Control_c, 0, 7, 100
2, 0, Control_c, 0, 121, 0
2, 0, Control_c, 0, 64, 0
2, 0, Control_c, 0, 91, 48
2, 0, Control_c, 0, 10, 51
2, 0, Control_c, 0, 7, 100
2, 0, Control_c, 0, 121, 0
2, 0, Control_c, 0, 64, 0
2, 0, Control_c, 0, 91, 48
2, 0, Control_c, 0, 10, 51
2, 0, Control_c, 0, 7, 100
2, 0, Control_c, 0, 121, 0
2, 0, Control_c, 0, 64, 0
2, 0, Control_c, 0, 91, 48
2, 0, Control_c, 0, 10, 51
2, 0, Control_c, 0, 7, 100
2, 360, Note_on_c, 0, 64, 66
2, 993, Note_on_c, 0, 64, 0
2, 1080, Note_on_c, 0, 64, 60
2, 1713, Note_on_c, 0, 64, 0
2, 1800, Note_on_c, 0, 64, 71
2, 2117, Note_on_c, 0, 64, 0
2, 2160, Note_on_c, 0, 65, 123
2, 2160, Note_on_c, 0, 60, 78
2, 2160, Note_on_c, 0, 64, 90
2, 2160, Note_on_c, 0, 53, 101
2, 2160, Note_on_c, 0, 38, 81
2, 2160, Note_on_c, 0, 46, 79
2, 2318, Note_on_c, 0, 64, 0
2, 2340, Note_on_c, 0, 60, 0
2, 2340, Note_on_c, 0, 58, 84
2, 2340, Note_on_c, 0, 62, 93
2, 2520, Note_on_c, 0, 58, 0
2, 2520, Note_on_c, 0, 46, 0
2, 2520, Note_on_c, 0, 57, 78
2, 2520, Note_on_c, 0, 45, 86
2, 2657, Note_on_c, 0, 62, 0
2, 2700, Note_on_c, 0, 60, 88
2, 2880, Note_on_c, 0, 57, 0
2, 2880, Note_on_c, 0, 65, 0
2, 2880, Note_on_c, 0, 53, 0
2, 2880, Note_on_c, 0, 53, 79
2, 3017, Note_on_c, 0, 60, 0
2, 3060, Note_on_c, 0, 57, 79
2, 3218, Note_on_c, 0, 57, 0
2, 3240, Note_on_c, 0, 53, 0
2, 3240, Note_on_c, 0, 45, 0
2, 3240, Note_on_c, 0, 38, 0
2, 3240, Note_on_c, 0, 65, 98
2, 3240, Note_on_c, 0, 60, 89
2, 3240, Note_on_c, 0, 64, 106
2, 3240, Note_on_c, 0, 53, 101
2, 3240, Note_on_c, 0, 38, 83
2, 3240, Note_on_c, 0, 46, 93
2, 3398, Note_on_c, 0, 64, 0
2, 3420, Note_on_c, 0, 60, 0
2, 3420, Note_on_c, 0, 58, 74
2, 3420, Note_on_c, 0, 62, 87
2, 3600, Note_on_c, 0, 58, 0
2, 3600, Note_on_c, 0, 46, 0
2, 3600, Note_on_c, 0, 57, 77
2, 3600, Note_on_c, 0, 45, 85
2, 3737, Note_on_c, 0, 62, 0
2, 3780, Note_on_c, 0, 60, 82
2, 3960, Note_on_c, 0, 57, 0
2, 3960, Note_on_c, 0, 65, 0
2, 3960, Note_on_c, 0, 53, 0
2, 3960, Note_on_c, 0, 53, 66
2, 4097, Note_on_c, 0, 60, 0
2, 4140, Note_on_c, 0, 57, 81
2, 4298, Note_on_c, 0, 57, 0
2, 4320, Note_on_c, 0, 38, 0
2, 4320, Note_on_c, 0, 45, 0
2, 4320, Note_on_c, 0, 64, 60
2, 4320, Note_on_c, 0, 38, 60
2, 4320, Note_on_c, 0, 45, 60
2, 4399, Note_on_c, 0, 64, 0
2, 4410, Note_on_c, 0, 62, 62
2, 4500, Note_on_c, 0, 62, 0
2, 4500, Note_on_c, 0, 60, 63
2, 4590, Note_on_c, 0, 60, 0
2, 4590, Note_on_c, 0, 57, 64
2, 4680, Note_on_c, 0, 57, 0
2, 4680, Note_on_c, 0, 64, 65
2, 4759, Note_on_c, 0, 64, 0
2, 4770, Note_on_c, 0, 62, 66
2, 4860, Note_on_c, 0, 62, 0
2, 4860, Note_on_c, 0, 60, 67
2, 4950, Note_on_c, 0, 60, 0
2, 4950, Note_on_c, 0, 57, 68
2, 5040, Note_on_c, 0, 57, 0
2, 5040, Note_on_c, 0, 64, 69
2, 5099, Note_on_c, 0, 64, 0
2, 5099, Note_on_c, 0, 62, 70
2, 5160, Note_on_c, 0, 62, 0
2, 5160, Note_on_c, 0, 60, 70
2, 5220, Note_on_c, 0, 60, 0
2, 5220, Note_on_c, 0, 57, 71
2, 5279, Note_on_c, 0, 57, 0
2, 5279, Note_on_c, 0, 64, 72
2, 5340, Note_on_c, 0, 64, 0
2, 5340, Note_on_c, 0, 62, 72
2, 5400, Note_on_c, 0, 62, 0
2, 5400, Note_on_c, 0, 60, 60
2, 5459, Note_on_c, 0, 60, 0
2, 5459, Note_on_c, 0, 57, 60
2, 5520, Note_on_c, 0, 57, 0
2, 5520, Note_on_c, 0, 64, 59
2, 5580, Note_on_c, 0, 64, 0
2, 5580, Note_on_c, 0, 62, 58
2, 5639, Note_on_c, 0, 62, 0
2, 5639, Note_on_c, 0, 60, 58
2, 5700, Note_on_c, 0, 60, 0
2, 5700, Note_on_c, 0, 57, 57
2, 5760, Note_on_c, 0, 57, 0
2, 5760, Note_on_c, 0, 64, 56
2, 5819, Note_on_c, 0, 64, 0
2, 5819, Note_on_c, 0, 62, 56
2, 5880, Note_on_c, 0, 62, 0
2, 5880, Note_on_c, 0, 60, 55
2, 5940, Note_on_c, 0, 60, 0
2, 5940, Note_on_c, 0, 57, 54
2, 5999, Note_on_c, 0, 57, 0
2, 5999, Note_on_c, 0, 60, 53
2, 6060, Note_on_c, 0, 60, 0
2, 6060, Note_on_c, 0, 64, 53
2, 6120, Note_on_c, 0, 64, 0
2, 6120, Note_on_c, 0, 62, 52
2, 6660, Note_on_c, 0, 62, 0
2, 6660, Note_on_c, 0, 53, 0
2, 6660, Note_on_c, 0, 38, 0
2, 6660, Note_on_c, 0, 45, 0
2, 6840, Note_on_c, 0, 60, 50
2, 7200, Note_on_c, 0, 60, 0
2, 7200, Note_on_c, 0, 62, 66
2, 7560, Note_on_c, 0, 62, 0
2, 7560, Note_on_c, 0, 64, 66
2, 8100, Note_on_c, 0, 64, 0
2, 8100, Note_on_c, 0, 62, 57
2, 8280, Note_on_c, 0, 62, 0
2, 8280, Note_on_c, 0, 60, 56
2, 8460, Note_on_c, 0, 60, 0
2, 8460, Note_on_c, 0, 57, 59
2, 8640, Note_on_c, 0, 57, 0
2, 8640, Note_on_c, 0, 67, 38
2, 8640, Note_on_c, 0, 64, 69
2, 8760, Note_on_c, 0, 67, 0
2, 8760, Note_on_c, 0, 65, 45
2, 8879, Note_on_c, 0, 65, 0
2, 8879, Note_on_c, 0, 67, 49
2, 9000, Note_on_c, 0, 67, 0
2, 9000, Note_on_c, 0, 64, 0
2, 9000, Note_on_c, 0, 69, 55
2, 9000, Note_on_c, 0, 62, 64
2, 9540, Note_on_c, 0, 69, 0
2, 9540, Note_on_c, 0, 67, 45
2, 9720, Note_on_c, 0, 67, 0
2, 9720, Note_on_c, 0, 62, 0
2, 9720, Note_on_c, 0, 70, 89
2, 9720, Note_on_c, 0, 67, 96
2, 10260, Note_on_c, 0, 67, 0
2, 10260, Note_on_c, 0, 65, 80
2, 10440, Note_on_c, 0, 65, 0
2, 10440, Note_on_c, 0, 64, 80
2, 10560, Note_on_c, 0, 64, 0
2, 10560, Note_on_c, 0, 62, 76
2, 10679, Note_on_c, 0, 62, 0
2, 10679, Note_on_c, 0, 64, 93
2, 10800, Note_on_c, 0, 64, 0
2, 10800, Note_on_c, 0, 65, 82
2, 10920, Note_on_c, 0, 70, 0
2, 10920, Note_on_c, 0, 69, 79
2, 11039, Note_on_c, 0, 69, 0
2, 11039, Note_on_c, 0, 70, 90
2, 11160, Note_on_c, 0, 70, 0
2, 11160, Note_on_c, 0, 72, 85
2, 11340, Note_on_c, 0, 72, 0
2, 11340, Note_on_c, 0, 69, 76
2, 11520, Note_on_c, 0, 69, 0
2, 11520, Note_on_c, 0, 72, 88
2, 11700, Note_on_c, 0, 72, 0
2, 11700, Note_on_c, 0, 76, 90
2, 11880, Note_on_c, 0, 76, 0
2, 11880, Note_on_c, 0, 65, 0
2, 11880, Note_on_c, 0, 74, 83
2, 11880, Note_on_c, 0, 74, 63
2, 11880, Note_on_c, 0, 70, 83
2, 12420, Note_on_c, 0, 70, 0
2, 12420, Note_on_c, 0, 74, 0
2, 12420, Note_on_c, 0, 72, 57
2, 12420, Note_on_c, 0, 69, 77
2, 12600, Note_on_c, 0, 69, 0
2, 12600, Note_on_c, 0, 72, 0
2, 12600, Note_on_c, 0, 70, 55
2, 12600, Note_on_c, 0, 67, 75
2, 12960, Note_on_c, 0, 67, 0
2, 12960, Note_on_c, 0, 70, 0
2, 12960, Note_on_c, 0, 69, 63
2, 12960, Note_on_c, 0, 65, 83
2, 13050, Note_on_c, 0, 74, 0
2, 13050, Note_on_c, 0, 76, 85
2, 13140, Note_on_c, 0, 76, 0
2, 13140, Note_on_c, 0, 74, 87
2, 13320, Note_on_c, 0, 65, 0
2, 13320, Note_on_c, 0, 62, 90
2, 13410, Note_on_c, 0, 74, 0
2, 13410, Note_on_c, 0, 76, 91
2, 13500, Note_on_c, 0, 76, 0
2, 13500, Note_on_c, 0, 72, 93
2, 13770, Note_on_c, 0, 72, 0
2, 13770, Note_on_c, 0, 76, 93
2, 13860, Note_on_c, 0, 76, 0
2, 13860, Note_on_c, 0, 69, 90
2, 13950, Note_on_c, 0, 69, 0
2, 13950, Note_on_c, 0, 76, 86
2, 14040, Note_on_c, 0, 76, 0
2, 14040, Note_on_c, 0, 69, 0
2, 14040, Note_on_c, 0, 62, 0
2, 14040, Note_on_c, 0, 74, 83
2, 14040, Note_on_c, 0, 70, 69
2, 14040, Note_on_c, 0, 67, 94
2, 14580, Note_on_c, 0, 67, 0
2, 14580, Note_on_c, 0, 70, 0
2, 14580, Note_on_c, 0, 69, 58
2, 14580, Note_on_c, 0, 65, 79
2, 14760, Note_on_c, 0, 65, 0
2, 14760, Note_on_c, 0, 69, 0
2, 14760, Note_on_c, 0, 67, 57
2, 14760, Note_on_c, 0, 64, 79
2, 15240, Note_on_c, 0, 67, 0
2, 15240, Note_on_c, 0, 65, 58
2, 15359, Note_on_c, 0, 65, 0
2, 15359, Note_on_c, 0, 67, 64
2, 15480, Note_on_c, 0, 67, 0
2, 15480, Note_on_c, 0, 64, 0
2, 15480, Note_on_c, 0, 74, 0
2, 15480, Note_on_c, 0, 69, 66
2, 15480, Note_on_c, 0, 62, 83
2, 15840, Note_on_c, 0, 62, 0
2, 15840, Note_on_c, 0, 69, 0
2, 15840, Note_on_c, 0, 64, 53
2, 15840, Note_on_c, 0, 60, 84
2, 16020, Note_on_c, 0, 60, 0
2, 16020, Note_on_c, 0, 57, 79
2, 16200, Note_on_c, 0, 57, 0
2, 16200, Note_on_c, 0, 64, 0
2, 16200, Note_on_c, 0, 62, 52
2, 16200, Note_on_c, 0, 58, 59
2, 16560, Note_on_c, 0, 58, 0
2, 16560, Note_on_c, 0, 62, 0
2, 16560, Note_on_c, 0, 60, 56
2, 16560, Note_on_c, 0, 57, 61
2, 17100, Note_on_c, 0, 57, 0
2, 17100, Note_on_c, 0, 60, 0
2, 17100, Note_on_c, 0, 58, 55
2, 17100, Note_on_c, 0, 55, 57
2, 17280, Note_on_c, 0, 55, 0
2, 17280, Note_on_c, 0, 58, 0
2, 17280, Note_on_c, 0, 52, 84
2, 17280, Note_on_c, 0, 56, 84
2, 17820, Note_on_c, 0, 56, 0
2, 17820, Note_on_c, 0, 52, 0
2, 17820, Note_on_c, 0, 53, 87
2, 17820, Note_on_c, 0, 57, 87
2, 18000, Note_on_c, 0, 57, 0
2, 18000, Note_on_c, 0, 53, 0
2, 18000, Note_on_c, 0, 55, 81
2, 18000, Note_on_c, 0, 58, 81
2, 18180, Note_on_c, 0, 58, 0
2, 18180, Note_on_c, 0, 55, 0
2, 18180, Note_on_c, 0, 57, 86
2, 18180, Note_on_c, 0, 60, 86
2, 18360, Note_on_c, 0, 60, 0
2, 18360, Note_on_c, 0, 57, 0
2, 18360, Note_on_c, 0, 62, 60
2, 18360, Note_on_c, 0, 58, 88
2, 18900, Note_on_c, 0, 58, 0
2, 18900, Note_on_c, 0, 57, 81
2, 19080, Note_on_c, 0, 57, 0
2, 19080, Note_on_c, 0, 62, 0
2, 19080, Note_on_c, 0, 64, 50
2, 19080, Note_on_c, 0, 60, 78
2, 19440, Note_on_c, 0, 60, 0
2, 19440, Note_on_c, 0, 64, 0
2, 19440, Note_on_c, 0, 50, 44
2, 19440, Note_on_c, 0, 62, 47
2, 19475, Note_on_c, 0, 50, 0
2, 19485, Note_on_c, 0, 62, 60
2, 19520, Note_on_c, 0, 62, 0
2, 19530, Note_on_c, 0, 50, 44
2, 19565, Note_on_c, 0, 50, 0
2, 19575, Note_on_c, 0, 62, 60
2, 19610, Note_on_c, 0, 62, 0
2, 19620, Note_on_c, 0, 50, 44
2, 19655, Note_on_c, 0, 50, 0
2, 19665, Note_on_c, 0, 62, 60
2, 19700, Note_on_c, 0, 62, 0
2, 19710, Note_on_c, 0, 50, 44
2, 19745, Note_on_c, 0, 50, 0
2, 19755, Note_on_c, 0, 62, 60
2, 19790, Note_on_c, 0, 62, 0
2, 19800, Note_on_c, 0, 50, 44
2, 19835, Note_on_c, 0, 50, 0
2, 19845, Note_on_c, 0, 62, 60
2, 19880, Note_on_c, 0, 62, 0
2, 19890, Note_on_c, 0, 50, 44
2, 19925, Note_on_c, 0, 50, 0
2, 19935, Note_on_c, 0, 62, 60
2, 19970, Note_on_c, 0, 62, 0
2, 19980, Note_on_c, 0, 50, 44
2, 20015, Note_on_c, 0, 50, 0
2, 20025, Note_on_c, 0, 62, 60
2, 20060, Note_on_c, 0, 62, 0
2, 20070, Note_on_c, 0, 50, 44
2, 20105, Note_on_c, 0, 50, 0
2, 20115, Note_on_c, 0, 62, 60
2, 20150, Note_on_c, 0, 62, 0
2, 20160, Note_on_c, 0, 50, 44
2, 20195, Note_on_c, 0, 50, 0
2, 20205, Note_on_c, 0, 62, 60
2, 20240, Note_on_c, 0, 62, 0
2, 20250, Note_on_c, 0, 50, 44
2, 20285, Note_on_c, 0, 50, 0
2, 20295, Note_on_c, 0, 62, 60
2, 20330, Note_on_c, 0, 62, 0
2, 20340, Note_on_c, 0, 50, 44
2, 20375, Note_on_c, 0, 50, 0
2, 20385, Note_on_c, 0, 62, 60
2, 20420, Note_on_c, 0, 62, 0
2, 20430, Note_on_c, 0, 50, 44
2, 20465, Note_on_c, 0, 50, 0
2, 20475, Note_on_c, 0, 62, 60
2, 20510, Note_on_c, 0, 62, 0
2, 20520, Note_on_c, 0, 62, 0
2, 20520, Note_on_c, 0, 50, 53
2, 20520, Note_on_c, 0, 55, 72
2, 20555, Note_on_c, 0, 50, 0
2, 20565, Note_on_c, 0, 62, 79
2, 20600, Note_on_c, 0, 62, 0
2, 20610, Note_on_c, 0, 50, 53
2, 20645, Note_on_c, 0, 50, 0
2, 20655, Note_on_c, 0, 62, 79
2, 20690, Note_on_c, 0, 62, 0
2, 20700, Note_on_c, 0, 50, 53
2, 20735, Note_on_c, 0, 50, 0
2, 20745, Note_on_c, 0, 62, 79
2, 20780, Note_on_c, 0, 62, 0
2, 20790, Note_on_c, 0, 50, 53
2, 20825, Note_on_c, 0, 50, 0
2, 20835, Note_on_c, 0, 62, 79
2, 20870, Note_on_c, 0, 62, 0
2, 20880, Note_on_c, 0, 50, 53
2, 20915, Note_on_c, 0, 50, 0
2, 20925, Note_on_c, 0, 62, 79
2, 20960, Note_on_c, 0, 62, 0
2, 20970, Note_on_c, 0, 50, 53
2, 21005, Note_on_c, 0, 50, 0
2, 21015, Note_on_c, 0, 62, 79
2, 21050, Note_on_c, 0, 62, 0
2, 21060, Note_on_c, 0, 55, 0
2, 21060, Note_on_c, 0, 50, 53
2, 21060, Note_on_c, 0, 53, 77
2, 21095, Note_on_c, 0, 50, 0
2, 21105, Note_on_c, 0, 62, 79
2, 21140, Note_on_c, 0, 62, 0
2, 21150, Note_on_c, 0, 50, 53
2, 21185, Note_on_c, 0, 50, 0
2, 21195, Note_on_c, 0, 62, 79
2, 21230, Note_on_c, 0, 62, 0
2, 21240, Note_on_c, 0, 53, 0
2, 21240, Note_on_c, 0, 53, 58
2, 21240, Note_on_c, 0, 57, 87
2, 21275, Note_on_c, 0, 53, 0
2, 21285, Note_on_c, 0, 62, 75
2, 21320, Note_on_c, 0, 62, 0
2, 21330, Note_on_c, 0, 53, 58
2, 21365, Note_on_c, 0, 53, 0
2, 21375, Note_on_c, 0, 62, 75
2, 21410, Note_on_c, 0, 62, 0
2, 21420, Note_on_c, 0, 53, 58
2, 21455, Note_on_c, 0, 53, 0
2, 21465, Note_on_c, 0, 62, 75
2, 21500, Note_on_c, 0, 62, 0
2, 21510, Note_on_c, 0, 53, 58
2, 21545, Note_on_c, 0, 53, 0
2, 21555, Note_on_c, 0, 62, 75
2, 21590, Note_on_c, 0, 62, 0
2, 21600, Note_on_c, 0, 57, 0
2, 21600, Note_on_c, 0, 52, 58
2, 21600, Note_on_c, 0, 52, 76
2, 21635, Note_on_c, 0, 52, 0
2, 21645, Note_on_c, 0, 62, 80
2, 21680, Note_on_c, 0, 62, 0
2, 21690, Note_on_c, 0, 52, 58
2, 21725, Note_on_c, 0, 52, 0
2, 21735, Note_on_c, 0, 62, 80
2, 21770, Note_on_c, 0, 62, 0
2, 21780, Note_on_c, 0, 52, 58
2, 21815, Note_on_c, 0, 52, 0
2, 21825, Note_on_c, 0, 62, 80
2, 21860, Note_on_c, 0, 62, 0
2, 21870, Note_on_c, 0, 52, 58
2, 21905, Note_on_c, 0, 52, 0
2, 21915, Note_on_c, 0, 62, 80
2, 21950, Note_on_c, 0, 62, 0
2, 21960, Note_on_c, 0, 52, 0
2, 21960, Note_on_c, 0, 50, 61
2, 21960, Note_on_c, 0, 50, 76
2, 21995, Note_on_c, 0, 50, 0
2, 22005, Note_on_c, 0, 62, 75
2, 22040, Note_on_c, 0, 62, 0
2, 22050, Note_on_c, 0, 50, 61
2, 22085, Note_on_c, 0, 50, 0
2, 22095, Note_on_c, 0, 62, 75
2, 22130, Note_on_c, 0, 62, 0
2, 22140, Note_on_c, 0, 50, 61
2, 22175, Note_on_c, 0, 50, 0
2, 22185, Note_on_c, 0, 62, 75
2, 22220, Note_on_c, 0, 62, 0
2, 22230, Note_on_c, 0, 50, 61
2, 22265, Note_on_c, 0, 50, 0
2, 22275, Note_on_c, 0, 62, 75
2, 22310, Note_on_c, 0, 62, 0
2, 22320, Note_on_c, 0, 50, 0
2, 22320, Note_on_c, 0, 50, 61
2, 22320, Note_on_c, 0, 49, 76
2, 22355, Note_on_c, 0, 50, 0
2, 22365, Note_on_c, 0, 62, 75
2, 22400, Note_on_c, 0, 62, 0
2, 22410, Note_on_c, 0, 50, 61
2, 22445, Note_on_c, 0, 50, 0
2, 22455, Note_on_c, 0, 62, 75
2, 22490, Note_on_c, 0, 62, 0
2, 22500, Note_on_c, 0, 50, 61
2, 22535, Note_on_c, 0, 50, 0
2, 22545, Note_on_c, 0, 62, 75
2, 22580, Note_on_c, 0, 62, 0
2, 22590, Note_on_c, 0, 50, 61
2, 22625, Note_on_c, 0, 50, 0
2, 22635, Note_on_c, 0, 62, 75
2, 22670, Note_on_c, 0, 62, 0
2, 22680, Note_on_c, 0, 50, 60
2, 22680, Note_on_c, 0, 26, 67
2, 22680, Note_on_c, 0, 38, 67
2, 22715, Note_on_c, 0, 50, 0
2, 22725, Note_on_c, 0, 62, 76
2, 22760, Note_on_c, 0, 62, 0
2, 22770, Note_on_c, 0, 50, 60
2, 22805, Note_on_c, 0, 50, 0
2, 22815, Note_on_c, 0, 62, 76
2, 22850, Note_on_c, 0, 62, 0
2, 22860, Note_on_c, 0, 49, 0
2, 22860, Note_on_c, 0, 50, 60
2, 22860, Note_on_c, 0, 48, 80
2, 22895, Note_on_c, 0, 50, 0
2, 22905, Note_on_c, 0, 62, 76
2, 22940, Note_on_c, 0, 62, 0
2, 22950, Note_on_c, 0, 50, 60
2, 22985, Note_on_c, 0, 50, 0
2, 22995, Note_on_c, 0, 62, 76
2, 23030, Note_on_c, 0, 62, 0
2, 23040, Note_on_c, 0, 48, 0
2, 23040, Note_on_c, 0, 50, 60
2, 23040, Note_on_c, 0, 53, 97
2, 23075, Note_on_c, 0, 50, 0
2, 23085, Note_on_c, 0, 62, 76
2, 23120, Note_on_c, 0, 62, 0
2, 23130, Note_on_c, 0, 50, 60
2, 23165, Note_on_c, 0, 50, 0
2, 23175, Note_on_c, 0, 62, 76
2, 23210, Note_on_c, 0, 62, 0
2, 23220, Note_on_c, 0, 50, 60
2, 23255, Note_on_c, 0, 50, 0
2, 23265, Note_on_c, 0, 62, 76
2, 23300, Note_on_c, 0, 62, 0
2, 23310, Note_on_c, 0, 50, 60
2, 23345, Note_on_c, 0, 50, 0
2, 23355, Note_on_c, 0, 62, 76
2, 23357, Note_on_c, 0, 53, 0
2, 23390, Note_on_c, 0, 62, 0
2, 23400, Note_on_c, 0, 50, 60
2, 23400, Note_on_c, 0, 47, 78
2, 23435, Note_on_c, 0, 50, 0
2, 23445, Note_on_c, 0, 62, 76
2, 23480, Note_on_c, 0, 62, 0
2, 23490, Note_on_c, 0, 50, 60
2, 23525, Note_on_c, 0, 50, 0
2, 23535, Note_on_c, 0, 62, 76
2, 23570, Note_on_c, 0, 62, 0
2, 23580, Note_on_c, 0, 50, 60
2, 23615, Note_on_c, 0, 50, 0
2, 23625, Note_on_c, 0, 62, 76
2, 23660, Note_on_c, 0, 62, 0
2, 23670, Note_on_c, 0, 50, 60
2, 23705, Note_on_c, 0, 50, 0
2, 23715, Note_on_c, 0, 62, 76
2, 23750, Note_on_c, 0, 62, 0
2, 23760, Note_on_c, 0, 47, 0
2, 23760, Note_on_c, 0, 50, 50
2, 23795, Note_on_c, 0, 50, 0
2, 23805, Note_on_c, 0, 62, 76
2, 23840, Note_on_c, 0, 62, 0
2, 23850, Note_on_c, 0, 50, 50
2, 23885, Note_on_c, 0, 50, 0
2, 23895, Note_on_c, 0, 62, 76
2, 23930, Note_on_c, 0, 62, 0
2, 23940, Note_on_c, 0, 50, 50
2, 23975, Note_on_c, 0, 50, 0
2, 23985, Note_on_c, 0, 62, 76
2, 24020, Note_on_c, 0, 62, 0
2, 24030, Note_on_c, 0, 50, 50
2, 24065, Note_on_c, 0, 50, 0
2, 24075, Note_on_c, 0, 62, 76
2, 24110, Note_on_c, 0, 62, 0
2, 24120, Note_on_c, 0, 50, 50
2, 24120, Note_on_c, 0, 48, 77
2, 24155, Note_on_c, 0, 50, 0
2, 24165, Note_on_c, 0, 62, 76
2, 24200, Note_on_c, 0, 62, 0
2, 24210, Note_on_c, 0, 50, 50
2, 24245, Note_on_c, 0, 50, 0
2, 24255, Note_on_c, 0, 62, 76
2, 24290, Note_on_c, 0, 62, 0
2, 24300, Note_on_c, 0, 50, 50
2, 24335, Note_on_c, 0, 50, 0
2, 24345, Note_on_c, 0, 62, 76
2, 24380, Note_on_c, 0, 62, 0
2, 24390, Note_on_c, 0, 50, 50
2, 24425, Note_on_c, 0, 50, 0
2, 24435, Note_on_c, 0, 62, 76
2, 24470, Note_on_c, 0, 62, 0
2, 24480, Note_on_c, 0, 48, 0
2, 24480, Note_on_c, 0, 50, 50
2, 24480, Note_on_c, 0, 46, 81
2, 24515, Note_on_c, 0, 50, 0
2, 24525, Note_on_c, 0, 62, 76
2, 24560, Note_on_c, 0, 62, 0
2, 24570, Note_on_c, 0, 50, 50
2, 24605, Note_on_c, 0, 50, 0
2, 24615, Note_on_c, 0, 62, 76
2, 24650, Note_on_c, 0, 62, 0
2, 24660, Note_on_c, 0, 46, 0
2, 24660, Note_on_c, 0, 50, 50
2, 24660, Note_on_c, 0, 45, 80
2, 24695, Note_on_c, 0, 50, 0
2, 24705, Note_on_c, 0, 62, 76
2, 24740, Note_on_c, 0, 62, 0
2, 24750, Note_on_c, 0, 50, 50
2, 24785, Note_on_c, 0, 50, 0
2, 24795, Note_on_c, 0, 62, 76
2, 24830, Note_on_c, 0, 62, 0
2, 24840, Note_on_c, 0, 38, 0
2, 24840, Note_on_c, 0, 26, 0
2, 24840, Note_on_c, 0, 50, 58
2, 24840, Note_on_c, 0, 26, 75
2, 24840, Note_on_c, 0, 38, 75
2, 24875, Note_on_c, 0, 50, 0
2, 24885, Note_on_c, 0, 62, 70
2, 24920, Note_on_c, 0, 62, 0
2, 24930, Note_on_c, 0, 50, 58
2, 24965, Note_on_c, 0, 50, 0
2, 24975, Note_on_c, 0, 62, 70
2, 25010, Note_on_c, 0, 62, 0
2, 25020, Note_on_c, 0, 45, 0
2, 25020, Note_on_c, 0, 50, 58
2, 25020, Note_on_c, 0, 44, 78
2, 25055, Note_on_c, 0, 50, 0
2, 25065, Note_on_c, 0, 62, 70
2, 25100, Note_on_c, 0, 62, 0
2, 25110, Note_on_c, 0, 50, 58
2, 25145, Note_on_c, 0, 50, 0
2, 25155, Note_on_c, 0, 62, 70
2, 25190, Note_on_c, 0, 62, 0
2, 25200, Note_on_c, 0, 44, 0
2, 25200, Note_on_c, 0, 50, 58
2, 25200, Note_on_c, 0, 47, 89
2, 25235, Note_on_c, 0, 50, 0
2, 25245, Note_on_c, 0, 62, 70
2, 25280, Note_on_c, 0, 62, 0
2, 25290, Note_on_c, 0, 50, 58
2, 25325, Note_on_c, 0, 50, 0
2, 25335, Note_on_c, 0, 62, 70
2, 25370, Note_on_c, 0, 62, 0
2, 25380, Note_on_c, 0, 50, 58
2, 25415, Note_on_c, 0, 50, 0
2, 25425, Note_on_c, 0, 62, 70
2, 25460, Note_on_c, 0, 62, 0
2, 25470, Note_on_c, 0, 50, 58
2, 25505, Note_on_c, 0, 50, 0
2, 25515, Note_on_c, 0, 62, 70
2, 25550, Note_on_c, 0, 62, 0
2, 25560, Note_on_c, 0, 47, 0
2, 25560, Note_on_c, 0, 50, 58
2, 25560, Note_on_c, 0, 43, 80
2, 25595, Note_on_c, 0, 50, 0
2, 25605, Note_on_c, 0, 62, 70
2, 25640, Note_on_c, 0, 62, 0
2, 25650, Note_on_c, 0, 50, 58
2, 25685, Note_on_c, 0, 50, 0
2, 25695, Note_on_c, 0, 62, 70
2, 25730, Note_on_c, 0, 62, 0
2, 25740, Note_on_c, 0, 50, 58
2, 25775, Note_on_c, 0, 50, 0
2, 25785, Note_on_c, 0, 62, 70
2, 25820, Note_on_c, 0, 62, 0
2, 25830, Note_on_c, 0, 50, 58
2, 25865, Note_on_c, 0, 50, 0
2, 25875, Note_on_c, 0, 62, 70
2, 25910, Note_on_c, 0, 62, 0
2, 25920, Note_on_c, 0, 43, 0
2, 25920, Note_on_c, 0, 50, 57
2, 25955, Note_on_c, 0, 50, 0
2, 25965, Note_on_c, 0, 62, 76
2, 26000, Note_on_c, 0, 62, 0
2, 26010, Note_on_c, 0, 50, 57
2, 26045, Note_on_c, 0, 50, 0
2, 26055, Note_on_c, 0, 62, 76
2, 26090, Note_on_c, 0, 62, 0
2, 26100, Note_on_c, 0, 50, 57
2, 26100, Note_on_c, 0, 42, 75
2, 26135, Note_on_c, 0, 50, 0
2, 26145, Note_on_c, 0, 62, 76
2, 26180, Note_on_c, 0, 62, 0
2, 26190, Note_on_c, 0, 50, 57
2, 26225, Note_on_c, 0, 50, 0
2, 26235, Note_on_c, 0, 62, 76
2, 26270, Note_on_c, 0, 62, 0
2, 26280, Note_on_c, 0, 42, 0
2, 26280, Note_on_c, 0, 50, 57
2, 26280, Note_on_c, 0, 41, 81
2, 26315, Note_on_c, 0, 50, 0
2, 26325, Note_on_c, 0, 62, 76
2, 26360, Note_on_c, 0, 62, 0
2, 26370, Note_on_c, 0, 50, 57
2, 26405, Note_on_c, 0, 50, 0
2, 26415, Note_on_c, 0, 62, 76
2, 26450, Note_on_c, 0, 62, 0
2, 26460, Note_on_c, 0, 41, 0
2, 26460, Note_on_c, 0, 50, 57
2, 26460, Note_on_c, 0, 45, 91
2, 26495, Note_on_c, 0, 50, 0
2, 26505, Note_on_c, 0, 62, 76
2, 26540, Note_on_c, 0, 62, 0
2, 26550, Note_on_c, 0, 50, 57
2, 26585, Note_on_c, 0, 50, 0
2, 26595, Note_on_c, 0, 62, 76
2, 26630, Note_on_c, 0, 62, 0
2, 26640, Note_on_c, 0, 45, 0
2, 26640, Note_on_c, 0, 50, 57
2, 26640, Note_on_c, 0, 44, 95
2, 26675, Note_on_c, 0, 50, 0
2, 26685, Note_on_c, 0, 62, 76
2, 26720, Note_on_c, 0, 62, 0
2, 26730, Note_on_c, 0, 50, 57
2, 26765, Note_on_c, 0, 50, 0
2, 26775, Note_on_c, 0, 62, 76
2, 26810, Note_on_c, 0, 62, 0
2, 26820, Note_on_c, 0, 50, 57
2, 26855, Note_on_c, 0, 50, 0
2, 26865, Note_on_c, 0, 62, 76
2, 26900, Note_on_c, 0, 62, 0
2, 26910, Note_on_c, 0, 50, 57
2, 26945, Note_on_c, 0, 50, 0
2, 26955, Note_on_c, 0, 62, 76
2, 26990, Note_on_c, 0, 62, 0
2, 27000, Note_on_c, 0, 50, 57
2, 27035, Note_on_c, 0, 50, 0
2, 27045, Note_on_c, 0, 62, 77
2, 27080, Note_on_c, 0, 62, 0
2, 27090, Note_on_c, 0, 50, 57
2, 27125, Note_on_c, 0, 50, 0
2, 27135, Note_on_c, 0, 62, 77
2, 27170, Note_on_c, 0, 62, 0
2, 27180, Note_on_c, 0, 44, 0
2, 27180, Note_on_c, 0, 50, 57
2, 27180, Note_on_c, 0, 47, 88
2, 27215, Note_on_c, 0, 50, 0
2, 27225, Note_on_c, 0, 62, 77
2, 27260, Note_on_c, 0, 62, 0
2, 27270, Note_on_c, 0, 50, 57
2, 27305, Note_on_c, 0, 50, 0
2, 27315, Note_on_c, 0, 62, 77
2, 27350, Note_on_c, 0, 62, 0
2, 27360, Note_on_c, 0, 47, 0
2, 27360, Note_on_c, 0, 50, 57
2, 27360, Note_on_c, 0, 46, 81
2, 27395, Note_on_c, 0, 50, 0
2, 27405, Note_on_c, 0, 62, 77
2, 27440, Note_on_c, 0, 62, 0
2, 27450, Note_on_c, 0, 50, 57
2, 27485, Note_on_c, 0, 50, 0
2, 27495, Note_on_c, 0, 62, 77
2, 27530, Note_on_c, 0, 62, 0
2, 27540, Note_on_c, 0, 50, 57
2, 27575, Note_on_c, 0, 50, 0
2, 27585, Note_on_c, 0, 62, 77
2, 27620, Note_on_c, 0, 62, 0
2, 27630, Note_on_c, 0, 50, 57
2, 27665, Note_on_c, 0, 50, 0
2, 27675, Note_on_c, 0, 62, 77
2, 27710, Note_on_c, 0, 62, 0
2, 27720, Note_on_c, 0, 50, 57
2, 27755, Note_on_c, 0, 50, 0
2, 27765, Note_on_c, 0, 62, 77
2, 27800, Note_on_c, 0, 62, 0
2, 27810, Note_on_c, 0, 50, 57
2, 27845, Note_on_c, 0, 50, 0
2, 27855, Note_on_c, 0, 62, 77
2, 27890, Note_on_c, 0, 62, 0
2, 27900, Note_on_c, 0, 46, 0
2, 27900, Note_on_c, 0, 50, 57
2, 27900, Note_on_c, 0, 50, 86
2, 27935, Note_on_c, 0, 50, 0
2, 27945, Note_on_c, 0, 62, 77
2, 27980, Note_on_c, 0, 62, 0
2, 27990, Note_on_c, 0, 50, 57
2, 28025, Note_on_c, 0, 50, 0
2, 28035, Note_on_c, 0, 62, 77
2, 28070, Note_on_c, 0, 62, 0
2, 28080, Note_on_c, 0, 50, 0
2, 28080, Note_on_c, 0, 26, 0
2, 28080, Note_on_c, 0, 38, 0
2, 28080, Note_on_c, 0, 67, 71
2, 28080, Note_on_c, 0, 58, 55
2, 28080, Note_on_c, 0, 49, 82
2, 28080, Note_on_c, 0, 38, 79
2, 28115, Note_on_c, 0, 38, 0
2, 28125, Note_on_c, 0, 50, 86
2, 28160, Note_on_c, 0, 50, 0
2, 28170, Note_on_c, 0, 38, 79
2, 28205, Note_on_c, 0, 38, 0
2, 28215, Note_on_c, 0, 50, 86
2, 28250, Note_on_c, 0, 50, 0
2, 28260, Note_on_c, 0, 38, 79
2, 28295, Note_on_c, 0, 38, 0
2, 28305, Note_on_c, 0, 50, 86
2, 28340, Note_on_c, 0, 50, 0
2, 28350, Note_on_c, 0, 38, 79
2, 28385, Note_on_c, 0, 38, 0
2, 28395, Note_on_c, 0, 50, 86
2, 28430, Note_on_c, 0, 50, 0
2, 28440, Note_on_c, 0, 38, 79
2, 28475, Note_on_c, 0, 38, 0
2, 28485, Note_on_c, 0, 50, 86
2, 28520, Note_on_c, 0, 50, 0
2, 28530, Note_on_c, 0, 38, 79
2, 28565, Note_on_c, 0, 38, 0
2, 28575, Note_on_c, 0, 50, 86
2, 28610, Note_on_c, 0, 50, 0
2, 28620, Note_on_c, 0, 67, 0
2, 28620, Note_on_c, 0, 65, 58
2, 28620, Note_on_c, 0, 38, 79
2, 28655, Note_on_c, 0, 38, 0
2, 28665, Note_on_c, 0, 50, 86
2, 28700, Note_on_c, 0, 50, 0
2, 28710, Note_on_c, 0, 38, 79
2, 28745, Note_on_c, 0, 38, 0
2, 28755, Note_on_c, 0, 50, 86
2, 28790, Note_on_c, 0, 50, 0
2, 28800, Note_on_c, 0, 65, 0
2, 28800, Note_on_c, 0, 49, 0
2, 28800, Note_on_c, 0, 58, 0
2, 28800, Note_on_c, 0, 69, 63
2, 28800, Note_on_c, 0, 57, 60
2, 28800, Note_on_c, 0, 38, 79
2, 28800, Note_on_c, 0, 48, 80
2, 28835, Note_on_c, 0, 38, 0
2, 28845, Note_on_c, 0, 50, 86
2, 28880, Note_on_c, 0, 50, 0
2, 28890, Note_on_c, 0, 38, 79
2, 28925, Note_on_c, 0, 38, 0
2, 28935, Note_on_c, 0, 50, 86
2, 28970, Note_on_c, 0, 50, 0
2, 28980, Note_on_c, 0, 69, 0
2, 28980, Note_on_c, 0, 65, 54
2, 28980, Note_on_c, 0, 38, 79
2, 29015, Note_on_c, 0, 38, 0
2, 29025, Note_on_c, 0, 50, 86
2, 29060, Note_on_c, 0, 50, 0
2, 29070, Note_on_c, 0, 38, 79
2, 29105, Note_on_c, 0, 38, 0
2, 29115, Note_on_c, 0, 50, 86
2, 29150, Note_on_c, 0, 50, 0
2, 29160, Note_on_c, 0, 65, 0
2, 29160, Note_on_c, 0, 57, 0
2, 29160, Note_on_c, 0, 64, 67
2, 29160, Note_on_c, 0, 56, 62
2, 29160, Note_on_c, 0, 38, 68
2, 29195, Note_on_c, 0, 38, 0
2, 29205, Note_on_c, 0, 50, 87
2, 29240, Note_on_c, 0, 50, 0
2, 29250, Note_on_c, 0, 38, 68
2, 29285, Note_on_c, 0, 38, 0
2, 29295, Note_on_c, 0, 50, 87
2, 29330, Note_on_c, 0, 50, 0
2, 29340, Note_on_c, 0, 38, 68
2, 29375, Note_on_c, 0, 38, 0
2, 29385, Note_on_c, 0, 50, 87
2, 29420, Note_on_c, 0, 50, 0
2, 29430, Note_on_c, 0, 38, 68
2, 29465, Note_on_c, 0, 38, 0
2, 29475, Note_on_c, 0, 50, 87
2, 29477, Note_on_c, 0, 64, 0
2, 29510, Note_on_c, 0, 50, 0
2, 29520, Note_on_c, 0, 62, 56
2, 29520, Note_on_c, 0, 38, 68
2, 29555, Note_on_c, 0, 38, 0
2, 29565, Note_on_c, 0, 50, 87
2, 29600, Note_on_c, 0, 50, 0
2, 29610, Note_on_c, 0, 38, 68
2, 29645, Note_on_c, 0, 38, 0
2, 29655, Note_on_c, 0, 50, 87
2, 29690, Note_on_c, 0, 50, 0
2, 29700, Note_on_c, 0, 38, 68
2, 29735, Note_on_c, 0, 38, 0
2, 29745, Note_on_c, 0, 50, 87
2, 29780, Note_on_c, 0, 50, 0
2, 29790, Note_on_c, 0, 38, 68
2, 29825, Note_on_c, 0, 38, 0
2, 29835, Note_on_c, 0, 50, 87
2, 29870, Note_on_c, 0, 50, 0
2, 29880, Note_on_c, 0, 56, 0
2, 29880, Note_on_c, 0, 48, 0
2, 29880, Note_on_c, 0, 55, 66
2, 29880, Note_on_c, 0, 38, 68
2, 29880, Note_on_c, 0, 47, 82
2, 29915, Note_on_c, 0, 38, 0
2, 29925, Note_on_c, 0, 50, 87
2, 29960, Note_on_c, 0, 50, 0
2, 29970, Note_on_c, 0, 38, 68
2, 30005, Note_on_c, 0, 38, 0
2, 30015, Note_on_c, 0, 50, 87
2, 30050, Note_on_c, 0, 50, 0
2, 30060, Note_on_c, 0, 38, 68
2, 30095, Note_on_c, 0, 38, 0
2, 30105, Note_on_c, 0, 50, 87
2, 30140, Note_on_c, 0, 50, 0
2, 30150, Note_on_c, 0, 38, 68
2, 30185, Note_on_c, 0, 38, 0
2, 30195, Note_on_c, 0, 50, 87
2, 30230, Note_on_c, 0, 50, 0
2, 30240, Note_on_c, 0, 38, 66
2, 30275, Note_on_c, 0, 38, 0
2, 30285, Note_on_c, 0, 50, 85
2, 30320, Note_on_c, 0, 50, 0
2, 30330, Note_on_c, 0, 38, 66
2, 30365, Note_on_c, 0, 38, 0
2, 30375, Note_on_c, 0, 50, 85
2, 30410, Note_on_c, 0, 50, 0
2, 30420, Note_on_c, 0, 38, 66
2, 30455, Note_on_c, 0, 38, 0
2, 30465, Note_on_c, 0, 50, 85
2, 30500, Note_on_c, 0, 50, 0
2, 30510, Note_on_c, 0, 38, 66
2, 30545, Note_on_c, 0, 38, 0
2, 30555, Note_on_c, 0, 50, 85
2, 30590, Note_on_c, 0, 50, 0
2, 30600, Note_on_c, 0, 47, 0
2, 30600, Note_on_c, 0, 55, 0
2, 30600, Note_on_c, 0, 62, 0
2, 30600, Note_on_c, 0, 64, 63
2, 30600, Note_on_c, 0, 54, 71
2, 30600, Note_on_c, 0, 61, 71
2, 30600, Note_on_c, 0, 46, 79
2, 30600, Note_on_c, 0, 38, 66
2, 30635, Note_on_c, 0, 38, 0
2, 30645, Note_on_c, 0, 50, 85
2, 30680, Note_on_c, 0, 50, 0
2, 30690, Note_on_c, 0, 38, 66
2, 30725, Note_on_c, 0, 38, 0
2, 30735, Note_on_c, 0, 50, 85
2, 30770, Note_on_c, 0, 50, 0
2, 30780, Note_on_c, 0, 38, 66
2, 30815, Note_on_c, 0, 38, 0
2, 30825, Note_on_c, 0, 50, 85
2, 30860, Note_on_c, 0, 50, 0
2, 30870, Note_on_c, 0, 38, 66
2, 30905, Note_on_c, 0, 38, 0
2, 30915, Note_on_c, 0, 50, 85
2, 30950, Note_on_c, 0, 50, 0
2, 30960, Note_on_c, 0, 46, 0
2, 30960, Note_on_c, 0, 64, 0
2, 30960, Note_on_c, 0, 54, 0
2, 30960, Note_on_c, 0, 61, 0
2, 30960, Note_on_c, 0, 65, 65
2, 30960, Note_on_c, 0, 53, 62
2, 30960, Note_on_c, 0, 60, 62
2, 30960, Note_on_c, 0, 38, 66
2, 30960, Note_on_c, 0, 44, 85
2, 30995, Note_on_c, 0, 38, 0
2, 31005, Note_on_c, 0, 50, 85
2, 31040, Note_on_c, 0, 50, 0
2, 31050, Note_on_c, 0, 38, 66
2, 31085, Note_on_c, 0, 38, 0
2, 31095, Note_on_c, 0, 50, 85
2, 31130, Note_on_c, 0, 50, 0
2, 31140, Note_on_c, 0, 65, 0
2, 31140, Note_on_c, 0, 62, 55
2, 31140, Note_on_c, 0, 38, 66
2, 31175, Note_on_c, 0, 38, 0
2, 31185, Note_on_c, 0, 50, 85
2, 31220, Note_on_c, 0, 50, 0
2, 31230, Note_on_c, 0, 38, 66
2, 31265, Note_on_c, 0, 38, 0
2, 31275, Note_on_c, 0, 50, 85
2, 31310, Note_on_c, 0, 50, 0
2, 31320, Note_on_c, 0, 62, 0
2, 31320, Note_on_c, 0, 44, 0
2, 31320, Note_on_c, 0, 60, 0
2, 31320, Note_on_c, 0, 53, 0
2, 31320, Note_on_c, 0, 63, 68
2, 31320, Note_on_c, 0, 58, 69
2, 31320, Note_on_c, 0, 62, 69
2, 31320, Note_on_c, 0, 36, 67
2, 31320, Note_on_c, 0, 43, 67
2, 31355, Note_on_c, 0, 62, 0
2, 31355, Note_on_c, 0, 58, 0
2, 31365, Note_on_c, 0, 51, 55
2, 31400, Note_on_c, 0, 51, 0
2, 31410, Note_on_c, 0, 58, 69
2, 31410, Note_on_c, 0, 62, 69
2, 31445, Note_on_c, 0, 62, 0
2, 31445, Note_on_c, 0, 58, 0
2, 31455, Note_on_c, 0, 51, 55
2, 31490, Note_on_c, 0, 51, 0
2, 31500, Note_on_c, 0, 58, 69
2, 31500, Note_on_c, 0, 62, 69
2, 31535, Note_on_c, 0, 62, 0
2, 31535, Note_on_c, 0, 58, 0
2, 31545, Note_on_c, 0, 51, 55
2, 31580, Note_on_c, 0, 51, 0
2, 31590, Note_on_c, 0, 58, 69
2, 31590, Note_on_c, 0, 62, 69
2, 31625, Note_on_c, 0, 62, 0
2, 31625, Note_on_c, 0, 58, 0
2, 31635, Note_on_c, 0, 51, 55
2, 31670, Note_on_c, 0, 51, 0
2, 31680, Note_on_c, 0, 58, 69
2, 31680, Note_on_c, 0, 62, 69
2, 31715, Note_on_c, 0, 62, 0
2, 31715, Note_on_c, 0, 58, 0
2, 31725, Note_on_c, 0, 51, 55
2, 31760, Note_on_c, 0, 51, 0
2, 31770, Note_on_c, 0, 58, 69
2, 31770, Note_on_c, 0, 62, 69
2, 31805, Note_on_c, 0, 62, 0
2, 31805, Note_on_c, 0, 58, 0
2, 31815, Note_on_c, 0, 51, 55
2, 31850, Note_on_c, 0, 51, 0
2, 31860, Note_on_c, 0, 58, 69
2, 31860, Note_on_c, 0, 62, 69
2, 31895, Note_on_c, 0, 62, 0
2, 31895, Note_on_c, 0, 58, 0
2, 31905, Note_on_c, 0, 51, 55
2, 31940, Note_on_c, 0, 51, 0
2, 31950, Note_on_c, 0, 58, 69
2, 31950, Note_on_c, 0, 62, 69
2, 31985, Note_on_c, 0, 62, 0
2, 31985, Note_on_c, 0, 58, 0
2, 31995, Note_on_c, 0, 51, 55
2, 32030, Note_on_c, 0, 51, 0
2, 32040, Note_on_c, 0, 63, 0
2, 32040, Note_on_c, 0, 64, 61
2, 32040, Note_on_c, 0, 58, 81
2, 32040, Note_on_c, 0, 62, 81
2, 32075, Note_on_c, 0, 62, 0
2, 32075, Note_on_c, 0, 58, 0
2, 32085, Note_on_c, 0, 52, 60
2, 32120, Note_on_c, 0, 52, 0
2, 32130, Note_on_c, 0, 58, 81
2, 32130, Note_on_c, 0, 62, 81
2, 32165, Note_on_c, 0, 62, 0
2, 32165, Note_on_c, 0, 58, 0
2, 32175, Note_on_c, 0, 52, 60
2, 32210, Note_on_c, 0, 52, 0
2, 32220, Note_on_c, 0, 58, 81
2, 32220, Note_on_c, 0, 62, 81
2, 32255, Note_on_c, 0, 62, 0
2, 32255, Note_on_c, 0, 58, 0
2, 32265, Note_on_c, 0, 52, 60
2, 32300, Note_on_c, 0, 52, 0
2, 32310, Note_on_c, 0, 58, 81
2, 32310, Note_on_c, 0, 62, 81
2, 32345, Note_on_c, 0, 62, 0
2, 32345, Note_on_c, 0, 58, 0
2, 32355, Note_on_c, 0, 52, 60
2, 32390, Note_on_c, 0, 52, 0
2, 32400, Note_on_c, 0, 64, 0
2, 32400, Note_on_c, 0, 43, 0
2, 32400, Note_on_c, 0, 36, 0
2, 32400, Note_on_c, 0, 65, 65
2, 32400, Note_on_c, 0, 61, 73
2, 32400, Note_on_c, 0, 53, 91
2, 32400, Note_on_c, 0, 36, 71
2, 32400, Note_on_c, 0, 43, 71
2, 32435, Note_on_c, 0, 61, 0
2, 32445, Note_on_c, 0, 58, 64
2, 32480, Note_on_c, 0, 58, 0
2, 32490, Note_on_c, 0, 61, 73
2, 32525, Note_on_c, 0, 61, 0
2, 32535, Note_on_c, 0, 58, 64
2, 32570, Note_on_c, 0, 58, 0
2, 32580, Note_on_c, 0, 61, 73
2, 32615, Note_on_c, 0, 61, 0
2, 32625, Note_on_c, 0, 58, 64
2, 32660, Note_on_c, 0, 58, 0
2, 32670, Note_on_c, 0, 61, 73
2, 32705, Note_on_c, 0, 61, 0
2, 32715, Note_on_c, 0, 58, 64
2, 32750, Note_on_c, 0, 58, 0
2, 32760, Note_on_c, 0, 65, 0
2, 32760, Note_on_c, 0, 67, 65
2, 32760, Note_on_c, 0, 61, 73
2, 32795, Note_on_c, 0, 61, 0
2, 32805, Note_on_c, 0, 58, 64
2, 32840, Note_on_c, 0, 58, 0
2, 32850, Note_on_c, 0, 61, 73
2, 32885, Note_on_c, 0, 61, 0
2, 32895, Note_on_c, 0, 58, 64
2, 32930, Note_on_c, 0, 58, 0
2, 32940, Note_on_c, 0, 61, 73
2, 32975, Note_on_c, 0, 61, 0
2, 32985, Note_on_c, 0, 58, 64
2, 33020, Note_on_c, 0, 58, 0
2, 33030, Note_on_c, 0, 61, 73
2, 33065, Note_on_c, 0, 61, 0
2, 33075, Note_on_c, 0, 58, 64
2, 33110, Note_on_c, 0, 58, 0
2, 33120, Note_on_c, 0, 67, 0
2, 33120, Note_on_c, 0, 43, 0
2, 33120, Note_on_c, 0, 53, 0
2, 33120, Note_on_c, 0, 36, 0
2, 33120, Note_on_c, 0, 69, 60
2, 33120, Note_on_c, 0, 62, 69
2, 33120, Note_on_c, 0, 52, 81
2, 33120, Note_on_c, 0, 36, 69
2, 33155, Note_on_c, 0, 62, 0
2, 33165, Note_on_c, 0, 58, 64
2, 33200, Note_on_c, 0, 58, 0
2, 33210, Note_on_c, 0, 62, 69
2, 33245, Note_on_c, 0, 62, 0
2, 33255, Note_on_c, 0, 58, 64
2, 33290, Note_on_c, 0, 58, 0
2, 33300, Note_on_c, 0, 62, 69
2, 33335, Note_on_c, 0, 62, 0
2, 33345, Note_on_c, 0, 58, 64
2, 33380, Note_on_c, 0, 58, 0
2, 33390, Note_on_c, 0, 62, 69
2, 33425, Note_on_c, 0, 62, 0
2, 33435, Note_on_c, 0, 58, 64
2, 33470, Note_on_c, 0, 58, 0
2, 33480, Note_on_c, 0, 36, 0
2, 33480, Note_on_c, 0, 52, 0
2, 33480, Note_on_c, 0, 69, 0
2, 33480, Note_on_c, 0, 74, 93
2, 33480, Note_on_c, 0, 62, 75
2, 33480, Note_on_c, 0, 55, 96
2, 33480, Note_on_c, 0, 38, 83
2, 33504, Note_on_c, 0, 67, 75
2, 33504, Note_on_c, 0, 45, 83
2, 33528, Note_on_c, 0, 69, 75
2, 33528, Note_on_c, 0, 50, 83
2, 33570, Note_on_c, 0, 74, 0
2, 33570, Note_on_c, 0, 76, 91
2, 33660, Note_on_c, 0, 76, 0
2, 33660, Note_on_c, 0, 74, 88
2, 33840, Note_on_c, 0, 67, 0
2, 33840, Note_on_c, 0, 62, 0
2, 33840, Note_on_c, 0, 55, 0
2, 33840, Note_on_c, 0, 69, 0
2, 33840, Note_on_c, 0, 66, 63
2, 33840, Note_on_c, 0, 54, 94
2, 33930, Note_on_c, 0, 74, 0
2, 33930, Note_on_c, 0, 76, 86
2, 34020, Note_on_c, 0, 76, 0
2, 34020, Note_on_c, 0, 72, 87
2, 34157, Note_on_c, 0, 54, 0
2, 34200, Note_on_c, 0, 66, 0
2, 34200, Note_on_c, 0, 65, 61
2, 34200, Note_on_c, 0, 53, 92
2, 34290, Note_on_c, 0, 72, 0
2, 34290, Note_on_c, 0, 76, 92
2, 34380, Note_on_c, 0, 76, 0
2, 34380, Note_on_c, 0, 69, 67
2, 34470, Note_on_c, 0, 69, 0
2, 34470, Note_on_c, 0, 76, 96
2, 34517, Note_on_c, 0, 53, 0
2, 34560, Note_on_c, 0, 38, 0
2, 34560, Note_on_c, 0, 45, 0
2, 34560, Note_on_c, 0, 50, 0
2, 34560, Note_on_c, 0, 76, 0
2, 34560, Note_on_c, 0, 65, 0
2, 34560, Note_on_c, 0, 74, 75
2, 34560, Note_on_c, 0, 62, 69
2, 34560, Note_on_c, 0, 55, 98
2, 34560, Note_on_c, 0, 38, 73
2, 34584, Note_on_c, 0, 67, 69
2, 34584, Note_on_c, 0, 45, 73
2, 34608, Note_on_c, 0, 69, 69
2, 34608, Note_on_c, 0, 50, 73
2, 34650, Note_on_c, 0, 74, 0
2, 34650, Note_on_c, 0, 76, 91
2, 34740, Note_on_c, 0, 76, 0
2, 34740, Note_on_c, 0, 74, 88
2, 34920, Note_on_c, 0, 67, 0
2, 34920, Note_on_c, 0, 62, 0
2, 34920, Note_on_c, 0, 55, 0
2, 34920, Note_on_c, 0, 69, 0
2, 34920, Note_on_c, 0, 66, 54
2, 34920, Note_on_c, 0, 54, 93
2, 35010, Note_on_c, 0, 74, 0
2, 35010, Note_on_c, 0, 76, 89
2, 35100, Note_on_c, 0, 76, 0
2, 35100, Note_on_c, 0, 72, 93
2, 35237, Note_on_c, 0, 54, 0
2, 35280, Note_on_c, 0, 66, 0
2, 35280, Note_on_c, 0, 65, 56
2, 35280, Note_on_c, 0, 53, 97
2, 35370, Note_on_c, 0, 72, 0
2, 35370, Note_on_c, 0, 76, 92
2, 35460, Note_on_c, 0, 76, 0
2, 35460, Note_on_c, 0, 69, 66
2, 35550, Note_on_c, 0, 69, 0
2, 35550, Note_on_c, 0, 76, 95
2, 35597, Note_on_c, 0, 53, 0
2, 35640, Note_on_c, 0, 38, 0
2, 35640, Note_on_c, 0, 45, 0
2, 35640, Note_on_c, 0, 50, 0
2, 35640, Note_on_c, 0, 76, 0
2, 35640, Note_on_c, 0, 65, 0
2, 35640, Note_on_c, 0, 74, 56
2, 35640, Note_on_c, 0, 67, 62
2, 35640, Note_on_c, 0, 55, 68
2, 35640, Note_on_c, 0, 38, 70
2, 35640, Note_on_c, 0, 45, 70
2, 35730, Note_on_c, 0, 74, 0
2, 35730, Note_on_c, 0, 76, 67
2, 35820, Note_on_c, 0, 76, 0
2, 35820, Note_on_c, 0, 74, 57
2, 36000, Note_on_c, 0, 67, 0
2, 36000, Note_on_c, 0, 55, 0
2, 36000, Note_on_c, 0, 66, 61
2, 36000, Note_on_c, 0, 54, 54
2, 36180, Note_on_c, 0, 54, 0
2, 36180, Note_on_c, 0, 74, 0
2, 36180, Note_on_c, 0, 66, 0
2, 36180, Note_on_c, 0, 65, 56
2, 36180, Note_on_c, 0, 53, 61
2, 36360, Note_on_c, 0, 53, 0
2, 36360, Note_on_c, 0, 65, 0
2, 36360, Note_on_c, 0, 69, 69
2, 36360, Note_on_c, 0, 57, 63
2, 36540, Note_on_c, 0, 57, 0
2, 36540, Note_on_c, 0, 69, 0
2, 36540, Note_on_c, 0, 62, 53
2, 36540, Note_on_c, 0, 50, 55
2, 36720, Note_on_c, 0, 50, 0
2, 36720, Note_on_c, 0, 38, 0
2, 36720, Note_on_c, 0, 45, 0
2, 36720, Note_on_c, 0, 62, 0
2, 36720, Note_on_c, 0, 55, 54
2, 36720, Note_on_c, 0, 67, 54
2, 36720, Note_on_c, 0, 57, 63
2, 36720, Note_on_c, 0, 62, 63
2, 36720, Note_on_c, 0, 38, 53
2, 36720, Note_on_c, 0, 45, 53
2, 37080, Note_on_c, 0, 67, 0
2, 37080, Note_on_c, 0, 55, 0
2, 37080, Note_on_c, 0, 74, 74
2, 37080, Note_on_c, 0, 54, 60
2, 37080, Note_on_c, 0, 66, 60
2, 37170, Note_on_c, 0, 74, 0
2, 37170, Note_on_c, 0, 76, 87
2, 37260, Note_on_c, 0, 76, 0
2, 37260, Note_on_c, 0, 66, 0
2, 37260, Note_on_c, 0, 54, 0
2, 37260, Note_on_c, 0, 74, 80
2, 37260, Note_on_c, 0, 53, 54
2, 37260, Note_on_c, 0, 65, 54
2, 37440, Note_on_c, 0, 65, 0
2, 37440, Note_on_c, 0, 53, 0
2, 37440, Note_on_c, 0, 57, 54
2, 37440, Note_on_c, 0, 69, 54
2, 37530, Note_on_c, 0, 74, 0
2, 37530, Note_on_c, 0, 73, 76
2, 37620, Note_on_c, 0, 73, 0
2, 37620, Note_on_c, 0, 69, 0
2, 37620, Note_on_c, 0, 57, 0
2, 37620, Note_on_c, 0, 72, 82
2, 37620, Note_on_c, 0, 50, 36
2, 37620, Note_on_c, 0, 62, 36
2, 37679, Note_on_c, 0, 72, 0
2, 37679, Note_on_c, 0, 71, 76
2, 37740, Note_on_c, 0, 71, 0
2, 37740, Note_on_c, 0, 69, 78
2, 37800, Note_on_c, 0, 69, 0
2, 37800, Note_on_c, 0, 50, 0
2, 37800, Note_on_c, 0, 38, 0
2, 37800, Note_on_c, 0, 57, 0
2, 37800, Note_on_c, 0, 62, 0
2, 37800, Note_on_c, 0, 62, 0
2, 37800, Note_on_c, 0, 45, 0
2, 37800, Note_on_c, 0, 70, 85
2, 37800, Note_on_c, 0, 64, 51
2, 37800, Note_on_c, 0, 53, 49
2, 37800, Note_on_c, 0, 58, 49
2, 37800, Note_on_c, 0, 52, 62
2, 37800, Note_on_c, 0, 38, 78
2, 37800, Note_on_c, 0, 46, 78
2, 37890, Note_on_c, 0, 70, 0
2, 37890, Note_on_c, 0, 72, 88
2, 37980, Note_on_c, 0, 72, 0
2, 37980, Note_on_c, 0, 70, 79
2, 38160, Note_on_c, 0, 64, 0
2, 38160, Note_on_c, 0, 52, 0
2, 38160, Note_on_c, 0, 62, 43
2, 38160, Note_on_c, 0, 50, 57
2, 38340, Note_on_c, 0, 50, 0
2, 38340, Note_on_c, 0, 70, 0
2, 38340, Note_on_c, 0, 62, 0
2, 38340, Note_on_c, 0, 61, 43
2, 38340, Note_on_c, 0, 49, 62
2, 38520, Note_on_c, 0, 49, 0
2, 38520, Note_on_c, 0, 61, 0
2, 38520, Note_on_c, 0, 65, 53
2, 38520, Note_on_c, 0, 53, 66
2, 38700, Note_on_c, 0, 65, 0
2, 38700, Note_on_c, 0, 53, 0
2, 38700, Note_on_c, 0, 58, 45
2, 38700, Note_on_c, 0, 46, 55
2, 38880, Note_on_c, 0, 46, 0
2, 38880, Note_on_c, 0, 53, 0
2, 38880, Note_on_c, 0, 38, 0
2, 38880, Note_on_c, 0, 58, 0
2, 38880, Note_on_c, 0, 58, 0
2, 38880, Note_on_c, 0, 46, 0
2, 38880, Note_on_c, 0, 64, 58
2, 38880, Note_on_c, 0, 53, 50
2, 38880, Note_on_c, 0, 58, 50
2, 38880, Note_on_c, 0, 52, 64
2, 38880, Note_on_c, 0, 38, 74
2, 38880, Note_on_c, 0, 46, 74
2, 39240, Note_on_c, 0, 52, 0
2, 39240, Note_on_c, 0, 64, 0
2, 39240, Note_on_c, 0, 70, 73
2, 39240, Note_on_c, 0, 63, 51
2, 39240, Note_on_c, 0, 51, 63
2, 39330, Note_on_c, 0, 70, 0
2, 39330, Note_on_c, 0, 72, 86
2, 39420, Note_on_c, 0, 72, 0
2, 39420, Note_on_c, 0, 51, 0
2, 39420, Note_on_c, 0, 63, 0
2, 39420, Note_on_c, 0, 70, 74
2, 39420, Note_on_c, 0, 62, 42
2, 39420, Note_on_c, 0, 50, 56
2, 39600, Note_on_c, 0, 50, 0
2, 39600, Note_on_c, 0, 62, 0
2, 39600, Note_on_c, 0, 65, 50
2, 39600, Note_on_c, 0, 53, 61
2, 39690, Note_on_c, 0, 70, 0
2, 39690, Note_on_c, 0, 69, 80
2, 39780, Note_on_c, 0, 69, 0
2, 39780, Note_on_c, 0, 65, 0
2, 39780, Note_on_c, 0, 53, 0
2, 39780, Note_on_c, 0, 68, 74
2, 39780, Note_on_c, 0, 58, 43
2, 39780, Note_on_c, 0, 46, 52
2, 39839, Note_on_c, 0, 68, 0
2, 39839, Note_on_c, 0, 67, 76
2, 39900, Note_on_c, 0, 67, 0
2, 39900, Note_on_c, 0, 66, 80
2, 39960, Note_on_c, 0, 66, 0
2, 39960, Note_on_c, 0, 58, 0
2, 39960, Note_on_c, 0, 46, 0
2, 39960, Note_on_c, 0, 53, 0
2, 39960, Note_on_c, 0, 58, 0
2, 39960, Note_on_c, 0, 46, 0
2, 39960, Note_on_c, 0, 38, 0
2, 39960, Note_on_c, 0, 67, 92
2, 39960, Note_on_c, 0, 61, 54
2, 39960, Note_on_c, 0, 53, 48
2, 39960, Note_on_c, 0, 55, 48
2, 39960, Note_on_c, 0, 49, 59
2, 39960, Note_on_c, 0, 38, 74
2, 40050, Note_on_c, 0, 67, 0
2, 40050, Note_on_c, 0, 69, 92
2, 40140, Note_on_c, 0, 69, 0
2, 40140, Note_on_c, 0, 67, 75
2, 40320, Note_on_c, 0, 61, 0
2, 40320, Note_on_c, 0, 49, 0
2, 40320, Note_on_c, 0, 60, 48
2, 40320, Note_on_c, 0, 48, 57
2, 40500, Note_on_c, 0, 48, 0
2, 40500, Note_on_c, 0, 67, 0
2, 40500, Note_on_c, 0, 60, 0
2, 40500, Note_on_c, 0, 59, 45
2, 40500, Note_on_c, 0, 47, 55
2, 40680, Note_on_c, 0, 59, 0
2, 40680, Note_on_c, 0, 62, 49
2, 40860, Note_on_c, 0, 62, 0
2, 40860, Note_on_c, 0, 55, 41
2, 41040, Note_on_c, 0, 55, 0
2, 41040, Note_on_c, 0, 55, 0
2, 41040, Note_on_c, 0, 53, 0
2, 41040, Note_on_c, 0, 38, 0
2, 41040, Note_on_c, 0, 47, 0
2, 41040, Note_on_c, 0, 60, 50
2, 41040, Note_on_c, 0, 53, 50
2, 41040, Note_on_c, 0, 55, 50
2, 41040, Note_on_c, 0, 48, 62
2, 41040, Note_on_c, 0, 38, 76
2, 41400, Note_on_c, 0, 48, 0
2, 41400, Note_on_c, 0, 60, 0
2, 41400, Note_on_c, 0, 59, 49
2, 41400, Note_on_c, 0, 52, 46
2, 41400, Note_on_c, 0, 47, 56
2, 41580, Note_on_c, 0, 47, 0
2, 41580, Note_on_c, 0, 59, 0
2, 41580, Note_on_c, 0, 58, 47
2, 41580, Note_on_c, 0, 46, 60
2, 41760, Note_on_c, 0, 58, 0
2, 41760, Note_on_c, 0, 61, 52
2, 41940, Note_on_c, 0, 61, 0
2, 41940, Note_on_c, 0, 55, 49
2, 42120, Note_on_c, 0, 55, 0
2, 42120, Note_on_c, 0, 55, 0
2, 42120, Note_on_c, 0, 52, 0
2, 42120, Note_on_c, 0, 38, 0
2, 42120, Note_on_c, 0, 46, 0
2, 42120, Note_on_c, 0, 62, 75
2, 42120, Note_on_c, 0, 74, 62
2, 42120, Note_on_c, 0, 67, 65
2, 42120, Note_on_c, 0, 62, 43
2, 42120, Note_on_c, 0, 55, 65
2, 42120, Note_on_c, 0, 38, 85
2, 42144, Note_on_c, 0, 69, 43
2, 42144, Note_on_c, 0, 45, 85
2, 42168, Note_on_c, 0, 50, 85
2, 42210, Note_on_c, 0, 74, 0
2, 42210, Note_on_c, 0, 76, 53
2, 42300, Note_on_c, 0, 76, 0
2, 42300, Note_on_c, 0, 74, 55
2, 42480, Note_on_c, 0, 67, 0
2, 42480, Note_on_c, 0, 55, 0
2, 42480, Note_on_c, 0, 66, 49
2, 42480, Note_on_c, 0, 54, 61
2, 42570, Note_on_c, 0, 74, 0
2, 42570, Note_on_c, 0, 76, 61
2, 42660, Note_on_c, 0, 76, 0
2, 42660, Note_on_c, 0, 54, 0
2, 42660, Note_on_c, 0, 66, 0
2, 42660, Note_on_c, 0, 72, 58
2, 42660, Note_on_c, 0, 65, 46
2, 42660, Note_on_c, 0, 53, 59
2, 42840, Note_on_c, 0, 65, 0
2, 42840, Note_on_c, 0, 53, 0
2, 42840, Note_on_c, 0, 69, 57
2, 42840, Note_on_c, 0, 57, 69
2, 42930, Note_on_c, 0, 72, 0
2, 42930, Note_on_c, 0, 76, 59
2, 43020, Note_on_c, 0, 76, 0
2, 43020, Note_on_c, 0, 57, 0
2, 43020, Note_on_c, 0, 69, 0
2, 43020, Note_on_c, 0, 69, 40
2, 43020, Note_on_c, 0, 62, 44
2, 43020, Note_on_c, 0, 50, 52
2, 43110, Note_on_c, 0, 62, 0
2, 43110, Note_on_c, 0, 69, 0
2, 43110, Note_on_c, 0, 62, 82
2, 43110, Note_on_c, 0, 76, 59
2, 43155, Note_on_c, 0, 62, 0
2, 43155, Note_on_c, 0, 62, 82
2, 43200, Note_on_c, 0, 62, 0
2, 43200, Note_on_c, 0, 62, 0
2, 43200, Note_on_c, 0, 62, 0
2, 43200, Note_on_c, 0, 50, 0
2, 43200, Note_on_c, 0, 38, 0
2, 43200, Note_on_c, 0, 50, 0
2, 43200, Note_on_c, 0, 76, 0
2, 43200, Note_on_c, 0, 45, 0
2, 43200, Note_on_c, 0, 69, 0
2, 43200, Note_on_c, 0, 62, 83
2, 43200, Note_on_c, 0, 74, 48
2, 43200, Note_on_c, 0, 67, 50
2, 43200, Note_on_c, 0, 62, 50
2, 43200, Note_on_c, 0, 55, 60
2, 43200, Note_on_c, 0, 38, 76
2, 43224, Note_on_c, 0, 69, 50
2, 43224, Note_on_c, 0, 45, 76
2, 43248, Note_on_c, 0, 50, 76
2, 43290, Note_on_c, 0, 74, 0
2, 43290, Note_on_c, 0, 76, 48
2, 43380, Note_on_c, 0, 76, 0
2, 43380, Note_on_c, 0, 74, 49
2, 43560, Note_on_c, 0, 67, 0
2, 43560, Note_on_c, 0, 55, 0
2, 43560, Note_on_c, 0, 66, 52
2, 43560, Note_on_c, 0, 54, 63
2, 43650, Note_on_c, 0, 74, 0
2, 43650, Note_on_c, 0, 76, 50
2, 43740, Note_on_c, 0, 76, 0
2, 43740, Note_on_c, 0, 54, 0
2, 43740, Note_on_c, 0, 66, 0
2, 43740, Note_on_c, 0, 72, 51
2, 43740, Note_on_c, 0, 65, 53
2, 43740, Note_on_c, 0, 53, 64
2, 43920, Note_on_c, 0, 65, 0
2, 43920, Note_on_c, 0, 53, 0
2, 43920, Note_on_c, 0, 69, 55
2, 43920, Note_on_c, 0, 57, 65
2, 44010, Note_on_c, 0, 72, 0
2, 44010, Note_on_c, 0, 76, 53
2, 44100, Note_on_c, 0, 76, 0
2, 44100, Note_on_c, 0, 57, 0
2, 44100, Note_on_c, 0, 69, 0
2, 44100, Note_on_c, 0, 69, 53
2, 44100, Note_on_c, 0, 62, 56
2, 44100, Note_on_c, 0, 50, 66
2, 44190, Note_on_c, 0, 62, 0
2, 44190, Note_on_c, 0, 69, 0
2, 44190, Note_on_c, 0, 62, 83
2, 44190, Note_on_c, 0, 76, 54
2, 44235, Note_on_c, 0, 62, 0
2, 44235, Note_on_c, 0, 62, 90
2, 44280, Note_on_c, 0, 62, 0
2, 44280, Note_on_c, 0, 62, 0
2, 44280, Note_on_c, 0, 62, 0
2, 44280, Note_on_c, 0, 50, 0
2, 44280, Note_on_c, 0, 38, 0
2, 44280, Note_on_c, 0, 50, 0
2, 44280, Note_on_c, 0, 76, 0
2, 44280, Note_on_c, 0, 45, 0
2, 44280, Note_on_c, 0, 69, 0
2, 44280, Note_on_c, 0, 74, 54
2, 44280, Note_on_c, 0, 67, 57
2, 44280, Note_on_c, 0, 58, 67
2, 44280, Note_on_c, 0, 62, 67
2, 44280, Note_on_c, 0, 64, 67
2, 44352, Note_on_c, 0, 74, 0
2, 44352, Note_on_c, 0, 76, 55
2, 44424, Note_on_c, 0, 76, 0
2, 44424, Note_on_c, 0, 72, 55
2, 44460, Note_on_c, 0, 64, 0
2, 44460, Note_on_c, 0, 62, 0
2, 44460, Note_on_c, 0, 58, 0
2, 44460, Note_on_c, 0, 67, 0
2, 44460, Note_on_c, 0, 65, 58
2, 44460, Note_on_c, 0, 50, 68
2, 44460, Note_on_c, 0, 57, 68
2, 44495, Note_on_c, 0, 72, 0
2, 44495, Note_on_c, 0, 76, 55
2, 44567, Note_on_c, 0, 76, 0
2, 44567, Note_on_c, 0, 69, 56
2, 44640, Note_on_c, 0, 69, 0
2, 44640, Note_on_c, 0, 50, 0
2, 44640, Note_on_c, 0, 57, 0
2, 44640, Note_on_c, 0, 65, 0
2, 44640, Note_on_c, 0, 74, 56
2, 44640, Note_on_c, 0, 67, 59
2, 44640, Note_on_c, 0, 58, 69
2, 44640, Note_on_c, 0, 62, 69
2, 44640, Note_on_c, 0, 64, 69
2, 44712, Note_on_c, 0, 74, 0
2, 44712, Note_on_c, 0, 76, 57
2, 44784, Note_on_c, 0, 76, 0
2, 44784, Note_on_c, 0, 72, 57
2, 44820, Note_on_c, 0, 64, 0
2, 44820, Note_on_c, 0, 62, 0
2, 44820, Note_on_c, 0, 58, 0
2, 44820, Note_on_c, 0, 67, 0
2, 44820, Note_on_c, 0, 65, 60
2, 44820, Note_on_c, 0, 50, 70
2, 44820, Note_on_c, 0, 57, 70
2, 44855, Note_on_c, 0, 72, 0
2, 44855, Note_on_c, 0, 76, 57
2, 44927, Note_on_c, 0, 76, 0
2, 44927, Note_on_c, 0, 69, 58
2, 45000, Note_on_c, 0, 69, 0
2, 45000, Note_on_c, 0, 50, 0
2, 45000, Note_on_c, 0, 57, 0
2, 45000, Note_on_c, 0, 65, 0
2, 45000, Note_on_c, 0, 74, 58
2, 45000, Note_on_c, 0, 67, 61
2, 45000, Note_on_c, 0, 58, 71
2, 45000, Note_on_c, 0, 62, 71
2, 45059, Note_on_c, 0, 74, 0
2, 45059, Note_on_c, 0, 76, 59
2, 45120, Note_on_c, 0, 76, 0
2, 45120, Note_on_c, 0, 72, 59
2, 45180, Note_on_c, 0, 72, 0
2, 45180, Note_on_c, 0, 58, 0
2, 45180, Note_on_c, 0, 62, 0
2, 45180, Note_on_c, 0, 67, 0
2, 45180, Note_on_c, 0, 76, 59
2, 45180, Note_on_c, 0, 65, 62
2, 45180, Note_on_c, 0, 50, 72
2, 45180, Note_on_c, 0, 57, 72
2, 45239, Note_on_c, 0, 76, 0
2, 45239, Note_on_c, 0, 69, 60
2, 45300, Note_on_c, 0, 69, 0
2, 45300, Note_on_c, 0, 76, 60
2, 45360, Note_on_c, 0, 76, 0
2, 45360, Note_on_c, 0, 50, 0
2, 45360, Note_on_c, 0, 57, 0
2, 45360, Note_on_c, 0, 65, 0
2, 45360, Note_on_c, 0, 74, 60
2, 45360, Note_on_c, 0, 74, 63
2, 45360, Note_on_c, 0, 58, 73
2, 45360, Note_on_c, 0, 62, 73
2, 45360, Note_on_c, 0, 65, 73
2, 45360, Note_on_c, 0, 69, 73
2, 45411, Note_on_c, 0, 74, 0
2, 45411, Note_on_c, 0, 77, 68
2, 45463, Note_on_c, 0, 77, 0
2, 45463, Note_on_c, 0, 81, 68
2, 45513, Note_on_c, 0, 81, 0
2, 45513, Note_on_c, 0, 86, 70
2, 45566, Note_on_c, 0, 86, 0
2, 45566, Note_on_c, 0, 84, 57
2, 45616, Note_on_c, 0, 84, 0
2, 45616, Note_on_c, 0, 81, 51
2, 45668, Note_on_c, 0, 81, 0
2, 45668, Note_on_c, 0, 77, 51
2, 45677, Note_on_c, 0, 74, 0
2, 45720, Note_on_c, 0, 77, 0
2, 45720, Note_on_c, 0, 72, 55
2, 45720, Note_on_c, 0, 72, 69
2, 45720, Note_on_c, 0, 31, 81
2, 45720, Note_on_c, 0, 38, 81
2, 45720, Note_on_c, 0, 43, 81
2, 45771, Note_on_c, 0, 72, 0
2, 45771, Note_on_c, 0, 76, 69
2, 45823, Note_on_c, 0, 76, 0
2, 45823, Note_on_c, 0, 79, 64
2, 45873, Note_on_c, 0, 79, 0
2, 45873, Note_on_c, 0, 82, 66
2, 45926, Note_on_c, 0, 82, 0
2, 45926, Note_on_c, 0, 81, 52
2, 45976, Note_on_c, 0, 81, 0
2, 45976, Note_on_c, 0, 77, 53
2, 46028, Note_on_c, 0, 77, 0
2, 46028, Note_on_c, 0, 74, 54
2, 46037, Note_on_c, 0, 72, 0
2, 46080, Note_on_c, 0, 43, 0
2, 46080, Note_on_c, 0, 62, 0
2, 46080, Note_on_c, 0, 74, 0
2, 46080, Note_on_c, 0, 65, 0
2, 46080, Note_on_c, 0, 69, 0
2, 46080, Note_on_c, 0, 38, 0
2, 46080, Note_on_c, 0, 31, 0
2, 46080, Note_on_c, 0, 58, 0
2, 46080, Note_on_c, 0, 70, 56
2, 46080, Note_on_c, 0, 70, 72
2, 46080, Note_on_c, 0, 58, 94
2, 46080, Note_on_c, 0, 62, 94
2, 46080, Note_on_c, 0, 65, 94
2, 46080, Note_on_c, 0, 67, 94
2, 46131, Note_on_c, 0, 70, 0
2, 46131, Note_on_c, 0, 74, 66
2, 46183, Note_on_c, 0, 74, 0
2, 46183, Note_on_c, 0, 77, 69
2, 46233, Note_on_c, 0, 77, 0
2, 46233, Note_on_c, 0, 81, 64
2, 46286, Note_on_c, 0, 81, 0
2, 46286, Note_on_c, 0, 79, 58
2, 46336, Note_on_c, 0, 79, 0
2, 46336, Note_on_c, 0, 76, 50
2, 46388, Note_on_c, 0, 76, 0
2, 46388, Note_on_c, 0, 72, 56
2, 46397, Note_on_c, 0, 70, 0
2, 46440, Note_on_c, 0, 67, 0
2, 46440, Note_on_c, 0, 65, 0
2, 46440, Note_on_c, 0, 58, 0
2, 46440, Note_on_c, 0, 62, 0
2, 46440, Note_on_c, 0, 72, 0
2, 46440, Note_on_c, 0, 69, 49
2, 46440, Note_on_c, 0, 55, 94
2, 46440, Note_on_c, 0, 58, 94
2, 46440, Note_on_c, 0, 62, 94
2, 46440, Note_on_c, 0, 65, 94
2, 46499, Note_on_c, 0, 69, 0
2, 46499, Note_on_c, 0, 72, 62
2, 46560, Note_on_c, 0, 72, 0
2, 46560, Note_on_c, 0, 76, 71
2, 46620, Note_on_c, 0, 76, 0
2, 46620, Note_on_c, 0, 79, 63
2, 46709, Note_on_c, 0, 79, 0
2, 46800, Note_on_c, 0, 67, 42
2, 46800, Note_on_c, 0, 31, 79
2, 46800, Note_on_c, 0, 38, 79
2, 46800, Note_on_c, 0, 43, 79
2, 46859, Note_on_c, 0, 67, 0
2, 46859, Note_on_c, 0, 70, 58
2, 46920, Note_on_c, 0, 70, 0
2, 46920, Note_on_c, 0, 74, 68
2, 46980, Note_on_c, 0, 74, 0
2, 46980, Note_on_c, 0, 77, 67
2, 47069, Note_on_c, 0, 77, 0
2, 47160, Note_on_c, 0, 62, 0
2, 47160, Note_on_c, 0, 43, 0
2, 47160, Note_on_c, 0, 65, 0
2, 47160, Note_on_c, 0, 55, 0
2, 47160, Note_on_c, 0, 58, 0
2, 47160, Note_on_c, 0, 38, 0
2, 47160, Note_on_c, 0, 31, 0
2, 47160, Note_on_c, 0, 64, 43
2, 47160, Note_on_c, 0, 64, 68
2, 47160, Note_on_c, 0, 55, 90
2, 47160, Note_on_c, 0, 58, 90
2, 47160, Note_on_c, 0, 62, 90
2, 47211, Note_on_c, 0, 64, 0
2, 47211, Note_on_c, 0, 69, 66
2, 47263, Note_on_c, 0, 69, 0
2, 47263, Note_on_c, 0, 72, 67
2, 47313, Note_on_c, 0, 72, 0
2, 47313, Note_on_c, 0, 76, 67
2, 47366, Note_on_c, 0, 76, 0
2, 47366, Note_on_c, 0, 74, 56
2, 47416, Note_on_c, 0, 74, 0
2, 47416, Note_on_c, 0, 70, 55
2, 47468, Note_on_c, 0, 70, 0
2, 47468, Note_on_c, 0, 67, 52
2, 47477, Note_on_c, 0, 64, 0
2, 47520, Note_on_c, 0, 62, 0
2, 47520, Note_on_c, 0, 55, 0
2, 47520, Note_on_c, 0, 58, 0
2, 47520, Note_on_c, 0, 67, 0
2, 47520, Note_on_c, 0, 62, 55
2, 47520, Note_on_c, 0, 62, 52
2, 47520, Note_on_c, 0, 65, 52
2, 47520, Note_on_c, 0, 57, 60
2, 47520, Note_on_c, 0, 48, 52
2, 47520, Note_on_c, 0, 41, 79
2, 47571, Note_on_c, 0, 62, 0
2, 47571, Note_on_c, 0, 65, 63
2, 47623, Note_on_c, 0, 65, 0
2, 47623, Note_on_c, 0, 69, 66
2, 47673, Note_on_c, 0, 69, 0
2, 47673, Note_on_c, 0, 67, 57
2, 47700, Note_on_c, 0, 65, 0
2, 47700, Note_on_c, 0, 62, 0
2, 47700, Note_on_c, 0, 60, 58
2, 47700, Note_on_c, 0, 64, 58
2, 47726, Note_on_c, 0, 67, 0
2, 47726, Note_on_c, 0, 65, 59
2, 47776, Note_on_c, 0, 65, 0
2, 47776, Note_on_c, 0, 64, 60
2, 47828, Note_on_c, 0, 64, 0
2, 47828, Note_on_c, 0, 62, 61
2, 47880, Note_on_c, 0, 62, 0
2, 47880, Note_on_c, 0, 60, 56
2, 47939, Note_on_c, 0, 60, 0
2, 47939, Note_on_c, 0, 58, 58
2, 48000, Note_on_c, 0, 58, 0
2, 48000, Note_on_c, 0, 57, 60
2, 48060, Note_on_c, 0, 57, 0
2, 48060, Note_on_c, 0, 64, 0
2, 48060, Note_on_c, 0, 48, 0
2, 48060, Note_on_c, 0, 57, 0
2, 48060, Note_on_c, 0, 41, 0
2, 48060, Note_on_c, 0, 60, 0
2, 48060, Note_on_c, 0, 55, 61
2, 48060, Note_on_c, 0, 58, 60
2, 48060, Note_on_c, 0, 62, 60
2, 48060, Note_on_c, 0, 55, 63
2, 48060, Note_on_c, 0, 50, 60
2, 48060, Note_on_c, 0, 39, 88
2, 48119, Note_on_c, 0, 55, 0
2, 48119, Note_on_c, 0, 58, 59
2, 48180, Note_on_c, 0, 58, 0
2, 48180, Note_on_c, 0, 62, 68
2, 48240, Note_on_c, 0, 62, 0
2, 48240, Note_on_c, 0, 58, 0
2, 48240, Note_on_c, 0, 62, 0
2, 48240, Note_on_c, 0, 50, 0
2, 48240, Note_on_c, 0, 60, 55
2, 48240, Note_on_c, 0, 57, 65
2, 48240, Note_on_c, 0, 60, 65
2, 48240, Note_on_c, 0, 48, 65
2, 48299, Note_on_c, 0, 60, 0
2, 48299, Note_on_c, 0, 58, 60
2, 48360, Note_on_c, 0, 58, 0
2, 48360, Note_on_c, 0, 57, 55
2, 48420, Note_on_c, 0, 57, 0
2, 48420, Note_on_c, 0, 60, 0
2, 48420, Note_on_c, 0, 57, 0
2, 48420, Note_on_c, 0, 55, 0
2, 48420, Note_on_c, 0, 48, 0
2, 48420, Note_on_c, 0, 55, 55
2, 48420, Note_on_c, 0, 58, 69
2, 48420, Note_on_c, 0, 55, 71
2, 48420, Note_on_c, 0, 46, 69
2, 48465, Note_on_c, 0, 55, 0
2, 48465, Note_on_c, 0, 53, 57
2, 48510, Note_on_c, 0, 53, 0
2, 48510, Note_on_c, 0, 52, 59
2, 48555, Note_on_c, 0, 52, 0
2, 48555, Note_on_c, 0, 51, 61
2, 48600, Note_on_c, 0, 51, 0
2, 48600, Note_on_c, 0, 55, 0
2, 48600, Note_on_c, 0, 58, 0
2, 48600, Note_on_c, 0, 39, 0
2, 48600, Note_on_c, 0, 46, 0
2, 48600, Note_on_c, 0, 50, 57
2, 48600, Note_on_c, 0, 55, 75
2, 48600, Note_on_c, 0, 57, 75
2, 48600, Note_on_c, 0, 34, 109
2, 48600, Note_on_c, 0, 41, 109
2, 48600, Note_on_c, 0, 50, 109
2, 48780, Note_on_c, 0, 57, 0
2, 48780, Note_on_c, 0, 55, 0
2, 48780, Note_on_c, 0, 50, 0
2, 48780, Note_on_c, 0, 55, 75
2, 48780, Note_on_c, 0, 57, 75
2, 48839, Note_on_c, 0, 57, 0
2, 48839, Note_on_c, 0, 55, 0
2, 48839, Note_on_c, 0, 55, 71
2, 48839, Note_on_c, 0, 57, 71
2, 48960, Note_on_c, 0, 67, 114
2, 48960, Note_on_c, 0, 55, 109
2, 49080, Note_on_c, 0, 57, 0
2, 49080, Note_on_c, 0, 55, 0
2, 49080, Note_on_c, 0, 55, 78
2, 49080, Note_on_c, 0, 57, 78
2, 49199, Note_on_c, 0, 57, 0
2, 49199, Note_on_c, 0, 55, 0
2, 49199, Note_on_c, 0, 55, 79
2, 49199, Note_on_c, 0, 57, 79
2, 49320, Note_on_c, 0, 57, 0
2, 49320, Note_on_c, 0, 50, 0
2, 49320, Note_on_c, 0, 55, 0
2, 49320, Note_on_c, 0, 55, 78
2, 49320, Note_on_c, 0, 57, 78
2, 49320, Note_on_c, 0, 49, 101
2, 49440, Note_on_c, 0, 57, 0
2, 49440, Note_on_c, 0, 55, 0
2, 49440, Note_on_c, 0, 55, 75
2, 49440, Note_on_c, 0, 57, 75
2, 49559, Note_on_c, 0, 57, 0
2, 49559, Note_on_c, 0, 55, 0
2, 49559, Note_on_c, 0, 55, 77
2, 49559, Note_on_c, 0, 57, 77
2, 49680, Note_on_c, 0, 57, 0
2, 49680, Note_on_c, 0, 49, 0
2, 49680, Note_on_c, 0, 55, 0
2, 49680, Note_on_c, 0, 55, 0
2, 49680, Note_on_c, 0, 34, 0
2, 49680, Note_on_c, 0, 67, 0
2, 49680, Note_on_c, 0, 41, 0
2, 49680, Note_on_c, 0, 55, 74
2, 49680, Note_on_c, 0, 57, 74
2, 49680, Note_on_c, 0, 34, 100
2, 49680, Note_on_c, 0, 41, 100
2, 49680, Note_on_c, 0, 50, 100
2, 49860, Note_on_c, 0, 57, 0
2, 49860, Note_on_c, 0, 55, 0
2, 49860, Note_on_c, 0, 55, 73
2, 49860, Note_on_c, 0, 57, 73
2, 49919, Note_on_c, 0, 57, 0
2, 49919, Note_on_c, 0, 55, 0
2, 49919, Note_on_c, 0, 55, 75
2, 49919, Note_on_c, 0, 57, 75
2, 50040, Note_on_c, 0, 67, 112
2, 50040, Note_on_c, 0, 55, 110
2, 50160, Note_on_c, 0, 57, 0
2, 50160, Note_on_c, 0, 55, 0
2, 50160, Note_on_c, 0, 55, 76
2, 50160, Note_on_c, 0, 57, 76
2, 50279, Note_on_c, 0, 57, 0
2, 50279, Note_on_c, 0, 55, 0
2, 50279, Note_on_c, 0, 55, 76
2, 50279, Note_on_c, 0, 57, 76
2, 50400, Note_on_c, 0, 57, 0
2, 50400, Note_on_c, 0, 50, 0
2, 50400, Note_on_c, 0, 55, 0
2, 50400, Note_on_c, 0, 55, 74
2, 50400, Note_on_c, 0, 57, 74
2, 50400, Note_on_c, 0, 49, 101
2, 50520, Note_on_c, 0, 57, 0
2, 50520, Note_on_c, 0, 55, 0
2, 50520, Note_on_c, 0, 55, 80
2, 50520, Note_on_c, 0, 57, 80
2, 50639, Note_on_c, 0, 57, 0
2, 50639, Note_on_c, 0, 55, 0
2, 50639, Note_on_c, 0, 55, 75
2, 50639, Note_on_c, 0, 57, 75
2, 50760, Note_on_c, 0, 57, 0
2, 50760, Note_on_c, 0, 49, 0
2, 50760, Note_on_c, 0, 55, 0
2, 50760, Note_on_c, 0, 55, 0
2, 50760, Note_on_c, 0, 41, 0
2, 50760, Note_on_c, 0, 67, 0
2, 50760, Note_on_c, 0, 34, 0
2, 50760, Note_on_c, 0, 55, 97
2, 50760, Note_on_c, 0, 57, 97
2, 50760, Note_on_c, 0, 62, 97
2, 50760, Note_on_c, 0, 26, 90
2, 50760, Note_on_c, 0, 38, 90
2, 50878, Note_on_c, 0, 62, 0
2, 50878, Note_on_c, 0, 57, 0
2, 50878, Note_on_c, 0, 55, 0
2, 50895, Note_on_c, 0, 55, 91
2, 50895, Note_on_c, 0, 57, 91
2, 50895, Note_on_c, 0, 62, 91
2, 50940, Note_on_c, 0, 62, 0
2, 50940, Note_on_c, 0, 55, 0
2, 50940, Note_on_c, 0, 57, 0
2, 50940, Note_on_c, 0, 55, 112
2, 50940, Note_on_c, 0, 57, 112
2, 50940, Note_on_c, 0, 62, 112
2, 50985, Note_on_c, 0, 50, 85
2, 51030, Note_on_c, 0, 50, 0
2, 51030, Note_on_c, 0, 49, 94
2, 51075, Note_on_c, 0, 49, 0
2, 51075, Note_on_c, 0, 47, 91
2, 51120, Note_on_c, 0, 47, 0
2, 51120, Note_on_c, 0, 48, 99
2, 51210, Note_on_c, 0, 57, 0
2, 51210, Note_on_c, 0, 55, 0
2, 51210, Note_on_c, 0, 62, 0
2, 51210, Note_on_c, 0, 55, 103
2, 51210, Note_on_c, 0, 57, 103
2, 51210, Note_on_c, 0, 62, 103
2, 51359, Note_on_c, 0, 48, 0
2, 51359, Note_on_c, 0, 47, 96
2, 51420, Note_on_c, 0, 47, 0
2, 51420, Note_on_c, 0, 46, 98
2, 51480, Note_on_c, 0, 46, 0
2, 51480, Note_on_c, 0, 26, 0
2, 51480, Note_on_c, 0, 38, 0
2, 51480, Note_on_c, 0, 50, 113
2, 51480, Note_on_c, 0, 45, 116
2, 51570, Note_on_c, 0, 55, 0
2, 51570, Note_on_c, 0, 62, 0
2, 51570, Note_on_c, 0, 57, 0
2, 51570, Note_on_c, 0, 53, 97
2, 51570, Note_on_c, 0, 57, 97
2, 51570, Note_on_c, 0, 62, 97
2, 51728, Note_on_c, 0, 62, 0
2, 51728, Note_on_c, 0, 53, 0
2, 51728, Note_on_c, 0, 57, 0
2, 51750, Note_on_c, 0, 53, 108
2, 51750, Note_on_c, 0, 57, 108
2, 51750, Note_on_c, 0, 62, 108
2, 51797, Note_on_c, 0, 50, 0
2, 51797, Note_on_c, 0, 45, 0
2, 51840, Note_on_c, 0, 53, 0
2, 51840, Note_on_c, 0, 57, 0
2, 51840, Note_on_c, 0, 62, 0
2, 51840, Note_on_c, 0, 55, 108
2, 51840, Note_on_c, 0, 57, 108
2, 51840, Note_on_c, 0, 62, 108
2, 51840, Note_on_c, 0, 26, 92
2, 51840, Note_on_c, 0, 38, 92
2, 51958, Note_on_c, 0, 62, 0
2, 51958, Note_on_c, 0, 57, 0
2, 51958, Note_on_c, 0, 55, 0
2, 51975, Note_on_c, 0, 55, 97
2, 51975, Note_on_c, 0, 57, 97
2, 51975, Note_on_c, 0, 62, 97
2, 52020, Note_on_c, 0, 62, 0
2, 52020, Note_on_c, 0, 55, 0
2, 52020, Note_on_c, 0, 57, 0
2, 52020, Note_on_c, 0, 55, 99
2, 52020, Note_on_c, 0, 57, 99
2, 52020, Note_on_c, 0, 62, 99
2, 52065, Note_on_c, 0, 50, 89
2, 52110, Note_on_c, 0, 50, 0
2, 52110, Note_on_c, 0, 49, 96
2, 52155, Note_on_c, 0, 49, 0
2, 52155, Note_on_c, 0, 47, 97
2, 52200, Note_on_c, 0, 47, 0
2, 52200, Note_on_c, 0, 48, 96
2, 52290, Note_on_c, 0, 57, 0
2, 52290, Note_on_c, 0, 55, 0
2, 52290, Note_on_c, 0, 62, 0
2, 52290, Note_on_c, 0, 55, 99
2, 52290, Note_on_c, 0, 57, 99
2, 52290, Note_on_c, 0, 62, 99
2, 52439, Note_on_c, 0, 48, 0
2, 52439, Note_on_c, 0, 47, 90
2, 52500, Note_on_c, 0, 47, 0
2, 52500, Note_on_c, 0, 46, 95
2, 52560, Note_on_c, 0, 46, 0
2, 52560, Note_on_c, 0, 26, 0
2, 52560, Note_on_c, 0, 38, 0
2, 52560, Note_on_c, 0, 50, 114
2, 52560, Note_on_c, 0, 45, 119
2, 52650, Note_on_c, 0, 55, 0
2, 52650, Note_on_c, 0, 62, 0
2, 52650, Note_on_c, 0, 57, 0
2, 52650, Note_on_c, 0, 53, 60
2, 52650, Note_on_c, 0, 57, 60
2, 52650, Note_on_c, 0, 62, 60
2, 52808, Note_on_c, 0, 62, 0
2, 52808, Note_on_c, 0, 53, 0
2, 52808, Note_on_c, 0, 57, 0
2, 52830, Note_on_c, 0, 53, 74
2, 52830, Note_on_c, 0, 57, 74
2, 52830, Note_on_c, 0, 62, 74
2, 52877, Note_on_c, 0, 50, 0
2, 52877, Note_on_c, 0, 45, 0
2, 52920, Note_on_c, 0, 53, 0
2, 52920, Note_on_c, 0, 57, 0
2, 52920, Note_on_c, 0, 62, 0
2, 52920, Note_on_c, 0, 55, 87
2, 52920, Note_on_c, 0, 57, 87
2, 52920, Note_on_c, 0, 62, 87
2, 52920, Note_on_c, 0, 26, 89
2, 52920, Note_on_c, 0, 38, 89
2, 53038, Note_on_c, 0, 62, 0
2, 53038, Note_on_c, 0, 57, 0
2, 53038, Note_on_c, 0, 55, 0
2, 53055, Note_on_c, 0, 55, 73
2, 53055, Note_on_c, 0, 57, 73
2, 53055, Note_on_c, 0, 62, 73
2, 53100, Note_on_c, 0, 62, 0
2, 53100, Note_on_c, 0, 55, 0
2, 53100, Note_on_c, 0, 57, 0
2, 53100, Note_on_c, 0, 55, 86
2, 53100, Note_on_c, 0, 57, 86
2, 53100, Note_on_c, 0, 62, 86
2, 53145, Note_on_c, 0, 50, 88
2, 53190, Note_on_c, 0, 50, 0
2, 53190, Note_on_c, 0, 49, 94
2, 53235, Note_on_c, 0, 49, 0
2, 53235, Note_on_c, 0, 47, 96
2, 53280, Note_on_c, 0, 47, 0
2, 53280, Note_on_c, 0, 48, 97
2, 53370, Note_on_c, 0, 57, 0
2, 53370, Note_on_c, 0, 55, 0
2, 53370, Note_on_c, 0, 62, 0
2, 53370, Note_on_c, 0, 55, 86
2, 53370, Note_on_c, 0, 57, 86
2, 53370, Note_on_c, 0, 62, 86
2, 53460, Note_on_c, 0, 48, 0
2, 53460, Note_on_c, 0, 47, 95
2, 53519, Note_on_c, 0, 47, 0
2, 53519, Note_on_c, 0, 45, 94
2, 53580, Note_on_c, 0, 45, 0
2, 53580, Note_on_c, 0, 46, 103
2, 53640, Note_on_c, 0, 46, 0
2, 53640, Note_on_c, 0, 38, 0
2, 53640, Note_on_c, 0, 26, 0
2, 53640, Note_on_c, 0, 50, 117
2, 53640, Note_on_c, 0, 45, 117
2, 53730, Note_on_c, 0, 55, 0
2, 53730, Note_on_c, 0, 62, 0
2, 53730, Note_on_c, 0, 57, 0
2, 53730, Note_on_c, 0, 53, 73
2, 53730, Note_on_c, 0, 57, 73
2, 53730, Note_on_c, 0, 62, 73
2, 53888, Note_on_c, 0, 62, 0
2, 53888, Note_on_c, 0, 53, 0
2, 53888, Note_on_c, 0, 57, 0
2, 53910, Note_on_c, 0, 53, 88
2, 53910, Note_on_c, 0, 57, 88
2, 53910, Note_on_c, 0, 62, 88
2, 53957, Note_on_c, 0, 50, 0
2, 53957, Note_on_c, 0, 45, 0
2, 54000, Note_on_c, 0, 53, 0
2, 54000, Note_on_c, 0, 57, 0
2, 54000, Note_on_c, 0, 62, 0
2, 54000, Note_on_c, 0, 57, 103
2, 54000, Note_on_c, 0, 58, 103
2, 54000, Note_on_c, 0, 65, 103
2, 54000, Note_on_c, 0, 26, 89
2, 54000, Note_on_c, 0, 38, 89
2, 54118, Note_on_c, 0, 65, 0
2, 54118, Note_on_c, 0, 58, 0
2, 54118, Note_on_c, 0, 57, 0
2, 54135, Note_on_c, 0, 57, 84
2, 54135, Note_on_c, 0, 58, 84
2, 54135, Note_on_c, 0, 65, 84
2, 54180, Note_on_c, 0, 65, 0
2, 54180, Note_on_c, 0, 57, 0
2, 54180, Note_on_c, 0, 58, 0
2, 54180, Note_on_c, 0, 57, 98
2, 54180, Note_on_c, 0, 58, 98
2, 54180, Note_on_c, 0, 65, 98
2, 54225, Note_on_c, 0, 53, 88
2, 54270, Note_on_c, 0, 53, 0
2, 54270, Note_on_c, 0, 52, 90
2, 54315, Note_on_c, 0, 52, 0
2, 54315, Note_on_c, 0, 51, 99
2, 54360, Note_on_c, 0, 51, 0
2, 54360, Note_on_c, 0, 50, 94
2, 54450, Note_on_c, 0, 58, 0
2, 54450, Note_on_c, 0, 57, 0
2, 54450, Note_on_c, 0, 65, 0
2, 54450, Note_on_c, 0, 57, 98
2, 54450, Note_on_c, 0, 58, 98
2, 54450, Note_on_c, 0, 65, 98
2, 54599, Note_on_c, 0, 50, 0
2, 54599, Note_on_c, 0, 49, 96
2, 54660, Note_on_c, 0, 49, 0
2, 54660, Note_on_c, 0, 48, 94
2, 54720, Note_on_c, 0, 48, 0
2, 54720, Note_on_c, 0, 38, 0
2, 54720, Note_on_c, 0, 26, 0
2, 54720, Note_on_c, 0, 50, 107
2, 54720, Note_on_c, 0, 46, 113
2, 54810, Note_on_c, 0, 57, 0
2, 54810, Note_on_c, 0, 65, 0
2, 54810, Note_on_c, 0, 58, 0
2, 54810, Note_on_c, 0, 55, 86
2, 54810, Note_on_c, 0, 58, 86
2, 54810, Note_on_c, 0, 65, 86
2, 54900, Note_on_c, 0, 65, 0
2, 54900, Note_on_c, 0, 55, 0
2, 54900, Note_on_c, 0, 58, 0
2, 54900, Note_on_c, 0, 55, 92
2, 54900, Note_on_c, 0, 58, 92
2, 54900, Note_on_c, 0, 65, 92
2, 54990, Note_on_c, 0, 65, 0
2, 54990, Note_on_c, 0, 55, 0
2, 54990, Note_on_c, 0, 58, 0
2, 54990, Note_on_c, 0, 55, 95
2, 54990, Note_on_c, 0, 58, 95
2, 54990, Note_on_c, 0, 65, 95
2, 55037, Note_on_c, 0, 46, 0
2, 55037, Note_on_c, 0, 50, 0
2, 55080, Note_on_c, 0, 55, 0
2, 55080, Note_on_c, 0, 58, 0
2, 55080, Note_on_c, 0, 65, 0
2, 55080, Note_on_c, 0, 57, 99
2, 55080, Note_on_c, 0, 58, 99
2, 55080, Note_on_c, 0, 65, 99
2, 55080, Note_on_c, 0, 26, 88
2, 55080, Note_on_c, 0, 38, 88
2, 55198, Note_on_c, 0, 65, 0
2, 55198, Note_on_c, 0, 58, 0
2, 55198, Note_on_c, 0, 57, 0
2, 55215, Note_on_c, 0, 57, 89
2, 55215, Note_on_c, 0, 58, 89
2, 55215, Note_on_c, 0, 65, 89
2, 55260, Note_on_c, 0, 65, 0
2, 55260, Note_on_c, 0, 57, 0
2, 55260, Note_on_c, 0, 58, 0
2, 55260, Note_on_c, 0, 57, 94
2, 55260, Note_on_c, 0, 58, 94
2, 55260, Note_on_c, 0, 65, 94
2, 55305, Note_on_c, 0, 53, 89
2, 55350, Note_on_c, 0, 53, 0
2, 55350, Note_on_c, 0, 52, 95
2, 55395, Note_on_c, 0, 52, 0
2, 55395, Note_on_c, 0, 51, 93
2, 55440, Note_on_c, 0, 51, 0
2, 55440, Note_on_c, 0, 50, 90
2, 55530, Note_on_c, 0, 58, 0
2, 55530, Note_on_c, 0, 57, 0
2, 55530, Note_on_c, 0, 65, 0
2, 55530, Note_on_c, 0, 57, 98
2, 55530, Note_on_c, 0, 58, 98
2, 55530, Note_on_c, 0, 65, 98
2, 55620, Note_on_c, 0, 49, 95
2, 55679, Note_on_c, 0, 49, 0
2, 55679, Note_on_c, 0, 48, 93
2, 55740, Note_on_c, 0, 48, 0
2, 55740, Note_on_c, 0, 45, 93
2, 55800, Note_on_c, 0, 45, 0
2, 55800, Note_on_c, 0, 38, 0
2, 55800, Note_on_c, 0, 26, 0
2, 55800, Note_on_c, 0, 46, 105
2, 55890, Note_on_c, 0, 58, 0
2, 55890, Note_on_c, 0, 57, 0
2, 55890, Note_on_c, 0, 65, 0
2, 55890, Note_on_c, 0, 55, 86
2, 55890, Note_on_c, 0, 58, 86
2, 55890, Note_on_c, 0, 65, 86
2, 55980, Note_on_c, 0, 65, 0
2, 55980, Note_on_c, 0, 55, 0
2, 55980, Note_on_c, 0, 58, 0
2, 55980, Note_on_c, 0, 55, 92
2, 55980, Note_on_c, 0, 58, 92
2, 55980, Note_on_c, 0, 65, 92
2, 56070, Note_on_c, 0, 65, 0
2, 56070, Note_on_c, 0, 55, 0
2, 56070, Note_on_c, 0, 58, 0
2, 56070, Note_on_c, 0, 55, 100
2, 56070, Note_on_c, 0, 58, 100
2, 56070, Note_on_c, 0, 65, 100
2, 56117, Note_on_c, 0, 46, 0
2, 56117, Note_on_c, 0, 50, 0
2, 56160, Note_on_c, 0, 55, 0
2, 56160, Note_on_c, 0, 58, 0
2, 56160, Note_on_c, 0, 65, 0
2, 56160, Note_on_c, 0, 60, 99
2, 56160, Note_on_c, 0, 62, 99
2, 56160, Note_on_c, 0, 67, 99
2, 56160, Note_on_c, 0, 26, 86
2, 56160, Note_on_c, 0, 38, 86
2, 56278, Note_on_c, 0, 67, 0
2, 56278, Note_on_c, 0, 62, 0
2, 56278, Note_on_c, 0, 60, 0
2, 56295, Note_on_c, 0, 60, 91
2, 56295, Note_on_c, 0, 62, 91
2, 56295, Note_on_c, 0, 67, 91
2, 56340, Note_on_c, 0, 67, 0
2, 56340, Note_on_c, 0, 60, 0
2, 56340, Note_on_c, 0, 62, 0
2, 56340, Note_on_c, 0, 60, 88
2, 56340, Note_on_c, 0, 62, 88
2, 56340, Note_on_c, 0, 67, 88
2, 56385, Note_on_c, 0, 55, 85
2, 56430, Note_on_c, 0, 55, 0
2, 56430, Note_on_c, 0, 54, 92
2, 56475, Note_on_c, 0, 54, 0
2, 56475, Note_on_c, 0, 52, 94
2, 56520, Note_on_c, 0, 52, 0
2, 56520, Note_on_c, 0, 53, 98
2, 56610, Note_on_c, 0, 62, 0
2, 56610, Note_on_c, 0, 60, 0
2, 56610, Note_on_c, 0, 67, 0
2, 56610, Note_on_c, 0, 60, 96
2, 56610, Note_on_c, 0, 62, 96
2, 56610, Note_on_c, 0, 67, 96
2, 56759, Note_on_c, 0, 53, 0
2, 56759, Note_on_c, 0, 52, 99
2, 56820, Note_on_c, 0, 52, 0
2, 56820, Note_on_c, 0, 51, 95
2, 56880, Note_on_c, 0, 51, 0
2, 56880, Note_on_c, 0, 38, 0
2, 56880, Note_on_c, 0, 26, 0
2, 56880, Note_on_c, 0, 50, 102
2, 56880, Note_on_c, 0, 50, 107
2, 56939, Note_on_c, 0, 50, 0
2, 56939, Note_on_c, 0, 49, 98
2, 56970, Note_on_c, 0, 60, 0
2, 56970, Note_on_c, 0, 67, 0
2, 56970, Note_on_c, 0, 62, 0
2, 56970, Note_on_c, 0, 58, 86
2, 56970, Note_on_c, 0, 62, 86
2, 56970, Note_on_c, 0, 67, 86
2, 57000, Note_on_c, 0, 49, 0
2, 57000, Note_on_c, 0, 48, 99
2, 57060, Note_on_c, 0, 48, 0
2, 57060, Note_on_c, 0, 67, 0
2, 57060, Note_on_c, 0, 58, 0
2, 57060, Note_on_c, 0, 62, 0
2, 57060, Note_on_c, 0, 58, 92
2, 57060, Note_on_c, 0, 62, 92
2, 57060, Note_on_c, 0, 67, 92
2, 57060, Note_on_c, 0, 48, 104
2, 57150, Note_on_c, 0, 67, 0
2, 57150, Note_on_c, 0, 62, 0
2, 57150, Note_on_c, 0, 58, 0
2, 57150, Note_on_c, 0, 58, 102
2, 57150, Note_on_c, 0, 62, 102
2, 57150, Note_on_c, 0, 67, 102
2, 57197, Note_on_c, 0, 50, 0
2, 57240, Note_on_c, 0, 62, 0
2, 57240, Note_on_c, 0, 58, 0
2, 57240, Note_on_c, 0, 48, 0
2, 57240, Note_on_c, 0, 67, 0
2, 57240, Note_on_c, 0, 60, 99
2, 57240, Note_on_c, 0, 62, 99
2, 57240, Note_on_c, 0, 67, 99
2, 57240, Note_on_c, 0, 26, 85
2, 57240, Note_on_c, 0, 38, 85
2, 57358, Note_on_c, 0, 67, 0
2, 57358, Note_on_c, 0, 62, 0
2, 57358, Note_on_c, 0, 60, 0
2, 57375, Note_on_c, 0, 60, 89
2, 57375, Note_on_c, 0, 62, 89
2, 57375, Note_on_c, 0, 67, 89
2, 57420, Note_on_c, 0, 67, 0
2, 57420, Note_on_c, 0, 60, 0
2, 57420, Note_on_c, 0, 62, 0
2, 57420, Note_on_c, 0, 60, 97
2, 57420, Note_on_c, 0, 62, 97
2, 57420, Note_on_c, 0, 67, 97
2, 57465, Note_on_c, 0, 55, 89
2, 57510, Note_on_c, 0, 55, 0
2, 57510, Note_on_c, 0, 54, 96
2, 57555, Note_on_c, 0, 54, 0
2, 57555, Note_on_c, 0, 52, 95
2, 57600, Note_on_c, 0, 52, 0
2, 57600, Note_on_c, 0, 53, 101
2, 57690, Note_on_c, 0, 62, 0
2, 57690, Note_on_c, 0, 60, 0
2, 57690, Note_on_c, 0, 67, 0
2, 57690, Note_on_c, 0, 60, 99
2, 57690, Note_on_c, 0, 62, 99
2, 57690, Note_on_c, 0, 67, 99
2, 57839, Note_on_c, 0, 53, 0
2, 57839, Note_on_c, 0, 52, 94
2, 57900, Note_on_c, 0, 52, 0
2, 57900, Note_on_c, 0, 51, 89
2, 57960, Note_on_c, 0, 51, 0
2, 57960, Note_on_c, 0, 38, 0
2, 57960, Note_on_c, 0, 26, 0
2, 57960, Note_on_c, 0, 50, 96
2, 57960, Note_on_c, 0, 50, 102
2, 58005, Note_on_c, 0, 50, 0
2, 58005, Note_on_c, 0, 49, 94
2, 58050, Note_on_c, 0, 49, 0
2, 58050, Note_on_c, 0, 62, 0
2, 58050, Note_on_c, 0, 67, 0
2, 58050, Note_on_c, 0, 60, 0
2, 58050, Note_on_c, 0, 58, 86
2, 58050, Note_on_c, 0, 62, 86
2, 58050, Note_on_c, 0, 67, 86
2, 58050, Note_on_c, 0, 48, 97
2, 58095, Note_on_c, 0, 48, 0
2, 58095, Note_on_c, 0, 45, 100
2, 58140, Note_on_c, 0, 45, 0
2, 58140, Note_on_c, 0, 67, 0
2, 58140, Note_on_c, 0, 58, 0
2, 58140, Note_on_c, 0, 62, 0
2, 58140, Note_on_c, 0, 58, 92
2, 58140, Note_on_c, 0, 62, 92
2, 58140, Note_on_c, 0, 67, 92
2, 58140, Note_on_c, 0, 46, 104
2, 58230, Note_on_c, 0, 67, 0
2, 58230, Note_on_c, 0, 62, 0
2, 58230, Note_on_c, 0, 58, 0
2, 58230, Note_on_c, 0, 58, 101
2, 58230, Note_on_c, 0, 62, 101
2, 58230, Note_on_c, 0, 67, 101
2, 58277, Note_on_c, 0, 50, 0
2, 58320, Note_on_c, 0, 62, 0
2, 58320, Note_on_c, 0, 58, 0
2, 58320, Note_on_c, 0, 46, 0
2, 58320, Note_on_c, 0, 67, 0
2, 58320, Note_on_c, 0, 57, 116
2, 58320, Note_on_c, 0, 62, 116
2, 58320, Note_on_c, 0, 67, 116
2, 58320, Note_on_c, 0, 69, 116
2, 58320, Note_on_c, 0, 26, 92
2, 58320, Note_on_c, 0, 38, 92
2, 58438, Note_on_c, 0, 69, 0
2, 58438, Note_on_c, 0, 67, 0
2, 58438, Note_on_c, 0, 62, 0
2, 58438, Note_on_c, 0, 57, 0
2, 58455, Note_on_c, 0, 57, 101
2, 58455, Note_on_c, 0, 62, 101
2, 58455, Note_on_c, 0, 67, 101
2, 58455, Note_on_c, 0, 69, 101
2, 58500, Note_on_c, 0, 69, 0
2, 58500, Note_on_c, 0, 62, 0
2, 58500, Note_on_c, 0, 57, 0
2, 58500, Note_on_c, 0, 67, 0
2, 58500, Note_on_c, 0, 57, 112
2, 58500, Note_on_c, 0, 62, 112
2, 58500, Note_on_c, 0, 67, 112
2, 58500, Note_on_c, 0, 69, 112
2, 58545, Note_on_c, 0, 57, 99
2, 58590, Note_on_c, 0, 57, 0
2, 58590, Note_on_c, 0, 56, 103
2, 58635, Note_on_c, 0, 56, 0
2, 58635, Note_on_c, 0, 57, 110
2, 58680, Note_on_c, 0, 57, 0
2, 58680, Note_on_c, 0, 55, 108
2, 58770, Note_on_c, 0, 57, 0
2, 58770, Note_on_c, 0, 62, 0
2, 58770, Note_on_c, 0, 67, 0
2, 58770, Note_on_c, 0, 69, 0
2, 58770, Note_on_c, 0, 57, 106
2, 58770, Note_on_c, 0, 62, 106
2, 58770, Note_on_c, 0, 67, 106
2, 58770, Note_on_c, 0, 69, 106
2, 58800, Note_on_c, 0, 55, 0
2, 58800, Note_on_c, 0, 54, 104
2, 58860, Note_on_c, 0, 54, 0
2, 58860, Note_on_c, 0, 53, 108
2, 58919, Note_on_c, 0, 53, 0
2, 58919, Note_on_c, 0, 52, 106
2, 58928, Note_on_c, 0, 69, 0
2, 58928, Note_on_c, 0, 57, 0
2, 58928, Note_on_c, 0, 62, 0
2, 58928, Note_on_c, 0, 67, 0
2, 58950, Note_on_c, 0, 57, 95
2, 58950, Note_on_c, 0, 62, 95
2, 58950, Note_on_c, 0, 67, 95
2, 58950, Note_on_c, 0, 69, 95
2, 58980, Note_on_c, 0, 52, 0
2, 58980, Note_on_c, 0, 51, 106
2, 59040, Note_on_c, 0, 51, 0
2, 59040, Note_on_c, 0, 26, 0
2, 59040, Note_on_c, 0, 38, 0
2, 59040, Note_on_c, 0, 50, 108
2, 59040, Note_on_c, 0, 50, 119
2, 59099, Note_on_c, 0, 50, 0
2, 59099, Note_on_c, 0, 48, 105
2, 59130, Note_on_c, 0, 69, 0
2, 59130, Note_on_c, 0, 57, 0
2, 59130, Note_on_c, 0, 67, 0
2, 59130, Note_on_c, 0, 62, 0
2, 59130, Note_on_c, 0, 57, 100
2, 59130, Note_on_c, 0, 62, 100
2, 59130, Note_on_c, 0, 65, 100
2, 59130, Note_on_c, 0, 69, 100
2, 59160, Note_on_c, 0, 48, 0
2, 59160, Note_on_c, 0, 46, 106
2, 59220, Note_on_c, 0, 46, 0
2, 59220, Note_on_c, 0, 69, 0
2, 59220, Note_on_c, 0, 62, 0
2, 59220, Note_on_c, 0, 57, 0
2, 59220, Note_on_c, 0, 65, 0
2, 59220, Note_on_c, 0, 57, 95
2, 59220, Note_on_c, 0, 62, 95
2, 59220, Note_on_c, 0, 65, 95
2, 59220, Note_on_c, 0, 69, 95
2, 59220, Note_on_c, 0, 45, 105
2, 59310, Note_on_c, 0, 69, 0
2, 59310, Note_on_c, 0, 62, 0
2, 59310, Note_on_c, 0, 57, 0
2, 59310, Note_on_c, 0, 65, 0
2, 59310, Note_on_c, 0, 57, 103
2, 59310, Note_on_c, 0, 62, 103
2, 59310, Note_on_c, 0, 65, 103
2, 59310, Note_on_c, 0, 69, 103
2, 59357, Note_on_c, 0, 50, 0
2, 59400, Note_on_c, 0, 65, 0
2, 59400, Note_on_c, 0, 45, 0
2, 59400, Note_on_c, 0, 57, 0
2, 59400, Note_on_c, 0, 62, 0
2, 59400, Note_on_c, 0, 69, 0
2, 59400, Note_on_c, 0, 57, 112
2, 59400, Note_on_c, 0, 62, 112
2, 59400, Note_on_c, 0, 67, 112
2, 59400, Note_on_c, 0, 69, 112
2, 59400, Note_on_c, 0, 26, 85
2, 59400, Note_on_c, 0, 38, 85
2, 59518, Note_on_c, 0, 69, 0
2, 59518, Note_on_c, 0, 67, 0
2, 59518, Note_on_c, 0, 62, 0
2, 59518, Note_on_c, 0, 57, 0
2, 59535, Note_on_c, 0, 57, 104
2, 59535, Note_on_c, 0, 62, 104
2, 59535, Note_on_c, 0, 67, 104
2, 59535, Note_on_c, 0, 69, 104
2, 59580, Note_on_c, 0, 69, 0
2, 59580, Note_on_c, 0, 62, 0
2, 59580, Note_on_c, 0, 57, 0
2, 59580, Note_on_c, 0, 67, 0
2, 59580, Note_on_c, 0, 57, 111
2, 59580, Note_on_c, 0, 62, 111
2, 59580, Note_on_c, 0, 67, 111
2, 59580, Note_on_c, 0, 69, 111
2, 59625, Note_on_c, 0, 57, 99
2, 59670, Note_on_c, 0, 57, 0
2, 59670, Note_on_c, 0, 56, 109
2, 59715, Note_on_c, 0, 56, 0
2, 59715, Note_on_c, 0, 57, 116
2, 59760, Note_on_c, 0, 57, 0
2, 59760, Note_on_c, 0, 55, 107
2, 59850, Note_on_c, 0, 57, 0
2, 59850, Note_on_c, 0, 62, 0
2, 59850, Note_on_c, 0, 67, 0
2, 59850, Note_on_c, 0, 69, 0
2, 59850, Note_on_c, 0, 57, 111
2, 59850, Note_on_c, 0, 62, 111
2, 59850, Note_on_c, 0, 67, 111
2, 59850, Note_on_c, 0, 69, 111
2, 59880, Note_on_c, 0, 55, 0
2, 59880, Note_on_c, 0, 54, 110
2, 59940, Note_on_c, 0, 54, 0
2, 59940, Note_on_c, 0, 53, 108
2, 59999, Note_on_c, 0, 53, 0
2, 59999, Note_on_c, 0, 52, 108
2, 60008, Note_on_c, 0, 69, 0
2, 60008, Note_on_c, 0, 57, 0
2, 60008, Note_on_c, 0, 62, 0
2, 60008, Note_on_c, 0, 67, 0
2, 60030, Note_on_c, 0, 57, 97
2, 60030, Note_on_c, 0, 62, 97
2, 60030, Note_on_c, 0, 67, 97
2, 60030, Note_on_c, 0, 69, 97
2, 60060, Note_on_c, 0, 52, 0
2, 60060, Note_on_c, 0, 51, 106
2, 60120, Note_on_c, 0, 51, 0
2, 60120, Note_on_c, 0, 26, 0
2, 60120, Note_on_c, 0, 38, 0
2, 60120, Note_on_c, 0, 50, 112
2, 60120, Note_on_c, 0, 50, 121
2, 60179, Note_on_c, 0, 50, 0
2, 60179, Note_on_c, 0, 48, 101
2, 60210, Note_on_c, 0, 69, 0
2, 60210, Note_on_c, 0, 57, 0
2, 60210, Note_on_c, 0, 67, 0
2, 60210, Note_on_c, 0, 62, 0
2, 60210, Note_on_c, 0, 57, 96
2, 60210, Note_on_c, 0, 62, 96
2, 60210, Note_on_c, 0, 65, 96
2, 60210, Note_on_c, 0, 69, 96
2, 60240, Note_on_c, 0, 48, 0
2, 60240, Note_on_c, 0, 46, 110
2, 60300, Note_on_c, 0, 46, 0
2, 60300, Note_on_c, 0, 69, 0
2, 60300, Note_on_c, 0, 62, 0
2, 60300, Note_on_c, 0, 57, 0
2, 60300, Note_on_c, 0, 65, 0
2, 60300, Note_on_c, 0, 57, 99
2, 60300, Note_on_c, 0, 62, 99
2, 60300, Note_on_c, 0, 65, 99
2, 60300, Note_on_c, 0, 69, 99
2, 60300, Note_on_c, 0, 45, 109
2, 60390, Note_on_c, 0, 69, 0
2, 60390, Note_on_c, 0, 62, 0
2, 60390, Note_on_c, 0, 57, 0
2, 60390, Note_on_c, 0, 65, 0
2, 60390, Note_on_c, 0, 57, 99
2, 60390, Note_on_c, 0, 62, 99
2, 60390, Note_on_c, 0, 65, 99
2, 60390, Note_on_c, 0, 69, 99
2, 60437, Note_on_c, 0, 50, 0
2, 60480, Note_on_c, 0, 65, 0
2, 60480, Note_on_c, 0, 45, 0
2, 60480, Note_on_c, 0, 57, 0
2, 60480, Note_on_c, 0, 62, 0
2, 60480, Note_on_c, 0, 69, 0
2, 60480, Note_on_c, 0, 62, 55
2, 60480, Note_on_c, 0, 67, 78
2, 60480, Note_on_c, 0, 69, 78
2, 60480, Note_on_c, 0, 74, 78
2, 60480, Note_on_c, 0, 62, 89
2, 60480, Note_on_c, 0, 55, 118
2, 60480, Note_on_c, 0, 57, 118
2, 60598, Note_on_c, 0, 57, 0
2, 60598, Note_on_c, 0, 55, 0
2, 60598, Note_on_c, 0, 69, 0
2, 60598, Note_on_c, 0, 67, 0
2, 60598, Note_on_c, 0, 74, 0
2, 60615, Note_on_c, 0, 67, 60
2, 60615, Note_on_c, 0, 69, 60
2, 60615, Note_on_c, 0, 74, 60
2, 60615, Note_on_c, 0, 55, 97
2, 60615, Note_on_c, 0, 57, 97
2, 60660, Note_on_c, 0, 57, 0
2, 60660, Note_on_c, 0, 55, 0
2, 60660, Note_on_c, 0, 69, 0
2, 60660, Note_on_c, 0, 67, 0
2, 60660, Note_on_c, 0, 74, 0
2, 60660, Note_on_c, 0, 67, 61
2, 60660, Note_on_c, 0, 69, 61
2, 60660, Note_on_c, 0, 74, 61
2, 60660, Note_on_c, 0, 55, 98
2, 60660, Note_on_c, 0, 57, 98
2, 60797, Note_on_c, 0, 62, 0
2, 60840, Note_on_c, 0, 62, 0
2, 60840, Note_on_c, 0, 64, 61
2, 60840, Note_on_c, 0, 64, 63
2, 60975, Note_on_c, 0, 55, 0
2, 60975, Note_on_c, 0, 57, 0
2, 60975, Note_on_c, 0, 69, 0
2, 60975, Note_on_c, 0, 67, 0
2, 60975, Note_on_c, 0, 74, 0
2, 60975, Note_on_c, 0, 68, 65
2, 60975, Note_on_c, 0, 70, 65
2, 60975, Note_on_c, 0, 74, 65
2, 60975, Note_on_c, 0, 56, 102
2, 60975, Note_on_c, 0, 58, 102
2, 60975, Note_on_c, 0, 62, 102
2, 61020, Note_on_c, 0, 62, 0
2, 61020, Note_on_c, 0, 68, 0
2, 61020, Note_on_c, 0, 58, 0
2, 61020, Note_on_c, 0, 70, 0
2, 61020, Note_on_c, 0, 56, 0
2, 61020, Note_on_c, 0, 74, 0
2, 61020, Note_on_c, 0, 68, 66
2, 61020, Note_on_c, 0, 70, 66
2, 61020, Note_on_c, 0, 74, 66
2, 61020, Note_on_c, 0, 56, 103
2, 61020, Note_on_c, 0, 58, 103
2, 61020, Note_on_c, 0, 62, 103
2, 61157, Note_on_c, 0, 64, 0
2, 61200, Note_on_c, 0, 64, 0
2, 61200, Note_on_c, 0, 65, 67
2, 61200, Note_on_c, 0, 65, 68
2, 61290, Note_on_c, 0, 68, 0
2, 61290, Note_on_c, 0, 58, 0
2, 61290, Note_on_c, 0, 62, 0
2, 61290, Note_on_c, 0, 74, 0
2, 61290, Note_on_c, 0, 70, 0
2, 61290, Note_on_c, 0, 56, 0
2, 61290, Note_on_c, 0, 69, 70
2, 61290, Note_on_c, 0, 71, 70
2, 61290, Note_on_c, 0, 74, 70
2, 61290, Note_on_c, 0, 57, 106
2, 61290, Note_on_c, 0, 59, 106
2, 61290, Note_on_c, 0, 62, 106
2, 61380, Note_on_c, 0, 62, 0
2, 61380, Note_on_c, 0, 69, 0
2, 61380, Note_on_c, 0, 59, 0
2, 61380, Note_on_c, 0, 71, 0
2, 61380, Note_on_c, 0, 57, 0
2, 61380, Note_on_c, 0, 65, 0
2, 61380, Note_on_c, 0, 74, 0
2, 61380, Note_on_c, 0, 62, 56
2, 61380, Note_on_c, 0, 69, 71
2, 61380, Note_on_c, 0, 71, 71
2, 61380, Note_on_c, 0, 74, 71
2, 61380, Note_on_c, 0, 57, 108
2, 61380, Note_on_c, 0, 59, 108
2, 61380, Note_on_c, 0, 62, 108
2, 61470, Note_on_c, 0, 59, 0
2, 61470, Note_on_c, 0, 57, 0
2, 61470, Note_on_c, 0, 69, 0
2, 61470, Note_on_c, 0, 71, 0
2, 61470, Note_on_c, 0, 62, 0
2, 61470, Note_on_c, 0, 74, 0
2, 61470, Note_on_c, 0, 69, 72
2, 61470, Note_on_c, 0, 71, 72
2, 61470, Note_on_c, 0, 74, 72
2, 61470, Note_on_c, 0, 57, 109
2, 61470, Note_on_c, 0, 59, 109
2, 61470, Note_on_c, 0, 62, 109
2, 61517, Note_on_c, 0, 65, 0
2, 61560, Note_on_c, 0, 71, 0
2, 61560, Note_on_c, 0, 62, 0
2, 61560, Note_on_c, 0, 74, 0
2, 61560, Note_on_c, 0, 62, 0
2, 61560, Note_on_c, 0, 69, 0
2, 61560, Note_on_c, 0, 59, 0
2, 61560, Note_on_c, 0, 57, 0
2, 61560, Note_on_c, 0, 74, 77
2, 61560, Note_on_c, 0, 74, 98
2, 61560, Note_on_c, 0, 63, 126
2, 61560, Note_on_c, 0, 66, 126
2, 61560, Note_on_c, 0, 70, 126
2, 61560, Note_on_c, 0, 39, 84
2, 61560, Note_on_c, 0, 46, 84
2, 61560, Note_on_c, 0, 54, 84
2, 61680, Note_on_c, 0, 54, 0
2, 61680, Note_on_c, 0, 63, 0
2, 61680, Note_on_c, 0, 46, 0
2, 61680, Note_on_c, 0, 66, 0
2, 61680, Note_on_c, 0, 39, 0
2, 61680, Note_on_c, 0, 70, 0
2, 61680, Note_on_c, 0, 62, 126
2, 61680, Note_on_c, 0, 65, 126
2, 61680, Note_on_c, 0, 69, 126
2, 61680, Note_on_c, 0, 38, 93
2, 61680, Note_on_c, 0, 45, 93
2, 61680, Note_on_c, 0, 53, 93
2, 61799, Note_on_c, 0, 45, 0
2, 61799, Note_on_c, 0, 38, 0
2, 61799, Note_on_c, 0, 62, 0
2, 61799, Note_on_c, 0, 65, 0
2, 61799, Note_on_c, 0, 53, 0
2, 61799, Note_on_c, 0, 69, 0
2, 61799, Note_on_c, 0, 61, 122
2, 61799, Note_on_c, 0, 64, 122
2, 61799, Note_on_c, 0, 68, 122
2, 61799, Note_on_c, 0, 37, 91
2, 61799, Note_on_c, 0, 44, 91
2, 61799, Note_on_c, 0, 52, 91
2, 61920, Note_on_c, 0, 52, 0
2, 61920, Note_on_c, 0, 61, 0
2, 61920, Note_on_c, 0, 74, 0
2, 61920, Note_on_c, 0, 64, 0
2, 61920, Note_on_c, 0, 44, 0
2, 61920, Note_on_c, 0, 74, 0
2, 61920, Note_on_c, 0, 37, 0
2, 61920, Note_on_c, 0, 68, 0
2, 61920, Note_on_c, 0, 72, 60
2, 61920, Note_on_c, 0, 72, 89
2, 61920, Note_on_c, 0, 60, 122
2, 61920, Note_on_c, 0, 63, 122
2, 61920, Note_on_c, 0, 67, 122
2, 61920, Note_on_c, 0, 36, 91
2, 61920, Note_on_c, 0, 43, 91
2, 61920, Note_on_c, 0, 51, 91
2, 62040, Note_on_c, 0, 51, 0
2, 62040, Note_on_c, 0, 60, 0
2, 62040, Note_on_c, 0, 43, 0
2, 62040, Note_on_c, 0, 63, 0
2, 62040, Note_on_c, 0, 36, 0
2, 62040, Note_on_c, 0, 67, 0
2, 62040, Note_on_c, 0, 59, 121
2, 62040, Note_on_c, 0, 62, 121
2, 62040, Note_on_c, 0, 66, 121
2, 62040, Note_on_c, 0, 34, 91
2, 62040, Note_on_c, 0, 42, 91
2, 62040, Note_on_c, 0, 50, 91
2, 62100, Note_on_c, 0, 72, 0
2, 62100, Note_on_c, 0, 72, 0
2, 62100, Note_on_c, 0, 69, 59
2, 62100, Note_on_c, 0, 69, 90
2, 62159, Note_on_c, 0, 50, 0
2, 62159, Note_on_c, 0, 42, 0
2, 62159, Note_on_c, 0, 59, 0
2, 62159, Note_on_c, 0, 34, 0
2, 62159, Note_on_c, 0, 66, 0
2, 62159, Note_on_c, 0, 62, 0
2, 62159, Note_on_c, 0, 58, 123
2, 62159, Note_on_c, 0, 61, 123
2, 62159, Note_on_c, 0, 65, 123
2, 62159, Note_on_c, 0, 34, 96
2, 62159, Note_on_c, 0, 41, 96
2, 62159, Note_on_c, 0, 49, 96
2, 62280, Note_on_c, 0, 69, 0
2, 62280, Note_on_c, 0, 69, 0
2, 62280, Note_on_c, 0, 70, 62
2, 62280, Note_on_c, 0, 70, 97
2, 62400, Note_on_c, 0, 49, 0
2, 62400, Note_on_c, 0, 41, 0
2, 62400, Note_on_c, 0, 34, 0
2, 62400, Note_on_c, 0, 33, 89
2, 62400, Note_on_c, 0, 45, 89
2, 62460, Note_on_c, 0, 70, 0
2, 62460, Note_on_c, 0, 70, 0
2, 62460, Note_on_c, 0, 67, 51
2, 62460, Note_on_c, 0, 67, 88
2, 62519, Note_on_c, 0, 45, 0
2, 62519, Note_on_c, 0, 33, 0
2, 62519, Note_on_c, 0, 32, 95
2, 62519, Note_on_c, 0, 44, 95
2, 62640, Note_on_c, 0, 44, 0
2, 62640, Note_on_c, 0, 65, 0
2, 62640, Note_on_c, 0, 61, 0
2, 62640, Note_on_c, 0, 32, 0
2, 62640, Note_on_c, 0, 58, 0
2, 62640, Note_on_c, 0, 67, 0
2, 62640, Note_on_c, 0, 67, 0
2, 62640, Note_on_c, 0, 65, 60
2, 62640, Note_on_c, 0, 58, 89
2, 62640, Note_on_c, 0, 61, 89
2, 62640, Note_on_c, 0, 65, 89
2, 62640, Note_on_c, 0, 31, 97
2, 62640, Note_on_c, 0, 43, 97
2, 62760, Note_on_c, 0, 61, 0
2, 62760, Note_on_c, 0, 58, 0
2, 62760, Note_on_c, 0, 65, 0
2, 62760, Note_on_c, 0, 73, 106
2, 62760, Note_on_c, 0, 77, 106
2, 62879, Note_on_c, 0, 77, 0
2, 62879, Note_on_c, 0, 73, 0
2, 62879, Note_on_c, 0, 70, 89
2, 62879, Note_on_c, 0, 78, 89
2, 63000, Note_on_c, 0, 78, 0
2, 63000, Note_on_c, 0, 31, 0
2, 63000, Note_on_c, 0, 43, 0
2, 63000, Note_on_c, 0, 70, 0
2, 63000, Note_on_c, 0, 73, 83
2, 63000, Note_on_c, 0, 78, 83
2, 63000, Note_on_c, 0, 58, 83
2, 63000, Note_on_c, 0, 61, 83
2, 63000, Note_on_c, 0, 65, 83
2, 63090, Note_on_c, 0, 78, 0
2, 63090, Note_on_c, 0, 73, 0
2, 63090, Note_on_c, 0, 77, 82
2, 63090, Note_on_c, 0, 80, 82
2, 63180, Note_on_c, 0, 80, 0
2, 63180, Note_on_c, 0, 77, 0
2, 63180, Note_on_c, 0, 78, 80
2, 63180, Note_on_c, 0, 81, 80
2, 63270, Note_on_c, 0, 81, 0
2, 63270, Note_on_c, 0, 78, 0
2, 63270, Note_on_c, 0, 79, 79
2, 63270, Note_on_c, 0, 82, 79
2, 63360, Note_on_c, 0, 82, 0
2, 63360, Note_on_c, 0, 65, 0
2, 63360, Note_on_c, 0, 65, 0
2, 63360, Note_on_c, 0, 58, 0
2, 63360, Note_on_c, 0, 61, 0
2, 63360, Note_on_c, 0, 79, 0
2, 63360, Note_on_c, 0, 67, 66
2, 63360, Note_on_c, 0, 81, 77
2, 63360, Note_on_c, 0, 85, 77
2, 63360, Note_on_c, 0, 55, 77
2, 63360, Note_on_c, 0, 58, 77
2, 63360, Note_on_c, 0, 64, 77
2, 63411, Note_on_c, 0, 85, 0
2, 63411, Note_on_c, 0, 81, 0
2, 63411, Note_on_c, 0, 82, 76
2, 63411, Note_on_c, 0, 86, 76
2, 63463, Note_on_c, 0, 86, 0
2, 63463, Note_on_c, 0, 82, 0
2, 63463, Note_on_c, 0, 83, 75
2, 63463, Note_on_c, 0, 87, 75
2, 63513, Note_on_c, 0, 87, 0
2, 63513, Note_on_c, 0, 83, 0
2, 63513, Note_on_c, 0, 84, 74
2, 63513, Note_on_c, 0, 88, 74
2, 63540, Note_on_c, 0, 58, 0
2, 63540, Note_on_c, 0, 55, 0
2, 63540, Note_on_c, 0, 64, 0
2, 63540, Note_on_c, 0, 29, 74
2, 63540, Note_on_c, 0, 41, 74
2, 63566, Note_on_c, 0, 88, 0
2, 63566, Note_on_c, 0, 84, 0
2, 63566, Note_on_c, 0, 85, 73
2, 63566, Note_on_c, 0, 89, 73
2, 63616, Note_on_c, 0, 89, 0
2, 63616, Note_on_c, 0, 85, 0
2, 63616, Note_on_c, 0, 87, 72
2, 63616, Note_on_c, 0, 91, 72
2, 63668, Note_on_c, 0, 91, 0
2, 63668, Note_on_c, 0, 87, 0
2, 63668, Note_on_c, 0, 88, 72
2, 63668, Note_on_c, 0, 92, 72
2, 63720, Note_on_c, 0, 92, 0
2, 63720, Note_on_c, 0, 41, 0
2, 63720, Note_on_c, 0, 29, 0
2, 63720, Note_on_c, 0, 67, 0
2, 63720, Note_on_c, 0, 88, 0
2, 63720, Note_on_c, 0, 62, 69
2, 63720, Note_on_c, 0, 74, 69
2, 63720, Note_on_c, 0, 89, 65
2, 63720, Note_on_c, 0, 93, 65
2, 63720, Note_on_c, 0, 38, 55
2, 63720, Note_on_c, 0, 26, 85
2, 63720, Note_on_c, 0, 38, 85
2, 63840, Note_on_c, 0, 38, 0
2, 63840, Note_on_c, 0, 89, 0
2, 63840, Note_on_c, 0, 93, 0
2, 63840, Note_on_c, 0, 88, 73
2, 63840, Note_on_c, 0, 92, 73
2, 63840, Note_on_c, 0, 97, 73
2, 63840, Note_on_c, 0, 40, 63
2, 63959, Note_on_c, 0, 40, 0
2, 63959, Note_on_c, 0, 97, 0
2, 63959, Note_on_c, 0, 92, 0
2, 63959, Note_on_c, 0, 88, 0
2, 63959, Note_on_c, 0, 87, 49
2, 63959, Note_on_c, 0, 91, 49
2, 63959, Note_on_c, 0, 43, 67
2, 64080, Note_on_c, 0, 43, 0
2, 64080, Note_on_c, 0, 91, 0
2, 64080, Note_on_c, 0, 87, 0
2, 64080, Note_on_c, 0, 86, 66
2, 64080, Note_on_c, 0, 90, 66
2, 64080, Note_on_c, 0, 94, 66
2, 64080, Note_on_c, 0, 44, 61
2, 64200, Note_on_c, 0, 44, 0
2, 64200, Note_on_c, 0, 94, 0
2, 64200, Note_on_c, 0, 90, 0
2, 64200, Note_on_c, 0, 86, 0
2, 64200, Note_on_c, 0, 85, 50
2, 64200, Note_on_c, 0, 88, 50
2, 64200, Note_on_c, 0, 45, 61
2, 64319, Note_on_c, 0, 45, 0
2, 64319, Note_on_c, 0, 88, 0
2, 64319, Note_on_c, 0, 85, 0
2, 64319, Note_on_c, 0, 84, 69
2, 64319, Note_on_c, 0, 89, 69
2, 64319, Note_on_c, 0, 93, 69
2, 64319, Note_on_c, 0, 50, 65
2, 64440, Note_on_c, 0, 93, 0
2, 64440, Note_on_c, 0, 89, 0
2, 64440, Note_on_c, 0, 84, 0
2, 64440, Note_on_c, 0, 83, 53
2, 64440, Note_on_c, 0, 86, 53
2, 64560, Note_on_c, 0, 86, 0
2, 64560, Note_on_c, 0, 83, 0
2, 64560, Note_on_c, 0, 50, 0
2, 64560, Note_on_c, 0, 82, 64
2, 64560, Note_on_c, 0, 85, 64
2, 64560, Note_on_c, 0, 89, 64
2, 64560, Note_on_c, 0, 52, 60
2, 64679, Note_on_c, 0, 52, 0
2, 64679, Note_on_c, 0, 89, 0
2, 64679, Note_on_c, 0, 85, 0
2, 64679, Note_on_c, 0, 74, 0
2, 64679, Note_on_c, 0, 62, 0
2, 64679, Note_on_c, 0, 82, 0
2, 64679, Note_on_c, 0, 62, 58
2, 64679, Note_on_c, 0, 74, 58
2, 64679, Note_on_c, 0, 81, 54
2, 64679, Note_on_c, 0, 84, 54
2, 64679, Note_on_c, 0, 53, 62
2, 64740, Note_on_c, 0, 74, 0
2, 64740, Note_on_c, 0, 62, 0
2, 64740, Note_on_c, 0, 62, 60
2, 64740, Note_on_c, 0, 74, 60
2, 64800, Note_on_c, 0, 74, 0
2, 64800, Note_on_c, 0, 62, 0
2, 64800, Note_on_c, 0, 84, 0
2, 64800, Note_on_c, 0, 53, 0
2, 64800, Note_on_c, 0, 81, 0
2, 64800, Note_on_c, 0, 62, 63
2, 64800, Note_on_c, 0, 74, 63
2, 64800, Note_on_c, 0, 80, 65
2, 64800, Note_on_c, 0, 84, 65
2, 64800, Note_on_c, 0, 87, 65
2, 64800, Note_on_c, 0, 48, 62
2, 64800, Note_on_c, 0, 51, 62
2, 64800, Note_on_c, 0, 56, 62
2, 64920, Note_on_c, 0, 56, 0
2, 64920, Note_on_c, 0, 87, 0
2, 64920, Note_on_c, 0, 51, 0
2, 64920, Note_on_c, 0, 84, 0
2, 64920, Note_on_c, 0, 48, 0
2, 64920, Note_on_c, 0, 80, 0
2, 64920, Note_on_c, 0, 79, 54
2, 64920, Note_on_c, 0, 83, 54
2, 64920, Note_on_c, 0, 47, 60
2, 64920, Note_on_c, 0, 50, 60
2, 64920, Note_on_c, 0, 55, 60
2, 65039, Note_on_c, 0, 55, 0
2, 65039, Note_on_c, 0, 50, 0
2, 65039, Note_on_c, 0, 83, 0
2, 65039, Note_on_c, 0, 47, 0
2, 65039, Note_on_c, 0, 79, 0
2, 65039, Note_on_c, 0, 78, 61
2, 65039, Note_on_c, 0, 82, 61
2, 65039, Note_on_c, 0, 86, 61
2, 65039, Note_on_c, 0, 46, 56
2, 65039, Note_on_c, 0, 50, 56
2, 65039, Note_on_c, 0, 54, 56
2, 65160, Note_on_c, 0, 54, 0
2, 65160, Note_on_c, 0, 86, 0
2, 65160, Note_on_c, 0, 50, 0
2, 65160, Note_on_c, 0, 82, 0
2, 65160, Note_on_c, 0, 46, 0
2, 65160, Note_on_c, 0, 78, 0
2, 65160, Note_on_c, 0, 79, 55
2, 65160, Note_on_c, 0, 81, 55
2, 65160, Note_on_c, 0, 52, 71
2, 65160, Note_on_c, 0, 57, 71
2, 65160, Note_on_c, 0, 61, 71
2, 65280, Note_on_c, 0, 61, 0
2, 65280, Note_on_c, 0, 57, 0
2, 65280, Note_on_c, 0, 81, 0
2, 65280, Note_on_c, 0, 52, 0
2, 65280, Note_on_c, 0, 79, 0
2, 65280, Note_on_c, 0, 77, 66
2, 65280, Note_on_c, 0, 80, 66
2, 65280, Note_on_c, 0, 84, 66
2, 65280, Note_on_c, 0, 51, 59
2, 65280, Note_on_c, 0, 56, 59
2, 65280, Note_on_c, 0, 60, 59
2, 65399, Note_on_c, 0, 60, 0
2, 65399, Note_on_c, 0, 84, 0
2, 65399, Note_on_c, 0, 56, 0
2, 65399, Note_on_c, 0, 80, 0
2, 65399, Note_on_c, 0, 51, 0
2, 65399, Note_on_c, 0, 77, 0
2, 65399, Note_on_c, 0, 76, 52
2, 65399, Note_on_c, 0, 79, 52
2, 65399, Note_on_c, 0, 50, 56
2, 65399, Note_on_c, 0, 55, 56
2, 65399, Note_on_c, 0, 59, 56
2, 65520, Note_on_c, 0, 59, 0
2, 65520, Note_on_c, 0, 55, 0
2, 65520, Note_on_c, 0, 79, 0
2, 65520, Note_on_c, 0, 50, 0
2, 65520, Note_on_c, 0, 76, 0
2, 65520, Note_on_c, 0, 75, 64
2, 65520, Note_on_c, 0, 78, 64
2, 65520, Note_on_c, 0, 82, 64
2, 65520, Note_on_c, 0, 54, 63
2, 65520, Note_on_c, 0, 58, 63
2, 65520, Note_on_c, 0, 63, 63
2, 65610, Note_on_c, 0, 63, 0
2, 65610, Note_on_c, 0, 58, 0
2, 65610, Note_on_c, 0, 54, 0
2, 65610, Note_on_c, 0, 53, 60
2, 65610, Note_on_c, 0, 57, 60
2, 65610, Note_on_c, 0, 62, 60
2, 65640, Note_on_c, 0, 78, 0
2, 65640, Note_on_c, 0, 82, 0
2, 65640, Note_on_c, 0, 75, 0
2, 65640, Note_on_c, 0, 74, 53
2, 65640, Note_on_c, 0, 77, 53
2, 65700, Note_on_c, 0, 57, 0
2, 65700, Note_on_c, 0, 53, 0
2, 65700, Note_on_c, 0, 62, 0
2, 65700, Note_on_c, 0, 52, 61
2, 65700, Note_on_c, 0, 55, 61
2, 65700, Note_on_c, 0, 61, 61
2, 65759, Note_on_c, 0, 77, 0
2, 65759, Note_on_c, 0, 74, 0
2, 65759, Note_on_c, 0, 74, 0
2, 65759, Note_on_c, 0, 62, 0
2, 65759, Note_on_c, 0, 62, 60
2, 65759, Note_on_c, 0, 74, 60
2, 65759, Note_on_c, 0, 72, 62
2, 65759, Note_on_c, 0, 75, 62
2, 65759, Note_on_c, 0, 80, 62
2, 65790, Note_on_c, 0, 52, 0
2, 65790, Note_on_c, 0, 55, 0
2, 65790, Note_on_c, 0, 61, 0
2, 65790, Note_on_c, 0, 51, 59
2, 65790, Note_on_c, 0, 54, 59
2, 65790, Note_on_c, 0, 60, 59
2, 65820, Note_on_c, 0, 74, 0
2, 65820, Note_on_c, 0, 62, 0
2, 65820, Note_on_c, 0, 62, 58
2, 65820, Note_on_c, 0, 74, 58
2, 65880, Note_on_c, 0, 74, 0
2, 65880, Note_on_c, 0, 60, 0
2, 65880, Note_on_c, 0, 54, 0
2, 65880, Note_on_c, 0, 75, 0
2, 65880, Note_on_c, 0, 38, 0
2, 65880, Note_on_c, 0, 26, 0
2, 65880, Note_on_c, 0, 62, 0
2, 65880, Note_on_c, 0, 80, 0
2, 65880, Note_on_c, 0, 72, 0
2, 65880, Note_on_c, 0, 51, 0
2, 65880, Note_on_c, 0, 62, 61
2, 65880, Note_on_c, 0, 74, 61
2, 65880, Note_on_c, 0, 82, 66
2, 65880, Note_on_c, 0, 86, 66
2, 65880, Note_on_c, 0, 38, 49
2, 65880, Note_on_c, 0, 26, 96
2, 65880, Note_on_c, 0, 38, 96
2, 66000, Note_on_c, 0, 38, 0
2, 66000, Note_on_c, 0, 82, 0
2, 66000, Note_on_c, 0, 86, 0
2, 66000, Note_on_c, 0, 81, 73
2, 66000, Note_on_c, 0, 85, 73
2, 66000, Note_on_c, 0, 90, 73
2, 66000, Note_on_c, 0, 45, 68
2, 66119, Note_on_c, 0, 45, 0
2, 66119, Note_on_c, 0, 90, 0
2, 66119, Note_on_c, 0, 85, 0
2, 66119, Note_on_c, 0, 81, 0
2, 66119, Note_on_c, 0, 80, 50
2, 66119, Note_on_c, 0, 84, 50
2, 66119, Note_on_c, 0, 46, 66
2, 66240, Note_on_c, 0, 46, 0
2, 66240, Note_on_c, 0, 84, 0
2, 66240, Note_on_c, 0, 80, 0
2, 66240, Note_on_c, 0, 79, 62
2, 66240, Note_on_c, 0, 83, 62
2, 66240, Note_on_c, 0, 88, 62
2, 66240, Note_on_c, 0, 49, 67
2, 66360, Note_on_c, 0, 49, 0
2, 66360, Note_on_c, 0, 88, 0
2, 66360, Note_on_c, 0, 83, 0
2, 66360, Note_on_c, 0, 79, 0
2, 66360, Note_on_c, 0, 78, 52
2, 66360, Note_on_c, 0, 82, 52
2, 66360, Note_on_c, 0, 50, 66
2, 66479, Note_on_c, 0, 50, 0
2, 66479, Note_on_c, 0, 82, 0
2, 66479, Note_on_c, 0, 78, 0
2, 66479, Note_on_c, 0, 77, 67
2, 66479, Note_on_c, 0, 81, 67
2, 66479, Note_on_c, 0, 86, 67
2, 66479, Note_on_c, 0, 53, 68
2, 66600, Note_on_c, 0, 86, 0
2, 66600, Note_on_c, 0, 81, 0
2, 66600, Note_on_c, 0, 77, 0
2, 66600, Note_on_c, 0, 53, 0
2, 66600, Note_on_c, 0, 76, 54
2, 66600, Note_on_c, 0, 79, 54
2, 66600, Note_on_c, 0, 55, 62
2, 66720, Note_on_c, 0, 55, 0
2, 66720, Note_on_c, 0, 79, 0
2, 66720, Note_on_c, 0, 76, 0
2, 66720, Note_on_c, 0, 75, 59
2, 66720, Note_on_c, 0, 78, 59
2, 66720, Note_on_c, 0, 82, 59
2, 66720, Note_on_c, 0, 56, 61
2, 66839, Note_on_c, 0, 56, 0
2, 66839, Note_on_c, 0, 82, 0
2, 66839, Note_on_c, 0, 78, 0
2, 66839, Note_on_c, 0, 74, 0
2, 66839, Note_on_c, 0, 62, 0
2, 66839, Note_on_c, 0, 75, 0
2, 66839, Note_on_c, 0, 62, 60
2, 66839, Note_on_c, 0, 74, 60
2, 66839, Note_on_c, 0, 74, 51
2, 66839, Note_on_c, 0, 77, 51
2, 66839, Note_on_c, 0, 57, 62
2, 66900, Note_on_c, 0, 74, 0
2, 66900, Note_on_c, 0, 62, 0
2, 66900, Note_on_c, 0, 62, 59
2, 66900, Note_on_c, 0, 74, 59
2, 66960, Note_on_c, 0, 74, 0
2, 66960, Note_on_c, 0, 62, 0
2, 66960, Note_on_c, 0, 77, 0
2, 66960, Note_on_c, 0, 38, 0
2, 66960, Note_on_c, 0, 26, 0
2, 66960, Note_on_c, 0, 57, 0
2, 66960, Note_on_c, 0, 74, 0
2, 66960, Note_on_c, 0, 62, 59
2, 66960, Note_on_c, 0, 74, 59
2, 66960, Note_on_c, 0, 73, 64
2, 66960, Note_on_c, 0, 76, 64
2, 66960, Note_on_c, 0, 81, 64
2, 66960, Note_on_c, 0, 52, 66
2, 66960, Note_on_c, 0, 55, 66
2, 66960, Note_on_c, 0, 61, 66
2, 67080, Note_on_c, 0, 61, 0
2, 67080, Note_on_c, 0, 73, 0
2, 67080, Note_on_c, 0, 55, 0
2, 67080, Note_on_c, 0, 76, 0
2, 67080, Note_on_c, 0, 52, 0
2, 67080, Note_on_c, 0, 81, 0
2, 67080, Note_on_c, 0, 72, 51
2, 67080, Note_on_c, 0, 75, 51
2, 67080, Note_on_c, 0, 51, 65
2, 67080, Note_on_c, 0, 54, 65
2, 67080, Note_on_c, 0, 60, 65
2, 67199, Note_on_c, 0, 60, 0
2, 67199, Note_on_c, 0, 54, 0
2, 67199, Note_on_c, 0, 75, 0
2, 67199, Note_on_c, 0, 72, 0
2, 67199, Note_on_c, 0, 51, 0
2, 67199, Note_on_c, 0, 71, 64
2, 67199, Note_on_c, 0, 74, 64
2, 67199, Note_on_c, 0, 79, 64
2, 67199, Note_on_c, 0, 50, 63
2, 67199, Note_on_c, 0, 54, 63
2, 67199, Note_on_c, 0, 59, 63
2, 67320, Note_on_c, 0, 59, 0
2, 67320, Note_on_c, 0, 74, 0
2, 67320, Note_on_c, 0, 54, 0
2, 67320, Note_on_c, 0, 71, 0
2, 67320, Note_on_c, 0, 50, 0
2, 67320, Note_on_c, 0, 79, 0
2, 67320, Note_on_c, 0, 70, 49
2, 67320, Note_on_c, 0, 73, 49
2, 67320, Note_on_c, 0, 58, 74
2, 67320, Note_on_c, 0, 61, 74
2, 67320, Note_on_c, 0, 66, 74
2, 67440, Note_on_c, 0, 66, 0
2, 67440, Note_on_c, 0, 61, 0
2, 67440, Note_on_c, 0, 73, 0
2, 67440, Note_on_c, 0, 70, 0
2, 67440, Note_on_c, 0, 58, 0
2, 67440, Note_on_c, 0, 69, 66
2, 67440, Note_on_c, 0, 72, 66
2, 67440, Note_on_c, 0, 77, 66
2, 67440, Note_on_c, 0, 57, 63
2, 67440, Note_on_c, 0, 60, 63
2, 67440, Note_on_c, 0, 65, 63
2, 67559, Note_on_c, 0, 65, 0
2, 67559, Note_on_c, 0, 69, 0
2, 67559, Note_on_c, 0, 60, 0
2, 67559, Note_on_c, 0, 72, 0
2, 67559, Note_on_c, 0, 57, 0
2, 67559, Note_on_c, 0, 77, 0
2, 67559, Note_on_c, 0, 68, 52
2, 67559, Note_on_c, 0, 71, 52
2, 67559, Note_on_c, 0, 56, 60
2, 67559, Note_on_c, 0, 59, 60
2, 67559, Note_on_c, 0, 64, 60
2, 67680, Note_on_c, 0, 64, 0
2, 67680, Note_on_c, 0, 59, 0
2, 67680, Note_on_c, 0, 71, 0
2, 67680, Note_on_c, 0, 68, 0
2, 67680, Note_on_c, 0, 56, 0
2, 67680, Note_on_c, 0, 73, 63
2, 67680, Note_on_c, 0, 67, 66
2, 67680, Note_on_c, 0, 70, 66
2, 67680, Note_on_c, 0, 61, 58
2, 67770, Note_on_c, 0, 61, 0
2, 67770, Note_on_c, 0, 67, 0
2, 67770, Note_on_c, 0, 70, 0
2, 67770, Note_on_c, 0, 65, 60
2, 67770, Note_on_c, 0, 69, 60
2, 67770, Note_on_c, 0, 60, 54
2, 67860, Note_on_c, 0, 60, 0
2, 67860, Note_on_c, 0, 65, 0
2, 67860, Note_on_c, 0, 73, 0
2, 67860, Note_on_c, 0, 69, 0
2, 67860, Note_on_c, 0, 64, 57
2, 67860, Note_on_c, 0, 68, 57
2, 67860, Note_on_c, 0, 59, 55
2, 67950, Note_on_c, 0, 59, 0
2, 67950, Note_on_c, 0, 64, 0
2, 67950, Note_on_c, 0, 68, 0
2, 67950, Note_on_c, 0, 63, 57
2, 67950, Note_on_c, 0, 67, 57
2, 67950, Note_on_c, 0, 58, 53
2, 68040, Note_on_c, 0, 58, 0
2, 68040, Note_on_c, 0, 62, 0
2, 68040, Note_on_c, 0, 74, 0
2, 68040, Note_on_c, 0, 63, 0
2, 68040, Note_on_c, 0, 67, 0
2, 68040, Note_on_c, 0, 62, 74
2, 68040, Note_on_c, 0, 54, 83
2, 68040, Note_on_c, 0, 58, 83
2, 68040, Note_on_c, 0, 38, 66
2, 68040, Note_on_c, 0, 46, 66
2, 68040, Note_on_c, 0, 50, 66
2, 68160, Note_on_c, 0, 50, 0
2, 68160, Note_on_c, 0, 38, 0
2, 68160, Note_on_c, 0, 58, 0
2, 68160, Note_on_c, 0, 54, 0
2, 68160, Note_on_c, 0, 46, 0
2, 68160, Note_on_c, 0, 53, 82
2, 68160, Note_on_c, 0, 57, 82
2, 68160, Note_on_c, 0, 37, 62
2, 68160, Note_on_c, 0, 45, 62
2, 68160, Note_on_c, 0, 49, 62
2, 68279, Note_on_c, 0, 49, 0
2, 68279, Note_on_c, 0, 37, 0
2, 68279, Note_on_c, 0, 57, 0
2, 68279, Note_on_c, 0, 53, 0
2, 68279, Note_on_c, 0, 45, 0
2, 68279, Note_on_c, 0, 52, 80
2, 68279, Note_on_c, 0, 56, 80
2, 68279, Note_on_c, 0, 36, 61
2, 68279, Note_on_c, 0, 44, 61
2, 68279, Note_on_c, 0, 48, 61
2, 68400, Note_on_c, 0, 48, 0
2, 68400, Note_on_c, 0, 36, 0
2, 68400, Note_on_c, 0, 56, 0
2, 68400, Note_on_c, 0, 52, 0
2, 68400, Note_on_c, 0, 44, 0
2, 68400, Note_on_c, 0, 51, 84
2, 68400, Note_on_c, 0, 55, 84
2, 68400, Note_on_c, 0, 35, 57
2, 68400, Note_on_c, 0, 43, 57
2, 68400, Note_on_c, 0, 47, 57
2, 68520, Note_on_c, 0, 47, 0
2, 68520, Note_on_c, 0, 35, 0
2, 68520, Note_on_c, 0, 55, 0
2, 68520, Note_on_c, 0, 51, 0
2, 68520, Note_on_c, 0, 43, 0
2, 68520, Note_on_c, 0, 50, 81
2, 68520, Note_on_c, 0, 54, 81
2, 68520, Note_on_c, 0, 34, 59
2, 68520, Note_on_c, 0, 42, 59
2, 68520, Note_on_c, 0, 46, 59
2, 68639, Note_on_c, 0, 46, 0
2, 68639, Note_on_c, 0, 34, 0
2, 68639, Note_on_c, 0, 54, 0
2, 68639, Note_on_c, 0, 50, 0
2, 68639, Note_on_c, 0, 42, 0
2, 68639, Note_on_c, 0, 50, 82
2, 68639, Note_on_c, 0, 53, 82
2, 68639, Note_on_c, 0, 33, 65
2, 68639, Note_on_c, 0, 41, 65
2, 68639, Note_on_c, 0, 45, 65
2, 68760, Note_on_c, 0, 45, 0
2, 68760, Note_on_c, 0, 33, 0
2, 68760, Note_on_c, 0, 53, 0
2, 68760, Note_on_c, 0, 62, 0
2, 68760, Note_on_c, 0, 50, 0
2, 68760, Note_on_c, 0, 41, 0
2, 68760, Note_on_c, 0, 64, 89
2, 68760, Note_on_c, 0, 58, 62
2, 68760, Note_on_c, 0, 50, 80
2, 68760, Note_on_c, 0, 51, 80
2, 68760, Note_on_c, 0, 32, 59
2, 68760, Note_on_c, 0, 40, 59
2, 68760, Note_on_c, 0, 44, 59
2, 68940, Note_on_c, 0, 44, 0
2, 68940, Note_on_c, 0, 40, 0
2, 68940, Note_on_c, 0, 32, 0
2, 68970, Note_on_c, 0, 58, 0
2, 68999, Note_on_c, 0, 59, 62
2, 69120, Note_on_c, 0, 59, 0
2, 69120, Note_on_c, 0, 51, 0
2, 69120, Note_on_c, 0, 50, 0
2, 69120, Note_on_c, 0, 64, 0
2, 69120, Note_on_c, 0, 62, 79
2, 69120, Note_on_c, 0, 62, 65
2, 69120, Note_on_c, 0, 54, 94
2, 69120, Note_on_c, 0, 58, 94
2, 69120, Note_on_c, 0, 36, 58
2, 69120, Note_on_c, 0, 42, 58
2, 69120, Note_on_c, 0, 48, 58
2, 69240, Note_on_c, 0, 48, 0
2, 69240, Note_on_c, 0, 42, 0
2, 69240, Note_on_c, 0, 58, 0
2, 69240, Note_on_c, 0, 54, 0
2, 69240, Note_on_c, 0, 36, 0
2, 69240, Note_on_c, 0, 53, 83
2, 69240, Note_on_c, 0, 57, 83
2, 69240, Note_on_c, 0, 35, 65
2, 69240, Note_on_c, 0, 41, 65
2, 69240, Note_on_c, 0, 47, 65
2, 69359, Note_on_c, 0, 47, 0
2, 69359, Note_on_c, 0, 41, 0
2, 69359, Note_on_c, 0, 57, 0
2, 69359, Note_on_c, 0, 53, 0
2, 69359, Note_on_c, 0, 35, 0
2, 69359, Note_on_c, 0, 52, 79
2, 69359, Note_on_c, 0, 56, 79
2, 69359, Note_on_c, 0, 34, 58
2, 69359, Note_on_c, 0, 40, 58
2, 69359, Note_on_c, 0, 46, 58
2, 69480, Note_on_c, 0, 46, 0
2, 69480, Note_on_c, 0, 40, 0
2, 69480, Note_on_c, 0, 56, 0
2, 69480, Note_on_c, 0, 52, 0
2, 69480, Note_on_c, 0, 34, 0
2, 69480, Note_on_c, 0, 51, 83
2, 69480, Note_on_c, 0, 55, 83
2, 69480, Note_on_c, 0, 33, 59
2, 69480, Note_on_c, 0, 39, 59
2, 69480, Note_on_c, 0, 45, 59
2, 69600, Note_on_c, 0, 45, 0
2, 69600, Note_on_c, 0, 39, 0
2, 69600, Note_on_c, 0, 55, 0
2, 69600, Note_on_c, 0, 51, 0
2, 69600, Note_on_c, 0, 33, 0
2, 69600, Note_on_c, 0, 50, 84
2, 69600, Note_on_c, 0, 54, 84
2, 69600, Note_on_c, 0, 32, 56
2, 69600, Note_on_c, 0, 38, 56
2, 69600, Note_on_c, 0, 44, 56
2, 69719, Note_on_c, 0, 44, 0
2, 69719, Note_on_c, 0, 38, 0
2, 69719, Note_on_c, 0, 54, 0
2, 69719, Note_on_c, 0, 50, 0
2, 69719, Note_on_c, 0, 32, 0
2, 69719, Note_on_c, 0, 50, 81
2, 69719, Note_on_c, 0, 53, 81
2, 69719, Note_on_c, 0, 31, 63
2, 69719, Note_on_c, 0, 38, 63
2, 69719, Note_on_c, 0, 43, 63
2, 69840, Note_on_c, 0, 43, 0
2, 69840, Note_on_c, 0, 62, 0
2, 69840, Note_on_c, 0, 50, 0
2, 69840, Note_on_c, 0, 53, 0
2, 69840, Note_on_c, 0, 38, 0
2, 69840, Note_on_c, 0, 62, 0
2, 69840, Note_on_c, 0, 31, 0
2, 69840, Note_on_c, 0, 63, 91
2, 69840, Note_on_c, 0, 57, 103
2, 69840, Note_on_c, 0, 49, 80
2, 69840, Note_on_c, 0, 51, 80
2, 69840, Note_on_c, 0, 30, 98
2, 69840, Note_on_c, 0, 37, 98
2, 69840, Note_on_c, 0, 42, 98
2, 70020, Note_on_c, 0, 42, 0
2, 70020, Note_on_c, 0, 37, 0
2, 70020, Note_on_c, 0, 30, 0
2, 70050, Note_on_c, 0, 57, 0
2, 70079, Note_on_c, 0, 58, 103
2, 70200, Note_on_c, 0, 58, 0
2, 70200, Note_on_c, 0, 51, 0
2, 70200, Note_on_c, 0, 49, 0
2, 70200, Note_on_c, 0, 63, 0
2, 70200, Note_on_c, 0, 86, 109
2, 70200, Note_on_c, 0, 67, 119
2, 70200, Note_on_c, 0, 55, 108
2, 70200, Note_on_c, 0, 38, 86
2, 70224, Note_on_c, 0, 57, 108
2, 70224, Note_on_c, 0, 45, 86
2, 70248, Note_on_c, 0, 62, 108
2, 70248, Note_on_c, 0, 50, 86
2, 70290, Note_on_c, 0, 86, 0
2, 70290, Note_on_c, 0, 88, 92
2, 70380, Note_on_c, 0, 88, 0
2, 70380, Note_on_c, 0, 86, 86
2, 70560, Note_on_c, 0, 67, 0
2, 70560, Note_on_c, 0, 66, 99
2, 70650, Note_on_c, 0, 86, 0
2, 70650, Note_on_c, 0, 88, 90
2, 70740, Note_on_c, 0, 88, 0
2, 70740, Note_on_c, 0, 84, 88
2, 70920, Note_on_c, 0, 66, 0
2, 70920, Note_on_c, 0, 65, 90
2, 71010, Note_on_c, 0, 84, 0
2, 71010, Note_on_c, 0, 88, 89
2, 71100, Note_on_c, 0, 88, 0
2, 71100, Note_on_c, 0, 81, 74
2, 71190, Note_on_c, 0, 81, 0
2, 71190, Note_on_c, 0, 88, 95
2, 71280, Note_on_c, 0, 88, 0
2, 71280, Note_on_c, 0, 50, 0
2, 71280, Note_on_c, 0, 65, 0
2, 71280, Note_on_c, 0, 45, 0
2, 71280, Note_on_c, 0, 57, 0
2, 71280, Note_on_c, 0, 55, 0
2, 71280, Note_on_c, 0, 62, 0
2, 71280, Note_on_c, 0, 38, 0
2, 71280, Note_on_c, 0, 81, 72
2, 71280, Note_on_c, 0, 64, 97
2, 71280, Note_on_c, 0, 56, 83
2, 71280, Note_on_c, 0, 38, 96
2, 71304, Note_on_c, 0, 62, 83
2, 71304, Note_on_c, 0, 46, 96
2, 71328, Note_on_c, 0, 50, 96
2, 71370, Note_on_c, 0, 81, 0
2, 71370, Note_on_c, 0, 82, 84
2, 71460, Note_on_c, 0, 82, 0
2, 71460, Note_on_c, 0, 80, 88
2, 71640, Note_on_c, 0, 64, 0
2, 71640, Note_on_c, 0, 65, 97
2, 71730, Note_on_c, 0, 80, 0
2, 71730, Note_on_c, 0, 82, 84
2, 71820, Note_on_c, 0, 82, 0
2, 71820, Note_on_c, 0, 79, 87
2, 72090, Note_on_c, 0, 79, 0
2, 72090, Note_on_c, 0, 82, 93
2, 72180, Note_on_c, 0, 82, 0
2, 72180, Note_on_c, 0, 65, 0
2, 72180, Note_on_c, 0, 74, 57
2, 72180, Note_on_c, 0, 66, 89
2, 72270, Note_on_c, 0, 74, 0
2, 72270, Note_on_c, 0, 82, 79
2, 72360, Note_on_c, 0, 82, 0
2, 72360, Note_on_c, 0, 50, 0
2, 72360, Note_on_c, 0, 62, 0
2, 72360, Note_on_c, 0, 38, 0
2, 72360, Note_on_c, 0, 56, 0
2, 72360, Note_on_c, 0, 66, 0
2, 72360, Note_on_c, 0, 46, 0
2, 72360, Note_on_c, 0, 74, 61
2, 72360, Note_on_c, 0, 62, 91
2, 72360, Note_on_c, 0, 55, 55
2, 72360, Note_on_c, 0, 38, 59
2, 72384, Note_on_c, 0, 67, 91
2, 72384, Note_on_c, 0, 45, 59
2, 72408, Note_on_c, 0, 69, 91
2, 72408, Note_on_c, 0, 50, 59
2, 72450, Note_on_c, 0, 74, 0
2, 72450, Note_on_c, 0, 76, 71
2, 72540, Note_on_c, 0, 76, 0
2, 72540, Note_on_c, 0, 74, 77
2, 72720, Note_on_c, 0, 69, 0
2, 72720, Note_on_c, 0, 55, 0
2, 72720, Note_on_c, 0, 67, 0
2, 72720, Note_on_c, 0, 62, 0
2, 72720, Note_on_c, 0, 66, 82
2, 72720, Note_on_c, 0, 54, 54
2, 72810, Note_on_c, 0, 74, 0
2, 72810, Note_on_c, 0, 76, 76
2, 72900, Note_on_c, 0, 76, 0
2, 72900, Note_on_c, 0, 72, 77
2, 73170, Note_on_c, 0, 72, 0
2, 73170, Note_on_c, 0, 76, 77
2, 73260, Note_on_c, 0, 76, 0
2, 73260, Note_on_c, 0, 54, 0
2, 73260, Note_on_c, 0, 66, 0
2, 73260, Note_on_c, 0, 69, 60
2, 73260, Note_on_c, 0, 65, 80
2, 73260, Note_on_c, 0, 53, 57
2, 73350, Note_on_c, 0, 69, 0
2, 73350, Note_on_c, 0, 76, 83
2, 73440, Note_on_c, 0, 76, 0
2, 73440, Note_on_c, 0, 65, 0
2, 73440, Note_on_c, 0, 45, 0
2, 73440, Note_on_c, 0, 53, 0
2, 73440, Note_on_c, 0, 50, 0
2, 73440, Note_on_c, 0, 38, 0
2, 73440, Note_on_c, 0, 69, 71
2, 73440, Note_on_c, 0, 56, 85
2, 73440, Note_on_c, 0, 62, 85
2, 73440, Note_on_c, 0, 52, 60
2, 73440, Note_on_c, 0, 38, 60
2, 73457, Note_on_c, 0, 46, 61
2, 73530, Note_on_c, 0, 69, 0
2, 73530, Note_on_c, 0, 70, 72
2, 73620, Note_on_c, 0, 70, 0
2, 73620, Note_on_c, 0, 68, 73
2, 73800, Note_on_c, 0, 52, 0
2, 73800, Note_on_c, 0, 53, 65
2, 73890, Note_on_c, 0, 68, 0
2, 73890, Note_on_c, 0, 70, 76
2, 73980, Note_on_c, 0, 70, 0
2, 73980, Note_on_c, 0, 67, 77
2, 74250, Note_on_c, 0, 67, 0
2, 74250, Note_on_c, 0, 70, 80
2, 74340, Note_on_c, 0, 70, 0
2, 74340, Note_on_c, 0, 53, 0
2, 74340, Note_on_c, 0, 62, 81
2, 74340, Note_on_c, 0, 54, 71
2, 74430, Note_on_c, 0, 62, 0
2, 74430, Note_on_c, 0, 70, 82
2, 74520, Note_on_c, 0, 70, 0
2, 74520, Note_on_c, 0, 54, 0
2, 74520, Note_on_c, 0, 46, 0
2, 74520, Note_on_c, 0, 38, 0
2, 74520, Note_on_c, 0, 56, 0
2, 74520, Note_on_c, 0, 62, 0
2, 74520, Note_on_c, 0, 62, 83
2, 74520, Note_on_c, 0, 57, 97
2, 74520, Note_on_c, 0, 55, 73
2, 74520, Note_on_c, 0, 38, 73
2, 74520, Note_on_c, 0, 45, 73
2, 74520, Note_on_c, 0, 50, 73
2, 74610, Note_on_c, 0, 62, 0
2, 74610, Note_on_c, 0, 64, 83
2, 74700, Note_on_c, 0, 64, 0
2, 74700, Note_on_c, 0, 62, 73
2, 74880, Note_on_c, 0, 55, 0
2, 74880, Note_on_c, 0, 54, 66
2, 75240, Note_on_c, 0, 62, 0
2, 75240, Note_on_c, 0, 74, 63
2, 75420, Note_on_c, 0, 54, 0
2, 75420, Note_on_c, 0, 53, 49
2, 75600, Note_on_c, 0, 50, 0
2, 75600, Note_on_c, 0, 45, 0
2, 75600, Note_on_c, 0, 57, 0
2, 75600, Note_on_c, 0, 38, 0
2, 75600, Note_on_c, 0, 53, 0
2, 75600, Note_on_c, 0, 74, 0
2, 75600, Note_on_c, 0, 62, 49
2, 75600, Note_on_c, 0, 55, 102
2, 75600, Note_on_c, 0, 57, 102
2, 75600, Note_on_c, 0, 52, 58
2, 75600, Note_on_c, 0, 38, 55
2, 75600, Note_on_c, 0, 45, 55
2, 75679, Note_on_c, 0, 62, 0
2, 75690, Note_on_c, 0, 64, 53
2, 75780, Note_on_c, 0, 64, 0
2, 75780, Note_on_c, 0, 62, 44
2, 75917, Note_on_c, 0, 52, 0
2, 75960, Note_on_c, 0, 51, 51
2, 76320, Note_on_c, 0, 62, 0
2, 76320, Note_on_c, 0, 74, 69
2, 76410, Note_on_c, 0, 51, 0
2, 76410, Note_on_c, 0, 50, 46
2, 76500, Note_on_c, 0, 50, 0
2, 76500, Note_on_c, 0, 49, 52
2, 76559, Note_on_c, 0, 49, 0
2, 76559, Note_on_c, 0, 50, 51
2, 76620, Note_on_c, 0, 50, 0
2, 76620, Note_on_c, 0, 51, 48
2, 76680, Note_on_c, 0, 51, 0
2, 76680, Note_on_c, 0, 45, 0
2, 76680, Note_on_c, 0, 55, 0
2, 76680, Note_on_c, 0, 57, 0
2, 76680, Note_on_c, 0, 38, 0
2, 76680, Note_on_c, 0, 74, 0
2, 76680, Note_on_c, 0, 62, 48
2, 76680, Note_on_c, 0, 55, 96
2, 76680, Note_on_c, 0, 57, 96
2, 76680, Note_on_c, 0, 50, 58
2, 76680, Note_on_c, 0, 38, 60
2, 76680, Note_on_c, 0, 45, 60
2, 76759, Note_on_c, 0, 62, 0
2, 76770, Note_on_c, 0, 64, 49
2, 76860, Note_on_c, 0, 64, 0
2, 76860, Note_on_c, 0, 62, 49
2, 77040, Note_on_c, 0, 55, 0
2, 77310, Note_on_c, 0, 62, 0
2, 77310, Note_on_c, 0, 60, 59
2, 77400, Note_on_c, 0, 60, 0
2, 77400, Note_on_c, 0, 64, 68
2, 77490, Note_on_c, 0, 64, 0
2, 77490, Note_on_c, 0, 62, 56
2, 77580, Note_on_c, 0, 62, 0
2, 77580, Note_on_c, 0, 60, 57
2, 77670, Note_on_c, 0, 60, 0
2, 77670, Note_on_c, 0, 57, 57
2, 77760, Note_on_c, 0, 57, 0
2, 77760, Note_on_c, 0, 57, 0
2, 77760, Note_on_c, 0, 64, 60
2, 77819, Note_on_c, 0, 64, 0
2, 77819, Note_on_c, 0, 62, 60
2, 77880, Note_on_c, 0, 62, 0
2, 77880, Note_on_c, 0, 60, 59
2, 77940, Note_on_c, 0, 60, 0
2, 77940, Note_on_c, 0, 57, 58
2, 77999, Note_on_c, 0, 57, 0
2, 77999, Note_on_c, 0, 64, 58
2, 78060, Note_on_c, 0, 64, 0
2, 78060, Note_on_c, 0, 62, 57
2, 78120, Note_on_c, 0, 62, 0
2, 78120, Note_on_c, 0, 60, 56
2, 78179, Note_on_c, 0, 60, 0
2, 78179, Note_on_c, 0, 57, 56
2, 78240, Note_on_c, 0, 57, 0
2, 78240, Note_on_c, 0, 64, 55
2, 78300, Note_on_c, 0, 64, 0
2, 78300, Note_on_c, 0, 62, 54
2, 78359, Note_on_c, 0, 62, 0
2, 78359, Note_on_c, 0, 60, 53
2, 78420, Note_on_c, 0, 60, 0
2, 78420, Note_on_c, 0, 57, 53
2, 78480, Note_on_c, 0, 57, 0
2, 78480, Note_on_c, 0, 64, 52
2, 78539, Note_on_c, 0, 64, 0
2, 78539, Note_on_c, 0, 62, 51
2, 78600, Note_on_c, 0, 62, 0
2, 78600, Note_on_c, 0, 60, 51
2, 78660, Note_on_c, 0, 60, 0
2, 78660, Note_on_c, 0, 57, 50
2, 78719, Note_on_c, 0, 57, 0
2, 78719, Note_on_c, 0, 60, 49
2, 78780, Note_on_c, 0, 60, 0
2, 78780, Note_on_c, 0, 64, 48
2, 78840, Note_on_c, 0, 64, 0
2, 78840, Note_on_c, 0, 62, 48
2, 79920, Note_on_c, 0, 62, 0
2, 79920, Note_on_c, 0, 38, 0
2, 79920, Note_on_c, 0, 53, 0
2, 79920, Note_on_c, 0, 45, 0
2, 79920, Note_on_c, 0, 50, 0
2, 79920, End_track
0, 0, End_of_file
